<svg xmlns="http://www.w3.org/2000/svg" width="1273" height="1550" fill="none" viewBox="0 0 1273 1550"><path fill="#002647" d="m1005.45 800-112.715-52.437s16.762-35.726 21.964-74.333c6.212-46.098 0-79.519 0-79.519L1038.39 577s7.52 67.419 0 115.822C1030.88 741.225 1005.45 800 1005.45 800M1 1460c0-14.91 12.088-27 27-27h88v116H28c-14.912 0-27-12.09-27-27z"/><rect width="1271" height="116" x="1" y="1433" stroke="#dbdbdb" stroke-width="2" rx="26"/><path stroke="#dbdbdb" stroke-width="2" d="M233 1432v118M117 1432v118M348 1432v118M464 1432v118M580 1432v118M696 1432v118M811 1432v118M927 1432v118M1042 1432v118M1158 1432v118"/><path fill="#fff" d="M161.939 1506.4c-1.875 0-3.547-.32-5.015-.97-1.458-.64-2.618-1.54-3.48-2.68q-1.278-1.74-1.392-4.02h3.58q.113 1.395.966 2.43.852 1.005 2.23 1.56c.918.37 1.936.55 3.054.55 1.25 0 2.358-.22 3.324-.65.966-.44 1.723-1.04 2.272-1.82q.825-1.17.824-2.7 0-1.605-.795-2.82c-.531-.83-1.307-1.47-2.33-1.94q-1.535-.69-3.75-.69h-2.329v-3.13h2.329c1.156 0 2.169-.21 3.04-.62.881-.42 1.567-1.01 2.06-1.76q.752-1.14.752-2.67 0-1.485-.653-2.58a4.54 4.54 0 0 0-1.847-1.7c-.786-.41-1.714-.61-2.784-.61a7.3 7.3 0 0 0-2.841.55c-.88.36-1.6.89-2.159 1.58-.558.68-.861 1.51-.909 2.47h-3.409c.057-1.52.516-2.86 1.378-4q1.293-1.74 3.381-2.7c1.401-.65 2.94-.97 4.616-.97 1.799 0 3.343.37 4.631 1.1 1.288.71 2.277 1.67 2.969 2.85a7.47 7.47 0 0 1 1.037 3.84c0 1.63-.431 3.03-1.293 4.19q-1.278 1.725-3.48 2.4v.22c1.837.31 3.272 1.09 4.304 2.35 1.032 1.25 1.548 2.8 1.548 4.64q0 2.37-1.293 4.26c-.852 1.25-2.017 2.24-3.494 2.96q-2.216 1.08-5.042 1.08m24.73 0c-1.667 0-3.168-.33-4.503-1-1.335-.66-2.405-1.57-3.21-2.72-.805-1.16-1.246-2.48-1.321-3.95h3.409c.132 1.31.729 2.4 1.789 3.26 1.071.86 2.349 1.28 3.836 1.28q1.79 0 3.181-.84a5.8 5.8 0 0 0 2.202-2.3q.81-1.47.81-3.33c0-1.27-.279-2.41-.838-3.4a6.2 6.2 0 0 0-2.273-2.37c-.966-.58-2.069-.87-3.31-.88-.89-.01-1.804.13-2.741.41-.938.27-1.709.63-2.315 1.06l-3.296-.39 1.761-14.32h15.114v3.12h-12.159l-1.023 8.58h.171c.596-.47 1.344-.86 2.244-1.18a8.6 8.6 0 0 1 2.813-.46c1.78 0 3.366.42 4.758 1.27 1.402.85 2.5 2 3.296 3.47.804 1.47 1.207 3.14 1.207 5.03 0 1.85-.417 3.51-1.25 4.97a9.2 9.2 0 0 1-3.409 3.44c-1.449.83-3.097 1.25-4.943 1.25M45.2 1506.4c-1.667 0-3.168-.33-4.503-1-1.335-.66-2.405-1.57-3.21-2.72-.805-1.16-1.245-2.48-1.321-3.95h3.409c.133 1.31.73 2.4 1.79 3.26 1.07.86 2.348 1.28 3.835 1.28q1.79 0 3.182-.84a5.8 5.8 0 0 0 2.202-2.3q.81-1.47.81-3.33c0-1.27-.28-2.41-.839-3.4q-.824-1.5-2.273-2.37c-.966-.58-2.069-.87-3.31-.88a9.2 9.2 0 0 0-2.74.41c-.938.27-1.71.63-2.316 1.06l-3.296-.39 1.762-14.32h15.113v3.12H41.336l-1.022 8.58h.17c.597-.47 1.345-.86 2.244-1.18.9-.31 1.837-.46 2.813-.46 1.78 0 3.366.42 4.758 1.27 1.402.85 2.5 2 3.296 3.47.805 1.47 1.207 3.14 1.207 5.03 0 1.85-.416 3.51-1.25 4.97a9.2 9.2 0 0 1-3.409 3.44c-1.449.83-3.096 1.25-4.943 1.25m25.075 0c-1.876 0-3.547-.32-5.015-.97-1.458-.64-2.618-1.54-3.48-2.68q-1.278-1.74-1.392-4.02h3.58q.112 1.395.966 2.43.852 1.005 2.23 1.56c.918.37 1.936.55 3.054.55 1.25 0 2.358-.22 3.323-.65.966-.44 1.724-1.04 2.273-1.82q.824-1.17.824-2.7 0-1.605-.795-2.82c-.53-.83-1.307-1.47-2.33-1.94q-1.534-.69-3.75-.69h-2.33v-3.13h2.33c1.155 0 2.169-.21 3.04-.62.88-.42 1.567-1.01 2.06-1.76q.752-1.14.752-2.67 0-1.485-.653-2.58a4.54 4.54 0 0 0-1.847-1.7c-.786-.41-1.714-.61-2.784-.61-1.004 0-1.95.18-2.84.55-.881.36-1.601.89-2.16 1.58-.558.68-.861 1.51-.909 2.47h-3.409c.057-1.52.516-2.86 1.378-4q1.293-1.74 3.38-2.7c1.402-.65 2.941-.97 4.617-.97 1.8 0 3.343.37 4.63 1.1 1.289.71 2.278 1.67 2.97 2.85a7.46 7.46 0 0 1 1.037 3.84c0 1.63-.431 3.03-1.293 4.19q-1.278 1.725-3.48 2.4v.22c1.837.31 3.272 1.09 4.304 2.35 1.032 1.25 1.548 2.8 1.548 4.64q0 2.37-1.293 4.26c-.852 1.25-2.017 2.24-3.494 2.96q-2.216 1.08-5.042 1.08M638.235 310.398q-3.21 0-5.469-1.747-2.258-1.762-3.452-5.1-1.193-3.353-1.193-8.096 0-4.716 1.193-8.054 1.207-3.353 3.466-5.114 2.272-1.776 5.455-1.776 3.181 0 5.44 1.776 2.272 1.761 3.466 5.114 1.207 3.338 1.207 8.054 0 4.743-1.193 8.096-1.193 3.338-3.452 5.1-2.258 1.746-5.468 1.747m0-3.125q3.182 0 4.943-3.068 1.761-3.07 1.761-8.75 0-3.778-.809-6.435-.796-2.656-2.302-4.048-1.491-1.392-3.593-1.392-3.154 0-4.929 3.11-1.776 3.097-1.776 8.765 0 3.778.796 6.42.795 2.642 2.286 4.02 1.506 1.378 3.623 1.378M438.215 335.909V365h-3.522v-25.398h-.171l-7.102 4.716v-3.579l7.273-4.83zm17.628-.398q1.79.015 3.58.682 1.79.668 3.267 2.216 1.477 1.535 2.372 4.19.895 2.657.895 6.662 0 3.879-.739 6.89-.724 2.997-2.102 5.056-1.363 2.06-3.324 3.125-1.946 1.066-4.403 1.066-2.444 0-4.361-.966a8.56 8.56 0 0 1-3.125-2.713q-1.207-1.747-1.548-4.049h3.466q.468 2.004 1.86 3.31 1.407 1.293 3.708 1.293 3.366 0 5.312-2.941 1.96-2.94 1.96-8.309h-.227a8.9 8.9 0 0 1-1.889 2.059 8.3 8.3 0 0 1-2.429 1.336 8.5 8.5 0 0 1-2.841.468q-2.5 0-4.588-1.235-2.074-1.25-3.324-3.424-1.236-2.187-1.236-5 0-2.67 1.194-4.886a9.2 9.2 0 0 1 3.38-3.551q2.188-1.321 5.142-1.279m0 3.125q-1.79 0-3.224.895a6.44 6.44 0 0 0-2.259 2.387q-.824 1.491-.824 3.309t.796 3.31a6.35 6.35 0 0 0 2.202 2.358q1.405.866 3.196.866a6.05 6.05 0 0 0 2.514-.525 6.5 6.5 0 0 0 2.031-1.463 7.1 7.1 0 0 0 1.378-2.117 6.4 6.4 0 0 0 .497-2.486 6.5 6.5 0 0 0-.824-3.196 6.54 6.54 0 0 0-2.244-2.414q-1.42-.924-3.239-.924m24.961-3.125q1.79.015 3.58.682 1.79.668 3.267 2.216 1.477 1.535 2.372 4.19.895 2.657.895 6.662 0 3.879-.739 6.89-.724 2.997-2.102 5.056-1.363 2.06-3.324 3.125-1.946 1.066-4.403 1.066-2.444 0-4.361-.966a8.56 8.56 0 0 1-3.125-2.713q-1.208-1.747-1.548-4.049h3.465q.47 2.004 1.861 3.31 1.407 1.293 3.708 1.293 3.366 0 5.312-2.941 1.96-2.94 1.96-8.309h-.227a8.9 8.9 0 0 1-1.889 2.059 8.3 8.3 0 0 1-2.429 1.336 8.5 8.5 0 0 1-2.841.468q-2.5 0-4.588-1.235-2.075-1.25-3.324-3.424-1.236-2.187-1.236-5 0-2.67 1.193-4.886a9.2 9.2 0 0 1 3.381-3.551q2.188-1.321 5.142-1.279m0 3.125q-1.79 0-3.224.895a6.44 6.44 0 0 0-2.259 2.387q-.824 1.491-.824 3.309t.796 3.31a6.35 6.35 0 0 0 2.202 2.358q1.405.866 3.196.866a6.05 6.05 0 0 0 2.514-.525 6.5 6.5 0 0 0 2.031-1.463 7.1 7.1 0 0 0 1.378-2.117 6.4 6.4 0 0 0 .497-2.486 6.5 6.5 0 0 0-.824-3.196 6.54 6.54 0 0 0-2.244-2.414q-1.42-.924-3.239-.924M310.118 480.909V510h-3.523v-25.398h-.17l-7.103 4.716v-3.579l7.273-4.83zm17.684 29.489q-2.925 0-5.17-1.037-2.23-1.051-3.48-2.884-1.25-1.846-1.236-4.204-.014-1.847.725-3.409a7.4 7.4 0 0 1 2.017-2.628 6.2 6.2 0 0 1 2.883-1.35v-.17q-2.088-.54-3.324-2.344-1.236-1.818-1.221-4.133-.015-2.217 1.122-3.963 1.136-1.748 3.125-2.756 2.003-1.009 4.559-1.009 2.53 0 4.517 1.009 1.99 1.008 3.125 2.756 1.152 1.746 1.165 3.963-.014 2.315-1.264 4.133-1.236 1.804-3.281 2.344v.17q1.576.285 2.841 1.35 1.264 1.05 2.017 2.628.752 1.562.767 3.409-.015 2.358-1.279 4.204-1.25 1.833-3.48 2.884-2.215 1.037-5.128 1.037m0-3.125q1.975 0 3.41-.639 1.435-.64 2.215-1.804.781-1.165.796-2.728-.015-1.647-.852-2.912-.838-1.263-2.287-1.988-1.435-.725-3.282-.725-1.86 0-3.323.725-1.45.725-2.287 1.988-.824 1.265-.81 2.912-.014 1.563.753 2.728.781 1.164 2.23 1.804 1.45.639 3.437.639m0-13.807q1.563 0 2.77-.625a4.75 4.75 0 0 0 1.918-1.747q.696-1.122.71-2.628-.014-1.477-.696-2.571a4.5 4.5 0 0 0-1.889-1.705q-1.207-.61-2.813-.61-1.633 0-2.855.61-1.221.597-1.889 1.705-.668 1.093-.653 2.571-.014 1.506.667 2.628a4.76 4.76 0 0 0 1.918 1.747q1.221.625 2.812.625m25.16 16.932q-2.812 0-5.014-.966-2.187-.966-3.48-2.685-1.278-1.733-1.392-4.02h3.579q.114 1.407.966 2.429.853 1.009 2.23 1.563 1.379.554 3.054.554 1.875 0 3.324-.654 1.45-.652 2.273-1.818.824-1.164.824-2.699 0-1.605-.796-2.826-.795-1.236-2.329-1.932t-3.75-.696h-2.33v-3.125h2.33q1.732 0 3.04-.625 1.32-.625 2.059-1.762.753-1.135.753-2.67 0-1.477-.653-2.571-.653-1.093-1.847-1.705-1.179-.61-2.784-.61a7.3 7.3 0 0 0-2.841.554q-1.321.539-2.159 1.576-.839 1.023-.909 2.472h-3.409q.085-2.287 1.378-4.006 1.292-1.733 3.38-2.699 2.103-.966 4.617-.966 2.699 0 4.631 1.094 1.931 1.08 2.968 2.855a7.47 7.47 0 0 1 1.037 3.835q0 2.458-1.292 4.191-1.28 1.732-3.48 2.4v.228q2.755.454 4.303 2.343 1.55 1.876 1.549 4.645 0 2.372-1.293 4.262-1.278 1.874-3.494 2.954t-5.043 1.08M285.547 667.909V697h-3.522v-25.398h-.171l-7.102 4.716v-3.579l7.273-4.83zM293.914 697v-2.557l9.602-10.511a67 67 0 0 0 2.784-3.21q1.094-1.378 1.62-2.586a6.3 6.3 0 0 0 .539-2.556q0-1.535-.738-2.657-.725-1.122-1.989-1.733-1.265-.61-2.841-.61-1.676 0-2.926.696a4.8 4.8 0 0 0-1.918 1.917q-.667 1.236-.667 2.898h-3.352q0-2.557 1.179-4.489a8.2 8.2 0 0 1 3.21-3.011q2.045-1.08 4.588-1.08 2.556 0 4.531 1.08t3.097 2.912 1.122 4.077q0 1.605-.583 3.139-.567 1.52-1.988 3.395-1.407 1.86-3.906 4.545l-6.535 6.989v.227h13.523V697zm22.912-5.966v-2.898l12.784-20.227h2.102v4.489h-1.42l-9.659 15.284v.227h17.216v3.125zM330.519 697v-29.091h3.352V697zM363.958 835.909V865h-3.523v-25.398h-.171l-7.102 4.716v-3.579l7.273-4.83zM372.324 865v-2.557l9.602-10.511a67 67 0 0 0 2.784-3.21q1.094-1.378 1.62-2.586.54-1.221.54-2.556 0-1.535-.739-2.657-.725-1.122-1.989-1.733-1.264-.61-2.841-.61-1.675 0-2.926.696a4.8 4.8 0 0 0-1.917 1.917q-.668 1.236-.668 2.898h-3.352q0-2.557 1.179-4.489a8.2 8.2 0 0 1 3.21-3.011q2.046-1.08 4.588-1.08 2.557 0 4.531 1.08 1.975 1.08 3.097 2.912t1.122 4.077q0 1.605-.582 3.139-.569 1.52-1.989 3.395-1.407 1.86-3.906 4.545l-6.534 6.989v.227h13.522V865zm24.219 0v-2.557l9.602-10.511a67 67 0 0 0 2.784-3.21q1.094-1.378 1.62-2.586a6.3 6.3 0 0 0 .539-2.556q0-1.535-.738-2.657-.725-1.122-1.989-1.733-1.264-.61-2.841-.61-1.676 0-2.926.696a4.8 4.8 0 0 0-1.918 1.917q-.667 1.236-.667 2.898h-3.353q0-2.557 1.179-4.489a8.2 8.2 0 0 1 3.211-3.011q2.045-1.08 4.588-1.08 2.557 0 4.531 1.08t3.097 2.912 1.122 4.077q0 1.605-.583 3.139-.567 1.52-1.988 3.395-1.407 1.86-3.907 4.545l-6.534 6.989v.227h13.523V865zM529.703 944.511q1.79.015 3.579.682 1.79.668 3.267 2.216 1.478 1.535 2.372 4.19.895 2.657.895 6.662 0 3.879-.738 6.89-.725 2.997-2.103 5.056-1.364 2.06-3.323 3.125-1.947 1.066-4.404 1.066-2.443 0-4.361-.966a8.6 8.6 0 0 1-3.125-2.713q-1.207-1.747-1.548-4.049h3.466q.469 2.004 1.861 3.31 1.406 1.293 3.707 1.293 3.366 0 5.313-2.941 1.96-2.94 1.96-8.309h-.227a8.9 8.9 0 0 1-1.89 2.059 8.3 8.3 0 0 1-2.429 1.336 8.5 8.5 0 0 1-2.841.468q-2.5 0-4.588-1.235-2.073-1.25-3.323-3.424-1.236-2.187-1.236-5 0-2.67 1.193-4.886a9.2 9.2 0 0 1 3.381-3.551q2.187-1.321 5.142-1.279m0 3.125q-1.79 0-3.225.895a6.43 6.43 0 0 0-2.258 2.387q-.824 1.491-.824 3.309t.795 3.31a6.35 6.35 0 0 0 2.202 2.358q1.407.866 3.196.866 1.35 0 2.514-.525a6.5 6.5 0 0 0 2.031-1.463 7.1 7.1 0 0 0 1.378-2.117 6.4 6.4 0 0 0 .497-2.486 6.5 6.5 0 0 0-.823-3.196 6.54 6.54 0 0 0-2.245-2.414q-1.42-.924-3.238-.924m25.017 26.762q-2.926 0-5.17-1.037-2.23-1.051-3.48-2.884-1.25-1.846-1.236-4.204-.014-1.847.724-3.409a7.4 7.4 0 0 1 2.018-2.628 6.2 6.2 0 0 1 2.883-1.35v-.17q-2.088-.54-3.324-2.344-1.236-1.818-1.221-4.133-.015-2.217 1.122-3.963 1.136-1.748 3.125-2.756 2.003-1.009 4.559-1.009 2.53 0 4.517 1.009 1.99 1.008 3.125 2.756 1.152 1.746 1.165 3.963-.014 2.315-1.264 4.133-1.236 1.804-3.281 2.344v.17q1.577.285 2.841 1.35a7.66 7.66 0 0 1 2.017 2.628q.752 1.562.767 3.409-.015 2.358-1.279 4.204-1.25 1.833-3.48 2.884-2.215 1.037-5.128 1.037m0-3.125q1.975 0 3.41-.639 1.435-.64 2.215-1.804.781-1.165.796-2.728-.015-1.647-.852-2.912-.838-1.263-2.287-1.988-1.436-.725-3.282-.725-1.86 0-3.323.725-1.45.725-2.287 1.988-.825 1.265-.81 2.912-.015 1.563.753 2.728.781 1.164 2.23 1.804 1.45.639 3.437.639m0-13.807q1.563 0 2.77-.625a4.75 4.75 0 0 0 1.918-1.747q.696-1.122.71-2.628-.013-1.477-.696-2.571a4.5 4.5 0 0 0-1.889-1.705q-1.208-.61-2.813-.61-1.633 0-2.855.61-1.221.597-1.889 1.705-.668 1.094-.653 2.571-.015 1.506.667 2.628a4.76 4.76 0 0 0 1.918 1.747q1.221.625 2.812.625M364.509 1147.28v-2.73H383.6v2.73h-8.004V1170h-3.083v-22.72zm26.384 11.24V1170h-2.933v-25.45h2.933v9.34h.248a5.44 5.44 0 0 1 2.014-2.35c.903-.59 2.105-.88 3.604-.88q1.951 0 3.418.78c.978.52 1.736 1.31 2.275 2.38q.82 1.59.82 4.05V1170h-2.933v-11.93c0-1.52-.394-2.69-1.181-3.52-.779-.84-1.86-1.25-3.244-1.25q-1.442 0-2.585.6c-.754.41-1.351 1-1.79 1.78-.431.78-.646 1.73-.646 2.84m25.75 11.88c-1.84 0-3.427-.41-4.761-1.22-1.326-.82-2.349-1.96-3.07-3.43-.712-1.48-1.069-3.19-1.069-5.15 0-1.95.357-3.68 1.069-5.17.721-1.5 1.724-2.66 3.008-3.5 1.293-.85 2.801-1.27 4.524-1.27.995 0 1.976.17 2.946.5.969.33 1.852.87 2.647 1.61q1.194 1.11 1.902 2.94.708 1.815.708 4.5v1.24h-14.716v-2.54h11.733c0-1.07-.215-2.04-.646-2.88a4.84 4.84 0 0 0-1.815-2c-.778-.49-1.698-.73-2.759-.73q-1.752 0-3.032.87a5.7 5.7 0 0 0-1.952 2.23 6.6 6.6 0 0 0-.683 2.96v1.69c0 1.44.248 2.67.745 3.67.506.99 1.206 1.75 2.101 2.27s1.935.77 3.12.77c.77 0 1.466-.1 2.088-.32a4.5 4.5 0 0 0 1.628-.99 4.6 4.6 0 0 0 1.056-1.67l2.834.8c-.298.96-.8 1.8-1.504 2.53-.704.72-1.574 1.29-2.61 1.69q-1.554.6-3.492.6m15.3-11.88V1170h-2.934v-19.09h2.834v2.98h.249a5.4 5.4 0 0 1 2.038-2.33q1.368-.9 3.53-.9c1.293 0 2.424.27 3.393.8.97.52 1.724 1.31 2.262 2.38.539 1.06.808 2.41.808 4.03V1170h-2.933v-11.93q0-2.25-1.169-3.51-1.167-1.26-3.206-1.26-1.405 0-2.511.6c-.729.41-1.305 1-1.728 1.78-.422.78-.633 1.73-.633 2.84m40.906-3.34-2.634.75a4.8 4.8 0 0 0-.734-1.28c-.315-.42-.746-.77-1.292-1.04-.547-.28-1.247-.41-2.101-.41-1.168 0-2.142.27-2.921.8-.77.53-1.156 1.21-1.156 2.03 0 .73.266 1.3.796 1.73q.795.63 2.486 1.05l2.833.7c1.707.41 2.979 1.05 3.816 1.9q1.255 1.275 1.255 3.27c0 1.09-.314 2.07-.944 2.93-.622.87-1.492 1.54-2.61 2.04q-1.679.75-3.903.75c-1.947 0-3.559-.42-4.835-1.27s-2.084-2.08-2.423-3.7l2.784-.7q.397 1.545 1.504 2.31c.745.52 1.719.77 2.92.77q2.051 0 3.257-.87c.812-.59 1.218-1.29 1.218-2.11 0-.66-.232-1.22-.696-1.67q-.696-.675-2.138-1.02l-3.182-.74c-1.748-.42-3.032-1.06-3.853-1.93-.812-.88-1.218-1.97-1.218-3.29 0-1.08.303-2.03.907-2.86q.92-1.245 2.499-1.95c1.06-.47 2.262-.71 3.604-.71 1.889 0 3.373.41 4.45 1.24 1.085.83 1.856 1.93 2.311 3.28m12.52 15.22c-1.79 0-3.331-.42-4.624-1.27s-2.287-2.01-2.983-3.49c-.696-1.49-1.044-3.18-1.044-5.09 0-1.93.356-3.65 1.069-5.13.721-1.49 1.723-2.65 3.008-3.49 1.292-.85 2.8-1.27 4.524-1.27q2.013 0 3.629.75a6.9 6.9 0 0 1 2.647 2.08c.688.9 1.115 1.94 1.281 3.14h-2.934c-.223-.87-.72-1.64-1.491-2.32-.762-.67-1.79-1.01-3.082-1.01-1.144 0-2.147.29-3.008.89-.854.59-1.521 1.42-2.001 2.5-.473 1.07-.709 2.32-.709 3.76 0 1.48.232 2.76.696 3.86q.709 1.635 1.989 2.55 1.293.9 3.033.9 1.143 0 2.075-.39a4.3 4.3 0 0 0 1.579-1.15c.431-.5.737-1.09.919-1.79h2.934a6.8 6.8 0 0 1-1.231 3.05q-.97 1.335-2.573 2.13c-1.06.53-2.295.79-3.703.79m17.413.05q-1.815 0-3.294-.69a5.6 5.6 0 0 1-2.349-2q-.87-1.32-.87-3.18c0-1.09.215-1.98.646-2.66a4.46 4.46 0 0 1 1.728-1.61 9 9 0 0 1 2.386-.87q1.318-.3 2.647-.48 1.74-.225 2.822-.33c.729-.09 1.259-.22 1.591-.41.339-.19.509-.52.509-1v-.1c0-1.22-.335-2.18-1.006-2.86-.663-.67-1.67-1.01-3.021-1.01-1.4 0-2.498.3-3.293.92-.796.61-1.355 1.26-1.678 1.96l-2.784-1q.746-1.74 1.988-2.7a7.4 7.4 0 0 1 2.735-1.37c.994-.27 1.972-.4 2.933-.4.613 0 1.317.08 2.113.22.804.15 1.578.44 2.324.89.754.44 1.38 1.12 1.877 2.02q.746 1.365.746 3.63V1170h-2.934v-2.59h-.149c-.199.42-.53.86-.994 1.33-.464.48-1.081.88-1.852 1.21s-1.711.5-2.821.5m.447-2.64c1.16 0 2.138-.23 2.933-.68q1.206-.69 1.815-1.77c.414-.72.621-1.48.621-2.27v-2.69c-.124.15-.397.29-.82.41-.414.12-.895.22-1.442.32-.538.08-1.065.15-1.578.22q-.759.09-1.231.15-1.143.15-2.137.48-.982.33-1.591.99c-.398.43-.597 1.01-.597 1.76q0 1.53 1.131 2.31c.762.52 1.728.77 2.896.77m16.59-9.29V1170h-2.934v-19.09h2.834v2.98h.249a5.4 5.4 0 0 1 2.038-2.33q1.367-.9 3.53-.9c1.293 0 2.424.27 3.393.8.969.52 1.724 1.31 2.262 2.38.539 1.06.808 2.41.808 4.03V1170h-2.933v-11.93q0-2.25-1.169-3.51-1.167-1.26-3.206-1.26-1.405 0-2.511.6c-.729.41-1.305 1-1.728 1.78-.422.78-.633 1.73-.633 2.84m31.063-3.34-2.635.75a4.8 4.8 0 0 0-.734-1.28c-.314-.42-.745-.77-1.292-1.04-.547-.28-1.247-.41-2.101-.41-1.168 0-2.142.27-2.92.8-.771.53-1.156 1.21-1.156 2.03 0 .73.265 1.3.795 1.73q.795.63 2.486 1.05l2.834.7c1.707.41 2.979 1.05 3.815 1.9q1.256 1.275 1.256 3.27a4.84 4.84 0 0 1-.945 2.93c-.621.87-1.491 1.54-2.61 2.04q-1.678.75-3.903.75c-1.947 0-3.559-.42-4.835-1.27s-2.083-2.08-2.423-3.7l2.784-.7q.397 1.545 1.504 2.31c.746.52 1.719.77 2.921.77q2.05 0 3.256-.87c.812-.59 1.218-1.29 1.218-2.11 0-.66-.232-1.22-.696-1.67q-.696-.675-2.138-1.02l-3.182-.74c-1.748-.42-3.032-1.06-3.853-1.93-.812-.88-1.218-1.97-1.218-3.29 0-1.08.303-2.03.908-2.86q.92-1.245 2.498-1.95c1.061-.47 2.262-.71 3.604-.71 1.89 0 3.373.41 4.45 1.24 1.085.83 1.856 1.93 2.312 3.28m23.108-4.27v2.48h-10.291v-2.48zm-7.209 19.09v-21.73q0-1.635.771-2.73a4.74 4.74 0 0 1 2.001-1.64 6.2 6.2 0 0 1 2.598-.55q1.081 0 1.765.18c.455.11.795.22 1.019.32l-.845 2.53c-.149-.04-.357-.11-.622-.18-.257-.08-.596-.11-1.019-.11-.969 0-1.67.24-2.1.73-.423.49-.634 1.21-.634 2.15V1170zm11.32 0v-19.09h2.834v2.88h.199c.348-.94.978-1.71 1.889-2.3s1.939-.88 3.082-.88c.216 0 .485 0 .808.01s.568.02.734.04v2.98c-.1-.02-.328-.06-.684-.11a6.5 6.5 0 0 0-1.106-.09c-.928 0-1.757.2-2.486.59q-1.082.57-1.715 1.59c-.414.67-.622 1.44-.622 2.3V1170zm20.197.4q-2.585 0-4.536-1.23-1.94-1.23-3.033-3.45c-.721-1.47-1.081-3.19-1.081-5.17s.36-3.72 1.081-5.2c.729-1.49 1.74-2.64 3.033-3.46q1.952-1.23 4.536-1.23 2.586 0 4.524 1.23c1.301.82 2.312 1.97 3.033 3.46.729 1.48 1.094 3.22 1.094 5.2s-.365 3.7-1.094 5.17q-1.082 2.22-3.033 3.45-1.938 1.23-4.524 1.23m0-2.64c1.309 0 2.387-.33 3.232-1 .845-.68 1.471-1.56 1.877-2.65.406-1.1.609-2.28.609-3.56 0-1.27-.203-2.46-.609-3.56-.406-1.11-1.032-2-1.877-2.68-.845-.67-1.923-1.01-3.232-1.01s-2.386.34-3.231 1.01c-.845.68-1.471 1.57-1.877 2.68-.406 1.1-.609 2.29-.609 3.56 0 1.28.203 2.46.609 3.56.406 1.09 1.032 1.97 1.877 2.65.845.67 1.922 1 3.231 1m13.128 2.24v-19.09h2.834v2.98h.249q.596-1.53 1.926-2.37c.887-.57 1.952-.86 3.194-.86 1.26 0 2.308.29 3.145.86q1.268.84 1.976 2.37h.199a5.6 5.6 0 0 1 2.2-2.35c.978-.59 2.15-.88 3.517-.88 1.707 0 3.104.53 4.189 1.6 1.085 1.06 1.628 2.72 1.628 4.96V1170h-2.933v-12.78c0-1.41-.385-2.41-1.156-3.02q-1.156-.9-2.722-.9c-1.342 0-2.382.4-3.12 1.21q-1.106 1.215-1.106 3.06V1170h-2.983v-13.08c0-1.08-.352-1.95-1.056-2.62s-1.612-1-2.722-1q-1.143 0-2.138.6c-.654.41-1.185.97-1.591 1.69-.398.72-.596 1.54-.596 2.48V1170zm48.567-19.09v2.48h-9.894v-2.48zm-7.01-4.57h2.933v18.19c0 .83.12 1.45.36 1.87.249.4.564.68.945.82.389.13.8.19 1.23.19.324 0 .589-.01.796-.04.207-.05.373-.08.497-.1l.597 2.63c-.199.08-.477.15-.833.22-.356.09-.808.13-1.355.13q-1.243 0-2.436-.54a4.76 4.76 0 0 1-1.964-1.62q-.77-1.095-.77-2.76zm14.765 12.18V1170h-2.933v-25.45h2.933v9.34h.249a5.43 5.43 0 0 1 2.013-2.35c.904-.59 2.105-.88 3.605-.88q1.951 0 3.418.78c.977.52 1.736 1.31 2.274 2.38q.82 1.59.821 4.05V1170h-2.934v-11.93c0-1.52-.393-2.69-1.18-3.52-.779-.84-1.861-1.25-3.244-1.25q-1.442 0-2.586.6c-.754.41-1.35 1-1.789 1.78-.431.78-.647 1.73-.647 2.84m25.75 11.88c-1.839 0-3.426-.41-4.76-1.22-1.326-.82-2.349-1.96-3.07-3.43-.713-1.48-1.069-3.19-1.069-5.15 0-1.95.356-3.68 1.069-5.17.721-1.5 1.723-2.66 3.008-3.5 1.292-.85 2.8-1.27 4.524-1.27.994 0 1.976.17 2.945.5.97.33 1.852.87 2.648 1.61q1.193 1.11 1.901 2.94.71 1.815.709 4.5v1.24h-14.716v-2.54h11.733c0-1.07-.216-2.04-.646-2.88a4.85 4.85 0 0 0-1.815-2c-.779-.49-1.699-.73-2.759-.73q-1.753 0-3.033.87a5.7 5.7 0 0 0-1.951 2.23 6.6 6.6 0 0 0-.684 2.96v1.69c0 1.44.249 2.67.746 3.67.505.99 1.205 1.75 2.1 2.27s1.935.77 3.12.77c.771 0 1.467-.1 2.088-.32.63-.22 1.173-.56 1.628-.99.456-.45.808-1.01 1.057-1.67l2.834.8c-.299.96-.8 1.8-1.504 2.53-.705.72-1.575 1.29-2.61 1.69q-1.554.6-3.493.6m25.144-25.85V1170h-2.933v-25.45zm10.99 25.9q-1.814 0-3.294-.69a5.6 5.6 0 0 1-2.349-2q-.87-1.32-.87-3.18c0-1.09.216-1.98.647-2.66a4.46 4.46 0 0 1 1.727-1.61 9 9 0 0 1 2.387-.87q1.317-.3 2.647-.48 1.74-.225 2.821-.33c.73-.09 1.26-.22 1.591-.41.34-.19.51-.52.51-1v-.1c0-1.22-.336-2.18-1.007-2.86-.663-.67-1.669-1.01-3.02-1.01-1.4 0-2.498.3-3.294.92-.795.61-1.355 1.26-1.678 1.96l-2.784-1q.745-1.74 1.989-2.7a7.4 7.4 0 0 1 2.734-1.37c.995-.27 1.972-.4 2.933-.4.614 0 1.318.08 2.113.22a6.9 6.9 0 0 1 2.325.89c.754.44 1.379 1.12 1.876 2.02q.746 1.365.746 3.63V1170h-2.933v-2.59h-.149c-.199.42-.531.86-.995 1.33-.464.48-1.081.88-1.851 1.21-.771.33-1.712.5-2.822.5m.448-2.64c1.16 0 2.137-.23 2.933-.68q1.205-.69 1.814-1.77c.415-.72.622-1.48.622-2.27v-2.69c-.124.15-.398.29-.82.41-.415.12-.895.22-1.442.32-.539.08-1.065.15-1.579.22q-.758.09-1.23.15-1.143.15-2.138.48-.982.33-1.591.99c-.398.43-.596 1.01-.596 1.76q0 1.53 1.131 2.31c.762.52 1.727.77 2.896.77m27.179-12.63-2.635.75a4.8 4.8 0 0 0-.734-1.28c-.314-.42-.745-.77-1.292-1.04-.547-.28-1.247-.41-2.101-.41-1.168 0-2.142.27-2.921.8-.77.53-1.155 1.21-1.155 2.03 0 .73.265 1.3.795 1.73q.795.63 2.486 1.05l2.834.7c1.707.41 2.978 1.05 3.815 1.9q1.256 1.275 1.256 3.27a4.84 4.84 0 0 1-.945 2.93c-.621.87-1.491 1.54-2.61 2.04q-1.678.75-3.903.75c-1.947 0-3.559-.42-4.835-1.27s-2.084-2.08-2.423-3.7l2.784-.7q.397 1.545 1.504 2.31c.745.52 1.719.77 2.921.77q2.05 0 3.256-.87c.812-.59 1.218-1.29 1.218-2.11 0-.66-.232-1.22-.696-1.67q-.696-.675-2.138-1.02l-3.182-.74c-1.748-.42-3.032-1.06-3.853-1.93-.812-.88-1.218-1.97-1.218-3.29 0-1.08.303-2.03.908-2.86q.92-1.245 2.498-1.95c1.06-.47 2.262-.71 3.604-.71 1.889 0 3.373.41 4.45 1.24 1.085.83 1.856 1.93 2.312 3.28m13.066-4.27v2.48h-9.894v-2.48zm-7.01-4.57h2.933v18.19c0 .83.12 1.45.36 1.87.249.4.564.68.945.82.389.13.8.19 1.23.19.324 0 .589-.01.796-.04.207-.05.373-.08.497-.1l.597 2.63c-.199.08-.477.15-.833.22-.356.09-.808.13-1.355.13q-1.242 0-2.436-.54a4.76 4.76 0 0 1-1.964-1.62q-.77-1.095-.77-2.76zm29.568 4.57v2.48h-9.893v-2.48zm-7.01-4.57h2.934v18.19c0 .83.12 1.45.36 1.87.249.4.563.68.945.82.389.13.799.19 1.23.19.323 0 .588-.01.795-.04.208-.05.373-.08.498-.1l.596 2.63c-.199.08-.476.15-.833.22-.356.09-.807.13-1.354.13a5.85 5.85 0 0 1-2.436-.54 4.76 4.76 0 0 1-1.964-1.62q-.771-1.095-.771-2.76zm11.422 23.66v-19.09h2.834v2.88h.199c.348-.94.978-1.71 1.889-2.3.912-.59 1.939-.88 3.083-.88.215 0 .484 0 .808.01.323.01.567.02.733.04v2.98c-.099-.02-.327-.06-.684-.11a6.5 6.5 0 0 0-1.106-.09c-.928 0-1.756.2-2.486.59a4.4 4.4 0 0 0-1.715 1.59c-.414.67-.621 1.44-.621 2.3V1170zm18.641.45q-1.815 0-3.294-.69a5.6 5.6 0 0 1-2.349-2q-.87-1.32-.87-3.18c0-1.09.216-1.98.646-2.66a4.46 4.46 0 0 1 1.728-1.61 9 9 0 0 1 2.386-.87q1.318-.3 2.648-.48 1.74-.225 2.821-.33c.729-.09 1.26-.22 1.591-.41.34-.19.51-.52.51-1v-.1c0-1.22-.336-2.18-1.007-2.86-.663-.67-1.67-1.01-3.02-1.01-1.401 0-2.499.3-3.294.92-.796.61-1.355 1.26-1.678 1.96l-2.784-1q.745-1.74 1.989-2.7a7.4 7.4 0 0 1 2.734-1.37c.994-.27 1.972-.4 2.933-.4.613 0 1.318.08 2.113.22.804.15 1.579.44 2.324.89.754.44 1.38 1.12 1.877 2.02q.746 1.365.746 3.63V1170h-2.933v-2.59h-.15c-.198.42-.53.86-.994 1.33-.464.48-1.081.88-1.852 1.21-.77.33-1.711.5-2.821.5m.447-2.64c1.16 0 2.138-.23 2.934-.68q1.205-.69 1.814-1.77c.414-.72.622-1.48.622-2.27v-2.69c-.125.15-.398.29-.821.41-.414.12-.895.22-1.441.32-.539.08-1.065.15-1.579.22q-.758.09-1.23.15-1.144.15-2.138.48-.982.33-1.591.99c-.398.43-.597 1.01-.597 1.76q0 1.53 1.131 2.31c.763.52 1.728.77 2.896.77m21.412 2.59c-1.789 0-3.331-.42-4.623-1.27s-2.287-2.01-2.983-3.49c-.696-1.49-1.044-3.18-1.044-5.09 0-1.93.356-3.65 1.069-5.13.721-1.49 1.723-2.65 3.007-3.49 1.293-.85 2.801-1.27 4.525-1.27q2.013 0 3.629.75a6.9 6.9 0 0 1 2.647 2.08c.688.9 1.115 1.94 1.28 3.14h-2.933c-.224-.87-.721-1.64-1.491-2.32-.763-.67-1.79-1.01-3.083-1.01-1.143 0-2.146.29-3.007.89-.854.59-1.521 1.42-2.002 2.5-.472 1.07-.708 2.32-.708 3.76 0 1.48.232 2.76.696 3.86q.708 1.635 1.989 2.55 1.292.9 3.032.9 1.144 0 2.076-.39a4.3 4.3 0 0 0 1.578-1.15c.431-.5.738-1.09.92-1.79h2.933a6.8 6.8 0 0 1-1.23 3.05q-.97 1.335-2.573 2.13c-1.06.53-2.295.79-3.704.79m14.53-7.36-.05-3.63h.597l8.352-8.5h3.629l-8.899 9h-.249zm-2.735 6.96v-25.45h2.934V1170zm12.131 0-7.457-9.45 2.088-2.03 9.098 11.48zm25.054-19.09v2.48h-9.894v-2.48zm-7.01-4.57h2.933v18.19c0 .83.12 1.45.361 1.87.248.4.563.68.944.82.39.13.8.19 1.231.19.323 0 .588-.01.795-.04.207-.05.373-.08.497-.1l.597 2.63c-.199.08-.477.15-.833.22-.356.09-.808.13-1.355.13q-1.242 0-2.436-.54a4.76 4.76 0 0 1-1.964-1.62q-.77-1.095-.77-2.76zm18.973 24.06q-2.586 0-4.537-1.23-1.938-1.23-3.033-3.45c-.72-1.47-1.081-3.19-1.081-5.17s.361-3.72 1.081-5.2c.73-1.49 1.741-2.64 3.033-3.46q1.951-1.23 4.537-1.23 2.584 0 4.524 1.23c1.301.82 2.312 1.97 3.033 3.46.729 1.48 1.093 3.22 1.093 5.2s-.364 3.7-1.093 5.17q-1.082 2.22-3.033 3.45-1.94 1.23-4.524 1.23m0-2.64c1.309 0 2.386-.33 3.231-1 .845-.68 1.471-1.56 1.877-2.65.406-1.1.609-2.28.609-3.56 0-1.27-.203-2.46-.609-3.56-.406-1.11-1.032-2-1.877-2.68-.845-.67-1.922-1.01-3.231-1.01s-2.387.34-3.232 1.01c-.845.68-1.471 1.57-1.877 2.68-.406 1.1-.609 2.29-.609 3.56 0 1.28.203 2.46.609 3.56.406 1.09 1.032 1.97 1.877 2.65.845.67 1.923 1 3.232 1m-486.035 25.15v2.48h-9.894v-2.48zm-7.01-4.57h2.933v18.19c0 .83.12 1.45.36 1.87.249.4.564.68.945.82.389.13.799.19 1.23.19.324 0 .589-.01.796-.04.207-.05.373-.08.497-.1l.597 2.63c-.199.08-.477.15-.833.22-.356.09-.808.13-1.355.13a5.85 5.85 0 0 1-2.436-.54 4.76 4.76 0 0 1-1.964-1.62q-.77-1.095-.77-2.76zm14.765 12.18V1212h-2.933v-25.45h2.933v9.34h.249a5.43 5.43 0 0 1 2.013-2.35c.903-.59 2.105-.88 3.605-.88q1.951 0 3.418.78c.977.52 1.736 1.31 2.274 2.38q.82 1.59.82 4.05V1212h-2.933v-11.93c0-1.52-.393-2.69-1.181-3.52-.778-.84-1.86-1.25-3.243-1.25q-1.442 0-2.586.6c-.754.41-1.35 1-1.789 1.78-.431.78-.647 1.73-.647 2.84m25.75 11.88c-1.84 0-3.426-.41-4.76-1.22-1.326-.82-2.349-1.96-3.07-3.43-.713-1.48-1.069-3.19-1.069-5.15 0-1.95.356-3.68 1.069-5.17.721-1.5 1.723-2.66 3.008-3.5 1.292-.85 2.8-1.27 4.524-1.27.994 0 1.976.17 2.945.5.97.33 1.852.87 2.648 1.61q1.193 1.11 1.901 2.94.71 1.815.709 4.5v1.24h-14.716v-2.54h11.733c0-1.07-.216-2.04-.646-2.88a4.85 4.85 0 0 0-1.815-2c-.779-.49-1.699-.73-2.759-.73q-1.753 0-3.033.87a5.7 5.7 0 0 0-1.951 2.23 6.6 6.6 0 0 0-.684 2.96v1.69c0 1.44.249 2.67.746 3.67.505.99 1.205 1.75 2.1 2.27s1.935.77 3.12.77c.771 0 1.467-.1 2.088-.32.63-.22 1.172-.56 1.628-.99.456-.45.808-1.01 1.057-1.67l2.833.8c-.298.96-.799 1.8-1.503 2.53-.705.72-1.575 1.29-2.61 1.69q-1.554.6-3.493.6m25.144-25.85V1212h-2.933v-25.45zm10.99 25.9q-1.815 0-3.294-.69a5.6 5.6 0 0 1-2.349-2q-.87-1.32-.87-3.18c0-1.09.216-1.98.647-2.66a4.46 4.46 0 0 1 1.727-1.61 9 9 0 0 1 2.387-.87q1.317-.3 2.647-.48 1.74-.225 2.821-.33c.73-.09 1.26-.22 1.591-.41.34-.19.51-.52.51-1v-.1c0-1.22-.336-2.18-1.007-2.86-.663-.67-1.67-1.01-3.02-1.01-1.4 0-2.498.3-3.294.92-.795.61-1.355 1.26-1.678 1.96l-2.784-1q.745-1.74 1.989-2.7a7.4 7.4 0 0 1 2.734-1.37c.995-.27 1.972-.4 2.933-.4.614 0 1.318.08 2.113.22a6.9 6.9 0 0 1 2.325.89c.754.44 1.379 1.12 1.876 2.02q.746 1.365.746 3.63V1212h-2.933v-2.59h-.149c-.199.42-.531.86-.995 1.33-.464.48-1.081.88-1.852 1.21-.77.33-1.711.5-2.821.5m.448-2.64c1.16 0 2.137-.23 2.933-.68q1.205-.69 1.814-1.77c.415-.72.622-1.48.622-2.27v-2.69c-.124.15-.398.29-.82.41-.415.12-.895.22-1.442.32-.539.08-1.065.15-1.579.22q-.758.09-1.23.15-1.143.15-2.138.48-.982.33-1.591.99c-.398.43-.596 1.01-.596 1.76q0 1.53 1.131 2.31c.762.52 1.727.77 2.896.77m27.179-12.63-2.635.75a4.8 4.8 0 0 0-.734-1.28c-.315-.42-.745-.77-1.292-1.04-.547-.28-1.247-.41-2.101-.41-1.168 0-2.142.27-2.921.8-.77.53-1.155 1.21-1.155 2.03 0 .73.265 1.3.795 1.73q.795.63 2.486 1.05l2.834.7c1.707.41 2.978 1.05 3.815 1.9q1.256 1.275 1.256 3.27a4.84 4.84 0 0 1-.945 2.93c-.621.87-1.491 1.54-2.61 2.04q-1.679.75-3.903.75c-1.947 0-3.559-.42-4.835-1.27s-2.084-2.08-2.423-3.7l2.784-.7q.397 1.545 1.504 2.31c.745.52 1.719.77 2.921.77q2.05 0 3.256-.87c.812-.59 1.218-1.29 1.218-2.11 0-.66-.232-1.22-.696-1.67q-.696-.675-2.138-1.02l-3.182-.74c-1.748-.42-3.032-1.06-3.853-1.93-.812-.88-1.218-1.97-1.218-3.29 0-1.08.303-2.03.908-2.86q.92-1.245 2.498-1.95c1.06-.47 2.262-.71 3.604-.71 1.889 0 3.373.41 4.45 1.24 1.085.83 1.856 1.93 2.312 3.28m13.066-4.27v2.48h-9.894v-2.48zm-7.01-4.57h2.933v18.19c0 .83.12 1.45.36 1.87.249.4.564.68.945.82.389.13.8.19 1.23.19.324 0 .589-.01.796-.04.207-.05.373-.08.497-.1l.597 2.63c-.199.08-.477.15-.833.22-.356.09-.808.13-1.355.13a5.85 5.85 0 0 1-2.436-.54 4.76 4.76 0 0 1-1.964-1.62q-.77-1.095-.77-2.76zm21.266 23.66v-19.09h2.833v2.88h.199c.348-.94.978-1.71 1.889-2.3.912-.59 1.939-.88 3.083-.88.215 0 .485 0 .808.01s.567.02.733.04v2.98c-.099-.02-.327-.06-.684-.11a6.5 6.5 0 0 0-1.106-.09c-.928 0-1.756.2-2.485.59q-1.082.57-1.716 1.59c-.414.67-.621 1.44-.621 2.3V1212zm20.445.4c-1.839 0-3.426-.41-4.76-1.22-1.326-.82-2.349-1.96-3.07-3.43-.713-1.48-1.069-3.19-1.069-5.15 0-1.95.356-3.68 1.069-5.17.721-1.5 1.724-2.66 3.008-3.5 1.292-.85 2.801-1.27 4.524-1.27.994 0 1.976.17 2.946.5.969.33 1.852.87 2.647 1.61q1.192 1.11 1.902 2.94.708 1.815.708 4.5v1.24h-14.716v-2.54h11.733c0-1.07-.215-2.04-.646-2.88a4.85 4.85 0 0 0-1.815-2c-.779-.49-1.698-.73-2.759-.73q-1.752 0-3.033.87a5.7 5.7 0 0 0-1.951 2.23 6.6 6.6 0 0 0-.684 2.96v1.69c0 1.44.249 2.67.746 3.67.506.99 1.206 1.75 2.101 2.27.894.52 1.934.77 3.119.77.771 0 1.467-.1 2.088-.32.63-.22 1.173-.56 1.629-.99.455-.45.807-1.01 1.056-1.67l2.834.8c-.298.96-.8 1.8-1.504 2.53-.704.72-1.574 1.29-2.61 1.69q-1.554.6-3.493.6m25.393 6.76v-10.09h-.249c-.215.34-.522.78-.92 1.31-.397.53-.965.99-1.702 1.41-.738.4-1.72.61-2.946.61-1.591 0-2.995-.4-4.214-1.21-1.218-.81-2.17-1.95-2.858-3.43s-1.032-3.23-1.032-5.26q0-3 1.032-5.22c.688-1.47 1.645-2.61 2.871-3.41 1.226-.81 2.643-1.21 4.251-1.21 1.243 0 2.224.21 2.945.62.729.41 1.285.87 1.666 1.39.389.52.692.94.907 1.27h.348v-3.03h2.834v26.25zm-5.419-9.4c1.176 0 2.171-.3 2.983-.92s1.429-1.48 1.852-2.57c.422-1.1.633-2.37.633-3.82 0-1.42-.207-2.67-.621-3.74s-1.028-1.91-1.84-2.51q-1.218-.9-3.007-.9c-1.243 0-2.279.31-3.108.95q-1.23.945-1.852 2.58c-.406 1.07-.609 2.28-.609 3.62 0 1.36.208 2.6.622 3.71.423 1.1 1.044 1.98 1.864 2.63.829.65 1.856.97 3.083.97m25.752-5.57v-11.28h2.934V1212h-2.934v-3.23h-.198c-.448.97-1.144 1.79-2.088 2.47-.945.67-2.138 1.01-3.58 1.01q-1.79 0-3.182-.78c-.928-.53-1.657-1.33-2.187-2.39-.531-1.07-.796-2.42-.796-4.04v-12.13h2.933v11.93q0 2.085 1.169 3.33c.787.83 1.79 1.24 3.008 1.24.729 0 1.47-.18 2.224-.55.763-.38 1.401-.95 1.914-1.72.522-.77.783-1.75.783-2.95m16.31 8.21c-1.839 0-3.426-.41-4.76-1.22-1.326-.82-2.349-1.96-3.07-3.43-.712-1.48-1.069-3.19-1.069-5.15 0-1.95.357-3.68 1.069-5.17.721-1.5 1.724-2.66 3.008-3.5 1.293-.85 2.801-1.27 4.524-1.27.994 0 1.976.17 2.946.5.969.33 1.852.87 2.647 1.61q1.193 1.11 1.902 2.94.708 1.815.708 4.5v1.24h-14.716v-2.54h11.733c0-1.07-.215-2.04-.646-2.88a4.84 4.84 0 0 0-1.815-2c-.779-.49-1.698-.73-2.759-.73q-1.752 0-3.033.87a5.7 5.7 0 0 0-1.951 2.23 6.6 6.6 0 0 0-.683 2.96v1.69c0 1.44.248 2.67.745 3.67.506.99 1.206 1.75 2.101 2.27s1.935.77 3.119.77c.771 0 1.467-.1 2.088-.32.63-.22 1.173-.56 1.629-.99.455-.45.808-1.01 1.056-1.67l2.834.8c-.298.96-.8 1.8-1.504 2.53-.704.72-1.574 1.29-2.61 1.69q-1.554.6-3.493.6m25.89-15.22-2.635.75c-.166-.44-.41-.87-.733-1.28-.315-.42-.746-.77-1.293-1.04-.547-.28-1.247-.41-2.1-.41-1.169 0-2.142.27-2.921.8-.771.53-1.156 1.21-1.156 2.03 0 .73.265 1.3.795 1.73q.796.63 2.486 1.05l2.834.7c1.707.41 2.979 1.05 3.816 1.9q1.255 1.275 1.255 3.27a4.84 4.84 0 0 1-.945 2.93c-.621.87-1.491 1.54-2.61 2.04q-1.677.75-3.902.75c-1.948 0-3.559-.42-4.835-1.27s-2.084-2.08-2.424-3.7l2.784-.7q.398 1.545 1.504 2.31c.746.52 1.719.77 2.921.77q2.051 0 3.256-.87c.812-.59 1.218-1.29 1.218-2.11 0-.66-.232-1.22-.696-1.67q-.696-.675-2.137-1.02l-3.182-.74c-1.749-.42-3.033-1.06-3.853-1.93-.812-.88-1.218-1.97-1.218-3.29 0-1.08.302-2.03.907-2.86q.92-1.245 2.498-1.95c1.061-.47 2.262-.71 3.605-.71 1.889 0 3.372.41 4.449 1.24 1.086.83 1.856 1.93 2.312 3.28m13.066-4.27v2.48h-9.894v-2.48zm-7.01-4.57h2.933v18.19c0 .83.12 1.45.361 1.87.248.4.563.68.944.82.39.13.8.19 1.231.19.323 0 .588-.01.795-.04.207-.05.373-.08.497-.1l.597 2.63c-.199.08-.476.15-.833.22-.356.09-.808.13-1.355.13q-1.242 0-2.436-.54a4.76 4.76 0 0 1-1.963-1.62q-.771-1.095-.771-2.76zm21.664 23.66v-25.45h2.933v9.39h.249c.215-.33.513-.75.894-1.27.39-.52.945-.98 1.666-1.39.729-.41 1.715-.62 2.958-.62 1.607 0 3.024.4 4.251 1.21 1.226.8 2.183 1.94 2.871 3.41q1.032 2.22 1.031 5.22c0 2.03-.343 3.78-1.031 5.26s-1.641 2.62-2.859 3.43-2.622 1.21-4.213 1.21c-1.227 0-2.209-.21-2.946-.61-.737-.42-1.305-.88-1.703-1.41-.397-.53-.704-.97-.919-1.31h-.348v2.93zm2.883-9.55c0 1.45.212 2.72.634 3.82.423 1.09 1.04 1.95 1.852 2.57s1.806.92 2.983.92c1.226 0 2.25-.32 3.07-.97.829-.65 1.45-1.53 1.864-2.63.423-1.11.634-2.35.634-3.71 0-1.34-.207-2.55-.621-3.62q-.61-1.635-1.852-2.58c-.821-.64-1.852-.95-3.095-.95q-1.79 0-3.008.9c-.812.6-1.425 1.44-1.839 2.51-.415 1.07-.622 2.32-.622 3.74m26.462 9.95c-1.84 0-3.427-.41-4.761-1.22-1.326-.82-2.349-1.96-3.07-3.43-.712-1.48-1.069-3.19-1.069-5.15 0-1.95.357-3.68 1.069-5.17.721-1.5 1.724-2.66 3.008-3.5 1.293-.85 2.801-1.27 4.524-1.27.995 0 1.976.17 2.946.5.969.33 1.852.87 2.647 1.61q1.194 1.11 1.902 2.94.708 1.815.708 4.5v1.24h-14.716v-2.54h11.733c0-1.07-.215-2.04-.646-2.88a4.84 4.84 0 0 0-1.815-2c-.778-.49-1.698-.73-2.759-.73q-1.752 0-3.032.87a5.7 5.7 0 0 0-1.952 2.23 6.6 6.6 0 0 0-.683 2.96v1.69c0 1.44.248 2.67.745 3.67.506.99 1.206 1.75 2.101 2.27s1.935.77 3.12.77c.77 0 1.466-.1 2.088-.32a4.5 4.5 0 0 0 1.628-.99 4.6 4.6 0 0 0 1.056-1.67l2.834.8c-.298.96-.8 1.8-1.504 2.53-.704.72-1.574 1.29-2.61 1.69q-1.554.6-3.492.6m20.868-19.49v2.48h-10.291v-2.48zm-7.209 19.09v-21.73q0-1.635.771-2.73a4.7 4.7 0 0 1 2.001-1.64 6.2 6.2 0 0 1 2.597-.55q1.081 0 1.765.18c.456.11.796.22 1.019.32l-.845 2.53c-.149-.04-.356-.11-.621-.18-.257-.08-.597-.11-1.019-.11-.97 0-1.67.24-2.101.73-.423.49-.634 1.21-.634 2.15V1212zm18.289.4q-2.585 0-4.536-1.23-1.94-1.23-3.033-3.45c-.721-1.47-1.081-3.19-1.081-5.17s.36-3.72 1.081-5.2c.729-1.49 1.74-2.64 3.033-3.46q1.952-1.23 4.536-1.23 2.586 0 4.524 1.23c1.301.82 2.312 1.97 3.033 3.46.729 1.48 1.094 3.22 1.094 5.2s-.365 3.7-1.094 5.17q-1.082 2.22-3.033 3.45-1.938 1.23-4.524 1.23m0-2.64c1.309 0 2.387-.33 3.232-1 .845-.68 1.471-1.56 1.877-2.65.406-1.1.609-2.28.609-3.56 0-1.27-.203-2.46-.609-3.56-.406-1.11-1.032-2-1.877-2.68-.845-.67-1.923-1.01-3.232-1.01s-2.386.34-3.231 1.01c-.845.68-1.471 1.57-1.877 2.68-.406 1.1-.609 2.29-.609 3.56 0 1.28.203 2.46.609 3.56.406 1.09 1.032 1.97 1.877 2.65.845.67 1.922 1 3.231 1m13.128 2.24v-19.09h2.834v2.88h.199c.348-.94.978-1.71 1.889-2.3.912-.59 1.939-.88 3.083-.88.215 0 .484 0 .807.01s.568.02.734.04v2.98c-.1-.02-.328-.06-.684-.11a6.5 6.5 0 0 0-1.106-.09c-.928 0-1.757.2-2.486.59q-1.081.57-1.715 1.59c-.414.67-.621 1.44-.621 2.3V1212zm20.446.4c-1.84 0-3.426-.41-4.76-1.22-1.326-.82-2.349-1.96-3.07-3.43-.713-1.48-1.069-3.19-1.069-5.15 0-1.95.356-3.68 1.069-5.17.721-1.5 1.723-2.66 3.008-3.5 1.292-.85 2.8-1.27 4.524-1.27.994 0 1.976.17 2.945.5.97.33 1.852.87 2.648 1.61q1.193 1.11 1.901 2.94.71 1.815.709 4.5v1.24h-14.716v-2.54h11.733c0-1.07-.216-2.04-.646-2.88a4.85 4.85 0 0 0-1.815-2c-.779-.49-1.699-.73-2.759-.73q-1.754 0-3.033.87a5.7 5.7 0 0 0-1.951 2.23 6.6 6.6 0 0 0-.684 2.96v1.69c0 1.44.249 2.67.746 3.67.505.99 1.205 1.75 2.1 2.27s1.935.77 3.12.77c.771 0 1.467-.1 2.088-.32.63-.22 1.173-.56 1.628-.99.456-.45.808-1.01 1.057-1.67l2.834.8c-.299.96-.8 1.8-1.504 2.53-.705.72-1.575 1.29-2.61 1.69q-1.554.6-3.493.6m25.144-11.88V1212h-2.933v-25.45h2.933v9.34h.248a5.44 5.44 0 0 1 2.014-2.35c.903-.59 2.105-.88 3.604-.88q1.951 0 3.418.78c.978.52 1.736 1.31 2.275 2.38q.82 1.59.82 4.05V1212h-2.933v-11.93c0-1.52-.394-2.69-1.181-3.52-.779-.84-1.86-1.25-3.244-1.25q-1.442 0-2.585.6c-.754.41-1.351 1-1.79 1.78-.431.78-.646 1.73-.646 2.84m25.75 11.88c-1.84 0-3.427-.41-4.761-1.22-1.326-.82-2.349-1.96-3.07-3.43-.712-1.48-1.069-3.19-1.069-5.15 0-1.95.357-3.68 1.069-5.17.721-1.5 1.724-2.66 3.008-3.5 1.293-.85 2.801-1.27 4.524-1.27.995 0 1.976.17 2.946.5.969.33 1.852.87 2.647 1.61q1.194 1.11 1.902 2.94.708 1.815.708 4.5v1.24h-14.716v-2.54h11.733c0-1.07-.215-2.04-.646-2.88a4.84 4.84 0 0 0-1.815-2c-.778-.49-1.698-.73-2.759-.73q-1.752 0-3.032.87a5.7 5.7 0 0 0-1.952 2.23 6.6 6.6 0 0 0-.683 2.96v1.69c0 1.44.248 2.67.745 3.67.506.99 1.206 1.75 2.101 2.27s1.935.77 3.12.77c.77 0 1.466-.1 2.088-.32a4.5 4.5 0 0 0 1.628-.99 4.6 4.6 0 0 0 1.056-1.67l2.834.8c-.298.96-.8 1.8-1.504 2.53-.704.72-1.574 1.29-2.61 1.69q-1.554.6-3.492.6m17.984.05q-1.814 0-3.293-.69a5.6 5.6 0 0 1-2.349-2q-.871-1.32-.871-3.18c0-1.09.216-1.98.647-2.66a4.46 4.46 0 0 1 1.727-1.61 9 9 0 0 1 2.387-.87q1.317-.3 2.647-.48 1.74-.225 2.822-.33c.729-.09 1.259-.22 1.59-.41.34-.19.51-.52.51-1v-.1c0-1.22-.336-2.18-1.007-2.86-.663-.67-1.669-1.01-3.02-1.01-1.4 0-2.498.3-3.294.92-.795.61-1.354 1.26-1.678 1.96l-2.784-1q.746-1.74 1.989-2.7a7.4 7.4 0 0 1 2.734-1.37c.995-.27 1.972-.4 2.934-.4.613 0 1.317.08 2.113.22.803.15 1.578.44 2.324.89.754.44 1.379 1.12 1.877 2.02q.745 1.365.745 3.63V1212h-2.933v-2.59h-.149c-.199.42-.53.86-.994 1.33-.464.48-1.082.88-1.852 1.21-.771.33-1.711.5-2.822.5m.448-2.64c1.16 0 2.137-.23 2.933-.68q1.206-.69 1.815-1.77c.414-.72.621-1.48.621-2.27v-2.69c-.124.15-.398.29-.82.41-.415.12-.895.22-1.442.32-.539.08-1.065.15-1.579.22q-.758.09-1.23.15-1.143.15-2.138.48-.981.33-1.591.99c-.397.43-.596 1.01-.596 1.76q0 1.53 1.131 2.31c.762.52 1.727.77 2.896.77m20.865 2.59c-1.591 0-2.996-.4-4.214-1.21s-2.17-1.95-2.858-3.43-1.032-3.23-1.032-5.26q0-3 1.032-5.22c.688-1.47 1.645-2.61 2.871-3.41 1.226-.81 2.643-1.21 4.251-1.21 1.242 0 2.224.21 2.945.62.729.41 1.285.87 1.666 1.39.389.52.692.94.907 1.27h.249v-9.39h2.933V1212h-2.834v-2.93h-.348c-.215.34-.522.78-.92 1.31-.397.53-.965.99-1.702 1.41-.738.4-1.72.61-2.946.61m.398-2.64c1.176 0 2.171-.3 2.983-.92s1.429-1.48 1.851-2.57c.423-1.1.634-2.37.634-3.82 0-1.42-.207-2.67-.621-3.74s-1.028-1.91-1.84-2.51q-1.218-.9-3.007-.9c-1.243 0-2.279.31-3.108.95q-1.23.945-1.852 2.58c-.406 1.07-.609 2.28-.609 3.62 0 1.36.208 2.6.622 3.71.422 1.1 1.044 1.98 1.864 2.63.829.65 1.856.97 3.083.97M459.922 35.91q-.224-1.89-1.815-2.934t-3.903-1.044q-1.689 0-2.958.547-1.255.546-1.963 1.504a3.6 3.6 0 0 0-.696 2.175q0 1.02.484 1.752.498.72 1.268 1.206a9 9 0 0 0 1.616.783q.845.298 1.553.484l2.586.697q.994.261 2.212.72 1.23.46 2.349 1.256a6.4 6.4 0 0 1 1.864 2.013q.734 1.23.734 3.02 0 2.064-1.082 3.73-1.068 1.665-3.132 2.647-2.05.981-4.984.981-2.734 0-4.735-.882-1.989-.883-3.132-2.461-1.131-1.578-1.28-3.666h3.181q.124 1.44.97 2.386.857.931 2.163 1.392a8.8 8.8 0 0 0 2.833.447q1.765 0 3.17-.571 1.404-.584 2.224-1.616.82-1.044.821-2.436 0-1.268-.709-2.063-.708-.796-1.864-1.293a20 20 0 0 0-2.498-.87l-3.132-.895q-2.983-.858-4.723-2.448-1.74-1.591-1.74-4.164 0-2.137 1.155-3.729 1.168-1.603 3.133-2.486 1.976-.895 4.412-.895 2.461 0 4.375.883 1.914.87 3.033 2.386a5.95 5.95 0 0 1 1.193 3.443zm15.757 19.488q-2.685 0-4.624-1.268-1.94-1.268-2.983-3.493t-1.044-5.083q0-2.908 1.069-5.133 1.081-2.238 3.008-3.493 1.938-1.267 4.524-1.267 2.013 0 3.629.745t2.648 2.088q1.03 1.343 1.28 3.132h-2.934q-.334-1.305-1.491-2.311-1.144-1.02-3.082-1.02-1.716 0-3.008.895-1.281.883-2.001 2.499-.71 1.603-.709 3.766 0 2.212.696 3.852.709 1.642 1.989 2.548 1.293.908 3.033.908 1.143 0 2.075-.398a4.3 4.3 0 0 0 1.579-1.143 4.4 4.4 0 0 0 .919-1.79h2.934a6.8 6.8 0 0 1-1.231 3.045q-.97 1.342-2.573 2.138-1.59.783-3.703.783m17.413.05q-1.815 0-3.294-.684-1.479-.696-2.349-2.001-.87-1.318-.87-3.182 0-1.64.646-2.66a4.56 4.56 0 0 1 1.728-1.616 9 9 0 0 1 2.386-.87 29 29 0 0 1 2.648-.472q1.74-.224 2.821-.336 1.093-.124 1.591-.41.51-.285.509-.994v-.1q0-1.84-1.006-2.858-.995-1.02-3.021-1.02-2.1 0-3.293.92t-1.678 1.964l-2.784-.994q.746-1.74 1.988-2.71a7.5 7.5 0 0 1 2.735-1.367 11.4 11.4 0 0 1 2.933-.398q.92 0 2.113.224a6.8 6.8 0 0 1 2.324.883q1.131.67 1.877 2.026t.746 3.629V55h-2.934v-2.585h-.149q-.298.62-.994 1.33-.696.708-1.852 1.205t-2.821.497m.447-2.636q1.74 0 2.933-.683 1.206-.684 1.815-1.765a4.5 4.5 0 0 0 .621-2.274v-2.685q-.186.224-.82.41-.621.175-1.442.31a65 65 0 0 1-1.578.224 77 77 0 0 0-1.231.15q-1.144.148-2.137.484-.982.324-1.591.982-.597.647-.597 1.765 0 1.53 1.131 2.312 1.143.77 2.896.77m16.59-9.296V55h-2.934V35.91h2.834v2.982h.249a5.45 5.45 0 0 1 2.038-2.337q1.368-.895 3.53-.895 1.94 0 3.393.796 1.455.783 2.262 2.386.808 1.59.808 4.027V55h-2.933V43.068q0-2.25-1.169-3.505-1.167-1.268-3.206-1.268-1.405 0-2.511.61-1.094.608-1.727 1.777-.634 1.168-.634 2.834m31.063-3.331-2.635.745a4.9 4.9 0 0 0-.733-1.28q-.473-.633-1.293-1.044-.82-.41-2.101-.41-1.753 0-2.92.808-1.156.796-1.156 2.026 0 1.094.795 1.727.795.634 2.486 1.057l2.834.696q2.56.621 3.815 1.902 1.256 1.267 1.256 3.268a4.85 4.85 0 0 1-.945 2.934q-.931 1.291-2.61 2.038t-3.903.746q-2.92 0-4.834-1.268-1.915-1.268-2.424-3.704l2.784-.696q.397 1.541 1.504 2.312 1.119.77 2.921.77 2.05 0 3.256-.87 1.218-.882 1.218-2.112 0-.994-.696-1.666-.696-.683-2.138-1.02l-3.182-.745q-2.622-.621-3.853-1.926-1.218-1.319-1.218-3.294 0-1.615.908-2.859.92-1.242 2.498-1.951 1.591-.709 3.604-.709 2.835 0 4.45 1.243 1.628 1.244 2.312 3.282m23.108-4.276v2.486h-10.291v-2.486zM557.092 55V33.274q0-1.64.77-2.734a4.8 4.8 0 0 1 2.001-1.64 6.3 6.3 0 0 1 2.598-.548q1.081 0 1.765.174t1.019.323l-.845 2.536a15 15 0 0 0-.622-.187q-.385-.111-1.019-.111-1.454 0-2.1.733-.634.734-.634 2.15V55zm11.319 0V35.91h2.834v2.883h.199q.522-1.417 1.889-2.3 1.368-.882 3.082-.882.324 0 .808.012t.734.038v2.983a9 9 0 0 0-.684-.112 7 7 0 0 0-1.106-.087q-1.392 0-2.486.584a4.4 4.4 0 0 0-1.715 1.59q-.621 1.008-.622 2.3V55zm20.197.398q-2.585 0-4.536-1.23-1.94-1.231-3.033-3.444-1.081-2.212-1.081-5.17 0-2.983 1.081-5.208 1.093-2.225 3.033-3.455 1.952-1.23 4.536-1.23 2.586 0 4.524 1.23 1.952 1.23 3.033 3.455 1.094 2.225 1.094 5.208 0 2.958-1.094 5.17-1.082 2.213-3.033 3.443-1.938 1.23-4.524 1.23m0-2.635q1.964 0 3.232-1.007t1.877-2.647.609-3.555-.609-3.567-1.877-2.672-3.232-1.02q-1.963 0-3.231 1.02t-1.877 2.672q-.609 1.652-.609 3.567 0 1.913.609 3.555.61 1.64 1.877 2.647 1.268 1.007 3.231 1.007M601.736 55V35.91h2.834v2.982h.249q.597-1.529 1.926-2.374 1.33-.858 3.195-.858 1.889 0 3.144.858 1.268.846 1.976 2.374h.199a5.56 5.56 0 0 1 2.2-2.349q1.467-.883 3.517-.883 2.561 0 4.189 1.604 1.629 1.59 1.628 4.959V55h-2.933V42.223q0-2.113-1.156-3.02-1.155-.908-2.722-.908-2.013 0-3.12 1.218-1.106 1.206-1.106 3.058V55h-2.983V41.925q0-1.629-1.056-2.623-1.056-1.007-2.722-1.007-1.143 0-2.138.61a4.6 4.6 0 0 0-1.591 1.69q-.596 1.069-.596 2.473V55zm48.567-19.09v2.485h-9.894v-2.486zm-7.01-4.575h2.933v18.196q0 1.243.36 1.865.373.609.945.82.584.2 1.23.199.486 0 .796-.05l.497-.1.597 2.636q-.299.111-.833.223-.534.125-1.355.125-1.242 0-2.436-.535a4.84 4.84 0 0 1-1.964-1.628q-.77-1.094-.77-2.76zm14.765 12.18V55h-2.933V29.546h2.933v9.346h.249a5.4 5.4 0 0 1 2.013-2.349q1.355-.883 3.605-.883 1.951 0 3.418.784 1.467.77 2.274 2.374.82 1.59.821 4.051V55h-2.934V43.068q0-2.274-1.18-3.517-1.169-1.256-3.244-1.256-1.442 0-2.586.61a4.45 4.45 0 0 0-1.789 1.777q-.647 1.168-.647 2.834m25.75 11.883q-2.759 0-4.76-1.218-1.989-1.23-3.07-3.43-1.07-2.213-1.069-5.146 0-2.934 1.069-5.17 1.081-2.25 3.008-3.506 1.938-1.267 4.524-1.267 1.491 0 2.945.497a7.3 7.3 0 0 1 2.648 1.615q1.193 1.107 1.901 2.934.71 1.827.709 4.499v1.243h-14.716v-2.536h11.733q0-1.615-.646-2.883a4.88 4.88 0 0 0-1.815-2.001q-1.169-.735-2.759-.734-1.753 0-3.033.87a5.7 5.7 0 0 0-1.951 2.238 6.6 6.6 0 0 0-.684 2.958v1.69q0 2.163.746 3.667.758 1.491 2.1 2.274 1.342.77 3.12.77 1.157 0 2.088-.322a4.5 4.5 0 0 0 1.628-.995 4.5 4.5 0 0 0 1.057-1.665l2.834.795a6.3 6.3 0 0 1-1.504 2.536q-1.058 1.08-2.61 1.69-1.554.597-3.493.597m25.144-11.882V55h-2.933V29.546h2.933v9.346h.248a5.4 5.4 0 0 1 2.014-2.349q1.355-.883 3.604-.883 1.952 0 3.418.784 1.467.77 2.275 2.374.82 1.59.82 4.051V55h-2.933V43.068q0-2.274-1.181-3.517-1.168-1.256-3.244-1.256-1.442 0-2.585.61a4.45 4.45 0 0 0-1.79 1.777q-.646 1.168-.646 2.834m25.75 11.882q-2.76 0-4.761-1.218-1.988-1.23-3.07-3.43-1.069-2.213-1.069-5.146 0-2.934 1.069-5.17 1.082-2.25 3.008-3.506 1.94-1.267 4.524-1.267 1.492 0 2.946.497t2.647 1.615q1.194 1.107 1.902 2.934t.708 4.499v1.243h-14.715v-2.536h11.732q0-1.615-.646-2.883a4.87 4.87 0 0 0-1.814-2.001q-1.168-.735-2.76-.734-1.752 0-3.032.87a5.7 5.7 0 0 0-1.952 2.238 6.6 6.6 0 0 0-.683 2.958v1.69q0 2.163.745 3.667.759 1.491 2.101 2.274 1.343.77 3.12.77 1.155 0 2.088-.322a4.5 4.5 0 0 0 1.628-.995 4.5 4.5 0 0 0 1.056-1.665l2.834.795a6.3 6.3 0 0 1-1.504 2.536q-1.056 1.08-2.61 1.69-1.554.597-3.492.597m17.984.05q-1.814 0-3.293-.684-1.479-.696-2.349-2.001-.87-1.318-.87-3.182 0-1.64.646-2.66a4.57 4.57 0 0 1 1.727-1.616 9 9 0 0 1 2.387-.87 29 29 0 0 1 2.647-.472q1.74-.224 2.822-.336 1.093-.124 1.591-.41.509-.285.509-.994v-.1q0-1.84-1.007-2.858-.994-1.02-3.02-1.02-2.1 0-3.294.92t-1.677 1.964l-2.785-.994q.746-1.74 1.989-2.71a7.45 7.45 0 0 1 2.734-1.367 11.4 11.4 0 0 1 2.934-.398q.92 0 2.113.224 1.205.211 2.324.883 1.13.67 1.877 2.026.745 1.355.745 3.629V55h-2.933v-2.585h-.149q-.298.62-.994 1.33-.697.708-1.852 1.205t-2.822.497m.448-2.636q1.74 0 2.933-.683 1.206-.684 1.815-1.765a4.5 4.5 0 0 0 .621-2.274v-2.685q-.187.224-.82.41-.622.175-1.442.31a66 66 0 0 1-1.578.224 77 77 0 0 0-1.231.15q-1.143.148-2.138.484-.981.324-1.591.982-.596.647-.596 1.765 0 1.53 1.131 2.312 1.143.77 2.896.77m20.865 2.586q-2.386 0-4.213-1.206-1.828-1.218-2.859-3.43-1.032-2.225-1.032-5.258 0-3.008 1.032-5.22t2.871-3.418 4.251-1.206q1.864 0 2.945.622 1.094.609 1.666 1.392.584.77.907 1.268h.249v-9.396h2.933V55h-2.834v-2.933h-.348q-.323.522-.92 1.317-.596.783-1.702 1.405-1.107.609-2.946.609m.398-2.635q1.764 0 2.983-.92 1.218-.932 1.852-2.573.633-1.653.633-3.815 0-2.139-.621-3.742-.62-1.616-1.84-2.51-1.218-.908-3.007-.908-1.865 0-3.108.957-1.23.945-1.851 2.573-.61 1.616-.61 3.63 0 2.037.622 3.703.634 1.653 1.864 2.635 1.243.97 3.083.97m32.278-16.854v2.486h-9.894v-2.486zm-7.01-4.574h2.933v18.196q0 1.243.36 1.865.374.609.945.82.584.2 1.231.199a5 5 0 0 0 .795-.05l.497-.1.597 2.636q-.299.111-.833.223-.534.125-1.355.125-1.242 0-2.436-.535a4.84 4.84 0 0 1-1.964-1.628q-.77-1.094-.77-2.76zm18.973 24.063q-2.586 0-4.537-1.23-1.939-1.231-3.033-3.444-1.081-2.212-1.081-5.17 0-2.983 1.081-5.208 1.094-2.225 3.033-3.455 1.951-1.23 4.537-1.23t4.524 1.23q1.952 1.23 3.032 3.455 1.095 2.225 1.094 5.208 0 2.958-1.094 5.17-1.08 2.213-3.032 3.443-1.94 1.23-4.524 1.23m0-2.635q1.963 0 3.231-1.007t1.877-2.647.609-3.555-.609-3.567-1.877-2.672-3.231-1.02q-1.965 0-3.232 1.02t-1.877 2.672q-.609 1.652-.609 3.567 0 1.913.609 3.555.61 1.64 1.877 2.647t3.232 1.007M535.561 77.909v2.486h-9.893v-2.486zm-7.01-4.574h2.934v18.196q0 1.243.36 1.865.373.609.945.82.583.2 1.23.199.485 0 .796-.05l.497-.1.596 2.636q-.298.111-.832.223-.535.125-1.355.125a5.9 5.9 0 0 1-2.436-.535 4.84 4.84 0 0 1-1.964-1.628q-.771-1.094-.771-2.76zm14.766 12.18V97h-2.933V71.546h2.933v9.346h.249a5.4 5.4 0 0 1 2.013-2.349q1.355-.882 3.605-.883 1.95 0 3.418.784 1.465.77 2.274 2.373.82 1.592.82 4.052V97h-2.933V85.068q0-2.275-1.181-3.517-1.168-1.255-3.244-1.255-1.441 0-2.585.608a4.46 4.46 0 0 0-1.79 1.778q-.645 1.168-.646 2.834m25.75 11.883q-2.76 0-4.76-1.218-1.99-1.23-3.07-3.43-1.07-2.213-1.069-5.146 0-2.934 1.069-5.17 1.08-2.25 3.007-3.506 1.94-1.267 4.525-1.267 1.491 0 2.945.497a7.3 7.3 0 0 1 2.648 1.615q1.193 1.107 1.901 2.934.71 1.827.709 4.499v1.243h-14.716v-2.536h11.733q0-1.615-.647-2.883a4.87 4.87 0 0 0-1.814-2.001q-1.169-.734-2.759-.733-1.753 0-3.033.87a5.7 5.7 0 0 0-1.951 2.237 6.6 6.6 0 0 0-.684 2.958v1.69q0 2.163.746 3.667.757 1.491 2.1 2.274 1.342.77 3.12.77 1.155 0 2.088-.322a4.5 4.5 0 0 0 1.628-.995 4.5 4.5 0 0 0 1.057-1.665l2.833.795a6.3 6.3 0 0 1-1.504 2.536q-1.056 1.08-2.61 1.69-1.553.597-3.492.597m30.712-19.489v2.486h-10.291v-2.486zM592.57 97V75.274q0-1.64.771-2.734a4.77 4.77 0 0 1 2.001-1.64 6.3 6.3 0 0 1 2.597-.548q1.082 0 1.765.174.684.174 1.019.323l-.845 2.536q-.223-.075-.621-.187-.386-.111-1.019-.111-1.455 0-2.101.733-.634.734-.634 2.15V97zm11.32 0V77.91h2.933V97zm1.491-22.273a2.08 2.08 0 0 1-1.479-.584 1.88 1.88 0 0 1-.609-1.404q0-.82.609-1.405.621-.585 1.479-.584.858 0 1.467.584.621.585.621 1.405t-.621 1.404q-.609.585-1.467.584M612.195 97V77.91h2.834v2.883h.199q.522-1.417 1.889-2.3 1.368-.882 3.083-.882.322 0 .808.012.484.012.733.037v2.984a9 9 0 0 0-.684-.112 7 7 0 0 0-1.106-.087q-1.392 0-2.486.584a4.4 4.4 0 0 0-1.715 1.59q-.621 1.007-.621 2.3V97zm26.546-14.815-2.635.745a4.9 4.9 0 0 0-.734-1.28q-.472-.633-1.292-1.044-.82-.41-2.101-.41-1.752 0-2.921.808-1.155.796-1.155 2.026 0 1.094.795 1.727.795.634 2.486 1.057l2.834.696q2.56.621 3.815 1.902 1.256 1.267 1.256 3.268a4.85 4.85 0 0 1-.945 2.934q-.931 1.291-2.61 2.038t-3.903.746q-2.92 0-4.835-1.268-1.914-1.268-2.423-3.704l2.784-.696q.397 1.541 1.504 2.312 1.118.77 2.92.77 2.051 0 3.257-.87 1.218-.882 1.218-2.112 0-.994-.696-1.666-.696-.683-2.138-1.02l-3.182-.745q-2.622-.621-3.853-1.926-1.218-1.319-1.218-3.294 0-1.615.908-2.859.92-1.243 2.498-1.951 1.59-.708 3.604-.709 2.834 0 4.45 1.243 1.628 1.244 2.312 3.282m13.066-4.276v2.486h-9.894v-2.486zm-7.01-4.574h2.933v18.196q0 1.243.36 1.865.374.609.945.82.584.2 1.23.199.486 0 .796-.05l.497-.1.597 2.636q-.299.111-.833.223-.534.125-1.355.125a5.9 5.9 0 0 1-2.436-.535 4.84 4.84 0 0 1-1.964-1.628q-.77-1.094-.77-2.76zm29.568 4.574v2.486h-9.893v-2.486zm-7.01-4.574h2.933v18.196q0 1.243.361 1.865.372.609.944.82.585.2 1.231.199a5 5 0 0 0 .795-.05l.498-.1.596 2.636q-.298.111-.833.223-.534.125-1.354.125a5.9 5.9 0 0 1-2.436-.535 4.83 4.83 0 0 1-1.964-1.628q-.771-1.094-.771-2.76zM678.777 97V77.91h2.834v2.883h.199q.522-1.417 1.889-2.3t3.083-.882q.322 0 .808.012.484.012.733.037v2.984a9 9 0 0 0-.684-.112 7 7 0 0 0-1.106-.087q-1.392 0-2.486.584a4.4 4.4 0 0 0-1.715 1.59q-.621 1.007-.621 2.3V97zm18.641.447q-1.815 0-3.294-.683-1.479-.696-2.349-2.001-.87-1.319-.87-3.182 0-1.64.646-2.66a4.56 4.56 0 0 1 1.728-1.616 9 9 0 0 1 2.386-.87 29 29 0 0 1 2.648-.472q1.74-.224 2.821-.335 1.094-.125 1.591-.41.51-.287.51-.995v-.1q0-1.84-1.007-2.858-.995-1.02-3.02-1.02-2.101 0-3.294.92t-1.678 1.964l-2.784-.994q.745-1.74 1.989-2.71a7.45 7.45 0 0 1 2.734-1.367 11.4 11.4 0 0 1 2.933-.398q.92 0 2.113.224 1.206.211 2.324.883 1.131.67 1.877 2.026.746 1.354.746 3.629V97h-2.933v-2.585h-.15q-.298.62-.994 1.33-.696.708-1.852 1.205t-2.821.497m.447-2.635q1.74 0 2.933-.683 1.206-.684 1.815-1.765.621-1.081.622-2.275v-2.684q-.187.224-.821.41-.621.175-1.442.31a65 65 0 0 1-1.578.224q-.758.087-1.23.15-1.144.148-2.138.484-.982.324-1.591.982-.597.647-.597 1.765 0 1.53 1.131 2.312 1.144.77 2.896.77m21.412 2.586q-2.685 0-4.623-1.268-1.94-1.268-2.983-3.493t-1.044-5.083q0-2.909 1.069-5.133 1.08-2.238 3.007-3.493 1.94-1.267 4.525-1.267 2.013 0 3.629.745 1.615.746 2.647 2.088t1.28 3.132h-2.933q-.336-1.305-1.491-2.311-1.144-1.02-3.083-1.02-1.715 0-3.008.895-1.28.883-2.001 2.499-.708 1.603-.708 3.766 0 2.212.696 3.853.708 1.64 1.989 2.547 1.292.908 3.032.908 1.144 0 2.076-.398a4.3 4.3 0 0 0 1.578-1.143 4.4 4.4 0 0 0 .92-1.79h2.933a6.8 6.8 0 0 1-1.23 3.045q-.97 1.342-2.573 2.138-1.591.783-3.704.783m14.53-7.358-.05-3.63h.597l8.352-8.5h3.629l-8.899 8.998h-.249zM731.072 97V71.546h2.934V97zm12.131 0-7.457-9.446 2.088-2.038L746.932 97zM718.999 977.398a10.9 10.9 0 0 1-3.58-.682q-1.79-.654-3.267-2.202-1.477-1.562-2.372-4.219-.895-2.67-.895-6.704 0-3.864.725-6.847.724-2.997 2.102-5.042 1.377-2.06 3.324-3.125 1.96-1.066 4.417-1.066 2.444 0 4.347.98a8.3 8.3 0 0 1 3.125 2.699q1.208 1.734 1.562 3.992h-3.465q-.483-1.96-1.875-3.253t-3.694-1.293q-3.38 0-5.326 2.941-1.932 2.94-1.946 8.253h.227a8.54 8.54 0 0 1 4.332-3.395 8.5 8.5 0 0 1 2.827-.469q2.5 0 4.574 1.25 2.073 1.236 3.324 3.423 1.25 2.173 1.25 4.986 0 2.699-1.208 4.943a9.2 9.2 0 0 1-3.395 3.551q-2.172 1.308-5.113 1.279m0-3.125q1.79 0 3.21-.895a6.4 6.4 0 0 0 2.259-2.401q.837-1.506.838-3.352 0-1.804-.81-3.281a6.16 6.16 0 0 0-2.202-2.372q-1.392-.881-3.182-.881-1.348 0-2.514.54a6.5 6.5 0 0 0-2.045 1.449 7 7 0 0 0-1.364 2.116 6.3 6.3 0 0 0-.497 2.486q0 1.733.81 3.238a6.66 6.66 0 0 0 2.244 2.429q1.434.924 3.253.924M735.21 977l13.011-25.739v-.227h-15v-3.125h18.636v3.296L738.903 977zM881.257 874.398a10.9 10.9 0 0 1-3.58-.682q-1.79-.654-3.267-2.202-1.478-1.562-2.372-4.219-.895-2.67-.895-6.704 0-3.864.724-6.847.725-2.997 2.103-5.042 1.377-2.06 3.324-3.125 1.96-1.066 4.417-1.066 2.444 0 4.347.98a8.3 8.3 0 0 1 3.125 2.699q1.208 1.734 1.562 3.992h-3.466q-.483-1.96-1.875-3.253t-3.693-1.293q-3.38 0-5.327 2.941-1.93 2.94-1.946 8.253h.228a8.54 8.54 0 0 1 4.332-3.395 8.5 8.5 0 0 1 2.827-.469q2.5 0 4.574 1.25 2.073 1.236 3.324 3.423 1.25 2.173 1.25 4.986 0 2.699-1.208 4.943a9.2 9.2 0 0 1-3.395 3.551q-2.173 1.308-5.113 1.279m0-3.125q1.79 0 3.21-.895a6.4 6.4 0 0 0 2.258-2.401q.838-1.506.838-3.352 0-1.804-.809-3.281a6.17 6.17 0 0 0-2.202-2.372q-1.392-.881-3.182-.881-1.348 0-2.514.54a6.5 6.5 0 0 0-2.045 1.449 7 7 0 0 0-1.364 2.116 6.3 6.3 0 0 0-.497 2.486q0 1.733.809 3.238a6.67 6.67 0 0 0 2.245 2.429q1.435.924 3.253.924m24.392 3.125q-2.5 0-4.502-.995-2.004-.994-3.211-2.727t-1.321-3.949h3.409q.2 1.976 1.79 3.267 1.606 1.28 3.835 1.279 1.79 0 3.182-.838a5.9 5.9 0 0 0 2.202-2.301q.81-1.477.81-3.339 0-1.903-.838-3.394a6.16 6.16 0 0 0-2.273-2.373q-1.449-.866-3.31-.88a9 9 0 0 0-2.741.412q-1.407.411-2.316 1.065l-3.295-.398 1.761-14.318h15.114v3.125h-12.159l-1.023 8.58h.17q.895-.711 2.245-1.179a8.5 8.5 0 0 1 2.812-.469q2.671 0 4.759 1.278a8.93 8.93 0 0 1 3.295 3.466q1.208 2.202 1.208 5.029 0 2.784-1.25 4.971a9.15 9.15 0 0 1-3.409 3.438q-2.173 1.25-4.944 1.25M959.935 698.398q-2.5 0-4.503-.995-2.004-.994-3.211-2.727t-1.321-3.949h3.41q.198 1.976 1.789 3.267 1.605 1.28 3.836 1.279 1.79 0 3.181-.838a5.9 5.9 0 0 0 2.202-2.301q.81-1.477.81-3.339 0-1.903-.838-3.394a6.16 6.16 0 0 0-2.273-2.373q-1.449-.866-3.31-.88a9 9 0 0 0-2.741.412q-1.406.411-2.316 1.065l-3.295-.398 1.761-14.318h15.114v3.125h-12.159l-1.023 8.58h.171q.894-.711 2.244-1.179a8.5 8.5 0 0 1 2.812-.469q2.671 0 4.759 1.278a8.93 8.93 0 0 1 3.295 3.466q1.208 2.202 1.208 5.029 0 2.784-1.25 4.971a9.14 9.14 0 0 1-3.409 3.438q-2.174 1.25-4.943 1.25m25.074 0q-2.812 0-5.014-.966-2.187-.966-3.48-2.685-1.278-1.732-1.392-4.02h3.579q.114 1.406.966 2.429.852 1.009 2.23 1.563t3.054.554q1.875 0 3.324-.654 1.45-.653 2.273-1.818.824-1.164.824-2.699 0-1.605-.796-2.826-.795-1.236-2.329-1.932t-3.75-.696h-2.33v-3.125h2.33q1.732 0 3.04-.625 1.32-.625 2.059-1.762.753-1.135.753-2.67 0-1.478-.653-2.571-.654-1.093-1.847-1.705-1.179-.61-2.784-.61a7.3 7.3 0 0 0-2.841.554q-1.321.539-2.159 1.576-.839 1.023-.909 2.472h-3.409q.085-2.287 1.378-4.006 1.292-1.733 3.38-2.699 2.103-.966 4.617-.966 2.699 0 4.63 1.094 1.932 1.08 2.969 2.855a7.5 7.5 0 0 1 1.037 3.835q0 2.458-1.292 4.191-1.28 1.732-3.481 2.4v.228q2.757.455 4.304 2.343 1.55 1.876 1.549 4.645 0 2.372-1.293 4.262-1.278 1.875-3.494 2.954t-5.043 1.08M286.586 1188v-1.66l6.242-6.83c.732-.8 1.335-1.5 1.809-2.09q.711-.9 1.053-1.68c.234-.53.351-1.08.351-1.66 0-.67-.16-1.24-.48-1.73a3.13 3.13 0 0 0-1.293-1.13q-.822-.39-1.846-.39-1.09 0-1.902.45c-.536.29-.951.71-1.247 1.25-.289.53-.434 1.16-.434 1.88h-2.179c0-1.11.256-2.08.766-2.92a5.33 5.33 0 0 1 2.087-1.96c.887-.46 1.881-.7 2.982-.7 1.108 0 2.09.24 2.946.7.855.47 1.526 1.1 2.012 1.9.487.79.73 1.67.73 2.65q0 1.035-.379 2.04c-.246.66-.677 1.39-1.292 2.2-.61.81-1.456 1.8-2.539 2.96l-4.248 4.54v.15h8.79v2.03zM391.062 54.09V73h-2.29V56.492h-.11l-4.617 3.065V57.23l4.727-3.14zM933.915 512.398q-2.812 0-5.014-.966-2.187-.966-3.48-2.685-1.278-1.733-1.392-4.02h3.58q.113 1.407.965 2.429.853 1.009 2.231 1.563t3.054.554q1.875 0 3.323-.654 1.45-.652 2.273-1.818.824-1.164.824-2.699 0-1.605-.795-2.826-.796-1.236-2.33-1.932t-3.75-.696h-2.33v-3.125h2.33q1.733 0 3.04-.625 1.32-.625 2.059-1.762.753-1.135.753-2.67 0-1.477-.653-2.571-.654-1.093-1.847-1.705-1.179-.61-2.784-.61a7.3 7.3 0 0 0-2.841.554q-1.32.539-2.159 1.576-.839 1.023-.909 2.472h-3.409q.085-2.287 1.378-4.006 1.292-1.733 3.381-2.699 2.102-.966 4.616-.966 2.699 0 4.631 1.094 1.932 1.08 2.968 2.855a7.47 7.47 0 0 1 1.037 3.835q0 2.458-1.292 4.191-1.28 1.732-3.48 2.4v.228q2.755.454 4.304 2.343 1.548 1.876 1.548 4.645 0 2.372-1.293 4.262-1.278 1.874-3.494 2.954t-5.043 1.08m16.549-.398 13.011-25.739v-.227h-15v-3.125h18.636v3.296L954.157 512zM809.344 334.909V364h-3.522v-25.398h-.171l-7.102 4.716v-3.579l7.273-4.83zm7.685 23.125v-2.898l12.784-20.227h2.102v4.489h-1.42l-9.659 15.284v.227h17.216v3.125zM830.722 364v-29.091h3.352V364zM280.11 1476.91V1506h-3.523v-25.4h-.17l-7.103 4.72v-3.58l7.273-4.83zm7.684 23.12v-2.89l12.784-20.23h2.103v4.49h-1.421l-9.659 15.28v.23h17.216v3.12zm13.694 5.97v-29.09h3.352V1506zM404 1506.4c-2.14 0-3.963-.58-5.469-1.75q-2.258-1.755-3.451-5.1t-1.194-8.1c0-3.14.398-5.82 1.194-8.05.804-2.23 1.96-3.94 3.465-5.11 1.516-1.19 3.334-1.78 5.455-1.78s3.935.59 5.44 1.78c1.515 1.17 2.671 2.88 3.466 5.11.805 2.23 1.208 4.91 1.208 8.05q0 4.755-1.194 8.1t-3.451 5.1c-1.506 1.17-3.329 1.75-5.469 1.75m0-3.13c2.121 0 3.769-1.02 4.943-3.07 1.174-2.04 1.762-4.96 1.762-8.75 0-2.51-.27-4.66-.81-6.43q-.795-2.655-2.301-4.05c-.995-.93-2.192-1.39-3.594-1.39-2.102 0-3.745 1.04-4.929 3.11-1.184 2.06-1.776 4.99-1.776 8.76 0 2.52.266 4.66.796 6.43.53 1.76 1.293 3.1 2.287 4.01q1.506 1.38 3.622 1.38M498.981 1476.91V1506h-3.523v-25.4h-.17l-7.103 4.72v-3.58l7.273-4.83zm17.628-.4c1.193.01 2.386.24 3.579.68q1.79.675 3.267 2.22c.985 1.02 1.776 2.42 2.372 4.19q.895 2.655.895 6.66c0 2.59-.246 4.88-.738 6.89-.483 2-1.184 3.68-2.103 5.06q-1.364 2.055-3.323 3.12c-1.298.71-2.766 1.07-4.404 1.07-1.629 0-3.082-.32-4.361-.97a8.6 8.6 0 0 1-3.125-2.71q-1.208-1.755-1.548-4.05h3.466c.312 1.34.933 2.44 1.861 3.31q1.406 1.29 3.707 1.29 3.366 0 5.313-2.94 1.96-2.94 1.96-8.31h-.227c-.531.8-1.16 1.48-1.89 2.06a8.2 8.2 0 0 1-2.429 1.34c-.89.31-1.837.47-2.841.47a8.9 8.9 0 0 1-4.588-1.24q-2.073-1.245-3.323-3.42c-.824-1.46-1.236-3.13-1.236-5q0-2.67 1.193-4.89a9.2 9.2 0 0 1 3.381-3.55c1.458-.88 3.172-1.31 5.142-1.28m0 3.13c-1.194 0-2.268.29-3.225.89-.947.59-1.7 1.38-2.258 2.39-.55.99-.824 2.1-.824 3.31s.265 2.31.795 3.31c.54.98 1.274 1.77 2.202 2.35q1.407.87 3.196.87c.9 0 1.738-.17 2.514-.52a6.5 6.5 0 0 0 2.031-1.47 7 7 0 0 0 1.378-2.11q.497-1.2.497-2.49c0-1.14-.274-2.2-.823-3.2a6.6 6.6 0 0 0-2.245-2.41c-.947-.62-2.026-.92-3.238-.92m24.961-3.13c1.193.01 2.386.24 3.579.68q1.79.675 3.267 2.22c.985 1.02 1.776 2.42 2.372 4.19q.895 2.655.895 6.66c0 2.59-.246 4.88-.738 6.89-.483 2-1.184 3.68-2.103 5.06q-1.364 2.055-3.324 3.12c-1.297.71-2.765 1.07-4.403 1.07-1.629 0-3.082-.32-4.361-.97a8.6 8.6 0 0 1-3.125-2.71q-1.207-1.755-1.548-4.05h3.466c.312 1.34.933 2.44 1.861 3.31q1.406 1.29 3.707 1.29 3.366 0 5.313-2.94 1.96-2.94 1.96-8.31h-.227a8.9 8.9 0 0 1-1.89 2.06 8.2 8.2 0 0 1-2.429 1.34c-.89.31-1.837.47-2.841.47a8.9 8.9 0 0 1-4.588-1.24q-2.073-1.245-3.324-3.42c-.823-1.46-1.235-3.13-1.235-5q0-2.67 1.193-4.89a9.2 9.2 0 0 1 3.381-3.55c1.458-.88 3.172-1.31 5.142-1.28m0 3.13c-1.194 0-2.268.29-3.225.89-.947.59-1.7 1.38-2.258 2.39-.55.99-.824 2.1-.824 3.31s.265 2.31.795 3.31c.54.98 1.274 1.77 2.202 2.35q1.406.87 3.196.87c.9 0 1.738-.17 2.514-.52a6.5 6.5 0 0 0 2.031-1.47 7 7 0 0 0 1.378-2.11q.497-1.2.497-2.49c0-1.14-.274-2.2-.823-3.2a6.6 6.6 0 0 0-2.245-2.41c-.947-.62-2.026-.92-3.238-.92M358.593 1385v-26.91h17.816v4.69h-12.127v6.41h10.945v4.69h-10.945V1385zm21.538 0v-20.18h5.597V1385zm2.812-22.78c-.832 0-1.546-.28-2.142-.83q-.88-.84-.88-2.01c0-.77.293-1.43.88-1.99q.894-.84 2.142-.84t2.128.84c.596.56.894 1.22.894 1.99q0 1.17-.894 2.01c-.586.55-1.296.83-2.128.83m12.866 11.11V1385h-5.597v-20.18h5.335v3.56h.236a5.7 5.7 0 0 1 2.247-2.79c1.051-.69 2.326-1.03 3.824-1.03 1.401 0 2.623.3 3.665.92 1.043.61 1.853 1.48 2.431 2.62q.867 1.695.867 4.05V1385h-5.597v-11.85c.009-1.24-.307-2.2-.946-2.89q-.959-1.05-2.641-1.05-1.13 0-1.997.48c-.57.33-1.016.8-1.34 1.42q-.474.93-.487 2.22m23.175 12.05c-1.288 0-2.435-.22-3.443-.67a5.47 5.47 0 0 1-2.391-2.01c-.578-.89-.867-2.01-.867-3.34q0-1.68.617-2.82c.412-.76.973-1.38 1.682-1.84q1.065-.705 2.418-1.05a17.3 17.3 0 0 1 2.864-.5c1.174-.12 2.12-.24 2.838-.34.718-.12 1.24-.28 1.564-.5s.486-.55.486-.97v-.08c0-.84-.263-1.48-.788-1.94-.517-.45-1.253-.68-2.208-.68-1.007 0-1.809.23-2.404.67-.596.44-.99.99-1.183 1.66l-5.177-.42q.394-1.845 1.551-3.18c.771-.91 1.765-1.6 2.982-2.08 1.227-.49 2.646-.73 4.257-.73q1.683 0 3.22.39c1.033.26 1.948.67 2.746 1.22a5.9 5.9 0 0 1 1.905 2.13q.696 1.29.696 3.09V1385h-5.308v-2.8h-.158a5.7 5.7 0 0 1-1.301 1.67 6 6 0 0 1-1.957 1.12q-1.143.39-2.641.39m1.603-3.86c.823 0 1.55-.16 2.181-.49a3.85 3.85 0 0 0 1.485-1.34c.359-.56.538-1.19.538-1.9v-2.15c-.175.12-.416.22-.722.32-.298.09-.635.17-1.012.25-.377.07-.753.14-1.13.2-.377.05-.718.1-1.025.14-.657.1-1.231.25-1.721.46-.491.21-.872.5-1.143.86-.272.35-.408.78-.408 1.31 0 .76.276 1.34.828 1.75.561.39 1.27.59 2.129.59m19.702-23.43V1385h-5.597v-26.91zm37.88 13.46c0 2.93-.556 5.43-1.668 7.48-1.104 2.06-2.611 3.64-4.52 4.72q-2.851 1.62-6.412 1.62c-2.392 0-4.538-.55-6.438-1.63-1.901-1.09-3.403-2.66-4.507-4.72q-1.656-3.09-1.656-7.47c0-2.94.552-5.44 1.656-7.49q1.656-3.09 4.507-4.71c1.9-1.08 4.046-1.63 6.438-1.63 2.374 0 4.511.55 6.412 1.63q2.864 1.62 4.52 4.71c1.112 2.05 1.668 4.55 1.668 7.49m-5.768 0c0-1.91-.284-3.51-.854-4.81q-.84-1.965-2.378-2.97c-1.025-.68-2.225-1.01-3.6-1.01s-2.575.33-3.6 1.01q-1.537 1.005-2.392 2.97c-.56 1.3-.841 2.9-.841 4.81q0 2.85.841 4.8.855 1.965 2.392 2.97 1.538 1.02 3.6 1.02t3.6-1.02q1.538-1.005 2.378-2.97.854-1.95.854-4.8m9.878 13.45v-20.18h5.426v3.52h.21c.368-1.25.986-2.2 1.853-2.84.867-.65 1.866-.97 2.996-.97.28 0 .582.02.906.05.324.04.609.08.854.15v4.96a7 7 0 0 0-1.09-.21q-.696-.09-1.275-.09-1.235 0-2.207.54-.96.525-1.524 1.47c-.368.63-.552 1.36-.552 2.18V1385zm21.637.33c-1.533 0-2.922-.4-4.166-1.18q-1.853-1.2-2.943-3.51-1.077-2.325-1.077-5.7c0-2.32.372-4.24 1.117-5.77.744-1.54 1.734-2.7 2.969-3.46a7.6 7.6 0 0 1 4.086-1.15q1.695 0 2.825.57c.762.38 1.376.85 1.84 1.42.473.56.832 1.12 1.077 1.66h.171v-10.12h5.584V1385h-5.518v-3.23h-.237c-.263.56-.635 1.11-1.117 1.67q-.71.81-1.852 1.35-1.13.54-2.759.54m1.773-4.46c.903 0 1.665-.24 2.287-.73.63-.5 1.112-1.2 1.445-2.09.342-.89.512-1.94.512-3.14s-.166-2.24-.499-3.13c-.333-.88-.815-1.57-1.445-2.05q-.946-.72-2.3-.72-1.38 0-2.325.75t-1.432 2.07c-.325.89-.487 1.91-.487 3.08s.162 2.21.487 3.11c.332.9.81 1.6 1.432 2.11.63.49 1.406.74 2.325.74m23.51 4.52q-3.114 0-5.361-1.26-2.234-1.275-3.443-3.6c-.805-1.56-1.208-3.4-1.208-5.53 0-2.07.403-3.9 1.208-5.46.806-1.57 1.941-2.79 3.403-3.67 1.472-.88 3.198-1.31 5.177-1.31 1.332 0 2.571.21 3.719.64a8.2 8.2 0 0 1 3.022 1.9q1.3 1.275 2.023 3.21c.482 1.28.723 2.78.723 4.49v1.54H521.42v-3.47h11.773c0-.8-.175-1.52-.526-2.14a3.8 3.8 0 0 0-1.458-1.46q-.92-.54-2.142-.54c-.849 0-1.603.2-2.26.59-.648.39-1.156.91-1.524 1.57a4.4 4.4 0 0 0-.565 2.17v3.29c0 1 .184 1.87.552 2.59q.565 1.095 1.59 1.68 1.024.6 2.431.6.933 0 1.708-.27c.517-.17.959-.43 1.327-.79.368-.35.648-.77.841-1.28l5.177.34a7.1 7.1 0 0 1-1.617 3.26c-.805.92-1.848 1.64-3.127 2.15-1.27.51-2.737.76-4.401.76m12.916-.39v-20.18h5.426v3.52h.21c.368-1.25.986-2.2 1.853-2.84.867-.65 1.866-.97 2.996-.97.28 0 .582.02.906.05.324.04.609.08.854.15v4.96a7 7 0 0 0-1.09-.21q-.697-.09-1.275-.09-1.235 0-2.207.54-.96.525-1.524 1.47c-.368.63-.552 1.36-.552 2.18V1385zm32.821.39c-2.041 0-3.806-.43-5.295-1.3-1.48-.87-2.623-2.09-3.429-3.65-.806-1.57-1.209-3.38-1.209-5.45 0-2.09.403-3.91 1.209-5.47.806-1.57 1.949-2.78 3.429-3.65 1.489-.88 3.254-1.31 5.295-1.31s3.802.43 5.282 1.31a8.77 8.77 0 0 1 3.443 3.65c.806 1.56 1.208 3.38 1.208 5.47 0 2.07-.402 3.88-1.208 5.45-.806 1.56-1.954 2.78-3.443 3.65-1.48.87-3.241 1.3-5.282 1.3m.027-4.33c.928 0 1.703-.26 2.325-.79s1.091-1.26 1.406-2.18c.324-.92.486-1.97.486-3.14 0-1.18-.162-2.22-.486-3.14-.315-.92-.784-1.65-1.406-2.18-.622-.54-1.397-.8-2.325-.8-.938 0-1.726.26-2.366.8-.63.53-1.108 1.26-1.432 2.18-.315.92-.473 1.96-.473 3.14 0 1.17.158 2.22.473 3.14.324.92.802 1.65 1.432 2.18.64.53 1.428.79 2.366.79m24.399-16.24v4.2h-12.456v-4.2zm-9.605 20.18v-21.64c0-1.46.285-2.68.854-3.64a5.5 5.5 0 0 1 2.365-2.17q1.498-.72 3.403-.72c.859 0 1.643.07 2.352.2.719.13 1.253.25 1.603.35l-.998 4.21a7 7 0 0 0-.815-.2 5 5 0 0 0-.972-.09c-.824 0-1.397.19-1.721.58-.325.37-.487.9-.487 1.58V1385zm21.693 0v-26.91h10.617c2.032 0 3.766.36 5.203 1.09q2.167 1.08 3.298 3.06c.762 1.32 1.143 2.86 1.143 4.64 0 1.79-.386 3.33-1.156 4.61-.771 1.28-1.888 2.26-3.351 2.95q-2.181 1.02-5.282 1.02h-7.108v-4.57h6.188q1.63 0 2.707-.45c.718-.3 1.253-.74 1.603-1.34q.539-.885.539-2.22c0-.89-.18-1.65-.539-2.26-.35-.61-.889-1.08-1.616-1.39-.718-.33-1.625-.49-2.72-.49h-3.837V1385zm14.532-12.25 6.688 12.25h-6.281l-6.543-12.25zm18.516 12.64q-3.113 0-5.36-1.26-2.234-1.275-3.443-3.6c-.806-1.56-1.209-3.4-1.209-5.53 0-2.07.403-3.9 1.209-5.46.806-1.57 1.94-2.79 3.403-3.67 1.472-.88 3.197-1.31 5.177-1.31 1.332 0 2.571.21 3.719.64a8.2 8.2 0 0 1 3.022 1.9q1.3 1.275 2.023 3.21c.482 1.28.723 2.78.723 4.49v1.54H636.72v-3.47h11.773c0-.8-.175-1.52-.526-2.14a3.8 3.8 0 0 0-1.458-1.46q-.92-.54-2.142-.54c-.85 0-1.603.2-2.26.59-.648.39-1.156.91-1.524 1.57a4.4 4.4 0 0 0-.565 2.17v3.29c0 1 .184 1.87.552 2.59a4 4 0 0 0 1.59 1.68q1.025.6 2.43.6a5.2 5.2 0 0 0 1.709-.27c.516-.17.959-.43 1.327-.79.368-.35.648-.77.841-1.28l5.176.34a7.1 7.1 0 0 1-1.616 3.26c-.806.92-1.848 1.64-3.127 2.15-1.27.51-2.737.76-4.402.76m26.253 7.18v-10.8h-.171c-.263.56-.635 1.11-1.117 1.67q-.71.81-1.853 1.35-1.13.54-2.759.54c-1.533 0-2.921-.4-4.165-1.18q-1.853-1.2-2.943-3.51-1.077-2.325-1.078-5.7c0-2.32.373-4.24 1.117-5.77.745-1.54 1.735-2.7 2.97-3.46a7.6 7.6 0 0 1 4.086-1.15q1.695 0 2.825.57c.762.38 1.375.85 1.839 1.42.473.56.833 1.12 1.078 1.66h.236v-3.39h5.519v27.75zm-4.126-11.7c.902 0 1.664-.24 2.286-.73.631-.5 1.113-1.2 1.445-2.09.342-.89.513-1.94.513-3.14s-.167-2.24-.499-3.13c-.333-.88-.815-1.57-1.446-2.05q-.946-.72-2.299-.72-1.38 0-2.326.75-.945.75-1.432 2.07c-.324.89-.486 1.91-.486 3.08s.162 2.21.486 3.11c.333.9.81 1.6 1.432 2.11.631.49 1.406.74 2.326.74m27.146-4.46v-11.59h5.597V1385h-5.374v-3.67h-.21a5.96 5.96 0 0 1-2.273 2.86c-1.052.71-2.335 1.07-3.85 1.07-1.349 0-2.536-.3-3.561-.92q-1.537-.915-2.404-2.61c-.57-1.13-.859-2.48-.868-4.06v-12.85h5.598v11.85q.012 1.785.959 2.82c.631.7 1.476 1.04 2.536 1.04.674 0 1.305-.15 1.892-.46s1.06-.78 1.419-1.39c.368-.61.547-1.37.539-2.27m19.271 8.98q-3.114 0-5.36-1.26-2.234-1.275-3.443-3.6c-.806-1.56-1.209-3.4-1.209-5.53 0-2.07.403-3.9 1.209-5.46.806-1.57 1.94-2.79 3.403-3.67 1.472-.88 3.197-1.31 5.177-1.31 1.332 0 2.571.21 3.718.64a8.2 8.2 0 0 1 3.022 1.9q1.302 1.275 2.024 3.21c.482 1.28.723 2.78.723 4.49v1.54h-17.042v-3.47h11.773c0-.8-.175-1.52-.526-2.14a3.8 3.8 0 0 0-1.458-1.46q-.92-.54-2.142-.54c-.85 0-1.603.2-2.26.59-.648.39-1.156.91-1.524 1.57a4.4 4.4 0 0 0-.565 2.17v3.29c0 1 .184 1.87.552 2.59q.564 1.095 1.59 1.68 1.024.6 2.43.6a5.2 5.2 0 0 0 1.709-.27c.516-.17.959-.43 1.327-.79.367-.35.648-.77.84-1.28l5.177.34a7.1 7.1 0 0 1-1.616 3.26c-.806.92-1.848 1.64-3.127 2.15-1.27.51-2.737.76-4.402.76m29.708-14.82-5.124.32a2.63 2.63 0 0 0-.565-1.18 3 3 0 0 0-1.143-.86q-.696-.33-1.669-.33c-.867 0-1.598.19-2.194.56-.596.35-.894.84-.894 1.44 0 .48.193.89.579 1.22.385.34 1.046.6 1.984.8l3.652.74c1.962.4 3.425 1.05 4.389 1.94.963.9 1.445 2.07 1.445 3.53q0 1.98-1.169 3.48-1.156 1.5-3.18 2.34c-1.34.55-2.886.82-4.638.82-2.672 0-4.8-.55-6.386-1.66-1.577-1.13-2.501-2.65-2.772-4.58l5.505-.29c.167.82.57 1.44 1.209 1.87q.958.63 2.457.63c.981 0 1.769-.19 2.365-.56.604-.39.911-.88.92-1.49-.009-.51-.224-.92-.644-1.25s-1.069-.58-1.945-.76l-3.495-.7c-1.971-.39-3.438-1.07-4.401-2.05-.955-.97-1.432-2.21-1.432-3.71 0-1.3.35-2.42 1.051-3.35.709-.94 1.703-1.66 2.982-2.17 1.288-.51 2.795-.76 4.52-.76 2.549 0 4.555.53 6.018 1.61 1.471 1.08 2.33 2.55 2.575 4.4m14.719-5.75v4.2h-12.153v-4.2zm-9.394-4.84h5.597v18.82c0 .52.079.92.237 1.21.157.28.376.47.657.59.289.11.622.17.998.17.263 0 .526-.02.789-.07.262-.05.464-.09.604-.11l.88 4.16q-.42.135-1.182.3c-.508.13-1.126.2-1.853.23q-2.023.075-3.547-.54-1.512-.615-2.352-1.92c-.561-.87-.837-1.96-.828-3.29zm29.579 10.59-5.124.32a2.6 2.6 0 0 0-.565-1.18 3 3 0 0 0-1.143-.86q-.696-.33-1.669-.33c-.867 0-1.598.19-2.194.56-.595.35-.893.84-.893 1.44 0 .48.192.89.578 1.22.385.34 1.047.6 1.984.8l3.653.74c1.962.4 3.424 1.05 4.388 1.94.964.9 1.445 2.07 1.445 3.53q0 1.98-1.169 3.48-1.156 1.5-3.18 2.34c-1.34.55-2.886.82-4.638.82-2.672 0-4.8-.55-6.386-1.66-1.576-1.13-2.5-2.65-2.772-4.58l5.505-.29c.167.82.57 1.44 1.209 1.87q.96.63 2.457.63c.981 0 1.77-.19 2.365-.56.605-.39.911-.88.92-1.49-.009-.51-.223-.92-.644-1.25-.42-.33-1.068-.58-1.944-.76l-3.495-.7c-1.971-.39-3.438-1.07-4.402-2.05-.955-.97-1.432-2.21-1.432-3.71 0-1.3.35-2.42 1.051-3.35.709-.94 1.704-1.66 2.983-2.17 1.287-.51 2.794-.76 4.519-.76 2.549 0 4.555.53 6.018 1.61 1.472 1.08 2.33 2.55 2.575 4.4m27.251-4.74c-.105-1.06-.556-1.88-1.353-2.47s-1.879-.88-3.246-.88q-1.392 0-2.351.39c-.64.26-1.13.61-1.472 1.07-.333.45-.499.97-.499 1.55q-.027.72.302 1.26.342.54.933.93c.394.26.849.48 1.366.67s1.069.34 1.656.48l2.417.57q1.761.405 3.233 1.05 1.471.66 2.549 1.62a6.7 6.7 0 0 1 1.668 2.26c.403.87.609 1.86.618 2.98q-.013 2.475-1.262 4.29c-.823 1.2-2.014 2.13-3.573 2.8-1.551.65-3.421.98-5.611.98-2.172 0-4.064-.33-5.676-1-1.603-.66-2.856-1.65-3.758-2.95-.893-1.32-1.362-2.94-1.406-4.88h5.506c.061.9.319 1.66.775 2.26q.696.9 1.853 1.35 1.168.45 2.64.45 1.446 0 2.51-.42 1.077-.42 1.669-1.17c.394-.5.591-1.07.591-1.72 0-.6-.18-1.11-.539-1.52q-.525-.63-1.55-1.05c-.675-.29-1.502-.56-2.483-.79l-2.93-.74c-2.269-.55-4.06-1.41-5.374-2.59q-1.971-1.755-1.958-4.74c-.009-1.63.425-3.05 1.301-4.27q1.327-1.83 3.639-2.85c1.542-.69 3.294-1.03 5.256-1.03 1.997 0 3.74.34 5.229 1.03q2.247 1.02 3.495 2.85t1.288 4.23zm18.74 19.56q-3.114 0-5.361-1.26-2.233-1.275-3.442-3.6c-.806-1.56-1.209-3.4-1.209-5.53 0-2.07.403-3.9 1.209-5.46.806-1.57 1.94-2.79 3.403-3.67 1.471-.88 3.197-1.31 5.177-1.31 1.331 0 2.571.21 3.718.64a8.2 8.2 0 0 1 3.022 1.9q1.301 1.275 2.023 3.21c.482 1.28.723 2.78.723 4.49v1.54h-17.041v-3.47h11.772c0-.8-.175-1.52-.525-2.14a3.8 3.8 0 0 0-1.459-1.46q-.92-.54-2.141-.54c-.85 0-1.603.2-2.26.59a4.17 4.17 0 0 0-1.525 1.57 4.4 4.4 0 0 0-.564 2.17v3.29c0 1 .183 1.87.551 2.59q.566 1.095 1.59 1.68 1.025.6 2.431.6.933 0 1.708-.27c.517-.17.959-.43 1.327-.79.368-.35.648-.77.841-1.28l5.177.34a7.1 7.1 0 0 1-1.616 3.26c-.806.92-1.849 1.64-3.127 2.15-1.271.51-2.738.76-4.402.76m12.916-.39v-20.18h5.426v3.52h.211c.367-1.25.985-2.2 1.852-2.84.867-.65 1.866-.97 2.996-.97a10 10 0 0 1 .907.05c.324.04.608.08.854.15v4.96a7 7 0 0 0-1.091-.21q-.696-.09-1.275-.09-1.235 0-2.207.54a3.97 3.97 0 0 0-1.524 1.47c-.368.63-.552 1.36-.552 2.18V1385zm34.569-20.18-7.056 20.18h-6.307l-7.055-20.18h5.912l4.192 14.44h.21l4.178-14.44zm11.411 20.57q-3.114 0-5.36-1.26-2.234-1.275-3.443-3.6c-.806-1.56-1.209-3.4-1.209-5.53 0-2.07.403-3.9 1.209-5.46.806-1.57 1.94-2.79 3.403-3.67 1.472-.88 3.197-1.31 5.177-1.31 1.332 0 2.571.21 3.718.64a8.2 8.2 0 0 1 3.023 1.9q1.3 1.275 2.023 3.21c.482 1.28.723 2.78.723 4.49v1.54h-17.042v-3.47h11.773c0-.8-.175-1.52-.526-2.14a3.8 3.8 0 0 0-1.458-1.46q-.92-.54-2.142-.54c-.85 0-1.603.2-2.26.59-.648.39-1.156.91-1.524 1.57a4.4 4.4 0 0 0-.565 2.17v3.29c0 1 .184 1.87.552 2.59q.564 1.095 1.59 1.68 1.025.6 2.43.6a5.2 5.2 0 0 0 1.709-.27c.516-.17.959-.43 1.327-.79.367-.35.648-.77.84-1.28l5.177.34a7.1 7.1 0 0 1-1.616 3.26c-.806.92-1.848 1.64-3.127 2.15-1.27.51-2.737.76-4.402.76m20.353-.06c-1.533 0-2.921-.4-4.165-1.18q-1.852-1.2-2.943-3.51-1.078-2.325-1.078-5.7c0-2.32.373-4.24 1.117-5.77.745-1.54 1.735-2.7 2.97-3.46a7.6 7.6 0 0 1 4.086-1.15q1.695 0 2.825.57c.762.38 1.375.85 1.839 1.42.473.56.833 1.12 1.078 1.66h.171v-10.12h5.584V1385h-5.519v-3.23h-.236c-.263.56-.635 1.11-1.117 1.67q-.71.81-1.853 1.35-1.13.54-2.759.54m1.774-4.46c.902 0 1.664-.24 2.286-.73.631-.5 1.113-1.2 1.445-2.09.342-.89.513-1.94.513-3.14s-.167-2.24-.499-3.13c-.333-.88-.815-1.57-1.446-2.05q-.946-.72-2.299-.72-1.38 0-2.326.75-.945.75-1.432 2.07c-.324.89-.486 1.91-.486 3.08s.162 2.21.486 3.11c.333.9.81 1.6 1.432 2.11.631.49 1.406.74 2.326.74M615.383 1476.91V1506h-3.523v-25.4h-.17l-7.102 4.72v-3.58l7.272-4.83zm17.685 29.49c-1.951 0-3.674-.35-5.171-1.04q-2.229-1.05-3.48-2.88c-.833-1.23-1.245-2.64-1.236-4.21-.009-1.23.232-2.36.725-3.41a7.4 7.4 0 0 1 2.017-2.62 6.2 6.2 0 0 1 2.883-1.35v-.17c-1.392-.36-2.5-1.15-3.323-2.35-.824-1.21-1.231-2.59-1.222-4.13q-.014-2.22 1.122-3.96 1.137-1.755 3.125-2.76c1.335-.67 2.855-1.01 4.56-1.01 1.685 0 3.191.34 4.517 1.01q1.988 1.005 3.125 2.76 1.15 1.74 1.165 3.96c-.01 1.54-.431 2.92-1.265 4.13-.823 1.2-1.917 1.99-3.281 2.35v.17q1.577.285 2.841 1.35c.843.7 1.515 1.57 2.017 2.62a7.9 7.9 0 0 1 .767 3.41c-.009 1.57-.435 2.98-1.278 4.21q-1.251 1.83-3.48 2.88c-1.478.69-3.187 1.04-5.128 1.04m0-3.13c1.316 0 2.452-.21 3.409-.64q1.434-.63 2.216-1.8t.795-2.73q-.014-1.65-.852-2.91a5.8 5.8 0 0 0-2.287-1.99q-1.434-.72-3.281-.72-1.862 0-3.324.72a5.8 5.8 0 0 0-2.287 1.99q-.823 1.26-.81 2.91-.014 1.56.753 2.73.781 1.17 2.23 1.8c.966.43 2.112.64 3.438.64m0-13.8q1.562 0 2.77-.63c.814-.42 1.453-1 1.917-1.75.464-.74.701-1.62.711-2.62q-.015-1.485-.696-2.58a4.6 4.6 0 0 0-1.89-1.7c-.805-.41-1.742-.61-2.812-.61-1.089 0-2.041.2-2.855.61a4.46 4.46 0 0 0-1.889 1.7q-.668 1.095-.654 2.58c-.009 1 .213 1.88.668 2.62a4.77 4.77 0 0 0 1.917 1.75q1.222.63 2.813.63m25.16 16.93c-1.875 0-3.547-.32-5.015-.97-1.458-.64-2.618-1.54-3.48-2.68q-1.278-1.74-1.392-4.02h3.58q.114 1.395.966 2.43.852 1.005 2.23 1.56c.918.37 1.936.55 3.054.55 1.25 0 2.358-.22 3.324-.65.966-.44 1.723-1.04 2.272-1.82q.824-1.17.824-2.7 0-1.605-.795-2.82c-.53-.83-1.307-1.47-2.33-1.94q-1.533-.69-3.75-.69h-2.329v-3.13h2.329c1.156 0 2.169-.21 3.04-.62.881-.42 1.567-1.01 2.06-1.76q.753-1.14.753-2.67 0-1.485-.654-2.58a4.54 4.54 0 0 0-1.846-1.7c-.786-.41-1.714-.61-2.785-.61-1.003 0-1.95.18-2.84.55-.881.36-1.601.89-2.16 1.58-.558.68-.861 1.51-.909 2.47h-3.409c.057-1.52.516-2.86 1.378-4q1.293-1.74 3.381-2.7c1.401-.65 2.94-.97 4.616-.97 1.8 0 3.343.37 4.631 1.1 1.288.71 2.277 1.67 2.969 2.85a7.47 7.47 0 0 1 1.037 3.84c0 1.63-.431 3.03-1.293 4.19q-1.278 1.725-3.48 2.4v.22c1.837.31 3.272 1.09 4.304 2.35 1.032 1.25 1.548 2.8 1.548 4.64q0 2.37-1.292 4.26c-.853 1.25-2.017 2.24-3.495 2.96q-2.216 1.08-5.042 1.08M731.313 1476.91V1506h-3.523v-25.4h-.17l-7.103 4.72v-3.58l7.273-4.83zm8.366 29.09v-2.56l9.603-10.51a66 66 0 0 0 2.784-3.21q1.094-1.38 1.619-2.58c.36-.82.54-1.67.54-2.56 0-1.02-.246-1.91-.739-2.66a4.87 4.87 0 0 0-1.988-1.73c-.843-.41-1.79-.61-2.841-.61-1.118 0-2.093.23-2.927.7a4.77 4.77 0 0 0-1.917 1.91c-.445.83-.668 1.79-.668 2.9h-3.352c0-1.7.393-3.2 1.179-4.49a8.2 8.2 0 0 1 3.21-3.01q2.046-1.08 4.588-1.08 2.557 0 4.531 1.08 1.975 1.08 3.097 2.91t1.122 4.08c0 1.07-.194 2.12-.582 3.14q-.569 1.515-1.989 3.39c-.937 1.24-2.239 2.76-3.906 4.55l-6.534 6.99v.23h13.523v3.12zm22.912-5.97v-2.89l12.784-20.23h2.103v4.49h-1.421l-9.659 15.28v.23h17.216v3.12zm13.693 5.97v-29.09h3.353V1506zM847.723 1476.91V1506H844.2v-25.4h-.17l-7.102 4.72v-3.58l7.272-4.83zm8.366 29.09v-2.56l9.603-10.51a66 66 0 0 0 2.784-3.21q1.094-1.38 1.619-2.58c.36-.82.54-1.67.54-2.56 0-1.02-.246-1.91-.739-2.66a4.87 4.87 0 0 0-1.988-1.73c-.843-.41-1.79-.61-2.841-.61-1.118 0-2.093.23-2.926.7a4.77 4.77 0 0 0-1.918 1.91c-.445.83-.668 1.79-.668 2.9h-3.352c0-1.7.393-3.2 1.179-4.49a8.2 8.2 0 0 1 3.21-3.01q2.046-1.08 4.588-1.08 2.557 0 4.532 1.08 1.974 1.08 3.096 2.91t1.122 4.08c0 1.07-.194 2.12-.582 3.14q-.569 1.515-1.989 3.39c-.937 1.24-2.239 2.76-3.906 4.55l-6.534 6.99v.23h13.523v3.12zm24.219 0v-2.56l9.603-10.51a67 67 0 0 0 2.784-3.21q1.094-1.38 1.619-2.58c.36-.82.54-1.67.54-2.56 0-1.02-.247-1.91-.739-2.66a4.86 4.86 0 0 0-1.989-1.73c-.842-.41-1.789-.61-2.84-.61-1.118 0-2.093.23-2.927.7a4.77 4.77 0 0 0-1.917 1.91c-.445.83-.668 1.79-.668 2.9h-3.352c0-1.7.393-3.2 1.179-4.49a8.2 8.2 0 0 1 3.21-3.01q2.046-1.08 4.588-1.08 2.557 0 4.531 1.08 1.975 1.08 3.097 2.91t1.122 4.08c0 1.07-.194 2.12-.582 3.14q-.569 1.515-1.989 3.39c-.937 1.24-2.239 2.76-3.906 4.55l-6.534 6.99v.23h13.523v3.12zM970.468 1476.51c1.193.01 2.386.24 3.58.68q1.79.675 3.267 2.22c.984 1.02 1.775 2.42 2.372 4.19q.895 2.655.895 6.66c0 2.59-.247 4.88-.739 6.89-.483 2-1.184 3.68-2.102 5.06q-1.364 2.055-3.324 3.12c-1.297.71-2.765 1.07-4.404 1.07-1.628 0-3.082-.32-4.36-.97a8.57 8.57 0 0 1-3.125-2.71q-1.207-1.755-1.549-4.05h3.466c.313 1.34.933 2.44 1.861 3.31q1.406 1.29 3.707 1.29 3.368 0 5.313-2.94 1.96-2.94 1.96-8.31h-.227c-.53.8-1.16 1.48-1.889 2.06a8.2 8.2 0 0 1-2.429 1.34c-.89.31-1.837.47-2.841.47a8.9 8.9 0 0 1-4.588-1.24q-2.075-1.245-3.324-3.42c-.824-1.46-1.236-3.13-1.236-5q0-2.67 1.193-4.89a9.2 9.2 0 0 1 3.381-3.55c1.458-.88 3.172-1.31 5.142-1.28m0 3.13c-1.193 0-2.268.29-3.224.89-.947.59-1.7 1.38-2.259 2.39-.549.99-.824 2.1-.824 3.31s.265 2.31.796 3.31a6.3 6.3 0 0 0 2.201 2.35q1.407.87 3.196.87c.9 0 1.738-.17 2.515-.52a6.5 6.5 0 0 0 2.031-1.47 7.1 7.1 0 0 0 1.378-2.11q.497-1.2.497-2.49c0-1.14-.275-2.2-.824-3.2a6.6 6.6 0 0 0-2.244-2.41c-.947-.62-2.027-.92-3.239-.92m25.018 26.76c-1.951 0-3.674-.35-5.171-1.04q-2.229-1.05-3.48-2.88c-.833-1.23-1.245-2.64-1.236-4.21-.009-1.23.232-2.36.725-3.41a7.4 7.4 0 0 1 2.017-2.62 6.2 6.2 0 0 1 2.883-1.35v-.17c-1.392-.36-2.5-1.15-3.323-2.35-.824-1.21-1.231-2.59-1.222-4.13q-.014-2.22 1.122-3.96 1.137-1.755 3.125-2.76c1.335-.67 2.855-1.01 4.56-1.01 1.685 0 3.191.34 4.514 1.01 1.33.67 2.37 1.59 3.13 2.76.76 1.16 1.15 2.48 1.16 3.96-.01 1.54-.43 2.92-1.26 4.13-.83 1.2-1.92 1.99-3.283 2.35v.17a6 6 0 0 1 2.843 1.35c.84.7 1.51 1.57 2.02 2.62.5 1.05.75 2.18.76 3.41-.01 1.57-.43 2.98-1.28 4.21q-1.245 1.83-3.48 2.88c-1.474.69-3.183 1.04-5.124 1.04m0-3.13c1.316 0 2.452-.21 3.409-.64q1.434-.63 2.215-1.8c.52-.78.79-1.69.8-2.73-.01-1.1-.3-2.07-.86-2.91-.55-.84-1.317-1.51-2.283-1.99q-1.434-.72-3.281-.72-1.861 0-3.324.72a5.8 5.8 0 0 0-2.287 1.99q-.823 1.26-.81 2.91-.014 1.56.753 2.73.781 1.17 2.23 1.8c.966.43 2.112.64 3.438.64m0-13.8q1.562 0 2.77-.63c.814-.42 1.453-1 1.914-1.75.47-.74.7-1.62.71-2.62q-.015-1.485-.69-2.58a4.6 4.6 0 0 0-1.892-1.7c-.805-.41-1.742-.61-2.812-.61-1.089 0-2.041.2-2.855.61-.815.4-1.444.97-1.89 1.7q-.667 1.095-.653 2.58c-.009 1 .213 1.88.668 2.62a4.77 4.77 0 0 0 1.917 1.75q1.222.63 2.813.63M1087.76 1506.4c-1.19-.02-2.38-.25-3.58-.68-1.19-.44-2.28-1.17-3.26-2.21-.99-1.04-1.78-2.44-2.37-4.21-.6-1.78-.9-4.02-.9-6.71 0-2.57.24-4.86.73-6.85q.72-2.985 2.1-5.04c.92-1.37 2.02-2.41 3.32-3.12 1.31-.71 2.78-1.07 4.42-1.07 1.63 0 3.08.33 4.35.98s2.32 1.55 3.12 2.7q1.215 1.74 1.56 3.99h-3.46c-.33-1.31-.95-2.39-1.88-3.25q-1.395-1.29-3.69-1.29c-2.26 0-4.03.98-5.33 2.94-1.29 1.96-1.93 4.71-1.94 8.25h.22c.53-.81 1.16-1.49 1.89-2.06.74-.58 1.56-1.02 2.45-1.34.89-.31 1.83-.46 2.82-.46 1.67 0 3.19.41 4.58 1.25 1.38.82 2.49 1.96 3.32 3.42.83 1.45 1.25 3.11 1.25 4.98 0 1.8-.4 3.45-1.21 4.95a9.2 9.2 0 0 1-3.39 3.55c-1.45.87-3.16 1.3-5.12 1.28m0-3.13c1.2 0 2.27-.3 3.21-.89.96-.6 1.71-1.4 2.26-2.4.56-1.01.84-2.12.84-3.36 0-1.2-.27-2.29-.81-3.28a6.2 6.2 0 0 0-2.2-2.37c-.93-.59-1.99-.88-3.18-.88q-1.35 0-2.52.54c-.77.35-1.45.83-2.04 1.45-.58.62-1.03 1.32-1.37 2.12-.33.78-.49 1.61-.49 2.48a6.71 6.71 0 0 0 3.05 5.67c.96.61 2.04.92 3.25.92m16.22 2.73 13.01-25.74v-.23h-15v-3.12h18.63v3.29l-12.95 25.8zM1202.02 1506.4c-1.19-.02-2.38-.25-3.58-.68-1.19-.44-2.28-1.17-3.26-2.21-.99-1.04-1.78-2.44-2.38-4.21-.59-1.78-.89-4.02-.89-6.71 0-2.57.24-4.86.72-6.85.49-1.99 1.19-3.67 2.11-5.04.91-1.37 2.02-2.41 3.32-3.12 1.31-.71 2.78-1.07 4.42-1.07 1.63 0 3.07.33 4.34.98 1.28.65 2.32 1.55 3.13 2.7q1.2 1.74 1.56 3.99h-3.47c-.32-1.31-.94-2.39-1.87-3.25q-1.395-1.29-3.69-1.29c-2.26 0-4.03.98-5.33 2.94q-1.935 2.94-1.95 8.25h.23c.53-.81 1.16-1.49 1.89-2.06.74-.58 1.55-1.02 2.44-1.34.89-.31 1.84-.46 2.83-.46 1.67 0 3.19.41 4.57 1.25 1.39.82 2.49 1.96 3.33 3.42.83 1.45 1.25 3.11 1.25 4.98 0 1.8-.4 3.45-1.21 4.95a9.25 9.25 0 0 1-3.39 3.55c-1.45.87-3.16 1.3-5.12 1.28m0-3.13c1.2 0 2.27-.3 3.21-.89.96-.6 1.71-1.4 2.26-2.4.56-1.01.84-2.12.84-3.36 0-1.2-.27-2.29-.81-3.28a6.3 6.3 0 0 0-2.2-2.37c-.93-.59-1.99-.88-3.18-.88q-1.35 0-2.52.54c-.78.35-1.46.83-2.04 1.45a7 7 0 0 0-1.37 2.12c-.33.78-.49 1.61-.49 2.48 0 1.16.27 2.24.8 3.24q.825 1.5 2.25 2.43c.96.61 2.04.92 3.25.92m24.39 3.13c-1.66 0-3.16-.33-4.5-1-1.33-.66-2.4-1.57-3.21-2.72-.8-1.16-1.24-2.48-1.32-3.95h3.41c.13 1.31.73 2.4 1.79 3.26 1.07.86 2.35 1.28 3.83 1.28 1.2 0 2.26-.28 3.19-.84.93-.55 1.67-1.32 2.2-2.3q.81-1.47.81-3.33c0-1.27-.28-2.41-.84-3.4a6.23 6.23 0 0 0-2.27-2.37c-.97-.58-2.07-.87-3.31-.88-.89-.01-1.81.13-2.74.41-.94.27-1.71.63-2.32 1.06l-3.29-.39 1.76-14.32h15.11v3.12h-12.16l-1.02 8.58h.17c.6-.47 1.34-.86 2.24-1.18.9-.31 1.84-.46 2.82-.46 1.78 0 3.36.42 4.75 1.27 1.41.85 2.5 2 3.3 3.47s1.21 3.14 1.21 5.03c0 1.85-.42 3.51-1.25 4.97a9.2 9.2 0 0 1-3.41 3.44c-1.45.83-3.1 1.25-4.95 1.25"/><mask id="a" fill="#fff"><path d="M1007.52 467.715c91.22 203.384 1 441.89-201.506 532.715-202.51 90.83-440.625-.41-531.845-203.798-91.221-203.384-1.002-441.89 201.508-532.718 202.509-90.828 440.625.417 531.843 203.801M390.144 744.616c62.369 139.056 225.17 201.44 363.629 139.34 138.458-62.1 200.141-225.169 137.773-364.224-62.368-139.056-225.17-201.441-363.628-139.341-138.459 62.1-200.142 225.169-137.774 364.225"/></mask><path stroke="#fff" stroke-width="4" d="M1007.52 467.715c91.22 203.384 1 441.89-201.506 532.715-202.51 90.83-440.625-.41-531.845-203.798-91.221-203.384-1.002-441.89 201.508-532.718 202.509-90.828 440.625.417 531.843 203.801ZM390.144 744.616c62.369 139.056 225.17 201.44 363.629 139.34 138.458-62.1 200.141-225.169 137.773-364.224-62.368-139.056-225.17-201.441-363.628-139.341-138.459 62.1-200.142 225.169-137.774 364.225Z" mask="url(#a)"/><path stroke="#dbdbdb" stroke-width="2" d="M998.005 950.517c-44.486 50.513-99.084 91.003-160.218 118.833A474.4 474.4 0 0 1 643.252 1112a474.6 474.6 0 0 1-194.888-40.99c-61.366-27.31-116.303-67.34-161.212-117.468-44.91-50.131-78.779-109.233-99.39-173.435a481.4 481.4 0 0 1-20.21-199.122c7.288-67.064 28.586-131.824 62.499-190.039 33.913-58.216 79.677-108.573 134.293-147.774M640.005 154.002a474.4 474.4 0 0 1 198.541 42.994c62.338 28.507 117.83 70.188 162.694 122.202 44.87 52.014 78.05 113.14 97.3 179.212a481.4 481.4 0 0 1 14.21 203.664"/><path stroke="#fff" stroke-width="2" d="m244.082 573.546 123.501 18.619M337.526 367.382l93.826 82.438M528.573 245.791l34.356 120.079M755.03 246.804l-36.023 119.59M944.984 370.09l-94.962 81.125M1038.115 576.513l-123.749 16.9M1004.862 800.515l-113.238-52.69M856.238 972.024l-66.77-105.55M638.181 1033.747l.9-124.894M421.202 968.914l68.286-104.577M274.78 796.587l113.987-51.053"/><circle cx="366" cy="243" r="9" fill="#dbdbdb"/><circle cx="1113" cy="697" r="9" fill="#dbdbdb"/><path stroke="#dbdbdb" stroke-linecap="round" stroke-linejoin="round" stroke-width="2" d="m967.095 950.586 31.683-.98-1.076 31.679M661.986 176.264l-22.548-22.279 23.693-21.056"/><circle cx="291.5" cy="1178.5" r="26.5" stroke="#dbdbdb" stroke-width="2"/><circle cx="387.5" cy="63.5" r="26.5" stroke="#dbdbdb" stroke-width="2"/></svg>