<svg width="935" height="1165" viewBox="0 0 935 1165" fill="none" xmlns="http://www.w3.org/2000/svg">
<g clip-path="url(#clip0_274_778)">
<path d="M832.277 855L719.563 802.328C719.563 802.328 736.326 766.442 741.528 727.661C747.74 681.357 741.528 647.786 741.528 647.786L865.224 631C865.224 631 872.738 698.721 865.224 747.341C857.709 795.961 832.277 855 832.277 855Z" fill="#002647"/>
<path d="M432.304 215V188.091H448.439V190.982H435.563V200.074H447.23V202.964H435.563V215H432.304ZM453.6 215V194.818H456.701V215H453.6ZM455.176 191.455C454.572 191.455 454.051 191.249 453.613 190.837C453.184 190.425 452.969 189.93 452.969 189.352C452.969 188.774 453.184 188.279 453.613 187.868C454.051 187.456 454.572 187.25 455.176 187.25C455.781 187.25 456.298 187.456 456.727 187.868C457.165 188.279 457.384 188.774 457.384 189.352C457.384 189.93 457.165 190.425 456.727 190.837C456.298 191.249 455.781 191.455 455.176 191.455ZM462.38 215V194.818H465.376V197.866H465.586C465.954 196.868 466.62 196.058 467.583 195.436C468.547 194.814 469.633 194.503 470.842 194.503C471.069 194.503 471.354 194.507 471.696 194.516C472.037 194.525 472.296 194.538 472.471 194.555V197.709C472.366 197.683 472.125 197.643 471.748 197.591C471.38 197.529 470.99 197.499 470.579 197.499C469.598 197.499 468.722 197.704 467.951 198.116C467.189 198.519 466.584 199.08 466.138 199.798C465.7 200.507 465.481 201.318 465.481 202.229V215H462.38ZM490.442 199.338L487.656 200.126C487.481 199.662 487.223 199.211 486.881 198.773C486.548 198.326 486.093 197.958 485.515 197.669C484.937 197.38 484.196 197.236 483.294 197.236C482.059 197.236 481.03 197.52 480.207 198.09C479.392 198.65 478.985 199.364 478.985 200.232C478.985 201.002 479.265 201.611 479.826 202.058C480.386 202.505 481.262 202.877 482.453 203.175L485.449 203.911C487.254 204.348 488.598 205.019 489.483 205.921C490.368 206.814 490.81 207.966 490.81 209.376C490.81 210.533 490.477 211.566 489.811 212.477C489.154 213.388 488.235 214.107 487.052 214.632C485.87 215.158 484.494 215.42 482.926 215.42C480.868 215.42 479.164 214.974 477.815 214.08C476.466 213.187 475.612 211.882 475.253 210.165L478.196 209.429C478.477 210.515 479.007 211.33 479.786 211.873C480.574 212.416 481.604 212.688 482.874 212.688C484.319 212.688 485.467 212.381 486.316 211.768C487.175 211.146 487.604 210.401 487.604 209.534C487.604 208.833 487.359 208.246 486.868 207.773C486.378 207.292 485.624 206.933 484.608 206.696L481.245 205.908C479.396 205.47 478.039 204.791 477.171 203.871C476.313 202.943 475.884 201.782 475.884 200.389C475.884 199.25 476.203 198.243 476.843 197.367C477.491 196.491 478.371 195.804 479.484 195.304C480.605 194.805 481.875 194.555 483.294 194.555C485.291 194.555 486.859 194.993 487.998 195.869C489.146 196.745 489.96 197.902 490.442 199.338ZM504.255 194.818V197.446H493.796V194.818H504.255ZM496.844 189.983H499.945V209.219C499.945 210.095 500.072 210.752 500.326 211.19C500.589 211.619 500.922 211.908 501.325 212.057C501.736 212.197 502.17 212.267 502.625 212.267C502.967 212.267 503.247 212.25 503.466 212.214C503.685 212.171 503.86 212.136 503.992 212.109L504.622 214.895C504.412 214.974 504.119 215.053 503.742 215.131C503.365 215.219 502.888 215.263 502.31 215.263C501.434 215.263 500.576 215.074 499.735 214.698C498.903 214.321 498.211 213.747 497.659 212.977C497.116 212.206 496.844 211.233 496.844 210.06V189.983ZM420.824 235.982V233.091H441.006V235.982H432.544V260H429.286V235.982H420.824ZM443.519 260V239.818H446.514V242.866H446.725C447.092 241.868 447.758 241.058 448.722 240.436C449.685 239.814 450.771 239.503 451.98 239.503C452.208 239.503 452.493 239.507 452.834 239.516C453.176 239.525 453.434 239.538 453.61 239.555V242.709C453.504 242.683 453.264 242.643 452.887 242.591C452.519 242.529 452.129 242.499 451.717 242.499C450.736 242.499 449.86 242.704 449.09 243.116C448.328 243.519 447.723 244.08 447.276 244.798C446.838 245.507 446.619 246.318 446.619 247.229V260H443.519ZM463.224 260.473C461.945 260.473 460.785 260.232 459.742 259.75C458.7 259.26 457.872 258.555 457.259 257.635C456.646 256.706 456.339 255.585 456.339 254.271C456.339 253.115 456.567 252.178 457.022 251.46C457.478 250.732 458.087 250.163 458.849 249.751C459.611 249.34 460.452 249.033 461.372 248.832C462.3 248.621 463.233 248.455 464.17 248.332C465.396 248.175 466.391 248.056 467.153 247.978C467.924 247.89 468.484 247.746 468.835 247.544C469.194 247.343 469.373 246.992 469.373 246.493V246.388C469.373 245.091 469.019 244.084 468.309 243.366C467.608 242.647 466.544 242.288 465.116 242.288C463.636 242.288 462.475 242.612 461.634 243.261C460.793 243.909 460.202 244.601 459.86 245.337L456.917 244.286C457.443 243.059 458.144 242.104 459.02 241.421C459.904 240.729 460.868 240.247 461.91 239.976C462.961 239.696 463.995 239.555 465.011 239.555C465.659 239.555 466.404 239.634 467.245 239.792C468.094 239.941 468.913 240.252 469.702 240.725C470.499 241.198 471.16 241.912 471.686 242.866C472.211 243.821 472.474 245.1 472.474 246.703V260H469.373V257.267H469.216C469.005 257.705 468.655 258.174 468.164 258.673C467.674 259.172 467.021 259.597 466.207 259.947C465.392 260.298 464.398 260.473 463.224 260.473ZM463.697 257.688C464.923 257.688 465.957 257.447 466.798 256.965C467.648 256.483 468.287 255.861 468.716 255.099C469.154 254.337 469.373 253.536 469.373 252.695V249.857C469.242 250.014 468.953 250.159 468.506 250.29C468.068 250.413 467.56 250.522 466.982 250.619C466.413 250.706 465.856 250.785 465.313 250.855C464.779 250.916 464.345 250.969 464.012 251.013C463.207 251.118 462.453 251.289 461.753 251.525C461.061 251.753 460.5 252.099 460.071 252.563C459.65 253.019 459.44 253.641 459.44 254.429C459.44 255.506 459.839 256.321 460.636 256.873C461.442 257.416 462.462 257.688 463.697 257.688ZM486.333 260.42C484.441 260.42 482.811 259.974 481.445 259.08C480.078 258.187 479.027 256.956 478.292 255.388C477.556 253.82 477.188 252.029 477.188 250.014C477.188 247.964 477.564 246.156 478.318 244.588C479.08 243.011 480.14 241.78 481.497 240.896C482.864 240.002 484.458 239.555 486.28 239.555C487.699 239.555 488.978 239.818 490.117 240.344C491.256 240.869 492.188 241.605 492.915 242.551C493.642 243.497 494.094 244.601 494.269 245.862H491.168C490.931 244.942 490.406 244.128 489.591 243.418C488.785 242.7 487.699 242.341 486.333 242.341C485.124 242.341 484.064 242.656 483.153 243.287C482.251 243.909 481.546 244.789 481.038 245.928C480.538 247.058 480.289 248.385 480.289 249.909C480.289 251.468 480.534 252.826 481.024 253.982C481.524 255.138 482.225 256.036 483.127 256.676C484.038 257.315 485.106 257.635 486.333 257.635C487.139 257.635 487.87 257.495 488.527 257.214C489.184 256.934 489.74 256.531 490.196 256.006C490.651 255.48 490.975 254.849 491.168 254.114H494.269C494.094 255.305 493.66 256.378 492.968 257.333C492.285 258.279 491.378 259.032 490.248 259.593C489.127 260.145 487.822 260.42 486.333 260.42ZM501.692 252.642L501.64 248.805H502.271L511.1 239.818H514.937L505.529 249.331H505.266L501.692 252.642ZM498.802 260V233.091H501.903V260H498.802ZM511.626 260L503.742 250.014L505.95 247.859L515.567 260H511.626Z" fill="#717171"/>
<path d="M592.445 704V677.091H595.704V689.074H610.052V677.091H613.31V704H610.052V691.964H595.704V704H592.445ZM627.875 704.42C625.931 704.42 624.253 703.991 622.843 703.133C621.441 702.266 620.36 701.057 619.598 699.506C618.844 697.947 618.468 696.134 618.468 694.067C618.468 692 618.844 690.178 619.598 688.601C620.36 687.015 621.42 685.78 622.777 684.896C624.144 684.002 625.738 683.555 627.56 683.555C628.611 683.555 629.649 683.731 630.674 684.081C631.699 684.431 632.632 685.001 633.473 685.789C634.313 686.569 634.984 687.602 635.483 688.89C635.982 690.178 636.232 691.763 636.232 693.646V694.96H620.675V692.28H633.078C633.078 691.141 632.851 690.125 632.395 689.232C631.948 688.338 631.309 687.633 630.477 687.116C629.653 686.599 628.681 686.341 627.56 686.341C626.325 686.341 625.256 686.647 624.354 687.261C623.461 687.865 622.773 688.653 622.291 689.626C621.809 690.598 621.568 691.64 621.568 692.753V694.54C621.568 696.064 621.831 697.356 622.357 698.416C622.891 699.467 623.631 700.268 624.577 700.82C625.523 701.363 626.623 701.635 627.875 701.635C628.69 701.635 629.426 701.521 630.083 701.293C630.748 701.057 631.322 700.706 631.804 700.242C632.286 699.769 632.658 699.182 632.921 698.482L635.916 699.322C635.601 700.339 635.071 701.232 634.327 702.003C633.582 702.765 632.662 703.361 631.567 703.79C630.472 704.21 629.242 704.42 627.875 704.42ZM646.888 704.473C645.609 704.473 644.448 704.232 643.406 703.75C642.363 703.26 641.536 702.555 640.923 701.635C640.309 700.706 640.003 699.585 640.003 698.271C640.003 697.115 640.231 696.178 640.686 695.46C641.141 694.732 641.75 694.163 642.512 693.751C643.274 693.34 644.115 693.033 645.035 692.832C645.964 692.621 646.896 692.455 647.834 692.332C649.06 692.175 650.054 692.056 650.816 691.978C651.587 691.89 652.148 691.746 652.498 691.544C652.857 691.343 653.037 690.992 653.037 690.493V690.388C653.037 689.091 652.682 688.084 651.973 687.366C651.272 686.647 650.208 686.288 648.78 686.288C647.299 686.288 646.139 686.612 645.298 687.261C644.457 687.909 643.866 688.601 643.524 689.337L640.581 688.286C641.106 687.059 641.807 686.104 642.683 685.421C643.568 684.729 644.531 684.247 645.574 683.976C646.625 683.696 647.659 683.555 648.675 683.555C649.323 683.555 650.067 683.634 650.908 683.792C651.758 683.941 652.577 684.252 653.365 684.725C654.162 685.198 654.824 685.912 655.349 686.866C655.875 687.821 656.138 689.1 656.138 690.703V704H653.037V701.267H652.879C652.669 701.705 652.319 702.174 651.828 702.673C651.338 703.172 650.685 703.597 649.87 703.947C649.056 704.298 648.061 704.473 646.888 704.473ZM647.361 701.688C648.587 701.688 649.621 701.447 650.462 700.965C651.311 700.483 651.951 699.861 652.38 699.099C652.818 698.337 653.037 697.536 653.037 696.695V693.857C652.905 694.014 652.616 694.159 652.17 694.29C651.732 694.413 651.224 694.522 650.646 694.619C650.076 694.706 649.52 694.785 648.977 694.855C648.443 694.916 648.009 694.969 647.676 695.013C646.87 695.118 646.117 695.289 645.416 695.525C644.724 695.753 644.164 696.099 643.734 696.563C643.314 697.019 643.104 697.641 643.104 698.429C643.104 699.506 643.502 700.321 644.299 700.873C645.105 701.416 646.126 701.688 647.361 701.688ZM669.418 704.42C667.736 704.42 666.252 703.996 664.964 703.146C663.676 702.288 662.669 701.079 661.942 699.52C661.215 697.952 660.851 696.099 660.851 693.962C660.851 691.842 661.215 690.002 661.942 688.443C662.669 686.884 663.681 685.68 664.977 684.83C666.274 683.98 667.771 683.555 669.471 683.555C670.785 683.555 671.823 683.774 672.585 684.212C673.356 684.642 673.942 685.132 674.345 685.684C674.757 686.227 675.077 686.674 675.305 687.024H675.567V677.091H678.668V704H675.672V700.899H675.305C675.077 701.267 674.753 701.731 674.332 702.292C673.912 702.844 673.312 703.339 672.532 703.777C671.753 704.206 670.715 704.42 669.418 704.42ZM669.839 701.635C671.082 701.635 672.134 701.311 672.992 700.663C673.85 700.006 674.503 699.099 674.95 697.943C675.396 696.778 675.62 695.433 675.62 693.909C675.62 692.402 675.401 691.084 674.963 689.954C674.525 688.815 673.877 687.931 673.018 687.3C672.16 686.661 671.1 686.341 669.839 686.341C668.525 686.341 667.43 686.678 666.554 687.353C665.687 688.018 665.034 688.925 664.596 690.072C664.167 691.211 663.952 692.49 663.952 693.909C663.952 695.346 664.171 696.651 664.609 697.825C665.056 698.99 665.713 699.918 666.58 700.61C667.456 701.293 668.542 701.635 669.839 701.635ZM569.122 749V722.091H578.214C580.325 722.091 582.051 722.472 583.391 723.234C584.74 723.987 585.738 725.008 586.387 726.295C587.035 727.583 587.359 729.02 587.359 730.605C587.359 732.191 587.035 733.632 586.387 734.928C585.747 736.224 584.757 737.258 583.417 738.029C582.077 738.791 580.36 739.172 578.267 739.172H571.75V736.281H578.161C579.607 736.281 580.767 736.032 581.643 735.532C582.519 735.033 583.154 734.359 583.549 733.509C583.951 732.65 584.153 731.683 584.153 730.605C584.153 729.528 583.951 728.564 583.549 727.714C583.154 726.865 582.515 726.199 581.63 725.717C580.745 725.227 579.572 724.982 578.109 724.982H572.38V749H569.122ZM600.17 749.42C598.348 749.42 596.749 748.987 595.374 748.12C594.007 747.252 592.939 746.039 592.168 744.48C591.406 742.921 591.025 741.099 591.025 739.014C591.025 736.912 591.406 735.077 592.168 733.509C592.939 731.941 594.007 730.723 595.374 729.856C596.749 728.989 598.348 728.555 600.17 728.555C601.992 728.555 603.586 728.989 604.952 729.856C606.328 730.723 607.396 731.941 608.158 733.509C608.929 735.077 609.315 736.912 609.315 739.014C609.315 741.099 608.929 742.921 608.158 744.48C607.396 746.039 606.328 747.252 604.952 748.12C603.586 748.987 601.992 749.42 600.17 749.42ZM600.17 746.635C601.554 746.635 602.692 746.28 603.586 745.571C604.479 744.861 605.141 743.928 605.57 742.772C605.999 741.616 606.214 740.363 606.214 739.014C606.214 737.665 605.999 736.408 605.57 735.243C605.141 734.078 604.479 733.137 603.586 732.418C602.692 731.7 601.554 731.341 600.17 731.341C598.786 731.341 597.647 731.7 596.753 732.418C595.86 733.137 595.199 734.078 594.769 735.243C594.34 736.408 594.126 737.665 594.126 739.014C594.126 740.363 594.34 741.616 594.769 742.772C595.199 743.928 595.86 744.861 596.753 745.571C597.647 746.28 598.786 746.635 600.17 746.635ZM628.343 733.338L625.558 734.126C625.383 733.662 625.124 733.211 624.783 732.773C624.45 732.326 623.994 731.958 623.416 731.669C622.838 731.38 622.098 731.236 621.196 731.236C619.961 731.236 618.931 731.52 618.108 732.09C617.293 732.65 616.886 733.364 616.886 734.232C616.886 735.002 617.166 735.611 617.727 736.058C618.287 736.505 619.163 736.877 620.355 737.175L623.35 737.911C625.155 738.348 626.499 739.019 627.384 739.921C628.269 740.814 628.711 741.966 628.711 743.376C628.711 744.533 628.378 745.566 627.713 746.477C627.056 747.388 626.136 748.107 624.953 748.632C623.771 749.158 622.396 749.42 620.828 749.42C618.769 749.42 617.066 748.974 615.717 748.08C614.368 747.187 613.514 745.882 613.154 744.165L616.098 743.429C616.378 744.515 616.908 745.33 617.687 745.873C618.476 746.416 619.505 746.688 620.775 746.688C622.22 746.688 623.368 746.381 624.218 745.768C625.076 745.146 625.505 744.401 625.505 743.534C625.505 742.833 625.26 742.246 624.769 741.773C624.279 741.292 623.526 740.933 622.51 740.696L619.146 739.908C617.298 739.47 615.94 738.791 615.073 737.871C614.214 736.943 613.785 735.782 613.785 734.389C613.785 733.25 614.105 732.243 614.744 731.367C615.392 730.491 616.273 729.804 617.385 729.304C618.506 728.805 619.777 728.555 621.196 728.555C623.193 728.555 624.761 728.993 625.899 729.869C627.047 730.745 627.862 731.902 628.343 733.338ZM633.379 749V728.818H636.48V749H633.379ZM634.956 725.455C634.351 725.455 633.83 725.249 633.392 724.837C632.963 724.425 632.748 723.93 632.748 723.352C632.748 722.774 632.963 722.279 633.392 721.868C633.83 721.456 634.351 721.25 634.956 721.25C635.56 721.25 636.077 721.456 636.506 721.868C636.944 722.279 637.163 722.774 637.163 723.352C637.163 723.93 636.944 724.425 636.506 724.837C636.077 725.249 635.56 725.455 634.956 725.455ZM650.936 728.818V731.446H640.477V728.818H650.936ZM643.526 723.983H646.627V743.219C646.627 744.095 646.754 744.752 647.008 745.19C647.27 745.619 647.603 745.908 648.006 746.057C648.418 746.197 648.851 746.267 649.307 746.267C649.649 746.267 649.929 746.25 650.148 746.214C650.367 746.171 650.542 746.136 650.673 746.109L651.304 748.895C651.094 748.974 650.8 749.053 650.424 749.131C650.047 749.219 649.57 749.263 648.992 749.263C648.116 749.263 647.257 749.074 646.416 748.698C645.584 748.321 644.892 747.747 644.34 746.977C643.797 746.206 643.526 745.233 643.526 744.06V723.983ZM655.601 749V728.818H658.701V749H655.601ZM657.177 725.455C656.573 725.455 656.052 725.249 655.614 724.837C655.185 724.425 654.97 723.93 654.97 723.352C654.97 722.774 655.185 722.279 655.614 721.868C656.052 721.456 656.573 721.25 657.177 721.25C657.782 721.25 658.299 721.456 658.728 721.868C659.166 722.279 659.385 722.774 659.385 723.352C659.385 723.93 659.166 724.425 658.728 724.837C658.299 725.249 657.782 725.455 657.177 725.455ZM672.58 749.42C670.758 749.42 669.159 748.987 667.784 748.12C666.417 747.252 665.349 746.039 664.578 744.48C663.816 742.921 663.435 741.099 663.435 739.014C663.435 736.912 663.816 735.077 664.578 733.509C665.349 731.941 666.417 730.723 667.784 729.856C669.159 728.989 670.758 728.555 672.58 728.555C674.402 728.555 675.996 728.989 677.362 729.856C678.738 730.723 679.806 731.941 680.568 733.509C681.339 735.077 681.725 736.912 681.725 739.014C681.725 741.099 681.339 742.921 680.568 744.48C679.806 746.039 678.738 747.252 677.362 748.12C675.996 748.987 674.402 749.42 672.58 749.42ZM672.58 746.635C673.964 746.635 675.103 746.28 675.996 745.571C676.889 744.861 677.551 743.928 677.98 742.772C678.409 741.616 678.624 740.363 678.624 739.014C678.624 737.665 678.409 736.408 677.98 735.243C677.551 734.078 676.889 733.137 675.996 732.418C675.103 731.7 673.964 731.341 672.58 731.341C671.196 731.341 670.057 731.7 669.164 732.418C668.27 733.137 667.609 734.078 667.18 735.243C666.75 736.408 666.536 737.665 666.536 739.014C666.536 740.363 666.75 741.616 667.18 742.772C667.609 743.928 668.27 744.861 669.164 745.571C670.057 746.28 671.196 746.635 672.58 746.635ZM689.559 736.859V749H686.458V728.818H689.454V731.972H689.717C690.19 730.947 690.908 730.123 691.871 729.501C692.835 728.871 694.079 728.555 695.603 728.555C696.969 728.555 698.165 728.836 699.19 729.396C700.215 729.948 701.012 730.789 701.581 731.919C702.151 733.04 702.435 734.459 702.435 736.176V749H699.334V736.386C699.334 734.801 698.923 733.566 698.099 732.681C697.276 731.788 696.146 731.341 694.709 731.341C693.72 731.341 692.835 731.556 692.055 731.985C691.285 732.414 690.676 733.04 690.229 733.864C689.782 734.687 689.559 735.686 689.559 736.859Z" fill="#717171"/>
<path d="M155.605 279V252.091H158.864V276.109H171.372V279H155.605ZM181.936 279.473C180.657 279.473 179.497 279.232 178.454 278.75C177.412 278.26 176.584 277.555 175.971 276.635C175.358 275.706 175.051 274.585 175.051 273.271C175.051 272.115 175.279 271.178 175.734 270.46C176.19 269.732 176.799 269.163 177.561 268.751C178.323 268.34 179.164 268.033 180.083 267.832C181.012 267.621 181.945 267.455 182.882 267.332C184.108 267.175 185.103 267.056 185.865 266.978C186.636 266.89 187.196 266.746 187.546 266.544C187.906 266.343 188.085 265.992 188.085 265.493V265.388C188.085 264.091 187.73 263.084 187.021 262.366C186.32 261.647 185.256 261.288 183.828 261.288C182.348 261.288 181.187 261.612 180.346 262.261C179.505 262.909 178.914 263.601 178.572 264.337L175.629 263.286C176.155 262.059 176.856 261.104 177.732 260.421C178.616 259.729 179.58 259.247 180.622 258.976C181.673 258.696 182.707 258.555 183.723 258.555C184.371 258.555 185.116 258.634 185.957 258.792C186.806 258.941 187.625 259.252 188.414 259.725C189.211 260.198 189.872 260.912 190.398 261.866C190.923 262.821 191.186 264.1 191.186 265.703V279H188.085V276.267H187.928C187.717 276.705 187.367 277.174 186.876 277.673C186.386 278.172 185.733 278.597 184.919 278.947C184.104 279.298 183.11 279.473 181.936 279.473ZM182.409 276.688C183.635 276.688 184.669 276.447 185.51 275.965C186.36 275.483 186.999 274.861 187.428 274.099C187.866 273.337 188.085 272.536 188.085 271.695V268.857C187.954 269.014 187.665 269.159 187.218 269.29C186.78 269.413 186.272 269.522 185.694 269.619C185.124 269.706 184.568 269.785 184.025 269.855C183.491 269.916 183.057 269.969 182.724 270.013C181.919 270.118 181.165 270.289 180.464 270.525C179.772 270.753 179.212 271.099 178.783 271.563C178.362 272.019 178.152 272.641 178.152 273.429C178.152 274.506 178.551 275.321 179.348 275.873C180.153 276.416 181.174 276.688 182.409 276.688ZM211.141 263.338L208.356 264.126C208.181 263.662 207.922 263.211 207.58 262.773C207.248 262.326 206.792 261.958 206.214 261.669C205.636 261.38 204.896 261.236 203.993 261.236C202.758 261.236 201.729 261.52 200.906 262.09C200.091 262.65 199.684 263.364 199.684 264.232C199.684 265.002 199.964 265.611 200.525 266.058C201.085 266.505 201.961 266.877 203.153 267.175L206.148 267.911C207.953 268.348 209.297 269.019 210.182 269.921C211.067 270.814 211.509 271.966 211.509 273.376C211.509 274.533 211.176 275.566 210.511 276.477C209.854 277.388 208.934 278.107 207.751 278.632C206.569 279.158 205.194 279.42 203.626 279.42C201.567 279.42 199.863 278.974 198.514 278.08C197.165 277.187 196.311 275.882 195.952 274.165L198.895 273.429C199.176 274.515 199.706 275.33 200.485 275.873C201.274 276.416 202.303 276.688 203.573 276.688C205.018 276.688 206.166 276.381 207.016 275.768C207.874 275.146 208.303 274.401 208.303 273.534C208.303 272.833 208.058 272.246 207.567 271.773C207.077 271.292 206.324 270.933 205.307 270.696L201.944 269.908C200.096 269.47 198.738 268.791 197.871 267.871C197.012 266.943 196.583 265.782 196.583 264.389C196.583 263.25 196.903 262.243 197.542 261.367C198.19 260.491 199.071 259.804 200.183 259.304C201.304 258.805 202.574 258.555 203.993 258.555C205.991 258.555 207.559 258.993 208.697 259.869C209.845 260.745 210.659 261.902 211.141 263.338ZM224.954 258.818V261.446H214.495V258.818H224.954ZM217.543 253.983H220.644V273.219C220.644 274.095 220.771 274.752 221.025 275.19C221.288 275.619 221.621 275.908 222.024 276.057C222.435 276.197 222.869 276.267 223.325 276.267C223.666 276.267 223.946 276.25 224.165 276.214C224.384 276.171 224.56 276.136 224.691 276.109L225.322 278.895C225.111 278.974 224.818 279.053 224.441 279.131C224.065 279.219 223.587 279.263 223.009 279.263C222.133 279.263 221.275 279.074 220.434 278.698C219.602 278.321 218.91 277.747 218.358 276.977C217.815 276.206 217.543 275.233 217.543 274.06V253.983ZM142.824 299.982V297.091H163.006V299.982H154.544V324H151.286V299.982H142.824ZM165.519 324V303.818H168.514V306.866H168.725C169.092 305.868 169.758 305.058 170.722 304.436C171.685 303.814 172.771 303.503 173.98 303.503C174.208 303.503 174.493 303.507 174.834 303.516C175.176 303.525 175.434 303.538 175.61 303.555V306.709C175.504 306.683 175.264 306.643 174.887 306.591C174.519 306.529 174.129 306.499 173.717 306.499C172.736 306.499 171.86 306.704 171.09 307.116C170.328 307.519 169.723 308.08 169.276 308.798C168.838 309.507 168.619 310.318 168.619 311.229V324H165.519ZM185.224 324.473C183.945 324.473 182.785 324.232 181.742 323.75C180.7 323.26 179.872 322.555 179.259 321.635C178.646 320.706 178.339 319.585 178.339 318.271C178.339 317.115 178.567 316.178 179.022 315.46C179.478 314.732 180.087 314.163 180.849 313.751C181.611 313.34 182.452 313.033 183.372 312.832C184.3 312.621 185.233 312.455 186.17 312.332C187.396 312.175 188.391 312.056 189.153 311.978C189.924 311.89 190.484 311.746 190.835 311.544C191.194 311.343 191.373 310.992 191.373 310.493V310.388C191.373 309.091 191.019 308.084 190.309 307.366C189.608 306.647 188.544 306.288 187.116 306.288C185.636 306.288 184.475 306.612 183.634 307.261C182.793 307.909 182.202 308.601 181.86 309.337L178.917 308.286C179.443 307.059 180.144 306.104 181.02 305.421C181.904 304.729 182.868 304.247 183.91 303.976C184.961 303.696 185.995 303.555 187.011 303.555C187.659 303.555 188.404 303.634 189.245 303.792C190.094 303.941 190.913 304.252 191.702 304.725C192.499 305.198 193.16 305.912 193.686 306.866C194.211 307.821 194.474 309.1 194.474 310.703V324H191.373V321.267H191.216C191.005 321.705 190.655 322.174 190.164 322.673C189.674 323.172 189.021 323.597 188.207 323.947C187.392 324.298 186.398 324.473 185.224 324.473ZM185.697 321.688C186.923 321.688 187.957 321.447 188.798 320.965C189.648 320.483 190.287 319.861 190.716 319.099C191.154 318.337 191.373 317.536 191.373 316.695V313.857C191.242 314.014 190.953 314.159 190.506 314.29C190.068 314.413 189.56 314.522 188.982 314.619C188.413 314.706 187.856 314.785 187.313 314.855C186.779 314.916 186.345 314.969 186.012 315.013C185.207 315.118 184.453 315.289 183.753 315.525C183.061 315.753 182.5 316.099 182.071 316.563C181.65 317.019 181.44 317.641 181.44 318.429C181.44 319.506 181.839 320.321 182.636 320.873C183.442 321.416 184.462 321.688 185.697 321.688ZM208.333 324.42C206.441 324.42 204.811 323.974 203.445 323.08C202.078 322.187 201.027 320.956 200.292 319.388C199.556 317.82 199.188 316.029 199.188 314.014C199.188 311.964 199.564 310.156 200.318 308.588C201.08 307.011 202.14 305.78 203.497 304.896C204.864 304.002 206.458 303.555 208.28 303.555C209.699 303.555 210.978 303.818 212.117 304.344C213.256 304.869 214.188 305.605 214.915 306.551C215.642 307.497 216.094 308.601 216.269 309.862H213.168C212.931 308.942 212.406 308.128 211.591 307.418C210.785 306.7 209.699 306.341 208.333 306.341C207.124 306.341 206.064 306.656 205.153 307.287C204.251 307.909 203.546 308.789 203.038 309.928C202.538 311.058 202.289 312.385 202.289 313.909C202.289 315.468 202.534 316.826 203.024 317.982C203.524 319.138 204.225 320.036 205.127 320.676C206.038 321.315 207.106 321.635 208.333 321.635C209.139 321.635 209.87 321.495 210.527 321.214C211.184 320.934 211.74 320.531 212.196 320.006C212.651 319.48 212.975 318.849 213.168 318.114H216.269C216.094 319.305 215.66 320.378 214.968 321.333C214.285 322.279 213.378 323.032 212.248 323.593C211.127 324.145 209.822 324.42 208.333 324.42ZM223.692 316.642L223.64 312.805H224.271L233.1 303.818H236.937L227.529 313.331H227.266L223.692 316.642ZM220.802 324V297.091H223.903V324H220.802ZM233.626 324L225.742 314.014L227.95 311.859L237.567 324H233.626Z" fill="#717171"/>
<path d="M465.063 364.398C462.923 364.398 461.1 363.815 459.595 362.651C458.089 361.476 456.938 359.777 456.143 357.551C455.347 355.316 454.95 352.617 454.95 349.455C454.95 346.311 455.347 343.626 456.143 341.401C456.948 339.166 458.103 337.461 459.609 336.287C461.124 335.103 462.942 334.511 465.063 334.511C467.185 334.511 468.998 335.103 470.504 336.287C472.019 337.461 473.174 339.166 473.97 341.401C474.775 343.626 475.177 346.311 475.177 349.455C475.177 352.617 474.779 355.316 473.984 357.551C473.188 359.777 472.038 361.476 470.532 362.651C469.026 363.815 467.204 364.398 465.063 364.398ZM465.063 361.273C467.185 361.273 468.832 360.25 470.007 358.205C471.181 356.159 471.768 353.242 471.768 349.455C471.768 346.936 471.498 344.791 470.958 343.02C470.428 341.249 469.661 339.9 468.657 338.972C467.663 338.044 466.465 337.58 465.063 337.58C462.961 337.58 461.318 338.616 460.134 340.69C458.951 342.755 458.359 345.676 458.359 349.455C458.359 351.973 458.624 354.114 459.154 355.875C459.685 357.636 460.447 358.976 461.441 359.895C462.445 360.813 463.652 361.273 465.063 361.273Z" fill="white"/>
<path d="M265.044 389.909V419H261.521V393.602H261.351L254.249 398.318V394.739L261.521 389.909H265.044ZM282.672 389.511C283.865 389.521 285.058 389.748 286.252 390.193C287.445 390.638 288.534 391.377 289.519 392.409C290.503 393.432 291.294 394.829 291.891 396.599C292.487 398.37 292.786 400.591 292.786 403.261C292.786 405.847 292.539 408.143 292.047 410.151C291.564 412.149 290.863 413.834 289.945 415.207C289.036 416.58 287.928 417.622 286.621 418.332C285.324 419.043 283.856 419.398 282.217 419.398C280.589 419.398 279.135 419.076 277.857 418.432C276.588 417.778 275.546 416.874 274.732 415.719C273.927 414.554 273.411 413.205 273.183 411.67H276.649C276.962 413.006 277.582 414.109 278.51 414.98C279.448 415.842 280.683 416.273 282.217 416.273C284.462 416.273 286.233 415.293 287.53 413.332C288.837 411.372 289.49 408.602 289.49 405.023H289.263C288.733 405.818 288.103 406.505 287.374 407.082C286.645 407.66 285.835 408.105 284.945 408.418C284.055 408.73 283.108 408.886 282.104 408.886C280.437 408.886 278.908 408.474 277.516 407.651C276.133 406.817 275.025 405.676 274.192 404.227C273.368 402.769 272.956 401.102 272.956 399.227C272.956 397.447 273.354 395.818 274.149 394.341C274.954 392.854 276.081 391.67 277.53 390.79C278.988 389.909 280.702 389.483 282.672 389.511ZM282.672 392.636C281.479 392.636 280.404 392.935 279.448 393.531C278.501 394.118 277.748 394.914 277.189 395.918C276.64 396.912 276.365 398.015 276.365 399.227C276.365 400.439 276.63 401.543 277.161 402.537C277.7 403.522 278.434 404.308 279.362 404.895C280.3 405.473 281.365 405.761 282.558 405.761C283.458 405.761 284.296 405.586 285.073 405.236C285.849 404.876 286.526 404.388 287.104 403.773C287.691 403.148 288.15 402.442 288.482 401.656C288.813 400.861 288.979 400.032 288.979 399.17C288.979 398.034 288.704 396.969 288.155 395.974C287.615 394.98 286.867 394.175 285.911 393.56C284.964 392.944 283.884 392.636 282.672 392.636ZM307.633 389.511C308.826 389.521 310.019 389.748 311.213 390.193C312.406 390.638 313.495 391.377 314.48 392.409C315.464 393.432 316.255 394.829 316.852 396.599C317.448 398.37 317.747 400.591 317.747 403.261C317.747 405.847 317.5 408.143 317.008 410.151C316.525 412.149 315.824 413.834 314.906 415.207C313.997 416.58 312.889 417.622 311.582 418.332C310.284 419.043 308.817 419.398 307.178 419.398C305.55 419.398 304.096 419.076 302.818 418.432C301.549 417.778 300.507 416.874 299.693 415.719C298.888 414.554 298.372 413.205 298.144 411.67H301.61C301.923 413.006 302.543 414.109 303.471 414.98C304.409 415.842 305.644 416.273 307.178 416.273C309.423 416.273 311.194 415.293 312.491 413.332C313.798 411.372 314.451 408.602 314.451 405.023H314.224C313.694 405.818 313.064 406.505 312.335 407.082C311.605 407.66 310.796 408.105 309.906 408.418C309.016 408.73 308.069 408.886 307.065 408.886C305.398 408.886 303.869 408.474 302.477 407.651C301.094 406.817 299.986 405.676 299.153 404.227C298.329 402.769 297.917 401.102 297.917 399.227C297.917 397.447 298.315 395.818 299.11 394.341C299.915 392.854 301.042 391.67 302.491 390.79C303.949 389.909 305.663 389.483 307.633 389.511ZM307.633 392.636C306.44 392.636 305.365 392.935 304.409 393.531C303.462 394.118 302.709 394.914 302.15 395.918C301.601 396.912 301.326 398.015 301.326 399.227C301.326 400.439 301.591 401.543 302.122 402.537C302.661 403.522 303.395 404.308 304.323 404.895C305.261 405.473 306.326 405.761 307.519 405.761C308.419 405.761 309.257 405.586 310.034 405.236C310.81 404.876 311.487 404.388 312.065 403.773C312.652 403.148 313.111 402.442 313.443 401.656C313.774 400.861 313.94 400.032 313.94 399.17C313.94 398.034 313.665 396.969 313.116 395.974C312.576 394.98 311.828 394.175 310.872 393.56C309.925 392.944 308.845 392.636 307.633 392.636Z" fill="white"/>
<path d="M136.947 534.909V564H133.424V538.602H133.253L126.151 543.318V539.739L133.424 534.909H136.947ZM154.631 564.398C152.68 564.398 150.957 564.052 149.461 563.361C147.974 562.66 146.814 561.699 145.981 560.477C145.147 559.246 144.735 557.845 144.745 556.273C144.735 555.042 144.977 553.905 145.469 552.864C145.962 551.812 146.634 550.937 147.486 550.236C148.348 549.526 149.309 549.076 150.37 548.886V548.716C148.978 548.356 147.87 547.575 147.046 546.372C146.222 545.16 145.815 543.782 145.824 542.239C145.815 540.761 146.189 539.44 146.947 538.276C147.704 537.111 148.746 536.192 150.072 535.52C151.407 534.848 152.927 534.511 154.631 534.511C156.317 534.511 157.822 534.848 159.148 535.52C160.474 536.192 161.516 537.111 162.273 538.276C163.04 539.44 163.429 540.761 163.438 542.239C163.429 543.782 163.007 545.16 162.174 546.372C161.35 547.575 160.256 548.356 158.893 548.716V548.886C159.944 549.076 160.891 549.526 161.733 550.236C162.576 550.937 163.249 551.812 163.751 552.864C164.252 553.905 164.508 555.042 164.518 556.273C164.508 557.845 164.082 559.246 163.239 560.477C162.406 561.699 161.246 562.66 159.759 563.361C158.282 564.052 156.572 564.398 154.631 564.398ZM154.631 561.273C155.947 561.273 157.084 561.06 158.04 560.634C158.997 560.207 159.735 559.606 160.256 558.83C160.777 558.053 161.042 557.144 161.052 556.102C161.042 555.004 160.758 554.033 160.199 553.19C159.641 552.348 158.878 551.685 157.912 551.202C156.956 550.719 155.862 550.477 154.631 550.477C153.391 550.477 152.283 550.719 151.307 551.202C150.341 551.685 149.579 552.348 149.02 553.19C148.471 554.033 148.201 555.004 148.211 556.102C148.201 557.144 148.452 558.053 148.964 558.83C149.484 559.606 150.228 560.207 151.194 560.634C152.16 561.06 153.305 561.273 154.631 561.273ZM154.631 547.466C155.673 547.466 156.596 547.258 157.401 546.841C158.215 546.424 158.855 545.842 159.319 545.094C159.783 544.346 160.019 543.47 160.029 542.466C160.019 541.481 159.787 540.624 159.333 539.895C158.878 539.156 158.249 538.588 157.444 538.19C156.639 537.783 155.701 537.58 154.631 537.58C153.542 537.58 152.59 537.783 151.776 538.19C150.962 538.588 150.332 539.156 149.887 539.895C149.442 540.624 149.224 541.481 149.233 542.466C149.224 543.47 149.447 544.346 149.901 545.094C150.365 545.842 151.004 546.424 151.819 546.841C152.633 547.258 153.571 547.466 154.631 547.466ZM179.791 564.398C177.916 564.398 176.245 564.076 174.777 563.432C173.318 562.788 172.158 561.893 171.297 560.747C170.444 559.592 169.98 558.252 169.905 556.727H173.484C173.56 557.665 173.882 558.474 174.45 559.156C175.018 559.829 175.762 560.349 176.68 560.719C177.599 561.088 178.617 561.273 179.734 561.273C180.984 561.273 182.092 561.055 183.058 560.619C184.024 560.184 184.782 559.578 185.331 558.801C185.88 558.025 186.155 557.125 186.155 556.102C186.155 555.032 185.889 554.09 185.359 553.276C184.829 552.452 184.052 551.808 183.03 551.344C182.007 550.88 180.757 550.648 179.28 550.648H176.95V547.523H179.28C180.435 547.523 181.448 547.314 182.319 546.898C183.2 546.481 183.887 545.894 184.379 545.136C184.881 544.379 185.132 543.489 185.132 542.466C185.132 541.481 184.914 540.624 184.478 539.895C184.043 539.166 183.427 538.598 182.632 538.19C181.846 537.783 180.918 537.58 179.848 537.58C178.844 537.58 177.897 537.764 177.007 538.134C176.126 538.493 175.407 539.019 174.848 539.71C174.289 540.392 173.986 541.216 173.939 542.182H170.53C170.586 540.657 171.046 539.322 171.907 538.176C172.769 537.021 173.896 536.121 175.288 535.477C176.69 534.833 178.228 534.511 179.905 534.511C181.704 534.511 183.247 534.876 184.535 535.605C185.823 536.325 186.813 537.277 187.504 538.46C188.195 539.644 188.541 540.922 188.541 542.295C188.541 543.934 188.11 545.33 187.248 546.486C186.396 547.641 185.236 548.441 183.768 548.886V549.114C185.605 549.417 187.04 550.198 188.072 551.457C189.104 552.707 189.621 554.256 189.621 556.102C189.621 557.684 189.19 559.104 188.328 560.364C187.476 561.614 186.311 562.598 184.834 563.318C183.356 564.038 181.675 564.398 179.791 564.398Z" fill="white"/>
<path d="M113.376 721.909V751H109.853V725.602H109.683L102.581 730.318V726.739L109.853 721.909H113.376ZM121.743 751V748.443L131.345 737.932C132.472 736.701 133.4 735.631 134.129 734.722C134.858 733.803 135.398 732.941 135.748 732.136C136.108 731.322 136.288 730.47 136.288 729.58C136.288 728.557 136.042 727.671 135.55 726.923C135.067 726.175 134.404 725.598 133.561 725.19C132.718 724.783 131.771 724.58 130.72 724.58C129.603 724.58 128.627 724.812 127.794 725.276C126.97 725.73 126.331 726.369 125.876 727.193C125.431 728.017 125.209 728.983 125.209 730.091H121.856C121.856 728.386 122.249 726.89 123.035 725.602C123.821 724.314 124.891 723.311 126.246 722.591C127.609 721.871 129.139 721.511 130.834 721.511C132.538 721.511 134.049 721.871 135.365 722.591C136.681 723.311 137.713 724.281 138.461 725.503C139.21 726.724 139.584 728.083 139.584 729.58C139.584 730.65 139.389 731.696 139.001 732.719C138.622 733.732 137.96 734.864 137.013 736.114C136.075 737.354 134.773 738.869 133.106 740.659L126.572 747.648V747.875H140.095V751H121.743ZM144.655 745.034V742.136L157.439 721.909H159.541V726.398H158.121L148.461 741.682V741.909H165.677V745.034H144.655ZM158.348 751V744.153V742.804V721.909H161.7V751H158.348Z" fill="white"/>
<path d="M190.786 889.909V919H187.264V893.602H187.093L179.991 898.318V894.739L187.264 889.909H190.786ZM199.153 919V916.443L208.755 905.932C209.882 904.701 210.81 903.631 211.539 902.722C212.268 901.803 212.808 900.941 213.159 900.136C213.518 899.322 213.698 898.47 213.698 897.58C213.698 896.557 213.452 895.671 212.96 894.923C212.477 894.175 211.814 893.598 210.971 893.19C210.128 892.783 209.181 892.58 208.13 892.58C207.013 892.58 206.037 892.812 205.204 893.276C204.38 893.73 203.741 894.369 203.286 895.193C202.841 896.017 202.619 896.983 202.619 898.091H199.266C199.266 896.386 199.659 894.89 200.445 893.602C201.231 892.314 202.302 891.311 203.656 890.591C205.019 889.871 206.549 889.511 208.244 889.511C209.948 889.511 211.459 889.871 212.775 890.591C214.091 891.311 215.123 892.281 215.872 893.503C216.62 894.724 216.994 896.083 216.994 897.58C216.994 898.65 216.8 899.696 216.411 900.719C216.033 901.732 215.37 902.864 214.423 904.114C213.485 905.354 212.183 906.869 210.516 908.659L203.982 915.648V915.875H217.505V919H199.153ZM223.372 919V916.443L232.974 905.932C234.101 904.701 235.029 903.631 235.758 902.722C236.487 901.803 237.027 900.941 237.377 900.136C237.737 899.322 237.917 898.47 237.917 897.58C237.917 896.557 237.671 895.671 237.178 894.923C236.695 894.175 236.033 893.598 235.19 893.19C234.347 892.783 233.4 892.58 232.349 892.58C231.231 892.58 230.256 892.812 229.423 893.276C228.599 893.73 227.96 894.369 227.505 895.193C227.06 896.017 226.838 896.983 226.838 898.091H223.485C223.485 896.386 223.878 894.89 224.664 893.602C225.45 892.314 226.52 891.311 227.874 890.591C229.238 889.871 230.767 889.511 232.463 889.511C234.167 889.511 235.677 889.871 236.994 890.591C238.31 891.311 239.342 892.281 240.09 893.503C240.838 894.724 241.213 896.083 241.213 897.58C241.213 898.65 241.018 899.696 240.63 900.719C240.251 901.732 239.588 902.864 238.641 904.114C237.704 905.354 236.402 906.869 234.735 908.659L228.201 915.648V915.875H241.724V919H223.372Z" fill="white"/>
<path d="M357.031 998.511C358.225 998.521 359.418 998.748 360.611 999.193C361.804 999.638 362.893 1000.38 363.878 1001.41C364.863 1002.43 365.654 1003.83 366.25 1005.6C366.847 1007.37 367.145 1009.59 367.145 1012.26C367.145 1014.85 366.899 1017.14 366.406 1019.15C365.923 1021.15 365.223 1022.83 364.304 1024.21C363.395 1025.58 362.287 1026.62 360.98 1027.33C359.683 1028.04 358.215 1028.4 356.577 1028.4C354.948 1028.4 353.494 1028.08 352.216 1027.43C350.947 1026.78 349.905 1025.87 349.091 1024.72C348.286 1023.55 347.77 1022.2 347.543 1020.67H351.009C351.321 1022.01 351.941 1023.11 352.869 1023.98C353.807 1024.84 355.043 1025.27 356.577 1025.27C358.821 1025.27 360.592 1024.29 361.889 1022.33C363.196 1020.37 363.85 1017.6 363.85 1014.02H363.622C363.092 1014.82 362.462 1015.5 361.733 1016.08C361.004 1016.66 360.194 1017.11 359.304 1017.42C358.414 1017.73 357.467 1017.89 356.463 1017.89C354.797 1017.89 353.267 1017.47 351.875 1016.65C350.493 1015.82 349.385 1014.68 348.551 1013.23C347.727 1011.77 347.315 1010.1 347.315 1008.23C347.315 1006.45 347.713 1004.82 348.509 1003.34C349.314 1001.85 350.44 1000.67 351.889 999.79C353.348 998.909 355.062 998.483 357.031 998.511ZM357.031 1001.64C355.838 1001.64 354.763 1001.93 353.807 1002.53C352.86 1003.12 352.107 1003.91 351.548 1004.92C350.999 1005.91 350.725 1007.02 350.725 1008.23C350.725 1009.44 350.99 1010.54 351.52 1011.54C352.06 1012.52 352.794 1013.31 353.722 1013.89C354.659 1014.47 355.725 1014.76 356.918 1014.76C357.817 1014.76 358.655 1014.59 359.432 1014.24C360.208 1013.88 360.886 1013.39 361.463 1012.77C362.05 1012.15 362.51 1011.44 362.841 1010.66C363.172 1009.86 363.338 1009.03 363.338 1008.17C363.338 1007.03 363.064 1005.97 362.514 1004.97C361.975 1003.98 361.226 1003.18 360.27 1002.56C359.323 1001.94 358.244 1001.64 357.031 1001.64ZM382.049 1028.4C380.098 1028.4 378.375 1028.05 376.879 1027.36C375.392 1026.66 374.232 1025.7 373.399 1024.48C372.565 1023.25 372.153 1021.84 372.163 1020.27C372.153 1019.04 372.395 1017.91 372.887 1016.86C373.38 1015.81 374.052 1014.94 374.904 1014.24C375.766 1013.53 376.727 1013.08 377.788 1012.89V1012.72C376.396 1012.36 375.288 1011.57 374.464 1010.37C373.64 1009.16 373.233 1007.78 373.242 1006.24C373.233 1004.76 373.607 1003.44 374.364 1002.28C375.122 1001.11 376.164 1000.19 377.489 999.52C378.825 998.848 380.345 998.511 382.049 998.511C383.735 998.511 385.24 998.848 386.566 999.52C387.892 1000.19 388.934 1001.11 389.691 1002.28C390.458 1003.44 390.846 1004.76 390.856 1006.24C390.846 1007.78 390.425 1009.16 389.592 1010.37C388.768 1011.57 387.674 1012.36 386.311 1012.72V1012.89C387.362 1013.08 388.309 1013.53 389.151 1014.24C389.994 1014.94 390.667 1015.81 391.168 1016.86C391.67 1017.91 391.926 1019.04 391.936 1020.27C391.926 1021.84 391.5 1023.25 390.657 1024.48C389.824 1025.7 388.664 1026.66 387.177 1027.36C385.7 1028.05 383.99 1028.4 382.049 1028.4ZM382.049 1025.27C383.365 1025.27 384.502 1025.06 385.458 1024.63C386.415 1024.21 387.153 1023.61 387.674 1022.83C388.195 1022.05 388.46 1021.14 388.47 1020.1C388.46 1019 388.176 1018.03 387.617 1017.19C387.059 1016.35 386.296 1015.68 385.33 1015.2C384.374 1014.72 383.28 1014.48 382.049 1014.48C380.809 1014.48 379.701 1014.72 378.725 1015.2C377.759 1015.68 376.997 1016.35 376.438 1017.19C375.889 1018.03 375.619 1019 375.629 1020.1C375.619 1021.14 375.87 1022.05 376.382 1022.83C376.902 1023.61 377.646 1024.21 378.612 1024.63C379.578 1025.06 380.723 1025.27 382.049 1025.27ZM382.049 1011.47C383.091 1011.47 384.014 1011.26 384.819 1010.84C385.633 1010.42 386.273 1009.84 386.737 1009.09C387.201 1008.35 387.437 1007.47 387.447 1006.47C387.437 1005.48 387.205 1004.62 386.751 1003.89C386.296 1003.16 385.667 1002.59 384.862 1002.19C384.057 1001.78 383.119 1001.58 382.049 1001.58C380.96 1001.58 380.008 1001.78 379.194 1002.19C378.38 1002.59 377.75 1003.16 377.305 1003.89C376.86 1004.62 376.642 1005.48 376.651 1006.47C376.642 1007.47 376.864 1008.35 377.319 1009.09C377.783 1009.84 378.422 1010.42 379.237 1010.84C380.051 1011.26 380.989 1011.47 382.049 1011.47Z" fill="white"/>
<path d="M545.828 1031.4C544.634 1031.38 543.441 1031.15 542.248 1030.72C541.055 1030.28 539.966 1029.55 538.981 1028.51C537.996 1027.47 537.205 1026.07 536.609 1024.3C536.012 1022.52 535.714 1020.28 535.714 1017.59C535.714 1015.02 535.955 1012.73 536.438 1010.74C536.921 1008.75 537.622 1007.07 538.541 1005.7C539.459 1004.33 540.567 1003.29 541.864 1002.58C543.171 1001.87 544.644 1001.51 546.282 1001.51C547.911 1001.51 549.36 1001.84 550.629 1002.49C551.907 1003.14 552.949 1004.04 553.754 1005.19C554.559 1006.35 555.079 1007.68 555.316 1009.18H551.85C551.528 1007.87 550.903 1006.79 549.975 1005.93C549.047 1005.07 547.816 1004.64 546.282 1004.64C544.028 1004.64 542.253 1005.62 540.955 1007.58C539.668 1009.54 539.019 1012.29 539.009 1015.83H539.237C539.767 1015.02 540.397 1014.34 541.126 1013.77C541.864 1013.19 542.679 1012.75 543.569 1012.43C544.459 1012.12 545.401 1011.97 546.396 1011.97C548.062 1011.97 549.587 1012.38 550.97 1013.22C552.352 1014.04 553.46 1015.18 554.293 1016.64C555.127 1018.09 555.543 1019.75 555.543 1021.62C555.543 1023.42 555.141 1025.07 554.336 1026.57C553.531 1028.05 552.4 1029.24 550.941 1030.12C549.492 1030.99 547.788 1031.42 545.828 1031.4ZM545.828 1028.27C547.021 1028.27 548.091 1027.97 549.038 1027.38C549.994 1026.78 550.747 1025.98 551.296 1024.98C551.855 1023.97 552.134 1022.86 552.134 1021.62C552.134 1020.42 551.864 1019.33 551.325 1018.34C550.794 1017.35 550.061 1016.56 549.123 1015.97C548.195 1015.38 547.134 1015.09 545.941 1015.09C545.042 1015.09 544.204 1015.27 543.427 1015.63C542.65 1015.98 541.969 1016.46 541.382 1017.08C540.804 1017.7 540.349 1018.4 540.018 1019.2C539.686 1019.98 539.521 1020.81 539.521 1021.68C539.521 1022.84 539.791 1023.92 540.33 1024.92C540.88 1025.92 541.628 1026.73 542.575 1027.35C543.531 1027.96 544.615 1028.27 545.828 1028.27ZM562.038 1031L575.05 1005.26V1005.03H560.05V1001.91H578.686V1005.2L565.732 1031H562.038Z" fill="white"/>
<path d="M708.085 928.398C706.892 928.379 705.699 928.152 704.506 927.716C703.313 927.28 702.224 926.546 701.239 925.514C700.254 924.473 699.463 923.066 698.867 921.295C698.27 919.515 697.972 917.28 697.972 914.591C697.972 912.015 698.213 909.733 698.696 907.744C699.179 905.746 699.88 904.065 700.798 902.702C701.717 901.329 702.825 900.287 704.122 899.577C705.429 898.866 706.902 898.511 708.54 898.511C710.169 898.511 711.618 898.838 712.887 899.491C714.165 900.135 715.207 901.035 716.012 902.19C716.816 903.346 717.337 904.676 717.574 906.182H714.108C713.786 904.875 713.161 903.791 712.233 902.929C711.305 902.067 710.074 901.636 708.54 901.636C706.286 901.636 704.511 902.616 703.213 904.577C701.925 906.537 701.277 909.288 701.267 912.83H701.494C702.025 912.025 702.655 911.338 703.384 910.77C704.122 910.192 704.937 909.747 705.827 909.435C706.717 909.122 707.659 908.966 708.654 908.966C710.32 908.966 711.845 909.383 713.227 910.216C714.61 911.04 715.718 912.181 716.551 913.639C717.385 915.088 717.801 916.75 717.801 918.625C717.801 920.424 717.399 922.072 716.594 923.568C715.789 925.055 714.657 926.239 713.199 927.119C711.75 927.991 710.046 928.417 708.085 928.398ZM708.085 925.273C709.279 925.273 710.349 924.974 711.296 924.378C712.252 923.781 713.005 922.981 713.554 921.977C714.113 920.973 714.392 919.856 714.392 918.625C714.392 917.422 714.122 916.329 713.583 915.344C713.052 914.349 712.318 913.559 711.381 912.972C710.453 912.384 709.392 912.091 708.199 912.091C707.299 912.091 706.461 912.271 705.685 912.631C704.908 912.981 704.226 913.464 703.639 914.08C703.062 914.695 702.607 915.401 702.276 916.196C701.944 916.982 701.779 917.811 701.779 918.682C701.779 919.837 702.048 920.917 702.588 921.92C703.137 922.924 703.886 923.734 704.833 924.349C705.789 924.965 706.873 925.273 708.085 925.273ZM732.478 928.398C730.811 928.398 729.311 928.066 727.975 927.403C726.64 926.741 725.57 925.831 724.765 924.676C723.96 923.521 723.52 922.205 723.444 920.727H726.853C726.986 922.044 727.582 923.133 728.643 923.994C729.713 924.847 730.991 925.273 732.478 925.273C733.671 925.273 734.732 924.993 735.66 924.435C736.597 923.876 737.331 923.109 737.862 922.134C738.401 921.149 738.671 920.036 738.671 918.795C738.671 917.527 738.392 916.395 737.833 915.401C737.284 914.397 736.526 913.606 735.561 913.028C734.595 912.451 733.491 912.157 732.251 912.148C731.361 912.138 730.447 912.276 729.509 912.56C728.572 912.834 727.8 913.189 727.194 913.625L723.899 913.227L725.66 898.909H740.774V902.034H728.614L727.592 910.614H727.762C728.359 910.14 729.107 909.747 730.007 909.435C730.906 909.122 731.844 908.966 732.819 908.966C734.599 908.966 736.186 909.392 737.578 910.244C738.979 911.087 740.078 912.242 740.873 913.71C741.678 915.178 742.08 916.854 742.08 918.739C742.08 920.595 741.664 922.252 740.83 923.71C740.007 925.159 738.87 926.305 737.421 927.148C735.972 927.981 734.325 928.398 732.478 928.398Z" fill="white"/>
<path d="M787.263 753.398C785.597 753.398 784.096 753.066 782.76 752.403C781.425 751.741 780.355 750.831 779.55 749.676C778.745 748.521 778.305 747.205 778.229 745.727H781.638C781.771 747.044 782.367 748.133 783.428 748.994C784.498 749.847 785.777 750.273 787.263 750.273C788.456 750.273 789.517 749.993 790.445 749.435C791.383 748.876 792.117 748.109 792.647 747.134C793.187 746.149 793.456 745.036 793.456 743.795C793.456 742.527 793.177 741.395 792.618 740.401C792.069 739.397 791.312 738.606 790.346 738.028C789.38 737.451 788.277 737.157 787.036 737.148C786.146 737.138 785.232 737.276 784.295 737.56C783.357 737.834 782.585 738.189 781.979 738.625L778.684 738.227L780.445 723.909H795.559V727.034H783.4L782.377 735.614H782.547C783.144 735.14 783.892 734.747 784.792 734.435C785.691 734.122 786.629 733.966 787.604 733.966C789.384 733.966 790.971 734.392 792.363 735.244C793.764 736.087 794.863 737.242 795.658 738.71C796.463 740.178 796.866 741.854 796.866 743.739C796.866 745.595 796.449 747.252 795.616 748.71C794.792 750.159 793.655 751.305 792.206 752.148C790.758 752.981 789.11 753.398 787.263 753.398ZM812.338 753.398C810.463 753.398 808.791 753.076 807.324 752.432C805.865 751.788 804.705 750.893 803.844 749.747C802.991 748.592 802.527 747.252 802.451 745.727H806.031C806.107 746.665 806.429 747.474 806.997 748.156C807.565 748.829 808.309 749.349 809.227 749.719C810.146 750.088 811.164 750.273 812.281 750.273C813.531 750.273 814.639 750.055 815.605 749.619C816.571 749.184 817.328 748.578 817.878 747.801C818.427 747.025 818.701 746.125 818.701 745.102C818.701 744.032 818.436 743.09 817.906 742.276C817.376 741.452 816.599 740.808 815.576 740.344C814.554 739.88 813.304 739.648 811.826 739.648H809.497V736.523H811.826C812.982 736.523 813.995 736.314 814.866 735.898C815.747 735.481 816.434 734.894 816.926 734.136C817.428 733.379 817.679 732.489 817.679 731.466C817.679 730.481 817.461 729.624 817.025 728.895C816.59 728.166 815.974 727.598 815.179 727.19C814.393 726.783 813.465 726.58 812.395 726.58C811.391 726.58 810.444 726.764 809.554 727.134C808.673 727.493 807.953 728.019 807.395 728.71C806.836 729.392 806.533 730.216 806.486 731.182H803.076C803.133 729.657 803.593 728.322 804.454 727.176C805.316 726.021 806.443 725.121 807.835 724.477C809.237 723.833 810.775 723.511 812.451 723.511C814.251 723.511 815.794 723.876 817.082 724.605C818.37 725.325 819.36 726.277 820.051 727.46C820.742 728.644 821.088 729.922 821.088 731.295C821.088 732.934 820.657 734.33 819.795 735.486C818.943 736.641 817.783 737.441 816.315 737.886V738.114C818.152 738.417 819.587 739.198 820.619 740.457C821.651 741.707 822.167 743.256 822.167 745.102C822.167 746.684 821.737 748.104 820.875 749.364C820.023 750.614 818.858 751.598 817.38 752.318C815.903 753.038 814.222 753.398 812.338 753.398Z" fill="white"/>
<path d="M760.744 566.398C758.869 566.398 757.198 566.076 755.73 565.432C754.272 564.788 753.112 563.893 752.25 562.747C751.398 561.592 750.934 560.252 750.858 558.727H754.437C754.513 559.665 754.835 560.474 755.403 561.156C755.971 561.829 756.715 562.349 757.633 562.719C758.552 563.088 759.57 563.273 760.687 563.273C761.937 563.273 763.045 563.055 764.011 562.619C764.977 562.184 765.735 561.578 766.284 560.801C766.833 560.025 767.108 559.125 767.108 558.102C767.108 557.032 766.843 556.09 766.312 555.276C765.782 554.452 765.005 553.808 763.983 553.344C762.96 552.88 761.71 552.648 760.233 552.648H757.903V549.523H760.233C761.388 549.523 762.401 549.314 763.273 548.898C764.153 548.481 764.84 547.894 765.332 547.136C765.834 546.379 766.085 545.489 766.085 544.466C766.085 543.481 765.867 542.624 765.432 541.895C764.996 541.166 764.38 540.598 763.585 540.19C762.799 539.783 761.871 539.58 760.801 539.58C759.797 539.58 758.85 539.764 757.96 540.134C757.079 540.493 756.36 541.019 755.801 541.71C755.242 542.392 754.939 543.216 754.892 544.182H751.483C751.54 542.657 751.999 541.322 752.861 540.176C753.722 539.021 754.849 538.121 756.241 537.477C757.643 536.833 759.182 536.511 760.858 536.511C762.657 536.511 764.201 536.876 765.488 537.605C766.776 538.325 767.766 539.277 768.457 540.46C769.148 541.644 769.494 542.922 769.494 544.295C769.494 545.934 769.063 547.33 768.201 548.486C767.349 549.641 766.189 550.441 764.721 550.886V551.114C766.559 551.417 767.993 552.198 769.025 553.457C770.058 554.707 770.574 556.256 770.574 558.102C770.574 559.684 770.143 561.104 769.281 562.364C768.429 563.614 767.264 564.598 765.787 565.318C764.309 566.038 762.629 566.398 760.744 566.398ZM777.292 566L790.304 540.261V540.034H775.304V536.909H793.94V540.205L780.986 566H777.292Z" fill="white"/>
<path d="M636.173 388.909V418H632.65V392.602H632.48L625.378 397.318V393.739L632.65 388.909H636.173ZM643.858 412.034V409.136L656.642 388.909H658.744V393.398H657.324L647.665 408.682V408.909H664.88V412.034H643.858ZM657.551 418V411.153V409.804V388.909H660.903V418H657.551Z" fill="white"/>
<path d="M277.002 94.0938H270.78C270.666 93.2888 270.434 92.5739 270.084 91.9489C269.734 91.3144 269.284 90.7746 268.735 90.3295C268.185 89.8845 267.551 89.5436 266.831 89.3068C266.121 89.0701 265.349 88.9517 264.516 88.9517C263.01 88.9517 261.699 89.3258 260.581 90.0739C259.464 90.8125 258.597 91.892 257.982 93.3125C257.366 94.7235 257.058 96.4375 257.058 98.4545C257.058 100.528 257.366 102.271 257.982 103.682C258.607 105.093 259.478 106.158 260.595 106.878C261.713 107.598 263.005 107.957 264.473 107.957C265.297 107.957 266.059 107.848 266.76 107.631C267.47 107.413 268.1 107.096 268.649 106.679C269.199 106.253 269.653 105.737 270.013 105.131C270.382 104.525 270.638 103.833 270.78 103.057L277.002 103.085C276.841 104.42 276.438 105.708 275.794 106.949C275.16 108.18 274.303 109.283 273.223 110.259C272.153 111.224 270.875 111.991 269.388 112.56C267.911 113.118 266.239 113.398 264.374 113.398C261.779 113.398 259.459 112.811 257.413 111.636C255.378 110.462 253.768 108.762 252.584 106.537C251.41 104.312 250.823 101.617 250.823 98.4545C250.823 95.2822 251.419 92.5833 252.612 90.358C253.806 88.1326 255.425 86.4375 257.47 85.2727C259.516 84.0985 261.817 83.5114 264.374 83.5114C266.059 83.5114 267.622 83.7481 269.061 84.2216C270.51 84.6951 271.793 85.3864 272.911 86.2955C274.028 87.1951 274.937 88.2983 275.638 89.6051C276.348 90.9119 276.803 92.4081 277.002 94.0938ZM281.298 113V91.1818H287.35V113H281.298ZM284.338 88.3693C283.439 88.3693 282.667 88.071 282.023 87.4744C281.388 86.8684 281.071 86.1439 281.071 85.3011C281.071 84.4678 281.388 83.7528 282.023 83.1562C282.667 82.5502 283.439 82.2472 284.338 82.2472C285.238 82.2472 286.005 82.5502 286.639 83.1562C287.283 83.7528 287.605 84.4678 287.605 85.3011C287.605 86.1439 287.283 86.8684 286.639 87.4744C286.005 88.071 285.238 88.3693 284.338 88.3693ZM292.197 113V91.1818H298.063V94.9886H298.291C298.688 93.6345 299.356 92.6117 300.293 91.9205C301.231 91.2197 302.311 90.8693 303.532 90.8693C303.835 90.8693 304.162 90.8883 304.512 90.9261C304.863 90.964 305.17 91.0161 305.436 91.0824V96.4517C305.151 96.3665 304.758 96.2907 304.257 96.2244C303.755 96.1581 303.295 96.125 302.879 96.125C301.989 96.125 301.193 96.3191 300.492 96.7074C299.801 97.0862 299.252 97.6165 298.845 98.2983C298.447 98.9801 298.248 99.7661 298.248 100.656V113H292.197ZM317.406 113.426C315.172 113.426 313.249 112.953 311.639 112.006C310.039 111.049 308.808 109.723 307.946 108.028C307.094 106.333 306.668 104.383 306.668 102.176C306.668 99.9413 307.099 97.9811 307.96 96.2955C308.832 94.6004 310.067 93.2794 311.668 92.3324C313.268 91.3759 315.172 90.8977 317.378 90.8977C319.281 90.8977 320.948 91.2434 322.378 91.9347C323.808 92.6259 324.94 93.5966 325.773 94.8466C326.606 96.0966 327.065 97.5644 327.151 99.25H321.44C321.28 98.161 320.853 97.285 320.162 96.6222C319.48 95.9498 318.585 95.6136 317.477 95.6136C316.54 95.6136 315.721 95.8693 315.02 96.3807C314.329 96.8826 313.789 97.6165 313.401 98.5824C313.012 99.5483 312.818 100.718 312.818 102.091C312.818 103.483 313.008 104.667 313.387 105.642C313.775 106.617 314.319 107.361 315.02 107.872C315.721 108.384 316.54 108.639 317.477 108.639C318.169 108.639 318.789 108.497 319.338 108.213C319.897 107.929 320.356 107.517 320.716 106.977C321.085 106.428 321.327 105.77 321.44 105.003H327.151C327.056 106.67 326.601 108.137 325.787 109.406C324.982 110.666 323.869 111.651 322.449 112.361C321.029 113.071 319.348 113.426 317.406 113.426ZM345.016 103.71V91.1818H351.068V113H345.258V109.037H345.031C344.538 110.315 343.719 111.343 342.573 112.119C341.437 112.896 340.05 113.284 338.411 113.284C336.953 113.284 335.67 112.953 334.562 112.29C333.454 111.627 332.588 110.685 331.963 109.463C331.347 108.241 331.034 106.778 331.025 105.074V91.1818H337.076V103.994C337.086 105.282 337.431 106.3 338.113 107.048C338.795 107.796 339.709 108.17 340.855 108.17C341.584 108.17 342.266 108.005 342.9 107.673C343.534 107.332 344.046 106.83 344.434 106.168C344.832 105.505 345.026 104.686 345.016 103.71ZM361.959 83.9091V113H355.908V83.9091H361.959ZM373.028 113.412C371.636 113.412 370.395 113.17 369.306 112.688C368.217 112.195 367.355 111.471 366.721 110.514C366.096 109.548 365.784 108.346 365.784 106.906C365.784 105.694 366.006 104.676 366.451 103.852C366.896 103.028 367.502 102.366 368.269 101.864C369.036 101.362 369.908 100.983 370.883 100.727C371.868 100.472 372.9 100.292 373.98 100.188C375.248 100.055 376.271 99.9318 377.048 99.8182C377.824 99.6951 378.388 99.5152 378.738 99.2784C379.088 99.0417 379.264 98.6913 379.264 98.2273V98.142C379.264 97.2424 378.98 96.5464 378.411 96.054C377.853 95.5616 377.057 95.3153 376.025 95.3153C374.936 95.3153 374.07 95.5568 373.426 96.0398C372.782 96.5133 372.355 97.1098 372.147 97.8295L366.551 97.375C366.835 96.0492 367.393 94.9034 368.227 93.9375C369.06 92.9621 370.135 92.214 371.451 91.6932C372.777 91.1629 374.311 90.8977 376.053 90.8977C377.266 90.8977 378.426 91.0398 379.534 91.3239C380.651 91.608 381.641 92.0483 382.502 92.6449C383.373 93.2415 384.06 94.0085 384.562 94.946C385.064 95.8741 385.315 96.9867 385.315 98.2841V113H379.576V109.974H379.406C379.055 110.656 378.587 111.258 377.999 111.778C377.412 112.29 376.707 112.692 375.883 112.986C375.059 113.27 374.107 113.412 373.028 113.412ZM374.761 109.236C375.651 109.236 376.437 109.061 377.119 108.71C377.801 108.35 378.336 107.867 378.724 107.261C379.112 106.655 379.306 105.969 379.306 105.202V102.886C379.117 103.009 378.856 103.123 378.525 103.227C378.203 103.322 377.838 103.412 377.431 103.497C377.024 103.573 376.617 103.644 376.21 103.71C375.802 103.767 375.433 103.819 375.102 103.866C374.391 103.971 373.771 104.136 373.241 104.364C372.711 104.591 372.299 104.899 372.005 105.287C371.712 105.666 371.565 106.139 371.565 106.707C371.565 107.531 371.863 108.161 372.46 108.597C373.066 109.023 373.833 109.236 374.761 109.236ZM390.009 113V91.1818H395.876V94.9886H396.103C396.501 93.6345 397.168 92.6117 398.106 91.9205C399.043 91.2197 400.123 90.8693 401.345 90.8693C401.648 90.8693 401.974 90.8883 402.325 90.9261C402.675 90.964 402.983 91.0161 403.248 91.0824V96.4517C402.964 96.3665 402.571 96.2907 402.069 96.2244C401.567 96.1581 401.108 96.125 400.691 96.125C399.801 96.125 399.006 96.3191 398.305 96.7074C397.614 97.0862 397.064 97.6165 396.657 98.2983C396.259 98.9801 396.061 99.7661 396.061 100.656V113H390.009ZM426.061 113H415.748V83.9091H426.146C429.072 83.9091 431.591 84.4915 433.703 85.6562C435.814 86.8116 437.438 88.4735 438.575 90.642C439.721 92.8106 440.293 95.4053 440.293 98.4261C440.293 101.456 439.721 104.061 438.575 106.239C437.438 108.417 435.805 110.088 433.674 111.253C431.553 112.418 429.015 113 426.061 113ZM421.899 107.73H425.805C427.623 107.73 429.152 107.408 430.393 106.764C431.643 106.111 432.58 105.102 433.205 103.739C433.84 102.366 434.157 100.595 434.157 98.4261C434.157 96.2765 433.84 94.5199 433.205 93.1562C432.58 91.7926 431.648 90.7888 430.407 90.1449C429.167 89.5009 427.637 89.179 425.819 89.179H421.899V107.73ZM444.736 113V91.1818H450.787V113H444.736ZM447.776 88.3693C446.876 88.3693 446.104 88.071 445.46 87.4744C444.826 86.8684 444.509 86.1439 444.509 85.3011C444.509 84.4678 444.826 83.7528 445.46 83.1562C446.104 82.5502 446.876 82.2472 447.776 82.2472C448.675 82.2472 449.442 82.5502 450.077 83.1562C450.721 83.7528 451.043 84.4678 451.043 85.3011C451.043 86.1439 450.721 86.8684 450.077 87.4744C449.442 88.071 448.675 88.3693 447.776 88.3693ZM473.788 97.4034L468.248 97.7443C468.153 97.2708 467.95 96.8447 467.637 96.4659C467.325 96.0777 466.913 95.7699 466.401 95.5426C465.9 95.3059 465.298 95.1875 464.597 95.1875C463.66 95.1875 462.869 95.3864 462.225 95.7841C461.581 96.1723 461.259 96.6932 461.259 97.3466C461.259 97.8674 461.468 98.3078 461.884 98.6676C462.301 99.0275 463.016 99.3163 464.029 99.5341L467.978 100.33C470.099 100.765 471.681 101.466 472.722 102.432C473.764 103.398 474.285 104.667 474.285 106.239C474.285 107.669 473.864 108.923 473.021 110.003C472.187 111.082 471.042 111.925 469.583 112.531C468.134 113.128 466.463 113.426 464.569 113.426C461.681 113.426 459.38 112.825 457.666 111.622C455.961 110.41 454.962 108.762 454.668 106.679L460.62 106.366C460.8 107.247 461.236 107.92 461.927 108.384C462.618 108.838 463.504 109.065 464.583 109.065C465.644 109.065 466.496 108.862 467.14 108.455C467.793 108.038 468.125 107.503 468.134 106.849C468.125 106.3 467.893 105.85 467.438 105.5C466.984 105.14 466.283 104.866 465.336 104.676L461.558 103.923C459.427 103.497 457.841 102.759 456.799 101.707C455.767 100.656 455.251 99.3163 455.251 97.6875C455.251 96.286 455.63 95.0786 456.387 94.0653C457.154 93.0521 458.229 92.2708 459.612 91.7216C461.004 91.1723 462.632 90.8977 464.498 90.8977C467.254 90.8977 469.422 91.4801 471.004 92.6449C472.595 93.8097 473.523 95.3958 473.788 97.4034ZM483.578 106.722L483.592 99.4631H484.473L491.462 91.1818H498.408L489.019 102.148H487.584L483.578 106.722ZM478.095 113V83.9091H484.146V113H478.095ZM491.732 113L485.311 103.497L489.345 99.2216L498.82 113H491.732ZM510.748 113V83.9091H522.225C524.422 83.9091 526.297 84.3021 527.85 85.0881C529.413 85.8646 530.601 86.9678 531.416 88.3977C532.239 89.8182 532.651 91.4896 532.651 93.4119C532.651 95.3437 532.235 97.0057 531.401 98.3977C530.568 99.7803 529.361 100.841 527.779 101.58C526.207 102.318 524.304 102.688 522.069 102.688H514.384V97.7443H521.075C522.249 97.7443 523.224 97.5833 524.001 97.2614C524.777 96.9394 525.355 96.4564 525.734 95.8125C526.122 95.1686 526.316 94.3684 526.316 93.4119C526.316 92.446 526.122 91.6316 525.734 90.9688C525.355 90.3059 524.773 89.804 523.987 89.4631C523.21 89.1127 522.23 88.9375 521.046 88.9375H516.899V113H510.748ZM526.458 99.7614L533.688 113H526.899L519.825 99.7614H526.458ZM546.476 113.426C544.232 113.426 542.3 112.972 540.681 112.062C539.071 111.144 537.83 109.847 536.959 108.17C536.088 106.485 535.652 104.491 535.652 102.19C535.652 99.946 536.088 97.9763 536.959 96.2812C537.83 94.5862 539.056 93.2652 540.638 92.3182C542.229 91.3712 544.094 90.8977 546.235 90.8977C547.674 90.8977 549.014 91.1297 550.254 91.5938C551.504 92.0483 552.593 92.7348 553.521 93.6534C554.459 94.572 555.188 95.7273 555.709 97.1193C556.23 98.5019 556.49 100.121 556.49 101.977V103.639H538.067V99.8892H550.794C550.794 99.018 550.605 98.2462 550.226 97.5739C549.847 96.9015 549.322 96.3759 548.649 95.9972C547.986 95.6089 547.215 95.4148 546.334 95.4148C545.415 95.4148 544.601 95.6278 543.891 96.054C543.19 96.4706 542.641 97.0341 542.243 97.7443C541.845 98.4451 541.642 99.2263 541.632 100.088V103.653C541.632 104.733 541.831 105.666 542.229 106.452C542.636 107.238 543.209 107.844 543.948 108.27C544.686 108.696 545.562 108.909 546.575 108.909C547.248 108.909 547.863 108.814 548.422 108.625C548.981 108.436 549.459 108.152 549.857 107.773C550.254 107.394 550.557 106.93 550.766 106.381L556.362 106.75C556.078 108.095 555.496 109.269 554.615 110.273C553.744 111.267 552.617 112.044 551.235 112.602C549.861 113.152 548.275 113.426 546.476 113.426ZM574.857 121.182V109.506H574.672C574.388 110.112 573.985 110.713 573.465 111.31C572.953 111.897 572.286 112.384 571.462 112.773C570.647 113.161 569.653 113.355 568.479 113.355C566.822 113.355 565.321 112.929 563.976 112.077C562.641 111.215 561.58 109.951 560.794 108.284C560.018 106.608 559.629 104.553 559.629 102.119C559.629 99.6193 560.032 97.5407 560.837 95.8835C561.642 94.2169 562.712 92.9716 564.047 92.1477C565.392 91.3144 566.864 90.8977 568.465 90.8977C569.686 90.8977 570.704 91.1061 571.519 91.5227C572.342 91.9299 573.005 92.4413 573.507 93.0568C574.019 93.6629 574.407 94.2595 574.672 94.8466H574.928V91.1818H580.894V121.182H574.857ZM570.396 108.54C571.372 108.54 572.196 108.275 572.868 107.744C573.55 107.205 574.071 106.452 574.431 105.486C574.8 104.52 574.985 103.388 574.985 102.091C574.985 100.794 574.805 99.6667 574.445 98.7102C574.085 97.7538 573.564 97.0152 572.882 96.4943C572.2 95.9735 571.372 95.7131 570.396 95.7131C569.402 95.7131 568.564 95.983 567.882 96.5227C567.2 97.0625 566.684 97.8106 566.334 98.767C565.984 99.7235 565.808 100.831 565.808 102.091C565.808 103.36 565.984 104.482 566.334 105.457C566.694 106.423 567.21 107.181 567.882 107.73C568.564 108.27 569.402 108.54 570.396 108.54ZM599.743 103.71V91.1818H605.794V113H599.985V109.037H599.757C599.265 110.315 598.446 111.343 597.3 112.119C596.163 112.896 594.776 113.284 593.138 113.284C591.68 113.284 590.396 112.953 589.288 112.29C588.181 111.627 587.314 110.685 586.689 109.463C586.074 108.241 585.761 106.778 585.752 105.074V91.1818H591.803V103.994C591.812 105.282 592.158 106.3 592.84 107.048C593.521 107.796 594.435 108.17 595.581 108.17C596.31 108.17 596.992 108.005 597.627 107.673C598.261 107.332 598.772 106.83 599.161 106.168C599.558 105.505 599.753 104.686 599.743 103.71ZM620.578 113.426C618.333 113.426 616.401 112.972 614.782 112.062C613.172 111.144 611.932 109.847 611.061 108.17C610.189 106.485 609.754 104.491 609.754 102.19C609.754 99.946 610.189 97.9763 611.061 96.2812C611.932 94.5862 613.158 93.2652 614.739 92.3182C616.33 91.3712 618.196 90.8977 620.336 90.8977C621.775 90.8977 623.115 91.1297 624.356 91.5938C625.606 92.0483 626.695 92.7348 627.623 93.6534C628.561 94.572 629.29 95.7273 629.811 97.1193C630.331 98.5019 630.592 100.121 630.592 101.977V103.639H612.168V99.8892H624.896C624.896 99.018 624.706 98.2462 624.328 97.5739C623.949 96.9015 623.423 96.3759 622.751 95.9972C622.088 95.6089 621.316 95.4148 620.436 95.4148C619.517 95.4148 618.703 95.6278 617.992 96.054C617.292 96.4706 616.742 97.0341 616.345 97.7443C615.947 98.4451 615.743 99.2263 615.734 100.088V103.653C615.734 104.733 615.933 105.666 616.33 106.452C616.738 107.238 617.311 107.844 618.049 108.27C618.788 108.696 619.664 108.909 620.677 108.909C621.349 108.909 621.965 108.814 622.524 108.625C623.082 108.436 623.561 108.152 623.958 107.773C624.356 107.394 624.659 106.93 624.867 106.381L630.464 106.75C630.18 108.095 629.597 109.269 628.717 110.273C627.846 111.267 626.719 112.044 625.336 112.602C623.963 113.152 622.377 113.426 620.578 113.426ZM652.694 97.4034L647.154 97.7443C647.06 97.2708 646.856 96.8447 646.543 96.4659C646.231 96.0777 645.819 95.7699 645.308 95.5426C644.806 95.3059 644.204 95.1875 643.504 95.1875C642.566 95.1875 641.775 95.3864 641.132 95.7841C640.488 96.1723 640.166 96.6932 640.166 97.3466C640.166 97.8674 640.374 98.3078 640.791 98.6676C641.207 99.0275 641.922 99.3163 642.936 99.5341L646.884 100.33C649.006 100.765 650.587 101.466 651.629 102.432C652.67 103.398 653.191 104.667 653.191 106.239C653.191 107.669 652.77 108.923 651.927 110.003C651.094 111.082 649.948 111.925 648.489 112.531C647.041 113.128 645.369 113.426 643.475 113.426C640.587 113.426 638.286 112.825 636.572 111.622C634.867 110.41 633.868 108.762 633.575 106.679L639.526 106.366C639.706 107.247 640.142 107.92 640.833 108.384C641.525 108.838 642.41 109.065 643.489 109.065C644.55 109.065 645.402 108.862 646.046 108.455C646.7 108.038 647.031 107.503 647.041 106.849C647.031 106.3 646.799 105.85 646.345 105.5C645.89 105.14 645.189 104.866 644.242 104.676L640.464 103.923C638.333 103.497 636.747 102.759 635.705 101.707C634.673 100.656 634.157 99.3163 634.157 97.6875C634.157 96.286 634.536 95.0786 635.293 94.0653C636.061 93.0521 637.135 92.2708 638.518 91.7216C639.91 91.1723 641.539 90.8977 643.404 90.8977C646.16 90.8977 648.329 91.4801 649.91 92.6449C651.501 93.8097 652.429 95.3958 652.694 97.4034ZM668.607 91.1818V95.7273H655.467V91.1818H668.607ZM658.45 85.9545H664.502V106.295C664.502 106.854 664.587 107.29 664.757 107.602C664.928 107.905 665.164 108.118 665.467 108.241C665.78 108.365 666.14 108.426 666.547 108.426C666.831 108.426 667.115 108.402 667.399 108.355C667.683 108.298 667.901 108.256 668.053 108.227L669.004 112.73C668.701 112.825 668.275 112.934 667.726 113.057C667.177 113.189 666.509 113.27 665.723 113.298C664.265 113.355 662.986 113.161 661.888 112.716C660.799 112.271 659.951 111.58 659.345 110.642C658.739 109.705 658.441 108.521 658.45 107.091V85.9545ZM690.428 97.4034L684.889 97.7443C684.794 97.2708 684.59 96.8447 684.278 96.4659C683.965 96.0777 683.553 95.7699 683.042 95.5426C682.54 95.3059 681.939 95.1875 681.238 95.1875C680.301 95.1875 679.51 95.3864 678.866 95.7841C678.222 96.1723 677.9 96.6932 677.9 97.3466C677.9 97.8674 678.108 98.3078 678.525 98.6676C678.942 99.0275 679.657 99.3163 680.67 99.5341L684.619 100.33C686.74 100.765 688.321 101.466 689.363 102.432C690.405 103.398 690.926 104.667 690.926 106.239C690.926 107.669 690.504 108.923 689.661 110.003C688.828 111.082 687.682 111.925 686.224 112.531C684.775 113.128 683.104 113.426 681.21 113.426C678.321 113.426 676.02 112.825 674.306 111.622C672.602 110.41 671.603 108.762 671.309 106.679L677.261 106.366C677.441 107.247 677.876 107.92 678.568 108.384C679.259 108.838 680.144 109.065 681.224 109.065C682.284 109.065 683.137 108.862 683.781 108.455C684.434 108.038 684.766 107.503 684.775 106.849C684.766 106.3 684.534 105.85 684.079 105.5C683.624 105.14 682.924 104.866 681.977 104.676L678.198 103.923C676.068 103.497 674.481 102.759 673.44 101.707C672.408 100.656 671.891 99.3163 671.891 97.6875C671.891 96.286 672.27 95.0786 673.028 94.0653C673.795 93.0521 674.87 92.2708 676.252 91.7216C677.644 91.1723 679.273 90.8977 681.139 90.8977C683.894 90.8977 686.063 91.4801 687.644 92.6449C689.235 93.8097 690.163 95.3958 690.428 97.4034Z" fill="white"/>
<mask id="path-17-inside-1_274_778" fill="white">
<path d="M834.522 521.904C925.742 725.288 835.523 963.794 633.014 1054.62C430.504 1145.45 192.389 1054.21 101.169 850.822C9.94848 647.438 100.167 408.932 302.677 318.104C505.186 227.276 743.302 318.52 834.522 521.904ZM217.144 798.805C279.513 937.861 442.314 1000.25 580.773 938.146C719.231 876.046 780.914 712.977 718.546 573.921C656.178 434.865 493.376 372.48 354.918 434.58C216.459 496.68 154.776 659.749 217.144 798.805Z"/>
</mask>
<path d="M834.522 521.904C925.742 725.288 835.523 963.794 633.014 1054.62C430.504 1145.45 192.389 1054.21 101.169 850.822C9.94848 647.438 100.167 408.932 302.677 318.104C505.186 227.276 743.302 318.52 834.522 521.904ZM217.144 798.805C279.513 937.861 442.314 1000.25 580.773 938.146C719.231 876.046 780.914 712.977 718.546 573.921C656.178 434.865 493.376 372.48 354.918 434.58C216.459 496.68 154.776 659.749 217.144 798.805Z" stroke="white" stroke-width="4" mask="url(#path-17-inside-1_274_778)"/>
<line y1="-1" x2="124.897" y2="-1" transform="matrix(0.988826 0.149073 0.149073 -0.988826 71.2311 626.748)" stroke="white" stroke-width="2"/>
<line y1="-1" x2="124.897" y2="-1" transform="matrix(0.751227 0.660044 0.660044 -0.751227 165.186 420.822)" stroke="white" stroke-width="2"/>
<line y1="-1" x2="124.897" y2="-1" transform="matrix(0.27508 0.961421 0.961421 -0.27508 356.534 299.707)" stroke="white" stroke-width="2"/>
<line y1="-1" x2="124.897" y2="-1" transform="matrix(-0.288417 0.957505 0.957505 0.288417 582.987 301.281)" stroke="white" stroke-width="2"/>
<line y1="-1" x2="124.897" y2="-1" transform="matrix(-0.760329 0.649538 0.649538 0.760329 772.634 425.041)" stroke="white" stroke-width="2"/>
<line y1="-1" x2="124.897" y2="-1" transform="matrix(-0.990803 0.135314 0.135314 0.990803 865.254 631.693)" stroke="white" stroke-width="2"/>
<line y1="-1" x2="124.897" y2="-1" transform="matrix(-0.906653 -0.421878 -0.421878 0.906653 831.436 855.613)" stroke="white" stroke-width="2"/>
<line y1="-1" x2="124.897" y2="-1" transform="matrix(-0.5346 -0.845105 -0.845105 0.5346 682.393 1026.75)" stroke="white" stroke-width="2"/>
<line y1="-1" x2="124.897" y2="-1" transform="matrix(0.0072116 -0.999974 -0.999974 -0.0072116 464.182 1087.93)" stroke="white" stroke-width="2"/>
<line y1="-1" x2="124.897" y2="-1" transform="matrix(0.546733 -0.837307 -0.837307 -0.546733 247.365 1022.56)" stroke="white" stroke-width="2"/>
<line y1="-1" x2="124.897" y2="-1" transform="matrix(0.912643 -0.408758 -0.408758 -0.912643 101.372 849.865)" stroke="white" stroke-width="2"/>
</g>
<defs>
<clipPath id="clip0_274_778">
<rect width="935" height="1165" fill="white"/>
</clipPath>
</defs>
</svg>
