<svg width="972" height="448" viewBox="0 0 972 448" fill="none" xmlns="http://www.w3.org/2000/svg">
<path d="M87.3343 200.814L7.94753 295.423C3.55823 300.654 4.24054 308.453 9.4715 312.842L161.015 440.003C166.246 444.392 174.045 443.71 178.434 438.479L257.821 343.869C262.211 338.638 261.528 330.839 256.297 326.45L104.753 199.29C99.5224 194.9 91.7236 195.583 87.3343 200.814Z" fill="white" stroke="black"/>
<path d="M16.4981 304.184L29.9245 320.301L31.2515 318.719L27.7617 314.528L29.9679 311.898L34.7019 314.607L36.0289 313.026L17.8251 302.602L16.4981 304.184ZM21.5602 307.084L28.1458 310.858L26.4207 312.914L21.5602 307.084Z" fill="black"/>
<path d="M247.946 336.689L229.742 326.266L231.069 324.684L235.803 327.393L238.009 324.764L234.52 320.572L235.847 318.991L249.273 335.108L247.946 336.689ZM244.211 332.208L239.35 326.378L237.625 328.433L244.211 332.208Z" fill="black"/>
<path d="M137.691 320.984C139.221 321.729 143.446 323.118 145.304 320.904C147.693 318.057 146.224 314.669 143.061 312.015C140.847 310.157 138.703 309.748 136.357 309.084C133.858 308.377 131.229 308.22 128.642 308.001C125.322 307.719 118.651 307.702 118.651 307.702C118.651 307.702 119.825 314.269 120.679 317.49C121.345 320 121.956 322.561 123.086 324.899C124.148 327.095 124.922 329.135 127.136 330.993C130.299 333.647 133.891 334.505 136.28 331.658C138.138 329.444 136.036 325.525 135.037 324.147C134.986 323.565 135.302 323.83 135.618 324.096C137.883 326.535 138.516 327.066 140.148 328.975C141.781 330.884 144.464 334.752 144.464 334.752C145.158 332.64 147.812 329.477 149.772 328.426C149.772 328.426 145.496 326.456 143.333 325.179C141.17 323.903 140.537 323.372 137.742 321.565C137.425 321.3 137.109 321.035 137.691 320.984Z" fill="black"/>
<path d="M45.6593 325.959C46.4246 326.331 48.537 327.026 49.4659 325.919C50.6602 324.495 49.9258 322.801 48.3443 321.474C47.2373 320.545 46.1656 320.341 44.9922 320.009C43.7429 319.655 42.4286 319.577 41.1348 319.467C39.4749 319.326 36.1393 319.318 36.1393 319.318C36.1393 319.318 36.7266 322.601 37.1536 324.212C37.4865 325.467 37.7918 326.747 38.357 327.916C38.8878 329.014 39.275 330.034 40.3821 330.963C41.9636 332.29 43.7596 332.719 44.9539 331.296C45.8829 330.189 44.8322 328.229 44.3323 327.54C44.3068 327.249 44.465 327.382 44.6231 327.515C45.7556 328.735 46.0719 329 46.8881 329.954C47.7043 330.909 49.0459 332.843 49.0459 332.843C49.3931 331.787 50.7202 330.205 51.7 329.68C51.7 329.68 49.5622 328.695 48.4806 328.056C47.399 327.418 47.0827 327.153 45.6848 326.25C45.5266 326.117 45.3685 325.984 45.6593 325.959Z" fill="black"/>
<path d="M221.438 311.752C220.938 311.063 219.887 309.103 220.816 307.996C222.01 306.573 223.807 307.002 225.388 308.329C226.495 309.258 226.882 310.278 227.413 311.376C227.978 312.545 228.284 313.826 228.616 315.081C229.043 316.691 229.631 319.974 229.631 319.974C229.631 319.974 226.295 319.966 224.635 319.825C223.342 319.715 222.027 319.637 220.778 319.283C219.604 318.951 218.533 318.747 217.426 317.818C215.844 316.491 215.11 314.797 216.304 313.374C217.233 312.266 219.345 312.961 220.111 313.334C220.402 313.308 220.243 313.175 220.085 313.043C218.687 312.139 218.371 311.874 217.289 311.236C216.208 310.598 214.07 309.612 214.07 309.612C215.05 309.087 216.377 307.506 216.724 306.449C216.724 306.449 218.066 308.384 218.882 309.338C219.698 310.292 220.014 310.558 221.147 311.778C221.305 311.91 221.463 312.043 221.438 311.752Z" fill="black"/>
<path d="M187.447 116.182L80.4899 177.934C74.5762 181.348 72.55 188.91 75.9643 194.824L174.878 366.147C178.292 372.06 185.854 374.087 191.767 370.672L298.725 308.92C304.639 305.506 306.665 297.944 303.251 292.031L204.337 120.708C200.923 114.794 193.361 112.768 187.447 116.182Z" fill="white" stroke="black"/>
<path d="M86.4206 188.575C84.4396 189.719 83.7655 192.234 84.9092 194.215L85.9415 196.003L87.7294 194.971L86.6972 193.183C86.1253 192.193 86.4623 190.935 87.4528 190.363C88.4433 189.791 89.7011 190.128 90.273 191.119L91.3053 192.907C91.538 193.31 91.804 194.08 91.7529 194.508C92.0364 198.685 91.9713 202.548 92.1351 206.731L93.1673 208.519L96.7432 206.454L100.319 204.39L99.2867 202.602L98.2545 200.814L96.4666 201.846L97.4988 203.634L95.7109 204.666L94.1018 205.595C94.0727 201.838 93.8257 198.331 93.6993 194.576C93.8017 193.721 93.5588 192.681 93.0932 191.874L92.0609 190.086C90.9172 188.105 88.4016 187.431 86.4206 188.575Z" fill="black"/>
<path d="M292.793 298.28C294.774 297.136 295.448 294.62 294.304 292.639L293.272 290.851L291.484 291.884L292.516 293.671C293.088 294.662 292.751 295.92 291.761 296.492C290.77 297.064 289.512 296.726 288.941 295.736L287.908 293.948C287.675 293.545 287.41 292.774 287.461 292.347C287.177 288.17 287.242 284.307 287.078 280.124L286.046 278.336L282.47 280.4L278.895 282.465L279.927 284.253L280.959 286.041L282.747 285.008L281.715 283.221L283.503 282.188L285.112 281.259C285.141 285.016 285.388 288.524 285.514 292.279C285.412 293.134 285.655 294.174 286.12 294.98L287.153 296.768C288.296 298.749 290.812 299.423 292.793 298.28Z" fill="black"/>
<path d="M105.482 219.525C106.252 220.034 107.766 220.591 108.66 220.075C110.269 219.146 110.158 217.302 109.126 215.514C108.093 213.727 106.449 212.53 104.84 213.459C103.946 213.975 103.926 215.179 103.699 216.025C103.624 216.307 103.342 216.232 103.417 215.95C103.644 215.104 103.712 213.157 102.989 211.906C102.164 210.475 100.237 209.203 98.8071 210.029C97.3768 210.855 97.5151 213.159 98.3409 214.589C99.0635 215.841 100.783 216.755 101.629 216.982C101.911 217.057 101.836 217.339 101.554 217.264C100.708 217.037 99.6552 216.453 98.7612 216.969C97.1521 217.898 97.3659 219.92 98.3982 221.708C99.4305 223.496 100.971 224.513 102.581 223.584C103.475 223.068 103.749 221.479 103.694 220.558C103.769 220.276 103.873 220.454 103.976 220.633C104.623 222.167 104.829 222.524 105.27 223.7C105.71 224.876 106.31 227.153 106.31 227.153C106.997 226.279 108.785 225.247 109.885 225.088C109.885 225.088 108.214 223.431 107.415 222.462C106.617 221.492 106.411 221.135 105.406 219.807C105.303 219.629 105.2 219.45 105.482 219.525Z" fill="black"/>
<path d="M275.518 266.296C275.463 265.374 275.738 263.786 276.632 263.269C278.241 262.34 279.782 263.358 280.814 265.146C281.846 266.934 282.06 268.956 280.451 269.885C279.557 270.401 278.505 269.817 277.658 269.59C277.376 269.514 277.301 269.796 277.583 269.872C278.429 270.099 280.149 271.013 280.871 272.264C281.697 273.695 281.835 275.999 280.405 276.825C278.975 277.65 277.049 276.379 276.223 274.948C275.5 273.697 275.568 271.75 275.795 270.904C275.871 270.622 275.589 270.547 275.513 270.829C275.286 271.675 275.266 272.878 274.372 273.394C272.763 274.324 271.119 273.127 270.086 271.339C269.054 269.551 268.944 267.708 270.553 266.779C271.447 266.263 272.96 266.82 273.73 267.328C274.012 267.404 273.909 267.225 273.806 267.046C272.801 265.719 272.595 265.362 271.797 264.392C270.999 263.423 269.327 261.766 269.327 261.766C270.427 261.607 272.215 260.575 272.903 259.701C272.903 259.701 273.502 261.977 273.942 263.153C274.383 264.329 274.589 264.687 275.236 266.221C275.34 266.399 275.443 266.578 275.518 266.296Z" fill="black"/>
<path d="M156.504 181.963C158.045 182.98 161.072 184.094 162.86 183.061C166.078 181.203 165.857 177.517 163.792 173.941C161.728 170.365 158.44 167.973 155.221 169.831C153.433 170.863 153.393 173.27 152.939 174.962C152.788 175.526 152.224 175.375 152.375 174.811C152.829 173.119 152.965 169.226 151.52 166.723C149.868 163.862 146.016 161.319 143.155 162.971C140.295 164.622 140.571 169.23 142.223 172.091C143.668 174.594 147.108 176.422 148.8 176.876C149.364 177.027 149.213 177.591 148.648 177.44C146.956 176.986 144.851 175.818 143.063 176.85C139.845 178.708 140.273 182.752 142.337 186.328C144.402 189.904 147.484 191.939 150.702 190.081C152.49 189.049 153.039 185.871 152.929 184.028C153.08 183.463 153.286 183.821 153.493 184.179C154.787 187.246 155.2 187.961 156.081 190.313C156.962 192.665 158.16 197.218 158.16 197.218C159.535 195.47 163.111 193.406 165.312 193.089C165.312 193.089 161.968 189.775 160.372 187.835C158.775 185.896 158.363 185.181 156.353 182.527C156.147 182.169 155.94 181.812 156.504 181.963Z" fill="black"/>
<path d="M226.285 302.827C226.174 300.983 226.723 297.806 228.511 296.773C231.73 294.915 234.812 296.95 236.876 300.526C238.941 304.102 239.368 308.146 236.15 310.004C234.362 311.036 232.257 309.868 230.565 309.414C230.001 309.263 229.85 309.827 230.414 309.978C232.106 310.432 235.546 312.26 236.991 314.763C238.642 317.624 238.919 322.232 236.058 323.884C233.198 325.535 229.345 322.992 227.693 320.131C226.248 317.628 226.385 313.735 226.838 312.043C226.989 311.479 226.425 311.328 226.274 311.892C225.821 313.584 225.78 315.991 223.992 317.023C220.774 318.881 217.485 316.489 215.421 312.913C213.356 309.337 213.135 305.651 216.353 303.793C218.141 302.76 221.168 303.874 222.709 304.891C223.273 305.042 223.067 304.685 222.86 304.327C220.851 301.673 220.438 300.958 218.842 299.019C217.245 297.08 213.902 293.765 213.902 293.765C216.103 293.448 219.678 291.384 221.053 289.636C221.053 289.636 222.252 294.189 223.133 296.541C224.014 298.893 224.427 299.608 225.721 302.675C225.927 303.033 226.134 303.391 226.285 302.827Z" fill="black"/>
<path d="M358.837 112.477H235.333C228.504 112.477 222.969 118.012 222.969 124.841V322.667C222.969 329.496 228.504 335.031 235.333 335.031H358.837C365.665 335.031 371.201 329.496 371.201 322.667V124.841C371.201 118.012 365.665 112.477 358.837 112.477Z" fill="white" stroke="black"/>
<path d="M231.021 124.658V130.852V132.916H235.15C236.293 132.916 237.214 133.837 237.214 134.981V141.174C237.214 142.318 236.293 143.239 235.15 143.239C234.006 143.239 233.085 142.318 233.085 141.174V139.11H231.021V141.174C231.021 143.462 232.862 145.303 235.15 145.303C237.437 145.303 239.279 143.462 239.279 141.174V134.981C239.279 132.693 237.437 130.852 235.15 130.852H233.085V126.723H235.15H239.279V124.658H235.15H233.085H231.021Z" fill="black"/>
<path d="M363.149 322.851V316.658V314.593H359.02C357.876 314.593 356.955 313.672 356.955 312.529V306.335C356.955 305.191 357.876 304.271 359.02 304.271C360.163 304.271 361.084 305.191 361.084 306.335V308.4H363.149V306.335C363.149 304.048 361.307 302.206 359.02 302.206C356.732 302.206 354.891 304.048 354.891 306.335V312.529C354.891 314.816 356.732 316.658 359.02 316.658H361.084V320.787H359.02H354.891V322.851H359.02H361.084H363.149Z" fill="black"/>
<path d="M261.992 153.968C262.402 155.621 264.055 159.761 266.937 159.761C270.653 159.761 272.306 156.455 272.306 152.329C272.306 149.432 271.253 147.53 270.244 145.306C269.176 142.936 267.61 140.815 266.118 138.693C264.201 135.972 259.929 130.852 259.929 130.852C259.929 130.852 255.642 135.972 253.726 138.693C252.233 140.815 250.668 142.936 249.6 145.306C248.605 147.53 247.537 149.432 247.537 152.329C247.537 156.455 249.19 159.761 252.906 159.761C255.789 159.761 257.442 155.621 257.866 153.968C258.276 153.558 258.276 153.968 258.276 154.392C257.866 157.684 257.866 158.518 257.442 160.99C257.032 163.477 255.789 168.013 255.789 168.013C257.866 167.194 261.992 167.194 264.055 168.013C264.055 168.013 262.811 163.477 262.402 160.99C261.992 158.518 261.992 157.684 261.582 154.392C261.582 153.968 261.582 153.558 261.992 153.968Z" fill="black"/>
<path d="M336.314 153.968C336.724 155.621 338.377 159.761 341.259 159.761C344.975 159.761 346.629 156.455 346.629 152.329C346.629 149.432 345.575 147.53 344.566 145.306C343.498 142.936 341.932 140.815 340.44 138.693C338.523 135.972 334.251 130.852 334.251 130.852C334.251 130.852 329.965 135.972 328.048 138.693C326.556 140.815 324.99 142.936 323.922 145.306C322.927 147.53 321.859 149.432 321.859 152.329C321.859 156.455 323.513 159.761 327.229 159.761C330.111 159.761 331.764 155.621 332.188 153.968C332.598 153.558 332.598 153.968 332.598 154.392C332.188 157.684 332.188 158.518 331.764 160.99C331.355 163.477 330.111 168.013 330.111 168.013C332.188 167.194 336.314 167.194 338.377 168.013C338.377 168.013 337.134 163.477 336.724 160.99C336.314 158.518 336.314 157.684 335.905 154.392C335.905 153.968 335.905 153.558 336.314 153.968Z" fill="black"/>
<path d="M299.152 228.29C299.562 229.943 301.215 234.084 304.097 234.084C307.813 234.084 309.467 230.777 309.467 226.651C309.467 223.754 308.413 221.853 307.404 219.629C306.336 217.259 304.77 215.137 303.278 213.016C301.361 210.294 297.089 205.174 297.089 205.174C297.089 205.174 292.803 210.294 290.886 213.016C289.394 215.137 287.828 217.259 286.76 219.629C285.765 221.853 284.697 223.754 284.697 226.651C284.697 230.777 286.351 234.084 290.067 234.084C292.949 234.084 294.602 229.943 295.026 228.29C295.436 227.88 295.436 228.29 295.436 228.714C295.026 232.006 295.026 232.84 294.602 235.313C294.192 237.8 292.949 242.335 292.949 242.335C295.026 241.516 299.152 241.516 301.215 242.335C301.215 242.335 299.971 237.8 299.562 235.313C299.152 232.84 299.152 232.006 298.742 228.714C298.742 228.29 298.742 227.88 299.152 228.29Z" fill="black"/>
<path d="M261.992 293.542C262.402 291.889 264.055 287.748 266.937 287.748C270.653 287.748 272.306 291.055 272.306 295.181C272.306 298.078 271.253 299.98 270.244 302.203C269.176 304.573 267.61 306.695 266.118 308.816C264.201 311.538 259.929 316.658 259.929 316.658C259.929 316.658 255.642 311.538 253.726 308.816C252.233 306.695 250.668 304.573 249.6 302.203C248.605 299.98 247.537 298.078 247.537 295.181C247.537 291.055 249.19 287.748 252.906 287.748C255.789 287.748 257.442 291.889 257.866 293.542C258.276 293.952 258.276 293.542 258.276 293.118C257.866 289.826 257.866 288.992 257.442 286.52C257.032 284.032 255.789 279.497 255.789 279.497C257.866 280.316 261.992 280.316 264.055 279.497C264.055 279.497 262.811 284.032 262.402 286.52C261.992 288.992 261.992 289.826 261.582 293.118C261.582 293.542 261.582 293.952 261.992 293.542Z" fill="black"/>
<path d="M336.314 293.542C336.724 291.889 338.377 287.748 341.259 287.748C344.975 287.748 346.629 291.055 346.629 295.181C346.629 298.078 345.575 299.98 344.566 302.203C343.498 304.573 341.932 306.695 340.44 308.816C338.523 311.538 334.251 316.658 334.251 316.658C334.251 316.658 329.965 311.538 328.048 308.816C326.556 306.695 324.99 304.573 323.922 302.203C322.927 299.98 321.859 298.078 321.859 295.181C321.859 291.055 323.513 287.748 327.229 287.748C330.111 287.748 331.764 291.889 332.188 293.542C332.598 293.952 332.598 293.542 332.598 293.118C332.188 289.826 332.188 288.992 331.764 286.52C331.355 284.032 330.111 279.497 330.111 279.497C332.188 280.316 336.314 280.316 338.377 279.497C338.377 279.497 337.134 284.032 336.724 286.52C336.314 288.992 336.314 289.826 335.905 293.118C335.905 293.542 335.905 293.952 336.314 293.542Z" fill="black"/>
<path d="M236.181 160.993C236.387 161.819 237.213 163.883 238.658 163.883C240.516 163.883 241.342 162.232 241.342 160.167C241.342 158.722 240.81 157.77 240.31 156.657C239.778 155.473 238.993 154.416 238.245 153.354C237.286 151.992 235.149 149.432 235.149 149.432C235.149 149.432 233.011 151.992 232.052 153.354C231.304 154.416 230.52 155.473 229.987 156.657C229.488 157.77 228.955 158.722 228.955 160.167C228.955 162.232 229.781 163.883 231.639 163.883C233.084 163.883 233.91 161.819 234.116 160.993C234.323 160.786 234.323 160.993 234.323 161.199C234.116 162.851 234.116 163.264 233.91 164.503C233.703 165.741 233.084 168.012 233.084 168.012C234.116 167.599 236.181 167.599 237.213 168.012C237.213 168.012 236.594 165.741 236.387 164.503C236.181 163.264 236.181 162.851 235.974 161.199C235.974 160.993 235.974 160.786 236.181 160.993Z" fill="black"/>
<path d="M360.052 286.516C360.258 285.691 361.084 283.626 362.529 283.626C364.387 283.626 365.213 285.278 365.213 287.342C365.213 288.787 364.681 289.74 364.181 290.852C363.649 292.036 362.864 293.093 362.116 294.155C361.157 295.517 359.02 298.078 359.02 298.078C359.02 298.078 356.882 295.517 355.923 294.155C355.175 293.093 354.391 292.036 353.858 290.852C353.359 289.74 352.826 288.787 352.826 287.342C352.826 285.278 353.652 283.626 355.51 283.626C356.955 283.626 357.781 285.691 357.987 286.516C358.194 286.723 358.194 286.516 358.194 286.31C357.987 284.658 357.987 284.245 357.781 283.007C357.575 281.768 356.955 279.497 356.955 279.497C357.987 279.91 360.052 279.91 361.084 279.497C361.084 279.497 360.465 281.768 360.258 283.007C360.052 284.245 360.052 284.658 359.846 286.31C359.846 286.516 359.846 286.723 360.052 286.516Z" fill="black"/>
<path d="M843.767 107.807H720.263C713.434 107.807 707.898 113.342 707.898 120.171V317.997C707.898 324.826 713.434 330.362 720.263 330.362H843.767C850.595 330.362 856.131 324.826 856.131 317.997V120.171C856.131 113.342 850.595 107.807 843.767 107.807Z" fill="white" stroke="black"/>
<path d="M720.078 119.986C717.791 119.986 715.949 121.828 715.949 124.115V126.18H718.014V124.115C718.014 122.972 718.935 122.051 720.078 122.051C721.222 122.051 722.143 122.972 722.143 124.115V126.18C722.143 127.324 721.222 128.244 720.078 128.244H718.014V130.309H720.078C721.222 130.309 722.143 131.23 722.143 132.373V136.502C722.143 137.646 721.222 138.567 720.078 138.567C718.935 138.567 718.014 137.646 718.014 136.502V134.438H715.949V136.502C715.949 138.79 717.791 140.631 720.078 140.631C722.366 140.631 724.207 138.79 724.207 136.502V132.373C724.207 131.133 723.661 130.032 722.801 129.277C723.661 128.521 724.207 127.42 724.207 126.18V124.115C724.207 121.828 722.366 119.986 720.078 119.986Z" fill="black"/>
<path d="M843.949 318.18C846.237 318.18 848.078 316.339 848.078 314.051V311.987H846.014V314.051C846.014 315.195 845.093 316.116 843.949 316.116C842.806 316.116 841.885 315.195 841.885 314.051V311.987C841.885 310.843 842.806 309.922 843.949 309.922H846.014V307.858H843.949C842.806 307.858 841.885 306.937 841.885 305.793V301.664C841.885 300.52 842.806 299.6 843.949 299.6C845.093 299.6 846.014 300.52 846.014 301.664V303.729H848.078V301.664C848.078 299.377 846.237 297.535 843.949 297.535C841.662 297.535 839.82 299.377 839.82 301.664V305.793C839.82 307.033 840.367 308.134 841.227 308.89C840.367 309.646 839.82 310.747 839.82 311.987V314.051C839.82 316.339 841.662 318.18 843.949 318.18Z" fill="black"/>
<path d="M784.079 149.303C784.904 150.955 786.969 153.432 789.033 153.432C792.75 153.432 794.401 150.129 794.401 146C794.401 141.871 792.75 138.155 789.033 138.155C786.969 138.155 785.73 140.219 784.491 141.458C784.079 141.871 783.666 141.458 784.079 141.045C785.317 139.806 787.382 136.503 787.382 133.613C787.382 130.31 785.317 126.181 782.014 126.181C778.711 126.181 776.646 130.31 776.646 133.613C776.646 136.503 778.711 139.806 779.95 141.045C780.362 141.458 779.95 141.871 779.537 141.458C778.298 140.219 777.059 138.155 774.995 138.155C771.279 138.155 769.627 141.871 769.627 146C769.627 150.129 771.279 153.432 774.995 153.432C777.059 153.432 779.124 150.955 779.95 149.303C780.362 148.89 780.362 149.303 780.362 149.716C779.95 153.019 779.95 153.845 779.537 156.323C779.124 158.8 777.885 163.342 777.885 163.342C779.95 162.516 784.079 162.516 786.143 163.342C786.143 163.342 784.904 158.8 784.491 156.323C784.079 153.845 784.079 153.019 783.666 149.716C783.666 149.303 783.666 148.89 784.079 149.303Z" fill="black"/>
<path d="M784.079 223.626C784.904 225.277 786.969 227.755 789.033 227.755C792.75 227.755 794.401 224.451 794.401 220.322C794.401 216.193 792.75 212.477 789.033 212.477C786.969 212.477 785.73 214.542 784.491 215.78C784.079 216.193 783.666 215.78 784.079 215.367C785.317 214.129 787.382 210.826 787.382 207.935C787.382 204.632 785.317 200.503 782.014 200.503C778.711 200.503 776.646 204.632 776.646 207.935C776.646 210.826 778.711 214.129 779.95 215.367C780.362 215.78 779.95 216.193 779.537 215.78C778.298 214.542 777.059 212.477 774.995 212.477C771.279 212.477 769.627 216.193 769.627 220.322C769.627 224.451 771.279 227.755 774.995 227.755C777.059 227.755 779.124 225.277 779.95 223.626C780.362 223.213 780.362 223.626 780.362 224.038C779.95 227.342 779.95 228.167 779.537 230.645C779.124 233.122 777.885 237.664 777.885 237.664C779.95 236.838 784.079 236.838 786.143 237.664C786.143 237.664 784.904 233.122 784.491 230.645C784.079 228.167 784.079 227.342 783.666 224.038C783.666 223.626 783.666 223.213 784.079 223.626Z" fill="black"/>
<path d="M784.079 288.865C784.904 287.213 786.969 284.736 789.033 284.736C792.75 284.736 794.401 288.039 794.401 292.168C794.401 296.297 792.75 300.013 789.033 300.013C786.969 300.013 785.73 297.949 784.491 296.71C784.079 296.297 783.666 296.71 784.079 297.123C785.317 298.362 787.382 301.665 787.382 304.555C787.382 307.858 785.317 311.987 782.014 311.987C778.711 311.987 776.646 307.858 776.646 304.555C776.646 301.665 778.711 298.362 779.95 297.123C780.362 296.71 779.95 296.297 779.537 296.71C778.298 297.949 777.059 300.013 774.995 300.013C771.279 300.013 769.627 296.297 769.627 292.168C769.627 288.039 771.279 284.736 774.995 284.736C777.059 284.736 779.124 287.213 779.95 288.865C780.362 289.278 780.362 288.865 780.362 288.452C779.95 285.149 779.95 284.323 779.537 281.846C779.124 279.368 777.885 274.826 777.885 274.826C779.95 275.652 784.079 275.652 786.143 274.826C786.143 274.826 784.904 279.368 784.491 281.846C784.079 284.323 784.079 285.149 783.666 288.452C783.666 288.865 783.666 289.278 784.079 288.865Z" fill="black"/>
<path d="M721.111 156.323C721.523 157.149 722.556 158.388 723.588 158.388C725.446 158.388 726.272 156.736 726.272 154.671C726.272 152.607 725.446 150.749 723.588 150.749C722.556 150.749 721.936 151.781 721.317 152.4C721.111 152.607 720.904 152.4 721.111 152.194C721.73 151.575 722.762 149.923 722.762 148.478C722.762 146.826 721.73 144.762 720.078 144.762C718.427 144.762 717.394 146.826 717.394 148.478C717.394 149.923 718.427 151.575 719.046 152.194C719.253 152.4 719.046 152.607 718.84 152.4C718.22 151.781 717.601 150.749 716.569 150.749C714.711 150.749 713.885 152.607 713.885 154.671C713.885 156.736 714.711 158.388 716.569 158.388C717.601 158.388 718.633 157.149 719.046 156.323C719.253 156.117 719.253 156.323 719.253 156.529C719.046 158.181 719.046 158.594 718.84 159.833C718.633 161.071 718.014 163.342 718.014 163.342C719.046 162.929 721.111 162.929 722.143 163.342C722.143 163.342 721.523 161.071 721.317 159.833C721.111 158.594 721.111 158.181 720.904 156.529C720.904 156.323 720.904 156.117 721.111 156.323Z" fill="black"/>
<path d="M844.982 281.846C845.395 281.02 846.427 279.781 847.459 279.781C849.317 279.781 850.143 281.433 850.143 283.497C850.143 285.562 849.317 287.42 847.459 287.42C846.427 287.42 845.807 286.387 845.188 285.768C844.982 285.562 844.775 285.768 844.982 285.975C845.601 286.594 846.633 288.246 846.633 289.691C846.633 291.342 845.601 293.407 843.949 293.407C842.298 293.407 841.266 291.342 841.266 289.691C841.266 288.246 842.298 286.594 842.917 285.975C843.124 285.768 842.917 285.562 842.711 285.768C842.091 286.387 841.472 287.42 840.44 287.42C838.582 287.42 837.756 285.562 837.756 283.497C837.756 281.433 838.582 279.781 840.44 279.781C841.472 279.781 842.504 281.02 842.917 281.846C843.124 282.052 843.124 281.846 843.124 281.639C842.917 279.987 842.917 279.575 842.711 278.336C842.504 277.097 841.885 274.826 841.885 274.826C842.917 275.239 844.982 275.239 846.014 274.826C846.014 274.826 845.395 277.097 845.188 278.336C844.982 279.575 844.982 279.987 844.775 281.639C844.775 281.846 844.775 282.052 844.982 281.846Z" fill="black"/>
<path d="M512.584 178.957L405.627 117.206C399.713 113.791 392.151 115.817 388.737 121.731L289.824 293.054C286.409 298.968 288.436 306.529 294.349 309.944L401.307 371.696C407.22 375.11 414.782 373.084 418.197 367.17L517.11 195.847C520.524 189.934 518.498 182.372 512.584 178.957Z" fill="white" stroke="black"/>
<path d="M399.377 127.663C397.396 126.519 394.88 127.193 393.736 129.174L392.704 130.962C392.084 132.036 392.007 133.263 392.374 134.348C391.251 134.572 390.227 135.252 389.607 136.326L387.543 139.902C386.399 141.883 387.073 144.399 389.054 145.542C391.035 146.686 393.551 146.012 394.694 144.031L396.759 140.455C397.379 139.381 397.456 138.155 397.089 137.07C398.212 136.846 399.236 136.165 399.856 135.091L400.888 133.304C402.032 131.322 401.358 128.807 399.377 127.663ZM398.344 129.451C399.335 130.023 399.672 131.281 399.1 132.271L398.068 134.059C397.496 135.05 396.238 135.387 395.248 134.815C394.257 134.243 393.92 132.985 394.492 131.995L395.524 130.207C396.096 129.216 397.354 128.879 398.344 129.451ZM394.215 136.603C395.206 137.175 395.543 138.432 394.971 139.423L392.906 142.999C392.335 143.989 391.077 144.326 390.086 143.754C389.096 143.183 388.759 141.925 389.331 140.934L391.395 137.358C391.967 136.368 393.225 136.031 394.215 136.603Z" fill="#FF5555"/>
<path d="M407.556 361.24C405.575 360.096 404.901 357.58 406.045 355.599L407.077 353.811C407.697 352.737 408.721 352.057 409.843 351.833C409.476 350.748 409.554 349.522 410.174 348.448L412.238 344.872C413.382 342.891 415.898 342.217 417.879 343.36C419.86 344.504 420.534 347.02 419.39 349.001L417.325 352.577C416.705 353.651 415.682 354.331 414.559 354.555C414.926 355.64 414.849 356.866 414.229 357.94L413.196 359.728C412.053 361.709 409.537 362.383 407.556 361.24ZM408.588 359.452C409.579 360.024 410.837 359.687 411.408 358.696L412.441 356.908C413.013 355.918 412.676 354.66 411.685 354.088C410.695 353.516 409.437 353.853 408.865 354.844L407.833 356.632C407.261 357.622 407.598 358.88 408.588 359.452ZM412.717 352.3C413.708 352.872 414.966 352.535 415.537 351.544L417.602 347.969C418.174 346.978 417.837 345.72 416.846 345.148C415.856 344.576 414.598 344.913 414.026 345.904L411.962 349.48C411.39 350.47 411.727 351.728 412.717 352.3Z" fill="#FF5555"/>
<path d="M421.623 336.463C420.483 338.438 418.743 339.092 417.262 338.236C415.781 337.381 415.504 335.087 416.644 333.112C416.749 332.945 416.843 332.776 416.935 332.609C417.688 331.304 418.897 330.315 419.996 329.371C421.127 328.4 422.359 327.688 423.565 326.932C425.434 325.76 429.234 323.693 429.234 323.693C429.234 323.693 429.344 328.018 429.264 330.222C429.212 331.645 429.212 333.068 428.936 334.532C428.668 335.956 428.416 337.498 427.662 338.803C427.557 338.974 427.461 339.143 427.372 339.306C426.232 341.281 424.107 342.188 422.625 341.333C421.144 340.478 420.84 338.645 421.98 336.67C422.187 336.312 421.829 336.106 421.623 336.463Z" fill="#FF5555"/>
<path d="M413.662 151.644C415.942 147.695 415.334 144.028 412.372 142.317C409.409 140.607 405.159 142.423 402.879 146.372C402.694 146.721 402.495 147.052 402.298 147.378C400.791 149.988 400.287 153.072 399.751 155.92C399.199 158.848 399.198 161.694 399.094 164.54C398.934 168.948 399.155 177.597 399.155 177.597C399.155 177.597 406.755 173.464 410.492 171.121C412.905 169.608 415.369 168.185 417.63 166.242C419.828 164.354 422.246 162.375 423.753 159.765C423.944 159.411 424.142 159.077 424.334 158.759C426.614 154.81 426.061 150.221 423.099 148.511C420.137 146.801 416.657 148.107 414.377 152.057C413.964 152.772 413.249 152.359 413.662 151.644Z" fill="#FF5555"/>
<path d="M478.027 188.805C480.307 184.856 479.699 181.189 476.737 179.479C473.774 177.768 469.524 179.584 467.244 183.534C467.059 183.882 466.86 184.214 466.663 184.539C465.157 187.149 464.652 190.233 464.116 193.081C463.564 196.009 463.563 198.855 463.46 201.701C463.299 206.109 463.52 214.758 463.52 214.758C463.52 214.758 471.121 210.625 474.858 208.282C477.27 206.769 479.735 205.346 481.995 203.403C484.193 201.515 486.612 199.536 488.118 196.926C488.309 196.572 488.507 196.238 488.699 195.921C490.979 191.971 490.427 187.382 487.464 185.672C484.502 183.962 481.022 185.269 478.742 189.218C478.329 189.934 477.614 189.521 478.027 188.805Z" fill="#FF5555"/>
<path d="M427.263 202.407C429.544 198.457 428.935 194.79 425.973 193.08C423.011 191.37 418.761 193.185 416.48 197.135C416.296 197.484 416.096 197.815 415.9 198.141C414.393 200.751 413.889 203.834 413.352 206.682C412.8 209.611 412.8 212.457 412.696 215.303C412.536 219.711 412.756 228.36 412.756 228.36C412.756 228.36 420.357 224.226 424.094 221.883C426.507 220.371 428.971 218.947 431.231 217.005C433.429 215.116 435.848 213.138 437.355 210.528C437.546 210.174 437.743 209.839 437.935 209.522C440.216 205.572 439.663 200.984 436.701 199.274C433.738 197.563 430.259 198.87 427.978 202.82C427.565 203.535 426.85 203.122 427.263 202.407Z" fill="#FF5555"/>
<path d="M376.501 216.01C378.781 212.06 378.173 208.393 375.21 206.683C372.248 204.972 367.998 206.788 365.718 210.738C365.533 211.087 365.334 211.418 365.137 211.743C363.63 214.353 363.126 217.437 362.589 220.285C362.038 223.214 362.037 226.059 361.933 228.905C361.773 233.313 361.994 241.962 361.994 241.962C361.994 241.962 369.594 237.829 373.331 235.486C375.744 233.973 378.208 232.55 380.469 230.607C382.667 228.719 385.085 226.74 386.592 224.13C386.783 223.776 386.981 223.442 387.173 223.125C389.453 219.175 388.9 214.587 385.938 212.876C382.976 211.166 379.496 212.473 377.216 216.422C376.803 217.138 376.088 216.725 376.501 216.01Z" fill="#FF5555"/>
<path d="M440.866 253.171C443.146 249.221 442.538 245.554 439.576 243.844C436.613 242.134 432.363 243.949 430.083 247.899C429.898 248.248 429.699 248.579 429.502 248.904C427.995 251.514 427.491 254.598 426.955 257.446C426.403 260.375 426.402 263.221 426.299 266.066C426.138 270.474 426.359 279.123 426.359 279.123C426.359 279.123 433.959 274.99 437.697 272.647C440.109 271.134 442.573 269.711 444.834 267.769C447.032 265.88 449.451 263.901 450.957 261.292C451.148 260.937 451.346 260.603 451.538 260.286C453.818 256.336 453.266 251.748 450.303 250.037C447.341 248.327 443.861 249.634 441.581 253.584C441.168 254.299 440.453 253.886 440.866 253.171Z" fill="#FF5555"/>
<path d="M378.954 286.082C376.673 290.032 373.194 291.338 370.231 289.628C367.269 287.918 366.716 283.329 368.997 279.38C369.206 279.045 369.394 278.707 369.577 278.374C371.084 275.764 373.503 273.786 375.701 271.897C377.961 269.955 380.425 268.531 382.838 267.018C386.575 264.676 394.176 260.542 394.176 260.542C394.176 260.542 394.396 269.191 394.236 273.599C394.133 276.445 394.132 279.291 393.58 282.219C393.043 285.067 392.539 288.151 391.032 290.761C390.821 291.104 390.63 291.442 390.452 291.767C388.171 295.716 383.921 297.532 380.959 295.822C377.997 294.111 377.388 290.445 379.669 286.495C380.082 285.78 379.367 285.367 378.954 286.082Z" fill="#FF5555"/>
<path d="M328.191 299.684C325.911 303.634 322.431 304.941 319.469 303.231C316.506 301.52 315.954 296.932 318.234 292.982C318.444 292.648 318.631 292.31 318.815 291.976C320.321 289.367 322.74 287.388 324.938 285.499C327.198 283.557 329.663 282.134 332.075 280.621C335.813 278.278 343.413 274.145 343.413 274.145C343.413 274.145 343.634 282.794 343.473 287.202C343.37 290.047 343.369 292.893 342.817 295.822C342.281 298.67 341.776 301.754 340.27 304.363C340.058 304.706 339.868 305.044 339.689 305.369C337.409 309.319 333.159 311.134 330.196 309.424C327.234 307.714 326.626 304.047 328.906 300.097C329.319 299.382 328.604 298.969 328.191 299.684Z" fill="#FF5555"/>
<path d="M392.556 336.846C390.276 340.795 386.796 342.102 383.834 340.392C380.872 338.681 380.319 334.093 382.599 330.143C382.809 329.809 382.996 329.471 383.18 329.138C384.687 326.528 387.105 324.549 389.303 322.661C391.564 320.718 394.028 319.295 396.441 317.782C400.178 315.439 407.778 311.306 407.778 311.306C407.778 311.306 407.999 319.955 407.839 324.363C407.735 327.209 407.734 330.054 407.182 332.983C406.646 335.831 406.142 338.915 404.635 341.525C404.424 341.867 404.233 342.205 404.054 342.53C401.774 346.48 397.524 348.296 394.561 346.585C391.599 344.875 390.991 341.208 393.271 337.258C393.684 336.543 392.969 336.13 392.556 336.846Z" fill="#FF5555"/>
<path d="M384.954 152.233C386.094 150.258 385.79 148.425 384.309 147.57C382.828 146.715 380.703 147.622 379.562 149.597C379.47 149.772 379.37 149.937 379.272 150.1C378.519 151.405 378.267 152.947 377.998 154.371C377.722 155.835 377.722 157.258 377.67 158.681C377.59 160.885 377.7 165.21 377.7 165.21C377.7 165.21 381.501 163.143 383.369 161.971C384.576 161.215 385.808 160.503 386.938 159.532C388.037 158.588 389.246 157.599 390 156.294C390.095 156.117 390.194 155.949 390.29 155.791C391.43 153.816 391.154 151.522 389.673 150.667C388.191 149.811 386.452 150.465 385.311 152.44C385.105 152.797 384.747 152.591 384.954 152.233Z" fill="#FF5555"/>
<path d="M590.106 295.163L510.719 200.554C506.33 195.323 498.531 194.64 493.3 199.03L341.756 326.19C336.525 330.579 335.843 338.378 340.232 343.609L419.619 438.219C424.008 443.45 431.807 444.132 437.038 439.743L588.582 312.582C593.813 308.193 594.495 300.394 590.106 295.163Z" fill="white" stroke="black"/>
<path d="M497.289 203.499L493.748 203.776L491.534 205.634L495.075 205.357L481.474 216.77L482.801 218.351L498.616 205.081L497.289 203.499Z" fill="#FF5555"/>
<path d="M502.596 209.825C501.126 208.073 498.532 207.846 496.779 209.316L487.29 217.278C485.538 218.749 485.311 221.343 486.781 223.096C488.252 224.848 490.846 225.075 492.598 223.605L502.088 215.642C503.84 214.172 504.067 211.577 502.596 209.825ZM501.015 211.152C501.75 212.028 501.637 213.326 500.76 214.061L491.271 222.023C490.395 222.758 489.098 222.645 488.363 221.769C487.628 220.892 487.741 219.595 488.617 218.86L498.106 210.898C498.983 210.163 500.28 210.276 501.015 211.152Z" fill="#FF5555"/>
<path d="M433.048 435.276L436.589 435L438.803 433.142L435.262 433.418L448.863 422.005L447.536 420.424L431.721 433.694L433.048 435.276Z" fill="#FF5555"/>
<path d="M427.74 428.948C429.211 430.701 431.805 430.928 433.558 429.457L443.047 421.495C444.799 420.025 445.026 417.43 443.556 415.678C442.085 413.926 439.491 413.699 437.738 415.169L428.249 423.131C426.497 424.602 426.27 427.196 427.74 428.948ZM429.322 427.621C428.587 426.745 428.7 425.448 429.576 424.713L439.065 416.75C439.942 416.015 441.239 416.129 441.974 417.005C442.709 417.881 442.596 419.178 441.72 419.913L432.231 427.876C431.354 428.611 430.057 428.497 429.322 427.621Z" fill="#FF5555"/>
<path d="M512.451 231.203C512.451 231.203 509.298 237.082 507.993 241.95C506.688 246.818 506.179 252.635 506.179 252.635C506.179 252.635 500.362 252.126 495.341 252.566C490.32 253.006 483.983 255.09 483.983 255.09C483.983 255.09 487.135 249.211 488.441 244.343C489.746 239.474 490.255 233.657 490.255 233.657C490.255 233.657 496.072 234.166 501.093 233.726C506.114 233.286 512.451 231.203 512.451 231.203Z" fill="#FF5555"/>
<path d="M560.223 288.138C560.223 288.138 557.071 294.016 555.766 298.885C554.461 303.753 553.952 309.57 553.952 309.57C553.952 309.57 548.135 309.061 543.114 309.501C538.093 309.941 531.756 312.024 531.756 312.024C531.756 312.024 534.908 306.145 536.213 301.277C537.518 296.409 538.027 290.592 538.027 290.592C538.027 290.592 543.844 291.101 548.865 290.661C553.886 290.221 560.223 288.138 560.223 288.138Z" fill="#FF5555"/>
<path d="M517.358 275.595C517.358 275.595 514.206 281.473 512.901 286.342C511.595 291.21 511.086 297.027 511.086 297.027C511.086 297.027 505.269 296.518 500.248 296.958C495.228 297.398 488.891 299.481 488.891 299.481C488.891 299.481 492.043 293.602 493.348 288.734C494.653 283.866 495.162 278.049 495.162 278.049C495.162 278.049 500.979 278.558 506 278.118C511.021 277.678 517.358 275.595 517.358 275.595Z" fill="#FF5555"/>
<path d="M474.494 263.052C474.494 263.052 471.341 268.931 470.036 273.799C468.731 278.667 468.222 284.484 468.222 284.484C468.222 284.484 462.405 283.975 457.384 284.415C452.363 284.855 446.026 286.938 446.026 286.938C446.026 286.938 449.178 281.059 450.484 276.191C451.789 271.323 452.298 265.506 452.298 265.506C452.298 265.506 458.115 266.015 463.136 265.575C468.157 265.135 474.494 263.052 474.494 263.052Z" fill="#FF5555"/>
<path d="M522.267 319.986C522.267 319.986 519.115 325.865 517.81 330.733C516.505 335.602 515.996 341.419 515.996 341.419C515.996 341.419 510.179 340.91 505.158 341.35C500.137 341.79 493.8 343.873 493.8 343.873C493.8 343.873 496.952 337.994 498.257 333.126C499.562 328.258 500.071 322.44 500.071 322.44C500.071 322.44 505.888 322.949 510.909 322.509C515.93 322.069 522.267 319.986 522.267 319.986Z" fill="#FF5555"/>
<path d="M436.537 294.901C436.537 294.901 433.385 300.78 432.08 305.648C430.775 310.517 430.266 316.334 430.266 316.334C430.266 316.334 424.449 315.825 419.428 316.265C414.407 316.705 408.07 318.788 408.07 318.788C408.07 318.788 411.222 312.909 412.528 308.041C413.833 303.173 414.342 297.356 414.342 297.356C414.342 297.356 420.159 297.864 425.18 297.424C430.2 296.985 436.537 294.901 436.537 294.901Z" fill="#FF5555"/>
<path d="M484.311 351.836C484.311 351.836 481.159 357.715 479.854 362.583C478.549 367.451 478.04 373.268 478.04 373.268C478.04 373.268 472.222 372.759 467.202 373.199C462.181 373.639 455.844 375.723 455.844 375.723C455.844 375.723 458.996 369.844 460.301 364.975C461.606 360.107 462.115 354.29 462.115 354.29C462.115 354.29 467.932 354.799 472.953 354.359C477.974 353.919 484.311 351.836 484.311 351.836Z" fill="#FF5555"/>
<path d="M441.446 339.293C441.446 339.293 438.294 345.172 436.988 350.04C435.683 354.908 435.174 360.725 435.174 360.725C435.174 360.725 429.357 360.216 424.336 360.656C419.315 361.096 412.978 363.18 412.978 363.18C412.978 363.18 416.131 357.301 417.436 352.432C418.741 347.564 419.25 341.747 419.25 341.747C419.25 341.747 425.067 342.256 430.088 341.816C435.109 341.376 441.446 339.293 441.446 339.293Z" fill="#FF5555"/>
<path d="M398.581 326.75C398.581 326.75 395.429 332.629 394.124 337.497C392.819 342.365 392.31 348.182 392.31 348.182C392.31 348.182 386.493 347.673 381.472 348.113C376.451 348.553 370.114 350.637 370.114 350.637C370.114 350.637 373.266 344.758 374.571 339.889C375.877 335.021 376.386 329.204 376.386 329.204C376.386 329.204 382.203 329.713 387.224 329.273C392.244 328.833 398.581 326.75 398.581 326.75Z" fill="#FF5555"/>
<path d="M446.355 383.684C446.355 383.684 443.203 389.563 441.898 394.432C440.592 399.3 440.084 405.117 440.084 405.117C440.084 405.117 434.266 404.608 429.246 405.048C424.225 405.488 417.888 407.571 417.888 407.571C417.888 407.571 421.04 401.692 422.345 396.824C423.65 391.956 424.159 386.139 424.159 386.139C424.159 386.139 429.976 386.648 434.997 386.208C440.018 385.768 446.355 383.684 446.355 383.684Z" fill="#FF5555"/>
<path d="M482.292 224.168C482.292 224.168 480.716 227.108 480.063 229.542C479.41 231.976 479.156 234.885 479.156 234.885C479.156 234.885 476.247 234.63 473.737 234.85C471.227 235.07 468.058 236.112 468.058 236.112C468.058 236.112 469.634 233.172 470.287 230.738C470.939 228.304 471.194 225.396 471.194 225.396C471.194 225.396 474.102 225.65 476.613 225.43C479.123 225.21 482.292 224.168 482.292 224.168Z" fill="#FF5555"/>
<path d="M462.279 402.663C462.279 402.663 460.703 405.602 460.05 408.036C459.398 410.47 459.143 413.379 459.143 413.379C459.143 413.379 456.235 413.124 453.724 413.344C451.214 413.564 448.045 414.606 448.045 414.606C448.045 414.606 449.621 411.666 450.274 409.232C450.927 406.798 451.181 403.89 451.181 403.89C451.181 403.89 454.09 404.144 456.6 403.924C459.11 403.704 462.279 402.663 462.279 402.663Z" fill="#FF5555"/>
<path d="M183.349 45V15.9091H189.499V27.9119H201.985V15.9091H208.121V45H201.985V32.983H189.499V45H183.349ZM219.3 45.4119C217.908 45.4119 216.668 45.1705 215.579 44.6875C214.49 44.1951 213.628 43.4706 212.994 42.5142C212.369 41.5483 212.056 40.3456 212.056 38.9062C212.056 37.6941 212.279 36.6761 212.724 35.8523C213.169 35.0284 213.775 34.3655 214.542 33.8636C215.309 33.3617 216.18 32.983 217.156 32.7273C218.14 32.4716 219.173 32.2917 220.252 32.1875C221.521 32.0549 222.544 31.9318 223.32 31.8182C224.097 31.6951 224.66 31.5152 225.011 31.2784C225.361 31.0417 225.536 30.6913 225.536 30.2273V30.142C225.536 29.2424 225.252 28.5464 224.684 28.054C224.125 27.5616 223.33 27.3153 222.298 27.3153C221.209 27.3153 220.342 27.5568 219.698 28.0398C219.054 28.5133 218.628 29.1098 218.42 29.8295L212.823 29.375C213.107 28.0492 213.666 26.9034 214.499 25.9375C215.333 24.9621 216.407 24.214 217.724 23.6932C219.049 23.1629 220.584 22.8977 222.326 22.8977C223.538 22.8977 224.698 23.0398 225.806 23.3239C226.924 23.608 227.913 24.0483 228.775 24.6449C229.646 25.2415 230.333 26.0085 230.835 26.946C231.336 27.8741 231.587 28.9867 231.587 30.2841V45H225.849V41.9744H225.678C225.328 42.6562 224.859 43.2576 224.272 43.7784C223.685 44.2898 222.979 44.6922 222.156 44.9858C221.332 45.2699 220.38 45.4119 219.3 45.4119ZM221.033 41.2358C221.924 41.2358 222.71 41.0606 223.391 40.7102C224.073 40.3504 224.608 39.8674 224.996 39.2614C225.385 38.6553 225.579 37.9687 225.579 37.2017V34.8864C225.389 35.0095 225.129 35.1231 224.798 35.2273C224.476 35.322 224.111 35.4119 223.704 35.4972C223.297 35.5729 222.889 35.6439 222.482 35.7102C222.075 35.767 221.706 35.8191 221.374 35.8665C220.664 35.9706 220.044 36.1364 219.513 36.3636C218.983 36.5909 218.571 36.8987 218.278 37.2869C217.984 37.6657 217.837 38.1392 217.837 38.7074C217.837 39.5312 218.136 40.161 218.732 40.5966C219.338 41.0227 220.105 41.2358 221.033 41.2358ZM242.333 32.3864V45H236.282V23.1818H242.049V27.0312H242.305C242.788 25.7623 243.597 24.7585 244.734 24.0199C245.87 23.2718 247.248 22.8977 248.867 22.8977C250.382 22.8977 251.703 23.2292 252.83 23.892C253.957 24.5549 254.833 25.5019 255.458 26.733C256.083 27.9545 256.396 29.4129 256.396 31.108V45H250.344V32.1875C250.354 30.8523 250.013 29.8106 249.322 29.0625C248.63 28.3049 247.679 27.9261 246.467 27.9261C245.652 27.9261 244.933 28.1013 244.308 28.4517C243.692 28.8021 243.209 29.3134 242.859 29.9858C242.518 30.6487 242.343 31.4489 242.333 32.3864ZM269.205 45.3551C267.547 45.3551 266.046 44.929 264.702 44.0767C263.366 43.215 262.306 41.9508 261.52 40.2841C260.743 38.608 260.355 36.553 260.355 34.1193C260.355 31.6193 260.758 29.5407 261.562 27.8835C262.367 26.2169 263.438 24.9716 264.773 24.1477C266.117 23.3144 267.59 22.8977 269.19 22.8977C270.412 22.8977 271.43 23.1061 272.244 23.5227C273.068 23.9299 273.731 24.4413 274.233 25.0568C274.744 25.6629 275.133 26.2595 275.398 26.8466H275.582V15.9091H281.619V45H275.653V41.5057H275.398C275.114 42.1117 274.711 42.7131 274.19 43.3097C273.679 43.8968 273.011 44.3845 272.188 44.7727C271.373 45.161 270.379 45.3551 269.205 45.3551ZM271.122 40.5398C272.098 40.5398 272.921 40.2746 273.594 39.7443C274.276 39.2045 274.796 38.4517 275.156 37.4858C275.526 36.5199 275.71 35.3883 275.71 34.0909C275.71 32.7936 275.53 31.6667 275.17 30.7102C274.811 29.7538 274.29 29.0152 273.608 28.4943C272.926 27.9735 272.098 27.7131 271.122 27.7131C270.128 27.7131 269.29 27.983 268.608 28.5227C267.926 29.0625 267.41 29.8106 267.06 30.767C266.709 31.7235 266.534 32.8314 266.534 34.0909C266.534 35.3598 266.709 36.482 267.06 37.4574C267.42 38.4233 267.936 39.1809 268.608 39.7301C269.29 40.2699 270.128 40.5398 271.122 40.5398ZM305.71 45.4261C303.504 45.4261 301.596 44.9574 299.986 44.0199C298.385 43.0729 297.15 41.7566 296.278 40.071C295.407 38.3759 294.972 36.411 294.972 34.1761C294.972 31.9223 295.407 29.9527 296.278 28.267C297.15 26.572 298.385 25.2557 299.986 24.3182C301.596 23.3712 303.504 22.8977 305.71 22.8977C307.917 22.8977 309.82 23.3712 311.42 24.3182C313.03 25.2557 314.271 26.572 315.142 28.267C316.013 29.9527 316.449 31.9223 316.449 34.1761C316.449 36.411 316.013 38.3759 315.142 40.071C314.271 41.7566 313.03 43.0729 311.42 44.0199C309.82 44.9574 307.917 45.4261 305.71 45.4261ZM305.739 40.7386C306.742 40.7386 307.58 40.4545 308.253 39.8864C308.925 39.3087 309.432 38.5227 309.773 37.5284C310.123 36.5341 310.298 35.4025 310.298 34.1335C310.298 32.8646 310.123 31.733 309.773 30.7386C309.432 29.7443 308.925 28.9583 308.253 28.3807C307.58 27.803 306.742 27.5142 305.739 27.5142C304.725 27.5142 303.873 27.803 303.182 28.3807C302.5 28.9583 301.984 29.7443 301.634 30.7386C301.293 31.733 301.122 32.8646 301.122 34.1335C301.122 35.4025 301.293 36.5341 301.634 37.5284C301.984 38.5227 302.5 39.3087 303.182 39.8864C303.873 40.4545 304.725 40.7386 305.739 40.7386ZM332.116 23.1818V27.7273H318.651V23.1818H332.116ZM321.733 45V21.6051C321.733 20.0237 322.041 18.7121 322.656 17.6705C323.281 16.6288 324.134 15.8475 325.213 15.3267C326.293 14.8059 327.519 14.5455 328.892 14.5455C329.82 14.5455 330.668 14.6165 331.435 14.7585C332.211 14.9006 332.789 15.0284 333.168 15.142L332.088 19.6875C331.851 19.6117 331.558 19.5407 331.207 19.4744C330.866 19.4081 330.516 19.375 330.156 19.375C329.266 19.375 328.646 19.5833 328.295 20C327.945 20.4072 327.77 20.9801 327.77 21.7188V45H321.733ZM370.852 26.0938H364.631C364.517 25.2888 364.285 24.5739 363.935 23.9489C363.584 23.3144 363.134 22.7746 362.585 22.3295C362.036 21.8845 361.402 21.5436 360.682 21.3068C359.972 21.0701 359.2 20.9517 358.366 20.9517C356.861 20.9517 355.549 21.3258 354.432 22.0739C353.314 22.8125 352.448 23.892 351.832 25.3125C351.217 26.7235 350.909 28.4375 350.909 30.4545C350.909 32.5284 351.217 34.2708 351.832 35.6818C352.457 37.0928 353.329 38.1581 354.446 38.8778C355.563 39.5975 356.856 39.9574 358.324 39.9574C359.148 39.9574 359.91 39.8485 360.611 39.6307C361.321 39.4129 361.951 39.0956 362.5 38.679C363.049 38.2528 363.504 37.7367 363.864 37.1307C364.233 36.5246 364.489 35.8333 364.631 35.0568L370.852 35.0852C370.691 36.4205 370.289 37.7083 369.645 38.9489C369.01 40.1799 368.153 41.2831 367.074 42.2585C366.004 43.2244 364.725 43.9915 363.239 44.5597C361.761 45.1184 360.09 45.3977 358.224 45.3977C355.63 45.3977 353.31 44.8106 351.264 43.6364C349.228 42.4621 347.618 40.7623 346.435 38.5369C345.26 36.3116 344.673 33.6174 344.673 30.4545C344.673 27.2822 345.27 24.5833 346.463 22.358C347.656 20.1326 349.276 18.4375 351.321 17.2727C353.366 16.0985 355.668 15.5114 358.224 15.5114C359.91 15.5114 361.473 15.7481 362.912 16.2216C364.361 16.6951 365.644 17.3864 366.761 18.2955C367.879 19.1951 368.788 20.2983 369.489 21.6051C370.199 22.9119 370.653 24.4081 370.852 26.0938ZM381.371 45.4119C379.979 45.4119 378.738 45.1705 377.649 44.6875C376.56 44.1951 375.698 43.4706 375.064 42.5142C374.439 41.5483 374.126 40.3456 374.126 38.9062C374.126 37.6941 374.349 36.6761 374.794 35.8523C375.239 35.0284 375.845 34.3655 376.612 33.8636C377.379 33.3617 378.25 32.983 379.226 32.7273C380.211 32.4716 381.243 32.2917 382.322 32.1875C383.591 32.0549 384.614 31.9318 385.391 31.8182C386.167 31.6951 386.731 31.5152 387.081 31.2784C387.431 31.0417 387.607 30.6913 387.607 30.2273V30.142C387.607 29.2424 387.322 28.5464 386.754 28.054C386.196 27.5616 385.4 27.3153 384.368 27.3153C383.279 27.3153 382.412 27.5568 381.768 28.0398C381.125 28.5133 380.698 29.1098 380.49 29.8295L374.893 29.375C375.178 28.0492 375.736 26.9034 376.57 25.9375C377.403 24.9621 378.478 24.214 379.794 23.6932C381.12 23.1629 382.654 22.8977 384.396 22.8977C385.608 22.8977 386.768 23.0398 387.876 23.3239C388.994 23.608 389.983 24.0483 390.845 24.6449C391.716 25.2415 392.403 26.0085 392.905 26.946C393.407 27.8741 393.658 28.9867 393.658 30.2841V45H387.919V41.9744H387.749C387.398 42.6562 386.929 43.2576 386.342 43.7784C385.755 44.2898 385.05 44.6922 384.226 44.9858C383.402 45.2699 382.45 45.4119 381.371 45.4119ZM383.104 41.2358C383.994 41.2358 384.78 41.0606 385.462 40.7102C386.143 40.3504 386.679 39.8674 387.067 39.2614C387.455 38.6553 387.649 37.9687 387.649 37.2017V34.8864C387.46 35.0095 387.199 35.1231 386.868 35.2273C386.546 35.322 386.181 35.4119 385.774 35.4972C385.367 35.5729 384.96 35.6439 384.553 35.7102C384.145 35.767 383.776 35.8191 383.445 35.8665C382.734 35.9706 382.114 36.1364 381.584 36.3636C381.054 36.5909 380.642 36.8987 380.348 37.2869C380.054 37.6657 379.908 38.1392 379.908 38.7074C379.908 39.5312 380.206 40.161 380.803 40.5966C381.409 41.0227 382.176 41.2358 383.104 41.2358ZM398.352 45V23.1818H404.219V26.9886H404.446C404.844 25.6345 405.511 24.6117 406.449 23.9205C407.386 23.2197 408.466 22.8693 409.688 22.8693C409.991 22.8693 410.317 22.8883 410.668 22.9261C411.018 22.964 411.326 23.0161 411.591 23.0824V28.4517C411.307 28.3665 410.914 28.2907 410.412 28.2244C409.91 28.1581 409.451 28.125 409.034 28.125C408.144 28.125 407.348 28.3191 406.648 28.7074C405.956 29.0862 405.407 29.6165 405 30.2983C404.602 30.9801 404.403 31.7661 404.403 32.6562V45H398.352ZM421.744 45.3551C420.086 45.3551 418.585 44.929 417.241 44.0767C415.906 43.215 414.845 41.9508 414.059 40.2841C413.282 38.608 412.894 36.553 412.894 34.1193C412.894 31.6193 413.297 29.5407 414.102 27.8835C414.906 26.2169 415.977 24.9716 417.312 24.1477C418.656 23.3144 420.129 22.8977 421.729 22.8977C422.951 22.8977 423.969 23.1061 424.783 23.5227C425.607 23.9299 426.27 24.4413 426.772 25.0568C427.283 25.6629 427.672 26.2595 427.937 26.8466H428.121V15.9091H434.158V45H428.192V41.5057H427.937C427.653 42.1117 427.25 42.7131 426.729 43.3097C426.218 43.8968 425.55 44.3845 424.727 44.7727C423.912 45.161 422.918 45.3551 421.744 45.3551ZM423.661 40.5398C424.637 40.5398 425.46 40.2746 426.133 39.7443C426.815 39.2045 427.335 38.4517 427.695 37.4858C428.065 36.5199 428.249 35.3883 428.249 34.0909C428.249 32.7936 428.069 31.6667 427.71 30.7102C427.35 29.7538 426.829 29.0152 426.147 28.4943C425.465 27.9735 424.637 27.7131 423.661 27.7131C422.667 27.7131 421.829 27.983 421.147 28.5227C420.465 29.0625 419.949 29.8106 419.599 30.767C419.248 31.7235 419.073 32.8314 419.073 34.0909C419.073 35.3598 419.248 36.482 419.599 37.4574C419.959 38.4233 420.475 39.1809 421.147 39.7301C421.829 40.2699 422.667 40.5398 423.661 40.5398ZM457.287 29.4034L451.747 29.7443C451.652 29.2708 451.449 28.8447 451.136 28.4659C450.824 28.0777 450.412 27.7699 449.901 27.5426C449.399 27.3059 448.797 27.1875 448.097 27.1875C447.159 27.1875 446.368 27.3864 445.724 27.7841C445.08 28.1723 444.759 28.6932 444.759 29.3466C444.759 29.8674 444.967 30.3078 445.384 30.6676C445.8 31.0275 446.515 31.3163 447.528 31.5341L451.477 32.3295C453.598 32.7652 455.18 33.4659 456.222 34.4318C457.263 35.3977 457.784 36.6667 457.784 38.2386C457.784 39.6686 457.363 40.9233 456.52 42.0028C455.687 43.0824 454.541 43.9252 453.082 44.5312C451.634 45.1278 449.962 45.4261 448.068 45.4261C445.18 45.4261 442.879 44.8248 441.165 43.6222C439.46 42.41 438.461 40.7623 438.168 38.679L444.119 38.3665C444.299 39.2472 444.735 39.9195 445.426 40.3835C446.117 40.8381 447.003 41.0653 448.082 41.0653C449.143 41.0653 449.995 40.8617 450.639 40.4545C451.293 40.0379 451.624 39.5028 451.634 38.8494C451.624 38.3002 451.392 37.8504 450.938 37.5C450.483 37.1402 449.782 36.8655 448.835 36.6761L445.057 35.9233C442.926 35.4972 441.34 34.7585 440.298 33.7074C439.266 32.6562 438.75 31.3163 438.75 29.6875C438.75 28.286 439.129 27.0786 439.886 26.0653C440.653 25.0521 441.728 24.2708 443.111 23.7216C444.503 23.1723 446.132 22.8977 447.997 22.8977C450.753 22.8977 452.921 23.4801 454.503 24.6449C456.094 25.8097 457.022 27.3958 457.287 29.4034Z" fill="white"/>
<path d="M628.333 15.9091V45H623.021L610.365 26.6903H610.152V45H604.001V15.9091H609.399L621.956 34.2045H622.211V15.9091H628.333ZM643.245 45.4261C641 45.4261 639.069 44.9716 637.449 44.0625C635.839 43.1439 634.599 41.8466 633.728 40.1705C632.856 38.4848 632.421 36.4915 632.421 34.1903C632.421 31.946 632.856 29.9763 633.728 28.2812C634.599 26.5862 635.825 25.2652 637.407 24.3182C638.998 23.3712 640.863 22.8977 643.003 22.8977C644.443 22.8977 645.783 23.1297 647.023 23.5938C648.273 24.0483 649.362 24.7348 650.29 25.6534C651.228 26.572 651.957 27.7273 652.478 29.1193C652.998 30.5019 653.259 32.1212 653.259 33.9773V35.6392H634.836V31.8892H647.563C647.563 31.018 647.373 30.2462 646.995 29.5739C646.616 28.9015 646.09 28.3759 645.418 27.9972C644.755 27.6089 643.983 27.4148 643.103 27.4148C642.184 27.4148 641.37 27.6278 640.659 28.054C639.959 28.4706 639.409 29.0341 639.012 29.7443C638.614 30.4451 638.41 31.2263 638.401 32.0881V35.6534C638.401 36.733 638.6 37.6657 638.998 38.4517C639.405 39.2377 639.978 39.8438 640.716 40.2699C641.455 40.696 642.331 40.9091 643.344 40.9091C644.016 40.9091 644.632 40.8144 645.191 40.625C645.749 40.4356 646.228 40.1515 646.625 39.7727C647.023 39.3939 647.326 38.9299 647.534 38.3807L653.131 38.75C652.847 40.0947 652.265 41.2689 651.384 42.2727C650.513 43.267 649.386 44.0436 648.003 44.6023C646.63 45.1515 645.044 45.4261 643.245 45.4261ZM661.355 45L655.418 23.1818H661.54L664.921 37.8409H665.12L668.642 23.1818H674.651L678.23 37.7557H678.415L681.739 23.1818H687.847L681.924 45H675.517L671.767 31.2784H671.498L667.748 45H661.355ZM697.126 15.9091V45H691.075V15.9091H697.126ZM705.709 53.1818C704.942 53.1818 704.222 53.1203 703.55 52.9972C702.887 52.8835 702.338 52.7367 701.902 52.5568L703.266 48.0398C703.976 48.2576 704.615 48.3759 705.184 48.3949C705.761 48.4138 706.258 48.2813 706.675 47.9972C707.101 47.7131 707.447 47.2301 707.712 46.5483L708.067 45.625L700.24 23.1818H706.604L711.121 39.2045H711.348L715.908 23.1818H722.314L713.834 47.358C713.427 48.5322 712.873 49.5549 712.172 50.4261C711.481 51.3068 710.605 51.9839 709.544 52.4574C708.484 52.9403 707.205 53.1818 705.709 53.1818ZM745.095 45H734.782V15.9091H745.18C748.106 15.9091 750.625 16.4915 752.737 17.6562C754.849 18.8116 756.473 20.4735 757.609 22.642C758.755 24.8106 759.328 27.4053 759.328 30.4261C759.328 33.4564 758.755 36.0606 757.609 38.2386C756.473 40.4167 754.839 42.0881 752.708 43.2528C750.587 44.4176 748.049 45 745.095 45ZM740.933 39.7301H744.839C746.657 39.7301 748.187 39.4081 749.427 38.7642C750.677 38.1108 751.615 37.1023 752.24 35.7386C752.874 34.3655 753.191 32.5947 753.191 30.4261C753.191 28.2765 752.874 26.5199 752.24 25.1562C751.615 23.7926 750.682 22.7888 749.441 22.1449C748.201 21.5009 746.672 21.179 744.853 21.179H740.933V39.7301ZM763.77 45V23.1818H769.637V26.9886H769.864C770.262 25.6345 770.929 24.6117 771.867 23.9205C772.804 23.2197 773.884 22.8693 775.105 22.8693C775.408 22.8693 775.735 22.8883 776.086 22.9261C776.436 22.964 776.744 23.0161 777.009 23.0824V28.4517C776.725 28.3665 776.332 28.2907 775.83 28.2244C775.328 28.1581 774.869 28.125 774.452 28.125C773.562 28.125 772.766 28.3191 772.066 28.7074C771.374 29.0862 770.825 29.6165 770.418 30.2983C770.02 30.9801 769.821 31.7661 769.821 32.6562V45H763.77ZM785.734 45.4119C784.342 45.4119 783.101 45.1705 782.012 44.6875C780.923 44.1951 780.062 43.4706 779.427 42.5142C778.802 41.5483 778.49 40.3456 778.49 38.9062C778.49 37.6941 778.712 36.6761 779.157 35.8523C779.602 35.0284 780.208 34.3655 780.975 33.8636C781.743 33.3617 782.614 32.983 783.589 32.7273C784.574 32.4716 785.606 32.2917 786.686 32.1875C787.955 32.0549 788.977 31.9318 789.754 31.8182C790.53 31.6951 791.094 31.5152 791.444 31.2784C791.795 31.0417 791.97 30.6913 791.97 30.2273V30.142C791.97 29.2424 791.686 28.5464 791.118 28.054C790.559 27.5616 789.763 27.3153 788.731 27.3153C787.642 27.3153 786.776 27.5568 786.132 28.0398C785.488 28.5133 785.062 29.1098 784.853 29.8295L779.257 29.375C779.541 28.0492 780.1 26.9034 780.933 25.9375C781.766 24.9621 782.841 24.214 784.157 23.6932C785.483 23.1629 787.017 22.8977 788.76 22.8977C789.972 22.8977 791.132 23.0398 792.24 23.3239C793.357 23.608 794.347 24.0483 795.208 24.6449C796.08 25.2415 796.766 26.0085 797.268 26.946C797.77 27.8741 798.021 28.9867 798.021 30.2841V45H792.282V41.9744H792.112C791.761 42.6562 791.293 43.2576 790.706 43.7784C790.118 44.2898 789.413 44.6922 788.589 44.9858C787.765 45.2699 786.814 45.4119 785.734 45.4119ZM787.467 41.2358C788.357 41.2358 789.143 41.0606 789.825 40.7102C790.507 40.3504 791.042 39.8674 791.43 39.2614C791.818 38.6553 792.012 37.9687 792.012 37.2017V34.8864C791.823 35.0095 791.563 35.1231 791.231 35.2273C790.909 35.322 790.545 35.4119 790.137 35.4972C789.73 35.5729 789.323 35.6439 788.916 35.7102C788.509 35.767 788.139 35.8191 787.808 35.8665C787.098 35.9706 786.477 36.1364 785.947 36.3636C785.417 36.5909 785.005 36.8987 784.711 37.2869C784.418 37.6657 784.271 38.1392 784.271 38.7074C784.271 39.5312 784.569 40.161 785.166 40.5966C785.772 41.0227 786.539 41.2358 787.467 41.2358ZM807.02 45L801.082 23.1818H807.204L810.585 37.8409H810.784L814.306 23.1818H820.315L823.895 37.7557H824.079L827.403 23.1818H833.511L827.588 45H821.181L817.431 31.2784H817.162L813.412 45H807.02ZM842.79 32.3864V45H836.739V23.1818H842.506V27.0312H842.762C843.245 25.7623 844.054 24.7585 845.191 24.0199C846.327 23.2718 847.705 22.8977 849.324 22.8977C850.839 22.8977 852.16 23.2292 853.287 23.892C854.414 24.5549 855.29 25.5019 855.915 26.733C856.54 27.9545 856.853 29.4129 856.853 31.108V45H850.801V32.1875C850.811 30.8523 850.47 29.8106 849.779 29.0625C849.087 28.3049 848.136 27.9261 846.924 27.9261C846.109 27.9261 845.39 28.1013 844.765 28.4517C844.149 28.8021 843.666 29.3134 843.316 29.9858C842.975 30.6487 842.8 31.4489 842.79 32.3864ZM896.661 26.0938H890.439C890.326 25.2888 890.094 24.5739 889.743 23.9489C889.393 23.3144 888.943 22.7746 888.394 22.3295C887.845 21.8845 887.21 21.5436 886.49 21.3068C885.78 21.0701 885.008 20.9517 884.175 20.9517C882.669 20.9517 881.358 21.3258 880.24 22.0739C879.123 22.8125 878.257 23.892 877.641 25.3125C877.025 26.7235 876.718 28.4375 876.718 30.4545C876.718 32.5284 877.025 34.2708 877.641 35.6818C878.266 37.0928 879.137 38.1581 880.255 38.8778C881.372 39.5975 882.665 39.9574 884.132 39.9574C884.956 39.9574 885.719 39.8485 886.419 39.6307C887.13 39.4129 887.759 39.0956 888.309 38.679C888.858 38.2528 889.312 37.7367 889.672 37.1307C890.042 36.5246 890.297 35.8333 890.439 35.0568L896.661 35.0852C896.5 36.4205 896.097 37.7083 895.453 38.9489C894.819 40.1799 893.962 41.2831 892.882 42.2585C891.812 43.2244 890.534 43.9915 889.047 44.5597C887.57 45.1184 885.899 45.3977 884.033 45.3977C881.438 45.3977 879.118 44.8106 877.073 43.6364C875.037 42.4621 873.427 40.7623 872.243 38.5369C871.069 36.3116 870.482 33.6174 870.482 30.4545C870.482 27.2822 871.078 24.5833 872.272 22.358C873.465 20.1326 875.084 18.4375 877.13 17.2727C879.175 16.0985 881.476 15.5114 884.033 15.5114C885.719 15.5114 887.281 15.7481 888.721 16.2216C890.169 16.6951 891.453 17.3864 892.57 18.2955C893.687 19.1951 894.596 20.2983 895.297 21.6051C896.007 22.9119 896.462 24.4081 896.661 26.0938ZM907.179 45.4119C905.787 45.4119 904.547 45.1705 903.458 44.6875C902.369 44.1951 901.507 43.4706 900.873 42.5142C900.248 41.5483 899.935 40.3456 899.935 38.9062C899.935 37.6941 900.158 36.6761 900.603 35.8523C901.048 35.0284 901.654 34.3655 902.421 33.8636C903.188 33.3617 904.059 32.983 905.034 32.7273C906.019 32.4716 907.051 32.2917 908.131 32.1875C909.4 32.0549 910.423 31.9318 911.199 31.8182C911.976 31.6951 912.539 31.5152 912.89 31.2784C913.24 31.0417 913.415 30.6913 913.415 30.2273V30.142C913.415 29.2424 913.131 28.5464 912.563 28.054C912.004 27.5616 911.209 27.3153 910.176 27.3153C909.087 27.3153 908.221 27.5568 907.577 28.0398C906.933 28.5133 906.507 29.1098 906.299 29.8295L900.702 29.375C900.986 28.0492 901.545 26.9034 902.378 25.9375C903.212 24.9621 904.286 24.214 905.603 23.6932C906.928 23.1629 908.462 22.8977 910.205 22.8977C911.417 22.8977 912.577 23.0398 913.685 23.3239C914.802 23.608 915.792 24.0483 916.654 24.6449C917.525 25.2415 918.212 26.0085 918.713 26.946C919.215 27.8741 919.466 28.9867 919.466 30.2841V45H913.728V41.9744H913.557C913.207 42.6562 912.738 43.2576 912.151 43.7784C911.564 44.2898 910.858 44.6922 910.034 44.9858C909.211 45.2699 908.259 45.4119 907.179 45.4119ZM908.912 41.2358C909.802 41.2358 910.588 41.0606 911.27 40.7102C911.952 40.3504 912.487 39.8674 912.875 39.2614C913.264 38.6553 913.458 37.9687 913.458 37.2017V34.8864C913.268 35.0095 913.008 35.1231 912.676 35.2273C912.355 35.322 911.99 35.4119 911.583 35.4972C911.176 35.5729 910.768 35.6439 910.361 35.7102C909.954 35.767 909.585 35.8191 909.253 35.8665C908.543 35.9706 907.923 36.1364 907.392 36.3636C906.862 36.5909 906.45 36.8987 906.157 37.2869C905.863 37.6657 905.716 38.1392 905.716 38.7074C905.716 39.5312 906.015 40.161 906.611 40.5966C907.217 41.0227 907.984 41.2358 908.912 41.2358ZM924.161 45V23.1818H930.027V26.9886H930.255C930.652 25.6345 931.32 24.6117 932.257 23.9205C933.195 23.2197 934.275 22.8693 935.496 22.8693C935.799 22.8693 936.126 22.8883 936.476 22.9261C936.827 22.964 937.134 23.0161 937.4 23.0824V28.4517C937.115 28.3665 936.722 28.2907 936.221 28.2244C935.719 28.1581 935.259 28.125 934.843 28.125C933.953 28.125 933.157 28.3191 932.456 28.7074C931.765 29.0862 931.216 29.6165 930.809 30.2983C930.411 30.9801 930.212 31.7661 930.212 32.6562V45H924.161ZM947.552 45.3551C945.895 45.3551 944.394 44.929 943.049 44.0767C941.714 43.215 940.654 41.9508 939.868 40.2841C939.091 38.608 938.703 36.553 938.703 34.1193C938.703 31.6193 939.105 29.5407 939.91 27.8835C940.715 26.2169 941.785 24.9716 943.12 24.1477C944.465 23.3144 945.938 22.8977 947.538 22.8977C948.76 22.8977 949.778 23.1061 950.592 23.5227C951.416 23.9299 952.079 24.4413 952.581 25.0568C953.092 25.6629 953.48 26.2595 953.745 26.8466H953.93V15.9091H959.967V45H954.001V41.5057H953.745C953.461 42.1117 953.059 42.7131 952.538 43.3097C952.027 43.8968 951.359 44.3845 950.535 44.7727C949.721 45.161 948.726 45.3551 947.552 45.3551ZM949.47 40.5398C950.445 40.5398 951.269 40.2746 951.941 39.7443C952.623 39.2045 953.144 38.4517 953.504 37.4858C953.873 36.5199 954.058 35.3883 954.058 34.0909C954.058 32.7936 953.878 31.6667 953.518 30.7102C953.158 29.7538 952.637 29.0152 951.956 28.4943C951.274 27.9735 950.445 27.7131 949.47 27.7131C948.475 27.7131 947.637 27.983 946.956 28.5227C946.274 29.0625 945.758 29.8106 945.407 30.767C945.057 31.7235 944.882 32.8314 944.882 34.0909C944.882 35.3598 945.057 36.482 945.407 37.4574C945.767 38.4233 946.283 39.1809 946.956 39.7301C947.637 40.2699 948.475 40.5398 949.47 40.5398Z" fill="white"/>
</svg>
