<svg width="648" height="1159" viewBox="0 0 648 1159" fill="none" xmlns="http://www.w3.org/2000/svg">
<path d="M144 528H598C612.912 528 625 540.088 625 555V621C625 635.912 612.912 648 598 648H144V528Z" fill="#272727"/>
<path d="M145 932H52C37.0883 932 25 944.088 25 959V1025C25 1039.91 37.0883 1052 52 1052H145V932Z" fill="#272727"/>
<path d="M344.022 753C343.881 751.812 343.311 750.891 342.311 750.234C341.311 749.578 340.084 749.25 338.631 749.25C337.569 749.25 336.639 749.422 335.842 749.766C335.053 750.109 334.436 750.582 333.991 751.184C333.553 751.785 333.334 752.469 333.334 753.234C333.334 753.875 333.487 754.426 333.792 754.887C334.104 755.34 334.502 755.719 334.987 756.023C335.471 756.32 335.979 756.566 336.51 756.762C337.042 756.949 337.53 757.102 337.975 757.219L340.413 757.875C341.038 758.039 341.733 758.266 342.499 758.555C343.272 758.844 344.01 759.238 344.713 759.738C345.424 760.23 346.01 760.863 346.471 761.637C346.932 762.41 347.163 763.359 347.163 764.484C347.163 765.781 346.823 766.953 346.143 768C345.471 769.047 344.487 769.879 343.19 770.496C341.901 771.113 340.334 771.422 338.491 771.422C336.772 771.422 335.284 771.145 334.026 770.59C332.776 770.035 331.792 769.262 331.073 768.27C330.362 767.277 329.959 766.125 329.866 764.812H332.866C332.944 765.719 333.249 766.469 333.78 767.062C334.319 767.648 334.999 768.086 335.819 768.375C336.647 768.656 337.538 768.797 338.491 768.797C339.6 768.797 340.596 768.617 341.479 768.258C342.362 767.891 343.061 767.383 343.577 766.734C344.092 766.078 344.35 765.313 344.35 764.437C344.35 763.641 344.127 762.992 343.682 762.492C343.237 761.992 342.651 761.586 341.924 761.273C341.198 760.961 340.413 760.687 339.569 760.453L336.616 759.609C334.741 759.07 333.256 758.301 332.163 757.301C331.069 756.301 330.522 754.992 330.522 753.375C330.522 752.031 330.885 750.859 331.612 749.859C332.346 748.852 333.331 748.07 334.565 747.516C335.807 746.953 337.194 746.672 338.725 746.672C340.272 746.672 341.647 746.949 342.85 747.504C344.053 748.051 345.006 748.801 345.709 749.754C346.42 750.707 346.795 751.789 346.834 753H344.022ZM354.332 760.172V771H351.566V747H354.332V755.812H354.566C354.988 754.883 355.621 754.145 356.464 753.598C357.316 753.043 358.449 752.766 359.863 752.766C361.089 752.766 362.164 753.012 363.085 753.504C364.007 753.988 364.722 754.734 365.23 755.742C365.746 756.742 366.003 758.016 366.003 759.563V771H363.238V759.75C363.238 758.32 362.867 757.215 362.125 756.434C361.39 755.645 360.371 755.25 359.066 755.25C358.16 755.25 357.347 755.441 356.628 755.824C355.917 756.207 355.355 756.766 354.941 757.5C354.535 758.234 354.332 759.125 354.332 760.172ZM371.063 771V753H373.829V771H371.063ZM372.469 750C371.93 750 371.465 749.816 371.075 749.449C370.692 749.082 370.5 748.641 370.5 748.125C370.5 747.609 370.692 747.168 371.075 746.801C371.465 746.434 371.93 746.25 372.469 746.25C373.008 746.25 373.469 746.434 373.852 746.801C374.243 747.168 374.438 747.609 374.438 748.125C374.438 748.641 374.243 749.082 373.852 749.449C373.469 749.816 373.008 750 372.469 750ZM386.91 753V755.344H377.207V753H386.91ZM380.113 771V750.516C380.113 749.484 380.355 748.625 380.839 747.937C381.324 747.25 381.953 746.734 382.726 746.391C383.5 746.047 384.316 745.875 385.175 745.875C385.855 745.875 386.41 745.93 386.839 746.039C387.269 746.148 387.589 746.25 387.8 746.344L387.003 748.734C386.863 748.687 386.667 748.629 386.417 748.559C386.175 748.488 385.855 748.453 385.457 748.453C384.542 748.453 383.882 748.684 383.476 749.145C383.078 749.605 382.878 750.281 382.878 751.172V771H380.113ZM398.614 753V755.344H389.286V753H398.614ZM392.004 748.687H394.77V765.844C394.77 766.625 394.883 767.211 395.11 767.602C395.344 767.984 395.641 768.242 396 768.375C396.368 768.5 396.754 768.562 397.161 768.562C397.465 768.562 397.715 768.547 397.911 768.516C398.106 768.477 398.262 768.445 398.379 768.422L398.942 770.906C398.754 770.977 398.493 771.047 398.157 771.117C397.821 771.195 397.395 771.234 396.879 771.234C396.098 771.234 395.333 771.066 394.583 770.73C393.84 770.395 393.223 769.883 392.731 769.195C392.247 768.508 392.004 767.641 392.004 766.594V748.687ZM419.883 753V755.344H410.555V753H419.883ZM413.274 748.687H416.04V765.844C416.04 766.625 416.153 767.211 416.379 767.602C416.614 767.984 416.911 768.242 417.27 768.375C417.637 768.5 418.024 768.562 418.43 768.562C418.735 768.562 418.985 768.547 419.18 768.516C419.375 768.477 419.532 768.445 419.649 768.422L420.211 770.906C420.024 770.977 419.762 771.047 419.426 771.117C419.09 771.195 418.665 771.234 418.149 771.234C417.368 771.234 416.602 771.066 415.852 770.73C415.11 770.395 414.493 769.883 414 769.195C413.516 768.508 413.274 767.641 413.274 766.594V748.687ZM431.163 771.375C429.538 771.375 428.112 770.988 426.885 770.215C425.667 769.441 424.713 768.359 424.026 766.969C423.346 765.578 423.006 763.953 423.006 762.094C423.006 760.219 423.346 758.582 424.026 757.184C424.713 755.785 425.667 754.699 426.885 753.926C428.112 753.152 429.538 752.766 431.163 752.766C432.788 752.766 434.209 753.152 435.428 753.926C436.655 754.699 437.608 755.785 438.288 757.184C438.975 758.582 439.319 760.219 439.319 762.094C439.319 763.953 438.975 765.578 438.288 766.969C437.608 768.359 436.655 769.441 435.428 770.215C434.209 770.988 432.788 771.375 431.163 771.375ZM431.163 768.891C432.397 768.891 433.413 768.574 434.209 767.941C435.006 767.309 435.596 766.477 435.979 765.445C436.362 764.414 436.553 763.297 436.553 762.094C436.553 760.891 436.362 759.77 435.979 758.73C435.596 757.691 435.006 756.852 434.209 756.211C433.413 755.57 432.397 755.25 431.163 755.25C429.928 755.25 428.913 755.57 428.116 756.211C427.319 756.852 426.729 757.691 426.346 758.73C425.963 759.77 425.772 760.891 425.772 762.094C425.772 763.297 425.963 764.414 426.346 765.445C426.729 766.477 427.319 767.309 428.116 767.941C428.913 768.574 429.928 768.891 431.163 768.891ZM328.827 793V795.344H319.499V793H328.827ZM322.218 788.687H324.983V805.844C324.983 806.625 325.097 807.211 325.323 807.602C325.558 807.984 325.854 808.242 326.214 808.375C326.581 808.5 326.968 808.562 327.374 808.562C327.679 808.562 327.929 808.547 328.124 808.516C328.319 808.477 328.476 808.445 328.593 808.422L329.155 810.906C328.968 810.977 328.706 811.047 328.37 811.117C328.034 811.195 327.608 811.234 327.093 811.234C326.312 811.234 325.546 811.066 324.796 810.73C324.054 810.395 323.437 809.883 322.944 809.195C322.46 808.508 322.218 807.641 322.218 806.594V788.687ZM336.14 800.172V811H333.374V787H336.14V795.812H336.374C336.796 794.883 337.429 794.145 338.272 793.598C339.124 793.043 340.257 792.766 341.671 792.766C342.897 792.766 343.972 793.012 344.894 793.504C345.815 793.988 346.53 794.734 347.038 795.742C347.554 796.742 347.812 798.016 347.812 799.563V811H345.046V799.75C345.046 798.32 344.675 797.215 343.933 796.434C343.198 795.645 342.179 795.25 340.874 795.25C339.968 795.25 339.155 795.441 338.437 795.824C337.726 796.207 337.163 796.766 336.749 797.5C336.343 798.234 336.14 799.125 336.14 800.172ZM360.418 811.375C358.684 811.375 357.187 810.992 355.93 810.227C354.68 809.453 353.715 808.375 353.035 806.992C352.363 805.602 352.027 803.984 352.027 802.141C352.027 800.297 352.363 798.672 353.035 797.266C353.715 795.852 354.66 794.75 355.871 793.961C357.09 793.164 358.512 792.766 360.137 792.766C361.074 792.766 362 792.922 362.914 793.234C363.828 793.547 364.66 794.055 365.41 794.758C366.16 795.453 366.758 796.375 367.203 797.523C367.648 798.672 367.871 800.086 367.871 801.766V802.937H353.996V800.547H365.059C365.059 799.531 364.855 798.625 364.449 797.828C364.051 797.031 363.48 796.402 362.738 795.941C362.004 795.48 361.137 795.25 360.137 795.25C359.035 795.25 358.082 795.523 357.277 796.07C356.48 796.609 355.867 797.312 355.438 798.18C355.008 799.047 354.793 799.977 354.793 800.969V802.563C354.793 803.922 355.027 805.074 355.496 806.02C355.973 806.957 356.633 807.672 357.477 808.164C358.32 808.648 359.301 808.891 360.418 808.891C361.145 808.891 361.801 808.789 362.387 808.586C362.98 808.375 363.492 808.063 363.922 807.648C364.352 807.227 364.684 806.703 364.918 806.078L367.59 806.828C367.309 807.734 366.836 808.531 366.172 809.219C365.508 809.898 364.688 810.43 363.711 810.812C362.734 811.188 361.637 811.375 360.418 811.375ZM381.359 811V793H384.031V795.719H384.219C384.547 794.828 385.141 794.105 386 793.551C386.859 792.996 387.828 792.719 388.906 792.719C389.109 792.719 389.363 792.723 389.668 792.73C389.973 792.738 390.203 792.75 390.359 792.766V795.578C390.266 795.555 390.051 795.52 389.715 795.473C389.387 795.418 389.039 795.391 388.672 795.391C387.797 795.391 387.016 795.574 386.328 795.941C385.648 796.301 385.109 796.801 384.711 797.441C384.32 798.074 384.125 798.797 384.125 799.609V811H381.359ZM393.638 811V793H396.403V811H393.638ZM395.044 790C394.505 790 394.04 789.816 393.649 789.449C393.267 789.082 393.075 788.641 393.075 788.125C393.075 787.609 393.267 787.168 393.649 786.801C394.04 786.434 394.505 786.25 395.044 786.25C395.583 786.25 396.044 786.434 396.427 786.801C396.817 787.168 397.013 787.609 397.013 788.125C397.013 788.641 396.817 789.082 396.427 789.449C396.044 789.816 395.583 790 395.044 790ZM408.734 818.125C407.398 818.125 406.25 817.953 405.289 817.609C404.328 817.273 403.527 816.828 402.887 816.273C402.254 815.727 401.75 815.141 401.375 814.516L403.578 812.969C403.828 813.297 404.145 813.672 404.527 814.094C404.91 814.523 405.434 814.895 406.098 815.207C406.77 815.527 407.648 815.687 408.734 815.687C410.188 815.687 411.387 815.336 412.332 814.633C413.277 813.93 413.75 812.828 413.75 811.328V807.672H413.516C413.313 808 413.023 808.406 412.648 808.891C412.281 809.367 411.75 809.793 411.055 810.168C410.367 810.535 409.438 810.719 408.266 810.719C406.813 810.719 405.508 810.375 404.352 809.688C403.203 809 402.293 808 401.621 806.687C400.957 805.375 400.625 803.781 400.625 801.906C400.625 800.062 400.949 798.457 401.598 797.09C402.246 795.715 403.148 794.652 404.305 793.902C405.461 793.145 406.797 792.766 408.312 792.766C409.484 792.766 410.414 792.961 411.102 793.352C411.797 793.734 412.328 794.172 412.695 794.664C413.07 795.148 413.359 795.547 413.563 795.859H413.844V793H416.516V811.516C416.516 813.062 416.164 814.32 415.461 815.289C414.766 816.266 413.828 816.98 412.648 817.434C411.477 817.895 410.172 818.125 408.734 818.125ZM408.641 808.234C409.75 808.234 410.688 807.98 411.453 807.473C412.219 806.965 412.801 806.234 413.199 805.281C413.598 804.328 413.797 803.187 413.797 801.859C413.797 800.562 413.602 799.418 413.211 798.426C412.82 797.434 412.242 796.656 411.477 796.094C410.711 795.531 409.766 795.25 408.641 795.25C407.469 795.25 406.492 795.547 405.711 796.141C404.938 796.734 404.355 797.531 403.965 798.531C403.582 799.531 403.391 800.641 403.391 801.859C403.391 803.109 403.586 804.215 403.977 805.176C404.375 806.129 404.961 806.879 405.734 807.426C406.516 807.965 407.484 808.234 408.641 808.234ZM424.344 800.172V811H421.578V787H424.344V795.812H424.578C425 794.883 425.633 794.145 426.477 793.598C427.328 793.043 428.461 792.766 429.875 792.766C431.102 792.766 432.176 793.012 433.098 793.504C434.02 793.988 434.734 794.734 435.242 795.742C435.758 796.742 436.016 798.016 436.016 799.563V811H433.25V799.75C433.25 798.32 432.879 797.215 432.137 796.434C431.402 795.645 430.383 795.25 429.078 795.25C428.172 795.25 427.359 795.441 426.641 795.824C425.93 796.207 425.367 796.766 424.953 797.5C424.547 798.234 424.344 799.125 424.344 800.172ZM448.903 793V795.344H439.575V793H448.903ZM442.294 788.687H445.06V805.844C445.06 806.625 445.173 807.211 445.399 807.602C445.634 807.984 445.931 808.242 446.29 808.375C446.657 808.5 447.044 808.562 447.45 808.562C447.755 808.562 448.005 808.547 448.2 808.516C448.396 808.477 448.552 808.445 448.669 808.422L449.231 810.906C449.044 810.977 448.782 811.047 448.446 811.117C448.11 811.195 447.685 811.234 447.169 811.234C446.388 811.234 445.622 811.066 444.872 810.73C444.13 810.395 443.513 809.883 443.021 809.195C442.536 808.508 442.294 807.641 442.294 806.594V788.687Z" fill="white"/>
<path d="M161.365 1087V1111H158.459V1087H161.365ZM169.583 1100.17V1111H166.817V1093H169.489V1095.81H169.724C170.146 1094.9 170.786 1094.16 171.646 1093.61C172.505 1093.05 173.614 1092.77 174.974 1092.77C176.192 1092.77 177.259 1093.02 178.173 1093.52C179.087 1094.01 179.798 1094.76 180.306 1095.77C180.813 1096.77 181.067 1098.03 181.067 1099.56V1111H178.302V1099.75C178.302 1098.34 177.935 1097.23 177.2 1096.45C176.466 1095.65 175.458 1095.25 174.177 1095.25C173.294 1095.25 172.505 1095.44 171.81 1095.82C171.122 1096.21 170.579 1096.77 170.181 1097.5C169.782 1098.23 169.583 1099.12 169.583 1100.17ZM198.871 1097.03L196.387 1097.73C196.23 1097.32 196 1096.92 195.695 1096.53C195.398 1096.13 194.992 1095.8 194.477 1095.54C193.961 1095.29 193.301 1095.16 192.496 1095.16C191.395 1095.16 190.477 1095.41 189.742 1095.92C189.016 1096.42 188.652 1097.05 188.652 1097.83C188.652 1098.52 188.902 1099.06 189.402 1099.46C189.902 1099.86 190.684 1100.19 191.746 1100.45L194.418 1101.11C196.027 1101.5 197.227 1102.1 198.016 1102.9C198.805 1103.7 199.199 1104.73 199.199 1105.98C199.199 1107.02 198.902 1107.94 198.309 1108.75C197.723 1109.56 196.902 1110.2 195.848 1110.67C194.793 1111.14 193.566 1111.38 192.168 1111.38C190.332 1111.38 188.813 1110.98 187.609 1110.18C186.406 1109.38 185.645 1108.22 185.324 1106.69L187.949 1106.03C188.199 1107 188.672 1107.73 189.367 1108.21C190.07 1108.7 190.988 1108.94 192.121 1108.94C193.41 1108.94 194.434 1108.66 195.191 1108.12C195.957 1107.56 196.34 1106.9 196.34 1106.12C196.34 1105.5 196.121 1104.98 195.684 1104.55C195.246 1104.12 194.574 1103.8 193.668 1103.59L190.668 1102.89C189.02 1102.5 187.809 1101.89 187.035 1101.07C186.27 1100.25 185.887 1099.21 185.887 1097.97C185.887 1096.95 186.172 1096.05 186.742 1095.27C187.32 1094.49 188.105 1093.88 189.098 1093.43C190.098 1092.99 191.23 1092.77 192.496 1092.77C194.277 1092.77 195.676 1093.16 196.691 1093.94C197.715 1094.72 198.441 1095.75 198.871 1097.03ZM210.909 1111.38C209.175 1111.38 207.679 1110.99 206.421 1110.23C205.171 1109.45 204.206 1108.37 203.526 1106.99C202.854 1105.6 202.519 1103.98 202.519 1102.14C202.519 1100.3 202.854 1098.67 203.526 1097.27C204.206 1095.85 205.151 1094.75 206.362 1093.96C207.581 1093.16 209.003 1092.77 210.628 1092.77C211.565 1092.77 212.491 1092.92 213.405 1093.23C214.319 1093.55 215.151 1094.05 215.901 1094.76C216.651 1095.45 217.249 1096.37 217.694 1097.52C218.14 1098.67 218.362 1100.09 218.362 1101.77V1102.94H204.487V1100.55H215.55C215.55 1099.53 215.347 1098.62 214.94 1097.83C214.542 1097.03 213.972 1096.4 213.229 1095.94C212.495 1095.48 211.628 1095.25 210.628 1095.25C209.526 1095.25 208.573 1095.52 207.769 1096.07C206.972 1096.61 206.358 1097.31 205.929 1098.18C205.499 1099.05 205.284 1099.98 205.284 1100.97V1102.56C205.284 1103.92 205.519 1105.07 205.987 1106.02C206.464 1106.96 207.124 1107.67 207.968 1108.16C208.812 1108.65 209.792 1108.89 210.909 1108.89C211.636 1108.89 212.292 1108.79 212.878 1108.59C213.472 1108.37 213.983 1108.06 214.413 1107.65C214.843 1107.23 215.175 1106.7 215.409 1106.08L218.081 1106.83C217.8 1107.73 217.327 1108.53 216.663 1109.22C215.999 1109.9 215.179 1110.43 214.202 1110.81C213.226 1111.19 212.128 1111.38 210.909 1111.38ZM222.569 1111V1093H225.241V1095.72H225.429C225.757 1094.83 226.351 1094.11 227.21 1093.55C228.069 1093 229.038 1092.72 230.116 1092.72C230.319 1092.72 230.573 1092.72 230.878 1092.73C231.183 1092.74 231.413 1092.75 231.569 1092.77V1095.58C231.476 1095.55 231.261 1095.52 230.925 1095.47C230.597 1095.42 230.249 1095.39 229.882 1095.39C229.007 1095.39 228.226 1095.57 227.538 1095.94C226.858 1096.3 226.319 1096.8 225.921 1097.44C225.53 1098.07 225.335 1098.8 225.335 1099.61V1111H222.569ZM243.804 1093V1095.34H234.476V1093H243.804ZM237.194 1088.69H239.96V1105.84C239.96 1106.62 240.073 1107.21 240.3 1107.6C240.534 1107.98 240.831 1108.24 241.19 1108.38C241.558 1108.5 241.944 1108.56 242.351 1108.56C242.655 1108.56 242.905 1108.55 243.101 1108.52C243.296 1108.48 243.452 1108.45 243.569 1108.42L244.132 1110.91C243.944 1110.98 243.683 1111.05 243.347 1111.12C243.011 1111.2 242.585 1111.23 242.069 1111.23C241.288 1111.23 240.522 1111.07 239.772 1110.73C239.03 1110.39 238.413 1109.88 237.921 1109.2C237.437 1108.51 237.194 1107.64 237.194 1106.59V1088.69ZM265.636 1087V1111H262.729V1090.05H262.589L256.729 1093.94V1090.98L262.729 1087H265.636ZM272.538 1111V1108.89L280.46 1100.22C281.39 1099.2 282.155 1098.32 282.757 1097.57C283.358 1096.81 283.804 1096.1 284.093 1095.44C284.39 1094.77 284.538 1094.06 284.538 1093.33C284.538 1092.48 284.335 1091.75 283.929 1091.14C283.53 1090.52 282.983 1090.04 282.288 1089.71C281.593 1089.37 280.812 1089.2 279.944 1089.2C279.022 1089.2 278.218 1089.39 277.53 1089.78C276.851 1090.15 276.323 1090.68 275.948 1091.36C275.581 1092.04 275.397 1092.84 275.397 1093.75H272.632C272.632 1092.34 272.956 1091.11 273.604 1090.05C274.253 1088.98 275.136 1088.16 276.253 1087.56C277.378 1086.97 278.64 1086.67 280.038 1086.67C281.444 1086.67 282.69 1086.97 283.776 1087.56C284.862 1088.16 285.714 1088.96 286.331 1089.96C286.948 1090.97 287.257 1092.09 287.257 1093.33C287.257 1094.21 287.097 1095.07 286.776 1095.92C286.464 1096.75 285.917 1097.69 285.136 1098.72C284.362 1099.74 283.288 1100.99 281.913 1102.47L276.522 1108.23V1108.42H287.679V1111H272.538ZM301.847 1111V1093H304.612V1111H301.847ZM303.253 1090C302.714 1090 302.249 1089.82 301.858 1089.45C301.476 1089.08 301.284 1088.64 301.284 1088.13C301.284 1087.61 301.476 1087.17 301.858 1086.8C302.249 1086.43 302.714 1086.25 303.253 1086.25C303.792 1086.25 304.253 1086.43 304.636 1086.8C305.026 1087.17 305.222 1087.61 305.222 1088.13C305.222 1088.64 305.026 1089.08 304.636 1089.45C304.253 1089.82 303.792 1090 303.253 1090ZM312.443 1100.17V1111H309.678V1093H312.35V1095.81H312.584C313.006 1094.9 313.646 1094.16 314.506 1093.61C315.365 1093.05 316.475 1092.77 317.834 1092.77C319.053 1092.77 320.119 1093.02 321.033 1093.52C321.947 1094.01 322.658 1094.76 323.166 1095.77C323.674 1096.77 323.928 1098.03 323.928 1099.56V1111H321.162V1099.75C321.162 1098.34 320.795 1097.23 320.061 1096.45C319.326 1095.65 318.318 1095.25 317.037 1095.25C316.154 1095.25 315.365 1095.44 314.67 1095.82C313.982 1096.21 313.439 1096.77 313.041 1097.5C312.643 1098.23 312.443 1099.12 312.443 1100.17ZM346.091 1093V1095.34H336.763V1093H346.091ZM339.481 1088.69H342.247V1105.84C342.247 1106.62 342.36 1107.21 342.587 1107.6C342.821 1107.98 343.118 1108.24 343.478 1108.38C343.845 1108.5 344.231 1108.56 344.638 1108.56C344.942 1108.56 345.192 1108.55 345.388 1108.52C345.583 1108.48 345.739 1108.45 345.856 1108.42L346.419 1110.91C346.231 1110.98 345.97 1111.05 345.634 1111.12C345.298 1111.2 344.872 1111.23 344.356 1111.23C343.575 1111.23 342.81 1111.07 342.06 1110.73C341.317 1110.39 340.7 1109.88 340.208 1109.2C339.724 1108.51 339.481 1107.64 339.481 1106.59V1088.69ZM353.403 1100.17V1111H350.638V1087H353.403V1095.81H353.638C354.06 1094.88 354.692 1094.14 355.536 1093.6C356.388 1093.04 357.521 1092.77 358.935 1092.77C360.161 1092.77 361.235 1093.01 362.157 1093.5C363.079 1093.99 363.794 1094.73 364.302 1095.74C364.817 1096.74 365.075 1098.02 365.075 1099.56V1111H362.31V1099.75C362.31 1098.32 361.938 1097.21 361.196 1096.43C360.462 1095.64 359.442 1095.25 358.138 1095.25C357.231 1095.25 356.419 1095.44 355.7 1095.82C354.989 1096.21 354.427 1096.77 354.013 1097.5C353.606 1098.23 353.403 1099.12 353.403 1100.17ZM377.682 1111.38C375.947 1111.38 374.451 1110.99 373.193 1110.23C371.943 1109.45 370.979 1108.37 370.299 1106.99C369.627 1105.6 369.291 1103.98 369.291 1102.14C369.291 1100.3 369.627 1098.67 370.299 1097.27C370.979 1095.85 371.924 1094.75 373.135 1093.96C374.354 1093.16 375.775 1092.77 377.4 1092.77C378.338 1092.77 379.264 1092.92 380.178 1093.23C381.092 1093.55 381.924 1094.05 382.674 1094.76C383.424 1095.45 384.021 1096.37 384.467 1097.52C384.912 1098.67 385.135 1100.09 385.135 1101.77V1102.94H371.26V1100.55H382.322C382.322 1099.53 382.119 1098.62 381.713 1097.83C381.314 1097.03 380.744 1096.4 380.002 1095.94C379.268 1095.48 378.4 1095.25 377.4 1095.25C376.299 1095.25 375.346 1095.52 374.541 1096.07C373.744 1096.61 373.131 1097.31 372.701 1098.18C372.271 1099.05 372.057 1099.98 372.057 1100.97V1102.56C372.057 1103.92 372.291 1105.07 372.76 1106.02C373.236 1106.96 373.896 1107.67 374.74 1108.16C375.584 1108.65 376.564 1108.89 377.682 1108.89C378.408 1108.89 379.064 1108.79 379.65 1108.59C380.244 1108.37 380.756 1108.06 381.186 1107.65C381.615 1107.23 381.947 1106.7 382.182 1106.08L384.854 1106.83C384.572 1107.73 384.1 1108.53 383.436 1109.22C382.771 1109.9 381.951 1110.43 380.975 1110.81C379.998 1111.19 378.9 1111.38 377.682 1111.38ZM406.17 1111.38C404.436 1111.38 402.939 1110.99 401.682 1110.23C400.432 1109.45 399.467 1108.37 398.787 1106.99C398.115 1105.6 397.779 1103.98 397.779 1102.14C397.779 1100.3 398.115 1098.67 398.787 1097.27C399.467 1095.85 400.412 1094.75 401.623 1093.96C402.842 1093.16 404.264 1092.77 405.889 1092.77C406.826 1092.77 407.752 1092.92 408.666 1093.23C409.58 1093.55 410.412 1094.05 411.162 1094.76C411.912 1095.45 412.51 1096.37 412.955 1097.52C413.4 1098.67 413.623 1100.09 413.623 1101.77V1102.94H399.748V1100.55H410.811C410.811 1099.53 410.607 1098.62 410.201 1097.83C409.803 1097.03 409.232 1096.4 408.49 1095.94C407.756 1095.48 406.889 1095.25 405.889 1095.25C404.787 1095.25 403.834 1095.52 403.029 1096.07C402.232 1096.61 401.619 1097.31 401.189 1098.18C400.76 1099.05 400.545 1099.98 400.545 1100.97V1102.56C400.545 1103.92 400.779 1105.07 401.248 1106.02C401.725 1106.96 402.385 1107.67 403.229 1108.16C404.072 1108.65 405.053 1108.89 406.17 1108.89C406.896 1108.89 407.553 1108.79 408.139 1108.59C408.732 1108.37 409.244 1108.06 409.674 1107.65C410.104 1107.23 410.436 1106.7 410.67 1106.08L413.342 1106.83C413.061 1107.73 412.588 1108.53 411.924 1109.22C411.26 1109.9 410.439 1110.43 409.463 1110.81C408.486 1111.19 407.389 1111.38 406.17 1111.38ZM417.83 1111V1093H420.502V1095.81H420.736C421.111 1094.85 421.717 1094.11 422.553 1093.57C423.389 1093.04 424.393 1092.77 425.564 1092.77C426.752 1092.77 427.74 1093.04 428.529 1093.57C429.326 1094.11 429.947 1094.85 430.393 1095.81H430.58C431.041 1094.88 431.732 1094.14 432.654 1093.6C433.576 1093.04 434.682 1092.77 435.971 1092.77C437.58 1092.77 438.896 1093.27 439.92 1094.28C440.943 1095.28 441.455 1096.84 441.455 1098.95V1111H438.689V1098.95C438.689 1097.62 438.326 1096.68 437.6 1096.11C436.873 1095.54 436.018 1095.25 435.033 1095.25C433.768 1095.25 432.787 1095.63 432.092 1096.4C431.396 1097.16 431.049 1098.12 431.049 1099.28V1111H428.236V1098.67C428.236 1097.65 427.904 1096.82 427.24 1096.2C426.576 1095.57 425.721 1095.25 424.674 1095.25C423.955 1095.25 423.283 1095.44 422.658 1095.82C422.041 1096.21 421.541 1096.74 421.158 1097.42C420.783 1098.09 420.596 1098.87 420.596 1099.75V1111H417.83ZM446.512 1117.75V1093H449.184V1095.86H449.512C449.715 1095.55 449.996 1095.15 450.355 1094.66C450.723 1094.17 451.246 1093.73 451.926 1093.35C452.613 1092.96 453.543 1092.77 454.715 1092.77C456.23 1092.77 457.566 1093.14 458.723 1093.9C459.879 1094.66 460.781 1095.73 461.43 1097.12C462.078 1098.52 462.402 1100.16 462.402 1102.05C462.402 1103.95 462.078 1105.61 461.43 1107C460.781 1108.39 459.883 1109.47 458.734 1110.24C457.586 1111 456.262 1111.38 454.762 1111.38C453.605 1111.38 452.68 1111.18 451.984 1110.8C451.289 1110.41 450.754 1109.97 450.379 1109.48C450.004 1108.98 449.715 1108.56 449.512 1108.23H449.277V1117.75H446.512ZM449.23 1102C449.23 1103.36 449.43 1104.56 449.828 1105.6C450.227 1106.63 450.809 1107.44 451.574 1108.02C452.34 1108.6 453.277 1108.89 454.387 1108.89C455.543 1108.89 456.508 1108.59 457.281 1107.98C458.063 1107.36 458.648 1106.53 459.039 1105.49C459.438 1104.45 459.637 1103.28 459.637 1102C459.637 1100.73 459.441 1099.59 459.051 1098.58C458.668 1097.55 458.086 1096.75 457.305 1096.15C456.531 1095.55 455.559 1095.25 454.387 1095.25C453.262 1095.25 452.316 1095.54 451.551 1096.11C450.785 1096.67 450.207 1097.46 449.816 1098.47C449.426 1099.48 449.23 1100.66 449.23 1102ZM474.449 1093V1095.34H465.121V1093H474.449ZM467.84 1088.69H470.605V1105.84C470.605 1106.62 470.719 1107.21 470.945 1107.6C471.18 1107.98 471.477 1108.24 471.836 1108.38C472.203 1108.5 472.59 1108.56 472.996 1108.56C473.301 1108.56 473.551 1108.55 473.746 1108.52C473.941 1108.48 474.098 1108.45 474.215 1108.42L474.777 1110.91C474.59 1110.98 474.328 1111.05 473.992 1111.12C473.656 1111.2 473.23 1111.23 472.715 1111.23C471.934 1111.23 471.168 1111.07 470.418 1110.73C469.676 1110.39 469.059 1109.88 468.566 1109.2C468.082 1108.51 467.84 1107.64 467.84 1106.59V1088.69ZM480.391 1117.75C479.922 1117.75 479.504 1117.71 479.137 1117.63C478.77 1117.56 478.516 1117.49 478.375 1117.42L479.078 1114.98C479.75 1115.16 480.344 1115.22 480.859 1115.17C481.375 1115.12 481.832 1114.89 482.23 1114.48C482.637 1114.07 483.008 1113.41 483.344 1112.5L483.859 1111.09L477.203 1093H480.203L485.172 1107.34H485.359L490.328 1093H493.328L485.688 1113.62C485.344 1114.55 484.918 1115.32 484.41 1115.93C483.902 1116.55 483.313 1117.01 482.641 1117.3C481.977 1117.6 481.227 1117.75 480.391 1117.75ZM311.906 1137.03L309.421 1137.73C309.265 1137.32 309.035 1136.92 308.73 1136.53C308.433 1136.13 308.027 1135.8 307.511 1135.54C306.996 1135.29 306.335 1135.16 305.531 1135.16C304.429 1135.16 303.511 1135.41 302.777 1135.92C302.05 1136.42 301.687 1137.05 301.687 1137.83C301.687 1138.52 301.937 1139.06 302.437 1139.46C302.937 1139.86 303.718 1140.19 304.781 1140.45L307.453 1141.11C309.062 1141.5 310.261 1142.1 311.05 1142.9C311.839 1143.7 312.234 1144.73 312.234 1145.98C312.234 1147.02 311.937 1147.94 311.343 1148.75C310.757 1149.56 309.937 1150.2 308.882 1150.67C307.828 1151.14 306.601 1151.38 305.203 1151.38C303.367 1151.38 301.847 1150.98 300.644 1150.18C299.441 1149.38 298.679 1148.22 298.359 1146.69L300.984 1146.03C301.234 1147 301.707 1147.73 302.402 1148.21C303.105 1148.7 304.023 1148.94 305.156 1148.94C306.445 1148.94 307.468 1148.66 308.226 1148.12C308.992 1147.56 309.375 1146.9 309.375 1146.12C309.375 1145.5 309.156 1144.98 308.718 1144.55C308.281 1144.12 307.609 1143.8 306.703 1143.59L303.703 1142.89C302.054 1142.5 300.843 1141.89 300.07 1141.07C299.304 1140.25 298.921 1139.21 298.921 1137.97C298.921 1136.95 299.207 1136.05 299.777 1135.27C300.355 1134.49 301.14 1133.88 302.132 1133.43C303.132 1132.99 304.265 1132.77 305.531 1132.77C307.312 1132.77 308.71 1133.16 309.726 1133.94C310.75 1134.72 311.476 1135.75 311.906 1137.03ZM319.163 1127V1151H316.397V1127H319.163ZM331.541 1151.38C329.916 1151.38 328.49 1150.99 327.263 1150.21C326.044 1149.44 325.091 1148.36 324.404 1146.97C323.724 1145.58 323.384 1143.95 323.384 1142.09C323.384 1140.22 323.724 1138.58 324.404 1137.18C325.091 1135.79 326.044 1134.7 327.263 1133.93C328.49 1133.15 329.916 1132.77 331.541 1132.77C333.166 1132.77 334.587 1133.15 335.806 1133.93C337.033 1134.7 337.986 1135.79 338.666 1137.18C339.353 1138.58 339.697 1140.22 339.697 1142.09C339.697 1143.95 339.353 1145.58 338.666 1146.97C337.986 1148.36 337.033 1149.44 335.806 1150.21C334.587 1150.99 333.166 1151.38 331.541 1151.38ZM331.541 1148.89C332.775 1148.89 333.791 1148.57 334.587 1147.94C335.384 1147.31 335.974 1146.48 336.357 1145.45C336.74 1144.41 336.931 1143.3 336.931 1142.09C336.931 1140.89 336.74 1139.77 336.357 1138.73C335.974 1137.69 335.384 1136.85 334.587 1136.21C333.791 1135.57 332.775 1135.25 331.541 1135.25C330.306 1135.25 329.291 1135.57 328.494 1136.21C327.697 1136.85 327.107 1137.69 326.724 1138.73C326.341 1139.77 326.15 1140.89 326.15 1142.09C326.15 1143.3 326.341 1144.41 326.724 1145.45C327.107 1146.48 327.697 1147.31 328.494 1147.94C329.291 1148.57 330.306 1148.89 331.541 1148.89ZM351.747 1133V1135.34H342.418V1133H351.747ZM345.137 1128.69H347.903V1145.84C347.903 1146.62 348.016 1147.21 348.243 1147.6C348.477 1147.98 348.774 1148.24 349.133 1148.38C349.5 1148.5 349.887 1148.56 350.293 1148.56C350.598 1148.56 350.848 1148.55 351.043 1148.52C351.239 1148.48 351.395 1148.45 351.512 1148.42L352.075 1150.91C351.887 1150.98 351.625 1151.05 351.29 1151.12C350.954 1151.2 350.528 1151.23 350.012 1151.23C349.231 1151.23 348.465 1151.07 347.715 1150.73C346.973 1150.39 346.356 1149.88 345.864 1149.2C345.379 1148.51 345.137 1147.64 345.137 1146.59V1128.69Z" fill="white"/>
<path d="M202.353 323V305H205.025V307.719H205.212C205.541 306.828 206.134 306.105 206.994 305.551C207.853 304.996 208.822 304.719 209.9 304.719C210.103 304.719 210.357 304.723 210.662 304.73C210.966 304.738 211.197 304.75 211.353 304.766V307.578C211.259 307.555 211.044 307.52 210.708 307.473C210.38 307.418 210.033 307.391 209.666 307.391C208.791 307.391 208.009 307.574 207.322 307.941C206.642 308.301 206.103 308.801 205.705 309.441C205.314 310.074 205.119 310.797 205.119 311.609V323H202.353ZM219.928 323.422C218.788 323.422 217.752 323.207 216.823 322.777C215.893 322.34 215.155 321.711 214.608 320.891C214.061 320.063 213.788 319.062 213.788 317.891C213.788 316.859 213.991 316.023 214.397 315.383C214.803 314.734 215.346 314.227 216.026 313.859C216.706 313.492 217.456 313.219 218.276 313.039C219.104 312.852 219.936 312.703 220.772 312.594C221.866 312.453 222.752 312.348 223.432 312.277C224.12 312.199 224.62 312.07 224.932 311.891C225.252 311.711 225.413 311.398 225.413 310.953V310.859C225.413 309.703 225.096 308.805 224.463 308.164C223.838 307.523 222.889 307.203 221.616 307.203C220.295 307.203 219.26 307.492 218.51 308.07C217.76 308.648 217.233 309.266 216.928 309.922L214.303 308.984C214.772 307.891 215.397 307.039 216.178 306.43C216.967 305.812 217.827 305.383 218.756 305.141C219.694 304.891 220.616 304.766 221.522 304.766C222.1 304.766 222.764 304.836 223.514 304.977C224.272 305.109 225.002 305.387 225.706 305.809C226.417 306.23 227.006 306.867 227.475 307.719C227.944 308.57 228.178 309.711 228.178 311.141V323H225.413V320.562H225.272C225.084 320.953 224.772 321.371 224.334 321.816C223.897 322.262 223.315 322.641 222.588 322.953C221.862 323.266 220.975 323.422 219.928 323.422ZM220.35 320.938C221.444 320.938 222.366 320.723 223.116 320.293C223.874 319.863 224.444 319.309 224.827 318.629C225.217 317.949 225.413 317.234 225.413 316.484V313.953C225.295 314.094 225.038 314.223 224.639 314.34C224.249 314.449 223.795 314.547 223.28 314.633C222.772 314.711 222.276 314.781 221.792 314.844C221.315 314.898 220.928 314.945 220.631 314.984C219.913 315.078 219.241 315.23 218.616 315.441C217.999 315.645 217.499 315.953 217.116 316.367C216.741 316.773 216.553 317.328 216.553 318.031C216.553 318.992 216.909 319.719 217.62 320.211C218.338 320.695 219.249 320.938 220.35 320.938ZM235.992 312.172V323H233.226V305H235.898V307.812H236.132C236.554 306.898 237.195 306.164 238.054 305.609C238.914 305.047 240.023 304.766 241.382 304.766C242.601 304.766 243.667 305.016 244.582 305.516C245.496 306.008 246.207 306.758 246.714 307.766C247.222 308.766 247.476 310.031 247.476 311.563V323H244.71V311.75C244.71 310.336 244.343 309.234 243.609 308.445C242.875 307.648 241.867 307.25 240.585 307.25C239.703 307.25 238.914 307.441 238.218 307.824C237.531 308.207 236.988 308.766 236.589 309.5C236.191 310.234 235.992 311.125 235.992 312.172ZM259.795 330.125C258.459 330.125 257.311 329.953 256.35 329.609C255.389 329.273 254.588 328.828 253.948 328.273C253.315 327.727 252.811 327.141 252.436 326.516L254.639 324.969C254.889 325.297 255.206 325.672 255.588 326.094C255.971 326.523 256.495 326.895 257.159 327.207C257.831 327.527 258.709 327.687 259.795 327.687C261.249 327.687 262.448 327.336 263.393 326.633C264.338 325.93 264.811 324.828 264.811 323.328V319.672H264.577C264.374 320 264.084 320.406 263.709 320.891C263.342 321.367 262.811 321.793 262.116 322.168C261.428 322.535 260.499 322.719 259.327 322.719C257.874 322.719 256.569 322.375 255.413 321.688C254.264 321 253.354 320 252.682 318.687C252.018 317.375 251.686 315.781 251.686 313.906C251.686 312.062 252.01 310.457 252.659 309.09C253.307 307.715 254.209 306.652 255.366 305.902C256.522 305.145 257.858 304.766 259.374 304.766C260.545 304.766 261.475 304.961 262.163 305.352C262.858 305.734 263.389 306.172 263.756 306.664C264.131 307.148 264.42 307.547 264.624 307.859H264.905V305H267.577V323.516C267.577 325.062 267.225 326.32 266.522 327.289C265.827 328.266 264.889 328.98 263.709 329.434C262.538 329.895 261.233 330.125 259.795 330.125ZM259.702 320.234C260.811 320.234 261.749 319.98 262.514 319.473C263.28 318.965 263.862 318.234 264.26 317.281C264.659 316.328 264.858 315.187 264.858 313.859C264.858 312.562 264.663 311.418 264.272 310.426C263.881 309.434 263.303 308.656 262.538 308.094C261.772 307.531 260.827 307.25 259.702 307.25C258.53 307.25 257.553 307.547 256.772 308.141C255.999 308.734 255.417 309.531 255.026 310.531C254.643 311.531 254.452 312.641 254.452 313.859C254.452 315.109 254.647 316.215 255.038 317.176C255.436 318.129 256.022 318.879 256.795 319.426C257.577 319.965 258.545 320.234 259.702 320.234ZM280.186 323.375C278.452 323.375 276.956 322.992 275.698 322.227C274.448 321.453 273.483 320.375 272.803 318.992C272.131 317.602 271.795 315.984 271.795 314.141C271.795 312.297 272.131 310.672 272.803 309.266C273.483 307.852 274.428 306.75 275.639 305.961C276.858 305.164 278.28 304.766 279.905 304.766C280.842 304.766 281.768 304.922 282.682 305.234C283.596 305.547 284.428 306.055 285.178 306.758C285.928 307.453 286.526 308.375 286.971 309.523C287.417 310.672 287.639 312.086 287.639 313.766V314.937H273.764V312.547H284.827C284.827 311.531 284.624 310.625 284.217 309.828C283.819 309.031 283.249 308.402 282.506 307.941C281.772 307.48 280.905 307.25 279.905 307.25C278.803 307.25 277.85 307.523 277.045 308.07C276.249 308.609 275.635 309.312 275.206 310.18C274.776 311.047 274.561 311.977 274.561 312.969V314.563C274.561 315.922 274.795 317.074 275.264 318.02C275.741 318.957 276.401 319.672 277.245 320.164C278.088 320.648 279.069 320.891 280.186 320.891C280.913 320.891 281.569 320.789 282.155 320.586C282.749 320.375 283.26 320.063 283.69 319.648C284.12 319.227 284.452 318.703 284.686 318.078L287.358 318.828C287.077 319.734 286.604 320.531 285.94 321.219C285.276 321.898 284.456 322.43 283.479 322.812C282.502 323.188 281.405 323.375 280.186 323.375ZM308.44 323.375C306.815 323.375 305.389 322.988 304.163 322.215C302.944 321.441 301.991 320.359 301.303 318.969C300.624 317.578 300.284 315.953 300.284 314.094C300.284 312.219 300.624 310.582 301.303 309.184C301.991 307.785 302.944 306.699 304.163 305.926C305.389 305.152 306.815 304.766 308.44 304.766C310.065 304.766 311.487 305.152 312.706 305.926C313.932 306.699 314.885 307.785 315.565 309.184C316.252 310.582 316.596 312.219 316.596 314.094C316.596 315.953 316.252 317.578 315.565 318.969C314.885 320.359 313.932 321.441 312.706 322.215C311.487 322.988 310.065 323.375 308.44 323.375ZM308.44 320.891C309.674 320.891 310.69 320.574 311.487 319.941C312.284 319.309 312.874 318.477 313.256 317.445C313.639 316.414 313.831 315.297 313.831 314.094C313.831 312.891 313.639 311.77 313.256 310.73C312.874 309.691 312.284 308.852 311.487 308.211C310.69 307.57 309.674 307.25 308.44 307.25C307.206 307.25 306.19 307.57 305.393 308.211C304.596 308.852 304.006 309.691 303.624 310.73C303.241 311.77 303.049 312.891 303.049 314.094C303.049 315.297 303.241 316.414 303.624 317.445C304.006 318.477 304.596 319.309 305.393 319.941C306.19 320.574 307.206 320.891 308.44 320.891ZM328.833 305V307.344H319.13V305H328.833ZM322.037 323V302.516C322.037 301.484 322.279 300.625 322.763 299.937C323.248 299.25 323.876 298.734 324.65 298.391C325.423 298.047 326.24 297.875 327.099 297.875C327.779 297.875 328.333 297.93 328.763 298.039C329.193 298.148 329.513 298.25 329.724 298.344L328.927 300.734C328.787 300.687 328.591 300.629 328.341 300.559C328.099 300.488 327.779 300.453 327.38 300.453C326.466 300.453 325.806 300.684 325.4 301.145C325.001 301.605 324.802 302.281 324.802 303.172V323H322.037ZM166.237 352.172V363H163.472V345H166.144V347.812H166.378C166.8 346.898 167.44 346.164 168.3 345.609C169.159 345.047 170.269 344.766 171.628 344.766C172.847 344.766 173.913 345.016 174.827 345.516C175.741 346.008 176.452 346.758 176.96 347.766C177.468 348.766 177.722 350.031 177.722 351.563V363H174.956V351.75C174.956 350.336 174.589 349.234 173.854 348.445C173.12 347.648 172.112 347.25 170.831 347.25C169.948 347.25 169.159 347.441 168.464 347.824C167.776 348.207 167.233 348.766 166.835 349.5C166.437 350.234 166.237 351.125 166.237 352.172ZM194.119 355.641V345H196.885V363H194.119V359.953H193.932C193.51 360.867 192.854 361.645 191.963 362.285C191.072 362.918 189.947 363.234 188.588 363.234C187.463 363.234 186.463 362.988 185.588 362.496C184.713 361.996 184.025 361.246 183.525 360.246C183.025 359.238 182.775 357.969 182.775 356.437V345H185.541V356.25C185.541 357.562 185.908 358.609 186.643 359.391C187.385 360.172 188.33 360.562 189.479 360.562C190.166 360.562 190.865 360.387 191.576 360.035C192.295 359.684 192.896 359.145 193.381 358.418C193.873 357.691 194.119 356.766 194.119 355.641ZM201.95 363V345H204.622V347.812H204.856C205.231 346.852 205.837 346.105 206.673 345.574C207.509 345.035 208.513 344.766 209.685 344.766C210.872 344.766 211.86 345.035 212.649 345.574C213.446 346.105 214.067 346.852 214.513 347.812H214.7C215.161 346.883 215.853 346.145 216.774 345.598C217.696 345.043 218.802 344.766 220.091 344.766C221.7 344.766 223.017 345.27 224.04 346.277C225.063 347.277 225.575 348.836 225.575 350.953V363H222.81V350.953C222.81 349.625 222.446 348.676 221.72 348.105C220.993 347.535 220.138 347.25 219.153 347.25C217.888 347.25 216.907 347.633 216.212 348.398C215.517 349.156 215.169 350.117 215.169 351.281V363H212.356V350.672C212.356 349.648 212.024 348.824 211.36 348.199C210.696 347.566 209.841 347.25 208.794 347.25C208.075 347.25 207.403 347.441 206.778 347.824C206.161 348.207 205.661 348.738 205.278 349.418C204.903 350.09 204.716 350.867 204.716 351.75V363H201.95ZM231.007 363V339H233.772V347.859H234.007C234.21 347.547 234.491 347.148 234.851 346.664C235.218 346.172 235.741 345.734 236.421 345.352C237.108 344.961 238.038 344.766 239.21 344.766C240.726 344.766 242.062 345.145 243.218 345.902C244.374 346.66 245.276 347.734 245.925 349.125C246.573 350.516 246.897 352.156 246.897 354.047C246.897 355.953 246.573 357.605 245.925 359.004C245.276 360.395 244.378 361.473 243.229 362.238C242.081 362.996 240.757 363.375 239.257 363.375C238.101 363.375 237.175 363.184 236.479 362.801C235.784 362.41 235.249 361.969 234.874 361.477C234.499 360.977 234.21 360.562 234.007 360.234H233.679V363H231.007ZM233.726 354C233.726 355.359 233.925 356.559 234.323 357.598C234.722 358.629 235.304 359.437 236.069 360.023C236.835 360.602 237.772 360.891 238.882 360.891C240.038 360.891 241.003 360.586 241.776 359.977C242.558 359.359 243.144 358.531 243.534 357.492C243.933 356.445 244.132 355.281 244.132 354C244.132 352.734 243.937 351.594 243.546 350.578C243.163 349.555 242.581 348.746 241.8 348.152C241.026 347.551 240.054 347.25 238.882 347.25C237.757 347.25 236.812 347.535 236.046 348.105C235.28 348.668 234.702 349.457 234.312 350.473C233.921 351.48 233.726 352.656 233.726 354ZM258.675 363.375C256.94 363.375 255.444 362.992 254.187 362.227C252.937 361.453 251.972 360.375 251.292 358.992C250.62 357.602 250.284 355.984 250.284 354.141C250.284 352.297 250.62 350.672 251.292 349.266C251.972 347.852 252.917 346.75 254.128 345.961C255.347 345.164 256.769 344.766 258.394 344.766C259.331 344.766 260.257 344.922 261.171 345.234C262.085 345.547 262.917 346.055 263.667 346.758C264.417 347.453 265.015 348.375 265.46 349.523C265.905 350.672 266.128 352.086 266.128 353.766V354.937H252.253V352.547H263.315C263.315 351.531 263.112 350.625 262.706 349.828C262.308 349.031 261.737 348.402 260.995 347.941C260.261 347.48 259.394 347.25 258.394 347.25C257.292 347.25 256.339 347.523 255.534 348.07C254.737 348.609 254.124 349.312 253.694 350.18C253.265 351.047 253.05 351.977 253.05 352.969V354.563C253.05 355.922 253.284 357.074 253.753 358.02C254.229 358.957 254.89 359.672 255.733 360.164C256.577 360.648 257.558 360.891 258.675 360.891C259.401 360.891 260.058 360.789 260.644 360.586C261.237 360.375 261.749 360.063 262.179 359.648C262.608 359.227 262.94 358.703 263.175 358.078L265.847 358.828C265.565 359.734 265.093 360.531 264.429 361.219C263.765 361.898 262.944 362.43 261.968 362.812C260.991 363.188 259.894 363.375 258.675 363.375ZM270.335 363V345H273.007V347.719H273.194C273.522 346.828 274.116 346.105 274.976 345.551C275.835 344.996 276.804 344.719 277.882 344.719C278.085 344.719 278.339 344.723 278.644 344.73C278.948 344.738 279.179 344.75 279.335 344.766V347.578C279.241 347.555 279.026 347.52 278.69 347.473C278.362 347.418 278.015 347.391 277.647 347.391C276.772 347.391 275.991 347.574 275.304 347.941C274.624 348.301 274.085 348.801 273.687 349.441C273.296 350.074 273.101 350.797 273.101 351.609V363H270.335ZM295.363 349.031L292.879 349.734C292.723 349.32 292.492 348.918 292.188 348.527C291.891 348.129 291.484 347.801 290.969 347.543C290.453 347.285 289.793 347.156 288.988 347.156C287.887 347.156 286.969 347.41 286.234 347.918C285.508 348.418 285.145 349.055 285.145 349.828C285.145 350.516 285.395 351.059 285.895 351.457C286.395 351.855 287.176 352.187 288.238 352.453L290.91 353.109C292.52 353.5 293.719 354.098 294.508 354.902C295.297 355.699 295.691 356.727 295.691 357.984C295.691 359.016 295.395 359.937 294.801 360.75C294.215 361.562 293.395 362.203 292.34 362.672C291.285 363.141 290.059 363.375 288.66 363.375C286.824 363.375 285.305 362.977 284.102 362.18C282.898 361.383 282.137 360.219 281.816 358.687L284.441 358.031C284.691 359 285.164 359.727 285.859 360.211C286.563 360.695 287.48 360.938 288.613 360.938C289.902 360.938 290.926 360.664 291.684 360.117C292.449 359.562 292.832 358.898 292.832 358.125C292.832 357.5 292.613 356.977 292.176 356.555C291.738 356.125 291.066 355.805 290.16 355.594L287.16 354.891C285.512 354.5 284.301 353.895 283.527 353.074C282.762 352.246 282.379 351.211 282.379 349.969C282.379 348.953 282.664 348.055 283.234 347.273C283.813 346.492 284.598 345.879 285.59 345.434C286.59 344.988 287.723 344.766 288.988 344.766C290.77 344.766 292.168 345.156 293.184 345.937C294.207 346.719 294.934 347.75 295.363 349.031ZM316.964 345V347.344H307.636V345H316.964ZM310.354 340.687H313.12V357.844C313.12 358.625 313.233 359.211 313.46 359.602C313.694 359.984 313.991 360.242 314.351 360.375C314.718 360.5 315.104 360.562 315.511 360.562C315.815 360.562 316.065 360.547 316.261 360.516C316.456 360.477 316.612 360.445 316.729 360.422L317.292 362.906C317.104 362.977 316.843 363.047 316.507 363.117C316.171 363.195 315.745 363.234 315.229 363.234C314.448 363.234 313.683 363.066 312.933 362.73C312.19 362.395 311.573 361.883 311.081 361.195C310.597 360.508 310.354 359.641 310.354 358.594V340.687ZM324.276 352.172V363H321.511V339H324.276V347.812H324.511C324.933 346.883 325.565 346.145 326.409 345.598C327.261 345.043 328.394 344.766 329.808 344.766C331.034 344.766 332.108 345.012 333.03 345.504C333.952 345.988 334.667 346.734 335.175 347.742C335.69 348.742 335.948 350.016 335.948 351.563V363H333.183V351.75C333.183 350.32 332.812 349.215 332.069 348.434C331.335 347.645 330.315 347.25 329.011 347.25C328.104 347.25 327.292 347.441 326.573 347.824C325.862 348.207 325.3 348.766 324.886 349.5C324.479 350.234 324.276 351.125 324.276 352.172ZM346.305 363.422C345.164 363.422 344.129 363.207 343.199 362.777C342.27 362.34 341.531 361.711 340.984 360.891C340.438 360.063 340.164 359.062 340.164 357.891C340.164 356.859 340.367 356.023 340.773 355.383C341.18 354.734 341.723 354.227 342.402 353.859C343.082 353.492 343.832 353.219 344.652 353.039C345.48 352.852 346.313 352.703 347.148 352.594C348.242 352.453 349.129 352.348 349.809 352.277C350.496 352.199 350.996 352.07 351.309 351.891C351.629 351.711 351.789 351.398 351.789 350.953V350.859C351.789 349.703 351.473 348.805 350.84 348.164C350.215 347.523 349.266 347.203 347.992 347.203C346.672 347.203 345.637 347.492 344.887 348.07C344.137 348.648 343.609 349.266 343.305 349.922L340.68 348.984C341.148 347.891 341.773 347.039 342.555 346.43C343.344 345.812 344.203 345.383 345.133 345.141C346.07 344.891 346.992 344.766 347.898 344.766C348.477 344.766 349.141 344.836 349.891 344.977C350.648 345.109 351.379 345.387 352.082 345.809C352.793 346.23 353.383 346.867 353.852 347.719C354.32 348.57 354.555 349.711 354.555 351.141V363H351.789V360.562H351.648C351.461 360.953 351.148 361.371 350.711 361.816C350.273 362.262 349.691 362.641 348.965 362.953C348.238 363.266 347.352 363.422 346.305 363.422ZM346.727 360.938C347.82 360.938 348.742 360.723 349.492 360.293C350.25 359.863 350.82 359.309 351.203 358.629C351.594 357.949 351.789 357.234 351.789 356.484V353.953C351.672 354.094 351.414 354.223 351.016 354.34C350.625 354.449 350.172 354.547 349.656 354.633C349.148 354.711 348.652 354.781 348.168 354.844C347.691 354.898 347.305 354.945 347.008 354.984C346.289 355.078 345.617 355.23 344.992 355.441C344.375 355.645 343.875 355.953 343.492 356.367C343.117 356.773 342.93 357.328 342.93 358.031C342.93 358.992 343.285 359.719 343.996 360.211C344.715 360.695 345.625 360.938 346.727 360.938ZM367.431 345V347.344H358.103V345H367.431ZM360.821 340.687H363.587V357.844C363.587 358.625 363.7 359.211 363.927 359.602C364.161 359.984 364.458 360.242 364.817 360.375C365.185 360.5 365.571 360.562 365.978 360.562C366.282 360.562 366.532 360.547 366.728 360.516C366.923 360.477 367.079 360.445 367.196 360.422L367.759 362.906C367.571 362.977 367.31 363.047 366.974 363.117C366.638 363.195 366.212 363.234 365.696 363.234C364.915 363.234 364.149 363.066 363.399 362.73C362.657 362.395 362.04 361.883 361.548 361.195C361.063 360.508 360.821 359.641 360.821 358.594V340.687ZM166.158 379V403H163.252V382.047H163.111L157.252 385.937V382.984L163.252 379H166.158ZM173.061 403V400.891L180.982 392.219C181.912 391.203 182.678 390.32 183.279 389.57C183.881 388.812 184.326 388.102 184.615 387.437C184.912 386.766 185.061 386.062 185.061 385.328C185.061 384.484 184.857 383.754 184.451 383.137C184.053 382.52 183.506 382.043 182.811 381.707C182.115 381.371 181.334 381.203 180.467 381.203C179.545 381.203 178.74 381.395 178.053 381.777C177.373 382.152 176.846 382.68 176.471 383.359C176.104 384.039 175.92 384.836 175.92 385.75H173.154C173.154 384.344 173.479 383.109 174.127 382.047C174.775 380.984 175.658 380.156 176.775 379.562C177.9 378.969 179.162 378.672 180.561 378.672C181.967 378.672 183.213 378.969 184.299 379.562C185.385 380.156 186.236 380.957 186.854 381.965C187.471 382.973 187.779 384.094 187.779 385.328C187.779 386.211 187.619 387.074 187.299 387.918C186.986 388.754 186.439 389.687 185.658 390.719C184.885 391.742 183.811 392.992 182.436 394.469L177.045 400.234V400.422H188.201V403H173.061ZM202.369 403V385H205.135V403H202.369ZM203.775 382C203.236 382 202.771 381.816 202.381 381.449C201.998 381.082 201.807 380.641 201.807 380.125C201.807 379.609 201.998 379.168 202.381 378.801C202.771 378.434 203.236 378.25 203.775 378.25C204.314 378.25 204.775 378.434 205.158 378.801C205.549 379.168 205.744 379.609 205.744 380.125C205.744 380.641 205.549 381.082 205.158 381.449C204.775 381.816 204.314 382 203.775 382ZM222.95 389.031L220.466 389.734C220.31 389.32 220.079 388.918 219.774 388.527C219.478 388.129 219.071 387.801 218.556 387.543C218.04 387.285 217.38 387.156 216.575 387.156C215.474 387.156 214.556 387.41 213.821 387.918C213.095 388.418 212.731 389.055 212.731 389.828C212.731 390.516 212.981 391.059 213.481 391.457C213.981 391.855 214.763 392.187 215.825 392.453L218.497 393.109C220.106 393.5 221.306 394.098 222.095 394.902C222.884 395.699 223.278 396.727 223.278 397.984C223.278 399.016 222.981 399.937 222.388 400.75C221.802 401.562 220.981 402.203 219.927 402.672C218.872 403.141 217.646 403.375 216.247 403.375C214.411 403.375 212.892 402.977 211.688 402.18C210.485 401.383 209.724 400.219 209.403 398.687L212.028 398.031C212.278 399 212.751 399.727 213.446 400.211C214.149 400.695 215.067 400.938 216.2 400.938C217.489 400.938 218.513 400.664 219.271 400.117C220.036 399.562 220.419 398.898 220.419 398.125C220.419 397.5 220.2 396.977 219.763 396.555C219.325 396.125 218.653 395.805 217.747 395.594L214.747 394.891C213.099 394.5 211.888 393.895 211.114 393.074C210.349 392.246 209.966 391.211 209.966 389.969C209.966 388.953 210.251 388.055 210.821 387.273C211.399 386.492 212.185 385.879 213.177 385.434C214.177 384.988 215.31 384.766 216.575 384.766C218.356 384.766 219.755 385.156 220.771 385.937C221.794 386.719 222.521 387.75 222.95 389.031ZM239.488 379V403H236.723V379H239.488ZM252.101 403.375C250.366 403.375 248.87 402.992 247.612 402.227C246.362 401.453 245.397 400.375 244.718 398.992C244.046 397.602 243.71 395.984 243.71 394.141C243.71 392.297 244.046 390.672 244.718 389.266C245.397 387.852 246.343 386.75 247.554 385.961C248.772 385.164 250.194 384.766 251.819 384.766C252.757 384.766 253.683 384.922 254.597 385.234C255.511 385.547 256.343 386.055 257.093 386.758C257.843 387.453 258.44 388.375 258.886 389.523C259.331 390.672 259.554 392.086 259.554 393.766V394.937H245.679V392.547H256.741C256.741 391.531 256.538 390.625 256.132 389.828C255.733 389.031 255.163 388.402 254.421 387.941C253.687 387.48 252.819 387.25 251.819 387.25C250.718 387.25 249.765 387.523 248.96 388.07C248.163 388.609 247.55 389.312 247.12 390.18C246.69 391.047 246.476 391.977 246.476 392.969V394.563C246.476 395.922 246.71 397.074 247.179 398.02C247.655 398.957 248.315 399.672 249.159 400.164C250.003 400.648 250.983 400.891 252.101 400.891C252.827 400.891 253.483 400.789 254.069 400.586C254.663 400.375 255.175 400.063 255.604 399.648C256.034 399.227 256.366 398.703 256.601 398.078L259.272 398.828C258.991 399.734 258.519 400.531 257.854 401.219C257.19 401.898 256.37 402.43 255.394 402.812C254.417 403.188 253.319 403.375 252.101 403.375ZM276.511 389.031L274.026 389.734C273.87 389.32 273.64 388.918 273.335 388.527C273.038 388.129 272.632 387.801 272.116 387.543C271.601 387.285 270.94 387.156 270.136 387.156C269.034 387.156 268.116 387.41 267.382 387.918C266.655 388.418 266.292 389.055 266.292 389.828C266.292 390.516 266.542 391.059 267.042 391.457C267.542 391.855 268.323 392.187 269.386 392.453L272.058 393.109C273.667 393.5 274.866 394.098 275.655 394.902C276.444 395.699 276.839 396.727 276.839 397.984C276.839 399.016 276.542 399.937 275.948 400.75C275.362 401.562 274.542 402.203 273.487 402.672C272.433 403.141 271.206 403.375 269.808 403.375C267.972 403.375 266.452 402.977 265.249 402.18C264.046 401.383 263.284 400.219 262.964 398.687L265.589 398.031C265.839 399 266.312 399.727 267.007 400.211C267.71 400.695 268.628 400.938 269.761 400.938C271.05 400.938 272.073 400.664 272.831 400.117C273.597 399.562 273.979 398.898 273.979 398.125C273.979 397.5 273.761 396.977 273.323 396.555C272.886 396.125 272.214 395.805 271.308 395.594L268.308 394.891C266.659 394.5 265.448 393.895 264.675 393.074C263.909 392.246 263.526 391.211 263.526 389.969C263.526 388.953 263.812 388.055 264.382 387.273C264.96 386.492 265.745 385.879 266.737 385.434C267.737 384.988 268.87 384.766 270.136 384.766C271.917 384.766 273.315 385.156 274.331 385.937C275.354 386.719 276.081 387.75 276.511 389.031ZM293.752 389.031L291.268 389.734C291.111 389.32 290.881 388.918 290.576 388.527C290.279 388.129 289.873 387.801 289.357 387.543C288.842 387.285 288.182 387.156 287.377 387.156C286.275 387.156 285.357 387.41 284.623 387.918C283.896 388.418 283.533 389.055 283.533 389.828C283.533 390.516 283.783 391.059 284.283 391.457C284.783 391.855 285.564 392.187 286.627 392.453L289.299 393.109C290.908 393.5 292.107 394.098 292.896 394.902C293.686 395.699 294.08 396.727 294.08 397.984C294.08 399.016 293.783 399.937 293.189 400.75C292.604 401.562 291.783 402.203 290.729 402.672C289.674 403.141 288.447 403.375 287.049 403.375C285.213 403.375 283.693 402.977 282.49 402.18C281.287 401.383 280.525 400.219 280.205 398.687L282.83 398.031C283.08 399 283.553 399.727 284.248 400.211C284.951 400.695 285.869 400.938 287.002 400.938C288.291 400.938 289.314 400.664 290.072 400.117C290.838 399.562 291.221 398.898 291.221 398.125C291.221 397.5 291.002 396.977 290.564 396.555C290.127 396.125 289.455 395.805 288.549 395.594L285.549 394.891C283.9 394.5 282.689 393.895 281.916 393.074C281.15 392.246 280.768 391.211 280.768 389.969C280.768 388.953 281.053 388.055 281.623 387.273C282.201 386.492 282.986 385.879 283.979 385.434C284.979 384.988 286.111 384.766 287.377 384.766C289.158 384.766 290.557 385.156 291.572 385.937C292.596 386.719 293.322 387.75 293.752 389.031ZM315.353 385V387.344H306.024V385H315.353ZM308.743 380.687H311.509V397.844C311.509 398.625 311.622 399.211 311.849 399.602C312.083 399.984 312.38 400.242 312.739 400.375C313.106 400.5 313.493 400.562 313.899 400.562C314.204 400.562 314.454 400.547 314.649 400.516C314.845 400.477 315.001 400.445 315.118 400.422L315.681 402.906C315.493 402.977 315.231 403.047 314.896 403.117C314.56 403.195 314.134 403.234 313.618 403.234C312.837 403.234 312.071 403.066 311.321 402.73C310.579 402.395 309.962 401.883 309.47 401.195C308.985 400.508 308.743 399.641 308.743 398.594V380.687ZM322.665 392.172V403H319.899V379H322.665V387.812H322.899C323.321 386.883 323.954 386.145 324.798 385.598C325.649 385.043 326.782 384.766 328.196 384.766C329.423 384.766 330.497 385.012 331.419 385.504C332.341 385.988 333.056 386.734 333.563 387.742C334.079 388.742 334.337 390.016 334.337 391.563V403H331.571V391.75C331.571 390.32 331.2 389.215 330.458 388.434C329.724 387.645 328.704 387.25 327.399 387.25C326.493 387.25 325.681 387.441 324.962 387.824C324.251 388.207 323.688 388.766 323.274 389.5C322.868 390.234 322.665 391.125 322.665 392.172ZM344.693 403.422C343.553 403.422 342.518 403.207 341.588 402.777C340.658 402.34 339.92 401.711 339.373 400.891C338.826 400.063 338.553 399.062 338.553 397.891C338.553 396.859 338.756 396.023 339.162 395.383C339.568 394.734 340.111 394.227 340.791 393.859C341.471 393.492 342.221 393.219 343.041 393.039C343.869 392.852 344.701 392.703 345.537 392.594C346.631 392.453 347.518 392.348 348.197 392.277C348.885 392.199 349.385 392.07 349.697 391.891C350.018 391.711 350.178 391.398 350.178 390.953V390.859C350.178 389.703 349.861 388.805 349.229 388.164C348.604 387.523 347.654 387.203 346.381 387.203C345.061 387.203 344.025 387.492 343.275 388.07C342.525 388.648 341.998 389.266 341.693 389.922L339.068 388.984C339.537 387.891 340.162 387.039 340.943 386.43C341.732 385.812 342.592 385.383 343.521 385.141C344.459 384.891 345.381 384.766 346.287 384.766C346.865 384.766 347.529 384.836 348.279 384.977C349.037 385.109 349.768 385.387 350.471 385.809C351.182 386.23 351.771 386.867 352.24 387.719C352.709 388.57 352.943 389.711 352.943 391.141V403H350.178V400.562H350.037C349.85 400.953 349.537 401.371 349.1 401.816C348.662 402.262 348.08 402.641 347.354 402.953C346.627 403.266 345.74 403.422 344.693 403.422ZM345.115 400.938C346.209 400.938 347.131 400.723 347.881 400.293C348.639 399.863 349.209 399.309 349.592 398.629C349.982 397.949 350.178 397.234 350.178 396.484V393.953C350.061 394.094 349.803 394.223 349.404 394.34C349.014 394.449 348.561 394.547 348.045 394.633C347.537 394.711 347.041 394.781 346.557 394.844C346.08 394.898 345.693 394.945 345.396 394.984C344.678 395.078 344.006 395.23 343.381 395.441C342.764 395.645 342.264 395.953 341.881 396.367C341.506 396.773 341.318 397.328 341.318 398.031C341.318 398.992 341.674 399.719 342.385 400.211C343.104 400.695 344.014 400.938 345.115 400.938ZM360.757 392.172V403H357.991V385H360.663V387.812H360.897C361.319 386.898 361.96 386.164 362.819 385.609C363.679 385.047 364.788 384.766 366.147 384.766C367.366 384.766 368.433 385.016 369.347 385.516C370.261 386.008 370.972 386.758 371.479 387.766C371.987 388.766 372.241 390.031 372.241 391.563V403H369.476V391.75C369.476 390.336 369.108 389.234 368.374 388.445C367.64 387.648 366.632 387.25 365.351 387.25C364.468 387.25 363.679 387.441 362.983 387.824C362.296 388.207 361.753 388.766 361.354 389.5C360.956 390.234 360.757 391.125 360.757 392.172Z" fill="white"/>
<path d="M24 119C24 104.088 36.0883 92 51 92H505V212H51C36.0883 212 24 199.912 24 185V119Z" fill="#00266C"/>
<path d="M505 92H598C612.912 92 625 104.088 625 119V185C625 199.912 612.912 212 598 212H505V92Z" fill="#009966"/>
<path d="M210.357 45V15.9091H229.618V20.9801H216.507V27.9119H228.339V32.983H216.507V45H210.357ZM241.898 45.4261C239.691 45.4261 237.783 44.9574 236.173 44.0199C234.573 43.0729 233.337 41.7566 232.466 40.071C231.595 38.3759 231.159 36.411 231.159 34.1761C231.159 31.9223 231.595 29.9527 232.466 28.267C233.337 26.572 234.573 25.2557 236.173 24.3182C237.783 23.3712 239.691 22.8977 241.898 22.8977C244.104 22.8977 246.008 23.3712 247.608 24.3182C249.218 25.2557 250.458 26.572 251.33 28.267C252.201 29.9527 252.636 31.9223 252.636 34.1761C252.636 36.411 252.201 38.3759 251.33 40.071C250.458 41.7566 249.218 43.0729 247.608 44.0199C246.008 44.9574 244.104 45.4261 241.898 45.4261ZM241.926 40.7386C242.93 40.7386 243.768 40.4545 244.44 39.8864C245.113 39.3087 245.619 38.5227 245.96 37.5284C246.311 36.5341 246.486 35.4025 246.486 34.1335C246.486 32.8646 246.311 31.733 245.96 30.7386C245.619 29.7443 245.113 28.9583 244.44 28.3807C243.768 27.803 242.93 27.5142 241.926 27.5142C240.913 27.5142 240.061 27.803 239.369 28.3807C238.688 28.9583 238.171 29.7443 237.821 30.7386C237.48 31.733 237.31 32.8646 237.31 34.1335C237.31 35.4025 237.48 36.5341 237.821 37.5284C238.171 38.5227 238.688 39.3087 239.369 39.8864C240.061 40.4545 240.913 40.7386 241.926 40.7386ZM270.562 35.7102V23.1818H276.614V45H270.804V41.0369H270.577C270.084 42.3153 269.265 43.3428 268.119 44.1193C266.983 44.8958 265.596 45.2841 263.957 45.2841C262.499 45.2841 261.216 44.9527 260.108 44.2898C259 43.6269 258.134 42.6847 257.509 41.4631C256.893 40.2415 256.58 38.7784 256.571 37.0739V23.1818H262.622V35.9943C262.632 37.2822 262.977 38.3002 263.659 39.0483C264.341 39.7964 265.255 40.1705 266.401 40.1705C267.13 40.1705 267.812 40.0047 268.446 39.6733C269.08 39.3324 269.592 38.8305 269.98 38.1676C270.378 37.5047 270.572 36.6856 270.562 35.7102ZM281.454 45V23.1818H287.32V26.9886H287.548C287.945 25.6345 288.613 24.6117 289.55 23.9205C290.488 23.2197 291.567 22.8693 292.789 22.8693C293.092 22.8693 293.419 22.8883 293.769 22.9261C294.12 22.964 294.427 23.0161 294.692 23.0824V28.4517C294.408 28.3665 294.015 28.2907 293.513 28.2244C293.012 28.1581 292.552 28.125 292.136 28.125C291.246 28.125 290.45 28.3191 289.749 28.7074C289.058 29.0862 288.509 29.6165 288.102 30.2983C287.704 30.9801 287.505 31.7661 287.505 32.6562V45H281.454ZM310.52 23.1818V27.7273H297.381V23.1818H310.52ZM300.364 17.9545H306.415V38.2955C306.415 38.8542 306.5 39.2898 306.67 39.6023C306.841 39.9053 307.078 40.1184 307.381 40.2415C307.693 40.3646 308.053 40.4261 308.46 40.4261C308.744 40.4261 309.028 40.4025 309.312 40.3551C309.597 40.2983 309.814 40.2557 309.966 40.2273L310.918 44.7301C310.615 44.8248 310.188 44.9337 309.639 45.0568C309.09 45.1894 308.422 45.2699 307.636 45.2983C306.178 45.3551 304.9 45.161 303.801 44.7159C302.712 44.2708 301.865 43.5795 301.259 42.642C300.652 41.7045 300.354 40.5208 300.364 39.0909V17.9545ZM320.982 32.3864V45H314.93V15.9091H320.811V27.0312H321.067C321.559 25.7434 322.355 24.7348 323.453 24.0057C324.552 23.267 325.929 22.8977 327.587 22.8977C329.102 22.8977 330.423 23.2292 331.55 23.892C332.686 24.5455 333.567 25.4877 334.192 26.7188C334.826 27.9403 335.139 29.4034 335.129 31.108V45H329.078V32.1875C329.088 30.8428 328.747 29.7964 328.055 29.0483C327.374 28.3002 326.417 27.9261 325.186 27.9261C324.362 27.9261 323.633 28.1013 322.999 28.4517C322.374 28.8021 321.881 29.3134 321.521 29.9858C321.171 30.6487 320.991 31.4489 320.982 32.3864ZM349.263 45V15.9091H360.74C362.946 15.9091 364.826 16.3305 366.379 17.1733C367.932 18.0066 369.116 19.1667 369.93 20.6534C370.754 22.1307 371.166 23.8352 371.166 25.767C371.166 27.6989 370.75 29.4034 369.916 30.8807C369.083 32.358 367.875 33.5085 366.294 34.3324C364.722 35.1562 362.819 35.5682 360.584 35.5682H353.268V30.6392H359.589C360.773 30.6392 361.749 30.4356 362.516 30.0284C363.292 29.6117 363.87 29.0388 364.249 28.3097C364.637 27.571 364.831 26.7235 364.831 25.767C364.831 24.8011 364.637 23.9583 364.249 23.2386C363.87 22.5095 363.292 21.946 362.516 21.5483C361.739 21.1411 360.754 20.9375 359.561 20.9375H355.413V45H349.263ZM380.683 45.4119C379.291 45.4119 378.051 45.1705 376.962 44.6875C375.873 44.1951 375.011 43.4706 374.376 42.5142C373.751 41.5483 373.439 40.3456 373.439 38.9062C373.439 37.6941 373.661 36.6761 374.107 35.8523C374.552 35.0284 375.158 34.3655 375.925 33.8636C376.692 33.3617 377.563 32.983 378.538 32.7273C379.523 32.4716 380.555 32.2917 381.635 32.1875C382.904 32.0549 383.927 31.9318 384.703 31.8182C385.48 31.6951 386.043 31.5152 386.393 31.2784C386.744 31.0417 386.919 30.6913 386.919 30.2273V30.142C386.919 29.2424 386.635 28.5464 386.067 28.054C385.508 27.5616 384.713 27.3153 383.68 27.3153C382.591 27.3153 381.725 27.5568 381.081 28.0398C380.437 28.5133 380.011 29.1098 379.803 29.8295L374.206 29.375C374.49 28.0492 375.049 26.9034 375.882 25.9375C376.715 24.9621 377.79 24.214 379.107 23.6932C380.432 23.1629 381.966 22.8977 383.709 22.8977C384.921 22.8977 386.081 23.0398 387.189 23.3239C388.306 23.608 389.296 24.0483 390.158 24.6449C391.029 25.2415 391.715 26.0085 392.217 26.946C392.719 27.8741 392.97 28.9867 392.97 30.2841V45H387.232V41.9744H387.061C386.711 42.6562 386.242 43.2576 385.655 43.7784C385.068 44.2898 384.362 44.6922 383.538 44.9858C382.714 45.2699 381.763 45.4119 380.683 45.4119ZM382.416 41.2358C383.306 41.2358 384.092 41.0606 384.774 40.7102C385.456 40.3504 385.991 39.8674 386.379 39.2614C386.768 38.6553 386.962 37.9687 386.962 37.2017V34.8864C386.772 35.0095 386.512 35.1231 386.18 35.2273C385.858 35.322 385.494 35.4119 385.087 35.4972C384.679 35.5729 384.272 35.6439 383.865 35.7102C383.458 35.767 383.089 35.8191 382.757 35.8665C382.047 35.9706 381.427 36.1364 380.896 36.3636C380.366 36.5909 379.954 36.8987 379.661 37.2869C379.367 37.6657 379.22 38.1392 379.22 38.7074C379.22 39.5312 379.518 40.161 380.115 40.5966C380.721 41.0227 381.488 41.2358 382.416 41.2358ZM415.818 29.4034L410.278 29.7443C410.184 29.2708 409.98 28.8447 409.668 28.4659C409.355 28.0777 408.943 27.7699 408.432 27.5426C407.93 27.3059 407.329 27.1875 406.628 27.1875C405.69 27.1875 404.9 27.3864 404.256 27.7841C403.612 28.1723 403.29 28.6932 403.29 29.3466C403.29 29.8674 403.498 30.3078 403.915 30.6676C404.331 31.0275 405.046 31.3163 406.06 31.5341L410.009 32.3295C412.13 32.7652 413.711 33.4659 414.753 34.4318C415.795 35.3977 416.315 36.6667 416.315 38.2386C416.315 39.6686 415.894 40.9233 415.051 42.0028C414.218 43.0824 413.072 43.9252 411.614 44.5312C410.165 45.1278 408.493 45.4261 406.599 45.4261C403.711 45.4261 401.41 44.8248 399.696 43.6222C397.991 42.41 396.992 40.7623 396.699 38.679L402.651 38.3665C402.83 39.2472 403.266 39.9195 403.957 40.3835C404.649 40.8381 405.534 41.0653 406.614 41.0653C407.674 41.0653 408.527 40.8617 409.17 40.4545C409.824 40.0379 410.155 39.5028 410.165 38.8494C410.155 38.3002 409.923 37.8504 409.469 37.5C409.014 37.1402 408.313 36.8655 407.366 36.6761L403.588 35.9233C401.457 35.4972 399.871 34.7585 398.83 33.7074C397.797 32.6562 397.281 31.3163 397.281 29.6875C397.281 28.286 397.66 27.0786 398.418 26.0653C399.185 25.0521 400.259 24.2708 401.642 23.7216C403.034 23.1723 404.663 22.8977 406.528 22.8977C409.284 22.8977 411.453 23.4801 413.034 24.6449C414.625 25.8097 415.553 27.3958 415.818 29.4034ZM438.279 29.4034L432.739 29.7443C432.645 29.2708 432.441 28.8447 432.129 28.4659C431.816 28.0777 431.404 27.7699 430.893 27.5426C430.391 27.3059 429.79 27.1875 429.089 27.1875C428.151 27.1875 427.361 27.3864 426.717 27.7841C426.073 28.1723 425.751 28.6932 425.751 29.3466C425.751 29.8674 425.959 30.3078 426.376 30.6676C426.792 31.0275 427.507 31.3163 428.521 31.5341L432.469 32.3295C434.591 32.7652 436.172 33.4659 437.214 34.4318C438.255 35.3977 438.776 36.6667 438.776 38.2386C438.776 39.6686 438.355 40.9233 437.512 42.0028C436.679 43.0824 435.533 43.9252 434.075 44.5312C432.626 45.1278 430.954 45.4261 429.06 45.4261C426.172 45.4261 423.871 44.8248 422.157 43.6222C420.452 42.41 419.453 40.7623 419.16 38.679L425.112 38.3665C425.291 39.2472 425.727 39.9195 426.418 40.3835C427.11 40.8381 427.995 41.0653 429.075 41.0653C430.135 41.0653 430.987 40.8617 431.631 40.4545C432.285 40.0379 432.616 39.5028 432.626 38.8494C432.616 38.3002 432.384 37.8504 431.93 37.5C431.475 37.1402 430.774 36.8655 429.827 36.6761L426.049 35.9233C423.918 35.4972 422.332 34.7585 421.29 33.7074C420.258 32.6562 419.742 31.3163 419.742 29.6875C419.742 28.286 420.121 27.0786 420.879 26.0653C421.646 25.0521 422.72 24.2708 424.103 23.7216C425.495 23.1723 427.124 22.8977 428.989 22.8977C431.745 22.8977 433.914 23.4801 435.495 24.6449C437.086 25.8097 438.014 27.3958 438.279 29.4034Z" fill="white"/>
<rect x="25" y="92" width="599" height="120" rx="26" stroke="#DBDBDB" stroke-width="2"/>
<rect x="25" y="528" width="599" height="120" rx="26" stroke="#DBDBDB" stroke-width="2"/>
<rect x="25" y="932" width="599" height="120" rx="26" stroke="#DBDBDB" stroke-width="2"/>
<line x1="145" y1="91" x2="145" y2="213" stroke="#DBDBDB" stroke-width="2"/>
<line x1="145" y1="527" x2="145" y2="649" stroke="#DBDBDB" stroke-width="2"/>
<line x1="145" y1="931" x2="145" y2="1053" stroke="#DBDBDB" stroke-width="2"/>
<line x1="265" y1="91" x2="265" y2="213" stroke="#DBDBDB" stroke-width="2"/>
<line x1="265" y1="527" x2="265" y2="649" stroke="#DBDBDB" stroke-width="2"/>
<line x1="265" y1="931" x2="265" y2="1053" stroke="#DBDBDB" stroke-width="2"/>
<line x1="386" y1="91" x2="386" y2="213" stroke="#DBDBDB" stroke-width="2"/>
<line x1="386" y1="527" x2="386" y2="649" stroke="#DBDBDB" stroke-width="2"/>
<line x1="386" y1="931" x2="386" y2="1053" stroke="#DBDBDB" stroke-width="2"/>
<line x1="506" y1="91" x2="506" y2="213" stroke="#DBDBDB" stroke-width="2"/>
<line x1="506" y1="527" x2="506" y2="649" stroke="#DBDBDB" stroke-width="2"/>
<line x1="506" y1="931" x2="506" y2="1053" stroke="#DBDBDB" stroke-width="2"/>
<path d="M74.9613 136.909V166H71.4386V140.602H71.2681L64.1658 145.318V141.739L71.4386 136.909H74.9613ZM92.5891 136.511C93.7823 136.521 94.9755 136.748 96.1687 137.193C97.3619 137.638 98.4509 138.377 99.4357 139.409C100.421 140.432 101.211 141.829 101.808 143.599C102.404 145.37 102.703 147.591 102.703 150.261C102.703 152.847 102.457 155.143 101.964 157.151C101.481 159.149 100.78 160.834 99.8619 162.207C98.9528 163.58 97.8448 164.622 96.538 165.332C95.2406 166.043 93.7728 166.398 92.1346 166.398C90.5058 166.398 89.0522 166.076 87.7738 165.432C86.5049 164.778 85.4632 163.874 84.6488 162.719C83.8439 161.554 83.3278 160.205 83.1005 158.67H86.5664C86.8789 160.006 87.4992 161.109 88.4272 161.98C89.3647 162.842 90.6005 163.273 92.1346 163.273C94.3789 163.273 96.1497 162.293 97.4471 160.332C98.7539 158.372 99.4073 155.602 99.4073 152.023H99.18C98.6497 152.818 98.02 153.505 97.2908 154.082C96.5617 154.66 95.752 155.105 94.8619 155.418C93.9717 155.73 93.0247 155.886 92.021 155.886C90.3543 155.886 88.8249 155.474 87.4329 154.651C86.0503 153.817 84.9424 152.676 84.109 151.227C83.2852 149.769 82.8732 148.102 82.8732 146.227C82.8732 144.447 83.271 142.818 84.0664 141.341C84.8713 139.854 85.9982 138.67 87.4471 137.79C88.9054 136.909 90.6194 136.483 92.5891 136.511ZM92.5891 139.636C91.396 139.636 90.3211 139.935 89.3647 140.531C88.4177 141.118 87.6649 141.914 87.1062 142.918C86.5569 143.912 86.2823 145.015 86.2823 146.227C86.2823 147.439 86.5475 148.543 87.0778 149.537C87.6175 150.522 88.3514 151.308 89.2795 151.895C90.217 152.473 91.2823 152.761 92.4755 152.761C93.3751 152.761 94.2132 152.586 94.9897 152.236C95.7662 151.876 96.4433 151.388 97.021 150.773C97.6081 150.148 98.0674 149.442 98.3988 148.656C98.7302 147.861 98.896 147.032 98.896 146.17C98.896 145.034 98.6213 143.969 98.0721 142.974C97.5323 141.98 96.7842 141.175 95.8278 140.56C94.8808 139.944 93.8013 139.636 92.5891 139.636Z" fill="white"/>
<path d="M75.3324 976.909V1006H71.8097V980.602H71.6392L64.5369 985.318V981.739L71.8097 976.909H75.3324ZM83.6989 1006V1003.44L93.3011 992.932C94.428 991.701 95.3561 990.631 96.0852 989.722C96.8144 988.803 97.3542 987.941 97.7045 987.136C98.0644 986.322 98.2443 985.47 98.2443 984.58C98.2443 983.557 97.9981 982.671 97.5057 981.923C97.0227 981.175 96.3598 980.598 95.517 980.19C94.6742 979.783 93.7273 979.58 92.6761 979.58C91.5587 979.58 90.5833 979.812 89.75 980.276C88.9261 980.73 88.2869 981.369 87.8324 982.193C87.3873 983.017 87.1648 983.983 87.1648 985.091H83.8125C83.8125 983.386 84.2055 981.89 84.9915 980.602C85.7775 979.314 86.8475 978.311 88.2017 977.591C89.5653 976.871 91.0947 976.511 92.7898 976.511C94.4943 976.511 96.0047 976.871 97.321 977.591C98.6373 978.311 99.6695 979.281 100.418 980.503C101.166 981.724 101.54 983.083 101.54 984.58C101.54 985.65 101.346 986.696 100.957 987.719C100.579 988.732 99.9157 989.864 98.9688 991.114C98.0312 992.354 96.7292 993.869 95.0625 995.659L88.5284 1002.65V1002.88H102.051V1006H83.6989Z" fill="white"/>
<path d="M182.976 166V163.443L192.578 152.932C193.705 151.701 194.633 150.631 195.363 149.722C196.092 148.803 196.632 147.941 196.982 147.136C197.342 146.322 197.522 145.47 197.522 144.58C197.522 143.557 197.275 142.671 196.783 141.923C196.3 141.175 195.637 140.598 194.794 140.19C193.952 139.783 193.005 139.58 191.953 139.58C190.836 139.58 189.861 139.812 189.027 140.276C188.203 140.73 187.564 141.369 187.11 142.193C186.665 143.017 186.442 143.983 186.442 145.091H183.09C183.09 143.386 183.483 141.89 184.269 140.602C185.055 139.314 186.125 138.311 187.479 137.591C188.843 136.871 190.372 136.511 192.067 136.511C193.772 136.511 195.282 136.871 196.598 137.591C197.915 138.311 198.947 139.281 199.695 140.503C200.443 141.724 200.817 143.083 200.817 144.58C200.817 145.65 200.623 146.696 200.235 147.719C199.856 148.732 199.193 149.864 198.246 151.114C197.309 152.354 196.007 153.869 194.34 155.659L187.806 162.648V162.875H201.328V166H182.976ZM208.104 166L221.115 140.261V140.034H206.115V136.909H224.752V140.205L211.797 166H208.104Z" fill="white"/>
<path d="M194.961 572.909V602H191.439V576.602H191.268L184.166 581.318V577.739L191.439 572.909H194.961ZM212.589 572.511C213.782 572.521 214.975 572.748 216.169 573.193C217.362 573.638 218.451 574.377 219.436 575.409C220.421 576.432 221.211 577.829 221.808 579.599C222.404 581.37 222.703 583.591 222.703 586.261C222.703 588.847 222.457 591.143 221.964 593.151C221.481 595.149 220.78 596.834 219.862 598.207C218.953 599.58 217.845 600.622 216.538 601.332C215.241 602.043 213.773 602.398 212.135 602.398C210.506 602.398 209.052 602.076 207.774 601.432C206.505 600.778 205.463 599.874 204.649 598.719C203.844 597.554 203.328 596.205 203.1 594.67H206.566C206.879 596.006 207.499 597.109 208.427 597.98C209.365 598.842 210.6 599.273 212.135 599.273C214.379 599.273 216.15 598.293 217.447 596.332C218.754 594.372 219.407 591.602 219.407 588.023H219.18C218.65 588.818 218.02 589.505 217.291 590.082C216.562 590.66 215.752 591.105 214.862 591.418C213.972 591.73 213.025 591.886 212.021 591.886C210.354 591.886 208.825 591.474 207.433 590.651C206.05 589.817 204.942 588.676 204.109 587.227C203.285 585.769 202.873 584.102 202.873 582.227C202.873 580.447 203.271 578.818 204.066 577.341C204.871 575.854 205.998 574.67 207.447 573.79C208.905 572.909 210.619 572.483 212.589 572.511ZM212.589 575.636C211.396 575.636 210.321 575.935 209.365 576.531C208.418 577.118 207.665 577.914 207.106 578.918C206.557 579.912 206.282 581.015 206.282 582.227C206.282 583.439 206.547 584.543 207.078 585.537C207.618 586.522 208.351 587.308 209.279 587.895C210.217 588.473 211.282 588.761 212.475 588.761C213.375 588.761 214.213 588.586 214.99 588.236C215.766 587.876 216.443 587.388 217.021 586.773C217.608 586.148 218.067 585.442 218.399 584.656C218.73 583.861 218.896 583.032 218.896 582.17C218.896 581.034 218.621 579.969 218.072 578.974C217.532 577.98 216.784 577.175 215.828 576.56C214.881 575.944 213.801 575.636 212.589 575.636Z" fill="white"/>
<path d="M194.961 976.909V1006H191.439V980.602H191.268L184.166 985.318V981.739L191.439 976.909H194.961ZM212.589 976.511C213.782 976.521 214.975 976.748 216.169 977.193C217.362 977.638 218.451 978.377 219.436 979.409C220.421 980.432 221.211 981.829 221.808 983.599C222.404 985.37 222.703 987.591 222.703 990.261C222.703 992.847 222.457 995.143 221.964 997.151C221.481 999.149 220.78 1000.83 219.862 1002.21C218.953 1003.58 217.845 1004.62 216.538 1005.33C215.241 1006.04 213.773 1006.4 212.135 1006.4C210.506 1006.4 209.052 1006.08 207.774 1005.43C206.505 1004.78 205.463 1003.87 204.649 1002.72C203.844 1001.55 203.328 1000.2 203.1 998.67H206.566C206.879 1000.01 207.499 1001.11 208.427 1001.98C209.365 1002.84 210.6 1003.27 212.135 1003.27C214.379 1003.27 216.15 1002.29 217.447 1000.33C218.754 998.372 219.407 995.602 219.407 992.023H219.18C218.65 992.818 218.02 993.505 217.291 994.082C216.562 994.66 215.752 995.105 214.862 995.418C213.972 995.73 213.025 995.886 212.021 995.886C210.354 995.886 208.825 995.474 207.433 994.651C206.05 993.817 204.942 992.676 204.109 991.227C203.285 989.769 202.873 988.102 202.873 986.227C202.873 984.447 203.271 982.818 204.066 981.341C204.871 979.854 205.998 978.67 207.447 977.79C208.905 976.909 210.619 976.483 212.589 976.511ZM212.589 979.636C211.396 979.636 210.321 979.935 209.365 980.531C208.418 981.118 207.665 981.914 207.106 982.918C206.557 983.912 206.282 985.015 206.282 986.227C206.282 987.439 206.547 988.543 207.078 989.537C207.618 990.522 208.351 991.308 209.279 991.895C210.217 992.473 211.282 992.761 212.475 992.761C213.375 992.761 214.213 992.586 214.99 992.236C215.766 991.876 216.443 991.388 217.021 990.773C217.608 990.148 218.067 989.442 218.399 988.656C218.73 987.861 218.896 987.032 218.896 986.17C218.896 985.034 218.621 983.969 218.072 982.974C217.532 981.98 216.784 981.175 215.828 980.56C214.881 979.944 213.801 979.636 212.589 979.636Z" fill="white"/>
<path d="M311.497 166.398C309.622 166.398 307.951 166.076 306.483 165.432C305.025 164.788 303.865 163.893 303.003 162.747C302.151 161.592 301.687 160.252 301.611 158.727H305.19C305.266 159.665 305.588 160.474 306.156 161.156C306.724 161.829 307.468 162.349 308.386 162.719C309.305 163.088 310.323 163.273 311.44 163.273C312.69 163.273 313.798 163.055 314.764 162.619C315.73 162.184 316.488 161.578 317.037 160.801C317.586 160.025 317.861 159.125 317.861 158.102C317.861 157.032 317.596 156.09 317.065 155.276C316.535 154.452 315.759 153.808 314.736 153.344C313.713 152.88 312.463 152.648 310.986 152.648H308.656V149.523H310.986C312.141 149.523 313.154 149.314 314.026 148.898C314.906 148.481 315.593 147.894 316.085 147.136C316.587 146.379 316.838 145.489 316.838 144.466C316.838 143.481 316.62 142.624 316.185 141.895C315.749 141.166 315.134 140.598 314.338 140.19C313.552 139.783 312.624 139.58 311.554 139.58C310.55 139.58 309.603 139.764 308.713 140.134C307.832 140.493 307.113 141.019 306.554 141.71C305.995 142.392 305.692 143.216 305.645 144.182H302.236C302.293 142.657 302.752 141.322 303.614 140.176C304.475 139.021 305.602 138.121 306.994 137.477C308.396 136.833 309.935 136.511 311.611 136.511C313.41 136.511 314.954 136.876 316.241 137.605C317.529 138.325 318.519 139.277 319.21 140.46C319.902 141.644 320.247 142.922 320.247 144.295C320.247 145.934 319.816 147.33 318.955 148.486C318.102 149.641 316.942 150.441 315.474 150.886V151.114C317.312 151.417 318.746 152.198 319.778 153.457C320.811 154.707 321.327 156.256 321.327 158.102C321.327 159.684 320.896 161.104 320.034 162.364C319.182 163.614 318.017 164.598 316.54 165.318C315.063 166.038 313.382 166.398 311.497 166.398ZM327.136 166V163.443L336.739 152.932C337.866 151.701 338.794 150.631 339.523 149.722C340.252 148.803 340.792 147.941 341.142 147.136C341.502 146.322 341.682 145.47 341.682 144.58C341.682 143.557 341.436 142.671 340.943 141.923C340.46 141.175 339.797 140.598 338.955 140.19C338.112 139.783 337.165 139.58 336.114 139.58C334.996 139.58 334.021 139.812 333.188 140.276C332.364 140.73 331.724 141.369 331.27 142.193C330.825 143.017 330.602 143.983 330.602 145.091H327.25C327.25 143.386 327.643 141.89 328.429 140.602C329.215 139.314 330.285 138.311 331.639 137.591C333.003 136.871 334.532 136.511 336.227 136.511C337.932 136.511 339.442 136.871 340.759 137.591C342.075 138.311 343.107 139.281 343.855 140.503C344.603 141.724 344.977 143.083 344.977 144.58C344.977 145.65 344.783 146.696 344.395 147.719C344.016 148.732 343.353 149.864 342.406 151.114C341.469 152.354 340.167 153.869 338.5 155.659L331.966 162.648V162.875H345.489V166H327.136Z" fill="white"/>
<path d="M302.976 602V599.443L312.578 588.932C313.705 587.701 314.633 586.631 315.363 585.722C316.092 584.803 316.632 583.941 316.982 583.136C317.342 582.322 317.522 581.47 317.522 580.58C317.522 579.557 317.275 578.671 316.783 577.923C316.3 577.175 315.637 576.598 314.794 576.19C313.952 575.783 313.005 575.58 311.953 575.58C310.836 575.58 309.861 575.812 309.027 576.276C308.203 576.73 307.564 577.369 307.11 578.193C306.665 579.017 306.442 579.983 306.442 581.091H303.09C303.09 579.386 303.483 577.89 304.269 576.602C305.055 575.314 306.125 574.311 307.479 573.591C308.843 572.871 310.372 572.511 312.067 572.511C313.772 572.511 315.282 572.871 316.598 573.591C317.915 574.311 318.947 575.281 319.695 576.503C320.443 577.724 320.817 579.083 320.817 580.58C320.817 581.65 320.623 582.696 320.235 583.719C319.856 584.732 319.193 585.864 318.246 587.114C317.309 588.354 316.007 589.869 314.34 591.659L307.806 598.648V598.875H321.328V602H302.976ZM328.104 602L341.115 576.261V576.034H326.115V572.909H344.752V576.205L331.797 602H328.104Z" fill="white"/>
<path d="M302.976 1006V1003.44L312.578 992.932C313.705 991.701 314.633 990.631 315.363 989.722C316.092 988.803 316.632 987.941 316.982 987.136C317.342 986.322 317.522 985.47 317.522 984.58C317.522 983.557 317.275 982.671 316.783 981.923C316.3 981.175 315.637 980.598 314.794 980.19C313.952 979.783 313.005 979.58 311.953 979.58C310.836 979.58 309.861 979.812 309.027 980.276C308.203 980.73 307.564 981.369 307.11 982.193C306.665 983.017 306.442 983.983 306.442 985.091H303.09C303.09 983.386 303.483 981.89 304.269 980.602C305.055 979.314 306.125 978.311 307.479 977.591C308.843 976.871 310.372 976.511 312.067 976.511C313.772 976.511 315.282 976.871 316.598 977.591C317.915 978.311 318.947 979.281 319.695 980.503C320.443 981.724 320.817 983.083 320.817 984.58C320.817 985.65 320.623 986.696 320.235 987.719C319.856 988.732 319.193 989.864 318.246 991.114C317.309 992.354 316.007 993.869 314.34 995.659L307.806 1002.65V1002.88H321.328V1006H302.976ZM328.104 1006L341.115 980.261V980.034H326.115V976.909H344.752V980.205L331.797 1006H328.104Z" fill="white"/>
<path d="M422.572 160.034V157.136L435.356 136.909H437.458V141.398H436.038L426.379 156.682V156.909H443.594V160.034H422.572ZM436.265 166V159.153V157.804V136.909H439.617V166H436.265ZM449.827 166L462.838 140.261V140.034H447.838V136.909H466.474V140.205L453.52 166H449.827Z" fill="white"/>
<path d="M432.497 602.398C430.622 602.398 428.951 602.076 427.483 601.432C426.025 600.788 424.865 599.893 424.003 598.747C423.151 597.592 422.687 596.252 422.611 594.727H426.19C426.266 595.665 426.588 596.474 427.156 597.156C427.724 597.829 428.468 598.349 429.386 598.719C430.305 599.088 431.323 599.273 432.44 599.273C433.69 599.273 434.798 599.055 435.764 598.619C436.73 598.184 437.488 597.578 438.037 596.801C438.586 596.025 438.861 595.125 438.861 594.102C438.861 593.032 438.596 592.09 438.065 591.276C437.535 590.452 436.759 589.808 435.736 589.344C434.713 588.88 433.463 588.648 431.986 588.648H429.656V585.523H431.986C433.141 585.523 434.154 585.314 435.026 584.898C435.906 584.481 436.593 583.894 437.085 583.136C437.587 582.379 437.838 581.489 437.838 580.466C437.838 579.481 437.62 578.624 437.185 577.895C436.749 577.166 436.134 576.598 435.338 576.19C434.552 575.783 433.624 575.58 432.554 575.58C431.55 575.58 430.603 575.764 429.713 576.134C428.832 576.493 428.113 577.019 427.554 577.71C426.995 578.392 426.692 579.216 426.645 580.182H423.236C423.293 578.657 423.752 577.322 424.614 576.176C425.475 575.021 426.602 574.121 427.994 573.477C429.396 572.833 430.935 572.511 432.611 572.511C434.41 572.511 435.954 572.876 437.241 573.605C438.529 574.325 439.519 575.277 440.21 576.46C440.902 577.644 441.247 578.922 441.247 580.295C441.247 581.934 440.816 583.33 439.955 584.486C439.102 585.641 437.942 586.441 436.474 586.886V587.114C438.312 587.417 439.746 588.198 440.778 589.457C441.811 590.707 442.327 592.256 442.327 594.102C442.327 595.684 441.896 597.104 441.034 598.364C440.182 599.614 439.017 600.598 437.54 601.318C436.063 602.038 434.382 602.398 432.497 602.398ZM448.136 602V599.443L457.739 588.932C458.866 587.701 459.794 586.631 460.523 585.722C461.252 584.803 461.792 583.941 462.142 583.136C462.502 582.322 462.682 581.47 462.682 580.58C462.682 579.557 462.436 578.671 461.943 577.923C461.46 577.175 460.797 576.598 459.955 576.19C459.112 575.783 458.165 575.58 457.114 575.58C455.996 575.58 455.021 575.812 454.188 576.276C453.364 576.73 452.724 577.369 452.27 578.193C451.825 579.017 451.602 579.983 451.602 581.091H448.25C448.25 579.386 448.643 577.89 449.429 576.602C450.215 575.314 451.285 574.311 452.639 573.591C454.003 572.871 455.532 572.511 457.227 572.511C458.932 572.511 460.442 572.871 461.759 573.591C463.075 574.311 464.107 575.281 464.855 576.503C465.603 577.724 465.977 579.083 465.977 580.58C465.977 581.65 465.783 582.696 465.395 583.719C465.016 584.732 464.353 585.864 463.406 587.114C462.469 588.354 461.167 589.869 459.5 591.659L452.966 598.648V598.875H466.489V602H448.136Z" fill="white"/>
<path d="M432.497 1006.4C430.622 1006.4 428.951 1006.08 427.483 1005.43C426.025 1004.79 424.865 1003.89 424.003 1002.75C423.151 1001.59 422.687 1000.25 422.611 998.727H426.19C426.266 999.665 426.588 1000.47 427.156 1001.16C427.724 1001.83 428.468 1002.35 429.386 1002.72C430.305 1003.09 431.323 1003.27 432.44 1003.27C433.69 1003.27 434.798 1003.05 435.764 1002.62C436.73 1002.18 437.488 1001.58 438.037 1000.8C438.586 1000.02 438.861 999.125 438.861 998.102C438.861 997.032 438.596 996.09 438.065 995.276C437.535 994.452 436.759 993.808 435.736 993.344C434.713 992.88 433.463 992.648 431.986 992.648H429.656V989.523H431.986C433.141 989.523 434.154 989.314 435.026 988.898C435.906 988.481 436.593 987.894 437.085 987.136C437.587 986.379 437.838 985.489 437.838 984.466C437.838 983.481 437.62 982.624 437.185 981.895C436.749 981.166 436.134 980.598 435.338 980.19C434.552 979.783 433.624 979.58 432.554 979.58C431.55 979.58 430.603 979.764 429.713 980.134C428.832 980.493 428.113 981.019 427.554 981.71C426.995 982.392 426.692 983.216 426.645 984.182H423.236C423.293 982.657 423.752 981.322 424.614 980.176C425.475 979.021 426.602 978.121 427.994 977.477C429.396 976.833 430.935 976.511 432.611 976.511C434.41 976.511 435.954 976.876 437.241 977.605C438.529 978.325 439.519 979.277 440.21 980.46C440.902 981.644 441.247 982.922 441.247 984.295C441.247 985.934 440.816 987.33 439.955 988.486C439.102 989.641 437.942 990.441 436.474 990.886V991.114C438.312 991.417 439.746 992.198 440.778 993.457C441.811 994.707 442.327 996.256 442.327 998.102C442.327 999.684 441.896 1001.1 441.034 1002.36C440.182 1003.61 439.017 1004.6 437.54 1005.32C436.063 1006.04 434.382 1006.4 432.497 1006.4ZM448.136 1006V1003.44L457.739 992.932C458.866 991.701 459.794 990.631 460.523 989.722C461.252 988.803 461.792 987.941 462.142 987.136C462.502 986.322 462.682 985.47 462.682 984.58C462.682 983.557 462.436 982.671 461.943 981.923C461.46 981.175 460.797 980.598 459.955 980.19C459.112 979.783 458.165 979.58 457.114 979.58C455.996 979.58 455.021 979.812 454.188 980.276C453.364 980.73 452.724 981.369 452.27 982.193C451.825 983.017 451.602 983.983 451.602 985.091H448.25C448.25 983.386 448.643 981.89 449.429 980.602C450.215 979.314 451.285 978.311 452.639 977.591C454.003 976.871 455.532 976.511 457.227 976.511C458.932 976.511 460.442 976.871 461.759 977.591C463.075 978.311 464.107 979.281 464.855 980.503C465.603 981.724 465.977 983.083 465.977 984.58C465.977 985.65 465.783 986.696 465.395 987.719C465.016 988.732 464.353 989.864 463.406 991.114C462.469 992.354 461.167 993.869 459.5 995.659L452.966 1002.65V1002.88H466.489V1006H448.136Z" fill="white"/>
<path d="M556.332 136.909V166H552.81V140.602H552.639L545.537 145.318V141.739L552.81 136.909H556.332ZM564.699 166V163.443L574.301 152.932C575.428 151.701 576.356 150.631 577.085 149.722C577.814 148.803 578.354 147.941 578.705 147.136C579.064 146.322 579.244 145.47 579.244 144.58C579.244 143.557 578.998 142.671 578.506 141.923C578.023 141.175 577.36 140.598 576.517 140.19C575.674 139.783 574.727 139.58 573.676 139.58C572.559 139.58 571.583 139.812 570.75 140.276C569.926 140.73 569.287 141.369 568.832 142.193C568.387 143.017 568.165 143.983 568.165 145.091H564.812C564.812 143.386 565.205 141.89 565.991 140.602C566.777 139.314 567.848 138.311 569.202 137.591C570.565 136.871 572.095 136.511 573.79 136.511C575.494 136.511 577.005 136.871 578.321 137.591C579.637 138.311 580.67 139.281 581.418 140.503C582.166 141.724 582.54 143.083 582.54 144.58C582.54 145.65 582.346 146.696 581.957 147.719C581.579 148.732 580.916 149.864 579.969 151.114C579.031 152.354 577.729 153.869 576.062 155.659L569.528 162.648V162.875H583.051V166H564.699Z" fill="white"/>
<path d="M542.572 596.034V593.136L555.356 572.909H557.458V577.398H556.038L546.379 592.682V592.909H563.594V596.034H542.572ZM556.265 602V595.153V593.804V572.909H559.617V602H556.265ZM569.827 602L582.838 576.261V576.034H567.838V572.909H586.474V576.205L573.52 602H569.827Z" fill="white"/>
<path d="M542.572 1000.03V997.136L555.356 976.909H557.458V981.398H556.038L546.379 996.682V996.909H563.594V1000.03H542.572ZM556.265 1006V999.153V997.804V976.909H559.617V1006H556.265ZM569.827 1006L582.838 980.261V980.034H567.838V976.909H586.474V980.205L573.52 1006H569.827Z" fill="white"/>
<line y1="-0.5" x2="33" y2="-0.5" transform="matrix(0 1 1 0 505 235)" stroke="white"/>
<line y1="-0.5" x2="33" y2="-0.5" transform="matrix(0 1 1 0 625 671)" stroke="white"/>
<line x1="24" y1="267.5" x2="505" y2="267.5" stroke="white"/>
<line x1="145" y1="703.5" x2="625" y2="703.5" stroke="white"/>
<line y1="-0.5" x2="33" y2="-0.5" transform="matrix(0 1 1 0 24 235)" stroke="white"/>
<line y1="-0.5" x2="33" y2="-0.5" transform="matrix(0 1 1 0 145 671)" stroke="white"/>
</svg>
