<svg width="648" height="648" viewBox="0 0 648 648" fill="none" xmlns="http://www.w3.org/2000/svg">
<rect x="145" y="92" width="120" height="120" fill="#009966"/>
<path d="M230.845 45V15.9091H250.106V20.9801H236.995V27.9119H248.828V32.983H236.995V45H230.845ZM254.13 45V23.1818H260.181V45H254.13ZM257.169 20.3693C256.27 20.3693 255.498 20.071 254.854 19.4744C254.22 18.8684 253.902 18.1439 253.902 17.3011C253.902 16.4678 254.22 15.7528 254.854 15.1562C255.498 14.5502 256.27 14.2472 257.169 14.2472C258.069 14.2472 258.836 14.5502 259.471 15.1562C260.114 15.7528 260.436 16.4678 260.436 17.3011C260.436 18.1439 260.114 18.8684 259.471 19.4744C258.836 20.071 258.069 20.3693 257.169 20.3693ZM265.028 45V23.1818H270.895V26.9886H271.122C271.52 25.6345 272.187 24.6117 273.125 23.9205C274.062 23.2197 275.142 22.8693 276.363 22.8693C276.666 22.8693 276.993 22.8883 277.343 22.9261C277.694 22.964 278.002 23.0161 278.267 23.0824V28.4517C277.983 28.3665 277.59 28.2907 277.088 28.2244C276.586 28.1581 276.127 28.125 275.71 28.125C274.82 28.125 274.024 28.3191 273.324 28.7074C272.632 29.0862 272.083 29.6165 271.676 30.2983C271.278 30.9801 271.079 31.7661 271.079 32.6562V45H265.028ZM299.549 29.4034L294.009 29.7443C293.914 29.2708 293.711 28.8447 293.398 28.4659C293.086 28.0777 292.674 27.7699 292.162 27.5426C291.66 27.3059 291.059 27.1875 290.358 27.1875C289.421 27.1875 288.63 27.3864 287.986 27.7841C287.342 28.1723 287.02 28.6932 287.02 29.3466C287.02 29.8674 287.229 30.3078 287.645 30.6676C288.062 31.0275 288.777 31.3163 289.79 31.5341L293.739 32.3295C295.86 32.7652 297.442 33.4659 298.483 34.4318C299.525 35.3977 300.046 36.6667 300.046 38.2386C300.046 39.6686 299.624 40.9233 298.782 42.0028C297.948 43.0824 296.802 43.9252 295.344 44.5312C293.895 45.1278 292.224 45.4261 290.33 45.4261C287.442 45.4261 285.141 44.8248 283.426 43.6222C281.722 42.41 280.723 40.7623 280.429 38.679L286.381 38.3665C286.561 39.2472 286.997 39.9195 287.688 40.3835C288.379 40.8381 289.265 41.0653 290.344 41.0653C291.405 41.0653 292.257 40.8617 292.901 40.4545C293.554 40.0379 293.886 39.5028 293.895 38.8494C293.886 38.3002 293.654 37.8504 293.199 37.5C292.745 37.1402 292.044 36.8655 291.097 36.6761L287.319 35.9233C285.188 35.4972 283.602 34.7585 282.56 33.7074C281.528 32.6562 281.012 31.3163 281.012 29.6875C281.012 28.286 281.391 27.0786 282.148 26.0653C282.915 25.0521 283.99 24.2708 285.373 23.7216C286.765 23.1723 288.393 22.8977 290.259 22.8977C293.015 22.8977 295.183 23.4801 296.765 24.6449C298.355 25.8097 299.283 27.3958 299.549 29.4034ZM315.461 23.1818V27.7273H302.322V23.1818H315.461ZM305.305 17.9545H311.356V38.2955C311.356 38.8542 311.441 39.2898 311.612 39.6023C311.782 39.9053 312.019 40.1184 312.322 40.2415C312.635 40.3646 312.994 40.4261 313.402 40.4261C313.686 40.4261 313.97 40.4025 314.254 40.3551C314.538 40.2983 314.756 40.2557 314.907 40.2273L315.859 44.7301C315.556 44.8248 315.13 44.9337 314.581 45.0568C314.031 45.1894 313.364 45.2699 312.578 45.2983C311.119 45.3551 309.841 45.161 308.743 44.7159C307.654 44.2708 306.806 43.5795 306.2 42.642C305.594 41.7045 305.296 40.5208 305.305 39.0909V17.9545ZM328.775 45V15.9091H340.252C342.458 15.9091 344.338 16.3305 345.891 17.1733C347.444 18.0066 348.628 19.1667 349.442 20.6534C350.266 22.1307 350.678 23.8352 350.678 25.767C350.678 27.6989 350.261 29.4034 349.428 30.8807C348.595 32.358 347.387 33.5085 345.806 34.3324C344.234 35.1562 342.33 35.5682 340.096 35.5682H332.78V30.6392H339.101C340.285 30.6392 341.26 30.4356 342.027 30.0284C342.804 29.6117 343.382 29.0388 343.76 28.3097C344.149 27.571 344.343 26.7235 344.343 25.767C344.343 24.8011 344.149 23.9583 343.76 23.2386C343.382 22.5095 342.804 21.946 342.027 21.5483C341.251 21.1411 340.266 20.9375 339.073 20.9375H334.925V45H328.775ZM360.195 45.4119C358.803 45.4119 357.562 45.1705 356.473 44.6875C355.384 44.1951 354.523 43.4706 353.888 42.5142C353.263 41.5483 352.951 40.3456 352.951 38.9062C352.951 37.6941 353.173 36.6761 353.618 35.8523C354.063 35.0284 354.669 34.3655 355.436 33.8636C356.203 33.3617 357.075 32.983 358.05 32.7273C359.035 32.4716 360.067 32.2917 361.147 32.1875C362.416 32.0549 363.438 31.9318 364.215 31.8182C364.991 31.6951 365.555 31.5152 365.905 31.2784C366.256 31.0417 366.431 30.6913 366.431 30.2273V30.142C366.431 29.2424 366.147 28.5464 365.578 28.054C365.02 27.5616 364.224 27.3153 363.192 27.3153C362.103 27.3153 361.237 27.5568 360.593 28.0398C359.949 28.5133 359.523 29.1098 359.314 29.8295L353.718 29.375C354.002 28.0492 354.56 26.9034 355.394 25.9375C356.227 24.9621 357.302 24.214 358.618 23.6932C359.944 23.1629 361.478 22.8977 363.221 22.8977C364.433 22.8977 365.593 23.0398 366.701 23.3239C367.818 23.608 368.808 24.0483 369.669 24.6449C370.541 25.2415 371.227 26.0085 371.729 26.946C372.231 27.8741 372.482 28.9867 372.482 30.2841V45H366.743V41.9744H366.573C366.222 42.6562 365.754 43.2576 365.167 43.7784C364.579 44.2898 363.874 44.6922 363.05 44.9858C362.226 45.2699 361.275 45.4119 360.195 45.4119ZM361.928 41.2358C362.818 41.2358 363.604 41.0606 364.286 40.7102C364.968 40.3504 365.503 39.8674 365.891 39.2614C366.279 38.6553 366.473 37.9687 366.473 37.2017V34.8864C366.284 35.0095 366.024 35.1231 365.692 35.2273C365.37 35.322 365.006 35.4119 364.598 35.4972C364.191 35.5729 363.784 35.6439 363.377 35.7102C362.97 35.767 362.6 35.8191 362.269 35.8665C361.559 35.9706 360.938 36.1364 360.408 36.3636C359.878 36.5909 359.466 36.8987 359.172 37.2869C358.879 37.6657 358.732 38.1392 358.732 38.7074C358.732 39.5312 359.03 40.161 359.627 40.5966C360.233 41.0227 361 41.2358 361.928 41.2358ZM395.33 29.4034L389.79 29.7443C389.695 29.2708 389.492 28.8447 389.179 28.4659C388.867 28.0777 388.455 27.7699 387.944 27.5426C387.442 27.3059 386.84 27.1875 386.14 27.1875C385.202 27.1875 384.411 27.3864 383.767 27.7841C383.123 28.1723 382.801 28.6932 382.801 29.3466C382.801 29.8674 383.01 30.3078 383.426 30.6676C383.843 31.0275 384.558 31.3163 385.571 31.5341L389.52 32.3295C391.641 32.7652 393.223 33.4659 394.265 34.4318C395.306 35.3977 395.827 36.6667 395.827 38.2386C395.827 39.6686 395.406 40.9233 394.563 42.0028C393.73 43.0824 392.584 43.9252 391.125 44.5312C389.676 45.1278 388.005 45.4261 386.111 45.4261C383.223 45.4261 380.922 44.8248 379.208 43.6222C377.503 42.41 376.504 40.7623 376.211 38.679L382.162 38.3665C382.342 39.2472 382.778 39.9195 383.469 40.3835C384.16 40.8381 385.046 41.0653 386.125 41.0653C387.186 41.0653 388.038 40.8617 388.682 40.4545C389.336 40.0379 389.667 39.5028 389.676 38.8494C389.667 38.3002 389.435 37.8504 388.98 37.5C388.526 37.1402 387.825 36.8655 386.878 36.6761L383.1 35.9233C380.969 35.4972 379.383 34.7585 378.341 33.7074C377.309 32.6562 376.793 31.3163 376.793 29.6875C376.793 28.286 377.172 27.0786 377.929 26.0653C378.696 25.0521 379.771 24.2708 381.154 23.7216C382.546 23.1723 384.175 22.8977 386.04 22.8977C388.796 22.8977 390.964 23.4801 392.546 24.6449C394.137 25.8097 395.065 27.3958 395.33 29.4034ZM417.791 29.4034L412.251 29.7443C412.156 29.2708 411.953 28.8447 411.64 28.4659C411.328 28.0777 410.916 27.7699 410.404 27.5426C409.903 27.3059 409.301 27.1875 408.6 27.1875C407.663 27.1875 406.872 27.3864 406.228 27.7841C405.584 28.1723 405.262 28.6932 405.262 29.3466C405.262 29.8674 405.471 30.3078 405.887 30.6676C406.304 31.0275 407.019 31.3163 408.032 31.5341L411.981 32.3295C414.102 32.7652 415.684 33.4659 416.725 34.4318C417.767 35.3977 418.288 36.6667 418.288 38.2386C418.288 39.6686 417.867 40.9233 417.024 42.0028C416.19 43.0824 415.045 43.9252 413.586 44.5312C412.137 45.1278 410.466 45.4261 408.572 45.4261C405.684 45.4261 403.383 44.8248 401.669 43.6222C399.964 42.41 398.965 40.7623 398.672 38.679L404.623 38.3665C404.803 39.2472 405.239 39.9195 405.93 40.3835C406.621 40.8381 407.507 41.0653 408.586 41.0653C409.647 41.0653 410.499 40.8617 411.143 40.4545C411.797 40.0379 412.128 39.5028 412.137 38.8494C412.128 38.3002 411.896 37.8504 411.441 37.5C410.987 37.1402 410.286 36.8655 409.339 36.6761L405.561 35.9233C403.43 35.4972 401.844 34.7585 400.802 33.7074C399.77 32.6562 399.254 31.3163 399.254 29.6875C399.254 28.286 399.633 27.0786 400.39 26.0653C401.157 25.0521 402.232 24.2708 403.615 23.7216C405.007 23.1723 406.636 22.8977 408.501 22.8977C411.257 22.8977 413.425 23.4801 415.007 24.6449C416.598 25.8097 417.526 27.3958 417.791 29.4034Z" fill="white"/>
<rect x="25" y="92" width="599" height="120" rx="26" stroke="#DBDBDB" stroke-width="2"/>
<rect x="25" y="527" width="599" height="120" rx="26" stroke="#DBDBDB" stroke-width="2"/>
<line x1="145" y1="91" x2="145" y2="213" stroke="#DBDBDB" stroke-width="2"/>
<line x1="145" y1="526" x2="145" y2="648" stroke="#DBDBDB" stroke-width="2"/>
<line x1="265" y1="91" x2="265" y2="213" stroke="#DBDBDB" stroke-width="2"/>
<line x1="265" y1="526" x2="265" y2="648" stroke="#DBDBDB" stroke-width="2"/>
<line x1="386" y1="91" x2="386" y2="213" stroke="#DBDBDB" stroke-width="2"/>
<line x1="386" y1="526" x2="386" y2="648" stroke="#DBDBDB" stroke-width="2"/>
<line x1="506" y1="91" x2="506" y2="213" stroke="#DBDBDB" stroke-width="2"/>
<line x1="506" y1="526" x2="506" y2="648" stroke="#DBDBDB" stroke-width="2"/>
<path d="M62.9762 166V163.443L72.5785 152.932C73.7054 151.701 74.6334 150.631 75.3626 149.722C76.0917 148.803 76.6315 147.941 76.9819 147.136C77.3417 146.322 77.5217 145.47 77.5217 144.58C77.5217 143.557 77.2755 142.671 76.783 141.923C76.3001 141.175 75.6372 140.598 74.7944 140.19C73.9516 139.783 73.0046 139.58 71.9535 139.58C70.8361 139.58 69.8607 139.812 69.0273 140.276C68.2035 140.73 67.5643 141.369 67.1097 142.193C66.6647 143.017 66.4421 143.983 66.4421 145.091H63.0898C63.0898 143.386 63.4828 141.89 64.2688 140.602C65.0548 139.314 66.1249 138.311 67.479 137.591C68.8427 136.871 70.372 136.511 72.0671 136.511C73.7717 136.511 75.2821 136.871 76.5984 137.591C77.9147 138.311 78.9469 139.281 79.695 140.503C80.4431 141.724 80.8171 143.083 80.8171 144.58C80.8171 145.65 80.623 146.696 80.2347 147.719C79.8559 148.732 79.1931 149.864 78.2461 151.114C77.3086 152.354 76.0065 153.869 74.3398 155.659L67.8058 162.648V162.875H81.3285V166H62.9762ZM88.104 166L101.115 140.261V140.034H86.1154V136.909H104.752V140.205L91.7972 166H88.104Z" fill="white"/>
<path d="M62.9762 601V598.443L72.5785 587.932C73.7054 586.701 74.6334 585.631 75.3626 584.722C76.0917 583.803 76.6315 582.941 76.9819 582.136C77.3417 581.322 77.5217 580.47 77.5217 579.58C77.5217 578.557 77.2755 577.671 76.783 576.923C76.3001 576.175 75.6372 575.598 74.7944 575.19C73.9516 574.783 73.0046 574.58 71.9535 574.58C70.8361 574.58 69.8607 574.812 69.0273 575.276C68.2035 575.73 67.5643 576.369 67.1097 577.193C66.6647 578.017 66.4421 578.983 66.4421 580.091H63.0898C63.0898 578.386 63.4828 576.89 64.2688 575.602C65.0548 574.314 66.1249 573.311 67.479 572.591C68.8427 571.871 70.372 571.511 72.0671 571.511C73.7717 571.511 75.2821 571.871 76.5984 572.591C77.9147 573.311 78.9469 574.281 79.695 575.503C80.4431 576.724 80.8171 578.083 80.8171 579.58C80.8171 580.65 80.623 581.696 80.2347 582.719C79.8559 583.732 79.1931 584.864 78.2461 586.114C77.3086 587.354 76.0065 588.869 74.3398 590.659L67.8058 597.648V597.875H81.3285V601H62.9762ZM88.104 601L101.115 575.261V575.034H86.1154V571.909H104.752V575.205L91.7972 601H88.104Z" fill="white"/>
<path d="M181.572 160.034V157.136L194.356 136.909H196.458V141.398H195.038L185.379 156.682V156.909H202.594V160.034H181.572ZM195.265 166V159.153V157.804V136.909H198.617V166H195.265ZM208.827 166L221.838 140.261V140.034H206.838V136.909H225.474V140.205L212.52 166H208.827Z" fill="white"/>
<path d="M181.572 595.034V592.136L194.356 571.909H196.458V576.398H195.038L185.379 591.682V591.909H202.594V595.034H181.572ZM195.265 601V594.153V592.804V571.909H198.617V601H195.265ZM208.827 601L221.838 575.261V575.034H206.838V571.909H225.474V575.205L212.52 601H208.827Z" fill="white"/>
<path d="M314.961 136.909V166H311.439V140.602H311.268L304.166 145.318V141.739L311.439 136.909H314.961ZM332.589 136.511C333.782 136.521 334.975 136.748 336.169 137.193C337.362 137.638 338.451 138.377 339.436 139.409C340.421 140.432 341.211 141.829 341.808 143.599C342.404 145.37 342.703 147.591 342.703 150.261C342.703 152.847 342.457 155.143 341.964 157.151C341.481 159.149 340.78 160.834 339.862 162.207C338.953 163.58 337.845 164.622 336.538 165.332C335.241 166.043 333.773 166.398 332.135 166.398C330.506 166.398 329.052 166.076 327.774 165.432C326.505 164.778 325.463 163.874 324.649 162.719C323.844 161.554 323.328 160.205 323.1 158.67H326.566C326.879 160.006 327.499 161.109 328.427 161.98C329.365 162.842 330.6 163.273 332.135 163.273C334.379 163.273 336.15 162.293 337.447 160.332C338.754 158.372 339.407 155.602 339.407 152.023H339.18C338.65 152.818 338.02 153.505 337.291 154.082C336.562 154.66 335.752 155.105 334.862 155.418C333.972 155.73 333.025 155.886 332.021 155.886C330.354 155.886 328.825 155.474 327.433 154.651C326.05 153.817 324.942 152.676 324.109 151.227C323.285 149.769 322.873 148.102 322.873 146.227C322.873 144.447 323.271 142.818 324.066 141.341C324.871 139.854 325.998 138.67 327.447 137.79C328.905 136.909 330.619 136.483 332.589 136.511ZM332.589 139.636C331.396 139.636 330.321 139.935 329.365 140.531C328.418 141.118 327.665 141.914 327.106 142.918C326.557 143.912 326.282 145.015 326.282 146.227C326.282 147.439 326.547 148.543 327.078 149.537C327.618 150.522 328.351 151.308 329.279 151.895C330.217 152.473 331.282 152.761 332.475 152.761C333.375 152.761 334.213 152.586 334.99 152.236C335.766 151.876 336.443 151.388 337.021 150.773C337.608 150.148 338.067 149.442 338.399 148.656C338.73 147.861 338.896 147.032 338.896 146.17C338.896 145.034 338.621 143.969 338.072 142.974C337.532 141.98 336.784 141.175 335.828 140.56C334.881 139.944 333.801 139.636 332.589 139.636Z" fill="white"/>
<path d="M314.961 571.909V601H311.439V575.602H311.268L304.166 580.318V576.739L311.439 571.909H314.961ZM332.589 571.511C333.782 571.521 334.975 571.748 336.169 572.193C337.362 572.638 338.451 573.377 339.436 574.409C340.421 575.432 341.211 576.829 341.808 578.599C342.404 580.37 342.703 582.591 342.703 585.261C342.703 587.847 342.457 590.143 341.964 592.151C341.481 594.149 340.78 595.834 339.862 597.207C338.953 598.58 337.845 599.622 336.538 600.332C335.241 601.043 333.773 601.398 332.135 601.398C330.506 601.398 329.052 601.076 327.774 600.432C326.505 599.778 325.463 598.874 324.649 597.719C323.844 596.554 323.328 595.205 323.1 593.67H326.566C326.879 595.006 327.499 596.109 328.427 596.98C329.365 597.842 330.6 598.273 332.135 598.273C334.379 598.273 336.15 597.293 337.447 595.332C338.754 593.372 339.407 590.602 339.407 587.023H339.18C338.65 587.818 338.02 588.505 337.291 589.082C336.562 589.66 335.752 590.105 334.862 590.418C333.972 590.73 333.025 590.886 332.021 590.886C330.354 590.886 328.825 590.474 327.433 589.651C326.05 588.817 324.942 587.676 324.109 586.227C323.285 584.769 322.873 583.102 322.873 581.227C322.873 579.447 323.271 577.818 324.066 576.341C324.871 574.854 325.998 573.67 327.447 572.79C328.905 571.909 330.619 571.483 332.589 571.511ZM332.589 574.636C331.396 574.636 330.321 574.935 329.365 575.531C328.418 576.118 327.665 576.914 327.106 577.918C326.557 578.912 326.282 580.015 326.282 581.227C326.282 582.439 326.547 583.543 327.078 584.537C327.618 585.522 328.351 586.308 329.279 586.895C330.217 587.473 331.282 587.761 332.475 587.761C333.375 587.761 334.213 587.586 334.99 587.236C335.766 586.876 336.443 586.388 337.021 585.773C337.608 585.148 338.067 584.442 338.399 583.656C338.73 582.861 338.896 582.032 338.896 581.17C338.896 580.034 338.621 578.969 338.072 577.974C337.532 576.98 336.784 576.175 335.828 575.56C334.881 574.944 333.801 574.636 332.589 574.636Z" fill="white"/>
<path d="M39.2246 269.078V266.687L49.7715 250H51.5059V253.703H50.334L42.3652 266.312V266.5H56.5684V269.078H39.2246ZM50.5215 274V268.352V267.238V250H53.2871V274H50.5215ZM61.71 274L72.4443 252.766V252.578H60.0693V250H75.4443V252.719L64.7568 274H61.71ZM95.9375 274.375C94.4375 274.375 93.1133 273.996 91.9648 273.238C90.8164 272.473 89.918 271.395 89.2695 270.004C88.6211 268.605 88.2969 266.953 88.2969 265.047C88.2969 263.156 88.6211 261.516 89.2695 260.125C89.918 258.734 90.8203 257.66 91.9766 256.902C93.1328 256.145 94.4688 255.766 95.9844 255.766C97.1563 255.766 98.082 255.961 98.7617 256.352C99.4492 256.734 99.9727 257.172 100.332 257.664C100.699 258.148 100.984 258.547 101.188 258.859H101.422V250H104.188V274H101.516V271.234H101.188C100.984 271.562 100.695 271.977 100.32 272.477C99.9453 272.969 99.4102 273.41 98.7148 273.801C98.0195 274.184 97.0938 274.375 95.9375 274.375ZM96.3125 271.891C97.4219 271.891 98.3594 271.602 99.125 271.023C99.8906 270.437 100.473 269.629 100.871 268.598C101.27 267.559 101.469 266.359 101.469 265C101.469 263.656 101.273 262.48 100.883 261.473C100.492 260.457 99.9141 259.668 99.1484 259.105C98.3828 258.535 97.4375 258.25 96.3125 258.25C95.1406 258.25 94.1641 258.551 93.3828 259.152C92.6094 259.746 92.0273 260.555 91.6367 261.578C91.2539 262.594 91.0625 263.734 91.0625 265C91.0625 266.281 91.2578 267.445 91.6484 268.492C92.0469 269.531 92.6328 270.359 93.4063 270.977C94.1875 271.586 95.1563 271.891 96.3125 271.891ZM116.949 274.375C115.324 274.375 113.898 273.988 112.672 273.215C111.453 272.441 110.5 271.359 109.812 269.969C109.133 268.578 108.793 266.953 108.793 265.094C108.793 263.219 109.133 261.582 109.812 260.184C110.5 258.785 111.453 257.699 112.672 256.926C113.898 256.152 115.324 255.766 116.949 255.766C118.574 255.766 119.996 256.152 121.215 256.926C122.441 257.699 123.395 258.785 124.074 260.184C124.762 261.582 125.105 263.219 125.105 265.094C125.105 266.953 124.762 268.578 124.074 269.969C123.395 271.359 122.441 272.441 121.215 273.215C119.996 273.988 118.574 274.375 116.949 274.375ZM116.949 271.891C118.184 271.891 119.199 271.574 119.996 270.941C120.793 270.309 121.383 269.477 121.766 268.445C122.148 267.414 122.34 266.297 122.34 265.094C122.34 263.891 122.148 262.77 121.766 261.73C121.383 260.691 120.793 259.852 119.996 259.211C119.199 258.57 118.184 258.25 116.949 258.25C115.715 258.25 114.699 258.57 113.902 259.211C113.105 259.852 112.516 260.691 112.133 261.73C111.75 262.77 111.559 263.891 111.559 265.094C111.559 266.297 111.75 267.414 112.133 268.445C112.516 269.477 113.105 270.309 113.902 270.941C114.699 271.574 115.715 271.891 116.949 271.891ZM136.874 274.375C135.14 274.375 133.644 273.992 132.386 273.227C131.136 272.453 130.171 271.375 129.491 269.992C128.819 268.602 128.483 266.984 128.483 265.141C128.483 263.297 128.819 261.672 129.491 260.266C130.171 258.852 131.116 257.75 132.327 256.961C133.546 256.164 134.968 255.766 136.593 255.766C137.53 255.766 138.456 255.922 139.37 256.234C140.284 256.547 141.116 257.055 141.866 257.758C142.616 258.453 143.214 259.375 143.659 260.523C144.104 261.672 144.327 263.086 144.327 264.766V265.937H130.452V263.547H141.515C141.515 262.531 141.312 261.625 140.905 260.828C140.507 260.031 139.937 259.402 139.194 258.941C138.46 258.48 137.593 258.25 136.593 258.25C135.491 258.25 134.538 258.523 133.733 259.07C132.937 259.609 132.323 260.312 131.894 261.18C131.464 262.047 131.249 262.977 131.249 263.969V265.563C131.249 266.922 131.483 268.074 131.952 269.02C132.429 269.957 133.089 270.672 133.933 271.164C134.776 271.648 135.757 271.891 136.874 271.891C137.601 271.891 138.257 271.789 138.843 271.586C139.437 271.375 139.948 271.063 140.378 270.648C140.808 270.227 141.14 269.703 141.374 269.078L144.046 269.828C143.765 270.734 143.292 271.531 142.628 272.219C141.964 272.898 141.144 273.43 140.167 273.812C139.19 274.188 138.093 274.375 136.874 274.375ZM161.284 260.031L158.8 260.734C158.644 260.32 158.413 259.918 158.108 259.527C157.812 259.129 157.405 258.801 156.89 258.543C156.374 258.285 155.714 258.156 154.909 258.156C153.808 258.156 152.89 258.41 152.155 258.918C151.429 259.418 151.065 260.055 151.065 260.828C151.065 261.516 151.315 262.059 151.815 262.457C152.315 262.855 153.097 263.187 154.159 263.453L156.831 264.109C158.44 264.5 159.64 265.098 160.429 265.902C161.218 266.699 161.612 267.727 161.612 268.984C161.612 270.016 161.315 270.937 160.722 271.75C160.136 272.562 159.315 273.203 158.261 273.672C157.206 274.141 155.979 274.375 154.581 274.375C152.745 274.375 151.226 273.977 150.022 273.18C148.819 272.383 148.058 271.219 147.737 269.687L150.362 269.031C150.612 270 151.085 270.727 151.78 271.211C152.483 271.695 153.401 271.938 154.534 271.938C155.823 271.938 156.847 271.664 157.604 271.117C158.37 270.562 158.753 269.898 158.753 269.125C158.753 268.5 158.534 267.977 158.097 267.555C157.659 267.125 156.987 266.805 156.081 266.594L153.081 265.891C151.433 265.5 150.222 264.895 149.448 264.074C148.683 263.246 148.3 262.211 148.3 260.969C148.3 259.953 148.585 259.055 149.155 258.273C149.733 257.492 150.519 256.879 151.511 256.434C152.511 255.988 153.644 255.766 154.909 255.766C156.69 255.766 158.089 256.156 159.104 256.937C160.128 257.719 160.854 258.75 161.284 260.031ZM177.822 263.172V274H175.057V256H177.729V258.812H177.963C178.385 257.898 179.025 257.164 179.885 256.609C180.744 256.047 181.854 255.766 183.213 255.766C184.432 255.766 185.498 256.016 186.412 256.516C187.326 257.008 188.037 257.758 188.545 258.766C189.053 259.766 189.307 261.031 189.307 262.563V274H186.541V262.75C186.541 261.336 186.174 260.234 185.439 259.445C184.705 258.648 183.697 258.25 182.416 258.25C181.533 258.25 180.744 258.441 180.049 258.824C179.361 259.207 178.818 259.766 178.42 260.5C178.021 261.234 177.822 262.125 177.822 263.172ZM201.673 274.375C200.048 274.375 198.622 273.988 197.396 273.215C196.177 272.441 195.224 271.359 194.536 269.969C193.856 268.578 193.517 266.953 193.517 265.094C193.517 263.219 193.856 261.582 194.536 260.184C195.224 258.785 196.177 257.699 197.396 256.926C198.622 256.152 200.048 255.766 201.673 255.766C203.298 255.766 204.72 256.152 205.938 256.926C207.165 257.699 208.118 258.785 208.798 260.184C209.485 261.582 209.829 263.219 209.829 265.094C209.829 266.953 209.485 268.578 208.798 269.969C208.118 271.359 207.165 272.441 205.938 273.215C204.72 273.988 203.298 274.375 201.673 274.375ZM201.673 271.891C202.907 271.891 203.923 271.574 204.72 270.941C205.517 270.309 206.106 269.477 206.489 268.445C206.872 267.414 207.063 266.297 207.063 265.094C207.063 263.891 206.872 262.77 206.489 261.73C206.106 260.691 205.517 259.852 204.72 259.211C203.923 258.57 202.907 258.25 201.673 258.25C200.438 258.25 199.423 258.57 198.626 259.211C197.829 259.852 197.239 260.691 196.856 261.73C196.474 262.77 196.282 263.891 196.282 265.094C196.282 266.297 196.474 267.414 196.856 268.445C197.239 269.477 197.829 270.309 198.626 270.941C199.423 271.574 200.438 271.891 201.673 271.891ZM221.879 256V258.344H212.551V256H221.879ZM215.27 251.687H218.035V268.844C218.035 269.625 218.148 270.211 218.375 270.602C218.609 270.984 218.906 271.242 219.266 271.375C219.633 271.5 220.02 271.562 220.426 271.562C220.73 271.562 220.98 271.547 221.176 271.516C221.371 271.477 221.527 271.445 221.645 271.422L222.207 273.906C222.02 273.977 221.758 274.047 221.422 274.117C221.086 274.195 220.66 274.234 220.145 274.234C219.363 274.234 218.598 274.066 217.848 273.73C217.105 273.395 216.488 272.883 215.996 272.195C215.512 271.508 215.27 270.641 215.27 269.594V251.687ZM235.32 274V256H237.992V258.812H238.227C238.602 257.852 239.207 257.105 240.043 256.574C240.879 256.035 241.883 255.766 243.055 255.766C244.242 255.766 245.23 256.035 246.02 256.574C246.816 257.105 247.438 257.852 247.883 258.812H248.07C248.531 257.883 249.223 257.145 250.145 256.598C251.066 256.043 252.172 255.766 253.461 255.766C255.07 255.766 256.387 256.27 257.41 257.277C258.434 258.277 258.945 259.836 258.945 261.953V274H256.18V261.953C256.18 260.625 255.816 259.676 255.09 259.105C254.363 258.535 253.508 258.25 252.523 258.25C251.258 258.25 250.277 258.633 249.582 259.398C248.887 260.156 248.539 261.117 248.539 262.281V274H245.727V261.672C245.727 260.648 245.395 259.824 244.73 259.199C244.066 258.566 243.211 258.25 242.164 258.25C241.445 258.25 240.773 258.441 240.148 258.824C239.531 259.207 239.031 259.738 238.648 260.418C238.273 261.09 238.086 261.867 238.086 262.75V274H235.32ZM271.314 274.375C269.689 274.375 268.264 273.988 267.037 273.215C265.818 272.441 264.865 271.359 264.178 269.969C263.498 268.578 263.158 266.953 263.158 265.094C263.158 263.219 263.498 261.582 264.178 260.184C264.865 258.785 265.818 257.699 267.037 256.926C268.264 256.152 269.689 255.766 271.314 255.766C272.939 255.766 274.361 256.152 275.58 256.926C276.807 257.699 277.76 258.785 278.439 260.184C279.127 261.582 279.471 263.219 279.471 265.094C279.471 266.953 279.127 268.578 278.439 269.969C277.76 271.359 276.807 272.441 275.58 273.215C274.361 273.988 272.939 274.375 271.314 274.375ZM271.314 271.891C272.549 271.891 273.564 271.574 274.361 270.941C275.158 270.309 275.748 269.477 276.131 268.445C276.514 267.414 276.705 266.297 276.705 265.094C276.705 263.891 276.514 262.77 276.131 261.73C275.748 260.691 275.158 259.852 274.361 259.211C273.564 258.57 272.549 258.25 271.314 258.25C270.08 258.25 269.064 258.57 268.268 259.211C267.471 259.852 266.881 260.691 266.498 261.73C266.115 262.77 265.924 263.891 265.924 265.094C265.924 266.297 266.115 267.414 266.498 268.445C266.881 269.477 267.471 270.309 268.268 270.941C269.064 271.574 270.08 271.891 271.314 271.891ZM297.767 256L291.11 274H288.298L281.642 256H284.642L289.61 270.344H289.798L294.767 256H297.767ZM308.319 274.375C306.585 274.375 305.089 273.992 303.831 273.227C302.581 272.453 301.616 271.375 300.937 269.992C300.265 268.602 299.929 266.984 299.929 265.141C299.929 263.297 300.265 261.672 300.937 260.266C301.616 258.852 302.562 257.75 303.772 256.961C304.991 256.164 306.413 255.766 308.038 255.766C308.976 255.766 309.901 255.922 310.815 256.234C311.729 256.547 312.562 257.055 313.312 257.758C314.062 258.453 314.659 259.375 315.104 260.523C315.55 261.672 315.772 263.086 315.772 264.766V265.937H301.897V263.547H312.96C312.96 262.531 312.757 261.625 312.351 260.828C311.952 260.031 311.382 259.402 310.64 258.941C309.905 258.48 309.038 258.25 308.038 258.25C306.937 258.25 305.983 258.523 305.179 259.07C304.382 259.609 303.769 260.312 303.339 261.18C302.909 262.047 302.694 262.977 302.694 263.969V265.563C302.694 266.922 302.929 268.074 303.397 269.02C303.874 269.957 304.534 270.672 305.378 271.164C306.222 271.648 307.202 271.891 308.319 271.891C309.046 271.891 309.702 271.789 310.288 271.586C310.882 271.375 311.394 271.063 311.823 270.648C312.253 270.227 312.585 269.703 312.819 269.078L315.491 269.828C315.21 270.734 314.737 271.531 314.073 272.219C313.409 272.898 312.589 273.43 311.612 273.812C310.636 274.188 309.538 274.375 308.319 274.375ZM324.104 270.719L323.917 271.984C323.784 272.875 323.581 273.828 323.308 274.844C323.042 275.859 322.765 276.816 322.476 277.715C322.187 278.613 321.948 279.328 321.761 279.859H319.651C319.753 279.359 319.886 278.699 320.05 277.879C320.214 277.059 320.378 276.141 320.542 275.125C320.714 274.117 320.854 273.086 320.964 272.031L321.104 270.719H324.104ZM41.9814 300.031L39.4971 300.734C39.3408 300.32 39.1104 299.918 38.8057 299.527C38.5088 299.129 38.1025 298.801 37.5869 298.543C37.0713 298.285 36.4111 298.156 35.6064 298.156C34.5049 298.156 33.5869 298.41 32.8525 298.918C32.126 299.418 31.7627 300.055 31.7627 300.828C31.7627 301.516 32.0127 302.059 32.5127 302.457C33.0127 302.855 33.7939 303.187 34.8564 303.453L37.5283 304.109C39.1377 304.5 40.3369 305.098 41.126 305.902C41.915 306.699 42.3096 307.727 42.3096 308.984C42.3096 310.016 42.0127 310.937 41.4189 311.75C40.833 312.562 40.0127 313.203 38.958 313.672C37.9033 314.141 36.6768 314.375 35.2783 314.375C33.4424 314.375 31.9229 313.977 30.7197 313.18C29.5166 312.383 28.7549 311.219 28.4346 309.687L31.0596 309.031C31.3096 310 31.7822 310.727 32.4775 311.211C33.1807 311.695 34.0986 311.938 35.2314 311.938C36.5205 311.938 37.5439 311.664 38.3018 311.117C39.0674 310.562 39.4502 309.898 39.4502 309.125C39.4502 308.5 39.2314 307.977 38.7939 307.555C38.3564 307.125 37.6846 306.805 36.7783 306.594L33.7783 305.891C32.1299 305.5 30.9189 304.895 30.1455 304.074C29.3799 303.246 28.9971 302.211 28.9971 300.969C28.9971 299.953 29.2822 299.055 29.8525 298.273C30.4307 297.492 31.2158 296.879 32.208 296.434C33.208 295.988 34.3408 295.766 35.6064 295.766C37.3877 295.766 38.7861 296.156 39.8018 296.937C40.8252 297.719 41.5518 298.75 41.9814 300.031ZM46.4727 314V296H49.2383V314H46.4727ZM47.8789 293C47.3398 293 46.875 292.816 46.4844 292.449C46.1016 292.082 45.9102 291.641 45.9102 291.125C45.9102 290.609 46.1016 290.168 46.4844 289.801C46.875 289.434 47.3398 289.25 47.8789 289.25C48.418 289.25 48.8789 289.434 49.2617 289.801C49.6523 290.168 49.8477 290.609 49.8477 291.125C49.8477 291.641 49.6523 292.082 49.2617 292.449C48.8789 292.816 48.418 293 47.8789 293ZM57.0693 303.172V314H54.3037V296H56.9756V298.812H57.21C57.6318 297.898 58.2725 297.164 59.1318 296.609C59.9912 296.047 61.1006 295.766 62.46 295.766C63.6787 295.766 64.7451 296.016 65.6592 296.516C66.5732 297.008 67.2842 297.758 67.792 298.766C68.2998 299.766 68.5537 301.031 68.5537 302.563V314H65.7881V302.75C65.7881 301.336 65.4209 300.234 64.6865 299.445C63.9521 298.648 62.9443 298.25 61.6631 298.25C60.7803 298.25 59.9912 298.441 59.2959 298.824C58.6084 299.207 58.0654 299.766 57.667 300.5C57.2686 301.234 57.0693 302.125 57.0693 303.172ZM80.9199 314.375C79.2324 314.375 77.7793 313.977 76.5605 313.18C75.3418 312.383 74.4043 311.285 73.748 309.887C73.0918 308.488 72.7637 306.891 72.7637 305.094C72.7637 303.266 73.0996 301.652 73.7715 300.254C74.4512 298.848 75.3965 297.75 76.6074 296.961C77.8262 296.164 79.248 295.766 80.873 295.766C82.1387 295.766 83.2793 296 84.2949 296.469C85.3105 296.937 86.1426 297.594 86.791 298.437C87.4395 299.281 87.8418 300.266 87.998 301.391H85.2324C85.0215 300.57 84.5527 299.844 83.8262 299.211C83.1074 298.57 82.1387 298.25 80.9199 298.25C79.8418 298.25 78.8965 298.531 78.084 299.094C77.2793 299.648 76.6504 300.434 76.1973 301.449C75.752 302.457 75.5293 303.641 75.5293 305C75.5293 306.391 75.748 307.602 76.1855 308.633C76.6309 309.664 77.2559 310.465 78.0605 311.035C78.873 311.605 79.8262 311.891 80.9199 311.891C81.6387 311.891 82.291 311.766 82.877 311.516C83.4629 311.266 83.959 310.906 84.3652 310.437C84.7715 309.969 85.0605 309.406 85.2324 308.75H87.998C87.8418 309.812 87.4551 310.77 86.8379 311.621C86.2285 312.465 85.4199 313.137 84.4121 313.637C83.4121 314.129 82.248 314.375 80.9199 314.375ZM99.5879 314.375C97.8535 314.375 96.3574 313.992 95.0996 313.227C93.8496 312.453 92.8848 311.375 92.2051 309.992C91.5332 308.602 91.1973 306.984 91.1973 305.141C91.1973 303.297 91.5332 301.672 92.2051 300.266C92.8848 298.852 93.8301 297.75 95.041 296.961C96.2598 296.164 97.6816 295.766 99.3066 295.766C100.244 295.766 101.17 295.922 102.084 296.234C102.998 296.547 103.83 297.055 104.58 297.758C105.33 298.453 105.928 299.375 106.373 300.523C106.818 301.672 107.041 303.086 107.041 304.766V305.937H93.166V303.547H104.229C104.229 302.531 104.025 301.625 103.619 300.828C103.221 300.031 102.65 299.402 101.908 298.941C101.174 298.48 100.307 298.25 99.3066 298.25C98.2051 298.25 97.252 298.523 96.4473 299.07C95.6504 299.609 95.0371 300.312 94.6074 301.18C94.1777 302.047 93.9629 302.977 93.9629 303.969V305.563C93.9629 306.922 94.1973 308.074 94.666 309.02C95.1426 309.957 95.8027 310.672 96.6465 311.164C97.4902 311.648 98.4707 311.891 99.5879 311.891C100.314 311.891 100.971 311.789 101.557 311.586C102.15 311.375 102.662 311.063 103.092 310.648C103.521 310.227 103.854 309.703 104.088 309.078L106.76 309.828C106.479 310.734 106.006 311.531 105.342 312.219C104.678 312.898 103.857 313.43 102.881 313.812C101.904 314.188 100.807 314.375 99.5879 314.375ZM120.529 314V296H123.295V314H120.529ZM121.936 293C121.396 293 120.932 292.816 120.541 292.449C120.158 292.082 119.967 291.641 119.967 291.125C119.967 290.609 120.158 290.168 120.541 289.801C120.932 289.434 121.396 289.25 121.936 289.25C122.475 289.25 122.936 289.434 123.318 289.801C123.709 290.168 123.904 290.609 123.904 291.125C123.904 291.641 123.709 292.082 123.318 292.449C122.936 292.816 122.475 293 121.936 293ZM136.188 296V298.344H126.86V296H136.188ZM129.579 291.687H132.345V308.844C132.345 309.625 132.458 310.211 132.685 310.602C132.919 310.984 133.216 311.242 133.575 311.375C133.942 311.5 134.329 311.562 134.735 311.562C135.04 311.562 135.29 311.547 135.485 311.516C135.681 311.477 135.837 311.445 135.954 311.422L136.517 313.906C136.329 313.977 136.067 314.047 135.731 314.117C135.396 314.195 134.97 314.234 134.454 314.234C133.673 314.234 132.907 314.066 132.157 313.73C131.415 313.395 130.798 312.883 130.306 312.195C129.821 311.508 129.579 310.641 129.579 309.594V291.687ZM152.776 300.031L150.292 300.734C150.136 300.32 149.905 299.918 149.601 299.527C149.304 299.129 148.897 298.801 148.382 298.543C147.866 298.285 147.206 298.156 146.401 298.156C145.3 298.156 144.382 298.41 143.647 298.918C142.921 299.418 142.558 300.055 142.558 300.828C142.558 301.516 142.808 302.059 143.308 302.457C143.808 302.855 144.589 303.187 145.651 303.453L148.323 304.109C149.933 304.5 151.132 305.098 151.921 305.902C152.71 306.699 153.104 307.727 153.104 308.984C153.104 310.016 152.808 310.937 152.214 311.75C151.628 312.562 150.808 313.203 149.753 313.672C148.698 314.141 147.472 314.375 146.073 314.375C144.237 314.375 142.718 313.977 141.515 313.18C140.312 312.383 139.55 311.219 139.229 309.687L141.854 309.031C142.104 310 142.577 310.727 143.272 311.211C143.976 311.695 144.894 311.938 146.026 311.938C147.315 311.938 148.339 311.664 149.097 311.117C149.862 310.562 150.245 309.898 150.245 309.125C150.245 308.5 150.026 307.977 149.589 307.555C149.151 307.125 148.479 306.805 147.573 306.594L144.573 305.891C142.925 305.5 141.714 304.895 140.94 304.074C140.175 303.246 139.792 302.211 139.792 300.969C139.792 299.953 140.077 299.055 140.647 298.273C141.226 297.492 142.011 296.879 143.003 296.434C144.003 295.988 145.136 295.766 146.401 295.766C148.183 295.766 149.581 296.156 150.597 296.937C151.62 297.719 152.347 298.75 152.776 300.031ZM173.814 321.125C172.479 321.125 171.33 320.953 170.369 320.609C169.408 320.273 168.607 319.828 167.967 319.273C167.334 318.727 166.83 318.141 166.455 317.516L168.658 315.969C168.908 316.297 169.225 316.672 169.607 317.094C169.99 317.523 170.514 317.895 171.178 318.207C171.85 318.527 172.729 318.687 173.814 318.687C175.268 318.687 176.467 318.336 177.412 317.633C178.357 316.93 178.83 315.828 178.83 314.328V310.672H178.596C178.393 311 178.104 311.406 177.729 311.891C177.361 312.367 176.83 312.793 176.135 313.168C175.447 313.535 174.518 313.719 173.346 313.719C171.893 313.719 170.588 313.375 169.432 312.688C168.283 312 167.373 311 166.701 309.687C166.037 308.375 165.705 306.781 165.705 304.906C165.705 303.062 166.029 301.457 166.678 300.09C167.326 298.715 168.229 297.652 169.385 296.902C170.541 296.145 171.877 295.766 173.393 295.766C174.564 295.766 175.494 295.961 176.182 296.352C176.877 296.734 177.408 297.172 177.775 297.664C178.15 298.148 178.439 298.547 178.643 298.859H178.924V296H181.596V314.516C181.596 316.062 181.244 317.32 180.541 318.289C179.846 319.266 178.908 319.98 177.729 320.434C176.557 320.895 175.252 321.125 173.814 321.125ZM173.721 311.234C174.83 311.234 175.768 310.98 176.533 310.473C177.299 309.965 177.881 309.234 178.279 308.281C178.678 307.328 178.877 306.187 178.877 304.859C178.877 303.562 178.682 302.418 178.291 301.426C177.9 300.434 177.322 299.656 176.557 299.094C175.791 298.531 174.846 298.25 173.721 298.25C172.549 298.25 171.572 298.547 170.791 299.141C170.018 299.734 169.436 300.531 169.045 301.531C168.662 302.531 168.471 303.641 168.471 304.859C168.471 306.109 168.666 307.215 169.057 308.176C169.455 309.129 170.041 309.879 170.814 310.426C171.596 310.965 172.564 311.234 173.721 311.234ZM186.658 314V296H189.33V298.719H189.518C189.846 297.828 190.439 297.105 191.299 296.551C192.158 295.996 193.127 295.719 194.205 295.719C194.408 295.719 194.662 295.723 194.967 295.73C195.271 295.738 195.502 295.75 195.658 295.766V298.578C195.564 298.555 195.35 298.52 195.014 298.473C194.686 298.418 194.338 298.391 193.971 298.391C193.096 298.391 192.314 298.574 191.627 298.941C190.947 299.301 190.408 299.801 190.01 300.441C189.619 301.074 189.424 301.797 189.424 302.609V314H186.658ZM205.936 314.375C204.201 314.375 202.705 313.992 201.447 313.227C200.197 312.453 199.232 311.375 198.553 309.992C197.881 308.602 197.545 306.984 197.545 305.141C197.545 303.297 197.881 301.672 198.553 300.266C199.232 298.852 200.178 297.75 201.389 296.961C202.607 296.164 204.029 295.766 205.654 295.766C206.592 295.766 207.518 295.922 208.432 296.234C209.346 296.547 210.178 297.055 210.928 297.758C211.678 298.453 212.275 299.375 212.721 300.523C213.166 301.672 213.389 303.086 213.389 304.766V305.937H199.514V303.547H210.576C210.576 302.531 210.373 301.625 209.967 300.828C209.568 300.031 208.998 299.402 208.256 298.941C207.521 298.48 206.654 298.25 205.654 298.25C204.553 298.25 203.6 298.523 202.795 299.07C201.998 299.609 201.385 300.312 200.955 301.18C200.525 302.047 200.311 302.977 200.311 303.969V305.563C200.311 306.922 200.545 308.074 201.014 309.02C201.49 309.957 202.15 310.672 202.994 311.164C203.838 311.648 204.818 311.891 205.936 311.891C206.662 311.891 207.318 311.789 207.904 311.586C208.498 311.375 209.01 311.063 209.439 310.648C209.869 310.227 210.201 309.703 210.436 309.078L213.107 309.828C212.826 310.734 212.354 311.531 211.689 312.219C211.025 312.898 210.205 313.43 209.229 313.812C208.252 314.188 207.154 314.375 205.936 314.375ZM222.893 314.422C221.752 314.422 220.717 314.207 219.787 313.777C218.857 313.34 218.119 312.711 217.572 311.891C217.025 311.063 216.752 310.062 216.752 308.891C216.752 307.859 216.955 307.023 217.361 306.383C217.768 305.734 218.311 305.227 218.99 304.859C219.67 304.492 220.42 304.219 221.24 304.039C222.068 303.852 222.9 303.703 223.736 303.594C224.83 303.453 225.717 303.348 226.396 303.277C227.084 303.199 227.584 303.07 227.896 302.891C228.217 302.711 228.377 302.398 228.377 301.953V301.859C228.377 300.703 228.061 299.805 227.428 299.164C226.803 298.523 225.854 298.203 224.58 298.203C223.26 298.203 222.225 298.492 221.475 299.07C220.725 299.648 220.197 300.266 219.893 300.922L217.268 299.984C217.736 298.891 218.361 298.039 219.143 297.43C219.932 296.812 220.791 296.383 221.721 296.141C222.658 295.891 223.58 295.766 224.486 295.766C225.064 295.766 225.729 295.836 226.479 295.977C227.236 296.109 227.967 296.387 228.67 296.809C229.381 297.23 229.971 297.867 230.439 298.719C230.908 299.57 231.143 300.711 231.143 302.141V314H228.377V311.562H228.236C228.049 311.953 227.736 312.371 227.299 312.816C226.861 313.262 226.279 313.641 225.553 313.953C224.826 314.266 223.939 314.422 222.893 314.422ZM223.314 311.938C224.408 311.938 225.33 311.723 226.08 311.293C226.838 310.863 227.408 310.309 227.791 309.629C228.182 308.949 228.377 308.234 228.377 307.484V304.953C228.26 305.094 228.002 305.223 227.604 305.34C227.213 305.449 226.76 305.547 226.244 305.633C225.736 305.711 225.24 305.781 224.756 305.844C224.279 305.898 223.893 305.945 223.596 305.984C222.877 306.078 222.205 306.23 221.58 306.441C220.963 306.645 220.463 306.953 220.08 307.367C219.705 307.773 219.518 308.328 219.518 309.031C219.518 309.992 219.873 310.719 220.584 311.211C221.303 311.695 222.213 311.938 223.314 311.938ZM244.019 296V298.344H234.69V296H244.019ZM237.409 291.687H240.175V308.844C240.175 309.625 240.288 310.211 240.515 310.602C240.749 310.984 241.046 311.242 241.405 311.375C241.772 311.5 242.159 311.562 242.565 311.562C242.87 311.562 243.12 311.547 243.315 311.516C243.511 311.477 243.667 311.445 243.784 311.422L244.347 313.906C244.159 313.977 243.897 314.047 243.562 314.117C243.226 314.195 242.8 314.234 242.284 314.234C241.503 314.234 240.737 314.066 239.987 313.73C239.245 313.395 238.628 312.883 238.136 312.195C237.651 311.508 237.409 310.641 237.409 309.594V291.687ZM255.532 314.375C253.798 314.375 252.302 313.992 251.044 313.227C249.794 312.453 248.829 311.375 248.149 309.992C247.478 308.602 247.142 306.984 247.142 305.141C247.142 303.297 247.478 301.672 248.149 300.266C248.829 298.852 249.774 297.75 250.985 296.961C252.204 296.164 253.626 295.766 255.251 295.766C256.188 295.766 257.114 295.922 258.028 296.234C258.942 296.547 259.774 297.055 260.524 297.758C261.274 298.453 261.872 299.375 262.317 300.523C262.763 301.672 262.985 303.086 262.985 304.766V305.937H249.11V303.547H260.173C260.173 302.531 259.97 301.625 259.563 300.828C259.165 300.031 258.595 299.402 257.853 298.941C257.118 298.48 256.251 298.25 255.251 298.25C254.149 298.25 253.196 298.523 252.392 299.07C251.595 299.609 250.981 300.312 250.552 301.18C250.122 302.047 249.907 302.977 249.907 303.969V305.563C249.907 306.922 250.142 308.074 250.61 309.02C251.087 309.957 251.747 310.672 252.591 311.164C253.435 311.648 254.415 311.891 255.532 311.891C256.259 311.891 256.915 311.789 257.501 311.586C258.095 311.375 258.606 311.063 259.036 310.648C259.466 310.227 259.798 309.703 260.032 309.078L262.704 309.828C262.423 310.734 261.95 311.531 261.286 312.219C260.622 312.898 259.802 313.43 258.825 313.812C257.849 314.188 256.751 314.375 255.532 314.375ZM267.192 314V296H269.864V298.719H270.052C270.38 297.828 270.974 297.105 271.833 296.551C272.692 295.996 273.661 295.719 274.739 295.719C274.942 295.719 275.196 295.723 275.501 295.73C275.806 295.738 276.036 295.75 276.192 295.766V298.578C276.099 298.555 275.884 298.52 275.548 298.473C275.22 298.418 274.872 298.391 274.505 298.391C273.63 298.391 272.849 298.574 272.161 298.941C271.481 299.301 270.942 299.801 270.544 300.441C270.153 301.074 269.958 301.797 269.958 302.609V314H267.192ZM296.58 296V298.344H287.252V296H296.58ZM289.971 291.687H292.736V308.844C292.736 309.625 292.85 310.211 293.076 310.602C293.311 310.984 293.607 311.242 293.967 311.375C294.334 311.5 294.721 311.562 295.127 311.562C295.432 311.562 295.682 311.547 295.877 311.516C296.072 311.477 296.229 311.445 296.346 311.422L296.908 313.906C296.721 313.977 296.459 314.047 296.123 314.117C295.787 314.195 295.361 314.234 294.846 314.234C294.064 314.234 293.299 314.066 292.549 313.73C291.807 313.395 291.189 312.883 290.697 312.195C290.213 311.508 289.971 310.641 289.971 309.594V291.687ZM303.893 303.172V314H301.127V290H303.893V298.812H304.127C304.549 297.883 305.182 297.145 306.025 296.598C306.877 296.043 308.01 295.766 309.424 295.766C310.65 295.766 311.725 296.012 312.646 296.504C313.568 296.988 314.283 297.734 314.791 298.742C315.307 299.742 315.564 301.016 315.564 302.563V314H312.799V302.75C312.799 301.32 312.428 300.215 311.686 299.434C310.951 298.645 309.932 298.25 308.627 298.25C307.721 298.25 306.908 298.441 306.189 298.824C305.479 299.207 304.916 299.766 304.502 300.5C304.096 301.234 303.893 302.125 303.893 303.172ZM328.171 314.375C326.437 314.375 324.94 313.992 323.683 313.227C322.433 312.453 321.468 311.375 320.788 309.992C320.116 308.602 319.78 306.984 319.78 305.141C319.78 303.297 320.116 301.672 320.788 300.266C321.468 298.852 322.413 297.75 323.624 296.961C324.843 296.164 326.265 295.766 327.89 295.766C328.827 295.766 329.753 295.922 330.667 296.234C331.581 296.547 332.413 297.055 333.163 297.758C333.913 298.453 334.511 299.375 334.956 300.523C335.401 301.672 335.624 303.086 335.624 304.766V305.937H321.749V303.547H332.812C332.812 302.531 332.608 301.625 332.202 300.828C331.804 300.031 331.233 299.402 330.491 298.941C329.757 298.48 328.89 298.25 327.89 298.25C326.788 298.25 325.835 298.523 325.03 299.07C324.233 299.609 323.62 300.312 323.19 301.18C322.761 302.047 322.546 302.977 322.546 303.969V305.563C322.546 306.922 322.78 308.074 323.249 309.02C323.726 309.957 324.386 310.672 325.229 311.164C326.073 311.648 327.054 311.891 328.171 311.891C328.897 311.891 329.554 311.789 330.14 311.586C330.733 311.375 331.245 311.063 331.675 310.648C332.104 310.227 332.437 309.703 332.671 309.078L335.343 309.828C335.062 310.734 334.589 311.531 333.925 312.219C333.261 312.898 332.44 313.43 331.464 313.812C330.487 314.188 329.39 314.375 328.171 314.375ZM53.917 360.75V336H56.5889V338.859H56.917C57.1201 338.547 57.4014 338.148 57.7607 337.664C58.1279 337.172 58.6514 336.734 59.3311 336.352C60.0186 335.961 60.9482 335.766 62.1201 335.766C63.6357 335.766 64.9717 336.145 66.1279 336.902C67.2842 337.66 68.1865 338.734 68.835 340.125C69.4834 341.516 69.8076 343.156 69.8076 345.047C69.8076 346.953 69.4834 348.605 68.835 350.004C68.1865 351.395 67.2881 352.473 66.1396 353.238C64.9912 353.996 63.667 354.375 62.167 354.375C61.0107 354.375 60.085 354.184 59.3896 353.801C58.6943 353.41 58.1592 352.969 57.7842 352.477C57.4092 351.977 57.1201 351.562 56.917 351.234H56.6826V360.75H53.917ZM56.6357 345C56.6357 346.359 56.835 347.559 57.2334 348.598C57.6318 349.629 58.2139 350.437 58.9795 351.023C59.7451 351.602 60.6826 351.891 61.792 351.891C62.9482 351.891 63.9131 351.586 64.6865 350.977C65.4678 350.359 66.0537 349.531 66.4443 348.492C66.8428 347.445 67.042 346.281 67.042 345C67.042 343.734 66.8467 342.594 66.4561 341.578C66.0732 340.555 65.4912 339.746 64.71 339.152C63.9365 338.551 62.9639 338.25 61.792 338.25C60.667 338.25 59.7217 338.535 58.9561 339.105C58.1904 339.668 57.6123 340.457 57.2217 341.473C56.8311 342.48 56.6357 343.656 56.6357 345ZM74.0264 354V336H76.6982V338.719H76.8857C77.2139 337.828 77.8076 337.105 78.667 336.551C79.5264 335.996 80.4951 335.719 81.5732 335.719C81.7764 335.719 82.0303 335.723 82.335 335.73C82.6396 335.738 82.8701 335.75 83.0264 335.766V338.578C82.9326 338.555 82.7178 338.52 82.3818 338.473C82.0537 338.418 81.7061 338.391 81.3389 338.391C80.4639 338.391 79.6826 338.574 78.9951 338.941C78.3154 339.301 77.7764 339.801 77.3779 340.441C76.9873 341.074 76.792 341.797 76.792 342.609V354H74.0264ZM93.3037 354.375C91.5693 354.375 90.0732 353.992 88.8154 353.227C87.5654 352.453 86.6006 351.375 85.9209 349.992C85.249 348.602 84.9131 346.984 84.9131 345.141C84.9131 343.297 85.249 341.672 85.9209 340.266C86.6006 338.852 87.5459 337.75 88.7568 336.961C89.9756 336.164 91.3975 335.766 93.0225 335.766C93.96 335.766 94.8857 335.922 95.7998 336.234C96.7139 336.547 97.5459 337.055 98.2959 337.758C99.0459 338.453 99.6436 339.375 100.089 340.523C100.534 341.672 100.757 343.086 100.757 344.766V345.937H86.8818V343.547H97.9443C97.9443 342.531 97.7412 341.625 97.335 340.828C96.9365 340.031 96.3662 339.402 95.624 338.941C94.8896 338.48 94.0225 338.25 93.0225 338.25C91.9209 338.25 90.9678 338.523 90.1631 339.07C89.3662 339.609 88.7529 340.312 88.3232 341.18C87.8936 342.047 87.6787 342.977 87.6787 343.969V345.563C87.6787 346.922 87.9131 348.074 88.3818 349.02C88.8584 349.957 89.5186 350.672 90.3623 351.164C91.2061 351.648 92.1865 351.891 93.3037 351.891C94.0303 351.891 94.6865 351.789 95.2725 351.586C95.8662 351.375 96.3779 351.063 96.8076 350.648C97.2373 350.227 97.5693 349.703 97.8037 349.078L100.476 349.828C100.194 350.734 99.7217 351.531 99.0576 352.219C98.3936 352.898 97.5732 353.43 96.5967 353.812C95.6201 354.188 94.5225 354.375 93.3037 354.375ZM119.135 336L112.479 354H109.666L103.01 336H106.01L110.979 350.344H111.166L116.135 336H119.135ZM122.785 354V336H125.551V354H122.785ZM124.191 333C123.652 333 123.188 332.816 122.797 332.449C122.414 332.082 122.223 331.641 122.223 331.125C122.223 330.609 122.414 330.168 122.797 329.801C123.188 329.434 123.652 329.25 124.191 329.25C124.73 329.25 125.191 329.434 125.574 329.801C125.965 330.168 126.16 330.609 126.16 331.125C126.16 331.641 125.965 332.082 125.574 332.449C125.191 332.816 124.73 333 124.191 333ZM137.929 354.375C136.304 354.375 134.878 353.988 133.651 353.215C132.433 352.441 131.479 351.359 130.792 349.969C130.112 348.578 129.772 346.953 129.772 345.094C129.772 343.219 130.112 341.582 130.792 340.184C131.479 338.785 132.433 337.699 133.651 336.926C134.878 336.152 136.304 335.766 137.929 335.766C139.554 335.766 140.976 336.152 142.194 336.926C143.421 337.699 144.374 338.785 145.054 340.184C145.741 341.582 146.085 343.219 146.085 345.094C146.085 346.953 145.741 348.578 145.054 349.969C144.374 351.359 143.421 352.441 142.194 353.215C140.976 353.988 139.554 354.375 137.929 354.375ZM137.929 351.891C139.163 351.891 140.179 351.574 140.976 350.941C141.772 350.309 142.362 349.477 142.745 348.445C143.128 347.414 143.319 346.297 143.319 345.094C143.319 343.891 143.128 342.77 142.745 341.73C142.362 340.691 141.772 339.852 140.976 339.211C140.179 338.57 139.163 338.25 137.929 338.25C136.694 338.25 135.679 338.57 134.882 339.211C134.085 339.852 133.495 340.691 133.112 341.73C132.729 342.77 132.538 343.891 132.538 345.094C132.538 346.297 132.729 347.414 133.112 348.445C133.495 349.477 134.085 350.309 134.882 350.941C135.679 351.574 136.694 351.891 137.929 351.891ZM161.65 346.641V336H164.416V354H161.65V350.953H161.463C161.041 351.867 160.385 352.645 159.494 353.285C158.604 353.918 157.479 354.234 156.119 354.234C154.994 354.234 153.994 353.988 153.119 353.496C152.244 352.996 151.557 352.246 151.057 351.246C150.557 350.238 150.307 348.969 150.307 347.437V336H153.072V347.25C153.072 348.562 153.439 349.609 154.174 350.391C154.916 351.172 155.861 351.562 157.01 351.562C157.697 351.562 158.396 351.387 159.107 351.035C159.826 350.684 160.428 350.145 160.912 349.418C161.404 348.691 161.65 347.766 161.65 346.641ZM182.231 340.031L179.747 340.734C179.591 340.32 179.36 339.918 179.056 339.527C178.759 339.129 178.353 338.801 177.837 338.543C177.321 338.285 176.661 338.156 175.856 338.156C174.755 338.156 173.837 338.41 173.103 338.918C172.376 339.418 172.013 340.055 172.013 340.828C172.013 341.516 172.263 342.059 172.763 342.457C173.263 342.855 174.044 343.187 175.106 343.453L177.778 344.109C179.388 344.5 180.587 345.098 181.376 345.902C182.165 346.699 182.56 347.727 182.56 348.984C182.56 350.016 182.263 350.937 181.669 351.75C181.083 352.562 180.263 353.203 179.208 353.672C178.153 354.141 176.927 354.375 175.528 354.375C173.692 354.375 172.173 353.977 170.97 353.18C169.767 352.383 169.005 351.219 168.685 349.687L171.31 349.031C171.56 350 172.032 350.727 172.728 351.211C173.431 351.695 174.349 351.938 175.481 351.938C176.771 351.938 177.794 351.664 178.552 351.117C179.317 350.562 179.7 349.898 179.7 349.125C179.7 348.5 179.481 347.977 179.044 347.555C178.606 347.125 177.935 346.805 177.028 346.594L174.028 345.891C172.38 345.5 171.169 344.895 170.396 344.074C169.63 343.246 169.247 342.211 169.247 340.969C169.247 339.953 169.532 339.055 170.103 338.273C170.681 337.492 171.466 336.879 172.458 336.434C173.458 335.988 174.591 335.766 175.856 335.766C177.638 335.766 179.036 336.156 180.052 336.937C181.075 337.719 181.802 338.75 182.231 340.031ZM198.77 343.172V354H196.004V336H198.676V338.812H198.91C199.332 337.898 199.973 337.164 200.832 336.609C201.691 336.047 202.801 335.766 204.16 335.766C205.379 335.766 206.445 336.016 207.359 336.516C208.273 337.008 208.984 337.758 209.492 338.766C210 339.766 210.254 341.031 210.254 342.563V354H207.488V342.75C207.488 341.336 207.121 340.234 206.387 339.445C205.652 338.648 204.645 338.25 203.363 338.25C202.48 338.25 201.691 338.441 200.996 338.824C200.309 339.207 199.766 339.766 199.367 340.5C198.969 341.234 198.77 342.125 198.77 343.172ZM226.651 346.641V336H229.417V354H226.651V350.953H226.464C226.042 351.867 225.386 352.645 224.495 353.285C223.604 353.918 222.479 354.234 221.12 354.234C219.995 354.234 218.995 353.988 218.12 353.496C217.245 352.996 216.558 352.246 216.058 351.246C215.558 350.238 215.308 348.969 215.308 347.437V336H218.073V347.25C218.073 348.562 218.44 349.609 219.175 350.391C219.917 351.172 220.862 351.562 222.011 351.562C222.698 351.562 223.397 351.387 224.108 351.035C224.827 350.684 225.429 350.145 225.913 349.418C226.405 348.691 226.651 347.766 226.651 346.641ZM234.482 354V336H237.154V338.812H237.389C237.764 337.852 238.369 337.105 239.205 336.574C240.041 336.035 241.045 335.766 242.217 335.766C243.404 335.766 244.393 336.035 245.182 336.574C245.979 337.105 246.6 337.852 247.045 338.812H247.232C247.693 337.883 248.385 337.145 249.307 336.598C250.229 336.043 251.334 335.766 252.623 335.766C254.232 335.766 255.549 336.27 256.572 337.277C257.596 338.277 258.107 339.836 258.107 341.953V354H255.342V341.953C255.342 340.625 254.979 339.676 254.252 339.105C253.525 338.535 252.67 338.25 251.686 338.25C250.42 338.25 249.439 338.633 248.744 339.398C248.049 340.156 247.701 341.117 247.701 342.281V354H244.889V341.672C244.889 340.648 244.557 339.824 243.893 339.199C243.229 338.566 242.373 338.25 241.326 338.25C240.607 338.25 239.936 338.441 239.311 338.824C238.693 339.207 238.193 339.738 237.811 340.418C237.436 341.09 237.248 341.867 237.248 342.75V354H234.482ZM263.539 354V330H266.305V338.859H266.539C266.742 338.547 267.023 338.148 267.383 337.664C267.75 337.172 268.273 336.734 268.953 336.352C269.641 335.961 270.57 335.766 271.742 335.766C273.258 335.766 274.594 336.145 275.75 336.902C276.906 337.66 277.809 338.734 278.457 340.125C279.105 341.516 279.43 343.156 279.43 345.047C279.43 346.953 279.105 348.605 278.457 350.004C277.809 351.395 276.91 352.473 275.762 353.238C274.613 353.996 273.289 354.375 271.789 354.375C270.633 354.375 269.707 354.184 269.012 353.801C268.316 353.41 267.781 352.969 267.406 352.477C267.031 351.977 266.742 351.562 266.539 351.234H266.211V354H263.539ZM266.258 345C266.258 346.359 266.457 347.559 266.855 348.598C267.254 349.629 267.836 350.437 268.602 351.023C269.367 351.602 270.305 351.891 271.414 351.891C272.57 351.891 273.535 351.586 274.309 350.977C275.09 350.359 275.676 349.531 276.066 348.492C276.465 347.445 276.664 346.281 276.664 345C276.664 343.734 276.469 342.594 276.078 341.578C275.695 340.555 275.113 339.746 274.332 339.152C273.559 338.551 272.586 338.25 271.414 338.25C270.289 338.25 269.344 338.535 268.578 339.105C267.813 339.668 267.234 340.457 266.844 341.473C266.453 342.48 266.258 343.656 266.258 345ZM291.207 354.375C289.473 354.375 287.977 353.992 286.719 353.227C285.469 352.453 284.504 351.375 283.824 349.992C283.152 348.602 282.816 346.984 282.816 345.141C282.816 343.297 283.152 341.672 283.824 340.266C284.504 338.852 285.449 337.75 286.66 336.961C287.879 336.164 289.301 335.766 290.926 335.766C291.863 335.766 292.789 335.922 293.703 336.234C294.617 336.547 295.449 337.055 296.199 337.758C296.949 338.453 297.547 339.375 297.992 340.523C298.438 341.672 298.66 343.086 298.66 344.766V345.937H284.785V343.547H295.848C295.848 342.531 295.645 341.625 295.238 340.828C294.84 340.031 294.27 339.402 293.527 338.941C292.793 338.48 291.926 338.25 290.926 338.25C289.824 338.25 288.871 338.523 288.066 339.07C287.27 339.609 286.656 340.312 286.227 341.18C285.797 342.047 285.582 342.977 285.582 343.969V345.563C285.582 346.922 285.816 348.074 286.285 349.02C286.762 349.957 287.422 350.672 288.266 351.164C289.109 351.648 290.09 351.891 291.207 351.891C291.934 351.891 292.59 351.789 293.176 351.586C293.77 351.375 294.281 351.063 294.711 350.648C295.141 350.227 295.473 349.703 295.707 349.078L298.379 349.828C298.098 350.734 297.625 351.531 296.961 352.219C296.297 352.898 295.477 353.43 294.5 353.812C293.523 354.188 292.426 354.375 291.207 354.375ZM302.867 354V336H305.539V338.719H305.727C306.055 337.828 306.648 337.105 307.508 336.551C308.367 335.996 309.336 335.719 310.414 335.719C310.617 335.719 310.871 335.723 311.176 335.73C311.48 335.738 311.711 335.75 311.867 335.766V338.578C311.773 338.555 311.559 338.52 311.223 338.473C310.895 338.418 310.547 338.391 310.18 338.391C309.305 338.391 308.523 338.574 307.836 338.941C307.156 339.301 306.617 339.801 306.219 340.441C305.828 341.074 305.633 341.797 305.633 342.609V354H302.867Z" fill="white"/>
<path d="M432.497 166.398C430.622 166.398 428.951 166.076 427.483 165.432C426.025 164.788 424.865 163.893 424.003 162.747C423.151 161.592 422.687 160.252 422.611 158.727H426.19C426.266 159.665 426.588 160.474 427.156 161.156C427.724 161.829 428.468 162.349 429.386 162.719C430.305 163.088 431.323 163.273 432.44 163.273C433.69 163.273 434.798 163.055 435.764 162.619C436.73 162.184 437.488 161.578 438.037 160.801C438.586 160.025 438.861 159.125 438.861 158.102C438.861 157.032 438.596 156.09 438.065 155.276C437.535 154.452 436.759 153.808 435.736 153.344C434.713 152.88 433.463 152.648 431.986 152.648H429.656V149.523H431.986C433.141 149.523 434.154 149.314 435.026 148.898C435.906 148.481 436.593 147.894 437.085 147.136C437.587 146.379 437.838 145.489 437.838 144.466C437.838 143.481 437.62 142.624 437.185 141.895C436.749 141.166 436.134 140.598 435.338 140.19C434.552 139.783 433.624 139.58 432.554 139.58C431.55 139.58 430.603 139.764 429.713 140.134C428.832 140.493 428.113 141.019 427.554 141.71C426.995 142.392 426.692 143.216 426.645 144.182H423.236C423.293 142.657 423.752 141.322 424.614 140.176C425.475 139.021 426.602 138.121 427.994 137.477C429.396 136.833 430.935 136.511 432.611 136.511C434.41 136.511 435.954 136.876 437.241 137.605C438.529 138.325 439.519 139.277 440.21 140.46C440.902 141.644 441.247 142.922 441.247 144.295C441.247 145.934 440.816 147.33 439.955 148.486C439.102 149.641 437.942 150.441 436.474 150.886V151.114C438.312 151.417 439.746 152.198 440.778 153.457C441.811 154.707 442.327 156.256 442.327 158.102C442.327 159.684 441.896 161.104 441.034 162.364C440.182 163.614 439.017 164.598 437.54 165.318C436.063 166.038 434.382 166.398 432.497 166.398ZM448.136 166V163.443L457.739 152.932C458.866 151.701 459.794 150.631 460.523 149.722C461.252 148.803 461.792 147.941 462.142 147.136C462.502 146.322 462.682 145.47 462.682 144.58C462.682 143.557 462.436 142.671 461.943 141.923C461.46 141.175 460.797 140.598 459.955 140.19C459.112 139.783 458.165 139.58 457.114 139.58C455.996 139.58 455.021 139.812 454.188 140.276C453.364 140.73 452.724 141.369 452.27 142.193C451.825 143.017 451.602 143.983 451.602 145.091H448.25C448.25 143.386 448.643 141.89 449.429 140.602C450.215 139.314 451.285 138.311 452.639 137.591C454.003 136.871 455.532 136.511 457.227 136.511C458.932 136.511 460.442 136.871 461.759 137.591C463.075 138.311 464.107 139.281 464.855 140.503C465.603 141.724 465.977 143.083 465.977 144.58C465.977 145.65 465.783 146.696 465.395 147.719C465.016 148.732 464.353 149.864 463.406 151.114C462.469 152.354 461.167 153.869 459.5 155.659L452.966 162.648V162.875H466.489V166H448.136Z" fill="white"/>
<path d="M432.497 601.398C430.622 601.398 428.951 601.076 427.483 600.432C426.025 599.788 424.865 598.893 424.003 597.747C423.151 596.592 422.687 595.252 422.611 593.727H426.19C426.266 594.665 426.588 595.474 427.156 596.156C427.724 596.829 428.468 597.349 429.386 597.719C430.305 598.088 431.323 598.273 432.44 598.273C433.69 598.273 434.798 598.055 435.764 597.619C436.73 597.184 437.488 596.578 438.037 595.801C438.586 595.025 438.861 594.125 438.861 593.102C438.861 592.032 438.596 591.09 438.065 590.276C437.535 589.452 436.759 588.808 435.736 588.344C434.713 587.88 433.463 587.648 431.986 587.648H429.656V584.523H431.986C433.141 584.523 434.154 584.314 435.026 583.898C435.906 583.481 436.593 582.894 437.085 582.136C437.587 581.379 437.838 580.489 437.838 579.466C437.838 578.481 437.62 577.624 437.185 576.895C436.749 576.166 436.134 575.598 435.338 575.19C434.552 574.783 433.624 574.58 432.554 574.58C431.55 574.58 430.603 574.764 429.713 575.134C428.832 575.493 428.113 576.019 427.554 576.71C426.995 577.392 426.692 578.216 426.645 579.182H423.236C423.293 577.657 423.752 576.322 424.614 575.176C425.475 574.021 426.602 573.121 427.994 572.477C429.396 571.833 430.935 571.511 432.611 571.511C434.41 571.511 435.954 571.876 437.241 572.605C438.529 573.325 439.519 574.277 440.21 575.46C440.902 576.644 441.247 577.922 441.247 579.295C441.247 580.934 440.816 582.33 439.955 583.486C439.102 584.641 437.942 585.441 436.474 585.886V586.114C438.312 586.417 439.746 587.198 440.778 588.457C441.811 589.707 442.327 591.256 442.327 593.102C442.327 594.684 441.896 596.104 441.034 597.364C440.182 598.614 439.017 599.598 437.54 600.318C436.063 601.038 434.382 601.398 432.497 601.398ZM448.136 601V598.443L457.739 587.932C458.866 586.701 459.794 585.631 460.523 584.722C461.252 583.803 461.792 582.941 462.142 582.136C462.502 581.322 462.682 580.47 462.682 579.58C462.682 578.557 462.436 577.671 461.943 576.923C461.46 576.175 460.797 575.598 459.955 575.19C459.112 574.783 458.165 574.58 457.114 574.58C455.996 574.58 455.021 574.812 454.188 575.276C453.364 575.73 452.724 576.369 452.27 577.193C451.825 578.017 451.602 578.983 451.602 580.091H448.25C448.25 578.386 448.643 576.89 449.429 575.602C450.215 574.314 451.285 573.311 452.639 572.591C454.003 571.871 455.532 571.511 457.227 571.511C458.932 571.511 460.442 571.871 461.759 572.591C463.075 573.311 464.107 574.281 464.855 575.503C465.603 576.724 465.977 578.083 465.977 579.58C465.977 580.65 465.783 581.696 465.395 582.719C465.016 583.732 464.353 584.864 463.406 586.114C462.469 587.354 461.167 588.869 459.5 590.659L452.966 597.648V597.875H466.489V601H448.136Z" fill="white"/>
<path d="M556.332 136.909V166H552.81V140.602H552.639L545.537 145.318V141.739L552.81 136.909H556.332ZM564.699 166V163.443L574.301 152.932C575.428 151.701 576.356 150.631 577.085 149.722C577.814 148.803 578.354 147.941 578.705 147.136C579.064 146.322 579.244 145.47 579.244 144.58C579.244 143.557 578.998 142.671 578.506 141.923C578.023 141.175 577.36 140.598 576.517 140.19C575.674 139.783 574.727 139.58 573.676 139.58C572.559 139.58 571.583 139.812 570.75 140.276C569.926 140.73 569.287 141.369 568.832 142.193C568.387 143.017 568.165 143.983 568.165 145.091H564.812C564.812 143.386 565.205 141.89 565.991 140.602C566.777 139.314 567.848 138.311 569.202 137.591C570.565 136.871 572.095 136.511 573.79 136.511C575.494 136.511 577.005 136.871 578.321 137.591C579.637 138.311 580.67 139.281 581.418 140.503C582.166 141.724 582.54 143.083 582.54 144.58C582.54 145.65 582.346 146.696 581.957 147.719C581.579 148.732 580.916 149.864 579.969 151.114C579.031 152.354 577.729 153.869 576.062 155.659L569.528 162.648V162.875H583.051V166H564.699Z" fill="white"/>
<path d="M556.332 571.909V601H552.81V575.602H552.639L545.537 580.318V576.739L552.81 571.909H556.332ZM564.699 601V598.443L574.301 587.932C575.428 586.701 576.356 585.631 577.085 584.722C577.814 583.803 578.354 582.941 578.705 582.136C579.064 581.322 579.244 580.47 579.244 579.58C579.244 578.557 578.998 577.671 578.506 576.923C578.023 576.175 577.36 575.598 576.517 575.19C575.674 574.783 574.727 574.58 573.676 574.58C572.559 574.58 571.583 574.812 570.75 575.276C569.926 575.73 569.287 576.369 568.832 577.193C568.387 578.017 568.165 578.983 568.165 580.091H564.812C564.812 578.386 565.205 576.89 565.991 575.602C566.777 574.314 567.848 573.311 569.202 572.591C570.565 571.871 572.095 571.511 573.79 571.511C575.494 571.511 577.005 571.871 578.321 572.591C579.637 573.311 580.67 574.281 581.418 575.503C582.166 576.724 582.54 578.083 582.54 579.58C582.54 580.65 582.346 581.696 581.957 582.719C581.579 583.732 580.916 584.864 579.969 586.114C579.031 587.354 577.729 588.869 576.062 590.659L569.528 597.648V597.875H583.051V601H564.699Z" fill="white"/>
</svg>
