<svg xmlns="http://www.w3.org/2000/svg" width="648" height="1159" fill="none" viewBox="0 0 648 1159"><path fill="#272727" d="M145 528h240v120H145zM145 932H52c-14.912 0-27 12.088-27 27v66c0 14.91 12.088 27 27 27h93z"/><rect width="599" height="120" x="25" y="528" stroke="#dbdbdb" stroke-width="2" rx="26"/><rect width="599" height="120" x="25" y="932" stroke="#dbdbdb" stroke-width="2" rx="26"/><path stroke="#dbdbdb" stroke-width="2" d="M145 527v122M145 931v122M265 527v122M265 931v122M386 527v122M386 931v122M506 527v122M506 931v122"/><path fill="#fff" d="M182.976 602v-2.557l9.602-10.511a67 67 0 0 0 2.785-3.21q1.094-1.378 1.619-2.586.54-1.221.54-2.556 0-1.535-.739-2.657-.724-1.122-1.989-1.733-1.263-.61-2.841-.61-1.675 0-2.926.696a4.8 4.8 0 0 0-1.917 1.917q-.668 1.236-.668 2.898h-3.352q0-2.557 1.179-4.489a8.2 8.2 0 0 1 3.21-3.011q2.046-1.08 4.588-1.08 2.557 0 4.531 1.08 1.975 1.08 3.097 2.912t1.122 4.077q0 1.605-.582 3.139-.568 1.52-1.989 3.395-1.406 1.86-3.906 4.545l-6.534 6.989v.227h13.522V602zm25.128 0 13.011-25.739v-.227h-15v-3.125h18.637v3.296L211.797 602zM182.976 1006v-2.56l9.602-10.508a67 67 0 0 0 2.785-3.21q1.094-1.378 1.619-2.586.54-1.221.54-2.556 0-1.535-.739-2.657-.724-1.122-1.989-1.733-1.263-.61-2.841-.61-1.675 0-2.926.696a4.8 4.8 0 0 0-1.917 1.917q-.668 1.236-.668 2.898h-3.352q0-2.557 1.179-4.489a8.2 8.2 0 0 1 3.21-3.011q2.046-1.08 4.588-1.08 2.557 0 4.531 1.08 1.975 1.08 3.097 2.912t1.122 4.077q0 1.605-.582 3.139-.568 1.52-1.989 3.395-1.406 1.86-3.906 4.545l-6.534 6.991v.23h13.522v3.12zm25.128 0 13.011-25.739v-.227h-15v-3.125h18.637v3.296L211.797 1006zM75.961 976.909V1006H72.44v-25.398h-.17l-7.103 4.716v-3.579l7.273-4.83zm17.628-.398q1.79.015 3.58.682 1.79.668 3.267 2.216 1.477 1.535 2.372 4.19.895 2.657.895 6.662 0 3.879-.739 6.89c-.483 1.998-1.184 3.679-2.102 5.059q-1.364 2.055-3.324 3.12c-1.297.71-2.765 1.07-4.403 1.07-1.63 0-3.083-.32-4.361-.97a8.6 8.6 0 0 1-3.125-2.71q-1.207-1.755-1.549-4.05h3.466c.313 1.34.933 2.44 1.861 3.31q1.406 1.29 3.708 1.29 3.366 0 5.312-2.94 1.96-2.938 1.96-8.307h-.227a8.9 8.9 0 0 1-1.89 2.059 8.3 8.3 0 0 1-2.428 1.336 8.5 8.5 0 0 1-2.841.468q-2.5 0-4.588-1.235-2.074-1.25-3.324-3.424-1.236-2.187-1.236-5 0-2.67 1.193-4.886a9.2 9.2 0 0 1 3.381-3.551q2.187-1.321 5.142-1.279m0 3.125q-1.79 0-3.224.895a6.44 6.44 0 0 0-2.259 2.387q-.824 1.491-.824 3.309t.796 3.31a6.35 6.35 0 0 0 2.201 2.358q1.407.866 3.197.866 1.35 0 2.514-.525a6.5 6.5 0 0 0 2.031-1.463 7.1 7.1 0 0 0 1.378-2.117 6.4 6.4 0 0 0 .497-2.486 6.5 6.5 0 0 0-.824-3.196 6.54 6.54 0 0 0-2.244-2.414q-1.42-.924-3.239-.924M301.572 596.034v-2.898l12.784-20.227h2.102v4.489h-1.42l-9.659 15.284v.227h17.215v3.125zM315.265 602v-29.091h3.352V602zm13.562 0 13.011-25.739v-.227h-15v-3.125h18.636v3.296L332.52 602zM301.572 1000.03v-2.894l12.784-20.227h2.102v4.489h-1.42l-9.659 15.284v.227h17.215v3.121zm13.693 5.97v-29.091h3.352V1006zm13.562 0 13.011-25.739v-.227h-15v-3.125h18.636v3.296L332.52 1006zM432.497 602.398q-2.812 0-5.014-.966-2.187-.966-3.48-2.685-1.278-1.732-1.392-4.02h3.579q.114 1.406.966 2.429.853 1.009 2.23 1.563t3.054.554q1.875 0 3.324-.654 1.45-.653 2.273-1.818.824-1.164.824-2.699 0-1.605-.796-2.826-.795-1.236-2.329-1.932t-3.75-.696h-2.33v-3.125h2.33q1.732 0 3.04-.625 1.32-.625 2.059-1.762.753-1.135.753-2.67 0-1.478-.653-2.571t-1.847-1.705q-1.179-.61-2.784-.61a7.3 7.3 0 0 0-2.841.554q-1.321.539-2.159 1.576-.839 1.023-.909 2.472h-3.409q.085-2.287 1.378-4.006 1.292-1.733 3.38-2.699 2.103-.966 4.617-.966 2.699 0 4.63 1.094 1.932 1.08 2.969 2.855a7.47 7.47 0 0 1 1.037 3.835q0 2.458-1.292 4.191-1.28 1.732-3.481 2.4v.228q2.757.455 4.304 2.343 1.55 1.876 1.549 4.645 0 2.372-1.293 4.262-1.278 1.875-3.494 2.954t-5.043 1.08m15.639-.398v-2.557l9.603-10.511a67 67 0 0 0 2.784-3.21q1.094-1.378 1.619-2.586.54-1.221.54-2.556 0-1.535-.739-2.657-.725-1.122-1.988-1.733-1.265-.61-2.841-.61-1.677 0-2.926.696a4.8 4.8 0 0 0-1.918 1.917q-.668 1.236-.668 2.898h-3.352q0-2.557 1.179-4.489a8.2 8.2 0 0 1 3.21-3.011q2.046-1.08 4.588-1.08 2.557 0 4.532 1.08 1.974 1.08 3.096 2.912t1.122 4.077q0 1.605-.582 3.139-.569 1.52-1.989 3.395-1.405 1.86-3.906 4.545l-6.534 6.989v.227h13.523V602zM432.497 1006.4c-1.875 0-3.546-.32-5.014-.97-1.458-.64-2.618-1.54-3.48-2.68q-1.278-1.74-1.392-4.023h3.579c.076.938.398 1.743.966 2.433q.853 1.005 2.23 1.56c.919.37 1.937.55 3.054.55 1.25 0 2.358-.22 3.324-.65.966-.44 1.724-1.04 2.273-1.82s.824-1.675.824-2.698q0-1.605-.796-2.826-.795-1.236-2.329-1.932t-3.75-.696h-2.33v-3.125h2.33q1.732 0 3.04-.625 1.32-.625 2.059-1.762.753-1.135.753-2.67 0-1.477-.653-2.571-.653-1.093-1.847-1.705-1.179-.61-2.784-.61a7.3 7.3 0 0 0-2.841.554q-1.321.539-2.159 1.576-.839 1.023-.909 2.472h-3.409q.085-2.287 1.378-4.006 1.292-1.733 3.38-2.699 2.103-.966 4.617-.966 2.699 0 4.63 1.094 1.932 1.08 2.969 2.855a7.47 7.47 0 0 1 1.037 3.835q0 2.458-1.292 4.191-1.28 1.733-3.481 2.4v.228q2.757.455 4.304 2.343 1.55 1.876 1.549 4.645c0 1.582-.431 2.998-1.293 4.258-.852 1.25-2.017 2.24-3.494 2.96q-2.216 1.08-5.043 1.08m15.639-.4v-2.56l9.603-10.508a67 67 0 0 0 2.784-3.21q1.094-1.378 1.619-2.586.54-1.221.54-2.556 0-1.535-.739-2.657-.725-1.122-1.988-1.733-1.265-.61-2.841-.61-1.677 0-2.926.696a4.8 4.8 0 0 0-1.918 1.917q-.668 1.236-.668 2.898h-3.352q0-2.557 1.179-4.489a8.2 8.2 0 0 1 3.21-3.011q2.046-1.08 4.588-1.08 2.557 0 4.532 1.08 1.974 1.08 3.096 2.912t1.122 4.077q0 1.605-.582 3.139-.569 1.52-1.989 3.395-1.405 1.86-3.906 4.545l-6.534 6.991v.23h13.523v3.12zM556.332 572.909V602h-3.522v-25.398h-.171l-7.102 4.716v-3.579l7.273-4.83zM564.699 602v-2.557l9.602-10.511a67 67 0 0 0 2.784-3.21q1.093-1.378 1.62-2.586a6.3 6.3 0 0 0 .539-2.556q0-1.535-.738-2.657-.724-1.122-1.989-1.733-1.264-.61-2.841-.61-1.676 0-2.926.696a4.8 4.8 0 0 0-1.918 1.917q-.667 1.236-.667 2.898h-3.353q0-2.557 1.179-4.489a8.2 8.2 0 0 1 3.211-3.011q2.045-1.08 4.588-1.08 2.556 0 4.531 1.08t3.097 2.912 1.122 4.077q0 1.605-.583 3.139-.567 1.52-1.988 3.395-1.407 1.86-3.907 4.545l-6.534 6.989v.227h13.523V602zM556.332 976.909V1006h-3.522v-25.398h-.171l-7.102 4.716v-3.579l7.273-4.83zm8.367 29.091v-2.56l9.602-10.508a67 67 0 0 0 2.784-3.21q1.093-1.378 1.62-2.586a6.3 6.3 0 0 0 .539-2.556q0-1.535-.738-2.657-.724-1.122-1.989-1.733-1.264-.61-2.841-.61-1.676 0-2.926.696a4.8 4.8 0 0 0-1.918 1.917q-.667 1.236-.667 2.898h-3.353q0-2.557 1.179-4.489a8.2 8.2 0 0 1 3.211-3.011q2.045-1.08 4.588-1.08 2.556 0 4.531 1.08t3.097 2.912 1.122 4.077q0 1.605-.583 3.139-.567 1.52-1.988 3.395-1.407 1.86-3.907 4.545l-6.534 6.991v.23h13.523v3.12z"/><path fill="#00266c" d="M145 92h120v120H145zM25 119c0-14.912 12.088-27 27-27h93v120H52c-14.912 0-27-12.088-27-27z"/><path fill="#096" d="M265 92h120v120H265z"/><path fill="#fff" d="M216.743 24.276q-.17-1.719-1.463-2.67-1.293-.953-3.508-.953-1.506 0-2.543.427-1.037.412-1.591 1.15a2.77 2.77 0 0 0-.54 1.676q-.028.782.327 1.364a3.4 3.4 0 0 0 1.009 1.008q.639.413 1.477.725.838.299 1.79.511l2.613.625a18.5 18.5 0 0 1 3.495 1.137q1.59.71 2.755 1.747a7.25 7.25 0 0 1 1.804 2.443q.654 1.406.668 3.224-.014 2.67-1.364 4.631-1.335 1.946-3.863 3.026-2.515 1.065-6.066 1.065-3.522 0-6.136-1.08-2.6-1.08-4.063-3.196-1.449-2.13-1.519-5.27h5.951q.1 1.463.838 2.444.753.965 2.003 1.463 1.265.483 2.855.483 1.563 0 2.713-.455 1.165-.454 1.804-1.264a2.92 2.92 0 0 0 .639-1.86q0-.98-.582-1.649-.568-.667-1.676-1.136-1.094-.469-2.685-.852l-3.167-.796q-3.68-.894-5.81-2.798t-2.116-5.128q-.015-2.642 1.406-4.616 1.434-1.975 3.934-3.083 2.5-1.107 5.682-1.108 3.239 0 5.654 1.108 2.428 1.108 3.778 3.083 1.35 1.974 1.392 4.574zm20.259 21.15q-3.366 0-5.795-1.364-2.415-1.377-3.722-3.892-1.306-2.527-1.306-5.98 0-3.366 1.306-5.909 1.308-2.542 3.679-3.963 2.387-1.42 5.597-1.42 2.158 0 4.02.696a8.9 8.9 0 0 1 3.267 2.06q1.406 1.377 2.187 3.465.782 2.074.782 4.858v1.662h-18.424v-3.75h12.728q0-1.307-.569-2.315a4.06 4.06 0 0 0-1.576-1.577q-.995-.582-2.316-.582-1.377 0-2.443.639-1.05.625-1.647 1.69-.597 1.051-.611 2.344v3.565q0 1.62.596 2.799a4.37 4.37 0 0 0 1.719 1.818q1.109.64 2.628.64 1.008 0 1.847-.285a3.8 3.8 0 0 0 1.434-.852q.597-.57.909-1.392l5.597.369a7.65 7.65 0 0 1-1.747 3.523q-1.307 1.49-3.381 2.33-2.06.823-4.759.823m23.822 0q-3.353 0-5.768-1.42-2.4-1.435-3.693-3.978-1.278-2.542-1.278-5.852 0-3.352 1.292-5.88 1.307-2.544 3.708-3.964 2.4-1.434 5.71-1.434 2.855 0 5 1.037t3.395 2.912 1.378 4.403h-5.71q-.242-1.633-1.279-2.628-1.023-1.008-2.684-1.008-1.407 0-2.458.767-1.037.752-1.619 2.201t-.583 3.509q0 2.088.569 3.551.582 1.463 1.633 2.23t2.458.767q1.036 0 1.86-.426a3.6 3.6 0 0 0 1.378-1.236q.554-.823.725-1.974h5.71q-.142 2.5-1.364 4.403-1.207 1.89-3.338 2.955-2.13 1.065-5.042 1.065m23.476 0q-3.31 0-5.724-1.406-2.401-1.42-3.708-3.949-1.307-2.543-1.307-5.895 0-3.38 1.307-5.909 1.306-2.542 3.708-3.949 2.414-1.42 5.724-1.42t5.71 1.42q2.415 1.407 3.722 3.949 1.307 2.528 1.307 5.91 0 3.351-1.307 5.894-1.307 2.529-3.722 3.949-2.4 1.406-5.71 1.406m.028-4.687q1.506 0 2.515-.853 1.008-.866 1.52-2.358.525-1.49.525-3.395 0-1.902-.525-3.394-.512-1.492-1.52-2.358-1.01-.867-2.515-.867-1.52 0-2.556.867-1.023.866-1.549 2.358-.511 1.492-.511 3.394 0 1.904.511 3.395.526 1.492 1.549 2.358 1.036.853 2.556.853m20.697-8.353V45h-6.052V23.182h5.767v3.85h.256a6.1 6.1 0 0 1 2.429-3.012q1.704-1.122 4.134-1.122 2.272 0 3.963.994 1.69.994 2.628 2.841.937 1.832.937 4.375V45h-6.051V32.188q.014-2.003-1.023-3.126-1.037-1.136-2.855-1.136-1.221 0-2.159.526-.924.525-1.449 1.534-.512.995-.525 2.4m26.871 12.97q-2.486 0-4.503-1.28-2.003-1.291-3.182-3.792-1.164-2.514-1.164-6.165 0-3.75 1.207-6.235 1.207-2.5 3.21-3.736a8.23 8.23 0 0 1 4.418-1.25q1.831 0 3.054.625 1.236.61 1.988 1.534.768.91 1.165 1.79h.185V15.909h6.037V45h-5.966v-3.494h-.256a7.8 7.8 0 0 1-1.207 1.804q-.767.88-2.003 1.463-1.221.582-2.983.582m1.918-4.816q1.463 0 2.471-.796 1.023-.81 1.563-2.258.554-1.45.554-3.395t-.54-3.38-1.563-2.217q-1.022-.78-2.485-.78-1.492 0-2.515.809-1.022.81-1.548 2.244-.525 1.435-.526 3.324 0 1.904.526 3.366.54 1.45 1.548 2.273 1.023.81 2.515.81M358.657 45V15.91h11.478q3.31 0 5.639 1.263 2.33 1.251 3.551 3.48 1.236 2.217 1.236 5.114 0 2.898-1.25 5.114t-3.622 3.451q-2.358 1.236-5.711 1.236h-7.315V30.64h6.321q1.776 0 2.926-.61 1.165-.625 1.733-1.72.582-1.107.582-2.542 0-1.45-.582-2.528-.568-1.095-1.733-1.69-1.164-.611-2.954-.611h-4.148V45zm31.421.412q-2.088 0-3.722-.724-1.634-.739-2.585-2.174-.938-1.449-.938-3.608 0-1.818.668-3.054a5.4 5.4 0 0 1 1.818-1.988 8.8 8.8 0 0 1 2.614-1.137 20 20 0 0 1 3.096-.54 79 79 0 0 0 3.069-.369q1.164-.184 1.69-.54.526-.355.526-1.05v-.086q0-1.35-.853-2.088-.837-.739-2.386-.739-1.634 0-2.6.725-.965.71-1.278 1.79l-5.597-.455q.427-1.99 1.677-3.437 1.25-1.464 3.224-2.245 1.989-.795 4.602-.795 1.818 0 3.48.426 1.676.426 2.969 1.32a6.4 6.4 0 0 1 2.06 2.302q.753 1.392.753 3.338V45h-5.739v-3.026h-.17a6.2 6.2 0 0 1-1.407 1.804q-.88.767-2.116 1.208-1.236.426-2.855.426m1.733-4.176q1.335 0 2.358-.526a4.2 4.2 0 0 0 1.605-1.449q.582-.909.582-2.06v-2.315q-.284.185-.781.341-.483.142-1.094.27a55 55 0 0 1-1.221.213l-1.108.157q-1.066.156-1.861.497t-1.236.923q-.44.568-.44 1.42 0 1.236.895 1.89.909.639 2.301.639m33.402-11.833-5.54.341a2.86 2.86 0 0 0-.611-1.278 3.24 3.24 0 0 0-1.236-.923q-.753-.355-1.804-.355-1.406 0-2.372.596-.966.583-.966 1.563 0 .78.625 1.32t2.145.867l3.949.796q3.182.653 4.744 2.102 1.563 1.449 1.563 3.807 0 2.145-1.264 3.764-1.25 1.62-3.438 2.528-2.173.895-5.014.895-4.332 0-6.903-1.804-2.557-1.818-2.998-4.943l5.952-.312q.27 1.32 1.307 2.017 1.037.681 2.656.681 1.591 0 2.557-.61.98-.625.994-1.606-.013-.824-.696-1.349-.681-.54-2.102-.824l-3.778-.753q-3.196-.64-4.759-2.216-1.548-1.575-1.548-4.02 0-2.101 1.136-3.622 1.15-1.52 3.225-2.343 2.087-.825 4.886-.824 4.133 0 6.506 1.747 2.387 1.747 2.784 4.758m22.461 0-5.54.341a2.86 2.86 0 0 0-.611-1.278 3.24 3.24 0 0 0-1.236-.923q-.753-.355-1.804-.355-1.406 0-2.372.596-.966.583-.966 1.563 0 .78.625 1.32t2.145.867l3.949.796q3.182.653 4.744 2.102 1.563 1.449 1.563 3.807 0 2.145-1.264 3.764-1.251 1.62-3.438 2.528-2.173.895-5.014.895-4.332 0-6.904-1.804-2.556-1.818-2.997-4.943l5.952-.312q.27 1.32 1.307 2.017 1.037.681 2.656.681 1.591 0 2.557-.61.98-.625.994-1.606-.014-.824-.696-1.349-.681-.54-2.102-.824l-3.778-.753q-3.196-.64-4.759-2.216-1.548-1.575-1.548-4.02 0-2.101 1.136-3.622 1.15-1.52 3.225-2.343 2.087-.825 4.886-.824 4.134 0 6.506 1.747 2.385 1.747 2.784 4.758"/><rect width="599" height="120" x="25" y="92" stroke="#dbdbdb" stroke-width="2" rx="26"/><path stroke="#dbdbdb" stroke-width="2" d="M145 91v122M265 91v122M386 91v122M506 91v122"/><path fill="#fff" d="M62.976 166v-2.557l9.603-10.511a67 67 0 0 0 2.784-3.21q1.094-1.379 1.619-2.586.54-1.221.54-2.556 0-1.535-.739-2.657-.725-1.121-1.989-1.733-1.264-.61-2.84-.61-1.677 0-2.927.696a4.8 4.8 0 0 0-1.917 1.917q-.668 1.236-.668 2.898H63.09q0-2.557 1.179-4.489a8.2 8.2 0 0 1 3.21-3.011q2.046-1.08 4.588-1.08 2.557 0 4.531 1.08 1.975 1.08 3.097 2.912t1.122 4.077q0 1.605-.582 3.139-.57 1.52-1.989 3.395-1.406 1.86-3.906 4.545l-6.534 6.989v.227h13.523V166zm25.128 0 13.011-25.739v-.227h-15v-3.125h18.637v3.296L91.797 166zM181.572 160.034v-2.898l12.784-20.227h2.102v4.489h-1.42l-9.659 15.284v.227h17.215v3.125zM195.265 166v-29.091h3.352V166zm13.562 0 13.011-25.739v-.227h-15v-3.125h18.636v3.296L212.52 166zM314.961 136.909V166h-3.522v-25.398h-.171l-7.102 4.716v-3.579l7.273-4.83zm17.628-.398q1.79.015 3.58.682 1.79.668 3.267 2.216 1.477 1.535 2.372 4.19.894 2.657.895 6.662 0 3.879-.739 6.89-.725 2.997-2.102 5.056-1.363 2.06-3.324 3.125-1.946 1.066-4.403 1.066-2.444 0-4.361-.966a8.56 8.56 0 0 1-3.125-2.713q-1.207-1.747-1.549-4.049h3.466q.47 2.004 1.861 3.31 1.406 1.293 3.708 1.293 3.366 0 5.312-2.941 1.96-2.94 1.96-8.309h-.227a8.9 8.9 0 0 1-1.889 2.059 8.3 8.3 0 0 1-2.429 1.336 8.5 8.5 0 0 1-2.841.468q-2.5 0-4.588-1.235-2.074-1.25-3.324-3.424-1.236-2.187-1.236-5 0-2.67 1.193-4.886a9.2 9.2 0 0 1 3.381-3.551q2.187-1.321 5.142-1.279m0 3.125q-1.79 0-3.224.895a6.44 6.44 0 0 0-2.259 2.387q-.824 1.491-.824 3.309t.796 3.31a6.35 6.35 0 0 0 2.201 2.358q1.407.867 3.196.866 1.35 0 2.515-.525a6.5 6.5 0 0 0 2.031-1.463 7.1 7.1 0 0 0 1.378-2.117 6.4 6.4 0 0 0 .497-2.486 6.5 6.5 0 0 0-.824-3.196 6.54 6.54 0 0 0-2.244-2.414q-1.42-.924-3.239-.924M81.353 323v-18h2.672v2.719h.187q.492-1.337 1.782-2.168 1.289-.832 2.906-.832.305 0 .762.011.457.012.691.036v2.812a9 9 0 0 0-.644-.105 6.3 6.3 0 0 0-1.044-.082q-1.313 0-2.343.55-1.02.54-1.617 1.5-.586.95-.586 2.168V323zm17.575.422q-1.71 0-3.105-.645a5.33 5.33 0 0 1-2.215-1.886q-.82-1.243-.82-3 0-1.548.609-2.508a4.3 4.3 0 0 1 1.629-1.524q1.02-.55 2.25-.82 1.242-.281 2.496-.445 1.64-.211 2.66-.317 1.032-.117 1.5-.386.48-.27.481-.938v-.094q0-1.734-.95-2.695-.937-.961-2.847-.961-1.98 0-3.106.867-1.125.868-1.582 1.852l-2.625-.938q.703-1.64 1.875-2.554a7 7 0 0 1 2.578-1.289q1.407-.375 2.766-.375.867 0 1.992.211 1.136.199 2.192.832 1.066.632 1.769 1.91.703 1.277.703 3.422V323h-2.765v-2.438h-.141q-.281.587-.938 1.254-.656.669-1.746 1.137-1.09.47-2.66.469m.422-2.484q1.641 0 2.766-.645 1.137-.644 1.711-1.664a4.25 4.25 0 0 0 .586-2.145v-2.531q-.176.212-.774.387-.586.164-1.359.293-.762.117-1.488.211-.716.081-1.16.14a10.6 10.6 0 0 0-2.016.457q-.925.305-1.5.926-.563.61-.563 1.664 0 1.442 1.067 2.18 1.078.726 2.73.727m15.642-8.766V323h-2.766v-18h2.672v2.812h.234a5.15 5.15 0 0 1 1.922-2.203q1.29-.843 3.328-.843 1.828 0 3.2.75 1.371.738 2.132 2.25.762 1.5.762 3.797V323h-2.766v-11.25q0-2.121-1.101-3.305-1.101-1.195-3.024-1.195-1.323 0-2.367.574-1.03.575-1.629 1.676-.597 1.101-.597 2.672m23.803 17.953q-2.004 0-3.445-.516-1.442-.504-2.402-1.336-.95-.82-1.512-1.757l2.203-1.547q.375.492.949 1.125.575.644 1.571 1.113 1.007.48 2.636.48 2.18 0 3.598-1.054t1.418-3.305v-3.656h-.234q-.305.492-.868 1.219-.55.714-1.593 1.277-1.031.55-2.789.551-2.18 0-3.914-1.031-1.723-1.032-2.731-3.001-.996-1.968-.996-4.781 0-2.766.973-4.816.972-2.063 2.707-3.188 1.734-1.136 4.008-1.136 1.757 0 2.789.586 1.043.573 1.593 1.312.562.726.868 1.195h.281V305h2.672v18.516q0 2.32-1.055 3.773-1.043 1.465-2.813 2.145-1.757.691-3.914.691m-.093-9.891q1.664 0 2.812-.761 1.149-.762 1.746-2.192.598-1.43.598-3.422 0-1.945-.586-3.433-.587-1.488-1.734-2.332-1.149-.844-2.836-.844-1.758 0-2.93.891-1.16.89-1.746 2.39-.574 1.5-.574 3.328 0 1.875.586 3.317.597 1.43 1.757 2.25 1.172.808 2.907.808m20.484 3.141q-2.601 0-4.488-1.148-1.875-1.16-2.895-3.235-1.008-2.086-1.008-4.851t1.008-4.875q1.02-2.121 2.836-3.305 1.829-1.195 4.266-1.195 1.406 0 2.777.468a6.9 6.9 0 0 1 2.496 1.524q1.125 1.043 1.793 2.765t.668 4.243v1.171h-13.875v-2.39h11.063q0-1.524-.61-2.719a4.6 4.6 0 0 0-1.711-1.887q-1.101-.691-2.601-.691-1.653 0-2.86.82a5.4 5.4 0 0 0-1.839 2.11 6.2 6.2 0 0 0-.645 2.789v1.594q0 2.038.703 3.457.715 1.406 1.981 2.144 1.265.726 2.941.727 1.09 0 1.969-.305a4.2 4.2 0 0 0 1.535-.938q.645-.632.996-1.57l2.672.75a5.9 5.9 0 0 1-1.418 2.391q-.996 1.02-2.461 1.593-1.465.563-3.293.563m28.254 0q-2.438 0-4.277-1.16-1.828-1.161-2.86-3.246-1.019-2.087-1.019-4.875 0-2.813 1.019-4.91 1.032-2.099 2.86-3.258 1.84-1.16 4.277-1.16t4.266 1.16q1.839 1.16 2.859 3.258 1.03 2.097 1.031 4.91 0 2.788-1.031 4.875-1.02 2.085-2.859 3.246-1.828 1.16-4.266 1.16m0-2.484q1.851 0 3.047-.95 1.196-.948 1.769-2.496.575-1.547.575-3.351t-.575-3.364q-.573-1.558-1.769-2.519t-3.047-.961-3.047.961-1.769 2.519q-.575 1.56-.575 3.364t.575 3.351q.573 1.548 1.769 2.496 1.196.95 3.047.95M207.833 305v2.344h-9.703V305zm-6.796 18v-20.484q0-1.547.726-2.579a4.5 4.5 0 0 1 1.887-1.546 6 6 0 0 1 2.449-.516q1.02 0 1.664.164.645.164.961.305l-.797 2.39q-.21-.07-.586-.175-.363-.106-.961-.106-1.371 0-1.98.692-.598.69-.598 2.027V323zm-155.8 29.172V363h-2.765v-18h2.672v2.812h.234a5.14 5.14 0 0 1 1.922-2.203q1.29-.843 3.328-.843 1.828 0 3.2.75 1.37.738 2.132 2.25.762 1.5.762 3.797V363h-2.766v-11.25q0-2.121-1.102-3.305-1.101-1.195-3.023-1.195-1.325 0-2.367.574-1.031.575-1.629 1.676t-.598 2.672m27.882 3.469V345h2.766v18h-2.766v-3.047h-.187q-.633 1.371-1.97 2.332-1.335.95-3.374.949-1.687 0-3-.738-1.313-.75-2.063-2.25-.75-1.511-.75-3.809V345h2.766v11.25q0 1.968 1.102 3.141 1.113 1.171 2.835 1.171 1.032 0 2.098-.527 1.078-.526 1.805-1.617.738-1.09.738-2.777M80.95 363v-18h2.672v2.812h.234q.562-1.44 1.817-2.238 1.254-.808 3.012-.808 1.78 0 2.964.808 1.195.797 1.864 2.238h.187a5.25 5.25 0 0 1 2.074-2.214q1.383-.832 3.317-.832 2.414 0 3.949 1.511 1.535 1.5 1.535 4.676V363h-2.765v-12.047q0-1.992-1.09-2.848t-2.567-.855q-1.898 0-2.941 1.148-1.043 1.137-1.043 2.883V363h-2.813v-12.328q0-1.536-.996-2.473-.996-.95-2.566-.949a3.8 3.8 0 0 0-2.016.574 4.34 4.34 0 0 0-1.5 1.594q-.562 1.008-.562 2.332V363zm29.057 0v-24h2.765v8.859h.235q.304-.469.844-1.195.55-.739 1.57-1.312 1.03-.586 2.789-.586 2.274 0 4.008 1.136 1.734 1.137 2.707 3.223t.972 4.922q0 2.859-.972 4.957-.973 2.087-2.696 3.234-1.722 1.137-3.972 1.137-1.734 0-2.778-.574-1.043-.586-1.605-1.324-.562-.75-.867-1.243h-.328V363zm2.719-9q0 2.039.597 3.598.599 1.546 1.746 2.425 1.148.868 2.813.868 1.734 0 2.894-.914 1.173-.927 1.758-2.485.598-1.57.598-3.492 0-1.899-.586-3.422-.575-1.535-1.746-2.426-1.16-.902-2.918-.902-1.687 0-2.836.855-1.149.844-1.734 2.368-.586 1.51-.586 3.527m24.949 9.375q-2.603 0-4.488-1.148-1.875-1.16-2.895-3.235-1.008-2.086-1.008-4.851t1.008-4.875q1.02-2.121 2.836-3.305 1.828-1.195 4.266-1.195 1.406 0 2.777.468a6.9 6.9 0 0 1 2.496 1.524q1.125 1.043 1.793 2.765t.668 4.243v1.171h-13.875v-2.39h11.062q0-1.524-.609-2.719a4.6 4.6 0 0 0-1.711-1.887q-1.101-.691-2.601-.691-1.653 0-2.86.82a5.4 5.4 0 0 0-1.84 2.11 6.2 6.2 0 0 0-.644 2.789v1.594q0 2.038.703 3.457.715 1.406 1.98 2.144 1.266.726 2.942.727 1.09 0 1.969-.305a4.2 4.2 0 0 0 1.535-.938q.643-.632.996-1.57l2.672.75a5.94 5.94 0 0 1-1.418 2.391q-.996 1.02-2.461 1.593-1.465.563-3.293.563m11.66-.375v-18h2.672v2.719h.187q.492-1.337 1.782-2.168 1.289-.832 2.906-.832.304 0 .762.011.457.012.691.036v2.812a9 9 0 0 0-.645-.105 6.3 6.3 0 0 0-1.043-.082q-1.312 0-2.343.55-1.02.54-1.617 1.5-.586.95-.586 2.168V363zm25.028-13.969-2.484.703a4.6 4.6 0 0 0-.691-1.207q-.446-.597-1.219-.984t-1.981-.387q-1.651 0-2.754.762-1.089.75-1.089 1.91 0 1.032.75 1.629t2.343.996l2.672.656q2.415.587 3.598 1.793 1.183 1.196 1.183 3.082a4.57 4.57 0 0 1-.89 2.766q-.879 1.218-2.461 1.922-1.582.703-3.68.703-2.754 0-4.558-1.195-1.805-1.195-2.286-3.493l2.625-.656q.375 1.454 1.418 2.18 1.055.726 2.754.727 1.934 0 3.071-.821 1.148-.832 1.148-1.992 0-.937-.656-1.57-.657-.645-2.016-.961l-3-.703q-2.472-.586-3.633-1.817-1.148-1.242-1.148-3.105 0-1.524.855-2.696.868-1.171 2.356-1.839 1.5-.669 3.398-.668 2.673 0 4.196 1.171 1.535 1.173 2.179 3.094M195.964 345v2.344h-9.328V345zm-6.61-4.313h2.766v17.157q0 1.171.34 1.758.351.573.891.773a3.6 3.6 0 0 0 1.16.187q.456 0 .75-.046l.468-.094.563 2.484a5.5 5.5 0 0 1-.785.211q-.504.117-1.278.117a5.6 5.6 0 0 1-2.296-.504 4.55 4.55 0 0 1-1.852-1.535q-.727-1.03-.727-2.601zm13.922 11.485V363h-2.765v-24h2.765v8.812h.235a5.1 5.1 0 0 1 1.898-2.214q1.278-.832 3.399-.832 1.839 0 3.222.738 1.383.726 2.145 2.238.773 1.5.773 3.821V363h-2.765v-11.25q0-2.145-1.114-3.316-1.102-1.184-3.058-1.184-1.36 0-2.438.574a4.2 4.2 0 0 0-1.687 1.676q-.61 1.101-.61 2.672m22.029 11.25q-1.711 0-3.106-.645a5.33 5.33 0 0 1-2.215-1.886q-.82-1.243-.82-3 0-1.548.609-2.508a4.3 4.3 0 0 1 1.629-1.524q1.02-.55 2.25-.82a28 28 0 0 1 2.496-.445q1.641-.211 2.661-.317 1.03-.117 1.5-.386.48-.27.48-.938v-.094q0-1.734-.949-2.695-.937-.961-2.848-.961-1.98 0-3.105.867-1.125.868-1.582 1.852l-2.625-.938q.702-1.64 1.875-2.554a7 7 0 0 1 2.578-1.289q1.406-.375 2.765-.375.868 0 1.993.211a6.4 6.4 0 0 1 2.191.832q1.066.632 1.77 1.91.703 1.277.703 3.422V363h-2.766v-2.438h-.141q-.281.587-.937 1.254-.657.669-1.746 1.137-1.09.47-2.66.469m.422-2.484q1.64 0 2.765-.645 1.137-.644 1.711-1.664a4.24 4.24 0 0 0 .586-2.145v-2.531q-.176.212-.773.387-.586.164-1.36.293-.762.117-1.488.211-.715.081-1.16.14a10.6 10.6 0 0 0-2.016.457q-.925.305-1.5.926-.562.61-.562 1.664 0 1.442 1.066 2.18 1.078.726 2.731.727M246.431 345v2.344h-9.328V345zm-6.61-4.313h2.766v17.157q0 1.171.34 1.758.351.573.89.773a3.6 3.6 0 0 0 1.161.187q.456 0 .75-.046l.468-.094.563 2.484a5.5 5.5 0 0 1-.785.211q-.504.117-1.278.117a5.6 5.6 0 0 1-2.297-.504 4.55 4.55 0 0 1-1.851-1.535q-.727-1.03-.727-2.601zM44.852 379v24h-2.906v-20.953h-.14l-5.86 3.89v-2.953l6-3.984zm14.543-.328a8.6 8.6 0 0 1 2.953.562q1.477.552 2.695 1.828 1.22 1.266 1.957 3.458.74 2.19.739 5.496 0 3.198-.61 5.683-.597 2.473-1.734 4.172-1.125 1.7-2.742 2.578-1.605.879-3.633.879-2.016 0-3.598-.797a7.06 7.06 0 0 1-2.578-2.238q-.996-1.441-1.277-3.34h2.86q.386 1.653 1.534 2.731 1.16 1.066 3.059 1.066 2.778 0 4.383-2.426 1.617-2.425 1.617-6.855h-.187a7.4 7.4 0 0 1-1.56 1.699 6.9 6.9 0 0 1-2.003 1.102 7 7 0 0 1-2.344.386 7.3 7.3 0 0 1-3.785-1.019 7.74 7.74 0 0 1-2.742-2.825q-1.02-1.804-1.02-4.125 0-2.202.985-4.031a7.6 7.6 0 0 1 2.789-2.929q1.805-1.09 4.242-1.055m0 2.578q-1.476 0-2.66.738a5.3 5.3 0 0 0-1.863 1.969q-.68 1.23-.68 2.73t.656 2.731a5.24 5.24 0 0 0 1.817 1.945q1.16.715 2.636.715 1.113 0 2.075-.433.96-.446 1.675-1.208a5.8 5.8 0 0 0 1.137-1.746q.41-.984.41-2.05 0-1.407-.68-2.637a5.4 5.4 0 0 0-1.851-1.992q-1.172-.762-2.672-.762M81.675 403v-18h2.766v18zm1.407-21a1.97 1.97 0 0 1-1.395-.551 1.77 1.77 0 0 1-.574-1.324q0-.774.574-1.324.586-.55 1.395-.551.809 0 1.382.551.586.55.586 1.324t-.586 1.324a1.93 1.93 0 0 1-1.382.551m19.174 7.031-2.484.703a4.6 4.6 0 0 0-.691-1.207q-.446-.597-1.22-.984-.773-.387-1.98-.387-1.652 0-2.754.762-1.09.75-1.09 1.91 0 1.032.75 1.629t2.344.996l2.672.656q2.415.587 3.598 1.793 1.183 1.196 1.183 3.082a4.57 4.57 0 0 1-.89 2.766q-.879 1.218-2.461 1.922-1.582.703-3.68.703-2.754 0-4.558-1.195-1.806-1.195-2.285-3.493l2.625-.656q.375 1.454 1.417 2.18 1.056.726 2.754.727 1.935 0 3.07-.821 1.15-.832 1.15-1.992 0-.937-.657-1.57-.657-.645-2.016-.961l-3-.703q-2.473-.586-3.633-1.817-1.148-1.242-1.148-3.105 0-1.524.855-2.696.868-1.171 2.356-1.839 1.5-.669 3.398-.668 2.672 0 4.196 1.171 1.535 1.173 2.179 3.094M118.794 379v24h-2.765v-24zm12.613 24.375q-2.602 0-4.489-1.148-1.874-1.16-2.894-3.235-1.008-2.086-1.008-4.851t1.008-4.875q1.02-2.121 2.836-3.305 1.828-1.195 4.265-1.195 1.407 0 2.778.468a6.9 6.9 0 0 1 2.496 1.524q1.125 1.043 1.793 2.765t.668 4.243v1.171h-13.875v-2.39h11.062q0-1.524-.609-2.719a4.6 4.6 0 0 0-1.711-1.887q-1.102-.691-2.602-.691-1.651 0-2.859.82a5.4 5.4 0 0 0-1.84 2.11 6.2 6.2 0 0 0-.644 2.789v1.594q0 2.038.703 3.457.715 1.406 1.98 2.144 1.266.726 2.942.727 1.09 0 1.968-.305a4.2 4.2 0 0 0 1.536-.938q.643-.632.996-1.57l2.672.75a5.94 5.94 0 0 1-1.418 2.391q-.996 1.02-2.461 1.593-1.466.563-3.293.563m24.41-14.344-2.484.703a4.6 4.6 0 0 0-.692-1.207q-.445-.597-1.219-.984-.773-.387-1.98-.387-1.653 0-2.754.762-1.09.75-1.09 1.91 0 1.032.75 1.629t2.344.996l2.672.656q2.413.587 3.597 1.793 1.184 1.196 1.184 3.082a4.57 4.57 0 0 1-.891 2.766q-.879 1.218-2.461 1.922-1.582.703-3.679.703-2.754 0-4.559-1.195t-2.285-3.493l2.625-.656q.375 1.454 1.418 2.18 1.055.726 2.754.727 1.933 0 3.07-.821 1.149-.832 1.149-1.992 0-.937-.657-1.57-.656-.645-2.015-.961l-3-.703q-2.474-.586-3.633-1.817-1.148-1.242-1.148-3.105 0-1.524.855-2.696.867-1.171 2.355-1.839 1.5-.669 3.399-.668 2.672 0 4.195 1.171 1.536 1.173 2.18 3.094m17.241 0-2.484.703a4.6 4.6 0 0 0-.692-1.207q-.445-.597-1.218-.984-.774-.387-1.981-.387-1.651 0-2.754.762-1.09.75-1.09 1.91 0 1.032.75 1.629t2.344.996l2.672.656q2.414.587 3.598 1.793 1.183 1.196 1.183 3.082a4.57 4.57 0 0 1-.89 2.766q-.88 1.218-2.461 1.922-1.583.703-3.68.703-2.754 0-4.559-1.195-1.804-1.195-2.285-3.493l2.625-.656q.375 1.454 1.418 2.18 1.054.726 2.754.727 1.934 0 3.07-.821 1.149-.832 1.149-1.992 0-.937-.656-1.57-.657-.645-2.016-.961l-3-.703q-2.472-.586-3.633-1.817-1.148-1.242-1.148-3.105 0-1.524.855-2.696.867-1.171 2.356-1.839 1.5-.669 3.398-.668 2.672 0 4.195 1.171 1.536 1.173 2.18 3.094M194.659 385v2.344h-9.328V385zm-6.61-4.313h2.766v17.157q0 1.171.34 1.758.351.573.89.773a3.6 3.6 0 0 0 1.161.187q.456 0 .75-.046l.468-.094.563 2.484a5.5 5.5 0 0 1-.785.211q-.504.117-1.278.117a5.6 5.6 0 0 1-2.297-.504 4.55 4.55 0 0 1-1.851-1.535q-.726-1.03-.727-2.601zm13.922 11.485V403h-2.765v-24h2.765v8.812h.235a5.1 5.1 0 0 1 1.898-2.214q1.278-.832 3.398-.832 1.84 0 3.223.738 1.383.726 2.145 2.238.773 1.5.773 3.821V403h-2.766v-11.25q0-2.145-1.113-3.316-1.101-1.184-3.058-1.184-1.36 0-2.438.574a4.2 4.2 0 0 0-1.687 1.676q-.61 1.101-.61 2.672M224 403.422q-1.711 0-3.106-.645a5.33 5.33 0 0 1-2.215-1.886q-.82-1.243-.82-3 0-1.548.609-2.508a4.3 4.3 0 0 1 1.629-1.524q1.02-.55 2.25-.82 1.242-.281 2.496-.445 1.641-.211 2.66-.317 1.032-.117 1.5-.386.481-.27.481-.938v-.094q0-1.734-.949-2.695-.938-.961-2.848-.961-1.98 0-3.105.867-1.125.868-1.582 1.852l-2.625-.938q.702-1.64 1.875-2.554a7 7 0 0 1 2.578-1.289q1.406-.375 2.765-.375.867 0 1.992.211 1.137.199 2.192.832 1.067.632 1.769 1.91.704 1.277.704 3.422V403h-2.766v-2.438h-.141q-.281.587-.937 1.254-.657.669-1.746 1.137-1.09.47-2.66.469m.421-2.484q1.641 0 2.766-.645 1.137-.644 1.711-1.664a4.24 4.24 0 0 0 .586-2.145v-2.531q-.175.212-.774.387-.585.164-1.359.293-.762.117-1.488.211-.715.081-1.16.14a10.6 10.6 0 0 0-2.016.457q-.925.305-1.5.926-.562.61-.562 1.664 0 1.442 1.066 2.18 1.078.726 2.73.727m15.642-8.766V403h-2.766v-18h2.672v2.812h.235a5.14 5.14 0 0 1 1.921-2.203q1.29-.843 3.329-.843 1.827 0 3.199.75 1.371.738 2.133 2.25.76 1.5.761 3.797V403h-2.765v-11.25q0-2.121-1.102-3.305-1.101-1.195-3.023-1.195-1.325 0-2.367.574-1.032.575-1.629 1.676-.598 1.101-.598 2.672M153.849 753q-.211-1.781-1.711-2.766-1.5-.984-3.68-.984-1.593 0-2.789.516-1.183.515-1.851 1.418a3.4 3.4 0 0 0-.656 2.05q0 .962.457 1.653.469.68 1.195 1.136.726.445 1.523.739.798.281 1.465.457l2.438.656q.937.246 2.086.68a9.7 9.7 0 0 1 2.215 1.183 6 6 0 0 1 1.757 1.899q.692 1.16.692 2.847 0 1.946-1.02 3.516-1.008 1.57-2.953 2.496-1.933.926-4.699.926-2.578 0-4.465-.832-1.875-.832-2.953-2.32-1.066-1.489-1.207-3.458h3q.117 1.36.914 2.25.809.88 2.039 1.313a8.3 8.3 0 0 0 2.672.422q1.663 0 2.988-.539 1.324-.55 2.098-1.524.773-.983.773-2.297 0-1.195-.668-1.945-.667-.75-1.758-1.219a18.4 18.4 0 0 0-2.355-.82l-2.953-.844q-2.813-.808-4.453-2.308t-1.641-3.926q0-2.016 1.09-3.516 1.102-1.511 2.953-2.343 1.863-.844 4.16-.844 2.32 0 4.125.832 1.804.82 2.86 2.25a5.6 5.6 0 0 1 1.125 3.246zm10.31 7.172V771h-2.766v-24h2.766v8.812h.234a5.1 5.1 0 0 1 1.899-2.214q1.277-.832 3.398-.832 1.84 0 3.223.738 1.382.726 2.144 2.238.774 1.5.774 3.821V771h-2.766v-11.25q0-2.145-1.113-3.316-1.102-1.184-3.059-1.184-1.36 0-2.437.574a4.2 4.2 0 0 0-1.688 1.676q-.609 1.101-.609 2.672M180.89 771v-18h2.766v18zm1.406-21a1.97 1.97 0 0 1-1.394-.551 1.77 1.77 0 0 1-.574-1.324q0-.774.574-1.324.585-.55 1.394-.551.808 0 1.383.551.586.55.586 1.324t-.586 1.324a1.93 1.93 0 0 1-1.383.551m14.441 3v2.344h-9.703V753zm-6.797 18v-20.484q0-1.548.727-2.579a4.5 4.5 0 0 1 1.886-1.546 6 6 0 0 1 2.449-.516q1.02 0 1.665.164.644.164.96.305l-.796 2.39a13 13 0 0 0-.586-.175q-.364-.106-.961-.106-1.371 0-1.981.692-.597.69-.597 2.027V771zm18.501-18v2.344h-9.328V753zm-6.609-4.313h2.765v17.157q0 1.171.34 1.758.351.573.891.773.55.187 1.16.187.456 0 .75-.046l.469-.094.562 2.484a5.5 5.5 0 0 1-.785.211q-.504.117-1.277.117a5.6 5.6 0 0 1-2.297-.504 4.55 4.55 0 0 1-1.852-1.535q-.726-1.03-.726-2.601zM229.71 753v2.344h-9.328V753zm-6.609-4.313h2.766v17.157q0 1.171.34 1.758.351.573.89.773.55.187 1.16.187.458 0 .75-.046l.469-.094.563 2.484q-.282.106-.786.211-.503.117-1.277.117a5.6 5.6 0 0 1-2.297-.504 4.55 4.55 0 0 1-1.851-1.535q-.727-1.03-.727-2.601zm17.889 22.688q-2.437 0-4.278-1.16-1.827-1.161-2.859-3.246-1.02-2.086-1.02-4.875 0-2.813 1.02-4.91 1.032-2.099 2.859-3.258 1.84-1.16 4.278-1.16t4.265 1.16q1.84 1.16 2.86 3.258 1.03 2.097 1.031 4.91 0 2.789-1.031 4.875-1.02 2.085-2.86 3.246-1.827 1.16-4.265 1.16m0-2.484q1.851 0 3.047-.95 1.194-.948 1.769-2.496.574-1.547.574-3.351t-.574-3.364q-.575-1.558-1.769-2.519-1.196-.961-3.047-.961t-3.047.961q-1.195.961-1.77 2.519-.573 1.56-.574 3.364 0 1.804.574 3.351.575 1.548 1.77 2.496 1.195.95 3.047.95M270.477 753v2.344h-9.328V753zm-6.609-4.313h2.765v17.157q0 1.171.34 1.758.352.573.891.773.55.187 1.16.187.458 0 .75-.046l.469-.094.562 2.484a5.5 5.5 0 0 1-.785.211q-.504.117-1.277.117a5.6 5.6 0 0 1-2.297-.504 4.55 4.55 0 0 1-1.852-1.535q-.726-1.03-.726-2.601zm13.922 11.485V771h-2.766v-24h2.766v8.812h.234a5.1 5.1 0 0 1 1.898-2.214q1.278-.832 3.399-.832 1.84 0 3.222.738 1.383.726 2.145 2.238.774 1.5.773 3.821V771h-2.765v-11.25q0-2.145-1.113-3.316-1.102-1.184-3.059-1.184-1.36 0-2.438.574a4.2 4.2 0 0 0-1.687 1.676q-.609 1.101-.609 2.672m24.278 11.203q-2.602 0-4.488-1.148-1.875-1.16-2.895-3.235-1.008-2.086-1.008-4.851t1.008-4.875q1.02-2.121 2.836-3.305 1.829-1.195 4.266-1.195 1.406 0 2.777.468a6.9 6.9 0 0 1 2.496 1.524q1.125 1.043 1.793 2.765t.668 4.243v1.171h-13.875v-2.39h11.062q0-1.524-.609-2.719a4.6 4.6 0 0 0-1.711-1.887q-1.101-.691-2.601-.691-1.653 0-2.86.82a5.4 5.4 0 0 0-1.84 2.11 6.2 6.2 0 0 0-.644 2.789v1.594q0 2.038.703 3.457.715 1.406 1.98 2.144 1.266.726 2.942.727 1.09 0 1.969-.305a4.2 4.2 0 0 0 1.535-.938q.644-.632.996-1.57l2.672.75a5.94 5.94 0 0 1-1.418 2.391q-.996 1.02-2.461 1.593-1.465.563-3.293.563m20.941-.375v-18h2.672v2.719h.188q.492-1.337 1.781-2.168t2.906-.832q.304 0 .762.011.457.012.691.036v2.812a9 9 0 0 0-.644-.105 6.3 6.3 0 0 0-1.043-.082q-1.312 0-2.344.55-1.02.54-1.617 1.5-.586.95-.586 2.168V771zm12.279 0v-18h2.765v18zm1.406-21a1.97 1.97 0 0 1-1.395-.551 1.77 1.77 0 0 1-.574-1.324q0-.774.574-1.324a1.97 1.97 0 0 1 1.395-.551q.809 0 1.383.551.586.55.586 1.324t-.586 1.324a1.93 1.93 0 0 1-1.383.551m13.69 28.125q-2.004 0-3.445-.516-1.442-.504-2.402-1.336-.95-.82-1.512-1.757l2.203-1.547q.375.492.949 1.125.574.644 1.571 1.113 1.007.48 2.636.48 2.18 0 3.598-1.054t1.418-3.305v-3.656h-.234q-.306.492-.868 1.219-.55.714-1.593 1.277-1.032.55-2.789.551-2.18 0-3.915-1.031-1.722-1.032-2.73-3.001-.996-1.968-.996-4.781 0-2.766.973-4.816.972-2.063 2.707-3.188 1.734-1.136 4.007-1.136 1.758 0 2.789.586 1.044.574 1.594 1.312.563.726.867 1.195h.282V753h2.672v18.516q0 2.32-1.055 3.773-1.043 1.465-2.813 2.145-1.758.691-3.914.691m-.093-9.891q1.663 0 2.812-.761 1.149-.762 1.746-2.192.598-1.43.598-3.422 0-1.945-.586-3.433t-1.735-2.332q-1.147-.844-2.835-.844-1.758 0-2.93.891-1.161.89-1.746 2.39-.574 1.5-.574 3.328 0 1.875.585 3.317.599 1.43 1.758 2.25 1.172.808 2.907.808m15.703-8.062V771h-2.766v-24h2.766v8.812h.234a5.1 5.1 0 0 1 1.898-2.214q1.278-.832 3.399-.832 1.84 0 3.223.738 1.382.726 2.144 2.238.774 1.5.774 3.821V771H374.9v-11.25q0-2.145-1.113-3.316-1.102-1.184-3.059-1.184-1.36 0-2.437.574a4.2 4.2 0 0 0-1.688 1.676q-.609 1.101-.609 2.672M390.553 753v2.344h-9.328V753zm-6.609-4.313h2.765v17.157q0 1.171.34 1.758.352.573.891.773.55.187 1.16.187.458 0 .75-.046l.469-.094.562 2.484a5.5 5.5 0 0 1-.785.211q-.504.117-1.277.117a5.6 5.6 0 0 1-2.297-.504 4.56 4.56 0 0 1-1.852-1.535q-.726-1.03-.726-2.601zM160.059 1087v24h-2.906v-24zm8.218 13.17V1111h-2.766v-18h2.672v2.81h.234a5.13 5.13 0 0 1 1.922-2.2q1.29-.84 3.328-.84 1.829 0 3.2.75 1.371.735 2.133 2.25c.507 1 .761 2.26.761 3.79V1111h-2.765v-11.25c0-1.41-.368-2.52-1.102-3.3q-1.101-1.2-3.023-1.2-1.324 0-2.368.57a4.2 4.2 0 0 0-1.628 1.68q-.598 1.095-.598 2.67m29.288-3.14-2.484.7a4.7 4.7 0 0 0-.692-1.2q-.445-.6-1.219-.99c-.515-.25-1.175-.38-1.98-.38-1.102 0-2.02.25-2.754.76-.727.5-1.09 1.13-1.09 1.91 0 .69.25 1.23.75 1.63q.75.6 2.344.99l2.672.66c1.609.39 2.808.99 3.597 1.79s1.184 1.83 1.184 3.08c0 1.04-.297 1.96-.891 2.77q-.878 1.215-2.46 1.92c-1.055.47-2.282.71-3.68.71q-2.754 0-4.559-1.2c-1.203-.8-1.965-1.96-2.285-3.49l2.625-.66c.25.97.723 1.7 1.418 2.18.703.49 1.621.73 2.754.73 1.289 0 2.312-.28 3.07-.82.766-.56 1.149-1.22 1.149-2 0-.62-.219-1.14-.657-1.57q-.656-.645-2.015-.96l-3-.7c-1.649-.39-2.86-1-3.633-1.82-.766-.82-1.148-1.86-1.148-3.1q0-1.53.855-2.7c.578-.78 1.363-1.39 2.356-1.84q1.5-.66 3.398-.66 2.672 0 4.195 1.17 1.536 1.17 2.18 3.09m12.038 14.35c-1.734 0-3.23-.39-4.488-1.15q-1.875-1.17-2.895-3.24c-.672-1.39-1.008-3.01-1.008-4.85s.336-3.47 1.008-4.87c.68-1.42 1.625-2.52 2.836-3.31 1.219-.8 2.641-1.19 4.266-1.19.937 0 1.863.15 2.777.46.914.32 1.746.82 2.496 1.53q1.125 1.035 1.793 2.76c.445 1.15.668 2.57.668 4.25v1.17h-13.875v-2.39h11.063c0-1.02-.203-1.93-.61-2.72a4.57 4.57 0 0 0-1.711-1.89q-1.101-.69-2.601-.69c-1.102 0-2.055.27-2.86.82a5.4 5.4 0 0 0-1.839 2.11q-.645 1.305-.645 2.79v1.59c0 1.36.234 2.51.703 3.46.477.94 1.137 1.65 1.981 2.14.843.49 1.824.73 2.941.73q1.09 0 1.969-.3a4.4 4.4 0 0 0 1.535-.94c.43-.42.762-.95.996-1.57l2.672.75c-.281.9-.754 1.7-1.418 2.39q-.996 1.02-2.461 1.59t-3.293.57m11.66-.38v-18h2.672v2.72h.188c.328-.89.921-1.61 1.781-2.17.859-.55 1.828-.83 2.906-.83.203 0 .457 0 .762.01.304.01.535.02.691.04v2.81c-.094-.03-.308-.06-.644-.11a7 7 0 0 0-1.043-.08c-.875 0-1.657.18-2.344.55q-1.02.54-1.617 1.5c-.391.63-.586 1.36-.586 2.17V1111zm21.235-18v2.34h-9.329V1093zm-6.61-4.31h2.766v17.15c0 .78.113 1.37.34 1.76q.351.57.89.78.55.18 1.16.18c.305 0 .555-.01.75-.04.196-.04.352-.07.469-.1l.563 2.49q-.282.105-.785.21c-.336.08-.762.11-1.278.11a5.5 5.5 0 0 1-2.297-.5 4.64 4.64 0 0 1-1.851-1.53q-.727-1.035-.727-2.61zm28.442-1.69v24h-2.907v-20.95h-.14l-5.86 3.89v-2.96l6-3.98zm14.543-.33c.984.01 1.968.2 2.953.56q1.476.555 2.695 1.83c.812.85 1.465 2 1.957 3.46s.738 3.29.738 5.5c0 2.13-.203 4.02-.609 5.68q-.599 2.475-1.734 4.17-1.126 1.695-2.743 2.58c-1.07.59-2.281.88-3.632.88-1.344 0-2.543-.27-3.598-.8a7 7 0 0 1-2.578-2.24c-.664-.96-1.09-2.07-1.278-3.34h2.86q.386 1.65 1.535 2.73c.773.71 1.793 1.07 3.059 1.07q2.777 0 4.382-2.43c1.078-1.61 1.618-3.9 1.618-6.85h-.188a7.5 7.5 0 0 1-1.559 1.7c-.601.47-1.269.84-2.003 1.1q-1.102.39-2.344.39-2.063 0-3.785-1.02a7.74 7.74 0 0 1-2.743-2.83c-.679-1.2-1.019-2.58-1.019-4.12 0-1.47.328-2.82.984-4.03a7.55 7.55 0 0 1 2.789-2.93c1.203-.73 2.618-1.08 4.243-1.06m0 2.58c-.985 0-1.872.25-2.661.74a5.27 5.27 0 0 0-1.863 1.97q-.68 1.23-.68 2.73t.657 2.73c.445.81 1.05 1.46 1.816 1.94q1.16.72 2.637.72c.742 0 1.433-.15 2.074-.44a5.2 5.2 0 0 0 1.676-1.2c.484-.52.863-1.1 1.137-1.75.273-.65.41-1.34.41-2.05q0-1.41-.68-2.64a5.4 5.4 0 0 0-1.852-1.99c-.781-.51-1.671-.76-2.671-.76m22.28 21.75v-18h2.765v18zm1.406-21c-.539 0-1.004-.18-1.394-.55q-.575-.555-.575-1.32c0-.52.192-.96.575-1.33.39-.37.855-.55 1.394-.55s1 .18 1.383.55c.391.37.586.81.586 1.33q0 .765-.586 1.32c-.383.37-.844.55-1.383.55m9.191 10.17V1111h-2.766v-18h2.672v2.81h.234a5.13 5.13 0 0 1 1.922-2.2q1.289-.84 3.328-.84 1.828 0 3.199.75 1.371.735 2.133 2.25c.508 1 .762 2.26.762 3.79V1111h-2.766v-11.25c0-1.41-.367-2.52-1.101-3.3q-1.102-1.2-3.024-1.2-1.325 0-2.367.57-1.03.585-1.629 1.68-.597 1.095-.597 2.67m33.647-7.17v2.34h-9.328V1093zm-6.609-4.31h2.765v17.15c0 .78.114 1.37.34 1.76q.351.57.891.78.55.18 1.16.18c.305 0 .555-.01.75-.04.195-.04.351-.07.469-.1l.562 2.49q-.28.105-.785.21c-.336.08-.762.11-1.277.11-.782 0-1.547-.16-2.297-.5a4.64 4.64 0 0 1-1.852-1.53q-.726-1.035-.726-2.61zm13.921 11.48V1111h-2.765v-24h2.765v8.81h.235a5.04 5.04 0 0 1 1.898-2.21c.852-.56 1.985-.83 3.399-.83 1.226 0 2.301.24 3.222.73.922.49 1.637 1.23 2.145 2.24.516 1 .773 2.28.773 3.82V1111h-2.765v-11.25c0-1.43-.371-2.54-1.114-3.32-.734-.79-1.753-1.18-3.058-1.18q-1.36 0-2.438.57-1.066.585-1.687 1.68-.61 1.095-.61 2.67m24.279 11.21c-1.735 0-3.231-.39-4.488-1.15q-1.875-1.17-2.895-3.24c-.672-1.39-1.008-3.01-1.008-4.85s.336-3.47 1.008-4.87c.68-1.42 1.625-2.52 2.836-3.31 1.219-.8 2.641-1.19 4.266-1.19.937 0 1.863.15 2.777.46.914.32 1.746.82 2.496 1.53q1.125 1.035 1.793 2.76c.445 1.15.668 2.57.668 4.25v1.17h-13.875v-2.39h11.062c0-1.02-.203-1.93-.609-2.72a4.57 4.57 0 0 0-1.711-1.89q-1.101-.69-2.601-.69c-1.102 0-2.055.27-2.86.82a5.4 5.4 0 0 0-1.84 2.11q-.644 1.305-.644 2.79v1.59c0 1.36.234 2.51.703 3.46.476.94 1.137 1.65 1.98 2.14.844.49 1.825.73 2.942.73q1.09 0 1.969-.3a4.4 4.4 0 0 0 1.535-.94c.429-.42.761-.95.996-1.57l2.672.75a6 6 0 0 1-1.418 2.39q-.996 1.02-2.461 1.59t-3.293.57m28.488 0c-1.734 0-3.23-.39-4.488-1.15q-1.875-1.17-2.895-3.24c-.672-1.39-1.008-3.01-1.008-4.85s.336-3.47 1.008-4.87c.68-1.42 1.625-2.52 2.836-3.31 1.219-.8 2.641-1.19 4.266-1.19.937 0 1.863.15 2.777.46.914.32 1.746.82 2.496 1.53q1.125 1.035 1.793 2.76c.446 1.15.668 2.57.668 4.25v1.17h-13.875v-2.39h11.063c0-1.02-.203-1.93-.61-2.72a4.57 4.57 0 0 0-1.711-1.89q-1.101-.69-2.601-.69c-1.102 0-2.055.27-2.86.82a5.4 5.4 0 0 0-1.839 2.11q-.645 1.305-.645 2.79v1.59c0 1.36.234 2.51.703 3.46.477.94 1.137 1.65 1.981 2.14.843.49 1.824.73 2.941.73q1.09 0 1.969-.3a4.4 4.4 0 0 0 1.535-.94c.43-.42.762-.95.996-1.57l2.672.75c-.281.9-.754 1.7-1.418 2.39q-.996 1.02-2.461 1.59t-3.293.57m11.66-.38v-18h2.672v2.81h.234a4.57 4.57 0 0 1 1.817-2.24c.836-.53 1.84-.8 3.012-.8 1.187 0 2.175.27 2.964.8.797.54 1.418 1.28 1.864 2.24h.187a5.2 5.2 0 0 1 2.074-2.21c.922-.56 2.028-.83 3.317-.83 1.609 0 2.926.5 3.949 1.51 1.024 1 1.535 2.56 1.535 4.67V1111h-2.765v-12.05c0-1.33-.364-2.27-1.09-2.84s-1.582-.86-2.567-.86c-1.265 0-2.246.38-2.941 1.15q-1.043 1.14-1.043 2.88V1111h-2.813v-12.33c0-1.02-.332-1.85-.996-2.47-.664-.63-1.519-.95-2.566-.95q-1.078 0-2.016.57c-.617.39-1.117.92-1.5 1.6-.375.67-.562 1.45-.562 2.33V1111zm28.682 6.75V1093h2.672v2.86h.328q.304-.465.844-1.2c.367-.49.89-.93 1.57-1.31.687-.39 1.617-.58 2.789-.58 1.516 0 2.852.37 4.008 1.13s2.058 1.83 2.707 3.22c.648 1.4.972 3.04.972 4.93 0 1.9-.324 3.56-.972 4.95q-.973 2.085-2.695 3.24-1.723 1.14-3.973 1.14c-1.156 0-2.082-.2-2.777-.58q-1.044-.585-1.606-1.32c-.375-.5-.664-.92-.867-1.25h-.235v9.52zm2.719-15.75q0 2.04.597 3.6c.399 1.03.981 1.84 1.746 2.42q1.149.87 2.813.87c1.156 0 2.121-.3 2.894-.91q1.173-.93 1.758-2.49c.399-1.04.598-2.21.598-3.49q0-1.905-.586-3.42c-.383-1.03-.965-1.83-1.746-2.43q-1.16-.9-2.918-.9c-1.125 0-2.07.29-2.836.86-.766.56-1.344 1.35-1.734 2.36-.391 1.01-.586 2.19-.586 3.53m25.218-9v2.34h-9.328V1093zm-6.609-4.31h2.766v17.15c0 .78.113 1.37.339 1.76q.353.57.891.78.55.18 1.16.18c.305 0 .555-.01.75-.04.196-.04.352-.07.469-.1l.562 2.49q-.28.105-.785.21c-.336.08-.761.11-1.277.11a5.5 5.5 0 0 1-2.297-.5 4.64 4.64 0 0 1-1.851-1.53q-.727-1.035-.727-2.61zm12.551 29.06q-.703 0-1.254-.12-.55-.105-.762-.21l.703-2.44c.672.18 1.266.24 1.782.19q.772-.075 1.371-.69.609-.615 1.113-1.98l.516-1.41-6.657-18.09h3l4.969 14.34h.188l4.968-14.34h3l-7.64 20.62q-.516 1.395-1.278 2.31c-.508.62-1.097 1.08-1.769 1.37q-.996.45-2.25.45m-168.791 19.28-2.485.7a4.6 4.6 0 0 0-.691-1.2q-.445-.6-1.219-.99c-.515-.25-1.176-.38-1.98-.38-1.102 0-2.02.25-2.754.76-.727.5-1.09 1.13-1.09 1.91 0 .69.25 1.23.75 1.63q.75.6 2.344.99l2.672.66c1.609.39 2.808.99 3.597 1.79s1.184 1.83 1.184 3.08c0 1.04-.297 1.96-.891 2.77q-.879 1.215-2.461 1.92c-1.054.47-2.281.71-3.679.71q-2.754 0-4.559-1.2c-1.203-.8-1.965-1.96-2.285-3.49l2.625-.66c.25.97.723 1.7 1.418 2.18.703.49 1.621.73 2.754.73 1.289 0 2.312-.28 3.07-.82.766-.56 1.149-1.22 1.149-2 0-.62-.219-1.14-.657-1.57q-.656-.645-2.015-.96l-3-.7c-1.649-.39-2.86-1-3.633-1.82-.766-.82-1.149-1.86-1.149-3.1q0-1.53.856-2.7c.578-.78 1.363-1.39 2.355-1.84q1.5-.66 3.399-.66 2.671 0 4.195 1.17 1.535 1.17 2.18 3.09m7.257-10.03v24h-2.766v-24zm12.378 24.38q-2.437 0-4.278-1.17-1.829-1.155-2.859-3.24c-.68-1.39-1.02-3.02-1.02-4.88 0-1.87.34-3.51 1.02-4.91.687-1.39 1.64-2.48 2.859-3.25 1.227-.78 2.653-1.16 4.278-1.16s3.046.38 4.265 1.16c1.227.77 2.18 1.86 2.86 3.25.687 1.4 1.031 3.04 1.031 4.91 0 1.86-.344 3.49-1.031 4.88q-1.02 2.085-2.86 3.24-1.828 1.17-4.265 1.17m0-2.49c1.234 0 2.25-.32 3.046-.95q1.196-.945 1.77-2.49c.383-1.04.574-2.15.574-3.36q0-1.8-.574-3.36-.575-1.56-1.77-2.52t-3.046-.96q-1.852 0-3.047.96t-1.77 2.52q-.574 1.56-.574 3.36c0 1.21.191 2.32.574 3.36q.575 1.545 1.77 2.49c.797.63 1.812.95 3.047.95m20.206-15.89v2.34h-9.329V1133zm-6.61-4.31h2.766v17.15c0 .78.113 1.37.34 1.76q.351.57.89.78.55.18 1.16.18c.305 0 .555-.01.75-.04.196-.04.352-.07.469-.1l.563 2.49q-.282.105-.785.21c-.336.08-.762.11-1.278.11a5.5 5.5 0 0 1-2.297-.5 4.64 4.64 0 0 1-1.851-1.53q-.727-1.035-.727-2.61zM432.497 166.398q-2.812 0-5.014-.966-2.187-.966-3.48-2.685-1.278-1.733-1.392-4.02h3.579q.114 1.407.966 2.429.853 1.009 2.23 1.563t3.054.554q1.875 0 3.324-.654 1.45-.653 2.273-1.818.824-1.164.824-2.699 0-1.605-.796-2.826-.795-1.236-2.329-1.932t-3.75-.696h-2.33v-3.125h2.33q1.732 0 3.04-.625 1.32-.625 2.059-1.762.753-1.136.753-2.67 0-1.478-.653-2.571t-1.847-1.705q-1.179-.61-2.784-.61a7.3 7.3 0 0 0-2.841.554q-1.321.539-2.159 1.576-.839 1.023-.909 2.472h-3.409q.085-2.287 1.378-4.006 1.292-1.733 3.38-2.699 2.103-.966 4.617-.966 2.699 0 4.63 1.094 1.932 1.08 2.969 2.855a7.47 7.47 0 0 1 1.037 3.835q0 2.458-1.292 4.191-1.28 1.733-3.481 2.4v.228q2.757.454 4.304 2.343 1.55 1.876 1.549 4.645 0 2.373-1.293 4.262-1.278 1.874-3.494 2.954t-5.043 1.08m15.639-.398v-2.557l9.603-10.511a67 67 0 0 0 2.784-3.21q1.094-1.379 1.619-2.586.54-1.221.54-2.556 0-1.535-.739-2.657-.725-1.121-1.988-1.733-1.265-.61-2.841-.61-1.677 0-2.926.696a4.8 4.8 0 0 0-1.918 1.917q-.668 1.236-.668 2.898h-3.352q0-2.557 1.179-4.489a8.2 8.2 0 0 1 3.21-3.011q2.046-1.08 4.588-1.08 2.557 0 4.532 1.08 1.974 1.08 3.096 2.912t1.122 4.077q0 1.605-.582 3.139-.569 1.52-1.989 3.395-1.405 1.86-3.906 4.545l-6.534 6.989v.227h13.523V166zM556.332 136.909V166h-3.522v-25.398h-.171l-7.102 4.716v-3.579l7.273-4.83zM564.699 166v-2.557l9.602-10.511a67 67 0 0 0 2.784-3.21q1.093-1.379 1.62-2.586a6.3 6.3 0 0 0 .539-2.556q0-1.535-.738-2.657-.724-1.121-1.989-1.733-1.264-.61-2.841-.61-1.676 0-2.926.696a4.8 4.8 0 0 0-1.918 1.917q-.667 1.236-.667 2.898h-3.353q0-2.557 1.179-4.489a8.2 8.2 0 0 1 3.211-3.011q2.045-1.08 4.588-1.08 2.556 0 4.531 1.08t3.097 2.912 1.122 4.077q0 1.605-.583 3.139-.567 1.52-1.988 3.395-1.407 1.86-3.907 4.545l-6.534 6.989v.227h13.523V166z"/><path stroke="#fff" d="M263.5 235v33M384.5 683v33M25 267.5h238M145 715.5h240M24.5 235v33M144.5 683v33"/></svg>