<svg width="648" height="1159" viewBox="0 0 648 1159" fill="none" xmlns="http://www.w3.org/2000/svg">
<rect x="145" y="528" width="240" height="120" fill="#272727"/>
<path d="M145 932H52C37.0883 932 25 944.088 25 959V1025C25 1039.91 37.0883 1052 52 1052H145V932Z" fill="#272727"/>
<rect x="25" y="528" width="599" height="120" rx="26" stroke="#DBDBDB" stroke-width="2"/>
<rect x="25" y="932" width="599" height="120" rx="26" stroke="#DBDBDB" stroke-width="2"/>
<line x1="145" y1="527" x2="145" y2="649" stroke="#DBDBDB" stroke-width="2"/>
<line x1="145" y1="931" x2="145" y2="1053" stroke="#DBDBDB" stroke-width="2"/>
<line x1="265" y1="527" x2="265" y2="649" stroke="#DBDBDB" stroke-width="2"/>
<line x1="265" y1="931" x2="265" y2="1053" stroke="#DBDBDB" stroke-width="2"/>
<line x1="386" y1="527" x2="386" y2="649" stroke="#DBDBDB" stroke-width="2"/>
<line x1="386" y1="931" x2="386" y2="1053" stroke="#DBDBDB" stroke-width="2"/>
<line x1="506" y1="527" x2="506" y2="649" stroke="#DBDBDB" stroke-width="2"/>
<line x1="506" y1="931" x2="506" y2="1053" stroke="#DBDBDB" stroke-width="2"/>
<path d="M182.976 602V599.443L192.578 588.932C193.705 587.701 194.633 586.631 195.363 585.722C196.092 584.803 196.632 583.941 196.982 583.136C197.342 582.322 197.522 581.47 197.522 580.58C197.522 579.557 197.275 578.671 196.783 577.923C196.3 577.175 195.637 576.598 194.794 576.19C193.952 575.783 193.005 575.58 191.953 575.58C190.836 575.58 189.861 575.812 189.027 576.276C188.203 576.73 187.564 577.369 187.11 578.193C186.665 579.017 186.442 579.983 186.442 581.091H183.09C183.09 579.386 183.483 577.89 184.269 576.602C185.055 575.314 186.125 574.311 187.479 573.591C188.843 572.871 190.372 572.511 192.067 572.511C193.772 572.511 195.282 572.871 196.598 573.591C197.915 574.311 198.947 575.281 199.695 576.503C200.443 577.724 200.817 579.083 200.817 580.58C200.817 581.65 200.623 582.696 200.235 583.719C199.856 584.732 199.193 585.864 198.246 587.114C197.309 588.354 196.007 589.869 194.34 591.659L187.806 598.648V598.875H201.328V602H182.976ZM208.104 602L221.115 576.261V576.034H206.115V572.909H224.752V576.205L211.797 602H208.104Z" fill="white"/>
<path d="M182.976 1006V1003.44L192.578 992.932C193.705 991.701 194.633 990.631 195.363 989.722C196.092 988.803 196.632 987.941 196.982 987.136C197.342 986.322 197.522 985.47 197.522 984.58C197.522 983.557 197.275 982.671 196.783 981.923C196.3 981.175 195.637 980.598 194.794 980.19C193.952 979.783 193.005 979.58 191.953 979.58C190.836 979.58 189.861 979.812 189.027 980.276C188.203 980.73 187.564 981.369 187.11 982.193C186.665 983.017 186.442 983.983 186.442 985.091H183.09C183.09 983.386 183.483 981.89 184.269 980.602C185.055 979.314 186.125 978.311 187.479 977.591C188.843 976.871 190.372 976.511 192.067 976.511C193.772 976.511 195.282 976.871 196.598 977.591C197.915 978.311 198.947 979.281 199.695 980.503C200.443 981.724 200.817 983.083 200.817 984.58C200.817 985.65 200.623 986.696 200.235 987.719C199.856 988.732 199.193 989.864 198.246 991.114C197.309 992.354 196.007 993.869 194.34 995.659L187.806 1002.65V1002.88H201.328V1006H182.976ZM208.104 1006L221.115 980.261V980.034H206.115V976.909H224.752V980.205L211.797 1006H208.104Z" fill="white"/>
<path d="M75.9613 976.909V1006H72.4386V980.602H72.2681L65.1658 985.318V981.739L72.4386 976.909H75.9613ZM93.5891 976.511C94.7823 976.521 95.9755 976.748 97.1687 977.193C98.3619 977.638 99.4509 978.377 100.436 979.409C101.421 980.432 102.211 981.829 102.808 983.599C103.404 985.37 103.703 987.591 103.703 990.261C103.703 992.847 103.457 995.143 102.964 997.151C102.481 999.149 101.78 1000.83 100.862 1002.21C99.9528 1003.58 98.8448 1004.62 97.538 1005.33C96.2406 1006.04 94.7728 1006.4 93.1346 1006.4C91.5058 1006.4 90.0522 1006.08 88.7738 1005.43C87.5049 1004.78 86.4632 1003.87 85.6488 1002.72C84.8439 1001.55 84.3278 1000.2 84.1005 998.67H87.5664C87.8789 1000.01 88.4992 1001.11 89.4272 1001.98C90.3647 1002.84 91.6005 1003.27 93.1346 1003.27C95.3789 1003.27 97.1497 1002.29 98.4471 1000.33C99.7539 998.372 100.407 995.602 100.407 992.023H100.18C99.6497 992.818 99.02 993.505 98.2908 994.082C97.5617 994.66 96.752 995.105 95.8619 995.418C94.9717 995.73 94.0247 995.886 93.021 995.886C91.3543 995.886 89.8249 995.474 88.4329 994.651C87.0503 993.817 85.9424 992.676 85.109 991.227C84.2852 989.769 83.8732 988.102 83.8732 986.227C83.8732 984.447 84.271 982.818 85.0664 981.341C85.8713 979.854 86.9982 978.67 88.4471 977.79C89.9054 976.909 91.6194 976.483 93.5891 976.511ZM93.5891 979.636C92.396 979.636 91.3211 979.935 90.3647 980.531C89.4177 981.118 88.6649 981.914 88.1062 982.918C87.5569 983.912 87.2823 985.015 87.2823 986.227C87.2823 987.439 87.5475 988.543 88.0778 989.537C88.6175 990.522 89.3514 991.308 90.2795 991.895C91.217 992.473 92.2823 992.761 93.4755 992.761C94.3751 992.761 95.2132 992.586 95.9897 992.236C96.7662 991.876 97.4433 991.388 98.021 990.773C98.6081 990.148 99.0674 989.442 99.3988 988.656C99.7302 987.861 99.896 987.032 99.896 986.17C99.896 985.034 99.6213 983.969 99.0721 982.974C98.5323 981.98 97.7842 981.175 96.8278 980.56C95.8808 979.944 94.8013 979.636 93.5891 979.636Z" fill="white"/>
<path d="M301.572 596.034V593.136L314.356 572.909H316.458V577.398H315.038L305.379 592.682V592.909H322.594V596.034H301.572ZM315.265 602V595.153V593.804V572.909H318.617V602H315.265ZM328.827 602L341.838 576.261V576.034H326.838V572.909H345.474V576.205L332.52 602H328.827Z" fill="white"/>
<path d="M301.572 1000.03V997.136L314.356 976.909H316.458V981.398H315.038L305.379 996.682V996.909H322.594V1000.03H301.572ZM315.265 1006V999.153V997.804V976.909H318.617V1006H315.265ZM328.827 1006L341.838 980.261V980.034H326.838V976.909H345.474V980.205L332.52 1006H328.827Z" fill="white"/>
<path d="M432.497 602.398C430.622 602.398 428.951 602.076 427.483 601.432C426.025 600.788 424.865 599.893 424.003 598.747C423.151 597.592 422.687 596.252 422.611 594.727H426.19C426.266 595.665 426.588 596.474 427.156 597.156C427.724 597.829 428.468 598.349 429.386 598.719C430.305 599.088 431.323 599.273 432.44 599.273C433.69 599.273 434.798 599.055 435.764 598.619C436.73 598.184 437.488 597.578 438.037 596.801C438.586 596.025 438.861 595.125 438.861 594.102C438.861 593.032 438.596 592.09 438.065 591.276C437.535 590.452 436.759 589.808 435.736 589.344C434.713 588.88 433.463 588.648 431.986 588.648H429.656V585.523H431.986C433.141 585.523 434.154 585.314 435.026 584.898C435.906 584.481 436.593 583.894 437.085 583.136C437.587 582.379 437.838 581.489 437.838 580.466C437.838 579.481 437.62 578.624 437.185 577.895C436.749 577.166 436.134 576.598 435.338 576.19C434.552 575.783 433.624 575.58 432.554 575.58C431.55 575.58 430.603 575.764 429.713 576.134C428.832 576.493 428.113 577.019 427.554 577.71C426.995 578.392 426.692 579.216 426.645 580.182H423.236C423.293 578.657 423.752 577.322 424.614 576.176C425.475 575.021 426.602 574.121 427.994 573.477C429.396 572.833 430.935 572.511 432.611 572.511C434.41 572.511 435.954 572.876 437.241 573.605C438.529 574.325 439.519 575.277 440.21 576.46C440.902 577.644 441.247 578.922 441.247 580.295C441.247 581.934 440.816 583.33 439.955 584.486C439.102 585.641 437.942 586.441 436.474 586.886V587.114C438.312 587.417 439.746 588.198 440.778 589.457C441.811 590.707 442.327 592.256 442.327 594.102C442.327 595.684 441.896 597.104 441.034 598.364C440.182 599.614 439.017 600.598 437.54 601.318C436.063 602.038 434.382 602.398 432.497 602.398ZM448.136 602V599.443L457.739 588.932C458.866 587.701 459.794 586.631 460.523 585.722C461.252 584.803 461.792 583.941 462.142 583.136C462.502 582.322 462.682 581.47 462.682 580.58C462.682 579.557 462.436 578.671 461.943 577.923C461.46 577.175 460.797 576.598 459.955 576.19C459.112 575.783 458.165 575.58 457.114 575.58C455.996 575.58 455.021 575.812 454.188 576.276C453.364 576.73 452.724 577.369 452.27 578.193C451.825 579.017 451.602 579.983 451.602 581.091H448.25C448.25 579.386 448.643 577.89 449.429 576.602C450.215 575.314 451.285 574.311 452.639 573.591C454.003 572.871 455.532 572.511 457.227 572.511C458.932 572.511 460.442 572.871 461.759 573.591C463.075 574.311 464.107 575.281 464.855 576.503C465.603 577.724 465.977 579.083 465.977 580.58C465.977 581.65 465.783 582.696 465.395 583.719C465.016 584.732 464.353 585.864 463.406 587.114C462.469 588.354 461.167 589.869 459.5 591.659L452.966 598.648V598.875H466.489V602H448.136Z" fill="white"/>
<path d="M432.497 1006.4C430.622 1006.4 428.951 1006.08 427.483 1005.43C426.025 1004.79 424.865 1003.89 424.003 1002.75C423.151 1001.59 422.687 1000.25 422.611 998.727H426.19C426.266 999.665 426.588 1000.47 427.156 1001.16C427.724 1001.83 428.468 1002.35 429.386 1002.72C430.305 1003.09 431.323 1003.27 432.44 1003.27C433.69 1003.27 434.798 1003.05 435.764 1002.62C436.73 1002.18 437.488 1001.58 438.037 1000.8C438.586 1000.02 438.861 999.125 438.861 998.102C438.861 997.032 438.596 996.09 438.065 995.276C437.535 994.452 436.759 993.808 435.736 993.344C434.713 992.88 433.463 992.648 431.986 992.648H429.656V989.523H431.986C433.141 989.523 434.154 989.314 435.026 988.898C435.906 988.481 436.593 987.894 437.085 987.136C437.587 986.379 437.838 985.489 437.838 984.466C437.838 983.481 437.62 982.624 437.185 981.895C436.749 981.166 436.134 980.598 435.338 980.19C434.552 979.783 433.624 979.58 432.554 979.58C431.55 979.58 430.603 979.764 429.713 980.134C428.832 980.493 428.113 981.019 427.554 981.71C426.995 982.392 426.692 983.216 426.645 984.182H423.236C423.293 982.657 423.752 981.322 424.614 980.176C425.475 979.021 426.602 978.121 427.994 977.477C429.396 976.833 430.935 976.511 432.611 976.511C434.41 976.511 435.954 976.876 437.241 977.605C438.529 978.325 439.519 979.277 440.21 980.46C440.902 981.644 441.247 982.922 441.247 984.295C441.247 985.934 440.816 987.33 439.955 988.486C439.102 989.641 437.942 990.441 436.474 990.886V991.114C438.312 991.417 439.746 992.198 440.778 993.457C441.811 994.707 442.327 996.256 442.327 998.102C442.327 999.684 441.896 1001.1 441.034 1002.36C440.182 1003.61 439.017 1004.6 437.54 1005.32C436.063 1006.04 434.382 1006.4 432.497 1006.4ZM448.136 1006V1003.44L457.739 992.932C458.866 991.701 459.794 990.631 460.523 989.722C461.252 988.803 461.792 987.941 462.142 987.136C462.502 986.322 462.682 985.47 462.682 984.58C462.682 983.557 462.436 982.671 461.943 981.923C461.46 981.175 460.797 980.598 459.955 980.19C459.112 979.783 458.165 979.58 457.114 979.58C455.996 979.58 455.021 979.812 454.188 980.276C453.364 980.73 452.724 981.369 452.27 982.193C451.825 983.017 451.602 983.983 451.602 985.091H448.25C448.25 983.386 448.643 981.89 449.429 980.602C450.215 979.314 451.285 978.311 452.639 977.591C454.003 976.871 455.532 976.511 457.227 976.511C458.932 976.511 460.442 976.871 461.759 977.591C463.075 978.311 464.107 979.281 464.855 980.503C465.603 981.724 465.977 983.083 465.977 984.58C465.977 985.65 465.783 986.696 465.395 987.719C465.016 988.732 464.353 989.864 463.406 991.114C462.469 992.354 461.167 993.869 459.5 995.659L452.966 1002.65V1002.88H466.489V1006H448.136Z" fill="white"/>
<path d="M556.332 572.909V602H552.81V576.602H552.639L545.537 581.318V577.739L552.81 572.909H556.332ZM564.699 602V599.443L574.301 588.932C575.428 587.701 576.356 586.631 577.085 585.722C577.814 584.803 578.354 583.941 578.705 583.136C579.064 582.322 579.244 581.47 579.244 580.58C579.244 579.557 578.998 578.671 578.506 577.923C578.023 577.175 577.36 576.598 576.517 576.19C575.674 575.783 574.727 575.58 573.676 575.58C572.559 575.58 571.583 575.812 570.75 576.276C569.926 576.73 569.287 577.369 568.832 578.193C568.387 579.017 568.165 579.983 568.165 581.091H564.812C564.812 579.386 565.205 577.89 565.991 576.602C566.777 575.314 567.848 574.311 569.202 573.591C570.565 572.871 572.095 572.511 573.79 572.511C575.494 572.511 577.005 572.871 578.321 573.591C579.637 574.311 580.67 575.281 581.418 576.503C582.166 577.724 582.54 579.083 582.54 580.58C582.54 581.65 582.346 582.696 581.957 583.719C581.579 584.732 580.916 585.864 579.969 587.114C579.031 588.354 577.729 589.869 576.062 591.659L569.528 598.648V598.875H583.051V602H564.699Z" fill="white"/>
<path d="M556.332 976.909V1006H552.81V980.602H552.639L545.537 985.318V981.739L552.81 976.909H556.332ZM564.699 1006V1003.44L574.301 992.932C575.428 991.701 576.356 990.631 577.085 989.722C577.814 988.803 578.354 987.941 578.705 987.136C579.064 986.322 579.244 985.47 579.244 984.58C579.244 983.557 578.998 982.671 578.506 981.923C578.023 981.175 577.36 980.598 576.517 980.19C575.674 979.783 574.727 979.58 573.676 979.58C572.559 979.58 571.583 979.812 570.75 980.276C569.926 980.73 569.287 981.369 568.832 982.193C568.387 983.017 568.165 983.983 568.165 985.091H564.812C564.812 983.386 565.205 981.89 565.991 980.602C566.777 979.314 567.848 978.311 569.202 977.591C570.565 976.871 572.095 976.511 573.79 976.511C575.494 976.511 577.005 976.871 578.321 977.591C579.637 978.311 580.67 979.281 581.418 980.503C582.166 981.724 582.54 983.083 582.54 984.58C582.54 985.65 582.346 986.696 581.957 987.719C581.579 988.732 580.916 989.864 579.969 991.114C579.031 992.354 577.729 993.869 576.062 995.659L569.528 1002.65V1002.88H583.051V1006H564.699Z" fill="white"/>
<rect x="145" y="92" width="120" height="120" fill="#00266C"/>
<path d="M25 119C25 104.088 37.0883 92 52 92H145V212H52C37.0883 212 25 199.912 25 185V119Z" fill="#00266C"/>
<rect x="265" y="92" width="120" height="120" fill="#009966"/>
<path d="M216.743 24.2756C216.63 23.1297 216.142 22.2396 215.28 21.6051C214.418 20.9706 213.249 20.6534 211.772 20.6534C210.768 20.6534 209.92 20.7955 209.229 21.0795C208.538 21.3542 208.007 21.7377 207.638 22.2301C207.278 22.7225 207.098 23.2812 207.098 23.9062C207.079 24.4271 207.188 24.8816 207.425 25.2699C207.671 25.6581 208.007 25.9943 208.434 26.2784C208.86 26.553 209.352 26.7945 209.911 27.0028C210.47 27.2017 211.066 27.3722 211.701 27.5142L214.314 28.1392C215.583 28.4233 216.748 28.8021 217.809 29.2756C218.869 29.7491 219.788 30.3314 220.564 31.0227C221.341 31.714 221.942 32.5284 222.368 33.4659C222.804 34.4034 223.026 35.4782 223.036 36.6903C223.026 38.4706 222.572 40.0142 221.672 41.321C220.782 42.6184 219.494 43.6269 217.809 44.3466C216.132 45.0568 214.111 45.4119 211.743 45.4119C209.395 45.4119 207.349 45.0521 205.607 44.3324C203.874 43.6127 202.52 42.5473 201.544 41.1364C200.578 39.7159 200.072 37.9593 200.025 35.8665H205.976C206.042 36.8419 206.322 37.6562 206.814 38.3097C207.316 38.9536 207.984 39.4413 208.817 39.7727C209.66 40.0947 210.612 40.2557 211.672 40.2557C212.714 40.2557 213.618 40.1042 214.385 39.8011C215.162 39.4981 215.763 39.0767 216.189 38.5369C216.615 37.9972 216.828 37.3769 216.828 36.6761C216.828 36.0227 216.634 35.4735 216.246 35.0284C215.867 34.5833 215.309 34.2045 214.57 33.892C213.841 33.5795 212.946 33.2955 211.885 33.0398L208.718 32.2443C206.265 31.6477 204.328 30.715 202.908 29.446C201.488 28.1771 200.782 26.4678 200.792 24.3182C200.782 22.5568 201.251 21.018 202.198 19.7017C203.154 18.3854 204.466 17.358 206.132 16.6193C207.799 15.8807 209.693 15.5114 211.814 15.5114C213.973 15.5114 215.858 15.8807 217.468 16.6193C219.087 17.358 220.346 18.3854 221.246 19.7017C222.146 21.018 222.61 22.5426 222.638 24.2756H216.743ZM237.002 45.4261C234.758 45.4261 232.826 44.9716 231.207 44.0625C229.597 43.1439 228.357 41.8466 227.485 40.1705C226.614 38.4848 226.179 36.4915 226.179 34.1903C226.179 31.946 226.614 29.9763 227.485 28.2812C228.357 26.5862 229.583 25.2652 231.164 24.3182C232.755 23.3712 234.621 22.8977 236.761 22.8977C238.2 22.8977 239.54 23.1297 240.781 23.5938C242.031 24.0483 243.12 24.7348 244.048 25.6534C244.985 26.572 245.715 27.7273 246.235 29.1193C246.756 30.5019 247.017 32.1212 247.017 33.9773V35.6392H228.593V31.8892H241.321C241.321 31.018 241.131 30.2462 240.752 29.5739C240.374 28.9015 239.848 28.3759 239.176 27.9972C238.513 27.6089 237.741 27.4148 236.86 27.4148C235.942 27.4148 235.127 27.6278 234.417 28.054C233.717 28.4706 233.167 29.0341 232.77 29.7443C232.372 30.4451 232.168 31.2263 232.159 32.0881V35.6534C232.159 36.733 232.358 37.6657 232.755 38.4517C233.163 39.2377 233.735 39.8438 234.474 40.2699C235.213 40.696 236.089 40.9091 237.102 40.9091C237.774 40.9091 238.39 40.8144 238.949 40.625C239.507 40.4356 239.985 40.1515 240.383 39.7727C240.781 39.3939 241.084 38.9299 241.292 38.3807L246.889 38.75C246.605 40.0947 246.022 41.2689 245.142 42.2727C244.27 43.267 243.144 44.0436 241.761 44.6023C240.388 45.1515 238.802 45.4261 237.002 45.4261ZM260.824 45.4261C258.589 45.4261 256.666 44.9527 255.056 44.0057C253.456 43.0492 252.225 41.7235 251.363 40.0284C250.511 38.3333 250.085 36.3826 250.085 34.1761C250.085 31.9413 250.516 29.9811 251.377 28.2955C252.249 26.6004 253.484 25.2794 255.085 24.3324C256.685 23.3759 258.589 22.8977 260.795 22.8977C262.699 22.8977 264.365 23.2434 265.795 23.9347C267.225 24.6259 268.357 25.5966 269.19 26.8466C270.023 28.0966 270.483 29.5644 270.568 31.25H264.858C264.697 30.161 264.27 29.285 263.579 28.6222C262.897 27.9498 262.002 27.6136 260.895 27.6136C259.957 27.6136 259.138 27.8693 258.437 28.3807C257.746 28.8826 257.206 29.6165 256.818 30.5824C256.43 31.5483 256.235 32.7178 256.235 34.0909C256.235 35.483 256.425 36.6667 256.804 37.642C257.192 38.6174 257.736 39.3608 258.437 39.8722C259.138 40.3835 259.957 40.6392 260.895 40.6392C261.586 40.6392 262.206 40.4972 262.755 40.2131C263.314 39.929 263.773 39.517 264.133 38.9773C264.502 38.428 264.744 37.7699 264.858 37.0028H270.568C270.473 38.6695 270.019 40.1373 269.204 41.4062C268.399 42.6657 267.287 43.6506 265.866 44.3608C264.446 45.071 262.765 45.4261 260.824 45.4261ZM284.3 45.4261C282.094 45.4261 280.185 44.9574 278.576 44.0199C276.975 43.0729 275.739 41.7566 274.868 40.071C273.997 38.3759 273.561 36.411 273.561 34.1761C273.561 31.9223 273.997 29.9527 274.868 28.267C275.739 26.572 276.975 25.2557 278.576 24.3182C280.185 23.3712 282.094 22.8977 284.3 22.8977C286.507 22.8977 288.41 23.3712 290.01 24.3182C291.62 25.2557 292.861 26.572 293.732 28.267C294.603 29.9527 295.039 31.9223 295.039 34.1761C295.039 36.411 294.603 38.3759 293.732 40.071C292.861 41.7566 291.62 43.0729 290.01 44.0199C288.41 44.9574 286.507 45.4261 284.3 45.4261ZM284.328 40.7386C285.332 40.7386 286.17 40.4545 286.843 39.8864C287.515 39.3087 288.022 38.5227 288.363 37.5284C288.713 36.5341 288.888 35.4025 288.888 34.1335C288.888 32.8646 288.713 31.733 288.363 30.7386C288.022 29.7443 287.515 28.9583 286.843 28.3807C286.17 27.803 285.332 27.5142 284.328 27.5142C283.315 27.5142 282.463 27.803 281.772 28.3807C281.09 28.9583 280.574 29.7443 280.223 30.7386C279.882 31.733 279.712 32.8646 279.712 34.1335C279.712 35.4025 279.882 36.5341 280.223 37.5284C280.574 38.5227 281.09 39.3087 281.772 39.8864C282.463 40.4545 283.315 40.7386 284.328 40.7386ZM305.025 32.3864V45H298.973V23.1818H304.74V27.0312H304.996C305.479 25.7623 306.289 24.7585 307.425 24.0199C308.561 23.2718 309.939 22.8977 311.559 22.8977C313.074 22.8977 314.395 23.2292 315.522 23.892C316.649 24.5549 317.525 25.5019 318.15 26.733C318.775 27.9545 319.087 29.4129 319.087 31.108V45H313.036V32.1875C313.045 30.8523 312.704 29.8106 312.013 29.0625C311.322 28.3049 310.37 27.9261 309.158 27.9261C308.344 27.9261 307.624 28.1013 306.999 28.4517C306.383 28.8021 305.9 29.3134 305.55 29.9858C305.209 30.6487 305.034 31.4489 305.025 32.3864ZM331.896 45.3551C330.239 45.3551 328.738 44.929 327.393 44.0767C326.058 43.215 324.997 41.9508 324.211 40.2841C323.435 38.608 323.047 36.553 323.047 34.1193C323.047 31.6193 323.449 29.5407 324.254 27.8835C325.059 26.2169 326.129 24.9716 327.464 24.1477C328.809 23.3144 330.281 22.8977 331.882 22.8977C333.103 22.8977 334.121 23.1061 334.936 23.5227C335.76 23.9299 336.422 24.4413 336.924 25.0568C337.436 25.6629 337.824 26.2595 338.089 26.8466H338.274V15.9091H344.311V45H338.345V41.5057H338.089C337.805 42.1117 337.403 42.7131 336.882 43.3097C336.37 43.8968 335.703 44.3845 334.879 44.7727C334.065 45.161 333.07 45.3551 331.896 45.3551ZM333.814 40.5398C334.789 40.5398 335.613 40.2746 336.285 39.7443C336.967 39.2045 337.488 38.4517 337.848 37.4858C338.217 36.5199 338.402 35.3883 338.402 34.0909C338.402 32.7936 338.222 31.6667 337.862 30.7102C337.502 29.7538 336.981 29.0152 336.299 28.4943C335.618 27.9735 334.789 27.7131 333.814 27.7131C332.819 27.7131 331.981 27.983 331.299 28.5227C330.618 29.0625 330.101 29.8106 329.751 30.767C329.401 31.7235 329.225 32.8314 329.225 34.0909C329.225 35.3598 329.401 36.482 329.751 37.4574C330.111 38.4233 330.627 39.1809 331.299 39.7301C331.981 40.2699 332.819 40.5398 333.814 40.5398ZM358.657 45V15.9091H370.135C372.341 15.9091 374.221 16.3305 375.774 17.1733C377.327 18.0066 378.511 19.1667 379.325 20.6534C380.149 22.1307 380.561 23.8352 380.561 25.767C380.561 27.6989 380.144 29.4034 379.311 30.8807C378.477 32.358 377.27 33.5085 375.689 34.3324C374.117 35.1562 372.213 35.5682 369.978 35.5682H362.663V30.6392H368.984C370.168 30.6392 371.143 30.4356 371.91 30.0284C372.687 29.6117 373.264 29.0388 373.643 28.3097C374.031 27.571 374.225 26.7235 374.225 25.767C374.225 24.8011 374.031 23.9583 373.643 23.2386C373.264 22.5095 372.687 21.946 371.91 21.5483C371.134 21.1411 370.149 20.9375 368.956 20.9375H364.808V45H358.657ZM390.078 45.4119C388.686 45.4119 387.445 45.1705 386.356 44.6875C385.267 44.1951 384.405 43.4706 383.771 42.5142C383.146 41.5483 382.833 40.3456 382.833 38.9062C382.833 37.6941 383.056 36.6761 383.501 35.8523C383.946 35.0284 384.552 34.3655 385.319 33.8636C386.086 33.3617 386.958 32.983 387.933 32.7273C388.918 32.4716 389.95 32.2917 391.029 32.1875C392.298 32.0549 393.321 31.9318 394.098 31.8182C394.874 31.6951 395.438 31.5152 395.788 31.2784C396.138 31.0417 396.314 30.6913 396.314 30.2273V30.142C396.314 29.2424 396.029 28.5464 395.461 28.054C394.903 27.5616 394.107 27.3153 393.075 27.3153C391.986 27.3153 391.119 27.5568 390.475 28.0398C389.832 28.5133 389.405 29.1098 389.197 29.8295L383.6 29.375C383.885 28.0492 384.443 26.9034 385.277 25.9375C386.11 24.9621 387.185 24.214 388.501 23.6932C389.827 23.1629 391.361 22.8977 393.103 22.8977C394.315 22.8977 395.475 23.0398 396.583 23.3239C397.701 23.608 398.69 24.0483 399.552 24.6449C400.423 25.2415 401.11 26.0085 401.612 26.946C402.114 27.8741 402.365 28.9867 402.365 30.2841V45H396.626V41.9744H396.456C396.105 42.6562 395.636 43.2576 395.049 43.7784C394.462 44.2898 393.757 44.6922 392.933 44.9858C392.109 45.2699 391.157 45.4119 390.078 45.4119ZM391.811 41.2358C392.701 41.2358 393.487 41.0606 394.169 40.7102C394.85 40.3504 395.386 39.8674 395.774 39.2614C396.162 38.6553 396.356 37.9687 396.356 37.2017V34.8864C396.167 35.0095 395.906 35.1231 395.575 35.2273C395.253 35.322 394.888 35.4119 394.481 35.4972C394.074 35.5729 393.667 35.6439 393.26 35.7102C392.852 35.767 392.483 35.8191 392.152 35.8665C391.441 35.9706 390.821 36.1364 390.291 36.3636C389.761 36.5909 389.349 36.8987 389.055 37.2869C388.761 37.6657 388.615 38.1392 388.615 38.7074C388.615 39.5312 388.913 40.161 389.51 40.5966C390.116 41.0227 390.883 41.2358 391.811 41.2358ZM425.213 29.4034L419.673 29.7443C419.578 29.2708 419.375 28.8447 419.062 28.4659C418.75 28.0777 418.338 27.7699 417.826 27.5426C417.324 27.3059 416.723 27.1875 416.022 27.1875C415.085 27.1875 414.294 27.3864 413.65 27.7841C413.006 28.1723 412.684 28.6932 412.684 29.3466C412.684 29.8674 412.893 30.3078 413.309 30.6676C413.726 31.0275 414.441 31.3163 415.454 31.5341L419.403 32.3295C421.524 32.7652 423.106 33.4659 424.147 34.4318C425.189 35.3977 425.71 36.6667 425.71 38.2386C425.71 39.6686 425.288 40.9233 424.446 42.0028C423.612 43.0824 422.467 43.9252 421.008 44.5312C419.559 45.1278 417.888 45.4261 415.994 45.4261C413.106 45.4261 410.805 44.8248 409.091 43.6222C407.386 42.41 406.387 40.7623 406.093 38.679L412.045 38.3665C412.225 39.2472 412.661 39.9195 413.352 40.3835C414.043 40.8381 414.929 41.0653 416.008 41.0653C417.069 41.0653 417.921 40.8617 418.565 40.4545C419.218 40.0379 419.55 39.5028 419.559 38.8494C419.55 38.3002 419.318 37.8504 418.863 37.5C418.409 37.1402 417.708 36.8655 416.761 36.6761L412.983 35.9233C410.852 35.4972 409.266 34.7585 408.224 33.7074C407.192 32.6562 406.676 31.3163 406.676 29.6875C406.676 28.286 407.055 27.0786 407.812 26.0653C408.579 25.0521 409.654 24.2708 411.037 23.7216C412.429 23.1723 414.057 22.8977 415.923 22.8977C418.679 22.8977 420.847 23.4801 422.429 24.6449C424.02 25.8097 424.948 27.3958 425.213 29.4034ZM447.674 29.4034L442.134 29.7443C442.039 29.2708 441.836 28.8447 441.523 28.4659C441.211 28.0777 440.799 27.7699 440.287 27.5426C439.785 27.3059 439.184 27.1875 438.483 27.1875C437.546 27.1875 436.755 27.3864 436.111 27.7841C435.467 28.1723 435.145 28.6932 435.145 29.3466C435.145 29.8674 435.354 30.3078 435.77 30.6676C436.187 31.0275 436.902 31.3163 437.915 31.5341L441.864 32.3295C443.985 32.7652 445.567 33.4659 446.608 34.4318C447.65 35.3977 448.171 36.6667 448.171 38.2386C448.171 39.6686 447.749 40.9233 446.907 42.0028C446.073 43.0824 444.927 43.9252 443.469 44.5312C442.02 45.1278 440.349 45.4261 438.455 45.4261C435.567 45.4261 433.266 44.8248 431.551 43.6222C429.847 42.41 428.848 40.7623 428.554 38.679L434.506 38.3665C434.686 39.2472 435.122 39.9195 435.813 40.3835C436.504 40.8381 437.39 41.0653 438.469 41.0653C439.53 41.0653 440.382 40.8617 441.026 40.4545C441.679 40.0379 442.011 39.5028 442.02 38.8494C442.011 38.3002 441.779 37.8504 441.324 37.5C440.87 37.1402 440.169 36.8655 439.222 36.6761L435.444 35.9233C433.313 35.4972 431.727 34.7585 430.685 33.7074C429.653 32.6562 429.137 31.3163 429.137 29.6875C429.137 28.286 429.516 27.0786 430.273 26.0653C431.04 25.0521 432.115 24.2708 433.498 23.7216C434.89 23.1723 436.518 22.8977 438.384 22.8977C441.14 22.8977 443.308 23.4801 444.89 24.6449C446.48 25.8097 447.408 27.3958 447.674 29.4034Z" fill="white"/>
<rect x="25" y="92" width="599" height="120" rx="26" stroke="#DBDBDB" stroke-width="2"/>
<line x1="145" y1="91" x2="145" y2="213" stroke="#DBDBDB" stroke-width="2"/>
<line x1="265" y1="91" x2="265" y2="213" stroke="#DBDBDB" stroke-width="2"/>
<line x1="386" y1="91" x2="386" y2="213" stroke="#DBDBDB" stroke-width="2"/>
<line x1="506" y1="91" x2="506" y2="213" stroke="#DBDBDB" stroke-width="2"/>
<path d="M62.9762 166V163.443L72.5785 152.932C73.7054 151.701 74.6334 150.631 75.3626 149.722C76.0917 148.803 76.6315 147.941 76.9819 147.136C77.3417 146.322 77.5217 145.47 77.5217 144.58C77.5217 143.557 77.2755 142.671 76.783 141.923C76.3001 141.175 75.6372 140.598 74.7944 140.19C73.9516 139.783 73.0046 139.58 71.9535 139.58C70.8361 139.58 69.8607 139.812 69.0273 140.276C68.2035 140.73 67.5643 141.369 67.1097 142.193C66.6647 143.017 66.4421 143.983 66.4421 145.091H63.0898C63.0898 143.386 63.4828 141.89 64.2688 140.602C65.0548 139.314 66.1249 138.311 67.479 137.591C68.8427 136.871 70.372 136.511 72.0671 136.511C73.7717 136.511 75.2821 136.871 76.5984 137.591C77.9147 138.311 78.9469 139.281 79.695 140.503C80.4431 141.724 80.8171 143.083 80.8171 144.58C80.8171 145.65 80.623 146.696 80.2347 147.719C79.8559 148.732 79.1931 149.864 78.2461 151.114C77.3086 152.354 76.0065 153.869 74.3398 155.659L67.8058 162.648V162.875H81.3285V166H62.9762ZM88.104 166L101.115 140.261V140.034H86.1154V136.909H104.752V140.205L91.7972 166H88.104Z" fill="white"/>
<path d="M181.572 160.034V157.136L194.356 136.909H196.458V141.398H195.038L185.379 156.682V156.909H202.594V160.034H181.572ZM195.265 166V159.153V157.804V136.909H198.617V166H195.265ZM208.827 166L221.838 140.261V140.034H206.838V136.909H225.474V140.205L212.52 166H208.827Z" fill="white"/>
<path d="M314.961 136.909V166H311.439V140.602H311.268L304.166 145.318V141.739L311.439 136.909H314.961ZM332.589 136.511C333.782 136.521 334.975 136.748 336.169 137.193C337.362 137.638 338.451 138.377 339.436 139.409C340.421 140.432 341.211 141.829 341.808 143.599C342.404 145.37 342.703 147.591 342.703 150.261C342.703 152.847 342.457 155.143 341.964 157.151C341.481 159.149 340.78 160.834 339.862 162.207C338.953 163.58 337.845 164.622 336.538 165.332C335.241 166.043 333.773 166.398 332.135 166.398C330.506 166.398 329.052 166.076 327.774 165.432C326.505 164.778 325.463 163.874 324.649 162.719C323.844 161.554 323.328 160.205 323.1 158.67H326.566C326.879 160.006 327.499 161.109 328.427 161.98C329.365 162.842 330.6 163.273 332.135 163.273C334.379 163.273 336.15 162.293 337.447 160.332C338.754 158.372 339.407 155.602 339.407 152.023H339.18C338.65 152.818 338.02 153.505 337.291 154.082C336.562 154.66 335.752 155.105 334.862 155.418C333.972 155.73 333.025 155.886 332.021 155.886C330.354 155.886 328.825 155.474 327.433 154.651C326.05 153.817 324.942 152.676 324.109 151.227C323.285 149.769 322.873 148.102 322.873 146.227C322.873 144.447 323.271 142.818 324.066 141.341C324.871 139.854 325.998 138.67 327.447 137.79C328.905 136.909 330.619 136.483 332.589 136.511ZM332.589 139.636C331.396 139.636 330.321 139.935 329.365 140.531C328.418 141.118 327.665 141.914 327.106 142.918C326.557 143.912 326.282 145.015 326.282 146.227C326.282 147.439 326.547 148.543 327.078 149.537C327.618 150.522 328.351 151.308 329.279 151.895C330.217 152.473 331.282 152.761 332.475 152.761C333.375 152.761 334.213 152.586 334.99 152.236C335.766 151.876 336.443 151.388 337.021 150.773C337.608 150.148 338.067 149.442 338.399 148.656C338.73 147.861 338.896 147.032 338.896 146.17C338.896 145.034 338.621 143.969 338.072 142.974C337.532 141.98 336.784 141.175 335.828 140.56C334.881 139.944 333.801 139.636 332.589 139.636Z" fill="white"/>
<path d="M81.353 323V305H84.0249V307.719H84.2124C84.5405 306.828 85.1343 306.105 85.9937 305.551C86.853 304.996 87.8218 304.719 88.8999 304.719C89.103 304.719 89.3569 304.723 89.6616 304.73C89.9663 304.738 90.1968 304.75 90.353 304.766V307.578C90.2593 307.555 90.0444 307.52 89.7085 307.473C89.3804 307.418 89.0327 307.391 88.6655 307.391C87.7905 307.391 87.0093 307.574 86.3218 307.941C85.6421 308.301 85.103 308.801 84.7046 309.441C84.314 310.074 84.1187 310.797 84.1187 311.609V323H81.353ZM98.9282 323.422C97.7876 323.422 96.7524 323.207 95.8228 322.777C94.8931 322.34 94.1548 321.711 93.6079 320.891C93.061 320.063 92.7876 319.062 92.7876 317.891C92.7876 316.859 92.9907 316.023 93.397 315.383C93.8032 314.734 94.3462 314.227 95.0259 313.859C95.7056 313.492 96.4556 313.219 97.2759 313.039C98.104 312.852 98.936 312.703 99.772 312.594C100.866 312.453 101.752 312.348 102.432 312.277C103.12 312.199 103.62 312.07 103.932 311.891C104.252 311.711 104.413 311.398 104.413 310.953V310.859C104.413 309.703 104.096 308.805 103.463 308.164C102.838 307.523 101.889 307.203 100.616 307.203C99.2954 307.203 98.2603 307.492 97.5103 308.07C96.7603 308.648 96.2329 309.266 95.9282 309.922L93.3032 308.984C93.772 307.891 94.397 307.039 95.1782 306.43C95.9673 305.812 96.8267 305.383 97.7563 305.141C98.6938 304.891 99.6157 304.766 100.522 304.766C101.1 304.766 101.764 304.836 102.514 304.977C103.272 305.109 104.002 305.387 104.706 305.809C105.417 306.23 106.006 306.867 106.475 307.719C106.944 308.57 107.178 309.711 107.178 311.141V323H104.413V320.562H104.272C104.084 320.953 103.772 321.371 103.334 321.816C102.897 322.262 102.315 322.641 101.588 322.953C100.862 323.266 99.9751 323.422 98.9282 323.422ZM99.3501 320.938C100.444 320.938 101.366 320.723 102.116 320.293C102.874 319.863 103.444 319.309 103.827 318.629C104.217 317.949 104.413 317.234 104.413 316.484V313.953C104.295 314.094 104.038 314.223 103.639 314.34C103.249 314.449 102.795 314.547 102.28 314.633C101.772 314.711 101.276 314.781 100.792 314.844C100.315 314.898 99.9282 314.945 99.6313 314.984C98.9126 315.078 98.2407 315.23 97.6157 315.441C96.9985 315.645 96.4985 315.953 96.1157 316.367C95.7407 316.773 95.5532 317.328 95.5532 318.031C95.5532 318.992 95.9087 319.719 96.6196 320.211C97.3384 320.695 98.2485 320.938 99.3501 320.938ZM114.992 312.172V323H112.226V305H114.898V307.812H115.132C115.554 306.898 116.195 306.164 117.054 305.609C117.914 305.047 119.023 304.766 120.382 304.766C121.601 304.766 122.667 305.016 123.582 305.516C124.496 306.008 125.207 306.758 125.714 307.766C126.222 308.766 126.476 310.031 126.476 311.563V323H123.71V311.75C123.71 310.336 123.343 309.234 122.609 308.445C121.875 307.648 120.867 307.25 119.585 307.25C118.703 307.25 117.914 307.441 117.218 307.824C116.531 308.207 115.988 308.766 115.589 309.5C115.191 310.234 114.992 311.125 114.992 312.172ZM138.795 330.125C137.459 330.125 136.311 329.953 135.35 329.609C134.389 329.273 133.588 328.828 132.948 328.273C132.315 327.727 131.811 327.141 131.436 326.516L133.639 324.969C133.889 325.297 134.206 325.672 134.588 326.094C134.971 326.523 135.495 326.895 136.159 327.207C136.831 327.527 137.709 327.687 138.795 327.687C140.249 327.687 141.448 327.336 142.393 326.633C143.338 325.93 143.811 324.828 143.811 323.328V319.672H143.577C143.374 320 143.084 320.406 142.709 320.891C142.342 321.367 141.811 321.793 141.116 322.168C140.428 322.535 139.499 322.719 138.327 322.719C136.874 322.719 135.569 322.375 134.413 321.688C133.264 321 132.354 320 131.682 318.687C131.018 317.375 130.686 315.781 130.686 313.906C130.686 312.062 131.01 310.457 131.659 309.09C132.307 307.715 133.209 306.652 134.366 305.902C135.522 305.145 136.858 304.766 138.374 304.766C139.545 304.766 140.475 304.961 141.163 305.352C141.858 305.734 142.389 306.172 142.756 306.664C143.131 307.148 143.42 307.547 143.624 307.859H143.905V305H146.577V323.516C146.577 325.062 146.225 326.32 145.522 327.289C144.827 328.266 143.889 328.98 142.709 329.434C141.538 329.895 140.233 330.125 138.795 330.125ZM138.702 320.234C139.811 320.234 140.749 319.98 141.514 319.473C142.28 318.965 142.862 318.234 143.26 317.281C143.659 316.328 143.858 315.187 143.858 313.859C143.858 312.562 143.663 311.418 143.272 310.426C142.881 309.434 142.303 308.656 141.538 308.094C140.772 307.531 139.827 307.25 138.702 307.25C137.53 307.25 136.553 307.547 135.772 308.141C134.999 308.734 134.417 309.531 134.026 310.531C133.643 311.531 133.452 312.641 133.452 313.859C133.452 315.109 133.647 316.215 134.038 317.176C134.436 318.129 135.022 318.879 135.795 319.426C136.577 319.965 137.545 320.234 138.702 320.234ZM159.186 323.375C157.452 323.375 155.956 322.992 154.698 322.227C153.448 321.453 152.483 320.375 151.803 318.992C151.131 317.602 150.795 315.984 150.795 314.141C150.795 312.297 151.131 310.672 151.803 309.266C152.483 307.852 153.428 306.75 154.639 305.961C155.858 305.164 157.28 304.766 158.905 304.766C159.842 304.766 160.768 304.922 161.682 305.234C162.596 305.547 163.428 306.055 164.178 306.758C164.928 307.453 165.526 308.375 165.971 309.523C166.417 310.672 166.639 312.086 166.639 313.766V314.937H152.764V312.547H163.827C163.827 311.531 163.624 310.625 163.217 309.828C162.819 309.031 162.249 308.402 161.506 307.941C160.772 307.48 159.905 307.25 158.905 307.25C157.803 307.25 156.85 307.523 156.045 308.07C155.249 308.609 154.635 309.312 154.206 310.18C153.776 311.047 153.561 311.977 153.561 312.969V314.563C153.561 315.922 153.795 317.074 154.264 318.02C154.741 318.957 155.401 319.672 156.245 320.164C157.088 320.648 158.069 320.891 159.186 320.891C159.913 320.891 160.569 320.789 161.155 320.586C161.749 320.375 162.26 320.063 162.69 319.648C163.12 319.227 163.452 318.703 163.686 318.078L166.358 318.828C166.077 319.734 165.604 320.531 164.94 321.219C164.276 321.898 163.456 322.43 162.479 322.812C161.502 323.188 160.405 323.375 159.186 323.375ZM187.44 323.375C185.815 323.375 184.389 322.988 183.163 322.215C181.944 321.441 180.991 320.359 180.303 318.969C179.624 317.578 179.284 315.953 179.284 314.094C179.284 312.219 179.624 310.582 180.303 309.184C180.991 307.785 181.944 306.699 183.163 305.926C184.389 305.152 185.815 304.766 187.44 304.766C189.065 304.766 190.487 305.152 191.706 305.926C192.932 306.699 193.885 307.785 194.565 309.184C195.252 310.582 195.596 312.219 195.596 314.094C195.596 315.953 195.252 317.578 194.565 318.969C193.885 320.359 192.932 321.441 191.706 322.215C190.487 322.988 189.065 323.375 187.44 323.375ZM187.44 320.891C188.674 320.891 189.69 320.574 190.487 319.941C191.284 319.309 191.874 318.477 192.256 317.445C192.639 316.414 192.831 315.297 192.831 314.094C192.831 312.891 192.639 311.77 192.256 310.73C191.874 309.691 191.284 308.852 190.487 308.211C189.69 307.57 188.674 307.25 187.44 307.25C186.206 307.25 185.19 307.57 184.393 308.211C183.596 308.852 183.006 309.691 182.624 310.73C182.241 311.77 182.049 312.891 182.049 314.094C182.049 315.297 182.241 316.414 182.624 317.445C183.006 318.477 183.596 319.309 184.393 319.941C185.19 320.574 186.206 320.891 187.44 320.891ZM207.833 305V307.344H198.13V305H207.833ZM201.037 323V302.516C201.037 301.484 201.279 300.625 201.763 299.937C202.248 299.25 202.876 298.734 203.65 298.391C204.423 298.047 205.24 297.875 206.099 297.875C206.779 297.875 207.333 297.93 207.763 298.039C208.193 298.148 208.513 298.25 208.724 298.344L207.927 300.734C207.787 300.687 207.591 300.629 207.341 300.559C207.099 300.488 206.779 300.453 206.38 300.453C205.466 300.453 204.806 300.684 204.4 301.145C204.001 301.605 203.802 302.281 203.802 303.172V323H201.037ZM45.2373 352.172V363H42.4717V345H45.1436V347.812H45.3779C45.7998 346.898 46.4404 346.164 47.2998 345.609C48.1592 345.047 49.2686 344.766 50.6279 344.766C51.8467 344.766 52.9131 345.016 53.8271 345.516C54.7412 346.008 55.4521 346.758 55.96 347.766C56.4678 348.766 56.7217 350.031 56.7217 351.563V363H53.9561V351.75C53.9561 350.336 53.5889 349.234 52.8545 348.445C52.1201 347.648 51.1123 347.25 49.8311 347.25C48.9482 347.25 48.1592 347.441 47.4639 347.824C46.7764 348.207 46.2334 348.766 45.835 349.5C45.4365 350.234 45.2373 351.125 45.2373 352.172ZM73.1191 355.641V345H75.8848V363H73.1191V359.953H72.9316C72.5098 360.867 71.8535 361.645 70.9629 362.285C70.0723 362.918 68.9473 363.234 67.5879 363.234C66.4629 363.234 65.4629 362.988 64.5879 362.496C63.7129 361.996 63.0254 361.246 62.5254 360.246C62.0254 359.238 61.7754 357.969 61.7754 356.437V345H64.541V356.25C64.541 357.562 64.9082 358.609 65.6426 359.391C66.3848 360.172 67.3301 360.562 68.4785 360.562C69.166 360.562 69.8652 360.387 70.5762 360.035C71.2949 359.684 71.8965 359.145 72.3809 358.418C72.873 357.691 73.1191 356.766 73.1191 355.641ZM80.9502 363V345H83.6221V347.812H83.8564C84.2314 346.852 84.8369 346.105 85.6729 345.574C86.5088 345.035 87.5127 344.766 88.6846 344.766C89.8721 344.766 90.8604 345.035 91.6494 345.574C92.4463 346.105 93.0674 346.852 93.5127 347.812H93.7002C94.1611 346.883 94.8525 346.145 95.7744 345.598C96.6963 345.043 97.8018 344.766 99.0908 344.766C100.7 344.766 102.017 345.27 103.04 346.277C104.063 347.277 104.575 348.836 104.575 350.953V363H101.81V350.953C101.81 349.625 101.446 348.676 100.72 348.105C99.9932 347.535 99.1377 347.25 98.1533 347.25C96.8877 347.25 95.9072 347.633 95.2119 348.398C94.5166 349.156 94.1689 350.117 94.1689 351.281V363H91.3564V350.672C91.3564 349.648 91.0244 348.824 90.3604 348.199C89.6963 347.566 88.8408 347.25 87.7939 347.25C87.0752 347.25 86.4033 347.441 85.7783 347.824C85.1611 348.207 84.6611 348.738 84.2783 349.418C83.9033 350.09 83.7158 350.867 83.7158 351.75V363H80.9502ZM110.007 363V339H112.772V347.859H113.007C113.21 347.547 113.491 347.148 113.851 346.664C114.218 346.172 114.741 345.734 115.421 345.352C116.108 344.961 117.038 344.766 118.21 344.766C119.726 344.766 121.062 345.145 122.218 345.902C123.374 346.66 124.276 347.734 124.925 349.125C125.573 350.516 125.897 352.156 125.897 354.047C125.897 355.953 125.573 357.605 124.925 359.004C124.276 360.395 123.378 361.473 122.229 362.238C121.081 362.996 119.757 363.375 118.257 363.375C117.101 363.375 116.175 363.184 115.479 362.801C114.784 362.41 114.249 361.969 113.874 361.477C113.499 360.977 113.21 360.562 113.007 360.234H112.679V363H110.007ZM112.726 354C112.726 355.359 112.925 356.559 113.323 357.598C113.722 358.629 114.304 359.437 115.069 360.023C115.835 360.602 116.772 360.891 117.882 360.891C119.038 360.891 120.003 360.586 120.776 359.977C121.558 359.359 122.144 358.531 122.534 357.492C122.933 356.445 123.132 355.281 123.132 354C123.132 352.734 122.937 351.594 122.546 350.578C122.163 349.555 121.581 348.746 120.8 348.152C120.026 347.551 119.054 347.25 117.882 347.25C116.757 347.25 115.812 347.535 115.046 348.105C114.28 348.668 113.702 349.457 113.312 350.473C112.921 351.48 112.726 352.656 112.726 354ZM137.675 363.375C135.94 363.375 134.444 362.992 133.187 362.227C131.937 361.453 130.972 360.375 130.292 358.992C129.62 357.602 129.284 355.984 129.284 354.141C129.284 352.297 129.62 350.672 130.292 349.266C130.972 347.852 131.917 346.75 133.128 345.961C134.347 345.164 135.769 344.766 137.394 344.766C138.331 344.766 139.257 344.922 140.171 345.234C141.085 345.547 141.917 346.055 142.667 346.758C143.417 347.453 144.015 348.375 144.46 349.523C144.905 350.672 145.128 352.086 145.128 353.766V354.937H131.253V352.547H142.315C142.315 351.531 142.112 350.625 141.706 349.828C141.308 349.031 140.737 348.402 139.995 347.941C139.261 347.48 138.394 347.25 137.394 347.25C136.292 347.25 135.339 347.523 134.534 348.07C133.737 348.609 133.124 349.312 132.694 350.18C132.265 351.047 132.05 351.977 132.05 352.969V354.563C132.05 355.922 132.284 357.074 132.753 358.02C133.229 358.957 133.89 359.672 134.733 360.164C135.577 360.648 136.558 360.891 137.675 360.891C138.401 360.891 139.058 360.789 139.644 360.586C140.237 360.375 140.749 360.063 141.179 359.648C141.608 359.227 141.94 358.703 142.175 358.078L144.847 358.828C144.565 359.734 144.093 360.531 143.429 361.219C142.765 361.898 141.944 362.43 140.968 362.812C139.991 363.188 138.894 363.375 137.675 363.375ZM149.335 363V345H152.007V347.719H152.194C152.522 346.828 153.116 346.105 153.976 345.551C154.835 344.996 155.804 344.719 156.882 344.719C157.085 344.719 157.339 344.723 157.644 344.73C157.948 344.738 158.179 344.75 158.335 344.766V347.578C158.241 347.555 158.026 347.52 157.69 347.473C157.362 347.418 157.015 347.391 156.647 347.391C155.772 347.391 154.991 347.574 154.304 347.941C153.624 348.301 153.085 348.801 152.687 349.441C152.296 350.074 152.101 350.797 152.101 351.609V363H149.335ZM174.363 349.031L171.879 349.734C171.723 349.32 171.492 348.918 171.188 348.527C170.891 348.129 170.484 347.801 169.969 347.543C169.453 347.285 168.793 347.156 167.988 347.156C166.887 347.156 165.969 347.41 165.234 347.918C164.508 348.418 164.145 349.055 164.145 349.828C164.145 350.516 164.395 351.059 164.895 351.457C165.395 351.855 166.176 352.187 167.238 352.453L169.91 353.109C171.52 353.5 172.719 354.098 173.508 354.902C174.297 355.699 174.691 356.727 174.691 357.984C174.691 359.016 174.395 359.937 173.801 360.75C173.215 361.562 172.395 362.203 171.34 362.672C170.285 363.141 169.059 363.375 167.66 363.375C165.824 363.375 164.305 362.977 163.102 362.18C161.898 361.383 161.137 360.219 160.816 358.687L163.441 358.031C163.691 359 164.164 359.727 164.859 360.211C165.563 360.695 166.48 360.938 167.613 360.938C168.902 360.938 169.926 360.664 170.684 360.117C171.449 359.562 171.832 358.898 171.832 358.125C171.832 357.5 171.613 356.977 171.176 356.555C170.738 356.125 170.066 355.805 169.16 355.594L166.16 354.891C164.512 354.5 163.301 353.895 162.527 353.074C161.762 352.246 161.379 351.211 161.379 349.969C161.379 348.953 161.664 348.055 162.234 347.273C162.813 346.492 163.598 345.879 164.59 345.434C165.59 344.988 166.723 344.766 167.988 344.766C169.77 344.766 171.168 345.156 172.184 345.937C173.207 346.719 173.934 347.75 174.363 349.031ZM195.964 345V347.344H186.636V345H195.964ZM189.354 340.687H192.12V357.844C192.12 358.625 192.233 359.211 192.46 359.602C192.694 359.984 192.991 360.242 193.351 360.375C193.718 360.5 194.104 360.562 194.511 360.562C194.815 360.562 195.065 360.547 195.261 360.516C195.456 360.477 195.612 360.445 195.729 360.422L196.292 362.906C196.104 362.977 195.843 363.047 195.507 363.117C195.171 363.195 194.745 363.234 194.229 363.234C193.448 363.234 192.683 363.066 191.933 362.73C191.19 362.395 190.573 361.883 190.081 361.195C189.597 360.508 189.354 359.641 189.354 358.594V340.687ZM203.276 352.172V363H200.511V339H203.276V347.812H203.511C203.933 346.883 204.565 346.145 205.409 345.598C206.261 345.043 207.394 344.766 208.808 344.766C210.034 344.766 211.108 345.012 212.03 345.504C212.952 345.988 213.667 346.734 214.175 347.742C214.69 348.742 214.948 350.016 214.948 351.563V363H212.183V351.75C212.183 350.32 211.812 349.215 211.069 348.434C210.335 347.645 209.315 347.25 208.011 347.25C207.104 347.25 206.292 347.441 205.573 347.824C204.862 348.207 204.3 348.766 203.886 349.5C203.479 350.234 203.276 351.125 203.276 352.172ZM225.305 363.422C224.164 363.422 223.129 363.207 222.199 362.777C221.27 362.34 220.531 361.711 219.984 360.891C219.438 360.063 219.164 359.062 219.164 357.891C219.164 356.859 219.367 356.023 219.773 355.383C220.18 354.734 220.723 354.227 221.402 353.859C222.082 353.492 222.832 353.219 223.652 353.039C224.48 352.852 225.313 352.703 226.148 352.594C227.242 352.453 228.129 352.348 228.809 352.277C229.496 352.199 229.996 352.07 230.309 351.891C230.629 351.711 230.789 351.398 230.789 350.953V350.859C230.789 349.703 230.473 348.805 229.84 348.164C229.215 347.523 228.266 347.203 226.992 347.203C225.672 347.203 224.637 347.492 223.887 348.07C223.137 348.648 222.609 349.266 222.305 349.922L219.68 348.984C220.148 347.891 220.773 347.039 221.555 346.43C222.344 345.812 223.203 345.383 224.133 345.141C225.07 344.891 225.992 344.766 226.898 344.766C227.477 344.766 228.141 344.836 228.891 344.977C229.648 345.109 230.379 345.387 231.082 345.809C231.793 346.23 232.383 346.867 232.852 347.719C233.32 348.57 233.555 349.711 233.555 351.141V363H230.789V360.562H230.648C230.461 360.953 230.148 361.371 229.711 361.816C229.273 362.262 228.691 362.641 227.965 362.953C227.238 363.266 226.352 363.422 225.305 363.422ZM225.727 360.938C226.82 360.938 227.742 360.723 228.492 360.293C229.25 359.863 229.82 359.309 230.203 358.629C230.594 357.949 230.789 357.234 230.789 356.484V353.953C230.672 354.094 230.414 354.223 230.016 354.34C229.625 354.449 229.172 354.547 228.656 354.633C228.148 354.711 227.652 354.781 227.168 354.844C226.691 354.898 226.305 354.945 226.008 354.984C225.289 355.078 224.617 355.23 223.992 355.441C223.375 355.645 222.875 355.953 222.492 356.367C222.117 356.773 221.93 357.328 221.93 358.031C221.93 358.992 222.285 359.719 222.996 360.211C223.715 360.695 224.625 360.938 225.727 360.938ZM246.431 345V347.344H237.103V345H246.431ZM239.821 340.687H242.587V357.844C242.587 358.625 242.7 359.211 242.927 359.602C243.161 359.984 243.458 360.242 243.817 360.375C244.185 360.5 244.571 360.562 244.978 360.562C245.282 360.562 245.532 360.547 245.728 360.516C245.923 360.477 246.079 360.445 246.196 360.422L246.759 362.906C246.571 362.977 246.31 363.047 245.974 363.117C245.638 363.195 245.212 363.234 244.696 363.234C243.915 363.234 243.149 363.066 242.399 362.73C241.657 362.395 241.04 361.883 240.548 361.195C240.063 360.508 239.821 359.641 239.821 358.594V340.687ZM44.8521 379V403H41.9458V382.047H41.8052L35.9458 385.937V382.984L41.9458 379H44.8521ZM59.395 378.672C60.3794 378.68 61.3638 378.867 62.3481 379.234C63.3325 379.602 64.231 380.211 65.0435 381.062C65.856 381.906 66.5083 383.059 67.0005 384.52C67.4927 385.98 67.7388 387.812 67.7388 390.016C67.7388 392.148 67.5356 394.043 67.1294 395.699C66.731 397.348 66.1528 398.738 65.395 399.871C64.645 401.004 63.731 401.863 62.6528 402.449C61.5825 403.035 60.3716 403.328 59.02 403.328C57.6763 403.328 56.4771 403.062 55.4224 402.531C54.3755 401.992 53.5161 401.246 52.8442 400.293C52.1802 399.332 51.7544 398.219 51.5669 396.953H54.4263C54.6841 398.055 55.1958 398.965 55.9614 399.684C56.7349 400.395 57.7544 400.75 59.02 400.75C60.8716 400.75 62.3325 399.941 63.4028 398.324C64.481 396.707 65.02 394.422 65.02 391.469H64.8325C64.395 392.125 63.8755 392.691 63.2739 393.168C62.6724 393.645 62.0044 394.012 61.27 394.27C60.5356 394.527 59.7544 394.656 58.9263 394.656C57.5513 394.656 56.2896 394.316 55.1411 393.637C54.0005 392.949 53.0864 392.008 52.3989 390.812C51.7192 389.609 51.3794 388.234 51.3794 386.687C51.3794 385.219 51.7075 383.875 52.3638 382.656C53.0278 381.43 53.9575 380.453 55.1528 379.727C56.356 379 57.77 378.648 59.395 378.672ZM59.395 381.25C58.4106 381.25 57.5239 381.496 56.7349 381.988C55.9536 382.473 55.3325 383.129 54.8716 383.957C54.4185 384.777 54.1919 385.687 54.1919 386.687C54.1919 387.687 54.4106 388.598 54.8481 389.418C55.2935 390.23 55.8989 390.879 56.6646 391.363C57.438 391.84 58.3169 392.078 59.3013 392.078C60.0435 392.078 60.7349 391.934 61.3755 391.645C62.0161 391.348 62.5747 390.945 63.0513 390.437C63.5356 389.922 63.9146 389.34 64.188 388.691C64.4614 388.035 64.5981 387.352 64.5981 386.641C64.5981 385.703 64.3716 384.824 63.9185 384.004C63.4731 383.184 62.856 382.52 62.0669 382.012C61.2856 381.504 60.395 381.25 59.395 381.25ZM81.6753 403V385H84.4409V403H81.6753ZM83.0815 382C82.5425 382 82.0776 381.816 81.687 381.449C81.3042 381.082 81.1128 380.641 81.1128 380.125C81.1128 379.609 81.3042 379.168 81.687 378.801C82.0776 378.434 82.5425 378.25 83.0815 378.25C83.6206 378.25 84.0815 378.434 84.4644 378.801C84.855 379.168 85.0503 379.609 85.0503 380.125C85.0503 380.641 84.855 381.082 84.4644 381.449C84.0815 381.816 83.6206 382 83.0815 382ZM102.256 389.031L99.772 389.734C99.6157 389.32 99.3853 388.918 99.0806 388.527C98.7837 388.129 98.3774 387.801 97.8618 387.543C97.3462 387.285 96.686 387.156 95.8813 387.156C94.7798 387.156 93.8618 387.41 93.1274 387.918C92.4009 388.418 92.0376 389.055 92.0376 389.828C92.0376 390.516 92.2876 391.059 92.7876 391.457C93.2876 391.855 94.0688 392.187 95.1313 392.453L97.8032 393.109C99.4126 393.5 100.612 394.098 101.401 394.902C102.19 395.699 102.584 396.727 102.584 397.984C102.584 399.016 102.288 399.937 101.694 400.75C101.108 401.562 100.288 402.203 99.2329 402.672C98.1782 403.141 96.9517 403.375 95.5532 403.375C93.7173 403.375 92.1978 402.977 90.9946 402.18C89.7915 401.383 89.0298 400.219 88.7095 398.687L91.3345 398.031C91.5845 399 92.0571 399.727 92.7524 400.211C93.4556 400.695 94.3735 400.938 95.5063 400.938C96.7954 400.938 97.8188 400.664 98.5767 400.117C99.3423 399.562 99.7251 398.898 99.7251 398.125C99.7251 397.5 99.5063 396.977 99.0688 396.555C98.6313 396.125 97.9595 395.805 97.0532 395.594L94.0532 394.891C92.4048 394.5 91.1938 393.895 90.4204 393.074C89.6548 392.246 89.272 391.211 89.272 389.969C89.272 388.953 89.5571 388.055 90.1274 387.273C90.7056 386.492 91.4907 385.879 92.4829 385.434C93.4829 384.988 94.6157 384.766 95.8813 384.766C97.6626 384.766 99.061 385.156 100.077 385.937C101.1 386.719 101.827 387.75 102.256 389.031ZM118.794 379V403H116.029V379H118.794ZM131.407 403.375C129.672 403.375 128.176 402.992 126.918 402.227C125.668 401.453 124.704 400.375 124.024 398.992C123.352 397.602 123.016 395.984 123.016 394.141C123.016 392.297 123.352 390.672 124.024 389.266C124.704 387.852 125.649 386.75 126.86 385.961C128.079 385.164 129.5 384.766 131.125 384.766C132.063 384.766 132.989 384.922 133.903 385.234C134.817 385.547 135.649 386.055 136.399 386.758C137.149 387.453 137.747 388.375 138.192 389.523C138.637 390.672 138.86 392.086 138.86 393.766V394.937H124.985V392.547H136.047C136.047 391.531 135.844 390.625 135.438 389.828C135.04 389.031 134.469 388.402 133.727 387.941C132.993 387.48 132.125 387.25 131.125 387.25C130.024 387.25 129.071 387.523 128.266 388.07C127.469 388.609 126.856 389.312 126.426 390.18C125.997 391.047 125.782 391.977 125.782 392.969V394.563C125.782 395.922 126.016 397.074 126.485 398.02C126.961 398.957 127.622 399.672 128.465 400.164C129.309 400.648 130.29 400.891 131.407 400.891C132.133 400.891 132.79 400.789 133.375 400.586C133.969 400.375 134.481 400.063 134.911 399.648C135.34 399.227 135.672 398.703 135.907 398.078L138.579 398.828C138.297 399.734 137.825 400.531 137.161 401.219C136.497 401.898 135.676 402.43 134.7 402.812C133.723 403.188 132.625 403.375 131.407 403.375ZM155.817 389.031L153.333 389.734C153.176 389.32 152.946 388.918 152.641 388.527C152.344 388.129 151.938 387.801 151.422 387.543C150.907 387.285 150.247 387.156 149.442 387.156C148.34 387.156 147.422 387.41 146.688 387.918C145.961 388.418 145.598 389.055 145.598 389.828C145.598 390.516 145.848 391.059 146.348 391.457C146.848 391.855 147.629 392.187 148.692 392.453L151.364 393.109C152.973 393.5 154.172 394.098 154.961 394.902C155.75 395.699 156.145 396.727 156.145 397.984C156.145 399.016 155.848 399.937 155.254 400.75C154.668 401.562 153.848 402.203 152.793 402.672C151.739 403.141 150.512 403.375 149.114 403.375C147.278 403.375 145.758 402.977 144.555 402.18C143.352 401.383 142.59 400.219 142.27 398.687L144.895 398.031C145.145 399 145.618 399.727 146.313 400.211C147.016 400.695 147.934 400.938 149.067 400.938C150.356 400.938 151.379 400.664 152.137 400.117C152.903 399.562 153.286 398.898 153.286 398.125C153.286 397.5 153.067 396.977 152.629 396.555C152.192 396.125 151.52 395.805 150.614 395.594L147.614 394.891C145.965 394.5 144.754 393.895 143.981 393.074C143.215 392.246 142.833 391.211 142.833 389.969C142.833 388.953 143.118 388.055 143.688 387.273C144.266 386.492 145.051 385.879 146.043 385.434C147.043 384.988 148.176 384.766 149.442 384.766C151.223 384.766 152.622 385.156 153.637 385.937C154.661 386.719 155.387 387.75 155.817 389.031ZM173.058 389.031L170.574 389.734C170.417 389.32 170.187 388.918 169.882 388.527C169.585 388.129 169.179 387.801 168.664 387.543C168.148 387.285 167.488 387.156 166.683 387.156C165.582 387.156 164.664 387.41 163.929 387.918C163.203 388.418 162.839 389.055 162.839 389.828C162.839 390.516 163.089 391.059 163.589 391.457C164.089 391.855 164.871 392.187 165.933 392.453L168.605 393.109C170.214 393.5 171.414 394.098 172.203 394.902C172.992 395.699 173.386 396.727 173.386 397.984C173.386 399.016 173.089 399.937 172.496 400.75C171.91 401.562 171.089 402.203 170.035 402.672C168.98 403.141 167.753 403.375 166.355 403.375C164.519 403.375 163 402.977 161.796 402.18C160.593 401.383 159.832 400.219 159.511 398.687L162.136 398.031C162.386 399 162.859 399.727 163.554 400.211C164.257 400.695 165.175 400.938 166.308 400.938C167.597 400.938 168.621 400.664 169.378 400.117C170.144 399.562 170.527 398.898 170.527 398.125C170.527 397.5 170.308 396.977 169.871 396.555C169.433 396.125 168.761 395.805 167.855 395.594L164.855 394.891C163.207 394.5 161.996 393.895 161.222 393.074C160.457 392.246 160.074 391.211 160.074 389.969C160.074 388.953 160.359 388.055 160.929 387.273C161.507 386.492 162.292 385.879 163.285 385.434C164.285 384.988 165.417 384.766 166.683 384.766C168.464 384.766 169.863 385.156 170.878 385.937C171.902 386.719 172.628 387.75 173.058 389.031ZM194.659 385V387.344H185.331V385H194.659ZM188.049 380.687H190.815V397.844C190.815 398.625 190.928 399.211 191.155 399.602C191.389 399.984 191.686 400.242 192.045 400.375C192.413 400.5 192.799 400.562 193.206 400.562C193.51 400.562 193.76 400.547 193.956 400.516C194.151 400.477 194.307 400.445 194.424 400.422L194.987 402.906C194.799 402.977 194.538 403.047 194.202 403.117C193.866 403.195 193.44 403.234 192.924 403.234C192.143 403.234 191.377 403.066 190.627 402.73C189.885 402.395 189.268 401.883 188.776 401.195C188.292 400.508 188.049 399.641 188.049 398.594V380.687ZM201.971 392.172V403H199.206V379H201.971V387.812H202.206C202.627 386.883 203.26 386.145 204.104 385.598C204.956 385.043 206.088 384.766 207.502 384.766C208.729 384.766 209.803 385.012 210.725 385.504C211.647 385.988 212.362 386.734 212.87 387.742C213.385 388.742 213.643 390.016 213.643 391.563V403H210.877V391.75C210.877 390.32 210.506 389.215 209.764 388.434C209.03 387.645 208.01 387.25 206.706 387.25C205.799 387.25 204.987 387.441 204.268 387.824C203.557 388.207 202.995 388.766 202.581 389.5C202.174 390.234 201.971 391.125 201.971 392.172ZM224 403.422C222.859 403.422 221.824 403.207 220.894 402.777C219.964 402.34 219.226 401.711 218.679 400.891C218.132 400.063 217.859 399.062 217.859 397.891C217.859 396.859 218.062 396.023 218.468 395.383C218.875 394.734 219.417 394.227 220.097 393.859C220.777 393.492 221.527 393.219 222.347 393.039C223.175 392.852 224.007 392.703 224.843 392.594C225.937 392.453 226.824 392.348 227.503 392.277C228.191 392.199 228.691 392.07 229.003 391.891C229.324 391.711 229.484 391.398 229.484 390.953V390.859C229.484 389.703 229.167 388.805 228.535 388.164C227.91 387.523 226.96 387.203 225.687 387.203C224.367 387.203 223.332 387.492 222.582 388.07C221.832 388.648 221.304 389.266 221 389.922L218.375 388.984C218.843 387.891 219.468 387.039 220.25 386.43C221.039 385.812 221.898 385.383 222.828 385.141C223.765 384.891 224.687 384.766 225.593 384.766C226.171 384.766 226.835 384.836 227.585 384.977C228.343 385.109 229.074 385.387 229.777 385.809C230.488 386.23 231.078 386.867 231.546 387.719C232.015 388.57 232.25 389.711 232.25 391.141V403H229.484V400.562H229.343C229.156 400.953 228.843 401.371 228.406 401.816C227.968 402.262 227.386 402.641 226.66 402.953C225.933 403.266 225.046 403.422 224 403.422ZM224.421 400.938C225.515 400.938 226.437 400.723 227.187 400.293C227.945 399.863 228.515 399.309 228.898 398.629C229.289 397.949 229.484 397.234 229.484 396.484V393.953C229.367 394.094 229.109 394.223 228.71 394.34C228.32 394.449 227.867 394.547 227.351 394.633C226.843 394.711 226.347 394.781 225.863 394.844C225.386 394.898 225 394.945 224.703 394.984C223.984 395.078 223.312 395.23 222.687 395.441C222.07 395.645 221.57 395.953 221.187 396.367C220.812 396.773 220.625 397.328 220.625 398.031C220.625 398.992 220.98 399.719 221.691 400.211C222.41 400.695 223.32 400.938 224.421 400.938ZM240.063 392.172V403H237.297V385H239.969V387.812H240.204C240.625 386.898 241.266 386.164 242.125 385.609C242.985 385.047 244.094 384.766 245.454 384.766C246.672 384.766 247.739 385.016 248.653 385.516C249.567 386.008 250.278 386.758 250.786 387.766C251.293 388.766 251.547 390.031 251.547 391.563V403H248.782V391.75C248.782 390.336 248.415 389.234 247.68 388.445C246.946 387.648 245.938 387.25 244.657 387.25C243.774 387.25 242.985 387.441 242.29 387.824C241.602 388.207 241.059 388.766 240.661 389.5C240.262 390.234 240.063 391.125 240.063 392.172Z" fill="white"/>
<path d="M153.849 753C153.708 751.812 153.138 750.891 152.138 750.234C151.138 749.578 149.912 749.25 148.458 749.25C147.396 749.25 146.466 749.422 145.669 749.766C144.88 750.109 144.263 750.582 143.818 751.184C143.38 751.785 143.162 752.469 143.162 753.234C143.162 753.875 143.314 754.426 143.619 754.887C143.931 755.34 144.33 755.719 144.814 756.023C145.298 756.32 145.806 756.566 146.337 756.762C146.869 756.949 147.357 757.102 147.802 757.219L150.24 757.875C150.865 758.039 151.56 758.266 152.326 758.555C153.099 758.844 153.837 759.238 154.541 759.738C155.251 760.23 155.837 760.863 156.298 761.637C156.759 762.41 156.99 763.359 156.99 764.484C156.99 765.781 156.65 766.953 155.97 768C155.298 769.047 154.314 769.879 153.017 770.496C151.728 771.113 150.162 771.422 148.318 771.422C146.599 771.422 145.111 771.145 143.853 770.59C142.603 770.035 141.619 769.262 140.9 768.27C140.189 767.277 139.787 766.125 139.693 764.812H142.693C142.771 765.719 143.076 766.469 143.607 767.062C144.146 767.648 144.826 768.086 145.646 768.375C146.474 768.656 147.365 768.797 148.318 768.797C149.427 768.797 150.423 768.617 151.306 768.258C152.189 767.891 152.888 767.383 153.404 766.734C153.919 766.078 154.177 765.313 154.177 764.437C154.177 763.641 153.955 762.992 153.509 762.492C153.064 761.992 152.478 761.586 151.751 761.273C151.025 760.961 150.24 760.687 149.396 760.453L146.443 759.609C144.568 759.07 143.083 758.301 141.99 757.301C140.896 756.301 140.349 754.992 140.349 753.375C140.349 752.031 140.712 750.859 141.439 749.859C142.173 748.852 143.158 748.07 144.392 747.516C145.634 746.953 147.021 746.672 148.552 746.672C150.099 746.672 151.474 746.949 152.677 747.504C153.88 748.051 154.833 748.801 155.537 749.754C156.248 750.707 156.623 751.789 156.662 753H153.849ZM164.159 760.172V771H161.393V747H164.159V755.812H164.393C164.815 754.883 165.448 754.145 166.292 753.598C167.143 753.043 168.276 752.766 169.69 752.766C170.917 752.766 171.991 753.012 172.913 753.504C173.834 753.988 174.549 754.734 175.057 755.742C175.573 756.742 175.831 758.016 175.831 759.563V771H173.065V759.75C173.065 758.32 172.694 757.215 171.952 756.434C171.217 755.645 170.198 755.25 168.893 755.25C167.987 755.25 167.174 755.441 166.456 755.824C165.745 756.207 165.182 756.766 164.768 757.5C164.362 758.234 164.159 759.125 164.159 760.172ZM180.89 771V753H183.656V771H180.89ZM182.296 750C181.757 750 181.292 749.816 180.902 749.449C180.519 749.082 180.328 748.641 180.328 748.125C180.328 747.609 180.519 747.168 180.902 746.801C181.292 746.434 181.757 746.25 182.296 746.25C182.835 746.25 183.296 746.434 183.679 746.801C184.07 747.168 184.265 747.609 184.265 748.125C184.265 748.641 184.07 749.082 183.679 749.449C183.296 749.816 182.835 750 182.296 750ZM196.737 753V755.344H187.034V753H196.737ZM189.94 771V750.516C189.94 749.484 190.182 748.625 190.667 747.937C191.151 747.25 191.78 746.734 192.553 746.391C193.327 746.047 194.143 745.875 195.002 745.875C195.682 745.875 196.237 745.93 196.667 746.039C197.096 746.148 197.417 746.25 197.627 746.344L196.831 748.734C196.69 748.687 196.495 748.629 196.245 748.559C196.002 748.488 195.682 748.453 195.284 748.453C194.37 748.453 193.709 748.684 193.303 749.145C192.905 749.605 192.706 750.281 192.706 751.172V771H189.94ZM208.441 753V755.344H199.113V753H208.441ZM201.832 748.687H204.597V765.844C204.597 766.625 204.71 767.211 204.937 767.602C205.171 767.984 205.468 768.242 205.828 768.375C206.195 768.5 206.582 768.562 206.988 768.562C207.292 768.562 207.542 768.547 207.738 768.516C207.933 768.477 208.089 768.445 208.207 768.422L208.769 770.906C208.582 770.977 208.32 771.047 207.984 771.117C207.648 771.195 207.222 771.234 206.707 771.234C205.925 771.234 205.16 771.066 204.41 770.73C203.667 770.395 203.05 769.883 202.558 769.195C202.074 768.508 201.832 767.641 201.832 766.594V748.687ZM229.71 753V755.344H220.382V753H229.71ZM223.101 748.687H225.867V765.844C225.867 766.625 225.98 767.211 226.207 767.602C226.441 767.984 226.738 768.242 227.097 768.375C227.464 768.5 227.851 768.562 228.257 768.562C228.562 768.562 228.812 768.547 229.007 768.516C229.203 768.477 229.359 768.445 229.476 768.422L230.039 770.906C229.851 770.977 229.589 771.047 229.253 771.117C228.917 771.195 228.492 771.234 227.976 771.234C227.195 771.234 226.429 771.066 225.679 770.73C224.937 770.395 224.32 769.883 223.828 769.195C223.343 768.508 223.101 767.641 223.101 766.594V748.687ZM240.99 771.375C239.365 771.375 237.939 770.988 236.712 770.215C235.494 769.441 234.541 768.359 233.853 766.969C233.173 765.578 232.833 763.953 232.833 762.094C232.833 760.219 233.173 758.582 233.853 757.184C234.541 755.785 235.494 754.699 236.712 753.926C237.939 753.152 239.365 752.766 240.99 752.766C242.615 752.766 244.037 753.152 245.255 753.926C246.482 754.699 247.435 755.785 248.115 757.184C248.802 758.582 249.146 760.219 249.146 762.094C249.146 763.953 248.802 765.578 248.115 766.969C247.435 768.359 246.482 769.441 245.255 770.215C244.037 770.988 242.615 771.375 240.99 771.375ZM240.99 768.891C242.224 768.891 243.24 768.574 244.037 767.941C244.833 767.309 245.423 766.477 245.806 765.445C246.189 764.414 246.38 763.297 246.38 762.094C246.38 760.891 246.189 759.77 245.806 758.73C245.423 757.691 244.833 756.852 244.037 756.211C243.24 755.57 242.224 755.25 240.99 755.25C239.755 755.25 238.74 755.57 237.943 756.211C237.146 756.852 236.556 757.691 236.173 758.73C235.791 759.77 235.599 760.891 235.599 762.094C235.599 763.297 235.791 764.414 236.173 765.445C236.556 766.477 237.146 767.309 237.943 767.941C238.74 768.574 239.755 768.891 240.99 768.891ZM270.477 753V755.344H261.149V753H270.477ZM263.868 748.687H266.633V765.844C266.633 766.625 266.747 767.211 266.973 767.602C267.208 767.984 267.504 768.242 267.864 768.375C268.231 768.5 268.618 768.562 269.024 768.562C269.329 768.562 269.579 768.547 269.774 768.516C269.969 768.477 270.125 768.445 270.243 768.422L270.805 770.906C270.618 770.977 270.356 771.047 270.02 771.117C269.684 771.195 269.258 771.234 268.743 771.234C267.961 771.234 267.196 771.066 266.446 770.73C265.704 770.395 265.086 769.883 264.594 769.195C264.11 768.508 263.868 767.641 263.868 766.594V748.687ZM277.79 760.172V771H275.024V747H277.79V755.812H278.024C278.446 754.883 279.079 754.145 279.922 753.598C280.774 753.043 281.907 752.766 283.321 752.766C284.547 752.766 285.622 753.012 286.543 753.504C287.465 753.988 288.18 754.734 288.688 755.742C289.204 756.742 289.461 758.016 289.461 759.563V771H286.696V759.75C286.696 758.32 286.325 757.215 285.583 756.434C284.848 755.645 283.829 755.25 282.524 755.25C281.618 755.25 280.805 755.441 280.086 755.824C279.375 756.207 278.813 756.766 278.399 757.5C277.993 758.234 277.79 759.125 277.79 760.172ZM302.068 771.375C300.333 771.375 298.837 770.992 297.58 770.227C296.33 769.453 295.365 768.375 294.685 766.992C294.013 765.602 293.677 763.984 293.677 762.141C293.677 760.297 294.013 758.672 294.685 757.266C295.365 755.852 296.31 754.75 297.521 753.961C298.74 753.164 300.162 752.766 301.787 752.766C302.724 752.766 303.65 752.922 304.564 753.234C305.478 753.547 306.31 754.055 307.06 754.758C307.81 755.453 308.408 756.375 308.853 757.523C309.298 758.672 309.521 760.086 309.521 761.766V762.937H295.646V760.547H306.708C306.708 759.531 306.505 758.625 306.099 757.828C305.701 757.031 305.13 756.402 304.388 755.941C303.654 755.48 302.787 755.25 301.787 755.25C300.685 755.25 299.732 755.523 298.927 756.07C298.13 756.609 297.517 757.312 297.087 758.18C296.658 759.047 296.443 759.977 296.443 760.969V762.563C296.443 763.922 296.677 765.074 297.146 766.02C297.623 766.957 298.283 767.672 299.126 768.164C299.97 768.648 300.951 768.891 302.068 768.891C302.794 768.891 303.451 768.789 304.037 768.586C304.63 768.375 305.142 768.063 305.572 767.648C306.001 767.227 306.333 766.703 306.568 766.078L309.24 766.828C308.958 767.734 308.486 768.531 307.822 769.219C307.158 769.898 306.337 770.43 305.361 770.812C304.384 771.188 303.287 771.375 302.068 771.375ZM323.009 771V753H325.681V755.719H325.869C326.197 754.828 326.791 754.105 327.65 753.551C328.509 752.996 329.478 752.719 330.556 752.719C330.759 752.719 331.013 752.723 331.318 752.73C331.623 752.738 331.853 752.75 332.009 752.766V755.578C331.916 755.555 331.701 755.52 331.365 755.473C331.037 755.418 330.689 755.391 330.322 755.391C329.447 755.391 328.666 755.574 327.978 755.941C327.298 756.301 326.759 756.801 326.361 757.441C325.97 758.074 325.775 758.797 325.775 759.609V771H323.009ZM335.288 771V753H338.053V771H335.288ZM336.694 750C336.155 750 335.69 749.816 335.299 749.449C334.917 749.082 334.725 748.641 334.725 748.125C334.725 747.609 334.917 747.168 335.299 746.801C335.69 746.434 336.155 746.25 336.694 746.25C337.233 746.25 337.694 746.434 338.077 746.801C338.467 747.168 338.663 747.609 338.663 748.125C338.663 748.641 338.467 749.082 338.077 749.449C337.694 749.816 337.233 750 336.694 750ZM350.384 778.125C349.048 778.125 347.9 777.953 346.939 777.609C345.978 777.273 345.177 776.828 344.537 776.273C343.904 775.727 343.4 775.141 343.025 774.516L345.228 772.969C345.478 773.297 345.794 773.672 346.177 774.094C346.56 774.523 347.083 774.895 347.748 775.207C348.419 775.527 349.298 775.687 350.384 775.687C351.837 775.687 353.037 775.336 353.982 774.633C354.927 773.93 355.4 772.828 355.4 771.328V767.672H355.166C354.962 768 354.673 768.406 354.298 768.891C353.931 769.367 353.4 769.793 352.705 770.168C352.017 770.535 351.087 770.719 349.916 770.719C348.462 770.719 347.158 770.375 346.001 769.688C344.853 769 343.943 768 343.271 766.687C342.607 765.375 342.275 763.781 342.275 761.906C342.275 760.062 342.599 758.457 343.248 757.09C343.896 755.715 344.798 754.652 345.955 753.902C347.111 753.145 348.447 752.766 349.962 752.766C351.134 752.766 352.064 752.961 352.751 753.352C353.447 753.734 353.978 754.172 354.345 754.664C354.72 755.148 355.009 755.547 355.212 755.859H355.494V753H358.166V771.516C358.166 773.062 357.814 774.32 357.111 775.289C356.416 776.266 355.478 776.98 354.298 777.434C353.126 777.895 351.822 778.125 350.384 778.125ZM350.291 768.234C351.4 768.234 352.337 767.98 353.103 767.473C353.869 766.965 354.451 766.234 354.849 765.281C355.248 764.328 355.447 763.187 355.447 761.859C355.447 760.562 355.251 759.418 354.861 758.426C354.47 757.434 353.892 756.656 353.126 756.094C352.361 755.531 351.416 755.25 350.291 755.25C349.119 755.25 348.142 755.547 347.361 756.141C346.587 756.734 346.005 757.531 345.615 758.531C345.232 759.531 345.041 760.641 345.041 761.859C345.041 763.109 345.236 764.215 345.626 765.176C346.025 766.129 346.611 766.879 347.384 767.426C348.166 767.965 349.134 768.234 350.291 768.234ZM365.994 760.172V771H363.228V747H365.994V755.812H366.228C366.65 754.883 367.283 754.145 368.126 753.598C368.978 753.043 370.111 752.766 371.525 752.766C372.751 752.766 373.826 753.012 374.748 753.504C375.669 753.988 376.384 754.734 376.892 755.742C377.408 756.742 377.666 758.016 377.666 759.563V771H374.9V759.75C374.9 758.32 374.529 757.215 373.787 756.434C373.052 755.645 372.033 755.25 370.728 755.25C369.822 755.25 369.009 755.441 368.291 755.824C367.58 756.207 367.017 756.766 366.603 757.5C366.197 758.234 365.994 759.125 365.994 760.172ZM390.553 753V755.344H381.225V753H390.553ZM383.944 748.687H386.709V765.844C386.709 766.625 386.823 767.211 387.049 767.602C387.284 767.984 387.581 768.242 387.94 768.375C388.307 768.5 388.694 768.562 389.1 768.562C389.405 768.562 389.655 768.547 389.85 768.516C390.045 768.477 390.202 768.445 390.319 768.422L390.881 770.906C390.694 770.977 390.432 771.047 390.096 771.117C389.76 771.195 389.334 771.234 388.819 771.234C388.038 771.234 387.272 771.066 386.522 770.73C385.78 770.395 385.163 769.883 384.67 769.195C384.186 768.508 383.944 767.641 383.944 766.594V748.687Z" fill="white"/>
<path d="M160.059 1087V1111H157.153V1087H160.059ZM168.277 1100.17V1111H165.511V1093H168.183V1095.81H168.417C168.839 1094.9 169.48 1094.16 170.339 1093.61C171.199 1093.05 172.308 1092.77 173.667 1092.77C174.886 1092.77 175.953 1093.02 176.867 1093.52C177.781 1094.01 178.492 1094.76 179 1095.77C179.507 1096.77 179.761 1098.03 179.761 1099.56V1111H176.996V1099.75C176.996 1098.34 176.628 1097.23 175.894 1096.45C175.16 1095.65 174.152 1095.25 172.871 1095.25C171.988 1095.25 171.199 1095.44 170.503 1095.82C169.816 1096.21 169.273 1096.77 168.875 1097.5C168.476 1098.23 168.277 1099.12 168.277 1100.17ZM197.565 1097.03L195.081 1097.73C194.924 1097.32 194.694 1096.92 194.389 1096.53C194.092 1096.13 193.686 1095.8 193.17 1095.54C192.655 1095.29 191.995 1095.16 191.19 1095.16C190.088 1095.16 189.17 1095.41 188.436 1095.92C187.709 1096.42 187.346 1097.05 187.346 1097.83C187.346 1098.52 187.596 1099.06 188.096 1099.46C188.596 1099.86 189.377 1100.19 190.44 1100.45L193.112 1101.11C194.721 1101.5 195.92 1102.1 196.709 1102.9C197.499 1103.7 197.893 1104.73 197.893 1105.98C197.893 1107.02 197.596 1107.94 197.002 1108.75C196.417 1109.56 195.596 1110.2 194.542 1110.67C193.487 1111.14 192.26 1111.38 190.862 1111.38C189.026 1111.38 187.506 1110.98 186.303 1110.18C185.1 1109.38 184.338 1108.22 184.018 1106.69L186.643 1106.03C186.893 1107 187.366 1107.73 188.061 1108.21C188.764 1108.7 189.682 1108.94 190.815 1108.94C192.104 1108.94 193.127 1108.66 193.885 1108.12C194.651 1107.56 195.034 1106.9 195.034 1106.12C195.034 1105.5 194.815 1104.98 194.377 1104.55C193.94 1104.12 193.268 1103.8 192.362 1103.59L189.362 1102.89C187.713 1102.5 186.502 1101.89 185.729 1101.07C184.963 1100.25 184.581 1099.21 184.581 1097.97C184.581 1096.95 184.866 1096.05 185.436 1095.27C186.014 1094.49 186.799 1093.88 187.792 1093.43C188.792 1092.99 189.924 1092.77 191.19 1092.77C192.971 1092.77 194.37 1093.16 195.385 1093.94C196.409 1094.72 197.135 1095.75 197.565 1097.03ZM209.603 1111.38C207.869 1111.38 206.373 1110.99 205.115 1110.23C203.865 1109.45 202.9 1108.37 202.22 1106.99C201.548 1105.6 201.212 1103.98 201.212 1102.14C201.212 1100.3 201.548 1098.67 202.22 1097.27C202.9 1095.85 203.845 1094.75 205.056 1093.96C206.275 1093.16 207.697 1092.77 209.322 1092.77C210.259 1092.77 211.185 1092.92 212.099 1093.23C213.013 1093.55 213.845 1094.05 214.595 1094.76C215.345 1095.45 215.943 1096.37 216.388 1097.52C216.833 1098.67 217.056 1100.09 217.056 1101.77V1102.94H203.181V1100.55H214.244C214.244 1099.53 214.041 1098.62 213.634 1097.83C213.236 1097.03 212.666 1096.4 211.923 1095.94C211.189 1095.48 210.322 1095.25 209.322 1095.25C208.22 1095.25 207.267 1095.52 206.462 1096.07C205.666 1096.61 205.052 1097.31 204.623 1098.18C204.193 1099.05 203.978 1099.98 203.978 1100.97V1102.56C203.978 1103.92 204.212 1105.07 204.681 1106.02C205.158 1106.96 205.818 1107.67 206.662 1108.16C207.505 1108.65 208.486 1108.89 209.603 1108.89C210.33 1108.89 210.986 1108.79 211.572 1108.59C212.166 1108.37 212.677 1108.06 213.107 1107.65C213.537 1107.23 213.869 1106.7 214.103 1106.08L216.775 1106.83C216.494 1107.73 216.021 1108.53 215.357 1109.22C214.693 1109.9 213.873 1110.43 212.896 1110.81C211.919 1111.19 210.822 1111.38 209.603 1111.38ZM221.263 1111V1093H223.935V1095.72H224.123C224.451 1094.83 225.044 1094.11 225.904 1093.55C226.763 1093 227.732 1092.72 228.81 1092.72C229.013 1092.72 229.267 1092.72 229.572 1092.73C229.876 1092.74 230.107 1092.75 230.263 1092.77V1095.58C230.169 1095.55 229.955 1095.52 229.619 1095.47C229.291 1095.42 228.943 1095.39 228.576 1095.39C227.701 1095.39 226.919 1095.57 226.232 1095.94C225.552 1096.3 225.013 1096.8 224.615 1097.44C224.224 1098.07 224.029 1098.8 224.029 1099.61V1111H221.263ZM242.498 1093V1095.34H233.169V1093H242.498ZM235.888 1088.69H238.654V1105.84C238.654 1106.62 238.767 1107.21 238.994 1107.6C239.228 1107.98 239.525 1108.24 239.884 1108.38C240.251 1108.5 240.638 1108.56 241.044 1108.56C241.349 1108.56 241.599 1108.55 241.794 1108.52C241.99 1108.48 242.146 1108.45 242.263 1108.42L242.826 1110.91C242.638 1110.98 242.376 1111.05 242.041 1111.12C241.705 1111.2 241.279 1111.23 240.763 1111.23C239.982 1111.23 239.216 1111.07 238.466 1110.73C237.724 1110.39 237.107 1109.88 236.615 1109.2C236.13 1108.51 235.888 1107.64 235.888 1106.59V1088.69ZM264.33 1087V1111H261.423V1090.05H261.283L255.423 1093.94V1090.98L261.423 1087H264.33ZM278.873 1086.67C279.857 1086.68 280.841 1086.87 281.826 1087.23C282.81 1087.6 283.708 1088.21 284.521 1089.06C285.333 1089.91 285.986 1091.06 286.478 1092.52C286.97 1093.98 287.216 1095.81 287.216 1098.02C287.216 1100.15 287.013 1102.04 286.607 1103.7C286.208 1105.35 285.63 1106.74 284.873 1107.87C284.123 1109 283.208 1109.86 282.13 1110.45C281.06 1111.04 279.849 1111.33 278.498 1111.33C277.154 1111.33 275.955 1111.06 274.9 1110.53C273.853 1109.99 272.994 1109.25 272.322 1108.29C271.658 1107.33 271.232 1106.22 271.044 1104.95H273.904C274.162 1106.05 274.673 1106.96 275.439 1107.68C276.212 1108.39 277.232 1108.75 278.498 1108.75C280.349 1108.75 281.81 1107.94 282.88 1106.32C283.958 1104.71 284.498 1102.42 284.498 1099.47H284.31C283.873 1100.12 283.353 1100.69 282.751 1101.17C282.15 1101.64 281.482 1102.01 280.748 1102.27C280.013 1102.53 279.232 1102.66 278.404 1102.66C277.029 1102.66 275.767 1102.32 274.619 1101.64C273.478 1100.95 272.564 1100.01 271.876 1098.81C271.197 1097.61 270.857 1096.23 270.857 1094.69C270.857 1093.22 271.185 1091.87 271.841 1090.66C272.505 1089.43 273.435 1088.45 274.63 1087.73C275.833 1087 277.248 1086.65 278.873 1086.67ZM278.873 1089.25C277.888 1089.25 277.001 1089.5 276.212 1089.99C275.431 1090.47 274.81 1091.13 274.349 1091.96C273.896 1092.78 273.669 1093.69 273.669 1094.69C273.669 1095.69 273.888 1096.6 274.326 1097.42C274.771 1098.23 275.376 1098.88 276.142 1099.36C276.916 1099.84 277.794 1100.08 278.779 1100.08C279.521 1100.08 280.212 1099.93 280.853 1099.64C281.494 1099.35 282.052 1098.95 282.529 1098.44C283.013 1097.92 283.392 1097.34 283.666 1096.69C283.939 1096.04 284.076 1095.35 284.076 1094.64C284.076 1093.7 283.849 1092.82 283.396 1092C282.951 1091.18 282.333 1090.52 281.544 1090.01C280.763 1089.5 279.873 1089.25 278.873 1089.25ZM301.153 1111V1093H303.918V1111H301.153ZM302.559 1090C302.02 1090 301.555 1089.82 301.165 1089.45C300.782 1089.08 300.59 1088.64 300.59 1088.13C300.59 1087.61 300.782 1087.17 301.165 1086.8C301.555 1086.43 302.02 1086.25 302.559 1086.25C303.098 1086.25 303.559 1086.43 303.942 1086.8C304.333 1087.17 304.528 1087.61 304.528 1088.13C304.528 1088.64 304.333 1089.08 303.942 1089.45C303.559 1089.82 303.098 1090 302.559 1090ZM311.75 1100.17V1111H308.984V1093H311.656V1095.81H311.89C312.312 1094.9 312.953 1094.16 313.812 1093.61C314.671 1093.05 315.781 1092.77 317.14 1092.77C318.359 1092.77 319.425 1093.02 320.339 1093.52C321.253 1094.01 321.964 1094.76 322.472 1095.77C322.98 1096.77 323.234 1098.03 323.234 1099.56V1111H320.468V1099.75C320.468 1098.34 320.101 1097.23 319.367 1096.45C318.632 1095.65 317.625 1095.25 316.343 1095.25C315.46 1095.25 314.671 1095.44 313.976 1095.82C313.289 1096.21 312.746 1096.77 312.347 1097.5C311.949 1098.23 311.75 1099.12 311.75 1100.17ZM345.397 1093V1095.34H336.069V1093H345.397ZM338.788 1088.69H341.553V1105.84C341.553 1106.62 341.667 1107.21 341.893 1107.6C342.127 1107.98 342.424 1108.24 342.784 1108.38C343.151 1108.5 343.538 1108.56 343.944 1108.56C344.249 1108.56 344.499 1108.55 344.694 1108.52C344.889 1108.48 345.045 1108.45 345.163 1108.42L345.725 1110.91C345.538 1110.98 345.276 1111.05 344.94 1111.12C344.604 1111.2 344.178 1111.23 343.663 1111.23C342.881 1111.23 342.116 1111.07 341.366 1110.73C340.624 1110.39 340.006 1109.88 339.514 1109.2C339.03 1108.51 338.788 1107.64 338.788 1106.59V1088.69ZM352.709 1100.17V1111H349.944V1087H352.709V1095.81H352.944C353.366 1094.88 353.999 1094.14 354.842 1093.6C355.694 1093.04 356.827 1092.77 358.241 1092.77C359.467 1092.77 360.542 1093.01 361.463 1093.5C362.385 1093.99 363.1 1094.73 363.608 1095.74C364.124 1096.74 364.381 1098.02 364.381 1099.56V1111H361.616V1099.75C361.616 1098.32 361.245 1097.21 360.502 1096.43C359.768 1095.64 358.749 1095.25 357.444 1095.25C356.538 1095.25 355.725 1095.44 355.006 1095.82C354.295 1096.21 353.733 1096.77 353.319 1097.5C352.913 1098.23 352.709 1099.12 352.709 1100.17ZM376.988 1111.38C375.253 1111.38 373.757 1110.99 372.5 1110.23C371.25 1109.45 370.285 1108.37 369.605 1106.99C368.933 1105.6 368.597 1103.98 368.597 1102.14C368.597 1100.3 368.933 1098.67 369.605 1097.27C370.285 1095.85 371.23 1094.75 372.441 1093.96C373.66 1093.16 375.082 1092.77 376.707 1092.77C377.644 1092.77 378.57 1092.92 379.484 1093.23C380.398 1093.55 381.23 1094.05 381.98 1094.76C382.73 1095.45 383.328 1096.37 383.773 1097.52C384.218 1098.67 384.441 1100.09 384.441 1101.77V1102.94H370.566V1100.55H381.628C381.628 1099.53 381.425 1098.62 381.019 1097.83C380.621 1097.03 380.05 1096.4 379.308 1095.94C378.574 1095.48 377.707 1095.25 376.707 1095.25C375.605 1095.25 374.652 1095.52 373.847 1096.07C373.05 1096.61 372.437 1097.31 372.007 1098.18C371.578 1099.05 371.363 1099.98 371.363 1100.97V1102.56C371.363 1103.92 371.597 1105.07 372.066 1106.02C372.542 1106.96 373.203 1107.67 374.046 1108.16C374.89 1108.65 375.871 1108.89 376.988 1108.89C377.714 1108.89 378.371 1108.79 378.957 1108.59C379.55 1108.37 380.062 1108.06 380.492 1107.65C380.921 1107.23 381.253 1106.7 381.488 1106.08L384.16 1106.83C383.878 1107.73 383.406 1108.53 382.742 1109.22C382.078 1109.9 381.257 1110.43 380.281 1110.81C379.304 1111.19 378.207 1111.38 376.988 1111.38ZM405.476 1111.38C403.742 1111.38 402.246 1110.99 400.988 1110.23C399.738 1109.45 398.773 1108.37 398.093 1106.99C397.421 1105.6 397.085 1103.98 397.085 1102.14C397.085 1100.3 397.421 1098.67 398.093 1097.27C398.773 1095.85 399.718 1094.75 400.929 1093.96C402.148 1093.16 403.57 1092.77 405.195 1092.77C406.132 1092.77 407.058 1092.92 407.972 1093.23C408.886 1093.55 409.718 1094.05 410.468 1094.76C411.218 1095.45 411.816 1096.37 412.261 1097.52C412.707 1098.67 412.929 1100.09 412.929 1101.77V1102.94H399.054V1100.55H410.117C410.117 1099.53 409.914 1098.62 409.507 1097.83C409.109 1097.03 408.539 1096.4 407.796 1095.94C407.062 1095.48 406.195 1095.25 405.195 1095.25C404.093 1095.25 403.14 1095.52 402.335 1096.07C401.539 1096.61 400.925 1097.31 400.496 1098.18C400.066 1099.05 399.851 1099.98 399.851 1100.97V1102.56C399.851 1103.92 400.085 1105.07 400.554 1106.02C401.031 1106.96 401.691 1107.67 402.535 1108.16C403.378 1108.65 404.359 1108.89 405.476 1108.89C406.203 1108.89 406.859 1108.79 407.445 1108.59C408.039 1108.37 408.55 1108.06 408.98 1107.65C409.41 1107.23 409.742 1106.7 409.976 1106.08L412.648 1106.83C412.367 1107.73 411.894 1108.53 411.23 1109.22C410.566 1109.9 409.746 1110.43 408.769 1110.81C407.792 1111.19 406.695 1111.38 405.476 1111.38ZM417.136 1111V1093H419.808V1095.81H420.042C420.417 1094.85 421.023 1094.11 421.859 1093.57C422.695 1093.04 423.699 1092.77 424.871 1092.77C426.058 1092.77 427.046 1093.04 427.835 1093.57C428.632 1094.11 429.253 1094.85 429.699 1095.81H429.886C430.347 1094.88 431.039 1094.14 431.96 1093.6C432.882 1093.04 433.988 1092.77 435.277 1092.77C436.886 1092.77 438.203 1093.27 439.226 1094.28C440.25 1095.28 440.761 1096.84 440.761 1098.95V1111H437.996V1098.95C437.996 1097.62 437.632 1096.68 436.906 1096.11C436.179 1095.54 435.324 1095.25 434.339 1095.25C433.074 1095.25 432.093 1095.63 431.398 1096.4C430.703 1097.16 430.355 1098.12 430.355 1099.28V1111H427.542V1098.67C427.542 1097.65 427.21 1096.82 426.546 1096.2C425.882 1095.57 425.027 1095.25 423.98 1095.25C423.261 1095.25 422.589 1095.44 421.964 1095.82C421.347 1096.21 420.847 1096.74 420.464 1097.42C420.089 1098.09 419.902 1098.87 419.902 1099.75V1111H417.136ZM445.818 1117.75V1093H448.49V1095.86H448.818C449.021 1095.55 449.302 1095.15 449.662 1094.66C450.029 1094.17 450.552 1093.73 451.232 1093.35C451.919 1092.96 452.849 1092.77 454.021 1092.77C455.537 1092.77 456.873 1093.14 458.029 1093.9C459.185 1094.66 460.087 1095.73 460.736 1097.12C461.384 1098.52 461.708 1100.16 461.708 1102.05C461.708 1103.95 461.384 1105.61 460.736 1107C460.087 1108.39 459.189 1109.47 458.041 1110.24C456.892 1111 455.568 1111.38 454.068 1111.38C452.912 1111.38 451.986 1111.18 451.291 1110.8C450.595 1110.41 450.06 1109.97 449.685 1109.48C449.31 1108.98 449.021 1108.56 448.818 1108.23H448.583V1117.75H445.818ZM448.537 1102C448.537 1103.36 448.736 1104.56 449.134 1105.6C449.533 1106.63 450.115 1107.44 450.88 1108.02C451.646 1108.6 452.583 1108.89 453.693 1108.89C454.849 1108.89 455.814 1108.59 456.587 1107.98C457.369 1107.36 457.955 1106.53 458.345 1105.49C458.744 1104.45 458.943 1103.28 458.943 1102C458.943 1100.73 458.748 1099.59 458.357 1098.58C457.974 1097.55 457.392 1096.75 456.611 1096.15C455.837 1095.55 454.865 1095.25 453.693 1095.25C452.568 1095.25 451.623 1095.54 450.857 1096.11C450.091 1096.67 449.513 1097.46 449.123 1098.47C448.732 1099.48 448.537 1100.66 448.537 1102ZM473.755 1093V1095.34H464.427V1093H473.755ZM467.146 1088.69H469.912V1105.84C469.912 1106.62 470.025 1107.21 470.251 1107.6C470.486 1107.98 470.783 1108.24 471.142 1108.38C471.509 1108.5 471.896 1108.56 472.302 1108.56C472.607 1108.56 472.857 1108.55 473.052 1108.52C473.248 1108.48 473.404 1108.45 473.521 1108.42L474.083 1110.91C473.896 1110.98 473.634 1111.05 473.298 1111.12C472.962 1111.2 472.537 1111.23 472.021 1111.23C471.24 1111.23 470.474 1111.07 469.724 1110.73C468.982 1110.39 468.365 1109.88 467.873 1109.2C467.388 1108.51 467.146 1107.64 467.146 1106.59V1088.69ZM479.697 1117.75C479.228 1117.75 478.81 1117.71 478.443 1117.63C478.076 1117.56 477.822 1117.49 477.681 1117.42L478.384 1114.98C479.056 1115.16 479.65 1115.22 480.166 1115.17C480.681 1115.12 481.138 1114.89 481.537 1114.48C481.943 1114.07 482.314 1113.41 482.65 1112.5L483.166 1111.09L476.509 1093H479.509L484.478 1107.34H484.666L489.634 1093H492.634L484.994 1113.62C484.65 1114.55 484.224 1115.32 483.716 1115.93C483.208 1116.55 482.619 1117.01 481.947 1117.3C481.283 1117.6 480.533 1117.75 479.697 1117.75ZM310.906 1137.03L308.421 1137.73C308.265 1137.32 308.035 1136.92 307.73 1136.53C307.433 1136.13 307.027 1135.8 306.511 1135.54C305.996 1135.29 305.335 1135.16 304.531 1135.16C303.429 1135.16 302.511 1135.41 301.777 1135.92C301.05 1136.42 300.687 1137.05 300.687 1137.83C300.687 1138.52 300.937 1139.06 301.437 1139.46C301.937 1139.86 302.718 1140.19 303.781 1140.45L306.453 1141.11C308.062 1141.5 309.261 1142.1 310.05 1142.9C310.839 1143.7 311.234 1144.73 311.234 1145.98C311.234 1147.02 310.937 1147.94 310.343 1148.75C309.757 1149.56 308.937 1150.2 307.882 1150.67C306.828 1151.14 305.601 1151.38 304.203 1151.38C302.367 1151.38 300.847 1150.98 299.644 1150.18C298.441 1149.38 297.679 1148.22 297.359 1146.69L299.984 1146.03C300.234 1147 300.707 1147.73 301.402 1148.21C302.105 1148.7 303.023 1148.94 304.156 1148.94C305.445 1148.94 306.468 1148.66 307.226 1148.12C307.992 1147.56 308.375 1146.9 308.375 1146.12C308.375 1145.5 308.156 1144.98 307.718 1144.55C307.281 1144.12 306.609 1143.8 305.703 1143.59L302.703 1142.89C301.054 1142.5 299.843 1141.89 299.07 1141.07C298.304 1140.25 297.921 1139.21 297.921 1137.97C297.921 1136.95 298.207 1136.05 298.777 1135.27C299.355 1134.49 300.14 1133.88 301.132 1133.43C302.132 1132.99 303.265 1132.77 304.531 1132.77C306.312 1132.77 307.71 1133.16 308.726 1133.94C309.75 1134.72 310.476 1135.75 310.906 1137.03ZM318.163 1127V1151H315.397V1127H318.163ZM330.541 1151.38C328.916 1151.38 327.49 1150.99 326.263 1150.21C325.044 1149.44 324.091 1148.36 323.404 1146.97C322.724 1145.58 322.384 1143.95 322.384 1142.09C322.384 1140.22 322.724 1138.58 323.404 1137.18C324.091 1135.79 325.044 1134.7 326.263 1133.93C327.49 1133.15 328.916 1132.77 330.541 1132.77C332.166 1132.77 333.587 1133.15 334.806 1133.93C336.033 1134.7 336.986 1135.79 337.666 1137.18C338.353 1138.58 338.697 1140.22 338.697 1142.09C338.697 1143.95 338.353 1145.58 337.666 1146.97C336.986 1148.36 336.033 1149.44 334.806 1150.21C333.587 1150.99 332.166 1151.38 330.541 1151.38ZM330.541 1148.89C331.775 1148.89 332.791 1148.57 333.587 1147.94C334.384 1147.31 334.974 1146.48 335.357 1145.45C335.74 1144.41 335.931 1143.3 335.931 1142.09C335.931 1140.89 335.74 1139.77 335.357 1138.73C334.974 1137.69 334.384 1136.85 333.587 1136.21C332.791 1135.57 331.775 1135.25 330.541 1135.25C329.306 1135.25 328.291 1135.57 327.494 1136.21C326.697 1136.85 326.107 1137.69 325.724 1138.73C325.341 1139.77 325.15 1140.89 325.15 1142.09C325.15 1143.3 325.341 1144.41 325.724 1145.45C326.107 1146.48 326.697 1147.31 327.494 1147.94C328.291 1148.57 329.306 1148.89 330.541 1148.89ZM350.747 1133V1135.34H341.418V1133H350.747ZM344.137 1128.69H346.903V1145.84C346.903 1146.62 347.016 1147.21 347.243 1147.6C347.477 1147.98 347.774 1148.24 348.133 1148.38C348.5 1148.5 348.887 1148.56 349.293 1148.56C349.598 1148.56 349.848 1148.55 350.043 1148.52C350.239 1148.48 350.395 1148.45 350.512 1148.42L351.075 1150.91C350.887 1150.98 350.625 1151.05 350.29 1151.12C349.954 1151.2 349.528 1151.23 349.012 1151.23C348.231 1151.23 347.465 1151.07 346.715 1150.73C345.973 1150.39 345.356 1149.88 344.864 1149.2C344.379 1148.51 344.137 1147.64 344.137 1146.59V1128.69Z" fill="white"/>
<path d="M432.497 166.398C430.622 166.398 428.951 166.076 427.483 165.432C426.025 164.788 424.865 163.893 424.003 162.747C423.151 161.592 422.687 160.252 422.611 158.727H426.19C426.266 159.665 426.588 160.474 427.156 161.156C427.724 161.829 428.468 162.349 429.386 162.719C430.305 163.088 431.323 163.273 432.44 163.273C433.69 163.273 434.798 163.055 435.764 162.619C436.73 162.184 437.488 161.578 438.037 160.801C438.586 160.025 438.861 159.125 438.861 158.102C438.861 157.032 438.596 156.09 438.065 155.276C437.535 154.452 436.759 153.808 435.736 153.344C434.713 152.88 433.463 152.648 431.986 152.648H429.656V149.523H431.986C433.141 149.523 434.154 149.314 435.026 148.898C435.906 148.481 436.593 147.894 437.085 147.136C437.587 146.379 437.838 145.489 437.838 144.466C437.838 143.481 437.62 142.624 437.185 141.895C436.749 141.166 436.134 140.598 435.338 140.19C434.552 139.783 433.624 139.58 432.554 139.58C431.55 139.58 430.603 139.764 429.713 140.134C428.832 140.493 428.113 141.019 427.554 141.71C426.995 142.392 426.692 143.216 426.645 144.182H423.236C423.293 142.657 423.752 141.322 424.614 140.176C425.475 139.021 426.602 138.121 427.994 137.477C429.396 136.833 430.935 136.511 432.611 136.511C434.41 136.511 435.954 136.876 437.241 137.605C438.529 138.325 439.519 139.277 440.21 140.46C440.902 141.644 441.247 142.922 441.247 144.295C441.247 145.934 440.816 147.33 439.955 148.486C439.102 149.641 437.942 150.441 436.474 150.886V151.114C438.312 151.417 439.746 152.198 440.778 153.457C441.811 154.707 442.327 156.256 442.327 158.102C442.327 159.684 441.896 161.104 441.034 162.364C440.182 163.614 439.017 164.598 437.54 165.318C436.063 166.038 434.382 166.398 432.497 166.398ZM448.136 166V163.443L457.739 152.932C458.866 151.701 459.794 150.631 460.523 149.722C461.252 148.803 461.792 147.941 462.142 147.136C462.502 146.322 462.682 145.47 462.682 144.58C462.682 143.557 462.436 142.671 461.943 141.923C461.46 141.175 460.797 140.598 459.955 140.19C459.112 139.783 458.165 139.58 457.114 139.58C455.996 139.58 455.021 139.812 454.188 140.276C453.364 140.73 452.724 141.369 452.27 142.193C451.825 143.017 451.602 143.983 451.602 145.091H448.25C448.25 143.386 448.643 141.89 449.429 140.602C450.215 139.314 451.285 138.311 452.639 137.591C454.003 136.871 455.532 136.511 457.227 136.511C458.932 136.511 460.442 136.871 461.759 137.591C463.075 138.311 464.107 139.281 464.855 140.503C465.603 141.724 465.977 143.083 465.977 144.58C465.977 145.65 465.783 146.696 465.395 147.719C465.016 148.732 464.353 149.864 463.406 151.114C462.469 152.354 461.167 153.869 459.5 155.659L452.966 162.648V162.875H466.489V166H448.136Z" fill="white"/>
<path d="M556.332 136.909V166H552.81V140.602H552.639L545.537 145.318V141.739L552.81 136.909H556.332ZM564.699 166V163.443L574.301 152.932C575.428 151.701 576.356 150.631 577.085 149.722C577.814 148.803 578.354 147.941 578.705 147.136C579.064 146.322 579.244 145.47 579.244 144.58C579.244 143.557 578.998 142.671 578.506 141.923C578.023 141.175 577.36 140.598 576.517 140.19C575.674 139.783 574.727 139.58 573.676 139.58C572.559 139.58 571.583 139.812 570.75 140.276C569.926 140.73 569.287 141.369 568.832 142.193C568.387 143.017 568.165 143.983 568.165 145.091H564.812C564.812 143.386 565.205 141.89 565.991 140.602C566.777 139.314 567.848 138.311 569.202 137.591C570.565 136.871 572.095 136.511 573.79 136.511C575.494 136.511 577.005 136.871 578.321 137.591C579.637 138.311 580.67 139.281 581.418 140.503C582.166 141.724 582.54 143.083 582.54 144.58C582.54 145.65 582.346 146.696 581.957 147.719C581.579 148.732 580.916 149.864 579.969 151.114C579.031 152.354 577.729 153.869 576.062 155.659L569.528 162.648V162.875H583.051V166H564.699Z" fill="white"/>
<line y1="-0.5" x2="33" y2="-0.5" transform="matrix(0 1 1 0 264 235)" stroke="white"/>
<line y1="-0.5" x2="33" y2="-0.5" transform="matrix(0 1 1 0 385 683)" stroke="white"/>
<line x1="25" y1="267.5" x2="263" y2="267.5" stroke="white"/>
<line x1="145" y1="715.5" x2="385" y2="715.5" stroke="white"/>
<line y1="-0.5" x2="33" y2="-0.5" transform="matrix(0 1 1 0 25 235)" stroke="white"/>
<line y1="-0.5" x2="33" y2="-0.5" transform="matrix(0 1 1 0 145 683)" stroke="white"/>
</svg>
