<svg width="601" height="332" viewBox="0 0 601 332" fill="none" xmlns="http://www.w3.org/2000/svg">
<path d="M1 131C1 116.088 13.0883 104 28 104H121V224H28C13.0883 224 1 211.912 1 197V131Z" fill="#540099"/>
<rect x="121" y="104" width="120" height="120" fill="#995E00"/>
<rect x="1" y="104" width="599" height="120" rx="26" stroke="#DBDBDB" stroke-width="2"/>
<line x1="121" y1="103" x2="121" y2="225" stroke="#DBDBDB" stroke-width="2"/>
<line x1="241" y1="103" x2="241" y2="225" stroke="#DBDBDB" stroke-width="2"/>
<line x1="362" y1="103" x2="362" y2="225" stroke="#DBDBDB" stroke-width="2"/>
<line x1="482" y1="103" x2="482" y2="225" stroke="#DBDBDB" stroke-width="2"/>
<path d="M38.9762 178V175.443L48.5785 164.932C49.7054 163.701 50.6334 162.631 51.3626 161.722C52.0917 160.803 52.6315 159.941 52.9819 159.136C53.3417 158.322 53.5217 157.47 53.5217 156.58C53.5217 155.557 53.2755 154.671 52.783 153.923C52.3001 153.175 51.6372 152.598 50.7944 152.19C49.9516 151.783 49.0046 151.58 47.9535 151.58C46.8361 151.58 45.8607 151.812 45.0273 152.276C44.2035 152.73 43.5643 153.369 43.1097 154.193C42.6647 155.017 42.4421 155.983 42.4421 157.091H39.0898C39.0898 155.386 39.4828 153.89 40.2688 152.602C41.0548 151.314 42.1249 150.311 43.479 149.591C44.8427 148.871 46.372 148.511 48.0671 148.511C49.7717 148.511 51.2821 148.871 52.5984 149.591C53.9147 150.311 54.9469 151.281 55.695 152.503C56.4431 153.724 56.8171 155.083 56.8171 156.58C56.8171 157.65 56.623 158.696 56.2347 159.719C55.8559 160.732 55.1931 161.864 54.2461 163.114C53.3086 164.354 52.0065 165.869 50.3398 167.659L43.8058 174.648V174.875H57.3285V178H38.9762ZM64.104 178L77.1154 152.261V152.034H62.1154V148.909H80.7518V152.205L67.7972 178H64.104Z" fill="white"/>
<path d="M157.572 172.034V169.136L170.356 148.909H172.458V153.398H171.038L161.379 168.682V168.909H178.594V172.034H157.572ZM171.265 178V171.153V169.804V148.909H174.617V178H171.265ZM184.827 178L197.838 152.261V152.034H182.838V148.909H201.474V152.205L188.52 178H184.827Z" fill="white"/>
<path d="M290.961 148.909V178H287.439V152.602H287.268L280.166 157.318V153.739L287.439 148.909H290.961ZM308.589 148.511C309.782 148.521 310.975 148.748 312.169 149.193C313.362 149.638 314.451 150.377 315.436 151.409C316.421 152.432 317.211 153.829 317.808 155.599C318.404 157.37 318.703 159.591 318.703 162.261C318.703 164.847 318.457 167.143 317.964 169.151C317.481 171.149 316.78 172.834 315.862 174.207C314.953 175.58 313.845 176.622 312.538 177.332C311.241 178.043 309.773 178.398 308.135 178.398C306.506 178.398 305.052 178.076 303.774 177.432C302.505 176.778 301.463 175.874 300.649 174.719C299.844 173.554 299.328 172.205 299.1 170.67H302.566C302.879 172.006 303.499 173.109 304.427 173.98C305.365 174.842 306.6 175.273 308.135 175.273C310.379 175.273 312.15 174.293 313.447 172.332C314.754 170.372 315.407 167.602 315.407 164.023H315.18C314.65 164.818 314.02 165.505 313.291 166.082C312.562 166.66 311.752 167.105 310.862 167.418C309.972 167.73 309.025 167.886 308.021 167.886C306.354 167.886 304.825 167.474 303.433 166.651C302.05 165.817 300.942 164.676 300.109 163.227C299.285 161.769 298.873 160.102 298.873 158.227C298.873 156.447 299.271 154.818 300.066 153.341C300.871 151.854 301.998 150.67 303.447 149.79C304.905 148.909 306.619 148.483 308.589 148.511ZM308.589 151.636C307.396 151.636 306.321 151.935 305.365 152.531C304.418 153.118 303.665 153.914 303.106 154.918C302.557 155.912 302.282 157.015 302.282 158.227C302.282 159.439 302.547 160.543 303.078 161.537C303.618 162.522 304.351 163.308 305.279 163.895C306.217 164.473 307.282 164.761 308.475 164.761C309.375 164.761 310.213 164.586 310.99 164.236C311.766 163.876 312.443 163.388 313.021 162.773C313.608 162.148 314.067 161.442 314.399 160.656C314.73 159.861 314.896 159.032 314.896 158.17C314.896 157.034 314.621 155.969 314.072 154.974C313.532 153.98 312.784 153.175 311.828 152.56C310.881 151.944 309.801 151.636 308.589 151.636Z" fill="white"/>
<path d="M277.197 8V32H274.291V8H277.197ZM285.415 21.1719V32H282.649V14H285.321V16.8125H285.556C285.978 15.8984 286.618 15.1641 287.478 14.6094C288.337 14.0469 289.446 13.7656 290.806 13.7656C292.024 13.7656 293.091 14.0156 294.005 14.5156C294.919 15.0078 295.63 15.7578 296.138 16.7656C296.646 17.7656 296.899 19.0312 296.899 20.5625V32H294.134V20.75C294.134 19.3359 293.767 18.2344 293.032 17.4453C292.298 16.6484 291.29 16.25 290.009 16.25C289.126 16.25 288.337 16.4414 287.642 16.8242C286.954 17.207 286.411 17.7656 286.013 18.5C285.614 19.2344 285.415 20.125 285.415 21.1719ZM301.953 32V14H304.719V32H301.953ZM303.359 11C302.82 11 302.355 10.8164 301.965 10.4492C301.582 10.082 301.391 9.64063 301.391 9.125C301.391 8.60938 301.582 8.16797 301.965 7.80078C302.355 7.43359 302.82 7.25 303.359 7.25C303.898 7.25 304.359 7.43359 304.742 7.80078C305.133 8.16797 305.328 8.60938 305.328 9.125C305.328 9.64063 305.133 10.082 304.742 10.4492C304.359 10.8164 303.898 11 303.359 11ZM317.612 14V16.3437H308.284V14H317.612ZM311.003 9.6875H313.769V26.8438C313.769 27.625 313.882 28.2109 314.108 28.6016C314.343 28.9844 314.64 29.2422 314.999 29.375C315.366 29.5 315.753 29.5625 316.159 29.5625C316.464 29.5625 316.714 29.5469 316.909 29.5156C317.104 29.4766 317.261 29.4453 317.378 29.4219L317.94 31.9062C317.753 31.9766 317.491 32.0469 317.155 32.1172C316.819 32.1953 316.394 32.2344 315.878 32.2344C315.097 32.2344 314.331 32.0664 313.581 31.7305C312.839 31.3945 312.222 30.8828 311.729 30.1953C311.245 29.5078 311.003 28.6406 311.003 27.5937V9.6875ZM321.772 32V14H324.538V32H321.772ZM323.179 11C322.64 11 322.175 10.8164 321.784 10.4492C321.401 10.082 321.21 9.64063 321.21 9.125C321.21 8.60938 321.401 8.16797 321.784 7.80078C322.175 7.43359 322.64 7.25 323.179 7.25C323.718 7.25 324.179 7.43359 324.562 7.80078C324.952 8.16797 325.147 8.60938 325.147 9.125C325.147 9.64063 324.952 10.082 324.562 10.4492C324.179 10.8164 323.718 11 323.179 11ZM334.9 32.4219C333.76 32.4219 332.725 32.207 331.795 31.7773C330.865 31.3398 330.127 30.7109 329.58 29.8906C329.033 29.0625 328.76 28.0625 328.76 26.8906C328.76 25.8594 328.963 25.0234 329.369 24.3828C329.775 23.7344 330.318 23.2266 330.998 22.8594C331.678 22.4922 332.428 22.2187 333.248 22.0391C334.076 21.8516 334.908 21.7031 335.744 21.5938C336.838 21.4531 337.725 21.3477 338.404 21.2773C339.092 21.1992 339.592 21.0703 339.904 20.8906C340.225 20.7109 340.385 20.3984 340.385 19.9531V19.8594C340.385 18.7031 340.068 17.8047 339.436 17.1641C338.811 16.5234 337.861 16.2031 336.588 16.2031C335.268 16.2031 334.232 16.4922 333.482 17.0703C332.732 17.6484 332.205 18.2656 331.9 18.9219L329.275 17.9844C329.744 16.8906 330.369 16.0391 331.15 15.4297C331.939 14.8125 332.799 14.3828 333.729 14.1406C334.666 13.8906 335.588 13.7656 336.494 13.7656C337.072 13.7656 337.736 13.8359 338.486 13.9766C339.244 14.1094 339.975 14.3867 340.678 14.8086C341.389 15.2305 341.979 15.8672 342.447 16.7187C342.916 17.5703 343.15 18.7109 343.15 20.1406V32H340.385V29.5625H340.244C340.057 29.9531 339.744 30.3711 339.307 30.8164C338.869 31.2617 338.287 31.6406 337.561 31.9531C336.834 32.2656 335.947 32.4219 334.9 32.4219ZM335.322 29.9375C336.416 29.9375 337.338 29.7227 338.088 29.293C338.846 28.8633 339.416 28.3086 339.799 27.6289C340.189 26.9492 340.385 26.2344 340.385 25.4844V22.9531C340.268 23.0937 340.01 23.2227 339.611 23.3398C339.221 23.4492 338.768 23.5469 338.252 23.6328C337.744 23.7109 337.248 23.7812 336.764 23.8437C336.287 23.8984 335.9 23.9453 335.604 23.9844C334.885 24.0781 334.213 24.2305 333.588 24.4414C332.971 24.6445 332.471 24.9531 332.088 25.3672C331.713 25.7734 331.525 26.3281 331.525 27.0312C331.525 27.9922 331.881 28.7187 332.592 29.2109C333.311 29.6953 334.221 29.9375 335.322 29.9375ZM350.964 8V32H348.198V8H350.964ZM378.061 18.0312L375.576 18.7344C375.42 18.3203 375.189 17.918 374.885 17.5273C374.588 17.1289 374.182 16.8008 373.666 16.543C373.15 16.2852 372.49 16.1562 371.686 16.1562C370.584 16.1562 369.666 16.4102 368.932 16.918C368.205 17.418 367.842 18.0547 367.842 18.8281C367.842 19.5156 368.092 20.0586 368.592 20.457C369.092 20.8555 369.873 21.1875 370.936 21.4531L373.607 22.1094C375.217 22.5 376.416 23.0977 377.205 23.9023C377.994 24.6992 378.389 25.7266 378.389 26.9844C378.389 28.0156 378.092 28.9375 377.498 29.75C376.912 30.5625 376.092 31.2031 375.037 31.6719C373.982 32.1406 372.756 32.375 371.357 32.375C369.521 32.375 368.002 31.9766 366.799 31.1797C365.596 30.3828 364.834 29.2187 364.514 27.6875L367.139 27.0312C367.389 28 367.861 28.7266 368.557 29.2109C369.26 29.6953 370.178 29.9375 371.311 29.9375C372.6 29.9375 373.623 29.6641 374.381 29.1172C375.146 28.5625 375.529 27.8984 375.529 27.125C375.529 26.5 375.311 25.9766 374.873 25.5547C374.436 25.125 373.764 24.8047 372.857 24.5937L369.857 23.8906C368.209 23.5 366.998 22.8945 366.225 22.0742C365.459 21.2461 365.076 20.2109 365.076 18.9687C365.076 17.9531 365.361 17.0547 365.932 16.2734C366.51 15.4922 367.295 14.8789 368.287 14.4336C369.287 13.9883 370.42 13.7656 371.686 13.7656C373.467 13.7656 374.865 14.1562 375.881 14.9375C376.904 15.7187 377.631 16.75 378.061 18.0312ZM389.864 32.375C388.239 32.375 386.813 31.9883 385.587 31.2148C384.368 30.4414 383.415 29.3594 382.728 27.9687C382.048 26.5781 381.708 24.9531 381.708 23.0937C381.708 21.2187 382.048 19.582 382.728 18.1836C383.415 16.7852 384.368 15.6992 385.587 14.9258C386.813 14.1523 388.239 13.7656 389.864 13.7656C391.489 13.7656 392.911 14.1523 394.13 14.9258C395.356 15.6992 396.31 16.7852 396.989 18.1836C397.677 19.582 398.021 21.2187 398.021 23.0937C398.021 24.9531 397.677 26.5781 396.989 27.9687C396.31 29.3594 395.356 30.4414 394.13 31.2148C392.911 31.9883 391.489 32.375 389.864 32.375ZM389.864 29.8906C391.099 29.8906 392.114 29.5742 392.911 28.9414C393.708 28.3086 394.298 27.4766 394.681 26.4453C395.063 25.4141 395.255 24.2969 395.255 23.0937C395.255 21.8906 395.063 20.7695 394.681 19.7305C394.298 18.6914 393.708 17.8516 392.911 17.2109C392.114 16.5703 391.099 16.25 389.864 16.25C388.63 16.25 387.614 16.5703 386.817 17.2109C386.021 17.8516 385.431 18.6914 385.048 19.7305C384.665 20.7695 384.474 21.8906 384.474 23.0937C384.474 24.2969 384.665 25.4141 385.048 26.4453C385.431 27.4766 386.021 28.3086 386.817 28.9414C387.614 29.5742 388.63 29.8906 389.864 29.8906ZM402.242 32V14H404.914V16.7187H405.102C405.43 15.8281 406.023 15.1055 406.883 14.5508C407.742 13.9961 408.711 13.7187 409.789 13.7187C409.992 13.7187 410.246 13.7227 410.551 13.7305C410.855 13.7383 411.086 13.75 411.242 13.7656V16.5781C411.148 16.5547 410.934 16.5195 410.598 16.4727C410.27 16.418 409.922 16.3906 409.555 16.3906C408.68 16.3906 407.898 16.5742 407.211 16.9414C406.531 17.3008 405.992 17.8008 405.594 18.4414C405.203 19.0742 405.008 19.7969 405.008 20.6094V32H402.242ZM423.477 14V16.3437H414.148V14H423.477ZM416.867 9.6875H419.633V26.8438C419.633 27.625 419.746 28.2109 419.973 28.6016C420.207 28.9844 420.504 29.2422 420.863 29.375C421.23 29.5 421.617 29.5625 422.023 29.5625C422.328 29.5625 422.578 29.5469 422.773 29.5156C422.969 29.4766 423.125 29.4453 423.242 29.4219L423.805 31.9062C423.617 31.9766 423.355 32.0469 423.02 32.1172C422.684 32.1953 422.258 32.2344 421.742 32.2344C420.961 32.2344 420.195 32.0664 419.445 31.7305C418.703 31.3945 418.086 30.8828 417.594 30.1953C417.109 29.5078 416.867 28.6406 416.867 27.5937V9.6875ZM434.99 32.375C433.256 32.375 431.76 31.9922 430.502 31.2266C429.252 30.4531 428.287 29.375 427.607 27.9922C426.936 26.6016 426.6 24.9844 426.6 23.1406C426.6 21.2969 426.936 19.6719 427.607 18.2656C428.287 16.8516 429.232 15.75 430.443 14.9609C431.662 14.1641 433.084 13.7656 434.709 13.7656C435.646 13.7656 436.572 13.9219 437.486 14.2344C438.4 14.5469 439.232 15.0547 439.982 15.7578C440.732 16.4531 441.33 17.375 441.775 18.5234C442.221 19.6719 442.443 21.0859 442.443 22.7656V23.9375H428.568V21.5469H439.631C439.631 20.5312 439.428 19.625 439.021 18.8281C438.623 18.0312 438.053 17.4023 437.311 16.9414C436.576 16.4805 435.709 16.25 434.709 16.25C433.607 16.25 432.654 16.5234 431.85 17.0703C431.053 17.6094 430.439 18.3125 430.01 19.1797C429.58 20.0469 429.365 20.9766 429.365 21.9687V23.5625C429.365 24.9219 429.6 26.0742 430.068 27.0195C430.545 27.957 431.205 28.6719 432.049 29.1641C432.893 29.6484 433.873 29.8906 434.99 29.8906C435.717 29.8906 436.373 29.7891 436.959 29.5859C437.553 29.375 438.064 29.0625 438.494 28.6484C438.924 28.2266 439.256 27.7031 439.49 27.0781L442.162 27.8281C441.881 28.7344 441.408 29.5312 440.744 30.2187C440.08 30.8984 439.26 31.4297 438.283 31.8125C437.307 32.1875 436.209 32.375 434.99 32.375ZM453.447 32.375C451.947 32.375 450.623 31.9961 449.475 31.2383C448.326 30.4727 447.428 29.3945 446.779 28.0039C446.131 26.6055 445.807 24.9531 445.807 23.0469C445.807 21.1562 446.131 19.5156 446.779 18.125C447.428 16.7344 448.33 15.6602 449.486 14.9023C450.643 14.1445 451.979 13.7656 453.494 13.7656C454.666 13.7656 455.592 13.9609 456.271 14.3516C456.959 14.7344 457.482 15.1719 457.842 15.6641C458.209 16.1484 458.494 16.5469 458.697 16.8594H458.932V8H461.697V32H459.025V29.2344H458.697C458.494 29.5625 458.205 29.9766 457.83 30.4766C457.455 30.9687 456.92 31.4102 456.225 31.8008C455.529 32.1836 454.604 32.375 453.447 32.375ZM453.822 29.8906C454.932 29.8906 455.869 29.6016 456.635 29.0234C457.4 28.4375 457.982 27.6289 458.381 26.5977C458.779 25.5586 458.979 24.3594 458.979 23C458.979 21.6562 458.783 20.4805 458.393 19.4727C458.002 18.457 457.424 17.668 456.658 17.1055C455.893 16.5352 454.947 16.25 453.822 16.25C452.65 16.25 451.674 16.5508 450.893 17.1523C450.119 17.7461 449.537 18.5547 449.146 19.5781C448.764 20.5937 448.572 21.7344 448.572 23C448.572 24.2812 448.768 25.4453 449.158 26.4922C449.557 27.5312 450.143 28.3594 450.916 28.9766C451.697 29.5859 452.666 29.8906 453.822 29.8906ZM339.604 48V72H336.698V48H339.604ZM352.884 54V56.3437H343.556V54H352.884ZM346.275 49.6875H349.041V66.8438C349.041 67.625 349.154 68.2109 349.38 68.6016C349.615 68.9844 349.912 69.2422 350.271 69.375C350.638 69.5 351.025 69.5625 351.431 69.5625C351.736 69.5625 351.986 69.5469 352.181 69.5156C352.376 69.4766 352.533 69.4453 352.65 69.4219L353.212 71.9062C353.025 71.9766 352.763 72.0469 352.427 72.1172C352.091 72.1953 351.666 72.2344 351.15 72.2344C350.369 72.2344 349.603 72.0664 348.853 71.7305C348.111 71.3945 347.494 70.8828 347.001 70.1953C346.517 69.5078 346.275 68.6406 346.275 67.5937V49.6875ZM364.398 72.375C362.664 72.375 361.167 71.9922 359.91 71.2266C358.66 70.4531 357.695 69.375 357.015 67.9922C356.343 66.6016 356.007 64.9844 356.007 63.1406C356.007 61.2969 356.343 59.6719 357.015 58.2656C357.695 56.8516 358.64 55.75 359.851 54.9609C361.07 54.1641 362.492 53.7656 364.117 53.7656C365.054 53.7656 365.98 53.9219 366.894 54.2344C367.808 54.5469 368.64 55.0547 369.39 55.7578C370.14 56.4531 370.738 57.375 371.183 58.5234C371.628 59.6719 371.851 61.0859 371.851 62.7656V63.9375H357.976V61.5469H369.039C369.039 60.5312 368.835 59.625 368.429 58.8281C368.031 58.0312 367.46 57.4023 366.718 56.9414C365.984 56.4805 365.117 56.25 364.117 56.25C363.015 56.25 362.062 56.5234 361.257 57.0703C360.46 57.6094 359.847 58.3125 359.417 59.1797C358.988 60.0469 358.773 60.9766 358.773 61.9687V63.5625C358.773 64.9219 359.007 66.0742 359.476 67.0195C359.953 67.957 360.613 68.6719 361.457 69.1641C362.3 69.6484 363.281 69.8906 364.398 69.8906C365.125 69.8906 365.781 69.7891 366.367 69.5859C366.96 69.375 367.472 69.0625 367.902 68.6484C368.332 68.2266 368.664 67.7031 368.898 67.0781L371.57 67.8281C371.289 68.7344 370.816 69.5312 370.152 70.2187C369.488 70.8984 368.667 71.4297 367.691 71.8125C366.714 72.1875 365.617 72.375 364.398 72.375ZM376.058 72V54H378.73V56.8125H378.964C379.339 55.8516 379.945 55.1055 380.781 54.5742C381.617 54.0352 382.621 53.7656 383.792 53.7656C384.98 53.7656 385.968 54.0352 386.757 54.5742C387.554 55.1055 388.175 55.8516 388.621 56.8125H388.808C389.269 55.8828 389.96 55.1445 390.882 54.5977C391.804 54.043 392.91 53.7656 394.199 53.7656C395.808 53.7656 397.125 54.2695 398.148 55.2773C399.171 56.2773 399.683 57.8359 399.683 59.9531V72H396.917V59.9531C396.917 58.625 396.554 57.6758 395.828 57.1055C395.101 56.5352 394.246 56.25 393.261 56.25C391.996 56.25 391.015 56.6328 390.32 57.3984C389.625 58.1562 389.277 59.1172 389.277 60.2812V72H386.464V59.6719C386.464 58.6484 386.132 57.8242 385.468 57.1992C384.804 56.5664 383.949 56.25 382.902 56.25C382.183 56.25 381.511 56.4414 380.886 56.8242C380.269 57.207 379.769 57.7383 379.386 58.418C379.011 59.0898 378.824 59.8672 378.824 60.75V72H376.058Z" fill="#717171"/>
<path d="M403.155 284V260H417.545V262.578H406.061V270.687H416.467V273.266H406.061V284H403.155ZM422.148 284V266H424.914V284H422.148ZM423.554 263C423.015 263 422.55 262.816 422.16 262.449C421.777 262.082 421.585 261.641 421.585 261.125C421.585 260.609 421.777 260.168 422.16 259.801C422.55 259.434 423.015 259.25 423.554 259.25C424.093 259.25 424.554 259.434 424.937 259.801C425.328 260.168 425.523 260.609 425.523 261.125C425.523 261.641 425.328 262.082 424.937 262.449C424.554 262.816 424.093 263 423.554 263ZM429.979 284V266H432.651V268.719H432.838C433.167 267.828 433.76 267.105 434.62 266.551C435.479 265.996 436.448 265.719 437.526 265.719C437.729 265.719 437.983 265.723 438.288 265.73C438.592 265.738 438.823 265.75 438.979 265.766V268.578C438.885 268.555 438.67 268.52 438.334 268.473C438.006 268.418 437.659 268.391 437.292 268.391C436.417 268.391 435.635 268.574 434.948 268.941C434.268 269.301 433.729 269.801 433.331 270.441C432.94 271.074 432.745 271.797 432.745 272.609V284H429.979ZM455.007 270.031L452.523 270.734C452.367 270.32 452.136 269.918 451.832 269.527C451.535 269.129 451.128 268.801 450.613 268.543C450.097 268.285 449.437 268.156 448.632 268.156C447.531 268.156 446.613 268.41 445.878 268.918C445.152 269.418 444.789 270.055 444.789 270.828C444.789 271.516 445.039 272.059 445.539 272.457C446.039 272.855 446.82 273.187 447.882 273.453L450.554 274.109C452.164 274.5 453.363 275.098 454.152 275.902C454.941 276.699 455.335 277.727 455.335 278.984C455.335 280.016 455.039 280.937 454.445 281.75C453.859 282.562 453.039 283.203 451.984 283.672C450.929 284.141 449.703 284.375 448.304 284.375C446.468 284.375 444.949 283.977 443.746 283.18C442.542 282.383 441.781 281.219 441.46 279.687L444.085 279.031C444.335 280 444.808 280.727 445.503 281.211C446.207 281.695 447.125 281.938 448.257 281.938C449.546 281.938 450.57 281.664 451.328 281.117C452.093 280.562 452.476 279.898 452.476 279.125C452.476 278.5 452.257 277.977 451.82 277.555C451.382 277.125 450.71 276.805 449.804 276.594L446.804 275.891C445.156 275.5 443.945 274.895 443.171 274.074C442.406 273.246 442.023 272.211 442.023 270.969C442.023 269.953 442.308 269.055 442.878 268.273C443.457 267.492 444.242 266.879 445.234 266.434C446.234 265.988 447.367 265.766 448.632 265.766C450.414 265.766 451.812 266.156 452.828 266.937C453.851 267.719 454.578 268.75 455.007 270.031ZM467.327 266V268.344H457.999V266H467.327ZM460.717 261.687H463.483V278.844C463.483 279.625 463.596 280.211 463.823 280.602C464.057 280.984 464.354 281.242 464.713 281.375C465.081 281.5 465.467 281.562 465.874 281.562C466.178 281.562 466.428 281.547 466.624 281.516C466.819 281.477 466.975 281.445 467.092 281.422L467.655 283.906C467.467 283.977 467.206 284.047 466.87 284.117C466.534 284.195 466.108 284.234 465.592 284.234C464.811 284.234 464.045 284.066 463.295 283.73C462.553 283.395 461.936 282.883 461.444 282.195C460.959 281.508 460.717 280.641 460.717 279.594V261.687ZM480.768 284V266H483.534V284H480.768ZM482.174 263C481.635 263 481.17 262.816 480.78 262.449C480.397 262.082 480.206 261.641 480.206 261.125C480.206 260.609 480.397 260.168 480.78 259.801C481.17 259.434 481.635 259.25 482.174 259.25C482.713 259.25 483.174 259.434 483.557 259.801C483.948 260.168 484.143 260.609 484.143 261.125C484.143 261.641 483.948 262.082 483.557 262.449C483.174 262.816 482.713 263 482.174 263ZM496.427 266V268.344H487.099V266H496.427ZM489.818 261.687H492.583V278.844C492.583 279.625 492.697 280.211 492.923 280.602C493.158 280.984 493.455 281.242 493.814 281.375C494.181 281.5 494.568 281.562 494.974 281.562C495.279 281.562 495.529 281.547 495.724 281.516C495.919 281.477 496.076 281.445 496.193 281.422L496.755 283.906C496.568 283.977 496.306 284.047 495.97 284.117C495.634 284.195 495.208 284.234 494.693 284.234C493.912 284.234 493.146 284.066 492.396 283.73C491.654 283.395 491.037 282.883 490.544 282.195C490.06 281.508 489.818 280.641 489.818 279.594V261.687ZM507.941 284.375C506.207 284.375 504.71 283.992 503.453 283.227C502.203 282.453 501.238 281.375 500.558 279.992C499.886 278.602 499.55 276.984 499.55 275.141C499.55 273.297 499.886 271.672 500.558 270.266C501.238 268.852 502.183 267.75 503.394 266.961C504.613 266.164 506.035 265.766 507.66 265.766C508.597 265.766 509.523 265.922 510.437 266.234C511.351 266.547 512.183 267.055 512.933 267.758C513.683 268.453 514.281 269.375 514.726 270.523C515.171 271.672 515.394 273.086 515.394 274.766V275.937H501.519V273.547H512.582C512.582 272.531 512.378 271.625 511.972 270.828C511.574 270.031 511.003 269.402 510.261 268.941C509.527 268.48 508.66 268.25 507.66 268.25C506.558 268.25 505.605 268.523 504.8 269.07C504.003 269.609 503.39 270.312 502.96 271.18C502.531 272.047 502.316 272.977 502.316 273.969V275.563C502.316 276.922 502.55 278.074 503.019 279.02C503.496 279.957 504.156 280.672 505 281.164C505.843 281.648 506.824 281.891 507.941 281.891C508.667 281.891 509.324 281.789 509.91 281.586C510.503 281.375 511.015 281.063 511.445 280.648C511.875 280.227 512.207 279.703 512.441 279.078L515.113 279.828C514.832 280.734 514.359 281.531 513.695 282.219C513.031 282.898 512.21 283.43 511.234 283.812C510.257 284.188 509.16 284.375 507.941 284.375ZM519.601 284V266H522.273V268.812H522.507C522.882 267.852 523.488 267.105 524.324 266.574C525.16 266.035 526.164 265.766 527.335 265.766C528.523 265.766 529.511 266.035 530.3 266.574C531.097 267.105 531.718 267.852 532.164 268.812H532.351C532.812 267.883 533.503 267.145 534.425 266.598C535.347 266.043 536.453 265.766 537.742 265.766C539.351 265.766 540.667 266.27 541.691 267.277C542.714 268.277 543.226 269.836 543.226 271.953V284H540.46V271.953C540.46 270.625 540.097 269.676 539.371 269.105C538.644 268.535 537.789 268.25 536.804 268.25C535.539 268.25 534.558 268.633 533.863 269.398C533.167 270.156 532.82 271.117 532.82 272.281V284H530.007V271.672C530.007 270.648 529.675 269.824 529.011 269.199C528.347 268.566 527.492 268.25 526.445 268.25C525.726 268.25 525.054 268.441 524.429 268.824C523.812 269.207 523.312 269.738 522.929 270.418C522.554 271.09 522.367 271.867 522.367 272.75V284H519.601ZM431.813 306V308.344H422.485V306H431.813ZM425.204 301.687H427.969V318.844C427.969 319.625 428.083 320.211 428.309 320.602C428.543 320.984 428.84 321.242 429.2 321.375C429.567 321.5 429.954 321.562 430.36 321.562C430.665 321.562 430.915 321.547 431.11 321.516C431.305 321.477 431.461 321.445 431.579 321.422L432.141 323.906C431.954 323.977 431.692 324.047 431.356 324.117C431.02 324.195 430.594 324.234 430.079 324.234C429.297 324.234 428.532 324.066 427.782 323.73C427.04 323.395 426.422 322.883 425.93 322.195C425.446 321.508 425.204 320.641 425.204 319.594V301.687ZM443.092 324.375C441.467 324.375 440.042 323.988 438.815 323.215C437.596 322.441 436.643 321.359 435.956 319.969C435.276 318.578 434.936 316.953 434.936 315.094C434.936 313.219 435.276 311.582 435.956 310.184C436.643 308.785 437.596 307.699 438.815 306.926C440.042 306.152 441.467 305.766 443.092 305.766C444.717 305.766 446.139 306.152 447.358 306.926C448.584 307.699 449.538 308.785 450.217 310.184C450.905 311.582 451.249 313.219 451.249 315.094C451.249 316.953 450.905 318.578 450.217 319.969C449.538 321.359 448.584 322.441 447.358 323.215C446.139 323.988 444.717 324.375 443.092 324.375ZM443.092 321.891C444.327 321.891 445.342 321.574 446.139 320.941C446.936 320.309 447.526 319.477 447.909 318.445C448.292 317.414 448.483 316.297 448.483 315.094C448.483 313.891 448.292 312.77 447.909 311.73C447.526 310.691 446.936 309.852 446.139 309.211C445.342 308.57 444.327 308.25 443.092 308.25C441.858 308.25 440.842 308.57 440.045 309.211C439.249 309.852 438.659 310.691 438.276 311.73C437.893 312.77 437.702 313.891 437.702 315.094C437.702 316.297 437.893 317.414 438.276 318.445C438.659 319.477 439.249 320.309 440.045 320.941C440.842 321.574 441.858 321.891 443.092 321.891ZM477.501 310.031L475.017 310.734C474.861 310.32 474.63 309.918 474.326 309.527C474.029 309.129 473.623 308.801 473.107 308.543C472.591 308.285 471.931 308.156 471.126 308.156C470.025 308.156 469.107 308.41 468.373 308.918C467.646 309.418 467.283 310.055 467.283 310.828C467.283 311.516 467.533 312.059 468.033 312.457C468.533 312.855 469.314 313.187 470.376 313.453L473.048 314.109C474.658 314.5 475.857 315.098 476.646 315.902C477.435 316.699 477.83 317.727 477.83 318.984C477.83 320.016 477.533 320.937 476.939 321.75C476.353 322.562 475.533 323.203 474.478 323.672C473.423 324.141 472.197 324.375 470.798 324.375C468.962 324.375 467.443 323.977 466.24 323.18C465.037 322.383 464.275 321.219 463.955 319.687L466.58 319.031C466.83 320 467.302 320.727 467.998 321.211C468.701 321.695 469.619 321.938 470.751 321.938C472.041 321.938 473.064 321.664 473.822 321.117C474.587 320.562 474.97 319.898 474.97 319.125C474.97 318.5 474.751 317.977 474.314 317.555C473.876 317.125 473.205 316.805 472.298 316.594L469.298 315.891C467.65 315.5 466.439 314.895 465.666 314.074C464.9 313.246 464.517 312.211 464.517 310.969C464.517 309.953 464.802 309.055 465.373 308.273C465.951 307.492 466.736 306.879 467.728 306.434C468.728 305.988 469.861 305.766 471.126 305.766C472.908 305.766 474.306 306.156 475.322 306.937C476.345 307.719 477.072 308.75 477.501 310.031ZM489.305 324.375C487.68 324.375 486.254 323.988 485.028 323.215C483.809 322.441 482.856 321.359 482.168 319.969C481.489 318.578 481.149 316.953 481.149 315.094C481.149 313.219 481.489 311.582 482.168 310.184C482.856 308.785 483.809 307.699 485.028 306.926C486.254 306.152 487.68 305.766 489.305 305.766C490.93 305.766 492.352 306.152 493.571 306.926C494.797 307.699 495.75 308.785 496.43 310.184C497.118 311.582 497.461 313.219 497.461 315.094C497.461 316.953 497.118 318.578 496.43 319.969C495.75 321.359 494.797 322.441 493.571 323.215C492.352 323.988 490.93 324.375 489.305 324.375ZM489.305 321.891C490.54 321.891 491.555 321.574 492.352 320.941C493.149 320.309 493.739 319.477 494.122 318.445C494.504 317.414 494.696 316.297 494.696 315.094C494.696 313.891 494.504 312.77 494.122 311.73C493.739 310.691 493.149 309.852 492.352 309.211C491.555 308.57 490.54 308.25 489.305 308.25C488.071 308.25 487.055 308.57 486.258 309.211C485.461 309.852 484.872 310.691 484.489 311.73C484.106 312.77 483.915 313.891 483.915 315.094C483.915 316.297 484.106 317.414 484.489 318.445C484.872 319.477 485.461 320.309 486.258 320.941C487.055 321.574 488.071 321.891 489.305 321.891ZM501.683 324V306H504.355V308.719H504.542C504.871 307.828 505.464 307.105 506.324 306.551C507.183 305.996 508.152 305.719 509.23 305.719C509.433 305.719 509.687 305.723 509.992 305.73C510.296 305.738 510.527 305.75 510.683 305.766V308.578C510.589 308.555 510.375 308.52 510.039 308.473C509.71 308.418 509.363 308.391 508.996 308.391C508.121 308.391 507.339 308.574 506.652 308.941C505.972 309.301 505.433 309.801 505.035 310.441C504.644 311.074 504.449 311.797 504.449 312.609V324H501.683ZM522.917 306V308.344H513.589V306H522.917ZM516.308 301.687H519.074V318.844C519.074 319.625 519.187 320.211 519.414 320.602C519.648 320.984 519.945 321.242 520.304 321.375C520.671 321.5 521.058 321.562 521.464 321.562C521.769 321.562 522.019 321.547 522.214 321.516C522.41 321.477 522.566 321.445 522.683 321.422L523.246 323.906C523.058 323.977 522.796 324.047 522.46 324.117C522.125 324.195 521.699 324.234 521.183 324.234C520.402 324.234 519.636 324.066 518.886 323.73C518.144 323.395 517.527 322.883 517.035 322.195C516.55 321.508 516.308 320.641 516.308 319.594V301.687Z" fill="#717171"/>
<path d="M408.497 178.398C406.622 178.398 404.951 178.076 403.483 177.432C402.025 176.788 400.865 175.893 400.003 174.747C399.151 173.592 398.687 172.252 398.611 170.727H402.19C402.266 171.665 402.588 172.474 403.156 173.156C403.724 173.829 404.468 174.349 405.386 174.719C406.305 175.088 407.323 175.273 408.44 175.273C409.69 175.273 410.798 175.055 411.764 174.619C412.73 174.184 413.488 173.578 414.037 172.801C414.586 172.025 414.861 171.125 414.861 170.102C414.861 169.032 414.596 168.09 414.065 167.276C413.535 166.452 412.759 165.808 411.736 165.344C410.713 164.88 409.463 164.648 407.986 164.648H405.656V161.523H407.986C409.141 161.523 410.154 161.314 411.026 160.898C411.906 160.481 412.593 159.894 413.085 159.136C413.587 158.379 413.838 157.489 413.838 156.466C413.838 155.481 413.62 154.624 413.185 153.895C412.749 153.166 412.134 152.598 411.338 152.19C410.552 151.783 409.624 151.58 408.554 151.58C407.55 151.58 406.603 151.764 405.713 152.134C404.832 152.493 404.113 153.019 403.554 153.71C402.995 154.392 402.692 155.216 402.645 156.182H399.236C399.293 154.657 399.752 153.322 400.614 152.176C401.475 151.021 402.602 150.121 403.994 149.477C405.396 148.833 406.935 148.511 408.611 148.511C410.41 148.511 411.954 148.876 413.241 149.605C414.529 150.325 415.519 151.277 416.21 152.46C416.902 153.644 417.247 154.922 417.247 156.295C417.247 157.934 416.816 159.33 415.955 160.486C415.102 161.641 413.942 162.441 412.474 162.886V163.114C414.312 163.417 415.746 164.198 416.778 165.457C417.811 166.707 418.327 168.256 418.327 170.102C418.327 171.684 417.896 173.104 417.034 174.364C416.182 175.614 415.017 176.598 413.54 177.318C412.063 178.038 410.382 178.398 408.497 178.398ZM424.136 178V175.443L433.739 164.932C434.866 163.701 435.794 162.631 436.523 161.722C437.252 160.803 437.792 159.941 438.142 159.136C438.502 158.322 438.682 157.47 438.682 156.58C438.682 155.557 438.436 154.671 437.943 153.923C437.46 153.175 436.797 152.598 435.955 152.19C435.112 151.783 434.165 151.58 433.114 151.58C431.996 151.58 431.021 151.812 430.188 152.276C429.364 152.73 428.724 153.369 428.27 154.193C427.825 155.017 427.602 155.983 427.602 157.091H424.25C424.25 155.386 424.643 153.89 425.429 152.602C426.215 151.314 427.285 150.311 428.639 149.591C430.003 148.871 431.532 148.511 433.227 148.511C434.932 148.511 436.442 148.871 437.759 149.591C439.075 150.311 440.107 151.281 440.855 152.503C441.603 153.724 441.977 155.083 441.977 156.58C441.977 157.65 441.783 158.696 441.395 159.719C441.016 160.732 440.353 161.864 439.406 163.114C438.469 164.354 437.167 165.869 435.5 167.659L428.966 174.648V174.875H442.489V178H424.136Z" fill="white"/>
<path d="M532.332 148.909V178H528.81V152.602H528.639L521.537 157.318V153.739L528.81 148.909H532.332ZM540.699 178V175.443L550.301 164.932C551.428 163.701 552.356 162.631 553.085 161.722C553.814 160.803 554.354 159.941 554.705 159.136C555.064 158.322 555.244 157.47 555.244 156.58C555.244 155.557 554.998 154.671 554.506 153.923C554.023 153.175 553.36 152.598 552.517 152.19C551.674 151.783 550.727 151.58 549.676 151.58C548.559 151.58 547.583 151.812 546.75 152.276C545.926 152.73 545.287 153.369 544.832 154.193C544.387 155.017 544.165 155.983 544.165 157.091H540.812C540.812 155.386 541.205 153.89 541.991 152.602C542.777 151.314 543.848 150.311 545.202 149.591C546.565 148.871 548.095 148.511 549.79 148.511C551.494 148.511 553.005 148.871 554.321 149.591C555.637 150.311 556.67 151.281 557.418 152.503C558.166 153.724 558.54 155.083 558.54 156.58C558.54 157.65 558.346 158.696 557.957 159.719C557.579 160.732 556.916 161.864 555.969 163.114C555.031 164.354 553.729 165.869 552.062 167.659L545.528 174.648V174.875H559.051V178H540.699Z" fill="white"/>
<path d="M244.561 35.4508C245.146 36.0366 245.146 36.9864 244.561 37.5722L235.015 47.1181C234.429 47.7039 233.479 47.7039 232.893 47.1181C232.308 46.5323 232.308 45.5826 232.893 44.9968L241.379 36.5115L232.893 28.0262C232.308 27.4404 232.308 26.4907 232.893 25.9049C233.479 25.3191 234.429 25.3191 235.015 25.9049L244.561 35.4508ZM64.5 36.5115H63V35.0115L64.5 35.0115L64.5 36.5115ZM243.5 36.5115L243.5 38.0115L64.5 38.0115L64.5 36.5115L64.5 35.0115L243.5 35.0115L243.5 36.5115ZM64.5 36.5115H66L66 80.0229H64.5H63L63 36.5115H64.5Z" fill="#717171"/>
<path d="M366.061 296.561C366.646 295.975 366.646 295.025 366.061 294.439L356.515 284.893C355.929 284.308 354.979 284.308 354.393 284.893C353.808 285.479 353.808 286.429 354.393 287.015L362.879 295.5L354.393 303.985C353.808 304.571 353.808 305.521 354.393 306.107C354.979 306.692 355.929 306.692 356.515 306.107L366.061 296.561ZM182.5 295.5H181V297L182.5 297L182.5 295.5ZM365 295.5L365 294L182.5 294L182.5 295.5L182.5 297L365 297L365 295.5ZM182.5 295.5H184V251.989H182.5H181V295.5H182.5Z" fill="#717171"/>
</svg>
