<svg width="648" height="213" viewBox="0 0 648 213" fill="none" xmlns="http://www.w3.org/2000/svg">
<rect x="25" y="92" width="599" height="120" rx="26" stroke="#DBDBDB" stroke-width="2"/>
<line x1="145" y1="91" x2="145" y2="213" stroke="#DBDBDB" stroke-width="2"/>
<line x1="265" y1="91" x2="265" y2="213" stroke="#DBDBDB" stroke-width="2"/>
<line x1="386" y1="91" x2="386" y2="213" stroke="#DBDBDB" stroke-width="2"/>
<line x1="506" y1="91" x2="506" y2="213" stroke="#DBDBDB" stroke-width="2"/>
<path d="M75.3324 136.909V166H71.8097V140.602H71.6392L64.5369 145.318V141.739L71.8097 136.909H75.3324ZM83.6989 166V163.443L93.3011 152.932C94.428 151.701 95.3561 150.631 96.0852 149.722C96.8144 148.803 97.3542 147.941 97.7045 147.136C98.0644 146.322 98.2443 145.47 98.2443 144.58C98.2443 143.557 97.9981 142.671 97.5057 141.923C97.0227 141.175 96.3598 140.598 95.517 140.19C94.6742 139.783 93.7273 139.58 92.6761 139.58C91.5587 139.58 90.5833 139.812 89.75 140.276C88.9261 140.73 88.2869 141.369 87.8324 142.193C87.3873 143.017 87.1648 143.983 87.1648 145.091H83.8125C83.8125 143.386 84.2055 141.89 84.9915 140.602C85.7775 139.314 86.8475 138.311 88.2017 137.591C89.5653 136.871 91.0947 136.511 92.7898 136.511C94.4943 136.511 96.0047 136.871 97.321 137.591C98.6373 138.311 99.6695 139.281 100.418 140.503C101.166 141.724 101.54 143.083 101.54 144.58C101.54 145.65 101.346 146.696 100.957 147.719C100.579 148.732 99.9157 149.864 98.9688 151.114C98.0312 152.354 96.7292 153.869 95.0625 155.659L88.5284 162.648V162.875H102.051V166H83.6989Z" fill="white"/>
<path d="M194.961 136.909V166H191.439V140.602H191.268L184.166 145.318V141.739L191.439 136.909H194.961ZM212.589 136.511C213.782 136.521 214.975 136.748 216.169 137.193C217.362 137.638 218.451 138.377 219.436 139.409C220.421 140.432 221.211 141.829 221.808 143.599C222.404 145.37 222.703 147.591 222.703 150.261C222.703 152.847 222.457 155.143 221.964 157.151C221.481 159.149 220.78 160.834 219.862 162.207C218.953 163.58 217.845 164.622 216.538 165.332C215.241 166.043 213.773 166.398 212.135 166.398C210.506 166.398 209.052 166.076 207.774 165.432C206.505 164.778 205.463 163.874 204.649 162.719C203.844 161.554 203.328 160.205 203.1 158.67H206.566C206.879 160.006 207.499 161.109 208.427 161.98C209.365 162.842 210.6 163.273 212.135 163.273C214.379 163.273 216.15 162.293 217.447 160.332C218.754 158.372 219.407 155.602 219.407 152.023H219.18C218.65 152.818 218.02 153.505 217.291 154.082C216.562 154.66 215.752 155.105 214.862 155.418C213.972 155.73 213.025 155.886 212.021 155.886C210.354 155.886 208.825 155.474 207.433 154.651C206.05 153.817 204.942 152.676 204.109 151.227C203.285 149.769 202.873 148.102 202.873 146.227C202.873 144.447 203.271 142.818 204.066 141.341C204.871 139.854 205.998 138.67 207.447 137.79C208.905 136.909 210.619 136.483 212.589 136.511ZM212.589 139.636C211.396 139.636 210.321 139.935 209.365 140.531C208.418 141.118 207.665 141.914 207.106 142.918C206.557 143.912 206.282 145.015 206.282 146.227C206.282 147.439 206.547 148.543 207.078 149.537C207.618 150.522 208.351 151.308 209.279 151.895C210.217 152.473 211.282 152.761 212.475 152.761C213.375 152.761 214.213 152.586 214.99 152.236C215.766 151.876 216.443 151.388 217.021 150.773C217.608 150.148 218.067 149.442 218.399 148.656C218.73 147.861 218.896 147.032 218.896 146.17C218.896 145.034 218.621 143.969 218.072 142.974C217.532 141.98 216.784 141.175 215.828 140.56C214.881 139.944 213.801 139.636 212.589 139.636Z" fill="white"/>
<path d="M302.976 166V163.443L312.578 152.932C313.705 151.701 314.633 150.631 315.363 149.722C316.092 148.803 316.632 147.941 316.982 147.136C317.342 146.322 317.522 145.47 317.522 144.58C317.522 143.557 317.275 142.671 316.783 141.923C316.3 141.175 315.637 140.598 314.794 140.19C313.952 139.783 313.005 139.58 311.953 139.58C310.836 139.58 309.861 139.812 309.027 140.276C308.203 140.73 307.564 141.369 307.11 142.193C306.665 143.017 306.442 143.983 306.442 145.091H303.09C303.09 143.386 303.483 141.89 304.269 140.602C305.055 139.314 306.125 138.311 307.479 137.591C308.843 136.871 310.372 136.511 312.067 136.511C313.772 136.511 315.282 136.871 316.598 137.591C317.915 138.311 318.947 139.281 319.695 140.503C320.443 141.724 320.817 143.083 320.817 144.58C320.817 145.65 320.623 146.696 320.235 147.719C319.856 148.732 319.193 149.864 318.246 151.114C317.309 152.354 316.007 153.869 314.34 155.659L307.806 162.648V162.875H321.328V166H302.976ZM328.104 166L341.115 140.261V140.034H326.115V136.909H344.752V140.205L331.797 166H328.104Z" fill="white"/>
<path d="M181.782 24.2756C181.669 23.1297 181.181 22.2396 180.319 21.6051C179.458 20.9706 178.288 20.6534 176.811 20.6534C175.807 20.6534 174.959 20.7955 174.268 21.0795C173.577 21.3542 173.047 21.7377 172.677 22.2301C172.317 22.7225 172.137 23.2812 172.137 23.9062C172.118 24.4271 172.227 24.8816 172.464 25.2699C172.71 25.6581 173.047 25.9943 173.473 26.2784C173.899 26.553 174.391 26.7945 174.95 27.0028C175.509 27.2017 176.105 27.3722 176.74 27.5142L179.353 28.1392C180.622 28.4233 181.787 28.8021 182.848 29.2756C183.908 29.7491 184.827 30.3314 185.603 31.0227C186.38 31.714 186.981 32.5284 187.407 33.4659C187.843 34.4034 188.065 35.4782 188.075 36.6903C188.065 38.4706 187.611 40.0142 186.711 41.321C185.821 42.6184 184.533 43.6269 182.848 44.3466C181.172 45.0568 179.15 45.4119 176.782 45.4119C174.434 45.4119 172.388 45.0521 170.646 44.3324C168.913 43.6127 167.559 42.5473 166.583 41.1364C165.618 39.7159 165.111 37.9593 165.064 35.8665H171.015C171.082 36.8419 171.361 37.6562 171.853 38.3097C172.355 38.9536 173.023 39.4413 173.856 39.7727C174.699 40.0947 175.651 40.2557 176.711 40.2557C177.753 40.2557 178.657 40.1042 179.424 39.8011C180.201 39.4981 180.802 39.0767 181.228 38.5369C181.654 37.9972 181.868 37.3769 181.868 36.6761C181.868 36.0227 181.673 35.4735 181.285 35.0284C180.906 34.5833 180.348 34.2045 179.609 33.892C178.88 33.5795 177.985 33.2955 176.924 33.0398L173.757 32.2443C171.304 31.6477 169.368 30.715 167.947 29.446C166.527 28.1771 165.821 26.4678 165.831 24.3182C165.821 22.5568 166.29 21.018 167.237 19.7017C168.193 18.3854 169.505 17.358 171.172 16.6193C172.838 15.8807 174.732 15.5114 176.853 15.5114C179.012 15.5114 180.897 15.8807 182.507 16.6193C184.126 17.358 185.386 18.3854 186.285 19.7017C187.185 21.018 187.649 22.5426 187.677 24.2756H181.782ZM201.956 45.4261C199.75 45.4261 197.842 44.9574 196.232 44.0199C194.632 43.0729 193.396 41.7566 192.525 40.071C191.653 38.3759 191.218 36.411 191.218 34.1761C191.218 31.9223 191.653 29.9527 192.525 28.267C193.396 26.572 194.632 25.2557 196.232 24.3182C197.842 23.3712 199.75 22.8977 201.956 22.8977C204.163 22.8977 206.066 23.3712 207.667 24.3182C209.276 25.2557 210.517 26.572 211.388 28.267C212.259 29.9527 212.695 31.9223 212.695 34.1761C212.695 36.411 212.259 38.3759 211.388 40.071C210.517 41.7566 209.276 43.0729 207.667 44.0199C206.066 44.9574 204.163 45.4261 201.956 45.4261ZM201.985 40.7386C202.989 40.7386 203.827 40.4545 204.499 39.8864C205.171 39.3087 205.678 38.5227 206.019 37.5284C206.369 36.5341 206.544 35.4025 206.544 34.1335C206.544 32.8646 206.369 31.733 206.019 30.7386C205.678 29.7443 205.171 28.9583 204.499 28.3807C203.827 27.803 202.989 27.5142 201.985 27.5142C200.971 27.5142 200.119 27.803 199.428 28.3807C198.746 28.9583 198.23 29.7443 197.88 30.7386C197.539 31.733 197.368 32.8646 197.368 34.1335C197.368 35.4025 197.539 36.5341 197.88 37.5284C198.23 38.5227 198.746 39.3087 199.428 39.8864C200.119 40.4545 200.971 40.7386 201.985 40.7386ZM216.63 45V23.1818H222.496V26.9886H222.723C223.121 25.6345 223.789 24.6117 224.726 23.9205C225.664 23.2197 226.743 22.8693 227.965 22.8693C228.268 22.8693 228.595 22.8883 228.945 22.9261C229.295 22.964 229.603 23.0161 229.868 23.0824V28.4517C229.584 28.3665 229.191 28.2907 228.689 28.2244C228.187 28.1581 227.728 28.125 227.311 28.125C226.421 28.125 225.626 28.3191 224.925 28.7074C224.234 29.0862 223.685 29.6165 223.277 30.2983C222.88 30.9801 222.681 31.7661 222.681 32.6562V45H216.63ZM245.696 23.1818V27.7273H232.556V23.1818H245.696ZM235.539 17.9545H241.591V38.2955C241.591 38.8542 241.676 39.2898 241.846 39.6023C242.017 39.9053 242.253 40.1184 242.556 40.2415C242.869 40.3646 243.229 40.4261 243.636 40.4261C243.92 40.4261 244.204 40.4025 244.488 40.3551C244.772 40.2983 244.99 40.2557 245.142 40.2273L246.093 44.7301C245.79 44.8248 245.364 44.9337 244.815 45.0568C244.266 45.1894 243.598 45.2699 242.812 45.2983C241.354 45.3551 240.075 45.161 238.977 44.7159C237.888 44.2708 237.04 43.5795 236.434 42.642C235.828 41.7045 235.53 40.5208 235.539 39.0909V17.9545ZM259.346 45.4261C257.102 45.4261 255.17 44.9716 253.551 44.0625C251.941 43.1439 250.7 41.8466 249.829 40.1705C248.958 38.4848 248.522 36.4915 248.522 34.1903C248.522 31.946 248.958 29.9763 249.829 28.2812C250.7 26.5862 251.927 25.2652 253.508 24.3182C255.099 23.3712 256.965 22.8977 259.105 22.8977C260.544 22.8977 261.884 23.1297 263.125 23.5938C264.375 24.0483 265.464 24.7348 266.392 25.6534C267.329 26.572 268.058 27.7273 268.579 29.1193C269.1 30.5019 269.36 32.1212 269.36 33.9773V35.6392H250.937V31.8892H263.664C263.664 31.018 263.475 30.2462 263.096 29.5739C262.717 28.9015 262.192 28.3759 261.52 27.9972C260.857 27.6089 260.085 27.4148 259.204 27.4148C258.286 27.4148 257.471 27.6278 256.761 28.054C256.06 28.4706 255.511 29.0341 255.113 29.7443C254.716 30.4451 254.512 31.2263 254.502 32.0881V35.6534C254.502 36.733 254.701 37.6657 255.099 38.4517C255.506 39.2377 256.079 39.8438 256.818 40.2699C257.556 40.696 258.432 40.9091 259.446 40.9091C260.118 40.9091 260.734 40.8144 261.292 40.625C261.851 40.4356 262.329 40.1515 262.727 39.7727C263.125 39.3939 263.428 38.9299 263.636 38.3807L269.233 38.75C268.949 40.0947 268.366 41.2689 267.485 42.2727C266.614 43.267 265.487 44.0436 264.105 44.6023C262.732 45.1515 261.145 45.4261 259.346 45.4261ZM281.349 45.3551C279.692 45.3551 278.191 44.929 276.846 44.0767C275.511 43.215 274.45 41.9508 273.664 40.2841C272.888 38.608 272.5 36.553 272.5 34.1193C272.5 31.6193 272.902 29.5407 273.707 27.8835C274.512 26.2169 275.582 24.9716 276.917 24.1477C278.262 23.3144 279.734 22.8977 281.335 22.8977C282.556 22.8977 283.574 23.1061 284.389 23.5227C285.213 23.9299 285.876 24.4413 286.377 25.0568C286.889 25.6629 287.277 26.2595 287.542 26.8466H287.727V15.9091H293.764V45H287.798V41.5057H287.542C287.258 42.1117 286.856 42.7131 286.335 43.3097C285.824 43.8968 285.156 44.3845 284.332 44.7727C283.518 45.161 282.523 45.3551 281.349 45.3551ZM283.267 40.5398C284.242 40.5398 285.066 40.2746 285.738 39.7443C286.42 39.2045 286.941 38.4517 287.301 37.4858C287.67 36.5199 287.855 35.3883 287.855 34.0909C287.855 32.7936 287.675 31.6667 287.315 30.7102C286.955 29.7538 286.434 29.0152 285.752 28.4943C285.071 27.9735 284.242 27.7131 283.267 27.7131C282.272 27.7131 281.434 27.983 280.752 28.5227C280.071 29.0625 279.555 29.8106 279.204 30.767C278.854 31.7235 278.679 32.8314 278.679 34.0909C278.679 35.3598 278.854 36.482 279.204 37.4574C279.564 38.4233 280.08 39.1809 280.752 39.7301C281.434 40.2699 282.272 40.5398 283.267 40.5398ZM332.443 15.9091V45H327.13L314.474 26.6903H314.261V45H308.11V15.9091H313.508L326.065 34.2045H326.321V15.9091H332.443ZM351.402 35.7102V23.1818H357.453V45H351.644V41.0369H351.417C350.924 42.3153 350.105 43.3428 348.959 44.1193C347.823 44.8958 346.435 45.2841 344.797 45.2841C343.339 45.2841 342.056 44.9527 340.948 44.2898C339.84 43.6269 338.973 42.6847 338.348 41.4631C337.733 40.2415 337.42 38.7784 337.411 37.0739V23.1818H343.462V35.9943C343.471 37.2822 343.817 38.3002 344.499 39.0483C345.181 39.7964 346.095 40.1705 347.24 40.1705C347.97 40.1705 348.651 40.0047 349.286 39.6733C349.92 39.3324 350.432 38.8305 350.82 38.1676C351.218 37.5047 351.412 36.6856 351.402 35.7102ZM362.294 45V23.1818H368.061V27.0312H368.316C368.771 25.7528 369.529 24.7443 370.589 24.0057C371.65 23.267 372.919 22.8977 374.396 22.8977C375.892 22.8977 377.166 23.2718 378.217 24.0199C379.268 24.7585 379.969 25.7623 380.319 27.0312H380.547C380.992 25.7812 381.797 24.7822 382.961 24.0341C384.136 23.2765 385.523 22.8977 387.123 22.8977C389.159 22.8977 390.812 23.5464 392.081 24.8438C393.359 26.1316 393.998 27.9593 393.998 30.3267V45H387.961V31.5199C387.961 30.3078 387.639 29.3987 386.995 28.7926C386.351 28.1866 385.547 27.8835 384.581 27.8835C383.482 27.8835 382.625 28.2339 382.01 28.9347C381.394 29.6259 381.086 30.5398 381.086 31.6761V45H375.22V31.392C375.22 30.322 374.912 29.4697 374.297 28.8352C373.69 28.2008 372.89 27.8835 371.896 27.8835C371.224 27.8835 370.618 28.054 370.078 28.3949C369.547 28.7263 369.126 29.1951 368.814 29.8011C368.501 30.3977 368.345 31.0985 368.345 31.9034V45H362.294ZM398.892 45V15.9091H404.943V26.8466H405.127C405.393 26.2595 405.776 25.6629 406.278 25.0568C406.789 24.4413 407.452 23.9299 408.267 23.5227C409.091 23.1061 410.113 22.8977 411.335 22.8977C412.926 22.8977 414.394 23.3144 415.738 24.1477C417.083 24.9716 418.158 26.2169 418.963 27.8835C419.768 29.5407 420.17 31.6193 420.17 34.1193C420.17 36.553 419.777 38.608 418.991 40.2841C418.215 41.9508 417.154 43.215 415.809 44.0767C414.474 44.929 412.978 45.3551 411.321 45.3551C410.146 45.3551 409.147 45.161 408.324 44.7727C407.509 44.3845 406.842 43.8968 406.321 43.3097C405.8 42.7131 405.402 42.1117 405.127 41.5057H404.858V45H398.892ZM404.815 34.0909C404.815 35.3883 404.995 36.5199 405.355 37.4858C405.715 38.4517 406.235 39.2045 406.917 39.7443C407.599 40.2746 408.428 40.5398 409.403 40.5398C410.388 40.5398 411.221 40.2699 411.903 39.7301C412.585 39.1809 413.101 38.4233 413.451 37.4574C413.811 36.482 413.991 35.3598 413.991 34.0909C413.991 32.8314 413.816 31.7235 413.466 30.767C413.115 29.8106 412.599 29.0625 411.917 28.5227C411.235 27.983 410.397 27.7131 409.403 27.7131C408.418 27.7131 407.585 27.9735 406.903 28.4943C406.231 29.0152 405.715 29.7538 405.355 30.7102C404.995 31.6667 404.815 32.7936 404.815 34.0909ZM434.151 45.4261C431.907 45.4261 429.975 44.9716 428.355 44.0625C426.746 43.1439 425.505 41.8466 424.634 40.1705C423.763 38.4848 423.327 36.4915 423.327 34.1903C423.327 31.946 423.763 29.9763 424.634 28.2812C425.505 26.5862 426.731 25.2652 428.313 24.3182C429.904 23.3712 431.769 22.8977 433.909 22.8977C435.349 22.8977 436.689 23.1297 437.929 23.5938C439.179 24.0483 440.268 24.7348 441.196 25.6534C442.134 26.572 442.863 27.7273 443.384 29.1193C443.905 30.5019 444.165 32.1212 444.165 33.9773V35.6392H425.742V31.8892H438.469C438.469 31.018 438.28 30.2462 437.901 29.5739C437.522 28.9015 436.997 28.3759 436.324 27.9972C435.661 27.6089 434.89 27.4148 434.009 27.4148C433.09 27.4148 432.276 27.6278 431.566 28.054C430.865 28.4706 430.316 29.0341 429.918 29.7443C429.52 30.4451 429.317 31.2263 429.307 32.0881V35.6534C429.307 36.733 429.506 37.6657 429.904 38.4517C430.311 39.2377 430.884 39.8438 431.623 40.2699C432.361 40.696 433.237 40.9091 434.25 40.9091C434.923 40.9091 435.538 40.8144 436.097 40.625C436.656 40.4356 437.134 40.1515 437.532 39.7727C437.929 39.3939 438.232 38.9299 438.441 38.3807L444.037 38.75C443.753 40.0947 443.171 41.2689 442.29 42.2727C441.419 43.267 440.292 44.0436 438.909 44.6023C437.536 45.1515 435.95 45.4261 434.151 45.4261ZM448.114 45V23.1818H453.98V26.9886H454.208C454.605 25.6345 455.273 24.6117 456.211 23.9205C457.148 23.2197 458.228 22.8693 459.449 22.8693C459.752 22.8693 460.079 22.8883 460.429 22.9261C460.78 22.964 461.087 23.0161 461.353 23.0824V28.4517C461.069 28.3665 460.676 28.2907 460.174 28.2244C459.672 28.1581 459.212 28.125 458.796 28.125C457.906 28.125 457.11 28.3191 456.409 28.7074C455.718 29.0862 455.169 29.6165 454.762 30.2983C454.364 30.9801 454.165 31.7661 454.165 32.6562V45H448.114ZM482.635 29.4034L477.095 29.7443C477 29.2708 476.797 28.8447 476.484 28.4659C476.172 28.0777 475.76 27.7699 475.248 27.5426C474.746 27.3059 474.145 27.1875 473.444 27.1875C472.507 27.1875 471.716 27.3864 471.072 27.7841C470.428 28.1723 470.106 28.6932 470.106 29.3466C470.106 29.8674 470.315 30.3078 470.731 30.6676C471.148 31.0275 471.863 31.3163 472.876 31.5341L476.825 32.3295C478.946 32.7652 480.528 33.4659 481.569 34.4318C482.611 35.3977 483.132 36.6667 483.132 38.2386C483.132 39.6686 482.71 40.9233 481.868 42.0028C481.034 43.0824 479.888 43.9252 478.43 44.5312C476.981 45.1278 475.31 45.4261 473.416 45.4261C470.528 45.4261 468.226 44.8248 466.512 43.6222C464.808 42.41 463.809 40.7623 463.515 38.679L469.467 38.3665C469.647 39.2472 470.083 39.9195 470.774 40.3835C471.465 40.8381 472.35 41.0653 473.43 41.0653C474.491 41.0653 475.343 40.8617 475.987 40.4545C476.64 40.0379 476.972 39.5028 476.981 38.8494C476.972 38.3002 476.74 37.8504 476.285 37.5C475.831 37.1402 475.13 36.8655 474.183 36.6761L470.404 35.9233C468.274 35.4972 466.688 34.7585 465.646 33.7074C464.614 32.6562 464.098 31.3163 464.098 29.6875C464.098 28.286 464.476 27.0786 465.234 26.0653C466.001 25.0521 467.076 24.2708 468.458 23.7216C469.85 23.1723 471.479 22.8977 473.345 22.8977C476.1 22.8977 478.269 23.4801 479.85 24.6449C481.441 25.8097 482.369 27.3958 482.635 29.4034Z" fill="white"/>
<path d="M432.497 166.398C430.622 166.398 428.951 166.076 427.483 165.432C426.025 164.788 424.865 163.893 424.003 162.747C423.151 161.592 422.687 160.252 422.611 158.727H426.19C426.266 159.665 426.588 160.474 427.156 161.156C427.724 161.829 428.468 162.349 429.386 162.719C430.305 163.088 431.323 163.273 432.44 163.273C433.69 163.273 434.798 163.055 435.764 162.619C436.73 162.184 437.488 161.578 438.037 160.801C438.586 160.025 438.861 159.125 438.861 158.102C438.861 157.032 438.596 156.09 438.065 155.276C437.535 154.452 436.759 153.808 435.736 153.344C434.713 152.88 433.463 152.648 431.986 152.648H429.656V149.523H431.986C433.141 149.523 434.154 149.314 435.026 148.898C435.906 148.481 436.593 147.894 437.085 147.136C437.587 146.379 437.838 145.489 437.838 144.466C437.838 143.481 437.62 142.624 437.185 141.895C436.749 141.166 436.134 140.598 435.338 140.19C434.552 139.783 433.624 139.58 432.554 139.58C431.55 139.58 430.603 139.764 429.713 140.134C428.832 140.493 428.113 141.019 427.554 141.71C426.995 142.392 426.692 143.216 426.645 144.182H423.236C423.293 142.657 423.752 141.322 424.614 140.176C425.475 139.021 426.602 138.121 427.994 137.477C429.396 136.833 430.935 136.511 432.611 136.511C434.41 136.511 435.954 136.876 437.241 137.605C438.529 138.325 439.519 139.277 440.21 140.46C440.902 141.644 441.247 142.922 441.247 144.295C441.247 145.934 440.816 147.33 439.955 148.486C439.102 149.641 437.942 150.441 436.474 150.886V151.114C438.312 151.417 439.746 152.198 440.778 153.457C441.811 154.707 442.327 156.256 442.327 158.102C442.327 159.684 441.896 161.104 441.034 162.364C440.182 163.614 439.017 164.598 437.54 165.318C436.063 166.038 434.382 166.398 432.497 166.398ZM448.136 166V163.443L457.739 152.932C458.866 151.701 459.794 150.631 460.523 149.722C461.252 148.803 461.792 147.941 462.142 147.136C462.502 146.322 462.682 145.47 462.682 144.58C462.682 143.557 462.436 142.671 461.943 141.923C461.46 141.175 460.797 140.598 459.955 140.19C459.112 139.783 458.165 139.58 457.114 139.58C455.996 139.58 455.021 139.812 454.188 140.276C453.364 140.73 452.724 141.369 452.27 142.193C451.825 143.017 451.602 143.983 451.602 145.091H448.25C448.25 143.386 448.643 141.89 449.429 140.602C450.215 139.314 451.285 138.311 452.639 137.591C454.003 136.871 455.532 136.511 457.227 136.511C458.932 136.511 460.442 136.871 461.759 137.591C463.075 138.311 464.107 139.281 464.855 140.503C465.603 141.724 465.977 143.083 465.977 144.58C465.977 145.65 465.783 146.696 465.395 147.719C465.016 148.732 464.353 149.864 463.406 151.114C462.469 152.354 461.167 153.869 459.5 155.659L452.966 162.648V162.875H466.489V166H448.136Z" fill="white"/>
<path d="M542.572 160.034V157.136L555.356 136.909H557.458V141.398H556.038L546.379 156.682V156.909H563.594V160.034H542.572ZM556.265 166V159.153V157.804V136.909H559.617V166H556.265ZM569.827 166L582.838 140.261V140.034H567.838V136.909H586.474V140.205L573.52 166H569.827Z" fill="white"/>
</svg>
