<svg width="1887" height="428" viewBox="0 0 1887 428" fill="none" xmlns="http://www.w3.org/2000/svg">
<path d="M258.498 346.034V342.909H280.316V346.034H271.168V372H267.645V346.034H258.498ZM290.998 372.455C289.028 372.455 287.3 371.986 285.813 371.048C284.336 370.111 283.18 368.799 282.347 367.114C281.523 365.428 281.111 363.458 281.111 361.205C281.111 358.932 281.523 356.948 282.347 355.253C283.18 353.558 284.336 352.241 285.813 351.304C287.3 350.366 289.028 349.898 290.998 349.898C292.967 349.898 294.691 350.366 296.168 351.304C297.655 352.241 298.81 353.558 299.634 355.253C300.467 356.948 300.884 358.932 300.884 361.205C300.884 363.458 300.467 365.428 299.634 367.114C298.81 368.799 297.655 370.111 296.168 371.048C294.691 371.986 292.967 372.455 290.998 372.455ZM290.998 369.443C292.494 369.443 293.725 369.06 294.691 368.293C295.657 367.526 296.372 366.517 296.836 365.267C297.3 364.017 297.532 362.663 297.532 361.205C297.532 359.746 297.3 358.387 296.836 357.128C296.372 355.868 295.657 354.85 294.691 354.074C293.725 353.297 292.494 352.909 290.998 352.909C289.501 352.909 288.27 353.297 287.304 354.074C286.339 354.85 285.624 355.868 285.16 357.128C284.696 358.387 284.464 359.746 284.464 361.205C284.464 362.663 284.696 364.017 285.16 365.267C285.624 366.517 286.339 367.526 287.304 368.293C288.27 369.06 289.501 369.443 290.998 369.443ZM314.865 372.455C312.895 372.455 311.167 371.986 309.68 371.048C308.203 370.111 307.048 368.799 306.214 367.114C305.39 365.428 304.978 363.458 304.978 361.205C304.978 358.932 305.39 356.948 306.214 355.253C307.048 353.558 308.203 352.241 309.68 351.304C311.167 350.366 312.895 349.898 314.865 349.898C316.834 349.898 318.558 350.366 320.035 351.304C321.522 352.241 322.677 353.558 323.501 355.253C324.334 356.948 324.751 358.932 324.751 361.205C324.751 363.458 324.334 365.428 323.501 367.114C322.677 368.799 321.522 370.111 320.035 371.048C318.558 371.986 316.834 372.455 314.865 372.455ZM314.865 369.443C316.361 369.443 317.592 369.06 318.558 368.293C319.524 367.526 320.239 366.517 320.703 365.267C321.167 364.017 321.399 362.663 321.399 361.205C321.399 359.746 321.167 358.387 320.703 357.128C320.239 355.868 319.524 354.85 318.558 354.074C317.592 353.297 316.361 352.909 314.865 352.909C313.369 352.909 312.138 353.297 311.172 354.074C310.206 354.85 309.491 355.868 309.027 357.128C308.563 358.387 308.331 359.746 308.331 361.205C308.331 362.663 308.563 364.017 309.027 365.267C309.491 366.517 310.206 367.526 311.172 368.293C312.138 369.06 313.369 369.443 314.865 369.443ZM356.573 355.068L353.562 355.92C353.372 355.419 353.093 354.931 352.723 354.457C352.364 353.974 351.871 353.577 351.246 353.264C350.621 352.952 349.821 352.795 348.846 352.795C347.51 352.795 346.398 353.103 345.508 353.719C344.627 354.325 344.187 355.097 344.187 356.034C344.187 356.867 344.49 357.526 345.096 358.009C345.702 358.491 346.649 358.894 347.937 359.216L351.175 360.011C353.126 360.485 354.58 361.209 355.536 362.185C356.492 363.151 356.971 364.396 356.971 365.92C356.971 367.17 356.611 368.288 355.891 369.273C355.181 370.258 354.187 371.034 352.908 371.602C351.63 372.17 350.143 372.455 348.448 372.455C346.223 372.455 344.381 371.972 342.922 371.006C341.464 370.04 340.541 368.629 340.152 366.773L343.334 365.977C343.637 367.152 344.21 368.032 345.053 368.619C345.905 369.206 347.018 369.5 348.391 369.5C349.954 369.5 351.194 369.169 352.113 368.506C353.041 367.833 353.505 367.028 353.505 366.091C353.505 365.333 353.24 364.699 352.709 364.188C352.179 363.667 351.365 363.278 350.266 363.023L346.63 362.17C344.632 361.697 343.164 360.963 342.226 359.969C341.298 358.965 340.834 357.71 340.834 356.205C340.834 354.973 341.18 353.884 341.871 352.938C342.572 351.991 343.524 351.247 344.726 350.707C345.938 350.168 347.312 349.898 348.846 349.898C351.005 349.898 352.7 350.371 353.931 351.318C355.171 352.265 356.052 353.515 356.573 355.068ZM362.017 372V350.182H365.255V353.591H365.54C365.994 352.426 366.728 351.522 367.741 350.878C368.754 350.224 369.971 349.898 371.392 349.898C372.831 349.898 374.029 350.224 374.986 350.878C375.951 351.522 376.704 352.426 377.244 353.591H377.471C378.03 352.464 378.868 351.569 379.986 350.906C381.103 350.234 382.443 349.898 384.005 349.898C385.956 349.898 387.552 350.509 388.792 351.73C390.033 352.942 390.653 354.831 390.653 357.398V372H387.301V357.398C387.301 355.788 386.861 354.637 385.98 353.946C385.099 353.255 384.062 352.909 382.869 352.909C381.335 352.909 380.147 353.373 379.304 354.301C378.461 355.22 378.04 356.384 378.04 357.795V372H374.63V357.057C374.63 355.816 374.228 354.817 373.423 354.06C372.618 353.293 371.581 352.909 370.312 352.909C369.441 352.909 368.627 353.141 367.869 353.605C367.121 354.069 366.515 354.713 366.051 355.537C365.596 356.351 365.369 357.294 365.369 358.364V372H362.017ZM403.203 372.511C401.82 372.511 400.566 372.251 399.439 371.73C398.312 371.2 397.417 370.438 396.754 369.443C396.091 368.439 395.76 367.227 395.76 365.807C395.76 364.557 396.006 363.544 396.498 362.767C396.991 361.981 397.649 361.366 398.473 360.92C399.297 360.475 400.206 360.144 401.2 359.926C402.204 359.699 403.212 359.519 404.226 359.386C405.551 359.216 406.626 359.088 407.45 359.003C408.283 358.908 408.889 358.752 409.268 358.534C409.656 358.316 409.851 357.937 409.851 357.398V357.284C409.851 355.883 409.467 354.794 408.7 354.017C407.942 353.241 406.792 352.852 405.248 352.852C403.648 352.852 402.393 353.203 401.484 353.903C400.575 354.604 399.936 355.352 399.567 356.148L396.385 355.011C396.953 353.686 397.71 352.653 398.657 351.915C399.614 351.167 400.656 350.646 401.782 350.352C402.919 350.049 404.036 349.898 405.135 349.898C405.835 349.898 406.64 349.983 407.549 350.153C408.468 350.314 409.353 350.651 410.206 351.162C411.067 351.673 411.782 352.445 412.351 353.477C412.919 354.509 413.203 355.892 413.203 357.625V372H409.851V369.045H409.68C409.453 369.519 409.074 370.026 408.544 370.565C408.013 371.105 407.308 371.564 406.427 371.943C405.547 372.322 404.472 372.511 403.203 372.511ZM403.714 369.5C405.04 369.5 406.157 369.24 407.067 368.719C407.985 368.198 408.676 367.526 409.14 366.702C409.614 365.878 409.851 365.011 409.851 364.102V361.034C409.709 361.205 409.396 361.361 408.913 361.503C408.44 361.635 407.89 361.754 407.265 361.858C406.65 361.953 406.049 362.038 405.461 362.114C404.884 362.18 404.415 362.237 404.055 362.284C403.184 362.398 402.37 362.582 401.612 362.838C400.864 363.084 400.258 363.458 399.794 363.96C399.339 364.453 399.112 365.125 399.112 365.977C399.112 367.142 399.543 368.023 400.405 368.619C401.276 369.206 402.379 369.5 403.714 369.5ZM422.674 342.909V372H419.321V342.909H422.674ZM432.166 342.909V372H428.814V342.909H432.166ZM459.272 350.182V353.023H447.51V350.182H459.272ZM451.033 372V347.17C451.033 345.92 451.327 344.879 451.914 344.045C452.501 343.212 453.263 342.587 454.201 342.17C455.138 341.754 456.128 341.545 457.169 341.545C457.993 341.545 458.666 341.612 459.187 341.744C459.707 341.877 460.096 342 460.351 342.114L459.385 345.011C459.215 344.955 458.978 344.884 458.675 344.798C458.382 344.713 457.993 344.67 457.51 344.67C456.402 344.67 455.602 344.95 455.11 345.509C454.627 346.067 454.385 346.886 454.385 347.966V372H451.033ZM471.935 372.455C469.965 372.455 468.237 371.986 466.75 371.048C465.273 370.111 464.118 368.799 463.285 367.114C462.461 365.428 462.049 363.458 462.049 361.205C462.049 358.932 462.461 356.948 463.285 355.253C464.118 353.558 465.273 352.241 466.75 351.304C468.237 350.366 469.965 349.898 471.935 349.898C473.905 349.898 475.628 350.366 477.106 351.304C478.592 352.241 479.748 353.558 480.571 355.253C481.405 356.948 481.821 358.932 481.821 361.205C481.821 363.458 481.405 365.428 480.571 367.114C479.748 368.799 478.592 370.111 477.106 371.048C475.628 371.986 473.905 372.455 471.935 372.455ZM471.935 369.443C473.431 369.443 474.662 369.06 475.628 368.293C476.594 367.526 477.309 366.517 477.773 365.267C478.237 364.017 478.469 362.663 478.469 361.205C478.469 359.746 478.237 358.387 477.773 357.128C477.309 355.868 476.594 354.85 475.628 354.074C474.662 353.297 473.431 352.909 471.935 352.909C470.439 352.909 469.208 353.297 468.242 354.074C467.276 354.85 466.561 355.868 466.097 357.128C465.633 358.387 465.401 359.746 465.401 361.205C465.401 362.663 465.633 364.017 466.097 365.267C466.561 366.517 467.276 367.526 468.242 368.293C469.208 369.06 470.439 369.443 471.935 369.443ZM486.939 372V350.182H490.177V353.477H490.405C490.802 352.398 491.522 351.522 492.564 350.849C493.605 350.177 494.78 349.841 496.086 349.841C496.333 349.841 496.64 349.846 497.01 349.855C497.379 349.865 497.658 349.879 497.848 349.898V353.307C497.734 353.278 497.474 353.236 497.067 353.179C496.669 353.113 496.247 353.08 495.802 353.08C494.742 353.08 493.795 353.302 492.961 353.747C492.138 354.183 491.484 354.789 491.001 355.565C490.528 356.332 490.291 357.208 490.291 358.193V372H486.939ZM522.844 372.398C520.969 372.398 519.298 372.076 517.83 371.432C516.372 370.788 515.212 369.893 514.35 368.747C513.498 367.592 513.034 366.252 512.958 364.727H516.537C516.613 365.665 516.935 366.474 517.503 367.156C518.071 367.829 518.815 368.349 519.733 368.719C520.652 369.088 521.67 369.273 522.787 369.273C524.037 369.273 525.145 369.055 526.111 368.619C527.077 368.184 527.835 367.578 528.384 366.801C528.933 366.025 529.208 365.125 529.208 364.102C529.208 363.032 528.943 362.09 528.412 361.276C527.882 360.452 527.106 359.808 526.083 359.344C525.06 358.88 523.81 358.648 522.333 358.648H520.003V355.523H522.333C523.488 355.523 524.501 355.314 525.373 354.898C526.253 354.481 526.94 353.894 527.432 353.136C527.934 352.379 528.185 351.489 528.185 350.466C528.185 349.481 527.967 348.624 527.532 347.895C527.096 347.166 526.481 346.598 525.685 346.19C524.899 345.783 523.971 345.58 522.901 345.58C521.897 345.58 520.95 345.764 520.06 346.134C519.179 346.493 518.46 347.019 517.901 347.71C517.342 348.392 517.039 349.216 516.992 350.182H513.583C513.64 348.657 514.099 347.322 514.961 346.176C515.822 345.021 516.949 344.121 518.341 343.477C519.743 342.833 521.282 342.511 522.958 342.511C524.757 342.511 526.301 342.876 527.589 343.605C528.876 344.325 529.866 345.277 530.557 346.46C531.249 347.644 531.594 348.922 531.594 350.295C531.594 351.934 531.163 353.33 530.302 354.486C529.449 355.641 528.289 356.441 526.821 356.886V357.114C528.659 357.417 530.093 358.198 531.125 359.457C532.158 360.707 532.674 362.256 532.674 364.102C532.674 365.684 532.243 367.104 531.381 368.364C530.529 369.614 529.364 370.598 527.887 371.318C526.41 372.038 524.729 372.398 522.844 372.398ZM547.972 372.398C545.832 372.398 544.009 371.815 542.503 370.651C540.998 369.476 539.847 367.777 539.052 365.551C538.256 363.316 537.858 360.617 537.858 357.455C537.858 354.311 538.256 351.626 539.052 349.401C539.857 347.166 541.012 345.461 542.518 344.287C544.033 343.103 545.851 342.511 547.972 342.511C550.093 342.511 551.907 343.103 553.412 344.287C554.928 345.461 556.083 347.166 556.878 349.401C557.683 351.626 558.086 354.311 558.086 357.455C558.086 360.617 557.688 363.316 556.893 365.551C556.097 367.777 554.946 369.476 553.441 370.651C551.935 371.815 550.112 372.398 547.972 372.398ZM547.972 369.273C550.093 369.273 551.741 368.25 552.915 366.205C554.089 364.159 554.677 361.242 554.677 357.455C554.677 354.936 554.407 352.791 553.867 351.02C553.337 349.249 552.57 347.9 551.566 346.972C550.571 346.044 549.374 345.58 547.972 345.58C545.87 345.58 544.227 346.616 543.043 348.69C541.859 350.755 541.268 353.676 541.268 357.455C541.268 359.973 541.533 362.114 542.063 363.875C542.593 365.636 543.356 366.976 544.35 367.895C545.354 368.813 546.561 369.273 547.972 369.273ZM563.995 372V342.909H567.518V357.341H567.858L580.927 342.909H585.529L573.313 356.034L585.529 372H581.268L571.154 358.477L567.518 362.568V372H563.995ZM590.089 372V342.909H600.259C602.285 342.909 603.957 343.259 605.273 343.96C606.589 344.652 607.57 345.584 608.214 346.759C608.857 347.923 609.179 349.216 609.179 350.636C609.179 351.886 608.957 352.919 608.512 353.733C608.076 354.547 607.499 355.191 606.779 355.665C606.069 356.138 605.297 356.489 604.464 356.716V357C605.354 357.057 606.249 357.369 607.148 357.938C608.048 358.506 608.801 359.32 609.407 360.381C610.013 361.441 610.316 362.739 610.316 364.273C610.316 365.731 609.984 367.043 609.321 368.207C608.659 369.372 607.612 370.295 606.182 370.977C604.752 371.659 602.892 372 600.6 372H590.089ZM593.611 368.875H600.6C602.901 368.875 604.535 368.43 605.5 367.54C606.476 366.64 606.964 365.551 606.964 364.273C606.964 363.288 606.713 362.379 606.211 361.545C605.709 360.703 604.994 360.03 604.066 359.528C603.138 359.017 602.039 358.761 600.77 358.761H593.611V368.875ZM593.611 355.693H600.145C601.206 355.693 602.162 355.485 603.015 355.068C603.876 354.652 604.558 354.064 605.06 353.307C605.571 352.549 605.827 351.659 605.827 350.636C605.827 349.358 605.382 348.274 604.492 347.384C603.602 346.484 602.191 346.034 600.259 346.034H593.611V355.693Z" fill="white"/>
<path d="M1107.62 352H1104.09C1103.88 350.987 1103.52 350.097 1103 349.33C1102.49 348.562 1101.86 347.919 1101.12 347.398C1100.39 346.867 1099.59 346.47 1098.69 346.205C1097.8 345.939 1096.88 345.807 1095.91 345.807C1094.15 345.807 1092.55 346.252 1091.12 347.142C1089.7 348.032 1088.57 349.344 1087.73 351.077C1086.9 352.81 1086.48 354.936 1086.48 357.455C1086.48 359.973 1086.9 362.099 1087.73 363.832C1088.57 365.565 1089.7 366.877 1091.12 367.767C1092.55 368.657 1094.15 369.102 1095.91 369.102C1096.88 369.102 1097.8 368.97 1098.69 368.705C1099.59 368.439 1100.39 368.046 1101.12 367.526C1101.86 366.995 1102.49 366.347 1103 365.58C1103.52 364.803 1103.88 363.913 1104.09 362.909H1107.62C1107.35 364.396 1106.87 365.726 1106.17 366.901C1105.47 368.075 1104.59 369.074 1103.55 369.898C1102.51 370.712 1101.34 371.332 1100.04 371.759C1098.76 372.185 1097.38 372.398 1095.91 372.398C1093.43 372.398 1091.22 371.792 1089.29 370.58C1087.36 369.367 1085.84 367.644 1084.73 365.409C1083.62 363.174 1083.07 360.523 1083.07 357.455C1083.07 354.386 1083.62 351.735 1084.73 349.5C1085.84 347.265 1087.36 345.542 1089.29 344.33C1091.22 343.117 1093.43 342.511 1095.91 342.511C1097.38 342.511 1098.76 342.724 1100.04 343.151C1101.34 343.577 1102.51 344.202 1103.55 345.026C1104.59 345.84 1105.47 346.834 1106.17 348.009C1106.87 349.173 1107.35 350.504 1107.62 352ZM1119.27 372.511C1117.89 372.511 1116.64 372.251 1115.51 371.73C1114.38 371.2 1113.49 370.438 1112.82 369.443C1112.16 368.439 1111.83 367.227 1111.83 365.807C1111.83 364.557 1112.08 363.544 1112.57 362.767C1113.06 361.981 1113.72 361.366 1114.54 360.92C1115.37 360.475 1116.28 360.144 1117.27 359.926C1118.27 359.699 1119.28 359.519 1120.3 359.386C1121.62 359.216 1122.7 359.088 1123.52 359.003C1124.35 358.908 1124.96 358.752 1125.34 358.534C1125.73 358.316 1125.92 357.937 1125.92 357.398V357.284C1125.92 355.883 1125.54 354.794 1124.77 354.017C1124.01 353.241 1122.86 352.852 1121.32 352.852C1119.72 352.852 1118.46 353.203 1117.56 353.903C1116.65 354.604 1116.01 355.352 1115.64 356.148L1112.46 355.011C1113.02 353.686 1113.78 352.653 1114.73 351.915C1115.68 351.167 1116.73 350.646 1117.85 350.352C1118.99 350.049 1120.11 349.898 1121.21 349.898C1121.91 349.898 1122.71 349.983 1123.62 350.153C1124.54 350.314 1125.42 350.651 1126.28 351.162C1127.14 351.673 1127.85 352.445 1128.42 353.477C1128.99 354.509 1129.27 355.892 1129.27 357.625V372H1125.92V369.045H1125.75C1125.52 369.519 1125.15 370.026 1124.61 370.565C1124.08 371.105 1123.38 371.564 1122.5 371.943C1121.62 372.322 1120.54 372.511 1119.27 372.511ZM1119.79 369.5C1121.11 369.5 1122.23 369.24 1123.14 368.719C1124.06 368.198 1124.75 367.526 1125.21 366.702C1125.68 365.878 1125.92 365.011 1125.92 364.102V361.034C1125.78 361.205 1125.47 361.361 1124.98 361.503C1124.51 361.635 1123.96 361.754 1123.34 361.858C1122.72 361.953 1122.12 362.038 1121.53 362.114C1120.95 362.18 1120.49 362.237 1120.13 362.284C1119.25 362.398 1118.44 362.582 1117.68 362.838C1116.93 363.084 1116.33 363.458 1115.86 363.96C1115.41 364.453 1115.18 365.125 1115.18 365.977C1115.18 367.142 1115.61 368.023 1116.48 368.619C1117.35 369.206 1118.45 369.5 1119.79 369.5ZM1138.74 358.875V372H1135.39V350.182H1138.63V353.591H1138.92C1139.43 352.483 1140.2 351.593 1141.24 350.92C1142.29 350.239 1143.63 349.898 1145.28 349.898C1146.76 349.898 1148.05 350.201 1149.16 350.807C1150.26 351.403 1151.13 352.312 1151.74 353.534C1152.36 354.746 1152.67 356.28 1152.67 358.136V372H1149.31V358.364C1149.31 356.65 1148.87 355.314 1147.98 354.358C1147.09 353.392 1145.87 352.909 1144.31 352.909C1143.24 352.909 1142.29 353.141 1141.44 353.605C1140.61 354.069 1139.95 354.746 1139.47 355.636C1138.99 356.527 1138.74 357.606 1138.74 358.875ZM1179.76 350.182V353.023H1168V350.182H1179.76ZM1171.52 372V347.17C1171.52 345.92 1171.81 344.879 1172.4 344.045C1172.99 343.212 1173.75 342.587 1174.69 342.17C1175.62 341.754 1176.61 341.545 1177.65 341.545C1178.48 341.545 1179.15 341.612 1179.67 341.744C1180.19 341.877 1180.58 342 1180.84 342.114L1179.87 345.011C1179.7 344.955 1179.46 344.884 1179.16 344.798C1178.87 344.713 1178.48 344.67 1178 344.67C1176.89 344.67 1176.09 344.95 1175.59 345.509C1175.11 346.067 1174.87 346.886 1174.87 347.966V372H1171.52ZM1184.45 372V350.182H1187.81V372H1184.45ZM1186.16 346.545C1185.51 346.545 1184.94 346.323 1184.47 345.878C1184.01 345.433 1183.77 344.898 1183.77 344.273C1183.77 343.648 1184.01 343.113 1184.47 342.668C1184.94 342.223 1185.51 342 1186.16 342C1186.81 342 1187.37 342.223 1187.84 342.668C1188.31 343.113 1188.55 343.648 1188.55 344.273C1188.55 344.898 1188.31 345.433 1187.84 345.878C1187.37 346.323 1186.81 346.545 1186.16 346.545ZM1203.44 350.182V353.023H1192.13V350.182H1203.44ZM1195.42 344.955H1198.78V365.75C1198.78 366.697 1198.91 367.407 1199.19 367.881C1199.47 368.345 1199.83 368.657 1200.27 368.818C1200.71 368.97 1201.18 369.045 1201.67 369.045C1202.04 369.045 1202.35 369.027 1202.58 368.989C1202.82 368.941 1203.01 368.903 1203.15 368.875L1203.83 371.886C1203.61 371.972 1203.29 372.057 1202.88 372.142C1202.47 372.237 1201.96 372.284 1201.33 372.284C1200.39 372.284 1199.46 372.08 1198.55 371.673C1197.65 371.266 1196.9 370.646 1196.31 369.812C1195.72 368.979 1195.42 367.928 1195.42 366.659V344.955ZM1229.5 372.398C1227.63 372.398 1225.95 372.076 1224.49 371.432C1223.03 370.788 1221.87 369.893 1221.01 368.747C1220.15 367.592 1219.69 366.252 1219.61 364.727H1223.19C1223.27 365.665 1223.59 366.474 1224.16 367.156C1224.73 367.829 1225.47 368.349 1226.39 368.719C1227.31 369.088 1228.33 369.273 1229.44 369.273C1230.69 369.273 1231.8 369.055 1232.77 368.619C1233.73 368.184 1234.49 367.578 1235.04 366.801C1235.59 366.025 1235.86 365.125 1235.86 364.102C1235.86 363.032 1235.6 362.09 1235.07 361.276C1234.54 360.452 1233.76 359.808 1232.74 359.344C1231.72 358.88 1230.47 358.648 1228.99 358.648H1226.66V355.523H1228.99C1230.15 355.523 1231.16 355.314 1232.03 354.898C1232.91 354.481 1233.6 353.894 1234.09 353.136C1234.59 352.379 1234.84 351.489 1234.84 350.466C1234.84 349.481 1234.62 348.624 1234.19 347.895C1233.75 347.166 1233.14 346.598 1232.34 346.19C1231.56 345.783 1230.63 345.58 1229.56 345.58C1228.55 345.58 1227.61 345.764 1226.72 346.134C1225.84 346.493 1225.12 347.019 1224.56 347.71C1224 348.392 1223.7 349.216 1223.65 350.182H1220.24C1220.3 348.657 1220.76 347.322 1221.62 346.176C1222.48 345.021 1223.61 344.121 1225 343.477C1226.4 342.833 1227.94 342.511 1229.61 342.511C1231.41 342.511 1232.96 342.876 1234.25 343.605C1235.53 344.325 1236.52 345.277 1237.21 346.46C1237.91 347.644 1238.25 348.922 1238.25 350.295C1238.25 351.934 1237.82 353.33 1236.96 354.486C1236.11 355.641 1234.95 356.441 1233.48 356.886V357.114C1235.32 357.417 1236.75 358.198 1237.78 359.457C1238.81 360.707 1239.33 362.256 1239.33 364.102C1239.33 365.684 1238.9 367.104 1238.04 368.364C1237.19 369.614 1236.02 370.598 1234.54 371.318C1233.07 372.038 1231.39 372.398 1229.5 372.398ZM1254.63 372.398C1252.49 372.398 1250.67 371.815 1249.16 370.651C1247.65 369.476 1246.5 367.777 1245.71 365.551C1244.91 363.316 1244.52 360.617 1244.52 357.455C1244.52 354.311 1244.91 351.626 1245.71 349.401C1246.51 347.166 1247.67 345.461 1249.17 344.287C1250.69 343.103 1252.51 342.511 1254.63 342.511C1256.75 342.511 1258.56 343.103 1260.07 344.287C1261.58 345.461 1262.74 347.166 1263.54 349.401C1264.34 351.626 1264.74 354.311 1264.74 357.455C1264.74 360.617 1264.34 363.316 1263.55 365.551C1262.75 367.777 1261.6 369.476 1260.1 370.651C1258.59 371.815 1256.77 372.398 1254.63 372.398ZM1254.63 369.273C1256.75 369.273 1258.4 368.25 1259.57 366.205C1260.75 364.159 1261.33 361.242 1261.33 357.455C1261.33 354.936 1261.06 352.791 1260.52 351.02C1259.99 349.249 1259.23 347.9 1258.22 346.972C1257.23 346.044 1256.03 345.58 1254.63 345.58C1252.53 345.58 1250.88 346.616 1249.7 348.69C1248.52 350.755 1247.92 353.676 1247.92 357.455C1247.92 359.973 1248.19 362.114 1248.72 363.875C1249.25 365.636 1250.01 366.976 1251.01 367.895C1252.01 368.813 1253.22 369.273 1254.63 369.273ZM1270.65 372V342.909H1274.17V357.341H1274.52L1287.58 342.909H1292.19L1279.97 356.034L1292.19 372H1287.92L1277.81 358.477L1274.17 362.568V372H1270.65ZM1296.75 372V342.909H1306.92C1308.94 342.909 1310.61 343.259 1311.93 343.96C1313.25 344.652 1314.23 345.584 1314.87 346.759C1315.51 347.923 1315.84 349.216 1315.84 350.636C1315.84 351.886 1315.61 352.919 1315.17 353.733C1314.73 354.547 1314.16 355.191 1313.44 355.665C1312.73 356.138 1311.95 356.489 1311.12 356.716V357C1312.01 357.057 1312.91 357.369 1313.81 357.938C1314.7 358.506 1315.46 359.32 1316.06 360.381C1316.67 361.441 1316.97 362.739 1316.97 364.273C1316.97 365.731 1316.64 367.043 1315.98 368.207C1315.32 369.372 1314.27 370.295 1312.84 370.977C1311.41 371.659 1309.55 372 1307.26 372H1296.75ZM1300.27 368.875H1307.26C1309.56 368.875 1311.19 368.43 1312.16 367.54C1313.13 366.64 1313.62 365.551 1313.62 364.273C1313.62 363.288 1313.37 362.379 1312.87 361.545C1312.37 360.703 1311.65 360.03 1310.72 359.528C1309.79 359.017 1308.7 358.761 1307.43 358.761H1300.27V368.875ZM1300.27 355.693H1306.8C1307.86 355.693 1308.82 355.485 1309.67 355.068C1310.53 354.652 1311.22 354.064 1311.72 353.307C1312.23 352.549 1312.48 351.659 1312.48 350.636C1312.48 349.358 1312.04 348.274 1311.15 347.384C1310.26 346.484 1308.85 346.034 1306.92 346.034H1300.27V355.693ZM1327.31 368.023L1327.08 369.557C1326.92 370.636 1326.67 371.792 1326.34 373.023C1326.02 374.254 1325.68 375.414 1325.33 376.503C1324.98 377.592 1324.69 378.458 1324.47 379.102H1321.91C1322.03 378.496 1322.19 377.696 1322.39 376.702C1322.59 375.707 1322.79 374.595 1322.99 373.364C1323.2 372.142 1323.37 370.892 1323.5 369.614L1323.67 368.023H1327.31ZM1345.22 372V342.909H1348.57V353.648H1348.86C1349.1 353.269 1349.45 352.786 1349.88 352.199C1350.33 351.602 1350.96 351.072 1351.78 350.608C1352.62 350.134 1353.74 349.898 1355.17 349.898C1357 349.898 1358.62 350.357 1360.02 351.276C1361.42 352.194 1362.52 353.496 1363.3 355.182C1364.09 356.867 1364.48 358.856 1364.48 361.148C1364.48 363.458 1364.09 365.461 1363.3 367.156C1362.52 368.842 1361.43 370.149 1360.04 371.077C1358.65 371.995 1357.04 372.455 1355.22 372.455C1353.82 372.455 1352.7 372.223 1351.86 371.759C1351.01 371.285 1350.36 370.75 1349.91 370.153C1349.45 369.547 1349.1 369.045 1348.86 368.648H1348.46V372H1345.22ZM1348.52 361.091C1348.52 362.739 1348.76 364.192 1349.24 365.452C1349.72 366.702 1350.43 367.682 1351.36 368.392C1352.29 369.093 1353.42 369.443 1354.77 369.443C1356.17 369.443 1357.34 369.074 1358.28 368.335C1359.22 367.587 1359.93 366.583 1360.41 365.324C1360.89 364.055 1361.13 362.644 1361.13 361.091C1361.13 359.557 1360.89 358.174 1360.42 356.943C1359.96 355.703 1359.25 354.723 1358.3 354.003C1357.37 353.274 1356.19 352.909 1354.77 352.909C1353.4 352.909 1352.26 353.255 1351.33 353.946C1350.4 354.628 1349.7 355.584 1349.23 356.815C1348.75 358.037 1348.52 359.462 1348.52 361.091ZM1383.36 363.08V350.182H1386.71V372H1383.36V368.307H1383.13C1382.62 369.415 1381.83 370.357 1380.75 371.134C1379.67 371.901 1378.3 372.284 1376.66 372.284C1375.29 372.284 1374.08 371.986 1373.02 371.389C1371.96 370.783 1371.13 369.874 1370.52 368.662C1369.91 367.44 1369.61 365.902 1369.61 364.045V350.182H1372.96V363.818C1372.96 365.409 1373.41 366.678 1374.3 367.625C1375.2 368.572 1376.34 369.045 1377.74 369.045C1378.57 369.045 1379.42 368.832 1380.28 368.406C1381.15 367.98 1381.88 367.327 1382.47 366.446C1383.06 365.565 1383.36 364.443 1383.36 363.08ZM1402.34 350.182V353.023H1391.04V350.182H1402.34ZM1394.33 344.955H1397.68V365.75C1397.68 366.697 1397.82 367.407 1398.09 367.881C1398.38 368.345 1398.74 368.657 1399.17 368.818C1399.62 368.97 1400.09 369.045 1400.58 369.045C1400.95 369.045 1401.25 369.027 1401.49 368.989C1401.73 368.941 1401.92 368.903 1402.06 368.875L1402.74 371.886C1402.51 371.972 1402.2 372.057 1401.79 372.142C1401.38 372.237 1400.86 372.284 1400.24 372.284C1399.29 372.284 1398.36 372.08 1397.46 371.673C1396.56 371.266 1395.81 370.646 1395.21 369.812C1394.62 368.979 1394.33 367.928 1394.33 366.659V344.955ZM1092.42 398.182V401.023H1081.11V398.182H1092.42ZM1084.41 392.955H1087.76V413.75C1087.76 414.697 1087.9 415.407 1088.17 415.881C1088.46 416.345 1088.82 416.657 1089.25 416.818C1089.7 416.97 1090.17 417.045 1090.66 417.045C1091.03 417.045 1091.33 417.027 1091.57 416.989C1091.8 416.941 1091.99 416.903 1092.14 416.875L1092.82 419.886C1092.59 419.972 1092.27 420.057 1091.87 420.142C1091.46 420.237 1090.94 420.284 1090.32 420.284C1089.37 420.284 1088.44 420.08 1087.53 419.673C1086.63 419.266 1085.89 418.646 1085.29 417.812C1084.7 416.979 1084.41 415.928 1084.41 414.659V392.955ZM1101.28 406.875V420H1097.93V390.909H1101.28V401.591H1101.57C1102.08 400.464 1102.85 399.569 1103.87 398.906C1104.9 398.234 1106.27 397.898 1107.99 397.898C1109.48 397.898 1110.78 398.196 1111.89 398.793C1113.01 399.38 1113.88 400.284 1114.49 401.506C1115.12 402.718 1115.43 404.261 1115.43 406.136V420H1112.08V406.364C1112.08 404.631 1111.63 403.291 1110.73 402.344C1109.84 401.387 1108.6 400.909 1107.02 400.909C1105.92 400.909 1104.94 401.141 1104.07 401.605C1103.21 402.069 1102.52 402.746 1102.02 403.636C1101.53 404.527 1101.28 405.606 1101.28 406.875ZM1130.71 420.455C1128.61 420.455 1126.8 419.991 1125.27 419.062C1123.76 418.125 1122.59 416.818 1121.76 415.142C1120.95 413.456 1120.54 411.496 1120.54 409.261C1120.54 407.027 1120.95 405.057 1121.76 403.352C1122.59 401.638 1123.73 400.303 1125.2 399.347C1126.68 398.381 1128.4 397.898 1130.37 397.898C1131.51 397.898 1132.63 398.087 1133.74 398.466C1134.85 398.845 1135.85 399.46 1136.76 400.312C1137.67 401.155 1138.4 402.273 1138.94 403.665C1139.48 405.057 1139.75 406.771 1139.75 408.807V410.227H1122.93V407.33H1136.34C1136.34 406.098 1136.09 405 1135.6 404.034C1135.12 403.068 1134.42 402.306 1133.52 401.747C1132.63 401.188 1131.58 400.909 1130.37 400.909C1129.04 400.909 1127.88 401.241 1126.91 401.903C1125.94 402.557 1125.2 403.409 1124.68 404.46C1124.15 405.511 1123.89 406.638 1123.89 407.841V409.773C1123.89 411.42 1124.18 412.817 1124.75 413.963C1125.32 415.099 1126.12 415.966 1127.15 416.562C1128.17 417.15 1129.36 417.443 1130.71 417.443C1131.59 417.443 1132.39 417.32 1133.1 417.074C1133.82 416.818 1134.44 416.439 1134.96 415.938C1135.48 415.426 1135.88 414.792 1136.17 414.034L1139.41 414.943C1139.06 416.042 1138.49 417.008 1137.69 417.841C1136.88 418.665 1135.89 419.309 1134.7 419.773C1133.52 420.227 1132.19 420.455 1130.71 420.455ZM1144.85 420V398.182H1148.08V401.477H1148.31C1148.71 400.398 1149.43 399.522 1150.47 398.849C1151.51 398.177 1152.69 397.841 1153.99 397.841C1154.24 397.841 1154.55 397.846 1154.92 397.855C1155.29 397.865 1155.57 397.879 1155.75 397.898V401.307C1155.64 401.278 1155.38 401.236 1154.97 401.179C1154.58 401.113 1154.15 401.08 1153.71 401.08C1152.65 401.08 1151.7 401.302 1150.87 401.747C1150.04 402.183 1149.39 402.789 1148.91 403.565C1148.43 404.332 1148.2 405.208 1148.2 406.193V420H1144.85ZM1168.21 420.455C1166.11 420.455 1164.3 419.991 1162.77 419.062C1161.26 418.125 1160.09 416.818 1159.26 415.142C1158.45 413.456 1158.04 411.496 1158.04 409.261C1158.04 407.027 1158.45 405.057 1159.26 403.352C1160.09 401.638 1161.23 400.303 1162.7 399.347C1164.18 398.381 1165.9 397.898 1167.87 397.898C1169.01 397.898 1170.13 398.087 1171.24 398.466C1172.35 398.845 1173.35 399.46 1174.26 400.312C1175.17 401.155 1175.9 402.273 1176.44 403.665C1176.98 405.057 1177.25 406.771 1177.25 408.807V410.227H1160.43V407.33H1173.84C1173.84 406.098 1173.59 405 1173.1 404.034C1172.62 403.068 1171.92 402.306 1171.02 401.747C1170.13 401.188 1169.08 400.909 1167.87 400.909C1166.54 400.909 1165.38 401.241 1164.41 401.903C1163.44 402.557 1162.7 403.409 1162.18 404.46C1161.65 405.511 1161.39 406.638 1161.39 407.841V409.773C1161.39 411.42 1161.68 412.817 1162.25 413.963C1162.82 415.099 1163.62 415.966 1164.65 416.562C1165.67 417.15 1166.86 417.443 1168.21 417.443C1169.09 417.443 1169.89 417.32 1170.6 417.074C1171.32 416.818 1171.94 416.439 1172.46 415.938C1172.98 415.426 1173.38 414.792 1173.67 414.034L1176.91 414.943C1176.56 416.042 1175.99 417.008 1175.19 417.841C1174.38 418.665 1173.39 419.309 1172.2 419.773C1171.02 420.227 1169.69 420.455 1168.21 420.455ZM1185.3 390.909V393.466C1185.3 394.242 1185.16 395.071 1184.87 395.952C1184.6 396.823 1184.19 397.67 1183.65 398.494C1183.12 399.309 1182.48 400.019 1181.72 400.625L1179.9 399.148C1180.5 398.295 1181.02 397.41 1181.45 396.491C1181.9 395.563 1182.12 394.574 1182.12 393.523V390.909H1185.3ZM1202.1 403.068L1199.09 403.92C1198.9 403.419 1198.62 402.931 1198.25 402.457C1197.89 401.974 1197.4 401.577 1196.77 401.264C1196.15 400.952 1195.35 400.795 1194.37 400.795C1193.03 400.795 1191.92 401.103 1191.03 401.719C1190.15 402.325 1189.71 403.097 1189.71 404.034C1189.71 404.867 1190.01 405.526 1190.62 406.009C1191.23 406.491 1192.17 406.894 1193.46 407.216L1196.7 408.011C1198.65 408.485 1200.1 409.209 1201.06 410.185C1202.02 411.151 1202.49 412.396 1202.49 413.92C1202.49 415.17 1202.13 416.288 1201.42 417.273C1200.7 418.258 1199.71 419.034 1198.43 419.602C1197.15 420.17 1195.67 420.455 1193.97 420.455C1191.75 420.455 1189.9 419.972 1188.45 419.006C1186.99 418.04 1186.06 416.629 1185.68 414.773L1188.86 413.977C1189.16 415.152 1189.73 416.032 1190.58 416.619C1191.43 417.206 1192.54 417.5 1193.92 417.5C1195.48 417.5 1196.72 417.169 1197.64 416.506C1198.56 415.833 1199.03 415.028 1199.03 414.091C1199.03 413.333 1198.76 412.699 1198.23 412.188C1197.7 411.667 1196.89 411.278 1195.79 411.023L1192.15 410.17C1190.16 409.697 1188.69 408.963 1187.75 407.969C1186.82 406.965 1186.36 405.71 1186.36 404.205C1186.36 402.973 1186.7 401.884 1187.4 400.938C1188.1 399.991 1189.05 399.247 1190.25 398.707C1191.46 398.168 1192.84 397.898 1194.37 397.898C1196.53 397.898 1198.22 398.371 1199.45 399.318C1200.7 400.265 1201.58 401.515 1202.1 403.068ZM1225.21 420.511C1223.83 420.511 1222.57 420.251 1221.45 419.73C1220.32 419.2 1219.43 418.438 1218.76 417.443C1218.1 416.439 1217.77 415.227 1217.77 413.807C1217.77 412.557 1218.01 411.544 1218.51 410.767C1219 409.981 1219.66 409.366 1220.48 408.92C1221.31 408.475 1222.21 408.144 1223.21 407.926C1224.21 407.699 1225.22 407.519 1226.23 407.386C1227.56 407.216 1228.63 407.088 1229.46 407.003C1230.29 406.908 1230.9 406.752 1231.28 406.534C1231.66 406.316 1231.86 405.937 1231.86 405.398V405.284C1231.86 403.883 1231.48 402.794 1230.71 402.017C1229.95 401.241 1228.8 400.852 1227.26 400.852C1225.66 400.852 1224.4 401.203 1223.49 401.903C1222.58 402.604 1221.94 403.352 1221.57 404.148L1218.39 403.011C1218.96 401.686 1219.72 400.653 1220.67 399.915C1221.62 399.167 1222.66 398.646 1223.79 398.352C1224.93 398.049 1226.04 397.898 1227.14 397.898C1227.84 397.898 1228.65 397.983 1229.56 398.153C1230.48 398.314 1231.36 398.651 1232.21 399.162C1233.08 399.673 1233.79 400.445 1234.36 401.477C1234.93 402.509 1235.21 403.892 1235.21 405.625V420H1231.86V417.045H1231.69C1231.46 417.519 1231.08 418.026 1230.55 418.565C1230.02 419.105 1229.32 419.564 1228.44 419.943C1227.56 420.322 1226.48 420.511 1225.21 420.511ZM1225.72 417.5C1227.05 417.5 1228.17 417.24 1229.07 416.719C1229.99 416.198 1230.68 415.526 1231.15 414.702C1231.62 413.878 1231.86 413.011 1231.86 412.102V409.034C1231.72 409.205 1231.4 409.361 1230.92 409.503C1230.45 409.635 1229.9 409.754 1229.27 409.858C1228.66 409.953 1228.06 410.038 1227.47 410.114C1226.89 410.18 1226.42 410.237 1226.06 410.284C1225.19 410.398 1224.38 410.582 1223.62 410.838C1222.87 411.084 1222.27 411.458 1221.8 411.96C1221.35 412.453 1221.12 413.125 1221.12 413.977C1221.12 415.142 1221.55 416.023 1222.41 416.619C1223.28 417.206 1224.39 417.5 1225.72 417.5ZM1257.52 420L1250.88 398.182H1254.4L1259.11 414.886H1259.34L1264 398.182H1267.58L1272.18 414.83H1272.41L1277.13 398.182H1280.65L1274 420H1270.7L1265.93 403.239H1265.59L1260.82 420H1257.52ZM1293.2 420.455C1291.23 420.455 1289.5 419.986 1288.02 419.048C1286.54 418.111 1285.38 416.799 1284.55 415.114C1283.73 413.428 1283.31 411.458 1283.31 409.205C1283.31 406.932 1283.73 404.948 1284.55 403.253C1285.38 401.558 1286.54 400.241 1288.02 399.304C1289.5 398.366 1291.23 397.898 1293.2 397.898C1295.17 397.898 1296.89 398.366 1298.37 399.304C1299.86 400.241 1301.01 401.558 1301.84 403.253C1302.67 404.948 1303.09 406.932 1303.09 409.205C1303.09 411.458 1302.67 413.428 1301.84 415.114C1301.01 416.799 1299.86 418.111 1298.37 419.048C1296.89 419.986 1295.17 420.455 1293.2 420.455ZM1293.2 417.443C1294.7 417.443 1295.93 417.06 1296.89 416.293C1297.86 415.526 1298.58 414.517 1299.04 413.267C1299.5 412.017 1299.74 410.663 1299.74 409.205C1299.74 407.746 1299.5 406.387 1299.04 405.128C1298.58 403.868 1297.86 402.85 1296.89 402.074C1295.93 401.297 1294.7 400.909 1293.2 400.909C1291.71 400.909 1290.47 401.297 1289.51 402.074C1288.54 402.85 1287.83 403.868 1287.36 405.128C1286.9 406.387 1286.67 407.746 1286.67 409.205C1286.67 410.663 1286.9 412.017 1287.36 413.267C1287.83 414.517 1288.54 415.526 1289.51 416.293C1290.47 417.06 1291.71 417.443 1293.2 417.443ZM1308.2 420V398.182H1311.44V401.477H1311.67C1312.07 400.398 1312.79 399.522 1313.83 398.849C1314.87 398.177 1316.05 397.841 1317.35 397.841C1317.6 397.841 1317.91 397.846 1318.28 397.855C1318.65 397.865 1318.92 397.879 1319.11 397.898V401.307C1319 401.278 1318.74 401.236 1318.33 401.179C1317.94 401.113 1317.51 401.08 1317.07 401.08C1316.01 401.08 1315.06 401.302 1314.23 401.747C1313.4 402.183 1312.75 402.789 1312.27 403.565C1311.79 404.332 1311.56 405.208 1311.56 406.193V420H1308.2ZM1338.54 403.068L1335.53 403.92C1335.34 403.419 1335.06 402.931 1334.69 402.457C1334.33 401.974 1333.84 401.577 1333.22 401.264C1332.59 400.952 1331.79 400.795 1330.81 400.795C1329.48 400.795 1328.37 401.103 1327.48 401.719C1326.6 402.325 1326.16 403.097 1326.16 404.034C1326.16 404.867 1326.46 405.526 1327.06 406.009C1327.67 406.491 1328.62 406.894 1329.91 407.216L1333.14 408.011C1335.1 408.485 1336.55 409.209 1337.51 410.185C1338.46 411.151 1338.94 412.396 1338.94 413.92C1338.94 415.17 1338.58 416.288 1337.86 417.273C1337.15 418.258 1336.16 419.034 1334.88 419.602C1333.6 420.17 1332.11 420.455 1330.42 420.455C1328.19 420.455 1326.35 419.972 1324.89 419.006C1323.43 418.04 1322.51 416.629 1322.12 414.773L1325.3 413.977C1325.61 415.152 1326.18 416.032 1327.02 416.619C1327.87 417.206 1328.99 417.5 1330.36 417.5C1331.92 417.5 1333.16 417.169 1334.08 416.506C1335.01 415.833 1335.47 415.028 1335.47 414.091C1335.47 413.333 1335.21 412.699 1334.68 412.188C1334.15 411.667 1333.33 411.278 1332.24 411.023L1328.6 410.17C1326.6 409.697 1325.13 408.963 1324.2 407.969C1323.27 406.965 1322.8 405.71 1322.8 404.205C1322.8 402.973 1323.15 401.884 1323.84 400.938C1324.54 399.991 1325.49 399.247 1326.7 398.707C1327.91 398.168 1329.28 397.898 1330.81 397.898C1332.97 397.898 1334.67 398.371 1335.9 399.318C1337.14 400.265 1338.02 401.515 1338.54 403.068ZM1353.47 398.182V401.023H1342.17V398.182H1353.47ZM1345.46 392.955H1348.82V413.75C1348.82 414.697 1348.95 415.407 1349.23 415.881C1349.51 416.345 1349.87 416.657 1350.31 416.818C1350.75 416.97 1351.22 417.045 1351.71 417.045C1352.08 417.045 1352.39 417.027 1352.62 416.989C1352.86 416.941 1353.05 416.903 1353.19 416.875L1353.87 419.886C1353.65 419.972 1353.33 420.057 1352.92 420.142C1352.51 420.237 1352 420.284 1351.37 420.284C1350.43 420.284 1349.5 420.08 1348.59 419.673C1347.69 419.266 1346.94 418.646 1346.34 417.812C1345.76 416.979 1345.46 415.928 1345.46 414.659V392.955ZM1379.48 398.182V401.023H1367.72V398.182H1379.48ZM1371.24 420V395.17C1371.24 393.92 1371.54 392.879 1372.13 392.045C1372.71 391.212 1373.47 390.587 1374.41 390.17C1375.35 389.754 1376.34 389.545 1377.38 389.545C1378.2 389.545 1378.88 389.612 1379.4 389.744C1379.92 389.877 1380.31 390 1380.56 390.114L1379.6 393.011C1379.43 392.955 1379.19 392.884 1378.89 392.798C1378.59 392.713 1378.2 392.67 1377.72 392.67C1376.61 392.67 1375.81 392.95 1375.32 393.509C1374.84 394.067 1374.6 394.886 1374.6 395.966V420H1371.24ZM1384.18 420V398.182H1387.53V420H1384.18ZM1385.89 394.545C1385.23 394.545 1384.67 394.323 1384.2 393.878C1383.73 393.433 1383.5 392.898 1383.5 392.273C1383.5 391.648 1383.73 391.113 1384.2 390.668C1384.67 390.223 1385.23 390 1385.89 390C1386.54 390 1387.1 390.223 1387.56 390.668C1388.04 391.113 1388.27 391.648 1388.27 392.273C1388.27 392.898 1388.04 393.433 1387.56 393.878C1387.1 394.323 1386.54 394.545 1385.89 394.545ZM1403.16 398.182V401.023H1391.86V398.182H1403.16ZM1395.15 392.955H1398.5V413.75C1398.5 414.697 1398.64 415.407 1398.92 415.881C1399.2 416.345 1399.56 416.657 1399.99 416.818C1400.44 416.97 1400.91 417.045 1401.4 417.045C1401.77 417.045 1402.07 417.027 1402.31 416.989C1402.55 416.941 1402.74 416.903 1402.88 416.875L1403.56 419.886C1403.33 419.972 1403.02 420.057 1402.61 420.142C1402.2 420.237 1401.69 420.284 1401.06 420.284C1400.11 420.284 1399.19 420.08 1398.28 419.673C1397.38 419.266 1396.63 418.646 1396.03 417.812C1395.44 416.979 1395.15 415.928 1395.15 414.659V392.955Z" fill="white"/>
<path d="M1545.46 352H1541.93C1541.72 350.987 1541.36 350.097 1540.84 349.33C1540.33 348.562 1539.7 347.919 1538.96 347.398C1538.23 346.867 1537.42 346.47 1536.53 346.205C1535.64 345.939 1534.72 345.807 1533.75 345.807C1531.99 345.807 1530.39 346.252 1528.96 347.142C1527.54 348.032 1526.41 349.344 1525.57 351.077C1524.74 352.81 1524.32 354.936 1524.32 357.455C1524.32 359.973 1524.74 362.099 1525.57 363.832C1526.41 365.565 1527.54 366.877 1528.96 367.767C1530.39 368.657 1531.99 369.102 1533.75 369.102C1534.72 369.102 1535.64 368.97 1536.53 368.705C1537.42 368.439 1538.23 368.046 1538.96 367.526C1539.7 366.995 1540.33 366.347 1540.84 365.58C1541.36 364.803 1541.72 363.913 1541.93 362.909H1545.46C1545.19 364.396 1544.71 365.726 1544.01 366.901C1543.31 368.075 1542.43 369.074 1541.39 369.898C1540.35 370.712 1539.18 371.332 1537.88 371.759C1536.6 372.185 1535.22 372.398 1533.75 372.398C1531.27 372.398 1529.06 371.792 1527.13 370.58C1525.2 369.367 1523.68 367.644 1522.57 365.409C1521.46 363.174 1520.91 360.523 1520.91 357.455C1520.91 354.386 1521.46 351.735 1522.57 349.5C1523.68 347.265 1525.2 345.542 1527.13 344.33C1529.06 343.117 1531.27 342.511 1533.75 342.511C1535.22 342.511 1536.6 342.724 1537.88 343.151C1539.18 343.577 1540.35 344.202 1541.39 345.026C1542.43 345.84 1543.31 346.834 1544.01 348.009C1544.71 349.173 1545.19 350.504 1545.46 352ZM1557.11 372.511C1555.73 372.511 1554.48 372.251 1553.35 371.73C1552.22 371.2 1551.33 370.438 1550.66 369.443C1550 368.439 1549.67 367.227 1549.67 365.807C1549.67 364.557 1549.92 363.544 1550.41 362.767C1550.9 361.981 1551.56 361.366 1552.38 360.92C1553.21 360.475 1554.12 360.144 1555.11 359.926C1556.11 359.699 1557.12 359.519 1558.14 359.386C1559.46 359.216 1560.54 359.088 1561.36 359.003C1562.19 358.908 1562.8 358.752 1563.18 358.534C1563.57 358.316 1563.76 357.937 1563.76 357.398V357.284C1563.76 355.883 1563.38 354.794 1562.61 354.017C1561.85 353.241 1560.7 352.852 1559.16 352.852C1557.56 352.852 1556.3 353.203 1555.39 353.903C1554.49 354.604 1553.85 355.352 1553.48 356.148L1550.3 355.011C1550.86 353.686 1551.62 352.653 1552.57 351.915C1553.52 351.167 1554.57 350.646 1555.69 350.352C1556.83 350.049 1557.95 349.898 1559.05 349.898C1559.75 349.898 1560.55 349.983 1561.46 350.153C1562.38 350.314 1563.26 350.651 1564.12 351.162C1564.98 351.673 1565.69 352.445 1566.26 353.477C1566.83 354.509 1567.11 355.892 1567.11 357.625V372H1563.76V369.045H1563.59C1563.36 369.519 1562.98 370.026 1562.45 370.565C1561.92 371.105 1561.22 371.564 1560.34 371.943C1559.46 372.322 1558.38 372.511 1557.11 372.511ZM1557.62 369.5C1558.95 369.5 1560.07 369.24 1560.98 368.719C1561.9 368.198 1562.59 367.526 1563.05 366.702C1563.52 365.878 1563.76 365.011 1563.76 364.102V361.034C1563.62 361.205 1563.31 361.361 1562.82 361.503C1562.35 361.635 1561.8 361.754 1561.18 361.858C1560.56 361.953 1559.96 362.038 1559.37 362.114C1558.79 362.18 1558.33 362.237 1557.97 362.284C1557.09 362.398 1556.28 362.582 1555.52 362.838C1554.77 363.084 1554.17 363.458 1553.7 363.96C1553.25 364.453 1553.02 365.125 1553.02 365.977C1553.02 367.142 1553.45 368.023 1554.32 368.619C1555.19 369.206 1556.29 369.5 1557.62 369.5ZM1576.58 358.875V372H1573.23V350.182H1576.47V353.591H1576.75C1577.27 352.483 1578.04 351.593 1579.08 350.92C1580.13 350.239 1581.47 349.898 1583.12 349.898C1584.6 349.898 1585.89 350.201 1587 350.807C1588.1 351.403 1588.97 352.312 1589.58 353.534C1590.2 354.746 1590.5 356.28 1590.5 358.136V372H1587.15V358.364C1587.15 356.65 1586.71 355.314 1585.82 354.358C1584.93 353.392 1583.71 352.909 1582.15 352.909C1581.08 352.909 1580.13 353.141 1579.28 353.605C1578.45 354.069 1577.79 354.746 1577.31 355.636C1576.83 356.527 1576.58 357.606 1576.58 358.875ZM1617.6 350.182V353.023H1605.84V350.182H1617.6ZM1609.36 372V347.17C1609.36 345.92 1609.65 344.879 1610.24 344.045C1610.83 343.212 1611.59 342.587 1612.53 342.17C1613.46 341.754 1614.45 341.545 1615.49 341.545C1616.32 341.545 1616.99 341.612 1617.51 341.744C1618.03 341.877 1618.42 342 1618.68 342.114L1617.71 345.011C1617.54 344.955 1617.3 344.884 1617 344.798C1616.71 344.713 1616.32 344.67 1615.84 344.67C1614.73 344.67 1613.93 344.95 1613.43 345.509C1612.95 346.067 1612.71 346.886 1612.71 347.966V372H1609.36ZM1622.29 372V350.182H1625.65V372H1622.29ZM1624 346.545C1623.35 346.545 1622.78 346.323 1622.31 345.878C1621.84 345.433 1621.61 344.898 1621.61 344.273C1621.61 343.648 1621.84 343.113 1622.31 342.668C1622.78 342.223 1623.35 342 1624 342C1624.65 342 1625.21 342.223 1625.68 342.668C1626.15 343.113 1626.39 343.648 1626.39 344.273C1626.39 344.898 1626.15 345.433 1625.68 345.878C1625.21 346.323 1624.65 346.545 1624 346.545ZM1641.28 350.182V353.023H1629.97V350.182H1641.28ZM1633.26 344.955H1636.62V365.75C1636.62 366.697 1636.75 367.407 1637.03 367.881C1637.31 368.345 1637.67 368.657 1638.11 368.818C1638.55 368.97 1639.02 369.045 1639.51 369.045C1639.88 369.045 1640.19 369.027 1640.42 368.989C1640.66 368.941 1640.85 368.903 1640.99 368.875L1641.67 371.886C1641.45 371.972 1641.13 372.057 1640.72 372.142C1640.31 372.237 1639.8 372.284 1639.17 372.284C1638.23 372.284 1637.3 372.08 1636.39 371.673C1635.49 371.266 1634.74 370.646 1634.14 369.812C1633.56 368.979 1633.26 367.928 1633.26 366.659V344.955ZM1667.34 372.398C1665.47 372.398 1663.79 372.076 1662.33 371.432C1660.87 370.788 1659.71 369.893 1658.85 368.747C1657.99 367.592 1657.53 366.252 1657.45 364.727H1661.03C1661.11 365.665 1661.43 366.474 1662 367.156C1662.57 367.829 1663.31 368.349 1664.23 368.719C1665.15 369.088 1666.17 369.273 1667.28 369.273C1668.53 369.273 1669.64 369.055 1670.61 368.619C1671.57 368.184 1672.33 367.578 1672.88 366.801C1673.43 366.025 1673.7 365.125 1673.7 364.102C1673.7 363.032 1673.44 362.09 1672.91 361.276C1672.38 360.452 1671.6 359.808 1670.58 359.344C1669.56 358.88 1668.31 358.648 1666.83 358.648H1664.5V355.523H1666.83C1667.98 355.523 1669 355.314 1669.87 354.898C1670.75 354.481 1671.44 353.894 1671.93 353.136C1672.43 352.379 1672.68 351.489 1672.68 350.466C1672.68 349.481 1672.46 348.624 1672.03 347.895C1671.59 347.166 1670.98 346.598 1670.18 346.19C1669.4 345.783 1668.47 345.58 1667.4 345.58C1666.39 345.58 1665.45 345.764 1664.56 346.134C1663.68 346.493 1662.96 347.019 1662.4 347.71C1661.84 348.392 1661.54 349.216 1661.49 350.182H1658.08C1658.14 348.657 1658.6 347.322 1659.46 346.176C1660.32 345.021 1661.45 344.121 1662.84 343.477C1664.24 342.833 1665.78 342.511 1667.45 342.511C1669.25 342.511 1670.8 342.876 1672.09 343.605C1673.37 344.325 1674.36 345.277 1675.05 346.46C1675.75 347.644 1676.09 348.922 1676.09 350.295C1676.09 351.934 1675.66 353.33 1674.8 354.486C1673.95 355.641 1672.79 356.441 1671.32 356.886V357.114C1673.16 357.417 1674.59 358.198 1675.62 359.457C1676.65 360.707 1677.17 362.256 1677.17 364.102C1677.17 365.684 1676.74 367.104 1675.88 368.364C1675.03 369.614 1673.86 370.598 1672.38 371.318C1670.91 372.038 1669.23 372.398 1667.34 372.398ZM1692.47 372.398C1690.33 372.398 1688.51 371.815 1687 370.651C1685.49 369.476 1684.34 367.777 1683.55 365.551C1682.75 363.316 1682.36 360.617 1682.36 357.455C1682.36 354.311 1682.75 351.626 1683.55 349.401C1684.35 347.166 1685.51 345.461 1687.01 344.287C1688.53 343.103 1690.35 342.511 1692.47 342.511C1694.59 342.511 1696.4 343.103 1697.91 344.287C1699.42 345.461 1700.58 347.166 1701.38 349.401C1702.18 351.626 1702.58 354.311 1702.58 357.455C1702.58 360.617 1702.18 363.316 1701.39 365.551C1700.59 367.777 1699.44 369.476 1697.94 370.651C1696.43 371.815 1694.61 372.398 1692.47 372.398ZM1692.47 369.273C1694.59 369.273 1696.24 368.25 1697.41 366.205C1698.59 364.159 1699.17 361.242 1699.17 357.455C1699.17 354.936 1698.9 352.791 1698.36 351.02C1697.83 349.249 1697.07 347.9 1696.06 346.972C1695.07 346.044 1693.87 345.58 1692.47 345.58C1690.37 345.58 1688.72 346.616 1687.54 348.69C1686.36 350.755 1685.76 353.676 1685.76 357.455C1685.76 359.973 1686.03 362.114 1686.56 363.875C1687.09 365.636 1687.85 366.976 1688.85 367.895C1689.85 368.813 1691.06 369.273 1692.47 369.273ZM1708.49 372V342.909H1712.01V357.341H1712.36L1725.42 342.909H1730.03L1717.81 356.034L1730.03 372H1725.76L1715.65 358.477L1712.01 362.568V372H1708.49ZM1734.59 372V342.909H1744.76C1746.78 342.909 1748.45 343.259 1749.77 343.96C1751.09 344.652 1752.07 345.584 1752.71 346.759C1753.35 347.923 1753.68 349.216 1753.68 350.636C1753.68 351.886 1753.45 352.919 1753.01 353.733C1752.57 354.547 1752 355.191 1751.28 355.665C1750.57 356.138 1749.79 356.489 1748.96 356.716V357C1749.85 357.057 1750.75 357.369 1751.64 357.938C1752.54 358.506 1753.3 359.32 1753.9 360.381C1754.51 361.441 1754.81 362.739 1754.81 364.273C1754.81 365.731 1754.48 367.043 1753.82 368.207C1753.16 369.372 1752.11 370.295 1750.68 370.977C1749.25 371.659 1747.39 372 1745.1 372H1734.59ZM1738.11 368.875H1745.1C1747.4 368.875 1749.03 368.43 1750 367.54C1750.97 366.64 1751.46 365.551 1751.46 364.273C1751.46 363.288 1751.21 362.379 1750.71 361.545C1750.21 360.703 1749.49 360.03 1748.56 359.528C1747.63 359.017 1746.54 358.761 1745.27 358.761H1738.11V368.875ZM1738.11 355.693H1744.64C1745.7 355.693 1746.66 355.485 1747.51 355.068C1748.37 354.652 1749.05 354.064 1749.56 353.307C1750.07 352.549 1750.32 351.659 1750.32 350.636C1750.32 349.358 1749.88 348.274 1748.99 347.384C1748.1 346.484 1746.69 346.034 1744.76 346.034H1738.11V355.693ZM1765.15 368.023L1764.92 369.557C1764.76 370.636 1764.51 371.792 1764.18 373.023C1763.86 374.254 1763.52 375.414 1763.17 376.503C1762.82 377.592 1762.53 378.458 1762.31 379.102H1759.75C1759.87 378.496 1760.03 377.696 1760.23 376.702C1760.43 375.707 1760.63 374.595 1760.83 373.364C1761.04 372.142 1761.21 370.892 1761.34 369.614L1761.51 368.023H1765.15ZM1787.55 372L1780.9 350.182H1784.43L1789.14 366.886H1789.37L1794.03 350.182H1797.61L1802.21 366.83H1802.44L1807.15 350.182H1810.68L1804.03 372H1800.73L1795.96 355.239H1795.62L1790.85 372H1787.55ZM1823.23 372.455C1821.26 372.455 1819.53 371.986 1818.04 371.048C1816.57 370.111 1815.41 368.799 1814.58 367.114C1813.75 365.428 1813.34 363.458 1813.34 361.205C1813.34 358.932 1813.75 356.948 1814.58 355.253C1815.41 353.558 1816.57 352.241 1818.04 351.304C1819.53 350.366 1821.26 349.898 1823.23 349.898C1825.2 349.898 1826.92 350.366 1828.4 351.304C1829.89 352.241 1831.04 353.558 1831.87 355.253C1832.7 356.948 1833.12 358.932 1833.12 361.205C1833.12 363.458 1832.7 365.428 1831.87 367.114C1831.04 368.799 1829.89 370.111 1828.4 371.048C1826.92 371.986 1825.2 372.455 1823.23 372.455ZM1823.23 369.443C1824.72 369.443 1825.96 369.06 1826.92 368.293C1827.89 367.526 1828.6 366.517 1829.07 365.267C1829.53 364.017 1829.76 362.663 1829.76 361.205C1829.76 359.746 1829.53 358.387 1829.07 357.128C1828.6 355.868 1827.89 354.85 1826.92 354.074C1825.96 353.297 1824.72 352.909 1823.23 352.909C1821.73 352.909 1820.5 353.297 1819.54 354.074C1818.57 354.85 1817.85 355.868 1817.39 357.128C1816.93 358.387 1816.69 359.746 1816.69 361.205C1816.69 362.663 1816.93 364.017 1817.39 365.267C1817.85 366.517 1818.57 367.526 1819.54 368.293C1820.5 369.06 1821.73 369.443 1823.23 369.443ZM1838.23 372V350.182H1841.47V353.477H1841.7C1842.1 352.398 1842.82 351.522 1843.86 350.849C1844.9 350.177 1846.07 349.841 1847.38 349.841C1847.63 349.841 1847.93 349.846 1848.3 349.855C1848.67 349.865 1848.95 349.879 1849.14 349.898V353.307C1849.03 353.278 1848.77 353.236 1848.36 353.179C1847.96 353.113 1847.54 353.08 1847.1 353.08C1846.04 353.08 1845.09 353.302 1844.25 353.747C1843.43 354.183 1842.78 354.789 1842.29 355.565C1841.82 356.332 1841.58 357.208 1841.58 358.193V372H1838.23ZM1868.57 355.068L1865.56 355.92C1865.37 355.419 1865.09 354.931 1864.72 354.457C1864.36 353.974 1863.87 353.577 1863.24 353.264C1862.62 352.952 1861.82 352.795 1860.84 352.795C1859.51 352.795 1858.39 353.103 1857.5 353.719C1856.62 354.325 1856.18 355.097 1856.18 356.034C1856.18 356.867 1856.49 357.526 1857.09 358.009C1857.7 358.491 1858.65 358.894 1859.93 359.216L1863.17 360.011C1865.12 360.485 1866.58 361.209 1867.53 362.185C1868.49 363.151 1868.97 364.396 1868.97 365.92C1868.97 367.17 1868.61 368.288 1867.89 369.273C1867.18 370.258 1866.18 371.034 1864.9 371.602C1863.63 372.17 1862.14 372.455 1860.44 372.455C1858.22 372.455 1856.38 371.972 1854.92 371.006C1853.46 370.04 1852.54 368.629 1852.15 366.773L1855.33 365.977C1855.63 367.152 1856.21 368.032 1857.05 368.619C1857.9 369.206 1859.01 369.5 1860.39 369.5C1861.95 369.5 1863.19 369.169 1864.11 368.506C1865.04 367.833 1865.5 367.028 1865.5 366.091C1865.5 365.333 1865.24 364.699 1864.71 364.188C1864.18 363.667 1863.36 363.278 1862.26 363.023L1858.63 362.17C1856.63 361.697 1855.16 360.963 1854.22 359.969C1853.29 358.965 1852.83 357.71 1852.83 356.205C1852.83 354.973 1853.18 353.884 1853.87 352.938C1854.57 351.991 1855.52 351.247 1856.72 350.707C1857.94 350.168 1859.31 349.898 1860.84 349.898C1863 349.898 1864.7 350.371 1865.93 351.318C1867.17 352.265 1868.05 353.515 1868.57 355.068ZM1883.5 350.182V353.023H1872.2V350.182H1883.5ZM1875.49 344.955H1878.84V365.75C1878.84 366.697 1878.98 367.407 1879.25 367.881C1879.54 368.345 1879.9 368.657 1880.33 368.818C1880.78 368.97 1881.25 369.045 1881.74 369.045C1882.11 369.045 1882.41 369.027 1882.65 368.989C1882.89 368.941 1883.08 368.903 1883.22 368.875L1883.9 371.886C1883.67 371.972 1883.36 372.057 1882.95 372.142C1882.54 372.237 1882.02 372.284 1881.4 372.284C1880.45 372.284 1879.52 372.08 1878.62 371.673C1877.72 371.266 1876.97 370.646 1876.37 369.812C1875.78 368.979 1875.49 367.928 1875.49 366.659V344.955ZM1607.42 398.182V401.023H1595.66V398.182H1607.42ZM1599.18 420V395.17C1599.18 393.92 1599.48 392.879 1600.06 392.045C1600.65 391.212 1601.41 390.587 1602.35 390.17C1603.29 389.754 1604.28 389.545 1605.32 389.545C1606.14 389.545 1606.81 389.612 1607.34 389.744C1607.86 389.877 1608.24 390 1608.5 390.114L1607.53 393.011C1607.36 392.955 1607.13 392.884 1606.82 392.798C1606.53 392.713 1606.14 392.67 1605.66 392.67C1604.55 392.67 1603.75 392.95 1603.26 393.509C1602.78 394.067 1602.53 394.886 1602.53 395.966V420H1599.18ZM1612.12 420V398.182H1615.47V420H1612.12ZM1613.82 394.545C1613.17 394.545 1612.61 394.323 1612.13 393.878C1611.67 393.433 1611.44 392.898 1611.44 392.273C1611.44 391.648 1611.67 391.113 1612.13 390.668C1612.61 390.223 1613.17 390 1613.82 390C1614.48 390 1615.04 390.223 1615.5 390.668C1615.97 391.113 1616.21 391.648 1616.21 392.273C1616.21 392.898 1615.97 393.433 1615.5 393.878C1615.04 394.323 1614.48 394.545 1613.82 394.545ZM1631.1 398.182V401.023H1619.79V398.182H1631.1ZM1623.09 392.955H1626.44V413.75C1626.44 414.697 1626.58 415.407 1626.85 415.881C1627.14 416.345 1627.5 416.657 1627.93 416.818C1628.38 416.97 1628.85 417.045 1629.34 417.045C1629.71 417.045 1630.01 417.027 1630.25 416.989C1630.48 416.941 1630.67 416.903 1630.82 416.875L1631.5 419.886C1631.27 419.972 1630.95 420.057 1630.55 420.142C1630.14 420.237 1629.62 420.284 1629 420.284C1628.05 420.284 1627.12 420.08 1626.21 419.673C1625.31 419.266 1624.57 418.646 1623.97 417.812C1623.38 416.979 1623.09 415.928 1623.09 414.659V392.955ZM1653.81 420.511C1652.43 420.511 1651.18 420.251 1650.05 419.73C1648.92 419.2 1648.03 418.438 1647.36 417.443C1646.7 416.439 1646.37 415.227 1646.37 413.807C1646.37 412.557 1646.62 411.544 1647.11 410.767C1647.6 409.981 1648.26 409.366 1649.08 408.92C1649.91 408.475 1650.82 408.144 1651.81 407.926C1652.81 407.699 1653.82 407.519 1654.84 407.386C1656.16 407.216 1657.24 407.088 1658.06 407.003C1658.89 406.908 1659.5 406.752 1659.88 406.534C1660.27 406.316 1660.46 405.937 1660.46 405.398V405.284C1660.46 403.883 1660.08 402.794 1659.31 402.017C1658.55 401.241 1657.4 400.852 1655.86 400.852C1654.26 400.852 1653 401.203 1652.09 401.903C1651.19 402.604 1650.55 403.352 1650.18 404.148L1646.99 403.011C1647.56 401.686 1648.32 400.653 1649.27 399.915C1650.22 399.167 1651.27 398.646 1652.39 398.352C1653.53 398.049 1654.65 397.898 1655.74 397.898C1656.45 397.898 1657.25 397.983 1658.16 398.153C1659.08 398.314 1659.96 398.651 1660.82 399.162C1661.68 399.673 1662.39 400.445 1662.96 401.477C1663.53 402.509 1663.81 403.892 1663.81 405.625V420H1660.46V417.045H1660.29C1660.06 417.519 1659.68 418.026 1659.15 418.565C1658.62 419.105 1657.92 419.564 1657.04 419.943C1656.16 420.322 1655.08 420.511 1653.81 420.511ZM1654.32 417.5C1655.65 417.5 1656.77 417.24 1657.68 416.719C1658.6 416.198 1659.29 415.526 1659.75 414.702C1660.22 413.878 1660.46 413.011 1660.46 412.102V409.034C1660.32 409.205 1660.01 409.361 1659.52 409.503C1659.05 409.635 1658.5 409.754 1657.88 409.858C1657.26 409.953 1656.66 410.038 1656.07 410.114C1655.49 410.18 1655.02 410.237 1654.67 410.284C1653.79 410.398 1652.98 410.582 1652.22 410.838C1651.47 411.084 1650.87 411.458 1650.4 411.96C1649.95 412.453 1649.72 413.125 1649.72 413.977C1649.72 415.142 1650.15 416.023 1651.01 416.619C1651.89 417.206 1652.99 417.5 1654.32 417.5ZM1686.99 398.182L1678.92 420H1675.51L1667.45 398.182H1671.08L1677.1 415.568H1677.33L1683.35 398.182H1686.99ZM1697.17 420.511C1695.79 420.511 1694.53 420.251 1693.41 419.73C1692.28 419.2 1691.39 418.438 1690.72 417.443C1690.06 416.439 1689.73 415.227 1689.73 413.807C1689.73 412.557 1689.98 411.544 1690.47 410.767C1690.96 409.981 1691.62 409.366 1692.44 408.92C1693.27 408.475 1694.18 408.144 1695.17 407.926C1696.17 407.699 1697.18 407.519 1698.19 407.386C1699.52 407.216 1700.6 407.088 1701.42 407.003C1702.25 406.908 1702.86 406.752 1703.24 406.534C1703.63 406.316 1703.82 405.937 1703.82 405.398V405.284C1703.82 403.883 1703.44 402.794 1702.67 402.017C1701.91 401.241 1700.76 400.852 1699.22 400.852C1697.62 400.852 1696.36 401.203 1695.45 401.903C1694.54 402.604 1693.91 403.352 1693.54 404.148L1690.35 403.011C1690.92 401.686 1691.68 400.653 1692.63 399.915C1693.58 399.167 1694.62 398.646 1695.75 398.352C1696.89 398.049 1698.01 397.898 1699.1 397.898C1699.8 397.898 1700.61 397.983 1701.52 398.153C1702.44 398.314 1703.32 398.651 1704.18 399.162C1705.04 399.673 1705.75 400.445 1706.32 401.477C1706.89 402.509 1707.17 403.892 1707.17 405.625V420H1703.82V417.045H1703.65C1703.42 417.519 1703.04 418.026 1702.51 418.565C1701.98 419.105 1701.28 419.564 1700.4 419.943C1699.52 420.322 1698.44 420.511 1697.17 420.511ZM1697.68 417.5C1699.01 417.5 1700.13 417.24 1701.04 416.719C1701.95 416.198 1702.65 415.526 1703.11 414.702C1703.58 413.878 1703.82 413.011 1703.82 412.102V409.034C1703.68 409.205 1703.37 409.361 1702.88 409.503C1702.41 409.635 1701.86 409.754 1701.23 409.858C1700.62 409.953 1700.02 410.038 1699.43 410.114C1698.85 410.18 1698.38 410.237 1698.02 410.284C1697.15 410.398 1696.34 410.582 1695.58 410.838C1694.83 411.084 1694.23 411.458 1693.76 411.96C1693.31 412.453 1693.08 413.125 1693.08 413.977C1693.08 415.142 1693.51 416.023 1694.37 416.619C1695.25 417.206 1696.35 417.5 1697.68 417.5ZM1713.29 420V398.182H1716.64V420H1713.29ZM1715 394.545C1714.34 394.545 1713.78 394.323 1713.31 393.878C1712.84 393.433 1712.61 392.898 1712.61 392.273C1712.61 391.648 1712.84 391.113 1713.31 390.668C1713.78 390.223 1714.34 390 1715 390C1715.65 390 1716.21 390.223 1716.67 390.668C1717.15 391.113 1717.38 391.648 1717.38 392.273C1717.38 392.898 1717.15 393.433 1716.67 393.878C1716.21 394.323 1715.65 394.545 1715 394.545ZM1726.14 390.909V420H1722.78V390.909H1726.14ZM1738.7 420.511C1737.31 420.511 1736.06 420.251 1734.93 419.73C1733.8 419.2 1732.91 418.438 1732.25 417.443C1731.58 416.439 1731.25 415.227 1731.25 413.807C1731.25 412.557 1731.5 411.544 1731.99 410.767C1732.48 409.981 1733.14 409.366 1733.97 408.92C1734.79 408.475 1735.7 408.144 1736.69 407.926C1737.7 407.699 1738.71 407.519 1739.72 407.386C1741.04 407.216 1742.12 407.088 1742.94 407.003C1743.78 406.908 1744.38 406.752 1744.76 406.534C1745.15 406.316 1745.34 405.937 1745.34 405.398V405.284C1745.34 403.883 1744.96 402.794 1744.19 402.017C1743.44 401.241 1742.28 400.852 1740.74 400.852C1739.14 400.852 1737.89 401.203 1736.98 401.903C1736.07 402.604 1735.43 403.352 1735.06 404.148L1731.88 403.011C1732.45 401.686 1733.2 400.653 1734.15 399.915C1735.11 399.167 1736.15 398.646 1737.28 398.352C1738.41 398.049 1739.53 397.898 1740.63 397.898C1741.33 397.898 1742.13 397.983 1743.04 398.153C1743.96 398.314 1744.85 398.651 1745.7 399.162C1746.56 399.673 1747.28 400.445 1747.84 401.477C1748.41 402.509 1748.7 403.892 1748.7 405.625V420H1745.34V417.045H1745.17C1744.95 417.519 1744.57 418.026 1744.04 418.565C1743.51 419.105 1742.8 419.564 1741.92 419.943C1741.04 420.322 1739.96 420.511 1738.7 420.511ZM1739.21 417.5C1740.53 417.5 1741.65 417.24 1742.56 416.719C1743.48 416.198 1744.17 415.526 1744.63 414.702C1745.11 413.878 1745.34 413.011 1745.34 412.102V409.034C1745.2 409.205 1744.89 409.361 1744.41 409.503C1743.93 409.635 1743.38 409.754 1742.76 409.858C1742.14 409.953 1741.54 410.038 1740.95 410.114C1740.38 410.18 1739.91 410.237 1739.55 410.284C1738.68 410.398 1737.86 410.582 1737.1 410.838C1736.36 411.084 1735.75 411.458 1735.29 411.96C1734.83 412.453 1734.6 413.125 1734.6 413.977C1734.6 415.142 1735.04 416.023 1735.9 416.619C1736.77 417.206 1737.87 417.5 1739.21 417.5ZM1755.27 420V390.909H1758.62V401.648H1758.91C1759.15 401.269 1759.49 400.786 1759.93 400.199C1760.37 399.602 1761.01 399.072 1761.83 398.608C1762.66 398.134 1763.79 397.898 1765.21 397.898C1767.05 397.898 1768.67 398.357 1770.07 399.276C1771.47 400.194 1772.57 401.496 1773.35 403.182C1774.14 404.867 1774.53 406.856 1774.53 409.148C1774.53 411.458 1774.14 413.461 1773.35 415.156C1772.57 416.842 1771.48 418.149 1770.08 419.077C1768.69 419.995 1767.09 420.455 1765.27 420.455C1763.87 420.455 1762.75 420.223 1761.9 419.759C1761.06 419.285 1760.41 418.75 1759.96 418.153C1759.5 417.547 1759.15 417.045 1758.91 416.648H1758.51V420H1755.27ZM1758.56 409.091C1758.56 410.739 1758.81 412.192 1759.29 413.452C1759.77 414.702 1760.48 415.682 1761.41 416.392C1762.33 417.093 1763.47 417.443 1764.81 417.443C1766.22 417.443 1767.39 417.074 1768.32 416.335C1769.27 415.587 1769.98 414.583 1770.45 413.324C1770.94 412.055 1771.18 410.644 1771.18 409.091C1771.18 407.557 1770.94 406.174 1770.47 404.943C1770 403.703 1769.3 402.723 1768.35 402.003C1767.41 401.274 1766.23 400.909 1764.81 400.909C1763.45 400.909 1762.3 401.255 1761.38 401.946C1760.45 402.628 1759.75 403.584 1759.27 404.815C1758.8 406.037 1758.56 407.462 1758.56 409.091ZM1783.01 390.909V420H1779.66V390.909H1783.01ZM1798.3 420.455C1796.2 420.455 1794.38 419.991 1792.86 419.062C1791.34 418.125 1790.17 416.818 1789.35 415.142C1788.53 413.456 1788.13 411.496 1788.13 409.261C1788.13 407.027 1788.53 405.057 1789.35 403.352C1790.17 401.638 1791.32 400.303 1792.79 399.347C1794.26 398.381 1795.99 397.898 1797.96 397.898C1799.09 397.898 1800.22 398.087 1801.32 398.466C1802.43 398.845 1803.44 399.46 1804.35 400.312C1805.26 401.155 1805.98 402.273 1806.52 403.665C1807.06 405.057 1807.33 406.771 1807.33 408.807V410.227H1790.51V407.33H1803.92C1803.92 406.098 1803.68 405 1803.18 404.034C1802.7 403.068 1802.01 402.306 1801.11 401.747C1800.22 401.188 1799.17 400.909 1797.96 400.909C1796.62 400.909 1795.47 401.241 1794.49 401.903C1793.53 402.557 1792.78 403.409 1792.26 404.46C1791.74 405.511 1791.48 406.638 1791.48 407.841V409.773C1791.48 411.42 1791.76 412.817 1792.33 413.963C1792.91 415.099 1793.71 415.966 1794.73 416.562C1795.76 417.15 1796.94 417.443 1798.3 417.443C1799.18 417.443 1799.97 417.32 1800.68 417.074C1801.4 416.818 1802.02 416.439 1802.55 415.938C1803.07 415.426 1803.47 414.792 1803.75 414.034L1806.99 414.943C1806.65 416.042 1806.08 417.008 1805.27 417.841C1804.47 418.665 1803.47 419.309 1802.29 419.773C1801.11 420.227 1799.78 420.455 1798.3 420.455Z" fill="white"/>
<line x1="436.104" y1="267" x2="436.104" y2="316" stroke="white" stroke-width="2"/>
<line x1="1248.19" y1="267" x2="1248.19" y2="316" stroke="white" stroke-width="2"/>
<line x1="1741" y1="267" x2="1741" y2="316" stroke="white" stroke-width="2"/>
<line x1="224" y1="315" x2="1740" y2="315" stroke="white" stroke-width="2"/>
<rect x="1" y="267" width="229" height="150" rx="27" fill="#3B82F6" stroke="#DBDBDB" stroke-width="2"/>
<path d="M78.536 333V303.909H90.0133C92.2197 303.909 94.0994 304.33 95.6525 305.173C97.2055 306.007 98.3892 307.167 99.2036 308.653C100.027 310.131 100.439 311.835 100.439 313.767C100.439 315.699 100.023 317.403 99.1894 318.881C98.3561 320.358 97.1487 321.509 95.5673 322.332C93.9953 323.156 92.0919 323.568 89.857 323.568H82.5417V318.639H88.8627C90.0464 318.639 91.0218 318.436 91.7888 318.028C92.5654 317.612 93.143 317.039 93.5218 316.31C93.9101 315.571 94.1042 314.723 94.1042 313.767C94.1042 312.801 93.9101 311.958 93.5218 311.239C93.143 310.509 92.5654 309.946 91.7888 309.548C91.0123 309.141 90.0275 308.938 88.8343 308.938H84.6866V333H78.536ZM103.824 327.886V323.043L115.969 303.909H120.145V310.614H117.673L110.017 322.73V322.957H127.275V327.886H103.824ZM117.787 333V326.409L117.9 324.264V303.909H123.667V333H117.787ZM134.967 329.619C134.03 329.619 133.225 329.288 132.552 328.625C131.889 327.962 131.558 327.157 131.558 326.21C131.558 325.282 131.889 324.487 132.552 323.824C133.225 323.161 134.03 322.83 134.967 322.83C135.876 322.83 136.672 323.161 137.353 323.824C138.035 324.487 138.376 325.282 138.376 326.21C138.376 326.835 138.215 327.408 137.893 327.929C137.581 328.44 137.169 328.852 136.657 329.165C136.146 329.468 135.583 329.619 134.967 329.619ZM134.967 315.344C134.03 315.344 133.225 315.012 132.552 314.349C131.889 313.687 131.558 312.882 131.558 311.935C131.558 311.007 131.889 310.216 132.552 309.562C133.225 308.9 134.03 308.568 134.967 308.568C135.876 308.568 136.672 308.9 137.353 309.562C138.035 310.216 138.376 311.007 138.376 311.935C138.376 312.569 138.215 313.147 137.893 313.668C137.581 314.179 137.169 314.586 136.657 314.889C136.146 315.192 135.583 315.344 134.967 315.344ZM62.9856 381.398C60.8644 381.398 58.9752 381.033 57.318 380.304C55.6702 379.565 54.3681 378.552 53.4117 377.264C52.4647 375.967 51.9771 374.471 51.9486 372.776H58.1418C58.1797 373.486 58.4117 374.111 58.8378 374.651C59.2735 375.181 59.8511 375.593 60.5708 375.886C61.2905 376.18 62.1002 376.327 62.9998 376.327C63.9373 376.327 64.7659 376.161 65.4856 375.83C66.2053 375.498 66.7687 375.039 67.1759 374.452C67.5831 373.865 67.7867 373.187 67.7867 372.42C67.7867 371.644 67.5689 370.957 67.1333 370.361C66.7072 369.755 66.0916 369.281 65.2867 368.94C64.4913 368.599 63.5443 368.429 62.4458 368.429H59.7327V363.912H62.4458C63.3738 363.912 64.193 363.751 64.9032 363.429C65.6229 363.107 66.1816 362.662 66.5793 362.094C66.9771 361.516 67.1759 360.844 67.1759 360.077C67.1759 359.348 67.0007 358.708 66.6503 358.159C66.3094 357.6 65.8265 357.165 65.2015 356.852C64.586 356.54 63.8663 356.384 63.0424 356.384C62.2091 356.384 61.4467 356.535 60.7555 356.838C60.0642 357.132 59.5102 357.553 59.0935 358.102C58.6769 358.652 58.4543 359.295 58.4259 360.034H52.531C52.5594 358.358 53.0377 356.881 53.9657 355.602C54.8937 354.324 56.1437 353.325 57.7157 352.605C59.2971 351.876 61.0822 351.511 63.0708 351.511C65.0784 351.511 66.835 351.876 68.3407 352.605C69.8464 353.334 71.0159 354.319 71.8492 355.56C72.692 356.791 73.1087 358.173 73.0992 359.707C73.1087 361.336 72.6021 362.695 71.5793 363.784C70.5661 364.873 69.245 365.564 67.6163 365.858V366.085C69.7564 366.36 71.3852 367.103 72.5026 368.315C73.6295 369.518 74.1882 371.024 74.1788 372.832C74.1882 374.49 73.71 375.962 72.7441 377.25C71.7877 378.538 70.4666 379.551 68.781 380.29C67.0954 381.028 65.1636 381.398 62.9856 381.398ZM90.0062 381.639C87.563 381.63 85.4607 381.028 83.6994 379.835C81.9475 378.642 80.598 376.914 79.6511 374.651C78.7136 372.387 78.2495 369.665 78.259 366.483C78.259 363.311 78.7278 360.607 79.6653 358.372C80.6122 356.137 81.9617 354.437 83.7136 353.273C85.4749 352.098 87.5725 351.511 90.0062 351.511C92.4399 351.511 94.5327 352.098 96.2846 353.273C98.0459 354.447 99.4001 356.152 100.347 358.386C101.294 360.612 101.763 363.311 101.753 366.483C101.753 369.674 101.28 372.402 100.333 374.665C99.3954 376.928 98.0507 378.656 96.2988 379.849C94.5469 381.043 92.4494 381.639 90.0062 381.639ZM90.0062 376.54C91.6728 376.54 93.0033 375.702 93.9976 374.026C94.992 372.349 95.4844 369.835 95.4749 366.483C95.4749 364.277 95.2476 362.439 94.7931 360.972C94.348 359.504 93.7136 358.401 92.8897 357.662C92.0753 356.923 91.1141 356.554 90.0062 356.554C88.349 356.554 87.0232 357.383 86.0289 359.04C85.0346 360.697 84.5327 363.178 84.5232 366.483C84.5232 368.718 84.7458 370.583 85.1908 372.08C85.6454 373.566 86.2846 374.684 87.1084 375.432C87.9323 376.17 88.8982 376.54 90.0062 376.54ZM115.567 381V351.909H121.718V364.736H122.101L132.57 351.909H139.942L129.147 364.935L140.07 381H132.712L124.743 369.04L121.718 372.733V381H115.567ZM143.145 381V351.909H154.793C156.933 351.909 158.718 352.226 160.148 352.861C161.578 353.495 162.653 354.376 163.373 355.503C164.092 356.62 164.452 357.908 164.452 359.366C164.452 360.503 164.225 361.502 163.77 362.364C163.316 363.216 162.691 363.917 161.895 364.466C161.109 365.006 160.21 365.389 159.197 365.616V365.901C160.304 365.948 161.341 366.26 162.307 366.838C163.283 367.416 164.073 368.225 164.679 369.267C165.286 370.299 165.589 371.53 165.589 372.96C165.589 374.504 165.205 375.882 164.438 377.094C163.68 378.296 162.558 379.248 161.072 379.949C159.585 380.65 157.752 381 155.574 381H143.145ZM149.296 375.972H154.31C156.024 375.972 157.274 375.645 158.06 374.991C158.846 374.329 159.239 373.448 159.239 372.349C159.239 371.545 159.045 370.834 158.657 370.219C158.268 369.603 157.715 369.12 156.995 368.77C156.285 368.42 155.437 368.244 154.452 368.244H149.296V375.972ZM149.296 364.082H153.856C154.698 364.082 155.447 363.936 156.1 363.642C156.763 363.339 157.284 362.913 157.662 362.364C158.051 361.814 158.245 361.156 158.245 360.389C158.245 359.338 157.871 358.491 157.123 357.847C156.384 357.203 155.333 356.881 153.969 356.881H149.296V364.082Z" fill="white"/>
<rect x="1" y="78" width="1885" height="150" rx="27" stroke="#DBDBDB" stroke-width="2"/>
<rect x="2.05859" y="78" width="356.812" height="150" rx="27" fill="#009966" stroke="#DBDBDB" stroke-width="2"/>
<path d="M1378 105C1378 90.0883 1390.09 78 1405 78H1520C1534.91 78 1547 90.0883 1547 105V201C1547 215.912 1534.91 228 1520 228H1405C1390.09 228 1378 215.912 1378 201V105Z" fill="#FB701A" stroke="#DBDBDB" stroke-width="2"/>
<rect x="531.453" y="78" width="560.734" height="150" rx="27" fill="#EC003F" stroke="#DBDBDB" stroke-width="2"/>
<path d="M152.184 144V114.909H163.662C165.868 114.909 167.748 115.33 169.301 116.173C170.854 117.007 172.038 118.167 172.852 119.653C173.676 121.131 174.088 122.835 174.088 124.767C174.088 126.699 173.671 128.403 172.838 129.881C172.004 131.358 170.797 132.509 169.216 133.332C167.644 134.156 165.74 134.568 163.505 134.568H156.19V129.639H162.511C163.695 129.639 164.67 129.436 165.437 129.028C166.214 128.612 166.791 128.039 167.17 127.31C167.558 126.571 167.753 125.723 167.753 124.767C167.753 123.801 167.558 122.958 167.17 122.239C166.791 121.509 166.214 120.946 165.437 120.548C164.661 120.141 163.676 119.938 162.483 119.938H158.335V144H152.184ZM190.569 114.909V144H184.418V120.747H184.248L177.586 124.923V119.469L184.787 114.909H190.569ZM201.076 140.619C200.139 140.619 199.334 140.288 198.662 139.625C197.999 138.962 197.667 138.157 197.667 137.21C197.667 136.282 197.999 135.487 198.662 134.824C199.334 134.161 200.139 133.83 201.076 133.83C201.985 133.83 202.781 134.161 203.463 134.824C204.145 135.487 204.485 136.282 204.485 137.21C204.485 137.835 204.324 138.408 204.003 138.929C203.69 139.44 203.278 139.852 202.767 140.165C202.255 140.468 201.692 140.619 201.076 140.619ZM201.076 126.344C200.139 126.344 199.334 126.012 198.662 125.349C197.999 124.687 197.667 123.882 197.667 122.935C197.667 122.007 197.999 121.216 198.662 120.562C199.334 119.9 200.139 119.568 201.076 119.568C201.985 119.568 202.781 119.9 203.463 120.562C204.145 121.216 204.485 122.007 204.485 122.935C204.485 123.569 204.324 124.147 204.003 124.668C203.69 125.179 203.278 125.586 202.767 125.889C202.255 126.192 201.692 126.344 201.076 126.344ZM133.03 192.398C131.022 192.398 129.232 192.028 127.66 191.29C126.098 190.551 124.857 189.533 123.939 188.236C123.02 186.938 122.542 185.452 122.504 183.776H128.47C128.536 184.902 129.01 185.816 129.89 186.517C130.771 187.218 131.817 187.568 133.03 187.568C133.995 187.568 134.848 187.355 135.586 186.929C136.334 186.493 136.917 185.892 137.333 185.125C137.76 184.348 137.973 183.458 137.973 182.455C137.973 181.432 137.755 180.532 137.319 179.756C136.893 178.979 136.301 178.373 135.544 177.938C134.786 177.502 133.92 177.279 132.944 177.27C132.092 177.27 131.263 177.445 130.458 177.795C129.663 178.146 129.043 178.624 128.598 179.23L123.129 178.25L124.507 162.909H142.291V167.938H129.578L128.825 175.224H128.995C129.507 174.505 130.279 173.908 131.311 173.435C132.343 172.961 133.498 172.724 134.777 172.724C136.529 172.724 138.091 173.136 139.464 173.96C140.837 174.784 141.922 175.916 142.717 177.355C143.512 178.785 143.905 180.433 143.896 182.298C143.905 184.259 143.451 186.001 142.532 187.526C141.623 189.041 140.35 190.234 138.711 191.105C137.083 191.967 135.189 192.398 133.03 192.398ZM159.592 192.639C157.149 192.63 155.047 192.028 153.285 190.835C151.533 189.642 150.184 187.914 149.237 185.651C148.299 183.387 147.835 180.665 147.845 177.483C147.845 174.311 148.314 171.607 149.251 169.372C150.198 167.137 151.548 165.437 153.299 164.273C155.061 163.098 157.158 162.511 159.592 162.511C162.026 162.511 164.119 163.098 165.87 164.273C167.632 165.447 168.986 167.152 169.933 169.386C170.88 171.612 171.349 174.311 171.339 177.483C171.339 180.674 170.866 183.402 169.919 185.665C168.981 187.928 167.637 189.656 165.885 190.849C164.133 192.043 162.035 192.639 159.592 192.639ZM159.592 187.54C161.259 187.54 162.589 186.702 163.583 185.026C164.578 183.349 165.07 180.835 165.061 177.483C165.061 175.277 164.833 173.439 164.379 171.972C163.934 170.504 163.299 169.401 162.476 168.662C161.661 167.923 160.7 167.554 159.592 167.554C157.935 167.554 156.609 168.383 155.615 170.04C154.62 171.697 154.119 174.178 154.109 177.483C154.109 179.718 154.332 181.583 154.777 183.08C155.231 184.566 155.87 185.684 156.694 186.432C157.518 187.17 158.484 187.54 159.592 187.54ZM185.153 192V162.909H191.304V175.736H191.687L202.156 162.909H209.528L198.733 175.935L209.656 192H202.298L194.329 180.04L191.304 183.733V192H185.153ZM212.731 192V162.909H224.379C226.519 162.909 228.304 163.226 229.734 163.861C231.164 164.495 232.239 165.376 232.958 166.503C233.678 167.62 234.038 168.908 234.038 170.366C234.038 171.503 233.811 172.502 233.356 173.364C232.902 174.216 232.277 174.917 231.481 175.466C230.695 176.006 229.796 176.389 228.782 176.616V176.901C229.89 176.948 230.927 177.26 231.893 177.838C232.869 178.416 233.659 179.225 234.265 180.267C234.871 181.299 235.174 182.53 235.174 183.96C235.174 185.504 234.791 186.882 234.024 188.094C233.266 189.296 232.144 190.248 230.657 190.949C229.171 191.65 227.338 192 225.16 192H212.731ZM218.882 186.972H223.896C225.61 186.972 226.86 186.645 227.646 185.991C228.432 185.329 228.825 184.448 228.825 183.349C228.825 182.545 228.631 181.834 228.243 181.219C227.854 180.603 227.3 180.12 226.581 179.77C225.87 179.42 225.023 179.244 224.038 179.244H218.882V186.972ZM218.882 175.082H223.441C224.284 175.082 225.032 174.936 225.686 174.642C226.349 174.339 226.869 173.913 227.248 173.364C227.637 172.814 227.831 172.156 227.831 171.389C227.831 170.338 227.457 169.491 226.708 168.847C225.97 168.203 224.919 167.881 223.555 167.881H218.882V175.082Z" fill="white"/>
<path d="M1181.42 165.886V161.043L1193.57 141.909H1197.74V148.614H1195.27L1187.61 160.73V160.957H1204.87V165.886H1181.42ZM1195.38 171V164.409L1195.5 162.264V141.909H1201.27V171H1195.38ZM1220.38 171.639C1217.93 171.63 1215.83 171.028 1214.07 169.835C1212.32 168.642 1210.97 166.914 1210.02 164.651C1209.08 162.387 1208.62 159.665 1208.63 156.483C1208.63 153.311 1209.1 150.607 1210.04 148.372C1210.98 146.137 1212.33 144.437 1214.08 143.273C1215.85 142.098 1217.94 141.511 1220.38 141.511C1222.81 141.511 1224.9 142.098 1226.66 143.273C1228.42 144.447 1229.77 146.152 1230.72 148.386C1231.67 150.612 1232.13 153.311 1232.12 156.483C1232.12 159.674 1231.65 162.402 1230.7 164.665C1229.77 166.928 1228.42 168.656 1226.67 169.849C1224.92 171.043 1222.82 171.639 1220.38 171.639ZM1220.38 166.54C1222.04 166.54 1223.37 165.702 1224.37 164.026C1225.36 162.349 1225.86 159.835 1225.85 156.483C1225.85 154.277 1225.62 152.439 1225.16 150.972C1224.72 149.504 1224.08 148.401 1223.26 147.662C1222.45 146.923 1221.49 146.554 1220.38 146.554C1218.72 146.554 1217.39 147.383 1216.4 149.04C1215.41 150.697 1214.9 153.178 1214.89 156.483C1214.89 158.718 1215.12 160.583 1215.56 162.08C1216.02 163.566 1216.66 164.684 1217.48 165.432C1218.3 166.17 1219.27 166.54 1220.38 166.54ZM1245.94 171V141.909H1252.09V154.736H1252.47L1262.94 141.909H1270.31L1259.52 154.935L1270.44 171H1263.08L1255.11 159.04L1252.09 162.733V171H1245.94ZM1273.52 171V141.909H1285.16C1287.3 141.909 1289.09 142.226 1290.52 142.861C1291.95 143.495 1293.02 144.376 1293.74 145.503C1294.46 146.62 1294.82 147.908 1294.82 149.366C1294.82 150.503 1294.6 151.502 1294.14 152.364C1293.69 153.216 1293.06 153.917 1292.27 154.466C1291.48 155.006 1290.58 155.389 1289.57 155.616V155.901C1290.68 155.948 1291.71 156.26 1292.68 156.838C1293.65 157.416 1294.44 158.225 1295.05 159.267C1295.66 160.299 1295.96 161.53 1295.96 162.96C1295.96 164.504 1295.58 165.882 1294.81 167.094C1294.05 168.296 1292.93 169.248 1291.44 169.949C1289.96 170.65 1288.12 171 1285.95 171H1273.52ZM1279.67 165.972H1284.68C1286.4 165.972 1287.65 165.645 1288.43 164.991C1289.22 164.329 1289.61 163.448 1289.61 162.349C1289.61 161.545 1289.42 160.834 1289.03 160.219C1288.64 159.603 1288.09 159.12 1287.37 158.77C1286.66 158.42 1285.81 158.244 1284.82 158.244H1279.67V165.972ZM1279.67 154.082H1284.23C1285.07 154.082 1285.82 153.936 1286.47 153.642C1287.13 153.339 1287.65 152.913 1288.03 152.364C1288.42 151.814 1288.62 151.156 1288.62 150.389C1288.62 149.338 1288.24 148.491 1287.49 147.847C1286.76 147.203 1285.7 146.881 1284.34 146.881H1279.67V154.082Z" fill="white"/>
<path d="M1667.15 171.398C1665.14 171.398 1663.35 171.028 1661.78 170.29C1660.22 169.551 1658.98 168.533 1658.06 167.236C1657.14 165.938 1656.66 164.452 1656.63 162.776H1662.59C1662.66 163.902 1663.13 164.816 1664.01 165.517C1664.89 166.218 1665.94 166.568 1667.15 166.568C1668.12 166.568 1668.97 166.355 1669.71 165.929C1670.46 165.493 1671.04 164.892 1671.45 164.125C1671.88 163.348 1672.09 162.458 1672.09 161.455C1672.09 160.432 1671.88 159.532 1671.44 158.756C1671.01 157.979 1670.42 157.373 1669.66 156.938C1668.91 156.502 1668.04 156.279 1667.07 156.27C1666.21 156.27 1665.38 156.445 1664.58 156.795C1663.78 157.146 1663.16 157.624 1662.72 158.23L1657.25 157.25L1658.63 141.909H1676.41V146.938H1663.7L1662.95 154.224H1663.12C1663.63 153.505 1664.4 152.908 1665.43 152.435C1666.46 151.961 1667.62 151.724 1668.9 151.724C1670.65 151.724 1672.21 152.136 1673.59 152.96C1674.96 153.784 1676.04 154.916 1676.84 156.355C1677.63 157.785 1678.03 159.433 1678.02 161.298C1678.03 163.259 1677.57 165.001 1676.65 166.526C1675.74 168.041 1674.47 169.234 1672.83 170.105C1671.2 170.967 1669.31 171.398 1667.15 171.398ZM1693.71 171.639C1691.27 171.63 1689.17 171.028 1687.41 169.835C1685.65 168.642 1684.31 166.914 1683.36 164.651C1682.42 162.387 1681.96 159.665 1681.97 156.483C1681.97 153.311 1682.43 150.607 1683.37 148.372C1684.32 146.137 1685.67 144.437 1687.42 143.273C1689.18 142.098 1691.28 141.511 1693.71 141.511C1696.15 141.511 1698.24 142.098 1699.99 143.273C1701.75 144.447 1703.11 146.152 1704.05 148.386C1705 150.612 1705.47 153.311 1705.46 156.483C1705.46 159.674 1704.99 162.402 1704.04 164.665C1703.1 166.928 1701.76 168.656 1700.01 169.849C1698.25 171.043 1696.16 171.639 1693.71 171.639ZM1693.71 166.54C1695.38 166.54 1696.71 165.702 1697.7 164.026C1698.7 162.349 1699.19 159.835 1699.18 156.483C1699.18 154.277 1698.95 152.439 1698.5 150.972C1698.06 149.504 1697.42 148.401 1696.6 147.662C1695.78 146.923 1694.82 146.554 1693.71 146.554C1692.06 146.554 1690.73 147.383 1689.74 149.04C1688.74 150.697 1688.24 153.178 1688.23 156.483C1688.23 158.718 1688.45 160.583 1688.9 162.08C1689.35 163.566 1689.99 164.684 1690.82 165.432C1691.64 166.17 1692.61 166.54 1693.71 166.54ZM1719.27 171V141.909H1725.42V154.736H1725.81L1736.28 141.909H1743.65L1732.85 154.935L1743.78 171H1736.42L1728.45 159.04L1725.42 162.733V171H1719.27ZM1746.85 171V141.909H1758.5C1760.64 141.909 1762.43 142.226 1763.86 142.861C1765.29 143.495 1766.36 144.376 1767.08 145.503C1767.8 146.62 1768.16 147.908 1768.16 149.366C1768.16 150.503 1767.93 151.502 1767.48 152.364C1767.02 153.216 1766.4 153.917 1765.6 154.466C1764.82 155.006 1763.92 155.389 1762.9 155.616V155.901C1764.01 155.948 1765.05 156.26 1766.01 156.838C1766.99 157.416 1767.78 158.225 1768.39 159.267C1768.99 160.299 1769.3 161.53 1769.3 162.96C1769.3 164.504 1768.91 165.882 1768.15 167.094C1767.39 168.296 1766.27 169.248 1764.78 169.949C1763.29 170.65 1761.46 171 1759.28 171H1746.85ZM1753 165.972H1758.02C1759.73 165.972 1760.98 165.645 1761.77 164.991C1762.55 164.329 1762.95 163.448 1762.95 162.349C1762.95 161.545 1762.75 160.834 1762.36 160.219C1761.98 159.603 1761.42 159.12 1760.7 158.77C1759.99 158.42 1759.14 158.244 1758.16 158.244H1753V165.972ZM1753 154.082H1757.56C1758.41 154.082 1759.15 153.936 1759.81 153.642C1760.47 153.339 1760.99 152.913 1761.37 152.364C1761.76 151.814 1761.95 151.156 1761.95 150.389C1761.95 149.338 1761.58 148.491 1760.83 147.847C1760.09 147.203 1759.04 146.881 1757.68 146.881H1753V154.082Z" fill="white"/>
<path d="M780.939 144V114.909H792.417C794.623 114.909 796.503 115.33 798.056 116.173C799.609 117.007 800.793 118.167 801.607 119.653C802.431 121.131 802.843 122.835 802.843 124.767C802.843 126.699 802.426 128.403 801.593 129.881C800.759 131.358 799.552 132.509 797.971 133.332C796.399 134.156 794.495 134.568 792.26 134.568H784.945V129.639H791.266C792.45 129.639 793.425 129.436 794.192 129.028C794.969 128.612 795.546 128.039 795.925 127.31C796.313 126.571 796.508 125.723 796.508 124.767C796.508 123.801 796.313 122.958 795.925 122.239C795.546 121.509 794.969 120.946 794.192 120.548C793.416 120.141 792.431 119.938 791.238 119.938H787.09V144H780.939ZM806.667 144V139.568L817.022 129.98C817.903 129.128 818.642 128.361 819.238 127.679C819.844 126.997 820.304 126.33 820.616 125.676C820.929 125.013 821.085 124.298 821.085 123.531C821.085 122.679 820.891 121.945 820.503 121.33C820.114 120.705 819.584 120.226 818.912 119.895C818.239 119.554 817.477 119.384 816.625 119.384C815.735 119.384 814.958 119.563 814.295 119.923C813.632 120.283 813.121 120.799 812.761 121.472C812.401 122.144 812.221 122.944 812.221 123.872H806.383C806.383 121.969 806.814 120.316 807.676 118.915C808.538 117.513 809.745 116.429 811.298 115.662C812.851 114.895 814.641 114.511 816.667 114.511C818.751 114.511 820.564 114.881 822.108 115.619C823.661 116.348 824.868 117.362 825.73 118.659C826.592 119.956 827.022 121.443 827.022 123.119C827.022 124.218 826.805 125.302 826.369 126.372C825.943 127.442 825.181 128.631 824.082 129.938C822.984 131.235 821.435 132.793 819.437 134.611L815.19 138.773V138.972H827.406V144H806.667ZM835.456 140.619C834.519 140.619 833.714 140.288 833.042 139.625C832.379 138.962 832.047 138.157 832.047 137.21C832.047 136.282 832.379 135.487 833.042 134.824C833.714 134.161 834.519 133.83 835.456 133.83C836.365 133.83 837.161 134.161 837.843 134.824C838.525 135.487 838.865 136.282 838.865 137.21C838.865 137.835 838.704 138.408 838.383 138.929C838.07 139.44 837.658 139.852 837.147 140.165C836.635 140.468 836.072 140.619 835.456 140.619ZM835.456 126.344C834.519 126.344 833.714 126.012 833.042 125.349C832.379 124.687 832.047 123.882 832.047 122.935C832.047 122.007 832.379 121.216 833.042 120.562C833.714 119.9 834.519 119.568 835.456 119.568C836.365 119.568 837.161 119.9 837.843 120.562C838.525 121.216 838.865 122.007 838.865 122.935C838.865 123.569 838.704 124.147 838.383 124.668C838.07 125.179 837.658 125.586 837.147 125.889C836.635 126.192 836.072 126.344 835.456 126.344ZM764.492 192.398C762.305 192.398 760.359 192.043 758.654 191.332C756.959 190.613 755.629 189.633 754.663 188.392C753.697 187.152 753.214 185.745 753.214 184.173C753.214 182.961 753.488 181.848 754.038 180.835C754.596 179.812 755.354 178.965 756.31 178.293C757.267 177.611 758.337 177.175 759.521 176.986V176.787C757.968 176.474 756.708 175.722 755.742 174.528C754.776 173.326 754.293 171.929 754.293 170.338C754.293 168.832 754.734 167.492 755.614 166.318C756.495 165.134 757.702 164.206 759.237 163.534C760.78 162.852 762.532 162.511 764.492 162.511C766.452 162.511 768.2 162.852 769.734 163.534C771.277 164.216 772.489 165.149 773.37 166.332C774.251 167.507 774.696 168.842 774.705 170.338C774.696 171.938 774.203 173.335 773.228 174.528C772.253 175.722 771.003 176.474 769.478 176.787V176.986C770.643 177.175 771.699 177.611 772.646 178.293C773.602 178.965 774.36 179.812 774.918 180.835C775.487 181.848 775.775 182.961 775.785 184.173C775.775 185.745 775.288 187.152 774.322 188.392C773.356 189.633 772.021 190.613 770.316 191.332C768.621 192.043 766.68 192.398 764.492 192.398ZM764.492 187.881C765.468 187.881 766.32 187.705 767.049 187.355C767.778 186.995 768.346 186.503 768.754 185.878C769.17 185.243 769.379 184.514 769.379 183.69C769.379 182.848 769.166 182.104 768.739 181.46C768.313 180.807 767.736 180.295 767.006 179.926C766.277 179.547 765.439 179.358 764.492 179.358C763.555 179.358 762.717 179.547 761.978 179.926C761.239 180.295 760.657 180.807 760.231 181.46C759.814 182.104 759.606 182.848 759.606 183.69C759.606 184.514 759.809 185.243 760.217 185.878C760.624 186.503 761.197 186.995 761.935 187.355C762.674 187.705 763.526 187.881 764.492 187.881ZM764.492 174.884C765.307 174.884 766.031 174.718 766.666 174.386C767.3 174.055 767.797 173.596 768.157 173.009C768.517 172.421 768.697 171.744 768.697 170.977C768.697 170.22 768.517 169.557 768.157 168.989C767.797 168.411 767.305 167.961 766.68 167.639C766.055 167.308 765.326 167.142 764.492 167.142C763.668 167.142 762.939 167.308 762.305 167.639C761.67 167.961 761.173 168.411 760.813 168.989C760.463 169.557 760.288 170.22 760.288 170.977C760.288 171.744 760.468 172.421 760.827 173.009C761.187 173.596 761.684 174.055 762.319 174.386C762.953 174.718 763.678 174.884 764.492 174.884ZM791.492 192.639C789.048 192.63 786.946 192.028 785.185 190.835C783.433 189.642 782.083 187.914 781.136 185.651C780.199 183.387 779.735 180.665 779.744 177.483C779.744 174.311 780.213 171.607 781.151 169.372C782.098 167.137 783.447 165.437 785.199 164.273C786.96 163.098 789.058 162.511 791.492 162.511C793.925 162.511 796.018 163.098 797.77 164.273C799.531 165.447 800.885 167.152 801.832 169.386C802.779 171.612 803.248 174.311 803.239 177.483C803.239 180.674 802.765 183.402 801.818 185.665C800.881 187.928 799.536 189.656 797.784 190.849C796.032 192.043 793.935 192.639 791.492 192.639ZM791.492 187.54C793.158 187.54 794.489 186.702 795.483 185.026C796.477 183.349 796.97 180.835 796.96 177.483C796.96 175.277 796.733 173.439 796.278 171.972C795.833 170.504 795.199 169.401 794.375 168.662C793.561 167.923 792.599 167.554 791.492 167.554C789.834 167.554 788.509 168.383 787.514 170.04C786.52 171.697 786.018 174.178 786.009 177.483C786.009 179.718 786.231 181.583 786.676 183.08C787.131 184.566 787.77 185.684 788.594 186.432C789.418 187.17 790.384 187.54 791.492 187.54ZM817.053 192V162.909H823.203V175.736H823.587L834.055 162.909H841.428L830.632 175.935L841.555 192H834.197L826.229 180.04L823.203 183.733V192H817.053ZM844.631 192V162.909H856.278C858.419 162.909 860.204 163.226 861.634 163.861C863.063 164.495 864.138 165.376 864.858 166.503C865.578 167.62 865.938 168.908 865.938 170.366C865.938 171.503 865.71 172.502 865.256 173.364C864.801 174.216 864.176 174.917 863.381 175.466C862.595 176.006 861.695 176.389 860.682 176.616V176.901C861.79 176.948 862.827 177.26 863.793 177.838C864.768 178.416 865.559 179.225 866.165 180.267C866.771 181.299 867.074 182.53 867.074 183.96C867.074 185.504 866.69 186.882 865.923 188.094C865.166 189.296 864.044 190.248 862.557 190.949C861.07 191.65 859.238 192 857.06 192H844.631ZM850.781 186.972H855.796C857.51 186.972 858.76 186.645 859.546 185.991C860.331 185.329 860.724 184.448 860.724 183.349C860.724 182.545 860.53 181.834 860.142 181.219C859.754 180.603 859.2 180.12 858.48 179.77C857.77 179.42 856.922 179.244 855.938 179.244H850.781V186.972ZM850.781 175.082H855.341C856.184 175.082 856.932 174.936 857.585 174.642C858.248 174.339 858.769 173.913 859.148 173.364C859.536 172.814 859.73 172.156 859.73 171.389C859.73 170.338 859.356 169.491 858.608 168.847C857.869 168.203 856.818 167.881 855.455 167.881H850.781V175.082Z" fill="white"/>
<path d="M389.512 171V166.568L399.867 156.98C400.748 156.128 401.486 155.361 402.083 154.679C402.689 153.997 403.148 153.33 403.461 152.676C403.773 152.013 403.93 151.298 403.93 150.531C403.93 149.679 403.735 148.945 403.347 148.33C402.959 147.705 402.429 147.226 401.756 146.895C401.084 146.554 400.322 146.384 399.469 146.384C398.579 146.384 397.803 146.563 397.14 146.923C396.477 147.283 395.966 147.799 395.606 148.472C395.246 149.144 395.066 149.944 395.066 150.872H389.228C389.228 148.969 389.659 147.316 390.52 145.915C391.382 144.513 392.59 143.429 394.143 142.662C395.696 141.895 397.485 141.511 399.512 141.511C401.595 141.511 403.409 141.881 404.952 142.619C406.505 143.348 407.713 144.362 408.574 145.659C409.436 146.956 409.867 148.443 409.867 150.119C409.867 151.218 409.649 152.302 409.214 153.372C408.787 154.442 408.025 155.631 406.927 156.938C405.828 158.235 404.28 159.793 402.282 161.611L398.035 165.773V165.972H410.251V171H389.512ZM426.113 171.639C423.67 171.63 421.568 171.028 419.807 169.835C418.055 168.642 416.705 166.914 415.758 164.651C414.821 162.387 414.357 159.665 414.366 156.483C414.366 153.311 414.835 150.607 415.773 148.372C416.72 146.137 418.069 144.437 419.821 143.273C421.582 142.098 423.68 141.511 426.113 141.511C428.547 141.511 430.64 142.098 432.392 143.273C434.153 144.447 435.507 146.152 436.454 148.386C437.401 150.612 437.87 153.311 437.861 156.483C437.861 159.674 437.387 162.402 436.44 164.665C435.503 166.928 434.158 168.656 432.406 169.849C430.654 171.043 428.557 171.639 426.113 171.639ZM426.113 166.54C427.78 166.54 429.111 165.702 430.105 164.026C431.099 162.349 431.592 159.835 431.582 156.483C431.582 154.277 431.355 152.439 430.9 150.972C430.455 149.504 429.821 148.401 428.997 147.662C428.183 146.923 427.221 146.554 426.113 146.554C424.456 146.554 423.131 147.383 422.136 149.04C421.142 150.697 420.64 153.178 420.631 156.483C420.631 158.718 420.853 160.583 421.298 162.08C421.753 163.566 422.392 164.684 423.216 165.432C424.04 166.17 425.006 166.54 426.113 166.54ZM451.675 171V141.909H457.825V154.736H458.209L468.677 141.909H476.05L465.254 154.935L476.177 171H468.819L460.851 159.04L457.825 162.733V171H451.675ZM479.253 171V141.909H490.9C493.041 141.909 494.826 142.226 496.256 142.861C497.685 143.495 498.76 144.376 499.48 145.503C500.2 146.62 500.56 147.908 500.56 149.366C500.56 150.503 500.332 151.502 499.878 152.364C499.423 153.216 498.798 153.917 498.003 154.466C497.217 155.006 496.317 155.389 495.304 155.616V155.901C496.412 155.948 497.449 156.26 498.415 156.838C499.39 157.416 500.181 158.225 500.787 159.267C501.393 160.299 501.696 161.53 501.696 162.96C501.696 164.504 501.312 165.882 500.545 167.094C499.788 168.296 498.666 169.248 497.179 169.949C495.692 170.65 493.86 171 491.682 171H479.253ZM485.403 165.972H490.417C492.131 165.972 493.381 165.645 494.167 164.991C494.953 164.329 495.346 163.448 495.346 162.349C495.346 161.545 495.152 160.834 494.764 160.219C494.376 159.603 493.822 159.12 493.102 158.77C492.392 158.42 491.544 158.244 490.56 158.244H485.403V165.972ZM485.403 154.082H489.963C490.806 154.082 491.554 153.936 492.207 153.642C492.87 153.339 493.391 152.913 493.77 152.364C494.158 151.814 494.352 151.156 494.352 150.389C494.352 149.338 493.978 148.491 493.23 147.847C492.491 147.203 491.44 146.881 490.077 146.881H485.403V154.082Z" fill="white"/>
<path d="M868.921 9.90909H873.126L883.012 34.0568H883.353L893.24 9.90909H897.444V39H894.149V16.8977H893.865L884.774 39H881.592L872.501 16.8977H872.217V39H868.921V9.90909ZM913.201 39.4545C911.098 39.4545 909.285 38.9905 907.76 38.0625C906.245 37.125 905.076 35.8182 904.252 34.142C903.437 32.4564 903.03 30.4962 903.03 28.2614C903.03 26.0265 903.437 24.0568 904.252 22.3523C905.076 20.6383 906.221 19.303 907.689 18.3466C909.166 17.3807 910.89 16.8977 912.86 16.8977C913.996 16.8977 915.118 17.0871 916.226 17.4659C917.334 17.8447 918.343 18.4602 919.252 19.3125C920.161 20.1553 920.885 21.2727 921.425 22.6648C921.965 24.0568 922.235 25.7708 922.235 27.8068V29.2273H905.416V26.3295H918.826C918.826 25.0985 918.579 24 918.087 23.0341C917.604 22.0682 916.913 21.3059 916.013 20.7472C915.123 20.1884 914.072 19.9091 912.86 19.9091C911.524 19.9091 910.369 20.2405 909.394 20.9034C908.428 21.5568 907.684 22.4091 907.164 23.4602C906.643 24.5114 906.382 25.6383 906.382 26.8409V28.7727C906.382 30.4205 906.666 31.8172 907.235 32.9631C907.812 34.0994 908.612 34.9659 909.635 35.5625C910.658 36.1496 911.846 36.4432 913.201 36.4432C914.081 36.4432 914.877 36.3201 915.587 36.0739C916.307 35.8182 916.927 35.4394 917.448 34.9375C917.969 34.4261 918.371 33.7917 918.655 33.0341L921.894 33.9432C921.553 35.0417 920.98 36.0076 920.175 36.8409C919.37 37.6648 918.376 38.3087 917.192 38.7727C916.008 39.2273 914.678 39.4545 913.201 39.4545ZM927.334 39V17.1818H930.573V20.5909H930.857C931.311 19.4261 932.045 18.5218 933.058 17.8778C934.072 17.2244 935.289 16.8977 936.709 16.8977C938.148 16.8977 939.346 17.2244 940.303 17.8778C941.269 18.5218 942.022 19.4261 942.561 20.5909H942.789C943.347 19.464 944.185 18.5691 945.303 17.9062C946.42 17.2339 947.76 16.8977 949.323 16.8977C951.273 16.8977 952.869 17.5085 954.11 18.7301C955.35 19.9422 955.97 21.8314 955.97 24.3977V39H952.618V24.3977C952.618 22.7879 952.178 21.6373 951.297 20.946C950.416 20.2547 949.38 19.9091 948.186 19.9091C946.652 19.9091 945.464 20.3731 944.621 21.3011C943.778 22.2197 943.357 23.3845 943.357 24.7955V39H939.948V24.0568C939.948 22.8163 939.545 21.8172 938.74 21.0597C937.935 20.2926 936.898 19.9091 935.63 19.9091C934.758 19.9091 933.944 20.1411 933.186 20.6051C932.438 21.0691 931.832 21.7131 931.368 22.5369C930.914 23.3513 930.686 24.2936 930.686 25.3636V39H927.334ZM970.963 39.4545C968.994 39.4545 967.265 38.9858 965.779 38.0483C964.301 37.1108 963.146 35.7992 962.313 34.1136C961.489 32.428 961.077 30.4583 961.077 28.2045C961.077 25.9318 961.489 23.9479 962.313 22.2528C963.146 20.5578 964.301 19.2415 965.779 18.304C967.265 17.3665 968.994 16.8977 970.963 16.8977C972.933 16.8977 974.656 17.3665 976.134 18.304C977.621 19.2415 978.776 20.5578 979.6 22.2528C980.433 23.9479 980.85 25.9318 980.85 28.2045C980.85 30.4583 980.433 32.428 979.6 34.1136C978.776 35.7992 977.621 37.1108 976.134 38.0483C974.656 38.9858 972.933 39.4545 970.963 39.4545ZM970.963 36.4432C972.46 36.4432 973.691 36.0597 974.656 35.2926C975.622 34.5256 976.337 33.517 976.801 32.267C977.265 31.017 977.497 29.6629 977.497 28.2045C977.497 26.7462 977.265 25.3873 976.801 24.1278C976.337 22.8684 975.622 21.8504 974.656 21.0739C973.691 20.2973 972.46 19.9091 970.963 19.9091C969.467 19.9091 968.236 20.2973 967.27 21.0739C966.304 21.8504 965.589 22.8684 965.125 24.1278C964.661 25.3873 964.429 26.7462 964.429 28.2045C964.429 29.6629 964.661 31.017 965.125 32.267C965.589 33.517 966.304 34.5256 967.27 35.2926C968.236 36.0597 969.467 36.4432 970.963 36.4432ZM985.967 39V17.1818H989.205V20.4773H989.433C989.83 19.3977 990.55 18.5218 991.592 17.8494C992.634 17.1771 993.808 16.8409 995.115 16.8409C995.361 16.8409 995.669 16.8456 996.038 16.8551C996.407 16.8646 996.687 16.8788 996.876 16.8977V20.3068C996.762 20.2784 996.502 20.2358 996.095 20.179C995.697 20.1127 995.276 20.0795 994.831 20.0795C993.77 20.0795 992.823 20.3021 991.99 20.7472C991.166 21.1828 990.512 21.7888 990.029 22.5653C989.556 23.3324 989.319 24.2083 989.319 25.1932V39H985.967ZM1003.67 47.1818C1003.1 47.1818 1002.6 47.1345 1002.15 47.0398C1001.71 46.9545 1001.4 46.8693 1001.23 46.7841L1002.08 43.8295C1002.9 44.0379 1003.62 44.1136 1004.24 44.0568C1004.87 44 1005.42 43.7206 1005.9 43.2188C1006.4 42.7263 1006.85 41.9261 1007.25 40.8182L1007.88 39.1136L999.809 17.1818H1003.45L1009.47 34.5682H1009.7L1015.72 17.1818H1019.35L1010.09 42.1818C1009.68 43.3087 1009.16 44.2415 1008.54 44.9801C1007.93 45.7282 1007.21 46.2822 1006.4 46.642C1005.6 47.0019 1004.69 47.1818 1003.67 47.1818Z" fill="white"/>
<path d="M1433.44 144V114.909H1444.92C1447.12 114.909 1449 115.33 1450.56 116.173C1452.11 117.007 1453.29 118.167 1454.11 119.653C1454.93 121.131 1455.34 122.835 1455.34 124.767C1455.34 126.699 1454.93 128.403 1454.09 129.881C1453.26 131.358 1452.05 132.509 1450.47 133.332C1448.9 134.156 1446.99 134.568 1444.76 134.568H1437.44V129.639H1443.77C1444.95 129.639 1445.92 129.436 1446.69 129.028C1447.47 128.612 1448.05 128.039 1448.42 127.31C1448.81 126.571 1449.01 125.723 1449.01 124.767C1449.01 123.801 1448.81 122.958 1448.42 122.239C1448.05 121.509 1447.47 120.946 1446.69 120.548C1445.91 120.141 1444.93 119.938 1443.74 119.938H1439.59V144H1433.44ZM1469.92 144.398C1467.8 144.398 1465.91 144.033 1464.25 143.304C1462.6 142.565 1461.3 141.552 1460.35 140.264C1459.4 138.967 1458.91 137.471 1458.88 135.776H1465.08C1465.11 136.486 1465.35 137.111 1465.77 137.651C1466.21 138.181 1466.78 138.593 1467.5 138.886C1468.22 139.18 1469.03 139.327 1469.93 139.327C1470.87 139.327 1471.7 139.161 1472.42 138.83C1473.14 138.498 1473.7 138.039 1474.11 137.452C1474.52 136.865 1474.72 136.187 1474.72 135.42C1474.72 134.644 1474.5 133.957 1474.07 133.361C1473.64 132.755 1473.03 132.281 1472.22 131.94C1471.43 131.599 1470.48 131.429 1469.38 131.429H1466.67V126.912H1469.38C1470.31 126.912 1471.13 126.751 1471.84 126.429C1472.56 126.107 1473.12 125.662 1473.51 125.094C1473.91 124.516 1474.11 123.844 1474.11 123.077C1474.11 122.348 1473.93 121.708 1473.58 121.159C1473.24 120.6 1472.76 120.165 1472.14 119.852C1471.52 119.54 1470.8 119.384 1469.98 119.384C1469.14 119.384 1468.38 119.535 1467.69 119.838C1467 120.132 1466.44 120.553 1466.03 121.102C1465.61 121.652 1465.39 122.295 1465.36 123.034H1459.46C1459.49 121.358 1459.97 119.881 1460.9 118.602C1461.83 117.324 1463.08 116.325 1464.65 115.605C1466.23 114.876 1468.02 114.511 1470 114.511C1472.01 114.511 1473.77 114.876 1475.27 115.605C1476.78 116.334 1477.95 117.319 1478.78 118.56C1479.63 119.791 1480.04 121.173 1480.03 122.707C1480.04 124.336 1479.54 125.695 1478.51 126.784C1477.5 127.873 1476.18 128.564 1474.55 128.858V129.085C1476.69 129.36 1478.32 130.103 1479.44 131.315C1480.56 132.518 1481.12 134.024 1481.11 135.832C1481.12 137.49 1480.64 138.962 1479.68 140.25C1478.72 141.538 1477.4 142.551 1475.71 143.29C1474.03 144.028 1472.1 144.398 1469.92 144.398ZM1489.13 140.619C1488.19 140.619 1487.39 140.288 1486.71 139.625C1486.05 138.962 1485.72 138.157 1485.72 137.21C1485.72 136.282 1486.05 135.487 1486.71 134.824C1487.39 134.161 1488.19 133.83 1489.13 133.83C1490.04 133.83 1490.83 134.161 1491.51 134.824C1492.2 135.487 1492.54 136.282 1492.54 137.21C1492.54 137.835 1492.38 138.408 1492.05 138.929C1491.74 139.44 1491.33 139.852 1490.82 140.165C1490.31 140.468 1489.74 140.619 1489.13 140.619ZM1489.13 126.344C1488.19 126.344 1487.39 126.012 1486.71 125.349C1486.05 124.687 1485.72 123.882 1485.72 122.935C1485.72 122.007 1486.05 121.216 1486.71 120.562C1487.39 119.9 1488.19 119.568 1489.13 119.568C1490.04 119.568 1490.83 119.9 1491.51 120.562C1492.2 121.216 1492.54 122.007 1492.54 122.935C1492.54 123.569 1492.38 124.147 1492.05 124.668C1491.74 125.179 1491.33 125.586 1490.82 125.889C1490.31 126.192 1489.74 126.344 1489.13 126.344ZM1422.82 162.909V192H1416.67V168.747H1416.5L1409.84 172.923V167.469L1417.04 162.909H1422.82ZM1441.14 192.639C1438.7 192.63 1436.59 192.028 1434.83 190.835C1433.08 189.642 1431.73 187.914 1430.78 185.651C1429.85 183.387 1429.38 180.665 1429.39 177.483C1429.39 174.311 1429.86 171.607 1430.8 169.372C1431.75 167.137 1433.09 165.437 1434.85 164.273C1436.61 163.098 1438.71 162.511 1441.14 162.511C1443.57 162.511 1445.67 163.098 1447.42 164.273C1449.18 165.447 1450.53 167.152 1451.48 169.386C1452.43 171.612 1452.9 174.311 1452.89 177.483C1452.89 180.674 1452.41 183.402 1451.47 185.665C1450.53 187.928 1449.18 189.656 1447.43 190.849C1445.68 192.043 1443.58 192.639 1441.14 192.639ZM1441.14 187.54C1442.81 187.54 1444.14 186.702 1445.13 185.026C1446.13 183.349 1446.62 180.835 1446.61 177.483C1446.61 175.277 1446.38 173.439 1445.93 171.972C1445.48 170.504 1444.85 169.401 1444.02 168.662C1443.21 167.923 1442.25 167.554 1441.14 167.554C1439.48 167.554 1438.16 168.383 1437.16 170.04C1436.17 171.697 1435.67 174.178 1435.66 177.483C1435.66 179.718 1435.88 181.583 1436.32 183.08C1436.78 184.566 1437.42 185.684 1438.24 186.432C1439.07 187.17 1440.03 187.54 1441.14 187.54ZM1466.7 192V162.909H1472.85V175.736H1473.23L1483.7 162.909H1491.08L1480.28 175.935L1491.2 192H1483.85L1475.88 180.04L1472.85 183.733V192H1466.7ZM1494.28 192V162.909H1505.93C1508.07 162.909 1509.85 163.226 1511.28 163.861C1512.71 164.495 1513.79 165.376 1514.51 166.503C1515.23 167.62 1515.59 168.908 1515.59 170.366C1515.59 171.503 1515.36 172.502 1514.9 173.364C1514.45 174.216 1513.82 174.917 1513.03 175.466C1512.24 176.006 1511.34 176.389 1510.33 176.616V176.901C1511.44 176.948 1512.47 177.26 1513.44 177.838C1514.42 178.416 1515.21 179.225 1515.81 180.267C1516.42 181.299 1516.72 182.53 1516.72 183.96C1516.72 185.504 1516.34 186.882 1515.57 188.094C1514.81 189.296 1513.69 190.248 1512.2 190.949C1510.72 191.65 1508.89 192 1506.71 192H1494.28ZM1500.43 186.972H1505.44C1507.16 186.972 1508.41 186.645 1509.19 185.991C1509.98 185.329 1510.37 184.448 1510.37 183.349C1510.37 182.545 1510.18 181.834 1509.79 181.219C1509.4 180.603 1508.85 180.12 1508.13 179.77C1507.42 179.42 1506.57 179.244 1505.59 179.244H1500.43V186.972ZM1500.43 175.082H1504.99C1505.83 175.082 1506.58 174.936 1507.23 174.642C1507.9 174.339 1508.42 173.913 1508.8 173.364C1509.18 172.814 1509.38 172.156 1509.38 171.389C1509.38 170.338 1509 169.491 1508.26 168.847C1507.52 168.203 1506.47 167.881 1505.1 167.881H1500.43V175.082Z" fill="white"/>
</svg>
