<svg xmlns="http://www.w3.org/2000/svg" width="1174" height="1869" fill="none" viewBox="0 0 1174 1869"><path fill="#2d2d2d" d="M885 611h119v120H885zM314 611h119v120H314zM233 1176h93c14.912 0 27 12.09 27 27v66c0 14.91-12.088 27-27 27h-93z"/><rect width="839" height="120" x="233" y="92" stroke="#dbdbdb" stroke-width="2" rx="26"/><rect width="358" height="120" x="194" y="612" stroke="#096" stroke-width="2" rx="26"/><rect width="118" height="120" x="314" y="934" stroke="#096" stroke-width="2" rx="26"/><rect width="238" height="120" x="114" y="1177" stroke="#0098d4" stroke-width="2" rx="26"/><rect width="358" height="120" x="764" y="612" stroke="#e27c00" stroke-width="2" rx="26"/><rect width="117" height="120" x="1025" y="1175" stroke="#f55" stroke-width="2" rx="26"/><rect width="118" height="120" x="884" y="932" stroke="#e27c00" stroke-width="2" rx="26"/><rect width="118" height="120" x="744" y="1177" stroke="#8200ed" stroke-width="2" rx="26"/><rect width="118" height="120" x="594" y="367" stroke="#dbdbdb" stroke-width="2" rx="26"/><path stroke="#dbdbdb" stroke-width="2" d="M353 91v122"/><path stroke="#096" stroke-width="2" d="M314 611v122"/><path stroke="#0098d4" stroke-width="2" d="M233 1178v119"/><path stroke="#e27c00" stroke-width="2" d="M884 611v122"/><path stroke="#dbdbdb" stroke-width="2" d="M473 91v122"/><path stroke="#096" stroke-width="2" d="M434 611v122"/><path stroke="#e27c00" stroke-width="2" d="M1004 611v122"/><path stroke="#dbdbdb" stroke-width="2" d="M594 91v122M714 91v122M834 91v122M954 91v122"/><path fill="#fff" d="M270.976 166v-2.557l9.602-10.511a67 67 0 0 0 2.785-3.21q1.094-1.379 1.619-2.586.54-1.221.54-2.556 0-1.535-.739-2.657-.725-1.121-1.989-1.733-1.263-.61-2.841-.61-1.675 0-2.926.696a4.8 4.8 0 0 0-1.917 1.917q-.668 1.236-.668 2.898h-3.352q0-2.557 1.179-4.489a8.2 8.2 0 0 1 3.21-3.011q2.046-1.08 4.588-1.08 2.557 0 4.531 1.08 1.975 1.08 3.097 2.912t1.122 4.077q0 1.605-.582 3.139-.568 1.52-1.989 3.395-1.405 1.86-3.906 4.545l-6.534 6.989v.227h13.522V166zm25.128 0 13.011-25.739v-.227h-15v-3.125h18.637v3.296L299.797 166zM244.332 656.909V686h-3.522v-25.398h-.171l-7.102 4.716v-3.579l7.273-4.83zM252.699 686v-2.557l9.602-10.511a67 67 0 0 0 2.784-3.21q1.094-1.378 1.62-2.586a6.3 6.3 0 0 0 .539-2.556q0-1.535-.738-2.657-.725-1.122-1.989-1.733-1.265-.61-2.841-.61-1.676 0-2.926.696a4.8 4.8 0 0 0-1.918 1.917q-.667 1.236-.667 2.898h-3.353q0-2.557 1.179-4.489a8.2 8.2 0 0 1 3.211-3.011q2.045-1.08 4.588-1.08 2.556 0 4.531 1.08t3.097 2.912 1.122 4.077q0 1.605-.583 3.139-.567 1.52-1.988 3.395-1.407 1.86-3.907 4.545l-6.534 6.989v.227h13.523V686zM163.332 1220.91V1250h-3.522v-25.4h-.171l-7.102 4.72v-3.58l7.273-4.83zm8.367 29.09v-2.56l9.602-10.51a66 66 0 0 0 2.784-3.21q1.093-1.38 1.62-2.58c.359-.82.539-1.67.539-2.56 0-1.02-.246-1.91-.738-2.66a4.86 4.86 0 0 0-1.989-1.73c-.843-.41-1.79-.61-2.841-.61-1.117 0-2.093.23-2.926.7a4.77 4.77 0 0 0-1.918 1.91c-.445.83-.667 1.79-.667 2.9h-3.353c0-1.7.393-3.2 1.179-4.49a8.2 8.2 0 0 1 3.211-3.01q2.045-1.08 4.588-1.08 2.557 0 4.531 1.08 1.975 1.08 3.097 2.91t1.122 4.08c0 1.07-.194 2.12-.583 3.14q-.567 1.515-1.988 3.39c-.938 1.24-2.24 2.76-3.907 4.55l-6.534 6.99v.23h13.523v3.12zM801.976 686v-2.557l9.602-10.511a67 67 0 0 0 2.785-3.21q1.094-1.378 1.619-2.586.54-1.221.54-2.556 0-1.535-.739-2.657-.724-1.122-1.989-1.733-1.263-.61-2.841-.61-1.675 0-2.926.696a4.8 4.8 0 0 0-1.917 1.917q-.668 1.236-.668 2.898h-3.352q0-2.557 1.179-4.489a8.2 8.2 0 0 1 3.21-3.011q2.046-1.08 4.588-1.08 2.557 0 4.531 1.08 1.975 1.08 3.097 2.912t1.122 4.077q0 1.605-.582 3.139-.569 1.52-1.989 3.395-1.406 1.86-3.906 4.545l-6.534 6.989v.227h13.522V686zm25.128 0 13.011-25.739v-.227h-15v-3.125h18.637v3.296L830.797 686zM781.976 1253v-2.56l9.602-10.51a66 66 0 0 0 2.785-3.21q1.094-1.38 1.619-2.58c.36-.82.54-1.67.54-2.56 0-1.02-.247-1.91-.739-2.66a4.86 4.86 0 0 0-1.989-1.73c-.842-.41-1.789-.61-2.841-.61-1.117 0-2.092.23-2.926.7a4.76 4.76 0 0 0-1.917 1.91c-.445.83-.668 1.79-.668 2.9h-3.352c0-1.7.393-3.2 1.179-4.49a8.2 8.2 0 0 1 3.21-3.01q2.046-1.08 4.588-1.08 2.557 0 4.531 1.08 1.975 1.08 3.097 2.91t1.122 4.08c0 1.07-.194 2.12-.582 3.14q-.569 1.515-1.989 3.39c-.937 1.24-2.239 2.76-3.906 4.55l-6.534 6.99v.23h13.522v3.12zm25.128 0 13.011-25.74v-.23h-15v-3.12h18.637v3.29l-12.955 25.8zM399.497 166.398q-2.812 0-5.014-.966-2.187-.966-3.48-2.685-1.278-1.733-1.392-4.02h3.579q.114 1.407.966 2.429.853 1.009 2.23 1.563t3.054.554q1.875 0 3.324-.654 1.45-.653 2.273-1.818.824-1.164.824-2.699 0-1.605-.796-2.826-.795-1.236-2.329-1.932t-3.75-.696h-2.33v-3.125h2.33q1.732 0 3.04-.625 1.32-.625 2.059-1.762.753-1.136.753-2.67 0-1.478-.653-2.571t-1.847-1.705q-1.179-.61-2.784-.61a7.3 7.3 0 0 0-2.841.554q-1.321.539-2.159 1.576-.839 1.023-.909 2.472h-3.409q.085-2.287 1.378-4.006 1.292-1.733 3.38-2.699 2.103-.966 4.617-.966 2.699 0 4.63 1.094 1.932 1.08 2.969 2.855a7.47 7.47 0 0 1 1.037 3.835q0 2.458-1.292 4.191-1.28 1.733-3.481 2.4v.228q2.757.454 4.304 2.343 1.55 1.876 1.549 4.645 0 2.373-1.293 4.262-1.278 1.874-3.494 2.954t-5.043 1.08m15.639-.398v-2.557l9.603-10.511a67 67 0 0 0 2.784-3.21q1.094-1.379 1.619-2.586.54-1.221.54-2.556 0-1.535-.739-2.657-.725-1.121-1.988-1.733-1.265-.61-2.841-.61-1.677 0-2.926.696a4.8 4.8 0 0 0-1.918 1.917q-.668 1.236-.668 2.898h-3.352q0-2.557 1.179-4.489a8.2 8.2 0 0 1 3.21-3.011q2.046-1.08 4.588-1.08 2.557 0 4.532 1.08 1.974 1.08 3.096 2.912t1.122 4.077q0 1.605-.582 3.139-.569 1.52-1.989 3.395-1.405 1.86-3.906 4.545l-6.534 6.989v.227h13.523V166zM364.118 656.909V686h-3.523v-25.398h-.171l-7.102 4.716v-3.579l7.273-4.83zm17.684 29.489q-2.926 0-5.17-1.037-2.23-1.051-3.48-2.884-1.251-1.846-1.236-4.204-.014-1.847.724-3.409a7.4 7.4 0 0 1 2.017-2.628 6.2 6.2 0 0 1 2.884-1.35v-.17q-2.088-.54-3.324-2.344-1.236-1.818-1.222-4.133-.014-2.217 1.123-3.963 1.136-1.748 3.125-2.756 2.003-1.009 4.559-1.009 2.529 0 4.517 1.009 1.99 1.008 3.125 2.756 1.151 1.746 1.165 3.963-.014 2.315-1.264 4.133-1.236 1.804-3.281 2.344v.17q1.577.285 2.84 1.35a7.65 7.65 0 0 1 2.018 2.628q.752 1.562.767 3.409-.015 2.358-1.279 4.204-1.25 1.833-3.48 2.884-2.216 1.037-5.128 1.037m0-3.125q1.974 0 3.409-.639 1.435-.64 2.216-1.804t.796-2.728q-.015-1.647-.853-2.912-.837-1.263-2.287-1.988-1.434-.725-3.281-.725-1.86 0-3.324.725-1.449.725-2.287 1.988-.824 1.265-.809 2.912-.015 1.563.753 2.728.78 1.164 2.23 1.804 1.448.639 3.437.639m0-13.807q1.563 0 2.77-.625a4.76 4.76 0 0 0 1.918-1.747q.695-1.122.71-2.628-.015-1.478-.696-2.571a4.5 4.5 0 0 0-1.889-1.705q-1.208-.61-2.813-.61-1.634 0-2.855.61-1.221.597-1.889 1.705-.668 1.093-.654 2.571-.013 1.506.668 2.628a4.75 4.75 0 0 0 1.918 1.747q1.221.625 2.812.625M282.707 1220.91V1250h-3.522v-25.4h-.171l-7.102 4.72v-3.58l7.273-4.83zm18.196 29.49c-1.875 0-3.546-.32-5.014-.97-1.458-.64-2.618-1.54-3.48-2.68q-1.278-1.74-1.392-4.02h3.58q.113 1.395.965 2.43.853 1.005 2.231 1.56c.918.37 1.936.55 3.054.55 1.25 0 2.358-.22 3.323-.65.966-.44 1.724-1.04 2.273-1.82q.824-1.17.824-2.7 0-1.605-.795-2.82c-.531-.83-1.307-1.47-2.33-1.94q-1.535-.69-3.75-.69h-2.33v-3.13h2.33c1.155 0 2.169-.21 3.04-.62.881-.42 1.567-1.01 2.059-1.76q.753-1.14.753-2.67 0-1.485-.653-2.58a4.54 4.54 0 0 0-1.847-1.7c-.786-.41-1.714-.61-2.784-.61-1.004 0-1.951.18-2.841.55-.88.36-1.6.89-2.159 1.58-.558.68-.862 1.51-.909 2.47h-3.409c.057-1.52.516-2.86 1.378-4q1.293-1.74 3.381-2.7c1.401-.65 2.94-.97 4.616-.97 1.799 0 3.343.37 4.631 1.1 1.288.71 2.277 1.67 2.968 2.85a7.46 7.46 0 0 1 1.037 3.84c0 1.63-.43 3.03-1.292 4.19q-1.279 1.725-3.48 2.4v.22c1.837.31 3.271 1.09 4.304 2.35 1.032 1.25 1.548 2.8 1.548 4.64q0 2.37-1.293 4.26c-.852 1.25-2.017 2.24-3.494 2.96q-2.216 1.08-5.043 1.08M930.497 686.398q-2.812 0-5.014-.966-2.187-.966-3.48-2.685-1.278-1.732-1.392-4.02h3.579q.114 1.406.966 2.429.852 1.009 2.23 1.563t3.054.554q1.875 0 3.324-.654 1.45-.653 2.273-1.818.824-1.164.824-2.699 0-1.605-.796-2.826-.795-1.236-2.329-1.932t-3.75-.696h-2.33v-3.125h2.33q1.732 0 3.04-.625 1.32-.625 2.059-1.762.753-1.135.753-2.67 0-1.478-.653-2.571-.654-1.093-1.847-1.705-1.179-.61-2.784-.61a7.3 7.3 0 0 0-2.841.554q-1.321.539-2.159 1.576-.838 1.023-.909 2.472h-3.409q.085-2.287 1.378-4.006 1.292-1.733 3.38-2.699 2.103-.966 4.617-.966 2.699 0 4.63 1.094 1.932 1.08 2.969 2.855a7.47 7.47 0 0 1 1.037 3.835q0 2.458-1.292 4.191-1.28 1.732-3.481 2.4v.228q2.757.455 4.304 2.343 1.55 1.876 1.549 4.645 0 2.372-1.293 4.262-1.278 1.875-3.494 2.954t-5.043 1.08m15.639-.398v-2.557l9.603-10.511a67 67 0 0 0 2.784-3.21q1.094-1.378 1.619-2.586.54-1.221.54-2.556 0-1.535-.739-2.657-.725-1.122-1.988-1.733-1.264-.61-2.841-.61-1.677 0-2.926.696a4.8 4.8 0 0 0-1.918 1.917q-.668 1.236-.668 2.898h-3.352q0-2.557 1.179-4.489a8.2 8.2 0 0 1 3.21-3.011q2.046-1.08 4.588-1.08 2.557 0 4.532 1.08 1.974 1.08 3.096 2.912t1.122 4.077q0 1.605-.582 3.139-.569 1.52-1.989 3.395-1.406 1.86-3.906 4.545l-6.534 6.989v.227h13.523V686zM930.497 1008.4c-1.875 0-3.546-.32-5.014-.97-1.458-.64-2.618-1.54-3.48-2.68q-1.278-1.74-1.392-4.02h3.579q.114 1.395.966 2.43.852 1.005 2.23 1.56c.919.37 1.937.55 3.054.55 1.25 0 2.358-.22 3.324-.65.966-.44 1.724-1.04 2.273-1.82q.824-1.17.824-2.7 0-1.603-.796-2.824-.795-1.236-2.329-1.932t-3.75-.696h-2.33v-3.125h2.33q1.732 0 3.04-.625 1.32-.625 2.059-1.762.753-1.135.753-2.67 0-1.477-.653-2.571-.654-1.093-1.847-1.705-1.179-.61-2.784-.61a7.3 7.3 0 0 0-2.841.554q-1.321.539-2.159 1.576-.838 1.023-.909 2.472h-3.409q.085-2.287 1.378-4.006 1.292-1.733 3.38-2.699 2.103-.966 4.617-.966 2.699 0 4.63 1.094 1.932 1.08 2.969 2.855a7.47 7.47 0 0 1 1.037 3.835q0 2.458-1.292 4.191-1.28 1.733-3.481 2.4v.228q2.757.455 4.304 2.343 1.55 1.876 1.549 4.643 0 2.37-1.293 4.26c-.852 1.25-2.017 2.24-3.494 2.96q-2.216 1.08-5.043 1.08m15.639-.4v-2.56l9.603-10.508a67 67 0 0 0 2.784-3.21q1.094-1.378 1.619-2.586.54-1.221.54-2.556 0-1.535-.739-2.657-.725-1.122-1.988-1.733-1.264-.61-2.841-.61-1.677 0-2.926.696a4.8 4.8 0 0 0-1.918 1.917q-.668 1.236-.668 2.898h-3.352q0-2.557 1.179-4.489a8.2 8.2 0 0 1 3.21-3.011q2.046-1.08 4.588-1.08 2.557 0 4.532 1.08 1.974 1.08 3.096 2.912t1.122 4.077q0 1.605-.582 3.139-.569 1.52-1.989 3.395-1.406 1.86-3.906 4.545l-6.534 6.991v.23h13.523v3.12zM509.572 160.034v-2.898l12.784-20.227h2.102v4.489h-1.42l-9.659 15.284v.227h17.215v3.125zM523.265 166v-29.091h3.352V166zm13.562 0 13.011-25.739v-.227h-15v-3.125h18.636v3.296L540.52 166zM483.707 656.909V686h-3.522v-25.398h-.171l-7.102 4.716v-3.579l7.273-4.83zm18.196 29.489q-2.812 0-5.014-.966-2.187-.966-3.48-2.685-1.278-1.732-1.392-4.02h3.58q.113 1.406.965 2.429.853 1.009 2.231 1.563t3.054.554q1.875 0 3.323-.654 1.45-.653 2.273-1.818.824-1.164.824-2.699 0-1.605-.795-2.826-.796-1.236-2.33-1.932t-3.75-.696h-2.33v-3.125h2.33q1.733 0 3.04-.625 1.321-.625 2.059-1.762.753-1.135.753-2.67 0-1.478-.653-2.571t-1.847-1.705q-1.179-.61-2.784-.61a7.3 7.3 0 0 0-2.841.554q-1.32.539-2.159 1.576-.838 1.023-.909 2.472h-3.409q.085-2.287 1.378-4.006 1.293-1.733 3.381-2.699 2.102-.966 4.616-.966 2.699 0 4.631 1.094 1.932 1.08 2.968 2.855a7.47 7.47 0 0 1 1.037 3.835q0 2.458-1.292 4.191-1.279 1.732-3.48 2.4v.228q2.755.455 4.304 2.343 1.548 1.876 1.548 4.645 0 2.372-1.293 4.262-1.278 1.875-3.494 2.954t-5.043 1.08M364.118 978.909V1008h-3.523v-25.398h-.171l-7.102 4.716v-3.579l7.273-4.83zm17.684 29.491c-1.951 0-3.674-.35-5.17-1.04q-2.23-1.05-3.48-2.88c-.834-1.23-1.246-2.64-1.236-4.21q-.014-1.843.724-3.406a7.4 7.4 0 0 1 2.017-2.628 6.2 6.2 0 0 1 2.884-1.35v-.17q-2.088-.54-3.324-2.344-1.236-1.818-1.222-4.133-.014-2.217 1.123-3.963 1.136-1.748 3.125-2.756 2.003-1.009 4.559-1.009 2.529 0 4.517 1.009 1.99 1.008 3.125 2.756 1.151 1.746 1.165 3.963-.014 2.315-1.264 4.133-1.236 1.804-3.281 2.344v.17q1.577.285 2.84 1.35a7.65 7.65 0 0 1 2.018 2.628q.752 1.563.767 3.406c-.01 1.57-.436 2.98-1.279 4.21q-1.25 1.83-3.48 2.88c-1.477.69-3.187 1.04-5.128 1.04m0-3.13c1.316 0 2.453-.21 3.409-.64q1.435-.63 2.216-1.8t.796-2.73q-.015-1.645-.853-2.91-.837-1.263-2.287-1.988-1.434-.725-3.281-.725-1.86 0-3.324.725-1.449.725-2.287 1.988-.824 1.265-.809 2.91-.015 1.56.753 2.73.78 1.17 2.23 1.8c.966.43 2.111.64 3.437.64m0-13.804q1.563 0 2.77-.625a4.76 4.76 0 0 0 1.918-1.747q.695-1.122.71-2.628-.015-1.477-.696-2.571a4.5 4.5 0 0 0-1.889-1.705q-1.208-.61-2.813-.61-1.634 0-2.855.61-1.221.597-1.889 1.705-.668 1.094-.654 2.571-.013 1.506.668 2.628a4.75 4.75 0 0 0 1.918 1.747q1.221.625 2.812.625M1040.57 680.034v-2.898l12.79-20.227h2.1v4.489h-1.42l-9.66 15.284v.227h17.21v3.125zm13.69 5.966v-29.091h3.36V686zm13.57 0 13.01-25.739v-.227h-15v-3.125h18.63v3.296L1071.52 686zM1060.57 1243.03v-2.89l12.79-20.23h2.1v4.49h-1.42l-9.66 15.28v.23h17.21v3.12zm13.69 5.97v-29.09h3.36V1249zm13.57 0 13.01-25.74v-.23h-15v-3.12h18.63v3.29l-12.95 25.8zM643.961 411.909V441h-3.522v-25.398h-.171l-7.102 4.716v-3.579l7.273-4.83zm17.628-.398q1.79.015 3.58.682 1.79.668 3.267 2.216 1.477 1.535 2.372 4.19.894 2.657.895 6.662 0 3.879-.739 6.89-.725 2.997-2.102 5.056-1.364 2.06-3.324 3.125-1.946 1.066-4.403 1.066-2.444 0-4.361-.966a8.56 8.56 0 0 1-3.125-2.713q-1.207-1.747-1.549-4.049h3.466q.47 2.004 1.861 3.31 1.406 1.293 3.708 1.293 3.366 0 5.312-2.941 1.96-2.94 1.96-8.309h-.227a8.9 8.9 0 0 1-1.889 2.059 8.3 8.3 0 0 1-2.429 1.336 8.5 8.5 0 0 1-2.841.468q-2.5 0-4.588-1.235-2.074-1.25-3.324-3.424-1.236-2.187-1.236-5 0-2.67 1.193-4.886a9.2 9.2 0 0 1 3.381-3.551q2.187-1.321 5.142-1.279m0 3.125q-1.79 0-3.224.895a6.44 6.44 0 0 0-2.259 2.387q-.824 1.491-.824 3.309t.796 3.31a6.35 6.35 0 0 0 2.201 2.358q1.407.866 3.196.866 1.35 0 2.515-.525a6.5 6.5 0 0 0 2.031-1.463 7.1 7.1 0 0 0 1.378-2.117 6.4 6.4 0 0 0 .497-2.486 6.5 6.5 0 0 0-.824-3.196 6.54 6.54 0 0 0-2.244-2.414q-1.42-.924-3.239-.924M518.774 34.886h5.227l2.628 3.381 2.585 3.011 4.873 6.108h-5.739l-3.352-4.119-1.719-2.443zm15.753-4.432q0 4.76-1.804 8.097-1.79 3.337-4.886 5.1-3.083 1.746-6.932 1.747-3.878 0-6.96-1.762-3.082-1.761-4.873-5.1-1.79-3.337-1.789-8.082 0-4.757 1.789-8.096 1.79-3.337 4.873-5.085 3.082-1.761 6.96-1.762 3.85 0 6.932 1.762 3.096 1.747 4.886 5.085 1.804 3.338 1.804 8.096m-6.236 0q0-3.081-.923-5.198-.909-2.116-2.571-3.21t-3.892-1.094-3.892 1.093q-1.662 1.095-2.585 3.21-.91 2.118-.91 5.2t.91 5.198q.923 2.117 2.585 3.21 1.662 1.094 3.892 1.094t3.892-1.093q1.662-1.095 2.571-3.21.923-2.118.923-5.2m24.67 5.256V23.182h6.051V45h-5.81v-3.963h-.227a6.44 6.44 0 0 1-2.457 3.082q-1.705 1.165-4.162 1.165-2.188 0-3.85-.994t-2.599-2.827q-.923-1.832-.938-4.39V23.183h6.052v12.812q.014 1.932 1.037 3.054t2.741 1.122a4.35 4.35 0 0 0 2.045-.497q.952-.511 1.535-1.505.596-.994.582-2.458M563.852 45V23.182h6.051V45zm3.04-24.63q-1.35 0-2.315-.896-.952-.909-.952-2.173 0-1.25.952-2.145.966-.909 2.315-.909 1.35 0 2.301.91.966.894.966 2.144 0 1.264-.966 2.173-.951.895-2.301.895m17.717 25.056q-3.353 0-5.767-1.42-2.401-1.435-3.694-3.978-1.278-2.542-1.278-5.852 0-3.352 1.293-5.88 1.307-2.544 3.707-3.964 2.4-1.434 5.71-1.434 2.856 0 5 1.037t3.395 2.912 1.378 4.403h-5.71q-.241-1.633-1.279-2.628-1.022-1.008-2.684-1.008-1.407 0-2.458.767-1.037.752-1.619 2.201t-.582 3.509q0 2.088.568 3.551.582 1.463 1.633 2.23t2.458.767q1.037 0 1.86-.426a3.6 3.6 0 0 0 1.378-1.236q.554-.823.725-1.974h5.71q-.142 2.5-1.364 4.403-1.207 1.89-3.338 2.955-2.13 1.065-5.042 1.065m19.101-6.704.014-7.259h.881l6.989-8.281h6.946l-9.389 10.966h-1.435zM598.227 45V15.91h6.051V45zm13.637 0-6.421-9.503 4.034-4.275L618.952 45zm34.797-20.724q-.17-1.719-1.463-2.67-1.293-.953-3.508-.953-1.506 0-2.543.427-1.037.412-1.591 1.15a2.77 2.77 0 0 0-.54 1.676q-.029.782.327 1.364a3.4 3.4 0 0 0 1.009 1.008q.639.413 1.477.725.838.299 1.79.511l2.613.625a18.5 18.5 0 0 1 3.495 1.137q1.59.71 2.755 1.747a7.25 7.25 0 0 1 1.804 2.443q.654 1.406.668 3.224-.014 2.67-1.364 4.631-1.335 1.946-3.863 3.026-2.515 1.065-6.066 1.065-3.523 0-6.136-1.08-2.6-1.08-4.063-3.196-1.448-2.13-1.52-5.27h5.952q.1 1.463.838 2.444.753.965 2.003 1.463 1.265.483 2.855.483 1.563 0 2.713-.455 1.165-.454 1.804-1.264a2.92 2.92 0 0 0 .639-1.86q0-.98-.582-1.649-.568-.667-1.676-1.136-1.094-.469-2.685-.852l-3.167-.796q-3.68-.894-5.81-2.798t-2.116-5.128q-.015-2.642 1.406-4.616 1.435-1.975 3.934-3.083 2.5-1.107 5.682-1.108 3.239 0 5.654 1.108 2.428 1.108 3.778 3.083 1.35 1.974 1.392 4.574zm20.174 21.15q-3.309 0-5.724-1.406-2.4-1.42-3.708-3.949-1.306-2.543-1.306-5.895 0-3.38 1.306-5.909 1.307-2.542 3.708-3.949 2.415-1.42 5.724-1.42t5.71 1.42q2.415 1.407 3.722 3.949 1.307 2.528 1.307 5.91 0 3.351-1.307 5.894-1.307 2.529-3.722 3.949-2.4 1.406-5.71 1.406m.029-4.687q1.505 0 2.514-.853 1.008-.866 1.52-2.358.525-1.49.525-3.395 0-1.902-.525-3.394-.512-1.492-1.52-2.358-1.01-.867-2.514-.867-1.52 0-2.557.867-1.023.866-1.548 2.358-.512 1.492-.512 3.394 0 1.904.512 3.395.525 1.492 1.548 2.358 1.036.853 2.557.853M681.509 45V23.182h5.866v3.807h.227q.597-2.032 2.003-3.068 1.406-1.052 3.239-1.052.454 0 .98.057.525.057.923.156v5.37a8 8 0 0 0-1.179-.228q-.753-.099-1.378-.099-1.335 0-2.386.582a4.3 4.3 0 0 0-1.648 1.591q-.596 1.023-.596 2.358V45zm29.066-21.818v4.545h-13.14v-4.545zm-10.157-5.227h6.051v20.34q0 .84.256 1.307.256.454.71.64.47.184 1.08.184.426 0 .852-.07.426-.086.654-.129l.951 4.503q-.455.143-1.278.327-.824.198-2.003.241-2.187.086-3.835-.582-1.634-.667-2.543-2.074t-.895-3.551zM723.888 45V15.91h11.648q3.21 0 5.355.95 2.144.953 3.224 2.643 1.08 1.676 1.08 3.863 0 1.705-.682 2.998a5.9 5.9 0 0 1-1.875 2.102q-1.18.81-2.699 1.15v.285a6.5 6.5 0 0 1 3.111.937q1.463.866 2.372 2.429.909 1.548.909 3.693 0 2.316-1.151 4.134-1.135 1.803-3.366 2.855-2.23 1.05-5.497 1.051zm6.15-5.028h5.015q2.571 0 3.75-.98 1.179-.994 1.179-2.643 0-1.207-.583-2.13-.582-.924-1.662-1.45-1.066-.525-2.542-.525h-5.157zm0-11.89h4.56q1.264 0 2.244-.44.994-.455 1.563-1.278.582-.825.582-1.975 0-1.576-1.122-2.542-1.109-.966-3.153-.966h-4.674zm36.076-3.806q-.17-1.719-1.463-2.67-1.292-.953-3.508-.953-1.506 0-2.543.427-1.036.412-1.591 1.15a2.77 2.77 0 0 0-.54 1.676q-.028.782.327 1.364.37.582 1.009 1.008.639.413 1.477.725.838.299 1.79.511l2.613.625a18.5 18.5 0 0 1 3.495 1.137q1.59.71 2.755 1.747a7.25 7.25 0 0 1 1.804 2.443q.654 1.406.668 3.224-.015 2.67-1.364 4.631-1.335 1.946-3.863 3.026-2.514 1.065-6.066 1.065-3.523 0-6.136-1.08-2.6-1.08-4.063-3.196-1.448-2.13-1.519-5.27h5.951q.1 1.463.838 2.444.753.965 2.003 1.463 1.265.483 2.855.483 1.563 0 2.713-.455 1.165-.454 1.804-1.264.64-.81.64-1.86 0-.98-.583-1.649-.568-.667-1.676-1.136-1.094-.469-2.685-.852l-3.167-.796q-3.679-.894-5.81-2.798t-2.116-5.128q-.015-2.642 1.406-4.616 1.434-1.975 3.935-3.083 2.5-1.107 5.681-1.108 3.239 0 5.654 1.108 2.429 1.108 3.778 3.083 1.35 1.974 1.392 4.574zm9.322-3.296v-5.07h23.892v5.07h-8.906V45h-6.08V20.98z"/><path fill="#727272" d="M467.076 242h-2.995q-.266-1.292-.929-2.27a6.2 6.2 0 0 0-1.594-1.642 6.8 6.8 0 0 0-2.065-1.014 8.2 8.2 0 0 0-2.366-.338q-2.246 0-4.069 1.135-1.811 1.134-2.886 3.344-1.062 2.21-1.062 5.421t1.062 5.422q1.075 2.209 2.886 3.344 1.823 1.135 4.069 1.135 1.232 0 2.366-.338a7 7 0 0 0 2.065-1.002 6.4 6.4 0 0 0 1.594-1.654q.663-.99.929-2.27h2.995q-.339 1.895-1.232 3.392a9.3 9.3 0 0 1-2.221 2.548 9.7 9.7 0 0 1-2.983 1.582 11.1 11.1 0 0 1-3.513.543q-3.164 0-5.627-1.545-2.463-1.547-3.875-4.395-1.413-2.85-1.413-6.762t1.413-6.761q1.412-2.85 3.875-4.395t5.627-1.545q1.871 0 3.513.543a9.6 9.6 0 0 1 2.983 1.594 9.1 9.1 0 0 1 2.221 2.535q.893 1.485 1.232 3.393m4.452 17v-18.545h2.753v2.801h.193q.507-1.376 1.835-2.234 1.329-.857 2.994-.857.315 0 .785.012t.713.036v2.898a8 8 0 0 0-.664-.109 6.6 6.6 0 0 0-1.075-.084q-1.352 0-2.415.567-1.05.555-1.666 1.546-.603.978-.604 2.233V259zm19.861.386q-2.68 0-4.624-1.183-1.932-1.196-2.982-3.332-1.038-2.15-1.039-4.999t1.039-5.023q1.05-2.184 2.922-3.404 1.883-1.232 4.395-1.232 1.448 0 2.861.483a7.1 7.1 0 0 1 2.572 1.57q1.159 1.074 1.847 2.849.688 1.774.688 4.371v1.207h-14.295v-2.463h11.398q0-1.57-.628-2.801a4.73 4.73 0 0 0-1.763-1.944q-1.135-.712-2.68-.712-1.702 0-2.946.845a5.56 5.56 0 0 0-1.896 2.173 6.4 6.4 0 0 0-.664 2.874v1.642q0 2.1.724 3.562.737 1.449 2.041 2.209 1.304.749 3.03.749 1.123 0 2.029-.314a4.35 4.35 0 0 0 1.581-.966 4.4 4.4 0 0 0 1.027-1.618l2.753.773a6.1 6.1 0 0 1-1.461 2.463q-1.027 1.05-2.536 1.642-1.509.579-3.393.579m17.471.049q-1.762 0-3.199-.664-1.437-.676-2.282-1.944-.846-1.28-.845-3.091 0-1.594.627-2.584a4.44 4.44 0 0 1 1.679-1.57q1.05-.567 2.318-.845 1.28-.29 2.572-.459 1.69-.216 2.74-.326 1.063-.12 1.546-.398.495-.278.495-.966v-.097q0-1.786-.978-2.777-.966-.99-2.934-.99-2.04 0-3.2.894-1.159.893-1.63 1.908l-2.704-.966q.724-1.691 1.932-2.632a7.25 7.25 0 0 1 2.656-1.329 11 11 0 0 1 2.849-.386q.894 0 2.053.217a6.6 6.6 0 0 1 2.258.858q1.098.651 1.823 1.968t.724 3.525V259h-2.849v-2.511h-.145q-.29.603-.966 1.292-.676.688-1.799 1.171t-2.741.483m.435-2.56q1.69 0 2.849-.664 1.172-.664 1.763-1.715a4.36 4.36 0 0 0 .604-2.209v-2.608q-.182.218-.797.398a13 13 0 0 1-1.401.302q-.784.121-1.533.218-.736.084-1.195.144-1.111.146-2.077.471-.954.315-1.545.954-.58.628-.58 1.715 0 1.485 1.099 2.245 1.11.749 2.813.749m21.331-16.42v2.414h-9.61v-2.414zm-6.809-4.444h2.849v17.677q0 1.206.35 1.811.363.592.918.796.568.194 1.195.194.471 0 .773-.049l.483-.096.579 2.559a6 6 0 0 1-.808.218q-.52.12-1.317.12a5.7 5.7 0 0 1-2.366-.519 4.7 4.7 0 0 1-1.908-1.581q-.748-1.063-.748-2.681zm18.672 23.375q-2.68 0-4.624-1.183-1.932-1.196-2.983-3.332-1.038-2.15-1.038-4.999t1.038-5.023q1.051-2.184 2.922-3.404 1.884-1.232 4.395-1.232 1.449 0 2.862.483a7.1 7.1 0 0 1 2.571 1.57q1.16 1.074 1.848 2.849.688 1.774.688 4.371v1.207h-14.295v-2.463h11.397q0-1.57-.628-2.801a4.73 4.73 0 0 0-1.762-1.944q-1.135-.712-2.681-.712-1.702 0-2.946.845a5.55 5.55 0 0 0-1.895 2.173 6.4 6.4 0 0 0-.664 2.874v1.642q0 2.1.724 3.562.736 1.449 2.04 2.209 1.305.749 3.031.749 1.123 0 2.028-.314a4.4 4.4 0 0 0 1.582-.966 4.4 4.4 0 0 0 1.026-1.618l2.753.773a6.1 6.1 0 0 1-1.461 2.463q-1.026 1.05-2.535 1.642-1.509.579-3.393.579m21.962-.386v-24.727h8.645q2.584 0 4.262.893 1.678.882 2.5 2.379.82 1.485.821 3.296 0 1.594-.568 2.632a4.4 4.4 0 0 1-1.473 1.642 6.7 6.7 0 0 1-1.968.894v.241q1.135.072 2.282.797 1.148.724 1.92 2.077.773 1.352.773 3.308 0 1.859-.846 3.344-.845 1.485-2.668 2.355t-4.745.869zm2.995-2.656h5.94q2.934 0 4.165-1.135 1.245-1.148 1.244-2.777 0-1.256-.64-2.318-.64-1.075-1.823-1.715-1.184-.652-2.801-.652h-6.085zm0-11.205H573q1.352 0 2.439-.531a4.26 4.26 0 0 0 1.738-1.497q.652-.966.652-2.27 0-1.63-1.135-2.765-1.135-1.147-3.598-1.147h-5.65zm32.641-4.684q-.217-1.836-1.762-2.85-1.546-1.014-3.792-1.014-1.641 0-2.873.531-1.22.531-1.908 1.461a3.5 3.5 0 0 0-.676 2.113q0 .99.471 1.702.483.7 1.231 1.172a9 9 0 0 0 1.57.76q.82.29 1.509.471l2.512.676q.966.254 2.149.701a10 10 0 0 1 2.282 1.219 6.2 6.2 0 0 1 1.811 1.956q.712 1.195.712 2.934 0 2.004-1.05 3.622-1.04 1.618-3.043 2.572-1.992.954-4.842.954-2.655 0-4.6-.858-1.932-.857-3.042-2.39-1.099-1.533-1.244-3.562h3.091q.12 1.4.942 2.318.832.906 2.101 1.352 1.28.435 2.752.435 1.715 0 3.079-.555 1.364-.568 2.162-1.57.796-1.014.796-2.366 0-1.231-.688-2.005-.688-.772-1.811-1.255a19 19 0 0 0-2.427-.845l-3.042-.87q-2.898-.833-4.588-2.378t-1.691-4.045q0-2.077 1.123-3.622 1.135-1.558 3.043-2.415 1.92-.87 4.286-.869 2.39 0 4.25.857 1.86.845 2.946 2.318a5.78 5.78 0 0 1 1.159 3.345zm6.807-3.526v-2.656h18.545v2.656h-7.775V259h-2.994v-22.071zM643.439 259l-5.651-18.545h2.994l4.009 14.198h.193l3.96-14.198h3.043l3.912 14.15h.193l4.008-14.15h2.995L657.444 259h-2.801l-4.057-14.247h-.289L646.24 259zm23.423 0v-18.545h2.849V259zm1.449-21.636q-.834 0-1.437-.568a1.82 1.82 0 0 1-.592-1.364q0-.797.592-1.365a2.03 2.03 0 0 1 1.437-.567q.833 0 1.424.567.604.568.604 1.365t-.604 1.364a1.98 1.98 0 0 1-1.424.568m14.685 3.091v2.414h-9.611v-2.414zm-6.81-4.444h2.849v17.677q0 1.206.35 1.811.363.592.918.796.568.194 1.195.194.471 0 .773-.049l.483-.096.58 2.559a6 6 0 0 1-.809.218q-.52.12-1.316.12a5.7 5.7 0 0 1-2.367-.519 4.7 4.7 0 0 1-1.908-1.581q-.748-1.063-.748-2.681zm14.344 11.833V259h-2.85v-24.727h2.85v9.079h.241a5.25 5.25 0 0 1 1.956-2.282q1.316-.857 3.502-.857 1.895 0 3.32.761 1.425.748 2.209 2.306.798 1.545.797 3.936V259h-2.849v-11.591q0-2.21-1.147-3.417-1.135-1.22-3.152-1.219-1.4 0-2.511.591a4.33 4.33 0 0 0-1.739 1.727q-.627 1.135-.627 2.753m29.65-13.571V259h-2.849v-24.727zm12.995 25.113q-2.68 0-4.625-1.183-1.932-1.196-2.982-3.332-1.038-2.15-1.038-4.999t1.038-5.023q1.05-2.184 2.922-3.404 1.884-1.232 4.395-1.232 1.45 0 2.861.483a7.1 7.1 0 0 1 2.572 1.57q1.159 1.074 1.847 2.849.689 1.774.689 4.371v1.207h-14.296v-2.463h11.398q0-1.57-.628-2.801a4.73 4.73 0 0 0-1.763-1.944q-1.135-.712-2.68-.712-1.702 0-2.946.845a5.56 5.56 0 0 0-1.896 2.173 6.4 6.4 0 0 0-.664 2.874v1.642q0 2.1.725 3.562.736 1.449 2.04 2.209 1.303.749 3.031.749 1.122 0 2.028-.314a4.4 4.4 0 0 0 1.582-.966 4.4 4.4 0 0 0 1.026-1.618l2.753.773a6.1 6.1 0 0 1-1.461 2.463q-1.026 1.05-2.536 1.642-1.51.579-3.392.579m20.272-18.931v2.414h-9.998v-2.414zM746.444 259v-21.105q0-1.594.748-2.656a4.63 4.63 0 0 1 1.944-1.594 6.15 6.15 0 0 1 2.524-.531q1.05 0 1.714.169.665.168.99.314l-.821 2.463a13 13 0 0 0-.604-.181q-.374-.11-.99-.109-1.412 0-2.04.712-.616.712-.616 2.089V259zm19.061-18.545v2.414h-9.61v-2.414zm-6.809-4.444h2.849v17.677q0 1.206.35 1.811.363.592.918.796.567.194 1.195.194.471 0 .773-.049l.483-.096.579 2.559a6 6 0 0 1-.809.218q-.519.12-1.316.12a5.7 5.7 0 0 1-2.366-.519 4.7 4.7 0 0 1-1.908-1.581q-.748-1.063-.748-2.681zm15.346 19.608-.194 1.304q-.205 1.377-.627 2.946a55 55 0 0 1-.858 2.958 88 88 0 0 1-.736 2.21h-2.174q.158-.772.411-2.041t.507-2.837q.265-1.558.435-3.187l.145-1.353zM788.883 259v-18.545h2.753v2.801h.193q.507-1.376 1.836-2.234 1.327-.857 2.994-.857.314 0 .785.012.47.012.712.036v2.898a8 8 0 0 0-.664-.109 6.6 6.6 0 0 0-1.075-.084q-1.352 0-2.414.567a4.3 4.3 0 0 0-1.667 1.546q-.603.978-.603 2.233V259zm19.62.386q-2.511 0-4.407-1.195-1.882-1.196-2.946-3.344-1.05-2.15-1.05-5.023 0-2.898 1.05-5.059 1.063-2.161 2.946-3.357 1.896-1.194 4.407-1.195 2.512 0 4.395 1.195 1.896 1.196 2.946 3.357 1.063 2.161 1.063 5.059 0 2.874-1.063 5.023-1.05 2.148-2.946 3.344-1.883 1.195-4.395 1.195m0-2.559q1.908 0 3.14-.978 1.231-.978 1.823-2.572t.591-3.453q0-1.86-.591-3.465-.592-1.606-1.823-2.596-1.232-.99-3.14-.99-1.907 0-3.139.99t-1.823 2.596q-.591 1.605-.592 3.465 0 1.858.592 3.453.591 1.594 1.823 2.572t3.139.978m20.287 2.559q-2.511 0-4.406-1.195-1.884-1.196-2.946-3.344-1.051-2.15-1.051-5.023 0-2.898 1.051-5.059 1.062-2.161 2.946-3.357 1.895-1.194 4.406-1.195 2.512 0 4.395 1.195 1.896 1.196 2.946 3.357 1.063 2.161 1.063 5.059 0 2.874-1.063 5.023-1.05 2.148-2.946 3.344-1.883 1.195-4.395 1.195m0-2.559q1.908 0 3.14-.978 1.231-.978 1.823-2.572t.591-3.453q0-1.86-.591-3.465-.592-1.606-1.823-2.596-1.232-.99-3.14-.99-1.907 0-3.139.99t-1.823 2.596q-.591 1.605-.591 3.465 0 1.858.591 3.453.592 1.594 1.823 2.572 1.232.978 3.139.978m20.819-16.372v2.414h-9.611v-2.414zm-6.81-4.444h2.85v17.677q0 1.206.35 1.811.362.592.917.796.568.194 1.196.194.47 0 .772-.049l.483-.096.58 2.559a6 6 0 0 1-.809.218q-.52.12-1.316.12a5.7 5.7 0 0 1-2.367-.519 4.7 4.7 0 0 1-1.907-1.581q-.749-1.063-.749-2.681zm15.346 19.608-.193 1.304q-.205 1.377-.628 2.946a55 55 0 0 1-.857 2.958 88 88 0 0 1-.737 2.21h-2.173q.157-.772.411-2.041t.507-2.837a49 49 0 0 0 .434-3.187l.145-1.353zm-269.381 44.816q-1.763 0-3.2-.664-1.437-.676-2.282-1.944-.845-1.28-.845-3.091 0-1.594.628-2.584a4.44 4.44 0 0 1 1.678-1.57q1.05-.567 2.318-.845a28 28 0 0 1 2.572-.459 124 124 0 0 1 2.741-.326q1.062-.12 1.545-.398.495-.278.495-.966v-.097q0-1.786-.978-2.777-.966-.99-2.934-.99-2.04 0-3.199.894-1.16.893-1.63 1.908l-2.705-.966q.724-1.691 1.932-2.632a7.25 7.25 0 0 1 2.656-1.329 11 11 0 0 1 2.85-.386q.892 0 2.052.217a6.6 6.6 0 0 1 2.258.858q1.098.651 1.823 1.968t.725 3.525V300h-2.85v-2.511h-.145q-.29.603-.966 1.292-.675.688-1.799 1.171t-2.74.483m.434-2.56q1.69 0 2.85-.664 1.17-.664 1.762-1.715a4.36 4.36 0 0 0 .604-2.209v-2.608q-.181.218-.797.398-.603.17-1.4.302-.785.121-1.534.218-.736.084-1.195.144-1.111.145-2.077.471-.954.315-1.545.954-.58.628-.58 1.715 0 1.485 1.099 2.245 1.111.749 2.813.749m16.116-9.031V300h-2.85v-18.545h2.753v2.897h.242a5.3 5.3 0 0 1 1.98-2.27q1.327-.869 3.429-.869 1.883 0 3.296.773 1.413.76 2.197 2.318.785 1.545.785 3.912V300h-2.849v-11.591q0-2.185-1.135-3.405-1.135-1.231-3.115-1.231-1.365 0-2.439.591-1.062.592-1.678 1.727t-.616 2.753m24.042 11.542q-2.319 0-4.093-1.171-1.775-1.183-2.777-3.332-1.002-2.161-1.002-5.107 0-2.922 1.002-5.071 1.002-2.15 2.789-3.321t4.129-1.171q1.811 0 2.862.604 1.062.591 1.618 1.352.567.749.881 1.232h.241v-9.128h2.85V300h-2.753v-2.849h-.338q-.314.507-.893 1.279-.58.76-1.655 1.365-1.074.591-2.861.591m.386-2.559q1.715 0 2.898-.894 1.183-.905 1.799-2.499.616-1.606.616-3.707 0-2.077-.604-3.634-.603-1.569-1.787-2.439-1.183-.88-2.922-.881-1.81 0-3.018.929-1.196.918-1.799 2.5-.592 1.569-.592 3.525 0 1.98.604 3.598.615 1.606 1.811 2.56 1.207.942 2.994.942M653.033 300v-18.545h2.753v2.801h.193q.507-1.376 1.835-2.234 1.328-.857 2.994-.857.315 0 .785.012t.712.036v2.898a8 8 0 0 0-.664-.109 6.6 6.6 0 0 0-1.074-.084q-1.353 0-2.415.567-1.05.556-1.666 1.546-.604.978-.604 2.233V300zm12.65 0v-18.545h2.85V300zm1.449-21.636a2.03 2.03 0 0 1-1.437-.568 1.82 1.82 0 0 1-.591-1.364q0-.797.591-1.365a2.03 2.03 0 0 1 1.437-.567q.832 0 1.425.567.603.568.603 1.365t-.603 1.364q-.592.567-1.425.568m14.105 28.977q-2.064 0-3.549-.531-1.486-.519-2.476-1.377-.978-.845-1.557-1.811l2.27-1.594q.386.507.978 1.16.591.663 1.618 1.147 1.038.495 2.716.495 2.246 0 3.707-1.087t1.461-3.405v-3.767h-.242q-.314.507-.893 1.256-.568.736-1.642 1.316-1.062.567-2.874.567-2.245 0-4.032-1.062-1.775-1.063-2.814-3.091-1.026-2.029-1.026-4.926 0-2.85 1.002-4.963 1.002-2.124 2.789-3.284 1.788-1.171 4.13-1.171 1.81 0 2.873.604 1.075.591 1.642 1.352.58.749.894 1.232h.29v-2.946h2.752v19.076q0 2.391-1.086 3.888-1.076 1.51-2.898 2.21-1.811.712-4.033.712m-.096-10.19q1.715 0 2.897-.785 1.184-.785 1.799-2.258.616-1.473.616-3.526 0-2.004-.603-3.537-.605-1.534-1.787-2.403-1.183-.87-2.922-.869-1.812 0-3.019.917-1.195.918-1.799 2.463-.591 1.547-.591 3.429 0 1.932.603 3.417.617 1.473 1.811 2.318 1.207.834 2.995.834m16.179-8.307V300h-2.85v-24.727h2.85v9.079h.241a5.25 5.25 0 0 1 1.956-2.282q1.317-.857 3.502-.857 1.895 0 3.32.761 1.425.748 2.209 2.306.798 1.545.797 3.936V300h-2.849v-11.591q0-2.21-1.147-3.417-1.135-1.22-3.151-1.219-1.4 0-2.512.591a4.3 4.3 0 0 0-1.738 1.727q-.628 1.135-.628 2.753m25.303-7.389v2.414h-9.61v-2.414zm-6.809-4.444h2.849v17.677q0 1.206.35 1.811.363.591.918.796.567.194 1.195.194.471 0 .773-.049l.483-.096.58 2.559a6 6 0 0 1-.809.218q-.52.12-1.316.12a5.7 5.7 0 0 1-2.367-.519 4.7 4.7 0 0 1-1.908-1.581q-.748-1.063-.748-2.681zM187.076 762h-2.995q-.266-1.292-.929-2.27a6.2 6.2 0 0 0-1.594-1.642 6.8 6.8 0 0 0-2.065-1.014 8.2 8.2 0 0 0-2.366-.338q-2.246 0-4.069 1.135-1.811 1.134-2.886 3.344-1.062 2.21-1.062 5.421t1.062 5.422q1.075 2.209 2.886 3.344 1.823 1.135 4.069 1.135 1.232 0 2.366-.338a7 7 0 0 0 2.065-1.002 6.4 6.4 0 0 0 1.594-1.654q.663-.99.929-2.27h2.995q-.339 1.895-1.232 3.392a9.3 9.3 0 0 1-2.221 2.548 9.7 9.7 0 0 1-2.983 1.582 11.1 11.1 0 0 1-3.513.543q-3.164 0-5.627-1.545-2.463-1.547-3.875-4.395-1.413-2.85-1.413-6.762t1.413-6.761q1.412-2.85 3.875-4.395t5.627-1.545q1.871 0 3.513.543a9.6 9.6 0 0 1 2.983 1.594 9.1 9.1 0 0 1 2.221 2.535q.893 1.485 1.232 3.393m4.452 17v-18.545h2.753v2.801h.193q.507-1.376 1.835-2.234 1.329-.857 2.994-.857.315 0 .785.012t.713.036v2.898a8 8 0 0 0-.664-.109 6.6 6.6 0 0 0-1.075-.084q-1.352 0-2.415.567-1.05.555-1.666 1.546-.603.978-.604 2.233V779zm19.861.386q-2.68 0-4.624-1.183-1.932-1.196-2.982-3.332-1.039-2.15-1.039-4.999t1.039-5.023q1.05-2.184 2.922-3.404 1.882-1.232 4.395-1.232 1.448 0 2.861.483a7.1 7.1 0 0 1 2.572 1.57q1.159 1.074 1.847 2.849.688 1.774.688 4.371v1.207h-14.295v-2.463h11.398q0-1.57-.628-2.801a4.73 4.73 0 0 0-1.763-1.944q-1.135-.712-2.68-.712-1.702 0-2.946.845a5.56 5.56 0 0 0-1.896 2.173 6.4 6.4 0 0 0-.664 2.874v1.642q0 2.1.724 3.562.737 1.449 2.041 2.209 1.303.749 3.03.749 1.123 0 2.029-.314a4.35 4.35 0 0 0 1.581-.966 4.4 4.4 0 0 0 1.027-1.618l2.753.773a6.1 6.1 0 0 1-1.461 2.463q-1.027 1.05-2.536 1.642-1.509.579-3.393.579m17.471.049q-1.762 0-3.199-.664-1.437-.677-2.282-1.944-.846-1.28-.845-3.091 0-1.594.627-2.584a4.44 4.44 0 0 1 1.679-1.57q1.05-.567 2.318-.845 1.28-.29 2.572-.459 1.69-.216 2.74-.326 1.063-.12 1.546-.398.495-.278.495-.966v-.097q0-1.786-.978-2.777-.966-.99-2.934-.99-2.04 0-3.2.894-1.158.893-1.63 1.908l-2.704-.966q.725-1.691 1.932-2.632a7.25 7.25 0 0 1 2.656-1.329 11 11 0 0 1 2.849-.386q.894 0 2.053.217a6.6 6.6 0 0 1 2.258.858q1.098.651 1.823 1.968t.724 3.525V779h-2.849v-2.511h-.145q-.29.603-.966 1.292-.676.688-1.799 1.171t-2.741.483m.435-2.56q1.69 0 2.849-.664 1.172-.664 1.763-1.715a4.36 4.36 0 0 0 .604-2.209v-2.608q-.182.218-.797.398a13 13 0 0 1-1.401.302q-.784.121-1.533.218-.736.084-1.195.144-1.111.146-2.077.471-.954.315-1.545.954-.58.628-.58 1.715 0 1.485 1.099 2.245 1.11.749 2.813.749m21.331-16.42v2.414h-9.61v-2.414zm-6.809-4.444h2.849v17.677q0 1.206.35 1.811.363.591.918.796.567.194 1.195.194.471 0 .773-.049l.483-.096.579 2.559a6 6 0 0 1-.808.218q-.52.12-1.317.12a5.7 5.7 0 0 1-2.366-.519 4.7 4.7 0 0 1-1.908-1.581q-.748-1.063-.748-2.681zm18.672 23.375q-2.68 0-4.624-1.183-1.932-1.196-2.983-3.332-1.038-2.15-1.038-4.999t1.038-5.023q1.052-2.184 2.922-3.404 1.884-1.232 4.395-1.232 1.449 0 2.862.483a7.1 7.1 0 0 1 2.571 1.57q1.16 1.074 1.848 2.849.688 1.774.688 4.371v1.207h-14.295v-2.463h11.397q0-1.57-.628-2.801a4.73 4.73 0 0 0-1.762-1.944q-1.135-.712-2.681-.712-1.703 0-2.946.845a5.55 5.55 0 0 0-1.895 2.173 6.4 6.4 0 0 0-.664 2.874v1.642q0 2.1.724 3.562.736 1.449 2.04 2.209 1.305.749 3.031.749 1.123 0 2.028-.314a4.4 4.4 0 0 0 1.582-.966 4.4 4.4 0 0 0 1.026-1.618l2.753.773a6.1 6.1 0 0 1-1.461 2.463q-1.026 1.05-2.535 1.642-1.509.579-3.393.579m21.962-.386v-24.727h8.645q2.584 0 4.262.893 1.678.882 2.5 2.379.82 1.485.821 3.296 0 1.594-.568 2.632a4.4 4.4 0 0 1-1.473 1.642 6.7 6.7 0 0 1-1.968.894v.241q1.135.072 2.282.797 1.147.724 1.92 2.077t.773 3.308q0 1.859-.846 3.344-.845 1.485-2.668 2.355t-4.745.869zm2.995-2.656h5.94q2.934 0 4.165-1.135 1.244-1.148 1.244-2.777 0-1.256-.64-2.318-.64-1.075-1.823-1.715-1.184-.652-2.801-.652h-6.085zm0-11.205H293q1.351 0 2.439-.531a4.26 4.26 0 0 0 1.738-1.497q.652-.966.652-2.27 0-1.63-1.135-2.765-1.135-1.147-3.598-1.147h-5.65zm32.641-4.684q-.217-1.836-1.762-2.85-1.546-1.014-3.792-1.014-1.641 0-2.873.531-1.22.531-1.908 1.461a3.5 3.5 0 0 0-.676 2.113q0 .99.471 1.702.483.7 1.231 1.172a9 9 0 0 0 1.57.76q.82.29 1.509.471l2.512.676q.966.254 2.149.701a10 10 0 0 1 2.282 1.219 6.2 6.2 0 0 1 1.811 1.956q.712 1.196.712 2.934 0 2.004-1.05 3.622-1.04 1.618-3.043 2.572-1.992.954-4.842.954-2.655 0-4.6-.858-1.932-.857-3.042-2.39-1.099-1.534-1.244-3.562h3.091q.12 1.4.942 2.318.832.906 2.101 1.352 1.28.435 2.752.435 1.715 0 3.079-.555 1.365-.568 2.162-1.57.796-1.014.796-2.366 0-1.231-.688-2.005-.688-.772-1.811-1.255a19 19 0 0 0-2.427-.845l-3.042-.87q-2.898-.833-4.588-2.378t-1.691-4.045q0-2.077 1.123-3.622 1.135-1.559 3.043-2.415 1.92-.87 4.286-.869 2.39 0 4.25.857 1.86.845 2.946 2.318a5.78 5.78 0 0 1 1.159 3.345zm6.807-3.526v-2.656h18.545v2.656h-7.775V779h-2.994v-22.071zM363.439 779l-5.651-18.545h2.994l4.009 14.198h.193l3.96-14.198h3.043l3.912 14.15h.193l4.008-14.15h2.995L377.444 779h-2.801l-4.057-14.247h-.289L366.24 779zm23.423 0v-18.545h2.849V779zm1.449-21.636q-.834 0-1.437-.568a1.82 1.82 0 0 1-.592-1.364q0-.796.592-1.365a2.03 2.03 0 0 1 1.437-.567q.833 0 1.424.567.604.569.604 1.365 0 .797-.604 1.364a1.98 1.98 0 0 1-1.424.568m14.685 3.091v2.414h-9.611v-2.414zm-6.81-4.444h2.849v17.677q0 1.206.35 1.811.363.591.918.796.567.194 1.195.194.471 0 .773-.049l.483-.096.58 2.559a6 6 0 0 1-.809.218q-.52.12-1.316.12a5.7 5.7 0 0 1-2.367-.519 4.7 4.7 0 0 1-1.908-1.581q-.748-1.063-.748-2.681zm14.344 11.833V779h-2.85v-24.727h2.85v9.079h.241a5.25 5.25 0 0 1 1.956-2.282q1.316-.857 3.502-.857 1.895 0 3.32.761 1.425.748 2.209 2.306.797 1.545.797 3.936V779h-2.849v-11.591q0-2.21-1.147-3.417-1.135-1.22-3.152-1.219-1.4 0-2.511.591a4.33 4.33 0 0 0-1.739 1.727q-.627 1.135-.627 2.753m29.65-13.571V779h-2.849v-24.727zm12.995 25.113q-2.68 0-4.625-1.183-1.932-1.196-2.982-3.332-1.038-2.15-1.038-4.999t1.038-5.023q1.05-2.184 2.922-3.404 1.884-1.232 4.395-1.232 1.45 0 2.861.483a7.1 7.1 0 0 1 2.572 1.57q1.159 1.074 1.847 2.849.689 1.774.689 4.371v1.207h-14.296v-2.463h11.398q0-1.57-.628-2.801a4.73 4.73 0 0 0-1.763-1.944q-1.134-.712-2.68-.712-1.702 0-2.946.845a5.56 5.56 0 0 0-1.896 2.173 6.4 6.4 0 0 0-.664 2.874v1.642q0 2.1.725 3.562.736 1.449 2.04 2.209 1.303.749 3.031.749 1.122 0 2.028-.314a4.4 4.4 0 0 0 1.582-.966 4.4 4.4 0 0 0 1.026-1.618l2.753.773a6.1 6.1 0 0 1-1.461 2.463q-1.026 1.05-2.536 1.642-1.51.579-3.392.579m20.272-18.931v2.414h-9.998v-2.414zM466.444 779v-21.105q0-1.594.748-2.656a4.63 4.63 0 0 1 1.944-1.594 6.15 6.15 0 0 1 2.524-.531q1.05 0 1.714.169.665.168.99.314l-.821 2.463a13 13 0 0 0-.604-.181q-.374-.11-.99-.109-1.412 0-2.04.712-.616.712-.616 2.089V779zm19.061-18.545v2.414h-9.61v-2.414zm-6.809-4.444h2.849v17.677q0 1.206.35 1.811.363.591.918.796.567.194 1.195.194.471 0 .773-.049l.483-.096.579 2.559a6 6 0 0 1-.809.218q-.519.12-1.316.12a5.7 5.7 0 0 1-2.366-.519 4.7 4.7 0 0 1-1.908-1.581q-.748-1.063-.748-2.681zm15.346 19.608-.194 1.304q-.205 1.377-.627 2.946a55 55 0 0 1-.858 2.958 88 88 0 0 1-.736 2.21h-2.174q.158-.772.411-2.041t.507-2.837q.265-1.558.435-3.187l.145-1.353zM508.883 779v-18.545h2.753v2.801h.193q.507-1.376 1.836-2.234 1.328-.857 2.994-.857.314 0 .785.012.47.012.712.036v2.898a8 8 0 0 0-.664-.109 6.6 6.6 0 0 0-1.075-.084q-1.352 0-2.414.567a4.3 4.3 0 0 0-1.667 1.546q-.603.978-.603 2.233V779zm19.62.386q-2.511 0-4.407-1.195-1.882-1.196-2.946-3.344-1.05-2.15-1.05-5.023 0-2.898 1.05-5.059 1.063-2.161 2.946-3.357 1.896-1.194 4.407-1.195 2.512 0 4.395 1.195 1.896 1.196 2.946 3.357 1.063 2.161 1.063 5.059 0 2.874-1.063 5.023-1.05 2.148-2.946 3.344-1.883 1.195-4.395 1.195m0-2.559q1.908 0 3.14-.978 1.231-.979 1.823-2.572.591-1.595.591-3.453 0-1.86-.591-3.465-.592-1.606-1.823-2.596-1.232-.99-3.14-.99-1.907 0-3.139.99t-1.823 2.596-.592 3.465q0 1.858.592 3.453.591 1.593 1.823 2.572 1.232.978 3.139.978m20.287 2.559q-2.511 0-4.406-1.195-1.884-1.196-2.946-3.344-1.051-2.15-1.051-5.023 0-2.898 1.051-5.059 1.062-2.161 2.946-3.357 1.895-1.194 4.406-1.195 2.513 0 4.395 1.195 1.896 1.196 2.946 3.357 1.063 2.161 1.063 5.059 0 2.874-1.063 5.023-1.05 2.148-2.946 3.344-1.882 1.195-4.395 1.195m0-2.559q1.908 0 3.14-.978 1.231-.979 1.823-2.572.591-1.595.591-3.453 0-1.86-.591-3.465-.592-1.606-1.823-2.596-1.232-.99-3.14-.99-1.907 0-3.139.99t-1.823 2.596-.591 3.465.591 3.453q.592 1.593 1.823 2.572 1.232.978 3.139.978m20.819-16.372v2.414h-9.611v-2.414zm-6.81-4.444h2.85v17.677q0 1.206.35 1.811.362.591.917.796.568.194 1.196.194.47 0 .772-.049l.483-.096.58 2.559a6 6 0 0 1-.809.218q-.52.12-1.316.12a5.7 5.7 0 0 1-2.367-.519 4.7 4.7 0 0 1-1.907-1.581q-.749-1.063-.749-2.681zm15.346 19.608-.193 1.304q-.205 1.377-.628 2.946a55 55 0 0 1-.857 2.958 88 88 0 0 1-.737 2.21h-2.173q.157-.772.411-2.041.253-1.268.507-2.837a49 49 0 0 0 .434-3.187l.145-1.353zm-269.381 44.816q-1.764 0-3.2-.664-1.437-.677-2.282-1.944-.845-1.28-.845-3.091 0-1.594.628-2.584a4.44 4.44 0 0 1 1.678-1.57q1.05-.567 2.318-.845a28 28 0 0 1 2.572-.459 124 124 0 0 1 2.741-.326q1.062-.12 1.545-.398.495-.278.495-.966v-.097q0-1.786-.978-2.777-.966-.99-2.934-.99-2.04 0-3.199.894-1.16.893-1.63 1.908l-2.705-.966q.724-1.691 1.932-2.632a7.25 7.25 0 0 1 2.656-1.329 11 11 0 0 1 2.85-.386q.893 0 2.052.217a6.6 6.6 0 0 1 2.258.858q1.098.651 1.823 1.968t.725 3.525V820h-2.85v-2.511h-.145q-.29.603-.966 1.292-.675.688-1.799 1.171t-2.74.483m.434-2.56q1.69 0 2.85-.664 1.17-.664 1.762-1.715a4.36 4.36 0 0 0 .604-2.209v-2.608q-.181.218-.797.398-.603.17-1.4.302-.785.121-1.534.218-.736.084-1.195.144-1.111.146-2.077.471-.954.315-1.545.954-.58.628-.58 1.715 0 1.485 1.099 2.245 1.111.749 2.813.749m16.116-9.031V820h-2.85v-18.545h2.753v2.897h.242a5.3 5.3 0 0 1 1.98-2.27q1.327-.869 3.429-.869 1.883 0 3.296.773 1.413.76 2.197 2.318.786 1.545.785 3.912V820h-2.849v-11.591q0-2.186-1.135-3.405-1.135-1.231-3.115-1.231-1.365 0-2.439.591-1.062.592-1.678 1.727t-.616 2.753m24.042 11.542q-2.319 0-4.093-1.171-1.775-1.183-2.777-3.332-1.002-2.161-1.002-5.107 0-2.922 1.002-5.071 1.002-2.15 2.789-3.321t4.129-1.171q1.811 0 2.862.604 1.062.591 1.618 1.352.567.749.881 1.232h.241v-9.128h2.85V820h-2.753v-2.849h-.338q-.314.507-.893 1.279-.58.76-1.655 1.365-1.074.591-2.861.591m.386-2.559q1.714 0 2.898-.894 1.183-.905 1.799-2.499.616-1.606.616-3.707 0-2.076-.604-3.634-.603-1.569-1.787-2.439-1.183-.88-2.922-.881-1.81 0-3.018.929-1.196.918-1.799 2.5-.592 1.569-.592 3.525 0 1.98.604 3.598.615 1.606 1.811 2.56 1.208.942 2.994.942M373.033 820v-18.545h2.753v2.801h.193q.507-1.376 1.835-2.234 1.328-.857 2.994-.857.314 0 .785.012t.712.036v2.898a8 8 0 0 0-.664-.109 6.6 6.6 0 0 0-1.074-.084q-1.353 0-2.415.567-1.05.555-1.666 1.546-.604.978-.604 2.233V820zm12.65 0v-18.545h2.85V820zm1.449-21.636a2.03 2.03 0 0 1-1.437-.568 1.82 1.82 0 0 1-.591-1.364q0-.796.591-1.365a2.03 2.03 0 0 1 1.437-.567q.832 0 1.425.567.603.569.603 1.365 0 .797-.603 1.364-.592.568-1.425.568m14.105 28.977q-2.064 0-3.549-.531-1.486-.519-2.476-1.377-.978-.845-1.557-1.811l2.27-1.594q.386.507.978 1.16.592.663 1.618 1.147 1.038.495 2.716.495 2.246 0 3.707-1.087t1.461-3.405v-3.767h-.242q-.314.507-.893 1.256-.567.736-1.642 1.316-1.062.567-2.874.567-2.245 0-4.032-1.062-1.775-1.063-2.814-3.091-1.026-2.029-1.026-4.926 0-2.85 1.002-4.963 1.002-2.124 2.789-3.284 1.788-1.171 4.13-1.171 1.81 0 2.873.604 1.075.591 1.642 1.352.58.749.894 1.232h.29v-2.946h2.752v19.076q0 2.391-1.086 3.888-1.076 1.51-2.898 2.21-1.811.712-4.033.712m-.096-10.19q1.715 0 2.897-.785 1.184-.785 1.799-2.258.616-1.473.616-3.526 0-2.004-.603-3.537-.605-1.534-1.787-2.403-1.183-.87-2.922-.869-1.812 0-3.019.917-1.195.918-1.799 2.463-.591 1.546-.591 3.429 0 1.932.603 3.417.617 1.473 1.811 2.318 1.207.834 2.995.834m16.179-8.307V820h-2.85v-24.727h2.85v9.079h.241a5.25 5.25 0 0 1 1.956-2.282q1.317-.857 3.502-.857 1.895 0 3.32.761 1.425.748 2.209 2.306.798 1.545.797 3.936V820h-2.849v-11.591q0-2.21-1.147-3.417-1.135-1.22-3.151-1.219-1.4 0-2.512.591a4.3 4.3 0 0 0-1.738 1.727q-.628 1.135-.628 2.753m25.303-7.389v2.414h-9.61v-2.414zm-6.809-4.444h2.849v17.677q0 1.206.35 1.811.363.591.918.796.567.194 1.195.194.471 0 .773-.049l.483-.096.58 2.559a6 6 0 0 1-.809.218q-.52.12-1.316.12a5.7 5.7 0 0 1-2.367-.519 4.7 4.7 0 0 1-1.908-1.581q-.748-1.063-.748-2.681zM46.076 1337H43.08c-.177-.86-.487-1.62-.93-2.27a6.2 6.2 0 0 0-1.593-1.64 6.9 6.9 0 0 0-2.065-1.02 8.4 8.4 0 0 0-2.366-.33c-1.497 0-2.854.37-4.07 1.13-1.207.76-2.168 1.87-2.885 3.35-.708 1.47-1.062 3.28-1.062 5.42s.354 3.94 1.062 5.42c.717 1.47 1.678 2.59 2.886 3.34q1.823 1.14 4.069 1.14c.82 0 1.61-.12 2.366-.34a7.1 7.1 0 0 0 2.065-1 6.4 6.4 0 0 0 1.594-1.66c.442-.66.752-1.41.93-2.27h2.994c-.226 1.27-.636 2.4-1.232 3.4a9.4 9.4 0 0 1-2.221 2.54c-.886.7-1.88 1.22-2.983 1.58-1.094.37-2.266.55-3.513.55-2.11 0-3.985-.52-5.627-1.55s-2.934-2.49-3.875-4.39c-.942-1.9-1.413-4.16-1.413-6.76 0-2.61.47-4.87 1.413-6.76.941-1.9 2.233-3.37 3.875-4.4s3.518-1.55 5.627-1.55c1.247 0 2.419.19 3.513.55a9.5 9.5 0 0 1 2.983 1.59 9.1 9.1 0 0 1 2.221 2.54q.893 1.485 1.232 3.39m4.452 17v-18.55h2.753v2.81h.193c.338-.92.95-1.67 1.835-2.24.886-.57 1.884-.86 2.994-.86.21 0 .471.01.785.02.314 0 .552.02.713.03v2.9c-.097-.02-.318-.06-.665-.11a7 7 0 0 0-1.074-.08q-1.352 0-2.415.57c-.7.37-1.255.88-1.666 1.54-.403.65-.604 1.4-.604 2.23V1354zm19.861.39c-1.786 0-3.328-.4-4.624-1.19q-1.932-1.185-2.982-3.33c-.692-1.43-1.038-3.1-1.038-5s.346-3.57 1.038-5.02c.7-1.46 1.674-2.59 2.922-3.41q1.882-1.23 4.395-1.23c.966 0 1.92.16 2.861.49.942.32 1.8.84 2.572 1.57q1.159 1.065 1.847 2.85c.459 1.18.688 2.64.688 4.37v1.2H63.773v-2.46H75.17c0-1.05-.21-1.98-.628-2.8a4.7 4.7 0 0 0-1.763-1.94q-1.135-.72-2.68-.72c-1.135 0-2.117.28-2.946.85a5.54 5.54 0 0 0-1.896 2.17 6.4 6.4 0 0 0-.664 2.87v1.65c0 1.4.241 2.58.724 3.56.491.96 1.172 1.7 2.04 2.21q1.305.75 3.031.75c.749 0 1.425-.11 2.029-.32a4.3 4.3 0 0 0 1.581-.96q.664-.66 1.027-1.62l2.753.77q-.435 1.41-1.461 2.46c-.684.71-1.53 1.25-2.536 1.65-1.006.38-2.137.58-3.393.58m17.471.04q-1.763 0-3.2-.66a5.5 5.5 0 0 1-2.281-1.94q-.846-1.29-.845-3.09c0-1.07.209-1.93.627-2.59.419-.67.978-1.19 1.679-1.57q1.05-.57 2.318-.84c.853-.2 1.71-.35 2.572-.46q1.69-.225 2.74-.33c.709-.08 1.224-.21 1.546-.4q.495-.27.495-.96v-.1c0-1.19-.326-2.12-.978-2.78q-.966-.99-2.934-.99-2.04 0-3.2.9c-.772.59-1.316 1.23-1.63 1.91l-2.704-.97c.483-1.13 1.127-2 1.932-2.63a7.2 7.2 0 0 1 2.656-1.33q1.449-.39 2.85-.39c.595 0 1.28.08 2.052.22.78.14 1.533.42 2.258.86.732.43 1.34 1.09 1.823 1.97.483.87.724 2.05.724 3.52V1354h-2.85v-2.51h-.144q-.29.6-.966 1.29t-1.799 1.17-2.74.48m.435-2.55c1.127 0 2.077-.23 2.85-.67q1.17-.66 1.762-1.71c.403-.7.604-1.44.604-2.21v-2.61c-.12.14-.386.28-.797.4q-.605.165-1.4.3c-.524.08-1.035.15-1.534.22-.491.05-.89.1-1.195.14-.74.1-1.433.26-2.077.47q-.954.315-1.545.96c-.387.41-.58.99-.58 1.71q0 1.485 1.099 2.25 1.11.75 2.813.75m21.331-16.43v2.42h-9.61v-2.42zm-6.809-4.44h2.849v17.68c0 .8.117 1.41.35 1.81.242.39.548.66.918.8.378.12.777.19 1.195.19.314 0 .572-.02.773-.05.201-.04.362-.07.483-.1l.579 2.56a4.6 4.6 0 0 1-.808.22q-.52.12-1.317.12c-.804 0-1.593-.17-2.366-.52a4.63 4.63 0 0 1-1.908-1.58c-.499-.71-.748-1.6-.748-2.68zm18.672 23.38c-1.787 0-3.328-.4-4.624-1.19q-1.932-1.185-2.983-3.33c-.692-1.43-1.038-3.1-1.038-5s.346-3.57 1.038-5.02c.701-1.46 1.675-2.59 2.922-3.41q1.884-1.23 4.395-1.23c.966 0 1.92.16 2.862.49.941.32 1.799.84 2.571 1.57q1.16 1.065 1.848 2.85c.459 1.18.688 2.64.688 4.37v1.2h-14.295v-2.46h11.397c0-1.05-.209-1.98-.628-2.8a4.7 4.7 0 0 0-1.762-1.94q-1.135-.72-2.681-.72c-1.135 0-2.117.28-2.946.85a5.53 5.53 0 0 0-1.895 2.17 6.36 6.36 0 0 0-.664 2.87v1.65c0 1.4.241 2.58.724 3.56.491.96 1.171 1.7 2.04 2.21q1.305.75 3.031.75c.749 0 1.425-.11 2.028-.32a4.3 4.3 0 0 0 1.582-.96q.664-.66 1.026-1.62l2.753.77q-.435 1.41-1.461 2.46c-.684.71-1.529 1.25-2.535 1.65-1.006.38-2.137.58-3.393.58m21.962-.39v-24.73h8.645q2.584 0 4.262.9c1.119.58 1.952 1.38 2.5 2.37q.82 1.485.821 3.3c0 1.06-.19 1.94-.568 2.63-.37.7-.861 1.24-1.473 1.65-.604.4-1.26.7-1.968.89v.24c.757.05 1.517.31 2.282.8q1.148.72 1.92 2.07c.515.91.773 2.01.773 3.31 0 1.24-.282 2.36-.846 3.35-.563.99-1.453 1.77-2.668 2.35q-1.823.87-4.745.87zm2.995-2.66h5.94c1.956 0 3.344-.37 4.165-1.13.83-.77 1.244-1.69 1.244-2.78 0-.84-.213-1.61-.64-2.32q-.64-1.065-1.823-1.71c-.789-.44-1.723-.65-2.801-.65h-6.085zm0-11.2H152c.901 0 1.714-.18 2.439-.53a4.34 4.34 0 0 0 1.738-1.5c.435-.64.652-1.4.652-2.27q0-1.635-1.135-2.76c-.756-.77-1.956-1.15-3.598-1.15h-5.65zm32.641-4.69c-.145-1.22-.732-2.17-1.762-2.84q-1.546-1.02-3.792-1.02c-1.094 0-2.052.18-2.873.53-.813.36-1.449.84-1.908 1.46a3.52 3.52 0 0 0-.676 2.12c0 .66.157 1.22.471 1.7q.483.705 1.231 1.17a8.5 8.5 0 0 0 1.57.76c.547.19 1.05.35 1.509.47l2.512.68c.644.17 1.36.4 2.149.7.797.3 1.557.7 2.282 1.22.732.5 1.336 1.16 1.811 1.95q.712 1.2.712 2.94c0 1.33-.35 2.54-1.05 3.62-.693 1.08-1.707 1.93-3.043 2.57-1.328.64-2.942.95-4.842.95-1.77 0-3.304-.28-4.6-.85-1.288-.57-2.302-1.37-3.042-2.39-.733-1.03-1.147-2.21-1.244-3.57h3.091c.081.94.394 1.71.942 2.32.555.61 1.255 1.06 2.101 1.36.853.29 1.77.43 2.752.43 1.143 0 2.17-.19 3.079-.56s1.63-.9 2.162-1.56q.796-1.02.796-2.37 0-1.23-.688-2.01c-.459-.51-1.062-.93-1.811-1.25a19 19 0 0 0-2.427-.85l-3.042-.87q-2.898-.825-4.588-2.37t-1.691-4.05c0-1.38.375-2.59 1.123-3.62.757-1.04 1.771-1.84 3.043-2.42q1.92-.87 4.286-.87c1.594 0 3.01.29 4.25.86s2.222 1.34 2.946 2.32c.732.98 1.119 2.1 1.159 3.34zm6.807-3.52v-2.66h18.545v2.66h-7.775V1354h-2.994v-22.07zm36.545 22.07-5.651-18.55h2.994l4.009 14.2h.193l3.96-14.2h3.043l3.912 14.16h.193l4.008-14.16h2.995l-5.651 18.55h-2.801l-4.057-14.25h-.289L225.24 1354zm23.423 0v-18.55h2.849V1354zm1.449-21.64c-.556 0-1.035-.19-1.437-.56a1.84 1.84 0 0 1-.592-1.37c0-.53.198-.98.592-1.36a2.02 2.02 0 0 1 1.437-.57q.833 0 1.424.57c.403.38.604.83.604 1.36s-.201.99-.604 1.37a2 2 0 0 1-1.424.56m14.685 3.09v2.42h-9.611v-2.42zm-6.81-4.44h2.849v17.68c0 .8.117 1.41.35 1.81.242.39.548.66.918.8.378.12.777.19 1.195.19.314 0 .572-.02.773-.05.201-.04.362-.07.483-.1l.58 2.56a4.7 4.7 0 0 1-.809.22q-.52.12-1.316.12c-.805 0-1.594-.17-2.367-.52a4.64 4.64 0 0 1-1.908-1.58c-.499-.71-.748-1.6-.748-2.68zm14.344 11.83V1354h-2.85v-24.73h2.85v9.08h.241a5.2 5.2 0 0 1 1.956-2.28c.877-.57 2.045-.86 3.502-.86 1.263 0 2.37.26 3.32.76q1.425.75 2.209 2.31c.532 1.03.797 2.34.797 3.94V1354h-2.849v-11.59q0-2.205-1.147-3.42c-.757-.81-1.807-1.22-3.152-1.22-.933 0-1.77.2-2.511.59-.732.4-1.312.97-1.739 1.73-.418.76-.627 1.68-.627 2.75m29.65-13.57V1354h-2.849v-24.73zm12.995 25.12c-1.787 0-3.329-.4-4.625-1.19q-1.932-1.185-2.982-3.33c-.692-1.43-1.038-3.1-1.038-5s.346-3.57 1.038-5.02c.7-1.46 1.674-2.59 2.922-3.41q1.884-1.23 4.395-1.23c.966 0 1.92.16 2.861.49a7 7 0 0 1 2.572 1.57q1.159 1.065 1.847 2.85c.459 1.18.689 2.64.689 4.37v1.2h-14.296v-2.46h11.398c0-1.05-.209-1.98-.628-2.8a4.7 4.7 0 0 0-1.763-1.94q-1.134-.72-2.68-.72c-1.135 0-2.117.28-2.946.85a5.54 5.54 0 0 0-1.896 2.17 6.36 6.36 0 0 0-.664 2.87v1.65c0 1.4.242 2.58.725 3.56.491.96 1.171 1.7 2.04 2.21q1.303.75 3.031.75c.748 0 1.424-.11 2.028-.32a4.3 4.3 0 0 0 1.582-.96 4.5 4.5 0 0 0 1.026-1.62l2.753.77q-.435 1.41-1.461 2.46c-.684.71-1.53 1.25-2.536 1.65-1.006.38-2.137.58-3.392.58m20.272-18.94v2.42h-9.998v-2.42zm-7.003 18.55v-21.11c0-1.06.249-1.94.748-2.65a4.7 4.7 0 0 1 1.944-1.6 6.2 6.2 0 0 1 2.524-.53c.7 0 1.271.06 1.714.17.443.12.773.22.99.32l-.821 2.46a10 10 0 0 0-.604-.18c-.249-.07-.579-.11-.99-.11-.941 0-1.622.24-2.04.71-.411.48-.616 1.17-.616 2.09V1354zm19.061-18.55v2.42h-9.61v-2.42zm-6.809-4.44h2.849v17.68c0 .8.117 1.41.35 1.81.242.39.548.66.918.8.378.12.777.19 1.195.19.314 0 .572-.02.773-.05.201-.04.362-.07.483-.1l.579 2.56a4.6 4.6 0 0 1-.809.22q-.519.12-1.316.12c-.805 0-1.593-.17-2.366-.52a4.63 4.63 0 0 1-1.908-1.58c-.499-.71-.748-1.6-.748-2.68zm15.346 19.61-.194 1.3c-.136.92-.346 1.9-.627 2.95-.274 1.05-.56 2.03-.858 2.96-.298.92-.543 1.66-.736 2.21h-2.174l.411-2.04c.169-.85.338-1.79.507-2.84.177-1.04.322-2.1.435-3.19l.145-1.35zm14.841 3.38v-18.55h2.753v2.81h.193c.338-.92.95-1.67 1.836-2.24.885-.57 1.883-.86 2.994-.86.209 0 .471.01.785.02.314 0 .551.02.712.03v2.9c-.097-.02-.318-.06-.664-.11a7 7 0 0 0-1.075-.08q-1.352 0-2.414.57c-.701.37-1.256.88-1.667 1.54-.402.65-.603 1.4-.603 2.23V1354zm19.62.39q-2.511 0-4.407-1.2c-1.255-.8-2.237-1.91-2.946-3.34-.7-1.44-1.05-3.11-1.05-5.03 0-1.93.35-3.61 1.05-5.06.709-1.44 1.691-2.55 2.946-3.35q1.896-1.2 4.407-1.2 2.513 0 4.395 1.2c1.264.8 2.246 1.91 2.946 3.35.709 1.45 1.063 3.13 1.063 5.06 0 1.92-.354 3.59-1.063 5.03-.7 1.43-1.682 2.54-2.946 3.34q-1.882 1.2-4.395 1.2m0-2.56c1.272 0 2.319-.33 3.14-.98s1.428-1.51 1.823-2.57c.394-1.07.591-2.22.591-3.46s-.197-2.39-.591-3.46c-.395-1.07-1.002-1.94-1.823-2.6q-1.232-.99-3.14-.99-1.907 0-3.139.99c-.821.66-1.429 1.53-1.823 2.6s-.592 2.22-.592 3.46.198 2.39.592 3.46c.394 1.06 1.002 1.92 1.823 2.57s1.868.98 3.139.98m20.287 2.56q-2.511 0-4.406-1.2c-1.256-.8-2.238-1.91-2.946-3.34-.701-1.44-1.051-3.11-1.051-5.03 0-1.93.35-3.61 1.051-5.06.708-1.44 1.69-2.55 2.946-3.35q1.895-1.2 4.406-1.2 2.512 0 4.395 1.2c1.264.8 2.246 1.91 2.946 3.35.709 1.45 1.063 3.13 1.063 5.06 0 1.92-.354 3.59-1.063 5.03-.7 1.43-1.682 2.54-2.946 3.34q-1.882 1.2-4.395 1.2m0-2.56c1.272 0 2.319-.33 3.14-.98s1.428-1.51 1.823-2.57c.394-1.07.591-2.22.591-3.46s-.197-2.39-.591-3.46c-.395-1.07-1.002-1.94-1.823-2.6q-1.232-.99-3.14-.99-1.907 0-3.139.99c-.821.66-1.428 1.53-1.823 2.6-.394 1.07-.591 2.22-.591 3.46s.197 2.39.591 3.46c.395 1.06 1.002 1.92 1.823 2.57s1.868.98 3.139.98m20.819-16.38v2.42h-9.611v-2.42zm-6.81-4.44h2.85v17.68c0 .8.116 1.41.35 1.81.241.39.547.66.917.8.379.12.777.19 1.196.19.314 0 .571-.02.772-.05.202-.04.363-.07.483-.1l.58 2.56c-.193.08-.463.15-.809.22q-.52.12-1.316.12c-.805 0-1.594-.17-2.367-.52-.764-.34-1.4-.87-1.907-1.58-.499-.71-.749-1.6-.749-2.68zm15.346 19.61-.193 1.3c-.137.92-.346 1.9-.628 2.95a56 56 0 0 1-.857 2.96c-.298.92-.544 1.66-.737 2.21h-2.173l.411-2.04c.169-.85.338-1.79.507-2.84.177-1.04.322-2.1.434-3.19l.145-1.35zm-269.381 44.81q-1.763 0-3.2-.66a5.5 5.5 0 0 1-2.282-1.94q-.845-1.29-.845-3.09c0-1.07.209-1.93.628-2.59.418-.67.978-1.19 1.678-1.57q1.05-.57 2.318-.84a25 25 0 0 1 2.572-.46q1.69-.225 2.741-.33c.708-.08 1.223-.21 1.545-.4q.495-.27.495-.96v-.1c0-1.19-.326-2.12-.978-2.78q-.966-.99-2.934-.99-2.04 0-3.199.9c-.773.59-1.316 1.23-1.63 1.91l-2.705-.97c.483-1.13 1.127-2 1.932-2.63a7.2 7.2 0 0 1 2.656-1.33q1.449-.39 2.85-.39c.595 0 1.279.08 2.052.22.781.14 1.534.42 2.258.86.732.43 1.34 1.09 1.823 1.97.483.87.725 2.05.725 3.52V1395h-2.85v-2.51h-.145q-.29.6-.966 1.29t-1.799 1.17-2.74.48m.434-2.55c1.127 0 2.077-.23 2.85-.67q1.17-.66 1.762-1.71c.403-.7.604-1.44.604-2.21v-2.61c-.121.14-.386.28-.797.4q-.603.165-1.4.3c-.523.08-1.035.15-1.534.22-.491.05-.889.1-1.195.14-.741.1-1.433.26-2.077.47q-.954.315-1.545.96c-.387.41-.58.99-.58 1.71q0 1.485 1.099 2.25 1.111.75 2.813.75m16.116-9.04V1395h-2.85v-18.55h2.753v2.9h.242a5.3 5.3 0 0 1 1.98-2.27q1.328-.87 3.429-.87 1.883 0 3.296.78c.942.5 1.674 1.28 2.197 2.31s.785 2.34.785 3.92V1395h-2.849v-11.59c0-1.46-.379-2.59-1.135-3.41q-1.135-1.23-3.115-1.23c-.91 0-1.723.2-2.439.59-.708.4-1.268.97-1.678 1.73-.411.76-.616 1.68-.616 2.75m24.042 11.55q-2.319 0-4.093-1.17c-1.183-.79-2.109-1.9-2.777-3.34q-1.002-2.16-1.002-5.1c0-1.95.334-3.64 1.002-5.08.668-1.43 1.598-2.53 2.789-3.32q1.787-1.17 4.129-1.17c1.208 0 2.161.2 2.862.61q1.062.585 1.618 1.35.567.75.881 1.23h.241v-9.13h2.85V1395h-2.753v-2.85h-.338c-.209.34-.507.77-.893 1.28-.387.51-.938.96-1.655 1.36q-1.074.6-2.861.6m.386-2.56q1.715 0 2.898-.9c.789-.6 1.388-1.43 1.799-2.5s.616-2.3.616-3.7c0-1.39-.201-2.6-.604-3.64s-.998-1.86-1.787-2.44-1.763-.88-2.922-.88q-1.81 0-3.018.93c-.797.61-1.397 1.45-1.799 2.5-.395 1.05-.592 2.22-.592 3.53q0 1.98.604 3.6.615 1.605 1.811 2.55c.805.63 1.803.95 2.994.95m23.291 2.17v-18.55h2.753v2.81h.193c.338-.92.95-1.67 1.835-2.24s1.884-.86 2.994-.86c.21 0 .471.01.785.02.314 0 .552.02.712.03v2.9c-.096-.02-.317-.06-.664-.11a7 7 0 0 0-1.074-.08q-1.353 0-2.415.57c-.7.37-1.256.88-1.666 1.54-.403.65-.604 1.4-.604 2.23V1395zm12.65 0v-18.55h2.85V1395zm1.449-21.64c-.555 0-1.034-.19-1.437-.56a1.84 1.84 0 0 1-.591-1.37c0-.53.197-.98.591-1.36q.605-.57 1.437-.57t1.425.57c.402.38.603.83.603 1.36s-.201.99-.603 1.37c-.395.37-.87.56-1.425.56m14.105 28.98c-1.376 0-2.559-.18-3.549-.53q-1.486-.525-2.476-1.38c-.652-.56-1.171-1.16-1.557-1.81l2.27-1.59c.257.34.583.72.978 1.16q.591.66 1.618 1.14c.692.33 1.597.5 2.716.5 1.497 0 2.733-.36 3.707-1.09.974-.72 1.461-1.86 1.461-3.4v-3.77h-.242q-.314.51-.893 1.26c-.378.49-.926.93-1.642 1.31q-1.062.57-2.874.57c-1.497 0-2.841-.35-4.032-1.06q-1.775-1.065-2.814-3.09c-.684-1.36-1.026-3-1.026-4.93 0-1.9.334-3.55 1.002-4.96.668-1.42 1.598-2.51 2.789-3.29q1.788-1.17 4.13-1.17c1.207 0 2.165.2 2.873.61q1.075.585 1.642 1.35.58.75.894 1.23h.29v-2.95h2.752v19.08c0 1.59-.362 2.89-1.086 3.89-.717 1.01-1.683 1.74-2.898 2.21-1.207.47-2.552.71-4.033.71m-.096-10.19q1.715 0 2.897-.78c.789-.53 1.389-1.28 1.799-2.26.411-.98.616-2.16.616-3.53q0-1.995-.603-3.54-.605-1.53-1.787-2.4-1.183-.87-2.922-.87c-1.208 0-2.214.31-3.019.92q-1.195.915-1.799 2.46c-.394 1.03-.591 2.18-.591 3.43q0 1.935.603 3.42c.411.98 1.015 1.75 1.811 2.32.805.55 1.803.83 2.995.83m16.179-8.31V1395h-2.85v-24.73h2.85v9.08h.241a5.2 5.2 0 0 1 1.956-2.28c.878-.57 2.045-.86 3.502-.86 1.263 0 2.37.26 3.32.76q1.425.75 2.209 2.31c.532 1.03.797 2.34.797 3.94V1395h-2.849v-11.59q0-2.205-1.147-3.42c-.757-.81-1.807-1.22-3.151-1.22-.934 0-1.771.2-2.512.59-.732.4-1.312.97-1.738 1.73-.419.76-.628 1.68-.628 2.75m25.303-7.39v2.42h-9.61v-2.42zm-6.809-4.44h2.849v17.68c0 .8.117 1.41.35 1.81.242.39.548.66.918.8.378.12.777.19 1.195.19.314 0 .572-.02.773-.05.201-.04.362-.07.483-.1l.58 2.56a4.7 4.7 0 0 1-.809.22q-.52.12-1.316.12c-.805 0-1.594-.17-2.367-.52a4.64 4.64 0 0 1-1.908-1.58c-.499-.71-.748-1.6-.748-2.68zM757.076 762h-2.995q-.266-1.292-.929-2.27a6.2 6.2 0 0 0-1.594-1.642 6.8 6.8 0 0 0-2.065-1.014 8.2 8.2 0 0 0-2.366-.338q-2.246 0-4.069 1.135-1.811 1.134-2.886 3.344-1.062 2.21-1.062 5.421t1.062 5.422q1.075 2.209 2.886 3.344 1.823 1.135 4.069 1.135 1.232 0 2.366-.338a7 7 0 0 0 2.065-1.002 6.4 6.4 0 0 0 1.594-1.654q.663-.99.929-2.27h2.995q-.338 1.895-1.232 3.392a9.3 9.3 0 0 1-2.221 2.548 9.7 9.7 0 0 1-2.983 1.582 11.1 11.1 0 0 1-3.513.543q-3.164 0-5.627-1.545-2.463-1.547-3.875-4.395-1.413-2.85-1.413-6.762t1.413-6.761q1.412-2.85 3.875-4.395t5.627-1.545q1.871 0 3.513.543a9.6 9.6 0 0 1 2.983 1.594 9.1 9.1 0 0 1 2.221 2.535q.894 1.485 1.232 3.393m4.452 17v-18.545h2.753v2.801h.193q.507-1.376 1.835-2.234 1.329-.857 2.994-.857.315 0 .785.012t.713.036v2.898a8 8 0 0 0-.664-.109 6.6 6.6 0 0 0-1.075-.084q-1.352 0-2.415.567-1.05.555-1.666 1.546-.603.978-.604 2.233V779zm19.861.386q-2.68 0-4.624-1.183-1.932-1.196-2.982-3.332-1.038-2.15-1.039-4.999t1.039-5.023q1.05-2.184 2.922-3.404 1.883-1.232 4.395-1.232 1.449 0 2.861.483a7.1 7.1 0 0 1 2.572 1.57q1.159 1.074 1.847 2.849.688 1.774.688 4.371v1.207h-14.295v-2.463h11.398q0-1.57-.628-2.801a4.73 4.73 0 0 0-1.763-1.944q-1.135-.712-2.68-.712-1.702 0-2.946.845a5.56 5.56 0 0 0-1.896 2.173 6.4 6.4 0 0 0-.664 2.874v1.642q0 2.1.724 3.562.737 1.449 2.041 2.209 1.303.749 3.03.749 1.123 0 2.029-.314a4.35 4.35 0 0 0 1.581-.966 4.4 4.4 0 0 0 1.027-1.618l2.753.773a6.1 6.1 0 0 1-1.461 2.463q-1.027 1.05-2.536 1.642-1.509.579-3.393.579m17.471.049q-1.762 0-3.199-.664-1.437-.677-2.282-1.944-.846-1.28-.845-3.091 0-1.594.627-2.584a4.44 4.44 0 0 1 1.679-1.57q1.05-.567 2.318-.845 1.28-.29 2.572-.459 1.69-.216 2.74-.326 1.063-.12 1.546-.398.495-.278.495-.966v-.097q0-1.786-.978-2.777-.966-.99-2.934-.99-2.04 0-3.2.894-1.159.893-1.63 1.908l-2.704-.966q.725-1.691 1.932-2.632a7.25 7.25 0 0 1 2.656-1.329 11 11 0 0 1 2.849-.386q.894 0 2.053.217a6.6 6.6 0 0 1 2.258.858q1.098.651 1.823 1.968t.724 3.525V779h-2.849v-2.511h-.145q-.29.603-.966 1.292-.676.688-1.799 1.171t-2.741.483m.435-2.56q1.69 0 2.849-.664 1.172-.664 1.763-1.715a4.36 4.36 0 0 0 .604-2.209v-2.608q-.182.218-.797.398a13 13 0 0 1-1.401.302q-.785.121-1.533.218-.736.084-1.195.144-1.111.146-2.077.471-.954.315-1.545.954-.58.628-.58 1.715 0 1.485 1.099 2.245 1.11.749 2.813.749m21.331-16.42v2.414h-9.61v-2.414zm-6.809-4.444h2.849v17.677q0 1.206.35 1.811.363.591.918.796.568.194 1.195.194.471 0 .773-.049l.483-.096.579 2.559a6 6 0 0 1-.808.218q-.52.12-1.317.12a5.7 5.7 0 0 1-2.366-.519 4.7 4.7 0 0 1-1.908-1.581q-.748-1.063-.748-2.681zm18.672 23.375q-2.68 0-4.624-1.183-1.932-1.196-2.983-3.332-1.038-2.15-1.038-4.999t1.038-5.023q1.051-2.184 2.922-3.404 1.884-1.232 4.395-1.232 1.449 0 2.862.483a7.1 7.1 0 0 1 2.571 1.57q1.16 1.074 1.848 2.849.688 1.774.688 4.371v1.207h-14.295v-2.463h11.397q0-1.57-.628-2.801a4.73 4.73 0 0 0-1.762-1.944q-1.135-.712-2.681-.712-1.702 0-2.946.845a5.55 5.55 0 0 0-1.895 2.173 6.4 6.4 0 0 0-.664 2.874v1.642q0 2.1.724 3.562.736 1.449 2.04 2.209 1.305.749 3.031.749 1.123 0 2.028-.314a4.4 4.4 0 0 0 1.582-.966 4.4 4.4 0 0 0 1.026-1.618l2.753.773a6.1 6.1 0 0 1-1.461 2.463q-1.026 1.05-2.535 1.642-1.509.579-3.393.579m21.962-.386v-24.727h8.645q2.584 0 4.262.893 1.678.882 2.5 2.379.82 1.485.821 3.296 0 1.594-.568 2.632a4.4 4.4 0 0 1-1.473 1.642 6.7 6.7 0 0 1-1.968.894v.241q1.135.072 2.282.797 1.148.724 1.92 2.077.773 1.352.773 3.308 0 1.859-.846 3.344-.845 1.485-2.668 2.355t-4.745.869zm2.995-2.656h5.94q2.934 0 4.165-1.135 1.245-1.148 1.244-2.777 0-1.256-.64-2.318-.64-1.075-1.823-1.715-1.184-.652-2.801-.652h-6.085zm0-11.205H863q1.352 0 2.439-.531a4.26 4.26 0 0 0 1.738-1.497q.652-.966.652-2.27 0-1.63-1.135-2.765-1.135-1.147-3.598-1.147h-5.65zm32.641-4.684q-.217-1.836-1.762-2.85-1.546-1.014-3.792-1.014-1.641 0-2.873.531-1.22.531-1.908 1.461a3.5 3.5 0 0 0-.676 2.113q0 .99.471 1.702.483.7 1.231 1.172a9 9 0 0 0 1.57.76q.82.29 1.509.471l2.512.676q.966.254 2.149.701a10 10 0 0 1 2.282 1.219 6.2 6.2 0 0 1 1.811 1.956q.712 1.196.712 2.934 0 2.004-1.05 3.622-1.04 1.618-3.043 2.572-1.992.954-4.842.954-2.655 0-4.6-.858-1.932-.857-3.042-2.39-1.099-1.534-1.244-3.562h3.091q.12 1.4.942 2.318.832.906 2.101 1.352 1.28.435 2.752.435 1.715 0 3.079-.555 1.365-.568 2.162-1.57.796-1.014.796-2.366 0-1.231-.688-2.005-.688-.772-1.811-1.255a19 19 0 0 0-2.427-.845l-3.042-.87q-2.898-.833-4.588-2.378t-1.691-4.045q0-2.077 1.123-3.622 1.135-1.559 3.043-2.415 1.92-.87 4.286-.869 2.39 0 4.25.857 1.86.845 2.946 2.318a5.78 5.78 0 0 1 1.159 3.345zm6.807-3.526v-2.656h18.545v2.656h-7.775V779h-2.994v-22.071zM933.439 779l-5.651-18.545h2.994l4.009 14.198h.193l3.96-14.198h3.043l3.912 14.15h.193l4.008-14.15h2.995L947.444 779h-2.801l-4.057-14.247h-.289L936.24 779zm23.423 0v-18.545h2.849V779zm1.449-21.636q-.834 0-1.437-.568a1.82 1.82 0 0 1-.592-1.364q0-.796.592-1.365a2.03 2.03 0 0 1 1.437-.567q.833 0 1.424.567.604.569.604 1.365 0 .797-.604 1.364a1.98 1.98 0 0 1-1.424.568m14.685 3.091v2.414h-9.611v-2.414zm-6.81-4.444h2.849v17.677q0 1.206.35 1.811.363.591.918.796.568.194 1.195.194.471 0 .773-.049l.483-.096.58 2.559a6 6 0 0 1-.809.218q-.52.12-1.316.12a5.7 5.7 0 0 1-2.367-.519 4.7 4.7 0 0 1-1.908-1.581q-.748-1.063-.748-2.681zm14.344 11.833V779h-2.85v-24.727h2.85v9.079h.241a5.25 5.25 0 0 1 1.956-2.282q1.316-.857 3.502-.857 1.895 0 3.32.761 1.425.748 2.209 2.306.798 1.545.797 3.936V779h-2.849v-11.591q0-2.21-1.147-3.417-1.135-1.22-3.152-1.219-1.4 0-2.511.591a4.33 4.33 0 0 0-1.739 1.727q-.627 1.135-.627 2.753m29.65-13.571V779h-2.85v-24.727zm12.99 25.113q-2.67 0-4.62-1.183c-1.29-.797-2.28-1.908-2.98-3.332-.69-1.433-1.04-3.099-1.04-4.999s.35-3.574 1.04-5.023c.7-1.456 1.67-2.591 2.92-3.404 1.26-.821 2.72-1.232 4.39-1.232.97 0 1.92.161 2.87.483.94.322 1.8.845 2.57 1.57.77.716 1.39 1.666 1.85 2.849.45 1.183.68 2.64.68 4.371v1.207h-14.29v-2.463h11.4q0-1.57-.63-2.801c-.41-.821-1-1.469-1.76-1.944s-1.65-.712-2.69-.712q-1.695 0-2.94.845a5.64 5.64 0 0 0-1.9 2.173 6.4 6.4 0 0 0-.66 2.874v1.642q0 2.1.72 3.562.735 1.449 2.04 2.209 1.305.749 3.03.749c.75 0 1.43-.105 2.03-.314.61-.218 1.14-.54 1.58-.966.45-.435.79-.974 1.03-1.618l2.75.773a6.05 6.05 0 0 1-1.46 2.463c-.68.7-1.53 1.247-2.53 1.642-1.01.386-2.14.579-3.4.579m20.28-18.931v2.414h-10v-2.414zM1036.44 779v-21.105q0-1.594.75-2.656t1.95-1.594a6.1 6.1 0 0 1 2.52-.531q1.05 0 1.71.169.675.168.99.314l-.82 2.463q-.21-.073-.6-.181-.375-.11-.99-.109-1.41 0-2.04.712c-.41.475-.62 1.171-.62 2.089V779zm19.07-18.545v2.414h-9.62v-2.414zm-6.81-4.444h2.85v17.677c0 .804.11 1.408.35 1.811.24.394.54.66.91.796q.57.194 1.2.194c.31 0 .57-.016.77-.049l.48-.096.58 2.559a5.5 5.5 0 0 1-.81.218c-.34.08-.78.12-1.31.12q-1.215 0-2.37-.519a4.76 4.76 0 0 1-1.91-1.581c-.49-.709-.74-1.602-.74-2.681zm15.34 19.608-.19 1.304q-.21 1.377-.63 2.946a50 50 0 0 1-.86 2.958c-.29.926-.54 1.663-.73 2.21h-2.18c.11-.515.24-1.195.41-2.041q.255-1.268.51-2.837c.18-1.038.32-2.101.44-3.187l.14-1.353zm14.84 3.381v-18.545h2.76v2.801h.19q.51-1.376 1.83-2.234 1.335-.857 3-.857.315 0 .78.012.48.012.72.036v2.898c-.1-.024-.32-.061-.67-.109a6.5 6.5 0 0 0-1.07-.084c-.9 0-1.71.189-2.42.567-.7.37-1.25.886-1.66 1.546-.41.652-.61 1.396-.61 2.233V779zm19.62.386c-1.67 0-3.14-.398-4.4-1.195s-2.24-1.912-2.95-3.344q-1.05-2.15-1.05-5.023 0-2.898 1.05-5.059c.71-1.441 1.69-2.56 2.95-3.357 1.26-.796 2.73-1.195 4.4-1.195 1.68 0 3.14.399 4.4 1.195q1.89 1.196 2.94 3.357c.71 1.441 1.07 3.127 1.07 5.059 0 1.916-.36 3.59-1.07 5.023q-1.05 2.148-2.94 3.344c-1.26.797-2.72 1.195-4.4 1.195m0-2.559c1.28 0 2.32-.326 3.14-.978q1.23-.979 1.83-2.572c.39-1.063.59-2.214.59-3.453 0-1.24-.2-2.395-.59-3.465q-.6-1.606-1.83-2.596c-.82-.66-1.86-.99-3.14-.99-1.27 0-2.31.33-3.14.99-.82.66-1.42 1.525-1.82 2.596-.39 1.07-.59 2.225-.59 3.465s.2 2.39.59 3.453c.4 1.062 1 1.92 1.82 2.572.83.652 1.87.978 3.14.978m20.29 2.559q-2.505 0-4.41-1.195-1.875-1.196-2.94-3.344-1.05-2.15-1.05-5.023 0-2.898 1.05-5.059 1.065-2.161 2.94-3.357 1.905-1.194 4.41-1.195c1.67 0 3.14.399 4.4 1.195q1.89 1.196 2.94 3.357c.71 1.441 1.06 3.127 1.06 5.059 0 1.916-.35 3.59-1.06 5.023q-1.05 2.148-2.94 3.344c-1.26.797-2.73 1.195-4.4 1.195m0-2.559c1.27 0 2.32-.326 3.14-.978s1.43-1.51 1.82-2.572c.4-1.063.59-2.214.59-3.453 0-1.24-.19-2.395-.59-3.465-.39-1.071-1-1.936-1.82-2.596s-1.87-.99-3.14-.99-2.32.33-3.14.99-1.43 1.525-1.82 2.596c-.4 1.07-.59 2.225-.59 3.465s.19 2.39.59 3.453c.39 1.062 1 1.92 1.82 2.572s1.87.978 3.14.978m20.82-16.372v2.414H1130v-2.414zm-6.81-4.444h2.85v17.677c0 .804.12 1.408.35 1.811.24.394.55.66.92.796.37.129.77.194 1.19.194.32 0 .57-.016.77-.049.21-.04.37-.072.49-.096l.58 2.559q-.3.109-.81.218-.525.12-1.32.12c-.8 0-1.59-.173-2.36-.519a4.63 4.63 0 0 1-1.91-1.581q-.75-1.063-.75-2.681zm15.35 19.608-.2 1.304q-.195 1.377-.63 2.946a60 60 0 0 1-.85 2.958c-.3.926-.55 1.663-.74 2.21h-2.17c.1-.515.24-1.195.41-2.041s.34-1.791.5-2.837c.18-1.038.33-2.101.44-3.187l.14-1.353zm-269.386 44.816q-1.763 0-3.2-.664-1.437-.677-2.282-1.944-.845-1.28-.845-3.091 0-1.594.628-2.584a4.44 4.44 0 0 1 1.678-1.57q1.05-.567 2.318-.845a28 28 0 0 1 2.572-.459 124 124 0 0 1 2.741-.326q1.062-.12 1.545-.398.495-.278.495-.966v-.097q0-1.786-.978-2.777-.966-.99-2.934-.99-2.04 0-3.199.894-1.16.893-1.63 1.908l-2.705-.966q.724-1.691 1.932-2.632a7.25 7.25 0 0 1 2.656-1.329 11 11 0 0 1 2.85-.386q.892 0 2.052.217a6.6 6.6 0 0 1 2.258.858q1.098.651 1.823 1.968t.725 3.525V820h-2.85v-2.511h-.145q-.29.603-.966 1.292-.675.688-1.799 1.171t-2.74.483m.434-2.56q1.69 0 2.85-.664 1.17-.664 1.762-1.715a4.36 4.36 0 0 0 .604-2.209v-2.608q-.181.218-.797.398-.603.17-1.4.302-.785.121-1.534.218-.736.084-1.195.144-1.111.146-2.077.471-.954.315-1.545.954-.58.628-.58 1.715 0 1.485 1.099 2.245 1.111.749 2.813.749m16.116-9.031V820h-2.85v-18.545h2.753v2.897h.242a5.3 5.3 0 0 1 1.98-2.27q1.327-.869 3.429-.869 1.883 0 3.296.773 1.413.76 2.197 2.318.786 1.545.785 3.912V820h-2.849v-11.591q0-2.186-1.135-3.405-1.135-1.231-3.115-1.231-1.365 0-2.439.591-1.062.592-1.678 1.727t-.616 2.753m24.042 11.542q-2.319 0-4.093-1.171-1.775-1.183-2.777-3.332-1.002-2.161-1.002-5.107 0-2.922 1.002-5.071 1.002-2.15 2.789-3.321t4.129-1.171q1.811 0 2.862.604 1.062.591 1.618 1.352.567.749.881 1.232h.241v-9.128h2.85V820h-2.753v-2.849h-.338q-.314.507-.893 1.279-.58.76-1.655 1.365-1.074.591-2.861.591m.386-2.559q1.715 0 2.898-.894 1.183-.905 1.799-2.499.616-1.606.616-3.707 0-2.076-.604-3.634-.603-1.569-1.787-2.439-1.183-.88-2.922-.881-1.81 0-3.018.929-1.196.918-1.799 2.5-.592 1.569-.592 3.525 0 1.98.604 3.598.615 1.606 1.811 2.56 1.207.942 2.994.942M943.033 820v-18.545h2.753v2.801h.193q.507-1.376 1.835-2.234 1.328-.857 2.994-.857.315 0 .785.012t.712.036v2.898a8 8 0 0 0-.664-.109 6.6 6.6 0 0 0-1.074-.084q-1.353 0-2.415.567-1.05.555-1.666 1.546-.604.978-.604 2.233V820zm12.65 0v-18.545h2.85V820zm1.449-21.636a2.03 2.03 0 0 1-1.437-.568 1.82 1.82 0 0 1-.591-1.364q0-.796.591-1.365a2.03 2.03 0 0 1 1.437-.567q.832 0 1.425.567.603.569.603 1.365 0 .797-.603 1.364-.592.568-1.425.568m14.105 28.977q-2.064 0-3.549-.531-1.486-.519-2.476-1.377-.978-.845-1.557-1.811l2.27-1.594q.386.507.978 1.16.591.663 1.618 1.147 1.038.495 2.716.495 2.246 0 3.707-1.087t1.461-3.405v-3.767h-.242q-.314.507-.893 1.256-.568.736-1.642 1.316-1.062.567-2.874.567-2.245 0-4.032-1.062-1.775-1.063-2.814-3.091-1.026-2.029-1.026-4.926 0-2.85 1.002-4.963 1.002-2.124 2.789-3.284 1.788-1.171 4.13-1.171 1.81 0 2.873.604 1.075.591 1.642 1.352.58.749.894 1.232h.29v-2.946h2.752v19.076q0 2.391-1.086 3.888-1.076 1.51-2.898 2.21-1.811.712-4.033.712m-.096-10.19q1.715 0 2.897-.785 1.184-.785 1.799-2.258.616-1.473.616-3.526 0-2.004-.603-3.537-.605-1.534-1.787-2.403-1.184-.87-2.922-.869-1.812 0-3.019.917-1.195.918-1.799 2.463-.591 1.546-.591 3.429 0 1.932.603 3.417.617 1.473 1.811 2.318 1.207.834 2.995.834m16.179-8.307V820h-2.85v-24.727h2.85v9.079h.241a5.25 5.25 0 0 1 1.956-2.282q1.317-.857 3.502-.857 1.895 0 3.32.761 1.425.748 2.209 2.306.798 1.545.797 3.936V820h-2.849v-11.591q0-2.21-1.147-3.417-1.135-1.22-3.151-1.219-1.4 0-2.512.591a4.3 4.3 0 0 0-1.738 1.727q-.628 1.135-.628 2.753m25.3-7.389v2.414h-9.61v-2.414zm-6.81-4.444h2.85v17.677c0 .804.12 1.408.35 1.811.24.394.55.66.92.796q.57.194 1.2.194c.31 0 .57-.016.77-.049l.48-.096.58 2.559a5.5 5.5 0 0 1-.81.218c-.34.08-.78.12-1.31.12q-1.215 0-2.37-.519a4.76 4.76 0 0 1-1.91-1.581q-.75-1.063-.75-2.681z"/><path fill="#fff" d="M643.961 136.909V166h-3.522v-25.398h-.171l-7.102 4.716v-3.579l7.273-4.83zm17.628-.398q1.79.015 3.58.682 1.79.668 3.267 2.216 1.477 1.535 2.372 4.19.894 2.657.895 6.662 0 3.879-.739 6.89-.725 2.997-2.102 5.056-1.364 2.06-3.324 3.125-1.946 1.066-4.403 1.066-2.444 0-4.361-.966a8.56 8.56 0 0 1-3.125-2.713q-1.207-1.747-1.549-4.049h3.466q.47 2.004 1.861 3.31 1.406 1.293 3.708 1.293 3.366 0 5.312-2.941 1.96-2.94 1.96-8.309h-.227a8.9 8.9 0 0 1-1.889 2.059 8.3 8.3 0 0 1-2.429 1.336 8.5 8.5 0 0 1-2.841.468q-2.5 0-4.588-1.235-2.074-1.25-3.324-3.424-1.236-2.187-1.236-5 0-2.67 1.193-4.886a9.2 9.2 0 0 1 3.381-3.551q2.187-1.321 5.142-1.279m0 3.125q-1.79 0-3.224.895a6.44 6.44 0 0 0-2.259 2.387q-.824 1.491-.824 3.309t.796 3.31a6.35 6.35 0 0 0 2.201 2.358q1.407.867 3.196.866 1.35 0 2.515-.525a6.5 6.5 0 0 0 2.031-1.463 7.1 7.1 0 0 0 1.378-2.117 6.4 6.4 0 0 0 .497-2.486 6.5 6.5 0 0 0-.824-3.196 6.54 6.54 0 0 0-2.244-2.414q-1.42-.924-3.239-.924M764.332 136.909V166h-3.522v-25.398h-.171l-7.102 4.716v-3.579l7.273-4.83zM772.699 166v-2.557l9.602-10.511a67 67 0 0 0 2.784-3.21q1.093-1.379 1.62-2.586a6.3 6.3 0 0 0 .539-2.556q0-1.535-.738-2.657-.724-1.121-1.989-1.733-1.264-.61-2.841-.61-1.676 0-2.926.696a4.8 4.8 0 0 0-1.918 1.917q-.667 1.236-.667 2.898h-3.353q0-2.557 1.179-4.489a8.2 8.2 0 0 1 3.211-3.011q2.045-1.08 4.588-1.08 2.557 0 4.531 1.08 1.975 1.08 3.097 2.912t1.122 4.077q0 1.605-.583 3.139-.567 1.52-1.988 3.395-1.407 1.86-3.907 4.545l-6.534 6.989v.227h13.523V166zM884.118 136.909V166h-3.523v-25.398h-.171l-7.102 4.716v-3.579l7.273-4.83zm17.684 29.489q-2.926 0-5.17-1.037-2.23-1.051-3.48-2.884-1.251-1.846-1.236-4.204-.015-1.847.724-3.409a7.4 7.4 0 0 1 2.017-2.628 6.2 6.2 0 0 1 2.884-1.35v-.17q-2.088-.54-3.324-2.344-1.236-1.818-1.222-4.133-.014-2.217 1.123-3.963 1.136-1.748 3.125-2.756 2.003-1.008 4.559-1.009 2.529 0 4.517 1.009 1.99 1.008 3.125 2.756 1.151 1.746 1.165 3.963-.014 2.315-1.264 4.133-1.236 1.804-3.281 2.344v.17q1.577.285 2.84 1.35a7.65 7.65 0 0 1 2.018 2.628q.752 1.562.767 3.409-.015 2.358-1.279 4.204-1.25 1.833-3.48 2.884-2.216 1.037-5.128 1.037m0-3.125q1.974 0 3.409-.639 1.435-.64 2.216-1.804t.796-2.728q-.015-1.647-.853-2.912-.837-1.263-2.287-1.988-1.434-.725-3.281-.725-1.86 0-3.324.725-1.449.725-2.287 1.988-.824 1.265-.809 2.912-.015 1.563.753 2.728.78 1.164 2.23 1.804 1.448.639 3.437.639m0-13.807q1.563 0 2.77-.625a4.76 4.76 0 0 0 1.918-1.747q.696-1.122.71-2.628-.015-1.478-.696-2.571a4.5 4.5 0 0 0-1.889-1.705q-1.208-.61-2.813-.61-1.634 0-2.855.61-1.221.597-1.889 1.705-.668 1.094-.654 2.571-.013 1.506.668 2.628a4.75 4.75 0 0 0 1.918 1.747q1.221.625 2.812.625M1003.71 136.909V166h-3.53v-25.398h-.17l-7.098 4.716v-3.579l7.268-4.83zm18.19 29.489q-2.805 0-5.01-.966-2.19-.966-3.48-2.685c-.85-1.155-1.32-2.495-1.39-4.02h3.58q.105 1.407.96 2.429c.57.673 1.31 1.193 2.23 1.563q1.38.554 3.06.554c1.25 0 2.35-.218 3.32-.654.97-.435 1.72-1.041 2.27-1.818.55-.776.83-1.676.83-2.699 0-1.07-.27-2.012-.8-2.826-.53-.824-1.31-1.468-2.33-1.932q-1.53-.696-3.75-.696h-2.33v-3.125h2.33c1.16 0 2.17-.209 3.04-.625.88-.417 1.57-1.004 2.06-1.762q.75-1.136.75-2.67c0-.985-.21-1.842-.65-2.571-.43-.729-1.05-1.297-1.85-1.705-.78-.407-1.71-.61-2.78-.61-1 0-1.95.184-2.84.554q-1.32.539-2.16 1.576c-.56.682-.86 1.506-.91 2.472h-3.41q.09-2.287 1.38-4.006c.86-1.155 1.99-2.055 3.38-2.699q2.1-.966 4.62-.966c1.8 0 3.34.365 4.63 1.094q1.935 1.08 2.97 2.855a7.5 7.5 0 0 1 1.03 3.835q0 2.458-1.29 4.191-1.275 1.733-3.48 2.4v.228c1.84.303 3.27 1.084 4.3 2.343 1.04 1.25 1.55 2.799 1.55 4.645q0 2.373-1.29 4.262c-.85 1.25-2.02 2.234-3.49 2.954-1.48.72-3.16 1.08-5.05 1.08"/><rect width="117" height="120" x="164" y="1504" stroke="#0098d4" stroke-width="2" rx="26"/><rect width="118" height="120" x="44" y="1748" stroke="#f0b100" stroke-width="2" rx="26"/><path fill="#fff" d="M94.332 1794.91V1824H90.81v-25.4h-.17l-7.103 4.72v-3.58l7.273-4.83zM102.7 1824v-2.56l9.602-10.51a66 66 0 0 0 2.784-3.21q1.094-1.38 1.62-2.58c.359-.82.539-1.67.539-2.56 0-1.02-.246-1.91-.738-2.66a4.86 4.86 0 0 0-1.989-1.73c-.843-.41-1.79-.61-2.841-.61-1.117 0-2.093.23-2.926.7a4.77 4.77 0 0 0-1.918 1.91c-.445.83-.667 1.79-.667 2.9h-3.353c0-1.7.393-3.2 1.179-4.49a8.2 8.2 0 0 1 3.211-3.01q2.045-1.08 4.588-1.08 2.556 0 4.531 1.08t3.097 2.91 1.122 4.08c0 1.07-.194 2.12-.583 3.14q-.567 1.515-1.988 3.39c-.938 1.24-2.24 2.76-3.907 4.55l-6.534 6.99v.23h13.523v3.12zM212.707 1548.91V1578h-3.522v-25.4h-.171l-7.102 4.72v-3.58l7.273-4.83zm18.196 29.49c-1.875 0-3.546-.32-5.014-.97-1.458-.64-2.618-1.54-3.48-2.68q-1.278-1.74-1.392-4.02h3.58q.113 1.395.965 2.43.853 1.005 2.231 1.56c.918.37 1.936.55 3.054.55 1.25 0 2.358-.22 3.323-.65.966-.44 1.724-1.04 2.273-1.82q.824-1.17.824-2.7 0-1.605-.795-2.82c-.531-.83-1.307-1.47-2.33-1.94q-1.535-.69-3.75-.69h-2.33v-3.13h2.33c1.155 0 2.169-.21 3.04-.62.881-.42 1.567-1.01 2.059-1.76q.753-1.14.753-2.67 0-1.485-.653-2.58a4.54 4.54 0 0 0-1.847-1.7c-.786-.41-1.714-.61-2.784-.61-1.004 0-1.951.18-2.841.55-.88.36-1.6.89-2.159 1.58-.558.68-.862 1.51-.909 2.47h-3.409c.057-1.52.516-2.86 1.378-4q1.293-1.74 3.381-2.7c1.401-.65 2.94-.97 4.616-.97 1.799 0 3.343.37 4.631 1.1 1.288.71 2.277 1.67 2.968 2.85a7.46 7.46 0 0 1 1.037 3.84c0 1.63-.43 3.03-1.292 4.19q-1.279 1.725-3.48 2.4v.22c1.837.31 3.271 1.09 4.304 2.35 1.032 1.25 1.548 2.8 1.548 4.64q0 2.37-1.293 4.26c-.852 1.25-2.017 2.24-3.494 2.96q-2.216 1.08-5.043 1.08"/><path stroke="#fff" stroke-width="2" d="M373 548h570M801 1113h281M232 1113h141M101 1690h119M942 592v-43M1081 1157v-43M652 549v-43M942 1114v-43M373 1114v-43M220 1691v-43M374 592v-43M802 1157v-43M233 1157v-43M102 1734v-43"/></svg>