<svg xmlns="http://www.w3.org/2000/svg" width="961" height="270" fill="none" viewBox="0 0 961 270"><rect width="118" height="120" x="280" y="3" stroke="#096" stroke-width="2" rx="26"/><rect width="117" height="120" x="843" y="3" stroke="#f55" stroke-width="2" rx="26"/><rect width="117" height="120" x="142" y="3" stroke="#0098d4" stroke-width="2" rx="26"/><rect width="118" height="120" x="702" y="1" stroke="#e27c00" stroke-width="2" rx="26"/><rect width="118" height="120" x="1" y="1" stroke="#f0b100" stroke-width="2" rx="26"/><rect width="118" height="120" x="562" y="1" stroke="#8200ed" stroke-width="2" rx="26"/><rect width="118" height="120" x="421" y="3" stroke="#dbdbdb" stroke-width="2" rx="26"/><path fill="#fff" d="M599.976 77v-2.557l9.602-10.511a67 67 0 0 0 2.785-3.21q1.094-1.378 1.619-2.586.54-1.221.54-2.556 0-1.535-.739-2.657-.724-1.122-1.989-1.733-1.263-.61-2.841-.61-1.675 0-2.926.696a4.8 4.8 0 0 0-1.917 1.917q-.668 1.236-.668 2.898h-3.352q0-2.556 1.179-4.489a8.2 8.2 0 0 1 3.21-3.011q2.046-1.08 4.588-1.08 2.557 0 4.531 1.08 1.975 1.08 3.097 2.912t1.122 4.077q0 1.605-.582 3.139-.568 1.52-1.989 3.395-1.406 1.86-3.906 4.545l-6.534 6.989v.227h13.522V77zm25.128 0 13.011-25.739v-.227h-15V47.91h18.637v3.296L628.797 77zM748.497 77.398q-2.812 0-5.014-.966-2.187-.966-3.48-2.685-1.278-1.733-1.392-4.02h3.579q.114 1.406.966 2.43.852 1.007 2.23 1.562t3.054.554q1.875 0 3.324-.654 1.45-.653 2.273-1.818.824-1.164.824-2.699 0-1.605-.796-2.826-.795-1.236-2.329-1.932t-3.75-.696h-2.33v-3.125h2.33q1.732 0 3.04-.625 1.32-.625 2.059-1.762.753-1.135.753-2.67 0-1.477-.653-2.571a4.47 4.47 0 0 0-1.847-1.705q-1.179-.61-2.784-.61a7.3 7.3 0 0 0-2.841.553q-1.321.54-2.159 1.577-.838 1.023-.909 2.472h-3.409q.085-2.287 1.378-4.006 1.292-1.733 3.38-2.699 2.103-.966 4.617-.966 2.699 0 4.63 1.094 1.932 1.08 2.969 2.855a7.47 7.47 0 0 1 1.037 3.835q0 2.458-1.292 4.19-1.28 1.734-3.481 2.401v.228q2.757.455 4.304 2.343 1.55 1.876 1.549 4.645 0 2.372-1.293 4.262-1.278 1.874-3.494 2.954t-5.043 1.08M764.136 77v-2.557l9.603-10.511a67 67 0 0 0 2.784-3.21q1.094-1.378 1.619-2.586.54-1.221.54-2.556 0-1.535-.739-2.657a4.8 4.8 0 0 0-1.988-1.733q-1.264-.61-2.841-.61-1.677 0-2.926.696a4.8 4.8 0 0 0-1.918 1.917q-.668 1.236-.668 2.898h-3.352q0-2.556 1.179-4.489a8.2 8.2 0 0 1 3.21-3.011q2.046-1.08 4.588-1.08 2.557 0 4.532 1.08 1.974 1.08 3.096 2.912t1.122 4.077q0 1.605-.582 3.139-.569 1.52-1.989 3.395-1.406 1.86-3.906 4.545l-6.534 6.989v.227h13.523V77zM51.332 47.91V77H47.81V51.602h-.17l-7.103 4.716v-3.58l7.273-4.829zM59.7 77v-2.557L69.3 63.932a67 67 0 0 0 2.784-3.21q1.095-1.378 1.62-2.586.54-1.221.54-2.556 0-1.535-.74-2.657-.723-1.122-1.988-1.733-1.265-.61-2.84-.61-1.677 0-2.927.696a4.8 4.8 0 0 0-1.918 1.917q-.667 1.236-.667 2.898h-3.352q0-2.556 1.178-4.489a8.2 8.2 0 0 1 3.21-3.011q2.046-1.08 4.589-1.08 2.557 0 4.531 1.08 1.975 1.08 3.097 2.912t1.122 4.077q0 1.605-.583 3.139-.567 1.52-1.988 3.395-1.407 1.86-3.906 4.545l-6.535 6.989v.227h13.523V77zM330.118 47.91V77h-3.523V51.602h-.171l-7.102 4.716v-3.58l7.273-4.829zm17.684 29.488q-2.926 0-5.17-1.037-2.23-1.051-3.48-2.884-1.251-1.846-1.236-4.204-.014-1.847.724-3.41a7.4 7.4 0 0 1 2.017-2.627 6.2 6.2 0 0 1 2.884-1.35v-.17q-2.088-.54-3.324-2.344-1.236-1.818-1.222-4.133-.014-2.217 1.123-3.963 1.136-1.748 3.125-2.756 2.003-1.01 4.559-1.009 2.529 0 4.517 1.009 1.99 1.007 3.125 2.756 1.151 1.746 1.165 3.963-.014 2.315-1.264 4.133-1.236 1.804-3.281 2.344v.17q1.577.285 2.84 1.35 1.265 1.05 2.018 2.628.752 1.562.767 3.409-.015 2.358-1.279 4.204-1.25 1.833-3.48 2.884-2.216 1.037-5.128 1.037m0-3.125q1.974 0 3.409-.64 1.435-.639 2.216-1.803.781-1.165.796-2.728-.015-1.647-.853-2.912-.837-1.264-2.287-1.988-1.434-.725-3.281-.725-1.86 0-3.324.725-1.449.724-2.287 1.988-.824 1.265-.809 2.912-.015 1.563.753 2.727.78 1.165 2.23 1.805 1.448.639 3.437.639m0-13.807q1.563 0 2.77-.625a4.76 4.76 0 0 0 1.918-1.747q.695-1.122.71-2.628-.015-1.477-.696-2.571a4.5 4.5 0 0 0-1.889-1.705q-1.208-.61-2.813-.61-1.634 0-2.855.61-1.221.597-1.889 1.705-.668 1.094-.654 2.57-.013 1.507.668 2.629a4.75 4.75 0 0 0 1.918 1.747q1.221.625 2.812.625M878.572 71.034v-2.898l12.784-20.227h2.102v4.489h-1.42l-9.659 15.284v.227h17.215v3.125zM892.265 77V47.909h3.352V77zm13.562 0 13.011-25.739v-.227h-15V47.91h18.636v3.296L909.52 77zM190.707 47.91V77h-3.522V51.602h-.171l-7.102 4.716v-3.58l7.273-4.829zm18.196 29.488q-2.812 0-5.014-.966-2.187-.966-3.48-2.685-1.278-1.733-1.392-4.02h3.58q.113 1.406.965 2.43.853 1.007 2.231 1.562t3.054.554q1.875 0 3.323-.654 1.45-.653 2.273-1.818.824-1.164.824-2.699 0-1.605-.795-2.826-.796-1.236-2.33-1.932t-3.75-.696h-2.33v-3.125h2.33q1.733 0 3.04-.625 1.321-.625 2.059-1.762.753-1.135.753-2.67 0-1.477-.653-2.571a4.47 4.47 0 0 0-1.847-1.705q-1.179-.61-2.784-.61a7.3 7.3 0 0 0-2.841.553q-1.32.54-2.159 1.577-.838 1.023-.909 2.472h-3.409q.085-2.287 1.378-4.006 1.293-1.733 3.381-2.699 2.102-.966 4.616-.966 2.699 0 4.631 1.094 1.932 1.08 2.968 2.855a7.47 7.47 0 0 1 1.037 3.835q0 2.458-1.292 4.19-1.279 1.734-3.48 2.401v.228q2.755.455 4.304 2.343 1.548 1.876 1.548 4.645 0 2.372-1.293 4.262-1.278 1.874-3.494 2.954t-5.043 1.08M470.961 47.91V77h-3.522V51.602h-.171l-7.102 4.716v-3.58l7.273-4.829zm17.628-.399q1.79.015 3.58.682 1.79.668 3.267 2.216 1.477 1.535 2.372 4.19.894 2.657.895 6.662 0 3.879-.739 6.89-.725 2.997-2.102 5.056-1.363 2.06-3.324 3.125-1.946 1.066-4.403 1.066-2.444 0-4.361-.966a8.56 8.56 0 0 1-3.125-2.713q-1.207-1.747-1.549-4.048h3.466q.47 2.002 1.861 3.31 1.406 1.291 3.708 1.292 3.366 0 5.312-2.94 1.96-2.94 1.96-8.31h-.227a8.9 8.9 0 0 1-1.889 2.06 8.3 8.3 0 0 1-2.429 1.335 8.5 8.5 0 0 1-2.841.468q-2.5 0-4.588-1.235-2.074-1.25-3.324-3.424-1.236-2.187-1.236-5 0-2.67 1.193-4.886a9.23 9.23 0 0 1 3.381-3.551q2.187-1.32 5.142-1.279m0 3.125q-1.79 0-3.224.895a6.44 6.44 0 0 0-2.259 2.387q-.824 1.49-.824 3.31 0 1.817.796 3.309a6.35 6.35 0 0 0 2.201 2.358q1.407.866 3.196.866 1.35 0 2.515-.525a6.5 6.5 0 0 0 2.031-1.463 7.1 7.1 0 0 0 1.378-2.117 6.4 6.4 0 0 0 .497-2.486 6.5 6.5 0 0 0-.824-3.196 6.54 6.54 0 0 0-2.244-2.414q-1.42-.924-3.239-.924"/><path fill="#727272" d="M348.355 262h-3.139l9.08-24.727h3.09l9.08 24.727h-3.139l-7.389-20.815h-.194zm1.159-9.659h12.654v2.656h-12.654zm33.554-4.733-2.56.724a4.8 4.8 0 0 0-.712-1.243q-.46-.617-1.256-1.014-.797-.399-2.041-.399-1.702 0-2.837.785-1.123.772-1.123 1.968 0 1.063.773 1.678.772.616 2.415 1.027l2.752.676q2.488.603 3.707 1.847 1.22 1.231 1.22 3.175a4.7 4.7 0 0 1-.918 2.85q-.906 1.255-2.535 1.98-1.63.724-3.792.724-2.837 0-4.696-1.231-1.86-1.232-2.355-3.598l2.705-.676q.385 1.497 1.461 2.245 1.086.749 2.837.749 1.992 0 3.163-.845 1.184-.858 1.184-2.053 0-.966-.677-1.618-.676-.663-2.076-.99l-3.091-.724q-2.548-.604-3.743-1.872-1.183-1.28-1.183-3.199 0-1.57.881-2.777.894-1.208 2.427-1.896 1.545-.688 3.501-.688 2.753 0 4.323 1.207 1.581 1.208 2.246 3.188m12.161 14.778q-2.608 0-4.492-1.231t-2.897-3.393-1.014-4.938q0-2.826 1.038-4.987 1.05-2.173 2.922-3.392 1.882-1.232 4.395-1.232 1.956 0 3.525.725a6.74 6.74 0 0 1 2.572 2.028q1.002 1.303 1.244 3.043h-2.85q-.325-1.268-1.449-2.246-1.11-.99-2.994-.99-1.666 0-2.922.869-1.243.857-1.944 2.427-.688 1.558-.688 3.658 0 2.15.676 3.743.689 1.594 1.932 2.475 1.255.882 2.946.882 1.11 0 2.016-.387a4.2 4.2 0 0 0 1.534-1.11 4.3 4.3 0 0 0 .893-1.739h2.85a6.6 6.6 0 0 1-1.196 2.958q-.942 1.304-2.499 2.077-1.546.76-3.598.76m19.234 0q-2.68 0-4.625-1.183-1.932-1.196-2.982-3.332-1.038-2.15-1.038-4.999t1.038-5.023q1.05-2.184 2.922-3.404 1.884-1.232 4.395-1.232 1.45 0 2.861.483a7.1 7.1 0 0 1 2.572 1.57q1.16 1.074 1.847 2.849.689 1.774.689 4.371v1.207h-14.296v-2.463h11.398q0-1.57-.628-2.801a4.73 4.73 0 0 0-1.763-1.944q-1.134-.712-2.68-.712-1.702 0-2.946.845a5.56 5.56 0 0 0-1.896 2.173 6.4 6.4 0 0 0-.664 2.874v1.642q0 2.1.725 3.562.736 1.449 2.04 2.209 1.304.749 3.031.749 1.122 0 2.028-.314a4.4 4.4 0 0 0 1.582-.966 4.4 4.4 0 0 0 1.026-1.618l2.753.773a6.1 6.1 0 0 1-1.461 2.463q-1.026 1.05-2.536 1.642-1.51.579-3.392.579m14.863-11.542V262h-2.85v-18.545h2.753v2.897h.241a5.3 5.3 0 0 1 1.981-2.27q1.327-.869 3.429-.869 1.883 0 3.296.773 1.412.76 2.197 2.318.785 1.545.785 3.912V262h-2.849v-11.591q0-2.186-1.135-3.405-1.135-1.231-3.115-1.231-1.365 0-2.439.591-1.063.592-1.679 1.727-.615 1.135-.615 2.753m24.042 11.542q-2.319 0-4.093-1.171-1.775-1.183-2.777-3.332-1.002-2.161-1.003-5.107 0-2.923 1.003-5.071 1.001-2.15 2.789-3.321 1.786-1.171 4.129-1.171 1.81 0 2.861.604 1.063.591 1.618 1.352.568.749.882 1.232h.241v-9.128h2.85V262h-2.753v-2.849h-.338q-.314.507-.894 1.279-.579.76-1.654 1.365-1.074.591-2.861.591m.386-2.559q1.714 0 2.898-.894 1.183-.905 1.799-2.499.615-1.606.615-3.707 0-2.076-.603-3.634-.604-1.569-1.787-2.439-1.183-.88-2.922-.881-1.811 0-3.018.929-1.196.918-1.799 2.5-.592 1.569-.592 3.525 0 1.98.604 3.598.615 1.606 1.811 2.56 1.207.942 2.994.942M467.482 262v-18.545h2.849V262zm1.449-21.636q-.833 0-1.437-.568a1.82 1.82 0 0 1-.592-1.364q0-.797.592-1.365a2.03 2.03 0 0 1 1.437-.567q.832 0 1.425.567.603.568.603 1.365t-.603 1.364q-.592.567-1.425.568m9.469 10.48V262h-2.85v-18.545h2.753v2.897h.242a5.3 5.3 0 0 1 1.98-2.27q1.328-.869 3.429-.869 1.883 0 3.296.773 1.413.76 2.197 2.318.786 1.545.785 3.912V262h-2.849v-11.591q0-2.186-1.135-3.405-1.135-1.231-3.115-1.231-1.365 0-2.439.591-1.063.592-1.678 1.727-.616 1.135-.616 2.753m24.525 18.497q-2.065 0-3.55-.531-1.485-.519-2.475-1.377-.978-.845-1.558-1.811l2.27-1.594q.387.507.978 1.16.592.663 1.618 1.147 1.038.495 2.717.495 2.246 0 3.706-1.087 1.461-1.087 1.461-3.405v-3.767h-.241q-.314.507-.894 1.256-.567.736-1.642 1.316-1.062.567-2.873.567-2.246 0-4.033-1.062-1.775-1.063-2.813-3.091-1.026-2.029-1.026-4.926 0-2.85 1.002-4.963 1.002-2.124 2.789-3.284 1.787-1.171 4.129-1.171 1.811 0 2.874.604 1.074.591 1.642 1.352.58.749.893 1.232h.29v-2.946h2.753v19.076q0 2.391-1.087 3.888-1.074 1.51-2.898 2.21-1.81.712-4.032.712m-.097-10.19q1.714 0 2.898-.785 1.183-.785 1.799-2.258t.616-3.526q0-2.004-.604-3.537-.603-1.534-1.787-2.403-1.183-.87-2.922-.869-1.81 0-3.018.917-1.196.918-1.799 2.463-.592 1.547-.592 3.429 0 1.932.604 3.417.615 1.473 1.811 2.318 1.207.834 2.994.834m44.142-9.515q0 3.912-1.412 6.762-1.413 2.849-3.876 4.395t-5.627 1.545q-3.163 0-5.626-1.545-2.463-1.546-3.876-4.395-1.412-2.85-1.412-6.762t1.412-6.761q1.413-2.85 3.876-4.395t5.626-1.545 5.627 1.545q2.463 1.545 3.876 4.395t1.412 6.761m-2.897 0q0-3.212-1.075-5.421-1.062-2.21-2.886-3.344-1.81-1.135-4.057-1.135-2.245 0-4.068 1.135-1.812 1.134-2.886 3.344-1.062 2.21-1.063 5.421t1.063 5.422q1.074 2.209 2.886 3.344 1.823 1.135 4.068 1.135 2.247 0 4.057-1.135 1.824-1.135 2.886-3.344 1.075-2.21 1.075-5.422M551.619 262v-18.545h2.753v2.801h.193q.507-1.376 1.835-2.234 1.327-.857 2.994-.857.315 0 .785.012t.712.036v2.898a8 8 0 0 0-.664-.109 6.6 6.6 0 0 0-1.074-.084q-1.353 0-2.415.567-1.05.555-1.666 1.546-.604.978-.604 2.233V262zm19.088.386q-2.317 0-4.093-1.171-1.774-1.183-2.777-3.332-1.002-2.161-1.002-5.107 0-2.923 1.002-5.071 1.003-2.15 2.79-3.321 1.786-1.171 4.129-1.171 1.81 0 2.861.604 1.063.591 1.618 1.352.567.749.882 1.232h.241v-9.128h2.849V262h-2.752v-2.849h-.338q-.315.507-.894 1.279-.58.76-1.654 1.365-1.074.591-2.862.591m.387-2.559q1.715 0 2.898-.894 1.182-.905 1.799-2.499.615-1.606.615-3.707 0-2.076-.603-3.634-.604-1.569-1.787-2.439-1.183-.88-2.922-.881-1.812 0-3.019.929-1.195.918-1.799 2.5-.591 1.569-.591 3.525 0 1.98.603 3.598.616 1.606 1.812 2.56 1.207.942 2.994.942m21.503 2.559q-2.68 0-4.624-1.183-1.932-1.196-2.982-3.332-1.038-2.15-1.038-4.999t1.038-5.023q1.05-2.184 2.922-3.404 1.882-1.232 4.395-1.232 1.449 0 2.861.483a7.1 7.1 0 0 1 2.572 1.57q1.159 1.074 1.847 2.849.688 1.774.688 4.371v1.207h-14.295v-2.463h11.398q0-1.57-.628-2.801a4.73 4.73 0 0 0-1.763-1.944q-1.135-.712-2.68-.712-1.702 0-2.946.845a5.56 5.56 0 0 0-1.896 2.173 6.4 6.4 0 0 0-.664 2.874v1.642q0 2.1.724 3.562.737 1.449 2.041 2.209 1.303.749 3.03.749 1.123 0 2.029-.314a4.35 4.35 0 0 0 1.581-.966 4.4 4.4 0 0 0 1.027-1.618l2.753.773a6.1 6.1 0 0 1-1.461 2.463q-1.027 1.05-2.536 1.642-1.509.579-3.393.579m12.014-.386v-18.545h2.753v2.801h.193q.507-1.376 1.835-2.234 1.329-.857 2.994-.857.315 0 .785.012t.713.036v2.898a8 8 0 0 0-.664-.109 6.6 6.6 0 0 0-1.075-.084q-1.352 0-2.415.567-1.05.555-1.666 1.546-.604.978-.604 2.233V262zM902.414 210.414a2 2 0 0 0 0-2.828l-12.728-12.728a2 2 0 1 0-2.828 2.828L898.172 209l-11.314 11.314a2 2 0 1 0 2.828 2.828zM60 209v2h841v-4H60z"/></svg>