<svg xmlns="http://www.w3.org/2000/svg" width="1081" height="325" fill="none" viewBox="0 0 1081 325"><path fill="#002647" d="M241 96h119v120H241z"/><rect width="1079" height="120" x="1" y="96" stroke="#dbdbdb" stroke-width="2" rx="26"/><path stroke="#dbdbdb" stroke-width="2" d="M121 95v122M241 95v122M361 95v122M482 95v122M602 95v122M722 95v122M842 95v122M962 95v122"/><path fill="#fff" d="M51.61 140.909V170h-3.523v-25.398h-.17l-7.103 4.716v-3.579l7.273-4.83zm7.684 23.125v-2.898l12.785-20.227h2.102v4.489h-1.42l-9.66 15.284v.227h17.216v3.125zM72.988 170v-29.091h3.352V170z"/><path fill="#717171" d="M3.259 271v-26.909h16.135v2.891H6.516v9.092h11.668v2.89H6.517V271zm21.295 0v-20.182h3.1V271zm1.577-23.545a2.2 2.2 0 0 1-1.564-.618 1.99 1.99 0 0 1-.644-1.485q0-.867.644-1.484.657-.618 1.564-.618.906 0 1.55.618.657.617.657 1.484t-.657 1.485q-.645.618-1.55.618M33.334 271v-20.182h2.996v3.048h.21q.552-1.497 1.997-2.43t3.259-.933q.342 0 .854.013.513.013.775.039v3.154a9 9 0 0 0-.723-.118 7 7 0 0 0-1.169-.092q-1.471 0-2.628.617a4.66 4.66 0 0 0-1.813 1.682q-.657 1.064-.657 2.431V271zm28.062-15.662-2.785.788a5.2 5.2 0 0 0-.775-1.353q-.5-.67-1.367-1.104-.867-.433-2.22-.433-1.854 0-3.088.854-1.222.84-1.222 2.142 0 1.155.84 1.826.841.67 2.629 1.117l2.995.736q2.708.656 4.034 2.01 1.327 1.34 1.327 3.455 0 1.735-.998 3.101-.985 1.367-2.76 2.155-1.773.788-4.125.788-3.088 0-5.112-1.34t-2.562-3.915l2.944-.736q.42 1.63 1.59 2.444 1.182.815 3.087.815 2.168 0 3.442-.92 1.288-.933 1.288-2.234 0-1.052-.736-1.761-.736-.721-2.26-1.077l-3.363-.788q-2.773-.657-4.073-2.037-1.288-1.392-1.288-3.482 0-1.708.96-3.022.971-1.313 2.64-2.063 1.682-.749 3.81-.749 2.997 0 4.704 1.314 1.722 1.314 2.444 3.469m13.813-4.52v2.628H64.75v-2.628zm-7.41-4.835h3.1v19.236q0 1.314.381 1.971.395.643.999.867.618.21 1.3.21.513 0 .842-.053l.525-.105.63 2.786q-.315.119-.88.236-.564.132-1.432.132a6.25 6.25 0 0 1-2.575-.565 5.1 5.1 0 0 1-2.076-1.721q-.815-1.157-.815-2.917zM3.258 316v-26.909h9.092q3.153 0 5.177 1.077 2.023 1.065 2.995 2.93.973 1.866.973 4.244 0 2.379-.973 4.218-.972 1.84-2.982 2.891-2.01 1.038-5.138 1.038H5.045v-2.944h7.253q2.155 0 3.469-.63 1.327-.631 1.918-1.787.605-1.17.605-2.786t-.605-2.825-1.931-1.865q-1.327-.67-3.508-.67H6.517V316zm12.666-12.088L22.547 316h-3.784l-6.517-12.088zM34.75 316.42q-2.917 0-5.032-1.287-2.103-1.3-3.246-3.627-1.13-2.339-1.13-5.439t1.13-5.466q1.143-2.379 3.18-3.705 2.049-1.341 4.783-1.341 1.576 0 3.114.526 1.536.526 2.798 1.708 1.261 1.17 2.01 3.101.75 1.932.75 4.756v1.314H27.55v-2.68h12.403q0-1.708-.683-3.048a5.15 5.15 0 0 0-1.919-2.116q-1.235-.775-2.916-.775-1.853 0-3.206.92a6.04 6.04 0 0 0-2.063 2.365 6.95 6.95 0 0 0-.723 3.127v1.787q0 2.286.788 3.876.802 1.576 2.221 2.404 1.419.815 3.298.815 1.222 0 2.207-.342a4.7 4.7 0 0 0 1.721-1.051q.723-.71 1.117-1.76l2.996.84a6.64 6.64 0 0 1-1.59 2.681q-1.116 1.143-2.759 1.787-1.643.63-3.692.63m26.843 7.148v-10.669h-.263a20 20 0 0 1-.972 1.393q-.63.828-1.8 1.485-1.17.643-3.114.643-2.523 0-4.454-1.274-1.932-1.287-3.022-3.626-1.09-2.352-1.09-5.558 0-3.18 1.09-5.519t3.035-3.613 4.494-1.275q1.971 0 3.114.657 1.155.644 1.76 1.472.618.815.96 1.34h.367v-3.206h2.996v27.75zm-5.728-9.933q1.865 0 3.153-.972 1.287-.986 1.958-2.72.67-1.748.67-4.034 0-2.26-.657-3.955-.657-1.708-1.945-2.654-1.287-.959-3.18-.959-1.97 0-3.284 1.012-1.3.998-1.958 2.719-.645 1.709-.644 3.837 0 2.155.657 3.916.67 1.747 1.971 2.785 1.314 1.025 3.259 1.025m27.224-5.886v-11.931h3.1V316h-3.1v-3.416h-.21q-.71 1.537-2.208 2.615-1.498 1.064-3.784 1.064-1.891 0-3.363-.828-1.472-.841-2.313-2.523-.84-1.695-.84-4.27v-12.824h3.1v12.614q0 2.207 1.235 3.521 1.248 1.314 3.18 1.314 1.156 0 2.352-.591 1.209-.591 2.023-1.813.828-1.223.828-3.114m17.242 8.671q-2.917 0-5.032-1.287-2.103-1.3-3.246-3.627-1.13-2.339-1.13-5.439t1.13-5.466q1.143-2.379 3.18-3.705 2.049-1.341 4.783-1.341 1.576 0 3.114.526 1.536.526 2.798 1.708 1.261 1.17 2.011 3.101.749 1.932.749 4.756v1.314H93.131v-2.68h12.403q0-1.708-.683-3.048a5.15 5.15 0 0 0-1.918-2.116q-1.236-.775-2.917-.775-1.853 0-3.206.92a6.04 6.04 0 0 0-2.063 2.365 6.94 6.94 0 0 0-.723 3.127v1.787q0 2.286.788 3.876.802 1.576 2.221 2.404 1.419.815 3.298.815 1.222 0 2.207-.342a4.7 4.7 0 0 0 1.722-1.051 4.8 4.8 0 0 0 1.116-1.76l2.996.84a6.6 6.6 0 0 1-1.59 2.681q-1.116 1.143-2.759 1.787-1.643.63-3.692.63m27.369-16.082-2.786.788a5.2 5.2 0 0 0-.775-1.353q-.5-.67-1.366-1.104-.868-.433-2.221-.433-1.852 0-3.088.854-1.221.84-1.221 2.142 0 1.155.84 1.826.841.67 2.628 1.117l2.996.736q2.706.656 4.034 2.01 1.327 1.34 1.327 3.455 0 1.735-.999 3.101-.985 1.367-2.759 2.155t-4.126.788q-3.087 0-5.111-1.34t-2.562-3.915l2.943-.736q.42 1.63 1.59 2.444 1.183.815 3.088.815 2.168 0 3.442-.92 1.288-.933 1.288-2.234 0-1.052-.736-1.761-.736-.721-2.26-1.077l-3.364-.788q-2.772-.657-4.073-2.037-1.287-1.392-1.287-3.482 0-1.708.959-3.022.972-1.313 2.641-2.063 1.681-.749 3.81-.749 2.996 0 4.704 1.314 1.721 1.315 2.444 3.469m13.813-4.52v2.628h-10.459v-2.628zm-7.411-4.835h3.101v19.236q0 1.314.381 1.971.395.643.998.867.618.21 1.301.21.513 0 .841-.053l.526-.105.63 2.786q-.315.119-.88.236-.565.132-1.432.132a6.25 6.25 0 0 1-2.575-.565 5.1 5.1 0 0 1-2.076-1.721q-.815-1.157-.815-2.917zM256.382 271v-26.909h3.259v11.983h14.348v-11.983h3.258V271h-3.258v-12.036h-14.348V271zm35.43.42q-2.917 0-5.032-1.287-2.103-1.3-3.246-3.627-1.13-2.339-1.13-5.439t1.13-5.466q1.143-2.379 3.18-3.705 2.05-1.341 4.783-1.341 1.576 0 3.114.526 1.536.525 2.798 1.708 1.261 1.17 2.011 3.101.748 1.932.748 4.756v1.314h-15.556v-2.68h12.403q0-1.708-.683-3.048a5.15 5.15 0 0 0-1.919-2.116q-1.235-.775-2.916-.775-1.853 0-3.206.92a6.04 6.04 0 0 0-2.063 2.365 6.94 6.94 0 0 0-.723 3.127v1.787q0 2.286.788 3.876.802 1.576 2.221 2.404 1.419.815 3.298.815 1.222 0 2.207-.342a4.7 4.7 0 0 0 1.722-1.051 4.8 4.8 0 0 0 1.116-1.76l2.996.84a6.6 6.6 0 0 1-1.59 2.681q-1.116 1.143-2.759 1.787-1.643.63-3.692.63m19.012.053q-1.918 0-3.482-.723-1.563-.735-2.483-2.115-.92-1.393-.92-3.364 0-1.734.684-2.811a4.8 4.8 0 0 1 1.826-1.709 9.6 9.6 0 0 1 2.523-.919 31 31 0 0 1 2.798-.5 125 125 0 0 1 2.983-.354q1.156-.132 1.682-.434.538-.302.538-1.051v-.105q0-1.945-1.064-3.022-1.051-1.078-3.193-1.078-2.22 0-3.481.973-1.262.972-1.774 2.076l-2.943-1.051q.788-1.84 2.102-2.865a7.9 7.9 0 0 1 2.89-1.445 12 12 0 0 1 3.101-.421q.972 0 2.234.237 1.275.224 2.457.933 1.195.71 1.984 2.141.788 1.433.788 3.837V271h-3.101v-2.733h-.157q-.315.657-1.051 1.406t-1.958 1.274q-1.222.526-2.983.526m.473-2.785q1.84 0 3.101-.723 1.274-.723 1.919-1.866a4.75 4.75 0 0 0 .656-2.404v-2.838q-.196.236-.867.433-.657.184-1.524.329-.853.13-1.669.236-.8.092-1.3.158-1.209.158-2.26.512-1.038.342-1.682 1.038-.631.684-.631 1.866 0 1.616 1.196 2.444 1.209.815 3.061.815m22.058 2.732q-2.523 0-4.454-1.274-1.932-1.287-3.022-3.626-1.09-2.352-1.091-5.558 0-3.18 1.091-5.519t3.035-3.613 4.493-1.275q1.971 0 3.114.657 1.156.644 1.761 1.472.618.815.959 1.34h.263v-9.933h3.101V271h-2.996v-3.101h-.368q-.342.552-.972 1.393-.632.828-1.8 1.485-1.17.643-3.114.643m.42-2.785q1.866 0 3.154-.972 1.288-.986 1.957-2.72.67-1.748.671-4.034 0-2.26-.657-3.955-.658-1.708-1.945-2.654-1.287-.959-3.18-.959-1.971 0-3.285 1.012-1.3.998-1.957 2.719-.644 1.709-.644 3.837 0 2.155.657 3.916.67 1.747 1.971 2.785 1.314 1.025 3.258 1.025M233.058 316v-26.909h9.093q3.166 0 5.177 1.143 2.023 1.13 2.995 3.061t.973 4.31-.973 4.323q-.959 1.944-2.969 3.101-2.01 1.143-5.151 1.143h-6.517v-2.891h6.412q2.168 0 3.482-.749 1.314-.748 1.905-2.023.605-1.288.605-2.904t-.605-2.891q-.59-1.274-1.918-1.997-1.328-.735-3.521-.735h-5.729V316zm31.048.42q-2.732 0-4.796-1.3-2.05-1.302-3.206-3.64-1.143-2.339-1.143-5.466 0-3.153 1.143-5.505 1.157-2.352 3.206-3.653 2.064-1.3 4.796-1.301t4.783 1.301q2.063 1.3 3.206 3.653 1.156 2.352 1.156 5.505 0 3.127-1.156 5.466-1.143 2.338-3.206 3.64-2.05 1.3-4.783 1.3m0-2.785q2.076 0 3.416-1.064t1.984-2.799q.644-1.734.644-3.758t-.644-3.771q-.643-1.747-1.984-2.825-1.34-1.077-3.416-1.077t-3.416 1.077-1.984 2.825-.644 3.771.644 3.758 1.984 2.799 3.416 1.064m28.174-13.297-2.786.788a5.2 5.2 0 0 0-.775-1.353q-.5-.67-1.366-1.104-.867-.433-2.221-.433-1.853 0-3.087.854-1.222.84-1.222 2.142 0 1.155.841 1.826.84.67 2.627 1.117l2.996.736q2.707.656 4.034 2.01 1.327 1.34 1.327 3.455 0 1.735-.999 3.101-.985 1.367-2.759 2.155t-4.126.788q-3.087 0-5.111-1.34t-2.562-3.915l2.943-.736q.421 1.63 1.59 2.444 1.183.815 3.088.815 2.168 0 3.442-.92 1.288-.933 1.288-2.234 0-1.052-.736-1.761-.736-.721-2.26-1.077l-3.363-.788q-2.773-.657-4.074-2.037-1.287-1.392-1.287-3.482 0-1.708.959-3.022.972-1.313 2.641-2.063 1.682-.749 3.81-.749 2.996 0 4.704 1.314 1.721 1.315 2.444 3.469M297.316 316v-20.182h3.1V316zm1.576-23.545a2.2 2.2 0 0 1-1.563-.618 1.99 1.99 0 0 1-.644-1.485q0-.867.644-1.484a2.2 2.2 0 0 1 1.563-.618q.907 0 1.551.618.657.617.657 1.484t-.657 1.485a2.16 2.16 0 0 1-1.551.618m15.981 3.363v2.628h-10.459v-2.628zm-7.411-4.835h3.101v19.236q0 1.314.381 1.971.394.643.999.867.618.21 1.301.21.512 0 .841-.053l.525-.105.631 2.786q-.315.119-.881.236-.564.132-1.432.132a6.25 6.25 0 0 1-2.575-.565 5.1 5.1 0 0 1-2.076-1.721q-.815-1.157-.815-2.917zM319.537 316v-20.182h3.101V316zm1.577-23.545a2.2 2.2 0 0 1-1.564-.618 1.99 1.99 0 0 1-.643-1.485q0-.867.643-1.484.657-.618 1.564-.618.906 0 1.55.618.657.617.657 1.484t-.657 1.485a2.16 2.16 0 0 1-1.55.618m15.402 23.965q-2.733 0-4.795-1.3-2.05-1.302-3.206-3.64-1.143-2.339-1.143-5.466 0-3.153 1.143-5.505 1.155-2.352 3.206-3.653 2.062-1.3 4.795-1.301t4.783 1.301q2.063 1.3 3.206 3.653 1.156 2.352 1.156 5.505 0 3.127-1.156 5.466-1.143 2.338-3.206 3.64-2.05 1.3-4.783 1.3m0-2.785q2.076 0 3.417-1.064t1.984-2.799q.643-1.734.643-3.758t-.643-3.771q-.645-1.747-1.984-2.825-1.341-1.077-3.417-1.077t-3.416 1.077-1.984 2.825-.644 3.771.644 3.758 1.984 2.799 3.416 1.064m16.98-9.776V316h-3.101v-20.182h2.995v3.154h.263a5.77 5.77 0 0 1 2.155-2.471q1.445-.946 3.732-.946 2.05 0 3.587.841 1.537.828 2.391 2.523.854 1.682.854 4.257V316h-3.101v-12.614q0-2.377-1.235-3.705-1.234-1.34-3.39-1.34-1.484 0-2.654.644-1.157.643-1.826 1.879-.67 1.235-.67 2.995M1009.82 271v-26.909h3.26v24.018h12.51V271zm26.34.473c-1.28 0-2.44-.241-3.49-.723-1.04-.49-1.87-1.195-2.48-2.115-.61-.929-.92-2.05-.92-3.364 0-1.156.23-2.093.68-2.811a4.9 4.9 0 0 1 1.83-1.709q1.14-.617 2.52-.919c.93-.211 1.86-.377 2.8-.5 1.23-.157 2.22-.276 2.98-.354.78-.088 1.34-.232 1.69-.434q.54-.302.54-1.051v-.105c0-1.297-.36-2.304-1.07-3.022-.7-.719-1.76-1.078-3.19-1.078q-2.22 0-3.48.973c-.84.648-1.44 1.34-1.78 2.076l-2.94-1.051c.52-1.227 1.23-2.182 2.1-2.865a7.9 7.9 0 0 1 2.89-1.445c1.05-.28 2.09-.421 3.1-.421.65 0 1.4.079 2.24.237.85.149 1.67.46 2.45.933.8.473 1.46 1.187 1.99 2.141.52.955.79 2.234.79 3.837V271h-3.1v-2.733h-.16q-.315.657-1.05 1.406c-.49.499-1.15.924-1.96 1.274-.82.351-1.81.526-2.98.526m.47-2.785c1.23 0 2.26-.241 3.1-.723q1.275-.723 1.92-1.866.66-1.143.66-2.404v-2.838q-.21.236-.87.433-.66.184-1.53.329c-.57.087-1.12.166-1.66.236-.54.061-.97.114-1.31.158-.8.105-1.55.276-2.26.512q-1.035.342-1.68 1.038-.63.684-.63 1.866 0 1.616 1.2 2.444 1.2.815 3.06.815m28.73-13.35-2.78.788a5.4 5.4 0 0 0-.78-1.353c-.33-.447-.79-.815-1.37-1.104q-.855-.433-2.22-.433c-1.23 0-2.26.284-3.08.854q-1.23.84-1.23 2.142 0 1.155.84 1.826c.57.447 1.44.819 2.63 1.117l3 .736c1.8.437 3.15 1.108 4.03 2.01.89.893 1.33 2.045 1.33 3.455 0 1.157-.33 2.19-1 3.101q-.99 1.367-2.76 2.155c-1.18.526-2.56.788-4.12.788-2.06 0-3.77-.446-5.12-1.34-1.34-.893-2.2-2.198-2.56-3.915l2.95-.736q.42 1.63 1.59 2.444c.78.543 1.81.815 3.08.815q2.175 0 3.45-.92c.85-.622 1.28-1.367 1.28-2.234 0-.701-.24-1.288-.73-1.761-.49-.481-1.25-.84-2.26-1.077l-3.37-.788c-1.84-.438-3.2-1.117-4.07-2.037q-1.29-1.392-1.29-3.482 0-1.708.96-3.022.975-1.313 2.64-2.063 1.68-.749 3.81-.749 3 0 4.71 1.314c1.14.876 1.96 2.033 2.44 3.469m13.81-4.52v2.628h-10.46v-2.628zm-7.41-4.835h3.1v19.236q0 1.314.39 1.971.39.643.99.867c.42.14.85.21 1.3.21.35 0 .63-.017.85-.053l.52-.105.63 2.786c-.21.079-.5.158-.88.236-.38.088-.85.132-1.43.132q-1.32 0-2.58-.565a5.1 5.1 0 0 1-2.07-1.721c-.55-.771-.82-1.744-.82-2.917zM940.92 316v-26.909h9.092q3.153 0 5.177 1.077 2.023 1.065 2.996 2.93t.972 4.244-.972 4.218q-.973 1.84-2.983 2.891-2.01 1.038-5.137 1.038h-7.358v-2.944h7.252q2.155 0 3.469-.63 1.327-.631 1.919-1.787.604-1.17.604-2.786t-.604-2.825-1.932-1.865q-1.327-.67-3.508-.67h-5.729V316zm12.666-12.088L960.208 316h-3.784l-6.517-12.088zm18.825 12.508q-2.917 0-5.032-1.287-2.103-1.3-3.246-3.627-1.13-2.339-1.13-5.439t1.13-5.466q1.143-2.379 3.18-3.705 2.05-1.341 4.783-1.341 1.577 0 3.114.526t2.798 1.708q1.261 1.17 2.011 3.101.749 1.932.749 4.756v1.314h-15.557v-2.68h12.403q0-1.708-.683-3.048a5.15 5.15 0 0 0-1.918-2.116q-1.236-.775-2.917-.775-1.853 0-3.206.92a6.04 6.04 0 0 0-2.063 2.365 6.94 6.94 0 0 0-.723 3.127v1.787q0 2.286.789 3.876.801 1.576 2.22 2.404 1.419.815 3.298.815 1.222 0 2.207-.342a4.7 4.7 0 0 0 1.722-1.051 4.8 4.8 0 0 0 1.116-1.76l2.996.84a6.6 6.6 0 0 1-1.59 2.681q-1.116 1.143-2.759 1.787-1.642.63-3.692.63m26.843 7.148v-10.669h-.262q-.342.552-.973 1.393-.63.828-1.8 1.485-1.168.643-3.114.643-2.523 0-4.454-1.274-1.932-1.287-3.022-3.626-1.09-2.352-1.09-5.558 0-3.18 1.09-5.519t3.035-3.613q1.946-1.275 4.494-1.275 1.971 0 3.114.657 1.157.644 1.76 1.472.618.815.96 1.34h.368v-3.206h3v27.75zm-5.728-9.933q1.866 0 3.153-.972 1.288-.986 1.958-2.72.67-1.748.67-4.034 0-2.26-.657-3.955-.657-1.708-1.945-2.654-1.287-.959-3.179-.959-1.971 0-3.285 1.012-1.3.998-1.958 2.719-.644 1.709-.644 3.837 0 2.155.657 3.916.67 1.747 1.971 2.785 1.314 1.025 3.259 1.025m27.224-5.886v-11.931h3.1V316h-3.1v-3.416h-.21c-.47 1.025-1.21 1.896-2.21 2.615q-1.5 1.064-3.78 1.064c-1.26 0-2.38-.276-3.37-.828q-1.47-.841-2.31-2.523-.84-1.695-.84-4.27v-12.824h3.1v12.614c0 1.471.41 2.645 1.24 3.521q1.245 1.314 3.18 1.314c.77 0 1.55-.197 2.35-.591s1.48-.999 2.02-1.813c.55-.815.83-1.853.83-3.114m17.24 8.671c-1.94 0-3.62-.429-5.03-1.287-1.4-.867-2.48-2.076-3.25-3.627-.75-1.559-1.13-3.372-1.13-5.439s.38-3.889 1.13-5.466q1.155-2.379 3.18-3.705c1.37-.894 2.96-1.341 4.79-1.341 1.05 0 2.09.176 3.11.526 1.03.35 1.96.92 2.8 1.708q1.26 1.17 2.01 3.101t.75 4.756v1.314h-15.56v-2.68h12.41q0-1.708-.69-3.048a5.06 5.06 0 0 0-1.92-2.116q-1.23-.775-2.91-.775-1.86 0-3.21.92a6.05 6.05 0 0 0-2.06 2.365 7 7 0 0 0-.72 3.127v1.787q0 2.286.78 3.876.81 1.576 2.22 2.404 1.425.815 3.3.815c.82 0 1.55-.114 2.21-.342a4.7 4.7 0 0 0 1.72-1.051c.48-.473.85-1.06 1.12-1.76l2.99.84a6.5 6.5 0 0 1-1.59 2.681q-1.11 1.143-2.76 1.787-1.635.63-3.69.63m27.37-16.082-2.78.788a5.4 5.4 0 0 0-.78-1.353c-.33-.447-.79-.815-1.37-1.104q-.855-.433-2.22-.433c-1.23 0-2.26.284-3.08.854q-1.23.84-1.23 2.142 0 1.155.84 1.826c.57.447 1.44.819 2.63 1.117l3 .736c1.8.437 3.15 1.108 4.03 2.01.89.893 1.33 2.045 1.33 3.455 0 1.157-.33 2.19-1 3.101q-.99 1.367-2.76 2.155c-1.18.526-2.56.788-4.12.788-2.06 0-3.77-.446-5.12-1.34-1.34-.893-2.2-2.198-2.56-3.915l2.95-.736q.42 1.63 1.59 2.444c.78.543 1.81.815 3.08.815q2.175 0 3.45-.92c.85-.622 1.28-1.367 1.28-2.234 0-.701-.24-1.288-.73-1.761-.49-.481-1.25-.84-2.26-1.077l-3.37-.788c-1.84-.438-3.2-1.117-4.07-2.037q-1.29-1.392-1.29-3.482 0-1.708.96-3.022.975-1.313 2.64-2.063 1.68-.749 3.81-.749 3 0 4.71 1.314c1.14.876 1.96 2.033 2.44 3.469m13.81-4.52v2.628h-10.46v-2.628zm-7.41-4.835h3.1v19.236q0 1.314.39 1.971.39.643.99.867c.42.14.85.21 1.3.21.35 0 .63-.017.85-.053l.52-.105.63 2.786c-.21.079-.5.158-.88.236-.38.088-.85.132-1.43.132q-1.32 0-2.58-.565a5.1 5.1 0 0 1-2.07-1.721c-.55-.771-.82-1.744-.82-2.917z"/><path fill="#fff" d="M168.181 170.398q-2.813 0-5.014-.966-2.188-.966-3.481-2.685-1.278-1.733-1.392-4.02h3.58q.114 1.407.966 2.429.852 1.009 2.23 1.563t3.054.554q1.875 0 3.324-.654 1.449-.653 2.273-1.818.823-1.164.823-2.699 0-1.605-.795-2.826-.795-1.236-2.33-1.932-1.533-.696-3.75-.696h-2.329v-3.125h2.329q1.734 0 3.04-.625 1.321-.625 2.06-1.762.753-1.136.753-2.67 0-1.478-.654-2.571-.653-1.093-1.846-1.705-1.179-.61-2.784-.61a7.3 7.3 0 0 0-2.841.554q-1.322.539-2.159 1.576-.838 1.023-.91 2.472h-3.409q.085-2.287 1.378-4.006 1.293-1.733 3.381-2.699 2.102-.966 4.616-.966 2.7 0 4.631 1.094 1.932 1.08 2.969 2.855a7.5 7.5 0 0 1 1.037 3.835q0 2.458-1.293 4.191-1.278 1.733-3.48 2.4v.228q2.756.454 4.304 2.343 1.548 1.876 1.548 4.645 0 2.373-1.292 4.262-1.279 1.874-3.495 2.954t-5.042 1.08m16.548-.398 13.011-25.739v-.227h-15v-3.125h18.637v3.296L188.422 170zM286.7 170.398q-2.5 0-4.503-.995-2.002-.994-3.21-2.727-1.207-1.732-1.321-3.949h3.409q.199 1.976 1.79 3.267 1.605 1.28 3.835 1.279 1.79 0 3.182-.838a5.9 5.9 0 0 0 2.201-2.301q.81-1.478.81-3.339 0-1.903-.838-3.394a6.15 6.15 0 0 0-2.273-2.373q-1.449-.866-3.309-.88a9.1 9.1 0 0 0-2.742.412q-1.406.411-2.315 1.065l-3.296-.398 1.762-14.318h15.113v3.125h-12.159l-1.022 8.58h.17q.896-.711 2.244-1.179a8.5 8.5 0 0 1 2.813-.469q2.67 0 4.758 1.278a8.93 8.93 0 0 1 3.296 3.466q1.207 2.202 1.207 5.029 0 2.784-1.25 4.971a9.14 9.14 0 0 1-3.409 3.438q-2.173 1.25-4.943 1.25m25.075 0q-2.813 0-5.015-.966-2.187-.966-3.48-2.685-1.278-1.733-1.392-4.02h3.58q.113 1.407.966 2.429.852 1.009 2.23 1.563 1.377.554 3.054.554 1.875 0 3.324-.654 1.448-.653 2.272-1.818.825-1.164.824-2.699 0-1.605-.795-2.826-.796-1.236-2.33-1.932t-3.75-.696h-2.329v-3.125h2.329q1.733 0 3.04-.625 1.321-.625 2.06-1.762.752-1.136.752-2.67 0-1.478-.653-2.571-.654-1.093-1.847-1.705-1.179-.61-2.784-.61-1.505 0-2.841.554-1.32.539-2.159 1.576-.837 1.023-.909 2.472h-3.409q.085-2.287 1.378-4.006 1.293-1.733 3.381-2.699 2.102-.966 4.616-.966 2.699 0 4.631 1.094 1.931 1.08 2.969 2.855a7.5 7.5 0 0 1 1.037 3.835q0 2.458-1.293 4.191-1.278 1.733-3.48 2.4v.228q2.756.454 4.304 2.343 1.548 1.876 1.548 4.645 0 2.373-1.293 4.262-1.278 1.874-3.494 2.954t-5.042 1.08M407.522 170.398a10.9 10.9 0 0 1-3.58-.682q-1.79-.654-3.267-2.202-1.476-1.562-2.372-4.219-.894-2.67-.895-6.704 0-3.864.725-6.847.725-2.997 2.102-5.042 1.379-2.06 3.324-3.125 1.96-1.066 4.418-1.066 2.442 0 4.346.98a8.3 8.3 0 0 1 3.125 2.699q1.208 1.733 1.563 3.992h-3.466q-.483-1.96-1.875-3.253t-3.693-1.293q-3.381 0-5.327 2.941-1.932 2.94-1.946 8.253h.227a8.54 8.54 0 0 1 4.332-3.395 8.5 8.5 0 0 1 2.827-.469q2.5 0 4.574 1.25 2.074 1.236 3.324 3.423 1.25 2.173 1.25 4.986 0 2.699-1.207 4.943a9.2 9.2 0 0 1-3.395 3.551q-2.174 1.308-5.114 1.279m0-3.125q1.79 0 3.21-.895a6.4 6.4 0 0 0 2.259-2.401q.838-1.506.838-3.352 0-1.804-.81-3.281a6.16 6.16 0 0 0-2.202-2.372q-1.392-.881-3.181-.881-1.35 0-2.515.54a6.5 6.5 0 0 0-2.045 1.449 7 7 0 0 0-1.364 2.116 6.3 6.3 0 0 0-.497 2.486q0 1.733.81 3.238a6.66 6.66 0 0 0 2.244 2.429q1.435.924 3.253.924m24.393 3.125q-2.5 0-4.503-.995-2.002-.994-3.21-2.727t-1.321-3.949h3.409q.198 1.976 1.79 3.267 1.605 1.28 3.835 1.279 1.79 0 3.182-.838a5.9 5.9 0 0 0 2.201-2.301q.81-1.478.81-3.339 0-1.903-.838-3.394a6.15 6.15 0 0 0-2.273-2.373q-1.449-.866-3.309-.88a9 9 0 0 0-2.742.412q-1.406.411-2.315 1.065l-3.296-.398 1.762-14.318h15.113v3.125h-12.159l-1.023 8.58h.171q.895-.711 2.244-1.179a8.5 8.5 0 0 1 2.813-.469q2.67 0 4.758 1.278a8.93 8.93 0 0 1 3.296 3.466q1.207 2.202 1.207 5.029 0 2.784-1.25 4.971a9.14 9.14 0 0 1-3.409 3.438q-2.174 1.25-4.943 1.25M345.25 32.455q0 4.758-1.804 8.096-1.79 3.337-4.887 5.1-3.082 1.746-6.932 1.747-3.877 0-6.96-1.762-3.083-1.761-4.872-5.1-1.79-3.337-1.79-8.081 0-4.76 1.79-8.097t4.872-5.085q3.083-1.761 6.96-1.762 3.85 0 6.932 1.762 3.097 1.747 4.887 5.085 1.803 3.338 1.804 8.097m-6.236 0q0-3.082-.923-5.2-.91-2.115-2.571-3.21-1.662-1.093-3.893-1.093t-3.892 1.093-2.585 3.21q-.909 2.118-.909 5.2t.909 5.198q.923 2.117 2.585 3.21 1.663 1.094 3.892 1.094t3.893-1.093q1.66-1.095 2.571-3.21.923-2.118.923-5.2M349.692 47V25.182h5.867v3.807h.227q.596-2.032 2.003-3.068 1.406-1.052 3.238-1.052.455 0 .98.057.526.057.924.156v5.37a8 8 0 0 0-1.179-.228q-.753-.099-1.378-.099-1.335 0-2.386.582a4.3 4.3 0 0 0-1.648 1.591q-.597 1.023-.597 2.358V47zm23.391.355q-2.486 0-4.502-1.278-2.003-1.293-3.182-3.793-1.165-2.514-1.165-6.165 0-3.75 1.207-6.235 1.207-2.5 3.211-3.736a8.2 8.2 0 0 1 4.417-1.25q1.833 0 3.054.625 1.236.61 1.989 1.534.766.91 1.165 1.79h.184V17.909h6.037V47h-5.966v-3.494h-.255q-.426.909-1.208 1.804-.767.88-2.003 1.463-1.22.582-2.983.582m1.918-4.815q1.462 0 2.472-.796 1.022-.81 1.562-2.258.554-1.45.554-3.395t-.54-3.38q-.539-1.436-1.562-2.217-1.023-.78-2.486-.78-1.491 0-2.514.809-1.023.81-1.548 2.244t-.526 3.324q0 1.904.526 3.366.54 1.45 1.548 2.273 1.023.81 2.514.81m25.416 4.886q-3.368 0-5.796-1.364-2.415-1.377-3.721-3.892-1.308-2.527-1.307-5.98 0-3.366 1.307-5.909t3.678-3.963q2.387-1.42 5.597-1.42 2.159 0 4.02.696a8.9 8.9 0 0 1 3.267 2.06q1.407 1.377 2.188 3.465.78 2.074.781 4.858v1.662h-18.424v-3.75h12.728q0-1.307-.568-2.315a4.07 4.07 0 0 0-1.577-1.577q-.995-.582-2.315-.582-1.378 0-2.444.639-1.05.625-1.647 1.69-.597 1.051-.611 2.344v3.565q0 1.62.596 2.799a4.38 4.38 0 0 0 1.719 1.818q1.108.64 2.628.64 1.008 0 1.847-.285a3.8 3.8 0 0 0 1.434-.852q.597-.57.909-1.392l5.597.369a7.65 7.65 0 0 1-1.747 3.523q-1.306 1.49-3.381 2.33-2.06.823-4.758.823M414.38 47V25.182h5.866v3.807h.227q.597-2.032 2.003-3.068 1.407-1.052 3.239-1.052.455 0 .98.057t.923.156v5.37a8 8 0 0 0-1.179-.228q-.753-.099-1.378-.099-1.335 0-2.386.582-1.036.57-1.648 1.591-.596 1.023-.596 2.358V47zm25.294.426q-3.366 0-5.795-1.364-2.415-1.377-3.722-3.892-1.307-2.527-1.307-5.98 0-3.366 1.307-5.909 1.308-2.542 3.679-3.963 2.387-1.42 5.597-1.42 2.159 0 4.02.696a8.9 8.9 0 0 1 3.267 2.06q1.405 1.377 2.187 3.465.782 2.074.782 4.858v1.662h-18.424v-3.75h12.728q0-1.307-.569-2.315a4.06 4.06 0 0 0-1.576-1.577q-.994-.582-2.316-.582-1.377 0-2.443.639-1.051.625-1.648 1.69a4.8 4.8 0 0 0-.61 2.344v3.565q0 1.62.596 2.799.61 1.179 1.719 1.818 1.108.64 2.628.64 1.009 0 1.846-.285a3.8 3.8 0 0 0 1.435-.852q.597-.57.909-1.392l5.597.369a7.65 7.65 0 0 1-1.747 3.523q-1.308 1.49-3.381 2.33-2.06.823-4.759.823m22.003-.07q-2.486 0-4.503-1.28-2.002-1.291-3.181-3.792-1.165-2.514-1.165-6.165 0-3.75 1.207-6.235 1.207-2.5 3.21-3.736a8.23 8.23 0 0 1 4.418-1.25q1.833 0 3.054.625 1.236.61 1.989 1.534.767.91 1.164 1.79h.185V17.909h6.037V47h-5.966v-3.494h-.256a7.8 7.8 0 0 1-1.207 1.804q-.767.88-2.003 1.463-1.222.582-2.983.582m1.918-4.816q1.463 0 2.471-.796 1.023-.81 1.563-2.258.554-1.45.554-3.395t-.54-3.38-1.562-2.217q-1.023-.78-2.486-.78-1.492 0-2.514.809-1.023.81-1.549 2.244-.525 1.434-.525 3.324 0 1.904.525 3.366.54 1.45 1.549 2.273 1.022.81 2.514.81M498.751 47h-10.312V17.91h10.397q4.389 0 7.557 1.746 3.168 1.734 4.872 4.986 1.719 3.253 1.719 7.784 0 4.546-1.719 7.813-1.704 3.268-4.9 5.014Q503.183 47 498.751 47m-4.162-5.27h3.906q2.728 0 4.588-.966 1.875-.98 2.813-3.025.952-2.06.952-5.313 0-3.224-.952-5.27-.938-2.045-2.798-3.011t-4.588-.966h-3.921zM517.426 47V25.182h6.052V47zm3.04-24.63q-1.349 0-2.315-.896-.952-.909-.952-2.173 0-1.25.952-2.145.966-.909 2.315-.909 1.35 0 2.301.91.966.893.966 2.144 0 1.264-.966 2.173-.951.895-2.301.895m26.012 9.033-5.539.341a2.9 2.9 0 0 0-.611-1.278 3.25 3.25 0 0 0-1.236-.923q-.753-.355-1.804-.355-1.406 0-2.372.596-.966.583-.966 1.563 0 .78.625 1.32t2.145.867l3.949.796q3.181.653 4.744 2.102t1.562 3.807q0 2.145-1.264 3.764-1.25 1.62-3.437 2.528-2.173.895-5.014.895-4.333 0-6.904-1.804-2.556-1.818-2.997-4.943l5.952-.312q.27 1.32 1.307 2.017 1.036.681 2.656.681 1.59 0 2.557-.61.98-.625.994-1.606-.015-.824-.696-1.349-.682-.54-2.102-.824l-3.779-.753q-3.196-.64-4.758-2.216-1.549-1.575-1.549-4.02 0-2.101 1.137-3.622 1.15-1.52 3.224-2.343 2.088-.825 4.887-.824 4.133 0 6.505 1.747 2.387 1.747 2.784 4.758m9.791 9.319.014-7.259h.881l6.988-8.281h6.946l-9.389 10.966h-1.434zM550.786 47V17.91h6.051V47zm13.636 0-6.42-9.503 4.034-4.275L571.51 47zm19.017 0V17.91h11.477q3.296 0 5.625 1.178 2.343 1.165 3.565 3.31 1.236 2.13 1.236 5.014 0 2.898-1.25 4.986-1.25 2.073-3.622 3.182-2.359 1.108-5.71 1.108h-7.685v-4.944h6.69q1.762 0 2.926-.483 1.166-.483 1.733-1.448.583-.966.583-2.401 0-1.449-.583-2.443-.567-.994-1.747-1.506-1.164-.526-2.94-.526h-4.148V47zm15.71-13.239L606.379 47h-6.79l-7.074-13.239zm20.018 13.665q-3.367 0-5.796-1.364-2.415-1.377-3.721-3.892-1.307-2.527-1.307-5.98 0-3.366 1.307-5.909t3.678-3.963q2.387-1.42 5.597-1.42 2.159 0 4.02.696a8.9 8.9 0 0 1 3.267 2.06q1.407 1.377 2.188 3.465.78 2.074.781 4.858v1.662h-18.424v-3.75h12.728q0-1.307-.568-2.315a4.07 4.07 0 0 0-1.577-1.577q-.995-.582-2.315-.582-1.378 0-2.444.639-1.05.625-1.647 1.69-.597 1.051-.611 2.344v3.565q0 1.62.596 2.799a4.38 4.38 0 0 0 1.719 1.818q1.109.64 2.628.64 1.008 0 1.847-.285a3.8 3.8 0 0 0 1.434-.852q.597-.57.909-1.392l5.597.369a7.65 7.65 0 0 1-1.747 3.523q-1.307 1.49-3.381 2.33-2.06.823-4.758.823m28.38 7.756V43.506h-.184a7.8 7.8 0 0 1-1.208 1.804q-.767.88-2.003 1.463-1.22.582-2.983.582-2.486 0-4.502-1.278-2.004-1.293-3.182-3.793-1.165-2.514-1.165-6.165 0-3.75 1.207-6.235 1.207-2.5 3.211-3.736a8.2 8.2 0 0 1 4.417-1.25q1.833 0 3.054.625 1.236.61 1.989 1.534.766.91 1.165 1.79h.255v-3.665h5.966v30zm-4.46-12.642q1.463 0 2.472-.796 1.022-.81 1.562-2.258.554-1.45.554-3.395t-.54-3.38-1.562-2.217-2.486-.78q-1.491 0-2.514.809-1.023.81-1.548 2.244t-.526 3.324q0 1.904.526 3.366.538 1.45 1.548 2.273 1.023.81 2.514.81m29.347-4.83V25.182h6.051V47h-5.81v-3.963h-.227a6.45 6.45 0 0 1-2.458 3.082q-1.704 1.165-4.162 1.165-2.187 0-3.849-.994t-2.599-2.827q-.923-1.832-.938-4.39V25.183h6.051v12.812q.014 1.932 1.037 3.054t2.742 1.122a4.35 4.35 0 0 0 2.045-.497q.952-.511 1.534-1.505.597-.994.583-2.458m20.834 9.716q-3.366 0-5.795-1.364-2.415-1.377-3.722-3.892-1.307-2.527-1.307-5.98 0-3.366 1.307-5.909t3.679-3.963q2.386-1.42 5.597-1.42 2.159 0 4.02.696a8.9 8.9 0 0 1 3.267 2.06q1.405 1.377 2.187 3.465.781 2.074.781 4.858v1.662h-18.423v-3.75h12.727q0-1.307-.568-2.315a4.07 4.07 0 0 0-1.577-1.577q-.993-.582-2.315-.582-1.378 0-2.443.639-1.051.625-1.648 1.69-.596 1.051-.611 2.344v3.565q0 1.62.597 2.799.61 1.179 1.719 1.818 1.107.64 2.628.64 1.008 0 1.846-.285a3.8 3.8 0 0 0 1.435-.852q.597-.57.909-1.392l5.596.369a7.64 7.64 0 0 1-1.747 3.523q-1.307 1.49-3.38 2.33-2.06.823-4.759.823m32.117-16.023-5.54.341a2.86 2.86 0 0 0-.611-1.278 3.24 3.24 0 0 0-1.236-.923q-.753-.355-1.804-.355-1.406 0-2.372.596-.966.583-.966 1.563 0 .78.625 1.32t2.145.867l3.949.796q3.182.653 4.744 2.102 1.563 1.449 1.563 3.807 0 2.145-1.264 3.764-1.251 1.62-3.438 2.528-2.173.895-5.014.895-4.333 0-6.904-1.804-2.556-1.818-2.997-4.943l5.952-.312q.27 1.32 1.307 2.017 1.036.681 2.656.681 1.591 0 2.557-.61.98-.625.994-1.606-.013-.824-.696-1.349-.681-.54-2.102-.824l-3.779-.753q-3.195-.64-4.758-2.216-1.548-1.575-1.548-4.02 0-2.101 1.136-3.622 1.15-1.52 3.224-2.343 2.088-.825 4.887-.824 4.133 0 6.505 1.747 2.386 1.747 2.785 4.758m15.912-6.221v4.545h-13.139v-4.545zm-10.156-5.227h6.051v20.34q0 .84.256 1.307.255.454.71.64.469.184 1.08.184.426 0 .852-.07.426-.086.653-.129l.952 4.503q-.454.143-1.278.327-.824.198-2.003.241-2.188.086-3.836-.582-1.633-.667-2.542-2.074t-.895-3.551zm31.978 11.448-5.54.341a2.86 2.86 0 0 0-.611-1.278 3.24 3.24 0 0 0-1.235-.923q-.754-.355-1.804-.355-1.407 0-2.373.596-.965.583-.965 1.563 0 .78.625 1.32.624.54 2.144.867l3.949.796q3.182.653 4.745 2.102 1.562 1.449 1.562 3.807 0 2.145-1.264 3.764-1.25 1.62-3.438 2.528-2.172.895-5.014.895-4.332 0-6.903-1.804-2.558-1.818-2.997-4.943l5.951-.312q.27 1.32 1.307 2.017 1.037.681 2.656.681 1.591 0 2.557-.61.98-.625.995-1.606-.015-.824-.696-1.349-.683-.54-2.103-.824l-3.778-.753q-3.196-.64-4.759-2.216-1.548-1.575-1.548-4.02 0-2.101 1.136-3.622 1.15-1.52 3.225-2.343 2.088-.825 4.886-.824 4.133 0 6.506 1.747 2.386 1.747 2.784 4.758M529.264 170.398a10.9 10.9 0 0 1-3.579-.682q-1.791-.654-3.267-2.202-1.477-1.562-2.373-4.219-.894-2.67-.894-6.704 0-3.864.724-6.847.725-2.997 2.102-5.042 1.379-2.06 3.324-3.125 1.96-1.066 4.418-1.066 2.443 0 4.346.98a8.3 8.3 0 0 1 3.125 2.699q1.207 1.733 1.563 3.992h-3.466q-.483-1.96-1.875-3.253t-3.693-1.293q-3.381 0-5.327 2.941-1.932 2.94-1.946 8.253h.227a8.51 8.51 0 0 1 4.333-3.395 8.5 8.5 0 0 1 2.826-.469q2.5 0 4.574 1.25 2.074 1.236 3.324 3.423 1.25 2.173 1.25 4.986 0 2.699-1.207 4.943a9.2 9.2 0 0 1-3.395 3.551q-2.174 1.308-5.114 1.279m0-3.125q1.79 0 3.21-.895a6.4 6.4 0 0 0 2.259-2.401q.838-1.506.838-3.352 0-1.804-.81-3.281a6.17 6.17 0 0 0-2.201-2.372q-1.392-.881-3.182-.881a5.9 5.9 0 0 0-2.514.54 6.5 6.5 0 0 0-2.046 1.449 7 7 0 0 0-1.363 2.116 6.3 6.3 0 0 0-.498 2.486q0 1.733.81 3.238a6.66 6.66 0 0 0 2.244 2.429q1.435.924 3.253.924M545.475 170l13.012-25.739v-.227h-15v-3.125h18.636v3.296L549.168 170zM647.968 140.511q1.79.015 3.58.682 1.79.668 3.267 2.216 1.476 1.535 2.372 4.19.895 2.657.895 6.662 0 3.879-.739 6.89-.725 2.997-2.102 5.056-1.364 2.06-3.324 3.125-1.945 1.066-4.404 1.066-2.442 0-4.36-.966a8.56 8.56 0 0 1-3.125-2.713q-1.207-1.747-1.549-4.049h3.466q.47 2.004 1.861 3.31 1.406 1.293 3.707 1.293 3.367 0 5.313-2.941 1.96-2.94 1.96-8.309h-.227a8.9 8.9 0 0 1-1.889 2.059 8.3 8.3 0 0 1-2.429 1.336 8.5 8.5 0 0 1-2.841.468q-2.5 0-4.588-1.235-2.075-1.25-3.324-3.424-1.236-2.187-1.236-5 0-2.67 1.193-4.886a9.2 9.2 0 0 1 3.381-3.551q2.187-1.321 5.142-1.279m0 3.125q-1.79 0-3.224.895a6.44 6.44 0 0 0-2.259 2.387q-.824 1.491-.824 3.309t.796 3.31a6.34 6.34 0 0 0 2.201 2.358q1.407.867 3.196.866 1.35 0 2.515-.525a6.5 6.5 0 0 0 2.031-1.463 7.1 7.1 0 0 0 1.378-2.117 6.4 6.4 0 0 0 .497-2.486 6.5 6.5 0 0 0-.824-3.196 6.54 6.54 0 0 0-2.244-2.414q-1.42-.924-3.239-.924m25.018 26.762q-2.926 0-5.171-1.037-2.229-1.051-3.48-2.884-1.25-1.846-1.236-4.204-.014-1.847.725-3.409a7.4 7.4 0 0 1 2.017-2.628 6.2 6.2 0 0 1 2.883-1.35v-.17q-2.088-.54-3.323-2.344-1.236-1.818-1.222-4.133-.014-2.217 1.122-3.963 1.137-1.748 3.125-2.756 2.003-1.008 4.56-1.009 2.528 0 4.517 1.009 1.988 1.008 3.125 2.756 1.15 1.746 1.165 3.963-.015 2.315-1.265 4.133-1.235 1.804-3.281 2.344v.17q1.577.285 2.841 1.35 1.264 1.05 2.017 2.628.753 1.562.767 3.409-.013 2.358-1.278 4.204-1.251 1.833-3.48 2.884-2.217 1.037-5.128 1.037m0-3.125q1.974 0 3.409-.639 1.434-.64 2.216-1.804.781-1.165.795-2.728-.014-1.647-.852-2.912-.838-1.263-2.287-1.988-1.434-.725-3.281-.725-1.861 0-3.324.725-1.449.725-2.287 1.988-.823 1.265-.81 2.912-.014 1.563.753 2.728.781 1.164 2.23 1.804 1.449.639 3.438.639m0-13.807q1.562 0 2.77-.625a4.76 4.76 0 0 0 1.917-1.747q.696-1.122.711-2.628-.015-1.478-.696-2.571a4.5 4.5 0 0 0-1.89-1.705q-1.207-.61-2.812-.61-1.634 0-2.855.61-1.222.597-1.89 1.705-.667 1.094-.653 2.571-.014 1.506.668 2.628a4.76 4.76 0 0 0 1.917 1.747q1.222.625 2.813.625M760.223 140.909V170H756.7v-25.398h-.17l-7.102 4.716v-3.579l7.272-4.83zM768.589 170v-2.557l9.603-10.511a67 67 0 0 0 2.784-3.21q1.094-1.379 1.619-2.586.54-1.221.54-2.556 0-1.535-.739-2.657-.725-1.121-1.988-1.733-1.264-.61-2.841-.61-1.677 0-2.926.696a4.8 4.8 0 0 0-1.918 1.917q-.668 1.236-.668 2.898h-3.352q0-2.557 1.179-4.489a8.2 8.2 0 0 1 3.21-3.011q2.046-1.08 4.588-1.08 2.557 0 4.532 1.08 1.974 1.08 3.096 2.912t1.122 4.077q0 1.605-.582 3.139-.569 1.52-1.989 3.395-1.405 1.86-3.906 4.545l-6.534 6.989v.227h13.523V170zm24.219 0v-2.557l9.603-10.511a68 68 0 0 0 2.784-3.21q1.094-1.379 1.619-2.586.54-1.221.54-2.556 0-1.535-.739-2.657-.724-1.121-1.989-1.733-1.263-.61-2.84-.61-1.677 0-2.927.696a4.8 4.8 0 0 0-1.917 1.917q-.668 1.236-.668 2.898h-3.352q0-2.557 1.179-4.489a8.2 8.2 0 0 1 3.21-3.011q2.046-1.08 4.588-1.08 2.557 0 4.531 1.08 1.975 1.08 3.097 2.912t1.122 4.077q0 1.605-.582 3.139-.569 1.52-1.989 3.395-1.406 1.86-3.906 4.545l-6.534 6.989v.227h13.523V170zM879.813 140.909V170h-3.523v-25.398h-.17l-7.103 4.716v-3.579l7.273-4.83zM888.179 170v-2.557l9.603-10.511a67 67 0 0 0 2.784-3.21q1.094-1.379 1.619-2.586.54-1.221.54-2.556 0-1.535-.739-2.657-.725-1.121-1.988-1.733-1.264-.61-2.841-.61-1.677 0-2.927.696a4.8 4.8 0 0 0-1.917 1.917q-.668 1.236-.668 2.898h-3.352q0-2.557 1.179-4.489a8.2 8.2 0 0 1 3.21-3.011q2.046-1.08 4.588-1.08 2.557 0 4.531 1.08 1.975 1.08 3.097 2.912t1.122 4.077q0 1.605-.582 3.139-.569 1.52-1.989 3.395-1.406 1.86-3.906 4.545l-6.534 6.989v.227h13.523V170zm22.912-5.966v-2.898l12.784-20.227h2.103v4.489h-1.421l-9.659 15.284v.227h17.216v3.125zM924.784 170v-29.091h3.353V170zM999.383 140.909V170h-3.523v-25.398h-.17l-7.102 4.716v-3.579l7.272-4.83zm17.687 29.489c-1.95 0-3.68-.346-5.17-1.037q-2.235-1.051-3.48-2.884c-.84-1.231-1.25-2.632-1.24-4.204-.01-1.231.23-2.368.73-3.409a7.4 7.4 0 0 1 2.01-2.628c.86-.71 1.83-1.16 2.89-1.35v-.17c-1.4-.36-2.5-1.141-3.33-2.344-.82-1.212-1.23-2.59-1.22-4.133-.01-1.478.37-2.799 1.12-3.963.76-1.165 1.8-2.084 3.13-2.756q1.995-1.008 4.56-1.009c1.68 0 3.19.337 4.51 1.009 1.33.672 2.37 1.591 3.13 2.756.77 1.164 1.16 2.485 1.16 3.963 0 1.543-.43 2.921-1.26 4.133-.82 1.203-1.92 1.984-3.28 2.344v.17c1.05.19 2 .64 2.84 1.35a7.7 7.7 0 0 1 2.02 2.628c.5 1.041.75 2.178.76 3.409-.01 1.572-.43 2.973-1.27 4.204q-1.26 1.833-3.48 2.884-2.22 1.037-5.13 1.037m0-3.125c1.31 0 2.45-.213 3.41-.639.95-.427 1.69-1.028 2.21-1.804.52-.777.79-1.686.8-2.728-.01-1.098-.3-2.069-.85-2.912-.56-.842-1.33-1.505-2.29-1.988s-2.05-.725-3.28-.725q-1.86 0-3.33.725-1.44.725-2.28 1.988-.825 1.265-.81 2.912-.015 1.563.75 2.728c.52.776 1.26 1.377 2.23 1.804.97.426 2.11.639 3.44.639m0-13.807c1.04 0 1.96-.208 2.77-.625a4.83 4.83 0 0 0 1.92-1.747c.46-.748.7-1.624.71-2.628-.01-.985-.25-1.842-.7-2.571a4.5 4.5 0 0 0-1.89-1.705c-.8-.407-1.74-.61-2.81-.61-1.09 0-2.04.203-2.86.61q-1.215.597-1.89 1.705c-.44.729-.66 1.586-.65 2.571-.01 1.004.21 1.88.67 2.628q.69 1.122 1.92 1.747c.81.417 1.75.625 2.81.625m25.16 16.932c-1.88 0-3.55-.322-5.02-.966q-2.175-.966-3.48-2.685c-.85-1.155-1.31-2.495-1.39-4.02h3.58c.08.938.4 1.747.97 2.429.56.673 1.31 1.193 2.23 1.563s1.93.554 3.05.554c1.25 0 2.36-.218 3.32-.654q1.455-.653 2.28-1.818c.55-.776.82-1.676.82-2.699 0-1.07-.26-2.012-.79-2.826-.53-.824-1.31-1.468-2.33-1.932q-1.545-.696-3.75-.696h-2.33v-3.125h2.33c1.15 0 2.16-.209 3.04-.625s1.56-1.004 2.06-1.762q.75-1.136.75-2.67c0-.985-.22-1.842-.65-2.571-.44-.729-1.06-1.297-1.85-1.705q-1.185-.61-2.79-.61c-1 0-1.95.184-2.84.554q-1.32.539-2.16 1.576c-.55.682-.86 1.506-.9 2.472h-3.41c.05-1.525.51-2.86 1.37-4.006.87-1.155 1.99-2.055 3.38-2.699q2.115-.966 4.62-.966c1.8 0 3.34.365 4.63 1.094q1.935 1.08 2.97 2.855a7.5 7.5 0 0 1 1.04 3.835q0 2.458-1.29 4.191c-.86 1.155-2.02 1.955-3.49 2.4v.228c1.84.303 3.28 1.084 4.31 2.343 1.03 1.25 1.55 2.799 1.55 4.645 0 1.582-.43 3.002-1.3 4.262-.85 1.25-2.01 2.234-3.49 2.954q-2.22 1.08-5.04 1.08"/></svg>