<svg width="1081" height="325" viewBox="0 0 1081 325" fill="none" xmlns="http://www.w3.org/2000/svg">
<rect x="241" y="96" width="119" height="120" fill="#002647"/>
<rect x="1" y="96" width="1079" height="120" rx="26" stroke="#DBDBDB" stroke-width="2"/>
<line x1="121" y1="95" x2="121" y2="217" stroke="#DBDBDB" stroke-width="2"/>
<line x1="241" y1="95" x2="241" y2="217" stroke="#DBDBDB" stroke-width="2"/>
<line x1="361" y1="95" x2="361" y2="217" stroke="#DBDBDB" stroke-width="2"/>
<line x1="482" y1="95" x2="482" y2="217" stroke="#DBDBDB" stroke-width="2"/>
<line x1="602" y1="95" x2="602" y2="217" stroke="#DBDBDB" stroke-width="2"/>
<line x1="722" y1="95" x2="722" y2="217" stroke="#DBDBDB" stroke-width="2"/>
<line x1="842" y1="95" x2="842" y2="217" stroke="#DBDBDB" stroke-width="2"/>
<line x1="962" y1="95" x2="962" y2="217" stroke="#DBDBDB" stroke-width="2"/>
<path d="M51.6097 140.909V170H48.087V144.602H47.9165L40.8143 149.318V145.739L48.087 140.909H51.6097ZM59.2944 164.034V161.136L72.0785 140.909H74.1808V145.398H72.7603L63.1012 160.682V160.909H80.3171V164.034H59.2944ZM72.9876 170V163.153V161.804V140.909H76.3398V170H72.9876Z" fill="white"/>
<path d="M3.25852 271V244.091H19.3935V246.982H6.51705V256.074H18.1847V258.964H6.51705V271H3.25852ZM24.5539 271V250.818H27.6547V271H24.5539ZM26.1306 247.455C25.5262 247.455 25.005 247.249 24.567 246.837C24.1378 246.425 23.9232 245.93 23.9232 245.352C23.9232 244.774 24.1378 244.279 24.567 243.868C25.005 243.456 25.5262 243.25 26.1306 243.25C26.735 243.25 27.2518 243.456 27.681 243.868C28.119 244.279 28.338 244.774 28.338 245.352C28.338 245.93 28.119 246.425 27.681 246.837C27.2518 247.249 26.735 247.455 26.1306 247.455ZM33.3342 271V250.818H36.3299V253.866H36.5401C36.908 252.868 37.5737 252.058 38.5373 251.436C39.5008 250.814 40.587 250.503 41.7958 250.503C42.0236 250.503 42.3082 250.507 42.6499 250.516C42.9915 250.525 43.2499 250.538 43.4251 250.555V253.709C43.32 253.683 43.0791 253.643 42.7024 253.591C42.3345 253.529 41.9447 253.499 41.533 253.499C40.552 253.499 39.676 253.704 38.9052 254.116C38.1431 254.519 37.5387 255.08 37.092 255.798C36.654 256.507 36.435 257.318 36.435 258.229V271H33.3342ZM61.3962 255.338L58.6107 256.126C58.4355 255.662 58.1771 255.211 57.8355 254.773C57.5026 254.326 57.0471 253.958 56.469 253.669C55.8909 253.38 55.1507 253.236 54.2485 253.236C53.0134 253.236 51.9842 253.52 51.1608 254.09C50.3461 254.65 49.9388 255.364 49.9388 256.232C49.9388 257.002 50.2191 257.611 50.7797 258.058C51.3403 258.505 52.2163 258.877 53.4076 259.175L56.4033 259.911C58.2078 260.348 59.5523 261.019 60.4371 261.921C61.3218 262.814 61.7641 263.966 61.7641 265.376C61.7641 266.533 61.4313 267.566 60.7655 268.477C60.1086 269.388 59.1888 270.107 58.0063 270.632C56.8238 271.158 55.4485 271.42 53.8806 271.42C51.8221 271.42 50.1184 270.974 48.7694 270.08C47.4205 269.187 46.5664 267.882 46.2073 266.165L49.1505 265.429C49.4308 266.515 49.9607 267.33 50.7403 267.873C51.5287 268.416 52.5579 268.688 53.828 268.688C55.2733 268.688 56.4208 268.381 57.2705 267.768C58.1289 267.146 58.5582 266.401 58.5582 265.534C58.5582 264.833 58.3129 264.246 57.8224 263.773C57.3318 263.292 56.5785 262.933 55.5624 262.696L52.1988 261.908C50.3505 261.47 48.9928 260.791 48.1256 259.871C47.2672 258.943 46.838 257.782 46.838 256.389C46.838 255.25 47.1577 254.243 47.7971 253.367C48.4453 252.491 49.3257 251.804 50.4381 251.304C51.5593 250.805 52.8295 250.555 54.2485 250.555C56.2457 250.555 57.8136 250.993 58.9523 251.869C60.0998 252.745 60.9144 253.902 61.3962 255.338ZM75.2088 250.818V253.446H64.75V250.818H75.2088ZM67.7983 245.983H70.8991V265.219C70.8991 266.095 71.0262 266.752 71.2802 267.19C71.543 267.619 71.8758 267.908 72.2788 268.057C72.6905 268.197 73.1241 268.267 73.5795 268.267C73.9212 268.267 74.2015 268.25 74.4205 268.214C74.6394 268.171 74.8146 268.136 74.946 268.109L75.5767 270.895C75.3665 270.974 75.073 271.053 74.6964 271.131C74.3197 271.219 73.8423 271.263 73.2642 271.263C72.3883 271.263 71.5298 271.074 70.6889 270.698C69.8568 270.321 69.1648 269.747 68.6129 268.977C68.0698 268.206 67.7983 267.233 67.7983 266.06V245.983ZM3.25852 316V289.091H12.3509C14.4531 289.091 16.1787 289.45 17.5277 290.168C18.8767 290.878 19.8752 291.855 20.5234 293.098C21.1716 294.342 21.4957 295.757 21.4957 297.342C21.4957 298.928 21.1716 300.334 20.5234 301.56C19.8752 302.786 18.881 303.75 17.5408 304.451C16.2006 305.143 14.4882 305.489 12.4034 305.489H5.04545V302.545H12.2983C13.7348 302.545 14.8911 302.335 15.767 301.915C16.6518 301.494 17.2912 300.899 17.6854 300.128C18.0883 299.348 18.2898 298.42 18.2898 297.342C18.2898 296.265 18.0883 295.323 17.6854 294.517C17.2824 293.712 16.6386 293.09 15.7539 292.652C14.8692 292.205 13.6998 291.982 12.2457 291.982H6.51705V316H3.25852ZM15.9247 303.912L22.5469 316H18.7628L12.2457 303.912H15.9247ZM34.7499 316.42C32.8053 316.42 31.1279 315.991 29.7176 315.133C28.3161 314.266 27.2343 313.057 26.4722 311.506C25.7189 309.947 25.3422 308.134 25.3422 306.067C25.3422 304 25.7189 302.178 26.4722 300.601C27.2343 299.015 28.2942 297.78 29.6519 296.896C31.0184 296.002 32.6126 295.555 34.4346 295.555C35.4857 295.555 36.5237 295.731 37.5486 296.081C38.5734 296.431 39.5063 297.001 40.3472 297.789C41.1881 298.569 41.8582 299.602 42.3575 300.89C42.8568 302.178 43.1064 303.763 43.1064 305.646V306.96H27.5496V304.28H39.953C39.953 303.141 39.7253 302.125 39.2698 301.232C38.8231 300.338 38.1836 299.633 37.3515 299.116C36.5281 298.599 35.5558 298.341 34.4346 298.341C33.1995 298.341 32.1308 298.647 31.2286 299.261C30.3351 299.865 29.6475 300.653 29.1657 301.626C28.684 302.598 28.4431 303.64 28.4431 304.753V306.54C28.4431 308.064 28.7059 309.356 29.2314 310.416C29.7658 311.467 30.5059 312.268 31.452 312.82C32.398 313.363 33.4973 313.635 34.7499 313.635C35.5645 313.635 36.3003 313.521 36.9573 313.293C37.623 313.057 38.1968 312.706 38.6785 312.242C39.1603 311.769 39.5326 311.182 39.7954 310.482L42.7911 311.322C42.4758 312.339 41.9458 313.232 41.2013 314.003C40.4567 314.765 39.537 315.361 38.442 315.79C37.3471 316.21 36.1164 316.42 34.7499 316.42ZM61.5933 323.568V312.899H61.3305C61.1028 313.267 60.7787 313.731 60.3582 314.292C59.9378 314.844 59.3377 315.339 58.5582 315.777C57.7786 316.206 56.7406 316.42 55.4442 316.42C53.7623 316.42 52.2776 315.996 50.99 315.146C49.7023 314.288 48.695 313.079 47.968 311.52C47.2409 309.952 46.8774 308.099 46.8774 305.962C46.8774 303.842 47.2409 302.002 47.968 300.443C48.695 298.884 49.7067 297.68 51.0031 296.83C52.2995 295.98 53.7974 295.555 55.4967 295.555C56.8106 295.555 57.8486 295.774 58.6107 296.212C59.3815 296.642 59.9684 297.132 60.3714 297.684C60.7831 298.227 61.1028 298.674 61.3305 299.024H61.6984V295.818H64.6942V323.568H61.5933ZM55.8646 313.635C57.1085 313.635 58.1596 313.311 59.018 312.663C59.8765 312.006 60.529 311.099 60.9758 309.943C61.4225 308.778 61.6459 307.433 61.6459 305.909C61.6459 304.402 61.4269 303.084 60.9889 301.954C60.5509 300.815 59.9027 299.931 59.0443 299.3C58.1859 298.661 57.126 298.341 55.8646 298.341C54.5507 298.341 53.4558 298.678 52.5798 299.353C51.7126 300.018 51.06 300.925 50.6221 302.072C50.1929 303.211 49.9782 304.49 49.9782 305.909C49.9782 307.346 50.1972 308.651 50.6352 309.825C51.0819 310.99 51.7389 311.918 52.6061 312.61C53.482 313.293 54.5682 313.635 55.8646 313.635ZM83.089 307.749V295.818H86.1899V316H83.089V312.584H82.8788C82.4058 313.609 81.67 314.48 80.6714 315.199C79.6729 315.908 78.4115 316.263 76.8873 316.263C75.626 316.263 74.5048 315.987 73.5237 315.435C72.5426 314.874 71.7718 314.033 71.2112 312.912C70.6506 311.782 70.3703 310.359 70.3703 308.642V295.818H73.4711V308.432C73.4711 309.903 73.8828 311.077 74.7062 311.953C75.5384 312.829 76.5983 313.267 77.8859 313.267C78.6568 313.267 79.4407 313.07 80.2378 312.676C81.0437 312.282 81.7182 311.677 82.2613 310.863C82.8131 310.048 83.089 309.01 83.089 307.749ZM100.331 316.42C98.3864 316.42 96.7089 315.991 95.2987 315.133C93.8971 314.266 92.8153 313.057 92.0533 311.506C91.3 309.947 90.9233 308.134 90.9233 306.067C90.9233 304 91.3 302.178 92.0533 300.601C92.8153 299.015 93.8752 297.78 95.233 296.896C96.5994 296.002 98.1937 295.555 100.016 295.555C101.067 295.555 102.105 295.731 103.13 296.081C104.154 296.431 105.087 297.001 105.928 297.789C106.769 298.569 107.439 299.602 107.939 300.89C108.438 302.178 108.688 303.763 108.688 305.646V306.96H93.1307V304.28H105.534C105.534 303.141 105.306 302.125 104.851 301.232C104.404 300.338 103.765 299.633 102.933 299.116C102.109 298.599 101.137 298.341 100.016 298.341C98.7805 298.341 97.7119 298.647 96.8097 299.261C95.9162 299.865 95.2286 300.653 94.7468 301.626C94.265 302.598 94.0241 303.64 94.0241 304.753V306.54C94.0241 308.064 94.2869 309.356 94.8125 310.416C95.3468 311.467 96.087 312.268 97.033 312.82C97.979 313.363 99.0784 313.635 100.331 313.635C101.146 313.635 101.881 313.521 102.538 313.293C103.204 313.057 103.778 312.706 104.26 312.242C104.741 311.769 105.114 311.182 105.376 310.482L108.372 311.322C108.057 312.339 107.527 313.232 106.782 314.003C106.038 314.765 105.118 315.361 104.023 315.79C102.928 316.21 101.697 316.42 100.331 316.42ZM127.7 300.338L124.914 301.126C124.739 300.662 124.481 300.211 124.139 299.773C123.806 299.326 123.351 298.958 122.773 298.669C122.195 298.38 121.454 298.236 120.552 298.236C119.317 298.236 118.288 298.52 117.464 299.09C116.65 299.65 116.243 300.364 116.243 301.232C116.243 302.002 116.523 302.611 117.083 303.058C117.644 303.505 118.52 303.877 119.711 304.175L122.707 304.911C124.511 305.348 125.856 306.019 126.741 306.921C127.625 307.814 128.068 308.966 128.068 310.376C128.068 311.533 127.735 312.566 127.069 313.477C126.412 314.388 125.493 315.107 124.31 315.632C123.127 316.158 121.752 316.42 120.184 316.42C118.126 316.42 116.422 315.974 115.073 315.08C113.724 314.187 112.87 312.882 112.511 311.165L115.454 310.429C115.734 311.515 116.264 312.33 117.044 312.873C117.832 313.416 118.862 313.688 120.132 313.688C121.577 313.688 122.725 313.381 123.574 312.768C124.433 312.146 124.862 311.401 124.862 310.534C124.862 309.833 124.617 309.246 124.126 308.773C123.636 308.292 122.882 307.933 121.866 307.696L118.502 306.908C116.654 306.47 115.297 305.791 114.429 304.871C113.571 303.943 113.142 302.782 113.142 301.389C113.142 300.25 113.461 299.243 114.101 298.367C114.749 297.491 115.629 296.804 116.742 296.304C117.863 295.805 119.133 295.555 120.552 295.555C122.549 295.555 124.117 295.993 125.256 296.869C126.404 297.745 127.218 298.902 127.7 300.338ZM141.513 295.818V298.446H131.054V295.818H141.513ZM134.102 290.983H137.203V310.219C137.203 311.095 137.33 311.752 137.584 312.19C137.847 312.619 138.18 312.908 138.582 313.057C138.994 313.197 139.428 313.267 139.883 313.267C140.225 313.267 140.505 313.25 140.724 313.214C140.943 313.171 141.118 313.136 141.25 313.109L141.88 315.895C141.67 315.974 141.377 316.053 141 316.131C140.623 316.219 140.146 316.263 139.568 316.263C138.692 316.263 137.834 316.074 136.993 315.698C136.16 315.321 135.468 314.747 134.917 313.977C134.374 313.206 134.102 312.233 134.102 311.06V290.983Z" fill="#717171"/>
<path d="M256.382 271V244.091H259.641V256.074H273.989V244.091H277.247V271H273.989V258.964H259.641V271H256.382ZM291.812 271.42C289.867 271.42 288.19 270.991 286.78 270.133C285.378 269.266 284.296 268.057 283.534 266.506C282.781 264.947 282.404 263.134 282.404 261.067C282.404 259 282.781 257.178 283.534 255.601C284.296 254.015 285.356 252.78 286.714 251.896C288.08 251.002 289.675 250.555 291.497 250.555C292.548 250.555 293.586 250.731 294.611 251.081C295.635 251.431 296.568 252.001 297.409 252.789C298.25 253.569 298.92 254.602 299.42 255.89C299.919 257.178 300.168 258.763 300.168 260.646V261.96H284.612V259.28H297.015C297.015 258.141 296.787 257.125 296.332 256.232C295.885 255.338 295.246 254.633 294.413 254.116C293.59 253.599 292.618 253.341 291.497 253.341C290.261 253.341 289.193 253.647 288.291 254.261C287.397 254.865 286.71 255.653 286.228 256.626C285.746 257.598 285.505 258.64 285.505 259.753V261.54C285.505 263.064 285.768 264.356 286.293 265.416C286.828 266.467 287.568 267.268 288.514 267.82C289.46 268.363 290.559 268.635 291.812 268.635C292.627 268.635 293.362 268.521 294.019 268.293C294.685 268.057 295.259 267.706 295.741 267.242C296.222 266.769 296.595 266.182 296.857 265.482L299.853 266.322C299.538 267.339 299.008 268.232 298.263 269.003C297.519 269.765 296.599 270.361 295.504 270.79C294.409 271.21 293.178 271.42 291.812 271.42ZM310.824 271.473C309.545 271.473 308.385 271.232 307.342 270.75C306.3 270.26 305.472 269.555 304.859 268.635C304.246 267.706 303.939 266.585 303.939 265.271C303.939 264.115 304.167 263.178 304.623 262.46C305.078 261.732 305.687 261.163 306.449 260.751C307.211 260.34 308.052 260.033 308.972 259.832C309.9 259.621 310.833 259.455 311.77 259.332C312.997 259.175 313.991 259.056 314.753 258.978C315.524 258.89 316.084 258.746 316.435 258.544C316.794 258.343 316.973 257.992 316.973 257.493V257.388C316.973 256.091 316.619 255.084 315.909 254.366C315.208 253.647 314.144 253.288 312.716 253.288C311.236 253.288 310.075 253.612 309.235 254.261C308.394 254.909 307.802 255.601 307.461 256.337L304.518 255.286C305.043 254.059 305.744 253.104 306.62 252.421C307.505 251.729 308.468 251.247 309.51 250.976C310.562 250.696 311.595 250.555 312.611 250.555C313.259 250.555 314.004 250.634 314.845 250.792C315.695 250.941 316.514 251.252 317.302 251.725C318.099 252.198 318.76 252.912 319.286 253.866C319.812 254.821 320.074 256.1 320.074 257.703V271H316.973V268.267H316.816C316.606 268.705 316.255 269.174 315.765 269.673C315.274 270.172 314.622 270.597 313.807 270.947C312.992 271.298 311.998 271.473 310.824 271.473ZM311.297 268.688C312.524 268.688 313.557 268.447 314.398 267.965C315.248 267.483 315.887 266.861 316.317 266.099C316.755 265.337 316.973 264.536 316.973 263.695V260.857C316.842 261.014 316.553 261.159 316.106 261.29C315.668 261.413 315.16 261.522 314.582 261.619C314.013 261.706 313.457 261.785 312.913 261.855C312.379 261.916 311.946 261.969 311.613 262.013C310.807 262.118 310.054 262.289 309.353 262.525C308.661 262.753 308.1 263.099 307.671 263.563C307.25 264.019 307.04 264.641 307.04 265.429C307.04 266.506 307.439 267.321 308.236 267.873C309.042 268.416 310.062 268.688 311.297 268.688ZM333.355 271.42C331.673 271.42 330.188 270.996 328.901 270.146C327.613 269.288 326.606 268.079 325.879 266.52C325.152 264.952 324.788 263.099 324.788 260.962C324.788 258.842 325.152 257.002 325.879 255.443C326.606 253.884 327.617 252.68 328.914 251.83C330.21 250.98 331.708 250.555 333.407 250.555C334.721 250.555 335.759 250.774 336.521 251.212C337.292 251.642 337.879 252.132 338.282 252.684C338.694 253.227 339.013 253.674 339.241 254.024H339.504V244.091H342.605V271H339.609V267.899H339.241C339.013 268.267 338.689 268.731 338.269 269.292C337.848 269.844 337.248 270.339 336.469 270.777C335.689 271.206 334.651 271.42 333.355 271.42ZM333.775 268.635C335.019 268.635 336.07 268.311 336.929 267.663C337.787 267.006 338.44 266.099 338.886 264.943C339.333 263.778 339.557 262.433 339.557 260.909C339.557 259.402 339.338 258.084 338.9 256.954C338.462 255.815 337.813 254.931 336.955 254.3C336.097 253.661 335.037 253.341 333.775 253.341C332.461 253.341 331.366 253.678 330.49 254.353C329.623 255.018 328.971 255.925 328.533 257.072C328.104 258.211 327.889 259.49 327.889 260.909C327.889 262.346 328.108 263.651 328.546 264.825C328.993 265.99 329.65 266.918 330.517 267.61C331.393 268.293 332.479 268.635 333.775 268.635ZM233.058 316V289.091H242.151C244.262 289.091 245.987 289.472 247.328 290.234C248.676 290.987 249.675 292.008 250.323 293.295C250.971 294.583 251.296 296.02 251.296 297.605C251.296 299.191 250.971 300.632 250.323 301.928C249.684 303.224 248.694 304.258 247.354 305.029C246.014 305.791 244.297 306.172 242.203 306.172H235.686V303.281H242.098C243.543 303.281 244.704 303.032 245.58 302.532C246.456 302.033 247.091 301.359 247.485 300.509C247.888 299.65 248.09 298.683 248.09 297.605C248.09 296.528 247.888 295.564 247.485 294.714C247.091 293.865 246.452 293.199 245.567 292.717C244.682 292.227 243.508 291.982 242.046 291.982H236.317V316H233.058ZM264.106 316.42C262.284 316.42 260.686 315.987 259.31 315.12C257.944 314.252 256.875 313.039 256.104 311.48C255.342 309.921 254.961 308.099 254.961 306.014C254.961 303.912 255.342 302.077 256.104 300.509C256.875 298.941 257.944 297.723 259.31 296.856C260.686 295.989 262.284 295.555 264.106 295.555C265.928 295.555 267.522 295.989 268.889 296.856C270.264 297.723 271.333 298.941 272.095 300.509C272.866 302.077 273.251 303.912 273.251 306.014C273.251 308.099 272.866 309.921 272.095 311.48C271.333 313.039 270.264 314.252 268.889 315.12C267.522 315.987 265.928 316.42 264.106 316.42ZM264.106 313.635C265.49 313.635 266.629 313.28 267.522 312.571C268.416 311.861 269.077 310.928 269.506 309.772C269.936 308.616 270.15 307.363 270.15 306.014C270.15 304.665 269.936 303.408 269.506 302.243C269.077 301.078 268.416 300.137 267.522 299.418C266.629 298.7 265.49 298.341 264.106 298.341C262.722 298.341 261.584 298.7 260.69 299.418C259.797 300.137 259.135 301.078 258.706 302.243C258.277 303.408 258.062 304.665 258.062 306.014C258.062 307.363 258.277 308.616 258.706 309.772C259.135 310.928 259.797 311.861 260.69 312.571C261.584 313.28 262.722 313.635 264.106 313.635ZM292.28 300.338L289.494 301.126C289.319 300.662 289.061 300.211 288.719 299.773C288.386 299.326 287.931 298.958 287.353 298.669C286.775 298.38 286.035 298.236 285.132 298.236C283.897 298.236 282.868 298.52 282.045 299.09C281.23 299.65 280.823 300.364 280.823 301.232C280.823 302.002 281.103 302.611 281.664 303.058C282.224 303.505 283.1 303.877 284.291 304.175L287.287 304.911C289.092 305.348 290.436 306.019 291.321 306.921C292.206 307.814 292.648 308.966 292.648 310.376C292.648 311.533 292.315 312.566 291.649 313.477C290.992 314.388 290.073 315.107 288.89 315.632C287.708 316.158 286.332 316.42 284.764 316.42C282.706 316.42 281.002 315.974 279.653 315.08C278.304 314.187 277.45 312.882 277.091 311.165L280.034 310.429C280.315 311.515 280.845 312.33 281.624 312.873C282.412 313.416 283.442 313.688 284.712 313.688C286.157 313.688 287.305 313.381 288.154 312.768C289.013 312.146 289.442 311.401 289.442 310.534C289.442 309.833 289.197 309.246 288.706 308.773C288.216 308.292 287.462 307.933 286.446 307.696L283.083 306.908C281.234 306.47 279.877 305.791 279.009 304.871C278.151 303.943 277.722 302.782 277.722 301.389C277.722 300.25 278.041 299.243 278.681 298.367C279.329 297.491 280.209 296.804 281.322 296.304C282.443 295.805 283.713 295.555 285.132 295.555C287.129 295.555 288.697 295.993 289.836 296.869C290.984 297.745 291.798 298.902 292.28 300.338ZM297.316 316V295.818H300.416V316H297.316ZM298.892 292.455C298.288 292.455 297.767 292.249 297.329 291.837C296.9 291.425 296.685 290.93 296.685 290.352C296.685 289.774 296.9 289.279 297.329 288.868C297.767 288.456 298.288 288.25 298.892 288.25C299.497 288.25 300.014 288.456 300.443 288.868C300.881 289.279 301.1 289.774 301.1 290.352C301.1 290.93 300.881 291.425 300.443 291.837C300.014 292.249 299.497 292.455 298.892 292.455ZM314.873 295.818V298.446H304.414V295.818H314.873ZM307.462 290.983H310.563V310.219C310.563 311.095 310.69 311.752 310.944 312.19C311.207 312.619 311.54 312.908 311.943 313.057C312.355 313.197 312.788 313.267 313.244 313.267C313.585 313.267 313.866 313.25 314.085 313.214C314.304 313.171 314.479 313.136 314.61 313.109L315.241 315.895C315.031 315.974 314.737 316.053 314.36 316.131C313.984 316.219 313.506 316.263 312.928 316.263C312.052 316.263 311.194 316.074 310.353 315.698C309.521 315.321 308.829 314.747 308.277 313.977C307.734 313.206 307.462 312.233 307.462 311.06V290.983ZM319.537 316V295.818H322.638V316H319.537ZM321.114 292.455C320.51 292.455 319.988 292.249 319.55 291.837C319.121 291.425 318.907 290.93 318.907 290.352C318.907 289.774 319.121 289.279 319.55 288.868C319.988 288.456 320.51 288.25 321.114 288.25C321.718 288.25 322.235 288.456 322.664 288.868C323.102 289.279 323.321 289.774 323.321 290.352C323.321 290.93 323.102 291.425 322.664 291.837C322.235 292.249 321.718 292.455 321.114 292.455ZM336.516 316.42C334.694 316.42 333.096 315.987 331.721 315.12C330.354 314.252 329.285 313.039 328.515 311.48C327.753 309.921 327.372 308.099 327.372 306.014C327.372 303.912 327.753 302.077 328.515 300.509C329.285 298.941 330.354 297.723 331.721 296.856C333.096 295.989 334.694 295.555 336.516 295.555C338.338 295.555 339.933 295.989 341.299 296.856C342.674 297.723 343.743 298.941 344.505 300.509C345.276 302.077 345.661 303.912 345.661 306.014C345.661 308.099 345.276 309.921 344.505 311.48C343.743 313.039 342.674 314.252 341.299 315.12C339.933 315.987 338.338 316.42 336.516 316.42ZM336.516 313.635C337.9 313.635 339.039 313.28 339.933 312.571C340.826 311.861 341.487 310.928 341.917 309.772C342.346 308.616 342.56 307.363 342.56 306.014C342.56 304.665 342.346 303.408 341.917 302.243C341.487 301.078 340.826 300.137 339.933 299.418C339.039 298.7 337.9 298.341 336.516 298.341C335.132 298.341 333.994 298.7 333.1 299.418C332.207 300.137 331.545 301.078 331.116 302.243C330.687 303.408 330.472 304.665 330.472 306.014C330.472 307.363 330.687 308.616 331.116 309.772C331.545 310.928 332.207 311.861 333.1 312.571C333.994 313.28 335.132 313.635 336.516 313.635ZM353.496 303.859V316H350.395V295.818H353.39V298.972H353.653C354.126 297.947 354.845 297.123 355.808 296.501C356.772 295.871 358.015 295.555 359.54 295.555C360.906 295.555 362.102 295.836 363.127 296.396C364.151 296.948 364.949 297.789 365.518 298.919C366.087 300.04 366.372 301.459 366.372 303.176V316H363.271V303.386C363.271 301.801 362.859 300.566 362.036 299.681C361.213 298.788 360.083 298.341 358.646 298.341C357.656 298.341 356.772 298.556 355.992 298.985C355.221 299.414 354.612 300.04 354.166 300.864C353.719 301.687 353.496 302.686 353.496 303.859Z" fill="#717171"/>
<path d="M1009.82 271V244.091H1013.08V268.109H1025.59V271H1009.82ZM1036.16 271.473C1034.88 271.473 1033.72 271.232 1032.67 270.75C1031.63 270.26 1030.8 269.555 1030.19 268.635C1029.58 267.706 1029.27 266.585 1029.27 265.271C1029.27 264.115 1029.5 263.178 1029.95 262.46C1030.41 261.732 1031.02 261.163 1031.78 260.751C1032.54 260.34 1033.38 260.033 1034.3 259.832C1035.23 259.621 1036.16 259.455 1037.1 259.332C1038.33 259.175 1039.32 259.056 1040.08 258.978C1040.86 258.89 1041.42 258.746 1041.77 258.544C1042.13 258.343 1042.31 257.992 1042.31 257.493V257.388C1042.31 256.091 1041.95 255.084 1041.24 254.366C1040.54 253.647 1039.48 253.288 1038.05 253.288C1036.57 253.288 1035.41 253.612 1034.57 254.261C1033.73 254.909 1033.13 255.601 1032.79 256.337L1029.85 255.286C1030.37 254.059 1031.08 253.104 1031.95 252.421C1032.84 251.729 1033.8 251.247 1034.84 250.976C1035.89 250.696 1036.93 250.555 1037.94 250.555C1038.59 250.555 1039.34 250.634 1040.18 250.792C1041.03 250.941 1041.85 251.252 1042.63 251.725C1043.43 252.198 1044.09 252.912 1044.62 253.866C1045.14 254.821 1045.41 256.1 1045.41 257.703V271H1042.31V268.267H1042.15C1041.94 268.705 1041.59 269.174 1041.1 269.673C1040.61 270.172 1039.95 270.597 1039.14 270.947C1038.32 271.298 1037.33 271.473 1036.16 271.473ZM1036.63 268.688C1037.86 268.688 1038.89 268.447 1039.73 267.965C1040.58 267.483 1041.22 266.861 1041.65 266.099C1042.09 265.337 1042.31 264.536 1042.31 263.695V260.857C1042.17 261.014 1041.88 261.159 1041.44 261.29C1041 261.413 1040.49 261.522 1039.91 261.619C1039.34 261.706 1038.79 261.785 1038.25 261.855C1037.71 261.916 1037.28 261.969 1036.94 262.013C1036.14 262.118 1035.39 262.289 1034.68 262.525C1033.99 262.753 1033.43 263.099 1033 263.563C1032.58 264.019 1032.37 264.641 1032.37 265.429C1032.37 266.506 1032.77 267.321 1033.57 267.873C1034.37 268.416 1035.39 268.688 1036.63 268.688ZM1065.36 255.338L1062.58 256.126C1062.4 255.662 1062.14 255.211 1061.8 254.773C1061.47 254.326 1061.01 253.958 1060.43 253.669C1059.86 253.38 1059.12 253.236 1058.21 253.236C1056.98 253.236 1055.95 253.52 1055.13 254.09C1054.31 254.65 1053.9 255.364 1053.9 256.232C1053.9 257.002 1054.18 257.611 1054.74 258.058C1055.31 258.505 1056.18 258.877 1057.37 259.175L1060.37 259.911C1062.17 260.348 1063.52 261.019 1064.4 261.921C1065.29 262.814 1065.73 263.966 1065.73 265.376C1065.73 266.533 1065.4 267.566 1064.73 268.477C1064.07 269.388 1063.15 270.107 1061.97 270.632C1060.79 271.158 1059.41 271.42 1057.85 271.42C1055.79 271.42 1054.08 270.974 1052.73 270.08C1051.39 269.187 1050.53 267.882 1050.17 266.165L1053.12 265.429C1053.4 266.515 1053.93 267.33 1054.71 267.873C1055.49 268.416 1056.52 268.688 1057.79 268.688C1059.24 268.688 1060.39 268.381 1061.24 267.768C1062.09 267.146 1062.52 266.401 1062.52 265.534C1062.52 264.833 1062.28 264.246 1061.79 263.773C1061.3 263.292 1060.54 262.933 1059.53 262.696L1056.16 261.908C1054.32 261.47 1052.96 260.791 1052.09 259.871C1051.23 258.943 1050.8 257.782 1050.8 256.389C1050.8 255.25 1051.12 254.243 1051.76 253.367C1052.41 252.491 1053.29 251.804 1054.4 251.304C1055.52 250.805 1056.79 250.555 1058.21 250.555C1060.21 250.555 1061.78 250.993 1062.92 251.869C1064.06 252.745 1064.88 253.902 1065.36 255.338ZM1079.17 250.818V253.446H1068.71V250.818H1079.17ZM1071.76 245.983H1074.86V265.219C1074.86 266.095 1074.99 266.752 1075.25 267.19C1075.51 267.619 1075.84 267.908 1076.24 268.057C1076.66 268.197 1077.09 268.267 1077.54 268.267C1077.89 268.267 1078.17 268.25 1078.39 268.214C1078.6 268.171 1078.78 268.136 1078.91 268.109L1079.54 270.895C1079.33 270.974 1079.04 271.053 1078.66 271.131C1078.28 271.219 1077.81 271.263 1077.23 271.263C1076.35 271.263 1075.49 271.074 1074.65 270.698C1073.82 270.321 1073.13 269.747 1072.58 268.977C1072.03 268.206 1071.76 267.233 1071.76 266.06V245.983ZM940.92 316V289.091H950.012C952.114 289.091 953.84 289.45 955.189 290.168C956.538 290.878 957.536 291.855 958.185 293.098C958.833 294.342 959.157 295.757 959.157 297.342C959.157 298.928 958.833 300.334 958.185 301.56C957.536 302.786 956.542 303.75 955.202 304.451C953.862 305.143 952.149 305.489 950.065 305.489H942.707V302.545H949.959C951.396 302.545 952.552 302.335 953.428 301.915C954.313 301.494 954.952 300.899 955.347 300.128C955.749 299.348 955.951 298.42 955.951 297.342C955.951 296.265 955.749 295.323 955.347 294.517C954.944 293.712 954.3 293.09 953.415 292.652C952.53 292.205 951.361 291.982 949.907 291.982H944.178V316H940.92ZM953.586 303.912L960.208 316H956.424L949.907 303.912H953.586ZM972.411 316.42C970.466 316.42 968.789 315.991 967.379 315.133C965.977 314.266 964.895 313.057 964.133 311.506C963.38 309.947 963.003 308.134 963.003 306.067C963.003 304 963.38 302.178 964.133 300.601C964.895 299.015 965.955 297.78 967.313 296.896C968.68 296.002 970.274 295.555 972.096 295.555C973.147 295.555 974.185 295.731 975.21 296.081C976.235 296.431 977.167 297.001 978.008 297.789C978.849 298.569 979.519 299.602 980.019 300.89C980.518 302.178 980.768 303.763 980.768 305.646V306.96H965.211V304.28H977.614C977.614 303.141 977.386 302.125 976.931 301.232C976.484 300.338 975.845 299.633 975.013 299.116C974.189 298.599 973.217 298.341 972.096 298.341C970.861 298.341 969.792 298.647 968.89 299.261C967.996 299.865 967.309 300.653 966.827 301.626C966.345 302.598 966.104 303.64 966.104 304.753V306.54C966.104 308.064 966.367 309.356 966.893 310.416C967.427 311.467 968.167 312.268 969.113 312.82C970.059 313.363 971.158 313.635 972.411 313.635C973.226 313.635 973.961 313.521 974.618 313.293C975.284 313.057 975.858 312.706 976.34 312.242C976.821 311.769 977.194 311.182 977.456 310.482L980.452 311.322C980.137 312.339 979.607 313.232 978.862 314.003C978.118 314.765 977.198 315.361 976.103 315.79C975.008 316.21 973.778 316.42 972.411 316.42ZM999.254 323.568V312.899H998.992C998.764 313.267 998.44 313.731 998.019 314.292C997.599 314.844 996.999 315.339 996.219 315.777C995.44 316.206 994.402 316.42 993.105 316.42C991.423 316.42 989.939 315.996 988.651 315.146C987.363 314.288 986.356 313.079 985.629 311.52C984.902 309.952 984.539 308.099 984.539 305.962C984.539 303.842 984.902 302.002 985.629 300.443C986.356 298.884 987.368 297.68 988.664 296.83C989.961 295.98 991.459 295.555 993.158 295.555C994.472 295.555 995.51 295.774 996.272 296.212C997.043 296.642 997.63 297.132 998.032 297.684C998.444 298.227 998.764 298.674 998.992 299.024H999.36V295.818H1002.36V323.568H999.254ZM993.526 313.635C994.77 313.635 995.821 313.311 996.679 312.663C997.538 312.006 998.19 311.099 998.637 309.943C999.084 308.778 999.307 307.433 999.307 305.909C999.307 304.402 999.088 303.084 998.65 301.954C998.212 300.815 997.564 299.931 996.705 299.3C995.847 298.661 994.787 298.341 993.526 298.341C992.212 298.341 991.117 298.678 990.241 299.353C989.374 300.018 988.721 300.925 988.283 302.072C987.854 303.211 987.639 304.49 987.639 305.909C987.639 307.346 987.858 308.651 988.296 309.825C988.743 310.99 989.4 311.918 990.267 312.61C991.143 313.293 992.229 313.635 993.526 313.635ZM1020.75 307.749V295.818H1023.85V316H1020.75V312.584H1020.54C1020.07 313.609 1019.33 314.48 1018.33 315.199C1017.33 315.908 1016.07 316.263 1014.55 316.263C1013.29 316.263 1012.17 315.987 1011.18 315.435C1010.2 314.874 1009.43 314.033 1008.87 312.912C1008.31 311.782 1008.03 310.359 1008.03 308.642V295.818H1011.13V308.432C1011.13 309.903 1011.54 311.077 1012.37 311.953C1013.2 312.829 1014.26 313.267 1015.55 313.267C1016.32 313.267 1017.1 313.07 1017.9 312.676C1018.7 312.282 1019.38 311.677 1019.92 310.863C1020.47 310.048 1020.75 309.01 1020.75 307.749ZM1037.99 316.42C1036.05 316.42 1034.37 315.991 1032.96 315.133C1031.56 314.266 1030.48 313.057 1029.71 311.506C1028.96 309.947 1028.58 308.134 1028.58 306.067C1028.58 304 1028.96 302.178 1029.71 300.601C1030.48 299.015 1031.54 297.78 1032.89 296.896C1034.26 296.002 1035.85 295.555 1037.68 295.555C1038.73 295.555 1039.77 295.731 1040.79 296.081C1041.82 296.431 1042.75 297.001 1043.59 297.789C1044.43 298.569 1045.1 299.602 1045.6 300.89C1046.1 302.178 1046.35 303.763 1046.35 305.646V306.96H1030.79V304.28H1043.2C1043.2 303.141 1042.97 302.125 1042.51 301.232C1042.07 300.338 1041.43 299.633 1040.59 299.116C1039.77 298.599 1038.8 298.341 1037.68 298.341C1036.44 298.341 1035.37 298.647 1034.47 299.261C1033.58 299.865 1032.89 300.653 1032.41 301.626C1031.93 302.598 1031.69 303.64 1031.69 304.753V306.54C1031.69 308.064 1031.95 309.356 1032.47 310.416C1033.01 311.467 1033.75 312.268 1034.69 312.82C1035.64 313.363 1036.74 313.635 1037.99 313.635C1038.81 313.635 1039.54 313.521 1040.2 313.293C1040.87 313.057 1041.44 312.706 1041.92 312.242C1042.4 311.769 1042.77 311.182 1043.04 310.482L1046.03 311.322C1045.72 312.339 1045.19 313.232 1044.44 314.003C1043.7 314.765 1042.78 315.361 1041.68 315.79C1040.59 316.21 1039.36 316.42 1037.99 316.42ZM1065.36 300.338L1062.58 301.126C1062.4 300.662 1062.14 300.211 1061.8 299.773C1061.47 299.326 1061.01 298.958 1060.43 298.669C1059.86 298.38 1059.12 298.236 1058.21 298.236C1056.98 298.236 1055.95 298.52 1055.13 299.09C1054.31 299.65 1053.9 300.364 1053.9 301.232C1053.9 302.002 1054.18 302.611 1054.74 303.058C1055.31 303.505 1056.18 303.877 1057.37 304.175L1060.37 304.911C1062.17 305.348 1063.52 306.019 1064.4 306.921C1065.29 307.814 1065.73 308.966 1065.73 310.376C1065.73 311.533 1065.4 312.566 1064.73 313.477C1064.07 314.388 1063.15 315.107 1061.97 315.632C1060.79 316.158 1059.41 316.42 1057.85 316.42C1055.79 316.42 1054.08 315.974 1052.73 315.08C1051.39 314.187 1050.53 312.882 1050.17 311.165L1053.12 310.429C1053.4 311.515 1053.93 312.33 1054.71 312.873C1055.49 313.416 1056.52 313.688 1057.79 313.688C1059.24 313.688 1060.39 313.381 1061.24 312.768C1062.09 312.146 1062.52 311.401 1062.52 310.534C1062.52 309.833 1062.28 309.246 1061.79 308.773C1061.3 308.292 1060.54 307.933 1059.53 307.696L1056.16 306.908C1054.32 306.47 1052.96 305.791 1052.09 304.871C1051.23 303.943 1050.8 302.782 1050.8 301.389C1050.8 300.25 1051.12 299.243 1051.76 298.367C1052.41 297.491 1053.29 296.804 1054.4 296.304C1055.52 295.805 1056.79 295.555 1058.21 295.555C1060.21 295.555 1061.78 295.993 1062.92 296.869C1064.06 297.745 1064.88 298.902 1065.36 300.338ZM1079.17 295.818V298.446H1068.71V295.818H1079.17ZM1071.76 290.983H1074.86V310.219C1074.86 311.095 1074.99 311.752 1075.25 312.19C1075.51 312.619 1075.84 312.908 1076.24 313.057C1076.66 313.197 1077.09 313.267 1077.54 313.267C1077.89 313.267 1078.17 313.25 1078.39 313.214C1078.6 313.171 1078.78 313.136 1078.91 313.109L1079.54 315.895C1079.33 315.974 1079.04 316.053 1078.66 316.131C1078.28 316.219 1077.81 316.263 1077.23 316.263C1076.35 316.263 1075.49 316.074 1074.65 315.698C1073.82 315.321 1073.13 314.747 1072.58 313.977C1072.03 313.206 1071.76 312.233 1071.76 311.06V290.983Z" fill="#717171"/>
<path d="M168.181 170.398C166.306 170.398 164.634 170.076 163.167 169.432C161.708 168.788 160.548 167.893 159.686 166.747C158.834 165.592 158.37 164.252 158.294 162.727H161.874C161.95 163.665 162.272 164.474 162.84 165.156C163.408 165.829 164.151 166.349 165.07 166.719C165.989 167.088 167.007 167.273 168.124 167.273C169.374 167.273 170.482 167.055 171.448 166.619C172.414 166.184 173.171 165.578 173.721 164.801C174.27 164.025 174.544 163.125 174.544 162.102C174.544 161.032 174.279 160.09 173.749 159.276C173.219 158.452 172.442 157.808 171.419 157.344C170.397 156.88 169.147 156.648 167.669 156.648H165.34V153.523H167.669C168.825 153.523 169.838 153.314 170.709 152.898C171.59 152.481 172.276 151.894 172.769 151.136C173.271 150.379 173.522 149.489 173.522 148.466C173.522 147.481 173.304 146.624 172.868 145.895C172.433 145.166 171.817 144.598 171.022 144.19C170.236 143.783 169.308 143.58 168.238 143.58C167.234 143.58 166.287 143.764 165.397 144.134C164.516 144.493 163.796 145.019 163.238 145.71C162.679 146.392 162.376 147.216 162.328 148.182H158.919C158.976 146.657 159.435 145.322 160.297 144.176C161.159 143.021 162.286 142.121 163.678 141.477C165.079 140.833 166.618 140.511 168.294 140.511C170.094 140.511 171.637 140.876 172.925 141.605C174.213 142.325 175.203 143.277 175.894 144.46C176.585 145.644 176.931 146.922 176.931 148.295C176.931 149.934 176.5 151.33 175.638 152.486C174.786 153.641 173.626 154.441 172.158 154.886V155.114C173.995 155.417 175.43 156.198 176.462 157.457C177.494 158.707 178.01 160.256 178.01 162.102C178.01 163.684 177.579 165.104 176.718 166.364C175.865 167.614 174.701 168.598 173.223 169.318C171.746 170.038 170.065 170.398 168.181 170.398ZM184.729 170L197.74 144.261V144.034H182.74V140.909H201.377V144.205L188.422 170H184.729Z" fill="white"/>
<path d="M286.7 170.398C285.033 170.398 283.532 170.066 282.197 169.403C280.862 168.741 279.792 167.831 278.987 166.676C278.182 165.521 277.742 164.205 277.666 162.727H281.075C281.208 164.044 281.804 165.133 282.865 165.994C283.935 166.847 285.213 167.273 286.7 167.273C287.893 167.273 288.954 166.993 289.882 166.435C290.819 165.876 291.553 165.109 292.083 164.134C292.623 163.149 292.893 162.036 292.893 160.795C292.893 159.527 292.614 158.395 292.055 157.401C291.506 156.397 290.748 155.606 289.782 155.028C288.816 154.451 287.713 154.157 286.473 154.148C285.583 154.138 284.669 154.276 283.731 154.56C282.794 154.834 282.022 155.189 281.416 155.625L278.12 155.227L279.882 140.909H294.995V144.034H282.836L281.814 152.614H281.984C282.581 152.14 283.329 151.747 284.228 151.435C285.128 151.122 286.065 150.966 287.041 150.966C288.821 150.966 290.407 151.392 291.799 152.244C293.201 153.087 294.299 154.242 295.095 155.71C295.9 157.178 296.302 158.854 296.302 160.739C296.302 162.595 295.886 164.252 295.052 165.71C294.228 167.159 293.092 168.305 291.643 169.148C290.194 169.981 288.547 170.398 286.7 170.398ZM311.775 170.398C309.9 170.398 308.228 170.076 306.76 169.432C305.302 168.788 304.142 167.893 303.28 166.747C302.428 165.592 301.964 164.252 301.888 162.727H305.468C305.543 163.665 305.865 164.474 306.434 165.156C307.002 165.829 307.745 166.349 308.664 166.719C309.582 167.088 310.6 167.273 311.718 167.273C312.968 167.273 314.076 167.055 315.042 166.619C316.007 166.184 316.765 165.578 317.314 164.801C317.864 164.025 318.138 163.125 318.138 162.102C318.138 161.032 317.873 160.09 317.343 159.276C316.812 158.452 316.036 157.808 315.013 157.344C313.99 156.88 312.74 156.648 311.263 156.648H308.934V153.523H311.263C312.418 153.523 313.432 153.314 314.303 152.898C315.184 152.481 315.87 151.894 316.363 151.136C316.864 150.379 317.115 149.489 317.115 148.466C317.115 147.481 316.898 146.624 316.462 145.895C316.026 145.166 315.411 144.598 314.615 144.19C313.829 143.783 312.901 143.58 311.831 143.58C310.828 143.58 309.881 143.764 308.99 144.134C308.11 144.493 307.39 145.019 306.831 145.71C306.273 146.392 305.97 147.216 305.922 148.182H302.513C302.57 146.657 303.029 145.322 303.891 144.176C304.753 143.021 305.88 142.121 307.272 141.477C308.673 140.833 310.212 140.511 311.888 140.511C313.687 140.511 315.231 140.876 316.519 141.605C317.807 142.325 318.796 143.277 319.488 144.46C320.179 145.644 320.525 146.922 320.525 148.295C320.525 149.934 320.094 151.33 319.232 152.486C318.38 153.641 317.22 154.441 315.752 154.886V155.114C317.589 155.417 319.024 156.198 320.056 157.457C321.088 158.707 321.604 160.256 321.604 162.102C321.604 163.684 321.173 165.104 320.311 166.364C319.459 167.614 318.294 168.598 316.817 169.318C315.34 170.038 313.659 170.398 311.775 170.398Z" fill="white"/>
<path d="M407.522 170.398C406.329 170.379 405.136 170.152 403.942 169.716C402.749 169.28 401.66 168.546 400.675 167.514C399.691 166.473 398.9 165.066 398.303 163.295C397.707 161.515 397.408 159.28 397.408 156.591C397.408 154.015 397.65 151.733 398.133 149.744C398.616 147.746 399.317 146.065 400.235 144.702C401.154 143.329 402.262 142.287 403.559 141.577C404.866 140.866 406.338 140.511 407.977 140.511C409.605 140.511 411.054 140.838 412.323 141.491C413.602 142.135 414.643 143.035 415.448 144.19C416.253 145.346 416.774 146.676 417.011 148.182H413.545C413.223 146.875 412.598 145.791 411.67 144.929C410.742 144.067 409.511 143.636 407.977 143.636C405.723 143.636 403.947 144.616 402.65 146.577C401.362 148.537 400.713 151.288 400.704 154.83H400.931C401.461 154.025 402.091 153.338 402.82 152.77C403.559 152.192 404.373 151.747 405.263 151.435C406.154 151.122 407.096 150.966 408.09 150.966C409.757 150.966 411.281 151.383 412.664 152.216C414.047 153.04 415.155 154.181 415.988 155.639C416.821 157.088 417.238 158.75 417.238 160.625C417.238 162.424 416.835 164.072 416.031 165.568C415.226 167.055 414.094 168.239 412.636 169.119C411.187 169.991 409.482 170.417 407.522 170.398ZM407.522 167.273C408.715 167.273 409.785 166.974 410.732 166.378C411.689 165.781 412.442 164.981 412.991 163.977C413.549 162.973 413.829 161.856 413.829 160.625C413.829 159.422 413.559 158.329 413.019 157.344C412.489 156.349 411.755 155.559 410.817 154.972C409.889 154.384 408.829 154.091 407.636 154.091C406.736 154.091 405.898 154.271 405.121 154.631C404.345 154.981 403.663 155.464 403.076 156.08C402.498 156.695 402.044 157.401 401.712 158.196C401.381 158.982 401.215 159.811 401.215 160.682C401.215 161.837 401.485 162.917 402.025 163.92C402.574 164.924 403.322 165.734 404.269 166.349C405.226 166.965 406.31 167.273 407.522 167.273ZM431.915 170.398C430.248 170.398 428.747 170.066 427.412 169.403C426.077 168.741 425.007 167.831 424.202 166.676C423.397 165.521 422.956 164.205 422.881 162.727H426.29C426.422 164.044 427.019 165.133 428.08 165.994C429.15 166.847 430.428 167.273 431.915 167.273C433.108 167.273 434.169 166.993 435.097 166.435C436.034 165.876 436.768 165.109 437.298 164.134C437.838 163.149 438.108 162.036 438.108 160.795C438.108 159.527 437.829 158.395 437.27 157.401C436.721 156.397 435.963 155.606 434.997 155.028C434.031 154.451 432.928 154.157 431.688 154.148C430.797 154.138 429.884 154.276 428.946 154.56C428.009 154.834 427.237 155.189 426.631 155.625L423.335 155.227L425.097 140.909H440.21V144.034H428.051L427.028 152.614H427.199C427.795 152.14 428.544 151.747 429.443 151.435C430.343 151.122 431.28 150.966 432.256 150.966C434.036 150.966 435.622 151.392 437.014 152.244C438.416 153.087 439.514 154.242 440.31 155.71C441.115 157.178 441.517 158.854 441.517 160.739C441.517 162.595 441.1 164.252 440.267 165.71C439.443 167.159 438.307 168.305 436.858 169.148C435.409 169.981 433.761 170.398 431.915 170.398Z" fill="white"/>
<path d="M345.25 32.4545C345.25 35.6269 344.648 38.3258 343.446 40.5511C342.252 42.7765 340.624 44.4763 338.559 45.6506C336.504 46.8153 334.194 47.3977 331.627 47.3977C329.042 47.3977 326.722 46.8106 324.667 45.6364C322.612 44.4621 320.988 42.7623 319.795 40.5369C318.602 38.3116 318.005 35.6174 318.005 32.4545C318.005 29.2822 318.602 26.5833 319.795 24.358C320.988 22.1326 322.612 20.4375 324.667 19.2727C326.722 18.0985 329.042 17.5114 331.627 17.5114C334.194 17.5114 336.504 18.0985 338.559 19.2727C340.624 20.4375 342.252 22.1326 343.446 24.358C344.648 26.5833 345.25 29.2822 345.25 32.4545ZM339.014 32.4545C339.014 30.3996 338.706 28.6667 338.091 27.2557C337.484 25.8447 336.627 24.7746 335.52 24.0455C334.412 23.3163 333.114 22.9517 331.627 22.9517C330.141 22.9517 328.843 23.3163 327.735 24.0455C326.627 24.7746 325.766 25.8447 325.15 27.2557C324.544 28.6667 324.241 30.3996 324.241 32.4545C324.241 34.5095 324.544 36.2424 325.15 37.6534C325.766 39.0644 326.627 40.1345 327.735 40.8636C328.843 41.5928 330.141 41.9574 331.627 41.9574C333.114 41.9574 334.412 41.5928 335.52 40.8636C336.627 40.1345 337.484 39.0644 338.091 37.6534C338.706 36.2424 339.014 34.5095 339.014 32.4545ZM349.692 47V25.1818H355.559V28.9886H355.786C356.184 27.6345 356.851 26.6117 357.789 25.9205C358.726 25.2197 359.806 24.8693 361.027 24.8693C361.33 24.8693 361.657 24.8883 362.007 24.9261C362.358 24.964 362.666 25.0161 362.931 25.0824V30.4517C362.647 30.3665 362.254 30.2907 361.752 30.2244C361.25 30.1581 360.791 30.125 360.374 30.125C359.484 30.125 358.688 30.3191 357.988 30.7074C357.296 31.0862 356.747 31.6165 356.34 32.2983C355.942 32.9801 355.743 33.7661 355.743 34.6562V47H349.692ZM373.083 47.3551C371.426 47.3551 369.925 46.929 368.581 46.0767C367.245 45.215 366.185 43.9508 365.399 42.2841C364.622 40.608 364.234 38.553 364.234 36.1193C364.234 33.6193 364.636 31.5407 365.441 29.8835C366.246 28.2169 367.316 26.9716 368.652 26.1477C369.996 25.3144 371.469 24.8977 373.069 24.8977C374.291 24.8977 375.309 25.1061 376.123 25.5227C376.947 25.9299 377.61 26.4413 378.112 27.0568C378.623 27.6629 379.011 28.2595 379.277 28.8466H379.461V17.9091H385.498V47H379.532V43.5057H379.277C378.993 44.1117 378.59 44.7131 378.069 45.3097C377.558 45.8968 376.89 46.3845 376.066 46.7727C375.252 47.161 374.258 47.3551 373.083 47.3551ZM375.001 42.5398C375.976 42.5398 376.8 42.2746 377.473 41.7443C378.154 41.2045 378.675 40.4517 379.035 39.4858C379.404 38.5199 379.589 37.3883 379.589 36.0909C379.589 34.7936 379.409 33.6667 379.049 32.7102C378.69 31.7538 378.169 31.0152 377.487 30.4943C376.805 29.9735 375.976 29.7131 375.001 29.7131C374.007 29.7131 373.169 29.983 372.487 30.5227C371.805 31.0625 371.289 31.8106 370.939 32.767C370.588 33.7235 370.413 34.8314 370.413 36.0909C370.413 37.3598 370.588 38.482 370.939 39.4574C371.298 40.4233 371.815 41.1809 372.487 41.7301C373.169 42.2699 374.007 42.5398 375.001 42.5398ZM400.417 47.4261C398.172 47.4261 396.24 46.9716 394.621 46.0625C393.011 45.1439 391.771 43.8466 390.9 42.1705C390.028 40.4848 389.593 38.4915 389.593 36.1903C389.593 33.946 390.028 31.9763 390.9 30.2812C391.771 28.5862 392.997 27.2652 394.578 26.3182C396.169 25.3712 398.035 24.8977 400.175 24.8977C401.614 24.8977 402.954 25.1297 404.195 25.5938C405.445 26.0483 406.534 26.7348 407.462 27.6534C408.4 28.572 409.129 29.7273 409.65 31.1193C410.17 32.5019 410.431 34.1212 410.431 35.9773V37.6392H392.007V33.8892H404.735C404.735 33.018 404.545 32.2462 404.167 31.5739C403.788 30.9015 403.262 30.3759 402.59 29.9972C401.927 29.6089 401.155 29.4148 400.275 29.4148C399.356 29.4148 398.542 29.6278 397.831 30.054C397.131 30.4706 396.581 31.0341 396.184 31.7443C395.786 32.4451 395.582 33.2263 395.573 34.0881V37.6534C395.573 38.733 395.772 39.6657 396.169 40.4517C396.577 41.2377 397.15 41.8438 397.888 42.2699C398.627 42.696 399.503 42.9091 400.516 42.9091C401.188 42.9091 401.804 42.8144 402.363 42.625C402.921 42.4356 403.4 42.1515 403.797 41.7727C404.195 41.3939 404.498 40.9299 404.706 40.3807L410.303 40.75C410.019 42.0947 409.436 43.2689 408.556 44.2727C407.685 45.267 406.558 46.0436 405.175 46.6023C403.802 47.1515 402.216 47.4261 400.417 47.4261ZM414.38 47V25.1818H420.246V28.9886H420.473C420.871 27.6345 421.539 26.6117 422.476 25.9205C423.414 25.2197 424.493 24.8693 425.715 24.8693C426.018 24.8693 426.345 24.8883 426.695 24.9261C427.045 24.964 427.353 25.0161 427.618 25.0824V30.4517C427.334 30.3665 426.941 30.2907 426.439 30.2244C425.937 30.1581 425.478 30.125 425.061 30.125C424.171 30.125 423.376 30.3191 422.675 30.7074C421.984 31.0862 421.435 31.6165 421.027 32.2983C420.63 32.9801 420.431 33.7661 420.431 34.6562V47H414.38ZM439.674 47.4261C437.43 47.4261 435.498 46.9716 433.879 46.0625C432.269 45.1439 431.029 43.8466 430.157 42.1705C429.286 40.4848 428.85 38.4915 428.85 36.1903C428.85 33.946 429.286 31.9763 430.157 30.2812C431.029 28.5862 432.255 27.2652 433.836 26.3182C435.427 25.3712 437.293 24.8977 439.433 24.8977C440.872 24.8977 442.212 25.1297 443.453 25.5938C444.703 26.0483 445.792 26.7348 446.72 27.6534C447.657 28.572 448.386 29.7273 448.907 31.1193C449.428 32.5019 449.689 34.1212 449.689 35.9773V37.6392H431.265V33.8892H443.993C443.993 33.018 443.803 32.2462 443.424 31.5739C443.046 30.9015 442.52 30.3759 441.848 29.9972C441.185 29.6089 440.413 29.4148 439.532 29.4148C438.614 29.4148 437.799 29.6278 437.089 30.054C436.388 30.4706 435.839 31.0341 435.441 31.7443C435.044 32.4451 434.84 33.2263 434.831 34.0881V37.6534C434.831 38.733 435.029 39.6657 435.427 40.4517C435.834 41.2377 436.407 41.8438 437.146 42.2699C437.885 42.696 438.761 42.9091 439.774 42.9091C440.446 42.9091 441.062 42.8144 441.62 42.625C442.179 42.4356 442.657 42.1515 443.055 41.7727C443.453 41.3939 443.756 40.9299 443.964 40.3807L449.561 40.75C449.277 42.0947 448.694 43.2689 447.814 44.2727C446.942 45.267 445.815 46.0436 444.433 46.6023C443.06 47.1515 441.474 47.4261 439.674 47.4261ZM461.677 47.3551C460.02 47.3551 458.519 46.929 457.174 46.0767C455.839 45.215 454.779 43.9508 453.993 42.2841C453.216 40.608 452.828 38.553 452.828 36.1193C452.828 33.6193 453.23 31.5407 454.035 29.8835C454.84 28.2169 455.91 26.9716 457.245 26.1477C458.59 25.3144 460.063 24.8977 461.663 24.8977C462.885 24.8977 463.903 25.1061 464.717 25.5227C465.541 25.9299 466.204 26.4413 466.706 27.0568C467.217 27.6629 467.605 28.2595 467.87 28.8466H468.055V17.9091H474.092V47H468.126V43.5057H467.87C467.586 44.1117 467.184 44.7131 466.663 45.3097C466.152 45.8968 465.484 46.3845 464.66 46.7727C463.846 47.161 462.851 47.3551 461.677 47.3551ZM463.595 42.5398C464.57 42.5398 465.394 42.2746 466.066 41.7443C466.748 41.2045 467.269 40.4517 467.629 39.4858C467.998 38.5199 468.183 37.3883 468.183 36.0909C468.183 34.7936 468.003 33.6667 467.643 32.7102C467.283 31.7538 466.762 31.0152 466.081 30.4943C465.399 29.9735 464.57 29.7131 463.595 29.7131C462.6 29.7131 461.762 29.983 461.081 30.5227C460.399 31.0625 459.883 31.8106 459.532 32.767C459.182 33.7235 459.007 34.8314 459.007 36.0909C459.007 37.3598 459.182 38.482 459.532 39.4574C459.892 40.4233 460.408 41.1809 461.081 41.7301C461.762 42.2699 462.6 42.5398 463.595 42.5398ZM498.751 47H488.439V17.9091H498.836C501.762 17.9091 504.281 18.4915 506.393 19.6562C508.505 20.8116 510.129 22.4735 511.265 24.642C512.411 26.8106 512.984 29.4053 512.984 32.4261C512.984 35.4564 512.411 38.0606 511.265 40.2386C510.129 42.4167 508.495 44.0881 506.365 45.2528C504.243 46.4176 501.706 47 498.751 47ZM494.589 41.7301H498.495C500.314 41.7301 501.843 41.4081 503.083 40.7642C504.333 40.1108 505.271 39.1023 505.896 37.7386C506.53 36.3655 506.848 34.5947 506.848 32.4261C506.848 30.2765 506.53 28.5199 505.896 27.1562C505.271 25.7926 504.338 24.7888 503.098 24.1449C501.857 23.5009 500.328 23.179 498.51 23.179H494.589V41.7301ZM517.426 47V25.1818H523.478V47H517.426ZM520.466 22.3693C519.567 22.3693 518.795 22.071 518.151 21.4744C517.516 20.8684 517.199 20.1439 517.199 19.3011C517.199 18.4678 517.516 17.7528 518.151 17.1562C518.795 16.5502 519.567 16.2472 520.466 16.2472C521.366 16.2472 522.133 16.5502 522.767 17.1562C523.411 17.7528 523.733 18.4678 523.733 19.3011C523.733 20.1439 523.411 20.8684 522.767 21.4744C522.133 22.071 521.366 22.3693 520.466 22.3693ZM546.478 31.4034L540.939 31.7443C540.844 31.2708 540.64 30.8447 540.328 30.4659C540.015 30.0777 539.603 29.7699 539.092 29.5426C538.59 29.3059 537.989 29.1875 537.288 29.1875C536.35 29.1875 535.56 29.3864 534.916 29.7841C534.272 30.1723 533.95 30.6932 533.95 31.3466C533.95 31.8674 534.158 32.3078 534.575 32.6676C534.992 33.0275 535.707 33.3163 536.72 33.5341L540.669 34.3295C542.79 34.7652 544.371 35.4659 545.413 36.4318C546.455 37.3977 546.975 38.6667 546.975 40.2386C546.975 41.6686 546.554 42.9233 545.711 44.0028C544.878 45.0824 543.732 45.9252 542.274 46.5312C540.825 47.1278 539.154 47.4261 537.26 47.4261C534.371 47.4261 532.07 46.8248 530.356 45.6222C528.652 44.41 527.653 42.7623 527.359 40.679L533.311 40.3665C533.491 41.2472 533.926 41.9195 534.618 42.3835C535.309 42.8381 536.194 43.0653 537.274 43.0653C538.334 43.0653 539.187 42.8617 539.831 42.4545C540.484 42.0379 540.815 41.5028 540.825 40.8494C540.815 40.3002 540.583 39.8504 540.129 39.5C539.674 39.1402 538.974 38.8655 538.027 38.6761L534.248 37.9233C532.118 37.4972 530.531 36.7585 529.49 35.7074C528.458 34.6562 527.941 33.3163 527.941 31.6875C527.941 30.286 528.32 29.0786 529.078 28.0653C529.845 27.0521 530.92 26.2708 532.302 25.7216C533.694 25.1723 535.323 24.8977 537.189 24.8977C539.944 24.8977 542.113 25.4801 543.694 26.6449C545.285 27.8097 546.213 29.3958 546.478 31.4034ZM556.269 40.7216L556.283 33.4631H557.164L564.152 25.1818H571.098L561.709 36.1477H560.275L556.269 40.7216ZM550.786 47V17.9091H556.837V47H550.786ZM564.422 47L558.002 37.4972L562.036 33.2216L571.51 47H564.422ZM583.439 47V17.9091H594.916C597.113 17.9091 598.988 18.3021 600.541 19.0881C602.103 19.8646 603.292 20.9678 604.106 22.3977C604.93 23.8182 605.342 25.4896 605.342 27.4119C605.342 29.3437 604.925 31.0057 604.092 32.3977C603.259 33.7803 602.051 34.8409 600.47 35.5795C598.898 36.3182 596.994 36.6875 594.76 36.6875H587.075V31.7443H593.765C594.94 31.7443 595.915 31.5833 596.691 31.2614C597.468 30.9394 598.046 30.4564 598.424 29.8125C598.813 29.1686 599.007 28.3684 599.007 27.4119C599.007 26.446 598.813 25.6316 598.424 24.9688C598.046 24.3059 597.463 23.804 596.677 23.4631C595.901 23.1127 594.921 22.9375 593.737 22.9375H589.589V47H583.439ZM599.149 33.7614L606.379 47H599.589L592.515 33.7614H599.149ZM619.167 47.4261C616.922 47.4261 614.99 46.9716 613.371 46.0625C611.761 45.1439 610.521 43.8466 609.65 42.1705C608.778 40.4848 608.343 38.4915 608.343 36.1903C608.343 33.946 608.778 31.9763 609.65 30.2812C610.521 28.5862 611.747 27.2652 613.328 26.3182C614.919 25.3712 616.785 24.8977 618.925 24.8977C620.364 24.8977 621.704 25.1297 622.945 25.5938C624.195 26.0483 625.284 26.7348 626.212 27.6534C627.15 28.572 627.879 29.7273 628.4 31.1193C628.92 32.5019 629.181 34.1212 629.181 35.9773V37.6392H610.757V33.8892H623.485C623.485 33.018 623.295 32.2462 622.917 31.5739C622.538 30.9015 622.012 30.3759 621.34 29.9972C620.677 29.6089 619.905 29.4148 619.025 29.4148C618.106 29.4148 617.292 29.6278 616.581 30.054C615.881 30.4706 615.331 31.0341 614.934 31.7443C614.536 32.4451 614.332 33.2263 614.323 34.0881V37.6534C614.323 38.733 614.522 39.6657 614.919 40.4517C615.327 41.2377 615.9 41.8438 616.638 42.2699C617.377 42.696 618.253 42.9091 619.266 42.9091C619.938 42.9091 620.554 42.8144 621.113 42.625C621.671 42.4356 622.15 42.1515 622.547 41.7727C622.945 41.3939 623.248 40.9299 623.456 40.3807L629.053 40.75C628.769 42.0947 628.186 43.2689 627.306 44.2727C626.435 45.267 625.308 46.0436 623.925 46.6023C622.552 47.1515 620.966 47.4261 619.167 47.4261ZM647.547 55.1818V43.5057H647.363C647.078 44.1117 646.676 44.7131 646.155 45.3097C645.644 45.8968 644.976 46.3845 644.152 46.7727C643.338 47.161 642.344 47.3551 641.169 47.3551C639.512 47.3551 638.011 46.929 636.667 46.0767C635.331 45.215 634.271 43.9508 633.485 42.2841C632.708 40.608 632.32 38.553 632.32 36.1193C632.32 33.6193 632.722 31.5407 633.527 29.8835C634.332 28.2169 635.402 26.9716 636.738 26.1477C638.082 25.3144 639.555 24.8977 641.155 24.8977C642.377 24.8977 643.395 25.1061 644.209 25.5227C645.033 25.9299 645.696 26.4413 646.198 27.0568C646.709 27.6629 647.097 28.2595 647.363 28.8466H647.618V25.1818H653.584V55.1818H647.547ZM643.087 42.5398C644.062 42.5398 644.886 42.2746 645.559 41.7443C646.24 41.2045 646.761 40.4517 647.121 39.4858C647.49 38.5199 647.675 37.3883 647.675 36.0909C647.675 34.7936 647.495 33.6667 647.135 32.7102C646.775 31.7538 646.255 31.0152 645.573 30.4943C644.891 29.9735 644.062 29.7131 643.087 29.7131C642.093 29.7131 641.255 29.983 640.573 30.5227C639.891 31.0625 639.375 31.8106 639.025 32.767C638.674 33.7235 638.499 34.8314 638.499 36.0909C638.499 37.3598 638.674 38.482 639.025 39.4574C639.384 40.4233 639.9 41.1809 640.573 41.7301C641.255 42.2699 642.093 42.5398 643.087 42.5398ZM672.434 37.7102V25.1818H678.485V47H672.675V43.0369H672.448C671.955 44.3153 671.136 45.3428 669.99 46.1193C668.854 46.8958 667.467 47.2841 665.828 47.2841C664.37 47.2841 663.087 46.9527 661.979 46.2898C660.871 45.6269 660.005 44.6847 659.38 43.4631C658.764 42.2415 658.452 40.7784 658.442 39.0739V25.1818H664.493V37.9943C664.503 39.2822 664.848 40.3002 665.53 41.0483C666.212 41.7964 667.126 42.1705 668.272 42.1705C669.001 42.1705 669.683 42.0047 670.317 41.6733C670.952 41.3324 671.463 40.8305 671.851 40.1676C672.249 39.5047 672.443 38.6856 672.434 37.7102ZM693.268 47.4261C691.024 47.4261 689.092 46.9716 687.473 46.0625C685.863 45.1439 684.622 43.8466 683.751 42.1705C682.88 40.4848 682.444 38.4915 682.444 36.1903C682.444 33.946 682.88 31.9763 683.751 30.2812C684.622 28.5862 685.849 27.2652 687.43 26.3182C689.021 25.3712 690.886 24.8977 693.027 24.8977C694.466 24.8977 695.806 25.1297 697.047 25.5938C698.297 26.0483 699.386 26.7348 700.314 27.6534C701.251 28.572 701.98 29.7273 702.501 31.1193C703.022 32.5019 703.282 34.1212 703.282 35.9773V37.6392H684.859V33.8892H697.586C697.586 33.018 697.397 32.2462 697.018 31.5739C696.639 30.9015 696.114 30.3759 695.441 29.9972C694.779 29.6089 694.007 29.4148 693.126 29.4148C692.208 29.4148 691.393 29.6278 690.683 30.054C689.982 30.4706 689.433 31.0341 689.035 31.7443C688.637 32.4451 688.434 33.2263 688.424 34.0881V37.6534C688.424 38.733 688.623 39.6657 689.021 40.4517C689.428 41.2377 690.001 41.8438 690.74 42.2699C691.478 42.696 692.354 42.9091 693.368 42.9091C694.04 42.9091 694.655 42.8144 695.214 42.625C695.773 42.4356 696.251 42.1515 696.649 41.7727C697.047 41.3939 697.35 40.9299 697.558 40.3807L703.154 40.75C702.87 42.0947 702.288 43.2689 701.407 44.2727C700.536 45.267 699.409 46.0436 698.027 46.6023C696.654 47.1515 695.067 47.4261 693.268 47.4261ZM725.385 31.4034L719.845 31.7443C719.75 31.2708 719.547 30.8447 719.234 30.4659C718.922 30.0777 718.51 29.7699 717.998 29.5426C717.496 29.3059 716.895 29.1875 716.194 29.1875C715.257 29.1875 714.466 29.3864 713.822 29.7841C713.178 30.1723 712.856 30.6932 712.856 31.3466C712.856 31.8674 713.065 32.3078 713.481 32.6676C713.898 33.0275 714.613 33.3163 715.626 33.5341L719.575 34.3295C721.696 34.7652 723.278 35.4659 724.319 36.4318C725.361 37.3977 725.882 38.6667 725.882 40.2386C725.882 41.6686 725.46 42.9233 724.618 44.0028C723.784 45.0824 722.638 45.9252 721.18 46.5312C719.731 47.1278 718.06 47.4261 716.166 47.4261C713.278 47.4261 710.976 46.8248 709.262 45.6222C707.558 44.41 706.559 42.7623 706.265 40.679L712.217 40.3665C712.397 41.2472 712.833 41.9195 713.524 42.3835C714.215 42.8381 715.1 43.0653 716.18 43.0653C717.241 43.0653 718.093 42.8617 718.737 42.4545C719.39 42.0379 719.722 41.5028 719.731 40.8494C719.722 40.3002 719.49 39.8504 719.035 39.5C718.581 39.1402 717.88 38.8655 716.933 38.6761L713.154 37.9233C711.024 37.4972 709.438 36.7585 708.396 35.7074C707.364 34.6562 706.848 33.3163 706.848 31.6875C706.848 30.286 707.226 29.0786 707.984 28.0653C708.751 27.0521 709.826 26.2708 711.208 25.7216C712.6 25.1723 714.229 24.8977 716.095 24.8977C718.85 24.8977 721.019 25.4801 722.6 26.6449C724.191 27.8097 725.119 29.3958 725.385 31.4034ZM741.297 25.1818V29.7273H728.158V25.1818H741.297ZM731.141 19.9545H737.192V40.2955C737.192 40.8542 737.277 41.2898 737.448 41.6023C737.618 41.9053 737.855 42.1184 738.158 42.2415C738.471 42.3646 738.83 42.4261 739.238 42.4261C739.522 42.4261 739.806 42.4025 740.09 42.3551C740.374 42.2983 740.592 42.2557 740.743 42.2273L741.695 46.7301C741.392 46.8248 740.966 46.9337 740.417 47.0568C739.867 47.1894 739.2 47.2699 738.414 47.2983C736.955 47.3551 735.677 47.161 734.578 46.7159C733.489 46.2708 732.642 45.5795 732.036 44.642C731.43 43.7045 731.132 42.5208 731.141 41.0909V19.9545ZM763.119 31.4034L757.579 31.7443C757.484 31.2708 757.281 30.8447 756.968 30.4659C756.656 30.0777 756.244 29.7699 755.733 29.5426C755.231 29.3059 754.629 29.1875 753.929 29.1875C752.991 29.1875 752.2 29.3864 751.556 29.7841C750.913 30.1723 750.591 30.6932 750.591 31.3466C750.591 31.8674 750.799 32.3078 751.216 32.6676C751.632 33.0275 752.347 33.3163 753.36 33.5341L757.309 34.3295C759.431 34.7652 761.012 35.4659 762.054 36.4318C763.095 37.3977 763.616 38.6667 763.616 40.2386C763.616 41.6686 763.195 42.9233 762.352 44.0028C761.519 45.0824 760.373 45.9252 758.914 46.5312C757.466 47.1278 755.794 47.4261 753.9 47.4261C751.012 47.4261 748.711 46.8248 746.997 45.6222C745.292 44.41 744.293 42.7623 744 40.679L749.951 40.3665C750.131 41.2472 750.567 41.9195 751.258 42.3835C751.949 42.8381 752.835 43.0653 753.914 43.0653C754.975 43.0653 755.827 42.8617 756.471 42.4545C757.125 42.0379 757.456 41.5028 757.466 40.8494C757.456 40.3002 757.224 39.8504 756.77 39.5C756.315 39.1402 755.614 38.8655 754.667 38.6761L750.889 37.9233C748.758 37.4972 747.172 36.7585 746.13 35.7074C745.098 34.6562 744.582 33.3163 744.582 31.6875C744.582 30.286 744.961 29.0786 745.718 28.0653C746.485 27.0521 747.56 26.2708 748.943 25.7216C750.335 25.1723 751.964 24.8977 753.829 24.8977C756.585 24.8977 758.753 25.4801 760.335 26.6449C761.926 27.8097 762.854 29.3958 763.119 31.4034Z" fill="white"/>
<path d="M529.264 170.398C528.071 170.379 526.878 170.152 525.685 169.716C524.491 169.28 523.402 168.546 522.418 167.514C521.433 166.473 520.642 165.066 520.045 163.295C519.449 161.515 519.151 159.28 519.151 156.591C519.151 154.015 519.392 151.733 519.875 149.744C520.358 147.746 521.059 146.065 521.977 144.702C522.896 143.329 524.004 142.287 525.301 141.577C526.608 140.866 528.08 140.511 529.719 140.511C531.348 140.511 532.796 140.838 534.065 141.491C535.344 142.135 536.385 143.035 537.19 144.19C537.995 145.346 538.516 146.676 538.753 148.182H535.287C534.965 146.875 534.34 145.791 533.412 144.929C532.484 144.067 531.253 143.636 529.719 143.636C527.465 143.636 525.689 144.616 524.392 146.577C523.104 148.537 522.455 151.288 522.446 154.83H522.673C523.204 154.025 523.833 153.338 524.562 152.77C525.301 152.192 526.116 151.747 527.006 151.435C527.896 151.122 528.838 150.966 529.832 150.966C531.499 150.966 533.024 151.383 534.406 152.216C535.789 153.04 536.897 154.181 537.73 155.639C538.563 157.088 538.98 158.75 538.98 160.625C538.98 162.424 538.578 164.072 537.773 165.568C536.968 167.055 535.836 168.239 534.378 169.119C532.929 169.991 531.224 170.417 529.264 170.398ZM529.264 167.273C530.457 167.273 531.527 166.974 532.474 166.378C533.431 165.781 534.184 164.981 534.733 163.977C535.292 162.973 535.571 161.856 535.571 160.625C535.571 159.422 535.301 158.329 534.761 157.344C534.231 156.349 533.497 155.559 532.56 154.972C531.632 154.384 530.571 154.091 529.378 154.091C528.478 154.091 527.64 154.271 526.864 154.631C526.087 154.981 525.405 155.464 524.818 156.08C524.241 156.695 523.786 157.401 523.455 158.196C523.123 158.982 522.957 159.811 522.957 160.682C522.957 161.837 523.227 162.917 523.767 163.92C524.316 164.924 525.064 165.734 526.011 166.349C526.968 166.965 528.052 167.273 529.264 167.273ZM545.475 170L558.487 144.261V144.034H543.487V140.909H562.123V144.205L549.168 170H545.475Z" fill="white"/>
<path d="M647.968 140.511C649.161 140.521 650.354 140.748 651.548 141.193C652.741 141.638 653.83 142.377 654.815 143.409C655.799 144.432 656.59 145.829 657.187 147.599C657.783 149.37 658.082 151.591 658.082 154.261C658.082 156.847 657.835 159.143 657.343 161.151C656.86 163.149 656.159 164.834 655.241 166.207C654.332 167.58 653.224 168.622 651.917 169.332C650.62 170.043 649.152 170.398 647.513 170.398C645.885 170.398 644.431 170.076 643.153 169.432C641.884 168.778 640.842 167.874 640.028 166.719C639.223 165.554 638.707 164.205 638.479 162.67H641.945C642.258 164.006 642.878 165.109 643.806 165.98C644.744 166.842 645.979 167.273 647.513 167.273C649.758 167.273 651.529 166.293 652.826 164.332C654.133 162.372 654.786 159.602 654.786 156.023H654.559C654.029 156.818 653.399 157.505 652.67 158.082C651.941 158.66 651.131 159.105 650.241 159.418C649.351 159.73 648.404 159.886 647.4 159.886C645.733 159.886 644.204 159.474 642.812 158.651C641.429 157.817 640.321 156.676 639.488 155.227C638.664 153.769 638.252 152.102 638.252 150.227C638.252 148.447 638.65 146.818 639.445 145.341C640.25 143.854 641.377 142.67 642.826 141.79C644.284 140.909 645.998 140.483 647.968 140.511ZM647.968 143.636C646.775 143.636 645.7 143.935 644.744 144.531C643.797 145.118 643.044 145.914 642.485 146.918C641.936 147.912 641.661 149.015 641.661 150.227C641.661 151.439 641.926 152.543 642.457 153.537C642.996 154.522 643.73 155.308 644.658 155.895C645.596 156.473 646.661 156.761 647.854 156.761C648.754 156.761 649.592 156.586 650.369 156.236C651.145 155.876 651.822 155.388 652.4 154.773C652.987 154.148 653.446 153.442 653.778 152.656C654.109 151.861 654.275 151.032 654.275 150.17C654.275 149.034 654 147.969 653.451 146.974C652.911 145.98 652.163 145.175 651.207 144.56C650.26 143.944 649.18 143.636 647.968 143.636ZM672.986 170.398C671.035 170.398 669.312 170.052 667.815 169.361C666.329 168.66 665.169 167.699 664.335 166.477C663.502 165.246 663.09 163.845 663.099 162.273C663.09 161.042 663.331 159.905 663.824 158.864C664.316 157.812 664.989 156.937 665.841 156.236C666.703 155.526 667.664 155.076 668.724 154.886V154.716C667.332 154.356 666.224 153.575 665.401 152.372C664.577 151.16 664.17 149.782 664.179 148.239C664.17 146.761 664.544 145.44 665.301 144.276C666.059 143.111 667.1 142.192 668.426 141.52C669.761 140.848 671.281 140.511 672.986 140.511C674.671 140.511 676.177 140.848 677.503 141.52C678.829 142.192 679.87 143.111 680.628 144.276C681.395 145.44 681.783 146.761 681.793 148.239C681.783 149.782 681.362 151.16 680.528 152.372C679.705 153.575 678.611 154.356 677.247 154.716V154.886C678.298 155.076 679.245 155.526 680.088 156.236C680.931 156.937 681.603 157.812 682.105 158.864C682.607 159.905 682.863 161.042 682.872 162.273C682.863 163.845 682.437 165.246 681.594 166.477C680.76 167.699 679.6 168.66 678.114 169.361C676.636 170.052 674.927 170.398 672.986 170.398ZM672.986 167.273C674.302 167.273 675.438 167.06 676.395 166.634C677.351 166.207 678.09 165.606 678.611 164.83C679.132 164.053 679.397 163.144 679.406 162.102C679.397 161.004 679.113 160.033 678.554 159.19C677.995 158.348 677.233 157.685 676.267 157.202C675.311 156.719 674.217 156.477 672.986 156.477C671.745 156.477 670.637 156.719 669.662 157.202C668.696 157.685 667.934 158.348 667.375 159.19C666.826 160.033 666.556 161.004 666.565 162.102C666.556 163.144 666.807 164.053 667.318 164.83C667.839 165.606 668.582 166.207 669.548 166.634C670.514 167.06 671.66 167.273 672.986 167.273ZM672.986 153.466C674.027 153.466 674.951 153.258 675.756 152.841C676.57 152.424 677.209 151.842 677.673 151.094C678.137 150.346 678.374 149.47 678.384 148.466C678.374 147.481 678.142 146.624 677.688 145.895C677.233 145.156 676.603 144.588 675.798 144.19C674.993 143.783 674.056 143.58 672.986 143.58C671.897 143.58 670.945 143.783 670.131 144.19C669.316 144.588 668.687 145.156 668.241 145.895C667.796 146.624 667.579 147.481 667.588 148.466C667.579 149.47 667.801 150.346 668.256 151.094C668.72 151.842 669.359 152.424 670.173 152.841C670.988 153.258 671.925 153.466 672.986 153.466Z" fill="white"/>
<path d="M760.223 140.909V170H756.7V144.602H756.53L749.428 149.318V145.739L756.7 140.909H760.223ZM768.589 170V167.443L778.192 156.932C779.319 155.701 780.247 154.631 780.976 153.722C781.705 152.803 782.245 151.941 782.595 151.136C782.955 150.322 783.135 149.47 783.135 148.58C783.135 147.557 782.889 146.671 782.396 145.923C781.913 145.175 781.25 144.598 780.408 144.19C779.565 143.783 778.618 143.58 777.567 143.58C776.449 143.58 775.474 143.812 774.641 144.276C773.817 144.73 773.178 145.369 772.723 146.193C772.278 147.017 772.055 147.983 772.055 149.091H768.703C768.703 147.386 769.096 145.89 769.882 144.602C770.668 143.314 771.738 142.311 773.092 141.591C774.456 140.871 775.985 140.511 777.68 140.511C779.385 140.511 780.895 140.871 782.212 141.591C783.528 142.311 784.56 143.281 785.308 144.503C786.056 145.724 786.43 147.083 786.43 148.58C786.43 149.65 786.236 150.696 785.848 151.719C785.469 152.732 784.806 153.864 783.859 155.114C782.922 156.354 781.62 157.869 779.953 159.659L773.419 166.648V166.875H786.942V170H768.589ZM792.808 170V167.443L802.411 156.932C803.537 155.701 804.465 154.631 805.195 153.722C805.924 152.803 806.464 151.941 806.814 151.136C807.174 150.322 807.354 149.47 807.354 148.58C807.354 147.557 807.107 146.671 806.615 145.923C806.132 145.175 805.469 144.598 804.626 144.19C803.784 143.783 802.837 143.58 801.786 143.58C800.668 143.58 799.693 143.812 798.859 144.276C798.036 144.73 797.396 145.369 796.942 146.193C796.497 147.017 796.274 147.983 796.274 149.091H792.922C792.922 147.386 793.315 145.89 794.101 144.602C794.887 143.314 795.957 142.311 797.311 141.591C798.675 140.871 800.204 140.511 801.899 140.511C803.604 140.511 805.114 140.871 806.43 141.591C807.747 142.311 808.779 143.281 809.527 144.503C810.275 145.724 810.649 147.083 810.649 148.58C810.649 149.65 810.455 150.696 810.067 151.719C809.688 152.732 809.025 153.864 808.078 155.114C807.141 156.354 805.839 157.869 804.172 159.659L797.638 166.648V166.875H811.161V170H792.808Z" fill="white"/>
<path d="M879.813 140.909V170H876.29V144.602H876.12L869.017 149.318V145.739L876.29 140.909H879.813ZM888.179 170V167.443L897.782 156.932C898.908 155.701 899.837 154.631 900.566 153.722C901.295 152.803 901.835 151.941 902.185 151.136C902.545 150.322 902.725 149.47 902.725 148.58C902.725 147.557 902.479 146.671 901.986 145.923C901.503 145.175 900.84 144.598 899.998 144.19C899.155 143.783 898.208 143.58 897.157 143.58C896.039 143.58 895.064 143.812 894.23 144.276C893.407 144.73 892.767 145.369 892.313 146.193C891.868 147.017 891.645 147.983 891.645 149.091H888.293C888.293 147.386 888.686 145.89 889.472 144.602C890.258 143.314 891.328 142.311 892.682 141.591C894.046 140.871 895.575 140.511 897.27 140.511C898.975 140.511 900.485 140.871 901.801 141.591C903.118 142.311 904.15 143.281 904.898 144.503C905.646 145.724 906.02 147.083 906.02 148.58C906.02 149.65 905.826 150.696 905.438 151.719C905.059 152.732 904.396 153.864 903.449 155.114C902.512 156.354 901.21 157.869 899.543 159.659L893.009 166.648V166.875H906.532V170H888.179ZM911.091 164.034V161.136L923.875 140.909H925.978V145.398H924.557L914.898 160.682V160.909H932.114V164.034H911.091ZM924.784 170V163.153V161.804V140.909H928.137V170H924.784Z" fill="white"/>
<path d="M999.383 140.909V170H995.86V144.602H995.69L988.588 149.318V145.739L995.86 140.909H999.383ZM1017.07 170.398C1015.12 170.398 1013.39 170.052 1011.9 169.361C1010.41 168.66 1009.25 167.699 1008.42 166.477C1007.58 165.246 1007.17 163.845 1007.18 162.273C1007.17 161.042 1007.41 159.905 1007.91 158.864C1008.4 157.812 1009.07 156.937 1009.92 156.236C1010.78 155.526 1011.75 155.076 1012.81 154.886V154.716C1011.41 154.356 1010.31 153.575 1009.48 152.372C1008.66 151.16 1008.25 149.782 1008.26 148.239C1008.25 146.761 1008.63 145.44 1009.38 144.276C1010.14 143.111 1011.18 142.192 1012.51 141.52C1013.84 140.848 1015.36 140.511 1017.07 140.511C1018.75 140.511 1020.26 140.848 1021.58 141.52C1022.91 142.192 1023.95 143.111 1024.71 144.276C1025.48 145.44 1025.87 146.761 1025.87 148.239C1025.87 149.782 1025.44 151.16 1024.61 152.372C1023.79 153.575 1022.69 154.356 1021.33 154.716V154.886C1022.38 155.076 1023.33 155.526 1024.17 156.236C1025.01 156.937 1025.69 157.812 1026.19 158.864C1026.69 159.905 1026.94 161.042 1026.95 162.273C1026.94 163.845 1026.52 165.246 1025.68 166.477C1024.84 167.699 1023.68 168.66 1022.2 169.361C1020.72 170.052 1019.01 170.398 1017.07 170.398ZM1017.07 167.273C1018.38 167.273 1019.52 167.06 1020.48 166.634C1021.43 166.207 1022.17 165.606 1022.69 164.83C1023.21 164.053 1023.48 163.144 1023.49 162.102C1023.48 161.004 1023.19 160.033 1022.64 159.19C1022.08 158.348 1021.31 157.685 1020.35 157.202C1019.39 156.719 1018.3 156.477 1017.07 156.477C1015.83 156.477 1014.72 156.719 1013.74 157.202C1012.78 157.685 1012.02 158.348 1011.46 159.19C1010.91 160.033 1010.64 161.004 1010.65 162.102C1010.64 163.144 1010.89 164.053 1011.4 164.83C1011.92 165.606 1012.66 166.207 1013.63 166.634C1014.6 167.06 1015.74 167.273 1017.07 167.273ZM1017.07 153.466C1018.11 153.466 1019.03 153.258 1019.84 152.841C1020.65 152.424 1021.29 151.842 1021.76 151.094C1022.22 150.346 1022.46 149.47 1022.47 148.466C1022.46 147.481 1022.22 146.624 1021.77 145.895C1021.31 145.156 1020.69 144.588 1019.88 144.19C1019.08 143.783 1018.14 143.58 1017.07 143.58C1015.98 143.58 1015.03 143.783 1014.21 144.19C1013.4 144.588 1012.77 145.156 1012.32 145.895C1011.88 146.624 1011.66 147.481 1011.67 148.466C1011.66 149.47 1011.88 150.346 1012.34 151.094C1012.8 151.842 1013.44 152.424 1014.26 152.841C1015.07 153.258 1016.01 153.466 1017.07 153.466ZM1042.23 170.398C1040.35 170.398 1038.68 170.076 1037.21 169.432C1035.76 168.788 1034.6 167.893 1033.73 166.747C1032.88 165.592 1032.42 164.252 1032.34 162.727H1035.92C1036 163.665 1036.32 164.474 1036.89 165.156C1037.45 165.829 1038.2 166.349 1039.12 166.719C1040.04 167.088 1041.05 167.273 1042.17 167.273C1043.42 167.273 1044.53 167.055 1045.49 166.619C1046.46 166.184 1047.22 165.578 1047.77 164.801C1048.32 164.025 1048.59 163.125 1048.59 162.102C1048.59 161.032 1048.33 160.09 1047.8 159.276C1047.27 158.452 1046.49 157.808 1045.47 157.344C1044.44 156.88 1043.19 156.648 1041.72 156.648H1039.39V153.523H1041.72C1042.87 153.523 1043.88 153.314 1044.76 152.898C1045.64 152.481 1046.32 151.894 1046.82 151.136C1047.32 150.379 1047.57 149.489 1047.57 148.466C1047.57 147.481 1047.35 146.624 1046.92 145.895C1046.48 145.166 1045.86 144.598 1045.07 144.19C1044.28 143.783 1043.35 143.58 1042.28 143.58C1041.28 143.58 1040.33 143.764 1039.44 144.134C1038.56 144.493 1037.84 145.019 1037.28 145.71C1036.73 146.392 1036.42 147.216 1036.38 148.182H1032.97C1033.02 146.657 1033.48 145.322 1034.34 144.176C1035.21 143.021 1036.33 142.121 1037.72 141.477C1039.13 140.833 1040.67 140.511 1042.34 140.511C1044.14 140.511 1045.68 140.876 1046.97 141.605C1048.26 142.325 1049.25 143.277 1049.94 144.46C1050.63 145.644 1050.98 146.922 1050.98 148.295C1050.98 149.934 1050.55 151.33 1049.69 152.486C1048.83 153.641 1047.67 154.441 1046.2 154.886V155.114C1048.04 155.417 1049.48 156.198 1050.51 157.457C1051.54 158.707 1052.06 160.256 1052.06 162.102C1052.06 163.684 1051.63 165.104 1050.76 166.364C1049.91 167.614 1048.75 168.598 1047.27 169.318C1045.79 170.038 1044.11 170.398 1042.23 170.398Z" fill="white"/>
</svg>
