<svg xmlns="http://www.w3.org/2000/svg" xmlns:xlink="http://www.w3.org/1999/xlink" width="1710" height="1151" fill="none" viewBox="0 0 1710 1151"><rect width="1317" height="837" x="1.5" y="1.5" fill="#272727" stroke="#9c9c9c" stroke-width="3" rx="25.5"/><path fill="#383838" d="M27 1.5h811.5v837H27c-14.083 0-25.5-11.417-25.5-25.5V27C1.5 12.917 12.917 1.5 27 1.5"/><path fill="url(#a)" fill-opacity=".2" d="M27 1.5h811.5v837H27c-14.083 0-25.5-11.417-25.5-25.5V27C1.5 12.917 12.917 1.5 27 1.5"/><path stroke="#c9c9c9" stroke-width="3" d="M27 1.5h811.5v837H27c-14.083 0-25.5-11.417-25.5-25.5V27C1.5 12.917 12.917 1.5 27 1.5Z"/><path stroke="#fff" stroke-width="2" d="M839 1033h121"/><path stroke="#fff" stroke-width="2" d="M0-1h88" transform="matrix(0 -1 -1 0 960 1034)"/><path stroke="#fff" stroke-width="2" d="M840 1034v-88M1502 480v360M1503 841h-104M1503 481h-104"/><path fill="#fff" d="M855.461 1136.6c-1.79-.03-3.58-.37-5.37-1.03q-2.684-.975-4.9-3.3-2.216-2.34-3.558-6.33-1.343-4.005-1.343-10.05c0-3.87.363-7.29 1.087-10.27.724-3 1.776-5.52 3.153-7.57q2.067-3.09 4.986-4.68c1.96-1.07 4.169-1.6 6.627-1.6q3.664 0 6.519 1.47 2.877 1.44 4.688 4.05c1.207 1.73 1.989 3.72 2.344 5.98h-5.199c-.483-1.96-1.421-3.58-2.813-4.88-1.392-1.29-3.238-1.94-5.539-1.94-3.381 0-6.044 1.47-7.99 4.42-1.932 2.94-2.905 7.06-2.92 12.37h.341q1.194-1.8 2.834-3.09c1.108-.86 2.33-1.53 3.665-2s2.749-.7 4.24-.7c2.5 0 4.787.62 6.861 1.87 2.074 1.24 3.736 2.95 4.986 5.14 1.25 2.17 1.875 4.66 1.875 7.48q0 4.05-1.811 7.41a13.8 13.8 0 0 1-5.093 5.33c-2.173 1.31-4.73 1.94-7.67 1.92m0-4.69c1.79 0 3.395-.45 4.815-1.34a9.7 9.7 0 0 0 3.388-3.6c.838-1.51 1.257-3.19 1.257-5.03q0-2.715-1.215-4.92a9.2 9.2 0 0 0-3.302-3.56q-2.088-1.32-4.773-1.32-2.024 0-3.771.81a9.7 9.7 0 0 0-3.068 2.17c-.867.92-1.549 1.98-2.046 3.17a9.5 9.5 0 0 0-.745 3.73c0 1.74.404 3.35 1.214 4.86a9.93 9.93 0 0 0 3.366 3.64c1.435.93 3.062 1.39 4.88 1.39m37.185 4.69c-3.21 0-5.944-.88-8.203-2.62q-3.387-2.655-5.177-7.65c-1.193-3.36-1.79-7.4-1.79-12.15 0-4.71.597-8.74 1.79-12.08 1.207-3.35 2.94-5.91 5.199-7.67 2.272-1.78 5-2.66 8.181-2.66 3.182 0 5.902.88 8.161 2.66 2.273 1.76 4.006 4.32 5.199 7.67 1.207 3.34 1.811 7.37 1.811 12.08 0 4.75-.597 8.79-1.79 12.15q-1.79 4.995-5.177 7.65c-2.259 1.74-4.993 2.62-8.204 2.62m0-4.69c3.182 0 5.654-1.54 7.415-4.6 1.762-3.07 2.642-7.45 2.642-13.13 0-3.78-.405-6.99-1.214-9.65-.796-2.66-1.946-4.68-3.452-6.07-1.491-1.39-3.288-2.09-5.391-2.09-3.153 0-5.617 1.55-7.393 4.67q-2.663 4.635-2.663 13.14 0 5.67 1.193 9.63t3.43 6.03q2.259 2.07 5.433 2.07m23.353 4.09v-32.73h4.858v5.12h.426c.682-1.75 1.783-3.11 3.302-4.07q2.28-1.47 5.476-1.47 3.239 0 5.391 1.47c1.449.96 2.578 2.32 3.388 4.07h.341c.838-1.69 2.095-3.04 3.771-4.03 1.676-1.01 3.686-1.51 6.03-1.51 2.926 0 5.319.91 7.18 2.75 1.861 1.81 2.791 4.65 2.791 8.5v21.9h-5.028v-21.9c0-2.42-.661-4.14-1.982-5.18q-1.981-1.56-4.666-1.56c-2.301 0-4.084.7-5.348 2.09-1.264 1.38-1.896 3.13-1.896 5.24V1136h-5.114v-22.41c0-1.87-.603-3.36-1.811-4.5-1.207-1.15-2.763-1.73-4.666-1.73q-1.96 0-3.665 1.05c-1.122.69-2.031 1.66-2.727 2.9-.682 1.22-1.023 2.63-1.023 4.24V1136zM1575.1 637.364V681h-5.28v-38.097h-.26l-10.65 7.074v-5.369l10.91-7.244zm26.53 44.233c-2.93 0-5.51-.519-7.76-1.556q-3.345-1.577-5.22-4.325c-1.25-1.847-1.86-3.949-1.85-6.307-.01-1.847.35-3.551 1.09-5.114.73-1.576 1.74-2.89 3.02-3.941 1.29-1.066 2.74-1.74 4.33-2.024v-.256c-2.09-.54-3.75-1.712-4.99-3.516-1.23-1.818-1.85-3.885-1.83-6.2-.02-2.216.55-4.197 1.68-5.945 1.14-1.747 2.7-3.125 4.69-4.133q3-1.513 6.84-1.513c2.53 0 4.79.504 6.77 1.513 1.99 1.008 3.56 2.386 4.69 4.133 1.15 1.748 1.74 3.729 1.75 5.945-.01 2.315-.65 4.382-1.9 6.2q-1.845 2.706-4.92 3.516v.256q2.37.425 4.26 2.024 1.905 1.577 3.03 3.941c.75 1.563 1.13 3.267 1.15 5.114-.02 2.358-.65 4.46-1.92 6.307q-1.875 2.748-5.22 4.325c-2.22 1.037-4.78 1.556-7.69 1.556m0-4.688c1.97 0 3.68-.32 5.11-.959q2.16-.959 3.33-2.706c.78-1.164 1.18-2.528 1.19-4.091-.01-1.647-.44-3.103-1.28-4.367-.84-1.265-1.98-2.259-3.43-2.983q-2.145-1.087-4.92-1.087c-1.86 0-3.52.362-4.99 1.087-1.45.724-2.59 1.718-3.43 2.983-.82 1.264-1.23 2.72-1.21 4.367-.02 1.563.36 2.927 1.13 4.091.78 1.165 1.89 2.067 3.34 2.706q2.175.959 5.16.959m0-20.71c1.56 0 2.95-.313 4.15-.938a7.1 7.1 0 0 0 2.88-2.62c.7-1.123 1.05-2.436 1.07-3.942q-.03-2.216-1.05-3.857c-.68-1.108-1.62-1.96-2.83-2.556-1.21-.611-2.62-.917-4.22-.917-1.63 0-3.06.306-4.28.917-1.23.596-2.17 1.448-2.84 2.556-.67 1.094-.99 2.38-.98 3.857-.01 1.506.32 2.819 1 3.942q1.05 1.683 2.88 2.62c1.22.625 2.63.938 4.22.938m37.23 25.398c-3.21 0-5.95-.874-8.21-2.621-2.25-1.762-3.98-4.311-5.17-7.649-1.2-3.353-1.79-7.401-1.79-12.145 0-4.716.59-8.743 1.79-12.081 1.2-3.352 2.94-5.909 5.2-7.671 2.27-1.775 5-2.663 8.18-2.663q4.77 0 8.16 2.663c2.27 1.762 4 4.319 5.2 7.671 1.2 3.338 1.81 7.365 1.81 12.081 0 4.744-.6 8.792-1.79 12.145-1.2 3.338-2.92 5.887-5.18 7.649-2.26 1.747-4.99 2.621-8.2 2.621m0-4.688q4.77 0 7.41-4.602t2.64-13.125c0-3.779-.4-6.996-1.21-9.652q-1.2-3.985-3.45-6.073c-1.49-1.392-3.29-2.088-5.39-2.088-3.16 0-5.62 1.556-7.4 4.667-1.77 3.096-2.66 7.478-2.66 13.146 0 3.778.4 6.988 1.19 9.63.8 2.643 1.94 4.652 3.43 6.03 1.51 1.378 3.32 2.067 5.44 2.067m23.35 4.091v-32.727h4.86v5.113h.42c.69-1.747 1.79-3.103 3.31-4.069 1.52-.98 3.34-1.47 5.47-1.47 2.16 0 3.96.49 5.39 1.47q2.175 1.449 3.39 4.069h.34c.84-1.69 2.1-3.032 3.77-4.027q2.52-1.512 6.03-1.512c2.93 0 5.32.916 7.18 2.748q2.79 2.727 2.79 8.502V681h-5.02v-21.903c0-2.415-.66-4.141-1.99-5.178-1.32-1.037-2.87-1.555-4.66-1.555-2.3 0-4.09.696-5.35 2.088-1.26 1.378-1.9 3.125-1.9 5.241V681h-5.11v-22.415c0-1.861-.6-3.359-1.81-4.496-1.21-1.15-2.76-1.725-4.67-1.725-1.3 0-2.53.348-3.66 1.044q-1.68 1.044-2.73 2.897-1.02 1.833-1.02 4.24V681zM207.901 432.051v-4.346l19.176-30.341h3.153v6.733h-2.131l-14.488 22.926v.341h25.824v4.687zM228.44 441v-43.636h5.029V441zm18.979 0v-3.835l14.404-15.767q2.535-2.77 4.176-4.816 1.64-2.066 2.429-3.877.81-1.832.81-3.836 0-2.301-1.108-3.984-1.087-1.683-2.983-2.599t-4.262-.917q-2.514 0-4.389 1.044a7.2 7.2 0 0 0-2.876 2.877q-1.002 1.853-1.002 4.346h-5.028q0-3.834 1.768-6.733 1.768-2.897 4.816-4.517 3.068-1.619 6.882-1.619 3.835 0 6.797 1.619 2.96 1.62 4.645 4.368 1.683 2.75 1.683 6.115 0 2.408-.874 4.709-.852 2.28-2.983 5.092-2.109 2.791-5.859 6.819l-9.801 10.483v.34h20.284V441zm50.561.597q-4.815 0-8.203-2.621-3.387-2.642-5.177-7.649-1.79-5.03-1.79-12.145 0-7.074 1.79-12.081 1.81-5.028 5.199-7.671 3.409-2.663 8.181-2.663 4.773 0 8.161 2.663 3.41 2.643 5.199 7.671 1.81 5.007 1.811 12.081 0 7.116-1.79 12.145-1.79 5.007-5.177 7.649-3.388 2.62-8.204 2.621m0-4.688q4.773 0 7.415-4.602t2.642-13.125q0-5.668-1.214-9.652-1.194-3.985-3.452-6.073-2.236-2.088-5.391-2.088-4.73 0-7.393 4.667-2.663 4.644-2.663 13.146 0 5.667 1.193 9.63t3.43 6.03q2.259 2.067 5.433 2.067M321.333 441v-32.727h4.858v5.113h.426q1.023-2.62 3.302-4.069 2.28-1.47 5.476-1.47 3.239 0 5.391 1.47 2.173 1.449 3.388 4.069h.341q1.257-2.535 3.771-4.027 2.514-1.512 6.03-1.512 4.389 0 7.18 2.748 2.791 2.727 2.791 8.502V441h-5.028v-21.903q0-3.623-1.982-5.178t-4.666-1.555q-3.452 0-5.348 2.088-1.896 2.067-1.896 5.241V441h-5.114v-22.415q0-2.791-1.811-4.496-1.811-1.725-4.666-1.725a6.9 6.9 0 0 0-3.665 1.044q-1.683 1.044-2.727 2.897-1.023 1.833-1.023 4.24V441zm69.705 0v-43.636h5.028v16.108h.427q.553-.853 1.534-2.174 1-1.342 2.855-2.386 1.875-1.065 5.071-1.065 4.132 0 7.287 2.066 3.153 2.067 4.922 5.86 1.768 3.792 1.768 8.949 0 5.199-1.768 9.012-1.769 3.793-4.901 5.881-3.132 2.067-7.223 2.067-3.154 0-5.05-1.044-1.896-1.065-2.919-2.408-1.023-1.364-1.576-2.258h-.597V441zm4.943-16.364q0 3.708 1.087 6.542 1.086 2.813 3.175 4.41 2.088 1.577 5.113 1.577 3.154 0 5.263-1.662 2.13-1.683 3.196-4.517 1.086-2.855 1.087-6.35 0-3.452-1.066-6.221-1.044-2.791-3.174-4.411-2.11-1.64-5.306-1.64-3.068 0-5.156 1.555-2.088 1.534-3.153 4.304-1.066 2.748-1.066 6.413m33.708 28.637q-1.28 0-2.28-.213-1.002-.192-1.385-.384l1.278-4.432q1.832.469 3.239.341t2.493-1.257q1.107-1.108 2.024-3.601l.937-2.557-12.102-32.897h5.455l9.034 26.079h.341l9.034-26.079h5.454l-13.892 37.5q-.937 2.535-2.322 4.197-1.385 1.683-3.218 2.493-1.811.81-4.09.81m45.926-21.222v-4.346l19.177-30.341h3.153v6.733h-2.131l-14.488 22.926v.341h25.824v4.687zm20.54 8.949v-43.636h5.029V441zm18.979 0v-3.835l14.404-15.767q2.535-2.77 4.176-4.816 1.64-2.066 2.429-3.877.81-1.832.809-3.836 0-2.301-1.108-3.984-1.086-1.683-2.982-2.599t-4.262-.917q-2.514 0-4.389 1.044a7.2 7.2 0 0 0-2.876 2.877q-1.002 1.853-1.002 4.346h-5.028q0-3.834 1.768-6.733 1.769-2.897 4.815-4.517 3.069-1.619 6.883-1.619 3.835 0 6.796 1.619 2.962 1.62 4.645 4.368 1.684 2.75 1.684 6.115 0 2.408-.874 4.709-.852 2.28-2.983 5.092-2.109 2.791-5.859 6.819l-9.801 10.483v.34h20.284V441zm50.561.597q-4.815 0-8.203-2.621-3.387-2.642-5.177-7.649-1.79-5.03-1.79-12.145 0-7.074 1.79-12.081 1.81-5.028 5.198-7.671 3.41-2.663 8.182-2.663t8.161 2.663q3.41 2.643 5.199 7.671 1.81 5.007 1.811 12.081 0 7.116-1.79 12.145-1.79 5.007-5.178 7.649-3.387 2.62-8.203 2.621m0-4.688q4.773 0 7.415-4.602t2.642-13.125q0-5.668-1.214-9.652-1.194-3.985-3.452-6.073-2.237-2.088-5.391-2.088-4.73 0-7.393 4.667-2.664 4.644-2.664 13.146 0 5.667 1.194 9.63t3.43 6.03q2.259 2.067 5.433 2.067M589.048 441v-32.727h4.858v5.113h.426q1.022-2.62 3.302-4.069 2.28-1.47 5.476-1.47 3.239 0 5.391 1.47 2.173 1.449 3.387 4.069h.341q1.257-2.535 3.772-4.027 2.514-1.512 6.03-1.512 4.389 0 7.18 2.748 2.791 2.727 2.791 8.502V441h-5.028v-21.903q0-3.623-1.982-5.178t-4.666-1.555q-3.452 0-5.348 2.088-1.896 2.067-1.896 5.241V441h-5.114v-22.415q0-2.791-1.811-4.496-1.811-1.725-4.666-1.725a6.9 6.9 0 0 0-3.665 1.044q-1.683 1.044-2.727 2.897-1.023 1.833-1.023 4.24V441z"/><path fill="#383838" d="M840 0h453c14.91 0 27 12.088 27 27v453H840z"/><path fill="url(#b)" fill-opacity=".2" d="M840 0h453c14.91 0 27 12.088 27 27v453H840z"/><path fill="#c9c9c9" d="M1320 480H840v-3h477zM1293 0c14.91 0 27 12.088 27 27v453l-3-3V27c0-13.255-10.75-24-24-24H840V0z"/><path fill="#383838" d="M960 480h360v333c0 14.912-12.09 27-27 27H960z"/><path fill="url(#c)" fill-opacity=".2" d="M960 480h360v333c0 14.912-12.09 27-27 27H960z"/><path fill="#c9c9c9" d="m963 837-3 3V480h3zm357-24c0 14.912-12.09 27-27 27H960l3-3h330c13.25 0 24-10.745 24-24V480h3z"/><path fill="#fff" d="M960.066 225v-3.835l14.403-15.767q2.537-2.77 4.176-4.816 1.641-2.066 2.429-3.877.81-1.833.81-3.836 0-2.301-1.108-3.984-1.087-1.683-2.983-2.599t-4.261-.917q-2.514 0-4.389 1.044a7.2 7.2 0 0 0-2.877 2.877q-1 1.854-1.001 4.346h-5.029q0-3.834 1.769-6.733 1.768-2.897 4.815-4.517 3.069-1.619 6.882-1.619 3.836 0 6.797 1.619 2.962 1.62 4.645 4.368 1.683 2.75 1.683 6.115 0 2.408-.873 4.709-.853 2.28-2.983 5.092-2.11 2.792-5.86 6.819l-9.801 10.483v.34h20.284V225zm34.368-8.949v-4.346l19.176-30.341h3.15v6.733h-2.13l-14.49 22.926v.341h25.83v4.687zM1014.97 225v-43.636h5.03V225zm33.22.597c-3.21 0-5.95-.874-8.21-2.621-2.26-1.762-3.98-4.311-5.18-7.649-1.19-3.353-1.78-7.401-1.78-12.145 0-4.716.59-8.743 1.78-12.081 1.21-3.352 2.95-5.909 5.2-7.671 2.28-1.775 5-2.663 8.19-2.663q4.77 0 8.16 2.663 3.405 2.643 5.19 7.671c1.21 3.338 1.82 7.365 1.82 12.081 0 4.744-.6 8.792-1.79 12.145-1.2 3.338-2.92 5.887-5.18 7.649-2.26 1.747-4.99 2.621-8.2 2.621m0-4.688q4.77 0 7.41-4.602t2.64-13.125c0-3.779-.4-6.996-1.21-9.652q-1.2-3.984-3.45-6.073c-1.5-1.392-3.29-2.088-5.39-2.088-3.16 0-5.62 1.556-7.4 4.667-1.77 3.096-2.66 7.478-2.66 13.146 0 3.778.4 6.988 1.19 9.63.8 2.643 1.94 4.652 3.43 6.03 1.51 1.378 3.32 2.067 5.44 2.067m23.35 4.091v-32.727h4.86v5.113h.42q1.02-2.62 3.3-4.069c1.52-.98 3.35-1.47 5.48-1.47 2.16 0 3.96.49 5.39 1.47q2.175 1.449 3.39 4.069h.34c.84-1.69 2.09-3.032 3.77-4.027q2.52-1.512 6.03-1.512c2.93 0 5.32.916 7.18 2.748q2.79 2.727 2.79 8.502V225h-5.03v-21.903q0-3.622-1.98-5.178c-1.32-1.037-2.87-1.555-4.66-1.555-2.3 0-4.09.696-5.35 2.088-1.27 1.378-1.9 3.125-1.9 5.241V225h-5.11v-22.415c0-1.861-.61-3.359-1.81-4.496-1.21-1.15-2.77-1.725-4.67-1.725q-1.965 0-3.66 1.044t-2.73 2.897q-1.02 1.833-1.02 4.24V225zm69.7 0v-43.636h5.03v16.108h.43q.555-.853 1.53-2.174c.67-.895 1.62-1.69 2.86-2.386q1.875-1.065 5.07-1.065c2.75 0 5.18.689 7.28 2.066 2.11 1.378 3.75 3.331 4.93 5.86q1.77 3.792 1.77 8.949 0 5.199-1.77 9.012c-1.18 2.529-2.82 4.489-4.9 5.881q-3.135 2.067-7.23 2.067c-2.1 0-3.78-.348-5.05-1.044-1.26-.71-2.23-1.513-2.92-2.408-.68-.909-1.2-1.662-1.57-2.258h-.6V225zm4.95-16.364q0 3.708 1.08 6.542 1.095 2.813 3.18 4.41c1.39 1.051 3.09 1.577 5.11 1.577 2.1 0 3.86-.554 5.26-1.662 1.42-1.122 2.49-2.628 3.2-4.517.72-1.904 1.09-4.02 1.09-6.35 0-2.301-.36-4.375-1.07-6.221-.69-1.861-1.75-3.331-3.17-4.411q-2.115-1.64-5.31-1.64c-2.04 0-3.76.518-5.15 1.555-1.4 1.023-2.45 2.457-3.16 4.304-.71 1.832-1.06 3.97-1.06 6.413m33.7 28.637q-1.275 0-2.28-.213c-.66-.128-1.13-.256-1.38-.384l1.28-4.432q1.83.469 3.24.341 1.395-.127 2.49-1.257c.74-.739 1.41-1.939 2.02-3.601l.94-2.557-12.1-32.897h5.45l9.04 26.079h.34l9.03-26.079h5.46l-13.9 37.5c-.62 1.69-1.39 3.089-2.32 4.197-.92 1.122-1.99 1.953-3.22 2.493-1.2.54-2.57.81-4.09.81M1003.25 298v-3.835l14.4-15.767c1.69-1.847 3.09-3.452 4.18-4.816q1.635-2.066 2.43-3.877.81-1.832.81-3.836 0-2.301-1.11-3.984c-.72-1.122-1.72-1.989-2.98-2.599q-1.905-.917-4.26-.917c-1.68 0-3.14.348-4.39 1.044a7.16 7.16 0 0 0-2.88 2.877c-.67 1.236-1 2.684-1 4.346h-5.03q0-3.834 1.77-6.733c1.18-1.931 2.78-3.437 4.81-4.517 2.05-1.079 4.34-1.619 6.89-1.619s4.82.54 6.79 1.619q2.97 1.62 4.65 4.368 1.68 2.75 1.68 6.115 0 2.408-.87 4.709c-.57 1.52-1.57 3.217-2.99 5.092-1.4 1.861-3.36 4.134-5.86 6.819l-9.8 10.483v.34h20.29V298zm34.37-8.949v-4.346l19.17-30.341h3.16v6.733h-2.13l-14.49 22.926v.341h25.82v4.687zm20.54 8.949v-43.636h5.03V298zm33.21.597c-3.21 0-5.95-.874-8.2-2.621-2.26-1.762-3.99-4.311-5.18-7.649-1.19-3.353-1.79-7.401-1.79-12.145 0-4.716.6-8.743 1.79-12.081 1.21-3.352 2.94-5.909 5.2-7.671 2.27-1.775 5-2.663 8.18-2.663q4.77 0 8.16 2.663c2.27 1.762 4.01 4.319 5.2 7.671 1.21 3.338 1.81 7.365 1.81 12.081 0 4.744-.6 8.792-1.79 12.145-1.19 3.338-2.92 5.887-5.18 7.649-2.26 1.747-4.99 2.621-8.2 2.621m0-4.688q4.77 0 7.41-4.602c1.77-3.068 2.65-7.443 2.65-13.125 0-3.779-.41-6.996-1.22-9.652q-1.185-3.985-3.45-6.073c-1.49-1.392-3.29-2.088-5.39-2.088-3.15 0-5.62 1.556-7.39 4.667q-2.67 4.644-2.67 13.146 0 5.667 1.2 9.63c.79 2.643 1.93 4.652 3.43 6.03q2.25 2.067 5.43 2.067m23.35 4.091v-32.727h4.86v5.113h.43q1.02-2.62 3.3-4.069c1.52-.98 3.34-1.47 5.47-1.47 2.16 0 3.96.49 5.39 1.47q2.175 1.449 3.39 4.069h.34c.84-1.69 2.1-3.032 3.77-4.027q2.52-1.512 6.03-1.512c2.93 0 5.32.916 7.18 2.748 1.87 1.818 2.8 4.652 2.8 8.502V298h-5.03v-21.903q0-3.623-1.98-5.178c-1.33-1.037-2.88-1.555-4.67-1.555-2.3 0-4.08.696-5.35 2.088q-1.89 2.067-1.89 5.241V298h-5.12v-22.415c0-1.861-.6-3.359-1.81-4.496-1.21-1.15-2.76-1.725-4.67-1.725q-1.95 0-3.66 1.044-1.68 1.044-2.73 2.897-1.02 1.833-1.02 4.24V298zM1038.92 601.364V645h-5.29v-38.097h-.25l-10.65 7.074v-5.369l10.9-7.244zm26.53 44.233c-2.93 0-5.52-.519-7.76-1.556q-3.345-1.577-5.22-4.325c-1.25-1.847-1.87-3.949-1.85-6.307q-.03-2.77 1.08-5.114 1.11-2.364 3.03-3.941 1.935-1.599 4.32-2.024v-.256c-2.08-.54-3.75-1.712-4.98-3.516q-1.86-2.727-1.83-6.2-.03-3.323 1.68-5.945c1.13-1.747 2.7-3.125 4.69-4.133q3-1.513 6.84-1.513c2.52 0 4.78.504 6.77 1.513s3.55 2.386 4.69 4.133c1.15 1.748 1.73 3.729 1.75 5.945-.02 2.315-.65 4.382-1.9 6.2q-1.86 2.706-4.92 3.516v.256q2.355.425 4.26 2.024c1.26 1.051 2.27 2.365 3.02 3.941.76 1.563 1.14 3.267 1.16 5.114q-.03 3.537-1.92 6.307-1.875 2.748-5.22 4.325c-2.22 1.037-4.78 1.556-7.69 1.556m0-4.688c1.97 0 3.67-.32 5.11-.959 1.43-.639 2.54-1.541 3.32-2.706q1.17-1.746 1.2-4.091c-.02-1.647-.44-3.103-1.28-4.367-.84-1.265-1.98-2.259-3.43-2.983q-2.16-1.087-4.92-1.087c-1.87 0-3.53.362-4.99 1.087-1.45.724-2.59 1.718-3.43 2.983-.82 1.264-1.23 2.72-1.22 4.367-.01 1.563.37 2.927 1.13 4.091.79 1.165 1.9 2.067 3.35 2.706q2.175.959 5.16.959m0-20.71c1.56 0 2.94-.313 4.15-.938q1.83-.937 2.88-2.62c.69-1.123 1.05-2.436 1.06-3.942-.01-1.477-.36-2.763-1.04-3.857-.68-1.108-1.63-1.96-2.84-2.556-1.2-.611-2.61-.917-4.21-.917q-2.46 0-4.29.917c-1.22.596-2.16 1.448-2.83 2.556-.67 1.094-1 2.38-.98 3.857-.02 1.506.32 2.819 1 3.942q1.05 1.683 2.88 2.62c1.22.625 2.62.938 4.22.938m37.22 25.398c-3.21 0-5.94-.874-8.2-2.621-2.26-1.762-3.98-4.311-5.18-7.649-1.19-3.353-1.79-7.401-1.79-12.145 0-4.716.6-8.743 1.79-12.081 1.21-3.352 2.94-5.909 5.2-7.671 2.27-1.775 5-2.663 8.18-2.663q4.785 0 8.16 2.663c2.28 1.762 4.01 4.319 5.2 7.671 1.21 3.338 1.81 7.365 1.81 12.081 0 4.744-.59 8.792-1.79 12.145-1.19 3.338-2.91 5.887-5.17 7.649-2.26 1.747-5 2.621-8.21 2.621m0-4.688c3.19 0 5.66-1.534 7.42-4.602q2.64-4.602 2.64-13.125c0-3.779-.4-6.996-1.21-9.652-.8-2.656-1.95-4.681-3.46-6.073-1.49-1.392-3.28-2.088-5.39-2.088-3.15 0-5.61 1.556-7.39 4.667-1.78 3.096-2.66 7.478-2.66 13.146 0 3.778.39 6.988 1.19 9.63s1.94 4.652 3.43 6.03q2.265 2.067 5.43 2.067m23.36 4.091v-32.727h4.85v5.113h.43q1.02-2.62 3.3-4.069c1.52-.98 3.35-1.47 5.48-1.47 2.16 0 3.95.49 5.39 1.47q2.175 1.449 3.39 4.069h.34c.84-1.69 2.09-3.032 3.77-4.027q2.52-1.512 6.03-1.512c2.93 0 5.32.916 7.18 2.748q2.79 2.727 2.79 8.502V645h-5.03v-21.903q0-3.622-1.98-5.178c-1.32-1.037-2.88-1.555-4.67-1.555q-3.45 0-5.34 2.088c-1.27 1.378-1.9 3.125-1.9 5.241V645h-5.11v-22.415c0-1.861-.61-3.359-1.81-4.496-1.21-1.15-2.77-1.725-4.67-1.725-1.31 0-2.53.348-3.67 1.044-1.12.696-2.03 1.662-2.72 2.897-.68 1.222-1.03 2.635-1.03 4.24V645zm69.7 0v-43.636h5.03v16.108h.43q.555-.853 1.53-2.174c.67-.895 1.62-1.69 2.86-2.386q1.875-1.065 5.07-1.065c2.75 0 5.18.689 7.28 2.066q3.165 2.067 4.92 5.86 1.77 3.792 1.77 8.949 0 5.199-1.77 9.012c-1.17 2.529-2.81 4.489-4.9 5.881-2.08 1.378-4.49 2.067-7.22 2.067-2.1 0-3.78-.348-5.05-1.044-1.26-.71-2.24-1.513-2.92-2.408-.68-.909-1.2-1.662-1.57-2.258h-.6V645zm4.94-16.364c0 2.472.37 4.652 1.09 6.542.73 1.875 1.78 3.345 3.18 4.41 1.39 1.051 3.09 1.577 5.11 1.577 2.1 0 3.86-.554 5.26-1.662 1.42-1.122 2.49-2.628 3.2-4.517q1.08-2.855 1.08-6.35c0-2.301-.35-4.375-1.06-6.221-.7-1.861-1.75-3.331-3.18-4.411-1.4-1.093-3.17-1.64-5.3-1.64-2.05 0-3.76.518-5.16 1.555q-2.085 1.534-3.15 4.304c-.71 1.832-1.07 3.97-1.07 6.413m33.71 28.637q-1.275 0-2.28-.213-1.005-.192-1.38-.384l1.28-4.432c1.22.313 2.3.426 3.23.341.94-.085 1.77-.504 2.5-1.257.74-.739 1.41-1.939 2.02-3.601l.94-2.557-12.1-32.897h5.45l9.04 26.079h.34l9.03-26.079h5.45l-13.89 37.5c-.62 1.69-1.4 3.089-2.32 4.197-.92 1.122-2 1.953-3.22 2.493-1.2.54-2.57.81-4.09.81m-152.28 17.091V718h-5.28v-38.097h-.26l-10.65 7.074v-5.369l10.91-7.244zm26.53 44.233c-2.93 0-5.51-.519-7.76-1.556q-3.345-1.577-5.22-4.325c-1.25-1.847-1.86-3.949-1.85-6.307-.01-1.847.35-3.551 1.09-5.114.73-1.576 1.74-2.89 3.02-3.941 1.29-1.066 2.74-1.74 4.33-2.024v-.256c-2.09-.54-3.75-1.712-4.99-3.516-1.23-1.818-1.85-3.885-1.83-6.2-.02-2.216.55-4.197 1.68-5.945 1.14-1.747 2.7-3.125 4.69-4.133q3-1.513 6.84-1.513c2.53 0 4.79.504 6.77 1.513 1.99 1.008 3.56 2.386 4.69 4.133 1.15 1.748 1.74 3.729 1.75 5.945-.01 2.315-.65 4.382-1.9 6.2q-1.845 2.706-4.92 3.516v.256q2.37.425 4.26 2.024 1.905 1.577 3.03 3.941c.75 1.563 1.13 3.267 1.15 5.114-.02 2.358-.65 4.46-1.92 6.307q-1.875 2.748-5.22 4.325c-2.22 1.037-4.78 1.556-7.69 1.556m0-4.688c1.97 0 3.68-.32 5.11-.959q2.16-.959 3.33-2.706c.78-1.164 1.18-2.528 1.19-4.091-.01-1.647-.44-3.103-1.28-4.367-.84-1.265-1.98-2.259-3.43-2.983q-2.145-1.087-4.92-1.087c-1.86 0-3.52.362-4.99 1.087-1.45.724-2.59 1.718-3.43 2.983-.82 1.264-1.23 2.72-1.21 4.367-.02 1.563.36 2.927 1.13 4.091.78 1.165 1.89 2.067 3.34 2.706q2.175.959 5.16.959m0-20.71c1.56 0 2.95-.313 4.15-.938a7.1 7.1 0 0 0 2.88-2.62c.7-1.123 1.05-2.436 1.07-3.942q-.03-2.216-1.05-3.857c-.68-1.108-1.62-1.96-2.83-2.556-1.21-.611-2.62-.917-4.22-.917-1.63 0-3.06.306-4.28.917-1.23.596-2.17 1.448-2.84 2.556-.67 1.094-.99 2.38-.98 3.857-.01 1.506.32 2.819 1 3.942q1.05 1.683 2.88 2.62c1.22.625 2.63.938 4.22.938m37.23 25.398c-3.21 0-5.95-.874-8.21-2.621-2.25-1.762-3.98-4.311-5.17-7.649-1.2-3.353-1.79-7.401-1.79-12.145 0-4.716.59-8.743 1.79-12.081 1.2-3.352 2.94-5.909 5.2-7.671 2.27-1.775 5-2.663 8.18-2.663q4.77 0 8.16 2.663c2.27 1.762 4 4.319 5.2 7.671 1.2 3.338 1.81 7.365 1.81 12.081 0 4.744-.6 8.792-1.79 12.145-1.2 3.338-2.92 5.887-5.18 7.649-2.26 1.747-4.99 2.621-8.2 2.621m0-4.688q4.77 0 7.41-4.602t2.64-13.125c0-3.779-.4-6.996-1.21-9.652q-1.2-3.985-3.45-6.073c-1.49-1.392-3.29-2.088-5.39-2.088-3.16 0-5.62 1.556-7.4 4.667-1.77 3.096-2.66 7.478-2.66 13.146 0 3.778.4 6.988 1.19 9.63.8 2.643 1.94 4.652 3.43 6.03 1.51 1.378 3.32 2.067 5.44 2.067m23.35 4.091v-32.727h4.86v5.113h.42c.69-1.747 1.79-3.103 3.31-4.069 1.52-.98 3.34-1.47 5.47-1.47 2.16 0 3.96.49 5.39 1.47q2.175 1.449 3.39 4.069h.34c.84-1.69 2.1-3.032 3.77-4.027q2.52-1.512 6.03-1.512c2.93 0 5.32.916 7.18 2.748q2.79 2.727 2.79 8.502V718h-5.02v-21.903c0-2.415-.66-4.141-1.99-5.178-1.32-1.037-2.87-1.555-4.66-1.555-2.3 0-4.09.696-5.35 2.088-1.26 1.378-1.9 3.125-1.9 5.241V718h-5.11v-22.415c0-1.861-.6-3.359-1.81-4.496-1.21-1.15-2.76-1.725-4.67-1.725-1.3 0-2.53.348-3.66 1.044q-1.68 1.044-2.73 2.897-1.02 1.833-1.02 4.24V718z"/><defs><pattern id="a" width="1" height="1" patternTransform="translate(-2.121 -2.121)scale(73.5)" patternUnits="userSpaceOnUse" preserveAspectRatio="none" viewBox="-2.121 -2.121 73.5 73.5"><use xlink:href="#d" transform="translate(-147 -147)"/><use xlink:href="#d" transform="translate(-73.5 -147)"/><use xlink:href="#d" transform="translate(0 -147)"/><use xlink:href="#d" transform="translate(-147 -73.5)"/><use xlink:href="#d" transform="translate(-73.5 -73.5)"/><use xlink:href="#d" transform="translate(0 -73.5)"/><use xlink:href="#d" transform="translate(-147)"/><use xlink:href="#d" transform="translate(-73.5)"/><path id="d" stroke="#c9c9c9" stroke-width="3" d="m-1.061 145.939 147-147"/></pattern><pattern id="b" width="1" height="1" patternTransform="translate(837.879 -2.121)scale(83.79)" patternUnits="userSpaceOnUse" preserveAspectRatio="none" viewBox="-2.121 -2.121 83.79 83.79"><use xlink:href="#e" transform="translate(-83.79 -83.79)"/><use xlink:href="#e" transform="translate(0 -83.79)"/><use xlink:href="#e" transform="translate(-83.79)"/><path id="e" stroke="#c9c9c9" stroke-width="3" d="m-1.061 145.939 147-147"/></pattern><pattern id="c" width="1" height="1" patternTransform="translate(957.879 477.879)scale(83.79)" patternUnits="userSpaceOnUse" preserveAspectRatio="none" viewBox="-2.121 -2.121 83.79 83.79"><use xlink:href="#f" transform="translate(-83.79 -83.79)"/><use xlink:href="#f" transform="translate(0 -83.79)"/><use xlink:href="#f" transform="translate(-83.79)"/><path id="f" stroke="#c9c9c9" stroke-width="3" d="m-1.061 145.939 147-147"/></pattern></defs></svg>