<svg xmlns="http://www.w3.org/2000/svg" xmlns:xlink="http://www.w3.org/1999/xlink" width="1715" height="1141" fill="none" viewBox="0 0 1715 1141"><rect width="1317" height="837" x="1.5" y="300.5" fill="#272727" stroke="#9c9c9c" stroke-width="3" rx="25.5"/><path fill="#383838" d="M27 300.5h811.5v837H27c-14.083 0-25.5-11.42-25.5-25.5V326c0-14.083 11.417-25.5 25.5-25.5"/><path fill="url(#a)" fill-opacity=".2" d="M27 300.5h811.5v837H27c-14.083 0-25.5-11.42-25.5-25.5V326c0-14.083 11.417-25.5 25.5-25.5"/><path stroke="#c9c9c9" stroke-width="3" d="M27 300.5h811.5v837H27c-14.083 0-25.5-11.42-25.5-25.5V326c0-14.083 11.417-25.5 25.5-25.5Z"/><path stroke="#fff" stroke-width="2" d="M839 129h481M1321 128v88M840 128v88M1502 299v840M1503 1140h-104M1503 300h-104"/><path fill="#fff" d="M1001.75 58v-3.835l14.4-15.767c1.69-1.847 3.09-3.452 4.18-4.816q1.635-2.066 2.43-3.878.81-1.832.81-3.835 0-2.301-1.11-3.984c-.72-1.122-1.72-1.989-2.98-2.6q-1.905-.916-4.26-.916c-1.68 0-3.14.348-4.39 1.044a7.16 7.16 0 0 0-2.88 2.877c-.67 1.236-1 2.684-1 4.346h-5.03q0-3.834 1.77-6.733c1.18-1.931 2.78-3.437 4.81-4.517 2.05-1.08 4.34-1.619 6.89-1.619s4.82.54 6.79 1.62q2.97 1.619 4.65 4.367 1.68 2.75 1.68 6.115 0 2.408-.87 4.71c-.57 1.519-1.57 3.216-2.99 5.091-1.4 1.861-3.36 4.134-5.86 6.819l-9.8 10.483v.34h20.29V58zm34.37-8.949v-4.346l19.17-30.341h3.16v6.733h-2.13l-14.49 22.926v.34h25.82v4.688zM1056.66 58V14.364h5.03V58zm33.21.597c-3.21 0-5.95-.874-8.2-2.621-2.26-1.761-3.99-4.311-5.18-7.65-1.19-3.352-1.79-7.4-1.79-12.144 0-4.716.6-8.743 1.79-12.081 1.21-3.352 2.94-5.91 5.2-7.67 2.27-1.776 5-2.664 8.18-2.664q4.77 0 8.16 2.663c2.27 1.762 4.01 4.319 5.2 7.67 1.21 3.339 1.81 7.366 1.81 12.082 0 4.744-.6 8.792-1.79 12.145-1.19 3.338-2.92 5.888-5.18 7.649-2.26 1.747-4.99 2.62-8.2 2.62m0-4.688q4.77 0 7.41-4.602c1.77-3.068 2.65-7.443 2.65-13.125 0-3.779-.41-6.996-1.22-9.652q-1.185-3.984-3.45-6.073c-1.49-1.392-3.29-2.088-5.39-2.088-3.15 0-5.62 1.556-7.39 4.666q-2.67 4.646-2.67 13.147 0 5.667 1.2 9.63c.79 2.643 1.93 4.653 3.43 6.03q2.25 2.067 5.43 2.067M1113.22 58V25.273h4.86v5.113h.43q1.02-2.62 3.3-4.07c1.52-.98 3.34-1.47 5.47-1.47 2.16 0 3.96.49 5.39 1.47q2.175 1.45 3.39 4.07h.34c.84-1.69 2.1-3.032 3.77-4.027q2.52-1.512 6.03-1.512c2.93 0 5.32.916 7.18 2.748 1.87 1.818 2.8 4.652 2.8 8.502V58h-5.03V36.097q0-3.622-1.98-5.178c-1.33-1.037-2.88-1.555-4.67-1.555-2.3 0-4.08.696-5.35 2.088q-1.89 2.067-1.89 5.241V58h-5.12V35.585c0-1.86-.6-3.36-1.81-4.495-1.21-1.151-2.76-1.726-4.67-1.726q-1.95 0-3.66 1.044-1.68 1.044-2.73 2.897-1.02 1.833-1.02 4.24V58zM1553.76 731.051v-4.346l19.17-30.341h3.16v6.733h-2.13l-14.49 22.926v.341h25.82v4.687zM1574.3 740v-43.636h5.03V740zm18.98 0v-3.835l14.4-15.767c1.69-1.847 3.08-3.452 4.18-4.816q1.635-2.066 2.43-3.877c.54-1.222.8-2.5.8-3.836 0-1.534-.36-2.862-1.1-3.984-.73-1.122-1.72-1.989-2.99-2.599q-1.89-.917-4.26-.917c-1.67 0-3.14.348-4.39 1.044a7.2 7.2 0 0 0-2.87 2.877c-.67 1.236-1 2.684-1 4.346h-5.03q0-3.835 1.77-6.733c1.17-1.931 2.78-3.437 4.81-4.517 2.05-1.079 4.34-1.619 6.88-1.619 2.56 0 4.83.54 6.8 1.619 1.97 1.08 3.52 2.536 4.64 4.368 1.13 1.833 1.69 3.871 1.69 6.115 0 1.605-.29 3.175-.88 4.709-.56 1.52-1.56 3.217-2.98 5.092-1.4 1.861-3.36 4.134-5.86 6.819l-9.8 10.483v.34h20.29V740zm50.56.597c-3.21 0-5.95-.874-8.21-2.621-2.25-1.762-3.98-4.311-5.17-7.649-1.2-3.353-1.79-7.401-1.79-12.145 0-4.716.59-8.743 1.79-12.081 1.2-3.352 2.94-5.909 5.2-7.671 2.27-1.775 5-2.663 8.18-2.663q4.77 0 8.16 2.663c2.27 1.762 4 4.319 5.2 7.671 1.2 3.338 1.81 7.365 1.81 12.081 0 4.744-.6 8.792-1.79 12.145-1.19 3.338-2.92 5.887-5.18 7.649-2.26 1.747-4.99 2.621-8.2 2.621m0-4.688q4.77 0 7.41-4.602t2.64-13.125c0-3.779-.4-6.996-1.21-9.652q-1.2-3.985-3.45-6.073c-1.49-1.392-3.29-2.088-5.39-2.088-3.16 0-5.62 1.556-7.4 4.667-1.77 3.096-2.66 7.478-2.66 13.146 0 3.778.4 6.988 1.19 9.63.8 2.643 1.94 4.652 3.43 6.03 1.51 1.378 3.32 2.067 5.44 2.067m23.35 4.091v-32.727h4.86v5.113h.42c.69-1.747 1.79-3.103 3.31-4.069 1.52-.98 3.34-1.47 5.47-1.47 2.16 0 3.96.49 5.39 1.47q2.175 1.449 3.39 4.069h.34c.84-1.69 2.1-3.032 3.77-4.027q2.52-1.512 6.03-1.512c2.93 0 5.32.916 7.18 2.748q2.79 2.727 2.79 8.502V740h-5.02v-21.903c0-2.415-.66-4.141-1.99-5.178-1.32-1.037-2.87-1.555-4.66-1.555-2.3 0-4.09.696-5.35 2.088-1.26 1.378-1.9 3.125-1.9 5.241V740h-5.11v-22.415c0-1.861-.6-3.359-1.81-4.496-1.21-1.15-2.76-1.725-4.67-1.725-1.3 0-2.53.348-3.66 1.044q-1.68 1.044-2.73 2.897-1.02 1.833-1.02 4.24V740zM207.901 731.051v-4.346l19.176-30.341h3.153v6.733h-2.131l-14.488 22.926v.341h25.824v4.687zM228.44 740v-43.636h5.029V740zm18.979 0v-3.835l14.404-15.767q2.535-2.77 4.176-4.816 1.64-2.066 2.429-3.877.81-1.832.81-3.836 0-2.301-1.108-3.984-1.087-1.683-2.983-2.599t-4.262-.917q-2.514 0-4.389 1.044a7.2 7.2 0 0 0-2.876 2.877q-1.002 1.853-1.002 4.346h-5.028q0-3.835 1.768-6.733t4.816-4.517q3.068-1.619 6.882-1.619 3.835 0 6.797 1.619 2.96 1.62 4.645 4.368 1.683 2.75 1.683 6.115 0 2.408-.874 4.709-.852 2.28-2.983 5.092-2.109 2.791-5.859 6.819l-9.801 10.483v.34h20.284V740zm50.561.597q-4.815 0-8.203-2.621-3.387-2.643-5.177-7.649-1.79-5.03-1.79-12.145 0-7.074 1.79-12.081 1.81-5.028 5.199-7.671 3.409-2.663 8.181-2.663 4.773 0 8.161 2.663 3.41 2.643 5.199 7.671 1.81 5.007 1.811 12.081 0 7.116-1.79 12.145-1.79 5.006-5.177 7.649-3.388 2.62-8.204 2.621m0-4.688q4.773 0 7.415-4.602t2.642-13.125q0-5.668-1.214-9.652-1.194-3.985-3.452-6.073-2.236-2.088-5.391-2.088-4.73 0-7.393 4.667-2.663 4.644-2.663 13.146 0 5.667 1.193 9.63t3.43 6.03q2.259 2.067 5.433 2.067M321.333 740v-32.727h4.858v5.113h.426q1.023-2.62 3.302-4.069 2.28-1.47 5.476-1.47 3.239 0 5.391 1.47 2.173 1.449 3.388 4.069h.341q1.257-2.535 3.771-4.027 2.514-1.512 6.03-1.512 4.389 0 7.18 2.748 2.791 2.727 2.791 8.502V740h-5.028v-21.903q0-3.622-1.982-5.178-1.981-1.555-4.666-1.555-3.452 0-5.348 2.088-1.896 2.067-1.896 5.241V740h-5.114v-22.415q0-2.791-1.811-4.496-1.811-1.725-4.666-1.725a6.9 6.9 0 0 0-3.665 1.044q-1.683 1.044-2.727 2.897-1.023 1.833-1.023 4.24V740zm69.705 0v-43.636h5.028v16.108h.427q.553-.853 1.534-2.174 1-1.342 2.855-2.386 1.875-1.065 5.071-1.065 4.132 0 7.287 2.066 3.153 2.067 4.922 5.86 1.768 3.792 1.768 8.949 0 5.199-1.768 9.012-1.769 3.793-4.901 5.881-3.132 2.067-7.223 2.067-3.154 0-5.05-1.044-1.896-1.065-2.919-2.408-1.023-1.364-1.576-2.258h-.597V740zm4.943-16.364q0 3.707 1.087 6.542 1.086 2.813 3.175 4.41 2.088 1.577 5.113 1.577 3.154 0 5.263-1.662 2.13-1.683 3.196-4.517 1.086-2.855 1.087-6.35 0-3.452-1.066-6.221-1.044-2.791-3.174-4.411-2.11-1.64-5.306-1.64-3.068 0-5.156 1.555-2.088 1.534-3.153 4.304-1.066 2.748-1.066 6.413m33.708 28.637q-1.28 0-2.28-.213-1.002-.192-1.385-.384l1.278-4.432q1.832.469 3.239.341t2.493-1.257q1.107-1.108 2.024-3.601l.937-2.557-12.102-32.897h5.455l9.034 26.079h.341l9.034-26.079h5.454l-13.892 37.5q-.937 2.535-2.322 4.197-1.385 1.683-3.218 2.493-1.811.81-4.09.81m45.926-21.222v-4.346l19.177-30.341h3.153v6.733h-2.131l-14.488 22.926v.341h25.824v4.687zm20.54 8.949v-43.636h5.029V740zm18.979 0v-3.835l14.404-15.767q2.535-2.77 4.176-4.816 1.64-2.066 2.429-3.877.81-1.832.809-3.836 0-2.301-1.108-3.984-1.086-1.683-2.982-2.599t-4.262-.917q-2.514 0-4.389 1.044a7.2 7.2 0 0 0-2.876 2.877q-1.002 1.853-1.002 4.346h-5.028q0-3.835 1.768-6.733t4.815-4.517q3.069-1.619 6.883-1.619 3.835 0 6.796 1.619 2.962 1.62 4.645 4.368 1.684 2.75 1.684 6.115 0 2.408-.874 4.709-.852 2.28-2.983 5.092-2.109 2.791-5.859 6.819l-9.801 10.483v.34h20.284V740zm50.561.597q-4.815 0-8.203-2.621-3.387-2.643-5.177-7.649-1.79-5.03-1.79-12.145 0-7.074 1.79-12.081 1.81-5.028 5.198-7.671 3.41-2.663 8.182-2.663t8.161 2.663q3.41 2.643 5.199 7.671 1.81 5.007 1.811 12.081 0 7.116-1.79 12.145-1.79 5.006-5.178 7.649-3.387 2.62-8.203 2.621m0-4.688q4.773 0 7.415-4.602t2.642-13.125q0-5.668-1.214-9.652-1.194-3.985-3.452-6.073-2.237-2.088-5.391-2.088-4.73 0-7.393 4.667-2.664 4.644-2.664 13.146 0 5.667 1.194 9.63t3.43 6.03q2.259 2.067 5.433 2.067M589.048 740v-32.727h4.858v5.113h.426q1.022-2.62 3.302-4.069 2.28-1.47 5.476-1.47 3.239 0 5.391 1.47 2.173 1.449 3.387 4.069h.341q1.257-2.535 3.772-4.027 2.514-1.512 6.03-1.512 4.389 0 7.18 2.748 2.791 2.727 2.791 8.502V740h-5.028v-21.903q0-3.622-1.982-5.178-1.981-1.555-4.666-1.555-3.452 0-5.348 2.088-1.896 2.067-1.896 5.241V740h-5.114v-22.415q0-2.791-1.811-4.496-1.811-1.725-4.666-1.725a6.9 6.9 0 0 0-3.665 1.044q-1.683 1.044-2.727 2.897-1.023 1.833-1.023 4.24V740z"/><defs><pattern id="a" width="1" height="1" patternTransform="translate(-2.121 296.879)scale(73.5)" patternUnits="userSpaceOnUse" preserveAspectRatio="none" viewBox="-2.121 -2.121 73.5 73.5"><use xlink:href="#b" transform="translate(-147 -147)"/><use xlink:href="#b" transform="translate(-73.5 -147)"/><use xlink:href="#b" transform="translate(0 -147)"/><use xlink:href="#b" transform="translate(-147 -73.5)"/><use xlink:href="#b" transform="translate(-73.5 -73.5)"/><use xlink:href="#b" transform="translate(0 -73.5)"/><use xlink:href="#b" transform="translate(-147)"/><use xlink:href="#b" transform="translate(-73.5)"/><path id="b" stroke="#c9c9c9" stroke-width="3" d="m-1.061 145.939 147-147"/></pattern></defs></svg>