<svg xmlns="http://www.w3.org/2000/svg" width="1746" height="1184" fill="none" viewBox="0 0 1746 1184"><rect width="1317" height="837" x="1.5" y="343.5" fill="#272727" stroke="#9c9c9c" stroke-width="3" rx="25.5"/><path stroke="#fff" stroke-width="2" d="M0 129h1324M1325 128v88M1 128v88M1533 342v840M1534 1183h-104M1534 343h-104"/><path fill="#fff" d="M526.097 783v-43.636h28.892v7.606h-19.666v10.398h17.749v7.606h-17.749V783zm43.85.618q-3.132 0-5.583-1.087-2.45-1.107-3.877-3.26-1.407-2.174-1.407-5.412 0-2.727 1.002-4.581a8.1 8.1 0 0 1 2.727-2.983q1.726-1.129 3.92-1.704a30 30 0 0 1 4.645-.81q2.856-.298 4.603-.554 1.747-.276 2.535-.809.788-.534.788-1.577v-.128q0-2.024-1.278-3.132-1.257-1.108-3.58-1.108-2.45 0-3.899 1.087-1.449 1.065-1.917 2.684l-8.395-.682q.639-2.982 2.514-5.156 1.875-2.195 4.837-3.366 2.982-1.193 6.903-1.193 2.727 0 5.22.639 2.514.639 4.453 1.981a9.64 9.64 0 0 1 3.09 3.452q1.13 2.088 1.129 5.007V783h-8.608v-4.538h-.256a9.2 9.2 0 0 1-2.109 2.706q-1.321 1.15-3.175 1.811-1.853.639-4.282.639m2.599-6.264q2.003 0 3.537-.789 1.534-.809 2.408-2.173t.873-3.089v-3.473q-.425.277-1.172.511-.723.213-1.64.405-.916.17-1.833.319l-1.661.235q-1.599.234-2.792.745-1.193.512-1.853 1.385-.661.853-.661 2.131 0 1.853 1.342 2.834 1.364.959 3.452.959M595.419 783v-32.727h8.8v5.71h.341q.894-3.046 3.004-4.602 2.109-1.577 4.858-1.577.681 0 1.47.085t1.385.235v8.054q-.64-.192-1.768-.341-1.13-.15-2.067-.149-2.003 0-3.58.873a6.43 6.43 0 0 0-2.471 2.386q-.895 1.534-.895 3.537V783zm24.551 0v-32.727h8.65v5.774h.384q1.023-2.877 3.409-4.538t5.71-1.662q3.367 0 5.732 1.683 2.365 1.661 3.153 4.517h.341q1.002-2.813 3.622-4.496 2.643-1.704 6.243-1.704 4.581 0 7.436 2.919 2.877 2.897 2.877 8.224V783h-9.056v-20.22q0-2.727-1.449-4.091t-3.622-1.364q-2.472 0-3.856 1.577-1.385 1.556-1.385 4.112V783h-8.8v-20.412q0-2.407-1.385-3.835-1.363-1.428-3.601-1.428-1.512 0-2.727.767-1.194.746-1.896 2.11-.703 1.342-.703 3.153V783zm63.803-43.636V783h-9.077v-43.636zm16.603 44.254q-3.131 0-5.582-1.087-2.45-1.107-3.878-3.26-1.406-2.174-1.406-5.412 0-2.727 1.001-4.581a8.1 8.1 0 0 1 2.728-2.983q1.725-1.129 3.92-1.704a30 30 0 0 1 4.645-.81 117 117 0 0 0 4.602-.554q1.747-.276 2.536-.809.788-.534.788-1.577v-.128q0-2.024-1.278-3.132-1.257-1.108-3.58-1.108-2.45 0-3.899 1.087-1.449 1.065-1.918 2.684l-8.394-.682q.639-2.982 2.514-5.156 1.875-2.195 4.836-3.366 2.983-1.193 6.904-1.193 2.727 0 5.22.639 2.514.639 4.453 1.981a9.64 9.64 0 0 1 3.09 3.452q1.129 2.088 1.129 5.007V783h-8.608v-4.538h-.256a9.3 9.3 0 0 1-2.109 2.706q-1.321 1.15-3.175 1.811-1.854.639-4.283.639m2.6-6.264q2.003 0 3.537-.789 1.534-.809 2.407-2.173.874-1.364.874-3.089v-3.473q-.426.277-1.172.511-.725.213-1.64.405-.917.17-1.833.319l-1.662.235q-1.598.234-2.791.745-1.192.512-1.854 1.385-.66.853-.66 2.131 0 1.853 1.342 2.834 1.364.959 3.452.959m31.949-13.274V783h-9.076v-32.727h8.65v5.774h.384a9.13 9.13 0 0 1 3.643-4.517q2.558-1.683 6.201-1.683 3.409 0 5.944 1.491t3.942 4.261q1.406 2.749 1.406 6.563V783h-9.077v-19.219q.022-3.004-1.534-4.687-1.555-1.705-4.282-1.705-1.832 0-3.239.789-1.385.788-2.173 2.301-.767 1.49-.789 3.601m40.308 19.453q-3.73 0-6.755-1.918-3.004-1.94-4.772-5.689-1.748-3.77-1.748-9.247 0-5.625 1.812-9.354 1.81-3.75 4.815-5.603 3.026-1.875 6.626-1.875 2.75 0 4.581.937 1.854.916 2.983 2.301 1.151 1.363 1.747 2.685h.277v-16.406h9.056V783h-8.949v-5.241h-.384q-.638 1.364-1.811 2.705-1.15 1.322-3.004 2.195-1.833.874-4.474.874m2.876-7.223q2.195 0 3.707-1.194 1.534-1.213 2.344-3.387.831-2.174.831-5.093t-.81-5.071-2.343-3.324q-1.534-1.171-3.729-1.171-2.237 0-3.771 1.214-1.534 1.215-2.323 3.367-.788 2.151-.788 4.985 0 2.856.788 5.05.81 2.173 2.323 3.409 1.534 1.215 3.771 1.215M599.24 58.597q-2.684-.044-5.369-1.023-2.685-.98-4.901-3.303-2.216-2.343-3.558-6.328-1.342-4.006-1.342-10.057 0-5.795 1.086-10.27 1.087-4.496 3.154-7.563 2.067-3.09 4.985-4.688 2.94-1.598 6.627-1.598 3.664 0 6.52 1.47a12.44 12.44 0 0 1 4.687 4.048q1.812 2.6 2.344 5.988h-5.199q-.724-2.94-2.812-4.88t-5.54-1.939q-5.071 0-7.99 4.411-2.898 4.41-2.919 12.38h.341a12.8 12.8 0 0 1 6.498-5.093 12.7 12.7 0 0 1 4.24-.703q3.75 0 6.861 1.875 3.111 1.854 4.986 5.135 1.875 3.26 1.875 7.478 0 4.05-1.811 7.415a13.8 13.8 0 0 1-5.092 5.327q-3.261 1.96-7.671 1.918m0-4.688q2.685 0 4.815-1.342a9.6 9.6 0 0 0 3.388-3.601q1.257-2.259 1.257-5.029 0-2.705-1.214-4.921a9.27 9.27 0 0 0-3.303-3.559q-2.088-1.32-4.772-1.32-2.025 0-3.772.809a9.7 9.7 0 0 0-3.068 2.173 10.5 10.5 0 0 0-2.045 3.175 9.5 9.5 0 0 0-.746 3.729q0 2.6 1.214 4.858a10 10 0 0 0 3.367 3.643q2.152 1.385 4.879 1.385m37.441 4.688q-2.684-.044-5.369-1.023-2.685-.98-4.9-3.303-2.217-2.343-3.559-6.328-1.342-4.006-1.342-10.057 0-5.795 1.087-10.27 1.086-4.496 3.153-7.563 2.067-3.09 4.986-4.688 2.94-1.598 6.626-1.598 3.665 0 6.52 1.47a12.44 12.44 0 0 1 4.688 4.048q1.81 2.6 2.343 5.988h-5.198q-.725-2.94-2.813-4.88t-5.54-1.939q-5.07 0-7.99 4.411-2.898 4.41-2.919 12.38h.341a12.8 12.8 0 0 1 2.834-3.09 12.8 12.8 0 0 1 3.665-2.003 12.7 12.7 0 0 1 4.24-.703q3.75 0 6.861 1.875 3.11 1.854 4.985 5.135 1.875 3.26 1.875 7.478 0 4.05-1.811 7.415-1.811 3.345-5.092 5.327-3.26 1.96-7.671 1.918m0-4.688q2.685 0 4.816-1.342a9.6 9.6 0 0 0 3.388-3.601q1.257-2.259 1.257-5.029 0-2.705-1.215-4.921a9.26 9.26 0 0 0-3.302-3.559q-2.088-1.32-4.773-1.32-2.025 0-3.771.809a9.7 9.7 0 0 0-3.069 2.173 10.5 10.5 0 0 0-2.045 3.175 9.5 9.5 0 0 0-.746 3.729q0 2.6 1.215 4.858a10 10 0 0 0 3.366 3.643q2.152 1.385 4.879 1.385m37.186 4.688q-4.815 0-8.203-2.621-3.387-2.642-5.177-7.65-1.79-5.028-1.79-12.144 0-7.074 1.79-12.081 1.81-5.029 5.198-7.67 3.41-2.664 8.182-2.664t8.161 2.663q3.408 2.643 5.199 7.67 1.81 5.008 1.811 12.082 0 7.116-1.79 12.145-1.79 5.007-5.178 7.649-3.388 2.62-8.203 2.62m0-4.688q4.773 0 7.415-4.602t2.642-13.125q0-5.668-1.214-9.652-1.194-3.984-3.452-6.073-2.238-2.088-5.391-2.088-4.73 0-7.393 4.666-2.664 4.646-2.664 13.147 0 5.667 1.194 9.63 1.192 3.965 3.43 6.03 2.259 2.067 5.433 2.067M697.219 58V25.273h4.858v5.113h.427q1.022-2.62 3.302-4.07 2.28-1.47 5.476-1.47 3.239 0 5.391 1.47 2.173 1.45 3.387 4.07h.341q1.257-2.535 3.772-4.027 2.514-1.512 6.029-1.512 4.39 0 7.181 2.748 2.791 2.727 2.791 8.502V58h-5.028V36.097q0-3.622-1.982-5.178-1.981-1.555-4.666-1.555-3.452 0-5.348 2.088-1.896 2.067-1.896 5.241V58h-5.114V35.585q0-2.791-1.811-4.495-1.812-1.726-4.666-1.726a6.9 6.9 0 0 0-3.665 1.044q-1.683 1.044-2.727 2.897-1.023 1.833-1.023 4.24V58zM1584.76 774.051v-4.346l19.17-30.341h3.16v6.733h-2.13l-14.49 22.926v.341h25.82v4.687zM1605.3 783v-43.636h5.03V783zm18.98 0v-3.835l14.4-15.767c1.69-1.847 3.08-3.452 4.18-4.816q1.635-2.066 2.43-3.877c.54-1.222.8-2.5.8-3.836 0-1.534-.36-2.862-1.1-3.984-.73-1.122-1.72-1.989-2.99-2.599q-1.89-.917-4.26-.917c-1.67 0-3.14.348-4.39 1.044a7.2 7.2 0 0 0-2.87 2.877c-.67 1.236-1 2.684-1 4.346h-5.03q0-3.835 1.77-6.733c1.17-1.931 2.78-3.437 4.81-4.517 2.05-1.079 4.34-1.619 6.88-1.619 2.56 0 4.83.54 6.8 1.619 1.97 1.08 3.52 2.536 4.64 4.368 1.13 1.833 1.69 3.871 1.69 6.115 0 1.605-.29 3.175-.88 4.709-.56 1.52-1.56 3.217-2.98 5.092-1.4 1.861-3.36 4.134-5.86 6.819l-9.8 10.483v.34h20.29V783zm50.56.597c-3.21 0-5.95-.874-8.21-2.621-2.25-1.762-3.98-4.311-5.17-7.649-1.2-3.353-1.79-7.401-1.79-12.145 0-4.716.59-8.743 1.79-12.081 1.2-3.352 2.94-5.909 5.2-7.671 2.27-1.775 5-2.663 8.18-2.663q4.77 0 8.16 2.663c2.27 1.762 4 4.319 5.2 7.671 1.2 3.338 1.81 7.365 1.81 12.081 0 4.744-.6 8.792-1.79 12.145-1.19 3.338-2.92 5.887-5.18 7.649-2.26 1.747-4.99 2.621-8.2 2.621m0-4.688q4.77 0 7.41-4.602t2.64-13.125c0-3.779-.4-6.996-1.21-9.652q-1.2-3.985-3.45-6.073c-1.49-1.392-3.29-2.088-5.39-2.088-3.16 0-5.62 1.556-7.4 4.667-1.77 3.096-2.66 7.478-2.66 13.146 0 3.778.4 6.988 1.19 9.63.8 2.643 1.94 4.652 3.43 6.03 1.51 1.378 3.32 2.067 5.44 2.067m23.35 4.091v-32.727h4.86v5.113h.42c.69-1.747 1.79-3.103 3.31-4.069 1.52-.98 3.34-1.47 5.47-1.47 2.16 0 3.96.49 5.39 1.47q2.175 1.449 3.39 4.069h.34c.84-1.69 2.1-3.032 3.77-4.027q2.52-1.512 6.03-1.512c2.93 0 5.32.916 7.18 2.748q2.79 2.727 2.79 8.502V783h-5.02v-21.903c0-2.415-.66-4.141-1.99-5.178-1.32-1.037-2.87-1.555-4.66-1.555-2.3 0-4.09.696-5.35 2.088-1.26 1.378-1.9 3.125-1.9 5.241V783h-5.11v-22.415c0-1.861-.6-3.359-1.81-4.496-1.21-1.15-2.76-1.725-4.67-1.725-1.3 0-2.53.348-3.66 1.044q-1.68 1.044-2.73 2.897-1.02 1.833-1.02 4.24V783z"/></svg>