<svg xmlns="http://www.w3.org/2000/svg" width="1914" height="840" fill="none" viewBox="0 0 1914 840"><rect width="117" height="117" x="1627.5" y="361.5" fill="#272727" stroke="#9c9c9c" stroke-width="3" rx="8.5"/><rect width="1317" height="837" x="1.5" y="1.5" fill="#272727" stroke="#9c9c9c" stroke-width="3" rx="25.5"/><path fill="#fff" d="M1645.46 585.597q-2.685-.043-5.37-1.023c-1.79-.654-3.42-1.754-4.9-3.303-1.48-1.562-2.66-3.672-3.56-6.328-.89-2.67-1.34-6.023-1.34-10.057 0-3.863.36-7.287 1.09-10.27q1.08-4.495 3.15-7.563c1.38-2.06 3.04-3.623 4.99-4.688 1.96-1.065 4.17-1.598 6.62-1.598s4.62.49 6.52 1.47c1.92.966 3.48 2.316 4.69 4.049q1.815 2.598 2.34 5.987h-5.2c-.48-1.961-1.42-3.587-2.81-4.88s-3.24-1.938-5.54-1.938c-3.38 0-6.04 1.47-7.99 4.41-1.93 2.94-2.9 7.067-2.92 12.379h.34c.8-1.207 1.74-2.237 2.84-3.089a12.9 12.9 0 0 1 3.66-2.003c1.34-.469 2.75-.703 4.24-.703 2.5 0 4.79.625 6.86 1.875 2.08 1.236 3.74 2.947 4.99 5.135 1.25 2.173 1.87 4.666 1.87 7.479 0 2.698-.6 5.17-1.81 7.414-1.2 2.23-2.9 4.006-5.09 5.327-2.17 1.307-4.73 1.946-7.67 1.918m0-4.688c1.79 0 3.4-.447 4.82-1.342a9.6 9.6 0 0 0 3.38-3.601q1.26-2.259 1.26-5.028c0-1.804-.4-3.445-1.21-4.922-.8-1.492-1.9-2.678-3.31-3.559q-2.085-1.32-4.77-1.321c-1.35 0-2.61.27-3.77.81a9.8 9.8 0 0 0-3.07 2.173 10.5 10.5 0 0 0-2.04 3.175 9.5 9.5 0 0 0-.75 3.729c0 1.733.41 3.352 1.22 4.858a9.95 9.95 0 0 0 3.36 3.643c1.44.923 3.06 1.385 4.88 1.385m37.19 4.688c-3.21 0-5.95-.874-8.21-2.621-2.26-1.762-3.98-4.311-5.17-7.649-1.2-3.353-1.79-7.401-1.79-12.145 0-4.716.59-8.743 1.79-12.081 1.2-3.352 2.94-5.909 5.19-7.671 2.28-1.775 5-2.663 8.19-2.663q4.77 0 8.16 2.663c2.27 1.762 4 4.319 5.2 7.671 1.2 3.338 1.81 7.365 1.81 12.081 0 4.744-.6 8.792-1.79 12.145-1.2 3.338-2.92 5.887-5.18 7.649-2.26 1.747-4.99 2.621-8.2 2.621m0-4.688q4.77 0 7.41-4.602t2.64-13.125c0-3.779-.4-6.996-1.21-9.652q-1.2-3.985-3.45-6.073c-1.49-1.392-3.29-2.088-5.39-2.088-3.16 0-5.62 1.556-7.4 4.667-1.77 3.096-2.66 7.478-2.66 13.146 0 3.778.4 6.988 1.19 9.63.8 2.643 1.94 4.652 3.43 6.03 1.51 1.378 3.32 2.067 5.44 2.067M1706 585v-32.727h4.86v5.113h.42c.68-1.747 1.79-3.103 3.31-4.069 1.52-.98 3.34-1.47 5.47-1.47 2.16 0 3.96.49 5.39 1.47q2.175 1.449 3.39 4.069h.34c.84-1.69 2.1-3.032 3.77-4.027q2.52-1.512 6.03-1.512c2.93 0 5.32.916 7.18 2.748q2.79 2.727 2.79 8.502V585h-5.03v-21.903q0-3.622-1.98-5.178c-1.32-1.037-2.87-1.555-4.66-1.555-2.3 0-4.09.696-5.35 2.088-1.27 1.378-1.9 3.125-1.9 5.241V585h-5.11v-22.415c0-1.861-.6-3.359-1.81-4.496-1.21-1.15-2.76-1.725-4.67-1.725-1.3 0-2.53.348-3.66 1.044q-1.68 1.044-2.73 2.897-1.02 1.833-1.02 4.24V585zM1805.46 441.597q-2.685-.043-5.37-1.023c-1.79-.654-3.42-1.754-4.9-3.303-1.48-1.562-2.66-3.672-3.56-6.328-.89-2.67-1.34-6.023-1.34-10.057 0-3.863.36-7.287 1.09-10.27q1.08-4.495 3.15-7.563c1.38-2.06 3.04-3.623 4.99-4.688 1.96-1.065 4.17-1.598 6.62-1.598s4.62.49 6.52 1.47c1.92.966 3.48 2.316 4.69 4.049q1.815 2.598 2.34 5.987h-5.2c-.48-1.961-1.42-3.587-2.81-4.88s-3.24-1.938-5.54-1.938c-3.38 0-6.04 1.47-7.99 4.41-1.93 2.94-2.9 7.067-2.92 12.379h.34c.8-1.207 1.74-2.237 2.84-3.089a12.9 12.9 0 0 1 3.66-2.003c1.34-.469 2.75-.703 4.24-.703 2.5 0 4.79.625 6.86 1.875 2.08 1.236 3.74 2.947 4.99 5.135 1.25 2.173 1.87 4.666 1.87 7.479 0 2.698-.6 5.17-1.81 7.414-1.2 2.23-2.9 4.006-5.09 5.327-2.17 1.307-4.73 1.946-7.67 1.918m0-4.688c1.79 0 3.4-.447 4.82-1.342a9.6 9.6 0 0 0 3.38-3.601q1.26-2.259 1.26-5.028c0-1.804-.4-3.445-1.21-4.922-.8-1.492-1.9-2.678-3.31-3.559q-2.085-1.32-4.77-1.321c-1.35 0-2.61.27-3.77.81a9.8 9.8 0 0 0-3.07 2.173 10.5 10.5 0 0 0-2.04 3.175 9.5 9.5 0 0 0-.75 3.729c0 1.733.41 3.352 1.22 4.858a9.95 9.95 0 0 0 3.36 3.643c1.44.923 3.06 1.385 4.88 1.385m37.19 4.688c-3.21 0-5.95-.874-8.21-2.621-2.26-1.762-3.98-4.311-5.17-7.649-1.2-3.353-1.79-7.401-1.79-12.145 0-4.716.59-8.743 1.79-12.081 1.2-3.352 2.94-5.909 5.19-7.671 2.28-1.775 5-2.663 8.19-2.663q4.77 0 8.16 2.663c2.27 1.762 4 4.319 5.2 7.671 1.2 3.338 1.81 7.365 1.81 12.081 0 4.744-.6 8.792-1.79 12.145-1.2 3.338-2.92 5.887-5.18 7.649-2.26 1.747-4.99 2.621-8.2 2.621m0-4.688q4.77 0 7.41-4.602t2.64-13.125c0-3.779-.4-6.996-1.21-9.652q-1.2-3.985-3.45-6.073c-1.49-1.392-3.29-2.088-5.39-2.088-3.16 0-5.62 1.556-7.4 4.667-1.77 3.096-2.66 7.478-2.66 13.146 0 3.778.4 6.988 1.19 9.63.8 2.643 1.94 4.652 3.43 6.03 1.51 1.378 3.32 2.067 5.44 2.067M1866 441v-32.727h4.86v5.113h.42c.68-1.747 1.79-3.103 3.31-4.069 1.52-.98 3.34-1.47 5.47-1.47 2.16 0 3.96.49 5.39 1.47q2.175 1.449 3.39 4.069h.34c.84-1.69 2.1-3.032 3.77-4.027q2.52-1.512 6.03-1.512c2.93 0 5.32.916 7.18 2.748q2.79 2.727 2.79 8.502V441h-5.03v-21.903q0-3.623-1.98-5.178c-1.32-1.037-2.87-1.555-4.66-1.555-2.3 0-4.09.696-5.35 2.088-1.27 1.378-1.9 3.125-1.9 5.241V441h-5.11v-22.415c0-1.861-.6-3.359-1.81-4.496-1.21-1.15-2.76-1.725-4.67-1.725-1.3 0-2.53.348-3.66 1.044q-1.68 1.044-2.73 2.897-1.02 1.833-1.02 4.24V441z"/><path stroke="#9c9c9c" stroke-width="2" d="M121 0v840M0 119h1320M0 239h1320M0 359h1320M0 479h1320M0 599h1320M0 719h1320M241 0v840M361 0v840M481 0v840M601 0v840M721 0v840M841 0v840M961 0v840M1081 0v840M1201 0v840"/><path fill="#9c9c9c" d="M1564.12 421.621a3 3 0 0 0 0-4.242l-19.09-19.092a2.996 2.996 0 0 0-4.24 0 3 3 0 0 0 0 4.242l16.97 16.971-16.97 16.971a3 3 0 0 0 0 4.242 2.996 2.996 0 0 0 4.24 0zM1410 419.5v3h152v-6h-152z"/></svg>