<svg xmlns="http://www.w3.org/2000/svg" width="1193" height="1375" fill="none" viewBox="0 0 1193 1375"><rect width="213" height="77" x="1" y="895" stroke="#dbdbdb" stroke-width="2" rx="27"/><rect width="213" height="77" x="1" y="129" stroke="#dbdbdb" stroke-width="2" rx="27"/><rect width="359" height="77" x="318" y="895" stroke="#dbdbdb" stroke-width="2" rx="27"/><rect width="359" height="77" x="318" y="129" stroke="#dbdbdb" stroke-width="2" rx="27"/><path fill="#fff" d="M79.668 949.398q-3.21 0-5.469-1.747-2.258-1.762-3.451-5.1-1.194-3.353-1.194-8.096 0-4.716 1.194-8.054 1.207-3.353 3.465-5.114 2.274-1.776 5.455-1.776t5.44 1.776q2.273 1.761 3.466 5.114 1.208 3.338 1.208 8.054 0 4.743-1.194 8.096-1.193 3.338-3.451 5.1-2.259 1.746-5.469 1.747m0-3.125q3.182 0 4.943-3.068 1.761-3.07 1.761-8.75 0-3.779-.81-6.435-.795-2.656-2.3-4.048-1.492-1.392-3.594-1.392-3.153 0-4.929 3.11-1.776 3.097-1.776 8.765 0 3.778.796 6.42t2.287 4.02q1.506 1.377 3.622 1.378M95.236 949v-21.818h3.239v3.409h.284q.681-1.747 2.202-2.713 1.52-.98 3.65-.98 2.16 0 3.594.98 1.45.966 2.258 2.713h.228q.837-1.69 2.514-2.685 1.676-1.008 4.02-1.008 2.926 0 4.787 1.832 1.86 1.818 1.861 5.668V949h-3.353v-14.602q0-2.415-1.321-3.452t-3.111-1.037q-2.3 0-3.565 1.392-1.264 1.378-1.264 3.494V949h-3.409v-14.943q0-1.861-1.208-2.997-1.207-1.15-3.11-1.151-1.307 0-2.444.696-1.122.696-1.818 1.932-.681 1.221-.682 2.827V949zm50.22-16.932-3.011.852a5.6 5.6 0 0 0-.838-1.463q-.54-.724-1.477-1.193t-2.401-.469q-2.003 0-3.338.924-1.321.91-1.321 2.315 0 1.25.909 1.975.909.723 2.841 1.207l3.239.795q2.925.71 4.36 2.174 1.435 1.449 1.435 3.735 0 1.875-1.079 3.353-1.066 1.477-2.983 2.329t-4.461.853q-3.338 0-5.525-1.449t-2.77-4.233l3.182-.796q.455 1.762 1.718 2.642 1.279.88 3.339.881 2.344 0 3.721-.994 1.392-1.01 1.392-2.415 0-1.137-.795-1.903-.796-.782-2.443-1.165l-3.637-.853q-2.997-.71-4.403-2.201-1.392-1.506-1.392-3.764 0-1.848 1.037-3.267 1.05-1.42 2.855-2.231 1.818-.809 4.119-.809 3.238 0 5.085 1.42 1.861 1.42 2.642 3.75M79.668 183.398q-3.21 0-5.469-1.747-2.258-1.762-3.451-5.1-1.194-3.353-1.194-8.096 0-4.716 1.194-8.054 1.207-3.353 3.465-5.114 2.274-1.776 5.455-1.776t5.44 1.776q2.273 1.761 3.466 5.114 1.208 3.338 1.208 8.054 0 4.743-1.194 8.096-1.193 3.338-3.451 5.1-2.259 1.746-5.469 1.747m0-3.125q3.182 0 4.943-3.068 1.761-3.07 1.761-8.75 0-3.779-.81-6.435-.795-2.656-2.3-4.048-1.492-1.392-3.594-1.392-3.153 0-4.929 3.11-1.776 3.097-1.776 8.765 0 3.778.796 6.42t2.287 4.02q1.506 1.377 3.622 1.378M95.236 183v-21.818h3.239v3.409h.284q.681-1.747 2.202-2.713 1.52-.98 3.65-.98 2.16 0 3.594.98 1.45.966 2.258 2.713h.228q.837-1.69 2.514-2.685 1.676-1.008 4.02-1.008 2.926 0 4.787 1.832 1.86 1.818 1.861 5.668V183h-3.353v-14.602q0-2.415-1.321-3.452t-3.111-1.037q-2.3 0-3.565 1.392-1.264 1.378-1.264 3.494V183h-3.409v-14.943q0-1.862-1.208-2.997-1.207-1.15-3.11-1.151-1.307 0-2.444.696-1.122.696-1.818 1.932-.681 1.221-.682 2.827V183zm50.22-16.932-3.011.852a5.6 5.6 0 0 0-.838-1.463q-.54-.724-1.477-1.193t-2.401-.469q-2.003 0-3.338.924-1.321.91-1.321 2.315 0 1.25.909 1.975.909.723 2.841 1.207l3.239.795q2.925.71 4.36 2.174 1.435 1.449 1.435 3.735 0 1.875-1.079 3.353-1.066 1.477-2.983 2.329t-4.461.853q-3.338 0-5.525-1.449t-2.77-4.233l3.182-.796q.455 1.762 1.718 2.642 1.279.88 3.339.881 2.344 0 3.721-.994 1.392-1.01 1.392-2.415 0-1.137-.795-1.903-.796-.782-2.443-1.165l-3.637-.853q-2.997-.71-4.403-2.201-1.392-1.506-1.392-3.764 0-1.848 1.037-3.267 1.05-1.42 2.855-2.231 1.818-.809 4.119-.809 3.238 0 5.085 1.42 1.861 1.42 2.642 3.75M460.07 949v-2.557l9.602-10.511a67 67 0 0 0 2.784-3.21q1.094-1.378 1.62-2.586a6.3 6.3 0 0 0 .539-2.556q0-1.535-.738-2.657-.724-1.122-1.989-1.733-1.265-.61-2.841-.61-1.676 0-2.926.696a4.8 4.8 0 0 0-1.918 1.917q-.667 1.236-.667 2.898h-3.352q0-2.557 1.179-4.489a8.2 8.2 0 0 1 3.21-3.011q2.045-1.08 4.588-1.08 2.556 0 4.531 1.08t3.097 2.912 1.122 4.077q0 1.605-.583 3.139-.567 1.52-1.988 3.395-1.407 1.86-3.906 4.545l-6.534 6.989v.227h13.522V949zm24.276 0v-21.818h3.238v3.409h.284q.683-1.747 2.202-2.713 1.52-.98 3.651-.98 2.159 0 3.593.98 1.449.966 2.259 2.713h.227q.839-1.69 2.514-2.685 1.677-1.008 4.02-1.008 2.927 0 4.787 1.832 1.861 1.818 1.861 5.668V949h-3.352v-14.602q0-2.415-1.321-3.452-1.322-1.037-3.111-1.037-2.301 0-3.566 1.392-1.263 1.378-1.264 3.494V949h-3.409v-14.943q0-1.861-1.207-2.997-1.208-1.15-3.111-1.151-1.307 0-2.443.696-1.122.696-1.818 1.932-.682 1.221-.682 2.827V949zm50.22-16.932-3.012.852a5.6 5.6 0 0 0-.838-1.463q-.54-.724-1.477-1.193t-2.401-.469q-2.002 0-3.338.924-1.32.91-1.321 2.315 0 1.25.909 1.975.909.723 2.841 1.207l3.239.795q2.926.71 4.361 2.174 1.434 1.449 1.434 3.735 0 1.875-1.079 3.353-1.066 1.477-2.983 2.329t-4.46.853q-3.339 0-5.526-1.449t-2.77-4.233l3.182-.796q.454 1.762 1.719 2.642 1.278.88 3.338.881 2.344 0 3.721-.994 1.393-1.01 1.393-2.415 0-1.137-.796-1.903-.795-.782-2.443-1.165l-3.636-.853q-2.998-.71-4.404-2.201-1.392-1.506-1.392-3.764 0-1.848 1.037-3.267 1.051-1.42 2.855-2.231 1.818-.809 4.119-.809 3.24 0 5.086 1.42 1.86 1.42 2.642 3.75M460.07 183v-2.557l9.602-10.511a67 67 0 0 0 2.784-3.21q1.094-1.379 1.62-2.586a6.3 6.3 0 0 0 .539-2.556q0-1.535-.738-2.657-.724-1.121-1.989-1.733-1.265-.61-2.841-.61-1.676 0-2.926.696a4.8 4.8 0 0 0-1.918 1.917q-.667 1.236-.667 2.898h-3.352q0-2.557 1.179-4.489a8.2 8.2 0 0 1 3.21-3.011q2.045-1.08 4.588-1.08 2.556 0 4.531 1.08t3.097 2.912 1.122 4.077q0 1.605-.583 3.139-.567 1.52-1.988 3.395-1.407 1.86-3.906 4.545l-6.534 6.989v.227h13.522V183zm24.276 0v-21.818h3.238v3.409h.284q.683-1.747 2.202-2.713 1.52-.98 3.651-.98 2.159 0 3.593.98 1.449.966 2.259 2.713h.227q.839-1.69 2.514-2.685 1.677-1.008 4.02-1.008 2.927 0 4.787 1.832 1.861 1.818 1.861 5.668V183h-3.352v-14.602q0-2.415-1.321-3.452-1.322-1.037-3.111-1.037-2.301 0-3.566 1.392-1.263 1.378-1.264 3.494V183h-3.409v-14.943q0-1.862-1.207-2.997-1.208-1.15-3.111-1.151-1.307 0-2.443.696-1.122.696-1.818 1.932-.682 1.221-.682 2.827V183zm50.22-16.932-3.012.852a5.6 5.6 0 0 0-.838-1.463q-.54-.724-1.477-1.193t-2.401-.469q-2.002 0-3.338.924-1.32.91-1.321 2.315 0 1.25.909 1.975.909.723 2.841 1.207l3.239.795q2.926.71 4.361 2.174 1.434 1.449 1.434 3.735 0 1.875-1.079 3.353-1.066 1.477-2.983 2.329t-4.46.853q-3.339 0-5.526-1.449t-2.77-4.233l3.182-.796q.454 1.762 1.719 2.642 1.278.88 3.338.881 2.344 0 3.721-.994 1.393-1.01 1.393-2.415 0-1.137-.796-1.903-.795-.782-2.443-1.165l-3.636-.853q-2.998-.71-4.404-2.201-1.392-1.506-1.392-3.764 0-1.848 1.037-3.267 1.051-1.42 2.855-2.231 1.818-.809 4.119-.809 3.24 0 5.086 1.42 1.86 1.42 2.642 3.75M63.104 785H59.58q-.312-1.52-1.094-2.67a7.3 7.3 0 0 0-1.875-1.932 8 8 0 0 0-2.429-1.193 9.7 9.7 0 0 0-2.784-.398q-2.642 0-4.787 1.335-2.13 1.335-3.395 3.935-1.25 2.6-1.25 6.378t1.25 6.377q1.265 2.6 3.395 3.935 2.145 1.335 4.787 1.335 1.449 0 2.784-.397 1.335-.399 2.43-1.179a7.5 7.5 0 0 0 1.874-1.946q.782-1.165 1.094-2.671h3.523q-.397 2.23-1.45 3.992a10.9 10.9 0 0 1-2.613 2.997 11.5 11.5 0 0 1-3.508 1.861q-1.932.639-4.134.639-3.72 0-6.62-1.818-2.896-1.819-4.559-5.171-1.662-3.352-1.662-7.954t1.662-7.955q1.662-3.352 4.56-5.17 2.898-1.82 6.62-1.819 2.2 0 4.133.64a11.3 11.3 0 0 1 3.508 1.875 10.7 10.7 0 0 1 2.614 2.983q1.05 1.747 1.449 3.991m18.988 11.08v-12.898h3.352V805h-3.352v-3.693h-.228q-.766 1.662-2.386 2.827-1.62 1.15-4.09 1.15-2.047 0-3.637-.895-1.59-.909-2.5-2.727-.91-1.832-.91-4.617v-13.863h3.353v13.636q0 2.387 1.335 3.807 1.35 1.42 3.438 1.42 1.25 0 2.542-.639 1.306-.639 2.188-1.96.894-1.322.895-3.366m9.492 8.92v-21.818h3.238v3.295h.228q.596-1.618 2.159-2.628 1.562-1.008 3.523-1.008.37 0 .923.014.554.015.838.043v3.409a10 10 0 0 0-.781-.128 8 8 0 0 0-1.265-.099q-1.59 0-2.84.667a5.04 5.04 0 0 0-1.96 1.818q-.71 1.15-.71 2.628V805zm14.883 0v-21.818h3.238v3.295h.228q.596-1.618 2.159-2.628 1.562-1.008 3.522-1.008.37 0 .924.014.553.015.838.043v3.409a10 10 0 0 0-.782-.128 8 8 0 0 0-1.264-.099q-1.59 0-2.841.667a5.04 5.04 0 0 0-1.96 1.818q-.71 1.15-.71 2.628V805zm23.366.455q-3.154 0-5.44-1.393-2.273-1.406-3.509-3.92-1.221-2.529-1.221-5.881 0-3.351 1.221-5.909 1.236-2.571 3.438-4.005 2.215-1.449 5.17-1.449 1.705 0 3.367.568t3.025 1.846q1.364 1.265 2.174 3.353t.809 5.142v1.42h-16.818v-2.897h13.409q0-1.847-.739-3.296a5.56 5.56 0 0 0-2.073-2.287q-1.336-.838-3.154-.838-2.002 0-3.466.994a6.55 6.55 0 0 0-2.23 2.557 7.5 7.5 0 0 0-.781 3.381v1.932q0 2.47.852 4.19.867 1.705 2.401 2.599 1.534.881 3.565.881 1.321 0 2.386-.369a5.1 5.1 0 0 0 1.861-1.136q.782-.767 1.208-1.904l3.238.909a7.2 7.2 0 0 1-1.718 2.898q-1.208 1.236-2.983 1.932-1.776.682-3.992.682m17.486-13.58V805h-3.352v-21.818h3.238v3.409h.284a6.24 6.24 0 0 1 2.33-2.671q1.563-1.022 4.034-1.022 2.216 0 3.878.909 1.662.894 2.585 2.727.923 1.818.923 4.602V805h-3.352v-13.636q0-2.572-1.335-4.006-1.335-1.449-3.665-1.449-1.605 0-2.869.696-1.25.696-1.975 2.031-.724 1.336-.724 3.239m29.535-8.693v2.841h-11.307v-2.841zm-8.012-5.227h3.353v20.795q0 1.42.412 2.131.425.696 1.079.937a4.3 4.3 0 0 0 1.406.227q.555 0 .909-.056l.569-.114.681 3.011a7 7 0 0 1-.951.256q-.611.142-1.549.142a6.75 6.75 0 0 1-2.784-.611 5.53 5.53 0 0 1-2.244-1.861q-.88-1.25-.881-3.153zm-111.52 49.079v-3.125h21.819v3.125h-9.148V853H66.47v-25.966zM84.122 853v-21.818h3.353V853zm1.705-25.455a2.38 2.38 0 0 1-1.69-.667q-.696-.668-.696-1.605 0-.938.696-1.605a2.38 2.38 0 0 1 1.69-.668q.981 0 1.677.668.71.667.71 1.605t-.71 1.605a2.34 2.34 0 0 1-1.677.667M93.615 853v-21.818h3.239v3.409h.284q.681-1.747 2.201-2.713 1.521-.98 3.651-.98 2.159 0 3.594.98 1.45.966 2.258 2.713h.228q.837-1.69 2.514-2.685 1.675-1.008 4.02-1.008 2.925 0 4.787 1.832 1.86 1.818 1.86 5.668V853h-3.352v-14.602q0-2.415-1.321-3.452t-3.111-1.037q-2.3 0-3.565 1.392-1.264 1.378-1.264 3.494V853h-3.409v-14.943q0-1.861-1.208-2.997-1.208-1.15-3.11-1.151-1.308 0-2.444.696-1.122.696-1.818 1.932-.681 1.221-.682 2.827V853zm43.913.455q-3.153 0-5.44-1.393-2.273-1.406-3.508-3.92-1.222-2.529-1.222-5.881 0-3.351 1.222-5.909 1.235-2.571 3.437-4.005 2.216-1.449 5.171-1.449 1.704 0 3.366.568t3.026 1.846q1.363 1.265 2.173 3.353t.809 5.142v1.42h-16.818v-2.897h13.409q0-1.847-.738-3.296a5.57 5.57 0 0 0-2.074-2.287q-1.335-.838-3.153-.838-2.004 0-3.466.994a6.55 6.55 0 0 0-2.231 2.557 7.5 7.5 0 0 0-.781 3.381v1.932q0 2.47.852 4.19.867 1.705 2.401 2.599 1.534.881 3.565.881 1.322 0 2.387-.369a5.1 5.1 0 0 0 1.861-1.136q.78-.767 1.207-1.904l3.239.909a7.2 7.2 0 0 1-1.719 2.898q-1.207 1.236-2.983 1.932-1.775.682-3.992.682m16.577-.228a2.46 2.46 0 0 1-1.804-.753 2.46 2.46 0 0 1-.753-1.804q0-1.05.753-1.804a2.46 2.46 0 0 1 1.804-.752q1.051 0 1.804.752.753.753.753 1.804 0 .697-.355 1.279a2.65 2.65 0 0 1-.923.937 2.43 2.43 0 0 1-1.279.341m0-16.193a2.46 2.46 0 0 1-1.804-.753 2.46 2.46 0 0 1-.753-1.804q0-1.05.753-1.804a2.46 2.46 0 0 1 1.804-.753 2.46 2.46 0 0 1 1.804.753q.753.754.753 1.804 0 .696-.355 1.279-.34.582-.923.937a2.44 2.44 0 0 1-1.279.341M63.104 19H59.58q-.312-1.52-1.094-2.67a7.3 7.3 0 0 0-1.875-1.932 8 8 0 0 0-2.429-1.194 9.7 9.7 0 0 0-2.784-.397q-2.642 0-4.787 1.335-2.13 1.335-3.395 3.935-1.25 2.6-1.25 6.377 0 3.78 1.25 6.378 1.265 2.6 3.395 3.935 2.145 1.335 4.787 1.335 1.449 0 2.784-.397 1.335-.399 2.43-1.18a7.5 7.5 0 0 0 1.874-1.945q.782-1.166 1.094-2.67h3.523q-.397 2.229-1.45 3.99a10.9 10.9 0 0 1-2.613 2.998 11.5 11.5 0 0 1-3.508 1.86q-1.932.64-4.134.64-3.72 0-6.62-1.819-2.896-1.818-4.559-5.17-1.662-3.352-1.662-7.954T40.22 16.5t4.56-5.17q2.898-1.82 6.62-1.819 2.2 0 4.133.64a11.3 11.3 0 0 1 3.508 1.875 10.7 10.7 0 0 1 2.614 2.983q1.05 1.746 1.449 3.991m18.988 11.08V17.182h3.352V39h-3.352v-3.693h-.228q-.766 1.662-2.386 2.826-1.62 1.151-4.09 1.151-2.047 0-3.637-.895-1.59-.909-2.5-2.727-.91-1.832-.91-4.616V17.182h3.353v13.636q0 2.387 1.335 3.807 1.35 1.42 3.438 1.42 1.25 0 2.542-.639 1.306-.64 2.188-1.96.894-1.32.895-3.366M91.584 39V17.182h3.238v3.295h.228q.596-1.62 2.159-2.628t3.523-1.008q.37 0 .923.014.554.015.838.043v3.409a10 10 0 0 0-.781-.128 7.7 7.7 0 0 0-1.265-.1q-1.59 0-2.84.668a5.04 5.04 0 0 0-1.96 1.818q-.71 1.15-.71 2.628V39zm14.883 0V17.182h3.238v3.295h.228q.596-1.62 2.159-2.628t3.522-1.008q.37 0 .924.014.553.015.838.043v3.409a10 10 0 0 0-.782-.128 7.7 7.7 0 0 0-1.264-.1q-1.59 0-2.841.668a5.04 5.04 0 0 0-1.96 1.818q-.71 1.15-.71 2.628V39zm23.366.455q-3.154 0-5.44-1.392-2.273-1.407-3.509-3.921-1.221-2.529-1.221-5.88 0-3.353 1.221-5.91 1.236-2.571 3.438-4.005 2.215-1.45 5.17-1.45 1.705 0 3.367.569 1.662.568 3.025 1.846 1.364 1.264 2.174 3.353.809 2.088.809 5.142v1.42h-16.818V26.33h13.409q0-1.846-.739-3.295a5.56 5.56 0 0 0-2.073-2.287q-1.336-.838-3.154-.838-2.002 0-3.466.994a6.54 6.54 0 0 0-2.23 2.557 7.5 7.5 0 0 0-.781 3.38v1.933q0 2.472.852 4.19.867 1.704 2.401 2.6 1.534.88 3.565.88 1.321 0 2.386-.37a5.1 5.1 0 0 0 1.861-1.136q.782-.766 1.208-1.903l3.238.91a7.2 7.2 0 0 1-1.718 2.897q-1.208 1.236-2.983 1.932-1.776.681-3.992.681m17.486-13.58V39h-3.352V17.182h3.238v3.409h.284a6.23 6.23 0 0 1 2.33-2.67q1.563-1.023 4.034-1.023 2.216 0 3.878.909 1.662.895 2.585 2.727.923 1.818.923 4.602V39h-3.352V25.364q0-2.572-1.335-4.006-1.335-1.449-3.665-1.449-1.605 0-2.869.696-1.25.696-1.975 2.031-.724 1.335-.724 3.239m29.535-8.693v2.84h-11.307v-2.84zm-8.012-5.227h3.353V32.75q0 1.42.412 2.13.425.697 1.079.938.668.227 1.406.227.555 0 .909-.056l.569-.114.681 3.011q-.34.128-.951.256-.611.142-1.549.142a6.75 6.75 0 0 1-2.784-.61 5.54 5.54 0 0 1-2.244-1.861q-.88-1.25-.881-3.154zm-111.52 49.08v-3.126h21.819v3.125h-9.148V87H66.47V61.034zM84.122 87V65.182h3.353V87zm1.705-25.455a2.38 2.38 0 0 1-1.69-.667q-.696-.667-.696-1.605t.696-1.605a2.38 2.38 0 0 1 1.69-.668q.981 0 1.677.668.71.667.71 1.605t-.71 1.605a2.34 2.34 0 0 1-1.677.667M93.615 87V65.182h3.239v3.409h.284q.681-1.748 2.201-2.713 1.521-.98 3.651-.98 2.159 0 3.594.98 1.45.966 2.258 2.713h.228q.837-1.69 2.514-2.685 1.675-1.008 4.02-1.008 2.925 0 4.787 1.832 1.86 1.818 1.86 5.668V87h-3.352V72.398q0-2.415-1.321-3.452t-3.111-1.037q-2.3 0-3.565 1.392-1.264 1.378-1.264 3.495V87h-3.409V72.057q0-1.86-1.208-2.997-1.208-1.15-3.11-1.15-1.308 0-2.444.695-1.122.696-1.818 1.932-.681 1.221-.682 2.827V87zm43.913.454q-3.153 0-5.44-1.391-2.273-1.407-3.508-3.921-1.222-2.529-1.222-5.88 0-3.353 1.222-5.91 1.235-2.571 3.437-4.005 2.216-1.45 5.171-1.45 1.704 0 3.366.569 1.662.568 3.026 1.847 1.363 1.263 2.173 3.352t.809 5.142v1.42h-16.818V74.33h13.409q0-1.845-.738-3.295a5.56 5.56 0 0 0-2.074-2.287q-1.335-.838-3.153-.838-2.004 0-3.466.994a6.54 6.54 0 0 0-2.231 2.557 7.5 7.5 0 0 0-.781 3.38v1.933q0 2.471.852 4.19.867 1.704 2.401 2.6 1.534.88 3.565.88 1.322 0 2.387-.37a5.1 5.1 0 0 0 1.861-1.135q.78-.767 1.207-1.904l3.239.91a7.2 7.2 0 0 1-1.719 2.897q-1.207 1.236-2.983 1.932-1.775.681-3.992.681m16.577-.227a2.46 2.46 0 0 1-1.804-.753 2.46 2.46 0 0 1-.753-1.803q0-1.052.753-1.805a2.46 2.46 0 0 1 1.804-.752 2.46 2.46 0 0 1 1.804.752 2.46 2.46 0 0 1 .753 1.805q0 .695-.355 1.278-.34.582-.923.937-.568.341-1.279.341m0-16.193a2.46 2.46 0 0 1-1.804-.753 2.46 2.46 0 0 1-.753-1.804q0-1.05.753-1.804a2.46 2.46 0 0 1 1.804-.752q1.051 0 1.804.752a2.46 2.46 0 0 1 .753 1.804q0 .696-.355 1.279-.34.582-.923.937-.568.341-1.279.341M380.584 779.034v-3.125h21.818v3.125h-9.147V805h-3.523v-25.966zM407.385 805v-21.818h3.352V805zm1.704-25.455a2.38 2.38 0 0 1-1.69-.667q-.696-.668-.696-1.605 0-.938.696-1.605a2.38 2.38 0 0 1 1.69-.668q.98 0 1.676.668.71.667.71 1.605t-.71 1.605a2.33 2.33 0 0 1-1.676.667M416.877 805v-21.818h3.238v3.409h.285q.681-1.747 2.201-2.713 1.52-.98 3.651-.98 2.159 0 3.594.98 1.448.966 2.258 2.713h.227q.838-1.69 2.515-2.685 1.676-1.008 4.019-1.008 2.927 0 4.787 1.832 1.861 1.818 1.861 5.668V805h-3.352v-14.602q0-2.415-1.321-3.452-1.322-1.037-3.111-1.037-2.3 0-3.565 1.392-1.264 1.378-1.264 3.494V805h-3.41v-14.943q0-1.861-1.207-2.997-1.207-1.15-3.111-1.151-1.306 0-2.443.696-1.122.696-1.818 1.932-.682 1.221-.682 2.827V805zm43.913.455q-3.153 0-5.44-1.393-2.273-1.406-3.509-3.92-1.221-2.529-1.221-5.881 0-3.351 1.221-5.909 1.236-2.571 3.438-4.005 2.216-1.449 5.17-1.449 1.705 0 3.367.568t3.025 1.846q1.364 1.265 2.174 3.353t.809 5.142v1.42h-16.818v-2.897h13.409q0-1.847-.739-3.296a5.56 5.56 0 0 0-2.073-2.287q-1.336-.838-3.154-.838-2.002 0-3.466.994a6.55 6.55 0 0 0-2.23 2.557 7.5 7.5 0 0 0-.781 3.381v1.932q0 2.47.852 4.19.867 1.705 2.401 2.599 1.534.881 3.565.881 1.321 0 2.386-.369a5.1 5.1 0 0 0 1.861-1.136q.782-.767 1.208-1.904l3.238.909a7.2 7.2 0 0 1-1.718 2.898q-1.208 1.236-2.983 1.932-1.776.682-3.992.682m25.838-.455v-29.091h3.523v25.966h13.523V805zm31.193.455q-3.153 0-5.44-1.393-2.273-1.406-3.508-3.92-1.222-2.529-1.222-5.881 0-3.351 1.222-5.909 1.235-2.571 3.437-4.005 2.216-1.449 5.17-1.449 1.705 0 3.367.568t3.026 1.846q1.363 1.265 2.173 3.353t.809 5.142v1.42h-16.818v-2.897h13.409q0-1.847-.738-3.296a5.57 5.57 0 0 0-2.074-2.287q-1.335-.838-3.154-.838-2.003 0-3.465.994a6.55 6.55 0 0 0-2.231 2.557 7.5 7.5 0 0 0-.781 3.381v1.932q0 2.47.852 4.19.867 1.705 2.401 2.599 1.534.881 3.565.881 1.322 0 2.387-.369a5.1 5.1 0 0 0 1.861-1.136q.78-.767 1.207-1.904l3.239.909a7.2 7.2 0 0 1-1.719 2.898q-1.207 1.236-2.983 1.932-1.775.682-3.992.682m23.85-22.273v2.841h-11.762v-2.841zM533.432 805v-24.83q0-1.875.881-3.125a5.46 5.46 0 0 1 2.287-1.875 7.2 7.2 0 0 1 2.969-.625q1.235 0 2.017.199.78.2 1.164.37l-.966 2.897q-.255-.084-.71-.213-.44-.128-1.165-.128-1.662 0-2.4.839-.725.837-.725 2.457V805zm22.426-21.818v2.841h-11.307v-2.841zm-8.012-5.227h3.353v20.795q0 1.42.411 2.131.427.696 1.08.937a4.3 4.3 0 0 0 1.406.227q.555 0 .909-.056l.569-.114.681 3.011a7 7 0 0 1-.951.256q-.612.142-1.549.142a6.75 6.75 0 0 1-2.784-.611 5.53 5.53 0 0 1-2.244-1.861q-.88-1.25-.881-3.153zm33.168 27.5q-2.955 0-5.185-1.407-2.215-1.406-3.466-3.934-1.236-2.53-1.236-5.909 0-3.41 1.236-5.952 1.25-2.543 3.466-3.949 2.23-1.407 5.185-1.406 2.955 0 5.17 1.406 2.23 1.406 3.466 3.949 1.25 2.543 1.25 5.952 0 3.38-1.25 5.909-1.236 2.528-3.466 3.934-2.215 1.407-5.17 1.407m0-3.012q2.244 0 3.693-1.15t2.145-3.026.696-4.062q0-2.188-.696-4.077-.696-1.89-2.145-3.054-1.449-1.165-3.693-1.165t-3.693 1.165-2.145 3.054-.696 4.077.696 4.062 2.145 3.026q1.449 1.15 3.693 1.15m18.356-10.568V805h-3.353v-21.818h3.239v3.409h.284a6.23 6.23 0 0 1 2.33-2.671q1.562-1.022 4.034-1.022 2.216 0 3.878.909 1.661.894 2.585 2.727.923 1.818.923 4.602V805h-3.352v-13.636q0-2.572-1.335-4.006-1.336-1.449-3.665-1.449-1.606 0-2.869.696-1.25.696-1.975 2.031-.724 1.336-.724 3.239M344.686 833h-3.523q-.312-1.52-1.094-2.67a7.3 7.3 0 0 0-1.875-1.932 8 8 0 0 0-2.429-1.193 9.7 9.7 0 0 0-2.784-.398q-2.642 0-4.787 1.335-2.13 1.335-3.395 3.935-1.25 2.6-1.25 6.378t1.25 6.377q1.265 2.6 3.395 3.935 2.145 1.335 4.787 1.335 1.449 0 2.784-.397 1.335-.399 2.429-1.179a7.5 7.5 0 0 0 1.875-1.946q.782-1.165 1.094-2.671h3.523q-.397 2.23-1.449 3.992a10.9 10.9 0 0 1-2.614 2.997 11.5 11.5 0 0 1-3.508 1.861q-1.932.639-4.134.639-3.721 0-6.619-1.818t-4.56-5.171q-1.662-3.352-1.662-7.954t1.662-7.955q1.662-3.352 4.56-5.17 2.898-1.82 6.619-1.819 2.202 0 4.134.64a11.3 11.3 0 0 1 3.508 1.875 10.7 10.7 0 0 1 2.614 2.983q1.051 1.747 1.449 3.991m18.988 11.08v-12.898h3.352V853h-3.352v-3.693h-.228q-.766 1.662-2.386 2.827-1.62 1.15-4.091 1.15-2.046 0-3.636-.895-1.591-.909-2.5-2.727-.909-1.832-.909-4.617v-13.863h3.352v13.636q0 2.387 1.335 3.807 1.35 1.42 3.438 1.42 1.25 0 2.542-.639 1.307-.639 2.188-1.96.894-1.322.895-3.366m9.492 8.92v-21.818h3.238v3.295h.228q.596-1.618 2.159-2.628 1.563-1.008 3.523-1.008.37 0 .923.014.554.015.838.043v3.409a10 10 0 0 0-.781-.128 8 8 0 0 0-1.265-.099q-1.59 0-2.84.667a5.04 5.04 0 0 0-1.961 1.818q-.71 1.15-.71 2.628V853zm14.883 0v-21.818h3.238v3.295h.228q.596-1.618 2.159-2.628 1.562-1.008 3.522-1.008.37 0 .924.014.553.015.838.043v3.409a10 10 0 0 0-.782-.128 8 8 0 0 0-1.264-.099q-1.59 0-2.841.667a5.05 5.05 0 0 0-1.96 1.818q-.71 1.15-.71 2.628V853zm23.366.455q-3.153 0-5.44-1.393-2.273-1.406-3.509-3.92-1.221-2.529-1.221-5.881 0-3.351 1.221-5.909 1.236-2.571 3.438-4.005 2.216-1.449 5.17-1.449 1.705 0 3.367.568t3.025 1.846q1.364 1.265 2.174 3.353t.809 5.142v1.42h-16.818v-2.897h13.409q0-1.847-.739-3.296a5.56 5.56 0 0 0-2.073-2.287q-1.336-.838-3.154-.838-2.002 0-3.466.994a6.55 6.55 0 0 0-2.23 2.557 7.5 7.5 0 0 0-.781 3.381v1.932q0 2.47.852 4.19.867 1.705 2.401 2.599 1.534.881 3.565.881 1.321 0 2.386-.369a5.1 5.1 0 0 0 1.861-1.136q.782-.767 1.208-1.904l3.238.909a7.2 7.2 0 0 1-1.718 2.898q-1.208 1.236-2.983 1.932-1.776.682-3.992.682m17.486-13.58V853h-3.352v-21.818h3.238v3.409h.284a6.24 6.24 0 0 1 2.33-2.671q1.563-1.022 4.034-1.022 2.216 0 3.878.909 1.662.894 2.585 2.727.923 1.818.923 4.602V853h-3.352v-13.636q0-2.572-1.335-4.006-1.335-1.449-3.665-1.449-1.605 0-2.869.696-1.25.696-1.975 2.031-.724 1.336-.724 3.239m29.535-8.693v2.841h-11.307v-2.841zm-8.012-5.227h3.353v20.795q0 1.42.412 2.131.426.696 1.079.937a4.3 4.3 0 0 0 1.406.227q.555 0 .909-.056l.569-.114.681 3.011a7 7 0 0 1-.951.256q-.611.142-1.549.142a6.75 6.75 0 0 1-2.784-.611 5.53 5.53 0 0 1-2.244-1.861q-.88-1.25-.881-3.153zm23.168 1.079v-3.125h21.818v3.125h-9.148V853h-3.522v-25.966zm26.8 25.966v-21.818h3.353V853zm1.705-25.455a2.38 2.38 0 0 1-1.69-.667q-.696-.668-.696-1.605 0-.938.696-1.605a2.38 2.38 0 0 1 1.69-.668q.98 0 1.676.668.71.667.71 1.605t-.71 1.605a2.34 2.34 0 0 1-1.676.667M509.885 853v-21.818h3.238v3.409h.284q.683-1.747 2.202-2.713 1.52-.98 3.651-.98 2.159 0 3.593.98 1.449.966 2.259 2.713h.227q.838-1.69 2.514-2.685 1.677-1.008 4.02-1.008 2.927 0 4.787 1.832 1.861 1.818 1.861 5.668V853h-3.352v-14.602q0-2.415-1.321-3.452-1.322-1.037-3.111-1.037-2.302 0-3.565 1.392-1.265 1.378-1.265 3.494V853h-3.409v-14.943q0-1.861-1.207-2.997-1.207-1.15-3.111-1.151-1.307 0-2.443.696-1.122.696-1.818 1.932-.682 1.221-.682 2.827V853zm43.913.455q-3.154 0-5.44-1.393-2.274-1.406-3.509-3.92-1.221-2.529-1.222-5.881 0-3.351 1.222-5.909 1.236-2.571 3.438-4.005 2.215-1.449 5.17-1.449 1.705 0 3.367.568t3.025 1.846q1.364 1.265 2.173 3.353.81 2.088.81 5.142v1.42h-16.818v-2.897h13.409q0-1.847-.739-3.296a5.57 5.57 0 0 0-2.074-2.287q-1.335-.838-3.153-.838-2.002 0-3.466.994a6.55 6.55 0 0 0-2.23 2.557 7.5 7.5 0 0 0-.781 3.381v1.932q0 2.47.852 4.19.867 1.705 2.401 2.599 1.534.881 3.565.881 1.321 0 2.386-.369a5.1 5.1 0 0 0 1.861-1.136q.781-.767 1.207-1.904l3.239.909a7.2 7.2 0 0 1-1.719 2.898q-1.207 1.236-2.983 1.932-1.775.682-3.991.682m41.747-22.273q-.255-2.16-2.074-3.352-1.818-1.194-4.46-1.194-1.932 0-3.381.625-1.434.625-2.244 1.719a4.12 4.12 0 0 0-.795 2.486q0 1.164.554 2.003a4.9 4.9 0 0 0 1.448 1.378q.881.54 1.847.894.966.341 1.776.554l2.954.796q1.136.298 2.529.824 1.406.525 2.684 1.434a7.3 7.3 0 0 1 2.131 2.302q.838 1.406.838 3.451 0 2.358-1.236 4.262-1.221 1.903-3.579 3.025-2.345 1.122-5.696 1.122-3.126 0-5.412-1.008-2.274-1.009-3.58-2.813-1.293-1.803-1.463-4.19h3.636q.142 1.648 1.108 2.727.981 1.066 2.472 1.591 1.505.512 3.239.512 2.017 0 3.622-.654 1.605-.667 2.542-1.846.938-1.194.938-2.785 0-1.448-.81-2.357t-2.131-1.478a22 22 0 0 0-2.855-.994l-3.579-1.023q-3.41-.98-5.398-2.798-1.989-1.818-1.989-4.759 0-2.442 1.321-4.261 1.336-1.833 3.58-2.841 2.259-1.023 5.043-1.023 2.812 0 5 1.009 2.187.995 3.466 2.727 1.292 1.733 1.363 3.935zm12.497-7.273V853h-3.353v-29.091zM614.181 853v-21.818h3.353V853zm1.705-25.455a2.38 2.38 0 0 1-1.69-.667q-.696-.668-.696-1.605 0-.938.696-1.605a2.38 2.38 0 0 1 1.69-.668q.98 0 1.676.668.71.667.71 1.605t-.71 1.605a2.34 2.34 0 0 1-1.676.667m16.651 25.91q-3.068 0-5.284-1.449t-3.409-3.992-1.193-5.809q0-3.324 1.222-5.867 1.235-2.556 3.437-3.991 2.216-1.449 5.17-1.449 2.302 0 4.148.852 1.847.852 3.026 2.386t1.463 3.58h-3.352q-.384-1.491-1.705-2.642-1.306-1.165-3.523-1.165-1.96 0-3.437 1.023-1.464 1.008-2.287 2.855-.81 1.832-.81 4.304 0 2.529.796 4.403.809 1.875 2.272 2.912 1.478 1.037 3.466 1.037 1.307 0 2.372-.454a4.9 4.9 0 0 0 1.804-1.307q.739-.852 1.052-2.046h3.352a7.8 7.8 0 0 1-1.406 3.48q-1.108 1.535-2.941 2.444-1.818.894-4.233.895m22.628 0q-3.154 0-5.44-1.393-2.273-1.406-3.509-3.92-1.221-2.529-1.221-5.881 0-3.351 1.221-5.909 1.236-2.571 3.438-4.005 2.216-1.449 5.17-1.449 1.705 0 3.367.568t3.025 1.846q1.364 1.265 2.174 3.353t.809 5.142v1.42h-16.818v-2.897h13.409q0-1.847-.739-3.296a5.56 5.56 0 0 0-2.073-2.287q-1.336-.838-3.154-.838-2.002 0-3.466.994a6.55 6.55 0 0 0-2.23 2.557 7.5 7.5 0 0 0-.781 3.381v1.932q0 2.47.852 4.19.867 1.705 2.401 2.599 1.534.881 3.565.881 1.321 0 2.386-.369a5.1 5.1 0 0 0 1.861-1.136q.782-.767 1.208-1.904l3.238.909a7.2 7.2 0 0 1-1.718 2.898q-1.208 1.236-2.983 1.932-1.776.682-3.992.682m16.577-.228a2.46 2.46 0 0 1-1.804-.753 2.46 2.46 0 0 1-.753-1.804q0-1.05.753-1.804a2.46 2.46 0 0 1 1.804-.752q1.051 0 1.804.752.753.753.753 1.804 0 .697-.355 1.279a2.66 2.66 0 0 1-.924.937 2.43 2.43 0 0 1-1.278.341m0-16.193a2.46 2.46 0 0 1-1.804-.753 2.46 2.46 0 0 1-.753-1.804q0-1.05.753-1.804a2.46 2.46 0 0 1 1.804-.753 2.46 2.46 0 0 1 1.804.753q.753.754.753 1.804 0 .696-.355 1.279-.342.582-.924.937a2.44 2.44 0 0 1-1.278.341M380.584 13.034V9.91h21.818v3.125h-9.147V39h-3.523V13.034zM407.385 39V17.182h3.352V39zm1.704-25.454a2.38 2.38 0 0 1-1.69-.668q-.696-.668-.696-1.605t.696-1.605a2.38 2.38 0 0 1 1.69-.668q.98 0 1.676.668.71.668.71 1.605 0 .938-.71 1.605a2.33 2.33 0 0 1-1.676.668M416.877 39V17.182h3.238v3.409h.285q.681-1.748 2.201-2.713 1.52-.98 3.651-.98 2.159 0 3.594.98 1.448.966 2.258 2.713h.227q.838-1.69 2.515-2.685 1.676-1.008 4.019-1.008 2.927 0 4.787 1.832 1.861 1.818 1.861 5.668V39h-3.352V24.398q0-2.414-1.321-3.452-1.322-1.037-3.111-1.037-2.3 0-3.565 1.392-1.264 1.378-1.264 3.495V39h-3.41V24.057q0-1.86-1.207-2.997-1.207-1.15-3.111-1.15-1.306 0-2.443.695-1.122.696-1.818 1.932-.682 1.221-.682 2.827V39zm43.913.455q-3.153 0-5.44-1.392-2.273-1.407-3.509-3.921-1.221-2.529-1.221-5.88 0-3.353 1.221-5.91 1.236-2.571 3.438-4.005 2.216-1.45 5.17-1.45 1.705 0 3.367.569 1.662.568 3.025 1.846 1.364 1.264 2.174 3.353.809 2.088.809 5.142v1.42h-16.818V26.33h13.409q0-1.846-.739-3.295a5.56 5.56 0 0 0-2.073-2.287q-1.336-.838-3.154-.838-2.002 0-3.466.994a6.54 6.54 0 0 0-2.23 2.557 7.5 7.5 0 0 0-.781 3.38v1.933q0 2.472.852 4.19.867 1.704 2.401 2.6 1.534.88 3.565.88 1.321 0 2.386-.37a5.1 5.1 0 0 0 1.861-1.136q.782-.766 1.208-1.903l3.238.91a7.2 7.2 0 0 1-1.718 2.897q-1.208 1.236-2.983 1.932-1.776.681-3.992.681M486.628 39V9.91h3.523v25.965h13.523V39zm31.193.455q-3.153 0-5.44-1.392-2.273-1.407-3.508-3.921-1.222-2.529-1.222-5.88 0-3.353 1.222-5.91 1.235-2.571 3.437-4.005 2.216-1.45 5.17-1.45 1.705 0 3.367.569 1.661.568 3.026 1.846 1.363 1.264 2.173 3.353.81 2.088.809 5.142v1.42h-16.818V26.33h13.409q0-1.846-.738-3.295a5.57 5.57 0 0 0-2.074-2.287q-1.335-.838-3.154-.838-2.003 0-3.465.994a6.54 6.54 0 0 0-2.231 2.557 7.5 7.5 0 0 0-.781 3.38v1.933q0 2.472.852 4.19.867 1.704 2.401 2.6 1.534.88 3.565.88 1.322 0 2.387-.37a5.1 5.1 0 0 0 1.861-1.136q.78-.766 1.207-1.903l3.239.91a7.2 7.2 0 0 1-1.719 2.897q-1.207 1.236-2.983 1.932-1.775.681-3.992.681m23.85-22.273v2.84h-11.762v-2.84zM533.432 39V14.17q0-1.875.881-3.124A5.45 5.45 0 0 1 536.6 9.17a7.2 7.2 0 0 1 2.969-.625q1.235 0 2.017.2.78.198 1.164.369l-.966 2.897q-.255-.084-.71-.213-.44-.127-1.165-.127-1.662 0-2.4.838-.725.837-.725 2.457V39zm22.426-21.818v2.84h-11.307v-2.84zm-8.012-5.227h3.353V32.75q0 1.42.411 2.13.427.697 1.08.938.668.227 1.406.227.555 0 .909-.056l.569-.114.681 3.011q-.34.128-.951.256-.612.142-1.549.142a6.75 6.75 0 0 1-2.784-.61 5.54 5.54 0 0 1-2.244-1.861q-.88-1.25-.881-3.154zm33.168 27.5q-2.955 0-5.185-1.407-2.215-1.406-3.466-3.934-1.236-2.529-1.236-5.91 0-3.408 1.236-5.951 1.25-2.543 3.466-3.949 2.23-1.406 5.185-1.406t5.17 1.406q2.23 1.407 3.466 3.949 1.25 2.543 1.25 5.951 0 3.381-1.25 5.91-1.236 2.528-3.466 3.934-2.215 1.407-5.17 1.407m0-3.012q2.244 0 3.693-1.15t2.145-3.026.696-4.063-.696-4.076-2.145-3.054-3.693-1.165-3.693 1.165-2.145 3.054-.696 4.076.696 4.063 2.145 3.026 3.693 1.15m18.356-10.568V39h-3.353V17.182h3.239v3.409h.284a6.23 6.23 0 0 1 2.33-2.67q1.562-1.023 4.034-1.023 2.216 0 3.878.909 1.661.895 2.585 2.727.923 1.818.923 4.602V39h-3.352V25.364q0-2.572-1.335-4.006-1.336-1.449-3.665-1.449-1.606 0-2.869.696-1.25.696-1.975 2.031-.724 1.335-.724 3.239M344.686 67h-3.523q-.312-1.52-1.094-2.67a7.3 7.3 0 0 0-1.875-1.932 8 8 0 0 0-2.429-1.194 9.7 9.7 0 0 0-2.784-.397q-2.642 0-4.787 1.335-2.13 1.335-3.395 3.935-1.25 2.6-1.25 6.377 0 3.78 1.25 6.378 1.265 2.6 3.395 3.935 2.145 1.335 4.787 1.335 1.449 0 2.784-.398t2.429-1.178a7.5 7.5 0 0 0 1.875-1.947q.782-1.164 1.094-2.67h3.523q-.397 2.23-1.449 3.992a10.9 10.9 0 0 1-2.614 2.997 11.4 11.4 0 0 1-3.508 1.86q-1.932.64-4.134.64-3.721 0-6.619-1.819t-4.56-5.17-1.662-7.955 1.662-7.954 4.56-5.17q2.898-1.82 6.619-1.819 2.202 0 4.134.64a11.3 11.3 0 0 1 3.508 1.875 10.7 10.7 0 0 1 2.614 2.982q1.051 1.748 1.449 3.992m18.988 11.08V65.182h3.352V87h-3.352v-3.693h-.228q-.766 1.662-2.386 2.826-1.62 1.151-4.091 1.151-2.046 0-3.636-.895-1.591-.909-2.5-2.727-.909-1.832-.909-4.617V65.183h3.352v13.636q0 2.386 1.335 3.807 1.35 1.42 3.438 1.42 1.25 0 2.542-.639 1.307-.64 2.188-1.96.894-1.32.895-3.367m9.492 8.92V65.182h3.238v3.295h.228q.596-1.62 2.159-2.628t3.523-1.008q.37 0 .923.014.554.015.838.043v3.409a10 10 0 0 0-.781-.128 7.7 7.7 0 0 0-1.265-.1q-1.59 0-2.84.668a5.04 5.04 0 0 0-1.961 1.818q-.71 1.15-.71 2.628V87zm14.883 0V65.182h3.238v3.295h.228q.596-1.62 2.159-2.628t3.522-1.008q.37 0 .924.014.553.015.838.043v3.409a10 10 0 0 0-.782-.128 7.7 7.7 0 0 0-1.264-.1q-1.59 0-2.841.668a5.04 5.04 0 0 0-1.96 1.818q-.71 1.15-.71 2.628V87zm23.366.454q-3.153 0-5.44-1.391-2.273-1.407-3.509-3.921-1.221-2.529-1.221-5.88 0-3.353 1.221-5.91 1.236-2.571 3.438-4.005 2.216-1.45 5.17-1.45 1.705 0 3.367.569 1.662.568 3.025 1.847 1.364 1.263 2.174 3.352t.809 5.142v1.42h-16.818V74.33h13.409q0-1.845-.739-3.295a5.56 5.56 0 0 0-2.073-2.287q-1.336-.838-3.154-.838-2.002 0-3.466.994a6.54 6.54 0 0 0-2.23 2.557 7.5 7.5 0 0 0-.781 3.38v1.933q0 2.471.852 4.19.867 1.704 2.401 2.6 1.534.88 3.565.88 1.321 0 2.386-.37a5.1 5.1 0 0 0 1.861-1.135q.782-.767 1.208-1.904l3.238.91a7.2 7.2 0 0 1-1.718 2.897q-1.208 1.236-2.983 1.932-1.776.681-3.992.681m17.486-13.579V87h-3.352V65.182h3.238v3.409h.284a6.23 6.23 0 0 1 2.33-2.67q1.563-1.023 4.034-1.023 2.216 0 3.878.909 1.662.894 2.585 2.727.923 1.818.923 4.602V87h-3.352V73.364q0-2.572-1.335-4.006-1.335-1.449-3.665-1.449-1.605 0-2.869.696-1.25.696-1.975 2.031-.724 1.335-.724 3.239m29.535-8.693v2.84h-11.307v-2.84zm-8.012-5.227h3.353V80.75q0 1.42.412 2.13.426.697 1.079.938.668.228 1.406.228.555 0 .909-.057l.569-.114.681 3.011q-.34.128-.951.256-.611.142-1.549.142a6.75 6.75 0 0 1-2.784-.61 5.54 5.54 0 0 1-2.244-1.862q-.88-1.25-.881-3.153zm23.168 1.08v-3.126h21.818v3.125h-9.148V87h-3.522V61.034zM500.392 87V65.182h3.353V87zm1.705-25.455a2.38 2.38 0 0 1-1.69-.667q-.696-.667-.696-1.605t.696-1.605a2.38 2.38 0 0 1 1.69-.668q.98 0 1.676.668.71.667.71 1.605t-.71 1.605a2.34 2.34 0 0 1-1.676.667M509.885 87V65.182h3.238v3.409h.284q.683-1.748 2.202-2.713 1.52-.98 3.651-.98 2.159 0 3.593.98 1.449.966 2.259 2.713h.227q.838-1.69 2.514-2.685 1.677-1.008 4.02-1.008 2.927 0 4.787 1.832 1.861 1.818 1.861 5.668V87h-3.352V72.398q0-2.415-1.321-3.452-1.322-1.037-3.111-1.037-2.302 0-3.565 1.392-1.265 1.378-1.265 3.495V87h-3.409V72.057q0-1.86-1.207-2.997-1.207-1.15-3.111-1.15-1.307 0-2.443.695-1.122.696-1.818 1.932-.682 1.221-.682 2.827V87zm43.913.454q-3.154 0-5.44-1.391-2.274-1.407-3.509-3.921-1.221-2.529-1.222-5.88 0-3.353 1.222-5.91 1.236-2.571 3.438-4.005 2.215-1.45 5.17-1.45 1.705 0 3.367.569 1.661.568 3.025 1.847 1.364 1.263 2.173 3.352.81 2.088.81 5.142v1.42h-16.818V74.33h13.409q0-1.845-.739-3.295a5.56 5.56 0 0 0-2.074-2.287q-1.335-.838-3.153-.838-2.002 0-3.466.994a6.54 6.54 0 0 0-2.23 2.557 7.5 7.5 0 0 0-.781 3.38v1.933q0 2.471.852 4.19.867 1.704 2.401 2.6 1.534.88 3.565.88 1.321 0 2.386-.37a5.1 5.1 0 0 0 1.861-1.135q.781-.767 1.207-1.904l3.239.91a7.2 7.2 0 0 1-1.719 2.897q-1.207 1.236-2.983 1.932-1.775.681-3.991.681m41.747-22.272q-.255-2.16-2.074-3.352-1.818-1.194-4.46-1.194-1.932 0-3.381.625-1.434.625-2.244 1.72a4.12 4.12 0 0 0-.795 2.485q0 1.164.554 2.003.567.823 1.448 1.378.881.54 1.847.895.966.34 1.776.553l2.954.796q1.136.298 2.529.824 1.406.525 2.684 1.434a7.3 7.3 0 0 1 2.131 2.302q.838 1.406.838 3.451 0 2.358-1.236 4.262-1.221 1.903-3.579 3.025-2.345 1.122-5.696 1.122-3.126 0-5.412-1.008-2.274-1.008-3.58-2.813-1.293-1.804-1.463-4.19h3.636q.142 1.649 1.108 2.727.981 1.065 2.472 1.591 1.505.511 3.239.511 2.017 0 3.622-.653 1.605-.667 2.542-1.847.938-1.193.938-2.783 0-1.45-.81-2.359t-2.131-1.477q-1.32-.568-2.855-.994l-3.579-1.023q-3.41-.98-5.398-2.798-1.989-1.818-1.989-4.759 0-2.442 1.321-4.261 1.336-1.833 3.58-2.84 2.259-1.024 5.043-1.024 2.812 0 5 1.009 2.187.994 3.466 2.727 1.292 1.733 1.363 3.935zm12.497-7.273V87h-3.353V57.91zM614.181 87V65.182h3.353V87zm1.705-25.455a2.38 2.38 0 0 1-1.69-.667q-.696-.667-.696-1.605t.696-1.605a2.38 2.38 0 0 1 1.69-.668q.98 0 1.676.668.71.667.71 1.605t-.71 1.605a2.34 2.34 0 0 1-1.676.667m16.651 25.91q-3.068 0-5.284-1.45-2.215-1.448-3.409-3.99-1.193-2.544-1.193-5.81 0-3.324 1.222-5.867 1.235-2.556 3.437-3.991 2.216-1.45 5.17-1.45 2.302 0 4.148.853 1.847.853 3.026 2.386t1.463 3.58h-3.352q-.384-1.491-1.705-2.642-1.306-1.165-3.523-1.165-1.96 0-3.437 1.023-1.464 1.008-2.287 2.855-.81 1.832-.81 4.304 0 2.529.796 4.403.809 1.875 2.272 2.912 1.478 1.037 3.466 1.037 1.307 0 2.372-.454a4.9 4.9 0 0 0 1.804-1.307q.739-.852 1.052-2.046h3.352a7.8 7.8 0 0 1-1.406 3.48q-1.108 1.535-2.941 2.444-1.818.894-4.233.894m22.628 0q-3.154 0-5.44-1.392-2.273-1.407-3.509-3.921-1.221-2.529-1.221-5.88 0-3.353 1.221-5.91 1.236-2.571 3.438-4.005 2.216-1.45 5.17-1.45 1.705 0 3.367.569 1.662.568 3.025 1.847 1.364 1.263 2.174 3.352t.809 5.142v1.42h-16.818V74.33h13.409q0-1.845-.739-3.295a5.56 5.56 0 0 0-2.073-2.287q-1.336-.838-3.154-.838-2.002 0-3.466.994a6.54 6.54 0 0 0-2.23 2.557 7.5 7.5 0 0 0-.781 3.38v1.933q0 2.471.852 4.19.867 1.704 2.401 2.6 1.534.88 3.565.88 1.321 0 2.386-.37a5.1 5.1 0 0 0 1.861-1.135q.782-.767 1.208-1.904l3.238.91a7.2 7.2 0 0 1-1.718 2.897q-1.208 1.236-2.983 1.932-1.776.681-3.992.681m16.577-.228a2.46 2.46 0 0 1-1.804-.753 2.46 2.46 0 0 1-.753-1.803q0-1.052.753-1.805a2.46 2.46 0 0 1 1.804-.752 2.46 2.46 0 0 1 1.804.752 2.46 2.46 0 0 1 .753 1.805q0 .695-.355 1.278-.342.582-.924.937-.569.341-1.278.341m0-16.193a2.46 2.46 0 0 1-1.804-.753 2.46 2.46 0 0 1-.753-1.804q0-1.05.753-1.804a2.46 2.46 0 0 1 1.804-.752q1.051 0 1.804.752a2.46 2.46 0 0 1 .753 1.804q0 .696-.355 1.279-.342.582-.924.937-.569.341-1.278.341"/><rect width="136" height="136" x="366" y="1131" stroke="#dbdbdb" stroke-dasharray="20 20" stroke-width="2" rx="27"/><rect width="136" height="136" x="366" y="365" stroke="#dbdbdb" stroke-width="2" rx="27"/><rect width="136" height="136" x="210" y="1131" stroke="#dbdbdb" stroke-dasharray="20 20" stroke-width="2" rx="27"/><rect width="136" height="136" x="210" y="365" stroke="#dbdbdb" stroke-dasharray="20 20" stroke-width="2" rx="27"/><rect width="136" height="136" x="54" y="1131" stroke="#dbdbdb" stroke-dasharray="20 20" stroke-width="2" rx="27"/><rect width="136" height="136" x="54" y="365" stroke="#dbdbdb" stroke-dasharray="20 20" stroke-width="2" rx="27"/><rect width="555" height="197" x="1" y="1101" stroke="#dbdbdb" stroke-width="2" rx="27"/><rect width="555" height="197" x="1" y="335" stroke="#dbdbdb" stroke-width="2" rx="27"/><path fill="#fff" d="M443.869 1200.97v3.12h-12.727v-3.12zM418.531 449v-29.091h9.829q3.423 0 5.597 1.236 2.188 1.22 3.238 3.31 1.051 2.088 1.051 4.659t-1.051 4.673q-1.036 2.102-3.21 3.352-2.174 1.236-5.568 1.236h-7.046v-3.125h6.932q2.345 0 3.764-.81 1.42-.81 2.06-2.187.654-1.393.654-3.139 0-1.748-.654-3.125-.639-1.379-2.074-2.159-1.434-.796-3.807-.796h-6.193V449zm35.106-29.091V449h-3.523v-25.398h-.17l-7.102 4.716v-3.579l7.272-4.83zM284.869 1200.97v3.12h-12.727v-3.12zM284.869 434.966v3.125h-12.727v-3.125zM129.869 1200.97v3.12h-12.727v-3.12zM129.869 434.966v3.125h-12.727v-3.125zM230.833 1048.91h3.864l3.238 4.26.853 1.14 4.829 6.42h-3.863l-3.182-4.26-.796-1.08zm13.977-5.46c0 3.07-.554 5.72-1.662 7.96-1.108 2.23-2.627 3.96-4.559 5.17s-4.138 1.82-6.62 1.82c-2.481 0-4.687-.61-6.619-1.82s-3.452-2.94-4.56-5.17c-1.107-2.24-1.661-4.89-1.661-7.96 0-3.06.554-5.72 1.661-7.95 1.108-2.23 2.628-3.96 4.56-5.17s4.138-1.82 6.619-1.82c2.482 0 4.688.61 6.62 1.82s3.451 2.94 4.559 5.17 1.662 4.89 1.662 7.95m-3.409 0c0-2.51-.421-4.64-1.264-6.37-.833-1.74-1.965-3.05-3.395-3.94-1.42-.89-3.011-1.33-4.773-1.33s-3.357.44-4.786 1.33c-1.421.89-2.553 2.2-3.395 3.94-.834 1.73-1.25 3.86-1.25 6.37 0 2.52.416 4.65 1.25 6.38.842 1.74 1.974 3.05 3.395 3.94 1.429.89 3.025 1.33 4.786 1.33 1.762 0 3.353-.44 4.773-1.33 1.43-.89 2.562-2.2 3.395-3.94.843-1.73 1.264-3.86 1.264-6.38m22.628 5.63v-12.9h3.352V1058h-3.352v-3.69h-.227c-.512 1.1-1.307 2.05-2.387 2.82-1.079.77-2.443 1.15-4.09 1.15-1.364 0-2.576-.29-3.637-.89q-1.59-.915-2.5-2.73c-.606-1.22-.909-2.76-.909-4.61v-13.87h3.352v13.64c0 1.59.445 2.86 1.336 3.8.899.95 2.045 1.43 3.437 1.43.833 0 1.681-.22 2.543-.64.871-.43 1.6-1.08 2.187-1.96.597-.88.895-2.01.895-3.37m18.64 9.37c-2.102 0-3.916-.46-5.44-1.39-1.515-.94-2.685-2.24-3.509-3.92q-1.221-2.52-1.221-5.88 0-3.345 1.221-5.91c.824-1.71 1.97-3.05 3.438-4 1.477-.97 3.2-1.45 5.17-1.45q1.705 0 3.367.57c1.108.37 2.116.99 3.025 1.84s1.634 1.96 2.173 3.35c.54 1.4.81 3.11.81 5.15v1.42h-16.818v-2.9h13.409q0-1.845-.739-3.3a5.6 5.6 0 0 0-2.073-2.28q-1.336-.84-3.154-.84-2.002 0-3.466.99a6.6 6.6 0 0 0-2.23 2.56 7.5 7.5 0 0 0-.781 3.38v1.93c0 1.65.284 3.05.852 4.19.578 1.14 1.378 2.01 2.401 2.6s2.211.88 3.565.88c.881 0 1.676-.12 2.386-.37.72-.25 1.34-.63 1.861-1.13.521-.51.923-1.15 1.208-1.91l3.238.91a7.16 7.16 0 0 1-1.719 2.9c-.804.82-1.799 1.47-2.982 1.93s-2.515.68-3.992.68m27.884-9.37v-12.9h3.352V1058h-3.352v-3.69h-.228c-.511 1.1-1.307 2.05-2.386 2.82s-2.443 1.15-4.091 1.15c-1.364 0-2.576-.29-3.636-.89q-1.591-.915-2.5-2.73c-.606-1.22-.909-2.76-.909-4.61v-13.87h3.352v13.64c0 1.59.445 2.86 1.335 3.8.9.95 2.046 1.43 3.438 1.43.833 0 1.68-.22 2.542-.64.871-.43 1.601-1.08 2.188-1.96.596-.88.895-2.01.895-3.37m18.639 9.37c-2.102 0-3.915-.46-5.44-1.39-1.515-.94-2.685-2.24-3.508-3.92q-1.222-2.52-1.222-5.88 0-3.345 1.222-5.91c.823-1.71 1.969-3.05 3.437-4 1.477-.97 3.201-1.45 5.171-1.45q1.704 0 3.366.57c1.108.37 2.117.99 3.026 1.84s1.633 1.96 2.173 3.35c.54 1.4.81 3.11.81 5.15v1.42h-16.819v-2.9h13.409q0-1.845-.738-3.3a5.6 5.6 0 0 0-2.074-2.28q-1.335-.84-3.153-.84-2.004 0-3.466.99a6.6 6.6 0 0 0-2.23 2.56 7.5 7.5 0 0 0-.782 3.38v1.93c0 1.65.284 3.05.853 4.19.577 1.14 1.377 2.01 2.4 2.6s2.211.88 3.565.88c.881 0 1.677-.12 2.387-.37.72-.25 1.34-.63 1.861-1.13.52-.51.923-1.15 1.207-1.91l3.239.91a7.16 7.16 0 0 1-1.719 2.9c-.805.82-1.799 1.47-2.983 1.93s-2.514.68-3.992.68M230.833 282.909h3.864l3.238 4.261.853 1.137 4.829 6.42h-3.863l-3.182-4.261-.796-1.08zm13.977-5.454q0 4.602-1.662 7.954t-4.559 5.171q-2.898 1.818-6.62 1.818t-6.619-1.818q-2.898-1.819-4.56-5.171-1.66-3.352-1.661-7.954 0-4.603 1.661-7.955t4.56-5.17q2.898-1.82 6.619-1.819 3.722 0 6.62 1.819 2.897 1.818 4.559 5.17t1.662 7.955m-3.409 0q0-3.778-1.264-6.378-1.25-2.6-3.395-3.935-2.13-1.335-4.773-1.335t-4.786 1.335q-2.132 1.335-3.395 3.935-1.25 2.6-1.25 6.378t1.25 6.377q1.263 2.6 3.395 3.935 2.144 1.335 4.786 1.335 2.643 0 4.773-1.335 2.145-1.335 3.395-3.935 1.264-2.6 1.264-6.377m22.628 5.625v-12.898h3.352V292h-3.352v-3.693h-.227q-.768 1.662-2.387 2.827-1.619 1.15-4.09 1.15-2.046 0-3.637-.895-1.59-.909-2.5-2.727-.909-1.832-.909-4.617v-13.863h3.352v13.636q0 2.387 1.336 3.807 1.349 1.42 3.437 1.42 1.25 0 2.543-.639 1.307-.639 2.187-1.96.895-1.321.895-3.366m18.64 9.375q-3.154 0-5.44-1.393-2.273-1.406-3.509-3.92-1.221-2.529-1.221-5.881 0-3.351 1.221-5.909 1.236-2.571 3.438-4.005 2.215-1.449 5.17-1.449 1.705 0 3.367.568t3.025 1.846q1.364 1.265 2.173 3.353.81 2.088.81 5.142v1.42h-16.818v-2.897h13.409q0-1.848-.739-3.296a5.57 5.57 0 0 0-2.073-2.287q-1.336-.838-3.154-.838-2.002 0-3.466.994a6.55 6.55 0 0 0-2.23 2.557 7.5 7.5 0 0 0-.781 3.381v1.932q0 2.47.852 4.19.867 1.704 2.401 2.599 1.533.881 3.565.881 1.321 0 2.386-.369a5.1 5.1 0 0 0 1.861-1.136q.781-.767 1.208-1.904l3.238.909a7.2 7.2 0 0 1-1.719 2.898q-1.207 1.236-2.982 1.932-1.776.682-3.992.682m27.884-9.375v-12.898h3.352V292h-3.352v-3.693h-.228q-.767 1.662-2.386 2.827-1.62 1.15-4.091 1.15-2.046 0-3.636-.895-1.591-.909-2.5-2.727-.909-1.832-.909-4.617v-13.863h3.352v13.636q0 2.387 1.335 3.807 1.35 1.42 3.438 1.42 1.25 0 2.542-.639 1.307-.639 2.188-1.96.894-1.321.895-3.366m18.639 9.375q-3.153 0-5.44-1.393-2.273-1.406-3.508-3.92-1.222-2.529-1.222-5.881 0-3.351 1.222-5.909 1.235-2.571 3.437-4.005 2.216-1.449 5.171-1.449 1.704 0 3.366.568t3.026 1.846q1.363 1.265 2.173 3.353t.81 5.142v1.42h-16.819v-2.897h13.409q0-1.848-.738-3.296a5.57 5.57 0 0 0-2.074-2.287q-1.335-.838-3.153-.838-2.004 0-3.466.994a6.54 6.54 0 0 0-2.23 2.557 7.5 7.5 0 0 0-.782 3.381v1.932q0 2.47.853 4.19.865 1.704 2.4 2.599 1.534.881 3.565.881 1.322 0 2.387-.369a5.1 5.1 0 0 0 1.861-1.136q.78-.767 1.207-1.904l3.239.909a7.2 7.2 0 0 1-1.719 2.898q-1.207 1.236-2.983 1.932-1.776.682-3.992.682M1043.36 992h-3.52c-.21-1.013-.57-1.903-1.09-2.67a7.4 7.4 0 0 0-1.88-1.932 8 8 0 0 0-2.43-1.193 9.7 9.7 0 0 0-2.78-.398c-1.76 0-3.36.445-4.79 1.335q-2.13 1.335-3.39 3.935c-.84 1.733-1.25 3.859-1.25 6.378 0 2.518.41 4.645 1.25 6.375.84 1.74 1.97 3.05 3.39 3.94 1.43.89 3.03 1.33 4.79 1.33.96 0 1.89-.13 2.78-.4q1.335-.39 2.43-1.17c.74-.53 1.36-1.18 1.88-1.95.52-.78.88-1.67 1.09-2.67h3.52c-.26 1.49-.75 2.82-1.45 3.99q-1.05 1.755-2.61 3-1.56 1.215-3.51 1.86c-1.29.42-2.67.64-4.13.64-2.48 0-4.69-.61-6.62-1.82s-3.45-2.94-4.56-5.17c-1.11-2.24-1.66-4.89-1.66-7.955 0-3.069.55-5.72 1.66-7.955q1.665-3.352 4.56-5.17c1.93-1.213 4.14-1.819 6.62-1.819 1.46 0 2.84.213 4.13.64q1.95.639 3.51 1.875 1.56 1.22 2.61 2.983c.7 1.164 1.19 2.495 1.45 3.991m5.69 20v-29.091h9.83c2.29 0 4.15.412 5.6 1.236q2.19 1.22 3.24 3.31 1.05 2.088 1.05 4.659t-1.05 4.673q-1.035 2.102-3.21 3.353c-1.45.82-3.31 1.24-5.57 1.24h-7.05v-3.13h6.94c1.56 0 2.81-.27 3.76-.81.95-.539 1.63-1.269 2.06-2.187.44-.928.65-1.975.65-3.139 0-1.165-.21-2.207-.65-3.125q-.645-1.379-2.07-2.159-1.44-.796-3.81-.796h-6.19V1012zm44.49-29.091h3.52v19.261c0 1.99-.47 3.76-1.41 5.33-.93 1.55-2.24 2.78-3.93 3.68-1.7.89-3.69 1.33-5.97 1.33s-4.27-.44-5.96-1.33c-1.7-.9-3.02-2.13-3.95-3.68-.93-1.57-1.4-3.34-1.4-5.33v-19.261h3.53v18.981c0 1.42.31 2.68.93 3.79.63 1.1 1.52 1.96 2.68 2.6 1.16.62 2.55.94 4.17.94s3.01-.32 4.18-.94c1.16-.64 2.05-1.5 2.67-2.6.62-1.11.94-2.37.94-3.79zM1043.36 226h-3.52c-.21-1.013-.57-1.903-1.09-2.67a7.4 7.4 0 0 0-1.88-1.932 8 8 0 0 0-2.43-1.193 9.7 9.7 0 0 0-2.78-.398c-1.76 0-3.36.445-4.79 1.335q-2.13 1.335-3.39 3.935c-.84 1.733-1.25 3.859-1.25 6.378 0 2.518.41 4.644 1.25 6.377q1.26 2.6 3.39 3.935c1.43.89 3.03 1.335 4.79 1.335.96 0 1.89-.132 2.78-.397q1.335-.399 2.43-1.179a7.6 7.6 0 0 0 1.88-1.946c.52-.777.88-1.667 1.09-2.671h3.52c-.26 1.487-.75 2.817-1.45 3.992a10.9 10.9 0 0 1-2.61 2.997 11.4 11.4 0 0 1-3.51 1.861c-1.29.426-2.67.639-4.13.639-2.48 0-4.69-.606-6.62-1.818q-2.895-1.819-4.56-5.171c-1.11-2.235-1.66-4.886-1.66-7.954 0-3.069.55-5.72 1.66-7.955q1.665-3.352 4.56-5.17c1.93-1.213 4.14-1.819 6.62-1.819 1.46 0 2.84.213 4.13.64q1.95.639 3.51 1.875 1.56 1.22 2.61 2.983c.7 1.164 1.19 2.495 1.45 3.991m5.69 20v-29.091h9.83c2.29 0 4.15.412 5.6 1.236q2.19 1.22 3.24 3.31 1.05 2.088 1.05 4.659t-1.05 4.673q-1.035 2.102-3.21 3.352c-1.45.824-3.31 1.236-5.57 1.236h-7.05v-3.125h6.94c1.56 0 2.81-.27 3.76-.81.95-.539 1.63-1.269 2.06-2.187.44-.928.65-1.975.65-3.139 0-1.165-.21-2.207-.65-3.125q-.645-1.379-2.07-2.159-1.44-.796-3.81-.796h-6.19V246zm44.49-29.091h3.52v19.261q0 2.984-1.41 5.327-1.395 2.33-3.93 3.679-2.55 1.335-5.97 1.335c-2.28 0-4.27-.445-5.96-1.335-1.7-.899-3.02-2.126-3.95-3.679-.93-1.562-1.4-3.338-1.4-5.327v-19.261h3.53v18.977q0 2.131.93 3.793c.63 1.098 1.52 1.965 2.68 2.599q1.74.938 4.17.938c1.62 0 3.01-.313 4.18-.938q1.74-.952 2.67-2.599c.62-1.108.94-2.372.94-3.793z"/><path stroke="#dbdbdb" stroke-linecap="round" stroke-linejoin="round" stroke-width="4" d="m472.375 1326.25 16.25 16.25-16.25 16.25M472.375 560.25l16.25 16.25-16.25 16.25"/><path stroke="#dbdbdb" stroke-width="5" d="M67 1342.5h419M67 576.5h419"/><path stroke="#fff" stroke-width="2" d="M924 1175h269M924 409h269M1083.5 1065.5v269M1083.5 299.5v269M924 1199h269M924 433h269M1059.5 1065.5v269M1059.5 299.5v269M924 1223h269M924 457h269M1035.5 1065.5v269M1035.5 299.5v269"/><rect width="196" height="196" x="961" y="1102" fill="#18181b" stroke="#dbdbdb" stroke-width="2" rx="27"/><rect width="196" height="196" x="961" y="336" fill="#18181b" stroke="#dbdbdb" stroke-width="2" rx="27"/><rect width="136" height="136" x="991" y="1131" stroke="#dbdbdb" stroke-width="2" rx="27"/><path fill="#fff" d="M1040.52 1215v-29.09h9.83c2.28 0 4.15.41 5.6 1.23 1.46.82 2.54 1.92 3.24 3.31.7 1.4 1.05 2.95 1.05 4.66q0 2.58-1.05 4.68c-.69 1.4-1.76 2.52-3.21 3.35-1.45.82-3.31 1.24-5.57 1.24h-7.05v-3.13h6.94c1.56 0 2.81-.27 3.76-.81s1.63-1.27 2.06-2.19c.43-.93.65-1.97.65-3.14 0-1.16-.22-2.2-.65-3.12q-.645-1.38-2.07-2.16c-.96-.53-2.23-.8-3.81-.8h-6.19V1215zm35.11-29.09V1215h-3.52v-25.4h-.17l-7.11 4.72v-3.58l7.28-4.83zM1002.6 449v-29.091h17.56v3.125h-14.04v9.83h13.13v3.125h-13.13v9.886h14.26V449zm23.45 0v-21.818h3.24v3.409h.29c.45-1.165 1.18-2.069 2.2-2.713 1.01-.654 2.23-.98 3.65-.98 1.44 0 2.63.326 3.59.98.97.644 1.72 1.548 2.26 2.713h.23a6.34 6.34 0 0 1 2.51-2.685q1.68-1.008 4.02-1.008c1.95 0 3.55.611 4.79 1.832q1.86 1.818 1.86 5.668V449h-3.35v-14.602q0-2.415-1.32-3.452c-.89-.691-1.92-1.037-3.12-1.037-1.53 0-2.72.464-3.56 1.392q-1.26 1.378-1.26 3.494V449h-3.41v-14.943c0-1.241-.41-2.24-1.21-2.997-.81-.767-1.84-1.151-3.11-1.151-.87 0-1.69.232-2.45.696a5.27 5.27 0 0 0-1.81 1.932q-.69 1.221-.69 2.827V449zm34.77 8.182v-30h3.24v3.466h.39c.25-.379.59-.862 1.03-1.449.44-.597 1.08-1.127 1.9-1.591.83-.474 1.96-.71 3.38-.71q2.76 0 4.86 1.378c1.4.918 2.49 2.22 3.28 3.906s1.18 3.674 1.18 5.966c0 2.31-.39 4.313-1.18 6.008-.79 1.686-1.87 2.993-3.27 3.921-1.39.918-2.99 1.378-4.81 1.378-1.4 0-2.53-.232-3.37-.696-.84-.474-1.49-1.009-1.94-1.606a22 22 0 0 1-1.06-1.505h-.28v11.534zm3.29-19.091c0 1.648.25 3.101.73 4.361.48 1.25 1.19 2.23 2.11 2.94.93.701 2.07 1.051 3.41 1.051 1.41 0 2.57-.369 3.51-1.108q1.425-1.122 2.13-3.011c.49-1.269.73-2.68.73-4.233 0-1.534-.24-2.917-.71-4.148-.47-1.24-1.17-2.22-2.12-2.94q-1.41-1.094-3.54-1.094c-1.36 0-2.51.346-3.43 1.037-.93.682-1.63 1.638-2.11 2.869-.47 1.222-.71 2.647-.71 4.276m30.57-10.909v2.841h-11.3v-2.841zm-8.01-5.227h3.35v20.795c0 .947.14 1.657.41 2.131q.435.696 1.08.937.675.227 1.41.227c.37 0 .67-.018.91-.056l.57-.114.68 3.011c-.23.086-.54.171-.95.256-.41.095-.93.142-1.55.142-.95 0-1.88-.204-2.78-.611a5.56 5.56 0 0 1-2.25-1.861c-.59-.833-.88-1.884-.88-3.153zm15.21 35.227c-.56 0-1.07-.048-1.52-.142-.44-.085-.75-.171-.92-.256l.85-2.954q1.23.312 2.16.227c.63-.057 1.18-.336 1.66-.838q.75-.74 1.35-2.401l.63-1.704-8.07-21.932h3.64l6.02 17.386h.23l6.02-17.386h3.64l-9.27 25c-.41 1.127-.93 2.059-1.54 2.798-.62.748-1.33 1.302-2.15 1.662q-1.2.54-2.73.54"/><path stroke="#dbdbdb" stroke-linecap="round" stroke-linejoin="round" stroke-width="4" d="m849.276 1196.15 22.36 5.31-5.308 22.36"/><path stroke="#dbdbdb" stroke-width="4" d="M594 1204c115.08 52.37 175.748 54.8 275.5 0"/><path fill="#fff" d="M647.523 1197v-29.09h9.829q3.423 0 5.597 1.23c1.458.82 2.538 1.92 3.239 3.31.7 1.4 1.051 2.95 1.051 4.66q0 2.58-1.051 4.68c-.692 1.4-1.762 2.52-3.211 3.35-1.449.82-3.305 1.24-5.568 1.24h-7.045v-3.13h6.931q2.345 0 3.765-.81t2.059-2.19c.436-.93.654-1.97.654-3.14q0-1.74-.654-3.12-.639-1.38-2.074-2.16c-.956-.53-2.225-.8-3.806-.8h-6.194V1197zm35.106-29.09V1197h-3.522v-25.4h-.171l-7.102 4.72v-3.58l7.273-4.83zm28.821 29.54c-2.102 0-3.915-.46-5.44-1.39-1.515-.94-2.685-2.24-3.509-3.92q-1.221-2.52-1.221-5.88 0-3.345 1.221-5.91c.824-1.71 1.97-3.05 3.438-4 1.477-.97 3.201-1.45 5.17-1.45q1.705 0 3.367.57c1.108.37 2.116.99 3.025 1.84.91.85 1.634 1.96 2.174 3.35.539 1.4.809 3.11.809 5.15v1.42h-16.818v-2.9h13.409q0-1.845-.738-3.3a5.6 5.6 0 0 0-2.074-2.28q-1.335-.84-3.154-.84-2.002 0-3.466.99a6.6 6.6 0 0 0-2.23 2.56 7.5 7.5 0 0 0-.781 3.38v1.93c0 1.65.284 3.05.852 4.19.578 1.14 1.378 2.01 2.401 2.6s2.211.88 3.565.88c.881 0 1.676-.12 2.387-.37a5 5 0 0 0 1.86-1.13c.521-.51.924-1.15 1.208-1.91l3.238.91a7.14 7.14 0 0 1-1.718 2.9c-.805.82-1.8 1.47-2.983 1.93s-2.514.68-3.992.68m17.486-13.57V1197h-3.352v-21.82h3.238v3.41h.285q.766-1.665 2.329-2.67 1.562-1.02 4.034-1.02c1.477 0 2.77.3 3.878.91 1.108.59 1.97 1.5 2.585 2.72.616 1.22.924 2.75.924 4.61V1197h-3.353v-13.64c0-1.71-.445-3.05-1.335-4-.89-.97-2.112-1.45-3.665-1.45-1.07 0-2.026.23-2.869.7-.833.46-1.492 1.14-1.974 2.03q-.725 1.335-.725 3.24m29.535-8.7v2.84h-11.307v-2.84zm-8.011-5.23h3.352v20.8q0 1.425.412 2.13c.284.46.644.78 1.079.94.445.15.914.23 1.407.23q.553 0 .909-.06c.236-.05.426-.09.568-.11l.682 3.01c-.228.08-.545.17-.952.25-.407.1-.923.14-1.548.14-.947 0-1.875-.2-2.784-.61q-1.35-.6-2.245-1.86-.88-1.245-.88-3.15zm21.967 27.5c-2.102 0-3.916-.46-5.44-1.39-1.516-.94-2.685-2.24-3.509-3.92q-1.221-2.52-1.222-5.88 0-3.345 1.222-5.91c.824-1.71 1.97-3.05 3.437-4 1.478-.97 3.201-1.45 5.171-1.45q1.704 0 3.366.57c1.108.37 2.117.99 3.026 1.84s1.634 1.96 2.173 3.35c.54 1.4.81 3.11.81 5.15v1.42h-16.818v-2.9h13.409q0-1.845-.739-3.3a5.6 5.6 0 0 0-2.074-2.28q-1.335-.84-3.153-.84-2.003 0-3.466.99a6.6 6.6 0 0 0-2.23 2.56 7.5 7.5 0 0 0-.781 3.38v1.93c0 1.65.284 3.05.852 4.19.578 1.14 1.378 2.01 2.401 2.6s2.211.88 3.565.88c.881 0 1.676-.12 2.386-.37.72-.25 1.34-.63 1.861-1.13.521-.51.923-1.15 1.207-1.91l3.239.91a7.16 7.16 0 0 1-1.719 2.9c-.805.82-1.799 1.47-2.983 1.93-1.183.46-2.514.68-3.991.68m14.133-.45v-21.82h3.239v3.3h.227c.398-1.08 1.118-1.96 2.159-2.63 1.042-.67 2.216-1.01 3.523-1.01.246 0 .554.01.923.02.37 0 .649.02.838.04v3.41c-.113-.03-.374-.07-.781-.13-.398-.07-.819-.1-1.264-.1-1.061 0-2.008.22-2.841.67a4.97 4.97 0 0 0-1.96 1.82c-.474.76-.71 1.64-.71 2.62V1197zm30.338-16.93-3.012.85c-.189-.5-.468-.99-.838-1.46-.36-.49-.852-.88-1.477-1.2-.625-.31-1.425-.46-2.401-.46-1.335 0-2.447.3-3.338.92-.88.6-1.321 1.38-1.321 2.31q0 1.26.909 1.98c.607.48 1.553.88 2.841 1.21l3.239.79c1.951.47 3.404 1.2 4.361 2.17s1.434 2.22 1.434 3.74c0 1.25-.359 2.37-1.079 3.35-.71.99-1.705 1.76-2.983 2.33s-2.765.85-4.46.85q-3.339 0-5.526-1.44c-1.458-.97-2.381-2.38-2.77-4.24l3.182-.79q.454 1.755 1.719 2.64c.852.59 1.965.88 3.338.88q2.343 0 3.722-.99c.928-.68 1.392-1.48 1.392-2.42 0-.76-.266-1.39-.796-1.9q-.795-.78-2.443-1.17l-3.636-.85c-1.999-.47-3.466-1.21-4.404-2.2-.928-1.01-1.392-2.26-1.392-3.77 0-1.23.346-2.32 1.037-3.26.701-.95 1.652-1.69 2.855-2.23q1.818-.81 4.119-.81c2.16 0 3.855.47 5.086 1.42q1.86 1.425 2.642 3.75M661.557 1283.18v2.84H650.25v-2.84zm-8.012-5.23h3.353v20.8q0 1.425.412 2.13c.284.46.644.78 1.079.94.445.15.914.23 1.406.23q.555 0 .91-.06c.236-.05.426-.09.568-.11l.682 3.01c-.228.08-.545.17-.952.25-.407.1-.923.14-1.548.14a6.7 6.7 0 0 1-2.785-.61q-1.348-.6-2.244-1.86-.88-1.245-.881-3.15zm16.875 13.93V1305h-3.352v-29.09h3.352v10.68h.285a6.1 6.1 0 0 1 2.301-2.68c1.032-.68 2.405-1.01 4.119-1.01 1.487 0 2.789.3 3.906.89 1.118.59 1.984 1.49 2.6 2.72.625 1.21.937 2.75.937 4.63V1305h-3.352v-13.64q0-2.595-1.35-4.02c-.89-.95-2.125-1.43-3.707-1.43-1.098 0-2.083.23-2.954.7-.862.46-1.544 1.14-2.046 2.03q-.739 1.335-.739 3.24m29.429 13.57c-2.103 0-3.916-.46-5.441-1.39-1.515-.94-2.684-2.24-3.508-3.92q-1.222-2.52-1.222-5.88 0-3.345 1.222-5.91c.824-1.71 1.97-3.05 3.437-4 1.478-.97 3.201-1.45 5.171-1.45q1.704 0 3.366.57c1.108.37 2.117.99 3.026 1.84s1.633 1.96 2.173 3.35c.54 1.4.81 3.11.81 5.15v1.42h-16.818v-2.9h13.409q0-1.845-.739-3.3a5.6 5.6 0 0 0-2.074-2.28q-1.335-.84-3.153-.84-2.003 0-3.466.99a6.6 6.6 0 0 0-2.23 2.56 7.5 7.5 0 0 0-.781 3.38v1.93c0 1.65.284 3.05.852 4.19.577 1.14 1.378 2.01 2.4 2.6s2.212.88 3.566.88c.88 0 1.676-.12 2.386-.37.72-.25 1.34-.63 1.861-1.13.521-.51.923-1.15 1.207-1.91l3.239.91a7.16 7.16 0 0 1-1.719 2.9c-.805.82-1.799 1.47-2.983 1.93s-2.514.68-3.991.68m49.247-20.45h-3.523q-.312-1.515-1.094-2.67a7.2 7.2 0 0 0-1.875-1.93 8.1 8.1 0 0 0-2.429-1.2 9.9 9.9 0 0 0-2.784-.39c-1.761 0-3.357.44-4.787 1.33-1.42.89-2.552 2.2-3.394 3.94-.834 1.73-1.25 3.86-1.25 6.37 0 2.52.416 4.65 1.25 6.38.842 1.74 1.974 3.05 3.394 3.94 1.43.89 3.026 1.33 4.787 1.33.966 0 1.894-.13 2.784-.4q1.336-.39 2.429-1.17a7.4 7.4 0 0 0 1.875-1.95q.782-1.17 1.094-2.67h3.523q-.398 2.235-1.449 3.99a11.1 11.1 0 0 1-2.614 3 11.6 11.6 0 0 1-3.508 1.86c-1.288.42-2.666.64-4.134.64-2.481 0-4.687-.61-6.619-1.82s-3.452-2.94-4.56-5.17c-1.108-2.24-1.662-4.89-1.662-7.96 0-3.06.554-5.72 1.662-7.95s2.628-3.96 4.56-5.17 4.138-1.82 6.619-1.82c1.468 0 2.846.21 4.134.64a11.2 11.2 0 0 1 3.508 1.88c1.042.81 1.913 1.8 2.614 2.98q1.052 1.74 1.449 3.99m5.692 20v-29.09h9.83q3.424 0 5.596 1.23c1.459.82 2.538 1.92 3.239 3.31.701 1.4 1.051 2.95 1.051 4.66q0 2.58-1.051 4.68c-.691 1.4-1.761 2.52-3.21 3.35-1.449.82-3.305 1.24-5.568 1.24h-7.046v-3.13h6.932q2.344 0 3.764-.81t2.06-2.19c.436-.93.653-1.97.653-3.14q0-1.74-.653-3.12-.639-1.38-2.074-2.16c-.956-.53-2.225-.8-3.807-.8h-6.193V1305zm44.482-29.09h3.523v19.26c0 1.99-.469 3.76-1.407 5.33-.928 1.55-2.239 2.78-3.934 3.68-1.695.89-3.684 1.33-5.966 1.33s-4.271-.44-5.966-1.33c-1.695-.9-3.011-2.13-3.949-3.68-.928-1.57-1.392-3.34-1.392-5.33v-19.26h3.523v18.98c0 1.42.312 2.68.937 3.79.625 1.1 1.515 1.96 2.671 2.6 1.164.62 2.556.94 4.176.94 1.619 0 3.011-.32 4.176-.94 1.165-.64 2.055-1.5 2.67-2.6.625-1.11.938-2.37.938-3.79z"/></svg>