<svg xmlns="http://www.w3.org/2000/svg" width="707" height="748" fill="none" viewBox="0 0 707 748"><rect width="136" height="136" x="516" y="112" stroke="#dbdbdb" stroke-width="2" rx="27"/><rect width="136" height="136" x="516" y="504" stroke="#dbdbdb" stroke-width="2" rx="27"/><rect width="136" height="136" x="360" y="504" stroke="#dbdbdb" stroke-width="2" rx="27"/><rect width="136" height="136" x="360" y="112" stroke="#dbdbdb" stroke-dasharray="20 20" stroke-width="2" rx="27"/><rect width="136" height="136" x="204" y="112" stroke="#dbdbdb" stroke-dasharray="20 20" stroke-width="2" rx="27"/><rect width="136" height="136" x="48" y="112" stroke="#dbdbdb" stroke-dasharray="20 20" stroke-width="2" rx="27"/><rect width="705" height="197" x="1" y="82" stroke="#dbdbdb" stroke-width="2" rx="27"/><rect width="705" height="197" x="1" y="474" stroke="#dbdbdb" stroke-width="2" rx="27"/><rect width="136" height="136" x="204" y="504" stroke="#dbdbdb" stroke-dasharray="20 20" stroke-width="2" rx="27"/><rect width="136" height="136" x="48" y="504" stroke="#dbdbdb" stroke-dasharray="20 20" stroke-width="2" rx="27"/><path fill="#fff" d="M565.523 196v-29.091h9.829q3.423 0 5.597 1.236 2.187 1.22 3.239 3.31 1.05 2.088 1.051 4.659t-1.051 4.673q-1.038 2.102-3.211 3.352-2.173 1.236-5.568 1.236h-7.045v-3.125h6.931q2.345 0 3.765-.81t2.059-2.187q.654-1.393.654-3.139 0-1.748-.654-3.125-.639-1.379-2.074-2.159-1.434-.796-3.806-.796h-6.194V196zm35.106-29.091V196h-3.522v-25.398h-.171l-7.102 4.716v-3.579l7.273-4.83zM564.531 588v-29.091h9.829q3.423 0 5.597 1.236 2.188 1.22 3.238 3.31 1.051 2.088 1.051 4.659t-1.051 4.673q-1.037 2.102-3.21 3.352-2.173 1.236-5.568 1.236h-7.046v-3.125h6.932q2.345 0 3.764-.81 1.42-.81 2.06-2.187.654-1.393.654-3.139 0-1.748-.654-3.125-.639-1.379-2.074-2.159-1.434-.796-3.807-.796h-6.193V588zm35.106-29.091V588h-3.523v-25.398h-.17l-7.102 4.716v-3.579l7.272-4.83zM405.718 588v-29.091h9.83q3.423 0 5.596 1.236 2.188 1.22 3.239 3.31 1.051 2.088 1.051 4.659t-1.051 4.673q-1.037 2.102-3.21 3.352-2.173 1.236-5.569 1.236h-7.045v-3.125h6.932q2.343 0 3.764-.81t2.06-2.187q.653-1.393.653-3.139 0-1.748-.653-3.125-.64-1.379-2.074-2.159-1.435-.796-3.807-.796h-6.193V588zm24.879 0v-2.557l9.603-10.511a68 68 0 0 0 2.784-3.21q1.094-1.378 1.619-2.586.54-1.221.54-2.556 0-1.535-.739-2.657-.725-1.122-1.989-1.733-1.263-.61-2.84-.61-1.676 0-2.927.696a4.8 4.8 0 0 0-1.917 1.917q-.668 1.236-.668 2.898h-3.352q0-2.557 1.179-4.489a8.2 8.2 0 0 1 3.21-3.011q2.046-1.08 4.588-1.08 2.557 0 4.531 1.08 1.975 1.08 3.097 2.912t1.122 4.077q0 1.605-.582 3.139-.568 1.52-1.989 3.395-1.406 1.86-3.906 4.545l-6.534 6.989v.227h13.523V588zM433.568 181.966v3.125h-12.727v-3.125zM277.568 573.966v3.125h-12.727v-3.125zM277.568 181.966v3.125h-12.727v-3.125zM121.568 573.966v3.125h-12.727v-3.125zM121.568 181.966v3.125h-12.727v-3.125zM305.833 29.91h3.864l3.238 4.26.853 1.137 4.829 6.42h-3.863l-3.182-4.261-.796-1.08zm13.977-5.456q0 4.603-1.662 7.955t-4.559 5.17q-2.897 1.82-6.62 1.819-3.721 0-6.619-1.819t-4.56-5.17q-1.66-3.352-1.661-7.954 0-4.603 1.661-7.955t4.56-5.17q2.898-1.82 6.619-1.819 3.723 0 6.62 1.819t4.559 5.17 1.662 7.954m-3.409 0q0-3.777-1.264-6.377-1.25-2.6-3.395-3.935-2.13-1.335-4.773-1.335t-4.786 1.335q-2.132 1.335-3.395 3.935-1.25 2.6-1.25 6.377 0 3.78 1.25 6.378 1.263 2.6 3.395 3.935 2.144 1.335 4.786 1.335 2.643 0 4.773-1.335 2.145-1.335 3.395-3.935 1.264-2.599 1.264-6.378m22.628 5.625V17.182h3.352V39h-3.352v-3.693h-.227q-.768 1.662-2.387 2.826-1.619 1.151-4.09 1.151-2.046 0-3.637-.895-1.59-.909-2.5-2.727-.909-1.832-.909-4.616V17.182h3.352v13.636q0 2.387 1.336 3.807 1.349 1.42 3.437 1.42 1.25 0 2.543-.639 1.307-.64 2.187-1.96.895-1.32.895-3.366m18.64 9.376q-3.154 0-5.44-1.392-2.273-1.407-3.509-3.921-1.221-2.529-1.221-5.88 0-3.353 1.221-5.91 1.236-2.571 3.438-4.005 2.215-1.45 5.17-1.45 1.705 0 3.367.569 1.662.568 3.025 1.846 1.364 1.264 2.173 3.353.81 2.088.81 5.142v1.42h-16.818V26.33h13.409q0-1.846-.739-3.295a5.57 5.57 0 0 0-2.073-2.287q-1.336-.838-3.154-.838-2.002 0-3.466.994a6.54 6.54 0 0 0-2.23 2.557 7.5 7.5 0 0 0-.781 3.38v1.933q0 2.472.852 4.19.867 1.704 2.401 2.6 1.533.88 3.565.88 1.321 0 2.386-.37a5.1 5.1 0 0 0 1.861-1.136q.781-.766 1.208-1.903l3.238.91a7.2 7.2 0 0 1-1.719 2.897q-1.207 1.236-2.982 1.932-1.776.681-3.992.681m27.884-9.375V17.182h3.352V39h-3.352v-3.693h-.228q-.767 1.662-2.386 2.826-1.62 1.151-4.091 1.151-2.046 0-3.636-.895-1.591-.909-2.5-2.727-.909-1.832-.909-4.616V17.182h3.352v13.636q0 2.387 1.335 3.807 1.35 1.42 3.438 1.42 1.25 0 2.542-.639 1.307-.64 2.188-1.96.895-1.32.895-3.366m18.639 9.375q-3.153 0-5.44-1.392-2.273-1.407-3.508-3.921-1.222-2.529-1.222-5.88 0-3.353 1.222-5.91 1.235-2.571 3.437-4.005 2.216-1.45 5.171-1.45 1.704 0 3.366.569 1.662.568 3.026 1.846 1.363 1.264 2.173 3.353.81 2.088.81 5.142v1.42h-16.819V26.33h13.409q0-1.846-.738-3.295a5.56 5.56 0 0 0-2.074-2.287q-1.335-.838-3.153-.838-2.004 0-3.466.994a6.53 6.53 0 0 0-2.23 2.557 7.5 7.5 0 0 0-.782 3.38v1.933q0 2.472.853 4.19.865 1.704 2.4 2.6 1.534.88 3.565.88 1.322 0 2.387-.37a5.1 5.1 0 0 0 1.861-1.136q.78-.766 1.207-1.903l3.239.91a7.2 7.2 0 0 1-1.719 2.897q-1.207 1.236-2.983 1.932-1.776.681-3.992.681M305.833 421.909h3.864l3.238 4.261.853 1.137 4.829 6.42h-3.863l-3.182-4.261-.796-1.08zm13.977-5.454q0 4.602-1.662 7.954t-4.559 5.171-6.62 1.818q-3.721 0-6.619-1.818t-4.56-5.171q-1.66-3.352-1.661-7.954 0-4.603 1.661-7.955t4.56-5.17q2.898-1.82 6.619-1.819 3.723 0 6.62 1.819t4.559 5.17 1.662 7.955m-3.409 0q0-3.778-1.264-6.378-1.25-2.6-3.395-3.935-2.13-1.335-4.773-1.335t-4.786 1.335q-2.132 1.335-3.395 3.935-1.25 2.6-1.25 6.378t1.25 6.377q1.263 2.6 3.395 3.935 2.144 1.335 4.786 1.335 2.643 0 4.773-1.335 2.145-1.335 3.395-3.935 1.264-2.6 1.264-6.377m22.628 5.625v-12.898h3.352V431h-3.352v-3.693h-.227q-.768 1.662-2.387 2.827-1.619 1.15-4.09 1.15-2.046 0-3.637-.895-1.59-.909-2.5-2.727-.909-1.832-.909-4.617v-13.863h3.352v13.636q0 2.387 1.336 3.807 1.349 1.42 3.437 1.42 1.25 0 2.543-.639 1.307-.639 2.187-1.96.895-1.321.895-3.366m18.64 9.375q-3.154 0-5.44-1.393-2.273-1.406-3.509-3.92-1.221-2.529-1.221-5.881 0-3.351 1.221-5.909 1.236-2.571 3.438-4.005 2.215-1.449 5.17-1.449 1.705 0 3.367.568t3.025 1.846q1.364 1.265 2.173 3.353.81 2.088.81 5.142v1.42h-16.818v-2.897h13.409q0-1.848-.739-3.296a5.57 5.57 0 0 0-2.073-2.287q-1.336-.838-3.154-.838-2.002 0-3.466.994a6.55 6.55 0 0 0-2.23 2.557 7.5 7.5 0 0 0-.781 3.381v1.932q0 2.47.852 4.19.867 1.704 2.401 2.599 1.533.881 3.565.881 1.321 0 2.386-.369a5.1 5.1 0 0 0 1.861-1.136q.781-.767 1.208-1.904l3.238.909a7.2 7.2 0 0 1-1.719 2.898q-1.207 1.236-2.982 1.932-1.776.682-3.992.682m27.884-9.375v-12.898h3.352V431h-3.352v-3.693h-.228q-.767 1.662-2.386 2.827-1.62 1.15-4.091 1.15-2.046 0-3.636-.895-1.591-.909-2.5-2.727-.909-1.832-.909-4.617v-13.863h3.352v13.636q0 2.387 1.335 3.807 1.35 1.42 3.438 1.42 1.25 0 2.542-.639 1.307-.639 2.188-1.96.895-1.321.895-3.366m18.639 9.375q-3.153 0-5.44-1.393-2.273-1.406-3.508-3.92-1.222-2.529-1.222-5.881 0-3.351 1.222-5.909 1.235-2.571 3.437-4.005 2.216-1.449 5.171-1.449 1.704 0 3.366.568t3.026 1.846q1.363 1.265 2.173 3.353t.81 5.142v1.42h-16.819v-2.897h13.409q0-1.848-.738-3.296a5.57 5.57 0 0 0-2.074-2.287q-1.335-.838-3.153-.838-2.004 0-3.466.994a6.54 6.54 0 0 0-2.23 2.557 7.5 7.5 0 0 0-.782 3.381v1.932q0 2.47.853 4.19.865 1.704 2.4 2.599 1.534.881 3.565.881 1.322 0 2.387-.369a5.1 5.1 0 0 0 1.861-1.136q.78-.767 1.207-1.904l3.239.909a7.2 7.2 0 0 1-1.719 2.898q-1.207 1.236-2.983 1.932-1.776.682-3.992.682"/><path stroke="#dbdbdb" stroke-linecap="round" stroke-linejoin="round" stroke-width="4" d="m622.375 699.25 16.25 16.25-16.25 16.25M622.375 307.25l16.25 16.25-16.25 16.25"/><path stroke="#dbdbdb" stroke-width="5" d="M44 715.5h592M44 323.5h592"/></svg>