<svg xmlns="http://www.w3.org/2000/svg" width="707" height="418" fill="none" viewBox="0 0 707 418"><rect width="136" height="136" x="516" y="112" stroke="#dbdbdb" stroke-dasharray="20 20" stroke-width="2" rx="27"/><rect width="136" height="136" x="360" y="112" stroke="#dbdbdb" stroke-dasharray="20 20" stroke-width="2" rx="27"/><rect width="705" height="197" x="1" y="82" stroke="#dbdbdb" stroke-width="2" rx="27"/><rect width="136" height="136" x="204" y="112" stroke="#dbdbdb" stroke-dasharray="20 20" stroke-width="2" rx="27"/><rect width="136" height="136" x="48" y="112" stroke="#dbdbdb" stroke-dasharray="20 20" stroke-width="2" rx="27"/><path fill="#fff" d="M589.568 181.966v3.125h-12.727v-3.125zM433.568 181.966v3.125h-12.727v-3.125zM277.568 181.966v3.125h-12.727v-3.125zM121.568 181.966v3.125h-12.727v-3.125z"/><path fill="#717171" d="M60.199 391v-29.091h17.556v3.125H63.721v9.83h13.125v3.125H63.721v9.886h14.262V391zm26.804-13.125V391H83.65v-21.818h3.239v3.409h.284a6.24 6.24 0 0 1 2.33-2.671q1.562-1.022 4.034-1.022 2.216 0 3.877.909 1.662.894 2.586 2.727.923 1.818.923 4.602V391h-3.352v-13.636q0-2.572-1.336-4.006-1.335-1.449-3.664-1.449-1.605 0-2.87.696-1.25.696-1.974 2.031-.725 1.336-.725 3.239m29.534-8.693v2.841H105.23v-2.841zm-8.011-5.227h3.352v20.795q0 1.42.412 2.131.426.696 1.08.937.667.227 1.406.227.553 0 .909-.056l.568-.114.682 3.011a7 7 0 0 1-.952.256q-.61.142-1.548.142a6.75 6.75 0 0 1-2.784-.611 5.5 5.5 0 0 1-2.244-1.861q-.882-1.25-.881-3.153zM121.58 391v-21.818h3.239v3.295h.227q.597-1.618 2.159-2.628 1.563-1.008 3.523-1.008.37 0 .923.014.554.015.838.043v3.409a10 10 0 0 0-.781-.128 8 8 0 0 0-1.264-.099q-1.592 0-2.841.667a5.04 5.04 0 0 0-1.961 1.818q-.71 1.15-.71 2.628V391zm17.706 8.182a7.4 7.4 0 0 1-1.52-.142q-.668-.128-.923-.256l.852-2.954q1.221.312 2.159.227t1.662-.838q.738-.74 1.349-2.401l.625-1.704-8.068-21.932h3.637l6.022 17.386h.228l6.022-17.386h3.637l-9.262 25q-.624 1.69-1.548 2.798-.923 1.122-2.145 1.662-1.208.54-2.727.54M571.257 391v-29.091h17.557v3.125H574.78v9.83h13.125v3.125H574.78v9.886h14.261V391zm25.952-21.818 5.227 8.92 5.227-8.92h3.864l-7.045 10.909L611.527 391h-3.864l-5.227-8.466-5.227 8.466h-3.864l6.932-10.909-6.932-10.909zM616.31 391v-21.818h3.353V391zm1.705-25.455a2.38 2.38 0 0 1-1.69-.667q-.696-.667-.696-1.605t.696-1.605a2.38 2.38 0 0 1 1.69-.668q.98 0 1.676.668.71.667.71 1.605t-.71 1.605a2.34 2.34 0 0 1-1.676.667m17.276 3.637v2.841h-11.307v-2.841zm-8.011-5.227h3.352v20.795q0 1.42.412 2.131.426.696 1.08.937.667.227 1.406.227.553 0 .909-.056l.568-.114.682 3.011a7 7 0 0 1-.952.256q-.61.142-1.548.142a6.75 6.75 0 0 1-2.784-.611 5.5 5.5 0 0 1-2.244-1.861q-.881-1.25-.881-3.153z"/><path fill="#fff" d="M305.833 29.91h3.864l3.238 4.26.853 1.137 4.829 6.42h-3.863l-3.182-4.261-.796-1.08zm13.977-5.456q0 4.603-1.662 7.955t-4.559 5.17q-2.897 1.82-6.62 1.819-3.721 0-6.619-1.819t-4.56-5.17q-1.66-3.352-1.661-7.954 0-4.603 1.661-7.955t4.56-5.17q2.898-1.82 6.619-1.819 3.723 0 6.62 1.819t4.559 5.17 1.662 7.954m-3.409 0q0-3.777-1.264-6.377-1.25-2.6-3.395-3.935-2.13-1.335-4.773-1.335t-4.786 1.335q-2.132 1.335-3.395 3.935-1.25 2.6-1.25 6.377 0 3.78 1.25 6.378 1.263 2.6 3.395 3.935 2.144 1.335 4.786 1.335 2.643 0 4.773-1.335 2.145-1.335 3.395-3.935 1.264-2.599 1.264-6.378m22.628 5.625V17.182h3.352V39h-3.352v-3.693h-.227q-.768 1.662-2.387 2.826-1.619 1.151-4.09 1.151-2.046 0-3.637-.895-1.59-.909-2.5-2.727-.909-1.832-.909-4.616V17.182h3.352v13.636q0 2.387 1.336 3.807 1.349 1.42 3.437 1.42 1.25 0 2.543-.639 1.307-.64 2.187-1.96.895-1.32.895-3.366m18.64 9.376q-3.154 0-5.44-1.392-2.273-1.407-3.509-3.921-1.221-2.529-1.221-5.88 0-3.353 1.221-5.91 1.236-2.571 3.438-4.005 2.215-1.45 5.17-1.45 1.705 0 3.367.569 1.662.568 3.025 1.846 1.364 1.264 2.173 3.353.81 2.088.81 5.142v1.42h-16.818V26.33h13.409q0-1.846-.739-3.295a5.57 5.57 0 0 0-2.073-2.287q-1.336-.838-3.154-.838-2.002 0-3.466.994a6.54 6.54 0 0 0-2.23 2.557 7.5 7.5 0 0 0-.781 3.38v1.933q0 2.472.852 4.19.867 1.704 2.401 2.6 1.533.88 3.565.88 1.321 0 2.386-.37a5.1 5.1 0 0 0 1.861-1.136q.781-.766 1.208-1.903l3.238.91a7.2 7.2 0 0 1-1.719 2.897q-1.207 1.236-2.982 1.932-1.776.681-3.992.681m27.884-9.375V17.182h3.352V39h-3.352v-3.693h-.228q-.767 1.662-2.386 2.826-1.62 1.151-4.091 1.151-2.046 0-3.636-.895-1.591-.909-2.5-2.727-.909-1.832-.909-4.616V17.182h3.352v13.636q0 2.387 1.335 3.807 1.35 1.42 3.438 1.42 1.25 0 2.542-.639 1.307-.64 2.188-1.96.895-1.32.895-3.366m18.639 9.375q-3.153 0-5.44-1.392-2.273-1.407-3.508-3.921-1.222-2.529-1.222-5.88 0-3.353 1.222-5.91 1.235-2.571 3.437-4.005 2.216-1.45 5.171-1.45 1.704 0 3.366.569 1.662.568 3.026 1.846 1.363 1.264 2.173 3.353.81 2.088.81 5.142v1.42h-16.819V26.33h13.409q0-1.846-.738-3.295a5.56 5.56 0 0 0-2.074-2.287q-1.335-.838-3.153-.838-2.004 0-3.466.994a6.53 6.53 0 0 0-2.23 2.557 7.5 7.5 0 0 0-.782 3.38v1.933q0 2.472.853 4.19.865 1.704 2.4 2.6 1.534.88 3.565.88 1.322 0 2.387-.37a5.1 5.1 0 0 0 1.861-1.136q.78-.766 1.207-1.903l3.239.91a7.2 7.2 0 0 1-1.719 2.897q-1.207 1.236-2.983 1.932-1.776.681-3.992.681"/><path stroke="#dbdbdb" stroke-linecap="round" stroke-linejoin="round" stroke-width="4" d="m622.375 307.25 16.25 16.25-16.25 16.25"/><path stroke="#dbdbdb" stroke-width="5" d="M60 323.5h576"/></svg>