<svg width="937" height="171" viewBox="0 0 937 171" fill="none" xmlns="http://www.w3.org/2000/svg">
<path d="M634.182 61.5V46.9545H639.097C640.234 46.9545 641.166 47.1487 641.895 47.5369C642.625 47.9205 643.164 48.4484 643.515 49.1207C643.865 49.7931 644.04 50.5578 644.04 51.4148C644.04 52.2718 643.865 53.0317 643.515 53.6946C643.164 54.3575 642.627 54.8783 641.903 55.2571C641.178 55.6312 640.252 55.8182 639.126 55.8182H635.148V54.2273H639.069C639.845 54.2273 640.47 54.1136 640.944 53.8864C641.422 53.6591 641.768 53.3371 641.981 52.9205C642.198 52.4991 642.307 51.9972 642.307 51.4148C642.307 50.8324 642.198 50.3234 641.981 49.8878C641.763 49.4522 641.415 49.116 640.937 48.8793C640.458 48.6378 639.826 48.517 639.04 48.517H635.944V61.5H634.182ZM641.029 54.9659L644.609 61.5H642.563L639.04 54.9659H641.029ZM651.205 61.7273C650.154 61.7273 649.247 61.4953 648.485 61.0312C647.727 60.5625 647.142 59.9091 646.73 59.071C646.323 58.2282 646.12 57.2481 646.12 56.1307C646.12 55.0133 646.323 54.0284 646.73 53.1761C647.142 52.3191 647.715 51.6515 648.449 51.1733C649.188 50.6903 650.049 50.4489 651.034 50.4489C651.602 50.4489 652.164 50.5436 652.718 50.733C653.272 50.9223 653.776 51.2301 654.23 51.6562C654.685 52.0777 655.047 52.6364 655.317 53.3324C655.587 54.0284 655.722 54.8854 655.722 55.9034V56.6136H647.313V55.1648H654.017C654.017 54.5492 653.894 54 653.648 53.517C653.406 53.0341 653.061 52.6529 652.611 52.3736C652.166 52.0942 651.64 51.9545 651.034 51.9545C650.367 51.9545 649.789 52.1203 649.301 52.4517C648.818 52.7784 648.447 53.2045 648.186 53.7301C647.926 54.2557 647.796 54.8191 647.796 55.4205V56.3864C647.796 57.2102 647.938 57.9086 648.222 58.4815C648.511 59.0497 648.911 59.483 649.422 59.7812C649.933 60.0748 650.528 60.2216 651.205 60.2216C651.645 60.2216 652.043 60.16 652.398 60.0369C652.758 59.9091 653.068 59.7197 653.328 59.4688C653.589 59.2131 653.79 58.8958 653.932 58.517L655.551 58.9716C655.381 59.5208 655.094 60.0038 654.692 60.4205C654.29 60.8324 653.792 61.1544 653.2 61.3864C652.609 61.6136 651.943 61.7273 651.205 61.7273ZM659.948 46.9545V61.5H658.272V46.9545H659.948ZM667.591 61.7273C666.54 61.7273 665.634 61.4953 664.871 61.0312C664.114 60.5625 663.529 59.9091 663.117 59.071C662.71 58.2282 662.506 57.2481 662.506 56.1307C662.506 55.0133 662.71 54.0284 663.117 53.1761C663.529 52.3191 664.102 51.6515 664.836 51.1733C665.574 50.6903 666.436 50.4489 667.421 50.4489C667.989 50.4489 668.55 50.5436 669.104 50.733C669.658 50.9223 670.162 51.2301 670.617 51.6562C671.072 52.0777 671.434 52.6364 671.704 53.3324C671.974 54.0284 672.109 54.8854 672.109 55.9034V56.6136H663.699V55.1648H670.404C670.404 54.5492 670.281 54 670.035 53.517C669.793 53.0341 669.448 52.6529 668.998 52.3736C668.553 52.0942 668.027 51.9545 667.421 51.9545C666.753 51.9545 666.176 52.1203 665.688 52.4517C665.205 52.7784 664.833 53.2045 664.573 53.7301C664.313 54.2557 664.182 54.8191 664.182 55.4205V56.3864C664.182 57.2102 664.324 57.9086 664.609 58.4815C664.897 59.0497 665.297 59.483 665.809 59.7812C666.32 60.0748 666.914 60.2216 667.591 60.2216C668.032 60.2216 668.43 60.16 668.785 60.0369C669.145 59.9091 669.455 59.7197 669.715 59.4688C669.975 59.2131 670.177 58.8958 670.319 58.517L671.938 58.9716C671.768 59.5208 671.481 60.0038 671.079 60.4205C670.676 60.8324 670.179 61.1544 669.587 61.3864C668.995 61.6136 668.33 61.7273 667.591 61.7273ZM677.868 61.7557C677.177 61.7557 676.55 61.6255 675.986 61.3651C675.423 61.0999 674.975 60.7188 674.644 60.2216C674.313 59.7197 674.147 59.1136 674.147 58.4034C674.147 57.7784 674.27 57.2718 674.516 56.8835C674.762 56.4905 675.091 56.1828 675.503 55.9602C675.915 55.7377 676.37 55.572 676.867 55.4631C677.369 55.3494 677.873 55.2595 678.38 55.1932C679.043 55.108 679.58 55.044 679.992 55.0014C680.409 54.9541 680.712 54.8759 680.901 54.767C681.095 54.6581 681.192 54.4687 681.192 54.1989V54.142C681.192 53.4413 681.001 52.8968 680.617 52.5085C680.238 52.1203 679.663 51.9261 678.891 51.9261C678.091 51.9261 677.464 52.1013 677.009 52.4517C676.555 52.8021 676.235 53.1761 676.05 53.5739L674.459 53.0057C674.743 52.3428 675.122 51.8267 675.596 51.4574C676.074 51.0833 676.595 50.8229 677.158 50.6761C677.726 50.5246 678.285 50.4489 678.834 50.4489C679.185 50.4489 679.587 50.4915 680.042 50.5767C680.501 50.6572 680.944 50.8253 681.37 51.081C681.801 51.3366 682.158 51.7225 682.442 52.2386C682.726 52.7547 682.868 53.446 682.868 54.3125V61.5H681.192V60.0227H681.107C680.993 60.2595 680.804 60.5128 680.539 60.7827C680.274 61.0526 679.921 61.2822 679.481 61.4716C679.04 61.661 678.503 61.7557 677.868 61.7557ZM678.124 60.25C678.787 60.25 679.346 60.1198 679.8 59.8594C680.26 59.599 680.605 59.2628 680.837 58.8509C681.074 58.4389 681.192 58.0057 681.192 57.5511V56.017C681.121 56.1023 680.965 56.1804 680.724 56.2514C680.487 56.3177 680.212 56.3769 679.9 56.429C679.592 56.4763 679.291 56.5189 678.998 56.5568C678.709 56.59 678.475 56.6184 678.295 56.642C677.859 56.6989 677.452 56.7912 677.073 56.919C676.699 57.0421 676.396 57.2292 676.164 57.4801C675.937 57.7263 675.823 58.0625 675.823 58.4886C675.823 59.071 676.038 59.5114 676.469 59.8097C676.905 60.1032 677.457 60.25 678.124 60.25ZM693.655 53.0341L692.149 53.4602C692.055 53.2093 691.915 52.9654 691.73 52.7287C691.55 52.4872 691.304 52.2884 690.992 52.1321C690.679 51.9759 690.279 51.8977 689.791 51.8977C689.124 51.8977 688.567 52.0516 688.122 52.3594C687.682 52.6624 687.462 53.0483 687.462 53.517C687.462 53.9337 687.613 54.2628 687.916 54.5043C688.219 54.7457 688.693 54.947 689.337 55.108L690.956 55.5057C691.932 55.7424 692.658 56.1046 693.137 56.5923C693.615 57.0753 693.854 57.6979 693.854 58.4602C693.854 59.0852 693.674 59.6439 693.314 60.1364C692.959 60.6288 692.462 61.017 691.823 61.3011C691.183 61.5852 690.44 61.7273 689.593 61.7273C688.48 61.7273 687.559 61.4858 686.83 61.0028C686.101 60.5199 685.639 59.8144 685.445 58.8864L687.036 58.4886C687.187 59.0758 687.474 59.5161 687.895 59.8097C688.321 60.1032 688.878 60.25 689.564 60.25C690.345 60.25 690.966 60.0843 691.425 59.7528C691.889 59.4167 692.121 59.0142 692.121 58.5455C692.121 58.1667 691.988 57.8494 691.723 57.5938C691.458 57.3333 691.051 57.1392 690.502 57.0114L688.683 56.5852C687.684 56.3485 686.95 55.9815 686.482 55.4844C686.018 54.9825 685.786 54.3551 685.786 53.6023C685.786 52.9867 685.959 52.4422 686.304 51.9688C686.655 51.4953 687.13 51.1236 687.732 50.8537C688.338 50.5838 689.024 50.4489 689.791 50.4489C690.871 50.4489 691.718 50.6856 692.334 51.1591C692.954 51.6326 693.395 52.2576 693.655 53.0341ZM700.951 61.7273C699.9 61.7273 698.993 61.4953 698.231 61.0312C697.473 60.5625 696.888 59.9091 696.476 59.071C696.069 58.2282 695.866 57.2481 695.866 56.1307C695.866 55.0133 696.069 54.0284 696.476 53.1761C696.888 52.3191 697.461 51.6515 698.195 51.1733C698.934 50.6903 699.796 50.4489 700.78 50.4489C701.349 50.4489 701.91 50.5436 702.464 50.733C703.018 50.9223 703.522 51.2301 703.976 51.6562C704.431 52.0777 704.793 52.6364 705.063 53.3324C705.333 54.0284 705.468 54.8854 705.468 55.9034V56.6136H697.059V55.1648H703.763C703.763 54.5492 703.64 54 703.394 53.517C703.153 53.0341 702.807 52.6529 702.357 52.3736C701.912 52.0942 701.386 51.9545 700.78 51.9545C700.113 51.9545 699.535 52.1203 699.047 52.4517C698.564 52.7784 698.193 53.2045 697.932 53.7301C697.672 54.2557 697.542 54.8191 697.542 55.4205V56.3864C697.542 57.2102 697.684 57.9086 697.968 58.4815C698.257 59.0497 698.657 59.483 699.168 59.7812C699.68 60.0748 700.274 60.2216 700.951 60.2216C701.391 60.2216 701.789 60.16 702.144 60.0369C702.504 59.9091 702.814 59.7197 703.074 59.4688C703.335 59.2131 703.536 58.8958 703.678 58.517L705.297 58.9716C705.127 59.5208 704.841 60.0038 704.438 60.4205C704.036 60.8324 703.538 61.1544 702.947 61.3864C702.355 61.6136 701.689 61.7273 700.951 61.7273Z" fill="#F4F4F4"/>
<path d="M645.887 75.5H644.126C644.021 74.9934 643.839 74.5483 643.579 74.1648C643.323 73.7812 643.011 73.4593 642.641 73.1989C642.277 72.9337 641.872 72.7348 641.427 72.6023C640.982 72.4697 640.518 72.4034 640.035 72.4034C639.154 72.4034 638.356 72.6259 637.641 73.071C636.931 73.5161 636.365 74.1719 635.944 75.0384C635.527 75.9048 635.319 76.9678 635.319 78.2273C635.319 79.4867 635.527 80.5497 635.944 81.4162C636.365 82.2827 636.931 82.9384 637.641 83.3835C638.356 83.8286 639.154 84.0511 640.035 84.0511C640.518 84.0511 640.982 83.9848 641.427 83.8523C641.872 83.7197 642.277 83.5232 642.641 83.2628C643.011 82.9976 643.323 82.6733 643.579 82.2898C643.839 81.9015 644.021 81.4564 644.126 80.9545H645.887C645.754 81.6979 645.513 82.3632 645.162 82.9503C644.812 83.5374 644.377 84.0369 643.856 84.4489C643.335 84.8561 642.75 85.1662 642.101 85.3793C641.457 85.5923 640.769 85.6989 640.035 85.6989C638.794 85.6989 637.691 85.3958 636.725 84.7898C635.759 84.1837 634.999 83.322 634.445 82.2045C633.891 81.0871 633.614 79.7614 633.614 78.2273C633.614 76.6932 633.891 75.3674 634.445 74.25C634.999 73.1326 635.759 72.2708 636.725 71.6648C637.691 71.0587 638.794 70.7557 640.035 70.7557C640.769 70.7557 641.457 70.8622 642.101 71.0753C642.75 71.2884 643.335 71.6009 643.856 72.0128C644.377 72.42 644.812 72.9171 645.162 73.5043C645.513 74.0866 645.754 74.7519 645.887 75.5ZM648.733 85.5V70.9545H653.648C654.789 70.9545 655.722 71.1605 656.446 71.5724C657.175 71.9796 657.715 72.5312 658.066 73.2273C658.416 73.9233 658.591 74.6998 658.591 75.5568C658.591 76.4138 658.416 77.1927 658.066 77.8935C657.72 78.5942 657.185 79.1529 656.46 79.5696C655.736 79.9815 654.808 80.1875 653.676 80.1875H650.154V78.625H653.62C654.401 78.625 655.028 78.4901 655.502 78.2202C655.975 77.9503 656.318 77.5857 656.531 77.1264C656.749 76.6624 656.858 76.1392 656.858 75.5568C656.858 74.9744 656.749 74.4536 656.531 73.9943C656.318 73.535 655.973 73.1752 655.495 72.9148C655.016 72.6496 654.382 72.517 653.591 72.517H650.495V85.5H648.733ZM670.974 70.9545H672.735V80.5852C672.735 81.5795 672.501 82.4673 672.032 83.2486C671.568 84.0251 670.912 84.6383 670.065 85.0881C669.217 85.5331 668.223 85.7557 667.082 85.7557C665.941 85.7557 664.946 85.5331 664.099 85.0881C663.251 84.6383 662.593 84.0251 662.125 83.2486C661.66 82.4673 661.428 81.5795 661.428 80.5852V70.9545H663.19V80.4432C663.19 81.1534 663.346 81.7855 663.659 82.3395C663.971 82.8887 664.416 83.322 664.994 83.6392C665.576 83.9517 666.272 84.108 667.082 84.108C667.892 84.108 668.588 83.9517 669.17 83.6392C669.752 83.322 670.197 82.8887 670.505 82.3395C670.818 81.7855 670.974 81.1534 670.974 80.4432V70.9545Z" fill="#F4F4F4"/>
<path d="M306.182 74.9545H308.285L313.228 87.0284H313.398L318.342 74.9545H320.444V89.5H318.796V78.4489H318.654L314.109 89.5H312.518L307.972 78.4489H307.83V89.5H306.182V74.9545ZM326.958 89.7557C326.267 89.7557 325.64 89.6255 325.076 89.3651C324.513 89.0999 324.065 88.7188 323.734 88.2216C323.402 87.7197 323.237 87.1136 323.237 86.4034C323.237 85.7784 323.36 85.2718 323.606 84.8835C323.852 84.4905 324.181 84.1828 324.593 83.9602C325.005 83.7377 325.46 83.572 325.957 83.4631C326.459 83.3494 326.963 83.2595 327.47 83.1932C328.133 83.108 328.67 83.044 329.082 83.0014C329.499 82.9541 329.802 82.8759 329.991 82.767C330.185 82.6581 330.282 82.4687 330.282 82.1989V82.142C330.282 81.4413 330.09 80.8968 329.707 80.5085C329.328 80.1203 328.753 79.9261 327.981 79.9261C327.181 79.9261 326.554 80.1013 326.099 80.4517C325.644 80.8021 325.325 81.1761 325.14 81.5739L323.549 81.0057C323.833 80.3428 324.212 79.8267 324.686 79.4574C325.164 79.0833 325.685 78.8229 326.248 78.6761C326.816 78.5246 327.375 78.4489 327.924 78.4489C328.275 78.4489 328.677 78.4915 329.132 78.5767C329.591 78.6572 330.034 78.8253 330.46 79.081C330.891 79.3366 331.248 79.7225 331.532 80.2386C331.816 80.7547 331.958 81.446 331.958 82.3125V89.5H330.282V88.0227H330.197C330.083 88.2595 329.894 88.5128 329.629 88.7827C329.364 89.0526 329.011 89.2822 328.571 89.4716C328.13 89.661 327.593 89.7557 326.958 89.7557ZM327.214 88.25C327.877 88.25 328.436 88.1198 328.89 87.8594C329.349 87.599 329.695 87.2628 329.927 86.8509C330.164 86.4389 330.282 86.0057 330.282 85.5511V84.017C330.211 84.1023 330.055 84.1804 329.813 84.2514C329.577 84.3177 329.302 84.3769 328.99 84.429C328.682 84.4763 328.381 84.5189 328.088 84.5568C327.799 84.59 327.564 84.6184 327.384 84.642C326.949 84.6989 326.542 84.7912 326.163 84.919C325.789 85.0421 325.486 85.2292 325.254 85.4801C325.027 85.7263 324.913 86.0625 324.913 86.4886C324.913 87.071 325.128 87.5114 325.559 87.8097C325.995 88.1032 326.546 88.25 327.214 88.25ZM335.018 89.5V78.5909H336.694V89.5H335.018ZM335.87 76.7727C335.543 76.7727 335.261 76.6615 335.025 76.4389C334.793 76.2164 334.677 75.9489 334.677 75.6364C334.677 75.3239 334.793 75.0563 335.025 74.8338C335.261 74.6113 335.543 74.5 335.87 74.5C336.197 74.5 336.476 74.6113 336.708 74.8338C336.945 75.0563 337.063 75.3239 337.063 75.6364C337.063 75.9489 336.945 76.2164 336.708 76.4389C336.476 76.6615 336.197 76.7727 335.87 76.7727ZM341.44 82.9375V89.5H339.764V78.5909H341.383V80.2955H341.525C341.781 79.7415 342.169 79.2964 342.69 78.9602C343.211 78.6193 343.883 78.4489 344.707 78.4489C345.446 78.4489 346.092 78.6004 346.646 78.9034C347.2 79.2017 347.631 79.6562 347.938 80.267C348.246 80.8731 348.4 81.6402 348.4 82.5682V89.5H346.724V82.6818C346.724 81.8248 346.501 81.1572 346.056 80.679C345.611 80.196 345 79.9545 344.224 79.9545C343.689 79.9545 343.211 80.0705 342.789 80.3026C342.373 80.5346 342.044 80.8731 341.802 81.3182C341.561 81.7633 341.44 82.303 341.44 82.9375ZM356.207 78.5909V80.0114H350.554V78.5909H356.207ZM352.202 75.9773H353.878V86.375C353.878 86.8485 353.946 87.2036 354.084 87.4403C354.226 87.6723 354.406 87.8286 354.623 87.9091C354.846 87.9848 355.08 88.0227 355.327 88.0227C355.511 88.0227 355.663 88.0133 355.781 87.9943C355.9 87.9706 355.994 87.9517 356.065 87.9375L356.406 89.4432C356.292 89.4858 356.134 89.5284 355.93 89.571C355.727 89.6184 355.469 89.642 355.156 89.642C354.683 89.642 354.219 89.5402 353.764 89.3366C353.314 89.133 352.94 88.8229 352.642 88.4062C352.348 87.9896 352.202 87.464 352.202 86.8295V75.9773ZM361.939 89.7557C361.248 89.7557 360.62 89.6255 360.057 89.3651C359.493 89.0999 359.046 88.7188 358.714 88.2216C358.383 87.7197 358.217 87.1136 358.217 86.4034C358.217 85.7784 358.34 85.2718 358.587 84.8835C358.833 84.4905 359.162 84.1828 359.574 83.9602C359.986 83.7377 360.44 83.572 360.937 83.4631C361.439 83.3494 361.944 83.2595 362.45 83.1932C363.113 83.108 363.65 83.044 364.062 83.0014C364.479 82.9541 364.782 82.8759 364.971 82.767C365.166 82.6581 365.263 82.4687 365.263 82.1989V82.142C365.263 81.4413 365.071 80.8968 364.687 80.5085C364.309 80.1203 363.733 79.9261 362.962 79.9261C362.161 79.9261 361.534 80.1013 361.079 80.4517C360.625 80.8021 360.305 81.1761 360.121 81.5739L358.53 81.0057C358.814 80.3428 359.193 79.8267 359.666 79.4574C360.144 79.0833 360.665 78.8229 361.229 78.6761C361.797 78.5246 362.355 78.4489 362.905 78.4489C363.255 78.4489 363.658 78.4915 364.112 78.5767C364.571 78.6572 365.014 78.8253 365.44 79.081C365.871 79.3366 366.229 79.7225 366.513 80.2386C366.797 80.7547 366.939 81.446 366.939 82.3125V89.5H365.263V88.0227H365.177C365.064 88.2595 364.874 88.5128 364.609 88.7827C364.344 89.0526 363.991 89.2822 363.551 89.4716C363.111 89.661 362.573 89.7557 361.939 89.7557ZM362.194 88.25C362.857 88.25 363.416 88.1198 363.871 87.8594C364.33 87.599 364.676 87.2628 364.908 86.8509C365.144 86.4389 365.263 86.0057 365.263 85.5511V84.017C365.192 84.1023 365.035 84.1804 364.794 84.2514C364.557 84.3177 364.283 84.3769 363.97 84.429C363.662 84.4763 363.362 84.5189 363.068 84.5568C362.779 84.59 362.545 84.6184 362.365 84.642C361.929 84.6989 361.522 84.7912 361.143 84.919C360.769 85.0421 360.466 85.2292 360.234 85.4801C360.007 85.7263 359.893 86.0625 359.893 86.4886C359.893 87.071 360.109 87.5114 360.54 87.8097C360.975 88.1032 361.527 88.25 362.194 88.25ZM369.998 89.5V78.5909H371.674V89.5H369.998ZM370.85 76.7727C370.524 76.7727 370.242 76.6615 370.005 76.4389C369.773 76.2164 369.657 75.9489 369.657 75.6364C369.657 75.3239 369.773 75.0563 370.005 74.8338C370.242 74.6113 370.524 74.5 370.85 74.5C371.177 74.5 371.456 74.6113 371.688 74.8338C371.925 75.0563 372.044 75.3239 372.044 75.6364C372.044 75.9489 371.925 76.2164 371.688 76.4389C371.456 76.6615 371.177 76.7727 370.85 76.7727ZM376.42 82.9375V89.5H374.744V78.5909H376.364V80.2955H376.506C376.761 79.7415 377.15 79.2964 377.67 78.9602C378.191 78.6193 378.864 78.4489 379.687 78.4489C380.426 78.4489 381.072 78.6004 381.626 78.9034C382.18 79.2017 382.611 79.6562 382.919 80.267C383.227 80.8731 383.381 81.6402 383.381 82.5682V89.5H381.704V82.6818C381.704 81.8248 381.482 81.1572 381.037 80.679C380.592 80.196 379.981 79.9545 379.204 79.9545C378.669 79.9545 378.191 80.0705 377.77 80.3026C377.353 80.5346 377.024 80.8731 376.783 81.3182C376.541 81.7633 376.42 82.303 376.42 82.9375Z" fill="#F4F4F4"/>
<path d="M306.182 113.5V98.9545H311.097C312.234 98.9545 313.166 99.1487 313.895 99.5369C314.625 99.9205 315.164 100.448 315.515 101.121C315.865 101.793 316.04 102.558 316.04 103.415C316.04 104.272 315.865 105.032 315.515 105.695C315.164 106.357 314.627 106.878 313.903 107.257C313.178 107.631 312.252 107.818 311.126 107.818H307.148V106.227H311.069C311.845 106.227 312.47 106.114 312.944 105.886C313.422 105.659 313.768 105.337 313.981 104.92C314.199 104.499 314.307 103.997 314.307 103.415C314.307 102.832 314.199 102.323 313.981 101.888C313.763 101.452 313.415 101.116 312.937 100.879C312.458 100.638 311.826 100.517 311.04 100.517H307.944V113.5H306.182ZM313.029 106.966L316.609 113.5H314.563L311.04 106.966H313.029ZM323.205 113.727C322.154 113.727 321.247 113.495 320.485 113.031C319.727 112.562 319.142 111.909 318.73 111.071C318.323 110.228 318.12 109.248 318.12 108.131C318.12 107.013 318.323 106.028 318.73 105.176C319.142 104.319 319.715 103.652 320.449 103.173C321.188 102.69 322.049 102.449 323.034 102.449C323.603 102.449 324.164 102.544 324.718 102.733C325.272 102.922 325.776 103.23 326.23 103.656C326.685 104.078 327.047 104.636 327.317 105.332C327.587 106.028 327.722 106.885 327.722 107.903V108.614H319.313V107.165H326.017C326.017 106.549 325.894 106 325.648 105.517C325.406 105.034 325.061 104.653 324.611 104.374C324.166 104.094 323.64 103.955 323.034 103.955C322.367 103.955 321.789 104.12 321.301 104.452C320.818 104.778 320.447 105.205 320.186 105.73C319.926 106.256 319.796 106.819 319.796 107.42V108.386C319.796 109.21 319.938 109.909 320.222 110.482C320.511 111.05 320.911 111.483 321.422 111.781C321.933 112.075 322.528 112.222 323.205 112.222C323.645 112.222 324.043 112.16 324.398 112.037C324.758 111.909 325.068 111.72 325.328 111.469C325.589 111.213 325.79 110.896 325.932 110.517L327.551 110.972C327.381 111.521 327.094 112.004 326.692 112.42C326.29 112.832 325.792 113.154 325.201 113.386C324.609 113.614 323.943 113.727 323.205 113.727ZM333.482 113.756C332.79 113.756 332.163 113.625 331.6 113.365C331.036 113.1 330.589 112.719 330.257 112.222C329.926 111.72 329.76 111.114 329.76 110.403C329.76 109.778 329.883 109.272 330.13 108.884C330.376 108.491 330.705 108.183 331.117 107.96C331.529 107.738 331.983 107.572 332.48 107.463C332.982 107.349 333.487 107.259 333.993 107.193C334.656 107.108 335.193 107.044 335.605 107.001C336.022 106.954 336.325 106.876 336.514 106.767C336.709 106.658 336.806 106.469 336.806 106.199V106.142C336.806 105.441 336.614 104.897 336.23 104.509C335.852 104.12 335.276 103.926 334.505 103.926C333.704 103.926 333.077 104.101 332.622 104.452C332.168 104.802 331.848 105.176 331.664 105.574L330.073 105.006C330.357 104.343 330.736 103.827 331.209 103.457C331.687 103.083 332.208 102.823 332.772 102.676C333.34 102.525 333.898 102.449 334.448 102.449C334.798 102.449 335.201 102.491 335.655 102.577C336.114 102.657 336.557 102.825 336.983 103.081C337.414 103.337 337.772 103.723 338.056 104.239C338.34 104.755 338.482 105.446 338.482 106.312V113.5H336.806V112.023H336.72C336.607 112.259 336.417 112.513 336.152 112.783C335.887 113.053 335.534 113.282 335.094 113.472C334.654 113.661 334.116 113.756 333.482 113.756ZM333.737 112.25C334.4 112.25 334.959 112.12 335.414 111.859C335.873 111.599 336.219 111.263 336.451 110.851C336.687 110.439 336.806 110.006 336.806 109.551V108.017C336.735 108.102 336.578 108.18 336.337 108.251C336.1 108.318 335.826 108.377 335.513 108.429C335.205 108.476 334.905 108.519 334.611 108.557C334.322 108.59 334.088 108.618 333.908 108.642C333.472 108.699 333.065 108.791 332.686 108.919C332.312 109.042 332.009 109.229 331.777 109.48C331.55 109.726 331.436 110.062 331.436 110.489C331.436 111.071 331.652 111.511 332.083 111.81C332.518 112.103 333.07 112.25 333.737 112.25ZM345.66 113.727C344.751 113.727 343.949 113.498 343.253 113.038C342.557 112.574 342.012 111.921 341.619 111.078C341.226 110.231 341.03 109.229 341.03 108.074C341.03 106.928 341.226 105.934 341.619 105.091C342.012 104.248 342.559 103.597 343.26 103.138C343.961 102.679 344.77 102.449 345.689 102.449C346.399 102.449 346.96 102.567 347.372 102.804C347.789 103.036 348.106 103.301 348.324 103.599C348.546 103.893 348.719 104.134 348.842 104.324H348.984V98.9545H350.66V113.5H349.041V111.824H348.842C348.719 112.023 348.544 112.274 348.317 112.577C348.089 112.875 347.765 113.143 347.344 113.379C346.922 113.611 346.361 113.727 345.66 113.727ZM345.888 112.222C346.56 112.222 347.128 112.046 347.592 111.696C348.056 111.341 348.409 110.851 348.65 110.226C348.892 109.596 349.013 108.869 349.013 108.045C349.013 107.231 348.894 106.518 348.658 105.908C348.421 105.292 348.07 104.814 347.606 104.473C347.142 104.127 346.569 103.955 345.888 103.955C345.177 103.955 344.586 104.137 344.112 104.501C343.643 104.861 343.291 105.351 343.054 105.972C342.822 106.587 342.706 107.278 342.706 108.045C342.706 108.822 342.824 109.527 343.061 110.162C343.302 110.792 343.658 111.294 344.126 111.668C344.6 112.037 345.187 112.222 345.888 112.222ZM355.043 117.591C354.758 117.591 354.505 117.567 354.283 117.52C354.06 117.477 353.906 117.435 353.821 117.392L354.247 115.915C354.654 116.019 355.014 116.057 355.327 116.028C355.639 116 355.916 115.86 356.158 115.609C356.404 115.363 356.629 114.963 356.832 114.409L357.145 113.557L353.111 102.591H354.929L357.94 111.284H358.054L361.065 102.591H362.883L358.253 115.091C358.044 115.654 357.786 116.121 357.479 116.49C357.171 116.864 356.813 117.141 356.406 117.321C356.004 117.501 355.549 117.591 355.043 117.591Z" fill="#F4F4F4"/>
<path d="M311.467 132.955H313.398L315.018 135.085L315.444 135.653L317.859 138.864H315.927L314.336 136.733L313.938 136.193L311.467 132.955ZM318.455 130.227C318.455 131.761 318.178 133.087 317.624 134.205C317.07 135.322 316.31 136.184 315.344 136.79C314.378 137.396 313.275 137.699 312.035 137.699C310.794 137.699 309.691 137.396 308.725 136.79C307.759 136.184 306.999 135.322 306.445 134.205C305.891 133.087 305.614 131.761 305.614 130.227C305.614 128.693 305.891 127.367 306.445 126.25C306.999 125.133 307.759 124.271 308.725 123.665C309.691 123.059 310.794 122.756 312.035 122.756C313.275 122.756 314.378 123.059 315.344 123.665C316.31 124.271 317.07 125.133 317.624 126.25C318.178 127.367 318.455 128.693 318.455 130.227ZM316.751 130.227C316.751 128.968 316.54 127.905 316.118 127.038C315.702 126.172 315.136 125.516 314.421 125.071C313.711 124.626 312.915 124.403 312.035 124.403C311.154 124.403 310.356 124.626 309.641 125.071C308.931 125.516 308.365 126.172 307.944 127.038C307.527 127.905 307.319 128.968 307.319 130.227C307.319 131.487 307.527 132.55 307.944 133.416C308.365 134.283 308.931 134.938 309.641 135.384C310.356 135.829 311.154 136.051 312.035 136.051C312.915 136.051 313.711 135.829 314.421 135.384C315.136 134.938 315.702 134.283 316.118 133.416C316.54 132.55 316.751 131.487 316.751 130.227ZM328.065 133.04V126.591H329.741V137.5H328.065V135.653H327.951C327.695 136.207 327.297 136.679 326.758 137.067C326.218 137.45 325.536 137.642 324.712 137.642C324.03 137.642 323.424 137.493 322.894 137.195C322.364 136.892 321.947 136.437 321.644 135.831C321.341 135.22 321.19 134.451 321.19 133.523V126.591H322.866V133.409C322.866 134.205 323.088 134.839 323.533 135.312C323.983 135.786 324.556 136.023 325.252 136.023C325.669 136.023 326.092 135.916 326.523 135.703C326.959 135.49 327.324 135.163 327.617 134.723C327.915 134.283 328.065 133.722 328.065 133.04ZM337.384 137.727C336.333 137.727 335.427 137.495 334.664 137.031C333.907 136.562 333.322 135.909 332.91 135.071C332.503 134.228 332.299 133.248 332.299 132.131C332.299 131.013 332.503 130.028 332.91 129.176C333.322 128.319 333.895 127.652 334.629 127.173C335.367 126.69 336.229 126.449 337.214 126.449C337.782 126.449 338.343 126.544 338.897 126.733C339.451 126.922 339.955 127.23 340.41 127.656C340.865 128.078 341.227 128.636 341.497 129.332C341.767 130.028 341.902 130.885 341.902 131.903V132.614H333.492V131.165H340.197C340.197 130.549 340.074 130 339.828 129.517C339.586 129.034 339.241 128.653 338.791 128.374C338.346 128.094 337.82 127.955 337.214 127.955C336.546 127.955 335.969 128.12 335.481 128.452C334.998 128.778 334.626 129.205 334.366 129.73C334.106 130.256 333.975 130.819 333.975 131.42V132.386C333.975 133.21 334.117 133.909 334.402 134.482C334.69 135.05 335.09 135.483 335.602 135.781C336.113 136.075 336.707 136.222 337.384 136.222C337.825 136.222 338.223 136.16 338.578 136.037C338.938 135.909 339.248 135.72 339.508 135.469C339.768 135.213 339.97 134.896 340.112 134.517L341.731 134.972C341.561 135.521 341.274 136.004 340.872 136.42C340.469 136.832 339.972 137.154 339.38 137.386C338.788 137.614 338.123 137.727 337.384 137.727ZM351.326 133.04V126.591H353.002V137.5H351.326V135.653H351.213C350.957 136.207 350.559 136.679 350.019 137.067C349.48 137.45 348.798 137.642 347.974 137.642C347.292 137.642 346.686 137.493 346.156 137.195C345.625 136.892 345.209 136.437 344.906 135.831C344.603 135.22 344.451 134.451 344.451 133.523V126.591H346.127V133.409C346.127 134.205 346.35 134.839 346.795 135.312C347.245 135.786 347.818 136.023 348.514 136.023C348.93 136.023 349.354 135.916 349.785 135.703C350.221 135.49 350.585 135.163 350.879 134.723C351.177 134.283 351.326 133.722 351.326 133.04ZM360.646 137.727C359.595 137.727 358.688 137.495 357.926 137.031C357.168 136.562 356.584 135.909 356.172 135.071C355.765 134.228 355.561 133.248 355.561 132.131C355.561 131.013 355.765 130.028 356.172 129.176C356.584 128.319 357.157 127.652 357.891 127.173C358.629 126.69 359.491 126.449 360.476 126.449C361.044 126.449 361.605 126.544 362.159 126.733C362.713 126.922 363.217 127.23 363.672 127.656C364.126 128.078 364.489 128.636 364.758 129.332C365.028 130.028 365.163 130.885 365.163 131.903V132.614H356.754V131.165H363.459C363.459 130.549 363.336 130 363.089 129.517C362.848 129.034 362.502 128.653 362.052 128.374C361.607 128.094 361.082 127.955 360.476 127.955C359.808 127.955 359.23 128.12 358.743 128.452C358.26 128.778 357.888 129.205 357.628 129.73C357.367 130.256 357.237 130.819 357.237 131.42V132.386C357.237 133.21 357.379 133.909 357.663 134.482C357.952 135.05 358.352 135.483 358.864 135.781C359.375 136.075 359.969 136.222 360.646 136.222C361.087 136.222 361.484 136.16 361.839 136.037C362.199 135.909 362.509 135.72 362.77 135.469C363.03 135.213 363.231 134.896 363.373 134.517L364.993 134.972C364.822 135.521 364.536 136.004 364.133 136.42C363.731 136.832 363.234 137.154 362.642 137.386C362.05 137.614 361.385 137.727 360.646 137.727Z" fill="#F4F4F4"/>
<path d="M10.137 102.591C10.0517 101.871 9.70609 101.312 9.10003 100.915C8.49397 100.517 7.7506 100.318 6.86991 100.318C6.22598 100.318 5.66253 100.422 5.17957 100.631C4.70135 100.839 4.3273 101.125 4.05741 101.49C3.79226 101.855 3.65969 102.269 3.65969 102.733C3.65969 103.121 3.75202 103.455 3.93668 103.734C4.12607 104.009 4.36755 104.239 4.66111 104.423C4.95467 104.603 5.26243 104.752 5.5844 104.871C5.90637 104.984 6.2023 105.077 6.47219 105.148L7.94946 105.545C8.32825 105.645 8.74965 105.782 9.21366 105.957C9.68241 106.133 10.1299 106.372 10.556 106.675C10.9869 106.973 11.342 107.357 11.6213 107.825C11.9007 108.294 12.0404 108.869 12.0404 109.551C12.0404 110.337 11.8344 111.047 11.4225 111.682C11.0153 112.316 10.4187 112.821 9.6327 113.195C8.85145 113.569 7.90211 113.756 6.78469 113.756C5.74302 113.756 4.84103 113.588 4.07872 113.251C3.32115 112.915 2.72455 112.446 2.28895 111.845C1.85808 111.244 1.61423 110.545 1.55741 109.75H3.3756C3.42294 110.299 3.6076 110.754 3.92957 111.114C4.25628 111.469 4.66821 111.734 5.16537 111.909C5.66726 112.08 6.20704 112.165 6.78469 112.165C7.45704 112.165 8.06073 112.056 8.59577 111.838C9.13081 111.616 9.55457 111.308 9.86707 110.915C10.1796 110.517 10.3358 110.053 10.3358 109.523C10.3358 109.04 10.2009 108.647 9.93099 108.344C9.66111 108.041 9.30599 107.795 8.86565 107.605C8.42531 107.416 7.94946 107.25 7.4381 107.108L5.64832 106.597C4.51196 106.27 3.61234 105.804 2.94946 105.197C2.28658 104.591 1.95514 103.798 1.95514 102.818C1.95514 102.004 2.17531 101.294 2.61565 100.688C3.06073 100.077 3.65732 99.6032 4.40543 99.267C5.15827 98.9261 5.9987 98.7557 6.92673 98.7557C7.86423 98.7557 8.69757 98.9238 9.42673 99.2599C10.1559 99.5914 10.7336 100.046 11.1597 100.624C11.5906 101.201 11.8178 101.857 11.8415 102.591H10.137ZM19.4534 102.591V104.011H13.8V102.591H19.4534ZM15.4477 99.9773H17.1238V110.375C17.1238 110.848 17.1925 111.204 17.3298 111.44C17.4718 111.672 17.6518 111.829 17.8696 111.909C18.0921 111.985 18.3265 112.023 18.5727 112.023C18.7573 112.023 18.9089 112.013 19.0272 111.994C19.1456 111.971 19.2403 111.952 19.3113 111.938L19.6522 113.443C19.5386 113.486 19.38 113.528 19.1764 113.571C18.9728 113.618 18.7147 113.642 18.4022 113.642C17.9287 113.642 17.4647 113.54 17.0102 113.337C16.5604 113.133 16.1863 112.823 15.888 112.406C15.5945 111.99 15.4477 111.464 15.4477 110.83V99.9773ZM25.1849 113.756C24.4936 113.756 23.8662 113.625 23.3028 113.365C22.7394 113.1 22.2919 112.719 21.9605 112.222C21.629 111.72 21.4633 111.114 21.4633 110.403C21.4633 109.778 21.5864 109.272 21.8326 108.884C22.0788 108.491 22.4079 108.183 22.8198 107.96C23.2318 107.738 23.6863 107.572 24.1835 107.463C24.6854 107.349 25.1896 107.259 25.6963 107.193C26.3591 107.108 26.8965 107.044 27.3085 107.001C27.7251 106.954 28.0282 106.876 28.2176 106.767C28.4117 106.658 28.5088 106.469 28.5088 106.199V106.142C28.5088 105.441 28.317 104.897 27.9335 104.509C27.5547 104.12 26.9794 103.926 26.2076 103.926C25.4074 103.926 24.7801 104.101 24.3255 104.452C23.871 104.802 23.5514 105.176 23.3667 105.574L21.7758 105.006C22.0599 104.343 22.4387 103.827 22.9122 103.457C23.3904 103.083 23.9112 102.823 24.4747 102.676C25.0429 102.525 25.6016 102.449 26.1508 102.449C26.5012 102.449 26.9037 102.491 27.3582 102.577C27.8175 102.657 28.2602 102.825 28.6863 103.081C29.1172 103.337 29.4747 103.723 29.7588 104.239C30.0429 104.755 30.1849 105.446 30.1849 106.312V113.5H28.5088V112.023H28.4235C28.3099 112.259 28.1205 112.513 27.8554 112.783C27.5902 113.053 27.2375 113.282 26.7971 113.472C26.3568 113.661 25.8194 113.756 25.1849 113.756ZM25.4406 112.25C26.1035 112.25 26.6622 112.12 27.1167 111.859C27.576 111.599 27.9216 111.263 28.1537 110.851C28.3904 110.439 28.5088 110.006 28.5088 109.551V108.017C28.4377 108.102 28.2815 108.18 28.04 108.251C27.8033 108.318 27.5287 108.377 27.2162 108.429C26.9084 108.476 26.6077 108.519 26.3142 108.557C26.0253 108.59 25.791 108.618 25.611 108.642C25.1754 108.699 24.7682 108.791 24.3894 108.919C24.0154 109.042 23.7124 109.229 23.4804 109.48C23.2531 109.726 23.1394 110.062 23.1394 110.489C23.1394 111.071 23.3549 111.511 23.7858 111.81C24.2214 112.103 24.773 112.25 25.4406 112.25ZM33.2442 113.5V102.591H34.8635V104.239H34.9772C35.176 103.699 35.5359 103.261 36.0567 102.925C36.5775 102.589 37.1647 102.42 37.8181 102.42C37.9412 102.42 38.0951 102.423 38.2797 102.428C38.4644 102.432 38.6041 102.439 38.6988 102.449V104.153C38.6419 104.139 38.5117 104.118 38.3081 104.089C38.1093 104.056 37.8986 104.04 37.676 104.04C37.1457 104.04 36.6722 104.151 36.2556 104.374C35.8436 104.591 35.5169 104.894 35.2755 105.283C35.0387 105.666 34.9203 106.104 34.9203 106.597V113.5H33.2442ZM46.1135 102.591V104.011H40.4601V102.591H46.1135ZM42.1078 99.9773H43.784V110.375C43.784 110.848 43.8526 111.204 43.9899 111.44C44.132 111.672 44.3119 111.829 44.5297 111.909C44.7523 111.985 44.9866 112.023 45.2328 112.023C45.4175 112.023 45.569 112.013 45.6874 111.994C45.8058 111.971 45.9005 111.952 45.9715 111.938L46.3124 113.443C46.1987 113.486 46.0401 113.528 45.8365 113.571C45.6329 113.618 45.3749 113.642 45.0624 113.642C44.5889 113.642 44.1249 113.54 43.6703 113.337C43.2205 113.133 42.8465 112.823 42.5482 112.406C42.2546 111.99 42.1078 111.464 42.1078 110.83V99.9773Z" fill="#F4F4F4"/>
<path d="M118.779 101.5H116.932L122.273 86.9545H124.092L129.432 101.5H127.586L123.239 89.2557H123.126L118.779 101.5ZM119.461 95.8182H126.904V97.3807H119.461V95.8182ZM139.198 93.0341L137.692 93.4602C137.598 93.2093 137.458 92.9654 137.273 92.7287C137.093 92.4872 136.847 92.2884 136.535 92.1321C136.222 91.9759 135.822 91.8977 135.334 91.8977C134.667 91.8977 134.11 92.0516 133.665 92.3594C133.225 92.6624 133.005 93.0483 133.005 93.517C133.005 93.9337 133.156 94.2628 133.459 94.5043C133.762 94.7457 134.236 94.947 134.88 95.108L136.499 95.5057C137.475 95.7424 138.201 96.1046 138.68 96.5923C139.158 97.0753 139.397 97.6979 139.397 98.4602C139.397 99.0852 139.217 99.6439 138.857 100.136C138.502 100.629 138.005 101.017 137.366 101.301C136.726 101.585 135.983 101.727 135.136 101.727C134.023 101.727 133.102 101.486 132.373 101.003C131.644 100.52 131.182 99.8144 130.988 98.8864L132.579 98.4886C132.73 99.0758 133.017 99.5161 133.438 99.8097C133.864 100.103 134.421 100.25 135.107 100.25C135.888 100.25 136.509 100.084 136.968 99.7528C137.432 99.4167 137.664 99.0142 137.664 98.5455C137.664 98.1667 137.531 97.8494 137.266 97.5938C137.001 97.3333 136.594 97.1392 136.045 97.0114L134.226 96.5852C133.227 96.3485 132.493 95.9815 132.025 95.4844C131.561 94.9825 131.329 94.3551 131.329 93.6023C131.329 92.9867 131.502 92.4422 131.847 91.9688C132.198 91.4953 132.673 91.1236 133.275 90.8537C133.881 90.5838 134.567 90.4489 135.334 90.4489C136.414 90.4489 137.261 90.6856 137.877 91.1591C138.497 91.6326 138.938 92.2576 139.198 93.0341ZM149.647 93.0341L148.142 93.4602C148.047 93.2093 147.907 92.9654 147.723 92.7287C147.543 92.4872 147.296 92.2884 146.984 92.1321C146.671 91.9759 146.271 91.8977 145.784 91.8977C145.116 91.8977 144.56 92.0516 144.115 92.3594C143.674 92.6624 143.454 93.0483 143.454 93.517C143.454 93.9337 143.606 94.2628 143.909 94.5043C144.212 94.7457 144.685 94.947 145.329 95.108L146.948 95.5057C147.924 95.7424 148.651 96.1046 149.129 96.5923C149.607 97.0753 149.846 97.6979 149.846 98.4602C149.846 99.0852 149.666 99.6439 149.306 100.136C148.951 100.629 148.454 101.017 147.815 101.301C147.176 101.585 146.432 101.727 145.585 101.727C144.472 101.727 143.551 101.486 142.822 101.003C142.093 100.52 141.631 99.8144 141.437 98.8864L143.028 98.4886C143.179 99.0758 143.466 99.5161 143.887 99.8097C144.313 100.103 144.87 100.25 145.556 100.25C146.338 100.25 146.958 100.084 147.417 99.7528C147.881 99.4167 148.113 99.0142 148.113 98.5455C148.113 98.1667 147.981 97.8494 147.715 97.5938C147.45 97.3333 147.043 97.1392 146.494 97.0114L144.676 96.5852C143.677 96.3485 142.943 95.9815 142.474 95.4844C142.01 94.9825 141.778 94.3551 141.778 93.6023C141.778 92.9867 141.951 92.4422 142.296 91.9688C142.647 91.4953 143.123 91.1236 143.724 90.8537C144.33 90.5838 145.017 90.4489 145.784 90.4489C146.863 90.4489 147.711 90.6856 148.326 91.1591C148.947 91.6326 149.387 92.2576 149.647 93.0341ZM152.369 101.5V90.5909H154.045V101.5H152.369ZM153.221 88.7727C152.895 88.7727 152.613 88.6615 152.376 88.4389C152.144 88.2164 152.028 87.9489 152.028 87.6364C152.028 87.3239 152.144 87.0563 152.376 86.8338C152.613 86.6113 152.895 86.5 153.221 86.5C153.548 86.5 153.828 86.6113 154.06 86.8338C154.296 87.0563 154.415 87.3239 154.415 87.6364C154.415 87.9489 154.296 88.2164 154.06 88.4389C153.828 88.6615 153.548 88.7727 153.221 88.7727ZM161.519 105.818C160.709 105.818 160.013 105.714 159.431 105.506C158.848 105.302 158.363 105.032 157.975 104.696C157.591 104.365 157.286 104.009 157.058 103.631L158.394 102.693C158.545 102.892 158.737 103.119 158.969 103.375C159.201 103.635 159.518 103.86 159.921 104.05C160.328 104.244 160.861 104.341 161.519 104.341C162.399 104.341 163.126 104.128 163.699 103.702C164.272 103.276 164.558 102.608 164.558 101.699V99.483H164.416C164.293 99.6818 164.118 99.928 163.891 100.222C163.668 100.51 163.346 100.768 162.925 100.996C162.508 101.218 161.945 101.33 161.235 101.33C160.354 101.33 159.563 101.121 158.862 100.705C158.166 100.288 157.615 99.6818 157.208 98.8864C156.805 98.0909 156.604 97.125 156.604 95.9886C156.604 94.8712 156.8 93.8982 157.193 93.0696C157.586 92.2363 158.133 91.5923 158.834 91.1378C159.535 90.6785 160.344 90.4489 161.263 90.4489C161.973 90.4489 162.537 90.5672 162.953 90.804C163.375 91.036 163.697 91.3011 163.919 91.5994C164.147 91.893 164.322 92.1345 164.445 92.3239H164.615V90.5909H166.235V101.812C166.235 102.75 166.022 103.512 165.595 104.099C165.174 104.691 164.606 105.125 163.891 105.399C163.181 105.679 162.39 105.818 161.519 105.818ZM161.462 99.8239C162.134 99.8239 162.702 99.67 163.166 99.3622C163.63 99.0545 163.983 98.6117 164.225 98.0341C164.466 97.4564 164.587 96.7652 164.587 95.9602C164.587 95.1742 164.469 94.4806 164.232 93.8793C163.995 93.2779 163.645 92.8068 163.181 92.4659C162.717 92.125 162.144 91.9545 161.462 91.9545C160.752 91.9545 160.16 92.1345 159.686 92.4943C159.218 92.8542 158.865 93.3371 158.628 93.9432C158.396 94.5492 158.28 95.2216 158.28 95.9602C158.28 96.7178 158.398 97.3878 158.635 97.9702C158.877 98.5478 159.232 99.0024 159.701 99.3338C160.174 99.6605 160.761 99.8239 161.462 99.8239ZM170.979 94.9375V101.5H169.303V90.5909H170.922V92.2955H171.064C171.32 91.7415 171.708 91.2964 172.229 90.9602C172.75 90.6193 173.422 90.4489 174.246 90.4489C174.985 90.4489 175.631 90.6004 176.185 90.9034C176.739 91.2017 177.17 91.6562 177.478 92.267C177.785 92.8731 177.939 93.6402 177.939 94.5682V101.5H176.263V94.6818C176.263 93.8248 176.04 93.1572 175.595 92.679C175.15 92.196 174.54 91.9545 173.763 91.9545C173.228 91.9545 172.75 92.0705 172.328 92.3026C171.912 92.5346 171.583 92.8731 171.341 93.3182C171.1 93.7633 170.979 94.303 170.979 94.9375ZM186.059 88.517V86.9545H196.968V88.517H192.394V101.5H190.633V88.517H186.059ZM199.459 101.5V90.5909H201.135V101.5H199.459ZM200.311 88.7727C199.985 88.7727 199.703 88.6615 199.466 88.4389C199.234 88.2164 199.118 87.9489 199.118 87.6364C199.118 87.3239 199.234 87.0563 199.466 86.8338C199.703 86.6113 199.985 86.5 200.311 86.5C200.638 86.5 200.917 86.6113 201.149 86.8338C201.386 87.0563 201.505 87.3239 201.505 87.6364C201.505 87.9489 201.386 88.2164 201.149 88.4389C200.917 88.6615 200.638 88.7727 200.311 88.7727ZM204.205 101.5V90.5909H205.824V92.2955H205.967C206.194 91.7131 206.561 91.2609 207.067 90.9389C207.574 90.6122 208.182 90.4489 208.893 90.4489C209.612 90.4489 210.211 90.6122 210.69 90.9389C211.172 91.2609 211.549 91.7131 211.819 92.2955H211.932C212.212 91.732 212.631 91.2846 213.19 90.9531C213.748 90.617 214.418 90.4489 215.199 90.4489C216.175 90.4489 216.973 90.7543 217.593 91.3651C218.213 91.9711 218.523 92.9157 218.523 94.1989V101.5H216.847V94.1989C216.847 93.3939 216.627 92.8187 216.187 92.473C215.746 92.1274 215.228 91.9545 214.631 91.9545C213.864 91.9545 213.27 92.1866 212.849 92.6506C212.427 93.1098 212.217 93.6922 212.217 94.3977V101.5H210.512V94.0284C210.512 93.4081 210.311 92.9086 209.908 92.5298C209.506 92.1463 208.987 91.9545 208.353 91.9545C207.917 91.9545 207.51 92.0705 207.131 92.3026C206.757 92.5346 206.454 92.8565 206.222 93.2685C205.995 93.6757 205.881 94.1468 205.881 94.6818V101.5H204.205ZM226.162 101.727C225.111 101.727 224.204 101.495 223.442 101.031C222.684 100.562 222.099 99.9091 221.687 99.071C221.28 98.2282 221.077 97.2481 221.077 96.1307C221.077 95.0133 221.28 94.0284 221.687 93.1761C222.099 92.3191 222.672 91.6515 223.406 91.1733C224.145 90.6903 225.007 90.4489 225.991 90.4489C226.56 90.4489 227.121 90.5436 227.675 90.733C228.229 90.9223 228.733 91.2301 229.187 91.6562C229.642 92.0777 230.004 92.6364 230.274 93.3324C230.544 94.0284 230.679 94.8854 230.679 95.9034V96.6136H222.27V95.1648H228.974C228.974 94.5492 228.851 94 228.605 93.517C228.364 93.0341 228.018 92.6529 227.568 92.3736C227.123 92.0942 226.597 91.9545 225.991 91.9545C225.324 91.9545 224.746 92.1203 224.258 92.4517C223.775 92.7784 223.404 93.2045 223.143 93.7301C222.883 94.2557 222.753 94.8191 222.753 95.4205V96.3864C222.753 97.2102 222.895 97.9086 223.179 98.4815C223.468 99.0497 223.868 99.483 224.379 99.7812C224.891 100.075 225.485 100.222 226.162 100.222C226.602 100.222 227 100.16 227.355 100.037C227.715 99.9091 228.025 99.7197 228.285 99.4688C228.546 99.2131 228.747 98.8958 228.889 98.517L230.508 98.9716C230.338 99.5208 230.051 100.004 229.649 100.42C229.247 100.832 228.749 101.154 228.158 101.386C227.566 101.614 226.9 101.727 226.162 101.727Z" fill="#F4F4F4"/>
<path d="M123.467 120.955H125.398L127.018 123.085L127.444 123.653L129.859 126.864H127.927L126.336 124.733L125.938 124.193L123.467 120.955ZM130.455 118.227C130.455 119.761 130.178 121.087 129.624 122.205C129.07 123.322 128.31 124.184 127.344 124.79C126.378 125.396 125.275 125.699 124.035 125.699C122.794 125.699 121.691 125.396 120.725 124.79C119.759 124.184 118.999 123.322 118.445 122.205C117.891 121.087 117.614 119.761 117.614 118.227C117.614 116.693 117.891 115.367 118.445 114.25C118.999 113.133 119.759 112.271 120.725 111.665C121.691 111.059 122.794 110.756 124.035 110.756C125.275 110.756 126.378 111.059 127.344 111.665C128.31 112.271 129.07 113.133 129.624 114.25C130.178 115.367 130.455 116.693 130.455 118.227ZM128.751 118.227C128.751 116.968 128.54 115.905 128.118 115.038C127.702 114.172 127.136 113.516 126.421 113.071C125.711 112.626 124.915 112.403 124.035 112.403C123.154 112.403 122.356 112.626 121.641 113.071C120.931 113.516 120.365 114.172 119.944 115.038C119.527 115.905 119.319 116.968 119.319 118.227C119.319 119.487 119.527 120.55 119.944 121.416C120.365 122.283 120.931 122.938 121.641 123.384C122.356 123.829 123.154 124.051 124.035 124.051C124.915 124.051 125.711 123.829 126.421 123.384C127.136 122.938 127.702 122.283 128.118 121.416C128.54 120.55 128.751 119.487 128.751 118.227ZM140.065 121.04V114.591H141.741V125.5H140.065V123.653H139.951C139.695 124.207 139.297 124.679 138.758 125.067C138.218 125.45 137.536 125.642 136.712 125.642C136.03 125.642 135.424 125.493 134.894 125.195C134.364 124.892 133.947 124.437 133.644 123.831C133.341 123.22 133.19 122.451 133.19 121.523V114.591H134.866V121.409C134.866 122.205 135.088 122.839 135.533 123.312C135.983 123.786 136.556 124.023 137.252 124.023C137.669 124.023 138.092 123.916 138.523 123.703C138.959 123.49 139.324 123.163 139.617 122.723C139.915 122.283 140.065 121.722 140.065 121.04ZM148.021 125.756C147.33 125.756 146.702 125.625 146.139 125.365C145.575 125.1 145.128 124.719 144.796 124.222C144.465 123.72 144.299 123.114 144.299 122.403C144.299 121.778 144.422 121.272 144.669 120.884C144.915 120.491 145.244 120.183 145.656 119.96C146.068 119.738 146.522 119.572 147.019 119.463C147.521 119.349 148.026 119.259 148.532 119.193C149.195 119.108 149.732 119.044 150.144 119.001C150.561 118.954 150.864 118.876 151.054 118.767C151.248 118.658 151.345 118.469 151.345 118.199V118.142C151.345 117.441 151.153 116.897 150.769 116.509C150.391 116.12 149.815 115.926 149.044 115.926C148.243 115.926 147.616 116.101 147.161 116.452C146.707 116.802 146.387 117.176 146.203 117.574L144.612 117.006C144.896 116.343 145.275 115.827 145.748 115.457C146.226 115.083 146.747 114.823 147.311 114.676C147.879 114.525 148.438 114.449 148.987 114.449C149.337 114.449 149.74 114.491 150.194 114.577C150.653 114.657 151.096 114.825 151.522 115.081C151.953 115.337 152.311 115.723 152.595 116.239C152.879 116.755 153.021 117.446 153.021 118.312V125.5H151.345V124.023H151.259C151.146 124.259 150.956 124.513 150.691 124.783C150.426 125.053 150.073 125.282 149.633 125.472C149.193 125.661 148.655 125.756 148.021 125.756ZM148.277 124.25C148.939 124.25 149.498 124.12 149.953 123.859C150.412 123.599 150.758 123.263 150.99 122.851C151.226 122.439 151.345 122.006 151.345 121.551V120.017C151.274 120.102 151.117 120.18 150.876 120.251C150.639 120.318 150.365 120.377 150.052 120.429C149.744 120.476 149.444 120.519 149.15 120.557C148.861 120.59 148.627 120.618 148.447 120.642C148.011 120.699 147.604 120.791 147.225 120.919C146.851 121.042 146.548 121.229 146.316 121.48C146.089 121.726 145.975 122.062 145.975 122.489C145.975 123.071 146.191 123.511 146.622 123.81C147.057 124.103 147.609 124.25 148.277 124.25ZM157.756 118.938V125.5H156.08V114.591H157.699V116.295H157.842C158.097 115.741 158.485 115.296 159.006 114.96C159.527 114.619 160.199 114.449 161.023 114.449C161.762 114.449 162.408 114.6 162.962 114.903C163.516 115.202 163.947 115.656 164.255 116.267C164.563 116.873 164.717 117.64 164.717 118.568V125.5H163.04V118.682C163.04 117.825 162.818 117.157 162.373 116.679C161.928 116.196 161.317 115.955 160.54 115.955C160.005 115.955 159.527 116.071 159.106 116.303C158.689 116.535 158.36 116.873 158.118 117.318C157.877 117.763 157.756 118.303 157.756 118.938ZM172.524 114.591V116.011H166.87V114.591H172.524ZM168.518 111.977H170.194V122.375C170.194 122.848 170.263 123.204 170.4 123.44C170.542 123.672 170.722 123.829 170.94 123.909C171.162 123.985 171.397 124.023 171.643 124.023C171.828 124.023 171.979 124.013 172.098 123.994C172.216 123.971 172.311 123.952 172.382 123.938L172.723 125.443C172.609 125.486 172.45 125.528 172.247 125.571C172.043 125.618 171.785 125.642 171.473 125.642C170.999 125.642 170.535 125.54 170.08 125.337C169.631 125.133 169.257 124.823 168.958 124.406C168.665 123.99 168.518 123.464 168.518 122.83V111.977ZM181.92 121.04V114.591H183.596V125.5H181.92V123.653H181.806C181.551 124.207 181.153 124.679 180.613 125.067C180.073 125.45 179.392 125.642 178.568 125.642C177.886 125.642 177.28 125.493 176.75 125.195C176.219 124.892 175.803 124.437 175.5 123.831C175.197 123.22 175.045 122.451 175.045 121.523V114.591H176.721V121.409C176.721 122.205 176.944 122.839 177.389 123.312C177.839 123.786 178.411 124.023 179.107 124.023C179.524 124.023 179.948 123.916 180.379 123.703C180.814 123.49 181.179 123.163 181.473 122.723C181.771 122.283 181.92 121.722 181.92 121.04ZM186.666 125.5V114.591H188.285V116.295H188.427C188.655 115.713 189.022 115.261 189.528 114.939C190.035 114.612 190.643 114.449 191.354 114.449C192.073 114.449 192.672 114.612 193.15 114.939C193.633 115.261 194.01 115.713 194.28 116.295H194.393C194.673 115.732 195.092 115.285 195.65 114.953C196.209 114.617 196.879 114.449 197.66 114.449C198.636 114.449 199.434 114.754 200.054 115.365C200.674 115.971 200.984 116.916 200.984 118.199V125.5H199.308V118.199C199.308 117.394 199.088 116.819 198.648 116.473C198.207 116.127 197.689 115.955 197.092 115.955C196.325 115.955 195.731 116.187 195.31 116.651C194.888 117.11 194.677 117.692 194.677 118.398V125.5H192.973V118.028C192.973 117.408 192.772 116.909 192.369 116.53C191.967 116.146 191.448 115.955 190.814 115.955C190.378 115.955 189.971 116.071 189.592 116.303C189.218 116.535 188.915 116.857 188.683 117.268C188.456 117.676 188.342 118.147 188.342 118.682V125.5H186.666Z" fill="#F4F4F4"/>
<path d="M470.182 101.5V86.9545H475.097C476.238 86.9545 477.171 87.1605 477.895 87.5724C478.625 87.9796 479.164 88.5312 479.515 89.2273C479.865 89.9233 480.04 90.6998 480.04 91.5568C480.04 92.4138 479.865 93.1927 479.515 93.8935C479.169 94.5942 478.634 95.1529 477.91 95.5696C477.185 95.9815 476.257 96.1875 475.126 96.1875H471.603V94.625H475.069C475.85 94.625 476.477 94.4901 476.951 94.2202C477.424 93.9503 477.768 93.5857 477.981 93.1264C478.198 92.6624 478.307 92.1392 478.307 91.5568C478.307 90.9744 478.198 90.4536 477.981 89.9943C477.768 89.535 477.422 89.1752 476.944 88.9148C476.466 88.6496 475.831 88.517 475.04 88.517H471.944V101.5H470.182ZM482.65 101.5V90.5909H484.27V92.2386H484.383C484.582 91.6989 484.942 91.2609 485.463 90.9247C485.984 90.5885 486.571 90.4205 487.224 90.4205C487.347 90.4205 487.501 90.4228 487.686 90.4276C487.871 90.4323 488.01 90.4394 488.105 90.4489V92.1534C488.048 92.1392 487.918 92.1179 487.714 92.0895C487.515 92.0563 487.305 92.0398 487.082 92.0398C486.552 92.0398 486.078 92.151 485.662 92.3736C485.25 92.5914 484.923 92.8944 484.682 93.2827C484.445 93.6662 484.327 94.1042 484.327 94.5966V101.5H482.65ZM494.192 101.727C493.207 101.727 492.343 101.493 491.599 101.024C490.861 100.555 490.283 99.8996 489.866 99.0568C489.454 98.214 489.248 97.2292 489.248 96.1023C489.248 94.9659 489.454 93.974 489.866 93.1264C490.283 92.2789 490.861 91.6207 491.599 91.152C492.343 90.6832 493.207 90.4489 494.192 90.4489C495.176 90.4489 496.038 90.6832 496.777 91.152C497.52 91.6207 498.098 92.2789 498.51 93.1264C498.926 93.974 499.135 94.9659 499.135 96.1023C499.135 97.2292 498.926 98.214 498.51 99.0568C498.098 99.8996 497.52 100.555 496.777 101.024C496.038 101.493 495.176 101.727 494.192 101.727ZM494.192 100.222C494.94 100.222 495.555 100.03 496.038 99.6463C496.521 99.2628 496.879 98.7585 497.111 98.1335C497.343 97.5085 497.459 96.8314 497.459 96.1023C497.459 95.3731 497.343 94.6937 497.111 94.0639C496.879 93.4342 496.521 92.9252 496.038 92.5369C495.555 92.1487 494.94 91.9545 494.192 91.9545C493.444 91.9545 492.828 92.1487 492.345 92.5369C491.862 92.9252 491.505 93.4342 491.273 94.0639C491.041 94.6937 490.925 95.3731 490.925 96.1023C490.925 96.8314 491.041 97.5085 491.273 98.1335C491.505 98.7585 491.862 99.2628 492.345 99.6463C492.828 100.03 493.444 100.222 494.192 100.222ZM506.125 101.727C505.102 101.727 504.222 101.486 503.483 101.003C502.745 100.52 502.176 99.8546 501.779 99.0071C501.381 98.1596 501.182 97.1913 501.182 96.1023C501.182 94.9943 501.386 94.0166 501.793 93.169C502.205 92.3168 502.778 91.6515 503.512 91.1733C504.25 90.6903 505.112 90.4489 506.097 90.4489C506.864 90.4489 507.555 90.5909 508.171 90.875C508.786 91.1591 509.29 91.5568 509.683 92.0682C510.076 92.5795 510.32 93.1761 510.415 93.858H508.739C508.611 93.3608 508.327 92.9205 507.887 92.5369C507.451 92.1487 506.864 91.9545 506.125 91.9545C505.472 91.9545 504.899 92.125 504.406 92.4659C503.919 92.8021 503.538 93.2779 503.263 93.8935C502.993 94.5043 502.858 95.2216 502.858 96.0455C502.858 96.8883 502.991 97.6222 503.256 98.2472C503.526 98.8722 503.905 99.3575 504.392 99.7031C504.885 100.049 505.462 100.222 506.125 100.222C506.561 100.222 506.956 100.146 507.311 99.9943C507.666 99.8428 507.967 99.625 508.213 99.3409C508.459 99.0568 508.635 98.7159 508.739 98.3182H510.415C510.32 98.9621 510.086 99.5421 509.712 100.058C509.343 100.57 508.852 100.977 508.242 101.28C507.636 101.578 506.93 101.727 506.125 101.727ZM517.439 101.727C516.388 101.727 515.481 101.495 514.719 101.031C513.961 100.562 513.377 99.9091 512.965 99.071C512.558 98.2282 512.354 97.2481 512.354 96.1307C512.354 95.0133 512.558 94.0284 512.965 93.1761C513.377 92.3191 513.95 91.6515 514.683 91.1733C515.422 90.6903 516.284 90.4489 517.269 90.4489C517.837 90.4489 518.398 90.5436 518.952 90.733C519.506 90.9223 520.01 91.2301 520.465 91.6562C520.919 92.0777 521.281 92.6364 521.551 93.3324C521.821 94.0284 521.956 94.8854 521.956 95.9034V96.6136H513.547V95.1648H520.252C520.252 94.5492 520.129 94 519.882 93.517C519.641 93.0341 519.295 92.6529 518.845 92.3736C518.4 92.0942 517.875 91.9545 517.269 91.9545C516.601 91.9545 516.023 92.1203 515.536 92.4517C515.053 92.7784 514.681 93.2045 514.421 93.7301C514.16 94.2557 514.03 94.8191 514.03 95.4205V96.3864C514.03 97.2102 514.172 97.9086 514.456 98.4815C514.745 99.0497 515.145 99.483 515.656 99.7812C516.168 100.075 516.762 100.222 517.439 100.222C517.879 100.222 518.277 100.16 518.632 100.037C518.992 99.9091 519.302 99.7197 519.563 99.4688C519.823 99.2131 520.024 98.8958 520.166 98.517L521.786 98.9716C521.615 99.5208 521.329 100.004 520.926 100.42C520.524 100.832 520.027 101.154 519.435 101.386C518.843 101.614 518.178 101.727 517.439 101.727ZM532.233 93.0341L530.727 93.4602C530.633 93.2093 530.493 92.9654 530.308 92.7287C530.129 92.4872 529.882 92.2884 529.57 92.1321C529.257 91.9759 528.857 91.8977 528.37 91.8977C527.702 91.8977 527.146 92.0516 526.7 92.3594C526.26 92.6624 526.04 93.0483 526.04 93.517C526.04 93.9337 526.191 94.2628 526.495 94.5043C526.798 94.7457 527.271 94.947 527.915 95.108L529.534 95.5057C530.51 95.7424 531.236 96.1046 531.715 96.5923C532.193 97.0753 532.432 97.6979 532.432 98.4602C532.432 99.0852 532.252 99.6439 531.892 100.136C531.537 100.629 531.04 101.017 530.401 101.301C529.762 101.585 529.018 101.727 528.171 101.727C527.058 101.727 526.137 101.486 525.408 101.003C524.679 100.52 524.217 99.8144 524.023 98.8864L525.614 98.4886C525.765 99.0758 526.052 99.5161 526.473 99.8097C526.899 100.103 527.456 100.25 528.142 100.25C528.924 100.25 529.544 100.084 530.003 99.7528C530.467 99.4167 530.699 99.0142 530.699 98.5455C530.699 98.1667 530.566 97.8494 530.301 97.5938C530.036 97.3333 529.629 97.1392 529.08 97.0114L527.262 96.5852C526.263 96.3485 525.529 95.9815 525.06 95.4844C524.596 94.9825 524.364 94.3551 524.364 93.6023C524.364 92.9867 524.537 92.4422 524.882 91.9688C525.233 91.4953 525.709 91.1236 526.31 90.8537C526.916 90.5838 527.602 90.4489 528.37 90.4489C529.449 90.4489 530.297 90.6856 530.912 91.1591C531.532 91.6326 531.973 92.2576 532.233 93.0341ZM542.682 93.0341L541.177 93.4602C541.082 93.2093 540.942 92.9654 540.758 92.7287C540.578 92.4872 540.332 92.2884 540.019 92.1321C539.707 91.9759 539.306 91.8977 538.819 91.8977C538.151 91.8977 537.595 92.0516 537.15 92.3594C536.709 92.6624 536.489 93.0483 536.489 93.517C536.489 93.9337 536.641 94.2628 536.944 94.5043C537.247 94.7457 537.72 94.947 538.364 95.108L539.984 95.5057C540.959 95.7424 541.686 96.1046 542.164 96.5923C542.642 97.0753 542.881 97.6979 542.881 98.4602C542.881 99.0852 542.701 99.6439 542.341 100.136C541.986 100.629 541.489 101.017 540.85 101.301C540.211 101.585 539.467 101.727 538.62 101.727C537.507 101.727 536.586 101.486 535.857 101.003C535.128 100.52 534.666 99.8144 534.472 98.8864L536.063 98.4886C536.215 99.0758 536.501 99.5161 536.922 99.8097C537.349 100.103 537.905 100.25 538.591 100.25C539.373 100.25 539.993 100.084 540.452 99.7528C540.916 99.4167 541.148 99.0142 541.148 98.5455C541.148 98.1667 541.016 97.8494 540.751 97.5938C540.485 97.3333 540.078 97.1392 539.529 97.0114L537.711 96.5852C536.712 96.3485 535.978 95.9815 535.509 95.4844C535.045 94.9825 534.813 94.3551 534.813 93.6023C534.813 92.9867 534.986 92.4422 535.332 91.9688C535.682 91.4953 536.158 91.1236 536.759 90.8537C537.365 90.5838 538.052 90.4489 538.819 90.4489C539.898 90.4489 540.746 90.6856 541.361 91.1591C541.982 91.6326 542.422 92.2576 542.682 93.0341Z" fill="#F4F4F4"/>
<path d="M470.182 125.5V110.955H478.904V112.517H471.944V117.432H478.251V118.994H471.944V125.5H470.182ZM481.693 125.5V114.591H483.37V125.5H481.693ZM482.546 112.773C482.219 112.773 481.937 112.661 481.7 112.439C481.468 112.216 481.352 111.949 481.352 111.636C481.352 111.324 481.468 111.056 481.7 110.834C481.937 110.611 482.219 110.5 482.546 110.5C482.872 110.5 483.152 110.611 483.384 110.834C483.62 111.056 483.739 111.324 483.739 111.636C483.739 111.949 483.62 112.216 483.384 112.439C483.152 112.661 482.872 112.773 482.546 112.773ZM488.116 118.938V125.5H486.439V114.591H488.059V116.295H488.201C488.457 115.741 488.845 115.296 489.366 114.96C489.886 114.619 490.559 114.449 491.383 114.449C492.121 114.449 492.768 114.6 493.322 114.903C493.876 115.202 494.306 115.656 494.614 116.267C494.922 116.873 495.076 117.64 495.076 118.568V125.5H493.4V118.682C493.4 117.825 493.177 117.157 492.732 116.679C492.287 116.196 491.676 115.955 490.9 115.955C490.365 115.955 489.886 116.071 489.465 116.303C489.048 116.535 488.719 116.873 488.478 117.318C488.236 117.763 488.116 118.303 488.116 118.938ZM498.139 125.5V114.591H499.815V125.5H498.139ZM498.991 112.773C498.664 112.773 498.383 112.661 498.146 112.439C497.914 112.216 497.798 111.949 497.798 111.636C497.798 111.324 497.914 111.056 498.146 110.834C498.383 110.611 498.664 110.5 498.991 110.5C499.318 110.5 499.597 110.611 499.829 110.834C500.066 111.056 500.184 111.324 500.184 111.636C500.184 111.949 500.066 112.216 499.829 112.439C499.597 112.661 499.318 112.773 498.991 112.773ZM510.612 117.034L509.106 117.46C509.012 117.209 508.872 116.965 508.687 116.729C508.507 116.487 508.261 116.288 507.949 116.132C507.636 115.976 507.236 115.898 506.748 115.898C506.081 115.898 505.524 116.052 505.079 116.359C504.639 116.662 504.419 117.048 504.419 117.517C504.419 117.934 504.57 118.263 504.873 118.504C505.176 118.746 505.65 118.947 506.294 119.108L507.913 119.506C508.889 119.742 509.615 120.105 510.094 120.592C510.572 121.075 510.811 121.698 510.811 122.46C510.811 123.085 510.631 123.644 510.271 124.136C509.916 124.629 509.419 125.017 508.78 125.301C508.14 125.585 507.397 125.727 506.55 125.727C505.437 125.727 504.516 125.486 503.787 125.003C503.058 124.52 502.596 123.814 502.402 122.886L503.993 122.489C504.144 123.076 504.431 123.516 504.852 123.81C505.278 124.103 505.835 124.25 506.521 124.25C507.302 124.25 507.923 124.084 508.382 123.753C508.846 123.417 509.078 123.014 509.078 122.545C509.078 122.167 508.945 121.849 508.68 121.594C508.415 121.333 508.008 121.139 507.459 121.011L505.64 120.585C504.641 120.348 503.908 119.982 503.439 119.484C502.975 118.982 502.743 118.355 502.743 117.602C502.743 116.987 502.916 116.442 503.261 115.969C503.612 115.495 504.087 115.124 504.689 114.854C505.295 114.584 505.981 114.449 506.748 114.449C507.828 114.449 508.676 114.686 509.291 115.159C509.911 115.633 510.352 116.258 510.612 117.034ZM515.01 118.938V125.5H513.334V110.955H515.01V116.295H515.152C515.408 115.732 515.791 115.285 516.303 114.953C516.819 114.617 517.505 114.449 518.362 114.449C519.106 114.449 519.757 114.598 520.316 114.896C520.874 115.19 521.308 115.642 521.615 116.253C521.928 116.859 522.084 117.631 522.084 118.568V125.5H520.408V118.682C520.408 117.815 520.183 117.145 519.733 116.672C519.288 116.194 518.67 115.955 517.879 115.955C517.33 115.955 516.838 116.071 516.402 116.303C515.971 116.535 515.63 116.873 515.379 117.318C515.133 117.763 515.01 118.303 515.01 118.938ZM529.724 125.727C528.673 125.727 527.766 125.495 527.004 125.031C526.247 124.562 525.662 123.909 525.25 123.071C524.843 122.228 524.639 121.248 524.639 120.131C524.639 119.013 524.843 118.028 525.25 117.176C525.662 116.319 526.235 115.652 526.969 115.173C527.707 114.69 528.569 114.449 529.554 114.449C530.122 114.449 530.683 114.544 531.237 114.733C531.791 114.922 532.295 115.23 532.75 115.656C533.204 116.078 533.567 116.636 533.837 117.332C534.106 118.028 534.241 118.885 534.241 119.903V120.614H525.832V119.165H532.537C532.537 118.549 532.414 118 532.167 117.517C531.926 117.034 531.58 116.653 531.131 116.374C530.685 116.094 530.16 115.955 529.554 115.955C528.886 115.955 528.309 116.12 527.821 116.452C527.338 116.778 526.966 117.205 526.706 117.73C526.445 118.256 526.315 118.819 526.315 119.42V120.386C526.315 121.21 526.457 121.909 526.741 122.482C527.03 123.05 527.43 123.483 527.942 123.781C528.453 124.075 529.047 124.222 529.724 124.222C530.165 124.222 530.562 124.16 530.917 124.037C531.277 123.909 531.587 123.72 531.848 123.469C532.108 123.213 532.31 122.896 532.452 122.517L534.071 122.972C533.9 123.521 533.614 124.004 533.212 124.42C532.809 124.832 532.312 125.154 531.72 125.386C531.128 125.614 530.463 125.727 529.724 125.727ZM544.518 117.034L543.013 117.46C542.918 117.209 542.778 116.965 542.594 116.729C542.414 116.487 542.167 116.288 541.855 116.132C541.542 115.976 541.142 115.898 540.655 115.898C539.987 115.898 539.431 116.052 538.986 116.359C538.545 116.662 538.325 117.048 538.325 117.517C538.325 117.934 538.477 118.263 538.78 118.504C539.083 118.746 539.556 118.947 540.2 119.108L541.819 119.506C542.795 119.742 543.522 120.105 544 120.592C544.478 121.075 544.717 121.698 544.717 122.46C544.717 123.085 544.537 123.644 544.177 124.136C543.822 124.629 543.325 125.017 542.686 125.301C542.047 125.585 541.303 125.727 540.456 125.727C539.343 125.727 538.422 125.486 537.693 125.003C536.964 124.52 536.502 123.814 536.308 122.886L537.899 122.489C538.051 123.076 538.337 123.516 538.758 123.81C539.185 124.103 539.741 124.25 540.427 124.25C541.209 124.25 541.829 124.084 542.288 123.753C542.752 123.417 542.984 123.014 542.984 122.545C542.984 122.167 542.852 121.849 542.587 121.594C542.321 121.333 541.914 121.139 541.365 121.011L539.547 120.585C538.548 120.348 537.814 119.982 537.345 119.484C536.881 118.982 536.649 118.355 536.649 117.602C536.649 116.987 536.822 116.442 537.167 115.969C537.518 115.495 537.994 115.124 538.595 114.854C539.201 114.584 539.888 114.449 540.655 114.449C541.734 114.449 542.582 114.686 543.197 115.159C543.818 115.633 544.258 116.258 544.518 117.034ZM549.428 121.409V121.324C549.437 120.42 549.532 119.7 549.712 119.165C549.892 118.63 550.147 118.196 550.479 117.865C550.81 117.534 551.208 117.228 551.672 116.949C551.951 116.778 552.202 116.577 552.425 116.345C552.647 116.108 552.823 115.836 552.95 115.528C553.083 115.221 553.149 114.88 553.149 114.506C553.149 114.042 553.04 113.639 552.823 113.298C552.605 112.957 552.314 112.695 551.949 112.51C551.584 112.325 551.18 112.233 550.735 112.233C550.346 112.233 549.972 112.313 549.612 112.474C549.253 112.635 548.952 112.889 548.71 113.234C548.469 113.58 548.329 114.032 548.291 114.591H546.502C546.54 113.786 546.748 113.097 547.127 112.524C547.51 111.951 548.014 111.513 548.639 111.21C549.269 110.907 549.968 110.756 550.735 110.756C551.568 110.756 552.292 110.921 552.908 111.253C553.528 111.584 554.006 112.039 554.343 112.616C554.683 113.194 554.854 113.852 554.854 114.591C554.854 115.112 554.773 115.583 554.612 116.004C554.456 116.426 554.229 116.802 553.931 117.134C553.637 117.465 553.282 117.759 552.865 118.014C552.449 118.275 552.115 118.549 551.864 118.838C551.613 119.122 551.431 119.461 551.317 119.854C551.203 120.247 551.142 120.737 551.132 121.324V121.409H549.428ZM550.337 125.614C549.986 125.614 549.686 125.488 549.435 125.237C549.184 124.986 549.058 124.686 549.058 124.335C549.058 123.985 549.184 123.684 549.435 123.433C549.686 123.182 549.986 123.057 550.337 123.057C550.687 123.057 550.988 123.182 551.239 123.433C551.49 123.684 551.615 123.985 551.615 124.335C551.615 124.567 551.556 124.78 551.438 124.974C551.324 125.169 551.17 125.325 550.976 125.443C550.787 125.557 550.574 125.614 550.337 125.614Z" fill="#F4F4F4"/>
<path d="M786.182 141.5V126.955H791.097C792.238 126.955 793.171 127.161 793.895 127.573C794.625 127.98 795.164 128.531 795.515 129.227C795.865 129.923 796.04 130.7 796.04 131.557C796.04 132.414 795.865 133.193 795.515 133.894C795.169 134.594 794.634 135.153 793.91 135.57C793.185 135.982 792.257 136.188 791.126 136.188H787.603V134.625H791.069C791.85 134.625 792.477 134.49 792.951 134.22C793.424 133.95 793.768 133.586 793.981 133.126C794.198 132.662 794.307 132.139 794.307 131.557C794.307 130.974 794.198 130.454 793.981 129.994C793.768 129.535 793.422 129.175 792.944 128.915C792.466 128.65 791.831 128.517 791.04 128.517H787.944V141.5H786.182ZM800.327 126.955V141.5H798.65V126.955H800.327ZM806.607 141.756C805.915 141.756 805.288 141.626 804.725 141.365C804.161 141.1 803.714 140.719 803.382 140.222C803.051 139.72 802.885 139.114 802.885 138.403C802.885 137.778 803.008 137.272 803.254 136.884C803.501 136.491 803.83 136.183 804.242 135.96C804.654 135.738 805.108 135.572 805.605 135.463C806.107 135.349 806.611 135.26 807.118 135.193C807.781 135.108 808.318 135.044 808.73 135.001C809.147 134.954 809.45 134.876 809.639 134.767C809.834 134.658 809.931 134.469 809.931 134.199V134.142C809.931 133.441 809.739 132.897 809.355 132.509C808.977 132.12 808.401 131.926 807.629 131.926C806.829 131.926 806.202 132.101 805.747 132.452C805.293 132.802 804.973 133.176 804.789 133.574L803.198 133.006C803.482 132.343 803.861 131.827 804.334 131.457C804.812 131.083 805.333 130.823 805.897 130.676C806.465 130.525 807.023 130.449 807.573 130.449C807.923 130.449 808.325 130.492 808.78 130.577C809.239 130.657 809.682 130.825 810.108 131.081C810.539 131.337 810.897 131.723 811.181 132.239C811.465 132.755 811.607 133.446 811.607 134.313V141.5H809.931V140.023H809.845C809.732 140.26 809.542 140.513 809.277 140.783C809.012 141.053 808.659 141.282 808.219 141.472C807.779 141.661 807.241 141.756 806.607 141.756ZM806.862 140.25C807.525 140.25 808.084 140.12 808.539 139.859C808.998 139.599 809.343 139.263 809.575 138.851C809.812 138.439 809.931 138.006 809.931 137.551V136.017C809.86 136.102 809.703 136.18 809.462 136.251C809.225 136.318 808.95 136.377 808.638 136.429C808.33 136.476 808.03 136.519 807.736 136.557C807.447 136.59 807.213 136.618 807.033 136.642C806.597 136.699 806.19 136.791 805.811 136.919C805.437 137.042 805.134 137.229 804.902 137.48C804.675 137.726 804.561 138.063 804.561 138.489C804.561 139.071 804.777 139.511 805.208 139.81C805.643 140.103 806.195 140.25 806.862 140.25ZM819.098 141.727C818.075 141.727 817.194 141.486 816.456 141.003C815.717 140.52 815.149 139.855 814.751 139.007C814.354 138.16 814.155 137.191 814.155 136.102C814.155 134.994 814.358 134.017 814.765 133.169C815.177 132.317 815.75 131.652 816.484 131.173C817.223 130.69 818.085 130.449 819.069 130.449C819.837 130.449 820.528 130.591 821.143 130.875C821.759 131.159 822.263 131.557 822.656 132.068C823.049 132.58 823.293 133.176 823.388 133.858H821.712C821.584 133.361 821.3 132.921 820.859 132.537C820.424 132.149 819.837 131.955 819.098 131.955C818.444 131.955 817.872 132.125 817.379 132.466C816.891 132.802 816.51 133.278 816.236 133.894C815.966 134.504 815.831 135.222 815.831 136.046C815.831 136.888 815.963 137.622 816.229 138.247C816.498 138.872 816.877 139.358 817.365 139.703C817.857 140.049 818.435 140.222 819.098 140.222C819.533 140.222 819.929 140.146 820.284 139.994C820.639 139.843 820.94 139.625 821.186 139.341C821.432 139.057 821.607 138.716 821.712 138.318H823.388C823.293 138.962 823.059 139.542 822.685 140.058C822.315 140.57 821.825 140.977 821.214 141.28C820.608 141.578 819.903 141.727 819.098 141.727ZM830.412 141.727C829.361 141.727 828.454 141.495 827.692 141.031C826.934 140.563 826.349 139.909 825.937 139.071C825.53 138.228 825.327 137.248 825.327 136.131C825.327 135.013 825.53 134.028 825.937 133.176C826.349 132.319 826.922 131.652 827.656 131.173C828.395 130.69 829.256 130.449 830.241 130.449C830.81 130.449 831.371 130.544 831.925 130.733C832.479 130.922 832.983 131.23 833.437 131.656C833.892 132.078 834.254 132.636 834.524 133.332C834.794 134.028 834.929 134.885 834.929 135.903V136.614H826.52V135.165H833.224C833.224 134.549 833.101 134 832.855 133.517C832.613 133.034 832.268 132.653 831.818 132.374C831.373 132.094 830.847 131.955 830.241 131.955C829.574 131.955 828.996 132.12 828.508 132.452C828.025 132.778 827.654 133.205 827.393 133.73C827.133 134.256 827.003 134.819 827.003 135.421V136.386C827.003 137.21 827.145 137.909 827.429 138.482C827.718 139.05 828.118 139.483 828.629 139.781C829.14 140.075 829.735 140.222 830.412 140.222C830.852 140.222 831.25 140.16 831.605 140.037C831.965 139.909 832.275 139.72 832.535 139.469C832.796 139.213 832.997 138.896 833.139 138.517L834.758 138.972C834.588 139.521 834.301 140.004 833.899 140.421C833.497 140.832 832.999 141.154 832.408 141.386C831.816 141.614 831.15 141.727 830.412 141.727ZM846.314 141.756C845.622 141.756 844.995 141.626 844.432 141.365C843.868 141.1 843.421 140.719 843.089 140.222C842.758 139.72 842.592 139.114 842.592 138.403C842.592 137.778 842.715 137.272 842.962 136.884C843.208 136.491 843.537 136.183 843.949 135.96C844.361 135.738 844.815 135.572 845.312 135.463C845.814 135.349 846.319 135.26 846.825 135.193C847.488 135.108 848.025 135.044 848.437 135.001C848.854 134.954 849.157 134.876 849.346 134.767C849.541 134.658 849.638 134.469 849.638 134.199V134.142C849.638 133.441 849.446 132.897 849.062 132.509C848.684 132.12 848.108 131.926 847.337 131.926C846.536 131.926 845.909 132.101 845.454 132.452C845 132.802 844.68 133.176 844.496 133.574L842.905 133.006C843.189 132.343 843.568 131.827 844.041 131.457C844.519 131.083 845.04 130.823 845.604 130.676C846.172 130.525 846.73 130.449 847.28 130.449C847.63 130.449 848.033 130.492 848.487 130.577C848.946 130.657 849.389 130.825 849.815 131.081C850.246 131.337 850.604 131.723 850.888 132.239C851.172 132.755 851.314 133.446 851.314 134.313V141.5H849.638V140.023H849.552C849.439 140.26 849.249 140.513 848.984 140.783C848.719 141.053 848.366 141.282 847.926 141.472C847.486 141.661 846.948 141.756 846.314 141.756ZM846.569 140.25C847.232 140.25 847.791 140.12 848.246 139.859C848.705 139.599 849.051 139.263 849.283 138.851C849.519 138.439 849.638 138.006 849.638 137.551V136.017C849.567 136.102 849.41 136.18 849.169 136.251C848.932 136.318 848.658 136.377 848.345 136.429C848.037 136.476 847.737 136.519 847.443 136.557C847.154 136.59 846.92 136.618 846.74 136.642C846.304 136.699 845.897 136.791 845.518 136.919C845.144 137.042 844.841 137.229 844.609 137.48C844.382 137.726 844.268 138.063 844.268 138.489C844.268 139.071 844.484 139.511 844.915 139.81C845.35 140.103 845.902 140.25 846.569 140.25ZM859.117 130.591V132.011H853.464V130.591H859.117ZM855.112 127.977H856.788V138.375C856.788 138.849 856.857 139.204 856.994 139.44C857.136 139.672 857.316 139.829 857.534 139.909C857.756 139.985 857.991 140.023 858.237 140.023C858.421 140.023 858.573 140.013 858.691 139.994C858.81 139.971 858.904 139.952 858.975 139.938L859.316 141.443C859.203 141.486 859.044 141.528 858.84 141.571C858.637 141.618 858.379 141.642 858.066 141.642C857.593 141.642 857.129 141.54 856.674 141.337C856.224 141.133 855.85 140.823 855.552 140.406C855.258 139.99 855.112 139.464 855.112 138.83V127.977ZM867.491 141.5V126.955H876.269V128.517H869.252V133.432H875.815V134.994H869.252V139.938H876.383V141.5H867.491ZM880.893 134.938V141.5H879.217V130.591H880.836V132.296H880.978C881.234 131.742 881.622 131.296 882.143 130.96C882.664 130.619 883.336 130.449 884.16 130.449C884.899 130.449 885.545 130.6 886.099 130.903C886.653 131.202 887.084 131.656 887.392 132.267C887.699 132.873 887.853 133.64 887.853 134.568V141.5H886.177V134.682C886.177 133.825 885.955 133.157 885.509 132.679C885.064 132.196 884.454 131.955 883.677 131.955C883.142 131.955 882.664 132.071 882.242 132.303C881.826 132.535 881.497 132.873 881.255 133.318C881.014 133.763 880.893 134.303 880.893 134.938ZM895.035 141.727C894.126 141.727 893.324 141.498 892.628 141.038C891.932 140.574 891.387 139.921 890.994 139.078C890.601 138.231 890.405 137.229 890.405 136.074C890.405 134.928 890.601 133.934 890.994 133.091C891.387 132.248 891.934 131.597 892.635 131.138C893.336 130.679 894.145 130.449 895.064 130.449C895.774 130.449 896.335 130.567 896.747 130.804C897.164 131.036 897.481 131.301 897.699 131.599C897.921 131.893 898.094 132.135 898.217 132.324H898.359V126.955H900.035V141.5H898.416V139.824H898.217C898.094 140.023 897.919 140.274 897.692 140.577C897.464 140.875 897.14 141.143 896.719 141.379C896.297 141.611 895.736 141.727 895.035 141.727ZM895.263 140.222C895.935 140.222 896.503 140.046 896.967 139.696C897.431 139.341 897.784 138.851 898.025 138.226C898.267 137.596 898.388 136.869 898.388 136.046C898.388 135.231 898.269 134.519 898.033 133.908C897.796 133.292 897.445 132.814 896.981 132.473C896.517 132.127 895.944 131.955 895.263 131.955C894.552 131.955 893.961 132.137 893.487 132.501C893.018 132.861 892.666 133.351 892.429 133.972C892.197 134.587 892.081 135.278 892.081 136.046C892.081 136.822 892.199 137.528 892.436 138.162C892.677 138.792 893.033 139.294 893.501 139.668C893.975 140.037 894.562 140.222 895.263 140.222Z" fill="#F4F4F4"/>
<path d="M790.387 165.727C789.402 165.727 788.538 165.493 787.795 165.024C787.056 164.555 786.478 163.9 786.062 163.057C785.65 162.214 785.444 161.229 785.444 160.102C785.444 158.966 785.65 157.974 786.062 157.126C786.478 156.279 787.056 155.621 787.795 155.152C788.538 154.683 789.402 154.449 790.387 154.449C791.372 154.449 792.234 154.683 792.972 155.152C793.716 155.621 794.293 156.279 794.705 157.126C795.122 157.974 795.33 158.966 795.33 160.102C795.33 161.229 795.122 162.214 794.705 163.057C794.293 163.9 793.716 164.555 792.972 165.024C792.234 165.493 791.372 165.727 790.387 165.727ZM790.387 164.222C791.135 164.222 791.751 164.03 792.234 163.646C792.716 163.263 793.074 162.759 793.306 162.134C793.538 161.509 793.654 160.832 793.654 160.102C793.654 159.373 793.538 158.694 793.306 158.064C793.074 157.434 792.716 156.925 792.234 156.537C791.751 156.149 791.135 155.955 790.387 155.955C789.639 155.955 789.023 156.149 788.54 156.537C788.057 156.925 787.7 157.434 787.468 158.064C787.236 158.694 787.12 159.373 787.12 160.102C787.12 160.832 787.236 161.509 787.468 162.134C787.7 162.759 788.057 163.263 788.54 163.646C789.023 164.03 789.639 164.222 790.387 164.222ZM802.747 154.591V156.011H796.866V154.591H802.747ZM798.627 165.5V153.085C798.627 152.46 798.774 151.939 799.068 151.523C799.361 151.106 799.742 150.794 800.211 150.585C800.68 150.377 801.175 150.273 801.696 150.273C802.107 150.273 802.444 150.306 802.704 150.372C802.964 150.439 803.159 150.5 803.286 150.557L802.803 152.006C802.718 151.977 802.6 151.942 802.448 151.899C802.302 151.857 802.107 151.835 801.866 151.835C801.312 151.835 800.912 151.975 800.666 152.254C800.424 152.534 800.303 152.943 800.303 153.483V165.5H798.627ZM816.232 160.955H818.164L819.783 163.085L820.209 163.653L822.624 166.864H820.692L819.101 164.733L818.704 164.193L816.232 160.955ZM823.221 158.227C823.221 159.761 822.944 161.087 822.39 162.205C821.836 163.322 821.076 164.184 820.11 164.79C819.144 165.396 818.041 165.699 816.8 165.699C815.56 165.699 814.457 165.396 813.491 164.79C812.525 164.184 811.765 163.322 811.211 162.205C810.657 161.087 810.38 159.761 810.38 158.227C810.38 156.693 810.657 155.367 811.211 154.25C811.765 153.133 812.525 152.271 813.491 151.665C814.457 151.059 815.56 150.756 816.8 150.756C818.041 150.756 819.144 151.059 820.11 151.665C821.076 152.271 821.836 153.133 822.39 154.25C822.944 155.367 823.221 156.693 823.221 158.227ZM821.516 158.227C821.516 156.968 821.305 155.905 820.884 155.038C820.467 154.172 819.902 153.516 819.187 153.071C818.476 152.626 817.681 152.403 816.8 152.403C815.92 152.403 815.122 152.626 814.407 153.071C813.697 153.516 813.131 154.172 812.709 155.038C812.293 155.905 812.084 156.968 812.084 158.227C812.084 159.487 812.293 160.55 812.709 161.416C813.131 162.283 813.697 162.939 814.407 163.384C815.122 163.829 815.92 164.051 816.8 164.051C817.681 164.051 818.476 163.829 819.187 163.384C819.902 162.939 820.467 162.283 820.884 161.416C821.305 160.55 821.516 159.487 821.516 158.227ZM832.83 161.04V154.591H834.506V165.5H832.83V163.653H832.716C832.461 164.207 832.063 164.679 831.523 165.067C830.984 165.45 830.302 165.642 829.478 165.642C828.796 165.642 828.19 165.493 827.66 165.195C827.129 164.892 826.713 164.437 826.41 163.831C826.107 163.22 825.955 162.451 825.955 161.523V154.591H827.631V161.409C827.631 162.205 827.854 162.839 828.299 163.313C828.749 163.786 829.322 164.023 830.018 164.023C830.434 164.023 830.858 163.916 831.289 163.703C831.725 163.49 832.089 163.163 832.383 162.723C832.681 162.283 832.83 161.722 832.83 161.04ZM842.15 165.727C841.099 165.727 840.192 165.495 839.43 165.031C838.672 164.563 838.088 163.909 837.676 163.071C837.268 162.228 837.065 161.248 837.065 160.131C837.065 159.013 837.268 158.028 837.676 157.176C838.088 156.319 838.66 155.652 839.394 155.173C840.133 154.69 840.995 154.449 841.98 154.449C842.548 154.449 843.109 154.544 843.663 154.733C844.217 154.922 844.721 155.23 845.176 155.656C845.63 156.078 845.992 156.636 846.262 157.332C846.532 158.028 846.667 158.885 846.667 159.903V160.614H838.258V159.165H844.963C844.963 158.549 844.839 158 844.593 157.517C844.352 157.034 844.006 156.653 843.556 156.374C843.111 156.094 842.586 155.955 841.98 155.955C841.312 155.955 840.734 156.12 840.247 156.452C839.764 156.778 839.392 157.205 839.132 157.73C838.871 158.256 838.741 158.819 838.741 159.421V160.386C838.741 161.21 838.883 161.909 839.167 162.482C839.456 163.05 839.856 163.483 840.367 163.781C840.879 164.075 841.473 164.222 842.15 164.222C842.59 164.222 842.988 164.16 843.343 164.037C843.703 163.909 844.013 163.72 844.274 163.469C844.534 163.213 844.735 162.896 844.877 162.517L846.497 162.972C846.326 163.521 846.04 164.004 845.637 164.421C845.235 164.832 844.738 165.154 844.146 165.386C843.554 165.614 842.889 165.727 842.15 165.727ZM856.092 161.04V154.591H857.768V165.5H856.092V163.653H855.978C855.723 164.207 855.325 164.679 854.785 165.067C854.245 165.45 853.563 165.642 852.74 165.642C852.058 165.642 851.452 165.493 850.921 165.195C850.391 164.892 849.974 164.437 849.671 163.831C849.368 163.22 849.217 162.451 849.217 161.523V154.591H850.893V161.409C850.893 162.205 851.116 162.839 851.561 163.313C852.01 163.786 852.583 164.023 853.279 164.023C853.696 164.023 854.12 163.916 854.551 163.703C854.986 163.49 855.351 163.163 855.644 162.723C855.943 162.283 856.092 161.722 856.092 161.04ZM865.412 165.727C864.361 165.727 863.454 165.495 862.692 165.031C861.934 164.563 861.349 163.909 860.937 163.071C860.53 162.228 860.327 161.248 860.327 160.131C860.327 159.013 860.53 158.028 860.937 157.176C861.349 156.319 861.922 155.652 862.656 155.173C863.395 154.69 864.256 154.449 865.241 154.449C865.81 154.449 866.371 154.544 866.925 154.733C867.479 154.922 867.983 155.23 868.437 155.656C868.892 156.078 869.254 156.636 869.524 157.332C869.794 158.028 869.929 158.885 869.929 159.903V160.614H861.52V159.165H868.224C868.224 158.549 868.101 158 867.855 157.517C867.613 157.034 867.268 156.653 866.818 156.374C866.373 156.094 865.847 155.955 865.241 155.955C864.574 155.955 863.996 156.12 863.508 156.452C863.025 156.778 862.654 157.205 862.393 157.73C862.133 158.256 862.003 158.819 862.003 159.421V160.386C862.003 161.21 862.145 161.909 862.429 162.482C862.718 163.05 863.118 163.483 863.629 163.781C864.14 164.075 864.735 164.222 865.412 164.222C865.852 164.222 866.25 164.16 866.605 164.037C866.965 163.909 867.275 163.72 867.535 163.469C867.796 163.213 867.997 162.896 868.139 162.517L869.758 162.972C869.588 163.521 869.301 164.004 868.899 164.421C868.497 164.832 867.999 165.154 867.408 165.386C866.816 165.614 866.15 165.727 865.412 165.727Z" fill="#F4F4F4"/>
<path d="M634.182 141.5V126.955H639.097C640.238 126.955 641.171 127.161 641.895 127.573C642.625 127.98 643.164 128.531 643.515 129.227C643.865 129.923 644.04 130.7 644.04 131.557C644.04 132.414 643.865 133.193 643.515 133.894C643.169 134.594 642.634 135.153 641.91 135.57C641.185 135.982 640.257 136.188 639.126 136.188H635.603V134.625H639.069C639.85 134.625 640.477 134.49 640.951 134.22C641.424 133.95 641.768 133.586 641.981 133.126C642.198 132.662 642.307 132.139 642.307 131.557C642.307 130.974 642.198 130.454 641.981 129.994C641.768 129.535 641.422 129.175 640.944 128.915C640.466 128.65 639.831 128.517 639.04 128.517H635.944V141.5H634.182ZM649.861 141.756C649.169 141.756 648.542 141.626 647.979 141.365C647.415 141.1 646.968 140.719 646.636 140.222C646.305 139.72 646.139 139.114 646.139 138.403C646.139 137.778 646.262 137.272 646.508 136.884C646.755 136.491 647.084 136.183 647.496 135.96C647.908 135.738 648.362 135.572 648.859 135.463C649.361 135.349 649.865 135.26 650.372 135.193C651.035 135.108 651.572 135.044 651.984 135.001C652.401 134.954 652.704 134.876 652.893 134.767C653.087 134.658 653.185 134.469 653.185 134.199V134.142C653.185 133.441 652.993 132.897 652.609 132.509C652.23 132.12 651.655 131.926 650.883 131.926C650.083 131.926 649.456 132.101 649.001 132.452C648.547 132.802 648.227 133.176 648.042 133.574L646.452 133.006C646.736 132.343 647.114 131.827 647.588 131.457C648.066 131.083 648.587 130.823 649.15 130.676C649.719 130.525 650.277 130.449 650.827 130.449C651.177 130.449 651.579 130.492 652.034 130.577C652.493 130.657 652.936 130.825 653.362 131.081C653.793 131.337 654.15 131.723 654.435 132.239C654.719 132.755 654.861 133.446 654.861 134.313V141.5H653.185V140.023H653.099C652.986 140.26 652.796 140.513 652.531 140.783C652.266 141.053 651.913 141.282 651.473 141.472C651.033 141.661 650.495 141.756 649.861 141.756ZM650.116 140.25C650.779 140.25 651.338 140.12 651.792 139.859C652.252 139.599 652.597 139.263 652.829 138.851C653.066 138.439 653.185 138.006 653.185 137.551V136.017C653.113 136.102 652.957 136.18 652.716 136.251C652.479 136.318 652.204 136.377 651.892 136.429C651.584 136.476 651.283 136.519 650.99 136.557C650.701 136.59 650.467 136.618 650.287 136.642C649.851 136.699 649.444 136.791 649.065 136.919C648.691 137.042 648.388 137.229 648.156 137.48C647.929 137.726 647.815 138.063 647.815 138.489C647.815 139.071 648.031 139.511 648.462 139.81C648.897 140.103 649.449 140.25 650.116 140.25ZM664.795 137.04V130.591H666.471V141.5H664.795V139.653H664.681C664.426 140.207 664.028 140.679 663.488 141.067C662.948 141.45 662.267 141.642 661.443 141.642C660.761 141.642 660.155 141.493 659.625 141.195C659.094 140.892 658.678 140.437 658.375 139.831C658.071 139.22 657.92 138.451 657.92 137.523V130.591H659.596V137.409C659.596 138.205 659.819 138.839 660.264 139.313C660.714 139.786 661.286 140.023 661.982 140.023C662.399 140.023 662.823 139.916 663.254 139.703C663.689 139.49 664.054 139.163 664.348 138.723C664.646 138.283 664.795 137.722 664.795 137.04ZM677.268 133.034L675.763 133.46C675.668 133.209 675.528 132.965 675.344 132.729C675.164 132.487 674.917 132.288 674.605 132.132C674.292 131.976 673.892 131.898 673.405 131.898C672.737 131.898 672.181 132.052 671.736 132.359C671.295 132.662 671.075 133.048 671.075 133.517C671.075 133.934 671.227 134.263 671.53 134.504C671.833 134.746 672.306 134.947 672.95 135.108L674.569 135.506C675.545 135.742 676.272 136.105 676.75 136.592C677.228 137.075 677.467 137.698 677.467 138.46C677.467 139.085 677.287 139.644 676.927 140.136C676.572 140.629 676.075 141.017 675.436 141.301C674.797 141.585 674.053 141.727 673.206 141.727C672.093 141.727 671.172 141.486 670.443 141.003C669.714 140.52 669.252 139.814 669.058 138.886L670.649 138.489C670.801 139.076 671.087 139.516 671.508 139.81C671.935 140.103 672.491 140.25 673.177 140.25C673.959 140.25 674.579 140.084 675.038 139.753C675.502 139.417 675.734 139.014 675.734 138.546C675.734 138.167 675.602 137.849 675.337 137.594C675.071 137.333 674.664 137.139 674.115 137.011L672.297 136.585C671.298 136.349 670.564 135.982 670.095 135.484C669.631 134.983 669.399 134.355 669.399 133.602C669.399 132.987 669.572 132.442 669.917 131.969C670.268 131.495 670.744 131.124 671.345 130.854C671.951 130.584 672.638 130.449 673.405 130.449C674.484 130.449 675.332 130.686 675.947 131.159C676.568 131.633 677.008 132.258 677.268 133.034ZM684.564 141.727C683.513 141.727 682.606 141.495 681.844 141.031C681.086 140.563 680.502 139.909 680.09 139.071C679.683 138.228 679.479 137.248 679.479 136.131C679.479 135.013 679.683 134.028 680.09 133.176C680.502 132.319 681.075 131.652 681.808 131.173C682.547 130.69 683.409 130.449 684.394 130.449C684.962 130.449 685.523 130.544 686.077 130.733C686.631 130.922 687.135 131.23 687.59 131.656C688.044 132.078 688.406 132.636 688.676 133.332C688.946 134.028 689.081 134.885 689.081 135.903V136.614H680.672V135.165H687.377C687.377 134.549 687.254 134 687.007 133.517C686.766 133.034 686.42 132.653 685.97 132.374C685.525 132.094 685 131.955 684.394 131.955C683.726 131.955 683.148 132.12 682.661 132.452C682.178 132.778 681.806 133.205 681.546 133.73C681.285 134.256 681.155 134.819 681.155 135.421V136.386C681.155 137.21 681.297 137.909 681.581 138.482C681.87 139.05 682.27 139.483 682.781 139.781C683.293 140.075 683.887 140.222 684.564 140.222C685.004 140.222 685.402 140.16 685.757 140.037C686.117 139.909 686.427 139.72 686.688 139.469C686.948 139.213 687.149 138.896 687.291 138.517L688.911 138.972C688.74 139.521 688.454 140.004 688.051 140.421C687.649 140.832 687.152 141.154 686.56 141.386C685.968 141.614 685.303 141.727 684.564 141.727Z" fill="#F4F4F4"/>
<path d="M634.182 165.5V150.955H639.097C640.238 150.955 641.171 151.161 641.895 151.573C642.625 151.98 643.164 152.531 643.515 153.227C643.865 153.923 644.04 154.7 644.04 155.557C644.04 156.414 643.865 157.193 643.515 157.894C643.169 158.594 642.634 159.153 641.91 159.57C641.185 159.982 640.257 160.188 639.126 160.188H635.603V158.625H639.069C639.85 158.625 640.477 158.49 640.951 158.22C641.424 157.95 641.768 157.586 641.981 157.126C642.198 156.662 642.307 156.139 642.307 155.557C642.307 154.974 642.198 154.454 641.981 153.994C641.768 153.535 641.422 153.175 640.944 152.915C640.466 152.65 639.831 152.517 639.04 152.517H635.944V165.5H634.182ZM646.65 165.5V154.591H648.27V156.239H648.383C648.582 155.699 648.942 155.261 649.463 154.925C649.984 154.589 650.571 154.421 651.224 154.421C651.347 154.421 651.501 154.423 651.686 154.428C651.871 154.432 652.01 154.439 652.105 154.449V156.153C652.048 156.139 651.918 156.118 651.714 156.09C651.515 156.056 651.305 156.04 651.082 156.04C650.552 156.04 650.078 156.151 649.662 156.374C649.25 156.591 648.923 156.894 648.682 157.283C648.445 157.666 648.327 158.104 648.327 158.597V165.5H646.65ZM658.192 165.727C657.207 165.727 656.343 165.493 655.599 165.024C654.861 164.555 654.283 163.9 653.866 163.057C653.454 162.214 653.248 161.229 653.248 160.102C653.248 158.966 653.454 157.974 653.866 157.126C654.283 156.279 654.861 155.621 655.599 155.152C656.343 154.683 657.207 154.449 658.192 154.449C659.176 154.449 660.038 154.683 660.777 155.152C661.52 155.621 662.098 156.279 662.51 157.126C662.926 157.974 663.135 158.966 663.135 160.102C663.135 161.229 662.926 162.214 662.51 163.057C662.098 163.9 661.52 164.555 660.777 165.024C660.038 165.493 659.176 165.727 658.192 165.727ZM658.192 164.222C658.94 164.222 659.555 164.03 660.038 163.646C660.521 163.263 660.879 162.759 661.111 162.134C661.343 161.509 661.459 160.832 661.459 160.102C661.459 159.373 661.343 158.694 661.111 158.064C660.879 157.434 660.521 156.925 660.038 156.537C659.555 156.149 658.94 155.955 658.192 155.955C657.444 155.955 656.828 156.149 656.345 156.537C655.862 156.925 655.505 157.434 655.273 158.064C655.041 158.694 654.925 159.373 654.925 160.102C654.925 160.832 655.041 161.509 655.273 162.134C655.505 162.759 655.862 163.263 656.345 163.646C656.828 164.03 657.444 164.222 658.192 164.222ZM670.125 165.727C669.102 165.727 668.222 165.486 667.483 165.003C666.745 164.52 666.176 163.855 665.779 163.007C665.381 162.16 665.182 161.191 665.182 160.102C665.182 158.994 665.386 158.017 665.793 157.169C666.205 156.317 666.778 155.652 667.512 155.173C668.25 154.69 669.112 154.449 670.097 154.449C670.864 154.449 671.555 154.591 672.171 154.875C672.786 155.159 673.29 155.557 673.683 156.068C674.076 156.58 674.32 157.176 674.415 157.858H672.739C672.611 157.361 672.327 156.921 671.887 156.537C671.451 156.149 670.864 155.955 670.125 155.955C669.472 155.955 668.899 156.125 668.406 156.466C667.919 156.802 667.538 157.278 667.263 157.894C666.993 158.504 666.858 159.222 666.858 160.046C666.858 160.888 666.991 161.622 667.256 162.247C667.526 162.872 667.905 163.358 668.392 163.703C668.885 164.049 669.462 164.222 670.125 164.222C670.561 164.222 670.956 164.146 671.311 163.994C671.666 163.843 671.967 163.625 672.213 163.341C672.459 163.057 672.635 162.716 672.739 162.318H674.415C674.32 162.962 674.086 163.542 673.712 164.058C673.343 164.57 672.852 164.977 672.242 165.28C671.636 165.578 670.93 165.727 670.125 165.727ZM681.439 165.727C680.388 165.727 679.481 165.495 678.719 165.031C677.961 164.563 677.377 163.909 676.965 163.071C676.558 162.228 676.354 161.248 676.354 160.131C676.354 159.013 676.558 158.028 676.965 157.176C677.377 156.319 677.95 155.652 678.683 155.173C679.422 154.69 680.284 154.449 681.269 154.449C681.837 154.449 682.398 154.544 682.952 154.733C683.506 154.922 684.01 155.23 684.465 155.656C684.919 156.078 685.281 156.636 685.551 157.332C685.821 158.028 685.956 158.885 685.956 159.903V160.614H677.547V159.165H684.252C684.252 158.549 684.129 158 683.882 157.517C683.641 157.034 683.295 156.653 682.845 156.374C682.4 156.094 681.875 155.955 681.269 155.955C680.601 155.955 680.023 156.12 679.536 156.452C679.053 156.778 678.681 157.205 678.421 157.73C678.16 158.256 678.03 158.819 678.03 159.421V160.386C678.03 161.21 678.172 161.909 678.456 162.482C678.745 163.05 679.145 163.483 679.656 163.781C680.168 164.075 680.762 164.222 681.439 164.222C681.879 164.222 682.277 164.16 682.632 164.037C682.992 163.909 683.302 163.72 683.563 163.469C683.823 163.213 684.024 162.896 684.166 162.517L685.786 162.972C685.615 163.521 685.329 164.004 684.926 164.421C684.524 164.832 684.027 165.154 683.435 165.386C682.843 165.614 682.178 165.727 681.439 165.727ZM696.233 157.034L694.727 157.46C694.633 157.209 694.493 156.965 694.308 156.729C694.129 156.487 693.882 156.288 693.57 156.132C693.257 155.976 692.857 155.898 692.37 155.898C691.702 155.898 691.146 156.052 690.7 156.359C690.26 156.662 690.04 157.048 690.04 157.517C690.04 157.934 690.191 158.263 690.495 158.504C690.798 158.746 691.271 158.947 691.915 159.108L693.534 159.506C694.51 159.742 695.236 160.105 695.715 160.592C696.193 161.075 696.432 161.698 696.432 162.46C696.432 163.085 696.252 163.644 695.892 164.136C695.537 164.629 695.04 165.017 694.401 165.301C693.762 165.585 693.018 165.727 692.171 165.727C691.058 165.727 690.137 165.486 689.408 165.003C688.679 164.52 688.217 163.814 688.023 162.886L689.614 162.489C689.765 163.076 690.052 163.516 690.473 163.81C690.899 164.103 691.456 164.25 692.142 164.25C692.924 164.25 693.544 164.084 694.003 163.753C694.467 163.417 694.699 163.014 694.699 162.546C694.699 162.167 694.566 161.849 694.301 161.594C694.036 161.333 693.629 161.139 693.08 161.011L691.262 160.585C690.263 160.349 689.529 159.982 689.06 159.484C688.596 158.983 688.364 158.355 688.364 157.602C688.364 156.987 688.537 156.442 688.882 155.969C689.233 155.495 689.709 155.124 690.31 154.854C690.916 154.584 691.602 154.449 692.37 154.449C693.449 154.449 694.297 154.686 694.912 155.159C695.532 155.633 695.973 156.258 696.233 157.034ZM706.682 157.034L705.177 157.46C705.082 157.209 704.942 156.965 704.758 156.729C704.578 156.487 704.332 156.288 704.019 156.132C703.707 155.976 703.306 155.898 702.819 155.898C702.151 155.898 701.595 156.052 701.15 156.359C700.709 156.662 700.489 157.048 700.489 157.517C700.489 157.934 700.641 158.263 700.944 158.504C701.247 158.746 701.72 158.947 702.364 159.108L703.984 159.506C704.959 159.742 705.686 160.105 706.164 160.592C706.642 161.075 706.881 161.698 706.881 162.46C706.881 163.085 706.701 163.644 706.341 164.136C705.986 164.629 705.489 165.017 704.85 165.301C704.211 165.585 703.467 165.727 702.62 165.727C701.507 165.727 700.586 165.486 699.857 165.003C699.128 164.52 698.666 163.814 698.472 162.886L700.063 162.489C700.215 163.076 700.501 163.516 700.922 163.81C701.349 164.103 701.905 164.25 702.591 164.25C703.373 164.25 703.993 164.084 704.452 163.753C704.916 163.417 705.148 163.014 705.148 162.546C705.148 162.167 705.016 161.849 704.751 161.594C704.485 161.333 704.078 161.139 703.529 161.011L701.711 160.585C700.712 160.349 699.978 159.982 699.509 159.484C699.045 158.983 698.813 158.355 698.813 157.602C698.813 156.987 698.986 156.442 699.332 155.969C699.682 155.495 700.158 155.124 700.759 154.854C701.365 154.584 702.052 154.449 702.819 154.449C703.898 154.449 704.746 154.686 705.361 155.159C705.982 155.633 706.422 156.258 706.682 157.034Z" fill="#F4F4F4"/>
<path d="M568.421 103H582.421H596.421V123V143H610.421H623.011" stroke="#E8E8E8"/>
<path d="M618.721 147.6L623.321 143L618.721 138.4" stroke="#E8E8E8"/>
<path d="M404.421 103H432.421H459.011" stroke="#E8E8E8"/>
<path d="M454.721 107.6L459.321 103L454.721 98.4001" stroke="#E8E8E8"/>
<path d="M240.421 103H268.421H295.011" stroke="#F4F4F4"/>
<path d="M290.721 107.6L295.321 103L290.721 98.4001" stroke="#F4F4F4"/>
<path d="M52.4211 103H80.4211H107.011" stroke="#E8E8E8"/>
<path d="M102.721 107.6L107.321 103L102.721 98.4001" stroke="#E8E8E8"/>
<path d="M568.421 103H582.421H596.421V83.0001V63.0001H610.421H623.011" stroke="#E8E8E8"/>
<path d="M618.721 67.6001L623.321 63.0001L618.721 58.4001" stroke="#E8E8E8"/>
<path d="M908.421 143H922.421H936.421V72.0001V1.00006H602.421H268.421V52.0001V103H282.421H295.011" stroke="#E8E8E8"/>
<path d="M290.721 107.6L295.321 103L290.721 98.4001" stroke="#E8E8E8"/>
<path d="M720.421 143H748.421H775.011" stroke="#E8E8E8"/>
<path d="M770.721 147.6L775.321 143L770.721 138.4" stroke="#E8E8E8"/>
</svg>
