<svg xmlns="http://www.w3.org/2000/svg" width="1081" height="1119" fill="none" viewBox="0 0 1081 1119"><path fill="#00473a" d="M842 96h119v120H842z"/><path fill="#002647" d="M2 122c0-14.912 12.088-27 27-27h92v120H29c-14.912 0-27-12.088-27-27zM122 900h119v120H122z"/><path fill="#00473a" d="M842 388h119v120H842z"/><rect width="1079" height="120" x="1" y="96" stroke="#dbdbdb" stroke-width="2" rx="26"/><rect width="959" height="120" x="121" y="388" stroke="#dbdbdb" stroke-width="2" rx="26"/><rect width="1079" height="120" x="1" y="900" stroke="#dbdbdb" stroke-width="2" rx="26"/><path stroke="#dbdbdb" stroke-width="2" d="M121 95v122M121 899v122M241 95v122M241 387v122M241 899v122M361 95v122M361 387v122M361 899v122M482 95v122M482 387v122M482 899v122M602 95v122M602 387v122M602 899v122M722 95v122M722 387v122M722 899v122M842 95v122M842 387v122M842 899v122M962 95v122M962 387v122M962 899v122"/><path fill="#fff" d="M47.7 170.398q-2.5 0-4.503-.995-2.003-.994-3.21-2.727t-1.321-3.949h3.409q.2 1.976 1.79 3.267 1.605 1.28 3.835 1.279 1.79 0 3.182-.838a5.9 5.9 0 0 0 2.202-2.301q.81-1.478.81-3.339 0-1.903-.839-3.394a6.15 6.15 0 0 0-2.273-2.373q-1.449-.866-3.31-.88a9 9 0 0 0-2.74.412q-1.407.411-2.316 1.065l-3.296-.398 1.762-14.318h15.113v3.125H43.836l-1.022 8.58h.17q.895-.711 2.244-1.179a8.5 8.5 0 0 1 2.813-.469q2.67 0 4.758 1.278a8.93 8.93 0 0 1 3.296 3.466q1.207 2.202 1.207 5.029 0 2.784-1.25 4.971a9.14 9.14 0 0 1-3.409 3.438q-2.173 1.25-4.943 1.25m25.075 0q-2.814 0-5.015-.966-2.187-.966-3.48-2.685-1.278-1.733-1.392-4.02h3.58q.112 1.407.966 2.429.852 1.009 2.23 1.563 1.377.554 3.054.554 1.875 0 3.323-.654 1.45-.653 2.273-1.818.824-1.164.824-2.699 0-1.605-.795-2.826-.795-1.236-2.33-1.932-1.534-.696-3.75-.696h-2.33v-3.125h2.33q1.733 0 3.04-.625 1.32-.625 2.06-1.762.752-1.136.752-2.67 0-1.478-.653-2.571-.654-1.093-1.847-1.705-1.179-.61-2.784-.61-1.506 0-2.84.554-1.322.539-2.16 1.576-.837 1.023-.909 2.472h-3.409q.085-2.287 1.378-4.006 1.293-1.733 3.38-2.699 2.103-.966 4.617-.966 2.7 0 4.63 1.094 1.933 1.08 2.97 2.855a7.5 7.5 0 0 1 1.037 3.835q0 2.458-1.293 4.191-1.278 1.733-3.48 2.4v.228q2.756.454 4.304 2.343 1.548 1.876 1.548 4.645 0 2.373-1.293 4.262-1.278 1.874-3.494 2.954t-5.042 1.08M47.7 974.398q-2.5 0-4.503-.995-2.003-.994-3.21-2.727t-1.321-3.949h3.409q.2 1.976 1.79 3.267 1.605 1.28 3.835 1.279 1.79 0 3.182-.838a5.9 5.9 0 0 0 2.202-2.301q.81-1.477.81-3.339 0-1.903-.839-3.394a6.15 6.15 0 0 0-2.273-2.373q-1.449-.866-3.31-.88a9 9 0 0 0-2.74.412q-1.407.411-2.316 1.065l-3.296-.398 1.762-14.318h15.113v3.125H43.836l-1.022 8.58h.17q.895-.711 2.244-1.179a8.5 8.5 0 0 1 2.813-.469q2.67 0 4.758 1.278a8.93 8.93 0 0 1 3.296 3.466q1.207 2.202 1.207 5.029 0 2.784-1.25 4.971a9.14 9.14 0 0 1-3.409 3.438q-2.173 1.25-4.943 1.25m25.075 0q-2.814 0-5.015-.966-2.187-.966-3.48-2.685-1.278-1.732-1.392-4.02h3.58q.112 1.406.966 2.429.852 1.009 2.23 1.563 1.377.554 3.054.554 1.875 0 3.323-.654 1.45-.653 2.273-1.818.824-1.164.824-2.699 0-1.605-.795-2.826-.795-1.236-2.33-1.932-1.534-.696-3.75-.696h-2.33v-3.125h2.33q1.733 0 3.04-.625 1.32-.625 2.06-1.762.752-1.135.752-2.67 0-1.477-.653-2.571-.654-1.093-1.847-1.705-1.179-.61-2.784-.61-1.506 0-2.84.554-1.322.539-2.16 1.576-.837 1.023-.909 2.472h-3.409q.085-2.287 1.378-4.006 1.293-1.733 3.38-2.699 2.103-.966 4.617-.966 2.7 0 4.63 1.094 1.933 1.08 2.97 2.855a7.5 7.5 0 0 1 1.037 3.835q0 2.458-1.293 4.191-1.278 1.733-3.48 2.4v.228q2.756.455 4.304 2.343 1.548 1.876 1.548 4.645 0 2.372-1.293 4.262-1.278 1.875-3.494 2.954t-5.042 1.08M166.968 140.511q1.79.015 3.58.682 1.79.668 3.267 2.216 1.476 1.535 2.372 4.19.895 2.657.895 6.662 0 3.879-.739 6.89-.725 2.997-2.102 5.056-1.363 2.06-3.324 3.125-1.946 1.066-4.404 1.066-2.442 0-4.36-.966a8.56 8.56 0 0 1-3.125-2.713q-1.207-1.747-1.549-4.049h3.466q.47 2.004 1.861 3.31 1.406 1.293 3.707 1.293 3.367 0 5.313-2.941 1.96-2.94 1.96-8.309h-.227a8.9 8.9 0 0 1-1.889 2.059 8.3 8.3 0 0 1-2.429 1.336 8.5 8.5 0 0 1-2.841.468q-2.5 0-4.588-1.235-2.075-1.25-3.324-3.424-1.236-2.187-1.236-5 0-2.67 1.193-4.886a9.2 9.2 0 0 1 3.381-3.551q2.187-1.321 5.142-1.279m0 3.125q-1.79 0-3.224.895a6.44 6.44 0 0 0-2.259 2.387q-.824 1.491-.824 3.309t.796 3.31a6.34 6.34 0 0 0 2.201 2.358q1.407.867 3.196.866 1.35 0 2.515-.525a6.5 6.5 0 0 0 2.031-1.463 7.1 7.1 0 0 0 1.378-2.117 6.4 6.4 0 0 0 .497-2.486 6.5 6.5 0 0 0-.824-3.196 6.54 6.54 0 0 0-2.244-2.414q-1.42-.924-3.239-.924m25.018 26.762q-2.926 0-5.171-1.037-2.229-1.051-3.48-2.884-1.25-1.846-1.236-4.204-.014-1.847.725-3.409a7.4 7.4 0 0 1 2.017-2.628 6.2 6.2 0 0 1 2.883-1.35v-.17q-2.088-.54-3.323-2.344-1.236-1.818-1.222-4.133-.013-2.217 1.122-3.963 1.137-1.748 3.125-2.756 2.002-1.008 4.56-1.009 2.528 0 4.517 1.009 1.988 1.008 3.125 2.756 1.15 1.746 1.165 3.963-.014 2.315-1.265 4.133-1.235 1.804-3.281 2.344v.17q1.576.285 2.841 1.35 1.264 1.05 2.017 2.628.753 1.562.767 3.409-.014 2.358-1.278 4.204-1.251 1.833-3.48 2.884-2.217 1.037-5.128 1.037m0-3.125q1.974 0 3.409-.639 1.434-.64 2.216-1.804t.795-2.728q-.014-1.647-.852-2.912-.838-1.263-2.287-1.988-1.434-.725-3.281-.725-1.861 0-3.324.725-1.449.725-2.287 1.988-.824 1.265-.81 2.912-.014 1.563.753 2.728.781 1.164 2.23 1.804 1.449.639 3.438.639m0-13.807q1.562 0 2.77-.625a4.76 4.76 0 0 0 1.917-1.747q.696-1.122.711-2.628-.015-1.478-.696-2.571a4.5 4.5 0 0 0-1.89-1.705q-1.207-.61-2.812-.61-1.634 0-2.855.61-1.222.597-1.89 1.705-.667 1.094-.653 2.571-.014 1.506.668 2.628a4.76 4.76 0 0 0 1.917 1.747q1.222.625 2.813.625M156.83 456.034v-2.898l12.784-20.227h2.102v4.489h-1.421l-9.659 15.284v.227h17.216v3.125zM170.523 462v-29.091h3.352V462zm21.743.398q-2.499 0-4.503-.995-2.002-.994-3.21-2.727-1.207-1.732-1.321-3.949h3.409q.2 1.976 1.79 3.267 1.605 1.28 3.835 1.279 1.79 0 3.182-.838a5.9 5.9 0 0 0 2.202-2.301q.81-1.478.81-3.339 0-1.902-.839-3.394a6.15 6.15 0 0 0-2.272-2.373q-1.449-.866-3.31-.88a9 9 0 0 0-2.741.412q-1.407.411-2.316 1.065l-3.295-.398 1.761-14.318h15.114v3.125h-12.159l-1.023 8.58h.17q.895-.711 2.245-1.179a8.5 8.5 0 0 1 2.812-.469q2.671 0 4.759 1.278a8.93 8.93 0 0 1 3.295 3.466q1.208 2.202 1.208 5.029 0 2.784-1.25 4.971a9.15 9.15 0 0 1-3.409 3.438q-2.174 1.25-4.944 1.25M167.522 974.398a10.9 10.9 0 0 1-3.58-.682q-1.79-.654-3.267-2.202-1.476-1.562-2.372-4.219-.895-2.67-.895-6.704 0-3.864.725-6.847.725-2.997 2.102-5.042 1.379-2.06 3.324-3.125 1.96-1.066 4.418-1.066 2.442 0 4.346.98a8.3 8.3 0 0 1 3.125 2.699q1.208 1.734 1.563 3.992h-3.466q-.483-1.96-1.875-3.253t-3.693-1.293q-3.381 0-5.327 2.941-1.932 2.94-1.946 8.253h.227a8.54 8.54 0 0 1 4.332-3.395 8.5 8.5 0 0 1 2.827-.469q2.5 0 4.574 1.25 2.075 1.236 3.324 3.423 1.25 2.173 1.25 4.986 0 2.699-1.207 4.943a9.2 9.2 0 0 1-3.395 3.551q-2.174 1.308-5.114 1.279m0-3.125q1.79 0 3.21-.895a6.4 6.4 0 0 0 2.259-2.401q.838-1.506.838-3.352 0-1.804-.81-3.281a6.16 6.16 0 0 0-2.202-2.372q-1.392-.881-3.181-.881-1.35 0-2.515.54a6.5 6.5 0 0 0-2.045 1.449 7 7 0 0 0-1.364 2.116 6.3 6.3 0 0 0-.497 2.486q0 1.733.81 3.238a6.66 6.66 0 0 0 2.244 2.429q1.435.924 3.253.924m24.393 3.125q-2.5 0-4.503-.995-2.003-.994-3.21-2.727-1.208-1.732-1.321-3.949h3.409q.198 1.976 1.79 3.267 1.605 1.28 3.835 1.279 1.79 0 3.182-.838a5.9 5.9 0 0 0 2.201-2.301q.81-1.477.81-3.339 0-1.903-.838-3.394a6.15 6.15 0 0 0-2.273-2.373q-1.449-.866-3.309-.88a9 9 0 0 0-2.742.412q-1.406.411-2.315 1.065l-3.296-.398 1.762-14.318h15.113v3.125h-12.159l-1.023 8.58h.171q.895-.711 2.244-1.179a8.5 8.5 0 0 1 2.813-.469q2.67 0 4.758 1.278a8.93 8.93 0 0 1 3.296 3.466q1.207 2.202 1.207 5.029 0 2.784-1.25 4.971a9.14 9.14 0 0 1-3.409 3.438q-2.174 1.25-4.943 1.25M259.905 1099h-2.113a4.4 4.4 0 0 0-.657-1.6 4.4 4.4 0 0 0-1.125-1.16 4.8 4.8 0 0 0-1.457-.72 5.8 5.8 0 0 0-1.671-.24q-1.584 0-2.872.81c-.852.53-1.531 1.32-2.037 2.36-.5 1.04-.75 2.31-.75 3.82s.25 2.79.75 3.83c.506 1.04 1.185 1.83 2.037 2.36.858.53 1.816.8 2.872.8q.87 0 1.671-.24c.534-.16 1.02-.39 1.457-.7q.664-.48 1.125-1.17c.313-.47.532-1 .657-1.6h2.113c-.159.89-.449 1.69-.869 2.39q-.631 1.05-1.568 1.8c-.625.49-1.327.86-2.105 1.12-.773.25-1.6.38-2.481.38-1.488 0-2.812-.36-3.971-1.09s-2.071-1.76-2.736-3.1c-.665-1.35-.997-2.94-.997-4.78q0-2.76.997-4.77c.665-1.34 1.577-2.38 2.736-3.1 1.159-.73 2.483-1.09 3.971-1.09.881 0 1.708.12 2.481.38.778.26 1.48.63 2.105 1.13a6.25 6.25 0 0 1 1.568 1.79c.42.69.71 1.49.869 2.39m11.393 6.65v-7.74h2.011V1111h-2.011v-2.22h-.136c-.307.67-.785 1.23-1.432 1.7q-.972.69-2.455.69-1.227 0-2.182-.54c-.636-.36-1.136-.91-1.5-1.63-.363-.74-.545-1.66-.545-2.77v-8.32h2.011v8.18c0 .96.267 1.72.801 2.29.54.56 1.228.85 2.063.85q.75 0 1.526-.39.783-.375 1.312-1.17c.358-.53.537-1.2.537-2.02m5.695 5.35v-13.09h1.943v1.98h.137c.238-.65.67-1.18 1.295-1.58s1.33-.61 2.114-.61c.148 0 .332.01.554.01q.332.015.503.03v2.04c-.068-.01-.225-.04-.469-.07a4.6 4.6 0 0 0-.759-.06c-.636 0-1.204.13-1.704.4-.494.26-.886.62-1.176 1.09-.284.46-.426.98-.426 1.58v8.28zm8.93 0v-13.09h1.943v1.98h.136c.239-.65.671-1.18 1.296-1.58s1.329-.61 2.114-.61c.147 0 .332.01.554.01q.332.015.502.03v2.04c-.068-.01-.224-.04-.468-.07a4.6 4.6 0 0 0-.759-.06c-.636 0-1.204.13-1.704.4-.495.26-.887.62-1.177 1.09-.284.46-.426.98-.426 1.58v8.28zm14.02.27c-1.262 0-2.35-.28-3.264-.83-.909-.56-1.611-1.35-2.105-2.35-.489-1.02-.733-2.19-.733-3.53s.244-2.53.733-3.55q.74-1.545 2.062-2.4 1.329-.87 3.102-.87c.682 0 1.355.11 2.02.34q.997.345 1.816 1.11.818.75 1.303 2.01c.324.83.486 1.86.486 3.08v.86h-10.091v-1.74h8.046q0-1.11-.443-1.98a3.3 3.3 0 0 0-1.245-1.37c-.534-.34-1.164-.5-1.892-.5-.801 0-1.494.19-2.079.59-.58.39-1.026.91-1.338 1.54s-.469 1.3-.469 2.02v1.16q0 1.485.511 2.52.52 1.02 1.441 1.56c.613.35 1.326.53 2.139.53.528 0 1.006-.08 1.432-.23.431-.15.804-.38 1.116-.68s.554-.69.725-1.14l1.943.55a4.35 4.35 0 0 1-1.032 1.73c-.482.5-1.079.89-1.789 1.16-.711.28-1.509.41-2.395.41m10.491-8.15v7.88h-2.011v-13.09h1.943v2.04h.171c.306-.66.772-1.19 1.397-1.6s1.432-.61 2.421-.61q1.33 0 2.326.54c.665.36 1.182.91 1.552 1.64q.554 1.095.554 2.76v8.32h-2.012v-8.18c0-1.03-.267-1.83-.801-2.41-.534-.57-1.267-.86-2.199-.86-.642 0-1.216.13-1.721.41-.5.28-.895.69-1.185 1.22-.29.54-.435 1.18-.435 1.94m17.721-5.21v1.7h-6.784v-1.7zm-4.807-3.14h2.012v12.48c0 .57.082.99.247 1.28.17.28.386.46.648.56.267.09.548.14.843.14.222 0 .404-.01.546-.04s.256-.05.341-.07l.409 1.81c-.137.05-.327.1-.571.16-.245.05-.554.08-.929.08a4 4 0 0 1-1.671-.37 3.27 3.27 0 0 1-1.346-1.11q-.528-.75-.529-1.89zm14.855 16.23v-17.45h2.114v7.77h9.307v-7.77h2.114V1111h-2.114v-7.81h-9.307v7.81zm22.982.27c-1.261 0-2.349-.28-3.264-.83-.909-.56-1.611-1.35-2.105-2.35-.489-1.02-.733-2.19-.733-3.53s.244-2.53.733-3.55q.742-1.545 2.062-2.4 1.33-.87 3.102-.87c.682 0 1.356.11 2.02.34q.997.345 1.816 1.11.818.75 1.304 2.01c.324.83.485 1.86.485 3.08v.86h-10.09v-1.74h8.045q0-1.11-.443-1.98a3.3 3.3 0 0 0-1.244-1.37c-.535-.34-1.165-.5-1.893-.5-.801 0-1.494.19-2.079.59-.58.39-1.026.91-1.338 1.54s-.469 1.3-.469 2.02v1.16q0 1.485.511 2.52.52 1.02 1.441 1.56c.613.35 1.327.53 2.139.53.528 0 1.006-.08 1.432-.23.432-.15.804-.38 1.116-.68s.554-.69.725-1.14l1.943.55a4.34 4.34 0 0 1-1.031 1.73c-.483.5-1.08.89-1.79 1.16-.71.28-1.509.41-2.395.41m12.332.04c-.829 0-1.582-.16-2.258-.47a3.94 3.94 0 0 1-1.611-1.37c-.398-.61-.597-1.33-.597-2.19 0-.75.148-1.35.444-1.82q.443-.705 1.184-1.11a6.5 6.5 0 0 1 1.637-.59q.903-.21 1.815-.33c.795-.1 1.44-.18 1.935-.23.5-.06.863-.15 1.091-.28.233-.13.349-.36.349-.68v-.07c0-.84-.23-1.49-.69-1.96-.455-.47-1.145-.7-2.071-.7q-1.44 0-2.259.63-.818.63-1.15 1.35l-1.91-.68q.512-1.2 1.364-1.86a5.2 5.2 0 0 1 1.875-.94 7.9 7.9 0 0 1 2.011-.27q.632 0 1.449.15c.551.1 1.083.3 1.594.61.517.3.946.77 1.287 1.39q.511.93.511 2.49v8.62h-2.011v-1.77h-.102c-.137.28-.364.59-.682.91s-.742.6-1.27.83c-.528.22-1.173.34-1.935.34m.307-1.81c.796 0 1.466-.16 2.012-.47.551-.31.965-.71 1.244-1.21q.426-.735.426-1.56v-1.84c-.085.1-.273.2-.562.28a9 9 0 0 1-.989.21c-.369.06-.73.11-1.082.16-.347.04-.628.07-.844.1q-.785.105-1.466.33c-.449.15-.813.37-1.091.68-.273.29-.409.69-.409 1.21 0 .7.258 1.22.775 1.58.523.35 1.185.53 1.986.53m14.308 1.77c-1.091 0-2.054-.27-2.889-.82-.836-.56-1.489-1.34-1.961-2.36q-.707-1.515-.707-3.6c0-1.38.236-2.57.707-3.58q.708-1.515 1.969-2.34c.841-.56 1.813-.83 2.915-.83q1.278 0 2.02.42.75.42 1.142.96.4.525.622.87h.17v-6.44h2.012V1111h-1.943v-2.01h-.239q-.222.36-.631.9c-.272.36-.662.68-1.167.97-.506.27-1.179.41-2.02.41m.272-1.8q1.21 0 2.046-.63.835-.645 1.27-1.77c.29-.75.434-1.63.434-2.62 0-.97-.142-1.83-.426-2.56-.284-.74-.704-1.31-1.261-1.72-.557-.42-1.244-.62-2.063-.62-.852 0-1.562.21-2.13.65q-.844.645-1.27 1.77c-.279.73-.418 1.56-.418 2.48 0 .94.142 1.78.426 2.54.29.76.716 1.36 1.279 1.81.568.44 1.273.67 2.113.67M278.383 140.909V170h-3.523v-25.398h-.17l-7.102 4.716v-3.579l7.272-4.83zm17.685 29.489q-2.926 0-5.171-1.037-2.229-1.051-3.48-2.884-1.25-1.846-1.236-4.204-.014-1.847.725-3.409a7.4 7.4 0 0 1 2.017-2.628 6.2 6.2 0 0 1 2.883-1.35v-.17q-2.088-.54-3.323-2.344-1.236-1.818-1.222-4.133-.013-2.217 1.122-3.963 1.136-1.748 3.125-2.756 2.002-1.008 4.56-1.009 2.528 0 4.517 1.009 1.988 1.008 3.125 2.756 1.15 1.746 1.165 3.963-.014 2.315-1.265 4.133-1.235 1.804-3.281 2.344v.17q1.576.285 2.841 1.35 1.264 1.05 2.017 2.628.753 1.562.767 3.409-.013 2.358-1.278 4.204-1.251 1.833-3.48 2.884-2.217 1.037-5.128 1.037m0-3.125q1.974 0 3.409-.639 1.434-.64 2.216-1.804.781-1.165.795-2.728-.014-1.647-.852-2.912-.838-1.263-2.287-1.988-1.434-.725-3.281-.725-1.861 0-3.324.725-1.449.725-2.287 1.988-.823 1.265-.81 2.912-.013 1.563.753 2.728.781 1.164 2.23 1.804 1.449.639 3.438.639m0-13.807q1.562 0 2.77-.625a4.76 4.76 0 0 0 1.917-1.747q.696-1.122.711-2.628-.015-1.478-.696-2.571a4.5 4.5 0 0 0-1.89-1.705q-1.207-.61-2.812-.61-1.634 0-2.855.61-1.222.597-1.889 1.705-.668 1.094-.654 2.571-.014 1.506.668 2.628a4.76 4.76 0 0 0 1.917 1.747q1.222.625 2.813.625m25.16 16.932q-2.813 0-5.015-.966-2.187-.966-3.48-2.685-1.278-1.733-1.392-4.02h3.58q.114 1.407.966 2.429.852 1.009 2.23 1.563 1.377.554 3.054.554 1.875 0 3.324-.654 1.449-.653 2.272-1.818.825-1.164.824-2.699 0-1.605-.795-2.826-.795-1.236-2.33-1.932-1.533-.696-3.75-.696h-2.329v-3.125h2.329q1.734 0 3.04-.625 1.321-.625 2.06-1.762.753-1.136.753-2.67 0-1.478-.654-2.571-.653-1.093-1.846-1.705-1.179-.61-2.785-.61-1.505 0-2.84.554-1.321.539-2.16 1.576-.837 1.023-.909 2.472h-3.409q.085-2.287 1.378-4.006 1.293-1.733 3.381-2.699 2.102-.966 4.616-.966 2.7 0 4.631 1.094 1.931 1.08 2.969 2.855a7.5 7.5 0 0 1 1.037 3.835q0 2.458-1.293 4.191-1.278 1.733-3.48 2.4v.228q2.756.454 4.304 2.343 1.548 1.876 1.548 4.645 0 2.373-1.292 4.262-1.279 1.874-3.495 2.954t-5.042 1.08M278.207 432.909V462h-3.522v-25.398h-.171l-7.102 4.716v-3.579l7.273-4.83zm18.196 29.489q-2.812 0-5.014-.966-2.187-.966-3.48-2.685-1.278-1.733-1.392-4.02h3.58q.113 1.407.965 2.429.853 1.009 2.231 1.563t3.054.554q1.875 0 3.323-.654 1.45-.652 2.273-1.818.824-1.164.824-2.699 0-1.605-.795-2.826-.796-1.236-2.33-1.932t-3.75-.696h-2.33v-3.125h2.33q1.733 0 3.04-.625 1.321-.625 2.059-1.762.753-1.135.753-2.67 0-1.477-.653-2.571-.653-1.093-1.847-1.705-1.179-.61-2.784-.61a7.3 7.3 0 0 0-2.841.554q-1.32.539-2.159 1.576-.838 1.023-.909 2.472h-3.409q.085-2.287 1.378-4.006 1.293-1.733 3.381-2.699 2.102-.966 4.616-.966 2.699 0 4.631 1.094 1.932 1.08 2.968 2.855a7.47 7.47 0 0 1 1.037 3.835q0 2.458-1.292 4.191-1.279 1.732-3.48 2.4v.228q2.755.454 4.304 2.343 1.548 1.876 1.548 4.645 0 2.372-1.293 4.262-1.278 1.874-3.494 2.954t-5.043 1.08m25.128 0q-3.21 0-5.469-1.747-2.258-1.762-3.451-5.1-1.193-3.353-1.193-8.096 0-4.716 1.193-8.054 1.207-3.353 3.466-5.114 2.273-1.776 5.454-1.776 3.182 0 5.441 1.776 2.272 1.761 3.466 5.114 1.207 3.338 1.207 8.054 0 4.743-1.193 8.096-1.193 3.338-3.452 5.1-2.259 1.746-5.469 1.747m0-3.125q3.182 0 4.943-3.068 1.762-3.07 1.762-8.75 0-3.778-.81-6.435-.795-2.656-2.301-4.048-1.491-1.392-3.594-1.392-3.153 0-4.929 3.11-1.775 3.097-1.775 8.765 0 3.778.795 6.42.796 2.642 2.287 4.02 1.506 1.377 3.622 1.378M305.869 959.966v3.125h-12.727v-3.125zM408.181 170.398q-2.813 0-5.014-.966-2.188-.966-3.481-2.685-1.278-1.733-1.392-4.02h3.58q.114 1.407.966 2.429.852 1.009 2.23 1.563t3.054.554q1.875 0 3.324-.654 1.448-.653 2.273-1.818.823-1.164.823-2.699 0-1.605-.795-2.826-.795-1.236-2.33-1.932-1.533-.696-3.75-.696h-2.329v-3.125h2.329q1.734 0 3.04-.625 1.321-.625 2.06-1.762.753-1.136.753-2.67 0-1.478-.654-2.571-.653-1.093-1.846-1.705-1.179-.61-2.784-.61a7.3 7.3 0 0 0-2.841.554q-1.322.539-2.159 1.576-.838 1.023-.91 2.472h-3.409q.085-2.287 1.378-4.006 1.293-1.733 3.381-2.699 2.102-.966 4.616-.966 2.7 0 4.631 1.094 1.932 1.08 2.969 2.855a7.5 7.5 0 0 1 1.037 3.835q0 2.458-1.293 4.191-1.278 1.733-3.48 2.4v.228q2.756.454 4.304 2.343 1.548 1.876 1.548 4.645 0 2.373-1.292 4.262-1.279 1.874-3.495 2.954t-5.042 1.08m16.548-.398 13.011-25.739v-.227h-15v-3.125h18.637v3.296L428.422 170zM410.961 432.909V462h-3.522v-25.398h-.171l-7.102 4.716v-3.579l7.273-4.83zm18.026 29.489a10.9 10.9 0 0 1-3.58-.682q-1.79-.654-3.267-2.202-1.477-1.562-2.372-4.219-.895-2.67-.895-6.704 0-3.864.725-6.847.724-2.997 2.102-5.042 1.377-2.06 3.324-3.125 1.96-1.066 4.417-1.066 2.443 0 4.347.98a8.3 8.3 0 0 1 3.125 2.699q1.208 1.733 1.562 3.992h-3.465q-.483-1.96-1.875-3.253t-3.694-1.293q-3.38 0-5.326 2.941-1.932 2.94-1.946 8.253h.227a8.54 8.54 0 0 1 4.332-3.395 8.5 8.5 0 0 1 2.827-.469q2.5 0 4.574 1.25 2.073 1.236 3.324 3.423 1.25 2.173 1.25 4.986 0 2.699-1.208 4.943a9.2 9.2 0 0 1-3.395 3.551q-2.173 1.308-5.113 1.279m0-3.125q1.79 0 3.21-.895a6.4 6.4 0 0 0 2.259-2.401q.837-1.506.838-3.352 0-1.804-.81-3.281a6.16 6.16 0 0 0-2.202-2.372q-1.391-.881-3.182-.881-1.349 0-2.514.54a6.5 6.5 0 0 0-2.045 1.449 7 7 0 0 0-1.364 2.116 6.3 6.3 0 0 0-.497 2.486q0 1.733.81 3.238a6.66 6.66 0 0 0 2.244 2.429q1.435.924 3.253.924M425.869 959.966v3.125h-12.727v-3.125zM413.79 47h-10.312V17.91h10.397q4.389 0 7.557 1.746 3.168 1.734 4.872 4.986 1.719 3.253 1.719 7.784 0 4.546-1.719 7.813-1.705 3.268-4.9 5.014Q418.223 47 413.79 47m-4.162-5.27h3.906q2.728 0 4.589-.966 1.875-.98 2.812-3.025.952-2.06.952-5.313 0-3.224-.952-5.27-.938-2.045-2.798-3.011t-4.588-.966h-3.921zM432.466 47V25.182h6.051V47zm3.039-24.63q-1.349 0-2.315-.896-.952-.909-.952-2.173 0-1.25.952-2.145.966-.909 2.315-.909 1.35 0 2.301.91.966.893.966 2.144 0 1.264-.966 2.173-.951.895-2.301.895m26.012 9.033-5.539.341a2.9 2.9 0 0 0-.611-1.278 3.25 3.25 0 0 0-1.236-.923q-.753-.355-1.804-.355-1.406 0-2.372.596-.966.583-.966 1.563 0 .78.625 1.32t2.145.867l3.949.796q3.181.653 4.744 2.102t1.563 3.807q0 2.145-1.265 3.764-1.25 1.62-3.437 2.528-2.173.895-5.014.895-4.333 0-6.904-1.804-2.556-1.818-2.997-4.943l5.952-.312q.27 1.32 1.307 2.017 1.036.681 2.656.681 1.59 0 2.557-.61.98-.625.994-1.606-.014-.824-.696-1.349-.682-.54-2.102-.824l-3.779-.753q-3.196-.64-4.758-2.216-1.548-1.575-1.549-4.02 0-2.101 1.137-3.622 1.15-1.52 3.224-2.343 2.088-.825 4.887-.824 4.133 0 6.505 1.747 2.387 1.747 2.784 4.758m9.791 9.319.014-7.259h.881l6.988-8.281h6.946l-9.389 10.966h-1.434zM465.825 47V17.91h6.051V47zm13.636 0-6.42-9.503 4.034-4.275L486.549 47zm19.017 0V17.91h11.477q3.295 0 5.625 1.178 2.343 1.165 3.565 3.31 1.236 2.13 1.236 5.014 0 2.898-1.25 4.986-1.25 2.073-3.622 3.182-2.358 1.108-5.71 1.108h-7.685v-4.944h6.69q1.762 0 2.926-.483 1.166-.483 1.733-1.448.583-.966.583-2.401 0-1.449-.583-2.443-.568-.994-1.747-1.506-1.164-.526-2.94-.526h-4.148V47zm15.71-13.239L521.418 47h-6.79l-7.074-13.239zm20.018 13.665q-3.367 0-5.796-1.364-2.415-1.377-3.721-3.892-1.308-2.527-1.307-5.98 0-3.366 1.307-5.909t3.679-3.963q2.386-1.42 5.596-1.42 2.16 0 4.02.696a8.9 8.9 0 0 1 3.267 2.06q1.407 1.377 2.188 3.465.78 2.074.781 4.858v1.662h-18.423v-3.75h12.727q0-1.307-.568-2.315a4.07 4.07 0 0 0-1.577-1.577q-.995-.582-2.315-.582-1.378 0-2.444.639-1.05.625-1.647 1.69-.597 1.051-.611 2.344v3.565q0 1.62.596 2.799a4.38 4.38 0 0 0 1.719 1.818q1.108.64 2.628.64 1.008 0 1.847-.285a3.8 3.8 0 0 0 1.434-.852q.597-.57.909-1.392l5.597.369a7.65 7.65 0 0 1-1.747 3.523q-1.307 1.49-3.381 2.33-2.06.823-4.758.823m28.38 7.756V43.506h-.184q-.426.909-1.208 1.804-.767.88-2.003 1.463-1.22.582-2.983.582-2.486 0-4.502-1.278-2.003-1.293-3.182-3.793-1.165-2.514-1.165-6.165 0-3.75 1.207-6.235 1.207-2.5 3.211-3.736a8.2 8.2 0 0 1 4.417-1.25q1.833 0 3.054.625 1.236.61 1.989 1.534.766.91 1.165 1.79h.255v-3.665h5.966v30zm-4.46-12.642q1.462 0 2.472-.796 1.022-.81 1.562-2.258.554-1.45.554-3.395t-.54-3.38q-.539-1.436-1.562-2.217-1.023-.78-2.486-.78-1.491 0-2.514.809-1.023.81-1.548 2.244t-.526 3.324q0 1.904.526 3.366.54 1.45 1.548 2.273 1.023.81 2.514.81m29.347-4.83V25.182h6.051V47h-5.81v-3.963h-.227a6.45 6.45 0 0 1-2.458 3.082q-1.704 1.165-4.161 1.165-2.188 0-3.85-.994t-2.599-2.827q-.923-1.832-.938-4.39V25.183h6.051v12.812q.014 1.932 1.037 3.054t2.742 1.122a4.35 4.35 0 0 0 2.045-.497q.952-.511 1.534-1.505.597-.994.583-2.458m20.834 9.716q-3.366 0-5.795-1.364-2.415-1.377-3.722-3.892-1.307-2.527-1.307-5.98 0-3.366 1.307-5.909t3.679-3.963q2.387-1.42 5.597-1.42 2.159 0 4.02.696a8.9 8.9 0 0 1 3.267 2.06q1.405 1.377 2.187 3.465.781 2.074.781 4.858v1.662h-18.423v-3.75h12.727q0-1.307-.568-2.315a4.07 4.07 0 0 0-1.577-1.577q-.993-.582-2.315-.582-1.377 0-2.443.639-1.051.625-1.648 1.69-.596 1.051-.611 2.344v3.565q0 1.62.597 2.799.61 1.179 1.719 1.818 1.107.64 2.628.64 1.008 0 1.846-.285a3.8 3.8 0 0 0 1.435-.852q.597-.57.909-1.392l5.597.369a7.65 7.65 0 0 1-1.748 3.523q-1.307 1.49-3.38 2.33-2.06.823-4.759.823m32.117-16.023-5.54.341a2.86 2.86 0 0 0-.611-1.278 3.24 3.24 0 0 0-1.236-.923q-.753-.355-1.804-.355-1.406 0-2.372.596-.966.583-.966 1.563 0 .78.625 1.32t2.145.867l3.949.796q3.182.653 4.744 2.102 1.563 1.449 1.563 3.807 0 2.145-1.264 3.764-1.251 1.62-3.438 2.528-2.173.895-5.014.895-4.332 0-6.904-1.804-2.556-1.818-2.997-4.943l5.952-.312q.27 1.32 1.307 2.017 1.037.681 2.656.681 1.591 0 2.557-.61.98-.625.994-1.606-.014-.824-.696-1.349-.681-.54-2.102-.824l-3.778-.753q-3.196-.64-4.759-2.216-1.548-1.575-1.548-4.02 0-2.101 1.136-3.622 1.15-1.52 3.225-2.343 2.088-.825 4.886-.824 4.134 0 6.506 1.747 2.385 1.747 2.784 4.758m15.912-6.221v4.545h-13.139v-4.545zm-10.156-5.227h6.051v20.34q0 .84.256 1.307.255.454.71.64.469.184 1.08.184.426 0 .852-.07.426-.086.653-.129l.952 4.503q-.455.143-1.278.327-.824.198-2.003.241-2.188.086-3.835-.582-1.634-.667-2.543-2.074t-.895-3.551zm31.978 11.448-5.54.341a2.85 2.85 0 0 0-.611-1.278 3.24 3.24 0 0 0-1.235-.923q-.753-.355-1.804-.355-1.407 0-2.372.596-.966.583-.966 1.563 0 .78.625 1.32.624.54 2.145.867l3.948.796q3.183.653 4.745 2.102t1.562 3.807q0 2.145-1.264 3.764-1.25 1.62-3.438 2.528-2.173.895-5.014.895-4.332 0-6.903-1.804-2.558-1.818-2.997-4.943l5.951-.312q.27 1.32 1.307 2.017 1.038.681 2.656.681 1.591 0 2.557-.61.98-.625.995-1.606-.015-.824-.696-1.349-.682-.54-2.103-.824l-3.778-.753q-3.196-.64-4.759-2.216-1.548-1.575-1.548-4.02 0-2.101 1.136-3.622 1.151-1.52 3.225-2.343 2.088-.825 4.886-.824 4.134 0 6.506 1.747 2.387 1.747 2.784 4.758M329.388 341h-10.313v-29.091h10.398q4.389 0 7.557 1.747 3.168 1.733 4.872 4.986 1.719 3.253 1.719 7.784 0 4.546-1.719 7.813-1.704 3.267-4.901 5.014-3.182 1.747-7.613 1.747m-4.162-5.27h3.906q2.727 0 4.588-.966 1.875-.98 2.813-3.025.951-2.06.951-5.313 0-3.224-.951-5.27-.937-2.045-2.799-3.011-1.86-.966-4.588-.966h-3.92zm22.837 5.27v-21.818h6.051V341zm3.04-24.631q-1.35 0-2.315-.895-.952-.909-.952-2.173 0-1.25.952-2.145.966-.909 2.315-.909 1.35 0 2.301.909.966.896.966 2.145 0 1.264-.966 2.173-.951.895-2.301.895m26.012 9.034-5.54.341a2.85 2.85 0 0 0-.611-1.278 3.24 3.24 0 0 0-1.235-.923q-.753-.355-1.804-.355-1.407 0-2.372.596-.966.582-.966 1.563 0 .78.625 1.321.624.539 2.145.866l3.948.796q3.182.653 4.745 2.102 1.562 1.449 1.562 3.807 0 2.145-1.264 3.764-1.25 1.619-3.437 2.528-2.174.895-5.015.895-4.332 0-6.903-1.804-2.557-1.818-2.997-4.943l5.951-.313q.27 1.322 1.307 2.018 1.038.681 2.657.681 1.59 0 2.556-.61.98-.625.995-1.606-.015-.824-.696-1.349-.683-.54-2.103-.824l-3.778-.753q-3.196-.639-4.759-2.216-1.548-1.577-1.548-4.019 0-2.102 1.136-3.623 1.151-1.52 3.225-2.343 2.088-.825 4.886-.824 4.134 0 6.506 1.747 2.387 1.748 2.784 4.758m15.913-6.221v4.545h-13.14v-4.545zm-10.157-5.227h6.052v20.34q0 .839.255 1.307.256.455.71.639.47.186 1.08.185.426 0 .852-.071.426-.085.654-.128l.951 4.503q-.454.143-1.278.327-.824.199-2.003.241-2.187.086-3.835-.582-1.634-.667-2.543-2.074t-.895-3.551zm20.32 27.457q-2.088 0-3.722-.724-1.633-.739-2.585-2.174-.937-1.448-.937-3.608 0-1.818.667-3.054a5.4 5.4 0 0 1 1.819-1.988 8.8 8.8 0 0 1 2.613-1.137 20 20 0 0 1 3.097-.539 78 78 0 0 0 3.068-.37q1.164-.184 1.69-.54.526-.355.526-1.051v-.085q0-1.35-.852-2.088-.839-.739-2.387-.739-1.633 0-2.599.725-.966.71-1.279 1.79l-5.596-.455q.426-1.99 1.676-3.437 1.25-1.464 3.224-2.245 1.989-.795 4.603-.795 1.818 0 3.48.426 1.676.426 2.968 1.321a6.4 6.4 0 0 1 2.06 2.301q.753 1.392.753 3.338V341h-5.739v-3.026h-.17a6.1 6.1 0 0 1-1.406 1.804q-.88.767-2.117 1.208-1.236.426-2.855.426m1.733-4.176q1.335 0 2.358-.526a4.2 4.2 0 0 0 1.605-1.449q.582-.909.582-2.059v-2.316a3.2 3.2 0 0 1-.781.341q-.482.143-1.094.27-.61.114-1.221.213l-1.108.156q-1.066.157-1.861.498t-1.236.923q-.44.568-.44 1.42 0 1.236.895 1.89.909.639 2.301.639m21.3-8.85V341h-6.051v-21.818h5.767v3.849h.255a6.1 6.1 0 0 1 2.429-3.011q1.705-1.122 4.134-1.122 2.272 0 3.963.994 1.69.995 2.628 2.841.937 1.833.937 4.375V341h-6.051v-12.812q.015-2.003-1.023-3.126-1.037-1.136-2.855-1.136-1.221 0-2.159.526-.923.525-1.449 1.534-.511.995-.525 2.4m28.689 13.04q-3.351 0-5.767-1.42-2.4-1.436-3.693-3.978-1.278-2.542-1.278-5.852 0-3.352 1.292-5.881 1.307-2.542 3.708-3.963 2.4-1.434 5.71-1.434 2.855 0 5 1.037t3.395 2.912 1.378 4.403h-5.711q-.242-1.634-1.278-2.628-1.023-1.008-2.685-1.008-1.406 0-2.457.767-1.037.752-1.619 2.201t-.583 3.509q0 2.088.568 3.551.583 1.463 1.634 2.23t2.457.767q1.038 0 1.861-.426a3.6 3.6 0 0 0 1.378-1.236q.554-.823.724-1.974h5.711q-.143 2.5-1.364 4.403-1.208 1.89-3.338 2.955t-5.043 1.065m23.562 0q-3.366 0-5.795-1.364-2.415-1.377-3.722-3.892-1.307-2.528-1.307-5.98 0-3.366 1.307-5.909t3.679-3.963q2.387-1.42 5.597-1.42 2.159 0 4.02.696a8.9 8.9 0 0 1 3.267 2.059q1.406 1.378 2.187 3.466.781 2.074.781 4.858v1.662h-18.423v-3.75h12.727q0-1.307-.568-2.315a4.07 4.07 0 0 0-1.577-1.577q-.993-.582-2.315-.582-1.377 0-2.443.639-1.051.625-1.648 1.69-.597 1.051-.611 2.344v3.565q0 1.62.597 2.799.61 1.179 1.719 1.818 1.107.639 2.628.639 1.008 0 1.846-.284a3.8 3.8 0 0 0 1.435-.852q.597-.569.909-1.392l5.597.369a7.65 7.65 0 0 1-1.748 3.523q-1.307 1.491-3.38 2.329-2.06.825-4.759.824m32.117-16.023-5.54.341a2.86 2.86 0 0 0-.611-1.278 3.2 3.2 0 0 0-1.236-.923q-.753-.355-1.804-.355-1.406 0-2.372.596-.966.582-.966 1.563 0 .78.625 1.321.625.539 2.145.866l3.949.796q3.182.653 4.744 2.102 1.563 1.449 1.563 3.807 0 2.145-1.264 3.764-1.251 1.619-3.438 2.528-2.173.895-5.014.895-4.333 0-6.904-1.804-2.556-1.818-2.997-4.943l5.952-.313q.27 1.322 1.307 2.018 1.037.681 2.656.681 1.591 0 2.557-.61.98-.625.994-1.606-.014-.824-.696-1.349-.681-.54-2.102-.824l-3.778-.753q-3.196-.639-4.759-2.216-1.548-1.577-1.548-4.019 0-2.102 1.136-3.623 1.15-1.52 3.224-2.343 2.089-.825 4.887-.824 4.133 0 6.506 1.747 2.385 1.748 2.784 4.758m25.298-6.221v4.545h-13.466v-4.545zM525.506 341v-23.395q0-2.372.924-3.935a5.93 5.93 0 0 1 2.557-2.343q1.618-.782 3.678-.782 1.393 0 2.543.214 1.165.212 1.733.383l-1.079 4.546a8 8 0 0 0-.881-.214 5.5 5.5 0 0 0-1.051-.099q-1.335 0-1.861.625-.526.61-.526 1.719V341zm14.081 0v-21.818h5.866v3.807h.227q.597-2.032 2.003-3.069 1.407-1.05 3.239-1.051.455 0 .98.057t.923.156v5.37a8 8 0 0 0-1.179-.228 11 11 0 0 0-1.378-.099q-1.335 0-2.386.582a4.3 4.3 0 0 0-1.648 1.591q-.596 1.023-.596 2.358V341zm25.209.426q-3.309 0-5.724-1.406-2.4-1.42-3.708-3.949-1.306-2.543-1.306-5.895 0-3.38 1.306-5.909 1.307-2.542 3.708-3.949 2.415-1.42 5.724-1.42t5.71 1.42q2.415 1.407 3.722 3.949 1.307 2.528 1.307 5.909 0 3.353-1.307 5.895-1.307 2.529-3.722 3.949-2.4 1.406-5.71 1.406m.029-4.687q1.505 0 2.514-.853 1.008-.865 1.52-2.358.525-1.491.525-3.394t-.525-3.395q-.512-1.493-1.52-2.358-1.01-.867-2.514-.867-1.52 0-2.557.867-1.023.865-1.549 2.358-.51 1.491-.511 3.395 0 1.902.511 3.394.526 1.493 1.549 2.358 1.036.853 2.557.853M579.469 341v-21.818h5.768v3.849h.255q.682-1.917 2.273-3.025 1.59-1.108 3.807-1.108 2.244 0 3.821 1.122 1.577 1.108 2.102 3.011h.227q.668-1.875 2.415-2.997 1.761-1.136 4.162-1.136 3.054 0 4.957 1.946 1.918 1.931 1.918 5.483V341h-6.037v-13.48q0-1.818-.966-2.727t-2.415-.909q-1.647 0-2.571 1.051-.923 1.037-.923 2.741V341h-5.866v-13.608q0-1.605-.924-2.557-.909-.951-2.4-.951-1.01 0-1.818.511-.796.497-1.265 1.406-.468.895-.468 2.102V341zm71.524-18.906h-6.222q-.17-1.208-.696-2.145a5.4 5.4 0 0 0-1.349-1.619 5.9 5.9 0 0 0-1.904-1.023 7.3 7.3 0 0 0-2.315-.355q-2.259 0-3.935 1.122-1.675 1.108-2.599 3.238-.923 2.116-.923 5.143 0 3.11.923 5.227.937 2.116 2.614 3.196t3.877 1.079q1.236 0 2.287-.326a6 6 0 0 0 1.89-.952 5.5 5.5 0 0 0 1.363-1.548q.554-.91.767-2.074l6.222.028a11.3 11.3 0 0 1-1.207 3.864 11.6 11.6 0 0 1-2.572 3.31q-1.605 1.448-3.835 2.301-2.215.838-5.014.838-3.892 0-6.96-1.762-3.054-1.761-4.83-5.099-1.761-3.338-1.761-8.082 0-4.76 1.79-8.097 1.79-3.338 4.858-5.085 3.067-1.762 6.903-1.762 2.529 0 4.688.711 2.173.71 3.849 2.073 1.676 1.35 2.727 3.31 1.065 1.96 1.364 4.489m18.288 9.616v-12.528h6.051V341h-5.809v-3.963h-.228a6.44 6.44 0 0 1-2.457 3.082q-1.704 1.165-4.162 1.165-2.187 0-3.849-.994t-2.6-2.827q-.923-1.833-.937-4.389v-13.892h6.051v12.812q.014 1.932 1.037 3.054t2.741 1.122a4.35 4.35 0 0 0 2.046-.497 3.9 3.9 0 0 0 1.534-1.505q.597-.994.582-2.458m10.892 9.29v-21.818h5.866v3.807h.227q.597-2.032 2.003-3.069 1.407-1.05 3.239-1.051.455 0 .98.057t.923.156v5.37a8 8 0 0 0-1.179-.228 11 11 0 0 0-1.378-.099q-1.335 0-2.386.582a4.3 4.3 0 0 0-1.648 1.591q-.596 1.023-.596 2.358V341zm16.367 0v-21.818h5.866v3.807h.228q.596-2.032 2.002-3.069 1.406-1.05 3.239-1.051.455 0 .98.057t.923.156v5.37a8 8 0 0 0-1.179-.228 11 11 0 0 0-1.377-.099q-1.336 0-2.387.582a4.3 4.3 0 0 0-1.647 1.591q-.597 1.023-.597 2.358V341zm25.295.426q-3.368 0-5.796-1.364-2.415-1.377-3.722-3.892-1.306-2.528-1.306-5.98 0-3.366 1.306-5.909 1.308-2.542 3.679-3.963 2.387-1.42 5.597-1.42 2.159 0 4.02.696a8.9 8.9 0 0 1 3.267 2.059q1.406 1.378 2.187 3.466.782 2.074.782 4.858v1.662h-18.424v-3.75h12.728q0-1.307-.568-2.315a4.1 4.1 0 0 0-1.577-1.577q-.995-.582-2.316-.582-1.377 0-2.443.639-1.05.625-1.647 1.69a4.77 4.77 0 0 0-.611 2.344v3.565q0 1.62.596 2.799.611 1.179 1.719 1.818t2.628.639q1.008 0 1.847-.284a3.8 3.8 0 0 0 1.434-.852q.597-.569.909-1.392l5.597.369a7.65 7.65 0 0 1-1.747 3.523q-1.307 1.491-3.381 2.329-2.06.825-4.758.824m20.014-13.04V341h-6.051v-21.818h5.767v3.849h.255a6.1 6.1 0 0 1 2.429-3.011q1.705-1.122 4.134-1.122 2.273 0 3.963.994 1.69.995 2.628 2.841.937 1.833.937 4.375V341h-6.051v-12.812q.015-2.003-1.023-3.126-1.037-1.136-2.855-1.136-1.221 0-2.159.526-.923.525-1.449 1.534-.512.995-.525 2.4m30.437-9.204v4.545h-13.14v-4.545zm-10.157-5.227h6.051v20.34q0 .839.256 1.307.256.455.71.639.47.186 1.08.185.426 0 .852-.071.426-.085.654-.128l.951 4.503q-.455.143-1.278.327-.824.199-2.003.241-2.187.086-3.835-.582-1.634-.667-2.543-2.074t-.895-3.551zM785.599 341v-29.091h6.15v12.003h12.486v-12.003h6.136V341h-6.136v-12.017h-12.486V341zm39.673.426q-3.366 0-5.795-1.364-2.415-1.377-3.722-3.892-1.307-2.528-1.307-5.98 0-3.366 1.307-5.909t3.679-3.963q2.386-1.42 5.597-1.42 2.159 0 4.019.696a8.9 8.9 0 0 1 3.267 2.059q1.407 1.378 2.188 3.466.781 2.074.781 4.858v1.662h-18.423v-3.75h12.727q0-1.307-.568-2.315a4.07 4.07 0 0 0-1.577-1.577q-.994-.582-2.315-.582-1.378 0-2.443.639-1.051.625-1.648 1.69-.597 1.051-.611 2.344v3.565q0 1.62.597 2.799.61 1.179 1.719 1.818 1.107.639 2.627.639 1.009 0 1.847-.284a3.8 3.8 0 0 0 1.435-.852q.596-.569.909-1.392l5.596.369a7.64 7.64 0 0 1-1.747 3.523q-1.307 1.491-3.38 2.329-2.06.825-4.759.824m20.185-.014q-2.088 0-3.722-.724-1.634-.739-2.585-2.174-.938-1.448-.938-3.608 0-1.818.668-3.054a5.4 5.4 0 0 1 1.818-1.988 8.8 8.8 0 0 1 2.614-1.137 20 20 0 0 1 3.096-.539 79 79 0 0 0 3.069-.37q1.165-.184 1.69-.54.525-.355.525-1.051v-.085q0-1.35-.852-2.088-.838-.739-2.386-.739-1.634 0-2.6.725-.966.71-1.278 1.79l-5.597-.455q.426-1.99 1.677-3.437 1.25-1.464 3.224-2.245 1.989-.795 4.602-.795 1.818 0 3.48.426 1.677.426 2.969 1.321a6.4 6.4 0 0 1 2.06 2.301q.753 1.392.753 3.338V341h-5.739v-3.026h-.17a6.2 6.2 0 0 1-1.407 1.804q-.88.767-2.116 1.208-1.236.426-2.855.426m1.733-4.176q1.335 0 2.358-.526a4.2 4.2 0 0 0 1.605-1.449q.582-.909.582-2.059v-2.316q-.284.185-.781.341-.483.143-1.094.27-.61.114-1.222.213l-1.107.156q-1.066.157-1.861.498-.796.34-1.236.923-.44.568-.44 1.42 0 1.236.894 1.89.91.639 2.302.639m23.288 4.119q-2.486 0-4.503-1.278-2.003-1.293-3.182-3.793-1.164-2.514-1.164-6.165 0-3.75 1.207-6.235 1.207-2.5 3.21-3.736a8.2 8.2 0 0 1 4.418-1.25q1.832 0 3.054.625 1.236.61 1.988 1.534.768.909 1.165 1.79h.185v-10.938h6.037V341h-5.966v-3.494h-.256q-.426.909-1.207 1.804-.767.88-2.003 1.463-1.221.582-2.983.582m1.918-4.815q1.463 0 2.471-.796 1.023-.809 1.563-2.258.554-1.45.554-3.395t-.54-3.381q-.54-1.434-1.563-2.216-1.022-.781-2.485-.781-1.492 0-2.515.81-1.022.81-1.548 2.244-.525 1.434-.525 3.324 0 1.904.525 3.366.54 1.45 1.548 2.273 1.023.81 2.515.81M462.966 821.909V851h-5.312l-12.656-18.31h-.214V851h-6.15v-29.091h5.398l12.556 18.296h.256v-18.296zm14.911 29.517q-3.366 0-5.795-1.364-2.415-1.377-3.722-3.892-1.306-2.528-1.306-5.98 0-3.366 1.306-5.909 1.308-2.543 3.679-3.963 2.387-1.42 5.597-1.42 2.159 0 4.02.696a8.9 8.9 0 0 1 3.267 2.059q1.406 1.378 2.187 3.466.782 2.074.782 4.858v1.662h-18.424v-3.75h12.728q0-1.307-.569-2.315a4.07 4.07 0 0 0-1.576-1.577q-.994-.582-2.316-.582-1.377 0-2.443.639-1.05.625-1.647 1.69a4.77 4.77 0 0 0-.611 2.344v3.565q0 1.62.596 2.799.611 1.179 1.719 1.818t2.628.639q1.008 0 1.847-.284a3.8 3.8 0 0 0 1.434-.852q.597-.569.909-1.392l5.597.369a7.65 7.65 0 0 1-1.747 3.523q-1.307 1.492-3.381 2.329-2.06.824-4.759.824m18.111-.426-5.937-21.818h6.122l3.381 14.659h.198l3.523-14.659h6.009l3.579 14.574h.185l3.324-14.574h6.108L516.556 851h-6.406l-3.75-13.722h-.27L502.38 851zm65.824-14.545q0 4.758-1.804 8.096-1.79 3.338-4.886 5.1-3.083 1.746-6.932 1.747-3.878 0-6.96-1.762-3.082-1.761-4.872-5.099t-1.79-8.082q0-4.76 1.79-8.097 1.79-3.338 4.872-5.085 3.082-1.762 6.96-1.762 3.85 0 6.932 1.762 3.096 1.747 4.886 5.085 1.804 3.337 1.804 8.097m-6.236 0q0-3.082-.923-5.199-.909-2.116-2.571-3.211-1.662-1.093-3.892-1.093t-3.892 1.093q-1.662 1.095-2.585 3.211-.909 2.116-.909 5.199 0 3.081.909 5.198.923 2.116 2.585 3.211 1.662 1.093 3.892 1.093t3.892-1.093q1.662-1.095 2.571-3.211.923-2.117.923-5.198M566.255 851v-21.818h5.866v3.807h.227q.597-2.032 2.003-3.069 1.407-1.05 3.239-1.051.455 0 .98.057t.923.156v5.37a8 8 0 0 0-1.179-.228 11 11 0 0 0-1.378-.099q-1.335 0-2.386.582a4.3 4.3 0 0 0-1.648 1.591q-.596 1.023-.596 2.358V851zm23.391.355q-2.486 0-4.503-1.278-2.003-1.293-3.182-3.793-1.164-2.514-1.164-6.165 0-3.75 1.207-6.235 1.207-2.5 3.21-3.736a8.2 8.2 0 0 1 4.418-1.25q1.831 0 3.054.625 1.236.61 1.988 1.534.768.909 1.165 1.79h.185v-10.938h6.037V851h-5.966v-3.494h-.256q-.426.909-1.207 1.804-.767.88-2.003 1.463-1.221.582-2.983.582m1.918-4.815q1.463 0 2.471-.796 1.023-.809 1.563-2.258.554-1.45.554-3.395t-.54-3.381q-.54-1.434-1.563-2.216-1.022-.781-2.485-.781-1.492 0-2.515.81-1.022.81-1.548 2.244-.525 1.434-.526 3.324 0 1.904.526 3.366.54 1.45 1.548 2.273 1.023.81 2.515.81m25.415 4.886q-3.366 0-5.795-1.364-2.415-1.377-3.722-3.892-1.307-2.528-1.307-5.98 0-3.366 1.307-5.909t3.679-3.963q2.386-1.42 5.597-1.42 2.159 0 4.019.696a8.9 8.9 0 0 1 3.268 2.059q1.405 1.378 2.187 3.466.781 2.074.781 4.858v1.662H608.57v-3.75h12.727q0-1.307-.568-2.315a4.07 4.07 0 0 0-1.577-1.577q-.994-.582-2.315-.582-1.378 0-2.443.639-1.051.625-1.648 1.69-.596 1.051-.611 2.344v3.565q0 1.62.597 2.799.61 1.179 1.719 1.818 1.107.639 2.627.639 1.009 0 1.847-.284a3.8 3.8 0 0 0 1.435-.852q.596-.569.909-1.392l5.596.369a7.64 7.64 0 0 1-1.747 3.523q-1.307 1.492-3.38 2.329-2.06.824-4.759.824m13.963-.426v-21.818h5.867v3.807h.227q.596-2.032 2.003-3.069 1.406-1.05 3.238-1.051.455 0 .98.057.527.057.924.156v5.37a8 8 0 0 0-1.179-.228 11 11 0 0 0-1.378-.099q-1.336 0-2.386.582a4.3 4.3 0 0 0-1.648 1.591q-.597 1.023-.597 2.358V851zM520.223 140.909V170H516.7v-25.398h-.17l-7.102 4.716v-3.579l7.272-4.83zM528.589 170v-2.557l9.603-10.511a67 67 0 0 0 2.784-3.21q1.094-1.379 1.619-2.586.54-1.221.54-2.556 0-1.535-.739-2.657-.725-1.121-1.988-1.733-1.264-.61-2.841-.61-1.677 0-2.926.696a4.8 4.8 0 0 0-1.918 1.917q-.668 1.236-.668 2.898h-3.352q0-2.557 1.179-4.489a8.2 8.2 0 0 1 3.21-3.011q2.046-1.08 4.588-1.08 2.557 0 4.532 1.08 1.974 1.08 3.096 2.912t1.122 4.077q0 1.605-.582 3.139-.569 1.52-1.989 3.395-1.405 1.86-3.906 4.545l-6.534 6.989v.227h13.523V170zm24.219 0v-2.557l9.603-10.511a68 68 0 0 0 2.784-3.21q1.094-1.379 1.619-2.586.54-1.221.54-2.556 0-1.535-.739-2.657-.724-1.121-1.989-1.733-1.263-.61-2.84-.61-1.676 0-2.927.696a4.8 4.8 0 0 0-1.917 1.917q-.668 1.236-.668 2.898h-3.352q0-2.557 1.179-4.489a8.2 8.2 0 0 1 3.21-3.011q2.046-1.08 4.588-1.08 2.557 0 4.531 1.08 1.975 1.08 3.097 2.912t1.122 4.077q0 1.605-.582 3.139-.569 1.52-1.989 3.395-1.406 1.86-3.906 4.545l-6.534 6.989v.227h13.523V170zM528.21 462.398a10.9 10.9 0 0 1-3.58-.682q-1.79-.654-3.267-2.202-1.478-1.562-2.372-4.219-.895-2.67-.895-6.704 0-3.864.724-6.847.724-2.997 2.103-5.042 1.377-2.06 3.323-3.125 1.96-1.066 4.418-1.066 2.443 0 4.347.98a8.3 8.3 0 0 1 3.125 2.699q1.207 1.733 1.562 3.992h-3.466q-.483-1.96-1.875-3.253t-3.693-1.293q-3.38 0-5.327 2.941-1.932 2.94-1.946 8.253h.228a8.54 8.54 0 0 1 4.332-3.395 8.5 8.5 0 0 1 2.827-.469q2.5 0 4.574 1.25 2.073 1.236 3.323 3.423 1.25 2.173 1.25 4.986 0 2.699-1.207 4.943a9.2 9.2 0 0 1-3.395 3.551q-2.173 1.308-5.113 1.279m0-3.125q1.79 0 3.21-.895a6.4 6.4 0 0 0 2.258-2.401q.838-1.506.838-3.352 0-1.804-.809-3.281a6.2 6.2 0 0 0-2.202-2.372q-1.392-.881-3.182-.881-1.35 0-2.514.54a6.5 6.5 0 0 0-2.046 1.449 7 7 0 0 0-1.363 2.116 6.3 6.3 0 0 0-.497 2.486q0 1.733.809 3.238a6.67 6.67 0 0 0 2.245 2.429q1.434.924 3.253.924m24.563-26.762q1.79.015 3.579.682 1.79.668 3.267 2.216 1.478 1.535 2.372 4.19.895 2.657.895 6.662 0 3.879-.738 6.89-.724 2.997-2.103 5.056-1.364 2.06-3.323 3.125-1.947 1.066-4.404 1.066-2.443 0-4.361-.966a8.6 8.6 0 0 1-3.125-2.713q-1.207-1.747-1.548-4.049h3.466q.469 2.004 1.861 3.31 1.406 1.293 3.707 1.293 3.367 0 5.313-2.941 1.96-2.94 1.96-8.309h-.227a8.9 8.9 0 0 1-1.89 2.059 8.3 8.3 0 0 1-2.429 1.336 8.5 8.5 0 0 1-2.84.468q-2.5 0-4.589-1.235-2.073-1.25-3.323-3.424-1.236-2.187-1.236-5 0-2.67 1.193-4.886a9.2 9.2 0 0 1 3.381-3.551q2.187-1.321 5.142-1.279m0 3.125q-1.79 0-3.225.895a6.43 6.43 0 0 0-2.258 2.387q-.824 1.491-.824 3.309t.795 3.31a6.35 6.35 0 0 0 2.202 2.358q1.407.866 3.196.866 1.35 0 2.514-.525a6.5 6.5 0 0 0 2.032-1.463 7.1 7.1 0 0 0 1.377-2.117 6.4 6.4 0 0 0 .498-2.486 6.5 6.5 0 0 0-.824-3.196 6.54 6.54 0 0 0-2.245-2.414q-1.42-.924-3.238-.924M546.869 959.966v3.125h-12.727v-3.125zM651.61 140.909V170h-3.523v-25.398h-.17l-7.103 4.716v-3.579l7.273-4.83zm7.684 23.125v-2.898l12.784-20.227h2.103v4.489h-1.421l-9.659 15.284v.227h17.216v3.125zM672.988 170v-29.091h3.352V170zM648.126 462.398q-2.812 0-5.014-.966-2.188-.966-3.48-2.685-1.28-1.733-1.392-4.02h3.579q.114 1.407.966 2.429.852 1.009 2.23 1.563t3.054.554q1.875 0 3.324-.654 1.45-.652 2.273-1.818.824-1.164.824-2.699 0-1.605-.796-2.826-.795-1.236-2.329-1.932t-3.75-.696h-2.33v-3.125h2.33q1.733 0 3.039-.625 1.322-.625 2.06-1.762.753-1.135.753-2.67 0-1.477-.653-2.571-.654-1.093-1.847-1.705-1.179-.61-2.784-.61a7.3 7.3 0 0 0-2.841.554q-1.321.539-2.159 1.576-.838 1.023-.909 2.472h-3.409q.085-2.287 1.378-4.006 1.292-1.733 3.38-2.699 2.103-.966 4.617-.966 2.699 0 4.63 1.094 1.932 1.08 2.969 2.855a7.5 7.5 0 0 1 1.037 3.835q0 2.458-1.293 4.191-1.278 1.732-3.48 2.4v.228q2.756.454 4.304 2.343 1.55 1.876 1.549 4.645 0 2.372-1.293 4.262-1.278 1.874-3.494 2.954t-5.043 1.08m24.901-29.887q1.79.015 3.579.682 1.79.668 3.267 2.216 1.478 1.535 2.372 4.19.895 2.657.895 6.662 0 3.879-.738 6.89-.725 2.997-2.103 5.056-1.364 2.06-3.324 3.125-1.946 1.066-4.403 1.066-2.443 0-4.361-.966a8.6 8.6 0 0 1-3.125-2.713q-1.207-1.747-1.548-4.049h3.466q.469 2.004 1.861 3.31 1.406 1.293 3.707 1.293 3.366 0 5.313-2.941 1.96-2.94 1.96-8.309h-.227a8.9 8.9 0 0 1-1.89 2.059 8.3 8.3 0 0 1-2.429 1.336 8.5 8.5 0 0 1-2.841.468q-2.5 0-4.588-1.235-2.073-1.25-3.323-3.424-1.236-2.187-1.236-5 0-2.67 1.193-4.886a9.2 9.2 0 0 1 3.381-3.551q2.187-1.321 5.142-1.279m0 3.125q-1.79 0-3.225.895a6.43 6.43 0 0 0-2.258 2.387q-.824 1.491-.824 3.309t.795 3.31a6.35 6.35 0 0 0 2.202 2.358q1.406.866 3.196.866 1.35 0 2.514-.525a6.5 6.5 0 0 0 2.031-1.463 7.1 7.1 0 0 0 1.378-2.117 6.4 6.4 0 0 0 .497-2.486 6.5 6.5 0 0 0-.823-3.196 6.54 6.54 0 0 0-2.245-2.414q-1.42-.924-3.238-.924M666.869 959.966v3.125h-12.727v-3.125zM759.813 140.909V170h-3.523v-25.398h-.17l-7.103 4.716v-3.579l7.273-4.83zM768.179 170v-2.557l9.603-10.511a67 67 0 0 0 2.784-3.21q1.094-1.379 1.619-2.586.54-1.221.54-2.556 0-1.535-.739-2.657-.725-1.121-1.988-1.733-1.264-.61-2.841-.61-1.677 0-2.927.696a4.8 4.8 0 0 0-1.917 1.917q-.668 1.236-.668 2.898h-3.352q0-2.557 1.179-4.489a8.2 8.2 0 0 1 3.21-3.011q2.046-1.08 4.588-1.08 2.557 0 4.531 1.08 1.975 1.08 3.097 2.912t1.122 4.077q0 1.605-.582 3.139-.569 1.52-1.989 3.395-1.406 1.86-3.906 4.545l-6.534 6.989v.227h13.523V170zm22.912-5.966v-2.898l12.784-20.227h2.103v4.489h-1.421l-9.659 15.284v.227h17.216v3.125zM804.784 170v-29.091h3.353V170zM763.698 462l13.011-25.739v-.227h-15v-3.125h18.637v3.296L767.391 462zm32.17-29.091V462h-3.523v-25.398h-.171l-7.102 4.716v-3.579l7.273-4.83zM786.869 959.966v3.125h-12.727v-3.125zM888.522 170.398a10.9 10.9 0 0 1-3.58-.682q-1.79-.654-3.267-2.202-1.476-1.562-2.372-4.219-.894-2.67-.895-6.704 0-3.864.725-6.847.725-2.997 2.102-5.042 1.378-2.06 3.324-3.125 1.96-1.066 4.418-1.066 2.442 0 4.346.98a8.3 8.3 0 0 1 3.125 2.699q1.208 1.733 1.563 3.992h-3.466q-.483-1.96-1.875-3.253t-3.693-1.293q-3.381 0-5.327 2.941-1.932 2.94-1.946 8.253h.227a8.54 8.54 0 0 1 4.332-3.395 8.5 8.5 0 0 1 2.827-.469q2.5 0 4.574 1.25 2.075 1.236 3.324 3.423 1.25 2.173 1.25 4.986 0 2.699-1.207 4.943a9.2 9.2 0 0 1-3.395 3.551q-2.174 1.308-5.114 1.279m0-3.125q1.79 0 3.21-.895a6.4 6.4 0 0 0 2.259-2.401q.838-1.506.838-3.352 0-1.804-.81-3.281a6.16 6.16 0 0 0-2.202-2.372q-1.392-.881-3.181-.881-1.35 0-2.515.54a6.5 6.5 0 0 0-2.045 1.449 7 7 0 0 0-1.364 2.116 6.3 6.3 0 0 0-.497 2.486q0 1.733.81 3.238a6.66 6.66 0 0 0 2.244 2.429q1.435.924 3.253.924m24.393 3.125q-2.5 0-4.503-.995-2.003-.994-3.21-2.727-1.208-1.732-1.321-3.949h3.409q.198 1.976 1.79 3.267 1.605 1.28 3.835 1.279 1.79 0 3.182-.838a5.9 5.9 0 0 0 2.201-2.301q.81-1.478.81-3.339 0-1.903-.838-3.394a6.15 6.15 0 0 0-2.273-2.373q-1.449-.866-3.309-.88a9 9 0 0 0-2.742.412q-1.406.411-2.315 1.065l-3.296-.398 1.762-14.318h15.113v3.125h-12.159l-1.023 8.58h.171q.895-.711 2.244-1.179a8.5 8.5 0 0 1 2.813-.469q2.67 0 4.758 1.278a8.93 8.93 0 0 1 3.296 3.466q1.207 2.202 1.207 5.029 0 2.784-1.25 4.971a9.14 9.14 0 0 1-3.409 3.438q-2.174 1.25-4.943 1.25M892.332 432.909V462h-3.522v-25.398h-.171l-7.102 4.716v-3.579l7.273-4.83zM900.699 462v-2.557l9.602-10.511a67 67 0 0 0 2.784-3.21q1.093-1.378 1.62-2.586a6.3 6.3 0 0 0 .539-2.556q0-1.535-.738-2.657-.724-1.121-1.989-1.733-1.264-.61-2.841-.61-1.676 0-2.926.696a4.8 4.8 0 0 0-1.918 1.917q-.667 1.236-.667 2.898h-3.353q0-2.557 1.179-4.489a8.2 8.2 0 0 1 3.211-3.011q2.045-1.08 4.588-1.08 2.557 0 4.531 1.08 1.975 1.08 3.097 2.912t1.122 4.077q0 1.605-.583 3.139-.567 1.52-1.988 3.395-1.407 1.86-3.907 4.545l-6.534 6.989v.227h13.523V462z"/><path fill="#fff" d="M892.332 432.909V462h-3.522v-25.398h-.171l-7.102 4.716v-3.579l7.273-4.83zM900.699 462v-2.557l9.602-10.511a67 67 0 0 0 2.784-3.21q1.093-1.378 1.62-2.586a6.3 6.3 0 0 0 .539-2.556q0-1.535-.738-2.657-.724-1.121-1.989-1.733-1.264-.61-2.841-.61-1.676 0-2.926.696a4.8 4.8 0 0 0-1.918 1.917q-.667 1.236-.667 2.898h-3.353q0-2.557 1.179-4.489a8.2 8.2 0 0 1 3.211-3.011q2.045-1.08 4.588-1.08 2.557 0 4.531 1.08 1.975 1.08 3.097 2.912t1.122 4.077q0 1.605-.583 3.139-.567 1.52-1.988 3.395-1.407 1.86-3.907 4.545l-6.534 6.989v.227h13.523V462zM772.309 682v-24.727h2.994v22.071h11.494V682zm26.272.386q-2.511 0-4.406-1.195-1.884-1.196-2.946-3.344-1.051-2.15-1.051-5.023 0-2.898 1.051-5.059 1.062-2.161 2.946-3.357 1.895-1.195 4.406-1.195 2.512 0 4.395 1.195 1.896 1.196 2.946 3.357 1.063 2.161 1.063 5.059 0 2.874-1.063 5.023-1.05 2.148-2.946 3.344-1.883 1.195-4.395 1.195m0-2.559q1.908 0 3.14-.978 1.231-.979 1.823-2.572.591-1.595.591-3.453 0-1.86-.591-3.465-.592-1.606-1.823-2.596-1.232-.99-3.14-.99-1.907 0-3.139.99t-1.823 2.596-.591 3.465.591 3.453q.592 1.593 1.823 2.572 1.232.978 3.139.978M814.905 682l-5.65-18.545h2.994l4.009 14.198h.193l3.96-14.198h3.043l3.912 14.15h.193l4.008-14.15h2.995L828.911 682h-2.801l-4.057-14.247h-.29L817.706 682zm30.568.386q-2.68 0-4.624-1.183-1.932-1.196-2.982-3.332-1.039-2.15-1.039-4.999t1.039-5.023q1.05-2.184 2.922-3.404 1.883-1.232 4.395-1.232 1.448 0 2.861.483a7.1 7.1 0 0 1 2.572 1.57q1.159 1.074 1.847 2.849.688 1.774.688 4.371v1.207h-14.295v-2.463h11.398q0-1.57-.628-2.801a4.73 4.73 0 0 0-1.763-1.944q-1.135-.712-2.68-.712-1.702 0-2.946.845a5.56 5.56 0 0 0-1.896 2.173 6.4 6.4 0 0 0-.664 2.874v1.642q0 2.1.724 3.562.737 1.449 2.041 2.209 1.303.749 3.03.749 1.123 0 2.029-.314a4.35 4.35 0 0 0 1.581-.966 4.4 4.4 0 0 0 1.027-1.618l2.753.773a6.1 6.1 0 0 1-1.461 2.463q-1.027 1.05-2.536 1.642-1.509.579-3.393.579m25.15-14.778-2.559.724a4.8 4.8 0 0 0-.713-1.243q-.459-.616-1.255-1.014-.798-.399-2.041-.399-1.703 0-2.837.785-1.123.773-1.123 1.968 0 1.063.773 1.678.773.616 2.414 1.027l2.753.676q2.487.603 3.707 1.847 1.22 1.231 1.219 3.175a4.7 4.7 0 0 1-.917 2.85q-.906 1.255-2.536 1.98-1.63.724-3.791.724-2.838 0-4.697-1.231t-2.354-3.598l2.704-.676q.387 1.497 1.461 2.245 1.088.749 2.838.749 1.992 0 3.163-.845 1.183-.858 1.183-2.053 0-.966-.676-1.618-.676-.663-2.077-.99l-3.09-.724q-2.549-.604-3.743-1.872-1.184-1.28-1.184-3.199 0-1.57.882-2.777.893-1.207 2.427-1.896 1.545-.688 3.501-.688 2.753 0 4.322 1.207 1.583 1.208 2.246 3.188m12.693-4.153v2.414h-9.611v-2.414zm-6.81-4.444h2.85v17.677q0 1.206.35 1.811.362.591.917.796.568.194 1.196.194.47 0 .772-.049l.483-.096.58 2.559a6 6 0 0 1-.809.218q-.52.12-1.316.12a5.7 5.7 0 0 1-2.367-.519 4.7 4.7 0 0 1-1.907-1.581q-.749-1.063-.749-2.681zm27.661 23.375q-2.317 0-4.093-1.171-1.775-1.183-2.777-3.332-1.002-2.161-1.002-5.107 0-2.923 1.002-5.071 1.002-2.15 2.789-3.321t4.13-1.171q1.81 0 2.861.604 1.063.591 1.618 1.352.567.749.882 1.232h.241v-9.128h2.849V682h-2.752v-2.849h-.338q-.315.507-.894 1.279-.58.76-1.654 1.365-1.074.591-2.862.591m.387-2.559q1.714 0 2.898-.894 1.182-.905 1.799-2.499.615-1.606.615-3.707 0-2.076-.603-3.634-.604-1.569-1.787-2.439-1.183-.88-2.922-.881-1.812 0-3.019.929-1.195.918-1.799 2.5-.591 1.569-.591 3.525 0 1.98.603 3.598.617 1.606 1.811 2.56 1.208.942 2.995.942M918.282 682v-18.545h2.849V682zm1.449-21.636q-.834 0-1.437-.568a1.82 1.82 0 0 1-.592-1.364q0-.796.592-1.365a2.03 2.03 0 0 1 1.437-.567q.833 0 1.424.567.604.569.604 1.365 0 .797-.604 1.364a1.98 1.98 0 0 1-1.424.568m19.756 7.244-2.56.724a4.8 4.8 0 0 0-.713-1.243q-.458-.616-1.255-1.014-.797-.399-2.041-.399-1.702 0-2.837.785-1.123.773-1.123 1.968 0 1.063.773 1.678.773.616 2.415 1.027l2.752.676q2.488.603 3.707 1.847 1.22 1.231 1.22 3.175a4.7 4.7 0 0 1-.918 2.85q-.906 1.255-2.536 1.98-1.63.724-3.791.724-2.837 0-4.696-1.231-1.86-1.232-2.355-3.598l2.705-.676q.385 1.497 1.461 2.245 1.086.749 2.837.749 1.992 0 3.163-.845 1.184-.858 1.184-2.053 0-.966-.677-1.618-.676-.663-2.076-.99l-3.091-.724q-2.548-.604-3.743-1.872-1.183-1.28-1.183-3.199 0-1.57.881-2.777.894-1.207 2.427-1.896 1.545-.688 3.501-.688 2.753 0 4.323 1.207 1.581 1.208 2.246 3.188m12.692-4.153v2.414h-9.611v-2.414zm-6.81-4.444h2.85v17.677q0 1.206.35 1.811.362.591.918.796.567.194 1.195.194.47 0 .773-.049l.483-.096.579 2.559a6 6 0 0 1-.809.218q-.52.12-1.316.12a5.7 5.7 0 0 1-2.366-.519 4.7 4.7 0 0 1-1.908-1.581q-.749-1.063-.749-2.681zm16.554 23.424q-1.763 0-3.2-.664a5.5 5.5 0 0 1-2.282-1.944q-.845-1.28-.845-3.091 0-1.594.628-2.584a4.44 4.44 0 0 1 1.678-1.57q1.05-.567 2.318-.845a29 29 0 0 1 2.572-.459q1.69-.216 2.741-.326 1.062-.12 1.545-.398.495-.278.495-.966v-.097q0-1.786-.978-2.777-.966-.99-2.934-.99-2.04 0-3.199.894-1.16.893-1.63 1.908l-2.705-.966q.725-1.691 1.932-2.632a7.3 7.3 0 0 1 2.656-1.329 11 11 0 0 1 2.85-.386q.893 0 2.052.217a6.6 6.6 0 0 1 2.258.858q1.099.651 1.823 1.968.725 1.316.725 3.525V682h-2.85v-2.511h-.145q-.29.603-.965 1.292-.677.688-1.799 1.171-1.124.483-2.741.483m.434-2.56q1.69 0 2.85-.664 1.171-.664 1.763-1.715a4.37 4.37 0 0 0 .603-2.209v-2.608q-.18.218-.797.398-.603.17-1.4.302-.784.121-1.533.218-.737.084-1.196.144-1.11.146-2.077.471-.953.315-1.545.954-.58.628-.58 1.715 0 1.485 1.099 2.245 1.111.749 2.813.749m16.116-9.031V682h-2.849v-18.545h2.752v2.897h.242a5.3 5.3 0 0 1 1.98-2.27q1.327-.869 3.429-.869 1.883 0 3.296.773 1.413.76 2.198 2.318.784 1.545.784 3.912V682h-2.849v-11.591q0-2.185-1.135-3.405-1.135-1.231-3.115-1.231-1.365 0-2.439.591-1.062.592-1.678 1.727t-.616 2.753m24.577 11.542q-2.61 0-4.495-1.231-1.884-1.231-2.898-3.393t-1.014-4.938q0-2.826 1.038-4.987 1.052-2.173 2.922-3.392c1.256-.821 2.717-1.232 4.397-1.232 1.3 0 2.48.242 3.52.725a6.76 6.76 0 0 1 2.58 2.028c.66.869 1.08 1.883 1.24 3.043h-2.85c-.22-.846-.7-1.594-1.45-2.246-.74-.66-1.74-.99-2.99-.99-1.11 0-2.09.289-2.93.869q-1.239.857-1.939 2.427-.689 1.558-.689 3.658 0 2.15.677 3.743.687 1.594 1.931 2.475c.84.588 1.82.882 2.95.882q1.11 0 2.01-.387a4.15 4.15 0 0 0 1.54-1.11c.41-.483.71-1.063.89-1.739h2.85a6.55 6.55 0 0 1-1.2 2.958c-.62.869-1.46 1.562-2.5 2.077-1.03.507-2.23.76-3.59.76m19.23 0q-2.685 0-4.62-1.183c-1.29-.797-2.29-1.908-2.99-3.332-.69-1.433-1.03-3.099-1.03-4.999s.34-3.574 1.03-5.023c.7-1.456 1.68-2.591 2.93-3.404 1.25-.821 2.72-1.232 4.39-1.232.97 0 1.92.161 2.86.483s1.8.845 2.57 1.57c.78.716 1.39 1.666 1.85 2.849q.69 1.774.69 4.371v1.207h-14.3v-2.463h11.4q0-1.57-.63-2.801a4.7 4.7 0 0 0-1.76-1.944c-.76-.475-1.65-.712-2.68-.712-1.13 0-2.12.281-2.95.845a5.53 5.53 0 0 0-1.89 2.173 6.4 6.4 0 0 0-.67 2.874v1.642c0 1.4.25 2.588.73 3.562q.735 1.449 2.04 2.209 1.305.749 3.03.749c.75 0 1.42-.105 2.03-.314.61-.218 1.14-.54 1.58-.966.44-.435.78-.974 1.03-1.618l2.75.773a6.16 6.16 0 0 1-1.46 2.463c-.69.7-1.53 1.247-2.54 1.642q-1.5.579-3.39.579m-192.859 22.069v2.414h-9.997v-2.414zM822.418 723v-21.105q0-1.594.749-2.656a4.63 4.63 0 0 1 1.944-1.594 6.15 6.15 0 0 1 2.523-.531q1.051 0 1.715.169.663.168.99.314l-.821 2.463a13 13 0 0 0-.604-.181q-.373-.11-.99-.109-1.413 0-2.04.712-.616.712-.616 2.089V723zm10.997 0v-18.545h2.752v2.801h.194q.506-1.376 1.835-2.234 1.327-.857 2.994-.857.314 0 .785.012.47.012.712.036v2.898a8 8 0 0 0-.664-.109 6.6 6.6 0 0 0-1.074-.084q-1.353 0-2.415.567-1.05.555-1.666 1.546-.604.978-.604 2.233V723zm19.62.386q-2.512 0-4.407-1.195-1.884-1.196-2.946-3.344-1.051-2.15-1.051-5.023 0-2.898 1.051-5.059 1.062-2.161 2.946-3.357 1.894-1.194 4.407-1.195 2.511 0 4.395 1.195 1.894 1.196 2.946 3.357 1.062 2.161 1.062 5.059 0 2.874-1.062 5.023-1.052 2.148-2.946 3.344-1.884 1.195-4.395 1.195m0-2.559q1.907 0 3.139-.978 1.232-.979 1.823-2.572.591-1.595.592-3.453 0-1.86-.592-3.465-.591-1.606-1.823-2.596t-3.139-.99-3.14.99q-1.231.99-1.823 2.596-.591 1.605-.591 3.465 0 1.858.591 3.453.592 1.593 1.823 2.572 1.232.978 3.14.978M865.788 723v-18.545h2.752v2.897h.242q.58-1.485 1.871-2.306 1.293-.833 3.103-.833 1.836 0 3.055.833 1.231.822 1.92 2.306h.193a5.4 5.4 0 0 1 2.137-2.282q1.425-.857 3.417-.857 2.487 0 4.069 1.558 1.582 1.545 1.582 4.817V723h-2.85v-12.412q0-2.052-1.123-2.934-1.122-.88-2.644-.881-1.956 0-3.03 1.183-1.075 1.171-1.075 2.97V723h-2.898v-12.702q0-1.581-1.026-2.547-1.026-.978-2.644-.978a3.9 3.9 0 0 0-2.077.591 4.47 4.47 0 0 0-1.545 1.642q-.58 1.04-.58 2.403V723zm41.962-11.156V723h-2.849v-24.727h2.849v9.079h.242a5.24 5.24 0 0 1 1.956-2.282q1.315-.857 3.501-.857 1.896 0 3.321.761 1.424.748 2.209 2.306.797 1.545.797 3.936V723h-2.85v-11.591q0-2.21-1.147-3.417-1.135-1.22-3.151-1.219-1.401 0-2.511.591a4.33 4.33 0 0 0-1.739 1.727q-.628 1.135-.628 2.753m25.014 11.542q-2.68 0-4.624-1.183-1.932-1.196-2.982-3.332-1.038-2.15-1.039-4.999t1.039-5.023q1.05-2.184 2.922-3.404 1.883-1.232 4.395-1.232 1.449 0 2.861.483a7.1 7.1 0 0 1 2.572 1.57q1.159 1.074 1.847 2.849.688 1.774.688 4.371v1.207h-14.295v-2.463h11.398q0-1.57-.628-2.801a4.73 4.73 0 0 0-1.763-1.944q-1.135-.712-2.68-.712-1.702 0-2.946.845a5.56 5.56 0 0 0-1.896 2.173 6.4 6.4 0 0 0-.664 2.874v1.642q0 2.1.724 3.562.737 1.449 2.041 2.209 1.303.749 3.03.749 1.123 0 2.029-.314a4.35 4.35 0 0 0 1.581-.966 4.4 4.4 0 0 0 1.027-1.618l2.753.773a6.1 6.1 0 0 1-1.461 2.463q-1.027 1.05-2.536 1.642-1.509.579-3.393.579m17.471.049q-1.762 0-3.199-.664-1.437-.677-2.282-1.944-.846-1.28-.845-3.091 0-1.594.627-2.584a4.44 4.44 0 0 1 1.679-1.57q1.05-.567 2.318-.845 1.28-.29 2.572-.459 1.69-.216 2.74-.326 1.063-.12 1.546-.398.495-.278.495-.966v-.097q0-1.786-.978-2.777-.966-.99-2.934-.99-2.04 0-3.2.894-1.159.893-1.63 1.908l-2.704-.966q.725-1.691 1.932-2.632a7.25 7.25 0 0 1 2.656-1.329 11 11 0 0 1 2.849-.386q.894 0 2.053.217a6.6 6.6 0 0 1 2.258.858q1.098.651 1.823 1.968t.724 3.525V723h-2.849v-2.511h-.145q-.29.603-.966 1.292-.676.688-1.799 1.171t-2.741.483m.435-2.56q1.69 0 2.849-.664 1.172-.664 1.763-1.715a4.36 4.36 0 0 0 .604-2.209v-2.608q-.182.218-.797.398a13 13 0 0 1-1.401.302q-.785.121-1.533.218-.736.084-1.195.144-1.111.146-2.077.471-.954.315-1.545.954-.58.628-.58 1.715 0 1.485 1.099 2.245 1.11.749 2.813.749m20.269 2.511q-2.319 0-4.093-1.171-1.775-1.183-2.777-3.332-1.002-2.161-1.002-5.107 0-2.922 1.002-5.071 1.002-2.15 2.789-3.321t4.129-1.171q1.811 0 2.862.604 1.062.591 1.618 1.352.567.749.881 1.232h.241v-9.128h2.85V723h-2.753v-2.849h-.338q-.314.507-.893 1.279-.58.76-1.655 1.365-1.074.591-2.861.591m.386-2.559q1.715 0 2.898-.894 1.184-.905 1.799-2.499.616-1.606.616-3.707 0-2.076-.604-3.634-.603-1.569-1.787-2.439-1.183-.88-2.922-.881-1.81 0-3.018.929-1.196.918-1.799 2.5-.592 1.569-.592 3.525 0 1.98.604 3.598.615 1.606 1.811 2.56 1.207.942 2.994.942M906.869 959.966v3.125h-12.727v-3.125zM1009.26 170.398a11 11 0 0 1-3.58-.682c-1.19-.436-2.28-1.17-3.26-2.202q-1.485-1.562-2.37-4.219-.9-2.67-.899-6.704 0-3.864.724-6.847.726-2.997 2.105-5.042c.92-1.373 2.02-2.415 3.32-3.125 1.31-.711 2.78-1.066 4.42-1.066q2.445 0 4.35.98a8.3 8.3 0 0 1 3.12 2.699q1.215 1.733 1.56 3.992h-3.46c-.33-1.307-.95-2.391-1.88-3.253q-1.395-1.293-3.69-1.293c-2.26 0-4.03.98-5.33 2.941-1.29 1.96-1.93 4.711-1.94 8.253h.22a8.53 8.53 0 0 1 4.34-3.395 8.4 8.4 0 0 1 2.82-.469c1.67 0 3.19.417 4.58 1.25 1.38.824 2.49 1.965 3.32 3.423.83 1.449 1.25 3.111 1.25 4.986 0 1.799-.4 3.447-1.21 4.943a9.13 9.13 0 0 1-3.39 3.551c-1.45.872-3.16 1.298-5.12 1.279m0-3.125q1.8 0 3.21-.895a6.4 6.4 0 0 0 2.26-2.401q.84-1.506.84-3.352 0-1.804-.81-3.281a6.14 6.14 0 0 0-2.2-2.372q-1.395-.881-3.18-.881-1.35 0-2.52.54a6.6 6.6 0 0 0-2.04 1.449 7.1 7.1 0 0 0-1.37 2.116 6.4 6.4 0 0 0-.49 2.486q0 1.733.81 3.238a6.6 6.6 0 0 0 2.24 2.429c.96.616 2.04.924 3.25.924m16.22 2.727 13.01-25.739v-.227h-15v-3.125h18.63v3.296L1029.17 170zM1011.61 432.909V462h-3.52v-25.398h-.17l-7.11 4.716v-3.579l7.28-4.83zm7.68 23.125v-2.898l12.79-20.227h2.1v4.489h-1.42l-9.66 15.284v.227h17.22v3.125zm13.7 5.966v-29.091h3.35V462zM1026.87 959.966v3.125h-12.73v-3.125zM227.561 1104.56a1.5 1.5 0 0 0 0-2.12l-9.546-9.55a1.51 1.51 0 0 0-2.122 0 1.5 1.5 0 0 0 0 2.12l8.486 8.49-8.486 8.49a1.5 1.5 0 0 0 0 2.12c.586.58 1.536.58 2.122 0zM180 1103.5h-1.5v1.5h1.5zm0-34.5h-1.5v34.5h3V1069zm0 34.5v1.5h46.5v-3H180zM899.93 638.061a1.5 1.5 0 0 0 2.121 0l9.546-9.546a1.5 1.5 0 0 0-2.121-2.122l-8.486 8.486-8.485-8.486a1.501 1.501 0 0 0-2.121 2.122zm1.06-1.061h1.5v-93h-3v93z"/></svg>