<svg width="1081" height="520" viewBox="0 0 1081 520" fill="none" xmlns="http://www.w3.org/2000/svg">
<path d="M2 123C2 108.088 14.0883 96 29 96H121V216H29C14.0883 216 2 203.912 2 189V123Z" fill="#002647"/>
<rect x="1" y="96" width="1079" height="120" rx="26" stroke="#DBDBDB" stroke-width="2"/>
<line x1="121" y1="95" x2="121" y2="217" stroke="#DBDBDB" stroke-width="2"/>
<line x1="241" y1="95" x2="241" y2="217" stroke="#DBDBDB" stroke-width="2"/>
<line x1="361" y1="95" x2="361" y2="217" stroke="#DBDBDB" stroke-width="2"/>
<line x1="482" y1="95" x2="482" y2="217" stroke="#DBDBDB" stroke-width="2"/>
<line x1="602" y1="95" x2="602" y2="217" stroke="#DBDBDB" stroke-width="2"/>
<line x1="722" y1="95" x2="722" y2="217" stroke="#DBDBDB" stroke-width="2"/>
<line x1="842" y1="95" x2="842" y2="217" stroke="#DBDBDB" stroke-width="2"/>
<line x1="962" y1="95" x2="962" y2="217" stroke="#DBDBDB" stroke-width="2"/>
<path d="M47.6999 170.398C46.0333 170.398 44.5323 170.066 43.1971 169.403C41.8619 168.741 40.7918 167.831 39.9869 166.676C39.1819 165.521 38.7416 164.205 38.6658 162.727H42.0749C42.2075 164.044 42.8041 165.133 43.8647 165.994C44.9348 166.847 46.2132 167.273 47.6999 167.273C48.8931 167.273 49.9537 166.993 50.8817 166.435C51.8192 165.876 52.5531 165.109 53.0835 164.134C53.6232 163.149 53.8931 162.036 53.8931 160.795C53.8931 159.527 53.6138 158.395 53.055 157.401C52.5058 156.397 51.7482 155.606 50.7823 155.028C49.8164 154.451 48.7132 154.157 47.4727 154.148C46.5825 154.138 45.6687 154.276 44.7312 154.56C43.7937 154.834 43.0219 155.189 42.4158 155.625L39.1204 155.227L40.8817 140.909H55.9954V144.034H43.8363L42.8136 152.614H42.984C43.5806 152.14 44.3287 151.747 45.2283 151.435C46.128 151.122 47.0655 150.966 48.0408 150.966C49.8211 150.966 51.4073 151.392 52.7994 152.244C54.2009 153.087 55.2994 154.242 56.0948 155.71C56.8997 157.178 57.3022 158.854 57.3022 160.739C57.3022 162.595 56.8855 164.252 56.0522 165.71C55.2283 167.159 54.092 168.305 52.6431 169.148C51.1942 169.981 49.5465 170.398 47.6999 170.398ZM72.7745 170.398C70.8995 170.398 69.2281 170.076 67.7603 169.432C66.302 168.788 65.1419 167.893 64.2802 166.747C63.4279 165.592 62.9639 164.252 62.8881 162.727H66.4677C66.5434 163.665 66.8654 164.474 67.4336 165.156C68.0018 165.829 68.7451 166.349 69.6637 166.719C70.5823 167.088 71.6003 167.273 72.7177 167.273C73.9677 167.273 75.0756 167.055 76.0415 166.619C77.0075 166.184 77.765 165.578 78.3143 164.801C78.8635 164.025 79.1381 163.125 79.1381 162.102C79.1381 161.032 78.873 160.09 78.3427 159.276C77.8124 158.452 77.0359 157.808 76.0131 157.344C74.9904 156.88 73.7404 156.648 72.2631 156.648H69.9336V153.523H72.2631C73.4184 153.523 74.4317 153.314 75.3029 152.898C76.1836 152.481 76.8701 151.894 77.3626 151.136C77.8645 150.379 78.1154 149.489 78.1154 148.466C78.1154 147.481 77.8976 146.624 77.462 145.895C77.0264 145.166 76.4109 144.598 75.6154 144.19C74.8294 143.783 73.9014 143.58 72.8313 143.58C71.8275 143.58 70.8806 143.764 69.9904 144.134C69.1097 144.493 68.39 145.019 67.8313 145.71C67.2726 146.392 66.9696 147.216 66.9222 148.182H63.5131C63.57 146.657 64.0292 145.322 64.891 144.176C65.7527 143.021 66.8796 142.121 68.2717 141.477C69.6732 140.833 71.212 140.511 72.8881 140.511C74.6874 140.511 76.2309 140.876 77.5188 141.605C78.8067 142.325 79.7963 143.277 80.4876 144.46C81.1789 145.644 81.5245 146.922 81.5245 148.295C81.5245 149.934 81.0936 151.33 80.2319 152.486C79.3796 153.641 78.2196 154.441 76.7518 154.886V155.114C78.5889 155.417 80.0236 156.198 81.0558 157.457C82.088 158.707 82.604 160.256 82.604 162.102C82.604 163.684 82.1732 165.104 81.3114 166.364C80.4592 167.614 79.2944 168.598 77.8171 169.318C76.3398 170.038 74.659 170.398 72.7745 170.398Z" fill="white"/>
<path d="M166.968 140.511C168.161 140.521 169.354 140.748 170.548 141.193C171.741 141.638 172.83 142.377 173.815 143.409C174.799 144.432 175.59 145.829 176.187 147.599C176.783 149.37 177.082 151.591 177.082 154.261C177.082 156.847 176.835 159.143 176.343 161.151C175.86 163.149 175.159 164.834 174.241 166.207C173.332 167.58 172.224 168.622 170.917 169.332C169.62 170.043 168.152 170.398 166.513 170.398C164.885 170.398 163.431 170.076 162.153 169.432C160.884 168.778 159.842 167.874 159.028 166.719C158.223 165.554 157.707 164.205 157.479 162.67H160.945C161.258 164.006 161.878 165.109 162.806 165.98C163.744 166.842 164.979 167.273 166.513 167.273C168.758 167.273 170.529 166.293 171.826 164.332C173.133 162.372 173.786 159.602 173.786 156.023H173.559C173.029 156.818 172.399 157.505 171.67 158.082C170.941 158.66 170.131 159.105 169.241 159.418C168.351 159.73 167.404 159.886 166.4 159.886C164.733 159.886 163.204 159.474 161.812 158.651C160.429 157.817 159.321 156.676 158.488 155.227C157.664 153.769 157.252 152.102 157.252 150.227C157.252 148.447 157.65 146.818 158.445 145.341C159.25 143.854 160.377 142.67 161.826 141.79C163.284 140.909 164.998 140.483 166.968 140.511ZM166.968 143.636C165.775 143.636 164.7 143.935 163.744 144.531C162.797 145.118 162.044 145.914 161.485 146.918C160.936 147.912 160.661 149.015 160.661 150.227C160.661 151.439 160.926 152.543 161.457 153.537C161.996 154.522 162.73 155.308 163.658 155.895C164.596 156.473 165.661 156.761 166.854 156.761C167.754 156.761 168.592 156.586 169.369 156.236C170.145 155.876 170.822 155.388 171.4 154.773C171.987 154.148 172.446 153.442 172.778 152.656C173.109 151.861 173.275 151.032 173.275 150.17C173.275 149.034 173 147.969 172.451 146.974C171.911 145.98 171.163 145.175 170.207 144.56C169.26 143.944 168.18 143.636 166.968 143.636ZM191.986 170.398C190.035 170.398 188.312 170.052 186.815 169.361C185.329 168.66 184.169 167.699 183.335 166.477C182.502 165.246 182.09 163.845 182.099 162.273C182.09 161.042 182.331 159.905 182.824 158.864C183.316 157.812 183.989 156.937 184.841 156.236C185.703 155.526 186.664 155.076 187.724 154.886V154.716C186.332 154.356 185.224 153.575 184.401 152.372C183.577 151.16 183.17 149.782 183.179 148.239C183.17 146.761 183.544 145.44 184.301 144.276C185.059 143.111 186.1 142.192 187.426 141.52C188.761 140.848 190.281 140.511 191.986 140.511C193.671 140.511 195.177 140.848 196.503 141.52C197.829 142.192 198.87 143.111 199.628 144.276C200.395 145.44 200.783 146.761 200.793 148.239C200.783 149.782 200.362 151.16 199.528 152.372C198.705 153.575 197.611 154.356 196.247 154.716V154.886C197.298 155.076 198.245 155.526 199.088 156.236C199.931 156.937 200.603 157.812 201.105 158.864C201.607 159.905 201.863 161.042 201.872 162.273C201.863 163.845 201.437 165.246 200.594 166.477C199.76 167.699 198.6 168.66 197.114 169.361C195.636 170.052 193.927 170.398 191.986 170.398ZM191.986 167.273C193.302 167.273 194.438 167.06 195.395 166.634C196.351 166.207 197.09 165.606 197.611 164.83C198.132 164.053 198.397 163.144 198.406 162.102C198.397 161.004 198.113 160.033 197.554 159.19C196.995 158.348 196.233 157.685 195.267 157.202C194.311 156.719 193.217 156.477 191.986 156.477C190.745 156.477 189.637 156.719 188.662 157.202C187.696 157.685 186.934 158.348 186.375 159.19C185.826 160.033 185.556 161.004 185.565 162.102C185.556 163.144 185.807 164.053 186.318 164.83C186.839 165.606 187.582 166.207 188.548 166.634C189.514 167.06 190.66 167.273 191.986 167.273ZM191.986 153.466C193.027 153.466 193.951 153.258 194.756 152.841C195.57 152.424 196.209 151.842 196.673 151.094C197.137 150.346 197.374 149.47 197.384 148.466C197.374 147.481 197.142 146.624 196.688 145.895C196.233 145.156 195.603 144.588 194.798 144.19C193.993 143.783 193.056 143.58 191.986 143.58C190.897 143.58 189.945 143.783 189.131 144.19C188.316 144.588 187.687 145.156 187.241 145.895C186.796 146.624 186.579 147.481 186.588 148.466C186.579 149.47 186.801 150.346 187.256 151.094C187.72 151.842 188.359 152.424 189.173 152.841C189.988 153.258 190.925 153.466 191.986 153.466Z" fill="white"/>
<path d="M140.905 269H138.792C138.667 268.392 138.448 267.858 138.135 267.398C137.828 266.938 137.453 266.551 137.01 266.239C136.573 265.92 136.087 265.682 135.553 265.523C135.019 265.364 134.462 265.284 133.882 265.284C132.826 265.284 131.868 265.551 131.01 266.085C130.158 266.619 129.479 267.406 128.973 268.446C128.473 269.486 128.223 270.761 128.223 272.273C128.223 273.784 128.473 275.06 128.973 276.099C129.479 277.139 130.158 277.926 131.01 278.46C131.868 278.994 132.826 279.261 133.882 279.261C134.462 279.261 135.019 279.182 135.553 279.023C136.087 278.864 136.573 278.628 137.01 278.315C137.453 277.997 137.828 277.608 138.135 277.148C138.448 276.682 138.667 276.148 138.792 275.545H140.905C140.746 276.437 140.456 277.236 140.036 277.94C139.615 278.645 139.093 279.244 138.468 279.739C137.843 280.227 137.141 280.599 136.363 280.855C135.59 281.111 134.763 281.239 133.882 281.239C132.394 281.239 131.07 280.875 129.911 280.148C128.752 279.42 127.84 278.386 127.175 277.045C126.51 275.705 126.178 274.114 126.178 272.273C126.178 270.432 126.51 268.841 127.175 267.5C127.84 266.159 128.752 265.125 129.911 264.398C131.07 263.67 132.394 263.307 133.882 263.307C134.763 263.307 135.59 263.435 136.363 263.69C137.141 263.946 137.843 264.321 138.468 264.815C139.093 265.304 139.615 265.901 140.036 266.605C140.456 267.304 140.746 268.102 140.905 269ZM152.298 275.648V267.909H154.309V281H152.298V278.784H152.162C151.855 279.449 151.377 280.014 150.73 280.48C150.082 280.94 149.264 281.17 148.275 281.17C147.457 281.17 146.73 280.991 146.093 280.634C145.457 280.27 144.957 279.724 144.593 278.997C144.23 278.264 144.048 277.341 144.048 276.227V267.909H146.059V276.091C146.059 277.045 146.326 277.807 146.86 278.375C147.4 278.943 148.088 279.227 148.923 279.227C149.423 279.227 149.931 279.099 150.449 278.844C150.971 278.588 151.409 278.196 151.761 277.668C152.119 277.139 152.298 276.466 152.298 275.648ZM157.993 281V267.909H159.936V269.886H160.073C160.311 269.239 160.743 268.713 161.368 268.31C161.993 267.906 162.698 267.705 163.482 267.705C163.63 267.705 163.814 267.707 164.036 267.713C164.257 267.719 164.425 267.727 164.539 267.739V269.784C164.471 269.767 164.314 269.741 164.07 269.707C163.831 269.668 163.578 269.648 163.311 269.648C162.675 269.648 162.107 269.781 161.607 270.048C161.113 270.31 160.721 270.673 160.431 271.139C160.147 271.599 160.005 272.125 160.005 272.716V281H157.993ZM166.923 281V267.909H168.866V269.886H169.002C169.241 269.239 169.673 268.713 170.298 268.31C170.923 267.906 171.627 267.705 172.412 267.705C172.559 267.705 172.744 267.707 172.966 267.713C173.187 267.719 173.355 267.727 173.468 267.739V269.784C173.4 269.767 173.244 269.741 173 269.707C172.761 269.668 172.508 269.648 172.241 269.648C171.605 269.648 171.037 269.781 170.537 270.048C170.042 270.31 169.65 270.673 169.36 271.139C169.076 271.599 168.934 272.125 168.934 272.716V281H166.923ZM180.943 281.273C179.681 281.273 178.593 280.994 177.679 280.438C176.77 279.875 176.068 279.091 175.574 278.085C175.085 277.074 174.841 275.898 174.841 274.557C174.841 273.216 175.085 272.034 175.574 271.011C176.068 269.983 176.755 269.182 177.636 268.608C178.522 268.028 179.556 267.739 180.738 267.739C181.42 267.739 182.093 267.852 182.758 268.08C183.423 268.307 184.028 268.676 184.574 269.188C185.119 269.693 185.554 270.364 185.877 271.199C186.201 272.034 186.363 273.062 186.363 274.284V275.136H176.272V273.398H184.318C184.318 272.659 184.17 272 183.875 271.42C183.585 270.841 183.17 270.384 182.63 270.048C182.096 269.713 181.466 269.545 180.738 269.545C179.937 269.545 179.244 269.744 178.659 270.142C178.079 270.534 177.633 271.045 177.321 271.676C177.008 272.307 176.852 272.983 176.852 273.705V274.864C176.852 275.852 177.022 276.69 177.363 277.378C177.71 278.06 178.19 278.58 178.804 278.938C179.417 279.29 180.13 279.466 180.943 279.466C181.471 279.466 181.949 279.392 182.375 279.244C182.806 279.091 183.179 278.864 183.491 278.562C183.804 278.256 184.045 277.875 184.216 277.42L186.159 277.966C185.954 278.625 185.61 279.205 185.127 279.705C184.645 280.199 184.048 280.585 183.338 280.864C182.627 281.136 181.829 281.273 180.943 281.273ZM191.434 273.125V281H189.423V267.909H191.366V269.955H191.537C191.843 269.29 192.309 268.756 192.934 268.352C193.559 267.943 194.366 267.739 195.355 267.739C196.241 267.739 197.017 267.92 197.681 268.284C198.346 268.642 198.863 269.188 199.233 269.92C199.602 270.648 199.787 271.568 199.787 272.682V281H197.775V272.818C197.775 271.79 197.508 270.989 196.974 270.415C196.44 269.835 195.707 269.545 194.775 269.545C194.133 269.545 193.559 269.685 193.054 269.963C192.554 270.241 192.159 270.648 191.869 271.182C191.579 271.716 191.434 272.364 191.434 273.125ZM209.155 267.909V269.614H202.371V267.909H209.155ZM204.348 264.773H206.36V277.25C206.36 277.818 206.442 278.244 206.607 278.528C206.777 278.807 206.993 278.994 207.255 279.091C207.522 279.182 207.803 279.227 208.098 279.227C208.32 279.227 208.502 279.216 208.644 279.193C208.786 279.165 208.9 279.142 208.985 279.125L209.394 280.932C209.257 280.983 209.067 281.034 208.823 281.085C208.578 281.142 208.269 281.17 207.894 281.17C207.326 281.17 206.769 281.048 206.223 280.804C205.684 280.56 205.235 280.188 204.877 279.688C204.525 279.188 204.348 278.557 204.348 277.795V264.773ZM219.203 281V263.545H221.317V271.318H230.624V263.545H232.738V281H230.624V273.193H221.317V281H219.203ZM242.185 281.273C240.924 281.273 239.836 280.994 238.921 280.438C238.012 279.875 237.31 279.091 236.816 278.085C236.327 277.074 236.083 275.898 236.083 274.557C236.083 273.216 236.327 272.034 236.816 271.011C237.31 269.983 237.998 269.182 238.878 268.608C239.765 268.028 240.799 267.739 241.98 267.739C242.662 267.739 243.336 267.852 244 268.08C244.665 268.307 245.27 268.676 245.816 269.188C246.361 269.693 246.796 270.364 247.12 271.199C247.444 272.034 247.605 273.062 247.605 274.284V275.136H237.515V273.398H245.56C245.56 272.659 245.412 272 245.117 271.42C244.827 270.841 244.412 270.384 243.873 270.048C243.338 269.713 242.708 269.545 241.98 269.545C241.179 269.545 240.486 269.744 239.901 270.142C239.321 270.534 238.875 271.045 238.563 271.676C238.25 272.307 238.094 272.983 238.094 273.705V274.864C238.094 275.852 238.265 276.69 238.605 277.378C238.952 278.06 239.432 278.58 240.046 278.938C240.659 279.29 241.373 279.466 242.185 279.466C242.713 279.466 243.191 279.392 243.617 279.244C244.049 279.091 244.421 278.864 244.733 278.562C245.046 278.256 245.287 277.875 245.458 277.42L247.401 277.966C247.196 278.625 246.853 279.205 246.37 279.705C245.887 280.199 245.29 280.585 244.58 280.864C243.87 281.136 243.071 281.273 242.185 281.273ZM254.517 281.307C253.688 281.307 252.935 281.151 252.259 280.838C251.583 280.52 251.046 280.062 250.648 279.466C250.25 278.864 250.051 278.136 250.051 277.284C250.051 276.534 250.199 275.926 250.495 275.46C250.79 274.989 251.185 274.619 251.679 274.352C252.174 274.085 252.719 273.886 253.316 273.756C253.918 273.619 254.523 273.511 255.131 273.432C255.926 273.33 256.571 273.253 257.066 273.202C257.566 273.145 257.929 273.051 258.157 272.92C258.39 272.79 258.506 272.562 258.506 272.239V272.17C258.506 271.33 258.276 270.676 257.816 270.21C257.361 269.744 256.671 269.511 255.745 269.511C254.784 269.511 254.032 269.722 253.486 270.142C252.941 270.562 252.557 271.011 252.336 271.489L250.426 270.807C250.767 270.011 251.222 269.392 251.79 268.949C252.364 268.5 252.989 268.187 253.665 268.011C254.347 267.83 255.017 267.739 255.676 267.739C256.097 267.739 256.58 267.79 257.125 267.892C257.676 267.989 258.208 268.19 258.719 268.497C259.236 268.804 259.665 269.267 260.006 269.886C260.347 270.506 260.517 271.335 260.517 272.375V281H258.506V279.227H258.404C258.267 279.511 258.04 279.815 257.722 280.139C257.404 280.463 256.98 280.739 256.452 280.966C255.924 281.193 255.279 281.307 254.517 281.307ZM254.824 279.5C255.62 279.5 256.29 279.344 256.836 279.031C257.387 278.719 257.801 278.315 258.08 277.821C258.364 277.327 258.506 276.807 258.506 276.261V274.42C258.421 274.523 258.233 274.616 257.944 274.702C257.659 274.781 257.33 274.852 256.955 274.915C256.586 274.972 256.225 275.023 255.873 275.068C255.526 275.108 255.245 275.142 255.029 275.17C254.506 275.239 254.017 275.349 253.563 275.503C253.114 275.651 252.75 275.875 252.472 276.176C252.199 276.472 252.063 276.875 252.063 277.386C252.063 278.085 252.321 278.614 252.838 278.972C253.361 279.324 254.023 279.5 254.824 279.5ZM269.132 281.273C268.041 281.273 267.078 280.997 266.243 280.446C265.407 279.889 264.754 279.105 264.282 278.094C263.811 277.077 263.575 275.875 263.575 274.489C263.575 273.114 263.811 271.92 264.282 270.909C264.754 269.898 265.41 269.116 266.251 268.565C267.092 268.014 268.064 267.739 269.166 267.739C270.018 267.739 270.691 267.881 271.186 268.165C271.686 268.443 272.066 268.761 272.328 269.119C272.595 269.472 272.802 269.761 272.95 269.989H273.12V263.545H275.132V281H273.189V278.989H272.95C272.802 279.227 272.592 279.528 272.319 279.892C272.047 280.25 271.657 280.571 271.152 280.855C270.646 281.134 269.973 281.273 269.132 281.273ZM269.404 279.466C270.211 279.466 270.893 279.256 271.45 278.835C272.007 278.409 272.43 277.821 272.72 277.071C273.01 276.315 273.154 275.443 273.154 274.455C273.154 273.477 273.012 272.622 272.728 271.889C272.444 271.151 272.024 270.577 271.467 270.168C270.91 269.753 270.223 269.545 269.404 269.545C268.552 269.545 267.842 269.764 267.274 270.202C266.711 270.634 266.288 271.222 266.004 271.966C265.725 272.705 265.586 273.534 265.586 274.455C265.586 275.386 265.728 276.233 266.012 276.994C266.302 277.75 266.728 278.352 267.291 278.801C267.859 279.244 268.564 279.466 269.404 279.466Z" fill="white"/>
<path d="M278.383 140.909V170H274.86V144.602H274.69L267.588 149.318V145.739L274.86 140.909H278.383ZM296.068 170.398C294.117 170.398 292.394 170.052 290.897 169.361C289.411 168.66 288.251 167.699 287.417 166.477C286.584 165.246 286.172 163.845 286.181 162.273C286.172 161.042 286.413 159.905 286.906 158.864C287.398 157.812 288.071 156.937 288.923 156.236C289.785 155.526 290.746 155.076 291.806 154.886V154.716C290.414 154.356 289.306 153.575 288.483 152.372C287.659 151.16 287.252 149.782 287.261 148.239C287.252 146.761 287.626 145.44 288.383 144.276C289.141 143.111 290.182 142.192 291.508 141.52C292.843 140.848 294.363 140.511 296.068 140.511C297.753 140.511 299.259 140.848 300.585 141.52C301.911 142.192 302.952 143.111 303.71 144.276C304.477 145.44 304.865 146.761 304.875 148.239C304.865 149.782 304.444 151.16 303.61 152.372C302.787 153.575 301.693 154.356 300.329 154.716V154.886C301.38 155.076 302.327 155.526 303.17 156.236C304.013 156.937 304.685 157.812 305.187 158.864C305.689 159.905 305.945 161.042 305.954 162.273C305.945 163.845 305.519 165.246 304.676 166.477C303.842 167.699 302.682 168.66 301.196 169.361C299.718 170.052 298.009 170.398 296.068 170.398ZM296.068 167.273C297.384 167.273 298.52 167.06 299.477 166.634C300.433 166.207 301.172 165.606 301.693 164.83C302.214 164.053 302.479 163.144 302.488 162.102C302.479 161.004 302.195 160.033 301.636 159.19C301.077 158.348 300.315 157.685 299.349 157.202C298.393 156.719 297.299 156.477 296.068 156.477C294.827 156.477 293.719 156.719 292.744 157.202C291.778 157.685 291.016 158.348 290.457 159.19C289.908 160.033 289.638 161.004 289.647 162.102C289.638 163.144 289.889 164.053 290.4 164.83C290.921 165.606 291.664 166.207 292.63 166.634C293.596 167.06 294.742 167.273 296.068 167.273ZM296.068 153.466C297.109 153.466 298.033 153.258 298.838 152.841C299.652 152.424 300.291 151.842 300.755 151.094C301.219 150.346 301.456 149.47 301.466 148.466C301.456 147.481 301.224 146.624 300.77 145.895C300.315 145.156 299.685 144.588 298.88 144.19C298.075 143.783 297.138 143.58 296.068 143.58C294.979 143.58 294.027 143.783 293.213 144.19C292.398 144.588 291.769 145.156 291.324 145.895C290.878 146.624 290.661 147.481 290.67 148.466C290.661 149.47 290.883 150.346 291.338 151.094C291.802 151.842 292.441 152.424 293.255 152.841C294.07 153.258 295.007 153.466 296.068 153.466ZM321.228 170.398C319.353 170.398 317.681 170.076 316.213 169.432C314.755 168.788 313.595 167.893 312.733 166.747C311.881 165.592 311.417 164.252 311.341 162.727H314.921C314.997 163.665 315.319 164.474 315.887 165.156C316.455 165.829 317.198 166.349 318.117 166.719C319.035 167.088 320.053 167.273 321.171 167.273C322.421 167.273 323.529 167.055 324.495 166.619C325.461 166.184 326.218 165.578 326.767 164.801C327.317 164.025 327.591 163.125 327.591 162.102C327.591 161.032 327.326 160.09 326.796 159.276C326.266 158.452 325.489 157.808 324.466 157.344C323.444 156.88 322.194 156.648 320.716 156.648H318.387V153.523H320.716C321.872 153.523 322.885 153.314 323.756 152.898C324.637 152.481 325.323 151.894 325.816 151.136C326.318 150.379 326.569 149.489 326.569 148.466C326.569 147.481 326.351 146.624 325.915 145.895C325.48 145.166 324.864 144.598 324.069 144.19C323.283 143.783 322.355 143.58 321.284 143.58C320.281 143.58 319.334 143.764 318.444 144.134C317.563 144.493 316.843 145.019 316.284 145.71C315.726 146.392 315.423 147.216 315.375 148.182H311.966C312.023 146.657 312.482 145.322 313.344 144.176C314.206 143.021 315.333 142.121 316.725 141.477C318.126 140.833 319.665 140.511 321.341 140.511C323.141 140.511 324.684 140.876 325.972 141.605C327.26 142.325 328.249 143.277 328.941 144.46C329.632 145.644 329.978 146.922 329.978 148.295C329.978 149.934 329.547 151.33 328.685 152.486C327.833 153.641 326.673 154.441 325.205 154.886V155.114C327.042 155.417 328.477 156.198 329.509 157.457C330.541 158.707 331.057 160.256 331.057 162.102C331.057 163.684 330.626 165.104 329.765 166.364C328.912 167.614 327.748 168.598 326.27 169.318C324.793 170.038 323.112 170.398 321.228 170.398Z" fill="white"/>
<path d="M408.181 170.398C406.306 170.398 404.634 170.076 403.167 169.432C401.708 168.788 400.548 167.893 399.686 166.747C398.834 165.592 398.37 164.252 398.294 162.727H401.874C401.95 163.665 402.272 164.474 402.84 165.156C403.408 165.829 404.151 166.349 405.07 166.719C405.989 167.088 407.007 167.273 408.124 167.273C409.374 167.273 410.482 167.055 411.448 166.619C412.414 166.184 413.171 165.578 413.721 164.801C414.27 164.025 414.544 163.125 414.544 162.102C414.544 161.032 414.279 160.09 413.749 159.276C413.219 158.452 412.442 157.808 411.419 157.344C410.397 156.88 409.147 156.648 407.669 156.648H405.34V153.523H407.669C408.825 153.523 409.838 153.314 410.709 152.898C411.59 152.481 412.276 151.894 412.769 151.136C413.271 150.379 413.522 149.489 413.522 148.466C413.522 147.481 413.304 146.624 412.868 145.895C412.433 145.166 411.817 144.598 411.022 144.19C410.236 143.783 409.308 143.58 408.238 143.58C407.234 143.58 406.287 143.764 405.397 144.134C404.516 144.493 403.796 145.019 403.238 145.71C402.679 146.392 402.376 147.216 402.328 148.182H398.919C398.976 146.657 399.435 145.322 400.297 144.176C401.159 143.021 402.286 142.121 403.678 141.477C405.079 140.833 406.618 140.511 408.294 140.511C410.094 140.511 411.637 140.876 412.925 141.605C414.213 142.325 415.203 143.277 415.894 144.46C416.585 145.644 416.931 146.922 416.931 148.295C416.931 149.934 416.5 151.33 415.638 152.486C414.786 153.641 413.626 154.441 412.158 154.886V155.114C413.995 155.417 415.43 156.198 416.462 157.457C417.494 158.707 418.01 160.256 418.01 162.102C418.01 163.684 417.579 165.104 416.718 166.364C415.865 167.614 414.701 168.598 413.223 169.318C411.746 170.038 410.065 170.398 408.181 170.398ZM424.729 170L437.74 144.261V144.034H422.74V140.909H441.377V144.205L428.422 170H424.729Z" fill="white"/>
<path d="M413.79 47H403.478V17.9091H413.875C416.801 17.9091 419.32 18.4915 421.432 19.6562C423.544 20.8116 425.168 22.4735 426.304 24.642C427.45 26.8106 428.023 29.4053 428.023 32.4261C428.023 35.4564 427.45 38.0606 426.304 40.2386C425.168 42.4167 423.534 44.0881 421.404 45.2528C419.283 46.4176 416.745 47 413.79 47ZM409.628 41.7301H413.534C415.353 41.7301 416.882 41.4081 418.123 40.7642C419.373 40.1108 420.31 39.1023 420.935 37.7386C421.569 36.3655 421.887 34.5947 421.887 32.4261C421.887 30.2765 421.569 28.5199 420.935 27.1562C420.31 25.7926 419.377 24.7888 418.137 24.1449C416.896 23.5009 415.367 23.179 413.549 23.179H409.628V41.7301ZM432.466 47V25.1818H438.517V47H432.466ZM435.505 22.3693C434.606 22.3693 433.834 22.071 433.19 21.4744C432.556 20.8684 432.238 20.1439 432.238 19.3011C432.238 18.4678 432.556 17.7528 433.19 17.1562C433.834 16.5502 434.606 16.2472 435.505 16.2472C436.405 16.2472 437.172 16.5502 437.806 17.1562C438.45 17.7528 438.772 18.4678 438.772 19.3011C438.772 20.1439 438.45 20.8684 437.806 21.4744C437.172 22.071 436.405 22.3693 435.505 22.3693ZM461.517 31.4034L455.978 31.7443C455.883 31.2708 455.679 30.8447 455.367 30.4659C455.054 30.0777 454.642 29.7699 454.131 29.5426C453.629 29.3059 453.028 29.1875 452.327 29.1875C451.39 29.1875 450.599 29.3864 449.955 29.7841C449.311 30.1723 448.989 30.6932 448.989 31.3466C448.989 31.8674 449.197 32.3078 449.614 32.6676C450.031 33.0275 450.746 33.3163 451.759 33.5341L455.708 34.3295C457.829 34.7652 459.41 35.4659 460.452 36.4318C461.494 37.3977 462.015 38.6667 462.015 40.2386C462.015 41.6686 461.593 42.9233 460.75 44.0028C459.917 45.0824 458.771 45.9252 457.313 46.5312C455.864 47.1278 454.193 47.4261 452.299 47.4261C449.41 47.4261 447.109 46.8248 445.395 45.6222C443.691 44.41 442.692 42.7623 442.398 40.679L448.35 40.3665C448.53 41.2472 448.965 41.9195 449.657 42.3835C450.348 42.8381 451.233 43.0653 452.313 43.0653C453.373 43.0653 454.226 42.8617 454.87 42.4545C455.523 42.0379 455.855 41.5028 455.864 40.8494C455.855 40.3002 455.623 39.8504 455.168 39.5C454.713 39.1402 454.013 38.8655 453.066 38.6761L449.287 37.9233C447.157 37.4972 445.57 36.7585 444.529 35.7074C443.497 34.6562 442.98 33.3163 442.98 31.6875C442.98 30.286 443.359 29.0786 444.117 28.0653C444.884 27.0521 445.959 26.2708 447.341 25.7216C448.733 25.1723 450.362 24.8977 452.228 24.8977C454.983 24.8977 457.152 25.4801 458.733 26.6449C460.324 27.8097 461.252 29.3958 461.517 31.4034ZM471.308 40.7216L471.322 33.4631H472.203L479.191 25.1818H486.137L476.748 36.1477H475.314L471.308 40.7216ZM465.825 47V17.9091H471.876V47H465.825ZM479.461 47L473.041 37.4972L477.075 33.2216L486.549 47H479.461ZM498.478 47V17.9091H509.955C512.152 17.9091 514.027 18.3021 515.58 19.0881C517.142 19.8646 518.331 20.9678 519.145 22.3977C519.969 23.8182 520.381 25.4896 520.381 27.4119C520.381 29.3437 519.964 31.0057 519.131 32.3977C518.298 33.7803 517.09 34.8409 515.509 35.5795C513.937 36.3182 512.033 36.6875 509.799 36.6875H502.114V31.7443H508.804C509.979 31.7443 510.954 31.5833 511.73 31.2614C512.507 30.9394 513.085 30.4564 513.463 29.8125C513.852 29.1686 514.046 28.3684 514.046 27.4119C514.046 26.446 513.852 25.6316 513.463 24.9688C513.085 24.3059 512.502 23.804 511.716 23.4631C510.94 23.1127 509.96 22.9375 508.776 22.9375H504.628V47H498.478ZM514.188 33.7614L521.418 47H514.628L507.554 33.7614H514.188ZM534.206 47.4261C531.961 47.4261 530.029 46.9716 528.41 46.0625C526.8 45.1439 525.56 43.8466 524.689 42.1705C523.817 40.4848 523.382 38.4915 523.382 36.1903C523.382 33.946 523.817 31.9763 524.689 30.2812C525.56 28.5862 526.786 27.2652 528.368 26.3182C529.958 25.3712 531.824 24.8977 533.964 24.8977C535.404 24.8977 536.743 25.1297 537.984 25.5938C539.234 26.0483 540.323 26.7348 541.251 27.6534C542.189 28.572 542.918 29.7273 543.439 31.1193C543.959 32.5019 544.22 34.1212 544.22 35.9773V37.6392H525.797V33.8892H538.524C538.524 33.018 538.334 32.2462 537.956 31.5739C537.577 30.9015 537.051 30.3759 536.379 29.9972C535.716 29.6089 534.944 29.4148 534.064 29.4148C533.145 29.4148 532.331 29.6278 531.62 30.054C530.92 30.4706 530.37 31.0341 529.973 31.7443C529.575 32.4451 529.371 33.2263 529.362 34.0881V37.6534C529.362 38.733 529.561 39.6657 529.958 40.4517C530.366 41.2377 530.939 41.8438 531.677 42.2699C532.416 42.696 533.292 42.9091 534.305 42.9091C534.977 42.9091 535.593 42.8144 536.152 42.625C536.71 42.4356 537.189 42.1515 537.586 41.7727C537.984 41.3939 538.287 40.9299 538.495 40.3807L544.092 40.75C543.808 42.0947 543.225 43.2689 542.345 44.2727C541.474 45.267 540.347 46.0436 538.964 46.6023C537.591 47.1515 536.005 47.4261 534.206 47.4261ZM562.586 55.1818V43.5057H562.402C562.118 44.1117 561.715 44.7131 561.194 45.3097C560.683 45.8968 560.015 46.3845 559.191 46.7727C558.377 47.161 557.383 47.3551 556.208 47.3551C554.551 47.3551 553.05 46.929 551.706 46.0767C550.37 45.215 549.31 43.9508 548.524 42.2841C547.747 40.608 547.359 38.553 547.359 36.1193C547.359 33.6193 547.761 31.5407 548.566 29.8835C549.371 28.2169 550.441 26.9716 551.777 26.1477C553.121 25.3144 554.594 24.8977 556.194 24.8977C557.416 24.8977 558.434 25.1061 559.248 25.5227C560.072 25.9299 560.735 26.4413 561.237 27.0568C561.748 27.6629 562.136 28.2595 562.402 28.8466H562.657V25.1818H568.623V55.1818H562.586ZM558.126 42.5398C559.101 42.5398 559.925 42.2746 560.598 41.7443C561.279 41.2045 561.8 40.4517 562.16 39.4858C562.529 38.5199 562.714 37.3883 562.714 36.0909C562.714 34.7936 562.534 33.6667 562.174 32.7102C561.815 31.7538 561.294 31.0152 560.612 30.4943C559.93 29.9735 559.101 29.7131 558.126 29.7131C557.132 29.7131 556.294 29.983 555.612 30.5227C554.93 31.0625 554.414 31.8106 554.064 32.767C553.713 33.7235 553.538 34.8314 553.538 36.0909C553.538 37.3598 553.713 38.482 554.064 39.4574C554.423 40.4233 554.94 41.1809 555.612 41.7301C556.294 42.2699 557.132 42.5398 558.126 42.5398ZM587.473 37.7102V25.1818H593.524V47H587.714V43.0369H587.487C586.994 44.3153 586.175 45.3428 585.029 46.1193C583.893 46.8958 582.506 47.2841 580.868 47.2841C579.409 47.2841 578.126 46.9527 577.018 46.2898C575.91 45.6269 575.044 44.6847 574.419 43.4631C573.803 42.2415 573.491 40.7784 573.481 39.0739V25.1818H579.532V37.9943C579.542 39.2822 579.887 40.3002 580.569 41.0483C581.251 41.7964 582.165 42.1705 583.311 42.1705C584.04 42.1705 584.722 42.0047 585.356 41.6733C585.991 41.3324 586.502 40.8305 586.89 40.1676C587.288 39.5047 587.482 38.6856 587.473 37.7102ZM608.307 47.4261C606.063 47.4261 604.131 46.9716 602.512 46.0625C600.902 45.1439 599.661 43.8466 598.79 42.1705C597.919 40.4848 597.483 38.4915 597.483 36.1903C597.483 33.946 597.919 31.9763 598.79 30.2812C599.661 28.5862 600.888 27.2652 602.469 26.3182C604.06 25.3712 605.926 24.8977 608.066 24.8977C609.505 24.8977 610.845 25.1297 612.086 25.5938C613.336 26.0483 614.425 26.7348 615.353 27.6534C616.29 28.572 617.019 29.7273 617.54 31.1193C618.061 32.5019 618.321 34.1212 618.321 35.9773V37.6392H599.898V33.8892H612.625C612.625 33.018 612.436 32.2462 612.057 31.5739C611.678 30.9015 611.153 30.3759 610.48 29.9972C609.818 29.6089 609.046 29.4148 608.165 29.4148C607.247 29.4148 606.432 29.6278 605.722 30.054C605.021 30.4706 604.472 31.0341 604.074 31.7443C603.676 32.4451 603.473 33.2263 603.463 34.0881V37.6534C603.463 38.733 603.662 39.6657 604.06 40.4517C604.467 41.2377 605.04 41.8438 605.779 42.2699C606.517 42.696 607.393 42.9091 608.407 42.9091C609.079 42.9091 609.694 42.8144 610.253 42.625C610.812 42.4356 611.29 42.1515 611.688 41.7727C612.086 41.3939 612.389 40.9299 612.597 40.3807L618.194 40.75C617.909 42.0947 617.327 43.2689 616.446 44.2727C615.575 45.267 614.448 46.0436 613.066 46.6023C611.693 47.1515 610.106 47.4261 608.307 47.4261ZM640.424 31.4034L634.884 31.7443C634.789 31.2708 634.586 30.8447 634.273 30.4659C633.961 30.0777 633.549 29.7699 633.037 29.5426C632.535 29.3059 631.934 29.1875 631.233 29.1875C630.296 29.1875 629.505 29.3864 628.861 29.7841C628.217 30.1723 627.895 30.6932 627.895 31.3466C627.895 31.8674 628.104 32.3078 628.52 32.6676C628.937 33.0275 629.652 33.3163 630.665 33.5341L634.614 34.3295C636.735 34.7652 638.317 35.4659 639.358 36.4318C640.4 37.3977 640.921 38.6667 640.921 40.2386C640.921 41.6686 640.499 42.9233 639.657 44.0028C638.823 45.0824 637.677 45.9252 636.219 46.5312C634.77 47.1278 633.099 47.4261 631.205 47.4261C628.317 47.4261 626.016 46.8248 624.301 45.6222C622.597 44.41 621.598 42.7623 621.304 40.679L627.256 40.3665C627.436 41.2472 627.872 41.9195 628.563 42.3835C629.254 42.8381 630.14 43.0653 631.219 43.0653C632.28 43.0653 633.132 42.8617 633.776 42.4545C634.429 42.0379 634.761 41.5028 634.77 40.8494C634.761 40.3002 634.529 39.8504 634.074 39.5C633.62 39.1402 632.919 38.8655 631.972 38.6761L628.194 37.9233C626.063 37.4972 624.477 36.7585 623.435 35.7074C622.403 34.6562 621.887 33.3163 621.887 31.6875C621.887 30.286 622.266 29.0786 623.023 28.0653C623.79 27.0521 624.865 26.2708 626.248 25.7216C627.64 25.1723 629.268 24.8977 631.134 24.8977C633.89 24.8977 636.058 25.4801 637.64 26.6449C639.23 27.8097 640.158 29.3958 640.424 31.4034ZM656.336 25.1818V29.7273H643.197V25.1818H656.336ZM646.18 19.9545H652.231V40.2955C652.231 40.8542 652.316 41.2898 652.487 41.6023C652.657 41.9053 652.894 42.1184 653.197 42.2415C653.51 42.3646 653.869 42.4261 654.277 42.4261C654.561 42.4261 654.845 42.4025 655.129 42.3551C655.413 42.2983 655.631 42.2557 655.782 42.2273L656.734 46.7301C656.431 46.8248 656.005 46.9337 655.456 47.0568C654.906 47.1894 654.239 47.2699 653.453 47.2983C651.994 47.3551 650.716 47.161 649.618 46.7159C648.529 46.2708 647.681 45.5795 647.075 44.642C646.469 43.7045 646.171 42.5208 646.18 41.0909V19.9545ZM678.158 31.4034L672.618 31.7443C672.524 31.2708 672.32 30.8447 672.007 30.4659C671.695 30.0777 671.283 29.7699 670.772 29.5426C670.27 29.3059 669.668 29.1875 668.968 29.1875C668.03 29.1875 667.239 29.3864 666.596 29.7841C665.952 30.1723 665.63 30.6932 665.63 31.3466C665.63 31.8674 665.838 32.3078 666.255 32.6676C666.671 33.0275 667.386 33.3163 668.4 33.5341L672.348 34.3295C674.47 34.7652 676.051 35.4659 677.093 36.4318C678.134 37.3977 678.655 38.6667 678.655 40.2386C678.655 41.6686 678.234 42.9233 677.391 44.0028C676.558 45.0824 675.412 45.9252 673.953 46.5312C672.505 47.1278 670.833 47.4261 668.939 47.4261C666.051 47.4261 663.75 46.8248 662.036 45.6222C660.331 44.41 659.332 42.7623 659.039 40.679L664.99 40.3665C665.17 41.2472 665.606 41.9195 666.297 42.3835C666.989 42.8381 667.874 43.0653 668.953 43.0653C670.014 43.0653 670.866 42.8617 671.51 42.4545C672.164 42.0379 672.495 41.5028 672.505 40.8494C672.495 40.3002 672.263 39.8504 671.809 39.5C671.354 39.1402 670.653 38.8655 669.706 38.6761L665.928 37.9233C663.797 37.4972 662.211 36.7585 661.169 35.7074C660.137 34.6562 659.621 33.3163 659.621 31.6875C659.621 30.286 660 29.0786 660.757 28.0653C661.525 27.0521 662.599 26.2708 663.982 25.7216C665.374 25.1723 667.003 24.8977 668.868 24.8977C671.624 24.8977 673.792 25.4801 675.374 26.6449C676.965 27.8097 677.893 29.3958 678.158 31.4034Z" fill="white"/>
<path d="M520.223 140.909V170H516.7V144.602H516.53L509.428 149.318V145.739L516.7 140.909H520.223ZM528.589 170V167.443L538.192 156.932C539.319 155.701 540.247 154.631 540.976 153.722C541.705 152.803 542.245 151.941 542.595 151.136C542.955 150.322 543.135 149.47 543.135 148.58C543.135 147.557 542.889 146.671 542.396 145.923C541.913 145.175 541.25 144.598 540.408 144.19C539.565 143.783 538.618 143.58 537.567 143.58C536.449 143.58 535.474 143.812 534.641 144.276C533.817 144.73 533.178 145.369 532.723 146.193C532.278 147.017 532.055 147.983 532.055 149.091H528.703C528.703 147.386 529.096 145.89 529.882 144.602C530.668 143.314 531.738 142.311 533.092 141.591C534.456 140.871 535.985 140.511 537.68 140.511C539.385 140.511 540.895 140.871 542.212 141.591C543.528 142.311 544.56 143.281 545.308 144.503C546.056 145.724 546.43 147.083 546.43 148.58C546.43 149.65 546.236 150.696 545.848 151.719C545.469 152.732 544.806 153.864 543.859 155.114C542.922 156.354 541.62 157.869 539.953 159.659L533.419 166.648V166.875H546.942V170H528.589ZM552.808 170V167.443L562.411 156.932C563.537 155.701 564.465 154.631 565.195 153.722C565.924 152.803 566.464 151.941 566.814 151.136C567.174 150.322 567.354 149.47 567.354 148.58C567.354 147.557 567.107 146.671 566.615 145.923C566.132 145.175 565.469 144.598 564.626 144.19C563.784 143.783 562.837 143.58 561.786 143.58C560.668 143.58 559.693 143.812 558.859 144.276C558.036 144.73 557.396 145.369 556.942 146.193C556.497 147.017 556.274 147.983 556.274 149.091H552.922C552.922 147.386 553.315 145.89 554.101 144.602C554.887 143.314 555.957 142.311 557.311 141.591C558.675 140.871 560.204 140.511 561.899 140.511C563.604 140.511 565.114 140.871 566.43 141.591C567.747 142.311 568.779 143.281 569.527 144.503C570.275 145.724 570.649 147.083 570.649 148.58C570.649 149.65 570.455 150.696 570.067 151.719C569.688 152.732 569.025 153.864 568.078 155.114C567.141 156.354 565.839 157.869 564.172 159.659L557.638 166.648V166.875H571.161V170H552.808Z" fill="white"/>
<path d="M651.61 140.909V170H648.087V144.602H647.917L640.814 149.318V145.739L648.087 140.909H651.61ZM659.294 164.034V161.136L672.078 140.909H674.181V145.398H672.76L663.101 160.682V160.909H680.317V164.034H659.294ZM672.988 170V163.153V161.804V140.909H676.34V170H672.988Z" fill="white"/>
<path d="M759.813 140.909V170H756.29V144.602H756.12L749.017 149.318V145.739L756.29 140.909H759.813ZM768.179 170V167.443L777.782 156.932C778.908 155.701 779.837 154.631 780.566 153.722C781.295 152.803 781.835 151.941 782.185 151.136C782.545 150.322 782.725 149.47 782.725 148.58C782.725 147.557 782.479 146.671 781.986 145.923C781.503 145.175 780.84 144.598 779.998 144.19C779.155 143.783 778.208 143.58 777.157 143.58C776.039 143.58 775.064 143.812 774.23 144.276C773.407 144.73 772.767 145.369 772.313 146.193C771.868 147.017 771.645 147.983 771.645 149.091H768.293C768.293 147.386 768.686 145.89 769.472 144.602C770.258 143.314 771.328 142.311 772.682 141.591C774.046 140.871 775.575 140.511 777.27 140.511C778.975 140.511 780.485 140.871 781.801 141.591C783.118 142.311 784.15 143.281 784.898 144.503C785.646 145.724 786.02 147.083 786.02 148.58C786.02 149.65 785.826 150.696 785.438 151.719C785.059 152.732 784.396 153.864 783.449 155.114C782.512 156.354 781.21 157.869 779.543 159.659L773.009 166.648V166.875H786.532V170H768.179ZM791.091 164.034V161.136L803.875 140.909H805.978V145.398H804.557L794.898 160.682V160.909H812.114V164.034H791.091ZM804.784 170V163.153V161.804V140.909H808.137V170H804.784Z" fill="white"/>
<path d="M888.522 170.398C887.329 170.379 886.136 170.152 884.942 169.716C883.749 169.28 882.66 168.546 881.675 167.514C880.691 166.473 879.9 165.066 879.303 163.295C878.707 161.515 878.408 159.28 878.408 156.591C878.408 154.015 878.65 151.733 879.133 149.744C879.616 147.746 880.317 146.065 881.235 144.702C882.154 143.329 883.262 142.287 884.559 141.577C885.866 140.866 887.338 140.511 888.977 140.511C890.605 140.511 892.054 140.838 893.323 141.491C894.602 142.135 895.643 143.035 896.448 144.19C897.253 145.346 897.774 146.676 898.011 148.182H894.545C894.223 146.875 893.598 145.791 892.67 144.929C891.742 144.067 890.511 143.636 888.977 143.636C886.723 143.636 884.947 144.616 883.65 146.577C882.362 148.537 881.713 151.288 881.704 154.83H881.931C882.461 154.025 883.091 153.338 883.82 152.77C884.559 152.192 885.373 151.747 886.263 151.435C887.154 151.122 888.096 150.966 889.09 150.966C890.757 150.966 892.281 151.383 893.664 152.216C895.047 153.04 896.155 154.181 896.988 155.639C897.821 157.088 898.238 158.75 898.238 160.625C898.238 162.424 897.835 164.072 897.031 165.568C896.226 167.055 895.094 168.239 893.636 169.119C892.187 169.991 890.482 170.417 888.522 170.398ZM888.522 167.273C889.715 167.273 890.785 166.974 891.732 166.378C892.689 165.781 893.442 164.981 893.991 163.977C894.549 162.973 894.829 161.856 894.829 160.625C894.829 159.422 894.559 158.329 894.019 157.344C893.489 156.349 892.755 155.559 891.817 154.972C890.889 154.384 889.829 154.091 888.636 154.091C887.736 154.091 886.898 154.271 886.121 154.631C885.345 154.981 884.663 155.464 884.076 156.08C883.498 156.695 883.044 157.401 882.712 158.196C882.381 158.982 882.215 159.811 882.215 160.682C882.215 161.837 882.485 162.917 883.025 163.92C883.574 164.924 884.322 165.734 885.269 166.349C886.226 166.965 887.31 167.273 888.522 167.273ZM912.915 170.398C911.248 170.398 909.747 170.066 908.412 169.403C907.077 168.741 906.007 167.831 905.202 166.676C904.397 165.521 903.956 164.205 903.881 162.727H907.29C907.422 164.044 908.019 165.133 909.08 165.994C910.15 166.847 911.428 167.273 912.915 167.273C914.108 167.273 915.169 166.993 916.097 166.435C917.034 165.876 917.768 165.109 918.298 164.134C918.838 163.149 919.108 162.036 919.108 160.795C919.108 159.527 918.829 158.395 918.27 157.401C917.721 156.397 916.963 155.606 915.997 155.028C915.031 154.451 913.928 154.157 912.688 154.148C911.797 154.138 910.884 154.276 909.946 154.56C909.009 154.834 908.237 155.189 907.631 155.625L904.335 155.227L906.097 140.909H921.21V144.034H909.051L908.028 152.614H908.199C908.795 152.14 909.544 151.747 910.443 151.435C911.343 151.122 912.28 150.966 913.256 150.966C915.036 150.966 916.622 151.392 918.014 152.244C919.416 153.087 920.514 154.242 921.31 155.71C922.115 157.178 922.517 158.854 922.517 160.739C922.517 162.595 922.1 164.252 921.267 165.71C920.443 167.159 919.307 168.305 917.858 169.148C916.409 169.981 914.761 170.398 912.915 170.398Z" fill="white"/>
<path d="M1009.26 170.398C1008.07 170.379 1006.88 170.152 1005.68 169.716C1004.49 169.28 1003.4 168.546 1002.42 167.514C1001.43 166.473 1000.64 165.066 1000.05 163.295C999.449 161.515 999.151 159.28 999.151 156.591C999.151 154.015 999.392 151.733 999.875 149.744C1000.36 147.746 1001.06 146.065 1001.98 144.702C1002.9 143.329 1004 142.287 1005.3 141.577C1006.61 140.866 1008.08 140.511 1009.72 140.511C1011.35 140.511 1012.8 140.838 1014.07 141.491C1015.34 142.135 1016.39 143.035 1017.19 144.19C1018 145.346 1018.52 146.676 1018.75 148.182H1015.29C1014.96 146.875 1014.34 145.791 1013.41 144.929C1012.48 144.067 1011.25 143.636 1009.72 143.636C1007.46 143.636 1005.69 144.616 1004.39 146.577C1003.1 148.537 1002.46 151.288 1002.45 154.83H1002.67C1003.2 154.025 1003.83 153.338 1004.56 152.77C1005.3 152.192 1006.12 151.747 1007.01 151.435C1007.9 151.122 1008.84 150.966 1009.83 150.966C1011.5 150.966 1013.02 151.383 1014.41 152.216C1015.79 153.04 1016.9 154.181 1017.73 155.639C1018.56 157.088 1018.98 158.75 1018.98 160.625C1018.98 162.424 1018.58 164.072 1017.77 165.568C1016.97 167.055 1015.84 168.239 1014.38 169.119C1012.93 169.991 1011.22 170.417 1009.26 170.398ZM1009.26 167.273C1010.46 167.273 1011.53 166.974 1012.47 166.378C1013.43 165.781 1014.18 164.981 1014.73 163.977C1015.29 162.973 1015.57 161.856 1015.57 160.625C1015.57 159.422 1015.3 158.329 1014.76 157.344C1014.23 156.349 1013.5 155.559 1012.56 154.972C1011.63 154.384 1010.57 154.091 1009.38 154.091C1008.48 154.091 1007.64 154.271 1006.86 154.631C1006.09 154.981 1005.41 155.464 1004.82 156.08C1004.24 156.695 1003.79 157.401 1003.45 158.196C1003.12 158.982 1002.96 159.811 1002.96 160.682C1002.96 161.837 1003.23 162.917 1003.77 163.92C1004.32 164.924 1005.06 165.734 1006.01 166.349C1006.97 166.965 1008.05 167.273 1009.26 167.273ZM1025.48 170L1038.49 144.261V144.034H1023.49V140.909H1042.12V144.205L1029.17 170H1025.48Z" fill="white"/>
<rect x="1" y="399" width="1079" height="120" rx="26" stroke="#DBDBDB" stroke-width="2"/>
<line x1="121" y1="398" x2="121" y2="520" stroke="#DBDBDB" stroke-width="2"/>
<line x1="241" y1="398" x2="241" y2="520" stroke="#DBDBDB" stroke-width="2"/>
<line x1="361" y1="398" x2="361" y2="520" stroke="#DBDBDB" stroke-width="2"/>
<line x1="482" y1="398" x2="482" y2="520" stroke="#DBDBDB" stroke-width="2"/>
<line x1="602" y1="398" x2="602" y2="520" stroke="#DBDBDB" stroke-width="2"/>
<line x1="722" y1="398" x2="722" y2="520" stroke="#DBDBDB" stroke-width="2"/>
<line x1="842" y1="398" x2="842" y2="520" stroke="#DBDBDB" stroke-width="2"/>
<line x1="962" y1="398" x2="962" y2="520" stroke="#DBDBDB" stroke-width="2"/>
<path d="M47.6999 473.398C46.0333 473.398 44.5323 473.066 43.1971 472.403C41.8619 471.741 40.7918 470.831 39.9869 469.676C39.1819 468.521 38.7416 467.205 38.6658 465.727H42.0749C42.2075 467.044 42.8041 468.133 43.8647 468.994C44.9348 469.847 46.2132 470.273 47.6999 470.273C48.8931 470.273 49.9537 469.993 50.8817 469.435C51.8192 468.876 52.5531 468.109 53.0835 467.134C53.6232 466.149 53.8931 465.036 53.8931 463.795C53.8931 462.527 53.6138 461.395 53.055 460.401C52.5058 459.397 51.7482 458.606 50.7823 458.028C49.8164 457.451 48.7132 457.157 47.4727 457.148C46.5825 457.138 45.6687 457.276 44.7312 457.56C43.7937 457.834 43.0219 458.189 42.4158 458.625L39.1204 458.227L40.8817 443.909H55.9954V447.034H43.8363L42.8136 455.614H42.984C43.5806 455.14 44.3287 454.747 45.2283 454.435C46.128 454.122 47.0655 453.966 48.0408 453.966C49.8211 453.966 51.4073 454.392 52.7994 455.244C54.2009 456.087 55.2994 457.242 56.0948 458.71C56.8997 460.178 57.3022 461.854 57.3022 463.739C57.3022 465.595 56.8855 467.252 56.0522 468.71C55.2283 470.159 54.092 471.305 52.6431 472.148C51.1942 472.981 49.5465 473.398 47.6999 473.398ZM72.7745 473.398C70.8995 473.398 69.2281 473.076 67.7603 472.432C66.302 471.788 65.1419 470.893 64.2802 469.747C63.4279 468.592 62.9639 467.252 62.8881 465.727H66.4677C66.5434 466.665 66.8654 467.474 67.4336 468.156C68.0018 468.829 68.7451 469.349 69.6637 469.719C70.5823 470.088 71.6003 470.273 72.7177 470.273C73.9677 470.273 75.0756 470.055 76.0415 469.619C77.0075 469.184 77.765 468.578 78.3143 467.801C78.8635 467.025 79.1381 466.125 79.1381 465.102C79.1381 464.032 78.873 463.09 78.3427 462.276C77.8124 461.452 77.0359 460.808 76.0131 460.344C74.9904 459.88 73.7404 459.648 72.2631 459.648H69.9336V456.523H72.2631C73.4184 456.523 74.4317 456.314 75.3029 455.898C76.1836 455.481 76.8701 454.894 77.3626 454.136C77.8645 453.379 78.1154 452.489 78.1154 451.466C78.1154 450.481 77.8976 449.624 77.462 448.895C77.0264 448.166 76.4109 447.598 75.6154 447.19C74.8294 446.783 73.9014 446.58 72.8313 446.58C71.8275 446.58 70.8806 446.764 69.9904 447.134C69.1097 447.493 68.39 448.019 67.8313 448.71C67.2726 449.392 66.9696 450.216 66.9222 451.182H63.5131C63.57 449.657 64.0292 448.322 64.891 447.176C65.7527 446.021 66.8796 445.121 68.2717 444.477C69.6732 443.833 71.212 443.511 72.8881 443.511C74.6874 443.511 76.2309 443.876 77.5188 444.605C78.8067 445.325 79.7963 446.277 80.4876 447.46C81.1789 448.644 81.5245 449.922 81.5245 451.295C81.5245 452.934 81.0936 454.33 80.2319 455.486C79.3796 456.641 78.2196 457.441 76.7518 457.886V458.114C78.5889 458.417 80.0236 459.198 81.0558 460.457C82.088 461.707 82.604 463.256 82.604 465.102C82.604 466.684 82.1732 468.104 81.3114 469.364C80.4592 470.614 79.2944 471.598 77.8171 472.318C76.3398 473.038 74.659 473.398 72.7745 473.398Z" fill="white"/>
<path d="M185.869 458.966V462.091H173.142V458.966H185.869Z" fill="white"/>
<path d="M305.869 458.966V462.091H293.142V458.966H305.869Z" fill="white"/>
<path d="M425.869 458.966V462.091H413.142V458.966H425.869Z" fill="white"/>
<path d="M462.966 320.909V350H457.654L444.998 331.69H444.784V350H438.634V320.909H444.032L456.588 339.205H456.844V320.909H462.966ZM477.877 350.426C475.633 350.426 473.701 349.972 472.082 349.062C470.472 348.144 469.232 346.847 468.36 345.17C467.489 343.485 467.054 341.491 467.054 339.19C467.054 336.946 467.489 334.976 468.36 333.281C469.232 331.586 470.458 330.265 472.039 329.318C473.63 328.371 475.496 327.898 477.636 327.898C479.075 327.898 480.415 328.13 481.656 328.594C482.906 329.048 483.995 329.735 484.923 330.653C485.86 331.572 486.59 332.727 487.11 334.119C487.631 335.502 487.892 337.121 487.892 338.977V340.639H469.468V336.889H482.196C482.196 336.018 482.006 335.246 481.627 334.574C481.249 333.902 480.723 333.376 480.051 332.997C479.388 332.609 478.616 332.415 477.735 332.415C476.817 332.415 476.002 332.628 475.292 333.054C474.592 333.471 474.042 334.034 473.645 334.744C473.247 335.445 473.043 336.226 473.034 337.088V340.653C473.034 341.733 473.233 342.666 473.63 343.452C474.038 344.238 474.61 344.844 475.349 345.27C476.088 345.696 476.964 345.909 477.977 345.909C478.649 345.909 479.265 345.814 479.824 345.625C480.382 345.436 480.86 345.152 481.258 344.773C481.656 344.394 481.959 343.93 482.167 343.381L487.764 343.75C487.48 345.095 486.897 346.269 486.017 347.273C485.145 348.267 484.019 349.044 482.636 349.602C481.263 350.152 479.677 350.426 477.877 350.426ZM495.988 350L490.051 328.182H496.173L499.554 342.841H499.752L503.275 328.182H509.284L512.863 342.756H513.048L516.372 328.182H522.48L516.556 350H510.15L506.4 336.278H506.13L502.38 350H495.988ZM561.812 335.455C561.812 338.627 561.211 341.326 560.008 343.551C558.815 345.777 557.186 347.476 555.122 348.651C553.067 349.815 550.756 350.398 548.19 350.398C545.605 350.398 543.285 349.811 541.23 348.636C539.175 347.462 537.551 345.762 536.358 343.537C535.164 341.312 534.568 338.617 534.568 335.455C534.568 332.282 535.164 329.583 536.358 327.358C537.551 325.133 539.175 323.437 541.23 322.273C543.285 321.098 545.605 320.511 548.19 320.511C550.756 320.511 553.067 321.098 555.122 322.273C557.186 323.437 558.815 325.133 560.008 327.358C561.211 329.583 561.812 332.282 561.812 335.455ZM555.576 335.455C555.576 333.4 555.269 331.667 554.653 330.256C554.047 328.845 553.19 327.775 552.082 327.045C550.974 326.316 549.677 325.952 548.19 325.952C546.703 325.952 545.406 326.316 544.298 327.045C543.19 327.775 542.328 328.845 541.713 330.256C541.107 331.667 540.804 333.4 540.804 335.455C540.804 337.509 541.107 339.242 541.713 340.653C542.328 342.064 543.19 343.134 544.298 343.864C545.406 344.593 546.703 344.957 548.19 344.957C549.677 344.957 550.974 344.593 552.082 343.864C553.19 343.134 554.047 342.064 554.653 340.653C555.269 339.242 555.576 337.509 555.576 335.455ZM566.255 350V328.182H572.121V331.989H572.348C572.746 330.634 573.414 329.612 574.351 328.92C575.289 328.22 576.368 327.869 577.59 327.869C577.893 327.869 578.22 327.888 578.57 327.926C578.92 327.964 579.228 328.016 579.493 328.082V333.452C579.209 333.366 578.816 333.291 578.314 333.224C577.812 333.158 577.353 333.125 576.936 333.125C576.046 333.125 575.251 333.319 574.55 333.707C573.859 334.086 573.31 334.616 572.902 335.298C572.505 335.98 572.306 336.766 572.306 337.656V350H566.255ZM589.646 350.355C587.989 350.355 586.488 349.929 585.143 349.077C583.808 348.215 582.747 346.951 581.961 345.284C581.185 343.608 580.797 341.553 580.797 339.119C580.797 336.619 581.199 334.541 582.004 332.884C582.809 331.217 583.879 329.972 585.214 329.148C586.559 328.314 588.031 327.898 589.632 327.898C590.853 327.898 591.871 328.106 592.686 328.523C593.51 328.93 594.172 329.441 594.674 330.057C595.186 330.663 595.574 331.259 595.839 331.847H596.024V320.909H602.061V350H596.095V346.506H595.839C595.555 347.112 595.153 347.713 594.632 348.31C594.12 348.897 593.453 349.384 592.629 349.773C591.815 350.161 590.82 350.355 589.646 350.355ZM591.564 345.54C592.539 345.54 593.363 345.275 594.035 344.744C594.717 344.205 595.238 343.452 595.598 342.486C595.967 341.52 596.152 340.388 596.152 339.091C596.152 337.794 595.972 336.667 595.612 335.71C595.252 334.754 594.731 334.015 594.049 333.494C593.368 332.973 592.539 332.713 591.564 332.713C590.569 332.713 589.731 332.983 589.049 333.523C588.368 334.062 587.851 334.811 587.501 335.767C587.151 336.723 586.975 337.831 586.975 339.091C586.975 340.36 587.151 341.482 587.501 342.457C587.861 343.423 588.377 344.181 589.049 344.73C589.731 345.27 590.569 345.54 591.564 345.54ZM616.979 350.426C614.735 350.426 612.803 349.972 611.184 349.062C609.574 348.144 608.333 346.847 607.462 345.17C606.591 343.485 606.155 341.491 606.155 339.19C606.155 336.946 606.591 334.976 607.462 333.281C608.333 331.586 609.56 330.265 611.141 329.318C612.732 328.371 614.597 327.898 616.738 327.898C618.177 327.898 619.517 328.13 620.757 328.594C622.007 329.048 623.096 329.735 624.025 330.653C624.962 331.572 625.691 332.727 626.212 334.119C626.733 335.502 626.993 337.121 626.993 338.977V340.639H608.57V336.889H621.297C621.297 336.018 621.108 335.246 620.729 334.574C620.35 333.902 619.825 333.376 619.152 332.997C618.489 332.609 617.718 332.415 616.837 332.415C615.918 332.415 615.104 332.628 614.394 333.054C613.693 333.471 613.144 334.034 612.746 334.744C612.348 335.445 612.145 336.226 612.135 337.088V340.653C612.135 341.733 612.334 342.666 612.732 343.452C613.139 344.238 613.712 344.844 614.451 345.27C615.189 345.696 616.065 345.909 617.078 345.909C617.751 345.909 618.366 345.814 618.925 345.625C619.484 345.436 619.962 345.152 620.36 344.773C620.757 344.394 621.06 343.93 621.269 343.381L626.865 343.75C626.581 345.095 625.999 346.269 625.118 347.273C624.247 348.267 623.12 349.044 621.738 349.602C620.364 350.152 618.778 350.426 616.979 350.426ZM630.942 350V328.182H636.809V331.989H637.036C637.434 330.634 638.101 329.612 639.039 328.92C639.976 328.22 641.056 327.869 642.277 327.869C642.58 327.869 642.907 327.888 643.257 327.926C643.608 327.964 643.916 328.016 644.181 328.082V333.452C643.897 333.366 643.504 333.291 643.002 333.224C642.5 333.158 642.041 333.125 641.624 333.125C640.734 333.125 639.938 333.319 639.238 333.707C638.546 334.086 637.997 334.616 637.59 335.298C637.192 335.98 636.993 336.766 636.993 337.656V350H630.942Z" fill="white"/>
<path d="M546.869 458.966V462.091H534.142V458.966H546.869Z" fill="white"/>
<path d="M666.869 458.966V462.091H654.142V458.966H666.869Z" fill="white"/>
<path d="M786.869 458.966V462.091H774.142V458.966H786.869Z" fill="white"/>
<path d="M906.869 458.966V462.091H894.142V458.966H906.869Z" fill="white"/>
<path d="M1026.87 458.966V462.091H1014.14V458.966H1026.87Z" fill="white"/>
<path d="M108.561 274.561C109.146 273.975 109.146 273.025 108.561 272.439L99.0147 262.893C98.4289 262.308 97.4792 262.308 96.8934 262.893C96.3076 263.479 96.3076 264.429 96.8934 265.015L105.379 273.5L96.8934 281.985C96.3076 282.571 96.3076 283.521 96.8934 284.107C97.4792 284.692 98.4289 284.692 99.0147 284.107L108.561 274.561ZM60.9999 273.5L59.4999 273.5L59.4999 275L60.9999 275L60.9999 273.5ZM60.9999 239L59.4999 239L59.4999 273.5L60.9999 273.5L62.4999 273.5L62.4999 239L60.9999 239ZM60.9999 273.5L60.9999 275L107.5 275L107.5 273.5L107.5 272L60.9999 272L60.9999 273.5Z" fill="white"/>
</svg>
