<svg xmlns="http://www.w3.org/2000/svg" width="1081" height="520" fill="none" viewBox="0 0 1081 520"><path fill="#002647" d="M2 123c0-14.912 12.088-27 27-27h92v120H29c-14.912 0-27-12.088-27-27z"/><rect width="1079" height="120" x="1" y="96" stroke="#dbdbdb" stroke-width="2" rx="26"/><path stroke="#dbdbdb" stroke-width="2" d="M121 95v122M241 95v122M361 95v122M482 95v122M602 95v122M722 95v122M842 95v122M962 95v122"/><path fill="#fff" d="M47.7 170.398q-2.5 0-4.503-.995-2.003-.994-3.21-2.727t-1.321-3.949h3.409q.2 1.976 1.79 3.267 1.605 1.28 3.835 1.279 1.79 0 3.182-.838a5.9 5.9 0 0 0 2.202-2.301q.81-1.478.81-3.339 0-1.903-.839-3.394a6.15 6.15 0 0 0-2.273-2.373q-1.449-.866-3.31-.88a9 9 0 0 0-2.74.412q-1.407.411-2.316 1.065l-3.296-.398 1.762-14.318h15.113v3.125H43.836l-1.022 8.58h.17q.895-.711 2.244-1.179a8.5 8.5 0 0 1 2.813-.469q2.67 0 4.758 1.278a8.93 8.93 0 0 1 3.296 3.466q1.207 2.202 1.207 5.029 0 2.784-1.25 4.971a9.14 9.14 0 0 1-3.409 3.438q-2.173 1.25-4.943 1.25m25.075 0q-2.814 0-5.015-.966-2.187-.966-3.48-2.685-1.278-1.733-1.392-4.02h3.58q.112 1.407.966 2.429.852 1.009 2.23 1.563 1.377.554 3.054.554 1.875 0 3.323-.654 1.45-.653 2.273-1.818.824-1.164.824-2.699 0-1.605-.795-2.826-.795-1.236-2.33-1.932-1.534-.696-3.75-.696h-2.33v-3.125h2.33q1.733 0 3.04-.625 1.32-.625 2.06-1.762.752-1.136.752-2.67 0-1.478-.653-2.571-.654-1.093-1.847-1.705-1.179-.61-2.784-.61-1.506 0-2.84.554-1.322.539-2.16 1.576-.837 1.023-.909 2.472h-3.409q.085-2.287 1.378-4.006 1.293-1.733 3.38-2.699 2.103-.966 4.617-.966 2.7 0 4.63 1.094 1.933 1.08 2.97 2.855a7.5 7.5 0 0 1 1.037 3.835q0 2.458-1.293 4.191-1.278 1.733-3.48 2.4v.228q2.756.454 4.304 2.343 1.548 1.876 1.548 4.645 0 2.373-1.293 4.262-1.278 1.874-3.494 2.954t-5.042 1.08M166.968 140.511q1.79.015 3.58.682 1.79.668 3.267 2.216 1.476 1.535 2.372 4.19.895 2.657.895 6.662 0 3.879-.739 6.89-.725 2.997-2.102 5.056-1.363 2.06-3.324 3.125-1.946 1.066-4.404 1.066-2.442 0-4.36-.966a8.56 8.56 0 0 1-3.125-2.713q-1.207-1.747-1.549-4.049h3.466q.47 2.004 1.861 3.31 1.406 1.293 3.707 1.293 3.367 0 5.313-2.941 1.96-2.94 1.96-8.309h-.227a8.9 8.9 0 0 1-1.889 2.059 8.3 8.3 0 0 1-2.429 1.336 8.5 8.5 0 0 1-2.841.468q-2.5 0-4.588-1.235-2.075-1.25-3.324-3.424-1.236-2.187-1.236-5 0-2.67 1.193-4.886a9.2 9.2 0 0 1 3.381-3.551q2.187-1.321 5.142-1.279m0 3.125q-1.79 0-3.224.895a6.44 6.44 0 0 0-2.259 2.387q-.824 1.491-.824 3.309t.796 3.31a6.34 6.34 0 0 0 2.201 2.358q1.407.867 3.196.866 1.35 0 2.515-.525a6.5 6.5 0 0 0 2.031-1.463 7.1 7.1 0 0 0 1.378-2.117 6.4 6.4 0 0 0 .497-2.486 6.5 6.5 0 0 0-.824-3.196 6.54 6.54 0 0 0-2.244-2.414q-1.42-.924-3.239-.924m25.018 26.762q-2.926 0-5.171-1.037-2.229-1.051-3.48-2.884-1.25-1.846-1.236-4.204-.014-1.847.725-3.409a7.4 7.4 0 0 1 2.017-2.628 6.2 6.2 0 0 1 2.883-1.35v-.17q-2.088-.54-3.323-2.344-1.236-1.818-1.222-4.133-.013-2.217 1.122-3.963 1.137-1.748 3.125-2.756 2.002-1.008 4.56-1.009 2.528 0 4.517 1.009 1.988 1.008 3.125 2.756 1.15 1.746 1.165 3.963-.014 2.315-1.265 4.133-1.235 1.804-3.281 2.344v.17q1.576.285 2.841 1.35 1.264 1.05 2.017 2.628.753 1.562.767 3.409-.014 2.358-1.278 4.204-1.251 1.833-3.48 2.884-2.217 1.037-5.128 1.037m0-3.125q1.974 0 3.409-.639 1.434-.64 2.216-1.804t.795-2.728q-.014-1.647-.852-2.912-.838-1.263-2.287-1.988-1.434-.725-3.281-.725-1.861 0-3.324.725-1.449.725-2.287 1.988-.824 1.265-.81 2.912-.014 1.563.753 2.728.781 1.164 2.23 1.804 1.449.639 3.438.639m0-13.807q1.562 0 2.77-.625a4.76 4.76 0 0 0 1.917-1.747q.696-1.122.711-2.628-.015-1.478-.696-2.571a4.5 4.5 0 0 0-1.89-1.705q-1.207-.61-2.812-.61-1.634 0-2.855.61-1.222.597-1.89 1.705-.667 1.094-.653 2.571-.014 1.506.668 2.628a4.76 4.76 0 0 0 1.917 1.747q1.222.625 2.813.625M140.905 269h-2.113a4.4 4.4 0 0 0-.657-1.602 4.4 4.4 0 0 0-1.125-1.159 4.8 4.8 0 0 0-1.457-.716 5.8 5.8 0 0 0-1.671-.239q-1.585 0-2.872.801-1.278.801-2.037 2.361-.75 1.56-.75 3.827t.75 3.826q.759 1.56 2.037 2.361 1.287.801 2.872.801.87 0 1.671-.238a4.9 4.9 0 0 0 1.457-.708 4.468 4.468 0 0 0 1.782-2.77h2.113a7 7 0 0 1-.869 2.395 6.6 6.6 0 0 1-1.568 1.799 6.9 6.9 0 0 1-2.105 1.116q-1.16.384-2.481.384-2.232 0-3.971-1.091-1.738-1.092-2.736-3.103-.997-2.01-.997-4.772t.997-4.773q.998-2.012 2.736-3.102 1.739-1.091 3.971-1.091 1.321 0 2.481.383 1.167.384 2.105 1.125a6.5 6.5 0 0 1 1.568 1.79q.63 1.048.869 2.395m11.393 6.648v-7.739h2.011V281h-2.011v-2.216h-.136q-.461.997-1.432 1.696-.972.69-2.455.69-1.227 0-2.182-.536-.954-.546-1.5-1.637-.545-1.1-.545-2.77v-8.318h2.011v8.182q0 1.432.801 2.284.81.852 2.063.852.75 0 1.526-.383.784-.384 1.312-1.176.537-.793.537-2.02m5.695 5.352v-13.091h1.943v1.977h.137q.357-.971 1.295-1.576a3.8 3.8 0 0 1 2.114-.605q.222 0 .554.008t.503.026v2.045a6 6 0 0 0-.469-.077 5 5 0 0 0-.759-.059q-.954 0-1.704.4a3.03 3.03 0 0 0-1.176 1.091 2.94 2.94 0 0 0-.426 1.577V281zm8.93 0v-13.091h1.943v1.977h.136q.358-.971 1.296-1.576a3.8 3.8 0 0 1 2.114-.605q.22 0 .554.008.332.008.502.026v2.045a6 6 0 0 0-.468-.077 5 5 0 0 0-.759-.059q-.954 0-1.704.4a3 3 0 0 0-1.177 1.091 2.94 2.94 0 0 0-.426 1.577V281zm14.02.273q-1.893 0-3.264-.835-1.364-.844-2.105-2.353-.733-1.517-.733-3.528t.733-3.546q.74-1.542 2.062-2.403 1.329-.87 3.102-.869 1.023 0 2.02.341.997.34 1.816 1.108.818.758 1.303 2.011.486 1.252.486 3.085v.852h-10.091v-1.738h8.046q0-1.108-.443-1.978a3.35 3.35 0 0 0-1.245-1.372q-.8-.503-1.892-.503-1.202 0-2.079.597a3.9 3.9 0 0 0-1.338 1.534 4.5 4.5 0 0 0-.469 2.029v1.159q0 1.482.511 2.514.52 1.023 1.441 1.56.92.528 2.139.528.792 0 1.432-.222.647-.23 1.116-.682.469-.46.725-1.142l1.943.546a4.3 4.3 0 0 1-1.032 1.739q-.724.74-1.789 1.159-1.066.409-2.395.409m10.491-8.148V281h-2.011v-13.091h1.943v2.046h.171a3.74 3.74 0 0 1 1.397-1.603q.938-.613 2.421-.613 1.33 0 2.326.545.997.538 1.552 1.636.554 1.092.554 2.762V281h-2.012v-8.182q0-1.542-.801-2.403-.801-.87-2.199-.87-.963 0-1.721.418-.75.418-1.185 1.219t-.435 1.943m17.721-5.216v1.705h-6.784v-1.705zm-4.807-3.136h2.012v12.477q0 .852.247 1.278.255.418.648.563.4.136.843.136.333 0 .546-.034l.341-.068.409 1.807a4 4 0 0 1-.571.153 4.2 4.2 0 0 1-.929.085 4.1 4.1 0 0 1-1.671-.366 3.3 3.3 0 0 1-1.346-1.116q-.528-.75-.529-1.893zM219.203 281v-17.455h2.114v7.773h9.307v-7.773h2.114V281h-2.114v-7.807h-9.307V281zm22.982.273q-1.891 0-3.264-.835-1.364-.844-2.105-2.353-.733-1.517-.733-3.528t.733-3.546q.741-1.542 2.062-2.403 1.33-.87 3.102-.869 1.023 0 2.02.341.997.34 1.816 1.108.818.758 1.304 2.011.486 1.252.485 3.085v.852h-10.09v-1.738h8.045q0-1.108-.443-1.978a3.35 3.35 0 0 0-1.244-1.372q-.802-.503-1.893-.503-1.201 0-2.079.597a3.9 3.9 0 0 0-1.338 1.534 4.5 4.5 0 0 0-.469 2.029v1.159q0 1.482.511 2.514.52 1.023 1.441 1.56.92.528 2.139.528.793 0 1.432-.222a3 3 0 0 0 1.116-.682q.469-.46.725-1.142l1.943.546a4.3 4.3 0 0 1-1.031 1.739q-.725.74-1.79 1.159-1.066.409-2.395.409m12.332.034q-1.244 0-2.258-.469a3.9 3.9 0 0 1-1.611-1.372q-.597-.903-.597-2.182 0-1.125.444-1.824a3.13 3.13 0 0 1 1.184-1.108 6.2 6.2 0 0 1 1.637-.596 20 20 0 0 1 1.815-.324q1.193-.153 1.935-.23.75-.086 1.091-.282.35-.196.349-.681v-.069q0-1.26-.69-1.96-.682-.699-2.071-.699-1.44 0-2.259.631-.818.63-1.15 1.347l-1.91-.682q.512-1.194 1.364-1.858a5.1 5.1 0 0 1 1.875-.938 7.8 7.8 0 0 1 2.011-.272q.632 0 1.449.153a4.6 4.6 0 0 1 1.594.605q.776.46 1.287 1.389.511.93.511 2.489V281h-2.011v-1.773h-.102q-.205.426-.682.912t-1.27.827-1.935.341m.307-1.807q1.194 0 2.012-.469.826-.469 1.244-1.21a3.1 3.1 0 0 0 .426-1.56v-1.841q-.128.154-.562.282a10 10 0 0 1-.989.213q-.554.086-1.082.153-.52.06-.844.102a7.7 7.7 0 0 0-1.466.333q-.674.222-1.091.673-.41.444-.409 1.21 0 1.049.775 1.586.785.528 1.986.528m14.308 1.773q-1.636 0-2.889-.827-1.253-.836-1.961-2.352-.707-1.526-.707-3.605 0-2.063.707-3.58.708-1.517 1.969-2.344 1.262-.826 2.915-.826 1.278 0 2.02.426.75.417 1.142.954.4.529.622.87h.17v-6.444h2.012V281h-1.943v-2.011h-.239q-.222.357-.631.903-.409.537-1.167.963-.759.418-2.02.418m.272-1.807q1.21 0 2.046-.631.835-.639 1.27-1.764.435-1.134.434-2.616 0-1.467-.426-2.566-.426-1.107-1.261-1.721-.835-.623-2.063-.623-1.278 0-2.13.657-.844.648-1.27 1.764-.418 1.108-.418 2.489 0 1.397.426 2.539.435 1.134 1.279 1.807.853.665 2.113.665M278.383 140.909V170h-3.523v-25.398h-.17l-7.102 4.716v-3.579l7.272-4.83zm17.685 29.489q-2.926 0-5.171-1.037-2.229-1.051-3.48-2.884-1.25-1.846-1.236-4.204-.014-1.847.725-3.409a7.4 7.4 0 0 1 2.017-2.628 6.2 6.2 0 0 1 2.883-1.35v-.17q-2.088-.54-3.323-2.344-1.236-1.818-1.222-4.133-.013-2.217 1.122-3.963 1.136-1.748 3.125-2.756 2.002-1.008 4.56-1.009 2.528 0 4.517 1.009 1.988 1.008 3.125 2.756 1.15 1.746 1.165 3.963-.014 2.315-1.265 4.133-1.235 1.804-3.281 2.344v.17q1.576.285 2.841 1.35 1.264 1.05 2.017 2.628.753 1.562.767 3.409-.013 2.358-1.278 4.204-1.251 1.833-3.48 2.884-2.217 1.037-5.128 1.037m0-3.125q1.974 0 3.409-.639 1.434-.64 2.216-1.804.781-1.165.795-2.728-.014-1.647-.852-2.912-.838-1.263-2.287-1.988-1.434-.725-3.281-.725-1.861 0-3.324.725-1.449.725-2.287 1.988-.823 1.265-.81 2.912-.013 1.563.753 2.728.781 1.164 2.23 1.804 1.449.639 3.438.639m0-13.807q1.562 0 2.77-.625a4.76 4.76 0 0 0 1.917-1.747q.696-1.122.711-2.628-.015-1.478-.696-2.571a4.5 4.5 0 0 0-1.89-1.705q-1.207-.61-2.812-.61-1.634 0-2.855.61-1.222.597-1.889 1.705-.668 1.094-.654 2.571-.014 1.506.668 2.628a4.76 4.76 0 0 0 1.917 1.747q1.222.625 2.813.625m25.16 16.932q-2.813 0-5.015-.966-2.187-.966-3.48-2.685-1.278-1.733-1.392-4.02h3.58q.114 1.407.966 2.429.852 1.009 2.23 1.563 1.377.554 3.054.554 1.875 0 3.324-.654 1.449-.653 2.272-1.818.825-1.164.824-2.699 0-1.605-.795-2.826-.795-1.236-2.33-1.932-1.533-.696-3.75-.696h-2.329v-3.125h2.329q1.734 0 3.04-.625 1.321-.625 2.06-1.762.753-1.136.753-2.67 0-1.478-.654-2.571-.653-1.093-1.846-1.705-1.179-.61-2.785-.61-1.505 0-2.84.554-1.321.539-2.16 1.576-.837 1.023-.909 2.472h-3.409q.085-2.287 1.378-4.006 1.293-1.733 3.381-2.699 2.102-.966 4.616-.966 2.7 0 4.631 1.094 1.931 1.08 2.969 2.855a7.5 7.5 0 0 1 1.037 3.835q0 2.458-1.293 4.191-1.278 1.733-3.48 2.4v.228q2.756.454 4.304 2.343 1.548 1.876 1.548 4.645 0 2.373-1.292 4.262-1.279 1.874-3.495 2.954t-5.042 1.08M408.181 170.398q-2.813 0-5.014-.966-2.188-.966-3.481-2.685-1.278-1.733-1.392-4.02h3.58q.114 1.407.966 2.429.852 1.009 2.23 1.563t3.054.554q1.875 0 3.324-.654 1.448-.653 2.273-1.818.823-1.164.823-2.699 0-1.605-.795-2.826-.795-1.236-2.33-1.932-1.533-.696-3.75-.696h-2.329v-3.125h2.329q1.734 0 3.04-.625 1.321-.625 2.06-1.762.753-1.136.753-2.67 0-1.478-.654-2.571-.653-1.093-1.846-1.705-1.179-.61-2.784-.61a7.3 7.3 0 0 0-2.841.554q-1.322.539-2.159 1.576-.838 1.023-.91 2.472h-3.409q.085-2.287 1.378-4.006 1.293-1.733 3.381-2.699 2.102-.966 4.616-.966 2.7 0 4.631 1.094 1.932 1.08 2.969 2.855a7.5 7.5 0 0 1 1.037 3.835q0 2.458-1.293 4.191-1.278 1.733-3.48 2.4v.228q2.756.454 4.304 2.343 1.548 1.876 1.548 4.645 0 2.373-1.292 4.262-1.279 1.874-3.495 2.954t-5.042 1.08m16.548-.398 13.011-25.739v-.227h-15v-3.125h18.637v3.296L428.422 170zM413.79 47h-10.312V17.91h10.397q4.389 0 7.557 1.746 3.168 1.734 4.872 4.986 1.719 3.253 1.719 7.784 0 4.546-1.719 7.813-1.705 3.268-4.9 5.014Q418.223 47 413.79 47m-4.162-5.27h3.906q2.728 0 4.589-.966 1.875-.98 2.812-3.025.952-2.06.952-5.313 0-3.224-.952-5.27-.938-2.045-2.798-3.011t-4.588-.966h-3.921zM432.466 47V25.182h6.051V47zm3.039-24.63q-1.349 0-2.315-.896-.952-.909-.952-2.173 0-1.25.952-2.145.966-.909 2.315-.909 1.35 0 2.301.91.966.893.966 2.144 0 1.264-.966 2.173-.951.895-2.301.895m26.012 9.033-5.539.341a2.9 2.9 0 0 0-.611-1.278 3.25 3.25 0 0 0-1.236-.923q-.753-.355-1.804-.355-1.406 0-2.372.596-.966.583-.966 1.563 0 .78.625 1.32t2.145.867l3.949.796q3.181.653 4.744 2.102t1.563 3.807q0 2.145-1.265 3.764-1.25 1.62-3.437 2.528-2.173.895-5.014.895-4.333 0-6.904-1.804-2.556-1.818-2.997-4.943l5.952-.312q.27 1.32 1.307 2.017 1.036.681 2.656.681 1.59 0 2.557-.61.98-.625.994-1.606-.014-.824-.696-1.349-.682-.54-2.102-.824l-3.779-.753q-3.196-.64-4.758-2.216-1.548-1.575-1.549-4.02 0-2.101 1.137-3.622 1.15-1.52 3.224-2.343 2.088-.825 4.887-.824 4.133 0 6.505 1.747 2.387 1.747 2.784 4.758m9.791 9.319.014-7.259h.881l6.988-8.281h6.946l-9.389 10.966h-1.434zM465.825 47V17.91h6.051V47zm13.636 0-6.42-9.503 4.034-4.275L486.549 47zm19.017 0V17.91h11.477q3.295 0 5.625 1.178 2.343 1.165 3.565 3.31 1.236 2.13 1.236 5.014 0 2.898-1.25 4.986-1.25 2.073-3.622 3.182-2.358 1.108-5.71 1.108h-7.685v-4.944h6.69q1.762 0 2.926-.483 1.166-.483 1.733-1.448.583-.966.583-2.401 0-1.449-.583-2.443-.568-.994-1.747-1.506-1.164-.526-2.94-.526h-4.148V47zm15.71-13.239L521.418 47h-6.79l-7.074-13.239zm20.018 13.665q-3.367 0-5.796-1.364-2.415-1.377-3.721-3.892-1.308-2.527-1.307-5.98 0-3.366 1.307-5.909t3.679-3.963q2.386-1.42 5.596-1.42 2.16 0 4.02.696a8.9 8.9 0 0 1 3.267 2.06q1.407 1.377 2.188 3.465.78 2.074.781 4.858v1.662h-18.423v-3.75h12.727q0-1.307-.568-2.315a4.07 4.07 0 0 0-1.577-1.577q-.995-.582-2.315-.582-1.378 0-2.444.639-1.05.625-1.647 1.69-.597 1.051-.611 2.344v3.565q0 1.62.596 2.799a4.38 4.38 0 0 0 1.719 1.818q1.108.64 2.628.64 1.008 0 1.847-.285a3.8 3.8 0 0 0 1.434-.852q.597-.57.909-1.392l5.597.369a7.65 7.65 0 0 1-1.747 3.523q-1.307 1.49-3.381 2.33-2.06.823-4.758.823m28.38 7.756V43.506h-.184q-.426.909-1.208 1.804-.767.88-2.003 1.463-1.22.582-2.983.582-2.486 0-4.502-1.278-2.003-1.293-3.182-3.793-1.165-2.514-1.165-6.165 0-3.75 1.207-6.235 1.207-2.5 3.211-3.736a8.2 8.2 0 0 1 4.417-1.25q1.833 0 3.054.625 1.236.61 1.989 1.534.766.91 1.165 1.79h.255v-3.665h5.966v30zm-4.46-12.642q1.462 0 2.472-.796 1.022-.81 1.562-2.258.554-1.45.554-3.395t-.54-3.38q-.539-1.436-1.562-2.217-1.023-.78-2.486-.78-1.491 0-2.514.809-1.023.81-1.548 2.244t-.526 3.324q0 1.904.526 3.366.54 1.45 1.548 2.273 1.023.81 2.514.81m29.347-4.83V25.182h6.051V47h-5.81v-3.963h-.227a6.45 6.45 0 0 1-2.458 3.082q-1.704 1.165-4.161 1.165-2.188 0-3.85-.994t-2.599-2.827q-.923-1.832-.938-4.39V25.183h6.051v12.812q.014 1.932 1.037 3.054t2.742 1.122a4.35 4.35 0 0 0 2.045-.497q.952-.511 1.534-1.505.597-.994.583-2.458m20.834 9.716q-3.366 0-5.795-1.364-2.415-1.377-3.722-3.892-1.307-2.527-1.307-5.98 0-3.366 1.307-5.909t3.679-3.963q2.387-1.42 5.597-1.42 2.159 0 4.02.696a8.9 8.9 0 0 1 3.267 2.06q1.405 1.377 2.187 3.465.781 2.074.781 4.858v1.662h-18.423v-3.75h12.727q0-1.307-.568-2.315a4.07 4.07 0 0 0-1.577-1.577q-.993-.582-2.315-.582-1.377 0-2.443.639-1.051.625-1.648 1.69-.596 1.051-.611 2.344v3.565q0 1.62.597 2.799.61 1.179 1.719 1.818 1.107.64 2.628.64 1.008 0 1.846-.285a3.8 3.8 0 0 0 1.435-.852q.597-.57.909-1.392l5.597.369a7.65 7.65 0 0 1-1.748 3.523q-1.307 1.49-3.38 2.33-2.06.823-4.759.823m32.117-16.023-5.54.341a2.86 2.86 0 0 0-.611-1.278 3.24 3.24 0 0 0-1.236-.923q-.753-.355-1.804-.355-1.406 0-2.372.596-.966.583-.966 1.563 0 .78.625 1.32t2.145.867l3.949.796q3.182.653 4.744 2.102 1.563 1.449 1.563 3.807 0 2.145-1.264 3.764-1.251 1.62-3.438 2.528-2.173.895-5.014.895-4.332 0-6.904-1.804-2.556-1.818-2.997-4.943l5.952-.312q.27 1.32 1.307 2.017 1.037.681 2.656.681 1.591 0 2.557-.61.98-.625.994-1.606-.014-.824-.696-1.349-.681-.54-2.102-.824l-3.778-.753q-3.196-.64-4.759-2.216-1.548-1.575-1.548-4.02 0-2.101 1.136-3.622 1.15-1.52 3.225-2.343 2.088-.825 4.886-.824 4.134 0 6.506 1.747 2.385 1.747 2.784 4.758m15.912-6.221v4.545h-13.139v-4.545zm-10.156-5.227h6.051v20.34q0 .84.256 1.307.255.454.71.64.469.184 1.08.184.426 0 .852-.07.426-.086.653-.129l.952 4.503q-.455.143-1.278.327-.824.198-2.003.241-2.188.086-3.835-.582-1.634-.667-2.543-2.074t-.895-3.551zm31.978 11.448-5.54.341a2.85 2.85 0 0 0-.611-1.278 3.24 3.24 0 0 0-1.235-.923q-.753-.355-1.804-.355-1.407 0-2.372.596-.966.583-.966 1.563 0 .78.625 1.32.624.54 2.145.867l3.948.796q3.183.653 4.745 2.102t1.562 3.807q0 2.145-1.264 3.764-1.25 1.62-3.438 2.528-2.173.895-5.014.895-4.332 0-6.903-1.804-2.558-1.818-2.997-4.943l5.951-.312q.27 1.32 1.307 2.017 1.038.681 2.656.681 1.591 0 2.557-.61.98-.625.995-1.606-.015-.824-.696-1.349-.682-.54-2.103-.824l-3.778-.753q-3.196-.64-4.759-2.216-1.548-1.575-1.548-4.02 0-2.101 1.136-3.622 1.151-1.52 3.225-2.343 2.088-.825 4.886-.824 4.134 0 6.506 1.747 2.387 1.747 2.784 4.758M520.223 140.909V170H516.7v-25.398h-.17l-7.102 4.716v-3.579l7.272-4.83zM528.589 170v-2.557l9.603-10.511a67 67 0 0 0 2.784-3.21q1.094-1.379 1.619-2.586.54-1.221.54-2.556 0-1.535-.739-2.657-.725-1.121-1.988-1.733-1.264-.61-2.841-.61-1.677 0-2.926.696a4.8 4.8 0 0 0-1.918 1.917q-.668 1.236-.668 2.898h-3.352q0-2.557 1.179-4.489a8.2 8.2 0 0 1 3.21-3.011q2.046-1.08 4.588-1.08 2.557 0 4.532 1.08 1.974 1.08 3.096 2.912t1.122 4.077q0 1.605-.582 3.139-.569 1.52-1.989 3.395-1.405 1.86-3.906 4.545l-6.534 6.989v.227h13.523V170zm24.219 0v-2.557l9.603-10.511a68 68 0 0 0 2.784-3.21q1.094-1.379 1.619-2.586.54-1.221.54-2.556 0-1.535-.739-2.657-.724-1.121-1.989-1.733-1.263-.61-2.84-.61-1.676 0-2.927.696a4.8 4.8 0 0 0-1.917 1.917q-.668 1.236-.668 2.898h-3.352q0-2.557 1.179-4.489a8.2 8.2 0 0 1 3.21-3.011q2.046-1.08 4.588-1.08 2.557 0 4.531 1.08 1.975 1.08 3.097 2.912t1.122 4.077q0 1.605-.582 3.139-.569 1.52-1.989 3.395-1.406 1.86-3.906 4.545l-6.534 6.989v.227h13.523V170zM651.61 140.909V170h-3.523v-25.398h-.17l-7.103 4.716v-3.579l7.273-4.83zm7.684 23.125v-2.898l12.784-20.227h2.103v4.489h-1.421l-9.659 15.284v.227h17.216v3.125zM672.988 170v-29.091h3.352V170zM759.813 140.909V170h-3.523v-25.398h-.17l-7.103 4.716v-3.579l7.273-4.83zM768.179 170v-2.557l9.603-10.511a67 67 0 0 0 2.784-3.21q1.094-1.379 1.619-2.586.54-1.221.54-2.556 0-1.535-.739-2.657-.725-1.121-1.988-1.733-1.264-.61-2.841-.61-1.677 0-2.927.696a4.8 4.8 0 0 0-1.917 1.917q-.668 1.236-.668 2.898h-3.352q0-2.557 1.179-4.489a8.2 8.2 0 0 1 3.21-3.011q2.046-1.08 4.588-1.08 2.557 0 4.531 1.08 1.975 1.08 3.097 2.912t1.122 4.077q0 1.605-.582 3.139-.569 1.52-1.989 3.395-1.406 1.86-3.906 4.545l-6.534 6.989v.227h13.523V170zm22.912-5.966v-2.898l12.784-20.227h2.103v4.489h-1.421l-9.659 15.284v.227h17.216v3.125zM804.784 170v-29.091h3.353V170zM888.522 170.398a10.9 10.9 0 0 1-3.58-.682q-1.79-.654-3.267-2.202-1.476-1.562-2.372-4.219-.894-2.67-.895-6.704 0-3.864.725-6.847.725-2.997 2.102-5.042 1.378-2.06 3.324-3.125 1.96-1.066 4.418-1.066 2.442 0 4.346.98a8.3 8.3 0 0 1 3.125 2.699q1.208 1.733 1.563 3.992h-3.466q-.483-1.96-1.875-3.253t-3.693-1.293q-3.381 0-5.327 2.941-1.932 2.94-1.946 8.253h.227a8.54 8.54 0 0 1 4.332-3.395 8.5 8.5 0 0 1 2.827-.469q2.5 0 4.574 1.25 2.075 1.236 3.324 3.423 1.25 2.173 1.25 4.986 0 2.699-1.207 4.943a9.2 9.2 0 0 1-3.395 3.551q-2.174 1.308-5.114 1.279m0-3.125q1.79 0 3.21-.895a6.4 6.4 0 0 0 2.259-2.401q.838-1.506.838-3.352 0-1.804-.81-3.281a6.16 6.16 0 0 0-2.202-2.372q-1.392-.881-3.181-.881-1.35 0-2.515.54a6.5 6.5 0 0 0-2.045 1.449 7 7 0 0 0-1.364 2.116 6.3 6.3 0 0 0-.497 2.486q0 1.733.81 3.238a6.66 6.66 0 0 0 2.244 2.429q1.435.924 3.253.924m24.393 3.125q-2.5 0-4.503-.995-2.003-.994-3.21-2.727-1.208-1.732-1.321-3.949h3.409q.198 1.976 1.79 3.267 1.605 1.28 3.835 1.279 1.79 0 3.182-.838a5.9 5.9 0 0 0 2.201-2.301q.81-1.478.81-3.339 0-1.903-.838-3.394a6.15 6.15 0 0 0-2.273-2.373q-1.449-.866-3.309-.88a9 9 0 0 0-2.742.412q-1.406.411-2.315 1.065l-3.296-.398 1.762-14.318h15.113v3.125h-12.159l-1.023 8.58h.171q.895-.711 2.244-1.179a8.5 8.5 0 0 1 2.813-.469q2.67 0 4.758 1.278a8.93 8.93 0 0 1 3.296 3.466q1.207 2.202 1.207 5.029 0 2.784-1.25 4.971a9.14 9.14 0 0 1-3.409 3.438q-2.174 1.25-4.943 1.25M1009.26 170.398a11 11 0 0 1-3.58-.682c-1.19-.436-2.28-1.17-3.26-2.202q-1.485-1.562-2.37-4.219-.9-2.67-.899-6.704 0-3.864.724-6.847.726-2.997 2.105-5.042c.92-1.373 2.02-2.415 3.32-3.125 1.31-.711 2.78-1.066 4.42-1.066q2.445 0 4.35.98a8.3 8.3 0 0 1 3.12 2.699q1.215 1.733 1.56 3.992h-3.46c-.33-1.307-.95-2.391-1.88-3.253q-1.395-1.293-3.69-1.293c-2.26 0-4.03.98-5.33 2.941-1.29 1.96-1.93 4.711-1.94 8.253h.22a8.53 8.53 0 0 1 4.34-3.395 8.4 8.4 0 0 1 2.82-.469c1.67 0 3.19.417 4.58 1.25 1.38.824 2.49 1.965 3.32 3.423.83 1.449 1.25 3.111 1.25 4.986 0 1.799-.4 3.447-1.21 4.943a9.13 9.13 0 0 1-3.39 3.551c-1.45.872-3.16 1.298-5.12 1.279m0-3.125q1.8 0 3.21-.895a6.4 6.4 0 0 0 2.26-2.401q.84-1.506.84-3.352 0-1.804-.81-3.281a6.14 6.14 0 0 0-2.2-2.372q-1.395-.881-3.18-.881-1.35 0-2.52.54a6.6 6.6 0 0 0-2.04 1.449 7.1 7.1 0 0 0-1.37 2.116 6.4 6.4 0 0 0-.49 2.486q0 1.733.81 3.238a6.6 6.6 0 0 0 2.24 2.429c.96.616 2.04.924 3.25.924m16.22 2.727 13.01-25.739v-.227h-15v-3.125h18.63v3.296L1029.17 170z"/><rect width="1079" height="120" x="1" y="399" stroke="#dbdbdb" stroke-width="2" rx="26"/><path stroke="#dbdbdb" stroke-width="2" d="M121 398v122M241 398v122M361 398v122M482 398v122M602 398v122M722 398v122M842 398v122M962 398v122"/><path fill="#fff" d="M47.7 473.398q-2.5 0-4.503-.995-2.003-.994-3.21-2.727t-1.321-3.949h3.409q.2 1.976 1.79 3.267 1.605 1.28 3.835 1.279 1.79 0 3.182-.838a5.9 5.9 0 0 0 2.202-2.301q.81-1.478.81-3.339 0-1.902-.839-3.394a6.15 6.15 0 0 0-2.273-2.373q-1.449-.866-3.31-.88a9 9 0 0 0-2.74.412q-1.407.411-2.316 1.065l-3.296-.398 1.762-14.318h15.113v3.125H43.836l-1.022 8.58h.17q.895-.711 2.244-1.179a8.5 8.5 0 0 1 2.813-.469q2.67 0 4.758 1.278a8.93 8.93 0 0 1 3.296 3.466q1.207 2.202 1.207 5.029 0 2.784-1.25 4.971a9.14 9.14 0 0 1-3.409 3.438q-2.173 1.25-4.943 1.25m25.075 0q-2.814 0-5.015-.966-2.187-.966-3.48-2.685-1.278-1.733-1.392-4.02h3.58q.112 1.407.966 2.429.852 1.009 2.23 1.563 1.377.554 3.054.554 1.875 0 3.323-.654 1.45-.652 2.273-1.818.824-1.164.824-2.699 0-1.605-.795-2.826-.795-1.236-2.33-1.932-1.534-.696-3.75-.696h-2.33v-3.125h2.33q1.733 0 3.04-.625 1.32-.625 2.06-1.762.752-1.135.752-2.67 0-1.477-.653-2.571-.654-1.093-1.847-1.705-1.179-.61-2.784-.61-1.506 0-2.84.554-1.322.539-2.16 1.576-.837 1.023-.909 2.472h-3.409q.085-2.287 1.378-4.006 1.293-1.733 3.38-2.699 2.103-.966 4.617-.966 2.7 0 4.63 1.094 1.933 1.08 2.97 2.855a7.5 7.5 0 0 1 1.037 3.835q0 2.458-1.293 4.191-1.278 1.732-3.48 2.4v.228q2.756.454 4.304 2.343 1.548 1.876 1.548 4.645 0 2.372-1.293 4.262-1.278 1.874-3.494 2.954t-5.042 1.08M185.869 458.966v3.125h-12.727v-3.125zM305.869 458.966v3.125h-12.727v-3.125zM425.869 458.966v3.125h-12.727v-3.125zM462.966 320.909V350h-5.312l-12.656-18.31h-.214V350h-6.15v-29.091h5.398l12.556 18.296h.256v-18.296zm14.911 29.517q-3.366 0-5.795-1.364-2.415-1.377-3.722-3.892-1.306-2.528-1.306-5.98 0-3.366 1.306-5.909 1.308-2.542 3.679-3.963 2.387-1.42 5.597-1.42 2.159 0 4.02.696a8.9 8.9 0 0 1 3.267 2.059q1.406 1.378 2.187 3.466.782 2.074.782 4.858v1.662h-18.424v-3.75h12.728q0-1.307-.569-2.315a4.07 4.07 0 0 0-1.576-1.577q-.994-.582-2.316-.582-1.377 0-2.443.639-1.05.625-1.647 1.69a4.77 4.77 0 0 0-.611 2.344v3.565q0 1.62.596 2.799.611 1.179 1.719 1.818t2.628.639q1.008 0 1.847-.284a3.8 3.8 0 0 0 1.434-.852q.597-.569.909-1.392l5.597.369a7.65 7.65 0 0 1-1.747 3.523q-1.307 1.491-3.381 2.329-2.06.825-4.759.824m18.111-.426-5.937-21.818h6.122l3.381 14.659h.198l3.523-14.659h6.009l3.579 14.574h.185l3.324-14.574h6.108L516.556 350h-6.406l-3.75-13.722h-.27L502.38 350zm65.824-14.545q0 4.758-1.804 8.096-1.79 3.338-4.886 5.1-3.083 1.746-6.932 1.747-3.878 0-6.96-1.762-3.082-1.761-4.872-5.099t-1.79-8.082q0-4.76 1.79-8.097 1.79-3.338 4.872-5.085 3.082-1.762 6.96-1.762 3.85 0 6.932 1.762 3.096 1.747 4.886 5.085 1.804 3.338 1.804 8.097m-6.236 0q0-3.083-.923-5.199-.909-2.116-2.571-3.211-1.662-1.093-3.892-1.093t-3.892 1.093q-1.662 1.095-2.585 3.211-.909 2.116-.909 5.199 0 3.081.909 5.198.923 2.116 2.585 3.211 1.662 1.093 3.892 1.093t3.892-1.093q1.662-1.095 2.571-3.211.923-2.117.923-5.198M566.255 350v-21.818h5.866v3.807h.227q.597-2.032 2.003-3.069 1.407-1.05 3.239-1.051.455 0 .98.057t.923.156v5.37a8 8 0 0 0-1.179-.228 11 11 0 0 0-1.378-.099q-1.335 0-2.386.582a4.3 4.3 0 0 0-1.648 1.591q-.596 1.023-.596 2.358V350zm23.391.355q-2.486 0-4.503-1.278-2.003-1.293-3.182-3.793-1.164-2.514-1.164-6.165 0-3.75 1.207-6.235 1.207-2.5 3.21-3.736a8.2 8.2 0 0 1 4.418-1.25q1.831 0 3.054.625 1.236.61 1.988 1.534.768.909 1.165 1.79h.185v-10.938h6.037V350h-5.966v-3.494h-.256q-.426.909-1.207 1.804-.767.88-2.003 1.463-1.221.582-2.983.582m1.918-4.815q1.463 0 2.471-.796 1.023-.809 1.563-2.258.554-1.45.554-3.395t-.54-3.381q-.54-1.434-1.563-2.216-1.022-.781-2.485-.781-1.492 0-2.515.81-1.022.81-1.548 2.244-.525 1.434-.526 3.324 0 1.904.526 3.366.54 1.45 1.548 2.273 1.023.81 2.515.81m25.415 4.886q-3.366 0-5.795-1.364-2.415-1.377-3.722-3.892-1.307-2.528-1.307-5.98 0-3.366 1.307-5.909t3.679-3.963q2.386-1.42 5.597-1.42 2.159 0 4.019.696a8.9 8.9 0 0 1 3.268 2.059q1.405 1.378 2.187 3.466.781 2.074.781 4.858v1.662H608.57v-3.75h12.727q0-1.307-.568-2.315a4.07 4.07 0 0 0-1.577-1.577q-.994-.582-2.315-.582-1.378 0-2.443.639-1.051.625-1.648 1.69-.596 1.051-.611 2.344v3.565q0 1.62.597 2.799.61 1.179 1.719 1.818 1.107.639 2.627.639 1.009 0 1.847-.284a3.8 3.8 0 0 0 1.435-.852q.596-.569.909-1.392l5.596.369a7.64 7.64 0 0 1-1.747 3.523q-1.307 1.491-3.38 2.329-2.06.825-4.759.824m13.963-.426v-21.818h5.867v3.807h.227q.596-2.032 2.003-3.069 1.406-1.05 3.238-1.051.455 0 .98.057.527.057.924.156v5.37a8 8 0 0 0-1.179-.228 11 11 0 0 0-1.378-.099q-1.336 0-2.386.582a4.3 4.3 0 0 0-1.648 1.591q-.597 1.023-.597 2.358V350zM546.869 458.966v3.125h-12.727v-3.125zM666.869 458.966v3.125h-12.727v-3.125zM786.869 458.966v3.125h-12.727v-3.125zM906.869 458.966v3.125h-12.727v-3.125zM1026.87 458.966v3.125h-12.73v-3.125zM108.561 274.561a1.5 1.5 0 0 0 0-2.122l-9.546-9.546a1.501 1.501 0 0 0-2.122 2.122l8.486 8.485-8.486 8.485a1.5 1.5 0 0 0 2.122 2.122zM61 273.5h-1.5v1.5H61zm0-34.5h-1.5v34.5h3V239zm0 34.5v1.5h46.5v-3H61z"/></svg>