<svg xmlns="http://www.w3.org/2000/svg" width="1081" height="217" fill="none" viewBox="0 0 1081 217"><rect width="1079" height="120" x="1" y="96" stroke="#dbdbdb" stroke-width="2" rx="26"/><path stroke="#dbdbdb" stroke-width="2" d="M121 95v122M241 95v122M361 95v122M482 95v122M602 95v122M722 95v122M842 95v122M962 95v122"/><path fill="#fff" d="M47.7 170.398q-2.5 0-4.503-.995-2.003-.994-3.21-2.727t-1.321-3.949h3.409q.2 1.976 1.79 3.267 1.605 1.28 3.835 1.279 1.79 0 3.182-.838a5.9 5.9 0 0 0 2.202-2.301q.81-1.478.81-3.339 0-1.903-.839-3.394a6.15 6.15 0 0 0-2.273-2.373q-1.449-.866-3.31-.88a9 9 0 0 0-2.74.412q-1.407.411-2.316 1.065l-3.296-.398 1.762-14.318h15.113v3.125H43.836l-1.022 8.58h.17q.895-.711 2.244-1.179a8.5 8.5 0 0 1 2.813-.469q2.67 0 4.758 1.278a8.93 8.93 0 0 1 3.296 3.466q1.207 2.202 1.207 5.029 0 2.784-1.25 4.971a9.14 9.14 0 0 1-3.409 3.438q-2.173 1.25-4.943 1.25m25.075 0q-2.814 0-5.015-.966-2.187-.966-3.48-2.685-1.278-1.733-1.392-4.02h3.58q.112 1.407.966 2.429.852 1.009 2.23 1.563 1.377.554 3.054.554 1.875 0 3.323-.654 1.45-.653 2.273-1.818.824-1.164.824-2.699 0-1.605-.795-2.826-.795-1.236-2.33-1.932-1.534-.696-3.75-.696h-2.33v-3.125h2.33q1.733 0 3.04-.625 1.32-.625 2.06-1.762.752-1.136.752-2.67 0-1.478-.653-2.571-.654-1.093-1.847-1.705-1.179-.61-2.784-.61-1.506 0-2.84.554-1.322.539-2.16 1.576-.837 1.023-.909 2.472h-3.409q.085-2.287 1.378-4.006 1.293-1.733 3.38-2.699 2.103-.966 4.617-.966 2.7 0 4.63 1.094 1.933 1.08 2.97 2.855a7.5 7.5 0 0 1 1.037 3.835q0 2.458-1.293 4.191-1.278 1.733-3.48 2.4v.228q2.756.454 4.304 2.343 1.548 1.876 1.548 4.645 0 2.373-1.293 4.262-1.278 1.874-3.494 2.954t-5.042 1.08M167.522 170.398a10.9 10.9 0 0 1-3.58-.682q-1.79-.654-3.267-2.202-1.476-1.562-2.372-4.219-.895-2.67-.895-6.704 0-3.864.725-6.847.725-2.997 2.102-5.042 1.379-2.06 3.324-3.125 1.96-1.066 4.418-1.066 2.442 0 4.346.98a8.3 8.3 0 0 1 3.125 2.699q1.208 1.733 1.563 3.992h-3.466q-.483-1.96-1.875-3.253t-3.693-1.293q-3.381 0-5.327 2.941-1.932 2.94-1.946 8.253h.227a8.54 8.54 0 0 1 4.332-3.395 8.5 8.5 0 0 1 2.827-.469q2.5 0 4.574 1.25 2.075 1.236 3.324 3.423 1.25 2.173 1.25 4.986 0 2.699-1.207 4.943a9.2 9.2 0 0 1-3.395 3.551q-2.174 1.308-5.114 1.279m0-3.125q1.79 0 3.21-.895a6.4 6.4 0 0 0 2.259-2.401q.838-1.506.838-3.352 0-1.804-.81-3.281a6.16 6.16 0 0 0-2.202-2.372q-1.392-.881-3.181-.881-1.35 0-2.515.54a6.5 6.5 0 0 0-2.045 1.449 7 7 0 0 0-1.364 2.116 6.3 6.3 0 0 0-.497 2.486q0 1.733.81 3.238a6.66 6.66 0 0 0 2.244 2.429q1.435.924 3.253.924m24.393 3.125q-2.5 0-4.503-.995-2.003-.994-3.21-2.727-1.208-1.732-1.321-3.949h3.409q.198 1.976 1.79 3.267 1.605 1.28 3.835 1.279 1.79 0 3.182-.838a5.9 5.9 0 0 0 2.201-2.301q.81-1.478.81-3.339 0-1.903-.838-3.394a6.15 6.15 0 0 0-2.273-2.373q-1.449-.866-3.309-.88a9 9 0 0 0-2.742.412q-1.406.411-2.315 1.065l-3.296-.398 1.762-14.318h15.113v3.125h-12.159l-1.023 8.58h.171q.895-.711 2.244-1.179a8.5 8.5 0 0 1 2.813-.469q2.67 0 4.758 1.278a8.93 8.93 0 0 1 3.296 3.466q1.207 2.202 1.207 5.029 0 2.784-1.25 4.971a9.14 9.14 0 0 1-3.409 3.438q-2.174 1.25-4.943 1.25M435.587 47V17.91h19.261v5.07h-13.11v6.932h11.832v5.071h-11.832V47zm23.285 0V25.182h6.051V47zm3.04-24.63q-1.35 0-2.316-.896-.951-.909-.951-2.173 0-1.25.951-2.145.966-.909 2.316-.909t2.301.91q.966.893.966 2.144 0 1.264-.966 2.173-.952.895-2.301.895m13.909 12.016V47h-6.051V25.182h5.767v3.85h.256a6.1 6.1 0 0 1 2.429-3.012q1.704-1.122 4.133-1.122 2.274 0 3.964.994t2.627 2.841q.938 1.832.938 4.375V47h-6.051V34.188q.014-2.003-1.023-3.126-1.037-1.136-2.855-1.136-1.221 0-2.159.526-.924.525-1.449 1.534-.511.994-.526 2.4m25.054 13.026q-2.088 0-3.722-.724-1.634-.739-2.585-2.174-.938-1.449-.938-3.608 0-1.818.668-3.054a5.4 5.4 0 0 1 1.818-1.988 8.8 8.8 0 0 1 2.614-1.137 20 20 0 0 1 3.096-.54 79 79 0 0 0 3.069-.369q1.164-.184 1.69-.54.525-.355.525-1.05v-.086q0-1.35-.852-2.088-.838-.739-2.386-.739-1.634 0-2.6.725-.966.71-1.278 1.79l-5.597-.455q.426-1.99 1.677-3.437 1.25-1.464 3.224-2.245 1.989-.795 4.602-.795 1.818 0 3.48.426 1.677.426 2.969 1.32a6.4 6.4 0 0 1 2.06 2.302q.753 1.392.753 3.338V47h-5.739v-3.026h-.171a6.2 6.2 0 0 1-1.406 1.804q-.88.767-2.116 1.208-1.236.426-2.855.426m1.733-4.176q1.335 0 2.358-.526a4.2 4.2 0 0 0 1.605-1.449q.582-.909.582-2.06v-2.315q-.284.185-.781.341-.483.142-1.094.27-.61.114-1.222.213l-1.107.157q-1.066.156-1.861.497-.796.34-1.236.923-.44.568-.44 1.42 0 1.236.894 1.89.91.639 2.302.639m21.299-25.327V47h-6.051V17.91zm40.952 14.546q0 4.758-1.804 8.096-1.79 3.337-4.886 5.1-3.083 1.746-6.932 1.747-3.878 0-6.96-1.762-3.082-1.761-4.873-5.1-1.79-3.337-1.789-8.081 0-4.76 1.789-8.097 1.79-3.337 4.873-5.085 3.082-1.761 6.96-1.762 3.85 0 6.932 1.762 3.096 1.747 4.886 5.085 1.804 3.338 1.804 8.097m-6.236 0q0-3.082-.923-5.2-.909-2.115-2.571-3.21-1.662-1.093-3.892-1.093t-3.892 1.093-2.585 3.21q-.91 2.118-.91 5.2t.91 5.198q.923 2.117 2.585 3.21 1.662 1.094 3.892 1.094t3.892-1.093q1.662-1.095 2.571-3.21.923-2.118.923-5.2M569.301 47V25.182h5.867v3.807h.227q.597-2.032 2.003-3.068 1.407-1.052 3.239-1.052.454 0 .98.057.525.057.923.156v5.37a8 8 0 0 0-1.179-.228q-.753-.099-1.378-.099-1.335 0-2.386.582a4.3 4.3 0 0 0-1.648 1.591q-.597 1.023-.596 2.358V47zm23.392.355q-2.486 0-4.503-1.278-2.003-1.293-3.182-3.793-1.164-2.514-1.165-6.165 0-3.75 1.208-6.235 1.207-2.5 3.21-3.736a8.23 8.23 0 0 1 4.418-1.25q1.831 0 3.054.625 1.235.61 1.988 1.534.768.91 1.165 1.79h.185V17.909h6.037V47h-5.966v-3.494h-.256q-.427.909-1.207 1.804-.767.88-2.003 1.463-1.222.582-2.983.582m1.917-4.815q1.464 0 2.472-.796 1.023-.81 1.563-2.258.554-1.45.554-3.395t-.54-3.38-1.563-2.217-2.486-.78q-1.491 0-2.514.809-1.023.81-1.548 2.244t-.526 3.324q0 1.904.526 3.366.54 1.45 1.548 2.273 1.023.81 2.514.81m25.416 4.886q-3.366 0-5.796-1.364-2.414-1.377-3.721-3.892-1.307-2.527-1.307-5.98 0-3.366 1.307-5.909t3.679-3.963q2.386-1.42 5.596-1.42 2.16 0 4.02.696a8.9 8.9 0 0 1 3.267 2.06q1.407 1.377 2.188 3.465.781 2.074.781 4.858v1.662h-18.423v-3.75h12.727q0-1.307-.568-2.315a4.07 4.07 0 0 0-1.577-1.577q-.994-.582-2.315-.582-1.378 0-2.443.639-1.051.625-1.648 1.69-.596 1.051-.611 2.344v3.565q0 1.62.597 2.799.61 1.179 1.719 1.818 1.107.64 2.627.64 1.009 0 1.847-.285a3.8 3.8 0 0 0 1.435-.852q.596-.57.909-1.392l5.596.369a7.64 7.64 0 0 1-1.747 3.523q-1.307 1.49-3.381 2.33-2.06.823-4.758.823M633.989 47V25.182h5.866v3.807h.228q.596-2.032 2.003-3.068 1.406-1.052 3.238-1.052.455 0 .98.057.526.057.924.156v5.37a8 8 0 0 0-1.179-.228 11 11 0 0 0-1.378-.099q-1.335 0-2.387.582-1.037.57-1.647 1.591-.597 1.023-.597 2.358V47zM288.264 170.398a10.9 10.9 0 0 1-3.579-.682q-1.791-.654-3.267-2.202-1.478-1.562-2.373-4.219-.894-2.67-.894-6.704 0-3.864.724-6.847.725-2.997 2.102-5.042 1.379-2.06 3.324-3.125 1.96-1.066 4.418-1.066 2.443 0 4.346.98a8.3 8.3 0 0 1 3.125 2.699q1.208 1.733 1.563 3.992h-3.466q-.483-1.96-1.875-3.253t-3.693-1.293q-3.381 0-5.327 2.941-1.932 2.94-1.946 8.253h.227a8.51 8.51 0 0 1 4.333-3.395 8.5 8.5 0 0 1 2.826-.469q2.5 0 4.574 1.25 2.075 1.236 3.324 3.423 1.25 2.173 1.25 4.986 0 2.699-1.207 4.943a9.2 9.2 0 0 1-3.395 3.551q-2.174 1.308-5.114 1.279m0-3.125q1.79 0 3.21-.895a6.4 6.4 0 0 0 2.259-2.401q.838-1.506.838-3.352 0-1.804-.81-3.281a6.17 6.17 0 0 0-2.201-2.372q-1.392-.881-3.182-.881a5.9 5.9 0 0 0-2.514.54 6.5 6.5 0 0 0-2.046 1.449 7 7 0 0 0-1.363 2.116 6.3 6.3 0 0 0-.498 2.486q0 1.733.81 3.238a6.66 6.66 0 0 0 2.244 2.429q1.435.924 3.253.924M304.475 170l13.012-25.739v-.227h-15v-3.125h18.636v3.296L308.168 170zM408.181 170.398q-2.813 0-5.014-.966-2.188-.966-3.481-2.685-1.278-1.733-1.392-4.02h3.58q.114 1.407.966 2.429.852 1.009 2.23 1.563t3.054.554q1.875 0 3.324-.654 1.448-.653 2.273-1.818.823-1.164.823-2.699 0-1.605-.795-2.826-.795-1.236-2.33-1.932-1.533-.696-3.75-.696h-2.329v-3.125h2.329q1.734 0 3.04-.625 1.321-.625 2.06-1.762.753-1.136.753-2.67 0-1.478-.654-2.571-.653-1.093-1.846-1.705-1.179-.61-2.784-.61a7.3 7.3 0 0 0-2.841.554q-1.322.539-2.159 1.576-.838 1.023-.91 2.472h-3.409q.085-2.287 1.378-4.006 1.293-1.733 3.381-2.699 2.102-.966 4.616-.966 2.7 0 4.631 1.094 1.932 1.08 2.969 2.855a7.5 7.5 0 0 1 1.037 3.835q0 2.458-1.293 4.191-1.278 1.733-3.48 2.4v.228q2.756.454 4.304 2.343 1.548 1.876 1.548 4.645 0 2.373-1.292 4.262-1.279 1.874-3.495 2.954t-5.042 1.08m16.548-.398 13.011-25.739v-.227h-15v-3.125h18.637v3.296L428.422 170zM531.61 140.909V170h-3.523v-25.398h-.17l-7.103 4.716v-3.579l7.273-4.83zm7.684 23.125v-2.898l12.784-20.227h2.103v4.489h-1.421l-9.659 15.284v.227h17.216v3.125zM552.988 170v-29.091h3.352V170zM647.968 140.511q1.79.015 3.58.682 1.79.668 3.267 2.216 1.476 1.535 2.372 4.19.895 2.657.895 6.662 0 3.879-.739 6.89-.725 2.997-2.102 5.056-1.364 2.06-3.324 3.125-1.945 1.066-4.404 1.066-2.442 0-4.36-.966a8.56 8.56 0 0 1-3.125-2.713q-1.207-1.747-1.549-4.049h3.466q.47 2.004 1.861 3.31 1.406 1.293 3.707 1.293 3.367 0 5.313-2.941 1.96-2.94 1.96-8.309h-.227a8.9 8.9 0 0 1-1.889 2.059 8.3 8.3 0 0 1-2.429 1.336 8.5 8.5 0 0 1-2.841.468q-2.5 0-4.588-1.235-2.075-1.25-3.324-3.424-1.236-2.187-1.236-5 0-2.67 1.193-4.886a9.2 9.2 0 0 1 3.381-3.551q2.187-1.321 5.142-1.279m0 3.125q-1.79 0-3.224.895a6.44 6.44 0 0 0-2.259 2.387q-.824 1.491-.824 3.309t.796 3.31a6.34 6.34 0 0 0 2.201 2.358q1.407.867 3.196.866 1.35 0 2.515-.525a6.5 6.5 0 0 0 2.031-1.463 7.1 7.1 0 0 0 1.378-2.117 6.4 6.4 0 0 0 .497-2.486 6.5 6.5 0 0 0-.824-3.196 6.54 6.54 0 0 0-2.244-2.414q-1.42-.924-3.239-.924m25.018 26.762q-2.926 0-5.171-1.037-2.229-1.051-3.48-2.884-1.25-1.846-1.236-4.204-.014-1.847.725-3.409a7.4 7.4 0 0 1 2.017-2.628 6.2 6.2 0 0 1 2.883-1.35v-.17q-2.088-.54-3.323-2.344-1.236-1.818-1.222-4.133-.014-2.217 1.122-3.963 1.137-1.748 3.125-2.756 2.003-1.008 4.56-1.009 2.528 0 4.517 1.009 1.988 1.008 3.125 2.756 1.15 1.746 1.165 3.963-.015 2.315-1.265 4.133-1.235 1.804-3.281 2.344v.17q1.577.285 2.841 1.35 1.264 1.05 2.017 2.628.753 1.562.767 3.409-.013 2.358-1.278 4.204-1.251 1.833-3.48 2.884-2.217 1.037-5.128 1.037m0-3.125q1.974 0 3.409-.639 1.434-.64 2.216-1.804.781-1.165.795-2.728-.014-1.647-.852-2.912-.838-1.263-2.287-1.988-1.434-.725-3.281-.725-1.861 0-3.324.725-1.449.725-2.287 1.988-.823 1.265-.81 2.912-.014 1.563.753 2.728.781 1.164 2.23 1.804 1.449.639 3.438.639m0-13.807q1.562 0 2.77-.625a4.76 4.76 0 0 0 1.917-1.747q.696-1.122.711-2.628-.015-1.478-.696-2.571a4.5 4.5 0 0 0-1.89-1.705q-1.207-.61-2.812-.61-1.634 0-2.855.61-1.222.597-1.89 1.705-.667 1.094-.653 2.571-.014 1.506.668 2.628a4.76 4.76 0 0 0 1.917 1.747q1.222.625 2.813.625M760.223 140.909V170H756.7v-25.398h-.17l-7.102 4.716v-3.579l7.272-4.83zM768.589 170v-2.557l9.603-10.511a67 67 0 0 0 2.784-3.21q1.094-1.379 1.619-2.586.54-1.221.54-2.556 0-1.535-.739-2.657-.725-1.121-1.988-1.733-1.264-.61-2.841-.61-1.677 0-2.926.696a4.8 4.8 0 0 0-1.918 1.917q-.668 1.236-.668 2.898h-3.352q0-2.557 1.179-4.489a8.2 8.2 0 0 1 3.21-3.011q2.046-1.08 4.588-1.08 2.557 0 4.532 1.08 1.974 1.08 3.096 2.912t1.122 4.077q0 1.605-.582 3.139-.569 1.52-1.989 3.395-1.405 1.86-3.906 4.545l-6.534 6.989v.227h13.523V170zm24.219 0v-2.557l9.603-10.511a68 68 0 0 0 2.784-3.21q1.094-1.379 1.619-2.586.54-1.221.54-2.556 0-1.535-.739-2.657-.724-1.121-1.989-1.733-1.263-.61-2.84-.61-1.677 0-2.927.696a4.8 4.8 0 0 0-1.917 1.917q-.668 1.236-.668 2.898h-3.352q0-2.557 1.179-4.489a8.2 8.2 0 0 1 3.21-3.011q2.046-1.08 4.588-1.08 2.557 0 4.531 1.08 1.975 1.08 3.097 2.912t1.122 4.077q0 1.605-.582 3.139-.569 1.52-1.989 3.395-1.406 1.86-3.906 4.545l-6.534 6.989v.227h13.523V170zM879.813 140.909V170h-3.523v-25.398h-.17l-7.103 4.716v-3.579l7.273-4.83zM888.179 170v-2.557l9.603-10.511a67 67 0 0 0 2.784-3.21q1.094-1.379 1.619-2.586.54-1.221.54-2.556 0-1.535-.739-2.657-.725-1.121-1.988-1.733-1.264-.61-2.841-.61-1.677 0-2.927.696a4.8 4.8 0 0 0-1.917 1.917q-.668 1.236-.668 2.898h-3.352q0-2.557 1.179-4.489a8.2 8.2 0 0 1 3.21-3.011q2.046-1.08 4.588-1.08 2.557 0 4.531 1.08 1.975 1.08 3.097 2.912t1.122 4.077q0 1.605-.582 3.139-.569 1.52-1.989 3.395-1.406 1.86-3.906 4.545l-6.534 6.989v.227h13.523V170zm22.912-5.966v-2.898l12.784-20.227h2.103v4.489h-1.421l-9.659 15.284v.227h17.216v3.125zM924.784 170v-29.091h3.353V170zM999.383 140.909V170h-3.523v-25.398h-.17l-7.102 4.716v-3.579l7.272-4.83zm17.687 29.489c-1.95 0-3.68-.346-5.17-1.037q-2.235-1.051-3.48-2.884c-.84-1.231-1.25-2.632-1.24-4.204-.01-1.231.23-2.368.73-3.409a7.4 7.4 0 0 1 2.01-2.628c.86-.71 1.83-1.16 2.89-1.35v-.17c-1.4-.36-2.5-1.141-3.33-2.344-.82-1.212-1.23-2.59-1.22-4.133-.01-1.478.37-2.799 1.12-3.963.76-1.165 1.8-2.084 3.13-2.756q1.995-1.008 4.56-1.009c1.68 0 3.19.337 4.51 1.009 1.33.672 2.37 1.591 3.13 2.756.77 1.164 1.16 2.485 1.16 3.963 0 1.543-.43 2.921-1.26 4.133-.82 1.203-1.92 1.984-3.28 2.344v.17c1.05.19 2 .64 2.84 1.35a7.7 7.7 0 0 1 2.02 2.628c.5 1.041.75 2.178.76 3.409-.01 1.572-.43 2.973-1.27 4.204q-1.26 1.833-3.48 2.884-2.22 1.037-5.13 1.037m0-3.125c1.31 0 2.45-.213 3.41-.639.95-.427 1.69-1.028 2.21-1.804.52-.777.79-1.686.8-2.728-.01-1.098-.3-2.069-.85-2.912-.56-.842-1.33-1.505-2.29-1.988s-2.05-.725-3.28-.725q-1.86 0-3.33.725-1.44.725-2.28 1.988-.825 1.265-.81 2.912-.015 1.563.75 2.728c.52.776 1.26 1.377 2.23 1.804.97.426 2.11.639 3.44.639m0-13.807c1.04 0 1.96-.208 2.77-.625a4.83 4.83 0 0 0 1.92-1.747c.46-.748.7-1.624.71-2.628-.01-.985-.25-1.842-.7-2.571a4.5 4.5 0 0 0-1.89-1.705c-.8-.407-1.74-.61-2.81-.61-1.09 0-2.04.203-2.86.61q-1.215.597-1.89 1.705c-.44.729-.66 1.586-.65 2.571-.01 1.004.21 1.88.67 2.628q.69 1.122 1.92 1.747c.81.417 1.75.625 2.81.625m25.16 16.932c-1.88 0-3.55-.322-5.02-.966q-2.175-.966-3.48-2.685c-.85-1.155-1.31-2.495-1.39-4.02h3.58c.08.938.4 1.747.97 2.429.56.673 1.31 1.193 2.23 1.563s1.93.554 3.05.554c1.25 0 2.36-.218 3.32-.654q1.455-.653 2.28-1.818c.55-.776.82-1.676.82-2.699 0-1.07-.26-2.012-.79-2.826-.53-.824-1.31-1.468-2.33-1.932q-1.545-.696-3.75-.696h-2.33v-3.125h2.33c1.15 0 2.16-.209 3.04-.625s1.56-1.004 2.06-1.762q.75-1.136.75-2.67c0-.985-.22-1.842-.65-2.571-.44-.729-1.06-1.297-1.85-1.705q-1.185-.61-2.79-.61c-1 0-1.95.184-2.84.554q-1.32.539-2.16 1.576c-.55.682-.86 1.506-.9 2.472h-3.41c.05-1.525.51-2.86 1.37-4.006.87-1.155 1.99-2.055 3.38-2.699q2.115-.966 4.62-.966c1.8 0 3.34.365 4.63 1.094q1.935 1.08 2.97 2.855a7.5 7.5 0 0 1 1.04 3.835q0 2.458-1.29 4.191c-.86 1.155-2.02 1.955-3.49 2.4v.228c1.84.303 3.28 1.084 4.31 2.343 1.03 1.25 1.55 2.799 1.55 4.645 0 1.582-.43 3.002-1.3 4.262-.85 1.25-2.01 2.234-3.49 2.954q-2.22 1.08-5.04 1.08"/></svg>