<svg xmlns="http://www.w3.org/2000/svg" width="1137" height="991" fill="none" viewBox="0 0 1137 991"><path fill="#096" d="M165 473h122v214c0 14.912-12.088 27-27 27h-68c-14.912 0-27-12.088-27-27zM376 354h122v241H376zM589 232h122v241H589z"/><path fill="#2c2c2c" d="M802 140c0-14.912 12.088-27 27-27h68c14.912 0 27 12.088 27 27v214H802z"/><rect width="598" height="120" x="166" y="713" stroke="#dbdbdb" stroke-width="2" rx="26" transform="rotate(-90 166 713)"/><rect width="598" height="120" x="377" y="713" stroke="#dbdbdb" stroke-width="2" rx="26" transform="rotate(-90 377 713)"/><rect width="598" height="120" x="590" y="713" stroke="#dbdbdb" stroke-width="2" rx="26" transform="rotate(-90 590 713)"/><rect width="598" height="120" x="803" y="713" stroke="#dbdbdb" stroke-width="2" rx="26" transform="rotate(-90 803 713)"/><rect width="598" height="120" x="1016" y="713" stroke="#dbdbdb" stroke-width="2" rx="26" transform="rotate(-90 1016 713)"/><path stroke="#dbdbdb" stroke-width="2" d="M165 593h122M376 593h122M589 593h122M802 593h122M1015 593h122M165 473h122M376 473h122M589 473h122M802 473h122M1015 473h122M165 353h122M376 353h122M589 353h122M802 353h122M1015 353h122M165 233h122M376 233h122M589 233h122M802 233h122M1015 233h122"/><path fill="#fff" d="M226.434 668.398q-2.499 0-4.503-.995-2.003-.994-3.21-2.727t-1.321-3.949h3.409q.199 1.976 1.79 3.267 1.606 1.28 3.835 1.279 1.79 0 3.182-.838a5.9 5.9 0 0 0 2.202-2.301q.81-1.477.809-3.339 0-1.903-.838-3.394a6.15 6.15 0 0 0-2.272-2.373q-1.449-.866-3.31-.88a9 9 0 0 0-2.741.412q-1.407.411-2.316 1.065l-3.295-.398 1.761-14.318h15.114v3.125h-12.159l-1.023 8.58h.17q.895-.711 2.245-1.179a8.5 8.5 0 0 1 2.812-.469q2.671 0 4.759 1.278a8.93 8.93 0 0 1 3.295 3.466q1.208 2.202 1.208 5.029 0 2.784-1.25 4.971a9.14 9.14 0 0 1-3.41 3.438q-2.172 1.25-4.943 1.25M45.036 800.278q-1.75 0-3.152-.696t-2.247-1.909-.925-2.764h2.386q.14 1.382 1.253 2.287 1.124.895 2.685.895 1.253 0 2.227-.587a4.14 4.14 0 0 0 1.541-1.611q.567-1.034.567-2.336 0-1.333-.586-2.377a4.3 4.3 0 0 0-1.591-1.66q-1.014-.606-2.317-.617a6.4 6.4 0 0 0-1.92.289q-.983.288-1.62.746l-2.307-.279 1.233-10.023h10.58v2.188H42.33l-.715 6.006h.119q.627-.498 1.57-.826a6 6 0 0 1 1.97-.328q1.869 0 3.33.895a6.25 6.25 0 0 1 2.308 2.426q.845 1.542.845 3.52 0 1.948-.875 3.48a6.4 6.4 0 0 1-2.387 2.406q-1.52.875-3.46.875M63.622 800v-15.273h2.347V800zm1.194-17.818q-.686 0-1.184-.468a1.5 1.5 0 0 1-.487-1.123q0-.657.487-1.124a1.67 1.67 0 0 1 1.184-.467q.686 0 1.173.467.497.467.497 1.124 0 .656-.497 1.123a1.63 1.63 0 0 1-1.174.468m16.269 5.966-2.108.596a4 4 0 0 0-.587-1.024q-.377-.507-1.034-.835-.656-.328-1.68-.328-1.402 0-2.337.646-.924.636-.924 1.621 0 .875.636 1.382t1.989.845l2.267.557q2.048.496 3.052 1.521 1.005 1.014 1.005 2.615 0 1.313-.756 2.347-.745 1.034-2.088 1.631-1.343.596-3.123.596-2.336 0-3.867-1.014t-1.94-2.963l2.228-.557q.318 1.233 1.203 1.85.895.616 2.337.616 1.64 0 2.605-.696.975-.706.974-1.69 0-.796-.556-1.333-.558-.546-1.71-.815l-2.546-.597q-2.098-.497-3.083-1.541-.975-1.054-.974-2.635 0-1.293.726-2.287.736-.994 1.998-1.561 1.273-.567 2.884-.567 2.267 0 3.56.995 1.302.994 1.849 2.625m17.85 17.897q-1.7 0-2.923-.437-1.223-.427-2.038-1.134a6.2 6.2 0 0 1-1.283-1.491l1.87-1.313q.318.418.805.955.487.547 1.332.945.855.407 2.238.407 1.85 0 3.052-.895 1.203-.894 1.203-2.804v-3.102h-.199q-.258.418-.735 1.034-.468.607-1.353 1.084-.875.468-2.366.467-1.85 0-3.321-.875-1.462-.874-2.317-2.545-.845-1.67-.845-4.057 0-2.347.825-4.087.825-1.75 2.297-2.704 1.472-.965 3.4-.965 1.492 0 2.367.498.885.487 1.352 1.113.478.616.736 1.014h.239v-2.426h2.267v15.711q0 1.968-.895 3.201-.885 1.243-2.386 1.82-1.492.586-3.322.586m-.079-8.392q1.412 0 2.386-.646.975-.647 1.482-1.859.507-1.214.507-2.904 0-1.65-.497-2.913t-1.472-1.979-2.406-.716q-1.491 0-2.486.756-.984.756-1.481 2.028-.487 1.273-.487 2.824 0 1.591.497 2.814.507 1.213 1.491 1.909.995.686 2.466.686M109.833 800v-15.273h2.267v2.307h.159q.418-1.134 1.512-1.839 1.093-.706 2.466-.706.258 0 .646.01t.587.029v2.387a7 7 0 0 0-.547-.09 5.4 5.4 0 0 0-.885-.069q-1.114 0-1.989.467a3.5 3.5 0 0 0-1.372 1.273q-.497.806-.497 1.839V800zm16.357.318q-2.208 0-3.808-.974-1.592-.984-2.456-2.745-.855-1.77-.856-4.116 0-2.346.856-4.136.864-1.8 2.406-2.804 1.55-1.015 3.619-1.015 1.194 0 2.357.398a5.84 5.84 0 0 1 2.118 1.293q.954.885 1.521 2.346.567 1.463.567 3.6v.994h-11.773v-2.028h9.386q0-1.293-.517-2.307a3.9 3.9 0 0 0-1.451-1.601q-.935-.587-2.208-.587-1.401 0-2.426.696a4.6 4.6 0 0 0-1.561 1.79 5.26 5.26 0 0 0-.547 2.367v1.352q0 1.73.597 2.933.606 1.194 1.68 1.82 1.074.616 2.496.616.924 0 1.67-.258a3.6 3.6 0 0 0 1.303-.796q.546-.537.845-1.332l2.267.636a5.04 5.04 0 0 1-1.203 2.029q-.846.864-2.088 1.352-1.243.477-2.794.477m14.388.04q-1.452 0-2.635-.547a4.5 4.5 0 0 1-1.88-1.601q-.696-1.053-.696-2.545 0-1.313.517-2.128.518-.825 1.383-1.293a7.3 7.3 0 0 1 1.909-.696 23 23 0 0 1 2.118-.378q1.392-.178 2.257-.268.875-.1 1.272-.328.408-.23.408-.796v-.079q0-1.472-.805-2.287-.796-.815-2.417-.815-1.68 0-2.635.735-.954.737-1.342 1.571l-2.227-.795q.597-1.392 1.591-2.168a6 6 0 0 1 2.187-1.093 9 9 0 0 1 2.347-.319q.736 0 1.69.179a5.4 5.4 0 0 1 1.86.706q.904.538 1.501 1.621.597 1.084.597 2.904V800h-2.347v-2.068h-.119q-.239.497-.796 1.064t-1.481.964q-.925.398-2.257.398m.358-2.108q1.392 0 2.346-.547.965-.546 1.452-1.412a3.6 3.6 0 0 0 .497-1.819v-2.148q-.149.179-.656.328a11 11 0 0 1-1.154.249q-.646.1-1.262.179-.607.07-.985.119-.915.119-1.71.388-.786.258-1.273.785-.477.517-.477 1.412 0 1.223.905 1.85.915.616 2.317.616m17.567-13.523v1.989h-7.915v-1.989zm-5.608-3.659h2.346v14.557q0 .995.289 1.491.298.488.755.657.468.159.985.159.387 0 .636-.04l.398-.08.477 2.108q-.238.09-.666.179-.427.1-1.084.1a4.7 4.7 0 0 1-1.949-.428 3.9 3.9 0 0 1-1.571-1.302q-.616-.875-.616-2.208zm15.377 19.25q-2.208 0-3.808-.974-1.592-.984-2.456-2.745-.855-1.77-.855-4.116t.855-4.136q.864-1.8 2.406-2.804 1.55-1.015 3.619-1.015 1.194 0 2.357.398a5.84 5.84 0 0 1 2.118 1.293q.954.885 1.521 2.346.567 1.463.567 3.6v.994h-11.773v-2.028h9.386q0-1.293-.517-2.307a3.9 3.9 0 0 0-1.451-1.601q-.935-.587-2.208-.587-1.401 0-2.426.696a4.6 4.6 0 0 0-1.561 1.79 5.26 5.26 0 0 0-.547 2.367v1.352q0 1.73.597 2.933.606 1.194 1.68 1.82 1.074.616 2.496.616.924 0 1.67-.258a3.6 3.6 0 0 0 1.303-.796q.546-.537.845-1.332l2.267.636a5.04 5.04 0 0 1-1.203 2.029q-.846.864-2.088 1.352-1.243.477-2.794.477m9.893-.318v-15.273h2.267v2.307h.159q.418-1.134 1.512-1.839t2.466-.706q.258 0 .646.01t.587.029v2.387a7 7 0 0 0-.547-.09 5.4 5.4 0 0 0-.885-.069q-1.114 0-1.989.467a3.53 3.53 0 0 0-1.372 1.273q-.497.806-.497 1.839V800zm-97.92 18.727v1.989H72.33v-1.989zm-5.608-3.659h2.347v14.557q0 .995.288 1.491.298.488.755.657.468.159.985.159.387 0 .636-.04l.398-.08.477 2.108q-.238.09-.666.179-.427.1-1.084.1a4.7 4.7 0 0 1-1.949-.428 3.87 3.87 0 0 1-1.57-1.302q-.618-.875-.617-2.208zm11.812 9.744V834h-2.346v-20.364h2.346v7.478h.2a4.3 4.3 0 0 1 1.61-1.88q1.084-.706 2.884-.706 1.56 0 2.734.627 1.173.616 1.82 1.899.656 1.272.656 3.241V834h-2.347v-9.545q0-1.82-.944-2.814-.935-1.005-2.596-1.005-1.153 0-2.068.488a3.55 3.55 0 0 0-1.432 1.421q-.516.936-.517 2.267m18.691 9.546q-1.452 0-2.635-.547a4.5 4.5 0 0 1-1.879-1.601q-.696-1.053-.696-2.545 0-1.313.517-2.128.517-.825 1.382-1.293a7.3 7.3 0 0 1 1.909-.696 23 23 0 0 1 2.118-.378q1.392-.178 2.257-.268.875-.1 1.273-.328.408-.23.408-.796v-.079q0-1.472-.806-2.287-.795-.815-2.416-.815-1.68 0-2.635.735-.955.737-1.342 1.571l-2.228-.795q.597-1.392 1.591-2.168a6 6 0 0 1 2.188-1.093 9 9 0 0 1 2.346-.319q.736 0 1.691.179a5.4 5.4 0 0 1 1.859.706q.905.538 1.502 1.621.596 1.084.596 2.904V834h-2.346v-2.068h-.12q-.239.497-.795 1.064t-1.482.964q-.924.398-2.257.398m.358-2.108q1.392 0 2.347-.547.965-.546 1.451-1.412a3.6 3.6 0 0 0 .498-1.819v-2.148q-.15.179-.657.328-.497.14-1.153.249-.647.1-1.263.179-.606.07-.984.119-.915.119-1.711.388-.784.258-1.272.785-.478.517-.478 1.412 0 1.223.905 1.85.915.616 2.317.616m13.272-7.438V834h-2.347v-15.273h2.267v2.387h.199a4.37 4.37 0 0 1 1.631-1.87q1.093-.716 2.824-.716 1.55 0 2.714.637 1.164.626 1.81 1.909.646 1.272.646 3.221V834h-2.347v-9.545q0-1.8-.934-2.804-.934-1.015-2.566-1.015-1.123 0-2.008.488a3.5 3.5 0 0 0-1.382 1.421q-.507.936-.507 2.267m29.026-11.176V834h-2.466v-17.778h-.119l-4.971 3.301v-2.506l5.09-3.381zM257.036 800.278q-1.75 0-3.152-.696t-2.247-1.909q-.846-1.213-.925-2.764h2.387q.139 1.382 1.252 2.287 1.123.895 2.685.895 1.253 0 2.227-.587a4.14 4.14 0 0 0 1.542-1.611q.566-1.034.566-2.336 0-1.333-.586-2.377a4.3 4.3 0 0 0-1.591-1.66q-1.014-.606-2.317-.617a6.4 6.4 0 0 0-1.919.289q-.984.288-1.621.746l-2.307-.279 1.233-10.023h10.58v2.188h-8.512l-.715 6.006h.119q.626-.498 1.571-.826a6 6 0 0 1 1.969-.328q1.869 0 3.331.895a6.25 6.25 0 0 1 2.306 2.426q.846 1.542.846 3.52 0 1.948-.875 3.48a6.4 6.4 0 0 1-2.387 2.406q-1.52.875-3.46.875m18.586-.278v-15.273h2.347V800zm1.194-17.818q-.686 0-1.184-.468a1.5 1.5 0 0 1-.487-1.123q0-.657.487-1.124a1.67 1.67 0 0 1 1.184-.467q.685 0 1.173.467.497.467.497 1.124 0 .656-.497 1.123a1.63 1.63 0 0 1-1.173.468m16.269 5.966-2.108.596a3.9 3.9 0 0 0-.587-1.024q-.377-.507-1.034-.835-.655-.328-1.68-.328-1.402 0-2.337.646-.924.636-.924 1.621 0 .875.636 1.382t1.989.845l2.267.557q2.048.496 3.052 1.521 1.005 1.014 1.004 2.615 0 1.313-.755 2.347-.745 1.034-2.088 1.631-1.343.596-3.122.596-2.337 0-3.868-1.014t-1.939-2.963l2.227-.557q.318 1.233 1.203 1.85.896.616 2.337.616 1.64 0 2.605-.696.974-.706.974-1.69 0-.796-.556-1.333-.558-.546-1.711-.815l-2.545-.597q-2.098-.497-3.083-1.541-.974-1.054-.974-2.635 0-1.293.726-2.287.736-.994 1.998-1.561 1.273-.567 2.884-.567 2.267 0 3.56.995 1.302.994 1.849 2.625m17.851 17.897q-1.7 0-2.924-.437-1.223-.427-2.038-1.134a6.2 6.2 0 0 1-1.283-1.491l1.87-1.313q.318.418.805.955.487.547 1.332.945.855.407 2.238.407 1.85 0 3.052-.895 1.203-.894 1.203-2.804v-3.102h-.199q-.258.418-.735 1.034-.468.607-1.353 1.084-.875.468-2.366.467-1.85 0-3.321-.875-1.462-.874-2.317-2.545-.845-1.67-.845-4.057 0-2.347.825-4.087.825-1.75 2.297-2.704 1.472-.965 3.401-.965 1.491 0 2.366.498.885.487 1.352 1.113.478.616.736 1.014h.239v-2.426h2.267v15.711q0 1.968-.895 3.201-.885 1.243-2.386 1.82-1.492.586-3.321.586m-.08-8.392q1.412 0 2.386-.646.975-.647 1.482-1.859.507-1.214.507-2.904 0-1.65-.497-2.913-.498-1.262-1.472-1.979-.974-.716-2.406-.716-1.491 0-2.486.756-.984.756-1.481 2.028-.488 1.273-.488 2.824 0 1.591.498 2.814.507 1.213 1.491 1.909.995.686 2.466.686M321.833 800v-15.273h2.267v2.307h.159q.418-1.134 1.512-1.839t2.466-.706q.258 0 .646.01t.587.029v2.387a7 7 0 0 0-.547-.09 5.4 5.4 0 0 0-.885-.069q-1.114 0-1.989.467a3.5 3.5 0 0 0-1.372 1.273q-.497.806-.497 1.839V800zm16.357.318q-2.208 0-3.808-.974-1.592-.984-2.456-2.745-.855-1.77-.856-4.116 0-2.346.856-4.136.864-1.8 2.406-2.804 1.55-1.015 3.619-1.015 1.193 0 2.357.398a5.84 5.84 0 0 1 2.118 1.293q.954.885 1.521 2.346.567 1.463.567 3.6v.994h-11.773v-2.028h9.386q0-1.293-.517-2.307a3.9 3.9 0 0 0-1.451-1.601q-.935-.587-2.208-.587-1.401 0-2.426.696a4.6 4.6 0 0 0-1.561 1.79 5.26 5.26 0 0 0-.547 2.367v1.352q0 1.73.597 2.933.606 1.194 1.68 1.82 1.074.616 2.496.616.924 0 1.67-.258a3.6 3.6 0 0 0 1.303-.796q.546-.537.845-1.332l2.267.636a5.04 5.04 0 0 1-1.203 2.029q-.846.864-2.088 1.352-1.243.477-2.794.477m14.388.04q-1.452 0-2.635-.547a4.5 4.5 0 0 1-1.88-1.601q-.696-1.053-.696-2.545 0-1.313.517-2.128.517-.825 1.383-1.293a7.3 7.3 0 0 1 1.909-.696 23 23 0 0 1 2.118-.378q1.392-.178 2.257-.268.875-.1 1.272-.328.408-.23.408-.796v-.079q0-1.472-.805-2.287-.796-.815-2.417-.815-1.68 0-2.635.735-.954.737-1.342 1.571l-2.227-.795q.597-1.392 1.591-2.168a6 6 0 0 1 2.187-1.093 9 9 0 0 1 2.347-.319q.735 0 1.69.179a5.4 5.4 0 0 1 1.86.706q.904.538 1.501 1.621.597 1.084.597 2.904V800h-2.347v-2.068h-.119q-.239.497-.796 1.064t-1.481.964q-.925.398-2.257.398m.358-2.108q1.392 0 2.346-.547.964-.546 1.452-1.412a3.6 3.6 0 0 0 .497-1.819v-2.148q-.149.179-.656.328a11 11 0 0 1-1.154.249q-.646.1-1.262.179-.607.07-.985.119-.915.119-1.71.388-.786.258-1.273.785-.477.517-.477 1.412 0 1.223.905 1.85.915.616 2.317.616m17.567-13.523v1.989h-7.915v-1.989zm-5.608-3.659h2.346v14.557q0 .995.289 1.491.298.488.755.657.468.159.985.159.387 0 .636-.04l.398-.08.477 2.108q-.238.09-.666.179-.427.1-1.084.1a4.7 4.7 0 0 1-1.949-.428 3.9 3.9 0 0 1-1.571-1.302q-.616-.875-.616-2.208zm15.377 19.25q-2.208 0-3.808-.974-1.592-.984-2.456-2.745-.855-1.77-.855-4.116t.855-4.136q.864-1.8 2.406-2.804 1.55-1.015 3.619-1.015 1.193 0 2.357.398a5.84 5.84 0 0 1 2.118 1.293q.954.885 1.521 2.346.567 1.463.567 3.6v.994h-11.773v-2.028h9.386q0-1.293-.517-2.307a3.9 3.9 0 0 0-1.451-1.601q-.935-.587-2.208-.587-1.401 0-2.426.696a4.6 4.6 0 0 0-1.561 1.79 5.26 5.26 0 0 0-.547 2.367v1.352q0 1.73.597 2.933.606 1.194 1.68 1.82 1.074.616 2.496.616.924 0 1.67-.258a3.6 3.6 0 0 0 1.303-.796q.546-.537.845-1.332l2.267.636a5.04 5.04 0 0 1-1.203 2.029q-.846.864-2.088 1.352-1.243.477-2.794.477m9.893-.318v-15.273h2.267v2.307h.159q.418-1.134 1.512-1.839t2.466-.706q.258 0 .646.01t.587.029v2.387a7 7 0 0 0-.547-.09 5.4 5.4 0 0 0-.885-.069q-1.114 0-1.989.467a3.53 3.53 0 0 0-1.372 1.273q-.497.806-.497 1.839V800zM289.77 818.727v1.989h-7.915v-1.989zm-5.608-3.659h2.347v14.557q0 .995.288 1.491.298.488.756.657.467.159.984.159.388 0 .637-.04l.397-.08.478 2.108q-.239.09-.667.179-.428.1-1.083.1a4.7 4.7 0 0 1-1.949-.428 3.87 3.87 0 0 1-1.571-1.302q-.617-.875-.617-2.208zm11.813 9.744V834h-2.347v-20.364h2.347v7.478h.199a4.3 4.3 0 0 1 1.61-1.88q1.084-.706 2.884-.706 1.561 0 2.734.627 1.174.616 1.82 1.899.656 1.272.656 3.241V834h-2.346v-9.545q0-1.82-.945-2.814-.934-1.005-2.595-1.005-1.154 0-2.068.488a3.55 3.55 0 0 0-1.432 1.421q-.517.936-.517 2.267m18.69 9.546q-1.451 0-2.634-.547a4.5 4.5 0 0 1-1.88-1.601q-.696-1.053-.696-2.545 0-1.313.517-2.128.518-.825 1.382-1.293a7.3 7.3 0 0 1 1.909-.696 23 23 0 0 1 2.118-.378 99 99 0 0 1 2.257-.268q.876-.1 1.273-.328.408-.23.408-.796v-.079q0-1.472-.806-2.287-.795-.815-2.416-.815-1.68 0-2.635.735-.954.737-1.342 1.571l-2.227-.795q.596-1.392 1.591-2.168a6 6 0 0 1 2.187-1.093 9 9 0 0 1 2.347-.319q.735 0 1.69.179a5.4 5.4 0 0 1 1.859.706q.905.538 1.502 1.621.597 1.084.596 2.904V834h-2.346v-2.068h-.119q-.24.497-.796 1.064-.557.567-1.481.964-.925.398-2.258.398m.358-2.108q1.393 0 2.347-.547.964-.546 1.452-1.412a3.6 3.6 0 0 0 .497-1.819v-2.148q-.15.179-.656.328a11 11 0 0 1-1.154.249q-.646.1-1.263.179-.606.07-.984.119-.915.119-1.71.388-.786.258-1.273.785-.477.517-.477 1.412 0 1.223.905 1.85.915.616 2.316.616m13.272-7.438V834h-2.346v-15.273h2.267v2.387h.198a4.37 4.37 0 0 1 1.631-1.87q1.094-.716 2.824-.716 1.551 0 2.714.637 1.164.626 1.81 1.909.646 1.272.646 3.221V834h-2.346v-9.545q0-1.8-.935-2.804-.935-1.015-2.565-1.015-1.124 0-2.009.488a3.5 3.5 0 0 0-1.382 1.421q-.507.936-.507 2.267m21.39 5.012v-2.029l8.949-14.159h1.472v3.142h-.994l-6.762 10.699v.159h12.051v2.188zm9.586 4.176v-20.364h2.346V834zM470.036 800.278q-1.75 0-3.152-.696t-2.247-1.909-.925-2.764h2.387q.138 1.382 1.252 2.287 1.124.895 2.685.895 1.253 0 2.227-.587a4.14 4.14 0 0 0 1.542-1.611q.566-1.034.566-2.336 0-1.333-.586-2.377a4.3 4.3 0 0 0-1.591-1.66q-1.014-.606-2.317-.617a6.4 6.4 0 0 0-1.919.289q-.985.288-1.621.746l-2.307-.279 1.233-10.023h10.58v2.188h-8.512l-.715 6.006h.119q.626-.498 1.571-.826a6 6 0 0 1 1.969-.328q1.869 0 3.331.895a6.25 6.25 0 0 1 2.306 2.426q.846 1.542.846 3.52 0 1.948-.875 3.48a6.4 6.4 0 0 1-2.387 2.406q-1.52.875-3.46.875m18.586-.278v-15.273h2.347V800zm1.194-17.818q-.686 0-1.184-.468a1.5 1.5 0 0 1-.487-1.123q0-.657.487-1.124a1.67 1.67 0 0 1 1.184-.467q.685 0 1.173.467.497.467.497 1.124 0 .656-.497 1.123a1.63 1.63 0 0 1-1.173.468m16.269 5.966-2.108.596a3.9 3.9 0 0 0-.587-1.024q-.377-.507-1.034-.835-.655-.328-1.68-.328-1.402 0-2.337.646-.924.636-.924 1.621 0 .875.636 1.382t1.989.845l2.267.557q2.048.496 3.052 1.521 1.005 1.014 1.004 2.615 0 1.313-.755 2.347-.745 1.034-2.088 1.631-1.343.596-3.122.596-2.337 0-3.868-1.014t-1.939-2.963l2.227-.557q.318 1.233 1.203 1.85.896.616 2.337.616 1.64 0 2.605-.696.974-.706.974-1.69 0-.796-.556-1.333-.558-.546-1.711-.815l-2.545-.597q-2.098-.497-3.083-1.541-.974-1.054-.974-2.635 0-1.293.726-2.287.736-.994 1.998-1.561 1.273-.567 2.884-.567 2.267 0 3.56.995 1.302.994 1.849 2.625m17.851 17.897q-1.7 0-2.924-.437-1.223-.427-2.038-1.134a6.2 6.2 0 0 1-1.283-1.491l1.87-1.313q.318.418.805.955.487.547 1.332.945.855.407 2.238.407 1.85 0 3.052-.895 1.203-.894 1.203-2.804v-3.102h-.199q-.258.418-.735 1.034-.468.607-1.353 1.084-.875.468-2.366.467-1.85 0-3.321-.875-1.462-.874-2.317-2.545-.845-1.67-.845-4.057 0-2.347.825-4.087.825-1.75 2.297-2.704 1.472-.965 3.401-.965 1.491 0 2.366.498.885.487 1.352 1.113.478.616.736 1.014h.239v-2.426h2.267v15.711q0 1.968-.895 3.201-.885 1.243-2.386 1.82-1.492.586-3.321.586m-.08-8.392q1.412 0 2.386-.646.975-.647 1.482-1.859.507-1.214.507-2.904 0-1.65-.497-2.913t-1.472-1.979q-.974-.716-2.406-.716-1.491 0-2.486.756-.984.756-1.481 2.028-.488 1.273-.488 2.824 0 1.591.498 2.814.507 1.213 1.491 1.909.995.686 2.466.686M534.833 800v-15.273h2.267v2.307h.159q.418-1.134 1.512-1.839 1.093-.706 2.466-.706.258 0 .646.01t.587.029v2.387a7 7 0 0 0-.547-.09 5.4 5.4 0 0 0-.885-.069q-1.114 0-1.989.467a3.5 3.5 0 0 0-1.372 1.273q-.497.806-.497 1.839V800zm16.357.318q-2.208 0-3.808-.974-1.592-.984-2.456-2.745-.856-1.77-.856-4.116t.856-4.136q.864-1.8 2.406-2.804 1.55-1.015 3.619-1.015 1.194 0 2.357.398a5.84 5.84 0 0 1 2.118 1.293q.954.885 1.521 2.346.567 1.463.567 3.6v.994h-11.773v-2.028h9.386q0-1.293-.517-2.307a3.9 3.9 0 0 0-1.451-1.601q-.935-.587-2.208-.587-1.401 0-2.426.696a4.6 4.6 0 0 0-1.561 1.79 5.26 5.26 0 0 0-.547 2.367v1.352q0 1.73.597 2.933.606 1.194 1.68 1.82 1.074.616 2.496.616.924 0 1.67-.258a3.6 3.6 0 0 0 1.303-.796q.546-.537.845-1.332l2.267.636a5.04 5.04 0 0 1-1.203 2.029q-.846.864-2.088 1.352-1.243.477-2.794.477m14.388.04q-1.452 0-2.635-.547a4.5 4.5 0 0 1-1.88-1.601q-.696-1.053-.696-2.545 0-1.313.517-2.128.518-.825 1.383-1.293a7.3 7.3 0 0 1 1.909-.696 23 23 0 0 1 2.118-.378q1.392-.178 2.257-.268.875-.1 1.272-.328.408-.23.408-.796v-.079q0-1.472-.805-2.287-.796-.815-2.417-.815-1.68 0-2.635.735-.954.737-1.342 1.571l-2.227-.795q.597-1.392 1.591-2.168a6 6 0 0 1 2.187-1.093 9 9 0 0 1 2.347-.319q.736 0 1.69.179a5.4 5.4 0 0 1 1.86.706q.904.538 1.501 1.621.597 1.084.597 2.904V800h-2.347v-2.068h-.119q-.239.497-.796 1.064t-1.481.964-2.257.398m.358-2.108q1.392 0 2.346-.547.964-.546 1.452-1.412a3.6 3.6 0 0 0 .497-1.819v-2.148q-.149.179-.656.328a11 11 0 0 1-1.154.249q-.646.1-1.262.179-.607.07-.985.119-.915.119-1.71.388-.786.258-1.273.785-.477.517-.477 1.412 0 1.223.905 1.85.915.616 2.317.616m17.567-13.523v1.989h-7.915v-1.989zm-5.608-3.659h2.346v14.557q0 .995.289 1.491.298.488.755.657.468.159.985.159.387 0 .636-.04l.398-.08.477 2.108q-.238.09-.666.179-.427.1-1.084.1a4.7 4.7 0 0 1-1.949-.428 3.9 3.9 0 0 1-1.571-1.302q-.616-.875-.616-2.208zm15.377 19.25q-2.208 0-3.808-.974-1.592-.984-2.456-2.745-.855-1.77-.855-4.116t.855-4.136q.864-1.8 2.406-2.804 1.55-1.015 3.619-1.015 1.194 0 2.357.398a5.84 5.84 0 0 1 2.118 1.293q.954.885 1.521 2.346.567 1.463.567 3.6v.994h-11.773v-2.028h9.386q0-1.293-.517-2.307a3.9 3.9 0 0 0-1.451-1.601q-.935-.587-2.208-.587-1.401 0-2.426.696a4.6 4.6 0 0 0-1.561 1.79 5.26 5.26 0 0 0-.547 2.367v1.352q0 1.73.597 2.933.606 1.194 1.68 1.82 1.074.616 2.496.616.924 0 1.67-.258a3.6 3.6 0 0 0 1.303-.796q.546-.537.845-1.332l2.267.636a5.04 5.04 0 0 1-1.203 2.029q-.846.864-2.088 1.352-1.243.477-2.794.477m9.893-.318v-15.273h2.267v2.307h.159q.419-1.134 1.512-1.839 1.094-.706 2.466-.706.258 0 .646.01t.587.029v2.387a7 7 0 0 0-.547-.09 5.4 5.4 0 0 0-.885-.069q-1.114 0-1.989.467a3.53 3.53 0 0 0-1.372 1.273q-.497.806-.497 1.839V800zm-99.889 18.727v1.989h-7.915v-1.989zm-5.608-3.659h2.347v14.557q0 .995.288 1.491.299.488.756.657.467.159.984.159.388 0 .637-.04l.397-.08.478 2.108q-.24.09-.667.179-.428.1-1.083.1a4.7 4.7 0 0 1-1.949-.428 3.87 3.87 0 0 1-1.571-1.302q-.617-.875-.617-2.208zm11.813 9.744V834h-2.347v-20.364h2.347v7.478h.199a4.3 4.3 0 0 1 1.61-1.88q1.084-.706 2.884-.706 1.561 0 2.734.627 1.173.616 1.82 1.899.656 1.272.656 3.241V834h-2.347v-9.545q0-1.82-.944-2.814-.935-1.005-2.595-1.005-1.154 0-2.068.488a3.55 3.55 0 0 0-1.432 1.421q-.517.936-.517 2.267m18.69 9.546q-1.451 0-2.635-.547a4.5 4.5 0 0 1-1.879-1.601q-.696-1.053-.696-2.545 0-1.313.517-2.128.518-.825 1.382-1.293a7.3 7.3 0 0 1 1.909-.696 23 23 0 0 1 2.118-.378 99 99 0 0 1 2.257-.268q.876-.1 1.273-.328.408-.23.408-.796v-.079q0-1.472-.806-2.287-.795-.815-2.416-.815-1.68 0-2.635.735-.954.737-1.342 1.571l-2.227-.795q.596-1.392 1.591-2.168a6 6 0 0 1 2.187-1.093 9 9 0 0 1 2.347-.319q.736 0 1.69.179a5.4 5.4 0 0 1 1.859.706q.906.538 1.502 1.621.596 1.084.596 2.904V834h-2.346v-2.068h-.12q-.239.497-.795 1.064-.557.567-1.482.964-.924.398-2.257.398m.358-2.108q1.393 0 2.347-.547.965-.546 1.452-1.412a3.6 3.6 0 0 0 .497-1.819v-2.148q-.15.179-.656.328a11 11 0 0 1-1.154.249q-.646.1-1.263.179-.606.07-.984.119-.915.119-1.71.388-.786.258-1.273.785-.477.517-.477 1.412 0 1.223.905 1.85.914.616 2.316.616m13.272-7.438V834h-2.347v-15.273h2.267v2.387h.199a4.37 4.37 0 0 1 1.631-1.87q1.093-.716 2.824-.716 1.551 0 2.714.637 1.164.626 1.81 1.909.646 1.272.646 3.221V834h-2.346v-9.545q0-1.8-.935-2.804-.935-1.015-2.565-1.015-1.124 0-2.009.488a3.5 3.5 0 0 0-1.382 1.421q-.507.936-.507 2.267M563.669 834v-1.79l6.721-7.358a46 46 0 0 0 1.949-2.247q.765-.964 1.133-1.81.378-.855.378-1.789 0-1.074-.517-1.86a3.36 3.36 0 0 0-1.392-1.213q-.885-.427-1.988-.427-1.174 0-2.049.487a3.36 3.36 0 0 0-1.342 1.342q-.467.865-.467 2.029h-2.347q0-1.79.825-3.142a5.74 5.74 0 0 1 2.247-2.108q1.433-.756 3.212-.756 1.79 0 3.172.756a5.7 5.7 0 0 1 2.168 2.038q.785 1.282.785 2.854 0 1.123-.408 2.197-.398 1.064-1.392 2.377-.984 1.303-2.734 3.181l-4.574 4.892v.159h9.466V834zM704.843 800.278q-1.75 0-3.152-.696t-2.247-1.909-.925-2.764h2.386q.14 1.382 1.253 2.287 1.124.895 2.685.895 1.252 0 2.227-.587a4.14 4.14 0 0 0 1.541-1.611q.567-1.034.567-2.336 0-1.333-.587-2.377a4.3 4.3 0 0 0-1.591-1.66q-1.014-.606-2.316-.617a6.4 6.4 0 0 0-1.919.289q-.985.288-1.621.746l-2.307-.279 1.233-10.023h10.58v2.188h-8.512l-.716 6.006h.12q.626-.498 1.571-.826a6 6 0 0 1 1.968-.328q1.87 0 3.331.895a6.25 6.25 0 0 1 2.307 2.426q.845 1.542.845 3.52 0 1.948-.875 3.48a6.4 6.4 0 0 1-2.386 2.406q-1.521.875-3.46.875m18.586-.278v-15.273h2.347V800zm1.193-17.818q-.686 0-1.183-.468a1.5 1.5 0 0 1-.487-1.123q0-.657.487-1.124a1.67 1.67 0 0 1 1.183-.467q.687 0 1.173.467.498.467.498 1.124 0 .656-.498 1.123a1.63 1.63 0 0 1-1.173.468m16.27 5.966-2.108.596a4 4 0 0 0-.587-1.024q-.378-.507-1.034-.835-.657-.328-1.68-.328-1.402 0-2.337.646-.925.636-.925 1.621 0 .875.637 1.382.636.507 1.988.845l2.267.557q2.048.496 3.053 1.521 1.004 1.014 1.004 2.615 0 1.313-.756 2.347-.745 1.034-2.088 1.631-1.342.596-3.122.596-2.337 0-3.868-1.014t-1.939-2.963l2.228-.557q.318 1.233 1.203 1.85.894.616 2.336.616 1.641 0 2.606-.696.974-.706.974-1.69 0-.796-.557-1.333-.556-.546-1.71-.815l-2.546-.597q-2.098-.497-3.082-1.541-.975-1.054-.974-2.635 0-1.293.725-2.287.736-.994 1.999-1.561 1.273-.567 2.884-.567 2.267 0 3.559.995 1.303.994 1.85 2.625m14.032-8.512V800h-2.347v-20.364zm10.701 20.682q-2.207 0-3.808-.974-1.59-.984-2.456-2.745-.855-1.77-.855-4.116t.855-4.136q.866-1.8 2.406-2.804 1.551-1.015 3.62-1.015a7.2 7.2 0 0 1 2.356.398 5.8 5.8 0 0 1 2.118 1.293q.955.885 1.521 2.346.567 1.463.567 3.6v.994h-11.773v-2.028h9.387q0-1.293-.517-2.307a3.9 3.9 0 0 0-1.452-1.601q-.935-.587-2.207-.587-1.403 0-2.426.696a4.57 4.57 0 0 0-1.561 1.79 5.26 5.26 0 0 0-.547 2.367v1.352q0 1.73.596 2.933.607 1.194 1.681 1.82 1.073.616 2.495.616.925 0 1.671-.258a3.6 3.6 0 0 0 1.302-.796q.548-.537.846-1.332l2.267.636a5 5 0 0 1-1.204 2.029q-.845.864-2.088 1.352-1.242.477-2.794.477m20.712-12.17-2.108.596a4 4 0 0 0-.587-1.024q-.377-.507-1.034-.835-.655-.328-1.68-.328-1.402 0-2.337.646-.924.636-.924 1.621 0 .875.636 1.382t1.989.845l2.267.557q2.048.496 3.052 1.521 1.005 1.014 1.004 2.615 0 1.313-.755 2.347-.745 1.034-2.088 1.631-1.343.596-3.122.596-2.337 0-3.868-1.014-1.532-1.014-1.939-2.963l2.227-.557q.318 1.233 1.203 1.85.895.616 2.337.616 1.64 0 2.605-.696.974-.706.974-1.69 0-.796-.557-1.333-.557-.546-1.71-.815l-2.545-.597q-2.098-.497-3.083-1.541-.974-1.054-.974-2.635 0-1.293.726-2.287.736-.994 1.998-1.561 1.273-.567 2.884-.567 2.267 0 3.56.995 1.302.994 1.849 2.625m14.629 0-2.108.596a4 4 0 0 0-.587-1.024q-.378-.507-1.034-.835-.655-.328-1.68-.328-1.403 0-2.337.646-.925.636-.925 1.621 0 .875.637 1.382.636.507 1.988.845l2.268.557q2.048.496 3.052 1.521 1.005 1.014 1.004 2.615 0 1.313-.755 2.347-.747 1.034-2.088 1.631-1.342.596-3.123.596-2.336 0-3.867-1.014t-1.939-2.963l2.227-.557q.318 1.233 1.203 1.85.895.616 2.337.616 1.64 0 2.605-.696.974-.706.974-1.69 0-.796-.557-1.333-.556-.546-1.71-.815l-2.545-.597q-2.098-.497-3.083-1.541-.974-1.054-.974-2.635 0-1.293.726-2.287.735-.994 1.998-1.561 1.273-.567 2.884-.567 2.267 0 3.559.995 1.303.994 1.85 2.625m-84.84 30.579v1.989h-7.915v-1.989zm-5.608-3.659h2.346v14.557q0 .995.289 1.491.298.488.755.657.468.159.985.159.387 0 .636-.04l.398-.08.477 2.108q-.238.09-.666.179-.427.1-1.084.1a4.7 4.7 0 0 1-1.949-.428 3.9 3.9 0 0 1-1.571-1.302q-.616-.875-.616-2.208zm11.812 9.744V834h-2.346v-20.364h2.346v7.478h.199a4.3 4.3 0 0 1 1.611-1.88q1.084-.706 2.883-.706 1.562 0 2.735.627 1.174.616 1.819 1.899.657 1.272.657 3.241V834h-2.347v-9.545q0-1.82-.945-2.814-.935-1.005-2.595-1.005-1.153 0-2.068.488a3.56 3.56 0 0 0-1.432 1.421q-.516.936-.517 2.267m18.691 9.546q-1.452 0-2.635-.547a4.5 4.5 0 0 1-1.879-1.601q-.696-1.053-.696-2.545 0-1.313.517-2.128.516-.825 1.382-1.293a7.3 7.3 0 0 1 1.909-.696 23 23 0 0 1 2.118-.378q1.392-.178 2.257-.268.875-.1 1.273-.328.407-.23.407-.796v-.079q0-1.472-.805-2.287-.795-.815-2.416-.815-1.68 0-2.635.735-.955.737-1.343 1.571l-2.227-.795q.597-1.392 1.591-2.168a6 6 0 0 1 2.188-1.093 9 9 0 0 1 2.346-.319q.736 0 1.691.179a5.4 5.4 0 0 1 1.859.706q.905.538 1.501 1.621.597 1.084.597 2.904V834h-2.347v-2.068h-.119q-.238.497-.795 1.064t-1.482.964-2.257.398m.358-2.108q1.392 0 2.346-.547.965-.546 1.452-1.412a3.6 3.6 0 0 0 .497-1.819v-2.148q-.149.179-.656.328-.497.14-1.153.249-.647.1-1.263.179-.607.07-.984.119-.915.119-1.711.388-.785.258-1.272.785-.478.517-.478 1.412 0 1.223.905 1.85.915.616 2.317.616m13.272-7.438V834h-2.347v-15.273h2.267v2.387h.199a4.36 4.36 0 0 1 1.631-1.87q1.094-.716 2.823-.716 1.552 0 2.715.637 1.163.626 1.81 1.909.645 1.272.646 3.221V834h-2.347v-9.545q0-1.8-.934-2.804-.935-1.015-2.566-1.015-1.123 0-2.008.488a3.48 3.48 0 0 0-1.382 1.421q-.507.936-.507 2.267m28.39 9.466q-2.049 0-3.619-.725-1.561-.736-2.437-2.019-.874-1.293-.865-2.943a5.4 5.4 0 0 1 .507-2.386 5.2 5.2 0 0 1 1.412-1.84 4.34 4.34 0 0 1 2.019-.945v-.119q-1.462-.378-2.327-1.64-.865-1.273-.855-2.894-.01-1.551.786-2.774.795-1.222 2.187-1.929 1.402-.706 3.192-.706 1.77 0 3.162.706 1.392.707 2.187 1.929.805 1.223.816 2.774-.01 1.621-.885 2.894-.866 1.262-2.297 1.64v.119a4.2 4.2 0 0 1 1.988.945 5.36 5.36 0 0 1 1.412 1.84q.528 1.093.537 2.386-.01 1.65-.895 2.943-.875 1.283-2.436 2.019-1.55.725-3.589.725m0-2.187q1.382 0 2.386-.448 1.005-.447 1.551-1.262.548-.816.557-1.909-.01-1.154-.596-2.039a4.05 4.05 0 0 0-1.601-1.392q-1.005-.507-2.297-.507-1.303 0-2.327.507a4.05 4.05 0 0 0-1.601 1.392q-.576.885-.566 2.039-.01 1.093.527 1.909.546.815 1.561 1.262t2.406.448m0-9.665q1.093 0 1.939-.437.855-.438 1.342-1.223t.497-1.84q-.01-1.034-.487-1.8a3.17 3.17 0 0 0-1.322-1.193q-.846-.427-1.969-.427-1.143 0-1.999.427a3.1 3.1 0 0 0-1.322 1.193q-.467.766-.458 1.8-.009 1.054.468 1.84.487.785 1.342 1.223.855.437 1.969.437M84.88 957.727q-.18-1.51-1.452-2.346-1.274-.836-3.122-.836-1.352 0-2.367.438-1.005.438-1.57 1.203a2.9 2.9 0 0 0-.558 1.74q0 .816.388 1.402.397.577 1.014.965.617.377 1.293.626.675.238 1.243.388l2.068.557q.795.208 1.77.576.984.368 1.88 1.005.905.626 1.49 1.61.587.985.587 2.417 0 1.65-.865 2.983-.855 1.332-2.505 2.117-1.64.786-3.988.786-2.187 0-3.788-.706-1.59-.706-2.506-1.969-.904-1.262-1.024-2.933h2.546q.1 1.153.775 1.909.686.745 1.73 1.114a7 7 0 0 0 2.267.358q1.413 0 2.536-.458 1.123-.467 1.78-1.292.656-.836.656-1.949 0-1.014-.567-1.651-.567-.636-1.491-1.034a16 16 0 0 0-1.999-.696l-2.505-.716q-2.386-.686-3.779-1.959-1.392-1.272-1.392-3.331 0-1.71.925-2.983.934-1.282 2.506-1.988 1.58-.716 3.53-.716 1.968 0 3.5.706 1.53.696 2.425 1.909.906 1.213.955 2.754zM94.74 973l-4.653-15.273h2.466l3.301 11.693h.16l3.26-11.693h2.507l3.221 11.654h.159l3.301-11.654h2.466L106.275 973h-2.307l-3.341-11.733h-.239L97.048 973zm23.785.358q-1.452 0-2.635-.547a4.5 4.5 0 0 1-1.879-1.601q-.696-1.053-.696-2.545 0-1.313.517-2.128.516-.825 1.382-1.293a7.3 7.3 0 0 1 1.909-.696 23 23 0 0 1 2.118-.378q1.392-.178 2.257-.268.874-.1 1.273-.328.407-.23.407-.796v-.079q0-1.472-.805-2.287-.796-.815-2.416-.815-1.681 0-2.635.735-.955.737-1.343 1.571l-2.227-.795q.597-1.392 1.591-2.168a6 6 0 0 1 2.188-1.093 9 9 0 0 1 2.346-.319q.736 0 1.69.179a5.4 5.4 0 0 1 1.86.706q.905.538 1.501 1.621.597 1.084.597 2.904V973h-2.347v-2.068h-.119q-.238.497-.796 1.064-.557.567-1.481.964-.925.398-2.257.398m.358-2.108q1.392 0 2.346-.547.965-.546 1.452-1.412a3.6 3.6 0 0 0 .497-1.819v-2.148q-.149.179-.656.328-.497.14-1.153.249-.647.1-1.263.179-.607.07-.985.119a9 9 0 0 0-1.71.388q-.785.258-1.273.785-.477.517-.477 1.412 0 1.223.905 1.85.915.616 2.317.616m10.925 7.477v-21h2.267v2.426h.278q.259-.398.716-1.014.468-.626 1.333-1.113.875-.498 2.366-.498 1.93 0 3.401.965 1.471.964 2.297 2.734.825 1.77.825 4.176 0 2.427-.825 4.206-.826 1.77-2.287 2.745-1.462.964-3.371.964-1.472 0-2.357-.487-.885-.497-1.362-1.124a15 15 0 0 1-.736-1.054h-.199v8.074zm2.307-13.363q0 1.73.507 3.052.507 1.313 1.481 2.058.974.736 2.387.736 1.471 0 2.456-.775.994-.786 1.491-2.108.507-1.333.507-2.963 0-1.611-.497-2.904-.488-1.302-1.481-2.058-.985-.765-2.476-.766-1.432 0-2.407.726-.974.716-1.471 2.009-.498 1.282-.497 2.993M296.88 957.727q-.18-1.51-1.452-2.346t-3.122-.836q-1.353 0-2.367.438-1.004.438-1.571 1.203a2.9 2.9 0 0 0-.557 1.74q0 .816.388 1.402.397.577 1.014.965.616.377 1.293.626.676.238 1.243.388l2.068.557q.795.208 1.77.576.985.368 1.879 1.005a5.1 5.1 0 0 1 1.492 1.61q.586.985.586 2.417 0 1.65-.865 2.983-.855 1.332-2.505 2.117-1.64.786-3.988.786-2.187 0-3.788-.706-1.591-.706-2.506-1.969-.904-1.262-1.024-2.933h2.546q.1 1.153.775 1.909.687.745 1.73 1.114a7 7 0 0 0 2.267.358q1.413 0 2.536-.458 1.123-.467 1.78-1.292.656-.836.656-1.949 0-1.014-.567-1.651-.567-.636-1.491-1.034a16 16 0 0 0-1.999-.696l-2.505-.716q-2.387-.686-3.779-1.959-1.392-1.272-1.392-3.331 0-1.71.925-2.983.935-1.282 2.505-1.988 1.581-.716 3.53-.716 1.969 0 3.5.706 1.532.696 2.426 1.909a4.75 4.75 0 0 1 .955 2.754zM306.741 973l-4.654-15.273h2.466l3.301 11.693h.159l3.262-11.693h2.506l3.221 11.654h.159l3.301-11.654h2.466L318.275 973h-2.307l-3.341-11.733h-.239L309.048 973zm23.784.358q-1.452 0-2.635-.547a4.5 4.5 0 0 1-1.879-1.601q-.696-1.053-.696-2.545 0-1.313.517-2.128.516-.825 1.382-1.293a7.3 7.3 0 0 1 1.909-.696 23 23 0 0 1 2.118-.378q1.392-.178 2.257-.268.874-.1 1.273-.328.407-.23.407-.796v-.079q0-1.472-.805-2.287-.796-.815-2.416-.815-1.681 0-2.635.735-.955.737-1.343 1.571l-2.227-.795q.597-1.392 1.591-2.168a6 6 0 0 1 2.188-1.093 9 9 0 0 1 2.346-.319q.736 0 1.69.179a5.4 5.4 0 0 1 1.86.706q.905.538 1.501 1.621.597 1.084.597 2.904V973h-2.347v-2.068h-.119q-.238.497-.796 1.064-.557.567-1.481.964-.925.398-2.257.398m.358-2.108q1.392 0 2.346-.547.964-.546 1.452-1.412a3.6 3.6 0 0 0 .497-1.819v-2.148q-.149.179-.656.328-.497.14-1.153.249-.646.1-1.263.179-.607.07-.985.119a9 9 0 0 0-1.71.388q-.785.258-1.273.785-.477.517-.477 1.412 0 1.223.905 1.85.915.616 2.317.616m10.925 7.477v-21h2.267v2.426h.278q.259-.398.716-1.014.468-.626 1.333-1.113.875-.498 2.366-.498 1.93 0 3.401.965 1.471.964 2.297 2.734.825 1.77.825 4.176 0 2.427-.825 4.206-.826 1.77-2.287 2.745-1.462.964-3.371.964-1.472 0-2.357-.487-.885-.497-1.362-1.124a15 15 0 0 1-.736-1.054h-.199v8.074zm2.307-13.363q0 1.73.507 3.052.507 1.313 1.481 2.058.974.736 2.387.736 1.471 0 2.456-.775.995-.786 1.491-2.108.507-1.333.507-2.963 0-1.611-.497-2.904-.488-1.302-1.481-2.058-.985-.765-2.476-.766-1.432 0-2.407.726-.974.716-1.471 2.009-.498 1.282-.497 2.993M509.88 957.727q-.18-1.51-1.452-2.346t-3.122-.836q-1.353 0-2.367.438-1.004.438-1.571 1.203a2.9 2.9 0 0 0-.557 1.74q0 .816.388 1.402.397.577 1.014.965.616.377 1.293.626.676.238 1.243.388l2.068.557q.795.208 1.77.576.985.368 1.879 1.005a5.1 5.1 0 0 1 1.492 1.61q.586.985.586 2.417 0 1.65-.865 2.983-.855 1.332-2.505 2.117-1.64.786-3.988.786-2.187 0-3.788-.706-1.591-.706-2.506-1.969-.904-1.262-1.024-2.933h2.546q.1 1.153.775 1.909.687.745 1.73 1.114a7 7 0 0 0 2.267.358q1.413 0 2.536-.458 1.123-.467 1.78-1.292.656-.836.656-1.949 0-1.014-.567-1.651-.567-.636-1.491-1.034a16 16 0 0 0-1.999-.696l-2.505-.716q-2.387-.686-3.779-1.959-1.392-1.272-1.392-3.331 0-1.71.925-2.983.935-1.282 2.505-1.988 1.581-.716 3.53-.716 1.969 0 3.5.706 1.532.696 2.426 1.909a4.75 4.75 0 0 1 .955 2.754zM519.741 973l-4.654-15.273h2.466l3.301 11.693h.159l3.262-11.693h2.506l3.221 11.654h.159l3.301-11.654h2.466L531.275 973h-2.307l-3.341-11.733h-.239L522.048 973zm23.784.358q-1.452 0-2.635-.547a4.5 4.5 0 0 1-1.879-1.601q-.696-1.053-.696-2.545 0-1.313.517-2.128.516-.825 1.382-1.293a7.3 7.3 0 0 1 1.909-.696 23 23 0 0 1 2.118-.378q1.392-.178 2.257-.268.874-.1 1.273-.328.407-.23.407-.796v-.079q0-1.472-.805-2.287-.795-.815-2.416-.815-1.681 0-2.635.735-.955.737-1.343 1.571l-2.227-.795q.597-1.392 1.591-2.168a6 6 0 0 1 2.188-1.093 9 9 0 0 1 2.346-.319q.736 0 1.69.179a5.4 5.4 0 0 1 1.86.706q.905.538 1.501 1.621.597 1.084.597 2.904V973h-2.347v-2.068h-.119q-.238.497-.796 1.064-.557.567-1.481.964-.925.398-2.257.398m.358-2.108q1.392 0 2.346-.547.965-.546 1.452-1.412a3.6 3.6 0 0 0 .497-1.819v-2.148q-.149.179-.656.328-.497.14-1.153.249-.647.1-1.263.179-.607.07-.985.119a9 9 0 0 0-1.71.388q-.785.258-1.273.785-.477.517-.477 1.412 0 1.223.905 1.85.915.616 2.317.616m10.925 7.477v-21h2.267v2.426h.278q.259-.398.716-1.014.468-.626 1.333-1.113.875-.498 2.366-.498 1.93 0 3.401.965 1.471.964 2.297 2.734.825 1.77.825 4.176 0 2.427-.825 4.206-.826 1.77-2.287 2.745-1.462.964-3.371.964-1.472 0-2.357-.487-.885-.497-1.362-1.124a15 15 0 0 1-.736-1.054h-.199v8.074zm2.307-13.363q0 1.73.507 3.052.507 1.313 1.481 2.058.975.736 2.387.736 1.471 0 2.456-.775.995-.786 1.491-2.108.507-1.333.507-2.963 0-1.611-.497-2.904-.488-1.302-1.481-2.058-.985-.765-2.476-.766-1.432 0-2.407.726-.974.716-1.471 2.009-.497 1.282-.497 2.993M705.059 952.636V973h-2.386l-11.097-15.989h-.199V973h-2.466v-20.364h2.387l11.136 16.029h.199v-16.029zm10.821 20.682q-2.069 0-3.63-.984-1.55-.985-2.426-2.754-.865-1.77-.865-4.137 0-2.386.865-4.166.875-1.78 2.426-2.764 1.561-.984 3.63-.985 2.067 0 3.619.985 1.561.984 2.426 2.764.875 1.78.875 4.166 0 2.367-.875 4.137-.865 1.77-2.426 2.754-1.552.984-3.619.984m0-2.108q1.57 0 2.585-.805t1.501-2.118a8.1 8.1 0 0 0 .487-2.844 8.2 8.2 0 0 0-.487-2.854q-.487-1.322-1.501-2.137-1.014-.816-2.585-.816t-2.586.816-1.501 2.137a8.2 8.2 0 0 0-.487 2.854q0 1.531.487 2.844t1.501 2.118 2.586.805m29.832-13.483q-.18-1.51-1.452-2.346t-3.122-.836q-1.353 0-2.367.438-1.004.438-1.571 1.203a2.9 2.9 0 0 0-.557 1.74q0 .816.388 1.402.397.577 1.014.965.616.377 1.293.626.676.238 1.243.388l2.068.557q.795.208 1.77.576.984.368 1.879 1.005a5.1 5.1 0 0 1 1.492 1.61q.586.985.586 2.417 0 1.65-.865 2.983-.855 1.332-2.505 2.117-1.64.786-3.988.786-2.187 0-3.788-.706-1.59-.706-2.506-1.969-.904-1.262-1.024-2.933h2.546q.1 1.153.775 1.909.687.745 1.73 1.114a7 7 0 0 0 2.267.358q1.413 0 2.536-.458 1.123-.467 1.78-1.292.656-.836.656-1.949 0-1.014-.567-1.651-.567-.636-1.491-1.034a16 16 0 0 0-1.999-.696l-2.505-.716q-2.387-.686-3.779-1.959-1.392-1.272-1.392-3.331 0-1.71.925-2.983.934-1.282 2.506-1.988 1.58-.716 3.529-.716 1.969 0 3.5.706 1.532.696 2.426 1.909a4.75 4.75 0 0 1 .955 2.754zM755.573 973l-4.654-15.273h2.466l3.301 11.693h.16l3.261-11.693h2.506l3.221 11.654h.159l3.301-11.654h2.466L767.107 973H764.8l-3.341-11.733h-.238L757.88 973zm23.784.358q-1.452 0-2.635-.547a4.5 4.5 0 0 1-1.879-1.601q-.696-1.053-.696-2.545 0-1.313.517-2.128.516-.825 1.382-1.293a7.3 7.3 0 0 1 1.909-.696 23 23 0 0 1 2.118-.378q1.392-.178 2.257-.268.874-.1 1.273-.328.407-.23.407-.796v-.079q0-1.472-.805-2.287-.796-.815-2.416-.815-1.681 0-2.635.735-.955.737-1.343 1.571l-2.227-.795q.597-1.392 1.591-2.168a6 6 0 0 1 2.188-1.093 9 9 0 0 1 2.346-.319q.736 0 1.691.179a5.4 5.4 0 0 1 1.859.706q.905.538 1.501 1.621.597 1.084.597 2.904V973h-2.347v-2.068h-.119q-.239.497-.795 1.064-.558.567-1.482.964-.924.398-2.257.398m.358-2.108q1.392 0 2.346-.547.964-.546 1.452-1.412a3.6 3.6 0 0 0 .497-1.819v-2.148q-.149.179-.656.328-.497.14-1.153.249-.647.1-1.263.179-.607.07-.985.119a9 9 0 0 0-1.71.388q-.785.258-1.272.785-.478.517-.478 1.412 0 1.223.905 1.85.915.616 2.317.616m10.925 7.477v-21h2.267v2.426h.278q.259-.398.716-1.014.468-.626 1.333-1.113.875-.498 2.366-.498 1.93 0 3.401.965 1.471.964 2.297 2.734.825 1.77.825 4.176 0 2.427-.825 4.206-.826 1.77-2.287 2.745-1.462.964-3.371.964-1.472 0-2.357-.487-.885-.497-1.362-1.124a15 15 0 0 1-.736-1.054h-.198v8.074zm2.307-13.363q0 1.73.507 3.052.507 1.313 1.481 2.058.975.736 2.387.736 1.471 0 2.456-.775.995-.786 1.491-2.108.507-1.333.507-2.963 0-1.611-.497-2.904-.488-1.302-1.481-2.058-.985-.765-2.476-.766-1.432 0-2.407.726-.974.716-1.471 2.009-.498 1.282-.497 2.993M441.442 638.909V668h-3.523v-25.398h-.17l-7.103 4.716v-3.579l7.273-4.83zM654.442 638.909V668h-3.523v-25.398h-.17l-7.103 4.716v-3.579l7.273-4.83zM867.442 638.909V668h-3.523v-25.398h-.17l-7.103 4.716v-3.579l7.273-4.83zM1080.44 638.909V668h-3.52v-25.398h-.17l-7.1 4.716v-3.579l7.27-4.83zM15.91 476.612H45v5.312l-18.31 12.657v.213H45v6.15H15.91v-5.397l18.295-12.557v-.256H15.909zm19.8-18.96H23.182v-6.051H45v5.81h-3.963v.227a6.45 6.45 0 0 1 3.082 2.458q1.165 1.704 1.165 4.161 0 2.188-.994 3.85t-2.827 2.599q-1.832.923-4.39.938H23.183v-6.051h12.812q1.932-.015 3.054-1.037t1.122-2.742a4.35 4.35 0 0 0-.497-2.045q-.511-.952-1.505-1.534-.994-.597-2.458-.583M45 446.761H23.182v-5.767h3.85v-.256q-1.92-.682-3.026-2.272-1.108-1.591-1.108-3.807 0-2.244 1.122-3.821 1.108-1.576 3.011-2.103v-.227q-1.875-.668-2.997-2.415-1.136-1.76-1.136-4.162 0-3.054 1.946-4.957 1.932-1.918 5.483-1.918H45v6.037H31.52q-1.818 0-2.727.966-.91.966-.91 2.415 0 1.649 1.052 2.571 1.036.923 2.741.923H45v5.867H31.392q-1.605 0-2.557.923-.951.909-.951 2.401 0 1.008.51 1.818.498.795 1.407 1.264.896.47 2.102.469H45zm0-36.598H15.91v-6.051h10.937v-.185q-.882-.397-1.79-1.15-.924-.768-1.534-1.989-.625-1.236-.625-3.068 0-2.387 1.25-4.404 1.236-2.016 3.736-3.224 2.485-1.207 6.235-1.207 3.651 0 6.165 1.179 2.5 1.164 3.793 3.181 1.278 2.004 1.278 4.489 0 1.761-.582 2.997-.583 1.222-1.463 2.003-.895.782-1.804 1.193v.27H45zm-10.91-5.923q1.947 0 3.396-.54 1.45-.54 2.258-1.563.795-1.022.796-2.485 0-1.478-.81-2.5-.825-1.023-2.273-1.549-1.462-.54-3.366-.539-1.89 0-3.324.525-1.434.526-2.244 1.548t-.81 2.515q0 1.476.781 2.5.782 1.008 2.216 1.548 1.436.54 3.38.54m11.336-29.336q0 3.366-1.364 5.795-1.377 2.415-3.892 3.722-2.527 1.307-5.98 1.307-3.366 0-5.909-1.307t-3.963-3.679q-1.42-2.387-1.42-5.597 0-2.159.696-4.02a8.9 8.9 0 0 1 2.06-3.267q1.377-1.406 3.465-2.187 2.074-.781 4.858-.781h1.662v18.423h-3.75v-12.727q-1.307 0-2.315.568a4.07 4.07 0 0 0-1.577 1.576q-.582.995-.582 2.316 0 1.377.639 2.443.625 1.051 1.69 1.648 1.051.596 2.344.611h3.565q1.62 0 2.799-.597a4.36 4.36 0 0 0 1.818-1.719q.64-1.107.64-2.628 0-1.009-.285-1.846a3.8 3.8 0 0 0-.852-1.435 3.7 3.7 0 0 0-1.392-.909l.369-5.597a7.64 7.64 0 0 1 3.523 1.748q1.49 1.307 2.33 3.38.823 2.06.823 4.759M45 360.941H23.182v-5.867h3.807v-.227q-2.032-.597-3.068-2.003-1.052-1.406-1.052-3.239 0-.454.057-.98.057-.525.156-.923h5.37a8 8 0 0 0-.228 1.179q-.099.753-.099 1.378 0 1.335.582 2.386.57 1.038 1.591 1.648 1.023.597 2.358.597H45zM29.403 326.42l.341 5.54q-.71.142-1.278.611a3.24 3.24 0 0 0-.923 1.235q-.355.753-.355 1.804 0 1.407.596 2.373.583.966 1.563.966.78 0 1.32-.625t.867-2.145l.796-3.949q.653-3.182 2.102-4.745 1.449-1.562 3.807-1.562 2.145 0 3.764 1.264 1.62 1.25 2.528 3.438.895 2.173.895 5.014 0 4.332-1.804 6.903-1.818 2.558-4.943 2.997l-.312-5.951q1.32-.27 2.017-1.307.681-1.037.681-2.656 0-1.591-.61-2.557-.625-.98-1.606-.994-.824.013-1.349.696-.54.681-.824 2.102l-.753 3.778q-.64 3.196-2.216 4.759-1.575 1.548-4.02 1.548-2.101 0-3.622-1.136-1.52-1.15-2.343-3.225-.825-2.088-.824-4.886 0-4.133 1.747-6.506 1.747-2.387 4.758-2.784M557.845 45V15.91h19.261v5.07h-13.111v6.932h11.833v5.071h-11.833V45zm23.285 0V23.182h6.051V45zm3.039-24.63q-1.349 0-2.315-.896-.952-.909-.952-2.173 0-1.25.952-2.145.966-.909 2.315-.909 1.35 0 2.302.91.965.894.965 2.144 0 1.264-.965 2.173-.952.895-2.302.895M592.028 45V23.182h5.867v3.807h.227q.597-2.032 2.003-3.068 1.406-1.052 3.238-1.052.455 0 .98.057.527.057.924.156v5.37a8 8 0 0 0-1.179-.228q-.753-.099-1.378-.099-1.336 0-2.386.582a4.3 4.3 0 0 0-1.648 1.591q-.597 1.023-.597 2.358V45zm34.521-15.597-5.54.341a2.86 2.86 0 0 0-.611-1.278 3.24 3.24 0 0 0-1.236-.923q-.753-.355-1.804-.355-1.406 0-2.372.596-.966.583-.966 1.563 0 .78.625 1.32t2.145.867l3.949.796q3.182.653 4.744 2.102 1.563 1.449 1.563 3.807 0 2.145-1.264 3.764-1.251 1.62-3.438 2.528-2.173.895-5.014.895-4.332 0-6.904-1.804-2.556-1.818-2.997-4.943l5.952-.312q.27 1.32 1.307 2.017 1.037.681 2.656.681 1.591 0 2.557-.61.98-.625.994-1.606-.014-.824-.696-1.349-.681-.54-2.102-.824l-3.778-.753q-3.196-.64-4.759-2.216-1.548-1.575-1.548-4.02 0-2.101 1.136-3.622 1.15-1.52 3.225-2.343 2.088-.825 4.886-.824 4.134 0 6.506 1.747 2.385 1.747 2.784 4.758m15.912-6.221v4.545h-13.139v-4.545zm-10.156-5.227h6.051v20.34q0 .84.256 1.307.255.454.71.64.469.184 1.08.184.426 0 .852-.07.426-.086.653-.129l.952 4.503q-.455.143-1.278.327-.824.198-2.003.241-2.188.086-3.835-.582-1.634-.667-2.543-2.074t-.895-3.551zM655.775 45V15.91h11.477q3.31 0 5.639 1.263 2.33 1.251 3.551 3.48 1.236 2.217 1.236 5.114 0 2.898-1.25 5.114t-3.622 3.451q-2.358 1.236-5.71 1.236h-7.316V30.64h6.321q1.776 0 2.926-.61 1.166-.625 1.733-1.72.583-1.107.583-2.542 0-1.45-.583-2.528-.567-1.095-1.733-1.69-1.164-.611-2.954-.611h-4.148V45zm31.42.412q-2.088 0-3.722-.724-1.633-.739-2.585-2.174-.937-1.449-.937-3.608 0-1.818.667-3.054a5.4 5.4 0 0 1 1.818-1.988 8.8 8.8 0 0 1 2.614-1.137 20 20 0 0 1 3.097-.54 79 79 0 0 0 3.068-.369q1.164-.184 1.69-.54.526-.355.526-1.05v-.086q0-1.35-.853-2.088-.838-.739-2.386-.739-1.633 0-2.599.725-.966.71-1.279 1.79l-5.596-.455q.425-1.99 1.676-3.437 1.25-1.464 3.224-2.245 1.989-.795 4.603-.795 1.818 0 3.48.426 1.676.426 2.968 1.32a6.4 6.4 0 0 1 2.06 2.302q.753 1.392.753 3.338V45h-5.739v-3.026h-.17a6.2 6.2 0 0 1-1.406 1.804q-.881.767-2.117 1.208-1.236.426-2.855.426m1.733-4.176q1.335 0 2.358-.526a4.2 4.2 0 0 0 1.605-1.449q.582-.909.582-2.06v-2.315a3.2 3.2 0 0 1-.781.341q-.482.142-1.094.27a55 55 0 0 1-1.221.213l-1.108.157q-1.066.156-1.861.497t-1.236.923q-.44.568-.44 1.42 0 1.236.895 1.89.909.639 2.301.639m33.402-11.833-5.54.341a2.86 2.86 0 0 0-.611-1.278 3.24 3.24 0 0 0-1.235-.923q-.754-.355-1.804-.355-1.407 0-2.373.596-.966.583-.966 1.563 0 .78.625 1.32.626.54 2.145.867l3.949.796q3.182.653 4.745 2.102 1.562 1.449 1.562 3.807 0 2.145-1.264 3.764-1.25 1.62-3.438 2.528-2.173.895-5.014.895-4.332 0-6.903-1.804-2.558-1.818-2.997-4.943l5.951-.312q.27 1.32 1.307 2.017 1.037.681 2.656.681 1.591 0 2.557-.61.98-.625.994-1.606-.013-.824-.696-1.349-.681-.54-2.102-.824l-3.778-.753q-3.196-.64-4.759-2.216-1.548-1.575-1.548-4.02 0-2.101 1.136-3.622 1.15-1.52 3.225-2.343 2.088-.825 4.886-.824 4.134 0 6.506 1.747 2.387 1.747 2.784 4.758m22.461 0-5.54.341a2.86 2.86 0 0 0-.611-1.278 3.24 3.24 0 0 0-1.236-.923q-.752-.355-1.804-.355-1.406 0-2.372.596-.966.583-.966 1.563 0 .78.625 1.32t2.145.867l3.949.796q3.182.653 4.744 2.102 1.563 1.449 1.563 3.807 0 2.145-1.264 3.764-1.25 1.62-3.438 2.528-2.173.895-5.014.895-4.332 0-6.903-1.804-2.558-1.818-2.997-4.943l5.951-.312q.27 1.32 1.307 2.017 1.037.681 2.656.681 1.591 0 2.557-.61.98-.625.994-1.606-.013-.824-.696-1.349-.681-.54-2.102-.824l-3.778-.753q-3.196-.64-4.759-2.216-1.548-1.575-1.548-4.02 0-2.101 1.136-3.622 1.15-1.52 3.225-2.343 2.088-.825 4.886-.824 4.133 0 6.506 1.747 2.386 1.747 2.784 4.758M229.442 516.909V546h-3.523v-25.398h-.17l-7.103 4.716v-3.579l7.273-4.83zM436.434 546.398q-2.499 0-4.503-.995-2.002-.994-3.21-2.727-1.207-1.732-1.321-3.949h3.409q.199 1.976 1.79 3.267 1.606 1.28 3.835 1.279 1.79 0 3.182-.838a5.9 5.9 0 0 0 2.202-2.301q.81-1.477.809-3.339 0-1.903-.838-3.394a6.15 6.15 0 0 0-2.272-2.373q-1.449-.866-3.31-.88a9 9 0 0 0-2.741.412q-1.407.411-2.316 1.065l-3.295-.398 1.761-14.318h15.114v3.125h-12.159l-1.023 8.58h.17q.895-.711 2.245-1.179a8.5 8.5 0 0 1 2.812-.469q2.671 0 4.759 1.278a8.93 8.93 0 0 1 3.295 3.466q1.208 2.202 1.208 5.029 0 2.784-1.25 4.971a9.14 9.14 0 0 1-3.41 3.438q-2.172 1.25-4.943 1.25M638.998 540.034v-2.898l12.784-20.227h2.102v4.489h-1.421l-9.659 15.284v.227h17.216v3.125zM652.691 546v-29.091h3.352V546zM851.998 540.034v-2.898l12.784-20.227h2.102v4.489h-1.421l-9.659 15.284v.227h17.216v3.125zM865.691 546v-29.091h3.352V546zM1065 540.034v-2.898l12.78-20.227h2.1v4.489h-1.42l-9.66 15.284v.227h17.22v3.125zm13.69 5.966v-29.091h3.35V546zM214.998 420.034v-2.898l12.784-20.227h2.102v4.489h-1.421l-9.659 15.284v.227h17.216v3.125zM228.691 426v-29.091h3.352V426zM425.998 420.034v-2.898l12.784-20.227h2.102v4.489h-1.421l-9.659 15.284v.227h17.216v3.125zM439.691 426v-29.091h3.352V426zM649.434 426.398q-2.499 0-4.503-.995-2.003-.994-3.21-2.727t-1.321-3.949h3.409q.199 1.976 1.79 3.267 1.606 1.28 3.835 1.279 1.79 0 3.182-.838a5.9 5.9 0 0 0 2.202-2.301q.81-1.478.809-3.339 0-1.902-.838-3.394a6.15 6.15 0 0 0-2.272-2.373q-1.449-.866-3.31-.88a9 9 0 0 0-2.741.412q-1.407.411-2.316 1.065l-3.295-.398 1.761-14.318h15.114v3.125h-12.159l-1.023 8.58h.17q.895-.711 2.245-1.179a8.5 8.5 0 0 1 2.812-.469q2.671 0 4.759 1.278a8.93 8.93 0 0 1 3.295 3.466q1.208 2.202 1.208 5.029 0 2.784-1.25 4.971a9.14 9.14 0 0 1-3.41 3.438q-2.172 1.25-4.943 1.25M853.402 426v-2.557l9.602-10.511a67 67 0 0 0 2.784-3.21q1.094-1.378 1.62-2.586a6.25 6.25 0 0 0 .539-2.556q0-1.535-.738-2.657-.724-1.121-1.989-1.733-1.264-.61-2.841-.61-1.676 0-2.926.696a4.8 4.8 0 0 0-1.917 1.917q-.669 1.236-.668 2.898h-3.352q0-2.557 1.179-4.489a8.2 8.2 0 0 1 3.21-3.011q2.045-1.08 4.588-1.08 2.557 0 4.531 1.08 1.975 1.08 3.097 2.912t1.122 4.077q0 1.605-.582 3.139-.569 1.52-1.989 3.395-1.407 1.86-3.906 4.545l-6.534 6.989v.227h13.522V426zM1066.4 426v-2.557l9.6-10.511a66 66 0 0 0 2.79-3.21q1.095-1.378 1.62-2.586.54-1.221.54-2.556c0-1.023-.25-1.909-.74-2.657-.48-.748-1.15-1.325-1.99-1.733-.84-.407-1.79-.61-2.84-.61-1.12 0-2.09.232-2.93.696a4.76 4.76 0 0 0-1.91 1.917c-.45.824-.67 1.79-.67 2.898h-3.35q0-2.557 1.17-4.489a8.25 8.25 0 0 1 3.21-3.011q2.055-1.08 4.59-1.08 2.565 0 4.53 1.08c1.32.72 2.35 1.69 3.1 2.912s1.12 2.58 1.12 4.077c0 1.07-.19 2.116-.58 3.139-.38 1.013-1.04 2.145-1.99 3.395q-1.41 1.86-3.9 4.545l-6.54 6.989v.227h13.52V426zM216.402 306v-2.557l9.602-10.511a67 67 0 0 0 2.784-3.21q1.094-1.379 1.62-2.586a6.25 6.25 0 0 0 .539-2.556q0-1.535-.738-2.657-.724-1.121-1.989-1.733-1.264-.61-2.841-.61-1.676 0-2.926.696a4.8 4.8 0 0 0-1.917 1.917q-.668 1.236-.668 2.898h-3.352q0-2.557 1.179-4.489a8.2 8.2 0 0 1 3.21-3.011q2.045-1.08 4.588-1.08 2.557 0 4.531 1.08t3.097 2.912 1.122 4.077q0 1.605-.582 3.139-.569 1.52-1.989 3.395-1.407 1.86-3.906 4.545l-6.534 6.989v.227h13.522V306zM427.402 306v-2.557l9.602-10.511a67 67 0 0 0 2.784-3.21q1.094-1.379 1.62-2.586a6.25 6.25 0 0 0 .539-2.556q0-1.535-.738-2.657-.725-1.121-1.989-1.733-1.264-.61-2.841-.61-1.676 0-2.926.696a4.8 4.8 0 0 0-1.917 1.917q-.668 1.236-.668 2.898h-3.352q0-2.557 1.179-4.489a8.2 8.2 0 0 1 3.21-3.011q2.045-1.08 4.588-1.08 2.556 0 4.531 1.08t3.097 2.912 1.122 4.077q0 1.605-.582 3.139-.569 1.52-1.989 3.395-1.407 1.86-3.906 4.545l-6.534 6.989v.227h13.522V306zM640.402 306v-2.557l9.602-10.511a67 67 0 0 0 2.784-3.21q1.094-1.379 1.62-2.586a6.25 6.25 0 0 0 .539-2.556q0-1.535-.738-2.657-.724-1.121-1.989-1.733-1.264-.61-2.841-.61-1.676 0-2.926.696a4.8 4.8 0 0 0-1.917 1.917q-.668 1.236-.668 2.898h-3.352q0-2.557 1.179-4.489a8.2 8.2 0 0 1 3.21-3.011q2.045-1.08 4.588-1.08 2.557 0 4.531 1.08 1.975 1.08 3.097 2.912t1.122 4.077q0 1.605-.582 3.139-.568 1.52-1.989 3.395-1.407 1.86-3.906 4.545l-6.534 6.989v.227h13.522V306zM862.434 306.398q-2.499 0-4.503-.995-2.002-.994-3.21-2.727-1.207-1.732-1.321-3.949h3.409q.199 1.976 1.79 3.267 1.606 1.28 3.835 1.279 1.79 0 3.182-.838a5.9 5.9 0 0 0 2.202-2.301q.81-1.478.809-3.339 0-1.902-.838-3.394a6.15 6.15 0 0 0-2.272-2.373q-1.449-.866-3.31-.88a9 9 0 0 0-2.741.412q-1.407.411-2.316 1.065l-3.295-.398 1.761-14.318h15.114v3.125h-12.159l-1.023 8.58h.17q.895-.711 2.245-1.179a8.5 8.5 0 0 1 2.812-.469q2.671 0 4.759 1.278a8.93 8.93 0 0 1 3.295 3.466q1.208 2.202 1.208 5.029 0 2.784-1.25 4.971a9.14 9.14 0 0 1-3.41 3.438q-2.172 1.25-4.943 1.25M1075.43 306.398q-2.49 0-4.5-.995-1.995-.994-3.21-2.727-1.2-1.732-1.32-3.949h3.41c.13 1.317.73 2.406 1.79 3.267 1.07.853 2.35 1.279 3.83 1.279 1.2 0 2.26-.28 3.19-.838a5.97 5.97 0 0 0 2.2-2.301q.81-1.478.81-3.339 0-1.902-.84-3.394a6.2 6.2 0 0 0-2.27-2.373c-.97-.577-2.07-.871-3.31-.88-.89-.01-1.81.128-2.74.412-.94.274-1.71.629-2.32 1.065l-3.3-.398 1.77-14.318h15.11v3.125h-12.16l-1.02 8.58h.17c.59-.474 1.34-.867 2.24-1.179q1.35-.47 2.82-.469c1.78 0 3.36.426 4.75 1.278 1.41.843 2.5 1.998 3.3 3.466s1.21 3.144 1.21 5.029c0 1.856-.42 3.513-1.25 4.971a9.2 9.2 0 0 1-3.41 3.438q-2.175 1.25-4.95 1.25M225.505 188.398q-2.926 0-5.17-1.037-2.23-1.051-3.48-2.884-1.251-1.846-1.236-4.204-.014-1.847.724-3.409a7.4 7.4 0 0 1 2.017-2.628 6.2 6.2 0 0 1 2.884-1.35v-.17q-2.088-.54-3.324-2.344-1.236-1.818-1.221-4.133-.015-2.217 1.122-3.963 1.136-1.748 3.125-2.756 2.003-1.008 4.559-1.009 2.53 0 4.517 1.009 1.99 1.008 3.125 2.756 1.151 1.746 1.165 3.963-.014 2.315-1.264 4.133-1.236 1.804-3.281 2.344v.17q1.576.285 2.841 1.35a7.66 7.66 0 0 1 2.017 2.628q.752 1.562.767 3.409-.015 2.358-1.279 4.204-1.25 1.833-3.48 2.884-2.215 1.037-5.128 1.037m0-3.125q1.975 0 3.409-.639 1.435-.64 2.216-1.804t.796-2.728q-.015-1.647-.852-2.912-.839-1.263-2.287-1.988-1.435-.725-3.282-.725-1.86 0-3.324.725-1.448.725-2.286 1.988-.825 1.265-.81 2.912-.015 1.563.753 2.728.781 1.164 2.23 1.804 1.45.639 3.437.639m0-13.807q1.563 0 2.77-.625a4.75 4.75 0 0 0 1.918-1.747q.696-1.122.71-2.628-.014-1.478-.696-2.571a4.5 4.5 0 0 0-1.889-1.705q-1.208-.61-2.813-.61-1.633 0-2.855.61-1.221.597-1.889 1.705-.668 1.094-.653 2.571-.014 1.506.667 2.628a4.75 4.75 0 0 0 1.918 1.747q1.221.625 2.812.625M436.505 188.398q-2.926 0-5.17-1.037-2.23-1.051-3.48-2.884-1.251-1.846-1.236-4.204-.014-1.847.724-3.409a7.4 7.4 0 0 1 2.017-2.628 6.2 6.2 0 0 1 2.884-1.35v-.17q-2.088-.54-3.324-2.344-1.236-1.818-1.221-4.133-.015-2.217 1.122-3.963 1.136-1.748 3.125-2.756 2.003-1.008 4.559-1.009 2.53 0 4.517 1.009 1.99 1.008 3.125 2.756 1.151 1.746 1.165 3.963-.014 2.315-1.264 4.133-1.236 1.804-3.281 2.344v.17q1.577.285 2.841 1.35a7.66 7.66 0 0 1 2.017 2.628q.752 1.562.767 3.409-.015 2.358-1.279 4.204-1.25 1.833-3.48 2.884-2.215 1.037-5.128 1.037m0-3.125q1.975 0 3.409-.639 1.435-.64 2.216-1.804t.796-2.728q-.015-1.647-.852-2.912-.839-1.263-2.287-1.988-1.435-.725-3.282-.725-1.86 0-3.324.725-1.448.725-2.286 1.988-.825 1.265-.81 2.912-.015 1.563.753 2.728.781 1.164 2.23 1.804 1.45.639 3.437.639m0-13.807q1.563 0 2.77-.625a4.75 4.75 0 0 0 1.918-1.747q.696-1.122.71-2.628-.014-1.478-.696-2.571a4.5 4.5 0 0 0-1.889-1.705q-1.208-.61-2.813-.61-1.633 0-2.855.61-1.221.597-1.889 1.705-.668 1.094-.653 2.571-.014 1.506.667 2.628a4.75 4.75 0 0 0 1.918 1.747q1.221.625 2.812.625M649.505 188.398q-2.926 0-5.17-1.037-2.23-1.051-3.48-2.884-1.251-1.846-1.236-4.204-.015-1.847.724-3.409a7.4 7.4 0 0 1 2.017-2.628 6.2 6.2 0 0 1 2.884-1.35v-.17q-2.088-.54-3.324-2.344-1.236-1.818-1.221-4.133-.015-2.217 1.122-3.963 1.136-1.748 3.125-2.756 2.003-1.008 4.559-1.009 2.53 0 4.517 1.009 1.99 1.008 3.125 2.756 1.151 1.746 1.165 3.963-.014 2.315-1.264 4.133-1.236 1.804-3.281 2.344v.17q1.577.285 2.841 1.35a7.66 7.66 0 0 1 2.017 2.628q.752 1.562.767 3.409-.015 2.358-1.279 4.204-1.25 1.833-3.48 2.884-2.215 1.037-5.128 1.037m0-3.125q1.975 0 3.409-.639 1.435-.64 2.216-1.804t.796-2.728q-.015-1.647-.852-2.912-.839-1.263-2.287-1.988-1.436-.725-3.282-.725-1.86 0-3.324.725-1.448.725-2.286 1.988-.825 1.265-.81 2.912-.015 1.563.753 2.728.781 1.164 2.23 1.804 1.45.639 3.437.639m0-13.807q1.563 0 2.77-.625a4.75 4.75 0 0 0 1.918-1.747q.696-1.122.71-2.628-.014-1.478-.696-2.571a4.5 4.5 0 0 0-1.889-1.705q-1.208-.61-2.813-.61-1.633 0-2.855.61-1.221.597-1.889 1.705-.668 1.094-.653 2.571-.014 1.506.667 2.628a4.75 4.75 0 0 0 1.918 1.747q1.221.625 2.812.625M862.505 188.398q-2.926 0-5.17-1.037-2.23-1.051-3.48-2.884-1.251-1.846-1.236-4.204-.015-1.847.724-3.409a7.4 7.4 0 0 1 2.017-2.628 6.2 6.2 0 0 1 2.884-1.35v-.17q-2.088-.54-3.324-2.344-1.236-1.818-1.221-4.133-.015-2.217 1.122-3.963 1.136-1.748 3.125-2.756 2.003-1.008 4.559-1.009 2.53 0 4.517 1.009 1.99 1.008 3.125 2.756 1.151 1.746 1.165 3.963-.014 2.315-1.264 4.133-1.236 1.804-3.281 2.344v.17q1.576.285 2.841 1.35a7.66 7.66 0 0 1 2.017 2.628q.752 1.562.767 3.409-.015 2.358-1.279 4.204-1.25 1.833-3.48 2.884-2.215 1.037-5.128 1.037m0-3.125q1.975 0 3.409-.639 1.435-.64 2.216-1.804t.796-2.728q-.015-1.647-.852-2.912-.839-1.263-2.287-1.988-1.436-.725-3.282-.725-1.86 0-3.324.725-1.448.725-2.286 1.988-.825 1.265-.81 2.912-.015 1.563.753 2.728.781 1.164 2.23 1.804 1.45.639 3.437.639m0-13.807q1.563 0 2.77-.625a4.75 4.75 0 0 0 1.918-1.747q.696-1.122.71-2.628-.014-1.478-.696-2.571a4.5 4.5 0 0 0-1.889-1.705q-1.208-.61-2.813-.61-1.633 0-2.855.61-1.221.597-1.889 1.705-.668 1.094-.653 2.571-.014 1.506.667 2.628a4.75 4.75 0 0 0 1.918 1.747q1.221.625 2.812.625M1075.51 188.398c-1.96 0-3.68-.346-5.18-1.037q-2.22-1.051-3.48-2.884-1.245-1.846-1.23-4.204-.015-1.847.72-3.409c.5-1.052 1.17-1.927 2.02-2.628q1.29-1.065 2.88-1.35v-.17c-1.39-.36-2.5-1.141-3.32-2.344-.82-1.212-1.23-2.59-1.22-4.133-.01-1.478.36-2.799 1.12-3.963s1.8-2.084 3.13-2.756q1.995-1.008 4.56-1.009c1.68 0 3.19.337 4.51 1.009 1.33.672 2.37 1.591 3.13 2.756s1.15 2.485 1.16 3.963q-.015 2.315-1.26 4.133c-.83 1.203-1.92 1.984-3.28 2.344v.17c1.05.19 1.99.64 2.84 1.35q1.26 1.05 2.01 2.628c.51 1.041.76 2.178.77 3.409-.01 1.572-.43 2.973-1.28 4.204q-1.245 1.833-3.48 2.884c-1.47.691-3.18 1.037-5.12 1.037m0-3.125c1.31 0 2.45-.213 3.4-.639q1.44-.64 2.22-1.804c.52-.777.79-1.686.8-2.728-.01-1.098-.3-2.069-.86-2.912q-.84-1.263-2.28-1.988c-.96-.483-2.05-.725-3.28-.725-1.25 0-2.35.242-3.33.725-.96.483-1.73 1.146-2.29 1.988q-.81 1.265-.81 2.912c0 1.042.25 1.951.76 2.728.52.776 1.26 1.377 2.23 1.804.96.426 2.11.639 3.44.639m0-13.807c1.04 0 1.96-.208 2.77-.625a4.74 4.74 0 0 0 1.91-1.747c.47-.748.7-1.624.71-2.628q-.015-1.478-.69-2.571a4.6 4.6 0 0 0-1.89-1.705c-.81-.407-1.74-.61-2.81-.61-1.09 0-2.05.203-2.86.61q-1.215.597-1.89 1.705c-.44.729-.66 1.586-.65 2.571-.01 1.004.21 1.88.67 2.628s1.1 1.33 1.91 1.747c.82.417 1.75.625 2.82.625"/><path stroke="#fff" d="M144 532.5h-33M355 413.5h-33M568 293.5h-33M781 173.5h-33M111.5 752V532M321.5 752V413M534.5 752V293M747.5 752V173M144 654.5h-33M355 535.5h-33M568 415.5h-33M781 295.5h-33"/><path fill="#fff" d="M106.939 915.061a1.5 1.5 0 0 0 2.122 0l9.546-9.546a1.5 1.5 0 0 0 0-2.122 1.5 1.5 0 0 0-2.122 0L108 911.879l-8.485-8.486a1.501 1.501 0 0 0-2.122 2.122zM108 914h1.5v-54h-3v54zM318.939 915.061a1.5 1.5 0 0 0 2.122 0l9.546-9.546a1.5 1.5 0 0 0 0-2.122 1.5 1.5 0 0 0-2.122 0L320 911.879l-8.485-8.486a1.5 1.5 0 0 0-2.122 0 1.5 1.5 0 0 0 0 2.122zM320 914h1.5v-54h-3v54zM531.939 915.061a1.5 1.5 0 0 0 2.122 0l9.546-9.546a1.5 1.5 0 0 0 0-2.122 1.5 1.5 0 0 0-2.122 0L533 911.879l-8.485-8.486a1.5 1.5 0 0 0-2.122 0 1.5 1.5 0 0 0 0 2.122zM533 914h1.5v-54h-3v54zM744.939 915.061a1.5 1.5 0 0 0 2.122 0l9.546-9.546a1.5 1.5 0 0 0 0-2.122 1.5 1.5 0 0 0-2.122 0L746 911.879l-8.485-8.486a1.5 1.5 0 0 0-2.122 0 1.5 1.5 0 0 0 0 2.122zM746 914h1.5v-54h-3v54z"/><rect width="154" height="54" x="31" y="936" stroke="#096" stroke-width="2" rx="24"/><rect width="154" height="54" x="243" y="936" stroke="#096" stroke-width="2" rx="24"/><rect width="154" height="54" x="456" y="936" stroke="#096" stroke-width="2" rx="24"/><rect width="154" height="54" x="669" y="936" stroke="#bababa" stroke-width="2" rx="24"/></svg>