<svg width="1211" height="991" viewBox="0 0 1211 991" fill="none" xmlns="http://www.w3.org/2000/svg">
<path d="M561.061 72.9393C560.475 72.3536 559.525 72.3536 558.939 72.9393L549.393 82.4853C548.808 83.0711 548.808 84.0208 549.393 84.6066C549.979 85.1924 550.929 85.1924 551.515 84.6066L560 76.1213L568.485 84.6066C569.071 85.1924 570.021 85.1924 570.607 84.6066C571.192 84.0208 571.192 83.0711 570.607 82.4853L561.061 72.9393ZM560 74L558.5 74L558.5 230L560 230L561.5 230L561.5 74L560 74Z" fill="white"/>
<path d="M908.061 435.939C907.475 435.354 906.525 435.354 905.939 435.939L896.393 445.485C895.808 446.071 895.808 447.021 896.393 447.607C896.979 448.192 897.929 448.192 898.515 447.607L907 439.121L915.485 447.607C916.071 448.192 917.021 448.192 917.607 447.607C918.192 447.021 918.192 446.071 917.607 445.485L908.061 435.939ZM907 437L905.5 437L905.5 593L907 593L908.5 593L908.5 437L907 437Z" fill="white"/>
<path d="M327.061 791.939C326.475 791.354 325.525 791.354 324.939 791.939L315.393 801.485C314.808 802.071 314.808 803.021 315.393 803.607C315.979 804.192 316.929 804.192 317.515 803.607L326 795.121L334.485 803.607C335.071 804.192 336.021 804.192 336.607 803.607C337.192 803.021 337.192 802.071 336.607 801.485L327.061 791.939ZM326 793L324.5 793L324.5 949L326 949L327.5 949L327.5 793L326 793Z" fill="white"/>
<g filter="url(#filter0_i_410_111)">
<circle cx="326" cy="197" r="197" fill="#18181B"/>
</g>
<circle cx="326" cy="197" r="195" stroke="#717171" stroke-width="4"/>
<path d="M326 33C358.694 33 390.641 42.7715 417.741 61.0601C444.84 79.3487 465.855 105.319 478.088 135.638" stroke="#717171" stroke-width="4"/>
<path d="M483.039 149.726C487.858 165.735 490.201 182.387 489.987 199.104" stroke="#717171" stroke-width="4"/>
<path d="M289.77 212.007V207.153L311.184 173.273H314.705V180.791H312.326L296.147 206.392V206.773H324.983V212.007H289.77ZM312.706 222V210.532V208.272V173.273H318.321V222H312.706ZM335.422 222L357.216 178.888V178.507H332.091V173.273H363.307V178.793L341.608 222H335.422Z" fill="white"/>
<g filter="url(#filter1_i_410_111)">
<circle cx="706" cy="496" r="161" fill="#18181B"/>
</g>
<circle cx="706" cy="496" r="159" stroke="#717171" stroke-width="4"/>
<g filter="url(#filter2_i_410_111)">
<circle cx="479" cy="871" r="120" fill="#18181B"/>
</g>
<circle cx="479" cy="871" r="118" stroke="#717171" stroke-width="4"/>
<g filter="url(#filter3_i_410_111)">
<circle cx="305.5" cy="556.5" r="35.5" fill="#18181B"/>
</g>
<circle cx="305.5" cy="556.5" r="33.5" stroke="#717171" stroke-width="4"/>
<g filter="url(#filter4_i_410_111)">
<circle cx="767" cy="759" r="25" fill="#18181B"/>
</g>
<circle cx="767" cy="759" r="23" stroke="#717171" stroke-width="4"/>
<path d="M706 362C732.713 362 758.816 369.984 780.959 384.927C803.101 399.87 820.272 421.09 830.267 445.863" stroke="#717171" stroke-width="4"/>
<path d="M479 772C498.736 772 518.021 777.899 534.38 788.939C550.739 799.979 563.425 815.656 570.809 833.959" stroke="#717171" stroke-width="4"/>
<path d="M305.5 529C310.982 529 316.339 530.639 320.883 533.705C325.427 536.772 328.951 541.127 331.003 546.211" stroke="#717171" stroke-width="4"/>
<path d="M834.312 457.374C838.25 470.454 840.164 484.06 839.989 497.719" stroke="#717171" stroke-width="4"/>
<path d="M573.798 842.463C576.707 852.127 578.121 862.179 577.992 872.27" stroke="#717171" stroke-width="4"/>
<path d="M331.833 548.573C332.641 551.257 333.034 554.05 332.998 556.853" stroke="#717171" stroke-width="4"/>
<path d="M691.496 515.497C689.153 515.497 687.063 515.095 685.229 514.29C683.406 513.485 681.956 512.366 680.879 510.934C679.813 509.49 679.233 507.815 679.138 505.909H683.613C683.708 507.081 684.11 508.093 684.82 508.945C685.531 509.786 686.46 510.437 687.608 510.898C688.756 511.36 690.029 511.591 691.425 511.591C692.988 511.591 694.373 511.319 695.58 510.774C696.788 510.23 697.735 509.472 698.421 508.501C699.108 507.531 699.451 506.406 699.451 505.128C699.451 503.79 699.12 502.612 698.457 501.594C697.794 500.565 696.823 499.76 695.545 499.18C694.266 498.6 692.704 498.31 690.857 498.31H687.945V494.403H690.857C692.301 494.403 693.568 494.143 694.657 493.622C695.758 493.101 696.616 492.367 697.232 491.42C697.859 490.473 698.173 489.361 698.173 488.082C698.173 486.851 697.9 485.78 697.356 484.869C696.811 483.957 696.042 483.247 695.048 482.738C694.065 482.229 692.905 481.974 691.567 481.974C690.313 481.974 689.129 482.205 688.016 482.667C686.915 483.117 686.016 483.774 685.317 484.638C684.619 485.49 684.24 486.52 684.181 487.727H679.92C679.991 485.821 680.565 484.152 681.642 482.72C682.719 481.276 684.128 480.152 685.868 479.347C687.62 478.542 689.543 478.139 691.638 478.139C693.888 478.139 695.817 478.595 697.427 479.506C699.037 480.406 700.274 481.596 701.138 483.075C702.002 484.555 702.434 486.153 702.434 487.869C702.434 489.917 701.895 491.663 700.818 493.107C699.753 494.551 698.303 495.552 696.468 496.108V496.392C698.764 496.771 700.558 497.747 701.848 499.322C703.138 500.884 703.783 502.82 703.783 505.128C703.783 507.105 703.245 508.88 702.168 510.455C701.102 512.017 699.646 513.248 697.8 514.148C695.953 515.047 693.852 515.497 691.496 515.497ZM711.045 515V511.804L723.048 498.665C724.457 497.126 725.617 495.788 726.528 494.652C727.44 493.504 728.115 492.427 728.553 491.42C729.002 490.402 729.227 489.337 729.227 488.224C729.227 486.946 728.92 485.839 728.304 484.904C727.7 483.969 726.872 483.247 725.818 482.738C724.765 482.229 723.581 481.974 722.267 481.974C720.87 481.974 719.651 482.264 718.609 482.844C717.58 483.413 716.781 484.212 716.212 485.241C715.656 486.271 715.378 487.479 715.378 488.864H711.188C711.188 486.733 711.679 484.863 712.661 483.253C713.644 481.643 714.981 480.388 716.674 479.489C718.379 478.589 720.29 478.139 722.409 478.139C724.54 478.139 726.428 478.589 728.073 479.489C729.719 480.388 731.009 481.602 731.944 483.129C732.879 484.656 733.347 486.354 733.347 488.224C733.347 489.562 733.104 490.87 732.619 492.148C732.145 493.415 731.317 494.83 730.133 496.392C728.961 497.943 727.333 499.837 725.25 502.074L717.082 510.81V511.094H733.986V515H711.045Z" fill="white"/>
<path d="M455.385 888V884.996L466.667 872.645C467.991 871.198 469.082 869.941 469.939 868.873C470.795 867.794 471.43 866.781 471.841 865.835C472.264 864.878 472.475 863.877 472.475 862.831C472.475 861.629 472.186 860.589 471.608 859.71C471.04 858.831 470.261 858.152 469.271 857.674C468.281 857.195 467.168 856.956 465.933 856.956C464.62 856.956 463.474 857.229 462.495 857.774C461.527 858.308 460.776 859.059 460.241 860.027C459.718 860.995 459.457 862.13 459.457 863.432H455.518C455.518 861.429 455.98 859.671 456.903 858.158C457.827 856.644 459.084 855.465 460.675 854.619C462.278 853.774 464.075 853.351 466.066 853.351C468.069 853.351 469.844 853.774 471.391 854.619C472.937 855.465 474.15 856.605 475.029 858.041C475.908 859.476 476.348 861.073 476.348 862.831C476.348 864.088 476.12 865.318 475.663 866.52C475.218 867.71 474.439 869.04 473.327 870.509C472.225 871.966 470.695 873.746 468.737 875.849L461.059 884.061V884.328H476.948V888H455.385ZM484.91 888L500.198 857.757V857.49H482.573V853.818H504.471V857.69L489.249 888H484.91Z" fill="white"/>
<path d="M18.0301 803.364V806.702H4.74463V803.364H18.0301ZM8.61679 797.222H12.5557V821.656C12.5557 822.769 12.717 823.603 13.0397 824.16C13.3735 824.705 13.7964 825.072 14.3082 825.261C14.8312 825.439 15.3819 825.528 15.9605 825.528C16.3945 825.528 16.7505 825.506 17.0287 825.462C17.3069 825.406 17.5294 825.362 17.6963 825.328L18.4975 828.866C18.2304 828.967 17.8577 829.067 17.3792 829.167C16.9008 829.278 16.2943 829.334 15.56 829.334C14.4473 829.334 13.3568 829.095 12.2887 828.616C11.2316 828.138 10.3526 827.409 9.65159 826.43C8.96172 825.451 8.61679 824.215 8.61679 822.724V797.222ZM28.4449 813.578V829H24.506V794.818H28.4449V807.369H28.7787C29.3796 806.045 30.2809 804.994 31.4826 804.215C32.6954 803.425 34.3088 803.03 36.3228 803.03C38.0697 803.03 39.5996 803.38 40.9126 804.081C42.2256 804.771 43.2437 805.834 43.9669 807.269C44.7013 808.693 45.0685 810.507 45.0685 812.71V829H41.1296V812.977C41.1296 810.941 40.601 809.367 39.544 808.254C38.4981 807.13 37.046 806.568 35.1878 806.568C33.8971 806.568 32.7399 806.841 31.7162 807.386C30.7037 807.931 29.9025 808.727 29.3128 809.773C28.7342 810.819 28.4449 812.087 28.4449 813.578ZM52.2745 829V803.364H56.2135V829H52.2745ZM54.2774 799.091C53.5096 799.091 52.8476 798.829 52.2912 798.306C51.746 797.783 51.4734 797.155 51.4734 796.42C51.4734 795.686 51.746 795.057 52.2912 794.534C52.8476 794.011 53.5096 793.75 54.2774 793.75C55.0451 793.75 55.7016 794.011 56.2468 794.534C56.8032 795.057 57.0814 795.686 57.0814 796.42C57.0814 797.155 56.8032 797.783 56.2468 798.306C55.7016 798.829 55.0451 799.091 54.2774 799.091ZM63.4279 829V803.364H67.2333V807.236H67.5003C67.9676 805.967 68.8133 804.938 70.0372 804.148C71.2612 803.358 72.6409 802.963 74.1764 802.963C74.4657 802.963 74.8274 802.969 75.2613 802.98C75.6953 802.991 76.0235 803.008 76.2461 803.03V807.036C76.1125 807.002 75.8065 806.952 75.3281 806.885C74.8608 806.807 74.3656 806.768 73.8426 806.768C72.5964 806.768 71.4837 807.03 70.5046 807.553C69.5365 808.065 68.7688 808.777 68.2013 809.689C67.645 810.591 67.3668 811.62 67.3668 812.777V829H63.4279ZM89.8153 829.534C87.6789 829.534 85.7929 828.994 84.1573 827.915C82.5216 826.825 81.242 825.289 80.3185 823.309C79.395 821.317 78.9332 818.964 78.9332 816.249C78.9332 813.556 79.395 811.219 80.3185 809.239C81.242 807.258 82.5272 805.728 84.174 804.649C85.8207 803.569 87.7234 803.03 89.8821 803.03C91.5511 803.03 92.8696 803.308 93.8377 803.864C94.8168 804.41 95.5623 805.033 96.0742 805.734C96.5971 806.424 97.0033 806.991 97.2926 807.436H97.6264V794.818H101.565V829H97.7599V825.061H97.2926C97.0033 825.528 96.5916 826.118 96.0575 826.83C95.5234 827.531 94.7612 828.16 93.7709 828.716C92.7806 829.261 91.4621 829.534 89.8153 829.534ZM90.3494 825.996C91.9294 825.996 93.2646 825.584 94.3551 824.761C95.4455 823.926 96.2745 822.775 96.8419 821.306C97.4094 819.826 97.6931 818.118 97.6931 816.182C97.6931 814.268 97.415 812.593 96.8586 811.158C96.3023 809.712 95.4789 808.588 94.3885 807.787C93.298 806.974 91.9517 806.568 90.3494 806.568C88.6804 806.568 87.2895 806.997 86.1768 807.853C85.0752 808.699 84.2463 809.851 83.6899 811.308C83.1447 812.755 82.8721 814.379 82.8721 816.182C82.8721 818.007 83.1503 819.665 83.7066 821.156C84.2741 822.635 85.1086 823.815 86.2102 824.694C87.3229 825.562 88.7026 825.996 90.3494 825.996ZM123.079 829V794.818H127.018V807.436H127.352C127.641 806.991 128.042 806.424 128.554 805.734C129.077 805.033 129.822 804.41 130.79 803.864C131.769 803.308 133.093 803.03 134.762 803.03C136.921 803.03 138.824 803.569 140.47 804.649C142.117 805.728 143.402 807.258 144.326 809.239C145.249 811.219 145.711 813.556 145.711 816.249C145.711 818.964 145.249 821.317 144.326 823.309C143.402 825.289 142.123 826.825 140.487 827.915C138.852 828.994 136.966 829.534 134.829 829.534C133.182 829.534 131.864 829.261 130.874 828.716C129.883 828.16 129.121 827.531 128.587 826.83C128.053 826.118 127.641 825.528 127.352 825.061H126.885V829H123.079ZM126.951 816.182C126.951 818.118 127.235 819.826 127.803 821.306C128.37 822.775 129.199 823.926 130.289 824.761C131.38 825.584 132.715 825.996 134.295 825.996C135.942 825.996 137.316 825.562 138.418 824.694C139.53 823.815 140.365 822.635 140.921 821.156C141.489 819.665 141.772 818.007 141.772 816.182C141.772 814.379 141.494 812.755 140.938 811.308C140.393 809.851 139.564 808.699 138.451 807.853C137.349 806.997 135.964 806.568 134.295 806.568C132.693 806.568 131.346 806.974 130.256 807.787C129.166 808.588 128.342 809.712 127.786 811.158C127.229 812.593 126.951 814.268 126.951 816.182ZM151.736 829V803.364H155.675V829H151.736ZM153.739 799.091C152.972 799.091 152.309 798.829 151.753 798.306C151.208 797.783 150.935 797.155 150.935 796.42C150.935 795.686 151.208 795.057 151.753 794.534C152.309 794.011 152.972 793.75 153.739 793.75C154.507 793.75 155.164 794.011 155.709 794.534C156.265 795.057 156.543 795.686 156.543 796.42C156.543 797.155 156.265 797.783 155.709 798.306C155.164 798.829 154.507 799.091 153.739 799.091ZM173.238 839.148C171.335 839.148 169.699 838.903 168.331 838.413C166.962 837.935 165.822 837.301 164.909 836.511C164.008 835.732 163.29 834.897 162.756 834.007L165.894 831.804C166.25 832.271 166.701 832.805 167.246 833.406C167.791 834.018 168.537 834.547 169.482 834.992C170.439 835.448 171.691 835.676 173.238 835.676C175.307 835.676 177.015 835.175 178.362 834.174C179.708 833.173 180.381 831.604 180.381 829.467V824.26H180.047C179.758 824.727 179.346 825.306 178.812 825.996C178.289 826.674 177.533 827.281 176.542 827.815C175.563 828.338 174.239 828.599 172.57 828.599C170.501 828.599 168.642 828.11 166.996 827.131C165.36 826.152 164.064 824.727 163.107 822.858C162.161 820.989 161.688 818.719 161.688 816.048C161.688 813.422 162.15 811.136 163.073 809.189C163.997 807.23 165.282 805.717 166.929 804.649C168.576 803.569 170.478 803.03 172.637 803.03C174.306 803.03 175.63 803.308 176.609 803.864C177.6 804.41 178.356 805.033 178.879 805.734C179.413 806.424 179.825 806.991 180.114 807.436H180.515V803.364H184.32V829.734C184.32 831.938 183.819 833.729 182.818 835.109C181.828 836.5 180.493 837.518 178.812 838.163C177.143 838.819 175.285 839.148 173.238 839.148ZM173.104 825.061C174.684 825.061 176.02 824.699 177.11 823.976C178.2 823.253 179.029 822.213 179.597 820.855C180.164 819.498 180.448 817.873 180.448 815.982C180.448 814.134 180.17 812.504 179.614 811.091C179.057 809.678 178.234 808.571 177.143 807.77C176.053 806.969 174.707 806.568 173.104 806.568C171.435 806.568 170.044 806.991 168.932 807.837C167.83 808.682 167.001 809.817 166.445 811.241C165.9 812.666 165.627 814.246 165.627 815.982C165.627 817.762 165.905 819.336 166.462 820.705C167.029 822.062 167.864 823.131 168.965 823.909C170.078 824.677 171.457 825.061 173.104 825.061ZM201.878 839.148C199.976 839.148 198.34 838.903 196.971 838.413C195.603 837.935 194.462 837.301 193.55 836.511C192.649 835.732 191.931 834.897 191.397 834.007L194.535 831.804C194.891 832.271 195.341 832.805 195.887 833.406C196.432 834.018 197.177 834.547 198.123 834.992C199.08 835.448 200.332 835.676 201.878 835.676C203.948 835.676 205.656 835.175 207.002 834.174C208.349 833.173 209.022 831.604 209.022 829.467V824.26H208.688C208.399 824.727 207.987 825.306 207.453 825.996C206.93 826.674 206.173 827.281 205.183 827.815C204.204 828.338 202.88 828.599 201.211 828.599C199.141 828.599 197.283 828.11 195.636 827.131C194.001 826.152 192.704 824.727 191.747 822.858C190.802 820.989 190.329 818.719 190.329 816.048C190.329 813.422 190.79 811.136 191.714 809.189C192.638 807.23 193.923 805.717 195.569 804.649C197.216 803.569 199.119 803.03 201.278 803.03C202.947 803.03 204.271 803.308 205.25 803.864C206.24 804.41 206.997 805.033 207.52 805.734C208.054 806.424 208.466 806.991 208.755 807.436H209.155V803.364H212.961V829.734C212.961 831.938 212.46 833.729 211.459 835.109C210.468 836.5 209.133 837.518 207.453 838.163C205.784 838.819 203.926 839.148 201.878 839.148ZM201.745 825.061C203.325 825.061 204.66 824.699 205.751 823.976C206.841 823.253 207.67 822.213 208.237 820.855C208.805 819.498 209.089 817.873 209.089 815.982C209.089 814.134 208.81 812.504 208.254 811.091C207.698 809.678 206.874 808.571 205.784 807.77C204.694 806.969 203.347 806.568 201.745 806.568C200.076 806.568 198.685 806.991 197.572 807.837C196.471 808.682 195.642 809.817 195.085 811.241C194.54 812.666 194.268 814.246 194.268 815.982C194.268 817.762 194.546 819.336 195.102 820.705C195.67 822.062 196.504 823.131 197.606 823.909C198.718 824.677 200.098 825.061 201.745 825.061ZM230.92 829.534C228.449 829.534 226.319 828.989 224.527 827.898C222.747 826.797 221.373 825.261 220.405 823.292C219.448 821.311 218.969 819.008 218.969 816.382C218.969 813.756 219.448 811.442 220.405 809.439C221.373 807.425 222.719 805.856 224.444 804.732C226.18 803.597 228.205 803.03 230.519 803.03C231.854 803.03 233.173 803.252 234.475 803.697C235.777 804.143 236.962 804.866 238.03 805.867C239.098 806.857 239.949 808.17 240.583 809.806C241.218 811.442 241.535 813.456 241.535 815.848V817.517H221.773V814.112H237.529C237.529 812.666 237.24 811.375 236.661 810.24C236.094 809.105 235.281 808.209 234.224 807.553C233.178 806.896 231.943 806.568 230.519 806.568C228.95 806.568 227.593 806.958 226.447 807.737C225.312 808.504 224.438 809.506 223.826 810.741C223.214 811.976 222.908 813.3 222.908 814.713V816.983C222.908 818.919 223.242 820.56 223.91 821.907C224.588 823.242 225.529 824.26 226.73 824.961C227.932 825.651 229.328 825.996 230.92 825.996C231.954 825.996 232.889 825.851 233.724 825.562C234.569 825.261 235.298 824.816 235.91 824.227C236.522 823.626 236.995 822.88 237.329 821.99L241.134 823.058C240.734 824.349 240.06 825.484 239.115 826.463C238.169 827.431 237 828.188 235.61 828.733C234.219 829.267 232.655 829.534 230.92 829.534ZM265.686 809.105L262.147 810.107C261.925 809.517 261.596 808.944 261.163 808.387C260.74 807.82 260.161 807.353 259.427 806.985C258.692 806.618 257.752 806.435 256.606 806.435C255.037 806.435 253.73 806.796 252.684 807.52C251.649 808.232 251.132 809.138 251.132 810.24C251.132 811.219 251.488 811.993 252.2 812.56C252.912 813.127 254.025 813.6 255.538 813.979L259.343 814.913C261.635 815.47 263.343 816.321 264.467 817.467C265.591 818.602 266.153 820.065 266.153 821.857C266.153 823.325 265.73 824.638 264.884 825.795C264.05 826.953 262.882 827.865 261.379 828.533C259.877 829.2 258.13 829.534 256.139 829.534C253.524 829.534 251.36 828.967 249.646 827.832C247.933 826.697 246.848 825.039 246.392 822.858L250.13 821.923C250.486 823.303 251.159 824.338 252.15 825.028C253.151 825.718 254.459 826.062 256.072 826.062C257.908 826.062 259.366 825.673 260.445 824.894C261.535 824.104 262.08 823.158 262.08 822.057C262.08 821.167 261.769 820.421 261.146 819.82C260.523 819.208 259.566 818.752 258.275 818.452L254.002 817.45C251.655 816.894 249.93 816.032 248.828 814.863C247.738 813.684 247.193 812.21 247.193 810.44C247.193 808.994 247.599 807.714 248.411 806.602C249.234 805.489 250.353 804.615 251.766 803.981C253.19 803.347 254.803 803.03 256.606 803.03C259.143 803.03 261.135 803.586 262.581 804.699C264.039 805.812 265.074 807.28 265.686 809.105ZM283.231 803.364V806.702H269.946V803.364H283.231ZM273.818 797.222H277.757V821.656C277.757 822.769 277.918 823.603 278.241 824.16C278.575 824.705 278.998 825.072 279.509 825.261C280.032 825.439 280.583 825.528 281.162 825.528C281.596 825.528 281.952 825.506 282.23 825.462C282.508 825.406 282.731 825.362 282.898 825.328L283.699 828.866C283.432 828.967 283.059 829.067 282.58 829.167C282.102 829.278 281.496 829.334 280.761 829.334C279.648 829.334 278.558 829.095 277.49 828.616C276.433 828.138 275.554 827.409 274.853 826.43C274.163 825.451 273.818 824.215 273.818 822.724V797.222ZM295.031 824.327L294.764 826.129C294.575 827.398 294.286 828.755 293.896 830.202C293.518 831.648 293.123 833.011 292.711 834.291C292.3 835.57 291.96 836.589 291.693 837.345H288.689C288.834 836.633 289.023 835.693 289.257 834.525C289.49 833.356 289.724 832.049 289.958 830.602C290.202 829.167 290.403 827.698 290.558 826.196L290.759 824.327H295.031ZM44.3174 866.105L40.7791 867.107C40.5565 866.517 40.2283 865.944 39.7943 865.387C39.3715 864.82 38.7929 864.353 38.0586 863.985C37.3242 863.618 36.384 863.435 35.2379 863.435C33.669 863.435 32.3616 863.796 31.3157 864.52C30.2809 865.232 29.7635 866.138 29.7635 867.24C29.7635 868.219 30.1195 868.993 30.8316 869.56C31.5438 870.127 32.6564 870.6 34.1697 870.979L37.9751 871.913C40.2672 872.47 41.9752 873.321 43.099 874.467C44.2228 875.602 44.7848 877.065 44.7848 878.857C44.7848 880.325 44.3619 881.638 43.5163 882.795C42.6818 883.953 41.5135 884.865 40.0113 885.533C38.5092 886.2 36.7623 886.534 34.7706 886.534C32.1557 886.534 29.9916 885.967 28.278 884.832C26.5645 883.697 25.4796 882.039 25.0234 879.858L28.762 878.923C29.1181 880.303 29.7913 881.338 30.7816 882.028C31.783 882.718 33.0904 883.062 34.7038 883.062C36.5397 883.062 37.9974 882.673 39.0767 881.894C40.1671 881.104 40.7123 880.158 40.7123 879.057C40.7123 878.167 40.4008 877.421 39.7777 876.82C39.1545 876.208 38.1976 875.752 36.9069 875.452L32.6342 874.45C30.2864 873.894 28.5617 873.032 27.4602 871.863C26.3697 870.684 25.8245 869.21 25.8245 867.44C25.8245 865.994 26.2307 864.714 27.0429 863.602C27.8663 862.489 28.9846 861.615 30.3977 860.981C31.8219 860.347 33.4353 860.03 35.2379 860.03C37.7748 860.03 39.7665 860.586 41.213 861.699C42.6706 862.812 43.7054 864.28 44.3174 866.105ZM61.1288 886.534C58.8144 886.534 56.7837 885.983 55.0368 884.882C53.301 883.78 51.9435 882.239 50.9644 880.259C49.9963 878.278 49.5123 875.964 49.5123 873.315C49.5123 870.645 49.9963 868.314 50.9644 866.322C51.9435 864.33 53.301 862.784 55.0368 861.682C56.7837 860.581 58.8144 860.03 61.1288 860.03C63.4432 860.03 65.4683 860.581 67.2041 861.682C68.951 862.784 70.3085 864.33 71.2765 866.322C72.2557 868.314 72.7453 870.645 72.7453 873.315C72.7453 875.964 72.2557 878.278 71.2765 880.259C70.3085 882.239 68.951 883.78 67.2041 884.882C65.4683 885.983 63.4432 886.534 61.1288 886.534ZM61.1288 882.996C62.8868 882.996 64.3333 882.545 65.4683 881.644C66.6032 880.743 67.4433 879.558 67.9885 878.089C68.5337 876.62 68.8063 875.029 68.8063 873.315C68.8063 871.602 68.5337 870.005 67.9885 868.525C67.4433 867.045 66.6032 865.849 65.4683 864.937C64.3333 864.024 62.8868 863.568 61.1288 863.568C59.3707 863.568 57.9242 864.024 56.7893 864.937C55.6543 865.849 54.8143 867.045 54.269 868.525C53.7238 870.005 53.4512 871.602 53.4512 873.315C53.4512 875.029 53.7238 876.62 54.269 878.089C54.8143 879.558 55.6543 880.743 56.7893 881.644C57.9242 882.545 59.3707 882.996 61.1288 882.996ZM91.9767 886V860.364H95.7821V864.236H96.0491C96.5165 862.967 97.3621 861.938 98.5861 861.148C99.81 860.358 101.19 859.963 102.725 859.963C103.015 859.963 103.376 859.969 103.81 859.98C104.244 859.991 104.572 860.008 104.795 860.03V864.036C104.661 864.002 104.355 863.952 103.877 863.885C103.41 863.807 102.914 863.768 102.391 863.768C101.145 863.768 100.033 864.03 99.0534 864.553C98.0854 865.065 97.3176 865.777 96.7501 866.689C96.1938 867.591 95.9156 868.62 95.9156 869.777V886H91.9767ZM109.464 886V860.364H113.403V886H109.464ZM111.467 856.091C110.699 856.091 110.037 855.829 109.481 855.306C108.935 854.783 108.663 854.155 108.663 853.42C108.663 852.686 108.935 852.057 109.481 851.534C110.037 851.011 110.699 850.75 111.467 850.75C112.235 850.75 112.891 851.011 113.436 851.534C113.993 852.057 114.271 852.686 114.271 853.42C114.271 854.155 113.993 854.783 113.436 855.306C112.891 855.829 112.235 856.091 111.467 856.091ZM138.776 866.105L135.238 867.107C135.016 866.517 134.687 865.944 134.253 865.387C133.831 864.82 133.252 864.353 132.518 863.985C131.783 863.618 130.843 863.435 129.697 863.435C128.128 863.435 126.821 863.796 125.775 864.52C124.74 865.232 124.222 866.138 124.222 867.24C124.222 868.219 124.578 868.993 125.291 869.56C126.003 870.127 127.115 870.6 128.629 870.979L132.434 871.913C134.726 872.47 136.434 873.321 137.558 874.467C138.682 875.602 139.244 877.065 139.244 878.857C139.244 880.325 138.821 881.638 137.975 882.795C137.141 883.953 135.972 884.865 134.47 885.533C132.968 886.2 131.221 886.534 129.23 886.534C126.615 886.534 124.451 885.967 122.737 884.832C121.023 883.697 119.939 882.039 119.482 879.858L123.221 878.923C123.577 880.303 124.25 881.338 125.241 882.028C126.242 882.718 127.549 883.062 129.163 883.062C130.999 883.062 132.456 882.673 133.536 881.894C134.626 881.104 135.171 880.158 135.171 879.057C135.171 878.167 134.86 877.421 134.237 876.82C133.614 876.208 132.657 875.752 131.366 875.452L127.093 874.45C124.745 873.894 123.021 873.032 121.919 871.863C120.829 870.684 120.284 869.21 120.284 867.44C120.284 865.994 120.69 864.714 121.502 863.602C122.325 862.489 123.444 861.615 124.857 860.981C126.281 860.347 127.894 860.03 129.697 860.03C132.234 860.03 134.226 860.586 135.672 861.699C137.13 862.812 138.164 864.28 138.776 866.105ZM155.922 886.534C153.451 886.534 151.321 885.989 149.529 884.898C147.749 883.797 146.375 882.261 145.407 880.292C144.45 878.311 143.971 876.008 143.971 873.382C143.971 870.756 144.45 868.442 145.407 866.439C146.375 864.425 147.721 862.856 149.446 861.732C151.182 860.597 153.207 860.03 155.521 860.03C156.856 860.03 158.175 860.252 159.477 860.697C160.778 861.143 161.963 861.866 163.032 862.867C164.1 863.857 164.951 865.17 165.585 866.806C166.22 868.442 166.537 870.456 166.537 872.848V874.517H146.775V871.112H162.531C162.531 869.666 162.242 868.375 161.663 867.24C161.096 866.105 160.283 865.209 159.226 864.553C158.18 863.896 156.945 863.568 155.521 863.568C153.952 863.568 152.595 863.958 151.449 864.737C150.314 865.504 149.44 866.506 148.828 867.741C148.216 868.976 147.91 870.3 147.91 871.713V873.983C147.91 875.919 148.244 877.56 148.912 878.907C149.59 880.242 150.531 881.26 151.732 881.961C152.934 882.651 154.33 882.996 155.922 882.996C156.956 882.996 157.891 882.851 158.726 882.562C159.571 882.261 160.3 881.816 160.912 881.227C161.524 880.626 161.997 879.88 162.331 878.99L166.136 880.058C165.735 881.349 165.062 882.484 164.117 883.463C163.171 884.431 162.002 885.188 160.612 885.733C159.221 886.267 157.657 886.534 155.922 886.534ZM190.688 866.105L187.149 867.107C186.927 866.517 186.598 865.944 186.164 865.387C185.742 864.82 185.163 864.353 184.429 863.985C183.694 863.618 182.754 863.435 181.608 863.435C180.039 863.435 178.732 863.796 177.686 864.52C176.651 865.232 176.134 866.138 176.134 867.24C176.134 868.219 176.49 868.993 177.202 869.56C177.914 870.127 179.027 870.6 180.54 870.979L184.345 871.913C186.637 872.47 188.345 873.321 189.469 874.467C190.593 875.602 191.155 877.065 191.155 878.857C191.155 880.325 190.732 881.638 189.886 882.795C189.052 883.953 187.884 884.865 186.381 885.533C184.879 886.2 183.132 886.534 181.141 886.534C178.526 886.534 176.362 885.967 174.648 884.832C172.935 883.697 171.85 882.039 171.394 879.858L175.132 878.923C175.488 880.303 176.161 881.338 177.152 882.028C178.153 882.718 179.461 883.062 181.074 883.062C182.91 883.062 184.367 882.673 185.447 881.894C186.537 881.104 187.082 880.158 187.082 879.057C187.082 878.167 186.771 877.421 186.148 876.82C185.525 876.208 184.568 875.752 183.277 875.452L179.004 874.45C176.657 873.894 174.932 873.032 173.83 871.863C172.74 870.684 172.195 869.21 172.195 867.44C172.195 865.994 172.601 864.714 173.413 863.602C174.236 862.489 175.355 861.615 176.768 860.981C178.192 860.347 179.805 860.03 181.608 860.03C184.145 860.03 186.137 860.586 187.583 861.699C189.041 862.812 190.076 864.28 190.688 866.105ZM221.452 860.364V863.702H208.167V860.364H221.452ZM212.039 854.222H215.978V878.656C215.978 879.769 216.139 880.603 216.462 881.16C216.795 881.705 217.218 882.072 217.73 882.261C218.253 882.439 218.804 882.528 219.382 882.528C219.816 882.528 220.172 882.506 220.451 882.462C220.729 882.406 220.951 882.362 221.118 882.328L221.919 885.866C221.652 885.967 221.28 886.067 220.801 886.167C220.323 886.278 219.716 886.334 218.982 886.334C217.869 886.334 216.779 886.095 215.711 885.616C214.653 885.138 213.774 884.409 213.073 883.43C212.384 882.451 212.039 881.215 212.039 879.724V854.222ZM231.867 870.578V886H227.928V851.818H231.867V864.369H232.201C232.801 863.045 233.703 861.994 234.904 861.215C236.117 860.425 237.731 860.03 239.745 860.03C241.492 860.03 243.021 860.38 244.334 861.081C245.647 861.771 246.666 862.834 247.389 864.269C248.123 865.693 248.49 867.507 248.49 869.71V886H244.551V869.977C244.551 867.941 244.023 866.367 242.966 865.254C241.92 864.13 240.468 863.568 238.61 863.568C237.319 863.568 236.162 863.841 235.138 864.386C234.126 864.931 233.324 865.727 232.735 866.773C232.156 867.819 231.867 869.087 231.867 870.578ZM266.445 886.534C263.975 886.534 261.844 885.989 260.053 884.898C258.272 883.797 256.898 882.261 255.93 880.292C254.973 878.311 254.495 876.008 254.495 873.382C254.495 870.756 254.973 868.442 255.93 866.439C256.898 864.425 258.244 862.856 259.969 861.732C261.705 860.597 263.73 860.03 266.044 860.03C267.38 860.03 268.698 860.252 270 860.697C271.302 861.143 272.487 861.866 273.555 862.867C274.623 863.857 275.474 865.17 276.109 866.806C276.743 868.442 277.06 870.456 277.06 872.848V874.517H257.299V871.112H273.054C273.054 869.666 272.765 868.375 272.186 867.24C271.619 866.105 270.807 865.209 269.75 864.553C268.704 863.896 267.469 863.568 266.044 863.568C264.476 863.568 263.118 863.958 261.972 864.737C260.837 865.504 259.964 866.506 259.352 867.741C258.74 868.976 258.434 870.3 258.434 871.713V873.983C258.434 875.919 258.767 877.56 259.435 878.907C260.114 880.242 261.054 881.26 262.256 881.961C263.457 882.651 264.854 882.996 266.445 882.996C267.48 882.996 268.414 882.851 269.249 882.562C270.095 882.261 270.823 881.816 271.435 881.227C272.047 880.626 272.52 879.88 272.854 878.99L276.659 880.058C276.259 881.349 275.586 882.484 274.64 883.463C273.694 884.431 272.526 885.188 271.135 885.733C269.744 886.267 268.181 886.534 266.445 886.534ZM88.1734 923.105L84.635 924.107C84.4125 923.517 84.0843 922.944 83.6503 922.387C83.2275 921.82 82.6489 921.353 81.9145 920.985C81.1801 920.618 80.2399 920.435 79.0938 920.435C77.5249 920.435 76.2175 920.796 75.1716 921.52C74.1368 922.232 73.6194 923.138 73.6194 924.24C73.6194 925.219 73.9755 925.993 74.6876 926.56C75.3997 927.127 76.5124 927.6 78.0257 927.979L81.8311 928.913C84.1232 929.47 85.8312 930.321 86.955 931.467C88.0788 932.602 88.6407 934.065 88.6407 935.857C88.6407 937.325 88.2179 938.638 87.3722 939.795C86.5377 940.953 85.3694 941.865 83.8673 942.533C82.3651 943.2 80.6182 943.534 78.6265 943.534C76.0117 943.534 73.8475 942.967 72.134 941.832C70.4204 940.697 69.3356 939.039 68.8794 936.858L72.618 935.923C72.974 937.303 73.6472 938.338 74.6375 939.028C75.6389 939.718 76.9463 940.062 78.5597 940.062C80.3957 940.062 81.8533 939.673 82.9326 938.894C84.0231 938.104 84.5683 937.158 84.5683 936.057C84.5683 935.167 84.2567 934.421 83.6336 933.82C83.0105 933.208 82.0536 932.752 80.7629 932.452L76.4901 931.45C74.1424 930.894 72.4177 930.032 71.3161 928.863C70.2257 927.684 69.6805 926.21 69.6805 924.44C69.6805 922.994 70.0866 921.714 70.8989 920.602C71.7223 919.489 72.8405 918.615 74.2536 917.981C75.6779 917.347 77.2913 917.03 79.0938 917.03C81.6308 917.03 83.6225 917.586 85.069 918.699C86.5266 919.812 87.5614 921.28 88.1734 923.105ZM98.5089 908.818V943H94.57V908.818H98.5089ZM116.138 943.534C113.824 943.534 111.793 942.983 110.046 941.882C108.31 940.78 106.953 939.239 105.974 937.259C105.006 935.278 104.522 932.964 104.522 930.315C104.522 927.645 105.006 925.314 105.974 923.322C106.953 921.33 108.31 919.784 110.046 918.682C111.793 917.581 113.824 917.03 116.138 917.03C118.452 917.03 120.478 917.581 122.213 918.682C123.96 919.784 125.318 921.33 126.286 923.322C127.265 925.314 127.755 927.645 127.755 930.315C127.755 932.964 127.265 935.278 126.286 937.259C125.318 939.239 123.96 940.78 122.213 941.882C120.478 942.983 118.452 943.534 116.138 943.534ZM116.138 939.996C117.896 939.996 119.343 939.545 120.478 938.644C121.612 937.743 122.453 936.558 122.998 935.089C123.543 933.62 123.816 932.029 123.816 930.315C123.816 928.602 123.543 927.005 122.998 925.525C122.453 924.045 121.612 922.849 120.478 921.937C119.343 921.024 117.896 920.568 116.138 920.568C114.38 920.568 112.934 921.024 111.799 921.937C110.664 922.849 109.824 924.045 109.278 925.525C108.733 927.005 108.46 928.602 108.46 930.315C108.46 932.029 108.733 933.62 109.278 935.089C109.824 936.558 110.664 937.743 111.799 938.644C112.934 939.545 114.38 939.996 116.138 939.996ZM138.703 943L130.892 917.364H135.032L140.573 936.991H140.84L146.314 917.364H150.52L155.928 936.925H156.195L161.736 917.364H165.875L158.064 943H154.192L148.584 923.305H148.184L142.576 943H138.703ZM180.959 943.534C178.489 943.534 176.358 942.989 174.567 941.898C172.786 940.797 171.412 939.261 170.444 937.292C169.487 935.311 169.009 933.008 169.009 930.382C169.009 927.756 169.487 925.442 170.444 923.439C171.412 921.425 172.759 919.856 174.483 918.732C176.219 917.597 178.244 917.03 180.559 917.03C181.894 917.03 183.212 917.252 184.514 917.697C185.816 918.143 187.001 918.866 188.069 919.867C189.137 920.857 189.989 922.17 190.623 923.806C191.257 925.442 191.574 927.456 191.574 929.848V931.517H171.813V928.112H187.569C187.569 926.666 187.279 925.375 186.701 924.24C186.133 923.105 185.321 922.209 184.264 921.553C183.218 920.896 181.983 920.568 180.559 920.568C178.99 920.568 177.632 920.958 176.486 921.737C175.351 922.504 174.478 923.506 173.866 924.741C173.254 925.976 172.948 927.3 172.948 928.713V930.983C172.948 932.919 173.282 934.56 173.949 935.907C174.628 937.242 175.568 938.26 176.77 938.961C177.972 939.651 179.368 939.996 180.959 939.996C181.994 939.996 182.929 939.851 183.763 939.562C184.609 939.261 185.338 938.816 185.95 938.227C186.562 937.626 187.034 936.88 187.368 935.99L191.174 937.058C190.773 938.349 190.1 939.484 189.154 940.463C188.208 941.431 187.04 942.188 185.649 942.733C184.258 943.267 182.695 943.534 180.959 943.534ZM215.725 923.105L212.187 924.107C211.964 923.517 211.636 922.944 211.202 922.387C210.779 921.82 210.201 921.353 209.466 920.985C208.732 920.618 207.792 920.435 206.646 920.435C205.077 920.435 203.769 920.796 202.723 921.52C201.689 922.232 201.171 923.138 201.171 924.24C201.171 925.219 201.527 925.993 202.239 926.56C202.951 927.127 204.064 927.6 205.577 927.979L209.383 928.913C211.675 929.47 213.383 930.321 214.507 931.467C215.631 932.602 216.192 934.065 216.192 935.857C216.192 937.325 215.77 938.638 214.924 939.795C214.089 940.953 212.921 941.865 211.419 942.533C209.917 943.2 208.17 943.534 206.178 943.534C203.563 943.534 201.399 942.967 199.686 941.832C197.972 940.697 196.887 939.039 196.431 936.858L200.17 935.923C200.526 937.303 201.199 938.338 202.189 939.028C203.191 939.718 204.498 940.062 206.112 940.062C207.947 940.062 209.405 939.673 210.484 938.894C211.575 938.104 212.12 937.158 212.12 936.057C212.12 935.167 211.808 934.421 211.185 933.82C210.562 933.208 209.605 932.752 208.315 932.452L204.042 931.45C201.694 930.894 199.969 930.032 198.868 928.863C197.777 927.684 197.232 926.21 197.232 924.44C197.232 922.994 197.638 921.714 198.451 920.602C199.274 919.489 200.392 918.615 201.805 917.981C203.23 917.347 204.843 917.03 206.646 917.03C209.183 917.03 211.174 917.586 212.621 918.699C214.078 919.812 215.113 921.28 215.725 923.105ZM233.271 917.364V920.702H219.985V917.364H233.271ZM223.858 911.222H227.796V935.656C227.796 936.769 227.958 937.603 228.28 938.16C228.614 938.705 229.037 939.072 229.549 939.261C230.072 939.439 230.623 939.528 231.201 939.528C231.635 939.528 231.991 939.506 232.269 939.462C232.548 939.406 232.77 939.362 232.937 939.328L233.738 942.866C233.471 942.967 233.098 943.067 232.62 943.167C232.141 943.278 231.535 943.334 230.801 943.334C229.688 943.334 228.598 943.095 227.529 942.616C226.472 942.138 225.593 941.409 224.892 940.43C224.202 939.451 223.858 938.215 223.858 936.724V911.222Z" fill="white"/>
<path d="M1006.32 453.105L1002.78 454.107C1002.56 453.517 1002.23 452.944 1001.79 452.387C1001.37 451.82 1000.79 451.353 1000.06 450.985C999.324 450.618 998.384 450.435 997.238 450.435C995.669 450.435 994.362 450.796 993.316 451.52C992.281 452.232 991.763 453.138 991.763 454.24C991.763 455.219 992.12 455.993 992.832 456.56C993.544 457.127 994.656 457.6 996.17 457.979L999.975 458.913C1002.27 459.47 1003.98 460.321 1005.1 461.467C1006.22 462.602 1006.78 464.065 1006.78 465.857C1006.78 467.325 1006.36 468.638 1005.52 469.795C1004.68 470.953 1003.51 471.865 1002.01 472.533C1000.51 473.2 998.762 473.534 996.771 473.534C994.156 473.534 991.992 472.967 990.278 471.832C988.564 470.697 987.48 469.039 987.023 466.858L990.762 465.923C991.118 467.303 991.791 468.338 992.782 469.028C993.783 469.718 995.09 470.062 996.704 470.062C998.54 470.062 999.997 469.673 1001.08 468.894C1002.17 468.104 1002.71 467.158 1002.71 466.057C1002.71 465.167 1002.4 464.421 1001.78 463.82C1001.15 463.208 1000.2 462.752 998.907 462.452L994.634 461.45C992.286 460.894 990.562 460.032 989.46 458.863C988.37 457.684 987.825 456.21 987.825 454.44C987.825 452.994 988.231 451.714 989.043 450.602C989.866 449.489 990.985 448.615 992.398 447.981C993.822 447.347 995.435 447.03 997.238 447.03C999.775 447.03 1001.77 447.586 1003.21 448.699C1004.67 449.812 1005.71 451.28 1006.32 453.105ZM1023.46 473.534C1020.99 473.534 1018.86 472.989 1017.07 471.898C1015.29 470.797 1013.92 469.261 1012.95 467.292C1011.99 465.311 1011.51 463.008 1011.51 460.382C1011.51 457.756 1011.99 455.442 1012.95 453.439C1013.92 451.425 1015.26 449.856 1016.99 448.732C1018.72 447.597 1020.75 447.03 1023.06 447.03C1024.4 447.03 1025.72 447.252 1027.02 447.697C1028.32 448.143 1029.5 448.866 1030.57 449.867C1031.64 450.857 1032.49 452.17 1033.13 453.806C1033.76 455.442 1034.08 457.456 1034.08 459.848V461.517H1014.32V458.112H1030.07C1030.07 456.666 1029.78 455.375 1029.2 454.24C1028.64 453.105 1027.82 452.209 1026.77 451.553C1025.72 450.896 1024.49 450.568 1023.06 450.568C1021.49 450.568 1020.14 450.958 1018.99 451.737C1017.85 452.504 1016.98 453.506 1016.37 454.741C1015.76 455.976 1015.45 457.3 1015.45 458.713V460.983C1015.45 462.919 1015.79 464.56 1016.45 465.907C1017.13 467.242 1018.07 468.26 1019.27 468.961C1020.48 469.651 1021.87 469.996 1023.46 469.996C1024.5 469.996 1025.43 469.851 1026.27 469.562C1027.11 469.261 1027.84 468.816 1028.45 468.227C1029.06 467.626 1029.54 466.88 1029.87 465.99L1033.68 467.058C1033.28 468.349 1032.6 469.484 1031.66 470.463C1030.71 471.431 1029.54 472.188 1028.15 472.733C1026.76 473.267 1025.2 473.534 1023.46 473.534ZM1050.48 473.534C1048.08 473.534 1046.01 472.967 1044.28 471.832C1042.54 470.697 1041.2 469.133 1040.27 467.142C1039.34 465.15 1038.87 462.875 1038.87 460.315C1038.87 457.712 1039.35 455.414 1040.3 453.422C1041.27 451.419 1042.62 449.856 1044.34 448.732C1046.08 447.597 1048.1 447.03 1050.42 447.03C1052.22 447.03 1053.84 447.364 1055.29 448.031C1056.74 448.699 1057.92 449.634 1058.85 450.835C1059.77 452.037 1060.34 453.439 1060.57 455.041H1056.63C1056.33 453.873 1055.66 452.838 1054.62 451.937C1053.6 451.024 1052.22 450.568 1050.48 450.568C1048.95 450.568 1047.6 450.969 1046.45 451.77C1045.3 452.56 1044.4 453.678 1043.76 455.125C1043.12 456.56 1042.81 458.246 1042.81 460.182C1042.81 462.162 1043.12 463.887 1043.74 465.356C1044.38 466.825 1045.27 467.965 1046.41 468.777C1047.57 469.59 1048.93 469.996 1050.48 469.996C1051.51 469.996 1052.44 469.818 1053.27 469.462C1054.11 469.106 1054.81 468.594 1055.39 467.926C1055.97 467.259 1056.38 466.457 1056.63 465.523H1060.57C1060.34 467.036 1059.79 468.399 1058.91 469.612C1058.04 470.814 1056.89 471.77 1055.46 472.483C1054.03 473.184 1052.38 473.534 1050.48 473.534ZM1076.74 473.534C1074.42 473.534 1072.39 472.983 1070.65 471.882C1068.91 470.78 1067.55 469.239 1066.57 467.259C1065.61 465.278 1065.12 462.964 1065.12 460.315C1065.12 457.645 1065.61 455.314 1066.57 453.322C1067.55 451.33 1068.91 449.784 1070.65 448.682C1072.39 447.581 1074.42 447.03 1076.74 447.03C1079.05 447.03 1081.08 447.581 1082.81 448.682C1084.56 449.784 1085.92 451.33 1086.89 453.322C1087.87 455.314 1088.35 457.645 1088.35 460.315C1088.35 462.964 1087.87 465.278 1086.89 467.259C1085.92 469.239 1084.56 470.78 1082.81 471.882C1081.08 472.983 1079.05 473.534 1076.74 473.534ZM1076.74 469.996C1078.5 469.996 1079.94 469.545 1081.08 468.644C1082.21 467.743 1083.05 466.558 1083.6 465.089C1084.14 463.62 1084.42 462.029 1084.42 460.315C1084.42 458.602 1084.14 457.005 1083.6 455.525C1083.05 454.045 1082.21 452.849 1081.08 451.937C1079.94 451.024 1078.5 450.568 1076.74 450.568C1074.98 450.568 1073.53 451.024 1072.4 451.937C1071.26 452.849 1070.42 454.045 1069.88 455.525C1069.33 457.005 1069.06 458.602 1069.06 460.315C1069.06 462.029 1069.33 463.62 1069.88 465.089C1070.42 466.558 1071.26 467.743 1072.4 468.644C1073.53 469.545 1074.98 469.996 1076.74 469.996ZM1098.31 457.578V473H1094.37V447.364H1098.17V451.369H1098.51C1099.11 450.067 1100.02 449.022 1101.24 448.232C1102.47 447.43 1104.05 447.03 1105.98 447.03C1107.72 447.03 1109.24 447.386 1110.54 448.098C1111.84 448.799 1112.85 449.867 1113.58 451.303C1114.3 452.727 1114.66 454.529 1114.66 456.71V473H1110.72V456.977C1110.72 454.963 1110.2 453.394 1109.15 452.271C1108.11 451.136 1106.67 450.568 1104.85 450.568C1103.59 450.568 1102.47 450.841 1101.48 451.386C1100.5 451.931 1099.72 452.727 1099.16 453.773C1098.59 454.819 1098.31 456.087 1098.31 457.578ZM1131.54 473.534C1129.4 473.534 1127.52 472.994 1125.88 471.915C1124.25 470.825 1122.97 469.289 1122.04 467.309C1121.12 465.317 1120.66 462.964 1120.66 460.249C1120.66 457.556 1121.12 455.219 1122.04 453.239C1122.97 451.258 1124.25 449.728 1125.9 448.649C1127.55 447.569 1129.45 447.03 1131.61 447.03C1133.28 447.03 1134.6 447.308 1135.56 447.864C1136.54 448.41 1137.29 449.033 1137.8 449.734C1138.32 450.424 1138.73 450.991 1139.02 451.436H1139.35V438.818H1143.29V473H1139.49V469.061H1139.02C1138.73 469.528 1138.32 470.118 1137.78 470.83C1137.25 471.531 1136.49 472.16 1135.5 472.716C1134.51 473.261 1133.19 473.534 1131.54 473.534ZM1132.07 469.996C1133.65 469.996 1134.99 469.584 1136.08 468.761C1137.17 467.926 1138 466.775 1138.57 465.306C1139.13 463.826 1139.42 462.118 1139.42 460.182C1139.42 458.268 1139.14 456.593 1138.58 455.158C1138.03 453.712 1137.2 452.588 1136.11 451.787C1135.02 450.974 1133.68 450.568 1132.07 450.568C1130.41 450.568 1129.02 450.997 1127.9 451.853C1126.8 452.699 1125.97 453.851 1125.42 455.308C1124.87 456.755 1124.6 458.379 1124.6 460.182C1124.6 462.007 1124.88 463.665 1125.43 465.156C1126 466.635 1126.83 467.815 1127.94 468.694C1129.05 469.562 1130.43 469.996 1132.07 469.996ZM947.338 530V495.818H951.277V508.436H951.611C951.9 507.991 952.301 507.424 952.812 506.734C953.335 506.033 954.081 505.41 955.049 504.864C956.028 504.308 957.352 504.03 959.021 504.03C961.18 504.03 963.082 504.569 964.729 505.649C966.376 506.728 967.661 508.258 968.585 510.239C969.508 512.219 969.97 514.556 969.97 517.249C969.97 519.964 969.508 522.317 968.585 524.309C967.661 526.289 966.382 527.825 964.746 528.915C963.11 529.994 961.224 530.534 959.088 530.534C957.441 530.534 956.123 530.261 955.132 529.716C954.142 529.16 953.38 528.531 952.846 527.83C952.312 527.118 951.9 526.528 951.611 526.061H951.143V530H947.338ZM951.21 517.182C951.21 519.118 951.494 520.826 952.061 522.306C952.629 523.775 953.458 524.926 954.548 525.761C955.639 526.584 956.974 526.996 958.554 526.996C960.201 526.996 961.575 526.562 962.676 525.694C963.789 524.815 964.624 523.635 965.18 522.156C965.747 520.665 966.031 519.007 966.031 517.182C966.031 515.379 965.753 513.755 965.197 512.308C964.651 510.851 963.822 509.699 962.71 508.853C961.608 507.997 960.223 507.568 958.554 507.568C956.952 507.568 955.605 507.974 954.515 508.787C953.424 509.588 952.601 510.712 952.045 512.158C951.488 513.593 951.21 515.268 951.21 517.182ZM975.995 530V504.364H979.934V530H975.995ZM977.998 500.091C977.23 500.091 976.568 499.829 976.012 499.306C975.467 498.783 975.194 498.155 975.194 497.42C975.194 496.686 975.467 496.057 976.012 495.534C976.568 495.011 977.23 494.75 977.998 494.75C978.766 494.75 979.422 495.011 979.968 495.534C980.524 496.057 980.802 496.686 980.802 497.42C980.802 498.155 980.524 498.783 979.968 499.306C979.422 499.829 978.766 500.091 977.998 500.091ZM997.497 540.148C995.594 540.148 993.958 539.903 992.59 539.413C991.221 538.935 990.081 538.301 989.168 537.511C988.267 536.732 987.549 535.897 987.015 535.007L990.153 532.804C990.509 533.271 990.96 533.805 991.505 534.406C992.05 535.018 992.795 535.547 993.741 535.992C994.698 536.448 995.95 536.676 997.497 536.676C999.566 536.676 1001.27 536.175 1002.62 535.174C1003.97 534.173 1004.64 532.604 1004.64 530.467V525.26H1004.31C1004.02 525.727 1003.61 526.306 1003.07 526.996C1002.55 527.674 1001.79 528.281 1000.8 528.815C999.822 529.338 998.498 529.599 996.829 529.599C994.759 529.599 992.901 529.11 991.254 528.131C989.619 527.152 988.322 525.727 987.366 523.858C986.42 521.989 985.947 519.719 985.947 517.048C985.947 514.422 986.409 512.136 987.332 510.189C988.256 508.23 989.541 506.717 991.188 505.649C992.834 504.569 994.737 504.03 996.896 504.03C998.565 504.03 999.889 504.308 1000.87 504.864C1001.86 505.41 1002.61 506.033 1003.14 506.734C1003.67 507.424 1004.08 507.991 1004.37 508.436H1004.77V504.364H1008.58V530.734C1008.58 532.938 1008.08 534.729 1007.08 536.109C1006.09 537.5 1004.75 538.518 1003.07 539.163C1001.4 539.819 999.544 540.148 997.497 540.148ZM997.363 526.061C998.943 526.061 1000.28 525.699 1001.37 524.976C1002.46 524.253 1003.29 523.213 1003.86 521.855C1004.42 520.498 1004.71 518.873 1004.71 516.982C1004.71 515.134 1004.43 513.504 1003.87 512.091C1003.32 510.678 1002.49 509.571 1001.4 508.77C1000.31 507.969 998.965 507.568 997.363 507.568C995.694 507.568 994.303 507.991 993.19 508.837C992.089 509.682 991.26 510.817 990.704 512.241C990.158 513.666 989.886 515.246 989.886 516.982C989.886 518.762 990.164 520.336 990.72 521.705C991.288 523.062 992.122 524.131 993.224 524.909C994.337 525.677 995.716 526.061 997.363 526.061ZM1026.14 540.148C1024.23 540.148 1022.6 539.903 1021.23 539.413C1019.86 538.935 1018.72 538.301 1017.81 537.511C1016.91 536.732 1016.19 535.897 1015.66 535.007L1018.79 532.804C1019.15 533.271 1019.6 533.805 1020.15 534.406C1020.69 535.018 1021.44 535.547 1022.38 535.992C1023.34 536.448 1024.59 536.676 1026.14 536.676C1028.21 536.676 1029.91 536.175 1031.26 535.174C1032.61 534.173 1033.28 532.604 1033.28 530.467V525.26H1032.95C1032.66 525.727 1032.25 526.306 1031.71 526.996C1031.19 527.674 1030.43 528.281 1029.44 528.815C1028.46 529.338 1027.14 529.599 1025.47 529.599C1023.4 529.599 1021.54 529.11 1019.9 528.131C1018.26 527.152 1016.96 525.727 1016.01 523.858C1015.06 521.989 1014.59 519.719 1014.59 517.048C1014.59 514.422 1015.05 512.136 1015.97 510.189C1016.9 508.23 1018.18 506.717 1019.83 505.649C1021.48 504.569 1023.38 504.03 1025.54 504.03C1027.21 504.03 1028.53 504.308 1029.51 504.864C1030.5 505.41 1031.26 506.033 1031.78 506.734C1032.31 507.424 1032.72 507.991 1033.01 508.436H1033.41V504.364H1037.22V530.734C1037.22 532.938 1036.72 534.729 1035.72 536.109C1034.73 537.5 1033.39 538.518 1031.71 539.163C1030.04 539.819 1028.18 540.148 1026.14 540.148ZM1026 526.061C1027.58 526.061 1028.92 525.699 1030.01 524.976C1031.1 524.253 1031.93 523.213 1032.5 521.855C1033.06 520.498 1033.35 518.873 1033.35 516.982C1033.35 515.134 1033.07 513.504 1032.51 512.091C1031.96 510.678 1031.13 509.571 1030.04 508.77C1028.95 507.969 1027.61 507.568 1026 507.568C1024.33 507.568 1022.94 507.991 1021.83 508.837C1020.73 509.682 1019.9 510.817 1019.34 512.241C1018.8 513.666 1018.53 515.246 1018.53 516.982C1018.53 518.762 1018.8 520.336 1019.36 521.705C1019.93 523.062 1020.76 524.131 1021.86 524.909C1022.98 525.677 1024.36 526.061 1026 526.061ZM1055.18 530.534C1052.71 530.534 1050.58 529.989 1048.79 528.898C1047.01 527.797 1045.63 526.261 1044.66 524.292C1043.71 522.311 1043.23 520.008 1043.23 517.382C1043.23 514.756 1043.71 512.442 1044.66 510.439C1045.63 508.425 1046.98 506.856 1048.7 505.732C1050.44 504.597 1052.46 504.03 1054.78 504.03C1056.11 504.03 1057.43 504.252 1058.73 504.697C1060.04 505.143 1061.22 505.866 1062.29 506.867C1063.36 507.857 1064.21 509.17 1064.84 510.806C1065.48 512.442 1065.79 514.456 1065.79 516.848V518.517H1046.03V515.112H1061.79C1061.79 513.666 1061.5 512.375 1060.92 511.24C1060.35 510.105 1059.54 509.209 1058.48 508.553C1057.44 507.896 1056.2 507.568 1054.78 507.568C1053.21 507.568 1051.85 507.958 1050.71 508.737C1049.57 509.504 1048.7 510.506 1048.09 511.741C1047.47 512.976 1047.17 514.3 1047.17 515.713V517.983C1047.17 519.919 1047.5 521.56 1048.17 522.907C1048.85 524.242 1049.79 525.26 1050.99 525.961C1052.19 526.651 1053.59 526.996 1055.18 526.996C1056.21 526.996 1057.15 526.851 1057.98 526.562C1058.83 526.261 1059.56 525.816 1060.17 525.227C1060.78 524.626 1061.25 523.88 1061.59 522.99L1065.39 524.058C1064.99 525.349 1064.32 526.484 1063.37 527.463C1062.43 528.431 1061.26 529.188 1059.87 529.733C1058.48 530.267 1056.91 530.534 1055.18 530.534ZM1089.94 510.105L1086.41 511.107C1086.18 510.517 1085.86 509.944 1085.42 509.387C1085 508.82 1084.42 508.353 1083.69 507.985C1082.95 507.618 1082.01 507.435 1080.86 507.435C1079.3 507.435 1077.99 507.796 1076.94 508.52C1075.91 509.232 1075.39 510.138 1075.39 511.24C1075.39 512.219 1075.75 512.993 1076.46 513.56C1077.17 514.127 1078.28 514.6 1079.8 514.979L1083.6 515.913C1085.89 516.47 1087.6 517.321 1088.73 518.467C1089.85 519.602 1090.41 521.065 1090.41 522.857C1090.41 524.325 1089.99 525.638 1089.14 526.795C1088.31 527.953 1087.14 528.865 1085.64 529.533C1084.14 530.2 1082.39 530.534 1080.4 530.534C1077.78 530.534 1075.62 529.967 1073.9 528.832C1072.19 527.697 1071.11 526.039 1070.65 523.858L1074.39 522.923C1074.75 524.303 1075.42 525.338 1076.41 526.028C1077.41 526.718 1078.72 527.062 1080.33 527.062C1082.17 527.062 1083.62 526.673 1084.7 525.894C1085.79 525.104 1086.34 524.158 1086.34 523.057C1086.34 522.167 1086.03 521.421 1085.4 520.82C1084.78 520.208 1083.82 519.752 1082.53 519.452L1078.26 518.45C1075.91 517.894 1074.19 517.032 1073.09 515.863C1072 514.684 1071.45 513.21 1071.45 511.44C1071.45 509.994 1071.86 508.714 1072.67 507.602C1073.49 506.489 1074.61 505.615 1076.02 504.981C1077.45 504.347 1079.06 504.03 1080.86 504.03C1083.4 504.03 1085.39 504.586 1086.84 505.699C1088.3 506.812 1089.33 508.28 1089.94 510.105ZM1107.49 504.364V507.702H1094.2V504.364H1107.49ZM1098.08 498.222H1102.02V522.656C1102.02 523.769 1102.18 524.603 1102.5 525.16C1102.83 525.705 1103.26 526.072 1103.77 526.261C1104.29 526.439 1104.84 526.528 1105.42 526.528C1105.85 526.528 1106.21 526.506 1106.49 526.462C1106.77 526.406 1106.99 526.362 1107.16 526.328L1107.96 529.866C1107.69 529.967 1107.32 530.067 1106.84 530.167C1106.36 530.278 1105.75 530.334 1105.02 530.334C1103.91 530.334 1102.82 530.095 1101.75 529.616C1100.69 529.138 1099.81 528.409 1099.11 527.43C1098.42 526.451 1098.08 525.215 1098.08 523.724V498.222ZM1119.29 525.327L1119.02 527.129C1118.83 528.398 1118.54 529.755 1118.16 531.202C1117.78 532.648 1117.38 534.011 1116.97 535.291C1116.56 536.57 1116.22 537.589 1115.95 538.345H1112.95C1113.09 537.633 1113.28 536.693 1113.52 535.525C1113.75 534.356 1113.98 533.049 1114.22 531.602C1114.46 530.167 1114.66 528.698 1114.82 527.196L1115.02 525.327H1119.29ZM1157.97 510.105L1154.43 511.107C1154.2 510.517 1153.88 509.944 1153.44 509.387C1153.02 508.82 1152.44 508.353 1151.71 507.985C1150.97 507.618 1150.03 507.435 1148.89 507.435C1147.32 507.435 1146.01 507.796 1144.96 508.52C1143.93 509.232 1143.41 510.138 1143.41 511.24C1143.41 512.219 1143.77 512.993 1144.48 513.56C1145.19 514.127 1146.3 514.6 1147.82 514.979L1151.62 515.913C1153.92 516.47 1155.62 517.321 1156.75 518.467C1157.87 519.602 1158.43 521.065 1158.43 522.857C1158.43 524.325 1158.01 525.638 1157.16 526.795C1156.33 527.953 1155.16 528.865 1153.66 529.533C1152.16 530.2 1150.41 530.534 1148.42 530.534C1145.8 530.534 1143.64 529.967 1141.93 528.832C1140.21 527.697 1139.13 526.039 1138.67 523.858L1142.41 522.923C1142.77 524.303 1143.44 525.338 1144.43 526.028C1145.43 526.718 1146.74 527.062 1148.35 527.062C1150.19 527.062 1151.65 526.673 1152.73 525.894C1153.82 525.104 1154.36 524.158 1154.36 523.057C1154.36 522.167 1154.05 521.421 1153.43 520.82C1152.8 520.208 1151.85 519.752 1150.56 519.452L1146.28 518.45C1143.93 517.894 1142.21 517.032 1141.11 515.863C1140.02 514.684 1139.47 513.21 1139.47 511.44C1139.47 509.994 1139.88 508.714 1140.69 507.602C1141.51 506.489 1142.63 505.615 1144.05 504.981C1145.47 504.347 1147.08 504.03 1148.89 504.03C1151.42 504.03 1153.41 504.586 1154.86 505.699C1156.32 506.812 1157.35 508.28 1157.97 510.105ZM1174.78 530.534C1172.46 530.534 1170.43 529.983 1168.69 528.882C1166.95 527.78 1165.59 526.239 1164.61 524.259C1163.64 522.278 1163.16 519.964 1163.16 517.315C1163.16 514.645 1163.64 512.314 1164.61 510.322C1165.59 508.33 1166.95 506.784 1168.69 505.682C1170.43 504.581 1172.46 504.03 1174.78 504.03C1177.09 504.03 1179.12 504.581 1180.85 505.682C1182.6 506.784 1183.96 508.33 1184.92 510.322C1185.9 512.314 1186.39 514.645 1186.39 517.315C1186.39 519.964 1185.9 522.278 1184.92 524.259C1183.96 526.239 1182.6 527.78 1180.85 528.882C1179.12 529.983 1177.09 530.534 1174.78 530.534ZM1174.78 526.996C1176.54 526.996 1177.98 526.545 1179.12 525.644C1180.25 524.743 1181.09 523.558 1181.64 522.089C1182.18 520.62 1182.45 519.029 1182.45 517.315C1182.45 515.602 1182.18 514.005 1181.64 512.525C1181.09 511.045 1180.25 509.849 1179.12 508.937C1177.98 508.024 1176.54 507.568 1174.78 507.568C1173.02 507.568 1171.57 508.024 1170.44 508.937C1169.3 509.849 1168.46 511.045 1167.92 512.525C1167.37 514.005 1167.1 515.602 1167.1 517.315C1167.1 519.029 1167.37 520.62 1167.92 522.089C1168.46 523.558 1169.3 524.743 1170.44 525.644C1171.57 526.545 1173.02 526.996 1174.78 526.996ZM937.922 587V561.364H941.728V565.236H941.995C942.462 563.967 943.308 562.938 944.532 562.148C945.756 561.358 947.136 560.963 948.671 560.963C948.96 560.963 949.322 560.969 949.756 560.98C950.19 560.991 950.518 561.008 950.741 561.03V565.036C950.607 565.002 950.301 564.952 949.823 564.885C949.355 564.807 948.86 564.768 948.337 564.768C947.091 564.768 945.978 565.03 944.999 565.553C944.031 566.065 943.263 566.777 942.696 567.689C942.14 568.591 941.861 569.62 941.861 570.777V587H937.922ZM955.41 587V561.364H959.349V587H955.41ZM957.413 557.091C956.645 557.091 955.983 556.829 955.426 556.306C954.881 555.783 954.609 555.155 954.609 554.42C954.609 553.686 954.881 553.057 955.426 552.534C955.983 552.011 956.645 551.75 957.413 551.75C958.18 551.75 958.837 552.011 959.382 552.534C959.938 553.057 960.217 553.686 960.217 554.42C960.217 555.155 959.938 555.783 959.382 556.306C958.837 556.829 958.18 557.091 957.413 557.091ZM984.722 567.105L981.184 568.107C980.961 567.517 980.633 566.944 980.199 566.387C979.776 565.82 979.198 565.353 978.463 564.985C977.729 564.618 976.789 564.435 975.643 564.435C974.074 564.435 972.766 564.796 971.72 565.52C970.686 566.232 970.168 567.138 970.168 568.24C970.168 569.219 970.524 569.993 971.236 570.56C971.949 571.127 973.061 571.6 974.574 571.979L978.38 572.913C980.672 573.47 982.38 574.321 983.504 575.467C984.628 576.602 985.19 578.065 985.19 579.857C985.19 581.325 984.767 582.638 983.921 583.795C983.087 584.953 981.918 585.865 980.416 586.533C978.914 587.2 977.167 587.534 975.175 587.534C972.561 587.534 970.396 586.967 968.683 585.832C966.969 584.697 965.884 583.039 965.428 580.858L969.167 579.923C969.523 581.303 970.196 582.338 971.186 583.028C972.188 583.718 973.495 584.062 975.109 584.062C976.945 584.062 978.402 583.673 979.481 582.894C980.572 582.104 981.117 581.158 981.117 580.057C981.117 579.167 980.806 578.421 980.182 577.82C979.559 577.208 978.602 576.752 977.312 576.452L973.039 575.45C970.691 574.894 968.967 574.032 967.865 572.863C966.775 571.684 966.229 570.21 966.229 568.44C966.229 566.994 966.635 565.714 967.448 564.602C968.271 563.489 969.389 562.615 970.802 561.981C972.227 561.347 973.84 561.03 975.643 561.03C978.18 561.03 980.171 561.586 981.618 562.699C983.075 563.812 984.11 565.28 984.722 567.105ZM1001.87 587.534C999.397 587.534 997.266 586.989 995.475 585.898C993.695 584.797 992.32 583.261 991.352 581.292C990.396 579.311 989.917 577.008 989.917 574.382C989.917 571.756 990.396 569.442 991.352 567.439C992.32 565.425 993.667 563.856 995.392 562.732C997.127 561.597 999.152 561.03 1001.47 561.03C1002.8 561.03 1004.12 561.252 1005.42 561.697C1006.72 562.143 1007.91 562.866 1008.98 563.867C1010.05 564.857 1010.9 566.17 1011.53 567.806C1012.17 569.442 1012.48 571.456 1012.48 573.848V575.517H992.721V572.112H1008.48C1008.48 570.666 1008.19 569.375 1007.61 568.24C1007.04 567.105 1006.23 566.209 1005.17 565.553C1004.13 564.896 1002.89 564.568 1001.47 564.568C999.898 564.568 998.54 564.958 997.394 565.737C996.259 566.504 995.386 567.506 994.774 568.741C994.162 569.976 993.856 571.3 993.856 572.713V574.983C993.856 576.919 994.19 578.56 994.857 579.907C995.536 581.242 996.476 582.26 997.678 582.961C998.88 583.651 1000.28 583.996 1001.87 583.996C1002.9 583.996 1003.84 583.851 1004.67 583.562C1005.52 583.261 1006.25 582.816 1006.86 582.227C1007.47 581.626 1007.94 580.88 1008.28 579.99L1012.08 581.058C1011.68 582.349 1011.01 583.484 1010.06 584.463C1009.12 585.431 1007.95 586.188 1006.56 586.733C1005.17 587.267 1003.6 587.534 1001.87 587.534ZM1036.63 567.105L1033.09 568.107C1032.87 567.517 1032.54 566.944 1032.11 566.387C1031.69 565.82 1031.11 565.353 1030.37 564.985C1029.64 564.618 1028.7 564.435 1027.55 564.435C1025.98 564.435 1024.68 564.796 1023.63 565.52C1022.6 566.232 1022.08 567.138 1022.08 568.24C1022.08 569.219 1022.44 569.993 1023.15 570.56C1023.86 571.127 1024.97 571.6 1026.49 571.979L1030.29 572.913C1032.58 573.47 1034.29 574.321 1035.41 575.467C1036.54 576.602 1037.1 578.065 1037.1 579.857C1037.1 581.325 1036.68 582.638 1035.83 583.795C1035 584.953 1033.83 585.865 1032.33 586.533C1030.83 587.2 1029.08 587.534 1027.09 587.534C1024.47 587.534 1022.31 586.967 1020.59 585.832C1018.88 584.697 1017.8 583.039 1017.34 580.858L1021.08 579.923C1021.43 581.303 1022.11 582.338 1023.1 583.028C1024.1 583.718 1025.41 584.062 1027.02 584.062C1028.86 584.062 1030.31 583.673 1031.39 582.894C1032.48 582.104 1033.03 581.158 1033.03 580.057C1033.03 579.167 1032.72 578.421 1032.09 577.82C1031.47 577.208 1030.51 576.752 1029.22 576.452L1024.95 575.45C1022.6 574.894 1020.88 574.032 1019.78 572.863C1018.69 571.684 1018.14 570.21 1018.14 568.44C1018.14 566.994 1018.55 565.714 1019.36 564.602C1020.18 563.489 1021.3 562.615 1022.71 561.981C1024.14 561.347 1025.75 561.03 1027.55 561.03C1030.09 561.03 1032.08 561.586 1033.53 562.699C1034.99 563.812 1036.02 565.28 1036.63 567.105ZM1074.41 567.105L1070.87 568.107C1070.65 567.517 1070.32 566.944 1069.88 566.387C1069.46 565.82 1068.88 565.353 1068.15 564.985C1067.41 564.618 1066.47 564.435 1065.33 564.435C1063.76 564.435 1062.45 564.796 1061.41 565.52C1060.37 566.232 1059.85 567.138 1059.85 568.24C1059.85 569.219 1060.21 569.993 1060.92 570.56C1061.63 571.127 1062.75 571.6 1064.26 571.979L1068.07 572.913C1070.36 573.47 1072.07 574.321 1073.19 575.467C1074.31 576.602 1074.88 578.065 1074.88 579.857C1074.88 581.325 1074.45 582.638 1073.61 583.795C1072.77 584.953 1071.6 585.865 1070.1 586.533C1068.6 587.2 1066.85 587.534 1064.86 587.534C1062.25 587.534 1060.08 586.967 1058.37 585.832C1056.65 584.697 1055.57 583.039 1055.11 580.858L1058.85 579.923C1059.21 581.303 1059.88 582.338 1060.87 583.028C1061.87 583.718 1063.18 584.062 1064.79 584.062C1066.63 584.062 1068.09 583.673 1069.17 582.894C1070.26 582.104 1070.8 581.158 1070.8 580.057C1070.8 579.167 1070.49 578.421 1069.87 577.82C1069.24 577.208 1068.29 576.752 1067 576.452L1062.72 575.45C1060.38 574.894 1058.65 574.032 1057.55 572.863C1056.46 571.684 1055.91 570.21 1055.91 568.44C1055.91 566.994 1056.32 565.714 1057.13 564.602C1057.96 563.489 1059.07 562.615 1060.49 561.981C1061.91 561.347 1063.53 561.03 1065.33 561.03C1067.87 561.03 1069.86 561.586 1071.3 562.699C1072.76 563.812 1073.8 565.28 1074.41 567.105ZM1084.74 552.818V587H1080.8V552.818H1084.74ZM1102.37 587.534C1100.06 587.534 1098.03 586.983 1096.28 585.882C1094.54 584.78 1093.19 583.239 1092.21 581.259C1091.24 579.278 1090.76 576.964 1090.76 574.315C1090.76 571.645 1091.24 569.314 1092.21 567.322C1093.19 565.33 1094.54 563.784 1096.28 562.682C1098.03 561.581 1100.06 561.03 1102.37 561.03C1104.69 561.03 1106.71 561.581 1108.45 562.682C1110.19 563.784 1111.55 565.33 1112.52 567.322C1113.5 569.314 1113.99 571.645 1113.99 574.315C1113.99 576.964 1113.5 579.278 1112.52 581.259C1111.55 583.239 1110.19 584.78 1108.45 585.882C1106.71 586.983 1104.69 587.534 1102.37 587.534ZM1102.37 583.996C1104.13 583.996 1105.58 583.545 1106.71 582.644C1107.85 581.743 1108.69 580.558 1109.23 579.089C1109.78 577.62 1110.05 576.029 1110.05 574.315C1110.05 572.602 1109.78 571.005 1109.23 569.525C1108.69 568.045 1107.85 566.849 1106.71 565.937C1105.58 565.024 1104.13 564.568 1102.37 564.568C1100.61 564.568 1099.17 565.024 1098.03 565.937C1096.9 566.849 1096.06 568.045 1095.51 569.525C1094.97 571.005 1094.69 572.602 1094.69 574.315C1094.69 576.029 1094.97 577.62 1095.51 579.089C1096.06 580.558 1096.9 581.743 1098.03 582.644C1099.17 583.545 1100.61 583.996 1102.37 583.996ZM1124.94 587L1117.13 561.364H1121.27L1126.81 580.991H1127.07L1132.55 561.364H1136.75L1142.16 580.925H1142.43L1147.97 561.364H1152.11L1144.3 587H1140.43L1134.82 567.305H1134.42L1128.81 587H1124.94ZM1167.19 587.534C1164.72 587.534 1162.59 586.989 1160.8 585.898C1159.02 584.797 1157.65 583.261 1156.68 581.292C1155.72 579.311 1155.24 577.008 1155.24 574.382C1155.24 571.756 1155.72 569.442 1156.68 567.439C1157.65 565.425 1158.99 563.856 1160.72 562.732C1162.45 561.597 1164.48 561.03 1166.79 561.03C1168.13 561.03 1169.45 561.252 1170.75 561.697C1172.05 562.143 1173.24 562.866 1174.3 563.867C1175.37 564.857 1176.22 566.17 1176.86 567.806C1177.49 569.442 1177.81 571.456 1177.81 573.848V575.517H1158.05V572.112H1173.8C1173.8 570.666 1173.51 569.375 1172.94 568.24C1172.37 567.105 1171.56 566.209 1170.5 565.553C1169.45 564.896 1168.22 564.568 1166.79 564.568C1165.22 564.568 1163.87 564.958 1162.72 565.737C1161.59 566.504 1160.71 567.506 1160.1 568.741C1159.49 569.976 1159.18 571.3 1159.18 572.713V574.983C1159.18 576.919 1159.52 578.56 1160.18 579.907C1160.86 581.242 1161.8 582.26 1163 582.961C1164.21 583.651 1165.6 583.996 1167.19 583.996C1168.23 583.996 1169.16 583.851 1170 583.562C1170.84 583.261 1171.57 582.816 1172.18 582.227C1172.8 581.626 1173.27 580.88 1173.6 579.99L1177.41 581.058C1177.01 582.349 1176.33 583.484 1175.39 584.463C1174.44 585.431 1173.27 586.188 1171.88 586.733C1170.49 587.267 1168.93 587.534 1167.19 587.534ZM1183.8 587V561.364H1187.61V565.236H1187.87C1188.34 563.967 1189.19 562.938 1190.41 562.148C1191.63 561.358 1193.01 560.963 1194.55 560.963C1194.84 560.963 1195.2 560.969 1195.63 560.98C1196.07 560.991 1196.4 561.008 1196.62 561.03V565.036C1196.49 565.002 1196.18 564.952 1195.7 564.885C1195.23 564.807 1194.74 564.768 1194.22 564.768C1192.97 564.768 1191.86 565.03 1190.88 565.553C1189.91 566.065 1189.14 566.777 1188.57 567.689C1188.02 568.591 1187.74 569.62 1187.74 570.777V587H1183.8Z" fill="white"/>
<path d="M589.675 140V105.818H593.614V118.436H593.948C594.237 117.991 594.637 117.424 595.149 116.734C595.672 116.033 596.418 115.41 597.386 114.864C598.365 114.308 599.689 114.03 601.358 114.03C603.517 114.03 605.419 114.569 607.066 115.649C608.713 116.728 609.998 118.258 610.922 120.239C611.845 122.219 612.307 124.556 612.307 127.249C612.307 129.964 611.845 132.317 610.922 134.309C609.998 136.289 608.719 137.825 607.083 138.915C605.447 139.994 603.561 140.534 601.425 140.534C599.778 140.534 598.46 140.261 597.469 139.716C596.479 139.16 595.717 138.531 595.183 137.83C594.649 137.118 594.237 136.528 593.948 136.061H593.48V140H589.675ZM593.547 127.182C593.547 129.118 593.831 130.826 594.398 132.306C594.966 133.775 595.795 134.926 596.885 135.761C597.976 136.584 599.311 136.996 600.891 136.996C602.538 136.996 603.912 136.562 605.013 135.694C606.126 134.815 606.96 133.635 607.517 132.156C608.084 130.665 608.368 129.007 608.368 127.182C608.368 125.379 608.09 123.755 607.534 122.308C606.988 120.851 606.159 119.699 605.047 118.853C603.945 117.997 602.56 117.568 600.891 117.568C599.288 117.568 597.942 117.974 596.852 118.787C595.761 119.588 594.938 120.712 594.382 122.158C593.825 123.593 593.547 125.268 593.547 127.182ZM618.332 140V114.364H622.271V140H618.332ZM620.335 110.091C619.567 110.091 618.905 109.829 618.349 109.306C617.804 108.783 617.531 108.155 617.531 107.42C617.531 106.686 617.804 106.057 618.349 105.534C618.905 105.011 619.567 104.75 620.335 104.75C621.103 104.75 621.759 105.011 622.304 105.534C622.861 106.057 623.139 106.686 623.139 107.42C623.139 108.155 622.861 108.783 622.304 109.306C621.759 109.829 621.103 110.091 620.335 110.091ZM639.833 150.148C637.931 150.148 636.295 149.903 634.927 149.413C633.558 148.935 632.417 148.301 631.505 147.511C630.604 146.732 629.886 145.897 629.352 145.007L632.49 142.804C632.846 143.271 633.296 143.805 633.842 144.406C634.387 145.018 635.132 145.547 636.078 145.992C637.035 146.448 638.287 146.676 639.833 146.676C641.903 146.676 643.611 146.175 644.957 145.174C646.304 144.173 646.977 142.604 646.977 140.467V135.26H646.643C646.354 135.727 645.942 136.306 645.408 136.996C644.885 137.674 644.128 138.281 643.138 138.815C642.159 139.338 640.835 139.599 639.166 139.599C637.096 139.599 635.238 139.11 633.591 138.131C631.956 137.152 630.659 135.727 629.702 133.858C628.757 131.989 628.284 129.719 628.284 127.048C628.284 124.422 628.746 122.136 629.669 120.189C630.593 118.23 631.878 116.717 633.525 115.649C635.171 114.569 637.074 114.03 639.233 114.03C640.902 114.03 642.226 114.308 643.205 114.864C644.195 115.41 644.952 116.033 645.475 116.734C646.009 117.424 646.421 117.991 646.71 118.436H647.11V114.364H650.916V140.734C650.916 142.938 650.415 144.729 649.414 146.109C648.423 147.5 647.088 148.518 645.408 149.163C643.739 149.819 641.881 150.148 639.833 150.148ZM639.7 136.061C641.28 136.061 642.615 135.699 643.706 134.976C644.796 134.253 645.625 133.213 646.193 131.855C646.76 130.498 647.044 128.873 647.044 126.982C647.044 125.134 646.766 123.504 646.209 122.091C645.653 120.678 644.829 119.571 643.739 118.77C642.649 117.969 641.302 117.568 639.7 117.568C638.031 117.568 636.64 117.991 635.527 118.837C634.426 119.682 633.597 120.817 633.041 122.241C632.495 123.666 632.223 125.246 632.223 126.982C632.223 128.762 632.501 130.336 633.057 131.705C633.625 133.062 634.459 134.131 635.561 134.909C636.673 135.677 638.053 136.061 639.7 136.061ZM668.474 150.148C666.571 150.148 664.936 149.903 663.567 149.413C662.199 148.935 661.058 148.301 660.146 147.511C659.244 146.732 658.527 145.897 657.993 145.007L661.13 142.804C661.486 143.271 661.937 143.805 662.482 144.406C663.028 145.018 663.773 145.547 664.719 145.992C665.676 146.448 666.927 146.676 668.474 146.676C670.544 146.676 672.252 146.175 673.598 145.174C674.944 144.173 675.618 142.604 675.618 140.467V135.26H675.284C674.994 135.727 674.583 136.306 674.049 136.996C673.526 137.674 672.769 138.281 671.779 138.815C670.8 139.338 669.476 139.599 667.807 139.599C665.737 139.599 663.879 139.11 662.232 138.131C660.596 137.152 659.3 135.727 658.343 133.858C657.397 131.989 656.924 129.719 656.924 127.048C656.924 124.422 657.386 122.136 658.31 120.189C659.233 118.23 660.518 116.717 662.165 115.649C663.812 114.569 665.715 114.03 667.873 114.03C669.542 114.03 670.866 114.308 671.846 114.864C672.836 115.41 673.592 116.033 674.115 116.734C674.65 117.424 675.061 117.991 675.351 118.436H675.751V114.364H679.557V140.734C679.557 142.938 679.056 144.729 678.054 146.109C677.064 147.5 675.729 148.518 674.049 149.163C672.38 149.819 670.521 150.148 668.474 150.148ZM668.341 136.061C669.921 136.061 671.256 135.699 672.346 134.976C673.437 134.253 674.266 133.213 674.833 131.855C675.401 130.498 675.684 128.873 675.684 126.982C675.684 125.134 675.406 123.504 674.85 122.091C674.293 120.678 673.47 119.571 672.38 118.77C671.289 117.969 669.943 117.568 668.341 117.568C666.672 117.568 665.281 117.991 664.168 118.837C663.066 119.682 662.237 120.817 661.681 122.241C661.136 123.666 660.863 125.246 660.863 126.982C660.863 128.762 661.141 130.336 661.698 131.705C662.265 133.062 663.1 134.131 664.201 134.909C665.314 135.677 666.694 136.061 668.341 136.061ZM697.515 140.534C695.045 140.534 692.914 139.989 691.123 138.898C689.343 137.797 687.968 136.261 687 134.292C686.043 132.311 685.565 130.008 685.565 127.382C685.565 124.756 686.043 122.442 687 120.439C687.968 118.425 689.315 116.856 691.039 115.732C692.775 114.597 694.8 114.03 697.115 114.03C698.45 114.03 699.769 114.252 701.07 114.697C702.372 115.143 703.557 115.866 704.625 116.867C705.694 117.857 706.545 119.17 707.179 120.806C707.813 122.442 708.13 124.456 708.13 126.848V128.517H688.369V125.112H704.125C704.125 123.666 703.835 122.375 703.257 121.24C702.689 120.105 701.877 119.209 700.82 118.553C699.774 117.896 698.539 117.568 697.115 117.568C695.546 117.568 694.188 117.958 693.042 118.737C691.907 119.504 691.034 120.506 690.422 121.741C689.81 122.976 689.504 124.3 689.504 125.713V127.983C689.504 129.919 689.838 131.56 690.505 132.907C691.184 134.242 692.124 135.26 693.326 135.961C694.528 136.651 695.924 136.996 697.515 136.996C698.55 136.996 699.485 136.851 700.319 136.562C701.165 136.261 701.894 135.816 702.506 135.227C703.118 134.626 703.591 133.88 703.924 132.99L707.73 134.058C707.329 135.349 706.656 136.484 705.71 137.463C704.764 138.431 703.596 139.188 702.205 139.733C700.814 140.267 699.251 140.534 697.515 140.534ZM732.281 120.105L728.743 121.107C728.52 120.517 728.192 119.944 727.758 119.387C727.335 118.82 726.757 118.353 726.022 117.985C725.288 117.618 724.348 117.435 723.202 117.435C721.633 117.435 720.325 117.796 719.28 118.52C718.245 119.232 717.727 120.138 717.727 121.24C717.727 122.219 718.083 122.993 718.795 123.56C719.508 124.127 720.62 124.6 722.134 124.979L725.939 125.913C728.231 126.47 729.939 127.321 731.063 128.467C732.187 129.602 732.749 131.065 732.749 132.857C732.749 134.325 732.326 135.638 731.48 136.795C730.646 137.953 729.477 138.865 727.975 139.533C726.473 140.2 724.726 140.534 722.734 140.534C720.12 140.534 717.955 139.967 716.242 138.832C714.528 137.697 713.443 136.039 712.987 133.858L716.726 132.923C717.082 134.303 717.755 135.338 718.745 136.028C719.747 136.718 721.054 137.062 722.668 137.062C724.504 137.062 725.961 136.673 727.041 135.894C728.131 135.104 728.676 134.158 728.676 133.057C728.676 132.167 728.365 131.421 727.742 130.82C727.118 130.208 726.162 129.752 724.871 129.452L720.598 128.45C718.25 127.894 716.526 127.032 715.424 125.863C714.334 124.684 713.788 123.21 713.788 121.44C713.788 119.994 714.195 118.714 715.007 117.602C715.83 116.489 716.948 115.615 718.362 114.981C719.786 114.347 721.399 114.03 723.202 114.03C725.739 114.03 727.73 114.586 729.177 115.699C730.635 116.812 731.669 118.28 732.281 120.105ZM749.827 114.364V117.702H736.542V114.364H749.827ZM740.414 108.222H744.353V132.656C744.353 133.769 744.514 134.603 744.837 135.16C745.17 135.705 745.593 136.072 746.105 136.261C746.628 136.439 747.179 136.528 747.757 136.528C748.191 136.528 748.547 136.506 748.826 136.462C749.104 136.406 749.326 136.362 749.493 136.328L750.294 139.866C750.027 139.967 749.655 140.067 749.176 140.167C748.698 140.278 748.091 140.334 747.357 140.334C746.244 140.334 745.154 140.095 744.086 139.616C743.028 139.138 742.149 138.409 741.448 137.43C740.759 136.451 740.414 135.215 740.414 133.724V108.222ZM761.627 135.327L761.36 137.129C761.171 138.398 760.882 139.755 760.492 141.202C760.114 142.648 759.719 144.011 759.307 145.291C758.895 146.57 758.556 147.589 758.289 148.345H755.285C755.429 147.633 755.619 146.693 755.852 145.525C756.086 144.356 756.32 143.049 756.553 141.602C756.798 140.167 756.998 138.698 757.154 137.196L757.354 135.327H761.627ZM800.303 120.105L796.764 121.107C796.542 120.517 796.214 119.944 795.78 119.387C795.357 118.82 794.778 118.353 794.044 117.985C793.31 117.618 792.369 117.435 791.223 117.435C789.654 117.435 788.347 117.796 787.301 118.52C786.266 119.232 785.749 120.138 785.749 121.24C785.749 122.219 786.105 122.993 786.817 123.56C787.529 124.127 788.642 124.6 790.155 124.979L793.96 125.913C796.253 126.47 797.961 127.321 799.084 128.467C800.208 129.602 800.77 131.065 800.77 132.857C800.77 134.325 800.347 135.638 799.502 136.795C798.667 137.953 797.499 138.865 795.997 139.533C794.495 140.2 792.748 140.534 790.756 140.534C788.141 140.534 785.977 139.967 784.263 138.832C782.55 137.697 781.465 136.039 781.009 133.858L784.747 132.923C785.103 134.303 785.777 135.338 786.767 136.028C787.768 136.718 789.076 137.062 790.689 137.062C792.525 137.062 793.983 136.673 795.062 135.894C796.152 135.104 796.698 134.158 796.698 133.057C796.698 132.167 796.386 131.421 795.763 130.82C795.14 130.208 794.183 129.752 792.892 129.452L788.62 128.45C786.272 127.894 784.547 127.032 783.446 125.863C782.355 124.684 781.81 123.21 781.81 121.44C781.81 119.994 782.216 118.714 783.028 117.602C783.852 116.489 784.97 115.615 786.383 114.981C787.807 114.347 789.421 114.03 791.223 114.03C793.76 114.03 795.752 114.586 797.198 115.699C798.656 116.812 799.691 118.28 800.303 120.105ZM817.114 140.534C814.8 140.534 812.769 139.983 811.022 138.882C809.286 137.78 807.929 136.239 806.95 134.259C805.982 132.278 805.498 129.964 805.498 127.315C805.498 124.645 805.982 122.314 806.95 120.322C807.929 118.33 809.286 116.784 811.022 115.682C812.769 114.581 814.8 114.03 817.114 114.03C819.429 114.03 821.454 114.581 823.189 115.682C824.936 116.784 826.294 118.33 827.262 120.322C828.241 122.314 828.731 124.645 828.731 127.315C828.731 129.964 828.241 132.278 827.262 134.259C826.294 136.239 824.936 137.78 823.189 138.882C821.454 139.983 819.429 140.534 817.114 140.534ZM817.114 136.996C818.872 136.996 820.319 136.545 821.454 135.644C822.589 134.743 823.429 133.558 823.974 132.089C824.519 130.62 824.792 129.029 824.792 127.315C824.792 125.602 824.519 124.005 823.974 122.525C823.429 121.045 822.589 119.849 821.454 118.937C820.319 118.024 818.872 117.568 817.114 117.568C815.356 117.568 813.91 118.024 812.775 118.937C811.64 119.849 810.8 121.045 810.254 122.525C809.709 124.005 809.437 125.602 809.437 127.315C809.437 129.029 809.709 130.62 810.254 132.089C810.8 133.558 811.64 134.743 812.775 135.644C813.91 136.545 815.356 136.996 817.114 136.996ZM847.962 140V114.364H851.767V118.236H852.034C852.502 116.967 853.347 115.938 854.571 115.148C855.795 114.358 857.175 113.963 858.711 113.963C859 113.963 859.362 113.969 859.795 113.98C860.229 113.991 860.558 114.008 860.78 114.03V118.036C860.647 118.002 860.341 117.952 859.862 117.885C859.395 117.807 858.9 117.768 858.377 117.768C857.131 117.768 856.018 118.03 855.039 118.553C854.071 119.065 853.303 119.777 852.735 120.689C852.179 121.591 851.901 122.62 851.901 123.777V140H847.962ZM865.449 140V114.364H869.388V140H865.449ZM867.452 110.091C866.684 110.091 866.022 109.829 865.466 109.306C864.921 108.783 864.648 108.155 864.648 107.42C864.648 106.686 864.921 106.057 865.466 105.534C866.022 105.011 866.684 104.75 867.452 104.75C868.22 104.75 868.876 105.011 869.422 105.534C869.978 106.057 870.256 106.686 870.256 107.42C870.256 108.155 869.978 108.783 869.422 109.306C868.876 109.829 868.22 110.091 867.452 110.091ZM894.762 120.105L891.223 121.107C891.001 120.517 890.673 119.944 890.239 119.387C889.816 118.82 889.237 118.353 888.503 117.985C887.769 117.618 886.828 117.435 885.682 117.435C884.113 117.435 882.806 117.796 881.76 118.52C880.725 119.232 880.208 120.138 880.208 121.24C880.208 122.219 880.564 122.993 881.276 123.56C881.988 124.127 883.101 124.6 884.614 124.979L888.419 125.913C890.712 126.47 892.42 127.321 893.543 128.467C894.667 129.602 895.229 131.065 895.229 132.857C895.229 134.325 894.806 135.638 893.961 136.795C893.126 137.953 891.958 138.865 890.456 139.533C888.954 140.2 887.207 140.534 885.215 140.534C882.6 140.534 880.436 139.967 878.722 138.832C877.009 137.697 875.924 136.039 875.468 133.858L879.206 132.923C879.562 134.303 880.236 135.338 881.226 136.028C882.227 136.718 883.535 137.062 885.148 137.062C886.984 137.062 888.442 136.673 889.521 135.894C890.611 135.104 891.157 134.158 891.157 133.057C891.157 132.167 890.845 131.421 890.222 130.82C889.599 130.208 888.642 129.752 887.351 129.452L883.079 128.45C880.731 127.894 879.006 127.032 877.905 125.863C876.814 124.684 876.269 123.21 876.269 121.44C876.269 119.994 876.675 118.714 877.487 117.602C878.311 116.489 879.429 115.615 880.842 114.981C882.266 114.347 883.88 114.03 885.682 114.03C888.219 114.03 890.211 114.586 891.657 115.699C893.115 116.812 894.15 118.28 894.762 120.105ZM911.907 140.534C909.437 140.534 907.306 139.989 905.515 138.898C903.734 137.797 902.36 136.261 901.392 134.292C900.435 132.311 899.957 130.008 899.957 127.382C899.957 124.756 900.435 122.442 901.392 120.439C902.36 118.425 903.706 116.856 905.431 115.732C907.167 114.597 909.192 114.03 911.506 114.03C912.842 114.03 914.16 114.252 915.462 114.697C916.764 115.143 917.949 115.866 919.017 116.867C920.085 117.857 920.936 119.17 921.571 120.806C922.205 122.442 922.522 124.456 922.522 126.848V128.517H902.761V125.112H918.516C918.516 123.666 918.227 122.375 917.648 121.24C917.081 120.105 916.269 119.209 915.212 118.553C914.166 117.896 912.931 117.568 911.506 117.568C909.937 117.568 908.58 117.958 907.434 118.737C906.299 119.504 905.426 120.506 904.814 121.741C904.202 122.976 903.896 124.3 903.896 125.713V127.983C903.896 129.919 904.229 131.56 904.897 132.907C905.576 134.242 906.516 135.26 907.718 135.961C908.919 136.651 910.316 136.996 911.907 136.996C912.942 136.996 913.876 136.851 914.711 136.562C915.557 136.261 916.285 135.816 916.897 135.227C917.509 134.626 917.982 133.88 918.316 132.99L922.121 134.058C921.721 135.349 921.048 136.484 920.102 137.463C919.156 138.431 917.988 139.188 916.597 139.733C915.206 140.267 913.643 140.534 911.907 140.534ZM946.673 120.105L943.135 121.107C942.912 120.517 942.584 119.944 942.15 119.387C941.727 118.82 941.148 118.353 940.414 117.985C939.68 117.618 938.739 117.435 937.593 117.435C936.024 117.435 934.717 117.796 933.671 118.52C932.636 119.232 932.119 120.138 932.119 121.24C932.119 122.219 932.475 122.993 933.187 123.56C933.899 124.127 935.012 124.6 936.525 124.979L940.331 125.913C942.623 126.47 944.331 127.321 945.455 128.467C946.578 129.602 947.14 131.065 947.14 132.857C947.14 134.325 946.717 135.638 945.872 136.795C945.037 137.953 943.869 138.865 942.367 139.533C940.865 140.2 939.118 140.534 937.126 140.534C934.511 140.534 932.347 139.967 930.633 138.832C928.92 137.697 927.835 136.039 927.379 133.858L931.117 132.923C931.474 134.303 932.147 135.338 933.137 136.028C934.138 136.718 935.446 137.062 937.059 137.062C938.895 137.062 940.353 136.673 941.432 135.894C942.523 135.104 943.068 134.158 943.068 133.057C943.068 132.167 942.756 131.421 942.133 130.82C941.51 130.208 940.553 129.752 939.262 129.452L934.99 128.45C932.642 127.894 930.917 127.032 929.816 125.863C928.725 124.684 928.18 123.21 928.18 121.44C928.18 119.994 928.586 118.714 929.398 117.602C930.222 116.489 931.34 115.615 932.753 114.981C934.177 114.347 935.791 114.03 937.593 114.03C940.13 114.03 942.122 114.586 943.568 115.699C945.026 116.812 946.061 118.28 946.673 120.105ZM662.758 171.364V174.702H649.472V171.364H662.758ZM653.344 165.222H657.283V189.656C657.283 190.769 657.445 191.603 657.767 192.16C658.101 192.705 658.524 193.072 659.036 193.261C659.559 193.439 660.109 193.528 660.688 193.528C661.122 193.528 661.478 193.506 661.756 193.462C662.034 193.406 662.257 193.362 662.424 193.328L663.225 196.866C662.958 196.967 662.585 197.067 662.107 197.167C661.628 197.278 661.022 197.334 660.288 197.334C659.175 197.334 658.084 197.095 657.016 196.616C655.959 196.138 655.08 195.409 654.379 194.43C653.689 193.451 653.344 192.215 653.344 190.724V165.222ZM673.172 181.578V197H669.234V162.818H673.172V175.369H673.506C674.107 174.045 675.008 172.994 676.21 172.215C677.423 171.425 679.036 171.03 681.05 171.03C682.797 171.03 684.327 171.38 685.64 172.081C686.953 172.771 687.971 173.834 688.694 175.269C689.429 176.693 689.796 178.507 689.796 180.71V197H685.857V180.977C685.857 178.941 685.329 177.367 684.272 176.254C683.226 175.13 681.774 174.568 679.915 174.568C678.625 174.568 677.467 174.841 676.444 175.386C675.431 175.931 674.63 176.727 674.04 177.773C673.462 178.819 673.172 180.087 673.172 181.578ZM707.751 197.534C705.28 197.534 703.15 196.989 701.358 195.898C699.578 194.797 698.204 193.261 697.236 191.292C696.279 189.311 695.8 187.008 695.8 184.382C695.8 181.756 696.279 179.442 697.236 177.439C698.204 175.425 699.55 173.856 701.275 172.732C703.011 171.597 705.036 171.03 707.35 171.03C708.685 171.03 710.004 171.252 711.306 171.697C712.608 172.143 713.793 172.866 714.861 173.867C715.929 174.857 716.78 176.17 717.414 177.806C718.049 179.442 718.366 181.456 718.366 183.848V185.517H698.604V182.112H714.36C714.36 180.666 714.071 179.375 713.492 178.24C712.925 177.105 712.112 176.209 711.055 175.553C710.009 174.896 708.774 174.568 707.35 174.568C705.781 174.568 704.424 174.958 703.278 175.737C702.143 176.504 701.269 177.506 700.657 178.741C700.045 179.976 699.739 181.3 699.739 182.713V184.983C699.739 186.919 700.073 188.56 700.741 189.907C701.419 191.242 702.36 192.26 703.561 192.961C704.763 193.651 706.16 193.996 707.751 193.996C708.785 193.996 709.72 193.851 710.555 193.562C711.4 193.261 712.129 192.816 712.741 192.227C713.353 191.626 713.826 190.88 714.16 189.99L717.965 191.058C717.565 192.349 716.891 193.484 715.946 194.463C715 195.431 713.832 196.188 712.441 196.733C711.05 197.267 709.486 197.534 707.751 197.534ZM748.992 171.364V174.702H735.173V171.364H748.992ZM739.312 197V167.825C739.312 166.357 739.657 165.133 740.347 164.153C741.037 163.174 741.932 162.44 743.034 161.95C744.136 161.461 745.298 161.216 746.522 161.216C747.49 161.216 748.28 161.294 748.892 161.45C749.504 161.605 749.961 161.75 750.261 161.884L749.126 165.288C748.926 165.222 748.648 165.138 748.292 165.038C747.947 164.938 747.49 164.888 746.923 164.888C745.621 164.888 744.681 165.216 744.102 165.873C743.535 166.529 743.251 167.491 743.251 168.76V197H739.312ZM761.322 197.601C759.698 197.601 758.224 197.295 756.9 196.683C755.575 196.06 754.524 195.164 753.745 193.996C752.966 192.816 752.577 191.392 752.577 189.723C752.577 188.254 752.866 187.064 753.445 186.151C754.023 185.228 754.797 184.504 755.765 183.982C756.733 183.459 757.801 183.069 758.969 182.813C760.149 182.546 761.334 182.335 762.524 182.179C764.082 181.979 765.345 181.828 766.313 181.728C767.292 181.617 768.004 181.433 768.449 181.178C768.905 180.922 769.134 180.477 769.134 179.842V179.709C769.134 178.062 768.683 176.782 767.782 175.87C766.891 174.958 765.54 174.501 763.726 174.501C761.845 174.501 760.371 174.913 759.303 175.737C758.235 176.56 757.484 177.439 757.05 178.374L753.311 177.038C753.979 175.481 754.869 174.268 755.982 173.4C757.105 172.521 758.329 171.909 759.653 171.564C760.989 171.208 762.302 171.03 763.592 171.03C764.416 171.03 765.362 171.13 766.43 171.33C767.509 171.519 768.549 171.914 769.551 172.515C770.563 173.116 771.403 174.023 772.071 175.236C772.739 176.449 773.072 178.073 773.072 180.109V197H769.134V193.528H768.933C768.666 194.085 768.221 194.68 767.598 195.314C766.975 195.949 766.146 196.488 765.111 196.933C764.076 197.378 762.813 197.601 761.322 197.601ZM761.923 194.062C763.481 194.062 764.794 193.757 765.862 193.145C766.942 192.533 767.754 191.743 768.299 190.775C768.855 189.806 769.134 188.788 769.134 187.72V184.115C768.967 184.315 768.599 184.499 768.032 184.666C767.476 184.822 766.83 184.961 766.096 185.083C765.373 185.194 764.666 185.295 763.976 185.384C763.298 185.461 762.747 185.528 762.324 185.584C761.3 185.717 760.343 185.934 759.453 186.235C758.574 186.524 757.862 186.964 757.317 187.553C756.783 188.132 756.516 188.922 756.516 189.923C756.516 191.292 757.022 192.327 758.034 193.028C759.058 193.718 760.354 194.062 761.923 194.062ZM798.421 177.105L794.883 178.107C794.66 177.517 794.332 176.944 793.898 176.387C793.475 175.82 792.896 175.353 792.162 174.985C791.428 174.618 790.487 174.435 789.341 174.435C787.773 174.435 786.465 174.796 785.419 175.52C784.384 176.232 783.867 177.138 783.867 178.24C783.867 179.219 784.223 179.993 784.935 180.56C785.647 181.127 786.76 181.6 788.273 181.979L792.079 182.913C794.371 183.47 796.079 184.321 797.203 185.467C798.326 186.602 798.888 188.065 798.888 189.857C798.888 191.325 798.465 192.638 797.62 193.795C796.785 194.953 795.617 195.865 794.115 196.533C792.613 197.2 790.866 197.534 788.874 197.534C786.259 197.534 784.095 196.967 782.382 195.832C780.668 194.697 779.583 193.039 779.127 190.858L782.866 189.923C783.222 191.303 783.895 192.338 784.885 193.028C785.886 193.718 787.194 194.062 788.807 194.062C790.643 194.062 792.101 193.673 793.18 192.894C794.271 192.104 794.816 191.158 794.816 190.057C794.816 189.167 794.504 188.421 793.881 187.82C793.258 187.208 792.301 186.752 791.01 186.452L786.738 185.45C784.39 184.894 782.665 184.032 781.564 182.863C780.473 181.684 779.928 180.21 779.928 178.44C779.928 176.994 780.334 175.714 781.146 174.602C781.97 173.489 783.088 172.615 784.501 171.981C785.925 171.347 787.539 171.03 789.341 171.03C791.878 171.03 793.87 171.586 795.317 172.699C796.774 173.812 797.809 175.28 798.421 177.105ZM815.967 171.364V174.702H802.681V171.364H815.967ZM806.553 165.222H810.492V189.656C810.492 190.769 810.654 191.603 810.976 192.16C811.31 192.705 811.733 193.072 812.245 193.261C812.768 193.439 813.318 193.528 813.897 193.528C814.331 193.528 814.687 193.506 814.965 193.462C815.243 193.406 815.466 193.362 815.633 193.328L816.434 196.866C816.167 196.967 815.794 197.067 815.316 197.167C814.837 197.278 814.231 197.334 813.496 197.334C812.384 197.334 811.293 197.095 810.225 196.616C809.168 196.138 808.289 195.409 807.588 194.43C806.898 193.451 806.553 192.215 806.553 190.724V165.222ZM832.365 197.534C829.895 197.534 827.764 196.989 825.973 195.898C824.192 194.797 822.818 193.261 821.85 191.292C820.893 189.311 820.415 187.008 820.415 184.382C820.415 181.756 820.893 179.442 821.85 177.439C822.818 175.425 824.164 173.856 825.889 172.732C827.625 171.597 829.65 171.03 831.964 171.03C833.3 171.03 834.618 171.252 835.92 171.697C837.222 172.143 838.407 172.866 839.475 173.867C840.543 174.857 841.394 176.17 842.029 177.806C842.663 179.442 842.98 181.456 842.98 183.848V185.517H823.219V182.112H838.974C838.974 180.666 838.685 179.375 838.106 178.24C837.539 177.105 836.727 176.209 835.67 175.553C834.624 174.896 833.389 174.568 831.964 174.568C830.395 174.568 829.038 174.958 827.892 175.737C826.757 176.504 825.884 177.506 825.272 178.741C824.66 179.976 824.354 181.3 824.354 182.713V184.983C824.354 186.919 824.687 188.56 825.355 189.907C826.034 191.242 826.974 192.26 828.176 192.961C829.377 193.651 830.774 193.996 832.365 193.996C833.4 193.996 834.334 193.851 835.169 193.562C836.015 193.261 836.743 192.816 837.355 192.227C837.967 191.626 838.44 190.88 838.774 189.99L842.579 191.058C842.179 192.349 841.506 193.484 840.56 194.463C839.614 195.431 838.446 196.188 837.055 196.733C835.664 197.267 834.101 197.534 832.365 197.534ZM867.131 177.105L863.593 178.107C863.37 177.517 863.042 176.944 862.608 176.387C862.185 175.82 861.606 175.353 860.872 174.985C860.138 174.618 859.197 174.435 858.051 174.435C856.482 174.435 855.175 174.796 854.129 175.52C853.094 176.232 852.577 177.138 852.577 178.24C852.577 179.219 852.933 179.993 853.645 180.56C854.357 181.127 855.47 181.6 856.983 181.979L860.789 182.913C863.081 183.47 864.789 184.321 865.913 185.467C867.036 186.602 867.598 188.065 867.598 189.857C867.598 191.325 867.175 192.638 866.33 193.795C865.495 194.953 864.327 195.865 862.825 196.533C861.323 197.2 859.576 197.534 857.584 197.534C854.969 197.534 852.805 196.967 851.091 195.832C849.378 194.697 848.293 193.039 847.837 190.858L851.576 189.923C851.932 191.303 852.605 192.338 853.595 193.028C854.596 193.718 855.904 194.062 857.517 194.062C859.353 194.062 860.811 193.673 861.89 192.894C862.981 192.104 863.526 191.158 863.526 190.057C863.526 189.167 863.214 188.421 862.591 187.82C861.968 187.208 861.011 186.752 859.72 186.452L855.448 185.45C853.1 184.894 851.375 184.032 850.274 182.863C849.183 181.684 848.638 180.21 848.638 178.44C848.638 176.994 849.044 175.714 849.856 174.602C850.68 173.489 851.798 172.615 853.211 171.981C854.635 171.347 856.249 171.03 858.051 171.03C860.588 171.03 862.58 171.586 864.027 172.699C865.484 173.812 866.519 175.28 867.131 177.105ZM884.677 171.364V174.702H871.391V171.364H884.677ZM875.263 165.222H879.202V189.656C879.202 190.769 879.364 191.603 879.686 192.16C880.02 192.705 880.443 193.072 880.955 193.261C881.478 193.439 882.028 193.528 882.607 193.528C883.041 193.528 883.397 193.506 883.675 193.462C883.953 193.406 884.176 193.362 884.343 193.328L885.144 196.866C884.877 196.967 884.504 197.067 884.026 197.167C883.547 197.278 882.941 197.334 882.206 197.334C881.094 197.334 880.003 197.095 878.935 196.616C877.878 196.138 876.999 195.409 876.298 194.43C875.608 193.451 875.263 192.215 875.263 190.724V165.222Z" fill="white"/>
<defs>
<filter id="filter0_i_410_111" x="129" y="0" width="394" height="394" filterUnits="userSpaceOnUse" color-interpolation-filters="sRGB">
<feFlood flood-opacity="0" result="BackgroundImageFix"/>
<feBlend mode="normal" in="SourceGraphic" in2="BackgroundImageFix" result="shape"/>
<feColorMatrix in="SourceAlpha" type="matrix" values="0 0 0 0 0 0 0 0 0 0 0 0 0 0 0 0 0 0 127 0" result="hardAlpha"/>
<feMorphology radius="20" operator="erode" in="SourceAlpha" result="effect1_innerShadow_410_111"/>
<feOffset/>
<feGaussianBlur stdDeviation="20"/>
<feComposite in2="hardAlpha" operator="arithmetic" k2="-1" k3="1"/>
<feColorMatrix type="matrix" values="0 0 0 0 0 0 0 0 0 0 0 0 0 0 0 0 0 0 0.25 0"/>
<feBlend mode="normal" in2="shape" result="effect1_innerShadow_410_111"/>
</filter>
<filter id="filter1_i_410_111" x="545" y="335" width="322" height="322" filterUnits="userSpaceOnUse" color-interpolation-filters="sRGB">
<feFlood flood-opacity="0" result="BackgroundImageFix"/>
<feBlend mode="normal" in="SourceGraphic" in2="BackgroundImageFix" result="shape"/>
<feColorMatrix in="SourceAlpha" type="matrix" values="0 0 0 0 0 0 0 0 0 0 0 0 0 0 0 0 0 0 127 0" result="hardAlpha"/>
<feMorphology radius="20" operator="erode" in="SourceAlpha" result="effect1_innerShadow_410_111"/>
<feOffset/>
<feGaussianBlur stdDeviation="20"/>
<feComposite in2="hardAlpha" operator="arithmetic" k2="-1" k3="1"/>
<feColorMatrix type="matrix" values="0 0 0 0 0 0 0 0 0 0 0 0 0 0 0 0 0 0 0.25 0"/>
<feBlend mode="normal" in2="shape" result="effect1_innerShadow_410_111"/>
</filter>
<filter id="filter2_i_410_111" x="359" y="751" width="240" height="240" filterUnits="userSpaceOnUse" color-interpolation-filters="sRGB">
<feFlood flood-opacity="0" result="BackgroundImageFix"/>
<feBlend mode="normal" in="SourceGraphic" in2="BackgroundImageFix" result="shape"/>
<feColorMatrix in="SourceAlpha" type="matrix" values="0 0 0 0 0 0 0 0 0 0 0 0 0 0 0 0 0 0 127 0" result="hardAlpha"/>
<feMorphology radius="20" operator="erode" in="SourceAlpha" result="effect1_innerShadow_410_111"/>
<feOffset/>
<feGaussianBlur stdDeviation="20"/>
<feComposite in2="hardAlpha" operator="arithmetic" k2="-1" k3="1"/>
<feColorMatrix type="matrix" values="0 0 0 0 0 0 0 0 0 0 0 0 0 0 0 0 0 0 0.25 0"/>
<feBlend mode="normal" in2="shape" result="effect1_innerShadow_410_111"/>
</filter>
<filter id="filter3_i_410_111" x="270" y="521" width="71" height="71" filterUnits="userSpaceOnUse" color-interpolation-filters="sRGB">
<feFlood flood-opacity="0" result="BackgroundImageFix"/>
<feBlend mode="normal" in="SourceGraphic" in2="BackgroundImageFix" result="shape"/>
<feColorMatrix in="SourceAlpha" type="matrix" values="0 0 0 0 0 0 0 0 0 0 0 0 0 0 0 0 0 0 127 0" result="hardAlpha"/>
<feMorphology radius="20" operator="erode" in="SourceAlpha" result="effect1_innerShadow_410_111"/>
<feOffset/>
<feGaussianBlur stdDeviation="20"/>
<feComposite in2="hardAlpha" operator="arithmetic" k2="-1" k3="1"/>
<feColorMatrix type="matrix" values="0 0 0 0 0 0 0 0 0 0 0 0 0 0 0 0 0 0 0.25 0"/>
<feBlend mode="normal" in2="shape" result="effect1_innerShadow_410_111"/>
</filter>
<filter id="filter4_i_410_111" x="742" y="734" width="50" height="50" filterUnits="userSpaceOnUse" color-interpolation-filters="sRGB">
<feFlood flood-opacity="0" result="BackgroundImageFix"/>
<feBlend mode="normal" in="SourceGraphic" in2="BackgroundImageFix" result="shape"/>
<feColorMatrix in="SourceAlpha" type="matrix" values="0 0 0 0 0 0 0 0 0 0 0 0 0 0 0 0 0 0 127 0" result="hardAlpha"/>
<feMorphology radius="20" operator="erode" in="SourceAlpha" result="effect1_innerShadow_410_111"/>
<feOffset/>
<feGaussianBlur stdDeviation="20"/>
<feComposite in2="hardAlpha" operator="arithmetic" k2="-1" k3="1"/>
<feColorMatrix type="matrix" values="0 0 0 0 0 0 0 0 0 0 0 0 0 0 0 0 0 0 0.25 0"/>
<feBlend mode="normal" in2="shape" result="effect1_innerShadow_410_111"/>
</filter>
</defs>
</svg>
