<svg xmlns="http://www.w3.org/2000/svg" width="1321" height="1123" fill="none" viewBox="0 0 1321 1123"><mask id="a" fill="#fff"><path d="M158 151h1005v267H158z"/></mask><path fill="#292929" d="M158 151h1005v267H158z"/><path fill="#717171" d="M1163 418v1h1v-1zm-1005 0h-1v1h1zm1005-267h-1v267h2V151zm0 267v-1H158v2h1005zm-1005 0h1V151h-2v267z" mask="url(#a)"/><mask id="b" fill="#fff"><path d="M158 603h1005v267H158z"/></mask><path fill="#292929" d="M158 603h1005v267H158z"/><path fill="#717171" d="M1163 870v1h1v-1zm-1005 0h-1v1h1zm1005-267h-1v267h2V603zm0 267v-1H158v2h1005zm-1005 0h1V603h-2v267z" mask="url(#b)"/><path stroke="#3e3e3e" d="M254.5 151v267M254.5 603v267M355.5 151v267M355.5 603v267M456.5 151v267M456.5 603v267M557.5 151v267M557.5 603v267M658.5 151v267M658.5 603v267M759.5 151v267M759.5 603v267M860.5 151v267M860.5 603v267M961.5 151v267M961.5 603v267M1062.5 151v267M1062.5 603v267"/><path fill="#fff" d="M158 91.318q-2.568 0-4.375-1.397-1.807-1.41-2.761-4.08-.955-2.682-.955-6.477 0-3.773.955-6.443.966-2.682 2.772-4.092 1.818-1.42 4.364-1.42t4.352 1.42q1.819 1.41 2.773 4.092.966 2.67.966 6.443 0 3.795-.955 6.477-.954 2.67-2.761 4.08-1.807 1.397-4.375 1.397m0-2.5q2.545 0 3.955-2.454 1.409-2.455 1.409-7 0-3.023-.648-5.148-.636-2.125-1.841-3.239-1.193-1.113-2.875-1.113-2.523 0-3.943 2.488-1.42 2.478-1.421 7.012 0 3.023.637 5.136.636 2.114 1.829 3.216 1.205 1.102 2.898 1.102M158 543.318q-2.568 0-4.375-1.398-1.807-1.409-2.761-4.079-.955-2.682-.955-6.477 0-3.773.955-6.444.966-2.681 2.772-4.09 1.818-1.42 4.364-1.421 2.546 0 4.352 1.421 1.819 1.409 2.773 4.09.966 2.67.966 6.444 0 3.795-.955 6.477-.954 2.67-2.761 4.079-1.807 1.398-4.375 1.398m0-2.5q2.545 0 3.955-2.454 1.409-2.455 1.409-7 0-3.023-.648-5.148-.636-2.125-1.841-3.239-1.193-1.113-2.875-1.113-2.523 0-3.943 2.488-1.42 2.478-1.421 7.012 0 3.023.637 5.136.636 2.113 1.829 3.216 1.205 1.102 2.898 1.102M359.02 88V70.546h2.114v7.772h9.306v-7.772h2.114V88h-2.114v-7.807h-9.306V88zm22.981.273q-1.892 0-3.264-.835-1.364-.844-2.105-2.353-.733-1.516-.733-3.528t.733-3.546q.741-1.543 2.063-2.403 1.329-.87 3.102-.87 1.023 0 2.02.341t1.815 1.109q.819.758 1.304 2.01.486 1.254.486 3.086v.852h-10.091v-1.738h8.045q0-1.109-.443-1.977a3.34 3.34 0 0 0-1.244-1.373q-.801-.502-1.892-.502-1.201 0-2.08.596a3.93 3.93 0 0 0-1.338 1.534 4.5 4.5 0 0 0-.468 2.028v1.16q0 1.482.511 2.514.52 1.022 1.44 1.56.921.528 2.139.528.793 0 1.432-.222a3.1 3.1 0 0 0 1.117-.681q.469-.46.724-1.142l1.943.545a4.3 4.3 0 0 1-1.031 1.739 5 5 0 0 1-1.79 1.159q-1.065.409-2.395.409m12.333.034q-1.245 0-2.259-.469a3.9 3.9 0 0 1-1.611-1.372q-.596-.904-.596-2.182 0-1.125.443-1.824.443-.706 1.185-1.108a6.2 6.2 0 0 1 1.636-.596 20 20 0 0 1 1.815-.324 82 82 0 0 1 1.935-.23q.75-.085 1.091-.281.35-.197.349-.682v-.069q0-1.26-.69-1.96-.681-.699-2.071-.699-1.44 0-2.258.631-.818.63-1.151 1.347l-1.909-.682q.511-1.194 1.364-1.858a5.1 5.1 0 0 1 1.875-.938 7.8 7.8 0 0 1 2.011-.272q.63 0 1.449.153a4.6 4.6 0 0 1 1.594.605q.776.46 1.286 1.39.512.928.512 2.488V88h-2.012v-1.773h-.102q-.204.426-.682.912-.477.486-1.27.827-.792.34-1.934.34m.307-1.807q1.193 0 2.011-.469.827-.468 1.244-1.21a3.1 3.1 0 0 0 .426-1.56v-1.84q-.127.153-.562.28-.426.12-.989.214-.554.086-1.082.153-.52.06-.844.103a7.7 7.7 0 0 0-1.466.332q-.673.222-1.091.673-.409.444-.409 1.21 0 1.05.776 1.586.784.528 1.986.528m14.307 1.773q-1.636 0-2.889-.827-1.253-.835-1.96-2.352-.708-1.526-.708-3.605 0-2.062.708-3.58.707-1.517 1.968-2.344 1.262-.826 2.915-.826 1.28 0 2.02.426.75.417 1.142.954.401.529.622.87h.171v-6.443h2.011V88h-1.943v-2.011h-.239q-.221.358-.63.903-.41.537-1.168.963-.759.418-2.02.418m.273-1.807q1.21 0 2.045-.63.835-.64 1.27-1.765.435-1.134.435-2.617 0-1.465-.426-2.565-.426-1.107-1.262-1.721-.835-.623-2.062-.623-1.279 0-2.131.657-.844.647-1.27 1.764-.417 1.108-.417 2.489 0 1.397.426 2.54.435 1.132 1.278 1.806.852.665 2.114.665m17.156-7.193q0-3.221.835-5.924a18.5 18.5 0 0 1 2.404-4.985h1.772q-.613.843-1.15 2.08a20 20 0 0 0-.929 2.7 26 26 0 0 0-.631 3.035 22 22 0 0 0-.221 3.094q0 2.028.392 4.116a23.6 23.6 0 0 0 1.057 3.878q.665 1.79 1.482 2.915h-1.772a18.5 18.5 0 0 1-2.404-4.978q-.834-2.709-.835-5.931m13.4 8.966q-1.5 0-2.702-.597a5 5 0 0 1-1.926-1.636 4.45 4.45 0 0 1-.792-2.37h2.045q.12 1.186 1.074 1.96.963.768 2.301.768 1.074 0 1.909-.503a3.54 3.54 0 0 0 1.321-1.38q.486-.888.486-2.004 0-1.141-.503-2.037a3.7 3.7 0 0 0-1.364-1.423q-.869-.52-1.985-.528a5.5 5.5 0 0 0-1.645.247q-.845.248-1.389.639l-1.978-.239 1.057-8.59h9.068v1.874h-7.295l-.614 5.148h.102q.537-.426 1.347-.707a5.1 5.1 0 0 1 1.688-.282q1.602 0 2.855.768a5.35 5.35 0 0 1 1.977 2.08q.724 1.32.724 3.016 0 1.67-.75 2.983a5.5 5.5 0 0 1-2.045 2.063q-1.304.75-2.966.75m15.045 0q-1.687 0-3.009-.58-1.312-.58-2.088-1.61-.767-1.04-.835-2.413h2.148q.067.844.579 1.458.512.605 1.338.937a4.9 4.9 0 0 0 1.833.333q1.125 0 1.994-.392.87-.393 1.364-1.091.494-.699.494-1.62 0-.963-.477-1.696-.478-.74-1.398-1.159-.921-.417-2.25-.417h-1.398v-1.875h1.398q1.04 0 1.824-.375.792-.376 1.236-1.057.451-.682.451-1.603 0-.886-.392-1.542a2.68 2.68 0 0 0-1.108-1.023q-.707-.366-1.67-.366-.903 0-1.705.332-.792.324-1.295.946-.502.614-.546 1.483h-2.045q.051-1.373.827-2.403a5.2 5.2 0 0 1 2.028-1.62q1.261-.58 2.77-.58 1.62 0 2.778.657 1.16.648 1.782 1.713.621 1.065.622 2.301 0 1.474-.776 2.514-.767 1.041-2.088 1.44v.137q1.653.273 2.582 1.406.93 1.126.929 2.787 0 1.425-.775 2.557-.766 1.125-2.097 1.773t-3.025.648m13.713-8.966q0 3.222-.844 5.932a18.3 18.3 0 0 1-2.395 4.977h-1.773q.615-.844 1.142-2.08.537-1.227.938-2.693.4-1.474.622-3.043.23-1.576.23-3.093 0-2.028-.392-4.117a23.6 23.6 0 0 0-1.057-3.878q-.664-1.79-1.483-2.914h1.773a18.3 18.3 0 0 1 2.395 4.985q.844 2.702.844 5.924M359.02 540v-17.455h2.114v7.773h9.306v-7.773h2.114V540h-2.114v-7.807h-9.306V540zm22.981.273q-1.892 0-3.264-.835-1.364-.844-2.105-2.353-.733-1.516-.733-3.528t.733-3.546q.741-1.542 2.063-2.403 1.329-.87 3.102-.869 1.023 0 2.02.341.998.34 1.815 1.108.819.758 1.304 2.011.486 1.252.486 3.085v.852h-10.091v-1.738h8.045q0-1.108-.443-1.978a3.35 3.35 0 0 0-1.244-1.372q-.801-.503-1.892-.503-1.201 0-2.08.597a3.93 3.93 0 0 0-1.338 1.534 4.5 4.5 0 0 0-.468 2.029v1.159q0 1.482.511 2.514.52 1.023 1.44 1.56.921.528 2.139.528.793 0 1.432-.222.648-.23 1.117-.682.469-.46.724-1.142l1.943.546a4.3 4.3 0 0 1-1.031 1.739 5 5 0 0 1-1.79 1.159q-1.065.409-2.395.409m12.333.034q-1.245 0-2.259-.469a3.9 3.9 0 0 1-1.611-1.372q-.596-.904-.596-2.182 0-1.125.443-1.824.443-.707 1.185-1.108a6.2 6.2 0 0 1 1.636-.596 20 20 0 0 1 1.815-.324 83 83 0 0 1 1.935-.23q.75-.085 1.091-.282.35-.196.349-.681v-.069q0-1.26-.69-1.96-.681-.699-2.071-.699-1.44 0-2.258.631-.818.63-1.151 1.347l-1.909-.682q.511-1.194 1.364-1.858a5.1 5.1 0 0 1 1.875-.938 7.8 7.8 0 0 1 2.011-.272 8 8 0 0 1 1.449.153 4.7 4.7 0 0 1 1.594.605q.776.46 1.286 1.389.512.93.512 2.489V540h-2.012v-1.773h-.102q-.204.426-.682.912-.477.486-1.27.827-.792.34-1.934.341m.307-1.807q1.193 0 2.011-.469.827-.469 1.244-1.21a3.1 3.1 0 0 0 .426-1.56v-1.841q-.127.154-.562.282a10 10 0 0 1-.989.213q-.554.085-1.082.153-.52.06-.844.102a7.7 7.7 0 0 0-1.466.333q-.673.222-1.091.673-.409.444-.409 1.21 0 1.049.776 1.586.784.528 1.986.528m14.307 1.773q-1.636 0-2.889-.827-1.253-.836-1.96-2.352-.708-1.526-.708-3.605 0-2.063.708-3.58.707-1.517 1.968-2.344 1.262-.826 2.915-.826 1.28 0 2.02.426.75.417 1.142.954.401.529.622.87h.171v-6.444h2.011V540h-1.943v-2.011h-.239q-.221.357-.63.903-.41.537-1.168.963-.759.418-2.02.418m.273-1.807q1.21 0 2.045-.631.835-.639 1.27-1.764.435-1.134.435-2.616 0-1.467-.426-2.566-.426-1.107-1.262-1.721-.835-.623-2.062-.623-1.279 0-2.131.657-.844.648-1.27 1.764-.417 1.108-.417 2.489 0 1.397.426 2.539.435 1.134 1.278 1.807.852.665 2.114.665m17.156-7.193q0-3.221.835-5.924a18.5 18.5 0 0 1 2.404-4.985h1.772q-.613.843-1.15 2.079a20 20 0 0 0-.929 2.702 26 26 0 0 0-.631 3.034 22 22 0 0 0-.221 3.094q0 2.028.392 4.116a23.6 23.6 0 0 0 1.057 3.878q.665 1.79 1.482 2.915h-1.772a18.5 18.5 0 0 1-2.404-4.977q-.834-2.711-.835-5.932m13.4 8.966q-1.5 0-2.702-.597a5 5 0 0 1-1.926-1.636 4.46 4.46 0 0 1-.792-2.37h2.045q.12 1.185 1.074 1.961.963.767 2.301.767 1.074 0 1.909-.503a3.55 3.55 0 0 0 1.321-1.381q.486-.886.486-2.003 0-1.141-.503-2.037a3.7 3.7 0 0 0-1.364-1.423q-.869-.52-1.985-.528a5.4 5.4 0 0 0-1.645.247q-.845.248-1.389.639l-1.978-.239 1.057-8.591h9.068v1.875h-7.295l-.614 5.148h.102q.537-.426 1.347-.707a5.1 5.1 0 0 1 1.688-.281q1.602 0 2.855.767a5.35 5.35 0 0 1 1.977 2.079q.724 1.321.724 3.017 0 1.67-.75 2.983a5.5 5.5 0 0 1-2.045 2.063q-1.304.75-2.966.75m15.045 0q-1.687 0-3.009-.58-1.312-.579-2.088-1.611-.767-1.04-.835-2.412h2.148q.067.844.579 1.458.512.605 1.338.937a4.9 4.9 0 0 0 1.833.333q1.125 0 1.994-.392.87-.392 1.364-1.091t.494-1.62q0-.963-.477-1.696-.478-.74-1.398-1.159-.921-.417-2.25-.417h-1.398v-1.875h1.398q1.04 0 1.824-.375a2.94 2.94 0 0 0 1.236-1.057q.451-.683.451-1.602 0-.887-.392-1.543a2.7 2.7 0 0 0-1.108-1.023q-.707-.366-1.67-.366-.903 0-1.705.332-.792.324-1.295.946-.502.614-.546 1.483h-2.045q.051-1.373.827-2.403.776-1.04 2.028-1.62 1.261-.579 2.77-.579 1.62 0 2.778.656 1.16.648 1.782 1.713a4.5 4.5 0 0 1 .622 2.301q0 1.474-.776 2.514-.767 1.04-2.088 1.441v.136q1.653.273 2.582 1.406.93 1.125.929 2.787 0 1.423-.775 2.557-.766 1.125-2.097 1.773t-3.025.648m13.713-8.966q0 3.221-.844 5.932a18.3 18.3 0 0 1-2.395 4.977h-1.773q.615-.844 1.142-2.08.537-1.227.938-2.693a25 25 0 0 0 .622-3.043q.23-1.577.23-3.093 0-2.03-.392-4.117a23.6 23.6 0 0 0-1.057-3.878q-.664-1.79-1.483-2.914h1.773a18.3 18.3 0 0 1 2.395 4.985q.844 2.702.844 5.924M1146.18 67.727V91h-2.81V70.682h-.14l-5.68 3.772v-2.863l5.82-3.864zm14.11-.318c.95.008 1.91.19 2.86.545q1.44.535 2.61 1.773c.79.819 1.42 1.936 1.9 3.352q.72 2.126.72 5.33c0 2.068-.2 3.905-.59 5.511q-.585 2.398-1.68 4.046c-.73 1.098-1.62 1.932-2.66 2.5s-2.22.852-3.53.852c-1.3 0-2.46-.257-3.49-.772a6.96 6.96 0 0 1-2.5-2.171q-.96-1.398-1.23-3.239h2.77c.25 1.069.74 1.951 1.49 2.648.75.69 1.74 1.034 2.96 1.034 1.8 0 3.22-.784 4.25-2.352 1.05-1.568 1.57-3.784 1.57-6.648h-.18a7.1 7.1 0 0 1-1.51 1.648c-.59.462-1.23.818-1.94 1.068-.72.25-1.47.375-2.28.375-1.33 0-2.55-.33-3.67-.989a7.6 7.6 0 0 1-2.66-2.738q-.99-1.75-.99-4 0-2.136.96-3.91a7.34 7.34 0 0 1 2.7-2.84c1.17-.705 2.54-1.046 4.12-1.023m0 2.5q-1.44 0-2.58.716a5.16 5.16 0 0 0-1.81 1.91q-.66 1.191-.66 2.647c0 .97.21 1.852.64 2.647a5.1 5.1 0 0 0 1.76 1.887c.75.462 1.6.693 2.56.693q1.08 0 2.01-.42a5.2 5.2 0 0 0 1.62-1.17c.47-.5.84-1.065 1.1-1.694.27-.636.4-1.3.4-1.989a5.2 5.2 0 0 0-.66-2.556 5.25 5.25 0 0 0-1.79-1.932c-.76-.493-1.62-.739-2.59-.739m19.97-2.5c.95.008 1.9.19 2.86.545.95.357 1.83.948 2.61 1.773.79.819 1.42 1.936 1.9 3.352q.72 2.126.72 5.33c0 2.068-.2 3.905-.59 5.511-.39 1.599-.95 2.947-1.69 4.046-.72 1.098-1.61 1.932-2.66 2.5-1.03.568-2.21.852-3.52.852-1.3 0-2.46-.257-3.49-.772a6.9 6.9 0 0 1-2.5-2.171c-.64-.932-1.05-2.011-1.24-3.239h2.78c.25 1.069.74 1.951 1.49 2.648.75.69 1.73 1.034 2.96 1.034 1.8 0 3.21-.784 4.25-2.352 1.05-1.568 1.57-3.784 1.57-6.648h-.18a7.3 7.3 0 0 1-1.51 1.648c-.59.462-1.23.818-1.95 1.068a6.8 6.8 0 0 1-2.27.375c-1.33 0-2.56-.33-3.67-.989-1.11-.666-1.99-1.58-2.66-2.738q-.99-1.75-.99-4 0-2.136.96-3.91a7.34 7.34 0 0 1 2.7-2.84c1.17-.705 2.54-1.046 4.12-1.023m0 2.5q-1.44 0-2.58.716a5.16 5.16 0 0 0-1.81 1.91q-.66 1.191-.66 2.647c0 .97.21 1.852.64 2.647a5.1 5.1 0 0 0 1.76 1.887q1.125.693 2.55.693c.72 0 1.39-.14 2.02-.42a5.2 5.2 0 0 0 1.62-1.17c.47-.5.84-1.065 1.1-1.694.27-.636.4-1.3.4-1.989a5.2 5.2 0 0 0-.66-2.556 5.25 5.25 0 0 0-1.79-1.932c-.76-.493-1.62-.739-2.59-.739M1146.18 519.727V543h-2.81v-20.318h-.14l-5.68 3.773v-2.864l5.82-3.864zm14.11-.318c.95.008 1.91.189 2.86.546q1.44.534 2.61 1.772c.79.818 1.42 1.936 1.9 3.353q.72 2.125.72 5.329c0 2.068-.2 3.905-.59 5.511q-.585 2.398-1.68 4.046c-.73 1.098-1.62 1.932-2.66 2.5s-2.22.852-3.53.852c-1.3 0-2.46-.257-3.49-.773a6.95 6.95 0 0 1-2.5-2.17q-.96-1.398-1.23-3.239h2.77c.25 1.069.74 1.951 1.49 2.648.75.689 1.74 1.034 2.96 1.034 1.8 0 3.22-.784 4.25-2.352 1.05-1.568 1.57-3.784 1.57-6.648h-.18a7.1 7.1 0 0 1-1.51 1.648c-.59.462-1.23.818-1.94 1.068-.72.25-1.47.375-2.28.375a7.1 7.1 0 0 1-3.67-.989 7.6 7.6 0 0 1-2.66-2.738q-.99-1.75-.99-4 0-2.136.96-3.909a7.33 7.33 0 0 1 2.7-2.841c1.17-.705 2.54-1.046 4.12-1.023m0 2.5q-1.44 0-2.58.716a5.17 5.17 0 0 0-1.81 1.909q-.66 1.193-.66 2.648c0 .97.21 1.852.64 2.648a5.1 5.1 0 0 0 1.76 1.886c.75.462 1.6.693 2.56.693q1.08 0 2.01-.42a5.2 5.2 0 0 0 1.62-1.171c.47-.5.84-1.064 1.1-1.693.27-.636.4-1.299.4-1.989q0-1.363-.66-2.556a5.24 5.24 0 0 0-1.79-1.932c-.76-.493-1.62-.739-2.59-.739m19.97-2.5c.95.008 1.9.189 2.86.546.95.356 1.83.947 2.61 1.772.79.818 1.42 1.936 1.9 3.353q.72 2.125.72 5.329c0 2.068-.2 3.905-.59 5.511-.39 1.599-.95 2.947-1.69 4.046-.72 1.098-1.61 1.932-2.66 2.5-1.03.568-2.21.852-3.52.852-1.3 0-2.46-.257-3.49-.773a6.9 6.9 0 0 1-2.5-2.17c-.64-.932-1.05-2.011-1.24-3.239h2.78c.25 1.069.74 1.951 1.49 2.648.75.689 1.73 1.034 2.96 1.034 1.8 0 3.21-.784 4.25-2.352 1.05-1.568 1.57-3.784 1.57-6.648h-.18a7.3 7.3 0 0 1-1.51 1.648 6.7 6.7 0 0 1-1.95 1.068 6.8 6.8 0 0 1-2.27.375c-1.33 0-2.56-.329-3.67-.989-1.11-.666-1.99-1.579-2.66-2.738q-.99-1.75-.99-4 0-2.136.96-3.909a7.33 7.33 0 0 1 2.7-2.841c1.17-.705 2.54-1.046 4.12-1.023m0 2.5q-1.44 0-2.58.716a5.17 5.17 0 0 0-1.81 1.909q-.66 1.193-.66 2.648c0 .97.21 1.852.64 2.648a5.1 5.1 0 0 0 1.76 1.886q1.125.693 2.55.693c.72 0 1.39-.14 2.02-.42a5.2 5.2 0 0 0 1.62-1.171c.47-.5.84-1.064 1.1-1.693.27-.636.4-1.299.4-1.989q0-1.363-.66-2.556a5.24 5.24 0 0 0-1.79-1.932c-.76-.493-1.62-.739-2.59-.739"/><path stroke="#fff" d="M158 150.5h1005M158 602.5h1005M158.5 117v68M158.5 569v68M204.5 133v36M204.5 585v36M319.5 133v36M319.5 585v36M483.5 133v36M483.5 585v36M494.5 133v36M494.5 585v36M413.5 117v68M413.5 569v68M645.5 133v36M645.5 585v36M771.5 133v36M771.5 585v36M778.5 133v36M778.5 585v36M1080.5 133v36M1080.5 585v36M1163.5 117v68M1163.5 569v68"/><path fill="#717171" d="M561.017 16.586v-3.677h17.321v3.677h-6.457V34h-4.407V16.586zM579.466 34V18.182h4.253v2.76h.165q.432-1.473 1.452-2.225 1.02-.762 2.348-.762.33 0 .711.041.381.042.669.114v3.893a6 6 0 0 0-.855-.165 8 8 0 0 0-.999-.072q-.968 0-1.73.422a3.1 3.1 0 0 0-1.194 1.153q-.433.742-.433 1.71V34zm15.924.299q-1.514 0-2.698-.526a4.34 4.34 0 0 1-1.875-1.575q-.68-1.05-.679-2.616 0-1.319.484-2.214a3.9 3.9 0 0 1 1.318-1.442 6.4 6.4 0 0 1 1.895-.824 14.4 14.4 0 0 1 2.245-.391q1.38-.144 2.224-.268.845-.135 1.226-.391.381-.258.381-.762v-.062q0-.978-.618-1.514-.608-.535-1.73-.535-1.185 0-1.885.525-.7.515-.927 1.297l-4.057-.33q.309-1.44 1.215-2.491.906-1.061 2.338-1.627 1.442-.577 3.336-.577 1.318 0 2.523.309a6.6 6.6 0 0 1 2.153.957 4.66 4.66 0 0 1 1.493 1.669q.546 1.01.546 2.42V34h-4.161v-2.193h-.123a4.5 4.5 0 0 1-1.02 1.307q-.638.556-1.534.876-.897.309-2.07.309m1.256-3.028q.968 0 1.71-.381.741-.391 1.163-1.05.423-.66.423-1.494v-1.678q-.206.133-.567.247-.35.103-.793.195-.442.083-.885.155l-.804.113a5.4 5.4 0 0 0-1.349.36q-.576.248-.896.67-.32.412-.319 1.03 0 .896.649 1.37.658.463 1.668.463m18.202 3.038q-2.43 0-4.181-1.03a6.96 6.96 0 0 1-2.677-2.883q-.927-1.845-.927-4.243 0-2.43.937-4.264a6.97 6.97 0 0 1 2.688-2.873q1.74-1.04 4.14-1.04 2.07 0 3.625.752 1.555.75 2.461 2.11t.999 3.193h-4.14q-.175-1.184-.927-1.905-.741-.73-1.946-.731-1.02 0-1.782.556-.751.546-1.174 1.596t-.422 2.544q0 1.514.412 2.575.422 1.06 1.184 1.616t1.782.556q.752 0 1.349-.309.608-.309.999-.895.402-.598.525-1.432h4.14q-.103 1.813-.989 3.192-.875 1.37-2.42 2.143t-3.656.772m13.849-4.86.01-5.263h.639l5.067-6.004h5.035l-6.807 7.95h-1.04zM624.722 34V12.91h4.387V34zm9.886 0-4.655-6.89 2.925-3.1 6.869 9.99zm31.428-21.09V34h-3.851l-9.176-13.274h-.155V34h-4.459V12.91h3.913l9.104 13.263h.186V12.91zm13.746 14.355v-9.083h4.387V34h-4.212v-2.873h-.165a4.67 4.67 0 0 1-1.782 2.235q-1.235.844-3.017.844-1.586 0-2.791-.72-1.205-.722-1.884-2.05-.67-1.33-.68-3.182V18.182h4.387v9.289q.01 1.401.752 2.214.741.814 1.987.814.793 0 1.483-.36.69-.372 1.113-1.092.432-.721.422-1.782M687.678 34V18.182h4.181v2.79h.185q.495-1.389 1.648-2.193 1.153-.803 2.76-.803 1.627 0 2.77.813 1.143.804 1.524 2.184h.165q.485-1.36 1.751-2.173 1.277-.825 3.017-.824 2.215 0 3.594 1.41 1.39 1.401 1.391 3.976V34h-4.377v-9.773q0-1.319-.7-1.977-.7-.66-1.751-.66-1.195 0-1.864.763-.669.75-.669 1.987V34h-4.254v-9.866q0-1.163-.669-1.854-.66-.69-1.74-.69a2.4 2.4 0 0 0-1.319.371q-.577.36-.916 1.02-.34.648-.34 1.524V34zm26.534 0V12.91h4.387v7.929h.133a5.8 5.8 0 0 1 .835-1.298q.555-.67 1.441-1.112.897-.453 2.225-.453 1.73 0 3.192.906 1.462.895 2.338 2.709.876 1.802.875 4.52 0 2.648-.854 4.47-.845 1.812-2.307 2.75-1.452.926-3.254.926-1.278 0-2.173-.422-.887-.422-1.452-1.06a5.4 5.4 0 0 1-.866-1.308h-.195V34zm4.294-7.91q0 1.412.391 2.462.392 1.05 1.133 1.638.741.576 1.802.576 1.07 0 1.813-.587.741-.597 1.122-1.647.392-1.06.392-2.441 0-1.37-.381-2.41t-1.123-1.627q-.741-.587-1.823-.587-1.071 0-1.812.566-.732.567-1.123 1.607t-.391 2.45m21.268 8.219q-2.44 0-4.201-.989a6.77 6.77 0 0 1-2.698-2.821q-.948-1.834-.948-4.336 0-2.44.948-4.284.947-1.844 2.667-2.873 1.73-1.03 4.057-1.03 1.565 0 2.915.505 1.36.494 2.368 1.493 1.02.999 1.586 2.512.567 1.504.567 3.523v1.204h-13.357v-2.718h9.227q0-.948-.412-1.679a2.94 2.94 0 0 0-1.143-1.143q-.72-.422-1.679-.422-.998 0-1.771.463-.762.453-1.194 1.226a3.46 3.46 0 0 0-.443 1.699v2.585q0 1.173.432 2.029.443.855 1.246 1.318.804.463 1.906.463.73 0 1.338-.206a2.8 2.8 0 0 0 1.04-.618 2.7 2.7 0 0 0 .66-1.009l4.057.268a5.54 5.54 0 0 1-1.267 2.554q-.946 1.08-2.451 1.689-1.493.597-3.45.597M749.898 34V18.182h4.253v2.76h.165q.432-1.473 1.452-2.225 1.019-.762 2.348-.762.329 0 .71.041.38.042.67.114v3.893a6 6 0 0 0-.855-.165 8 8 0 0 0-.999-.072q-.968 0-1.73.422a3.1 3.1 0 0 0-1.195 1.153q-.432.742-.432 1.71V34zM559.987 39.767H760v1.977H559.987zM561.017 468.586v-3.677h17.321v3.677h-6.457V486h-4.407v-17.414zM579.466 486v-15.818h4.253v2.76h.165q.432-1.473 1.452-2.225 1.02-.762 2.348-.762.33 0 .711.041.381.042.669.114v3.892a6 6 0 0 0-.855-.164 8 8 0 0 0-.999-.072q-.968 0-1.73.422a3.1 3.1 0 0 0-1.194 1.153q-.433.742-.433 1.71V486zm15.924.299q-1.514 0-2.698-.526a4.34 4.34 0 0 1-1.875-1.575q-.68-1.05-.679-2.616 0-1.318.484-2.214a3.9 3.9 0 0 1 1.318-1.442 6.4 6.4 0 0 1 1.895-.824 14.4 14.4 0 0 1 2.245-.391 55 55 0 0 0 2.224-.268q.845-.134 1.226-.391.381-.258.381-.762v-.062q0-.978-.618-1.514-.608-.535-1.73-.535-1.185 0-1.885.525a2.4 2.4 0 0 0-.927 1.297l-4.057-.329q.309-1.442 1.215-2.492.906-1.061 2.338-1.627 1.442-.577 3.336-.577 1.318 0 2.523.309a6.6 6.6 0 0 1 2.153.958 4.65 4.65 0 0 1 1.493 1.668q.546 1.009.546 2.42V486h-4.161v-2.194h-.123a4.4 4.4 0 0 1-1.02 1.308 4.7 4.7 0 0 1-1.534.876q-.897.309-2.07.309m1.256-3.028q.968 0 1.71-.381a3 3 0 0 0 1.163-1.051q.423-.659.423-1.493v-1.678a2.4 2.4 0 0 1-.567.247q-.35.103-.793.195-.442.083-.885.155l-.804.113a5.4 5.4 0 0 0-1.349.361q-.576.247-.896.669-.32.412-.319 1.03 0 .896.649 1.37.658.463 1.668.463m18.202 3.038q-2.43 0-4.181-1.03a6.96 6.96 0 0 1-2.677-2.883q-.927-1.844-.927-4.243 0-2.431.937-4.264a6.97 6.97 0 0 1 2.688-2.873q1.74-1.04 4.14-1.04 2.07 0 3.625.752t2.461 2.111.999 3.192h-4.14q-.175-1.183-.927-1.905-.741-.73-1.946-.731-1.02 0-1.782.556-.751.546-1.174 1.596t-.422 2.544q0 1.514.412 2.574.422 1.062 1.184 1.617.762.556 1.782.556.752 0 1.349-.309a2.6 2.6 0 0 0 .999-.895q.402-.598.525-1.432h4.14q-.103 1.813-.989 3.193-.875 1.37-2.42 2.142t-3.656.772m13.849-4.861.01-5.262h.639l5.067-6.004h5.035l-6.807 7.95h-1.04zM624.722 486v-21.091h4.387V486zm9.886 0-4.655-6.89 2.925-3.099 6.869 9.989zm31.428-21.091V486h-3.851l-9.176-13.275h-.155V486h-4.459v-21.091h3.913l9.104 13.264h.186v-13.264zm13.746 14.356v-9.083h4.387V486h-4.212v-2.873h-.165a4.67 4.67 0 0 1-1.782 2.235q-1.235.844-3.017.844-1.586 0-2.791-.721t-1.884-2.049q-.67-1.33-.68-3.182v-10.072h4.387v9.289q.01 1.401.752 2.214.741.814 1.987.814.793 0 1.483-.361.69-.37 1.113-1.091.432-.721.422-1.782m7.896 6.735v-15.818h4.181v2.791h.185q.495-1.39 1.648-2.194 1.153-.803 2.76-.803 1.627 0 2.77.813 1.143.804 1.524 2.184h.165q.485-1.36 1.751-2.173 1.277-.825 3.017-.824 2.215 0 3.594 1.411 1.39 1.4 1.391 3.975V486h-4.377v-9.773q0-1.318-.7-1.977-.7-.66-1.751-.659-1.195 0-1.864.762-.669.751-.669 1.987V486h-4.254v-9.866q0-1.163-.669-1.853-.66-.69-1.74-.69a2.4 2.4 0 0 0-1.319.37q-.577.36-.916 1.02-.34.648-.34 1.524V486zm26.534 0v-21.091h4.387v7.93h.133q.29-.638.835-1.298.555-.67 1.441-1.112.897-.453 2.225-.453 1.73 0 3.192.906 1.462.895 2.338 2.709.876 1.802.875 4.521 0 2.646-.854 4.469-.845 1.812-2.307 2.75-1.452.926-3.254.926-1.278 0-2.173-.422-.887-.422-1.452-1.06a5.4 5.4 0 0 1-.866-1.308h-.195V486zm4.294-7.909q0 1.41.391 2.461.392 1.05 1.133 1.638.741.576 1.802.576 1.07 0 1.813-.587.741-.597 1.122-1.647.392-1.062.392-2.441 0-1.37-.381-2.41t-1.123-1.627q-.741-.587-1.823-.587-1.071 0-1.812.566-.732.567-1.123 1.607t-.391 2.451m21.268 8.218q-2.44 0-4.201-.989a6.77 6.77 0 0 1-2.698-2.821q-.948-1.834-.948-4.336 0-2.44.948-4.284.947-1.844 2.667-2.873 1.73-1.03 4.057-1.03 1.565 0 2.915.504 1.36.495 2.368 1.494 1.02.999 1.586 2.513.567 1.503.567 3.522v1.204h-13.357v-2.718h9.227q0-.947-.412-1.679a2.95 2.95 0 0 0-1.143-1.143q-.72-.423-1.679-.422-.998 0-1.771.463a3.25 3.25 0 0 0-1.194 1.226 3.45 3.45 0 0 0-.443 1.699v2.585q0 1.174.432 2.028.443.855 1.246 1.319.804.463 1.906.463.73 0 1.338-.206a2.8 2.8 0 0 0 1.04-.618q.433-.411.66-1.009l4.057.268a5.54 5.54 0 0 1-1.267 2.554q-.946 1.082-2.451 1.689-1.493.597-3.45.597m10.124-.309v-15.818h4.253v2.76h.165q.432-1.473 1.452-2.225 1.019-.762 2.348-.762.329 0 .71.041.38.042.67.114v3.892a6 6 0 0 0-.855-.164 8 8 0 0 0-.999-.072q-.968 0-1.73.422a3.1 3.1 0 0 0-1.195 1.153q-.432.742-.432 1.71V486zM559.987 491.767H760v1.977H559.987z"/><path stroke="#00a8f0" stroke-linecap="round" stroke-linejoin="round" stroke-width="2" d="m421.25 723.75-15.5 15.5M405.75 723.75l15.5 15.5"/><path fill="#fff" d="M662.481 246.307a6.2 6.2 0 0 1 2.148.409q1.073.4 1.96 1.329.886.92 1.423 2.515.537 1.594.537 3.997 0 2.327-.443 4.133-.435 1.799-1.262 3.034-.818 1.236-1.994 1.875-1.167.64-2.642.64-1.466 0-2.616-.58a5.1 5.1 0 0 1-1.875-1.628q-.725-1.048-.929-2.429h2.079q.282 1.202 1.117 1.986.843.776 2.224.776 2.02 0 3.188-1.765 1.176-1.764 1.176-4.985h-.137a5.4 5.4 0 0 1-1.133 1.235 5 5 0 0 1-1.458.802 5.1 5.1 0 0 1-1.704.281 5.3 5.3 0 0 1-2.753-.742 5.6 5.6 0 0 1-1.994-2.054q-.742-1.312-.742-3 0-1.602.716-2.931a5.5 5.5 0 0 1 2.029-2.131q1.312-.793 3.085-.767m0 1.875q-1.074 0-1.935.537a3.86 3.86 0 0 0-1.355 1.432 4.04 4.04 0 0 0-.494 1.985q0 1.092.477 1.986a3.8 3.8 0 0 0 1.321 1.415q.844.52 1.918.52.809 0 1.508-.316a3.9 3.9 0 0 0 1.219-.877q.528-.563.827-1.27.298-.717.298-1.492 0-1.023-.494-1.917a3.9 3.9 0 0 0-1.347-1.449q-.852-.555-1.943-.554m15.01 16.057q-1.755 0-3.102-.623-1.338-.63-2.088-1.73-.75-1.107-.741-2.522a4.64 4.64 0 0 1 .434-2.046 4.46 4.46 0 0 1 1.211-1.577 3.7 3.7 0 0 1 1.73-.809v-.102a3.37 3.37 0 0 1-1.995-1.407q-.74-1.09-.733-2.48-.008-1.33.674-2.378.681-1.049 1.875-1.653 1.202-.605 2.735-.605 1.517 0 2.711.605 1.192.605 1.875 1.653.69 1.049.699 2.378-.009 1.39-.759 2.48-.741 1.083-1.969 1.407v.102a3.6 3.6 0 0 1 1.705.809q.759.631 1.21 1.577a4.7 4.7 0 0 1 .46 2.046q-.008 1.415-.767 2.522-.75 1.1-2.088 1.73-1.33.623-3.077.623m0-1.875q1.185 0 2.046-.384.861-.383 1.329-1.082.47-.7.478-1.637-.009-.988-.512-1.747a3.47 3.47 0 0 0-1.372-1.193q-.86-.435-1.969-.435-1.116 0-1.994.435a3.5 3.5 0 0 0-1.372 1.193q-.494.759-.486 1.747-.008.938.452 1.637.468.699 1.338 1.082t2.062.384m0-8.284q.938 0 1.662-.375.734-.375 1.151-1.049t.426-1.576q-.009-.887-.418-1.543a2.7 2.7 0 0 0-1.133-1.023q-.724-.366-1.688-.366-.98 0-1.713.366-.732.358-1.133 1.023-.4.656-.392 1.543-.008.903.4 1.576.418.674 1.151 1.049t1.687.375M662.481 698.307a6.2 6.2 0 0 1 2.148.409q1.073.4 1.96 1.329.886.92 1.423 2.515.537 1.594.537 3.997 0 2.327-.443 4.133-.435 1.799-1.262 3.034-.818 1.236-1.994 1.875-1.167.64-2.642.64-1.466 0-2.616-.58a5.1 5.1 0 0 1-1.875-1.628q-.725-1.048-.929-2.429h2.079q.282 1.202 1.117 1.986.843.776 2.224.776 2.02 0 3.188-1.765 1.176-1.764 1.176-4.985h-.137a5.4 5.4 0 0 1-1.133 1.235 5 5 0 0 1-1.458.802 5.1 5.1 0 0 1-1.704.281 5.3 5.3 0 0 1-2.753-.742 5.6 5.6 0 0 1-1.994-2.054q-.742-1.312-.742-3 0-1.602.716-2.931a5.5 5.5 0 0 1 2.029-2.131q1.312-.793 3.085-.767m0 1.875q-1.074 0-1.935.537a3.86 3.86 0 0 0-1.355 1.432 4.04 4.04 0 0 0-.494 1.985q0 1.092.477 1.986a3.8 3.8 0 0 0 1.321 1.415q.844.52 1.918.52.809 0 1.508-.316a3.9 3.9 0 0 0 1.219-.877q.528-.563.827-1.27.298-.717.298-1.492 0-1.023-.494-1.917a3.9 3.9 0 0 0-1.347-1.449q-.852-.554-1.943-.554m15.01 16.057q-1.755 0-3.102-.623-1.338-.63-2.088-1.73-.75-1.107-.741-2.522a4.64 4.64 0 0 1 .434-2.046 4.46 4.46 0 0 1 1.211-1.577 3.7 3.7 0 0 1 1.73-.809v-.102a3.37 3.37 0 0 1-1.995-1.407q-.74-1.09-.733-2.48-.008-1.33.674-2.378.681-1.048 1.875-1.653 1.202-.605 2.735-.605 1.517 0 2.711.605 1.192.604 1.875 1.653.69 1.049.699 2.378-.009 1.39-.759 2.48-.741 1.083-1.969 1.407v.102a3.6 3.6 0 0 1 1.705.809q.759.631 1.21 1.577a4.7 4.7 0 0 1 .46 2.046q-.008 1.415-.767 2.522-.75 1.1-2.088 1.73-1.33.623-3.077.623m0-1.875q1.185 0 2.046-.384t1.329-1.082q.47-.7.478-1.637-.009-.988-.512-1.747a3.47 3.47 0 0 0-1.372-1.193q-.86-.435-1.969-.435-1.116 0-1.994.435a3.5 3.5 0 0 0-1.372 1.193q-.494.759-.486 1.747-.008.938.452 1.637.468.698 1.338 1.082t2.062.384m0-8.284q.938 0 1.662-.375.734-.375 1.151-1.049t.426-1.576q-.009-.887-.418-1.543a2.7 2.7 0 0 0-1.133-1.023q-.724-.366-1.688-.366-.98 0-1.713.366-.732.358-1.133 1.023-.4.656-.392 1.543-.008.903.4 1.576.418.674 1.151 1.049t1.687.375M1091.33 246.545V264h-2.11v-15.239h-.11l-4.26 2.83v-2.148l4.37-2.898zm10.61 17.694c-1.17 0-2.2-.208-3.1-.623-.89-.42-1.59-.997-2.09-1.73-.5-.738-.75-1.579-.74-2.522-.01-.739.14-1.421.43-2.046.3-.631.7-1.156 1.21-1.577.52-.426 1.1-.696 1.73-.809v-.102a3.36 3.36 0 0 1-1.99-1.407 4.26 4.26 0 0 1-.73-2.48c-.01-.886.22-1.679.67-2.378s1.08-1.25 1.87-1.653c.81-.403 1.72-.605 2.74-.605 1.01 0 1.92.202 2.71.605.8.403 1.42.954 1.88 1.653q.69 1.049.69 2.378 0 1.39-.75 2.48c-.5.722-1.15 1.191-1.97 1.407v.102c.63.113 1.2.383 1.7.809.51.421.91.946 1.21 1.577.3.625.46 1.307.46 2.046a4.4 4.4 0 0 1-.76 2.522c-.5.733-1.2 1.31-2.09 1.73-.89.415-1.91.623-3.08.623m0-1.875c.79 0 1.47-.128 2.05-.384.57-.256 1.01-.616 1.33-1.082.31-.466.47-1.012.47-1.637q0-.988-.51-1.747a3.43 3.43 0 0 0-1.37-1.193c-.57-.29-1.23-.435-1.97-.435s-1.41.145-1.99.435a3.53 3.53 0 0 0-1.38 1.193q-.495.759-.48 1.747-.015.938.45 1.637c.31.466.76.826 1.34 1.082s1.27.384 2.06.384m0-8.284c.63 0 1.18-.125 1.66-.375.49-.25.87-.6 1.15-1.049s.42-.974.43-1.576q-.015-.887-.42-1.543a2.7 2.7 0 0 0-1.13-1.023c-.48-.244-1.05-.366-1.69-.366q-.975 0-1.71.366-.735.358-1.14 1.023-.39.656-.39 1.543c0 .602.13 1.127.4 1.576.28.449.66.799 1.15 1.049s1.05.375 1.69.375m15.1 10.159c-1.13 0-2.13-.194-3.01-.58s-1.57-.923-2.09-1.611q-.765-1.04-.84-2.412h2.15c.05.563.24 1.049.58 1.458.34.403.79.716 1.34.937q.825.333 1.83.333c.75 0 1.42-.131 2-.392.58-.262 1.03-.625 1.36-1.091s.49-1.006.49-1.62c0-.642-.15-1.207-.47-1.696-.32-.494-.79-.88-1.4-1.159q-.915-.417-2.25-.417h-1.4v-1.875h1.4c.69 0 1.3-.125 1.82-.375.53-.25.94-.603 1.24-1.057q.45-.683.45-1.602 0-.887-.39-1.543a2.66 2.66 0 0 0-1.11-1.023c-.47-.244-1.03-.366-1.67-.366-.6 0-1.17.111-1.7.332a3.2 3.2 0 0 0-1.3.946 2.44 2.44 0 0 0-.54 1.483h-2.05c.03-.915.31-1.716.83-2.403.51-.694 1.19-1.233 2.02-1.62a6.6 6.6 0 0 1 2.77-.579c1.08 0 2.01.219 2.78.656.78.432 1.37 1.003 1.78 1.713q.63 1.065.63 2.301 0 1.475-.78 2.514c-.51.694-1.21 1.174-2.09 1.441v.136c1.11.182 1.97.651 2.59 1.406.61.75.92 1.679.92 2.787 0 .949-.25 1.801-.77 2.557q-.765 1.125-2.1 1.773c-.88.432-1.89.648-3.02.648M1091.33 698.545V716h-2.11v-15.239h-.11l-4.26 2.83v-2.148l4.37-2.898zm10.61 17.694c-1.17 0-2.2-.208-3.1-.623-.89-.42-1.59-.997-2.09-1.73-.5-.738-.75-1.579-.74-2.522-.01-.739.14-1.421.43-2.046.3-.631.7-1.156 1.21-1.577.52-.426 1.1-.696 1.73-.809v-.102a3.36 3.36 0 0 1-1.99-1.407 4.26 4.26 0 0 1-.73-2.48c-.01-.886.22-1.679.67-2.378s1.08-1.25 1.87-1.653c.81-.403 1.72-.605 2.74-.605 1.01 0 1.92.202 2.71.605.8.403 1.42.954 1.88 1.653q.69 1.049.69 2.378 0 1.39-.75 2.48c-.5.722-1.15 1.191-1.97 1.407v.102c.63.113 1.2.383 1.7.809.51.421.91.946 1.21 1.577.3.625.46 1.307.46 2.046a4.4 4.4 0 0 1-.76 2.522c-.5.733-1.2 1.31-2.09 1.73-.89.415-1.91.623-3.08.623m0-1.875c.79 0 1.47-.128 2.05-.384.57-.256 1.01-.616 1.33-1.082.31-.466.47-1.012.47-1.637q0-.988-.51-1.747a3.43 3.43 0 0 0-1.37-1.193c-.57-.29-1.23-.435-1.97-.435s-1.41.145-1.99.435a3.53 3.53 0 0 0-1.38 1.193q-.495.759-.48 1.747-.015.938.45 1.637c.31.466.76.826 1.34 1.082s1.27.384 2.06.384m0-8.284c.63 0 1.18-.125 1.66-.375.49-.25.87-.6 1.15-1.049s.42-.974.43-1.576q-.015-.887-.42-1.543a2.7 2.7 0 0 0-1.13-1.023c-.48-.244-1.05-.366-1.69-.366q-.975 0-1.71.366-.735.358-1.14 1.023-.39.656-.39 1.543c0 .602.13 1.127.4 1.576.28.449.66.799 1.15 1.049s1.05.375 1.69.375m15.1 10.159c-1.13 0-2.13-.194-3.01-.58s-1.57-.923-2.09-1.611q-.765-1.04-.84-2.412h2.15c.05.563.24 1.049.58 1.458.34.403.79.716 1.34.937q.825.333 1.83.333c.75 0 1.42-.131 2-.392.58-.262 1.03-.625 1.36-1.091s.49-1.006.49-1.62c0-.642-.15-1.207-.47-1.696-.32-.494-.79-.88-1.4-1.159q-.915-.417-2.25-.417h-1.4v-1.875h1.4c.69 0 1.3-.125 1.82-.375.53-.25.94-.603 1.24-1.057q.45-.683.45-1.602 0-.887-.39-1.543a2.66 2.66 0 0 0-1.11-1.023c-.47-.244-1.03-.366-1.67-.366-.6 0-1.17.111-1.7.332a3.2 3.2 0 0 0-1.3.946 2.44 2.44 0 0 0-.54 1.483h-2.05c.03-.915.31-1.716.83-2.403.51-.694 1.19-1.233 2.02-1.62a6.6 6.6 0 0 1 2.77-.579c1.08 0 2.01.219 2.78.656.78.432 1.37 1.003 1.78 1.713q.63 1.065.63 2.301 0 1.475-.78 2.514c-.51.694-1.21 1.174-2.09 1.441v.136c1.11.182 1.97.651 2.59 1.406.61.75.92 1.679.92 2.787 0 .949-.25 1.801-.77 2.557q-.765 1.125-2.1 1.773c-.88.432-1.89.648-3.02.648M331.208 265.239q-1.687 0-3.008-.58-1.313-.579-2.088-1.611-.768-1.04-.835-2.412h2.147a2.54 2.54 0 0 0 .58 1.458q.511.605 1.338.937a4.9 4.9 0 0 0 1.832.333q1.125 0 1.995-.392.869-.393 1.363-1.091.495-.699.495-1.62 0-.963-.478-1.696-.477-.74-1.397-1.159-.921-.417-2.25-.417h-1.398v-1.875h1.398q1.04 0 1.823-.375.793-.376 1.236-1.057.452-.683.452-1.602 0-.887-.392-1.543a2.7 2.7 0 0 0-1.108-1.023q-.707-.366-1.67-.366-.904 0-1.705.332-.792.324-1.295.946-.504.614-.546 1.483h-2.045q.05-1.373.826-2.403.776-1.04 2.029-1.62 1.261-.579 2.77-.579 1.618 0 2.778.656 1.16.648 1.781 1.713.622 1.065.622 2.301 0 1.475-.775 2.514-.767 1.04-2.088 1.441v.136q1.653.273 2.582 1.406.93 1.125.929 2.787 0 1.423-.775 2.557-.768 1.125-2.097 1.773-1.33.648-3.026.648m9.929-.239 7.807-15.443v-.137h-9v-1.875h11.182v1.978L343.353 265zM331.208 717.239q-1.687 0-3.008-.58-1.313-.579-2.088-1.611-.768-1.04-.835-2.412h2.147a2.54 2.54 0 0 0 .58 1.458q.511.605 1.338.937a4.9 4.9 0 0 0 1.832.333q1.125 0 1.995-.392.869-.392 1.363-1.091.495-.699.495-1.62 0-.963-.478-1.696-.477-.74-1.397-1.159-.921-.417-2.25-.417h-1.398v-1.875h1.398q1.04 0 1.823-.375.793-.375 1.236-1.057.452-.683.452-1.602 0-.887-.392-1.543a2.7 2.7 0 0 0-1.108-1.023q-.707-.366-1.67-.366-.904 0-1.705.332-.792.324-1.295.946-.504.614-.546 1.483h-2.045q.05-1.373.826-2.403.776-1.04 2.029-1.62 1.261-.579 2.77-.579 1.618 0 2.778.656 1.16.648 1.781 1.713.622 1.065.622 2.301 0 1.475-.775 2.514-.767 1.04-2.088 1.441v.136q1.653.273 2.582 1.406.93 1.125.929 2.787 0 1.423-.775 2.557-.768 1.125-2.097 1.773-1.33.648-3.026.648m9.929-.239 7.807-15.443v-.137h-9v-1.875h11.182v1.978L343.353 717zM725.834 246.545V264h-2.114v-15.239h-.102l-4.261 2.83v-2.148l4.363-2.898zm5.02 17.455v-1.534l5.761-6.307a41 41 0 0 0 1.671-1.926q.656-.827.971-1.551.324-.733.324-1.534 0-.92-.443-1.594a2.9 2.9 0 0 0-1.193-1.04 3.9 3.9 0 0 0-1.705-.366q-1.005 0-1.756.417a2.9 2.9 0 0 0-1.15 1.151q-.4.741-.401 1.739h-2.011q0-1.535.707-2.694a4.9 4.9 0 0 1 1.926-1.806q1.228-.648 2.753-.648 1.534 0 2.719.648a4.86 4.86 0 0 1 1.858 1.747 4.6 4.6 0 0 1 .673 2.446 5.3 5.3 0 0 1-.349 1.883q-.34.912-1.193 2.037-.844 1.117-2.344 2.727l-3.921 4.194v.136h8.114V264zm14.531 0v-1.534l5.761-6.307a41 41 0 0 0 1.671-1.926q.656-.827.971-1.551.324-.733.324-1.534 0-.92-.443-1.594a2.9 2.9 0 0 0-1.193-1.04 3.9 3.9 0 0 0-1.705-.366q-1.005 0-1.755.417a2.9 2.9 0 0 0-1.151 1.151q-.4.741-.401 1.739h-2.011q0-1.535.708-2.694a4.9 4.9 0 0 1 1.926-1.806q1.227-.648 2.752-.648 1.534 0 2.719.648a4.86 4.86 0 0 1 1.858 1.747 4.6 4.6 0 0 1 .673 2.446 5.3 5.3 0 0 1-.349 1.883q-.34.912-1.193 2.037-.844 1.117-2.344 2.727l-3.92 4.194v.136h8.113V264zM725.834 698.545V716h-2.114v-15.239h-.102l-4.261 2.83v-2.148l4.363-2.898zm5.02 17.455v-1.534l5.761-6.307a41 41 0 0 0 1.671-1.926q.656-.826.971-1.551.324-.733.324-1.534 0-.92-.443-1.594a2.9 2.9 0 0 0-1.193-1.04 3.9 3.9 0 0 0-1.705-.366q-1.005 0-1.756.417a2.9 2.9 0 0 0-1.15 1.151q-.4.741-.401 1.739h-2.011q0-1.534.707-2.694a4.9 4.9 0 0 1 1.926-1.806q1.228-.648 2.753-.648 1.534 0 2.719.648a4.86 4.86 0 0 1 1.858 1.747 4.6 4.6 0 0 1 .673 2.446 5.3 5.3 0 0 1-.349 1.883q-.34.912-1.193 2.037-.844 1.117-2.344 2.727l-3.921 4.194v.136h8.114V716zm14.531 0v-1.534l5.761-6.307a41 41 0 0 0 1.671-1.926q.656-.826.971-1.551.324-.733.324-1.534 0-.92-.443-1.594a2.9 2.9 0 0 0-1.193-1.04 3.9 3.9 0 0 0-1.705-.366q-1.005 0-1.755.417a2.9 2.9 0 0 0-1.151 1.151q-.4.741-.401 1.739h-2.011q0-1.534.708-2.694a4.9 4.9 0 0 1 1.926-1.806q1.227-.648 2.752-.648 1.534 0 2.719.648a4.86 4.86 0 0 1 1.858 1.747 4.6 4.6 0 0 1 .673 2.446 5.3 5.3 0 0 1-.349 1.883q-.34.912-1.193 2.037-.844 1.117-2.344 2.727l-3.92 4.194v.136h8.113V716zM212.666 247.545V265h-2.114v-15.239h-.102l-4.261 2.83v-2.148l4.363-2.898zm4.611 13.875v-1.738l7.67-12.137h1.261v2.694h-.852l-5.795 9.17v.136h10.329v1.875zm8.216 3.58v-17.455h2.011V265zM212.666 699.545V717h-2.114v-15.239h-.102l-4.261 2.83v-2.148l4.363-2.898zm4.611 13.875v-1.738l7.67-12.137h1.261v2.694h-.852l-5.795 9.17v.136h10.329v1.875zm8.216 3.58v-17.455h2.011V717zM802.588 246.545V264h-2.114v-15.239h-.102l-4.262 2.83v-2.148l4.364-2.898zm5.02 17.455v-1.534l5.761-6.307a40 40 0 0 0 1.67-1.926q.657-.827.972-1.551.324-.733.324-1.534 0-.92-.443-1.594a2.9 2.9 0 0 0-1.193-1.04 3.9 3.9 0 0 0-1.705-.366q-1.006 0-1.756.417a2.88 2.88 0 0 0-1.15 1.151q-.4.741-.401 1.739h-2.011q0-1.535.707-2.694a4.9 4.9 0 0 1 1.926-1.806q1.227-.648 2.753-.648 1.534 0 2.719.648a4.86 4.86 0 0 1 1.858 1.747 4.6 4.6 0 0 1 .673 2.446 5.3 5.3 0 0 1-.349 1.883q-.341.912-1.193 2.037-.844 1.117-2.344 2.727l-3.921 4.194v.136h8.114V264zm13.747-3.58v-1.738l7.67-12.137h1.262v2.694h-.853l-5.795 9.17v.136h10.329v1.875zm8.216 3.58v-17.455h2.011V264zM802.588 698.545V716h-2.114v-15.239h-.102l-4.262 2.83v-2.148l4.364-2.898zm5.02 17.455v-1.534l5.761-6.307a40 40 0 0 0 1.67-1.926q.657-.826.972-1.551.324-.733.324-1.534 0-.92-.443-1.594a2.9 2.9 0 0 0-1.193-1.04 3.9 3.9 0 0 0-1.705-.366q-1.006 0-1.756.417a2.88 2.88 0 0 0-1.15 1.151q-.4.741-.401 1.739h-2.011q0-1.534.707-2.694a4.9 4.9 0 0 1 1.926-1.806q1.227-.648 2.753-.648 1.534 0 2.719.648a4.86 4.86 0 0 1 1.858 1.747 4.6 4.6 0 0 1 .673 2.446 5.3 5.3 0 0 1-.349 1.883q-.341.912-1.193 2.037-.844 1.117-2.344 2.727l-3.921 4.194v.136h8.114V716zm13.747-3.58v-1.738l7.67-12.137h1.262v2.694h-.853l-5.795 9.17v.136h10.329v1.875zm8.216 3.58v-17.455h2.011V716zM450.813 265.239a6.6 6.6 0 0 1-2.148-.409q-1.073-.393-1.96-1.321-.886-.937-1.423-2.532-.537-1.602-.537-4.022 0-2.319.435-4.108.434-1.799 1.261-3.026.827-1.236 1.994-1.875 1.176-.639 2.651-.639 1.466 0 2.608.588a5 5 0 0 1 1.875 1.619q.724 1.04.937 2.395h-2.079q-.29-1.176-1.125-1.952-.836-.775-2.216-.775-2.029 0-3.196 1.764-1.16 1.764-1.168 4.952h.137a5.14 5.14 0 0 1 2.599-2.037 5.1 5.1 0 0 1 1.696-.281q1.5 0 2.744.75a5.54 5.54 0 0 1 1.995 2.054q.75 1.303.75 2.991 0 1.62-.725 2.966a5.5 5.5 0 0 1-2.037 2.131q-1.304.783-3.068.767m0-1.875q1.074 0 1.926-.537a3.83 3.83 0 0 0 1.355-1.441 4.05 4.05 0 0 0 .503-2.011q0-1.083-.485-1.969a3.7 3.7 0 0 0-1.322-1.423q-.834-.528-1.909-.528-.809 0-1.508.323-.699.316-1.227.87-.52.553-.819 1.27a3.8 3.8 0 0 0-.298 1.491q0 1.04.486 1.943a4 4 0 0 0 1.347 1.458 3.53 3.53 0 0 0 1.951.554m14.636 1.875q-1.5 0-2.702-.597a5 5 0 0 1-1.926-1.636 4.47 4.47 0 0 1-.793-2.37h2.046q.118 1.185 1.074 1.961.963.767 2.301.767 1.074 0 1.909-.503a3.55 3.55 0 0 0 1.321-1.381q.486-.886.486-2.003 0-1.142-.503-2.037a3.7 3.7 0 0 0-1.364-1.423q-.869-.52-1.986-.528a5.4 5.4 0 0 0-1.644.247q-.844.247-1.39.639l-1.977-.239 1.057-8.591h9.068v1.875h-7.295l-.614 5.148h.102q.537-.426 1.347-.707a5.1 5.1 0 0 1 1.687-.281q1.603 0 2.856.767 1.26.758 1.977 2.079.724 1.321.724 3.017 0 1.67-.75 2.983a5.5 5.5 0 0 1-2.045 2.063q-1.305.75-2.966.75M450.813 717.239a6.6 6.6 0 0 1-2.148-.409q-1.073-.393-1.96-1.321-.886-.937-1.423-2.532-.537-1.602-.537-4.022 0-2.319.435-4.108.434-1.799 1.261-3.026.827-1.236 1.994-1.875 1.176-.639 2.651-.639 1.466 0 2.608.588a5 5 0 0 1 1.875 1.619q.724 1.04.937 2.395h-2.079q-.29-1.176-1.125-1.952-.836-.775-2.216-.775-2.029 0-3.196 1.764-1.16 1.764-1.168 4.952h.137a5.14 5.14 0 0 1 2.599-2.037 5.1 5.1 0 0 1 1.696-.281q1.5 0 2.744.75a5.54 5.54 0 0 1 1.995 2.054q.75 1.303.75 2.991 0 1.62-.725 2.966a5.5 5.5 0 0 1-2.037 2.131q-1.304.783-3.068.767m0-1.875q1.074 0 1.926-.537a3.83 3.83 0 0 0 1.355-1.441 4.05 4.05 0 0 0 .503-2.011q0-1.083-.485-1.969a3.7 3.7 0 0 0-1.322-1.423q-.834-.528-1.909-.528-.809 0-1.508.323-.699.316-1.227.87-.52.553-.819 1.27a3.8 3.8 0 0 0-.298 1.491q0 1.04.486 1.943a4 4 0 0 0 1.347 1.458 3.53 3.53 0 0 0 1.951.554m14.636 1.875q-1.5 0-2.702-.597a5 5 0 0 1-1.926-1.636 4.47 4.47 0 0 1-.793-2.37h2.046q.118 1.185 1.074 1.961.963.767 2.301.767 1.074 0 1.909-.503a3.55 3.55 0 0 0 1.321-1.381q.486-.886.486-2.003 0-1.141-.503-2.037a3.7 3.7 0 0 0-1.364-1.423q-.869-.52-1.986-.528a5.4 5.4 0 0 0-1.644.247q-.844.248-1.39.639l-1.977-.239 1.057-8.591h9.068v1.875h-7.295l-.614 5.148h.102q.537-.426 1.347-.707a5.1 5.1 0 0 1 1.687-.281q1.603 0 2.856.767 1.26.757 1.977 2.079.724 1.321.724 3.017 0 1.67-.75 2.983a5.5 5.5 0 0 1-2.045 2.063q-1.305.75-2.966.75M510.259 264.239a6.6 6.6 0 0 1-2.148-.409q-1.075-.393-1.96-1.321-.887-.937-1.424-2.532-.537-1.602-.537-4.022 0-2.319.435-4.108.435-1.799 1.261-3.026.827-1.236 1.995-1.875 1.176-.639 2.65-.639 1.467 0 2.608.588a5 5 0 0 1 1.875 1.619q.725 1.04.938 2.395h-2.08q-.29-1.176-1.125-1.952-.835-.775-2.216-.775-2.028 0-3.196 1.764-1.159 1.764-1.167 4.952h.136a5.12 5.12 0 0 1 2.599-2.037 5.1 5.1 0 0 1 1.696-.281q1.5 0 2.745.75a5.54 5.54 0 0 1 1.994 2.054q.75 1.304.75 2.991 0 1.62-.724 2.966a5.5 5.5 0 0 1-2.037 2.131q-1.304.783-3.068.767m0-1.875a3.54 3.54 0 0 0 1.926-.537 3.84 3.84 0 0 0 1.355-1.441 4.06 4.06 0 0 0 .503-2.011q0-1.083-.486-1.969a3.7 3.7 0 0 0-1.321-1.423q-.835-.528-1.909-.528-.81 0-1.509.323-.699.316-1.227.87a4.2 4.2 0 0 0-.818 1.27 3.8 3.8 0 0 0-.299 1.491q0 1.04.486 1.943.495.904 1.347 1.458a3.53 3.53 0 0 0 1.952.554m9.726 1.636 7.807-15.443v-.137h-9v-1.875h11.182v1.978L522.201 264zM510.259 716.239a6.6 6.6 0 0 1-2.148-.409q-1.075-.393-1.96-1.321-.887-.937-1.424-2.532-.537-1.602-.537-4.022 0-2.319.435-4.108.435-1.799 1.261-3.026.827-1.236 1.995-1.875 1.176-.639 2.65-.639 1.467 0 2.608.588a5 5 0 0 1 1.875 1.619q.725 1.04.938 2.395h-2.08q-.29-1.176-1.125-1.952-.835-.775-2.216-.775-2.028 0-3.196 1.764-1.159 1.764-1.167 4.952h.136a5.12 5.12 0 0 1 2.599-2.037 5.1 5.1 0 0 1 1.696-.281q1.5 0 2.745.75a5.54 5.54 0 0 1 1.994 2.054q.75 1.303.75 2.991 0 1.62-.724 2.966a5.5 5.5 0 0 1-2.037 2.131q-1.304.783-3.068.767m0-1.875a3.54 3.54 0 0 0 1.926-.537 3.84 3.84 0 0 0 1.355-1.441 4.06 4.06 0 0 0 .503-2.011q0-1.083-.486-1.969a3.7 3.7 0 0 0-1.321-1.423q-.835-.528-1.909-.528-.81 0-1.509.323-.699.316-1.227.87a4.2 4.2 0 0 0-.818 1.27 3.8 3.8 0 0 0-.299 1.491q0 1.04.486 1.943.495.904 1.347 1.458a3.53 3.53 0 0 0 1.952.554m9.726 1.636 7.807-15.443v-.137h-9v-1.875h11.182v1.978L522.201 716zM244.003 347.909V361h-1.585v-11.429h-.077l-3.196 2.122v-1.611l3.273-2.173zm7.012 6.546q0 2.415-.632 4.448a13.7 13.7 0 0 1-1.797 3.733h-1.329q.46-.632.856-1.559.403-.92.703-2.02.301-1.106.467-2.282.173-1.183.173-2.32 0-1.522-.294-3.088a18 18 0 0 0-.793-2.908q-.498-1.343-1.112-2.186h1.329a13.7 13.7 0 0 1 1.797 3.739q.632 2.026.632 4.443m9.104 6.545h-1.662l4.807-13.091h1.636L269.707 361h-1.662l-3.912-11.02h-.102zm.614-5.114h6.699v1.407h-6.699zm12.317-7.977V361h-1.508v-13.091zm4.272 0V361h-1.509v-13.091zM285.147 361v-9.818h1.458v1.483h.102q.268-.729.972-1.183a2.86 2.86 0 0 1 1.585-.454q.166 0 .415.007.25.006.377.019v1.534a4 4 0 0 0-.351-.057 3.5 3.5 0 0 0-.569-.045q-.715 0-1.278.3a2.3 2.3 0 0 0-.883.818 2.2 2.2 0 0 0-.319 1.183V361zm10.515.205q-1.419 0-2.448-.627a4.2 4.2 0 0 1-1.579-1.764q-.55-1.139-.55-2.646 0-1.509.55-2.659.557-1.158 1.547-1.803.997-.652 2.327-.652.767 0 1.515.256.747.255 1.361.831.614.569.978 1.508.365.94.365 2.314v.639h-7.569v-1.304h6.034q0-.83-.332-1.483a2.5 2.5 0 0 0-.933-1.029q-.602-.377-1.419-.377-.901 0-1.56.448a2.93 2.93 0 0 0-1.003 1.15q-.352.71-.352 1.521v.87q0 1.112.384 1.885.39.768 1.08 1.17.69.396 1.604.396.595 0 1.074-.166a2.3 2.3 0 0 0 .837-.511q.352-.345.544-.857l1.457.409a3.2 3.2 0 0 1-.773 1.304q-.544.557-1.343.87-.798.307-1.796.307m13.059 3.477v-5.191h-.128q-.165.268-.473.678-.306.402-.875.722-.57.314-1.515.314-1.228 0-2.167-.62-.94-.627-1.47-1.765-.531-1.143-.531-2.704 0-1.547.531-2.684.53-1.139 1.476-1.758.947-.62 2.186-.62.959 0 1.515.32.563.313.857.715.3.397.466.652h.179v-1.559h1.458v13.5zm-2.787-4.833q.908 0 1.534-.473.627-.479.953-1.323.326-.85.326-1.962 0-1.1-.32-1.924-.32-.83-.946-1.291-.626-.467-1.547-.467-.959 0-1.598.492-.633.486-.952 1.323-.313.831-.313 1.867 0 1.049.319 1.905.327.85.959 1.355.64.498 1.585.498m13.245-2.863v-5.804h1.508V361h-1.508v-1.662h-.103q-.345.749-1.074 1.272-.728.518-1.841.518-.92 0-1.636-.403-.715-.41-1.125-1.227-.41-.825-.409-2.078v-6.238h1.509v6.136q0 1.074.6 1.713.608.639 1.547.639a2.56 2.56 0 0 0 1.144-.287q.59-.288.985-.882.402-.596.403-1.515m8.387 4.219q-1.419 0-2.448-.627a4.2 4.2 0 0 1-1.578-1.764q-.55-1.139-.55-2.646 0-1.509.55-2.659.555-1.158 1.546-1.803.998-.652 2.327-.652.767 0 1.515.256.748.255 1.362.831.614.569.977 1.508.365.94.365 2.314v.639h-7.568v-1.304h6.034q0-.83-.333-1.483a2.5 2.5 0 0 0-.933-1.029q-.6-.377-1.419-.377-.901 0-1.56.448a2.94 2.94 0 0 0-1.003 1.15q-.351.71-.352 1.521v.87q0 1.112.384 1.885.39.768 1.08 1.17.69.396 1.604.396.595 0 1.074-.166.486-.172.838-.511a2.3 2.3 0 0 0 .543-.857l1.457.409a3.2 3.2 0 0 1-.773 1.304q-.544.557-1.342.87-.8.307-1.797.307m13.315-7.824-1.355.383a2.5 2.5 0 0 0-.377-.658 1.8 1.8 0 0 0-.665-.537q-.421-.211-1.08-.211-.902 0-1.502.415-.595.41-.595 1.042 0 .563.409.889.41.325 1.279.543l1.457.358q1.317.32 1.963.978.645.652.645 1.681 0 .844-.486 1.509-.479.664-1.342 1.048t-2.007.384q-1.502 0-2.487-.652-.984-.652-1.246-1.905l1.432-.358q.204.792.773 1.189.576.396 1.502.396 1.055 0 1.675-.447.626-.454.626-1.087 0-.512-.358-.857-.358-.351-1.099-.524l-1.636-.383q-1.349-.32-1.982-.991-.626-.678-.626-1.694 0-.831.466-1.47.474-.64 1.285-1.004.819-.364 1.854-.364 1.457 0 2.288.639.837.64 1.189 1.688m6.72-2.199v1.278h-5.088v-1.278zm-3.605-2.352h1.508v9.358q0 .639.186.958.19.314.485.422.302.102.633.102.25 0 .409-.025l.256-.051.307 1.355a3 3 0 0 1-.429.115 3 3 0 0 1-.696.064q-.64 0-1.253-.275a2.5 2.5 0 0 1-1.01-.837q-.396-.563-.396-1.419zm12.653 4.551-1.355.383a2.5 2.5 0 0 0-.378-.658 1.8 1.8 0 0 0-.664-.537q-.423-.211-1.081-.211-.9 0-1.502.415-.594.41-.594 1.042 0 .563.409.889.41.325 1.278.543l1.458.358q1.317.32 1.962.978.646.652.646 1.681 0 .844-.486 1.509-.48.664-1.342 1.048-.864.384-2.008.384-1.502 0-2.486-.652t-1.247-1.905l1.432-.358q.205.792.774 1.189.575.396 1.502.396 1.054 0 1.675-.447.626-.454.626-1.087 0-.512-.358-.857-.358-.351-1.099-.524l-1.637-.383q-1.348-.32-1.981-.991-.627-.678-.627-1.694 0-.831.467-1.47.473-.64 1.285-1.004.818-.364 1.853-.364 1.458 0 2.289.639.837.64 1.189 1.688m11.782-2.199v1.278h-5.088v-1.278zm-3.605-2.352h1.508v9.358q0 .639.186.958.19.314.485.422.302.102.633.102.25 0 .409-.025l.256-.051.307 1.355a3 3 0 0 1-.428.115 3 3 0 0 1-.697.064q-.64 0-1.253-.275a2.5 2.5 0 0 1-1.01-.837q-.396-.563-.396-1.419zm9.757 12.375q-1.33 0-2.333-.633-.998-.633-1.56-1.771-.555-1.137-.556-2.659 0-1.534.556-2.678.562-1.144 1.56-1.777 1.004-.633 2.333-.633t2.327.633q1.003.633 1.56 1.777.562 1.144.562 2.678 0 1.522-.562 2.659-.557 1.138-1.56 1.771-.997.633-2.327.633m0-1.356q1.01 0 1.662-.517.653-.518.965-1.362a5.2 5.2 0 0 0 .314-1.828q0-.984-.314-1.834a3.1 3.1 0 0 0-.965-1.375q-.653-.524-1.662-.524-1.01 0-1.662.524-.651.525-.965 1.375a5.3 5.3 0 0 0-.313 1.834q0 .985.313 1.828.314.844.965 1.362.652.517 1.662.517m-125.174 13.333v1.278h-5.088v-1.278zm-3.605-2.352h1.509v9.358q0 .639.185.958.192.314.486.422.3.102.633.102.249 0 .409-.025l.256-.051.306 1.355a3 3 0 0 1-.428.115 3 3 0 0 1-.697.064q-.638 0-1.253-.275a2.5 2.5 0 0 1-1.009-.837q-.397-.563-.397-1.419zm7.594 6.264V383h-1.509v-13.091h1.509v4.807h.128q.345-.76 1.035-1.208.697-.454 1.854-.454 1.003 0 1.758.403.754.396 1.17 1.221.421.818.421 2.083V383h-1.508v-6.136q0-1.17-.607-1.809-.601-.646-1.669-.646a2.8 2.8 0 0 0-1.329.313 2.3 2.3 0 0 0-.921.914q-.332.601-.332 1.458m13.243 6.111q-1.419 0-2.448-.627a4.2 4.2 0 0 1-1.579-1.764q-.55-1.139-.55-2.646 0-1.509.55-2.659.555-1.158 1.547-1.803.996-.652 2.326-.652.768 0 1.515.256.749.255 1.362.831.613.569.978 1.508.364.94.364 2.314v.639h-7.568v-1.304h6.034q0-.83-.332-1.483a2.5 2.5 0 0 0-.934-1.029q-.6-.377-1.419-.377-.901 0-1.559.448-.653.44-1.004 1.15t-.351 1.521v.87q0 1.112.383 1.885.39.768 1.08 1.17.69.396 1.605.396.594 0 1.074-.166.485-.172.837-.511a2.3 2.3 0 0 0 .543-.857l1.458.409a3.24 3.24 0 0 1-.774 1.304 3.8 3.8 0 0 1-1.342.87 5 5 0 0 1-1.796.307m12.931-13.296V383h-1.509v-13.091zm6.879 13.296q-1.419 0-2.448-.627a4.2 4.2 0 0 1-1.579-1.764q-.549-1.139-.549-2.646 0-1.509.549-2.659.557-1.158 1.547-1.803.997-.652 2.327-.652.767 0 1.515.256.747.255 1.361.831.614.569.978 1.508.365.94.365 2.314v.639h-7.569v-1.304h6.035q0-.83-.333-1.483a2.5 2.5 0 0 0-.933-1.029q-.602-.377-1.419-.377-.901 0-1.56.448a2.94 2.94 0 0 0-1.003 1.15q-.352.71-.352 1.521v.87q0 1.112.384 1.885.39.768 1.08 1.17.69.396 1.604.396.596 0 1.074-.166a2.3 2.3 0 0 0 .837-.511q.352-.345.544-.857l1.457.409a3.2 3.2 0 0 1-.773 1.304q-.543.557-1.343.87-.798.307-1.796.307m10.733-10.023v1.278h-5.293v-1.278zM293.476 383v-11.173q0-.845.396-1.407a2.46 2.46 0 0 1 1.03-.843 3.2 3.2 0 0 1 1.335-.282q.557 0 .908.09.352.09.524.166l-.434 1.304a10 10 0 0 0-.32-.096 2 2 0 0 0-.524-.057q-.749 0-1.08.377-.327.377-.326 1.106V383zm10.092-9.818v1.278h-5.089v-1.278zm-3.606-2.352h1.509v9.358q0 .639.185.958.192.314.486.422.3.102.633.102.25 0 .409-.025l.256-.051.307 1.355a3 3 0 0 1-.429.115 3 3 0 0 1-.696.064q-.64 0-1.253-.275a2.5 2.5 0 0 1-1.01-.837q-.397-.563-.397-1.419zm14.926 12.375q-1.33 0-2.333-.633-.998-.633-1.56-1.771-.556-1.137-.556-2.659 0-1.534.556-2.678.563-1.144 1.56-1.777 1.004-.633 2.333-.633t2.327.633q1.003.633 1.559 1.777.563 1.144.563 2.678 0 1.522-.563 2.659-.556 1.138-1.559 1.771-.998.633-2.327.633m0-1.356q1.01 0 1.662-.517.651-.518.965-1.362a5.2 5.2 0 0 0 .313-1.828q0-.984-.313-1.834a3.1 3.1 0 0 0-.965-1.375q-.652-.524-1.662-.524t-1.662.524-.965 1.375a5.3 5.3 0 0 0-.313 1.834q0 .985.313 1.828t.965 1.362q.653.517 1.662.517m11.124-8.667v1.278h-5.293v-1.278zM322.304 383v-11.173q0-.845.397-1.407a2.45 2.45 0 0 1 1.029-.843 3.25 3.25 0 0 1 1.336-.282q.555 0 .907.09t.524.166l-.434 1.304a10 10 0 0 0-.32-.096 2 2 0 0 0-.524-.057q-.749 0-1.08.377-.327.377-.326 1.106V383zm12.393-5.906V383h-1.509v-13.091h1.509v4.807h.128q.345-.76 1.035-1.208.697-.454 1.854-.454 1.003 0 1.758.403.754.396 1.169 1.221.422.818.422 2.083V383h-1.508v-6.136q0-1.17-.607-1.809-.601-.646-1.669-.646a2.8 2.8 0 0 0-1.329.313 2.3 2.3 0 0 0-.921.914q-.332.601-.332 1.458m13.243 6.111q-1.42 0-2.449-.627a4.2 4.2 0 0 1-1.578-1.764q-.55-1.139-.55-2.646 0-1.509.55-2.659.556-1.158 1.546-1.803.998-.652 2.327-.652.767 0 1.515.256.748.255 1.362.831.613.569.978 1.508.363.94.364 2.314v.639h-7.568v-1.304h6.034q0-.83-.333-1.483a2.5 2.5 0 0 0-.933-1.029q-.6-.377-1.419-.377-.901 0-1.56.448a2.94 2.94 0 0 0-1.003 1.15q-.351.71-.352 1.521v.87q0 1.112.384 1.885.39.768 1.08 1.17.69.396 1.605.396.594 0 1.073-.166.486-.172.838-.511a2.3 2.3 0 0 0 .543-.857l1.457.409a3.2 3.2 0 0 1-.773 1.304q-.543.557-1.342.87a5 5 0 0 1-1.796.307m9.249.025a4 4 0 0 1-1.694-.351 2.9 2.9 0 0 1-1.208-1.03q-.447-.677-.448-1.636 0-.843.333-1.368.332-.531.888-.831t1.228-.447q.677-.154 1.361-.243.895-.115 1.451-.173.563-.063.818-.211.262-.147.262-.511v-.051q0-.946-.517-1.47-.512-.524-1.554-.524-1.08 0-1.694.473t-.863 1.009l-1.431-.511q.383-.894 1.022-1.393.646-.505 1.407-.703a5.8 5.8 0 0 1 1.508-.205q.473 0 1.087.115.62.108 1.195.454.582.345.965 1.042.384.696.384 1.866V383h-1.509v-1.33h-.076a2.6 2.6 0 0 1-.512.684q-.358.365-.952.62-.594.256-1.451.256m.23-1.355q.895 0 1.508-.352a2.39 2.39 0 0 0 1.253-2.077v-1.381q-.096.115-.422.211-.32.09-.741.16a32 32 0 0 1-1.445.192 5.8 5.8 0 0 0-1.099.249 1.9 1.9 0 0 0-.818.505q-.307.332-.307.908 0 .786.582 1.189.588.396 1.489.396m10.731 1.33q-1.228 0-2.167-.62-.94-.627-1.47-1.765-.531-1.143-.531-2.704 0-1.547.531-2.684.53-1.139 1.476-1.758.946-.62 2.186-.62.959 0 1.515.32.563.313.857.715.3.397.466.652h.128v-4.832h1.509V383h-1.458v-1.509h-.179a10 10 0 0 1-.473.678q-.306.402-.875.722-.57.314-1.515.314m.204-1.356q.908 0 1.534-.473.627-.479.953-1.323.326-.85.326-1.962 0-1.1-.32-1.924-.32-.83-.946-1.291-.627-.467-1.547-.467-.959 0-1.598.492-.633.486-.952 1.323-.313.831-.313 1.867 0 1.049.319 1.905.326.85.959 1.355.639.498 1.585.498m-134.596 17.628q0-2.416.627-4.442a13.9 13.9 0 0 1 1.802-3.74h1.33a8.2 8.2 0 0 0-.863 1.56 15 15 0 0 0-.697 2.026 19 19 0 0 0-.473 2.276 16.5 16.5 0 0 0-.166 2.32q0 1.521.294 3.088.294 1.566.793 2.908.498 1.343 1.112 2.186h-1.33a13.9 13.9 0 0 1-1.802-3.733q-.627-2.032-.627-4.449m12.172 1.509v-5.804h1.509V405h-1.509v-1.662h-.102q-.345.749-1.074 1.272-.728.518-1.841.518-.92 0-1.636-.403-.715-.41-1.125-1.227-.41-.825-.409-2.078v-6.238h1.509v6.136q0 1.074.6 1.713.608.639 1.547.639a2.56 2.56 0 0 0 1.144-.287q.589-.288.985-.882.402-.596.402-1.515m5.78-1.892V405h-1.508v-9.818h1.457v1.534h.128q.345-.748 1.048-1.202.703-.46 1.816-.46.997 0 1.745.409.747.404 1.163 1.227.416.819.416 2.071V405h-1.509v-6.136q0-1.158-.601-1.803-.6-.652-1.649-.652a2.63 2.63 0 0 0-1.291.313 2.25 2.25 0 0 0-.889.914q-.326.601-.326 1.458m13.291-3.912v1.278h-5.088v-1.278zm-3.605-2.352h1.509v9.358q0 .639.185.958.192.314.486.422.3.102.633.102.249 0 .409-.025l.255-.051.307 1.355a3 3 0 0 1-.428.115 3 3 0 0 1-.697.064q-.64 0-1.253-.275a2.5 2.5 0 0 1-1.01-.837q-.396-.563-.396-1.419zM267.27 405v-9.818h1.509V405zm.767-11.455q-.44 0-.76-.3a.96.96 0 0 1-.313-.722q0-.422.313-.723.32-.3.76-.3.441 0 .755.3a.96.96 0 0 1 .319.723.96.96 0 0 1-.319.722q-.314.3-.755.3m5.013-1.636V405h-1.508v-13.091zm9.334 0V405h-1.508v-13.091zm5.652 13.321a4 4 0 0 1-1.693-.351 2.9 2.9 0 0 1-1.209-1.03q-.447-.677-.447-1.636 0-.843.332-1.368.333-.531.889-.831t1.227-.447q.678-.154 1.362-.243.894-.115 1.451-.173.562-.063.818-.211.262-.147.262-.511v-.051q0-.946-.518-1.47-.511-.524-1.553-.524-1.08 0-1.694.473t-.863 1.009l-1.432-.511q.384-.894 1.023-1.393.645-.505 1.406-.703a5.8 5.8 0 0 1 1.509-.205q.473 0 1.086.115.62.108 1.196.454.582.345.965 1.042.383.696.383 1.866V405h-1.508v-1.33h-.077a2.6 2.6 0 0 1-.511.684q-.358.365-.953.62-.594.256-1.451.256m.231-1.355q.894 0 1.508-.352.62-.35.933-.907.32-.556.32-1.17v-1.381q-.096.115-.422.211-.32.09-.741.16a32 32 0 0 1-1.445.192 5.7 5.7 0 0 0-1.099.249q-.505.166-.819.505-.306.332-.306.908 0 .786.581 1.189.588.396 1.49.396m13.977-6.494-1.355.383a2.5 2.5 0 0 0-.377-.658 1.8 1.8 0 0 0-.665-.537q-.422-.211-1.08-.211-.901 0-1.502.415-.594.41-.594 1.042 0 .563.409.889.408.325 1.278.543l1.457.358q1.317.32 1.963.978.645.652.645 1.681 0 .844-.485 1.509-.48.664-1.343 1.048t-2.007.384q-1.502 0-2.486-.652t-1.247-1.905l1.432-.358q.204.792.773 1.189.576.396 1.503.396 1.054 0 1.674-.447.627-.454.627-1.087 0-.512-.358-.857-.358-.351-1.1-.524l-1.636-.383q-1.349-.32-1.982-.991-.626-.678-.626-1.694 0-.831.467-1.47.472-.64 1.284-1.004.819-.364 1.854-.364 1.458 0 2.288.639.838.64 1.189 1.688m6.72-2.199v1.278h-5.088v-1.278zm-3.605-2.352h1.508v9.358q0 .639.186.958.192.314.486.422.3.102.632.102a3 3 0 0 0 .41-.025l.255-.051.307 1.355a3 3 0 0 1-.428.115 3 3 0 0 1-.697.064q-.64 0-1.253-.275a2.5 2.5 0 0 1-1.01-.837q-.396-.563-.396-1.419zM316.296 405v-9.818h1.457v1.483h.102q.269-.729.972-1.183a2.87 2.87 0 0 1 1.585-.454q.166 0 .416.007.25.006.377.019v1.534a4 4 0 0 0-.352-.057 3.4 3.4 0 0 0-.569-.045q-.716 0-1.278.3a2.26 2.26 0 0 0-.882.818 2.2 2.2 0 0 0-.32 1.183V405zm10.515.205q-1.419 0-2.449-.627a4.2 4.2 0 0 1-1.578-1.764q-.55-1.139-.55-2.646 0-1.509.55-2.659.555-1.158 1.547-1.803.996-.652 2.326-.652.768 0 1.515.256.748.255 1.362.831.614.569.978 1.508t.364 2.314v.639h-7.568v-1.304h6.034q0-.83-.333-1.483a2.5 2.5 0 0 0-.933-1.029q-.6-.377-1.419-.377-.902 0-1.559.448-.653.44-1.004 1.15t-.352 1.521v.87q0 1.112.384 1.885.39.768 1.08 1.17.69.396 1.605.396.594 0 1.073-.166.486-.172.838-.511a2.3 2.3 0 0 0 .543-.857l1.458.409a3.24 3.24 0 0 1-.774 1.304q-.544.557-1.342.87a5 5 0 0 1-1.796.307m13.059 3.477v-5.191h-.128a10 10 0 0 1-.473.678q-.308.402-.876.722-.569.314-1.515.314-1.227 0-2.167-.62-.939-.627-1.47-1.765-.531-1.143-.531-2.704 0-1.547.531-2.684.53-1.139 1.477-1.758.945-.62 2.186-.62.959 0 1.515.32.562.313.856.715.3.397.467.652h.179v-1.559h1.457v13.5zm-2.787-4.833q.907 0 1.534-.473.626-.479.952-1.323.326-.85.326-1.962 0-1.1-.319-1.924-.32-.83-.946-1.291-.627-.467-1.547-.467-.96 0-1.598.492-.633.486-.953 1.323-.313.831-.313 1.867 0 1.049.32 1.905.326.85.958 1.355.64.498 1.586.498m13.244-2.863v-5.804h1.508V405h-1.508v-1.662h-.102q-.345.749-1.074 1.272-.73.518-1.841.518-.92 0-1.636-.403-.717-.41-1.125-1.227-.41-.825-.41-2.078v-6.238h1.509v6.136q0 1.074.601 1.713.607.639 1.547.639.562 0 1.144-.287.588-.288.984-.882.403-.596.403-1.515m8.388 4.219q-1.419 0-2.448-.627a4.2 4.2 0 0 1-1.579-1.764q-.55-1.139-.55-2.646 0-1.509.55-2.659.556-1.158 1.547-1.803.997-.652 2.327-.652.767 0 1.514.256.748.255 1.362.831.614.569.978 1.508t.364 2.314v.639h-7.568v-1.304h6.034q0-.83-.332-1.483a2.5 2.5 0 0 0-.933-1.029q-.601-.377-1.419-.377-.901 0-1.56.448a2.95 2.95 0 0 0-1.004 1.15q-.351.71-.351 1.521v.87q0 1.112.383 1.885.39.768 1.081 1.17.69.396 1.604.396.594 0 1.074-.166a2.3 2.3 0 0 0 .837-.511q.353-.345.543-.857l1.458.409a3.2 3.2 0 0 1-.774 1.304 3.8 3.8 0 0 1-1.342.87q-.799.307-1.796.307m13.315-7.824-1.356.383a2.5 2.5 0 0 0-.377-.658 1.8 1.8 0 0 0-.664-.537q-.423-.211-1.081-.211-.901 0-1.502.415-.594.41-.594 1.042 0 .563.409.889.41.325 1.278.543l1.458.358q1.316.32 1.962.978.645.652.646 1.681 0 .844-.486 1.509-.48.664-1.343 1.048t-2.007.384q-1.502 0-2.486-.652t-1.247-1.905l1.432-.358q.205.792.774 1.189.575.396 1.502.396 1.055 0 1.674-.447.627-.454.627-1.087 0-.512-.358-.857-.358-.351-1.1-.524l-1.636-.383q-1.349-.32-1.981-.991-.627-.678-.627-1.694 0-.831.467-1.47.472-.64 1.285-1.004.818-.364 1.853-.364 1.458 0 2.289.639.837.64 1.189 1.688m6.719-2.199v1.278h-5.088v-1.278zm-3.605-2.352h1.509v9.358q0 .639.185.958.192.314.486.422.3.102.633.102.249 0 .409-.025l.255-.051.307 1.355a3 3 0 0 1-.428.115 3 3 0 0 1-.697.064q-.64 0-1.253-.275a2.5 2.5 0 0 1-1.01-.837q-.396-.563-.396-1.419zm9.096 6.647q0 2.417-.633 4.449a13.7 13.7 0 0 1-1.796 3.733h-1.33a8 8 0 0 0 .857-1.56q.403-.92.703-2.019.3-1.106.467-2.282.172-1.183.172-2.321 0-1.521-.294-3.087a18 18 0 0 0-.792-2.908q-.499-1.342-1.113-2.187h1.33a13.7 13.7 0 0 1 1.796 3.74q.633 2.026.633 4.442M509.813 823v-1.151l4.321-4.73q.76-.83 1.253-1.444.492-.62.729-1.164.243-.55.243-1.15 0-.69-.333-1.196a2.15 2.15 0 0 0-.895-.779 2.9 2.9 0 0 0-1.278-.275q-.755 0-1.317.313a2.16 2.16 0 0 0-.863.863q-.3.556-.3 1.304h-1.509q0-1.15.531-2.02a3.7 3.7 0 0 1 1.444-1.355q.92-.486 2.065-.486 1.15 0 2.039.486a3.67 3.67 0 0 1 1.394 1.31q.505.825.505 1.835 0 .722-.263 1.412-.255.684-.894 1.528-.633.837-1.758 2.046l-2.941 3.144v.103h6.086V823zm14.146-6.545q0 2.415-.633 4.448a13.7 13.7 0 0 1-1.796 3.733h-1.33q.46-.632.857-1.559.403-.92.703-2.02.3-1.106.466-2.282.173-1.183.173-2.32 0-1.522-.294-3.088a17.7 17.7 0 0 0-.793-2.908q-.498-1.343-1.112-2.186h1.33a13.7 13.7 0 0 1 1.796 3.739q.633 2.026.633 4.443m15.726-3.273a2.01 2.01 0 0 0-.933-1.509q-.819-.537-2.008-.537-.868 0-1.521.282-.645.28-1.01.773a1.86 1.86 0 0 0-.358 1.119q0 .524.249.901.256.37.652.62.397.243.831.403.436.153.799.249l1.33.358q.511.134 1.138.371a5.3 5.3 0 0 1 1.208.645q.582.403.959 1.036t.377 1.553q0 1.061-.556 1.918-.55.856-1.611 1.361-1.055.505-2.563.505-1.407 0-2.436-.454-1.022-.453-1.61-1.265-.582-.812-.659-1.886h1.637q.063.741.498 1.227.441.48 1.112.716.678.23 1.458.23.907 0 1.63-.294.722-.3 1.144-.831a1.97 1.97 0 0 0 .422-1.253q0-.651-.365-1.061a2.7 2.7 0 0 0-.958-.664q-.595-.256-1.285-.448l-1.611-.46q-1.534-.441-2.429-1.259-.895-.819-.895-2.142 0-1.1.595-1.917.6-.825 1.61-1.279 1.016-.46 2.27-.46 1.264 0 2.25.454.984.447 1.559 1.227.582.78.614 1.771zm6.339 9.818-2.991-9.818h1.585l2.122 7.517h.102l2.097-7.517h1.611l2.071 7.491h.102l2.122-7.491h1.585L553.439 823h-1.483l-2.148-7.543h-.153L547.507 823zm12.401 0v-9.818h1.508V823zm.767-11.455q-.441 0-.761-.3a.96.96 0 0 1-.313-.722q0-.422.313-.723.32-.3.761-.3.44 0 .754.3.32.3.32.723a.96.96 0 0 1-.32.722q-.313.3-.754.3m7.774 1.637v1.278h-5.088v-1.278zm-3.605-2.352h1.508v9.358q0 .639.186.958.192.314.486.422.3.102.632.102.25 0 .409-.025l.256-.051.307 1.355a3 3 0 0 1-.428.115 3 3 0 0 1-.697.064q-.64 0-1.253-.275a2.5 2.5 0 0 1-1.01-.837q-.396-.563-.396-1.419zm9.757 12.375q-1.38 0-2.377-.652-.998-.652-1.535-1.797-.537-1.143-.537-2.614 0-1.495.55-2.64.557-1.15 1.547-1.796.997-.652 2.327-.652 1.035 0 1.866.384a3.6 3.6 0 0 1 1.362 1.073q.53.692.658 1.611h-1.508q-.173-.671-.767-1.189-.588-.524-1.586-.524-.881 0-1.547.46-.657.454-1.029 1.285-.364.825-.364 1.937 0 1.137.358 1.981.365.844 1.023 1.311.665.466 1.559.466.588 0 1.068-.204.479-.205.812-.588.332-.384.473-.921h1.508a3.48 3.48 0 0 1-1.956 2.666q-.817.403-1.905.403m7.575-6.111V823h-1.509v-13.091h1.509v4.807h.128q.345-.76 1.035-1.208.697-.454 1.854-.454 1.004 0 1.758.403.755.396 1.17 1.221.421.818.421 2.083V823h-1.508v-6.136q0-1.17-.607-1.809-.601-.646-1.669-.646a2.8 2.8 0 0 0-1.329.313 2.3 2.3 0 0 0-.921.914q-.332.601-.332 1.458m17.896 6.111q-1.227 0-2.167-.62-.939-.627-1.47-1.765-.531-1.143-.531-2.704 0-1.547.531-2.684.53-1.139 1.477-1.758.945-.62 2.186-.62.958 0 1.515.32.562.313.856.715.3.397.467.652h.128v-4.832h1.508V823h-1.457v-1.509h-.179a10 10 0 0 1-.473.678q-.308.402-.876.722-.569.314-1.515.314m.205-1.356q.907 0 1.534-.473.626-.478.952-1.323.326-.85.326-1.962 0-1.1-.32-1.924-.32-.83-.946-1.291-.626-.467-1.546-.467-.96 0-1.598.492-.633.486-.953 1.323-.313.832-.313 1.867 0 1.048.32 1.905.325.85.958 1.355.64.498 1.586.498m7.267 1.151v-9.818h1.509V823zm.767-11.455q-.44 0-.76-.3a.96.96 0 0 1-.313-.722q0-.422.313-.723.32-.3.76-.3.441 0 .755.3a.96.96 0 0 1 .319.723.96.96 0 0 1-.319.722q-.314.3-.755.3M610.333 823v-9.818h1.457v1.483h.102q.269-.729.972-1.183a2.87 2.87 0 0 1 1.585-.454q.167 0 .416.007.25.006.377.019v1.534a4 4 0 0 0-.352-.057 3.4 3.4 0 0 0-.569-.045q-.716 0-1.278.3a2.26 2.26 0 0 0-.882.818 2.2 2.2 0 0 0-.32 1.183V823zm10.515.205q-1.419 0-2.448-.627a4.2 4.2 0 0 1-1.579-1.764q-.55-1.138-.55-2.646t.55-2.659q.555-1.158 1.547-1.803.997-.652 2.326-.652.768 0 1.515.256.749.255 1.362.831.614.569.978 1.508t.364 2.314v.639h-7.568v-1.304h6.034q0-.83-.332-1.483a2.5 2.5 0 0 0-.934-1.029q-.6-.377-1.419-.377-.901 0-1.559.448a2.95 2.95 0 0 0-1.004 1.15q-.351.71-.351 1.521v.87q0 1.112.383 1.885.39.768 1.08 1.17.69.396 1.605.396.594 0 1.074-.166.485-.172.837-.511a2.3 2.3 0 0 0 .543-.857l1.458.409a3.24 3.24 0 0 1-.774 1.304 3.8 3.8 0 0 1-1.342.87q-.799.307-1.796.307m10.348 0q-1.38 0-2.377-.652a4.24 4.24 0 0 1-1.534-1.797q-.537-1.143-.537-2.614 0-1.495.549-2.64.557-1.15 1.547-1.796.998-.652 2.327-.652 1.035 0 1.866.384a3.6 3.6 0 0 1 1.362 1.073q.53.692.658 1.611h-1.508q-.173-.671-.767-1.189-.588-.524-1.586-.524-.882 0-1.546.46-.658.454-1.03 1.285-.363.825-.364 1.937 0 1.137.358 1.981.365.844 1.023 1.311.665.466 1.559.466a2.7 2.7 0 0 0 1.068-.204q.48-.205.812-.588.332-.384.473-.921h1.508a3.48 3.48 0 0 1-1.956 2.666q-.817.403-1.905.403m10.336-10.023v1.278h-5.088v-1.278zm-3.605-2.352h1.509v9.358q0 .639.185.958.192.314.486.422.3.102.633.102.249 0 .409-.025l.256-.051.306 1.355a3 3 0 0 1-.428.115 3 3 0 0 1-.697.064q-.639 0-1.252-.275a2.5 2.5 0 0 1-1.01-.837q-.397-.563-.397-1.419zm5.875 12.17v-9.818h1.508V823zm.767-11.455q-.441 0-.761-.3a.96.96 0 0 1-.313-.722q0-.422.313-.723.32-.3.761-.3.44 0 .754.3a.96.96 0 0 1 .319.723.96.96 0 0 1-.319.722q-.313.3-.754.3m7.493 11.66q-1.33 0-2.333-.633-.997-.633-1.56-1.771-.556-1.137-.556-2.659 0-1.534.556-2.678.563-1.144 1.56-1.777 1.003-.633 2.333-.633t2.326.633q1.003.633 1.56 1.777.563 1.144.563 2.678 0 1.522-.563 2.659-.557 1.138-1.56 1.771-.996.633-2.326.633m0-1.356q1.01 0 1.662-.517.651-.518.965-1.362a5.2 5.2 0 0 0 .313-1.828q0-.984-.313-1.834a3.1 3.1 0 0 0-.965-1.375q-.653-.524-1.662-.524-1.011 0-1.662.524-.653.525-.965 1.375a5.3 5.3 0 0 0-.314 1.834q0 .985.314 1.828.312.845.965 1.362.651.517 1.662.517m8.26-4.755V823h-1.509v-9.818h1.458v1.534h.128q.345-.748 1.048-1.202.703-.46 1.815-.46.998 0 1.745.409.749.403 1.164 1.227.415.819.415 2.071V823h-1.508v-6.136q0-1.158-.601-1.803-.602-.652-1.649-.652-.722 0-1.292.313a2.24 2.24 0 0 0-.888.914q-.327.601-.326 1.458m16.972 6.136a4 4 0 0 1-1.694-.351 2.9 2.9 0 0 1-1.208-1.03q-.447-.677-.447-1.636 0-.843.332-1.368.333-.531.889-.831t1.227-.447q.678-.154 1.362-.243.894-.115 1.451-.173.562-.064.818-.211.261-.147.262-.511v-.051q0-.947-.518-1.47-.512-.524-1.553-.524-1.08 0-1.694.473t-.863 1.009l-1.432-.511q.384-.894 1.023-1.393.645-.505 1.406-.703a5.8 5.8 0 0 1 1.509-.205q.473 0 1.086.115.62.109 1.196.454.58.345.965 1.042.383.696.383 1.866V823h-1.508v-1.33h-.077q-.154.321-.511.684-.358.365-.953.62-.594.256-1.451.256m.23-1.355q.895 0 1.509-.352a2.39 2.39 0 0 0 1.253-2.077v-1.381q-.096.115-.422.211-.32.09-.742.16a32 32 0 0 1-1.444.192 5.8 5.8 0 0 0-1.1.249 1.9 1.9 0 0 0-.818.505q-.306.332-.307.908 0 .786.582 1.189.589.396 1.489.396m8.532-4.781V823h-1.508v-9.818h1.457v1.534h.128q.345-.748 1.048-1.202.703-.46 1.816-.46.996 0 1.745.409.747.403 1.163 1.227.415.819.415 2.071V823h-1.508v-6.136q0-1.158-.601-1.803-.601-.652-1.649-.652-.723 0-1.291.313a2.25 2.25 0 0 0-.889.914q-.326.601-.326 1.458m12.728 6.111q-1.227 0-2.167-.62-.939-.627-1.47-1.765-.53-1.143-.53-2.704 0-1.547.53-2.684.53-1.139 1.477-1.758.946-.62 2.186-.62.959 0 1.515.32.562.313.856.715.301.397.467.652h.128v-4.832h1.508V823h-1.457v-1.509h-.179a10 10 0 0 1-.473.678q-.307.402-.876.722-.569.314-1.515.314m.205-1.356q.907 0 1.534-.473.627-.478.952-1.323.327-.85.326-1.962 0-1.1-.319-1.924-.32-.83-.946-1.291-.627-.467-1.547-.467-.959 0-1.598.492-.633.486-.953 1.323-.312.832-.313 1.867 0 1.048.32 1.905.326.85.959 1.355.639.498 1.585.498m16.6-8.667v1.278h-5.088v-1.278zm-3.605-2.352h1.508v9.358q0 .639.186.958.192.314.486.422.3.102.632.102a3 3 0 0 0 .41-.025l.255-.051.307 1.355a3 3 0 0 1-.428.115 3 3 0 0 1-.697.064q-.64 0-1.253-.275a2.5 2.5 0 0 1-1.01-.837q-.396-.563-.396-1.419zm5.874 12.17v-9.818h1.458v1.483h.102q.269-.729.971-1.183a2.87 2.87 0 0 1 1.586-.454q.166 0 .415.007.25.006.377.019v1.534a4 4 0 0 0-.351-.057 3.5 3.5 0 0 0-.569-.045q-.716 0-1.279.3-.555.294-.882.818a2.2 2.2 0 0 0-.319 1.183V823zm9.587.23a4 4 0 0 1-1.694-.351 2.9 2.9 0 0 1-1.208-1.03q-.448-.677-.448-1.636 0-.843.333-1.368.332-.531.888-.831t1.227-.447q.678-.154 1.362-.243.895-.115 1.451-.173.563-.064.818-.211.262-.147.262-.511v-.051q0-.947-.518-1.47-.51-.524-1.553-.524-1.08 0-1.694.473t-.863 1.009l-1.431-.511q.383-.894 1.022-1.393a3.8 3.8 0 0 1 1.406-.703 5.8 5.8 0 0 1 1.509-.205q.473 0 1.087.115.62.109 1.195.454.582.345.965 1.042.384.696.384 1.866V823h-1.509v-1.33h-.077a2.6 2.6 0 0 1-.511.684q-.358.365-.952.62-.595.256-1.451.256m.23-1.355q.894 0 1.508-.352a2.39 2.39 0 0 0 1.253-2.077v-1.381q-.096.115-.422.211-.32.09-.741.16a32 32 0 0 1-1.445.192 5.8 5.8 0 0 0-1.099.249q-.506.166-.818.505-.307.332-.307.908 0 .786.581 1.189.589.396 1.49.396m14.7-8.693L738.744 823h-1.534l-3.631-9.818h1.637l2.71 7.824h.102l2.711-7.824zm5.756 10.023q-1.419 0-2.448-.627a4.2 4.2 0 0 1-1.579-1.764q-.55-1.138-.55-2.646t.55-2.659q.556-1.158 1.547-1.803.997-.652 2.327-.652.767 0 1.514.256.749.255 1.362.831.614.569.978 1.508t.364 2.314v.639h-7.568v-1.304h6.034q0-.83-.332-1.483a2.5 2.5 0 0 0-.933-1.029q-.601-.377-1.419-.377-.902 0-1.56.448a2.95 2.95 0 0 0-1.004 1.15q-.351.71-.351 1.521v.87q0 1.112.383 1.885.39.768 1.081 1.17.69.396 1.604.396.594 0 1.074-.166a2.3 2.3 0 0 0 .837-.511q.353-.345.543-.857l1.458.409a3.2 3.2 0 0 1-.774 1.304 3.8 3.8 0 0 1-1.342.87q-.799.307-1.796.307M756 809.909V823h-1.509v-13.091zm12.095 3.273v1.278h-5.088v-1.278zm-3.605-2.352h1.508v9.358q0 .639.186.958.192.314.485.422.302.102.633.102.25 0 .409-.025l.256-.051.307 1.355a3 3 0 0 1-.428.115 3 3 0 0 1-.697.064q-.64 0-1.253-.275a2.5 2.5 0 0 1-1.01-.837q-.396-.563-.396-1.419zm9.757 12.375q-1.33 0-2.333-.633-.997-.633-1.56-1.771-.555-1.137-.556-2.659 0-1.534.556-2.678.563-1.144 1.56-1.777 1.004-.633 2.333-.633t2.327.633q1.003.633 1.56 1.777.562 1.144.562 2.678 0 1.522-.562 2.659-.556 1.138-1.56 1.771-.997.633-2.327.633m0-1.356q1.011 0 1.662-.517.653-.518.965-1.362a5.2 5.2 0 0 0 .314-1.828q0-.984-.314-1.834a3.1 3.1 0 0 0-.965-1.375q-.651-.524-1.662-.524t-1.662.524-.965 1.375a5.3 5.3 0 0 0-.313 1.834q0 .985.313 1.828.314.845.965 1.362.652.517 1.662.517m16.084-8.667v1.278h-5.088v-1.278zm-3.605-2.352h1.509v9.358q0 .639.185.958.192.314.486.422.3.102.633.102.249 0 .409-.025l.255-.051.307 1.355a3 3 0 0 1-.428.115 3 3 0 0 1-.697.064q-.64 0-1.253-.275a2.5 2.5 0 0 1-1.01-.837q-.396-.563-.396-1.419zm7.594 6.264V823h-1.509v-13.091h1.509v4.807h.128q.345-.76 1.035-1.208.697-.454 1.854-.454 1.004 0 1.758.403.754.396 1.169 1.221.422.818.422 2.083V823h-1.508v-6.136q0-1.17-.607-1.809-.601-.646-1.669-.646a2.8 2.8 0 0 0-1.329.313 2.3 2.3 0 0 0-.921.914q-.332.601-.332 1.458m13.243 6.111q-1.419 0-2.449-.627a4.2 4.2 0 0 1-1.578-1.764q-.55-1.138-.55-2.646t.55-2.659q.555-1.158 1.546-1.803.998-.652 2.327-.652.768 0 1.515.256.749.255 1.362.831.614.569.978 1.508.363.94.364 2.314v.639h-7.568v-1.304h6.034q0-.83-.333-1.483a2.5 2.5 0 0 0-.933-1.029q-.6-.377-1.419-.377-.902 0-1.559.448-.653.44-1.004 1.15-.352.71-.352 1.521v.87q0 1.112.384 1.885.39.768 1.08 1.17.69.396 1.605.396.594 0 1.073-.166.486-.172.838-.511a2.3 2.3 0 0 0 .543-.857l1.458.409a3.24 3.24 0 0 1-.774 1.304q-.543.556-1.342.87a5 5 0 0 1-1.796.307m-298.677 8.704V845h-1.508v-13.091zm5.652 13.321a4 4 0 0 1-1.693-.351 2.9 2.9 0 0 1-1.209-1.03q-.447-.677-.447-1.636 0-.843.332-1.368.333-.531.889-.831.557-.3 1.227-.447.678-.154 1.362-.243.894-.115 1.451-.173.562-.064.818-.211.262-.147.262-.511v-.051q0-.947-.518-1.47-.512-.524-1.553-.524-1.08 0-1.694.473t-.863 1.009l-1.432-.511q.384-.894 1.023-1.393.645-.505 1.406-.703a5.8 5.8 0 0 1 1.509-.205q.473 0 1.086.115.62.109 1.196.454.582.345.965 1.042.383.696.383 1.866V845h-1.508v-1.33h-.077q-.154.321-.511.684-.358.365-.953.62-.594.256-1.451.256m.231-1.355q.894 0 1.508-.352.62-.35.933-.907.32-.556.32-1.17v-1.381q-.096.115-.422.211-.32.09-.741.16a32 32 0 0 1-1.445.192 5.7 5.7 0 0 0-1.099.249q-.505.166-.819.505-.306.332-.306.908 0 .786.581 1.189.588.396 1.49.396m13.977-6.494-1.355.383a2.5 2.5 0 0 0-.377-.658 1.8 1.8 0 0 0-.665-.537q-.422-.211-1.08-.211-.901 0-1.502.415-.594.41-.595 1.042 0 .563.41.889.408.326 1.278.543l1.457.358q1.317.32 1.963.978.645.652.645 1.681 0 .844-.485 1.509-.48.664-1.343 1.048t-2.007.384q-1.502 0-2.486-.652-.985-.653-1.247-1.905l1.432-.358q.204.792.773 1.189.576.396 1.503.396 1.054 0 1.674-.447.627-.454.627-1.087 0-.512-.358-.857-.358-.351-1.1-.524l-1.636-.383q-1.349-.32-1.982-.991-.626-.678-.626-1.694 0-.831.467-1.47.473-.64 1.284-1.004.819-.364 1.854-.364 1.457 0 2.288.639.838.64 1.189 1.688m6.72-2.199v1.278h-5.088v-1.278zm-3.605-2.352h1.508v9.358q0 .639.186.958.192.314.486.422.3.102.632.102.25 0 .409-.025l.256-.051.307 1.355a3 3 0 0 1-.428.115 3 3 0 0 1-.697.064q-.64 0-1.253-.275a2.5 2.5 0 0 1-1.01-.837q-.396-.563-.396-1.419zM542.798 845v-9.818h1.457v1.483h.102q.268-.729.972-1.183a2.87 2.87 0 0 1 1.585-.454q.166 0 .416.007.25.006.377.019v1.534a4 4 0 0 0-.352-.057 3.4 3.4 0 0 0-.569-.045q-.715 0-1.278.3a2.26 2.26 0 0 0-.882.818 2.2 2.2 0 0 0-.32 1.183V845zm10.515.205q-1.419 0-2.449-.627a4.2 4.2 0 0 1-1.578-1.764q-.55-1.138-.55-2.646t.55-2.659q.555-1.158 1.546-1.803.998-.652 2.327-.652.768 0 1.515.256.748.255 1.362.831.614.569.978 1.508.363.94.364 2.314v.639h-7.568v-1.304h6.034q0-.83-.333-1.483a2.5 2.5 0 0 0-.933-1.029q-.6-.377-1.419-.377-.902 0-1.559.448-.653.44-1.004 1.15-.352.71-.352 1.521v.87q0 1.112.384 1.885.39.768 1.08 1.17.69.396 1.605.396.594 0 1.073-.166.486-.172.838-.511a2.3 2.3 0 0 0 .543-.857l1.458.409a3.24 3.24 0 0 1-.774 1.304q-.543.556-1.342.87a5 5 0 0 1-1.796.307m13.059 3.477v-5.191h-.128a10 10 0 0 1-.473.678q-.307.402-.876.722-.569.314-1.515.314-1.227 0-2.167-.62-.939-.627-1.47-1.765-.531-1.143-.531-2.704 0-1.547.531-2.684.53-1.139 1.477-1.758.945-.62 2.186-.62.958 0 1.515.32.562.313.856.715.3.397.467.652h.179v-1.559h1.457v13.5zm-2.787-4.833q.907 0 1.534-.473.626-.478.952-1.323.326-.85.326-1.962 0-1.1-.319-1.924-.32-.83-.947-1.291-.626-.467-1.546-.467-.96 0-1.598.492-.633.486-.953 1.323-.313.832-.313 1.867 0 1.048.32 1.905.326.85.958 1.355.64.498 1.586.498m13.244-2.863v-5.804h1.508V845h-1.508v-1.662h-.102q-.345.748-1.074 1.272-.73.518-1.841.518-.92 0-1.636-.403-.717-.41-1.125-1.227-.41-.825-.41-2.078v-6.238h1.509v6.136q0 1.074.601 1.713.607.639 1.547.639.562 0 1.144-.287.588-.288.984-.882.403-.596.403-1.515m8.388 4.219q-1.419 0-2.448-.627a4.2 4.2 0 0 1-1.579-1.764q-.55-1.138-.55-2.646t.55-2.659q.556-1.158 1.547-1.803.997-.652 2.326-.652.768 0 1.515.256.748.255 1.362.831.613.569.978 1.508.364.94.364 2.314v.639h-7.568v-1.304h6.034q0-.83-.332-1.483a2.5 2.5 0 0 0-.933-1.029q-.601-.377-1.42-.377-.9 0-1.559.448a2.95 2.95 0 0 0-1.004 1.15q-.351.71-.351 1.521v.87q0 1.112.383 1.885.39.768 1.08 1.17.692.396 1.605.396.594 0 1.074-.166a2.3 2.3 0 0 0 .837-.511q.352-.345.543-.857l1.458.409a3.2 3.2 0 0 1-.774 1.304 3.8 3.8 0 0 1-1.342.87q-.799.307-1.796.307m13.315-7.824-1.356.383a2.5 2.5 0 0 0-.377-.658 1.8 1.8 0 0 0-.665-.537q-.421-.211-1.08-.211-.901 0-1.502.415-.594.41-.594 1.042 0 .563.409.889t1.278.543l1.458.358q1.315.32 1.962.978.645.652.645 1.681a2.5 2.5 0 0 1-.485 1.509q-.48.664-1.343 1.048t-2.007.384q-1.502 0-2.486-.652-.984-.653-1.247-1.905l1.432-.358q.204.792.774 1.189.575.396 1.502.396 1.055 0 1.674-.447.627-.454.627-1.087 0-.512-.358-.857-.358-.351-1.1-.524l-1.636-.383q-1.349-.32-1.981-.991-.627-.678-.627-1.694 0-.831.467-1.47.472-.64 1.285-1.004.818-.364 1.853-.364 1.458 0 2.289.639.837.64 1.189 1.688m6.719-2.199v1.278h-5.088v-1.278zm-3.605-2.352h1.509v9.358q0 .639.185.958.192.314.486.422.3.102.633.102.249 0 .409-.025l.255-.051.307 1.355a3 3 0 0 1-.428.115 3 3 0 0 1-.697.064q-.64 0-1.253-.275a2.5 2.5 0 0 1-1.01-.837q-.396-.563-.396-1.419zm14.925 12.375q-1.33 0-2.333-.633-.996-.633-1.559-1.771-.556-1.137-.556-2.659 0-1.534.556-2.678.563-1.144 1.559-1.777 1.004-.633 2.333-.633t2.327.633q1.003.633 1.56 1.777.562 1.144.562 2.678 0 1.522-.562 2.659-.557 1.138-1.56 1.771-.997.633-2.327.633m0-1.356q1.011 0 1.662-.517a3.05 3.05 0 0 0 .966-1.362 5.2 5.2 0 0 0 .313-1.828 5.3 5.3 0 0 0-.313-1.834 3.1 3.1 0 0 0-.966-1.375q-.651-.524-1.662-.524t-1.661.524q-.652.525-.966 1.375a5.3 5.3 0 0 0-.313 1.834q0 .985.313 1.828a3.05 3.05 0 0 0 .966 1.362q.651.517 1.661.517m8.261-4.755V845h-1.509v-9.818h1.457v1.534h.128q.345-.748 1.049-1.202.702-.46 1.815-.46.997 0 1.745.409.748.403 1.163 1.227.416.819.416 2.071V845h-1.509v-6.136q0-1.158-.601-1.803-.6-.652-1.649-.652a2.63 2.63 0 0 0-1.291.313 2.24 2.24 0 0 0-.888.914q-.326.601-.326 1.458m18.353-3.912v1.278h-5.088v-1.278zm-3.605-2.352h1.508v9.358q0 .639.186.958.19.314.485.422.302.102.633.102.25 0 .409-.025l.256-.051.307 1.355a3 3 0 0 1-.429.115 3 3 0 0 1-.696.064q-.64 0-1.253-.275a2.5 2.5 0 0 1-1.01-.837q-.396-.563-.396-1.419zm7.593 6.264V845h-1.508v-13.091h1.508v4.807h.128q.346-.76 1.036-1.208.696-.454 1.853-.454 1.004 0 1.758.403.755.396 1.17 1.221.422.818.422 2.083V845h-1.509v-6.136q0-1.17-.607-1.809-.6-.646-1.668-.646-.742 0-1.33.313a2.3 2.3 0 0 0-.92.914q-.333.601-.333 1.458m13.243 6.111q-1.419 0-2.448-.627a4.2 4.2 0 0 1-1.579-1.764q-.55-1.138-.55-2.646t.55-2.659q.556-1.158 1.547-1.803.997-.652 2.327-.652.767 0 1.515.256.747.255 1.361.831.614.569.978 1.508t.364 2.314v.639h-7.568v-1.304h6.034q0-.83-.332-1.483a2.5 2.5 0 0 0-.933-1.029q-.601-.377-1.419-.377-.902 0-1.56.448a2.95 2.95 0 0 0-1.004 1.15q-.351.71-.351 1.521v.87q0 1.112.383 1.885.39.768 1.081 1.17.69.396 1.604.396.594 0 1.074-.166a2.3 2.3 0 0 0 .837-.511q.352-.345.544-.857l1.457.409a3.2 3.2 0 0 1-.773 1.304q-.544.556-1.343.87-.798.307-1.796.307m15.411 0q-1.33 0-2.333-.633-.997-.633-1.559-1.771-.557-1.137-.557-2.659 0-1.534.557-2.678.562-1.144 1.559-1.777 1.004-.633 2.333-.633t2.327.633q1.004.633 1.56 1.777.562 1.144.562 2.678 0 1.522-.562 2.659-.557 1.138-1.56 1.771-.997.633-2.327.633m0-1.356q1.011 0 1.662-.517.653-.518.965-1.362a5.2 5.2 0 0 0 .314-1.828q0-.984-.314-1.834a3.1 3.1 0 0 0-.965-1.375q-.651-.524-1.662-.524t-1.662.524-.965 1.375a5.3 5.3 0 0 0-.313 1.834q0 .985.313 1.828.314.845.965 1.362.652.517 1.662.517m11.022-8.667v1.278h-5.088v-1.278zm-3.605-2.352h1.508v9.358q0 .639.186.958.19.314.485.422.302.102.633.102.25 0 .409-.025l.256-.051.307 1.355a3 3 0 0 1-.428.115 3 3 0 0 1-.697.064q-.64 0-1.253-.275a2.5 2.5 0 0 1-1.01-.837q-.396-.563-.396-1.419zm7.593 6.264V845h-1.508v-13.091h1.508v4.807h.128q.346-.76 1.036-1.208.696-.454 1.853-.454 1.004 0 1.758.403.755.396 1.17 1.221.422.818.422 2.083V845h-1.509v-6.136q0-1.17-.607-1.809-.6-.646-1.668-.646-.741 0-1.33.313a2.3 2.3 0 0 0-.92.914q-.333.601-.333 1.458m13.243 6.111q-1.419 0-2.448-.627a4.2 4.2 0 0 1-1.579-1.764q-.55-1.138-.55-2.646t.55-2.659q.557-1.158 1.547-1.803.997-.652 2.327-.652.766 0 1.515.256.747.255 1.361.831.614.569.978 1.508.365.94.365 2.314v.639h-7.569v-1.304h6.034q0-.83-.332-1.483a2.5 2.5 0 0 0-.933-1.029q-.601-.377-1.419-.377-.902 0-1.56.448a2.93 2.93 0 0 0-1.003 1.15q-.352.71-.352 1.521v.87q0 1.112.384 1.885.39.768 1.08 1.17.69.396 1.604.396.594 0 1.074-.166a2.3 2.3 0 0 0 .837-.511q.352-.345.544-.857l1.457.409a3.2 3.2 0 0 1-.773 1.304q-.544.556-1.343.87-.798.307-1.796.307m6.36-.205v-9.818h1.458v1.483H712q.268-.729.972-1.183a2.86 2.86 0 0 1 1.585-.454q.166 0 .415.007.25.006.377.019v1.534a4 4 0 0 0-.351-.057 3.5 3.5 0 0 0-.569-.045q-.716 0-1.279.3-.555.294-.882.818a2.2 2.2 0 0 0-.319 1.183V845zm15.876.205q-1.419 0-2.448-.627a4.2 4.2 0 0 1-1.578-1.764q-.55-1.138-.55-2.646t.55-2.659q.555-1.158 1.546-1.803.998-.652 2.327-.652.766 0 1.515.256.748.255 1.362.831.614.569.977 1.508.365.94.365 2.314v.639h-7.568v-1.304h6.034q0-.83-.333-1.483a2.5 2.5 0 0 0-.933-1.029q-.6-.377-1.419-.377-.901 0-1.56.448a2.94 2.94 0 0 0-1.003 1.15q-.351.71-.352 1.521v.87q0 1.112.384 1.885.39.768 1.08 1.17.69.396 1.604.396.596 0 1.074-.166.486-.172.838-.511a2.3 2.3 0 0 0 .543-.857l1.457.409a3.2 3.2 0 0 1-.773 1.304q-.543.556-1.342.87-.8.307-1.797.307m7.869-6.111V845h-1.508v-9.818h1.457v1.534h.128q.345-.748 1.048-1.202.703-.46 1.815-.46.998 0 1.745.409.748.403 1.164 1.227.415.819.415 2.071V845h-1.508v-6.136q0-1.158-.601-1.803-.601-.652-1.649-.652-.723 0-1.291.313a2.25 2.25 0 0 0-.889.914q-.326.601-.326 1.458m12.728 6.111q-1.227 0-2.167-.62-.939-.627-1.47-1.765-.53-1.143-.53-2.704 0-1.547.53-2.684.53-1.139 1.477-1.758.945-.62 2.186-.62.959 0 1.515.32.562.313.856.715.301.397.467.652h.128v-4.832h1.508V845h-1.457v-1.509h-.179a10 10 0 0 1-.473.678q-.308.402-.876.722-.568.314-1.515.314m.205-1.356q.907 0 1.534-.473.627-.478.952-1.323.326-.85.326-1.962 0-1.1-.319-1.924-.32-.83-.946-1.291-.627-.467-1.547-.467-.959 0-1.598.492-.633.486-.953 1.323-.312.832-.313 1.867 0 1.048.32 1.905.326.85.959 1.355.639.498 1.585.498m16.319 1.356q-1.33 0-2.333-.633-.997-.633-1.56-1.771-.556-1.137-.556-2.659 0-1.534.556-2.678.563-1.144 1.56-1.777 1.003-.633 2.333-.633t2.326.633q1.004.633 1.56 1.777.563 1.144.563 2.678 0 1.522-.563 2.659-.556 1.138-1.56 1.771-.996.633-2.326.633m0-1.356q1.01 0 1.662-.517.651-.518.965-1.362a5.2 5.2 0 0 0 .313-1.828q0-.984-.313-1.834a3.1 3.1 0 0 0-.965-1.375q-.653-.524-1.662-.524-1.011 0-1.662.524-.653.525-.965 1.375a5.3 5.3 0 0 0-.314 1.834q0 .985.314 1.828.312.845.965 1.362.651.517 1.662.517m11.123-8.667v1.278h-5.292v-1.278zM770.853 845v-11.173q0-.845.396-1.407a2.46 2.46 0 0 1 1.029-.843 3.25 3.25 0 0 1 1.336-.282q.557 0 .908.09t.524.166l-.434 1.304a10 10 0 0 0-.32-.096 2 2 0 0 0-.524-.057q-.749 0-1.08.377-.327.377-.326 1.106V845zm14.592.205q-1.228 0-2.167-.62-.94-.627-1.471-1.765-.53-1.143-.53-2.704 0-1.547.53-2.684.53-1.139 1.477-1.758.946-.62 2.186-.62.958 0 1.515.32.563.313.857.715.3.397.466.652h.128v-4.832h1.509V845h-1.458v-1.509h-.179a10 10 0 0 1-.473.678q-.306.402-.876.722-.569.314-1.514.314m.204-1.356q.908 0 1.534-.473.626-.478.953-1.323.326-.85.326-1.962 0-1.1-.32-1.924-.32-.83-.946-1.291-.626-.467-1.547-.467-.959 0-1.598.492-.633.486-.952 1.323-.314.832-.314 1.867 0 1.048.32 1.905.326.85.959 1.355.639.498 1.585.498m7.268 1.151v-9.818h1.508V845zm.767-11.455q-.441 0-.761-.3a.96.96 0 0 1-.313-.722q0-.422.313-.723.32-.3.761-.3.44 0 .754.3.32.3.32.723a.96.96 0 0 1-.32.722q-.313.3-.754.3m10.459 3.836-1.355.383a2.5 2.5 0 0 0-.377-.658 1.8 1.8 0 0 0-.665-.537q-.422-.211-1.08-.211-.902 0-1.503.415-.594.41-.594 1.042 0 .563.409.889.41.326 1.278.543l1.458.358q1.317.32 1.962.978.646.652.646 1.681 0 .844-.486 1.509-.48.664-1.342 1.048-.864.384-2.007.384-1.503 0-2.487-.652-.984-.653-1.246-1.905l1.431-.358q.205.792.774 1.189.575.396 1.502.396 1.054 0 1.675-.447.626-.454.626-1.087 0-.512-.358-.857-.358-.351-1.099-.524l-1.637-.383q-1.348-.32-1.981-.991-.627-.678-.627-1.694 0-.831.467-1.47.473-.64 1.285-1.004.817-.364 1.854-.364 1.457 0 2.288.639.837.64 1.189 1.688m3.856 4.039-.026-1.866h.307l4.296-4.372h1.866l-4.577 4.628h-.128zm-1.406 3.58v-13.091h1.508V845zm6.238 0-3.835-4.858 1.074-1.048 4.679 5.906z"/><circle cx="644.5" cy="279.5" r="6" fill="#a80000" stroke="#690000"/><circle cx="644.5" cy="731.5" r="6" fill="#00a8f0" stroke="#005b81"/><circle cx="1079.5" cy="279.5" r="6" fill="#a80000" stroke="#690000"/><circle cx="318.5" cy="279.5" r="6" fill="#00a8f0" stroke="#00577c"/><circle cx="318.5" cy="731.5" r="6" fill="#00a8f0" stroke="#00577c"/><circle cx="770.5" cy="279.5" r="6" fill="#a80000" stroke="#690000"/><circle cx="770.5" cy="731.5" r="6" fill="#00a8f0" stroke="#005b81"/><circle cx="777.5" cy="279.5" r="6" fill="#a80000" stroke="#690000"/><circle cx="777.5" cy="731.5" r="6" fill="#00a8f0" stroke="#005b81"/><circle cx="483.5" cy="279.5" r="6" fill="#a80000" stroke="#690000"/><circle cx="483.5" cy="731.5" r="6" fill="#00a8f0" stroke="#005b81"/><circle cx="493.5" cy="279.5" r="6" fill="#a80000" stroke="#690000"/><circle cx="493.5" cy="731.5" r="6" fill="#00a8f0" stroke="#005b81"/><rect width="1319" height="120" x="1" y="1002" stroke="#dbdbdb" stroke-width="2" rx="26"/><path stroke="#dbdbdb" stroke-width="2" d="M121 1001v122M241 1001v122M361 1001v122M482 1001v122M602 1001v122M722 1001v122M842 1001v122M962 1001v122M1082 1001v122M1202 1001v122"/><path fill="#fff" d="M47.7 1076.4c-1.667 0-3.168-.33-4.503-1-1.335-.66-2.405-1.57-3.21-2.72-.805-1.16-1.245-2.48-1.321-3.95h3.409c.133 1.31.73 2.4 1.79 3.26 1.07.86 2.348 1.28 3.835 1.28q1.79 0 3.182-.84a5.8 5.8 0 0 0 2.202-2.3q.81-1.47.81-3.33c0-1.27-.28-2.41-.839-3.4q-.824-1.5-2.273-2.37c-.966-.58-2.069-.87-3.31-.88a9.2 9.2 0 0 0-2.74.41c-.938.27-1.71.63-2.316 1.06l-3.296-.39 1.762-14.32h15.113v3.12H43.836l-1.022 8.58h.17c.597-.47 1.345-.86 2.244-1.18.9-.31 1.837-.46 2.813-.46 1.78 0 3.366.42 4.758 1.27 1.402.85 2.5 2 3.296 3.47.805 1.47 1.207 3.14 1.207 5.03 0 1.85-.416 3.51-1.25 4.97a9.2 9.2 0 0 1-3.409 3.44c-1.449.83-3.096 1.25-4.943 1.25m25.075 0c-1.876 0-3.547-.32-5.015-.97-1.458-.64-2.618-1.54-3.48-2.68q-1.278-1.74-1.392-4.02h3.58q.112 1.395.966 2.43.852 1.005 2.23 1.56c.918.37 1.936.55 3.054.55 1.25 0 2.358-.22 3.323-.65.966-.44 1.724-1.04 2.273-1.82q.824-1.17.824-2.7 0-1.605-.795-2.82c-.53-.83-1.307-1.47-2.33-1.94q-1.534-.69-3.75-.69h-2.33v-3.13h2.33c1.155 0 2.169-.21 3.04-.62.88-.42 1.567-1.01 2.06-1.76q.752-1.14.752-2.67 0-1.485-.653-2.58a4.54 4.54 0 0 0-1.847-1.7c-.786-.41-1.714-.61-2.784-.61-1.004 0-1.95.18-2.84.55-.881.36-1.601.89-2.16 1.58-.558.68-.861 1.51-.909 2.47h-3.409c.057-1.52.516-2.86 1.378-4q1.293-1.74 3.38-2.7c1.402-.65 2.941-.97 4.617-.97 1.8 0 3.343.37 4.63 1.1 1.289.71 2.278 1.67 2.97 2.85a7.46 7.46 0 0 1 1.037 3.84c0 1.63-.431 3.03-1.293 4.19q-1.278 1.725-3.48 2.4v.22c1.837.31 3.272 1.09 4.304 2.35 1.032 1.25 1.548 2.8 1.548 4.64q0 2.37-1.293 4.26c-.852 1.25-2.017 2.24-3.494 2.96q-2.216 1.08-5.042 1.08M168.181 1076.4c-1.875 0-3.547-.32-5.014-.97-1.459-.64-2.619-1.54-3.481-2.68q-1.278-1.74-1.392-4.02h3.58q.114 1.395.966 2.43.852 1.005 2.23 1.56c.919.37 1.937.55 3.054.55 1.25 0 2.358-.22 3.324-.65.966-.44 1.723-1.04 2.273-1.82q.823-1.17.823-2.7 0-1.605-.795-2.82c-.53-.83-1.307-1.47-2.33-1.94q-1.533-.69-3.75-.69h-2.329v-3.13h2.329c1.156 0 2.169-.21 3.04-.62.881-.42 1.567-1.01 2.06-1.76q.753-1.14.753-2.67 0-1.485-.654-2.58a4.54 4.54 0 0 0-1.846-1.7c-.786-.41-1.714-.61-2.784-.61-1.004 0-1.951.18-2.841.55-.881.36-1.601.89-2.159 1.58-.559.68-.862 1.51-.91 2.47h-3.409c.057-1.52.516-2.86 1.378-4q1.293-1.74 3.381-2.7c1.401-.65 2.94-.97 4.616-.97 1.8 0 3.343.37 4.631 1.1 1.288.71 2.278 1.67 2.969 2.85a7.47 7.47 0 0 1 1.037 3.84c0 1.63-.431 3.03-1.293 4.19q-1.278 1.725-3.48 2.4v.22c1.837.31 3.272 1.09 4.304 2.35 1.032 1.25 1.548 2.8 1.548 4.64q0 2.37-1.292 4.26c-.853 1.25-2.017 2.24-3.495 2.96q-2.216 1.08-5.042 1.08m16.548-.4 13.011-25.74v-.23h-15v-3.12h18.637v3.29l-12.955 25.8zM290.61 1046.91V1076h-3.523v-25.4h-.17l-7.103 4.72v-3.58l7.273-4.83zm7.684 23.12v-2.89l12.784-20.23h2.103v4.49h-1.421l-9.659 15.28v.23h17.216v3.12zm13.694 5.97v-29.09h3.352V1076zM419.5 1076.4c-2.14 0-3.963-.58-5.469-1.75q-2.258-1.755-3.451-5.1t-1.194-8.1c0-3.14.398-5.82 1.194-8.05.804-2.23 1.96-3.94 3.465-5.11 1.516-1.19 3.334-1.78 5.455-1.78s3.935.59 5.44 1.78c1.515 1.17 2.671 2.88 3.466 5.11.805 2.23 1.208 4.91 1.208 8.05q0 4.755-1.194 8.1t-3.451 5.1c-1.506 1.17-3.329 1.75-5.469 1.75m0-3.13c2.121 0 3.769-1.02 4.943-3.07 1.174-2.04 1.762-4.96 1.762-8.75 0-2.51-.27-4.66-.81-6.43q-.795-2.655-2.301-4.05c-.995-.93-2.192-1.39-3.594-1.39-2.102 0-3.745 1.04-4.929 3.11-1.184 2.06-1.776 4.99-1.776 8.76 0 2.52.266 4.66.796 6.43.53 1.76 1.293 3.1 2.287 4.01q1.506 1.38 3.622 1.38M530.825 948.273q0 4.164-1.578 7.084-1.566 2.921-4.276 4.462-2.697 1.529-6.065 1.529-3.393 0-6.09-1.541-2.697-1.542-4.263-4.462t-1.566-7.072q0-4.164 1.566-7.085 1.566-2.92 4.263-4.449 2.697-1.542 6.09-1.542 3.368 0 6.065 1.542 2.71 1.529 4.276 4.449 1.578 2.92 1.578 7.085m-5.456 0q0-2.698-.808-4.549-.795-1.852-2.249-2.809t-3.406-.957-3.406.957-2.262 2.809q-.795 1.851-.795 4.549 0 2.697.795 4.549.809 1.852 2.262 2.809 1.455.957 3.406.957t3.406-.957q1.454-.958 2.249-2.809.808-1.852.808-4.549M534.713 961v-19.091h5.133v3.331h.199q.522-1.778 1.752-2.685 1.23-.92 2.834-.919.398 0 .857.049.46.05.808.137v4.698a7 7 0 0 0-1.031-.199 9 9 0 0 0-1.206-.087q-1.168 0-2.088.51a3.75 3.75 0 0 0-1.442 1.392q-.522.895-.522 2.063V961zm20.467.311q-2.175 0-3.94-1.119-1.752-1.131-2.784-3.318-1.02-2.2-1.019-5.395 0-3.28 1.056-5.456 1.056-2.187 2.809-3.269a7.2 7.2 0 0 1 3.866-1.093q1.602 0 2.672.546 1.082.535 1.74 1.343.67.795 1.019 1.566h.162v-9.571h5.282V961h-5.22v-3.058h-.224a6.9 6.9 0 0 1-1.056 1.579q-.672.77-1.753 1.28-1.07.51-2.61.51m1.678-4.214q1.28 0 2.163-.696.894-.708 1.367-1.976.484-1.268.484-2.97 0-1.704-.472-2.959t-1.367-1.938q-.895-.684-2.175-.684-1.305 0-2.2.708-.895.709-1.355 1.964-.46 1.256-.46 2.909 0 1.665.46 2.945.473 1.268 1.355 1.989.895.708 2.2.708m22.238 4.276q-2.945 0-5.071-1.193-2.113-1.206-3.256-3.406-1.143-2.212-1.143-5.232 0-2.946 1.143-5.171t3.219-3.468q2.088-1.242 4.897-1.242 1.89 0 3.518.609a7.8 7.8 0 0 1 2.858 1.802q1.23 1.205 1.914 3.032.684 1.815.684 4.251v1.454h-16.121v-3.281h11.137q0-1.143-.497-2.026a3.57 3.57 0 0 0-1.38-1.379q-.87-.51-2.026-.51-1.206 0-2.138.559a3.9 3.9 0 0 0-1.441 1.479 4.2 4.2 0 0 0-.535 2.051v3.12q0 1.417.522 2.448a3.8 3.8 0 0 0 1.504 1.591q.97.56 2.299.559.883 0 1.616-.248a3.4 3.4 0 0 0 1.256-.746q.522-.497.795-1.218l4.897.323a6.7 6.7 0 0 1-1.529 3.083q-1.143 1.305-2.958 2.038-1.802.721-4.164.721m12.218-.373v-19.091h5.133v3.331h.199q.522-1.778 1.753-2.685 1.23-.92 2.833-.919.398 0 .858.049.46.05.808.137v4.698a7 7 0 0 0-1.032-.199 9 9 0 0 0-1.205-.087q-1.169 0-2.088.51a3.74 3.74 0 0 0-1.442 1.392q-.522.895-.522 2.063V961zm31.048.373q-2.897 0-5.009-1.231-2.101-1.242-3.244-3.455-1.144-2.224-1.144-5.158 0-2.958 1.144-5.17 1.143-2.225 3.244-3.456 2.112-1.242 5.009-1.242 2.895 0 4.996 1.242 2.113 1.23 3.257 3.456 1.143 2.212 1.143 5.17 0 2.934-1.143 5.158-1.144 2.213-3.257 3.455-2.1 1.231-4.996 1.231m.025-4.102q1.317 0 2.199-.745.883-.759 1.33-2.064.46-1.305.46-2.97t-.46-2.971q-.447-1.304-1.33-2.063-.882-.758-2.199-.758-1.33 0-2.238.758-.894.759-1.354 2.063-.448 1.305-.448 2.971 0 1.665.448 2.97.46 1.305 1.354 2.064.908.745 2.238.745m23.08-15.362v3.977h-11.783v-3.977zM636.382 961v-20.471q0-2.075.807-3.442a5.2 5.2 0 0 1 2.238-2.051q1.416-.684 3.219-.684 1.217 0 2.225.187 1.018.186 1.516.335l-.945 3.978a7 7 0 0 0-.77-.187 5 5 0 0 0-.92-.087q-1.169 0-1.628.547-.46.534-.46 1.504V961zm20.52 0v-25.455h10.042q2.884 0 4.922 1.032 2.05 1.02 3.12 2.896 1.081 1.864 1.081 4.387 0 2.536-1.093 4.363-1.095 1.815-3.17 2.784-2.063.97-4.996.97h-6.724v-4.326h5.854q1.541 0 2.56-.422 1.019-.423 1.516-1.268.51-.846.51-2.101 0-1.267-.51-2.137-.497-.87-1.528-1.318-1.02-.46-2.573-.46h-3.629V961zm13.746-11.584L676.975 961h-5.941l-6.19-11.584zm17.516 11.957q-2.946 0-5.071-1.193-2.113-1.206-3.257-3.406-1.143-2.212-1.143-5.232 0-2.946 1.143-5.171t3.219-3.468q2.089-1.242 4.898-1.242 1.888 0 3.517.609a7.8 7.8 0 0 1 2.859 1.802q1.23 1.205 1.914 3.032.683 1.815.683 4.251v1.454h-16.12v-3.281h11.136q0-1.143-.497-2.026a3.55 3.55 0 0 0-1.38-1.379q-.87-.51-2.025-.51-1.206 0-2.138.559a3.93 3.93 0 0 0-1.442 1.479 4.2 4.2 0 0 0-.534 2.051v3.12q0 1.417.522 2.448a3.8 3.8 0 0 0 1.503 1.591q.97.56 2.3.559.882 0 1.616-.248a3.36 3.36 0 0 0 1.255-.746q.522-.497.795-1.218l4.897.323a6.7 6.7 0 0 1-1.528 3.083q-1.145 1.305-2.958 2.038-1.803.721-4.164.721m24.833 6.786v-10.217h-.162a6.8 6.8 0 0 1-1.056 1.579q-.672.77-1.753 1.28-1.068.51-2.61.51-2.175 0-3.94-1.119-1.752-1.131-2.784-3.318-1.019-2.2-1.019-5.395 0-3.28 1.056-5.456 1.057-2.187 2.809-3.269a7.2 7.2 0 0 1 3.866-1.093q1.603 0 2.672.546 1.082.535 1.74 1.343.671.795 1.019 1.566h.224v-3.207h5.22v26.25zm-3.903-11.062q1.281 0 2.163-.696.894-.708 1.367-1.976.485-1.268.485-2.97 0-1.704-.473-2.959-.471-1.255-1.367-1.938-.894-.684-2.175-.684-1.305 0-2.2.708-.894.709-1.354 1.964-.46 1.256-.46 2.909 0 1.665.46 2.945.471 1.268 1.354 1.989.895.708 2.2.708m25.678-4.226v-10.962h5.295V961h-5.083v-3.468h-.199a5.64 5.64 0 0 1-2.15 2.697q-1.492 1.02-3.642 1.02-1.914 0-3.368-.87-1.455-.87-2.275-2.474-.808-1.604-.82-3.84v-12.156h5.295v11.211q.012 1.69.907 2.672t2.399.982q.957 0 1.79-.435a3.4 3.4 0 0 0 1.342-1.317q.522-.87.509-2.151m18.231 8.502q-2.946 0-5.071-1.193-2.113-1.206-3.257-3.406-1.143-2.212-1.143-5.232 0-2.946 1.143-5.171t3.219-3.468q2.089-1.242 4.897-1.242 1.89 0 3.518.609a7.8 7.8 0 0 1 2.858 1.802q1.231 1.205 1.914 3.032.684 1.815.684 4.251v1.454h-16.12v-3.281h11.136q0-1.143-.497-2.026a3.56 3.56 0 0 0-1.38-1.379q-.87-.51-2.026-.51-1.205 0-2.137.559a3.9 3.9 0 0 0-1.442 1.479 4.2 4.2 0 0 0-.535 2.051v3.12q0 1.417.522 2.448a3.83 3.83 0 0 0 1.504 1.591q.97.56 2.3.559.882 0 1.615-.248a3.35 3.35 0 0 0 1.256-.746q.522-.497.795-1.218l4.897.323a6.7 6.7 0 0 1-1.529 3.083q-1.143 1.305-2.958 2.038-1.802.721-4.163.721m28.102-14.02-4.848.298a2.5 2.5 0 0 0-.534-1.118 2.84 2.84 0 0 0-1.081-.808q-.66-.31-1.579-.311-1.23 0-2.076.522-.845.51-.845 1.367 0 .684.547 1.156.547.473 1.877.758l3.455.696q2.784.573 4.151 1.84 1.368 1.267 1.368 3.331 0 1.877-1.107 3.293-1.093 1.418-3.007 2.213-1.902.783-4.388.783-3.791 0-6.04-1.579-2.238-1.59-2.623-4.325l5.208-.273q.236 1.155 1.143 1.765.908.596 2.325.596 1.391 0 2.237-.534.858-.547.87-1.405-.012-.72-.609-1.18-.597-.473-1.84-.721l-3.306-.659q-2.796-.56-4.163-1.939-1.356-1.38-1.355-3.517 0-1.84.994-3.17 1.007-1.33 2.821-2.051 1.828-.72 4.276-.72 3.617 0 5.693 1.528 2.088 1.529 2.436 4.164m13.923-5.444v3.977h-11.497v-3.977zm-8.887-4.574h5.295v17.799q0 .733.224 1.143.223.398.621.559.411.162.945.162.373 0 .746-.062.372-.075.571-.112l.833 3.94q-.398.124-1.118.286-.721.174-1.753.211-1.914.075-3.356-.51-1.429-.584-2.225-1.814-.795-1.231-.783-3.107zm27.981 10.018-4.847.298a2.5 2.5 0 0 0-.535-1.118 2.8 2.8 0 0 0-1.081-.808q-.659-.31-1.578-.311-1.232 0-2.076.522-.845.51-.845 1.367 0 .684.547 1.156.547.473 1.876.758l3.456.696q2.784.573 4.151 1.84t1.367 3.331q0 1.877-1.106 3.293-1.094 1.418-3.008 2.213-1.902.783-4.387.783-3.79 0-6.041-1.579-2.236-1.59-2.622-4.325l5.207-.273q.237 1.155 1.144 1.765.908.596 2.324.596 1.392 0 2.237-.534.858-.547.87-1.405-.012-.72-.609-1.18-.595-.473-1.839-.721l-3.306-.659q-2.797-.56-4.164-1.939-1.355-1.38-1.355-3.517 0-1.84.995-3.17 1.006-1.33 2.821-2.051 1.827-.72 4.276-.72 3.616 0 5.692 1.528 2.088 1.529 2.436 4.164M528.522 1076.4a11 11 0 0 1-3.58-.68c-1.193-.44-2.282-1.17-3.267-2.21s-1.775-2.44-2.372-4.21c-.596-1.78-.895-4.02-.895-6.71 0-2.57.242-4.86.725-6.85q.725-2.985 2.102-5.04 1.378-2.055 3.324-3.12c1.307-.71 2.779-1.07 4.418-1.07 1.628 0 3.077.33 4.346.98a8.4 8.4 0 0 1 3.125 2.7q1.207 1.74 1.563 3.99h-3.466c-.322-1.31-.947-2.39-1.875-3.25q-1.392-1.29-3.693-1.29-3.381 0-5.327 2.94-1.932 2.94-1.946 8.25h.227c.53-.81 1.16-1.49 1.889-2.06a8.7 8.7 0 0 1 2.443-1.34 8.5 8.5 0 0 1 2.827-.46c1.667 0 3.191.41 4.574 1.25q2.074 1.23 3.324 3.42 1.25 2.175 1.25 4.98 0 2.7-1.207 4.95a9.24 9.24 0 0 1-3.395 3.55c-1.449.87-3.154 1.3-5.114 1.28m0-3.13c1.193 0 2.263-.3 3.21-.89q1.436-.9 2.259-2.4c.558-1.01.838-2.12.838-3.36 0-1.2-.27-2.29-.81-3.28a6.2 6.2 0 0 0-2.202-2.37c-.928-.59-1.988-.88-3.181-.88q-1.35 0-2.515.54c-.776.35-1.458.83-2.045 1.45a7 7 0 0 0-1.364 2.12 6.3 6.3 0 0 0-.497 2.48 6.71 6.71 0 0 0 3.054 5.67c.957.61 2.041.92 3.253.92m24.393 3.13c-1.667 0-3.168-.33-4.503-1-1.335-.66-2.405-1.57-3.21-2.72-.805-1.16-1.246-2.48-1.321-3.95h3.409c.132 1.31.729 2.4 1.79 3.26 1.07.86 2.348 1.28 3.835 1.28q1.79 0 3.182-.84a5.8 5.8 0 0 0 2.201-2.3q.81-1.47.81-3.33c0-1.27-.279-2.41-.838-3.4a6.2 6.2 0 0 0-2.273-2.37c-.966-.58-2.069-.87-3.309-.88-.891-.01-1.804.13-2.742.41-.937.27-1.709.63-2.315 1.06l-3.296-.39 1.762-14.32h15.113v3.12h-12.159l-1.023 8.58h.171c.596-.47 1.345-.86 2.244-1.18a8.6 8.6 0 0 1 2.813-.46c1.78 0 3.366.42 4.758 1.27 1.402.85 2.5 2 3.296 3.47.805 1.47 1.207 3.14 1.207 5.03 0 1.85-.417 3.51-1.25 4.97a9.2 9.2 0 0 1-3.409 3.44c-1.449.83-3.097 1.25-4.943 1.25M649.264 1076.4a11 11 0 0 1-3.579-.68c-1.194-.44-2.283-1.17-3.267-2.21-.985-1.04-1.776-2.44-2.373-4.21-.596-1.78-.894-4.02-.894-6.71 0-2.57.241-4.86.724-6.85q.725-2.985 2.102-5.04 1.379-2.055 3.324-3.12c1.307-.71 2.779-1.07 4.418-1.07 1.629 0 3.077.33 4.346.98a8.4 8.4 0 0 1 3.125 2.7q1.207 1.74 1.563 3.99h-3.466c-.322-1.31-.947-2.39-1.875-3.25q-1.392-1.29-3.693-1.29-3.381 0-5.327 2.94-1.932 2.94-1.946 8.25h.227a8.5 8.5 0 0 1 1.889-2.06 8.7 8.7 0 0 1 2.444-1.34c.89-.31 1.832-.46 2.826-.46 1.667 0 3.192.41 4.574 1.25q2.074 1.23 3.324 3.42 1.25 2.175 1.25 4.98 0 2.7-1.207 4.95a9.24 9.24 0 0 1-3.395 3.55c-1.449.87-3.154 1.3-5.114 1.28m0-3.13c1.193 0 2.263-.3 3.21-.89q1.435-.9 2.259-2.4c.559-1.01.838-2.12.838-3.36 0-1.2-.27-2.29-.81-3.28a6.2 6.2 0 0 0-2.201-2.37c-.928-.59-1.989-.88-3.182-.88a5.9 5.9 0 0 0-2.514.54c-.777.35-1.459.83-2.046 1.45a7 7 0 0 0-1.363 2.12 6.3 6.3 0 0 0-.498 2.48 6.71 6.71 0 0 0 3.054 5.67c.957.61 2.041.92 3.253.92m16.211 2.73 13.012-25.74v-.23h-15v-3.12h18.636v3.29l-12.955 25.8zM767.968 1046.51c1.193.01 2.386.24 3.58.68q1.79.675 3.267 2.22c.984 1.02 1.775 2.42 2.372 4.19q.895 2.655.895 6.66c0 2.59-.247 4.88-.739 6.89-.483 2-1.184 3.68-2.102 5.06q-1.364 2.055-3.324 3.12c-1.297.71-2.765 1.07-4.404 1.07-1.628 0-3.082-.32-4.36-.97a8.57 8.57 0 0 1-3.125-2.71q-1.207-1.755-1.549-4.05h3.466c.313 1.34.933 2.44 1.861 3.31q1.406 1.29 3.707 1.29 3.368 0 5.313-2.94 1.96-2.94 1.96-8.31h-.227c-.53.8-1.16 1.48-1.889 2.06a8.2 8.2 0 0 1-2.429 1.34c-.89.31-1.837.47-2.841.47a8.9 8.9 0 0 1-4.588-1.24q-2.075-1.245-3.324-3.42c-.824-1.46-1.236-3.13-1.236-5q0-2.67 1.193-4.89a9.2 9.2 0 0 1 3.381-3.55c1.458-.88 3.172-1.31 5.142-1.28m0 3.13c-1.193 0-2.268.29-3.224.89-.947.59-1.7 1.38-2.259 2.39-.549.99-.824 2.1-.824 3.31s.265 2.31.796 3.31a6.3 6.3 0 0 0 2.201 2.35q1.407.87 3.196.87c.9 0 1.738-.17 2.515-.52a6.5 6.5 0 0 0 2.031-1.47 7.1 7.1 0 0 0 1.378-2.11q.497-1.2.497-2.49c0-1.14-.275-2.2-.824-3.2a6.6 6.6 0 0 0-2.244-2.41c-.947-.62-2.027-.92-3.239-.92m25.018 26.76c-1.951 0-3.674-.35-5.171-1.04q-2.229-1.05-3.48-2.88c-.833-1.23-1.245-2.64-1.236-4.21-.009-1.23.232-2.36.725-3.41a7.4 7.4 0 0 1 2.017-2.62 6.2 6.2 0 0 1 2.883-1.35v-.17c-1.392-.36-2.5-1.15-3.323-2.35-.824-1.21-1.231-2.59-1.222-4.13q-.014-2.22 1.122-3.96 1.137-1.755 3.125-2.76c1.335-.67 2.855-1.01 4.56-1.01 1.685 0 3.191.34 4.517 1.01q1.988 1.005 3.125 2.76 1.15 1.74 1.165 3.96c-.01 1.54-.431 2.92-1.265 4.13-.823 1.2-1.917 1.99-3.281 2.35v.17q1.577.285 2.841 1.35c.843.7 1.515 1.57 2.017 2.62a7.9 7.9 0 0 1 .767 3.41c-.009 1.57-.435 2.98-1.278 4.21q-1.251 1.83-3.48 2.88c-1.478.69-3.187 1.04-5.128 1.04m0-3.13c1.316 0 2.452-.21 3.409-.64q1.434-.63 2.216-1.8.781-1.17.795-2.73-.014-1.65-.852-2.91a5.8 5.8 0 0 0-2.287-1.99q-1.434-.72-3.281-.72-1.861 0-3.324.72a5.8 5.8 0 0 0-2.287 1.99q-.823 1.26-.81 2.91-.014 1.56.753 2.73.781 1.17 2.23 1.8c.966.43 2.112.64 3.438.64m0-13.8q1.562 0 2.77-.63c.814-.42 1.453-1 1.917-1.75.464-.74.701-1.62.711-2.62q-.015-1.485-.696-2.58a4.6 4.6 0 0 0-1.89-1.7c-.805-.41-1.742-.61-2.812-.61-1.089 0-2.041.2-2.855.61-.815.4-1.444.97-1.89 1.7q-.667 1.095-.653 2.58c-.009 1 .213 1.88.668 2.62a4.77 4.77 0 0 0 1.917 1.75q1.222.63 2.813.63M880.223 1046.91V1076H876.7v-25.4h-.17l-7.102 4.72v-3.58l7.272-4.83zm8.366 29.09v-2.56l9.603-10.51a66 66 0 0 0 2.784-3.21q1.094-1.38 1.619-2.58c.36-.82.54-1.67.54-2.56 0-1.02-.246-1.91-.739-2.66a4.87 4.87 0 0 0-1.988-1.73c-.843-.41-1.79-.61-2.841-.61-1.118 0-2.093.23-2.926.7a4.77 4.77 0 0 0-1.918 1.91c-.445.83-.668 1.79-.668 2.9h-3.352c0-1.7.393-3.2 1.179-4.49a8.2 8.2 0 0 1 3.21-3.01q2.046-1.08 4.588-1.08 2.557 0 4.532 1.08 1.974 1.08 3.096 2.91t1.122 4.08c0 1.07-.194 2.12-.582 3.14q-.569 1.515-1.989 3.39c-.937 1.24-2.239 2.76-3.906 4.55l-6.534 6.99v.23h13.523v3.12zm24.219 0v-2.56l9.603-10.51a67 67 0 0 0 2.784-3.21q1.094-1.38 1.619-2.58c.36-.82.54-1.67.54-2.56 0-1.02-.247-1.91-.739-2.66a4.86 4.86 0 0 0-1.989-1.73c-.842-.41-1.789-.61-2.84-.61-1.118 0-2.093.23-2.927.7a4.77 4.77 0 0 0-1.917 1.91c-.445.83-.668 1.79-.668 2.9h-3.352c0-1.7.393-3.2 1.179-4.49a8.2 8.2 0 0 1 3.21-3.01q2.046-1.08 4.588-1.08 2.557 0 4.531 1.08 1.975 1.08 3.097 2.91t1.122 4.08c0 1.07-.194 2.12-.582 3.14q-.569 1.515-1.989 3.39c-.937 1.24-2.239 2.76-3.906 4.55l-6.534 6.99v.23h13.523v3.12zM999.813 1046.91V1076h-3.523v-25.4h-.17l-7.103 4.72v-3.58l7.273-4.83zm8.367 29.09v-2.56l9.6-10.51a65 65 0 0 0 2.79-3.21q1.08-1.38 1.62-2.58c.35-.82.53-1.67.53-2.56 0-1.02-.24-1.91-.73-2.66a4.93 4.93 0 0 0-1.99-1.73c-.85-.41-1.79-.61-2.84-.61-1.12 0-2.1.23-2.93.7-.82.45-1.46 1.09-1.92 1.91-.44.83-.66 1.79-.66 2.9h-3.36c0-1.7.4-3.2 1.18-4.49a8.23 8.23 0 0 1 3.21-3.01q2.055-1.08 4.59-1.08c1.7 0 3.22.36 4.53 1.08 1.32.72 2.35 1.69 3.1 2.91s1.12 2.58 1.12 4.08c0 1.07-.19 2.12-.58 3.14-.38 1.01-1.04 2.14-1.99 3.39-.94 1.24-2.24 2.76-3.91 4.55l-6.53 6.99v.23h13.52v3.12zm22.91-5.97v-2.89l12.79-20.23h2.1v4.49h-1.42l-9.66 15.28v.23h17.21v3.12zm13.69 5.97v-29.09h3.36V1076zM1119.38 1046.91V1076h-3.52v-25.4h-.17l-7.1 4.72v-3.58l7.27-4.83zm17.69 29.49c-1.95 0-3.68-.35-5.17-1.04q-2.235-1.05-3.48-2.88c-.84-1.23-1.25-2.64-1.24-4.21-.01-1.23.23-2.36.73-3.41a7.4 7.4 0 0 1 2.01-2.62c.86-.71 1.83-1.16 2.89-1.35v-.17c-1.4-.36-2.5-1.15-3.33-2.35-.82-1.21-1.23-2.59-1.22-4.13-.01-1.48.37-2.8 1.12-3.96.76-1.17 1.8-2.09 3.13-2.76s2.85-1.01 4.56-1.01c1.68 0 3.19.34 4.51 1.01 1.33.67 2.37 1.59 3.13 2.76.77 1.16 1.16 2.48 1.16 3.96 0 1.54-.43 2.92-1.26 4.13-.82 1.2-1.92 1.99-3.28 2.35v.17c1.05.19 2 .64 2.84 1.35.84.7 1.52 1.57 2.02 2.62s.75 2.18.76 3.41c-.01 1.57-.43 2.98-1.27 4.21q-1.26 1.83-3.48 2.88c-1.48.69-3.19 1.04-5.13 1.04m0-3.13c1.31 0 2.45-.21 3.41-.64.95-.42 1.69-1.02 2.21-1.8s.79-1.69.8-2.73c-.01-1.1-.3-2.07-.85-2.91-.56-.84-1.33-1.51-2.29-1.99s-2.05-.72-3.28-.72q-1.86 0-3.33.72c-.96.48-1.72 1.15-2.28 1.99q-.825 1.26-.81 2.91-.015 1.56.75 2.73c.52.78 1.26 1.38 2.23 1.8.97.43 2.11.64 3.44.64m0-13.8c1.04 0 1.96-.21 2.77-.63s1.45-1 1.92-1.75c.46-.74.7-1.62.71-2.62-.01-.99-.25-1.85-.7-2.58-.46-.73-1.08-1.3-1.89-1.7-.8-.41-1.74-.61-2.81-.61-1.09 0-2.04.2-2.86.61-.81.4-1.44.97-1.89 1.7-.44.73-.66 1.59-.65 2.58-.01 1 .21 1.88.67 2.62.46.75 1.1 1.33 1.92 1.75.81.42 1.75.63 2.81.63m25.16 16.93c-1.88 0-3.55-.32-5.02-.97-1.45-.64-2.61-1.54-3.48-2.68-.85-1.16-1.31-2.5-1.39-4.02h3.58c.08.93.4 1.74.97 2.43.56.67 1.31 1.19 2.23 1.56s1.93.55 3.05.55c1.25 0 2.36-.22 3.32-.65.97-.44 1.73-1.04 2.28-1.82s.82-1.68.82-2.7c0-1.07-.26-2.01-.79-2.82-.53-.83-1.31-1.47-2.33-1.94q-1.545-.69-3.75-.69h-2.33v-3.13h2.33c1.15 0 2.16-.21 3.04-.62.88-.42 1.56-1.01 2.06-1.76q.75-1.14.75-2.67c0-.99-.22-1.85-.65-2.58a4.6 4.6 0 0 0-1.85-1.7c-.79-.41-1.72-.61-2.79-.61-1 0-1.95.18-2.84.55-.88.36-1.6.89-2.16 1.58-.55.68-.86 1.51-.9 2.47h-3.41c.05-1.52.51-2.86 1.37-4 .87-1.16 1.99-2.06 3.38-2.7 1.41-.65 2.95-.97 4.62-.97 1.8 0 3.34.37 4.63 1.1 1.29.71 2.28 1.67 2.97 2.85a7.5 7.5 0 0 1 1.04 3.84c0 1.63-.43 3.03-1.29 4.19-.86 1.15-2.02 1.95-3.49 2.4v.22c1.84.31 3.28 1.09 4.31 2.35 1.03 1.25 1.55 2.8 1.55 4.64 0 1.58-.43 3-1.3 4.26-.85 1.25-2.01 2.24-3.49 2.96q-2.22 1.08-5.04 1.08M1239.48 1046.91V1076h-3.52v-25.4h-.17l-7.1 4.72v-3.58l7.27-4.83zm17.63-.4c1.19.01 2.39.24 3.58.68q1.785.675 3.27 2.22c.98 1.02 1.77 2.42 2.37 4.19.59 1.77.89 3.99.89 6.66 0 2.59-.24 4.88-.74 6.89-.48 2-1.18 3.68-2.1 5.06-.91 1.37-2.02 2.41-3.32 3.12s-2.77 1.07-4.41 1.07c-1.62 0-3.08-.32-4.36-.97a8.5 8.5 0 0 1-3.12-2.71c-.81-1.17-1.32-2.52-1.55-4.05h3.47c.31 1.34.93 2.44 1.86 3.31.93.86 2.17 1.29 3.7 1.29 2.25 0 4.02-.98 5.32-2.94s1.96-4.73 1.96-8.31h-.23c-.53.8-1.16 1.48-1.89 2.06s-1.54 1.03-2.43 1.34-1.84.47-2.84.47c-1.67 0-3.2-.42-4.59-1.24-1.38-.83-2.49-1.97-3.32-3.42-.83-1.46-1.24-3.13-1.24-5q0-2.67 1.2-4.89c.8-1.49 1.93-2.67 3.38-3.55s3.17-1.31 5.14-1.28m0 3.13c-1.19 0-2.27.29-3.23.89-.94.59-1.7 1.38-2.25 2.39-.55.99-.83 2.1-.83 3.31s.27 2.31.8 3.31c.54.98 1.27 1.77 2.2 2.35.94.58 2 .87 3.2.87.89 0 1.73-.17 2.51-.52.78-.36 1.45-.85 2.03-1.47a7 7 0 0 0 1.38-2.11 6.525 6.525 0 0 0-.33-5.69 6.64 6.64 0 0 0-2.24-2.41c-.95-.62-2.03-.92-3.24-.92m24.96-3.13c1.19.01 2.39.24 3.58.68q1.785.675 3.27 2.22c.98 1.02 1.77 2.42 2.37 4.19.59 1.77.89 3.99.89 6.66 0 2.59-.24 4.88-.74 6.89-.48 2-1.18 3.68-2.1 5.06-.91 1.37-2.01 2.41-3.32 3.12-1.3.71-2.77 1.07-4.4 1.07s-3.09-.32-4.37-.97a8.6 8.6 0 0 1-3.12-2.71c-.81-1.17-1.32-2.52-1.55-4.05h3.47c.31 1.34.93 2.44 1.86 3.31.94.86 2.17 1.29 3.71 1.29q3.36 0 5.31-2.94c1.3-1.96 1.96-4.73 1.96-8.31h-.23c-.53.8-1.16 1.48-1.89 2.06s-1.54 1.03-2.43 1.34-1.83.47-2.84.47c-1.67 0-3.19-.42-4.59-1.24-1.38-.83-2.49-1.97-3.32-3.42-.82-1.46-1.24-3.13-1.24-5q0-2.67 1.2-4.89c.8-1.49 1.93-2.67 3.38-3.55 1.46-.88 3.17-1.31 5.14-1.28m0 3.13c-1.19 0-2.27.29-3.22.89-.95.59-1.7 1.38-2.26 2.39-.55.99-.83 2.1-.83 3.31s.27 2.31.8 3.31c.54.98 1.27 1.77 2.2 2.35.94.58 2 .87 3.2.87.9 0 1.73-.17 2.51-.52.78-.36 1.45-.85 2.03-1.47a7 7 0 0 0 1.38-2.11 6.525 6.525 0 0 0-.33-5.69 6.64 6.64 0 0 0-2.24-2.41c-.95-.62-2.03-.92-3.24-.92"/><path stroke="#a80000" stroke-width="3" d="M413.5 151v267M203.5 151v267M203.5 605v267M1079.5 603v267"/><path fill="#dbdbdb" d="M216.939 333.939a1.5 1.5 0 0 0 0 2.122l9.546 9.546a1.5 1.5 0 0 0 2.122 0 1.5 1.5 0 0 0 0-2.122L220.121 335l8.486-8.485a1.5 1.5 0 0 0 0-2.122 1.5 1.5 0 0 0-2.122 0zM393 335v-1.5H218v3h175zM1059.06 788.061c.59-.586.59-1.536 0-2.122l-9.55-9.546a1.5 1.5 0 0 0-2.12 0 1.51 1.51 0 0 0 0 2.122l8.49 8.485-8.49 8.485a1.51 1.51 0 0 0 0 2.122 1.5 1.5 0 0 0 2.12 0zM218 787v1.5h840v-3H218z"/><path stroke="#00a8f0" stroke-linecap="round" stroke-linejoin="round" stroke-width="2" d="m421.25 271.75-15.5 15.5M405.75 271.75l15.5 15.5"/><circle cx="203.5" cy="279.5" r="6" fill="#00a8f0" stroke="#00577c"/><circle cx="203.5" cy="731.5" r="6" fill="#00a8f0" stroke="#00577c"/><circle cx="1079.5" cy="731.5" r="6" fill="#00a8f0" stroke="#005b81"/></svg>