<svg width="648" height="949" viewBox="0 0 648 949" fill="none" xmlns="http://www.w3.org/2000/svg">
<rect x="25" y="92" width="598" height="120" rx="26" stroke="#DBDBDB" stroke-width="2"/>
<rect x="264" y="924" width="598" height="120" rx="26" transform="rotate(-90 264 924)" stroke="#DBDBDB" stroke-width="2"/>
<line x1="145" y1="91" x2="145" y2="213" stroke="#DBDBDB" stroke-width="2"/>
<line x1="263" y1="804" x2="385" y2="804" stroke="#DBDBDB" stroke-width="2"/>
<line x1="265" y1="91" x2="265" y2="213" stroke="#DBDBDB" stroke-width="2"/>
<line x1="263" y1="684" x2="385" y2="684" stroke="#DBDBDB" stroke-width="2"/>
<line x1="385" y1="91" x2="385" y2="213" stroke="#DBDBDB" stroke-width="2"/>
<line x1="263" y1="564" x2="385" y2="564" stroke="#DBDBDB" stroke-width="2"/>
<line x1="505" y1="91" x2="505" y2="213" stroke="#DBDBDB" stroke-width="2"/>
<line x1="263" y1="444" x2="385" y2="444" stroke="#DBDBDB" stroke-width="2"/>
<path d="M82.4343 166.398C80.7676 166.398 79.2667 166.066 77.9315 165.403C76.5962 164.741 75.5262 163.831 74.7212 162.676C73.9163 161.521 73.476 160.205 73.4002 158.727H76.8093C76.9419 160.044 77.5385 161.133 78.5991 161.994C79.6692 162.847 80.9476 163.273 82.4343 163.273C83.6275 163.273 84.6881 162.993 85.6161 162.435C86.5536 161.876 87.2875 161.109 87.8178 160.134C88.3576 159.149 88.6275 158.036 88.6275 156.795C88.6275 155.527 88.3481 154.395 87.7894 153.401C87.2402 152.397 86.4826 151.606 85.5167 151.028C84.5508 150.451 83.4476 150.157 82.207 150.148C81.3169 150.138 80.4031 150.276 79.4656 150.56C78.5281 150.834 77.7563 151.189 77.1502 151.625L73.8548 151.227L75.6161 136.909H90.7298V140.034H78.5707L77.5479 148.614H77.7184C78.315 148.14 79.0631 147.747 79.9627 147.435C80.8623 147.122 81.7998 146.966 82.7752 146.966C84.5555 146.966 86.1417 147.392 87.5337 148.244C88.9353 149.087 90.0337 150.242 90.8292 151.71C91.6341 153.178 92.0366 154.854 92.0366 156.739C92.0366 158.595 91.6199 160.252 90.7866 161.71C89.9627 163.159 88.8263 164.305 87.3775 165.148C85.9286 165.981 84.2809 166.398 82.4343 166.398Z" fill="white"/>
<path d="M324.434 879.398C322.768 879.398 321.267 879.066 319.931 878.403C318.596 877.741 317.526 876.831 316.721 875.676C315.916 874.521 315.476 873.205 315.4 871.727H318.809C318.942 873.044 319.538 874.133 320.599 874.994C321.669 875.847 322.948 876.273 324.434 876.273C325.627 876.273 326.688 875.993 327.616 875.435C328.554 874.876 329.288 874.109 329.818 873.134C330.358 872.149 330.627 871.036 330.627 869.795C330.627 868.527 330.348 867.395 329.789 866.401C329.24 865.397 328.483 864.606 327.517 864.028C326.551 863.451 325.448 863.157 324.207 863.148C323.317 863.138 322.403 863.276 321.466 863.56C320.528 863.834 319.756 864.189 319.15 864.625L315.855 864.227L317.616 849.909H332.73V853.034H320.571L319.548 861.614H319.718C320.315 861.14 321.063 860.747 321.963 860.435C322.862 860.122 323.8 859.966 324.775 859.966C326.556 859.966 328.142 860.392 329.534 861.244C330.935 862.087 332.034 863.242 332.829 864.71C333.634 866.178 334.037 867.854 334.037 869.739C334.037 871.595 333.62 873.252 332.787 874.71C331.963 876.159 330.826 877.305 329.377 878.148C327.929 878.981 326.281 879.398 324.434 879.398Z" fill="white"/>
<path d="M158.814 15.9091H164.964V34.8011C164.964 36.9223 164.458 38.7784 163.444 40.3693C162.44 41.9602 161.034 43.2008 159.225 44.0909C157.417 44.9716 155.31 45.4119 152.904 45.4119C150.49 45.4119 148.378 44.9716 146.569 44.0909C144.761 43.2008 143.354 41.9602 142.35 40.3693C141.347 38.7784 140.845 36.9223 140.845 34.8011V15.9091H146.995V34.2756C146.995 35.3835 147.237 36.3684 147.72 37.2301C148.212 38.0919 148.904 38.7689 149.794 39.2614C150.684 39.7538 151.721 40 152.904 40C154.098 40 155.135 39.7538 156.015 39.2614C156.905 38.7689 157.592 38.0919 158.075 37.2301C158.567 36.3684 158.814 35.3835 158.814 34.2756V15.9091ZM175.962 32.3864V45H169.911V23.1818H175.678V27.0312H175.934C176.417 25.7623 177.226 24.7585 178.363 24.0199C179.499 23.2718 180.877 22.8977 182.496 22.8977C184.011 22.8977 185.332 23.2292 186.459 23.892C187.586 24.5549 188.462 25.5019 189.087 26.733C189.712 27.9545 190.025 29.4129 190.025 31.108V45H183.973V32.1875C183.983 30.8523 183.642 29.8106 182.951 29.0625C182.259 28.3049 181.308 27.9261 180.096 27.9261C179.281 27.9261 178.561 28.1013 177.936 28.4517C177.321 28.8021 176.838 29.3134 176.488 29.9858C176.147 30.6487 175.971 31.4489 175.962 32.3864ZM212.947 29.4034L207.407 29.7443C207.313 29.2708 207.109 28.8447 206.797 28.4659C206.484 28.0777 206.072 27.7699 205.561 27.5426C205.059 27.3059 204.458 27.1875 203.757 27.1875C202.819 27.1875 202.029 27.3864 201.385 27.7841C200.741 28.1723 200.419 28.6932 200.419 29.3466C200.419 29.8674 200.627 30.3078 201.044 30.6676C201.46 31.0275 202.175 31.3163 203.189 31.5341L207.137 32.3295C209.259 32.7652 210.84 33.4659 211.882 34.4318C212.923 35.3977 213.444 36.6667 213.444 38.2386C213.444 39.6686 213.023 40.9233 212.18 42.0028C211.347 43.0824 210.201 43.9252 208.743 44.5312C207.294 45.1278 205.622 45.4261 203.728 45.4261C200.84 45.4261 198.539 44.8248 196.825 43.6222C195.12 42.41 194.121 40.7623 193.828 38.679L199.779 38.3665C199.959 39.2472 200.395 39.9195 201.086 40.3835C201.778 40.8381 202.663 41.0653 203.743 41.0653C204.803 41.0653 205.655 40.8617 206.299 40.4545C206.953 40.0379 207.284 39.5028 207.294 38.8494C207.284 38.3002 207.052 37.8504 206.598 37.5C206.143 37.1402 205.442 36.8655 204.495 36.6761L200.717 35.9233C198.586 35.4972 197 34.7585 195.958 33.7074C194.926 32.6562 194.41 31.3163 194.41 29.6875C194.41 28.286 194.789 27.0786 195.547 26.0653C196.314 25.0521 197.388 24.2708 198.771 23.7216C200.163 23.1723 201.792 22.8977 203.657 22.8977C206.413 22.8977 208.582 23.4801 210.163 24.6449C211.754 25.8097 212.682 27.3958 212.947 29.4034ZM227.113 45.4261C224.906 45.4261 222.998 44.9574 221.388 44.0199C219.788 43.0729 218.552 41.7566 217.681 40.071C216.81 38.3759 216.374 36.411 216.374 34.1761C216.374 31.9223 216.81 29.9527 217.681 28.267C218.552 26.572 219.788 25.2557 221.388 24.3182C222.998 23.3712 224.906 22.8977 227.113 22.8977C229.319 22.8977 231.222 23.3712 232.823 24.3182C234.433 25.2557 235.673 26.572 236.544 28.267C237.416 29.9527 237.851 31.9223 237.851 34.1761C237.851 36.411 237.416 38.3759 236.544 40.071C235.673 41.7566 234.433 43.0729 232.823 44.0199C231.222 44.9574 229.319 45.4261 227.113 45.4261ZM227.141 40.7386C228.145 40.7386 228.983 40.4545 229.655 39.8864C230.328 39.3087 230.834 38.5227 231.175 37.5284C231.525 36.5341 231.701 35.4025 231.701 34.1335C231.701 32.8646 231.525 31.733 231.175 30.7386C230.834 29.7443 230.328 28.9583 229.655 28.3807C228.983 27.803 228.145 27.5142 227.141 27.5142C226.128 27.5142 225.275 27.803 224.584 28.3807C223.902 28.9583 223.386 29.7443 223.036 30.7386C222.695 31.733 222.525 32.8646 222.525 34.1335C222.525 35.4025 222.695 36.5341 223.036 37.5284C223.386 38.5227 223.902 39.3087 224.584 39.8864C225.275 40.4545 226.128 40.7386 227.141 40.7386ZM241.786 45V23.1818H247.652V26.9886H247.88C248.277 25.6345 248.945 24.6117 249.882 23.9205C250.82 23.2197 251.9 22.8693 253.121 22.8693C253.424 22.8693 253.751 22.8883 254.101 22.9261C254.452 22.964 254.759 23.0161 255.025 23.0824V28.4517C254.74 28.3665 254.347 28.2907 253.846 28.2244C253.344 28.1581 252.884 28.125 252.468 28.125C251.578 28.125 250.782 28.3191 250.081 28.7074C249.39 29.0862 248.841 29.6165 248.434 30.2983C248.036 30.9801 247.837 31.7661 247.837 32.6562V45H241.786ZM270.852 23.1818V27.7273H257.713V23.1818H270.852ZM260.696 17.9545H266.747V38.2955C266.747 38.8542 266.832 39.2898 267.002 39.6023C267.173 39.9053 267.41 40.1184 267.713 40.2415C268.025 40.3646 268.385 40.4261 268.792 40.4261C269.076 40.4261 269.36 40.4025 269.645 40.3551C269.929 40.2983 270.146 40.2557 270.298 40.2273L271.25 44.7301C270.947 44.8248 270.52 44.9337 269.971 45.0568C269.422 45.1894 268.754 45.2699 267.968 45.2983C266.51 45.3551 265.232 45.161 264.133 44.7159C263.044 44.2708 262.197 43.5795 261.591 42.642C260.984 41.7045 260.686 40.5208 260.696 39.0909V17.9545ZM284.502 45.4261C282.258 45.4261 280.326 44.9716 278.707 44.0625C277.097 43.1439 275.857 41.8466 274.985 40.1705C274.114 38.4848 273.679 36.4915 273.679 34.1903C273.679 31.946 274.114 29.9763 274.985 28.2812C275.857 26.5862 277.083 25.2652 278.664 24.3182C280.255 23.3712 282.121 22.8977 284.261 22.8977C285.7 22.8977 287.04 23.1297 288.281 23.5938C289.531 24.0483 290.62 24.7348 291.548 25.6534C292.485 26.572 293.215 27.7273 293.735 29.1193C294.256 30.5019 294.517 32.1212 294.517 33.9773V35.6392H276.093V31.8892H288.821C288.821 31.018 288.631 30.2462 288.252 29.5739C287.874 28.9015 287.348 28.3759 286.676 27.9972C286.013 27.6089 285.241 27.4148 284.36 27.4148C283.442 27.4148 282.627 27.6278 281.917 28.054C281.217 28.4706 280.667 29.0341 280.27 29.7443C279.872 30.4451 279.668 31.2263 279.659 32.0881V35.6534C279.659 36.733 279.858 37.6657 280.255 38.4517C280.663 39.2377 281.235 39.8438 281.974 40.2699C282.713 40.696 283.589 40.9091 284.602 40.9091C285.274 40.9091 285.89 40.8144 286.449 40.625C287.007 40.4356 287.485 40.1515 287.883 39.7727C288.281 39.3939 288.584 38.9299 288.792 38.3807L294.389 38.75C294.105 40.0947 293.522 41.2689 292.642 42.2727C291.77 43.267 290.644 44.0436 289.261 44.6023C287.888 45.1515 286.302 45.4261 284.502 45.4261ZM306.505 45.3551C304.848 45.3551 303.347 44.929 302.002 44.0767C300.667 43.215 299.607 41.9508 298.821 40.2841C298.044 38.608 297.656 36.553 297.656 34.1193C297.656 31.6193 298.058 29.5407 298.863 27.8835C299.668 26.2169 300.738 24.9716 302.074 24.1477C303.418 23.3144 304.891 22.8977 306.491 22.8977C307.713 22.8977 308.731 23.1061 309.545 23.5227C310.369 23.9299 311.032 24.4413 311.534 25.0568C312.045 25.6629 312.433 26.2595 312.699 26.8466H312.883V15.9091H318.92V45H312.954V41.5057H312.699C312.414 42.1117 312.012 42.7131 311.491 43.3097C310.98 43.8968 310.312 44.3845 309.488 44.7727C308.674 45.161 307.68 45.3551 306.505 45.3551ZM308.423 40.5398C309.398 40.5398 310.222 40.2746 310.895 39.7443C311.576 39.2045 312.097 38.4517 312.457 37.4858C312.826 36.5199 313.011 35.3883 313.011 34.0909C313.011 32.7936 312.831 31.6667 312.471 30.7102C312.111 29.7538 311.591 29.0152 310.909 28.4943C310.227 27.9735 309.398 27.7131 308.423 27.7131C307.429 27.7131 306.591 27.983 305.909 28.5227C305.227 29.0625 304.711 29.8106 304.36 30.767C304.01 31.7235 303.835 32.8314 303.835 34.0909C303.835 35.3598 304.01 36.482 304.36 37.4574C304.72 38.4233 305.236 39.1809 305.909 39.7301C306.591 40.2699 307.429 40.5398 308.423 40.5398ZM357.599 15.9091V45H352.287L339.63 26.6903H339.417V45H333.267V15.9091H338.664L351.221 34.2045H351.477V15.9091H357.599ZM376.559 35.7102V23.1818H382.61V45H376.8V41.0369H376.573C376.08 42.3153 375.261 43.3428 374.115 44.1193C372.979 44.8958 371.592 45.2841 369.953 45.2841C368.495 45.2841 367.212 44.9527 366.104 44.2898C364.996 43.6269 364.13 42.6847 363.505 41.4631C362.889 40.2415 362.577 38.7784 362.567 37.0739V23.1818H368.618V35.9943C368.628 37.2822 368.973 38.3002 369.655 39.0483C370.337 39.7964 371.251 40.1705 372.397 40.1705C373.126 40.1705 373.808 40.0047 374.442 39.6733C375.077 39.3324 375.588 38.8305 375.976 38.1676C376.374 37.5047 376.568 36.6856 376.559 35.7102ZM387.45 45V23.1818H393.217V27.0312H393.473C393.927 25.7528 394.685 24.7443 395.745 24.0057C396.806 23.267 398.075 22.8977 399.552 22.8977C401.048 22.8977 402.322 23.2718 403.373 24.0199C404.424 24.7585 405.125 25.7623 405.475 27.0312H405.703C406.148 25.7812 406.953 24.7822 408.118 24.0341C409.292 23.2765 410.679 22.8977 412.279 22.8977C414.315 22.8977 415.968 23.5464 417.237 24.8438C418.515 26.1316 419.154 27.9593 419.154 30.3267V45H413.118V31.5199C413.118 30.3078 412.796 29.3987 412.152 28.7926C411.508 28.1866 410.703 27.8835 409.737 27.8835C408.638 27.8835 407.781 28.2339 407.166 28.9347C406.55 29.6259 406.243 30.5398 406.243 31.6761V45H400.376V31.392C400.376 30.322 400.068 29.4697 399.453 28.8352C398.847 28.2008 398.047 27.8835 397.052 27.8835C396.38 27.8835 395.774 28.054 395.234 28.3949C394.704 28.7263 394.282 29.1951 393.97 29.8011C393.657 30.3977 393.501 31.0985 393.501 31.9034V45H387.45ZM424.048 45V15.9091H430.099V26.8466H430.284C430.549 26.2595 430.932 25.6629 431.434 25.0568C431.946 24.4413 432.609 23.9299 433.423 23.5227C434.247 23.1061 435.27 22.8977 436.491 22.8977C438.082 22.8977 439.55 23.3144 440.895 24.1477C442.239 24.9716 443.314 26.2169 444.119 27.8835C444.924 29.5407 445.326 31.6193 445.326 34.1193C445.326 36.553 444.933 38.608 444.147 40.2841C443.371 41.9508 442.31 43.215 440.966 44.0767C439.63 44.929 438.134 45.3551 436.477 45.3551C435.303 45.3551 434.304 45.161 433.48 44.7727C432.665 44.3845 431.998 43.8968 431.477 43.3097C430.956 42.7131 430.558 42.1117 430.284 41.5057H430.014V45H424.048ZM429.971 34.0909C429.971 35.3883 430.151 36.5199 430.511 37.4858C430.871 38.4517 431.392 39.2045 432.074 39.7443C432.755 40.2746 433.584 40.5398 434.559 40.5398C435.544 40.5398 436.377 40.2699 437.059 39.7301C437.741 39.1809 438.257 38.4233 438.608 37.4574C438.967 36.482 439.147 35.3598 439.147 34.0909C439.147 32.8314 438.972 31.7235 438.622 30.767C438.271 29.8106 437.755 29.0625 437.074 28.5227C436.392 27.983 435.554 27.7131 434.559 27.7131C433.574 27.7131 432.741 27.9735 432.059 28.4943C431.387 29.0152 430.871 29.7538 430.511 30.7102C430.151 31.6667 429.971 32.7936 429.971 34.0909ZM459.307 45.4261C457.063 45.4261 455.131 44.9716 453.512 44.0625C451.902 43.1439 450.661 41.8466 449.79 40.1705C448.919 38.4848 448.483 36.4915 448.483 34.1903C448.483 31.946 448.919 29.9763 449.79 28.2812C450.661 26.5862 451.888 25.2652 453.469 24.3182C455.06 23.3712 456.926 22.8977 459.066 22.8977C460.505 22.8977 461.845 23.1297 463.086 23.5938C464.336 24.0483 465.425 24.7348 466.353 25.6534C467.29 26.572 468.019 27.7273 468.54 29.1193C469.061 30.5019 469.321 32.1212 469.321 33.9773V35.6392H450.898V31.8892H463.625C463.625 31.018 463.436 30.2462 463.057 29.5739C462.678 28.9015 462.153 28.3759 461.48 27.9972C460.818 27.6089 460.046 27.4148 459.165 27.4148C458.247 27.4148 457.432 27.6278 456.722 28.054C456.021 28.4706 455.472 29.0341 455.074 29.7443C454.676 30.4451 454.473 31.2263 454.463 32.0881V35.6534C454.463 36.733 454.662 37.6657 455.06 38.4517C455.467 39.2377 456.04 39.8438 456.779 40.2699C457.517 40.696 458.393 40.9091 459.407 40.9091C460.079 40.9091 460.694 40.8144 461.253 40.625C461.812 40.4356 462.29 40.1515 462.688 39.7727C463.086 39.3939 463.389 38.9299 463.597 38.3807L469.194 38.75C468.909 40.0947 468.327 41.2689 467.446 42.2727C466.575 43.267 465.448 44.0436 464.066 44.6023C462.693 45.1515 461.106 45.4261 459.307 45.4261ZM473.27 45V23.1818H479.137V26.9886H479.364C479.762 25.6345 480.429 24.6117 481.367 23.9205C482.304 23.2197 483.384 22.8693 484.605 22.8693C484.908 22.8693 485.235 22.8883 485.586 22.9261C485.936 22.964 486.244 23.0161 486.509 23.0824V28.4517C486.225 28.3665 485.832 28.2907 485.33 28.2244C484.828 28.1581 484.369 28.125 483.952 28.125C483.062 28.125 482.266 28.3191 481.566 28.7074C480.874 29.0862 480.325 29.6165 479.918 30.2983C479.52 30.9801 479.321 31.7661 479.321 32.6562V45H473.27ZM507.791 29.4034L502.251 29.7443C502.156 29.2708 501.953 28.8447 501.64 28.4659C501.328 28.0777 500.916 27.7699 500.404 27.5426C499.903 27.3059 499.301 27.1875 498.6 27.1875C497.663 27.1875 496.872 27.3864 496.228 27.7841C495.584 28.1723 495.262 28.6932 495.262 29.3466C495.262 29.8674 495.471 30.3078 495.887 30.6676C496.304 31.0275 497.019 31.3163 498.032 31.5341L501.981 32.3295C504.102 32.7652 505.684 33.4659 506.725 34.4318C507.767 35.3977 508.288 36.6667 508.288 38.2386C508.288 39.6686 507.867 40.9233 507.024 42.0028C506.19 43.0824 505.045 43.9252 503.586 44.5312C502.137 45.1278 500.466 45.4261 498.572 45.4261C495.684 45.4261 493.383 44.8248 491.669 43.6222C489.964 42.41 488.965 40.7623 488.672 38.679L494.623 38.3665C494.803 39.2472 495.239 39.9195 495.93 40.3835C496.621 40.8381 497.507 41.0653 498.586 41.0653C499.647 41.0653 500.499 40.8617 501.143 40.4545C501.797 40.0379 502.128 39.5028 502.137 38.8494C502.128 38.3002 501.896 37.8504 501.441 37.5C500.987 37.1402 500.286 36.8655 499.339 36.6761L495.561 35.9233C493.43 35.4972 491.844 34.7585 490.802 33.7074C489.77 32.6562 489.254 31.3163 489.254 29.6875C489.254 28.286 489.633 27.0786 490.39 26.0653C491.157 25.0521 492.232 24.2708 493.615 23.7216C495.007 23.1723 496.636 22.8977 498.501 22.8977C501.257 22.8977 503.425 23.4801 505.007 24.6449C506.598 25.8097 507.526 27.3958 507.791 29.4034Z" fill="white"/>
<path d="M187.909 790.186V784.036H206.801C208.922 784.036 210.778 784.542 212.369 785.556C213.96 786.56 215.201 787.966 216.091 789.775C216.972 791.583 217.412 793.69 217.412 796.096C217.412 798.51 216.972 800.622 216.091 802.431C215.201 804.239 213.96 805.646 212.369 806.65C210.778 807.653 208.922 808.155 206.801 808.155H187.909V802.005H206.276C207.384 802.005 208.368 801.763 209.23 801.28C210.092 800.788 210.769 800.096 211.261 799.206C211.754 798.316 212 797.279 212 796.096C212 794.902 211.754 793.865 211.261 792.985C210.769 792.095 210.092 791.408 209.23 790.925C208.368 790.433 207.384 790.186 206.276 790.186H187.909ZM204.386 773.038H217V779.089H195.182V773.322H199.031V773.066C197.762 772.583 196.759 771.774 196.02 770.637C195.272 769.501 194.898 768.123 194.898 766.504C194.898 764.989 195.229 763.668 195.892 762.541C196.555 761.414 197.502 760.538 198.733 759.913C199.955 759.288 201.413 758.975 203.108 758.975H217V765.027H204.188C202.852 765.017 201.811 765.358 201.062 766.049C200.305 766.741 199.926 767.692 199.926 768.904C199.926 769.719 200.101 770.439 200.452 771.064C200.802 771.679 201.313 772.162 201.986 772.512C202.649 772.853 203.449 773.029 204.386 773.038ZM201.403 736.053L201.744 741.593C201.271 741.687 200.845 741.891 200.466 742.203C200.078 742.516 199.77 742.928 199.543 743.439C199.306 743.941 199.188 744.542 199.188 745.243C199.188 746.181 199.386 746.971 199.784 747.615C200.172 748.259 200.693 748.581 201.347 748.581C201.867 748.581 202.308 748.373 202.668 747.956C203.027 747.54 203.316 746.825 203.534 745.811L204.33 741.863C204.765 739.741 205.466 738.16 206.432 737.118C207.398 736.077 208.667 735.556 210.239 735.556C211.669 735.556 212.923 735.977 214.003 736.82C215.082 737.653 215.925 738.799 216.531 740.257C217.128 741.706 217.426 743.378 217.426 745.272C217.426 748.16 216.825 750.461 215.622 752.175C214.41 753.88 212.762 754.879 210.679 755.172L210.366 749.221C211.247 749.041 211.92 748.605 212.384 747.914C212.838 747.222 213.065 746.337 213.065 745.257C213.065 744.197 212.862 743.345 212.455 742.701C212.038 742.047 211.503 741.716 210.849 741.706C210.3 741.716 209.85 741.948 209.5 742.402C209.14 742.857 208.866 743.558 208.676 744.505L207.923 748.283C207.497 750.414 206.759 752 205.707 753.042C204.656 754.074 203.316 754.59 201.688 754.59C200.286 754.59 199.079 754.211 198.065 753.453C197.052 752.686 196.271 751.612 195.722 750.229C195.172 748.837 194.898 747.208 194.898 745.343C194.898 742.587 195.48 740.418 196.645 738.837C197.81 737.246 199.396 736.318 201.403 736.053ZM217.426 721.887C217.426 724.094 216.957 726.002 216.02 727.612C215.073 729.212 213.757 730.448 212.071 731.319C210.376 732.19 208.411 732.626 206.176 732.626C203.922 732.626 201.953 732.19 200.267 731.319C198.572 730.448 197.256 729.212 196.318 727.612C195.371 726.002 194.898 724.094 194.898 721.887C194.898 719.681 195.371 717.778 196.318 716.177C197.256 714.567 198.572 713.327 200.267 712.456C201.953 711.584 203.922 711.149 206.176 711.149C208.411 711.149 210.376 711.584 212.071 712.456C213.757 713.327 215.073 714.567 216.02 716.177C216.957 717.778 217.426 719.681 217.426 721.887ZM212.739 721.859C212.739 720.855 212.455 720.017 211.886 719.345C211.309 718.672 210.523 718.166 209.528 717.825C208.534 717.475 207.402 717.299 206.134 717.299C204.865 717.299 203.733 717.475 202.739 717.825C201.744 718.166 200.958 718.672 200.381 719.345C199.803 720.017 199.514 720.855 199.514 721.859C199.514 722.872 199.803 723.725 200.381 724.416C200.958 725.098 201.744 725.614 202.739 725.964C203.733 726.305 204.865 726.475 206.134 726.475C207.402 726.475 208.534 726.305 209.528 725.964C210.523 725.614 211.309 725.098 211.886 724.416C212.455 723.725 212.739 722.872 212.739 721.859ZM217 707.214H195.182V701.348H198.989V701.12C197.634 700.723 196.612 700.055 195.92 699.118C195.22 698.18 194.869 697.1 194.869 695.879C194.869 695.576 194.888 695.249 194.926 694.899C194.964 694.548 195.016 694.241 195.082 693.975H200.452C200.366 694.26 200.291 694.653 200.224 695.154C200.158 695.656 200.125 696.116 200.125 696.532C200.125 697.422 200.319 698.218 200.707 698.919C201.086 699.61 201.616 700.159 202.298 700.566C202.98 700.964 203.766 701.163 204.656 701.163H217V707.214ZM195.182 678.148H199.727V691.287H195.182V678.148ZM189.955 688.304V682.253H210.295C210.854 682.253 211.29 682.168 211.602 681.998C211.905 681.827 212.118 681.59 212.241 681.287C212.365 680.975 212.426 680.615 212.426 680.208C212.426 679.924 212.402 679.64 212.355 679.355C212.298 679.071 212.256 678.854 212.227 678.702L216.73 677.75C216.825 678.053 216.934 678.48 217.057 679.029C217.189 679.578 217.27 680.246 217.298 681.032C217.355 682.49 217.161 683.768 216.716 684.867C216.271 685.956 215.58 686.803 214.642 687.409C213.705 688.016 212.521 688.314 211.091 688.304H189.955ZM217.426 664.498C217.426 666.742 216.972 668.674 216.062 670.293C215.144 671.903 213.847 673.143 212.17 674.015C210.485 674.886 208.491 675.321 206.19 675.321C203.946 675.321 201.976 674.886 200.281 674.015C198.586 673.143 197.265 671.917 196.318 670.336C195.371 668.745 194.898 666.879 194.898 664.739C194.898 663.3 195.13 661.96 195.594 660.719C196.048 659.469 196.735 658.38 197.653 657.452C198.572 656.515 199.727 655.785 201.119 655.265C202.502 654.744 204.121 654.483 205.977 654.483H207.639V672.907H203.889V660.179C203.018 660.179 202.246 660.369 201.574 660.748C200.902 661.126 200.376 661.652 199.997 662.324C199.609 662.987 199.415 663.759 199.415 664.64C199.415 665.558 199.628 666.373 200.054 667.083C200.471 667.783 201.034 668.333 201.744 668.73C202.445 669.128 203.226 669.332 204.088 669.341H207.653C208.733 669.341 209.666 669.142 210.452 668.745C211.238 668.337 211.844 667.765 212.27 667.026C212.696 666.287 212.909 665.411 212.909 664.398C212.909 663.726 212.814 663.11 212.625 662.551C212.436 661.993 212.152 661.515 211.773 661.117C211.394 660.719 210.93 660.416 210.381 660.208L210.75 654.611C212.095 654.895 213.269 655.478 214.273 656.358C215.267 657.23 216.044 658.356 216.602 659.739C217.152 661.112 217.426 662.698 217.426 664.498ZM217.355 642.495C217.355 644.152 216.929 645.653 216.077 646.998C215.215 648.333 213.951 649.393 212.284 650.179C210.608 650.956 208.553 651.344 206.119 651.344C203.619 651.344 201.541 650.942 199.884 650.137C198.217 649.332 196.972 648.262 196.148 646.926C195.314 645.582 194.898 644.109 194.898 642.509C194.898 641.287 195.106 640.269 195.523 639.455C195.93 638.631 196.441 637.968 197.057 637.466C197.663 636.955 198.259 636.567 198.847 636.301V636.117H187.909V630.08H217V636.046H213.506V636.301C214.112 636.586 214.713 636.988 215.31 637.509C215.897 638.02 216.384 638.688 216.773 639.512C217.161 640.326 217.355 641.32 217.355 642.495ZM212.54 640.577C212.54 639.602 212.275 638.778 211.744 638.105C211.205 637.424 210.452 636.903 209.486 636.543C208.52 636.174 207.388 635.989 206.091 635.989C204.794 635.989 203.667 636.169 202.71 636.529C201.754 636.889 201.015 637.409 200.494 638.091C199.973 638.773 199.713 639.602 199.713 640.577C199.713 641.571 199.983 642.409 200.523 643.091C201.062 643.773 201.811 644.289 202.767 644.64C203.723 644.99 204.831 645.165 206.091 645.165C207.36 645.165 208.482 644.99 209.457 644.64C210.423 644.28 211.181 643.764 211.73 643.091C212.27 642.409 212.54 641.571 212.54 640.577ZM187.909 591.401H217V596.713L198.69 609.37V609.583H217V615.733H187.909V610.336L206.205 597.779V597.523H187.909V591.401ZM207.71 572.441H195.182V566.39H217V572.2H213.037V572.427C214.315 572.92 215.343 573.739 216.119 574.885C216.896 576.021 217.284 577.408 217.284 579.047C217.284 580.505 216.953 581.788 216.29 582.896C215.627 584.004 214.685 584.87 213.463 585.495C212.241 586.111 210.778 586.423 209.074 586.433H195.182V580.382H207.994C209.282 580.372 210.3 580.027 211.048 579.345C211.796 578.663 212.17 577.749 212.17 576.603C212.17 575.874 212.005 575.192 211.673 574.558C211.332 573.923 210.83 573.412 210.168 573.024C209.505 572.626 208.686 572.432 207.71 572.441ZM217 561.55H195.182V555.783H199.031V555.527C197.753 555.073 196.744 554.315 196.006 553.255C195.267 552.194 194.898 550.925 194.898 549.448C194.898 547.952 195.272 546.678 196.02 545.627C196.759 544.576 197.762 543.875 199.031 543.525V543.297C197.781 542.852 196.782 542.047 196.034 540.882C195.277 539.708 194.898 538.321 194.898 536.721C194.898 534.685 195.546 533.032 196.844 531.763C198.132 530.485 199.959 529.846 202.327 529.846H217V535.882H203.52C202.308 535.882 201.399 536.204 200.793 536.848C200.187 537.492 199.884 538.297 199.884 539.263C199.884 540.362 200.234 541.219 200.935 541.834C201.626 542.45 202.54 542.757 203.676 542.757H217V548.624H203.392C202.322 548.624 201.47 548.932 200.835 549.547C200.201 550.153 199.884 550.953 199.884 551.948C199.884 552.62 200.054 553.226 200.395 553.766C200.726 554.296 201.195 554.718 201.801 555.03C202.398 555.343 203.098 555.499 203.903 555.499H217V561.55ZM217 524.952H187.909V518.901H198.847V518.716C198.259 518.451 197.663 518.068 197.057 517.566C196.441 517.054 195.93 516.391 195.523 515.577C195.106 514.753 194.898 513.73 194.898 512.509C194.898 510.918 195.314 509.45 196.148 508.105C196.972 506.761 198.217 505.686 199.884 504.881C201.541 504.076 203.619 503.674 206.119 503.674C208.553 503.674 210.608 504.067 212.284 504.853C213.951 505.629 215.215 506.69 216.077 508.034C216.929 509.37 217.355 510.866 217.355 512.523C217.355 513.697 217.161 514.696 216.773 515.52C216.384 516.335 215.897 517.002 215.31 517.523C214.713 518.044 214.112 518.442 213.506 518.716V518.986H217V524.952ZM206.091 519.029C207.388 519.029 208.52 518.849 209.486 518.489C210.452 518.129 211.205 517.608 211.744 516.926C212.275 516.245 212.54 515.416 212.54 514.441C212.54 513.456 212.27 512.623 211.73 511.941C211.181 511.259 210.423 510.743 209.457 510.392C208.482 510.033 207.36 509.853 206.091 509.853C204.831 509.853 203.723 510.028 202.767 510.378C201.811 510.729 201.062 511.245 200.523 511.926C199.983 512.608 199.713 513.446 199.713 514.441C199.713 515.426 199.973 516.259 200.494 516.941C201.015 517.613 201.754 518.129 202.71 518.489C203.667 518.849 204.794 519.029 206.091 519.029ZM217.426 489.693C217.426 491.937 216.972 493.869 216.062 495.488C215.144 497.098 213.847 498.339 212.17 499.21C210.485 500.081 208.491 500.517 206.19 500.517C203.946 500.517 201.976 500.081 200.281 499.21C198.586 498.339 197.265 497.112 196.318 495.531C195.371 493.94 194.898 492.074 194.898 489.934C194.898 488.495 195.13 487.155 195.594 485.914C196.048 484.664 196.735 483.575 197.653 482.647C198.572 481.71 199.727 480.981 201.119 480.46C202.502 479.939 204.121 479.679 205.977 479.679H207.639V498.102H203.889V485.375C203.018 485.375 202.246 485.564 201.574 485.943C200.902 486.322 200.376 486.847 199.997 487.52C199.609 488.182 199.415 488.954 199.415 489.835C199.415 490.753 199.628 491.568 200.054 492.278C200.471 492.979 201.034 493.528 201.744 493.926C202.445 494.324 203.226 494.527 204.088 494.537H207.653C208.733 494.537 209.666 494.338 210.452 493.94C211.238 493.533 211.844 492.96 212.27 492.221C212.696 491.483 212.909 490.607 212.909 489.593C212.909 488.921 212.814 488.306 212.625 487.747C212.436 487.188 212.152 486.71 211.773 486.312C211.394 485.914 210.93 485.611 210.381 485.403L210.75 479.806C212.095 480.091 213.269 480.673 214.273 481.554C215.267 482.425 216.044 483.552 216.602 484.934C217.152 486.307 217.426 487.894 217.426 489.693ZM217 475.73H195.182V469.863H198.989V469.636C197.634 469.238 196.612 468.571 195.92 467.633C195.22 466.696 194.869 465.616 194.869 464.395C194.869 464.092 194.888 463.765 194.926 463.414C194.964 463.064 195.016 462.756 195.082 462.491H200.452C200.366 462.775 200.291 463.168 200.224 463.67C200.158 464.172 200.125 464.631 200.125 465.048C200.125 465.938 200.319 466.734 200.707 467.434C201.086 468.126 201.616 468.675 202.298 469.082C202.98 469.48 203.766 469.679 204.656 469.679H217V475.73ZM201.403 441.209L201.744 446.749C201.271 446.844 200.845 447.047 200.466 447.36C200.078 447.672 199.77 448.084 199.543 448.596C199.306 449.097 199.188 449.699 199.188 450.4C199.188 451.337 199.386 452.128 199.784 452.772C200.172 453.416 200.693 453.738 201.347 453.738C201.867 453.738 202.308 453.529 202.668 453.113C203.027 452.696 203.316 451.981 203.534 450.968L204.33 447.019C204.765 444.898 205.466 443.316 206.432 442.275C207.398 441.233 208.667 440.712 210.239 440.712C211.669 440.712 212.923 441.133 214.003 441.976C215.082 442.81 215.925 443.955 216.531 445.414C217.128 446.863 217.426 448.534 217.426 450.428C217.426 453.316 216.825 455.617 215.622 457.331C214.41 459.036 212.762 460.035 210.679 460.328L210.366 454.377C211.247 454.197 211.92 453.761 212.384 453.07C212.838 452.379 213.065 451.493 213.065 450.414C213.065 449.353 212.862 448.501 212.455 447.857C212.038 447.203 211.503 446.872 210.849 446.863C210.3 446.872 209.85 447.104 209.5 447.559C209.14 448.013 208.866 448.714 208.676 449.661L207.923 453.439C207.497 455.57 206.759 457.156 205.707 458.198C204.656 459.23 203.316 459.746 201.688 459.746C200.286 459.746 199.079 459.367 198.065 458.61C197.052 457.843 196.271 456.768 195.722 455.385C195.172 453.993 194.898 452.364 194.898 450.499C194.898 447.743 195.48 445.575 196.645 443.993C197.81 442.402 199.396 441.474 201.403 441.209Z" fill="white"/>
<path d="M207.442 136.909V166H203.919V140.602H203.749L196.646 145.318V141.739L203.919 136.909H207.442Z" fill="white"/>
<path d="M327.442 727.909V757H323.919V731.602H323.749L316.646 736.318V732.739L323.919 727.909H327.442Z" fill="white"/>
<path d="M312.998 160.034V157.136L325.782 136.909H327.884V141.398H326.463L316.804 156.682V156.909H334.02V160.034H312.998ZM326.691 166V159.153V157.804V136.909H330.043V166H326.691Z" fill="white"/>
<path d="M312.998 631.034V628.136L325.782 607.909H327.884V612.398H326.463L316.804 627.682V627.909H334.02V631.034H312.998ZM326.691 637V630.153V628.804V607.909H330.043V637H326.691Z" fill="white"/>
<path d="M434.402 166V163.443L444.004 152.932C445.131 151.701 446.059 150.631 446.788 149.722C447.518 148.803 448.057 147.941 448.408 147.136C448.768 146.322 448.947 145.47 448.947 144.58C448.947 143.557 448.701 142.671 448.209 141.923C447.726 141.175 447.063 140.598 446.22 140.19C445.377 139.783 444.43 139.58 443.379 139.58C442.262 139.58 441.286 139.812 440.453 140.276C439.629 140.73 438.99 141.369 438.536 142.193C438.09 143.017 437.868 143.983 437.868 145.091H434.516C434.516 143.386 434.909 141.89 435.695 140.602C436.481 139.314 437.551 138.311 438.905 137.591C440.268 136.871 441.798 136.511 443.493 136.511C445.197 136.511 446.708 136.871 448.024 137.591C449.34 138.311 450.373 139.281 451.121 140.503C451.869 141.724 452.243 143.083 452.243 144.58C452.243 145.65 452.049 146.696 451.661 147.719C451.282 148.732 450.619 149.864 449.672 151.114C448.734 152.354 447.432 153.869 445.766 155.659L439.232 162.648V162.875H452.754V166H434.402Z" fill="white"/>
<path d="M314.402 517V514.443L324.004 503.932C325.131 502.701 326.059 501.631 326.788 500.722C327.518 499.803 328.057 498.941 328.408 498.136C328.768 497.322 328.947 496.47 328.947 495.58C328.947 494.557 328.701 493.671 328.209 492.923C327.726 492.175 327.063 491.598 326.22 491.19C325.377 490.783 324.43 490.58 323.379 490.58C322.262 490.58 321.286 490.812 320.453 491.276C319.629 491.73 318.99 492.369 318.536 493.193C318.09 494.017 317.868 494.983 317.868 496.091H314.516C314.516 494.386 314.909 492.89 315.695 491.602C316.481 490.314 317.551 489.311 318.905 488.591C320.268 487.871 321.798 487.511 323.493 487.511C325.197 487.511 326.708 487.871 328.024 488.591C329.34 489.311 330.373 490.281 331.121 491.503C331.869 492.724 332.243 494.083 332.243 495.58C332.243 496.65 332.049 497.696 331.661 498.719C331.282 499.732 330.619 500.864 329.672 502.114C328.734 503.354 327.432 504.869 325.766 506.659L319.232 513.648V513.875H332.754V517H314.402Z" fill="white"/>
<path d="M563.505 166.398C561.555 166.398 559.831 166.052 558.335 165.361C556.848 164.66 555.688 163.699 554.855 162.477C554.021 161.246 553.609 159.845 553.619 158.273C553.609 157.042 553.851 155.905 554.343 154.864C554.836 153.812 555.508 152.937 556.36 152.236C557.222 151.526 558.183 151.076 559.244 150.886V150.716C557.852 150.356 556.744 149.575 555.92 148.372C555.096 147.16 554.689 145.782 554.699 144.239C554.689 142.761 555.063 141.44 555.821 140.276C556.578 139.111 557.62 138.192 558.946 137.52C560.281 136.848 561.801 136.511 563.505 136.511C565.191 136.511 566.697 136.848 568.022 137.52C569.348 138.192 570.39 139.111 571.147 140.276C571.914 141.44 572.303 142.761 572.312 144.239C572.303 145.782 571.881 147.16 571.048 148.372C570.224 149.575 569.13 150.356 567.767 150.716V150.886C568.818 151.076 569.765 151.526 570.608 152.236C571.45 152.937 572.123 153.812 572.625 154.864C573.127 155.905 573.382 157.042 573.392 158.273C573.382 159.845 572.956 161.246 572.113 162.477C571.28 163.699 570.12 164.66 568.633 165.361C567.156 166.052 565.447 166.398 563.505 166.398ZM563.505 163.273C564.822 163.273 565.958 163.06 566.914 162.634C567.871 162.207 568.609 161.606 569.13 160.83C569.651 160.053 569.916 159.144 569.926 158.102C569.916 157.004 569.632 156.033 569.074 155.19C568.515 154.348 567.752 153.685 566.787 153.202C565.83 152.719 564.736 152.477 563.505 152.477C562.265 152.477 561.157 152.719 560.181 153.202C559.216 153.685 558.453 154.348 557.895 155.19C557.345 156.033 557.075 157.004 557.085 158.102C557.075 159.144 557.326 160.053 557.838 160.83C558.359 161.606 559.102 162.207 560.068 162.634C561.034 163.06 562.18 163.273 563.505 163.273ZM563.505 149.466C564.547 149.466 565.47 149.258 566.275 148.841C567.09 148.424 567.729 147.842 568.193 147.094C568.657 146.346 568.894 145.47 568.903 144.466C568.894 143.481 568.662 142.624 568.207 141.895C567.752 141.156 567.123 140.588 566.318 140.19C565.513 139.783 564.575 139.58 563.505 139.58C562.416 139.58 561.465 139.783 560.65 140.19C559.836 140.588 559.206 141.156 558.761 141.895C558.316 142.624 558.098 143.481 558.108 144.466C558.098 145.47 558.321 146.346 558.775 147.094C559.239 147.842 559.878 148.424 560.693 148.841C561.507 149.258 562.445 149.466 563.505 149.466Z" fill="white"/>
<path d="M323.505 399.398C321.555 399.398 319.831 399.052 318.335 398.361C316.848 397.66 315.688 396.699 314.855 395.477C314.021 394.246 313.609 392.845 313.619 391.273C313.609 390.042 313.851 388.905 314.343 387.864C314.836 386.812 315.508 385.937 316.36 385.236C317.222 384.526 318.183 384.076 319.244 383.886V383.716C317.852 383.356 316.744 382.575 315.92 381.372C315.096 380.16 314.689 378.782 314.699 377.239C314.689 375.761 315.063 374.44 315.821 373.276C316.578 372.111 317.62 371.192 318.946 370.52C320.281 369.848 321.801 369.511 323.505 369.511C325.191 369.511 326.697 369.848 328.022 370.52C329.348 371.192 330.39 372.111 331.147 373.276C331.914 374.44 332.303 375.761 332.312 377.239C332.303 378.782 331.881 380.16 331.048 381.372C330.224 382.575 329.13 383.356 327.767 383.716V383.886C328.818 384.076 329.765 384.526 330.608 385.236C331.45 385.937 332.123 386.812 332.625 387.864C333.127 388.905 333.382 390.042 333.392 391.273C333.382 392.845 332.956 394.246 332.113 395.477C331.28 396.699 330.12 397.66 328.633 398.361C327.156 399.052 325.447 399.398 323.505 399.398ZM323.505 396.273C324.822 396.273 325.958 396.06 326.914 395.634C327.871 395.207 328.609 394.606 329.13 393.83C329.651 393.053 329.916 392.144 329.926 391.102C329.916 390.004 329.632 389.033 329.074 388.19C328.515 387.348 327.752 386.685 326.787 386.202C325.83 385.719 324.736 385.477 323.505 385.477C322.265 385.477 321.157 385.719 320.181 386.202C319.216 386.685 318.453 387.348 317.895 388.19C317.345 389.033 317.075 390.004 317.085 391.102C317.075 392.144 317.326 393.053 317.838 393.83C318.359 394.606 319.102 395.207 320.068 395.634C321.034 396.06 322.18 396.273 323.505 396.273ZM323.505 382.466C324.547 382.466 325.47 382.258 326.275 381.841C327.09 381.424 327.729 380.842 328.193 380.094C328.657 379.346 328.894 378.47 328.903 377.466C328.894 376.481 328.662 375.624 328.207 374.895C327.752 374.156 327.123 373.588 326.318 373.19C325.513 372.783 324.575 372.58 323.505 372.58C322.416 372.58 321.465 372.783 320.65 373.19C319.836 373.588 319.206 374.156 318.761 374.895C318.316 375.624 318.098 376.481 318.108 377.466C318.098 378.47 318.321 379.346 318.775 380.094C319.239 380.842 319.878 381.424 320.693 381.841C321.507 382.258 322.445 382.466 323.505 382.466Z" fill="white"/>
</svg>
