<svg xmlns="http://www.w3.org/2000/svg" width="1211" height="991" fill="none" viewBox="0 0 1211 991"><path fill="#fff" d="M561.061 72.94a1.5 1.5 0 0 0-2.122 0l-9.546 9.545a1.501 1.501 0 0 0 2.122 2.122L560 76.12l8.485 8.486a1.5 1.5 0 0 0 2.122-2.122zM560 74h-1.5v156h3V74zM908.061 435.939a1.5 1.5 0 0 0-2.122 0l-9.546 9.546a1.5 1.5 0 0 0 0 2.122 1.5 1.5 0 0 0 2.122 0l8.485-8.486 8.485 8.486a1.5 1.5 0 0 0 2.122 0 1.5 1.5 0 0 0 0-2.122zM907 437h-1.5v156h3V437zM327.061 791.939a1.5 1.5 0 0 0-2.122 0l-9.546 9.546a1.5 1.5 0 0 0 0 2.122 1.5 1.5 0 0 0 2.122 0l8.485-8.486 8.485 8.486a1.5 1.5 0 0 0 2.122 0 1.5 1.5 0 0 0 0-2.122zM326 793h-1.5v156h3V793z"/><g filter="url(#a)"><circle cx="326" cy="197" r="197" fill="#18181b"/></g><circle cx="326" cy="197" r="195" stroke="#717171" stroke-width="4"/><path stroke="#717171" stroke-width="4" d="M326 33a164 164 0 0 1 152.088 102.638M483.039 149.726a164 164 0 0 1 6.948 49.378"/><path fill="#fff" d="M289.77 212.007v-4.854l21.414-33.88h3.521v7.518h-2.379l-16.179 25.601v.381h28.836v5.234zM312.706 222v-48.727h5.615V222zm22.716 0 21.794-43.112v-.381h-25.125v-5.234h31.216v5.52L341.608 222z"/><g filter="url(#b)"><circle cx="706" cy="496" r="161" fill="#18181b"/></g><circle cx="706" cy="496" r="159" stroke="#717171" stroke-width="4"/><g filter="url(#c)"><circle cx="479" cy="871" r="120" fill="#18181b"/></g><circle cx="479" cy="871" r="118" stroke="#717171" stroke-width="4"/><g filter="url(#d)"><circle cx="305.5" cy="556.5" r="35.5" fill="#18181b"/></g><circle cx="305.5" cy="556.5" r="33.5" stroke="#717171" stroke-width="4"/><g filter="url(#e)"><circle cx="767" cy="759" r="25" fill="#18181b"/></g><circle cx="767" cy="759" r="23" stroke="#717171" stroke-width="4"/><path stroke="#717171" stroke-width="4" d="M706 362a134 134 0 0 1 124.267 83.863M479 772a99 99 0 0 1 91.809 61.959M305.5 529a27.5 27.5 0 0 1 25.503 17.211M834.312 457.374a134 134 0 0 1 5.677 40.345M573.798 842.463a99 99 0 0 1 4.194 29.807M331.833 548.573a27.5 27.5 0 0 1 1.165 8.28"/><path fill="#fff" d="M691.496 515.497q-3.515 0-6.267-1.207-2.735-1.208-4.35-3.356-1.599-2.166-1.741-5.025h4.475q.142 1.758 1.207 3.036 1.066 1.262 2.788 1.953 1.723.693 3.817.693 2.344 0 4.155-.817 1.812-.816 2.841-2.273 1.03-1.456 1.03-3.373 0-2.007-.994-3.534-.995-1.544-2.912-2.414-1.918-.87-4.688-.87h-2.912v-3.907h2.912q2.166 0 3.8-.781 1.651-.782 2.575-2.202.94-1.42.941-3.338 0-1.846-.817-3.213-.817-1.368-2.308-2.131-1.474-.764-3.481-.764a9.2 9.2 0 0 0-3.551.693q-1.651.675-2.699 1.971-1.047 1.278-1.136 3.089h-4.261q.106-2.859 1.722-5.007 1.616-2.166 4.226-3.373 2.628-1.208 5.77-1.208 3.375 0 5.789 1.367 2.415 1.35 3.711 3.569a9.35 9.35 0 0 1 1.296 4.794q0 3.072-1.616 5.238-1.597 2.167-4.35 3.001v.284q3.445.568 5.38 2.93 1.935 2.344 1.935 5.806 0 2.965-1.615 5.327-1.599 2.343-4.368 3.693-2.77 1.349-6.304 1.349m19.549-.497v-3.196l12.003-13.139q2.113-2.309 3.48-4.013 1.368-1.722 2.025-3.232a7.8 7.8 0 0 0 .674-3.196q0-1.917-.923-3.32-.905-1.403-2.486-2.166-1.58-.764-3.551-.764-2.095 0-3.658.87a6 6 0 0 0-2.397 2.397q-.834 1.545-.834 3.623h-4.19q0-3.196 1.473-5.611a10.24 10.24 0 0 1 4.013-3.764q2.557-1.35 5.735-1.35 3.197 0 5.664 1.35 2.469 1.349 3.871 3.64 1.403 2.29 1.403 5.095 0 2.007-.728 3.924-.71 1.9-2.486 4.244-1.758 2.326-4.883 5.682l-8.168 8.736v.284h16.904V515zM455.385 888v-3.004l11.282-12.351q1.986-2.17 3.272-3.772 1.285-1.619 1.902-3.038a7.35 7.35 0 0 0 .634-3.004q0-1.803-.867-3.121-.852-1.319-2.337-2.036t-3.338-.718q-1.97 0-3.438.818a5.64 5.64 0 0 0-2.254 2.253q-.784 1.452-.784 3.405h-3.939q0-3.005 1.385-5.274a9.63 9.63 0 0 1 3.772-3.539q2.404-1.268 5.391-1.268 3.004 0 5.325 1.268 2.32 1.268 3.638 3.422t1.319 4.79q0 1.886-.685 3.689-.668 1.785-2.336 3.989-1.653 2.185-4.59 5.34l-7.678 8.212v.267h15.889V888zm29.525 0 15.288-30.243v-.267h-17.625v-3.672h21.898v3.872L489.249 888zM18.03 803.364v3.338H4.745v-3.338zm-9.413-6.142h3.939v24.434q0 1.669.484 2.504.5.817 1.268 1.101a5.1 5.1 0 0 0 1.652.267q.65 0 1.069-.066l.667-.134.801 3.538q-.4.151-1.118.301-.718.167-1.819.167a7.9 7.9 0 0 1-3.271-.718 6.5 6.5 0 0 1-2.637-2.186q-1.035-1.469-1.035-3.706zm19.828 16.356V829h-3.939v-34.182h3.939v12.551h.334a7.25 7.25 0 0 1 2.704-3.154q1.818-1.185 4.84-1.185 2.62 0 4.59 1.051 1.969 1.035 3.054 3.188 1.102 2.136 1.102 5.441V829h-3.94v-16.023q0-3.054-1.585-4.723-1.569-1.686-4.356-1.686-1.935 0-3.472.818-1.519.818-2.403 2.387-.868 1.569-.868 3.805M52.275 829v-25.636h3.939V829zm2.002-29.909q-1.151 0-1.986-.785-.818-.784-.818-1.886t.818-1.886a2.8 2.8 0 0 1 1.986-.784q1.152 0 1.97.784.834.785.834 1.886 0 1.102-.834 1.886a2.74 2.74 0 0 1-1.97.785M63.427 829v-25.636h3.806v3.872h.267q.702-1.903 2.537-3.088 1.836-1.185 4.14-1.185.433 0 1.084.017t.985.05v4.006q-.2-.05-.918-.151a9 9 0 0 0-1.485-.117q-1.87 0-3.338.785a5.9 5.9 0 0 0-2.304 2.136q-.834 1.353-.834 3.088V829zm26.388.534q-3.204 0-5.658-1.619-2.453-1.635-3.838-4.606-1.386-2.988-1.386-7.06 0-4.04 1.385-7.01 1.386-2.971 3.856-4.59 2.47-1.62 5.708-1.619 2.505 0 3.956.834 1.468.819 2.236 1.87.785 1.035 1.219 1.702h.333v-12.618h3.939V829H97.76v-3.939h-.467q-.434.7-1.236 1.769-.801 1.052-2.286 1.886-1.485.818-3.956.818m.534-3.538q2.37 0 4.006-1.235 1.636-1.252 2.487-3.455.85-2.22.851-5.124 0-2.871-.834-5.024-.835-2.17-2.47-3.371-1.636-1.22-4.04-1.219-2.504 0-4.172 1.285-1.652 1.27-2.487 3.455-.818 2.17-.818 4.874 0 2.737.835 4.974.851 2.219 2.503 3.538 1.67 1.302 4.14 1.302M123.08 829v-34.182h3.939v12.618h.334q.434-.667 1.202-1.702.784-1.051 2.236-1.87 1.469-.834 3.972-.834 3.239 0 5.708 1.619t3.856 4.59q1.385 2.97 1.385 7.01 0 4.072-1.385 7.06-1.386 2.97-3.839 4.606-2.452 1.619-5.658 1.619-2.47 0-3.955-.818-1.486-.834-2.287-1.886a25 25 0 0 1-1.235-1.769h-.467V829zm3.872-12.818q0 2.904.852 5.124.85 2.203 2.486 3.455 1.636 1.235 4.006 1.235 2.47 0 4.123-1.302 1.668-1.319 2.503-3.538.851-2.236.851-4.974 0-2.704-.834-4.874-.817-2.186-2.487-3.455-1.653-1.285-4.156-1.285-2.404 0-4.039 1.219-1.636 1.202-2.47 3.371-.835 2.153-.835 5.024M151.736 829v-25.636h3.939V829zm2.003-29.909q-1.151 0-1.986-.785-.818-.784-.818-1.886t.818-1.886a2.8 2.8 0 0 1 1.986-.784q1.152 0 1.97.784.834.785.834 1.886 0 1.102-.834 1.886a2.74 2.74 0 0 1-1.97.785m19.499 40.057q-2.855 0-4.907-.735-2.053-.717-3.422-1.902-1.352-1.169-2.153-2.504l3.138-2.203q.534.7 1.352 1.602.818.918 2.236 1.586 1.436.684 3.756.684 3.103 0 5.124-1.502 2.019-1.501 2.019-4.707v-5.207h-.334a21 21 0 0 1-1.235 1.736q-.784 1.017-2.27 1.819-1.469.784-3.972.784-3.104 0-5.574-1.468-2.454-1.469-3.889-4.273-1.419-2.804-1.419-6.81 0-3.939 1.385-6.859 1.386-2.938 3.856-4.54 2.47-1.62 5.708-1.619 2.503 0 3.972.834 1.486.819 2.27 1.87.801 1.035 1.235 1.702h.401v-4.072h3.805v26.37q0 3.305-1.502 5.375-1.485 2.087-4.006 3.054-2.504.984-5.574.985m-.134-14.087q2.37 0 4.006-1.085 1.635-1.084 2.487-3.121.85-2.036.851-4.873 0-2.772-.834-4.891-.835-2.12-2.471-3.321-1.635-1.202-4.039-1.202-2.504 0-4.172 1.269-1.653 1.268-2.487 3.404-.818 2.137-.818 4.741 0 2.67.835 4.723.851 2.036 2.503 3.204 1.669 1.152 4.139 1.152m28.774 14.087q-2.853 0-4.907-.735-2.053-.717-3.421-1.902-1.352-1.169-2.153-2.504l3.138-2.203a25 25 0 0 0 1.352 1.602q.817.918 2.236 1.586 1.436.684 3.755.684 3.105 0 5.124-1.502 2.02-1.501 2.02-4.707v-5.207h-.334a21 21 0 0 1-1.235 1.736q-.785 1.017-2.27 1.819-1.469.784-3.972.784-3.105 0-5.575-1.468-2.453-1.469-3.889-4.273-1.418-2.804-1.418-6.81 0-3.939 1.385-6.859 1.386-2.938 3.855-4.54 2.47-1.62 5.709-1.619 2.504 0 3.972.834 1.485.819 2.27 1.87.801 1.035 1.235 1.702h.4v-4.072h3.806v26.37q0 3.305-1.502 5.375-1.486 2.087-4.006 3.054-2.503.984-5.575.985m-.133-14.087q2.37 0 4.006-1.085 1.635-1.084 2.486-3.121t.852-4.873q0-2.772-.835-4.891t-2.47-3.321q-1.636-1.202-4.039-1.202-2.504 0-4.173 1.269-1.652 1.268-2.487 3.404-.817 2.137-.817 4.741 0 2.67.834 4.723.851 2.036 2.504 3.204 1.668 1.152 4.139 1.152m29.175 4.473q-3.706 0-6.393-1.636-2.67-1.652-4.122-4.606-1.436-2.971-1.436-6.91t1.436-6.943q1.452-3.021 4.039-4.707 2.604-1.702 6.075-1.702 2.003 0 3.956.667 1.953.669 3.555 2.17 1.602 1.485 2.553 3.939.952 2.454.952 6.042v1.669h-19.762v-3.405h15.756q0-2.17-.868-3.872a6.53 6.53 0 0 0-2.437-2.687q-1.569-.985-3.705-.985-2.353 0-4.072 1.169a7.7 7.7 0 0 0-2.621 3.004 8.8 8.8 0 0 0-.918 3.972v2.27q0 2.904 1.002 4.924 1.018 2.002 2.82 3.054 1.803 1.035 4.19 1.035 1.551 0 2.804-.434a6 6 0 0 0 2.186-1.335q.918-.902 1.419-2.237l3.805 1.068a8.44 8.44 0 0 1-2.019 3.405q-1.42 1.452-3.505 2.27-2.087.801-4.69.801m34.766-20.429-3.539 1.002a6.6 6.6 0 0 0-.984-1.72q-.635-.85-1.736-1.402-1.102-.55-2.821-.55-2.353 0-3.922 1.085-1.552 1.068-1.552 2.72 0 1.469 1.068 2.32t3.338 1.419l3.805.934q3.438.835 5.124 2.554 1.686 1.702 1.686 4.39 0 2.202-1.269 3.938-1.25 1.737-3.505 2.738-2.253 1-5.24 1.001-3.922 0-6.493-1.702-2.57-1.702-3.254-4.974l3.738-.935q.534 2.07 2.02 3.105 1.502 1.035 3.922 1.034 2.754 0 4.373-1.168 1.635-1.185 1.635-2.837 0-1.335-.934-2.237-.935-.918-2.871-1.368l-4.273-1.002q-3.52-.834-5.174-2.587-1.635-1.768-1.635-4.423 0-2.17 1.218-3.838 1.235-1.67 3.355-2.621 2.136-.951 4.84-.951 3.806 0 5.975 1.669 2.187 1.669 3.105 4.406m17.545-5.741v3.338h-13.285v-3.338zm-9.413-6.142h3.939v24.434q0 1.669.484 2.504.501.817 1.268 1.101a5.1 5.1 0 0 0 1.653.267q.651 0 1.068-.066l.668-.134.801 3.538q-.4.151-1.119.301-.717.167-1.819.167a7.9 7.9 0 0 1-3.271-.718 6.5 6.5 0 0 1-2.637-2.186q-1.035-1.469-1.035-3.706zm21.213 27.105-.267 1.802a36 36 0 0 1-.868 4.073 77 77 0 0 1-1.185 4.089 118 118 0 0 1-1.018 3.054h-3.004q.217-1.068.568-2.82.35-1.753.701-3.923.367-2.153.6-4.406l.201-1.869zM44.317 866.105l-3.538 1.002a6.6 6.6 0 0 0-.985-1.72q-.633-.85-1.735-1.402-1.102-.55-2.821-.55-2.353 0-3.922 1.085-1.552 1.068-1.552 2.72 0 1.469 1.068 2.32t3.338 1.419l3.805.934q3.438.835 5.124 2.554 1.686 1.702 1.686 4.39 0 2.202-1.269 3.938-1.25 1.737-3.505 2.738-2.253 1-5.24 1.001-3.923 0-6.493-1.702t-3.255-4.974l3.739-.935q.535 2.07 2.02 3.105 1.501 1.035 3.922 1.034 2.754 0 4.373-1.168 1.635-1.185 1.635-2.837 0-1.335-.934-2.237-.934-.918-2.871-1.368l-4.273-1.002q-3.522-.834-5.174-2.587-1.636-1.768-1.636-4.423 0-2.17 1.219-3.838 1.235-1.67 3.355-2.621 2.136-.951 4.84-.951 3.806 0 5.975 1.669 2.187 1.669 3.104 4.406m16.812 20.429q-3.472 0-6.092-1.652-2.604-1.653-4.073-4.623-1.452-2.971-1.452-6.944 0-4.005 1.452-6.993 1.47-2.988 4.073-4.64 2.62-1.652 6.092-1.652t6.075 1.652q2.62 1.652 4.073 4.64 1.468 2.988 1.468 6.993 0 3.973-1.469 6.944-1.452 2.97-4.072 4.623-2.603 1.652-6.075 1.652m0-3.538q2.636 0 4.34-1.352 1.701-1.351 2.52-3.555.817-2.203.817-4.774 0-2.57-.817-4.79-.819-2.22-2.52-3.588-1.703-1.37-4.34-1.369-2.637 0-4.34 1.369t-2.52 3.588q-.818 2.22-.818 4.79t.818 4.774 2.52 3.555 4.34 1.352M91.977 886v-25.636h3.805v3.872h.267q.7-1.903 2.537-3.088t4.139-1.185q.435 0 1.085.017t.985.05v4.006q-.201-.05-.918-.151a9 9 0 0 0-1.486-.117q-1.868 0-3.338.785a5.9 5.9 0 0 0-2.303 2.136q-.834 1.353-.834 3.088V886zm17.487 0v-25.636h3.939V886zm2.003-29.909a2.8 2.8 0 0 1-1.986-.785q-.819-.784-.818-1.886 0-1.101.818-1.886a2.8 2.8 0 0 1 1.986-.784 2.74 2.74 0 0 1 1.969.784q.835.785.835 1.886 0 1.102-.835 1.886a2.74 2.74 0 0 1-1.969.785m27.309 10.014-3.538 1.002a6.6 6.6 0 0 0-.985-1.72q-.633-.85-1.735-1.402-1.102-.55-2.821-.55-2.353 0-3.922 1.085-1.553 1.068-1.553 2.72 0 1.469 1.069 2.32 1.067.85 3.338 1.419l3.805.934q3.438.835 5.124 2.554 1.686 1.702 1.686 4.39 0 2.202-1.269 3.938-1.252 1.737-3.505 2.738t-5.24 1.001q-3.922 0-6.493-1.702-2.57-1.702-3.255-4.974l3.739-.935q.534 2.07 2.02 3.105 1.501 1.035 3.922 1.034 2.754 0 4.373-1.168 1.635-1.185 1.635-2.837 0-1.335-.934-2.237-.934-.918-2.871-1.368l-4.273-1.002q-3.522-.834-5.174-2.587-1.635-1.768-1.635-4.423 0-2.17 1.218-3.838 1.235-1.67 3.355-2.621 2.136-.951 4.84-.951 3.806 0 5.975 1.669 2.186 1.669 3.104 4.406m17.146 20.429q-3.706 0-6.393-1.636-2.67-1.652-4.122-4.606-1.436-2.971-1.436-6.91t1.436-6.943q1.452-3.021 4.039-4.707 2.604-1.702 6.075-1.702 2.003 0 3.956.667 1.951.669 3.555 2.17 1.602 1.485 2.553 3.939.952 2.454.952 6.042v1.669h-19.762v-3.405h15.756q0-2.17-.868-3.872a6.53 6.53 0 0 0-2.437-2.687q-1.569-.985-3.705-.985-2.353 0-4.072 1.169a7.7 7.7 0 0 0-2.621 3.004 8.8 8.8 0 0 0-.918 3.972v2.27q0 2.904 1.002 4.924 1.018 2.002 2.82 3.054 1.803 1.035 4.19 1.035 1.551 0 2.804-.434a6 6 0 0 0 2.186-1.335q.918-.902 1.419-2.237l3.805 1.068a8.45 8.45 0 0 1-2.019 3.405q-1.42 1.452-3.505 2.27-2.087.801-4.69.801m34.766-20.429-3.539 1.002a6.6 6.6 0 0 0-.985-1.72q-.633-.85-1.735-1.402-1.102-.55-2.821-.55-2.353 0-3.922 1.085-1.552 1.068-1.552 2.72 0 1.469 1.068 2.32t3.338 1.419l3.805.934q3.438.835 5.124 2.554 1.686 1.702 1.686 4.39 0 2.202-1.269 3.938-1.25 1.737-3.505 2.738-2.253 1-5.24 1.001-3.922 0-6.493-1.702-2.57-1.702-3.254-4.974l3.738-.935q.534 2.07 2.02 3.105 1.502 1.035 3.922 1.034 2.754 0 4.373-1.168 1.635-1.185 1.635-2.837 0-1.335-.934-2.237-.934-.918-2.871-1.368l-4.273-1.002q-3.52-.834-5.174-2.587-1.635-1.768-1.635-4.423 0-2.17 1.218-3.838 1.235-1.67 3.355-2.621 2.136-.951 4.84-.951 3.806 0 5.975 1.669 2.187 1.669 3.105 4.406m30.764-5.741v3.338h-13.285v-3.338zm-9.413-6.142h3.939v24.434q0 1.669.484 2.504.5.817 1.268 1.101a5.1 5.1 0 0 0 1.652.267q.65 0 1.069-.066l.667-.134.801 3.538a8 8 0 0 1-1.118.301q-.718.167-1.819.167a7.9 7.9 0 0 1-3.271-.718 6.5 6.5 0 0 1-2.638-2.186q-1.034-1.469-1.034-3.706zm19.828 16.356V886h-3.939v-34.182h3.939v12.551h.334a7.24 7.24 0 0 1 2.703-3.154q1.82-1.185 4.841-1.185 2.62 0 4.589 1.051 1.97 1.035 3.055 3.188 1.101 2.136 1.101 5.441V886h-3.939v-16.023q0-3.054-1.585-4.723-1.569-1.686-4.356-1.686-1.936 0-3.472.818-1.519.818-2.403 2.387-.868 1.569-.868 3.805m34.578 15.956q-3.705 0-6.392-1.636-2.671-1.652-4.123-4.606-1.435-2.971-1.435-6.91t1.435-6.943q1.452-3.021 4.039-4.707 2.604-1.702 6.075-1.702 2.004 0 3.956.667 1.953.669 3.555 2.17 1.602 1.485 2.554 3.939t.951 6.042v1.669h-19.761v-3.405h15.755q0-2.17-.868-3.872a6.53 6.53 0 0 0-2.436-2.687q-1.569-.985-3.706-.985-2.352 0-4.072 1.169a7.7 7.7 0 0 0-2.62 3.004 8.8 8.8 0 0 0-.918 3.972v2.27q0 2.904 1.001 4.924 1.018 2.002 2.821 3.054 1.802 1.035 4.189 1.035 1.552 0 2.804-.434a6 6 0 0 0 2.186-1.335q.918-.902 1.419-2.237l3.805 1.068a8.4 8.4 0 0 1-2.019 3.405q-1.419 1.452-3.505 2.27-2.086.801-4.69.801M88.173 923.105l-3.538 1.002a6.6 6.6 0 0 0-.985-1.72q-.633-.85-1.736-1.402-1.101-.55-2.82-.55-2.354 0-3.922 1.085-1.553 1.068-1.553 2.72 0 1.469 1.069 2.32 1.067.85 3.338 1.419l3.805.934q3.438.835 5.124 2.554 1.686 1.702 1.686 4.39 0 2.202-1.269 3.938-1.252 1.737-3.505 2.738t-5.24 1.001q-3.923 0-6.493-1.702t-3.255-4.974l3.739-.935q.534 2.07 2.02 3.105 1.5 1.035 3.922 1.034 2.754 0 4.373-1.168 1.635-1.185 1.635-2.837 0-1.335-.934-2.237-.935-.918-2.871-1.368l-4.273-1.002q-3.522-.834-5.174-2.587-1.636-1.768-1.636-4.423 0-2.17 1.219-3.838 1.235-1.67 3.355-2.621 2.136-.951 4.84-.951 3.806 0 5.975 1.669 2.186 1.669 3.104 4.406m10.336-14.287V943H94.57v-34.182zm17.629 34.716q-3.471 0-6.092-1.652-2.604-1.653-4.072-4.623-1.452-2.971-1.452-6.944 0-4.005 1.452-6.993 1.468-2.988 4.072-4.64 2.62-1.652 6.092-1.652t6.075 1.652q2.62 1.652 4.073 4.64 1.469 2.988 1.469 6.993 0 3.973-1.469 6.944-1.452 2.97-4.073 4.623-2.603 1.652-6.075 1.652m0-3.538q2.637 0 4.34-1.352 1.702-1.351 2.52-3.555.818-2.203.818-4.774 0-2.57-.818-4.79t-2.52-3.588q-1.703-1.37-4.34-1.369-2.637 0-4.339 1.369t-2.521 3.588q-.818 2.22-.818 4.79t.818 4.774 2.521 3.555 4.339 1.352M138.703 943l-7.811-25.636h4.14l5.541 19.627h.267l5.474-19.627h4.206l5.408 19.561h.267l5.541-19.561h4.139L158.064 943h-3.872l-5.608-19.695h-.4L142.576 943zm42.256.534q-3.705 0-6.392-1.636-2.671-1.652-4.123-4.606-1.435-2.971-1.435-6.91t1.435-6.943q1.452-3.021 4.039-4.707 2.604-1.702 6.076-1.702 2.002 0 3.955.667 1.953.669 3.555 2.17 1.602 1.485 2.554 3.939t.951 6.042v1.669h-19.761v-3.405h15.756q0-2.17-.868-3.872a6.54 6.54 0 0 0-2.437-2.687q-1.569-.985-3.705-.985-2.354 0-4.073 1.169a7.7 7.7 0 0 0-2.62 3.004 8.8 8.8 0 0 0-.918 3.972v2.27q0 2.904 1.001 4.924 1.018 2.002 2.821 3.054 1.803 1.035 4.189 1.035 1.553 0 2.804-.434a6 6 0 0 0 2.187-1.335q.917-.902 1.418-2.237l3.806 1.068a8.44 8.44 0 0 1-2.02 3.405q-1.419 1.452-3.505 2.27-2.086.801-4.69.801m34.766-20.429-3.538 1.002a6.6 6.6 0 0 0-.985-1.72q-.634-.85-1.736-1.402-1.101-.55-2.82-.55-2.354 0-3.923 1.085-1.552 1.068-1.552 2.72 0 1.469 1.068 2.32t3.338 1.419l3.806.934q3.438.835 5.124 2.554 1.685 1.702 1.685 4.39 0 2.202-1.268 3.938-1.252 1.737-3.505 2.738t-5.241 1.001q-3.923 0-6.492-1.702-2.571-1.702-3.255-4.974l3.739-.935q.534 2.07 2.019 3.105 1.502 1.035 3.923 1.034 2.753 0 4.372-1.168 1.636-1.185 1.636-2.837 0-1.335-.935-2.237-.935-.918-2.87-1.368l-4.273-1.002q-3.522-.834-5.174-2.587-1.636-1.768-1.636-4.423 0-2.17 1.219-3.838 1.234-1.67 3.354-2.621 2.137-.951 4.841-.951 3.805 0 5.975 1.669 2.186 1.669 3.104 4.406m17.546-5.741v3.338h-13.286v-3.338zm-9.413-6.142h3.938v24.434q0 1.669.484 2.504.501.817 1.269 1.101a5.1 5.1 0 0 0 1.652.267q.651 0 1.068-.066l.668-.134.801 3.538q-.4.151-1.118.301-.718.167-1.819.167a7.9 7.9 0 0 1-3.272-.718 6.5 6.5 0 0 1-2.637-2.186q-1.034-1.469-1.034-3.706zM1006.32 453.105l-3.54 1.002a6.4 6.4 0 0 0-.99-1.72c-.42-.567-1-1.034-1.73-1.402q-1.104-.55-2.822-.55-2.353 0-3.922 1.085-1.553 1.067-1.553 2.72 0 1.469 1.069 2.32 1.067.85 3.338 1.419l3.805.934q3.444.835 5.125 2.554 1.68 1.702 1.68 4.39 0 2.202-1.26 3.938t-3.51 2.738q-2.251 1-5.239 1.001-3.922 0-6.493-1.702-2.57-1.702-3.255-4.974l3.739-.935q.534 2.07 2.02 3.105 1.501 1.034 3.922 1.034 2.753 0 4.376-1.168c1.09-.79 1.63-1.736 1.63-2.837q0-1.335-.93-2.237c-.63-.612-1.58-1.068-2.873-1.368l-4.273-1.002q-3.521-.834-5.174-2.587-1.635-1.768-1.635-4.423 0-2.17 1.218-3.838 1.235-1.67 3.355-2.621 2.136-.951 4.84-.951c2.537 0 4.532.556 5.972 1.669 1.46 1.113 2.5 2.581 3.11 4.406m17.14 20.429q-3.705 0-6.39-1.636c-1.78-1.101-3.15-2.637-4.12-4.606q-1.44-2.971-1.44-6.91t1.44-6.943c.97-2.014 2.31-3.583 4.04-4.707 1.73-1.135 3.76-1.702 6.07-1.702q2.01 0 3.96.667c1.3.446 2.48 1.169 3.55 2.17 1.07.99 1.92 2.303 2.56 3.939.63 1.636.95 3.65.95 6.042v1.669h-19.76v-3.405h15.75q0-2.17-.87-3.872a6.5 6.5 0 0 0-2.43-2.687c-1.05-.657-2.28-.985-3.71-.985-1.57 0-2.92.39-4.07 1.169a7.6 7.6 0 0 0-2.62 3.004 8.85 8.85 0 0 0-.92 3.972v2.27c0 1.936.34 3.577 1 4.924q1.02 2.002 2.82 3.054c1.21.69 2.6 1.035 4.19 1.035 1.04 0 1.97-.145 2.81-.434a6 6 0 0 0 2.18-1.335 6.05 6.05 0 0 0 1.42-2.237l3.81 1.068a8.5 8.5 0 0 1-2.02 3.405q-1.425 1.452-3.51 2.27c-1.39.534-2.95.801-4.69.801m27.02 0c-2.4 0-4.47-.567-6.2-1.702-1.74-1.135-3.08-2.699-4.01-4.69s-1.4-4.267-1.4-6.827c0-2.603.48-4.901 1.43-6.893.97-2.003 2.32-3.566 4.04-4.69 1.74-1.135 3.76-1.702 6.08-1.702 1.8 0 3.42.334 4.87 1.001 1.45.668 2.63 1.603 3.56 2.804.92 1.202 1.49 2.604 1.72 4.206h-3.94q-.45-1.752-2.01-3.104-1.53-1.37-4.14-1.369c-1.53 0-2.88.401-4.03 1.202-1.15.79-2.05 1.908-2.69 3.355-.64 1.435-.95 3.121-.95 5.057q0 2.97.93 5.174.96 2.203 2.67 3.421c1.16.813 2.52 1.219 4.07 1.219q1.545 0 2.79-.534a5.7 5.7 0 0 0 2.12-1.536c.58-.667.99-1.469 1.24-2.403h3.94a9.2 9.2 0 0 1-1.66 4.089q-1.305 1.802-3.45 2.871c-1.43.701-3.08 1.051-4.98 1.051m26.26 0q-3.48 0-6.09-1.652-2.61-1.653-4.08-4.623c-.96-1.981-1.45-4.295-1.45-6.944 0-2.67.49-5.001 1.45-6.993q1.47-2.988 4.08-4.64t6.09-1.652c2.31 0 4.34.551 6.07 1.652q2.625 1.653 4.08 4.64c.98 1.992 1.46 4.323 1.46 6.993 0 2.649-.48 4.963-1.46 6.944q-1.455 2.97-4.08 4.623c-1.73 1.101-3.76 1.652-6.07 1.652m0-3.538c1.76 0 3.2-.451 4.34-1.352q1.695-1.351 2.52-3.555c.54-1.469.82-3.06.82-4.774s-.28-3.31-.82-4.79q-.825-2.22-2.52-3.588c-1.14-.913-2.58-1.369-4.34-1.369s-3.21.456-4.34 1.369q-1.71 1.368-2.52 3.588c-.55 1.48-.82 3.077-.82 4.79s.27 3.305.82 4.774q.81 2.204 2.52 3.555c1.13.901 2.58 1.352 4.34 1.352m21.57-12.418V473h-3.94v-25.636h3.8v4.005h.34a7.3 7.3 0 0 1 2.73-3.137q1.845-1.202 4.74-1.202 2.61 0 4.56 1.068c1.3.701 2.31 1.769 3.04 3.205q1.08 2.136 1.08 5.407V473h-3.94v-16.023c0-2.014-.52-3.583-1.57-4.706-1.04-1.135-2.48-1.703-4.3-1.703-1.26 0-2.38.273-3.37.818-.98.545-1.76 1.341-2.32 2.387-.57 1.046-.85 2.314-.85 3.805m33.23 15.956c-2.14 0-4.02-.54-5.66-1.619q-2.445-1.635-3.84-4.606-1.38-2.988-1.38-7.06 0-4.04 1.38-7.01c.93-1.981 2.21-3.511 3.86-4.59 1.65-1.08 3.55-1.619 5.71-1.619 1.67 0 2.99.278 3.95.834.98.546 1.73 1.169 2.24 1.87.52.69.93 1.257 1.22 1.702h.33v-12.618h3.94V473h-3.8v-3.939h-.47c-.29.467-.7 1.057-1.24 1.769q-.795 1.052-2.28 1.886-1.485.818-3.96.818m.53-3.538c1.58 0 2.92-.412 4.01-1.235q1.635-1.252 2.49-3.455c.56-1.48.85-3.188.85-5.124q0-2.871-.84-5.024c-.55-1.446-1.38-2.57-2.47-3.371-1.09-.813-2.43-1.219-4.04-1.219q-2.49 0-4.17 1.285c-1.1.846-1.93 1.998-2.48 3.455-.55 1.447-.82 3.071-.82 4.874 0 1.825.28 3.483.83 4.974.57 1.479 1.4 2.659 2.51 3.538 1.11.868 2.49 1.302 4.13 1.302M947.338 530v-34.182h3.939v12.618h.334q.434-.667 1.201-1.702.785-1.051 2.237-1.87 1.468-.834 3.972-.834 3.238 0 5.708 1.619t3.856 4.59 1.385 7.01q0 4.072-1.385 7.06-1.385 2.97-3.839 4.606-2.454 1.619-5.658 1.619-2.47 0-3.956-.818-1.485-.834-2.286-1.886a25 25 0 0 1-1.235-1.769h-.468V530zm3.872-12.818q0 2.904.851 5.124.852 2.203 2.487 3.455 1.636 1.235 4.006 1.235 2.47 0 4.122-1.302 1.67-1.319 2.504-3.538.85-2.236.851-4.974 0-2.704-.834-4.874-.819-2.186-2.487-3.455-1.653-1.285-4.156-1.285-2.404 0-4.039 1.219-1.636 1.202-2.47 3.371-.835 2.153-.835 5.024M975.995 530v-25.636h3.939V530zm2.003-29.909a2.8 2.8 0 0 1-1.986-.785q-.818-.784-.818-1.886t.818-1.886a2.8 2.8 0 0 1 1.986-.784q1.151 0 1.97.784.834.785.834 1.886 0 1.102-.834 1.886a2.75 2.75 0 0 1-1.97.785m19.499 40.057q-2.855 0-4.907-.735-2.053-.717-3.422-1.902-1.352-1.169-2.153-2.504l3.138-2.203q.534.7 1.352 1.602.817.918 2.236 1.586 1.436.684 3.756.684c2.069 0 3.773-.501 5.123-1.502s2.02-2.57 2.02-4.707v-5.207h-.33c-.29.467-.7 1.046-1.24 1.736-.52.678-1.28 1.285-2.27 1.819q-1.467.784-3.971.784-3.105 0-5.575-1.468-2.453-1.469-3.888-4.273-1.419-2.804-1.419-6.81 0-3.939 1.385-6.859 1.386-2.938 3.856-4.54 2.47-1.62 5.708-1.619 2.503 0 3.974.834c.99.546 1.74 1.169 2.27 1.87q.795 1.035 1.23 1.702h.4v-4.072h3.81v26.37q0 3.305-1.5 5.375c-.99 1.391-2.33 2.409-4.01 3.054q-2.504.984-5.573.985m-.134-14.087q2.371 0 4.007-1.085t2.49-3.121c.56-1.357.85-2.982.85-4.873q0-2.772-.84-4.891c-.55-1.413-1.38-2.52-2.47-3.321q-1.635-1.202-4.037-1.202-2.503 0-4.173 1.269-1.652 1.268-2.486 3.404-.819 2.137-.818 4.741 0 2.67.834 4.723.851 2.036 2.504 3.204 1.669 1.152 4.139 1.152m28.777 14.087c-1.91 0-3.54-.245-4.91-.735q-2.055-.717-3.42-1.902c-.9-.779-1.62-1.614-2.15-2.504l3.13-2.203c.36.467.81 1.001 1.36 1.602.54.612 1.29 1.141 2.23 1.586.96.456 2.21.684 3.76.684 2.07 0 3.77-.501 5.12-1.502s2.02-2.57 2.02-4.707v-5.207h-.33c-.29.467-.7 1.046-1.24 1.736-.52.678-1.28 1.285-2.27 1.819-.98.523-2.3.784-3.97.784-2.07 0-3.93-.489-5.57-1.468s-2.94-2.404-3.89-4.273-1.42-4.139-1.42-6.81q0-3.939 1.38-6.859c.93-1.959 2.21-3.472 3.86-4.54 1.65-1.08 3.55-1.619 5.71-1.619 1.67 0 2.99.278 3.97.834.99.546 1.75 1.169 2.27 1.87q.795 1.035 1.23 1.702h.4v-4.072h3.81v26.37q0 3.305-1.5 5.375c-.99 1.391-2.33 2.409-4.01 3.054-1.67.656-3.53.985-5.57.985m-.14-14.087c1.58 0 2.92-.362 4.01-1.085q1.635-1.084 2.49-3.121c.56-1.357.85-2.982.85-4.873q0-2.772-.84-4.891c-.55-1.413-1.38-2.52-2.47-3.321s-2.43-1.202-4.04-1.202q-2.505 0-4.17 1.269-1.65 1.268-2.49 3.404-.81 2.137-.81 4.741c0 1.78.27 3.354.83 4.723.57 1.357 1.4 2.426 2.5 3.204q1.68 1.152 4.14 1.152m29.18 4.473q-3.705 0-6.39-1.636c-1.78-1.101-3.16-2.637-4.13-4.606-.95-1.981-1.43-4.284-1.43-6.91s.48-4.94 1.43-6.943c.97-2.014 2.32-3.583 4.04-4.707 1.74-1.135 3.76-1.702 6.08-1.702 1.33 0 2.65.222 3.95.667 1.31.446 2.49 1.169 3.56 2.17q1.605 1.485 2.55 3.939c.64 1.636.95 3.65.95 6.042v1.669h-19.76v-3.405h15.76q0-2.17-.87-3.872a6.54 6.54 0 0 0-2.44-2.687c-1.04-.657-2.28-.985-3.7-.985-1.57 0-2.93.39-4.07 1.169a7.6 7.6 0 0 0-2.62 3.004c-.62 1.235-.92 2.559-.92 3.972v2.27c0 1.936.33 3.577 1 4.924q1.02 2.002 2.82 3.054c1.2.69 2.6 1.035 4.19 1.035 1.03 0 1.97-.145 2.8-.434a6 6 0 0 0 2.19-1.335c.61-.601 1.08-1.347 1.42-2.237l3.8 1.068a8.4 8.4 0 0 1-2.02 3.405c-.94.968-2.11 1.725-3.5 2.27-1.39.534-2.96.801-4.69.801m34.76-20.429-3.53 1.002a6.7 6.7 0 0 0-.99-1.72c-.42-.567-1-1.034-1.73-1.402-.74-.367-1.68-.55-2.83-.55-1.56 0-2.87.361-3.92 1.085-1.03.712-1.55 1.618-1.55 2.72 0 .979.36 1.753 1.07 2.32s1.82 1.04 3.34 1.419l3.8.934q3.435.835 5.13 2.554 1.68 1.702 1.68 4.39c0 1.468-.42 2.781-1.27 3.938-.83 1.158-2 2.07-3.5 2.738-1.5.667-3.25 1.001-5.24 1.001-2.62 0-4.78-.567-6.5-1.702-1.71-1.135-2.79-2.793-3.25-4.974l3.74-.935c.36 1.38 1.03 2.415 2.02 3.105 1 .69 2.31 1.034 3.92 1.034 1.84 0 3.29-.389 4.37-1.168 1.09-.79 1.64-1.736 1.64-2.837 0-.89-.31-1.636-.94-2.237-.62-.612-1.58-1.068-2.87-1.368l-4.27-1.002c-2.35-.556-4.07-1.418-5.17-2.587-1.09-1.179-1.64-2.653-1.64-4.423 0-1.446.41-2.726 1.22-3.838.82-1.113 1.94-1.987 3.35-2.621 1.43-.634 3.04-.951 4.84-.951 2.54 0 4.53.556 5.98 1.669 1.46 1.113 2.49 2.581 3.1 4.406m17.55-5.741v3.338h-13.29v-3.338zm-9.41-6.142h3.94v24.434q0 1.669.48 2.504c.33.545.76.912 1.27 1.101a5 5 0 0 0 1.65.267c.43 0 .79-.022 1.07-.066l.67-.134.8 3.538c-.27.101-.64.201-1.12.301-.48.111-1.09.167-1.82.167a7.9 7.9 0 0 1-3.27-.718 6.5 6.5 0 0 1-2.64-2.186c-.69-.979-1.03-2.215-1.03-3.706zm21.21 27.105-.27 1.802a39 39 0 0 1-.86 4.073 80 80 0 0 1-1.19 4.089q-.615 1.92-1.02 3.054h-3q.21-1.068.57-2.82c.23-1.169.46-2.476.7-3.923q.36-2.153.6-4.406l.2-1.869zm38.68-15.222-3.54 1.002a6.7 6.7 0 0 0-.99-1.72c-.42-.567-1-1.034-1.73-1.402q-1.11-.55-2.82-.55-2.355 0-3.93 1.085c-1.03.712-1.55 1.618-1.55 2.72 0 .979.36 1.753 1.07 2.32s1.82 1.04 3.34 1.419l3.8.934c2.3.557 4 1.408 5.13 2.554q1.68 1.702 1.68 4.39c0 1.468-.42 2.781-1.27 3.938-.83 1.158-2 2.07-3.5 2.738-1.5.667-3.25 1.001-5.24 1.001-2.62 0-4.78-.567-6.49-1.702-1.72-1.135-2.8-2.793-3.26-4.974l3.74-.935c.36 1.38 1.03 2.415 2.02 3.105 1 .69 2.31 1.034 3.92 1.034q2.76 0 4.38-1.168c1.09-.79 1.63-1.736 1.63-2.837q0-1.335-.93-2.237c-.63-.612-1.58-1.068-2.87-1.368l-4.28-1.002c-2.35-.556-4.07-1.418-5.17-2.587-1.09-1.179-1.64-2.653-1.64-4.423 0-1.446.41-2.726 1.22-3.838q1.23-1.67 3.36-2.621c1.42-.634 3.03-.951 4.84-.951q3.795 0 5.97 1.669c1.46 1.113 2.49 2.581 3.11 4.406m16.81 20.429q-3.48 0-6.09-1.652-2.61-1.653-4.08-4.623c-.97-1.981-1.45-4.295-1.45-6.944 0-2.67.48-5.001 1.45-6.993q1.47-2.988 4.08-4.64t6.09-1.652c2.31 0 4.34.551 6.07 1.652 1.75 1.102 3.11 2.648 4.07 4.64q1.47 2.988 1.47 6.993 0 3.973-1.47 6.944c-.96 1.98-2.32 3.521-4.07 4.623-1.73 1.101-3.76 1.652-6.07 1.652m0-3.538c1.76 0 3.2-.451 4.34-1.352q1.695-1.351 2.52-3.555.81-2.203.81-4.774 0-2.57-.81-4.79-.825-2.22-2.52-3.588c-1.14-.913-2.58-1.369-4.34-1.369s-3.21.456-4.34 1.369q-1.71 1.368-2.52 3.588c-.55 1.48-.82 3.077-.82 4.79s.27 3.305.82 4.774q.81 2.204 2.52 3.555c1.13.901 2.58 1.352 4.34 1.352M937.922 587v-25.636h3.806v3.872h.267q.7-1.903 2.537-3.088t4.139-1.185q.434 0 1.085.017.65.017.985.05v4.006q-.201-.05-.918-.151a9 9 0 0 0-1.486-.117q-1.87 0-3.338.785a5.9 5.9 0 0 0-2.303 2.136q-.834 1.353-.835 3.088V587zm17.488 0v-25.636h3.939V587zm2.003-29.909q-1.152 0-1.987-.785-.817-.784-.817-1.886t.817-1.886a2.8 2.8 0 0 1 1.987-.784q1.151 0 1.969.784.834.785.835 1.886 0 1.102-.835 1.886a2.74 2.74 0 0 1-1.969.785m27.309 10.014-3.538 1.002a6.6 6.6 0 0 0-.985-1.72q-.634-.85-1.736-1.402-1.101-.55-2.82-.55-2.354 0-3.923 1.085-1.552 1.068-1.552 2.72 0 1.469 1.068 2.32t3.338 1.419l3.806.934q3.438.835 5.124 2.554 1.686 1.702 1.686 4.39 0 2.202-1.269 3.938-1.252 1.736-3.505 2.738-2.253 1-5.241 1.001-3.922 0-6.492-1.702-2.571-1.702-3.255-4.974l3.739-.935q.534 2.07 2.019 3.105 1.502 1.035 3.923 1.034 2.754 0 4.372-1.168 1.636-1.185 1.636-2.837 0-1.335-.935-2.237-.935-.918-2.87-1.368l-4.273-1.002q-3.521-.834-5.174-2.587-1.636-1.768-1.636-4.423 0-2.17 1.219-3.838 1.235-1.67 3.354-2.621 2.137-.951 4.841-.951 3.805 0 5.975 1.669 2.186 1.669 3.104 4.406m17.148 20.429q-3.709 0-6.395-1.636-2.67-1.652-4.123-4.606-1.434-2.971-1.435-6.91 0-3.939 1.435-6.943 1.452-3.021 4.04-4.707 2.602-1.702 6.078-1.702c1.33 0 2.65.222 3.95.667s2.49 1.169 3.56 2.17q1.605 1.485 2.55 3.939c.64 1.636.95 3.65.95 6.042v1.669h-19.759v-3.405h15.759q0-2.17-.87-3.872a6.54 6.54 0 0 0-2.44-2.687c-1.04-.657-2.28-.985-3.7-.985q-2.357 0-4.076 1.169a7.7 7.7 0 0 0-2.62 3.004 8.8 8.8 0 0 0-.918 3.972v2.27q0 2.904 1.001 4.924 1.018 2.002 2.821 3.054c1.202.69 2.602 1.035 4.192 1.035 1.03 0 1.97-.145 2.8-.434a6 6 0 0 0 2.19-1.335c.61-.601 1.08-1.347 1.42-2.237l3.8 1.068a8.4 8.4 0 0 1-2.02 3.405c-.94.968-2.11 1.725-3.5 2.27-1.39.534-2.96.801-4.69.801m34.76-20.429-3.54 1.002a6.6 6.6 0 0 0-.98-1.72q-.63-.85-1.74-1.402-1.095-.55-2.82-.55c-1.57 0-2.87.361-3.92 1.085-1.03.712-1.55 1.618-1.55 2.72 0 .979.36 1.753 1.07 2.32s1.82 1.04 3.34 1.419l3.8.934c2.29.557 4 1.408 5.12 2.554 1.13 1.135 1.69 2.598 1.69 4.39 0 1.468-.42 2.781-1.27 3.938-.83 1.158-2 2.07-3.5 2.738-1.5.667-3.25 1.001-5.24 1.001-2.62 0-4.78-.567-6.5-1.702-1.71-1.135-2.79-2.793-3.25-4.974l3.74-.935c.35 1.38 1.03 2.415 2.02 3.105 1 .69 2.31 1.034 3.92 1.034 1.84 0 3.29-.389 4.37-1.168 1.09-.79 1.64-1.736 1.64-2.837 0-.89-.31-1.636-.94-2.237-.62-.612-1.58-1.068-2.87-1.368l-4.27-1.002c-2.35-.556-4.07-1.418-5.17-2.587-1.09-1.179-1.64-2.653-1.64-4.423 0-1.446.41-2.726 1.22-3.838.82-1.113 1.94-1.987 3.35-2.621 1.43-.634 3.04-.951 4.84-.951 2.54 0 4.53.556 5.98 1.669 1.46 1.113 2.49 2.581 3.1 4.406m37.78 0-3.54 1.002a6.4 6.4 0 0 0-.99-1.72c-.42-.567-1-1.034-1.73-1.402q-1.11-.55-2.82-.55c-1.57 0-2.88.361-3.92 1.085q-1.56 1.068-1.56 2.72c0 .979.36 1.753 1.07 2.32s1.83 1.04 3.34 1.419l3.81.934c2.29.557 4 1.408 5.12 2.554 1.12 1.135 1.69 2.598 1.69 4.39 0 1.468-.43 2.781-1.27 3.938q-1.26 1.736-3.51 2.738c-1.5.667-3.25 1.001-5.24 1.001-2.61 0-4.78-.567-6.49-1.702-1.72-1.135-2.8-2.793-3.26-4.974l3.74-.935c.36 1.38 1.03 2.415 2.02 3.105 1 .69 2.31 1.034 3.92 1.034q2.76 0 4.38-1.168c1.09-.79 1.63-1.736 1.63-2.837q0-1.335-.93-2.237c-.63-.612-1.58-1.068-2.87-1.368l-4.28-1.002c-2.34-.556-4.07-1.418-5.17-2.587-1.09-1.179-1.64-2.653-1.64-4.423 0-1.446.41-2.726 1.22-3.838.83-1.113 1.94-1.987 3.36-2.621s3.04-.951 4.84-.951q3.81 0 5.97 1.669c1.46 1.113 2.5 2.581 3.11 4.406m10.33-14.287V587h-3.94v-34.182zm17.63 34.716q-3.465 0-6.09-1.652c-1.74-1.102-3.09-2.643-4.07-4.623-.97-1.981-1.45-4.295-1.45-6.944 0-2.67.48-5.001 1.45-6.993.98-1.992 2.33-3.538 4.07-4.64q2.625-1.652 6.09-1.652c2.32 0 4.34.551 6.08 1.652 1.74 1.102 3.1 2.648 4.07 4.64q1.47 2.988 1.47 6.993 0 3.973-1.47 6.944c-.97 1.98-2.33 3.521-4.07 4.623-1.74 1.101-3.76 1.652-6.08 1.652m0-3.538c1.76 0 3.21-.451 4.34-1.352q1.71-1.351 2.52-3.555c.55-1.469.82-3.06.82-4.774s-.27-3.31-.82-4.79q-.81-2.22-2.52-3.588c-1.13-.913-2.58-1.369-4.34-1.369s-3.2.456-4.34 1.369q-1.695 1.368-2.52 3.588c-.54 1.48-.82 3.077-.82 4.79s.28 3.305.82 4.774q.825 2.204 2.52 3.555c1.14.901 2.58 1.352 4.34 1.352m22.57 3.004-7.81-25.636h4.14l5.54 19.627h.26l5.48-19.627h4.2l5.41 19.561h.27l5.54-19.561h4.14L1144.3 587h-3.87l-5.61-19.695h-.4L1128.81 587zm42.25.534q-3.705 0-6.39-1.636c-1.78-1.101-3.15-2.637-4.12-4.606q-1.44-2.971-1.44-6.91t1.44-6.943c.97-2.014 2.31-3.583 4.04-4.707 1.73-1.135 3.76-1.702 6.07-1.702q2.01 0 3.96.667a9.75 9.75 0 0 1 3.55 2.17c1.07.99 1.92 2.303 2.56 3.939.63 1.636.95 3.65.95 6.042v1.669h-19.76v-3.405h15.75c0-1.446-.29-2.737-.86-3.872a6.54 6.54 0 0 0-2.44-2.687c-1.05-.657-2.28-.985-3.71-.985-1.57 0-2.92.39-4.07 1.169a7.7 7.7 0 0 0-2.62 3.004 8.85 8.85 0 0 0-.92 3.972v2.27c0 1.936.34 3.577 1 4.924q1.02 2.002 2.82 3.054c1.21.69 2.6 1.035 4.19 1.035 1.04 0 1.97-.145 2.81-.434a6 6 0 0 0 2.18-1.335c.62-.601 1.09-1.347 1.42-2.237l3.81 1.068a8.5 8.5 0 0 1-2.02 3.405q-1.425 1.452-3.51 2.27c-1.39.534-2.95.801-4.69.801m16.61-.534v-25.636h3.81v3.872h.26c.47-1.269 1.32-2.298 2.54-3.088q1.83-1.185 4.14-1.185.435 0 1.08.017.66.017.99.05v4.006a11 11 0 0 0-.92-.151 9 9 0 0 0-1.48-.117c-1.25 0-2.36.262-3.34.785a5.94 5.94 0 0 0-2.31 2.136c-.55.902-.83 1.931-.83 3.088V587zM589.675 140v-34.182h3.939v12.618h.334q.433-.667 1.201-1.702.785-1.051 2.237-1.87 1.469-.834 3.972-.834 3.238 0 5.708 1.619t3.856 4.59q1.385 2.97 1.385 7.01 0 4.072-1.385 7.06-1.385 2.97-3.839 4.606-2.454 1.619-5.658 1.619-2.47 0-3.956-.818-1.485-.834-2.286-1.886a25 25 0 0 1-1.235-1.769h-.468V140zm3.872-12.818q0 2.904.851 5.124.852 2.203 2.487 3.455 1.636 1.235 4.006 1.235 2.47 0 4.122-1.302 1.669-1.319 2.504-3.538.85-2.237.851-4.974 0-2.704-.834-4.874-.819-2.186-2.487-3.455-1.653-1.284-4.156-1.285-2.404 0-4.039 1.219-1.636 1.202-2.47 3.371-.835 2.153-.835 5.024M618.332 140v-25.636h3.939V140zm2.003-29.909a2.8 2.8 0 0 1-1.986-.785q-.818-.784-.818-1.886t.818-1.886a2.8 2.8 0 0 1 1.986-.784 2.74 2.74 0 0 1 1.969.784q.835.785.835 1.886 0 1.102-.835 1.886a2.74 2.74 0 0 1-1.969.785m19.498 40.057q-2.854 0-4.906-.735-2.054-.717-3.422-1.902-1.352-1.169-2.153-2.504l3.138-2.203a25 25 0 0 0 1.352 1.602q.817.918 2.236 1.586 1.436.684 3.755.684 3.105 0 5.124-1.502 2.02-1.501 2.02-4.707v-5.207h-.334a21 21 0 0 1-1.235 1.736q-.785 1.018-2.27 1.819-1.469.784-3.972.784-3.105 0-5.575-1.468-2.453-1.469-3.889-4.273-1.418-2.804-1.418-6.81 0-3.939 1.385-6.859 1.386-2.938 3.856-4.54 2.47-1.62 5.708-1.619 2.504 0 3.972.834 1.485.819 2.27 1.87.801 1.035 1.235 1.702h.4v-4.072h3.806v26.37q0 3.305-1.502 5.375-1.486 2.086-4.006 3.054-2.503.985-5.575.985m-.133-14.087q2.37 0 4.006-1.085 1.635-1.084 2.487-3.121.85-2.036.851-4.873 0-2.772-.835-4.891-.834-2.12-2.47-3.321t-4.039-1.202q-2.503 0-4.173 1.269-1.652 1.268-2.486 3.404-.818 2.137-.818 4.741 0 2.67.834 4.723.851 2.036 2.504 3.204 1.668 1.152 4.139 1.152m28.774 14.087q-2.854 0-4.907-.735-2.053-.717-3.421-1.902-1.353-1.169-2.153-2.504l3.137-2.203q.534.7 1.352 1.602.819.918 2.237 1.586 1.435.684 3.755.684 3.105 0 5.124-1.502 2.02-1.501 2.02-4.707v-5.207h-.334q-.435.7-1.235 1.736-.785 1.018-2.27 1.819-1.469.784-3.972.784-3.105 0-5.575-1.468-2.454-1.469-3.889-4.273-1.419-2.804-1.419-6.81 0-3.939 1.386-6.859 1.384-2.938 3.855-4.54 2.47-1.62 5.708-1.619 2.503 0 3.973.834 1.485.819 2.269 1.87.802 1.035 1.236 1.702h.4v-4.072h3.806v26.37q0 3.305-1.503 5.375-1.485 2.086-4.005 3.054-2.504.985-5.575.985m-.133-14.087q2.37 0 4.005-1.085 1.636-1.084 2.487-3.121t.851-4.873q0-2.772-.834-4.891-.835-2.12-2.47-3.321t-4.039-1.202q-2.503 0-4.173 1.269-1.653 1.268-2.487 3.404-.818 2.137-.818 4.741 0 2.67.835 4.723.851 2.036 2.503 3.204 1.67 1.152 4.14 1.152m29.174 4.473q-3.705 0-6.392-1.636-2.67-1.652-4.123-4.606-1.435-2.971-1.435-6.91t1.435-6.943q1.453-3.021 4.039-4.707 2.604-1.702 6.076-1.702 2.003 0 3.955.667 1.953.669 3.555 2.17 1.603 1.485 2.554 3.939t.951 6.042v1.669h-19.761v-3.405h15.756q0-2.17-.868-3.872a6.54 6.54 0 0 0-2.437-2.687q-1.569-.985-3.705-.985-2.354 0-4.073 1.169a7.7 7.7 0 0 0-2.62 3.004 8.8 8.8 0 0 0-.918 3.972v2.27q0 2.904 1.001 4.924 1.018 2.003 2.821 3.054 1.803 1.035 4.189 1.035 1.553 0 2.804-.434a6 6 0 0 0 2.187-1.335q.918-.902 1.418-2.237l3.806 1.068a8.44 8.44 0 0 1-2.02 3.405q-1.419 1.452-3.505 2.27-2.086.801-4.69.801m34.766-20.429-3.538 1.002a6.6 6.6 0 0 0-.985-1.72q-.634-.85-1.736-1.402-1.101-.55-2.82-.55-2.354 0-3.922 1.085-1.553 1.068-1.553 2.72 0 1.469 1.068 2.32t3.339 1.419l3.805.934q3.438.835 5.124 2.554 1.686 1.702 1.686 4.39 0 2.202-1.269 3.938-1.251 1.736-3.505 2.738-2.253 1-5.241 1.001-3.922 0-6.492-1.702-2.571-1.702-3.255-4.974l3.739-.935q.534 2.07 2.019 3.105 1.502 1.034 3.923 1.034 2.753 0 4.373-1.168 1.635-1.185 1.635-2.837 0-1.335-.934-2.237-.935-.918-2.871-1.368l-4.273-1.002q-3.521-.834-5.174-2.587-1.635-1.768-1.636-4.423 0-2.17 1.219-3.838 1.234-1.67 3.355-2.621 2.136-.951 4.84-.951 3.805 0 5.975 1.669 2.186 1.669 3.104 4.406m17.546-5.741v3.338h-13.285v-3.338zm-9.413-6.142h3.939v24.434q0 1.669.484 2.504.5.817 1.268 1.101a5.1 5.1 0 0 0 1.652.267q.65 0 1.069-.066l.667-.134.801 3.538a8 8 0 0 1-1.118.301q-.717.167-1.819.167a7.9 7.9 0 0 1-3.271-.718 6.5 6.5 0 0 1-2.638-2.186q-1.034-1.469-1.034-3.706zm21.213 27.105-.267 1.802a36 36 0 0 1-.868 4.073 77 77 0 0 1-1.185 4.089 122 122 0 0 1-1.018 3.054h-3.004q.217-1.068.567-2.82.351-1.753.701-3.923.367-2.153.601-4.406l.2-1.869zm38.676-15.222-3.539 1.002a6.6 6.6 0 0 0-.984-1.72q-.635-.85-1.736-1.402-1.101-.55-2.821-.55-2.353 0-3.922 1.085-1.552 1.068-1.552 2.72 0 1.469 1.068 2.32t3.338 1.419l3.805.934q3.44.835 5.124 2.554 1.686 1.702 1.686 4.39 0 2.202-1.268 3.938-1.252 1.736-3.505 2.738-2.253 1-5.241 1.001-3.922 0-6.493-1.702-2.57-1.702-3.254-4.974l3.738-.935q.534 2.07 2.02 3.105 1.502 1.034 3.922 1.034 2.754 0 4.373-1.168 1.636-1.185 1.636-2.837 0-1.335-.935-2.237-.934-.918-2.871-1.368l-4.272-1.002q-3.522-.834-5.174-2.587-1.636-1.768-1.636-4.423 0-2.17 1.218-3.838 1.236-1.67 3.355-2.621 2.137-.951 4.84-.951 3.806 0 5.975 1.669 2.187 1.669 3.105 4.406m16.811 20.429q-3.471 0-6.092-1.652-2.604-1.653-4.072-4.623-1.452-2.971-1.452-6.944 0-4.005 1.452-6.993 1.468-2.987 4.072-4.64 2.62-1.652 6.092-1.652 3.473 0 6.075 1.652 2.62 1.653 4.073 4.64 1.469 2.988 1.469 6.993 0 3.973-1.469 6.944-1.452 2.97-4.073 4.623-2.602 1.652-6.075 1.652m0-3.538q2.637 0 4.34-1.352t2.52-3.555.818-4.774q0-2.57-.818-4.79-.817-2.22-2.52-3.588-1.703-1.37-4.34-1.369-2.637 0-4.339 1.369t-2.521 3.588q-.817 2.22-.817 4.79t.817 4.774q.819 2.203 2.521 3.555t4.339 1.352M847.962 140v-25.636h3.805v3.872h.267q.702-1.903 2.537-3.088 1.836-1.185 4.14-1.185.434 0 1.084.017.652.017.985.05v4.006a11 11 0 0 0-.918-.151 9 9 0 0 0-1.485-.117q-1.87 0-3.338.785a5.9 5.9 0 0 0-2.304 2.136q-.834 1.353-.834 3.088V140zm17.487 0v-25.636h3.939V140zm2.003-29.909a2.8 2.8 0 0 1-1.986-.785q-.818-.784-.818-1.886t.818-1.886a2.8 2.8 0 0 1 1.986-.784q1.151 0 1.97.784.834.785.834 1.886 0 1.102-.834 1.886a2.75 2.75 0 0 1-1.97.785m27.31 10.014-3.539 1.002a6.6 6.6 0 0 0-.984-1.72q-.635-.85-1.736-1.402-1.102-.55-2.821-.55-2.353 0-3.922 1.085-1.552 1.068-1.552 2.72 0 1.469 1.068 2.32t3.338 1.419l3.805.934q3.44.835 5.124 2.554 1.686 1.702 1.686 4.39 0 2.202-1.268 3.938-1.252 1.736-3.505 2.738-2.253 1-5.241 1.001-3.922 0-6.493-1.702-2.57-1.702-3.254-4.974l3.738-.935q.534 2.07 2.02 3.105 1.502 1.034 3.922 1.034 2.754 0 4.373-1.168 1.635-1.185 1.636-2.837 0-1.335-.935-2.237-.935-.918-2.871-1.368l-4.272-1.002q-3.522-.834-5.174-2.587-1.636-1.768-1.636-4.423 0-2.17 1.218-3.838 1.236-1.67 3.355-2.621 2.136-.951 4.84-.951 3.806 0 5.975 1.669 2.187 1.669 3.105 4.406m17.145 20.429q-3.705 0-6.392-1.636-2.671-1.652-4.123-4.606-1.435-2.971-1.435-6.91t1.435-6.943q1.452-3.021 4.039-4.707 2.604-1.702 6.075-1.702 2.004 0 3.956.667 1.953.669 3.555 2.17 1.602 1.485 2.554 3.939t.951 6.042v1.669h-19.761v-3.405h15.755q0-2.17-.868-3.872a6.53 6.53 0 0 0-2.436-2.687q-1.569-.985-3.706-.985-2.353 0-4.072 1.169a7.7 7.7 0 0 0-2.62 3.004 8.8 8.8 0 0 0-.918 3.972v2.27q0 2.904 1.001 4.924 1.018 2.003 2.821 3.054 1.802 1.035 4.189 1.035 1.552 0 2.804-.434a6 6 0 0 0 2.186-1.335q.918-.902 1.419-2.237l3.805 1.068a8.4 8.4 0 0 1-2.019 3.405q-1.419 1.452-3.505 2.27-2.086.801-4.69.801m34.766-20.429-3.538 1.002a6.6 6.6 0 0 0-.985-1.72q-.635-.85-1.736-1.402-1.101-.55-2.821-.55-2.353 0-3.922 1.085-1.552 1.068-1.552 2.72 0 1.469 1.068 2.32t3.338 1.419l3.806.934q3.438.835 5.124 2.554 1.685 1.702 1.685 4.39 0 2.202-1.268 3.938-1.252 1.736-3.505 2.738-2.253 1-5.241 1.001-3.922 0-6.493-1.702-2.57-1.702-3.254-4.974l3.738-.935q.535 2.07 2.02 3.105 1.502 1.034 3.922 1.034 2.754 0 4.373-1.168 1.636-1.185 1.636-2.837 0-1.335-.935-2.237-.935-.918-2.871-1.368l-4.272-1.002q-3.522-.834-5.174-2.587-1.636-1.768-1.636-4.423 0-2.17 1.218-3.838 1.236-1.67 3.355-2.621 2.136-.951 4.84-.951 3.806 0 5.975 1.669 2.187 1.669 3.105 4.406m-283.915 51.259v3.338h-13.286v-3.338zm-9.414-6.142h3.939v24.434q0 1.669.484 2.504.501.818 1.269 1.101a5.1 5.1 0 0 0 1.652.267q.651 0 1.068-.066l.668-.134.801 3.538q-.4.151-1.118.301-.718.167-1.819.167a7.9 7.9 0 0 1-3.272-.718 6.5 6.5 0 0 1-2.637-2.186q-1.035-1.469-1.035-3.706zm19.828 16.356V197h-3.938v-34.182h3.938v12.551h.334a7.25 7.25 0 0 1 2.704-3.154q1.82-1.185 4.84-1.185 2.62 0 4.59 1.051 1.97 1.035 3.054 3.188 1.102 2.136 1.102 5.441V197h-3.939v-16.023q0-3.054-1.585-4.723-1.569-1.686-4.357-1.686-1.936 0-3.471.818-1.52.818-2.404 2.387-.868 1.569-.868 3.805m34.579 15.956q-3.706 0-6.393-1.636-2.67-1.652-4.122-4.606-1.436-2.971-1.436-6.91t1.436-6.943q1.452-3.021 4.039-4.707 2.604-1.702 6.075-1.702 2.003 0 3.956.667 1.953.669 3.555 2.17 1.602 1.485 2.553 3.939.952 2.454.952 6.042v1.669h-19.762v-3.405h15.756q0-2.17-.868-3.872a6.53 6.53 0 0 0-2.437-2.687q-1.569-.985-3.705-.985-2.353 0-4.072 1.169a7.7 7.7 0 0 0-2.621 3.004 8.8 8.8 0 0 0-.918 3.972v2.27q0 2.904 1.002 4.924 1.018 2.003 2.82 3.054 1.803 1.035 4.19 1.035 1.551 0 2.804-.434a6 6 0 0 0 2.186-1.335q.918-.902 1.419-2.237l3.805 1.068a8.44 8.44 0 0 1-2.019 3.405q-1.419 1.452-3.505 2.27-2.087.801-4.69.801m41.241-26.17v3.338h-13.819v-3.338zM739.312 197v-29.175q0-2.202 1.035-3.672a6.4 6.4 0 0 1 2.687-2.203 8.5 8.5 0 0 1 3.488-.734q1.452 0 2.37.234.918.233 1.369.434l-1.135 3.404q-.3-.1-.834-.25-.518-.15-1.369-.15-1.953 0-2.821.985-.85.984-.851 2.887V197zm22.01.601q-2.436 0-4.422-.918-1.987-.935-3.155-2.687-1.168-1.77-1.168-4.273 0-2.203.868-3.572a6.1 6.1 0 0 1 2.32-2.169 12.2 12.2 0 0 1 3.204-1.169 39 39 0 0 1 3.555-.634q2.337-.3 3.789-.451 1.469-.167 2.136-.55.684-.384.685-1.336v-.133q0-2.47-1.352-3.839-1.336-1.368-4.056-1.369-2.821 0-4.423 1.236t-2.253 2.637l-3.739-1.336q1.002-2.336 2.671-3.638a10 10 0 0 1 3.671-1.836 15.3 15.3 0 0 1 3.939-.534q1.236 0 2.838.3a9.1 9.1 0 0 1 3.121 1.185q1.518.901 2.52 2.721 1.001 1.82 1.001 4.873V197h-3.938v-3.472h-.201q-.4.835-1.335 1.786t-2.487 1.619q-1.553.668-3.789.668m.601-3.539q2.337 0 3.939-.917 1.62-.918 2.437-2.37.835-1.453.835-3.055v-3.605q-.251.3-1.102.551-.835.234-1.936.417-1.085.167-2.12.301-1.017.116-1.652.2a15 15 0 0 0-2.871.651q-1.319.434-2.136 1.318-.801.868-.801 2.37 0 2.053 1.518 3.105 1.536 1.034 3.889 1.034m36.498-16.957-3.538 1.002a6.6 6.6 0 0 0-.985-1.72q-.635-.85-1.736-1.402-1.101-.55-2.821-.55-2.352 0-3.922 1.085-1.552 1.067-1.552 2.72 0 1.469 1.068 2.32t3.338 1.419l3.806.934q3.438.835 5.124 2.554 1.685 1.702 1.685 4.39 0 2.202-1.268 3.938-1.252 1.736-3.505 2.738-2.253 1-5.241 1.001-3.923 0-6.492-1.702-2.571-1.702-3.255-4.974l3.739-.935q.534 2.07 2.019 3.105 1.502 1.034 3.922 1.034 2.754 0 4.373-1.168 1.636-1.185 1.636-2.837 0-1.335-.935-2.237-.934-.918-2.871-1.368l-4.272-1.002q-3.522-.834-5.174-2.587-1.636-1.768-1.636-4.423 0-2.17 1.218-3.838 1.236-1.67 3.355-2.621 2.137-.951 4.84-.951 3.806 0 5.976 1.669 2.186 1.669 3.104 4.406m17.546-5.741v3.338h-13.286v-3.338zm-9.414-6.142h3.939v24.434q0 1.669.484 2.504.501.818 1.269 1.101a5.1 5.1 0 0 0 1.652.267q.651 0 1.068-.066l.668-.134.801 3.538q-.4.151-1.118.301-.718.167-1.82.167a7.9 7.9 0 0 1-3.271-.718 6.5 6.5 0 0 1-2.637-2.186q-1.035-1.469-1.035-3.706zm25.812 32.312q-3.705 0-6.392-1.636-2.671-1.652-4.123-4.606-1.435-2.971-1.435-6.91t1.435-6.943q1.452-3.021 4.039-4.707 2.604-1.702 6.075-1.702 2.004 0 3.956.667 1.953.669 3.555 2.17 1.602 1.485 2.554 3.939t.951 6.042v1.669h-19.761v-3.405h15.755q0-2.17-.868-3.872a6.53 6.53 0 0 0-2.436-2.687q-1.569-.985-3.706-.985-2.353 0-4.072 1.169a7.7 7.7 0 0 0-2.62 3.004 8.8 8.8 0 0 0-.918 3.972v2.27q0 2.904 1.001 4.924 1.018 2.003 2.821 3.054 1.802 1.035 4.189 1.035 1.552 0 2.804-.434a6 6 0 0 0 2.186-1.335q.918-.902 1.419-2.237l3.805 1.068a8.4 8.4 0 0 1-2.019 3.405q-1.419 1.452-3.505 2.27-2.086.801-4.69.801m34.766-20.429-3.538 1.002a6.6 6.6 0 0 0-.985-1.72q-.635-.85-1.736-1.402-1.101-.55-2.821-.55-2.353 0-3.922 1.085-1.552 1.067-1.552 2.72 0 1.469 1.068 2.32t3.338 1.419l3.806.934q3.438.835 5.124 2.554 1.685 1.702 1.685 4.39 0 2.202-1.268 3.938-1.252 1.736-3.505 2.738-2.253 1-5.241 1.001-3.922 0-6.493-1.702-2.57-1.702-3.254-4.974l3.739-.935q.534 2.07 2.019 3.105 1.502 1.034 3.922 1.034 2.754 0 4.373-1.168 1.636-1.185 1.636-2.837 0-1.335-.935-2.237-.934-.918-2.871-1.368l-4.272-1.002q-3.522-.834-5.174-2.587-1.636-1.768-1.636-4.423 0-2.17 1.218-3.838 1.236-1.67 3.355-2.621 2.137-.951 4.84-.951 3.806 0 5.976 1.669 2.186 1.669 3.104 4.406m17.546-5.741v3.338h-13.286v-3.338zm-9.414-6.142h3.939v24.434q0 1.669.484 2.504.501.818 1.269 1.101a5.1 5.1 0 0 0 1.652.267q.651 0 1.068-.066l.668-.134.801 3.538q-.4.151-1.118.301-.718.167-1.82.167a7.9 7.9 0 0 1-3.271-.718 6.5 6.5 0 0 1-2.637-2.186q-1.035-1.469-1.035-3.706z"/><defs><filter id="a" width="394" height="394" x="129" y="0" color-interpolation-filters="sRGB" filterUnits="userSpaceOnUse"><feFlood flood-opacity="0" result="BackgroundImageFix"/><feBlend in="SourceGraphic" in2="BackgroundImageFix" result="shape"/><feColorMatrix in="SourceAlpha" result="hardAlpha" values="0 0 0 0 0 0 0 0 0 0 0 0 0 0 0 0 0 0 127 0"/><feMorphology in="SourceAlpha" radius="20" result="effect1_innerShadow_410_111"/><feOffset/><feGaussianBlur stdDeviation="20"/><feComposite in2="hardAlpha" k2="-1" k3="1" operator="arithmetic"/><feColorMatrix values="0 0 0 0 0 0 0 0 0 0 0 0 0 0 0 0 0 0 0.25 0"/><feBlend in2="shape" result="effect1_innerShadow_410_111"/></filter><filter id="b" width="322" height="322" x="545" y="335" color-interpolation-filters="sRGB" filterUnits="userSpaceOnUse"><feFlood flood-opacity="0" result="BackgroundImageFix"/><feBlend in="SourceGraphic" in2="BackgroundImageFix" result="shape"/><feColorMatrix in="SourceAlpha" result="hardAlpha" values="0 0 0 0 0 0 0 0 0 0 0 0 0 0 0 0 0 0 127 0"/><feMorphology in="SourceAlpha" radius="20" result="effect1_innerShadow_410_111"/><feOffset/><feGaussianBlur stdDeviation="20"/><feComposite in2="hardAlpha" k2="-1" k3="1" operator="arithmetic"/><feColorMatrix values="0 0 0 0 0 0 0 0 0 0 0 0 0 0 0 0 0 0 0.25 0"/><feBlend in2="shape" result="effect1_innerShadow_410_111"/></filter><filter id="c" width="240" height="240" x="359" y="751" color-interpolation-filters="sRGB" filterUnits="userSpaceOnUse"><feFlood flood-opacity="0" result="BackgroundImageFix"/><feBlend in="SourceGraphic" in2="BackgroundImageFix" result="shape"/><feColorMatrix in="SourceAlpha" result="hardAlpha" values="0 0 0 0 0 0 0 0 0 0 0 0 0 0 0 0 0 0 127 0"/><feMorphology in="SourceAlpha" radius="20" result="effect1_innerShadow_410_111"/><feOffset/><feGaussianBlur stdDeviation="20"/><feComposite in2="hardAlpha" k2="-1" k3="1" operator="arithmetic"/><feColorMatrix values="0 0 0 0 0 0 0 0 0 0 0 0 0 0 0 0 0 0 0.25 0"/><feBlend in2="shape" result="effect1_innerShadow_410_111"/></filter><filter id="d" width="71" height="71" x="270" y="521" color-interpolation-filters="sRGB" filterUnits="userSpaceOnUse"><feFlood flood-opacity="0" result="BackgroundImageFix"/><feBlend in="SourceGraphic" in2="BackgroundImageFix" result="shape"/><feColorMatrix in="SourceAlpha" result="hardAlpha" values="0 0 0 0 0 0 0 0 0 0 0 0 0 0 0 0 0 0 127 0"/><feMorphology in="SourceAlpha" radius="20" result="effect1_innerShadow_410_111"/><feOffset/><feGaussianBlur stdDeviation="20"/><feComposite in2="hardAlpha" k2="-1" k3="1" operator="arithmetic"/><feColorMatrix values="0 0 0 0 0 0 0 0 0 0 0 0 0 0 0 0 0 0 0.25 0"/><feBlend in2="shape" result="effect1_innerShadow_410_111"/></filter><filter id="e" width="50" height="50" x="742" y="734" color-interpolation-filters="sRGB" filterUnits="userSpaceOnUse"><feFlood flood-opacity="0" result="BackgroundImageFix"/><feBlend in="SourceGraphic" in2="BackgroundImageFix" result="shape"/><feColorMatrix in="SourceAlpha" result="hardAlpha" values="0 0 0 0 0 0 0 0 0 0 0 0 0 0 0 0 0 0 127 0"/><feMorphology in="SourceAlpha" radius="20" result="effect1_innerShadow_410_111"/><feOffset/><feGaussianBlur stdDeviation="20"/><feComposite in2="hardAlpha" k2="-1" k3="1" operator="arithmetic"/><feColorMatrix values="0 0 0 0 0 0 0 0 0 0 0 0 0 0 0 0 0 0 0.25 0"/><feBlend in2="shape" result="effect1_innerShadow_410_111"/></filter></defs></svg>