<svg xmlns="http://www.w3.org/2000/svg" width="968" height="318" fill="none" viewBox="0 0 968 318"><rect width="959" height="120" x="6" y="92" stroke="#dbdbdb" stroke-width="2" rx="26"/><path stroke="#dbdbdb" stroke-width="2" d="M126 91v122M246 91v122M367 91v122M487 91v122M607 91v122M727 91v122M847 91v122"/><path fill="#fff" d="M64.434 166.398q-2.5 0-4.502-.995-2.004-.994-3.21-2.727-1.209-1.732-1.322-3.949h3.41q.197 1.976 1.79 3.267 1.605 1.28 3.834 1.279 1.79 0 3.182-.838a5.9 5.9 0 0 0 2.202-2.301q.81-1.478.81-3.339 0-1.903-.839-3.394a6.15 6.15 0 0 0-2.272-2.373q-1.45-.866-3.31-.88a9 9 0 0 0-2.741.412q-1.407.411-2.316 1.065l-3.295-.398 1.761-14.318H72.73v3.125H60.57l-1.022 8.58h.17q.895-.711 2.245-1.179a8.5 8.5 0 0 1 2.812-.469q2.67 0 4.759 1.278a8.93 8.93 0 0 1 3.295 3.466q1.208 2.202 1.208 5.029 0 2.784-1.25 4.971a9.14 9.14 0 0 1-3.41 3.438q-2.172 1.25-4.943 1.25"/><path fill="#717171" d="M15.842 292.545q-.205-1.727-1.659-2.681-1.455-.955-3.568-.955-1.546 0-2.704.5-1.149.5-1.796 1.375a3.3 3.3 0 0 0-.636 1.989q0 .931.443 1.602.455.659 1.159 1.102.705.432 1.477.716.773.273 1.42.443l2.364.637q.909.239 2.023.659 1.125.42 2.148 1.148a5.8 5.8 0 0 1 1.704 1.84q.67 1.125.67 2.762 0 1.886-.988 3.409-.977 1.523-2.863 2.42-1.876.898-4.557.898-2.5 0-4.33-.807-1.818-.807-2.863-2.25-1.035-1.443-1.17-3.352h2.908q.113 1.318.887 2.182.783.852 1.977 1.273a8 8 0 0 0 2.59.409q1.615 0 2.898-.523 1.285-.534 2.035-1.477.75-.955.75-2.228 0-1.158-.648-1.886t-1.705-1.182a18 18 0 0 0-2.284-.795l-2.863-.818q-2.728-.784-4.319-2.239t-1.59-3.807q0-1.954 1.056-3.409 1.068-1.466 2.864-2.273 1.807-.818 4.034-.818 2.25 0 4 .807 1.75.795 2.773 2.182a5.43 5.43 0 0 1 1.09 3.147zM23.158 310v-17.455h2.59v2.728h.228q.545-1.398 1.761-2.171 1.215-.784 2.92-.784 1.727 0 2.876.784 1.159.773 1.806 2.171h.182a5.1 5.1 0 0 1 2.012-2.148q1.341-.807 3.216-.807 2.34 0 3.83 1.466 1.488 1.455 1.488 4.534V310h-2.682v-11.682q0-1.932-1.057-2.761t-2.489-.83q-1.84 0-2.852 1.114-1.011 1.103-1.011 2.795V310h-2.727v-11.955q0-1.488-.966-2.397-.966-.921-2.489-.921-1.046 0-1.954.557a4.2 4.2 0 0 0-1.455 1.546q-.546.977-.546 2.261V310zm32.948.409q-1.659 0-3.01-.625a5.17 5.17 0 0 1-2.149-1.829q-.795-1.204-.795-2.91 0-1.5.59-2.431a4.17 4.17 0 0 1 1.58-1.478 8.3 8.3 0 0 1 2.182-.795q1.205-.273 2.42-.432 1.591-.204 2.58-.307 1-.113 1.455-.375.465-.261.466-.909v-.091q0-1.682-.92-2.613-.91-.933-2.762-.932-1.92 0-3.012.841-1.09.84-1.534 1.795l-2.545-.909q.681-1.591 1.818-2.477a6.8 6.8 0 0 1 2.5-1.25q1.364-.364 2.682-.364.84 0 1.932.205a6.2 6.2 0 0 1 2.125.807q1.034.613 1.716 1.852t.681 3.318V310h-2.681v-2.364h-.137q-.271.568-.909 1.216-.636.648-1.693 1.103t-2.58.454m.41-2.409q1.59 0 2.681-.625 1.102-.625 1.66-1.614a4.1 4.1 0 0 0 .568-2.079v-2.455q-.171.205-.75.375-.57.16-1.319.284-.738.114-1.443.205a70 70 0 0 0-1.125.136q-1.045.137-1.954.443-.898.296-1.455.898-.545.591-.545 1.614 0 1.398 1.034 2.113 1.046.705 2.648.705m15.167-21.273V310h-2.682v-23.273zm7.594 0V310h-2.682v-23.273zm12.23 23.637q-2.523 0-4.352-1.114-1.818-1.125-2.807-3.136-.977-2.023-.977-4.705t.977-4.727q.99-2.057 2.75-3.205 1.773-1.159 4.136-1.159 1.364 0 2.694.455a6.7 6.7 0 0 1 2.42 1.477q1.09 1.011 1.739 2.682.647 1.67.647 4.113v1.137H85.28v-2.318h10.727q0-1.478-.59-2.637a4.46 4.46 0 0 0-1.66-1.829q-1.068-.67-2.523-.671-1.602 0-2.772.796a5.2 5.2 0 0 0-1.784 2.045 6 6 0 0 0-.625 2.705v1.545q0 1.977.681 3.352.694 1.365 1.92 2.08 1.228.705 2.853.705 1.057 0 1.91-.296a4.1 4.1 0 0 0 1.488-.909 4.1 4.1 0 0 0 .966-1.523l2.59.728a5.75 5.75 0 0 1-1.374 2.318q-.966.988-2.387 1.545-1.42.546-3.193.546m23.671-13.909-2.41.681a4.5 4.5 0 0 0-.67-1.17q-.432-.58-1.182-.955t-1.92-.375q-1.602 0-2.671.739-1.056.727-1.057 1.852 0 1 .728 1.58.727.579 2.272.966l2.591.636q2.342.568 3.489 1.739 1.148 1.159 1.148 2.988 0 1.5-.864 2.682-.853 1.182-2.386 1.864t-3.568.682q-2.671 0-4.421-1.159t-2.216-3.387l2.546-.636q.363 1.409 1.375 2.113 1.022.705 2.67.705 1.875 0 2.977-.795 1.114-.807 1.114-1.932 0-.91-.636-1.523-.637-.625-1.955-.932l-2.909-.682q-2.397-.568-3.523-1.761-1.113-1.205-1.113-3.011 0-1.477.829-2.614.841-1.136 2.284-1.784 1.454-.648 3.296-.648 2.59 0 4.068 1.137 1.488 1.136 2.114 3m11.946-3.91v2.273h-9.046v-2.273zm-6.41-4.181h2.682V305q0 1.137.33 1.705.34.556.863.75a3.5 3.5 0 0 0 1.125.181q.444 0 .728-.045l.454-.091.546 2.409a6 6 0 0 1-.762.205q-.488.113-1.238.113-1.136 0-2.228-.488a4.4 4.4 0 0 1-1.795-1.489q-.705-1-.705-2.523zM851.381 310v-23.273h2.818V307.5h10.818v2.5zm22.772.409q-1.659 0-3.011-.625a5.2 5.2 0 0 1-2.148-1.829q-.795-1.204-.795-2.91 0-1.5.591-2.431a4.17 4.17 0 0 1 1.579-1.478 8.3 8.3 0 0 1 2.182-.795q1.204-.273 2.421-.432 1.59-.204 2.579-.307 1-.113 1.455-.375.466-.261.466-.909v-.091q0-1.682-.921-2.613-.909-.933-2.761-.932-1.92 0-3.012.841-1.09.84-1.534 1.795l-2.545-.909q.681-1.591 1.818-2.477a6.8 6.8 0 0 1 2.5-1.25 10.4 10.4 0 0 1 2.682-.364q.84 0 1.932.205a6.2 6.2 0 0 1 2.125.807q1.034.613 1.716 1.852t.681 3.318V310h-2.681v-2.364h-.137q-.273.568-.909 1.216t-1.693 1.103q-1.057.454-2.58.454m.409-2.409q1.592 0 2.682-.625 1.102-.625 1.659-1.614a4.1 4.1 0 0 0 .569-2.079v-2.455q-.171.205-.75.375-.569.16-1.319.284-.738.114-1.443.205-.693.08-1.125.136-1.045.137-1.954.443-.899.296-1.455.898-.545.591-.545 1.614 0 1.398 1.034 2.113 1.045.705 2.647.705m12.486 2v-17.455h2.591v2.637h.182q.477-1.296 1.727-2.102 1.25-.807 2.818-.807.296 0 .739.011.444.012.671.034v2.727a9 9 0 0 0-.625-.102 6 6 0 0 0-1.012-.079q-1.272 0-2.273.534a4.03 4.03 0 0 0-1.568 1.454q-.568.921-.568 2.103V310zm18.421 6.909q-1.943 0-3.341-.5-1.397-.489-2.33-1.295-.92-.796-1.466-1.705l2.137-1.5q.363.477.92 1.091.557.625 1.523 1.08.977.465 2.557.465 2.114 0 3.488-1.022t1.375-3.205v-3.545h-.227q-.295.477-.841 1.182-.534.693-1.545 1.238-1 .534-2.705.534-2.114 0-3.795-1-1.67-1-2.648-2.909-.966-1.91-.966-4.636 0-2.682.943-4.671.943-2 2.625-3.091 1.682-1.101 3.887-1.102 1.705 0 2.704.568 1.011.558 1.546 1.273.545.705.841 1.159h.272v-2.773h2.591V310.5q0 2.25-1.023 3.659-1.011 1.42-2.727 2.08-1.704.67-3.795.67m-.091-9.591q1.614 0 2.727-.738 1.114-.74 1.693-2.125.58-1.387.58-3.319 0-1.886-.568-3.329-.569-1.443-1.682-2.262-1.114-.818-2.75-.818-1.705 0-2.841.864-1.125.864-1.693 2.318-.557 1.455-.557 3.227 0 1.818.568 3.216.58 1.387 1.705 2.182 1.136.784 2.818.784m19.863 3.046q-2.522 0-4.352-1.114-1.818-1.125-2.807-3.136-.977-2.023-.977-4.705t.977-4.727q.989-2.057 2.75-3.205 1.773-1.159 4.137-1.159 1.364 0 2.693.455a6.7 6.7 0 0 1 2.42 1.477q1.091 1.011 1.739 2.682.648 1.67.648 4.113v1.137h-13.455v-2.318h10.727q0-1.478-.59-2.637a4.46 4.46 0 0 0-1.66-1.829q-1.068-.67-2.522-.671-1.602 0-2.773.796a5.2 5.2 0 0 0-1.784 2.045 6 6 0 0 0-.625 2.705v1.545q0 1.977.682 3.352.693 1.365 1.92 2.08 1.227.705 2.852.705 1.057 0 1.91-.296a4.1 4.1 0 0 0 1.488-.909q.625-.614.966-1.523l2.591.728a5.75 5.75 0 0 1-1.375 2.318q-.966.988-2.386 1.545-1.42.546-3.194.546m23.671-13.909-2.409.681a4.5 4.5 0 0 0-.671-1.17q-.43-.58-1.181-.955-.75-.375-1.921-.375-1.602 0-2.67.739-1.057.727-1.057 1.852 0 1 .727 1.58.728.579 2.273.966l2.591.636q2.34.568 3.488 1.739 1.149 1.159 1.148 2.988 0 1.5-.864 2.682-.852 1.182-2.386 1.864t-3.568.682q-2.67 0-4.421-1.159-1.75-1.16-2.215-3.387l2.545-.636q.364 1.409 1.375 2.113 1.023.705 2.67.705 1.875 0 2.978-.795 1.113-.807 1.113-1.932 0-.91-.636-1.523-.636-.625-1.955-.932l-2.909-.682q-2.397-.568-3.522-1.761-1.114-1.205-1.114-3.011 0-1.477.83-2.614.84-1.136 2.284-1.784 1.454-.648 3.295-.648 2.59 0 4.068 1.137 1.489 1.136 2.114 3m11.946-3.91v2.273h-9.046v-2.273zm-6.409-4.181h2.682V305q0 1.137.329 1.705.341.556.864.75.534.181 1.125.181.443 0 .727-.045l.455-.091.545 2.409a6 6 0 0 1-.761.205q-.489.113-1.239.113-1.136 0-2.227-.488a4.43 4.43 0 0 1-1.796-1.489q-.704-1-.704-2.523z"/><path fill="#fff" d="M175.942 136.909V166h-3.523v-25.398h-.17l-7.103 4.716v-3.579l7.273-4.83zm17.855 29.489q-3.21 0-5.469-1.747-2.258-1.762-3.452-5.1-1.193-3.353-1.193-8.096 0-4.716 1.193-8.054 1.208-3.353 3.466-5.114 2.273-1.776 5.455-1.776t5.44 1.776q2.273 1.761 3.466 5.114 1.208 3.338 1.208 8.054 0 4.743-1.194 8.096-1.193 3.338-3.451 5.1-2.259 1.746-5.469 1.747m0-3.125q3.182 0 4.943-3.068 1.761-3.07 1.761-8.75 0-3.779-.809-6.435-.797-2.656-2.301-4.048-1.493-1.392-3.594-1.392-3.153 0-4.929 3.11-1.776 3.097-1.776 8.765 0 3.778.796 6.42.795 2.642 2.287 4.02 1.506 1.377 3.622 1.378M296.332 136.909V166h-3.522v-25.398h-.171l-7.102 4.716v-3.579l7.273-4.83zM304.699 166v-2.557l9.602-10.511a67 67 0 0 0 2.784-3.21q1.094-1.379 1.62-2.586a6.3 6.3 0 0 0 .539-2.556q0-1.535-.738-2.657-.725-1.121-1.989-1.733-1.265-.61-2.841-.61-1.676 0-2.926.696a4.8 4.8 0 0 0-1.918 1.917q-.667 1.236-.667 2.898h-3.353q0-2.557 1.179-4.489a8.2 8.2 0 0 1 3.211-3.011q2.045-1.08 4.588-1.08 2.556 0 4.531 1.08t3.097 2.912 1.122 4.077q0 1.605-.583 3.139-.567 1.52-1.988 3.395-1.407 1.86-3.907 4.545l-6.534 6.989v.227h13.523V166zM217.454 24.276q-.17-1.719-1.463-2.67-1.293-.953-3.508-.953-1.506 0-2.543.427-1.037.412-1.591 1.15a2.77 2.77 0 0 0-.54 1.676q-.028.782.327 1.364a3.4 3.4 0 0 0 1.009 1.008q.639.413 1.477.725.838.299 1.79.511l2.613.625a18.5 18.5 0 0 1 3.495 1.137q1.59.71 2.755 1.747a7.25 7.25 0 0 1 1.804 2.443q.654 1.406.668 3.224-.014 2.67-1.364 4.631-1.335 1.946-3.863 3.026-2.515 1.065-6.066 1.065-3.522 0-6.136-1.08-2.6-1.08-4.063-3.196-1.449-2.13-1.52-5.27h5.952q.1 1.463.838 2.444.753.965 2.003 1.463 1.265.483 2.855.483 1.563 0 2.713-.455 1.165-.454 1.804-1.264a2.92 2.92 0 0 0 .639-1.86q0-.98-.582-1.649-.568-.667-1.676-1.136-1.094-.469-2.685-.852l-3.167-.796q-3.68-.894-5.81-2.798t-2.117-5.128q-.013-2.642 1.407-4.616 1.434-1.975 3.934-3.083 2.5-1.107 5.682-1.108 3.239 0 5.654 1.108 2.428 1.108 3.778 3.083 1.35 1.974 1.392 4.574zm20.174 21.15q-3.309 0-5.724-1.406-2.4-1.42-3.708-3.949-1.306-2.543-1.306-5.895 0-3.38 1.306-5.909 1.307-2.542 3.708-3.949 2.415-1.42 5.724-1.42t5.71 1.42q2.415 1.407 3.722 3.949 1.307 2.528 1.307 5.91 0 3.351-1.307 5.894-1.307 2.529-3.722 3.949-2.4 1.406-5.71 1.406m.029-4.687q1.504 0 2.514-.853 1.008-.866 1.52-2.358.525-1.49.525-3.395 0-1.902-.525-3.394-.512-1.492-1.52-2.358-1.01-.867-2.514-.867-1.52 0-2.557.867-1.023.866-1.549 2.358-.51 1.492-.511 3.394 0 1.904.511 3.395.526 1.492 1.549 2.358 1.036.853 2.557.853M252.301 45V23.182h5.867v3.807h.227q.597-2.032 2.003-3.068 1.407-1.052 3.239-1.052.454 0 .98.057.525.057.923.156v5.37a8 8 0 0 0-1.179-.228q-.753-.099-1.378-.099-1.335 0-2.386.582a4.3 4.3 0 0 0-1.648 1.591q-.597 1.023-.596 2.358V45zm29.067-21.818v4.545h-13.14v-4.545zm-10.157-5.227h6.051v20.34q0 .84.256 1.307.256.454.71.64.47.184 1.08.184.426 0 .852-.07.426-.086.654-.129l.951 4.503q-.454.143-1.278.327-.824.198-2.003.241-2.188.086-3.835-.582-1.634-.667-2.543-2.074t-.895-3.551zm23.807 27.471q-3.366 0-5.795-1.364-2.415-1.377-3.722-3.892-1.307-2.527-1.307-5.98 0-3.366 1.307-5.909t3.679-3.963q2.386-1.42 5.597-1.42 2.159 0 4.02.696a8.9 8.9 0 0 1 3.267 2.06q1.406 1.377 2.187 3.465.781 2.074.781 4.858v1.662h-18.423v-3.75h12.727q0-1.307-.568-2.315a4.07 4.07 0 0 0-1.577-1.577q-.993-.582-2.315-.582-1.378 0-2.443.639-1.051.625-1.648 1.69-.596 1.051-.611 2.344v3.565q0 1.62.597 2.799.61 1.179 1.719 1.818 1.107.64 2.628.64 1.008 0 1.846-.285a3.8 3.8 0 0 0 1.435-.852q.597-.57.909-1.392l5.596.369a7.64 7.64 0 0 1-1.747 3.523q-1.307 1.49-3.38 2.33-2.06.823-4.759.823m22.003-.07q-2.486 0-4.503-1.28-2.003-1.291-3.182-3.792-1.164-2.514-1.164-6.165 0-3.75 1.207-6.235 1.207-2.5 3.21-3.736a8.23 8.23 0 0 1 4.418-1.25q1.831 0 3.054.625 1.236.61 1.988 1.534.768.91 1.165 1.79h.185V15.909h6.037V45h-5.966v-3.494h-.256a7.8 7.8 0 0 1-1.207 1.804q-.767.88-2.003 1.463-1.221.582-2.983.582m1.918-4.816q1.463 0 2.471-.796 1.023-.81 1.563-2.258.554-1.45.554-3.395t-.54-3.38-1.563-2.217q-1.022-.78-2.485-.78-1.492 0-2.515.809-1.022.81-1.548 2.244-.525 1.435-.526 3.324 0 1.904.526 3.366.54 1.45 1.548 2.273 1.023.81 2.515.81m49.176-24.63V45h-5.313l-12.656-18.31h-.213V45h-6.151V15.91h5.398l12.557 18.295h.256V15.909zm18.959 19.8V23.182h6.051V45h-5.809v-3.963h-.228a6.44 6.44 0 0 1-2.457 3.082q-1.705 1.165-4.162 1.165-2.187 0-3.849-.994t-2.6-2.827q-.923-1.832-.937-4.39V23.183h6.051v12.812q.014 1.932 1.037 3.054t2.741 1.122q1.094 0 2.046-.497a3.9 3.9 0 0 0 1.534-1.505q.597-.994.582-2.458M397.966 45V23.182h5.767v3.85h.255q.682-1.92 2.273-3.026 1.591-1.108 3.807-1.108 2.244 0 3.821 1.122 1.577 1.108 2.102 3.011h.227q.667-1.875 2.415-2.997 1.762-1.136 4.162-1.136 3.055 0 4.957 1.946 1.918 1.932 1.918 5.483V45h-6.037V31.52q0-1.818-.966-2.727-.966-.91-2.415-.91-1.647 0-2.571 1.052-.923 1.036-.923 2.741V45h-5.866V31.392q0-1.605-.924-2.557-.909-.951-2.4-.951a3.33 3.33 0 0 0-1.818.51q-.796.498-1.265 1.407-.468.896-.468 2.102V45zm36.598 0V15.91h6.051v10.937h.184q.399-.882 1.151-1.79.767-.924 1.989-1.534 1.235-.625 3.068-.625a8.2 8.2 0 0 1 4.403 1.25q2.018 1.236 3.225 3.736 1.207 2.485 1.207 6.235 0 3.651-1.179 6.165-1.165 2.5-3.182 3.793-2.002 1.278-4.488 1.278-1.762 0-2.998-.582-1.221-.583-2.002-1.463-.781-.895-1.194-1.804h-.27V45zm5.923-10.91q0 1.947.54 3.396.539 1.45 1.562 2.258 1.023.795 2.486.796 1.477 0 2.5-.81 1.023-.825 1.548-2.273.54-1.462.54-3.366 0-1.89-.526-3.324-.525-1.434-1.548-2.244t-2.514-.81q-1.477 0-2.5.781-1.009.782-1.548 2.216-.54 1.436-.54 3.38m29.336 11.336q-3.367 0-5.796-1.364-2.415-1.377-3.721-3.892-1.307-2.527-1.307-5.98 0-3.366 1.307-5.909t3.679-3.963q2.386-1.42 5.596-1.42 2.16 0 4.02.696a8.9 8.9 0 0 1 3.267 2.06q1.407 1.377 2.188 3.465.781 2.074.781 4.858v1.662h-18.423v-3.75h12.727q0-1.307-.568-2.315a4.07 4.07 0 0 0-1.577-1.577q-.995-.582-2.315-.582-1.378 0-2.443.639-1.051.625-1.648 1.69-.597 1.051-.611 2.344v3.565q0 1.62.597 2.799.61 1.179 1.718 1.818 1.108.64 2.628.64 1.009 0 1.847-.285a3.8 3.8 0 0 0 1.434-.852q.597-.57.91-1.392l5.596.369a7.64 7.64 0 0 1-1.747 3.523q-1.306 1.49-3.381 2.33-2.06.823-4.758.823M483.786 45V23.182h5.866v3.807h.228q.596-2.032 2.002-3.068 1.407-1.052 3.239-1.052.455 0 .98.057.526.057.924.156v5.37a8 8 0 0 0-1.179-.228 11 11 0 0 0-1.378-.099q-1.335 0-2.387.582-1.036.57-1.647 1.591-.597 1.023-.597 2.358V45zm34.52-15.597-5.539.341a2.9 2.9 0 0 0-.611-1.278 3.25 3.25 0 0 0-1.236-.923q-.753-.355-1.804-.355-1.406 0-2.372.596-.966.583-.966 1.563 0 .78.625 1.32t2.145.867l3.949.796q3.181.653 4.744 2.102t1.563 3.807q0 2.145-1.265 3.764-1.25 1.62-3.437 2.528-2.173.895-5.014.895-4.333 0-6.904-1.804-2.556-1.818-2.997-4.943l5.952-.312q.27 1.32 1.307 2.017 1.036.681 2.656.681 1.591 0 2.557-.61.98-.625.994-1.606-.014-.824-.696-1.349-.682-.54-2.102-.824l-3.779-.753q-3.196-.64-4.758-2.216-1.548-1.575-1.548-4.02 0-2.101 1.136-3.622 1.15-1.52 3.224-2.343 2.088-.825 4.887-.824 4.133 0 6.505 1.747 2.386 1.747 2.784 4.758m14.901 1.052q0-5.285 1.406-9.73a26.9 26.9 0 0 1 4.333-8.24h5.781q-1.108 1.407-2.06 3.438a31 31 0 0 0-1.662 4.432 39 39 0 0 0-1.108 5 33 33 0 0 0-.397 5.1q0 3.366.681 6.804.696 3.423 1.875 6.363 1.194 2.94 2.671 4.816h-5.781a26.9 26.9 0 0 1-4.333-8.24q-1.406-4.444-1.406-9.744M553.367 45h-6.591l10.043-29.09h7.926L574.773 45h-6.591l-7.287-22.443h-.227zm-.412-11.435h15.568v4.802h-15.568zm42.851-4.162-5.539.341a2.9 2.9 0 0 0-.611-1.278 3.25 3.25 0 0 0-1.236-.923q-.753-.355-1.804-.355-1.406 0-2.372.596-.966.583-.966 1.563 0 .78.625 1.32t2.145.867l3.949.796q3.181.653 4.744 2.102t1.563 3.807q0 2.145-1.265 3.764-1.25 1.62-3.437 2.528-2.173.895-5.014.895-4.333 0-6.904-1.804-2.556-1.818-2.997-4.943l5.952-.312q.27 1.32 1.307 2.017 1.036.681 2.656.681 1.591 0 2.557-.61.98-.625.994-1.606-.014-.824-.696-1.349-.682-.54-2.102-.824l-3.779-.753q-3.196-.64-4.758-2.216-1.548-1.575-1.548-4.02 0-2.101 1.136-3.622 1.15-1.52 3.224-2.343 2.088-.825 4.887-.824 4.133 0 6.505 1.747 2.386 1.747 2.784 4.758m14.166 16.023q-3.352 0-5.767-1.42-2.4-1.435-3.693-3.978-1.28-2.542-1.279-5.852 0-3.352 1.293-5.88 1.307-2.544 3.707-3.964 2.401-1.434 5.711-1.434 2.855 0 5 1.037t3.394 2.912 1.378 4.403h-5.71q-.241-1.633-1.278-2.628-1.023-1.008-2.685-1.008-1.407 0-2.457.767-1.037.752-1.62 2.201-.582 1.45-.582 3.509 0 2.088.568 3.551.582 1.463 1.634 2.23 1.05.767 2.457.767 1.037 0 1.861-.426a3.6 3.6 0 0 0 1.378-1.236q.553-.823.724-1.974h5.71q-.141 2.5-1.363 4.403-1.208 1.89-3.338 2.955-2.132 1.065-5.043 1.065m23.562 0q-3.367 0-5.796-1.364-2.415-1.377-3.721-3.892-1.307-2.527-1.307-5.98 0-3.366 1.307-5.909t3.679-3.963q2.386-1.42 5.596-1.42 2.16 0 4.02.696a8.9 8.9 0 0 1 3.267 2.06q1.407 1.377 2.188 3.465.781 2.074.781 4.858v1.662h-18.423v-3.75h12.727q0-1.307-.568-2.315a4.07 4.07 0 0 0-1.577-1.577q-.995-.582-2.315-.582-1.378 0-2.443.639-1.051.625-1.648 1.69-.597 1.051-.611 2.344v3.565q0 1.62.597 2.799.61 1.179 1.718 1.818 1.108.64 2.628.64 1.009 0 1.847-.285a3.8 3.8 0 0 0 1.434-.852q.597-.57.91-1.392l5.596.369a7.64 7.64 0 0 1-1.747 3.523q-1.307 1.49-3.381 2.33-2.06.823-4.758.823m20.014-13.04V45h-6.051V23.182h5.767v3.85h.256a6.08 6.08 0 0 1 2.429-3.012q1.704-1.122 4.133-1.122 2.272 0 3.963.994 1.69.994 2.628 2.841.937 1.832.937 4.375V45h-6.051V32.188q.015-2.003-1.022-3.126-1.037-1.136-2.856-1.136-1.221 0-2.159.526-.923.525-1.448 1.534-.512.995-.526 2.4m26.871 12.97q-2.486 0-4.502-1.28-2.004-1.291-3.182-3.792-1.165-2.514-1.165-6.165 0-3.75 1.207-6.235 1.207-2.5 3.211-3.736a8.2 8.2 0 0 1 4.417-1.25q1.833 0 3.054.625 1.236.61 1.989 1.534.766.91 1.165 1.79h.184V15.909h6.037V45h-5.966v-3.494h-.255a7.8 7.8 0 0 1-1.208 1.804q-.767.88-2.003 1.463-1.22.582-2.983.582m1.918-4.816q1.463 0 2.472-.796 1.022-.81 1.562-2.258.554-1.45.554-3.395t-.54-3.38-1.562-2.217-2.486-.78q-1.491 0-2.514.809-1.023.81-1.548 2.244t-.526 3.324q0 1.904.526 3.366.538 1.45 1.548 2.273 1.023.81 2.514.81M697.809 45V23.182h6.051V45zm3.04-24.63q-1.35 0-2.315-.896-.952-.909-.952-2.173 0-1.25.952-2.145.965-.909 2.315-.909t2.301.91q.966.894.966 2.144 0 1.264-.966 2.173-.951.895-2.301.895m13.91 12.016V45h-6.051V23.182h5.767v3.85h.255a6.1 6.1 0 0 1 2.429-3.012q1.705-1.122 4.134-1.122 2.273 0 3.963.994t2.628 2.841q.937 1.832.937 4.375V45h-6.051V32.188q.015-2.003-1.022-3.126-1.037-1.136-2.856-1.136-1.221 0-2.159.526-.923.525-1.449 1.534-.51.995-.525 2.4m28.661 21.25q-2.94 0-5.043-.81-2.088-.795-3.323-2.173-1.236-1.377-1.605-3.096l5.596-.753q.256.654.81 1.222.554.567 1.463.909.923.354 2.244.355 1.975 0 3.253-.966 1.293-.952 1.293-3.196v-3.992h-.256q-.398.91-1.193 1.72-.796.81-2.046 1.32-1.25.511-2.983.511-2.457 0-4.474-1.136-2.003-1.15-3.196-3.508-1.179-2.373-1.179-5.995 0-3.707 1.207-6.193t3.211-3.721a8.3 8.3 0 0 1 4.417-1.236q1.832 0 3.068.625 1.236.61 1.989 1.534.766.91 1.179 1.79h.227v-3.665h6.009v22.031q0 2.785-1.364 4.66-1.363 1.875-3.778 2.812-2.402.951-5.526.951m.128-13.494q1.463 0 2.472-.724 1.022-.74 1.562-2.103.554-1.378.554-3.295 0-1.919-.54-3.324-.54-1.42-1.562-2.202-1.023-.78-2.486-.78-1.491 0-2.514.809-1.023.795-1.549 2.216-.525 1.42-.525 3.28 0 1.89.525 3.268.54 1.363 1.549 2.116 1.023.74 2.514.739m25.554-6.804q0 5.298-1.421 9.744-1.405 4.446-4.318 8.239h-5.781q1.108-1.406 2.06-3.437a31.6 31.6 0 0 0 1.662-4.432q.71-2.415 1.108-5 .397-2.585.397-5.114 0-3.366-.696-6.79-.681-3.437-1.875-6.363-1.179-2.94-2.656-4.816h5.781q2.913 3.793 4.318 8.239 1.42 4.446 1.421 9.73M416.961 136.909V166h-3.522v-25.398h-.171l-7.102 4.716v-3.579l7.273-4.83zm17.628-.398q1.79.015 3.58.682 1.79.668 3.267 2.216 1.477 1.535 2.372 4.19.894 2.657.895 6.662 0 3.879-.739 6.89-.725 2.997-2.102 5.056-1.363 2.06-3.324 3.125-1.946 1.066-4.403 1.066-2.444 0-4.361-.966a8.56 8.56 0 0 1-3.125-2.713q-1.207-1.747-1.549-4.049h3.466q.47 2.004 1.861 3.31 1.406 1.293 3.708 1.293 3.366 0 5.312-2.941 1.96-2.94 1.96-8.309h-.227a8.9 8.9 0 0 1-1.889 2.059 8.3 8.3 0 0 1-2.429 1.336 8.5 8.5 0 0 1-2.841.468q-2.5 0-4.588-1.235-2.074-1.25-3.324-3.424-1.236-2.187-1.236-5 0-2.67 1.193-4.886a9.2 9.2 0 0 1 3.381-3.551q2.187-1.321 5.142-1.279m0 3.125q-1.79 0-3.224.895a6.44 6.44 0 0 0-2.259 2.387q-.824 1.491-.824 3.309t.796 3.31a6.35 6.35 0 0 0 2.201 2.358q1.407.867 3.196.866 1.35 0 2.515-.525a6.5 6.5 0 0 0 2.031-1.463 7.1 7.1 0 0 0 1.378-2.117 6.4 6.4 0 0 0 .497-2.486 6.5 6.5 0 0 0-.824-3.196 6.54 6.54 0 0 0-2.244-2.414q-1.42-.924-3.239-.924M527.105 166v-2.557l9.602-10.511a67 67 0 0 0 2.784-3.21q1.094-1.379 1.62-2.586.54-1.221.54-2.556 0-1.535-.739-2.657-.724-1.121-1.989-1.733-1.264-.61-2.841-.61-1.675 0-2.926.696a4.8 4.8 0 0 0-1.917 1.917q-.668 1.236-.668 2.898h-3.352q0-2.557 1.179-4.489a8.2 8.2 0 0 1 3.21-3.011q2.046-1.08 4.588-1.08 2.557 0 4.531 1.08 1.975 1.08 3.097 2.912t1.122 4.077q0 1.605-.582 3.139-.569 1.52-1.989 3.395-1.406 1.86-3.906 4.545l-6.534 6.989v.227h13.522V166zm34.446-29.091V166h-3.523v-25.398h-.17l-7.102 4.716v-3.579l7.272-4.83zM644.976 166v-2.557l9.602-10.511a67 67 0 0 0 2.785-3.21q1.094-1.379 1.619-2.586.54-1.221.54-2.556 0-1.535-.739-2.657-.724-1.121-1.989-1.733-1.263-.61-2.841-.61-1.675 0-2.926.696a4.8 4.8 0 0 0-1.917 1.917q-.668 1.236-.668 2.898h-3.352q0-2.557 1.179-4.489a8.2 8.2 0 0 1 3.21-3.011q2.046-1.08 4.588-1.08 2.557 0 4.531 1.08 1.975 1.08 3.097 2.912t1.122 4.077q0 1.605-.582 3.139-.568 1.52-1.989 3.395-1.406 1.86-3.906 4.545l-6.534 6.989v.227h13.522V166zm25.128 0 13.011-25.739v-.227h-15v-3.125h18.637v3.296L673.797 166zM773.497 166.398q-2.812 0-5.014-.966-2.187-.966-3.48-2.685-1.278-1.733-1.392-4.02h3.579q.114 1.407.966 2.429.852 1.009 2.23 1.563t3.054.554q1.875 0 3.324-.654 1.45-.653 2.273-1.818.824-1.164.824-2.699 0-1.605-.796-2.826-.795-1.236-2.329-1.932t-3.75-.696h-2.33v-3.125h2.33q1.732 0 3.04-.625 1.32-.625 2.059-1.762.753-1.136.753-2.67 0-1.478-.653-2.571-.654-1.093-1.847-1.705-1.179-.61-2.784-.61a7.3 7.3 0 0 0-2.841.554q-1.321.539-2.159 1.576-.838 1.023-.909 2.472h-3.409q.085-2.287 1.378-4.006 1.292-1.733 3.38-2.699 2.103-.966 4.617-.966 2.699 0 4.63 1.094 1.932 1.08 2.969 2.855a7.47 7.47 0 0 1 1.037 3.835q0 2.458-1.292 4.191-1.28 1.733-3.481 2.4v.228q2.757.454 4.304 2.343 1.55 1.876 1.549 4.645 0 2.373-1.293 4.262-1.278 1.874-3.494 2.954t-5.043 1.08m15.639-.398v-2.557l9.603-10.511a67 67 0 0 0 2.784-3.21q1.094-1.379 1.619-2.586.54-1.221.54-2.556 0-1.535-.739-2.657-.725-1.121-1.988-1.733-1.264-.61-2.841-.61-1.677 0-2.926.696a4.8 4.8 0 0 0-1.918 1.917q-.668 1.236-.668 2.898h-3.352q0-2.557 1.179-4.489a8.2 8.2 0 0 1 3.21-3.011q2.046-1.08 4.588-1.08 2.557 0 4.532 1.08 1.974 1.08 3.096 2.912t1.122 4.077q0 1.605-.582 3.139-.569 1.52-1.989 3.395-1.406 1.86-3.906 4.545l-6.534 6.989v.227h13.523V166zM883.572 160.034v-2.898l12.784-20.227h2.102v4.489h-1.42l-9.659 15.284v.227h17.215v3.125zM897.265 166v-29.091h3.352V166zm13.562 0 13.011-25.739v-.227h-15v-3.125h18.636v3.296L914.52 166z"/><path fill="#717171" d="M967.061 260.061a1.5 1.5 0 0 0 0-2.122l-9.546-9.546a1.5 1.5 0 0 0-2.122 0 1.5 1.5 0 0 0 0 2.122l8.486 8.485-8.486 8.485a1.5 1.5 0 0 0 0 2.122 1.5 1.5 0 0 0 2.122 0zM966 259v-1.5H5v3h961z"/></svg>