<svg width="968" height="318" viewBox="0 0 968 318" fill="none" xmlns="http://www.w3.org/2000/svg">
<rect x="6" y="92" width="959" height="120" rx="26" stroke="#DBDBDB" stroke-width="2"/>
<line x1="126" y1="91" x2="126" y2="213" stroke="#DBDBDB" stroke-width="2"/>
<line x1="246" y1="91" x2="246" y2="213" stroke="#DBDBDB" stroke-width="2"/>
<line x1="367" y1="91" x2="367" y2="213" stroke="#DBDBDB" stroke-width="2"/>
<line x1="487" y1="91" x2="487" y2="213" stroke="#DBDBDB" stroke-width="2"/>
<line x1="607" y1="91" x2="607" y2="213" stroke="#DBDBDB" stroke-width="2"/>
<line x1="727" y1="91" x2="727" y2="213" stroke="#DBDBDB" stroke-width="2"/>
<line x1="847" y1="91" x2="847" y2="213" stroke="#DBDBDB" stroke-width="2"/>
<path d="M64.4343 166.398C62.7676 166.398 61.2667 166.066 59.9315 165.403C58.5962 164.741 57.5262 163.831 56.7212 162.676C55.9163 161.521 55.476 160.205 55.4002 158.727H58.8093C58.9419 160.044 59.5385 161.133 60.5991 161.994C61.6692 162.847 62.9476 163.273 64.4343 163.273C65.6275 163.273 66.6881 162.993 67.6161 162.435C68.5536 161.876 69.2875 161.109 69.8178 160.134C70.3576 159.149 70.6275 158.036 70.6275 156.795C70.6275 155.527 70.3481 154.395 69.7894 153.401C69.2402 152.397 68.4826 151.606 67.5167 151.028C66.5508 150.451 65.4476 150.157 64.207 150.148C63.3169 150.138 62.4031 150.276 61.4656 150.56C60.5281 150.834 59.7563 151.189 59.1502 151.625L55.8548 151.227L57.6161 136.909H72.7298V140.034H60.5707L59.5479 148.614H59.7184C60.315 148.14 61.0631 147.747 61.9627 147.435C62.8623 147.122 63.7998 146.966 64.7752 146.966C66.5555 146.966 68.1417 147.392 69.5337 148.244C70.9353 149.087 72.0337 150.242 72.8292 151.71C73.6341 153.178 74.0366 154.854 74.0366 156.739C74.0366 158.595 73.6199 160.252 72.7866 161.71C71.9627 163.159 70.8263 164.305 69.3775 165.148C67.9286 165.981 66.2809 166.398 64.4343 166.398Z" fill="white"/>
<path d="M15.8423 292.545C15.706 291.394 15.1529 290.5 14.1832 289.864C13.2135 289.227 12.0241 288.909 10.6151 288.909C9.58475 288.909 8.68324 289.076 7.91051 289.409C7.14536 289.742 6.54688 290.201 6.11506 290.784C5.69081 291.367 5.47869 292.03 5.47869 292.773C5.47869 293.394 5.62642 293.928 5.92188 294.375C6.22491 294.814 6.61127 295.182 7.08097 295.477C7.55066 295.765 8.04309 296.004 8.55824 296.193C9.07339 296.375 9.54688 296.523 9.97869 296.636L12.3423 297.273C12.9484 297.432 13.6226 297.652 14.3651 297.932C15.1151 298.212 15.831 298.595 16.5128 299.08C17.2022 299.557 17.7704 300.17 18.2173 300.92C18.6643 301.67 18.8878 302.591 18.8878 303.682C18.8878 304.939 18.5582 306.076 17.8991 307.091C17.2476 308.106 16.2931 308.913 15.0355 309.511C13.7855 310.11 12.2666 310.409 10.4787 310.409C8.81203 310.409 7.36884 310.14 6.14915 309.602C4.93703 309.064 3.98248 308.314 3.28551 307.352C2.59612 306.39 2.20597 305.273 2.11506 304H5.02415C5.09991 304.879 5.39536 305.606 5.91051 306.182C6.43324 306.75 7.09233 307.174 7.88778 307.455C8.69081 307.727 9.55445 307.864 10.4787 307.864C11.5545 307.864 12.5204 307.689 13.3764 307.341C14.2325 306.985 14.9105 306.492 15.4105 305.864C15.9105 305.227 16.1605 304.485 16.1605 303.636C16.1605 302.864 15.9446 302.235 15.5128 301.75C15.081 301.265 14.5128 300.871 13.8082 300.568C13.1037 300.265 12.3423 300 11.5241 299.773L8.66051 298.955C6.84233 298.432 5.40294 297.686 4.34233 296.716C3.28172 295.746 2.75142 294.477 2.75142 292.909C2.75142 291.606 3.10369 290.47 3.80824 289.5C4.52036 288.523 5.47491 287.765 6.67188 287.227C7.87642 286.682 9.22112 286.409 10.706 286.409C12.206 286.409 13.5393 286.678 14.706 287.216C15.8726 287.746 16.7969 288.473 17.4787 289.398C18.1681 290.322 18.5317 291.371 18.5696 292.545H15.8423ZM23.1577 310V292.545H25.7486V295.273H25.9759C26.3395 294.341 26.9266 293.617 27.7372 293.102C28.5478 292.58 29.5213 292.318 30.6577 292.318C31.8092 292.318 32.7675 292.58 33.5327 293.102C34.3054 293.617 34.9077 294.341 35.3395 295.273H35.5213C35.9683 294.371 36.6387 293.655 37.5327 293.125C38.4266 292.587 39.4986 292.318 40.7486 292.318C42.3092 292.318 43.5857 292.807 44.5781 293.784C45.5706 294.754 46.0668 296.265 46.0668 298.318V310H43.3849V298.318C43.3849 297.03 43.0327 296.11 42.3281 295.557C41.6236 295.004 40.794 294.727 39.8395 294.727C38.6122 294.727 37.6615 295.098 36.9872 295.841C36.313 296.576 35.9759 297.508 35.9759 298.636V310H33.2486V298.045C33.2486 297.053 32.9266 296.254 32.2827 295.648C31.6387 295.034 30.8092 294.727 29.794 294.727C29.0971 294.727 28.4455 294.913 27.8395 295.284C27.241 295.655 26.7562 296.17 26.3849 296.83C26.0213 297.481 25.8395 298.235 25.8395 299.091V310H23.1577ZM56.1065 310.409C55.0005 310.409 53.9967 310.201 53.0952 309.784C52.1937 309.36 51.4777 308.75 50.9474 307.955C50.4171 307.152 50.152 306.182 50.152 305.045C50.152 304.045 50.349 303.235 50.7429 302.614C51.1368 301.985 51.6634 301.492 52.3224 301.136C52.9815 300.78 53.7088 300.515 54.5043 300.341C55.3073 300.159 56.1141 300.015 56.9247 299.909C57.9853 299.773 58.8452 299.67 59.5043 299.602C60.1709 299.527 60.6558 299.402 60.9588 299.227C61.2694 299.053 61.4247 298.75 61.4247 298.318V298.227C61.4247 297.106 61.1179 296.235 60.5043 295.614C59.8982 294.992 58.9777 294.682 57.7429 294.682C56.4626 294.682 55.4588 294.962 54.7315 295.523C54.0043 296.083 53.4929 296.682 53.1974 297.318L50.652 296.409C51.1065 295.348 51.7126 294.523 52.4702 293.932C53.2353 293.333 54.0687 292.917 54.9702 292.682C55.8793 292.439 56.7732 292.318 57.652 292.318C58.2126 292.318 58.8565 292.386 59.5838 292.523C60.3187 292.652 61.027 292.92 61.7088 293.33C62.3982 293.739 62.9702 294.356 63.4247 295.182C63.8793 296.008 64.1065 297.114 64.1065 298.5V310H61.4247V307.636H61.2884C61.1065 308.015 60.8035 308.42 60.3793 308.852C59.955 309.284 59.3906 309.652 58.6861 309.955C57.9815 310.258 57.1217 310.409 56.1065 310.409ZM56.5156 308C57.5762 308 58.4702 307.792 59.1974 307.375C59.9323 306.958 60.4853 306.42 60.8565 305.761C61.2353 305.102 61.4247 304.409 61.4247 303.682V301.227C61.3111 301.364 61.0611 301.489 60.6747 301.602C60.2959 301.708 59.8565 301.803 59.3565 301.886C58.8641 301.962 58.383 302.03 57.9134 302.091C57.4512 302.144 57.0762 302.189 56.7884 302.227C56.0914 302.318 55.4399 302.466 54.8338 302.67C54.2353 302.867 53.7505 303.167 53.3793 303.568C53.0156 303.962 52.8338 304.5 52.8338 305.182C52.8338 306.114 53.1785 306.818 53.8679 307.295C54.5649 307.765 55.4474 308 56.5156 308ZM71.6832 286.727V310H69.0014V286.727H71.6832ZM79.277 286.727V310H76.5952V286.727H79.277ZM91.5071 310.364C89.8253 310.364 88.3745 309.992 87.1548 309.25C85.9427 308.5 85.0071 307.455 84.348 306.114C83.6965 304.765 83.3707 303.197 83.3707 301.409C83.3707 299.621 83.6965 298.045 84.348 296.682C85.0071 295.311 85.9238 294.242 87.098 293.477C88.2798 292.705 89.6586 292.318 91.2344 292.318C92.1435 292.318 93.0412 292.47 93.9276 292.773C94.8139 293.076 95.6207 293.568 96.348 294.25C97.0753 294.924 97.6548 295.818 98.0866 296.932C98.5185 298.045 98.7344 299.417 98.7344 301.045V302.182H85.2798V299.864H96.0071C96.0071 298.879 95.8101 298 95.4162 297.227C95.0298 296.455 94.4768 295.845 93.7571 295.398C93.045 294.951 92.2041 294.727 91.2344 294.727C90.1662 294.727 89.242 294.992 88.4616 295.523C87.6889 296.045 87.0942 296.727 86.6776 297.568C86.2609 298.409 86.0526 299.311 86.0526 300.273V301.818C86.0526 303.136 86.2798 304.254 86.7344 305.17C87.1965 306.08 87.8366 306.773 88.6548 307.25C89.473 307.72 90.4238 307.955 91.5071 307.955C92.2116 307.955 92.848 307.856 93.4162 307.659C93.992 307.455 94.4882 307.152 94.9048 306.75C95.3215 306.341 95.6435 305.833 95.8707 305.227L98.4616 305.955C98.1889 306.833 97.7306 307.606 97.0866 308.273C96.4427 308.932 95.6473 309.447 94.7003 309.818C93.7533 310.182 92.6889 310.364 91.5071 310.364ZM115.178 296.455L112.768 297.136C112.617 296.735 112.393 296.345 112.098 295.966C111.81 295.58 111.416 295.261 110.916 295.011C110.416 294.761 109.776 294.636 108.996 294.636C107.928 294.636 107.037 294.883 106.325 295.375C105.621 295.86 105.268 296.477 105.268 297.227C105.268 297.894 105.511 298.42 105.996 298.807C106.481 299.193 107.238 299.515 108.268 299.773L110.859 300.409C112.42 300.788 113.583 301.367 114.348 302.148C115.113 302.92 115.496 303.917 115.496 305.136C115.496 306.136 115.208 307.03 114.632 307.818C114.064 308.606 113.268 309.227 112.246 309.682C111.223 310.136 110.034 310.364 108.678 310.364C106.897 310.364 105.424 309.977 104.257 309.205C103.09 308.432 102.352 307.303 102.041 305.818L104.587 305.182C104.829 306.121 105.287 306.826 105.962 307.295C106.643 307.765 107.534 308 108.632 308C109.882 308 110.875 307.735 111.609 307.205C112.352 306.667 112.723 306.023 112.723 305.273C112.723 304.667 112.511 304.159 112.087 303.75C111.662 303.333 111.011 303.023 110.132 302.818L107.223 302.136C105.625 301.758 104.45 301.17 103.7 300.375C102.958 299.572 102.587 298.568 102.587 297.364C102.587 296.379 102.863 295.508 103.416 294.75C103.977 293.992 104.738 293.398 105.7 292.966C106.67 292.534 107.768 292.318 108.996 292.318C110.723 292.318 112.079 292.697 113.064 293.455C114.056 294.212 114.761 295.212 115.178 296.455ZM127.124 292.545V294.818H118.078V292.545H127.124ZM120.714 288.364H123.396V305C123.396 305.758 123.506 306.326 123.726 306.705C123.953 307.076 124.241 307.326 124.589 307.455C124.946 307.576 125.321 307.636 125.714 307.636C126.01 307.636 126.252 307.621 126.442 307.591C126.631 307.553 126.783 307.523 126.896 307.5L127.442 309.909C127.26 309.977 127.006 310.045 126.68 310.114C126.355 310.189 125.942 310.227 125.442 310.227C124.684 310.227 123.942 310.064 123.214 309.739C122.495 309.413 121.896 308.917 121.419 308.25C120.949 307.583 120.714 306.742 120.714 305.727V288.364Z" fill="#717171"/>
<path d="M851.381 310V286.727H854.199V307.5H865.017V310H851.381ZM874.153 310.409C873.047 310.409 872.044 310.201 871.142 309.784C870.241 309.36 869.525 308.75 868.994 307.955C868.464 307.152 868.199 306.182 868.199 305.045C868.199 304.045 868.396 303.235 868.79 302.614C869.184 301.985 869.71 301.492 870.369 301.136C871.028 300.78 871.756 300.515 872.551 300.341C873.354 300.159 874.161 300.015 874.972 299.909C876.032 299.773 876.892 299.67 877.551 299.602C878.218 299.527 878.703 299.402 879.006 299.227C879.316 299.053 879.472 298.75 879.472 298.318V298.227C879.472 297.106 879.165 296.235 878.551 295.614C877.945 294.992 877.025 294.682 875.79 294.682C874.509 294.682 873.506 294.962 872.778 295.523C872.051 296.083 871.54 296.682 871.244 297.318L868.699 296.409C869.153 295.348 869.759 294.523 870.517 293.932C871.282 293.333 872.116 292.917 873.017 292.682C873.926 292.439 874.82 292.318 875.699 292.318C876.259 292.318 876.903 292.386 877.631 292.523C878.366 292.652 879.074 292.92 879.756 293.33C880.445 293.739 881.017 294.356 881.472 295.182C881.926 296.008 882.153 297.114 882.153 298.5V310H879.472V307.636H879.335C879.153 308.015 878.85 308.42 878.426 308.852C878.002 309.284 877.438 309.652 876.733 309.955C876.028 310.258 875.169 310.409 874.153 310.409ZM874.562 308C875.623 308 876.517 307.792 877.244 307.375C877.979 306.958 878.532 306.42 878.903 305.761C879.282 305.102 879.472 304.409 879.472 303.682V301.227C879.358 301.364 879.108 301.489 878.722 301.602C878.343 301.708 877.903 301.803 877.403 301.886C876.911 301.962 876.43 302.03 875.96 302.091C875.498 302.144 875.123 302.189 874.835 302.227C874.138 302.318 873.487 302.466 872.881 302.67C872.282 302.867 871.797 303.167 871.426 303.568C871.063 303.962 870.881 304.5 870.881 305.182C870.881 306.114 871.225 306.818 871.915 307.295C872.612 307.765 873.494 308 874.562 308ZM887.048 310V292.545H889.639V295.182H889.821C890.139 294.318 890.715 293.617 891.548 293.08C892.382 292.542 893.321 292.273 894.366 292.273C894.563 292.273 894.81 292.277 895.105 292.284C895.401 292.292 895.624 292.303 895.776 292.318V295.045C895.685 295.023 895.476 294.989 895.151 294.943C894.832 294.89 894.495 294.864 894.139 294.864C893.291 294.864 892.533 295.042 891.866 295.398C891.207 295.746 890.685 296.231 890.298 296.852C889.92 297.466 889.73 298.167 889.73 298.955V310H887.048ZM905.469 316.909C904.173 316.909 903.06 316.742 902.128 316.409C901.196 316.083 900.42 315.652 899.798 315.114C899.185 314.583 898.696 314.015 898.332 313.409L900.469 311.909C900.711 312.227 901.018 312.591 901.389 313C901.76 313.417 902.268 313.777 902.912 314.08C903.563 314.39 904.416 314.545 905.469 314.545C906.878 314.545 908.041 314.205 908.957 313.523C909.874 312.841 910.332 311.773 910.332 310.318V306.773H910.105C909.908 307.091 909.628 307.485 909.264 307.955C908.908 308.417 908.393 308.83 907.719 309.193C907.052 309.549 906.151 309.727 905.014 309.727C903.605 309.727 902.34 309.394 901.219 308.727C900.105 308.061 899.223 307.091 898.571 305.818C897.927 304.545 897.605 303 897.605 301.182C897.605 299.394 897.92 297.837 898.548 296.511C899.177 295.178 900.052 294.148 901.173 293.42C902.295 292.686 903.59 292.318 905.06 292.318C906.196 292.318 907.098 292.508 907.764 292.886C908.438 293.258 908.954 293.682 909.31 294.159C909.673 294.629 909.954 295.015 910.151 295.318H910.423V292.545H913.014V310.5C913.014 312 912.673 313.22 911.991 314.159C911.317 315.106 910.408 315.799 909.264 316.239C908.128 316.686 906.863 316.909 905.469 316.909ZM905.378 307.318C906.454 307.318 907.363 307.072 908.105 306.58C908.848 306.087 909.412 305.379 909.798 304.455C910.185 303.53 910.378 302.424 910.378 301.136C910.378 299.879 910.188 298.769 909.81 297.807C909.431 296.845 908.87 296.091 908.128 295.545C907.385 295 906.469 294.727 905.378 294.727C904.241 294.727 903.295 295.015 902.537 295.591C901.787 296.167 901.223 296.939 900.844 297.909C900.473 298.879 900.287 299.955 900.287 301.136C900.287 302.348 900.476 303.42 900.855 304.352C901.241 305.277 901.81 306.004 902.56 306.534C903.317 307.057 904.257 307.318 905.378 307.318ZM925.241 310.364C923.56 310.364 922.109 309.992 920.889 309.25C919.677 308.5 918.741 307.455 918.082 306.114C917.431 304.765 917.105 303.197 917.105 301.409C917.105 299.621 917.431 298.045 918.082 296.682C918.741 295.311 919.658 294.242 920.832 293.477C922.014 292.705 923.393 292.318 924.969 292.318C925.878 292.318 926.776 292.47 927.662 292.773C928.548 293.076 929.355 293.568 930.082 294.25C930.81 294.924 931.389 295.818 931.821 296.932C932.253 298.045 932.469 299.417 932.469 301.045V302.182H919.014V299.864H929.741C929.741 298.879 929.545 298 929.151 297.227C928.764 296.455 928.211 295.845 927.491 295.398C926.779 294.951 925.938 294.727 924.969 294.727C923.901 294.727 922.976 294.992 922.196 295.523C921.423 296.045 920.829 296.727 920.412 297.568C919.995 298.409 919.787 299.311 919.787 300.273V301.818C919.787 303.136 920.014 304.254 920.469 305.17C920.931 306.08 921.571 306.773 922.389 307.25C923.207 307.72 924.158 307.955 925.241 307.955C925.946 307.955 926.582 307.856 927.151 307.659C927.726 307.455 928.223 307.152 928.639 306.75C929.056 306.341 929.378 305.833 929.605 305.227L932.196 305.955C931.923 306.833 931.465 307.606 930.821 308.273C930.177 308.932 929.382 309.447 928.435 309.818C927.488 310.182 926.423 310.364 925.241 310.364ZM948.912 296.455L946.503 297.136C946.351 296.735 946.128 296.345 945.832 295.966C945.545 295.58 945.151 295.261 944.651 295.011C944.151 294.761 943.51 294.636 942.73 294.636C941.662 294.636 940.772 294.883 940.06 295.375C939.355 295.86 939.003 296.477 939.003 297.227C939.003 297.894 939.245 298.42 939.73 298.807C940.215 299.193 940.973 299.515 942.003 299.773L944.594 300.409C946.154 300.788 947.317 301.367 948.082 302.148C948.848 302.92 949.23 303.917 949.23 305.136C949.23 306.136 948.942 307.03 948.366 307.818C947.798 308.606 947.003 309.227 945.98 309.682C944.957 310.136 943.768 310.364 942.412 310.364C940.632 310.364 939.158 309.977 937.991 309.205C936.825 308.432 936.086 307.303 935.776 305.818L938.321 305.182C938.563 306.121 939.022 306.826 939.696 307.295C940.378 307.765 941.268 308 942.366 308C943.616 308 944.609 307.735 945.344 307.205C946.086 306.667 946.457 306.023 946.457 305.273C946.457 304.667 946.245 304.159 945.821 303.75C945.397 303.333 944.745 303.023 943.866 302.818L940.957 302.136C939.359 301.758 938.185 301.17 937.435 300.375C936.692 299.572 936.321 298.568 936.321 297.364C936.321 296.379 936.598 295.508 937.151 294.75C937.711 293.992 938.473 293.398 939.435 292.966C940.404 292.534 941.503 292.318 942.73 292.318C944.457 292.318 945.813 292.697 946.798 293.455C947.791 294.212 948.495 295.212 948.912 296.455ZM960.858 292.545V294.818H951.812V292.545H960.858ZM954.449 288.364H957.131V305C957.131 305.758 957.241 306.326 957.46 306.705C957.688 307.076 957.975 307.326 958.324 307.455C958.68 307.576 959.055 307.636 959.449 307.636C959.744 307.636 959.987 307.621 960.176 307.591C960.366 307.553 960.517 307.523 960.631 307.5L961.176 309.909C960.994 309.977 960.741 310.045 960.415 310.114C960.089 310.189 959.676 310.227 959.176 310.227C958.419 310.227 957.676 310.064 956.949 309.739C956.229 309.413 955.631 308.917 955.153 308.25C954.684 307.583 954.449 306.742 954.449 305.727V288.364Z" fill="#717171"/>
<path d="M175.942 136.909V166H172.419V140.602H172.249L165.146 145.318V141.739L172.419 136.909H175.942ZM193.797 166.398C191.657 166.398 189.834 165.815 188.328 164.651C186.822 163.476 185.672 161.777 184.876 159.551C184.081 157.316 183.683 154.617 183.683 151.455C183.683 148.311 184.081 145.626 184.876 143.401C185.681 141.166 186.837 139.461 188.342 138.287C189.857 137.103 191.676 136.511 193.797 136.511C195.918 136.511 197.732 137.103 199.237 138.287C200.752 139.461 201.908 141.166 202.703 143.401C203.508 145.626 203.911 148.311 203.911 151.455C203.911 154.617 203.513 157.316 202.717 159.551C201.922 161.777 200.771 163.476 199.266 164.651C197.76 165.815 195.937 166.398 193.797 166.398ZM193.797 163.273C195.918 163.273 197.566 162.25 198.74 160.205C199.914 158.159 200.501 155.242 200.501 151.455C200.501 148.936 200.232 146.791 199.692 145.02C199.161 143.249 198.394 141.9 197.391 140.972C196.396 140.044 195.198 139.58 193.797 139.58C191.695 139.58 190.052 140.616 188.868 142.69C187.684 144.755 187.092 147.676 187.092 151.455C187.092 153.973 187.357 156.114 187.888 157.875C188.418 159.636 189.18 160.976 190.175 161.895C191.179 162.813 192.386 163.273 193.797 163.273Z" fill="white"/>
<path d="M296.332 136.909V166H292.81V140.602H292.639L285.537 145.318V141.739L292.81 136.909H296.332ZM304.699 166V163.443L314.301 152.932C315.428 151.701 316.356 150.631 317.085 149.722C317.814 148.803 318.354 147.941 318.705 147.136C319.064 146.322 319.244 145.47 319.244 144.58C319.244 143.557 318.998 142.671 318.506 141.923C318.023 141.175 317.36 140.598 316.517 140.19C315.674 139.783 314.727 139.58 313.676 139.58C312.559 139.58 311.583 139.812 310.75 140.276C309.926 140.73 309.287 141.369 308.832 142.193C308.387 143.017 308.165 143.983 308.165 145.091H304.812C304.812 143.386 305.205 141.89 305.991 140.602C306.777 139.314 307.848 138.311 309.202 137.591C310.565 136.871 312.095 136.511 313.79 136.511C315.494 136.511 317.005 136.871 318.321 137.591C319.637 138.311 320.67 139.281 321.418 140.503C322.166 141.724 322.54 143.083 322.54 144.58C322.54 145.65 322.346 146.696 321.957 147.719C321.579 148.732 320.916 149.864 319.969 151.114C319.031 152.354 317.729 153.869 316.062 155.659L309.528 162.648V162.875H323.051V166H304.699Z" fill="white"/>
<path d="M217.454 24.2756C217.341 23.1297 216.853 22.2396 215.991 21.6051C215.129 20.9706 213.96 20.6534 212.483 20.6534C211.479 20.6534 210.631 20.7955 209.94 21.0795C209.249 21.3542 208.718 21.7377 208.349 22.2301C207.989 22.7225 207.809 23.2812 207.809 23.9062C207.79 24.4271 207.899 24.8816 208.136 25.2699C208.382 25.6581 208.718 25.9943 209.145 26.2784C209.571 26.553 210.063 26.7945 210.622 27.0028C211.181 27.2017 211.777 27.3722 212.412 27.5142L215.025 28.1392C216.294 28.4233 217.459 28.8021 218.52 29.2756C219.58 29.7491 220.499 30.3314 221.275 31.0227C222.052 31.714 222.653 32.5284 223.079 33.4659C223.515 34.4034 223.737 35.4782 223.747 36.6903C223.737 38.4706 223.283 40.0142 222.383 41.321C221.493 42.6184 220.205 43.6269 218.52 44.3466C216.843 45.0568 214.822 45.4119 212.454 45.4119C210.106 45.4119 208.06 45.0521 206.318 44.3324C204.585 43.6127 203.231 42.5473 202.255 41.1364C201.289 39.7159 200.783 37.9593 200.735 35.8665H206.687C206.753 36.8419 207.033 37.6562 207.525 38.3097C208.027 38.9536 208.695 39.4413 209.528 39.7727C210.371 40.0947 211.323 40.2557 212.383 40.2557C213.425 40.2557 214.329 40.1042 215.096 39.8011C215.873 39.4981 216.474 39.0767 216.9 38.5369C217.326 37.9972 217.539 37.3769 217.539 36.6761C217.539 36.0227 217.345 35.4735 216.957 35.0284C216.578 34.5833 216.02 34.2045 215.281 33.892C214.552 33.5795 213.657 33.2955 212.596 33.0398L209.429 32.2443C206.976 31.6477 205.039 30.715 203.619 29.446C202.199 28.1771 201.493 26.4678 201.502 24.3182C201.493 22.5568 201.962 21.018 202.909 19.7017C203.865 18.3854 205.177 17.358 206.843 16.6193C208.51 15.8807 210.404 15.5114 212.525 15.5114C214.684 15.5114 216.569 15.8807 218.179 16.6193C219.798 17.358 221.057 18.3854 221.957 19.7017C222.857 21.018 223.321 22.5426 223.349 24.2756H217.454ZM237.628 45.4261C235.422 45.4261 233.514 44.9574 231.904 44.0199C230.303 43.0729 229.068 41.7566 228.196 40.071C227.325 38.3759 226.89 36.411 226.89 34.1761C226.89 31.9223 227.325 29.9527 228.196 28.267C229.068 26.572 230.303 25.2557 231.904 24.3182C233.514 23.3712 235.422 22.8977 237.628 22.8977C239.835 22.8977 241.738 23.3712 243.338 24.3182C244.948 25.2557 246.189 26.572 247.06 28.267C247.931 29.9527 248.367 31.9223 248.367 34.1761C248.367 36.411 247.931 38.3759 247.06 40.071C246.189 41.7566 244.948 43.0729 243.338 44.0199C241.738 44.9574 239.835 45.4261 237.628 45.4261ZM237.657 40.7386C238.66 40.7386 239.498 40.4545 240.171 39.8864C240.843 39.3087 241.35 38.5227 241.691 37.5284C242.041 36.5341 242.216 35.4025 242.216 34.1335C242.216 32.8646 242.041 31.733 241.691 30.7386C241.35 29.7443 240.843 28.9583 240.171 28.3807C239.498 27.803 238.66 27.5142 237.657 27.5142C236.643 27.5142 235.791 27.803 235.1 28.3807C234.418 28.9583 233.902 29.7443 233.551 30.7386C233.211 31.733 233.04 32.8646 233.04 34.1335C233.04 35.4025 233.211 36.5341 233.551 37.5284C233.902 38.5227 234.418 39.3087 235.1 39.8864C235.791 40.4545 236.643 40.7386 237.657 40.7386ZM252.301 45V23.1818H258.168V26.9886H258.395C258.793 25.6345 259.461 24.6117 260.398 23.9205C261.336 23.2197 262.415 22.8693 263.637 22.8693C263.94 22.8693 264.266 22.8883 264.617 22.9261C264.967 22.964 265.275 23.0161 265.54 23.0824V28.4517C265.256 28.3665 264.863 28.2907 264.361 28.2244C263.859 28.1581 263.4 28.125 262.983 28.125C262.093 28.125 261.298 28.3191 260.597 28.7074C259.906 29.0862 259.356 29.6165 258.949 30.2983C258.551 30.9801 258.353 31.7661 258.353 32.6562V45H252.301ZM281.368 23.1818V27.7273H268.228V23.1818H281.368ZM271.211 17.9545H277.262V38.2955C277.262 38.8542 277.348 39.2898 277.518 39.6023C277.689 39.9053 277.925 40.1184 278.228 40.2415C278.541 40.3646 278.901 40.4261 279.308 40.4261C279.592 40.4261 279.876 40.4025 280.16 40.3551C280.444 40.2983 280.662 40.2557 280.814 40.2273L281.765 44.7301C281.462 44.8248 281.036 44.9337 280.487 45.0568C279.938 45.1894 279.27 45.2699 278.484 45.2983C277.026 45.3551 275.747 45.161 274.649 44.7159C273.56 44.2708 272.712 43.5795 272.106 42.642C271.5 41.7045 271.202 40.5208 271.211 39.0909V17.9545ZM295.018 45.4261C292.774 45.4261 290.842 44.9716 289.223 44.0625C287.613 43.1439 286.372 41.8466 285.501 40.1705C284.63 38.4848 284.194 36.4915 284.194 34.1903C284.194 31.946 284.63 29.9763 285.501 28.2812C286.372 26.5862 287.599 25.2652 289.18 24.3182C290.771 23.3712 292.636 22.8977 294.777 22.8977C296.216 22.8977 297.556 23.1297 298.797 23.5938C300.047 24.0483 301.136 24.7348 302.064 25.6534C303.001 26.572 303.73 27.7273 304.251 29.1193C304.772 30.5019 305.032 32.1212 305.032 33.9773V35.6392H286.609V31.8892H299.336C299.336 31.018 299.147 30.2462 298.768 29.5739C298.389 28.9015 297.864 28.3759 297.191 27.9972C296.529 27.6089 295.757 27.4148 294.876 27.4148C293.958 27.4148 293.143 27.6278 292.433 28.054C291.732 28.4706 291.183 29.0341 290.785 29.7443C290.387 30.4451 290.184 31.2263 290.174 32.0881V35.6534C290.174 36.733 290.373 37.6657 290.771 38.4517C291.178 39.2377 291.751 39.8438 292.49 40.2699C293.228 40.696 294.104 40.9091 295.118 40.9091C295.79 40.9091 296.405 40.8144 296.964 40.625C297.523 40.4356 298.001 40.1515 298.399 39.7727C298.797 39.3939 299.1 38.9299 299.308 38.3807L304.904 38.75C304.62 40.0947 304.038 41.2689 303.157 42.2727C302.286 43.267 301.159 44.0436 299.777 44.6023C298.404 45.1515 296.817 45.4261 295.018 45.4261ZM317.021 45.3551C315.364 45.3551 313.863 44.929 312.518 44.0767C311.183 43.215 310.122 41.9508 309.336 40.2841C308.56 38.608 308.172 36.553 308.172 34.1193C308.172 31.6193 308.574 29.5407 309.379 27.8835C310.184 26.2169 311.254 24.9716 312.589 24.1477C313.934 23.3144 315.406 22.8977 317.007 22.8977C318.228 22.8977 319.246 23.1061 320.061 23.5227C320.885 23.9299 321.547 24.4413 322.049 25.0568C322.561 25.6629 322.949 26.2595 323.214 26.8466H323.399V15.9091H329.436V45H323.47V41.5057H323.214C322.93 42.1117 322.528 42.7131 322.007 43.3097C321.495 43.8968 320.828 44.3845 320.004 44.7727C319.19 45.161 318.195 45.3551 317.021 45.3551ZM318.939 40.5398C319.914 40.5398 320.738 40.2746 321.41 39.7443C322.092 39.2045 322.613 38.4517 322.973 37.4858C323.342 36.5199 323.527 35.3883 323.527 34.0909C323.527 32.7936 323.347 31.6667 322.987 30.7102C322.627 29.7538 322.106 29.0152 321.424 28.4943C320.743 27.9735 319.914 27.7131 318.939 27.7131C317.944 27.7131 317.106 27.983 316.424 28.5227C315.743 29.0625 315.226 29.8106 314.876 30.767C314.526 31.7235 314.35 32.8314 314.35 34.0909C314.35 35.3598 314.526 36.482 314.876 37.4574C315.236 38.4233 315.752 39.1809 316.424 39.7301C317.106 40.2699 317.944 40.5398 318.939 40.5398ZM368.115 15.9091V45H362.802L350.146 26.6903H349.933V45H343.782V15.9091H349.18L361.737 34.2045H361.993V15.9091H368.115ZM387.074 35.7102V23.1818H393.125V45H387.316V41.0369H387.088C386.596 42.3153 385.777 43.3428 384.631 44.1193C383.495 44.8958 382.107 45.2841 380.469 45.2841C379.011 45.2841 377.728 44.9527 376.62 44.2898C375.512 43.6269 374.645 42.6847 374.02 41.4631C373.405 40.2415 373.092 38.7784 373.083 37.0739V23.1818H379.134V35.9943C379.143 37.2822 379.489 38.3002 380.171 39.0483C380.853 39.7964 381.766 40.1705 382.912 40.1705C383.641 40.1705 384.323 40.0047 384.958 39.6733C385.592 39.3324 386.104 38.8305 386.492 38.1676C386.89 37.5047 387.084 36.6856 387.074 35.7102ZM397.966 45V23.1818H403.733V27.0312H403.988C404.443 25.7528 405.2 24.7443 406.261 24.0057C407.322 23.267 408.591 22.8977 410.068 22.8977C411.564 22.8977 412.838 23.2718 413.889 24.0199C414.94 24.7585 415.641 25.7623 415.991 27.0312H416.218C416.663 25.7812 417.468 24.7822 418.633 24.0341C419.807 23.2765 421.195 22.8977 422.795 22.8977C424.831 22.8977 426.484 23.5464 427.752 24.8438C429.031 26.1316 429.67 27.9593 429.67 30.3267V45H423.633V31.5199C423.633 30.3078 423.311 29.3987 422.667 28.7926C422.023 28.1866 421.218 27.8835 420.252 27.8835C419.154 27.8835 418.297 28.2339 417.681 28.9347C417.066 29.6259 416.758 30.5398 416.758 31.6761V45H410.892V31.392C410.892 30.322 410.584 29.4697 409.968 28.8352C409.362 28.2008 408.562 27.8835 407.568 27.8835C406.895 27.8835 406.289 28.054 405.75 28.3949C405.219 28.7263 404.798 29.1951 404.485 29.8011C404.173 30.3977 404.017 31.0985 404.017 31.9034V45H397.966ZM434.564 45V15.9091H440.615V26.8466H440.799C441.065 26.2595 441.448 25.6629 441.95 25.0568C442.461 24.4413 443.124 23.9299 443.939 23.5227C444.762 23.1061 445.785 22.8977 447.007 22.8977C448.598 22.8977 450.065 23.3144 451.41 24.1477C452.755 24.9716 453.83 26.2169 454.635 27.8835C455.44 29.5407 455.842 31.6193 455.842 34.1193C455.842 36.553 455.449 38.608 454.663 40.2841C453.886 41.9508 452.826 43.215 451.481 44.0767C450.146 44.929 448.65 45.3551 446.993 45.3551C445.818 45.3551 444.819 45.161 443.995 44.7727C443.181 44.3845 442.513 43.8968 441.993 43.3097C441.472 42.7131 441.074 42.1117 440.799 41.5057H440.529V45H434.564ZM440.487 34.0909C440.487 35.3883 440.667 36.5199 441.027 37.4858C441.386 38.4517 441.907 39.2045 442.589 39.7443C443.271 40.2746 444.1 40.5398 445.075 40.5398C446.06 40.5398 446.893 40.2699 447.575 39.7301C448.257 39.1809 448.773 38.4233 449.123 37.4574C449.483 36.482 449.663 35.3598 449.663 34.0909C449.663 32.8314 449.488 31.7235 449.137 30.767C448.787 29.8106 448.271 29.0625 447.589 28.5227C446.907 27.983 446.069 27.7131 445.075 27.7131C444.09 27.7131 443.257 27.9735 442.575 28.4943C441.903 29.0152 441.386 29.7538 441.027 30.7102C440.667 31.6667 440.487 32.7936 440.487 34.0909ZM469.823 45.4261C467.578 45.4261 465.647 44.9716 464.027 44.0625C462.417 43.1439 461.177 41.8466 460.306 40.1705C459.435 38.4848 458.999 36.4915 458.999 34.1903C458.999 31.946 459.435 29.9763 460.306 28.2812C461.177 26.5862 462.403 25.2652 463.985 24.3182C465.576 23.3712 467.441 22.8977 469.581 22.8977C471.021 22.8977 472.361 23.1297 473.601 23.5938C474.851 24.0483 475.94 24.7348 476.868 25.6534C477.806 26.572 478.535 27.7273 479.056 29.1193C479.577 30.5019 479.837 32.1212 479.837 33.9773V35.6392H461.414V31.8892H474.141C474.141 31.018 473.952 30.2462 473.573 29.5739C473.194 28.9015 472.668 28.3759 471.996 27.9972C471.333 27.6089 470.561 27.4148 469.681 27.4148C468.762 27.4148 467.948 27.6278 467.238 28.054C466.537 28.4706 465.988 29.0341 465.59 29.7443C465.192 30.4451 464.989 31.2263 464.979 32.0881V35.6534C464.979 36.733 465.178 37.6657 465.576 38.4517C465.983 39.2377 466.556 39.8438 467.294 40.2699C468.033 40.696 468.909 40.9091 469.922 40.9091C470.595 40.9091 471.21 40.8144 471.769 40.625C472.328 40.4356 472.806 40.1515 473.203 39.7727C473.601 39.3939 473.904 38.9299 474.113 38.3807L479.709 38.75C479.425 40.0947 478.843 41.2689 477.962 42.2727C477.091 43.267 475.964 44.0436 474.581 44.6023C473.208 45.1515 471.622 45.4261 469.823 45.4261ZM483.786 45V23.1818H489.652V26.9886H489.88C490.277 25.6345 490.945 24.6117 491.882 23.9205C492.82 23.2197 493.9 22.8693 495.121 22.8693C495.424 22.8693 495.751 22.8883 496.101 22.9261C496.452 22.964 496.759 23.0161 497.025 23.0824V28.4517C496.74 28.3665 496.347 28.2907 495.846 28.2244C495.344 28.1581 494.884 28.125 494.468 28.125C493.578 28.125 492.782 28.3191 492.081 28.7074C491.39 29.0862 490.841 29.6165 490.434 30.2983C490.036 30.9801 489.837 31.7661 489.837 32.6562V45H483.786ZM518.306 29.4034L512.767 29.7443C512.672 29.2708 512.468 28.8447 512.156 28.4659C511.843 28.0777 511.431 27.7699 510.92 27.5426C510.418 27.3059 509.817 27.1875 509.116 27.1875C508.179 27.1875 507.388 27.3864 506.744 27.7841C506.1 28.1723 505.778 28.6932 505.778 29.3466C505.778 29.8674 505.986 30.3078 506.403 30.6676C506.82 31.0275 507.535 31.3163 508.548 31.5341L512.497 32.3295C514.618 32.7652 516.199 33.4659 517.241 34.4318C518.283 35.3977 518.804 36.6667 518.804 38.2386C518.804 39.6686 518.382 40.9233 517.539 42.0028C516.706 43.0824 515.56 43.9252 514.102 44.5312C512.653 45.1278 510.982 45.4261 509.088 45.4261C506.199 45.4261 503.898 44.8248 502.184 43.6222C500.48 42.41 499.481 40.7623 499.187 38.679L505.139 38.3665C505.319 39.2472 505.754 39.9195 506.446 40.3835C507.137 40.8381 508.022 41.0653 509.102 41.0653C510.163 41.0653 511.015 40.8617 511.659 40.4545C512.312 40.0379 512.644 39.5028 512.653 38.8494C512.644 38.3002 512.412 37.8504 511.957 37.5C511.502 37.1402 510.802 36.8655 509.855 36.6761L506.076 35.9233C503.946 35.4972 502.359 34.7585 501.318 33.7074C500.286 32.6562 499.77 31.3163 499.77 29.6875C499.77 28.286 500.148 27.0786 500.906 26.0653C501.673 25.0521 502.748 24.2708 504.13 23.7216C505.522 23.1723 507.151 22.8977 509.017 22.8977C511.772 22.8977 513.941 23.4801 515.522 24.6449C517.113 25.8097 518.041 27.3958 518.306 29.4034ZM533.207 30.4545C533.207 26.9318 533.676 23.6884 534.613 20.7244C535.56 17.7604 537.004 15.0142 538.946 12.4858H544.727C543.988 13.4233 543.302 14.5691 542.667 15.9233C542.033 17.268 541.479 18.7453 541.005 20.3551C540.532 21.965 540.163 23.6316 539.897 25.3551C539.632 27.0691 539.5 28.7689 539.5 30.4545C539.5 32.6989 539.727 34.9669 540.181 37.2585C540.645 39.5407 541.27 41.6619 542.056 43.6222C542.852 45.5824 543.742 47.1875 544.727 48.4375H538.946C537.004 45.9091 535.56 43.1629 534.613 40.1989C533.676 37.2348 533.207 33.9867 533.207 30.4545ZM553.367 45H546.776L556.819 15.9091H564.745L574.773 45H568.182L560.895 22.5568H560.668L553.367 45ZM552.955 33.5653H568.523V38.3665H552.955V33.5653ZM595.806 29.4034L590.267 29.7443C590.172 29.2708 589.968 28.8447 589.656 28.4659C589.343 28.0777 588.931 27.7699 588.42 27.5426C587.918 27.3059 587.317 27.1875 586.616 27.1875C585.679 27.1875 584.888 27.3864 584.244 27.7841C583.6 28.1723 583.278 28.6932 583.278 29.3466C583.278 29.8674 583.486 30.3078 583.903 30.6676C584.32 31.0275 585.035 31.3163 586.048 31.5341L589.997 32.3295C592.118 32.7652 593.699 33.4659 594.741 34.4318C595.783 35.3977 596.304 36.6667 596.304 38.2386C596.304 39.6686 595.882 40.9233 595.039 42.0028C594.206 43.0824 593.06 43.9252 591.602 44.5312C590.153 45.1278 588.482 45.4261 586.588 45.4261C583.699 45.4261 581.398 44.8248 579.684 43.6222C577.98 42.41 576.981 40.7623 576.687 38.679L582.639 38.3665C582.819 39.2472 583.254 39.9195 583.946 40.3835C584.637 40.8381 585.522 41.0653 586.602 41.0653C587.663 41.0653 588.515 40.8617 589.159 40.4545C589.812 40.0379 590.144 39.5028 590.153 38.8494C590.144 38.3002 589.912 37.8504 589.457 37.5C589.002 37.1402 588.302 36.8655 587.355 36.6761L583.576 35.9233C581.446 35.4972 579.859 34.7585 578.818 33.7074C577.786 32.6562 577.27 31.3163 577.27 29.6875C577.27 28.286 577.648 27.0786 578.406 26.0653C579.173 25.0521 580.248 24.2708 581.63 23.7216C583.022 23.1723 584.651 22.8977 586.517 22.8977C589.272 22.8977 591.441 23.4801 593.022 24.6449C594.613 25.8097 595.541 27.3958 595.806 29.4034ZM609.972 45.4261C607.737 45.4261 605.815 44.9527 604.205 44.0057C602.605 43.0492 601.373 41.7235 600.512 40.0284C599.659 38.3333 599.233 36.3826 599.233 34.1761C599.233 31.9413 599.664 29.9811 600.526 28.2955C601.397 26.6004 602.633 25.2794 604.233 24.3324C605.834 23.3759 607.737 22.8977 609.944 22.8977C611.847 22.8977 613.514 23.2434 614.944 23.9347C616.373 24.6259 617.505 25.5966 618.338 26.8466C619.172 28.0966 619.631 29.5644 619.716 31.25H614.006C613.845 30.161 613.419 29.285 612.728 28.6222C612.046 27.9498 611.151 27.6136 610.043 27.6136C609.105 27.6136 608.286 27.8693 607.586 28.3807C606.894 28.8826 606.355 29.6165 605.966 30.5824C605.578 31.5483 605.384 32.7178 605.384 34.0909C605.384 35.483 605.573 36.6667 605.952 37.642C606.34 38.6174 606.885 39.3608 607.586 39.8722C608.286 40.3835 609.105 40.6392 610.043 40.6392C610.734 40.6392 611.355 40.4972 611.904 40.2131C612.462 39.929 612.922 39.517 613.282 38.9773C613.651 38.428 613.892 37.7699 614.006 37.0028H619.716C619.622 38.6695 619.167 40.1373 618.353 41.4062C617.548 42.6657 616.435 43.6506 615.015 44.3608C613.594 45.071 611.913 45.4261 609.972 45.4261ZM633.534 45.4261C631.289 45.4261 629.358 44.9716 627.738 44.0625C626.128 43.1439 624.888 41.8466 624.017 40.1705C623.145 38.4848 622.71 36.4915 622.71 34.1903C622.71 31.946 623.145 29.9763 624.017 28.2812C624.888 26.5862 626.114 25.2652 627.696 24.3182C629.287 23.3712 631.152 22.8977 633.292 22.8977C634.732 22.8977 636.072 23.1297 637.312 23.5938C638.562 24.0483 639.651 24.7348 640.579 25.6534C641.517 26.572 642.246 27.7273 642.767 29.1193C643.288 30.5019 643.548 32.1212 643.548 33.9773V35.6392H625.125V31.8892H637.852C637.852 31.018 637.663 30.2462 637.284 29.5739C636.905 28.9015 636.379 28.3759 635.707 27.9972C635.044 27.6089 634.272 27.4148 633.392 27.4148C632.473 27.4148 631.659 27.6278 630.949 28.054C630.248 28.4706 629.699 29.0341 629.301 29.7443C628.903 30.4451 628.699 31.2263 628.69 32.0881V35.6534C628.69 36.733 628.889 37.6657 629.287 38.4517C629.694 39.2377 630.267 39.8438 631.005 40.2699C631.744 40.696 632.62 40.9091 633.633 40.9091C634.306 40.9091 634.921 40.8144 635.48 40.625C636.038 40.4356 636.517 40.1515 636.914 39.7727C637.312 39.3939 637.615 38.9299 637.824 38.3807L643.42 38.75C643.136 40.0947 642.554 41.2689 641.673 42.2727C640.802 43.267 639.675 44.0436 638.292 44.6023C636.919 45.1515 635.333 45.4261 633.534 45.4261ZM653.548 32.3864V45H647.497V23.1818H653.264V27.0312H653.52C654.002 25.7623 654.812 24.7585 655.949 24.0199C657.085 23.2718 658.463 22.8977 660.082 22.8977C661.597 22.8977 662.918 23.2292 664.045 23.892C665.172 24.5549 666.048 25.5019 666.673 26.733C667.298 27.9545 667.61 29.4129 667.61 31.108V45H661.559V32.1875C661.569 30.8523 661.228 29.8106 660.537 29.0625C659.845 28.3049 658.894 27.9261 657.681 27.9261C656.867 27.9261 656.147 28.1013 655.522 28.4517C654.907 28.8021 654.424 29.3134 654.074 29.9858C653.733 30.6487 653.557 31.4489 653.548 32.3864ZM680.419 45.3551C678.762 45.3551 677.261 44.929 675.917 44.0767C674.581 43.215 673.521 41.9508 672.735 40.2841C671.958 38.608 671.57 36.553 671.57 34.1193C671.57 31.6193 671.972 29.5407 672.777 27.8835C673.582 26.2169 674.652 24.9716 675.988 24.1477C677.332 23.3144 678.805 22.8977 680.405 22.8977C681.627 22.8977 682.645 23.1061 683.459 23.5227C684.283 23.9299 684.946 24.4413 685.448 25.0568C685.959 25.6629 686.347 26.2595 686.613 26.8466H686.797V15.9091H692.834V45H686.868V41.5057H686.613C686.328 42.1117 685.926 42.7131 685.405 43.3097C684.894 43.8968 684.226 44.3845 683.402 44.7727C682.588 45.161 681.594 45.3551 680.419 45.3551ZM682.337 40.5398C683.312 40.5398 684.136 40.2746 684.809 39.7443C685.49 39.2045 686.011 38.4517 686.371 37.4858C686.74 36.5199 686.925 35.3883 686.925 34.0909C686.925 32.7936 686.745 31.6667 686.385 30.7102C686.025 29.7538 685.505 29.0152 684.823 28.4943C684.141 27.9735 683.312 27.7131 682.337 27.7131C681.343 27.7131 680.505 27.983 679.823 28.5227C679.141 29.0625 678.625 29.8106 678.275 30.767C677.924 31.7235 677.749 32.8314 677.749 34.0909C677.749 35.3598 677.924 36.482 678.275 37.4574C678.634 38.4233 679.15 39.1809 679.823 39.7301C680.505 40.2699 681.343 40.5398 682.337 40.5398ZM697.809 45V23.1818H703.86V45H697.809ZM700.849 20.3693C699.949 20.3693 699.178 20.071 698.534 19.4744C697.899 18.8684 697.582 18.1439 697.582 17.3011C697.582 16.4678 697.899 15.7528 698.534 15.1562C699.178 14.5502 699.949 14.2472 700.849 14.2472C701.749 14.2472 702.516 14.5502 703.15 15.1562C703.794 15.7528 704.116 16.4678 704.116 17.3011C704.116 18.1439 703.794 18.8684 703.15 19.4744C702.516 20.071 701.749 20.3693 700.849 20.3693ZM714.759 32.3864V45H708.708V23.1818H714.475V27.0312H714.73C715.213 25.7623 716.023 24.7585 717.159 24.0199C718.296 23.2718 719.674 22.8977 721.293 22.8977C722.808 22.8977 724.129 23.2292 725.256 23.892C726.383 24.5549 727.259 25.5019 727.884 26.733C728.509 27.9545 728.821 29.4129 728.821 31.108V45H722.77V32.1875C722.78 30.8523 722.439 29.8106 721.748 29.0625C721.056 28.3049 720.105 27.9261 718.892 27.9261C718.078 27.9261 717.358 28.1013 716.733 28.4517C716.118 28.8021 715.635 29.3134 715.284 29.9858C714.944 30.6487 714.768 31.4489 714.759 32.3864ZM743.42 53.6364C741.46 53.6364 739.779 53.3665 738.377 52.8267C736.985 52.2964 735.877 51.572 735.054 50.6534C734.23 49.7348 733.695 48.7027 733.449 47.5568L739.045 46.804C739.216 47.2396 739.485 47.6468 739.855 48.0256C740.224 48.4044 740.712 48.7074 741.318 48.9347C741.933 49.1714 742.681 49.2898 743.562 49.2898C744.878 49.2898 745.963 48.9678 746.815 48.3239C747.677 47.6894 748.108 46.6241 748.108 45.1278V41.1364H747.852C747.587 41.7424 747.189 42.3153 746.659 42.8551C746.128 43.3949 745.447 43.8352 744.613 44.1761C743.78 44.517 742.786 44.6875 741.63 44.6875C739.992 44.6875 738.501 44.3087 737.156 43.5511C735.821 42.7841 734.755 41.6146 733.96 40.0426C733.174 38.4612 732.781 36.4631 732.781 34.0483C732.781 31.5767 733.183 29.5123 733.988 27.8551C734.793 26.1979 735.863 24.9574 737.199 24.1335C738.543 23.3097 740.016 22.8977 741.616 22.8977C742.838 22.8977 743.86 23.1061 744.684 23.5227C745.508 23.9299 746.171 24.4413 746.673 25.0568C747.184 25.6629 747.577 26.2595 747.852 26.8466H748.079V23.1818H754.088V45.2131C754.088 47.0691 753.633 48.6222 752.724 49.8722C751.815 51.1222 750.556 52.0597 748.946 52.6847C747.345 53.3191 745.503 53.6364 743.42 53.6364ZM743.548 40.142C744.523 40.142 745.347 39.9006 746.02 39.4176C746.701 38.9252 747.222 38.2244 747.582 37.3153C747.951 36.3968 748.136 35.2983 748.136 34.0199C748.136 32.7415 747.956 31.6335 747.596 30.696C747.236 29.7491 746.716 29.0152 746.034 28.4943C745.352 27.9735 744.523 27.7131 743.548 27.7131C742.554 27.7131 741.716 27.983 741.034 28.5227C740.352 29.053 739.836 29.7917 739.485 30.7386C739.135 31.6856 738.96 32.7794 738.96 34.0199C738.96 35.2794 739.135 36.3684 739.485 37.2869C739.845 38.196 740.361 38.9015 741.034 39.4034C741.716 39.8958 742.554 40.142 743.548 40.142ZM769.102 33.3381C769.102 36.8703 768.628 40.1184 767.681 43.0824C766.744 46.0464 765.305 48.7926 763.363 51.321H757.582C758.321 50.3835 759.007 49.2377 759.642 47.8835C760.276 46.5294 760.83 45.0521 761.304 43.4517C761.777 41.8419 762.146 40.1752 762.412 38.4517C762.677 36.7282 762.809 35.0237 762.809 33.3381C762.809 31.0937 762.577 28.8305 762.113 26.5483C761.659 24.2566 761.034 22.1354 760.238 20.1847C759.452 18.2244 758.567 16.6193 757.582 15.3693H763.363C765.305 17.8977 766.744 20.6439 767.681 23.608C768.628 26.572 769.102 29.8153 769.102 33.3381Z" fill="white"/>
<path d="M416.961 136.909V166H413.439V140.602H413.268L406.166 145.318V141.739L413.439 136.909H416.961ZM434.589 136.511C435.782 136.521 436.975 136.748 438.169 137.193C439.362 137.638 440.451 138.377 441.436 139.409C442.421 140.432 443.211 141.829 443.808 143.599C444.404 145.37 444.703 147.591 444.703 150.261C444.703 152.847 444.457 155.143 443.964 157.151C443.481 159.149 442.78 160.834 441.862 162.207C440.953 163.58 439.845 164.622 438.538 165.332C437.241 166.043 435.773 166.398 434.135 166.398C432.506 166.398 431.052 166.076 429.774 165.432C428.505 164.778 427.463 163.874 426.649 162.719C425.844 161.554 425.328 160.205 425.1 158.67H428.566C428.879 160.006 429.499 161.109 430.427 161.98C431.365 162.842 432.6 163.273 434.135 163.273C436.379 163.273 438.15 162.293 439.447 160.332C440.754 158.372 441.407 155.602 441.407 152.023H441.18C440.65 152.818 440.02 153.505 439.291 154.082C438.562 154.66 437.752 155.105 436.862 155.418C435.972 155.73 435.025 155.886 434.021 155.886C432.354 155.886 430.825 155.474 429.433 154.651C428.05 153.817 426.942 152.676 426.109 151.227C425.285 149.769 424.873 148.102 424.873 146.227C424.873 144.447 425.271 142.818 426.066 141.341C426.871 139.854 427.998 138.67 429.447 137.79C430.905 136.909 432.619 136.483 434.589 136.511ZM434.589 139.636C433.396 139.636 432.321 139.935 431.365 140.531C430.418 141.118 429.665 141.914 429.106 142.918C428.557 143.912 428.282 145.015 428.282 146.227C428.282 147.439 428.547 148.543 429.078 149.537C429.618 150.522 430.351 151.308 431.279 151.895C432.217 152.473 433.282 152.761 434.475 152.761C435.375 152.761 436.213 152.586 436.99 152.236C437.766 151.876 438.443 151.388 439.021 150.773C439.608 150.148 440.067 149.442 440.399 148.656C440.73 147.861 440.896 147.032 440.896 146.17C440.896 145.034 440.621 143.969 440.072 142.974C439.532 141.98 438.784 141.175 437.828 140.56C436.881 139.944 435.801 139.636 434.589 139.636Z" fill="white"/>
<path d="M527.105 166V163.443L536.707 152.932C537.834 151.701 538.762 150.631 539.491 149.722C540.221 148.803 540.76 147.941 541.111 147.136C541.471 146.322 541.651 145.47 541.651 144.58C541.651 143.557 541.404 142.671 540.912 141.923C540.429 141.175 539.766 140.598 538.923 140.19C538.08 139.783 537.134 139.58 536.082 139.58C534.965 139.58 533.99 139.812 533.156 140.276C532.332 140.73 531.693 141.369 531.239 142.193C530.794 143.017 530.571 143.983 530.571 145.091H527.219C527.219 143.386 527.612 141.89 528.398 140.602C529.184 139.314 530.254 138.311 531.608 137.591C532.972 136.871 534.501 136.511 536.196 136.511C537.901 136.511 539.411 136.871 540.727 137.591C542.044 138.311 543.076 139.281 543.824 140.503C544.572 141.724 544.946 143.083 544.946 144.58C544.946 145.65 544.752 146.696 544.364 147.719C543.985 148.732 543.322 149.864 542.375 151.114C541.438 152.354 540.135 153.869 538.469 155.659L531.935 162.648V162.875H545.457V166H527.105ZM561.551 136.909V166H558.028V140.602H557.858L550.756 145.318V141.739L558.028 136.909H561.551Z" fill="white"/>
<path d="M644.976 166V163.443L654.578 152.932C655.705 151.701 656.633 150.631 657.363 149.722C658.092 148.803 658.632 147.941 658.982 147.136C659.342 146.322 659.522 145.47 659.522 144.58C659.522 143.557 659.275 142.671 658.783 141.923C658.3 141.175 657.637 140.598 656.794 140.19C655.952 139.783 655.005 139.58 653.953 139.58C652.836 139.58 651.861 139.812 651.027 140.276C650.203 140.73 649.564 141.369 649.11 142.193C648.665 143.017 648.442 143.983 648.442 145.091H645.09C645.09 143.386 645.483 141.89 646.269 140.602C647.055 139.314 648.125 138.311 649.479 137.591C650.843 136.871 652.372 136.511 654.067 136.511C655.772 136.511 657.282 136.871 658.598 137.591C659.915 138.311 660.947 139.281 661.695 140.503C662.443 141.724 662.817 143.083 662.817 144.58C662.817 145.65 662.623 146.696 662.235 147.719C661.856 148.732 661.193 149.864 660.246 151.114C659.309 152.354 658.007 153.869 656.34 155.659L649.806 162.648V162.875H663.328V166H644.976ZM670.104 166L683.115 140.261V140.034H668.115V136.909H686.752V140.205L673.797 166H670.104Z" fill="white"/>
<path d="M773.497 166.398C771.622 166.398 769.951 166.076 768.483 165.432C767.025 164.788 765.865 163.893 765.003 162.747C764.151 161.592 763.687 160.252 763.611 158.727H767.19C767.266 159.665 767.588 160.474 768.156 161.156C768.724 161.829 769.468 162.349 770.386 162.719C771.305 163.088 772.323 163.273 773.44 163.273C774.69 163.273 775.798 163.055 776.764 162.619C777.73 162.184 778.488 161.578 779.037 160.801C779.586 160.025 779.861 159.125 779.861 158.102C779.861 157.032 779.596 156.09 779.065 155.276C778.535 154.452 777.759 153.808 776.736 153.344C775.713 152.88 774.463 152.648 772.986 152.648H770.656V149.523H772.986C774.141 149.523 775.154 149.314 776.026 148.898C776.906 148.481 777.593 147.894 778.085 147.136C778.587 146.379 778.838 145.489 778.838 144.466C778.838 143.481 778.62 142.624 778.185 141.895C777.749 141.166 777.134 140.598 776.338 140.19C775.552 139.783 774.624 139.58 773.554 139.58C772.55 139.58 771.603 139.764 770.713 140.134C769.832 140.493 769.113 141.019 768.554 141.71C767.995 142.392 767.692 143.216 767.645 144.182H764.236C764.293 142.657 764.752 141.322 765.614 140.176C766.475 139.021 767.602 138.121 768.994 137.477C770.396 136.833 771.935 136.511 773.611 136.511C775.41 136.511 776.954 136.876 778.241 137.605C779.529 138.325 780.519 139.277 781.21 140.46C781.902 141.644 782.247 142.922 782.247 144.295C782.247 145.934 781.816 147.33 780.955 148.486C780.102 149.641 778.942 150.441 777.474 150.886V151.114C779.312 151.417 780.746 152.198 781.778 153.457C782.811 154.707 783.327 156.256 783.327 158.102C783.327 159.684 782.896 161.104 782.034 162.364C781.182 163.614 780.017 164.598 778.54 165.318C777.063 166.038 775.382 166.398 773.497 166.398ZM789.136 166V163.443L798.739 152.932C799.866 151.701 800.794 150.631 801.523 149.722C802.252 148.803 802.792 147.941 803.142 147.136C803.502 146.322 803.682 145.47 803.682 144.58C803.682 143.557 803.436 142.671 802.943 141.923C802.46 141.175 801.797 140.598 800.955 140.19C800.112 139.783 799.165 139.58 798.114 139.58C796.996 139.58 796.021 139.812 795.188 140.276C794.364 140.73 793.724 141.369 793.27 142.193C792.825 143.017 792.602 143.983 792.602 145.091H789.25C789.25 143.386 789.643 141.89 790.429 140.602C791.215 139.314 792.285 138.311 793.639 137.591C795.003 136.871 796.532 136.511 798.227 136.511C799.932 136.511 801.442 136.871 802.759 137.591C804.075 138.311 805.107 139.281 805.855 140.503C806.603 141.724 806.977 143.083 806.977 144.58C806.977 145.65 806.783 146.696 806.395 147.719C806.016 148.732 805.353 149.864 804.406 151.114C803.469 152.354 802.167 153.869 800.5 155.659L793.966 162.648V162.875H807.489V166H789.136Z" fill="white"/>
<path d="M883.572 160.034V157.136L896.356 136.909H898.458V141.398H897.038L887.379 156.682V156.909H904.594V160.034H883.572ZM897.265 166V159.153V157.804V136.909H900.617V166H897.265ZM910.827 166L923.838 140.261V140.034H908.838V136.909H927.474V140.205L914.52 166H910.827Z" fill="white"/>
<path d="M967.061 260.061C967.646 259.475 967.646 258.525 967.061 257.939L957.515 248.393C956.929 247.808 955.979 247.808 955.393 248.393C954.808 248.979 954.808 249.929 955.393 250.515L963.879 259L955.393 267.485C954.808 268.071 954.808 269.021 955.393 269.607C955.979 270.192 956.929 270.192 957.515 269.607L967.061 260.061ZM966 259V257.5L5 257.5V259V260.5L966 260.5V259Z" fill="#717171"/>
</svg>
