<svg width="961" height="213" viewBox="0 0 961 213" fill="none" xmlns="http://www.w3.org/2000/svg">
<rect x="1" y="92" width="959" height="120" rx="26" stroke="#DBDBDB" stroke-width="2"/>
<line x1="121" y1="91" x2="121" y2="213" stroke="#DBDBDB" stroke-width="2"/>
<line x1="241" y1="91" x2="241" y2="213" stroke="#DBDBDB" stroke-width="2"/>
<line x1="362" y1="91" x2="362" y2="213" stroke="#DBDBDB" stroke-width="2"/>
<line x1="482" y1="91" x2="482" y2="213" stroke="#DBDBDB" stroke-width="2"/>
<line x1="602" y1="91" x2="602" y2="213" stroke="#DBDBDB" stroke-width="2"/>
<line x1="722" y1="91" x2="722" y2="213" stroke="#DBDBDB" stroke-width="2"/>
<line x1="842" y1="91" x2="842" y2="213" stroke="#DBDBDB" stroke-width="2"/>
<path d="M51.3324 136.909V166H47.8097V140.602H47.6392L40.5369 145.318V141.739L47.8097 136.909H51.3324ZM59.6989 166V163.443L69.3011 152.932C70.428 151.701 71.3561 150.631 72.0852 149.722C72.8144 148.803 73.3542 147.941 73.7045 147.136C74.0644 146.322 74.2443 145.47 74.2443 144.58C74.2443 143.557 73.9981 142.671 73.5057 141.923C73.0227 141.175 72.3598 140.598 71.517 140.19C70.6742 139.783 69.7273 139.58 68.6761 139.58C67.5587 139.58 66.5833 139.812 65.75 140.276C64.9261 140.73 64.2869 141.369 63.8324 142.193C63.3873 143.017 63.1648 143.983 63.1648 145.091H59.8125C59.8125 143.386 60.2055 141.89 60.9915 140.602C61.7775 139.314 62.8475 138.311 64.2017 137.591C65.5653 136.871 67.0947 136.511 68.7898 136.511C70.4943 136.511 72.0047 136.871 73.321 137.591C74.6373 138.311 75.6695 139.281 76.4176 140.503C77.1657 141.724 77.5398 143.083 77.5398 144.58C77.5398 145.65 77.3456 146.696 76.9574 147.719C76.5786 148.732 75.9157 149.864 74.9688 151.114C74.0312 152.354 72.7292 153.869 71.0625 155.659L64.5284 162.648V162.875H78.0511V166H59.6989Z" fill="white"/>
<path d="M157.572 160.034V157.136L170.356 136.909H172.458V141.398H171.038L161.379 156.682V156.909H178.594V160.034H157.572ZM171.265 166V159.153V157.804V136.909H174.617V166H171.265ZM184.827 166L197.838 140.261V140.034H182.838V136.909H201.474V140.205L188.52 166H184.827Z" fill="white"/>
<path d="M290.961 136.909V166H287.439V140.602H287.268L280.166 145.318V141.739L287.439 136.909H290.961ZM308.589 136.511C309.782 136.521 310.975 136.748 312.169 137.193C313.362 137.638 314.451 138.377 315.436 139.409C316.421 140.432 317.211 141.829 317.808 143.599C318.404 145.37 318.703 147.591 318.703 150.261C318.703 152.847 318.457 155.143 317.964 157.151C317.481 159.149 316.78 160.834 315.862 162.207C314.953 163.58 313.845 164.622 312.538 165.332C311.241 166.043 309.773 166.398 308.135 166.398C306.506 166.398 305.052 166.076 303.774 165.432C302.505 164.778 301.463 163.874 300.649 162.719C299.844 161.554 299.328 160.205 299.1 158.67H302.566C302.879 160.006 303.499 161.109 304.427 161.98C305.365 162.842 306.6 163.273 308.135 163.273C310.379 163.273 312.15 162.293 313.447 160.332C314.754 158.372 315.407 155.602 315.407 152.023H315.18C314.65 152.818 314.02 153.505 313.291 154.082C312.562 154.66 311.752 155.105 310.862 155.418C309.972 155.73 309.025 155.886 308.021 155.886C306.354 155.886 304.825 155.474 303.433 154.651C302.05 153.817 300.942 152.676 300.109 151.227C299.285 149.769 298.873 148.102 298.873 146.227C298.873 144.447 299.271 142.818 300.066 141.341C300.871 139.854 301.998 138.67 303.447 137.79C304.905 136.909 306.619 136.483 308.589 136.511ZM308.589 139.636C307.396 139.636 306.321 139.935 305.365 140.531C304.418 141.118 303.665 141.914 303.106 142.918C302.557 143.912 302.282 145.015 302.282 146.227C302.282 147.439 302.547 148.543 303.078 149.537C303.618 150.522 304.351 151.308 305.279 151.895C306.217 152.473 307.282 152.761 308.475 152.761C309.375 152.761 310.213 152.586 310.99 152.236C311.766 151.876 312.443 151.388 313.021 150.773C313.608 150.148 314.067 149.442 314.399 148.656C314.73 147.861 314.896 147.032 314.896 146.17C314.896 145.034 314.621 143.969 314.072 142.974C313.532 141.98 312.784 141.175 311.828 140.56C310.881 139.944 309.801 139.636 308.589 139.636Z" fill="white"/>
<path d="M315.814 15.9091H321.964V34.8011C321.964 36.9223 321.458 38.7784 320.444 40.3693C319.44 41.9602 318.034 43.2008 316.225 44.0909C314.417 44.9716 312.31 45.4119 309.904 45.4119C307.49 45.4119 305.378 44.9716 303.569 44.0909C301.761 43.2008 300.354 41.9602 299.35 40.3693C298.347 38.7784 297.845 36.9223 297.845 34.8011V15.9091H303.995V34.2756C303.995 35.3835 304.237 36.3684 304.72 37.2301C305.212 38.0919 305.904 38.7689 306.794 39.2614C307.684 39.7538 308.721 40 309.904 40C311.098 40 312.135 39.7538 313.015 39.2614C313.905 38.7689 314.592 38.0919 315.075 37.2301C315.567 36.3684 315.814 35.3835 315.814 34.2756V15.9091ZM332.962 32.3864V45H326.911V23.1818H332.678V27.0312H332.934C333.417 25.7623 334.226 24.7585 335.363 24.0199C336.499 23.2718 337.877 22.8977 339.496 22.8977C341.011 22.8977 342.332 23.2292 343.459 23.892C344.586 24.5549 345.462 25.5019 346.087 26.733C346.712 27.9545 347.025 29.4129 347.025 31.108V45H340.973V32.1875C340.983 30.8523 340.642 29.8106 339.951 29.0625C339.259 28.3049 338.308 27.9261 337.096 27.9261C336.281 27.9261 335.561 28.1013 334.936 28.4517C334.321 28.8021 333.838 29.3134 333.488 29.9858C333.147 30.6487 332.971 31.4489 332.962 32.3864ZM369.947 29.4034L364.407 29.7443C364.313 29.2708 364.109 28.8447 363.797 28.4659C363.484 28.0777 363.072 27.7699 362.561 27.5426C362.059 27.3059 361.458 27.1875 360.757 27.1875C359.819 27.1875 359.029 27.3864 358.385 27.7841C357.741 28.1723 357.419 28.6932 357.419 29.3466C357.419 29.8674 357.627 30.3078 358.044 30.6676C358.46 31.0275 359.175 31.3163 360.189 31.5341L364.137 32.3295C366.259 32.7652 367.84 33.4659 368.882 34.4318C369.923 35.3977 370.444 36.6667 370.444 38.2386C370.444 39.6686 370.023 40.9233 369.18 42.0028C368.347 43.0824 367.201 43.9252 365.743 44.5312C364.294 45.1278 362.622 45.4261 360.728 45.4261C357.84 45.4261 355.539 44.8248 353.825 43.6222C352.12 42.41 351.121 40.7623 350.828 38.679L356.779 38.3665C356.959 39.2472 357.395 39.9195 358.086 40.3835C358.778 40.8381 359.663 41.0653 360.743 41.0653C361.803 41.0653 362.655 40.8617 363.299 40.4545C363.953 40.0379 364.284 39.5028 364.294 38.8494C364.284 38.3002 364.052 37.8504 363.598 37.5C363.143 37.1402 362.442 36.8655 361.495 36.6761L357.717 35.9233C355.586 35.4972 354 34.7585 352.958 33.7074C351.926 32.6562 351.41 31.3163 351.41 29.6875C351.41 28.286 351.789 27.0786 352.547 26.0653C353.314 25.0521 354.388 24.2708 355.771 23.7216C357.163 23.1723 358.792 22.8977 360.657 22.8977C363.413 22.8977 365.582 23.4801 367.163 24.6449C368.754 25.8097 369.682 27.3958 369.947 29.4034ZM384.113 45.4261C381.906 45.4261 379.998 44.9574 378.388 44.0199C376.788 43.0729 375.552 41.7566 374.681 40.071C373.81 38.3759 373.374 36.411 373.374 34.1761C373.374 31.9223 373.81 29.9527 374.681 28.267C375.552 26.572 376.788 25.2557 378.388 24.3182C379.998 23.3712 381.906 22.8977 384.113 22.8977C386.319 22.8977 388.222 23.3712 389.823 24.3182C391.433 25.2557 392.673 26.572 393.544 28.267C394.416 29.9527 394.851 31.9223 394.851 34.1761C394.851 36.411 394.416 38.3759 393.544 40.071C392.673 41.7566 391.433 43.0729 389.823 44.0199C388.222 44.9574 386.319 45.4261 384.113 45.4261ZM384.141 40.7386C385.145 40.7386 385.983 40.4545 386.655 39.8864C387.328 39.3087 387.834 38.5227 388.175 37.5284C388.525 36.5341 388.701 35.4025 388.701 34.1335C388.701 32.8646 388.525 31.733 388.175 30.7386C387.834 29.7443 387.328 28.9583 386.655 28.3807C385.983 27.803 385.145 27.5142 384.141 27.5142C383.128 27.5142 382.275 27.803 381.584 28.3807C380.902 28.9583 380.386 29.7443 380.036 30.7386C379.695 31.733 379.525 32.8646 379.525 34.1335C379.525 35.4025 379.695 36.5341 380.036 37.5284C380.386 38.5227 380.902 39.3087 381.584 39.8864C382.275 40.4545 383.128 40.7386 384.141 40.7386ZM398.786 45V23.1818H404.652V26.9886H404.88C405.277 25.6345 405.945 24.6117 406.882 23.9205C407.82 23.2197 408.9 22.8693 410.121 22.8693C410.424 22.8693 410.751 22.8883 411.101 22.9261C411.452 22.964 411.759 23.0161 412.025 23.0824V28.4517C411.74 28.3665 411.347 28.2907 410.846 28.2244C410.344 28.1581 409.884 28.125 409.468 28.125C408.578 28.125 407.782 28.3191 407.081 28.7074C406.39 29.0862 405.841 29.6165 405.434 30.2983C405.036 30.9801 404.837 31.7661 404.837 32.6562V45H398.786ZM427.852 23.1818V27.7273H414.713V23.1818H427.852ZM417.696 17.9545H423.747V38.2955C423.747 38.8542 423.832 39.2898 424.002 39.6023C424.173 39.9053 424.41 40.1184 424.713 40.2415C425.025 40.3646 425.385 40.4261 425.792 40.4261C426.076 40.4261 426.36 40.4025 426.645 40.3551C426.929 40.2983 427.146 40.2557 427.298 40.2273L428.25 44.7301C427.947 44.8248 427.52 44.9337 426.971 45.0568C426.422 45.1894 425.754 45.2699 424.968 45.2983C423.51 45.3551 422.232 45.161 421.133 44.7159C420.044 44.2708 419.197 43.5795 418.591 42.642C417.984 41.7045 417.686 40.5208 417.696 39.0909V17.9545ZM441.502 45.4261C439.258 45.4261 437.326 44.9716 435.707 44.0625C434.097 43.1439 432.857 41.8466 431.985 40.1705C431.114 38.4848 430.679 36.4915 430.679 34.1903C430.679 31.946 431.114 29.9763 431.985 28.2812C432.857 26.5862 434.083 25.2652 435.664 24.3182C437.255 23.3712 439.121 22.8977 441.261 22.8977C442.7 22.8977 444.04 23.1297 445.281 23.5938C446.531 24.0483 447.62 24.7348 448.548 25.6534C449.485 26.572 450.215 27.7273 450.735 29.1193C451.256 30.5019 451.517 32.1212 451.517 33.9773V35.6392H433.093V31.8892H445.821C445.821 31.018 445.631 30.2462 445.252 29.5739C444.874 28.9015 444.348 28.3759 443.676 27.9972C443.013 27.6089 442.241 27.4148 441.36 27.4148C440.442 27.4148 439.627 27.6278 438.917 28.054C438.217 28.4706 437.667 29.0341 437.27 29.7443C436.872 30.4451 436.668 31.2263 436.659 32.0881V35.6534C436.659 36.733 436.858 37.6657 437.255 38.4517C437.663 39.2377 438.235 39.8438 438.974 40.2699C439.713 40.696 440.589 40.9091 441.602 40.9091C442.274 40.9091 442.89 40.8144 443.449 40.625C444.007 40.4356 444.485 40.1515 444.883 39.7727C445.281 39.3939 445.584 38.9299 445.792 38.3807L451.389 38.75C451.105 40.0947 450.522 41.2689 449.642 42.2727C448.77 43.267 447.644 44.0436 446.261 44.6023C444.888 45.1515 443.302 45.4261 441.502 45.4261ZM463.505 45.3551C461.848 45.3551 460.347 44.929 459.002 44.0767C457.667 43.215 456.607 41.9508 455.821 40.2841C455.044 38.608 454.656 36.553 454.656 34.1193C454.656 31.6193 455.058 29.5407 455.863 27.8835C456.668 26.2169 457.738 24.9716 459.074 24.1477C460.418 23.3144 461.891 22.8977 463.491 22.8977C464.713 22.8977 465.731 23.1061 466.545 23.5227C467.369 23.9299 468.032 24.4413 468.534 25.0568C469.045 25.6629 469.433 26.2595 469.699 26.8466H469.883V15.9091H475.92V45H469.954V41.5057H469.699C469.414 42.1117 469.012 42.7131 468.491 43.3097C467.98 43.8968 467.312 44.3845 466.488 44.7727C465.674 45.161 464.68 45.3551 463.505 45.3551ZM465.423 40.5398C466.398 40.5398 467.222 40.2746 467.895 39.7443C468.576 39.2045 469.097 38.4517 469.457 37.4858C469.826 36.5199 470.011 35.3883 470.011 34.0909C470.011 32.7936 469.831 31.6667 469.471 30.7102C469.111 29.7538 468.591 29.0152 467.909 28.4943C467.227 27.9735 466.398 27.7131 465.423 27.7131C464.429 27.7131 463.591 27.983 462.909 28.5227C462.227 29.0625 461.711 29.8106 461.36 30.767C461.01 31.7235 460.835 32.8314 460.835 34.0909C460.835 35.3598 461.01 36.482 461.36 37.4574C461.72 38.4233 462.236 39.1809 462.909 39.7301C463.591 40.2699 464.429 40.5398 465.423 40.5398ZM514.599 15.9091V45H509.287L496.63 26.6903H496.417V45H490.267V15.9091H495.664L508.221 34.2045H508.477V15.9091H514.599ZM533.559 35.7102V23.1818H539.61V45H533.8V41.0369H533.573C533.08 42.3153 532.261 43.3428 531.115 44.1193C529.979 44.8958 528.592 45.2841 526.953 45.2841C525.495 45.2841 524.212 44.9527 523.104 44.2898C521.996 43.6269 521.13 42.6847 520.505 41.4631C519.889 40.2415 519.577 38.7784 519.567 37.0739V23.1818H525.618V35.9943C525.628 37.2822 525.973 38.3002 526.655 39.0483C527.337 39.7964 528.251 40.1705 529.397 40.1705C530.126 40.1705 530.808 40.0047 531.442 39.6733C532.077 39.3324 532.588 38.8305 532.976 38.1676C533.374 37.5047 533.568 36.6856 533.559 35.7102ZM544.45 45V23.1818H550.217V27.0312H550.473C550.927 25.7528 551.685 24.7443 552.745 24.0057C553.806 23.267 555.075 22.8977 556.552 22.8977C558.048 22.8977 559.322 23.2718 560.373 24.0199C561.424 24.7585 562.125 25.7623 562.475 27.0312H562.703C563.148 25.7812 563.953 24.7822 565.118 24.0341C566.292 23.2765 567.679 22.8977 569.279 22.8977C571.315 22.8977 572.968 23.5464 574.237 24.8438C575.515 26.1316 576.154 27.9593 576.154 30.3267V45H570.118V31.5199C570.118 30.3078 569.796 29.3987 569.152 28.7926C568.508 28.1866 567.703 27.8835 566.737 27.8835C565.638 27.8835 564.781 28.2339 564.166 28.9347C563.55 29.6259 563.243 30.5398 563.243 31.6761V45H557.376V31.392C557.376 30.322 557.068 29.4697 556.453 28.8352C555.847 28.2008 555.047 27.8835 554.052 27.8835C553.38 27.8835 552.774 28.054 552.234 28.3949C551.704 28.7263 551.282 29.1951 550.97 29.8011C550.657 30.3977 550.501 31.0985 550.501 31.9034V45H544.45ZM581.048 45V15.9091H587.099V26.8466H587.284C587.549 26.2595 587.932 25.6629 588.434 25.0568C588.946 24.4413 589.609 23.9299 590.423 23.5227C591.247 23.1061 592.27 22.8977 593.491 22.8977C595.082 22.8977 596.55 23.3144 597.895 24.1477C599.239 24.9716 600.314 26.2169 601.119 27.8835C601.924 29.5407 602.326 31.6193 602.326 34.1193C602.326 36.553 601.933 38.608 601.147 40.2841C600.371 41.9508 599.31 43.215 597.966 44.0767C596.63 44.929 595.134 45.3551 593.477 45.3551C592.303 45.3551 591.304 45.161 590.48 44.7727C589.665 44.3845 588.998 43.8968 588.477 43.3097C587.956 42.7131 587.558 42.1117 587.284 41.5057H587.014V45H581.048ZM586.971 34.0909C586.971 35.3883 587.151 36.5199 587.511 37.4858C587.871 38.4517 588.392 39.2045 589.074 39.7443C589.755 40.2746 590.584 40.5398 591.559 40.5398C592.544 40.5398 593.377 40.2699 594.059 39.7301C594.741 39.1809 595.257 38.4233 595.608 37.4574C595.967 36.482 596.147 35.3598 596.147 34.0909C596.147 32.8314 595.972 31.7235 595.622 30.767C595.271 29.8106 594.755 29.0625 594.074 28.5227C593.392 27.983 592.554 27.7131 591.559 27.7131C590.574 27.7131 589.741 27.9735 589.059 28.4943C588.387 29.0152 587.871 29.7538 587.511 30.7102C587.151 31.6667 586.971 32.7936 586.971 34.0909ZM616.307 45.4261C614.063 45.4261 612.131 44.9716 610.512 44.0625C608.902 43.1439 607.661 41.8466 606.79 40.1705C605.919 38.4848 605.483 36.4915 605.483 34.1903C605.483 31.946 605.919 29.9763 606.79 28.2812C607.661 26.5862 608.888 25.2652 610.469 24.3182C612.06 23.3712 613.926 22.8977 616.066 22.8977C617.505 22.8977 618.845 23.1297 620.086 23.5938C621.336 24.0483 622.425 24.7348 623.353 25.6534C624.29 26.572 625.019 27.7273 625.54 29.1193C626.061 30.5019 626.321 32.1212 626.321 33.9773V35.6392H607.898V31.8892H620.625C620.625 31.018 620.436 30.2462 620.057 29.5739C619.678 28.9015 619.153 28.3759 618.48 27.9972C617.818 27.6089 617.046 27.4148 616.165 27.4148C615.247 27.4148 614.432 27.6278 613.722 28.054C613.021 28.4706 612.472 29.0341 612.074 29.7443C611.676 30.4451 611.473 31.2263 611.463 32.0881V35.6534C611.463 36.733 611.662 37.6657 612.06 38.4517C612.467 39.2377 613.04 39.8438 613.779 40.2699C614.517 40.696 615.393 40.9091 616.407 40.9091C617.079 40.9091 617.694 40.8144 618.253 40.625C618.812 40.4356 619.29 40.1515 619.688 39.7727C620.086 39.3939 620.389 38.9299 620.597 38.3807L626.194 38.75C625.909 40.0947 625.327 41.2689 624.446 42.2727C623.575 43.267 622.448 44.0436 621.066 44.6023C619.693 45.1515 618.106 45.4261 616.307 45.4261ZM630.27 45V23.1818H636.137V26.9886H636.364C636.762 25.6345 637.429 24.6117 638.367 23.9205C639.304 23.2197 640.384 22.8693 641.605 22.8693C641.908 22.8693 642.235 22.8883 642.586 22.9261C642.936 22.964 643.244 23.0161 643.509 23.0824V28.4517C643.225 28.3665 642.832 28.2907 642.33 28.2244C641.828 28.1581 641.369 28.125 640.952 28.125C640.062 28.125 639.266 28.3191 638.566 28.7074C637.874 29.0862 637.325 29.6165 636.918 30.2983C636.52 30.9801 636.321 31.7661 636.321 32.6562V45H630.27ZM664.791 29.4034L659.251 29.7443C659.156 29.2708 658.953 28.8447 658.64 28.4659C658.328 28.0777 657.916 27.7699 657.404 27.5426C656.903 27.3059 656.301 27.1875 655.6 27.1875C654.663 27.1875 653.872 27.3864 653.228 27.7841C652.584 28.1723 652.262 28.6932 652.262 29.3466C652.262 29.8674 652.471 30.3078 652.887 30.6676C653.304 31.0275 654.019 31.3163 655.032 31.5341L658.981 32.3295C661.102 32.7652 662.684 33.4659 663.725 34.4318C664.767 35.3977 665.288 36.6667 665.288 38.2386C665.288 39.6686 664.867 40.9233 664.024 42.0028C663.19 43.0824 662.045 43.9252 660.586 44.5312C659.137 45.1278 657.466 45.4261 655.572 45.4261C652.684 45.4261 650.383 44.8248 648.669 43.6222C646.964 42.41 645.965 40.7623 645.672 38.679L651.623 38.3665C651.803 39.2472 652.239 39.9195 652.93 40.3835C653.621 40.8381 654.507 41.0653 655.586 41.0653C656.647 41.0653 657.499 40.8617 658.143 40.4545C658.797 40.0379 659.128 39.5028 659.137 38.8494C659.128 38.3002 658.896 37.8504 658.441 37.5C657.987 37.1402 657.286 36.8655 656.339 36.6761L652.561 35.9233C650.43 35.4972 648.844 34.7585 647.802 33.7074C646.77 32.6562 646.254 31.3163 646.254 29.6875C646.254 28.286 646.633 27.0786 647.39 26.0653C648.157 25.0521 649.232 24.2708 650.615 23.7216C652.007 23.1723 653.636 22.8977 655.501 22.8977C658.257 22.8977 660.425 23.4801 662.007 24.6449C663.598 25.8097 664.526 27.3958 664.791 29.4034Z" fill="white"/>
<path d="M408.497 166.398C406.622 166.398 404.951 166.076 403.483 165.432C402.025 164.788 400.865 163.893 400.003 162.747C399.151 161.592 398.687 160.252 398.611 158.727H402.19C402.266 159.665 402.588 160.474 403.156 161.156C403.724 161.829 404.468 162.349 405.386 162.719C406.305 163.088 407.323 163.273 408.44 163.273C409.69 163.273 410.798 163.055 411.764 162.619C412.73 162.184 413.488 161.578 414.037 160.801C414.586 160.025 414.861 159.125 414.861 158.102C414.861 157.032 414.596 156.09 414.065 155.276C413.535 154.452 412.759 153.808 411.736 153.344C410.713 152.88 409.463 152.648 407.986 152.648H405.656V149.523H407.986C409.141 149.523 410.154 149.314 411.026 148.898C411.906 148.481 412.593 147.894 413.085 147.136C413.587 146.379 413.838 145.489 413.838 144.466C413.838 143.481 413.62 142.624 413.185 141.895C412.749 141.166 412.134 140.598 411.338 140.19C410.552 139.783 409.624 139.58 408.554 139.58C407.55 139.58 406.603 139.764 405.713 140.134C404.832 140.493 404.113 141.019 403.554 141.71C402.995 142.392 402.692 143.216 402.645 144.182H399.236C399.293 142.657 399.752 141.322 400.614 140.176C401.475 139.021 402.602 138.121 403.994 137.477C405.396 136.833 406.935 136.511 408.611 136.511C410.41 136.511 411.954 136.876 413.241 137.605C414.529 138.325 415.519 139.277 416.21 140.46C416.902 141.644 417.247 142.922 417.247 144.295C417.247 145.934 416.816 147.33 415.955 148.486C415.102 149.641 413.942 150.441 412.474 150.886V151.114C414.312 151.417 415.746 152.198 416.778 153.457C417.811 154.707 418.327 156.256 418.327 158.102C418.327 159.684 417.896 161.104 417.034 162.364C416.182 163.614 415.017 164.598 413.54 165.318C412.063 166.038 410.382 166.398 408.497 166.398ZM424.136 166V163.443L433.739 152.932C434.866 151.701 435.794 150.631 436.523 149.722C437.252 148.803 437.792 147.941 438.142 147.136C438.502 146.322 438.682 145.47 438.682 144.58C438.682 143.557 438.436 142.671 437.943 141.923C437.46 141.175 436.797 140.598 435.955 140.19C435.112 139.783 434.165 139.58 433.114 139.58C431.996 139.58 431.021 139.812 430.188 140.276C429.364 140.73 428.724 141.369 428.27 142.193C427.825 143.017 427.602 143.983 427.602 145.091H424.25C424.25 143.386 424.643 141.89 425.429 140.602C426.215 139.314 427.285 138.311 428.639 137.591C430.003 136.871 431.532 136.511 433.227 136.511C434.932 136.511 436.442 136.871 437.759 137.591C439.075 138.311 440.107 139.281 440.855 140.503C441.603 141.724 441.977 143.083 441.977 144.58C441.977 145.65 441.783 146.696 441.395 147.719C441.016 148.732 440.353 149.864 439.406 151.114C438.469 152.354 437.167 153.869 435.5 155.659L428.966 162.648V162.875H442.489V166H424.136Z" fill="white"/>
<path d="M519.976 166V163.443L529.578 152.932C530.705 151.701 531.633 150.631 532.363 149.722C533.092 148.803 533.632 147.941 533.982 147.136C534.342 146.322 534.522 145.47 534.522 144.58C534.522 143.557 534.275 142.671 533.783 141.923C533.3 141.175 532.637 140.598 531.794 140.19C530.952 139.783 530.005 139.58 528.953 139.58C527.836 139.58 526.861 139.812 526.027 140.276C525.203 140.73 524.564 141.369 524.11 142.193C523.665 143.017 523.442 143.983 523.442 145.091H520.09C520.09 143.386 520.483 141.89 521.269 140.602C522.055 139.314 523.125 138.311 524.479 137.591C525.843 136.871 527.372 136.511 529.067 136.511C530.772 136.511 532.282 136.871 533.598 137.591C534.915 138.311 535.947 139.281 536.695 140.503C537.443 141.724 537.817 143.083 537.817 144.58C537.817 145.65 537.623 146.696 537.235 147.719C536.856 148.732 536.193 149.864 535.246 151.114C534.309 152.354 533.007 153.869 531.34 155.659L524.806 162.648V162.875H538.328V166H519.976ZM545.104 166L558.115 140.261V140.034H543.115V136.909H561.752V140.205L548.797 166H545.104Z" fill="white"/>
<path d="M642.105 166V163.443L651.707 152.932C652.834 151.701 653.762 150.631 654.491 149.722C655.221 148.803 655.76 147.941 656.111 147.136C656.471 146.322 656.651 145.47 656.651 144.58C656.651 143.557 656.404 142.671 655.912 141.923C655.429 141.175 654.766 140.598 653.923 140.19C653.08 139.783 652.134 139.58 651.082 139.58C649.965 139.58 648.99 139.812 648.156 140.276C647.332 140.73 646.693 141.369 646.239 142.193C645.794 143.017 645.571 143.983 645.571 145.091H642.219C642.219 143.386 642.612 141.89 643.398 140.602C644.184 139.314 645.254 138.311 646.608 137.591C647.972 136.871 649.501 136.511 651.196 136.511C652.901 136.511 654.411 136.871 655.727 137.591C657.044 138.311 658.076 139.281 658.824 140.503C659.572 141.724 659.946 143.083 659.946 144.58C659.946 145.65 659.752 146.696 659.364 147.719C658.985 148.732 658.322 149.864 657.375 151.114C656.438 152.354 655.135 153.869 653.469 155.659L646.935 162.648V162.875H660.457V166H642.105ZM676.551 136.909V166H673.028V140.602H672.858L665.756 145.318V141.739L673.028 136.909H676.551Z" fill="white"/>
<path d="M780.434 166.398C778.768 166.398 777.267 166.066 775.931 165.403C774.596 164.741 773.526 163.831 772.721 162.676C771.916 161.521 771.476 160.205 771.4 158.727H774.809C774.942 160.044 775.538 161.133 776.599 161.994C777.669 162.847 778.948 163.273 780.434 163.273C781.627 163.273 782.688 162.993 783.616 162.435C784.554 161.876 785.288 161.109 785.818 160.134C786.358 159.149 786.627 158.036 786.627 156.795C786.627 155.527 786.348 154.395 785.789 153.401C785.24 152.397 784.483 151.606 783.517 151.028C782.551 150.451 781.448 150.157 780.207 150.148C779.317 150.138 778.403 150.276 777.466 150.56C776.528 150.834 775.756 151.189 775.15 151.625L771.855 151.227L773.616 136.909H788.73V140.034H776.571L775.548 148.614H775.718C776.315 148.14 777.063 147.747 777.963 147.435C778.862 147.122 779.8 146.966 780.775 146.966C782.556 146.966 784.142 147.392 785.534 148.244C786.935 149.087 788.034 150.242 788.829 151.71C789.634 153.178 790.037 154.854 790.037 156.739C790.037 158.595 789.62 160.252 788.787 161.71C787.963 163.159 786.826 164.305 785.377 165.148C783.929 165.981 782.281 166.398 780.434 166.398Z" fill="white"/>
<path d="M891.942 136.909V166H888.419V140.602H888.249L881.146 145.318V141.739L888.419 136.909H891.942ZM909.797 166.398C907.657 166.398 905.834 165.815 904.328 164.651C902.822 163.476 901.672 161.777 900.876 159.551C900.081 157.316 899.683 154.617 899.683 151.455C899.683 148.311 900.081 145.626 900.876 143.401C901.681 141.166 902.837 139.461 904.342 138.287C905.857 137.103 907.676 136.511 909.797 136.511C911.918 136.511 913.732 137.103 915.237 138.287C916.752 139.461 917.908 141.166 918.703 143.401C919.508 145.626 919.911 148.311 919.911 151.455C919.911 154.617 919.513 157.316 918.717 159.551C917.922 161.777 916.771 163.476 915.266 164.651C913.76 165.815 911.937 166.398 909.797 166.398ZM909.797 163.273C911.918 163.273 913.566 162.25 914.74 160.205C915.914 158.159 916.501 155.242 916.501 151.455C916.501 148.936 916.232 146.791 915.692 145.02C915.161 143.249 914.394 141.9 913.391 140.972C912.396 140.044 911.198 139.58 909.797 139.58C907.695 139.58 906.052 140.616 904.868 142.69C903.684 144.755 903.092 147.676 903.092 151.455C903.092 153.973 903.357 156.114 903.888 157.875C904.418 159.636 905.18 160.976 906.175 161.895C907.179 162.813 908.386 163.273 909.797 163.273Z" fill="white"/>
</svg>
