<svg xmlns="http://www.w3.org/2000/svg" width="961" height="225" fill="none" viewBox="0 0 961 225"><rect width="959" height="120" x="1" y="104" stroke="#dbdbdb" stroke-width="2" rx="26"/><path stroke="#dbdbdb" stroke-width="2" d="M121 103v122M241 103v122M361 103v122M481 103v122M601 103v122M721 103v122M841 103v122"/><path fill="#fff" d="M50.402 178v-2.557l9.602-10.511a67 67 0 0 0 2.784-3.21q1.095-1.379 1.62-2.586.54-1.221.54-2.556 0-1.535-.74-2.657-.723-1.121-1.988-1.733-1.265-.61-2.84-.61-1.677 0-2.927.696a4.8 4.8 0 0 0-1.918 1.917q-.667 1.236-.667 2.898h-3.352q0-2.557 1.179-4.489a8.2 8.2 0 0 1 3.21-3.011q2.046-1.08 4.588-1.08 2.557 0 4.531 1.08 1.975 1.08 3.097 2.912t1.122 4.077q0 1.605-.582 3.139-.569 1.52-1.99 3.395-1.406 1.86-3.905 4.545l-6.535 6.989v.227h13.523V178zM179.607 178.398q-2.813 0-5.015-.966-2.187-.966-3.48-2.685-1.278-1.732-1.392-4.02h3.58q.112 1.407.966 2.429.852 1.009 2.23 1.563 1.377.554 3.054.554 1.875 0 3.324-.654 1.448-.653 2.272-1.818.825-1.164.824-2.699 0-1.605-.795-2.826-.796-1.236-2.33-1.932t-3.75-.696h-2.329v-3.125h2.329q1.733 0 3.04-.625 1.321-.625 2.06-1.762.752-1.136.752-2.67 0-1.478-.653-2.571t-1.847-1.705q-1.179-.61-2.784-.61-1.504 0-2.841.554-1.32.539-2.159 1.576-.837 1.023-.909 2.472h-3.409q.085-2.287 1.378-4.006 1.293-1.733 3.381-2.699 2.102-.966 4.616-.966 2.699 0 4.631 1.094 1.932 1.08 2.969 2.855a7.5 7.5 0 0 1 1.037 3.835q0 2.458-1.293 4.191-1.278 1.733-3.48 2.4v.228q2.756.454 4.304 2.343 1.548 1.876 1.548 4.645 0 2.373-1.293 4.262-1.278 1.875-3.494 2.954t-5.042 1.08M299.434 178.398q-2.499 0-4.503-.995-2.002-.994-3.21-2.727-1.207-1.732-1.321-3.949h3.409q.199 1.976 1.79 3.267 1.605 1.28 3.835 1.279 1.79 0 3.182-.838a5.9 5.9 0 0 0 2.202-2.301q.81-1.478.809-3.339 0-1.903-.838-3.394a6.15 6.15 0 0 0-2.272-2.373q-1.449-.866-3.31-.88a9 9 0 0 0-2.741.412q-1.407.411-2.316 1.065l-3.295-.398 1.761-14.318h15.114v3.125h-12.159l-1.023 8.58h.17q.895-.711 2.245-1.179a8.5 8.5 0 0 1 2.812-.469q2.671 0 4.759 1.278a8.93 8.93 0 0 1 3.295 3.466q1.208 2.202 1.208 5.029 0 2.784-1.25 4.971a9.14 9.14 0 0 1-3.41 3.438q-2.172 1.25-4.943 1.25M411.995 178l13.011-25.739v-.227h-15v-3.125h18.636v3.296L415.688 178zM535.145 148.909V178h-3.523v-25.398h-.17l-7.103 4.716v-3.579l7.273-4.83zm18.594 0V178h-3.523v-25.398h-.171l-7.102 4.716v-3.579l7.273-4.83zM651.707 148.909V178h-3.522v-25.398h-.171l-7.102 4.716v-3.579l7.273-4.83zm18.196 29.489q-2.812 0-5.014-.966-2.187-.966-3.48-2.685-1.278-1.732-1.392-4.02h3.58q.113 1.407.965 2.429.853 1.009 2.231 1.563t3.054.554q1.875 0 3.323-.654 1.45-.653 2.273-1.818.824-1.164.824-2.699 0-1.605-.795-2.826-.796-1.236-2.33-1.932t-3.75-.696h-2.33v-3.125h2.33q1.733 0 3.04-.625 1.321-.625 2.059-1.762.753-1.136.753-2.67 0-1.478-.653-2.571-.654-1.093-1.847-1.705-1.179-.61-2.784-.61a7.3 7.3 0 0 0-2.841.554q-1.32.539-2.159 1.576-.838 1.023-.909 2.472h-3.409q.085-2.287 1.378-4.006 1.293-1.733 3.381-2.699 2.102-.966 4.616-.966 2.699 0 4.631 1.094 1.932 1.08 2.968 2.855a7.47 7.47 0 0 1 1.037 3.835q0 2.458-1.292 4.191-1.279 1.733-3.48 2.4v.228q2.755.454 4.304 2.343 1.548 1.876 1.548 4.645 0 2.373-1.293 4.262-1.278 1.875-3.494 2.954-2.215 1.08-5.043 1.08M773.016 148.909V178h-3.523v-25.398h-.17l-7.102 4.716v-3.579l7.272-4.83zM782.292 178l13.011-25.739v-.227h-15v-3.125h18.636v3.296L785.985 178zM890.961 148.909V178h-3.522v-25.398h-.171l-7.102 4.716v-3.579l7.273-4.83zm17.628-.398q1.79.015 3.58.682 1.79.668 3.267 2.216 1.477 1.535 2.372 4.19.894 2.657.895 6.662 0 3.879-.739 6.89-.725 2.997-2.102 5.056-1.364 2.06-3.324 3.125-1.946 1.066-4.403 1.066-2.444 0-4.361-.966a8.56 8.56 0 0 1-3.125-2.713q-1.207-1.747-1.549-4.049h3.466q.47 2.004 1.861 3.31 1.406 1.293 3.708 1.293 3.366 0 5.312-2.941 1.96-2.94 1.96-8.309h-.227a8.9 8.9 0 0 1-1.889 2.059 8.3 8.3 0 0 1-2.429 1.336 8.5 8.5 0 0 1-2.841.468q-2.5 0-4.588-1.235-2.075-1.25-3.324-3.424-1.236-2.187-1.236-5 0-2.67 1.193-4.886a9.2 9.2 0 0 1 3.381-3.551q2.187-1.321 5.142-1.279m0 3.125q-1.79 0-3.224.895a6.44 6.44 0 0 0-2.259 2.387q-.824 1.491-.824 3.309t.796 3.31a6.35 6.35 0 0 0 2.201 2.358q1.407.867 3.196.866 1.35 0 2.515-.525a6.5 6.5 0 0 0 2.031-1.463 7.1 7.1 0 0 0 1.378-2.117 6.4 6.4 0 0 0 .497-2.486 6.5 6.5 0 0 0-.824-3.196 6.54 6.54 0 0 0-2.244-2.414q-1.42-.924-3.239-.924M332.65 45V15.91h11.477q3.31 0 5.639 1.263 2.33 1.251 3.551 3.48 1.236 2.217 1.236 5.114 0 2.898-1.25 5.114t-3.622 3.451q-2.358 1.236-5.71 1.236h-7.316V30.64h6.321q1.776 0 2.926-.61 1.166-.625 1.733-1.72.583-1.107.583-2.542 0-1.45-.583-2.528-.567-1.095-1.733-1.69-1.164-.611-2.954-.611H338.8V45zm25.784 0V23.182h5.867v3.807h.227q.597-2.032 2.003-3.068 1.406-1.052 3.239-1.052.454 0 .98.057.525.057.923.156v5.37a8 8 0 0 0-1.179-.228q-.753-.099-1.378-.099-1.335 0-2.386.582a4.3 4.3 0 0 0-1.648 1.591q-.597 1.023-.597 2.358V45zm16.367 0V23.182h6.052V45zm3.04-24.63q-1.349 0-2.315-.896-.952-.909-.952-2.173 0-1.25.952-2.145.966-.909 2.315-.909 1.35 0 2.301.91.966.894.966 2.144 0 1.264-.966 2.173-.951.895-2.301.895M385.7 45V23.182h5.767v3.85h.256q.681-1.92 2.272-3.026 1.591-1.108 3.807-1.108 2.244 0 3.821 1.122 1.577 1.108 2.102 3.011h.228q.668-1.875 2.415-2.997 1.761-1.136 4.161-1.136 3.054 0 4.958 1.946 1.917 1.932 1.917 5.483V45h-6.036V31.52q0-1.818-.966-2.727-.966-.91-2.415-.91-1.648 0-2.571 1.052-.923 1.036-.923 2.741V45h-5.867V31.392q0-1.605-.923-2.557-.909-.951-2.401-.951-1.008 0-1.818.51-.795.498-1.264 1.407-.47.896-.469 2.102V45zm46.427.426q-3.366 0-5.795-1.364-2.415-1.377-3.722-3.892-1.306-2.527-1.306-5.98 0-3.366 1.306-5.909 1.308-2.542 3.679-3.963 2.387-1.42 5.597-1.42 2.159 0 4.02.696a8.9 8.9 0 0 1 3.267 2.06q1.406 1.377 2.187 3.465.782 2.074.782 4.858v1.662h-18.424v-3.75h12.728q0-1.307-.569-2.315a4.06 4.06 0 0 0-1.576-1.577q-.994-.582-2.316-.582-1.377 0-2.443.639-1.05.625-1.647 1.69-.597 1.051-.611 2.344v3.565q0 1.62.596 2.799a4.37 4.37 0 0 0 1.719 1.818q1.108.64 2.628.64 1.008 0 1.847-.285a3.8 3.8 0 0 0 1.434-.852q.597-.57.909-1.392l5.597.369a7.65 7.65 0 0 1-1.747 3.523q-1.307 1.49-3.381 2.33-2.06.823-4.759.823m47.667-29.517V45h-5.312l-12.656-18.31h-.213V45h-6.151V15.91h5.398l12.557 18.295h.255V15.909zm18.96 19.801V23.182h6.051V45h-5.81v-3.963h-.227a6.44 6.44 0 0 1-2.457 3.082q-1.705 1.165-4.162 1.165-2.188 0-3.85-.994t-2.599-2.827q-.923-1.832-.938-4.39V23.183h6.052v12.812q.014 1.932 1.036 3.054t2.742 1.122a4.35 4.35 0 0 0 2.045-.497q.952-.511 1.535-1.505.596-.994.582-2.458M509.645 45V23.182h5.767v3.85h.256q.682-1.92 2.273-3.026 1.59-1.108 3.807-1.108 2.243 0 3.821 1.122 1.576 1.108 2.102 3.011h.227q.668-1.875 2.415-2.997 1.76-1.136 4.162-1.136 3.054 0 4.957 1.946 1.918 1.932 1.918 5.483V45h-6.037V31.52q0-1.818-.966-2.727-.966-.91-2.415-.91-1.647 0-2.571 1.052-.923 1.036-.923 2.741V45h-5.867V31.392q0-1.605-.923-2.557-.909-.951-2.4-.951-1.01 0-1.819.51-.795.498-1.264 1.407-.469.896-.469 2.102V45zm36.598 0V15.91h6.051v10.937h.185q.398-.882 1.151-1.79.767-.924 1.988-1.534 1.236-.625 3.068-.625 2.386 0 4.404 1.25 2.017 1.236 3.224 3.736 1.208 2.485 1.208 6.235 0 3.651-1.179 6.165-1.165 2.5-3.182 3.793-2.003 1.278-4.489 1.278-1.761 0-2.997-.582-1.221-.583-2.003-1.463-.781-.895-1.193-1.804h-.27V45zm5.924-10.91q0 1.947.539 3.396.54 1.45 1.563 2.258 1.023.795 2.486.796 1.476 0 2.5-.81 1.022-.825 1.548-2.273.54-1.462.54-3.366 0-1.89-.526-3.324-.525-1.434-1.548-2.244t-2.514-.81q-1.478 0-2.5.781-1.01.782-1.549 2.216-.54 1.436-.539 3.38m29.335 11.336q-3.366 0-5.795-1.364-2.415-1.377-3.722-3.892-1.306-2.527-1.306-5.98 0-3.366 1.306-5.909 1.308-2.542 3.679-3.963 2.387-1.42 5.597-1.42 2.159 0 4.02.696a8.9 8.9 0 0 1 3.267 2.06q1.406 1.377 2.187 3.465.782 2.074.782 4.858v1.662h-18.424v-3.75h12.728q0-1.307-.569-2.315a4.06 4.06 0 0 0-1.576-1.577q-.994-.582-2.316-.582-1.377 0-2.443.639-1.05.625-1.647 1.69-.597 1.051-.611 2.344v3.565q0 1.62.596 2.799a4.37 4.37 0 0 0 1.719 1.818q1.108.64 2.628.64 1.008 0 1.847-.285a3.8 3.8 0 0 0 1.434-.852q.597-.57.909-1.392l5.597.369a7.65 7.65 0 0 1-1.747 3.523q-1.307 1.49-3.381 2.33-2.06.823-4.759.823M595.466 45V23.182h5.866v3.807h.227q.597-2.032 2.003-3.068 1.407-1.052 3.239-1.052.455 0 .98.057t.923.156v5.37a8 8 0 0 0-1.179-.228q-.753-.099-1.378-.099-1.335 0-2.386.582a4.3 4.3 0 0 0-1.648 1.591q-.596 1.023-.596 2.358V45zm34.52-15.597-5.54.341a2.86 2.86 0 0 0-.61-1.278 3.25 3.25 0 0 0-1.236-.923q-.753-.355-1.804-.355-1.407 0-2.372.596-.966.583-.966 1.563 0 .78.625 1.32.624.54 2.145.867l3.948.796q3.183.653 4.745 2.102t1.562 3.807q0 2.145-1.264 3.764-1.25 1.62-3.437 2.528-2.174.895-5.015.895-4.332 0-6.903-1.804-2.558-1.818-2.997-4.943l5.952-.312q.269 1.32 1.306 2.017 1.038.681 2.657.681 1.59 0 2.556-.61.98-.625.995-1.606-.015-.824-.696-1.349-.682-.54-2.103-.824l-3.778-.753q-3.196-.64-4.758-2.216-1.55-1.575-1.549-4.02 0-2.101 1.137-3.622 1.15-1.52 3.224-2.343 2.088-.825 4.886-.824 4.134 0 6.506 1.747 2.387 1.747 2.784 4.758"/></svg>