<svg xmlns="http://www.w3.org/2000/svg" width="1221" height="393" fill="none" viewBox="0 0 1221 393"><path fill="#2e2e2e" d="M22 178c0-14.912 12.088-27 27-27h93v120H22z"/><rect width="1199" height="242" x="21" y="150" stroke="#dbdbdb" stroke-width="2" rx="26"/><path stroke="#dbdbdb" stroke-width="2" d="M141 149v244M20 270h1201M261 149v244M382 149v244M502 149v244M622 149v244M742 149v244M862 149v244M982 149v244M1102 149v244"/><path fill="#727272" d="M83.442 194.909V224h-3.523v-25.398h-.17l-7.103 4.716v-3.579l7.273-4.83z"/><path fill="#fff" d="M74.145 311.909V341h-3.523v-25.398h-.17l-7.103 4.716v-3.579l7.273-4.83zm18.594 0V341h-3.523v-25.398h-.17l-7.103 4.716v-3.579l7.273-4.83zM190.402 224v-2.557l9.602-10.511a67 67 0 0 0 2.784-3.21q1.094-1.379 1.62-2.586a6.25 6.25 0 0 0 .539-2.556q0-1.535-.738-2.657-.724-1.121-1.989-1.733-1.264-.61-2.841-.61-1.676 0-2.926.696a4.8 4.8 0 0 0-1.917 1.917q-.668 1.236-.668 2.898h-3.352q0-2.557 1.179-4.489a8.2 8.2 0 0 1 3.21-3.011q2.045-1.08 4.588-1.08 2.557 0 4.531 1.08t3.097 2.912 1.122 4.077q0 1.605-.582 3.139-.569 1.52-1.989 3.395-1.407 1.86-3.906 4.545l-6.534 6.989v.227h13.522V224zM191.332 311.909V341h-3.522v-25.398h-.171l-7.102 4.716v-3.579l7.273-4.83zM199.699 341v-2.557l9.602-10.511a67 67 0 0 0 2.784-3.21q1.093-1.379 1.62-2.586a6.3 6.3 0 0 0 .539-2.556q0-1.535-.738-2.657-.725-1.121-1.989-1.733-1.264-.61-2.841-.61-1.676 0-2.926.696a4.8 4.8 0 0 0-1.918 1.917q-.667 1.236-.667 2.898h-3.353q0-2.557 1.179-4.489a8.2 8.2 0 0 1 3.211-3.011q2.045-1.08 4.588-1.08 2.557 0 4.531 1.08 1.975 1.08 3.097 2.912t1.122 4.077q0 1.605-.583 3.139-.567 1.52-1.988 3.395-1.407 1.86-3.907 4.545l-6.534 6.989v.227h13.523V341zM30.296 20h-2.819q-.25-1.216-.875-2.136a5.8 5.8 0 0 0-1.5-1.546 6.4 6.4 0 0 0-1.943-.954 7.8 7.8 0 0 0-2.227-.319q-2.114 0-3.83 1.069-1.704 1.068-2.716 3.147-1 2.08-1 5.103t1 5.102q1.012 2.079 2.716 3.148 1.715 1.068 3.83 1.068 1.16 0 2.227-.318a6.5 6.5 0 0 0 1.943-.944 6 6 0 0 0 1.5-1.556 6 6 0 0 0 .875-2.137h2.819q-.319 1.785-1.16 3.194a8.7 8.7 0 0 1-2.09 2.397 9.2 9.2 0 0 1-2.807 1.489q-1.546.51-3.307.511-2.977 0-5.296-1.454-2.318-1.455-3.647-4.137-1.33-2.682-1.33-6.363T11.99 18q1.33-2.682 3.647-4.136 2.319-1.455 5.296-1.455 1.76 0 3.307.511 1.556.511 2.807 1.5a8.6 8.6 0 0 1 2.09 2.387q.841 1.398 1.16 3.193m4.19 16V18.546h2.59v2.636h.182q.478-1.296 1.728-2.102 1.25-.807 2.818-.807.295 0 .739.011.443.012.67.034v2.727q-.136-.033-.625-.102a6 6 0 0 0-1.011-.08q-1.273 0-2.273.535a4.03 4.03 0 0 0-1.568 1.454q-.568.921-.568 2.102V36zm18.466.364q-2.364 0-4.148-1.125-1.773-1.125-2.773-3.148-.988-2.023-.988-4.727 0-2.728.988-4.762 1-2.034 2.773-3.159 1.785-1.125 4.148-1.125 2.364 0 4.136 1.125 1.785 1.125 2.773 3.16 1 2.033 1 4.76 0 2.706-1 4.728-.989 2.023-2.773 3.148-1.773 1.125-4.136 1.125m0-2.41q1.796 0 2.954-.92 1.16-.92 1.716-2.42.557-1.5.557-3.25t-.557-3.262-1.716-2.443-2.954-.932-2.955.932-1.716 2.443-.557 3.262.557 3.25 1.716 2.42 2.955.92m24.366-11.5-2.409.682a4.5 4.5 0 0 0-.67-1.17q-.432-.58-1.182-.955t-1.92-.375q-1.603 0-2.671.739-1.057.727-1.057 1.852 0 1 .727 1.58.728.579 2.273.966l2.591.636q2.34.568 3.489 1.739 1.147 1.16 1.147 2.988 0 1.5-.863 2.682-.853 1.182-2.387 1.864t-3.568.682q-2.67 0-4.42-1.16-1.75-1.158-2.216-3.386l2.545-.636q.364 1.41 1.375 2.113 1.023.705 2.67.705 1.875 0 2.978-.795 1.114-.807 1.114-1.932a2.03 2.03 0 0 0-.637-1.523q-.636-.625-1.954-.932l-2.91-.682q-2.397-.567-3.522-1.761-1.114-1.205-1.114-3.011 0-1.477.83-2.614.84-1.136 2.284-1.784 1.455-.648 3.295-.648 2.592 0 4.069 1.136 1.489 1.137 2.113 3m16.719 0-2.41.682a4.5 4.5 0 0 0-.67-1.17q-.43-.58-1.181-.955-.75-.375-1.92-.375-1.605 0-2.671.739-1.057.727-1.057 1.852 0 1 .727 1.58.727.579 2.273.966l2.59.636q2.341.568 3.49 1.739 1.147 1.16 1.147 2.988 0 1.5-.864 2.682-.852 1.182-2.386 1.864t-3.568.682q-2.67 0-4.42-1.16-1.75-1.158-2.216-3.386l2.545-.636q.363 1.41 1.375 2.113 1.023.705 2.67.705 1.875 0 2.978-.795 1.113-.807 1.113-1.932a2.03 2.03 0 0 0-.636-1.523q-.637-.625-1.954-.932l-2.91-.682q-2.397-.567-3.522-1.761-1.114-1.205-1.114-3.011 0-1.477.83-2.614.84-1.136 2.284-1.784 1.455-.648 3.295-.648 2.59 0 4.068 1.136 1.489 1.137 2.114 3m20.446 13.91q-2.363 0-4.148-1.125-1.773-1.125-2.773-3.148-.988-2.023-.988-4.727 0-2.728.988-4.762 1-2.034 2.773-3.159 1.785-1.125 4.148-1.125 2.364 0 4.136 1.125 1.785 1.125 2.773 3.16 1 2.033 1 4.76 0 2.706-1 4.728-.988 2.023-2.773 3.148-1.772 1.125-4.136 1.125m0-2.41q1.796 0 2.955-.92 1.158-.92 1.715-2.42t.557-3.25-.557-3.262-1.715-2.443q-1.16-.932-2.955-.932t-2.955.932q-1.158.932-1.716 2.443-.556 1.512-.556 3.262t.556 3.25q.558 1.5 1.716 2.42 1.16.92 2.955.92m23.003-5.09V18.546h2.682V36h-2.682v-2.955h-.182q-.613 1.33-1.909 2.262-1.296.92-3.273.92-1.636 0-2.909-.716-1.272-.727-2-2.181-.727-1.467-.727-3.694v-11.09h2.682v10.909q0 1.908 1.068 3.045 1.079 1.137 2.75 1.136.999 0 2.034-.511 1.045-.511 1.75-1.568.716-1.057.716-2.693m15.184-10.318v2.272h-9.045v-2.273zm-6.409-4.182h2.682V31q0 1.137.33 1.705.34.555.863.75.534.18 1.125.181.444 0 .728-.045l.454-.091.546 2.41a5.5 5.5 0 0 1-.762.204q-.488.113-1.238.113-1.137 0-2.228-.488a4.4 4.4 0 0 1-1.795-1.489q-.705-1-.705-2.523zM32.592 57.546v2.272h-9.045v-2.273zm-6.409-4.182h2.682V70q0 1.137.33 1.704.34.558.863.75.534.182 1.125.182.444 0 .727-.045l.455-.091.545 2.41a5.4 5.4 0 0 1-.76.204q-.49.113-1.24.113-1.136 0-2.227-.488a4.4 4.4 0 0 1-1.795-1.489q-.705-1-.705-2.523zm13.5 11.136V75h-2.682V51.727h2.682v8.546h.227a4.93 4.93 0 0 1 1.841-2.148q1.24-.807 3.296-.807 1.784 0 3.125.716 1.34.705 2.08 2.17.75 1.455.75 3.705V75H48.32V64.09q0-2.079-1.08-3.215-1.068-1.148-2.966-1.148-1.318 0-2.364.557a4.07 4.07 0 0 0-1.636 1.625q-.59 1.068-.59 2.591m23.543 10.864q-2.523 0-4.352-1.114-1.819-1.126-2.807-3.136-.977-2.023-.977-4.705t.977-4.727q.988-2.057 2.75-3.205 1.773-1.158 4.136-1.159 1.364 0 2.693.455a6.7 6.7 0 0 1 2.42 1.477q1.092 1.011 1.74 2.682.647 1.67.647 4.114v1.136H57v-2.318h10.727q0-1.477-.591-2.637a4.45 4.45 0 0 0-1.66-1.83q-1.067-.67-2.522-.67-1.602 0-2.773.796a5.23 5.23 0 0 0-1.784 2.045 6 6 0 0 0-.625 2.705v1.545q0 1.977.682 3.353.693 1.363 1.92 2.079 1.229.704 2.853.704 1.056 0 1.909-.295a4.1 4.1 0 0 0 1.489-.909q.624-.614.966-1.523l2.59.727a5.74 5.74 0 0 1-1.375 2.319q-.966.989-2.386 1.545-1.42.546-3.193.546m28.08-17.819v2.273h-9.41v-2.273zM84.714 75V55.136q0-1.5.704-2.5a4.37 4.37 0 0 1 1.83-1.5q1.124-.5 2.375-.5.989 0 1.613.16.626.158.932.295l-.773 2.318a13 13 0 0 0-.568-.17q-.352-.103-.932-.103-1.329 0-1.92.67-.58.672-.58 1.967V75zm10.349 0V57.545h2.682V75zm1.364-20.364q-.784 0-1.353-.534a1.72 1.72 0 0 1-.556-1.284q0-.75.556-1.284.57-.534 1.353-.534.784 0 1.34.534.57.534.569 1.284 0 .75-.569 1.284a1.87 1.87 0 0 1-1.34.534M102.658 75V57.545h2.591v2.637h.181q.478-1.296 1.728-2.102 1.25-.807 2.818-.807.296 0 .738.011.444.012.671.034v2.727a8 8 0 0 0-.625-.102 6 6 0 0 0-1.011-.08q-1.273 0-2.273.535a4.03 4.03 0 0 0-1.568 1.454q-.569.921-.569 2.103V75zm24.27-13.545-2.41.681a4.5 4.5 0 0 0-.67-1.17q-.432-.58-1.182-.955t-1.92-.375q-1.602 0-2.671.739-1.056.727-1.057 1.852 0 1 .728 1.58.727.579 2.272.966l2.591.636q2.342.568 3.489 1.739 1.148 1.16 1.148 2.988 0 1.5-.864 2.682-.853 1.182-2.386 1.864-1.534.681-3.568.682-2.671 0-4.421-1.16-1.75-1.158-2.216-3.386l2.546-.636q.363 1.41 1.375 2.114 1.022.704 2.67.704 1.875 0 2.977-.796 1.114-.806 1.114-1.931a2.03 2.03 0 0 0-.636-1.523q-.637-.625-1.955-.932l-2.909-.682q-2.397-.567-3.523-1.761-1.113-1.205-1.113-3.011 0-1.477.829-2.614.841-1.136 2.284-1.784 1.454-.648 3.296-.648 2.59 0 4.068 1.137 1.488 1.136 2.114 3m11.946-3.91v2.273h-9.046v-2.273zm-6.41-4.181h2.682V70q0 1.137.33 1.704.34.558.863.75.535.182 1.125.182.444 0 .728-.045l.454-.091.546 2.41a5.5 5.5 0 0 1-.762.204q-.488.113-1.238.113-1.137 0-2.228-.488a4.4 4.4 0 0 1-1.795-1.489q-.705-1-.705-2.523zM28.871 103.5V114h-2.682V96.546h2.59v2.727h.228a5 5 0 0 1 1.864-2.137q1.25-.818 3.227-.818 1.773 0 3.102.728 1.33.715 2.069 2.181.738 1.455.738 3.682V114h-2.682v-10.909q0-2.056-1.068-3.205-1.069-1.159-2.932-1.159-1.283 0-2.295.557-1 .557-1.58 1.625t-.58 2.591m27.037 3.364V96.546h2.682V114h-2.682v-2.955h-.182q-.614 1.33-1.91 2.262-1.295.92-3.272.92-1.635 0-2.91-.716-1.272-.727-2-2.181-.726-1.467-.726-3.694v-11.09h2.682v10.909q0 1.908 1.068 3.045 1.08 1.137 2.75 1.136.999 0 2.034-.511 1.045-.512 1.75-1.568.716-1.057.716-2.693M63.5 114V96.546h2.591v2.727h.228q.545-1.398 1.761-2.17 1.216-.785 2.92-.785 1.728 0 2.875.784 1.16.773 1.807 2.17h.182a5.1 5.1 0 0 1 2.011-2.147q1.341-.807 3.216-.807 2.341 0 3.83 1.466 1.489 1.455 1.489 4.534V114h-2.682v-11.682q0-1.932-1.057-2.761t-2.489-.83q-1.84 0-2.852 1.114-1.011 1.103-1.011 2.795V114h-2.728v-11.955q0-1.488-.966-2.397-.966-.92-2.488-.92-1.046 0-1.955.556a4.2 4.2 0 0 0-1.454 1.546q-.546.977-.546 2.261V114zm28.177 0V90.727h2.681v8.591h.228q.296-.455.818-1.159.534-.715 1.523-1.273 1-.567 2.704-.568 2.205 0 3.886 1.103 1.683 1.101 2.625 3.124.944 2.023.944 4.773 0 2.773-.944 4.807-.943 2.023-2.613 3.136-1.671 1.103-3.852 1.103-1.683 0-2.694-.557-1.011-.569-1.556-1.284a17 17 0 0 1-.841-1.205h-.319V114zm2.636-8.727q0 1.977.58 3.488.579 1.5 1.693 2.353 1.113.84 2.727.841 1.682 0 2.807-.887 1.136-.897 1.704-2.409.58-1.523.58-3.386 0-1.842-.568-3.318-.558-1.49-1.694-2.353-1.125-.875-2.83-.875-1.635 0-2.75.83-1.113.817-1.68 2.295-.57 1.467-.57 3.421m24.193 9.091q-2.523 0-4.352-1.114-1.818-1.125-2.807-3.136-.978-2.023-.977-4.705 0-2.682.977-4.727.989-2.057 2.75-3.205 1.773-1.16 4.136-1.159 1.364 0 2.694.455a6.7 6.7 0 0 1 2.42 1.477q1.09 1.011 1.739 2.682.647 1.67.647 4.113v1.137H112.28v-2.318h10.727q0-1.478-.591-2.637a4.45 4.45 0 0 0-1.659-1.83q-1.068-.67-2.523-.67-1.602 0-2.772.796a5.2 5.2 0 0 0-1.784 2.045 6 6 0 0 0-.625 2.705v1.545q0 1.977.681 3.352.693 1.365 1.921 2.08 1.227.705 2.852.705 1.057 0 1.909-.296a4.1 4.1 0 0 0 1.489-.909 4.15 4.15 0 0 0 .966-1.523l2.591.728a5.75 5.75 0 0 1-1.375 2.318q-.966.989-2.387 1.545-1.42.546-3.193.546m11.307-.364V96.546h2.591v2.636h.182q.477-1.296 1.727-2.103 1.25-.806 2.818-.806.295 0 .739.011.443.012.67.034v2.728a8 8 0 0 0-.625-.103 6 6 0 0 0-1.011-.08q-1.273 0-2.273.535a4.03 4.03 0 0 0-1.568 1.454q-.568.921-.568 2.103V114zM319.607 224.398q-2.813 0-5.015-.966-2.187-.966-3.48-2.685-1.278-1.732-1.392-4.02h3.58q.113 1.407.966 2.429.852 1.009 2.23 1.563 1.377.554 3.054.554 1.875 0 3.324-.654 1.448-.653 2.272-1.818.825-1.164.824-2.699 0-1.605-.795-2.826-.796-1.236-2.33-1.932t-3.75-.696h-2.329v-3.125h2.329q1.733 0 3.04-.625 1.321-.625 2.06-1.762.752-1.136.752-2.67 0-1.478-.653-2.571t-1.847-1.705q-1.179-.61-2.784-.61-1.505 0-2.841.554-1.32.539-2.159 1.576-.837 1.023-.909 2.472h-3.409q.085-2.287 1.378-4.006 1.293-1.733 3.381-2.699 2.102-.966 4.616-.966 2.699 0 4.631 1.094 1.932 1.08 2.969 2.855a7.5 7.5 0 0 1 1.037 3.835q0 2.458-1.293 4.191-1.278 1.733-3.48 2.4v.228q2.756.454 4.304 2.343 1.548 1.876 1.548 4.645 0 2.373-1.293 4.262-1.278 1.875-3.494 2.954t-5.042 1.08M310.707 311.909V341h-3.522v-25.398h-.171l-7.102 4.716v-3.579l7.273-4.83zm18.196 29.489q-2.812 0-5.014-.966-2.187-.966-3.48-2.685-1.278-1.733-1.392-4.02h3.58q.113 1.407.965 2.429.853 1.009 2.231 1.563t3.054.554q1.875 0 3.323-.654 1.45-.652 2.273-1.818.824-1.164.824-2.699 0-1.605-.795-2.826-.796-1.236-2.33-1.932t-3.75-.696h-2.33v-3.125h2.33q1.733 0 3.04-.625 1.321-.625 2.059-1.762.753-1.136.753-2.67 0-1.477-.653-2.571-.653-1.093-1.847-1.705-1.179-.61-2.784-.61a7.3 7.3 0 0 0-2.841.554q-1.32.539-2.159 1.576-.838 1.023-.909 2.472h-3.409q.085-2.287 1.378-4.006 1.293-1.733 3.381-2.699 2.102-.966 4.616-.966 2.699 0 4.631 1.094 1.932 1.08 2.968 2.855a7.47 7.47 0 0 1 1.037 3.835q0 2.458-1.292 4.191-1.279 1.732-3.48 2.4v.228q2.755.454 4.304 2.343 1.548 1.875 1.548 4.645 0 2.372-1.293 4.262-1.278 1.874-3.494 2.954t-5.043 1.08M429.998 218.034v-2.898l12.784-20.227h2.102v4.489h-1.421l-9.659 15.284v.227h17.216v3.125zM443.691 224v-29.091h3.352V224zM431.61 311.909V341h-3.523v-25.398h-.17l-7.103 4.716v-3.579l7.273-4.83zm7.684 23.125v-2.898l12.784-20.227h2.103v4.489h-1.421l-9.659 15.284v.227h17.216v3.125zM452.988 341v-29.091h3.352V341zM560.434 224.398q-2.499 0-4.503-.995-2.003-.994-3.21-2.727t-1.321-3.949h3.409q.199 1.976 1.79 3.267 1.606 1.28 3.835 1.279 1.79 0 3.182-.838a5.9 5.9 0 0 0 2.202-2.301q.81-1.478.809-3.339 0-1.903-.838-3.394a6.15 6.15 0 0 0-2.272-2.373q-1.449-.866-3.31-.88a9 9 0 0 0-2.741.412q-1.407.411-2.316 1.065l-3.295-.398 1.761-14.318h15.114v3.125h-12.159l-1.023 8.58h.17q.895-.711 2.245-1.179a8.5 8.5 0 0 1 2.812-.469q2.671 0 4.759 1.278a8.93 8.93 0 0 1 3.295 3.466q1.208 2.202 1.208 5.029 0 2.784-1.25 4.971a9.14 9.14 0 0 1-3.41 3.438q-2.172 1.25-4.943 1.25M552.274 311.909V341h-3.523v-25.398h-.17l-7.103 4.716v-3.579l7.273-4.83zm17.457 29.489q-2.499 0-4.503-.995-2.003-.994-3.21-2.727t-1.321-3.949h3.409q.199 1.976 1.79 3.267 1.605 1.28 3.835 1.279 1.79 0 3.182-.838a5.93 5.93 0 0 0 2.202-2.301q.809-1.478.809-3.339 0-1.902-.838-3.394a6.16 6.16 0 0 0-2.272-2.373q-1.45-.866-3.31-.88a9.1 9.1 0 0 0-2.742.412q-1.406.411-2.315 1.065l-3.295-.398 1.761-14.318h15.114v3.125h-12.159l-1.023 8.58h.17q.895-.711 2.245-1.179a8.5 8.5 0 0 1 2.812-.469q2.67 0 4.759 1.278a8.93 8.93 0 0 1 3.295 3.466q1.207 2.202 1.207 5.029 0 2.784-1.25 4.971a9.13 9.13 0 0 1-3.409 3.438q-2.173 1.25-4.943 1.25M680.69 224.398a10.9 10.9 0 0 1-3.58-.682q-1.79-.654-3.267-2.202-1.476-1.562-2.372-4.219-.894-2.67-.895-6.704 0-3.864.725-6.847.724-2.997 2.102-5.042 1.379-2.06 3.324-3.125 1.96-1.066 4.418-1.066 2.442 0 4.346.98a8.3 8.3 0 0 1 3.125 2.699q1.207 1.733 1.563 3.992h-3.466q-.483-1.96-1.875-3.253t-3.693-1.293q-3.381 0-5.327 2.941-1.932 2.94-1.946 8.253h.227a8.54 8.54 0 0 1 4.332-3.395 8.5 8.5 0 0 1 2.827-.469q2.5 0 4.574 1.25 2.075 1.236 3.324 3.423 1.25 2.174 1.25 4.986 0 2.699-1.207 4.943a9.2 9.2 0 0 1-3.395 3.551q-2.174 1.308-5.114 1.279m0-3.125q1.79 0 3.21-.895a6.4 6.4 0 0 0 2.259-2.401q.837-1.506.838-3.352 0-1.804-.81-3.281a6.16 6.16 0 0 0-2.202-2.372q-1.392-.881-3.181-.881-1.35 0-2.515.54a6.5 6.5 0 0 0-2.045 1.449 7 7 0 0 0-1.364 2.116 6.3 6.3 0 0 0-.497 2.486q0 1.733.81 3.238a6.66 6.66 0 0 0 2.244 2.429q1.435.924 3.253.924M671.961 311.909V341h-3.522v-25.398h-.171l-7.102 4.716v-3.579l7.273-4.83zm18.026 29.489a10.9 10.9 0 0 1-3.58-.682q-1.79-.654-3.267-2.202-1.477-1.562-2.372-4.219-.894-2.67-.895-6.704 0-3.864.725-6.847.724-2.997 2.102-5.042 1.377-2.06 3.324-3.125 1.96-1.066 4.417-1.066 2.443 0 4.347.98a8.3 8.3 0 0 1 3.125 2.699q1.208 1.733 1.562 3.992h-3.465q-.483-1.96-1.875-3.253t-3.694-1.293q-3.38 0-5.326 2.941-1.932 2.94-1.946 8.253h.227a8.54 8.54 0 0 1 4.332-3.395 8.5 8.5 0 0 1 2.827-.469q2.5 0 4.574 1.25 2.073 1.236 3.324 3.423 1.25 2.173 1.25 4.986 0 2.699-1.208 4.943a9.2 9.2 0 0 1-3.395 3.551q-2.173 1.308-5.113 1.279m0-3.125q1.79 0 3.21-.895a6.4 6.4 0 0 0 2.259-2.401q.837-1.506.838-3.352 0-1.804-.81-3.281a6.16 6.16 0 0 0-2.202-2.372q-1.392-.882-3.182-.881-1.348 0-2.514.54a6.5 6.5 0 0 0-2.045 1.449 7 7 0 0 0-1.364 2.116 6.3 6.3 0 0 0-.497 2.486q0 1.733.81 3.238a6.66 6.66 0 0 0 2.244 2.429q1.435.924 3.253.924M792.995 224l13.011-25.739v-.227h-15v-3.125h18.636v3.296L796.688 224zM793.016 311.909V341h-3.523v-25.398h-.17l-7.102 4.716v-3.579l7.272-4.83zM802.292 341l13.011-25.739v-.227h-15v-3.125h18.636v3.296L805.985 341zM920.505 224.398q-2.926 0-5.17-1.037-2.23-1.051-3.48-2.884-1.251-1.846-1.236-4.204-.015-1.847.724-3.409a7.4 7.4 0 0 1 2.017-2.628 6.2 6.2 0 0 1 2.884-1.35v-.17q-2.088-.54-3.324-2.344-1.236-1.818-1.221-4.133-.015-2.217 1.122-3.963 1.136-1.748 3.125-2.756 2.003-1.008 4.559-1.009 2.53 0 4.517 1.009 1.99 1.008 3.125 2.756 1.151 1.746 1.165 3.963-.014 2.315-1.264 4.133-1.236 1.804-3.281 2.344v.17q1.576.285 2.841 1.35a7.66 7.66 0 0 1 2.017 2.628q.752 1.562.767 3.409-.015 2.358-1.279 4.204-1.25 1.833-3.48 2.884-2.215 1.037-5.128 1.037m0-3.125q1.975 0 3.409-.639 1.435-.64 2.216-1.804t.796-2.728q-.015-1.647-.852-2.912-.839-1.263-2.287-1.988-1.436-.725-3.282-.725-1.86 0-3.324.725-1.448.725-2.286 1.988-.825 1.265-.81 2.912-.015 1.563.753 2.728.781 1.164 2.23 1.804 1.45.639 3.437.639m0-13.807q1.563 0 2.77-.625a4.75 4.75 0 0 0 1.918-1.747q.696-1.122.71-2.628-.014-1.478-.696-2.571a4.5 4.5 0 0 0-1.889-1.705q-1.208-.61-2.813-.61-1.633 0-2.855.61-1.221.597-1.889 1.705-.668 1.094-.653 2.571-.014 1.506.667 2.628a4.75 4.75 0 0 0 1.918 1.747q1.221.625 2.812.625M912.118 311.909V341h-3.523v-25.398h-.171l-7.102 4.716v-3.579l7.273-4.83zm17.684 29.489q-2.926 0-5.17-1.037-2.23-1.051-3.48-2.884-1.251-1.846-1.236-4.204-.015-1.847.724-3.409a7.4 7.4 0 0 1 2.017-2.628 6.2 6.2 0 0 1 2.884-1.35v-.17q-2.088-.54-3.324-2.344-1.236-1.818-1.222-4.133-.014-2.217 1.123-3.963 1.136-1.748 3.125-2.756 2.003-1.009 4.559-1.009 2.529 0 4.517 1.009 1.99 1.008 3.125 2.756 1.151 1.746 1.165 3.963-.014 2.315-1.264 4.133-1.236 1.804-3.281 2.344v.17q1.577.285 2.84 1.35a7.65 7.65 0 0 1 2.018 2.628q.752 1.562.767 3.409-.015 2.358-1.279 4.204-1.25 1.833-3.48 2.884-2.216 1.037-5.128 1.037m0-3.125q1.974 0 3.409-.639 1.435-.64 2.216-1.804t.796-2.728q-.015-1.647-.853-2.912-.837-1.263-2.287-1.988-1.434-.725-3.281-.725-1.86 0-3.324.725-1.449.725-2.287 1.988-.824 1.265-.809 2.912-.015 1.563.753 2.728.78 1.164 2.23 1.804 1.448.639 3.437.639m0-13.807q1.563 0 2.77-.625a4.76 4.76 0 0 0 1.918-1.747q.696-1.122.71-2.628-.015-1.477-.696-2.571a4.5 4.5 0 0 0-1.889-1.705q-1.208-.61-2.813-.61-1.634 0-2.855.61-1.221.597-1.889 1.705-.668 1.093-.654 2.571-.013 1.506.668 2.628a4.75 4.75 0 0 0 1.918 1.747q1.221.625 2.812.625M1040.29 194.511c1.2.01 2.39.237 3.58.682q1.785.668 3.27 2.216 1.47 1.535 2.37 4.19.9 2.657.9 6.662c0 2.586-.25 4.882-.74 6.89-.49 1.998-1.19 3.683-2.11 5.056-.9 1.373-2.01 2.415-3.32 3.125-1.3.711-2.76 1.066-4.4 1.066-1.63 0-3.08-.322-4.36-.966a8.6 8.6 0 0 1-3.13-2.713c-.8-1.165-1.32-2.514-1.55-4.049h3.47q.465 2.004 1.86 3.31c.94.862 2.17 1.293 3.71 1.293q3.36 0 5.31-2.941c1.31-1.96 1.96-4.73 1.96-8.309h-.23a8.9 8.9 0 0 1-1.89 2.059 8.2 8.2 0 0 1-2.43 1.336c-.89.312-1.83.468-2.84.468-1.66 0-3.19-.412-4.58-1.235-1.39-.834-2.49-1.975-3.33-3.424q-1.23-2.187-1.23-5c0-1.78.39-3.409 1.19-4.886a9.2 9.2 0 0 1 3.38-3.551c1.46-.881 3.17-1.307 5.14-1.279m0 3.125c-1.19 0-2.27.299-3.22.895a6.4 6.4 0 0 0-2.26 2.387c-.55.994-.82 2.097-.82 3.309s.26 2.316.79 3.31a6.33 6.33 0 0 0 2.2 2.358c.94.578 2.01.866 3.2.866.9 0 1.74-.175 2.51-.525.78-.36 1.46-.848 2.03-1.463a7 7 0 0 0 1.38-2.117c.33-.795.5-1.624.5-2.486 0-1.136-.28-2.201-.82-3.196a6.5 6.5 0 0 0-2.25-2.414q-1.425-.924-3.24-.924M1031.96 311.909V341h-3.52v-25.398h-.17l-7.1 4.716v-3.579l7.27-4.83zm17.63-.398c1.19.01 2.39.237 3.58.682q1.785.668 3.27 2.216 1.47 1.535 2.37 4.19c.59 1.771.89 3.992.89 6.662 0 2.586-.24 4.882-.74 6.89q-.72 2.997-2.1 5.056c-.91 1.373-2.02 2.415-3.32 3.125q-1.95 1.066-4.41 1.066c-1.62 0-3.08-.322-4.36-.966a8.5 8.5 0 0 1-3.12-2.713c-.81-1.165-1.32-2.514-1.55-4.049h3.47q.465 2.004 1.86 3.31c.93.862 2.17 1.293 3.7 1.293 2.25 0 4.02-.98 5.32-2.941s1.96-4.73 1.96-8.309h-.23a8.9 8.9 0 0 1-1.89 2.059 8.35 8.35 0 0 1-5.27 1.804q-2.505 0-4.59-1.235c-1.38-.834-2.49-1.975-3.32-3.424-.82-1.458-1.24-3.125-1.24-5q0-2.67 1.2-4.886a9.2 9.2 0 0 1 3.38-3.551c1.46-.881 3.17-1.307 5.14-1.279m0 3.125c-1.19 0-2.27.299-3.23.895a6.4 6.4 0 0 0-2.25 2.387c-.55.994-.83 2.097-.83 3.309s.27 2.316.8 3.31a6.33 6.33 0 0 0 2.2 2.358c.94.578 2 .866 3.2.866.9 0 1.73-.175 2.51-.525.78-.36 1.45-.848 2.03-1.463a7 7 0 0 0 1.38-2.117 6.508 6.508 0 0 0-.33-5.682 6.6 6.6 0 0 0-2.24-2.414q-1.425-.924-3.24-.924M1151.94 194.909V224h-3.52v-25.398h-.17l-7.1 4.716v-3.579l7.27-4.83zm17.86 29.489c-2.14 0-3.97-.583-5.47-1.747q-2.265-1.762-3.45-5.1-1.2-3.353-1.2-8.096 0-4.716 1.2-8.054c.8-2.235 1.96-3.94 3.46-5.114q2.28-1.776 5.46-1.776c2.12 0 3.93.592 5.44 1.776 1.51 1.174 2.67 2.879 3.46 5.114.81 2.225 1.21 4.91 1.21 8.054 0 3.162-.4 5.861-1.19 8.096q-1.2 3.338-3.45 5.1c-1.51 1.164-3.33 1.747-5.47 1.747m0-3.125c2.12 0 3.77-1.023 4.94-3.068s1.76-4.963 1.76-8.75q0-3.779-.81-6.435c-.53-1.771-1.3-3.12-2.3-4.048-.99-.928-2.19-1.392-3.59-1.392-2.11 0-3.75 1.036-4.93 3.11-1.19 2.065-1.78 4.986-1.78 8.765 0 2.518.27 4.659.8 6.42q.795 2.642 2.28 4.02 1.515 1.377 3.63 1.378M1138.9 341v-2.557l9.6-10.511a66 66 0 0 0 2.79-3.21q1.095-1.379 1.62-2.586.54-1.221.54-2.556c0-1.023-.25-1.909-.74-2.657-.48-.748-1.15-1.325-1.99-1.733-.84-.407-1.79-.61-2.84-.61-1.12 0-2.09.232-2.93.696a4.76 4.76 0 0 0-1.91 1.917c-.45.824-.67 1.79-.67 2.898h-3.35q0-2.557 1.17-4.489a8.25 8.25 0 0 1 3.21-3.011q2.055-1.08 4.59-1.08 2.565 0 4.53 1.08c1.32.72 2.35 1.69 3.1 2.912s1.12 2.58 1.12 4.077c0 1.07-.19 2.116-.58 3.139-.38 1.013-1.04 2.145-1.99 3.395q-1.41 1.86-3.9 4.545l-6.54 6.989v.227h13.52V341zm33.71.398c-2.14 0-3.96-.583-5.47-1.747q-2.265-1.762-3.45-5.1c-.8-2.235-1.19-4.934-1.19-8.096 0-3.144.39-5.829 1.19-8.054.8-2.235 1.96-3.94 3.46-5.114q2.28-1.776 5.46-1.776c2.12 0 3.93.592 5.44 1.776 1.51 1.174 2.67 2.879 3.47 5.114q1.2 3.338 1.2 8.054c0 3.162-.39 5.861-1.19 8.096q-1.2 3.338-3.45 5.1c-1.51 1.164-3.33 1.747-5.47 1.747m0-3.125c2.12 0 3.77-1.023 4.94-3.068 1.18-2.046 1.76-4.963 1.76-8.75q0-3.778-.81-6.435c-.53-1.771-1.29-3.12-2.3-4.048-.99-.928-2.19-1.392-3.59-1.392-2.1 0-3.75 1.036-4.93 3.11-1.18 2.065-1.78 4.986-1.78 8.765 0 2.518.27 4.659.8 6.42s1.29 3.101 2.29 4.02 2.21 1.378 3.62 1.378"/></svg>