<svg xmlns="http://www.w3.org/2000/svg" width="1201" height="393" fill="none" viewBox="0 0 1201 393"><path fill="#2e2e2e" d="M2 178c0-14.912 12.088-27 27-27h93v120H2zM361 151h120v120H361zM601 151h120v120H601zM841 151h120v120H841zM1081 151h93c14.91 0 27 12.088 27 27v93h-120zM361 271h120v120H361zM121 271h120v120H121zM601 271h120v120H601zM841 271h120v120H841zM1081 271h120v93c0 14.912-12.09 27-27 27h-93z"/><rect width="1199" height="242" x="1" y="150" stroke="#dbdbdb" stroke-width="2" rx="26"/><path stroke="#dbdbdb" stroke-width="2" d="M121 149v244M0 270h1201M241 149v244M362 149v244M482 149v244M602 149v244M722 149v244M842 149v244M962 149v244M1082 149v244"/><path fill="#727272" d="M63.442 194.909V224h-3.523v-25.398h-.17l-7.103 4.716v-3.579l7.273-4.83z"/><path fill="#fff" d="M54.145 311.909V341h-3.523v-25.398h-.17l-7.103 4.716v-3.579l7.273-4.83zm18.594 0V341h-3.523v-25.398h-.17l-7.103 4.716v-3.579l7.273-4.83zM170.402 224v-2.557l9.602-10.511a67 67 0 0 0 2.784-3.21q1.094-1.379 1.62-2.586a6.25 6.25 0 0 0 .539-2.556q0-1.535-.738-2.657-.724-1.121-1.989-1.733-1.264-.61-2.841-.61-1.676 0-2.926.696a4.8 4.8 0 0 0-1.917 1.917q-.668 1.236-.668 2.898h-3.352q0-2.557 1.179-4.489a8.2 8.2 0 0 1 3.21-3.011q2.045-1.08 4.588-1.08 2.557 0 4.531 1.08t3.097 2.912 1.122 4.077q0 1.605-.582 3.139-.569 1.52-1.989 3.395-1.407 1.86-3.906 4.545l-6.534 6.989v.227h13.522V224z"/><path fill="#727272" d="M171.332 311.909V341h-3.522v-25.398h-.171l-7.102 4.716v-3.579l7.273-4.83zM179.699 341v-2.557l9.602-10.511a67 67 0 0 0 2.784-3.21q1.093-1.379 1.62-2.586a6.3 6.3 0 0 0 .539-2.556q0-1.535-.738-2.657-.725-1.121-1.989-1.733-1.264-.61-2.841-.61-1.676 0-2.926.696a4.8 4.8 0 0 0-1.918 1.917q-.667 1.236-.667 2.898h-3.353q0-2.557 1.179-4.489a8.2 8.2 0 0 1 3.211-3.011q2.045-1.08 4.588-1.08 2.557 0 4.531 1.08 1.975 1.08 3.097 2.912t1.122 4.077q0 1.605-.583 3.139-.567 1.52-1.988 3.395-1.407 1.86-3.907 4.545l-6.534 6.989v.227h13.523V341z"/><path fill="#fff" d="M128.295 20h-2.818q-.25-1.216-.875-2.136a5.8 5.8 0 0 0-1.5-1.546 6.4 6.4 0 0 0-1.943-.954 7.8 7.8 0 0 0-2.227-.319q-2.114 0-3.83 1.069-1.704 1.068-2.716 3.147-1 2.08-1 5.103t1 5.102q1.012 2.079 2.716 3.148 1.716 1.068 3.83 1.068 1.16 0 2.227-.318a6.5 6.5 0 0 0 1.943-.944 5.952 5.952 0 0 0 2.375-3.693h2.818q-.318 1.785-1.159 3.194a8.7 8.7 0 0 1-2.091 2.397 9.2 9.2 0 0 1-2.806 1.489q-1.546.51-3.307.511-2.977 0-5.296-1.454-2.318-1.455-3.647-4.137-1.33-2.682-1.33-6.363t1.33-6.364 3.647-4.136q2.319-1.455 5.296-1.455 1.76 0 3.307.511 1.557.511 2.806 1.5a8.6 8.6 0 0 1 2.091 2.387q.841 1.398 1.159 3.193m4.191 16V18.546h2.591v2.636h.182q.477-1.296 1.727-2.102 1.25-.807 2.818-.807.295 0 .739.011.443.012.67.034v2.727a8 8 0 0 0-.625-.102 6 6 0 0 0-1.011-.08q-1.273 0-2.273.535a4.03 4.03 0 0 0-1.568 1.454q-.568.921-.568 2.102V36zm18.466.364q-2.364 0-4.148-1.125-1.773-1.125-2.773-3.148-.988-2.023-.988-4.727 0-2.728.988-4.762 1-2.034 2.773-3.159 1.784-1.125 4.148-1.125t4.136 1.125q1.784 1.125 2.773 3.16 1 2.033 1 4.76 0 2.706-1 4.728-.989 2.023-2.773 3.148-1.773 1.125-4.136 1.125m0-2.41q1.796 0 2.954-.92 1.16-.92 1.716-2.42.557-1.5.557-3.25t-.557-3.262-1.716-2.443q-1.158-.932-2.954-.932-1.795 0-2.955.932t-1.716 2.443-.557 3.262q0 1.75.557 3.25.556 1.5 1.716 2.42t2.955.92m24.366-11.5-2.409.682a4.5 4.5 0 0 0-.67-1.17q-.432-.58-1.182-.955t-1.921-.375q-1.602 0-2.67.739-1.057.727-1.057 1.852 0 1 .727 1.58.728.579 2.273.966l2.591.636q2.34.568 3.489 1.739 1.147 1.16 1.147 2.988 0 1.5-.863 2.682-.852 1.182-2.387 1.864-1.533.682-3.568.682-2.67 0-4.42-1.16-1.75-1.158-2.216-3.386l2.545-.636q.364 1.41 1.375 2.113 1.023.705 2.671.705 1.875 0 2.977-.795 1.113-.807 1.114-1.932 0-.91-.637-1.523-.636-.625-1.954-.932l-2.909-.682q-2.398-.567-3.523-1.761-1.114-1.205-1.114-3.011 0-1.477.83-2.614.84-1.136 2.284-1.784 1.455-.648 3.295-.648 2.592 0 4.069 1.136 1.488 1.137 2.113 3m16.719 0-2.409.682a4.5 4.5 0 0 0-.671-1.17q-.43-.58-1.181-.955-.75-.375-1.921-.375-1.602 0-2.67.739-1.057.727-1.057 1.852 0 1 .727 1.58.728.579 2.273.966l2.591.636q2.34.568 3.488 1.739 1.148 1.16 1.148 2.988 0 1.5-.864 2.682-.852 1.182-2.386 1.864t-3.568.682q-2.67 0-4.421-1.16-1.75-1.158-2.215-3.386l2.545-.636q.363 1.41 1.375 2.113 1.023.705 2.67.705 1.875 0 2.978-.795 1.113-.807 1.113-1.932a2.03 2.03 0 0 0-.636-1.523q-.636-.625-1.955-.932l-2.909-.682q-2.397-.567-3.522-1.761-1.114-1.205-1.114-3.011 0-1.477.83-2.614.84-1.136 2.284-1.784 1.454-.648 3.295-.648 2.59 0 4.068 1.136 1.489 1.137 2.114 3m20.446 13.91q-2.363 0-4.148-1.125-1.773-1.125-2.773-3.148-.988-2.023-.988-4.727 0-2.728.988-4.762 1-2.034 2.773-3.159 1.785-1.125 4.148-1.125 2.364 0 4.136 1.125 1.785 1.125 2.773 3.16 1 2.033 1 4.76 0 2.706-1 4.728-.988 2.023-2.773 3.148-1.772 1.125-4.136 1.125m0-2.41q1.796 0 2.955-.92 1.158-.92 1.715-2.42t.557-3.25-.557-3.262-1.715-2.443q-1.16-.932-2.955-.932t-2.955.932q-1.158.932-1.716 2.443-.556 1.512-.556 3.262t.556 3.25q.558 1.5 1.716 2.42 1.16.92 2.955.92m23.003-5.09V18.546h2.682V36h-2.682v-2.955h-.182q-.613 1.33-1.909 2.262-1.296.92-3.273.92-1.636 0-2.909-.716-1.272-.727-2-2.181-.727-1.467-.727-3.694v-11.09h2.682v10.909q0 1.908 1.068 3.045 1.079 1.137 2.75 1.136.999 0 2.034-.511 1.045-.511 1.75-1.568.716-1.057.716-2.693m15.184-10.318v2.272h-9.045v-2.273zm-6.409-4.182h2.682V31q0 1.137.33 1.705.34.555.863.75.534.18 1.125.181.444 0 .728-.045l.454-.091.546 2.41a5.5 5.5 0 0 1-.762.204q-.488.113-1.238.113-1.137 0-2.228-.488a4.4 4.4 0 0 1-1.795-1.489q-.705-1-.705-2.523zM98.153 75.409q-1.66 0-3.011-.625a5.17 5.17 0 0 1-2.148-1.83q-.795-1.204-.795-2.908 0-1.5.59-2.432a4.17 4.17 0 0 1 1.58-1.478 8.3 8.3 0 0 1 2.182-.795q1.205-.273 2.42-.432a109 109 0 0 1 2.58-.307q1-.113 1.455-.375.465-.261.466-.909v-.09q0-1.683-.921-2.614-.909-.933-2.761-.932-1.92 0-3.012.84-1.09.842-1.534 1.796L92.7 61.41q.681-1.59 1.818-2.477a6.8 6.8 0 0 1 2.5-1.25q1.364-.364 2.682-.364.84 0 1.932.205a6.2 6.2 0 0 1 2.125.806q1.034.614 1.716 1.853t.681 3.318V75h-2.681v-2.364h-.137q-.273.57-.909 1.216-.636.648-1.693 1.102-1.057.456-2.58.455m.41-2.409q1.59 0 2.681-.625 1.102-.625 1.659-1.614.569-.988.569-2.08v-2.454q-.171.205-.75.375-.569.16-1.319.284a60 60 0 0 1-1.443.205q-.693.08-1.125.136a10.2 10.2 0 0 0-1.954.444q-.898.295-1.455.897-.546.591-.545 1.614 0 1.398 1.034 2.114Q96.96 73 98.562 73m15.167-21.273V75h-2.682V51.727zm7.594 0V75h-2.682V51.727zM135.236 75V57.545h2.591v2.728h.227q.546-1.398 1.761-2.17 1.216-.785 2.921-.785 1.727 0 2.875.784 1.16.773 1.807 2.17h.181a5.1 5.1 0 0 1 2.012-2.147q1.341-.807 3.216-.807 2.34 0 3.829 1.466 1.49 1.455 1.489 4.534V75h-2.682V63.318q0-1.932-1.057-2.761t-2.488-.83q-1.841 0-2.853 1.114-1.011 1.103-1.011 2.795V75h-2.727V63.045q0-1.488-.966-2.397-.966-.92-2.489-.92-1.045 0-1.954.556a4.2 4.2 0 0 0-1.455 1.546q-.546.977-.545 2.26V75zm38.812-7.136V57.545h2.682V75h-2.682v-2.954h-.182q-.613 1.33-1.909 2.26-1.295.922-3.272.921-1.637 0-2.909-.716-1.274-.727-2-2.181-.728-1.467-.728-3.694v-11.09h2.682v10.908q0 1.91 1.068 3.046 1.08 1.136 2.75 1.136 1 0 2.034-.511 1.046-.511 1.75-1.568.717-1.058.716-2.693m10.276-16.137V75h-2.682V51.727zm12.503 5.819v2.272h-9.046v-2.273zm-6.409-4.182h2.681V70q0 1.137.33 1.704.34.558.864.75.534.182 1.125.182.442 0 .727-.045l.454-.091.546 2.41a5.5 5.5 0 0 1-.761.204q-.489.113-1.239.113-1.137 0-2.227-.488a4.4 4.4 0 0 1-1.796-1.489q-.704-1-.704-2.523zM200.861 75V57.545h2.682V75zm1.363-20.364q-.783 0-1.352-.534a1.72 1.72 0 0 1-.557-1.284q0-.75.557-1.284.569-.534 1.352-.534.785 0 1.341.534.569.534.569 1.284t-.569 1.284a1.87 1.87 0 0 1-1.341.534m6.231 26.91v-24h2.59v2.772h.319q.295-.455.818-1.159.533-.715 1.523-1.273 1-.567 2.704-.568 2.205 0 3.886 1.102 1.683 1.103 2.625 3.125.944 2.023.944 4.773 0 2.772-.944 4.807-.943 2.023-2.613 3.136-1.671 1.103-3.852 1.103-1.682 0-2.694-.557-1.011-.569-1.556-1.284a17 17 0 0 1-.841-1.205h-.228v9.228zm2.636-15.273q0 1.977.579 3.488.58 1.5 1.694 2.353 1.113.84 2.727.84 1.682 0 2.807-.886 1.136-.897 1.704-2.409.58-1.523.58-3.386 0-1.841-.568-3.318-.558-1.49-1.694-2.353-1.125-.875-2.829-.875-1.637 0-2.75.83-1.114.818-1.682 2.295-.568 1.467-.568 3.42m19.545-14.546V75h-2.681V51.727zm12.23 23.637q-2.522 0-4.352-1.114-1.818-1.126-2.807-3.136-.977-2.023-.977-4.705t.977-4.727q.989-2.057 2.75-3.205 1.773-1.158 4.137-1.159 1.364 0 2.693.455a6.7 6.7 0 0 1 2.42 1.477q1.091 1.011 1.739 2.682.648 1.67.648 4.114v1.136h-13.455v-2.318h10.727q0-1.477-.59-2.637a4.46 4.46 0 0 0-1.66-1.83q-1.068-.67-2.522-.67-1.603 0-2.773.796a5.23 5.23 0 0 0-1.784 2.045 6 6 0 0 0-.625 2.705v1.545q0 1.977.682 3.353.693 1.363 1.92 2.079 1.227.704 2.852.704 1.057 0 1.91-.295a4.1 4.1 0 0 0 1.488-.909q.625-.614.966-1.523l2.591.727a5.75 5.75 0 0 1-1.375 2.319q-.966.989-2.386 1.545-1.42.546-3.194.546m23.671-13.91-2.409.682a4.5 4.5 0 0 0-.671-1.17q-.43-.58-1.181-.955-.75-.375-1.921-.375-1.602 0-2.67.739-1.057.727-1.057 1.852 0 1 .727 1.58.728.579 2.273.966l2.591.636q2.34.568 3.488 1.739 1.149 1.16 1.148 2.988 0 1.5-.864 2.682-.852 1.182-2.386 1.864-1.534.681-3.568.682-2.67 0-4.421-1.16-1.75-1.158-2.215-3.386l2.545-.636q.363 1.41 1.375 2.114 1.023.704 2.67.704 1.875 0 2.978-.796 1.113-.806 1.113-1.931a2.03 2.03 0 0 0-.636-1.523q-.636-.625-1.955-.932l-2.909-.682q-2.397-.567-3.522-1.761-1.114-1.205-1.114-3.011 0-1.477.83-2.614.84-1.136 2.284-1.784 1.454-.648 3.295-.648 2.59 0 4.068 1.137 1.489 1.136 2.114 3m-106.992 52.91q-2.363 0-4.147-1.125-1.773-1.126-2.773-3.148-.989-2.023-.989-4.727 0-2.728.989-4.762 1-2.034 2.773-3.159 1.784-1.125 4.147-1.125t4.137 1.125q1.783 1.125 2.773 3.159 1 2.034 1 4.762 0 2.704-1 4.727-.99 2.023-2.773 3.148-1.773 1.125-4.137 1.125m0-2.409q1.796 0 2.955-.921 1.16-.92 1.716-2.42.557-1.5.557-3.25t-.557-3.262q-.557-1.511-1.716-2.443-1.16-.932-2.955-.932t-2.954.932q-1.16.932-1.716 2.443-.557 1.512-.557 3.262t.557 3.25 1.716 2.42q1.159.921 2.954.921m19.776-15.41v2.273h-9.409v-2.272zM172.73 114V94.136q0-1.5.705-2.5a4.36 4.36 0 0 1 1.829-1.5q1.125-.5 2.375-.5.988 0 1.614.16.625.158.932.295l-.773 2.318a13 13 0 0 0-.568-.17q-.353-.103-.932-.103-1.33 0-1.921.67-.579.671-.579 1.967V114zm19.304 0v-2.045l7.682-8.41a53 53 0 0 0 2.227-2.568q.875-1.102 1.296-2.068a5 5 0 0 0 .431-2.045q0-1.228-.59-2.125a3.84 3.84 0 0 0-1.591-1.387q-1.012-.489-2.273-.488-1.34 0-2.341.556a3.84 3.84 0 0 0-1.534 1.534q-.534.99-.534 2.319h-2.682q0-2.045.943-3.591a6.56 6.56 0 0 1 2.568-2.41q1.637-.863 3.671-.863 2.045 0 3.625.864t2.477 2.33q.898 1.466.898 3.26 0 1.285-.466 2.512-.454 1.216-1.591 2.716-1.125 1.488-3.125 3.636l-5.227 5.591v.182h10.818v2.5zM299.607 224.398q-2.813 0-5.015-.966-2.187-.966-3.48-2.685-1.278-1.732-1.392-4.02h3.58q.113 1.407.966 2.429.852 1.009 2.23 1.563 1.377.554 3.054.554 1.875 0 3.324-.654 1.448-.653 2.272-1.818.825-1.164.824-2.699 0-1.605-.795-2.826-.796-1.236-2.33-1.932t-3.75-.696h-2.329v-3.125h2.329q1.733 0 3.04-.625 1.321-.625 2.06-1.762.752-1.136.752-2.67 0-1.478-.653-2.571t-1.847-1.705q-1.179-.61-2.784-.61-1.505 0-2.841.554-1.32.539-2.159 1.576-.837 1.023-.909 2.472h-3.409q.085-2.287 1.378-4.006 1.293-1.733 3.381-2.699 2.102-.966 4.616-.966 2.699 0 4.631 1.094 1.932 1.08 2.969 2.855a7.5 7.5 0 0 1 1.037 3.835q0 2.458-1.293 4.191-1.278 1.733-3.48 2.4v.228q2.756.454 4.304 2.343 1.548 1.876 1.548 4.645 0 2.373-1.293 4.262-1.278 1.875-3.494 2.954t-5.042 1.08M290.707 311.909V341h-3.522v-25.398h-.171l-7.102 4.716v-3.579l7.273-4.83zm18.196 29.489q-2.812 0-5.014-.966-2.187-.966-3.48-2.685-1.278-1.733-1.392-4.02h3.58q.113 1.407.965 2.429.853 1.009 2.231 1.563t3.054.554q1.875 0 3.323-.654 1.45-.652 2.273-1.818.824-1.164.824-2.699 0-1.605-.795-2.826-.796-1.236-2.33-1.932t-3.75-.696h-2.33v-3.125h2.33q1.733 0 3.04-.625 1.321-.625 2.059-1.762.753-1.136.753-2.67 0-1.477-.653-2.571-.653-1.093-1.847-1.705-1.179-.61-2.784-.61a7.3 7.3 0 0 0-2.841.554q-1.32.539-2.159 1.576-.838 1.023-.909 2.472h-3.409q.085-2.287 1.378-4.006 1.293-1.733 3.381-2.699 2.102-.966 4.616-.966 2.699 0 4.631 1.094 1.932 1.08 2.968 2.855a7.47 7.47 0 0 1 1.037 3.835q0 2.458-1.292 4.191-1.279 1.732-3.48 2.4v.228q2.755.454 4.304 2.343 1.548 1.875 1.548 4.645 0 2.372-1.293 4.262-1.278 1.874-3.494 2.954t-5.043 1.08"/><path fill="#727272" d="M409.998 218.034v-2.898l12.784-20.227h2.102v4.489h-1.421l-9.659 15.284v.227h17.216v3.125zM423.691 224v-29.091h3.352V224zM411.61 311.909V341h-3.523v-25.398h-.17l-7.103 4.716v-3.579l7.273-4.83zm7.684 23.125v-2.898l12.784-20.227h2.103v4.489h-1.421l-9.659 15.284v.227h17.216v3.125zM432.988 341v-29.091h3.352V341z"/><path fill="#fff" d="M540.434 224.398q-2.499 0-4.503-.995-2.003-.994-3.21-2.727t-1.321-3.949h3.409q.199 1.976 1.79 3.267 1.606 1.28 3.835 1.279 1.79 0 3.182-.838a5.9 5.9 0 0 0 2.202-2.301q.81-1.478.809-3.339 0-1.903-.838-3.394a6.15 6.15 0 0 0-2.272-2.373q-1.449-.866-3.31-.88a9 9 0 0 0-2.741.412q-1.407.411-2.316 1.065l-3.295-.398 1.761-14.318h15.114v3.125h-12.159l-1.023 8.58h.17q.895-.711 2.245-1.179a8.5 8.5 0 0 1 2.812-.469q2.671 0 4.759 1.278a8.93 8.93 0 0 1 3.295 3.466q1.208 2.202 1.208 5.029 0 2.784-1.25 4.971a9.14 9.14 0 0 1-3.41 3.438q-2.172 1.25-4.943 1.25M532.274 311.909V341h-3.523v-25.398h-.17l-7.103 4.716v-3.579l7.273-4.83zm17.457 29.489q-2.499 0-4.503-.995-2.003-.994-3.21-2.727t-1.321-3.949h3.409q.199 1.976 1.79 3.267 1.605 1.28 3.835 1.279 1.79 0 3.182-.838a5.93 5.93 0 0 0 2.202-2.301q.809-1.478.809-3.339 0-1.902-.838-3.394a6.16 6.16 0 0 0-2.272-2.373q-1.45-.866-3.31-.88a9.1 9.1 0 0 0-2.742.412q-1.406.411-2.315 1.065l-3.295-.398 1.761-14.318h15.114v3.125h-12.159l-1.023 8.58h.17q.895-.711 2.245-1.179a8.5 8.5 0 0 1 2.812-.469q2.67 0 4.759 1.278a8.93 8.93 0 0 1 3.295 3.466q1.207 2.202 1.207 5.029 0 2.784-1.25 4.971a9.13 9.13 0 0 1-3.409 3.438q-2.173 1.25-4.943 1.25"/><path fill="#727272" d="M660.69 224.398a10.9 10.9 0 0 1-3.58-.682q-1.79-.654-3.267-2.202-1.476-1.562-2.372-4.219-.894-2.67-.895-6.704 0-3.864.725-6.847.724-2.997 2.102-5.042 1.379-2.06 3.324-3.125 1.96-1.066 4.418-1.066 2.442 0 4.346.98a8.3 8.3 0 0 1 3.125 2.699q1.207 1.733 1.563 3.992h-3.466q-.483-1.96-1.875-3.253t-3.693-1.293q-3.381 0-5.327 2.941-1.932 2.94-1.946 8.253h.227a8.54 8.54 0 0 1 4.332-3.395 8.5 8.5 0 0 1 2.827-.469q2.5 0 4.574 1.25 2.075 1.236 3.324 3.423 1.25 2.174 1.25 4.986 0 2.699-1.207 4.943a9.2 9.2 0 0 1-3.395 3.551q-2.174 1.308-5.114 1.279m0-3.125q1.79 0 3.21-.895a6.4 6.4 0 0 0 2.259-2.401q.837-1.506.838-3.352 0-1.804-.81-3.281a6.16 6.16 0 0 0-2.202-2.372q-1.392-.881-3.181-.881-1.35 0-2.515.54a6.5 6.5 0 0 0-2.045 1.449 7 7 0 0 0-1.364 2.116 6.3 6.3 0 0 0-.497 2.486q0 1.733.81 3.238a6.66 6.66 0 0 0 2.244 2.429q1.435.924 3.253.924M651.961 311.909V341h-3.522v-25.398h-.171l-7.102 4.716v-3.579l7.273-4.83zm18.026 29.489a10.9 10.9 0 0 1-3.58-.682q-1.79-.654-3.267-2.202-1.477-1.562-2.372-4.219-.894-2.67-.895-6.704 0-3.864.725-6.847.724-2.997 2.102-5.042 1.377-2.06 3.324-3.125 1.96-1.066 4.417-1.066 2.443 0 4.347.98a8.3 8.3 0 0 1 3.125 2.699q1.208 1.733 1.562 3.992h-3.465q-.483-1.96-1.875-3.253t-3.694-1.293q-3.38 0-5.326 2.941-1.932 2.94-1.946 8.253h.227a8.54 8.54 0 0 1 4.332-3.395 8.5 8.5 0 0 1 2.827-.469q2.5 0 4.574 1.25 2.073 1.236 3.324 3.423 1.25 2.173 1.25 4.986 0 2.699-1.208 4.943a9.2 9.2 0 0 1-3.395 3.551q-2.173 1.308-5.113 1.279m0-3.125q1.79 0 3.21-.895a6.4 6.4 0 0 0 2.259-2.401q.837-1.506.838-3.352 0-1.804-.81-3.281a6.16 6.16 0 0 0-2.202-2.372q-1.391-.882-3.182-.881-1.348 0-2.514.54a6.5 6.5 0 0 0-2.045 1.449 7 7 0 0 0-1.364 2.116 6.3 6.3 0 0 0-.497 2.486q0 1.733.81 3.238a6.66 6.66 0 0 0 2.244 2.429q1.435.924 3.253.924"/><path fill="#fff" d="m772.995 224 13.011-25.739v-.227h-15v-3.125h18.636v3.296L776.688 224zM773.016 311.909V341h-3.523v-25.398h-.17l-7.102 4.716v-3.579l7.272-4.83zM782.292 341l13.011-25.739v-.227h-15v-3.125h18.636v3.296L785.985 341z"/><path fill="#727272" d="M900.505 224.398q-2.926 0-5.17-1.037-2.23-1.051-3.48-2.884-1.251-1.846-1.236-4.204-.015-1.847.724-3.409a7.4 7.4 0 0 1 2.017-2.628 6.2 6.2 0 0 1 2.884-1.35v-.17q-2.088-.54-3.324-2.344-1.236-1.818-1.221-4.133-.015-2.217 1.122-3.963 1.136-1.748 3.125-2.756 2.003-1.008 4.559-1.009 2.53 0 4.517 1.009 1.99 1.008 3.125 2.756 1.151 1.746 1.165 3.963-.014 2.315-1.264 4.133-1.236 1.804-3.281 2.344v.17q1.576.285 2.841 1.35a7.66 7.66 0 0 1 2.017 2.628q.752 1.562.767 3.409-.015 2.358-1.279 4.204-1.25 1.833-3.48 2.884-2.215 1.037-5.128 1.037m0-3.125q1.975 0 3.409-.639 1.435-.64 2.216-1.804t.796-2.728q-.015-1.647-.852-2.912-.839-1.263-2.287-1.988-1.436-.725-3.282-.725-1.86 0-3.324.725-1.448.725-2.286 1.988-.825 1.265-.81 2.912-.015 1.563.753 2.728.781 1.164 2.23 1.804 1.45.639 3.437.639m0-13.807q1.563 0 2.77-.625a4.75 4.75 0 0 0 1.918-1.747q.696-1.122.71-2.628-.014-1.478-.696-2.571a4.5 4.5 0 0 0-1.889-1.705q-1.208-.61-2.813-.61-1.633 0-2.855.61-1.221.597-1.889 1.705-.668 1.094-.653 2.571-.014 1.506.667 2.628a4.75 4.75 0 0 0 1.918 1.747q1.221.625 2.812.625M892.118 311.909V341h-3.523v-25.398h-.171l-7.102 4.716v-3.579l7.273-4.83zm17.684 29.489q-2.926 0-5.17-1.037-2.23-1.051-3.48-2.884-1.251-1.846-1.236-4.204-.015-1.847.724-3.409a7.4 7.4 0 0 1 2.017-2.628 6.2 6.2 0 0 1 2.884-1.35v-.17q-2.088-.54-3.324-2.344-1.236-1.818-1.222-4.133-.014-2.217 1.123-3.963 1.136-1.748 3.125-2.756 2.003-1.009 4.559-1.009 2.529 0 4.517 1.009 1.99 1.008 3.125 2.756 1.151 1.746 1.165 3.963-.014 2.315-1.264 4.133-1.236 1.804-3.281 2.344v.17q1.577.285 2.84 1.35a7.65 7.65 0 0 1 2.018 2.628q.752 1.562.767 3.409-.015 2.358-1.279 4.204-1.25 1.833-3.48 2.884-2.216 1.037-5.128 1.037m0-3.125q1.974 0 3.409-.639 1.435-.64 2.216-1.804t.796-2.728q-.015-1.647-.853-2.912-.837-1.263-2.287-1.988-1.434-.725-3.281-.725-1.86 0-3.324.725-1.449.725-2.287 1.988-.824 1.265-.809 2.912-.015 1.563.753 2.728.78 1.164 2.23 1.804 1.448.639 3.437.639m0-13.807q1.563 0 2.77-.625a4.76 4.76 0 0 0 1.918-1.747q.696-1.122.71-2.628-.015-1.477-.696-2.571a4.5 4.5 0 0 0-1.889-1.705q-1.208-.61-2.813-.61-1.634 0-2.855.61-1.221.597-1.889 1.705-.668 1.093-.654 2.571-.013 1.506.668 2.628a4.75 4.75 0 0 0 1.918 1.747q1.221.625 2.812.625"/><path fill="#fff" d="M1020.29 194.511c1.2.01 2.39.237 3.58.682q1.785.668 3.27 2.216 1.47 1.535 2.37 4.19.9 2.657.9 6.662c0 2.586-.25 4.882-.74 6.89-.49 1.998-1.19 3.683-2.11 5.056-.9 1.373-2.01 2.415-3.32 3.125-1.3.711-2.76 1.066-4.4 1.066-1.63 0-3.08-.322-4.36-.966a8.6 8.6 0 0 1-3.13-2.713c-.8-1.165-1.32-2.514-1.55-4.049h3.47q.465 2.004 1.86 3.31c.94.862 2.17 1.293 3.71 1.293q3.36 0 5.31-2.941c1.31-1.96 1.96-4.73 1.96-8.309h-.23a8.9 8.9 0 0 1-1.89 2.059 8.2 8.2 0 0 1-2.43 1.336c-.89.312-1.83.468-2.84.468-1.66 0-3.19-.412-4.58-1.235-1.39-.834-2.49-1.975-3.33-3.424q-1.23-2.187-1.23-5c0-1.78.39-3.409 1.19-4.886a9.2 9.2 0 0 1 3.38-3.551c1.46-.881 3.17-1.307 5.14-1.279m0 3.125c-1.19 0-2.27.299-3.22.895a6.4 6.4 0 0 0-2.26 2.387c-.55.994-.82 2.097-.82 3.309s.26 2.316.79 3.31a6.33 6.33 0 0 0 2.2 2.358c.94.578 2.01.866 3.2.866.9 0 1.74-.175 2.51-.525.78-.36 1.46-.848 2.03-1.463a7 7 0 0 0 1.38-2.117c.33-.795.5-1.624.5-2.486 0-1.136-.28-2.201-.82-3.196a6.5 6.5 0 0 0-2.25-2.414q-1.425-.924-3.24-.924M1011.96 311.909V341h-3.52v-25.398h-.17l-7.1 4.716v-3.579l7.27-4.83zm17.63-.398c1.19.01 2.39.237 3.58.682q1.785.668 3.27 2.216 1.47 1.535 2.37 4.19c.59 1.771.89 3.992.89 6.662 0 2.586-.24 4.882-.74 6.89q-.72 2.997-2.1 5.056c-.91 1.373-2.02 2.415-3.32 3.125q-1.95 1.066-4.41 1.066c-1.62 0-3.08-.322-4.36-.966a8.5 8.5 0 0 1-3.12-2.713c-.81-1.165-1.32-2.514-1.55-4.049h3.47q.465 2.004 1.86 3.31c.93.862 2.17 1.293 3.7 1.293 2.25 0 4.02-.98 5.32-2.941s1.96-4.73 1.96-8.309h-.23a8.9 8.9 0 0 1-1.89 2.059 8.35 8.35 0 0 1-5.27 1.804q-2.505 0-4.59-1.235c-1.38-.834-2.49-1.975-3.32-3.424-.82-1.458-1.24-3.125-1.24-5q0-2.67 1.2-4.886a9.2 9.2 0 0 1 3.38-3.551c1.46-.881 3.17-1.307 5.14-1.279m0 3.125c-1.19 0-2.27.299-3.23.895a6.4 6.4 0 0 0-2.25 2.387c-.55.994-.83 2.097-.83 3.309s.27 2.316.8 3.31a6.33 6.33 0 0 0 2.2 2.358c.94.578 2 .866 3.2.866.9 0 1.73-.175 2.51-.525.78-.36 1.45-.848 2.03-1.463a7 7 0 0 0 1.38-2.117 6.508 6.508 0 0 0-.33-5.682 6.6 6.6 0 0 0-2.24-2.414q-1.425-.924-3.24-.924"/><path fill="#727272" d="M1131.94 194.909V224h-3.52v-25.398h-.17l-7.1 4.716v-3.579l7.27-4.83zm17.86 29.489c-2.14 0-3.97-.583-5.47-1.747q-2.265-1.762-3.45-5.1-1.2-3.353-1.2-8.096 0-4.716 1.2-8.054c.8-2.235 1.96-3.94 3.46-5.114q2.28-1.776 5.46-1.776c2.12 0 3.93.592 5.44 1.776 1.51 1.174 2.67 2.879 3.46 5.114.81 2.225 1.21 4.91 1.21 8.054 0 3.162-.4 5.861-1.19 8.096q-1.2 3.338-3.45 5.1c-1.51 1.164-3.33 1.747-5.47 1.747m0-3.125c2.12 0 3.77-1.023 4.94-3.068s1.76-4.963 1.76-8.75q0-3.779-.81-6.435c-.53-1.771-1.3-3.12-2.3-4.048-.99-.928-2.19-1.392-3.59-1.392-2.11 0-3.75 1.036-4.93 3.11-1.19 2.065-1.78 4.986-1.78 8.765 0 2.518.27 4.659.8 6.42q.795 2.642 2.28 4.02 1.515 1.377 3.63 1.378M1118.9 341v-2.557l9.6-10.511a66 66 0 0 0 2.79-3.21q1.095-1.379 1.62-2.586.54-1.221.54-2.556c0-1.023-.25-1.909-.74-2.657-.48-.748-1.15-1.325-1.99-1.733-.84-.407-1.79-.61-2.84-.61-1.12 0-2.09.232-2.93.696a4.76 4.76 0 0 0-1.91 1.917c-.45.824-.67 1.79-.67 2.898h-3.35q0-2.557 1.17-4.489a8.25 8.25 0 0 1 3.21-3.011q2.055-1.08 4.59-1.08 2.565 0 4.53 1.08c1.32.72 2.35 1.69 3.1 2.912s1.12 2.58 1.12 4.077c0 1.07-.19 2.116-.58 3.139-.38 1.013-1.04 2.145-1.99 3.395q-1.41 1.86-3.9 4.545l-6.54 6.989v.227h13.52V341zm33.71.398c-2.14 0-3.96-.583-5.47-1.747q-2.265-1.762-3.45-5.1c-.8-2.235-1.19-4.934-1.19-8.096 0-3.144.39-5.829 1.19-8.054.8-2.235 1.96-3.94 3.46-5.114q2.28-1.776 5.46-1.776c2.12 0 3.93.592 5.44 1.776 1.51 1.174 2.67 2.879 3.47 5.114q1.2 3.338 1.2 8.054c0 3.162-.39 5.861-1.19 8.096q-1.2 3.338-3.45 5.1c-1.51 1.164-3.33 1.747-5.47 1.747m0-3.125c2.12 0 3.77-1.023 4.94-3.068 1.18-2.046 1.76-4.963 1.76-8.75q0-3.778-.81-6.435c-.53-1.771-1.29-3.12-2.3-4.048-.99-.928-2.19-1.392-3.59-1.392-2.1 0-3.75 1.036-4.93 3.11-1.18 2.065-1.78 4.986-1.78 8.765 0 2.518.27 4.659.8 6.42s1.29 3.101 2.29 4.02 2.21 1.378 3.62 1.378"/></svg>