<svg width="1887" height="229" viewBox="0 0 1887 229" fill="none" xmlns="http://www.w3.org/2000/svg">
<rect x="1" y="78" width="1885" height="150" rx="27" stroke="#DBDBDB" stroke-width="2"/>
<rect x="2.05859" y="78" width="356.812" height="150" rx="27" fill="#009966" stroke="#DBDBDB" stroke-width="2"/>
<path d="M1428 105C1428 90.0883 1440.09 78 1455 78H1570C1584.91 78 1597 90.0883 1597 105V201C1597 215.912 1584.91 228 1570 228H1455C1440.09 228 1428 215.912 1428 201V105Z" fill="#FB701A" stroke="#DBDBDB" stroke-width="2"/>
<rect x="531.453" y="78" width="560.734" height="150" rx="27" fill="#EC003F" stroke="#DBDBDB" stroke-width="2"/>
<path d="M152.184 144V114.909H163.662C165.868 114.909 167.748 115.33 169.301 116.173C170.854 117.007 172.038 118.167 172.852 119.653C173.676 121.131 174.088 122.835 174.088 124.767C174.088 126.699 173.671 128.403 172.838 129.881C172.004 131.358 170.797 132.509 169.216 133.332C167.644 134.156 165.74 134.568 163.505 134.568H156.19V129.639H162.511C163.695 129.639 164.67 129.436 165.437 129.028C166.214 128.612 166.791 128.039 167.17 127.31C167.558 126.571 167.753 125.723 167.753 124.767C167.753 123.801 167.558 122.958 167.17 122.239C166.791 121.509 166.214 120.946 165.437 120.548C164.661 120.141 163.676 119.938 162.483 119.938H158.335V144H152.184ZM190.569 114.909V144H184.418V120.747H184.248L177.586 124.923V119.469L184.787 114.909H190.569ZM201.076 140.619C200.139 140.619 199.334 140.288 198.662 139.625C197.999 138.962 197.667 138.157 197.667 137.21C197.667 136.282 197.999 135.487 198.662 134.824C199.334 134.161 200.139 133.83 201.076 133.83C201.985 133.83 202.781 134.161 203.463 134.824C204.145 135.487 204.485 136.282 204.485 137.21C204.485 137.835 204.324 138.408 204.003 138.929C203.69 139.44 203.278 139.852 202.767 140.165C202.255 140.468 201.692 140.619 201.076 140.619ZM201.076 126.344C200.139 126.344 199.334 126.012 198.662 125.349C197.999 124.687 197.667 123.882 197.667 122.935C197.667 122.007 197.999 121.216 198.662 120.562C199.334 119.9 200.139 119.568 201.076 119.568C201.985 119.568 202.781 119.9 203.463 120.562C204.145 121.216 204.485 122.007 204.485 122.935C204.485 123.569 204.324 124.147 204.003 124.668C203.69 125.179 203.278 125.586 202.767 125.889C202.255 126.192 201.692 126.344 201.076 126.344ZM133.03 192.398C131.022 192.398 129.232 192.028 127.66 191.29C126.098 190.551 124.857 189.533 123.939 188.236C123.02 186.938 122.542 185.452 122.504 183.776H128.47C128.536 184.902 129.01 185.816 129.89 186.517C130.771 187.218 131.817 187.568 133.03 187.568C133.995 187.568 134.848 187.355 135.586 186.929C136.334 186.493 136.917 185.892 137.333 185.125C137.76 184.348 137.973 183.458 137.973 182.455C137.973 181.432 137.755 180.532 137.319 179.756C136.893 178.979 136.301 178.373 135.544 177.938C134.786 177.502 133.92 177.279 132.944 177.27C132.092 177.27 131.263 177.445 130.458 177.795C129.663 178.146 129.043 178.624 128.598 179.23L123.129 178.25L124.507 162.909H142.291V167.938H129.578L128.825 175.224H128.995C129.507 174.505 130.279 173.908 131.311 173.435C132.343 172.961 133.498 172.724 134.777 172.724C136.529 172.724 138.091 173.136 139.464 173.96C140.837 174.784 141.922 175.916 142.717 177.355C143.512 178.785 143.905 180.433 143.896 182.298C143.905 184.259 143.451 186.001 142.532 187.526C141.623 189.041 140.35 190.234 138.711 191.105C137.083 191.967 135.189 192.398 133.03 192.398ZM159.592 192.639C157.149 192.63 155.047 192.028 153.285 190.835C151.533 189.642 150.184 187.914 149.237 185.651C148.299 183.387 147.835 180.665 147.845 177.483C147.845 174.311 148.314 171.607 149.251 169.372C150.198 167.137 151.548 165.437 153.299 164.273C155.061 163.098 157.158 162.511 159.592 162.511C162.026 162.511 164.119 163.098 165.87 164.273C167.632 165.447 168.986 167.152 169.933 169.386C170.88 171.612 171.349 174.311 171.339 177.483C171.339 180.674 170.866 183.402 169.919 185.665C168.981 187.928 167.637 189.656 165.885 190.849C164.133 192.043 162.035 192.639 159.592 192.639ZM159.592 187.54C161.259 187.54 162.589 186.702 163.583 185.026C164.578 183.349 165.07 180.835 165.061 177.483C165.061 175.277 164.833 173.439 164.379 171.972C163.934 170.504 163.299 169.401 162.476 168.662C161.661 167.923 160.7 167.554 159.592 167.554C157.935 167.554 156.609 168.383 155.615 170.04C154.62 171.697 154.119 174.178 154.109 177.483C154.109 179.718 154.332 181.583 154.777 183.08C155.231 184.566 155.87 185.684 156.694 186.432C157.518 187.17 158.484 187.54 159.592 187.54ZM185.153 192V162.909H191.304V175.736H191.687L202.156 162.909H209.528L198.733 175.935L209.656 192H202.298L194.329 180.04L191.304 183.733V192H185.153ZM212.731 192V162.909H224.379C226.519 162.909 228.304 163.226 229.734 163.861C231.164 164.495 232.239 165.376 232.958 166.503C233.678 167.62 234.038 168.908 234.038 170.366C234.038 171.503 233.811 172.502 233.356 173.364C232.902 174.216 232.277 174.917 231.481 175.466C230.695 176.006 229.796 176.389 228.782 176.616V176.901C229.89 176.948 230.927 177.26 231.893 177.838C232.869 178.416 233.659 179.225 234.265 180.267C234.871 181.299 235.174 182.53 235.174 183.96C235.174 185.504 234.791 186.882 234.024 188.094C233.266 189.296 232.144 190.248 230.657 190.949C229.171 191.65 227.338 192 225.16 192H212.731ZM218.882 186.972H223.896C225.61 186.972 226.86 186.645 227.646 185.991C228.432 185.329 228.825 184.448 228.825 183.349C228.825 182.545 228.631 181.834 228.243 181.219C227.854 180.603 227.3 180.12 226.581 179.77C225.87 179.42 225.023 179.244 224.038 179.244H218.882V186.972ZM218.882 175.082H223.441C224.284 175.082 225.032 174.936 225.686 174.642C226.349 174.339 226.869 173.913 227.248 173.364C227.637 172.814 227.831 172.156 227.831 171.389C227.831 170.338 227.457 169.491 226.708 168.847C225.97 168.203 224.919 167.881 223.555 167.881H218.882V175.082Z" fill="white"/>
<path d="M1225.15 171.398C1223.14 171.398 1221.35 171.028 1219.78 170.29C1218.22 169.551 1216.98 168.533 1216.06 167.236C1215.14 165.938 1214.66 164.452 1214.63 162.776H1220.59C1220.66 163.902 1221.13 164.816 1222.01 165.517C1222.89 166.218 1223.94 166.568 1225.15 166.568C1226.12 166.568 1226.97 166.355 1227.71 165.929C1228.46 165.493 1229.04 164.892 1229.45 164.125C1229.88 163.348 1230.09 162.458 1230.09 161.455C1230.09 160.432 1229.88 159.532 1229.44 158.756C1229.01 157.979 1228.42 157.373 1227.66 156.938C1226.91 156.502 1226.04 156.279 1225.07 156.27C1224.21 156.27 1223.38 156.445 1222.58 156.795C1221.78 157.146 1221.16 157.624 1220.72 158.23L1215.25 157.25L1216.63 141.909H1234.41V146.938H1221.7L1220.95 154.224H1221.12C1221.63 153.505 1222.4 152.908 1223.43 152.435C1224.46 151.961 1225.62 151.724 1226.9 151.724C1228.65 151.724 1230.21 152.136 1231.59 152.96C1232.96 153.784 1234.04 154.916 1234.84 156.355C1235.63 157.785 1236.03 159.433 1236.02 161.298C1236.03 163.259 1235.57 165.001 1234.65 166.526C1233.74 168.041 1232.47 169.234 1230.83 170.105C1229.2 170.967 1227.31 171.398 1225.15 171.398ZM1251.71 171.639C1249.27 171.63 1247.17 171.028 1245.41 169.835C1243.65 168.642 1242.31 166.914 1241.36 164.651C1240.42 162.387 1239.96 159.665 1239.97 156.483C1239.97 153.311 1240.43 150.607 1241.37 148.372C1242.32 146.137 1243.67 144.437 1245.42 143.273C1247.18 142.098 1249.28 141.511 1251.71 141.511C1254.15 141.511 1256.24 142.098 1257.99 143.273C1259.75 144.447 1261.11 146.152 1262.05 148.386C1263 150.612 1263.47 153.311 1263.46 156.483C1263.46 159.674 1262.99 162.402 1262.04 164.665C1261.1 166.928 1259.76 168.656 1258.01 169.849C1256.25 171.043 1254.16 171.639 1251.71 171.639ZM1251.71 166.54C1253.38 166.54 1254.71 165.702 1255.7 164.026C1256.7 162.349 1257.19 159.835 1257.18 156.483C1257.18 154.277 1256.95 152.439 1256.5 150.972C1256.06 149.504 1255.42 148.401 1254.6 147.662C1253.78 146.923 1252.82 146.554 1251.71 146.554C1250.06 146.554 1248.73 147.383 1247.74 149.04C1246.74 150.697 1246.24 153.178 1246.23 156.483C1246.23 158.718 1246.45 160.583 1246.9 162.08C1247.35 163.566 1247.99 164.684 1248.82 165.432C1249.64 166.17 1250.61 166.54 1251.71 166.54ZM1277.27 171V141.909H1283.42V154.736H1283.81L1294.28 141.909H1301.65L1290.85 154.935L1301.78 171H1294.42L1286.45 159.04L1283.42 162.733V171H1277.27ZM1304.85 171V141.909H1316.5C1318.64 141.909 1320.43 142.226 1321.86 142.861C1323.29 143.495 1324.36 144.376 1325.08 145.503C1325.8 146.62 1326.16 147.908 1326.16 149.366C1326.16 150.503 1325.93 151.502 1325.48 152.364C1325.02 153.216 1324.4 153.917 1323.6 154.466C1322.82 155.006 1321.92 155.389 1320.9 155.616V155.901C1322.01 155.948 1323.05 156.26 1324.01 156.838C1324.99 157.416 1325.78 158.225 1326.39 159.267C1326.99 160.299 1327.3 161.53 1327.3 162.96C1327.3 164.504 1326.91 165.882 1326.15 167.094C1325.39 168.296 1324.27 169.248 1322.78 169.949C1321.29 170.65 1319.46 171 1317.28 171H1304.85ZM1311 165.972H1316.02C1317.73 165.972 1318.98 165.645 1319.77 164.991C1320.55 164.329 1320.95 163.448 1320.95 162.349C1320.95 161.545 1320.75 160.834 1320.36 160.219C1319.98 159.603 1319.42 159.12 1318.7 158.77C1317.99 158.42 1317.14 158.244 1316.16 158.244H1311V165.972ZM1311 154.082H1315.56C1316.41 154.082 1317.15 153.936 1317.81 153.642C1318.47 153.339 1318.99 152.913 1319.37 152.364C1319.76 151.814 1319.95 151.156 1319.95 150.389C1319.95 149.338 1319.58 148.491 1318.83 147.847C1318.09 147.203 1317.04 146.881 1315.68 146.881H1311V154.082Z" fill="white"/>
<path d="M1683.42 165.886V161.043L1695.57 141.909H1699.74V148.614H1697.27L1689.61 160.73V160.957H1706.87V165.886H1683.42ZM1697.38 171V164.409L1697.5 162.264V141.909H1703.27V171H1697.38ZM1722.38 171.639C1719.93 171.63 1717.83 171.028 1716.07 169.835C1714.32 168.642 1712.97 166.914 1712.02 164.651C1711.08 162.387 1710.62 159.665 1710.63 156.483C1710.63 153.311 1711.1 150.607 1712.04 148.372C1712.98 146.137 1714.33 144.437 1716.08 143.273C1717.85 142.098 1719.94 141.511 1722.38 141.511C1724.81 141.511 1726.9 142.098 1728.66 143.273C1730.42 144.447 1731.77 146.152 1732.72 148.386C1733.67 150.612 1734.13 153.311 1734.12 156.483C1734.12 159.674 1733.65 162.402 1732.7 164.665C1731.77 166.928 1730.42 168.656 1728.67 169.849C1726.92 171.043 1724.82 171.639 1722.38 171.639ZM1722.38 166.54C1724.04 166.54 1725.37 165.702 1726.37 164.026C1727.36 162.349 1727.86 159.835 1727.85 156.483C1727.85 154.277 1727.62 152.439 1727.16 150.972C1726.72 149.504 1726.08 148.401 1725.26 147.662C1724.45 146.923 1723.49 146.554 1722.38 146.554C1720.72 146.554 1719.39 147.383 1718.4 149.04C1717.41 150.697 1716.9 153.178 1716.89 156.483C1716.89 158.718 1717.12 160.583 1717.56 162.08C1718.02 163.566 1718.66 164.684 1719.48 165.432C1720.3 166.17 1721.27 166.54 1722.38 166.54ZM1747.94 171V141.909H1754.09V154.736H1754.47L1764.94 141.909H1772.31L1761.52 154.935L1772.44 171H1765.08L1757.11 159.04L1754.09 162.733V171H1747.94ZM1775.52 171V141.909H1787.16C1789.3 141.909 1791.09 142.226 1792.52 142.861C1793.95 143.495 1795.02 144.376 1795.74 145.503C1796.46 146.62 1796.82 147.908 1796.82 149.366C1796.82 150.503 1796.6 151.502 1796.14 152.364C1795.69 153.216 1795.06 153.917 1794.27 154.466C1793.48 155.006 1792.58 155.389 1791.57 155.616V155.901C1792.68 155.948 1793.71 156.26 1794.68 156.838C1795.65 157.416 1796.44 158.225 1797.05 159.267C1797.66 160.299 1797.96 161.53 1797.96 162.96C1797.96 164.504 1797.58 165.882 1796.81 167.094C1796.05 168.296 1794.93 169.248 1793.44 169.949C1791.96 170.65 1790.12 171 1787.95 171H1775.52ZM1781.67 165.972H1786.68C1788.4 165.972 1789.65 165.645 1790.43 164.991C1791.22 164.329 1791.61 163.448 1791.61 162.349C1791.61 161.545 1791.42 160.834 1791.03 160.219C1790.64 159.603 1790.09 159.12 1789.37 158.77C1788.66 158.42 1787.81 158.244 1786.82 158.244H1781.67V165.972ZM1781.67 154.082H1786.23C1787.07 154.082 1787.82 153.936 1788.47 153.642C1789.13 153.339 1789.65 152.913 1790.03 152.364C1790.42 151.814 1790.62 151.156 1790.62 150.389C1790.62 149.338 1790.24 148.491 1789.49 147.847C1788.76 147.203 1787.7 146.881 1786.34 146.881H1781.67V154.082Z" fill="white"/>
<path d="M780.939 144V114.909H792.417C794.623 114.909 796.503 115.33 798.056 116.173C799.609 117.007 800.793 118.167 801.607 119.653C802.431 121.131 802.843 122.835 802.843 124.767C802.843 126.699 802.426 128.403 801.593 129.881C800.759 131.358 799.552 132.509 797.971 133.332C796.399 134.156 794.495 134.568 792.26 134.568H784.945V129.639H791.266C792.45 129.639 793.425 129.436 794.192 129.028C794.969 128.612 795.546 128.039 795.925 127.31C796.313 126.571 796.508 125.723 796.508 124.767C796.508 123.801 796.313 122.958 795.925 122.239C795.546 121.509 794.969 120.946 794.192 120.548C793.416 120.141 792.431 119.938 791.238 119.938H787.09V144H780.939ZM806.667 144V139.568L817.022 129.98C817.903 129.128 818.642 128.361 819.238 127.679C819.844 126.997 820.304 126.33 820.616 125.676C820.929 125.013 821.085 124.298 821.085 123.531C821.085 122.679 820.891 121.945 820.503 121.33C820.114 120.705 819.584 120.226 818.912 119.895C818.239 119.554 817.477 119.384 816.625 119.384C815.735 119.384 814.958 119.563 814.295 119.923C813.632 120.283 813.121 120.799 812.761 121.472C812.401 122.144 812.221 122.944 812.221 123.872H806.383C806.383 121.969 806.814 120.316 807.676 118.915C808.538 117.513 809.745 116.429 811.298 115.662C812.851 114.895 814.641 114.511 816.667 114.511C818.751 114.511 820.564 114.881 822.108 115.619C823.661 116.348 824.868 117.362 825.73 118.659C826.592 119.956 827.022 121.443 827.022 123.119C827.022 124.218 826.805 125.302 826.369 126.372C825.943 127.442 825.181 128.631 824.082 129.938C822.984 131.235 821.435 132.793 819.437 134.611L815.19 138.773V138.972H827.406V144H806.667ZM835.456 140.619C834.519 140.619 833.714 140.288 833.042 139.625C832.379 138.962 832.047 138.157 832.047 137.21C832.047 136.282 832.379 135.487 833.042 134.824C833.714 134.161 834.519 133.83 835.456 133.83C836.365 133.83 837.161 134.161 837.843 134.824C838.525 135.487 838.865 136.282 838.865 137.21C838.865 137.835 838.704 138.408 838.383 138.929C838.07 139.44 837.658 139.852 837.147 140.165C836.635 140.468 836.072 140.619 835.456 140.619ZM835.456 126.344C834.519 126.344 833.714 126.012 833.042 125.349C832.379 124.687 832.047 123.882 832.047 122.935C832.047 122.007 832.379 121.216 833.042 120.562C833.714 119.9 834.519 119.568 835.456 119.568C836.365 119.568 837.161 119.9 837.843 120.562C838.525 121.216 838.865 122.007 838.865 122.935C838.865 123.569 838.704 124.147 838.383 124.668C838.07 125.179 837.658 125.586 837.147 125.889C836.635 126.192 836.072 126.344 835.456 126.344ZM764.492 192.398C762.305 192.398 760.359 192.043 758.654 191.332C756.959 190.613 755.629 189.633 754.663 188.392C753.697 187.152 753.214 185.745 753.214 184.173C753.214 182.961 753.488 181.848 754.038 180.835C754.596 179.812 755.354 178.965 756.31 178.293C757.267 177.611 758.337 177.175 759.521 176.986V176.787C757.968 176.474 756.708 175.722 755.742 174.528C754.776 173.326 754.293 171.929 754.293 170.338C754.293 168.832 754.734 167.492 755.614 166.318C756.495 165.134 757.702 164.206 759.237 163.534C760.78 162.852 762.532 162.511 764.492 162.511C766.452 162.511 768.2 162.852 769.734 163.534C771.277 164.216 772.489 165.149 773.37 166.332C774.251 167.507 774.696 168.842 774.705 170.338C774.696 171.938 774.203 173.335 773.228 174.528C772.253 175.722 771.003 176.474 769.478 176.787V176.986C770.643 177.175 771.699 177.611 772.646 178.293C773.602 178.965 774.36 179.812 774.918 180.835C775.487 181.848 775.775 182.961 775.785 184.173C775.775 185.745 775.288 187.152 774.322 188.392C773.356 189.633 772.021 190.613 770.316 191.332C768.621 192.043 766.68 192.398 764.492 192.398ZM764.492 187.881C765.468 187.881 766.32 187.705 767.049 187.355C767.778 186.995 768.346 186.503 768.754 185.878C769.17 185.243 769.379 184.514 769.379 183.69C769.379 182.848 769.166 182.104 768.739 181.46C768.313 180.807 767.736 180.295 767.006 179.926C766.277 179.547 765.439 179.358 764.492 179.358C763.555 179.358 762.717 179.547 761.978 179.926C761.239 180.295 760.657 180.807 760.231 181.46C759.814 182.104 759.606 182.848 759.606 183.69C759.606 184.514 759.809 185.243 760.217 185.878C760.624 186.503 761.197 186.995 761.935 187.355C762.674 187.705 763.526 187.881 764.492 187.881ZM764.492 174.884C765.307 174.884 766.031 174.718 766.666 174.386C767.3 174.055 767.797 173.596 768.157 173.009C768.517 172.421 768.697 171.744 768.697 170.977C768.697 170.22 768.517 169.557 768.157 168.989C767.797 168.411 767.305 167.961 766.68 167.639C766.055 167.308 765.326 167.142 764.492 167.142C763.668 167.142 762.939 167.308 762.305 167.639C761.67 167.961 761.173 168.411 760.813 168.989C760.463 169.557 760.288 170.22 760.288 170.977C760.288 171.744 760.468 172.421 760.827 173.009C761.187 173.596 761.684 174.055 762.319 174.386C762.953 174.718 763.678 174.884 764.492 174.884ZM791.492 192.639C789.048 192.63 786.946 192.028 785.185 190.835C783.433 189.642 782.083 187.914 781.136 185.651C780.199 183.387 779.735 180.665 779.744 177.483C779.744 174.311 780.213 171.607 781.151 169.372C782.098 167.137 783.447 165.437 785.199 164.273C786.96 163.098 789.058 162.511 791.492 162.511C793.925 162.511 796.018 163.098 797.77 164.273C799.531 165.447 800.885 167.152 801.832 169.386C802.779 171.612 803.248 174.311 803.239 177.483C803.239 180.674 802.765 183.402 801.818 185.665C800.881 187.928 799.536 189.656 797.784 190.849C796.032 192.043 793.935 192.639 791.492 192.639ZM791.492 187.54C793.158 187.54 794.489 186.702 795.483 185.026C796.477 183.349 796.97 180.835 796.96 177.483C796.96 175.277 796.733 173.439 796.278 171.972C795.833 170.504 795.199 169.401 794.375 168.662C793.561 167.923 792.599 167.554 791.492 167.554C789.834 167.554 788.509 168.383 787.514 170.04C786.52 171.697 786.018 174.178 786.009 177.483C786.009 179.718 786.231 181.583 786.676 183.08C787.131 184.566 787.77 185.684 788.594 186.432C789.418 187.17 790.384 187.54 791.492 187.54ZM817.053 192V162.909H823.203V175.736H823.587L834.055 162.909H841.428L830.632 175.935L841.555 192H834.197L826.229 180.04L823.203 183.733V192H817.053ZM844.631 192V162.909H856.278C858.419 162.909 860.204 163.226 861.634 163.861C863.063 164.495 864.138 165.376 864.858 166.503C865.578 167.62 865.938 168.908 865.938 170.366C865.938 171.503 865.71 172.502 865.256 173.364C864.801 174.216 864.176 174.917 863.381 175.466C862.595 176.006 861.695 176.389 860.682 176.616V176.901C861.79 176.948 862.827 177.26 863.793 177.838C864.768 178.416 865.559 179.225 866.165 180.267C866.771 181.299 867.074 182.53 867.074 183.96C867.074 185.504 866.69 186.882 865.923 188.094C865.166 189.296 864.044 190.248 862.557 190.949C861.07 191.65 859.238 192 857.06 192H844.631ZM850.781 186.972H855.796C857.51 186.972 858.76 186.645 859.546 185.991C860.331 185.329 860.724 184.448 860.724 183.349C860.724 182.545 860.53 181.834 860.142 181.219C859.754 180.603 859.2 180.12 858.48 179.77C857.77 179.42 856.922 179.244 855.938 179.244H850.781V186.972ZM850.781 175.082H855.341C856.184 175.082 856.932 174.936 857.585 174.642C858.248 174.339 858.769 173.913 859.148 173.364C859.536 172.814 859.73 172.156 859.73 171.389C859.73 170.338 859.356 169.491 858.608 168.847C857.869 168.203 856.818 167.881 855.455 167.881H850.781V175.082Z" fill="white"/>
<path d="M389.512 171V166.568L399.867 156.98C400.748 156.128 401.486 155.361 402.083 154.679C402.689 153.997 403.148 153.33 403.461 152.676C403.773 152.013 403.93 151.298 403.93 150.531C403.93 149.679 403.735 148.945 403.347 148.33C402.959 147.705 402.429 147.226 401.756 146.895C401.084 146.554 400.322 146.384 399.469 146.384C398.579 146.384 397.803 146.563 397.14 146.923C396.477 147.283 395.966 147.799 395.606 148.472C395.246 149.144 395.066 149.944 395.066 150.872H389.228C389.228 148.969 389.659 147.316 390.52 145.915C391.382 144.513 392.59 143.429 394.143 142.662C395.696 141.895 397.485 141.511 399.512 141.511C401.595 141.511 403.409 141.881 404.952 142.619C406.505 143.348 407.713 144.362 408.574 145.659C409.436 146.956 409.867 148.443 409.867 150.119C409.867 151.218 409.649 152.302 409.214 153.372C408.787 154.442 408.025 155.631 406.927 156.938C405.828 158.235 404.28 159.793 402.282 161.611L398.035 165.773V165.972H410.251V171H389.512ZM426.113 171.639C423.67 171.63 421.568 171.028 419.807 169.835C418.055 168.642 416.705 166.914 415.758 164.651C414.821 162.387 414.357 159.665 414.366 156.483C414.366 153.311 414.835 150.607 415.773 148.372C416.72 146.137 418.069 144.437 419.821 143.273C421.582 142.098 423.68 141.511 426.113 141.511C428.547 141.511 430.64 142.098 432.392 143.273C434.153 144.447 435.507 146.152 436.454 148.386C437.401 150.612 437.87 153.311 437.861 156.483C437.861 159.674 437.387 162.402 436.44 164.665C435.503 166.928 434.158 168.656 432.406 169.849C430.654 171.043 428.557 171.639 426.113 171.639ZM426.113 166.54C427.78 166.54 429.111 165.702 430.105 164.026C431.099 162.349 431.592 159.835 431.582 156.483C431.582 154.277 431.355 152.439 430.9 150.972C430.455 149.504 429.821 148.401 428.997 147.662C428.183 146.923 427.221 146.554 426.113 146.554C424.456 146.554 423.131 147.383 422.136 149.04C421.142 150.697 420.64 153.178 420.631 156.483C420.631 158.718 420.853 160.583 421.298 162.08C421.753 163.566 422.392 164.684 423.216 165.432C424.04 166.17 425.006 166.54 426.113 166.54ZM451.675 171V141.909H457.825V154.736H458.209L468.677 141.909H476.05L465.254 154.935L476.177 171H468.819L460.851 159.04L457.825 162.733V171H451.675ZM479.253 171V141.909H490.9C493.041 141.909 494.826 142.226 496.256 142.861C497.685 143.495 498.76 144.376 499.48 145.503C500.2 146.62 500.56 147.908 500.56 149.366C500.56 150.503 500.332 151.502 499.878 152.364C499.423 153.216 498.798 153.917 498.003 154.466C497.217 155.006 496.317 155.389 495.304 155.616V155.901C496.412 155.948 497.449 156.26 498.415 156.838C499.39 157.416 500.181 158.225 500.787 159.267C501.393 160.299 501.696 161.53 501.696 162.96C501.696 164.504 501.312 165.882 500.545 167.094C499.788 168.296 498.666 169.248 497.179 169.949C495.692 170.65 493.86 171 491.682 171H479.253ZM485.403 165.972H490.417C492.131 165.972 493.381 165.645 494.167 164.991C494.953 164.329 495.346 163.448 495.346 162.349C495.346 161.545 495.152 160.834 494.764 160.219C494.376 159.603 493.822 159.12 493.102 158.77C492.392 158.42 491.544 158.244 490.56 158.244H485.403V165.972ZM485.403 154.082H489.963C490.806 154.082 491.554 153.936 492.207 153.642C492.87 153.339 493.391 152.913 493.77 152.364C494.158 151.814 494.352 151.156 494.352 150.389C494.352 149.338 493.978 148.491 493.23 147.847C492.491 147.203 491.44 146.881 490.077 146.881H485.403V154.082Z" fill="white"/>
<path d="M868.921 9.90909H873.126L883.012 34.0568H883.353L893.24 9.90909H897.444V39H894.149V16.8977H893.865L884.774 39H881.592L872.501 16.8977H872.217V39H868.921V9.90909ZM913.201 39.4545C911.098 39.4545 909.285 38.9905 907.76 38.0625C906.245 37.125 905.076 35.8182 904.252 34.142C903.437 32.4564 903.03 30.4962 903.03 28.2614C903.03 26.0265 903.437 24.0568 904.252 22.3523C905.076 20.6383 906.221 19.303 907.689 18.3466C909.166 17.3807 910.89 16.8977 912.86 16.8977C913.996 16.8977 915.118 17.0871 916.226 17.4659C917.334 17.8447 918.343 18.4602 919.252 19.3125C920.161 20.1553 920.885 21.2727 921.425 22.6648C921.965 24.0568 922.235 25.7708 922.235 27.8068V29.2273H905.416V26.3295H918.826C918.826 25.0985 918.579 24 918.087 23.0341C917.604 22.0682 916.913 21.3059 916.013 20.7472C915.123 20.1884 914.072 19.9091 912.86 19.9091C911.524 19.9091 910.369 20.2405 909.394 20.9034C908.428 21.5568 907.684 22.4091 907.164 23.4602C906.643 24.5114 906.382 25.6383 906.382 26.8409V28.7727C906.382 30.4205 906.666 31.8172 907.235 32.9631C907.812 34.0994 908.612 34.9659 909.635 35.5625C910.658 36.1496 911.846 36.4432 913.201 36.4432C914.081 36.4432 914.877 36.3201 915.587 36.0739C916.307 35.8182 916.927 35.4394 917.448 34.9375C917.969 34.4261 918.371 33.7917 918.655 33.0341L921.894 33.9432C921.553 35.0417 920.98 36.0076 920.175 36.8409C919.37 37.6648 918.376 38.3087 917.192 38.7727C916.008 39.2273 914.678 39.4545 913.201 39.4545ZM927.334 39V17.1818H930.573V20.5909H930.857C931.311 19.4261 932.045 18.5218 933.058 17.8778C934.072 17.2244 935.289 16.8977 936.709 16.8977C938.148 16.8977 939.346 17.2244 940.303 17.8778C941.269 18.5218 942.022 19.4261 942.561 20.5909H942.789C943.347 19.464 944.185 18.5691 945.303 17.9062C946.42 17.2339 947.76 16.8977 949.323 16.8977C951.273 16.8977 952.869 17.5085 954.11 18.7301C955.35 19.9422 955.97 21.8314 955.97 24.3977V39H952.618V24.3977C952.618 22.7879 952.178 21.6373 951.297 20.946C950.416 20.2547 949.38 19.9091 948.186 19.9091C946.652 19.9091 945.464 20.3731 944.621 21.3011C943.778 22.2197 943.357 23.3845 943.357 24.7955V39H939.948V24.0568C939.948 22.8163 939.545 21.8172 938.74 21.0597C937.935 20.2926 936.898 19.9091 935.63 19.9091C934.758 19.9091 933.944 20.1411 933.186 20.6051C932.438 21.0691 931.832 21.7131 931.368 22.5369C930.914 23.3513 930.686 24.2936 930.686 25.3636V39H927.334ZM970.963 39.4545C968.994 39.4545 967.265 38.9858 965.779 38.0483C964.301 37.1108 963.146 35.7992 962.313 34.1136C961.489 32.428 961.077 30.4583 961.077 28.2045C961.077 25.9318 961.489 23.9479 962.313 22.2528C963.146 20.5578 964.301 19.2415 965.779 18.304C967.265 17.3665 968.994 16.8977 970.963 16.8977C972.933 16.8977 974.656 17.3665 976.134 18.304C977.621 19.2415 978.776 20.5578 979.6 22.2528C980.433 23.9479 980.85 25.9318 980.85 28.2045C980.85 30.4583 980.433 32.428 979.6 34.1136C978.776 35.7992 977.621 37.1108 976.134 38.0483C974.656 38.9858 972.933 39.4545 970.963 39.4545ZM970.963 36.4432C972.46 36.4432 973.691 36.0597 974.656 35.2926C975.622 34.5256 976.337 33.517 976.801 32.267C977.265 31.017 977.497 29.6629 977.497 28.2045C977.497 26.7462 977.265 25.3873 976.801 24.1278C976.337 22.8684 975.622 21.8504 974.656 21.0739C973.691 20.2973 972.46 19.9091 970.963 19.9091C969.467 19.9091 968.236 20.2973 967.27 21.0739C966.304 21.8504 965.589 22.8684 965.125 24.1278C964.661 25.3873 964.429 26.7462 964.429 28.2045C964.429 29.6629 964.661 31.017 965.125 32.267C965.589 33.517 966.304 34.5256 967.27 35.2926C968.236 36.0597 969.467 36.4432 970.963 36.4432ZM985.967 39V17.1818H989.205V20.4773H989.433C989.83 19.3977 990.55 18.5218 991.592 17.8494C992.634 17.1771 993.808 16.8409 995.115 16.8409C995.361 16.8409 995.669 16.8456 996.038 16.8551C996.407 16.8646 996.687 16.8788 996.876 16.8977V20.3068C996.762 20.2784 996.502 20.2358 996.095 20.179C995.697 20.1127 995.276 20.0795 994.831 20.0795C993.77 20.0795 992.823 20.3021 991.99 20.7472C991.166 21.1828 990.512 21.7888 990.029 22.5653C989.556 23.3324 989.319 24.2083 989.319 25.1932V39H985.967ZM1003.67 47.1818C1003.1 47.1818 1002.6 47.1345 1002.15 47.0398C1001.71 46.9545 1001.4 46.8693 1001.23 46.7841L1002.08 43.8295C1002.9 44.0379 1003.62 44.1136 1004.24 44.0568C1004.87 44 1005.42 43.7206 1005.9 43.2188C1006.4 42.7263 1006.85 41.9261 1007.25 40.8182L1007.88 39.1136L999.809 17.1818H1003.45L1009.47 34.5682H1009.7L1015.72 17.1818H1019.35L1010.09 42.1818C1009.68 43.3087 1009.16 44.2415 1008.54 44.9801C1007.93 45.7282 1007.21 46.2822 1006.4 46.642C1005.6 47.0019 1004.69 47.1818 1003.67 47.1818Z" fill="white"/>
<path d="M1483.44 144V114.909H1494.92C1497.12 114.909 1499 115.33 1500.56 116.173C1502.11 117.007 1503.29 118.167 1504.11 119.653C1504.93 121.131 1505.34 122.835 1505.34 124.767C1505.34 126.699 1504.93 128.403 1504.09 129.881C1503.26 131.358 1502.05 132.509 1500.47 133.332C1498.9 134.156 1496.99 134.568 1494.76 134.568H1487.44V129.639H1493.77C1494.95 129.639 1495.92 129.436 1496.69 129.028C1497.47 128.612 1498.05 128.039 1498.42 127.31C1498.81 126.571 1499.01 125.723 1499.01 124.767C1499.01 123.801 1498.81 122.958 1498.42 122.239C1498.05 121.509 1497.47 120.946 1496.69 120.548C1495.91 120.141 1494.93 119.938 1493.74 119.938H1489.59V144H1483.44ZM1519.92 144.398C1517.8 144.398 1515.91 144.033 1514.25 143.304C1512.6 142.565 1511.3 141.552 1510.35 140.264C1509.4 138.967 1508.91 137.471 1508.88 135.776H1515.08C1515.11 136.486 1515.35 137.111 1515.77 137.651C1516.21 138.181 1516.78 138.593 1517.5 138.886C1518.22 139.18 1519.03 139.327 1519.93 139.327C1520.87 139.327 1521.7 139.161 1522.42 138.83C1523.14 138.498 1523.7 138.039 1524.11 137.452C1524.52 136.865 1524.72 136.187 1524.72 135.42C1524.72 134.644 1524.5 133.957 1524.07 133.361C1523.64 132.755 1523.03 132.281 1522.22 131.94C1521.43 131.599 1520.48 131.429 1519.38 131.429H1516.67V126.912H1519.38C1520.31 126.912 1521.13 126.751 1521.84 126.429C1522.56 126.107 1523.12 125.662 1523.51 125.094C1523.91 124.516 1524.11 123.844 1524.11 123.077C1524.11 122.348 1523.93 121.708 1523.58 121.159C1523.24 120.6 1522.76 120.165 1522.14 119.852C1521.52 119.54 1520.8 119.384 1519.98 119.384C1519.14 119.384 1518.38 119.535 1517.69 119.838C1517 120.132 1516.44 120.553 1516.03 121.102C1515.61 121.652 1515.39 122.295 1515.36 123.034H1509.46C1509.49 121.358 1509.97 119.881 1510.9 118.602C1511.83 117.324 1513.08 116.325 1514.65 115.605C1516.23 114.876 1518.02 114.511 1520 114.511C1522.01 114.511 1523.77 114.876 1525.27 115.605C1526.78 116.334 1527.95 117.319 1528.78 118.56C1529.63 119.791 1530.04 121.173 1530.03 122.707C1530.04 124.336 1529.54 125.695 1528.51 126.784C1527.5 127.873 1526.18 128.564 1524.55 128.858V129.085C1526.69 129.36 1528.32 130.103 1529.44 131.315C1530.56 132.518 1531.12 134.024 1531.11 135.832C1531.12 137.49 1530.64 138.962 1529.68 140.25C1528.72 141.538 1527.4 142.551 1525.71 143.29C1524.03 144.028 1522.1 144.398 1519.92 144.398ZM1539.13 140.619C1538.19 140.619 1537.39 140.288 1536.71 139.625C1536.05 138.962 1535.72 138.157 1535.72 137.21C1535.72 136.282 1536.05 135.487 1536.71 134.824C1537.39 134.161 1538.19 133.83 1539.13 133.83C1540.04 133.83 1540.83 134.161 1541.51 134.824C1542.2 135.487 1542.54 136.282 1542.54 137.21C1542.54 137.835 1542.38 138.408 1542.05 138.929C1541.74 139.44 1541.33 139.852 1540.82 140.165C1540.31 140.468 1539.74 140.619 1539.13 140.619ZM1539.13 126.344C1538.19 126.344 1537.39 126.012 1536.71 125.349C1536.05 124.687 1535.72 123.882 1535.72 122.935C1535.72 122.007 1536.05 121.216 1536.71 120.562C1537.39 119.9 1538.19 119.568 1539.13 119.568C1540.04 119.568 1540.83 119.9 1541.51 120.562C1542.2 121.216 1542.54 122.007 1542.54 122.935C1542.54 123.569 1542.38 124.147 1542.05 124.668C1541.74 125.179 1541.33 125.586 1540.82 125.889C1540.31 126.192 1539.74 126.344 1539.13 126.344ZM1472.82 162.909V192H1466.67V168.747H1466.5L1459.84 172.923V167.469L1467.04 162.909H1472.82ZM1491.14 192.639C1488.7 192.63 1486.59 192.028 1484.83 190.835C1483.08 189.642 1481.73 187.914 1480.78 185.651C1479.85 183.387 1479.38 180.665 1479.39 177.483C1479.39 174.311 1479.86 171.607 1480.8 169.372C1481.75 167.137 1483.09 165.437 1484.85 164.273C1486.61 163.098 1488.71 162.511 1491.14 162.511C1493.57 162.511 1495.67 163.098 1497.42 164.273C1499.18 165.447 1500.53 167.152 1501.48 169.386C1502.43 171.612 1502.9 174.311 1502.89 177.483C1502.89 180.674 1502.41 183.402 1501.47 185.665C1500.53 187.928 1499.18 189.656 1497.43 190.849C1495.68 192.043 1493.58 192.639 1491.14 192.639ZM1491.14 187.54C1492.81 187.54 1494.14 186.702 1495.13 185.026C1496.13 183.349 1496.62 180.835 1496.61 177.483C1496.61 175.277 1496.38 173.439 1495.93 171.972C1495.48 170.504 1494.85 169.401 1494.02 168.662C1493.21 167.923 1492.25 167.554 1491.14 167.554C1489.48 167.554 1488.16 168.383 1487.16 170.04C1486.17 171.697 1485.67 174.178 1485.66 177.483C1485.66 179.718 1485.88 181.583 1486.32 183.08C1486.78 184.566 1487.42 185.684 1488.24 186.432C1489.07 187.17 1490.03 187.54 1491.14 187.54ZM1516.7 192V162.909H1522.85V175.736H1523.23L1533.7 162.909H1541.08L1530.28 175.935L1541.2 192H1533.85L1525.88 180.04L1522.85 183.733V192H1516.7ZM1544.28 192V162.909H1555.93C1558.07 162.909 1559.85 163.226 1561.28 163.861C1562.71 164.495 1563.79 165.376 1564.51 166.503C1565.23 167.62 1565.59 168.908 1565.59 170.366C1565.59 171.503 1565.36 172.502 1564.9 173.364C1564.45 174.216 1563.82 174.917 1563.03 175.466C1562.24 176.006 1561.34 176.389 1560.33 176.616V176.901C1561.44 176.948 1562.47 177.26 1563.44 177.838C1564.42 178.416 1565.21 179.225 1565.81 180.267C1566.42 181.299 1566.72 182.53 1566.72 183.96C1566.72 185.504 1566.34 186.882 1565.57 188.094C1564.81 189.296 1563.69 190.248 1562.2 190.949C1560.72 191.65 1558.89 192 1556.71 192H1544.28ZM1550.43 186.972H1555.44C1557.16 186.972 1558.41 186.645 1559.19 185.991C1559.98 185.329 1560.37 184.448 1560.37 183.349C1560.37 182.545 1560.18 181.834 1559.79 181.219C1559.4 180.603 1558.85 180.12 1558.13 179.77C1557.42 179.42 1556.57 179.244 1555.59 179.244H1550.43V186.972ZM1550.43 175.082H1554.99C1555.83 175.082 1556.58 174.936 1557.23 174.642C1557.9 174.339 1558.42 173.913 1558.8 173.364C1559.18 172.814 1559.38 172.156 1559.38 171.389C1559.38 170.338 1559 169.491 1558.26 168.847C1557.52 168.203 1556.47 167.881 1555.1 167.881H1550.43V175.082Z" fill="white"/>
</svg>
