<svg xmlns="http://www.w3.org/2000/svg" width="1887" height="229" fill="none" viewBox="0 0 1887 229"><rect width="1885" height="150" x="1" y="78" stroke="#dbdbdb" stroke-width="2" rx="27"/><rect width="356.812" height="150" x="2.059" y="78" fill="#096" stroke="#dbdbdb" stroke-width="2" rx="27"/><path fill="#fb701a" stroke="#dbdbdb" stroke-width="2" d="M1428 105c0-14.912 12.09-27 27-27h115c14.91 0 27 12.088 27 27v96c0 14.912-12.09 27-27 27h-115c-14.91 0-27-12.088-27-27z"/><rect width="560.734" height="150" x="531.453" y="78" fill="#ec003f" stroke="#dbdbdb" stroke-width="2" rx="27"/><path fill="#fff" d="M152.184 144v-29.091h11.478q3.31 0 5.639 1.264 2.33 1.251 3.551 3.48 1.236 2.216 1.236 5.114t-1.25 5.114-3.622 3.451q-2.358 1.236-5.711 1.236h-7.315v-4.929h6.321q1.776 0 2.926-.611 1.165-.624 1.733-1.718.583-1.109.583-2.543 0-1.45-.583-2.528-.568-1.095-1.733-1.691-1.164-.61-2.954-.61h-4.148V144zm38.385-29.091V144h-6.151v-23.253h-.17l-6.662 4.176v-5.454l7.201-4.56zm10.507 25.71a3.32 3.32 0 0 1-2.414-.994q-.995-.995-.995-2.415 0-1.392.995-2.386a3.32 3.32 0 0 1 2.414-.994q1.364 0 2.387.994t1.022 2.386q0 .938-.482 1.719a3.7 3.7 0 0 1-1.236 1.236 3.26 3.26 0 0 1-1.691.454m0-14.275a3.32 3.32 0 0 1-2.414-.995q-.995-.993-.995-2.414 0-1.392.995-2.373a3.32 3.32 0 0 1 2.414-.994q1.364 0 2.387.994 1.022.981 1.022 2.373a3.24 3.24 0 0 1-.482 1.733 3.56 3.56 0 0 1-1.236 1.221 3.26 3.26 0 0 1-1.691.455m-68.046 66.054q-3.012 0-5.37-1.108-2.343-1.108-3.721-3.054t-1.435-4.46h5.966q.1 1.69 1.42 2.741 1.321 1.051 3.14 1.051 1.448 0 2.556-.639a4.57 4.57 0 0 0 1.747-1.804q.64-1.165.64-2.67 0-1.535-.654-2.699a4.6 4.6 0 0 0-1.775-1.818q-1.137-.654-2.6-.668-1.278 0-2.486.525-1.192.526-1.86 1.435l-5.469-.98 1.378-15.341h17.784v5.029h-12.713l-.753 7.286h.17q.768-1.079 2.316-1.789 1.548-.711 3.466-.711 2.628 0 4.687 1.236t3.253 3.395q1.192 2.145 1.179 4.943.014 2.941-1.364 5.228-1.363 2.272-3.821 3.579-2.442 1.293-5.681 1.293m26.562.241q-3.664-.014-6.307-1.804-2.628-1.79-4.048-5.184-1.407-3.395-1.392-8.168 0-4.758 1.406-8.111 1.421-3.353 4.048-5.099 2.643-1.762 6.293-1.762t6.278 1.762q2.643 1.761 4.063 5.113 1.42 3.339 1.406 8.097 0 4.787-1.42 8.182-1.406 3.395-4.034 5.184t-6.293 1.79m0-5.099q2.5 0 3.991-2.514 1.492-2.515 1.478-7.543 0-3.31-.682-5.511-.668-2.202-1.903-3.31a4.15 4.15 0 0 0-2.884-1.108q-2.486 0-3.977 2.486-1.492 2.486-1.506 7.443 0 3.352.668 5.597.681 2.23 1.917 3.352a4.2 4.2 0 0 0 2.898 1.108m25.561 4.46v-29.091h6.151v12.827h.383l10.469-12.827h7.372l-10.795 13.026L209.656 192h-7.358l-7.969-11.96-3.025 3.693V192zm27.578 0v-29.091h11.648q3.21 0 5.355.952 2.145.951 3.224 2.642 1.08 1.676 1.08 3.863 0 1.705-.682 2.998a5.9 5.9 0 0 1-1.875 2.102q-1.178.81-2.699 1.15v.285a6.5 6.5 0 0 1 3.111.937q1.463.867 2.372 2.429.909 1.548.909 3.693 0 2.316-1.15 4.134-1.137 1.803-3.367 2.855-2.23 1.051-5.497 1.051zm6.151-5.028h5.014q2.571 0 3.75-.981 1.179-.993 1.179-2.642 0-1.207-.582-2.13-.584-.924-1.662-1.449-1.066-.526-2.543-.526h-5.156zm0-11.89h4.559q1.264 0 2.245-.44.994-.454 1.562-1.278.583-.825.583-1.975 0-1.576-1.123-2.542-1.107-.966-3.153-.966h-4.673zM1225.15 171.398q-3.015 0-5.37-1.108-2.34-1.109-3.72-3.054c-.92-1.298-1.4-2.784-1.43-4.46h5.96c.07 1.126.54 2.04 1.42 2.741s1.93 1.051 3.14 1.051c.97 0 1.82-.213 2.56-.639a4.5 4.5 0 0 0 1.74-1.804c.43-.777.64-1.667.64-2.67 0-1.023-.21-1.923-.65-2.699a4.63 4.63 0 0 0-1.78-1.818c-.75-.436-1.62-.659-2.59-.668q-1.29 0-2.49.525-1.2.526-1.86 1.435l-5.47-.98 1.38-15.341h17.78v5.029h-12.71l-.75 7.286h.17q.765-1.079 2.31-1.789c1.03-.474 2.19-.711 3.47-.711 1.75 0 3.31.412 4.69 1.236 1.37.824 2.45 1.956 3.25 3.395.79 1.43 1.19 3.078 1.18 4.943.01 1.961-.45 3.703-1.37 5.228-.91 1.515-2.18 2.708-3.82 3.579-1.63.862-3.52 1.293-5.68 1.293m26.56.241q-3.66-.014-6.3-1.804c-1.76-1.193-3.1-2.921-4.05-5.184-.94-2.264-1.4-4.986-1.39-8.168 0-3.172.46-5.876 1.4-8.111q1.425-3.353 4.05-5.099c1.76-1.175 3.86-1.762 6.29-1.762 2.44 0 4.53.587 6.28 1.762 1.76 1.174 3.12 2.879 4.06 5.113q1.425 3.339 1.41 8.097c0 3.191-.47 5.919-1.42 8.182-.94 2.263-2.28 3.991-4.03 5.184-1.76 1.194-3.85 1.79-6.3 1.79m0-5.099q2.505 0 3.99-2.514c1-1.677 1.49-4.191 1.48-7.543 0-2.206-.23-4.044-.68-5.511-.44-1.468-1.08-2.571-1.9-3.31a4.17 4.17 0 0 0-2.89-1.108c-1.65 0-2.98.829-3.97 2.486-1 1.657-1.5 4.138-1.51 7.443 0 2.235.22 4.1.67 5.597q.675 2.23 1.92 3.352a4.2 4.2 0 0 0 2.89 1.108m25.56 4.46v-29.091h6.15v12.827h.39l10.47-12.827h7.37l-10.8 13.026L1301.78 171h-7.36l-7.97-11.96-3.03 3.693V171zm27.58 0v-29.091h11.65c2.14 0 3.93.317 5.36.952 1.43.634 2.5 1.515 3.22 2.642q1.08 1.676 1.08 3.863c0 1.137-.23 2.136-.68 2.998a5.9 5.9 0 0 1-1.88 2.102q-1.17.81-2.7 1.15v.285c1.11.047 2.15.359 3.11.937.98.578 1.77 1.387 2.38 2.429.6 1.032.91 2.263.91 3.693 0 1.544-.39 2.922-1.15 4.134-.76 1.202-1.88 2.154-3.37 2.855s-3.32 1.051-5.5 1.051zm6.15-5.028h5.02q2.565 0 3.75-.981c.78-.662 1.18-1.543 1.18-2.642 0-.804-.2-1.515-.59-2.13-.38-.616-.94-1.099-1.66-1.449-.71-.35-1.56-.526-2.54-.526H1311zm0-11.89h4.56c.85 0 1.59-.146 2.25-.44q.99-.455 1.56-1.278c.39-.55.58-1.208.58-1.975 0-1.051-.37-1.898-1.12-2.542q-1.11-.966-3.15-.966H1311zM1683.42 165.886v-4.843l12.15-19.134h4.17v6.705h-2.47l-7.66 12.116v.227h17.26v4.929zm13.96 5.114v-6.591l.12-2.145v-20.355h5.77V171zm25 .639c-2.45-.009-4.55-.611-6.31-1.804q-2.625-1.79-4.05-5.184c-.94-2.264-1.4-4.986-1.39-8.168q0-4.758 1.41-8.111c.94-2.235 2.29-3.935 4.04-5.099 1.77-1.175 3.86-1.762 6.3-1.762 2.43 0 4.52.587 6.28 1.762 1.76 1.174 3.11 2.879 4.06 5.113.95 2.226 1.41 4.925 1.4 8.097 0 3.191-.47 5.919-1.42 8.182-.93 2.263-2.28 3.991-4.03 5.184s-3.85 1.79-6.29 1.79m0-5.099q2.49 0 3.99-2.514c.99-1.677 1.49-4.191 1.48-7.543q0-3.31-.69-5.511c-.44-1.468-1.08-2.571-1.9-3.31q-1.215-1.108-2.88-1.108c-1.66 0-2.99.829-3.98 2.486s-1.5 4.138-1.51 7.443c0 2.235.23 4.1.67 5.597q.69 2.23 1.92 3.352a4.2 4.2 0 0 0 2.9 1.108m25.56 4.46v-29.091h6.15v12.827h.38l10.47-12.827h7.37l-10.79 13.026L1772.44 171h-7.36l-7.97-11.96-3.02 3.693V171zm27.58 0v-29.091h11.64c2.14 0 3.93.317 5.36.952 1.43.634 2.5 1.515 3.22 2.642q1.08 1.676 1.08 3.863c0 1.137-.22 2.136-.68 2.998a5.9 5.9 0 0 1-1.87 2.102 7.7 7.7 0 0 1-2.7 1.15v.285a6.5 6.5 0 0 1 3.11.937q1.455.867 2.37 2.429c.61 1.032.91 2.263.91 3.693 0 1.544-.38 2.922-1.15 4.134-.76 1.202-1.88 2.154-3.37 2.855-1.48.701-3.32 1.051-5.49 1.051zm6.15-5.028h5.01q2.58 0 3.75-.981c.79-.662 1.18-1.543 1.18-2.642 0-.804-.19-1.515-.58-2.13-.39-.616-.94-1.099-1.66-1.449q-1.065-.526-2.55-.526h-5.15zm0-11.89h4.56c.84 0 1.59-.146 2.24-.44q.99-.455 1.56-1.278c.39-.55.59-1.208.59-1.975 0-1.051-.38-1.898-1.13-2.542-.73-.644-1.79-.966-3.15-.966h-4.67zM780.939 144v-29.091h11.478q3.31 0 5.639 1.264 2.33 1.251 3.551 3.48 1.236 2.216 1.236 5.114t-1.25 5.114-3.622 3.451q-2.358 1.236-5.711 1.236h-7.315v-4.929h6.321q1.776 0 2.926-.611 1.165-.624 1.733-1.718.582-1.109.583-2.543 0-1.45-.583-2.528-.568-1.095-1.733-1.691-1.164-.61-2.954-.61h-4.148V144zm25.728 0v-4.432l10.355-9.588a39 39 0 0 0 2.216-2.301q.91-1.023 1.378-2.003a4.96 4.96 0 0 0 .469-2.145q0-1.278-.582-2.201a3.83 3.83 0 0 0-1.591-1.435q-1.01-.511-2.287-.511-1.335 0-2.33.539a3.7 3.7 0 0 0-1.534 1.549q-.54 1.008-.54 2.4h-5.838q0-2.855 1.293-4.957 1.293-2.103 3.622-3.253 2.33-1.15 5.369-1.151 3.125 0 5.441 1.108 2.33 1.094 3.622 3.04 1.293 1.946 1.292 4.46a8.6 8.6 0 0 1-.653 3.253q-.639 1.605-2.287 3.566-1.647 1.946-4.645 4.673l-4.247 4.162v.199h12.216V144zm28.789-3.381a3.32 3.32 0 0 1-2.414-.994q-.995-.995-.995-2.415 0-1.392.995-2.386a3.32 3.32 0 0 1 2.414-.994q1.364 0 2.387.994t1.022 2.386q0 .938-.482 1.719a3.7 3.7 0 0 1-1.236 1.236 3.26 3.26 0 0 1-1.691.454m0-14.275a3.32 3.32 0 0 1-2.414-.995q-.995-.993-.995-2.414 0-1.392.995-2.373a3.32 3.32 0 0 1 2.414-.994q1.364 0 2.387.994 1.023.981 1.022 2.373a3.24 3.24 0 0 1-.482 1.733 3.56 3.56 0 0 1-1.236 1.221 3.26 3.26 0 0 1-1.691.455m-70.964 66.054q-3.28 0-5.838-1.066-2.542-1.079-3.991-2.94a6.7 6.7 0 0 1-1.449-4.219q0-1.818.824-3.338a7.4 7.4 0 0 1 2.272-2.542 7.5 7.5 0 0 1 3.211-1.307v-.199q-2.33-.469-3.779-2.259-1.449-1.803-1.449-4.19 0-2.259 1.321-4.02 1.321-1.776 3.623-2.784 2.315-1.023 5.255-1.023t5.242 1.023q2.315 1.023 3.636 2.798 1.322 1.762 1.335 4.006-.014 2.4-1.477 4.19-1.462 1.79-3.75 2.259v.199a7.4 7.4 0 0 1 3.168 1.307 7.4 7.4 0 0 1 2.272 2.542q.853 1.52.867 3.338a6.76 6.76 0 0 1-1.463 4.219q-1.449 1.861-4.006 2.94-2.542 1.066-5.824 1.066m0-4.517q1.464 0 2.557-.526 1.093-.54 1.705-1.477.625-.952.625-2.188 0-1.264-.64-2.23a4.4 4.4 0 0 0-1.733-1.534q-1.094-.568-2.514-.568-1.406 0-2.514.568a4.37 4.37 0 0 0-1.747 1.534q-.625.967-.625 2.23 0 1.236.611 2.188.61.937 1.718 1.477 1.108.526 2.557.526m0-12.997q1.222 0 2.174-.498a3.74 3.74 0 0 0 1.491-1.377q.54-.882.54-2.032 0-1.136-.54-1.988a3.7 3.7 0 0 0-1.477-1.35q-.937-.497-2.188-.497-1.236 0-2.187.497a3.7 3.7 0 0 0-1.492 1.35q-.525.852-.525 1.988 0 1.15.539 2.032.54.88 1.492 1.377.952.498 2.173.498m27 17.755q-3.666-.014-6.307-1.804-2.628-1.79-4.049-5.184-1.406-3.395-1.392-8.168 0-4.758 1.407-8.111 1.42-3.353 4.048-5.099 2.642-1.762 6.293-1.762 3.65 0 6.278 1.762 2.641 1.761 4.062 5.113 1.42 3.339 1.407 8.097 0 4.787-1.421 8.182-1.406 3.395-4.034 5.184t-6.292 1.79m0-5.099q2.5 0 3.991-2.514 1.492-2.515 1.477-7.543 0-3.31-.682-5.511-.667-2.202-1.903-3.31-1.222-1.108-2.883-1.108-2.486 0-3.978 2.486t-1.505 7.443q0 3.352.667 5.597.682 2.23 1.918 3.352a4.2 4.2 0 0 0 2.898 1.108m25.561 4.46v-29.091h6.15v12.827h.384l10.468-12.827h7.373l-10.796 13.026L841.555 192h-7.358l-7.968-11.96-3.026 3.693V192zm27.578 0v-29.091h11.647q3.211 0 5.356.952 2.144.951 3.224 2.642 1.08 1.676 1.08 3.863 0 1.705-.682 2.998a5.9 5.9 0 0 1-1.875 2.102q-1.18.81-2.699 1.15v.285a6.5 6.5 0 0 1 3.111.937q1.463.867 2.372 2.429.909 1.548.909 3.693 0 2.316-1.151 4.134-1.135 1.803-3.366 2.855-2.23 1.051-5.497 1.051zm6.15-5.028h5.015q2.571 0 3.75-.981 1.178-.993 1.178-2.642 0-1.207-.582-2.13-.582-.924-1.662-1.449-1.066-.526-2.542-.526h-5.157zm0-11.89h4.56q1.264 0 2.244-.44.994-.454 1.563-1.278.582-.825.582-1.975 0-1.576-1.122-2.542-1.109-.966-3.153-.966h-4.674zM389.512 171v-4.432l10.355-9.588a39 39 0 0 0 2.216-2.301q.909-1.023 1.378-2.003a5 5 0 0 0 .469-2.145q0-1.278-.583-2.201a3.8 3.8 0 0 0-1.591-1.435q-1.008-.511-2.287-.511-1.335 0-2.329.539a3.7 3.7 0 0 0-1.534 1.549q-.54 1.008-.54 2.4h-5.838q0-2.855 1.292-4.957 1.293-2.103 3.623-3.253t5.369-1.151q3.125 0 5.44 1.108 2.33 1.094 3.622 3.04 1.293 1.946 1.293 4.46a8.6 8.6 0 0 1-.653 3.253q-.64 1.605-2.287 3.566-1.648 1.946-4.645 4.673l-4.247 4.162v.199h12.216V171zm36.601.639q-3.665-.014-6.306-1.804-2.628-1.79-4.049-5.184-1.406-3.395-1.392-8.168 0-4.758 1.407-8.111 1.42-3.353 4.048-5.099 2.642-1.762 6.292-1.762t6.279 1.762q2.642 1.761 4.062 5.113 1.42 3.339 1.407 8.097 0 4.787-1.421 8.182-1.406 3.395-4.034 5.184-2.627 1.79-6.293 1.79m0-5.099q2.5 0 3.992-2.514 1.491-2.515 1.477-7.543 0-3.31-.682-5.511-.667-2.202-1.903-3.31-1.222-1.108-2.884-1.108-2.485 0-3.977 2.486t-1.505 7.443q0 3.352.667 5.597.682 2.23 1.918 3.352a4.2 4.2 0 0 0 2.897 1.108m25.562 4.46v-29.091h6.15v12.827h.384l10.468-12.827h7.373l-10.796 13.026L476.177 171h-7.358l-7.968-11.96-3.026 3.693V171zm27.578 0v-29.091H490.9q3.211 0 5.356.952 2.144.951 3.224 2.642 1.08 1.676 1.08 3.863 0 1.705-.682 2.998a5.9 5.9 0 0 1-1.875 2.102q-1.18.81-2.699 1.15v.285a6.5 6.5 0 0 1 3.111.937q1.463.867 2.372 2.429.909 1.548.909 3.693 0 2.316-1.151 4.134-1.136 1.803-3.366 2.855-2.23 1.051-5.497 1.051zm6.15-5.028h5.014q2.571 0 3.75-.981 1.179-.993 1.179-2.642 0-1.207-.582-2.13-.582-.924-1.662-1.449-1.065-.526-2.542-.526h-5.157zm0-11.89h4.56q1.264 0 2.244-.44.995-.455 1.563-1.278.582-.825.582-1.975 0-1.576-1.122-2.542-1.108-.966-3.153-.966h-4.674zM868.921 9.91h4.205l9.886 24.147h.341l9.887-24.148h4.204V39h-3.295V16.898h-.284L884.774 39h-3.182l-9.091-22.102h-.284V39h-3.296zm44.28 29.545q-3.154 0-5.441-1.392-2.272-1.407-3.508-3.921-1.222-2.529-1.222-5.88 0-3.353 1.222-5.91 1.236-2.571 3.437-4.005 2.216-1.45 5.171-1.45 1.704 0 3.366.569 1.662.568 3.026 1.846 1.363 1.264 2.173 3.353.81 2.088.81 5.142v1.42h-16.819V26.33h13.41q0-1.846-.739-3.295a5.56 5.56 0 0 0-2.074-2.287q-1.335-.838-3.153-.838-2.004 0-3.466.994a6.53 6.53 0 0 0-2.23 2.557 7.5 7.5 0 0 0-.782 3.38v1.933q0 2.472.853 4.19.865 1.704 2.4 2.6 1.534.88 3.566.88 1.32 0 2.386-.37a5.1 5.1 0 0 0 1.861-1.136q.781-.766 1.207-1.903l3.239.91a7.2 7.2 0 0 1-1.719 2.897q-1.207 1.236-2.983 1.932-1.776.681-3.991.681M927.334 39V17.182h3.239v3.409h.284q.681-1.748 2.201-2.713 1.521-.98 3.651-.98 2.158 0 3.594.98 1.45.966 2.258 2.713h.228q.837-1.69 2.514-2.685 1.675-1.008 4.02-1.008 2.925 0 4.787 1.832 1.86 1.818 1.86 5.668V39h-3.352V24.398q0-2.414-1.321-3.452t-3.111-1.037q-2.3 0-3.565 1.392-1.264 1.378-1.264 3.495V39h-3.409V24.057q0-1.86-1.208-2.997-1.208-1.15-3.11-1.15-1.308 0-2.444.695-1.122.696-1.818 1.932-.682 1.221-.682 2.827V39zm43.629.455q-2.954 0-5.184-1.407-2.217-1.406-3.466-3.934-1.236-2.529-1.236-5.91 0-3.408 1.236-5.951 1.25-2.543 3.466-3.949 2.23-1.406 5.184-1.406t5.171 1.406q2.23 1.407 3.466 3.949 1.25 2.543 1.25 5.951 0 3.381-1.25 5.91-1.236 2.528-3.466 3.934-2.216 1.407-5.171 1.407m0-3.012q2.245 0 3.693-1.15 1.449-1.15 2.145-3.026t.696-4.063-.696-4.076-2.145-3.054q-1.447-1.165-3.693-1.165-2.244 0-3.693 1.165-1.449 1.164-2.145 3.054t-.696 4.076q0 2.188.696 4.063t2.145 3.026q1.449 1.15 3.693 1.15M985.967 39V17.182h3.238v3.295h.228q.596-1.62 2.159-2.628t3.523-1.008q.37 0 .923.014.554.015.838.043v3.409a10 10 0 0 0-.781-.128 7.7 7.7 0 0 0-1.264-.1q-1.592 0-2.841.668a5.04 5.04 0 0 0-1.961 1.818q-.71 1.15-.71 2.628V39zm17.703 8.182c-.57 0-1.07-.047-1.52-.142-.44-.085-.75-.17-.92-.256l.85-2.954q1.23.312 2.16.227c.63-.057 1.18-.336 1.66-.838q.75-.74 1.35-2.4l.63-1.705-8.071-21.932h3.641l6.02 17.386h.23l6.02-17.386h3.63l-9.26 25c-.41 1.127-.93 2.06-1.55 2.798a5.8 5.8 0 0 1-2.14 1.662q-1.2.54-2.73.54M1483.44 144v-29.091h11.48q3.3 0 5.64 1.264c1.55.834 2.73 1.994 3.55 3.48q1.23 2.216 1.23 5.114c0 1.932-.41 3.636-1.25 5.114-.83 1.477-2.04 2.628-3.62 3.451-1.57.824-3.48 1.236-5.71 1.236h-7.32v-4.929h6.33c1.18 0 2.15-.203 2.92-.611.78-.416 1.36-.989 1.73-1.718.39-.739.59-1.587.59-2.543 0-.966-.2-1.809-.59-2.528-.37-.73-.95-1.293-1.73-1.691-.78-.407-1.76-.61-2.95-.61h-4.15V144zm36.48.398q-3.18 0-5.67-1.094-2.475-1.108-3.9-3.04-1.425-1.945-1.47-4.488h6.2c.03.71.27 1.335.69 1.875.44.53 1.01.942 1.73 1.235q1.08.441 2.43.441 1.41 0 2.49-.497c.72-.332 1.28-.791 1.69-1.378s.61-1.265.61-2.032c0-.776-.22-1.463-.65-2.059-.43-.606-1.04-1.08-1.85-1.421-.79-.341-1.74-.511-2.84-.511h-2.71v-4.517h2.71q1.395 0 2.46-.483c.72-.322 1.28-.767 1.67-1.335q.6-.867.6-2.017c0-.729-.18-1.369-.53-1.918a3.47 3.47 0 0 0-1.44-1.307q-.93-.468-2.16-.468c-.84 0-1.6.151-2.29.454-.69.294-1.25.715-1.66 1.264-.42.55-.64 1.193-.67 1.932h-5.9q.045-2.514 1.44-4.432 1.395-1.917 3.75-2.997c1.58-.729 3.37-1.094 5.35-1.094 2.01 0 3.77.365 5.27 1.094q2.265 1.093 3.51 2.955c.85 1.231 1.26 2.613 1.25 4.147.01 1.629-.49 2.988-1.52 4.077q-1.515 1.633-3.96 2.074v.227q3.21.412 4.89 2.23c1.12 1.203 1.68 2.709 1.67 4.517.01 1.658-.47 3.13-1.43 4.418s-2.28 2.301-3.97 3.04q-2.52 1.107-5.79 1.108m19.21-3.779c-.94 0-1.74-.331-2.42-.994q-.99-.995-.99-2.415 0-1.392.99-2.386c.68-.663 1.48-.994 2.42-.994.91 0 1.7.331 2.38.994.69.663 1.03 1.458 1.03 2.386 0 .625-.16 1.198-.49 1.719q-.465.767-1.23 1.236c-.51.303-1.08.454-1.69.454m0-14.275c-.94 0-1.74-.332-2.42-.995q-.99-.993-.99-2.414 0-1.392.99-2.373c.68-.662 1.48-.994 2.42-.994.91 0 1.7.332 2.38.994.69.654 1.03 1.445 1.03 2.373a3.17 3.17 0 0 1-.49 1.733q-.465.767-1.23 1.221c-.51.303-1.08.455-1.69.455m-66.31 36.565V192h-6.15v-23.253h-.17l-6.66 4.176v-5.454l7.2-4.56zm18.32 29.73c-2.44-.009-4.55-.611-6.31-1.804q-2.625-1.79-4.05-5.184c-.93-2.264-1.4-4.986-1.39-8.168q0-4.758 1.41-8.111c.95-2.235 2.29-3.935 4.05-5.099 1.76-1.175 3.86-1.762 6.29-1.762s4.53.587 6.28 1.762c1.76 1.174 3.11 2.879 4.06 5.113q1.425 3.339 1.41 8.097c0 3.191-.48 5.919-1.42 8.182s-2.29 3.991-4.04 5.184-3.85 1.79-6.29 1.79m0-5.099q2.505 0 3.99-2.514c1-1.677 1.49-4.191 1.48-7.543 0-2.206-.23-4.044-.68-5.511s-1.08-2.571-1.91-3.31q-1.215-1.108-2.88-1.108c-1.66 0-2.98.829-3.98 2.486q-1.485 2.486-1.5 7.443 0 3.352.66 5.597.69 2.23 1.92 3.352c.83.738 1.79 1.108 2.9 1.108m25.56 4.46v-29.091h6.15v12.827h.38l10.47-12.827h7.38l-10.8 13.026L1541.2 192h-7.35l-7.97-11.96-3.03 3.693V192zm27.58 0v-29.091h11.65c2.14 0 3.92.317 5.35.952 1.43.634 2.51 1.515 3.23 2.642q1.08 1.676 1.08 3.863 0 1.705-.69 2.998a5.9 5.9 0 0 1-1.87 2.102 7.7 7.7 0 0 1-2.7 1.15v.285a6.5 6.5 0 0 1 3.11.937q1.47.867 2.37 2.429c.61 1.032.91 2.263.91 3.693 0 1.544-.38 2.922-1.15 4.134-.76 1.202-1.88 2.154-3.37 2.855q-2.22 1.051-5.49 1.051zm6.15-5.028h5.01q2.58 0 3.75-.981c.79-.662 1.18-1.543 1.18-2.642 0-.804-.19-1.515-.58-2.13-.39-.616-.94-1.099-1.66-1.449-.71-.35-1.56-.526-2.54-.526h-5.16zm0-11.89h4.56c.84 0 1.59-.146 2.24-.44.67-.303 1.19-.729 1.57-1.278.38-.55.58-1.208.58-1.975 0-1.051-.38-1.898-1.12-2.542s-1.79-.966-3.16-.966h-4.67z"/></svg>