<svg xmlns="http://www.w3.org/2000/svg" width="1068" height="224" fill="none" viewBox="0 0 1068 224"><path fill="#fff" d="M433.251 26.094h-6.222q-.171-1.208-.696-2.145a5.5 5.5 0 0 0-1.349-1.62 6 6 0 0 0-1.904-1.022 7.3 7.3 0 0 0-2.315-.355q-2.258 0-3.935 1.122-1.676 1.108-2.599 3.238-.923 2.117-.923 5.142 0 3.111.923 5.228.938 2.115 2.613 3.196 1.677 1.08 3.878 1.08 1.236 0 2.287-.327a6 6 0 0 0 1.889-.952 5.5 5.5 0 0 0 1.364-1.548 6 6 0 0 0 .767-2.074l6.222.028a11.3 11.3 0 0 1-1.208 3.864 11.6 11.6 0 0 1-2.571 3.31q-1.605 1.448-3.835 2.3-2.216.84-5.014.839-3.893 0-6.96-1.762-3.054-1.761-4.83-5.1-1.761-3.337-1.761-8.082 0-4.757 1.79-8.096 1.79-3.337 4.857-5.085 3.069-1.761 6.904-1.762 2.528 0 4.687.71 2.173.71 3.85 2.075 1.675 1.349 2.727 3.31 1.065 1.959 1.364 4.488m14.155 19.332q-3.31 0-5.725-1.406-2.4-1.42-3.707-3.949-1.307-2.543-1.307-5.895 0-3.38 1.307-5.909 1.307-2.542 3.707-3.949 2.415-1.42 5.725-1.42t5.71 1.42q2.415 1.407 3.721 3.949 1.308 2.528 1.307 5.91 0 3.351-1.307 5.894-1.306 2.529-3.721 3.949-2.401 1.406-5.71 1.406m.028-4.687q1.506 0 2.514-.853 1.009-.866 1.52-2.358.526-1.49.526-3.395 0-1.902-.526-3.394-.511-1.492-1.52-2.358t-2.514-.867q-1.52 0-2.557.867-1.023.866-1.548 2.358-.512 1.492-.512 3.394 0 1.904.512 3.395.525 1.492 1.548 2.358 1.037.853 2.557.853m20.696-24.83V45h-6.051V15.91zm14.705 29.517q-3.309 0-5.724-1.406-2.4-1.42-3.708-3.949-1.306-2.543-1.306-5.895 0-3.38 1.306-5.909 1.307-2.542 3.708-3.949 2.415-1.42 5.724-1.42t5.71 1.42q2.415 1.407 3.722 3.949 1.307 2.528 1.307 5.91 0 3.351-1.307 5.894-1.307 2.529-3.722 3.949-2.4 1.406-5.71 1.406m.029-4.687q1.505 0 2.514-.853 1.008-.866 1.52-2.358.525-1.49.525-3.395 0-1.902-.525-3.394-.512-1.492-1.52-2.358-1.01-.867-2.514-.867-1.52 0-2.557.867-1.023.866-1.548 2.358-.512 1.492-.512 3.394 0 1.904.512 3.395.525 1.492 1.548 2.358 1.036.853 2.557.853M497.509 45V23.182h5.866v3.807h.227q.597-2.032 2.003-3.068 1.406-1.052 3.239-1.052.454 0 .98.057.525.057.923.156v5.37a8 8 0 0 0-1.179-.228q-.753-.099-1.378-.099-1.335 0-2.386.582a4.3 4.3 0 0 0-1.648 1.591q-.596 1.023-.596 2.358V45zm25.294.426q-3.366 0-5.795-1.364-2.415-1.377-3.722-3.892-1.307-2.527-1.307-5.98 0-3.366 1.307-5.909t3.679-3.963q2.387-1.42 5.597-1.42 2.159 0 4.02.696a8.9 8.9 0 0 1 3.267 2.06q1.405 1.377 2.187 3.465.781 2.074.781 4.858v1.662h-18.423v-3.75h12.727q0-1.307-.568-2.315a4.07 4.07 0 0 0-1.576-1.577q-.994-.582-2.316-.582-1.377 0-2.443.639-1.051.625-1.648 1.69a4.8 4.8 0 0 0-.61 2.344v3.565q0 1.62.596 2.799.61 1.179 1.719 1.818 1.107.64 2.628.64 1.009 0 1.846-.285a3.8 3.8 0 0 0 1.435-.852q.597-.57.909-1.392l5.597.369a7.64 7.64 0 0 1-1.748 3.523q-1.307 1.49-3.38 2.33-2.06.823-4.759.823m22.003-.07q-2.486 0-4.503-1.28-2.003-1.291-3.182-3.792-1.164-2.514-1.164-6.165 0-3.75 1.207-6.235 1.207-2.5 3.21-3.736a8.23 8.23 0 0 1 4.418-1.25q1.832 0 3.054.625 1.236.61 1.989 1.534.766.91 1.164 1.79h.185V15.909h6.037V45h-5.966v-3.494h-.256a7.8 7.8 0 0 1-1.207 1.804q-.767.88-2.003 1.463-1.221.582-2.983.582m1.918-4.816q1.463 0 2.471-.796 1.023-.81 1.563-2.258.554-1.45.554-3.395t-.54-3.38-1.562-2.217-2.486-.78q-1.492 0-2.514.809-1.023.81-1.549 2.244-.525 1.435-.525 3.324 0 1.904.525 3.366.54 1.45 1.549 2.273 1.022.81 2.514.81M571.567 45V15.91h11.648q3.21 0 5.355.95 2.145.953 3.225 2.643 1.079 1.676 1.079 3.863 0 1.705-.682 2.998a5.9 5.9 0 0 1-1.875 2.102q-1.179.81-2.698 1.15v.285a6.5 6.5 0 0 1 3.11.937q1.464.866 2.373 2.429.909 1.548.909 3.693 0 2.316-1.151 4.134-1.136 1.803-3.366 2.855-2.23 1.05-5.498 1.051zm6.151-5.028h5.014q2.571 0 3.75-.98 1.179-.994 1.179-2.643 0-1.207-.582-2.13-.582-.924-1.662-1.45-1.065-.525-2.543-.525h-5.156zm0-11.89h4.56q1.264 0 2.244-.44.995-.455 1.563-1.278.582-.825.582-1.975 0-1.576-1.122-2.542-1.108-.966-3.154-.966h-4.673zm26.403 17.33q-2.088 0-3.722-.724-1.634-.739-2.585-2.174-.938-1.449-.938-3.608 0-1.818.668-3.054a5.4 5.4 0 0 1 1.818-1.988 8.8 8.8 0 0 1 2.614-1.137 20 20 0 0 1 3.096-.54 79 79 0 0 0 3.069-.369q1.164-.184 1.69-.54.525-.355.526-1.05v-.086q0-1.35-.853-2.088-.837-.739-2.386-.739-1.634 0-2.6.725-.965.71-1.278 1.79l-5.597-.455q.427-1.99 1.677-3.437 1.25-1.464 3.224-2.245 1.989-.795 4.602-.795 1.818 0 3.48.426 1.677.426 2.969 1.32a6.4 6.4 0 0 1 2.06 2.302q.753 1.392.753 3.338V45h-5.739v-3.026h-.17a6.2 6.2 0 0 1-1.407 1.804q-.88.767-2.116 1.208-1.236.426-2.855.426m1.733-4.176q1.335 0 2.358-.526a4.2 4.2 0 0 0 1.605-1.449q.582-.909.582-2.06v-2.315q-.284.185-.781.341-.483.142-1.094.27a55 55 0 0 1-1.221.213l-1.108.157q-1.066.156-1.861.497t-1.236.923q-.44.568-.44 1.42 0 1.236.895 1.89.909.639 2.301.639m21.299-25.327V45h-6.051V15.91zm10.899 0V45h-6.051V15.91zm23.001 13.494-5.54.341a2.9 2.9 0 0 0-.611-1.278 3.24 3.24 0 0 0-1.236-.923q-.753-.355-1.804-.355-1.406 0-2.372.596-.966.583-.966 1.563 0 .78.625 1.32t2.145.867l3.949.796q3.182.653 4.744 2.102 1.563 1.449 1.563 3.807 0 2.145-1.264 3.764-1.251 1.62-3.438 2.528-2.173.895-5.014.895-4.332 0-6.904-1.804-2.556-1.818-2.997-4.943l5.952-.312q.27 1.32 1.307 2.017 1.036.681 2.656.681 1.591 0 2.557-.61.98-.625.994-1.606-.013-.824-.696-1.349-.681-.54-2.102-.824l-3.779-.753q-3.195-.64-4.758-2.216-1.548-1.575-1.548-4.02 0-2.101 1.136-3.622 1.15-1.52 3.224-2.343 2.088-.825 4.887-.824 4.133 0 6.505 1.747 2.386 1.747 2.785 4.758"/><circle cx="194" cy="166" r="58" fill="#50b7eb"/><circle cx="738" cy="166" r="58" fill="#50b7eb"/><circle cx="1010" cy="166" r="58" fill="#50b7eb"/><circle cx="58" cy="166" r="58" fill="#90eb50"/><circle cx="602" cy="166" r="58" fill="#90eb50"/><circle cx="874" cy="166" r="58" fill="#e350eb"/><circle cx="466" cy="166" r="58" fill="#e350eb"/><circle cx="330" cy="166" r="58" fill="#eba650"/></svg>