<svg xmlns="http://www.w3.org/2000/svg" width="841" height="909" fill="none" viewBox="0 0 841 909"><rect width="839" height="120" x="1" y="614" stroke="#dbdbdb" stroke-width="2" rx="26"/><rect width="839" height="120" x="1" y="788" stroke="#dbdbdb" stroke-width="2" rx="26"/><rect width="839" height="120" x="1" y="440" stroke="#dbdbdb" stroke-width="2" rx="26"/><rect width="839" height="120" x="1" y="266" stroke="#dbdbdb" stroke-width="2" rx="26"/><rect width="839" height="120" x="1" y="92" stroke="#dbdbdb" stroke-width="2" rx="26"/><path stroke="#dbdbdb" stroke-width="2" d="M121 613v122M121 787v122M121 439v122M121 265v122M121 91v122M241 613v122M241 787v122M241 439v122M241 265v122M241 91v122M362 613v122M362 787v122M362 439v122M362 265v122M362 91v122M482 613v122M482 787v122M482 439v122M482 265v122M482 91v122M602 613v122M602 787v122M602 439v122M602 265v122M602 91v122M722 613v122M722 787v122M722 439v122M722 265v122M722 91v122"/><path fill="#fff" d="M63.442 658.909V688h-3.523v-25.398h-.17l-7.103 4.716v-3.579l7.273-4.83zM63.442 832.909V862h-3.523v-25.398h-.17l-7.103 4.716v-3.579l7.273-4.83zM63.442 484.909V514h-3.523v-25.398h-.17l-7.103 4.716v-3.579l7.273-4.83zM63.442 310.909V340h-3.523v-25.398h-.17l-7.103 4.716v-3.579l7.273-4.83zM63.442 136.909V166h-3.523v-25.398h-.17l-7.103 4.716v-3.579l7.273-4.83zM170.402 688v-2.557l9.602-10.511a67 67 0 0 0 2.784-3.21q1.094-1.378 1.62-2.586a6.25 6.25 0 0 0 .539-2.556q0-1.535-.738-2.657-.724-1.122-1.989-1.733-1.264-.61-2.841-.61-1.676 0-2.926.696a4.8 4.8 0 0 0-1.917 1.917q-.668 1.236-.668 2.898h-3.352q0-2.557 1.179-4.489a8.2 8.2 0 0 1 3.21-3.011q2.045-1.08 4.588-1.08 2.557 0 4.531 1.08t3.097 2.912 1.122 4.077q0 1.605-.582 3.139-.569 1.52-1.989 3.395-1.407 1.86-3.906 4.545l-6.534 6.989v.227h13.522V688zM170.402 862v-2.557l9.602-10.511a67 67 0 0 0 2.784-3.21q1.094-1.378 1.62-2.586a6.25 6.25 0 0 0 .539-2.556q0-1.535-.738-2.657-.724-1.122-1.989-1.733-1.264-.61-2.841-.61-1.676 0-2.926.696a4.8 4.8 0 0 0-1.917 1.917q-.668 1.236-.668 2.898h-3.352q0-2.557 1.179-4.489a8.2 8.2 0 0 1 3.21-3.011q2.045-1.08 4.588-1.08 2.557 0 4.531 1.08t3.097 2.912 1.122 4.077q0 1.605-.582 3.139-.569 1.52-1.989 3.395-1.407 1.86-3.906 4.545l-6.534 6.989v.227h13.522V862zM170.402 514v-2.557l9.602-10.511a67 67 0 0 0 2.784-3.21q1.094-1.378 1.62-2.586a6.25 6.25 0 0 0 .539-2.556q0-1.535-.738-2.657-.724-1.121-1.989-1.733-1.264-.61-2.841-.61-1.676 0-2.926.696a4.8 4.8 0 0 0-1.917 1.917q-.668 1.236-.668 2.898h-3.352q0-2.557 1.179-4.489a8.2 8.2 0 0 1 3.21-3.011q2.045-1.08 4.588-1.08 2.557 0 4.531 1.08t3.097 2.912 1.122 4.077q0 1.605-.582 3.139-.569 1.52-1.989 3.395-1.407 1.86-3.906 4.545l-6.534 6.989v.227h13.522V514zM170.402 340v-2.557l9.602-10.511a67 67 0 0 0 2.784-3.21q1.094-1.379 1.62-2.586a6.25 6.25 0 0 0 .539-2.556q0-1.535-.738-2.657-.724-1.121-1.989-1.733-1.264-.61-2.841-.61-1.676 0-2.926.696a4.8 4.8 0 0 0-1.917 1.917q-.668 1.236-.668 2.898h-3.352q0-2.557 1.179-4.489a8.2 8.2 0 0 1 3.21-3.011q2.045-1.08 4.588-1.08 2.557 0 4.531 1.08t3.097 2.912 1.122 4.077q0 1.605-.582 3.139-.569 1.52-1.989 3.395-1.407 1.86-3.906 4.545l-6.534 6.989v.227h13.522V340zM290.402 688v-2.557l9.602-10.511a67 67 0 0 0 2.784-3.21q1.094-1.378 1.62-2.586a6.25 6.25 0 0 0 .539-2.556q0-1.535-.738-2.657-.724-1.122-1.989-1.733-1.264-.61-2.841-.61-1.676 0-2.926.696a4.8 4.8 0 0 0-1.917 1.917q-.668 1.236-.668 2.898h-3.352q0-2.557 1.179-4.489a8.2 8.2 0 0 1 3.21-3.011q2.045-1.08 4.588-1.08 2.556 0 4.531 1.08t3.097 2.912 1.122 4.077q0 1.605-.582 3.139-.569 1.52-1.989 3.395-1.407 1.86-3.906 4.545l-6.534 6.989v.227h13.522V688zM290.402 862v-2.557l9.602-10.511a67 67 0 0 0 2.784-3.21q1.094-1.378 1.62-2.586a6.25 6.25 0 0 0 .539-2.556q0-1.535-.738-2.657-.724-1.122-1.989-1.733-1.264-.61-2.841-.61-1.676 0-2.926.696a4.8 4.8 0 0 0-1.917 1.917q-.668 1.236-.668 2.898h-3.352q0-2.557 1.179-4.489a8.2 8.2 0 0 1 3.21-3.011q2.045-1.08 4.588-1.08 2.556 0 4.531 1.08t3.097 2.912 1.122 4.077q0 1.605-.582 3.139-.569 1.52-1.989 3.395-1.407 1.86-3.906 4.545l-6.534 6.989v.227h13.522V862zM290.402 514v-2.557l9.602-10.511a67 67 0 0 0 2.784-3.21q1.094-1.378 1.62-2.586a6.25 6.25 0 0 0 .539-2.556q0-1.535-.738-2.657-.724-1.121-1.989-1.733-1.264-.61-2.841-.61-1.676 0-2.926.696a4.8 4.8 0 0 0-1.917 1.917q-.668 1.236-.668 2.898h-3.352q0-2.557 1.179-4.489a8.2 8.2 0 0 1 3.21-3.011q2.045-1.08 4.588-1.08 2.556 0 4.531 1.08t3.097 2.912 1.122 4.077q0 1.605-.582 3.139-.569 1.52-1.989 3.395-1.407 1.86-3.906 4.545l-6.534 6.989v.227h13.522V514zM290.402 340v-2.557l9.602-10.511a67 67 0 0 0 2.784-3.21q1.094-1.379 1.62-2.586a6.25 6.25 0 0 0 .539-2.556q0-1.535-.738-2.657-.724-1.121-1.989-1.733-1.264-.61-2.841-.61-1.676 0-2.926.696a4.8 4.8 0 0 0-1.917 1.917q-.668 1.236-.668 2.898h-3.352q0-2.557 1.179-4.489a8.2 8.2 0 0 1 3.21-3.011q2.045-1.08 4.588-1.08 2.556 0 4.531 1.08t3.097 2.912 1.122 4.077q0 1.605-.582 3.139-.569 1.52-1.989 3.395-1.407 1.86-3.906 4.545l-6.534 6.989v.227h13.522V340zM314.31 24.276q-.171-1.719-1.463-2.67-1.293-.953-3.509-.953-1.506 0-2.543.427-1.036.412-1.59 1.15a2.77 2.77 0 0 0-.54 1.676q-.028.782.326 1.364.37.582 1.009 1.008.64.413 1.477.725.839.299 1.79.511l2.614.625a18.4 18.4 0 0 1 3.494 1.137q1.591.71 2.756 1.747a7.3 7.3 0 0 1 1.804 2.443q.653 1.406.667 3.224-.014 2.67-1.363 4.631-1.336 1.946-3.864 3.026-2.514 1.065-6.065 1.065-3.523 0-6.137-1.08-2.6-1.08-4.062-3.196-1.45-2.13-1.52-5.27h5.952q.099 1.463.838 2.444.752.965 2.003 1.463 1.263.483 2.855.483 1.562 0 2.713-.455 1.164-.454 1.804-1.264a2.92 2.92 0 0 0 .639-1.86q0-.98-.583-1.649-.567-.667-1.676-1.136-1.094-.469-2.684-.852l-3.168-.796q-3.679-.894-5.81-2.798t-2.116-5.128q-.015-2.642 1.406-4.616 1.435-1.975 3.935-3.083 2.5-1.107 5.682-1.108 3.238 0 5.653 1.108 2.429 1.108 3.778 3.083 1.35 1.974 1.393 4.574zm20.174 21.15q-3.31 0-5.725-1.406-2.4-1.42-3.707-3.949-1.307-2.543-1.307-5.895 0-3.38 1.307-5.909 1.307-2.542 3.707-3.949 2.415-1.42 5.725-1.42t5.71 1.42q2.415 1.407 3.721 3.949 1.308 2.528 1.307 5.91 0 3.351-1.307 5.894-1.306 2.529-3.721 3.949-2.4 1.406-5.71 1.406m.028-4.687q1.506 0 2.514-.853 1.009-.866 1.52-2.358.526-1.49.526-3.395 0-1.902-.526-3.394-.511-1.492-1.52-2.358t-2.514-.867q-1.52 0-2.557.867-1.023.866-1.548 2.358-.511 1.492-.511 3.394 0 1.904.511 3.395.525 1.492 1.548 2.358 1.038.853 2.557.853M349.157 45V23.182h5.866v3.807h.228q.596-2.032 2.003-3.068 1.406-1.052 3.238-1.052.455 0 .98.057.526.057.924.156v5.37a8 8 0 0 0-1.179-.228 11 11 0 0 0-1.378-.099q-1.335 0-2.387.582-1.036.57-1.647 1.591-.597 1.023-.597 2.358V45zm29.066-21.818v4.545h-13.139v-4.545zm-10.156-5.227h6.051v20.34q0 .84.256 1.307.255.454.71.64.468.184 1.079.184.426 0 .853-.07.426-.086.653-.129l.952 4.503q-.454.143-1.279.327-.824.198-2.003.241-2.187.086-3.835-.582-1.633-.667-2.542-2.074-.91-1.406-.895-3.551zm23.807 27.471q-3.368 0-5.796-1.364-2.415-1.377-3.721-3.892-1.308-2.527-1.307-5.98 0-3.366 1.307-5.909t3.679-3.963q2.385-1.42 5.596-1.42 2.159 0 4.02.696a8.9 8.9 0 0 1 3.267 2.06q1.407 1.377 2.188 3.465.78 2.074.781 4.858v1.662h-18.424v-3.75h12.728q0-1.307-.568-2.315a4.07 4.07 0 0 0-1.577-1.577q-.995-.582-2.315-.582-1.378 0-2.444.639-1.05.625-1.647 1.69-.597 1.051-.611 2.344v3.565q0 1.62.596 2.799a4.38 4.38 0 0 0 1.719 1.818q1.108.64 2.628.64 1.008 0 1.847-.285a3.8 3.8 0 0 0 1.434-.852q.597-.57.909-1.392l5.597.369a7.65 7.65 0 0 1-1.747 3.523q-1.306 1.49-3.381 2.33-2.06.823-4.758.823m22.002-.07q-2.486 0-4.502-1.28-2.004-1.291-3.182-3.792-1.165-2.514-1.165-6.165 0-3.75 1.207-6.235 1.207-2.5 3.211-3.736a8.2 8.2 0 0 1 4.417-1.25q1.833 0 3.054.625 1.236.61 1.989 1.534.766.91 1.165 1.79h.184V15.909h6.037V45h-5.966v-3.494h-.255q-.426.909-1.208 1.804-.767.88-2.003 1.463-1.22.582-2.983.582m1.918-4.816q1.463 0 2.472-.796 1.022-.81 1.562-2.258.554-1.45.554-3.395t-.54-3.38-1.562-2.217q-1.023-.78-2.486-.78-1.491 0-2.514.809-1.023.81-1.548 2.244t-.526 3.324q0 1.904.526 3.366.539 1.45 1.548 2.273 1.023.81 2.514.81M445.652 45h-6.591l10.043-29.09h7.926L467.058 45h-6.591l-7.287-22.443h-.227zm-.412-11.435h15.568v4.802H445.24zM470.446 45V23.182h5.866v3.807h.228q.597-2.032 2.003-3.068 1.406-1.052 3.238-1.052.455 0 .98.057.526.057.924.156v5.37a8 8 0 0 0-1.179-.228q-.753-.099-1.378-.099-1.335 0-2.387.582-1.036.57-1.647 1.591-.597 1.023-.597 2.358V45zm16.367 0V23.182h5.867v3.807h.227q.597-2.032 2.003-3.068 1.406-1.052 3.238-1.052.454 0 .981.057.525.057.923.156v5.37a8 8 0 0 0-1.179-.228q-.753-.099-1.378-.099-1.335 0-2.386.582a4.3 4.3 0 0 0-1.648 1.591q-.597 1.023-.597 2.358V45zm21.964.412q-2.088 0-3.722-.724-1.633-.739-2.585-2.174-.937-1.449-.937-3.608 0-1.818.667-3.054a5.4 5.4 0 0 1 1.818-1.988 8.8 8.8 0 0 1 2.614-1.137 20 20 0 0 1 3.097-.54 79 79 0 0 0 3.068-.369q1.164-.184 1.69-.54.526-.355.526-1.05v-.086q0-1.35-.852-2.088-.839-.739-2.387-.739-1.633 0-2.599.725-.966.71-1.279 1.79l-5.596-.455q.426-1.99 1.676-3.437 1.25-1.464 3.224-2.245 1.989-.795 4.603-.795 1.818 0 3.48.426 1.676.426 2.968 1.32a6.4 6.4 0 0 1 2.06 2.302q.753 1.392.753 3.338V45h-5.739v-3.026h-.17a6.2 6.2 0 0 1-1.406 1.804q-.881.767-2.117 1.208-1.236.426-2.855.426m1.733-4.176q1.335 0 2.358-.526a4.2 4.2 0 0 0 1.605-1.449q.582-.909.582-2.06v-2.315a3.2 3.2 0 0 1-.781.341q-.483.142-1.094.27a55 55 0 0 1-1.221.213l-1.108.157q-1.066.156-1.861.497t-1.236.923q-.44.568-.44 1.42 0 1.236.895 1.89.909.639 2.301.639m18.203 11.946q-1.15 0-2.159-.185-.994-.17-1.648-.44l1.364-4.517q1.065.327 1.918.355.865.028 1.491-.398.64-.426 1.037-1.449l.355-.923-7.827-22.443h6.364l4.517 16.023h.227l4.56-16.023h6.406l-8.48 24.176q-.61 1.761-1.662 3.068a6.8 6.8 0 0 1-2.628 2.031q-1.59.725-3.835.725M420.607 688.398q-2.813 0-5.015-.966-2.187-.966-3.48-2.685-1.278-1.732-1.392-4.02h3.58q.112 1.406.966 2.429.852 1.009 2.23 1.563 1.377.554 3.054.554 1.875 0 3.324-.654 1.448-.653 2.272-1.818.825-1.164.824-2.699 0-1.605-.795-2.826-.796-1.236-2.33-1.932t-3.75-.696h-2.329v-3.125h2.329q1.733 0 3.04-.625 1.321-.625 2.06-1.762.752-1.135.752-2.67 0-1.478-.653-2.571t-1.847-1.705q-1.179-.61-2.784-.61-1.505 0-2.841.554-1.32.539-2.159 1.576-.837 1.023-.909 2.472h-3.409q.085-2.287 1.378-4.006 1.293-1.733 3.381-2.699 2.102-.966 4.616-.966 2.699 0 4.631 1.094 1.932 1.08 2.969 2.855a7.5 7.5 0 0 1 1.037 3.835q0 2.458-1.293 4.191-1.278 1.732-3.48 2.4v.228q2.756.455 4.304 2.343 1.548 1.876 1.548 4.645 0 2.372-1.293 4.262-1.278 1.875-3.494 2.954t-5.042 1.08M420.607 862.398q-2.813 0-5.015-.966-2.187-.966-3.48-2.685-1.278-1.732-1.392-4.02h3.58q.112 1.406.966 2.429.852 1.009 2.23 1.563 1.377.554 3.054.554 1.875 0 3.324-.654 1.448-.653 2.272-1.818.825-1.164.824-2.699 0-1.605-.795-2.826-.796-1.236-2.33-1.932t-3.75-.696h-2.329v-3.125h2.329q1.733 0 3.04-.625 1.321-.625 2.06-1.762.752-1.135.752-2.67 0-1.477-.653-2.571-.653-1.093-1.847-1.705-1.179-.61-2.784-.61-1.505 0-2.841.554-1.32.539-2.159 1.576-.837 1.023-.909 2.472h-3.409q.085-2.287 1.378-4.006 1.293-1.733 3.381-2.699 2.102-.966 4.616-.966 2.699 0 4.631 1.094 1.932 1.08 2.969 2.855a7.5 7.5 0 0 1 1.037 3.835q0 2.458-1.293 4.191-1.278 1.733-3.48 2.4v.228q2.756.455 4.304 2.343 1.548 1.876 1.548 4.645 0 2.372-1.293 4.262-1.278 1.875-3.494 2.954t-5.042 1.08M420.607 514.398q-2.813 0-5.015-.966-2.187-.966-3.48-2.685-1.278-1.733-1.392-4.02h3.58q.112 1.407.966 2.429.852 1.009 2.23 1.563 1.377.554 3.054.554 1.875 0 3.324-.654 1.448-.652 2.272-1.818.825-1.164.824-2.699 0-1.605-.795-2.826-.796-1.236-2.33-1.932t-3.75-.696h-2.329v-3.125h2.329q1.733 0 3.04-.625 1.321-.625 2.06-1.762.752-1.135.752-2.67 0-1.477-.653-2.571-.653-1.093-1.847-1.705-1.179-.61-2.784-.61-1.505 0-2.841.554-1.32.539-2.159 1.576-.837 1.023-.909 2.472h-3.409q.085-2.287 1.378-4.006 1.293-1.733 3.381-2.699 2.102-.966 4.616-.966 2.699 0 4.631 1.094 1.932 1.08 2.969 2.855a7.5 7.5 0 0 1 1.037 3.835q0 2.458-1.293 4.191-1.278 1.732-3.48 2.4v.228q2.756.454 4.304 2.343 1.548 1.876 1.548 4.645 0 2.372-1.293 4.262-1.278 1.874-3.494 2.954t-5.042 1.08M540.607 688.398q-2.813 0-5.015-.966-2.187-.966-3.48-2.685-1.278-1.732-1.392-4.02h3.58q.112 1.406.966 2.429.852 1.009 2.23 1.563 1.377.554 3.054.554 1.875 0 3.324-.654 1.448-.653 2.272-1.818.824-1.164.824-2.699 0-1.605-.795-2.826-.796-1.236-2.33-1.932t-3.75-.696h-2.329v-3.125h2.329q1.733 0 3.04-.625 1.321-.625 2.06-1.762.752-1.135.752-2.67 0-1.478-.653-2.571-.654-1.093-1.847-1.705-1.179-.61-2.784-.61-1.505 0-2.841.554-1.32.539-2.159 1.576-.837 1.023-.909 2.472h-3.409q.085-2.287 1.378-4.006 1.293-1.733 3.381-2.699 2.102-.966 4.616-.966 2.699 0 4.631 1.094 1.931 1.08 2.969 2.855a7.5 7.5 0 0 1 1.037 3.835q0 2.458-1.293 4.191-1.278 1.732-3.48 2.4v.228q2.756.455 4.304 2.343 1.548 1.876 1.548 4.645 0 2.372-1.293 4.262-1.278 1.875-3.494 2.954t-5.042 1.08M540.607 862.398q-2.813 0-5.015-.966-2.187-.966-3.48-2.685-1.278-1.732-1.392-4.02h3.58q.112 1.406.966 2.429.852 1.009 2.23 1.563 1.377.554 3.054.554 1.875 0 3.324-.654 1.448-.653 2.272-1.818.824-1.164.824-2.699 0-1.605-.795-2.826-.796-1.236-2.33-1.932t-3.75-.696h-2.329v-3.125h2.329q1.733 0 3.04-.625 1.321-.625 2.06-1.762.752-1.135.752-2.67 0-1.477-.653-2.571-.654-1.093-1.847-1.705-1.179-.61-2.784-.61-1.505 0-2.841.554-1.32.539-2.159 1.576-.837 1.023-.909 2.472h-3.409q.085-2.287 1.378-4.006 1.293-1.733 3.381-2.699 2.102-.966 4.616-.966 2.699 0 4.631 1.094 1.931 1.08 2.969 2.855a7.5 7.5 0 0 1 1.037 3.835q0 2.458-1.293 4.191-1.278 1.733-3.48 2.4v.228q2.756.455 4.304 2.343 1.548 1.876 1.548 4.645 0 2.372-1.293 4.262-1.278 1.875-3.494 2.954t-5.042 1.08M540.607 514.398q-2.813 0-5.015-.966-2.187-.966-3.48-2.685-1.278-1.733-1.392-4.02h3.58q.112 1.407.966 2.429.852 1.009 2.23 1.563 1.377.554 3.054.554 1.875 0 3.324-.654 1.448-.652 2.272-1.818.824-1.164.824-2.699 0-1.605-.795-2.826-.796-1.236-2.33-1.932t-3.75-.696h-2.329v-3.125h2.329q1.733 0 3.04-.625 1.321-.625 2.06-1.762.752-1.135.752-2.67 0-1.477-.653-2.571-.654-1.093-1.847-1.705-1.179-.61-2.784-.61-1.505 0-2.841.554-1.32.539-2.159 1.576-.837 1.023-.909 2.472h-3.409q.085-2.287 1.378-4.006 1.293-1.733 3.381-2.699 2.102-.966 4.616-.966 2.699 0 4.631 1.094 1.931 1.08 2.969 2.855a7.5 7.5 0 0 1 1.037 3.835q0 2.458-1.293 4.191-1.278 1.732-3.48 2.4v.228q2.756.454 4.304 2.343 1.548 1.876 1.548 4.645 0 2.372-1.293 4.262-1.278 1.874-3.494 2.954t-5.042 1.08M649.998 682.034v-2.898l12.784-20.227h2.102v4.489h-1.421l-9.659 15.284v.227h17.216v3.125zM663.691 688v-29.091h3.352V688zM649.998 856.034v-2.898l12.784-20.227h2.102v4.489h-1.421l-9.659 15.284v.227h17.216v3.125zM663.691 862v-29.091h3.352V862zM780.505 862.398q-2.926 0-5.17-1.037-2.23-1.051-3.48-2.884-1.251-1.846-1.236-4.204-.015-1.847.724-3.409a7.4 7.4 0 0 1 2.017-2.628 6.2 6.2 0 0 1 2.884-1.35v-.17q-2.088-.54-3.324-2.344-1.236-1.818-1.221-4.133-.015-2.217 1.122-3.963 1.136-1.748 3.125-2.756 2.003-1.009 4.559-1.009 2.53 0 4.517 1.009 1.99 1.008 3.125 2.756 1.151 1.746 1.165 3.963-.014 2.315-1.264 4.133-1.236 1.804-3.281 2.344v.17q1.576.285 2.841 1.35a7.66 7.66 0 0 1 2.017 2.628q.752 1.562.767 3.409-.015 2.358-1.279 4.204-1.25 1.833-3.48 2.884-2.215 1.037-5.128 1.037m0-3.125q1.975 0 3.409-.639 1.435-.64 2.216-1.804t.796-2.728q-.015-1.647-.852-2.912-.839-1.263-2.287-1.988-1.436-.725-3.282-.725-1.86 0-3.324.725-1.448.725-2.286 1.988-.825 1.265-.81 2.912-.015 1.563.753 2.728.781 1.164 2.23 1.804 1.45.639 3.437.639m0-13.807q1.563 0 2.77-.625a4.75 4.75 0 0 0 1.918-1.747q.696-1.122.71-2.628-.014-1.477-.696-2.571a4.5 4.5 0 0 0-1.889-1.705q-1.208-.61-2.813-.61-1.633 0-2.855.61-1.221.597-1.889 1.705-.668 1.094-.653 2.571-.014 1.506.667 2.628a4.75 4.75 0 0 0 1.918 1.747q1.221.625 2.812.625"/></svg>