<svg width="1193" height="1375" viewBox="0 0 1193 1375" fill="none" xmlns="http://www.w3.org/2000/svg">
<rect x="1" y="895" width="213" height="77" rx="27" stroke="#DBDBDB" stroke-width="2"/>
<rect x="1" y="129" width="213" height="77" rx="27" stroke="#DBDBDB" stroke-width="2"/>
<path d="M79.668 949.398C77.5278 949.398 75.7049 948.815 74.1992 947.651C72.6935 946.476 71.543 944.777 70.7475 942.551C69.9521 940.316 69.5543 937.617 69.5543 934.455C69.5543 931.311 69.9521 928.626 70.7475 926.401C71.5524 924.166 72.7077 922.461 74.2134 921.287C75.7286 920.103 77.5468 919.511 79.668 919.511C81.7892 919.511 83.6026 920.103 85.1083 921.287C86.6235 922.461 87.7788 924.166 88.5742 926.401C89.3791 928.626 89.7816 931.311 89.7816 934.455C89.7816 937.617 89.3839 940.316 88.5884 942.551C87.793 944.777 86.6424 946.476 85.1367 947.651C83.631 948.815 81.8081 949.398 79.668 949.398ZM79.668 946.273C81.7892 946.273 83.4369 945.25 84.6112 943.205C85.7854 941.159 86.3725 938.242 86.3725 934.455C86.3725 931.936 86.1026 929.791 85.5629 928.02C85.0326 926.249 84.2655 924.9 83.2617 923.972C82.2674 923.044 81.0695 922.58 79.668 922.58C77.5657 922.58 75.9227 923.616 74.739 925.69C73.5553 927.755 72.9634 930.676 72.9634 934.455C72.9634 936.973 73.2286 939.114 73.7589 940.875C74.2892 942.636 75.0515 943.976 76.0458 944.895C77.0496 945.813 78.257 946.273 79.668 946.273ZM95.2362 949V927.182H98.4748V930.591H98.7589C99.2134 929.426 99.9473 928.522 100.961 927.878C101.974 927.224 103.191 926.898 104.611 926.898C106.051 926.898 107.248 927.224 108.205 927.878C109.171 928.522 109.924 929.426 110.463 930.591H110.691C111.249 929.464 112.087 928.569 113.205 927.906C114.322 927.234 115.662 926.898 117.225 926.898C119.176 926.898 120.771 927.509 122.012 928.73C123.252 929.942 123.873 931.831 123.873 934.398V949H120.52V934.398C120.52 932.788 120.08 931.637 119.199 930.946C118.319 930.255 117.282 929.909 116.088 929.909C114.554 929.909 113.366 930.373 112.523 931.301C111.68 932.22 111.259 933.384 111.259 934.795V949H107.85V934.057C107.85 932.816 107.447 931.817 106.642 931.06C105.837 930.293 104.801 929.909 103.532 929.909C102.66 929.909 101.846 930.141 101.088 930.605C100.34 931.069 99.7343 931.713 99.2702 932.537C98.8157 933.351 98.5884 934.294 98.5884 935.364V949H95.2362ZM145.456 932.068L142.445 932.92C142.256 932.419 141.976 931.931 141.607 931.457C141.247 930.974 140.755 930.577 140.13 930.264C139.505 929.952 138.704 929.795 137.729 929.795C136.394 929.795 135.281 930.103 134.391 930.719C133.51 931.325 133.07 932.097 133.07 933.034C133.07 933.867 133.373 934.526 133.979 935.009C134.585 935.491 135.532 935.894 136.82 936.216L140.059 937.011C142.009 937.485 143.463 938.209 144.419 939.185C145.376 940.151 145.854 941.396 145.854 942.92C145.854 944.17 145.494 945.288 144.775 946.273C144.064 947.258 143.07 948.034 141.792 948.602C140.513 949.17 139.026 949.455 137.331 949.455C135.106 949.455 133.264 948.972 131.806 948.006C130.347 947.04 129.424 945.629 129.036 943.773L132.218 942.977C132.521 944.152 133.094 945.032 133.936 945.619C134.789 946.206 135.901 946.5 137.275 946.5C138.837 946.5 140.078 946.169 140.996 945.506C141.924 944.833 142.388 944.028 142.388 943.091C142.388 942.333 142.123 941.699 141.593 941.188C141.062 940.667 140.248 940.278 139.15 940.023L135.513 939.17C133.515 938.697 132.047 937.963 131.11 936.969C130.182 935.965 129.718 934.71 129.718 933.205C129.718 931.973 130.063 930.884 130.755 929.938C131.455 928.991 132.407 928.247 133.61 927.707C134.822 927.168 136.195 926.898 137.729 926.898C139.888 926.898 141.583 927.371 142.814 928.318C144.055 929.265 144.935 930.515 145.456 932.068Z" fill="white"/>
<path d="M79.668 183.398C77.5278 183.398 75.7049 182.815 74.1992 181.651C72.6935 180.476 71.543 178.777 70.7475 176.551C69.9521 174.316 69.5543 171.617 69.5543 168.455C69.5543 165.311 69.9521 162.626 70.7475 160.401C71.5524 158.166 72.7077 156.461 74.2134 155.287C75.7286 154.103 77.5468 153.511 79.668 153.511C81.7892 153.511 83.6026 154.103 85.1083 155.287C86.6235 156.461 87.7788 158.166 88.5742 160.401C89.3791 162.626 89.7816 165.311 89.7816 168.455C89.7816 171.617 89.3839 174.316 88.5884 176.551C87.793 178.777 86.6424 180.476 85.1367 181.651C83.631 182.815 81.8081 183.398 79.668 183.398ZM79.668 180.273C81.7892 180.273 83.4369 179.25 84.6112 177.205C85.7854 175.159 86.3725 172.242 86.3725 168.455C86.3725 165.936 86.1026 163.791 85.5629 162.02C85.0326 160.249 84.2655 158.9 83.2617 157.972C82.2674 157.044 81.0695 156.58 79.668 156.58C77.5657 156.58 75.9227 157.616 74.739 159.69C73.5553 161.755 72.9634 164.676 72.9634 168.455C72.9634 170.973 73.2286 173.114 73.7589 174.875C74.2892 176.636 75.0515 177.976 76.0458 178.895C77.0496 179.813 78.257 180.273 79.668 180.273ZM95.2362 183V161.182H98.4748V164.591H98.7589C99.2134 163.426 99.9473 162.522 100.961 161.878C101.974 161.224 103.191 160.898 104.611 160.898C106.051 160.898 107.248 161.224 108.205 161.878C109.171 162.522 109.924 163.426 110.463 164.591H110.691C111.249 163.464 112.087 162.569 113.205 161.906C114.322 161.234 115.662 160.898 117.225 160.898C119.176 160.898 120.771 161.509 122.012 162.73C123.252 163.942 123.873 165.831 123.873 168.398V183H120.52V168.398C120.52 166.788 120.08 165.637 119.199 164.946C118.319 164.255 117.282 163.909 116.088 163.909C114.554 163.909 113.366 164.373 112.523 165.301C111.68 166.22 111.259 167.384 111.259 168.795V183H107.85V168.057C107.85 166.816 107.447 165.817 106.642 165.06C105.837 164.293 104.801 163.909 103.532 163.909C102.66 163.909 101.846 164.141 101.088 164.605C100.34 165.069 99.7343 165.713 99.2702 166.537C98.8157 167.351 98.5884 168.294 98.5884 169.364V183H95.2362ZM145.456 166.068L142.445 166.92C142.256 166.419 141.976 165.931 141.607 165.457C141.247 164.974 140.755 164.577 140.13 164.264C139.505 163.952 138.704 163.795 137.729 163.795C136.394 163.795 135.281 164.103 134.391 164.719C133.51 165.325 133.07 166.097 133.07 167.034C133.07 167.867 133.373 168.526 133.979 169.009C134.585 169.491 135.532 169.894 136.82 170.216L140.059 171.011C142.009 171.485 143.463 172.209 144.419 173.185C145.376 174.151 145.854 175.396 145.854 176.92C145.854 178.17 145.494 179.288 144.775 180.273C144.064 181.258 143.07 182.034 141.792 182.602C140.513 183.17 139.026 183.455 137.331 183.455C135.106 183.455 133.264 182.972 131.806 182.006C130.347 181.04 129.424 179.629 129.036 177.773L132.218 176.977C132.521 178.152 133.094 179.032 133.936 179.619C134.789 180.206 135.901 180.5 137.275 180.5C138.837 180.5 140.078 180.169 140.996 179.506C141.924 178.833 142.388 178.028 142.388 177.091C142.388 176.333 142.123 175.699 141.593 175.188C141.062 174.667 140.248 174.278 139.15 174.023L135.513 173.17C133.515 172.697 132.047 171.963 131.11 170.969C130.182 169.965 129.718 168.71 129.718 167.205C129.718 165.973 130.063 164.884 130.755 163.938C131.455 162.991 132.407 162.247 133.61 161.707C134.822 161.168 136.195 160.898 137.729 160.898C139.888 160.898 141.583 161.371 142.814 162.318C144.055 163.265 144.935 164.515 145.456 166.068Z" fill="white"/>
<path d="M63.1037 785H59.581C59.3726 783.987 59.0081 783.097 58.4872 782.33C57.9759 781.562 57.3509 780.919 56.6122 780.398C55.883 779.867 55.0734 779.47 54.1832 779.205C53.2931 778.939 52.3651 778.807 51.3991 778.807C49.6378 778.807 48.0421 779.252 46.6122 780.142C45.1918 781.032 44.0601 782.344 43.2173 784.077C42.384 785.81 41.9673 787.936 41.9673 790.455C41.9673 792.973 42.384 795.099 43.2173 796.832C44.0601 798.565 45.1918 799.877 46.6122 800.767C48.0421 801.657 49.6378 802.102 51.3991 802.102C52.3651 802.102 53.2931 801.97 54.1832 801.705C55.0734 801.439 55.883 801.046 56.6122 800.526C57.3509 799.995 57.9759 799.347 58.4872 798.58C59.0081 797.803 59.3726 796.913 59.581 795.909H63.1037C62.8385 797.396 62.3556 798.726 61.6548 799.901C60.9541 801.075 60.0829 802.074 59.0412 802.898C57.9995 803.712 56.83 804.332 55.5327 804.759C54.2448 805.185 52.867 805.398 51.3991 805.398C48.9181 805.398 46.7116 804.792 44.7798 803.58C42.848 802.367 41.3281 800.644 40.2202 798.409C39.1122 796.174 38.5582 793.523 38.5582 790.455C38.5582 787.386 39.1122 784.735 40.2202 782.5C41.3281 780.265 42.848 778.542 44.7798 777.33C46.7116 776.117 48.9181 775.511 51.3991 775.511C52.867 775.511 54.2448 775.724 55.5327 776.151C56.83 776.577 57.9995 777.202 59.0412 778.026C60.0829 778.84 60.9541 779.834 61.6548 781.009C62.3556 782.173 62.8385 783.504 63.1037 785ZM82.0916 796.08V783.182H85.4439V805H82.0916V801.307H81.8643C81.353 802.415 80.5575 803.357 79.478 804.134C78.3984 804.901 77.0348 805.284 75.3871 805.284C74.0234 805.284 72.8113 804.986 71.7507 804.389C70.6901 803.783 69.8568 802.874 69.2507 801.662C68.6446 800.44 68.3416 798.902 68.3416 797.045V783.182H71.6939V796.818C71.6939 798.409 72.139 799.678 73.0291 800.625C73.9287 801.572 75.0746 802.045 76.4666 802.045C77.3 802.045 78.1475 801.832 79.0092 801.406C79.8804 800.98 80.6096 800.327 81.1967 799.446C81.7933 798.565 82.0916 797.443 82.0916 796.08ZM91.5838 805V783.182H94.8224V786.477H95.0497C95.4474 785.398 96.1671 784.522 97.2088 783.849C98.2505 783.177 99.4247 782.841 100.732 782.841C100.978 782.841 101.286 782.846 101.655 782.855C102.024 782.865 102.304 782.879 102.493 782.898V786.307C102.379 786.278 102.119 786.236 101.712 786.179C101.314 786.113 100.893 786.08 100.447 786.08C99.3868 786.08 98.4399 786.302 97.6065 786.747C96.7827 787.183 96.1293 787.789 95.6463 788.565C95.1728 789.332 94.9361 790.208 94.9361 791.193V805H91.5838ZM106.467 805V783.182H109.705V786.477H109.933C110.33 785.398 111.05 784.522 112.092 783.849C113.133 783.177 114.308 782.841 115.614 782.841C115.861 782.841 116.168 782.846 116.538 782.855C116.907 782.865 117.186 782.879 117.376 782.898V786.307C117.262 786.278 117.002 786.236 116.594 786.179C116.197 786.113 115.775 786.08 115.33 786.08C114.27 786.08 113.323 786.302 112.489 786.747C111.665 787.183 111.012 787.789 110.529 788.565C110.056 789.332 109.819 790.208 109.819 791.193V805H106.467ZM129.833 805.455C127.731 805.455 125.917 804.991 124.393 804.062C122.878 803.125 121.708 801.818 120.884 800.142C120.07 798.456 119.663 796.496 119.663 794.261C119.663 792.027 120.07 790.057 120.884 788.352C121.708 786.638 122.854 785.303 124.322 784.347C125.799 783.381 127.522 782.898 129.492 782.898C130.629 782.898 131.751 783.087 132.859 783.466C133.967 783.845 134.975 784.46 135.884 785.312C136.793 786.155 137.518 787.273 138.058 788.665C138.597 790.057 138.867 791.771 138.867 793.807V795.227H122.049V792.33H135.458C135.458 791.098 135.212 790 134.719 789.034C134.237 788.068 133.545 787.306 132.646 786.747C131.755 786.188 130.704 785.909 129.492 785.909C128.157 785.909 127.002 786.241 126.026 786.903C125.06 787.557 124.317 788.409 123.796 789.46C123.275 790.511 123.015 791.638 123.015 792.841V794.773C123.015 796.42 123.299 797.817 123.867 798.963C124.445 800.099 125.245 800.966 126.268 801.562C127.29 802.15 128.479 802.443 129.833 802.443C130.714 802.443 131.509 802.32 132.219 802.074C132.939 801.818 133.559 801.439 134.08 800.938C134.601 800.426 135.004 799.792 135.288 799.034L138.526 799.943C138.185 801.042 137.612 802.008 136.808 802.841C136.003 803.665 135.008 804.309 133.825 804.773C132.641 805.227 131.31 805.455 129.833 805.455ZM147.319 791.875V805H143.967V783.182H147.205V786.591H147.489C148.001 785.483 148.777 784.593 149.819 783.92C150.861 783.239 152.205 782.898 153.853 782.898C155.33 782.898 156.623 783.201 157.731 783.807C158.839 784.403 159.701 785.312 160.316 786.534C160.932 787.746 161.239 789.28 161.239 791.136V805H157.887V791.364C157.887 789.65 157.442 788.314 156.552 787.358C155.662 786.392 154.44 785.909 152.887 785.909C151.817 785.909 150.861 786.141 150.018 786.605C149.184 787.069 148.526 787.746 148.043 788.636C147.56 789.527 147.319 790.606 147.319 791.875ZM176.854 783.182V786.023H165.547V783.182H176.854ZM168.842 777.955H172.195V798.75C172.195 799.697 172.332 800.407 172.607 800.881C172.891 801.345 173.25 801.657 173.686 801.818C174.131 801.97 174.6 802.045 175.092 802.045C175.462 802.045 175.765 802.027 176.001 801.989C176.238 801.941 176.428 801.903 176.57 801.875L177.251 804.886C177.024 804.972 176.707 805.057 176.3 805.142C175.893 805.237 175.376 805.284 174.751 805.284C173.804 805.284 172.876 805.08 171.967 804.673C171.068 804.266 170.32 803.646 169.723 802.812C169.136 801.979 168.842 800.928 168.842 799.659V777.955ZM57.3224 827.034V823.909H79.1406V827.034H69.9929V853H66.4702V827.034H57.3224ZM84.1229 853V831.182H87.4751V853H84.1229ZM85.8274 827.545C85.174 827.545 84.6106 827.323 84.1371 826.878C83.6731 826.433 83.4411 825.898 83.4411 825.273C83.4411 824.648 83.6731 824.113 84.1371 823.668C84.6106 823.223 85.174 823 85.8274 823C86.4808 823 87.0395 823.223 87.5036 823.668C87.977 824.113 88.2138 824.648 88.2138 825.273C88.2138 825.898 87.977 826.433 87.5036 826.878C87.0395 827.323 86.4808 827.545 85.8274 827.545ZM93.6151 853V831.182H96.8537V834.591H97.1378C97.5923 833.426 98.3262 832.522 99.3395 831.878C100.353 831.224 101.57 830.898 102.99 830.898C104.429 830.898 105.627 831.224 106.584 831.878C107.55 832.522 108.303 833.426 108.842 834.591H109.07C109.628 833.464 110.466 832.569 111.584 831.906C112.701 831.234 114.041 830.898 115.604 830.898C117.554 830.898 119.15 831.509 120.391 832.73C121.631 833.942 122.251 835.831 122.251 838.398V853H118.899V838.398C118.899 836.788 118.459 835.637 117.578 834.946C116.697 834.255 115.661 833.909 114.467 833.909C112.933 833.909 111.745 834.373 110.902 835.301C110.059 836.22 109.638 837.384 109.638 838.795V853H106.229V838.057C106.229 836.816 105.826 835.817 105.021 835.06C104.216 834.293 103.179 833.909 101.911 833.909C101.039 833.909 100.225 834.141 99.4673 834.605C98.7192 835.069 98.1132 835.713 97.6491 836.537C97.1946 837.351 96.9673 838.294 96.9673 839.364V853H93.6151ZM137.528 853.455C135.426 853.455 133.613 852.991 132.088 852.062C130.573 851.125 129.403 849.818 128.58 848.142C127.765 846.456 127.358 844.496 127.358 842.261C127.358 840.027 127.765 838.057 128.58 836.352C129.403 834.638 130.549 833.303 132.017 832.347C133.494 831.381 135.218 830.898 137.188 830.898C138.324 830.898 139.446 831.087 140.554 831.466C141.662 831.845 142.67 832.46 143.58 833.312C144.489 834.155 145.213 835.273 145.753 836.665C146.293 838.057 146.562 839.771 146.562 841.807V843.227H129.744V840.33H143.153C143.153 839.098 142.907 838 142.415 837.034C141.932 836.068 141.241 835.306 140.341 834.747C139.451 834.188 138.4 833.909 137.188 833.909C135.852 833.909 134.697 834.241 133.722 834.903C132.756 835.557 132.012 836.409 131.491 837.46C130.971 838.511 130.71 839.638 130.71 840.841V842.773C130.71 844.42 130.994 845.817 131.562 846.963C132.14 848.099 132.94 848.966 133.963 849.562C134.986 850.15 136.174 850.443 137.528 850.443C138.409 850.443 139.205 850.32 139.915 850.074C140.634 849.818 141.255 849.439 141.776 848.938C142.296 848.426 142.699 847.792 142.983 847.034L146.222 847.943C145.881 849.042 145.308 850.008 144.503 850.841C143.698 851.665 142.704 852.309 141.52 852.773C140.336 853.227 139.006 853.455 137.528 853.455ZM154.105 853.227C153.404 853.227 152.803 852.976 152.301 852.474C151.799 851.973 151.548 851.371 151.548 850.67C151.548 849.97 151.799 849.368 152.301 848.866C152.803 848.365 153.404 848.114 154.105 848.114C154.806 848.114 155.407 848.365 155.909 848.866C156.411 849.368 156.662 849.97 156.662 850.67C156.662 851.134 156.544 851.561 156.307 851.949C156.08 852.337 155.772 852.65 155.384 852.886C155.005 853.114 154.579 853.227 154.105 853.227ZM154.105 837.034C153.404 837.034 152.803 836.783 152.301 836.281C151.799 835.779 151.548 835.178 151.548 834.477C151.548 833.777 151.799 833.175 152.301 832.673C152.803 832.171 153.404 831.92 154.105 831.92C154.806 831.92 155.407 832.171 155.909 832.673C156.411 833.175 156.662 833.777 156.662 834.477C156.662 834.941 156.544 835.367 156.307 835.756C156.08 836.144 155.772 836.456 155.384 836.693C155.005 836.92 154.579 837.034 154.105 837.034Z" fill="white"/>
<path d="M63.1037 19H59.581C59.3726 17.9867 59.0081 17.0966 58.4872 16.3295C57.9759 15.5625 57.3509 14.9186 56.6122 14.3977C55.883 13.8674 55.0734 13.4697 54.1832 13.2045C53.2931 12.9394 52.3651 12.8068 51.3991 12.8068C49.6378 12.8068 48.0421 13.2519 46.6122 14.142C45.1918 15.0322 44.0601 16.3438 43.2173 18.0767C42.384 19.8097 41.9673 21.9356 41.9673 24.4545C41.9673 26.9735 42.384 29.0994 43.2173 30.8324C44.0601 32.5653 45.1918 33.8769 46.6122 34.767C48.0421 35.6572 49.6378 36.1023 51.3991 36.1023C52.3651 36.1023 53.2931 35.9697 54.1832 35.7045C55.0734 35.4394 55.883 35.0464 56.6122 34.5256C57.3509 33.9953 57.9759 33.3466 58.4872 32.5795C59.0081 31.803 59.3726 30.9129 59.581 29.9091H63.1037C62.8385 31.3958 62.3556 32.7263 61.6548 33.9006C60.9541 35.0748 60.0829 36.0739 59.0412 36.8977C57.9995 37.7121 56.83 38.3324 55.5327 38.7585C54.2448 39.1847 52.867 39.3977 51.3991 39.3977C48.9181 39.3977 46.7116 38.7917 44.7798 37.5795C42.848 36.3674 41.3281 34.6439 40.2202 32.4091C39.1122 30.1742 38.5582 27.5227 38.5582 24.4545C38.5582 21.3864 39.1122 18.7348 40.2202 16.5C41.3281 14.2652 42.848 12.5417 44.7798 11.3295C46.7116 10.1174 48.9181 9.51136 51.3991 9.51136C52.867 9.51136 54.2448 9.72443 55.5327 10.1506C56.83 10.5767 57.9995 11.2017 59.0412 12.0256C60.0829 12.84 60.9541 13.8343 61.6548 15.0085C62.3556 16.1733 62.8385 17.5038 63.1037 19ZM82.0916 30.0795V17.1818H85.4439V39H82.0916V35.3068H81.8643C81.353 36.4148 80.5575 37.357 79.478 38.1335C78.3984 38.9006 77.0348 39.2841 75.3871 39.2841C74.0234 39.2841 72.8113 38.9858 71.7507 38.3892C70.6901 37.7831 69.8568 36.8741 69.2507 35.6619C68.6446 34.4403 68.3416 32.9015 68.3416 31.0455V17.1818H71.6939V30.8182C71.6939 32.4091 72.139 33.678 73.0291 34.625C73.9287 35.572 75.0746 36.0455 76.4666 36.0455C77.3 36.0455 78.1475 35.8324 79.0092 35.4062C79.8804 34.9801 80.6096 34.3267 81.1967 33.446C81.7933 32.5653 82.0916 31.4432 82.0916 30.0795ZM91.5838 39V17.1818H94.8224V20.4773H95.0497C95.4474 19.3977 96.1671 18.5218 97.2088 17.8494C98.2505 17.1771 99.4247 16.8409 100.732 16.8409C100.978 16.8409 101.286 16.8456 101.655 16.8551C102.024 16.8646 102.304 16.8788 102.493 16.8977V20.3068C102.379 20.2784 102.119 20.2358 101.712 20.179C101.314 20.1127 100.893 20.0795 100.447 20.0795C99.3868 20.0795 98.4399 20.3021 97.6065 20.7472C96.7827 21.1828 96.1293 21.7888 95.6463 22.5653C95.1728 23.3324 94.9361 24.2083 94.9361 25.1932V39H91.5838ZM106.467 39V17.1818H109.705V20.4773H109.933C110.33 19.3977 111.05 18.5218 112.092 17.8494C113.133 17.1771 114.308 16.8409 115.614 16.8409C115.861 16.8409 116.168 16.8456 116.538 16.8551C116.907 16.8646 117.186 16.8788 117.376 16.8977V20.3068C117.262 20.2784 117.002 20.2358 116.594 20.179C116.197 20.1127 115.775 20.0795 115.33 20.0795C114.27 20.0795 113.323 20.3021 112.489 20.7472C111.665 21.1828 111.012 21.7888 110.529 22.5653C110.056 23.3324 109.819 24.2083 109.819 25.1932V39H106.467ZM129.833 39.4545C127.731 39.4545 125.917 38.9905 124.393 38.0625C122.878 37.125 121.708 35.8182 120.884 34.142C120.07 32.4564 119.663 30.4962 119.663 28.2614C119.663 26.0265 120.07 24.0568 120.884 22.3523C121.708 20.6383 122.854 19.303 124.322 18.3466C125.799 17.3807 127.522 16.8977 129.492 16.8977C130.629 16.8977 131.751 17.0871 132.859 17.4659C133.967 17.8447 134.975 18.4602 135.884 19.3125C136.793 20.1553 137.518 21.2727 138.058 22.6648C138.597 24.0568 138.867 25.7708 138.867 27.8068V29.2273H122.049V26.3295H135.458C135.458 25.0985 135.212 24 134.719 23.0341C134.237 22.0682 133.545 21.3059 132.646 20.7472C131.755 20.1884 130.704 19.9091 129.492 19.9091C128.157 19.9091 127.002 20.2405 126.026 20.9034C125.06 21.5568 124.317 22.4091 123.796 23.4602C123.275 24.5114 123.015 25.6383 123.015 26.8409V28.7727C123.015 30.4205 123.299 31.8172 123.867 32.9631C124.445 34.0994 125.245 34.9659 126.268 35.5625C127.29 36.1496 128.479 36.4432 129.833 36.4432C130.714 36.4432 131.509 36.3201 132.219 36.0739C132.939 35.8182 133.559 35.4394 134.08 34.9375C134.601 34.4261 135.004 33.7917 135.288 33.0341L138.526 33.9432C138.185 35.0417 137.612 36.0076 136.808 36.8409C136.003 37.6648 135.008 38.3087 133.825 38.7727C132.641 39.2273 131.31 39.4545 129.833 39.4545ZM147.319 25.875V39H143.967V17.1818H147.205V20.5909H147.489C148.001 19.483 148.777 18.5928 149.819 17.9205C150.861 17.2386 152.205 16.8977 153.853 16.8977C155.33 16.8977 156.623 17.2008 157.731 17.8068C158.839 18.4034 159.701 19.3125 160.316 20.5341C160.932 21.7462 161.239 23.2803 161.239 25.1364V39H157.887V25.3636C157.887 23.6496 157.442 22.3144 156.552 21.358C155.662 20.392 154.44 19.9091 152.887 19.9091C151.817 19.9091 150.861 20.1411 150.018 20.6051C149.184 21.0691 148.526 21.7462 148.043 22.6364C147.56 23.5265 147.319 24.6061 147.319 25.875ZM176.854 17.1818V20.0227H165.547V17.1818H176.854ZM168.842 11.9545H172.195V32.75C172.195 33.697 172.332 34.4072 172.607 34.8807C172.891 35.3447 173.25 35.6572 173.686 35.8182C174.131 35.9697 174.6 36.0455 175.092 36.0455C175.462 36.0455 175.765 36.0265 176.001 35.9886C176.238 35.9413 176.428 35.9034 176.57 35.875L177.251 38.8864C177.024 38.9716 176.707 39.0568 176.3 39.142C175.893 39.2367 175.376 39.2841 174.751 39.2841C173.804 39.2841 172.876 39.0805 171.967 38.6733C171.068 38.2661 170.32 37.6458 169.723 36.8125C169.136 35.9792 168.842 34.928 168.842 33.6591V11.9545ZM57.3224 61.0341V57.9091H79.1406V61.0341H69.9929V87H66.4702V61.0341H57.3224ZM84.1229 87V65.1818H87.4751V87H84.1229ZM85.8274 61.5455C85.174 61.5455 84.6106 61.3229 84.1371 60.8778C83.6731 60.4328 83.4411 59.8977 83.4411 59.2727C83.4411 58.6477 83.6731 58.1127 84.1371 57.6676C84.6106 57.2225 85.174 57 85.8274 57C86.4808 57 87.0395 57.2225 87.5036 57.6676C87.977 58.1127 88.2138 58.6477 88.2138 59.2727C88.2138 59.8977 87.977 60.4328 87.5036 60.8778C87.0395 61.3229 86.4808 61.5455 85.8274 61.5455ZM93.6151 87V65.1818H96.8537V68.5909H97.1378C97.5923 67.4261 98.3262 66.5218 99.3395 65.8778C100.353 65.2244 101.57 64.8977 102.99 64.8977C104.429 64.8977 105.627 65.2244 106.584 65.8778C107.55 66.5218 108.303 67.4261 108.842 68.5909H109.07C109.628 67.464 110.466 66.5691 111.584 65.9062C112.701 65.2339 114.041 64.8977 115.604 64.8977C117.554 64.8977 119.15 65.5085 120.391 66.7301C121.631 67.9422 122.251 69.8314 122.251 72.3977V87H118.899V72.3977C118.899 70.7879 118.459 69.6373 117.578 68.946C116.697 68.2547 115.661 67.9091 114.467 67.9091C112.933 67.9091 111.745 68.3731 110.902 69.3011C110.059 70.2197 109.638 71.3845 109.638 72.7955V87H106.229V72.0568C106.229 70.8163 105.826 69.8172 105.021 69.0597C104.216 68.2926 103.179 67.9091 101.911 67.9091C101.039 67.9091 100.225 68.1411 99.4673 68.6051C98.7192 69.0691 98.1132 69.7131 97.6491 70.5369C97.1946 71.3513 96.9673 72.2936 96.9673 73.3636V87H93.6151ZM137.528 87.4545C135.426 87.4545 133.613 86.9905 132.088 86.0625C130.573 85.125 129.403 83.8182 128.58 82.142C127.765 80.4564 127.358 78.4962 127.358 76.2614C127.358 74.0265 127.765 72.0568 128.58 70.3523C129.403 68.6383 130.549 67.303 132.017 66.3466C133.494 65.3807 135.218 64.8977 137.188 64.8977C138.324 64.8977 139.446 65.0871 140.554 65.4659C141.662 65.8447 142.67 66.4602 143.58 67.3125C144.489 68.1553 145.213 69.2727 145.753 70.6648C146.293 72.0568 146.562 73.7708 146.562 75.8068V77.2273H129.744V74.3295H143.153C143.153 73.0985 142.907 72 142.415 71.0341C141.932 70.0682 141.241 69.3059 140.341 68.7472C139.451 68.1884 138.4 67.9091 137.188 67.9091C135.852 67.9091 134.697 68.2405 133.722 68.9034C132.756 69.5568 132.012 70.4091 131.491 71.4602C130.971 72.5114 130.71 73.6383 130.71 74.8409V76.7727C130.71 78.4205 130.994 79.8172 131.562 80.9631C132.14 82.0994 132.94 82.9659 133.963 83.5625C134.986 84.1496 136.174 84.4432 137.528 84.4432C138.409 84.4432 139.205 84.3201 139.915 84.0739C140.634 83.8182 141.255 83.4394 141.776 82.9375C142.296 82.4261 142.699 81.7917 142.983 81.0341L146.222 81.9432C145.881 83.0417 145.308 84.0076 144.503 84.8409C143.698 85.6648 142.704 86.3087 141.52 86.7727C140.336 87.2273 139.006 87.4545 137.528 87.4545ZM154.105 87.2273C153.404 87.2273 152.803 86.9763 152.301 86.4744C151.799 85.9725 151.548 85.3712 151.548 84.6705C151.548 83.9697 151.799 83.3684 152.301 82.8665C152.803 82.3646 153.404 82.1136 154.105 82.1136C154.806 82.1136 155.407 82.3646 155.909 82.8665C156.411 83.3684 156.662 83.9697 156.662 84.6705C156.662 85.1345 156.544 85.5606 156.307 85.9489C156.08 86.3371 155.772 86.6496 155.384 86.8864C155.005 87.1136 154.579 87.2273 154.105 87.2273ZM154.105 71.0341C153.404 71.0341 152.803 70.7831 152.301 70.2812C151.799 69.7794 151.548 69.178 151.548 68.4773C151.548 67.7765 151.799 67.1752 152.301 66.6733C152.803 66.1714 153.404 65.9205 154.105 65.9205C154.806 65.9205 155.407 66.1714 155.909 66.6733C156.411 67.1752 156.662 67.7765 156.662 68.4773C156.662 68.9413 156.544 69.3674 156.307 69.7557C156.08 70.1439 155.772 70.4564 155.384 70.6932C155.005 70.9205 154.579 71.0341 154.105 71.0341Z" fill="white"/>
<rect x="366" y="1131" width="136" height="136" rx="27" stroke="#DBDBDB" stroke-width="2" stroke-dasharray="20 20"/>
<rect x="366" y="365" width="136" height="136" rx="27" stroke="#DBDBDB" stroke-width="2"/>
<rect x="210" y="1131" width="136" height="136" rx="27" stroke="#DBDBDB" stroke-width="2" stroke-dasharray="20 20"/>
<rect x="210" y="365" width="136" height="136" rx="27" stroke="#DBDBDB" stroke-width="2" stroke-dasharray="20 20"/>
<rect x="54" y="1131" width="136" height="136" rx="27" stroke="#DBDBDB" stroke-width="2" stroke-dasharray="20 20"/>
<rect x="54" y="365" width="136" height="136" rx="27" stroke="#DBDBDB" stroke-width="2" stroke-dasharray="20 20"/>
<rect x="1" y="1101" width="555" height="197" rx="27" stroke="#DBDBDB" stroke-width="2"/>
<rect x="1" y="335" width="555" height="197" rx="27" stroke="#DBDBDB" stroke-width="2"/>
<path d="M443.869 1200.97V1204.09H431.142V1200.97H443.869Z" fill="white"/>
<path d="M418.531 449V419.909H428.36C430.642 419.909 432.508 420.321 433.957 421.145C435.415 421.959 436.495 423.062 437.195 424.455C437.896 425.847 438.246 427.4 438.246 429.114C438.246 430.828 437.896 432.385 437.195 433.787C436.504 435.188 435.434 436.306 433.985 437.139C432.536 437.963 430.68 438.375 428.417 438.375H421.371V435.25H428.303C429.866 435.25 431.121 434.98 432.067 434.44C433.014 433.901 433.701 433.171 434.127 432.253C434.563 431.325 434.781 430.278 434.781 429.114C434.781 427.949 434.563 426.907 434.127 425.989C433.701 425.07 433.01 424.35 432.053 423.83C431.097 423.299 429.828 423.034 428.246 423.034H422.053V449H418.531ZM453.637 419.909V449H450.114V423.602H449.944L442.842 428.318V424.739L450.114 419.909H453.637Z" fill="white"/>
<path d="M284.869 1200.97V1204.09H272.142V1200.97H284.869Z" fill="white"/>
<path d="M284.869 434.966V438.091H272.142V434.966H284.869Z" fill="white"/>
<path d="M129.869 1200.97V1204.09H117.142V1200.97H129.869Z" fill="white"/>
<path d="M129.869 434.966V438.091H117.142V434.966H129.869Z" fill="white"/>
<path d="M230.833 1048.91H234.697L237.935 1053.17L238.788 1054.31L243.617 1060.73H239.754L236.572 1056.47L235.776 1055.39L230.833 1048.91ZM244.81 1043.45C244.81 1046.52 244.256 1049.17 243.148 1051.41C242.04 1053.64 240.521 1055.37 238.589 1056.58C236.657 1057.79 234.451 1058.4 231.969 1058.4C229.488 1058.4 227.282 1057.79 225.35 1056.58C223.418 1055.37 221.898 1053.64 220.79 1051.41C219.683 1049.17 219.129 1046.52 219.129 1043.45C219.129 1040.39 219.683 1037.73 220.79 1035.5C221.898 1033.27 223.418 1031.54 225.35 1030.33C227.282 1029.12 229.488 1028.51 231.969 1028.51C234.451 1028.51 236.657 1029.12 238.589 1030.33C240.521 1031.54 242.04 1033.27 243.148 1035.5C244.256 1037.73 244.81 1040.39 244.81 1043.45ZM241.401 1043.45C241.401 1040.94 240.98 1038.81 240.137 1037.08C239.304 1035.34 238.172 1034.03 236.742 1033.14C235.322 1032.25 233.731 1031.81 231.969 1031.81C230.208 1031.81 228.612 1032.25 227.183 1033.14C225.762 1034.03 224.63 1035.34 223.788 1037.08C222.954 1038.81 222.538 1040.94 222.538 1043.45C222.538 1045.97 222.954 1048.1 223.788 1049.83C224.63 1051.57 225.762 1052.88 227.183 1053.77C228.612 1054.66 230.208 1055.1 231.969 1055.1C233.731 1055.1 235.322 1054.66 236.742 1053.77C238.172 1052.88 239.304 1051.57 240.137 1049.83C240.98 1048.1 241.401 1045.97 241.401 1043.45ZM264.029 1049.08V1036.18H267.381V1058H264.029V1054.31H263.802C263.29 1055.41 262.495 1056.36 261.415 1057.13C260.336 1057.9 258.972 1058.28 257.325 1058.28C255.961 1058.28 254.749 1057.99 253.688 1057.39C252.628 1056.78 251.794 1055.87 251.188 1054.66C250.582 1053.44 250.279 1051.9 250.279 1050.05V1036.18H253.631V1049.82C253.631 1051.41 254.076 1052.68 254.967 1053.62C255.866 1054.57 257.012 1055.05 258.404 1055.05C259.237 1055.05 260.085 1054.83 260.947 1054.41C261.818 1053.98 262.547 1053.33 263.134 1052.45C263.731 1051.57 264.029 1050.44 264.029 1049.08ZM282.669 1058.45C280.567 1058.45 278.753 1057.99 277.229 1057.06C275.714 1056.12 274.544 1054.82 273.72 1053.14C272.906 1051.46 272.499 1049.5 272.499 1047.26C272.499 1045.03 272.906 1043.06 273.72 1041.35C274.544 1039.64 275.69 1038.3 277.158 1037.35C278.635 1036.38 280.358 1035.9 282.328 1035.9C283.464 1035.9 284.587 1036.09 285.695 1036.47C286.803 1036.84 287.811 1037.46 288.72 1038.31C289.629 1039.16 290.354 1040.27 290.893 1041.66C291.433 1043.06 291.703 1044.77 291.703 1046.81V1048.23H274.885V1045.33H288.294C288.294 1044.1 288.048 1043 287.555 1042.03C287.072 1041.07 286.381 1040.31 285.482 1039.75C284.591 1039.19 283.54 1038.91 282.328 1038.91C280.993 1038.91 279.838 1039.24 278.862 1039.9C277.896 1040.56 277.153 1041.41 276.632 1042.46C276.111 1043.51 275.851 1044.64 275.851 1045.84V1047.77C275.851 1049.42 276.135 1050.82 276.703 1051.96C277.281 1053.1 278.081 1053.97 279.104 1054.56C280.126 1055.15 281.315 1055.44 282.669 1055.44C283.55 1055.44 284.345 1055.32 285.055 1055.07C285.775 1054.82 286.395 1054.44 286.916 1053.94C287.437 1053.43 287.839 1052.79 288.124 1052.03L291.362 1052.94C291.021 1054.04 290.448 1055.01 289.643 1055.84C288.839 1056.66 287.844 1057.31 286.661 1057.77C285.477 1058.23 284.146 1058.45 282.669 1058.45ZM310.553 1049.08V1036.18H313.905V1058H310.553V1054.31H310.325C309.814 1055.41 309.018 1056.36 307.939 1057.13C306.859 1057.9 305.496 1058.28 303.848 1058.28C302.484 1058.28 301.272 1057.99 300.212 1057.39C299.151 1056.78 298.318 1055.87 297.712 1054.66C297.106 1053.44 296.803 1051.9 296.803 1050.05V1036.18H300.155V1049.82C300.155 1051.41 300.6 1052.68 301.49 1053.62C302.39 1054.57 303.536 1055.05 304.928 1055.05C305.761 1055.05 306.608 1054.83 307.47 1054.41C308.341 1053.98 309.071 1053.33 309.658 1052.45C310.254 1051.57 310.553 1050.44 310.553 1049.08ZM329.192 1058.45C327.09 1058.45 325.277 1057.99 323.752 1057.06C322.237 1056.12 321.067 1054.82 320.244 1053.14C319.429 1051.46 319.022 1049.5 319.022 1047.26C319.022 1045.03 319.429 1043.06 320.244 1041.35C321.067 1039.64 322.213 1038.3 323.681 1037.35C325.158 1036.38 326.882 1035.9 328.852 1035.9C329.988 1035.9 331.11 1036.09 332.218 1036.47C333.326 1036.84 334.335 1037.46 335.244 1038.31C336.153 1039.16 336.877 1040.27 337.417 1041.66C337.957 1043.06 338.227 1044.77 338.227 1046.81V1048.23H321.408V1045.33H334.817C334.817 1044.1 334.571 1043 334.079 1042.03C333.596 1041.07 332.905 1040.31 332.005 1039.75C331.115 1039.19 330.064 1038.91 328.852 1038.91C327.516 1038.91 326.361 1039.24 325.386 1039.9C324.42 1040.56 323.676 1041.41 323.156 1042.46C322.635 1043.51 322.374 1044.64 322.374 1045.84V1047.77C322.374 1049.42 322.658 1050.82 323.227 1051.96C323.804 1053.1 324.604 1053.97 325.627 1054.56C326.65 1055.15 327.838 1055.44 329.192 1055.44C330.073 1055.44 330.869 1055.32 331.579 1055.07C332.299 1054.82 332.919 1054.44 333.44 1053.94C333.96 1053.43 334.363 1052.79 334.647 1052.03L337.886 1052.94C337.545 1054.04 336.972 1055.01 336.167 1055.84C335.362 1056.66 334.368 1057.31 333.184 1057.77C332 1058.23 330.67 1058.45 329.192 1058.45Z" fill="white"/>
<path d="M230.833 282.909H234.697L237.935 287.17L238.788 288.307L243.617 294.727H239.754L236.572 290.466L235.776 289.386L230.833 282.909ZM244.81 277.455C244.81 280.523 244.256 283.174 243.148 285.409C242.04 287.644 240.521 289.367 238.589 290.58C236.657 291.792 234.451 292.398 231.969 292.398C229.488 292.398 227.282 291.792 225.35 290.58C223.418 289.367 221.898 287.644 220.79 285.409C219.683 283.174 219.129 280.523 219.129 277.455C219.129 274.386 219.683 271.735 220.79 269.5C221.898 267.265 223.418 265.542 225.35 264.33C227.282 263.117 229.488 262.511 231.969 262.511C234.451 262.511 236.657 263.117 238.589 264.33C240.521 265.542 242.04 267.265 243.148 269.5C244.256 271.735 244.81 274.386 244.81 277.455ZM241.401 277.455C241.401 274.936 240.98 272.81 240.137 271.077C239.304 269.344 238.172 268.032 236.742 267.142C235.322 266.252 233.731 265.807 231.969 265.807C230.208 265.807 228.612 266.252 227.183 267.142C225.762 268.032 224.63 269.344 223.788 271.077C222.954 272.81 222.538 274.936 222.538 277.455C222.538 279.973 222.954 282.099 223.788 283.832C224.63 285.565 225.762 286.877 227.183 287.767C228.612 288.657 230.208 289.102 231.969 289.102C233.731 289.102 235.322 288.657 236.742 287.767C238.172 286.877 239.304 285.565 240.137 283.832C240.98 282.099 241.401 279.973 241.401 277.455ZM264.029 283.08V270.182H267.381V292H264.029V288.307H263.802C263.29 289.415 262.495 290.357 261.415 291.134C260.336 291.901 258.972 292.284 257.325 292.284C255.961 292.284 254.749 291.986 253.688 291.389C252.628 290.783 251.794 289.874 251.188 288.662C250.582 287.44 250.279 285.902 250.279 284.045V270.182H253.631V283.818C253.631 285.409 254.076 286.678 254.967 287.625C255.866 288.572 257.012 289.045 258.404 289.045C259.237 289.045 260.085 288.832 260.947 288.406C261.818 287.98 262.547 287.327 263.134 286.446C263.731 285.565 264.029 284.443 264.029 283.08ZM282.669 292.455C280.567 292.455 278.753 291.991 277.229 291.062C275.714 290.125 274.544 288.818 273.72 287.142C272.906 285.456 272.499 283.496 272.499 281.261C272.499 279.027 272.906 277.057 273.72 275.352C274.544 273.638 275.69 272.303 277.158 271.347C278.635 270.381 280.358 269.898 282.328 269.898C283.464 269.898 284.587 270.087 285.695 270.466C286.803 270.845 287.811 271.46 288.72 272.312C289.629 273.155 290.354 274.273 290.893 275.665C291.433 277.057 291.703 278.771 291.703 280.807V282.227H274.885V279.33H288.294C288.294 278.098 288.048 277 287.555 276.034C287.072 275.068 286.381 274.306 285.482 273.747C284.591 273.188 283.54 272.909 282.328 272.909C280.993 272.909 279.838 273.241 278.862 273.903C277.896 274.557 277.153 275.409 276.632 276.46C276.111 277.511 275.851 278.638 275.851 279.841V281.773C275.851 283.42 276.135 284.817 276.703 285.963C277.281 287.099 278.081 287.966 279.104 288.562C280.126 289.15 281.315 289.443 282.669 289.443C283.55 289.443 284.345 289.32 285.055 289.074C285.775 288.818 286.395 288.439 286.916 287.938C287.437 287.426 287.839 286.792 288.124 286.034L291.362 286.943C291.021 288.042 290.448 289.008 289.643 289.841C288.839 290.665 287.844 291.309 286.661 291.773C285.477 292.227 284.146 292.455 282.669 292.455ZM310.553 283.08V270.182H313.905V292H310.553V288.307H310.325C309.814 289.415 309.018 290.357 307.939 291.134C306.859 291.901 305.496 292.284 303.848 292.284C302.484 292.284 301.272 291.986 300.212 291.389C299.151 290.783 298.318 289.874 297.712 288.662C297.106 287.44 296.803 285.902 296.803 284.045V270.182H300.155V283.818C300.155 285.409 300.6 286.678 301.49 287.625C302.39 288.572 303.536 289.045 304.928 289.045C305.761 289.045 306.608 288.832 307.47 288.406C308.341 287.98 309.071 287.327 309.658 286.446C310.254 285.565 310.553 284.443 310.553 283.08ZM329.192 292.455C327.09 292.455 325.277 291.991 323.752 291.062C322.237 290.125 321.067 288.818 320.244 287.142C319.429 285.456 319.022 283.496 319.022 281.261C319.022 279.027 319.429 277.057 320.244 275.352C321.067 273.638 322.213 272.303 323.681 271.347C325.158 270.381 326.882 269.898 328.852 269.898C329.988 269.898 331.11 270.087 332.218 270.466C333.326 270.845 334.335 271.46 335.244 272.312C336.153 273.155 336.877 274.273 337.417 275.665C337.957 277.057 338.227 278.771 338.227 280.807V282.227H321.408V279.33H334.817C334.817 278.098 334.571 277 334.079 276.034C333.596 275.068 332.905 274.306 332.005 273.747C331.115 273.188 330.064 272.909 328.852 272.909C327.516 272.909 326.361 273.241 325.386 273.903C324.42 274.557 323.676 275.409 323.156 276.46C322.635 277.511 322.374 278.638 322.374 279.841V281.773C322.374 283.42 322.658 284.817 323.227 285.963C323.804 287.099 324.604 287.966 325.627 288.562C326.65 289.15 327.838 289.443 329.192 289.443C330.073 289.443 330.869 289.32 331.579 289.074C332.299 288.818 332.919 288.439 333.44 287.938C333.96 287.426 334.363 286.792 334.647 286.034L337.886 286.943C337.545 288.042 336.972 289.008 336.167 289.841C335.362 290.665 334.368 291.309 333.184 291.773C332 292.227 330.67 292.455 329.192 292.455Z" fill="white"/>
<path d="M1043.36 992H1039.84C1039.63 990.987 1039.27 990.097 1038.75 989.33C1038.23 988.562 1037.61 987.919 1036.87 987.398C1036.14 986.867 1035.33 986.47 1034.44 986.205C1033.55 985.939 1032.62 985.807 1031.66 985.807C1029.9 985.807 1028.3 986.252 1026.87 987.142C1025.45 988.032 1024.32 989.344 1023.48 991.077C1022.64 992.81 1022.23 994.936 1022.23 997.455C1022.23 999.973 1022.64 1002.1 1023.48 1003.83C1024.32 1005.57 1025.45 1006.88 1026.87 1007.77C1028.3 1008.66 1029.9 1009.1 1031.66 1009.1C1032.62 1009.1 1033.55 1008.97 1034.44 1008.7C1035.33 1008.44 1036.14 1008.05 1036.87 1007.53C1037.61 1007 1038.23 1006.35 1038.75 1005.58C1039.27 1004.8 1039.63 1003.91 1039.84 1002.91H1043.36C1043.1 1004.4 1042.61 1005.73 1041.91 1006.9C1041.21 1008.07 1040.34 1009.07 1039.3 1009.9C1038.26 1010.71 1037.09 1011.33 1035.79 1011.76C1034.5 1012.18 1033.12 1012.4 1031.66 1012.4C1029.18 1012.4 1026.97 1011.79 1025.04 1010.58C1023.11 1009.37 1021.59 1007.64 1020.48 1005.41C1019.37 1003.17 1018.82 1000.52 1018.82 997.455C1018.82 994.386 1019.37 991.735 1020.48 989.5C1021.59 987.265 1023.11 985.542 1025.04 984.33C1026.97 983.117 1029.18 982.511 1031.66 982.511C1033.12 982.511 1034.5 982.724 1035.79 983.151C1037.09 983.577 1038.26 984.202 1039.3 985.026C1040.34 985.84 1041.21 986.834 1041.91 988.009C1042.61 989.173 1043.1 990.504 1043.36 992ZM1049.05 1012V982.909H1058.88C1061.17 982.909 1063.03 983.321 1064.48 984.145C1065.94 984.959 1067.02 986.062 1067.72 987.455C1068.42 988.847 1068.77 990.4 1068.77 992.114C1068.77 993.828 1068.42 995.385 1067.72 996.787C1067.03 998.188 1065.96 999.306 1064.51 1000.14C1063.06 1000.96 1061.2 1001.38 1058.94 1001.38H1051.89V998.25H1058.83C1060.39 998.25 1061.64 997.98 1062.59 997.44C1063.54 996.901 1064.22 996.171 1064.65 995.253C1065.09 994.325 1065.3 993.278 1065.3 992.114C1065.3 990.949 1065.09 989.907 1064.65 988.989C1064.22 988.07 1063.53 987.35 1062.58 986.83C1061.62 986.299 1060.35 986.034 1058.77 986.034H1052.58V1012H1049.05ZM1093.54 982.909H1097.06V1002.17C1097.06 1004.16 1096.59 1005.93 1095.65 1007.5C1094.72 1009.05 1093.41 1010.28 1091.72 1011.18C1090.02 1012.07 1088.03 1012.51 1085.75 1012.51C1083.47 1012.51 1081.48 1012.07 1079.79 1011.18C1078.09 1010.28 1076.77 1009.05 1075.84 1007.5C1074.91 1005.93 1074.44 1004.16 1074.44 1002.17V982.909H1077.97V1001.89C1077.97 1003.31 1078.28 1004.57 1078.9 1005.68C1079.53 1006.78 1080.42 1007.64 1081.58 1008.28C1082.74 1008.9 1084.13 1009.22 1085.75 1009.22C1087.37 1009.22 1088.76 1008.9 1089.93 1008.28C1091.09 1007.64 1091.98 1006.78 1092.6 1005.68C1093.22 1004.57 1093.54 1003.31 1093.54 1001.89V982.909Z" fill="white"/>
<path d="M1043.36 226H1039.84C1039.63 224.987 1039.27 224.097 1038.75 223.33C1038.23 222.562 1037.61 221.919 1036.87 221.398C1036.14 220.867 1035.33 220.47 1034.44 220.205C1033.55 219.939 1032.62 219.807 1031.66 219.807C1029.9 219.807 1028.3 220.252 1026.87 221.142C1025.45 222.032 1024.32 223.344 1023.48 225.077C1022.64 226.81 1022.23 228.936 1022.23 231.455C1022.23 233.973 1022.64 236.099 1023.48 237.832C1024.32 239.565 1025.45 240.877 1026.87 241.767C1028.3 242.657 1029.9 243.102 1031.66 243.102C1032.62 243.102 1033.55 242.97 1034.44 242.705C1035.33 242.439 1036.14 242.046 1036.87 241.526C1037.61 240.995 1038.23 240.347 1038.75 239.58C1039.27 238.803 1039.63 237.913 1039.84 236.909H1043.36C1043.1 238.396 1042.61 239.726 1041.91 240.901C1041.21 242.075 1040.34 243.074 1039.3 243.898C1038.26 244.712 1037.09 245.332 1035.79 245.759C1034.5 246.185 1033.12 246.398 1031.66 246.398C1029.18 246.398 1026.97 245.792 1025.04 244.58C1023.11 243.367 1021.59 241.644 1020.48 239.409C1019.37 237.174 1018.82 234.523 1018.82 231.455C1018.82 228.386 1019.37 225.735 1020.48 223.5C1021.59 221.265 1023.11 219.542 1025.04 218.33C1026.97 217.117 1029.18 216.511 1031.66 216.511C1033.12 216.511 1034.5 216.724 1035.79 217.151C1037.09 217.577 1038.26 218.202 1039.3 219.026C1040.34 219.84 1041.21 220.834 1041.91 222.009C1042.61 223.173 1043.1 224.504 1043.36 226ZM1049.05 246V216.909H1058.88C1061.17 216.909 1063.03 217.321 1064.48 218.145C1065.94 218.959 1067.02 220.062 1067.72 221.455C1068.42 222.847 1068.77 224.4 1068.77 226.114C1068.77 227.828 1068.42 229.385 1067.72 230.787C1067.03 232.188 1065.96 233.306 1064.51 234.139C1063.06 234.963 1061.2 235.375 1058.94 235.375H1051.89V232.25H1058.83C1060.39 232.25 1061.64 231.98 1062.59 231.44C1063.54 230.901 1064.22 230.171 1064.65 229.253C1065.09 228.325 1065.3 227.278 1065.3 226.114C1065.3 224.949 1065.09 223.907 1064.65 222.989C1064.22 222.07 1063.53 221.35 1062.58 220.83C1061.62 220.299 1060.35 220.034 1058.77 220.034H1052.58V246H1049.05ZM1093.54 216.909H1097.06V236.17C1097.06 238.159 1096.59 239.935 1095.65 241.497C1094.72 243.05 1093.41 244.277 1091.72 245.176C1090.02 246.066 1088.03 246.511 1085.75 246.511C1083.47 246.511 1081.48 246.066 1079.79 245.176C1078.09 244.277 1076.77 243.05 1075.84 241.497C1074.91 239.935 1074.44 238.159 1074.44 236.17V216.909H1077.97V235.886C1077.97 237.307 1078.28 238.571 1078.9 239.679C1079.53 240.777 1080.42 241.644 1081.58 242.278C1082.74 242.903 1084.13 243.216 1085.75 243.216C1087.37 243.216 1088.76 242.903 1089.93 242.278C1091.09 241.644 1091.98 240.777 1092.6 239.679C1093.22 238.571 1093.54 237.307 1093.54 235.886V216.909Z" fill="white"/>
<path d="M472.375 1326.25L488.625 1342.5L472.375 1358.75" stroke="#DBDBDB" stroke-width="4" stroke-linecap="round" stroke-linejoin="round"/>
<path d="M472.375 560.25L488.625 576.5L472.375 592.75" stroke="#DBDBDB" stroke-width="4" stroke-linecap="round" stroke-linejoin="round"/>
<line x1="67" y1="1342.5" x2="486" y2="1342.5" stroke="#DBDBDB" stroke-width="5"/>
<line x1="67" y1="576.5" x2="486" y2="576.5" stroke="#DBDBDB" stroke-width="5"/>
<line x1="924" y1="1175" x2="1193" y2="1175" stroke="white" stroke-width="2"/>
<line x1="924" y1="409" x2="1193" y2="409" stroke="white" stroke-width="2"/>
<line x1="1083.5" y1="1065.5" x2="1083.5" y2="1334.5" stroke="white" stroke-width="2"/>
<line x1="1083.5" y1="299.5" x2="1083.5" y2="568.5" stroke="white" stroke-width="2"/>
<line x1="924" y1="1199" x2="1193" y2="1199" stroke="white" stroke-width="2"/>
<line x1="924" y1="433" x2="1193" y2="433" stroke="white" stroke-width="2"/>
<line x1="1059.5" y1="1065.5" x2="1059.5" y2="1334.5" stroke="white" stroke-width="2"/>
<line x1="1059.5" y1="299.5" x2="1059.5" y2="568.5" stroke="white" stroke-width="2"/>
<line x1="924" y1="1223" x2="1193" y2="1223" stroke="white" stroke-width="2"/>
<line x1="924" y1="457" x2="1193" y2="457" stroke="white" stroke-width="2"/>
<line x1="1035.5" y1="1065.5" x2="1035.5" y2="1334.5" stroke="white" stroke-width="2"/>
<line x1="1035.5" y1="299.5" x2="1035.5" y2="568.5" stroke="white" stroke-width="2"/>
<rect x="961" y="1102" width="196" height="196" rx="27" fill="#18181B" stroke="#DBDBDB" stroke-width="2"/>
<rect x="961" y="336" width="196" height="196" rx="27" fill="#18181B" stroke="#DBDBDB" stroke-width="2"/>
<rect x="991" y="1131" width="136" height="136" rx="27" stroke="#DBDBDB" stroke-width="2"/>
<path d="M1040.52 1215V1185.91H1050.35C1052.63 1185.91 1054.5 1186.32 1055.95 1187.14C1057.41 1187.96 1058.49 1189.06 1059.19 1190.45C1059.89 1191.85 1060.24 1193.4 1060.24 1195.11C1060.24 1196.83 1059.89 1198.39 1059.19 1199.79C1058.5 1201.19 1057.43 1202.31 1055.98 1203.14C1054.53 1203.96 1052.67 1204.38 1050.41 1204.38H1043.36V1201.25H1050.3C1051.86 1201.25 1053.11 1200.98 1054.06 1200.44C1055.01 1199.9 1055.69 1199.17 1056.12 1198.25C1056.55 1197.32 1056.77 1196.28 1056.77 1195.11C1056.77 1193.95 1056.55 1192.91 1056.12 1191.99C1055.69 1191.07 1055 1190.35 1054.05 1189.83C1053.09 1189.3 1051.82 1189.03 1050.24 1189.03H1044.05V1215H1040.52ZM1075.63 1185.91V1215H1072.11V1189.6H1071.94L1064.83 1194.32V1190.74L1072.11 1185.91H1075.63Z" fill="white"/>
<path d="M1002.6 449V419.909H1020.16V423.034H1006.12V432.864H1019.25V435.989H1006.12V445.875H1020.38V449H1002.6ZM1026.05 449V427.182H1029.29V430.591H1029.58C1030.03 429.426 1030.76 428.522 1031.78 427.878C1032.79 427.224 1034.01 426.898 1035.43 426.898C1036.87 426.898 1038.06 427.224 1039.02 427.878C1039.99 428.522 1040.74 429.426 1041.28 430.591H1041.51C1042.07 429.464 1042.9 428.569 1044.02 427.906C1045.14 427.234 1046.48 426.898 1048.04 426.898C1049.99 426.898 1051.59 427.509 1052.83 428.73C1054.07 429.942 1054.69 431.831 1054.69 434.398V449H1051.34V434.398C1051.34 432.788 1050.9 431.637 1050.02 430.946C1049.13 430.255 1048.1 429.909 1046.9 429.909C1045.37 429.909 1044.18 430.373 1043.34 431.301C1042.5 432.22 1042.08 433.384 1042.08 434.795V449H1038.67V434.057C1038.67 432.816 1038.26 431.817 1037.46 431.06C1036.65 430.293 1035.62 429.909 1034.35 429.909C1033.48 429.909 1032.66 430.141 1031.9 430.605C1031.16 431.069 1030.55 431.713 1030.09 432.537C1029.63 433.351 1029.4 434.294 1029.4 435.364V449H1026.05ZM1060.82 457.182V427.182H1064.06V430.648H1064.45C1064.7 430.269 1065.04 429.786 1065.48 429.199C1065.92 428.602 1066.56 428.072 1067.38 427.608C1068.21 427.134 1069.34 426.898 1070.76 426.898C1072.6 426.898 1074.22 427.357 1075.62 428.276C1077.02 429.194 1078.11 430.496 1078.9 432.182C1079.69 433.867 1080.08 435.856 1080.08 438.148C1080.08 440.458 1079.69 442.461 1078.9 444.156C1078.11 445.842 1077.03 447.149 1075.63 448.077C1074.24 448.995 1072.64 449.455 1070.82 449.455C1069.42 449.455 1068.29 449.223 1067.45 448.759C1066.61 448.285 1065.96 447.75 1065.51 447.153C1065.05 446.547 1064.7 446.045 1064.45 445.648H1064.17V457.182H1060.82ZM1064.11 438.091C1064.11 439.739 1064.36 441.192 1064.84 442.452C1065.32 443.702 1066.03 444.682 1066.95 445.392C1067.88 446.093 1069.02 446.443 1070.36 446.443C1071.77 446.443 1072.93 446.074 1073.87 445.335C1074.82 444.587 1075.53 443.583 1076 442.324C1076.49 441.055 1076.73 439.644 1076.73 438.091C1076.73 436.557 1076.49 435.174 1076.02 433.943C1075.55 432.703 1074.85 431.723 1073.9 431.003C1072.96 430.274 1071.78 429.909 1070.36 429.909C1069 429.909 1067.85 430.255 1066.93 430.946C1066 431.628 1065.3 432.584 1064.82 433.815C1064.35 435.037 1064.11 436.462 1064.11 438.091ZM1094.68 427.182V430.023H1083.38V427.182H1094.68ZM1086.67 421.955H1090.02V442.75C1090.02 443.697 1090.16 444.407 1090.43 444.881C1090.72 445.345 1091.08 445.657 1091.51 445.818C1091.96 445.97 1092.43 446.045 1092.92 446.045C1093.29 446.045 1093.59 446.027 1093.83 445.989C1094.07 445.941 1094.26 445.903 1094.4 445.875L1095.08 448.886C1094.85 448.972 1094.54 449.057 1094.13 449.142C1093.72 449.237 1093.2 449.284 1092.58 449.284C1091.63 449.284 1090.7 449.08 1089.8 448.673C1088.9 448.266 1088.15 447.646 1087.55 446.812C1086.96 445.979 1086.67 444.928 1086.67 443.659V421.955ZM1101.88 457.182C1101.32 457.182 1100.81 457.134 1100.36 457.04C1099.92 456.955 1099.61 456.869 1099.44 456.784L1100.29 453.83C1101.11 454.038 1101.83 454.114 1102.45 454.057C1103.08 454 1103.63 453.721 1104.11 453.219C1104.61 452.726 1105.06 451.926 1105.46 450.818L1106.09 449.114L1098.02 427.182H1101.66L1107.68 444.568H1107.91L1113.93 427.182H1117.57L1108.3 452.182C1107.89 453.309 1107.37 454.241 1106.76 454.98C1106.14 455.728 1105.43 456.282 1104.61 456.642C1103.81 457.002 1102.9 457.182 1101.88 457.182Z" fill="white"/>
<path d="M849.276 1196.15L871.636 1201.46L866.328 1223.82" stroke="#DBDBDB" stroke-width="4" stroke-linecap="round" stroke-linejoin="round"/>
<path d="M594 1204C709.08 1256.37 769.748 1258.8 869.5 1204" stroke="#DBDBDB" stroke-width="4"/>
<path d="M647.523 1197V1167.91H657.352C659.634 1167.91 661.5 1168.32 662.949 1169.14C664.407 1169.96 665.487 1171.06 666.188 1172.45C666.888 1173.85 667.239 1175.4 667.239 1177.11C667.239 1178.83 666.888 1180.39 666.188 1181.79C665.496 1183.19 664.426 1184.31 662.977 1185.14C661.528 1185.96 659.672 1186.38 657.409 1186.38H650.364V1183.25H657.295C658.858 1183.25 660.113 1182.98 661.06 1182.44C662.007 1181.9 662.693 1181.17 663.119 1180.25C663.555 1179.32 663.773 1178.28 663.773 1177.11C663.773 1175.95 663.555 1174.91 663.119 1173.99C662.693 1173.07 662.002 1172.35 661.045 1171.83C660.089 1171.3 658.82 1171.03 657.239 1171.03H651.045V1197H647.523ZM682.629 1167.91V1197H679.107V1171.6H678.936L671.834 1176.32V1172.74L679.107 1167.91H682.629ZM711.45 1197.45C709.348 1197.45 707.535 1196.99 706.01 1196.06C704.495 1195.12 703.325 1193.82 702.501 1192.14C701.687 1190.46 701.28 1188.5 701.28 1186.26C701.28 1184.03 701.687 1182.06 702.501 1180.35C703.325 1178.64 704.471 1177.3 705.939 1176.35C707.416 1175.38 709.14 1174.9 711.109 1174.9C712.246 1174.9 713.368 1175.09 714.476 1175.47C715.584 1175.84 716.592 1176.46 717.501 1177.31C718.411 1178.16 719.135 1179.27 719.675 1180.66C720.214 1182.06 720.484 1183.77 720.484 1185.81V1187.23H703.666V1184.33H717.075C717.075 1183.1 716.829 1182 716.337 1181.03C715.854 1180.07 715.162 1179.31 714.263 1178.75C713.373 1178.19 712.321 1177.91 711.109 1177.91C709.774 1177.91 708.619 1178.24 707.643 1178.9C706.678 1179.56 705.934 1180.41 705.413 1181.46C704.893 1182.51 704.632 1183.64 704.632 1184.84V1186.77C704.632 1188.42 704.916 1189.82 705.484 1190.96C706.062 1192.1 706.862 1192.97 707.885 1193.56C708.908 1194.15 710.096 1194.44 711.45 1194.44C712.331 1194.44 713.126 1194.32 713.837 1194.07C714.556 1193.82 715.177 1193.44 715.697 1192.94C716.218 1192.43 716.621 1191.79 716.905 1191.03L720.143 1191.94C719.803 1193.04 719.23 1194.01 718.425 1194.84C717.62 1195.66 716.625 1196.31 715.442 1196.77C714.258 1197.23 712.928 1197.45 711.45 1197.45ZM728.936 1183.88V1197H725.584V1175.18H728.822V1178.59H729.107C729.618 1177.48 730.394 1176.59 731.436 1175.92C732.478 1175.24 733.822 1174.9 735.47 1174.9C736.947 1174.9 738.24 1175.2 739.348 1175.81C740.456 1176.4 741.318 1177.31 741.933 1178.53C742.549 1179.75 742.857 1181.28 742.857 1183.14V1197H739.504V1183.36C739.504 1181.65 739.059 1180.31 738.169 1179.36C737.279 1178.39 736.057 1177.91 734.504 1177.91C733.434 1177.91 732.478 1178.14 731.635 1178.61C730.802 1179.07 730.143 1179.75 729.661 1180.64C729.178 1181.53 728.936 1182.61 728.936 1183.88ZM758.471 1175.18V1178.02H747.164V1175.18H758.471ZM750.46 1169.95H753.812V1190.75C753.812 1191.7 753.949 1192.41 754.224 1192.88C754.508 1193.34 754.868 1193.66 755.303 1193.82C755.748 1193.97 756.217 1194.05 756.71 1194.05C757.079 1194.05 757.382 1194.03 757.619 1193.99C757.855 1193.94 758.045 1193.9 758.187 1193.88L758.869 1196.89C758.641 1196.97 758.324 1197.06 757.917 1197.14C757.51 1197.24 756.994 1197.28 756.369 1197.28C755.422 1197.28 754.494 1197.08 753.585 1196.67C752.685 1196.27 751.937 1195.65 751.34 1194.81C750.753 1193.98 750.46 1192.93 750.46 1191.66V1169.95ZM772.427 1197.45C770.325 1197.45 768.511 1196.99 766.987 1196.06C765.471 1195.12 764.302 1193.82 763.478 1192.14C762.664 1190.46 762.256 1188.5 762.256 1186.26C762.256 1184.03 762.664 1182.06 763.478 1180.35C764.302 1178.64 765.448 1177.3 766.915 1176.35C768.393 1175.38 770.116 1174.9 772.086 1174.9C773.222 1174.9 774.344 1175.09 775.452 1175.47C776.56 1175.84 777.569 1176.46 778.478 1177.31C779.387 1178.16 780.112 1179.27 780.651 1180.66C781.191 1182.06 781.461 1183.77 781.461 1185.81V1187.23H764.643V1184.33H778.052C778.052 1183.1 777.806 1182 777.313 1181.03C776.83 1180.07 776.139 1179.31 775.239 1178.75C774.349 1178.19 773.298 1177.91 772.086 1177.91C770.751 1177.91 769.595 1178.24 768.62 1178.9C767.654 1179.56 766.911 1180.41 766.39 1181.46C765.869 1182.51 765.609 1183.64 765.609 1184.84V1186.77C765.609 1188.42 765.893 1189.82 766.461 1190.96C767.039 1192.1 767.839 1192.97 768.862 1193.56C769.884 1194.15 771.073 1194.44 772.427 1194.44C773.308 1194.44 774.103 1194.32 774.813 1194.07C775.533 1193.82 776.153 1193.44 776.674 1192.94C777.195 1192.43 777.597 1191.79 777.881 1191.03L781.12 1191.94C780.779 1193.04 780.206 1194.01 779.401 1194.84C778.596 1195.66 777.602 1196.31 776.418 1196.77C775.235 1197.23 773.904 1197.45 772.427 1197.45ZM786.56 1197V1175.18H789.799V1178.48H790.026C790.424 1177.4 791.144 1176.52 792.185 1175.85C793.227 1175.18 794.401 1174.84 795.708 1174.84C795.954 1174.84 796.262 1174.85 796.631 1174.86C797.001 1174.86 797.28 1174.88 797.469 1174.9V1178.31C797.356 1178.28 797.095 1178.24 796.688 1178.18C796.29 1178.11 795.869 1178.08 795.424 1178.08C794.363 1178.08 793.416 1178.3 792.583 1178.75C791.759 1179.18 791.106 1179.79 790.623 1180.57C790.149 1181.33 789.913 1182.21 789.913 1183.19V1197H786.56ZM816.898 1180.07L813.886 1180.92C813.697 1180.42 813.418 1179.93 813.048 1179.46C812.688 1178.97 812.196 1178.58 811.571 1178.26C810.946 1177.95 810.146 1177.8 809.17 1177.8C807.835 1177.8 806.723 1178.1 805.832 1178.72C804.952 1179.32 804.511 1180.1 804.511 1181.03C804.511 1181.87 804.814 1182.53 805.42 1183.01C806.027 1183.49 806.973 1183.89 808.261 1184.22L811.5 1185.01C813.451 1185.48 814.904 1186.21 815.861 1187.18C816.817 1188.15 817.295 1189.4 817.295 1190.92C817.295 1192.17 816.936 1193.29 816.216 1194.27C815.506 1195.26 814.511 1196.03 813.233 1196.6C811.955 1197.17 810.468 1197.45 808.773 1197.45C806.547 1197.45 804.705 1196.97 803.247 1196.01C801.789 1195.04 800.866 1193.63 800.477 1191.77L803.659 1190.98C803.962 1192.15 804.535 1193.03 805.378 1193.62C806.23 1194.21 807.343 1194.5 808.716 1194.5C810.278 1194.5 811.519 1194.17 812.438 1193.51C813.366 1192.83 813.83 1192.03 813.83 1191.09C813.83 1190.33 813.564 1189.7 813.034 1189.19C812.504 1188.67 811.689 1188.28 810.591 1188.02L806.955 1187.17C804.956 1186.7 803.489 1185.96 802.551 1184.97C801.623 1183.96 801.159 1182.71 801.159 1181.2C801.159 1179.97 801.505 1178.88 802.196 1177.94C802.897 1176.99 803.848 1176.25 805.051 1175.71C806.263 1175.17 807.636 1174.9 809.17 1174.9C811.33 1174.9 813.025 1175.37 814.256 1176.32C815.496 1177.27 816.377 1178.52 816.898 1180.07Z" fill="white"/>
<path d="M661.557 1283.18V1286.02H650.25V1283.18H661.557ZM653.545 1277.95H656.898V1298.75C656.898 1299.7 657.035 1300.41 657.31 1300.88C657.594 1301.34 657.954 1301.66 658.389 1301.82C658.834 1301.97 659.303 1302.05 659.795 1302.05C660.165 1302.05 660.468 1302.03 660.705 1301.99C660.941 1301.94 661.131 1301.9 661.273 1301.88L661.955 1304.89C661.727 1304.97 661.41 1305.06 661.003 1305.14C660.596 1305.24 660.08 1305.28 659.455 1305.28C658.508 1305.28 657.58 1305.08 656.67 1304.67C655.771 1304.27 655.023 1303.65 654.426 1302.81C653.839 1301.98 653.545 1300.93 653.545 1299.66V1277.95ZM670.42 1291.88V1305H667.068V1275.91H670.42V1286.59H670.705C671.216 1285.46 671.983 1284.57 673.006 1283.91C674.038 1283.23 675.411 1282.9 677.125 1282.9C678.612 1282.9 679.914 1283.2 681.031 1283.79C682.149 1284.38 683.015 1285.28 683.631 1286.51C684.256 1287.72 684.568 1289.26 684.568 1291.14V1305H681.216V1291.36C681.216 1289.63 680.766 1288.29 679.866 1287.34C678.976 1286.39 677.741 1285.91 676.159 1285.91C675.061 1285.91 674.076 1286.14 673.205 1286.61C672.343 1287.07 671.661 1287.75 671.159 1288.64C670.667 1289.53 670.42 1290.61 670.42 1291.88ZM699.849 1305.45C697.746 1305.45 695.933 1304.99 694.408 1304.06C692.893 1303.12 691.724 1301.82 690.9 1300.14C690.085 1298.46 689.678 1296.5 689.678 1294.26C689.678 1292.03 690.085 1290.06 690.9 1288.35C691.724 1286.64 692.87 1285.3 694.337 1284.35C695.815 1283.38 697.538 1282.9 699.508 1282.9C700.644 1282.9 701.766 1283.09 702.874 1283.47C703.982 1283.84 704.991 1284.46 705.9 1285.31C706.809 1286.16 707.533 1287.27 708.073 1288.66C708.613 1290.06 708.883 1291.77 708.883 1293.81V1295.23H692.065V1292.33H705.474C705.474 1291.1 705.228 1290 704.735 1289.03C704.252 1288.07 703.561 1287.31 702.661 1286.75C701.771 1286.19 700.72 1285.91 699.508 1285.91C698.173 1285.91 697.017 1286.24 696.042 1286.9C695.076 1287.56 694.333 1288.41 693.812 1289.46C693.291 1290.51 693.031 1291.64 693.031 1292.84V1294.77C693.031 1296.42 693.315 1297.82 693.883 1298.96C694.46 1300.1 695.261 1300.97 696.283 1301.56C697.306 1302.15 698.495 1302.44 699.849 1302.44C700.729 1302.44 701.525 1302.32 702.235 1302.07C702.955 1301.82 703.575 1301.44 704.096 1300.94C704.617 1300.43 705.019 1299.79 705.303 1299.03L708.542 1299.94C708.201 1301.04 707.628 1302.01 706.823 1302.84C706.018 1303.66 705.024 1304.31 703.84 1304.77C702.656 1305.23 701.326 1305.45 699.849 1305.45ZM749.096 1285H745.573C745.365 1283.99 745 1283.1 744.479 1282.33C743.968 1281.56 743.343 1280.92 742.604 1280.4C741.875 1279.87 741.066 1279.47 740.175 1279.2C739.285 1278.94 738.357 1278.81 737.391 1278.81C735.63 1278.81 734.034 1279.25 732.604 1280.14C731.184 1281.03 730.052 1282.34 729.21 1284.08C728.376 1285.81 727.96 1287.94 727.96 1290.45C727.96 1292.97 728.376 1295.1 729.21 1296.83C730.052 1298.57 731.184 1299.88 732.604 1300.77C734.034 1301.66 735.63 1302.1 737.391 1302.1C738.357 1302.1 739.285 1301.97 740.175 1301.7C741.066 1301.44 741.875 1301.05 742.604 1300.53C743.343 1300 743.968 1299.35 744.479 1298.58C745 1297.8 745.365 1296.91 745.573 1295.91H749.096C748.831 1297.4 748.348 1298.73 747.647 1299.9C746.946 1301.07 746.075 1302.07 745.033 1302.9C743.992 1303.71 742.822 1304.33 741.525 1304.76C740.237 1305.18 738.859 1305.4 737.391 1305.4C734.91 1305.4 732.704 1304.79 730.772 1303.58C728.84 1302.37 727.32 1300.64 726.212 1298.41C725.104 1296.17 724.55 1293.52 724.55 1290.45C724.55 1287.39 725.104 1284.73 726.212 1282.5C727.32 1280.27 728.84 1278.54 730.772 1277.33C732.704 1276.12 734.91 1275.51 737.391 1275.51C738.859 1275.51 740.237 1275.72 741.525 1276.15C742.822 1276.58 743.992 1277.2 745.033 1278.03C746.075 1278.84 746.946 1279.83 747.647 1281.01C748.348 1282.17 748.831 1283.5 749.096 1285ZM754.788 1305V1275.91H764.618C766.9 1275.91 768.766 1276.32 770.214 1277.14C771.673 1277.96 772.752 1279.06 773.453 1280.45C774.154 1281.85 774.504 1283.4 774.504 1285.11C774.504 1286.83 774.154 1288.39 773.453 1289.79C772.762 1291.19 771.692 1292.31 770.243 1293.14C768.794 1293.96 766.938 1294.38 764.675 1294.38H757.629V1291.25H764.561C766.124 1291.25 767.378 1290.98 768.325 1290.44C769.272 1289.9 769.959 1289.17 770.385 1288.25C770.821 1287.32 771.038 1286.28 771.038 1285.11C771.038 1283.95 770.821 1282.91 770.385 1281.99C769.959 1281.07 769.268 1280.35 768.311 1279.83C767.355 1279.3 766.086 1279.03 764.504 1279.03H758.311V1305H754.788ZM799.27 1275.91H802.793V1295.17C802.793 1297.16 802.324 1298.93 801.386 1300.5C800.458 1302.05 799.147 1303.28 797.452 1304.18C795.757 1305.07 793.768 1305.51 791.486 1305.51C789.204 1305.51 787.215 1305.07 785.52 1304.18C783.825 1303.28 782.509 1302.05 781.571 1300.5C780.643 1298.93 780.179 1297.16 780.179 1295.17V1275.91H783.702V1294.89C783.702 1296.31 784.014 1297.57 784.639 1298.68C785.264 1299.78 786.154 1300.64 787.31 1301.28C788.474 1301.9 789.866 1302.22 791.486 1302.22C793.105 1302.22 794.497 1301.9 795.662 1301.28C796.827 1300.64 797.717 1299.78 798.332 1298.68C798.957 1297.57 799.27 1296.31 799.27 1294.89V1275.91Z" fill="white"/>
</svg>
