<svg xmlns="http://www.w3.org/2000/svg" width="1193" height="609" fill="none" viewBox="0 0 1193 609"><rect width="213" height="77" x="1" y="129" stroke="#dbdbdb" stroke-width="2" rx="27"/><path fill="#fff" d="M70.07 183v-2.557l9.602-10.511a67 67 0 0 0 2.784-3.21q1.095-1.379 1.62-2.586.54-1.221.54-2.556 0-1.535-.74-2.657-.723-1.121-1.988-1.733-1.265-.61-2.84-.61-1.677 0-2.927.696a4.8 4.8 0 0 0-1.917 1.917q-.669 1.236-.668 2.898h-3.352q0-2.557 1.179-4.489a8.2 8.2 0 0 1 3.21-3.011q2.045-1.08 4.588-1.08 2.557 0 4.531 1.08t3.097 2.912 1.122 4.077q0 1.605-.582 3.139-.569 1.52-1.99 3.395-1.406 1.86-3.905 4.545l-6.534 6.989v.227h13.522V183zm24.276 0v-21.818h3.238v3.409h.284q.682-1.747 2.202-2.713 1.52-.98 3.651-.98 2.159 0 3.593.98 1.449.966 2.259 2.713h.227q.838-1.69 2.514-2.685 1.677-1.008 4.02-1.008 2.927 0 4.787 1.832 1.861 1.818 1.861 5.668V183h-3.352v-14.602q0-2.415-1.321-3.452t-3.111-1.037q-2.301 0-3.566 1.392-1.263 1.378-1.264 3.494V183h-3.409v-14.943q0-1.862-1.207-2.997-1.207-1.15-3.111-1.151-1.307 0-2.443.696-1.122.696-1.818 1.932-.682 1.221-.682 2.827V183zm50.22-16.932-3.012.852a5.6 5.6 0 0 0-.838-1.463q-.54-.724-1.477-1.193t-2.401-.469q-2.002 0-3.338.924-1.32.91-1.321 2.315 0 1.25.909 1.975.909.723 2.841 1.207l3.239.795q2.926.71 4.361 2.174 1.434 1.449 1.434 3.735 0 1.875-1.079 3.353-1.066 1.477-2.983 2.329t-4.46.853q-3.339 0-5.526-1.449t-2.77-4.233l3.182-.796q.454 1.762 1.719 2.642 1.278.88 3.338.881 2.343 0 3.721-.994 1.392-1.01 1.393-2.415 0-1.137-.796-1.903-.796-.782-2.443-1.165l-3.636-.853q-2.998-.71-4.404-2.201-1.392-1.506-1.392-3.764 0-1.848 1.037-3.267 1.051-1.42 2.855-2.231 1.818-.809 4.119-.809 3.24 0 5.086 1.42 1.86 1.42 2.642 3.75M63.104 19H59.58q-.312-1.52-1.094-2.67a7.3 7.3 0 0 0-1.875-1.932 8 8 0 0 0-2.429-1.194 9.7 9.7 0 0 0-2.784-.397q-2.642 0-4.787 1.335-2.13 1.335-3.395 3.935-1.25 2.6-1.25 6.377 0 3.78 1.25 6.378 1.265 2.6 3.395 3.935 2.145 1.335 4.787 1.335 1.449 0 2.784-.397 1.335-.399 2.43-1.18a7.5 7.5 0 0 0 1.874-1.945q.782-1.166 1.094-2.67h3.523q-.397 2.229-1.45 3.99a10.9 10.9 0 0 1-2.613 2.998 11.5 11.5 0 0 1-3.508 1.86q-1.932.64-4.134.64-3.72 0-6.62-1.819-2.896-1.818-4.559-5.17-1.662-3.352-1.662-7.954T40.22 16.5t4.56-5.17q2.898-1.82 6.62-1.819 2.2 0 4.133.64a11.3 11.3 0 0 1 3.508 1.875 10.7 10.7 0 0 1 2.614 2.983q1.05 1.746 1.449 3.991m18.988 11.08V17.182h3.352V39h-3.352v-3.693h-.228q-.766 1.662-2.386 2.826-1.62 1.151-4.09 1.151-2.047 0-3.637-.895-1.59-.909-2.5-2.727-.91-1.832-.91-4.616V17.182h3.353v13.636q0 2.387 1.335 3.807 1.35 1.42 3.438 1.42 1.25 0 2.542-.639 1.306-.64 2.188-1.96.894-1.32.895-3.366M91.584 39V17.182h3.238v3.295h.228q.596-1.62 2.159-2.628t3.523-1.008q.37 0 .923.014.554.015.838.043v3.409a10 10 0 0 0-.781-.128 7.7 7.7 0 0 0-1.265-.1q-1.59 0-2.84.668a5.04 5.04 0 0 0-1.96 1.818q-.71 1.15-.71 2.628V39zm14.883 0V17.182h3.238v3.295h.228q.596-1.62 2.159-2.628t3.522-1.008q.37 0 .924.014.553.015.838.043v3.409a10 10 0 0 0-.782-.128 7.7 7.7 0 0 0-1.264-.1q-1.59 0-2.841.668a5.04 5.04 0 0 0-1.96 1.818q-.71 1.15-.71 2.628V39zm23.366.455q-3.154 0-5.44-1.392-2.273-1.407-3.509-3.921-1.221-2.529-1.221-5.88 0-3.353 1.221-5.91 1.236-2.571 3.438-4.005 2.215-1.45 5.17-1.45 1.705 0 3.367.569 1.662.568 3.025 1.846 1.364 1.264 2.174 3.353.809 2.088.809 5.142v1.42h-16.818V26.33h13.409q0-1.846-.739-3.295a5.56 5.56 0 0 0-2.073-2.287q-1.336-.838-3.154-.838-2.002 0-3.466.994a6.54 6.54 0 0 0-2.23 2.557 7.5 7.5 0 0 0-.781 3.38v1.933q0 2.472.852 4.19.867 1.704 2.401 2.6 1.534.88 3.565.88 1.321 0 2.386-.37a5.1 5.1 0 0 0 1.861-1.136q.782-.766 1.208-1.903l3.238.91a7.2 7.2 0 0 1-1.718 2.897q-1.208 1.236-2.983 1.932-1.776.681-3.992.681m17.486-13.58V39h-3.352V17.182h3.238v3.409h.284a6.23 6.23 0 0 1 2.33-2.67q1.563-1.023 4.034-1.023 2.216 0 3.878.909 1.662.895 2.585 2.727.923 1.818.923 4.602V39h-3.352V25.364q0-2.572-1.335-4.006-1.335-1.449-3.665-1.449-1.605 0-2.869.696-1.25.696-1.975 2.031-.724 1.335-.724 3.239m29.535-8.693v2.84h-11.307v-2.84zm-8.012-5.227h3.353V32.75q0 1.42.412 2.13.425.697 1.079.938.668.227 1.406.227.555 0 .909-.056l.569-.114.681 3.011q-.34.128-.951.256-.611.142-1.549.142a6.75 6.75 0 0 1-2.784-.61 5.54 5.54 0 0 1-2.244-1.861q-.88-1.25-.881-3.154zm-111.52 49.08v-3.126h21.819v3.125h-9.148V87H66.47V61.034zM84.122 87V65.182h3.353V87zm1.705-25.455a2.38 2.38 0 0 1-1.69-.667q-.696-.667-.696-1.605t.696-1.605a2.38 2.38 0 0 1 1.69-.668q.981 0 1.677.668.71.667.71 1.605t-.71 1.605a2.34 2.34 0 0 1-1.677.667M93.615 87V65.182h3.239v3.409h.284q.681-1.748 2.201-2.713 1.521-.98 3.651-.98 2.159 0 3.594.98 1.45.966 2.258 2.713h.228q.837-1.69 2.514-2.685 1.675-1.008 4.02-1.008 2.925 0 4.787 1.832 1.86 1.818 1.86 5.668V87h-3.352V72.398q0-2.415-1.321-3.452t-3.111-1.037q-2.3 0-3.565 1.392-1.264 1.378-1.264 3.495V87h-3.409V72.057q0-1.86-1.208-2.997-1.208-1.15-3.11-1.15-1.308 0-2.444.695-1.122.696-1.818 1.932-.681 1.221-.682 2.827V87zm43.913.454q-3.153 0-5.44-1.391-2.273-1.407-3.508-3.921-1.222-2.529-1.222-5.88 0-3.353 1.222-5.91 1.235-2.571 3.437-4.005 2.216-1.45 5.171-1.45 1.704 0 3.366.569 1.662.568 3.026 1.847 1.363 1.263 2.173 3.352t.809 5.142v1.42h-16.818V74.33h13.409q0-1.845-.738-3.295a5.56 5.56 0 0 0-2.074-2.287q-1.335-.838-3.153-.838-2.004 0-3.466.994a6.54 6.54 0 0 0-2.231 2.557 7.5 7.5 0 0 0-.781 3.38v1.933q0 2.471.852 4.19.867 1.704 2.401 2.6 1.534.88 3.565.88 1.322 0 2.387-.37a5.1 5.1 0 0 0 1.861-1.135q.78-.767 1.207-1.904l3.239.91a7.2 7.2 0 0 1-1.719 2.897q-1.207 1.236-2.983 1.932-1.775.681-3.992.681m16.577-.227a2.46 2.46 0 0 1-1.804-.753 2.46 2.46 0 0 1-.753-1.803q0-1.052.753-1.805a2.46 2.46 0 0 1 1.804-.752 2.46 2.46 0 0 1 1.804.752 2.46 2.46 0 0 1 .753 1.805q0 .695-.355 1.278-.34.582-.923.937-.568.341-1.279.341m0-16.193a2.46 2.46 0 0 1-1.804-.753 2.46 2.46 0 0 1-.753-1.804q0-1.05.753-1.804a2.46 2.46 0 0 1 1.804-.752q1.051 0 1.804.752a2.46 2.46 0 0 1 .753 1.804q0 .696-.355 1.279-.34.582-.923.937-.568.341-1.279.341"/><rect width="136" height="136" x="366" y="365" stroke="#dbdbdb" stroke-width="2" rx="27"/><rect width="136" height="136" x="210" y="365" stroke="#dbdbdb" stroke-width="2" rx="27"/><rect width="136" height="136" x="54" y="365" stroke="#dbdbdb" stroke-dasharray="20 20" stroke-width="2" rx="27"/><rect width="555" height="197" x="1" y="335" stroke="#dbdbdb" stroke-width="2" rx="27"/><path fill="#fff" d="M415.718 449v-29.091h9.83q3.423 0 5.596 1.236 2.188 1.22 3.239 3.31 1.051 2.088 1.051 4.659t-1.051 4.673q-1.037 2.102-3.21 3.352-2.173 1.236-5.569 1.236h-7.045v-3.125h6.932q2.343 0 3.764-.81t2.06-2.187q.653-1.393.653-3.139 0-1.748-.653-3.125-.64-1.379-2.074-2.159-1.435-.796-3.807-.796h-6.193V449zm24.879 0v-2.557l9.603-10.511a68 68 0 0 0 2.784-3.21q1.094-1.378 1.619-2.586.54-1.221.54-2.556 0-1.535-.739-2.657-.725-1.121-1.989-1.733-1.263-.61-2.84-.61-1.676 0-2.927.696a4.8 4.8 0 0 0-1.917 1.917q-.668 1.236-.668 2.898h-3.352q0-2.557 1.179-4.489a8.2 8.2 0 0 1 3.21-3.011q2.046-1.08 4.588-1.08 2.557 0 4.531 1.08 1.975 1.08 3.097 2.912t1.122 4.077q0 1.605-.582 3.139-.568 1.52-1.989 3.395-1.406 1.86-3.906 4.545l-6.534 6.989v.227h13.523V449zM256.593 449v-29.091h9.83q3.423 0 5.596 1.236 2.188 1.22 3.239 3.31 1.051 2.088 1.051 4.659t-1.051 4.673q-1.037 2.102-3.21 3.352-2.173 1.236-5.569 1.236h-7.045v-3.125h6.932q2.343 0 3.764-.81t2.06-2.187q.653-1.393.653-3.139 0-1.748-.653-3.125-.64-1.379-2.074-2.159-1.435-.796-3.807-.796h-6.193V449zm34.709.398q-2.813 0-5.014-.966-2.188-.966-3.48-2.685-1.28-1.733-1.393-4.02h3.58q.114 1.407.966 2.429.852 1.009 2.23 1.563t3.054.554q1.875 0 3.324-.654 1.449-.652 2.273-1.818.823-1.164.823-2.699 0-1.605-.795-2.826-.795-1.236-2.33-1.932-1.533-.696-3.75-.696h-2.329v-3.125h2.329q1.734 0 3.04-.625 1.321-.625 2.06-1.762.753-1.135.753-2.67 0-1.477-.654-2.571-.653-1.093-1.846-1.705-1.179-.61-2.784-.61a7.3 7.3 0 0 0-2.841.554q-1.322.539-2.159 1.576-.839 1.023-.909 2.472h-3.41q.086-2.287 1.378-4.006 1.293-1.733 3.381-2.699 2.102-.966 4.616-.966 2.7 0 4.631 1.094 1.932 1.08 2.969 2.855a7.5 7.5 0 0 1 1.037 3.835q0 2.458-1.293 4.191-1.278 1.732-3.48 2.4v.228q2.756.454 4.304 2.343 1.548 1.876 1.548 4.645 0 2.372-1.292 4.262-1.278 1.874-3.495 2.954t-5.042 1.08M129.869 434.966v3.125h-12.727v-3.125zM230.833 282.909h3.864l3.238 4.261.853 1.137 4.829 6.42h-3.863l-3.182-4.261-.796-1.08zm13.977-5.454q0 4.602-1.662 7.954t-4.559 5.171q-2.898 1.818-6.62 1.818t-6.619-1.818q-2.898-1.819-4.56-5.171-1.66-3.352-1.661-7.954 0-4.603 1.661-7.955t4.56-5.17q2.898-1.82 6.619-1.819 3.722 0 6.62 1.819 2.897 1.818 4.559 5.17t1.662 7.955m-3.409 0q0-3.778-1.264-6.378-1.25-2.6-3.395-3.935-2.13-1.335-4.773-1.335t-4.786 1.335q-2.132 1.335-3.395 3.935-1.25 2.6-1.25 6.378t1.25 6.377q1.263 2.6 3.395 3.935 2.144 1.335 4.786 1.335 2.643 0 4.773-1.335 2.145-1.335 3.395-3.935 1.264-2.6 1.264-6.377m22.628 5.625v-12.898h3.352V292h-3.352v-3.693h-.227q-.768 1.662-2.387 2.827-1.619 1.15-4.09 1.15-2.046 0-3.637-.895-1.59-.909-2.5-2.727-.909-1.832-.909-4.617v-13.863h3.352v13.636q0 2.387 1.336 3.807 1.349 1.42 3.437 1.42 1.25 0 2.543-.639 1.307-.639 2.187-1.96.895-1.321.895-3.366m18.64 9.375q-3.154 0-5.44-1.393-2.273-1.406-3.509-3.92-1.221-2.529-1.221-5.881 0-3.351 1.221-5.909 1.236-2.571 3.438-4.005 2.215-1.449 5.17-1.449 1.705 0 3.367.568t3.025 1.846q1.364 1.265 2.173 3.353.81 2.088.81 5.142v1.42h-16.818v-2.897h13.409q0-1.848-.739-3.296a5.57 5.57 0 0 0-2.073-2.287q-1.336-.838-3.154-.838-2.002 0-3.466.994a6.55 6.55 0 0 0-2.23 2.557 7.5 7.5 0 0 0-.781 3.381v1.932q0 2.47.852 4.19.867 1.704 2.401 2.599 1.533.881 3.565.881 1.321 0 2.386-.369a5.1 5.1 0 0 0 1.861-1.136q.781-.767 1.208-1.904l3.238.909a7.2 7.2 0 0 1-1.719 2.898q-1.207 1.236-2.982 1.932-1.776.682-3.992.682m27.884-9.375v-12.898h3.352V292h-3.352v-3.693h-.228q-.767 1.662-2.386 2.827-1.62 1.15-4.091 1.15-2.046 0-3.636-.895-1.591-.909-2.5-2.727-.909-1.832-.909-4.617v-13.863h3.352v13.636q0 2.387 1.335 3.807 1.35 1.42 3.438 1.42 1.25 0 2.542-.639 1.307-.639 2.188-1.96.894-1.321.895-3.366m18.639 9.375q-3.153 0-5.44-1.393-2.273-1.406-3.508-3.92-1.222-2.529-1.222-5.881 0-3.351 1.222-5.909 1.235-2.571 3.437-4.005 2.216-1.449 5.171-1.449 1.704 0 3.366.568t3.026 1.846q1.363 1.265 2.173 3.353t.81 5.142v1.42h-16.819v-2.897h13.409q0-1.848-.738-3.296a5.57 5.57 0 0 0-2.074-2.287q-1.335-.838-3.153-.838-2.004 0-3.466.994a6.54 6.54 0 0 0-2.23 2.557 7.5 7.5 0 0 0-.782 3.381v1.932q0 2.47.853 4.19.865 1.704 2.4 2.599 1.534.881 3.565.881 1.322 0 2.387-.369a5.1 5.1 0 0 0 1.861-1.136q.78-.767 1.207-1.904l3.239.909a7.2 7.2 0 0 1-1.719 2.898q-1.207 1.236-2.983 1.932-1.776.682-3.992.682M1043.36 226h-3.52c-.21-1.013-.57-1.903-1.09-2.67a7.4 7.4 0 0 0-1.88-1.932 8 8 0 0 0-2.43-1.193 9.7 9.7 0 0 0-2.78-.398c-1.76 0-3.36.445-4.79 1.335q-2.13 1.335-3.39 3.935c-.84 1.733-1.25 3.859-1.25 6.378 0 2.518.41 4.644 1.25 6.377q1.26 2.6 3.39 3.935c1.43.89 3.03 1.335 4.79 1.335.96 0 1.89-.132 2.78-.397q1.335-.399 2.43-1.179a7.6 7.6 0 0 0 1.88-1.946c.52-.777.88-1.667 1.09-2.671h3.52c-.26 1.487-.75 2.817-1.45 3.992a10.9 10.9 0 0 1-2.61 2.997 11.4 11.4 0 0 1-3.51 1.861c-1.29.426-2.67.639-4.13.639-2.48 0-4.69-.606-6.62-1.818q-2.895-1.819-4.56-5.171c-1.11-2.235-1.66-4.886-1.66-7.954 0-3.069.55-5.72 1.66-7.955q1.665-3.352 4.56-5.17c1.93-1.213 4.14-1.819 6.62-1.819 1.46 0 2.84.213 4.13.64q1.95.639 3.51 1.875 1.56 1.22 2.61 2.983c.7 1.164 1.19 2.495 1.45 3.991m5.69 20v-29.091h9.83c2.29 0 4.15.412 5.6 1.236q2.19 1.22 3.24 3.31 1.05 2.088 1.05 4.659t-1.05 4.673q-1.035 2.102-3.21 3.352c-1.45.824-3.31 1.236-5.57 1.236h-7.05v-3.125h6.94c1.56 0 2.81-.27 3.76-.81.95-.539 1.63-1.269 2.06-2.187.44-.928.65-1.975.65-3.139 0-1.165-.21-2.207-.65-3.125q-.645-1.379-2.07-2.159-1.44-.796-3.81-.796h-6.19V246zm44.49-29.091h3.52v19.261q0 2.984-1.41 5.327-1.395 2.33-3.93 3.679-2.55 1.335-5.97 1.335c-2.28 0-4.27-.445-5.96-1.335-1.7-.899-3.02-2.126-3.95-3.679-.93-1.562-1.4-3.338-1.4-5.327v-19.261h3.53v18.977q0 2.131.93 3.793c.63 1.098 1.52 1.965 2.68 2.599q1.74.938 4.17.938c1.62 0 3.01-.313 4.18-.938q1.74-.952 2.67-2.599c.62-1.108.94-2.372.94-3.793z"/><path stroke="#dbdbdb" stroke-linecap="round" stroke-linejoin="round" stroke-width="4" d="m472.375 560.25 16.25 16.25-16.25 16.25"/><path stroke="#dbdbdb" stroke-width="5" d="M67 576.5h419"/><path stroke="#fff" stroke-width="2" d="M924 409h269M1083.5 299.5v269M924 433h269M1059.5 299.5v269M924 457h269M1035.5 299.5v269"/><rect width="196" height="196" x="961" y="336" fill="#18181b" stroke="#dbdbdb" stroke-width="2" rx="27"/><rect width="136" height="136" x="991" y="365" stroke="#dbdbdb" stroke-width="2" rx="27"/><path fill="#fff" d="M1040.53 449v-29.091h9.83c2.28 0 4.15.412 5.6 1.236 1.46.814 2.53 1.917 3.24 3.31q1.05 2.088 1.05 4.659t-1.05 4.673-3.21 3.352c-1.45.824-3.31 1.236-5.57 1.236h-7.05v-3.125h6.93c1.57 0 2.82-.27 3.77-.81.94-.539 1.63-1.269 2.06-2.187.43-.928.65-1.975.65-3.139 0-1.165-.22-2.207-.65-3.125s-1.12-1.639-2.08-2.159c-.95-.531-2.22-.796-3.8-.796h-6.2V449zm35.11-29.091V449h-3.53v-25.398h-.17l-7.1 4.716v-3.579l7.27-4.83z"/></svg>