<svg xmlns="http://www.w3.org/2000/svg" width="1887" height="428" fill="none" viewBox="0 0 1887 428"><path fill="#fff" d="M258.498 346.034v-3.125h21.818v3.125h-9.148V372h-3.523v-25.966zm32.5 26.421q-2.955 0-5.185-1.407-2.216-1.406-3.466-3.934-1.236-2.53-1.236-5.909 0-3.41 1.236-5.952 1.25-2.543 3.466-3.949 2.23-1.406 5.185-1.406t5.17 1.406q2.23 1.406 3.466 3.949 1.25 2.543 1.25 5.952 0 3.38-1.25 5.909-1.236 2.528-3.466 3.934-2.216 1.407-5.17 1.407m0-3.012q2.244 0 3.693-1.15t2.145-3.026q.696-1.875.696-4.062t-.696-4.077-2.145-3.054q-1.449-1.165-3.693-1.165-2.245 0-3.694 1.165-1.448 1.164-2.144 3.054t-.696 4.077.696 4.062 2.144 3.026q1.449 1.15 3.694 1.15m23.867 3.012q-2.955 0-5.185-1.407-2.215-1.406-3.466-3.934-1.236-2.53-1.236-5.909 0-3.41 1.236-5.952 1.25-2.543 3.466-3.949 2.23-1.406 5.185-1.406t5.17 1.406q2.23 1.406 3.466 3.949 1.25 2.543 1.25 5.952 0 3.38-1.25 5.909-1.236 2.528-3.466 3.934-2.216 1.407-5.17 1.407m0-3.012q2.244 0 3.693-1.15t2.145-3.026q.696-1.875.696-4.062t-.696-4.077-2.145-3.054q-1.449-1.165-3.693-1.165t-3.693 1.165q-1.449 1.164-2.145 3.054t-.696 4.077.696 4.062 2.145 3.026q1.449 1.15 3.693 1.15m41.708-14.375-3.011.852a5.6 5.6 0 0 0-.839-1.463q-.539-.724-1.477-1.193-.937-.469-2.4-.469-2.004 0-3.338.924-1.321.91-1.321 2.315 0 1.25.909 1.975.909.724 2.841 1.207l3.238.795q2.927.71 4.361 2.174 1.435 1.449 1.435 3.735 0 1.875-1.08 3.353-1.065 1.477-2.983 2.329-1.917.852-4.46.853-3.337 0-5.526-1.449-2.187-1.449-2.77-4.233l3.182-.796q.454 1.762 1.719 2.642 1.278.88 3.338.881 2.344 0 3.722-.994 1.392-1.01 1.392-2.415 0-1.137-.796-1.903-.795-.782-2.443-1.165l-3.636-.853q-2.997-.71-4.404-2.201-1.392-1.506-1.392-3.764 0-1.848 1.037-3.267 1.052-1.42 2.855-2.231 1.818-.809 4.12-.809 3.238 0 5.085 1.42 1.86 1.42 2.642 3.75M362.017 372v-21.818h3.238v3.409h.285q.681-1.747 2.201-2.713 1.52-.98 3.651-.98 2.158 0 3.594.98 1.448.966 2.258 2.713h.227q.838-1.69 2.515-2.685 1.676-1.008 4.019-1.008 2.927 0 4.787 1.832 1.861 1.818 1.861 5.668V372h-3.352v-14.602q0-2.415-1.321-3.452-1.322-1.037-3.111-1.037-2.3 0-3.565 1.392-1.264 1.378-1.264 3.494V372h-3.41v-14.943q0-1.861-1.207-2.997-1.207-1.15-3.111-1.151-1.306 0-2.443.696-1.122.696-1.818 1.932-.682 1.221-.682 2.827V372zm41.186.511q-2.074 0-3.764-.781-1.69-.795-2.685-2.287-.994-1.506-.994-3.636 0-1.875.738-3.04a5.2 5.2 0 0 1 1.975-1.847 10.4 10.4 0 0 1 2.727-.994 33 33 0 0 1 3.026-.54q1.988-.255 3.224-.383 1.25-.142 1.818-.469.582-.327.583-1.136v-.114q0-2.101-1.151-3.267-1.137-1.165-3.452-1.165-2.4 0-3.764 1.051t-1.917 2.245l-3.182-1.137q.852-1.988 2.272-3.096a8.5 8.5 0 0 1 3.125-1.563 13 13 0 0 1 3.353-.454q1.05 0 2.414.255a7.7 7.7 0 0 1 2.657 1.009q1.291.767 2.145 2.315.852 1.548.852 4.148V372h-3.352v-2.955h-.171q-.34.711-1.136 1.52-.796.81-2.117 1.378t-3.224.568m.511-3.011q1.989 0 3.353-.781 1.377-.781 2.073-2.017a5.14 5.14 0 0 0 .711-2.6v-3.068q-.213.256-.938.469a16 16 0 0 1-1.648.355 74 74 0 0 1-1.804.256q-.866.1-1.406.17-1.306.17-2.443.554-1.122.369-1.818 1.122-.682.74-.682 2.017 0 1.748 1.293 2.642 1.307.88 3.309.881m18.96-26.591V372h-3.353v-29.091zm9.492 0V372h-3.352v-29.091zm27.106 7.273v2.841H447.51v-2.841zM451.033 372v-24.83q0-1.875.881-3.125a5.46 5.46 0 0 1 2.287-1.875 7.2 7.2 0 0 1 2.968-.625q1.236 0 2.018.199.78.2 1.164.37l-.966 2.897q-.255-.084-.71-.213-.44-.128-1.165-.128-1.662 0-2.4.839-.725.837-.725 2.457V372zm20.902.455q-2.955 0-5.185-1.407-2.216-1.406-3.465-3.934-1.236-2.53-1.236-5.909 0-3.41 1.236-5.952 1.25-2.543 3.465-3.949 2.23-1.406 5.185-1.406t5.171 1.406q2.23 1.406 3.465 3.949 1.25 2.543 1.25 5.952 0 3.38-1.25 5.909-1.235 2.528-3.465 3.934-2.216 1.407-5.171 1.407m0-3.012q2.244 0 3.693-1.15t2.145-3.026q.696-1.875.696-4.062t-.696-4.077-2.145-3.054q-1.449-1.165-3.693-1.165t-3.693 1.165q-1.449 1.164-2.145 3.054t-.696 4.077.696 4.062 2.145 3.026q1.449 1.15 3.693 1.15M486.939 372v-21.818h3.238v3.295h.228q.596-1.618 2.159-2.628 1.562-1.008 3.522-1.008.37 0 .924.014.553.015.838.043v3.409a10 10 0 0 0-.781-.128 8 8 0 0 0-1.265-.099q-1.59 0-2.841.667a5.05 5.05 0 0 0-1.96 1.818q-.71 1.15-.71 2.628V372zm35.905.398q-2.812 0-5.014-.966-2.187-.966-3.48-2.685-1.278-1.733-1.392-4.02h3.579q.114 1.407.966 2.429.852 1.009 2.23 1.563t3.054.554q1.875 0 3.324-.654 1.45-.652 2.273-1.818.824-1.164.824-2.699 0-1.605-.796-2.826-.795-1.236-2.329-1.932t-3.75-.696h-2.33v-3.125h2.33q1.732 0 3.04-.625 1.32-.625 2.059-1.762.753-1.135.753-2.67 0-1.477-.653-2.571-.654-1.093-1.847-1.705-1.179-.61-2.784-.61a7.3 7.3 0 0 0-2.841.554q-1.321.539-2.159 1.576-.838 1.023-.909 2.472h-3.409q.085-2.287 1.378-4.006 1.292-1.733 3.38-2.699 2.103-.966 4.617-.966 2.699 0 4.631 1.094 1.931 1.08 2.968 2.855a7.47 7.47 0 0 1 1.037 3.835q0 2.458-1.292 4.191-1.28 1.732-3.481 2.4v.228q2.757.454 4.304 2.343 1.55 1.876 1.549 4.645 0 2.372-1.293 4.262-1.278 1.874-3.494 2.954t-5.043 1.08m25.128 0q-3.21 0-5.469-1.747-2.258-1.762-3.451-5.1-1.194-3.353-1.194-8.096 0-4.716 1.194-8.054 1.207-3.353 3.466-5.114 2.273-1.776 5.454-1.776 3.182 0 5.44 1.776 2.274 1.761 3.466 5.114 1.208 3.338 1.208 8.054 0 4.743-1.193 8.096-1.194 3.338-3.452 5.1-2.259 1.746-5.469 1.747m0-3.125q3.182 0 4.943-3.068 1.761-3.07 1.762-8.75 0-3.778-.81-6.435-.795-2.656-2.301-4.048-1.492-1.392-3.594-1.392-3.153 0-4.929 3.11-1.775 3.097-1.775 8.765 0 3.778.795 6.42t2.287 4.02q1.506 1.377 3.622 1.378M563.995 372v-29.091h3.523v14.432h.34l13.069-14.432h4.602l-12.216 13.125L585.529 372h-4.261l-10.114-13.523-3.636 4.091V372zm26.094 0v-29.091h10.17q3.04 0 5.014 1.051 1.975 1.037 2.941 2.799.965 1.747.965 3.877 0 1.876-.667 3.097-.654 1.221-1.733 1.932a7.9 7.9 0 0 1-2.315 1.051V357q1.335.085 2.684.938 1.35.852 2.259 2.443.909 1.59.909 3.892 0 2.188-.995 3.934-.993 1.747-3.139 2.77Q604.038 372 600.6 372zm3.522-3.125h6.989q3.452 0 4.9-1.335 1.464-1.35 1.464-3.267 0-1.477-.753-2.728-.753-1.263-2.145-2.017-1.392-.767-3.296-.767h-7.159zm0-13.182h6.534q1.591 0 2.87-.625a5 5 0 0 0 2.045-1.761q.767-1.137.767-2.671 0-1.917-1.335-3.252-1.335-1.35-4.233-1.35h-6.648zM1107.62 352h-3.53c-.21-1.013-.57-1.903-1.09-2.67a7.3 7.3 0 0 0-1.88-1.932 7.9 7.9 0 0 0-2.43-1.193 9.6 9.6 0 0 0-2.78-.398c-1.76 0-3.36.445-4.79 1.335q-2.13 1.335-3.39 3.935c-.83 1.733-1.25 3.859-1.25 6.378 0 2.518.42 4.644 1.25 6.377q1.26 2.6 3.39 3.935c1.43.89 3.03 1.335 4.79 1.335.97 0 1.89-.132 2.78-.397.9-.266 1.7-.659 2.43-1.179a7.5 7.5 0 0 0 1.88-1.946c.52-.777.88-1.667 1.09-2.671h3.53c-.27 1.487-.75 2.817-1.45 3.992a11 11 0 0 1-2.62 2.997 11.4 11.4 0 0 1-3.51 1.861c-1.28.426-2.66.639-4.13.639-2.48 0-4.69-.606-6.62-1.818q-2.895-1.819-4.56-5.171c-1.11-2.235-1.66-4.886-1.66-7.954 0-3.069.55-5.72 1.66-7.955q1.665-3.352 4.56-5.17c1.93-1.213 4.14-1.819 6.62-1.819 1.47 0 2.85.213 4.13.64q1.95.639 3.51 1.875c1.04.814 1.92 1.808 2.62 2.983.7 1.164 1.18 2.495 1.45 3.991m11.65 20.511c-1.38 0-2.63-.26-3.76-.781a6.5 6.5 0 0 1-2.69-2.287q-.99-1.506-.99-3.636c0-1.25.25-2.263.74-3.04a5.2 5.2 0 0 1 1.97-1.847q1.245-.667 2.73-.994 1.5-.34 3.03-.54c1.32-.17 2.4-.298 3.22-.383.83-.095 1.44-.251 1.82-.469.39-.218.58-.597.58-1.136v-.114c0-1.401-.38-2.49-1.15-3.267q-1.14-1.165-3.45-1.165c-1.6 0-2.86.351-3.76 1.051q-1.365 1.051-1.92 2.245l-3.18-1.137c.56-1.325 1.32-2.358 2.27-3.096a8.5 8.5 0 0 1 3.12-1.563q1.71-.454 3.36-.454c.7 0 1.5.085 2.41.255.92.161 1.8.498 2.66 1.009s1.57 1.283 2.14 2.315.85 2.415.85 4.148V372h-3.35v-2.955h-.17c-.23.474-.6.981-1.14 1.52-.53.54-1.23.999-2.11 1.378s-1.96.568-3.23.568m.52-3.011c1.32 0 2.44-.26 3.35-.781q1.38-.781 2.07-2.017c.47-.824.71-1.691.71-2.6v-3.068c-.14.171-.45.327-.94.469-.47.132-1.02.251-1.64.355-.62.095-1.22.18-1.81.256-.58.066-1.04.123-1.4.17-.88.114-1.69.298-2.45.554-.75.246-1.35.62-1.82 1.122-.45.493-.68 1.165-.68 2.017 0 1.165.43 2.046 1.3 2.642.87.587 1.97.881 3.31.881m18.95-10.625V372h-3.35v-21.818h3.24v3.409h.29a6.2 6.2 0 0 1 2.32-2.671c1.05-.681 2.39-1.022 4.04-1.022 1.48 0 2.77.303 3.88.909 1.1.596 1.97 1.505 2.58 2.727q.93 1.818.93 4.602V372h-3.36v-13.636c0-1.714-.44-3.05-1.33-4.006-.89-.966-2.11-1.449-3.67-1.449-1.07 0-2.02.232-2.87.696-.83.464-1.49 1.141-1.97 2.031s-.73 1.97-.73 3.239m41.02-8.693v2.841H1168v-2.841zM1171.52 372v-24.83c0-1.25.29-2.291.88-3.125a5.47 5.47 0 0 1 2.29-1.875 7.2 7.2 0 0 1 2.96-.625c.83 0 1.5.067 2.02.199q.78.2 1.17.37l-.97 2.897c-.17-.056-.41-.127-.71-.213-.29-.085-.68-.128-1.16-.128-1.11 0-1.91.28-2.41.839q-.72.837-.72 2.457V372zm12.93 0v-21.818h3.36V372zm1.71-25.455c-.65 0-1.22-.222-1.69-.667-.46-.445-.7-.98-.7-1.605s.24-1.16.7-1.605a2.38 2.38 0 0 1 1.69-.668q.975 0 1.68.668c.47.445.71.98.71 1.605s-.24 1.16-.71 1.605q-.705.667-1.68.667m17.28 3.637v2.841h-11.31v-2.841zm-8.02-5.227h3.36v20.795c0 .947.13 1.657.41 2.131q.42.696 1.08.937c.44.152.91.227 1.4.227.37 0 .68-.018.91-.056l.57-.114.68 3.011c-.22.086-.54.171-.95.256-.41.095-.92.142-1.55.142a6.8 6.8 0 0 1-2.78-.611 5.47 5.47 0 0 1-2.24-1.861c-.59-.833-.89-1.884-.89-3.153zm34.08 27.443c-1.87 0-3.55-.322-5.01-.966q-2.19-.966-3.48-2.685c-.86-1.155-1.32-2.495-1.4-4.02h3.58c.08.938.4 1.747.97 2.429.57.673 1.31 1.193 2.23 1.563s1.94.554 3.05.554q1.875 0 3.33-.654c.96-.435 1.72-1.041 2.27-1.818.55-.776.82-1.676.82-2.699 0-1.07-.26-2.012-.79-2.826-.53-.824-1.31-1.468-2.33-1.932q-1.53-.696-3.75-.696h-2.33v-3.125h2.33c1.16 0 2.17-.209 3.04-.625.88-.417 1.57-1.004 2.06-1.762q.75-1.135.75-2.67c0-.985-.22-1.842-.65-2.571a4.5 4.5 0 0 0-1.85-1.705c-.78-.407-1.71-.61-2.78-.61a7.3 7.3 0 0 0-2.84.554q-1.32.539-2.16 1.576c-.56.682-.86 1.506-.91 2.472h-3.41q.09-2.287 1.38-4.006c.86-1.155 1.99-2.055 3.38-2.699 1.4-.644 2.94-.966 4.61-.966 1.8 0 3.35.365 4.64 1.094 1.28.72 2.27 1.672 2.96 2.855a7.4 7.4 0 0 1 1.04 3.835q0 2.458-1.29 4.191-1.275 1.732-3.48 2.4v.228c1.84.303 3.27 1.084 4.3 2.343 1.03 1.25 1.55 2.799 1.55 4.645q0 2.372-1.29 4.262c-.85 1.25-2.02 2.234-3.5 2.954q-2.205 1.08-5.04 1.08m25.13 0c-2.14 0-3.96-.583-5.47-1.747q-2.265-1.762-3.45-5.1c-.8-2.235-1.19-4.934-1.19-8.096 0-3.144.39-5.829 1.19-8.054.8-2.235 1.96-3.94 3.46-5.114q2.28-1.776 5.46-1.776c2.12 0 3.93.592 5.44 1.776 1.51 1.174 2.67 2.879 3.47 5.114q1.2 3.338 1.2 8.054c0 3.162-.4 5.861-1.19 8.096q-1.2 3.338-3.45 5.1c-1.51 1.164-3.33 1.747-5.47 1.747m0-3.125c2.12 0 3.77-1.023 4.94-3.068 1.18-2.046 1.76-4.963 1.76-8.75q0-3.778-.81-6.435c-.53-1.771-1.29-3.12-2.3-4.048-.99-.928-2.19-1.392-3.59-1.392-2.1 0-3.75 1.036-4.93 3.11-1.18 2.065-1.78 4.986-1.78 8.765 0 2.518.27 4.659.8 6.42s1.29 3.101 2.29 4.02 2.21 1.378 3.62 1.378m16.02 2.727v-29.091h3.52v14.432h.35l13.06-14.432h4.61l-12.22 13.125L1292.19 372h-4.27l-10.11-13.523-3.64 4.091V372zm26.1 0v-29.091h10.17q3.03 0 5.01 1.051 1.98 1.037 2.94 2.799c.64 1.164.97 2.457.97 3.877 0 1.25-.23 2.283-.67 3.097s-1.01 1.458-1.73 1.932c-.71.473-1.49.824-2.32 1.051V357c.89.057 1.79.369 2.69.938.89.568 1.65 1.382 2.25 2.443.61 1.06.91 2.358.91 3.892q0 2.188-.99 3.934c-.66 1.165-1.71 2.088-3.14 2.77q-2.145 1.023-5.58 1.023zm3.52-3.125h6.99c2.3 0 3.93-.445 4.9-1.335.97-.9 1.46-1.989 1.46-3.267q0-1.477-.75-2.728c-.5-.842-1.22-1.515-2.15-2.017-.93-.511-2.02-.767-3.29-.767h-7.16zm0-13.182h6.53c1.06 0 2.02-.208 2.87-.625.86-.416 1.55-1.004 2.05-1.761.51-.758.76-1.648.76-2.671 0-1.278-.44-2.362-1.33-3.252q-1.335-1.35-4.23-1.35h-6.65zm27.04 12.33-.23 1.534a31 31 0 0 1-.74 3.466 64 64 0 0 1-1.01 3.48c-.35 1.089-.64 1.955-.86 2.599h-2.56q.18-.909.48-2.4.3-1.492.6-3.338.315-1.833.51-3.75l.17-1.591zm17.91 3.977v-29.091h3.35v10.739h.29c.24-.379.59-.862 1.02-1.449.45-.597 1.08-1.127 1.9-1.591.84-.474 1.96-.71 3.39-.71 1.83 0 3.45.459 4.85 1.378s2.5 2.22 3.28 3.906c.79 1.685 1.18 3.674 1.18 5.966 0 2.31-.39 4.313-1.18 6.008-.78 1.686-1.87 2.993-3.26 3.921-1.39.918-3 1.378-4.82 1.378q-2.1 0-3.36-.696-1.275-.71-1.95-1.606-.69-.91-1.05-1.505h-.4V372zm3.3-10.909q0 2.471.72 4.361c.48 1.25 1.19 2.23 2.12 2.94.93.701 2.06 1.051 3.41 1.051q2.1 0 3.51-1.108 1.41-1.122 2.13-3.011.72-1.904.72-4.233c0-1.534-.24-2.917-.71-4.148-.46-1.24-1.17-2.22-2.12-2.94-.93-.729-2.11-1.094-3.53-1.094-1.37 0-2.51.346-3.44 1.037q-1.395 1.023-2.1 2.869c-.48 1.222-.71 2.647-.71 4.276m34.84 1.989v-12.898h3.35V372h-3.35v-3.693h-.23c-.51 1.108-1.3 2.05-2.38 2.827-1.08.767-2.45 1.15-4.09 1.15-1.37 0-2.58-.298-3.64-.895-1.06-.606-1.89-1.515-2.5-2.727-.61-1.222-.91-2.76-.91-4.617v-13.863h3.35v13.636c0 1.591.45 2.86 1.34 3.807.9.947 2.04 1.42 3.44 1.42.83 0 1.68-.213 2.54-.639q1.305-.639 2.19-1.96c.59-.881.89-2.003.89-3.366m18.98-12.898v2.841h-11.3v-2.841zm-8.01-5.227h3.35v20.795c0 .947.14 1.657.41 2.131q.435.696 1.08.937.675.227 1.41.227c.37 0 .67-.018.91-.056l.57-.114.68 3.011c-.23.086-.54.171-.95.256-.41.095-.93.142-1.55.142-.95 0-1.88-.204-2.78-.611a5.56 5.56 0 0 1-2.25-1.861c-.59-.833-.88-1.884-.88-3.153zm-301.91 53.227v2.841h-11.31v-2.841zm-8.01-5.227h3.35v20.795c0 .947.14 1.657.41 2.131q.435.696 1.08.937.675.227 1.41.227c.37 0 .67-.018.91-.056q.345-.072.57-.114l.68 3.011c-.23.086-.55.171-.95.256-.41.095-.93.142-1.55.142a6.8 6.8 0 0 1-2.79-.611c-.9-.407-1.64-1.027-2.24-1.861-.59-.833-.88-1.884-.88-3.153zm16.87 13.92V420h-3.35v-29.091h3.35v10.682h.29a6.18 6.18 0 0 1 2.3-2.685c1.03-.672 2.4-1.008 4.12-1.008q2.235 0 3.9.895c1.12.587 1.99 1.491 2.6 2.713.63 1.212.94 2.755.94 4.63V420h-3.35v-13.636q0-2.6-1.35-4.02c-.89-.957-2.13-1.435-3.71-1.435-1.1 0-2.08.232-2.95.696a5.1 5.1 0 0 0-2.05 2.031c-.49.891-.74 1.97-.74 3.239m29.43 13.58c-2.1 0-3.91-.464-5.44-1.393q-2.265-1.406-3.51-3.92c-.81-1.686-1.22-3.646-1.22-5.881 0-2.234.41-4.204 1.22-5.909.83-1.714 1.97-3.049 3.44-4.005 1.48-.966 3.2-1.449 5.17-1.449 1.14 0 2.26.189 3.37.568s2.11.994 3.02 1.846c.91.843 1.64 1.961 2.18 3.353q.81 2.088.81 5.142v1.42h-16.82v-2.897h13.41c0-1.232-.25-2.33-.74-3.296a5.56 5.56 0 0 0-2.08-2.287q-1.335-.838-3.15-.838c-1.33 0-2.49.332-3.46.994a6.5 6.5 0 0 0-2.23 2.557 7.4 7.4 0 0 0-.79 3.381v1.932c0 1.647.29 3.044.86 4.19q.855 1.704 2.4 2.599c1.02.588 2.21.881 3.56.881.88 0 1.68-.123 2.39-.369a5.1 5.1 0 0 0 1.86-1.136c.52-.512.92-1.146 1.21-1.904l3.24.909a7.34 7.34 0 0 1-1.72 2.898c-.81.824-1.8 1.468-2.99 1.932q-1.77.682-3.99.682m14.14-.455v-21.818h3.23v3.295h.23q.6-1.618 2.16-2.628c1.04-.672 2.22-1.008 3.52-1.008q.375 0 .93.014c.37.01.65.024.83.043v3.409a9 9 0 0 0-.78-.128 7.7 7.7 0 0 0-1.26-.099c-1.06 0-2.01.222-2.84.667a5 5 0 0 0-1.96 1.818c-.48.767-.71 1.643-.71 2.628V420zm23.36.455c-2.1 0-3.91-.464-5.44-1.393q-2.265-1.406-3.51-3.92c-.81-1.686-1.22-3.646-1.22-5.881 0-2.234.41-4.204 1.22-5.909.83-1.714 1.97-3.049 3.44-4.005 1.48-.966 3.2-1.449 5.17-1.449 1.14 0 2.26.189 3.37.568s2.11.994 3.02 1.846c.91.843 1.64 1.961 2.18 3.353q.81 2.088.81 5.142v1.42h-16.82v-2.897h13.41c0-1.232-.25-2.33-.74-3.296a5.56 5.56 0 0 0-2.08-2.287q-1.335-.838-3.15-.838c-1.33 0-2.49.332-3.46.994a6.5 6.5 0 0 0-2.23 2.557 7.4 7.4 0 0 0-.79 3.381v1.932c0 1.647.29 3.044.86 4.19q.855 1.704 2.4 2.599c1.02.588 2.21.881 3.56.881.88 0 1.68-.123 2.39-.369a5.1 5.1 0 0 0 1.86-1.136c.52-.512.92-1.146 1.21-1.904l3.24.909a7.34 7.34 0 0 1-1.72 2.898c-.81.824-1.8 1.468-2.99 1.932q-1.77.682-3.99.682m17.09-29.546v2.557c0 .776-.14 1.605-.43 2.486-.27.871-.68 1.718-1.22 2.542a9 9 0 0 1-1.93 2.131l-1.82-1.477c.6-.853 1.12-1.738 1.55-2.657.45-.928.67-1.917.67-2.968v-2.614zm16.8 12.159-3.01.852a5.6 5.6 0 0 0-.84-1.463c-.36-.483-.85-.88-1.48-1.193q-.93-.469-2.4-.469c-1.34 0-2.45.308-3.34.924q-1.32.91-1.32 2.315c0 .833.3 1.492.91 1.975.61.482 1.55.885 2.84 1.207l3.24.795c1.95.474 3.4 1.198 4.36 2.174.96.966 1.43 2.211 1.43 3.735 0 1.25-.36 2.368-1.07 3.353-.72.985-1.71 1.761-2.99 2.329s-2.76.853-4.46.853c-2.22 0-4.07-.483-5.52-1.449-1.46-.966-2.39-2.377-2.77-4.233l3.18-.796c.3 1.175.87 2.055 1.72 2.642s1.96.881 3.34.881q2.34 0 3.72-.994c.92-.673 1.39-1.478 1.39-2.415 0-.758-.27-1.392-.8-1.903-.53-.521-1.34-.91-2.44-1.165l-3.64-.853c-1.99-.473-3.46-1.207-4.4-2.201-.93-1.004-1.39-2.259-1.39-3.764 0-1.232.34-2.321 1.04-3.267q1.05-1.42 2.85-2.231c1.21-.539 2.59-.809 4.12-.809 2.16 0 3.85.473 5.08 1.42 1.25.947 2.13 2.197 2.65 3.75m23.11 17.443c-1.38 0-2.64-.26-3.76-.781a6.5 6.5 0 0 1-2.69-2.287q-.99-1.506-.99-3.636c0-1.25.24-2.263.74-3.04a5.2 5.2 0 0 1 1.97-1.847c.83-.445 1.73-.776 2.73-.994 1-.227 2.01-.407 3.02-.54 1.33-.17 2.4-.298 3.23-.383.83-.095 1.44-.251 1.82-.469s.58-.597.58-1.136v-.114c0-1.401-.38-2.49-1.15-3.267q-1.14-1.165-3.45-1.165c-1.6 0-2.86.351-3.77 1.051q-1.365 1.051-1.92 2.245l-3.18-1.137q.855-1.988 2.28-3.096a8.4 8.4 0 0 1 3.12-1.563 13 13 0 0 1 3.35-.454c.7 0 1.51.085 2.42.255.92.161 1.8.498 2.65 1.009.87.511 1.58 1.283 2.15 2.315s.85 2.415.85 4.148V420h-3.35v-2.955h-.17q-.345.711-1.14 1.52c-.53.54-1.23.999-2.11 1.378s-1.96.568-3.23.568m.51-3.011c1.33 0 2.45-.26 3.35-.781.92-.521 1.61-1.193 2.08-2.017s.71-1.691.71-2.6v-3.068c-.14.171-.46.327-.94.469a16 16 0 0 1-1.65.355q-.915.142-1.8.256-.87.1-1.41.17c-.87.114-1.68.298-2.44.554-.75.246-1.35.62-1.82 1.122-.45.493-.68 1.165-.68 2.017q0 1.748 1.29 2.642c.87.587 1.98.881 3.31.881m31.8 2.5-6.64-21.818h3.52l4.71 16.704h.23l4.66-16.704h3.58l4.6 16.648h.23l4.72-16.648h3.52L1274 420h-3.3l-4.77-16.761h-.34L1260.82 420zm35.68.455c-1.97 0-3.7-.469-5.18-1.407-1.48-.937-2.64-2.249-3.47-3.934-.82-1.686-1.24-3.656-1.24-5.909 0-2.273.42-4.257 1.24-5.952.83-1.695 1.99-3.012 3.47-3.949 1.48-.938 3.21-1.406 5.18-1.406s3.69.468 5.17 1.406c1.49.937 2.64 2.254 3.47 3.949s1.25 3.679 1.25 5.952c0 2.253-.42 4.223-1.25 5.909s-1.98 2.997-3.47 3.934c-1.48.938-3.2 1.407-5.17 1.407m0-3.012q2.25 0 3.69-1.15c.97-.767 1.69-1.776 2.15-3.026s.7-2.604.7-4.062-.24-2.818-.7-4.077c-.46-1.26-1.18-2.278-2.15-3.054q-1.44-1.165-3.69-1.165c-1.49 0-2.73.388-3.69 1.165-.97.776-1.68 1.794-2.15 3.054q-.69 1.889-.69 4.077t.69 4.062c.47 1.25 1.18 2.259 2.15 3.026.96.767 2.2 1.15 3.69 1.15m15 2.557v-21.818h3.24v3.295h.23q.6-1.618 2.16-2.628c1.04-.672 2.22-1.008 3.52-1.008q.375 0 .93.014c.37.01.64.024.83.043v3.409a9 9 0 0 0-.78-.128 7.7 7.7 0 0 0-1.26-.099c-1.06 0-2.01.222-2.84.667a5 5 0 0 0-1.96 1.818c-.48.767-.71 1.643-.71 2.628V420zm30.34-16.932-3.01.852a5.6 5.6 0 0 0-.84-1.463q-.54-.724-1.47-1.193c-.63-.312-1.43-.469-2.41-.469q-1.995 0-3.33.924-1.32.91-1.32 2.315 0 1.25.9 1.975.915.724 2.85 1.207l3.23.795c1.96.474 3.41 1.198 4.37 2.174.95.966 1.43 2.211 1.43 3.735q0 1.875-1.08 3.353c-.71.985-1.7 1.761-2.98 2.329s-2.77.853-4.46.853c-2.23 0-4.07-.483-5.53-1.449s-2.38-2.377-2.77-4.233l3.18-.796c.31 1.175.88 2.055 1.72 2.642.85.587 1.97.881 3.34.881q2.34 0 3.72-.994c.93-.673 1.39-1.478 1.39-2.415 0-.758-.26-1.392-.79-1.903-.53-.521-1.35-.91-2.44-1.165l-3.64-.853c-2-.473-3.47-1.207-4.4-2.201-.93-1.004-1.4-2.259-1.4-3.764 0-1.232.35-2.321 1.04-3.267.7-.947 1.65-1.691 2.86-2.231q1.815-.809 4.11-.809c2.16 0 3.86.473 5.09 1.42q1.86 1.42 2.64 3.75m14.93-4.886v2.841h-11.3v-2.841zm-8.01-5.227h3.36v20.795c0 .947.13 1.657.41 2.131q.42.696 1.08.937c.44.152.91.227 1.4.227.37 0 .68-.018.91-.056l.57-.114.68 3.011c-.22.086-.54.171-.95.256-.41.095-.92.142-1.55.142a6.8 6.8 0 0 1-2.78-.611 5.56 5.56 0 0 1-2.25-1.861c-.58-.833-.88-1.884-.88-3.153zm34.02 5.227v2.841h-11.76v-2.841zM1371.24 420v-24.83c0-1.25.3-2.291.89-3.125a5.4 5.4 0 0 1 2.28-1.875 7.3 7.3 0 0 1 2.97-.625c.82 0 1.5.067 2.02.199.52.133.91.256 1.16.37l-.96 2.897c-.17-.056-.41-.127-.71-.213q-.45-.128-1.17-.128-1.665 0-2.4.839-.72.837-.72 2.457V420zm12.94 0v-21.818h3.35V420zm1.71-25.455c-.66 0-1.22-.222-1.69-.667s-.7-.98-.7-1.605.23-1.16.7-1.605a2.37 2.37 0 0 1 1.69-.668c.65 0 1.21.223 1.67.668.48.445.71.98.71 1.605s-.23 1.16-.71 1.605c-.46.445-1.02.667-1.67.667m17.27 3.637v2.841h-11.3v-2.841zm-8.01-5.227h3.35v20.795q0 1.42.42 2.131c.28.464.64.776 1.07.937q.675.227 1.41.227c.37 0 .67-.018.91-.056l.57-.114.68 3.011c-.23.086-.54.171-.95.256-.41.095-.92.142-1.55.142-.95 0-1.87-.204-2.78-.611a5.56 5.56 0 0 1-2.25-1.861c-.59-.833-.88-1.884-.88-3.153zM1545.46 352h-3.53c-.21-1.013-.57-1.903-1.09-2.67a7.3 7.3 0 0 0-1.88-1.932 8 8 0 0 0-2.43-1.193 9.6 9.6 0 0 0-2.78-.398c-1.76 0-3.36.445-4.79 1.335q-2.13 1.335-3.39 3.935c-.83 1.733-1.25 3.859-1.25 6.378 0 2.518.42 4.644 1.25 6.377q1.26 2.6 3.39 3.935c1.43.89 3.03 1.335 4.79 1.335.97 0 1.89-.132 2.78-.397q1.335-.399 2.43-1.179a7.5 7.5 0 0 0 1.88-1.946c.52-.777.88-1.667 1.09-2.671h3.53c-.27 1.487-.75 2.817-1.45 3.992a11 11 0 0 1-2.62 2.997 11.4 11.4 0 0 1-3.51 1.861c-1.28.426-2.66.639-4.13.639-2.48 0-4.69-.606-6.62-1.818q-2.895-1.819-4.56-5.171c-1.11-2.235-1.66-4.886-1.66-7.954 0-3.069.55-5.72 1.66-7.955q1.665-3.352 4.56-5.17c1.93-1.213 4.14-1.819 6.62-1.819 1.47 0 2.85.213 4.13.64q1.95.639 3.51 1.875c1.04.814 1.92 1.808 2.62 2.983.7 1.164 1.18 2.495 1.45 3.991m11.65 20.511c-1.38 0-2.63-.26-3.76-.781a6.5 6.5 0 0 1-2.69-2.287q-.99-1.506-.99-3.636c0-1.25.25-2.263.74-3.04a5.2 5.2 0 0 1 1.97-1.847q1.245-.667 2.73-.994 1.5-.34 3.03-.54c1.32-.17 2.4-.298 3.22-.383.83-.095 1.44-.251 1.82-.469.39-.218.58-.597.58-1.136v-.114c0-1.401-.38-2.49-1.15-3.267q-1.14-1.165-3.45-1.165c-1.6 0-2.86.351-3.77 1.051-.9.701-1.54 1.449-1.91 2.245l-3.18-1.137c.56-1.325 1.32-2.358 2.27-3.096a8.5 8.5 0 0 1 3.12-1.563q1.71-.454 3.36-.454c.7 0 1.5.085 2.41.255.92.161 1.8.498 2.66 1.009s1.57 1.283 2.14 2.315.85 2.415.85 4.148V372h-3.35v-2.955h-.17q-.345.711-1.14 1.52c-.53.54-1.23.999-2.11 1.378s-1.96.568-3.23.568m.51-3.011q1.995 0 3.36-.781 1.38-.781 2.07-2.017c.47-.824.71-1.691.71-2.6v-3.068c-.14.171-.45.327-.94.469-.47.132-1.02.251-1.64.355-.62.095-1.22.18-1.81.256-.58.066-1.04.123-1.4.17-.88.114-1.69.298-2.45.554-.75.246-1.35.62-1.82 1.122-.45.493-.68 1.165-.68 2.017 0 1.165.43 2.046 1.3 2.642q1.305.88 3.3.881m18.96-10.625V372h-3.35v-21.818h3.24v3.409h.28a6.3 6.3 0 0 1 2.33-2.671c1.05-.681 2.39-1.022 4.04-1.022 1.48 0 2.77.303 3.88.909 1.1.596 1.97 1.505 2.58 2.727.62 1.212.92 2.746.92 4.602V372h-3.35v-13.636c0-1.714-.44-3.05-1.33-4.006-.89-.966-2.11-1.449-3.67-1.449-1.07 0-2.02.232-2.87.696-.83.464-1.49 1.141-1.97 2.031s-.73 1.97-.73 3.239m41.02-8.693v2.841h-11.76v-2.841zM1609.36 372v-24.83c0-1.25.29-2.291.88-3.125a5.47 5.47 0 0 1 2.29-1.875 7.2 7.2 0 0 1 2.96-.625c.83 0 1.5.067 2.02.199q.78.2 1.17.37l-.97 2.897c-.17-.056-.41-.127-.71-.213-.29-.085-.68-.128-1.16-.128-1.11 0-1.91.28-2.41.839q-.72.837-.72 2.457V372zm12.93 0v-21.818h3.36V372zm1.71-25.455c-.65 0-1.22-.222-1.69-.667s-.7-.98-.7-1.605.23-1.16.7-1.605A2.38 2.38 0 0 1 1624 342q.975 0 1.68.668c.47.445.71.98.71 1.605s-.24 1.16-.71 1.605q-.705.667-1.68.667m17.28 3.637v2.841h-11.31v-2.841zm-8.02-5.227h3.36v20.795c0 .947.13 1.657.41 2.131q.42.696 1.08.937c.44.152.91.227 1.4.227.37 0 .68-.018.91-.056l.57-.114.68 3.011c-.22.086-.54.171-.95.256-.41.095-.92.142-1.55.142a6.8 6.8 0 0 1-2.78-.611 5.56 5.56 0 0 1-2.25-1.861c-.58-.833-.88-1.884-.88-3.153zm34.08 27.443c-1.87 0-3.55-.322-5.01-.966q-2.19-.966-3.48-2.685c-.86-1.155-1.32-2.495-1.4-4.02h3.58c.08.938.4 1.747.97 2.429.57.673 1.31 1.193 2.23 1.563s1.94.554 3.05.554q1.875 0 3.33-.654c.96-.435 1.72-1.041 2.27-1.818.55-.776.82-1.676.82-2.699 0-1.07-.26-2.012-.79-2.826-.53-.824-1.31-1.468-2.33-1.932q-1.53-.696-3.75-.696h-2.33v-3.125h2.33c1.15 0 2.17-.209 3.04-.625.88-.417 1.57-1.004 2.06-1.762q.75-1.135.75-2.67c0-.985-.22-1.842-.65-2.571a4.5 4.5 0 0 0-1.85-1.705c-.78-.407-1.71-.61-2.78-.61a7.3 7.3 0 0 0-2.84.554q-1.32.539-2.16 1.576c-.56.682-.86 1.506-.91 2.472h-3.41q.09-2.287 1.38-4.006c.86-1.155 1.99-2.055 3.38-2.699 1.4-.644 2.94-.966 4.61-.966 1.8 0 3.35.365 4.64 1.094 1.28.72 2.27 1.672 2.96 2.855a7.4 7.4 0 0 1 1.04 3.835q0 2.458-1.29 4.191-1.275 1.732-3.48 2.4v.228c1.84.303 3.27 1.084 4.3 2.343 1.03 1.25 1.55 2.799 1.55 4.645q0 2.372-1.29 4.262c-.85 1.25-2.02 2.234-3.5 2.954q-2.205 1.08-5.04 1.08m25.13 0c-2.14 0-3.96-.583-5.47-1.747q-2.265-1.762-3.45-5.1c-.8-2.235-1.19-4.934-1.19-8.096 0-3.144.39-5.829 1.19-8.054.8-2.235 1.96-3.94 3.46-5.114q2.28-1.776 5.46-1.776c2.12 0 3.93.592 5.44 1.776 1.51 1.174 2.67 2.879 3.47 5.114q1.2 3.338 1.2 8.054c0 3.162-.4 5.861-1.19 8.096q-1.2 3.338-3.45 5.1c-1.51 1.164-3.33 1.747-5.47 1.747m0-3.125c2.12 0 3.77-1.023 4.94-3.068 1.18-2.046 1.76-4.963 1.76-8.75q0-3.778-.81-6.435c-.53-1.771-1.29-3.12-2.3-4.048-.99-.928-2.19-1.392-3.59-1.392-2.1 0-3.75 1.036-4.93 3.11-1.18 2.065-1.78 4.986-1.78 8.765 0 2.518.27 4.659.8 6.42s1.29 3.101 2.29 4.02 2.21 1.378 3.62 1.378m16.02 2.727v-29.091h3.52v14.432h.35l13.06-14.432h4.61l-12.22 13.125L1730.03 372h-4.27l-10.11-13.523-3.64 4.091V372zm26.1 0v-29.091h10.17q3.03 0 5.01 1.051 1.98 1.037 2.94 2.799c.64 1.164.97 2.457.97 3.877 0 1.25-.23 2.283-.67 3.097s-1.01 1.458-1.73 1.932c-.71.473-1.49.824-2.32 1.051V357c.89.057 1.79.369 2.68.938.9.568 1.66 1.382 2.26 2.443.61 1.06.91 2.358.91 3.892q0 2.188-.99 3.934c-.66 1.165-1.71 2.088-3.14 2.77q-2.145 1.023-5.58 1.023zm3.52-3.125h6.99c2.3 0 3.93-.445 4.9-1.335.97-.9 1.46-1.989 1.46-3.267q0-1.477-.75-2.728c-.5-.842-1.22-1.515-2.15-2.017-.93-.511-2.02-.767-3.29-.767h-7.16zm0-13.182h6.53c1.06 0 2.02-.208 2.87-.625a5.1 5.1 0 0 0 2.05-1.761c.51-.758.76-1.648.76-2.671 0-1.278-.44-2.362-1.33-3.252q-1.335-1.35-4.23-1.35h-6.65zm27.04 12.33-.23 1.534a31 31 0 0 1-.74 3.466 64 64 0 0 1-1.01 3.48c-.35 1.089-.64 1.955-.86 2.599h-2.56q.18-.909.48-2.4.3-1.492.6-3.338.315-1.833.51-3.75l.17-1.591zm22.4 3.977-6.65-21.818h3.53l4.71 16.704h.23l4.66-16.704h3.58l4.6 16.648h.23l4.71-16.648h3.53L1804.03 372h-3.3l-4.77-16.761h-.34L1790.85 372zm35.68.455q-2.955 0-5.19-1.407c-1.47-.937-2.63-2.249-3.46-3.934s-1.24-3.656-1.24-5.909c0-2.273.41-4.257 1.24-5.952s1.99-3.012 3.46-3.949q2.235-1.406 5.19-1.406c1.97 0 3.69.468 5.17 1.406 1.49.937 2.64 2.254 3.47 3.949s1.25 3.679 1.25 5.952c0 2.253-.42 4.223-1.25 5.909s-1.98 2.997-3.47 3.934c-1.48.938-3.2 1.407-5.17 1.407m0-3.012c1.49 0 2.73-.383 3.69-1.15.97-.767 1.68-1.776 2.15-3.026q.69-1.875.69-4.062t-.69-4.077c-.47-1.26-1.18-2.278-2.15-3.054-.96-.777-2.2-1.165-3.69-1.165q-2.25 0-3.69 1.165c-.97.776-1.69 1.794-2.15 3.054s-.7 2.618-.7 4.077c0 1.458.24 2.812.7 4.062s1.18 2.259 2.15 3.026q1.44 1.15 3.69 1.15m15 2.557v-21.818h3.24v3.295h.23q.6-1.618 2.16-2.628c1.04-.672 2.21-1.008 3.52-1.008.25 0 .55.005.92.014q.555.015.84.043v3.409a9 9 0 0 0-.78-.128q-.6-.099-1.26-.099-1.59 0-2.85.667a5.1 5.1 0 0 0-1.96 1.818c-.47.767-.71 1.643-.71 2.628V372zm30.34-16.932-3.01.852a5.6 5.6 0 0 0-.84-1.463c-.36-.483-.85-.88-1.48-1.193q-.93-.469-2.4-.469c-1.33 0-2.45.308-3.34.924q-1.32.91-1.32 2.315c0 .833.31 1.492.91 1.975.61.482 1.56.885 2.84 1.207l3.24.795c1.95.474 3.41 1.198 4.36 2.174q1.44 1.449 1.44 3.735 0 1.875-1.08 3.353c-.71.985-1.71 1.761-2.99 2.329-1.27.568-2.76.853-4.46.853q-3.33 0-5.52-1.449c-1.46-.966-2.38-2.377-2.77-4.233l3.18-.796c.3 1.175.88 2.055 1.72 2.642.85.587 1.96.881 3.34.881q2.34 0 3.72-.994c.93-.673 1.39-1.478 1.39-2.415 0-.758-.26-1.392-.79-1.903-.53-.521-1.35-.91-2.45-1.165l-3.63-.853q-3-.71-4.41-2.201c-.93-1.004-1.39-2.259-1.39-3.764 0-1.232.35-2.321 1.04-3.267q1.05-1.42 2.85-2.231c1.22-.539 2.59-.809 4.12-.809 2.16 0 3.86.473 5.09 1.42q1.86 1.42 2.64 3.75m14.93-4.886v2.841h-11.3v-2.841zm-8.01-5.227h3.35v20.795c0 .947.14 1.657.41 2.131q.435.696 1.08.937.675.227 1.41.227c.37 0 .67-.018.91-.056l.57-.114.68 3.011c-.23.086-.54.171-.95.256-.41.095-.93.142-1.55.142-.95 0-1.88-.204-2.78-.611a5.56 5.56 0 0 1-2.25-1.861c-.59-.833-.88-1.884-.88-3.153zm-268.07 53.227v2.841h-11.76v-2.841zM1599.18 420v-24.83c0-1.25.3-2.291.88-3.125a5.47 5.47 0 0 1 2.29-1.875 7.3 7.3 0 0 1 2.97-.625c.82 0 1.49.067 2.02.199.52.133.9.256 1.16.37l-.97 2.897c-.17-.056-.4-.127-.71-.213-.29-.085-.68-.128-1.16-.128q-1.665 0-2.4.839c-.48.558-.73 1.377-.73 2.457V420zm12.94 0v-21.818h3.35V420zm1.7-25.455a2.4 2.4 0 0 1-1.69-.667q-.69-.667-.69-1.605t.69-1.605a2.4 2.4 0 0 1 1.69-.668q.99 0 1.68.668c.47.445.71.98.71 1.605s-.24 1.16-.71 1.605q-.69.667-1.68.667m17.28 3.637v2.841h-11.31v-2.841zm-8.01-5.227h3.35v20.795c0 .947.14 1.657.41 2.131q.435.696 1.08.937.675.227 1.41.227c.37 0 .67-.018.91-.056q.345-.072.57-.114l.68 3.011c-.23.086-.55.171-.95.256-.41.095-.93.142-1.55.142a6.8 6.8 0 0 1-2.79-.611c-.9-.407-1.64-1.027-2.24-1.861-.59-.833-.88-1.884-.88-3.153zm30.72 27.556c-1.38 0-2.63-.26-3.76-.781a6.5 6.5 0 0 1-2.69-2.287q-.99-1.506-.99-3.636c0-1.25.25-2.263.74-3.04a5.2 5.2 0 0 1 1.97-1.847q1.245-.667 2.73-.994 1.5-.34 3.03-.54c1.32-.17 2.4-.298 3.22-.383.83-.095 1.44-.251 1.82-.469.39-.218.58-.597.58-1.136v-.114c0-1.401-.38-2.49-1.15-3.267q-1.14-1.165-3.45-1.165c-1.6 0-2.86.351-3.77 1.051-.9.701-1.54 1.449-1.91 2.245l-3.19-1.137q.855-1.988 2.28-3.096a8.5 8.5 0 0 1 3.12-1.563c1.14-.303 2.26-.454 3.35-.454.71 0 1.51.085 2.42.255.92.161 1.8.498 2.66 1.009s1.57 1.283 2.14 2.315.85 2.415.85 4.148V420h-3.35v-2.955h-.17q-.345.711-1.14 1.52c-.53.54-1.23.999-2.11 1.378s-1.96.568-3.23.568m.51-3.011q1.995 0 3.36-.781 1.38-.781 2.07-2.017c.47-.824.71-1.691.71-2.6v-3.068c-.14.171-.45.327-.94.469-.47.132-1.02.251-1.64.355-.62.095-1.22.18-1.81.256-.58.066-1.05.123-1.4.17-.88.114-1.69.298-2.45.554-.75.246-1.35.62-1.82 1.122-.45.493-.68 1.165-.68 2.017q0 1.748 1.29 2.642c.88.587 1.98.881 3.31.881m32.67-19.318L1678.92 420h-3.41l-8.06-21.818h3.63l6.02 17.386h.23l6.02-17.386zm10.18 22.329c-1.38 0-2.64-.26-3.76-.781a6.5 6.5 0 0 1-2.69-2.287q-.99-1.506-.99-3.636c0-1.25.25-2.263.74-3.04a5.2 5.2 0 0 1 1.97-1.847q1.245-.667 2.73-.994c1-.227 2.01-.407 3.02-.54 1.33-.17 2.41-.298 3.23-.383.83-.095 1.44-.251 1.82-.469.39-.218.58-.597.58-1.136v-.114c0-1.401-.38-2.49-1.15-3.267q-1.14-1.165-3.45-1.165c-1.6 0-2.86.351-3.77 1.051-.91.701-1.54 1.449-1.91 2.245l-3.19-1.137q.855-1.988 2.28-3.096a8.4 8.4 0 0 1 3.12-1.563c1.14-.303 2.26-.454 3.35-.454.7 0 1.51.085 2.42.255.92.161 1.8.498 2.66 1.009s1.57 1.283 2.14 2.315.85 2.415.85 4.148V420h-3.35v-2.955h-.17q-.345.711-1.14 1.52c-.53.54-1.23.999-2.11 1.378s-1.96.568-3.23.568m.51-3.011q1.995 0 3.36-.781c.91-.521 1.61-1.193 2.07-2.017.47-.824.71-1.691.71-2.6v-3.068c-.14.171-.45.327-.94.469a16 16 0 0 1-1.65.355q-.915.142-1.8.256-.87.1-1.41.17c-.87.114-1.68.298-2.44.554-.75.246-1.35.62-1.82 1.122-.45.493-.68 1.165-.68 2.017q0 1.748 1.29 2.642c.88.587 1.98.881 3.31.881m15.61 2.5v-21.818h3.35V420zm1.71-25.455c-.66 0-1.22-.222-1.69-.667s-.7-.98-.7-1.605.23-1.16.7-1.605A2.37 2.37 0 0 1 1715 390c.65 0 1.21.223 1.67.668.48.445.71.98.71 1.605s-.23 1.16-.71 1.605c-.46.445-1.02.667-1.67.667m11.14-3.636V420h-3.36v-29.091zm12.56 29.602c-1.39 0-2.64-.26-3.77-.781-1.13-.53-2.02-1.292-2.68-2.287-.67-1.004-1-2.216-1-3.636 0-1.25.25-2.263.74-3.04a5.2 5.2 0 0 1 1.98-1.847 10.3 10.3 0 0 1 2.72-.994q1.515-.34 3.03-.54c1.32-.17 2.4-.298 3.22-.383.84-.095 1.44-.251 1.82-.469.39-.218.58-.597.58-1.136v-.114c0-1.401-.38-2.49-1.15-3.267-.75-.776-1.91-1.165-3.45-1.165-1.6 0-2.85.351-3.76 1.051q-1.365 1.051-1.92 2.245l-3.18-1.137c.57-1.325 1.32-2.358 2.27-3.096.96-.748 2-1.269 3.13-1.563 1.13-.303 2.25-.454 3.35-.454.7 0 1.5.085 2.41.255.92.161 1.81.498 2.66 1.009.86.511 1.58 1.283 2.14 2.315.57 1.032.86 2.415.86 4.148V420h-3.36v-2.955h-.17c-.22.474-.6.981-1.13 1.52-.53.54-1.24.999-2.12 1.378s-1.96.568-3.22.568m.51-3.011c1.32 0 2.44-.26 3.35-.781q1.38-.781 2.07-2.017c.48-.824.71-1.691.71-2.6v-3.068q-.21.256-.93.469-.72.199-1.65.355c-.62.095-1.22.18-1.81.256-.57.066-1.04.123-1.4.17-.87.114-1.69.298-2.45.554-.74.246-1.35.62-1.81 1.122q-.69.74-.69 2.017c0 1.165.44 2.046 1.3 2.642.87.587 1.97.881 3.31.881m16.06 2.5v-29.091h3.35v10.739h.29q.36-.569 1.02-1.449c.44-.597 1.08-1.127 1.9-1.591.83-.474 1.96-.71 3.38-.71q2.76 0 4.86 1.378c1.4.918 2.5 2.22 3.28 3.906.79 1.685 1.18 3.674 1.18 5.966 0 2.31-.39 4.313-1.18 6.008q-1.17 2.529-3.27 3.921c-1.39.918-2.99 1.378-4.81 1.378-1.4 0-2.52-.232-3.37-.696-.84-.474-1.49-1.009-1.94-1.606q-.69-.91-1.05-1.505h-.4V420zm3.29-10.909c0 1.648.25 3.101.73 4.361.48 1.25 1.19 2.23 2.12 2.94.92.701 2.06 1.051 3.4 1.051q2.115 0 3.51-1.108 1.425-1.122 2.13-3.011c.49-1.269.73-2.68.73-4.233 0-1.534-.24-2.917-.71-4.148-.47-1.24-1.17-2.22-2.12-2.94q-1.41-1.094-3.54-1.094c-1.36 0-2.51.346-3.43 1.037-.93.682-1.63 1.638-2.11 2.869-.47 1.222-.71 2.647-.71 4.276m24.45-18.182V420h-3.35v-29.091zm15.29 29.546c-2.1 0-3.92-.464-5.44-1.393q-2.28-1.406-3.51-3.92c-.82-1.686-1.22-3.646-1.22-5.881 0-2.234.4-4.204 1.22-5.909.82-1.714 1.97-3.049 3.44-4.005 1.47-.966 3.2-1.449 5.17-1.449 1.13 0 2.26.189 3.36.568q1.665.568 3.03 1.846c.91.843 1.63 1.961 2.17 3.353q.81 2.088.81 5.142v1.42h-16.82v-2.897h13.41c0-1.232-.24-2.33-.74-3.296a5.54 5.54 0 0 0-2.07-2.287q-1.335-.838-3.15-.838c-1.34 0-2.49.332-3.47.994a6.6 6.6 0 0 0-2.23 2.557 7.5 7.5 0 0 0-.78 3.381v1.932c0 1.647.28 3.044.85 4.19q.87 1.704 2.4 2.599c1.03.588 2.21.881 3.57.881.88 0 1.67-.123 2.38-.369a5.2 5.2 0 0 0 1.87-1.136q.78-.767 1.2-1.904l3.24.909a7.1 7.1 0 0 1-1.72 2.898c-.8.824-1.8 1.468-2.98 1.932q-1.77.682-3.99.682"/><path stroke="#fff" stroke-width="2" d="M436.104 267v49M1248.19 267v49M1741 267v49M224 315h1516"/><rect width="229" height="150" x="1" y="267" fill="#3b82f6" stroke="#dbdbdb" stroke-width="2" rx="27"/><path fill="#fff" d="M78.536 333v-29.091h11.477q3.31 0 5.64 1.264 2.329 1.251 3.55 3.48 1.236 2.216 1.236 5.114t-1.25 5.114q-1.25 2.216-3.622 3.451-2.358 1.236-5.71 1.236h-7.315v-4.929h6.32q1.776 0 2.927-.611 1.164-.624 1.733-1.718.582-1.109.582-2.543 0-1.45-.582-2.528-.569-1.095-1.733-1.691-1.165-.61-2.955-.61h-4.147V333zm25.288-5.114v-4.843l12.145-19.134h4.176v6.705h-2.472l-7.656 12.116v.227h17.258v4.929zM117.787 333v-6.591l.113-2.145v-20.355h5.767V333zm17.18-3.381a3.32 3.32 0 0 1-2.415-.994q-.994-.995-.994-2.415 0-1.392.994-2.386a3.32 3.32 0 0 1 2.415-.994q1.364 0 2.386.994t1.023 2.386q0 .937-.483 1.719a3.7 3.7 0 0 1-1.236 1.236 3.25 3.25 0 0 1-1.69.454m0-14.275q-1.405 0-2.415-.995-.994-.993-.994-2.414 0-1.392.994-2.373 1.01-.994 2.415-.994 1.364 0 2.386.994 1.023.981 1.023 2.373 0 .951-.483 1.733a3.54 3.54 0 0 1-1.236 1.221 3.25 3.25 0 0 1-1.69.455m-71.981 66.054q-3.182 0-5.668-1.094-2.472-1.108-3.906-3.04-1.42-1.946-1.463-4.488h6.193q.057 1.065.696 1.875.653.795 1.733 1.235t2.429.441q1.406 0 2.486-.497 1.08-.498 1.69-1.378.61-.881.61-2.032 0-1.165-.653-2.059-.639-.91-1.846-1.421-1.194-.511-2.841-.511h-2.713v-4.517h2.713q1.392 0 2.457-.483 1.08-.483 1.676-1.335.597-.867.597-2.017 0-1.094-.526-1.918a3.47 3.47 0 0 0-1.449-1.307q-.923-.468-2.159-.468-1.25 0-2.287.454-1.036.44-1.662 1.264t-.667 1.932H52.53q.042-2.514 1.435-4.432 1.392-1.917 3.75-2.997 2.371-1.094 5.355-1.094 3.01 0 5.27 1.094 2.258 1.094 3.508 2.955 1.265 1.846 1.25 4.147.015 2.444-1.52 4.077-1.52 1.633-3.963 2.074v.227q3.21.412 4.887 2.23 1.69 1.805 1.676 4.517.014 2.486-1.435 4.418-1.434 1.932-3.963 3.04t-5.795 1.108m27.02.241q-3.664-.014-6.307-1.804-2.627-1.79-4.048-5.184-1.406-3.395-1.392-8.168 0-4.758 1.406-8.111 1.42-3.353 4.049-5.099 2.641-1.762 6.292-1.762t6.279 1.762q2.64 1.761 4.062 5.113 1.42 3.339 1.406 8.097 0 4.787-1.42 8.182-1.406 3.395-4.034 5.184t-6.293 1.79m0-5.099q2.5 0 3.992-2.514 1.49-2.515 1.477-7.543 0-3.31-.682-5.511-.668-2.202-1.903-3.31-1.222-1.108-2.884-1.108-2.486 0-3.977 2.486t-1.506 7.443q0 3.352.668 5.597.682 2.23 1.917 3.352a4.2 4.2 0 0 0 2.898 1.108m25.561 4.46v-29.091h6.151v12.827h.383l10.469-12.827h7.372l-10.795 13.026L140.07 381h-7.358l-7.969-11.96-3.025 3.693V381zm27.578 0v-29.091h11.648q3.21 0 5.355.952 2.145.951 3.225 2.642 1.079 1.676 1.079 3.863 0 1.705-.682 2.998a5.9 5.9 0 0 1-1.875 2.102q-1.179.81-2.698 1.15v.285a6.5 6.5 0 0 1 3.11.937q1.463.867 2.372 2.429.91 1.548.91 3.693 0 2.316-1.151 4.134-1.137 1.803-3.366 2.855-2.23 1.051-5.498 1.051zm6.151-5.028h5.014q2.571 0 3.75-.981 1.179-.993 1.179-2.642 0-1.207-.582-2.13-.583-.924-1.662-1.449-1.065-.526-2.543-.526h-5.156zm0-11.89h4.56q1.264 0 2.244-.44.995-.454 1.562-1.278.583-.825.583-1.975 0-1.576-1.122-2.542-1.108-.966-3.154-.966h-4.673z"/><rect width="1885" height="150" x="1" y="78" stroke="#dbdbdb" stroke-width="2" rx="27"/><rect width="356.812" height="150" x="2.059" y="78" fill="#096" stroke="#dbdbdb" stroke-width="2" rx="27"/><path fill="#fb701a" stroke="#dbdbdb" stroke-width="2" d="M1378 105c0-14.912 12.09-27 27-27h115c14.91 0 27 12.088 27 27v96c0 14.912-12.09 27-27 27h-115c-14.91 0-27-12.088-27-27z"/><rect width="560.734" height="150" x="531.453" y="78" fill="#ec003f" stroke="#dbdbdb" stroke-width="2" rx="27"/><path fill="#fff" d="M152.184 144v-29.091h11.478q3.31 0 5.639 1.264 2.33 1.251 3.551 3.48 1.236 2.216 1.236 5.114t-1.25 5.114-3.622 3.451q-2.358 1.236-5.711 1.236h-7.315v-4.929h6.321q1.776 0 2.926-.611 1.165-.624 1.733-1.718.583-1.109.583-2.543 0-1.45-.583-2.528-.568-1.095-1.733-1.691-1.164-.61-2.954-.61h-4.148V144zm38.385-29.091V144h-6.151v-23.253h-.17l-6.662 4.176v-5.454l7.201-4.56zm10.507 25.71a3.32 3.32 0 0 1-2.414-.994q-.995-.995-.995-2.415 0-1.392.995-2.386a3.32 3.32 0 0 1 2.414-.994q1.364 0 2.387.994t1.022 2.386q0 .938-.482 1.719a3.7 3.7 0 0 1-1.236 1.236 3.26 3.26 0 0 1-1.691.454m0-14.275a3.32 3.32 0 0 1-2.414-.995q-.995-.993-.995-2.414 0-1.392.995-2.373a3.32 3.32 0 0 1 2.414-.994q1.364 0 2.387.994 1.022.981 1.022 2.373a3.24 3.24 0 0 1-.482 1.733 3.56 3.56 0 0 1-1.236 1.221 3.26 3.26 0 0 1-1.691.455m-68.046 66.054q-3.012 0-5.37-1.108-2.343-1.108-3.721-3.054t-1.435-4.46h5.966q.1 1.69 1.42 2.741 1.321 1.051 3.14 1.051 1.448 0 2.556-.639a4.57 4.57 0 0 0 1.747-1.804q.64-1.165.64-2.67 0-1.535-.654-2.699a4.6 4.6 0 0 0-1.775-1.818q-1.137-.654-2.6-.668-1.278 0-2.486.525-1.192.526-1.86 1.435l-5.469-.98 1.378-15.341h17.784v5.029h-12.713l-.753 7.286h.17q.768-1.079 2.316-1.789 1.548-.711 3.466-.711 2.628 0 4.687 1.236t3.253 3.395q1.192 2.145 1.179 4.943.014 2.941-1.364 5.228-1.363 2.272-3.821 3.579-2.442 1.293-5.681 1.293m26.562.241q-3.664-.014-6.307-1.804-2.628-1.79-4.048-5.184-1.407-3.395-1.392-8.168 0-4.758 1.406-8.111 1.421-3.353 4.048-5.099 2.643-1.762 6.293-1.762t6.278 1.762q2.643 1.761 4.063 5.113 1.42 3.339 1.406 8.097 0 4.787-1.42 8.182-1.406 3.395-4.034 5.184t-6.293 1.79m0-5.099q2.5 0 3.991-2.514 1.492-2.515 1.478-7.543 0-3.31-.682-5.511-.668-2.202-1.903-3.31a4.15 4.15 0 0 0-2.884-1.108q-2.486 0-3.977 2.486-1.492 2.486-1.506 7.443 0 3.352.668 5.597.681 2.23 1.917 3.352a4.2 4.2 0 0 0 2.898 1.108m25.561 4.46v-29.091h6.151v12.827h.383l10.469-12.827h7.372l-10.795 13.026L209.656 192h-7.358l-7.969-11.96-3.025 3.693V192zm27.578 0v-29.091h11.648q3.21 0 5.355.952 2.145.951 3.224 2.642 1.08 1.676 1.08 3.863 0 1.705-.682 2.998a5.9 5.9 0 0 1-1.875 2.102q-1.178.81-2.699 1.15v.285a6.5 6.5 0 0 1 3.111.937q1.463.867 2.372 2.429.909 1.548.909 3.693 0 2.316-1.15 4.134-1.137 1.803-3.367 2.855-2.23 1.051-5.497 1.051zm6.151-5.028h5.014q2.571 0 3.75-.981 1.179-.993 1.179-2.642 0-1.207-.582-2.13-.584-.924-1.662-1.449-1.066-.526-2.543-.526h-5.156zm0-11.89h4.559q1.264 0 2.245-.44.994-.454 1.562-1.278.583-.825.583-1.975 0-1.576-1.123-2.542-1.107-.966-3.153-.966h-4.673zM1181.42 165.886v-4.843l12.15-19.134h4.17v6.705h-2.47l-7.66 12.116v.227h17.26v4.929zm13.96 5.114v-6.591l.12-2.145v-20.355h5.77V171zm25 .639c-2.45-.009-4.55-.611-6.31-1.804q-2.625-1.79-4.05-5.184c-.94-2.264-1.4-4.986-1.39-8.168q0-4.758 1.41-8.111c.94-2.235 2.29-3.935 4.04-5.099 1.77-1.175 3.86-1.762 6.3-1.762 2.43 0 4.52.587 6.28 1.762 1.76 1.174 3.11 2.879 4.06 5.113.95 2.226 1.41 4.925 1.4 8.097 0 3.191-.47 5.919-1.42 8.182-.93 2.263-2.28 3.991-4.03 5.184s-3.85 1.79-6.29 1.79m0-5.099q2.49 0 3.99-2.514c.99-1.677 1.49-4.191 1.48-7.543q0-3.31-.69-5.511c-.44-1.468-1.08-2.571-1.9-3.31q-1.215-1.108-2.88-1.108c-1.66 0-2.99.829-3.98 2.486s-1.5 4.138-1.51 7.443c0 2.235.23 4.1.67 5.597q.69 2.23 1.92 3.352a4.2 4.2 0 0 0 2.9 1.108m25.56 4.46v-29.091h6.15v12.827h.38l10.47-12.827h7.37l-10.79 13.026L1270.44 171h-7.36l-7.97-11.96-3.02 3.693V171zm27.58 0v-29.091h11.64c2.14 0 3.93.317 5.36.952 1.43.634 2.5 1.515 3.22 2.642q1.08 1.676 1.08 3.863c0 1.137-.22 2.136-.68 2.998a5.9 5.9 0 0 1-1.87 2.102 7.7 7.7 0 0 1-2.7 1.15v.285a6.5 6.5 0 0 1 3.11.937q1.455.867 2.37 2.429c.61 1.032.91 2.263.91 3.693 0 1.544-.38 2.922-1.15 4.134-.76 1.202-1.88 2.154-3.37 2.855-1.48.701-3.32 1.051-5.49 1.051zm6.15-5.028h5.01q2.58 0 3.75-.981c.79-.662 1.18-1.543 1.18-2.642 0-.804-.19-1.515-.58-2.13-.39-.616-.94-1.099-1.66-1.449q-1.065-.526-2.55-.526h-5.15zm0-11.89h4.56c.84 0 1.59-.146 2.24-.44q.99-.455 1.56-1.278c.39-.55.59-1.208.59-1.975 0-1.051-.38-1.898-1.13-2.542-.73-.644-1.79-.966-3.15-.966h-4.67zM1667.15 171.398q-3.015 0-5.37-1.108-2.34-1.109-3.72-3.054c-.92-1.298-1.4-2.784-1.43-4.46h5.96c.07 1.126.54 2.04 1.42 2.741s1.93 1.051 3.14 1.051c.97 0 1.82-.213 2.56-.639a4.5 4.5 0 0 0 1.74-1.804c.43-.777.64-1.667.64-2.67 0-1.023-.21-1.923-.65-2.699a4.63 4.63 0 0 0-1.78-1.818c-.75-.436-1.62-.659-2.59-.668q-1.29 0-2.49.525-1.2.526-1.86 1.435l-5.47-.98 1.38-15.341h17.78v5.029h-12.71l-.75 7.286h.17q.765-1.079 2.31-1.789c1.03-.474 2.19-.711 3.47-.711 1.75 0 3.31.412 4.69 1.236 1.37.824 2.45 1.956 3.25 3.395.79 1.43 1.19 3.078 1.18 4.943.01 1.961-.45 3.703-1.37 5.228-.91 1.515-2.18 2.708-3.82 3.579-1.63.862-3.52 1.293-5.68 1.293m26.56.241q-3.66-.014-6.3-1.804c-1.76-1.193-3.1-2.921-4.05-5.184-.94-2.264-1.4-4.986-1.39-8.168 0-3.172.46-5.876 1.4-8.111q1.425-3.353 4.05-5.099c1.76-1.175 3.86-1.762 6.29-1.762 2.44 0 4.53.587 6.28 1.762 1.76 1.174 3.12 2.879 4.06 5.113q1.425 3.339 1.41 8.097c0 3.191-.47 5.919-1.42 8.182-.94 2.263-2.28 3.991-4.03 5.184-1.76 1.194-3.85 1.79-6.3 1.79m0-5.099q2.505 0 3.99-2.514c1-1.677 1.49-4.191 1.48-7.543 0-2.206-.23-4.044-.68-5.511-.44-1.468-1.08-2.571-1.9-3.31a4.17 4.17 0 0 0-2.89-1.108c-1.65 0-2.98.829-3.97 2.486-1 1.657-1.5 4.138-1.51 7.443 0 2.235.22 4.1.67 5.597q.675 2.23 1.92 3.352a4.2 4.2 0 0 0 2.89 1.108m25.56 4.46v-29.091h6.15v12.827h.39l10.47-12.827h7.37l-10.8 13.026L1743.78 171h-7.36l-7.97-11.96-3.03 3.693V171zm27.58 0v-29.091h11.65c2.14 0 3.93.317 5.36.952 1.43.634 2.5 1.515 3.22 2.642q1.08 1.676 1.08 3.863c0 1.137-.23 2.136-.68 2.998a5.9 5.9 0 0 1-1.88 2.102q-1.17.81-2.7 1.15v.285c1.11.047 2.15.359 3.11.937.98.578 1.77 1.387 2.38 2.429.6 1.032.91 2.263.91 3.693 0 1.544-.39 2.922-1.15 4.134-.76 1.202-1.88 2.154-3.37 2.855s-3.32 1.051-5.5 1.051zm6.15-5.028h5.02q2.565 0 3.75-.981c.78-.662 1.18-1.543 1.18-2.642 0-.804-.2-1.515-.59-2.13-.38-.616-.94-1.099-1.66-1.449-.71-.35-1.56-.526-2.54-.526H1753zm0-11.89h4.56c.85 0 1.59-.146 2.25-.44q.99-.455 1.56-1.278c.39-.55.58-1.208.58-1.975 0-1.051-.37-1.898-1.12-2.542q-1.11-.966-3.15-.966H1753zM780.939 144v-29.091h11.478q3.31 0 5.639 1.264 2.33 1.251 3.551 3.48 1.236 2.216 1.236 5.114t-1.25 5.114-3.622 3.451q-2.358 1.236-5.711 1.236h-7.315v-4.929h6.321q1.776 0 2.926-.611 1.165-.624 1.733-1.718.582-1.109.583-2.543 0-1.45-.583-2.528-.568-1.095-1.733-1.691-1.164-.61-2.954-.61h-4.148V144zm25.728 0v-4.432l10.355-9.588a39 39 0 0 0 2.216-2.301q.91-1.023 1.378-2.003a4.96 4.96 0 0 0 .469-2.145q0-1.278-.582-2.201a3.83 3.83 0 0 0-1.591-1.435q-1.01-.511-2.287-.511-1.335 0-2.33.539a3.7 3.7 0 0 0-1.534 1.549q-.54 1.008-.54 2.4h-5.838q0-2.855 1.293-4.957 1.293-2.103 3.622-3.253 2.33-1.15 5.369-1.151 3.125 0 5.441 1.108 2.33 1.094 3.622 3.04 1.293 1.946 1.292 4.46a8.6 8.6 0 0 1-.653 3.253q-.639 1.605-2.287 3.566-1.647 1.946-4.645 4.673l-4.247 4.162v.199h12.216V144zm28.789-3.381a3.32 3.32 0 0 1-2.414-.994q-.995-.995-.995-2.415 0-1.392.995-2.386a3.32 3.32 0 0 1 2.414-.994q1.364 0 2.387.994t1.022 2.386q0 .938-.482 1.719a3.7 3.7 0 0 1-1.236 1.236 3.26 3.26 0 0 1-1.691.454m0-14.275a3.32 3.32 0 0 1-2.414-.995q-.995-.993-.995-2.414 0-1.392.995-2.373a3.32 3.32 0 0 1 2.414-.994q1.364 0 2.387.994 1.023.981 1.022 2.373a3.24 3.24 0 0 1-.482 1.733 3.56 3.56 0 0 1-1.236 1.221 3.26 3.26 0 0 1-1.691.455m-70.964 66.054q-3.28 0-5.838-1.066-2.542-1.079-3.991-2.94a6.7 6.7 0 0 1-1.449-4.219q0-1.818.824-3.338a7.4 7.4 0 0 1 2.272-2.542 7.5 7.5 0 0 1 3.211-1.307v-.199q-2.33-.469-3.779-2.259-1.449-1.803-1.449-4.19 0-2.259 1.321-4.02 1.321-1.776 3.623-2.784 2.315-1.023 5.255-1.023t5.242 1.023q2.315 1.023 3.636 2.798 1.322 1.762 1.335 4.006-.014 2.4-1.477 4.19-1.462 1.79-3.75 2.259v.199a7.4 7.4 0 0 1 3.168 1.307 7.4 7.4 0 0 1 2.272 2.542q.853 1.52.867 3.338a6.76 6.76 0 0 1-1.463 4.219q-1.449 1.861-4.006 2.94-2.542 1.066-5.824 1.066m0-4.517q1.464 0 2.557-.526 1.093-.54 1.705-1.477.625-.952.625-2.188 0-1.264-.64-2.23a4.4 4.4 0 0 0-1.733-1.534q-1.094-.568-2.514-.568-1.406 0-2.514.568a4.37 4.37 0 0 0-1.747 1.534q-.625.967-.625 2.23 0 1.236.611 2.188.61.937 1.718 1.477 1.108.526 2.557.526m0-12.997q1.222 0 2.174-.498a3.74 3.74 0 0 0 1.491-1.377q.54-.882.54-2.032 0-1.136-.54-1.988a3.7 3.7 0 0 0-1.477-1.35q-.937-.497-2.188-.497-1.236 0-2.187.497a3.7 3.7 0 0 0-1.492 1.35q-.525.852-.525 1.988 0 1.15.539 2.032.54.88 1.492 1.377.952.498 2.173.498m27 17.755q-3.666-.014-6.307-1.804-2.628-1.79-4.049-5.184-1.406-3.395-1.392-8.168 0-4.758 1.407-8.111 1.42-3.353 4.048-5.099 2.642-1.762 6.293-1.762 3.65 0 6.278 1.762 2.641 1.761 4.062 5.113 1.42 3.339 1.407 8.097 0 4.787-1.421 8.182-1.406 3.395-4.034 5.184t-6.292 1.79m0-5.099q2.5 0 3.991-2.514 1.492-2.515 1.477-7.543 0-3.31-.682-5.511-.667-2.202-1.903-3.31-1.222-1.108-2.883-1.108-2.486 0-3.978 2.486t-1.505 7.443q0 3.352.667 5.597.682 2.23 1.918 3.352a4.2 4.2 0 0 0 2.898 1.108m25.561 4.46v-29.091h6.15v12.827h.384l10.468-12.827h7.373l-10.796 13.026L841.555 192h-7.358l-7.968-11.96-3.026 3.693V192zm27.578 0v-29.091h11.647q3.211 0 5.356.952 2.144.951 3.224 2.642 1.08 1.676 1.08 3.863 0 1.705-.682 2.998a5.9 5.9 0 0 1-1.875 2.102q-1.18.81-2.699 1.15v.285a6.5 6.5 0 0 1 3.111.937q1.463.867 2.372 2.429.909 1.548.909 3.693 0 2.316-1.151 4.134-1.135 1.803-3.366 2.855-2.23 1.051-5.497 1.051zm6.15-5.028h5.015q2.571 0 3.75-.981 1.178-.993 1.178-2.642 0-1.207-.582-2.13-.582-.924-1.662-1.449-1.066-.526-2.542-.526h-5.157zm0-11.89h4.56q1.264 0 2.244-.44.994-.454 1.563-1.278.582-.825.582-1.975 0-1.576-1.122-2.542-1.109-.966-3.153-.966h-4.674zM389.512 171v-4.432l10.355-9.588a39 39 0 0 0 2.216-2.301q.909-1.023 1.378-2.003a5 5 0 0 0 .469-2.145q0-1.278-.583-2.201a3.8 3.8 0 0 0-1.591-1.435q-1.008-.511-2.287-.511-1.335 0-2.329.539a3.7 3.7 0 0 0-1.534 1.549q-.54 1.008-.54 2.4h-5.838q0-2.855 1.292-4.957 1.293-2.103 3.623-3.253t5.369-1.151q3.125 0 5.44 1.108 2.33 1.094 3.622 3.04 1.293 1.946 1.293 4.46a8.6 8.6 0 0 1-.653 3.253q-.64 1.605-2.287 3.566-1.648 1.946-4.645 4.673l-4.247 4.162v.199h12.216V171zm36.601.639q-3.665-.014-6.306-1.804-2.628-1.79-4.049-5.184-1.406-3.395-1.392-8.168 0-4.758 1.407-8.111 1.42-3.353 4.048-5.099 2.642-1.762 6.292-1.762t6.279 1.762q2.642 1.761 4.062 5.113 1.42 3.339 1.407 8.097 0 4.787-1.421 8.182-1.406 3.395-4.034 5.184-2.627 1.79-6.293 1.79m0-5.099q2.5 0 3.992-2.514 1.491-2.515 1.477-7.543 0-3.31-.682-5.511-.667-2.202-1.903-3.31-1.222-1.108-2.884-1.108-2.485 0-3.977 2.486t-1.505 7.443q0 3.352.667 5.597.682 2.23 1.918 3.352a4.2 4.2 0 0 0 2.897 1.108m25.562 4.46v-29.091h6.15v12.827h.384l10.468-12.827h7.373l-10.796 13.026L476.177 171h-7.358l-7.968-11.96-3.026 3.693V171zm27.578 0v-29.091H490.9q3.211 0 5.356.952 2.144.951 3.224 2.642 1.08 1.676 1.08 3.863 0 1.705-.682 2.998a5.9 5.9 0 0 1-1.875 2.102q-1.18.81-2.699 1.15v.285a6.5 6.5 0 0 1 3.111.937q1.463.867 2.372 2.429.909 1.548.909 3.693 0 2.316-1.151 4.134-1.136 1.803-3.366 2.855-2.23 1.051-5.497 1.051zm6.15-5.028h5.014q2.571 0 3.75-.981 1.179-.993 1.179-2.642 0-1.207-.582-2.13-.582-.924-1.662-1.449-1.065-.526-2.542-.526h-5.157zm0-11.89h4.56q1.264 0 2.244-.44.995-.455 1.563-1.278.582-.825.582-1.975 0-1.576-1.122-2.542-1.108-.966-3.153-.966h-4.674zM868.921 9.91h4.205l9.886 24.147h.341l9.887-24.148h4.204V39h-3.295V16.898h-.284L884.774 39h-3.182l-9.091-22.102h-.284V39h-3.296zm44.28 29.545q-3.154 0-5.441-1.392-2.272-1.407-3.508-3.921-1.222-2.529-1.222-5.88 0-3.353 1.222-5.91 1.236-2.571 3.437-4.005 2.216-1.45 5.171-1.45 1.704 0 3.366.569 1.662.568 3.026 1.846 1.363 1.264 2.173 3.353.81 2.088.81 5.142v1.42h-16.819V26.33h13.41q0-1.846-.739-3.295a5.56 5.56 0 0 0-2.074-2.287q-1.335-.838-3.153-.838-2.004 0-3.466.994a6.53 6.53 0 0 0-2.23 2.557 7.5 7.5 0 0 0-.782 3.38v1.933q0 2.472.853 4.19.865 1.704 2.4 2.6 1.534.88 3.566.88 1.32 0 2.386-.37a5.1 5.1 0 0 0 1.861-1.136q.781-.766 1.207-1.903l3.239.91a7.2 7.2 0 0 1-1.719 2.897q-1.207 1.236-2.983 1.932-1.776.681-3.991.681M927.334 39V17.182h3.239v3.409h.284q.681-1.748 2.201-2.713 1.521-.98 3.651-.98 2.158 0 3.594.98 1.45.966 2.258 2.713h.228q.837-1.69 2.514-2.685 1.675-1.008 4.02-1.008 2.925 0 4.787 1.832 1.86 1.818 1.86 5.668V39h-3.352V24.398q0-2.414-1.321-3.452t-3.111-1.037q-2.3 0-3.565 1.392-1.264 1.378-1.264 3.495V39h-3.409V24.057q0-1.86-1.208-2.997-1.208-1.15-3.11-1.15-1.308 0-2.444.695-1.122.696-1.818 1.932-.682 1.221-.682 2.827V39zm43.629.455q-2.954 0-5.184-1.407-2.217-1.406-3.466-3.934-1.236-2.529-1.236-5.91 0-3.408 1.236-5.951 1.25-2.543 3.466-3.949 2.23-1.406 5.184-1.406t5.171 1.406q2.23 1.407 3.466 3.949 1.25 2.543 1.25 5.951 0 3.381-1.25 5.91-1.236 2.528-3.466 3.934-2.216 1.407-5.171 1.407m0-3.012q2.245 0 3.693-1.15 1.449-1.15 2.145-3.026t.696-4.063-.696-4.076-2.145-3.054q-1.447-1.165-3.693-1.165-2.244 0-3.693 1.165-1.449 1.164-2.145 3.054t-.696 4.076q0 2.188.696 4.063t2.145 3.026q1.449 1.15 3.693 1.15M985.967 39V17.182h3.238v3.295h.228q.596-1.62 2.159-2.628t3.523-1.008q.37 0 .923.014.554.015.838.043v3.409a10 10 0 0 0-.781-.128 7.7 7.7 0 0 0-1.264-.1q-1.592 0-2.841.668a5.04 5.04 0 0 0-1.961 1.818q-.71 1.15-.71 2.628V39zm17.703 8.182c-.57 0-1.07-.047-1.52-.142-.44-.085-.75-.17-.92-.256l.85-2.954q1.23.312 2.16.227c.63-.057 1.18-.336 1.66-.838q.75-.74 1.35-2.4l.63-1.705-8.071-21.932h3.641l6.02 17.386h.23l6.02-17.386h3.63l-9.26 25c-.41 1.127-.93 2.06-1.55 2.798a5.8 5.8 0 0 1-2.14 1.662q-1.2.54-2.73.54M1433.44 144v-29.091h11.48q3.3 0 5.64 1.264c1.55.834 2.73 1.994 3.55 3.48q1.23 2.216 1.23 5.114c0 1.932-.41 3.636-1.25 5.114-.83 1.477-2.04 2.628-3.62 3.451-1.57.824-3.48 1.236-5.71 1.236h-7.32v-4.929h6.33c1.18 0 2.15-.203 2.92-.611.78-.416 1.36-.989 1.73-1.718.39-.739.59-1.587.59-2.543 0-.966-.2-1.809-.59-2.528-.37-.73-.95-1.293-1.73-1.691-.78-.407-1.76-.61-2.95-.61h-4.15V144zm36.48.398q-3.18 0-5.67-1.094-2.475-1.108-3.9-3.04-1.425-1.945-1.47-4.488h6.2c.03.71.27 1.335.69 1.875.44.53 1.01.942 1.73 1.235q1.08.441 2.43.441 1.41 0 2.49-.497c.72-.332 1.28-.791 1.69-1.378s.61-1.265.61-2.032c0-.776-.22-1.463-.65-2.059-.43-.606-1.04-1.08-1.85-1.421-.79-.341-1.74-.511-2.84-.511h-2.71v-4.517h2.71q1.395 0 2.46-.483c.72-.322 1.28-.767 1.67-1.335q.6-.867.6-2.017c0-.729-.18-1.369-.53-1.918a3.47 3.47 0 0 0-1.44-1.307q-.93-.468-2.16-.468c-.84 0-1.6.151-2.29.454-.69.294-1.25.715-1.66 1.264-.42.55-.64 1.193-.67 1.932h-5.9q.045-2.514 1.44-4.432 1.395-1.917 3.75-2.997c1.58-.729 3.37-1.094 5.35-1.094 2.01 0 3.77.365 5.27 1.094q2.265 1.093 3.51 2.955c.85 1.231 1.26 2.613 1.25 4.147.01 1.629-.49 2.988-1.52 4.077q-1.515 1.633-3.96 2.074v.227q3.21.412 4.89 2.23c1.12 1.203 1.68 2.709 1.67 4.517.01 1.658-.47 3.13-1.43 4.418s-2.28 2.301-3.97 3.04q-2.52 1.107-5.79 1.108m19.21-3.779c-.94 0-1.74-.331-2.42-.994q-.99-.995-.99-2.415 0-1.392.99-2.386c.68-.663 1.48-.994 2.42-.994.91 0 1.7.331 2.38.994.69.663 1.03 1.458 1.03 2.386 0 .625-.16 1.198-.49 1.719q-.465.767-1.23 1.236c-.51.303-1.08.454-1.69.454m0-14.275c-.94 0-1.74-.332-2.42-.995q-.99-.993-.99-2.414 0-1.392.99-2.373c.68-.662 1.48-.994 2.42-.994.91 0 1.7.332 2.38.994.69.654 1.03 1.445 1.03 2.373a3.17 3.17 0 0 1-.49 1.733q-.465.767-1.23 1.221c-.51.303-1.08.455-1.69.455m-66.31 36.565V192h-6.15v-23.253h-.17l-6.66 4.176v-5.454l7.2-4.56zm18.32 29.73c-2.44-.009-4.55-.611-6.31-1.804q-2.625-1.79-4.05-5.184c-.93-2.264-1.4-4.986-1.39-8.168q0-4.758 1.41-8.111c.95-2.235 2.29-3.935 4.05-5.099 1.76-1.175 3.86-1.762 6.29-1.762s4.53.587 6.28 1.762c1.76 1.174 3.11 2.879 4.06 5.113q1.425 3.339 1.41 8.097c0 3.191-.48 5.919-1.42 8.182s-2.29 3.991-4.04 5.184-3.85 1.79-6.29 1.79m0-5.099q2.505 0 3.99-2.514c1-1.677 1.49-4.191 1.48-7.543 0-2.206-.23-4.044-.68-5.511s-1.08-2.571-1.91-3.31q-1.215-1.108-2.88-1.108c-1.66 0-2.98.829-3.98 2.486q-1.485 2.486-1.5 7.443 0 3.352.66 5.597.69 2.23 1.92 3.352c.83.738 1.79 1.108 2.9 1.108m25.56 4.46v-29.091h6.15v12.827h.38l10.47-12.827h7.38l-10.8 13.026L1491.2 192h-7.35l-7.97-11.96-3.03 3.693V192zm27.58 0v-29.091h11.65c2.14 0 3.92.317 5.35.952 1.43.634 2.51 1.515 3.23 2.642q1.08 1.676 1.08 3.863 0 1.705-.69 2.998a5.9 5.9 0 0 1-1.87 2.102 7.7 7.7 0 0 1-2.7 1.15v.285a6.5 6.5 0 0 1 3.11.937q1.47.867 2.37 2.429c.61 1.032.91 2.263.91 3.693 0 1.544-.38 2.922-1.15 4.134-.76 1.202-1.88 2.154-3.37 2.855q-2.22 1.051-5.49 1.051zm6.15-5.028h5.01q2.58 0 3.75-.981c.79-.662 1.18-1.543 1.18-2.642 0-.804-.19-1.515-.58-2.13-.39-.616-.94-1.099-1.66-1.449-.71-.35-1.56-.526-2.54-.526h-5.16zm0-11.89h4.56c.84 0 1.59-.146 2.24-.44.67-.303 1.19-.729 1.57-1.278.38-.55.58-1.208.58-1.975 0-1.051-.38-1.898-1.12-2.542s-1.79-.966-3.16-.966h-4.67z"/></svg>