<svg xmlns="http://www.w3.org/2000/svg" width="1006" height="963" fill="none" viewBox="0 0 1006 963"><rect width="118" height="120" x="257" y="352" stroke="#096" stroke-width="2" rx="26"/><rect width="117" height="120" x="888" y="593" stroke="#f55" stroke-width="2" rx="26"/><rect width="118" height="120" x="747" y="350" stroke="#e27c00" stroke-width="2" rx="26"/><rect width="118" height="120" x="607" y="595" stroke="#8200ed" stroke-width="2" rx="26"/><rect width="118" height="120" x="497" y="109" stroke="#dbdbdb" stroke-width="2" rx="26"/><path fill="#fff" d="M644.976 671v-2.557l9.602-10.511a67 67 0 0 0 2.785-3.21q1.094-1.378 1.619-2.586.54-1.221.54-2.556 0-1.535-.739-2.657-.724-1.122-1.989-1.733-1.263-.61-2.841-.61-1.675 0-2.926.696a4.8 4.8 0 0 0-1.917 1.917q-.668 1.236-.668 2.898h-3.352q0-2.557 1.179-4.489a8.2 8.2 0 0 1 3.21-3.011q2.046-1.08 4.588-1.08 2.557 0 4.531 1.08 1.975 1.08 3.097 2.912t1.122 4.077q0 1.605-.582 3.139-.568 1.52-1.989 3.395-1.406 1.86-3.906 4.545l-6.534 6.989v.227h13.522V671zm25.128 0 13.011-25.739v-.227h-15v-3.125h18.637v3.296L673.797 671zM793.497 426.398q-2.812 0-5.014-.966-2.187-.966-3.48-2.685-1.278-1.733-1.392-4.02h3.579q.114 1.407.966 2.429.852 1.009 2.23 1.563t3.054.554q1.875 0 3.324-.654 1.45-.652 2.273-1.818.824-1.164.824-2.699 0-1.605-.796-2.826-.795-1.236-2.329-1.932t-3.75-.696h-2.33v-3.125h2.33q1.732 0 3.04-.625 1.32-.625 2.059-1.762.753-1.135.753-2.67 0-1.477-.653-2.571-.654-1.093-1.847-1.705-1.179-.61-2.784-.61a7.3 7.3 0 0 0-2.841.554q-1.321.539-2.159 1.576-.838 1.023-.909 2.472h-3.409q.085-2.287 1.378-4.006 1.292-1.733 3.38-2.699 2.103-.966 4.617-.966 2.699 0 4.63 1.094 1.932 1.08 2.969 2.855a7.47 7.47 0 0 1 1.037 3.835q0 2.458-1.292 4.191-1.28 1.732-3.481 2.4v.228q2.757.454 4.304 2.343 1.55 1.876 1.549 4.645 0 2.372-1.293 4.262-1.278 1.874-3.494 2.954t-5.043 1.08m15.639-.398v-2.557l9.603-10.511a67 67 0 0 0 2.784-3.21q1.094-1.378 1.619-2.586.54-1.221.54-2.556 0-1.535-.739-2.657-.725-1.121-1.988-1.733-1.264-.61-2.841-.61-1.677 0-2.926.696a4.8 4.8 0 0 0-1.918 1.917q-.668 1.236-.668 2.898h-3.352q0-2.557 1.179-4.489a8.2 8.2 0 0 1 3.21-3.011q2.046-1.08 4.588-1.08 2.557 0 4.532 1.08 1.974 1.08 3.096 2.912t1.122 4.077q0 1.605-.582 3.139-.569 1.52-1.989 3.395-1.406 1.86-3.906 4.545l-6.534 6.989v.227h13.523V426zM307.118 396.909V426h-3.523v-25.398h-.171l-7.102 4.716v-3.579l7.273-4.83zm17.684 29.489q-2.926 0-5.17-1.037-2.23-1.051-3.48-2.884-1.251-1.846-1.236-4.204-.014-1.847.724-3.409a7.4 7.4 0 0 1 2.017-2.628 6.2 6.2 0 0 1 2.884-1.35v-.17q-2.088-.54-3.324-2.344-1.236-1.818-1.222-4.133-.014-2.217 1.123-3.963 1.136-1.748 3.125-2.756 2.003-1.009 4.559-1.009 2.529 0 4.517 1.009 1.99 1.008 3.125 2.756 1.151 1.746 1.165 3.963-.014 2.315-1.264 4.133-1.236 1.804-3.281 2.344v.17q1.577.285 2.84 1.35a7.65 7.65 0 0 1 2.018 2.628q.752 1.562.767 3.409-.015 2.358-1.279 4.204-1.25 1.833-3.48 2.884-2.216 1.037-5.128 1.037m0-3.125q1.974 0 3.409-.639 1.435-.64 2.216-1.804t.796-2.728q-.015-1.647-.853-2.912-.838-1.263-2.287-1.988-1.434-.725-3.281-.725-1.86 0-3.324.725-1.449.725-2.287 1.988-.824 1.265-.809 2.912-.015 1.563.753 2.728.78 1.164 2.23 1.804 1.448.639 3.437.639m0-13.807q1.563 0 2.77-.625a4.76 4.76 0 0 0 1.918-1.747q.695-1.122.71-2.628-.015-1.477-.696-2.571a4.5 4.5 0 0 0-1.889-1.705q-1.208-.61-2.813-.61-1.634 0-2.855.61-1.221.597-1.889 1.705-.668 1.093-.654 2.571-.013 1.506.668 2.628a4.75 4.75 0 0 0 1.918 1.747q1.221.625 2.812.625M923.572 661.034v-2.898l12.784-20.227h2.102v4.489h-1.42l-9.659 15.284v.227h17.215v3.125zM937.265 667v-29.091h3.352V667zm13.562 0 13.011-25.739v-.227h-15v-3.125h18.636v3.296L954.52 667zM546.961 153.909V183h-3.522v-25.398h-.171l-7.102 4.716v-3.579l7.273-4.83zm17.628-.398q1.79.015 3.58.682 1.79.668 3.267 2.216 1.477 1.535 2.372 4.19.894 2.657.895 6.662 0 3.879-.739 6.89-.725 2.997-2.102 5.056-1.364 2.06-3.324 3.125-1.946 1.066-4.403 1.066-2.444 0-4.361-.966a8.56 8.56 0 0 1-3.125-2.713q-1.207-1.747-1.549-4.049h3.466q.47 2.004 1.861 3.31 1.406 1.293 3.708 1.293 3.366 0 5.312-2.941 1.96-2.94 1.96-8.309h-.227a8.9 8.9 0 0 1-1.889 2.059 8.3 8.3 0 0 1-2.429 1.336 8.5 8.5 0 0 1-2.841.468q-2.5 0-4.588-1.235-2.074-1.25-3.324-3.424-1.236-2.187-1.236-5 0-2.67 1.193-4.886a9.2 9.2 0 0 1 3.381-3.551q2.187-1.321 5.142-1.279m0 3.125q-1.79 0-3.224.895a6.44 6.44 0 0 0-2.259 2.387q-.824 1.491-.824 3.309t.796 3.31a6.35 6.35 0 0 0 2.201 2.358q1.407.867 3.196.866 1.35 0 2.515-.525a6.5 6.5 0 0 0 2.031-1.463 7.1 7.1 0 0 0 1.378-2.117 6.4 6.4 0 0 0 .497-2.486 6.5 6.5 0 0 0-.824-3.196 6.54 6.54 0 0 0-2.244-2.414q-1.42-.924-3.239-.924M421.774 34.886h5.227l2.628 3.381 2.585 3.011 4.873 6.108h-5.739l-3.352-4.119-1.719-2.443zm15.753-4.432q0 4.76-1.804 8.097-1.79 3.337-4.886 5.1-3.083 1.746-6.932 1.747-3.877 0-6.96-1.762-3.082-1.761-4.873-5.1-1.79-3.337-1.789-8.082 0-4.757 1.789-8.096 1.79-3.337 4.873-5.085 3.083-1.761 6.96-1.762 3.85 0 6.932 1.762 3.096 1.747 4.886 5.085 1.804 3.338 1.804 8.096m-6.236 0q0-3.081-.923-5.198-.909-2.116-2.571-3.21t-3.892-1.094-3.892 1.093q-1.662 1.095-2.585 3.21-.91 2.118-.91 5.2t.91 5.198q.923 2.117 2.585 3.21 1.662 1.094 3.892 1.094t3.892-1.093q1.662-1.095 2.571-3.21.923-2.118.923-5.2m24.67 5.256V23.182h6.051V45h-5.81v-3.963h-.227a6.44 6.44 0 0 1-2.457 3.082q-1.705 1.165-4.162 1.165-2.188 0-3.85-.994t-2.599-2.827q-.923-1.832-.938-4.39V23.183h6.052v12.812q.014 1.932 1.037 3.054t2.741 1.122a4.35 4.35 0 0 0 2.045-.497q.952-.511 1.535-1.505.596-.994.582-2.458M466.852 45V23.182h6.051V45zm3.04-24.63q-1.35 0-2.315-.896-.952-.909-.952-2.173 0-1.25.952-2.145.966-.909 2.315-.909 1.35 0 2.301.91.966.894.966 2.144 0 1.264-.966 2.173-.951.895-2.301.895m17.717 25.056q-3.353 0-5.767-1.42-2.401-1.435-3.694-3.978-1.278-2.542-1.278-5.852 0-3.352 1.293-5.88 1.307-2.544 3.707-3.964 2.4-1.434 5.71-1.434 2.856 0 5 1.037t3.395 2.912q1.25 1.875 1.378 4.403h-5.71q-.241-1.633-1.279-2.628-1.022-1.008-2.684-1.008-1.407 0-2.458.767-1.037.752-1.619 2.201t-.582 3.509q0 2.088.568 3.551.583 1.463 1.633 2.23t2.458.767q1.036 0 1.86-.426a3.6 3.6 0 0 0 1.378-1.236q.554-.823.725-1.974h5.71q-.142 2.5-1.364 4.403-1.207 1.89-3.338 2.955-2.13 1.065-5.042 1.065m19.101-6.704.014-7.259h.881l6.989-8.281h6.946l-9.389 10.966h-1.435zM501.227 45V15.91h6.051V45zm13.637 0-6.421-9.503 4.034-4.275L521.952 45zm34.797-20.724q-.17-1.719-1.463-2.67-1.293-.953-3.508-.953-1.506 0-2.543.427-1.037.412-1.591 1.15a2.77 2.77 0 0 0-.54 1.676q-.029.782.327 1.364a3.4 3.4 0 0 0 1.009 1.008q.639.413 1.477.725.838.299 1.79.511l2.613.625a18.5 18.5 0 0 1 3.495 1.137q1.59.71 2.755 1.747a7.25 7.25 0 0 1 1.804 2.443q.654 1.406.668 3.224-.014 2.67-1.364 4.631-1.335 1.946-3.863 3.026-2.515 1.065-6.066 1.065-3.523 0-6.136-1.08-2.6-1.08-4.063-3.196-1.448-2.13-1.52-5.27h5.952q.1 1.463.838 2.444.753.965 2.003 1.463 1.265.483 2.855.483 1.563 0 2.713-.455 1.165-.454 1.804-1.264a2.92 2.92 0 0 0 .639-1.86q0-.98-.582-1.649-.568-.667-1.676-1.136-1.094-.469-2.685-.852l-3.167-.796q-3.68-.894-5.81-2.798t-2.116-5.128q-.015-2.642 1.406-4.616 1.435-1.975 3.934-3.083 2.5-1.107 5.682-1.108 3.239 0 5.654 1.108 2.428 1.108 3.778 3.083 1.35 1.974 1.392 4.574zm20.174 21.15q-3.309 0-5.724-1.406-2.4-1.42-3.708-3.949-1.306-2.543-1.306-5.895 0-3.38 1.306-5.909 1.307-2.542 3.708-3.949 2.415-1.42 5.724-1.42t5.71 1.42q2.415 1.407 3.722 3.949 1.307 2.528 1.307 5.91 0 3.351-1.307 5.894-1.307 2.529-3.722 3.949-2.4 1.406-5.71 1.406m.029-4.687q1.505 0 2.514-.853 1.008-.866 1.52-2.358.525-1.49.525-3.395 0-1.902-.525-3.394-.512-1.492-1.52-2.358-1.01-.867-2.514-.867-1.52 0-2.557.867-1.023.866-1.548 2.358-.512 1.492-.512 3.394 0 1.904.512 3.395.525 1.492 1.548 2.358 1.036.853 2.557.853M584.509 45V23.182h5.866v3.807h.227q.597-2.032 2.003-3.068 1.407-1.052 3.239-1.052.454 0 .98.057.525.057.923.156v5.37a8 8 0 0 0-1.179-.228q-.753-.099-1.378-.099-1.335 0-2.386.582a4.3 4.3 0 0 0-1.648 1.591q-.596 1.023-.596 2.358V45zm29.066-21.818v4.545h-13.14v-4.545zm-10.157-5.227h6.051v20.34q0 .84.256 1.307.256.454.71.64.47.184 1.08.184.426 0 .852-.07.426-.086.654-.129l.951 4.503q-.455.143-1.278.327-.824.198-2.003.241-2.187.086-3.835-.582-1.634-.667-2.543-2.074t-.895-3.551zM626.888 45V15.91h11.648q3.21 0 5.355.95 2.144.953 3.224 2.643 1.08 1.676 1.08 3.863 0 1.705-.682 2.998a5.9 5.9 0 0 1-1.875 2.102q-1.18.81-2.699 1.15v.285a6.5 6.5 0 0 1 3.111.937q1.463.866 2.372 2.429.909 1.548.909 3.693 0 2.316-1.151 4.134-1.135 1.803-3.366 2.855-2.23 1.05-5.497 1.051zm6.15-5.028h5.015q2.571 0 3.75-.98 1.179-.994 1.179-2.643 0-1.207-.583-2.13-.582-.924-1.662-1.45-1.066-.525-2.542-.525h-5.157zm0-11.89h4.56q1.264 0 2.244-.44.994-.455 1.563-1.278.582-.825.582-1.975 0-1.576-1.122-2.542-1.109-.966-3.153-.966h-4.674zm36.076-3.806q-.17-1.719-1.463-2.67-1.292-.953-3.508-.953-1.506 0-2.543.427-1.036.412-1.591 1.15a2.77 2.77 0 0 0-.54 1.676q-.028.782.327 1.364.37.582 1.009 1.008.639.413 1.477.725.838.299 1.79.511l2.613.625a18.5 18.5 0 0 1 3.495 1.137q1.59.71 2.755 1.747a7.25 7.25 0 0 1 1.804 2.443q.654 1.406.668 3.224-.014 2.67-1.364 4.631-1.335 1.946-3.863 3.026-2.514 1.065-6.066 1.065-3.523 0-6.136-1.08-2.6-1.08-4.063-3.196-1.448-2.13-1.519-5.27h5.951q.1 1.463.838 2.444.753.965 2.003 1.463 1.265.483 2.855.483 1.563 0 2.713-.455 1.165-.454 1.804-1.264.64-.81.64-1.86 0-.98-.583-1.649-.568-.667-1.676-1.136-1.094-.469-2.685-.852l-3.167-.796q-3.679-.894-5.81-2.798t-2.116-5.128q-.015-2.642 1.406-4.616 1.434-1.975 3.935-3.083 2.5-1.107 5.681-1.108 3.239 0 5.654 1.108 2.429 1.108 3.778 3.083 1.35 1.974 1.392 4.574zm9.322-3.296v-5.07h23.892v5.07h-8.906V45h-6.08V20.98z"/><rect width="117" height="120" x="121" y="598" stroke="#0098d4" stroke-width="2" rx="26"/><rect width="118" height="120" x="1" y="842" stroke="#f0b100" stroke-width="2" rx="26"/><path fill="#fff" d="M51.332 888.909V918H47.81v-25.398h-.17l-7.103 4.716v-3.579l7.273-4.83zM59.7 918v-2.557l9.602-10.511a67 67 0 0 0 2.784-3.21q1.095-1.378 1.62-2.586.54-1.221.54-2.556 0-1.535-.74-2.657-.723-1.122-1.988-1.733-1.265-.61-2.84-.61-1.677 0-2.927.696a4.8 4.8 0 0 0-1.918 1.917q-.667 1.236-.667 2.898h-3.352q0-2.557 1.178-4.489a8.2 8.2 0 0 1 3.21-3.011q2.046-1.08 4.589-1.08 2.557 0 4.531 1.08 1.975 1.08 3.097 2.912t1.122 4.077q0 1.605-.583 3.139-.567 1.52-1.988 3.395-1.407 1.86-3.906 4.545l-6.535 6.989v.227h13.523V918zM169.707 642.909V672h-3.522v-25.398h-.171l-7.102 4.716v-3.579l7.273-4.83zm18.196 29.489q-2.812 0-5.014-.966-2.187-.966-3.48-2.685-1.278-1.732-1.392-4.02h3.58q.113 1.406.965 2.429.853 1.009 2.231 1.563t3.054.554q1.875 0 3.323-.654 1.45-.653 2.273-1.818.824-1.164.824-2.699 0-1.605-.795-2.826-.796-1.236-2.33-1.932t-3.75-.696h-2.33v-3.125h2.33q1.733 0 3.04-.625 1.321-.625 2.059-1.762.753-1.135.753-2.67 0-1.478-.653-2.571t-1.847-1.705q-1.179-.61-2.784-.61a7.3 7.3 0 0 0-2.841.554q-1.32.539-2.159 1.576-.838 1.023-.909 2.472h-3.409q.085-2.287 1.378-4.006 1.293-1.733 3.381-2.699 2.102-.966 4.616-.966 2.699 0 4.631 1.094 1.932 1.08 2.968 2.855a7.47 7.47 0 0 1 1.037 3.835q0 2.458-1.292 4.191-1.279 1.732-3.48 2.4v.228q2.755.455 4.304 2.343 1.548 1.876 1.548 4.645 0 2.372-1.293 4.262-1.278 1.875-3.494 2.954t-5.043 1.08"/><path stroke="#fff" stroke-width="2" d="M316 290h490M664 531h281M175 531h141M58 784h119M805 334v-43M944 575v-43M555 291v-43M805 532v-43M316 532v-43M177 785v-43M317 334v-43M665 575v-43M176 575v-43M59 828v-43"/></svg>