<svg width="1006" height="963" viewBox="0 0 1006 963" fill="none" xmlns="http://www.w3.org/2000/svg">
<rect x="257" y="352" width="118" height="120" rx="26" stroke="#009966" stroke-width="2"/>
<rect x="888" y="593" width="117" height="120" rx="26" stroke="#FF5555" stroke-width="2"/>
<rect x="747" y="350" width="118" height="120" rx="26" stroke="#E27C00" stroke-width="2"/>
<rect x="607" y="595" width="118" height="120" rx="26" stroke="#8200ED" stroke-width="2"/>
<rect x="497" y="109" width="118" height="120" rx="26" stroke="#DBDBDB" stroke-width="2"/>
<path d="M644.976 671V668.443L654.578 657.932C655.705 656.701 656.633 655.631 657.363 654.722C658.092 653.803 658.632 652.941 658.982 652.136C659.342 651.322 659.522 650.47 659.522 649.58C659.522 648.557 659.275 647.671 658.783 646.923C658.3 646.175 657.637 645.598 656.794 645.19C655.952 644.783 655.005 644.58 653.953 644.58C652.836 644.58 651.861 644.812 651.027 645.276C650.203 645.73 649.564 646.369 649.11 647.193C648.665 648.017 648.442 648.983 648.442 650.091H645.09C645.09 648.386 645.483 646.89 646.269 645.602C647.055 644.314 648.125 643.311 649.479 642.591C650.843 641.871 652.372 641.511 654.067 641.511C655.772 641.511 657.282 641.871 658.598 642.591C659.915 643.311 660.947 644.281 661.695 645.503C662.443 646.724 662.817 648.083 662.817 649.58C662.817 650.65 662.623 651.696 662.235 652.719C661.856 653.732 661.193 654.864 660.246 656.114C659.309 657.354 658.007 658.869 656.34 660.659L649.806 667.648V667.875H663.328V671H644.976ZM670.104 671L683.115 645.261V645.034H668.115V641.909H686.752V645.205L673.797 671H670.104Z" fill="white"/>
<path d="M793.497 426.398C791.622 426.398 789.951 426.076 788.483 425.432C787.025 424.788 785.865 423.893 785.003 422.747C784.151 421.592 783.687 420.252 783.611 418.727H787.19C787.266 419.665 787.588 420.474 788.156 421.156C788.724 421.829 789.468 422.349 790.386 422.719C791.305 423.088 792.323 423.273 793.44 423.273C794.69 423.273 795.798 423.055 796.764 422.619C797.73 422.184 798.488 421.578 799.037 420.801C799.586 420.025 799.861 419.125 799.861 418.102C799.861 417.032 799.596 416.09 799.065 415.276C798.535 414.452 797.759 413.808 796.736 413.344C795.713 412.88 794.463 412.648 792.986 412.648H790.656V409.523H792.986C794.141 409.523 795.154 409.314 796.026 408.898C796.906 408.481 797.593 407.894 798.085 407.136C798.587 406.379 798.838 405.489 798.838 404.466C798.838 403.481 798.62 402.624 798.185 401.895C797.749 401.166 797.134 400.598 796.338 400.19C795.552 399.783 794.624 399.58 793.554 399.58C792.55 399.58 791.603 399.764 790.713 400.134C789.832 400.493 789.113 401.019 788.554 401.71C787.995 402.392 787.692 403.216 787.645 404.182H784.236C784.293 402.657 784.752 401.322 785.614 400.176C786.475 399.021 787.602 398.121 788.994 397.477C790.396 396.833 791.935 396.511 793.611 396.511C795.41 396.511 796.954 396.876 798.241 397.605C799.529 398.325 800.519 399.277 801.21 400.46C801.902 401.644 802.247 402.922 802.247 404.295C802.247 405.934 801.816 407.33 800.955 408.486C800.102 409.641 798.942 410.441 797.474 410.886V411.114C799.312 411.417 800.746 412.198 801.778 413.457C802.811 414.707 803.327 416.256 803.327 418.102C803.327 419.684 802.896 421.104 802.034 422.364C801.182 423.614 800.017 424.598 798.54 425.318C797.063 426.038 795.382 426.398 793.497 426.398ZM809.136 426V423.443L818.739 412.932C819.866 411.701 820.794 410.631 821.523 409.722C822.252 408.803 822.792 407.941 823.142 407.136C823.502 406.322 823.682 405.47 823.682 404.58C823.682 403.557 823.436 402.671 822.943 401.923C822.46 401.175 821.797 400.598 820.955 400.19C820.112 399.783 819.165 399.58 818.114 399.58C816.996 399.58 816.021 399.812 815.188 400.276C814.364 400.73 813.724 401.369 813.27 402.193C812.825 403.017 812.602 403.983 812.602 405.091H809.25C809.25 403.386 809.643 401.89 810.429 400.602C811.215 399.314 812.285 398.311 813.639 397.591C815.003 396.871 816.532 396.511 818.227 396.511C819.932 396.511 821.442 396.871 822.759 397.591C824.075 398.311 825.107 399.281 825.855 400.503C826.603 401.724 826.977 403.083 826.977 404.58C826.977 405.65 826.783 406.696 826.395 407.719C826.016 408.732 825.353 409.864 824.406 411.114C823.469 412.354 822.167 413.869 820.5 415.659L813.966 422.648V422.875H827.489V426H809.136Z" fill="white"/>
<path d="M307.118 396.909V426H303.595V400.602H303.424L296.322 405.318V401.739L303.595 396.909H307.118ZM324.802 426.398C322.851 426.398 321.128 426.052 319.632 425.361C318.145 424.66 316.985 423.699 316.152 422.477C315.318 421.246 314.906 419.845 314.916 418.273C314.906 417.042 315.148 415.905 315.64 414.864C316.133 413.812 316.805 412.937 317.657 412.236C318.519 411.526 319.48 411.076 320.541 410.886V410.716C319.149 410.356 318.041 409.575 317.217 408.372C316.393 407.16 315.986 405.782 315.995 404.239C315.986 402.761 316.36 401.44 317.118 400.276C317.875 399.111 318.917 398.192 320.243 397.52C321.578 396.848 323.098 396.511 324.802 396.511C326.488 396.511 327.993 396.848 329.319 397.52C330.645 398.192 331.687 399.111 332.444 400.276C333.211 401.44 333.6 402.761 333.609 404.239C333.6 405.782 333.178 407.16 332.345 408.372C331.521 409.575 330.427 410.356 329.064 410.716V410.886C330.115 411.076 331.062 411.526 331.904 412.236C332.747 412.937 333.42 413.812 333.922 414.864C334.423 415.905 334.679 417.042 334.689 418.273C334.679 419.845 334.253 421.246 333.41 422.477C332.577 423.699 331.417 424.66 329.93 425.361C328.453 426.052 326.743 426.398 324.802 426.398ZM324.802 423.273C326.118 423.273 327.255 423.06 328.211 422.634C329.168 422.207 329.906 421.606 330.427 420.83C330.948 420.053 331.213 419.144 331.223 418.102C331.213 417.004 330.929 416.033 330.37 415.19C329.812 414.348 329.049 413.685 328.083 413.202C327.127 412.719 326.033 412.477 324.802 412.477C323.562 412.477 322.454 412.719 321.478 413.202C320.512 413.685 319.75 414.348 319.191 415.19C318.642 416.033 318.372 417.004 318.382 418.102C318.372 419.144 318.623 420.053 319.135 420.83C319.655 421.606 320.399 422.207 321.365 422.634C322.331 423.06 323.476 423.273 324.802 423.273ZM324.802 409.466C325.844 409.466 326.767 409.258 327.572 408.841C328.386 408.424 329.026 407.842 329.49 407.094C329.954 406.346 330.19 405.47 330.2 404.466C330.19 403.481 329.958 402.624 329.504 401.895C329.049 401.156 328.42 400.588 327.615 400.19C326.81 399.783 325.872 399.58 324.802 399.58C323.713 399.58 322.761 399.783 321.947 400.19C321.133 400.588 320.503 401.156 320.058 401.895C319.613 402.624 319.395 403.481 319.404 404.466C319.395 405.47 319.618 406.346 320.072 407.094C320.536 407.842 321.175 408.424 321.99 408.841C322.804 409.258 323.742 409.466 324.802 409.466Z" fill="white"/>
<path d="M923.572 661.034V658.136L936.356 637.909H938.458V642.398H937.038L927.379 657.682V657.909H944.594V661.034H923.572ZM937.265 667V660.153V658.804V637.909H940.617V667H937.265ZM950.827 667L963.838 641.261V641.034H948.838V637.909H967.474V641.205L954.52 667H950.827Z" fill="white"/>
<path d="M546.961 153.909V183H543.439V157.602H543.268L536.166 162.318V158.739L543.439 153.909H546.961ZM564.589 153.511C565.782 153.521 566.975 153.748 568.169 154.193C569.362 154.638 570.451 155.377 571.436 156.409C572.421 157.432 573.211 158.829 573.808 160.599C574.404 162.37 574.703 164.591 574.703 167.261C574.703 169.847 574.457 172.143 573.964 174.151C573.481 176.149 572.78 177.834 571.862 179.207C570.953 180.58 569.845 181.622 568.538 182.332C567.241 183.043 565.773 183.398 564.135 183.398C562.506 183.398 561.052 183.076 559.774 182.432C558.505 181.778 557.463 180.874 556.649 179.719C555.844 178.554 555.328 177.205 555.1 175.67H558.566C558.879 177.006 559.499 178.109 560.427 178.98C561.365 179.842 562.6 180.273 564.135 180.273C566.379 180.273 568.15 179.293 569.447 177.332C570.754 175.372 571.407 172.602 571.407 169.023H571.18C570.65 169.818 570.02 170.505 569.291 171.082C568.562 171.66 567.752 172.105 566.862 172.418C565.972 172.73 565.025 172.886 564.021 172.886C562.354 172.886 560.825 172.474 559.433 171.651C558.05 170.817 556.942 169.676 556.109 168.227C555.285 166.769 554.873 165.102 554.873 163.227C554.873 161.447 555.271 159.818 556.066 158.341C556.871 156.854 557.998 155.67 559.447 154.79C560.905 153.909 562.619 153.483 564.589 153.511ZM564.589 156.636C563.396 156.636 562.321 156.935 561.365 157.531C560.418 158.118 559.665 158.914 559.106 159.918C558.557 160.912 558.282 162.015 558.282 163.227C558.282 164.439 558.547 165.543 559.078 166.537C559.618 167.522 560.351 168.308 561.279 168.895C562.217 169.473 563.282 169.761 564.475 169.761C565.375 169.761 566.213 169.586 566.99 169.236C567.766 168.876 568.443 168.388 569.021 167.773C569.608 167.148 570.067 166.442 570.399 165.656C570.73 164.861 570.896 164.032 570.896 163.17C570.896 162.034 570.621 160.969 570.072 159.974C569.532 158.98 568.784 158.175 567.828 157.56C566.881 156.944 565.801 156.636 564.589 156.636Z" fill="white"/>
<path d="M421.774 34.8864H427.001L429.629 38.267L432.214 41.2784L437.087 47.3864H431.348L427.996 43.267L426.277 40.8239L421.774 34.8864ZM437.527 30.4545C437.527 33.6269 436.926 36.3258 435.723 38.5511C434.53 40.7765 432.901 42.4763 430.837 43.6506C428.782 44.8153 426.471 45.3977 423.905 45.3977C421.32 45.3977 419 44.8106 416.945 43.6364C414.89 42.4621 413.266 40.7623 412.072 38.5369C410.879 36.3116 410.283 33.6174 410.283 30.4545C410.283 27.2822 410.879 24.5833 412.072 22.358C413.266 20.1326 414.89 18.4375 416.945 17.2727C419 16.0985 421.32 15.5114 423.905 15.5114C426.471 15.5114 428.782 16.0985 430.837 17.2727C432.901 18.4375 434.53 20.1326 435.723 22.358C436.926 24.5833 437.527 27.2822 437.527 30.4545ZM431.291 30.4545C431.291 28.3996 430.983 26.6667 430.368 25.2557C429.762 23.8447 428.905 22.7746 427.797 22.0455C426.689 21.3163 425.392 20.9517 423.905 20.9517C422.418 20.9517 421.121 21.3163 420.013 22.0455C418.905 22.7746 418.043 23.8447 417.428 25.2557C416.821 26.6667 416.518 28.3996 416.518 30.4545C416.518 32.5095 416.821 34.2424 417.428 35.6534C418.043 37.0644 418.905 38.1345 420.013 38.8636C421.121 39.5928 422.418 39.9574 423.905 39.9574C425.392 39.9574 426.689 39.5928 427.797 38.8636C428.905 38.1345 429.762 37.0644 430.368 35.6534C430.983 34.2424 431.291 32.5095 431.291 30.4545ZM455.961 35.7102V23.1818H462.012V45H456.202V41.0369H455.975C455.483 42.3153 454.664 43.3428 453.518 44.1193C452.381 44.8958 450.994 45.2841 449.356 45.2841C447.897 45.2841 446.614 44.9527 445.506 44.2898C444.398 43.6269 443.532 42.6847 442.907 41.4631C442.291 40.2415 441.979 38.7784 441.969 37.0739V23.1818H448.021V35.9943C448.03 37.2822 448.376 38.3002 449.058 39.0483C449.739 39.7964 450.653 40.1705 451.799 40.1705C452.528 40.1705 453.21 40.0047 453.844 39.6733C454.479 39.3324 454.99 38.8305 455.379 38.1676C455.776 37.5047 455.97 36.6856 455.961 35.7102ZM466.852 45V23.1818H472.903V45H466.852ZM469.892 20.3693C468.992 20.3693 468.221 20.071 467.577 19.4744C466.942 18.8684 466.625 18.1439 466.625 17.3011C466.625 16.4678 466.942 15.7528 467.577 15.1562C468.221 14.5502 468.992 14.2472 469.892 14.2472C470.792 14.2472 471.559 14.5502 472.193 15.1562C472.837 15.7528 473.159 16.4678 473.159 17.3011C473.159 18.1439 472.837 18.8684 472.193 19.4744C471.559 20.071 470.792 20.3693 469.892 20.3693ZM487.609 45.4261C485.374 45.4261 483.451 44.9527 481.842 44.0057C480.241 43.0492 479.01 41.7235 478.148 40.0284C477.296 38.3333 476.87 36.3826 476.87 34.1761C476.87 31.9413 477.301 29.9811 478.163 28.2955C479.034 26.6004 480.27 25.2794 481.87 24.3324C483.47 23.3759 485.374 22.8977 487.58 22.8977C489.484 22.8977 491.15 23.2434 492.58 23.9347C494.01 24.6259 495.142 25.5966 495.975 26.8466C496.808 28.0966 497.268 29.5644 497.353 31.25H491.643C491.482 30.161 491.056 29.285 490.364 28.6222C489.683 27.9498 488.788 27.6136 487.68 27.6136C486.742 27.6136 485.923 27.8693 485.222 28.3807C484.531 28.8826 483.991 29.6165 483.603 30.5824C483.215 31.5483 483.021 32.7178 483.021 34.0909C483.021 35.483 483.21 36.6667 483.589 37.642C483.977 38.6174 484.522 39.3608 485.222 39.8722C485.923 40.3835 486.742 40.6392 487.68 40.6392C488.371 40.6392 488.991 40.4972 489.54 40.2131C490.099 39.929 490.558 39.517 490.918 38.9773C491.288 38.428 491.529 37.7699 491.643 37.0028H497.353C497.258 38.6695 496.804 40.1373 495.989 41.4062C495.184 42.6657 494.072 43.6506 492.651 44.3608C491.231 45.071 489.55 45.4261 487.609 45.4261ZM506.71 38.7216L506.724 31.4631H507.605L514.594 23.1818H521.54L512.151 34.1477H510.716L506.71 38.7216ZM501.227 45V15.9091H507.278V45H501.227ZM514.864 45L508.443 35.4972L512.477 31.2216L521.952 45H514.864ZM549.661 24.2756C549.548 23.1297 549.06 22.2396 548.198 21.6051C547.336 20.9706 546.167 20.6534 544.69 20.6534C543.686 20.6534 542.838 20.7955 542.147 21.0795C541.456 21.3542 540.925 21.7377 540.556 22.2301C540.196 22.7225 540.016 23.2812 540.016 23.9062C539.997 24.4271 540.106 24.8816 540.343 25.2699C540.589 25.6581 540.925 25.9943 541.352 26.2784C541.778 26.553 542.27 26.7945 542.829 27.0028C543.388 27.2017 543.984 27.3722 544.619 27.5142L547.232 28.1392C548.501 28.4233 549.666 28.8021 550.727 29.2756C551.787 29.7491 552.706 30.3314 553.482 31.0227C554.259 31.714 554.86 32.5284 555.286 33.4659C555.722 34.4034 555.944 35.4782 555.954 36.6903C555.944 38.4706 555.49 40.0142 554.59 41.321C553.7 42.6184 552.412 43.6269 550.727 44.3466C549.05 45.0568 547.029 45.4119 544.661 45.4119C542.313 45.4119 540.267 45.0521 538.525 44.3324C536.792 43.6127 535.438 42.5473 534.462 41.1364C533.496 39.7159 532.99 37.9593 532.942 35.8665H538.894C538.96 36.8419 539.24 37.6562 539.732 38.3097C540.234 38.9536 540.902 39.4413 541.735 39.7727C542.578 40.0947 543.53 40.2557 544.59 40.2557C545.632 40.2557 546.536 40.1042 547.303 39.8011C548.08 39.4981 548.681 39.0767 549.107 38.5369C549.533 37.9972 549.746 37.3769 549.746 36.6761C549.746 36.0227 549.552 35.4735 549.164 35.0284C548.785 34.5833 548.227 34.2045 547.488 33.892C546.759 33.5795 545.864 33.2955 544.803 33.0398L541.636 32.2443C539.183 31.6477 537.246 30.715 535.826 29.446C534.406 28.1771 533.7 26.4678 533.71 24.3182C533.7 22.5568 534.169 21.018 535.116 19.7017C536.072 18.3854 537.384 17.358 539.05 16.6193C540.717 15.8807 542.611 15.5114 544.732 15.5114C546.891 15.5114 548.776 15.8807 550.386 16.6193C552.005 17.358 553.264 18.3854 554.164 19.7017C555.064 21.018 555.528 22.5426 555.556 24.2756H549.661ZM569.835 45.4261C567.629 45.4261 565.721 44.9574 564.111 44.0199C562.51 43.0729 561.275 41.7566 560.403 40.071C559.532 38.3759 559.097 36.411 559.097 34.1761C559.097 31.9223 559.532 29.9527 560.403 28.267C561.275 26.572 562.51 25.2557 564.111 24.3182C565.721 23.3712 567.629 22.8977 569.835 22.8977C572.042 22.8977 573.945 23.3712 575.545 24.3182C577.155 25.2557 578.396 26.572 579.267 28.267C580.138 29.9527 580.574 31.9223 580.574 34.1761C580.574 36.411 580.138 38.3759 579.267 40.071C578.396 41.7566 577.155 43.0729 575.545 44.0199C573.945 44.9574 572.042 45.4261 569.835 45.4261ZM569.864 40.7386C570.867 40.7386 571.705 40.4545 572.378 39.8864C573.05 39.3087 573.557 38.5227 573.898 37.5284C574.248 36.5341 574.423 35.4025 574.423 34.1335C574.423 32.8646 574.248 31.733 573.898 30.7386C573.557 29.7443 573.05 28.9583 572.378 28.3807C571.705 27.803 570.867 27.5142 569.864 27.5142C568.85 27.5142 567.998 27.803 567.307 28.3807C566.625 28.9583 566.109 29.7443 565.759 30.7386C565.418 31.733 565.247 32.8646 565.247 34.1335C565.247 35.4025 565.418 36.5341 565.759 37.5284C566.109 38.5227 566.625 39.3087 567.307 39.8864C567.998 40.4545 568.85 40.7386 569.864 40.7386ZM584.509 45V23.1818H590.375V26.9886H590.602C591 25.6345 591.668 24.6117 592.605 23.9205C593.543 23.2197 594.622 22.8693 595.844 22.8693C596.147 22.8693 596.473 22.8883 596.824 22.9261C597.174 22.964 597.482 23.0161 597.747 23.0824V28.4517C597.463 28.3665 597.07 28.2907 596.568 28.2244C596.066 28.1581 595.607 28.125 595.19 28.125C594.3 28.125 593.505 28.3191 592.804 28.7074C592.113 29.0862 591.563 29.6165 591.156 30.2983C590.759 30.9801 590.56 31.7661 590.56 32.6562V45H584.509ZM613.575 23.1818V27.7273H600.435V23.1818H613.575ZM603.418 17.9545H609.469V38.2955C609.469 38.8542 609.555 39.2898 609.725 39.6023C609.896 39.9053 610.132 40.1184 610.435 40.2415C610.748 40.3646 611.108 40.4261 611.515 40.4261C611.799 40.4261 612.083 40.4025 612.367 40.3551C612.651 40.2983 612.869 40.2557 613.021 40.2273L613.972 44.7301C613.669 44.8248 613.243 44.9337 612.694 45.0568C612.145 45.1894 611.477 45.2699 610.691 45.2983C609.233 45.3551 607.954 45.161 606.856 44.7159C605.767 44.2708 604.919 43.5795 604.313 42.642C603.707 41.7045 603.409 40.5208 603.418 39.0909V17.9545ZM626.888 45V15.9091H638.536C640.676 15.9091 642.461 16.2263 643.891 16.8608C645.321 17.4953 646.395 18.3759 647.115 19.5028C647.835 20.6203 648.195 21.9081 648.195 23.3665C648.195 24.5028 647.967 25.5019 647.513 26.3636C647.058 27.2159 646.433 27.9167 645.638 28.4659C644.852 29.0057 643.952 29.3892 642.939 29.6165V29.9006C644.047 29.9479 645.084 30.2604 646.05 30.8381C647.025 31.4157 647.816 32.2254 648.422 33.267C649.028 34.2992 649.331 35.5303 649.331 36.9602C649.331 38.5038 648.947 39.8816 648.18 41.0938C647.423 42.2964 646.301 43.2481 644.814 43.9489C643.327 44.6496 641.495 45 639.317 45H626.888ZM633.038 39.9716H638.053C639.767 39.9716 641.017 39.6449 641.803 38.9915C642.589 38.3286 642.982 37.4479 642.982 36.3494C642.982 35.5445 642.787 34.8343 642.399 34.2188C642.011 33.6032 641.457 33.1203 640.737 32.7699C640.027 32.4195 639.179 32.2443 638.195 32.2443H633.038V39.9716ZM633.038 28.0824H637.598C638.441 28.0824 639.189 27.9356 639.842 27.642C640.505 27.339 641.026 26.9129 641.405 26.3636C641.793 25.8144 641.987 25.1562 641.987 24.3892C641.987 23.3381 641.613 22.4905 640.865 21.8466C640.126 21.2027 639.075 20.8807 637.712 20.8807H633.038V28.0824ZM669.114 24.2756C669.001 23.1297 668.513 22.2396 667.651 21.6051C666.79 20.9706 665.62 20.6534 664.143 20.6534C663.139 20.6534 662.291 20.7955 661.6 21.0795C660.909 21.3542 660.379 21.7377 660.009 22.2301C659.649 22.7225 659.469 23.2812 659.469 23.9062C659.451 24.4271 659.559 24.8816 659.796 25.2699C660.042 25.6581 660.379 25.9943 660.805 26.2784C661.231 26.553 661.723 26.7945 662.282 27.0028C662.841 27.2017 663.437 27.3722 664.072 27.5142L666.685 28.1392C667.954 28.4233 669.119 28.8021 670.18 29.2756C671.24 29.7491 672.159 30.3314 672.935 31.0227C673.712 31.714 674.313 32.5284 674.739 33.4659C675.175 34.4034 675.397 35.4782 675.407 36.6903C675.397 38.4706 674.943 40.0142 674.043 41.321C673.153 42.6184 671.865 43.6269 670.18 44.3466C668.504 45.0568 666.482 45.4119 664.114 45.4119C661.766 45.4119 659.72 45.0521 657.978 44.3324C656.245 43.6127 654.891 42.5473 653.915 41.1364C652.95 39.7159 652.443 37.9593 652.396 35.8665H658.347C658.414 36.8419 658.693 37.6562 659.185 38.3097C659.687 38.9536 660.355 39.4413 661.188 39.7727C662.031 40.0947 662.983 40.2557 664.043 40.2557C665.085 40.2557 665.989 40.1042 666.756 39.8011C667.533 39.4981 668.134 39.0767 668.56 38.5369C668.987 37.9972 669.2 37.3769 669.2 36.6761C669.2 36.0227 669.005 35.4735 668.617 35.0284C668.238 34.5833 667.68 34.2045 666.941 33.892C666.212 33.5795 665.317 33.2955 664.256 33.0398L661.089 32.2443C658.636 31.6477 656.7 30.715 655.279 29.446C653.859 28.1771 653.153 26.4678 653.163 24.3182C653.153 22.5568 653.622 21.018 654.569 19.7017C655.525 18.3854 656.837 17.358 658.504 16.6193C660.17 15.8807 662.064 15.5114 664.185 15.5114C666.344 15.5114 668.229 15.8807 669.839 16.6193C671.458 17.358 672.718 18.3854 673.617 19.7017C674.517 21.018 674.981 22.5426 675.009 24.2756H669.114ZM678.436 20.9801V15.9091H702.328V20.9801H693.422V45H687.342V20.9801H678.436Z" fill="white"/>
<rect x="121" y="598" width="117" height="120" rx="26" stroke="#0098D4" stroke-width="2"/>
<rect x="1" y="842" width="118" height="120" rx="26" stroke="#F0B100" stroke-width="2"/>
<path d="M51.3324 888.909V918H47.8097V892.602H47.6392L40.5369 897.318V893.739L47.8097 888.909H51.3324ZM59.6989 918V915.443L69.3011 904.932C70.428 903.701 71.3561 902.631 72.0852 901.722C72.8144 900.803 73.3542 899.941 73.7045 899.136C74.0644 898.322 74.2443 897.47 74.2443 896.58C74.2443 895.557 73.9981 894.671 73.5057 893.923C73.0227 893.175 72.3598 892.598 71.517 892.19C70.6742 891.783 69.7273 891.58 68.6761 891.58C67.5587 891.58 66.5833 891.812 65.75 892.276C64.9261 892.73 64.2869 893.369 63.8324 894.193C63.3873 895.017 63.1648 895.983 63.1648 897.091H59.8125C59.8125 895.386 60.2055 893.89 60.9915 892.602C61.7775 891.314 62.8475 890.311 64.2017 889.591C65.5653 888.871 67.0947 888.511 68.7898 888.511C70.4943 888.511 72.0047 888.871 73.321 889.591C74.6373 890.311 75.6695 891.281 76.4176 892.503C77.1657 893.724 77.5398 895.083 77.5398 896.58C77.5398 897.65 77.3456 898.696 76.9574 899.719C76.5786 900.732 75.9157 901.864 74.9688 903.114C74.0312 904.354 72.7292 905.869 71.0625 907.659L64.5284 914.648V914.875H78.0511V918H59.6989Z" fill="white"/>
<path d="M169.707 642.909V672H166.185V646.602H166.014L158.912 651.318V647.739L166.185 642.909H169.707ZM187.903 672.398C186.028 672.398 184.357 672.076 182.889 671.432C181.431 670.788 180.271 669.893 179.409 668.747C178.557 667.592 178.093 666.252 178.017 664.727H181.597C181.672 665.665 181.994 666.474 182.562 667.156C183.131 667.829 183.874 668.349 184.793 668.719C185.711 669.088 186.729 669.273 187.847 669.273C189.097 669.273 190.205 669.055 191.17 668.619C192.136 668.184 192.894 667.578 193.443 666.801C193.992 666.025 194.267 665.125 194.267 664.102C194.267 663.032 194.002 662.09 193.472 661.276C192.941 660.452 192.165 659.808 191.142 659.344C190.119 658.88 188.869 658.648 187.392 658.648H185.062V655.523H187.392C188.547 655.523 189.561 655.314 190.432 654.898C191.313 654.481 191.999 653.894 192.491 653.136C192.993 652.379 193.244 651.489 193.244 650.466C193.244 649.481 193.027 648.624 192.591 647.895C192.155 647.166 191.54 646.598 190.744 646.19C189.958 645.783 189.03 645.58 187.96 645.58C186.956 645.58 186.009 645.764 185.119 646.134C184.239 646.493 183.519 647.019 182.96 647.71C182.402 648.392 182.098 649.216 182.051 650.182H178.642C178.699 648.657 179.158 647.322 180.02 646.176C180.882 645.021 182.009 644.121 183.401 643.477C184.802 642.833 186.341 642.511 188.017 642.511C189.816 642.511 191.36 642.876 192.648 643.605C193.936 644.325 194.925 645.277 195.616 646.46C196.308 647.644 196.653 648.922 196.653 650.295C196.653 651.934 196.223 653.33 195.361 654.486C194.509 655.641 193.348 656.441 191.881 656.886V657.114C193.718 657.417 195.152 658.198 196.185 659.457C197.217 660.707 197.733 662.256 197.733 664.102C197.733 665.684 197.302 667.104 196.44 668.364C195.588 669.614 194.423 670.598 192.946 671.318C191.469 672.038 189.788 672.398 187.903 672.398Z" fill="white"/>
<line x1="316" y1="290" x2="806" y2="290" stroke="white" stroke-width="2"/>
<line x1="664" y1="531" x2="945" y2="531" stroke="white" stroke-width="2"/>
<line x1="175" y1="531" x2="316" y2="531" stroke="white" stroke-width="2"/>
<line x1="58" y1="784" x2="177" y2="784" stroke="white" stroke-width="2"/>
<line x1="805" y1="334" x2="805" y2="291" stroke="white" stroke-width="2"/>
<line x1="944" y1="575" x2="944" y2="532" stroke="white" stroke-width="2"/>
<line x1="555" y1="291" x2="555" y2="248" stroke="white" stroke-width="2"/>
<line x1="805" y1="532" x2="805" y2="489" stroke="white" stroke-width="2"/>
<line x1="316" y1="532" x2="316" y2="489" stroke="white" stroke-width="2"/>
<line x1="177" y1="785" x2="177" y2="742" stroke="white" stroke-width="2"/>
<line x1="317" y1="334" x2="317" y2="291" stroke="white" stroke-width="2"/>
<line x1="665" y1="575" x2="665" y2="532" stroke="white" stroke-width="2"/>
<line x1="176" y1="575" x2="176" y2="532" stroke="white" stroke-width="2"/>
<line x1="59" y1="828" x2="59" y2="785" stroke="white" stroke-width="2"/>
</svg>
