<svg width="961" height="270" viewBox="0 0 961 270" fill="none" xmlns="http://www.w3.org/2000/svg">
<rect x="280" y="3" width="118" height="120" rx="26" stroke="#009966" stroke-width="2"/>
<rect x="843" y="3" width="117" height="120" rx="26" stroke="#FF5555" stroke-width="2"/>
<rect x="142" y="3" width="117" height="120" rx="26" stroke="#0098D4" stroke-width="2"/>
<rect x="702" y="1" width="118" height="120" rx="26" stroke="#E27C00" stroke-width="2"/>
<rect x="1" y="1" width="118" height="120" rx="26" stroke="#F0B100" stroke-width="2"/>
<rect x="562" y="1" width="118" height="120" rx="26" stroke="#8200ED" stroke-width="2"/>
<rect x="421" y="3" width="118" height="120" rx="26" stroke="#DBDBDB" stroke-width="2"/>
<path d="M599.976 77V74.4432L609.578 63.9318C610.705 62.7008 611.633 61.6307 612.363 60.7216C613.092 59.803 613.632 58.9413 613.982 58.1364C614.342 57.322 614.522 56.4697 614.522 55.5795C614.522 54.5568 614.275 53.6714 613.783 52.9233C613.3 52.1752 612.637 51.5975 611.794 51.1903C610.952 50.7831 610.005 50.5795 608.953 50.5795C607.836 50.5795 606.861 50.8116 606.027 51.2756C605.203 51.7301 604.564 52.3693 604.11 53.1932C603.665 54.017 603.442 54.983 603.442 56.0909H600.09C600.09 54.3864 600.483 52.8902 601.269 51.6023C602.055 50.3144 603.125 49.3106 604.479 48.5909C605.843 47.8712 607.372 47.5114 609.067 47.5114C610.772 47.5114 612.282 47.8712 613.598 48.5909C614.915 49.3106 615.947 50.2812 616.695 51.5028C617.443 52.7244 617.817 54.0833 617.817 55.5795C617.817 56.6496 617.623 57.696 617.235 58.7188C616.856 59.732 616.193 60.8636 615.246 62.1136C614.309 63.3542 613.007 64.8693 611.34 66.6591L604.806 73.6477V73.875H618.328V77H599.976ZM625.104 77L638.115 51.2614V51.0341H623.115V47.9091H641.752V51.2045L628.797 77H625.104Z" fill="white"/>
<path d="M748.497 77.3977C746.622 77.3977 744.951 77.0758 743.483 76.4318C742.025 75.7879 740.865 74.893 740.003 73.7472C739.151 72.5919 738.687 71.2519 738.611 69.7273H742.19C742.266 70.6648 742.588 71.4744 743.156 72.1562C743.724 72.8286 744.468 73.3494 745.386 73.7188C746.305 74.0881 747.323 74.2727 748.44 74.2727C749.69 74.2727 750.798 74.0549 751.764 73.6193C752.73 73.1837 753.488 72.5777 754.037 71.8011C754.586 71.0246 754.861 70.125 754.861 69.1023C754.861 68.0322 754.596 67.09 754.065 66.2756C753.535 65.4517 752.759 64.8078 751.736 64.3438C750.713 63.8797 749.463 63.6477 747.986 63.6477H745.656V60.5227H747.986C749.141 60.5227 750.154 60.3144 751.026 59.8977C751.906 59.4811 752.593 58.8939 753.085 58.1364C753.587 57.3788 753.838 56.4886 753.838 55.4659C753.838 54.4811 753.62 53.6241 753.185 52.8949C752.749 52.1657 752.134 51.5975 751.338 51.1903C750.552 50.7831 749.624 50.5795 748.554 50.5795C747.55 50.5795 746.603 50.7642 745.713 51.1335C744.832 51.4934 744.113 52.0189 743.554 52.7102C742.995 53.392 742.692 54.2159 742.645 55.1818H739.236C739.293 53.6572 739.752 52.322 740.614 51.1761C741.475 50.0208 742.602 49.1212 743.994 48.4773C745.396 47.8333 746.935 47.5114 748.611 47.5114C750.41 47.5114 751.954 47.8759 753.241 48.6051C754.529 49.3248 755.519 50.2765 756.21 51.4602C756.902 52.6439 757.247 53.9223 757.247 55.2955C757.247 56.9337 756.816 58.3305 755.955 59.4858C755.102 60.6411 753.942 61.4413 752.474 61.8864V62.1136C754.312 62.4167 755.746 63.1979 756.778 64.4574C757.811 65.7074 758.327 67.2557 758.327 69.1023C758.327 70.6837 757.896 72.1042 757.034 73.3636C756.182 74.6136 755.017 75.5985 753.54 76.3182C752.063 77.0379 750.382 77.3977 748.497 77.3977ZM764.136 77V74.4432L773.739 63.9318C774.866 62.7008 775.794 61.6307 776.523 60.7216C777.252 59.803 777.792 58.9413 778.142 58.1364C778.502 57.322 778.682 56.4697 778.682 55.5795C778.682 54.5568 778.436 53.6714 777.943 52.9233C777.46 52.1752 776.797 51.5975 775.955 51.1903C775.112 50.7831 774.165 50.5795 773.114 50.5795C771.996 50.5795 771.021 50.8116 770.188 51.2756C769.364 51.7301 768.724 52.3693 768.27 53.1932C767.825 54.017 767.602 54.983 767.602 56.0909H764.25C764.25 54.3864 764.643 52.8902 765.429 51.6023C766.215 50.3144 767.285 49.3106 768.639 48.5909C770.003 47.8712 771.532 47.5114 773.227 47.5114C774.932 47.5114 776.442 47.8712 777.759 48.5909C779.075 49.3106 780.107 50.2812 780.855 51.5028C781.603 52.7244 781.977 54.0833 781.977 55.5795C781.977 56.6496 781.783 57.696 781.395 58.7188C781.016 59.732 780.353 60.8636 779.406 62.1136C778.469 63.3542 777.167 64.8693 775.5 66.6591L768.966 73.6477V73.875H782.489V77H764.136Z" fill="white"/>
<path d="M51.3324 47.9091V77H47.8097V51.6023H47.6392L40.5369 56.3182V52.7386L47.8097 47.9091H51.3324ZM59.6989 77V74.4432L69.3011 63.9318C70.428 62.7008 71.3561 61.6307 72.0852 60.7216C72.8144 59.803 73.3542 58.9413 73.7045 58.1364C74.0644 57.322 74.2443 56.4697 74.2443 55.5795C74.2443 54.5568 73.9981 53.6714 73.5057 52.9233C73.0227 52.1752 72.3598 51.5975 71.517 51.1903C70.6742 50.7831 69.7273 50.5795 68.6761 50.5795C67.5587 50.5795 66.5833 50.8116 65.75 51.2756C64.9261 51.7301 64.2869 52.3693 63.8324 53.1932C63.3873 54.017 63.1648 54.983 63.1648 56.0909H59.8125C59.8125 54.3864 60.2055 52.8902 60.9915 51.6023C61.7775 50.3144 62.8475 49.3106 64.2017 48.5909C65.5653 47.8712 67.0947 47.5114 68.7898 47.5114C70.4943 47.5114 72.0047 47.8712 73.321 48.5909C74.6373 49.3106 75.6695 50.2812 76.4176 51.5028C77.1657 52.7244 77.5398 54.0833 77.5398 55.5795C77.5398 56.6496 77.3456 57.696 76.9574 58.7188C76.5786 59.732 75.9157 60.8636 74.9688 62.1136C74.0312 63.3542 72.7292 64.8693 71.0625 66.6591L64.5284 73.6477V73.875H78.0511V77H59.6989Z" fill="white"/>
<path d="M330.118 47.9091V77H326.595V51.6023H326.424L319.322 56.3182V52.7386L326.595 47.9091H330.118ZM347.802 77.3977C345.851 77.3977 344.128 77.0521 342.632 76.3608C341.145 75.66 339.985 74.6989 339.152 73.4773C338.318 72.2462 337.906 70.8447 337.916 69.2727C337.906 68.0417 338.148 66.9053 338.64 65.8636C339.133 64.8125 339.805 63.9366 340.657 63.2358C341.519 62.5256 342.48 62.0758 343.541 61.8864V61.7159C342.149 61.3561 341.041 60.5748 340.217 59.3722C339.393 58.16 338.986 56.7822 338.995 55.2386C338.986 53.7614 339.36 52.4403 340.118 51.2756C340.875 50.1108 341.917 49.1922 343.243 48.5199C344.578 47.8475 346.098 47.5114 347.802 47.5114C349.488 47.5114 350.993 47.8475 352.319 48.5199C353.645 49.1922 354.687 50.1108 355.444 51.2756C356.211 52.4403 356.6 53.7614 356.609 55.2386C356.6 56.7822 356.178 58.16 355.345 59.3722C354.521 60.5748 353.427 61.3561 352.064 61.7159V61.8864C353.115 62.0758 354.062 62.5256 354.904 63.2358C355.747 63.9366 356.42 64.8125 356.922 65.8636C357.423 66.9053 357.679 68.0417 357.689 69.2727C357.679 70.8447 357.253 72.2462 356.41 73.4773C355.577 74.6989 354.417 75.66 352.93 76.3608C351.453 77.0521 349.743 77.3977 347.802 77.3977ZM347.802 74.2727C349.118 74.2727 350.255 74.0597 351.211 73.6335C352.168 73.2074 352.906 72.6061 353.427 71.8295C353.948 71.053 354.213 70.1439 354.223 69.1023C354.213 68.0038 353.929 67.0331 353.37 66.1903C352.812 65.3475 352.049 64.6847 351.083 64.2017C350.127 63.7187 349.033 63.4773 347.802 63.4773C346.562 63.4773 345.454 63.7187 344.478 64.2017C343.512 64.6847 342.75 65.3475 342.191 66.1903C341.642 67.0331 341.372 68.0038 341.382 69.1023C341.372 70.1439 341.623 71.053 342.135 71.8295C342.655 72.6061 343.399 73.2074 344.365 73.6335C345.331 74.0597 346.476 74.2727 347.802 74.2727ZM347.802 60.4659C348.844 60.4659 349.767 60.2576 350.572 59.8409C351.386 59.4242 352.026 58.8419 352.49 58.0938C352.954 57.3456 353.19 56.4697 353.2 55.4659C353.19 54.4811 352.958 53.6241 352.504 52.8949C352.049 52.1562 351.42 51.5881 350.615 51.1903C349.81 50.7831 348.872 50.5795 347.802 50.5795C346.713 50.5795 345.761 50.7831 344.947 51.1903C344.133 51.5881 343.503 52.1562 343.058 52.8949C342.613 53.6241 342.395 54.4811 342.404 55.4659C342.395 56.4697 342.618 57.3456 343.072 58.0938C343.536 58.8419 344.175 59.4242 344.99 59.8409C345.804 60.2576 346.742 60.4659 347.802 60.4659Z" fill="white"/>
<path d="M878.572 71.0341V68.1364L891.356 47.9091H893.458V52.3977H892.038L882.379 67.6818V67.9091H899.594V71.0341H878.572ZM892.265 77V70.1534V68.804V47.9091H895.617V77H892.265ZM905.827 77L918.838 51.2614V51.0341H903.838V47.9091H922.474V51.2045L909.52 77H905.827Z" fill="white"/>
<path d="M190.707 47.9091V77H187.185V51.6023H187.014L179.912 56.3182V52.7386L187.185 47.9091H190.707ZM208.903 77.3977C207.028 77.3977 205.357 77.0758 203.889 76.4318C202.431 75.7879 201.271 74.893 200.409 73.7472C199.557 72.5919 199.093 71.2519 199.017 69.7273H202.597C202.672 70.6648 202.994 71.4744 203.562 72.1562C204.131 72.8286 204.874 73.3494 205.793 73.7188C206.711 74.0881 207.729 74.2727 208.847 74.2727C210.097 74.2727 211.205 74.0549 212.17 73.6193C213.136 73.1837 213.894 72.5777 214.443 71.8011C214.992 71.0246 215.267 70.125 215.267 69.1023C215.267 68.0322 215.002 67.09 214.472 66.2756C213.941 65.4517 213.165 64.8078 212.142 64.3438C211.119 63.8797 209.869 63.6477 208.392 63.6477H206.062V60.5227H208.392C209.547 60.5227 210.561 60.3144 211.432 59.8977C212.313 59.4811 212.999 58.8939 213.491 58.1364C213.993 57.3788 214.244 56.4886 214.244 55.4659C214.244 54.4811 214.027 53.6241 213.591 52.8949C213.155 52.1657 212.54 51.5975 211.744 51.1903C210.958 50.7831 210.03 50.5795 208.96 50.5795C207.956 50.5795 207.009 50.7642 206.119 51.1335C205.239 51.4934 204.519 52.0189 203.96 52.7102C203.402 53.392 203.098 54.2159 203.051 55.1818H199.642C199.699 53.6572 200.158 52.322 201.02 51.1761C201.882 50.0208 203.009 49.1212 204.401 48.4773C205.802 47.8333 207.341 47.5114 209.017 47.5114C210.816 47.5114 212.36 47.8759 213.648 48.6051C214.936 49.3248 215.925 50.2765 216.616 51.4602C217.308 52.6439 217.653 53.9223 217.653 55.2955C217.653 56.9337 217.223 58.3305 216.361 59.4858C215.509 60.6411 214.348 61.4413 212.881 61.8864V62.1136C214.718 62.4167 216.152 63.1979 217.185 64.4574C218.217 65.7074 218.733 67.2557 218.733 69.1023C218.733 70.6837 218.302 72.1042 217.44 73.3636C216.588 74.6136 215.423 75.5985 213.946 76.3182C212.469 77.0379 210.788 77.3977 208.903 77.3977Z" fill="white"/>
<path d="M470.961 47.9091V77H467.439V51.6023H467.268L460.166 56.3182V52.7386L467.439 47.9091H470.961ZM488.589 47.5114C489.782 47.5208 490.975 47.7481 492.169 48.1932C493.362 48.6383 494.451 49.3769 495.436 50.4091C496.421 51.4318 497.211 52.8286 497.808 54.5994C498.404 56.3703 498.703 58.5909 498.703 61.2614C498.703 63.8466 498.457 66.143 497.964 68.1506C497.481 70.1487 496.78 71.8343 495.862 73.2074C494.953 74.5805 493.845 75.6222 492.538 76.3324C491.241 77.0426 489.773 77.3977 488.135 77.3977C486.506 77.3977 485.052 77.0758 483.774 76.4318C482.505 75.7784 481.463 74.8741 480.649 73.7188C479.844 72.554 479.328 71.2045 479.1 69.6705H482.566C482.879 71.0057 483.499 72.1089 484.427 72.9801C485.365 73.8419 486.6 74.2727 488.135 74.2727C490.379 74.2727 492.15 73.2926 493.447 71.3324C494.754 69.3722 495.407 66.6023 495.407 63.0227H495.18C494.65 63.8182 494.02 64.5047 493.291 65.0824C492.562 65.66 491.752 66.1051 490.862 66.4176C489.972 66.7301 489.025 66.8864 488.021 66.8864C486.354 66.8864 484.825 66.4744 483.433 65.6506C482.05 64.8172 480.942 63.6761 480.109 62.2273C479.285 60.7689 478.873 59.1023 478.873 57.2273C478.873 55.447 479.271 53.8182 480.066 52.3409C480.871 50.8542 481.998 49.6705 483.447 48.7898C484.905 47.9091 486.619 47.483 488.589 47.5114ZM488.589 50.6364C487.396 50.6364 486.321 50.9347 485.365 51.5312C484.418 52.1184 483.665 52.9138 483.106 53.9176C482.557 54.9119 482.282 56.0152 482.282 57.2273C482.282 58.4394 482.547 59.5426 483.078 60.5369C483.618 61.5218 484.351 62.3078 485.279 62.8949C486.217 63.4725 487.282 63.7614 488.475 63.7614C489.375 63.7614 490.213 63.5862 490.99 63.2358C491.766 62.8759 492.443 62.3883 493.021 61.7727C493.608 61.1477 494.067 60.4422 494.399 59.6562C494.73 58.8608 494.896 58.0322 494.896 57.1705C494.896 56.0341 494.621 54.9687 494.072 53.9744C493.532 52.9801 492.784 52.1752 491.828 51.5597C490.881 50.9441 489.801 50.6364 488.589 50.6364Z" fill="white"/>
<path d="M348.355 262H345.216L354.296 237.273H357.386L366.466 262H363.327L355.938 241.185H355.744L348.355 262ZM349.514 252.341H362.168V254.997H349.514V252.341ZM383.068 247.608L380.508 248.332C380.347 247.906 380.109 247.491 379.796 247.089C379.49 246.678 379.071 246.34 378.54 246.075C378.009 245.809 377.328 245.676 376.499 245.676C375.364 245.676 374.419 245.938 373.662 246.461C372.913 246.976 372.539 247.632 372.539 248.429C372.539 249.137 372.797 249.697 373.312 250.107C373.827 250.518 374.632 250.86 375.727 251.134L378.479 251.81C380.138 252.212 381.373 252.828 382.186 253.657C382.999 254.478 383.406 255.536 383.406 256.832C383.406 257.895 383.1 258.845 382.488 259.682C381.884 260.519 381.039 261.179 379.953 261.662C378.866 262.145 377.602 262.386 376.161 262.386C374.27 262.386 372.704 261.976 371.465 261.155C370.225 260.334 369.44 259.134 369.11 257.557L371.815 256.881C372.072 257.879 372.559 258.627 373.276 259.126C374 259.625 374.946 259.875 376.113 259.875C377.441 259.875 378.496 259.593 379.276 259.03C380.065 258.458 380.46 257.774 380.46 256.977C380.46 256.333 380.234 255.794 379.783 255.359C379.333 254.917 378.64 254.587 377.707 254.369L374.616 253.645C372.917 253.242 371.67 252.619 370.873 251.773C370.084 250.92 369.69 249.854 369.69 248.574C369.69 247.527 369.984 246.602 370.571 245.797C371.167 244.992 371.976 244.36 372.998 243.901C374.028 243.442 375.195 243.213 376.499 243.213C378.335 243.213 379.775 243.616 380.822 244.42C381.876 245.225 382.625 246.288 383.068 247.608ZM395.229 262.386C393.49 262.386 391.993 261.976 390.737 261.155C389.482 260.334 388.516 259.203 387.84 257.762C387.164 256.321 386.826 254.675 386.826 252.824C386.826 250.94 387.172 249.278 387.864 247.837C388.564 246.388 389.538 245.258 390.786 244.445C392.041 243.624 393.506 243.213 395.181 243.213C396.485 243.213 397.66 243.455 398.706 243.938C399.753 244.42 400.61 245.097 401.278 245.966C401.946 246.835 402.361 247.849 402.522 249.009H399.672C399.455 248.163 398.972 247.415 398.223 246.763C397.483 246.103 396.485 245.773 395.229 245.773C394.118 245.773 393.144 246.062 392.307 246.642C391.478 247.214 390.83 248.022 390.363 249.069C389.904 250.107 389.675 251.327 389.675 252.727C389.675 254.16 389.9 255.408 390.351 256.47C390.81 257.533 391.454 258.358 392.283 258.945C393.12 259.533 394.102 259.827 395.229 259.827C395.969 259.827 396.642 259.698 397.245 259.44C397.849 259.183 398.36 258.812 398.779 258.33C399.197 257.847 399.495 257.267 399.672 256.591H402.522C402.361 257.686 401.962 258.672 401.326 259.549C400.698 260.418 399.865 261.111 398.827 261.626C397.797 262.133 396.597 262.386 395.229 262.386ZM414.463 262.386C412.676 262.386 411.134 261.992 409.838 261.203C408.55 260.406 407.556 259.295 406.856 257.871C406.164 256.438 405.818 254.772 405.818 252.872C405.818 250.973 406.164 249.298 406.856 247.849C407.556 246.393 408.53 245.258 409.778 244.445C411.034 243.624 412.499 243.213 414.173 243.213C415.139 243.213 416.093 243.374 417.034 243.696C417.976 244.018 418.833 244.541 419.606 245.266C420.379 245.982 420.995 246.932 421.453 248.115C421.912 249.298 422.142 250.755 422.142 252.486V253.693H407.846V251.23H419.244C419.244 250.184 419.035 249.25 418.616 248.429C418.206 247.608 417.618 246.96 416.853 246.485C416.097 246.01 415.203 245.773 414.173 245.773C413.038 245.773 412.056 246.054 411.227 246.618C410.406 247.173 409.774 247.898 409.331 248.791C408.889 249.685 408.667 250.643 408.667 251.665V253.307C408.667 254.707 408.909 255.895 409.392 256.869C409.883 257.835 410.563 258.571 411.432 259.078C412.301 259.577 413.312 259.827 414.463 259.827C415.211 259.827 415.887 259.722 416.491 259.513C417.103 259.295 417.63 258.973 418.073 258.547C418.515 258.112 418.858 257.573 419.099 256.929L421.852 257.702C421.562 258.635 421.075 259.456 420.391 260.165C419.707 260.865 418.862 261.412 417.855 261.807C416.849 262.193 415.718 262.386 414.463 262.386ZM429.326 250.844V262H426.476V243.455H429.229V246.352H429.47C429.905 245.411 430.565 244.654 431.451 244.082C432.336 243.503 433.479 243.213 434.88 243.213C436.135 243.213 437.234 243.471 438.176 243.986C439.117 244.493 439.85 245.266 440.373 246.304C440.896 247.334 441.158 248.638 441.158 250.216V262H438.309V250.409C438.309 248.952 437.93 247.817 437.174 247.004C436.417 246.183 435.379 245.773 434.059 245.773C433.149 245.773 432.336 245.97 431.62 246.364C430.911 246.759 430.352 247.334 429.941 248.091C429.531 248.848 429.326 249.765 429.326 250.844ZM453.368 262.386C451.822 262.386 450.458 261.996 449.275 261.215C448.091 260.426 447.166 259.316 446.498 257.883C445.83 256.442 445.495 254.74 445.495 252.776C445.495 250.828 445.83 249.137 446.498 247.705C447.166 246.272 448.095 245.165 449.287 244.384C450.478 243.603 451.854 243.213 453.416 243.213C454.623 243.213 455.577 243.414 456.277 243.817C456.986 244.211 457.525 244.662 457.895 245.169C458.274 245.668 458.567 246.079 458.777 246.401H459.018V237.273H461.868V262H459.115V259.151H458.777C458.567 259.489 458.27 259.915 457.883 260.43C457.497 260.937 456.946 261.392 456.229 261.795C455.513 262.189 454.559 262.386 453.368 262.386ZM453.754 259.827C454.897 259.827 455.863 259.529 456.652 258.933C457.441 258.33 458.04 257.496 458.451 256.434C458.861 255.363 459.066 254.128 459.066 252.727C459.066 251.343 458.865 250.131 458.463 249.093C458.06 248.047 457.465 247.234 456.676 246.654C455.887 246.067 454.913 245.773 453.754 245.773C452.547 245.773 451.54 246.083 450.736 246.702C449.939 247.314 449.339 248.147 448.937 249.202C448.542 250.248 448.345 251.423 448.345 252.727C448.345 254.047 448.546 255.247 448.949 256.325C449.359 257.396 449.963 258.249 450.76 258.885C451.565 259.513 452.563 259.827 453.754 259.827ZM467.482 262V243.455H470.331V262H467.482ZM468.931 240.364C468.375 240.364 467.897 240.174 467.494 239.796C467.1 239.418 466.902 238.963 466.902 238.432C466.902 237.901 467.1 237.446 467.494 237.067C467.897 236.689 468.375 236.5 468.931 236.5C469.486 236.5 469.961 236.689 470.356 237.067C470.758 237.446 470.959 237.901 470.959 238.432C470.959 238.963 470.758 239.418 470.356 239.796C469.961 240.174 469.486 240.364 468.931 240.364ZM478.4 250.844V262H475.55V243.455H478.303V246.352H478.545C478.979 245.411 479.639 244.654 480.525 244.082C481.41 243.503 482.553 243.213 483.954 243.213C485.209 243.213 486.308 243.471 487.25 243.986C488.192 244.493 488.924 245.266 489.447 246.304C489.971 247.334 490.232 248.638 490.232 250.216V262H487.383V250.409C487.383 248.952 487.004 247.817 486.248 247.004C485.491 246.183 484.453 245.773 483.133 245.773C482.223 245.773 481.41 245.97 480.694 246.364C479.985 246.759 479.426 247.334 479.016 248.091C478.605 248.848 478.4 249.765 478.4 250.844ZM502.925 269.341C501.548 269.341 500.365 269.164 499.375 268.81C498.385 268.464 497.56 268.005 496.9 267.433C496.248 266.87 495.729 266.266 495.342 265.622L497.612 264.028C497.87 264.366 498.196 264.753 498.59 265.188C498.985 265.63 499.524 266.013 500.208 266.335C500.9 266.665 501.806 266.83 502.925 266.83C504.422 266.83 505.658 266.467 506.631 265.743C507.605 265.018 508.092 263.884 508.092 262.338V258.571H507.851C507.642 258.909 507.344 259.328 506.957 259.827C506.579 260.318 506.032 260.756 505.315 261.143C504.607 261.521 503.649 261.71 502.442 261.71C500.945 261.71 499.6 261.356 498.409 260.648C497.226 259.939 496.288 258.909 495.596 257.557C494.912 256.205 494.57 254.562 494.57 252.631C494.57 250.731 494.904 249.077 495.572 247.668C496.24 246.252 497.17 245.157 498.361 244.384C499.552 243.603 500.929 243.213 502.49 243.213C503.698 243.213 504.655 243.414 505.364 243.817C506.08 244.211 506.627 244.662 507.006 245.169C507.392 245.668 507.69 246.079 507.899 246.401H508.189V243.455H510.942V262.531C510.942 264.125 510.58 265.421 509.855 266.419C509.139 267.425 508.173 268.162 506.957 268.629C505.75 269.103 504.406 269.341 502.925 269.341ZM502.828 259.151C503.971 259.151 504.937 258.889 505.726 258.366C506.515 257.843 507.114 257.09 507.525 256.108C507.935 255.126 508.141 253.951 508.141 252.582C508.141 251.246 507.939 250.067 507.537 249.045C507.135 248.022 506.539 247.222 505.75 246.642C504.961 246.062 503.987 245.773 502.828 245.773C501.621 245.773 500.615 246.079 499.81 246.69C499.013 247.302 498.413 248.123 498.011 249.153C497.616 250.184 497.419 251.327 497.419 252.582C497.419 253.87 497.62 255.009 498.023 255.999C498.433 256.981 499.037 257.754 499.834 258.317C500.639 258.873 501.637 259.151 502.828 259.151ZM546.97 249.636C546.97 252.244 546.499 254.498 545.558 256.398C544.616 258.297 543.324 259.762 541.682 260.793C540.04 261.823 538.164 262.338 536.055 262.338C533.947 262.338 532.071 261.823 530.429 260.793C528.787 259.762 527.495 258.297 526.553 256.398C525.612 254.498 525.141 252.244 525.141 249.636C525.141 247.028 525.612 244.775 526.553 242.875C527.495 240.975 528.787 239.51 530.429 238.48C532.071 237.45 533.947 236.935 536.055 236.935C538.164 236.935 540.04 237.45 541.682 238.48C543.324 239.51 544.616 240.975 545.558 242.875C546.499 244.775 546.97 247.028 546.97 249.636ZM544.073 249.636C544.073 247.495 543.714 245.688 542.998 244.215C542.29 242.742 541.328 241.627 540.112 240.871C538.905 240.114 537.553 239.736 536.055 239.736C534.558 239.736 533.202 240.114 531.987 240.871C530.779 241.627 529.817 242.742 529.101 244.215C528.393 245.688 528.038 247.495 528.038 249.636C528.038 251.777 528.393 253.585 529.101 255.058C529.817 256.531 530.779 257.645 531.987 258.402C533.202 259.159 534.558 259.537 536.055 259.537C537.553 259.537 538.905 259.159 540.112 258.402C541.328 257.645 542.29 256.531 542.998 255.058C543.714 253.585 544.073 251.777 544.073 249.636ZM551.619 262V243.455H554.372V246.256H554.565C554.903 245.338 555.515 244.594 556.4 244.022C557.285 243.451 558.283 243.165 559.394 243.165C559.604 243.165 559.865 243.169 560.179 243.177C560.493 243.185 560.73 243.197 560.891 243.213V246.111C560.795 246.087 560.573 246.05 560.227 246.002C559.889 245.946 559.531 245.918 559.153 245.918C558.251 245.918 557.446 246.107 556.738 246.485C556.038 246.855 555.482 247.371 555.072 248.031C554.669 248.683 554.468 249.427 554.468 250.264V262H551.619ZM570.707 262.386C569.162 262.386 567.798 261.996 566.614 261.215C565.431 260.426 564.506 259.316 563.837 257.883C563.169 256.442 562.835 254.74 562.835 252.776C562.835 250.828 563.169 249.137 563.837 247.705C564.506 246.272 565.435 245.165 566.627 244.384C567.818 243.603 569.194 243.213 570.756 243.213C571.963 243.213 572.917 243.414 573.617 243.817C574.326 244.211 574.865 244.662 575.235 245.169C575.613 245.668 575.907 246.079 576.117 246.401H576.358V237.273H579.207V262H576.455V259.151H576.117C575.907 259.489 575.609 259.915 575.223 260.43C574.837 260.937 574.285 261.392 573.569 261.795C572.853 262.189 571.899 262.386 570.707 262.386ZM571.094 259.827C572.237 259.827 573.203 259.529 573.992 258.933C574.78 258.33 575.38 257.496 575.791 256.434C576.201 255.363 576.406 254.128 576.406 252.727C576.406 251.343 576.205 250.131 575.803 249.093C575.4 248.047 574.805 247.234 574.016 246.654C573.227 246.067 572.253 245.773 571.094 245.773C569.886 245.773 568.88 246.083 568.075 246.702C567.278 247.314 566.679 248.147 566.276 249.202C565.882 250.248 565.685 251.423 565.685 252.727C565.685 254.047 565.886 255.247 566.288 256.325C566.699 257.396 567.303 258.249 568.1 258.885C568.904 259.513 569.903 259.827 571.094 259.827ZM592.597 262.386C590.81 262.386 589.269 261.992 587.973 261.203C586.685 260.406 585.691 259.295 584.991 257.871C584.299 256.438 583.953 254.772 583.953 252.872C583.953 250.973 584.299 249.298 584.991 247.849C585.691 246.393 586.665 245.258 587.913 244.445C589.168 243.624 590.633 243.213 592.308 243.213C593.274 243.213 594.227 243.374 595.169 243.696C596.111 244.018 596.968 244.541 597.741 245.266C598.514 245.982 599.129 246.932 599.588 248.115C600.047 249.298 600.276 250.755 600.276 252.486V253.693H585.981V251.23H597.379C597.379 250.184 597.169 249.25 596.751 248.429C596.34 247.608 595.753 246.96 594.988 246.485C594.231 246.01 593.338 245.773 592.308 245.773C591.173 245.773 590.191 246.054 589.362 246.618C588.541 247.173 587.909 247.898 587.466 248.791C587.023 249.685 586.802 250.643 586.802 251.665V253.307C586.802 254.707 587.043 255.895 587.526 256.869C588.017 257.835 588.698 258.571 589.567 259.078C590.436 259.577 591.446 259.827 592.597 259.827C593.346 259.827 594.022 259.722 594.626 259.513C595.238 259.295 595.765 258.973 596.207 258.547C596.65 258.112 596.992 257.573 597.234 256.929L599.987 257.702C599.697 258.635 599.21 259.456 598.526 260.165C597.841 260.865 596.996 261.412 595.99 261.807C594.984 262.193 593.853 262.386 592.597 262.386ZM604.611 262V243.455H607.364V246.256H607.557C607.895 245.338 608.507 244.594 609.392 244.022C610.278 243.451 611.276 243.165 612.386 243.165C612.596 243.165 612.857 243.169 613.171 243.177C613.485 243.185 613.723 243.197 613.884 243.213V246.111C613.787 246.087 613.566 246.05 613.22 246.002C612.881 245.946 612.523 245.918 612.145 245.918C611.243 245.918 610.439 246.107 609.73 246.485C609.03 246.855 608.475 247.371 608.064 248.031C607.662 248.683 607.46 249.427 607.46 250.264V262H604.611Z" fill="#727272"/>
<path d="M902.414 210.414C903.195 209.633 903.195 208.367 902.414 207.586L889.686 194.858C888.905 194.077 887.639 194.077 886.858 194.858C886.077 195.639 886.077 196.905 886.858 197.686L898.172 209L886.858 220.314C886.077 221.095 886.077 222.361 886.858 223.142C887.639 223.923 888.905 223.923 889.686 223.142L902.414 210.414ZM60 209L60 211L901 211L901 209L901 207L60 207L60 209Z" fill="#727272"/>
</svg>
