<svg xmlns="http://www.w3.org/2000/svg" width="1005" height="617" fill="none" viewBox="0 0 1005 617"><path fill="#2d2d2d" d="M704 0h119v120H704z"/><rect width="119" height="120" x="706" y="370" fill="#2d2d2d" rx="27"/><path fill="#2d2d2d" d="M182 1h119v120H182z"/><rect width="120" height="120" x="284" y="371" fill="#2d2d2d" rx="27"/><rect width="358" height="120" x="62" y="1" stroke="#096" stroke-width="2" rx="26"/><rect width="118" height="120" x="285" y="371" stroke="#096" stroke-width="2" rx="26"/><rect width="238" height="120" x="26" y="372" stroke="#0098d4" stroke-width="2" rx="26"/><rect width="358" height="120" x="584" y="1" stroke="#e27c00" stroke-width="2" rx="26"/><rect width="117" height="120" x="848" y="371" stroke="#f55" stroke-width="2" rx="26"/><rect width="118" height="120" x="707" y="369" stroke="#e27c00" stroke-width="2" rx="26"/><rect width="118" height="120" x="567" y="369" stroke="#8200ed" stroke-width="2" rx="26"/><rect width="118" height="120" x="443" y="1" stroke="#dbdbdb" stroke-width="2" rx="26"/><rect width="118" height="120" x="426" y="371" stroke="#dbdbdb" stroke-width="2" rx="26"/><path stroke="#096" stroke-width="2" d="M182 0v122"/><path stroke="#0098d4" stroke-width="2" d="M145 370v122"/><path stroke="#e27c00" stroke-width="2" d="M704 0v122"/><path stroke="#096" stroke-width="2" d="M302 0v122"/><path stroke="#e27c00" stroke-width="2" d="M824 0v122"/><path fill="#fff" d="M112.332 45.91V75h-3.522V49.602h-.171l-7.102 4.716v-3.58l7.273-4.829zM120.699 75v-2.557l9.602-10.511a67 67 0 0 0 2.784-3.21q1.094-1.378 1.62-2.586a6.3 6.3 0 0 0 .539-2.556q0-1.535-.738-2.657-.725-1.122-1.989-1.733-1.264-.61-2.841-.61-1.676 0-2.926.696a4.8 4.8 0 0 0-1.918 1.917q-.667 1.236-.667 2.898h-3.353q0-2.556 1.179-4.489a8.2 8.2 0 0 1 3.211-3.011q2.045-1.08 4.588-1.08 2.557 0 4.531 1.08 1.975 1.08 3.097 2.912t1.122 4.077q0 1.605-.583 3.139-.567 1.52-1.988 3.395-1.407 1.86-3.907 4.545l-6.534 6.989v.227h13.523V75zM75.332 415.909V445H71.81v-25.398h-.17l-7.103 4.716v-3.579l7.273-4.83zM83.7 445v-2.557l9.602-10.511a67 67 0 0 0 2.784-3.21q1.095-1.378 1.62-2.586.54-1.221.54-2.556 0-1.535-.74-2.657-.723-1.121-1.988-1.733-1.265-.61-2.84-.61-1.677 0-2.927.696a4.8 4.8 0 0 0-1.918 1.917q-.667 1.236-.667 2.898h-3.353q0-2.557 1.18-4.489a8.2 8.2 0 0 1 3.21-3.011q2.045-1.08 4.588-1.08 2.557 0 4.531 1.08 1.975 1.08 3.097 2.912t1.122 4.077q0 1.605-.583 3.139-.567 1.52-1.988 3.395-1.407 1.86-3.906 4.545l-6.535 6.989v.227h13.523V445zM621.976 75v-2.557l9.602-10.511a67 67 0 0 0 2.785-3.21q1.094-1.378 1.619-2.586.54-1.221.54-2.556 0-1.535-.739-2.657-.724-1.122-1.989-1.733-1.263-.61-2.841-.61-1.675 0-2.926.696a4.8 4.8 0 0 0-1.917 1.917q-.668 1.236-.668 2.898h-3.352q0-2.556 1.179-4.489a8.2 8.2 0 0 1 3.21-3.011q2.046-1.08 4.588-1.08 2.557 0 4.531 1.08 1.975 1.08 3.097 2.912t1.122 4.077q0 1.605-.582 3.139-.568 1.52-1.989 3.395-1.406 1.86-3.906 4.545l-6.534 6.989v.227h13.522V75zm25.128 0 13.011-25.739v-.227h-15V45.91h18.637v3.296L650.797 75zM604.976 445v-2.557l9.602-10.511a67 67 0 0 0 2.785-3.21q1.094-1.378 1.619-2.586.54-1.221.54-2.556 0-1.535-.739-2.657-.724-1.121-1.989-1.733-1.263-.61-2.841-.61-1.675 0-2.926.696a4.8 4.8 0 0 0-1.917 1.917q-.668 1.236-.668 2.898h-3.352q0-2.557 1.179-4.489a8.2 8.2 0 0 1 3.21-3.011q2.046-1.08 4.588-1.08 2.557 0 4.531 1.08 1.975 1.08 3.097 2.912t1.122 4.077q0 1.605-.582 3.139-.568 1.52-1.989 3.395-1.406 1.86-3.906 4.545l-6.534 6.989v.227h13.522V445zm25.128 0 13.011-25.739v-.227h-15v-3.125h18.637v3.296L633.797 445zM232.118 45.91V75h-3.523V49.602h-.171l-7.102 4.716v-3.58l7.273-4.829zm17.684 29.488q-2.926 0-5.17-1.037-2.23-1.051-3.48-2.884-1.251-1.846-1.236-4.204-.014-1.847.724-3.41a7.4 7.4 0 0 1 2.017-2.627 6.2 6.2 0 0 1 2.884-1.35v-.17q-2.088-.54-3.324-2.344-1.236-1.818-1.222-4.133-.014-2.217 1.123-3.963 1.136-1.748 3.125-2.756 2.003-1.01 4.559-1.009 2.529 0 4.517 1.009 1.99 1.007 3.125 2.756 1.151 1.746 1.165 3.963-.014 2.315-1.264 4.133-1.236 1.804-3.281 2.344v.17q1.577.285 2.84 1.35 1.265 1.05 2.018 2.628.752 1.562.767 3.409-.015 2.358-1.279 4.204-1.25 1.833-3.48 2.884-2.216 1.037-5.128 1.037m0-3.125q1.975 0 3.409-.64 1.435-.639 2.216-1.803.781-1.165.796-2.728-.015-1.647-.853-2.912-.837-1.264-2.287-1.988-1.434-.725-3.281-.725-1.86 0-3.324.725-1.449.724-2.287 1.988-.824 1.265-.809 2.912-.015 1.563.753 2.727.78 1.165 2.23 1.805 1.448.639 3.437.639m0-13.807q1.563 0 2.77-.625a4.76 4.76 0 0 0 1.918-1.747q.695-1.122.71-2.628-.015-1.477-.696-2.571a4.5 4.5 0 0 0-1.889-1.705q-1.208-.61-2.813-.61-1.634 0-2.855.61-1.221.597-1.889 1.705-.668 1.094-.654 2.57-.013 1.507.668 2.629a4.75 4.75 0 0 0 1.918 1.747q1.222.625 2.812.625M194.707 415.909V445h-3.522v-25.398h-.171l-7.102 4.716v-3.579l7.273-4.83zm18.196 29.489q-2.812 0-5.014-.966-2.187-.966-3.48-2.685-1.278-1.733-1.392-4.02h3.58q.113 1.407.965 2.429.853 1.009 2.231 1.563t3.054.554q1.875 0 3.323-.654 1.45-.652 2.273-1.818.824-1.164.824-2.699 0-1.605-.795-2.826-.796-1.236-2.33-1.932t-3.75-.696h-2.33v-3.125h2.33q1.733 0 3.04-.625 1.321-.625 2.059-1.762.753-1.135.753-2.67 0-1.477-.653-2.571-.653-1.093-1.847-1.705-1.179-.61-2.784-.61a7.3 7.3 0 0 0-2.841.554q-1.32.539-2.159 1.576-.838 1.023-.909 2.472h-3.409q.085-2.287 1.378-4.006 1.293-1.733 3.381-2.699 2.102-.966 4.616-.966 2.699 0 4.631 1.094 1.932 1.08 2.968 2.855a7.47 7.47 0 0 1 1.037 3.835q0 2.458-1.292 4.191-1.279 1.732-3.48 2.4v.228q2.755.454 4.304 2.343 1.548 1.876 1.548 4.645 0 2.372-1.293 4.262-1.278 1.874-3.494 2.954t-5.043 1.08M750.497 75.398q-2.812 0-5.014-.966-2.187-.966-3.48-2.685-1.278-1.733-1.392-4.02h3.579q.114 1.406.966 2.43.852 1.007 2.23 1.562t3.054.554q1.875 0 3.324-.654 1.45-.653 2.273-1.818.824-1.164.824-2.699 0-1.605-.796-2.826-.795-1.236-2.329-1.932t-3.75-.696h-2.33v-3.125h2.33q1.732 0 3.04-.625 1.32-.625 2.059-1.762.753-1.135.753-2.67 0-1.477-.653-2.571a4.47 4.47 0 0 0-1.847-1.705q-1.179-.61-2.784-.61a7.3 7.3 0 0 0-2.841.553q-1.321.54-2.159 1.577-.838 1.023-.909 2.472h-3.409q.085-2.287 1.378-4.006 1.292-1.733 3.38-2.699 2.103-.966 4.617-.966 2.699 0 4.63 1.094 1.932 1.08 2.969 2.855a7.47 7.47 0 0 1 1.037 3.835q0 2.458-1.292 4.19-1.28 1.734-3.481 2.401v.228q2.757.455 4.304 2.343 1.55 1.875 1.549 4.645 0 2.372-1.293 4.262-1.278 1.874-3.494 2.954t-5.043 1.08M766.136 75v-2.557l9.603-10.511a67 67 0 0 0 2.784-3.21q1.094-1.378 1.619-2.586.54-1.221.54-2.556 0-1.535-.739-2.657a4.8 4.8 0 0 0-1.988-1.733q-1.264-.61-2.841-.61-1.677 0-2.926.696a4.8 4.8 0 0 0-1.918 1.917q-.668 1.236-.668 2.898h-3.352q0-2.556 1.179-4.489a8.2 8.2 0 0 1 3.21-3.011q2.046-1.08 4.588-1.08 2.557 0 4.532 1.08 1.974 1.08 3.096 2.912t1.122 4.077q0 1.605-.582 3.139-.569 1.52-1.989 3.395-1.406 1.86-3.906 4.545l-6.534 6.989v.227h13.523V75zM753.497 445.398q-2.812 0-5.014-.966-2.187-.966-3.48-2.685-1.278-1.733-1.392-4.02h3.579q.114 1.407.966 2.429.852 1.009 2.23 1.563t3.054.554q1.875 0 3.324-.654 1.45-.652 2.273-1.818.824-1.164.824-2.699 0-1.605-.796-2.826-.795-1.236-2.329-1.932t-3.75-.696h-2.33v-3.125h2.33q1.732 0 3.04-.625 1.32-.625 2.059-1.762.753-1.135.753-2.67 0-1.477-.653-2.571-.654-1.093-1.847-1.705-1.179-.61-2.784-.61a7.3 7.3 0 0 0-2.841.554q-1.321.539-2.159 1.576-.838 1.023-.909 2.472h-3.409q.085-2.287 1.378-4.006 1.292-1.733 3.38-2.699 2.103-.966 4.617-.966 2.699 0 4.63 1.094 1.932 1.08 2.969 2.855a7.47 7.47 0 0 1 1.037 3.835q0 2.458-1.292 4.191-1.28 1.732-3.481 2.4v.228q2.757.454 4.304 2.343 1.55 1.876 1.549 4.645 0 2.372-1.293 4.262-1.278 1.874-3.494 2.954t-5.043 1.08m15.639-.398v-2.557l9.603-10.511a67 67 0 0 0 2.784-3.21q1.094-1.378 1.619-2.586.54-1.221.54-2.556 0-1.535-.739-2.657-.725-1.121-1.988-1.733-1.264-.61-2.841-.61-1.677 0-2.926.696a4.8 4.8 0 0 0-1.918 1.917q-.668 1.236-.668 2.898h-3.352q0-2.557 1.179-4.489a8.2 8.2 0 0 1 3.21-3.011q2.046-1.08 4.588-1.08 2.557 0 4.532 1.08 1.974 1.08 3.096 2.912t1.122 4.077q0 1.605-.582 3.139-.569 1.52-1.989 3.395-1.406 1.86-3.906 4.545l-6.534 6.989v.227h13.523V445zM351.707 45.91V75h-3.522V49.602h-.171l-7.102 4.716v-3.58l7.273-4.829zm18.196 29.488q-2.812 0-5.014-.966-2.187-.966-3.48-2.685-1.278-1.733-1.392-4.02h3.58q.113 1.406.965 2.43.853 1.007 2.231 1.562t3.054.554q1.875 0 3.323-.654 1.45-.653 2.273-1.818.824-1.164.824-2.699 0-1.605-.795-2.826-.796-1.236-2.33-1.932t-3.75-.696h-2.33v-3.125h2.33q1.733 0 3.04-.625 1.321-.625 2.059-1.762.753-1.135.753-2.67 0-1.477-.653-2.571a4.47 4.47 0 0 0-1.847-1.705q-1.179-.61-2.784-.61a7.3 7.3 0 0 0-2.841.553q-1.32.54-2.159 1.577-.838 1.023-.909 2.472h-3.409q.085-2.287 1.378-4.006 1.293-1.733 3.381-2.699 2.102-.966 4.616-.966 2.699 0 4.631 1.094 1.932 1.08 2.968 2.855a7.47 7.47 0 0 1 1.037 3.835q0 2.458-1.292 4.19-1.279 1.734-3.48 2.401v.228q2.755.455 4.304 2.343 1.548 1.875 1.548 4.645 0 2.372-1.293 4.262-1.278 1.874-3.494 2.954t-5.043 1.08M335.118 415.909V445h-3.523v-25.398h-.171l-7.102 4.716v-3.579l7.273-4.83zm17.684 29.489q-2.926 0-5.17-1.037-2.23-1.051-3.48-2.884-1.251-1.846-1.236-4.204-.014-1.847.724-3.409a7.4 7.4 0 0 1 2.017-2.628 6.2 6.2 0 0 1 2.884-1.35v-.17q-2.088-.54-3.324-2.344-1.236-1.818-1.222-4.133-.014-2.217 1.123-3.963 1.136-1.748 3.125-2.756 2.003-1.009 4.559-1.009 2.529 0 4.517 1.009 1.99 1.008 3.125 2.756 1.151 1.746 1.165 3.963-.014 2.315-1.264 4.133-1.236 1.804-3.281 2.344v.17q1.577.285 2.84 1.35a7.65 7.65 0 0 1 2.018 2.628q.752 1.562.767 3.409-.015 2.358-1.279 4.204-1.25 1.833-3.48 2.884-2.216 1.037-5.128 1.037m0-3.125q1.974 0 3.409-.639 1.435-.64 2.216-1.804t.796-2.728q-.015-1.647-.853-2.912-.837-1.263-2.287-1.988-1.434-.725-3.281-.725-1.86 0-3.324.725-1.449.725-2.287 1.988-.824 1.265-.809 2.912-.015 1.563.753 2.728.78 1.164 2.23 1.804 1.448.639 3.437.639m0-13.807q1.563 0 2.77-.625a4.76 4.76 0 0 0 1.918-1.747q.695-1.122.71-2.628-.015-1.477-.696-2.571a4.5 4.5 0 0 0-1.889-1.705q-1.208-.61-2.813-.61-1.634 0-2.855.61-1.221.597-1.889 1.705-.668 1.093-.654 2.571-.013 1.506.668 2.628a4.75 4.75 0 0 0 1.918 1.747q1.221.625 2.812.625M860.572 69.034v-2.898l12.784-20.227h2.102v4.489h-1.42l-9.659 15.284v.227h17.215v3.125zM874.265 75V45.909h3.352V75zm13.562 0 13.011-25.739v-.227h-15V45.91h18.636v3.296L891.52 75zM883.572 439.034v-2.898l12.784-20.227h2.102v4.489h-1.42l-9.659 15.284v.227h17.215v3.125zM897.265 445v-29.091h3.352V445zm13.562 0 13.011-25.739v-.227h-15v-3.125h18.636v3.296L914.52 445zM492.961 45.91V75h-3.522V49.602h-.171l-7.102 4.716v-3.58l7.273-4.829zm17.628-.399q1.79.015 3.58.682 1.79.668 3.267 2.216 1.477 1.535 2.372 4.19.894 2.657.895 6.662 0 3.879-.739 6.89-.725 2.997-2.102 5.056-1.364 2.06-3.324 3.125-1.946 1.066-4.403 1.066-2.444 0-4.361-.966a8.56 8.56 0 0 1-3.125-2.713q-1.207-1.747-1.549-4.048h3.466q.47 2.002 1.861 3.31 1.406 1.291 3.708 1.292 3.366 0 5.312-2.94 1.96-2.94 1.96-8.31h-.227a8.9 8.9 0 0 1-1.889 2.06 8.3 8.3 0 0 1-2.429 1.335 8.5 8.5 0 0 1-2.841.468q-2.5 0-4.588-1.235-2.074-1.25-3.324-3.424-1.236-2.187-1.236-5 0-2.67 1.193-4.886a9.23 9.23 0 0 1 3.381-3.551q2.187-1.32 5.142-1.279m0 3.125q-1.79 0-3.224.895a6.44 6.44 0 0 0-2.259 2.387q-.824 1.49-.824 3.31 0 1.817.796 3.309a6.35 6.35 0 0 0 2.201 2.358q1.407.866 3.196.866 1.35 0 2.515-.525a6.5 6.5 0 0 0 2.031-1.463 7.1 7.1 0 0 0 1.378-2.117 6.4 6.4 0 0 0 .497-2.486 6.5 6.5 0 0 0-.824-3.196 6.54 6.54 0 0 0-2.244-2.414q-1.42-.924-3.239-.924M475.961 415.909V445h-3.522v-25.398h-.171l-7.102 4.716v-3.579l7.273-4.83zm17.628-.398q1.79.015 3.58.682 1.79.668 3.267 2.216 1.477 1.535 2.372 4.19.894 2.657.895 6.662 0 3.879-.739 6.89-.725 2.997-2.102 5.056-1.363 2.06-3.324 3.125-1.946 1.066-4.403 1.066-2.444 0-4.361-.966a8.56 8.56 0 0 1-3.125-2.713q-1.207-1.747-1.549-4.049h3.466q.47 2.004 1.861 3.31 1.406 1.293 3.708 1.293 3.366 0 5.312-2.941 1.96-2.94 1.96-8.309h-.227a8.9 8.9 0 0 1-1.889 2.059 8.3 8.3 0 0 1-2.429 1.336 8.5 8.5 0 0 1-2.841.468q-2.5 0-4.588-1.235-2.074-1.25-3.324-3.424-1.236-2.187-1.236-5 0-2.67 1.193-4.886a9.2 9.2 0 0 1 3.381-3.551q2.187-1.321 5.142-1.279m0 3.125q-1.79 0-3.224.895a6.44 6.44 0 0 0-2.259 2.387q-.824 1.491-.824 3.309t.796 3.31a6.35 6.35 0 0 0 2.201 2.358q1.407.866 3.196.866 1.35 0 2.515-.525a6.5 6.5 0 0 0 2.031-1.463 7.1 7.1 0 0 0 1.378-2.117 6.4 6.4 0 0 0 .497-2.486 6.5 6.5 0 0 0-.824-3.196 6.54 6.54 0 0 0-2.244-2.414q-1.42-.924-3.239-.924"/><path fill="#727272" d="M202.219 233v-24.727h8.355q2.91 0 4.757 1.05 1.86 1.038 2.753 2.813.894 1.776.893 3.961 0 2.186-.893 3.972-.882 1.787-2.729 2.849-1.847 1.051-4.733 1.051h-5.988v-2.657h5.892q1.992 0 3.199-.688 1.208-.688 1.751-1.859.555-1.183.555-2.668t-.555-2.657q-.543-1.17-1.763-1.835-1.219-.676-3.236-.676h-5.264V233zm21.196 0v-18.545h2.849V233zm1.448-21.636q-.833 0-1.436-.568a1.82 1.82 0 0 1-.592-1.364q0-.797.592-1.365a2.03 2.03 0 0 1 1.436-.567q.834 0 1.425.567.604.568.604 1.365t-.604 1.364a1.99 1.99 0 0 1-1.425.568m21.785 3.091L239.79 233h-2.898l-6.858-18.545h3.091l5.119 14.778h.194l5.119-14.778zm10.631 18.931q-2.511 0-4.407-1.195-1.884-1.196-2.946-3.344-1.051-2.15-1.051-5.023 0-2.898 1.051-5.059 1.062-2.161 2.946-3.357 1.896-1.194 4.407-1.195 2.511 0 4.395 1.195 1.894 1.196 2.946 3.357 1.062 2.161 1.062 5.059 0 2.874-1.062 5.023-1.052 2.148-2.946 3.344-1.884 1.195-4.395 1.195m0-2.559q1.908 0 3.139-.978 1.232-.978 1.823-2.572.592-1.594.592-3.453 0-1.86-.592-3.465-.591-1.606-1.823-2.596t-3.139-.99-3.139.99-1.824 2.596q-.591 1.605-.591 3.465 0 1.858.591 3.453.593 1.594 1.824 2.572t3.139.978m20.818-16.372v2.414h-9.611v-2.414zm-6.81-4.444h2.85v17.677q0 1.206.35 1.811.362.591.918.796.567.194 1.195.194.47 0 .773-.049l.483-.096.579 2.559a6 6 0 0 1-.809.218q-.52.12-1.316.12a5.7 5.7 0 0 1-2.366-.519 4.7 4.7 0 0 1-1.908-1.581q-.749-1.063-.749-2.681zM725.219 233v-24.727h8.355q2.91 0 4.757 1.05 1.86 1.038 2.753 2.813.894 1.776.893 3.961 0 2.186-.893 3.972-.881 1.787-2.729 2.849-1.847 1.051-4.733 1.051h-5.988v-2.657h5.892q1.992 0 3.199-.688 1.208-.688 1.751-1.859.555-1.183.555-2.668t-.555-2.657q-.543-1.17-1.763-1.835-1.219-.676-3.236-.676h-5.264V233zm21.196 0v-18.545h2.849V233zm1.448-21.636q-.833 0-1.436-.568a1.82 1.82 0 0 1-.592-1.364q0-.797.592-1.365a2.03 2.03 0 0 1 1.436-.567q.834 0 1.425.567.604.568.604 1.365t-.604 1.364a1.99 1.99 0 0 1-1.425.568m21.785 3.091L762.79 233h-2.898l-6.858-18.545h3.091l5.119 14.778h.194l5.119-14.778zm10.631 18.931q-2.511 0-4.407-1.195-1.884-1.196-2.946-3.344-1.051-2.15-1.051-5.023 0-2.898 1.051-5.059 1.062-2.161 2.946-3.357 1.896-1.194 4.407-1.195 2.511 0 4.395 1.195 1.895 1.196 2.946 3.357 1.062 2.161 1.062 5.059 0 2.874-1.062 5.023-1.051 2.148-2.946 3.344-1.884 1.195-4.395 1.195m0-2.559q1.908 0 3.139-.978 1.232-.978 1.823-2.572.592-1.594.592-3.453 0-1.86-.592-3.465-.591-1.606-1.823-2.596t-3.139-.99-3.139.99-1.824 2.596q-.591 1.605-.591 3.465 0 1.858.591 3.453.592 1.594 1.824 2.572 1.231.978 3.139.978m20.818-16.372v2.414h-9.611v-2.414zm-6.81-4.444h2.85v17.677q0 1.206.35 1.811.362.591.918.796.567.194 1.195.194.47 0 .773-.049l.483-.096.579 2.559a6 6 0 0 1-.809.218q-.52.12-1.316.12a5.7 5.7 0 0 1-2.366-.519 4.7 4.7 0 0 1-1.908-1.581q-.749-1.063-.749-2.681zM16.685 561.455q-.217-1.836-1.763-2.85t-3.791-1.014q-1.643 0-2.874.531-1.219.531-1.907 1.461a3.5 3.5 0 0 0-.676 2.113q0 .99.47 1.702a4.2 4.2 0 0 0 1.232 1.172 9 9 0 0 0 1.57.76q.82.29 1.509.471l2.511.676q.965.254 2.15.701a10 10 0 0 1 2.281 1.219 6.2 6.2 0 0 1 1.812 1.956q.711 1.195.712 2.934 0 2.004-1.05 3.622-1.04 1.618-3.043 2.572-1.992.954-4.842.954-2.655 0-4.6-.858-1.932-.857-3.043-2.39-1.099-1.534-1.243-3.562h3.09q.122 1.4.942 2.318.834.906 2.101 1.352a8.5 8.5 0 0 0 2.753.435q1.715 0 3.079-.555 1.365-.568 2.161-1.57.797-1.014.797-2.366 0-1.231-.688-2.005-.689-.772-1.811-1.255a19 19 0 0 0-2.427-.845l-3.043-.87q-2.896-.833-4.588-2.378-1.69-1.546-1.69-4.045 0-2.077 1.123-3.622 1.134-1.559 3.042-2.415 1.92-.87 4.287-.869 2.39 0 4.25.857 1.86.845 2.946 2.318a5.78 5.78 0 0 1 1.159 3.345zM24.458 580v-18.545h2.752v2.897h.242q.58-1.485 1.871-2.306 1.293-.833 3.103-.833 1.836 0 3.055.833 1.23.822 1.92 2.306h.193q.712-1.436 2.137-2.282 1.425-.857 3.417-.857 2.487 0 4.069 1.558 1.581 1.545 1.581 4.817V580H45.95v-12.412q0-2.052-1.123-2.934-1.123-.88-2.644-.881-1.956 0-3.03 1.183-1.075 1.171-1.075 2.97V580h-2.898v-12.702q0-1.581-1.026-2.547-1.026-.978-2.644-.978a3.9 3.9 0 0 0-2.077.591 4.5 4.5 0 0 0-1.545 1.642q-.58 1.04-.58 2.403V580zm35.008.435q-1.763 0-3.2-.664a5.5 5.5 0 0 1-2.282-1.944q-.845-1.28-.845-3.091 0-1.594.628-2.584a4.44 4.44 0 0 1 1.678-1.57q1.05-.567 2.318-.845 1.28-.29 2.572-.459 1.69-.216 2.74-.326 1.064-.12 1.546-.398.495-.278.495-.966v-.097q0-1.786-.978-2.777-.966-.99-2.934-.99-2.04 0-3.2.894-1.158.893-1.63 1.908l-2.704-.966q.724-1.691 1.932-2.632a7.25 7.25 0 0 1 2.656-1.329 11 11 0 0 1 2.85-.386q.893 0 2.052.217 1.172.205 2.258.858 1.099.651 1.823 1.968.725 1.316.725 3.525V580h-2.85v-2.511h-.145q-.29.603-.966 1.292-.675.688-1.798 1.171-1.124.483-2.741.483m.434-2.56q1.69 0 2.85-.664 1.17-.664 1.763-1.715.603-1.05.603-2.209v-2.608q-.18.218-.797.398-.603.17-1.4.302-.785.121-1.533.218-.738.084-1.196.144a11 11 0 0 0-2.076.471q-.954.315-1.546.954-.58.628-.58 1.715 0 1.485 1.1 2.245 1.11.749 2.812.749m16.116-22.602V580h-2.85v-24.727zm8.068 0V580h-2.85v-24.727zm12.995 25.113q-2.68 0-4.624-1.183-1.932-1.196-2.983-3.332-1.038-2.15-1.038-4.999t1.038-5.023q1.05-2.184 2.922-3.404 1.883-1.232 4.395-1.232 1.449 0 2.862.483a7.1 7.1 0 0 1 2.571 1.57q1.16 1.074 1.848 2.849.688 1.774.688 4.371v1.207H90.462v-2.463h11.398q0-1.57-.628-2.801a4.73 4.73 0 0 0-1.763-1.944q-1.135-.712-2.68-.712-1.703 0-2.946.845a5.56 5.56 0 0 0-1.896 2.173 6.4 6.4 0 0 0-.664 2.874v1.642q0 2.1.725 3.562.736 1.449 2.04 2.209 1.305.749 3.03.749 1.125 0 2.03-.314a4.4 4.4 0 0 0 1.581-.966 4.4 4.4 0 0 0 1.026-1.618l2.753.773a6.1 6.1 0 0 1-1.461 2.463q-1.026 1.05-2.535 1.642-1.51.579-3.393.579m12.013-.386v-18.545h2.753v2.801h.193q.507-1.377 1.836-2.234 1.327-.857 2.994-.857.314 0 .785.012.47.012.712.036v2.898a8 8 0 0 0-.664-.109 6.6 6.6 0 0 0-1.075-.084q-1.352 0-2.414.567a4.3 4.3 0 0 0-1.667 1.546q-.603.978-.603 2.233V580zm30.279-18.545v2.414h-9.611v-2.414zm-6.81-4.444h2.849v17.677q0 1.206.35 1.811.363.591.918.796.567.194 1.195.194.471 0 .773-.049l.483-.096.58 2.559a6 6 0 0 1-.809.218q-.52.12-1.316.12a5.7 5.7 0 0 1-2.367-.519 4.7 4.7 0 0 1-1.908-1.581q-.748-1.063-.748-2.681zm14.344 11.833V580h-2.85v-24.727h2.85v9.079h.241a5.25 5.25 0 0 1 1.956-2.282q1.316-.857 3.502-.857 1.895 0 3.32.761 1.425.748 2.209 2.306.798 1.545.797 3.936V580h-2.849v-11.591q0-2.21-1.147-3.417-1.135-1.22-3.152-1.219-1.4 0-2.511.591a4.33 4.33 0 0 0-1.739 1.727q-.627 1.135-.627 2.753m22.695 11.591q-1.762 0-3.199-.664-1.437-.677-2.282-1.944-.845-1.28-.845-3.091 0-1.594.628-2.584a4.44 4.44 0 0 1 1.678-1.57q1.05-.567 2.318-.845a28 28 0 0 1 2.572-.459 124 124 0 0 1 2.741-.326q1.062-.12 1.545-.398.495-.278.495-.966v-.097q0-1.786-.978-2.777-.966-.99-2.934-.99-2.04 0-3.199.894-1.16.893-1.63 1.908l-2.705-.966q.725-1.691 1.932-2.632a7.25 7.25 0 0 1 2.656-1.329 11 11 0 0 1 2.85-.386q.893 0 2.052.217a6.6 6.6 0 0 1 2.258.858q1.098.651 1.823 1.968t.724 3.525V580h-2.849v-2.511h-.145q-.29.603-.966 1.292-.675.688-1.799 1.171-1.122.483-2.741.483m.435-2.56q1.69 0 2.85-.664 1.17-.664 1.762-1.715a4.36 4.36 0 0 0 .604-2.209v-2.608q-.181.218-.797.398-.603.17-1.4.302-.786.121-1.534.218-.736.084-1.195.144-1.111.146-2.077.471-.954.315-1.545.954-.58.628-.58 1.715 0 1.485 1.099 2.245 1.11.749 2.813.749m16.116-9.031V580h-2.85v-18.545h2.753v2.897h.242a5.3 5.3 0 0 1 1.98-2.27q1.327-.869 3.429-.869 1.883 0 3.296.773 1.413.76 2.197 2.318.786 1.545.785 3.912V580h-2.849v-11.591q0-2.185-1.135-3.405-1.135-1.231-3.115-1.231-1.365 0-2.439.591-1.063.592-1.678 1.727-.616 1.135-.616 2.753m26.601 18.111v-25.5h2.753v2.946h.338q.314-.483.87-1.232.567-.76 1.618-1.352 1.062-.604 2.873-.604 2.343 0 4.129 1.171 1.787 1.172 2.79 3.321 1.002 2.149 1.002 5.071 0 2.946-1.002 5.107-1.003 2.149-2.777 3.332-1.776 1.171-4.094 1.171-1.787 0-2.861-.591-1.075-.604-1.654-1.365a18 18 0 0 1-.894-1.279h-.241v9.804zm2.802-16.228q0 2.101.615 3.707.617 1.594 1.799 2.499 1.184.894 2.898.894 1.787 0 2.982-.942 1.208-.954 1.811-2.56.616-1.618.616-3.598 0-1.956-.603-3.525-.593-1.582-1.799-2.5-1.195-.929-3.007-.929-1.738 0-2.922.881-1.183.87-1.787 2.439-.603 1.558-.603 3.634M233.471 580v-18.545h2.85V580zm1.449-21.636a2.03 2.03 0 0 1-1.437-.568 1.82 1.82 0 0 1-.591-1.364q0-.796.591-1.365a2.03 2.03 0 0 1 1.437-.567q.832 0 1.425.567.603.569.604 1.365 0 .797-.604 1.364-.593.568-1.425.568m21.784 3.091L249.846 580h-2.897l-6.858-18.545h3.091l5.119 14.778h.193l5.119-14.778zm10.631 18.931q-2.511 0-4.407-1.195-1.883-1.196-2.946-3.344-1.05-2.15-1.05-5.023 0-2.898 1.05-5.059 1.063-2.161 2.946-3.357 1.896-1.195 4.407-1.195t4.395 1.195q1.896 1.196 2.946 3.357 1.063 2.161 1.063 5.059 0 2.874-1.063 5.023-1.05 2.148-2.946 3.344-1.883 1.195-4.395 1.195m0-2.559q1.908 0 3.14-.978 1.231-.979 1.823-2.572.591-1.595.591-3.453 0-1.86-.591-3.465-.592-1.606-1.823-2.596-1.232-.99-3.14-.99-1.907 0-3.139.99t-1.823 2.596-.592 3.465.592 3.453q.591 1.593 1.823 2.572 1.232.978 3.139.978m20.819-16.372v2.414h-9.611v-2.414zm-6.81-4.444h2.85v17.677q0 1.206.35 1.811.362.591.917.796.568.194 1.196.194.47 0 .772-.049l.483-.096.58 2.559a6 6 0 0 1-.809.218q-.52.12-1.316.12a5.7 5.7 0 0 1-2.367-.519 4.7 4.7 0 0 1-1.907-1.581q-.749-1.063-.749-2.681zM582.534 549.455q-.218-1.836-1.763-2.85t-3.791-1.014q-1.643 0-2.874.531-1.22.531-1.908 1.461a3.5 3.5 0 0 0-.676 2.113q0 .99.471 1.702.483.7 1.232 1.172a9 9 0 0 0 1.569.76q.822.29 1.51.471l2.511.676q.966.254 2.149.701a10 10 0 0 1 2.282 1.219 6.2 6.2 0 0 1 1.811 1.956q.712 1.195.712 2.934 0 2.004-1.05 3.622-1.038 1.618-3.043 2.572-1.992.954-4.841.954-2.656 0-4.6-.858-1.932-.857-3.043-2.39-1.098-1.534-1.244-3.562h3.091q.121 1.4.942 2.318.833.906 2.101 1.352a8.5 8.5 0 0 0 2.753.435q1.714 0 3.079-.555 1.364-.568 2.161-1.57.797-1.014.797-2.366 0-1.231-.688-2.005-.688-.772-1.812-1.255a19 19 0 0 0-2.426-.845l-3.043-.87q-2.898-.833-4.588-2.378t-1.69-4.045q0-2.077 1.122-3.622 1.135-1.559 3.043-2.415 1.92-.87 4.286-.869 2.391 0 4.25.857 1.86.845 2.946 2.318a5.77 5.77 0 0 1 1.159 3.345zM590.306 568v-18.545h2.753v2.897h.242q.58-1.485 1.871-2.306 1.292-.833 3.103-.833 1.835 0 3.055.833 1.232.822 1.919 2.306h.194q.712-1.436 2.137-2.282 1.423-.857 3.417-.857 2.487 0 4.068 1.558 1.582 1.545 1.582 4.817V568h-2.849v-12.412q0-2.052-1.123-2.934-1.123-.88-2.644-.881-1.957 0-3.031 1.183-1.074 1.171-1.074 2.97V568h-2.898v-12.702q0-1.581-1.026-2.547-1.027-.978-2.645-.978-1.11 0-2.076.591a4.5 4.5 0 0 0-1.546 1.642q-.579 1.04-.579 2.403V568zm35.008.435q-1.762 0-3.199-.664-1.437-.677-2.282-1.944-.845-1.28-.845-3.091 0-1.594.628-2.584a4.43 4.43 0 0 1 1.678-1.57q1.05-.567 2.318-.845 1.28-.29 2.572-.459 1.69-.216 2.74-.326 1.063-.12 1.546-.398.495-.278.495-.966v-.097q0-1.786-.978-2.777-.966-.99-2.934-.99-2.04 0-3.2.894-1.159.893-1.63 1.908l-2.704-.966q.724-1.691 1.932-2.632a7.25 7.25 0 0 1 2.656-1.329 11 11 0 0 1 2.849-.386q.894 0 2.053.217a6.6 6.6 0 0 1 2.258.858q1.098.651 1.823 1.968t.724 3.525V568h-2.849v-2.511h-.145q-.29.603-.966 1.292-.676.688-1.799 1.171t-2.741.483m.435-2.56q1.69 0 2.849-.664 1.172-.664 1.763-1.715a4.36 4.36 0 0 0 .604-2.209v-2.608q-.181.218-.797.398-.603.17-1.401.302-.784.121-1.533.218-.736.084-1.195.144-1.111.146-2.077.471-.954.315-1.545.954-.58.628-.58 1.715 0 1.485 1.099 2.245 1.11.749 2.813.749m16.116-22.602V568h-2.85v-24.727zm8.068 0V568h-2.849v-24.727zm12.994 25.113q-2.68 0-4.624-1.183-1.932-1.196-2.982-3.332-1.038-2.15-1.038-4.999t1.038-5.023q1.05-2.184 2.922-3.404 1.883-1.232 4.395-1.232 1.448 0 2.861.483a7.1 7.1 0 0 1 2.572 1.57q1.159 1.074 1.847 2.849.688 1.774.688 4.371v1.207h-14.295v-2.463h11.398q0-1.57-.628-2.801a4.73 4.73 0 0 0-1.763-1.944q-1.135-.712-2.68-.712-1.702 0-2.946.845a5.56 5.56 0 0 0-1.896 2.173 6.4 6.4 0 0 0-.664 2.874v1.642q0 2.1.724 3.562.737 1.449 2.041 2.209 1.304.749 3.03.749 1.123 0 2.029-.314a4.4 4.4 0 0 0 1.582-.966 4.4 4.4 0 0 0 1.026-1.618l2.753.773a6.1 6.1 0 0 1-1.461 2.463q-1.026 1.05-2.536 1.642-1.509.579-3.393.579m12.014-.386v-18.545h2.753v2.801h.193q.507-1.377 1.835-2.234 1.329-.857 2.995-.857.313 0 .784.012t.713.036v2.898a8 8 0 0 0-.664-.109 6.6 6.6 0 0 0-1.075-.084q-1.351 0-2.415.567-1.05.555-1.666 1.546-.604.978-.604 2.233V568zm-119.335 22.455v2.414h-9.611v-2.414zm-6.81-4.444h2.85v17.677q0 1.206.35 1.811.362.591.917.796.568.194 1.196.194.47 0 .772-.049l.483-.096.58 2.559a6 6 0 0 1-.809.218q-.52.12-1.316.12a5.7 5.7 0 0 1-2.366-.519 4.7 4.7 0 0 1-1.908-1.581q-.749-1.063-.749-2.681zm14.344 11.833V609h-2.849v-24.727h2.849v9.079h.241a5.25 5.25 0 0 1 1.956-2.282q1.317-.857 3.502-.857 1.895 0 3.32.761 1.425.748 2.21 2.306.797 1.545.797 3.936V609h-2.85v-11.591q0-2.21-1.147-3.417-1.135-1.22-3.151-1.219-1.4 0-2.512.591a4.3 4.3 0 0 0-1.738 1.727q-.628 1.135-.628 2.753m22.696 11.591q-1.763 0-3.2-.664a5.5 5.5 0 0 1-2.282-1.944q-.845-1.28-.845-3.091 0-1.594.628-2.584a4.44 4.44 0 0 1 1.678-1.57 8.8 8.8 0 0 1 2.318-.845 29 29 0 0 1 2.572-.459q1.69-.216 2.741-.326 1.062-.12 1.545-.398.495-.278.495-.966v-.097q0-1.786-.978-2.777-.965-.99-2.934-.99-2.04 0-3.199.894-1.16.893-1.63 1.908l-2.705-.966q.724-1.691 1.932-2.632a7.3 7.3 0 0 1 2.656-1.329 11 11 0 0 1 2.85-.386q.894 0 2.052.217a6.6 6.6 0 0 1 2.258.858q1.099.651 1.823 1.968.725 1.316.725 3.525V609h-2.85v-2.511h-.144q-.291.603-.966 1.292-.677.688-1.799 1.171-1.124.483-2.741.483m.435-2.56q1.69 0 2.849-.664 1.171-.664 1.763-1.715a4.37 4.37 0 0 0 .603-2.209v-2.608q-.18.218-.796.398-.605.17-1.401.302-.784.121-1.533.218-.737.084-1.196.144-1.11.146-2.076.471-.954.315-1.546.954-.579.628-.579 1.715 0 1.485 1.098 2.245 1.112.749 2.814.749m16.115-9.031V609h-2.849v-18.545h2.753v2.897h.241a5.3 5.3 0 0 1 1.98-2.27q1.329-.869 3.429-.869 1.884 0 3.296.773 1.413.76 2.198 2.318.784 1.545.784 3.912V609h-2.849v-11.591q0-2.185-1.135-3.405-1.135-1.231-3.115-1.231-1.364 0-2.439.591-1.062.592-1.678 1.727t-.616 2.753m26.602 18.111v-25.5h2.753v2.946h.338q.314-.483.869-1.232.567-.76 1.618-1.352 1.062-.604 2.874-.604 2.342 0 4.129 1.171t2.789 3.321 1.002 5.071q0 2.946-1.002 5.107-1.002 2.149-2.777 3.332-1.775 1.171-4.093 1.171-1.786 0-2.862-.591-1.074-.604-1.654-1.365a18 18 0 0 1-.893-1.279h-.242v9.804zm2.801-16.228q0 2.101.616 3.707.615 1.594 1.799 2.499 1.183.894 2.897.894 1.788 0 2.983-.942 1.207-.954 1.811-2.56.615-1.618.616-3.598 0-1.956-.604-3.525-.592-1.582-1.799-2.5-1.195-.929-3.007-.929-1.739 0-2.921.881-1.184.87-1.787 2.439-.604 1.558-.604 3.634M649.707 609v-18.545h2.849V609zm1.448-21.636q-.833 0-1.436-.568a1.82 1.82 0 0 1-.592-1.364q0-.796.592-1.365a2.03 2.03 0 0 1 1.436-.567q.834 0 1.425.567.604.569.604 1.365 0 .797-.604 1.364a1.99 1.99 0 0 1-1.425.568m21.785 3.091L666.082 609h-2.898l-6.858-18.545h3.091l5.119 14.778h.193l5.12-14.778zm10.631 18.931q-2.511 0-4.407-1.195-1.884-1.196-2.946-3.344-1.051-2.15-1.051-5.023 0-2.898 1.051-5.059 1.062-2.161 2.946-3.357 1.896-1.195 4.407-1.195t4.395 1.195q1.894 1.196 2.946 3.357 1.062 2.161 1.062 5.059 0 2.874-1.062 5.023-1.052 2.148-2.946 3.344-1.884 1.195-4.395 1.195m0-2.559q1.908 0 3.139-.978 1.232-.979 1.823-2.572.592-1.595.592-3.453 0-1.86-.592-3.465-.591-1.606-1.823-2.596t-3.139-.99-3.139.99-1.824 2.596q-.591 1.605-.591 3.465 0 1.858.591 3.453.593 1.593 1.824 2.572 1.231.978 3.139.978m20.818-16.372v2.414h-9.611v-2.414zm-6.81-4.444h2.85v17.677q0 1.206.35 1.811.362.591.918.796.567.194 1.195.194.47 0 .773-.049l.483-.096.579 2.559a6 6 0 0 1-.809.218q-.52.12-1.316.12a5.7 5.7 0 0 1-2.366-.519 4.7 4.7 0 0 1-1.908-1.581q-.749-1.063-.749-2.681zM864.951 551a8.7 8.7 0 0 0-1.05-2.185 6.8 6.8 0 0 0-1.533-1.667 6.5 6.5 0 0 0-2.005-1.05 8 8 0 0 0-2.463-.362q-2.198 0-3.996 1.135-1.798 1.134-2.862 3.344-1.062 2.21-1.062 5.421t1.074 5.422q1.076 2.209 2.91 3.344 1.836 1.135 4.129 1.135 2.126 0 3.743-.906a6.4 6.4 0 0 0 2.536-2.583q.918-1.678.918-3.949l.917.194h-7.437v-2.657h9.417v2.657q0 3.054-1.304 5.312a9 9 0 0 1-3.574 3.502q-2.27 1.231-5.216 1.231-3.284 0-5.771-1.545-2.475-1.547-3.863-4.395-1.377-2.85-1.377-6.762 0-2.934.785-5.276.797-2.355 2.246-4.008a9.8 9.8 0 0 1 3.429-2.536q1.98-.881 4.358-.881 1.956 0 3.647.591a9.8 9.8 0 0 1 3.03 1.654 9.4 9.4 0 0 1 2.234 2.548 9.7 9.7 0 0 1 1.231 3.272zm7.978 17v-18.545h2.753v2.801h.193q.507-1.377 1.835-2.234 1.329-.857 2.995-.857.314 0 .785.012.47.012.712.036v2.898a8 8 0 0 0-.664-.109 6.6 6.6 0 0 0-1.075-.084q-1.352 0-2.414.567a4.3 4.3 0 0 0-1.667 1.546q-.603.978-.603 2.233V568zm19.862.386q-2.68 0-4.625-1.183-1.931-1.196-2.982-3.332-1.038-2.15-1.038-4.999t1.038-5.023q1.05-2.184 2.922-3.404 1.884-1.232 4.395-1.232 1.45 0 2.861.483a7.1 7.1 0 0 1 2.572 1.57q1.16 1.074 1.848 2.849.687 1.774.688 4.371v1.207h-14.296v-2.463h11.398q0-1.57-.628-2.801a4.73 4.73 0 0 0-1.763-1.944q-1.135-.712-2.68-.712-1.702 0-2.946.845a5.56 5.56 0 0 0-1.896 2.173 6.4 6.4 0 0 0-.664 2.874v1.642q0 2.1.725 3.562.736 1.449 2.04 2.209 1.305.749 3.031.749 1.122 0 2.028-.314a4.4 4.4 0 0 0 1.582-.966 4.4 4.4 0 0 0 1.026-1.618l2.753.773a6.1 6.1 0 0 1-1.461 2.463q-1.026 1.05-2.535 1.642-1.51.579-3.393.579m17.471.049q-1.764 0-3.2-.664a5.5 5.5 0 0 1-2.282-1.944q-.845-1.28-.845-3.091 0-1.594.628-2.584a4.44 4.44 0 0 1 1.678-1.57q1.05-.567 2.318-.845a28 28 0 0 1 2.572-.459 124 124 0 0 1 2.741-.326q1.062-.12 1.545-.398.495-.278.495-.966v-.097q0-1.786-.978-2.777-.966-.99-2.934-.99-2.04 0-3.199.894-1.16.893-1.63 1.908l-2.705-.966q.724-1.691 1.932-2.632a7.25 7.25 0 0 1 2.656-1.329 11 11 0 0 1 2.85-.386q.893 0 2.052.217a6.6 6.6 0 0 1 2.258.858q1.099.651 1.823 1.968.725 1.316.725 3.525V568h-2.85v-2.511h-.145q-.29.603-.966 1.292-.675.688-1.799 1.171t-2.74.483m.434-2.56q1.69 0 2.85-.664 1.17-.664 1.763-1.715a4.37 4.37 0 0 0 .603-2.209v-2.608q-.181.218-.797.398-.603.17-1.4.302-.785.121-1.534.218-.736.084-1.195.144-1.11.146-2.077.471-.954.315-1.545.954-.58.628-.58 1.715 0 1.485 1.099 2.245 1.111.749 2.813.749m21.332-16.42v2.414h-9.611v-2.414zm-6.81-4.444h2.85v17.677q0 1.206.35 1.811.362.591.917.796.568.194 1.196.194.47 0 .772-.049l.483-.096.58 2.559a6 6 0 0 1-.809.218q-.52.12-1.316.12a5.7 5.7 0 0 1-2.367-.519 4.7 4.7 0 0 1-1.907-1.581q-.749-1.063-.749-2.681zm18.672 23.375q-2.68 0-4.624-1.183-1.932-1.196-2.982-3.332-1.038-2.15-1.039-4.999t1.039-5.023q1.05-2.184 2.922-3.404 1.882-1.232 4.395-1.232 1.448 0 2.861.483a7.1 7.1 0 0 1 2.572 1.57q1.159 1.074 1.847 2.849.688 1.774.688 4.371v1.207h-14.295v-2.463h11.398q0-1.57-.628-2.801a4.73 4.73 0 0 0-1.763-1.944q-1.135-.712-2.68-.712-1.702 0-2.946.845a5.56 5.56 0 0 0-1.896 2.173 6.4 6.4 0 0 0-.664 2.874v1.642q0 2.1.724 3.562.737 1.449 2.041 2.209 1.303.749 3.03.749 1.123 0 2.029-.314a4.35 4.35 0 0 0 1.581-.966 4.4 4.4 0 0 0 1.027-1.618l2.753.773a6.1 6.1 0 0 1-1.461 2.463q-1.027 1.05-2.536 1.642-1.509.579-3.393.579m12.014-.386v-18.545h2.753v2.801h.193q.507-1.377 1.835-2.234 1.329-.857 2.994-.857.314 0 .785.012t.713.036v2.898a8 8 0 0 0-.664-.109 6.6 6.6 0 0 0-1.075-.084q-1.352 0-2.415.567-1.05.555-1.666 1.546-.603.978-.604 2.233V568zm-120.298 22.455v2.414h-9.611v-2.414zm-6.81-4.444h2.85v17.677q0 1.206.35 1.811.362.591.917.796.568.194 1.196.194.47 0 .772-.049l.483-.096.58 2.559a6 6 0 0 1-.809.218q-.52.12-1.316.12a5.7 5.7 0 0 1-2.366-.519 4.7 4.7 0 0 1-1.908-1.581q-.749-1.063-.749-2.681zm14.344 11.833V609h-2.849v-24.727h2.849v9.079h.241a5.25 5.25 0 0 1 1.956-2.282q1.317-.857 3.502-.857 1.896 0 3.32.761 1.424.748 2.21 2.306.797 1.545.797 3.936V609h-2.85v-11.591q0-2.21-1.147-3.417-1.135-1.22-3.151-1.219-1.4 0-2.512.591a4.3 4.3 0 0 0-1.738 1.727q-.628 1.135-.628 2.753m22.696 11.591q-1.763 0-3.2-.664a5.5 5.5 0 0 1-2.282-1.944q-.845-1.28-.845-3.091 0-1.594.628-2.584a4.44 4.44 0 0 1 1.678-1.57 8.8 8.8 0 0 1 2.318-.845 29 29 0 0 1 2.572-.459q1.69-.216 2.741-.326 1.062-.12 1.545-.398.495-.278.495-.966v-.097q0-1.786-.978-2.777-.965-.99-2.934-.99-2.04 0-3.199.894-1.16.893-1.63 1.908l-2.705-.966q.724-1.691 1.932-2.632a7.3 7.3 0 0 1 2.656-1.329 11 11 0 0 1 2.85-.386q.894 0 2.052.217a6.6 6.6 0 0 1 2.258.858q1.099.651 1.823 1.968.725 1.316.725 3.525V609h-2.85v-2.511h-.144q-.291.603-.966 1.292-.677.688-1.799 1.171-1.124.483-2.741.483m.435-2.56q1.69 0 2.849-.664 1.171-.664 1.763-1.715a4.37 4.37 0 0 0 .603-2.209v-2.608q-.18.218-.796.398-.605.17-1.401.302-.784.121-1.533.218-.737.084-1.196.144-1.11.146-2.076.471-.954.315-1.546.954-.579.628-.579 1.715 0 1.485 1.098 2.245 1.112.749 2.814.749m16.115-9.031V609h-2.849v-18.545h2.753v2.897h.241a5.3 5.3 0 0 1 1.98-2.27q1.329-.869 3.429-.869 1.884 0 3.296.773 1.413.76 2.198 2.318.784 1.545.784 3.912V609h-2.849v-11.591q0-2.185-1.135-3.405-1.135-1.231-3.115-1.231-1.364 0-2.439.591-1.062.592-1.678 1.727t-.616 2.753m26.602 18.111v-25.5h2.753v2.946h.338q.314-.483.869-1.232.567-.76 1.618-1.352 1.062-.604 2.874-.604 2.342 0 4.129 1.171t2.789 3.321 1.002 5.071q0 2.946-1.002 5.107-1.002 2.149-2.777 3.332-1.775 1.171-4.093 1.171-1.786 0-2.862-.591-1.074-.604-1.654-1.365a18 18 0 0 1-.893-1.279h-.242v9.804zm2.801-16.228q0 2.101.616 3.707.615 1.594 1.799 2.499 1.183.894 2.897.894 1.788 0 2.983-.942 1.207-.954 1.811-2.56.615-1.618.616-3.598 0-1.956-.604-3.525-.592-1.582-1.799-2.5-1.195-.929-3.007-.929-1.739 0-2.921.881-1.184.87-1.787 2.439-.604 1.558-.604 3.634M929.707 609v-18.545h2.849V609zm1.448-21.636q-.833 0-1.436-.568a1.82 1.82 0 0 1-.592-1.364q0-.796.592-1.365a2.03 2.03 0 0 1 1.436-.567q.834 0 1.425.567.604.569.604 1.365 0 .797-.604 1.364a1.99 1.99 0 0 1-1.425.568m21.785 3.091L946.082 609h-2.898l-6.858-18.545h3.091l5.119 14.778h.193l5.12-14.778zm10.631 18.931q-2.511 0-4.407-1.195-1.884-1.196-2.946-3.344-1.051-2.15-1.051-5.023 0-2.898 1.051-5.059 1.062-2.161 2.946-3.357 1.896-1.195 4.407-1.195t4.395 1.195q1.894 1.196 2.946 3.357 1.062 2.161 1.062 5.059 0 2.874-1.062 5.023-1.052 2.148-2.946 3.344-1.884 1.195-4.395 1.195m0-2.559q1.908 0 3.139-.978 1.232-.979 1.823-2.572.592-1.595.592-3.453 0-1.86-.592-3.465-.591-1.606-1.823-2.596t-3.139-.99-3.139.99-1.824 2.596q-.591 1.605-.591 3.465 0 1.858.591 3.453.593 1.593 1.824 2.572 1.231.978 3.139.978m20.818-16.372v2.414h-9.611v-2.414zm-6.81-4.444h2.85v17.677q0 1.206.35 1.811.362.591.918.796.567.194 1.195.194.47 0 .773-.049l.483-.096.579 2.559a6 6 0 0 1-.809.218q-.52.12-1.316.12a5.7 5.7 0 0 1-2.366-.519 4.7 4.7 0 0 1-1.908-1.581q-.749-1.063-.749-2.681z"/><path fill="#00a8f0" d="M64.807 314.455q-.217-1.836-1.763-2.85t-3.79-1.014q-1.643 0-2.874.531-1.22.531-1.908 1.461a3.5 3.5 0 0 0-.676 2.113q0 .99.47 1.702a4.2 4.2 0 0 0 1.232 1.172q.749.458 1.57.76.82.29 1.509.471l2.511.676q.965.254 2.15.701a10 10 0 0 1 2.281 1.219 6.2 6.2 0 0 1 1.811 1.956q.713 1.195.713 2.934 0 2.004-1.05 3.622-1.04 1.618-3.043 2.572-1.992.954-4.842.954-2.656 0-4.6-.858-1.932-.857-3.043-2.39-1.098-1.534-1.243-3.562h3.09q.121 1.4.943 2.318.832.906 2.1 1.352a8.5 8.5 0 0 0 2.753.435q1.715 0 3.08-.555 1.363-.568 2.16-1.57.797-1.014.797-2.366 0-1.231-.688-2.005-.689-.772-1.811-1.255a19 19 0 0 0-2.427-.845l-3.043-.87q-2.896-.833-4.588-2.378-1.69-1.546-1.69-4.045 0-2.077 1.123-3.622 1.135-1.559 3.042-2.415 1.92-.87 4.287-.869 2.39 0 4.25.857 1.86.845 2.946 2.318a5.78 5.78 0 0 1 1.159 3.345zm19.46 10.963v-10.963h2.85V333h-2.85v-3.139h-.193q-.652 1.413-2.028 2.402-1.377.978-3.478.978-1.74 0-3.09-.76-1.352-.773-2.126-2.318-.772-1.558-.772-3.924v-11.784h2.85v11.59q0 2.029 1.134 3.236 1.148 1.208 2.922 1.208 1.063 0 2.161-.544 1.11-.543 1.86-1.666.76-1.122.76-2.861M92.722 333v-24.727h2.85v9.128h.24q.315-.483.87-1.232.568-.76 1.618-1.352 1.062-.604 2.874-.604 2.342 0 4.129 1.171t2.789 3.321 1.002 5.071q0 2.946-1.002 5.107-1.002 2.149-2.777 3.332-1.775 1.171-4.093 1.171-1.787 0-2.862-.591-1.074-.605-1.654-1.365a18 18 0 0 1-.893-1.279h-.338V333zm2.801-9.273q0 2.101.616 3.707.615 1.594 1.799 2.499 1.183.894 2.897.894 1.788 0 2.983-.942 1.207-.954 1.811-2.56.615-1.618.616-3.598 0-1.956-.604-3.525-.592-1.582-1.799-2.5-1.195-.929-3.007-.929-1.739 0-2.921.881-1.185.87-1.787 2.439-.604 1.557-.604 3.634m25.415 16.614q-2.064 0-3.549-.531-1.485-.519-2.475-1.377-.978-.845-1.558-1.811l2.27-1.594q.387.507.978 1.16.592.663 1.618 1.147 1.038.495 2.716.495 2.247 0 3.707-1.087 1.461-1.087 1.461-3.405v-3.767h-.241q-.314.507-.894 1.256-.568.736-1.642 1.316-1.062.567-2.873.567-2.247 0-4.033-1.062-1.775-1.063-2.813-3.091-1.027-2.029-1.027-4.926 0-2.85 1.002-4.963 1.003-2.124 2.79-3.284 1.786-1.171 4.129-1.171 1.81 0 2.873.604 1.075.591 1.642 1.352.58.749.894 1.232h.29v-2.946h2.753v19.076q0 2.391-1.087 3.888-1.075 1.51-2.898 2.21-1.81.712-4.033.712m-.096-10.19q1.714 0 2.898-.785 1.182-.785 1.799-2.258.615-1.473.615-3.526 0-2.004-.603-3.537-.604-1.534-1.787-2.403-1.184-.87-2.922-.869-1.812 0-3.019.917-1.194.918-1.799 2.463-.591 1.547-.591 3.429 0 1.932.603 3.417.617 1.473 1.812 2.318 1.207.834 2.994.834M134.171 333v-18.545h2.753v2.801h.193q.508-1.376 1.836-2.234 1.328-.857 2.994-.857.314 0 .785.012.47.012.712.036v2.898a8 8 0 0 0-.664-.109 6.6 6.6 0 0 0-1.074-.084q-1.353 0-2.415.567a4.27 4.27 0 0 0-1.666 1.546q-.604.978-.604 2.233V333zm19.62.386q-2.511 0-4.407-1.195-1.883-1.196-2.946-3.344-1.05-2.15-1.05-5.023 0-2.898 1.05-5.059 1.063-2.161 2.946-3.357 1.896-1.194 4.407-1.195 2.512 0 4.395 1.195 1.896 1.195 2.946 3.357 1.063 2.161 1.063 5.059 0 2.874-1.063 5.023-1.05 2.148-2.946 3.344-1.883 1.195-4.395 1.195m0-2.559q1.908 0 3.14-.978 1.231-.978 1.823-2.572t.591-3.453q0-1.86-.591-3.465-.592-1.606-1.823-2.596-1.232-.99-3.14-.99-1.907 0-3.139.99t-1.823 2.596q-.591 1.605-.592 3.465 0 1.858.592 3.453t1.823 2.572q1.232.978 3.139.978m24.441-5.409v-10.963h2.849V333h-2.849v-3.139h-.193q-.652 1.413-2.029 2.402-1.375.978-3.477.978-1.738 0-3.091-.76-1.352-.773-2.125-2.318-.773-1.558-.773-3.924v-11.784h2.85v11.59q0 2.029 1.135 3.236 1.147 1.208 2.922 1.208 1.062 0 2.161-.544 1.11-.543 1.859-1.666.76-1.122.761-2.861m8.068 14.537v-25.5h2.753v2.946h.338q.314-.483.87-1.232.567-.76 1.617-1.352 1.064-.604 2.874-.604 2.343 0 4.129 1.171 1.788 1.172 2.789 3.321t1.002 5.071q0 2.946-1.002 5.107-1.001 2.149-2.777 3.332-1.774 1.171-4.093 1.171-1.787 0-2.861-.591-1.075-.605-1.654-1.365a18 18 0 0 1-.894-1.279h-.241v9.804zm2.801-16.228q0 2.101.616 3.707.616 1.594 1.799 2.499 1.184.894 2.898.894 1.787 0 2.982-.942 1.208-.954 1.811-2.56.616-1.618.616-3.598 0-1.956-.604-3.525-.591-1.582-1.799-2.5-1.196-.929-3.006-.929-1.738 0-2.922.881-1.183.87-1.787 2.439-.603 1.557-.604 3.634M236.866 316h-2.995q-.266-1.292-.929-2.27a6.2 6.2 0 0 0-1.594-1.642 6.8 6.8 0 0 0-2.065-1.014 8.2 8.2 0 0 0-2.366-.338q-2.246 0-4.069 1.135-1.81 1.134-2.886 3.344-1.062 2.21-1.062 5.421t1.062 5.422q1.076 2.209 2.886 3.344 1.823 1.135 4.069 1.135 1.232 0 2.366-.338a7 7 0 0 0 2.065-1.002 6.4 6.4 0 0 0 1.594-1.654q.663-.99.929-2.27h2.995q-.338 1.895-1.232 3.392a9.3 9.3 0 0 1-2.221 2.548 9.7 9.7 0 0 1-2.983 1.582 11.1 11.1 0 0 1-3.513.543q-3.164 0-5.627-1.545-2.463-1.546-3.875-4.395-1.413-2.85-1.413-6.762t1.413-6.761 3.875-4.395 5.627-1.545q1.871 0 3.513.543a9.6 9.6 0 0 1 2.983 1.594 9.1 9.1 0 0 1 2.221 2.535q.893 1.485 1.232 3.393"/><path fill="#727272" d="M238.939 185.061a1.5 1.5 0 0 0 2.122 0l9.546-9.546a1.5 1.5 0 0 0 0-2.122 1.5 1.5 0 0 0-2.122 0L240 181.879l-8.485-8.486a1.5 1.5 0 0 0-2.122 0 1.5 1.5 0 0 0 0 2.122zM240 184h1.5v-43h-3v43zM761.939 185.061a1.5 1.5 0 0 0 2.122 0l9.546-9.546a1.5 1.5 0 0 0 0-2.122 1.5 1.5 0 0 0-2.122 0L763 181.879l-8.485-8.486a1.5 1.5 0 0 0-2.122 0 1.5 1.5 0 0 0 0 2.122zM763 184h1.5v-43h-3v43z"/></svg>