<svg width="982" height="636" viewBox="0 0 982 636" fill="none" xmlns="http://www.w3.org/2000/svg">
<rect x="161" y="389" width="120" height="120" rx="27" fill="#2D2D2D"/>
<path d="M141 3H234C248.912 3 261 15.0883 261 30V96C261 110.912 248.912 123 234 123H141V3Z" fill="#2D2D2D"/>
<rect x="281" y="3" width="118" height="120" rx="26" stroke="#009966" stroke-width="2"/>
<rect x="301" y="389" width="118" height="120" rx="26" stroke="#009966" stroke-width="2"/>
<rect x="22" y="4" width="238" height="120" rx="26" stroke="#0098D4" stroke-width="2"/>
<rect x="844" y="3" width="117" height="120" rx="26" stroke="#FF5555" stroke-width="2"/>
<rect x="864" y="389" width="117" height="120" rx="26" stroke="#FF5555" stroke-width="2"/>
<rect x="163" y="389" width="117" height="120" rx="26" stroke="#0098D4" stroke-width="2"/>
<rect x="703" y="1" width="118" height="120" rx="26" stroke="#E27C00" stroke-width="2"/>
<rect x="723" y="387" width="118" height="120" rx="26" stroke="#E27C00" stroke-width="2"/>
<rect x="22" y="387" width="118" height="120" rx="26" stroke="#F0B100" stroke-width="2"/>
<rect x="563" y="1" width="118" height="120" rx="26" stroke="#8200ED" stroke-width="2"/>
<rect x="583" y="387" width="118" height="120" rx="26" stroke="#8200ED" stroke-width="2"/>
<rect x="422" y="3" width="118" height="120" rx="26" stroke="#DBDBDB" stroke-width="2"/>
<rect x="442" y="389" width="118" height="120" rx="26" stroke="#DBDBDB" stroke-width="2"/>
<line x1="141" y1="2" x2="141" y2="124" stroke="#0098D4" stroke-width="2"/>
<path d="M71.3324 47.9091V77H67.8097V51.6023H67.6392L60.5369 56.3182V52.7386L67.8097 47.9091H71.3324ZM79.6989 77V74.4432L89.3011 63.9318C90.428 62.7008 91.3561 61.6307 92.0852 60.7216C92.8144 59.803 93.3542 58.9413 93.7045 58.1364C94.0644 57.322 94.2443 56.4697 94.2443 55.5795C94.2443 54.5568 93.9981 53.6714 93.5057 52.9233C93.0227 52.1752 92.3598 51.5975 91.517 51.1903C90.6742 50.7831 89.7273 50.5795 88.6761 50.5795C87.5587 50.5795 86.5833 50.8116 85.75 51.2756C84.9261 51.7301 84.2869 52.3693 83.8324 53.1932C83.3873 54.017 83.1648 54.983 83.1648 56.0909H79.8125C79.8125 54.3864 80.2055 52.8902 80.9915 51.6023C81.7775 50.3144 82.8475 49.3106 84.2017 48.5909C85.5653 47.8712 87.0947 47.5114 88.7898 47.5114C90.4943 47.5114 92.0047 47.8712 93.321 48.5909C94.6373 49.3106 95.6695 50.2812 96.4176 51.5028C97.1657 52.7244 97.5398 54.0833 97.5398 55.5795C97.5398 56.6496 97.3456 57.696 96.9574 58.7188C96.5786 59.732 95.9157 60.8636 94.9688 62.1136C94.0312 63.3542 92.7292 64.8693 91.0625 66.6591L84.5284 73.6477V73.875H98.0511V77H79.6989Z" fill="white"/>
<path d="M600.976 77V74.4432L610.578 63.9318C611.705 62.7008 612.633 61.6307 613.363 60.7216C614.092 59.803 614.632 58.9413 614.982 58.1364C615.342 57.322 615.522 56.4697 615.522 55.5795C615.522 54.5568 615.275 53.6714 614.783 52.9233C614.3 52.1752 613.637 51.5975 612.794 51.1903C611.952 50.7831 611.005 50.5795 609.953 50.5795C608.836 50.5795 607.861 50.8116 607.027 51.2756C606.203 51.7301 605.564 52.3693 605.11 53.1932C604.665 54.017 604.442 54.983 604.442 56.0909H601.09C601.09 54.3864 601.483 52.8902 602.269 51.6023C603.055 50.3144 604.125 49.3106 605.479 48.5909C606.843 47.8712 608.372 47.5114 610.067 47.5114C611.772 47.5114 613.282 47.8712 614.598 48.5909C615.915 49.3106 616.947 50.2812 617.695 51.5028C618.443 52.7244 618.817 54.0833 618.817 55.5795C618.817 56.6496 618.623 57.696 618.235 58.7188C617.856 59.732 617.193 60.8636 616.246 62.1136C615.309 63.3542 614.007 64.8693 612.34 66.6591L605.806 73.6477V73.875H619.328V77H600.976ZM626.104 77L639.115 51.2614V51.0341H624.115V47.9091H642.752V51.2045L629.797 77H626.104Z" fill="white"/>
<path d="M620.976 463V460.443L630.578 449.932C631.705 448.701 632.633 447.631 633.363 446.722C634.092 445.803 634.632 444.941 634.982 444.136C635.342 443.322 635.522 442.47 635.522 441.58C635.522 440.557 635.275 439.671 634.783 438.923C634.3 438.175 633.637 437.598 632.794 437.19C631.952 436.783 631.005 436.58 629.953 436.58C628.836 436.58 627.861 436.812 627.027 437.276C626.203 437.73 625.564 438.369 625.11 439.193C624.665 440.017 624.442 440.983 624.442 442.091H621.09C621.09 440.386 621.483 438.89 622.269 437.602C623.055 436.314 624.125 435.311 625.479 434.591C626.843 433.871 628.372 433.511 630.067 433.511C631.772 433.511 633.282 433.871 634.598 434.591C635.915 435.311 636.947 436.281 637.695 437.503C638.443 438.724 638.817 440.083 638.817 441.58C638.817 442.65 638.623 443.696 638.235 444.719C637.856 445.732 637.193 446.864 636.246 448.114C635.309 449.354 634.007 450.869 632.34 452.659L625.806 459.648V459.875H639.328V463H620.976ZM646.104 463L659.115 437.261V437.034H644.115V433.909H662.752V437.205L649.797 463H646.104Z" fill="white"/>
<path d="M190.707 47.9091V77H187.185V51.6023H187.014L179.912 56.3182V52.7386L187.185 47.9091H190.707ZM208.903 77.3977C207.028 77.3977 205.357 77.0758 203.889 76.4318C202.431 75.7879 201.271 74.893 200.409 73.7472C199.557 72.5919 199.093 71.2519 199.017 69.7273H202.597C202.672 70.6648 202.994 71.4744 203.562 72.1562C204.131 72.8286 204.874 73.3494 205.793 73.7188C206.711 74.0881 207.729 74.2727 208.847 74.2727C210.097 74.2727 211.205 74.0549 212.17 73.6193C213.136 73.1837 213.894 72.5777 214.443 71.8011C214.992 71.0246 215.267 70.125 215.267 69.1023C215.267 68.0322 215.002 67.09 214.472 66.2756C213.941 65.4517 213.165 64.8078 212.142 64.3438C211.119 63.8797 209.869 63.6477 208.392 63.6477H206.062V60.5227H208.392C209.547 60.5227 210.561 60.3144 211.432 59.8977C212.313 59.4811 212.999 58.8939 213.491 58.1364C213.993 57.3788 214.244 56.4886 214.244 55.4659C214.244 54.4811 214.027 53.6241 213.591 52.8949C213.155 52.1657 212.54 51.5975 211.744 51.1903C210.958 50.7831 210.03 50.5795 208.96 50.5795C207.956 50.5795 207.009 50.7642 206.119 51.1335C205.239 51.4934 204.519 52.0189 203.96 52.7102C203.402 53.392 203.098 54.2159 203.051 55.1818H199.642C199.699 53.6572 200.158 52.322 201.02 51.1761C201.882 50.0208 203.009 49.1212 204.401 48.4773C205.802 47.8333 207.341 47.5114 209.017 47.5114C210.816 47.5114 212.36 47.8759 213.648 48.6051C214.936 49.3248 215.925 50.2765 216.616 51.4602C217.308 52.6439 217.653 53.9223 217.653 55.2955C217.653 56.9337 217.223 58.3305 216.361 59.4858C215.509 60.6411 214.348 61.4413 212.881 61.8864V62.1136C214.718 62.4167 216.152 63.1979 217.185 64.4574C218.217 65.7074 218.733 67.2557 218.733 69.1023C218.733 70.6837 218.302 72.1042 217.44 73.3636C216.588 74.6136 215.423 75.5985 213.946 76.3182C212.469 77.0379 210.788 77.3977 208.903 77.3977Z" fill="white"/>
<path d="M749.497 77.3977C747.622 77.3977 745.951 77.0758 744.483 76.4318C743.025 75.7879 741.865 74.893 741.003 73.7472C740.151 72.5919 739.687 71.2519 739.611 69.7273H743.19C743.266 70.6648 743.588 71.4744 744.156 72.1562C744.724 72.8286 745.468 73.3494 746.386 73.7188C747.305 74.0881 748.323 74.2727 749.44 74.2727C750.69 74.2727 751.798 74.0549 752.764 73.6193C753.73 73.1837 754.488 72.5777 755.037 71.8011C755.586 71.0246 755.861 70.125 755.861 69.1023C755.861 68.0322 755.596 67.09 755.065 66.2756C754.535 65.4517 753.759 64.8078 752.736 64.3438C751.713 63.8797 750.463 63.6477 748.986 63.6477H746.656V60.5227H748.986C750.141 60.5227 751.154 60.3144 752.026 59.8977C752.906 59.4811 753.593 58.8939 754.085 58.1364C754.587 57.3788 754.838 56.4886 754.838 55.4659C754.838 54.4811 754.62 53.6241 754.185 52.8949C753.749 52.1657 753.134 51.5975 752.338 51.1903C751.552 50.7831 750.624 50.5795 749.554 50.5795C748.55 50.5795 747.603 50.7642 746.713 51.1335C745.832 51.4934 745.113 52.0189 744.554 52.7102C743.995 53.392 743.692 54.2159 743.645 55.1818H740.236C740.293 53.6572 740.752 52.322 741.614 51.1761C742.475 50.0208 743.602 49.1212 744.994 48.4773C746.396 47.8333 747.935 47.5114 749.611 47.5114C751.41 47.5114 752.954 47.8759 754.241 48.6051C755.529 49.3248 756.519 50.2765 757.21 51.4602C757.902 52.6439 758.247 53.9223 758.247 55.2955C758.247 56.9337 757.816 58.3305 756.955 59.4858C756.102 60.6411 754.942 61.4413 753.474 61.8864V62.1136C755.312 62.4167 756.746 63.1979 757.778 64.4574C758.811 65.7074 759.327 67.2557 759.327 69.1023C759.327 70.6837 758.896 72.1042 758.034 73.3636C757.182 74.6136 756.017 75.5985 754.54 76.3182C753.063 77.0379 751.382 77.3977 749.497 77.3977ZM765.136 77V74.4432L774.739 63.9318C775.866 62.7008 776.794 61.6307 777.523 60.7216C778.252 59.803 778.792 58.9413 779.142 58.1364C779.502 57.322 779.682 56.4697 779.682 55.5795C779.682 54.5568 779.436 53.6714 778.943 52.9233C778.46 52.1752 777.797 51.5975 776.955 51.1903C776.112 50.7831 775.165 50.5795 774.114 50.5795C772.996 50.5795 772.021 50.8116 771.188 51.2756C770.364 51.7301 769.724 52.3693 769.27 53.1932C768.825 54.017 768.602 54.983 768.602 56.0909H765.25C765.25 54.3864 765.643 52.8902 766.429 51.6023C767.215 50.3144 768.285 49.3106 769.639 48.5909C771.003 47.8712 772.532 47.5114 774.227 47.5114C775.932 47.5114 777.442 47.8712 778.759 48.5909C780.075 49.3106 781.107 50.2812 781.855 51.5028C782.603 52.7244 782.977 54.0833 782.977 55.5795C782.977 56.6496 782.783 57.696 782.395 58.7188C782.016 59.732 781.353 60.8636 780.406 62.1136C779.469 63.3542 778.167 64.8693 776.5 66.6591L769.966 73.6477V73.875H783.489V77H765.136Z" fill="white"/>
<path d="M769.497 463.398C767.622 463.398 765.951 463.076 764.483 462.432C763.025 461.788 761.865 460.893 761.003 459.747C760.151 458.592 759.687 457.252 759.611 455.727H763.19C763.266 456.665 763.588 457.474 764.156 458.156C764.724 458.829 765.468 459.349 766.386 459.719C767.305 460.088 768.323 460.273 769.44 460.273C770.69 460.273 771.798 460.055 772.764 459.619C773.73 459.184 774.488 458.578 775.037 457.801C775.586 457.025 775.861 456.125 775.861 455.102C775.861 454.032 775.596 453.09 775.065 452.276C774.535 451.452 773.759 450.808 772.736 450.344C771.713 449.88 770.463 449.648 768.986 449.648H766.656V446.523H768.986C770.141 446.523 771.154 446.314 772.026 445.898C772.906 445.481 773.593 444.894 774.085 444.136C774.587 443.379 774.838 442.489 774.838 441.466C774.838 440.481 774.62 439.624 774.185 438.895C773.749 438.166 773.134 437.598 772.338 437.19C771.552 436.783 770.624 436.58 769.554 436.58C768.55 436.58 767.603 436.764 766.713 437.134C765.832 437.493 765.113 438.019 764.554 438.71C763.995 439.392 763.692 440.216 763.645 441.182H760.236C760.293 439.657 760.752 438.322 761.614 437.176C762.475 436.021 763.602 435.121 764.994 434.477C766.396 433.833 767.935 433.511 769.611 433.511C771.41 433.511 772.954 433.876 774.241 434.605C775.529 435.325 776.519 436.277 777.21 437.46C777.902 438.644 778.247 439.922 778.247 441.295C778.247 442.934 777.816 444.33 776.955 445.486C776.102 446.641 774.942 447.441 773.474 447.886V448.114C775.312 448.417 776.746 449.198 777.778 450.457C778.811 451.707 779.327 453.256 779.327 455.102C779.327 456.684 778.896 458.104 778.034 459.364C777.182 460.614 776.017 461.598 774.54 462.318C773.063 463.038 771.382 463.398 769.497 463.398ZM785.136 463V460.443L794.739 449.932C795.866 448.701 796.794 447.631 797.523 446.722C798.252 445.803 798.792 444.941 799.142 444.136C799.502 443.322 799.682 442.47 799.682 441.58C799.682 440.557 799.436 439.671 798.943 438.923C798.46 438.175 797.797 437.598 796.955 437.19C796.112 436.783 795.165 436.58 794.114 436.58C792.996 436.58 792.021 436.812 791.188 437.276C790.364 437.73 789.724 438.369 789.27 439.193C788.825 440.017 788.602 440.983 788.602 442.091H785.25C785.25 440.386 785.643 438.89 786.429 437.602C787.215 436.314 788.285 435.311 789.639 434.591C791.003 433.871 792.532 433.511 794.227 433.511C795.932 433.511 797.442 433.871 798.759 434.591C800.075 435.311 801.107 436.281 801.855 437.503C802.603 438.724 802.977 440.083 802.977 441.58C802.977 442.65 802.783 443.696 802.395 444.719C802.016 445.732 801.353 446.864 800.406 448.114C799.469 449.354 798.167 450.869 796.5 452.659L789.966 459.648V459.875H803.489V463H785.136Z" fill="white"/>
<path d="M72.3324 433.909V463H68.8097V437.602H68.6392L61.5369 442.318V438.739L68.8097 433.909H72.3324ZM80.6989 463V460.443L90.3011 449.932C91.428 448.701 92.3561 447.631 93.0852 446.722C93.8144 445.803 94.3542 444.941 94.7045 444.136C95.0644 443.322 95.2443 442.47 95.2443 441.58C95.2443 440.557 94.9981 439.671 94.5057 438.923C94.0227 438.175 93.3598 437.598 92.517 437.19C91.6742 436.783 90.7273 436.58 89.6761 436.58C88.5587 436.58 87.5833 436.812 86.75 437.276C85.9261 437.73 85.2869 438.369 84.8324 439.193C84.3873 440.017 84.1648 440.983 84.1648 442.091H80.8125C80.8125 440.386 81.2055 438.89 81.9915 437.602C82.7775 436.314 83.8475 435.311 85.2017 434.591C86.5653 433.871 88.0947 433.511 89.7898 433.511C91.4943 433.511 93.0047 433.871 94.321 434.591C95.6373 435.311 96.6695 436.281 97.4176 437.503C98.1657 438.724 98.5398 440.083 98.5398 441.58C98.5398 442.65 98.3456 443.696 97.9574 444.719C97.5786 445.732 96.9157 446.864 95.9688 448.114C95.0312 449.354 93.7292 450.869 92.0625 452.659L85.5284 459.648V459.875H99.0511V463H80.6989Z" fill="white"/>
<path d="M331.118 47.9091V77H327.595V51.6023H327.424L320.322 56.3182V52.7386L327.595 47.9091H331.118ZM348.802 77.3977C346.851 77.3977 345.128 77.0521 343.632 76.3608C342.145 75.66 340.985 74.6989 340.152 73.4773C339.318 72.2462 338.906 70.8447 338.916 69.2727C338.906 68.0417 339.148 66.9053 339.64 65.8636C340.133 64.8125 340.805 63.9366 341.657 63.2358C342.519 62.5256 343.48 62.0758 344.541 61.8864V61.7159C343.149 61.3561 342.041 60.5748 341.217 59.3722C340.393 58.16 339.986 56.7822 339.995 55.2386C339.986 53.7614 340.36 52.4403 341.118 51.2756C341.875 50.1108 342.917 49.1922 344.243 48.5199C345.578 47.8475 347.098 47.5114 348.802 47.5114C350.488 47.5114 351.993 47.8475 353.319 48.5199C354.645 49.1922 355.687 50.1108 356.444 51.2756C357.211 52.4403 357.6 53.7614 357.609 55.2386C357.6 56.7822 357.178 58.16 356.345 59.3722C355.521 60.5748 354.427 61.3561 353.064 61.7159V61.8864C354.115 62.0758 355.062 62.5256 355.904 63.2358C356.747 63.9366 357.42 64.8125 357.922 65.8636C358.423 66.9053 358.679 68.0417 358.689 69.2727C358.679 70.8447 358.253 72.2462 357.41 73.4773C356.577 74.6989 355.417 75.66 353.93 76.3608C352.453 77.0521 350.743 77.3977 348.802 77.3977ZM348.802 74.2727C350.118 74.2727 351.255 74.0597 352.211 73.6335C353.168 73.2074 353.906 72.6061 354.427 71.8295C354.948 71.053 355.213 70.1439 355.223 69.1023C355.213 68.0038 354.929 67.0331 354.37 66.1903C353.812 65.3475 353.049 64.6847 352.083 64.2017C351.127 63.7187 350.033 63.4773 348.802 63.4773C347.562 63.4773 346.454 63.7187 345.478 64.2017C344.512 64.6847 343.75 65.3475 343.191 66.1903C342.642 67.0331 342.372 68.0038 342.382 69.1023C342.372 70.1439 342.623 71.053 343.135 71.8295C343.655 72.6061 344.399 73.2074 345.365 73.6335C346.331 74.0597 347.476 74.2727 348.802 74.2727ZM348.802 60.4659C349.844 60.4659 350.767 60.2576 351.572 59.8409C352.386 59.4242 353.026 58.8419 353.49 58.0938C353.954 57.3456 354.19 56.4697 354.2 55.4659C354.19 54.4811 353.958 53.6241 353.504 52.8949C353.049 52.1562 352.42 51.5881 351.615 51.1903C350.81 50.7831 349.872 50.5795 348.802 50.5795C347.713 50.5795 346.761 50.7831 345.947 51.1903C345.133 51.5881 344.503 52.1562 344.058 52.8949C343.613 53.6241 343.395 54.4811 343.404 55.4659C343.395 56.4697 343.618 57.3456 344.072 58.0938C344.536 58.8419 345.175 59.4242 345.99 59.8409C346.804 60.2576 347.742 60.4659 348.802 60.4659Z" fill="white"/>
<path d="M351.118 433.909V463H347.595V437.602H347.424L340.322 442.318V438.739L347.595 433.909H351.118ZM368.802 463.398C366.851 463.398 365.128 463.052 363.632 462.361C362.145 461.66 360.985 460.699 360.152 459.477C359.318 458.246 358.906 456.845 358.916 455.273C358.906 454.042 359.148 452.905 359.64 451.864C360.133 450.812 360.805 449.937 361.657 449.236C362.519 448.526 363.48 448.076 364.541 447.886V447.716C363.149 447.356 362.041 446.575 361.217 445.372C360.393 444.16 359.986 442.782 359.995 441.239C359.986 439.761 360.36 438.44 361.118 437.276C361.875 436.111 362.917 435.192 364.243 434.52C365.578 433.848 367.098 433.511 368.802 433.511C370.488 433.511 371.993 433.848 373.319 434.52C374.645 435.192 375.687 436.111 376.444 437.276C377.211 438.44 377.6 439.761 377.609 441.239C377.6 442.782 377.178 444.16 376.345 445.372C375.521 446.575 374.427 447.356 373.064 447.716V447.886C374.115 448.076 375.062 448.526 375.904 449.236C376.747 449.937 377.42 450.812 377.922 451.864C378.423 452.905 378.679 454.042 378.689 455.273C378.679 456.845 378.253 458.246 377.41 459.477C376.577 460.699 375.417 461.66 373.93 462.361C372.453 463.052 370.743 463.398 368.802 463.398ZM368.802 460.273C370.118 460.273 371.255 460.06 372.211 459.634C373.168 459.207 373.906 458.606 374.427 457.83C374.948 457.053 375.213 456.144 375.223 455.102C375.213 454.004 374.929 453.033 374.37 452.19C373.812 451.348 373.049 450.685 372.083 450.202C371.127 449.719 370.033 449.477 368.802 449.477C367.562 449.477 366.454 449.719 365.478 450.202C364.512 450.685 363.75 451.348 363.191 452.19C362.642 453.033 362.372 454.004 362.382 455.102C362.372 456.144 362.623 457.053 363.135 457.83C363.655 458.606 364.399 459.207 365.365 459.634C366.331 460.06 367.476 460.273 368.802 460.273ZM368.802 446.466C369.844 446.466 370.767 446.258 371.572 445.841C372.386 445.424 373.026 444.842 373.49 444.094C373.954 443.346 374.19 442.47 374.2 441.466C374.19 440.481 373.958 439.624 373.504 438.895C373.049 438.156 372.42 437.588 371.615 437.19C370.81 436.783 369.872 436.58 368.802 436.58C367.713 436.58 366.761 436.783 365.947 437.19C365.133 437.588 364.503 438.156 364.058 438.895C363.613 439.624 363.395 440.481 363.404 441.466C363.395 442.47 363.618 443.346 364.072 444.094C364.536 444.842 365.175 445.424 365.99 445.841C366.804 446.258 367.742 446.466 368.802 446.466Z" fill="white"/>
<path d="M879.572 71.0341V68.1364L892.356 47.9091H894.458V52.3977H893.038L883.379 67.6818V67.9091H900.594V71.0341H879.572ZM893.265 77V70.1534V68.804V47.9091H896.617V77H893.265ZM906.827 77L919.838 51.2614V51.0341H904.838V47.9091H923.474V51.2045L910.52 77H906.827Z" fill="white"/>
<path d="M899.572 457.034V454.136L912.356 433.909H914.458V438.398H913.038L903.379 453.682V453.909H920.594V457.034H899.572ZM913.265 463V456.153V454.804V433.909H916.617V463H913.265ZM926.827 463L939.838 437.261V437.034H924.838V433.909H943.474V437.205L930.52 463H926.827Z" fill="white"/>
<path d="M211.707 433.909V463H208.185V437.602H208.014L200.912 442.318V438.739L208.185 433.909H211.707ZM229.903 463.398C228.028 463.398 226.357 463.076 224.889 462.432C223.431 461.788 222.271 460.893 221.409 459.747C220.557 458.592 220.093 457.252 220.017 455.727H223.597C223.672 456.665 223.994 457.474 224.562 458.156C225.131 458.829 225.874 459.349 226.793 459.719C227.711 460.088 228.729 460.273 229.847 460.273C231.097 460.273 232.205 460.055 233.17 459.619C234.136 459.184 234.894 458.578 235.443 457.801C235.992 457.025 236.267 456.125 236.267 455.102C236.267 454.032 236.002 453.09 235.472 452.276C234.941 451.452 234.165 450.808 233.142 450.344C232.119 449.88 230.869 449.648 229.392 449.648H227.062V446.523H229.392C230.547 446.523 231.561 446.314 232.432 445.898C233.313 445.481 233.999 444.894 234.491 444.136C234.993 443.379 235.244 442.489 235.244 441.466C235.244 440.481 235.027 439.624 234.591 438.895C234.155 438.166 233.54 437.598 232.744 437.19C231.958 436.783 231.03 436.58 229.96 436.58C228.956 436.58 228.009 436.764 227.119 437.134C226.239 437.493 225.519 438.019 224.96 438.71C224.402 439.392 224.098 440.216 224.051 441.182H220.642C220.699 439.657 221.158 438.322 222.02 437.176C222.882 436.021 224.009 435.121 225.401 434.477C226.802 433.833 228.341 433.511 230.017 433.511C231.816 433.511 233.36 433.876 234.648 434.605C235.936 435.325 236.925 436.277 237.616 437.46C238.308 438.644 238.653 439.922 238.653 441.295C238.653 442.934 238.223 444.33 237.361 445.486C236.509 446.641 235.348 447.441 233.881 447.886V448.114C235.718 448.417 237.152 449.198 238.185 450.457C239.217 451.707 239.733 453.256 239.733 455.102C239.733 456.684 239.302 458.104 238.44 459.364C237.588 460.614 236.423 461.598 234.946 462.318C233.469 463.038 231.788 463.398 229.903 463.398Z" fill="white"/>
<path d="M471.961 47.9091V77H468.439V51.6023H468.268L461.166 56.3182V52.7386L468.439 47.9091H471.961ZM489.589 47.5114C490.782 47.5208 491.975 47.7481 493.169 48.1932C494.362 48.6383 495.451 49.3769 496.436 50.4091C497.421 51.4318 498.211 52.8286 498.808 54.5994C499.404 56.3703 499.703 58.5909 499.703 61.2614C499.703 63.8466 499.457 66.143 498.964 68.1506C498.481 70.1487 497.78 71.8343 496.862 73.2074C495.953 74.5805 494.845 75.6222 493.538 76.3324C492.241 77.0426 490.773 77.3977 489.135 77.3977C487.506 77.3977 486.052 77.0758 484.774 76.4318C483.505 75.7784 482.463 74.8741 481.649 73.7188C480.844 72.554 480.328 71.2045 480.1 69.6705H483.566C483.879 71.0057 484.499 72.1089 485.427 72.9801C486.365 73.8419 487.6 74.2727 489.135 74.2727C491.379 74.2727 493.15 73.2926 494.447 71.3324C495.754 69.3722 496.407 66.6023 496.407 63.0227H496.18C495.65 63.8182 495.02 64.5047 494.291 65.0824C493.562 65.66 492.752 66.1051 491.862 66.4176C490.972 66.7301 490.025 66.8864 489.021 66.8864C487.354 66.8864 485.825 66.4744 484.433 65.6506C483.05 64.8172 481.942 63.6761 481.109 62.2273C480.285 60.7689 479.873 59.1023 479.873 57.2273C479.873 55.447 480.271 53.8182 481.066 52.3409C481.871 50.8542 482.998 49.6705 484.447 48.7898C485.905 47.9091 487.619 47.483 489.589 47.5114ZM489.589 50.6364C488.396 50.6364 487.321 50.9347 486.365 51.5312C485.418 52.1184 484.665 52.9138 484.106 53.9176C483.557 54.9119 483.282 56.0152 483.282 57.2273C483.282 58.4394 483.547 59.5426 484.078 60.5369C484.618 61.5218 485.351 62.3078 486.279 62.8949C487.217 63.4725 488.282 63.7614 489.475 63.7614C490.375 63.7614 491.213 63.5862 491.99 63.2358C492.766 62.8759 493.443 62.3883 494.021 61.7727C494.608 61.1477 495.067 60.4422 495.399 59.6562C495.73 58.8608 495.896 58.0322 495.896 57.1705C495.896 56.0341 495.621 54.9687 495.072 53.9744C494.532 52.9801 493.784 52.1752 492.828 51.5597C491.881 50.9441 490.801 50.6364 489.589 50.6364Z" fill="white"/>
<path d="M491.961 433.909V463H488.439V437.602H488.268L481.166 442.318V438.739L488.439 433.909H491.961ZM509.589 433.511C510.782 433.521 511.975 433.748 513.169 434.193C514.362 434.638 515.451 435.377 516.436 436.409C517.421 437.432 518.211 438.829 518.808 440.599C519.404 442.37 519.703 444.591 519.703 447.261C519.703 449.847 519.457 452.143 518.964 454.151C518.481 456.149 517.78 457.834 516.862 459.207C515.953 460.58 514.845 461.622 513.538 462.332C512.241 463.043 510.773 463.398 509.135 463.398C507.506 463.398 506.052 463.076 504.774 462.432C503.505 461.778 502.463 460.874 501.649 459.719C500.844 458.554 500.328 457.205 500.1 455.67H503.566C503.879 457.006 504.499 458.109 505.427 458.98C506.365 459.842 507.6 460.273 509.135 460.273C511.379 460.273 513.15 459.293 514.447 457.332C515.754 455.372 516.407 452.602 516.407 449.023H516.18C515.65 449.818 515.02 450.505 514.291 451.082C513.562 451.66 512.752 452.105 511.862 452.418C510.972 452.73 510.025 452.886 509.021 452.886C507.354 452.886 505.825 452.474 504.433 451.651C503.05 450.817 501.942 449.676 501.109 448.227C500.285 446.769 499.873 445.102 499.873 443.227C499.873 441.447 500.271 439.818 501.066 438.341C501.871 436.854 502.998 435.67 504.447 434.79C505.905 433.909 507.619 433.483 509.589 433.511ZM509.589 436.636C508.396 436.636 507.321 436.935 506.365 437.531C505.418 438.118 504.665 438.914 504.106 439.918C503.557 440.912 503.282 442.015 503.282 443.227C503.282 444.439 503.547 445.543 504.078 446.537C504.618 447.522 505.351 448.308 506.279 448.895C507.217 449.473 508.282 449.761 509.475 449.761C510.375 449.761 511.213 449.586 511.99 449.236C512.766 448.876 513.443 448.388 514.021 447.773C514.608 447.148 515.067 446.442 515.399 445.656C515.73 444.861 515.896 444.032 515.896 443.17C515.896 442.034 515.621 440.969 515.072 439.974C514.532 438.98 513.784 438.175 512.828 437.56C511.881 436.944 510.801 436.636 509.589 436.636Z" fill="white"/>
<path d="M160.219 259V234.273H168.574C170.514 234.273 172.1 234.623 173.331 235.323C174.571 236.015 175.488 236.953 176.084 238.136C176.68 239.32 176.977 240.64 176.977 242.097C176.977 243.554 176.68 244.878 176.084 246.069C175.496 247.26 174.587 248.21 173.355 248.918C172.124 249.619 170.546 249.969 168.622 249.969H162.634V247.312H168.526C169.854 247.312 170.92 247.083 171.725 246.624C172.53 246.165 173.114 245.546 173.476 244.765C173.846 243.976 174.031 243.087 174.031 242.097C174.031 241.107 173.846 240.221 173.476 239.44C173.114 238.66 172.526 238.048 171.713 237.605C170.9 237.154 169.822 236.929 168.477 236.929H163.213V259H160.219ZM181.415 259V240.455H184.264V259H181.415ZM182.863 237.364C182.308 237.364 181.829 237.174 181.427 236.796C181.032 236.418 180.835 235.963 180.835 235.432C180.835 234.901 181.032 234.446 181.427 234.067C181.829 233.689 182.308 233.5 182.863 233.5C183.419 233.5 183.894 233.689 184.288 234.067C184.691 234.446 184.892 234.901 184.892 235.432C184.892 235.963 184.691 236.418 184.288 236.796C183.894 237.174 183.419 237.364 182.863 237.364ZM204.648 240.455L197.79 259H194.892L188.034 240.455H191.125L196.244 255.233H196.438L201.557 240.455H204.648ZM215.279 259.386C213.605 259.386 212.136 258.988 210.872 258.191C209.616 257.394 208.634 256.279 207.926 254.847C207.225 253.414 206.875 251.74 206.875 249.824C206.875 247.892 207.225 246.206 207.926 244.765C208.634 243.324 209.616 242.205 210.872 241.408C212.136 240.612 213.605 240.213 215.279 240.213C216.953 240.213 218.418 240.612 219.674 241.408C220.937 242.205 221.919 243.324 222.62 244.765C223.328 246.206 223.682 247.892 223.682 249.824C223.682 251.74 223.328 253.414 222.62 254.847C221.919 256.279 220.937 257.394 219.674 258.191C218.418 258.988 216.953 259.386 215.279 259.386ZM215.279 256.827C216.551 256.827 217.597 256.501 218.418 255.849C219.239 255.197 219.847 254.339 220.241 253.277C220.636 252.214 220.833 251.063 220.833 249.824C220.833 248.584 220.636 247.429 220.241 246.359C219.847 245.288 219.239 244.423 218.418 243.763C217.597 243.103 216.551 242.773 215.279 242.773C214.007 242.773 212.961 243.103 212.14 243.763C211.319 244.423 210.711 245.288 210.316 246.359C209.922 247.429 209.725 248.584 209.725 249.824C209.725 251.063 209.922 252.214 210.316 253.277C210.711 254.339 211.319 255.197 212.14 255.849C212.961 256.501 214.007 256.827 215.279 256.827ZM236.097 240.455V242.869H226.486V240.455H236.097ZM229.287 236.011H232.137V253.688C232.137 254.492 232.254 255.096 232.487 255.499C232.729 255.893 233.034 256.159 233.405 256.295C233.783 256.424 234.181 256.489 234.6 256.489C234.914 256.489 235.171 256.473 235.373 256.44C235.574 256.4 235.735 256.368 235.856 256.344L236.435 258.903C236.242 258.976 235.972 259.048 235.626 259.121C235.28 259.201 234.841 259.241 234.31 259.241C233.505 259.241 232.716 259.068 231.944 258.722C231.179 258.376 230.543 257.849 230.036 257.141C229.537 256.432 229.287 255.539 229.287 254.46V236.011Z" fill="#727272"/>
<path d="M41.5336 568.455C41.3888 567.231 40.8012 566.281 39.7709 565.605C38.7406 564.929 37.4768 564.591 35.9797 564.591C34.885 564.591 33.9271 564.768 33.1061 565.122C32.2931 565.476 31.6572 565.963 31.1984 566.583C30.7477 567.203 30.5223 567.907 30.5223 568.696C30.5223 569.356 30.6792 569.924 30.9932 570.398C31.3151 570.865 31.7256 571.256 32.2247 571.57C32.7238 571.875 33.247 572.129 33.7943 572.33C34.3416 572.523 34.8447 572.68 35.3035 572.801L37.8149 573.477C38.4588 573.646 39.1752 573.88 39.964 574.178C40.7609 574.475 41.5216 574.882 42.246 575.397C42.9785 575.904 43.5822 576.556 44.0571 577.353C44.532 578.15 44.7694 579.128 44.7694 580.287C44.7694 581.623 44.4193 582.83 43.719 583.909C43.0268 584.988 42.0126 585.845 40.6764 586.481C39.3483 587.117 37.7344 587.435 35.8348 587.435C34.064 587.435 32.5306 587.149 31.2346 586.577C29.9468 586.006 28.9326 585.209 28.192 584.187C27.4595 583.165 27.045 581.977 26.9484 580.625H30.0393C30.1198 581.559 30.4337 582.331 30.9811 582.943C31.5365 583.547 32.2368 583.998 33.0819 584.295C33.9352 584.585 34.8528 584.73 35.8348 584.73C36.9778 584.73 38.0041 584.545 38.9136 584.175C39.8232 583.796 40.5436 583.273 41.0748 582.605C41.6061 581.929 41.8717 581.14 41.8717 580.239C41.8717 579.418 41.6423 578.75 41.1835 578.234C40.7247 577.719 40.121 577.301 39.3724 576.979C38.6238 576.657 37.8149 576.375 36.9456 576.134L33.903 575.264C31.9711 574.709 30.4418 573.916 29.3149 572.886C28.188 571.855 27.6246 570.507 27.6246 568.841C27.6246 567.456 27.9988 566.249 28.7474 565.219C29.5041 564.18 30.5183 563.375 31.79 562.804C33.0699 562.224 34.4986 561.935 36.0763 561.935C37.67 561.935 39.0867 562.22 40.3263 562.792C41.5658 563.355 42.5479 564.128 43.2723 565.11C44.0048 566.092 44.3911 567.207 44.4314 568.455H41.5336ZM49.3062 587V568.455H52.059V571.352H52.3005C52.6869 570.362 53.3107 569.594 54.172 569.046C55.0332 568.491 56.0676 568.213 57.2749 568.213C58.4984 568.213 59.5167 568.491 60.3296 569.046C61.1507 569.594 61.7906 570.362 62.2494 571.352H62.4426C62.9175 570.394 63.6298 569.634 64.5796 569.07C65.5294 568.499 66.6684 568.213 67.9965 568.213C69.6547 568.213 71.011 568.732 72.0654 569.771C73.1199 570.801 73.6471 572.407 73.6471 574.588V587H70.7977V574.588C70.7977 573.22 70.4234 572.242 69.6748 571.654C68.9262 571.067 68.0448 570.773 67.0306 570.773C65.7267 570.773 64.7165 571.167 64.0001 571.956C63.2837 572.737 62.9255 573.727 62.9255 574.926V587H60.0278V574.298C60.0278 573.244 59.6857 572.395 59.0015 571.751C58.3173 571.099 57.4359 570.773 56.3573 570.773C55.6168 570.773 54.9246 570.97 54.2806 571.364C53.6447 571.759 53.1296 572.306 52.7352 573.006C52.3488 573.699 52.1556 574.5 52.1556 575.409V587H49.3062ZM84.3144 587.435C83.1392 587.435 82.0727 587.213 81.1148 586.771C80.1569 586.32 79.3963 585.672 78.8328 584.827C78.2694 583.973 77.9877 582.943 77.9877 581.736C77.9877 580.673 78.1969 579.812 78.6155 579.152C79.0341 578.484 79.5935 577.961 80.2938 577.582C80.9941 577.204 81.7668 576.922 82.6119 576.737C83.4652 576.544 84.3224 576.391 85.1837 576.278C86.3106 576.134 87.2242 576.025 87.9245 575.952C88.6328 575.872 89.1479 575.739 89.4699 575.554C89.7999 575.369 89.9649 575.047 89.9649 574.588V574.491C89.9649 573.3 89.6389 572.375 88.987 571.714C88.343 571.054 87.365 570.724 86.053 570.724C84.6927 570.724 83.6262 571.022 82.8534 571.618C82.0807 572.214 81.5374 572.849 81.2235 573.526L78.5189 572.56C79.0019 571.433 79.6458 570.555 80.4507 569.928C81.2637 569.292 82.1491 568.849 83.107 568.599C84.0729 568.342 85.0227 568.213 85.9564 568.213C86.5521 568.213 87.2362 568.286 88.009 568.43C88.7897 568.567 89.5423 568.853 90.2668 569.288C90.9993 569.722 91.607 570.378 92.0899 571.256C92.5729 572.133 92.8144 573.308 92.8144 574.781V587H89.9649V584.489H89.82C89.6269 584.891 89.3049 585.322 88.8541 585.781C88.4034 586.239 87.8037 586.63 87.0551 586.952C86.3066 587.274 85.393 587.435 84.3144 587.435ZM84.749 584.875C85.8759 584.875 86.8257 584.654 87.5985 584.211C88.3792 583.768 88.9668 583.197 89.3612 582.496C89.7637 581.796 89.9649 581.06 89.9649 580.287V577.679C89.8442 577.824 89.5786 577.957 89.1681 578.077C88.7656 578.19 88.2987 578.291 87.7675 578.379C87.2443 578.46 86.7332 578.532 86.2341 578.597C85.7431 578.653 85.3447 578.701 85.0388 578.741C84.2983 578.838 83.606 578.995 82.9621 579.212C82.3262 579.422 81.811 579.74 81.4166 580.166C81.0303 580.585 80.8371 581.156 80.8371 581.881C80.8371 582.871 81.2033 583.619 81.9358 584.126C82.6763 584.625 83.6141 584.875 84.749 584.875ZM100.865 562.273V587H98.0152V562.273H100.865ZM108.933 562.273V587H106.084V562.273H108.933ZM121.927 587.386C120.141 587.386 118.599 586.992 117.303 586.203C116.015 585.406 115.021 584.295 114.321 582.871C113.629 581.438 113.283 579.772 113.283 577.872C113.283 575.973 113.629 574.298 114.321 572.849C115.021 571.393 115.995 570.258 117.243 569.445C118.498 568.624 119.963 568.213 121.638 568.213C122.604 568.213 123.557 568.374 124.499 568.696C125.441 569.018 126.298 569.541 127.071 570.266C127.844 570.982 128.459 571.932 128.918 573.115C129.377 574.298 129.606 575.755 129.606 577.486V578.693H115.311V576.23H126.709C126.709 575.184 126.499 574.25 126.081 573.429C125.67 572.608 125.083 571.96 124.318 571.485C123.561 571.01 122.668 570.773 121.638 570.773C120.503 570.773 119.521 571.054 118.692 571.618C117.871 572.173 117.239 572.898 116.796 573.791C116.353 574.685 116.132 575.643 116.132 576.665V578.307C116.132 579.707 116.373 580.895 116.856 581.869C117.347 582.835 118.028 583.571 118.897 584.078C119.766 584.577 120.776 584.827 121.927 584.827C122.676 584.827 123.352 584.722 123.956 584.513C124.568 584.295 125.095 583.973 125.538 583.547C125.98 583.112 126.322 582.573 126.564 581.929L129.317 582.702C129.027 583.635 128.54 584.456 127.856 585.165C127.172 585.865 126.326 586.412 125.32 586.807C124.314 587.193 123.183 587.386 121.927 587.386ZM133.941 587V568.455H136.694V571.256H136.887C137.225 570.338 137.837 569.594 138.722 569.022C139.608 568.451 140.606 568.165 141.717 568.165C141.926 568.165 142.187 568.169 142.501 568.177C142.815 568.185 143.053 568.197 143.214 568.213V571.111C143.117 571.087 142.896 571.05 142.55 571.002C142.212 570.946 141.853 570.918 141.475 570.918C140.574 570.918 139.769 571.107 139.06 571.485C138.36 571.855 137.805 572.371 137.394 573.031C136.992 573.683 136.79 574.427 136.79 575.264V587H133.941ZM14.6059 609.455V611.869H4.99512V609.455H14.6059ZM7.79625 605.011H10.6457V622.688C10.6457 623.492 10.7624 624.096 10.9958 624.499C11.2373 624.893 11.5432 625.159 11.9134 625.295C12.2918 625.424 12.6902 625.489 13.1088 625.489C13.4227 625.489 13.6803 625.473 13.8815 625.44C14.0827 625.4 14.2437 625.368 14.3644 625.344L14.944 627.903C14.7508 627.976 14.4811 628.048 14.135 628.121C13.7889 628.201 13.3502 628.241 12.819 628.241C12.0141 628.241 11.2252 628.068 10.4525 627.722C9.68783 627.376 9.05194 626.849 8.54483 626.141C8.04578 625.432 7.79625 624.539 7.79625 623.46V605.011ZM22.14 616.844V628H19.2906V603.273H22.14V612.352H22.3815C22.8161 611.394 23.4681 610.634 24.3374 610.07C25.2148 609.499 26.382 609.213 27.8389 609.213C29.1026 609.213 30.2094 609.467 31.1592 609.974C32.109 610.473 32.8455 611.241 33.3687 612.28C33.8999 613.31 34.1656 614.622 34.1656 616.216V628H31.3161V616.409C31.3161 614.936 30.9338 613.797 30.1691 612.992C29.4125 612.179 28.3621 611.773 27.0178 611.773C26.0841 611.773 25.247 611.97 24.5065 612.364C23.774 612.759 23.1945 613.334 22.7678 614.091C22.3493 614.848 22.14 615.765 22.14 616.844ZM44.8358 628.435C43.6607 628.435 42.5941 628.213 41.6363 627.771C40.6784 627.32 39.9178 626.672 39.3543 625.827C38.7909 624.973 38.5091 623.943 38.5091 622.736C38.5091 621.673 38.7184 620.812 39.137 620.152C39.5555 619.484 40.115 618.961 40.8153 618.582C41.5155 618.204 42.2883 617.922 43.1334 617.737C43.9867 617.544 44.8439 617.391 45.7052 617.278C46.8321 617.134 47.7457 617.025 48.4459 616.952C49.1543 616.872 49.6694 616.739 49.9914 616.554C50.3214 616.369 50.4864 616.047 50.4864 615.588V615.491C50.4864 614.3 50.1604 613.375 49.5084 612.714C48.8645 612.054 47.8865 611.724 46.5745 611.724C45.2142 611.724 44.1476 612.022 43.3749 612.618C42.6022 613.214 42.0589 613.849 41.7449 614.526L39.0404 613.56C39.5233 612.433 40.1673 611.555 40.9722 610.928C41.7852 610.292 42.6706 609.849 43.6285 609.599C44.5944 609.342 45.5442 609.213 46.4779 609.213C47.0735 609.213 47.7577 609.286 48.5305 609.43C49.3112 609.567 50.0638 609.853 50.7883 610.288C51.5207 610.722 52.1285 611.378 52.6114 612.256C53.0944 613.133 53.3358 614.308 53.3358 615.781V628H50.4864V625.489H50.3415C50.1483 625.891 49.8264 626.322 49.3756 626.781C48.9249 627.239 48.3252 627.63 47.5766 627.952C46.828 628.274 45.9144 628.435 44.8358 628.435ZM45.2705 625.875C46.3974 625.875 47.3472 625.654 48.1199 625.211C48.9007 624.768 49.4883 624.197 49.8827 623.496C50.2852 622.796 50.4864 622.06 50.4864 621.287V618.679C50.3657 618.824 50.1001 618.957 49.6895 619.077C49.2871 619.19 48.8202 619.291 48.289 619.379C47.7658 619.46 47.2546 619.532 46.7556 619.597C46.2646 619.653 45.8662 619.701 45.5603 619.741C44.8198 619.838 44.1275 619.995 43.4836 620.212C42.8477 620.422 42.3325 620.74 41.9381 621.166C41.5518 621.585 41.3586 622.156 41.3586 622.881C41.3586 623.871 41.7248 624.619 42.4573 625.126C43.1978 625.625 44.1356 625.875 45.2705 625.875ZM61.3861 616.844V628H58.5367V609.455H61.2895V612.352H61.531C61.9656 611.411 62.6257 610.654 63.5111 610.082C64.3965 609.503 65.5395 609.213 66.9401 609.213C68.1958 609.213 69.2945 609.471 70.2362 609.986C71.178 610.493 71.9105 611.266 72.4337 612.304C72.9569 613.334 73.2185 614.638 73.2185 616.216V628H70.3691V616.409C70.3691 614.952 69.9907 613.817 69.2341 613.004C68.4775 612.183 67.4391 611.773 66.1191 611.773C65.2095 611.773 64.3965 611.97 63.6801 612.364C62.9718 612.759 62.4124 613.334 62.0019 614.091C61.5914 614.848 61.3861 615.765 61.3861 616.844ZM87.9878 634.955V609.455H90.7407V612.401H91.0787C91.288 612.079 91.5778 611.668 91.9481 611.169C92.3264 610.662 92.8657 610.211 93.566 609.817C94.2743 609.414 95.2322 609.213 96.4395 609.213C98.0011 609.213 99.3775 609.603 100.569 610.384C101.76 611.165 102.69 612.272 103.358 613.705C104.026 615.137 104.36 616.828 104.36 618.776C104.36 620.74 104.026 622.442 103.358 623.883C102.69 625.316 101.764 626.426 100.581 627.215C99.3976 627.996 98.0333 628.386 96.4878 628.386C95.2966 628.386 94.3427 628.189 93.6263 627.795C92.9099 627.392 92.3586 626.937 91.9722 626.43C91.5858 625.915 91.288 625.489 91.0787 625.151H90.8373V634.955H87.9878ZM90.789 618.727C90.789 620.128 90.9942 621.363 91.4047 622.434C91.8153 623.496 92.4149 624.33 93.2037 624.933C93.9926 625.529 94.9585 625.827 96.1015 625.827C97.2928 625.827 98.2868 625.513 99.0837 624.885C99.8886 624.249 100.492 623.396 100.895 622.325C101.305 621.247 101.511 620.047 101.511 618.727C101.511 617.423 101.309 616.248 100.907 615.202C100.512 614.147 99.9128 613.314 99.1079 612.702C98.311 612.083 97.3089 611.773 96.1015 611.773C94.9424 611.773 93.9684 612.067 93.1796 612.654C92.3908 613.234 91.7951 614.047 91.3927 615.093C90.9902 616.131 90.789 617.343 90.789 618.727ZM108.707 628V609.455H111.556V628H108.707ZM110.155 606.364C109.6 606.364 109.121 606.174 108.719 605.796C108.324 605.418 108.127 604.963 108.127 604.432C108.127 603.901 108.324 603.446 108.719 603.067C109.121 602.689 109.6 602.5 110.155 602.5C110.711 602.5 111.186 602.689 111.58 603.067C111.983 603.446 112.184 603.901 112.184 604.432C112.184 604.963 111.983 605.418 111.58 605.796C111.186 606.174 110.711 606.364 110.155 606.364ZM131.94 609.455L125.082 628H122.184L115.326 609.455H118.417L123.536 624.233H123.729L128.849 609.455H131.94ZM142.571 628.386C140.897 628.386 139.428 627.988 138.164 627.191C136.908 626.394 135.926 625.279 135.218 623.847C134.517 622.414 134.167 620.74 134.167 618.824C134.167 616.892 134.517 615.206 135.218 613.765C135.926 612.324 136.908 611.205 138.164 610.408C139.428 609.612 140.897 609.213 142.571 609.213C144.245 609.213 145.71 609.612 146.966 610.408C148.229 611.205 149.211 612.324 149.912 613.765C150.62 615.206 150.974 616.892 150.974 618.824C150.974 620.74 150.62 622.414 149.912 623.847C149.211 625.279 148.229 626.394 146.966 627.191C145.71 627.988 144.245 628.386 142.571 628.386ZM142.571 625.827C143.843 625.827 144.889 625.501 145.71 624.849C146.531 624.197 147.139 623.339 147.533 622.277C147.928 621.214 148.125 620.063 148.125 618.824C148.125 617.584 147.928 616.429 147.533 615.359C147.139 614.288 146.531 613.423 145.71 612.763C144.889 612.103 143.843 611.773 142.571 611.773C141.299 611.773 140.253 612.103 139.432 612.763C138.611 613.423 138.003 614.288 137.608 615.359C137.214 616.429 137.017 617.584 137.017 618.824C137.017 620.063 137.214 621.214 137.608 622.277C138.003 623.339 138.611 624.197 139.432 624.849C140.253 625.501 141.299 625.827 142.571 625.827ZM163.389 609.455V611.869H153.778V609.455H163.389ZM156.579 605.011H159.429V622.688C159.429 623.492 159.546 624.096 159.779 624.499C160.021 624.893 160.326 625.159 160.697 625.295C161.075 625.424 161.473 625.489 161.892 625.489C162.206 625.489 162.463 625.473 162.665 625.44C162.866 625.4 163.027 625.368 163.148 625.344L163.727 627.903C163.534 627.976 163.264 628.048 162.918 628.121C162.572 628.201 162.133 628.241 161.602 628.241C160.797 628.241 160.008 628.068 159.236 627.722C158.471 627.376 157.835 626.849 157.328 626.141C156.829 625.432 156.579 624.539 156.579 623.46V605.011Z" fill="#727272"/>
<path d="M196.939 211.061C197.525 211.646 198.475 211.646 199.061 211.061L208.607 201.515C209.192 200.929 209.192 199.979 208.607 199.393C208.021 198.808 207.071 198.808 206.485 199.393L198 207.879L189.515 199.393C188.929 198.808 187.979 198.808 187.393 199.393C186.808 199.979 186.808 200.929 187.393 201.515L196.939 211.061ZM198 210L199.5 210L199.5 167L198 167L196.5 167L196.5 210L198 210Z" fill="#727272"/>
</svg>
