<svg width="882" height="579" viewBox="0 0 882 579" fill="none" xmlns="http://www.w3.org/2000/svg">
<rect x="383" y="2" width="119" height="120" fill="#2D2D2D"/>
<rect x="382" y="390" width="119" height="120" rx="27" fill="#2D2D2D"/>
<rect x="22" y="1" width="839" height="120" rx="26" stroke="#DBDBDB" stroke-width="2"/>
<rect x="1" y="390" width="358" height="120" rx="26" stroke="#009966" stroke-width="2"/>
<rect x="523" y="390" width="358" height="120" rx="26" stroke="#E27C00" stroke-width="2"/>
<rect x="382" y="390" width="118" height="120" rx="26" stroke="#DBDBDB" stroke-width="2"/>
<line x1="142" y1="-4.37114e-08" x2="142" y2="122" stroke="#DBDBDB" stroke-width="2"/>
<line x1="121" y1="389" x2="121" y2="511" stroke="#009966" stroke-width="2"/>
<line x1="643" y1="389" x2="643" y2="511" stroke="#E27C00" stroke-width="2"/>
<line x1="262" y1="-4.37114e-08" x2="262" y2="122" stroke="#DBDBDB" stroke-width="2"/>
<line x1="241" y1="389" x2="241" y2="511" stroke="#009966" stroke-width="2"/>
<line x1="763" y1="389" x2="763" y2="511" stroke="#E27C00" stroke-width="2"/>
<line x1="383" y1="-4.37114e-08" x2="383" y2="122" stroke="#DBDBDB" stroke-width="2"/>
<line x1="503" y1="-4.37114e-08" x2="503" y2="122" stroke="#DBDBDB" stroke-width="2"/>
<line x1="623" y1="-4.37114e-08" x2="623" y2="122" stroke="#DBDBDB" stroke-width="2"/>
<line x1="743" y1="-4.37114e-08" x2="743" y2="122" stroke="#DBDBDB" stroke-width="2"/>
<path d="M59.9762 75V72.4432L69.5785 61.9318C70.7054 60.7008 71.6334 59.6307 72.3626 58.7216C73.0917 57.803 73.6315 56.9413 73.9819 56.1364C74.3417 55.322 74.5217 54.4697 74.5217 53.5795C74.5217 52.5568 74.2755 51.6714 73.783 50.9233C73.3001 50.1752 72.6372 49.5975 71.7944 49.1903C70.9516 48.7831 70.0046 48.5795 68.9535 48.5795C67.8361 48.5795 66.8607 48.8116 66.0273 49.2756C65.2035 49.7301 64.5643 50.3693 64.1097 51.1932C63.6647 52.017 63.4421 52.983 63.4421 54.0909H60.0898C60.0898 52.3864 60.4828 50.8902 61.2688 49.6023C62.0548 48.3144 63.1249 47.3106 64.479 46.5909C65.8427 45.8712 67.372 45.5114 69.0671 45.5114C70.7717 45.5114 72.2821 45.8712 73.5984 46.5909C74.9147 47.3106 75.9469 48.2812 76.695 49.5028C77.4431 50.7244 77.8171 52.0833 77.8171 53.5795C77.8171 54.6496 77.623 55.696 77.2347 56.7188C76.8559 57.732 76.1931 58.8636 75.2461 60.1136C74.3086 61.3542 73.0065 62.8693 71.3398 64.6591L64.8058 71.6477V71.875H78.3285V75H59.9762ZM85.104 75L98.1154 49.2614V49.0341H83.1154V45.9091H101.752V49.2045L88.7972 75H85.104Z" fill="white"/>
<path d="M51.3324 434.909V464H47.8097V438.602H47.6392L40.5369 443.318V439.739L47.8097 434.909H51.3324ZM59.6989 464V461.443L69.3011 450.932C70.428 449.701 71.3561 448.631 72.0852 447.722C72.8144 446.803 73.3542 445.941 73.7045 445.136C74.0644 444.322 74.2443 443.47 74.2443 442.58C74.2443 441.557 73.9981 440.671 73.5057 439.923C73.0227 439.175 72.3598 438.598 71.517 438.19C70.6742 437.783 69.7273 437.58 68.6761 437.58C67.5587 437.58 66.5833 437.812 65.75 438.276C64.9261 438.73 64.2869 439.369 63.8324 440.193C63.3873 441.017 63.1648 441.983 63.1648 443.091H59.8125C59.8125 441.386 60.2055 439.89 60.9915 438.602C61.7775 437.314 62.8475 436.311 64.2017 435.591C65.5653 434.871 67.0947 434.511 68.7898 434.511C70.4943 434.511 72.0047 434.871 73.321 435.591C74.6373 436.311 75.6695 437.281 76.4176 438.503C77.1657 439.724 77.5398 441.083 77.5398 442.58C77.5398 443.65 77.3456 444.696 76.9574 445.719C76.5786 446.732 75.9157 447.864 74.9688 449.114C74.0312 450.354 72.7292 451.869 71.0625 453.659L64.5284 460.648V460.875H78.0511V464H59.6989Z" fill="white"/>
<path d="M560.976 464V461.443L570.578 450.932C571.705 449.701 572.633 448.631 573.363 447.722C574.092 446.803 574.632 445.941 574.982 445.136C575.342 444.322 575.522 443.47 575.522 442.58C575.522 441.557 575.275 440.671 574.783 439.923C574.3 439.175 573.637 438.598 572.794 438.19C571.952 437.783 571.005 437.58 569.953 437.58C568.836 437.58 567.861 437.812 567.027 438.276C566.203 438.73 565.564 439.369 565.11 440.193C564.665 441.017 564.442 441.983 564.442 443.091H561.09C561.09 441.386 561.483 439.89 562.269 438.602C563.055 437.314 564.125 436.311 565.479 435.591C566.843 434.871 568.372 434.511 570.067 434.511C571.772 434.511 573.282 434.871 574.598 435.591C575.915 436.311 576.947 437.281 577.695 438.503C578.443 439.724 578.817 441.083 578.817 442.58C578.817 443.65 578.623 444.696 578.235 445.719C577.856 446.732 577.193 447.864 576.246 449.114C575.309 450.354 574.007 451.869 572.34 453.659L565.806 460.648V460.875H579.328V464H560.976ZM586.104 464L599.115 438.261V438.034H584.115V434.909H602.752V438.205L589.797 464H586.104Z" fill="white"/>
<path d="M188.497 75.3977C186.622 75.3977 184.951 75.0758 183.483 74.4318C182.025 73.7879 180.865 72.893 180.003 71.7472C179.151 70.5919 178.687 69.2519 178.611 67.7273H182.19C182.266 68.6648 182.588 69.4744 183.156 70.1562C183.724 70.8286 184.468 71.3494 185.386 71.7188C186.305 72.0881 187.323 72.2727 188.44 72.2727C189.69 72.2727 190.798 72.0549 191.764 71.6193C192.73 71.1837 193.488 70.5777 194.037 69.8011C194.586 69.0246 194.861 68.125 194.861 67.1023C194.861 66.0322 194.596 65.09 194.065 64.2756C193.535 63.4517 192.759 62.8078 191.736 62.3438C190.713 61.8797 189.463 61.6477 187.986 61.6477H185.656V58.5227H187.986C189.141 58.5227 190.154 58.3144 191.026 57.8977C191.906 57.4811 192.593 56.8939 193.085 56.1364C193.587 55.3788 193.838 54.4886 193.838 53.4659C193.838 52.4811 193.62 51.6241 193.185 50.8949C192.749 50.1657 192.134 49.5975 191.338 49.1903C190.552 48.7831 189.624 48.5795 188.554 48.5795C187.55 48.5795 186.603 48.7642 185.713 49.1335C184.832 49.4934 184.113 50.0189 183.554 50.7102C182.995 51.392 182.692 52.2159 182.645 53.1818H179.236C179.293 51.6572 179.752 50.322 180.614 49.1761C181.475 48.0208 182.602 47.1212 183.994 46.4773C185.396 45.8333 186.935 45.5114 188.611 45.5114C190.41 45.5114 191.954 45.8759 193.241 46.6051C194.529 47.3248 195.519 48.2765 196.21 49.4602C196.902 50.6439 197.247 51.9223 197.247 53.2955C197.247 54.9337 196.816 56.3305 195.955 57.4858C195.102 58.6411 193.942 59.4413 192.474 59.8864V60.1136C194.312 60.4167 195.746 61.1979 196.778 62.4574C197.811 63.7074 198.327 65.2557 198.327 67.1023C198.327 68.6837 197.896 70.1042 197.034 71.3636C196.182 72.6136 195.017 73.5985 193.54 74.3182C192.063 75.0379 190.382 75.3977 188.497 75.3977ZM204.136 75V72.4432L213.739 61.9318C214.866 60.7008 215.794 59.6307 216.523 58.7216C217.252 57.803 217.792 56.9413 218.142 56.1364C218.502 55.322 218.682 54.4697 218.682 53.5795C218.682 52.5568 218.436 51.6714 217.943 50.9233C217.46 50.1752 216.797 49.5975 215.955 49.1903C215.112 48.7831 214.165 48.5795 213.114 48.5795C211.996 48.5795 211.021 48.8116 210.188 49.2756C209.364 49.7301 208.724 50.3693 208.27 51.1932C207.825 52.017 207.602 52.983 207.602 54.0909H204.25C204.25 52.3864 204.643 50.8902 205.429 49.6023C206.215 48.3144 207.285 47.3106 208.639 46.5909C210.003 45.8712 211.532 45.5114 213.227 45.5114C214.932 45.5114 216.442 45.8712 217.759 46.5909C219.075 47.3106 220.107 48.2812 220.855 49.5028C221.603 50.7244 221.977 52.0833 221.977 53.5795C221.977 54.6496 221.783 55.696 221.395 56.7188C221.016 57.732 220.353 58.8636 219.406 60.1136C218.469 61.3542 217.167 62.8693 215.5 64.6591L208.966 71.6477V71.875H222.489V75H204.136Z" fill="white"/>
<path d="M171.118 434.909V464H167.595V438.602H167.424L160.322 443.318V439.739L167.595 434.909H171.118ZM188.802 464.398C186.851 464.398 185.128 464.052 183.632 463.361C182.145 462.66 180.985 461.699 180.152 460.477C179.318 459.246 178.906 457.845 178.916 456.273C178.906 455.042 179.148 453.905 179.64 452.864C180.133 451.812 180.805 450.937 181.657 450.236C182.519 449.526 183.48 449.076 184.541 448.886V448.716C183.149 448.356 182.041 447.575 181.217 446.372C180.393 445.16 179.986 443.782 179.995 442.239C179.986 440.761 180.36 439.44 181.118 438.276C181.875 437.111 182.917 436.192 184.243 435.52C185.578 434.848 187.098 434.511 188.802 434.511C190.488 434.511 191.993 434.848 193.319 435.52C194.645 436.192 195.687 437.111 196.444 438.276C197.211 439.44 197.6 440.761 197.609 442.239C197.6 443.782 197.178 445.16 196.345 446.372C195.521 447.575 194.427 448.356 193.064 448.716V448.886C194.115 449.076 195.062 449.526 195.904 450.236C196.747 450.937 197.42 451.812 197.922 452.864C198.423 453.905 198.679 455.042 198.689 456.273C198.679 457.845 198.253 459.246 197.41 460.477C196.577 461.699 195.417 462.66 193.93 463.361C192.453 464.052 190.743 464.398 188.802 464.398ZM188.802 461.273C190.118 461.273 191.255 461.06 192.211 460.634C193.168 460.207 193.906 459.606 194.427 458.83C194.948 458.053 195.213 457.144 195.223 456.102C195.213 455.004 194.929 454.033 194.37 453.19C193.812 452.348 193.049 451.685 192.083 451.202C191.127 450.719 190.033 450.477 188.802 450.477C187.562 450.477 186.454 450.719 185.478 451.202C184.512 451.685 183.75 452.348 183.191 453.19C182.642 454.033 182.372 455.004 182.382 456.102C182.372 457.144 182.623 458.053 183.135 458.83C183.655 459.606 184.399 460.207 185.365 460.634C186.331 461.06 187.476 461.273 188.802 461.273ZM188.802 447.466C189.844 447.466 190.767 447.258 191.572 446.841C192.386 446.424 193.026 445.842 193.49 445.094C193.954 444.346 194.19 443.47 194.2 442.466C194.19 441.481 193.958 440.624 193.504 439.895C193.049 439.156 192.42 438.588 191.615 438.19C190.81 437.783 189.872 437.58 188.802 437.58C187.713 437.58 186.761 437.783 185.947 438.19C185.133 438.588 184.503 439.156 184.058 439.895C183.613 440.624 183.395 441.481 183.404 442.466C183.395 443.47 183.618 444.346 184.072 445.094C184.536 445.842 185.175 446.424 185.99 446.841C186.804 447.258 187.742 447.466 188.802 447.466Z" fill="white"/>
<path d="M689.497 464.398C687.622 464.398 685.951 464.076 684.483 463.432C683.025 462.788 681.865 461.893 681.003 460.747C680.151 459.592 679.687 458.252 679.611 456.727H683.19C683.266 457.665 683.588 458.474 684.156 459.156C684.724 459.829 685.468 460.349 686.386 460.719C687.305 461.088 688.323 461.273 689.44 461.273C690.69 461.273 691.798 461.055 692.764 460.619C693.73 460.184 694.488 459.578 695.037 458.801C695.586 458.025 695.861 457.125 695.861 456.102C695.861 455.032 695.596 454.09 695.065 453.276C694.535 452.452 693.759 451.808 692.736 451.344C691.713 450.88 690.463 450.648 688.986 450.648H686.656V447.523H688.986C690.141 447.523 691.154 447.314 692.026 446.898C692.906 446.481 693.593 445.894 694.085 445.136C694.587 444.379 694.838 443.489 694.838 442.466C694.838 441.481 694.62 440.624 694.185 439.895C693.749 439.166 693.134 438.598 692.338 438.19C691.552 437.783 690.624 437.58 689.554 437.58C688.55 437.58 687.603 437.764 686.713 438.134C685.832 438.493 685.113 439.019 684.554 439.71C683.995 440.392 683.692 441.216 683.645 442.182H680.236C680.293 440.657 680.752 439.322 681.614 438.176C682.475 437.021 683.602 436.121 684.994 435.477C686.396 434.833 687.935 434.511 689.611 434.511C691.41 434.511 692.954 434.876 694.241 435.605C695.529 436.325 696.519 437.277 697.21 438.46C697.902 439.644 698.247 440.922 698.247 442.295C698.247 443.934 697.816 445.33 696.955 446.486C696.102 447.641 694.942 448.441 693.474 448.886V449.114C695.312 449.417 696.746 450.198 697.778 451.457C698.811 452.707 699.327 454.256 699.327 456.102C699.327 457.684 698.896 459.104 698.034 460.364C697.182 461.614 696.017 462.598 694.54 463.318C693.063 464.038 691.382 464.398 689.497 464.398ZM705.136 464V461.443L714.739 450.932C715.866 449.701 716.794 448.631 717.523 447.722C718.252 446.803 718.792 445.941 719.142 445.136C719.502 444.322 719.682 443.47 719.682 442.58C719.682 441.557 719.436 440.671 718.943 439.923C718.46 439.175 717.797 438.598 716.955 438.19C716.112 437.783 715.165 437.58 714.114 437.58C712.996 437.58 712.021 437.812 711.188 438.276C710.364 438.73 709.724 439.369 709.27 440.193C708.825 441.017 708.602 441.983 708.602 443.091H705.25C705.25 441.386 705.643 439.89 706.429 438.602C707.215 437.314 708.285 436.311 709.639 435.591C711.003 434.871 712.532 434.511 714.227 434.511C715.932 434.511 717.442 434.871 718.759 435.591C720.075 436.311 721.107 437.281 721.855 438.503C722.603 439.724 722.977 441.083 722.977 442.58C722.977 443.65 722.783 444.696 722.395 445.719C722.016 446.732 721.353 447.864 720.406 449.114C719.469 450.354 718.167 451.869 716.5 453.659L709.966 460.648V460.875H723.489V464H705.136Z" fill="white"/>
<path d="M298.572 69.0341V66.1364L311.356 45.9091H313.458V50.3977H312.038L302.379 65.6818V65.9091H319.594V69.0341H298.572ZM312.265 75V68.1534V66.804V45.9091H315.617V75H312.265ZM325.827 75L338.838 49.2614V49.0341H323.838V45.9091H342.474V49.2045L329.52 75H325.827Z" fill="white"/>
<path d="M290.707 434.909V464H287.185V438.602H287.014L279.912 443.318V439.739L287.185 434.909H290.707ZM308.903 464.398C307.028 464.398 305.357 464.076 303.889 463.432C302.431 462.788 301.271 461.893 300.409 460.747C299.557 459.592 299.093 458.252 299.017 456.727H302.597C302.672 457.665 302.994 458.474 303.562 459.156C304.131 459.829 304.874 460.349 305.793 460.719C306.711 461.088 307.729 461.273 308.847 461.273C310.097 461.273 311.205 461.055 312.17 460.619C313.136 460.184 313.894 459.578 314.443 458.801C314.992 458.025 315.267 457.125 315.267 456.102C315.267 455.032 315.002 454.09 314.472 453.276C313.941 452.452 313.165 451.808 312.142 451.344C311.119 450.88 309.869 450.648 308.392 450.648H306.062V447.523H308.392C309.547 447.523 310.561 447.314 311.432 446.898C312.313 446.481 312.999 445.894 313.491 445.136C313.993 444.379 314.244 443.489 314.244 442.466C314.244 441.481 314.027 440.624 313.591 439.895C313.155 439.166 312.54 438.598 311.744 438.19C310.958 437.783 310.03 437.58 308.96 437.58C307.956 437.58 307.009 437.764 306.119 438.134C305.239 438.493 304.519 439.019 303.96 439.71C303.402 440.392 303.098 441.216 303.051 442.182H299.642C299.699 440.657 300.158 439.322 301.02 438.176C301.882 437.021 303.009 436.121 304.401 435.477C305.802 434.833 307.341 434.511 309.017 434.511C310.816 434.511 312.36 434.876 313.648 435.605C314.936 436.325 315.925 437.277 316.616 438.46C317.308 439.644 317.653 440.922 317.653 442.295C317.653 443.934 317.223 445.33 316.361 446.486C315.509 447.641 314.348 448.441 312.881 448.886V449.114C314.718 449.417 316.152 450.198 317.185 451.457C318.217 452.707 318.733 454.256 318.733 456.102C318.733 457.684 318.302 459.104 317.44 460.364C316.588 461.614 315.423 462.598 313.946 463.318C312.469 464.038 310.788 464.398 308.903 464.398Z" fill="white"/>
<path d="M799.572 458.034V455.136L812.356 434.909H814.458V439.398H813.038L803.379 454.682V454.909H820.594V458.034H799.572ZM813.265 464V457.153V455.804V434.909H816.617V464H813.265ZM826.827 464L839.838 438.261V438.034H824.838V434.909H843.474V438.205L830.52 464H826.827Z" fill="white"/>
<path d="M431.961 434.909V464H428.439V438.602H428.268L421.166 443.318V439.739L428.439 434.909H431.961ZM449.589 434.511C450.782 434.521 451.975 434.748 453.169 435.193C454.362 435.638 455.451 436.377 456.436 437.409C457.421 438.432 458.211 439.829 458.808 441.599C459.404 443.37 459.703 445.591 459.703 448.261C459.703 450.847 459.457 453.143 458.964 455.151C458.481 457.149 457.78 458.834 456.862 460.207C455.953 461.58 454.845 462.622 453.538 463.332C452.241 464.043 450.773 464.398 449.135 464.398C447.506 464.398 446.052 464.076 444.774 463.432C443.505 462.778 442.463 461.874 441.649 460.719C440.844 459.554 440.328 458.205 440.1 456.67H443.566C443.879 458.006 444.499 459.109 445.427 459.98C446.365 460.842 447.6 461.273 449.135 461.273C451.379 461.273 453.15 460.293 454.447 458.332C455.754 456.372 456.407 453.602 456.407 450.023H456.18C455.65 450.818 455.02 451.505 454.291 452.082C453.562 452.66 452.752 453.105 451.862 453.418C450.972 453.73 450.025 453.886 449.021 453.886C447.354 453.886 445.825 453.474 444.433 452.651C443.05 451.817 441.942 450.676 441.109 449.227C440.285 447.769 439.873 446.102 439.873 444.227C439.873 442.447 440.271 440.818 441.066 439.341C441.871 437.854 442.998 436.67 444.447 435.79C445.905 434.909 447.619 434.483 449.589 434.511ZM449.589 437.636C448.396 437.636 447.321 437.935 446.365 438.531C445.418 439.118 444.665 439.914 444.106 440.918C443.557 441.912 443.282 443.015 443.282 444.227C443.282 445.439 443.547 446.543 444.078 447.537C444.618 448.522 445.351 449.308 446.279 449.895C447.217 450.473 448.282 450.761 449.475 450.761C450.375 450.761 451.213 450.586 451.99 450.236C452.766 449.876 453.443 449.388 454.021 448.773C454.608 448.148 455.067 447.442 455.399 446.656C455.73 445.861 455.896 445.032 455.896 444.17C455.896 443.034 455.621 441.969 455.072 440.974C454.532 439.98 453.784 439.175 452.828 438.56C451.881 437.944 450.801 437.636 449.589 437.636Z" fill="white"/>
<path d="M406.219 238V213.273H414.574C416.514 213.273 418.1 213.623 419.331 214.323C420.571 215.015 421.488 215.953 422.084 217.136C422.68 218.32 422.977 219.64 422.977 221.097C422.977 222.554 422.68 223.878 422.084 225.069C421.496 226.26 420.587 227.21 419.355 227.918C418.124 228.619 416.546 228.969 414.622 228.969H408.634V226.312H414.526C415.854 226.312 416.92 226.083 417.725 225.624C418.53 225.165 419.114 224.546 419.476 223.765C419.846 222.976 420.031 222.087 420.031 221.097C420.031 220.107 419.846 219.221 419.476 218.44C419.114 217.66 418.526 217.048 417.713 216.605C416.9 216.154 415.822 215.929 414.477 215.929H409.213V238H406.219ZM427.415 238V219.455H430.264V238H427.415ZM428.863 216.364C428.308 216.364 427.829 216.174 427.427 215.796C427.032 215.418 426.835 214.963 426.835 214.432C426.835 213.901 427.032 213.446 427.427 213.067C427.829 212.689 428.308 212.5 428.863 212.5C429.419 212.5 429.894 212.689 430.288 213.067C430.691 213.446 430.892 213.901 430.892 214.432C430.892 214.963 430.691 215.418 430.288 215.796C429.894 216.174 429.419 216.364 428.863 216.364ZM450.648 219.455L443.79 238H440.892L434.034 219.455H437.125L442.244 234.233H442.438L447.557 219.455H450.648ZM461.279 238.386C459.605 238.386 458.136 237.988 456.872 237.191C455.616 236.394 454.634 235.279 453.926 233.847C453.225 232.414 452.875 230.74 452.875 228.824C452.875 226.892 453.225 225.206 453.926 223.765C454.634 222.324 455.616 221.205 456.872 220.408C458.136 219.612 459.605 219.213 461.279 219.213C462.953 219.213 464.418 219.612 465.674 220.408C466.937 221.205 467.919 222.324 468.62 223.765C469.328 225.206 469.682 226.892 469.682 228.824C469.682 230.74 469.328 232.414 468.62 233.847C467.919 235.279 466.937 236.394 465.674 237.191C464.418 237.988 462.953 238.386 461.279 238.386ZM461.279 235.827C462.551 235.827 463.597 235.501 464.418 234.849C465.239 234.197 465.847 233.339 466.241 232.277C466.636 231.214 466.833 230.063 466.833 228.824C466.833 227.584 466.636 226.429 466.241 225.359C465.847 224.288 465.239 223.423 464.418 222.763C463.597 222.103 462.551 221.773 461.279 221.773C460.007 221.773 458.961 222.103 458.14 222.763C457.319 223.423 456.711 224.288 456.316 225.359C455.922 226.429 455.725 227.584 455.725 228.824C455.725 230.063 455.922 231.214 456.316 232.277C456.711 233.339 457.319 234.197 458.14 234.849C458.961 235.501 460.007 235.827 461.279 235.827ZM482.097 219.455V221.869H472.486V219.455H482.097ZM475.287 215.011H478.137V232.688C478.137 233.492 478.254 234.096 478.487 234.499C478.729 234.893 479.034 235.159 479.405 235.295C479.783 235.424 480.181 235.489 480.6 235.489C480.914 235.489 481.171 235.473 481.373 235.44C481.574 235.4 481.735 235.368 481.856 235.344L482.435 237.903C482.242 237.976 481.972 238.048 481.626 238.121C481.28 238.201 480.841 238.241 480.31 238.241C479.505 238.241 478.716 238.068 477.944 237.722C477.179 237.376 476.543 236.849 476.036 236.141C475.537 235.432 475.287 234.539 475.287 233.46V215.011Z" fill="#727272"/>
<path d="M50.685 552.455C50.5401 551.231 49.9525 550.281 48.9222 549.605C47.8919 548.929 46.6282 548.591 45.131 548.591C44.0363 548.591 43.0785 548.768 42.2575 549.122C41.4445 549.476 40.8086 549.963 40.3498 550.583C39.899 551.203 39.6737 551.907 39.6737 552.696C39.6737 553.356 39.8306 553.924 40.1445 554.398C40.4665 554.865 40.877 555.256 41.3761 555.57C41.8751 555.875 42.3983 556.129 42.9457 556.33C43.493 556.523 43.9961 556.68 44.4549 556.801L46.9663 557.477C47.6102 557.646 48.3266 557.88 49.1154 558.178C49.9123 558.475 50.6729 558.882 51.3974 559.397C52.1299 559.904 52.7335 560.556 53.2085 561.353C53.6834 562.15 53.9208 563.128 53.9208 564.287C53.9208 565.623 53.5707 566.83 52.8704 567.909C52.1781 568.988 51.1639 569.845 49.8278 570.481C48.4996 571.117 46.8858 571.435 44.9862 571.435C43.2153 571.435 41.6819 571.149 40.386 570.577C39.0981 570.006 38.0839 569.209 37.3434 568.187C36.6109 567.165 36.1964 565.977 36.0998 564.625H39.1907C39.2712 565.559 39.5851 566.331 40.1325 566.943C40.6879 567.547 41.3881 567.998 42.2333 568.295C43.0865 568.585 44.0041 568.73 44.9862 568.73C46.1291 568.73 47.1554 568.545 48.065 568.175C48.9746 567.796 49.695 567.273 50.2262 566.605C50.7575 565.929 51.0231 565.14 51.0231 564.239C51.0231 563.418 50.7937 562.75 50.3349 562.234C49.8761 561.719 49.2724 561.301 48.5238 560.979C47.7752 560.657 46.9663 560.375 46.0969 560.134L43.0543 559.264C41.1225 558.709 39.5932 557.916 38.4663 556.886C37.3394 555.855 36.7759 554.507 36.7759 552.841C36.7759 551.456 37.1502 550.249 37.8988 549.219C38.6554 548.18 39.6696 547.375 40.9414 546.804C42.2212 546.224 43.65 545.935 45.2276 545.935C46.8214 545.935 48.238 546.22 49.4776 546.792C50.7172 547.355 51.6992 548.128 52.4237 549.11C53.1561 550.092 53.5425 551.207 53.5827 552.455H50.685ZM58.4576 571V552.455H61.2104V555.352H61.4519C61.8382 554.362 62.4621 553.594 63.3233 553.046C64.1846 552.491 65.2189 552.213 66.4263 552.213C67.6498 552.213 68.668 552.491 69.481 553.046C70.302 553.594 70.9419 554.362 71.4007 555.352H71.5939C72.0688 554.394 72.7812 553.634 73.731 553.07C74.6808 552.499 75.8198 552.213 77.1479 552.213C78.806 552.213 80.1623 552.732 81.2168 553.771C82.2712 554.801 82.7985 556.407 82.7985 558.588V571H79.949V558.588C79.949 557.22 79.5748 556.242 78.8262 555.654C78.0776 555.067 77.1962 554.773 76.182 554.773C74.878 554.773 73.8678 555.167 73.1515 555.956C72.4351 556.737 72.0769 557.727 72.0769 558.926V571H69.1792V558.298C69.1792 557.244 68.8371 556.395 68.1529 555.751C67.4687 555.099 66.5873 554.773 65.5087 554.773C64.7682 554.773 64.0759 554.97 63.432 555.364C62.7961 555.759 62.281 556.306 61.8865 557.006C61.5002 557.699 61.307 558.5 61.307 559.409V571H58.4576ZM93.4657 571.435C92.2905 571.435 91.224 571.213 90.2662 570.771C89.3083 570.32 88.5476 569.672 87.9842 568.827C87.4208 567.973 87.139 566.943 87.139 565.736C87.139 564.673 87.3483 563.812 87.7669 563.152C88.1854 562.484 88.7449 561.961 89.4451 561.582C90.1454 561.204 90.9181 560.922 91.7633 560.737C92.6165 560.544 93.4738 560.391 94.335 560.278C95.4619 560.134 96.3755 560.025 97.0758 559.952C97.7842 559.872 98.2993 559.739 98.6213 559.554C98.9513 559.369 99.1163 559.047 99.1163 558.588V558.491C99.1163 557.3 98.7903 556.375 98.1383 555.714C97.4944 555.054 96.5164 554.724 95.2044 554.724C93.844 554.724 92.7775 555.022 92.0048 555.618C91.2321 556.214 90.6887 556.849 90.3748 557.526L87.6703 556.56C88.1532 555.433 88.7972 554.555 89.6021 553.928C90.4151 553.292 91.3005 552.849 92.2583 552.599C93.2243 552.342 94.1741 552.213 95.1078 552.213C95.7034 552.213 96.3876 552.286 97.1603 552.43C97.9411 552.567 98.6937 552.853 99.4181 553.288C100.151 553.722 100.758 554.378 101.241 555.256C101.724 556.133 101.966 557.308 101.966 558.781V571H99.1163V568.489H98.9714C98.7782 568.891 98.4563 569.322 98.0055 569.781C97.5547 570.239 96.9551 570.63 96.2065 570.952C95.4579 571.274 94.5443 571.435 93.4657 571.435ZM93.9004 568.875C95.0273 568.875 95.9771 568.654 96.7498 568.211C97.5306 567.768 98.1182 567.197 98.5126 566.496C98.9151 565.796 99.1163 565.06 99.1163 564.287V561.679C98.9956 561.824 98.7299 561.957 98.3194 562.077C97.917 562.19 97.4501 562.291 96.9189 562.379C96.3957 562.46 95.8845 562.532 95.3855 562.597C94.8945 562.653 94.496 562.701 94.1902 562.741C93.4496 562.838 92.7574 562.995 92.1135 563.212C91.4776 563.422 90.9624 563.74 90.568 564.166C90.1816 564.585 89.9885 565.156 89.9885 565.881C89.9885 566.871 90.3547 567.619 91.0872 568.126C91.8277 568.625 92.7654 568.875 93.9004 568.875ZM110.016 546.273V571H107.167V546.273H110.016ZM118.084 546.273V571H115.235V546.273H118.084ZM131.079 571.386C129.292 571.386 127.75 570.992 126.455 570.203C125.167 569.406 124.173 568.295 123.472 566.871C122.78 565.438 122.434 563.772 122.434 561.872C122.434 559.973 122.78 558.298 123.472 556.849C124.173 555.393 125.147 554.258 126.394 553.445C127.65 552.624 129.115 552.213 130.789 552.213C131.755 552.213 132.709 552.374 133.651 552.696C134.592 553.018 135.45 553.541 136.222 554.266C136.995 554.982 137.611 555.932 138.07 557.115C138.528 558.298 138.758 559.755 138.758 561.486V562.693H124.462V560.23H135.86C135.86 559.184 135.651 558.25 135.232 557.429C134.822 556.608 134.234 555.96 133.469 555.485C132.713 555.01 131.819 554.773 130.789 554.773C129.654 554.773 128.672 555.054 127.843 555.618C127.022 556.173 126.39 556.898 125.947 557.791C125.505 558.685 125.283 559.643 125.283 560.665V562.307C125.283 563.707 125.525 564.895 126.008 565.869C126.499 566.835 127.179 567.571 128.048 568.078C128.918 568.577 129.928 568.827 131.079 568.827C131.827 568.827 132.504 568.722 133.107 568.513C133.719 568.295 134.246 567.973 134.689 567.547C135.132 567.112 135.474 566.573 135.715 565.929L138.468 566.702C138.178 567.635 137.691 568.456 137.007 569.165C136.323 569.865 135.478 570.412 134.472 570.807C133.465 571.193 132.335 571.386 131.079 571.386ZM143.092 571V552.455H145.845V555.256H146.038C146.376 554.338 146.988 553.594 147.874 553.022C148.759 552.451 149.757 552.165 150.868 552.165C151.077 552.165 151.339 552.169 151.653 552.177C151.967 552.185 152.204 552.197 152.365 552.213V555.111C152.268 555.087 152.047 555.05 151.701 555.002C151.363 554.946 151.005 554.918 150.626 554.918C149.725 554.918 148.92 555.107 148.212 555.485C147.511 555.855 146.956 556.371 146.545 557.031C146.143 557.683 145.942 558.427 145.942 559.264V571H143.092ZM173.371 552.455V554.869H163.76V552.455H173.371ZM166.561 548.011H169.41V565.688C169.41 566.492 169.527 567.096 169.76 567.499C170.002 567.893 170.308 568.159 170.678 568.295C171.056 568.424 171.455 568.489 171.873 568.489C172.187 568.489 172.445 568.473 172.646 568.44C172.847 568.4 173.008 568.368 173.129 568.344L173.709 570.903C173.515 570.976 173.246 571.048 172.9 571.121C172.554 571.201 172.115 571.241 171.584 571.241C170.779 571.241 169.99 571.068 169.217 570.722C168.452 570.376 167.817 569.849 167.309 569.141C166.81 568.432 166.561 567.539 166.561 566.46V548.011ZM180.905 559.844V571H178.055V546.273H180.905V555.352H181.146C181.581 554.394 182.233 553.634 183.102 553.07C183.979 552.499 185.147 552.213 186.604 552.213C187.867 552.213 188.974 552.467 189.924 552.974C190.874 553.473 191.61 554.241 192.133 555.28C192.665 556.31 192.93 557.622 192.93 559.216V571H190.081V559.409C190.081 557.936 189.698 556.797 188.934 555.992C188.177 555.179 187.127 554.773 185.782 554.773C184.849 554.773 184.012 554.97 183.271 555.364C182.539 555.759 181.959 556.334 181.532 557.091C181.114 557.848 180.905 558.765 180.905 559.844ZM203.6 571.435C202.425 571.435 201.359 571.213 200.401 570.771C199.443 570.32 198.682 569.672 198.119 568.827C197.556 567.973 197.274 566.943 197.274 565.736C197.274 564.673 197.483 563.812 197.902 563.152C198.32 562.484 198.88 561.961 199.58 561.582C200.28 561.204 201.053 560.922 201.898 560.737C202.751 560.544 203.609 560.391 204.47 560.278C205.597 560.134 206.51 560.025 207.211 559.952C207.919 559.872 208.434 559.739 208.756 559.554C209.086 559.369 209.251 559.047 209.251 558.588V558.491C209.251 557.3 208.925 556.375 208.273 555.714C207.629 555.054 206.651 554.724 205.339 554.724C203.979 554.724 202.912 555.022 202.14 555.618C201.367 556.214 200.824 556.849 200.51 557.526L197.805 556.56C198.288 555.433 198.932 554.555 199.737 553.928C200.55 553.292 201.435 552.849 202.393 552.599C203.359 552.342 204.309 552.213 205.243 552.213C205.838 552.213 206.522 552.286 207.295 552.43C208.076 552.567 208.828 552.853 209.553 553.288C210.285 553.722 210.893 554.378 211.376 555.256C211.859 556.133 212.1 557.308 212.1 558.781V571H209.251V568.489H209.106C208.913 568.891 208.591 569.322 208.14 569.781C207.69 570.239 207.09 570.63 206.341 570.952C205.593 571.274 204.679 571.435 203.6 571.435ZM204.035 568.875C205.162 568.875 206.112 568.654 206.885 568.211C207.665 567.768 208.253 567.197 208.647 566.496C209.05 565.796 209.251 565.06 209.251 564.287V561.679C209.13 561.824 208.865 561.957 208.454 562.077C208.052 562.19 207.585 562.291 207.054 562.379C206.53 562.46 206.019 562.532 205.52 562.597C205.029 562.653 204.631 562.701 204.325 562.741C203.584 562.838 202.892 562.995 202.248 563.212C201.612 563.422 201.097 563.74 200.703 564.166C200.316 564.585 200.123 565.156 200.123 565.881C200.123 566.871 200.489 567.619 201.222 568.126C201.962 568.625 202.9 568.875 204.035 568.875ZM220.151 559.844V571H217.301V552.455H220.054V555.352H220.296C220.73 554.411 221.39 553.654 222.276 553.082C223.161 552.503 224.304 552.213 225.705 552.213C226.96 552.213 228.059 552.471 229.001 552.986C229.943 553.493 230.675 554.266 231.198 555.304C231.722 556.334 231.983 557.638 231.983 559.216V571H229.134V559.409C229.134 557.952 228.755 556.817 227.999 556.004C227.242 555.183 226.204 554.773 224.884 554.773C223.974 554.773 223.161 554.97 222.445 555.364C221.736 555.759 221.177 556.334 220.767 557.091C220.356 557.848 220.151 558.765 220.151 559.844ZM246.752 577.955V552.455H249.505V555.401H249.843C250.053 555.079 250.342 554.668 250.713 554.169C251.091 553.662 251.63 553.211 252.331 552.817C253.039 552.414 253.997 552.213 255.204 552.213C256.766 552.213 258.142 552.603 259.333 553.384C260.525 554.165 261.454 555.272 262.123 556.705C262.791 558.137 263.125 559.828 263.125 561.776C263.125 563.74 262.791 565.442 262.123 566.883C261.454 568.316 260.529 569.426 259.346 570.215C258.162 570.996 256.798 571.386 255.252 571.386C254.061 571.386 253.107 571.189 252.391 570.795C251.675 570.392 251.123 569.937 250.737 569.43C250.35 568.915 250.053 568.489 249.843 568.151H249.602V577.955H246.752ZM249.554 561.727C249.554 563.128 249.759 564.363 250.169 565.434C250.58 566.496 251.18 567.33 251.968 567.933C252.757 568.529 253.723 568.827 254.866 568.827C256.057 568.827 257.051 568.513 257.848 567.885C258.653 567.249 259.257 566.396 259.659 565.325C260.07 564.247 260.275 563.047 260.275 561.727C260.275 560.423 260.074 559.248 259.672 558.202C259.277 557.147 258.677 556.314 257.873 555.702C257.076 555.083 256.074 554.773 254.866 554.773C253.707 554.773 252.733 555.067 251.944 555.654C251.155 556.234 250.56 557.047 250.157 558.093C249.755 559.131 249.554 560.343 249.554 561.727ZM267.471 571V552.455H270.321V571H267.471ZM268.92 549.364C268.365 549.364 267.886 549.174 267.483 548.796C267.089 548.418 266.892 547.963 266.892 547.432C266.892 546.901 267.089 546.446 267.483 546.067C267.886 545.689 268.365 545.5 268.92 545.5C269.475 545.5 269.95 545.689 270.345 546.067C270.747 546.446 270.949 546.901 270.949 547.432C270.949 547.963 270.747 548.418 270.345 548.796C269.95 549.174 269.475 549.364 268.92 549.364ZM290.704 552.455L283.846 571H280.949L274.091 552.455H277.182L282.301 567.233H282.494L287.613 552.455H290.704ZM301.335 571.386C299.661 571.386 298.192 570.988 296.928 570.191C295.673 569.394 294.691 568.279 293.982 566.847C293.282 565.414 292.932 563.74 292.932 561.824C292.932 559.892 293.282 558.206 293.982 556.765C294.691 555.324 295.673 554.205 296.928 553.408C298.192 552.612 299.661 552.213 301.335 552.213C303.01 552.213 304.475 552.612 305.73 553.408C306.994 554.205 307.976 555.324 308.676 556.765C309.385 558.206 309.739 559.892 309.739 561.824C309.739 563.74 309.385 565.414 308.676 566.847C307.976 568.279 306.994 569.394 305.73 570.191C304.475 570.988 303.01 571.386 301.335 571.386ZM301.335 568.827C302.607 568.827 303.654 568.501 304.475 567.849C305.296 567.197 305.903 566.339 306.298 565.277C306.692 564.214 306.889 563.063 306.889 561.824C306.889 560.584 306.692 559.429 306.298 558.359C305.903 557.288 305.296 556.423 304.475 555.763C303.654 555.103 302.607 554.773 301.335 554.773C300.064 554.773 299.017 555.103 298.196 555.763C297.375 556.423 296.767 557.288 296.373 558.359C295.979 559.429 295.781 560.584 295.781 561.824C295.781 563.063 295.979 564.214 296.373 565.277C296.767 566.339 297.375 567.197 298.196 567.849C299.017 568.501 300.064 568.827 301.335 568.827ZM322.154 552.455V554.869H312.543V552.455H322.154ZM315.344 548.011H318.194V565.688C318.194 566.492 318.31 567.096 318.544 567.499C318.785 567.893 319.091 568.159 319.461 568.295C319.84 568.424 320.238 568.489 320.657 568.489C320.971 568.489 321.228 568.473 321.429 568.44C321.631 568.4 321.792 568.368 321.912 568.344L322.492 570.903C322.299 570.976 322.029 571.048 321.683 571.121C321.337 571.201 320.898 571.241 320.367 571.241C319.562 571.241 318.773 571.068 318 570.722C317.236 570.376 316.6 569.849 316.093 569.141C315.594 568.432 315.344 567.539 315.344 566.46V548.011Z" fill="#727272"/>
<path d="M101.687 335.455C101.542 334.231 100.954 333.281 99.9242 332.605C98.8939 331.929 97.6301 331.591 96.133 331.591C95.0383 331.591 94.0804 331.768 93.2594 332.122C92.4464 332.476 91.8105 332.963 91.3517 333.583C90.901 334.203 90.6756 334.907 90.6756 335.696C90.6756 336.356 90.8326 336.924 91.1465 337.398C91.4685 337.865 91.879 338.256 92.378 338.57C92.8771 338.875 93.4003 339.129 93.9476 339.33C94.495 339.523 94.998 339.68 95.4569 339.801L97.9682 340.477C98.6122 340.646 99.3285 340.88 100.117 341.178C100.914 341.475 101.675 341.882 102.399 342.397C103.132 342.904 103.736 343.556 104.21 344.353C104.685 345.15 104.923 346.128 104.923 347.287C104.923 348.623 104.573 349.83 103.872 350.909C103.18 351.988 102.166 352.845 100.83 353.481C99.5016 354.117 97.8877 354.435 95.9881 354.435C94.2173 354.435 92.6839 354.149 91.388 353.577C90.1001 353.006 89.0859 352.209 88.3453 351.187C87.6129 350.165 87.1983 348.977 87.1017 347.625H90.1926C90.2731 348.559 90.5871 349.331 91.1344 349.943C91.6898 350.547 92.3901 350.998 93.2353 351.295C94.0885 351.585 95.0061 351.73 95.9881 351.73C97.1311 351.73 98.1574 351.545 99.0669 351.175C99.9765 350.796 100.697 350.273 101.228 349.605C101.759 348.929 102.025 348.14 102.025 347.239C102.025 346.418 101.796 345.75 101.337 345.234C100.878 344.719 100.274 344.301 99.5257 343.979C98.7772 343.657 97.9682 343.375 97.0989 343.134L94.0563 342.264C92.1245 341.709 90.5951 340.916 89.4682 339.886C88.3413 338.855 87.7779 337.507 87.7779 335.841C87.7779 334.456 88.1522 333.249 88.9007 332.219C89.6574 331.18 90.6716 330.375 91.9434 329.804C93.2232 329.224 94.6519 328.935 96.2296 328.935C97.8233 328.935 99.24 329.22 100.48 329.792C101.719 330.355 102.701 331.128 103.426 332.11C104.158 333.092 104.544 334.207 104.585 335.455H101.687ZM121.147 346.418V335.455H123.996V354H121.147V350.861H120.954C120.519 351.803 119.843 352.603 118.925 353.263C118.008 353.915 116.849 354.241 115.448 354.241C114.289 354.241 113.259 353.988 112.357 353.481C111.456 352.966 110.747 352.193 110.232 351.163C109.717 350.124 109.46 348.816 109.46 347.239V335.455H112.309V347.045C112.309 348.398 112.687 349.476 113.444 350.281C114.209 351.086 115.183 351.489 116.366 351.489C117.074 351.489 117.795 351.308 118.527 350.945C119.268 350.583 119.887 350.028 120.386 349.279C120.893 348.531 121.147 347.577 121.147 346.418ZM129.602 354V329.273H132.451V338.401H132.693C132.902 338.079 133.192 337.668 133.562 337.169C133.94 336.662 134.48 336.211 135.18 335.817C135.888 335.414 136.846 335.213 138.053 335.213C139.615 335.213 140.991 335.603 142.183 336.384C143.374 337.165 144.304 338.272 144.972 339.705C145.64 341.137 145.974 342.828 145.974 344.776C145.974 346.74 145.64 348.442 144.972 349.883C144.304 351.316 143.378 352.426 142.195 353.215C141.012 353.996 139.647 354.386 138.102 354.386C136.91 354.386 135.957 354.189 135.24 353.795C134.524 353.392 133.972 352.937 133.586 352.43C133.2 351.915 132.902 351.489 132.693 351.151H132.355V354H129.602ZM132.403 344.727C132.403 346.128 132.608 347.363 133.019 348.434C133.429 349.496 134.029 350.33 134.818 350.933C135.606 351.529 136.572 351.827 137.715 351.827C138.907 351.827 139.901 351.513 140.698 350.885C141.503 350.249 142.106 349.396 142.509 348.325C142.919 347.247 143.124 346.047 143.124 344.727C143.124 343.423 142.923 342.248 142.521 341.202C142.126 340.147 141.527 339.314 140.722 338.702C139.925 338.083 138.923 337.773 137.715 337.773C136.556 337.773 135.582 338.067 134.794 338.654C134.005 339.234 133.409 340.047 133.007 341.093C132.604 342.131 132.403 343.343 132.403 344.727ZM157.818 361.341C156.442 361.341 155.259 361.164 154.269 360.81C153.279 360.464 152.454 360.005 151.794 359.433C151.142 358.87 150.622 358.266 150.236 357.622L152.506 356.028C152.763 356.366 153.089 356.753 153.484 357.188C153.878 357.63 154.418 358.013 155.102 358.335C155.794 358.665 156.7 358.83 157.818 358.83C159.316 358.83 160.551 358.467 161.525 357.743C162.499 357.018 162.986 355.884 162.986 354.338V350.571H162.744C162.535 350.909 162.237 351.328 161.851 351.827C161.473 352.318 160.925 352.756 160.209 353.143C159.501 353.521 158.543 353.71 157.335 353.71C155.838 353.71 154.494 353.356 153.303 352.648C152.119 351.939 151.182 350.909 150.49 349.557C149.805 348.205 149.463 346.562 149.463 344.631C149.463 342.731 149.797 341.077 150.465 339.668C151.133 338.252 152.063 337.157 153.254 336.384C154.446 335.603 155.822 335.213 157.384 335.213C158.591 335.213 159.549 335.414 160.257 335.817C160.974 336.211 161.521 336.662 161.899 337.169C162.286 337.668 162.584 338.079 162.793 338.401H163.083V335.455H165.835V354.531C165.835 356.125 165.473 357.421 164.749 358.419C164.032 359.425 163.066 360.162 161.851 360.629C160.644 361.103 159.299 361.341 157.818 361.341ZM157.722 351.151C158.865 351.151 159.831 350.889 160.619 350.366C161.408 349.843 162.008 349.09 162.419 348.108C162.829 347.126 163.034 345.951 163.034 344.582C163.034 343.246 162.833 342.067 162.431 341.045C162.028 340.022 161.432 339.222 160.644 338.642C159.855 338.062 158.881 337.773 157.722 337.773C156.514 337.773 155.508 338.079 154.703 338.69C153.906 339.302 153.307 340.123 152.904 341.153C152.51 342.184 152.313 343.327 152.313 344.582C152.313 345.87 152.514 347.009 152.916 347.999C153.327 348.981 153.931 349.754 154.727 350.317C155.532 350.873 156.53 351.151 157.722 351.151ZM171.051 354V335.455H173.804V338.256H173.997C174.335 337.338 174.947 336.594 175.833 336.022C176.718 335.451 177.716 335.165 178.827 335.165C179.036 335.165 179.298 335.169 179.612 335.177C179.926 335.185 180.163 335.197 180.324 335.213V338.111C180.227 338.087 180.006 338.05 179.66 338.002C179.322 337.946 178.964 337.918 178.585 337.918C177.684 337.918 176.879 338.107 176.171 338.485C175.47 338.855 174.915 339.371 174.504 340.031C174.102 340.683 173.901 341.427 173.901 342.264V354H171.051ZM190.671 354.386C188.997 354.386 187.528 353.988 186.264 353.191C185.009 352.394 184.027 351.279 183.318 349.847C182.618 348.414 182.268 346.74 182.268 344.824C182.268 342.892 182.618 341.206 183.318 339.765C184.027 338.324 185.009 337.205 186.264 336.408C187.528 335.612 188.997 335.213 190.671 335.213C192.346 335.213 193.811 335.612 195.066 336.408C196.33 337.205 197.312 338.324 198.012 339.765C198.721 341.206 199.075 342.892 199.075 344.824C199.075 346.74 198.721 348.414 198.012 349.847C197.312 351.279 196.33 352.394 195.066 353.191C193.811 353.988 192.346 354.386 190.671 354.386ZM190.671 351.827C191.943 351.827 192.99 351.501 193.811 350.849C194.632 350.197 195.239 349.339 195.634 348.277C196.028 347.214 196.225 346.063 196.225 344.824C196.225 343.584 196.028 342.429 195.634 341.359C195.239 340.288 194.632 339.423 193.811 338.763C192.99 338.103 191.943 337.773 190.671 337.773C189.4 337.773 188.353 338.103 187.532 338.763C186.711 339.423 186.103 340.288 185.709 341.359C185.315 342.429 185.117 343.584 185.117 344.824C185.117 346.063 185.315 347.214 185.709 348.277C186.103 349.339 186.711 350.197 187.532 350.849C188.353 351.501 189.4 351.827 190.671 351.827ZM215.112 346.418V335.455H217.961V354H215.112V350.861H214.919C214.484 351.803 213.808 352.603 212.89 353.263C211.973 353.915 210.814 354.241 209.413 354.241C208.254 354.241 207.224 353.988 206.322 353.481C205.421 352.966 204.712 352.193 204.197 351.163C203.682 350.124 203.424 348.816 203.424 347.239V335.455H206.274V347.045C206.274 348.398 206.652 349.476 207.409 350.281C208.173 351.086 209.147 351.489 210.331 351.489C211.039 351.489 211.759 351.308 212.492 350.945C213.232 350.583 213.852 350.028 214.351 349.279C214.858 348.531 215.112 347.577 215.112 346.418ZM223.18 360.955V335.455H225.933V338.401H226.271C226.48 338.079 226.77 337.668 227.14 337.169C227.519 336.662 228.058 336.211 228.758 335.817C229.467 335.414 230.425 335.213 231.632 335.213C233.193 335.213 234.57 335.603 235.761 336.384C236.952 337.165 237.882 338.272 238.55 339.705C239.218 341.137 239.552 342.828 239.552 344.776C239.552 346.74 239.218 348.442 238.55 349.883C237.882 351.316 236.956 352.426 235.773 353.215C234.59 353.996 233.226 354.386 231.68 354.386C230.489 354.386 229.535 354.189 228.819 353.795C228.102 353.392 227.551 352.937 227.165 352.43C226.778 351.915 226.48 351.489 226.271 351.151H226.03V360.955H223.18ZM225.981 344.727C225.981 346.128 226.187 347.363 226.597 348.434C227.008 349.496 227.607 350.33 228.396 350.933C229.185 351.529 230.151 351.827 231.294 351.827C232.485 351.827 233.479 351.513 234.276 350.885C235.081 350.249 235.685 349.396 236.087 348.325C236.498 347.247 236.703 346.047 236.703 344.727C236.703 343.423 236.502 342.248 236.099 341.202C235.705 340.147 235.105 339.314 234.3 338.702C233.503 338.083 232.501 337.773 231.294 337.773C230.135 337.773 229.161 338.067 228.372 338.654C227.583 339.234 226.988 340.047 226.585 341.093C226.183 342.131 225.981 343.343 225.981 344.727ZM254.862 354H251.723L260.802 329.273H263.893L272.973 354H269.834L262.444 333.185H262.251L254.862 354ZM256.021 344.341H268.675V346.997H256.021V344.341Z" fill="#009966"/>
<path d="M624.619 335.455C624.474 334.231 623.886 333.281 622.856 332.605C621.826 331.929 620.562 331.591 619.065 331.591C617.97 331.591 617.012 331.768 616.191 332.122C615.378 332.476 614.742 332.963 614.283 333.583C613.833 334.203 613.607 334.907 613.607 335.696C613.607 336.356 613.764 336.924 614.078 337.398C614.4 337.865 614.811 338.256 615.31 338.57C615.809 338.875 616.332 339.129 616.879 339.33C617.427 339.523 617.93 339.68 618.388 339.801L620.9 340.477C621.544 340.646 622.26 340.88 623.049 341.178C623.846 341.475 624.607 341.882 625.331 342.397C626.063 342.904 626.667 343.556 627.142 344.353C627.617 345.15 627.854 346.128 627.854 347.287C627.854 348.623 627.504 349.83 626.804 350.909C626.112 351.988 625.098 352.845 623.761 353.481C622.433 354.117 620.819 354.435 618.92 354.435C617.149 354.435 615.616 354.149 614.32 353.577C613.032 353.006 612.018 352.209 611.277 351.187C610.545 350.165 610.13 348.977 610.033 347.625H613.124C613.205 348.559 613.519 349.331 614.066 349.943C614.621 350.547 615.322 350.998 616.167 351.295C617.02 351.585 617.938 351.73 618.92 351.73C620.063 351.73 621.089 351.545 621.999 351.175C622.908 350.796 623.629 350.273 624.16 349.605C624.691 348.929 624.957 348.14 624.957 347.239C624.957 346.418 624.727 345.75 624.268 345.234C623.81 344.719 623.206 344.301 622.457 343.979C621.709 343.657 620.9 343.375 620.031 343.134L616.988 342.264C615.056 341.709 613.527 340.916 612.4 339.886C611.273 338.855 610.71 337.507 610.71 335.841C610.71 334.456 611.084 333.249 611.832 332.219C612.589 331.18 613.603 330.375 614.875 329.804C616.155 329.224 617.584 328.935 619.161 328.935C620.755 328.935 622.172 329.22 623.411 329.792C624.651 330.355 625.633 331.128 626.357 332.11C627.09 333.092 627.476 334.207 627.516 335.455H624.619ZM644.079 346.418V335.455H646.928V354H644.079V350.861H643.885C643.451 351.803 642.775 352.603 641.857 353.263C640.939 353.915 639.78 354.241 638.38 354.241C637.221 354.241 636.19 353.988 635.289 353.481C634.387 352.966 633.679 352.193 633.164 351.163C632.649 350.124 632.391 348.816 632.391 347.239V335.455H635.241V347.045C635.241 348.398 635.619 349.476 636.376 350.281C637.14 351.086 638.114 351.489 639.297 351.489C640.006 351.489 640.726 351.308 641.459 350.945C642.199 350.583 642.819 350.028 643.318 349.279C643.825 348.531 644.079 347.577 644.079 346.418ZM652.533 354V329.273H655.383V338.401H655.624C655.834 338.079 656.123 337.668 656.494 337.169C656.872 336.662 657.411 336.211 658.112 335.817C658.82 335.414 659.778 335.213 660.985 335.213C662.547 335.213 663.923 335.603 665.114 336.384C666.306 337.165 667.235 338.272 667.903 339.705C668.571 341.137 668.906 342.828 668.906 344.776C668.906 346.74 668.571 348.442 667.903 349.883C667.235 351.316 666.31 352.426 665.126 353.215C663.943 353.996 662.579 354.386 661.033 354.386C659.842 354.386 658.888 354.189 658.172 353.795C657.455 353.392 656.904 352.937 656.518 352.43C656.131 351.915 655.834 351.489 655.624 351.151H655.286V354H652.533ZM655.335 344.727C655.335 346.128 655.54 347.363 655.95 348.434C656.361 349.496 656.96 350.33 657.749 350.933C658.538 351.529 659.504 351.827 660.647 351.827C661.838 351.827 662.832 351.513 663.629 350.885C664.434 350.249 665.038 349.396 665.44 348.325C665.851 347.247 666.056 346.047 666.056 344.727C666.056 343.423 665.855 342.248 665.452 341.202C665.058 340.147 664.458 339.314 663.653 338.702C662.857 338.083 661.854 337.773 660.647 337.773C659.488 337.773 658.514 338.067 657.725 338.654C656.936 339.234 656.341 340.047 655.938 341.093C655.536 342.131 655.335 343.343 655.335 344.727ZM680.75 361.341C679.374 361.341 678.19 361.164 677.2 360.81C676.21 360.464 675.385 360.005 674.725 359.433C674.073 358.87 673.554 358.266 673.168 357.622L675.438 356.028C675.695 356.366 676.021 356.753 676.415 357.188C676.81 357.63 677.349 358.013 678.033 358.335C678.726 358.665 679.631 358.83 680.75 358.83C682.247 358.83 683.483 358.467 684.457 357.743C685.431 357.018 685.918 355.884 685.918 354.338V350.571H685.676C685.467 350.909 685.169 351.328 684.783 351.827C684.404 352.318 683.857 352.756 683.141 353.143C682.432 353.521 681.474 353.71 680.267 353.71C678.77 353.71 677.426 353.356 676.234 352.648C675.051 351.939 674.113 350.909 673.421 349.557C672.737 348.205 672.395 346.562 672.395 344.631C672.395 342.731 672.729 341.077 673.397 339.668C674.065 338.252 674.995 337.157 676.186 336.384C677.377 335.603 678.754 335.213 680.315 335.213C681.523 335.213 682.481 335.414 683.189 335.817C683.905 336.211 684.453 336.662 684.831 337.169C685.217 337.668 685.515 338.079 685.724 338.401H686.014V335.455H688.767V354.531C688.767 356.125 688.405 357.421 687.68 358.419C686.964 359.425 685.998 360.162 684.783 360.629C683.575 361.103 682.231 361.341 680.75 361.341ZM680.653 351.151C681.796 351.151 682.762 350.889 683.551 350.366C684.34 349.843 684.94 349.09 685.35 348.108C685.761 347.126 685.966 345.951 685.966 344.582C685.966 343.246 685.765 342.067 685.362 341.045C684.96 340.022 684.364 339.222 683.575 338.642C682.786 338.062 681.813 337.773 680.653 337.773C679.446 337.773 678.44 338.079 677.635 338.69C676.838 339.302 676.238 340.123 675.836 341.153C675.442 342.184 675.244 343.327 675.244 344.582C675.244 345.87 675.446 347.009 675.848 347.999C676.259 348.981 676.862 349.754 677.659 350.317C678.464 350.873 679.462 351.151 680.653 351.151ZM693.983 354V335.455H696.736V338.256H696.929C697.267 337.338 697.879 336.594 698.764 336.022C699.65 335.451 700.648 335.165 701.759 335.165C701.968 335.165 702.229 335.169 702.543 335.177C702.857 335.185 703.095 335.197 703.256 335.213V338.111C703.159 338.087 702.938 338.05 702.592 338.002C702.254 337.946 701.895 337.918 701.517 337.918C700.616 337.918 699.811 338.107 699.102 338.485C698.402 338.855 697.847 339.371 697.436 340.031C697.034 340.683 696.832 341.427 696.832 342.264V354H693.983ZM713.603 354.386C711.929 354.386 710.46 353.988 709.196 353.191C707.94 352.394 706.958 351.279 706.25 349.847C705.55 348.414 705.2 346.74 705.2 344.824C705.2 342.892 705.55 341.206 706.25 339.765C706.958 338.324 707.94 337.205 709.196 336.408C710.46 335.612 711.929 335.213 713.603 335.213C715.277 335.213 716.742 335.612 717.998 336.408C719.262 337.205 720.244 338.324 720.944 339.765C721.652 341.206 722.006 342.892 722.006 344.824C722.006 346.74 721.652 348.414 720.944 349.847C720.244 351.279 719.262 352.394 717.998 353.191C716.742 353.988 715.277 354.386 713.603 354.386ZM713.603 351.827C714.875 351.827 715.921 351.501 716.742 350.849C717.563 350.197 718.171 349.339 718.565 348.277C718.96 347.214 719.157 346.063 719.157 344.824C719.157 343.584 718.96 342.429 718.565 341.359C718.171 340.288 717.563 339.423 716.742 338.763C715.921 338.103 714.875 337.773 713.603 337.773C712.331 337.773 711.285 338.103 710.464 338.763C709.643 339.423 709.035 340.288 708.641 341.359C708.246 342.429 708.049 343.584 708.049 344.824C708.049 346.063 708.246 347.214 708.641 348.277C709.035 349.339 709.643 350.197 710.464 350.849C711.285 351.501 712.331 351.827 713.603 351.827ZM738.044 346.418V335.455H740.893V354H738.044V350.861H737.85C737.416 351.803 736.74 352.603 735.822 353.263C734.904 353.915 733.745 354.241 732.345 354.241C731.186 354.241 730.155 353.988 729.254 353.481C728.352 352.966 727.644 352.193 727.129 351.163C726.614 350.124 726.356 348.816 726.356 347.239V335.455H729.205V347.045C729.205 348.398 729.584 349.476 730.34 350.281C731.105 351.086 732.079 351.489 733.262 351.489C733.971 351.489 734.691 351.308 735.423 350.945C736.164 350.583 736.784 350.028 737.283 349.279C737.79 348.531 738.044 347.577 738.044 346.418ZM746.112 360.955V335.455H748.865V338.401H749.203C749.412 338.079 749.702 337.668 750.072 337.169C750.45 336.662 750.99 336.211 751.69 335.817C752.398 335.414 753.356 335.213 754.564 335.213C756.125 335.213 757.502 335.603 758.693 336.384C759.884 337.165 760.814 338.272 761.482 339.705C762.15 341.137 762.484 342.828 762.484 344.776C762.484 346.74 762.15 348.442 761.482 349.883C760.814 351.316 759.888 352.426 758.705 353.215C757.522 353.996 756.157 354.386 754.612 354.386C753.421 354.386 752.467 354.189 751.75 353.795C751.034 353.392 750.483 352.937 750.096 352.43C749.71 351.915 749.412 351.489 749.203 351.151H748.961V360.955H746.112ZM748.913 344.727C748.913 346.128 749.118 347.363 749.529 348.434C749.939 349.496 750.539 350.33 751.328 350.933C752.117 351.529 753.083 351.827 754.225 351.827C755.417 351.827 756.411 351.513 757.208 350.885C758.013 350.249 758.616 349.396 759.019 348.325C759.429 347.247 759.635 346.047 759.635 344.727C759.635 343.423 759.433 342.248 759.031 341.202C758.636 340.147 758.037 339.314 757.232 338.702C756.435 338.083 755.433 337.773 754.225 337.773C753.066 337.773 752.092 338.067 751.304 338.654C750.515 339.234 749.919 340.047 749.517 341.093C749.114 342.131 748.913 343.343 748.913 344.727ZM776.779 354V329.273H785.424C787.147 329.273 788.568 329.571 789.686 330.166C790.805 330.754 791.638 331.547 792.186 332.545C792.733 333.535 793.007 334.634 793.007 335.841C793.007 336.903 792.818 337.781 792.439 338.473C792.069 339.165 791.578 339.713 790.966 340.115C790.363 340.518 789.707 340.815 788.998 341.009V341.25C789.755 341.298 790.516 341.564 791.28 342.047C792.045 342.53 792.685 343.222 793.2 344.124C793.715 345.025 793.973 346.128 793.973 347.432C793.973 348.671 793.691 349.786 793.127 350.776C792.564 351.766 791.675 352.551 790.459 353.131C789.244 353.71 787.662 354 785.714 354H776.779ZM779.774 351.344H785.714C787.67 351.344 789.059 350.965 789.88 350.209C790.709 349.444 791.123 348.518 791.123 347.432C791.123 346.595 790.91 345.822 790.483 345.114C790.057 344.397 789.449 343.826 788.66 343.399C787.871 342.964 786.938 342.747 785.859 342.747H779.774V351.344ZM779.774 340.139H785.328C786.229 340.139 787.042 339.962 787.767 339.608C788.499 339.254 789.079 338.755 789.505 338.111C789.94 337.467 790.157 336.71 790.157 335.841C790.157 334.754 789.779 333.833 789.022 333.076C788.266 332.311 787.066 331.929 785.424 331.929H779.774V340.139Z" fill="#E27C00"/>
<path d="M576.103 554C575.837 553.187 575.487 552.459 575.052 551.815C574.626 551.163 574.115 550.607 573.519 550.148C572.931 549.69 572.263 549.339 571.515 549.098C570.766 548.857 569.945 548.736 569.052 548.736C567.587 548.736 566.255 549.114 565.055 549.871C563.856 550.627 562.902 551.742 562.194 553.215C561.485 554.688 561.131 556.495 561.131 558.636C561.131 560.777 561.489 562.585 562.206 564.058C562.922 565.531 563.892 566.645 565.116 567.402C566.339 568.159 567.715 568.537 569.245 568.537C570.662 568.537 571.909 568.235 572.988 567.631C574.074 567.02 574.92 566.158 575.523 565.048C576.135 563.929 576.441 562.613 576.441 561.099L577.358 561.293H569.921V558.636H579.339V561.293C579.339 563.329 578.904 565.1 578.035 566.605C577.173 568.11 575.982 569.277 574.461 570.107C572.948 570.928 571.209 571.338 569.245 571.338C567.055 571.338 565.132 570.823 563.474 569.793C561.823 568.762 560.536 567.297 559.61 565.398C558.692 563.498 558.233 561.244 558.233 558.636C558.233 556.68 558.495 554.922 559.018 553.36C559.55 551.79 560.298 550.454 561.264 549.352C562.23 548.249 563.373 547.404 564.693 546.816C566.013 546.228 567.466 545.935 569.052 545.935C570.356 545.935 571.571 546.132 572.698 546.526C573.833 546.913 574.843 547.464 575.729 548.18C576.622 548.889 577.367 549.738 577.962 550.728C578.558 551.71 578.968 552.801 579.194 554H576.103ZM584.081 571V552.455H586.833V555.256H587.027C587.365 554.338 587.976 553.594 588.862 553.022C589.747 552.451 590.745 552.165 591.856 552.165C592.065 552.165 592.327 552.169 592.641 552.177C592.955 552.185 593.192 552.197 593.353 552.213V555.111C593.257 555.087 593.035 555.05 592.689 555.002C592.351 554.946 591.993 554.918 591.615 554.918C590.713 554.918 589.908 555.107 589.2 555.485C588.5 555.855 587.944 556.371 587.534 557.031C587.131 557.683 586.93 558.427 586.93 559.264V571H584.081ZM603.942 571.386C602.155 571.386 600.614 570.992 599.318 570.203C598.03 569.406 597.036 568.295 596.336 566.871C595.643 565.438 595.297 563.772 595.297 561.872C595.297 559.973 595.643 558.298 596.336 556.849C597.036 555.393 598.01 554.258 599.257 553.445C600.513 552.624 601.978 552.213 603.652 552.213C604.618 552.213 605.572 552.374 606.514 552.696C607.456 553.018 608.313 553.541 609.086 554.266C609.858 554.982 610.474 555.932 610.933 557.115C611.392 558.298 611.621 559.755 611.621 561.486V562.693H597.326V560.23H608.723C608.723 559.184 608.514 558.25 608.096 557.429C607.685 556.608 607.097 555.96 606.333 555.485C605.576 555.01 604.683 554.773 603.652 554.773C602.517 554.773 601.535 555.054 600.706 555.618C599.885 556.173 599.253 556.898 598.811 557.791C598.368 558.685 598.147 559.643 598.147 560.665V562.307C598.147 563.707 598.388 564.895 598.871 565.869C599.362 566.835 600.042 567.571 600.912 568.078C601.781 568.577 602.791 568.827 603.942 568.827C604.691 568.827 605.367 568.722 605.971 568.513C606.582 568.295 607.109 567.973 607.552 567.547C607.995 567.112 608.337 566.573 608.578 565.929L611.331 566.702C611.042 567.635 610.555 568.456 609.87 569.165C609.186 569.865 608.341 570.412 607.335 570.807C606.329 571.193 605.198 571.386 603.942 571.386ZM621.413 571.435C620.238 571.435 619.171 571.213 618.213 570.771C617.256 570.32 616.495 569.672 615.931 568.827C615.368 567.973 615.086 566.943 615.086 565.736C615.086 564.673 615.296 563.812 615.714 563.152C616.133 562.484 616.692 561.961 617.392 561.582C618.093 561.204 618.865 560.922 619.711 560.737C620.564 560.544 621.421 560.391 622.282 560.278C623.409 560.134 624.323 560.025 625.023 559.952C625.731 559.872 626.247 559.739 626.569 559.554C626.899 559.369 627.064 559.047 627.064 558.588V558.491C627.064 557.3 626.738 556.375 626.086 555.714C625.442 555.054 624.464 554.724 623.152 554.724C621.791 554.724 620.725 555.022 619.952 555.618C619.179 556.214 618.636 556.849 618.322 557.526L615.618 556.56C616.1 555.433 616.744 554.555 617.549 553.928C618.362 553.292 619.248 552.849 620.206 552.599C621.172 552.342 622.121 552.213 623.055 552.213C623.651 552.213 624.335 552.286 625.108 552.43C625.888 552.567 626.641 552.853 627.365 553.288C628.098 553.722 628.706 554.378 629.189 555.256C629.672 556.133 629.913 557.308 629.913 558.781V571H627.064V568.489H626.919C626.725 568.891 626.404 569.322 625.953 569.781C625.502 570.239 624.902 570.63 624.154 570.952C623.405 571.274 622.492 571.435 621.413 571.435ZM621.848 568.875C622.975 568.875 623.924 568.654 624.697 568.211C625.478 567.768 626.065 567.197 626.46 566.496C626.862 565.796 627.064 565.06 627.064 564.287V561.679C626.943 561.824 626.677 561.957 626.267 562.077C625.864 562.19 625.397 562.291 624.866 562.379C624.343 562.46 623.832 562.532 623.333 562.597C622.842 562.653 622.443 562.701 622.137 562.741C621.397 562.838 620.705 562.995 620.061 563.212C619.425 563.422 618.91 563.74 618.515 564.166C618.129 564.585 617.936 565.156 617.936 565.881C617.936 566.871 618.302 567.619 619.034 568.126C619.775 568.625 620.713 568.875 621.848 568.875ZM643.179 552.455V554.869H633.568V552.455H643.179ZM636.369 548.011H639.219V565.688C639.219 566.492 639.336 567.096 639.569 567.499C639.811 567.893 640.116 568.159 640.487 568.295C640.865 568.424 641.263 568.489 641.682 568.489C641.996 568.489 642.253 568.473 642.455 568.44C642.656 568.4 642.817 568.368 642.938 568.344L643.517 570.903C643.324 570.976 643.054 571.048 642.708 571.121C642.362 571.201 641.923 571.241 641.392 571.241C640.587 571.241 639.798 571.068 639.026 570.722C638.261 570.376 637.625 569.849 637.118 569.141C636.619 568.432 636.369 567.539 636.369 566.46V548.011ZM655.042 571.386C653.255 571.386 651.713 570.992 650.417 570.203C649.13 569.406 648.135 568.295 647.435 566.871C646.743 565.438 646.397 563.772 646.397 561.872C646.397 559.973 646.743 558.298 647.435 556.849C648.135 555.393 649.109 554.258 650.357 553.445C651.613 552.624 653.078 552.213 654.752 552.213C655.718 552.213 656.672 552.374 657.613 552.696C658.555 553.018 659.412 553.541 660.185 554.266C660.958 554.982 661.574 555.932 662.032 557.115C662.491 558.298 662.721 559.755 662.721 561.486V562.693H648.425V560.23H659.823C659.823 559.184 659.614 558.25 659.195 557.429C658.785 556.608 658.197 555.96 657.432 555.485C656.676 555.01 655.782 554.773 654.752 554.773C653.617 554.773 652.635 555.054 651.806 555.618C650.985 556.173 650.353 556.898 649.91 557.791C649.468 558.685 649.246 559.643 649.246 560.665V562.307C649.246 563.707 649.488 564.895 649.971 565.869C650.462 566.835 651.142 567.571 652.011 568.078C652.881 568.577 653.891 568.827 655.042 568.827C655.79 568.827 656.466 568.722 657.07 568.513C657.682 568.295 658.209 567.973 658.652 567.547C659.095 567.112 659.437 566.573 659.678 565.929L662.431 566.702C662.141 567.635 661.654 568.456 660.97 569.165C660.286 569.865 659.441 570.412 658.434 570.807C657.428 571.193 656.297 571.386 655.042 571.386ZM667.055 571V552.455H669.808V555.256H670.001C670.339 554.338 670.951 553.594 671.836 553.022C672.722 552.451 673.72 552.165 674.831 552.165C675.04 552.165 675.302 552.169 675.616 552.177C675.93 552.185 676.167 552.197 676.328 552.213V555.111C676.231 555.087 676.01 555.05 675.664 555.002C675.326 554.946 674.968 554.918 674.589 554.918C673.688 554.918 672.883 555.107 672.175 555.485C671.474 555.855 670.919 556.371 670.508 557.031C670.106 557.683 669.905 558.427 669.905 559.264V571H667.055ZM697.333 552.455V554.869H687.723V552.455H697.333ZM690.524 548.011H693.373V565.688C693.373 566.492 693.49 567.096 693.723 567.499C693.965 567.893 694.271 568.159 694.641 568.295C695.019 568.424 695.418 568.489 695.836 568.489C696.15 568.489 696.408 568.473 696.609 568.44C696.81 568.4 696.971 568.368 697.092 568.344L697.672 570.903C697.478 570.976 697.209 571.048 696.863 571.121C696.516 571.201 696.078 571.241 695.547 571.241C694.742 571.241 693.953 571.068 693.18 570.722C692.415 570.376 691.779 569.849 691.272 569.141C690.773 568.432 690.524 567.539 690.524 566.46V548.011ZM704.868 559.844V571H702.018V546.273H704.868V555.352H705.109C705.544 554.394 706.196 553.634 707.065 553.07C707.942 552.499 709.109 552.213 710.566 552.213C711.83 552.213 712.937 552.467 713.887 552.974C714.837 553.473 715.573 554.241 716.096 555.28C716.627 556.31 716.893 557.622 716.893 559.216V571H714.044V559.409C714.044 557.936 713.661 556.797 712.897 555.992C712.14 555.179 711.09 554.773 709.745 554.773C708.812 554.773 707.975 554.97 707.234 555.364C706.502 555.759 705.922 556.334 705.495 557.091C705.077 557.848 704.868 558.765 704.868 559.844ZM727.563 571.435C726.388 571.435 725.322 571.213 724.364 570.771C723.406 570.32 722.645 569.672 722.082 568.827C721.518 567.973 721.237 566.943 721.237 565.736C721.237 564.673 721.446 563.812 721.865 563.152C722.283 562.484 722.843 561.961 723.543 561.582C724.243 561.204 725.016 560.922 725.861 560.737C726.714 560.544 727.571 560.391 728.433 560.278C729.56 560.134 730.473 560.025 731.173 559.952C731.882 559.872 732.397 559.739 732.719 559.554C733.049 559.369 733.214 559.047 733.214 558.588V558.491C733.214 557.3 732.888 556.375 732.236 555.714C731.592 555.054 730.614 554.724 729.302 554.724C727.942 554.724 726.875 555.022 726.102 555.618C725.33 556.214 724.786 556.849 724.472 557.526L721.768 556.56C722.251 555.433 722.895 554.555 723.7 553.928C724.513 553.292 725.398 552.849 726.356 552.599C727.322 552.342 728.272 552.213 729.205 552.213C729.801 552.213 730.485 552.286 731.258 552.43C732.039 552.567 732.791 552.853 733.516 553.288C734.248 553.722 734.856 554.378 735.339 555.256C735.822 556.133 736.063 557.308 736.063 558.781V571H733.214V568.489H733.069C732.876 568.891 732.554 569.322 732.103 569.781C731.652 570.239 731.053 570.63 730.304 570.952C729.556 571.274 728.642 571.435 727.563 571.435ZM727.998 568.875C729.125 568.875 730.075 568.654 730.847 568.211C731.628 567.768 732.216 567.197 732.61 566.496C733.013 565.796 733.214 565.06 733.214 564.287V561.679C733.093 561.824 732.828 561.957 732.417 562.077C732.015 562.19 731.548 562.291 731.017 562.379C730.493 562.46 729.982 562.532 729.483 562.597C728.992 562.653 728.594 562.701 728.288 562.741C727.547 562.838 726.855 562.995 726.211 563.212C725.575 563.422 725.06 563.74 724.666 564.166C724.279 564.585 724.086 565.156 724.086 565.881C724.086 566.871 724.452 567.619 725.185 568.126C725.925 568.625 726.863 568.875 727.998 568.875ZM744.114 559.844V571H741.264V552.455H744.017V555.352H744.259C744.693 554.411 745.353 553.654 746.239 553.082C747.124 552.503 748.267 552.213 749.668 552.213C750.923 552.213 752.022 552.471 752.964 552.986C753.906 553.493 754.638 554.266 755.161 555.304C755.684 556.334 755.946 557.638 755.946 559.216V571H753.097V559.409C753.097 557.952 752.718 556.817 751.962 556.004C751.205 555.183 750.167 554.773 748.847 554.773C747.937 554.773 747.124 554.97 746.408 555.364C745.699 555.759 745.14 556.334 744.729 557.091C744.319 557.848 744.114 558.765 744.114 559.844ZM770.715 577.955V552.455H773.468V555.401H773.806C774.016 555.079 774.305 554.668 774.676 554.169C775.054 553.662 775.593 553.211 776.294 552.817C777.002 552.414 777.96 552.213 779.167 552.213C780.729 552.213 782.105 552.603 783.296 553.384C784.488 554.165 785.417 555.272 786.085 556.705C786.753 558.137 787.088 559.828 787.088 561.776C787.088 563.74 786.753 565.442 786.085 566.883C785.417 568.316 784.492 569.426 783.308 570.215C782.125 570.996 780.761 571.386 779.215 571.386C778.024 571.386 777.07 571.189 776.354 570.795C775.637 570.392 775.086 569.937 774.7 569.43C774.313 568.915 774.016 568.489 773.806 568.151H773.565V577.955H770.715ZM773.517 561.727C773.517 563.128 773.722 564.363 774.132 565.434C774.543 566.496 775.142 567.33 775.931 567.933C776.72 568.529 777.686 568.827 778.829 568.827C780.02 568.827 781.014 568.513 781.811 567.885C782.616 567.249 783.22 566.396 783.622 565.325C784.033 564.247 784.238 563.047 784.238 561.727C784.238 560.423 784.037 559.248 783.634 558.202C783.24 557.147 782.64 556.314 781.835 555.702C781.039 555.083 780.036 554.773 778.829 554.773C777.67 554.773 776.696 555.067 775.907 555.654C775.118 556.234 774.523 557.047 774.12 558.093C773.718 559.131 773.517 560.343 773.517 561.727ZM791.434 571V552.455H794.284V571H791.434ZM792.883 549.364C792.328 549.364 791.849 549.174 791.446 548.796C791.052 548.418 790.855 547.963 790.855 547.432C790.855 546.901 791.052 546.446 791.446 546.067C791.849 545.689 792.328 545.5 792.883 545.5C793.438 545.5 793.913 545.689 794.308 546.067C794.71 546.446 794.911 546.901 794.911 547.432C794.911 547.963 794.71 548.418 794.308 548.796C793.913 549.174 793.438 549.364 792.883 549.364ZM814.667 552.455L807.809 571H804.912L798.054 552.455H801.145L806.264 567.233H806.457L811.576 552.455H814.667ZM825.298 571.386C823.624 571.386 822.155 570.988 820.891 570.191C819.636 569.394 818.654 568.279 817.945 566.847C817.245 565.414 816.895 563.74 816.895 561.824C816.895 559.892 817.245 558.206 817.945 556.765C818.654 555.324 819.636 554.205 820.891 553.408C822.155 552.612 823.624 552.213 825.298 552.213C826.973 552.213 828.438 552.612 829.693 553.408C830.957 554.205 831.939 555.324 832.639 556.765C833.348 558.206 833.702 559.892 833.702 561.824C833.702 563.74 833.348 565.414 832.639 566.847C831.939 568.279 830.957 569.394 829.693 570.191C828.438 570.988 826.973 571.386 825.298 571.386ZM825.298 568.827C826.57 568.827 827.616 568.501 828.438 567.849C829.259 567.197 829.866 566.339 830.261 565.277C830.655 564.214 830.852 563.063 830.852 561.824C830.852 560.584 830.655 559.429 830.261 558.359C829.866 557.288 829.259 556.423 828.438 555.763C827.616 555.103 826.57 554.773 825.298 554.773C824.027 554.773 822.98 555.103 822.159 555.763C821.338 556.423 820.73 557.288 820.336 558.359C819.942 559.429 819.744 560.584 819.744 561.824C819.744 563.063 819.942 564.214 820.336 565.277C820.73 566.339 821.338 567.197 822.159 567.849C822.98 568.501 824.027 568.827 825.298 568.827ZM846.117 552.455V554.869H836.506V552.455H846.117ZM839.307 548.011H842.156V565.688C842.156 566.492 842.273 567.096 842.507 567.499C842.748 567.893 843.054 568.159 843.424 568.295C843.802 568.424 844.201 568.489 844.619 568.489C844.933 568.489 845.191 568.473 845.392 568.44C845.593 568.4 845.754 568.368 845.875 568.344L846.455 570.903C846.262 570.976 845.992 571.048 845.646 571.121C845.3 571.201 844.861 571.241 844.33 571.241C843.525 571.241 842.736 571.068 841.963 570.722C841.199 570.376 840.563 569.849 840.056 569.141C839.557 568.432 839.307 567.539 839.307 566.46V548.011Z" fill="#727272"/>
<path d="M432.961 45.9091V75H429.439V49.6023H429.268L422.166 54.3182V50.7386L429.439 45.9091H432.961ZM450.589 45.5114C451.782 45.5208 452.975 45.7481 454.169 46.1932C455.362 46.6383 456.451 47.3769 457.436 48.4091C458.421 49.4318 459.211 50.8286 459.808 52.5994C460.404 54.3703 460.703 56.5909 460.703 59.2614C460.703 61.8466 460.457 64.143 459.964 66.1506C459.481 68.1487 458.78 69.8343 457.862 71.2074C456.953 72.5805 455.845 73.6222 454.538 74.3324C453.241 75.0426 451.773 75.3977 450.135 75.3977C448.506 75.3977 447.052 75.0758 445.774 74.4318C444.505 73.7784 443.463 72.8741 442.649 71.7188C441.844 70.554 441.328 69.2045 441.1 67.6705H444.566C444.879 69.0057 445.499 70.1089 446.427 70.9801C447.365 71.8419 448.6 72.2727 450.135 72.2727C452.379 72.2727 454.15 71.2926 455.447 69.3324C456.754 67.3722 457.407 64.6023 457.407 61.0227H457.18C456.65 61.8182 456.02 62.5047 455.291 63.0824C454.562 63.66 453.752 64.1051 452.862 64.4176C451.972 64.7301 451.025 64.8864 450.021 64.8864C448.354 64.8864 446.825 64.4744 445.433 63.6506C444.05 62.8172 442.942 61.6761 442.109 60.2273C441.285 58.7689 440.873 57.1023 440.873 55.2273C440.873 53.447 441.271 51.8182 442.066 50.3409C442.871 48.8542 443.998 47.6705 445.447 46.7898C446.905 45.9091 448.619 45.483 450.589 45.5114ZM450.589 48.6364C449.396 48.6364 448.321 48.9347 447.365 49.5312C446.418 50.1184 445.665 50.9138 445.106 51.9176C444.557 52.9119 444.282 54.0152 444.282 55.2273C444.282 56.4394 444.547 57.5426 445.078 58.5369C445.618 59.5218 446.351 60.3078 447.279 60.8949C448.217 61.4725 449.282 61.7614 450.475 61.7614C451.375 61.7614 452.213 61.5862 452.99 61.2358C453.766 60.8759 454.443 60.3883 455.021 59.7727C455.608 59.1477 456.067 58.4422 456.399 57.6562C456.73 56.8608 456.896 56.0322 456.896 55.1705C456.896 54.0341 456.621 52.9687 456.072 51.9744C455.532 50.9801 454.784 50.1752 453.828 49.5597C452.881 48.9441 451.801 48.6364 450.589 48.6364Z" fill="white"/>
<path d="M553.332 45.9091V75H549.81V49.6023H549.639L542.537 54.3182V50.7386L549.81 45.9091H553.332ZM561.699 75V72.4432L571.301 61.9318C572.428 60.7008 573.356 59.6307 574.085 58.7216C574.814 57.803 575.354 56.9413 575.705 56.1364C576.064 55.322 576.244 54.4697 576.244 53.5795C576.244 52.5568 575.998 51.6714 575.506 50.9233C575.023 50.1752 574.36 49.5975 573.517 49.1903C572.674 48.7831 571.727 48.5795 570.676 48.5795C569.559 48.5795 568.583 48.8116 567.75 49.2756C566.926 49.7301 566.287 50.3693 565.832 51.1932C565.387 52.017 565.165 52.983 565.165 54.0909H561.812C561.812 52.3864 562.205 50.8902 562.991 49.6023C563.777 48.3144 564.848 47.3106 566.202 46.5909C567.565 45.8712 569.095 45.5114 570.79 45.5114C572.494 45.5114 574.005 45.8712 575.321 46.5909C576.637 47.3106 577.67 48.2812 578.418 49.5028C579.166 50.7244 579.54 52.0833 579.54 53.5795C579.54 54.6496 579.346 55.696 578.957 56.7188C578.579 57.732 577.916 58.8636 576.969 60.1136C576.031 61.3542 574.729 62.8693 573.062 64.6591L566.528 71.6477V71.875H580.051V75H561.699Z" fill="white"/>
<path d="M673.118 45.9091V75H669.595V49.6023H669.424L662.322 54.3182V50.7386L669.595 45.9091H673.118ZM690.802 75.3977C688.851 75.3977 687.128 75.0521 685.632 74.3608C684.145 73.66 682.985 72.6989 682.152 71.4773C681.318 70.2462 680.906 68.8447 680.916 67.2727C680.906 66.0417 681.148 64.9053 681.64 63.8636C682.133 62.8125 682.805 61.9366 683.657 61.2358C684.519 60.5256 685.48 60.0758 686.541 59.8864V59.7159C685.149 59.3561 684.041 58.5748 683.217 57.3722C682.393 56.16 681.986 54.7822 681.995 53.2386C681.986 51.7614 682.36 50.4403 683.118 49.2756C683.875 48.1108 684.917 47.1922 686.243 46.5199C687.578 45.8475 689.098 45.5114 690.802 45.5114C692.488 45.5114 693.993 45.8475 695.319 46.5199C696.645 47.1922 697.687 48.1108 698.444 49.2756C699.211 50.4403 699.6 51.7614 699.609 53.2386C699.6 54.7822 699.178 56.16 698.345 57.3722C697.521 58.5748 696.427 59.3561 695.064 59.7159V59.8864C696.115 60.0758 697.062 60.5256 697.904 61.2358C698.747 61.9366 699.42 62.8125 699.922 63.8636C700.423 64.9053 700.679 66.0417 700.689 67.2727C700.679 68.8447 700.253 70.2462 699.41 71.4773C698.577 72.6989 697.417 73.66 695.93 74.3608C694.453 75.0521 692.743 75.3977 690.802 75.3977ZM690.802 72.2727C692.118 72.2727 693.255 72.0597 694.211 71.6335C695.168 71.2074 695.906 70.6061 696.427 69.8295C696.948 69.053 697.213 68.1439 697.223 67.1023C697.213 66.0038 696.929 65.0331 696.37 64.1903C695.812 63.3475 695.049 62.6847 694.083 62.2017C693.127 61.7187 692.033 61.4773 690.802 61.4773C689.562 61.4773 688.454 61.7187 687.478 62.2017C686.512 62.6847 685.75 63.3475 685.191 64.1903C684.642 65.0331 684.372 66.0038 684.382 67.1023C684.372 68.1439 684.623 69.053 685.135 69.8295C685.655 70.6061 686.399 71.2074 687.365 71.6335C688.331 72.0597 689.476 72.2727 690.802 72.2727ZM690.802 58.4659C691.844 58.4659 692.767 58.2576 693.572 57.8409C694.386 57.4242 695.026 56.8419 695.49 56.0938C695.954 55.3456 696.19 54.4697 696.2 53.4659C696.19 52.4811 695.958 51.6241 695.504 50.8949C695.049 50.1562 694.42 49.5881 693.615 49.1903C692.81 48.7831 691.872 48.5795 690.802 48.5795C689.713 48.5795 688.761 48.7831 687.947 49.1903C687.133 49.5881 686.503 50.1562 686.058 50.8949C685.613 51.6241 685.395 52.4811 685.404 53.4659C685.395 54.4697 685.618 55.3456 686.072 56.0938C686.536 56.8419 687.175 57.4242 687.99 57.8409C688.804 58.2576 689.742 58.4659 690.802 58.4659Z" fill="white"/>
<path d="M792.707 45.9091V75H789.185V49.6023H789.014L781.912 54.3182V50.7386L789.185 45.9091H792.707ZM810.903 75.3977C809.028 75.3977 807.357 75.0758 805.889 74.4318C804.431 73.7879 803.271 72.893 802.409 71.7472C801.557 70.5919 801.093 69.2519 801.017 67.7273H804.597C804.672 68.6648 804.994 69.4744 805.562 70.1562C806.131 70.8286 806.874 71.3494 807.793 71.7188C808.711 72.0881 809.729 72.2727 810.847 72.2727C812.097 72.2727 813.205 72.0549 814.17 71.6193C815.136 71.1837 815.894 70.5777 816.443 69.8011C816.992 69.0246 817.267 68.125 817.267 67.1023C817.267 66.0322 817.002 65.09 816.472 64.2756C815.941 63.4517 815.165 62.8078 814.142 62.3438C813.119 61.8797 811.869 61.6477 810.392 61.6477H808.062V58.5227H810.392C811.547 58.5227 812.561 58.3144 813.432 57.8977C814.313 57.4811 814.999 56.8939 815.491 56.1364C815.993 55.3788 816.244 54.4886 816.244 53.4659C816.244 52.4811 816.027 51.6241 815.591 50.8949C815.155 50.1657 814.54 49.5975 813.744 49.1903C812.958 48.7831 812.03 48.5795 810.96 48.5795C809.956 48.5795 809.009 48.7642 808.119 49.1335C807.239 49.4934 806.519 50.0189 805.96 50.7102C805.402 51.392 805.098 52.2159 805.051 53.1818H801.642C801.699 51.6572 802.158 50.322 803.02 49.1761C803.882 48.0208 805.009 47.1212 806.401 46.4773C807.802 45.8333 809.341 45.5114 811.017 45.5114C812.816 45.5114 814.36 45.8759 815.648 46.6051C816.936 47.3248 817.925 48.2765 818.616 49.4602C819.308 50.6439 819.653 51.9223 819.653 53.2955C819.653 54.9337 819.223 56.3305 818.361 57.4858C817.509 58.6411 816.348 59.4413 814.881 59.8864V60.1136C816.718 60.4167 818.152 61.1979 819.185 62.4574C820.217 63.7074 820.733 65.2557 820.733 67.1023C820.733 68.6837 820.302 70.1042 819.44 71.3636C818.588 72.6136 817.423 73.5985 815.946 74.3182C814.469 75.0379 812.788 75.3977 810.903 75.3977Z" fill="white"/>
<path d="M442.939 190.061C443.525 190.646 444.475 190.646 445.061 190.061L454.607 180.515C455.192 179.929 455.192 178.979 454.607 178.393C454.021 177.808 453.071 177.808 452.485 178.393L444 186.879L435.515 178.393C434.929 177.808 433.979 177.808 433.393 178.393C432.808 178.979 432.808 179.929 433.393 180.515L442.939 190.061ZM444 189L445.5 189L445.5 146L444 146L442.5 146L442.5 189L444 189Z" fill="#727272"/>
</svg>
