<svg width="1005" height="617" viewBox="0 0 1005 617" fill="none" xmlns="http://www.w3.org/2000/svg">
<rect x="704" width="119" height="120" fill="#2D2D2D"/>
<rect x="706" y="370" width="119" height="120" rx="27" fill="#2D2D2D"/>
<rect x="182" y="1" width="119" height="120" fill="#2D2D2D"/>
<rect x="284" y="371" width="120" height="120" rx="27" fill="#2D2D2D"/>
<rect x="62" y="1" width="358" height="120" rx="26" stroke="#009966" stroke-width="2"/>
<rect x="285" y="371" width="118" height="120" rx="26" stroke="#009966" stroke-width="2"/>
<rect x="26" y="372" width="238" height="120" rx="26" stroke="#0098D4" stroke-width="2"/>
<rect x="584" y="1" width="358" height="120" rx="26" stroke="#E27C00" stroke-width="2"/>
<rect x="848" y="371" width="117" height="120" rx="26" stroke="#FF5555" stroke-width="2"/>
<rect x="707" y="369" width="118" height="120" rx="26" stroke="#E27C00" stroke-width="2"/>
<rect x="567" y="369" width="118" height="120" rx="26" stroke="#8200ED" stroke-width="2"/>
<rect x="443" y="1" width="118" height="120" rx="26" stroke="#DBDBDB" stroke-width="2"/>
<rect x="426" y="371" width="118" height="120" rx="26" stroke="#DBDBDB" stroke-width="2"/>
<line x1="182" y1="-4.37114e-08" x2="182" y2="122" stroke="#009966" stroke-width="2"/>
<line x1="145" y1="370" x2="145" y2="492" stroke="#0098D4" stroke-width="2"/>
<line x1="704" y1="-4.37114e-08" x2="704" y2="122" stroke="#E27C00" stroke-width="2"/>
<line x1="302" y1="-4.37114e-08" x2="302" y2="122" stroke="#009966" stroke-width="2"/>
<line x1="824" y1="-4.37114e-08" x2="824" y2="122" stroke="#E27C00" stroke-width="2"/>
<path d="M112.332 45.9091V75H108.81V49.6023H108.639L101.537 54.3182V50.7386L108.81 45.9091H112.332ZM120.699 75V72.4432L130.301 61.9318C131.428 60.7008 132.356 59.6307 133.085 58.7216C133.814 57.803 134.354 56.9413 134.705 56.1364C135.064 55.322 135.244 54.4697 135.244 53.5795C135.244 52.5568 134.998 51.6714 134.506 50.9233C134.023 50.1752 133.36 49.5975 132.517 49.1903C131.674 48.7831 130.727 48.5795 129.676 48.5795C128.559 48.5795 127.583 48.8116 126.75 49.2756C125.926 49.7301 125.287 50.3693 124.832 51.1932C124.387 52.017 124.165 52.983 124.165 54.0909H120.812C120.812 52.3864 121.205 50.8902 121.991 49.6023C122.777 48.3144 123.848 47.3106 125.202 46.5909C126.565 45.8712 128.095 45.5114 129.79 45.5114C131.494 45.5114 133.005 45.8712 134.321 46.5909C135.637 47.3106 136.67 48.2812 137.418 49.5028C138.166 50.7244 138.54 52.0833 138.54 53.5795C138.54 54.6496 138.346 55.696 137.957 56.7188C137.579 57.732 136.916 58.8636 135.969 60.1136C135.031 61.3542 133.729 62.8693 132.062 64.6591L125.528 71.6477V71.875H139.051V75H120.699Z" fill="white"/>
<path d="M75.3324 415.909V445H71.8097V419.602H71.6392L64.5369 424.318V420.739L71.8097 415.909H75.3324ZM83.6989 445V442.443L93.3011 431.932C94.428 430.701 95.3561 429.631 96.0852 428.722C96.8144 427.803 97.3542 426.941 97.7045 426.136C98.0644 425.322 98.2443 424.47 98.2443 423.58C98.2443 422.557 97.9981 421.671 97.5057 420.923C97.0227 420.175 96.3598 419.598 95.517 419.19C94.6742 418.783 93.7273 418.58 92.6761 418.58C91.5587 418.58 90.5833 418.812 89.75 419.276C88.9261 419.73 88.2869 420.369 87.8324 421.193C87.3873 422.017 87.1648 422.983 87.1648 424.091H83.8125C83.8125 422.386 84.2055 420.89 84.9915 419.602C85.7775 418.314 86.8475 417.311 88.2017 416.591C89.5653 415.871 91.0947 415.511 92.7898 415.511C94.4943 415.511 96.0047 415.871 97.321 416.591C98.6373 417.311 99.6695 418.281 100.418 419.503C101.166 420.724 101.54 422.083 101.54 423.58C101.54 424.65 101.346 425.696 100.957 426.719C100.579 427.732 99.9157 428.864 98.9688 430.114C98.0312 431.354 96.7292 432.869 95.0625 434.659L88.5284 441.648V441.875H102.051V445H83.6989Z" fill="white"/>
<path d="M621.976 75V72.4432L631.578 61.9318C632.705 60.7008 633.633 59.6307 634.363 58.7216C635.092 57.803 635.632 56.9413 635.982 56.1364C636.342 55.322 636.522 54.4697 636.522 53.5795C636.522 52.5568 636.275 51.6714 635.783 50.9233C635.3 50.1752 634.637 49.5975 633.794 49.1903C632.952 48.7831 632.005 48.5795 630.953 48.5795C629.836 48.5795 628.861 48.8116 628.027 49.2756C627.203 49.7301 626.564 50.3693 626.11 51.1932C625.665 52.017 625.442 52.983 625.442 54.0909H622.09C622.09 52.3864 622.483 50.8902 623.269 49.6023C624.055 48.3144 625.125 47.3106 626.479 46.5909C627.843 45.8712 629.372 45.5114 631.067 45.5114C632.772 45.5114 634.282 45.8712 635.598 46.5909C636.915 47.3106 637.947 48.2812 638.695 49.5028C639.443 50.7244 639.817 52.0833 639.817 53.5795C639.817 54.6496 639.623 55.696 639.235 56.7188C638.856 57.732 638.193 58.8636 637.246 60.1136C636.309 61.3542 635.007 62.8693 633.34 64.6591L626.806 71.6477V71.875H640.328V75H621.976ZM647.104 75L660.115 49.2614V49.0341H645.115V45.9091H663.752V49.2045L650.797 75H647.104Z" fill="white"/>
<path d="M604.976 445V442.443L614.578 431.932C615.705 430.701 616.633 429.631 617.363 428.722C618.092 427.803 618.632 426.941 618.982 426.136C619.342 425.322 619.522 424.47 619.522 423.58C619.522 422.557 619.275 421.671 618.783 420.923C618.3 420.175 617.637 419.598 616.794 419.19C615.952 418.783 615.005 418.58 613.953 418.58C612.836 418.58 611.861 418.812 611.027 419.276C610.203 419.73 609.564 420.369 609.11 421.193C608.665 422.017 608.442 422.983 608.442 424.091H605.09C605.09 422.386 605.483 420.89 606.269 419.602C607.055 418.314 608.125 417.311 609.479 416.591C610.843 415.871 612.372 415.511 614.067 415.511C615.772 415.511 617.282 415.871 618.598 416.591C619.915 417.311 620.947 418.281 621.695 419.503C622.443 420.724 622.817 422.083 622.817 423.58C622.817 424.65 622.623 425.696 622.235 426.719C621.856 427.732 621.193 428.864 620.246 430.114C619.309 431.354 618.007 432.869 616.34 434.659L609.806 441.648V441.875H623.328V445H604.976ZM630.104 445L643.115 419.261V419.034H628.115V415.909H646.752V419.205L633.797 445H630.104Z" fill="white"/>
<path d="M232.118 45.9091V75H228.595V49.6023H228.424L221.322 54.3182V50.7386L228.595 45.9091H232.118ZM249.802 75.3977C247.851 75.3977 246.128 75.0521 244.632 74.3608C243.145 73.66 241.985 72.6989 241.152 71.4773C240.318 70.2462 239.906 68.8447 239.916 67.2727C239.906 66.0417 240.148 64.9053 240.64 63.8636C241.133 62.8125 241.805 61.9366 242.657 61.2358C243.519 60.5256 244.48 60.0758 245.541 59.8864V59.7159C244.149 59.3561 243.041 58.5748 242.217 57.3722C241.393 56.16 240.986 54.7822 240.995 53.2386C240.986 51.7614 241.36 50.4403 242.118 49.2756C242.875 48.1108 243.917 47.1922 245.243 46.5199C246.578 45.8475 248.098 45.5114 249.802 45.5114C251.488 45.5114 252.993 45.8475 254.319 46.5199C255.645 47.1922 256.687 48.1108 257.444 49.2756C258.211 50.4403 258.6 51.7614 258.609 53.2386C258.6 54.7822 258.178 56.16 257.345 57.3722C256.521 58.5748 255.427 59.3561 254.064 59.7159V59.8864C255.115 60.0758 256.062 60.5256 256.904 61.2358C257.747 61.9366 258.42 62.8125 258.922 63.8636C259.423 64.9053 259.679 66.0417 259.689 67.2727C259.679 68.8447 259.253 70.2462 258.41 71.4773C257.577 72.6989 256.417 73.66 254.93 74.3608C253.453 75.0521 251.743 75.3977 249.802 75.3977ZM249.802 72.2727C251.118 72.2727 252.255 72.0597 253.211 71.6335C254.168 71.2074 254.906 70.6061 255.427 69.8295C255.948 69.053 256.213 68.1439 256.223 67.1023C256.213 66.0038 255.929 65.0331 255.37 64.1903C254.812 63.3475 254.049 62.6847 253.083 62.2017C252.127 61.7187 251.033 61.4773 249.802 61.4773C248.562 61.4773 247.454 61.7187 246.478 62.2017C245.512 62.6847 244.75 63.3475 244.191 64.1903C243.642 65.0331 243.372 66.0038 243.382 67.1023C243.372 68.1439 243.623 69.053 244.135 69.8295C244.655 70.6061 245.399 71.2074 246.365 71.6335C247.331 72.0597 248.476 72.2727 249.802 72.2727ZM249.802 58.4659C250.844 58.4659 251.767 58.2576 252.572 57.8409C253.386 57.4242 254.026 56.8419 254.49 56.0938C254.954 55.3456 255.19 54.4697 255.2 53.4659C255.19 52.4811 254.958 51.6241 254.504 50.8949C254.049 50.1562 253.42 49.5881 252.615 49.1903C251.81 48.7831 250.872 48.5795 249.802 48.5795C248.713 48.5795 247.761 48.7831 246.947 49.1903C246.133 49.5881 245.503 50.1562 245.058 50.8949C244.613 51.6241 244.395 52.4811 244.404 53.4659C244.395 54.4697 244.618 55.3456 245.072 56.0938C245.536 56.8419 246.175 57.4242 246.99 57.8409C247.804 58.2576 248.742 58.4659 249.802 58.4659Z" fill="white"/>
<path d="M194.707 415.909V445H191.185V419.602H191.014L183.912 424.318V420.739L191.185 415.909H194.707ZM212.903 445.398C211.028 445.398 209.357 445.076 207.889 444.432C206.431 443.788 205.271 442.893 204.409 441.747C203.557 440.592 203.093 439.252 203.017 437.727H206.597C206.672 438.665 206.994 439.474 207.562 440.156C208.131 440.829 208.874 441.349 209.793 441.719C210.711 442.088 211.729 442.273 212.847 442.273C214.097 442.273 215.205 442.055 216.17 441.619C217.136 441.184 217.894 440.578 218.443 439.801C218.992 439.025 219.267 438.125 219.267 437.102C219.267 436.032 219.002 435.09 218.472 434.276C217.941 433.452 217.165 432.808 216.142 432.344C215.119 431.88 213.869 431.648 212.392 431.648H210.062V428.523H212.392C213.547 428.523 214.561 428.314 215.432 427.898C216.313 427.481 216.999 426.894 217.491 426.136C217.993 425.379 218.244 424.489 218.244 423.466C218.244 422.481 218.027 421.624 217.591 420.895C217.155 420.166 216.54 419.598 215.744 419.19C214.958 418.783 214.03 418.58 212.96 418.58C211.956 418.58 211.009 418.764 210.119 419.134C209.239 419.493 208.519 420.019 207.96 420.71C207.402 421.392 207.098 422.216 207.051 423.182H203.642C203.699 421.657 204.158 420.322 205.02 419.176C205.882 418.021 207.009 417.121 208.401 416.477C209.802 415.833 211.341 415.511 213.017 415.511C214.816 415.511 216.36 415.876 217.648 416.605C218.936 417.325 219.925 418.277 220.616 419.46C221.308 420.644 221.653 421.922 221.653 423.295C221.653 424.934 221.223 426.33 220.361 427.486C219.509 428.641 218.348 429.441 216.881 429.886V430.114C218.718 430.417 220.152 431.198 221.185 432.457C222.217 433.707 222.733 435.256 222.733 437.102C222.733 438.684 222.302 440.104 221.44 441.364C220.588 442.614 219.423 443.598 217.946 444.318C216.469 445.038 214.788 445.398 212.903 445.398Z" fill="white"/>
<path d="M750.497 75.3977C748.622 75.3977 746.951 75.0758 745.483 74.4318C744.025 73.7879 742.865 72.893 742.003 71.7472C741.151 70.5919 740.687 69.2519 740.611 67.7273H744.19C744.266 68.6648 744.588 69.4744 745.156 70.1562C745.724 70.8286 746.468 71.3494 747.386 71.7188C748.305 72.0881 749.323 72.2727 750.44 72.2727C751.69 72.2727 752.798 72.0549 753.764 71.6193C754.73 71.1837 755.488 70.5777 756.037 69.8011C756.586 69.0246 756.861 68.125 756.861 67.1023C756.861 66.0322 756.596 65.09 756.065 64.2756C755.535 63.4517 754.759 62.8078 753.736 62.3438C752.713 61.8797 751.463 61.6477 749.986 61.6477H747.656V58.5227H749.986C751.141 58.5227 752.154 58.3144 753.026 57.8977C753.906 57.4811 754.593 56.8939 755.085 56.1364C755.587 55.3788 755.838 54.4886 755.838 53.4659C755.838 52.4811 755.62 51.6241 755.185 50.8949C754.749 50.1657 754.134 49.5975 753.338 49.1903C752.552 48.7831 751.624 48.5795 750.554 48.5795C749.55 48.5795 748.603 48.7642 747.713 49.1335C746.832 49.4934 746.113 50.0189 745.554 50.7102C744.995 51.392 744.692 52.2159 744.645 53.1818H741.236C741.293 51.6572 741.752 50.322 742.614 49.1761C743.475 48.0208 744.602 47.1212 745.994 46.4773C747.396 45.8333 748.935 45.5114 750.611 45.5114C752.41 45.5114 753.954 45.8759 755.241 46.6051C756.529 47.3248 757.519 48.2765 758.21 49.4602C758.902 50.6439 759.247 51.9223 759.247 53.2955C759.247 54.9337 758.816 56.3305 757.955 57.4858C757.102 58.6411 755.942 59.4413 754.474 59.8864V60.1136C756.312 60.4167 757.746 61.1979 758.778 62.4574C759.811 63.7074 760.327 65.2557 760.327 67.1023C760.327 68.6837 759.896 70.1042 759.034 71.3636C758.182 72.6136 757.017 73.5985 755.54 74.3182C754.063 75.0379 752.382 75.3977 750.497 75.3977ZM766.136 75V72.4432L775.739 61.9318C776.866 60.7008 777.794 59.6307 778.523 58.7216C779.252 57.803 779.792 56.9413 780.142 56.1364C780.502 55.322 780.682 54.4697 780.682 53.5795C780.682 52.5568 780.436 51.6714 779.943 50.9233C779.46 50.1752 778.797 49.5975 777.955 49.1903C777.112 48.7831 776.165 48.5795 775.114 48.5795C773.996 48.5795 773.021 48.8116 772.188 49.2756C771.364 49.7301 770.724 50.3693 770.27 51.1932C769.825 52.017 769.602 52.983 769.602 54.0909H766.25C766.25 52.3864 766.643 50.8902 767.429 49.6023C768.215 48.3144 769.285 47.3106 770.639 46.5909C772.003 45.8712 773.532 45.5114 775.227 45.5114C776.932 45.5114 778.442 45.8712 779.759 46.5909C781.075 47.3106 782.107 48.2812 782.855 49.5028C783.603 50.7244 783.977 52.0833 783.977 53.5795C783.977 54.6496 783.783 55.696 783.395 56.7188C783.016 57.732 782.353 58.8636 781.406 60.1136C780.469 61.3542 779.167 62.8693 777.5 64.6591L770.966 71.6477V71.875H784.489V75H766.136Z" fill="white"/>
<path d="M753.497 445.398C751.622 445.398 749.951 445.076 748.483 444.432C747.025 443.788 745.865 442.893 745.003 441.747C744.151 440.592 743.687 439.252 743.611 437.727H747.19C747.266 438.665 747.588 439.474 748.156 440.156C748.724 440.829 749.468 441.349 750.386 441.719C751.305 442.088 752.323 442.273 753.44 442.273C754.69 442.273 755.798 442.055 756.764 441.619C757.73 441.184 758.488 440.578 759.037 439.801C759.586 439.025 759.861 438.125 759.861 437.102C759.861 436.032 759.596 435.09 759.065 434.276C758.535 433.452 757.759 432.808 756.736 432.344C755.713 431.88 754.463 431.648 752.986 431.648H750.656V428.523H752.986C754.141 428.523 755.154 428.314 756.026 427.898C756.906 427.481 757.593 426.894 758.085 426.136C758.587 425.379 758.838 424.489 758.838 423.466C758.838 422.481 758.62 421.624 758.185 420.895C757.749 420.166 757.134 419.598 756.338 419.19C755.552 418.783 754.624 418.58 753.554 418.58C752.55 418.58 751.603 418.764 750.713 419.134C749.832 419.493 749.113 420.019 748.554 420.71C747.995 421.392 747.692 422.216 747.645 423.182H744.236C744.293 421.657 744.752 420.322 745.614 419.176C746.475 418.021 747.602 417.121 748.994 416.477C750.396 415.833 751.935 415.511 753.611 415.511C755.41 415.511 756.954 415.876 758.241 416.605C759.529 417.325 760.519 418.277 761.21 419.46C761.902 420.644 762.247 421.922 762.247 423.295C762.247 424.934 761.816 426.33 760.955 427.486C760.102 428.641 758.942 429.441 757.474 429.886V430.114C759.312 430.417 760.746 431.198 761.778 432.457C762.811 433.707 763.327 435.256 763.327 437.102C763.327 438.684 762.896 440.104 762.034 441.364C761.182 442.614 760.017 443.598 758.54 444.318C757.063 445.038 755.382 445.398 753.497 445.398ZM769.136 445V442.443L778.739 431.932C779.866 430.701 780.794 429.631 781.523 428.722C782.252 427.803 782.792 426.941 783.142 426.136C783.502 425.322 783.682 424.47 783.682 423.58C783.682 422.557 783.436 421.671 782.943 420.923C782.46 420.175 781.797 419.598 780.955 419.19C780.112 418.783 779.165 418.58 778.114 418.58C776.996 418.58 776.021 418.812 775.188 419.276C774.364 419.73 773.724 420.369 773.27 421.193C772.825 422.017 772.602 422.983 772.602 424.091H769.25C769.25 422.386 769.643 420.89 770.429 419.602C771.215 418.314 772.285 417.311 773.639 416.591C775.003 415.871 776.532 415.511 778.227 415.511C779.932 415.511 781.442 415.871 782.759 416.591C784.075 417.311 785.107 418.281 785.855 419.503C786.603 420.724 786.977 422.083 786.977 423.58C786.977 424.65 786.783 425.696 786.395 426.719C786.016 427.732 785.353 428.864 784.406 430.114C783.469 431.354 782.167 432.869 780.5 434.659L773.966 441.648V441.875H787.489V445H769.136Z" fill="white"/>
<path d="M351.707 45.9091V75H348.185V49.6023H348.014L340.912 54.3182V50.7386L348.185 45.9091H351.707ZM369.903 75.3977C368.028 75.3977 366.357 75.0758 364.889 74.4318C363.431 73.7879 362.271 72.893 361.409 71.7472C360.557 70.5919 360.093 69.2519 360.017 67.7273H363.597C363.672 68.6648 363.994 69.4744 364.562 70.1562C365.131 70.8286 365.874 71.3494 366.793 71.7188C367.711 72.0881 368.729 72.2727 369.847 72.2727C371.097 72.2727 372.205 72.0549 373.17 71.6193C374.136 71.1837 374.894 70.5777 375.443 69.8011C375.992 69.0246 376.267 68.125 376.267 67.1023C376.267 66.0322 376.002 65.09 375.472 64.2756C374.941 63.4517 374.165 62.8078 373.142 62.3438C372.119 61.8797 370.869 61.6477 369.392 61.6477H367.062V58.5227H369.392C370.547 58.5227 371.561 58.3144 372.432 57.8977C373.313 57.4811 373.999 56.8939 374.491 56.1364C374.993 55.3788 375.244 54.4886 375.244 53.4659C375.244 52.4811 375.027 51.6241 374.591 50.8949C374.155 50.1657 373.54 49.5975 372.744 49.1903C371.958 48.7831 371.03 48.5795 369.96 48.5795C368.956 48.5795 368.009 48.7642 367.119 49.1335C366.239 49.4934 365.519 50.0189 364.96 50.7102C364.402 51.392 364.098 52.2159 364.051 53.1818H360.642C360.699 51.6572 361.158 50.322 362.02 49.1761C362.882 48.0208 364.009 47.1212 365.401 46.4773C366.802 45.8333 368.341 45.5114 370.017 45.5114C371.816 45.5114 373.36 45.8759 374.648 46.6051C375.936 47.3248 376.925 48.2765 377.616 49.4602C378.308 50.6439 378.653 51.9223 378.653 53.2955C378.653 54.9337 378.223 56.3305 377.361 57.4858C376.509 58.6411 375.348 59.4413 373.881 59.8864V60.1136C375.718 60.4167 377.152 61.1979 378.185 62.4574C379.217 63.7074 379.733 65.2557 379.733 67.1023C379.733 68.6837 379.302 70.1042 378.44 71.3636C377.588 72.6136 376.423 73.5985 374.946 74.3182C373.469 75.0379 371.788 75.3977 369.903 75.3977Z" fill="white"/>
<path d="M335.118 415.909V445H331.595V419.602H331.424L324.322 424.318V420.739L331.595 415.909H335.118ZM352.802 445.398C350.851 445.398 349.128 445.052 347.632 444.361C346.145 443.66 344.985 442.699 344.152 441.477C343.318 440.246 342.906 438.845 342.916 437.273C342.906 436.042 343.148 434.905 343.64 433.864C344.133 432.812 344.805 431.937 345.657 431.236C346.519 430.526 347.48 430.076 348.541 429.886V429.716C347.149 429.356 346.041 428.575 345.217 427.372C344.393 426.16 343.986 424.782 343.995 423.239C343.986 421.761 344.36 420.44 345.118 419.276C345.875 418.111 346.917 417.192 348.243 416.52C349.578 415.848 351.098 415.511 352.802 415.511C354.488 415.511 355.993 415.848 357.319 416.52C358.645 417.192 359.687 418.111 360.444 419.276C361.211 420.44 361.6 421.761 361.609 423.239C361.6 424.782 361.178 426.16 360.345 427.372C359.521 428.575 358.427 429.356 357.064 429.716V429.886C358.115 430.076 359.062 430.526 359.904 431.236C360.747 431.937 361.42 432.812 361.922 433.864C362.423 434.905 362.679 436.042 362.689 437.273C362.679 438.845 362.253 440.246 361.41 441.477C360.577 442.699 359.417 443.66 357.93 444.361C356.453 445.052 354.743 445.398 352.802 445.398ZM352.802 442.273C354.118 442.273 355.255 442.06 356.211 441.634C357.168 441.207 357.906 440.606 358.427 439.83C358.948 439.053 359.213 438.144 359.223 437.102C359.213 436.004 358.929 435.033 358.37 434.19C357.812 433.348 357.049 432.685 356.083 432.202C355.127 431.719 354.033 431.477 352.802 431.477C351.562 431.477 350.454 431.719 349.478 432.202C348.512 432.685 347.75 433.348 347.191 434.19C346.642 435.033 346.372 436.004 346.382 437.102C346.372 438.144 346.623 439.053 347.135 439.83C347.655 440.606 348.399 441.207 349.365 441.634C350.331 442.06 351.476 442.273 352.802 442.273ZM352.802 428.466C353.844 428.466 354.767 428.258 355.572 427.841C356.386 427.424 357.026 426.842 357.49 426.094C357.954 425.346 358.19 424.47 358.2 423.466C358.19 422.481 357.958 421.624 357.504 420.895C357.049 420.156 356.42 419.588 355.615 419.19C354.81 418.783 353.872 418.58 352.802 418.58C351.713 418.58 350.761 418.783 349.947 419.19C349.133 419.588 348.503 420.156 348.058 420.895C347.613 421.624 347.395 422.481 347.404 423.466C347.395 424.47 347.618 425.346 348.072 426.094C348.536 426.842 349.175 427.424 349.99 427.841C350.804 428.258 351.742 428.466 352.802 428.466Z" fill="white"/>
<path d="M860.572 69.0341V66.1364L873.356 45.9091H875.458V50.3977H874.038L864.379 65.6818V65.9091H881.594V69.0341H860.572ZM874.265 75V68.1534V66.804V45.9091H877.617V75H874.265ZM887.827 75L900.838 49.2614V49.0341H885.838V45.9091H904.474V49.2045L891.52 75H887.827Z" fill="white"/>
<path d="M883.572 439.034V436.136L896.356 415.909H898.458V420.398H897.038L887.379 435.682V435.909H904.594V439.034H883.572ZM897.265 445V438.153V436.804V415.909H900.617V445H897.265ZM910.827 445L923.838 419.261V419.034H908.838V415.909H927.474V419.205L914.52 445H910.827Z" fill="white"/>
<path d="M492.961 45.9091V75H489.439V49.6023H489.268L482.166 54.3182V50.7386L489.439 45.9091H492.961ZM510.589 45.5114C511.782 45.5208 512.975 45.7481 514.169 46.1932C515.362 46.6383 516.451 47.3769 517.436 48.4091C518.421 49.4318 519.211 50.8286 519.808 52.5994C520.404 54.3703 520.703 56.5909 520.703 59.2614C520.703 61.8466 520.457 64.143 519.964 66.1506C519.481 68.1487 518.78 69.8343 517.862 71.2074C516.953 72.5805 515.845 73.6222 514.538 74.3324C513.241 75.0426 511.773 75.3977 510.135 75.3977C508.506 75.3977 507.052 75.0758 505.774 74.4318C504.505 73.7784 503.463 72.8741 502.649 71.7188C501.844 70.554 501.328 69.2045 501.1 67.6705H504.566C504.879 69.0057 505.499 70.1089 506.427 70.9801C507.365 71.8419 508.6 72.2727 510.135 72.2727C512.379 72.2727 514.15 71.2926 515.447 69.3324C516.754 67.3722 517.407 64.6023 517.407 61.0227H517.18C516.65 61.8182 516.02 62.5047 515.291 63.0824C514.562 63.66 513.752 64.1051 512.862 64.4176C511.972 64.7301 511.025 64.8864 510.021 64.8864C508.354 64.8864 506.825 64.4744 505.433 63.6506C504.05 62.8172 502.942 61.6761 502.109 60.2273C501.285 58.7689 500.873 57.1023 500.873 55.2273C500.873 53.447 501.271 51.8182 502.066 50.3409C502.871 48.8542 503.998 47.6705 505.447 46.7898C506.905 45.9091 508.619 45.483 510.589 45.5114ZM510.589 48.6364C509.396 48.6364 508.321 48.9347 507.365 49.5312C506.418 50.1184 505.665 50.9138 505.106 51.9176C504.557 52.9119 504.282 54.0152 504.282 55.2273C504.282 56.4394 504.547 57.5426 505.078 58.5369C505.618 59.5218 506.351 60.3078 507.279 60.8949C508.217 61.4725 509.282 61.7614 510.475 61.7614C511.375 61.7614 512.213 61.5862 512.99 61.2358C513.766 60.8759 514.443 60.3883 515.021 59.7727C515.608 59.1477 516.067 58.4422 516.399 57.6562C516.73 56.8608 516.896 56.0322 516.896 55.1705C516.896 54.0341 516.621 52.9687 516.072 51.9744C515.532 50.9801 514.784 50.1752 513.828 49.5597C512.881 48.9441 511.801 48.6364 510.589 48.6364Z" fill="white"/>
<path d="M475.961 415.909V445H472.439V419.602H472.268L465.166 424.318V420.739L472.439 415.909H475.961ZM493.589 415.511C494.782 415.521 495.975 415.748 497.169 416.193C498.362 416.638 499.451 417.377 500.436 418.409C501.421 419.432 502.211 420.829 502.808 422.599C503.404 424.37 503.703 426.591 503.703 429.261C503.703 431.847 503.457 434.143 502.964 436.151C502.481 438.149 501.78 439.834 500.862 441.207C499.953 442.58 498.845 443.622 497.538 444.332C496.241 445.043 494.773 445.398 493.135 445.398C491.506 445.398 490.052 445.076 488.774 444.432C487.505 443.778 486.463 442.874 485.649 441.719C484.844 440.554 484.328 439.205 484.1 437.67H487.566C487.879 439.006 488.499 440.109 489.427 440.98C490.365 441.842 491.6 442.273 493.135 442.273C495.379 442.273 497.15 441.293 498.447 439.332C499.754 437.372 500.407 434.602 500.407 431.023H500.18C499.65 431.818 499.02 432.505 498.291 433.082C497.562 433.66 496.752 434.105 495.862 434.418C494.972 434.73 494.025 434.886 493.021 434.886C491.354 434.886 489.825 434.474 488.433 433.651C487.05 432.817 485.942 431.676 485.109 430.227C484.285 428.769 483.873 427.102 483.873 425.227C483.873 423.447 484.271 421.818 485.066 420.341C485.871 418.854 486.998 417.67 488.447 416.79C489.905 415.909 491.619 415.483 493.589 415.511ZM493.589 418.636C492.396 418.636 491.321 418.935 490.365 419.531C489.418 420.118 488.665 420.914 488.106 421.918C487.557 422.912 487.282 424.015 487.282 425.227C487.282 426.439 487.547 427.543 488.078 428.537C488.618 429.522 489.351 430.308 490.279 430.895C491.217 431.473 492.282 431.761 493.475 431.761C494.375 431.761 495.213 431.586 495.99 431.236C496.766 430.876 497.443 430.388 498.021 429.773C498.608 429.148 499.067 428.442 499.399 427.656C499.73 426.861 499.896 426.032 499.896 425.17C499.896 424.034 499.621 422.969 499.072 421.974C498.532 420.98 497.784 420.175 496.828 419.56C495.881 418.944 494.801 418.636 493.589 418.636Z" fill="white"/>
<path d="M202.219 233V208.273H210.574C212.514 208.273 214.1 208.623 215.331 209.323C216.571 210.015 217.488 210.953 218.084 212.136C218.68 213.32 218.977 214.64 218.977 216.097C218.977 217.554 218.68 218.878 218.084 220.069C217.496 221.26 216.587 222.21 215.355 222.918C214.124 223.619 212.546 223.969 210.622 223.969H204.634V221.312H210.526C211.854 221.312 212.92 221.083 213.725 220.624C214.53 220.165 215.114 219.546 215.476 218.765C215.846 217.976 216.031 217.087 216.031 216.097C216.031 215.107 215.846 214.221 215.476 213.44C215.114 212.66 214.526 212.048 213.713 211.605C212.9 211.154 211.822 210.929 210.477 210.929H205.213V233H202.219ZM223.415 233V214.455H226.264V233H223.415ZM224.863 211.364C224.308 211.364 223.829 211.174 223.427 210.796C223.032 210.418 222.835 209.963 222.835 209.432C222.835 208.901 223.032 208.446 223.427 208.067C223.829 207.689 224.308 207.5 224.863 207.5C225.419 207.5 225.894 207.689 226.288 208.067C226.691 208.446 226.892 208.901 226.892 209.432C226.892 209.963 226.691 210.418 226.288 210.796C225.894 211.174 225.419 211.364 224.863 211.364ZM246.648 214.455L239.79 233H236.892L230.034 214.455H233.125L238.244 229.233H238.438L243.557 214.455H246.648ZM257.279 233.386C255.605 233.386 254.136 232.988 252.872 232.191C251.616 231.394 250.634 230.279 249.926 228.847C249.225 227.414 248.875 225.74 248.875 223.824C248.875 221.892 249.225 220.206 249.926 218.765C250.634 217.324 251.616 216.205 252.872 215.408C254.136 214.612 255.605 214.213 257.279 214.213C258.953 214.213 260.418 214.612 261.674 215.408C262.937 216.205 263.919 217.324 264.62 218.765C265.328 220.206 265.682 221.892 265.682 223.824C265.682 225.74 265.328 227.414 264.62 228.847C263.919 230.279 262.937 231.394 261.674 232.191C260.418 232.988 258.953 233.386 257.279 233.386ZM257.279 230.827C258.551 230.827 259.597 230.501 260.418 229.849C261.239 229.197 261.847 228.339 262.241 227.277C262.636 226.214 262.833 225.063 262.833 223.824C262.833 222.584 262.636 221.429 262.241 220.359C261.847 219.288 261.239 218.423 260.418 217.763C259.597 217.103 258.551 216.773 257.279 216.773C256.007 216.773 254.961 217.103 254.14 217.763C253.319 218.423 252.711 219.288 252.316 220.359C251.922 221.429 251.725 222.584 251.725 223.824C251.725 225.063 251.922 226.214 252.316 227.277C252.711 228.339 253.319 229.197 254.14 229.849C254.961 230.501 256.007 230.827 257.279 230.827ZM278.097 214.455V216.869H268.486V214.455H278.097ZM271.287 210.011H274.137V227.688C274.137 228.492 274.254 229.096 274.487 229.499C274.729 229.893 275.034 230.159 275.405 230.295C275.783 230.424 276.181 230.489 276.6 230.489C276.914 230.489 277.171 230.473 277.373 230.44C277.574 230.4 277.735 230.368 277.856 230.344L278.435 232.903C278.242 232.976 277.972 233.048 277.626 233.121C277.28 233.201 276.841 233.241 276.31 233.241C275.505 233.241 274.716 233.068 273.944 232.722C273.179 232.376 272.543 231.849 272.036 231.141C271.537 230.432 271.287 229.539 271.287 228.46V210.011Z" fill="#727272"/>
<path d="M725.219 233V208.273H733.574C735.514 208.273 737.1 208.623 738.331 209.323C739.571 210.015 740.488 210.953 741.084 212.136C741.68 213.32 741.977 214.64 741.977 216.097C741.977 217.554 741.68 218.878 741.084 220.069C740.496 221.26 739.587 222.21 738.355 222.918C737.124 223.619 735.546 223.969 733.622 223.969H727.634V221.312H733.526C734.854 221.312 735.92 221.083 736.725 220.624C737.53 220.165 738.114 219.546 738.476 218.765C738.846 217.976 739.031 217.087 739.031 216.097C739.031 215.107 738.846 214.221 738.476 213.44C738.114 212.66 737.526 212.048 736.713 211.605C735.9 211.154 734.822 210.929 733.477 210.929H728.213V233H725.219ZM746.415 233V214.455H749.264V233H746.415ZM747.863 211.364C747.308 211.364 746.829 211.174 746.427 210.796C746.032 210.418 745.835 209.963 745.835 209.432C745.835 208.901 746.032 208.446 746.427 208.067C746.829 207.689 747.308 207.5 747.863 207.5C748.419 207.5 748.894 207.689 749.288 208.067C749.691 208.446 749.892 208.901 749.892 209.432C749.892 209.963 749.691 210.418 749.288 210.796C748.894 211.174 748.419 211.364 747.863 211.364ZM769.648 214.455L762.79 233H759.892L753.034 214.455H756.125L761.244 229.233H761.438L766.557 214.455H769.648ZM780.279 233.386C778.605 233.386 777.136 232.988 775.872 232.191C774.616 231.394 773.634 230.279 772.926 228.847C772.225 227.414 771.875 225.74 771.875 223.824C771.875 221.892 772.225 220.206 772.926 218.765C773.634 217.324 774.616 216.205 775.872 215.408C777.136 214.612 778.605 214.213 780.279 214.213C781.953 214.213 783.418 214.612 784.674 215.408C785.937 216.205 786.919 217.324 787.62 218.765C788.328 220.206 788.682 221.892 788.682 223.824C788.682 225.74 788.328 227.414 787.62 228.847C786.919 230.279 785.937 231.394 784.674 232.191C783.418 232.988 781.953 233.386 780.279 233.386ZM780.279 230.827C781.551 230.827 782.597 230.501 783.418 229.849C784.239 229.197 784.847 228.339 785.241 227.277C785.636 226.214 785.833 225.063 785.833 223.824C785.833 222.584 785.636 221.429 785.241 220.359C784.847 219.288 784.239 218.423 783.418 217.763C782.597 217.103 781.551 216.773 780.279 216.773C779.007 216.773 777.961 217.103 777.14 217.763C776.319 218.423 775.711 219.288 775.316 220.359C774.922 221.429 774.725 222.584 774.725 223.824C774.725 225.063 774.922 226.214 775.316 227.277C775.711 228.339 776.319 229.197 777.14 229.849C777.961 230.501 779.007 230.827 780.279 230.827ZM801.097 214.455V216.869H791.486V214.455H801.097ZM794.287 210.011H797.137V227.688C797.137 228.492 797.254 229.096 797.487 229.499C797.729 229.893 798.034 230.159 798.405 230.295C798.783 230.424 799.181 230.489 799.6 230.489C799.914 230.489 800.171 230.473 800.373 230.44C800.574 230.4 800.735 230.368 800.856 230.344L801.435 232.903C801.242 232.976 800.972 233.048 800.626 233.121C800.28 233.201 799.841 233.241 799.31 233.241C798.505 233.241 797.716 233.068 796.944 232.722C796.179 232.376 795.543 231.849 795.036 231.141C794.537 230.432 794.287 229.539 794.287 228.46V210.011Z" fill="#727272"/>
<path d="M16.685 561.455C16.5401 560.231 15.9525 559.281 14.9222 558.605C13.8919 557.929 12.6282 557.591 11.131 557.591C10.0363 557.591 9.07848 557.768 8.25746 558.122C7.44448 558.476 6.80859 558.963 6.34979 559.583C5.89903 560.203 5.67365 560.907 5.67365 561.696C5.67365 562.356 5.83061 562.924 6.14453 563.398C6.4665 563.865 6.87701 564.256 7.37607 564.57C7.87512 564.875 8.39832 565.129 8.94567 565.33C9.49302 565.523 9.99609 565.68 10.4549 565.801L12.9663 566.477C13.6102 566.646 14.3266 566.88 15.1154 567.178C15.9123 567.475 16.6729 567.882 17.3974 568.397C18.1299 568.904 18.7335 569.556 19.2085 570.353C19.6834 571.15 19.9208 572.128 19.9208 573.287C19.9208 574.623 19.5707 575.83 18.8704 576.909C18.1781 577.988 17.1639 578.845 15.8278 579.481C14.4996 580.117 12.8858 580.435 10.9862 580.435C9.21532 580.435 7.68194 580.149 6.38601 579.577C5.09813 579.006 4.08393 578.209 3.3434 577.187C2.61091 576.165 2.19638 574.977 2.09979 573.625H5.1907C5.27119 574.559 5.58511 575.331 6.13246 575.943C6.68786 576.547 7.38814 576.998 8.23331 577.295C9.08653 577.585 10.0041 577.73 10.9862 577.73C12.1291 577.73 13.1554 577.545 14.065 577.175C14.9746 576.796 15.695 576.273 16.2262 575.605C16.7575 574.929 17.0231 574.14 17.0231 573.239C17.0231 572.418 16.7937 571.75 16.3349 571.234C15.8761 570.719 15.2724 570.301 14.5238 569.979C13.7752 569.657 12.9663 569.375 12.0969 569.134L9.05433 568.264C7.12251 567.709 5.59316 566.916 4.46626 565.886C3.33937 564.855 2.77592 563.507 2.77592 561.841C2.77592 560.456 3.15021 559.249 3.89879 558.219C4.65542 557.18 5.66963 556.375 6.94141 555.804C8.22124 555.224 9.64998 554.935 11.2276 554.935C12.8214 554.935 14.238 555.22 15.4776 555.792C16.7172 556.355 17.6992 557.128 18.4237 558.11C19.1561 559.092 19.5425 560.207 19.5827 561.455H16.685ZM24.4576 580V561.455H27.2104V564.352H27.4519C27.8382 563.362 28.4621 562.594 29.3233 562.046C30.1846 561.491 31.2189 561.213 32.4263 561.213C33.6498 561.213 34.668 561.491 35.481 562.046C36.302 562.594 36.9419 563.362 37.4007 564.352H37.5939C38.0688 563.394 38.7812 562.634 39.731 562.07C40.6808 561.499 41.8198 561.213 43.1479 561.213C44.806 561.213 46.1623 561.732 47.2168 562.771C48.2712 563.801 48.7985 565.407 48.7985 567.588V580H45.949V567.588C45.949 566.22 45.5748 565.242 44.8262 564.654C44.0776 564.067 43.1962 563.773 42.182 563.773C40.878 563.773 39.8678 564.167 39.1515 564.956C38.4351 565.737 38.0769 566.727 38.0769 567.926V580H35.1792V567.298C35.1792 566.244 34.8371 565.395 34.1529 564.751C33.4687 564.099 32.5873 563.773 31.5087 563.773C30.7682 563.773 30.0759 563.97 29.432 564.364C28.7961 564.759 28.281 565.306 27.8865 566.006C27.5002 566.699 27.307 567.5 27.307 568.409V580H24.4576ZM59.4657 580.435C58.2905 580.435 57.224 580.213 56.2662 579.771C55.3083 579.32 54.5476 578.672 53.9842 577.827C53.4208 576.973 53.139 575.943 53.139 574.736C53.139 573.673 53.3483 572.812 53.7669 572.152C54.1854 571.484 54.7449 570.961 55.4451 570.582C56.1454 570.204 56.9181 569.922 57.7633 569.737C58.6165 569.544 59.4738 569.391 60.335 569.278C61.4619 569.134 62.3755 569.025 63.0758 568.952C63.7842 568.872 64.2993 568.739 64.6213 568.554C64.9513 568.369 65.1163 568.047 65.1163 567.588V567.491C65.1163 566.3 64.7903 565.375 64.1383 564.714C63.4944 564.054 62.5164 563.724 61.2044 563.724C59.844 563.724 58.7775 564.022 58.0048 564.618C57.2321 565.214 56.6887 565.849 56.3748 566.526L53.6703 565.56C54.1532 564.433 54.7972 563.555 55.6021 562.928C56.4151 562.292 57.3005 561.849 58.2583 561.599C59.2243 561.342 60.1741 561.213 61.1078 561.213C61.7034 561.213 62.3876 561.286 63.1603 561.43C63.9411 561.567 64.6937 561.853 65.4181 562.288C66.1506 562.722 66.7583 563.378 67.2413 564.256C67.7243 565.133 67.9657 566.308 67.9657 567.781V580H65.1163V577.489H64.9714C64.7782 577.891 64.4563 578.322 64.0055 578.781C63.5547 579.239 62.9551 579.63 62.2065 579.952C61.4579 580.274 60.5443 580.435 59.4657 580.435ZM59.9004 577.875C61.0273 577.875 61.9771 577.654 62.7498 577.211C63.5306 576.768 64.1182 576.197 64.5126 575.496C64.9151 574.796 65.1163 574.06 65.1163 573.287V570.679C64.9956 570.824 64.7299 570.957 64.3194 571.077C63.917 571.19 63.4501 571.291 62.9189 571.379C62.3957 571.46 61.8845 571.532 61.3855 571.597C60.8945 571.653 60.496 571.701 60.1902 571.741C59.4496 571.838 58.7574 571.995 58.1135 572.212C57.4776 572.422 56.9624 572.74 56.568 573.166C56.1816 573.585 55.9885 574.156 55.9885 574.881C55.9885 575.871 56.3547 576.619 57.0872 577.126C57.8277 577.625 58.7654 577.875 59.9004 577.875ZM76.016 555.273V580H73.1665V555.273H76.016ZM84.0843 555.273V580H81.2349V555.273H84.0843ZM97.0788 580.386C95.2919 580.386 93.7505 579.992 92.4545 579.203C91.1667 578.406 90.1726 577.295 89.4723 575.871C88.7801 574.438 88.4339 572.772 88.4339 570.872C88.4339 568.973 88.7801 567.298 89.4723 565.849C90.1726 564.393 91.1465 563.258 92.3942 562.445C93.6499 561.624 95.1148 561.213 96.7891 561.213C97.755 561.213 98.7088 561.374 99.6506 561.696C100.592 562.018 101.45 562.541 102.222 563.266C102.995 563.982 103.611 564.932 104.07 566.115C104.528 567.298 104.758 568.755 104.758 570.486V571.693H90.4624V569.23H101.86C101.86 568.184 101.651 567.25 101.232 566.429C100.822 565.608 100.234 564.96 99.4695 564.485C98.7128 564.01 97.8194 563.773 96.7891 563.773C95.6541 563.773 94.6721 564.054 93.843 564.618C93.022 565.173 92.3902 565.898 91.9474 566.791C91.5047 567.685 91.2834 568.643 91.2834 569.665V571.307C91.2834 572.707 91.5249 573.895 92.0078 574.869C92.4988 575.835 93.179 576.571 94.0483 577.078C94.9176 577.577 95.9278 577.827 97.0788 577.827C97.8274 577.827 98.5036 577.722 99.1072 577.513C99.719 577.295 100.246 576.973 100.689 576.547C101.132 576.112 101.474 575.573 101.715 574.929L104.468 575.702C104.178 576.635 103.691 577.456 103.007 578.165C102.323 578.865 101.478 579.412 100.472 579.807C99.4654 580.193 98.3345 580.386 97.0788 580.386ZM109.092 580V561.455H111.845V564.256H112.038C112.376 563.338 112.988 562.594 113.874 562.022C114.759 561.451 115.757 561.165 116.868 561.165C117.077 561.165 117.339 561.169 117.653 561.177C117.967 561.185 118.204 561.197 118.365 561.213V564.111C118.268 564.087 118.047 564.05 117.701 564.002C117.363 563.946 117.005 563.918 116.626 563.918C115.725 563.918 114.92 564.107 114.212 564.485C113.511 564.855 112.956 565.371 112.545 566.031C112.143 566.683 111.942 567.427 111.942 568.264V580H109.092ZM139.371 561.455V563.869H129.76V561.455H139.371ZM132.561 557.011H135.41V574.688C135.41 575.492 135.527 576.096 135.76 576.499C136.002 576.893 136.308 577.159 136.678 577.295C137.056 577.424 137.455 577.489 137.873 577.489C138.187 577.489 138.445 577.473 138.646 577.44C138.847 577.4 139.008 577.368 139.129 577.344L139.709 579.903C139.515 579.976 139.246 580.048 138.9 580.121C138.554 580.201 138.115 580.241 137.584 580.241C136.779 580.241 135.99 580.068 135.217 579.722C134.452 579.376 133.817 578.849 133.309 578.141C132.81 577.432 132.561 576.539 132.561 575.46V557.011ZM146.905 568.844V580H144.055V555.273H146.905V564.352H147.146C147.581 563.394 148.233 562.634 149.102 562.07C149.979 561.499 151.147 561.213 152.604 561.213C153.867 561.213 154.974 561.467 155.924 561.974C156.874 562.473 157.61 563.241 158.133 564.28C158.665 565.31 158.93 566.622 158.93 568.216V580H156.081V568.409C156.081 566.936 155.698 565.797 154.934 564.992C154.177 564.179 153.127 563.773 151.782 563.773C150.849 563.773 150.012 563.97 149.271 564.364C148.539 564.759 147.959 565.334 147.532 566.091C147.114 566.848 146.905 567.765 146.905 568.844ZM169.6 580.435C168.425 580.435 167.359 580.213 166.401 579.771C165.443 579.32 164.682 578.672 164.119 577.827C163.556 576.973 163.274 575.943 163.274 574.736C163.274 573.673 163.483 572.812 163.902 572.152C164.32 571.484 164.88 570.961 165.58 570.582C166.28 570.204 167.053 569.922 167.898 569.737C168.751 569.544 169.609 569.391 170.47 569.278C171.597 569.134 172.51 569.025 173.211 568.952C173.919 568.872 174.434 568.739 174.756 568.554C175.086 568.369 175.251 568.047 175.251 567.588V567.491C175.251 566.3 174.925 565.375 174.273 564.714C173.629 564.054 172.651 563.724 171.339 563.724C169.979 563.724 168.912 564.022 168.14 564.618C167.367 565.214 166.824 565.849 166.51 566.526L163.805 565.56C164.288 564.433 164.932 563.555 165.737 562.928C166.55 562.292 167.435 561.849 168.393 561.599C169.359 561.342 170.309 561.213 171.243 561.213C171.838 561.213 172.522 561.286 173.295 561.43C174.076 561.567 174.828 561.853 175.553 562.288C176.285 562.722 176.893 563.378 177.376 564.256C177.859 565.133 178.1 566.308 178.1 567.781V580H175.251V577.489H175.106C174.913 577.891 174.591 578.322 174.14 578.781C173.69 579.239 173.09 579.63 172.341 579.952C171.593 580.274 170.679 580.435 169.6 580.435ZM170.035 577.875C171.162 577.875 172.112 577.654 172.885 577.211C173.665 576.768 174.253 576.197 174.647 575.496C175.05 574.796 175.251 574.06 175.251 573.287V570.679C175.13 570.824 174.865 570.957 174.454 571.077C174.052 571.19 173.585 571.291 173.054 571.379C172.53 571.46 172.019 571.532 171.52 571.597C171.029 571.653 170.631 571.701 170.325 571.741C169.584 571.838 168.892 571.995 168.248 572.212C167.612 572.422 167.097 572.74 166.703 573.166C166.316 573.585 166.123 574.156 166.123 574.881C166.123 575.871 166.489 576.619 167.222 577.126C167.962 577.625 168.9 577.875 170.035 577.875ZM186.151 568.844V580H183.301V561.455H186.054V564.352H186.296C186.73 563.411 187.39 562.654 188.276 562.082C189.161 561.503 190.304 561.213 191.705 561.213C192.96 561.213 194.059 561.471 195.001 561.986C195.943 562.493 196.675 563.266 197.198 564.304C197.722 565.334 197.983 566.638 197.983 568.216V580H195.134V568.409C195.134 566.952 194.755 565.817 193.999 565.004C193.242 564.183 192.204 563.773 190.884 563.773C189.974 563.773 189.161 563.97 188.445 564.364C187.736 564.759 187.177 565.334 186.767 566.091C186.356 566.848 186.151 567.765 186.151 568.844ZM212.752 586.955V561.455H215.505V564.401H215.843C216.053 564.079 216.342 563.668 216.713 563.169C217.091 562.662 217.63 562.211 218.331 561.817C219.039 561.414 219.997 561.213 221.204 561.213C222.766 561.213 224.142 561.603 225.333 562.384C226.525 563.165 227.454 564.272 228.123 565.705C228.791 567.137 229.125 568.828 229.125 570.776C229.125 572.74 228.791 574.442 228.123 575.883C227.454 577.316 226.529 578.426 225.346 579.215C224.162 579.996 222.798 580.386 221.252 580.386C220.061 580.386 219.107 580.189 218.391 579.795C217.675 579.392 217.123 578.937 216.737 578.43C216.35 577.915 216.053 577.489 215.843 577.151H215.602V586.955H212.752ZM215.554 570.727C215.554 572.128 215.759 573.363 216.169 574.434C216.58 575.496 217.18 576.33 217.968 576.933C218.757 577.529 219.723 577.827 220.866 577.827C222.057 577.827 223.051 577.513 223.848 576.885C224.653 576.249 225.257 575.396 225.659 574.325C226.07 573.247 226.275 572.047 226.275 570.727C226.275 569.423 226.074 568.248 225.672 567.202C225.277 566.147 224.677 565.314 223.873 564.702C223.076 564.083 222.074 563.773 220.866 563.773C219.707 563.773 218.733 564.067 217.944 564.654C217.155 565.234 216.56 566.047 216.157 567.093C215.755 568.131 215.554 569.343 215.554 570.727ZM233.471 580V561.455H236.321V580H233.471ZM234.92 558.364C234.365 558.364 233.886 558.174 233.483 557.796C233.089 557.418 232.892 556.963 232.892 556.432C232.892 555.901 233.089 555.446 233.483 555.067C233.886 554.689 234.365 554.5 234.92 554.5C235.475 554.5 235.95 554.689 236.345 555.067C236.747 555.446 236.949 555.901 236.949 556.432C236.949 556.963 236.747 557.418 236.345 557.796C235.95 558.174 235.475 558.364 234.92 558.364ZM256.704 561.455L249.846 580H246.949L240.091 561.455H243.182L248.301 576.233H248.494L253.613 561.455H256.704ZM267.335 580.386C265.661 580.386 264.192 579.988 262.928 579.191C261.673 578.394 260.691 577.279 259.982 575.847C259.282 574.414 258.932 572.74 258.932 570.824C258.932 568.892 259.282 567.206 259.982 565.765C260.691 564.324 261.673 563.205 262.928 562.408C264.192 561.612 265.661 561.213 267.335 561.213C269.01 561.213 270.475 561.612 271.73 562.408C272.994 563.205 273.976 564.324 274.676 565.765C275.385 567.206 275.739 568.892 275.739 570.824C275.739 572.74 275.385 574.414 274.676 575.847C273.976 577.279 272.994 578.394 271.73 579.191C270.475 579.988 269.01 580.386 267.335 580.386ZM267.335 577.827C268.607 577.827 269.654 577.501 270.475 576.849C271.296 576.197 271.903 575.339 272.298 574.277C272.692 573.214 272.889 572.063 272.889 570.824C272.889 569.584 272.692 568.429 272.298 567.359C271.903 566.288 271.296 565.423 270.475 564.763C269.654 564.103 268.607 563.773 267.335 563.773C266.064 563.773 265.017 564.103 264.196 564.763C263.375 565.423 262.767 566.288 262.373 567.359C261.979 568.429 261.781 569.584 261.781 570.824C261.781 572.063 261.979 573.214 262.373 574.277C262.767 575.339 263.375 576.197 264.196 576.849C265.017 577.501 266.064 577.827 267.335 577.827ZM288.154 561.455V563.869H278.543V561.455H288.154ZM281.344 557.011H284.194V574.688C284.194 575.492 284.31 576.096 284.544 576.499C284.785 576.893 285.091 577.159 285.461 577.295C285.84 577.424 286.238 577.489 286.657 577.489C286.971 577.489 287.228 577.473 287.429 577.44C287.631 577.4 287.792 577.368 287.912 577.344L288.492 579.903C288.299 579.976 288.029 580.048 287.683 580.121C287.337 580.201 286.898 580.241 286.367 580.241C285.562 580.241 284.773 580.068 284 579.722C283.236 579.376 282.6 578.849 282.093 578.141C281.594 577.432 281.344 576.539 281.344 575.46V557.011Z" fill="#727272"/>
<path d="M582.534 549.455C582.389 548.231 581.801 547.281 580.771 546.605C579.741 545.929 578.477 545.591 576.98 545.591C575.885 545.591 574.927 545.768 574.106 546.122C573.293 546.476 572.657 546.963 572.198 547.583C571.748 548.203 571.522 548.907 571.522 549.696C571.522 550.356 571.679 550.924 571.993 551.398C572.315 551.865 572.726 552.256 573.225 552.57C573.724 552.875 574.247 553.129 574.794 553.33C575.342 553.523 575.845 553.68 576.304 553.801L578.815 554.477C579.459 554.646 580.175 554.88 580.964 555.178C581.761 555.475 582.522 555.882 583.246 556.397C583.978 556.904 584.582 557.556 585.057 558.353C585.532 559.15 585.769 560.128 585.769 561.287C585.769 562.623 585.419 563.83 584.719 564.909C584.027 565.988 583.013 566.845 581.676 567.481C580.348 568.117 578.734 568.435 576.835 568.435C575.064 568.435 573.531 568.149 572.235 567.577C570.947 567.006 569.933 566.209 569.192 565.187C568.46 564.165 568.045 562.977 567.948 561.625H571.039C571.12 562.559 571.434 563.331 571.981 563.943C572.536 564.547 573.237 564.998 574.082 565.295C574.935 565.585 575.853 565.73 576.835 565.73C577.978 565.73 579.004 565.545 579.914 565.175C580.823 564.796 581.544 564.273 582.075 563.605C582.606 562.929 582.872 562.14 582.872 561.239C582.872 560.418 582.642 559.75 582.184 559.234C581.725 558.719 581.121 558.301 580.372 557.979C579.624 557.657 578.815 557.375 577.946 557.134L574.903 556.264C572.971 555.709 571.442 554.916 570.315 553.886C569.188 552.855 568.625 551.507 568.625 549.841C568.625 548.456 568.999 547.249 569.747 546.219C570.504 545.18 571.518 544.375 572.79 543.804C574.07 543.224 575.499 542.935 577.076 542.935C578.67 542.935 580.087 543.22 581.326 543.792C582.566 544.355 583.548 545.128 584.272 546.11C585.005 547.092 585.391 548.207 585.431 549.455H582.534ZM590.306 568V549.455H593.059V552.352H593.301C593.687 551.362 594.311 550.594 595.172 550.046C596.033 549.491 597.068 549.213 598.275 549.213C599.498 549.213 600.517 549.491 601.33 550.046C602.151 550.594 602.791 551.362 603.249 552.352H603.443C603.917 551.394 604.63 550.634 605.58 550.07C606.529 549.499 607.668 549.213 608.997 549.213C610.655 549.213 612.011 549.732 613.065 550.771C614.12 551.801 614.647 553.407 614.647 555.588V568H611.798V555.588C611.798 554.22 611.423 553.242 610.675 552.654C609.926 552.067 609.045 551.773 608.031 551.773C606.727 551.773 605.716 552.167 605 552.956C604.284 553.737 603.926 554.727 603.926 555.926V568H601.028V555.298C601.028 554.244 600.686 553.395 600.002 552.751C599.317 552.099 598.436 551.773 597.357 551.773C596.617 551.773 595.925 551.97 595.281 552.364C594.645 552.759 594.13 553.306 593.735 554.006C593.349 554.699 593.156 555.5 593.156 556.409V568H590.306ZM625.314 568.435C624.139 568.435 623.073 568.213 622.115 567.771C621.157 567.32 620.396 566.672 619.833 565.827C619.269 564.973 618.988 563.943 618.988 562.736C618.988 561.673 619.197 560.812 619.616 560.152C620.034 559.484 620.593 558.961 621.294 558.582C621.994 558.204 622.767 557.922 623.612 557.737C624.465 557.544 625.322 557.391 626.184 557.278C627.311 557.134 628.224 557.025 628.924 556.952C629.633 556.872 630.148 556.739 630.47 556.554C630.8 556.369 630.965 556.047 630.965 555.588V555.491C630.965 554.3 630.639 553.375 629.987 552.714C629.343 552.054 628.365 551.724 627.053 551.724C625.693 551.724 624.626 552.022 623.853 552.618C623.081 553.214 622.537 553.849 622.223 554.526L619.519 553.56C620.002 552.433 620.646 551.555 621.451 550.928C622.264 550.292 623.149 549.849 624.107 549.599C625.073 549.342 626.023 549.213 626.956 549.213C627.552 549.213 628.236 549.286 629.009 549.43C629.79 549.567 630.542 549.853 631.267 550.288C631.999 550.722 632.607 551.378 633.09 552.256C633.573 553.133 633.814 554.308 633.814 555.781V568H630.965V565.489H630.82C630.627 565.891 630.305 566.322 629.854 566.781C629.403 567.239 628.804 567.63 628.055 567.952C627.307 568.274 626.393 568.435 625.314 568.435ZM625.749 565.875C626.876 565.875 627.826 565.654 628.598 565.211C629.379 564.768 629.967 564.197 630.361 563.496C630.764 562.796 630.965 562.06 630.965 561.287V558.679C630.844 558.824 630.579 558.957 630.168 559.077C629.766 559.19 629.299 559.291 628.767 559.379C628.244 559.46 627.733 559.532 627.234 559.597C626.743 559.653 626.345 559.701 626.039 559.741C625.298 559.838 624.606 559.995 623.962 560.212C623.326 560.422 622.811 560.74 622.417 561.166C622.03 561.585 621.837 562.156 621.837 562.881C621.837 563.871 622.203 564.619 622.936 565.126C623.676 565.625 624.614 565.875 625.749 565.875ZM641.865 543.273V568H639.015V543.273H641.865ZM649.933 543.273V568H647.084V543.273H649.933ZM662.927 568.386C661.141 568.386 659.599 567.992 658.303 567.203C657.015 566.406 656.021 565.295 655.321 563.871C654.629 562.438 654.283 560.772 654.283 558.872C654.283 556.973 654.629 555.298 655.321 553.849C656.021 552.393 656.995 551.258 658.243 550.445C659.498 549.624 660.963 549.213 662.638 549.213C663.604 549.213 664.557 549.374 665.499 549.696C666.441 550.018 667.298 550.541 668.071 551.266C668.844 551.982 669.459 552.932 669.918 554.115C670.377 555.298 670.606 556.755 670.606 558.486V559.693H656.311V557.23H667.709C667.709 556.184 667.499 555.25 667.081 554.429C666.67 553.608 666.083 552.96 665.318 552.485C664.561 552.01 663.668 551.773 662.638 551.773C661.503 551.773 660.521 552.054 659.692 552.618C658.871 553.173 658.239 553.898 657.796 554.791C657.353 555.685 657.132 556.643 657.132 557.665V559.307C657.132 560.707 657.373 561.895 657.856 562.869C658.347 563.835 659.028 564.571 659.897 565.078C660.766 565.577 661.776 565.827 662.927 565.827C663.676 565.827 664.352 565.722 664.956 565.513C665.568 565.295 666.095 564.973 666.538 564.547C666.98 564.112 667.322 563.573 667.564 562.929L670.317 563.702C670.027 564.635 669.54 565.456 668.856 566.165C668.172 566.865 667.326 567.412 666.32 567.807C665.314 568.193 664.183 568.386 662.927 568.386ZM674.941 568V549.455H677.694V552.256H677.887C678.225 551.338 678.837 550.594 679.722 550.022C680.608 549.451 681.606 549.165 682.717 549.165C682.926 549.165 683.187 549.169 683.501 549.177C683.815 549.185 684.053 549.197 684.214 549.213V552.111C684.117 552.087 683.896 552.05 683.55 552.002C683.212 551.946 682.853 551.918 682.475 551.918C681.574 551.918 680.769 552.107 680.06 552.485C679.36 552.855 678.805 553.371 678.394 554.031C677.992 554.683 677.79 555.427 677.79 556.264V568H674.941ZM555.606 590.455V592.869H545.995V590.455H555.606ZM548.796 586.011H551.646V603.688C551.646 604.492 551.762 605.096 551.996 605.499C552.237 605.893 552.543 606.159 552.913 606.295C553.292 606.424 553.69 606.489 554.109 606.489C554.423 606.489 554.68 606.473 554.881 606.44C555.083 606.4 555.244 606.368 555.364 606.344L555.944 608.903C555.751 608.976 555.481 609.048 555.135 609.121C554.789 609.201 554.35 609.241 553.819 609.241C553.014 609.241 552.225 609.068 551.453 608.722C550.688 608.376 550.052 607.849 549.545 607.141C549.046 606.432 548.796 605.539 548.796 604.46V586.011ZM563.14 597.844V609H560.291V584.273H563.14V593.352H563.381C563.816 592.394 564.468 591.634 565.337 591.07C566.215 590.499 567.382 590.213 568.839 590.213C570.103 590.213 571.209 590.467 572.159 590.974C573.109 591.473 573.845 592.241 574.369 593.28C574.9 594.31 575.166 595.622 575.166 597.216V609H572.316V597.409C572.316 595.936 571.934 594.797 571.169 593.992C570.412 593.179 569.362 592.773 568.018 592.773C567.084 592.773 566.247 592.97 565.506 593.364C564.774 593.759 564.194 594.334 563.768 595.091C563.349 595.848 563.14 596.765 563.14 597.844ZM585.836 609.435C584.661 609.435 583.594 609.213 582.636 608.771C581.678 608.32 580.918 607.672 580.354 606.827C579.791 605.973 579.509 604.943 579.509 603.736C579.509 602.673 579.718 601.812 580.137 601.152C580.556 600.484 581.115 599.961 581.815 599.582C582.516 599.204 583.288 598.922 584.133 598.737C584.987 598.544 585.844 598.391 586.705 598.278C587.832 598.134 588.746 598.025 589.446 597.952C590.154 597.872 590.669 597.739 590.991 597.554C591.321 597.369 591.486 597.047 591.486 596.588V596.491C591.486 595.3 591.16 594.375 590.508 593.714C589.864 593.054 588.887 592.724 587.574 592.724C586.214 592.724 585.148 593.022 584.375 593.618C583.602 594.214 583.059 594.849 582.745 595.526L580.04 594.56C580.523 593.433 581.167 592.555 581.972 591.928C582.785 591.292 583.671 590.849 584.628 590.599C585.594 590.342 586.544 590.213 587.478 590.213C588.074 590.213 588.758 590.286 589.53 590.43C590.311 590.567 591.064 590.853 591.788 591.288C592.521 591.722 593.128 592.378 593.611 593.256C594.094 594.133 594.336 595.308 594.336 596.781V609H591.486V606.489H591.342C591.148 606.891 590.826 607.322 590.376 607.781C589.925 608.239 589.325 608.63 588.577 608.952C587.828 609.274 586.914 609.435 585.836 609.435ZM586.271 606.875C587.397 606.875 588.347 606.654 589.12 606.211C589.901 605.768 590.488 605.197 590.883 604.496C591.285 603.796 591.486 603.06 591.486 602.287V599.679C591.366 599.824 591.1 599.957 590.69 600.077C590.287 600.19 589.82 600.291 589.289 600.379C588.766 600.46 588.255 600.532 587.756 600.597C587.265 600.653 586.866 600.701 586.56 600.741C585.82 600.838 585.128 600.995 584.484 601.212C583.848 601.422 583.333 601.74 582.938 602.166C582.552 602.585 582.359 603.156 582.359 603.881C582.359 604.871 582.725 605.619 583.457 606.126C584.198 606.625 585.136 606.875 586.271 606.875ZM602.386 597.844V609H599.537V590.455H602.29V593.352H602.531C602.966 592.411 603.626 591.654 604.511 591.082C605.397 590.503 606.54 590.213 607.94 590.213C609.196 590.213 610.294 590.471 611.236 590.986C612.178 591.493 612.91 592.266 613.434 593.304C613.957 594.334 614.218 595.638 614.218 597.216V609H611.369V597.409C611.369 595.952 610.991 594.817 610.234 594.004C609.477 593.183 608.439 592.773 607.119 592.773C606.209 592.773 605.397 592.97 604.68 593.364C603.972 593.759 603.412 594.334 603.002 595.091C602.591 595.848 602.386 596.765 602.386 597.844ZM628.988 615.955V590.455H631.741V593.401H632.079C632.288 593.079 632.578 592.668 632.948 592.169C633.326 591.662 633.866 591.211 634.566 590.817C635.274 590.414 636.232 590.213 637.44 590.213C639.001 590.213 640.378 590.603 641.569 591.384C642.76 592.165 643.69 593.272 644.358 594.705C645.026 596.137 645.36 597.828 645.36 599.776C645.36 601.74 645.026 603.442 644.358 604.883C643.69 606.316 642.764 607.426 641.581 608.215C640.398 608.996 639.033 609.386 637.488 609.386C636.297 609.386 635.343 609.189 634.626 608.795C633.91 608.392 633.359 607.937 632.972 607.43C632.586 606.915 632.288 606.489 632.079 606.151H631.837V615.955H628.988ZM631.789 599.727C631.789 601.128 631.994 602.363 632.405 603.434C632.815 604.496 633.415 605.33 634.204 605.933C634.993 606.529 635.958 606.827 637.101 606.827C638.293 606.827 639.287 606.513 640.084 605.885C640.889 605.249 641.492 604.396 641.895 603.325C642.305 602.247 642.511 601.047 642.511 599.727C642.511 598.423 642.309 597.248 641.907 596.202C641.512 595.147 640.913 594.314 640.108 593.702C639.311 593.083 638.309 592.773 637.101 592.773C635.942 592.773 634.968 593.067 634.18 593.654C633.391 594.234 632.795 595.047 632.393 596.093C631.99 597.131 631.789 598.343 631.789 599.727ZM649.707 609V590.455H652.556V609H649.707ZM651.155 587.364C650.6 587.364 650.121 587.174 649.719 586.796C649.324 586.418 649.127 585.963 649.127 585.432C649.127 584.901 649.324 584.446 649.719 584.067C650.121 583.689 650.6 583.5 651.155 583.5C651.711 583.5 652.186 583.689 652.58 584.067C652.983 584.446 653.184 584.901 653.184 585.432C653.184 585.963 652.983 586.418 652.58 586.796C652.186 587.174 651.711 587.364 651.155 587.364ZM672.94 590.455L666.082 609H663.184L656.326 590.455H659.417L664.536 605.233H664.729L669.849 590.455H672.94ZM683.571 609.386C681.897 609.386 680.428 608.988 679.164 608.191C677.908 607.394 676.926 606.279 676.218 604.847C675.517 603.414 675.167 601.74 675.167 599.824C675.167 597.892 675.517 596.206 676.218 594.765C676.926 593.324 677.908 592.205 679.164 591.408C680.428 590.612 681.897 590.213 683.571 590.213C685.245 590.213 686.71 590.612 687.966 591.408C689.229 592.205 690.211 593.324 690.912 594.765C691.62 596.206 691.974 597.892 691.974 599.824C691.974 601.74 691.62 603.414 690.912 604.847C690.211 606.279 689.229 607.394 687.966 608.191C686.71 608.988 685.245 609.386 683.571 609.386ZM683.571 606.827C684.843 606.827 685.889 606.501 686.71 605.849C687.531 605.197 688.139 604.339 688.533 603.277C688.928 602.214 689.125 601.063 689.125 599.824C689.125 598.584 688.928 597.429 688.533 596.359C688.139 595.288 687.531 594.423 686.71 593.763C685.889 593.103 684.843 592.773 683.571 592.773C682.299 592.773 681.253 593.103 680.432 593.763C679.611 594.423 679.003 595.288 678.608 596.359C678.214 597.429 678.017 598.584 678.017 599.824C678.017 601.063 678.214 602.214 678.608 603.277C679.003 604.339 679.611 605.197 680.432 605.849C681.253 606.501 682.299 606.827 683.571 606.827ZM704.389 590.455V592.869H694.778V590.455H704.389ZM697.579 586.011H700.429V603.688C700.429 604.492 700.546 605.096 700.779 605.499C701.021 605.893 701.326 606.159 701.697 606.295C702.075 606.424 702.473 606.489 702.892 606.489C703.206 606.489 703.463 606.473 703.665 606.44C703.866 606.4 704.027 606.368 704.148 606.344L704.727 608.903C704.534 608.976 704.264 609.048 703.918 609.121C703.572 609.201 703.133 609.241 702.602 609.241C701.797 609.241 701.008 609.068 700.236 608.722C699.471 608.376 698.835 607.849 698.328 607.141C697.829 606.432 697.579 605.539 697.579 604.46V586.011Z" fill="#727272"/>
<path d="M864.951 551C864.686 550.187 864.336 549.459 863.901 548.815C863.474 548.163 862.963 547.607 862.368 547.148C861.78 546.69 861.112 546.339 860.363 546.098C859.615 545.857 858.794 545.736 857.9 545.736C856.435 545.736 855.103 546.114 853.904 546.871C852.705 547.627 851.751 548.742 851.042 550.215C850.334 551.688 849.98 553.495 849.98 555.636C849.98 557.777 850.338 559.585 851.054 561.058C851.771 562.531 852.741 563.645 853.964 564.402C855.188 565.159 856.564 565.537 858.093 565.537C859.51 565.537 860.758 565.235 861.836 564.631C862.923 564.02 863.768 563.158 864.372 562.048C864.984 560.929 865.29 559.613 865.29 558.099L866.207 558.293H858.77V555.636H868.187V558.293C868.187 560.329 867.753 562.1 866.883 563.605C866.022 565.11 864.831 566.277 863.309 567.107C861.796 567.928 860.057 568.338 858.093 568.338C855.904 568.338 853.98 567.823 852.322 566.793C850.672 565.762 849.384 564.297 848.459 562.398C847.541 560.498 847.082 558.244 847.082 555.636C847.082 553.68 847.344 551.922 847.867 550.36C848.398 548.79 849.147 547.454 850.113 546.352C851.079 545.249 852.222 544.404 853.542 543.816C854.862 543.228 856.315 542.935 857.9 542.935C859.204 542.935 860.42 543.132 861.547 543.526C862.682 543.913 863.692 544.464 864.577 545.18C865.471 545.889 866.215 546.738 866.811 547.728C867.406 548.71 867.817 549.801 868.042 551H864.951ZM872.929 568V549.455H875.682V552.256H875.875C876.213 551.338 876.825 550.594 877.71 550.022C878.596 549.451 879.594 549.165 880.705 549.165C880.914 549.165 881.176 549.169 881.49 549.177C881.804 549.185 882.041 549.197 882.202 549.213V552.111C882.105 552.087 881.884 552.05 881.538 552.002C881.2 551.946 880.842 551.918 880.463 551.918C879.562 551.918 878.757 552.107 878.049 552.485C877.348 552.855 876.793 553.371 876.382 554.031C875.98 554.683 875.779 555.427 875.779 556.264V568H872.929ZM892.791 568.386C891.004 568.386 889.462 567.992 888.166 567.203C886.879 566.406 885.884 565.295 885.184 563.871C884.492 562.438 884.146 560.772 884.146 558.872C884.146 556.973 884.492 555.298 885.184 553.849C885.884 552.393 886.858 551.258 888.106 550.445C889.362 549.624 890.827 549.213 892.501 549.213C893.467 549.213 894.421 549.374 895.362 549.696C896.304 550.018 897.161 550.541 897.934 551.266C898.707 551.982 899.323 552.932 899.782 554.115C900.24 555.298 900.47 556.755 900.47 558.486V559.693H886.174V557.23H897.572C897.572 556.184 897.363 555.25 896.944 554.429C896.534 553.608 895.946 552.96 895.181 552.485C894.425 552.01 893.531 551.773 892.501 551.773C891.366 551.773 890.384 552.054 889.555 552.618C888.734 553.173 888.102 553.898 887.659 554.791C887.217 555.685 886.995 556.643 886.995 557.665V559.307C886.995 560.707 887.237 561.895 887.72 562.869C888.211 563.835 888.891 564.571 889.76 565.078C890.63 565.577 891.64 565.827 892.791 565.827C893.539 565.827 894.215 565.722 894.819 565.513C895.431 565.295 895.958 564.973 896.401 564.547C896.844 564.112 897.186 563.573 897.427 562.929L900.18 563.702C899.89 564.635 899.403 565.456 898.719 566.165C898.035 566.865 897.19 567.412 896.184 567.807C895.177 568.193 894.046 568.386 892.791 568.386ZM910.262 568.435C909.086 568.435 908.02 568.213 907.062 567.771C906.104 567.32 905.344 566.672 904.78 565.827C904.217 564.973 903.935 563.943 903.935 562.736C903.935 561.673 904.144 560.812 904.563 560.152C904.981 559.484 905.541 558.961 906.241 558.582C906.941 558.204 907.714 557.922 908.559 557.737C909.412 557.544 910.27 557.391 911.131 557.278C912.258 557.134 913.171 557.025 913.872 556.952C914.58 556.872 915.095 556.739 915.417 556.554C915.747 556.369 915.912 556.047 915.912 555.588V555.491C915.912 554.3 915.586 553.375 914.934 552.714C914.29 552.054 913.312 551.724 912 551.724C910.64 551.724 909.573 552.022 908.801 552.618C908.028 553.214 907.485 553.849 907.171 554.526L904.466 553.56C904.949 552.433 905.593 551.555 906.398 550.928C907.211 550.292 908.096 549.849 909.054 549.599C910.02 549.342 910.97 549.213 911.904 549.213C912.499 549.213 913.184 549.286 913.956 549.43C914.737 549.567 915.49 549.853 916.214 550.288C916.947 550.722 917.554 551.378 918.037 552.256C918.52 553.133 918.762 554.308 918.762 555.781V568H915.912V565.489H915.767C915.574 565.891 915.252 566.322 914.801 566.781C914.351 567.239 913.751 567.63 913.002 567.952C912.254 568.274 911.34 568.435 910.262 568.435ZM910.696 565.875C911.823 565.875 912.773 565.654 913.546 565.211C914.326 564.768 914.914 564.197 915.309 563.496C915.711 562.796 915.912 562.06 915.912 561.287V558.679C915.791 558.824 915.526 558.957 915.115 559.077C914.713 559.19 914.246 559.291 913.715 559.379C913.192 559.46 912.68 559.532 912.181 559.597C911.69 559.653 911.292 559.701 910.986 559.741C910.246 559.838 909.553 559.995 908.909 560.212C908.273 560.422 907.758 560.74 907.364 561.166C906.978 561.585 906.784 562.156 906.784 562.881C906.784 563.871 907.151 564.619 907.883 565.126C908.624 565.625 909.561 565.875 910.696 565.875ZM932.028 549.455V551.869H922.417V549.455H932.028ZM925.218 545.011H928.068V562.688C928.068 563.492 928.184 564.096 928.418 564.499C928.659 564.893 928.965 565.159 929.335 565.295C929.714 565.424 930.112 565.489 930.531 565.489C930.845 565.489 931.102 565.473 931.303 565.44C931.505 565.4 931.666 565.368 931.786 565.344L932.366 567.903C932.173 567.976 931.903 568.048 931.557 568.121C931.211 568.201 930.772 568.241 930.241 568.241C929.436 568.241 928.647 568.068 927.874 567.722C927.11 567.376 926.474 566.849 925.967 566.141C925.468 565.432 925.218 564.539 925.218 563.46V545.011ZM943.89 568.386C942.103 568.386 940.562 567.992 939.266 567.203C937.978 566.406 936.984 565.295 936.284 563.871C935.592 562.438 935.245 560.772 935.245 558.872C935.245 556.973 935.592 555.298 936.284 553.849C936.984 552.393 937.958 551.258 939.206 550.445C940.461 549.624 941.926 549.213 943.601 549.213C944.566 549.213 945.52 549.374 946.462 549.696C947.404 550.018 948.261 550.541 949.034 551.266C949.807 551.982 950.422 552.932 950.881 554.115C951.34 555.298 951.569 556.755 951.569 558.486V559.693H937.274V557.23H948.672C948.672 556.184 948.462 555.25 948.044 554.429C947.633 553.608 947.046 552.96 946.281 552.485C945.524 552.01 944.631 551.773 943.601 551.773C942.466 551.773 941.484 552.054 940.655 552.618C939.834 553.173 939.202 553.898 938.759 554.791C938.316 555.685 938.095 556.643 938.095 557.665V559.307C938.095 560.707 938.336 561.895 938.819 562.869C939.31 563.835 939.991 564.571 940.86 565.078C941.729 565.577 942.739 565.827 943.89 565.827C944.639 565.827 945.315 565.722 945.919 565.513C946.531 565.295 947.058 564.973 947.5 564.547C947.943 564.112 948.285 563.573 948.527 562.929L951.28 563.702C950.99 564.635 950.503 565.456 949.819 566.165C949.134 566.865 948.289 567.412 947.283 567.807C946.277 568.193 945.146 568.386 943.89 568.386ZM955.904 568V549.455H958.657V552.256H958.85C959.188 551.338 959.8 550.594 960.685 550.022C961.571 549.451 962.569 549.165 963.679 549.165C963.889 549.165 964.15 549.169 964.464 549.177C964.778 549.185 965.016 549.197 965.177 549.213V552.111C965.08 552.087 964.859 552.05 964.513 552.002C964.174 551.946 963.816 551.918 963.438 551.918C962.536 551.918 961.732 552.107 961.023 552.485C960.323 552.855 959.767 553.371 959.357 554.031C958.955 554.683 958.753 555.427 958.753 556.264V568H955.904ZM835.606 590.455V592.869H825.995V590.455H835.606ZM828.796 586.011H831.646V603.688C831.646 604.492 831.762 605.096 831.996 605.499C832.237 605.893 832.543 606.159 832.913 606.295C833.292 606.424 833.69 606.489 834.109 606.489C834.423 606.489 834.68 606.473 834.881 606.44C835.083 606.4 835.244 606.368 835.364 606.344L835.944 608.903C835.751 608.976 835.481 609.048 835.135 609.121C834.789 609.201 834.35 609.241 833.819 609.241C833.014 609.241 832.225 609.068 831.453 608.722C830.688 608.376 830.052 607.849 829.545 607.141C829.046 606.432 828.796 605.539 828.796 604.46V586.011ZM843.14 597.844V609H840.291V584.273H843.14V593.352H843.381C843.816 592.394 844.468 591.634 845.337 591.07C846.215 590.499 847.382 590.213 848.839 590.213C850.103 590.213 851.209 590.467 852.159 590.974C853.109 591.473 853.845 592.241 854.369 593.28C854.9 594.31 855.166 595.622 855.166 597.216V609H852.316V597.409C852.316 595.936 851.934 594.797 851.169 593.992C850.412 593.179 849.362 592.773 848.018 592.773C847.084 592.773 846.247 592.97 845.506 593.364C844.774 593.759 844.194 594.334 843.768 595.091C843.349 595.848 843.14 596.765 843.14 597.844ZM865.836 609.435C864.661 609.435 863.594 609.213 862.636 608.771C861.678 608.32 860.918 607.672 860.354 606.827C859.791 605.973 859.509 604.943 859.509 603.736C859.509 602.673 859.718 601.812 860.137 601.152C860.556 600.484 861.115 599.961 861.815 599.582C862.516 599.204 863.288 598.922 864.133 598.737C864.987 598.544 865.844 598.391 866.705 598.278C867.832 598.134 868.746 598.025 869.446 597.952C870.154 597.872 870.669 597.739 870.991 597.554C871.321 597.369 871.486 597.047 871.486 596.588V596.491C871.486 595.3 871.16 594.375 870.508 593.714C869.864 593.054 868.887 592.724 867.574 592.724C866.214 592.724 865.148 593.022 864.375 593.618C863.602 594.214 863.059 594.849 862.745 595.526L860.04 594.56C860.523 593.433 861.167 592.555 861.972 591.928C862.785 591.292 863.671 590.849 864.628 590.599C865.594 590.342 866.544 590.213 867.478 590.213C868.074 590.213 868.758 590.286 869.53 590.43C870.311 590.567 871.064 590.853 871.788 591.288C872.521 591.722 873.128 592.378 873.611 593.256C874.094 594.133 874.336 595.308 874.336 596.781V609H871.486V606.489H871.342C871.148 606.891 870.826 607.322 870.376 607.781C869.925 608.239 869.325 608.63 868.577 608.952C867.828 609.274 866.914 609.435 865.836 609.435ZM866.271 606.875C867.397 606.875 868.347 606.654 869.12 606.211C869.901 605.768 870.488 605.197 870.883 604.496C871.285 603.796 871.486 603.06 871.486 602.287V599.679C871.366 599.824 871.1 599.957 870.69 600.077C870.287 600.19 869.82 600.291 869.289 600.379C868.766 600.46 868.255 600.532 867.756 600.597C867.265 600.653 866.866 600.701 866.56 600.741C865.82 600.838 865.128 600.995 864.484 601.212C863.848 601.422 863.333 601.74 862.938 602.166C862.552 602.585 862.359 603.156 862.359 603.881C862.359 604.871 862.725 605.619 863.457 606.126C864.198 606.625 865.136 606.875 866.271 606.875ZM882.386 597.844V609H879.537V590.455H882.29V593.352H882.531C882.966 592.411 883.626 591.654 884.511 591.082C885.397 590.503 886.54 590.213 887.94 590.213C889.196 590.213 890.294 590.471 891.236 590.986C892.178 591.493 892.91 592.266 893.434 593.304C893.957 594.334 894.218 595.638 894.218 597.216V609H891.369V597.409C891.369 595.952 890.991 594.817 890.234 594.004C889.477 593.183 888.439 592.773 887.119 592.773C886.209 592.773 885.397 592.97 884.68 593.364C883.972 593.759 883.412 594.334 883.002 595.091C882.591 595.848 882.386 596.765 882.386 597.844ZM908.988 615.955V590.455H911.741V593.401H912.079C912.288 593.079 912.578 592.668 912.948 592.169C913.326 591.662 913.866 591.211 914.566 590.817C915.274 590.414 916.232 590.213 917.44 590.213C919.001 590.213 920.378 590.603 921.569 591.384C922.76 592.165 923.69 593.272 924.358 594.705C925.026 596.137 925.36 597.828 925.36 599.776C925.36 601.74 925.026 603.442 924.358 604.883C923.69 606.316 922.764 607.426 921.581 608.215C920.398 608.996 919.033 609.386 917.488 609.386C916.297 609.386 915.343 609.189 914.626 608.795C913.91 608.392 913.359 607.937 912.972 607.43C912.586 606.915 912.288 606.489 912.079 606.151H911.837V615.955H908.988ZM911.789 599.727C911.789 601.128 911.994 602.363 912.405 603.434C912.815 604.496 913.415 605.33 914.204 605.933C914.993 606.529 915.958 606.827 917.101 606.827C918.293 606.827 919.287 606.513 920.084 605.885C920.889 605.249 921.492 604.396 921.895 603.325C922.305 602.247 922.511 601.047 922.511 599.727C922.511 598.423 922.309 597.248 921.907 596.202C921.512 595.147 920.913 594.314 920.108 593.702C919.311 593.083 918.309 592.773 917.101 592.773C915.942 592.773 914.968 593.067 914.18 593.654C913.391 594.234 912.795 595.047 912.393 596.093C911.99 597.131 911.789 598.343 911.789 599.727ZM929.707 609V590.455H932.556V609H929.707ZM931.155 587.364C930.6 587.364 930.121 587.174 929.719 586.796C929.324 586.418 929.127 585.963 929.127 585.432C929.127 584.901 929.324 584.446 929.719 584.067C930.121 583.689 930.6 583.5 931.155 583.5C931.711 583.5 932.186 583.689 932.58 584.067C932.983 584.446 933.184 584.901 933.184 585.432C933.184 585.963 932.983 586.418 932.58 586.796C932.186 587.174 931.711 587.364 931.155 587.364ZM952.94 590.455L946.082 609H943.184L936.326 590.455H939.417L944.536 605.233H944.729L949.849 590.455H952.94ZM963.571 609.386C961.897 609.386 960.428 608.988 959.164 608.191C957.908 607.394 956.926 606.279 956.218 604.847C955.517 603.414 955.167 601.74 955.167 599.824C955.167 597.892 955.517 596.206 956.218 594.765C956.926 593.324 957.908 592.205 959.164 591.408C960.428 590.612 961.897 590.213 963.571 590.213C965.245 590.213 966.71 590.612 967.966 591.408C969.229 592.205 970.211 593.324 970.912 594.765C971.62 596.206 971.974 597.892 971.974 599.824C971.974 601.74 971.62 603.414 970.912 604.847C970.211 606.279 969.229 607.394 967.966 608.191C966.71 608.988 965.245 609.386 963.571 609.386ZM963.571 606.827C964.843 606.827 965.889 606.501 966.71 605.849C967.531 605.197 968.139 604.339 968.533 603.277C968.928 602.214 969.125 601.063 969.125 599.824C969.125 598.584 968.928 597.429 968.533 596.359C968.139 595.288 967.531 594.423 966.71 593.763C965.889 593.103 964.843 592.773 963.571 592.773C962.299 592.773 961.253 593.103 960.432 593.763C959.611 594.423 959.003 595.288 958.608 596.359C958.214 597.429 958.017 598.584 958.017 599.824C958.017 601.063 958.214 602.214 958.608 603.277C959.003 604.339 959.611 605.197 960.432 605.849C961.253 606.501 962.299 606.827 963.571 606.827ZM984.389 590.455V592.869H974.778V590.455H984.389ZM977.579 586.011H980.429V603.688C980.429 604.492 980.546 605.096 980.779 605.499C981.021 605.893 981.326 606.159 981.697 606.295C982.075 606.424 982.473 606.489 982.892 606.489C983.206 606.489 983.463 606.473 983.665 606.44C983.866 606.4 984.027 606.368 984.148 606.344L984.727 608.903C984.534 608.976 984.264 609.048 983.918 609.121C983.572 609.201 983.133 609.241 982.602 609.241C981.797 609.241 981.008 609.068 980.236 608.722C979.471 608.376 978.835 607.849 978.328 607.141C977.829 606.432 977.579 605.539 977.579 604.46V586.011Z" fill="#727272"/>
<path d="M64.8071 314.455C64.6622 313.231 64.0746 312.281 63.0443 311.605C62.014 310.929 60.7503 310.591 59.2531 310.591C58.1584 310.591 57.2006 310.768 56.3795 311.122C55.5666 311.476 54.9307 311.963 54.4719 312.583C54.0211 313.203 53.7957 313.907 53.7957 314.696C53.7957 315.356 53.9527 315.924 54.2666 316.398C54.5886 316.865 54.9991 317.256 55.4981 317.57C55.9972 317.875 56.5204 318.129 57.0677 318.33C57.6151 318.523 58.1182 318.68 58.577 318.801L61.0883 319.477C61.7323 319.646 62.4487 319.88 63.2375 320.178C64.0344 320.475 64.795 320.882 65.5194 321.397C66.2519 321.904 66.8556 322.556 67.3305 323.353C67.8054 324.15 68.0429 325.128 68.0429 326.287C68.0429 327.623 67.6927 328.83 66.9925 329.909C66.3002 330.988 65.286 331.845 63.9498 332.481C62.6217 333.117 61.0078 333.435 59.1082 333.435C57.3374 333.435 55.804 333.149 54.5081 332.577C53.2202 332.006 52.206 331.209 51.4655 330.187C50.733 329.165 50.3184 327.977 50.2219 326.625H53.3128C53.3933 327.559 53.7072 328.331 54.2545 328.943C54.8099 329.547 55.5102 329.998 56.3554 330.295C57.2086 330.585 58.1262 330.73 59.1082 330.73C60.2512 330.73 61.2775 330.545 62.1871 330.175C63.0966 329.796 63.817 329.273 64.3483 328.605C64.8795 327.929 65.1452 327.14 65.1452 326.239C65.1452 325.418 64.9158 324.75 64.4569 324.234C63.9981 323.719 63.3944 323.301 62.6459 322.979C61.8973 322.657 61.0883 322.375 60.219 322.134L57.1764 321.264C55.2446 320.709 53.7152 319.916 52.5883 318.886C51.4614 317.855 50.898 316.507 50.898 314.841C50.898 313.456 51.2723 312.249 52.0209 311.219C52.7775 310.18 53.7917 309.375 55.0635 308.804C56.3433 308.224 57.772 307.935 59.3497 307.935C60.9434 307.935 62.3601 308.22 63.5997 308.792C64.8393 309.355 65.8213 310.128 66.5457 311.11C67.2782 312.092 67.6646 313.207 67.7048 314.455H64.8071ZM84.2671 325.418V314.455H87.1166V333H84.2671V329.861H84.074C83.6393 330.803 82.9632 331.603 82.0455 332.263C81.1279 332.915 79.9688 333.241 78.5683 333.241C77.4092 333.241 76.3789 332.988 75.4774 332.481C74.5758 331.966 73.8675 331.193 73.3524 330.163C72.8372 329.124 72.5796 327.816 72.5796 326.239V314.455H75.4291V326.045C75.4291 327.398 75.8074 328.476 76.564 329.281C77.3287 330.086 78.3026 330.489 79.4859 330.489C80.1942 330.489 80.9146 330.308 81.6471 329.945C82.3876 329.583 83.0074 329.028 83.5065 328.279C84.0136 327.531 84.2671 326.577 84.2671 325.418ZM92.7219 333V308.273H95.5713V317.401H95.8128C96.022 317.079 96.3118 316.668 96.6821 316.169C97.0604 315.662 97.5997 315.211 98.3 314.817C99.0083 314.414 99.9662 314.213 101.174 314.213C102.735 314.213 104.112 314.603 105.303 315.384C106.494 316.165 107.424 317.272 108.092 318.705C108.76 320.137 109.094 321.828 109.094 323.776C109.094 325.74 108.76 327.442 108.092 328.883C107.424 330.316 106.498 331.426 105.315 332.215C104.132 332.996 102.767 333.386 101.222 333.386C100.031 333.386 99.0767 333.189 98.3604 332.795C97.644 332.392 97.0926 331.937 96.7062 331.43C96.3199 330.915 96.022 330.489 95.8128 330.151H95.4747V333H92.7219ZM95.523 323.727C95.523 325.128 95.7282 326.363 96.1388 327.434C96.5493 328.496 97.1489 329.33 97.9378 329.933C98.7266 330.529 99.6925 330.827 100.835 330.827C102.027 330.827 103.021 330.513 103.818 329.885C104.623 329.249 105.226 328.396 105.629 327.325C106.039 326.247 106.245 325.047 106.245 323.727C106.245 322.423 106.043 321.248 105.641 320.202C105.246 319.147 104.647 318.314 103.842 317.702C103.045 317.083 102.043 316.773 100.835 316.773C99.6764 316.773 98.7024 317.067 97.9136 317.654C97.1248 318.234 96.5291 319.047 96.1267 320.093C95.7242 321.131 95.523 322.343 95.523 323.727ZM120.938 340.341C119.562 340.341 118.379 340.164 117.389 339.81C116.399 339.464 115.574 339.005 114.914 338.433C114.262 337.87 113.742 337.266 113.356 336.622L115.626 335.028C115.884 335.366 116.21 335.753 116.604 336.188C116.998 336.63 117.538 337.013 118.222 337.335C118.914 337.665 119.82 337.83 120.938 337.83C122.436 337.83 123.671 337.467 124.645 336.743C125.619 336.018 126.106 334.884 126.106 333.338V329.571H125.865C125.655 329.909 125.358 330.328 124.971 330.827C124.593 331.318 124.045 331.756 123.329 332.143C122.621 332.521 121.663 332.71 120.456 332.71C118.958 332.71 117.614 332.356 116.423 331.648C115.24 330.939 114.302 329.909 113.61 328.557C112.925 327.205 112.583 325.562 112.583 323.631C112.583 321.731 112.917 320.077 113.585 318.668C114.254 317.252 115.183 316.157 116.375 315.384C117.566 314.603 118.942 314.213 120.504 314.213C121.711 314.213 122.669 314.414 123.377 314.817C124.094 315.211 124.641 315.662 125.019 316.169C125.406 316.668 125.704 317.079 125.913 317.401H126.203V314.455H128.956V333.531C128.956 335.125 128.593 336.421 127.869 337.419C127.152 338.425 126.187 339.162 124.971 339.629C123.764 340.103 122.42 340.341 120.938 340.341ZM120.842 330.151C121.985 330.151 122.951 329.889 123.74 329.366C124.528 328.843 125.128 328.09 125.539 327.108C125.949 326.126 126.154 324.951 126.154 323.582C126.154 322.246 125.953 321.067 125.551 320.045C125.148 319.022 124.553 318.222 123.764 317.642C122.975 317.062 122.001 316.773 120.842 316.773C119.634 316.773 118.628 317.079 117.823 317.69C117.027 318.302 116.427 319.123 116.024 320.153C115.63 321.184 115.433 322.327 115.433 323.582C115.433 324.87 115.634 326.009 116.036 326.999C116.447 327.981 117.051 328.754 117.848 329.317C118.652 329.873 119.651 330.151 120.842 330.151ZM134.171 333V314.455H136.924V317.256H137.117C137.456 316.338 138.067 315.594 138.953 315.022C139.838 314.451 140.836 314.165 141.947 314.165C142.156 314.165 142.418 314.169 142.732 314.177C143.046 314.185 143.283 314.197 143.444 314.213V317.111C143.348 317.087 143.126 317.05 142.78 317.002C142.442 316.946 142.084 316.918 141.706 316.918C140.804 316.918 139.999 317.107 139.291 317.485C138.59 317.855 138.035 318.371 137.625 319.031C137.222 319.683 137.021 320.427 137.021 321.264V333H134.171ZM153.791 333.386C152.117 333.386 150.648 332.988 149.384 332.191C148.129 331.394 147.147 330.279 146.438 328.847C145.738 327.414 145.388 325.74 145.388 323.824C145.388 321.892 145.738 320.206 146.438 318.765C147.147 317.324 148.129 316.205 149.384 315.408C150.648 314.612 152.117 314.213 153.791 314.213C155.466 314.213 156.931 314.612 158.186 315.408C159.45 316.205 160.432 317.324 161.132 318.765C161.841 320.206 162.195 321.892 162.195 323.824C162.195 325.74 161.841 327.414 161.132 328.847C160.432 330.279 159.45 331.394 158.186 332.191C156.931 332.988 155.466 333.386 153.791 333.386ZM153.791 330.827C155.063 330.827 156.11 330.501 156.931 329.849C157.752 329.197 158.359 328.339 158.754 327.277C159.148 326.214 159.345 325.063 159.345 323.824C159.345 322.584 159.148 321.429 158.754 320.359C158.359 319.288 157.752 318.423 156.931 317.763C156.11 317.103 155.063 316.773 153.791 316.773C152.52 316.773 151.473 317.103 150.652 317.763C149.831 318.423 149.224 319.288 148.829 320.359C148.435 321.429 148.237 322.584 148.237 323.824C148.237 325.063 148.435 326.214 148.829 327.277C149.224 328.339 149.831 329.197 150.652 329.849C151.473 330.501 152.52 330.827 153.791 330.827ZM178.232 325.418V314.455H181.081V333H178.232V329.861H178.039C177.604 330.803 176.928 331.603 176.01 332.263C175.093 332.915 173.934 333.241 172.533 333.241C171.374 333.241 170.344 332.988 169.442 332.481C168.541 331.966 167.832 331.193 167.317 330.163C166.802 329.124 166.544 327.816 166.544 326.239V314.455H169.394V326.045C169.394 327.398 169.772 328.476 170.529 329.281C171.294 330.086 172.267 330.489 173.451 330.489C174.159 330.489 174.879 330.308 175.612 329.945C176.352 329.583 176.972 329.028 177.471 328.279C177.978 327.531 178.232 326.577 178.232 325.418ZM186.3 339.955V314.455H189.053V317.401H189.391C189.601 317.079 189.89 316.668 190.261 316.169C190.639 315.662 191.178 315.211 191.878 314.817C192.587 314.414 193.545 314.213 194.752 314.213C196.314 314.213 197.69 314.603 198.881 315.384C200.073 316.165 201.002 317.272 201.67 318.705C202.338 320.137 202.672 321.828 202.672 323.776C202.672 325.74 202.338 327.442 201.67 328.883C201.002 330.316 200.077 331.426 198.893 332.215C197.71 332.996 196.346 333.386 194.8 333.386C193.609 333.386 192.655 333.189 191.939 332.795C191.222 332.392 190.671 331.937 190.285 331.43C189.898 330.915 189.601 330.489 189.391 330.151H189.15V339.955H186.3ZM189.101 323.727C189.101 325.128 189.307 326.363 189.717 327.434C190.128 328.496 190.727 329.33 191.516 329.933C192.305 330.529 193.271 330.827 194.414 330.827C195.605 330.827 196.599 330.513 197.396 329.885C198.201 329.249 198.805 328.396 199.207 327.325C199.618 326.247 199.823 325.047 199.823 323.727C199.823 322.423 199.622 321.248 199.219 320.202C198.825 319.147 198.225 318.314 197.42 317.702C196.623 317.083 195.621 316.773 194.414 316.773C193.255 316.773 192.281 317.067 191.492 317.654C190.703 318.234 190.108 319.047 189.705 320.093C189.303 321.131 189.101 322.343 189.101 323.727ZM236.866 316H233.871C233.694 315.139 233.384 314.382 232.942 313.73C232.507 313.078 231.976 312.531 231.348 312.088C230.728 311.637 230.04 311.299 229.283 311.074C228.527 310.848 227.738 310.736 226.917 310.736C225.42 310.736 224.063 311.114 222.848 311.871C221.641 312.627 220.679 313.742 219.962 315.215C219.254 316.688 218.9 318.495 218.9 320.636C218.9 322.777 219.254 324.585 219.962 326.058C220.679 327.531 221.641 328.645 222.848 329.402C224.063 330.159 225.42 330.537 226.917 330.537C227.738 330.537 228.527 330.424 229.283 330.199C230.04 329.973 230.728 329.639 231.348 329.197C231.976 328.746 232.507 328.195 232.942 327.543C233.384 326.883 233.694 326.126 233.871 325.273H236.866C236.64 326.536 236.23 327.667 235.634 328.665C235.039 329.664 234.298 330.513 233.413 331.213C232.527 331.905 231.533 332.433 230.43 332.795C229.336 333.157 228.164 333.338 226.917 333.338C224.808 333.338 222.932 332.823 221.29 331.793C219.648 330.762 218.356 329.297 217.415 327.398C216.473 325.498 216.002 323.244 216.002 320.636C216.002 318.028 216.473 315.775 217.415 313.875C218.356 311.975 219.648 310.51 221.29 309.48C222.932 308.45 224.808 307.935 226.917 307.935C228.164 307.935 229.336 308.116 230.43 308.478C231.533 308.84 232.527 309.371 233.413 310.072C234.298 310.764 235.039 311.609 235.634 312.607C236.23 313.597 236.64 314.728 236.866 316Z" fill="#00A8F0"/>
<path d="M238.939 185.061C239.525 185.646 240.475 185.646 241.061 185.061L250.607 175.515C251.192 174.929 251.192 173.979 250.607 173.393C250.021 172.808 249.071 172.808 248.485 173.393L240 181.879L231.515 173.393C230.929 172.808 229.979 172.808 229.393 173.393C228.808 173.979 228.808 174.929 229.393 175.515L238.939 185.061ZM240 184L241.5 184L241.5 141L240 141L238.5 141L238.5 184L240 184Z" fill="#727272"/>
<path d="M761.939 185.061C762.525 185.646 763.475 185.646 764.061 185.061L773.607 175.515C774.192 174.929 774.192 173.979 773.607 173.393C773.021 172.808 772.071 172.808 771.485 173.393L763 181.879L754.515 173.393C753.929 172.808 752.979 172.808 752.393 173.393C751.808 173.979 751.808 174.929 752.393 175.515L761.939 185.061ZM763 184L764.5 184L764.5 141L763 141L761.5 141L761.5 184L763 184Z" fill="#727272"/>
</svg>
