<svg width="841" height="213" viewBox="0 0 841 213" fill="none" xmlns="http://www.w3.org/2000/svg">
<rect x="1" y="92" width="839" height="120" rx="26" stroke="#DBDBDB" stroke-width="2"/>
<line x1="121" y1="91" x2="121" y2="213" stroke="#DBDBDB" stroke-width="2"/>
<line x1="241" y1="91" x2="241" y2="213" stroke="#DBDBDB" stroke-width="2"/>
<line x1="362" y1="91" x2="362" y2="213" stroke="#DBDBDB" stroke-width="2"/>
<line x1="482" y1="91" x2="482" y2="213" stroke="#DBDBDB" stroke-width="2"/>
<line x1="602" y1="91" x2="602" y2="213" stroke="#DBDBDB" stroke-width="2"/>
<line x1="722" y1="91" x2="722" y2="213" stroke="#DBDBDB" stroke-width="2"/>
<path d="M38.9762 166V163.443L48.5785 152.932C49.7054 151.701 50.6334 150.631 51.3626 149.722C52.0917 148.803 52.6315 147.941 52.9819 147.136C53.3417 146.322 53.5217 145.47 53.5217 144.58C53.5217 143.557 53.2755 142.671 52.783 141.923C52.3001 141.175 51.6372 140.598 50.7944 140.19C49.9516 139.783 49.0046 139.58 47.9535 139.58C46.8361 139.58 45.8607 139.812 45.0273 140.276C44.2035 140.73 43.5643 141.369 43.1097 142.193C42.6647 143.017 42.4421 143.983 42.4421 145.091H39.0898C39.0898 143.386 39.4828 141.89 40.2688 140.602C41.0548 139.314 42.1249 138.311 43.479 137.591C44.8427 136.871 46.372 136.511 48.0671 136.511C49.7717 136.511 51.2821 136.871 52.5984 137.591C53.9147 138.311 54.9469 139.281 55.695 140.503C56.4431 141.724 56.8171 143.083 56.8171 144.58C56.8171 145.65 56.623 146.696 56.2347 147.719C55.8559 148.732 55.1931 149.864 54.2461 151.114C53.3086 152.354 52.0065 153.869 50.3398 155.659L43.8058 162.648V162.875H57.3285V166H38.9762ZM64.104 166L77.1154 140.261V140.034H62.1154V136.909H80.7518V140.205L67.7972 166H64.104Z" fill="white"/>
<path d="M167.497 166.398C165.622 166.398 163.951 166.076 162.483 165.432C161.025 164.788 159.865 163.893 159.003 162.747C158.151 161.592 157.687 160.252 157.611 158.727H161.19C161.266 159.665 161.588 160.474 162.156 161.156C162.724 161.829 163.468 162.349 164.386 162.719C165.305 163.088 166.323 163.273 167.44 163.273C168.69 163.273 169.798 163.055 170.764 162.619C171.73 162.184 172.488 161.578 173.037 160.801C173.586 160.025 173.861 159.125 173.861 158.102C173.861 157.032 173.596 156.09 173.065 155.276C172.535 154.452 171.759 153.808 170.736 153.344C169.713 152.88 168.463 152.648 166.986 152.648H164.656V149.523H166.986C168.141 149.523 169.154 149.314 170.026 148.898C170.906 148.481 171.593 147.894 172.085 147.136C172.587 146.379 172.838 145.489 172.838 144.466C172.838 143.481 172.62 142.624 172.185 141.895C171.749 141.166 171.134 140.598 170.338 140.19C169.552 139.783 168.624 139.58 167.554 139.58C166.55 139.58 165.603 139.764 164.713 140.134C163.832 140.493 163.113 141.019 162.554 141.71C161.995 142.392 161.692 143.216 161.645 144.182H158.236C158.293 142.657 158.752 141.322 159.614 140.176C160.475 139.021 161.602 138.121 162.994 137.477C164.396 136.833 165.935 136.511 167.611 136.511C169.41 136.511 170.954 136.876 172.241 137.605C173.529 138.325 174.519 139.277 175.21 140.46C175.902 141.644 176.247 142.922 176.247 144.295C176.247 145.934 175.816 147.33 174.955 148.486C174.102 149.641 172.942 150.441 171.474 150.886V151.114C173.312 151.417 174.746 152.198 175.778 153.457C176.811 154.707 177.327 156.256 177.327 158.102C177.327 159.684 176.896 161.104 176.034 162.364C175.182 163.614 174.017 164.598 172.54 165.318C171.063 166.038 169.382 166.398 167.497 166.398ZM183.136 166V163.443L192.739 152.932C193.866 151.701 194.794 150.631 195.523 149.722C196.252 148.803 196.792 147.941 197.142 147.136C197.502 146.322 197.682 145.47 197.682 144.58C197.682 143.557 197.436 142.671 196.943 141.923C196.46 141.175 195.797 140.598 194.955 140.19C194.112 139.783 193.165 139.58 192.114 139.58C190.996 139.58 190.021 139.812 189.188 140.276C188.364 140.73 187.724 141.369 187.27 142.193C186.825 143.017 186.602 143.983 186.602 145.091H183.25C183.25 143.386 183.643 141.89 184.429 140.602C185.215 139.314 186.285 138.311 187.639 137.591C189.003 136.871 190.532 136.511 192.227 136.511C193.932 136.511 195.442 136.871 196.759 137.591C198.075 138.311 199.107 139.281 199.855 140.503C200.603 141.724 200.977 143.083 200.977 144.58C200.977 145.65 200.783 146.696 200.395 147.719C200.016 148.732 199.353 149.864 198.406 151.114C197.469 152.354 196.167 153.869 194.5 155.659L187.966 162.648V162.875H201.489V166H183.136Z" fill="white"/>
<path d="M277.572 160.034V157.136L290.356 136.909H292.458V141.398H291.038L281.379 156.682V156.909H298.594V160.034H277.572ZM291.265 166V159.153V157.804V136.909H294.617V166H291.265ZM304.827 166L317.838 140.261V140.034H302.838V136.909H321.474V140.205L308.52 166H304.827Z" fill="white"/>
<path d="M255.814 15.9091H261.964V34.8011C261.964 36.9223 261.458 38.7784 260.444 40.3693C259.44 41.9602 258.034 43.2008 256.225 44.0909C254.417 44.9716 252.31 45.4119 249.904 45.4119C247.49 45.4119 245.378 44.9716 243.569 44.0909C241.761 43.2008 240.354 41.9602 239.35 40.3693C238.347 38.7784 237.845 36.9223 237.845 34.8011V15.9091H243.995V34.2756C243.995 35.3835 244.237 36.3684 244.72 37.2301C245.212 38.0919 245.904 38.7689 246.794 39.2614C247.684 39.7538 248.721 40 249.904 40C251.098 40 252.135 39.7538 253.015 39.2614C253.905 38.7689 254.592 38.0919 255.075 37.2301C255.567 36.3684 255.814 35.3835 255.814 34.2756V15.9091ZM272.962 32.3864V45H266.911V23.1818H272.678V27.0312H272.934C273.417 25.7623 274.226 24.7585 275.363 24.0199C276.499 23.2718 277.877 22.8977 279.496 22.8977C281.011 22.8977 282.332 23.2292 283.459 23.892C284.586 24.5549 285.462 25.5019 286.087 26.733C286.712 27.9545 287.025 29.4129 287.025 31.108V45H280.973V32.1875C280.983 30.8523 280.642 29.8106 279.951 29.0625C279.259 28.3049 278.308 27.9261 277.096 27.9261C276.281 27.9261 275.561 28.1013 274.936 28.4517C274.321 28.8021 273.838 29.3134 273.488 29.9858C273.147 30.6487 272.971 31.4489 272.962 32.3864ZM309.947 29.4034L304.407 29.7443C304.313 29.2708 304.109 28.8447 303.797 28.4659C303.484 28.0777 303.072 27.7699 302.561 27.5426C302.059 27.3059 301.458 27.1875 300.757 27.1875C299.819 27.1875 299.029 27.3864 298.385 27.7841C297.741 28.1723 297.419 28.6932 297.419 29.3466C297.419 29.8674 297.627 30.3078 298.044 30.6676C298.46 31.0275 299.175 31.3163 300.189 31.5341L304.137 32.3295C306.259 32.7652 307.84 33.4659 308.882 34.4318C309.923 35.3977 310.444 36.6667 310.444 38.2386C310.444 39.6686 310.023 40.9233 309.18 42.0028C308.347 43.0824 307.201 43.9252 305.743 44.5312C304.294 45.1278 302.622 45.4261 300.728 45.4261C297.84 45.4261 295.539 44.8248 293.825 43.6222C292.12 42.41 291.121 40.7623 290.828 38.679L296.779 38.3665C296.959 39.2472 297.395 39.9195 298.086 40.3835C298.778 40.8381 299.663 41.0653 300.743 41.0653C301.803 41.0653 302.655 40.8617 303.299 40.4545C303.953 40.0379 304.284 39.5028 304.294 38.8494C304.284 38.3002 304.052 37.8504 303.598 37.5C303.143 37.1402 302.442 36.8655 301.495 36.6761L297.717 35.9233C295.586 35.4972 294 34.7585 292.958 33.7074C291.926 32.6562 291.41 31.3163 291.41 29.6875C291.41 28.286 291.789 27.0786 292.547 26.0653C293.314 25.0521 294.388 24.2708 295.771 23.7216C297.163 23.1723 298.792 22.8977 300.657 22.8977C303.413 22.8977 305.582 23.4801 307.163 24.6449C308.754 25.8097 309.682 27.3958 309.947 29.4034ZM324.113 45.4261C321.906 45.4261 319.998 44.9574 318.388 44.0199C316.788 43.0729 315.552 41.7566 314.681 40.071C313.81 38.3759 313.374 36.411 313.374 34.1761C313.374 31.9223 313.81 29.9527 314.681 28.267C315.552 26.572 316.788 25.2557 318.388 24.3182C319.998 23.3712 321.906 22.8977 324.113 22.8977C326.319 22.8977 328.222 23.3712 329.823 24.3182C331.433 25.2557 332.673 26.572 333.544 28.267C334.416 29.9527 334.851 31.9223 334.851 34.1761C334.851 36.411 334.416 38.3759 333.544 40.071C332.673 41.7566 331.433 43.0729 329.823 44.0199C328.222 44.9574 326.319 45.4261 324.113 45.4261ZM324.141 40.7386C325.145 40.7386 325.983 40.4545 326.655 39.8864C327.328 39.3087 327.834 38.5227 328.175 37.5284C328.525 36.5341 328.701 35.4025 328.701 34.1335C328.701 32.8646 328.525 31.733 328.175 30.7386C327.834 29.7443 327.328 28.9583 326.655 28.3807C325.983 27.803 325.145 27.5142 324.141 27.5142C323.128 27.5142 322.275 27.803 321.584 28.3807C320.902 28.9583 320.386 29.7443 320.036 30.7386C319.695 31.733 319.525 32.8646 319.525 34.1335C319.525 35.4025 319.695 36.5341 320.036 37.5284C320.386 38.5227 320.902 39.3087 321.584 39.8864C322.275 40.4545 323.128 40.7386 324.141 40.7386ZM338.786 45V23.1818H344.652V26.9886H344.88C345.277 25.6345 345.945 24.6117 346.882 23.9205C347.82 23.2197 348.9 22.8693 350.121 22.8693C350.424 22.8693 350.751 22.8883 351.101 22.9261C351.452 22.964 351.759 23.0161 352.025 23.0824V28.4517C351.74 28.3665 351.347 28.2907 350.846 28.2244C350.344 28.1581 349.884 28.125 349.468 28.125C348.578 28.125 347.782 28.3191 347.081 28.7074C346.39 29.0862 345.841 29.6165 345.434 30.2983C345.036 30.9801 344.837 31.7661 344.837 32.6562V45H338.786ZM367.852 23.1818V27.7273H354.713V23.1818H367.852ZM357.696 17.9545H363.747V38.2955C363.747 38.8542 363.832 39.2898 364.002 39.6023C364.173 39.9053 364.41 40.1184 364.713 40.2415C365.025 40.3646 365.385 40.4261 365.792 40.4261C366.076 40.4261 366.36 40.4025 366.645 40.3551C366.929 40.2983 367.146 40.2557 367.298 40.2273L368.25 44.7301C367.947 44.8248 367.52 44.9337 366.971 45.0568C366.422 45.1894 365.754 45.2699 364.968 45.2983C363.51 45.3551 362.232 45.161 361.133 44.7159C360.044 44.2708 359.197 43.5795 358.591 42.642C357.984 41.7045 357.686 40.5208 357.696 39.0909V17.9545ZM381.502 45.4261C379.258 45.4261 377.326 44.9716 375.707 44.0625C374.097 43.1439 372.857 41.8466 371.985 40.1705C371.114 38.4848 370.679 36.4915 370.679 34.1903C370.679 31.946 371.114 29.9763 371.985 28.2812C372.857 26.5862 374.083 25.2652 375.664 24.3182C377.255 23.3712 379.121 22.8977 381.261 22.8977C382.7 22.8977 384.04 23.1297 385.281 23.5938C386.531 24.0483 387.62 24.7348 388.548 25.6534C389.485 26.572 390.215 27.7273 390.735 29.1193C391.256 30.5019 391.517 32.1212 391.517 33.9773V35.6392H373.093V31.8892H385.821C385.821 31.018 385.631 30.2462 385.252 29.5739C384.874 28.9015 384.348 28.3759 383.676 27.9972C383.013 27.6089 382.241 27.4148 381.36 27.4148C380.442 27.4148 379.627 27.6278 378.917 28.054C378.217 28.4706 377.667 29.0341 377.27 29.7443C376.872 30.4451 376.668 31.2263 376.659 32.0881V35.6534C376.659 36.733 376.858 37.6657 377.255 38.4517C377.663 39.2377 378.235 39.8438 378.974 40.2699C379.713 40.696 380.589 40.9091 381.602 40.9091C382.274 40.9091 382.89 40.8144 383.449 40.625C384.007 40.4356 384.485 40.1515 384.883 39.7727C385.281 39.3939 385.584 38.9299 385.792 38.3807L391.389 38.75C391.105 40.0947 390.522 41.2689 389.642 42.2727C388.77 43.267 387.644 44.0436 386.261 44.6023C384.888 45.1515 383.302 45.4261 381.502 45.4261ZM403.505 45.3551C401.848 45.3551 400.347 44.929 399.002 44.0767C397.667 43.215 396.607 41.9508 395.821 40.2841C395.044 38.608 394.656 36.553 394.656 34.1193C394.656 31.6193 395.058 29.5407 395.863 27.8835C396.668 26.2169 397.738 24.9716 399.074 24.1477C400.418 23.3144 401.891 22.8977 403.491 22.8977C404.713 22.8977 405.731 23.1061 406.545 23.5227C407.369 23.9299 408.032 24.4413 408.534 25.0568C409.045 25.6629 409.433 26.2595 409.699 26.8466H409.883V15.9091H415.92V45H409.954V41.5057H409.699C409.414 42.1117 409.012 42.7131 408.491 43.3097C407.98 43.8968 407.312 44.3845 406.488 44.7727C405.674 45.161 404.68 45.3551 403.505 45.3551ZM405.423 40.5398C406.398 40.5398 407.222 40.2746 407.895 39.7443C408.576 39.2045 409.097 38.4517 409.457 37.4858C409.826 36.5199 410.011 35.3883 410.011 34.0909C410.011 32.7936 409.831 31.6667 409.471 30.7102C409.111 29.7538 408.591 29.0152 407.909 28.4943C407.227 27.9735 406.398 27.7131 405.423 27.7131C404.429 27.7131 403.591 27.983 402.909 28.5227C402.227 29.0625 401.711 29.8106 401.36 30.767C401.01 31.7235 400.835 32.8314 400.835 34.0909C400.835 35.3598 401.01 36.482 401.36 37.4574C401.72 38.4233 402.236 39.1809 402.909 39.7301C403.591 40.2699 404.429 40.5398 405.423 40.5398ZM454.599 15.9091V45H449.287L436.63 26.6903H436.417V45H430.267V15.9091H435.664L448.221 34.2045H448.477V15.9091H454.599ZM473.559 35.7102V23.1818H479.61V45H473.8V41.0369H473.573C473.08 42.3153 472.261 43.3428 471.115 44.1193C469.979 44.8958 468.592 45.2841 466.953 45.2841C465.495 45.2841 464.212 44.9527 463.104 44.2898C461.996 43.6269 461.13 42.6847 460.505 41.4631C459.889 40.2415 459.577 38.7784 459.567 37.0739V23.1818H465.618V35.9943C465.628 37.2822 465.973 38.3002 466.655 39.0483C467.337 39.7964 468.251 40.1705 469.397 40.1705C470.126 40.1705 470.808 40.0047 471.442 39.6733C472.077 39.3324 472.588 38.8305 472.976 38.1676C473.374 37.5047 473.568 36.6856 473.559 35.7102ZM484.45 45V23.1818H490.217V27.0312H490.473C490.927 25.7528 491.685 24.7443 492.745 24.0057C493.806 23.267 495.075 22.8977 496.552 22.8977C498.048 22.8977 499.322 23.2718 500.373 24.0199C501.424 24.7585 502.125 25.7623 502.475 27.0312H502.703C503.148 25.7812 503.953 24.7822 505.118 24.0341C506.292 23.2765 507.679 22.8977 509.279 22.8977C511.315 22.8977 512.968 23.5464 514.237 24.8438C515.515 26.1316 516.154 27.9593 516.154 30.3267V45H510.118V31.5199C510.118 30.3078 509.796 29.3987 509.152 28.7926C508.508 28.1866 507.703 27.8835 506.737 27.8835C505.638 27.8835 504.781 28.2339 504.166 28.9347C503.55 29.6259 503.243 30.5398 503.243 31.6761V45H497.376V31.392C497.376 30.322 497.068 29.4697 496.453 28.8352C495.847 28.2008 495.047 27.8835 494.052 27.8835C493.38 27.8835 492.774 28.054 492.234 28.3949C491.704 28.7263 491.282 29.1951 490.97 29.8011C490.657 30.3977 490.501 31.0985 490.501 31.9034V45H484.45ZM521.048 45V15.9091H527.099V26.8466H527.284C527.549 26.2595 527.932 25.6629 528.434 25.0568C528.946 24.4413 529.609 23.9299 530.423 23.5227C531.247 23.1061 532.27 22.8977 533.491 22.8977C535.082 22.8977 536.55 23.3144 537.895 24.1477C539.239 24.9716 540.314 26.2169 541.119 27.8835C541.924 29.5407 542.326 31.6193 542.326 34.1193C542.326 36.553 541.933 38.608 541.147 40.2841C540.371 41.9508 539.31 43.215 537.966 44.0767C536.63 44.929 535.134 45.3551 533.477 45.3551C532.303 45.3551 531.304 45.161 530.48 44.7727C529.665 44.3845 528.998 43.8968 528.477 43.3097C527.956 42.7131 527.558 42.1117 527.284 41.5057H527.014V45H521.048ZM526.971 34.0909C526.971 35.3883 527.151 36.5199 527.511 37.4858C527.871 38.4517 528.392 39.2045 529.074 39.7443C529.755 40.2746 530.584 40.5398 531.559 40.5398C532.544 40.5398 533.377 40.2699 534.059 39.7301C534.741 39.1809 535.257 38.4233 535.608 37.4574C535.967 36.482 536.147 35.3598 536.147 34.0909C536.147 32.8314 535.972 31.7235 535.622 30.767C535.271 29.8106 534.755 29.0625 534.074 28.5227C533.392 27.983 532.554 27.7131 531.559 27.7131C530.574 27.7131 529.741 27.9735 529.059 28.4943C528.387 29.0152 527.871 29.7538 527.511 30.7102C527.151 31.6667 526.971 32.7936 526.971 34.0909ZM556.307 45.4261C554.063 45.4261 552.131 44.9716 550.512 44.0625C548.902 43.1439 547.661 41.8466 546.79 40.1705C545.919 38.4848 545.483 36.4915 545.483 34.1903C545.483 31.946 545.919 29.9763 546.79 28.2812C547.661 26.5862 548.888 25.2652 550.469 24.3182C552.06 23.3712 553.926 22.8977 556.066 22.8977C557.505 22.8977 558.845 23.1297 560.086 23.5938C561.336 24.0483 562.425 24.7348 563.353 25.6534C564.29 26.572 565.019 27.7273 565.54 29.1193C566.061 30.5019 566.321 32.1212 566.321 33.9773V35.6392H547.898V31.8892H560.625C560.625 31.018 560.436 30.2462 560.057 29.5739C559.678 28.9015 559.153 28.3759 558.48 27.9972C557.818 27.6089 557.046 27.4148 556.165 27.4148C555.247 27.4148 554.432 27.6278 553.722 28.054C553.021 28.4706 552.472 29.0341 552.074 29.7443C551.676 30.4451 551.473 31.2263 551.463 32.0881V35.6534C551.463 36.733 551.662 37.6657 552.06 38.4517C552.467 39.2377 553.04 39.8438 553.779 40.2699C554.517 40.696 555.393 40.9091 556.407 40.9091C557.079 40.9091 557.694 40.8144 558.253 40.625C558.812 40.4356 559.29 40.1515 559.688 39.7727C560.086 39.3939 560.389 38.9299 560.597 38.3807L566.194 38.75C565.909 40.0947 565.327 41.2689 564.446 42.2727C563.575 43.267 562.448 44.0436 561.066 44.6023C559.693 45.1515 558.106 45.4261 556.307 45.4261ZM570.27 45V23.1818H576.137V26.9886H576.364C576.762 25.6345 577.429 24.6117 578.367 23.9205C579.304 23.2197 580.384 22.8693 581.605 22.8693C581.908 22.8693 582.235 22.8883 582.586 22.9261C582.936 22.964 583.244 23.0161 583.509 23.0824V28.4517C583.225 28.3665 582.832 28.2907 582.33 28.2244C581.828 28.1581 581.369 28.125 580.952 28.125C580.062 28.125 579.266 28.3191 578.566 28.7074C577.874 29.0862 577.325 29.6165 576.918 30.2983C576.52 30.9801 576.321 31.7661 576.321 32.6562V45H570.27ZM604.791 29.4034L599.251 29.7443C599.156 29.2708 598.953 28.8447 598.64 28.4659C598.328 28.0777 597.916 27.7699 597.404 27.5426C596.903 27.3059 596.301 27.1875 595.6 27.1875C594.663 27.1875 593.872 27.3864 593.228 27.7841C592.584 28.1723 592.262 28.6932 592.262 29.3466C592.262 29.8674 592.471 30.3078 592.887 30.6676C593.304 31.0275 594.019 31.3163 595.032 31.5341L598.981 32.3295C601.102 32.7652 602.684 33.4659 603.725 34.4318C604.767 35.3977 605.288 36.6667 605.288 38.2386C605.288 39.6686 604.867 40.9233 604.024 42.0028C603.19 43.0824 602.045 43.9252 600.586 44.5312C599.137 45.1278 597.466 45.4261 595.572 45.4261C592.684 45.4261 590.383 44.8248 588.669 43.6222C586.964 42.41 585.965 40.7623 585.672 38.679L591.623 38.3665C591.803 39.2472 592.239 39.9195 592.93 40.3835C593.621 40.8381 594.507 41.0653 595.586 41.0653C596.647 41.0653 597.499 40.8617 598.143 40.4545C598.797 40.0379 599.128 39.5028 599.137 38.8494C599.128 38.3002 598.896 37.8504 598.441 37.5C597.987 37.1402 597.286 36.8655 596.339 36.6761L592.561 35.9233C590.43 35.4972 588.844 34.7585 587.802 33.7074C586.77 32.6562 586.254 31.3163 586.254 29.6875C586.254 28.286 586.633 27.0786 587.39 26.0653C588.157 25.0521 589.232 24.2708 590.615 23.7216C592.007 23.1723 593.636 22.8977 595.501 22.8977C598.257 22.8977 600.425 23.4801 602.007 24.6449C603.598 25.8097 604.526 27.3958 604.791 29.4034Z" fill="white"/>
<path d="M411.961 136.909V166H408.439V140.602H408.268L401.166 145.318V141.739L408.439 136.909H411.961ZM429.589 136.511C430.782 136.521 431.975 136.748 433.169 137.193C434.362 137.638 435.451 138.377 436.436 139.409C437.421 140.432 438.211 141.829 438.808 143.599C439.404 145.37 439.703 147.591 439.703 150.261C439.703 152.847 439.457 155.143 438.964 157.151C438.481 159.149 437.78 160.834 436.862 162.207C435.953 163.58 434.845 164.622 433.538 165.332C432.241 166.043 430.773 166.398 429.135 166.398C427.506 166.398 426.052 166.076 424.774 165.432C423.505 164.778 422.463 163.874 421.649 162.719C420.844 161.554 420.328 160.205 420.1 158.67H423.566C423.879 160.006 424.499 161.109 425.427 161.98C426.365 162.842 427.6 163.273 429.135 163.273C431.379 163.273 433.15 162.293 434.447 160.332C435.754 158.372 436.407 155.602 436.407 152.023H436.18C435.65 152.818 435.02 153.505 434.291 154.082C433.562 154.66 432.752 155.105 431.862 155.418C430.972 155.73 430.025 155.886 429.021 155.886C427.354 155.886 425.825 155.474 424.433 154.651C423.05 153.817 421.942 152.676 421.109 151.227C420.285 149.769 419.873 148.102 419.873 146.227C419.873 144.447 420.271 142.818 421.066 141.341C421.871 139.854 422.998 138.67 424.447 137.79C425.905 136.909 427.619 136.483 429.589 136.511ZM429.589 139.636C428.396 139.636 427.321 139.935 426.365 140.531C425.418 141.118 424.665 141.914 424.106 142.918C423.557 143.912 423.282 145.015 423.282 146.227C423.282 147.439 423.547 148.543 424.078 149.537C424.618 150.522 425.351 151.308 426.279 151.895C427.217 152.473 428.282 152.761 429.475 152.761C430.375 152.761 431.213 152.586 431.99 152.236C432.766 151.876 433.443 151.388 434.021 150.773C434.608 150.148 435.067 149.442 435.399 148.656C435.73 147.861 435.896 147.032 435.896 146.17C435.896 145.034 435.621 143.969 435.072 142.974C434.532 141.98 433.784 141.175 432.828 140.56C431.881 139.944 430.801 139.636 429.589 139.636Z" fill="white"/>
<path d="M532.332 136.909V166H528.81V140.602H528.639L521.537 145.318V141.739L528.81 136.909H532.332ZM540.699 166V163.443L550.301 152.932C551.428 151.701 552.356 150.631 553.085 149.722C553.814 148.803 554.354 147.941 554.705 147.136C555.064 146.322 555.244 145.47 555.244 144.58C555.244 143.557 554.998 142.671 554.506 141.923C554.023 141.175 553.36 140.598 552.517 140.19C551.674 139.783 550.727 139.58 549.676 139.58C548.559 139.58 547.583 139.812 546.75 140.276C545.926 140.73 545.287 141.369 544.832 142.193C544.387 143.017 544.165 143.983 544.165 145.091H540.812C540.812 143.386 541.205 141.89 541.991 140.602C542.777 139.314 543.848 138.311 545.202 137.591C546.565 136.871 548.095 136.511 549.79 136.511C551.494 136.511 553.005 136.871 554.321 137.591C555.637 138.311 556.67 139.281 557.418 140.503C558.166 141.724 558.54 143.083 558.54 144.58C558.54 145.65 558.346 146.696 557.957 147.719C557.579 148.732 556.916 149.864 555.969 151.114C555.031 152.354 553.729 153.869 552.062 155.659L545.528 162.648V162.875H559.051V166H540.699Z" fill="white"/>
<path d="M652.118 136.909V166H648.595V140.602H648.424L641.322 145.318V141.739L648.595 136.909H652.118ZM669.802 166.398C667.851 166.398 666.128 166.052 664.632 165.361C663.145 164.66 661.985 163.699 661.152 162.477C660.318 161.246 659.906 159.845 659.916 158.273C659.906 157.042 660.148 155.905 660.64 154.864C661.133 153.812 661.805 152.937 662.657 152.236C663.519 151.526 664.48 151.076 665.541 150.886V150.716C664.149 150.356 663.041 149.575 662.217 148.372C661.393 147.16 660.986 145.782 660.995 144.239C660.986 142.761 661.36 141.44 662.118 140.276C662.875 139.111 663.917 138.192 665.243 137.52C666.578 136.848 668.098 136.511 669.802 136.511C671.488 136.511 672.993 136.848 674.319 137.52C675.645 138.192 676.687 139.111 677.444 140.276C678.211 141.44 678.6 142.761 678.609 144.239C678.6 145.782 678.178 147.16 677.345 148.372C676.521 149.575 675.427 150.356 674.064 150.716V150.886C675.115 151.076 676.062 151.526 676.904 152.236C677.747 152.937 678.42 153.812 678.922 154.864C679.423 155.905 679.679 157.042 679.689 158.273C679.679 159.845 679.253 161.246 678.41 162.477C677.577 163.699 676.417 164.66 674.93 165.361C673.453 166.052 671.743 166.398 669.802 166.398ZM669.802 163.273C671.118 163.273 672.255 163.06 673.211 162.634C674.168 162.207 674.906 161.606 675.427 160.83C675.948 160.053 676.213 159.144 676.223 158.102C676.213 157.004 675.929 156.033 675.37 155.19C674.812 154.348 674.049 153.685 673.083 153.202C672.127 152.719 671.033 152.477 669.802 152.477C668.562 152.477 667.454 152.719 666.478 153.202C665.512 153.685 664.75 154.348 664.191 155.19C663.642 156.033 663.372 157.004 663.382 158.102C663.372 159.144 663.623 160.053 664.135 160.83C664.655 161.606 665.399 162.207 666.365 162.634C667.331 163.06 668.476 163.273 669.802 163.273ZM669.802 149.466C670.844 149.466 671.767 149.258 672.572 148.841C673.386 148.424 674.026 147.842 674.49 147.094C674.954 146.346 675.19 145.47 675.2 144.466C675.19 143.481 674.958 142.624 674.504 141.895C674.049 141.156 673.42 140.588 672.615 140.19C671.81 139.783 670.872 139.58 669.802 139.58C668.713 139.58 667.761 139.783 666.947 140.19C666.133 140.588 665.503 141.156 665.058 141.895C664.613 142.624 664.395 143.481 664.404 144.466C664.395 145.47 664.618 146.346 665.072 147.094C665.536 147.842 666.175 148.424 666.99 148.841C667.804 149.258 668.742 149.466 669.802 149.466Z" fill="white"/>
<path d="M771.707 136.909V166H768.185V140.602H768.014L760.912 145.318V141.739L768.185 136.909H771.707ZM789.903 166.398C788.028 166.398 786.357 166.076 784.889 165.432C783.431 164.788 782.271 163.893 781.409 162.747C780.557 161.592 780.093 160.252 780.017 158.727H783.597C783.672 159.665 783.994 160.474 784.562 161.156C785.131 161.829 785.874 162.349 786.793 162.719C787.711 163.088 788.729 163.273 789.847 163.273C791.097 163.273 792.205 163.055 793.17 162.619C794.136 162.184 794.894 161.578 795.443 160.801C795.992 160.025 796.267 159.125 796.267 158.102C796.267 157.032 796.002 156.09 795.472 155.276C794.941 154.452 794.165 153.808 793.142 153.344C792.119 152.88 790.869 152.648 789.392 152.648H787.062V149.523H789.392C790.547 149.523 791.561 149.314 792.432 148.898C793.313 148.481 793.999 147.894 794.491 147.136C794.993 146.379 795.244 145.489 795.244 144.466C795.244 143.481 795.027 142.624 794.591 141.895C794.155 141.166 793.54 140.598 792.744 140.19C791.958 139.783 791.03 139.58 789.96 139.58C788.956 139.58 788.009 139.764 787.119 140.134C786.239 140.493 785.519 141.019 784.96 141.71C784.402 142.392 784.098 143.216 784.051 144.182H780.642C780.699 142.657 781.158 141.322 782.02 140.176C782.882 139.021 784.009 138.121 785.401 137.477C786.802 136.833 788.341 136.511 790.017 136.511C791.816 136.511 793.36 136.876 794.648 137.605C795.936 138.325 796.925 139.277 797.616 140.46C798.308 141.644 798.653 142.922 798.653 144.295C798.653 145.934 798.223 147.33 797.361 148.486C796.509 149.641 795.348 150.441 793.881 150.886V151.114C795.718 151.417 797.152 152.198 798.185 153.457C799.217 154.707 799.733 156.256 799.733 158.102C799.733 159.684 799.302 161.104 798.44 162.364C797.588 163.614 796.423 164.598 794.946 165.318C793.469 166.038 791.788 166.398 789.903 166.398Z" fill="white"/>
</svg>
