<svg xmlns="http://www.w3.org/2000/svg" width="1366" height="390" fill="none" viewBox="0 0 1366 390"><rect width="1364" height="150" x="1" y="78" stroke="#dbdbdb" stroke-width="2" rx="27"/><rect width="337" height="150" x="2" y="78" fill="#096" stroke="#dbdbdb" stroke-width="2" rx="27"/><rect width="529.6" height="150" x="672" y="78" fill="#ec003f" stroke="#dbdbdb" stroke-width="2" rx="27"/><path fill="#fff" d="M1223.85 171v-4.432l10.36-9.588c.88-.852 1.61-1.619 2.21-2.301q.915-1.023 1.38-2.003c.31-.663.47-1.378.47-2.145 0-.852-.2-1.586-.58-2.201a3.8 3.8 0 0 0-1.6-1.435q-1.005-.511-2.28-.511c-.89 0-1.67.179-2.33.539a3.75 3.75 0 0 0-1.54 1.549q-.54 1.008-.54 2.4h-5.83q0-2.855 1.29-4.957c.86-1.402 2.07-2.486 3.62-3.253q2.325-1.15 5.37-1.151c2.08 0 3.9.37 5.44 1.108 1.55.729 2.76 1.743 3.62 3.04s1.3 2.784 1.3 4.46q0 1.648-.66 3.253c-.42 1.07-1.19 2.259-2.29 3.566-1.09 1.297-2.64 2.855-4.64 4.673l-4.25 4.162v.199h12.22V171zm36.6.639c-2.44-.009-4.54-.611-6.31-1.804-1.75-1.193-3.1-2.921-4.04-5.184s-1.4-4.986-1.4-8.168q0-4.758 1.41-8.111 1.425-3.353 4.05-5.099c1.76-1.175 3.86-1.762 6.29-1.762 2.44 0 4.53.587 6.28 1.762 1.76 1.174 3.12 2.879 4.06 5.113q1.425 3.339 1.41 8.097c0 3.191-.47 5.919-1.42 8.182-.94 2.263-2.28 3.991-4.04 5.184-1.75 1.194-3.85 1.79-6.29 1.79m0-5.099q2.505 0 3.99-2.514c1-1.677 1.49-4.191 1.48-7.543 0-2.206-.23-4.044-.68-5.511s-1.08-2.571-1.9-3.31a4.17 4.17 0 0 0-2.89-1.108c-1.66 0-2.98.829-3.98 2.486q-1.485 2.486-1.5 7.443c0 2.235.22 4.1.67 5.597.45 1.486 1.09 2.604 1.91 3.352.83.738 1.79 1.108 2.9 1.108m25.56 4.46v-29.091h6.15v12.827h.39l10.47-12.827h7.37l-10.8 13.026L1310.52 171h-7.36l-7.97-11.96-3.03 3.693V171zm27.58 0v-29.091h11.65c2.14 0 3.92.317 5.35.952 1.43.634 2.51 1.515 3.23 2.642q1.08 1.676 1.08 3.863c0 1.137-.23 2.136-.68 2.998a5.9 5.9 0 0 1-1.88 2.102 7.7 7.7 0 0 1-2.7 1.15v.285c1.11.047 2.15.359 3.11.937q1.47.867 2.37 2.429c.61 1.032.91 2.263.91 3.693 0 1.544-.38 2.922-1.15 4.134-.75 1.202-1.88 2.154-3.36 2.855-1.49.701-3.32 1.051-5.5 1.051zm6.15-5.028h5.02q2.565 0 3.75-.981 1.17-.993 1.17-2.642c0-.804-.19-1.515-.58-2.13-.39-.616-.94-1.099-1.66-1.449-.71-.35-1.56-.526-2.54-.526h-5.16zm0-11.89h4.56q1.26 0 2.25-.44.99-.455 1.56-1.278c.39-.55.58-1.208.58-1.975 0-1.051-.37-1.898-1.12-2.542-.74-.644-1.79-.966-3.16-.966h-4.67zM142.337 144v-29.091h11.477q3.31 0 5.639 1.264 2.33 1.251 3.552 3.48 1.235 2.216 1.235 5.114t-1.25 5.114-3.622 3.451q-2.358 1.236-5.71 1.236h-7.315v-4.929h6.321q1.775 0 2.926-.611 1.164-.624 1.733-1.718.582-1.109.582-2.543 0-1.45-.582-2.528-.569-1.095-1.733-1.691-1.165-.61-2.955-.61h-4.147V144zm38.384-29.091V144h-6.15v-23.253h-.171l-6.662 4.176v-5.454l7.202-4.56zm10.508 25.71a3.32 3.32 0 0 1-2.415-.994q-.994-.995-.994-2.415 0-1.392.994-2.386a3.32 3.32 0 0 1 2.415-.994q1.364 0 2.386.994t1.023 2.386q0 .938-.483 1.719a3.7 3.7 0 0 1-1.236 1.236 3.25 3.25 0 0 1-1.69.454m0-14.275q-1.406 0-2.415-.995-.994-.993-.994-2.414 0-1.392.994-2.373 1.01-.993 2.415-.994 1.364 0 2.386.994 1.023.981 1.023 2.373 0 .951-.483 1.733a3.54 3.54 0 0 1-1.236 1.221 3.25 3.25 0 0 1-1.69.455m-68.047 66.054q-3.01 0-5.369-1.108-2.344-1.108-3.722-3.054t-1.434-4.46h5.966q.099 1.69 1.42 2.741t3.139 1.051q1.449 0 2.557-.639a4.6 4.6 0 0 0 1.747-1.804q.639-1.165.639-2.67 0-1.535-.653-2.699a4.6 4.6 0 0 0-1.776-1.818q-1.136-.654-2.599-.668-1.278 0-2.486.525-1.193.526-1.861 1.435l-5.468-.98 1.377-15.341h17.785v5.029H119.73l-.752 7.286h.17q.767-1.079 2.315-1.789 1.55-.711 3.466-.711 2.628 0 4.688 1.236t3.253 3.395q1.192 2.145 1.179 4.943.014 2.941-1.364 5.228-1.364 2.272-3.821 3.579-2.443 1.293-5.682 1.293m26.563.241q-3.666-.014-6.307-1.804-2.628-1.79-4.048-5.184-1.407-3.395-1.392-8.168 0-4.758 1.406-8.111 1.42-3.353 4.048-5.099 2.642-1.762 6.293-1.762 3.65 0 6.278 1.762 2.642 1.761 4.063 5.113 1.42 3.339 1.406 8.097 0 4.787-1.421 8.182-1.406 3.395-4.034 5.184t-6.292 1.79m0-5.099q2.5 0 3.991-2.514 1.492-2.515 1.477-7.543 0-3.31-.681-5.511-.668-2.202-1.904-3.31-1.221-1.108-2.883-1.108-2.486 0-3.978 2.486t-1.505 7.443q0 3.352.667 5.597.682 2.23 1.918 3.352a4.2 4.2 0 0 0 2.898 1.108m25.561 4.46v-29.091h6.15v12.827h.384l10.469-12.827h7.372l-10.796 13.026L199.809 192h-7.358l-7.969-11.96-3.026 3.693V192zm27.578 0v-29.091h11.648q3.21 0 5.355.952 2.144.951 3.224 2.642 1.08 1.676 1.08 3.863 0 1.705-.682 2.998a5.9 5.9 0 0 1-1.875 2.102q-1.18.81-2.699 1.15v.285a6.5 6.5 0 0 1 3.111.937q1.463.867 2.372 2.429.909 1.548.909 3.693 0 2.316-1.151 4.134-1.135 1.803-3.366 2.855-2.23 1.051-5.497 1.051zm6.15-5.028h5.015q2.571 0 3.75-.981 1.179-.993 1.179-2.642 0-1.207-.583-2.13-.582-.924-1.662-1.449-1.065-.526-2.542-.526h-5.157zm0-11.89h4.56q1.264 0 2.244-.44.995-.454 1.563-1.278.582-.825.582-1.975 0-1.576-1.122-2.542-1.108-.966-3.153-.966h-4.674zM905.439 144v-29.091h11.477q3.31 0 5.639 1.264 2.33 1.251 3.551 3.48 1.236 2.216 1.236 5.114t-1.25 5.114-3.622 3.451q-2.359 1.236-5.71 1.236h-7.316v-4.929h6.321q1.776 0 2.926-.611 1.166-.624 1.733-1.718.583-1.109.583-2.543 0-1.45-.583-2.528-.567-1.095-1.733-1.691-1.164-.61-2.954-.61h-4.148V144zm36.48.398q-3.181 0-5.667-1.094-2.472-1.108-3.906-3.04-1.42-1.945-1.464-4.488h6.194q.057 1.065.696 1.875.653.795 1.733 1.235 1.079.441 2.429.441 1.406 0 2.485-.497 1.08-.498 1.691-1.378.61-.881.611-2.032 0-1.165-.654-2.059-.64-.91-1.846-1.421-1.194-.511-2.841-.511h-2.713v-4.517h2.713q1.392 0 2.457-.483 1.08-.483 1.676-1.335.597-.867.597-2.017 0-1.094-.526-1.918a3.47 3.47 0 0 0-1.449-1.307q-.923-.468-2.159-.468-1.25 0-2.287.454-1.037.44-1.662 1.264t-.667 1.932h-5.895q.042-2.514 1.435-4.432 1.392-1.917 3.75-2.997 2.371-1.094 5.355-1.094 3.01 0 5.27 1.094 2.258 1.093 3.508 2.955 1.264 1.846 1.25 4.147.014 2.444-1.52 4.077-1.52 1.633-3.963 2.074v.227q3.21.412 4.886 2.23 1.69 1.805 1.677 4.517.014 2.486-1.435 4.418-1.436 1.932-3.963 3.04-2.529 1.107-5.796 1.108m19.208-3.779a3.32 3.32 0 0 1-2.414-.994q-.995-.995-.995-2.415 0-1.392.995-2.386a3.32 3.32 0 0 1 2.414-.994q1.365 0 2.387.994t1.023 2.386q0 .938-.483 1.719a3.7 3.7 0 0 1-1.236 1.236 3.26 3.26 0 0 1-1.691.454m0-14.275a3.32 3.32 0 0 1-2.414-.995q-.995-.993-.995-2.414 0-1.392.995-2.373a3.32 3.32 0 0 1 2.414-.994q1.365 0 2.387.994 1.023.981 1.023 2.373 0 .951-.483 1.733a3.56 3.56 0 0 1-1.236 1.221 3.26 3.26 0 0 1-1.691.455m-71.55 66.054q-3.28 0-5.838-1.066-2.542-1.079-3.991-2.94a6.7 6.7 0 0 1-1.449-4.219q0-1.818.824-3.338a7.4 7.4 0 0 1 2.273-2.542 7.5 7.5 0 0 1 3.21-1.307v-.199q-2.33-.469-3.779-2.259-1.448-1.803-1.448-4.19 0-2.259 1.321-4.02 1.32-1.776 3.622-2.784 2.315-1.023 5.255-1.023t5.242 1.023q2.315 1.023 3.636 2.798 1.322 1.762 1.335 4.006-.013 2.4-1.477 4.19-1.462 1.79-3.75 2.259v.199a7.4 7.4 0 0 1 3.168 1.307 7.4 7.4 0 0 1 2.273 2.542 6.8 6.8 0 0 1 .866 3.338 6.75 6.75 0 0 1-1.463 4.219q-1.449 1.861-4.006 2.94-2.542 1.066-5.824 1.066m0-4.517q1.464 0 2.557-.526 1.094-.54 1.705-1.477.625-.952.625-2.188 0-1.264-.639-2.23a4.4 4.4 0 0 0-1.733-1.534q-1.095-.568-2.515-.568-1.406 0-2.514.568a4.4 4.4 0 0 0-1.747 1.534q-.625.967-.625 2.23 0 1.236.611 2.188.61.937 1.719 1.477 1.108.526 2.556.526m0-12.997q1.222 0 2.174-.498a3.74 3.74 0 0 0 1.491-1.377q.54-.882.54-2.032 0-1.136-.54-1.988a3.7 3.7 0 0 0-1.477-1.35q-.937-.497-2.188-.497-1.235 0-2.187.497a3.7 3.7 0 0 0-1.492 1.35q-.525.852-.525 1.988 0 1.15.54 2.032a3.74 3.74 0 0 0 1.491 1.377q.952.498 2.173.498m27 17.755q-3.665-.014-6.307-1.804-2.628-1.79-4.048-5.184-1.407-3.395-1.392-8.168 0-4.758 1.406-8.111 1.42-3.353 4.048-5.099 2.642-1.762 6.293-1.762 3.65 0 6.278 1.762 2.642 1.761 4.063 5.113 1.42 3.339 1.406 8.097 0 4.787-1.421 8.182-1.406 3.395-4.034 5.184t-6.292 1.79m0-5.099q2.5 0 3.991-2.514 1.492-2.515 1.477-7.543 0-3.31-.681-5.511-.668-2.202-1.904-3.31-1.221-1.108-2.883-1.108-2.486 0-3.978 2.486t-1.505 7.443q0 3.352.667 5.597.682 2.23 1.918 3.352a4.2 4.2 0 0 0 2.898 1.108m25.561 4.46v-29.091h6.15v12.827h.384l10.469-12.827h7.372l-10.796 13.026L966.641 192h-7.358l-7.969-11.96-3.026 3.693V192zm27.578 0v-29.091h11.648q3.21 0 5.355.952 2.144.951 3.224 2.642 1.08 1.676 1.08 3.863 0 1.705-.682 2.998a5.9 5.9 0 0 1-1.875 2.102q-1.18.81-2.699 1.15v.285a6.5 6.5 0 0 1 3.111.937q1.463.867 2.372 2.429.909 1.548.909 3.693 0 2.316-1.15 4.134-1.137 1.803-3.367 2.855-2.23 1.051-5.497 1.051zm6.15-5.028h5.015q2.571 0 3.75-.981 1.179-.993 1.179-2.642 0-1.207-.583-2.13-.582-.924-1.662-1.449-1.065-.526-2.542-.526h-5.157zm0-11.89h4.56q1.264 0 2.244-.44.994-.454 1.563-1.278.582-.825.582-1.975 0-1.576-1.122-2.542-1.108-.966-3.153-.966h-4.674zM672.277 363v-29.091h17.556v3.125h-14.034v9.83h13.125v3.125h-13.125v9.886h14.262V363zm25.951-21.818 5.228 8.92 5.227-8.92h3.864l-7.046 10.909L712.547 363h-3.864l-5.227-8.466-5.228 8.466h-3.863l6.932-10.909-6.932-10.909zm28.591 0v2.841h-11.307v-2.841zm-8.012-5.227h3.352v20.795q0 1.42.412 2.131.426.696 1.08.937a4.3 4.3 0 0 0 1.406.227q.554 0 .909-.056l.568-.114.682 3.011a7 7 0 0 1-.951.256q-.612.142-1.549.142a6.75 6.75 0 0 1-2.784-.611 5.5 5.5 0 0 1-2.244-1.861q-.88-1.25-.881-3.153zm21.968 27.5q-3.154 0-5.441-1.393-2.272-1.406-3.508-3.92-1.222-2.529-1.222-5.881 0-3.351 1.222-5.909 1.236-2.571 3.437-4.005 2.216-1.449 5.171-1.449 1.704 0 3.366.568t3.026 1.846q1.363 1.265 2.173 3.353t.81 5.142v1.42H732.99v-2.897h13.41q0-1.848-.739-3.296a5.57 5.57 0 0 0-2.074-2.287q-1.335-.838-3.153-.838-2.004 0-3.466.994a6.54 6.54 0 0 0-2.23 2.557 7.5 7.5 0 0 0-.782 3.381v1.932q0 2.47.853 4.19.866 1.704 2.4 2.599 1.534.881 3.566.881 1.32 0 2.386-.369a5.1 5.1 0 0 0 1.861-1.136q.78-.767 1.207-1.904l3.239.909a7.2 7.2 0 0 1-1.719 2.898q-1.207 1.236-2.983 1.932-1.776.682-3.991.682m14.133-.455v-21.818h3.239v3.295h.227q.597-1.618 2.159-2.628 1.563-1.008 3.523-1.008.37 0 .923.014.554.015.838.043v3.409a10 10 0 0 0-.781-.128 8 8 0 0 0-1.264-.099q-1.592 0-2.841.667a5.03 5.03 0 0 0-1.96 1.818q-.711 1.15-.711 2.628V363zm18.235-13.125V363h-3.352v-21.818h3.238v3.409h.285a6.23 6.23 0 0 1 2.329-2.671q1.563-1.022 4.034-1.022 2.216 0 3.878.909 1.662.894 2.585 2.727.924 1.818.924 4.602V363h-3.353v-13.636q0-2.572-1.335-4.006-1.335-1.449-3.665-1.449-1.605 0-2.869.696-1.25.696-1.974 2.031-.725 1.336-.725 3.239m26.467 13.636q-2.075 0-3.764-.781-1.69-.795-2.685-2.287-.994-1.506-.994-3.636 0-1.875.738-3.04a5.2 5.2 0 0 1 1.975-1.847 10.4 10.4 0 0 1 2.727-.994 34 34 0 0 1 3.025-.54q1.989-.255 3.225-.383 1.25-.142 1.818-.469.582-.327.582-1.136v-.114q0-2.101-1.15-3.267-1.137-1.165-3.452-1.165-2.4 0-3.764 1.051t-1.918 2.245l-3.181-1.137q.852-1.988 2.272-3.096a8.5 8.5 0 0 1 3.125-1.563 13 13 0 0 1 3.353-.454q1.05 0 2.414.255a7.7 7.7 0 0 1 2.657 1.009q1.292.767 2.144 2.315t.853 4.148V363h-3.353v-2.955h-.17q-.34.711-1.136 1.52-.796.81-2.117 1.378t-3.224.568m.511-3.011q1.989 0 3.352-.781 1.378-.781 2.074-2.017.71-1.236.71-2.6v-3.068q-.213.256-.937.469-.71.199-1.648.355-.923.142-1.804.256-.866.1-1.406.17-1.307.17-2.443.554-1.122.369-1.818 1.122-.682.74-.682 2.017 0 1.748 1.292 2.642 1.308.88 3.31.881m18.96-26.591V363h-3.353v-29.091zM836.925 363v-29.091h17.443v3.125h-13.92v9.83h12.613v3.125h-12.613V363zm22.788 0v-21.818h3.238v3.295h.228q.596-1.618 2.159-2.628 1.562-1.008 3.522-1.008.37 0 .924.014.553.015.838.043v3.409a10 10 0 0 0-.781-.128 8 8 0 0 0-1.265-.099q-1.59 0-2.841.667a5.05 5.05 0 0 0-1.96 1.818q-.71 1.15-.71 2.628V363zm21.303.511q-2.074 0-3.764-.781-1.69-.795-2.685-2.287-.994-1.506-.994-3.636 0-1.875.738-3.04a5.2 5.2 0 0 1 1.975-1.847 10.4 10.4 0 0 1 2.727-.994 33 33 0 0 1 3.026-.54q1.988-.255 3.224-.383 1.25-.142 1.818-.469.583-.327.583-1.136v-.114q0-2.101-1.151-3.267-1.136-1.165-3.452-1.165-2.4 0-3.764 1.051t-1.917 2.245l-3.182-1.137q.852-1.988 2.273-3.096a8.5 8.5 0 0 1 3.125-1.563 13 13 0 0 1 3.352-.454q1.05 0 2.415.255a7.7 7.7 0 0 1 2.656 1.009q1.293.767 2.145 2.315t.852 4.148V363h-3.352v-2.955h-.171q-.34.711-1.136 1.52-.795.81-2.117 1.378-1.32.568-3.224.568m.511-3.011q1.99 0 3.353-.781 1.377-.781 2.073-2.017a5.14 5.14 0 0 0 .711-2.6v-3.068q-.213.256-.938.469a16 16 0 0 1-1.648.355q-.923.142-1.803.256-.867.1-1.407.17-1.306.17-2.443.554-1.122.369-1.818 1.122-.682.74-.682 2.017 0 1.748 1.293 2.642 1.307.88 3.309.881m24.414 11.136q-2.428 0-4.176-.625-1.747-.61-2.912-1.619-1.15-.994-1.832-2.131l2.67-1.875q.455.597 1.151 1.364.696.782 1.903 1.349 1.222.583 3.196.583 2.642 0 4.361-1.279t1.719-4.005v-4.432h-.284q-.37.597-1.051 1.477-.668.867-1.932 1.548-1.25.668-3.381.668-2.642 0-4.744-1.25-2.088-1.25-3.31-3.636-1.207-2.387-1.207-5.796 0-3.352 1.179-5.838 1.18-2.5 3.281-3.863 2.103-1.378 4.858-1.378 2.13 0 3.381.71 1.264.696 1.932 1.591.68.88 1.051 1.449h.341v-3.466h3.238v22.443q0 2.813-1.278 4.574-1.264 1.776-3.409 2.599-2.131.838-4.745.838m-.113-11.988q2.016 0 3.409-.924 1.392-.923 2.116-2.656t.725-4.148q0-2.358-.71-4.161-.711-1.804-2.103-2.827t-3.437-1.023q-2.131 0-3.551 1.08-1.407 1.079-2.117 2.897-.696 1.818-.696 4.034 0 2.274.71 4.02.725 1.734 2.131 2.728 1.42.98 3.523.98M921.51 363v-21.818h3.238v3.409h.284q.683-1.747 2.202-2.713 1.52-.98 3.651-.98 2.159 0 3.593.98 1.449.966 2.259 2.713h.227q.839-1.69 2.514-2.685 1.677-1.008 4.02-1.008 2.927 0 4.787 1.832 1.861 1.818 1.861 5.668V363h-3.352v-14.602q0-2.415-1.321-3.452-1.322-1.037-3.111-1.037-2.302 0-3.565 1.392-1.265 1.378-1.265 3.494V363h-3.409v-14.943q0-1.861-1.207-2.997-1.207-1.15-3.111-1.151-1.307 0-2.443.696-1.122.696-1.818 1.932-.682 1.221-.682 2.827V363zm43.913.455q-3.154 0-5.44-1.393-2.273-1.406-3.509-3.92-1.221-2.529-1.222-5.881 0-3.351 1.222-5.909 1.236-2.571 3.438-4.005 2.215-1.449 5.17-1.449 1.705 0 3.367.568t3.025 1.846q1.364 1.265 2.173 3.353.81 2.088.81 5.142v1.42h-16.818v-2.897h13.409q0-1.848-.739-3.296a5.57 5.57 0 0 0-2.074-2.287q-1.335-.838-3.153-.838-2.002 0-3.466.994a6.55 6.55 0 0 0-2.23 2.557 7.5 7.5 0 0 0-.781 3.381v1.932q0 2.47.852 4.19.867 1.704 2.401 2.599 1.534.881 3.565.881 1.321 0 2.386-.369a5.1 5.1 0 0 0 1.861-1.136q.781-.767 1.207-1.904l3.239.909a7.2 7.2 0 0 1-1.719 2.898q-1.207 1.236-2.983 1.932-1.775.682-3.991.682m17.486-13.58V363h-3.353v-21.818h3.239v3.409h.284a6.24 6.24 0 0 1 2.33-2.671q1.562-1.022 4.034-1.022 2.216 0 3.878.909 1.662.894 2.585 2.727.923 1.818.923 4.602V363h-3.352v-13.636q0-2.572-1.335-4.006-1.335-1.449-3.665-1.449-1.606 0-2.869.696-1.25.696-1.975 2.031-.724 1.336-.724 3.239m29.531-8.693v2.841h-11.3v-2.841zm-8.01-5.227h3.35v20.795q0 1.42.42 2.131.42.696 1.08.937c.44.152.91.227 1.4.227.37 0 .67-.018.91-.056l.57-.114.68 3.011c-.23.086-.54.171-.95.256-.41.095-.92.142-1.55.142-.95 0-1.87-.204-2.78-.611a5.56 5.56 0 0 1-2.25-1.861c-.58-.833-.88-1.884-.88-3.153zm19.48 27.556c-1.39 0-2.64-.26-3.77-.781-1.12-.53-2.02-1.292-2.68-2.287-.67-1.004-1-2.216-1-3.636 0-1.25.25-2.263.74-3.04a5.2 5.2 0 0 1 1.98-1.847 10.3 10.3 0 0 1 2.72-.994q1.515-.34 3.03-.54c1.33-.17 2.4-.298 3.22-.383.84-.095 1.44-.251 1.82-.469.39-.218.58-.597.58-1.136v-.114c0-1.401-.38-2.49-1.15-3.267q-1.125-1.165-3.45-1.165c-1.6 0-2.85.351-3.76 1.051q-1.365 1.051-1.92 2.245l-3.18-1.137c.57-1.325 1.32-2.358 2.27-3.096.96-.748 2-1.269 3.13-1.563 1.13-.303 2.25-.454 3.35-.454.7 0 1.5.085 2.41.255.92.161 1.81.498 2.66 1.009.86.511 1.58 1.283 2.14 2.315.57 1.032.86 2.415.86 4.148V363h-3.36v-2.955h-.17c-.22.474-.6.981-1.13 1.52-.53.54-1.24.999-2.12 1.378s-1.95.568-3.22.568m.51-3.011c1.32 0 2.44-.26 3.35-.781q1.38-.781 2.07-2.017c.48-.824.71-1.691.71-2.6v-3.068q-.21.256-.93.469-.72.199-1.65.355-.93.142-1.8.256-.87.1-1.41.17c-.87.114-1.69.298-2.44.554-.75.246-1.36.62-1.82 1.122-.46.493-.68 1.165-.68 2.017q0 1.748 1.29 2.642c.87.587 1.97.881 3.31.881m25.09-19.318v2.841h-11.3v-2.841zm-8.01-5.227h3.35v20.795q0 1.42.42 2.131.42.696 1.08.937c.44.152.91.227 1.4.227.37 0 .67-.018.91-.056l.57-.114.68 3.011c-.23.086-.54.171-.95.256-.41.095-.92.142-1.55.142-.95 0-1.87-.204-2.78-.611a5.56 5.56 0 0 1-2.25-1.861c-.58-.833-.88-1.884-.88-3.153zM1054.56 363v-21.818h3.35V363zm1.7-25.455c-.65 0-1.22-.222-1.69-.667-.46-.445-.7-.98-.7-1.605s.24-1.16.7-1.605a2.38 2.38 0 0 1 1.69-.668q.975 0 1.68.668c.47.445.71.98.71 1.605s-.24 1.16-.71 1.605q-.705.667-1.68.667m16.65 25.91c-1.97 0-3.7-.469-5.18-1.407-1.48-.937-2.63-2.249-3.47-3.934q-1.23-2.53-1.23-5.909 0-3.41 1.23-5.952c.84-1.695 1.99-3.012 3.47-3.949 1.48-.938 3.21-1.406 5.18-1.406s3.7.468 5.17 1.406c1.49.937 2.64 2.254 3.47 3.949s1.25 3.679 1.25 5.952c0 2.253-.42 4.223-1.25 5.909s-1.98 2.997-3.47 3.934c-1.47.938-3.2 1.407-5.17 1.407m0-3.012c1.5 0 2.73-.383 3.7-1.15.96-.767 1.68-1.776 2.14-3.026s.7-2.604.7-4.062-.24-2.818-.7-4.077c-.46-1.26-1.18-2.278-2.14-3.054-.97-.777-2.2-1.165-3.7-1.165q-2.235 0-3.69 1.165c-.97.776-1.68 1.794-2.15 3.054q-.69 1.889-.69 4.077t.69 4.062c.47 1.25 1.18 2.259 2.15 3.026q1.455 1.15 3.69 1.15m18.36-10.568V363h-3.35v-21.818h3.23v3.409h.29a6.24 6.24 0 0 1 2.33-2.671c1.04-.681 2.38-1.022 4.03-1.022 1.48 0 2.77.303 3.88.909 1.11.596 1.97 1.505 2.59 2.727.61 1.212.92 2.746.92 4.602V363h-3.35v-13.636c0-1.714-.45-3.05-1.34-4.006q-1.335-1.449-3.66-1.449c-1.07 0-2.03.232-2.87.696s-1.49 1.141-1.98 2.031q-.72 1.336-.72 3.239M593.366 9.91h4.205l9.886 24.147h.341l9.887-24.148h4.204V39h-3.295V16.898h-.284L609.219 39h-3.182l-9.091-22.102h-.284V39h-3.296zm44.28 29.545q-3.154 0-5.441-1.392-2.272-1.407-3.508-3.921-1.222-2.529-1.222-5.88 0-3.353 1.222-5.91 1.236-2.571 3.437-4.005 2.216-1.45 5.171-1.45 1.704 0 3.366.569 1.662.568 3.026 1.846 1.363 1.264 2.173 3.353.81 2.088.81 5.142v1.42h-16.818V26.33h13.409q0-1.846-.739-3.295a5.56 5.56 0 0 0-2.074-2.287q-1.335-.838-3.153-.838-2.004 0-3.466.994a6.53 6.53 0 0 0-2.23 2.557 7.5 7.5 0 0 0-.782 3.38v1.933q0 2.472.853 4.19.866 1.704 2.4 2.6 1.534.88 3.566.88 1.32 0 2.386-.37a5.1 5.1 0 0 0 1.861-1.136q.781-.766 1.207-1.903l3.239.91a7.2 7.2 0 0 1-1.719 2.897q-1.207 1.236-2.983 1.932-1.776.681-3.991.681M651.779 39V17.182h3.239v3.409h.284q.681-1.748 2.202-2.713 1.52-.98 3.65-.98 2.16 0 3.594.98 1.45.966 2.258 2.713h.228q.837-1.69 2.514-2.685 1.676-1.008 4.02-1.008 2.926 0 4.787 1.832 1.86 1.818 1.86 5.668V39h-3.352V24.398q0-2.414-1.321-3.452t-3.111-1.037q-2.3 0-3.565 1.392-1.264 1.378-1.264 3.495V39h-3.409V24.057q0-1.86-1.208-2.997-1.207-1.15-3.11-1.15-1.308 0-2.444.695-1.122.696-1.818 1.932-.681 1.221-.682 2.827V39zm43.629.455q-2.954 0-5.184-1.407-2.217-1.406-3.466-3.934-1.236-2.529-1.236-5.91 0-3.408 1.236-5.951 1.25-2.543 3.466-3.949 2.23-1.406 5.184-1.406t5.171 1.406q2.23 1.407 3.466 3.949 1.25 2.543 1.25 5.951 0 3.381-1.25 5.91-1.236 2.528-3.466 3.934-2.216 1.407-5.171 1.407m0-3.012q2.245 0 3.694-1.15t2.144-3.026.696-4.063-.696-4.076-2.144-3.054q-1.449-1.165-3.694-1.165t-3.693 1.165-2.145 3.054-.696 4.076.696 4.063 2.145 3.026 3.693 1.15M710.412 39V17.182h3.239v3.295h.227q.596-1.62 2.159-2.628t3.523-1.008q.37 0 .923.014.554.015.838.043v3.409a10 10 0 0 0-.781-.128 7.7 7.7 0 0 0-1.264-.1q-1.592 0-2.841.668a5.04 5.04 0 0 0-1.961 1.818q-.71 1.15-.71 2.628V39zm17.706 8.182a7.4 7.4 0 0 1-1.52-.142q-.668-.127-.923-.256l.852-2.954q1.221.312 2.159.227t1.662-.838q.738-.74 1.349-2.4l.625-1.705-8.068-21.932h3.637l6.022 17.386h.228l6.022-17.386h3.637l-9.262 25q-.624 1.69-1.548 2.798-.923 1.122-2.145 1.662-1.207.54-2.727.54M461.182 171.398q-3.01 0-5.369-1.108-2.344-1.109-3.722-3.054-1.378-1.946-1.434-4.46h5.966q.099 1.69 1.42 2.741t3.139 1.051q1.449 0 2.557-.639a4.6 4.6 0 0 0 1.747-1.804q.639-1.166.639-2.67 0-1.535-.653-2.699a4.6 4.6 0 0 0-1.776-1.818q-1.136-.654-2.599-.668-1.278 0-2.486.525-1.193.526-1.861 1.435l-5.468-.98 1.377-15.341h17.785v5.029H457.73l-.752 7.286h.17q.767-1.079 2.315-1.789 1.55-.711 3.466-.711 2.628 0 4.688 1.236t3.253 3.395q1.192 2.145 1.179 4.943.014 2.941-1.364 5.228-1.364 2.272-3.821 3.579-2.444 1.293-5.682 1.293m26.563.241q-3.666-.014-6.307-1.804-2.628-1.79-4.048-5.184-1.407-3.395-1.392-8.168 0-4.758 1.406-8.111 1.42-3.353 4.048-5.099 2.642-1.762 6.293-1.762 3.65 0 6.278 1.762 2.642 1.761 4.063 5.113 1.42 3.339 1.406 8.097 0 4.787-1.421 8.182-1.406 3.395-4.034 5.184t-6.292 1.79m0-5.099q2.5 0 3.991-2.514 1.492-2.515 1.477-7.543 0-3.31-.681-5.511-.668-2.202-1.904-3.31-1.221-1.108-2.883-1.108-2.486 0-3.978 2.486t-1.505 7.443q0 3.352.667 5.597.682 2.23 1.918 3.352a4.2 4.2 0 0 0 2.898 1.108m25.561 4.46v-29.091h6.15v12.827h.384l10.469-12.827h7.372l-10.796 13.026L537.809 171h-7.358l-7.969-11.96-3.026 3.693V171zm27.578 0v-29.091h11.648q3.21 0 5.355.952 2.144.951 3.224 2.642 1.08 1.676 1.08 3.863 0 1.705-.682 2.998a5.9 5.9 0 0 1-1.875 2.102q-1.18.81-2.699 1.15v.285a6.5 6.5 0 0 1 3.111.937q1.463.867 2.372 2.429.909 1.548.909 3.693 0 2.316-1.151 4.134-1.135 1.803-3.366 2.855-2.23 1.051-5.497 1.051zm6.15-5.028h5.015q2.571 0 3.75-.981 1.179-.993 1.179-2.642 0-1.207-.583-2.13-.582-.924-1.662-1.449-1.065-.526-2.542-.526h-5.157zm0-11.89h4.56q1.264 0 2.244-.44.995-.455 1.563-1.278.582-.825.582-1.975 0-1.576-1.122-2.542-1.108-.966-3.153-.966h-4.674z"/><path stroke="#fff" stroke-width="2" d="M508 257v49M1271 257v49M506.999 306 1270 305"/></svg>