<svg xmlns="http://www.w3.org/2000/svg" width="1893" height="428" fill="none" viewBox="0 0 1893 428"><path fill="#fff" d="M264.498 346.034v-3.125h21.818v3.125h-9.148V372h-3.522v-25.966zm32.5 26.421q-2.955 0-5.185-1.407-2.215-1.406-3.466-3.934-1.236-2.53-1.236-5.909 0-3.41 1.236-5.952 1.25-2.543 3.466-3.949 2.23-1.406 5.185-1.406t5.17 1.406q2.23 1.406 3.466 3.949 1.25 2.543 1.25 5.952 0 3.38-1.25 5.909-1.236 2.528-3.466 3.934-2.215 1.407-5.17 1.407m0-3.012q2.244 0 3.693-1.15t2.145-3.026q.696-1.875.696-4.062t-.696-4.077-2.145-3.054q-1.449-1.165-3.693-1.165t-3.693 1.165q-1.449 1.164-2.145 3.054t-.696 4.077.696 4.062 2.145 3.026q1.449 1.15 3.693 1.15m23.867 3.012q-2.955 0-5.185-1.407-2.215-1.406-3.466-3.934-1.235-2.53-1.235-5.909 0-3.41 1.235-5.952 1.25-2.543 3.466-3.949 2.23-1.406 5.185-1.406t5.171 1.406q2.23 1.406 3.465 3.949 1.25 2.543 1.25 5.952 0 3.38-1.25 5.909-1.235 2.528-3.465 3.934-2.217 1.407-5.171 1.407m0-3.012q2.244 0 3.693-1.15t2.145-3.026q.696-1.875.696-4.062t-.696-4.077-2.145-3.054q-1.449-1.165-3.693-1.165t-3.693 1.165q-1.449 1.164-2.145 3.054t-.696 4.077.696 4.062 2.145 3.026q1.449 1.15 3.693 1.15m41.708-14.375-3.011.852a5.6 5.6 0 0 0-.838-1.463q-.54-.724-1.478-1.193t-2.4-.469q-2.003 0-3.338.924-1.321.91-1.321 2.315 0 1.25.909 1.975.909.724 2.841 1.207l3.238.795q2.927.71 4.361 2.174 1.435 1.449 1.435 3.735 0 1.875-1.08 3.353-1.065 1.477-2.983 2.329-1.917.852-4.46.853-3.338 0-5.525-1.449t-2.77-4.233l3.182-.796q.454 1.762 1.718 2.642 1.279.88 3.338.881 2.344 0 3.722-.994 1.392-1.01 1.392-2.415 0-1.137-.795-1.903-.796-.782-2.444-1.165l-3.636-.853q-2.997-.71-4.403-2.201-1.392-1.506-1.392-3.764 0-1.848 1.036-3.267 1.052-1.42 2.856-2.231 1.818-.809 4.119-.809 3.238 0 5.085 1.42 1.861 1.42 2.642 3.75M368.017 372v-21.818h3.239v3.409h.284q.681-1.747 2.201-2.713 1.521-.98 3.651-.98 2.158 0 3.594.98 1.45.966 2.258 2.713h.228q.837-1.69 2.514-2.685 1.675-1.008 4.02-1.008 2.925 0 4.787 1.832 1.86 1.818 1.86 5.668V372h-3.352v-14.602q0-2.415-1.321-3.452-1.322-1.037-3.111-1.037-2.3 0-3.565 1.392-1.264 1.378-1.264 3.494V372h-3.409v-14.943q0-1.861-1.208-2.997-1.207-1.15-3.111-1.151-1.306 0-2.443.696-1.122.696-1.818 1.932-.681 1.221-.682 2.827V372zm41.186.511q-2.073 0-3.764-.781-1.69-.795-2.685-2.287-.994-1.506-.994-3.636 0-1.875.739-3.04a5.2 5.2 0 0 1 1.974-1.847 10.4 10.4 0 0 1 2.727-.994 34 34 0 0 1 3.026-.54q1.988-.255 3.224-.383 1.251-.142 1.818-.469.583-.327.583-1.136v-.114q0-2.101-1.151-3.267-1.136-1.165-3.451-1.165-2.402 0-3.765 1.051t-1.917 2.245l-3.182-1.137q.852-1.988 2.273-3.096a8.5 8.5 0 0 1 3.125-1.563 13 13 0 0 1 3.352-.454q1.051 0 2.415.255a7.7 7.7 0 0 1 2.656 1.009q1.293.767 2.145 2.315t.852 4.148V372h-3.352v-2.955h-.171q-.34.711-1.136 1.52-.796.81-2.116 1.378-1.322.568-3.225.568m.511-3.011q1.99 0 3.353-.781 1.377-.781 2.074-2.017.71-1.236.71-2.6v-3.068q-.213.256-.938.469-.71.199-1.647.355-.924.142-1.804.256-.867.1-1.407.17-1.306.17-2.443.554-1.122.369-1.818 1.122-.682.74-.682 2.017 0 1.748 1.293 2.642 1.307.88 3.309.881m18.96-26.591V372h-3.352v-29.091zm9.492 0V372h-3.352v-29.091zm27.106 7.273v2.841h-11.761v-2.841zM457.033 372v-24.83q0-1.875.881-3.125a5.46 5.46 0 0 1 2.287-1.875 7.2 7.2 0 0 1 2.969-.625q1.236 0 2.017.199.781.2 1.165.37l-.966 2.897a20 20 0 0 0-.711-.213q-.44-.128-1.164-.128-1.662 0-2.401.839-.724.837-.724 2.457V372zm20.902.455q-2.954 0-5.184-1.407-2.217-1.406-3.466-3.934-1.236-2.53-1.236-5.909 0-3.41 1.236-5.952 1.25-2.543 3.466-3.949 2.23-1.406 5.184-1.406t5.171 1.406q2.23 1.406 3.466 3.949 1.25 2.543 1.25 5.952 0 3.38-1.25 5.909-1.236 2.528-3.466 3.934-2.216 1.407-5.171 1.407m0-3.012q2.245 0 3.694-1.15t2.144-3.026q.696-1.875.696-4.062t-.696-4.077-2.144-3.054q-1.449-1.165-3.694-1.165t-3.693 1.165q-1.449 1.164-2.145 3.054t-.696 4.077.696 4.062 2.145 3.026q1.449 1.15 3.693 1.15M492.939 372v-21.818h3.239v3.295h.227q.597-1.618 2.159-2.628 1.563-1.008 3.523-1.008.37 0 .923.014.554.015.838.043v3.409a10 10 0 0 0-.781-.128 8 8 0 0 0-1.264-.099q-1.591 0-2.841.667a5.04 5.04 0 0 0-1.961 1.818q-.71 1.15-.71 2.628V372zm35.905.398q-2.812 0-5.014-.966-2.187-.966-3.48-2.685-1.278-1.733-1.392-4.02h3.58q.113 1.407.966 2.429.852 1.009 2.23 1.563 1.377.554 3.054.554 1.875 0 3.323-.654 1.45-.652 2.273-1.818.824-1.164.824-2.699 0-1.605-.795-2.826-.796-1.236-2.33-1.932t-3.75-.696h-2.329v-3.125h2.329q1.733 0 3.04-.625 1.321-.625 2.06-1.762.752-1.135.752-2.67 0-1.477-.653-2.571-.654-1.093-1.847-1.705-1.179-.61-2.784-.61a7.3 7.3 0 0 0-2.841.554q-1.32.539-2.159 1.576-.837 1.023-.909 2.472h-3.409q.085-2.287 1.378-4.006 1.293-1.733 3.381-2.699 2.102-.966 4.616-.966 2.699 0 4.631 1.094 1.932 1.08 2.969 2.855a7.5 7.5 0 0 1 1.036 3.835q0 2.458-1.292 4.191-1.278 1.732-3.48 2.4v.228q2.756.454 4.304 2.343 1.548 1.876 1.548 4.645 0 2.372-1.293 4.262-1.278 1.874-3.494 2.954t-5.043 1.08m25.128 0q-3.21 0-5.468-1.747-2.26-1.762-3.452-5.1-1.193-3.353-1.193-8.096 0-4.716 1.193-8.054 1.207-3.353 3.466-5.114 2.273-1.776 5.454-1.776 3.182 0 5.441 1.776 2.272 1.761 3.466 5.114 1.207 3.338 1.207 8.054 0 4.743-1.193 8.096-1.194 3.338-3.452 5.1-2.259 1.746-5.469 1.747m0-3.125q3.182 0 4.943-3.068 1.762-3.07 1.762-8.75 0-3.778-.81-6.435-.795-2.656-2.301-4.048-1.491-1.392-3.594-1.392-3.153 0-4.929 3.11-1.775 3.097-1.775 8.765 0 3.778.795 6.42.796 2.642 2.287 4.02 1.506 1.377 3.622 1.378M569.995 372v-29.091h3.523v14.432h.341l13.068-14.432h4.602l-12.216 13.125L591.529 372h-4.261l-10.114-13.523-3.636 4.091V372zm26.094 0v-29.091h10.17q3.04 0 5.014 1.051 1.975 1.037 2.941 2.799.966 1.747.966 3.877 0 1.876-.668 3.097-.654 1.221-1.733 1.932a7.9 7.9 0 0 1-2.315 1.051V357q1.335.085 2.684.938 1.35.852 2.259 2.443.909 1.59.909 3.892 0 2.188-.994 3.934-.995 1.747-3.139 2.77Q610.038 372 606.6 372zm3.522-3.125h6.989q3.452 0 4.901-1.335 1.463-1.35 1.463-3.267 0-1.477-.753-2.728-.753-1.263-2.145-2.017-1.392-.767-3.295-.767h-7.16zm0-13.182h6.535q1.59 0 2.869-.625a5 5 0 0 0 2.045-1.761q.767-1.137.767-2.671 0-1.917-1.335-3.252-1.335-1.35-4.233-1.35h-6.648zM979.065 352h-3.523q-.312-1.52-1.094-2.67a7.3 7.3 0 0 0-1.875-1.932 8 8 0 0 0-2.429-1.193 9.7 9.7 0 0 0-2.784-.398q-2.642 0-4.787 1.335-2.13 1.335-3.395 3.935-1.25 2.6-1.25 6.378t1.25 6.377q1.265 2.6 3.395 3.935 2.145 1.335 4.787 1.335 1.449 0 2.784-.397 1.335-.399 2.429-1.179a7.5 7.5 0 0 0 1.875-1.946q.782-1.165 1.094-2.671h3.523q-.398 2.23-1.449 3.992a10.9 10.9 0 0 1-2.614 2.997 11.5 11.5 0 0 1-3.508 1.861q-1.932.639-4.134.639-3.721 0-6.619-1.818t-4.56-5.171-1.662-7.954q0-4.603 1.662-7.955t4.56-5.17q2.898-1.82 6.619-1.819 2.202 0 4.134.64a11.3 11.3 0 0 1 3.508 1.875 10.7 10.7 0 0 1 2.614 2.983q1.05 1.747 1.449 3.991m11.658 20.511q-2.074 0-3.764-.781-1.69-.795-2.685-2.287-.994-1.506-.994-3.636 0-1.875.738-3.04a5.2 5.2 0 0 1 1.975-1.847 10.4 10.4 0 0 1 2.727-.994 33 33 0 0 1 3.026-.54q1.988-.255 3.224-.383 1.251-.142 1.818-.469.583-.327.583-1.136v-.114q0-2.101-1.151-3.267-1.136-1.165-3.452-1.165-2.4 0-3.764 1.051t-1.917 2.245l-3.182-1.137q.852-1.988 2.273-3.096a8.5 8.5 0 0 1 3.125-1.563 13 13 0 0 1 3.352-.454q1.052 0 2.415.255a7.7 7.7 0 0 1 2.656 1.009q1.293.767 2.145 2.315c.569 1.032.849 2.415.849 4.148V372h-3.349v-2.955h-.171q-.34.711-1.136 1.52-.795.81-2.117 1.378-1.32.568-3.224.568m.511-3.011q1.99 0 3.353-.781 1.377-.781 2.074-2.017.71-1.236.71-2.6v-3.068q-.213.256-.938.469-.71.199-1.647.355-.924.142-1.804.256-.867.1-1.407.17-1.306.17-2.443.554-1.122.369-1.818 1.122-.682.74-.682 2.017 0 1.748 1.293 2.642 1.307.88 3.309.881m18.956-10.625V372h-3.35v-21.818h3.24v3.409h.28a6.3 6.3 0 0 1 2.33-2.671c1.05-.681 2.39-1.022 4.04-1.022 1.48 0 2.77.303 3.88.909 1.1.596 1.97 1.505 2.58 2.727.62 1.212.92 2.746.92 4.602V372h-3.35v-13.636c0-1.714-.44-3.05-1.33-4.006-.89-.966-2.11-1.449-3.67-1.449-1.07 0-2.02.232-2.87.696-.83.464-1.49 1.141-1.97 2.031s-.73 1.97-.73 3.239m41.02-8.693v2.841h-11.77v-2.841zM1042.97 372v-24.83c0-1.25.29-2.291.88-3.125a5.5 5.5 0 0 1 2.28-1.875 7.3 7.3 0 0 1 2.97-.625c.83 0 1.5.067 2.02.199q.78.2 1.17.37l-.97 2.897c-.17-.056-.41-.127-.71-.213q-.435-.128-1.17-.128-1.65 0-2.4.839-.72.837-.72 2.457V372zm12.93 0v-21.818h3.36V372zm1.71-25.455c-.65 0-1.22-.222-1.69-.667s-.7-.98-.7-1.605.23-1.16.7-1.605a2.38 2.38 0 0 1 1.69-.668c.65 0 1.21.223 1.67.668q.72.667.72 1.605t-.72 1.605c-.46.445-1.02.667-1.67.667m17.27 3.637v2.841h-11.3v-2.841zm-8.01-5.227h3.36v20.795c0 .947.13 1.657.41 2.131q.42.696 1.08.937c.44.152.91.227 1.4.227.37 0 .68-.018.91-.056l.57-.114.68 3.011c-.22.086-.54.171-.95.256-.41.095-.92.142-1.55.142a6.8 6.8 0 0 1-2.78-.611 5.56 5.56 0 0 1-2.25-1.861c-.58-.833-.88-1.884-.88-3.153zm34.08 27.443c-1.87 0-3.55-.322-5.01-.966q-2.19-.966-3.48-2.685c-.86-1.155-1.32-2.495-1.4-4.02h3.58c.08.938.4 1.747.97 2.429.57.673 1.31 1.193 2.23 1.563s1.94.554 3.05.554q1.875 0 3.33-.654c.96-.435 1.72-1.041 2.27-1.818.55-.776.82-1.676.82-2.699 0-1.07-.26-2.012-.79-2.826-.53-.824-1.31-1.468-2.33-1.932q-1.53-.696-3.75-.696h-2.33v-3.125h2.33c1.15 0 2.17-.209 3.04-.625.88-.417 1.57-1.004 2.06-1.762q.75-1.135.75-2.67c0-.985-.22-1.842-.65-2.571a4.5 4.5 0 0 0-1.85-1.705c-.78-.407-1.71-.61-2.78-.61a7.3 7.3 0 0 0-2.84.554q-1.32.539-2.16 1.576c-.56.682-.86 1.506-.91 2.472h-3.41q.09-2.287 1.38-4.006c.86-1.155 1.99-2.055 3.38-2.699 1.4-.644 2.94-.966 4.61-.966 1.8 0 3.35.365 4.63 1.094q1.935 1.08 2.97 2.855a7.5 7.5 0 0 1 1.04 3.835q0 2.458-1.29 4.191-1.275 1.732-3.48 2.4v.228c1.83.303 3.27 1.084 4.3 2.343 1.03 1.25 1.55 2.799 1.55 4.645q0 2.372-1.29 4.262c-.86 1.25-2.02 2.234-3.5 2.954-1.47.72-3.16 1.08-5.04 1.08m25.13 0c-2.14 0-3.96-.583-5.47-1.747q-2.265-1.762-3.45-5.1-1.2-3.353-1.2-8.096 0-4.716 1.2-8.054c.8-2.235 1.96-3.94 3.46-5.114q2.28-1.776 5.46-1.776c2.12 0 3.93.592 5.44 1.776 1.51 1.174 2.67 2.879 3.46 5.114.81 2.225 1.21 4.91 1.21 8.054 0 3.162-.4 5.861-1.19 8.096q-1.2 3.338-3.45 5.1c-1.51 1.164-3.33 1.747-5.47 1.747m0-3.125c2.12 0 3.77-1.023 4.94-3.068 1.18-2.046 1.76-4.963 1.76-8.75q0-3.778-.81-6.435c-.53-1.771-1.29-3.12-2.3-4.048-.99-.928-2.19-1.392-3.59-1.392-2.1 0-3.75 1.036-4.93 3.11-1.18 2.065-1.78 4.986-1.78 8.765 0 2.518.27 4.659.8 6.42s1.29 3.101 2.29 4.02 2.21 1.378 3.62 1.378M1142.1 372v-29.091h3.52v14.432h.34l13.07-14.432h4.6l-12.21 13.125L1163.63 372h-4.26l-10.11-13.523-3.64 4.091V372zm26.09 0v-29.091h10.18q3.03 0 5.01 1.051 1.98 1.037 2.94 2.799c.64 1.164.97 2.457.97 3.877 0 1.25-.23 2.283-.67 3.097q-.66 1.221-1.74 1.932-1.065.71-2.31 1.051V357c.89.057 1.78.369 2.68.938.9.568 1.66 1.382 2.26 2.443.61 1.06.91 2.358.91 3.892q0 2.188-.99 3.934c-.67 1.165-1.71 2.088-3.14 2.77q-2.145 1.023-5.58 1.023zm3.53-3.125h6.99c2.3 0 3.93-.445 4.9-1.335.97-.9 1.46-1.989 1.46-3.267q0-1.477-.75-2.728c-.51-.842-1.22-1.515-2.15-2.017-.93-.511-2.02-.767-3.29-.767h-7.16zm0-13.182h6.53c1.06 0 2.02-.208 2.87-.625a5.1 5.1 0 0 0 2.05-1.761c.51-.758.76-1.648.76-2.671 0-1.278-.44-2.362-1.33-3.252q-1.335-1.35-4.23-1.35h-6.65zm27.04 12.33-.23 1.534a31 31 0 0 1-.74 3.466 64 64 0 0 1-1.01 3.48 90 90 0 0 1-.87 2.599h-2.55q.18-.909.48-2.4.3-1.492.6-3.338.315-1.833.51-3.75l.17-1.591zm26.32 4.432q-3.075 0-5.28-1.449c-1.48-.966-2.62-2.297-3.41-3.992q-1.2-2.542-1.2-5.809 0-3.324 1.23-5.867c.82-1.704 1.97-3.035 3.43-3.991 1.48-.966 3.2-1.449 5.17-1.449 1.54 0 2.92.284 4.15.852q1.845.852 3.03 2.386c.78 1.023 1.27 2.216 1.46 3.58h-3.35q-.39-1.491-1.71-2.642c-.87-.777-2.04-1.165-3.52-1.165-1.31 0-2.45.341-3.44 1.023q-1.455 1.008-2.28 2.855-.81 1.832-.81 4.304c0 1.686.26 3.153.79 4.403.54 1.25 1.3 2.221 2.27 2.912.99.692 2.14 1.037 3.47 1.037q1.305 0 2.37-.454a5 5 0 0 0 1.81-1.307q.735-.852 1.05-2.046h3.35a7.76 7.76 0 0 1-1.41 3.48q-1.11 1.535-2.94 2.444-1.815.895-4.23.895m16.83-13.58V372h-3.35v-29.091h3.35v10.682h.29a6.18 6.18 0 0 1 2.3-2.685c1.03-.672 2.4-1.008 4.12-1.008 1.48 0 2.79.298 3.9.895 1.12.587 1.99 1.491 2.6 2.713.63 1.212.94 2.755.94 4.63V372h-3.35v-13.636q0-2.6-1.35-4.02c-.89-.957-2.13-1.435-3.71-1.435-1.1 0-2.08.232-2.95.696s-1.55 1.141-2.05 2.031c-.49.891-.74 1.97-.74 3.239m29.15 13.58q-2.955 0-5.19-1.407c-1.48-.937-2.63-2.249-3.46-3.934s-1.24-3.656-1.24-5.909c0-2.273.41-4.257 1.24-5.952s1.98-3.012 3.46-3.949q2.235-1.406 5.19-1.406c1.97 0 3.69.468 5.17 1.406s2.64 2.254 3.46 3.949c.84 1.695 1.25 3.679 1.25 5.952 0 2.253-.41 4.223-1.25 5.909-.82 1.685-1.98 2.997-3.46 3.934s-3.2 1.407-5.17 1.407m0-3.012q2.235 0 3.69-1.15c.97-.767 1.68-1.776 2.14-3.026.47-1.25.7-2.604.7-4.062s-.23-2.818-.7-4.077c-.46-1.26-1.17-2.278-2.14-3.054q-1.455-1.165-3.69-1.165c-1.5 0-2.73.388-3.7 1.165-.96.776-1.68 1.794-2.14 3.054-.47 1.259-.7 2.618-.7 4.077 0 1.458.23 2.812.7 4.062.46 1.25 1.18 2.259 2.14 3.026.97.767 2.2 1.15 3.7 1.15m23.86 3.012c-1.97 0-3.69-.469-5.18-1.407-1.48-.937-2.63-2.249-3.47-3.934q-1.23-2.53-1.23-5.909 0-3.41 1.23-5.952c.84-1.695 1.99-3.012 3.47-3.949 1.49-.938 3.21-1.406 5.18-1.406s3.7.468 5.17 1.406c1.49.937 2.65 2.254 3.47 3.949.83 1.695 1.25 3.679 1.25 5.952 0 2.253-.42 4.223-1.25 5.909-.82 1.685-1.98 2.997-3.47 3.934-1.47.938-3.2 1.407-5.17 1.407m0-3.012c1.5 0 2.73-.383 3.7-1.15.96-.767 1.68-1.776 2.14-3.026.47-1.25.7-2.604.7-4.062s-.23-2.818-.7-4.077c-.46-1.26-1.18-2.278-2.14-3.054-.97-.777-2.2-1.165-3.7-1.165q-2.235 0-3.69 1.165c-.97.776-1.68 1.794-2.14 3.054-.47 1.259-.7 2.618-.7 4.077 0 1.458.23 2.812.7 4.062.46 1.25 1.17 2.259 2.14 3.026q1.455 1.15 3.69 1.15m30.46-14.375-3.01.852a5.6 5.6 0 0 0-.84-1.463q-.54-.724-1.47-1.193c-.63-.312-1.43-.469-2.41-.469q-1.995 0-3.33.924-1.32.91-1.32 2.315 0 1.25.9 1.975.915.724 2.85 1.207l3.23.795c1.96.474 3.41 1.198 4.37 2.174.95.966 1.43 2.211 1.43 3.735q0 1.875-1.08 3.353c-.71.985-1.7 1.761-2.98 2.329s-2.77.853-4.46.853c-2.23 0-4.07-.483-5.53-1.449s-2.38-2.377-2.77-4.233l3.18-.796c.31 1.175.88 2.055 1.72 2.642.85.587 1.97.881 3.34.881q2.34 0 3.72-.994c.93-.673 1.39-1.478 1.39-2.415 0-.758-.26-1.392-.79-1.903-.53-.521-1.35-.91-2.44-1.165l-3.64-.853c-2-.473-3.47-1.207-4.4-2.201-.93-1.004-1.4-2.259-1.4-3.764 0-1.232.35-2.321 1.04-3.267.7-.947 1.65-1.691 2.86-2.231q1.815-.809 4.11-.809c2.16 0 3.86.473 5.09 1.42q1.86 1.42 2.64 3.75m14.59 17.387c-2.1 0-3.91-.464-5.44-1.393q-2.265-1.406-3.51-3.92c-.81-1.686-1.22-3.646-1.22-5.881 0-2.234.41-4.204 1.22-5.909.83-1.714 1.97-3.049 3.44-4.005 1.48-.966 3.2-1.449 5.17-1.449 1.14 0 2.26.189 3.37.568s2.12.994 3.02 1.846c.91.843 1.64 1.961 2.18 3.353q.81 2.088.81 5.142v1.42h-16.82v-2.897h13.41c0-1.232-.25-2.33-.74-3.296a5.54 5.54 0 0 0-2.07-2.287c-.89-.559-1.95-.838-3.16-.838-1.33 0-2.49.332-3.46.994a6.5 6.5 0 0 0-2.23 2.557 7.5 7.5 0 0 0-.78 3.381v1.932c0 1.647.28 3.044.85 4.19q.87 1.704 2.4 2.599c1.02.588 2.21.881 3.56.881.88 0 1.68-.123 2.39-.369a5.1 5.1 0 0 0 1.86-1.136c.52-.512.92-1.146 1.21-1.904l3.24.909a7.2 7.2 0 0 1-1.72 2.898c-.81.824-1.8 1.468-2.98 1.932-1.19.454-2.52.682-4 .682m34.88-22.273v2.841h-11.31v-2.841zm-8.02-5.227h3.36v20.795c0 .947.13 1.657.41 2.131q.42.696 1.08.937c.44.152.91.227 1.4.227.37 0 .68-.018.91-.056l.57-.114.68 3.011c-.22.086-.54.171-.95.256-.41.095-.92.142-1.55.142a6.8 6.8 0 0 1-2.78-.611 5.47 5.47 0 0 1-2.24-1.861c-.59-.833-.89-1.884-.89-3.153zm16.88 13.92V372h-3.35v-29.091h3.35v10.682h.28a6.18 6.18 0 0 1 2.3-2.685c1.04-.672 2.41-1.008 4.12-1.008 1.49 0 2.79.298 3.91.895 1.12.587 1.98 1.491 2.6 2.713.62 1.212.94 2.755.94 4.63V372h-3.36v-13.636c0-1.733-.44-3.073-1.34-4.02-.89-.957-2.13-1.435-3.71-1.435-1.1 0-2.09.232-2.96.696q-1.29.696-2.04 2.031c-.49.891-.74 1.97-.74 3.239M1403.99 372v-21.818h3.35V372zm1.7-25.455a2.4 2.4 0 0 1-1.69-.667q-.69-.667-.69-1.605t.69-1.605a2.4 2.4 0 0 1 1.69-.668q.99 0 1.68.668c.47.445.71.98.71 1.605s-.24 1.16-.71 1.605q-.69.667-1.68.667m23.25 8.523-3.01.852a5.6 5.6 0 0 0-.84-1.463c-.36-.483-.85-.88-1.48-1.193-.62-.312-1.43-.469-2.4-.469-1.34 0-2.45.308-3.34.924q-1.32.91-1.32 2.315c0 .833.3 1.492.91 1.975.61.482 1.55.885 2.84 1.207l3.24.795c1.95.474 3.4 1.198 4.36 2.174.96.966 1.43 2.211 1.43 3.735q0 1.875-1.08 3.353c-.71.985-1.7 1.761-2.98 2.329s-2.76.853-4.46.853c-2.22 0-4.07-.483-5.52-1.449-1.46-.966-2.39-2.377-2.77-4.233l3.18-.796c.3 1.175.87 2.055 1.72 2.642q1.275.88 3.33.881c1.57 0 2.81-.331 3.73-.994.92-.673 1.39-1.478 1.39-2.415 0-.758-.27-1.392-.8-1.903-.53-.521-1.34-.91-2.44-1.165l-3.64-.853c-1.99-.473-3.46-1.207-4.4-2.201-.93-1.004-1.39-2.259-1.39-3.764 0-1.232.34-2.321 1.04-3.267q1.05-1.42 2.85-2.231c1.21-.539 2.59-.809 4.12-.809 2.16 0 3.85.473 5.08 1.42 1.25.947 2.13 2.197 2.65 3.75M1446.09 372v-29.091h3.35v10.739h.28q.375-.569 1.02-1.449c.45-.597 1.08-1.127 1.91-1.591.83-.474 1.96-.71 3.38-.71 1.84 0 3.45.459 4.86 1.378 1.4.918 2.49 2.22 3.28 3.906.78 1.685 1.18 3.674 1.18 5.966 0 2.31-.4 4.313-1.18 6.008q-1.185 2.529-3.27 3.921c-1.39.918-3 1.378-4.81 1.378-1.41 0-2.53-.232-3.37-.696q-1.26-.71-1.95-1.606-.675-.91-1.05-1.505h-.4V372zm3.29-10.909c0 1.648.24 3.101.73 4.361.48 1.25 1.18 2.23 2.11 2.94.93.701 2.07 1.051 3.41 1.051q2.1 0 3.51-1.108 1.425-1.122 2.13-3.011.72-1.904.72-4.233c0-1.534-.23-2.917-.71-4.148-.46-1.24-1.17-2.22-2.11-2.94q-1.41-1.094-3.54-1.094c-1.36 0-2.51.346-3.44 1.037-.92.682-1.63 1.638-2.1 2.869-.47 1.222-.71 2.647-.71 4.276m24.45-18.182V372h-3.36v-29.091zm15 29.546c-1.97 0-3.7-.469-5.18-1.407-1.48-.937-2.64-2.249-3.47-3.934-.82-1.686-1.24-3.656-1.24-5.909 0-2.273.42-4.257 1.24-5.952.83-1.695 1.99-3.012 3.47-3.949 1.48-.938 3.21-1.406 5.18-1.406s3.69.468 5.17 1.406c1.49.937 2.64 2.254 3.47 3.949s1.25 3.679 1.25 5.952c0 2.253-.42 4.223-1.25 5.909s-1.98 2.997-3.47 3.934c-1.48.938-3.2 1.407-5.17 1.407m0-3.012q2.25 0 3.69-1.15c.97-.767 1.68-1.776 2.15-3.026q.69-1.875.69-4.062t-.69-4.077c-.47-1.26-1.18-2.278-2.15-3.054q-1.44-1.165-3.69-1.165t-3.69 1.165c-.97.776-1.68 1.794-2.15 3.054q-.69 1.889-.69 4.077t.69 4.062c.47 1.25 1.18 2.259 2.15 3.026q1.44 1.15 3.69 1.15m23.87 3.012c-2.05 0-3.81-.483-5.29-1.449-1.47-.966-2.61-2.297-3.41-3.992-.79-1.695-1.19-3.631-1.19-5.809 0-2.216.41-4.172 1.22-5.867.83-1.704 1.97-3.035 3.44-3.991 1.48-.966 3.2-1.449 5.17-1.449 1.53 0 2.92.284 4.15.852s2.24 1.364 3.02 2.386q1.185 1.534 1.47 3.58h-3.36c-.25-.994-.82-1.875-1.7-2.642-.87-.777-2.05-1.165-3.52-1.165-1.31 0-2.46.341-3.44 1.023-.98.672-1.74 1.624-2.29 2.855q-.81 1.832-.81 4.304c0 1.686.27 3.153.8 4.403.54 1.25 1.3 2.221 2.27 2.912.99.692 2.14 1.037 3.47 1.037q1.305 0 2.37-.454a4.9 4.9 0 0 0 1.8-1.307q.75-.852 1.05-2.046h3.36a7.76 7.76 0 0 1-1.41 3.48q-1.11 1.535-2.94 2.444-1.815.895-4.23.895m16.6-8.41-.05-4.147h.68l9.54-9.716h4.15l-10.17 10.284h-.28zm-3.12 7.955v-29.091h3.35V372zm13.86 0-8.52-10.795 2.38-2.33L1544.3 372z"/><path stroke="#fff" stroke-width="2" d="M442.103 267v49M1254.19 267v49M230 315h1023"/><rect width="1885" height="150" x="7" y="78" stroke="#dbdbdb" stroke-width="2" rx="27"/><rect width="356.812" height="150" x="8.059" y="78" fill="#096" stroke="#dbdbdb" stroke-width="2" rx="27"/><rect width="229" height="150" x="1" y="267" fill="#7f22fe" stroke="#dbdbdb" stroke-width="2" rx="27"/><path fill="#fb701a" stroke="#dbdbdb" stroke-width="2" d="M1434 105c0-14.912 12.09-27 27-27h115c14.91 0 27 12.088 27 27v96c0 14.912-12.09 27-27 27h-115c-14.91 0-27-12.088-27-27z"/><rect width="560.734" height="150" x="537.453" y="78" fill="#ec003f" stroke="#dbdbdb" stroke-width="2" rx="27"/><path fill="#fff" d="M158.184 144v-29.091h11.477q3.31 0 5.64 1.264 2.329 1.251 3.551 3.48 1.236 2.216 1.236 5.114t-1.25 5.114-3.623 3.451q-2.358 1.236-5.71 1.236h-7.315v-4.929h6.321q1.776 0 2.926-.611 1.164-.624 1.733-1.718.582-1.109.582-2.543 0-1.45-.582-2.528-.569-1.095-1.733-1.691-1.165-.61-2.955-.61h-4.147V144zm38.384-29.091V144h-6.15v-23.253h-.171l-6.662 4.176v-5.454l7.202-4.56zm10.508 25.71a3.32 3.32 0 0 1-2.415-.994q-.994-.995-.994-2.415 0-1.392.994-2.386a3.32 3.32 0 0 1 2.415-.994q1.364 0 2.387.994t1.022 2.386q0 .938-.483 1.719a3.7 3.7 0 0 1-1.236 1.236 3.25 3.25 0 0 1-1.69.454m0-14.275q-1.406 0-2.415-.995-.994-.993-.994-2.414 0-1.392.994-2.373 1.01-.993 2.415-.994 1.364 0 2.387.994 1.022.981 1.022 2.373 0 .951-.483 1.733a3.54 3.54 0 0 1-1.236 1.221 3.25 3.25 0 0 1-1.69.455m-68.047 66.054q-3.01 0-5.369-1.108-2.344-1.108-3.722-3.054-1.377-1.946-1.434-4.46h5.966q.099 1.69 1.42 2.741t3.139 1.051q1.449 0 2.557-.639a4.57 4.57 0 0 0 1.747-1.804q.639-1.165.639-2.67 0-1.535-.653-2.699a4.6 4.6 0 0 0-1.776-1.818q-1.136-.654-2.599-.668-1.278 0-2.486.525-1.192.526-1.861 1.435l-5.468-.98 1.378-15.341h17.784v5.029h-12.713l-.753 7.286h.17q.767-1.079 2.316-1.789 1.548-.711 3.465-.711 2.628 0 4.688 1.236t3.253 3.395q1.192 2.145 1.179 4.943.014 2.941-1.364 5.228-1.364 2.272-3.821 3.579-2.443 1.293-5.682 1.293m26.563.241q-3.665-.014-6.307-1.804-2.628-1.79-4.048-5.184-1.407-3.395-1.392-8.168 0-4.758 1.406-8.111 1.42-3.353 4.048-5.099 2.643-1.762 6.293-1.762t6.278 1.762q2.643 1.761 4.063 5.113 1.42 3.339 1.406 8.097 0 4.787-1.421 8.182-1.406 3.395-4.034 5.184t-6.292 1.79m0-5.099q2.5 0 3.991-2.514 1.492-2.515 1.478-7.543 0-3.31-.682-5.511-.668-2.202-1.904-3.31-1.221-1.108-2.883-1.108-2.486 0-3.978 2.486t-1.505 7.443q0 3.352.667 5.597.682 2.23 1.918 3.352a4.2 4.2 0 0 0 2.898 1.108m25.561 4.46v-29.091h6.15v12.827h.384l10.469-12.827h7.372l-10.796 13.026L215.656 192h-7.358l-7.969-11.96-3.026 3.693V192zm27.578 0v-29.091h11.648q3.21 0 5.355.952 2.145.951 3.224 2.642 1.08 1.676 1.08 3.863 0 1.705-.682 2.998a5.9 5.9 0 0 1-1.875 2.102q-1.18.81-2.699 1.15v.285a6.5 6.5 0 0 1 3.111.937q1.463.867 2.372 2.429.909 1.548.909 3.693 0 2.316-1.15 4.134-1.137 1.803-3.367 2.855-2.23 1.051-5.497 1.051zm6.151-5.028h5.014q2.571 0 3.75-.981 1.179-.993 1.179-2.642 0-1.207-.583-2.13-.582-.924-1.662-1.449-1.065-.526-2.542-.526h-5.156zm0-11.89h4.559q1.264 0 2.245-.44.993-.454 1.562-1.278.582-.825.582-1.975 0-1.576-1.122-2.542-1.108-.966-3.153-.966h-4.673zM84.536 333v-29.091h11.477q3.31 0 5.639 1.264 2.33 1.251 3.552 3.48 1.235 2.216 1.235 5.114t-1.25 5.114-3.622 3.451q-2.358 1.236-5.71 1.236h-7.315v-4.929h6.32q1.776 0 2.927-.611 1.164-.624 1.733-1.718.582-1.109.582-2.543 0-1.45-.582-2.528-.569-1.095-1.733-1.691-1.165-.61-2.955-.61h-4.147V333zm25.288-5.114v-4.843l12.145-19.134h4.176v6.705h-2.472l-7.656 12.116v.227h17.258v4.929zM123.787 333v-6.591l.113-2.145v-20.355h5.767V333zm17.18-3.381a3.32 3.32 0 0 1-2.415-.994q-.994-.995-.994-2.415 0-1.392.994-2.386a3.32 3.32 0 0 1 2.415-.994q1.364 0 2.386.994t1.023 2.386q0 .937-.483 1.719a3.7 3.7 0 0 1-1.236 1.236 3.25 3.25 0 0 1-1.69.454m0-14.275q-1.405 0-2.415-.995-.994-.993-.994-2.414 0-1.392.994-2.373 1.01-.994 2.415-.994 1.364 0 2.386.994 1.023.981 1.023 2.373 0 .951-.483 1.733a3.54 3.54 0 0 1-1.236 1.221 3.25 3.25 0 0 1-1.69.455m-71.981 66.054q-3.182 0-5.668-1.094-2.472-1.108-3.906-3.04-1.42-1.946-1.463-4.488h6.193q.057 1.065.696 1.875.654.795 1.733 1.235t2.429.441q1.406 0 2.486-.497 1.08-.498 1.69-1.378.61-.881.61-2.032 0-1.165-.653-2.059-.639-.91-1.846-1.421-1.194-.511-2.841-.511h-2.713v-4.517h2.713q1.392 0 2.457-.483 1.08-.483 1.676-1.335.597-.867.597-2.017 0-1.094-.526-1.918a3.47 3.47 0 0 0-1.449-1.307q-.923-.468-2.159-.468-1.25 0-2.287.454-1.036.44-1.661 1.264-.626.824-.668 1.932H58.53q.042-2.514 1.435-4.432 1.392-1.917 3.75-2.997 2.371-1.094 5.355-1.094 3.01 0 5.27 1.094 2.258 1.094 3.508 2.955 1.265 1.846 1.25 4.147.015 2.444-1.52 4.077-1.52 1.633-3.963 2.074v.227q3.21.412 4.887 2.23 1.69 1.805 1.676 4.517.014 2.486-1.435 4.418-1.434 1.932-3.963 3.04t-5.795 1.108m27.02.241q-3.664-.014-6.307-1.804-2.627-1.79-4.048-5.184-1.406-3.395-1.392-8.168 0-4.758 1.406-8.111 1.42-3.353 4.049-5.099 2.641-1.762 6.292-1.762t6.279 1.762q2.642 1.761 4.062 5.113 1.42 3.339 1.406 8.097 0 4.787-1.42 8.182-1.406 3.395-4.034 5.184t-6.293 1.79m0-5.099q2.5 0 3.992-2.514 1.49-2.515 1.477-7.543 0-3.31-.682-5.511-.668-2.202-1.903-3.31-1.222-1.108-2.884-1.108-2.486 0-3.977 2.486t-1.506 7.443q0 3.352.668 5.597.682 2.23 1.917 3.352a4.2 4.2 0 0 0 2.898 1.108m25.561 4.46v-29.091h6.151v12.827h.383l10.469-12.827h7.372l-10.795 13.026L146.07 381h-7.358l-7.969-11.96-3.025 3.693V381zm27.578 0v-29.091h11.648q3.21 0 5.355.952 2.145.951 3.225 2.642 1.079 1.676 1.079 3.863 0 1.705-.682 2.998a5.9 5.9 0 0 1-1.875 2.102q-1.179.81-2.698 1.15v.285a6.5 6.5 0 0 1 3.11.937q1.463.867 2.372 2.429.91 1.548.91 3.693 0 2.316-1.151 4.134-1.137 1.803-3.366 2.855-2.23 1.051-5.498 1.051zm6.151-5.028h5.014q2.571 0 3.75-.981 1.179-.993 1.179-2.642 0-1.207-.582-2.13-.583-.924-1.662-1.449-1.065-.526-2.543-.526h-5.156zm0-11.89h4.56q1.264 0 2.244-.44.995-.454 1.562-1.278.583-.825.583-1.975 0-1.576-1.122-2.542-1.108-.966-3.154-.966h-4.673zM1231.15 171.398q-3.015 0-5.37-1.108-2.34-1.109-3.72-3.054c-.92-1.298-1.4-2.784-1.43-4.46h5.96c.07 1.126.54 2.04 1.42 2.741s1.93 1.051 3.14 1.051c.97 0 1.82-.213 2.56-.639a4.5 4.5 0 0 0 1.74-1.804c.43-.777.64-1.667.64-2.67 0-1.023-.21-1.923-.65-2.699a4.63 4.63 0 0 0-1.78-1.818c-.75-.436-1.62-.659-2.59-.668q-1.29 0-2.49.525-1.2.526-1.86 1.435l-5.47-.98 1.38-15.341h17.78v5.029h-12.71l-.75 7.286h.17q.765-1.079 2.31-1.789c1.03-.474 2.19-.711 3.47-.711 1.75 0 3.31.412 4.69 1.236 1.37.824 2.45 1.956 3.25 3.395.79 1.43 1.19 3.078 1.18 4.943.01 1.961-.45 3.703-1.37 5.228-.91 1.515-2.18 2.708-3.82 3.579-1.63.862-3.52 1.293-5.68 1.293m26.56.241q-3.66-.014-6.3-1.804c-1.76-1.193-3.1-2.921-4.05-5.184-.94-2.264-1.4-4.986-1.39-8.168 0-3.172.46-5.876 1.4-8.111q1.425-3.353 4.05-5.099c1.76-1.175 3.86-1.762 6.29-1.762 2.44 0 4.53.587 6.28 1.762 1.76 1.174 3.12 2.879 4.06 5.113q1.425 3.339 1.41 8.097c0 3.191-.47 5.919-1.42 8.182-.94 2.263-2.28 3.991-4.03 5.184-1.76 1.194-3.85 1.79-6.3 1.79m0-5.099q2.505 0 3.99-2.514c1-1.677 1.49-4.191 1.48-7.543 0-2.206-.23-4.044-.68-5.511-.44-1.468-1.08-2.571-1.9-3.31a4.17 4.17 0 0 0-2.89-1.108c-1.65 0-2.98.829-3.97 2.486-1 1.657-1.5 4.138-1.51 7.443 0 2.235.22 4.1.67 5.597q.675 2.23 1.92 3.352a4.2 4.2 0 0 0 2.89 1.108m25.56 4.46v-29.091h6.15v12.827h.39l10.47-12.827h7.37l-10.8 13.026L1307.78 171h-7.36l-7.97-11.96-3.03 3.693V171zm27.58 0v-29.091h11.65c2.14 0 3.93.317 5.36.952 1.43.634 2.5 1.515 3.22 2.642q1.08 1.676 1.08 3.863c0 1.137-.23 2.136-.68 2.998a5.9 5.9 0 0 1-1.88 2.102q-1.17.81-2.7 1.15v.285c1.11.047 2.15.359 3.11.937.98.578 1.77 1.387 2.38 2.429.6 1.032.91 2.263.91 3.693 0 1.544-.39 2.922-1.15 4.134-.76 1.202-1.88 2.154-3.37 2.855s-3.32 1.051-5.5 1.051zm6.15-5.028h5.02q2.565 0 3.75-.981c.78-.662 1.18-1.543 1.18-2.642 0-.804-.2-1.515-.59-2.13-.38-.616-.94-1.099-1.66-1.449-.71-.35-1.56-.526-2.54-.526H1317zm0-11.89h4.56c.85 0 1.59-.146 2.25-.44q.99-.455 1.56-1.278c.39-.55.58-1.208.58-1.975 0-1.051-.37-1.898-1.12-2.542q-1.11-.966-3.15-.966H1317zM1689.42 165.886v-4.843l12.15-19.134h4.17v6.705h-2.47l-7.66 12.116v.227h17.26v4.929zm13.96 5.114v-6.591l.12-2.145v-20.355h5.77V171zm25 .639c-2.45-.009-4.55-.611-6.31-1.804q-2.625-1.79-4.05-5.184c-.94-2.264-1.4-4.986-1.39-8.168q0-4.758 1.41-8.111c.94-2.235 2.29-3.935 4.04-5.099 1.77-1.175 3.86-1.762 6.3-1.762 2.43 0 4.52.587 6.28 1.762 1.76 1.174 3.11 2.879 4.06 5.113.95 2.226 1.41 4.925 1.4 8.097 0 3.191-.47 5.919-1.42 8.182-.93 2.263-2.28 3.991-4.03 5.184s-3.85 1.79-6.29 1.79m0-5.099q2.49 0 3.99-2.514c.99-1.677 1.49-4.191 1.48-7.543q0-3.31-.69-5.511c-.44-1.468-1.08-2.571-1.9-3.31q-1.215-1.108-2.88-1.108c-1.66 0-2.99.829-3.98 2.486s-1.5 4.138-1.51 7.443c0 2.235.23 4.1.67 5.597q.69 2.23 1.92 3.352a4.2 4.2 0 0 0 2.9 1.108m25.56 4.46v-29.091h6.15v12.827h.38l10.47-12.827h7.37l-10.79 13.026L1778.44 171h-7.36l-7.97-11.96-3.02 3.693V171zm27.58 0v-29.091h11.64c2.14 0 3.93.317 5.36.952 1.43.634 2.5 1.515 3.22 2.642q1.08 1.676 1.08 3.863c0 1.137-.22 2.136-.68 2.998a5.9 5.9 0 0 1-1.87 2.102 7.7 7.7 0 0 1-2.7 1.15v.285a6.5 6.5 0 0 1 3.11.937q1.455.867 2.37 2.429c.61 1.032.91 2.263.91 3.693 0 1.544-.38 2.922-1.15 4.134-.76 1.202-1.88 2.154-3.37 2.855-1.48.701-3.32 1.051-5.49 1.051zm6.15-5.028h5.01q2.58 0 3.75-.981c.79-.662 1.18-1.543 1.18-2.642 0-.804-.19-1.515-.58-2.13-.39-.616-.94-1.099-1.66-1.449q-1.065-.526-2.55-.526h-5.15zm0-11.89h4.56c.84 0 1.59-.146 2.24-.44q.99-.455 1.56-1.278c.39-.55.59-1.208.59-1.975 0-1.051-.38-1.898-1.13-2.542-.73-.644-1.79-.966-3.15-.966h-4.67zM786.939 144v-29.091h11.477q3.31 0 5.64 1.264 2.329 1.251 3.551 3.48 1.235 2.216 1.235 5.114t-1.25 5.114-3.622 3.451q-2.358 1.236-5.71 1.236h-7.315v-4.929h6.321q1.775 0 2.926-.611 1.164-.624 1.733-1.718.582-1.109.582-2.543 0-1.45-.582-2.528-.569-1.095-1.733-1.691-1.165-.61-2.955-.61h-4.147V144zm25.728 0v-4.432l10.355-9.588a39 39 0 0 0 2.216-2.301q.909-1.023 1.378-2.003a5 5 0 0 0 .469-2.145q0-1.278-.583-2.201a3.8 3.8 0 0 0-1.591-1.435q-1.008-.511-2.287-.511-1.335 0-2.329.539a3.7 3.7 0 0 0-1.534 1.549q-.54 1.008-.54 2.4h-5.838q0-2.855 1.293-4.957 1.292-2.103 3.622-3.253t5.369-1.151q3.125 0 5.44 1.108 2.33 1.094 3.623 3.04 1.292 1.946 1.292 4.46a8.6 8.6 0 0 1-.653 3.253q-.64 1.605-2.287 3.566-1.648 1.946-4.645 4.673l-4.247 4.162v.199h12.216V144zm28.789-3.381a3.32 3.32 0 0 1-2.415-.994q-.994-.995-.994-2.415 0-1.392.994-2.386a3.32 3.32 0 0 1 2.415-.994q1.364 0 2.386.994t1.023 2.386q0 .938-.483 1.719a3.7 3.7 0 0 1-1.236 1.236 3.25 3.25 0 0 1-1.69.454m0-14.275q-1.406 0-2.415-.995-.994-.993-.994-2.414 0-1.392.994-2.373 1.01-.993 2.415-.994 1.364 0 2.386.994 1.023.981 1.023 2.373 0 .951-.483 1.733a3.54 3.54 0 0 1-1.236 1.221 3.25 3.25 0 0 1-1.69.455m-70.964 66.054q-3.282 0-5.838-1.066-2.543-1.079-3.992-2.94a6.7 6.7 0 0 1-1.448-4.219q0-1.818.823-3.338a7.4 7.4 0 0 1 2.273-2.542 7.5 7.5 0 0 1 3.21-1.307v-.199q-2.33-.469-3.778-2.259-1.449-1.803-1.449-4.19 0-2.259 1.321-4.02 1.321-1.776 3.622-2.784 2.316-1.023 5.256-1.023t5.241 1.023q2.316 1.023 3.637 2.798 1.322 1.762 1.335 4.006-.014 2.4-1.477 4.19t-3.75 2.259v.199a7.36 7.36 0 0 1 3.167 1.307 7.4 7.4 0 0 1 2.273 2.542q.852 1.52.867 3.338a6.76 6.76 0 0 1-1.463 4.219q-1.45 1.861-4.006 2.94-2.543 1.066-5.824 1.066m0-4.517q1.463 0 2.557-.526 1.093-.54 1.704-1.477.625-.952.625-2.188 0-1.264-.639-2.23a4.4 4.4 0 0 0-1.733-1.534q-1.094-.568-2.514-.568-1.407 0-2.514.568a4.37 4.37 0 0 0-1.747 1.534q-.625.967-.625 2.23 0 1.236.61 2.188.612.937 1.719 1.477 1.108.526 2.557.526m0-12.997q1.221 0 2.173-.498a3.74 3.74 0 0 0 1.492-1.377q.54-.882.54-2.032 0-1.136-.54-1.988a3.7 3.7 0 0 0-1.478-1.35q-.938-.497-2.187-.497-1.236 0-2.188.497a3.7 3.7 0 0 0-1.491 1.35q-.526.852-.526 1.988 0 1.15.54 2.032.54.88 1.492 1.377.952.498 2.173.498m26.999 17.755q-3.664-.014-6.307-1.804-2.627-1.79-4.048-5.184-1.406-3.395-1.392-8.168 0-4.758 1.406-8.111 1.42-3.353 4.049-5.099 2.642-1.762 6.292-1.762t6.279 1.762q2.641 1.761 4.062 5.113 1.42 3.339 1.406 8.097 0 4.787-1.42 8.182-1.407 3.395-4.034 5.184-2.628 1.79-6.293 1.79m0-5.099q2.5 0 3.992-2.514 1.49-2.515 1.477-7.543 0-3.31-.682-5.511-.667-2.202-1.903-3.31a4.15 4.15 0 0 0-2.884-1.108q-2.486 0-3.977 2.486t-1.506 7.443q0 3.352.668 5.597.682 2.23 1.918 3.352a4.2 4.2 0 0 0 2.897 1.108m25.561 4.46v-29.091h6.151v12.827h.383l10.469-12.827h7.372l-10.795 13.026L847.555 192h-7.358l-7.969-11.96-3.025 3.693V192zm27.578 0v-29.091h11.648q3.21 0 5.355.952 2.145.951 3.225 2.642 1.079 1.676 1.079 3.863 0 1.705-.682 2.998a5.9 5.9 0 0 1-1.875 2.102q-1.179.81-2.698 1.15v.285a6.5 6.5 0 0 1 3.11.937q1.464.867 2.373 2.429.909 1.548.909 3.693 0 2.316-1.151 4.134-1.136 1.803-3.366 2.855-2.23 1.051-5.498 1.051zm6.151-5.028h5.014q2.571 0 3.75-.981 1.179-.993 1.179-2.642 0-1.207-.582-2.13-.582-.924-1.662-1.449-1.065-.526-2.543-.526h-5.156zm0-11.89h4.56q1.264 0 2.244-.44.994-.454 1.563-1.278.582-.825.582-1.975 0-1.576-1.122-2.542-1.108-.966-3.154-.966h-4.673zM395.512 171v-4.432l10.355-9.588a39 39 0 0 0 2.216-2.301q.909-1.023 1.378-2.003a5 5 0 0 0 .469-2.145q0-1.278-.583-2.201a3.8 3.8 0 0 0-1.591-1.435q-1.008-.511-2.287-.511-1.335 0-2.329.539a3.7 3.7 0 0 0-1.534 1.549q-.54 1.008-.54 2.4h-5.838q0-2.855 1.292-4.957 1.293-2.103 3.623-3.253t5.369-1.151q3.125 0 5.44 1.108 2.33 1.094 3.622 3.04 1.293 1.946 1.293 4.46a8.6 8.6 0 0 1-.653 3.253q-.64 1.605-2.287 3.566-1.648 1.946-4.645 4.673l-4.247 4.162v.199h12.216V171zm36.601.639q-3.665-.014-6.306-1.804-2.628-1.79-4.049-5.184-1.406-3.395-1.392-8.168 0-4.758 1.407-8.111 1.42-3.353 4.048-5.099 2.642-1.762 6.292-1.762t6.279 1.762q2.642 1.761 4.062 5.113 1.42 3.339 1.407 8.097 0 4.787-1.421 8.182-1.406 3.395-4.034 5.184-2.627 1.79-6.293 1.79m0-5.099q2.5 0 3.992-2.514 1.491-2.515 1.477-7.543 0-3.31-.682-5.511-.667-2.202-1.903-3.31-1.222-1.108-2.884-1.108-2.485 0-3.977 2.486t-1.505 7.443q0 3.352.667 5.597.682 2.23 1.918 3.352a4.2 4.2 0 0 0 2.897 1.108m25.562 4.46v-29.091h6.15v12.827h.384l10.468-12.827h7.373l-10.796 13.026L482.177 171h-7.358l-7.968-11.96-3.026 3.693V171zm27.578 0v-29.091H496.9q3.211 0 5.356.952 2.144.951 3.224 2.642 1.08 1.676 1.08 3.863 0 1.705-.682 2.998a5.9 5.9 0 0 1-1.875 2.102q-1.18.81-2.699 1.15v.285a6.5 6.5 0 0 1 3.111.937q1.463.867 2.372 2.429.909 1.548.909 3.693 0 2.316-1.151 4.134-1.136 1.803-3.366 2.855-2.23 1.051-5.497 1.051zm6.15-5.028h5.014q2.571 0 3.75-.981 1.179-.993 1.179-2.642 0-1.207-.582-2.13-.582-.924-1.662-1.449-1.065-.526-2.542-.526h-5.157zm0-11.89h4.56q1.264 0 2.244-.44.995-.455 1.563-1.278.582-.825.582-1.975 0-1.576-1.122-2.542-1.108-.966-3.153-.966h-4.674zM874.921 9.91h4.205l9.886 24.147h.341l9.887-24.148h4.204V39h-3.295V16.898h-.284L890.774 39h-3.182l-9.091-22.102h-.284V39h-3.296zm44.28 29.545q-3.154 0-5.441-1.392-2.272-1.407-3.508-3.921-1.222-2.529-1.222-5.88 0-3.353 1.222-5.91 1.236-2.571 3.437-4.005 2.216-1.45 5.171-1.45 1.704 0 3.366.569 1.662.568 3.026 1.846 1.363 1.264 2.173 3.353.81 2.088.81 5.142v1.42h-16.819V26.33h13.41q0-1.846-.739-3.295a5.56 5.56 0 0 0-2.074-2.287q-1.335-.838-3.153-.838-2.004 0-3.466.994a6.53 6.53 0 0 0-2.23 2.557 7.5 7.5 0 0 0-.782 3.38v1.933q0 2.472.853 4.19.865 1.704 2.4 2.6 1.534.88 3.566.88 1.32 0 2.386-.37a5.1 5.1 0 0 0 1.861-1.136q.781-.766 1.207-1.903l3.239.91a7.2 7.2 0 0 1-1.719 2.897q-1.207 1.236-2.983 1.932-1.776.681-3.991.681M933.334 39V17.182h3.239v3.409h.284q.681-1.748 2.201-2.713 1.521-.98 3.651-.98 2.158 0 3.594.98 1.45.966 2.258 2.713h.228q.837-1.69 2.514-2.685 1.675-1.008 4.02-1.008 2.925 0 4.787 1.832 1.86 1.818 1.86 5.668V39h-3.352V24.398q0-2.414-1.321-3.452t-3.111-1.037q-2.3 0-3.565 1.392-1.264 1.378-1.264 3.495V39h-3.409V24.057q0-1.86-1.208-2.997-1.208-1.15-3.11-1.15-1.308 0-2.444.695-1.122.696-1.818 1.932-.682 1.221-.682 2.827V39zm43.629.455q-2.954 0-5.184-1.407-2.217-1.406-3.466-3.934-1.236-2.529-1.236-5.91 0-3.408 1.236-5.951 1.25-2.543 3.466-3.949 2.23-1.406 5.184-1.406t5.171 1.406q2.23 1.407 3.466 3.949 1.25 2.543 1.25 5.951 0 3.381-1.25 5.91-1.236 2.528-3.466 3.934-2.216 1.407-5.171 1.407m0-3.012q2.245 0 3.693-1.15 1.449-1.15 2.145-3.026t.696-4.063-.696-4.076-2.145-3.054q-1.447-1.165-3.693-1.165-2.244 0-3.693 1.165-1.449 1.164-2.145 3.054t-.696 4.076q0 2.188.696 4.063t2.145 3.026q1.449 1.15 3.693 1.15M991.967 39V17.182h3.238v3.295h.228q.596-1.62 2.159-2.628 1.564-1.008 3.518-1.008.375 0 .93.014t.84.043v3.409c-.12-.029-.38-.071-.79-.128q-.585-.1-1.26-.1-1.59 0-2.84.668a5.04 5.04 0 0 0-1.961 1.818q-.71 1.15-.71 2.628V39zm17.703 8.182c-.57 0-1.07-.047-1.52-.142-.44-.085-.75-.17-.92-.256l.85-2.954q1.23.312 2.16.227c.63-.057 1.18-.336 1.66-.838q.75-.74 1.35-2.4l.63-1.705-8.07-21.932h3.64l6.02 17.386h.23l6.02-17.386h3.63l-9.26 25c-.41 1.127-.93 2.06-1.55 2.798a5.8 5.8 0 0 1-2.14 1.662q-1.2.54-2.73.54M1489.44 144v-29.091h11.48q3.3 0 5.64 1.264c1.55.834 2.73 1.994 3.55 3.48q1.23 2.216 1.23 5.114c0 1.932-.41 3.636-1.25 5.114-.83 1.477-2.04 2.628-3.62 3.451-1.57.824-3.48 1.236-5.71 1.236h-7.32v-4.929h6.33c1.18 0 2.15-.203 2.92-.611.78-.416 1.36-.989 1.73-1.718.39-.739.59-1.587.59-2.543 0-.966-.2-1.809-.59-2.528-.37-.73-.95-1.293-1.73-1.691-.78-.407-1.76-.61-2.95-.61h-4.15V144zm36.48.398q-3.18 0-5.67-1.094-2.475-1.108-3.9-3.04-1.425-1.945-1.47-4.488h6.2c.03.71.27 1.335.69 1.875.44.53 1.01.942 1.73 1.235q1.08.441 2.43.441 1.41 0 2.49-.497c.72-.332 1.28-.791 1.69-1.378s.61-1.265.61-2.032c0-.776-.22-1.463-.65-2.059-.43-.606-1.04-1.08-1.85-1.421-.79-.341-1.74-.511-2.84-.511h-2.71v-4.517h2.71q1.395 0 2.46-.483c.72-.322 1.28-.767 1.67-1.335q.6-.867.6-2.017c0-.729-.18-1.369-.53-1.918a3.47 3.47 0 0 0-1.44-1.307q-.93-.468-2.16-.468c-.84 0-1.6.151-2.29.454-.69.294-1.25.715-1.66 1.264-.42.55-.64 1.193-.67 1.932h-5.9q.045-2.514 1.44-4.432 1.395-1.917 3.75-2.997c1.58-.729 3.37-1.094 5.35-1.094 2.01 0 3.77.365 5.27 1.094q2.265 1.093 3.51 2.955c.85 1.231 1.26 2.613 1.25 4.147.01 1.629-.49 2.988-1.52 4.077q-1.515 1.633-3.96 2.074v.227q3.21.412 4.89 2.23c1.12 1.203 1.68 2.709 1.67 4.517.01 1.658-.47 3.13-1.43 4.418s-2.28 2.301-3.97 3.04q-2.52 1.107-5.79 1.108m19.21-3.779c-.94 0-1.74-.331-2.42-.994q-.99-.995-.99-2.415 0-1.392.99-2.386c.68-.663 1.48-.994 2.42-.994.91 0 1.7.331 2.38.994.69.663 1.03 1.458 1.03 2.386 0 .625-.16 1.198-.49 1.719q-.465.767-1.23 1.236c-.51.303-1.08.454-1.69.454m0-14.275c-.94 0-1.74-.332-2.42-.995q-.99-.993-.99-2.414 0-1.392.99-2.373c.68-.662 1.48-.994 2.42-.994.91 0 1.7.332 2.38.994.69.654 1.03 1.445 1.03 2.373a3.17 3.17 0 0 1-.49 1.733q-.465.767-1.23 1.221c-.51.303-1.08.455-1.69.455m-66.31 36.565V192h-6.15v-23.253h-.17l-6.66 4.176v-5.454l7.2-4.56zm18.32 29.73c-2.44-.009-4.55-.611-6.31-1.804q-2.625-1.79-4.05-5.184c-.93-2.264-1.4-4.986-1.39-8.168q0-4.758 1.41-8.111c.95-2.235 2.29-3.935 4.05-5.099 1.76-1.175 3.86-1.762 6.29-1.762s4.53.587 6.28 1.762c1.76 1.174 3.11 2.879 4.06 5.113q1.425 3.339 1.41 8.097c0 3.191-.48 5.919-1.42 8.182s-2.29 3.991-4.04 5.184-3.85 1.79-6.29 1.79m0-5.099q2.505 0 3.99-2.514c1-1.677 1.49-4.191 1.48-7.543 0-2.206-.23-4.044-.68-5.511s-1.08-2.571-1.91-3.31q-1.215-1.108-2.88-1.108c-1.66 0-2.98.829-3.98 2.486q-1.485 2.486-1.5 7.443 0 3.352.66 5.597.69 2.23 1.92 3.352c.83.738 1.79 1.108 2.9 1.108m25.56 4.46v-29.091h6.15v12.827h.38l10.47-12.827h7.38l-10.8 13.026L1547.2 192h-7.35l-7.97-11.96-3.03 3.693V192zm27.58 0v-29.091h11.65c2.14 0 3.92.317 5.35.952 1.43.634 2.51 1.515 3.23 2.642q1.08 1.676 1.08 3.863 0 1.705-.69 2.998a5.9 5.9 0 0 1-1.87 2.102 7.7 7.7 0 0 1-2.7 1.15v.285a6.5 6.5 0 0 1 3.11.937q1.47.867 2.37 2.429c.61 1.032.91 2.263.91 3.693 0 1.544-.38 2.922-1.15 4.134-.76 1.202-1.88 2.154-3.37 2.855q-2.22 1.051-5.49 1.051zm6.15-5.028h5.01q2.58 0 3.75-.981c.79-.662 1.18-1.543 1.18-2.642 0-.804-.19-1.515-.58-2.13-.39-.616-.94-1.099-1.66-1.449-.71-.35-1.56-.526-2.54-.526h-5.16zm0-11.89h4.56c.84 0 1.59-.146 2.24-.44.67-.303 1.19-.729 1.57-1.278.38-.55.58-1.208.58-1.975 0-1.051-.38-1.898-1.12-2.542s-1.79-.966-3.16-.966h-4.67z"/></svg>