<svg width="1367" height="867" viewBox="0 0 1367 867" fill="none" xmlns="http://www.w3.org/2000/svg">
<rect x="1" y="78" width="1365" height="150" rx="27" stroke="#DBDBDB" stroke-width="2"/>
<rect x="2" y="397" width="1364" height="150" rx="27" stroke="#DBDBDB" stroke-width="2"/>
<rect x="2" y="716" width="1364" height="150" rx="27" stroke="#DBDBDB" stroke-width="2"/>
<rect x="2" y="78" width="333" height="150" rx="27" fill="#009966" stroke="#DBDBDB" stroke-width="2"/>
<path d="M3 424C3 409.088 15.0883 397 30 397H340V547H30C15.0883 547 3 534.912 3 520V424Z" fill="#009966" stroke="#DBDBDB" stroke-width="2"/>
<path d="M3 743C3 728.088 15.0883 716 30 716H340V866H30C15.0883 866 3 853.912 3 839V743Z" fill="#009966" stroke="#DBDBDB" stroke-width="2"/>
<path d="M340 397H646C660.912 397 673 409.088 673 424V520C673 534.912 660.912 547 646 547H340V397Z" fill="#F0B100" stroke="#DBDBDB" stroke-width="2"/>
<rect x="340" y="716" width="333" height="150" fill="#F0B100" stroke="#DBDBDB" stroke-width="2"/>
<path d="M673 716H1175.6C1190.51 716 1202.6 728.088 1202.6 743V839C1202.6 853.912 1190.51 866 1175.6 866H673V716Z" fill="#EC003F" stroke="#DBDBDB" stroke-width="2"/>
<path d="M785.428 138.909V168H779.278V144.747H779.107L772.445 148.923V143.469L779.647 138.909H785.428ZM802.967 168.398C800.96 168.398 799.17 168.028 797.598 167.29C796.036 166.551 794.795 165.533 793.876 164.236C792.958 162.938 792.48 161.452 792.442 159.776H798.408C798.474 160.902 798.947 161.816 799.828 162.517C800.709 163.218 801.755 163.568 802.967 163.568C803.933 163.568 804.786 163.355 805.524 162.929C806.272 162.493 806.855 161.892 807.271 161.125C807.697 160.348 807.911 159.458 807.911 158.455C807.911 157.432 807.693 156.532 807.257 155.756C806.831 154.979 806.239 154.373 805.482 153.938C804.724 153.502 803.857 153.279 802.882 153.27C802.03 153.27 801.201 153.445 800.396 153.795C799.601 154.146 798.981 154.624 798.536 155.23L793.067 154.25L794.445 138.909H812.229V143.938H799.516L798.763 151.224H798.933C799.445 150.505 800.216 149.908 801.249 149.435C802.281 148.961 803.436 148.724 804.714 148.724C806.466 148.724 808.029 149.136 809.402 149.96C810.775 150.784 811.859 151.916 812.655 153.355C813.45 154.785 813.843 156.433 813.834 158.298C813.843 160.259 813.389 162.001 812.47 163.526C811.561 165.041 810.287 166.234 808.649 167.105C807.02 167.967 805.126 168.398 802.967 168.398ZM829.53 168.639C827.087 168.63 824.984 168.028 823.223 166.835C821.471 165.642 820.122 163.914 819.175 161.651C818.237 159.387 817.773 156.665 817.783 153.483C817.783 150.311 818.251 147.607 819.189 145.372C820.136 143.137 821.485 141.437 823.237 140.273C824.999 139.098 827.096 138.511 829.53 138.511C831.964 138.511 834.056 139.098 835.808 140.273C837.57 141.447 838.924 143.152 839.871 145.386C840.818 147.612 841.286 150.311 841.277 153.483C841.277 156.674 840.804 159.402 839.857 161.665C838.919 163.928 837.574 165.656 835.822 166.849C834.071 168.043 831.973 168.639 829.53 168.639ZM829.53 163.54C831.196 163.54 832.527 162.702 833.521 161.026C834.516 159.349 835.008 156.835 834.999 153.483C834.999 151.277 834.771 149.439 834.317 147.972C833.872 146.504 833.237 145.401 832.413 144.662C831.599 143.923 830.638 143.554 829.53 143.554C827.873 143.554 826.547 144.383 825.553 146.04C824.558 147.697 824.056 150.178 824.047 153.483C824.047 155.718 824.269 157.583 824.714 159.08C825.169 160.566 825.808 161.684 826.632 162.432C827.456 163.17 828.422 163.54 829.53 163.54ZM855.091 168V138.909H861.241V151.736H861.625L872.094 138.909H879.466L868.67 151.935L879.594 168H872.236L864.267 156.04L861.241 159.733V168H855.091ZM882.669 168V138.909H894.317C896.457 138.909 898.242 139.226 899.672 139.861C901.102 140.495 902.177 141.376 902.896 142.503C903.616 143.62 903.976 144.908 903.976 146.366C903.976 147.503 903.749 148.502 903.294 149.364C902.839 150.216 902.214 150.917 901.419 151.466C900.633 152.006 899.733 152.389 898.72 152.616V152.901C899.828 152.948 900.865 153.26 901.831 153.838C902.806 154.416 903.597 155.225 904.203 156.267C904.809 157.299 905.112 158.53 905.112 159.96C905.112 161.504 904.729 162.882 903.962 164.094C903.204 165.296 902.082 166.248 900.595 166.949C899.108 167.65 897.276 168 895.098 168H882.669ZM888.82 162.972H893.834C895.548 162.972 896.798 162.645 897.584 161.991C898.37 161.329 898.763 160.448 898.763 159.349C898.763 158.545 898.569 157.834 898.18 157.219C897.792 156.603 897.238 156.12 896.518 155.77C895.808 155.42 894.961 155.244 893.976 155.244H888.82V162.972ZM888.82 151.082H893.379C894.222 151.082 894.97 150.936 895.624 150.642C896.286 150.339 896.807 149.913 897.186 149.364C897.574 148.814 897.768 148.156 897.768 147.389C897.768 146.338 897.394 145.491 896.646 144.847C895.908 144.203 894.857 143.881 893.493 143.881H888.82V151.082Z" fill="white"/>
<path d="M952.049 457.909V487H945.899V463.747H945.728L939.066 467.923V462.469L946.268 457.909H952.049ZM970.37 487.639C967.926 487.63 965.824 487.028 964.063 485.835C962.311 484.642 960.962 482.914 960.015 480.651C959.077 478.387 958.613 475.665 958.623 472.483C958.623 469.311 959.091 466.607 960.029 464.372C960.976 462.137 962.325 460.437 964.077 459.273C965.838 458.098 967.936 457.511 970.37 457.511C972.803 457.511 974.896 458.098 976.648 459.273C978.409 460.447 979.764 462.152 980.711 464.386C981.658 466.612 982.126 469.311 982.117 472.483C982.117 475.674 981.643 478.402 980.696 480.665C979.759 482.928 978.414 484.656 976.662 485.849C974.91 487.043 972.813 487.639 970.37 487.639ZM970.37 482.54C972.036 482.54 973.367 481.702 974.361 480.026C975.355 478.349 975.848 475.835 975.838 472.483C975.838 470.277 975.611 468.439 975.157 466.972C974.712 465.504 974.077 464.401 973.253 463.662C972.439 462.923 971.478 462.554 970.37 462.554C968.712 462.554 967.387 463.383 966.392 465.04C965.398 466.697 964.896 469.178 964.887 472.483C964.887 474.718 965.109 476.583 965.554 478.08C966.009 479.566 966.648 480.684 967.472 481.432C968.296 482.17 969.262 482.54 970.37 482.54ZM997.909 487.639C995.466 487.63 993.363 487.028 991.602 485.835C989.85 484.642 988.501 482.914 987.554 480.651C986.616 478.387 986.152 475.665 986.162 472.483C986.162 469.311 986.63 466.607 987.568 464.372C988.515 462.137 989.864 460.437 991.616 459.273C993.377 458.098 995.475 457.511 997.909 457.511C1000.34 457.511 1002.44 458.098 1004.19 459.273C1005.95 460.447 1007.3 462.152 1008.25 464.386C1009.2 466.612 1009.67 469.311 1009.66 472.483C1009.66 475.674 1009.18 478.402 1008.24 480.665C1007.3 482.928 1005.95 484.656 1004.2 485.849C1002.45 487.043 1000.35 487.639 997.909 487.639ZM997.909 482.54C999.575 482.54 1000.91 481.702 1001.9 480.026C1002.89 478.349 1003.39 475.835 1003.38 472.483C1003.38 470.277 1003.15 468.439 1002.7 466.972C1002.25 465.504 1001.62 464.401 1000.79 463.662C999.978 462.923 999.017 462.554 997.909 462.554C996.252 462.554 994.926 463.383 993.931 465.04C992.937 466.697 992.435 469.178 992.426 472.483C992.426 474.718 992.648 476.583 993.093 478.08C993.548 479.566 994.187 480.684 995.011 481.432C995.835 482.17 996.801 482.54 997.909 482.54ZM1023.47 487V457.909H1029.62V470.736H1030L1040.47 457.909H1047.84L1037.05 470.935L1047.97 487H1040.61L1032.65 475.04L1029.62 478.733V487H1023.47ZM1051.05 487V457.909H1062.7C1064.84 457.909 1066.62 458.226 1068.05 458.861C1069.48 459.495 1070.56 460.376 1071.28 461.503C1071.99 462.62 1072.35 463.908 1072.35 465.366C1072.35 466.503 1072.13 467.502 1071.67 468.364C1071.22 469.216 1070.59 469.917 1069.8 470.466C1069.01 471.006 1068.11 471.389 1067.1 471.616V471.901C1068.21 471.948 1069.24 472.26 1070.21 472.838C1071.19 473.416 1071.98 474.225 1072.58 475.267C1073.19 476.299 1073.49 477.53 1073.49 478.96C1073.49 480.504 1073.11 481.882 1072.34 483.094C1071.58 484.296 1070.46 485.248 1068.97 485.949C1067.49 486.65 1065.65 487 1063.48 487H1051.05ZM1057.2 481.972H1062.21C1063.93 481.972 1065.18 481.645 1065.96 480.991C1066.75 480.329 1067.14 479.448 1067.14 478.349C1067.14 477.545 1066.95 476.834 1066.56 476.219C1066.17 475.603 1065.62 475.12 1064.9 474.77C1064.19 474.42 1063.34 474.244 1062.35 474.244H1057.2V481.972ZM1057.2 470.082H1061.76C1062.6 470.082 1063.35 469.936 1064 469.642C1064.67 469.339 1065.19 468.913 1065.56 468.364C1065.95 467.814 1066.15 467.156 1066.15 466.389C1066.15 465.338 1065.77 464.491 1065.03 463.847C1064.29 463.203 1063.24 462.881 1061.87 462.881H1057.2V470.082Z" fill="white"/>
<path d="M1224.85 809V804.568L1235.21 794.98C1236.09 794.128 1236.82 793.361 1237.42 792.679C1238.03 791.997 1238.49 791.33 1238.8 790.676C1239.11 790.013 1239.27 789.298 1239.27 788.531C1239.27 787.679 1239.07 786.945 1238.69 786.33C1238.3 785.705 1237.77 785.226 1237.09 784.895C1236.42 784.554 1235.66 784.384 1234.81 784.384C1233.92 784.384 1233.14 784.563 1232.48 784.923C1231.82 785.283 1231.3 785.799 1230.94 786.472C1230.58 787.144 1230.4 787.944 1230.4 788.872H1224.57C1224.57 786.969 1225 785.316 1225.86 783.915C1226.72 782.513 1227.93 781.429 1229.48 780.662C1231.03 779.895 1232.82 779.511 1234.85 779.511C1236.93 779.511 1238.75 779.881 1240.29 780.619C1241.84 781.348 1243.05 782.362 1243.91 783.659C1244.77 784.956 1245.21 786.443 1245.21 788.119C1245.21 789.218 1244.99 790.302 1244.55 791.372C1244.13 792.442 1243.36 793.631 1242.26 794.938C1241.17 796.235 1239.62 797.793 1237.62 799.611L1233.37 803.773V803.972H1245.59V809H1224.85ZM1261.45 809.639C1259.01 809.63 1256.91 809.028 1255.14 807.835C1253.39 806.642 1252.04 804.914 1251.1 802.651C1250.16 800.387 1249.7 797.665 1249.7 794.483C1249.7 791.311 1250.17 788.607 1251.11 786.372C1252.06 784.137 1253.41 782.437 1255.16 781.273C1256.92 780.098 1259.02 779.511 1261.45 779.511C1263.89 779.511 1265.98 780.098 1267.73 781.273C1269.49 782.447 1270.85 784.152 1271.79 786.386C1272.74 788.612 1273.21 791.311 1273.2 794.483C1273.2 797.674 1272.73 800.402 1271.78 802.665C1270.84 804.928 1269.5 806.656 1267.74 807.849C1265.99 809.043 1263.89 809.639 1261.45 809.639ZM1261.45 804.54C1263.12 804.54 1264.45 803.702 1265.44 802.026C1266.44 800.349 1266.93 797.835 1266.92 794.483C1266.92 792.277 1266.69 790.439 1266.24 788.972C1265.79 787.504 1265.16 786.401 1264.34 785.662C1263.52 784.923 1262.56 784.554 1261.45 784.554C1259.79 784.554 1258.47 785.383 1257.47 787.04C1256.48 788.697 1255.98 791.178 1255.97 794.483C1255.97 796.718 1256.19 798.583 1256.64 800.08C1257.09 801.566 1257.73 802.684 1258.55 803.432C1259.38 804.17 1260.34 804.54 1261.45 804.54ZM1287.01 809V779.909H1293.16V792.736H1293.55L1304.02 779.909H1311.39L1300.59 792.935L1311.52 809H1304.16L1296.19 797.04L1293.16 800.733V809H1287.01ZM1314.59 809V779.909H1326.24C1328.38 779.909 1330.16 780.226 1331.59 780.861C1333.02 781.495 1334.1 782.376 1334.82 783.503C1335.54 784.62 1335.9 785.908 1335.9 787.366C1335.9 788.503 1335.67 789.502 1335.22 790.364C1334.76 791.216 1334.14 791.917 1333.34 792.466C1332.55 793.006 1331.66 793.389 1330.64 793.616V793.901C1331.75 793.948 1332.79 794.26 1333.75 794.838C1334.73 795.416 1335.52 796.225 1336.12 797.267C1336.73 798.299 1337.03 799.53 1337.03 800.96C1337.03 802.504 1336.65 803.882 1335.88 805.094C1335.13 806.296 1334 807.248 1332.52 807.949C1331.03 808.65 1329.2 809 1327.02 809H1314.59ZM1320.74 803.972H1325.76C1327.47 803.972 1328.72 803.645 1329.51 802.991C1330.29 802.329 1330.68 801.448 1330.68 800.349C1330.68 799.545 1330.49 798.834 1330.1 798.219C1329.71 797.603 1329.16 797.12 1328.44 796.77C1327.73 796.42 1326.88 796.244 1325.9 796.244H1320.74V803.972ZM1320.74 792.082H1325.3C1326.14 792.082 1326.89 791.936 1327.55 791.642C1328.21 791.339 1328.73 790.913 1329.11 790.364C1329.5 789.814 1329.69 789.156 1329.69 788.389C1329.69 787.338 1329.32 786.491 1328.57 785.847C1327.83 785.203 1326.78 784.881 1325.41 784.881H1320.74V792.082Z" fill="white"/>
<path d="M142.337 144V114.909H153.814C156.021 114.909 157.9 115.33 159.453 116.173C161.007 117.007 162.19 118.167 163.005 119.653C163.828 121.131 164.24 122.835 164.24 124.767C164.24 126.699 163.824 128.403 162.99 129.881C162.157 131.358 160.95 132.509 159.368 133.332C157.796 134.156 155.893 134.568 153.658 134.568H146.343V129.639H152.664C153.847 129.639 154.823 129.436 155.59 129.028C156.366 128.612 156.944 128.039 157.323 127.31C157.711 126.571 157.905 125.723 157.905 124.767C157.905 123.801 157.711 122.958 157.323 122.239C156.944 121.509 156.366 120.946 155.59 120.548C154.813 120.141 153.828 119.938 152.635 119.938H148.488V144H142.337ZM180.721 114.909V144H174.571V120.747H174.4L167.738 124.923V119.469L174.94 114.909H180.721ZM191.229 140.619C190.292 140.619 189.487 140.288 188.814 139.625C188.151 138.962 187.82 138.157 187.82 137.21C187.82 136.282 188.151 135.487 188.814 134.824C189.487 134.161 190.292 133.83 191.229 133.83C192.138 133.83 192.934 134.161 193.615 134.824C194.297 135.487 194.638 136.282 194.638 137.21C194.638 137.835 194.477 138.408 194.155 138.929C193.843 139.44 193.431 139.852 192.919 140.165C192.408 140.468 191.845 140.619 191.229 140.619ZM191.229 126.344C190.292 126.344 189.487 126.012 188.814 125.349C188.151 124.687 187.82 123.882 187.82 122.935C187.82 122.007 188.151 121.216 188.814 120.562C189.487 119.9 190.292 119.568 191.229 119.568C192.138 119.568 192.934 119.9 193.615 120.562C194.297 121.216 194.638 122.007 194.638 122.935C194.638 123.569 194.477 124.147 194.155 124.668C193.843 125.179 193.431 125.586 192.919 125.889C192.408 126.192 191.845 126.344 191.229 126.344ZM123.182 192.398C121.175 192.398 119.385 192.028 117.813 191.29C116.25 190.551 115.01 189.533 114.091 188.236C113.173 186.938 112.694 185.452 112.657 183.776H118.623C118.689 184.902 119.162 185.816 120.043 186.517C120.924 187.218 121.97 187.568 123.182 187.568C124.148 187.568 125 187.355 125.739 186.929C126.487 186.493 127.069 185.892 127.486 185.125C127.912 184.348 128.125 183.458 128.125 182.455C128.125 181.432 127.908 180.532 127.472 179.756C127.046 178.979 126.454 178.373 125.696 177.938C124.939 177.502 124.072 177.279 123.097 177.27C122.245 177.27 121.416 177.445 120.611 177.795C119.816 178.146 119.195 178.624 118.75 179.23L113.282 178.25L114.659 162.909H132.444V167.938H119.73L118.978 175.224H119.148C119.659 174.505 120.431 173.908 121.463 173.435C122.496 172.961 123.651 172.724 124.929 172.724C126.681 172.724 128.244 173.136 129.617 173.96C130.99 174.784 132.074 175.916 132.87 177.355C133.665 178.785 134.058 180.433 134.049 182.298C134.058 184.259 133.604 186.001 132.685 187.526C131.776 189.041 130.502 190.234 128.864 191.105C127.235 191.967 125.341 192.398 123.182 192.398ZM149.745 192.639C147.301 192.63 145.199 192.028 143.438 190.835C141.686 189.642 140.337 187.914 139.39 185.651C138.452 183.387 137.988 180.665 137.998 177.483C137.998 174.311 138.466 171.607 139.404 169.372C140.351 167.137 141.7 165.437 143.452 164.273C145.213 163.098 147.311 162.511 149.745 162.511C152.178 162.511 154.271 163.098 156.023 164.273C157.784 165.447 159.139 167.152 160.086 169.386C161.033 171.612 161.501 174.311 161.492 177.483C161.492 180.674 161.018 183.402 160.071 185.665C159.134 187.928 157.789 189.656 156.037 190.849C154.285 192.043 152.188 192.639 149.745 192.639ZM149.745 187.54C151.411 187.54 152.742 186.702 153.736 185.026C154.73 183.349 155.223 180.835 155.213 177.483C155.213 175.277 154.986 173.439 154.532 171.972C154.087 170.504 153.452 169.401 152.628 168.662C151.814 167.923 150.853 167.554 149.745 167.554C148.087 167.554 146.762 168.383 145.767 170.04C144.773 171.697 144.271 174.178 144.262 177.483C144.262 179.718 144.484 181.583 144.929 183.08C145.384 184.566 146.023 185.684 146.847 186.432C147.671 187.17 148.637 187.54 149.745 187.54ZM175.306 192V162.909H181.456V175.736H181.84L192.309 162.909H199.681L188.885 175.935L199.809 192H192.451L184.482 180.04L181.456 183.733V192H175.306ZM202.884 192V162.909H214.532C216.672 162.909 218.457 163.226 219.887 163.861C221.317 164.495 222.391 165.376 223.111 166.503C223.831 167.62 224.191 168.908 224.191 170.366C224.191 171.503 223.963 172.502 223.509 173.364C223.054 174.216 222.429 174.917 221.634 175.466C220.848 176.006 219.948 176.389 218.935 176.616V176.901C220.043 176.948 221.08 177.26 222.046 177.838C223.021 178.416 223.812 179.225 224.418 180.267C225.024 181.299 225.327 182.53 225.327 183.96C225.327 185.504 224.944 186.882 224.176 188.094C223.419 189.296 222.297 190.248 220.81 190.949C219.323 191.65 217.491 192 215.313 192H202.884ZM209.034 186.972H214.049C215.763 186.972 217.013 186.645 217.799 185.991C218.585 185.329 218.978 184.448 218.978 183.349C218.978 182.545 218.783 181.834 218.395 181.219C218.007 180.603 217.453 180.12 216.733 179.77C216.023 179.42 215.176 179.244 214.191 179.244H209.034V186.972ZM209.034 175.082H213.594C214.437 175.082 215.185 174.936 215.838 174.642C216.501 174.339 217.022 173.913 217.401 173.364C217.789 172.814 217.983 172.156 217.983 171.389C217.983 170.338 217.609 169.491 216.861 168.847C216.123 168.203 215.071 167.881 213.708 167.881H209.034V175.082Z" fill="white"/>
<path d="M143.337 463V433.909H154.814C157.021 433.909 158.9 434.33 160.453 435.173C162.007 436.007 163.19 437.167 164.005 438.653C164.828 440.131 165.24 441.835 165.24 443.767C165.24 445.699 164.824 447.403 163.99 448.881C163.157 450.358 161.95 451.509 160.368 452.332C158.796 453.156 156.893 453.568 154.658 453.568H147.343V448.639H153.664C154.847 448.639 155.823 448.436 156.59 448.028C157.366 447.612 157.944 447.039 158.323 446.31C158.711 445.571 158.905 444.723 158.905 443.767C158.905 442.801 158.711 441.958 158.323 441.239C157.944 440.509 157.366 439.946 156.59 439.548C155.813 439.141 154.828 438.938 153.635 438.938H149.488V463H143.337ZM181.721 433.909V463H175.571V439.747H175.4L168.738 443.923V438.469L175.94 433.909H181.721ZM192.229 459.619C191.292 459.619 190.487 459.288 189.814 458.625C189.151 457.962 188.82 457.157 188.82 456.21C188.82 455.282 189.151 454.487 189.814 453.824C190.487 453.161 191.292 452.83 192.229 452.83C193.138 452.83 193.934 453.161 194.615 453.824C195.297 454.487 195.638 455.282 195.638 456.21C195.638 456.835 195.477 457.408 195.155 457.929C194.843 458.44 194.431 458.852 193.919 459.165C193.408 459.468 192.845 459.619 192.229 459.619ZM192.229 445.344C191.292 445.344 190.487 445.012 189.814 444.349C189.151 443.687 188.82 442.882 188.82 441.935C188.82 441.007 189.151 440.216 189.814 439.562C190.487 438.9 191.292 438.568 192.229 438.568C193.138 438.568 193.934 438.9 194.615 439.562C195.297 440.216 195.638 441.007 195.638 441.935C195.638 442.569 195.477 443.147 195.155 443.668C194.843 444.179 194.431 444.586 193.919 444.889C193.408 445.192 192.845 445.344 192.229 445.344ZM124.182 511.398C122.175 511.398 120.385 511.028 118.813 510.29C117.25 509.551 116.01 508.533 115.091 507.236C114.173 505.938 113.694 504.452 113.657 502.776H119.623C119.689 503.902 120.162 504.816 121.043 505.517C121.924 506.218 122.97 506.568 124.182 506.568C125.148 506.568 126 506.355 126.739 505.929C127.487 505.493 128.069 504.892 128.486 504.125C128.912 503.348 129.125 502.458 129.125 501.455C129.125 500.432 128.908 499.532 128.472 498.756C128.046 497.979 127.454 497.373 126.696 496.938C125.939 496.502 125.072 496.279 124.097 496.27C123.245 496.27 122.416 496.445 121.611 496.795C120.816 497.146 120.195 497.624 119.75 498.23L114.282 497.25L115.659 481.909H133.444V486.938H120.73L119.978 494.224H120.148C120.659 493.505 121.431 492.908 122.463 492.435C123.496 491.961 124.651 491.724 125.929 491.724C127.681 491.724 129.244 492.136 130.617 492.96C131.99 493.784 133.074 494.916 133.87 496.355C134.665 497.785 135.058 499.433 135.049 501.298C135.058 503.259 134.604 505.001 133.685 506.526C132.776 508.041 131.502 509.234 129.864 510.105C128.235 510.967 126.341 511.398 124.182 511.398ZM150.745 511.639C148.301 511.63 146.199 511.028 144.438 509.835C142.686 508.642 141.337 506.914 140.39 504.651C139.452 502.387 138.988 499.665 138.998 496.483C138.998 493.311 139.466 490.607 140.404 488.372C141.351 486.137 142.7 484.437 144.452 483.273C146.213 482.098 148.311 481.511 150.745 481.511C153.178 481.511 155.271 482.098 157.023 483.273C158.784 484.447 160.139 486.152 161.086 488.386C162.033 490.612 162.501 493.311 162.492 496.483C162.492 499.674 162.018 502.402 161.071 504.665C160.134 506.928 158.789 508.656 157.037 509.849C155.285 511.043 153.188 511.639 150.745 511.639ZM150.745 506.54C152.411 506.54 153.742 505.702 154.736 504.026C155.73 502.349 156.223 499.835 156.213 496.483C156.213 494.277 155.986 492.439 155.532 490.972C155.087 489.504 154.452 488.401 153.628 487.662C152.814 486.923 151.853 486.554 150.745 486.554C149.087 486.554 147.762 487.383 146.767 489.04C145.773 490.697 145.271 493.178 145.262 496.483C145.262 498.718 145.484 500.583 145.929 502.08C146.384 503.566 147.023 504.684 147.847 505.432C148.671 506.17 149.637 506.54 150.745 506.54ZM176.306 511V481.909H182.456V494.736H182.84L193.309 481.909H200.681L189.885 494.935L200.809 511H193.451L185.482 499.04L182.456 502.733V511H176.306ZM203.884 511V481.909H215.532C217.672 481.909 219.457 482.226 220.887 482.861C222.317 483.495 223.391 484.376 224.111 485.503C224.831 486.62 225.191 487.908 225.191 489.366C225.191 490.503 224.963 491.502 224.509 492.364C224.054 493.216 223.429 493.917 222.634 494.466C221.848 495.006 220.948 495.389 219.935 495.616V495.901C221.043 495.948 222.08 496.26 223.046 496.838C224.021 497.416 224.812 498.225 225.418 499.267C226.024 500.299 226.327 501.53 226.327 502.96C226.327 504.504 225.944 505.882 225.176 507.094C224.419 508.296 223.297 509.248 221.81 509.949C220.323 510.65 218.491 511 216.313 511H203.884ZM210.034 505.972H215.049C216.763 505.972 218.013 505.645 218.799 504.991C219.585 504.329 219.978 503.448 219.978 502.349C219.978 501.545 219.783 500.834 219.395 500.219C219.007 499.603 218.453 499.12 217.733 498.77C217.023 498.42 216.176 498.244 215.191 498.244H210.034V505.972ZM210.034 494.082H214.594C215.437 494.082 216.185 493.936 216.838 493.642C217.501 493.339 218.022 492.913 218.401 492.364C218.789 491.814 218.983 491.156 218.983 490.389C218.983 489.338 218.609 488.491 217.861 487.847C217.123 487.203 216.071 486.881 214.708 486.881H210.034V494.082Z" fill="white"/>
<path d="M143.337 782V752.909H154.814C157.021 752.909 158.9 753.33 160.453 754.173C162.007 755.007 163.19 756.167 164.005 757.653C164.828 759.131 165.24 760.835 165.24 762.767C165.24 764.699 164.824 766.403 163.99 767.881C163.157 769.358 161.95 770.509 160.368 771.332C158.796 772.156 156.893 772.568 154.658 772.568H147.343V767.639H153.664C154.847 767.639 155.823 767.436 156.59 767.028C157.366 766.612 157.944 766.039 158.323 765.31C158.711 764.571 158.905 763.723 158.905 762.767C158.905 761.801 158.711 760.958 158.323 760.239C157.944 759.509 157.366 758.946 156.59 758.548C155.813 758.141 154.828 757.938 153.635 757.938H149.488V782H143.337ZM181.721 752.909V782H175.571V758.747H175.4L168.738 762.923V757.469L175.94 752.909H181.721ZM192.229 778.619C191.292 778.619 190.487 778.288 189.814 777.625C189.151 776.962 188.82 776.157 188.82 775.21C188.82 774.282 189.151 773.487 189.814 772.824C190.487 772.161 191.292 771.83 192.229 771.83C193.138 771.83 193.934 772.161 194.615 772.824C195.297 773.487 195.638 774.282 195.638 775.21C195.638 775.835 195.477 776.408 195.155 776.929C194.843 777.44 194.431 777.852 193.919 778.165C193.408 778.468 192.845 778.619 192.229 778.619ZM192.229 764.344C191.292 764.344 190.487 764.012 189.814 763.349C189.151 762.687 188.82 761.882 188.82 760.935C188.82 760.007 189.151 759.216 189.814 758.562C190.487 757.9 191.292 757.568 192.229 757.568C193.138 757.568 193.934 757.9 194.615 758.562C195.297 759.216 195.638 760.007 195.638 760.935C195.638 761.569 195.477 762.147 195.155 762.668C194.843 763.179 194.431 763.586 193.919 763.889C193.408 764.192 192.845 764.344 192.229 764.344ZM124.182 830.398C122.175 830.398 120.385 830.028 118.813 829.29C117.25 828.551 116.01 827.533 115.091 826.236C114.173 824.938 113.694 823.452 113.657 821.776H119.623C119.689 822.902 120.162 823.816 121.043 824.517C121.924 825.218 122.97 825.568 124.182 825.568C125.148 825.568 126 825.355 126.739 824.929C127.487 824.493 128.069 823.892 128.486 823.125C128.912 822.348 129.125 821.458 129.125 820.455C129.125 819.432 128.908 818.532 128.472 817.756C128.046 816.979 127.454 816.373 126.696 815.938C125.939 815.502 125.072 815.279 124.097 815.27C123.245 815.27 122.416 815.445 121.611 815.795C120.816 816.146 120.195 816.624 119.75 817.23L114.282 816.25L115.659 800.909H133.444V805.938H120.73L119.978 813.224H120.148C120.659 812.505 121.431 811.908 122.463 811.435C123.496 810.961 124.651 810.724 125.929 810.724C127.681 810.724 129.244 811.136 130.617 811.96C131.99 812.784 133.074 813.916 133.87 815.355C134.665 816.785 135.058 818.433 135.049 820.298C135.058 822.259 134.604 824.001 133.685 825.526C132.776 827.041 131.502 828.234 129.864 829.105C128.235 829.967 126.341 830.398 124.182 830.398ZM150.745 830.639C148.301 830.63 146.199 830.028 144.438 828.835C142.686 827.642 141.337 825.914 140.39 823.651C139.452 821.387 138.988 818.665 138.998 815.483C138.998 812.311 139.466 809.607 140.404 807.372C141.351 805.137 142.7 803.437 144.452 802.273C146.213 801.098 148.311 800.511 150.745 800.511C153.178 800.511 155.271 801.098 157.023 802.273C158.784 803.447 160.139 805.152 161.086 807.386C162.033 809.612 162.501 812.311 162.492 815.483C162.492 818.674 162.018 821.402 161.071 823.665C160.134 825.928 158.789 827.656 157.037 828.849C155.285 830.043 153.188 830.639 150.745 830.639ZM150.745 825.54C152.411 825.54 153.742 824.702 154.736 823.026C155.73 821.349 156.223 818.835 156.213 815.483C156.213 813.277 155.986 811.439 155.532 809.972C155.087 808.504 154.452 807.401 153.628 806.662C152.814 805.923 151.853 805.554 150.745 805.554C149.087 805.554 147.762 806.383 146.767 808.04C145.773 809.697 145.271 812.178 145.262 815.483C145.262 817.718 145.484 819.583 145.929 821.08C146.384 822.566 147.023 823.684 147.847 824.432C148.671 825.17 149.637 825.54 150.745 825.54ZM176.306 830V800.909H182.456V813.736H182.84L193.309 800.909H200.681L189.885 813.935L200.809 830H193.451L185.482 818.04L182.456 821.733V830H176.306ZM203.884 830V800.909H215.532C217.672 800.909 219.457 801.226 220.887 801.861C222.317 802.495 223.391 803.376 224.111 804.503C224.831 805.62 225.191 806.908 225.191 808.366C225.191 809.503 224.963 810.502 224.509 811.364C224.054 812.216 223.429 812.917 222.634 813.466C221.848 814.006 220.948 814.389 219.935 814.616V814.901C221.043 814.948 222.08 815.26 223.046 815.838C224.021 816.416 224.812 817.225 225.418 818.267C226.024 819.299 226.327 820.53 226.327 821.96C226.327 823.504 225.944 824.882 225.176 826.094C224.419 827.296 223.297 828.248 221.81 828.949C220.323 829.65 218.491 830 216.313 830H203.884ZM210.034 824.972H215.049C216.763 824.972 218.013 824.645 218.799 823.991C219.585 823.329 219.978 822.448 219.978 821.349C219.978 820.545 219.783 819.834 219.395 819.219C219.007 818.603 218.453 818.12 217.733 817.77C217.023 817.42 216.176 817.244 215.191 817.244H210.034V824.972ZM210.034 813.082H214.594C215.437 813.082 216.185 812.936 216.838 812.642C217.501 812.339 218.022 811.913 218.401 811.364C218.789 810.814 218.983 810.156 218.983 809.389C218.983 808.338 218.609 807.491 217.861 806.847C217.123 806.203 216.071 805.881 214.708 805.881H210.034V813.082Z" fill="white"/>
<path d="M473.525 782V752.909H485.002C487.208 752.909 489.088 753.33 490.641 754.173C492.194 755.007 493.378 756.167 494.192 757.653C495.016 759.131 495.428 760.835 495.428 762.767C495.428 764.699 495.011 766.403 494.178 767.881C493.345 769.358 492.137 770.509 490.556 771.332C488.984 772.156 487.08 772.568 484.846 772.568H477.53V767.639H483.851C485.035 767.639 486.01 767.436 486.777 767.028C487.554 766.612 488.132 766.039 488.51 765.31C488.899 764.571 489.093 763.723 489.093 762.767C489.093 761.801 488.899 760.958 488.51 760.239C488.132 759.509 487.554 758.946 486.777 758.548C486.001 758.141 485.016 757.938 483.823 757.938H479.675V782H473.525ZM499.252 782V777.568L509.608 767.98C510.488 767.128 511.227 766.361 511.824 765.679C512.43 764.997 512.889 764.33 513.201 763.676C513.514 763.013 513.67 762.298 513.67 761.531C513.67 760.679 513.476 759.945 513.088 759.33C512.699 758.705 512.169 758.226 511.497 757.895C510.824 757.554 510.062 757.384 509.21 757.384C508.32 757.384 507.543 757.563 506.88 757.923C506.217 758.283 505.706 758.799 505.346 759.472C504.986 760.144 504.806 760.944 504.806 761.872H498.968C498.968 759.969 499.399 758.316 500.261 756.915C501.123 755.513 502.33 754.429 503.883 753.662C505.436 752.895 507.226 752.511 509.252 752.511C511.336 752.511 513.149 752.881 514.693 753.619C516.246 754.348 517.453 755.362 518.315 756.659C519.177 757.956 519.608 759.443 519.608 761.119C519.608 762.218 519.39 763.302 518.954 764.372C518.528 765.442 517.766 766.631 516.667 767.938C515.569 769.235 514.02 770.793 512.022 772.611L507.775 776.773V776.972H519.991V782H499.252ZM528.042 778.619C527.104 778.619 526.299 778.288 525.627 777.625C524.964 776.962 524.632 776.157 524.632 775.21C524.632 774.282 524.964 773.487 525.627 772.824C526.299 772.161 527.104 771.83 528.042 771.83C528.951 771.83 529.746 772.161 530.428 772.824C531.11 773.487 531.451 774.282 531.451 775.21C531.451 775.835 531.29 776.408 530.968 776.929C530.655 777.44 530.243 777.852 529.732 778.165C529.221 778.468 528.657 778.619 528.042 778.619ZM528.042 764.344C527.104 764.344 526.299 764.012 525.627 763.349C524.964 762.687 524.632 761.882 524.632 760.935C524.632 760.007 524.964 759.216 525.627 758.562C526.299 757.9 527.104 757.568 528.042 757.568C528.951 757.568 529.746 757.9 530.428 758.562C531.11 759.216 531.451 760.007 531.451 760.935C531.451 761.569 531.29 762.147 530.968 762.668C530.655 763.179 530.243 763.586 529.732 763.889C529.221 764.192 528.657 764.344 528.042 764.344ZM457.182 830.398C455.175 830.398 453.385 830.028 451.813 829.29C450.25 828.551 449.01 827.533 448.091 826.236C447.173 824.938 446.694 823.452 446.657 821.776H452.623C452.689 822.902 453.162 823.816 454.043 824.517C454.924 825.218 455.97 825.568 457.182 825.568C458.148 825.568 459 825.355 459.739 824.929C460.487 824.493 461.069 823.892 461.486 823.125C461.912 822.348 462.125 821.458 462.125 820.455C462.125 819.432 461.908 818.532 461.472 817.756C461.046 816.979 460.454 816.373 459.696 815.938C458.939 815.502 458.072 815.279 457.097 815.27C456.245 815.27 455.416 815.445 454.611 815.795C453.816 816.146 453.195 816.624 452.75 817.23L447.282 816.25L448.659 800.909H466.444V805.938H453.73L452.978 813.224H453.148C453.659 812.505 454.431 811.908 455.463 811.435C456.496 810.961 457.651 810.724 458.929 810.724C460.681 810.724 462.244 811.136 463.617 811.96C464.99 812.784 466.074 813.916 466.87 815.355C467.665 816.785 468.058 818.433 468.049 820.298C468.058 822.259 467.604 824.001 466.685 825.526C465.776 827.041 464.502 828.234 462.864 829.105C461.235 829.967 459.341 830.398 457.182 830.398ZM483.745 830.639C481.301 830.63 479.199 830.028 477.438 828.835C475.686 827.642 474.337 825.914 473.39 823.651C472.452 821.387 471.988 818.665 471.998 815.483C471.998 812.311 472.466 809.607 473.404 807.372C474.351 805.137 475.7 803.437 477.452 802.273C479.213 801.098 481.311 800.511 483.745 800.511C486.178 800.511 488.271 801.098 490.023 802.273C491.784 803.447 493.139 805.152 494.086 807.386C495.033 809.612 495.501 812.311 495.492 815.483C495.492 818.674 495.018 821.402 494.071 823.665C493.134 825.928 491.789 827.656 490.037 828.849C488.285 830.043 486.188 830.639 483.745 830.639ZM483.745 825.54C485.411 825.54 486.742 824.702 487.736 823.026C488.73 821.349 489.223 818.835 489.213 815.483C489.213 813.277 488.986 811.439 488.532 809.972C488.087 808.504 487.452 807.401 486.628 806.662C485.814 805.923 484.853 805.554 483.745 805.554C482.087 805.554 480.762 806.383 479.767 808.04C478.773 809.697 478.271 812.178 478.262 815.483C478.262 817.718 478.484 819.583 478.929 821.08C479.384 822.566 480.023 823.684 480.847 824.432C481.671 825.17 482.637 825.54 483.745 825.54ZM509.306 830V800.909H515.456V813.736H515.84L526.309 800.909H533.681L522.885 813.935L533.809 830H526.451L518.482 818.04L515.456 821.733V830H509.306ZM536.884 830V800.909H548.532C550.672 800.909 552.457 801.226 553.887 801.861C555.317 802.495 556.391 803.376 557.111 804.503C557.831 805.62 558.191 806.908 558.191 808.366C558.191 809.503 557.963 810.502 557.509 811.364C557.054 812.216 556.429 812.917 555.634 813.466C554.848 814.006 553.948 814.389 552.935 814.616V814.901C554.043 814.948 555.08 815.26 556.046 815.838C557.021 816.416 557.812 817.225 558.418 818.267C559.024 819.299 559.327 820.53 559.327 821.96C559.327 823.504 558.944 824.882 558.176 826.094C557.419 827.296 556.297 828.248 554.81 828.949C553.323 829.65 551.491 830 549.313 830H536.884ZM543.034 824.972H548.049C549.763 824.972 551.013 824.645 551.799 823.991C552.585 823.329 552.978 822.448 552.978 821.349C552.978 820.545 552.783 819.834 552.395 819.219C552.007 818.603 551.453 818.12 550.733 817.77C550.023 817.42 549.176 817.244 548.191 817.244H543.034V824.972ZM543.034 813.082H547.594C548.437 813.082 549.185 812.936 549.838 812.642C550.501 812.339 551.022 811.913 551.401 811.364C551.789 810.814 551.983 810.156 551.983 809.389C551.983 808.338 551.609 807.491 550.861 806.847C550.123 806.203 549.071 805.881 547.708 805.881H543.034V813.082Z" fill="white"/>
<path d="M473.525 463V433.909H485.002C487.208 433.909 489.088 434.33 490.641 435.173C492.194 436.007 493.378 437.167 494.192 438.653C495.016 440.131 495.428 441.835 495.428 443.767C495.428 445.699 495.011 447.403 494.178 448.881C493.345 450.358 492.137 451.509 490.556 452.332C488.984 453.156 487.08 453.568 484.846 453.568H477.53V448.639H483.851C485.035 448.639 486.01 448.436 486.777 448.028C487.554 447.612 488.132 447.039 488.51 446.31C488.899 445.571 489.093 444.723 489.093 443.767C489.093 442.801 488.899 441.958 488.51 441.239C488.132 440.509 487.554 439.946 486.777 439.548C486.001 439.141 485.016 438.938 483.823 438.938H479.675V463H473.525ZM499.252 463V458.568L509.608 448.98C510.488 448.128 511.227 447.361 511.824 446.679C512.43 445.997 512.889 445.33 513.201 444.676C513.514 444.013 513.67 443.298 513.67 442.531C513.67 441.679 513.476 440.945 513.088 440.33C512.699 439.705 512.169 439.226 511.497 438.895C510.824 438.554 510.062 438.384 509.21 438.384C508.32 438.384 507.543 438.563 506.88 438.923C506.217 439.283 505.706 439.799 505.346 440.472C504.986 441.144 504.806 441.944 504.806 442.872H498.968C498.968 440.969 499.399 439.316 500.261 437.915C501.123 436.513 502.33 435.429 503.883 434.662C505.436 433.895 507.226 433.511 509.252 433.511C511.336 433.511 513.149 433.881 514.693 434.619C516.246 435.348 517.453 436.362 518.315 437.659C519.177 438.956 519.608 440.443 519.608 442.119C519.608 443.218 519.39 444.302 518.954 445.372C518.528 446.442 517.766 447.631 516.667 448.938C515.569 450.235 514.02 451.793 512.022 453.611L507.775 457.773V457.972H519.991V463H499.252ZM528.042 459.619C527.104 459.619 526.299 459.288 525.627 458.625C524.964 457.962 524.632 457.157 524.632 456.21C524.632 455.282 524.964 454.487 525.627 453.824C526.299 453.161 527.104 452.83 528.042 452.83C528.951 452.83 529.746 453.161 530.428 453.824C531.11 454.487 531.451 455.282 531.451 456.21C531.451 456.835 531.29 457.408 530.968 457.929C530.655 458.44 530.243 458.852 529.732 459.165C529.221 459.468 528.657 459.619 528.042 459.619ZM528.042 445.344C527.104 445.344 526.299 445.012 525.627 444.349C524.964 443.687 524.632 442.882 524.632 441.935C524.632 441.007 524.964 440.216 525.627 439.562C526.299 438.9 527.104 438.568 528.042 438.568C528.951 438.568 529.746 438.9 530.428 439.562C531.11 440.216 531.451 441.007 531.451 441.935C531.451 442.569 531.29 443.147 530.968 443.668C530.655 444.179 530.243 444.586 529.732 444.889C529.221 445.192 528.657 445.344 528.042 445.344ZM457.182 511.398C455.175 511.398 453.385 511.028 451.813 510.29C450.25 509.551 449.01 508.533 448.091 507.236C447.173 505.938 446.694 504.452 446.657 502.776H452.623C452.689 503.902 453.162 504.816 454.043 505.517C454.924 506.218 455.97 506.568 457.182 506.568C458.148 506.568 459 506.355 459.739 505.929C460.487 505.493 461.069 504.892 461.486 504.125C461.912 503.348 462.125 502.458 462.125 501.455C462.125 500.432 461.908 499.532 461.472 498.756C461.046 497.979 460.454 497.373 459.696 496.938C458.939 496.502 458.072 496.279 457.097 496.27C456.245 496.27 455.416 496.445 454.611 496.795C453.816 497.146 453.195 497.624 452.75 498.23L447.282 497.25L448.659 481.909H466.444V486.938H453.73L452.978 494.224H453.148C453.659 493.505 454.431 492.908 455.463 492.435C456.496 491.961 457.651 491.724 458.929 491.724C460.681 491.724 462.244 492.136 463.617 492.96C464.99 493.784 466.074 494.916 466.87 496.355C467.665 497.785 468.058 499.433 468.049 501.298C468.058 503.259 467.604 505.001 466.685 506.526C465.776 508.041 464.502 509.234 462.864 510.105C461.235 510.967 459.341 511.398 457.182 511.398ZM483.745 511.639C481.301 511.63 479.199 511.028 477.438 509.835C475.686 508.642 474.337 506.914 473.39 504.651C472.452 502.387 471.988 499.665 471.998 496.483C471.998 493.311 472.466 490.607 473.404 488.372C474.351 486.137 475.7 484.437 477.452 483.273C479.213 482.098 481.311 481.511 483.745 481.511C486.178 481.511 488.271 482.098 490.023 483.273C491.784 484.447 493.139 486.152 494.086 488.386C495.033 490.612 495.501 493.311 495.492 496.483C495.492 499.674 495.018 502.402 494.071 504.665C493.134 506.928 491.789 508.656 490.037 509.849C488.285 511.043 486.188 511.639 483.745 511.639ZM483.745 506.54C485.411 506.54 486.742 505.702 487.736 504.026C488.73 502.349 489.223 499.835 489.213 496.483C489.213 494.277 488.986 492.439 488.532 490.972C488.087 489.504 487.452 488.401 486.628 487.662C485.814 486.923 484.853 486.554 483.745 486.554C482.087 486.554 480.762 487.383 479.767 489.04C478.773 490.697 478.271 493.178 478.262 496.483C478.262 498.718 478.484 500.583 478.929 502.08C479.384 503.566 480.023 504.684 480.847 505.432C481.671 506.17 482.637 506.54 483.745 506.54ZM509.306 511V481.909H515.456V494.736H515.84L526.309 481.909H533.681L522.885 494.935L533.809 511H526.451L518.482 499.04L515.456 502.733V511H509.306ZM536.884 511V481.909H548.532C550.672 481.909 552.457 482.226 553.887 482.861C555.317 483.495 556.391 484.376 557.111 485.503C557.831 486.62 558.191 487.908 558.191 489.366C558.191 490.503 557.963 491.502 557.509 492.364C557.054 493.216 556.429 493.917 555.634 494.466C554.848 495.006 553.948 495.389 552.935 495.616V495.901C554.043 495.948 555.08 496.26 556.046 496.838C557.021 497.416 557.812 498.225 558.418 499.267C559.024 500.299 559.327 501.53 559.327 502.96C559.327 504.504 558.944 505.882 558.176 507.094C557.419 508.296 556.297 509.248 554.81 509.949C553.323 510.65 551.491 511 549.313 511H536.884ZM543.034 505.972H548.049C549.763 505.972 551.013 505.645 551.799 504.991C552.585 504.329 552.978 503.448 552.978 502.349C552.978 501.545 552.783 500.834 552.395 500.219C552.007 499.603 551.453 499.12 550.733 498.77C550.023 498.42 549.176 498.244 548.191 498.244H543.034V505.972ZM543.034 494.082H547.594C548.437 494.082 549.185 493.936 549.838 493.642C550.501 493.339 551.022 492.913 551.401 492.364C551.789 491.814 551.983 491.156 551.983 490.389C551.983 489.338 551.609 488.491 550.861 487.847C550.123 487.203 549.071 486.881 547.708 486.881H543.034V494.082Z" fill="white"/>
<path d="M906.439 782V752.909H917.916C920.122 752.909 922.002 753.33 923.555 754.173C925.108 755.007 926.292 756.167 927.106 757.653C927.93 759.131 928.342 760.835 928.342 762.767C928.342 764.699 927.925 766.403 927.092 767.881C926.259 769.358 925.051 770.509 923.47 771.332C921.898 772.156 919.994 772.568 917.76 772.568H910.444V767.639H916.765C917.949 767.639 918.924 767.436 919.691 767.028C920.468 766.612 921.046 766.039 921.424 765.31C921.813 764.571 922.007 763.723 922.007 762.767C922.007 761.801 921.813 760.958 921.424 760.239C921.046 759.509 920.468 758.946 919.691 758.548C918.915 758.141 917.93 757.938 916.737 757.938H912.589V782H906.439ZM942.919 782.398C940.798 782.398 938.909 782.033 937.252 781.304C935.604 780.565 934.302 779.552 933.346 778.264C932.399 776.967 931.911 775.471 931.882 773.776H938.076C938.114 774.486 938.346 775.111 938.772 775.651C939.207 776.181 939.785 776.593 940.505 776.886C941.224 777.18 942.034 777.327 942.934 777.327C943.871 777.327 944.7 777.161 945.419 776.83C946.139 776.498 946.703 776.039 947.11 775.452C947.517 774.865 947.721 774.187 947.721 773.42C947.721 772.644 947.503 771.957 947.067 771.361C946.641 770.755 946.025 770.281 945.221 769.94C944.425 769.599 943.478 769.429 942.38 769.429H939.667V764.912H942.38C943.308 764.912 944.127 764.751 944.837 764.429C945.557 764.107 946.115 763.662 946.513 763.094C946.911 762.516 947.11 761.844 947.11 761.077C947.11 760.348 946.935 759.708 946.584 759.159C946.243 758.6 945.76 758.165 945.135 757.852C944.52 757.54 943.8 757.384 942.976 757.384C942.143 757.384 941.381 757.535 940.689 757.838C939.998 758.132 939.444 758.553 939.027 759.102C938.611 759.652 938.388 760.295 938.36 761.034H932.465C932.493 759.358 932.971 757.881 933.9 756.602C934.828 755.324 936.078 754.325 937.65 753.605C939.231 752.876 941.016 752.511 943.005 752.511C945.012 752.511 946.769 752.876 948.275 753.605C949.78 754.334 950.95 755.319 951.783 756.56C952.626 757.791 953.042 759.173 953.033 760.707C953.042 762.336 952.536 763.695 951.513 764.784C950.5 765.873 949.179 766.564 947.55 766.858V767.085C949.69 767.36 951.319 768.103 952.436 769.315C953.563 770.518 954.122 772.024 954.113 773.832C954.122 775.49 953.644 776.962 952.678 778.25C951.721 779.538 950.4 780.551 948.715 781.29C947.029 782.028 945.097 782.398 942.919 782.398ZM962.127 778.619C961.19 778.619 960.385 778.288 959.713 777.625C959.05 776.962 958.718 776.157 958.718 775.21C958.718 774.282 959.05 773.487 959.713 772.824C960.385 772.161 961.19 771.83 962.127 771.83C963.037 771.83 963.832 772.161 964.514 772.824C965.196 773.487 965.537 774.282 965.537 775.21C965.537 775.835 965.376 776.408 965.054 776.929C964.741 777.44 964.329 777.852 963.818 778.165C963.306 778.468 962.743 778.619 962.127 778.619ZM962.127 764.344C961.19 764.344 960.385 764.012 959.713 763.349C959.05 762.687 958.718 761.882 958.718 760.935C958.718 760.007 959.05 759.216 959.713 758.562C960.385 757.9 961.19 757.568 962.127 757.568C963.037 757.568 963.832 757.9 964.514 758.562C965.196 759.216 965.537 760.007 965.537 760.935C965.537 761.569 965.376 762.147 965.054 762.668C964.741 763.179 964.329 763.586 963.818 763.889C963.306 764.192 962.743 764.344 962.127 764.344ZM890.577 830.398C888.39 830.398 886.444 830.043 884.739 829.332C883.044 828.613 881.714 827.633 880.748 826.392C879.782 825.152 879.299 823.745 879.299 822.173C879.299 820.961 879.574 819.848 880.123 818.835C880.682 817.812 881.439 816.965 882.396 816.293C883.352 815.611 884.422 815.175 885.606 814.986V814.787C884.053 814.474 882.793 813.722 881.827 812.528C880.862 811.326 880.379 809.929 880.379 808.338C880.379 806.832 880.819 805.492 881.7 804.318C882.58 803.134 883.788 802.206 885.322 801.534C886.865 800.852 888.617 800.511 890.577 800.511C892.538 800.511 894.285 800.852 895.819 801.534C897.362 802.216 898.575 803.149 899.455 804.332C900.336 805.507 900.781 806.842 900.79 808.338C900.781 809.938 900.289 811.335 899.313 812.528C898.338 813.722 897.088 814.474 895.563 814.787V814.986C896.728 815.175 897.784 815.611 898.731 816.293C899.687 816.965 900.445 817.812 901.004 818.835C901.572 819.848 901.861 820.961 901.87 822.173C901.861 823.745 901.373 825.152 900.407 826.392C899.441 827.633 898.106 828.613 896.401 829.332C894.706 830.043 892.765 830.398 890.577 830.398ZM890.577 825.881C891.553 825.881 892.405 825.705 893.134 825.355C893.863 824.995 894.432 824.503 894.839 823.878C895.255 823.243 895.464 822.514 895.464 821.69C895.464 820.848 895.251 820.104 894.825 819.46C894.398 818.807 893.821 818.295 893.092 817.926C892.362 817.547 891.524 817.358 890.577 817.358C889.64 817.358 888.802 817.547 888.063 817.926C887.325 818.295 886.742 818.807 886.316 819.46C885.899 820.104 885.691 820.848 885.691 821.69C885.691 822.514 885.895 823.243 886.302 823.878C886.709 824.503 887.282 824.995 888.021 825.355C888.759 825.705 889.612 825.881 890.577 825.881ZM890.577 812.884C891.392 812.884 892.116 812.718 892.751 812.386C893.385 812.055 893.882 811.596 894.242 811.009C894.602 810.421 894.782 809.744 894.782 808.977C894.782 808.22 894.602 807.557 894.242 806.989C893.882 806.411 893.39 805.961 892.765 805.639C892.14 805.308 891.411 805.142 890.577 805.142C889.754 805.142 889.024 805.308 888.39 805.639C887.755 805.961 887.258 806.411 886.898 806.989C886.548 807.557 886.373 808.22 886.373 808.977C886.373 809.744 886.553 810.421 886.913 811.009C887.272 811.596 887.77 812.055 888.404 812.386C889.039 812.718 889.763 812.884 890.577 812.884ZM917.577 830.639C915.134 830.63 913.031 830.028 911.27 828.835C909.518 827.642 908.169 825.914 907.222 823.651C906.284 821.387 905.82 818.665 905.83 815.483C905.83 812.311 906.298 809.607 907.236 807.372C908.183 805.137 909.532 803.437 911.284 802.273C913.045 801.098 915.143 800.511 917.577 800.511C920.01 800.511 922.103 801.098 923.855 802.273C925.616 803.447 926.971 805.152 927.918 807.386C928.865 809.612 929.333 812.311 929.324 815.483C929.324 818.674 928.85 821.402 927.903 823.665C926.966 825.928 925.621 827.656 923.869 828.849C922.117 830.043 920.02 830.639 917.577 830.639ZM917.577 825.54C919.243 825.54 920.574 824.702 921.568 823.026C922.563 821.349 923.055 818.835 923.045 815.483C923.045 813.277 922.818 811.439 922.364 809.972C921.919 808.504 921.284 807.401 920.46 806.662C919.646 805.923 918.685 805.554 917.577 805.554C915.92 805.554 914.594 806.383 913.599 808.04C912.605 809.697 912.103 812.178 912.094 815.483C912.094 817.718 912.316 819.583 912.761 821.08C913.216 822.566 913.855 823.684 914.679 824.432C915.503 825.17 916.469 825.54 917.577 825.54ZM943.138 830V800.909H949.288V813.736H949.672L960.141 800.909H967.513L956.717 813.935L967.641 830H960.283L952.314 818.04L949.288 821.733V830H943.138ZM970.716 830V800.909H982.364C984.504 800.909 986.289 801.226 987.719 801.861C989.149 802.495 990.223 803.376 990.943 804.503C991.663 805.62 992.023 806.908 992.023 808.366C992.023 809.503 991.795 810.502 991.341 811.364C990.886 812.216 990.261 812.917 989.466 813.466C988.68 814.006 987.78 814.389 986.767 814.616V814.901C987.875 814.948 988.912 815.26 989.878 815.838C990.853 816.416 991.644 817.225 992.25 818.267C992.856 819.299 993.159 820.53 993.159 821.96C993.159 823.504 992.776 824.882 992.009 826.094C991.251 827.296 990.129 828.248 988.642 828.949C987.155 829.65 985.323 830 983.145 830H970.716ZM976.866 824.972H981.881C983.595 824.972 984.845 824.645 985.631 823.991C986.417 823.329 986.81 822.448 986.81 821.349C986.81 820.545 986.616 819.834 986.227 819.219C985.839 818.603 985.285 818.12 984.565 817.77C983.855 817.42 983.008 817.244 982.023 817.244H976.866V824.972ZM976.866 813.082H981.426C982.269 813.082 983.017 812.936 983.67 812.642C984.333 812.339 984.854 811.913 985.233 811.364C985.621 810.814 985.815 810.156 985.815 809.389C985.815 808.338 985.441 807.491 984.693 806.847C983.955 806.203 982.903 805.881 981.54 805.881H976.866V813.082Z" fill="white"/>
<path d="M593.366 9.90909H597.571L607.457 34.0568H607.798L617.685 9.90909H621.889V39H618.594V16.8977H618.31L609.219 39H606.037L596.946 16.8977H596.662V39H593.366V9.90909ZM637.646 39.4545C635.543 39.4545 633.73 38.9905 632.205 38.0625C630.69 37.125 629.521 35.8182 628.697 34.142C627.882 32.4564 627.475 30.4962 627.475 28.2614C627.475 26.0265 627.882 24.0568 628.697 22.3523C629.521 20.6383 630.666 19.303 632.134 18.3466C633.612 17.3807 635.335 16.8977 637.305 16.8977C638.441 16.8977 639.563 17.0871 640.671 17.4659C641.779 17.8447 642.788 18.4602 643.697 19.3125C644.606 20.1553 645.33 21.2727 645.87 22.6648C646.41 24.0568 646.68 25.7708 646.68 27.8068V29.2273H629.862V26.3295H643.271C643.271 25.0985 643.024 24 642.532 23.0341C642.049 22.0682 641.358 21.3059 640.458 20.7472C639.568 20.1884 638.517 19.9091 637.305 19.9091C635.969 19.9091 634.814 20.2405 633.839 20.9034C632.873 21.5568 632.129 22.4091 631.609 23.4602C631.088 24.5114 630.827 25.6383 630.827 26.8409V28.7727C630.827 30.4205 631.112 31.8172 631.68 32.9631C632.257 34.0994 633.058 34.9659 634.08 35.5625C635.103 36.1496 636.291 36.4432 637.646 36.4432C638.526 36.4432 639.322 36.3201 640.032 36.0739C640.752 35.8182 641.372 35.4394 641.893 34.9375C642.414 34.4261 642.816 33.7917 643.1 33.0341L646.339 33.9432C645.998 35.0417 645.425 36.0076 644.62 36.8409C643.815 37.6648 642.821 38.3087 641.637 38.7727C640.453 39.2273 639.123 39.4545 637.646 39.4545ZM651.779 39V17.1818H655.018V20.5909H655.302C655.756 19.4261 656.49 18.5218 657.504 17.8778C658.517 17.2244 659.734 16.8977 661.154 16.8977C662.594 16.8977 663.791 17.2244 664.748 17.8778C665.714 18.5218 666.467 19.4261 667.006 20.5909H667.234C667.792 19.464 668.63 18.5691 669.748 17.9062C670.865 17.2339 672.205 16.8977 673.768 16.8977C675.719 16.8977 677.314 17.5085 678.555 18.7301C679.795 19.9422 680.415 21.8314 680.415 24.3977V39H677.063V24.3977C677.063 22.7879 676.623 21.6373 675.742 20.946C674.862 20.2547 673.825 19.9091 672.631 19.9091C671.097 19.9091 669.909 20.3731 669.066 21.3011C668.223 22.2197 667.802 23.3845 667.802 24.7955V39H664.393V24.0568C664.393 22.8163 663.99 21.8172 663.185 21.0597C662.38 20.2926 661.344 19.9091 660.075 19.9091C659.203 19.9091 658.389 20.1411 657.631 20.6051C656.883 21.0691 656.277 21.7131 655.813 22.5369C655.359 23.3513 655.131 24.2936 655.131 25.3636V39H651.779ZM695.408 39.4545C693.439 39.4545 691.71 38.9858 690.224 38.0483C688.746 37.1108 687.591 35.7992 686.758 34.1136C685.934 32.428 685.522 30.4583 685.522 28.2045C685.522 25.9318 685.934 23.9479 686.758 22.2528C687.591 20.5578 688.746 19.2415 690.224 18.304C691.71 17.3665 693.439 16.8977 695.408 16.8977C697.378 16.8977 699.102 17.3665 700.579 18.304C702.066 19.2415 703.221 20.5578 704.045 22.2528C704.878 23.9479 705.295 25.9318 705.295 28.2045C705.295 30.4583 704.878 32.428 704.045 34.1136C703.221 35.7992 702.066 37.1108 700.579 38.0483C699.102 38.9858 697.378 39.4545 695.408 39.4545ZM695.408 36.4432C696.905 36.4432 698.136 36.0597 699.102 35.2926C700.067 34.5256 700.782 33.517 701.246 32.267C701.71 31.017 701.942 29.6629 701.942 28.2045C701.942 26.7462 701.71 25.3873 701.246 24.1278C700.782 22.8684 700.067 21.8504 699.102 21.0739C698.136 20.2973 696.905 19.9091 695.408 19.9091C693.912 19.9091 692.681 20.2973 691.715 21.0739C690.749 21.8504 690.034 22.8684 689.57 24.1278C689.106 25.3873 688.874 26.7462 688.874 28.2045C688.874 29.6629 689.106 31.017 689.57 32.267C690.034 33.517 690.749 34.5256 691.715 35.2926C692.681 36.0597 693.912 36.4432 695.408 36.4432ZM710.412 39V17.1818H713.651V20.4773H713.878C714.276 19.3977 714.995 18.5218 716.037 17.8494C717.079 17.1771 718.253 16.8409 719.56 16.8409C719.806 16.8409 720.114 16.8456 720.483 16.8551C720.852 16.8646 721.132 16.8788 721.321 16.8977V20.3068C721.207 20.2784 720.947 20.2358 720.54 20.179C720.142 20.1127 719.721 20.0795 719.276 20.0795C718.215 20.0795 717.268 20.3021 716.435 20.7472C715.611 21.1828 714.957 21.7888 714.474 22.5653C714.001 23.3324 713.764 24.2083 713.764 25.1932V39H710.412ZM728.118 47.1818C727.55 47.1818 727.043 47.1345 726.598 47.0398C726.153 46.9545 725.845 46.8693 725.675 46.7841L726.527 43.8295C727.341 44.0379 728.061 44.1136 728.686 44.0568C729.311 44 729.865 43.7206 730.348 43.2188C730.84 42.7263 731.29 41.9261 731.697 40.8182L732.322 39.1136L724.254 17.1818H727.891L733.913 34.5682H734.141L740.163 17.1818H743.8L734.538 42.1818C734.122 43.3087 733.606 44.2415 732.99 44.9801C732.375 45.7282 731.66 46.2822 730.845 46.642C730.04 47.0019 729.131 47.1818 728.118 47.1818Z" fill="white"/>
<path d="M594.366 328.909H598.571L608.457 353.057H608.798L618.685 328.909H622.889V358H619.594V335.898H619.31L610.219 358H607.037L597.946 335.898H597.662V358H594.366V328.909ZM638.646 358.455C636.543 358.455 634.73 357.991 633.205 357.062C631.69 356.125 630.521 354.818 629.697 353.142C628.882 351.456 628.475 349.496 628.475 347.261C628.475 345.027 628.882 343.057 629.697 341.352C630.521 339.638 631.666 338.303 633.134 337.347C634.612 336.381 636.335 335.898 638.305 335.898C639.441 335.898 640.563 336.087 641.671 336.466C642.779 336.845 643.788 337.46 644.697 338.312C645.606 339.155 646.33 340.273 646.87 341.665C647.41 343.057 647.68 344.771 647.68 346.807V348.227H630.862V345.33H644.271C644.271 344.098 644.024 343 643.532 342.034C643.049 341.068 642.358 340.306 641.458 339.747C640.568 339.188 639.517 338.909 638.305 338.909C636.969 338.909 635.814 339.241 634.839 339.903C633.873 340.557 633.129 341.409 632.609 342.46C632.088 343.511 631.827 344.638 631.827 345.841V347.773C631.827 349.42 632.112 350.817 632.68 351.963C633.257 353.099 634.058 353.966 635.08 354.562C636.103 355.15 637.291 355.443 638.646 355.443C639.526 355.443 640.322 355.32 641.032 355.074C641.752 354.818 642.372 354.439 642.893 353.938C643.414 353.426 643.816 352.792 644.1 352.034L647.339 352.943C646.998 354.042 646.425 355.008 645.62 355.841C644.815 356.665 643.821 357.309 642.637 357.773C641.453 358.227 640.123 358.455 638.646 358.455ZM652.779 358V336.182H656.018V339.591H656.302C656.756 338.426 657.49 337.522 658.504 336.878C659.517 336.224 660.734 335.898 662.154 335.898C663.594 335.898 664.791 336.224 665.748 336.878C666.714 337.522 667.467 338.426 668.006 339.591H668.234C668.792 338.464 669.63 337.569 670.748 336.906C671.865 336.234 673.205 335.898 674.768 335.898C676.719 335.898 678.314 336.509 679.555 337.73C680.795 338.942 681.415 340.831 681.415 343.398V358H678.063V343.398C678.063 341.788 677.623 340.637 676.742 339.946C675.862 339.255 674.825 338.909 673.631 338.909C672.097 338.909 670.909 339.373 670.066 340.301C669.223 341.22 668.802 342.384 668.802 343.795V358H665.393V343.057C665.393 341.816 664.99 340.817 664.185 340.06C663.38 339.293 662.344 338.909 661.075 338.909C660.203 338.909 659.389 339.141 658.631 339.605C657.883 340.069 657.277 340.713 656.813 341.537C656.359 342.351 656.131 343.294 656.131 344.364V358H652.779ZM696.408 358.455C694.439 358.455 692.71 357.986 691.224 357.048C689.746 356.111 688.591 354.799 687.758 353.114C686.934 351.428 686.522 349.458 686.522 347.205C686.522 344.932 686.934 342.948 687.758 341.253C688.591 339.558 689.746 338.241 691.224 337.304C692.71 336.366 694.439 335.898 696.408 335.898C698.378 335.898 700.102 336.366 701.579 337.304C703.066 338.241 704.221 339.558 705.045 341.253C705.878 342.948 706.295 344.932 706.295 347.205C706.295 349.458 705.878 351.428 705.045 353.114C704.221 354.799 703.066 356.111 701.579 357.048C700.102 357.986 698.378 358.455 696.408 358.455ZM696.408 355.443C697.905 355.443 699.136 355.06 700.102 354.293C701.067 353.526 701.782 352.517 702.246 351.267C702.71 350.017 702.942 348.663 702.942 347.205C702.942 345.746 702.71 344.387 702.246 343.128C701.782 341.868 701.067 340.85 700.102 340.074C699.136 339.297 697.905 338.909 696.408 338.909C694.912 338.909 693.681 339.297 692.715 340.074C691.749 340.85 691.034 341.868 690.57 343.128C690.106 344.387 689.874 345.746 689.874 347.205C689.874 348.663 690.106 350.017 690.57 351.267C691.034 352.517 691.749 353.526 692.715 354.293C693.681 355.06 694.912 355.443 696.408 355.443ZM711.412 358V336.182H714.651V339.477H714.878C715.276 338.398 715.995 337.522 717.037 336.849C718.079 336.177 719.253 335.841 720.56 335.841C720.806 335.841 721.114 335.846 721.483 335.855C721.852 335.865 722.132 335.879 722.321 335.898V339.307C722.207 339.278 721.947 339.236 721.54 339.179C721.142 339.113 720.721 339.08 720.276 339.08C719.215 339.08 718.268 339.302 717.435 339.747C716.611 340.183 715.957 340.789 715.474 341.565C715.001 342.332 714.764 343.208 714.764 344.193V358H711.412ZM729.118 366.182C728.55 366.182 728.043 366.134 727.598 366.04C727.153 365.955 726.845 365.869 726.675 365.784L727.527 362.83C728.341 363.038 729.061 363.114 729.686 363.057C730.311 363 730.865 362.721 731.348 362.219C731.84 361.726 732.29 360.926 732.697 359.818L733.322 358.114L725.254 336.182H728.891L734.913 353.568H735.141L741.163 336.182H744.8L735.538 361.182C735.122 362.309 734.606 363.241 733.99 363.98C733.375 364.728 732.66 365.282 731.845 365.642C731.04 366.002 730.131 366.182 729.118 366.182Z" fill="white"/>
<path d="M594.366 647.909H598.571L608.457 672.057H608.798L618.685 647.909H622.889V677H619.594V654.898H619.31L610.219 677H607.037L597.946 654.898H597.662V677H594.366V647.909ZM638.646 677.455C636.543 677.455 634.73 676.991 633.205 676.062C631.69 675.125 630.521 673.818 629.697 672.142C628.882 670.456 628.475 668.496 628.475 666.261C628.475 664.027 628.882 662.057 629.697 660.352C630.521 658.638 631.666 657.303 633.134 656.347C634.612 655.381 636.335 654.898 638.305 654.898C639.441 654.898 640.563 655.087 641.671 655.466C642.779 655.845 643.788 656.46 644.697 657.312C645.606 658.155 646.33 659.273 646.87 660.665C647.41 662.057 647.68 663.771 647.68 665.807V667.227H630.862V664.33H644.271C644.271 663.098 644.024 662 643.532 661.034C643.049 660.068 642.358 659.306 641.458 658.747C640.568 658.188 639.517 657.909 638.305 657.909C636.969 657.909 635.814 658.241 634.839 658.903C633.873 659.557 633.129 660.409 632.609 661.46C632.088 662.511 631.827 663.638 631.827 664.841V666.773C631.827 668.42 632.112 669.817 632.68 670.963C633.257 672.099 634.058 672.966 635.08 673.562C636.103 674.15 637.291 674.443 638.646 674.443C639.526 674.443 640.322 674.32 641.032 674.074C641.752 673.818 642.372 673.439 642.893 672.938C643.414 672.426 643.816 671.792 644.1 671.034L647.339 671.943C646.998 673.042 646.425 674.008 645.62 674.841C644.815 675.665 643.821 676.309 642.637 676.773C641.453 677.227 640.123 677.455 638.646 677.455ZM652.779 677V655.182H656.018V658.591H656.302C656.756 657.426 657.49 656.522 658.504 655.878C659.517 655.224 660.734 654.898 662.154 654.898C663.594 654.898 664.791 655.224 665.748 655.878C666.714 656.522 667.467 657.426 668.006 658.591H668.234C668.792 657.464 669.63 656.569 670.748 655.906C671.865 655.234 673.205 654.898 674.768 654.898C676.719 654.898 678.314 655.509 679.555 656.73C680.795 657.942 681.415 659.831 681.415 662.398V677H678.063V662.398C678.063 660.788 677.623 659.637 676.742 658.946C675.862 658.255 674.825 657.909 673.631 657.909C672.097 657.909 670.909 658.373 670.066 659.301C669.223 660.22 668.802 661.384 668.802 662.795V677H665.393V662.057C665.393 660.816 664.99 659.817 664.185 659.06C663.38 658.293 662.344 657.909 661.075 657.909C660.203 657.909 659.389 658.141 658.631 658.605C657.883 659.069 657.277 659.713 656.813 660.537C656.359 661.351 656.131 662.294 656.131 663.364V677H652.779ZM696.408 677.455C694.439 677.455 692.71 676.986 691.224 676.048C689.746 675.111 688.591 673.799 687.758 672.114C686.934 670.428 686.522 668.458 686.522 666.205C686.522 663.932 686.934 661.948 687.758 660.253C688.591 658.558 689.746 657.241 691.224 656.304C692.71 655.366 694.439 654.898 696.408 654.898C698.378 654.898 700.102 655.366 701.579 656.304C703.066 657.241 704.221 658.558 705.045 660.253C705.878 661.948 706.295 663.932 706.295 666.205C706.295 668.458 705.878 670.428 705.045 672.114C704.221 673.799 703.066 675.111 701.579 676.048C700.102 676.986 698.378 677.455 696.408 677.455ZM696.408 674.443C697.905 674.443 699.136 674.06 700.102 673.293C701.067 672.526 701.782 671.517 702.246 670.267C702.71 669.017 702.942 667.663 702.942 666.205C702.942 664.746 702.71 663.387 702.246 662.128C701.782 660.868 701.067 659.85 700.102 659.074C699.136 658.297 697.905 657.909 696.408 657.909C694.912 657.909 693.681 658.297 692.715 659.074C691.749 659.85 691.034 660.868 690.57 662.128C690.106 663.387 689.874 664.746 689.874 666.205C689.874 667.663 690.106 669.017 690.57 670.267C691.034 671.517 691.749 672.526 692.715 673.293C693.681 674.06 694.912 674.443 696.408 674.443ZM711.412 677V655.182H714.651V658.477H714.878C715.276 657.398 715.995 656.522 717.037 655.849C718.079 655.177 719.253 654.841 720.56 654.841C720.806 654.841 721.114 654.846 721.483 654.855C721.852 654.865 722.132 654.879 722.321 654.898V658.307C722.207 658.278 721.947 658.236 721.54 658.179C721.142 658.113 720.721 658.08 720.276 658.08C719.215 658.08 718.268 658.302 717.435 658.747C716.611 659.183 715.957 659.789 715.474 660.565C715.001 661.332 714.764 662.208 714.764 663.193V677H711.412ZM729.118 685.182C728.55 685.182 728.043 685.134 727.598 685.04C727.153 684.955 726.845 684.869 726.675 684.784L727.527 681.83C728.341 682.038 729.061 682.114 729.686 682.057C730.311 682 730.865 681.721 731.348 681.219C731.84 680.726 732.29 679.926 732.697 678.818L733.322 677.114L725.254 655.182H728.891L734.913 672.568H735.141L741.163 655.182H744.8L735.538 680.182C735.122 681.309 734.606 682.241 733.99 682.98C733.375 683.728 732.66 684.282 731.845 684.642C731.04 685.002 730.131 685.182 729.118 685.182Z" fill="white"/>
</svg>
