<svg width="841" height="414" viewBox="0 0 841 414" fill="none" xmlns="http://www.w3.org/2000/svg">
<rect x="602" y="113" width="120" height="120" fill="#00577C"/>
<path d="M0 140C0 125.088 12.0883 113 27 113H482V233H27C12.0883 233 0 220.912 0 206V140Z" fill="#202020"/>
<rect x="1" y="113" width="839" height="120" rx="26" stroke="#DBDBDB" stroke-width="2"/>
<rect x="119" y="293" width="119" height="120" rx="26" stroke="#009966" stroke-width="2"/>
<rect x="318" y="293" width="119" height="120" rx="26" stroke="#009966" stroke-width="2"/>
<line x1="121" y1="112" x2="121" y2="234" stroke="#DBDBDB" stroke-width="2"/>
<line x1="241" y1="112" x2="241" y2="234" stroke="#DBDBDB" stroke-width="2"/>
<line x1="362" y1="112" x2="362" y2="234" stroke="#DBDBDB" stroke-width="2"/>
<line x1="482" y1="112" x2="482" y2="234" stroke="#DBDBDB" stroke-width="2"/>
<line x1="602" y1="112" x2="602" y2="234" stroke="#DBDBDB" stroke-width="2"/>
<line x1="722" y1="112" x2="722" y2="234" stroke="#DBDBDB" stroke-width="2"/>
<path d="M19.8509 184H16.8963L25.4418 160.727H28.3509L36.8963 184H33.9418L26.9872 164.409H26.8054L19.8509 184ZM20.9418 174.909H32.8509V177.409H20.9418V174.909ZM40.1577 190.545V166.545H42.7486V169.318H43.0668C43.2637 169.015 43.5365 168.629 43.8849 168.159C44.241 167.682 44.7486 167.258 45.4077 166.886C46.0743 166.508 46.9759 166.318 48.1122 166.318C49.5819 166.318 50.8774 166.686 51.9986 167.42C53.1198 168.155 53.9948 169.197 54.6236 170.545C55.2524 171.894 55.5668 173.485 55.5668 175.318C55.5668 177.167 55.2524 178.769 54.6236 180.125C53.9948 181.473 53.1236 182.519 52.0099 183.261C50.8963 183.996 49.6122 184.364 48.1577 184.364C47.0365 184.364 46.1387 184.178 45.4645 183.807C44.7902 183.428 44.2713 183 43.9077 182.523C43.544 182.038 43.2637 181.636 43.0668 181.318H42.8395V190.545H40.1577ZM42.794 175.273C42.794 176.591 42.9872 177.754 43.3736 178.761C43.7599 179.761 44.3243 180.545 45.0668 181.114C45.8092 181.674 46.7183 181.955 47.794 181.955C48.9152 181.955 49.8509 181.659 50.6009 181.068C51.3584 180.47 51.9266 179.667 52.3054 178.659C52.6918 177.644 52.8849 176.515 52.8849 175.273C52.8849 174.045 52.6955 172.939 52.3168 171.955C51.9455 170.962 51.3812 170.178 50.6236 169.602C49.8736 169.019 48.9304 168.727 47.794 168.727C46.7031 168.727 45.7865 169.004 45.044 169.557C44.3016 170.102 43.741 170.867 43.3622 171.852C42.9834 172.83 42.794 173.97 42.794 175.273ZM59.6577 190.545V166.545H62.2486V169.318H62.5668C62.7637 169.015 63.0365 168.629 63.3849 168.159C63.741 167.682 64.2486 167.258 64.9077 166.886C65.5743 166.508 66.4759 166.318 67.6122 166.318C69.0819 166.318 70.3774 166.686 71.4986 167.42C72.6198 168.155 73.4948 169.197 74.1236 170.545C74.7524 171.894 75.0668 173.485 75.0668 175.318C75.0668 177.167 74.7524 178.769 74.1236 180.125C73.4948 181.473 72.6236 182.519 71.5099 183.261C70.3963 183.996 69.1122 184.364 67.6577 184.364C66.5365 184.364 65.6387 184.178 64.9645 183.807C64.2902 183.428 63.7713 183 63.4077 182.523C63.044 182.038 62.7637 181.636 62.5668 181.318H62.3395V190.545H59.6577ZM62.294 175.273C62.294 176.591 62.4872 177.754 62.8736 178.761C63.2599 179.761 63.8243 180.545 64.5668 181.114C65.3092 181.674 66.2183 181.955 67.294 181.955C68.4152 181.955 69.3509 181.659 70.1009 181.068C70.8584 180.47 71.4266 179.667 71.8054 178.659C72.1918 177.644 72.3849 176.515 72.3849 175.273C72.3849 174.045 72.1955 172.939 71.8168 171.955C71.4455 170.962 70.8812 170.178 70.1236 169.602C69.3736 169.019 68.4304 168.727 67.294 168.727C66.2031 168.727 65.2865 169.004 64.544 169.557C63.8016 170.102 63.241 170.867 62.8622 171.852C62.4834 172.83 62.294 173.97 62.294 175.273ZM81.8395 160.727V184H79.1577V160.727H81.8395ZM94.0696 184.364C92.3878 184.364 90.937 183.992 89.7173 183.25C88.5052 182.5 87.5696 181.455 86.9105 180.114C86.259 178.765 85.9332 177.197 85.9332 175.409C85.9332 173.621 86.259 172.045 86.9105 170.682C87.5696 169.311 88.4863 168.242 89.6605 167.477C90.8423 166.705 92.2211 166.318 93.7969 166.318C94.706 166.318 95.6037 166.47 96.4901 166.773C97.3764 167.076 98.1832 167.568 98.9105 168.25C99.6378 168.924 100.217 169.818 100.649 170.932C101.081 172.045 101.297 173.417 101.297 175.045V176.182H87.8423V173.864H98.5696C98.5696 172.879 98.3726 172 97.9787 171.227C97.5923 170.455 97.0393 169.845 96.3196 169.398C95.6075 168.951 94.7666 168.727 93.7969 168.727C92.7287 168.727 91.8045 168.992 91.0241 169.523C90.2514 170.045 89.6567 170.727 89.2401 171.568C88.8234 172.409 88.6151 173.311 88.6151 174.273V175.818C88.6151 177.136 88.8423 178.254 89.2969 179.17C89.759 180.08 90.3991 180.773 91.2173 181.25C92.0355 181.72 92.9863 181.955 94.0696 181.955C94.7741 181.955 95.4105 181.856 95.9787 181.659C96.5545 181.455 97.0507 181.152 97.4673 180.75C97.884 180.341 98.206 179.833 98.4332 179.227L101.024 179.955C100.751 180.833 100.293 181.606 99.6491 182.273C99.0052 182.932 98.2098 183.447 97.2628 183.818C96.3158 184.182 95.2514 184.364 94.0696 184.364Z" fill="#727272"/>
<path d="M511.068 31V7.72727H513.886V28.5H524.705V31H511.068ZM535.795 31.3636C534.22 31.3636 532.837 30.9886 531.648 30.2386C530.466 29.4886 529.542 28.4394 528.875 27.0909C528.216 25.7424 527.886 24.1667 527.886 22.3636C527.886 20.5455 528.216 18.9583 528.875 17.6023C529.542 16.2462 530.466 15.1932 531.648 14.4432C532.837 13.6932 534.22 13.3182 535.795 13.3182C537.371 13.3182 538.75 13.6932 539.932 14.4432C541.121 15.1932 542.045 16.2462 542.705 17.6023C543.371 18.9583 543.705 20.5455 543.705 22.3636C543.705 24.1667 543.371 25.7424 542.705 27.0909C542.045 28.4394 541.121 29.4886 539.932 30.2386C538.75 30.9886 537.371 31.3636 535.795 31.3636ZM535.795 28.9545C536.992 28.9545 537.977 28.6477 538.75 28.0341C539.523 27.4205 540.095 26.6136 540.466 25.6136C540.837 24.6136 541.023 23.5303 541.023 22.3636C541.023 21.197 540.837 20.1098 540.466 19.1023C540.095 18.0947 539.523 17.2803 538.75 16.6591C537.977 16.0379 536.992 15.7273 535.795 15.7273C534.598 15.7273 533.614 16.0379 532.841 16.6591C532.068 17.2803 531.496 18.0947 531.125 19.1023C530.754 20.1098 530.568 21.197 530.568 22.3636C530.568 23.5303 530.754 24.6136 531.125 25.6136C531.496 26.6136 532.068 27.4205 532.841 28.0341C533.614 28.6477 534.598 28.9545 535.795 28.9545ZM551.159 31L545.841 13.5455H548.659L552.432 26.9091H552.614L556.341 13.5455H559.205L562.886 26.8636H563.068L566.841 13.5455H569.659L564.341 31H561.705L557.886 17.5909H557.614L553.795 31H551.159Z" fill="#727272"/>
<path d="M62.6534 63.7273V87H59.8352V66.6818H59.6989L54.017 70.4545V67.5909L59.8352 63.7273H62.6534Z" fill="#727272"/>
<path d="M172.222 87V84.9545L179.903 76.5455C180.805 75.5606 181.547 74.7045 182.131 73.9773C182.714 73.2424 183.146 72.553 183.426 71.9091C183.714 71.2576 183.858 70.5758 183.858 69.8636C183.858 69.0455 183.661 68.3371 183.267 67.7386C182.881 67.1402 182.35 66.678 181.676 66.3523C181.002 66.0265 180.244 65.8636 179.403 65.8636C178.509 65.8636 177.729 66.0492 177.062 66.4205C176.403 66.7841 175.892 67.2955 175.528 67.9545C175.172 68.6136 174.994 69.3864 174.994 70.2727H172.312C172.312 68.9091 172.627 67.7121 173.256 66.6818C173.884 65.6515 174.741 64.8485 175.824 64.2727C176.915 63.697 178.138 63.4091 179.494 63.4091C180.858 63.4091 182.066 63.697 183.119 64.2727C184.172 64.8485 184.998 65.625 185.597 66.6023C186.195 67.5795 186.494 68.6667 186.494 69.8636C186.494 70.7197 186.339 71.5568 186.028 72.375C185.725 73.1856 185.195 74.0909 184.438 75.0909C183.688 76.0833 182.646 77.2955 181.312 78.7273L176.085 84.3182V84.5H186.903V87H172.222Z" fill="#727272"/>
<path d="M299.585 87.3182C298.085 87.3182 296.748 87.0606 295.574 86.5455C294.407 86.0303 293.479 85.3144 292.79 84.3977C292.108 83.4735 291.737 82.4015 291.676 81.1818H294.54C294.6 81.9318 294.858 82.5795 295.312 83.125C295.767 83.6629 296.362 84.0795 297.097 84.375C297.831 84.6705 298.646 84.8182 299.54 84.8182C300.54 84.8182 301.426 84.6439 302.199 84.2955C302.972 83.947 303.578 83.4621 304.017 82.8409C304.456 82.2197 304.676 81.5 304.676 80.6818C304.676 79.8258 304.464 79.072 304.04 78.4205C303.616 77.7614 302.994 77.2462 302.176 76.875C301.358 76.5038 300.358 76.3182 299.176 76.3182H297.312V73.8182H299.176C300.1 73.8182 300.911 73.6515 301.608 73.3182C302.313 72.9848 302.862 72.5152 303.256 71.9091C303.657 71.303 303.858 70.5909 303.858 69.7727C303.858 68.9848 303.684 68.2992 303.335 67.7159C302.987 67.1326 302.494 66.678 301.858 66.3523C301.229 66.0265 300.487 65.8636 299.631 65.8636C298.828 65.8636 298.07 66.0114 297.358 66.3068C296.653 66.5947 296.078 67.0152 295.631 67.5682C295.184 68.1136 294.941 68.7727 294.903 69.5455H292.176C292.222 68.3258 292.589 67.2576 293.278 66.3409C293.968 65.4167 294.869 64.697 295.983 64.1818C297.104 63.6667 298.335 63.4091 299.676 63.4091C301.116 63.4091 302.35 63.7008 303.381 64.2841C304.411 64.8598 305.203 65.6212 305.756 66.5682C306.309 67.5152 306.585 68.5379 306.585 69.6364C306.585 70.947 306.241 72.0644 305.551 72.9886C304.869 73.9129 303.941 74.553 302.767 74.9091V75.0909C304.237 75.3333 305.384 75.9583 306.21 76.9659C307.036 77.9659 307.449 79.2045 307.449 80.6818C307.449 81.947 307.104 83.0833 306.415 84.0909C305.733 85.0909 304.801 85.8788 303.619 86.4545C302.438 87.0303 301.093 87.3182 299.585 87.3182Z" fill="#727272"/>
<path d="M411.098 82.2273V79.9091L421.325 63.7273H423.007V67.3182H421.871L414.143 79.5455V79.7273H427.916V82.2273H411.098ZM422.053 87V81.5227V80.4432V63.7273H424.734V87H422.053Z" fill="#727272"/>
<path d="M539.447 87.3182C538.114 87.3182 536.913 87.053 535.845 86.5227C534.777 85.9924 533.921 85.2652 533.277 84.3409C532.633 83.4167 532.281 82.3636 532.22 81.1818H534.947C535.054 82.2348 535.531 83.1061 536.379 83.7955C537.235 84.4773 538.258 84.8182 539.447 84.8182C540.402 84.8182 541.25 84.5947 541.993 84.1477C542.743 83.7008 543.33 83.0871 543.754 82.3068C544.186 81.5189 544.402 80.6288 544.402 79.6364C544.402 78.6212 544.179 77.7159 543.732 76.9205C543.292 76.1174 542.686 75.4848 541.913 75.0227C541.141 74.5606 540.258 74.3258 539.266 74.3182C538.554 74.3106 537.822 74.4205 537.072 74.6477C536.322 74.8674 535.705 75.1515 535.22 75.5L532.584 75.1818L533.993 63.7273H546.084V66.2273H536.357L535.538 73.0909H535.675C536.152 72.7121 536.75 72.3977 537.47 72.1477C538.19 71.8977 538.94 71.7727 539.72 71.7727C541.144 71.7727 542.413 72.1136 543.527 72.7955C544.648 73.4697 545.527 74.3939 546.163 75.5682C546.807 76.7424 547.129 78.0833 547.129 79.5909C547.129 81.0758 546.796 82.4015 546.129 83.5682C545.47 84.7273 544.561 85.6439 543.402 86.3182C542.243 86.9848 540.925 87.3182 539.447 87.3182Z" fill="#727272"/>
<path d="M659.652 87.3182C658.697 87.303 657.743 87.1212 656.788 86.7727C655.834 86.4242 654.963 85.8371 654.175 85.0114C653.387 84.178 652.754 83.053 652.277 81.6364C651.8 80.2121 651.561 78.4242 651.561 76.2727C651.561 74.2121 651.754 72.3864 652.141 70.7955C652.527 69.197 653.088 67.8523 653.822 66.7614C654.557 65.6629 655.444 64.8295 656.482 64.2614C657.527 63.6932 658.705 63.4091 660.016 63.4091C661.319 63.4091 662.478 63.6705 663.493 64.1932C664.516 64.7083 665.349 65.428 665.993 66.3523C666.637 67.2765 667.054 68.3409 667.243 69.5455H664.47C664.213 68.5 663.713 67.6326 662.97 66.9432C662.228 66.2538 661.243 65.9091 660.016 65.9091C658.213 65.9091 656.792 66.6932 655.754 68.2614C654.724 69.8295 654.205 72.0303 654.197 74.8636H654.379C654.804 74.2197 655.307 73.6705 655.891 73.2159C656.482 72.7538 657.133 72.3977 657.845 72.1477C658.557 71.8977 659.311 71.7727 660.107 71.7727C661.44 71.7727 662.66 72.1061 663.766 72.7727C664.872 73.4318 665.758 74.3447 666.425 75.5114C667.091 76.6705 667.425 78 667.425 79.5C667.425 80.9394 667.103 82.2576 666.459 83.4545C665.815 84.6439 664.91 85.5909 663.743 86.2955C662.584 86.9924 661.22 87.3333 659.652 87.3182ZM659.652 84.8182C660.607 84.8182 661.463 84.5795 662.22 84.1023C662.985 83.625 663.588 82.9848 664.027 82.1818C664.474 81.3788 664.697 80.4848 664.697 79.5C664.697 78.5379 664.482 77.6629 664.05 76.875C663.625 76.0795 663.038 75.447 662.288 74.9773C661.546 74.5076 660.697 74.2727 659.743 74.2727C659.023 74.2727 658.353 74.4167 657.732 74.7045C657.11 74.9848 656.565 75.3712 656.095 75.8636C655.633 76.3561 655.269 76.9205 655.004 77.5568C654.739 78.1856 654.607 78.8485 654.607 79.5455C654.607 80.4697 654.822 81.3333 655.254 82.1364C655.694 82.9394 656.292 83.5871 657.05 84.0795C657.815 84.572 658.682 84.8182 659.652 84.8182Z" fill="#727272"/>
<path d="M747.474 31V7.72727H750.293V18.0909H762.702V7.72727H765.52V31H762.702V20.5909H750.293V31H747.474ZM770.798 31V13.5455H773.48V31H770.798ZM772.162 10.6364C771.639 10.6364 771.188 10.4583 770.81 10.1023C770.438 9.74621 770.253 9.31818 770.253 8.81818C770.253 8.31818 770.438 7.89015 770.81 7.53409C771.188 7.17803 771.639 7 772.162 7C772.685 7 773.132 7.17803 773.503 7.53409C773.882 7.89015 774.071 8.31818 774.071 8.81818C774.071 9.31818 773.882 9.74621 773.503 10.1023C773.132 10.4583 772.685 10.6364 772.162 10.6364ZM785.438 37.9091C784.142 37.9091 783.028 37.7424 782.097 37.4091C781.165 37.0833 780.388 36.6515 779.767 36.1136C779.153 35.5833 778.665 35.0152 778.301 34.4091L780.438 32.9091C780.68 33.2273 780.987 33.5909 781.358 34C781.729 34.4167 782.237 34.7765 782.881 35.0795C783.532 35.3902 784.384 35.5455 785.438 35.5455C786.847 35.5455 788.009 35.2045 788.926 34.5227C789.843 33.8409 790.301 32.7727 790.301 31.3182V27.7727H790.074C789.877 28.0909 789.597 28.4848 789.233 28.9545C788.877 29.4167 788.362 29.8295 787.688 30.1932C787.021 30.5492 786.119 30.7273 784.983 30.7273C783.574 30.7273 782.309 30.3939 781.188 29.7273C780.074 29.0606 779.191 28.0909 778.54 26.8182C777.896 25.5455 777.574 24 777.574 22.1818C777.574 20.3939 777.888 18.8371 778.517 17.5114C779.146 16.178 780.021 15.1477 781.142 14.4205C782.263 13.6856 783.559 13.3182 785.028 13.3182C786.165 13.3182 787.066 13.5076 787.733 13.8864C788.407 14.2576 788.922 14.6818 789.278 15.1591C789.642 15.6288 789.922 16.0152 790.119 16.3182H790.392V13.5455H792.983V31.5C792.983 33 792.642 34.2197 791.96 35.1591C791.286 36.1061 790.377 36.7992 789.233 37.2386C788.097 37.6856 786.831 37.9091 785.438 37.9091ZM785.347 28.3182C786.422 28.3182 787.331 28.072 788.074 27.5795C788.816 27.0871 789.381 26.3788 789.767 25.4545C790.153 24.5303 790.347 23.4242 790.347 22.1364C790.347 20.8788 790.157 19.7689 789.778 18.8068C789.4 17.8447 788.839 17.0909 788.097 16.5455C787.354 16 786.438 15.7273 785.347 15.7273C784.21 15.7273 783.263 16.0152 782.506 16.5909C781.756 17.1667 781.191 17.9394 780.812 18.9091C780.441 19.8788 780.256 20.9545 780.256 22.1364C780.256 23.3485 780.445 24.4205 780.824 25.3523C781.21 26.2765 781.778 27.0038 782.528 27.5341C783.286 28.0568 784.225 28.3182 785.347 28.3182ZM800.574 20.5V31H797.892V7.72727H800.574V16.2727H800.801C801.21 15.3712 801.824 14.6553 802.642 14.125C803.468 13.5871 804.566 13.3182 805.938 13.3182C807.127 13.3182 808.169 13.5568 809.062 14.0341C809.956 14.5038 810.65 15.2273 811.142 16.2045C811.642 17.1742 811.892 18.4091 811.892 19.9091V31H809.21V20.0909C809.21 18.7045 808.85 17.6326 808.131 16.875C807.419 16.1098 806.43 15.7273 805.165 15.7273C804.286 15.7273 803.498 15.9129 802.801 16.2841C802.112 16.6553 801.566 17.197 801.165 17.9091C800.771 18.6212 800.574 19.4848 800.574 20.5Z" fill="#727272"/>
<path d="M773.496 87L783.905 66.4091V66.2273H771.905V63.7273H786.814V66.3636L776.45 87H773.496Z" fill="#727272"/>
<path d="M155.303 184V160.727H163.439C165.06 160.727 166.397 161.008 167.45 161.568C168.503 162.121 169.287 162.867 169.803 163.807C170.318 164.739 170.575 165.773 170.575 166.909C170.575 167.909 170.397 168.735 170.041 169.386C169.693 170.038 169.231 170.553 168.655 170.932C168.087 171.311 167.469 171.591 166.803 171.773V172C167.515 172.045 168.231 172.295 168.95 172.75C169.67 173.205 170.272 173.856 170.757 174.705C171.242 175.553 171.484 176.591 171.484 177.818C171.484 178.985 171.219 180.034 170.689 180.966C170.159 181.898 169.321 182.636 168.178 183.182C167.034 183.727 165.545 184 163.712 184H155.303ZM158.121 181.5H163.712C165.553 181.5 166.859 181.144 167.632 180.432C168.412 179.712 168.803 178.841 168.803 177.818C168.803 177.03 168.602 176.303 168.2 175.636C167.799 174.962 167.227 174.424 166.484 174.023C165.742 173.614 164.863 173.409 163.848 173.409H158.121V181.5ZM158.121 170.955H163.348C164.196 170.955 164.962 170.788 165.643 170.455C166.333 170.121 166.878 169.652 167.28 169.045C167.689 168.439 167.893 167.727 167.893 166.909C167.893 165.886 167.537 165.019 166.825 164.307C166.113 163.587 164.984 163.227 163.439 163.227H158.121V170.955ZM180.888 184.409C179.782 184.409 178.778 184.201 177.876 183.784C176.975 183.36 176.259 182.75 175.729 181.955C175.198 181.152 174.933 180.182 174.933 179.045C174.933 178.045 175.13 177.235 175.524 176.614C175.918 175.985 176.445 175.492 177.104 175.136C177.763 174.78 178.49 174.515 179.286 174.341C180.089 174.159 180.895 174.015 181.706 173.909C182.767 173.773 183.626 173.67 184.286 173.602C184.952 173.527 185.437 173.402 185.74 173.227C186.051 173.053 186.206 172.75 186.206 172.318V172.227C186.206 171.106 185.899 170.235 185.286 169.614C184.679 168.992 183.759 168.682 182.524 168.682C181.244 168.682 180.24 168.962 179.513 169.523C178.786 170.083 178.274 170.682 177.979 171.318L175.433 170.409C175.888 169.348 176.494 168.523 177.251 167.932C178.017 167.333 178.85 166.917 179.751 166.682C180.661 166.439 181.554 166.318 182.433 166.318C182.994 166.318 183.638 166.386 184.365 166.523C185.1 166.652 185.808 166.92 186.49 167.33C187.179 167.739 187.751 168.356 188.206 169.182C188.661 170.008 188.888 171.114 188.888 172.5V184H186.206V181.636H186.07C185.888 182.015 185.585 182.42 185.161 182.852C184.736 183.284 184.172 183.652 183.467 183.955C182.763 184.258 181.903 184.409 180.888 184.409ZM181.297 182C182.357 182 183.251 181.792 183.979 181.375C184.714 180.958 185.267 180.42 185.638 179.761C186.017 179.102 186.206 178.409 186.206 177.682V175.227C186.092 175.364 185.842 175.489 185.456 175.602C185.077 175.708 184.638 175.803 184.138 175.886C183.645 175.962 183.164 176.03 182.695 176.091C182.232 176.144 181.857 176.189 181.57 176.227C180.873 176.318 180.221 176.466 179.615 176.67C179.017 176.867 178.532 177.167 178.161 177.568C177.797 177.962 177.615 178.5 177.615 179.182C177.615 180.114 177.96 180.818 178.649 181.295C179.346 181.765 180.229 182 181.297 182ZM196.464 160.727V184H193.783V160.727H196.464ZM204.058 160.727V184H201.376V160.727H204.058Z" fill="#727272"/>
<path d="M285.03 168H282.212C282.045 167.189 281.753 166.477 281.337 165.864C280.928 165.25 280.428 164.735 279.837 164.318C279.253 163.894 278.606 163.576 277.893 163.364C277.181 163.152 276.439 163.045 275.666 163.045C274.257 163.045 272.981 163.402 271.837 164.114C270.7 164.826 269.795 165.875 269.121 167.261C268.454 168.648 268.121 170.348 268.121 172.364C268.121 174.379 268.454 176.08 269.121 177.466C269.795 178.852 270.7 179.902 271.837 180.614C272.981 181.326 274.257 181.682 275.666 181.682C276.439 181.682 277.181 181.576 277.893 181.364C278.606 181.152 279.253 180.837 279.837 180.42C280.428 179.996 280.928 179.477 281.337 178.864C281.753 178.242 282.045 177.53 282.212 176.727H285.03C284.818 177.917 284.431 178.981 283.871 179.92C283.31 180.86 282.613 181.659 281.78 182.318C280.946 182.97 280.011 183.466 278.973 183.807C277.943 184.148 276.84 184.318 275.666 184.318C273.681 184.318 271.916 183.833 270.371 182.864C268.825 181.894 267.609 180.515 266.723 178.727C265.837 176.939 265.393 174.818 265.393 172.364C265.393 169.909 265.837 167.788 266.723 166C267.609 164.212 268.825 162.833 270.371 161.864C271.916 160.894 273.681 160.409 275.666 160.409C276.84 160.409 277.943 160.58 278.973 160.92C280.011 161.261 280.946 161.761 281.78 162.42C282.613 163.072 283.31 163.867 283.871 164.807C284.431 165.739 284.818 166.803 285.03 168ZM296.311 184.364C294.735 184.364 293.353 183.989 292.163 183.239C290.982 182.489 290.057 181.439 289.391 180.091C288.732 178.742 288.402 177.167 288.402 175.364C288.402 173.545 288.732 171.958 289.391 170.602C290.057 169.246 290.982 168.193 292.163 167.443C293.353 166.693 294.735 166.318 296.311 166.318C297.887 166.318 299.266 166.693 300.447 167.443C301.637 168.193 302.561 169.246 303.22 170.602C303.887 171.958 304.22 173.545 304.22 175.364C304.22 177.167 303.887 178.742 303.22 180.091C302.561 181.439 301.637 182.489 300.447 183.239C299.266 183.989 297.887 184.364 296.311 184.364ZM296.311 181.955C297.508 181.955 298.493 181.648 299.266 181.034C300.038 180.42 300.61 179.614 300.982 178.614C301.353 177.614 301.538 176.53 301.538 175.364C301.538 174.197 301.353 173.11 300.982 172.102C300.61 171.095 300.038 170.28 299.266 169.659C298.493 169.038 297.508 168.727 296.311 168.727C295.114 168.727 294.129 169.038 293.357 169.659C292.584 170.28 292.012 171.095 291.641 172.102C291.269 173.11 291.084 174.197 291.084 175.364C291.084 176.53 291.269 177.614 291.641 178.614C292.012 179.614 292.584 180.42 293.357 181.034C294.129 181.648 295.114 181.955 296.311 181.955ZM313.45 184.409C312.344 184.409 311.34 184.201 310.439 183.784C309.537 183.36 308.821 182.75 308.291 181.955C307.761 181.152 307.496 180.182 307.496 179.045C307.496 178.045 307.693 177.235 308.087 176.614C308.481 175.985 309.007 175.492 309.666 175.136C310.325 174.78 311.053 174.515 311.848 174.341C312.651 174.159 313.458 174.015 314.268 173.909C315.329 173.773 316.189 173.67 316.848 173.602C317.515 173.527 318 173.402 318.303 173.227C318.613 173.053 318.768 172.75 318.768 172.318V172.227C318.768 171.106 318.462 170.235 317.848 169.614C317.242 168.992 316.321 168.682 315.087 168.682C313.806 168.682 312.803 168.962 312.075 169.523C311.348 170.083 310.837 170.682 310.541 171.318L307.996 170.409C308.45 169.348 309.056 168.523 309.814 167.932C310.579 167.333 311.412 166.917 312.314 166.682C313.223 166.439 314.117 166.318 314.996 166.318C315.556 166.318 316.2 166.386 316.928 166.523C317.662 166.652 318.371 166.92 319.053 167.33C319.742 167.739 320.314 168.356 320.768 169.182C321.223 170.008 321.45 171.114 321.45 172.5V184H318.768V181.636H318.632C318.45 182.015 318.147 182.42 317.723 182.852C317.299 183.284 316.734 183.652 316.03 183.955C315.325 184.258 314.465 184.409 313.45 184.409ZM313.859 182C314.92 182 315.814 181.792 316.541 181.375C317.276 180.958 317.829 180.42 318.2 179.761C318.579 179.102 318.768 178.409 318.768 177.682V175.227C318.655 175.364 318.405 175.489 318.018 175.602C317.64 175.708 317.2 175.803 316.7 175.886C316.208 175.962 315.727 176.03 315.257 176.091C314.795 176.144 314.42 176.189 314.132 176.227C313.435 176.318 312.784 176.466 312.178 176.67C311.579 176.867 311.094 177.167 310.723 177.568C310.359 177.962 310.178 178.5 310.178 179.182C310.178 180.114 310.522 180.818 311.212 181.295C311.909 181.765 312.791 182 313.859 182ZM333.936 166.545V168.818H324.891V166.545H333.936ZM327.527 162.364H330.209V179C330.209 179.758 330.319 180.326 330.538 180.705C330.766 181.076 331.054 181.326 331.402 181.455C331.758 181.576 332.133 181.636 332.527 181.636C332.822 181.636 333.065 181.621 333.254 181.591C333.444 181.553 333.595 181.523 333.709 181.5L334.254 183.909C334.072 183.977 333.819 184.045 333.493 184.114C333.167 184.189 332.754 184.227 332.254 184.227C331.497 184.227 330.754 184.064 330.027 183.739C329.307 183.413 328.709 182.917 328.232 182.25C327.762 181.583 327.527 180.742 327.527 179.727V162.364Z" fill="#727272"/>
<path d="M391.74 184V160.727H394.558V172.273H394.831L405.286 160.727H408.967L399.195 171.227L408.967 184H405.558L397.467 173.182L394.558 176.455V184H391.74ZM413.345 184V166.545H416.027V184H413.345ZM414.709 163.636C414.186 163.636 413.735 163.458 413.357 163.102C412.985 162.746 412.8 162.318 412.8 161.818C412.8 161.318 412.985 160.89 413.357 160.534C413.735 160.178 414.186 160 414.709 160C415.232 160 415.679 160.178 416.05 160.534C416.429 160.89 416.618 161.318 416.618 161.818C416.618 162.318 416.429 162.746 416.05 163.102C415.679 163.458 415.232 163.636 414.709 163.636ZM424.893 184L419.575 166.545H422.393L426.166 179.909H426.348L430.075 166.545H432.939L436.621 179.864H436.803L440.575 166.545H443.393L438.075 184H435.439L431.621 170.591H431.348L427.53 184H424.893ZM446.939 184V166.545H449.621V184H446.939ZM448.303 163.636C447.78 163.636 447.329 163.458 446.95 163.102C446.579 162.746 446.393 162.318 446.393 161.818C446.393 161.318 446.579 160.89 446.95 160.534C447.329 160.178 447.78 160 448.303 160C448.825 160 449.272 160.178 449.643 160.534C450.022 160.89 450.212 161.318 450.212 161.818C450.212 162.318 450.022 162.746 449.643 163.102C449.272 163.458 448.825 163.636 448.303 163.636Z" fill="#727272"/>
<path d="M510.709 160.727H514.072L521.982 180.045H522.254L530.163 160.727H533.527V184H530.891V166.318H530.663L523.391 184H520.845L513.572 166.318H513.345V184H510.709V160.727ZM543.95 184.409C542.844 184.409 541.84 184.201 540.939 183.784C540.037 183.36 539.321 182.75 538.791 181.955C538.261 181.152 537.996 180.182 537.996 179.045C537.996 178.045 538.193 177.235 538.587 176.614C538.981 175.985 539.507 175.492 540.166 175.136C540.825 174.78 541.553 174.515 542.348 174.341C543.151 174.159 543.958 174.015 544.768 173.909C545.829 173.773 546.689 173.67 547.348 173.602C548.015 173.527 548.5 173.402 548.803 173.227C549.113 173.053 549.268 172.75 549.268 172.318V172.227C549.268 171.106 548.962 170.235 548.348 169.614C547.742 168.992 546.821 168.682 545.587 168.682C544.306 168.682 543.303 168.962 542.575 169.523C541.848 170.083 541.337 170.682 541.041 171.318L538.496 170.409C538.95 169.348 539.556 168.523 540.314 167.932C541.079 167.333 541.912 166.917 542.814 166.682C543.723 166.439 544.617 166.318 545.496 166.318C546.056 166.318 546.7 166.386 547.428 166.523C548.162 166.652 548.871 166.92 549.553 167.33C550.242 167.739 550.814 168.356 551.268 169.182C551.723 170.008 551.95 171.114 551.95 172.5V184H549.268V181.636H549.132C548.95 182.015 548.647 182.42 548.223 182.852C547.799 183.284 547.234 183.652 546.53 183.955C545.825 184.258 544.965 184.409 543.95 184.409ZM544.359 182C545.42 182 546.314 181.792 547.041 181.375C547.776 180.958 548.329 180.42 548.7 179.761C549.079 179.102 549.268 178.409 549.268 177.682V175.227C549.155 175.364 548.905 175.489 548.518 175.602C548.14 175.708 547.7 175.803 547.2 175.886C546.708 175.962 546.227 176.03 545.757 176.091C545.295 176.144 544.92 176.189 544.632 176.227C543.935 176.318 543.284 176.466 542.678 176.67C542.079 176.867 541.594 177.167 541.223 177.568C540.859 177.962 540.678 178.5 540.678 179.182C540.678 180.114 541.022 180.818 541.712 181.295C542.409 181.765 543.291 182 544.359 182ZM559.527 173.5V184H556.845V166.545H559.436V169.273H559.663C560.072 168.386 560.694 167.674 561.527 167.136C562.36 166.591 563.436 166.318 564.754 166.318C565.936 166.318 566.97 166.561 567.857 167.045C568.743 167.523 569.432 168.25 569.925 169.227C570.417 170.197 570.663 171.424 570.663 172.909V184H567.982V173.091C567.982 171.72 567.625 170.652 566.913 169.886C566.201 169.114 565.224 168.727 563.982 168.727C563.125 168.727 562.36 168.913 561.686 169.284C561.019 169.655 560.493 170.197 560.107 170.909C559.72 171.621 559.527 172.485 559.527 173.5Z" fill="white"/>
<path d="M140.967 343.227V340.727H158.422V343.227H151.104V364H148.286V343.227H140.967ZM162.408 364V346.545H165.089V364H162.408ZM163.771 343.636C163.249 343.636 162.798 343.458 162.419 343.102C162.048 342.746 161.862 342.318 161.862 341.818C161.862 341.318 162.048 340.89 162.419 340.534C162.798 340.178 163.249 340 163.771 340C164.294 340 164.741 340.178 165.112 340.534C165.491 340.89 165.68 341.318 165.68 341.818C165.68 342.318 165.491 342.746 165.112 343.102C164.741 343.458 164.294 343.636 163.771 343.636ZM177.047 370.909C175.751 370.909 174.638 370.742 173.706 370.409C172.774 370.083 171.998 369.652 171.376 369.114C170.763 368.583 170.274 368.015 169.911 367.409L172.047 365.909C172.289 366.227 172.596 366.591 172.967 367C173.339 367.417 173.846 367.777 174.49 368.08C175.142 368.39 175.994 368.545 177.047 368.545C178.456 368.545 179.619 368.205 180.536 367.523C181.452 366.841 181.911 365.773 181.911 364.318V360.773H181.683C181.486 361.091 181.206 361.485 180.842 361.955C180.486 362.417 179.971 362.83 179.297 363.193C178.63 363.549 177.729 363.727 176.592 363.727C175.183 363.727 173.918 363.394 172.797 362.727C171.683 362.061 170.801 361.091 170.149 359.818C169.505 358.545 169.183 357 169.183 355.182C169.183 353.394 169.498 351.837 170.126 350.511C170.755 349.178 171.63 348.148 172.751 347.42C173.873 346.686 175.168 346.318 176.638 346.318C177.774 346.318 178.676 346.508 179.342 346.886C180.017 347.258 180.532 347.682 180.888 348.159C181.251 348.629 181.532 349.015 181.729 349.318H182.001V346.545H184.592V364.5C184.592 366 184.251 367.22 183.57 368.159C182.895 369.106 181.986 369.799 180.842 370.239C179.706 370.686 178.441 370.909 177.047 370.909ZM176.956 361.318C178.032 361.318 178.941 361.072 179.683 360.58C180.426 360.087 180.99 359.379 181.376 358.455C181.763 357.53 181.956 356.424 181.956 355.136C181.956 353.879 181.767 352.769 181.388 351.807C181.009 350.845 180.448 350.091 179.706 349.545C178.964 349 178.047 348.727 176.956 348.727C175.82 348.727 174.873 349.015 174.115 349.591C173.365 350.167 172.801 350.939 172.422 351.909C172.051 352.879 171.865 353.955 171.865 355.136C171.865 356.348 172.054 357.42 172.433 358.352C172.82 359.277 173.388 360.004 174.138 360.534C174.895 361.057 175.835 361.318 176.956 361.318ZM196.82 364.364C195.138 364.364 193.687 363.992 192.467 363.25C191.255 362.5 190.32 361.455 189.661 360.114C189.009 358.765 188.683 357.197 188.683 355.409C188.683 353.621 189.009 352.045 189.661 350.682C190.32 349.311 191.236 348.242 192.411 347.477C193.592 346.705 194.971 346.318 196.547 346.318C197.456 346.318 198.354 346.47 199.24 346.773C200.126 347.076 200.933 347.568 201.661 348.25C202.388 348.924 202.967 349.818 203.399 350.932C203.831 352.045 204.047 353.417 204.047 355.045V356.182H190.592V353.864H201.32C201.32 352.879 201.123 352 200.729 351.227C200.342 350.455 199.789 349.845 199.07 349.398C198.357 348.951 197.517 348.727 196.547 348.727C195.479 348.727 194.554 348.992 193.774 349.523C193.001 350.045 192.407 350.727 191.99 351.568C191.573 352.409 191.365 353.311 191.365 354.273V355.818C191.365 357.136 191.592 358.254 192.047 359.17C192.509 360.08 193.149 360.773 193.967 361.25C194.786 361.72 195.736 361.955 196.82 361.955C197.524 361.955 198.161 361.856 198.729 361.659C199.304 361.455 199.801 361.152 200.217 360.75C200.634 360.341 200.956 359.833 201.183 359.227L203.774 359.955C203.501 360.833 203.043 361.606 202.399 362.273C201.755 362.932 200.96 363.447 200.013 363.818C199.066 364.182 198.001 364.364 196.82 364.364ZM208.126 364V346.545H210.717V349.182H210.899C211.217 348.318 211.793 347.617 212.626 347.08C213.46 346.542 214.399 346.273 215.445 346.273C215.642 346.273 215.888 346.277 216.183 346.284C216.479 346.292 216.702 346.303 216.854 346.318V349.045C216.763 349.023 216.554 348.989 216.229 348.943C215.911 348.89 215.573 348.864 215.217 348.864C214.369 348.864 213.611 349.042 212.945 349.398C212.286 349.746 211.763 350.231 211.376 350.852C210.998 351.466 210.808 352.167 210.808 352.955V364H208.126Z" fill="white"/>
<path d="M268.185 353.165V348.122H287.801V353.165H268.185ZM268.185 362.597V357.554H287.801V362.597H268.185Z" fill="white"/>
<path d="M339.967 343.227V340.727H357.422V343.227H350.104V364H347.286V343.227H339.967ZM361.408 364V346.545H364.089V364H361.408ZM362.771 343.636C362.249 343.636 361.798 343.458 361.419 343.102C361.048 342.746 360.862 342.318 360.862 341.818C360.862 341.318 361.048 340.89 361.419 340.534C361.798 340.178 362.249 340 362.771 340C363.294 340 363.741 340.178 364.112 340.534C364.491 340.89 364.68 341.318 364.68 341.818C364.68 342.318 364.491 342.746 364.112 343.102C363.741 343.458 363.294 343.636 362.771 343.636ZM376.047 370.909C374.751 370.909 373.638 370.742 372.706 370.409C371.774 370.083 370.998 369.652 370.376 369.114C369.763 368.583 369.274 368.015 368.911 367.409L371.047 365.909C371.289 366.227 371.596 366.591 371.967 367C372.339 367.417 372.846 367.777 373.49 368.08C374.142 368.39 374.994 368.545 376.047 368.545C377.456 368.545 378.619 368.205 379.536 367.523C380.452 366.841 380.911 365.773 380.911 364.318V360.773H380.683C380.486 361.091 380.206 361.485 379.842 361.955C379.486 362.417 378.971 362.83 378.297 363.193C377.63 363.549 376.729 363.727 375.592 363.727C374.183 363.727 372.918 363.394 371.797 362.727C370.683 362.061 369.801 361.091 369.149 359.818C368.505 358.545 368.183 357 368.183 355.182C368.183 353.394 368.498 351.837 369.126 350.511C369.755 349.178 370.63 348.148 371.751 347.42C372.873 346.686 374.168 346.318 375.638 346.318C376.774 346.318 377.676 346.508 378.342 346.886C379.017 347.258 379.532 347.682 379.888 348.159C380.251 348.629 380.532 349.015 380.729 349.318H381.001V346.545H383.592V364.5C383.592 366 383.251 367.22 382.57 368.159C381.895 369.106 380.986 369.799 379.842 370.239C378.706 370.686 377.441 370.909 376.047 370.909ZM375.956 361.318C377.032 361.318 377.941 361.072 378.683 360.58C379.426 360.087 379.99 359.379 380.376 358.455C380.763 357.53 380.956 356.424 380.956 355.136C380.956 353.879 380.767 352.769 380.388 351.807C380.009 350.845 379.448 350.091 378.706 349.545C377.964 349 377.047 348.727 375.956 348.727C374.82 348.727 373.873 349.015 373.115 349.591C372.365 350.167 371.801 350.939 371.422 351.909C371.051 352.879 370.865 353.955 370.865 355.136C370.865 356.348 371.054 357.42 371.433 358.352C371.82 359.277 372.388 360.004 373.138 360.534C373.895 361.057 374.835 361.318 375.956 361.318ZM395.82 364.364C394.138 364.364 392.687 363.992 391.467 363.25C390.255 362.5 389.32 361.455 388.661 360.114C388.009 358.765 387.683 357.197 387.683 355.409C387.683 353.621 388.009 352.045 388.661 350.682C389.32 349.311 390.236 348.242 391.411 347.477C392.592 346.705 393.971 346.318 395.547 346.318C396.456 346.318 397.354 346.47 398.24 346.773C399.126 347.076 399.933 347.568 400.661 348.25C401.388 348.924 401.967 349.818 402.399 350.932C402.831 352.045 403.047 353.417 403.047 355.045V356.182H389.592V353.864H400.32C400.32 352.879 400.123 352 399.729 351.227C399.342 350.455 398.789 349.845 398.07 349.398C397.357 348.951 396.517 348.727 395.547 348.727C394.479 348.727 393.554 348.992 392.774 349.523C392.001 350.045 391.407 350.727 390.99 351.568C390.573 352.409 390.365 353.311 390.365 354.273V355.818C390.365 357.136 390.592 358.254 391.047 359.17C391.509 360.08 392.149 360.773 392.967 361.25C393.786 361.72 394.736 361.955 395.82 361.955C396.524 361.955 397.161 361.856 397.729 361.659C398.304 361.455 398.801 361.152 399.217 360.75C399.634 360.341 399.956 359.833 400.183 359.227L402.774 359.955C402.501 360.833 402.043 361.606 401.399 362.273C400.755 362.932 399.96 363.447 399.013 363.818C398.066 364.182 397.001 364.364 395.82 364.364ZM407.126 364V346.545H409.717V349.182H409.899C410.217 348.318 410.793 347.617 411.626 347.08C412.46 346.542 413.399 346.273 414.445 346.273C414.642 346.273 414.888 346.277 415.183 346.284C415.479 346.292 415.702 346.303 415.854 346.318V349.045C415.763 349.023 415.554 348.989 415.229 348.943C414.911 348.89 414.573 348.864 414.217 348.864C413.369 348.864 412.611 349.042 411.945 349.398C411.286 349.746 410.763 350.231 410.376 350.852C409.998 351.466 409.808 352.167 409.808 352.955V364H407.126Z" fill="white"/>
<path d="M516.304 345V321.727H531.713V325.784H521.224V331.33H530.69V335.386H521.224V345H516.304ZM541.537 345.341C539.772 345.341 538.245 344.966 536.957 344.216C535.677 343.458 534.688 342.405 533.991 341.057C533.295 339.701 532.946 338.129 532.946 336.341C532.946 334.538 533.295 332.962 533.991 331.614C534.688 330.258 535.677 329.205 536.957 328.455C538.245 327.697 539.772 327.318 541.537 327.318C543.302 327.318 544.825 327.697 546.105 328.455C547.393 329.205 548.385 330.258 549.082 331.614C549.779 332.962 550.128 334.538 550.128 336.341C550.128 338.129 549.779 339.701 549.082 341.057C548.385 342.405 547.393 343.458 546.105 344.216C544.825 344.966 543.302 345.341 541.537 345.341ZM541.56 341.591C542.363 341.591 543.033 341.364 543.571 340.909C544.109 340.447 544.514 339.818 544.787 339.023C545.067 338.227 545.207 337.322 545.207 336.307C545.207 335.292 545.067 334.386 544.787 333.591C544.514 332.795 544.109 332.167 543.571 331.705C543.033 331.242 542.363 331.011 541.56 331.011C540.749 331.011 540.067 331.242 539.514 331.705C538.969 332.167 538.556 332.795 538.276 333.591C538.003 334.386 537.866 335.292 537.866 336.307C537.866 337.322 538.003 338.227 538.276 339.023C538.556 339.818 538.969 340.447 539.514 340.909C540.067 341.364 540.749 341.591 541.56 341.591ZM564.469 337.568V327.545H569.31V345H564.662V341.83H564.48C564.086 342.852 563.431 343.674 562.514 344.295C561.605 344.917 560.495 345.227 559.185 345.227C558.018 345.227 556.991 344.962 556.105 344.432C555.219 343.902 554.526 343.148 554.026 342.17C553.533 341.193 553.283 340.023 553.276 338.659V327.545H558.116V337.795C558.124 338.826 558.401 339.64 558.946 340.239C559.491 340.837 560.223 341.136 561.139 341.136C561.723 341.136 562.268 341.004 562.776 340.739C563.283 340.466 563.692 340.064 564.003 339.534C564.321 339.004 564.476 338.348 564.469 337.568ZM578.023 334.909V345H573.182V327.545H577.795V330.625H578C578.386 329.61 579.034 328.807 579.943 328.216C580.852 327.617 581.955 327.318 583.25 327.318C584.462 327.318 585.519 327.583 586.42 328.114C587.322 328.644 588.023 329.402 588.523 330.386C589.023 331.364 589.273 332.53 589.273 333.886V345H584.432V334.75C584.439 333.682 584.167 332.848 583.614 332.25C583.061 331.644 582.299 331.341 581.33 331.341C580.678 331.341 580.102 331.481 579.602 331.761C579.11 332.042 578.723 332.451 578.443 332.989C578.17 333.519 578.03 334.159 578.023 334.909ZM599.52 345.284C598.194 345.284 596.993 344.943 595.918 344.261C594.849 343.572 594.001 342.561 593.372 341.227C592.751 339.886 592.44 338.242 592.44 336.295C592.44 334.295 592.762 332.633 593.406 331.307C594.05 329.973 594.906 328.977 595.974 328.318C597.05 327.652 598.228 327.318 599.509 327.318C600.486 327.318 601.3 327.485 601.952 327.818C602.611 328.144 603.141 328.553 603.543 329.045C603.952 329.53 604.262 330.008 604.474 330.477H604.622V321.727H609.452V345H604.679V342.205H604.474C604.247 342.689 603.925 343.17 603.509 343.648C603.099 344.117 602.565 344.508 601.906 344.818C601.255 345.129 600.459 345.284 599.52 345.284ZM601.054 341.432C601.834 341.432 602.493 341.22 603.031 340.795C603.577 340.364 603.993 339.761 604.281 338.989C604.577 338.216 604.724 337.311 604.724 336.273C604.724 335.235 604.58 334.333 604.293 333.568C604.005 332.803 603.588 332.212 603.043 331.795C602.497 331.379 601.834 331.17 601.054 331.17C600.259 331.17 599.588 331.386 599.043 331.818C598.497 332.25 598.084 332.848 597.804 333.614C597.524 334.379 597.384 335.265 597.384 336.273C597.384 337.288 597.524 338.186 597.804 338.966C598.092 339.739 598.505 340.345 599.043 340.784C599.588 341.216 600.259 341.432 601.054 341.432ZM625.815 345.33C624.702 345.33 623.709 345.136 622.838 344.75C621.967 344.356 621.277 343.777 620.77 343.011C620.27 342.239 620.02 341.277 620.02 340.125C620.02 339.155 620.198 338.341 620.554 337.682C620.91 337.023 621.395 336.492 622.009 336.091C622.622 335.689 623.319 335.386 624.099 335.182C624.887 334.977 625.713 334.833 626.577 334.75C627.592 334.644 628.41 334.545 629.031 334.455C629.652 334.356 630.103 334.212 630.384 334.023C630.664 333.833 630.804 333.553 630.804 333.182V333.114C630.804 332.394 630.577 331.837 630.122 331.443C629.675 331.049 629.039 330.852 628.213 330.852C627.342 330.852 626.649 331.045 626.134 331.432C625.618 331.811 625.277 332.288 625.111 332.864L620.634 332.5C620.861 331.439 621.308 330.523 621.974 329.75C622.641 328.97 623.501 328.371 624.554 327.955C625.615 327.53 626.842 327.318 628.236 327.318C629.205 327.318 630.134 327.432 631.02 327.659C631.914 327.886 632.705 328.239 633.395 328.716C634.092 329.193 634.641 329.807 635.043 330.557C635.444 331.299 635.645 332.189 635.645 333.227V345H631.054V342.58H630.918C630.637 343.125 630.262 343.606 629.793 344.023C629.323 344.432 628.759 344.754 628.099 344.989C627.44 345.216 626.679 345.33 625.815 345.33ZM627.202 341.989C627.914 341.989 628.543 341.848 629.088 341.568C629.634 341.28 630.062 340.894 630.372 340.409C630.683 339.924 630.838 339.375 630.838 338.761V336.909C630.687 337.008 630.478 337.098 630.213 337.182C629.955 337.258 629.664 337.33 629.338 337.398C629.012 337.458 628.687 337.515 628.361 337.568C628.035 337.614 627.74 337.655 627.474 337.693C626.906 337.777 626.41 337.909 625.986 338.091C625.562 338.273 625.232 338.519 624.997 338.83C624.762 339.133 624.645 339.511 624.645 339.966C624.645 340.625 624.884 341.129 625.361 341.477C625.846 341.818 626.459 341.989 627.202 341.989ZM646.898 321.727H652.966L659.375 337.364H659.648L666.057 321.727H672.125V345H667.352V329.852H667.159L661.136 344.886H657.886L651.864 329.795H651.67V345H646.898V321.727ZM681.065 345.33C679.952 345.33 678.959 345.136 678.088 344.75C677.217 344.356 676.527 343.777 676.02 343.011C675.52 342.239 675.27 341.277 675.27 340.125C675.27 339.155 675.448 338.341 675.804 337.682C676.16 337.023 676.645 336.492 677.259 336.091C677.872 335.689 678.569 335.386 679.349 335.182C680.137 334.977 680.963 334.833 681.827 334.75C682.842 334.644 683.66 334.545 684.281 334.455C684.902 334.356 685.353 334.212 685.634 334.023C685.914 333.833 686.054 333.553 686.054 333.182V333.114C686.054 332.394 685.827 331.837 685.372 331.443C684.925 331.049 684.289 330.852 683.463 330.852C682.592 330.852 681.899 331.045 681.384 331.432C680.868 331.811 680.527 332.288 680.361 332.864L675.884 332.5C676.111 331.439 676.558 330.523 677.224 329.75C677.891 328.97 678.751 328.371 679.804 327.955C680.865 327.53 682.092 327.318 683.486 327.318C684.455 327.318 685.384 327.432 686.27 327.659C687.164 327.886 687.955 328.239 688.645 328.716C689.342 329.193 689.891 329.807 690.293 330.557C690.694 331.299 690.895 332.189 690.895 333.227V345H686.304V342.58H686.168C685.887 343.125 685.512 343.606 685.043 344.023C684.573 344.432 684.009 344.754 683.349 344.989C682.69 345.216 681.929 345.33 681.065 345.33ZM682.452 341.989C683.164 341.989 683.793 341.848 684.338 341.568C684.884 341.28 685.312 340.894 685.622 340.409C685.933 339.924 686.088 339.375 686.088 338.761V336.909C685.937 337.008 685.728 337.098 685.463 337.182C685.205 337.258 684.914 337.33 684.588 337.398C684.262 337.458 683.937 337.515 683.611 337.568C683.285 337.614 682.99 337.655 682.724 337.693C682.156 337.777 681.66 337.909 681.236 338.091C680.812 338.273 680.482 338.519 680.247 338.83C680.012 339.133 679.895 339.511 679.895 339.966C679.895 340.625 680.134 341.129 680.611 341.477C681.096 341.818 681.709 341.989 682.452 341.989ZM703.935 327.545V331.182H693.423V327.545H703.935ZM695.81 323.364H700.651V339.636C700.651 340.083 700.719 340.432 700.855 340.682C700.991 340.924 701.181 341.095 701.423 341.193C701.673 341.292 701.961 341.341 702.287 341.341C702.514 341.341 702.741 341.322 702.969 341.284C703.196 341.239 703.37 341.205 703.491 341.182L704.253 344.784C704.01 344.86 703.67 344.947 703.23 345.045C702.791 345.152 702.257 345.216 701.628 345.239C700.461 345.284 699.438 345.129 698.56 344.773C697.688 344.417 697.01 343.864 696.526 343.114C696.041 342.364 695.802 341.417 695.81 340.273V323.364ZM714.787 345.341C712.999 345.341 711.461 344.962 710.173 344.205C708.893 343.439 707.908 342.379 707.219 341.023C706.537 339.667 706.196 338.106 706.196 336.341C706.196 334.553 706.541 332.985 707.23 331.636C707.927 330.28 708.916 329.223 710.196 328.466C711.476 327.701 712.999 327.318 714.764 327.318C716.287 327.318 717.62 327.595 718.764 328.148C719.908 328.701 720.813 329.477 721.48 330.477C722.147 331.477 722.514 332.652 722.582 334H718.014C717.885 333.129 717.545 332.428 716.991 331.898C716.446 331.36 715.73 331.091 714.844 331.091C714.094 331.091 713.438 331.295 712.878 331.705C712.325 332.106 711.893 332.693 711.582 333.466C711.272 334.239 711.116 335.174 711.116 336.273C711.116 337.386 711.268 338.333 711.571 339.114C711.882 339.894 712.317 340.489 712.878 340.898C713.438 341.307 714.094 341.511 714.844 341.511C715.397 341.511 715.893 341.398 716.332 341.17C716.779 340.943 717.147 340.614 717.435 340.182C717.73 339.742 717.923 339.216 718.014 338.602H722.582C722.507 339.936 722.143 341.11 721.491 342.125C720.848 343.133 719.957 343.92 718.821 344.489C717.685 345.057 716.34 345.341 714.787 345.341ZM730.523 334.909V345H725.682V321.727H730.386V330.625H730.591C730.985 329.595 731.621 328.788 732.5 328.205C733.379 327.614 734.481 327.318 735.807 327.318C737.019 327.318 738.076 327.583 738.977 328.114C739.886 328.636 740.591 329.39 741.091 330.375C741.598 331.352 741.848 332.523 741.841 333.886V345H737V334.75C737.008 333.674 736.735 332.837 736.182 332.239C735.636 331.64 734.871 331.341 733.886 331.341C733.227 331.341 732.644 331.481 732.136 331.761C731.636 332.042 731.242 332.451 730.955 332.989C730.674 333.519 730.53 334.159 730.523 334.909ZM535.706 384H530.433L538.467 360.727H544.808L552.831 384H547.558L541.729 366.045H541.547L535.706 384ZM535.376 374.852H547.831V378.693H535.376V374.852ZM563.732 366.545V370.182H553.22V366.545H563.732ZM555.607 362.364H560.447V378.636C560.447 379.083 560.516 379.432 560.652 379.682C560.788 379.924 560.978 380.095 561.22 380.193C561.47 380.292 561.758 380.341 562.084 380.341C562.311 380.341 562.538 380.322 562.766 380.284C562.993 380.239 563.167 380.205 563.288 380.182L564.05 383.784C563.807 383.86 563.466 383.947 563.027 384.045C562.588 384.152 562.054 384.216 561.425 384.239C560.258 384.284 559.235 384.129 558.357 383.773C557.485 383.417 556.807 382.864 556.322 382.114C555.838 381.364 555.599 380.417 555.607 379.273V362.364ZM574.382 384V360.727H583.564C585.329 360.727 586.833 361.064 588.075 361.739C589.318 362.405 590.265 363.333 590.916 364.523C591.575 365.705 591.905 367.068 591.905 368.614C591.905 370.159 591.571 371.523 590.905 372.705C590.238 373.886 589.272 374.807 588.007 375.466C586.75 376.125 585.227 376.455 583.439 376.455H577.587V372.511H582.643C583.59 372.511 584.371 372.348 584.984 372.023C585.606 371.689 586.068 371.231 586.371 370.648C586.681 370.057 586.837 369.379 586.837 368.614C586.837 367.841 586.681 367.167 586.371 366.591C586.068 366.008 585.606 365.557 584.984 365.239C584.363 364.913 583.575 364.75 582.621 364.75H579.303V384H574.382ZM602.615 384.341C600.85 384.341 599.323 383.966 598.036 383.216C596.755 382.458 595.767 381.405 595.07 380.057C594.373 378.701 594.024 377.129 594.024 375.341C594.024 373.538 594.373 371.962 595.07 370.614C595.767 369.258 596.755 368.205 598.036 367.455C599.323 366.697 600.85 366.318 602.615 366.318C604.38 366.318 605.903 366.697 607.183 367.455C608.471 368.205 609.464 369.258 610.161 370.614C610.857 371.962 611.206 373.538 611.206 375.341C611.206 377.129 610.857 378.701 610.161 380.057C609.464 381.405 608.471 382.458 607.183 383.216C605.903 383.966 604.38 384.341 602.615 384.341ZM602.638 380.591C603.441 380.591 604.111 380.364 604.649 379.909C605.187 379.447 605.592 378.818 605.865 378.023C606.145 377.227 606.286 376.322 606.286 375.307C606.286 374.292 606.145 373.386 605.865 372.591C605.592 371.795 605.187 371.167 604.649 370.705C604.111 370.242 603.441 370.011 602.638 370.011C601.827 370.011 601.145 370.242 600.592 370.705C600.047 371.167 599.634 371.795 599.354 372.591C599.081 373.386 598.945 374.292 598.945 375.307C598.945 376.322 599.081 377.227 599.354 378.023C599.634 378.818 600.047 379.447 600.592 379.909C601.145 380.364 601.827 380.591 602.638 380.591ZM628.876 371.523L624.445 371.795C624.369 371.417 624.206 371.076 623.956 370.773C623.706 370.462 623.376 370.216 622.967 370.034C622.566 369.845 622.085 369.75 621.524 369.75C620.774 369.75 620.142 369.909 619.626 370.227C619.111 370.538 618.854 370.955 618.854 371.477C618.854 371.894 619.02 372.246 619.354 372.534C619.687 372.822 620.259 373.053 621.07 373.227L624.229 373.864C625.926 374.212 627.191 374.773 628.024 375.545C628.857 376.318 629.274 377.333 629.274 378.591C629.274 379.735 628.937 380.739 628.263 381.602C627.596 382.466 626.679 383.14 625.513 383.625C624.354 384.102 623.017 384.341 621.501 384.341C619.191 384.341 617.35 383.86 615.979 382.898C614.615 381.928 613.816 380.61 613.581 378.943L618.342 378.693C618.486 379.398 618.835 379.936 619.388 380.307C619.941 380.67 620.649 380.852 621.513 380.852C622.361 380.852 623.043 380.689 623.558 380.364C624.081 380.03 624.346 379.602 624.354 379.08C624.346 378.64 624.161 378.28 623.797 378C623.433 377.712 622.873 377.492 622.115 377.341L619.092 376.739C617.388 376.398 616.119 375.807 615.286 374.966C614.46 374.125 614.047 373.053 614.047 371.75C614.047 370.629 614.35 369.663 614.956 368.852C615.57 368.042 616.429 367.417 617.536 366.977C618.649 366.538 619.952 366.318 621.445 366.318C623.649 366.318 625.384 366.784 626.649 367.716C627.922 368.648 628.664 369.917 628.876 371.523ZM632.322 384V366.545H637.163V384H632.322ZM634.754 364.295C634.035 364.295 633.417 364.057 632.902 363.58C632.394 363.095 632.141 362.515 632.141 361.841C632.141 361.174 632.394 360.602 632.902 360.125C633.417 359.64 634.035 359.398 634.754 359.398C635.474 359.398 636.088 359.64 636.595 360.125C637.11 360.602 637.368 361.174 637.368 361.841C637.368 362.515 637.11 363.095 636.595 363.58C636.088 364.057 635.474 364.295 634.754 364.295ZM650.325 366.545V370.182H639.814V366.545H650.325ZM642.2 362.364H647.041V378.636C647.041 379.083 647.109 379.432 647.246 379.682C647.382 379.924 647.571 380.095 647.814 380.193C648.064 380.292 648.352 380.341 648.678 380.341C648.905 380.341 649.132 380.322 649.359 380.284C649.587 380.239 649.761 380.205 649.882 380.182L650.643 383.784C650.401 383.86 650.06 383.947 649.621 384.045C649.181 384.152 648.647 384.216 648.018 384.239C646.852 384.284 645.829 384.129 644.95 383.773C644.079 383.417 643.401 382.864 642.916 382.114C642.431 381.364 642.193 380.417 642.2 379.273V362.364ZM653.479 384V366.545H658.32V384H653.479ZM655.911 364.295C655.191 364.295 654.573 364.057 654.058 363.58C653.551 363.095 653.297 362.515 653.297 361.841C653.297 361.174 653.551 360.602 654.058 360.125C654.573 359.64 655.191 359.398 655.911 359.398C656.63 359.398 657.244 359.64 657.751 360.125C658.267 360.602 658.524 361.174 658.524 361.841C658.524 362.515 658.267 363.095 657.751 363.58C657.244 364.057 656.63 364.295 655.911 364.295ZM670.084 384.341C668.319 384.341 666.792 383.966 665.504 383.216C664.224 382.458 663.235 381.405 662.538 380.057C661.841 378.701 661.493 377.129 661.493 375.341C661.493 373.538 661.841 371.962 662.538 370.614C663.235 369.258 664.224 368.205 665.504 367.455C666.792 366.697 668.319 366.318 670.084 366.318C671.849 366.318 673.372 366.697 674.652 367.455C675.94 368.205 676.932 369.258 677.629 370.614C678.326 371.962 678.675 373.538 678.675 375.341C678.675 377.129 678.326 378.701 677.629 380.057C676.932 381.405 675.94 382.458 674.652 383.216C673.372 383.966 671.849 384.341 670.084 384.341ZM670.107 380.591C670.91 380.591 671.58 380.364 672.118 379.909C672.656 379.447 673.061 378.818 673.334 378.023C673.614 377.227 673.754 376.322 673.754 375.307C673.754 374.292 673.614 373.386 673.334 372.591C673.061 371.795 672.656 371.167 672.118 370.705C671.58 370.242 670.91 370.011 670.107 370.011C669.296 370.011 668.614 370.242 668.061 370.705C667.516 371.167 667.103 371.795 666.822 372.591C666.55 373.386 666.413 374.292 666.413 375.307C666.413 376.322 666.55 377.227 666.822 378.023C667.103 378.818 667.516 379.447 668.061 379.909C668.614 380.364 669.296 380.591 670.107 380.591ZM686.663 373.909V384H681.822V366.545H686.436V369.625H686.641C687.027 368.61 687.675 367.807 688.584 367.216C689.493 366.617 690.595 366.318 691.891 366.318C693.103 366.318 694.16 366.583 695.061 367.114C695.963 367.644 696.663 368.402 697.163 369.386C697.663 370.364 697.913 371.53 697.913 372.886V384H693.072V373.75C693.08 372.682 692.807 371.848 692.254 371.25C691.701 370.644 690.94 370.341 689.97 370.341C689.319 370.341 688.743 370.481 688.243 370.761C687.75 371.042 687.364 371.451 687.084 371.989C686.811 372.519 686.671 373.159 686.663 373.909ZM718.021 384.318C716.824 384.311 715.669 384.11 714.555 383.716C713.449 383.322 712.457 382.682 711.578 381.795C710.699 380.909 710.002 379.735 709.487 378.273C708.98 376.811 708.726 375.015 708.726 372.886C708.733 370.932 708.957 369.186 709.396 367.648C709.843 366.102 710.48 364.792 711.305 363.716C712.139 362.64 713.135 361.822 714.294 361.261C715.453 360.693 716.752 360.409 718.192 360.409C719.745 360.409 721.116 360.712 722.305 361.318C723.495 361.917 724.449 362.731 725.169 363.761C725.896 364.792 726.336 365.947 726.487 367.227H721.635C721.446 366.417 721.048 365.78 720.442 365.318C719.836 364.856 719.086 364.625 718.192 364.625C716.677 364.625 715.525 365.284 714.737 366.602C713.957 367.92 713.559 369.712 713.544 371.977H713.703C714.052 371.288 714.521 370.701 715.112 370.216C715.711 369.723 716.389 369.348 717.146 369.091C717.911 368.826 718.718 368.693 719.567 368.693C720.946 368.693 722.173 369.019 723.249 369.67C724.324 370.314 725.173 371.201 725.794 372.33C726.415 373.458 726.726 374.75 726.726 376.205C726.726 377.78 726.358 379.182 725.624 380.409C724.896 381.636 723.877 382.598 722.567 383.295C721.264 383.985 719.749 384.326 718.021 384.318ZM717.999 380.455C718.756 380.455 719.434 380.273 720.033 379.909C720.631 379.545 721.101 379.053 721.442 378.432C721.783 377.811 721.953 377.114 721.953 376.341C721.953 375.568 721.783 374.875 721.442 374.261C721.108 373.648 720.646 373.159 720.055 372.795C719.464 372.432 718.79 372.25 718.033 372.25C717.464 372.25 716.938 372.356 716.453 372.568C715.976 372.78 715.555 373.076 715.192 373.455C714.836 373.833 714.555 374.273 714.351 374.773C714.146 375.265 714.044 375.792 714.044 376.352C714.044 377.102 714.214 377.788 714.555 378.409C714.904 379.03 715.374 379.527 715.964 379.898C716.563 380.269 717.241 380.455 717.999 380.455Z" fill="#009966"/>
<path d="M622.967 163.227V160.727H640.422V163.227H633.104V184H630.286V163.227H622.967ZM644.408 184V166.545H647.089V184H644.408ZM645.771 163.636C645.249 163.636 644.798 163.458 644.419 163.102C644.048 162.746 643.862 162.318 643.862 161.818C643.862 161.318 644.048 160.89 644.419 160.534C644.798 160.178 645.249 160 645.771 160C646.294 160 646.741 160.178 647.112 160.534C647.491 160.89 647.68 161.318 647.68 161.818C647.68 162.318 647.491 162.746 647.112 163.102C646.741 163.458 646.294 163.636 645.771 163.636ZM659.047 190.909C657.751 190.909 656.638 190.742 655.706 190.409C654.774 190.083 653.998 189.652 653.376 189.114C652.763 188.583 652.274 188.015 651.911 187.409L654.047 185.909C654.289 186.227 654.596 186.591 654.967 187C655.339 187.417 655.846 187.777 656.49 188.08C657.142 188.39 657.994 188.545 659.047 188.545C660.456 188.545 661.619 188.205 662.536 187.523C663.452 186.841 663.911 185.773 663.911 184.318V180.773H663.683C663.486 181.091 663.206 181.485 662.842 181.955C662.486 182.417 661.971 182.83 661.297 183.193C660.63 183.549 659.729 183.727 658.592 183.727C657.183 183.727 655.918 183.394 654.797 182.727C653.683 182.061 652.801 181.091 652.149 179.818C651.505 178.545 651.183 177 651.183 175.182C651.183 173.394 651.498 171.837 652.126 170.511C652.755 169.178 653.63 168.148 654.751 167.42C655.873 166.686 657.168 166.318 658.638 166.318C659.774 166.318 660.676 166.508 661.342 166.886C662.017 167.258 662.532 167.682 662.888 168.159C663.251 168.629 663.532 169.015 663.729 169.318H664.001V166.545H666.592V184.5C666.592 186 666.251 187.22 665.57 188.159C664.895 189.106 663.986 189.799 662.842 190.239C661.706 190.686 660.441 190.909 659.047 190.909ZM658.956 181.318C660.032 181.318 660.941 181.072 661.683 180.58C662.426 180.087 662.99 179.379 663.376 178.455C663.763 177.53 663.956 176.424 663.956 175.136C663.956 173.879 663.767 172.769 663.388 171.807C663.009 170.845 662.448 170.091 661.706 169.545C660.964 169 660.047 168.727 658.956 168.727C657.82 168.727 656.873 169.015 656.115 169.591C655.365 170.167 654.801 170.939 654.422 171.909C654.051 172.879 653.865 173.955 653.865 175.136C653.865 176.348 654.054 177.42 654.433 178.352C654.82 179.277 655.388 180.004 656.138 180.534C656.895 181.057 657.835 181.318 658.956 181.318ZM678.82 184.364C677.138 184.364 675.687 183.992 674.467 183.25C673.255 182.5 672.32 181.455 671.661 180.114C671.009 178.765 670.683 177.197 670.683 175.409C670.683 173.621 671.009 172.045 671.661 170.682C672.32 169.311 673.236 168.242 674.411 167.477C675.592 166.705 676.971 166.318 678.547 166.318C679.456 166.318 680.354 166.47 681.24 166.773C682.126 167.076 682.933 167.568 683.661 168.25C684.388 168.924 684.967 169.818 685.399 170.932C685.831 172.045 686.047 173.417 686.047 175.045V176.182H672.592V173.864H683.32C683.32 172.879 683.123 172 682.729 171.227C682.342 170.455 681.789 169.845 681.07 169.398C680.357 168.951 679.517 168.727 678.547 168.727C677.479 168.727 676.554 168.992 675.774 169.523C675.001 170.045 674.407 170.727 673.99 171.568C673.573 172.409 673.365 173.311 673.365 174.273V175.818C673.365 177.136 673.592 178.254 674.047 179.17C674.509 180.08 675.149 180.773 675.967 181.25C676.786 181.72 677.736 181.955 678.82 181.955C679.524 181.955 680.161 181.856 680.729 181.659C681.304 181.455 681.801 181.152 682.217 180.75C682.634 180.341 682.956 179.833 683.183 179.227L685.774 179.955C685.501 180.833 685.043 181.606 684.399 182.273C683.755 182.932 682.96 183.447 682.013 183.818C681.066 184.182 680.001 184.364 678.82 184.364ZM690.126 184V166.545H692.717V169.182H692.899C693.217 168.318 693.793 167.617 694.626 167.08C695.46 166.542 696.399 166.273 697.445 166.273C697.642 166.273 697.888 166.277 698.183 166.284C698.479 166.292 698.702 166.303 698.854 166.318V169.045C698.763 169.023 698.554 168.989 698.229 168.943C697.911 168.89 697.573 168.864 697.217 168.864C696.369 168.864 695.611 169.042 694.945 169.398C694.286 169.746 693.763 170.231 693.376 170.852C692.998 171.466 692.808 172.167 692.808 172.955V184H690.126Z" fill="white"/>
<path d="M738.327 184V181.955L750.872 163.227H738.19V160.727H754.236V162.773L741.69 181.5H754.372V184H738.327ZM766.054 184.364C764.372 184.364 762.921 183.992 761.702 183.25C760.49 182.5 759.554 181.455 758.895 180.114C758.243 178.765 757.918 177.197 757.918 175.409C757.918 173.621 758.243 172.045 758.895 170.682C759.554 169.311 760.471 168.242 761.645 167.477C762.827 166.705 764.205 166.318 765.781 166.318C766.69 166.318 767.588 166.47 768.474 166.773C769.361 167.076 770.168 167.568 770.895 168.25C771.622 168.924 772.202 169.818 772.634 170.932C773.065 172.045 773.281 173.417 773.281 175.045V176.182H759.827V173.864H770.554C770.554 172.879 770.357 172 769.963 171.227C769.577 170.455 769.024 169.845 768.304 169.398C767.592 168.951 766.751 168.727 765.781 168.727C764.713 168.727 763.789 168.992 763.009 169.523C762.236 170.045 761.641 170.727 761.224 171.568C760.808 172.409 760.599 173.311 760.599 174.273V175.818C760.599 177.136 760.827 178.254 761.281 179.17C761.743 180.08 762.384 180.773 763.202 181.25C764.02 181.72 764.971 181.955 766.054 181.955C766.759 181.955 767.395 181.856 767.963 181.659C768.539 181.455 769.035 181.152 769.452 180.75C769.868 180.341 770.19 179.833 770.418 179.227L773.009 179.955C772.736 180.833 772.277 181.606 771.634 182.273C770.99 182.932 770.194 183.447 769.247 183.818C768.3 184.182 767.236 184.364 766.054 184.364ZM777.724 184V160.727H780.406V169.318H780.634C780.83 169.015 781.103 168.629 781.452 168.159C781.808 167.682 782.315 167.258 782.974 166.886C783.641 166.508 784.543 166.318 785.679 166.318C787.149 166.318 788.444 166.686 789.565 167.42C790.687 168.155 791.562 169.197 792.19 170.545C792.819 171.894 793.134 173.485 793.134 175.318C793.134 177.167 792.819 178.769 792.19 180.125C791.562 181.473 790.69 182.519 789.577 183.261C788.463 183.996 787.179 184.364 785.724 184.364C784.603 184.364 783.705 184.178 783.031 183.807C782.357 183.428 781.838 183 781.474 182.523C781.111 182.038 780.83 181.636 780.634 181.318H780.315V184H777.724ZM780.361 175.273C780.361 176.591 780.554 177.754 780.94 178.761C781.327 179.761 781.891 180.545 782.634 181.114C783.376 181.674 784.285 181.955 785.361 181.955C786.482 181.955 787.418 181.659 788.168 181.068C788.925 180.47 789.493 179.667 789.872 178.659C790.259 177.644 790.452 176.515 790.452 175.273C790.452 174.045 790.262 172.939 789.884 171.955C789.512 170.962 788.948 170.178 788.19 169.602C787.44 169.019 786.497 168.727 785.361 168.727C784.27 168.727 783.353 169.004 782.611 169.557C781.868 170.102 781.308 170.867 780.929 171.852C780.55 172.83 780.361 173.97 780.361 175.273ZM797.236 184V166.545H799.827V169.182H800.009C800.327 168.318 800.902 167.617 801.736 167.08C802.569 166.542 803.509 166.273 804.554 166.273C804.751 166.273 804.997 166.277 805.293 166.284C805.588 166.292 805.812 166.303 805.963 166.318V169.045C805.872 169.023 805.664 168.989 805.338 168.943C805.02 168.89 804.683 168.864 804.327 168.864C803.478 168.864 802.721 169.042 802.054 169.398C801.395 169.746 800.872 170.231 800.486 170.852C800.107 171.466 799.918 172.167 799.918 172.955V184H797.236ZM814.278 184.409C813.172 184.409 812.169 184.201 811.267 183.784C810.366 183.36 809.65 182.75 809.119 181.955C808.589 181.152 808.324 180.182 808.324 179.045C808.324 178.045 808.521 177.235 808.915 176.614C809.309 175.985 809.835 175.492 810.494 175.136C811.153 174.78 811.881 174.515 812.676 174.341C813.479 174.159 814.286 174.015 815.097 173.909C816.157 173.773 817.017 173.67 817.676 173.602C818.343 173.527 818.828 173.402 819.131 173.227C819.441 173.053 819.597 172.75 819.597 172.318V172.227C819.597 171.106 819.29 170.235 818.676 169.614C818.07 168.992 817.15 168.682 815.915 168.682C814.634 168.682 813.631 168.962 812.903 169.523C812.176 170.083 811.665 170.682 811.369 171.318L808.824 170.409C809.278 169.348 809.884 168.523 810.642 167.932C811.407 167.333 812.241 166.917 813.142 166.682C814.051 166.439 814.945 166.318 815.824 166.318C816.384 166.318 817.028 166.386 817.756 166.523C818.491 166.652 819.199 166.92 819.881 167.33C820.57 167.739 821.142 168.356 821.597 169.182C822.051 170.008 822.278 171.114 822.278 172.5V184H819.597V181.636H819.46C819.278 182.015 818.975 182.42 818.551 182.852C818.127 183.284 817.563 183.652 816.858 183.955C816.153 184.258 815.294 184.409 814.278 184.409ZM814.688 182C815.748 182 816.642 181.792 817.369 181.375C818.104 180.958 818.657 180.42 819.028 179.761C819.407 179.102 819.597 178.409 819.597 177.682V175.227C819.483 175.364 819.233 175.489 818.847 175.602C818.468 175.708 818.028 175.803 817.528 175.886C817.036 175.962 816.555 176.03 816.085 176.091C815.623 176.144 815.248 176.189 814.96 176.227C814.263 176.318 813.612 176.466 813.006 176.67C812.407 176.867 811.922 177.167 811.551 177.568C811.188 177.962 811.006 178.5 811.006 179.182C811.006 180.114 811.35 180.818 812.04 181.295C812.737 181.765 813.619 182 814.688 182Z" fill="white"/>
</svg>
