<svg width="891" height="511" viewBox="0 0 891 511" fill="none" xmlns="http://www.w3.org/2000/svg">
<rect x="1" y="1" width="716" height="89" rx="26" stroke="#DBDBDB" stroke-width="2"/>
<rect x="180" y="141" width="358" height="89" rx="26" stroke="#DBDBDB" stroke-width="2"/>
<rect x="270" y="281" width="178" height="89" rx="26" stroke="#DBDBDB" stroke-width="2"/>
<rect x="315" y="421" width="89" height="89" rx="26" stroke="#DBDBDB" stroke-width="2"/>
<line x1="91" y1="-4.37114e-08" x2="91" y2="91" stroke="#DBDBDB" stroke-width="2"/>
<line x1="180" y1="-4.37114e-08" x2="180" y2="91" stroke="#DBDBDB" stroke-width="2"/>
<line x1="270" y1="-4.37114e-08" x2="270" y2="91" stroke="#DBDBDB" stroke-width="2"/>
<line x1="360" y1="-4.37114e-08" x2="360" y2="91" stroke="#DBDBDB" stroke-width="2"/>
<line x1="449" y1="-4.37114e-08" x2="449" y2="91" stroke="#DBDBDB" stroke-width="2"/>
<line x1="270" y1="140" x2="270" y2="231" stroke="#DBDBDB" stroke-width="2"/>
<line x1="360" y1="280" x2="360" y2="371" stroke="#DBDBDB" stroke-width="2"/>
<line x1="539" y1="-4.37114e-08" x2="539" y2="91" stroke="#DBDBDB" stroke-width="2"/>
<line x1="360" y1="140" x2="360" y2="231" stroke="#DBDBDB" stroke-width="2"/>
<line x1="629" y1="-4.37114e-08" x2="629" y2="91" stroke="#DBDBDB" stroke-width="2"/>
<line x1="450" y1="140" x2="450" y2="231" stroke="#DBDBDB" stroke-width="2"/>
<path d="M37.2409 56.1705C36.7154 56.1705 36.2644 55.9822 35.888 55.6058C35.5115 55.2294 35.3233 54.7784 35.3233 54.2528C35.3233 53.7273 35.5115 53.2763 35.888 52.8999C36.2644 52.5234 36.7154 52.3352 37.2409 52.3352C37.7665 52.3352 38.2175 52.5234 38.5939 52.8999C38.9703 53.2763 39.1586 53.7273 39.1586 54.2528C39.1586 54.6009 39.0698 54.9205 38.8922 55.2116C38.7218 55.5028 38.4909 55.7372 38.1998 55.9148C37.9157 56.0852 37.5961 56.1705 37.2409 56.1705ZM45.5027 56.1705C44.9771 56.1705 44.5261 55.9822 44.1497 55.6058C43.7733 55.2294 43.585 54.7784 43.585 54.2528C43.585 53.7273 43.7733 53.2763 44.1497 52.8999C44.5261 52.5234 44.9771 52.3352 45.5027 52.3352C46.0282 52.3352 46.4792 52.5234 46.8556 52.8999C47.2321 53.2763 47.4203 53.7273 47.4203 54.2528C47.4203 54.6009 47.3315 54.9205 47.1539 55.2116C46.9835 55.5028 46.7527 55.7372 46.4615 55.9148C46.1774 56.0852 45.8578 56.1705 45.5027 56.1705ZM53.7644 56.1705C53.2388 56.1705 52.7878 55.9822 52.4114 55.6058C52.035 55.2294 51.8468 54.7784 51.8468 54.2528C51.8468 53.7273 52.035 53.2763 52.4114 52.8999C52.7878 52.5234 53.2388 52.3352 53.7644 52.3352C54.29 52.3352 54.7409 52.5234 55.1174 52.8999C55.4938 53.2763 55.682 53.7273 55.682 54.2528C55.682 54.6009 55.5932 54.9205 55.4157 55.2116C55.2452 55.5028 55.0144 55.7372 54.7232 55.9148C54.4391 56.0852 54.1195 56.1705 53.7644 56.1705Z" fill="#727272"/>
<path d="M126.741 56.1705C126.215 56.1705 125.764 55.9822 125.388 55.6058C125.012 55.2294 124.823 54.7784 124.823 54.2528C124.823 53.7273 125.012 53.2763 125.388 52.8999C125.764 52.5234 126.215 52.3352 126.741 52.3352C127.267 52.3352 127.718 52.5234 128.094 52.8999C128.47 53.2763 128.659 53.7273 128.659 54.2528C128.659 54.6009 128.57 54.9205 128.392 55.2116C128.222 55.5028 127.991 55.7372 127.7 55.9148C127.416 56.0852 127.096 56.1705 126.741 56.1705ZM135.003 56.1705C134.477 56.1705 134.026 55.9822 133.65 55.6058C133.273 55.2294 133.085 54.7784 133.085 54.2528C133.085 53.7273 133.273 53.2763 133.65 52.8999C134.026 52.5234 134.477 52.3352 135.003 52.3352C135.528 52.3352 135.979 52.5234 136.356 52.8999C136.732 53.2763 136.92 53.7273 136.92 54.2528C136.92 54.6009 136.831 54.9205 136.654 55.2116C136.483 55.5028 136.253 55.7372 135.961 55.9148C135.677 56.0852 135.358 56.1705 135.003 56.1705ZM143.264 56.1705C142.739 56.1705 142.288 55.9822 141.911 55.6058C141.535 55.2294 141.347 54.7784 141.347 54.2528C141.347 53.7273 141.535 53.2763 141.911 52.8999C142.288 52.5234 142.739 52.3352 143.264 52.3352C143.79 52.3352 144.241 52.5234 144.617 52.8999C144.994 53.2763 145.182 53.7273 145.182 54.2528C145.182 54.6009 145.093 54.9205 144.916 55.2116C144.745 55.5028 144.514 55.7372 144.223 55.9148C143.939 56.0852 143.619 56.1705 143.264 56.1705Z" fill="#727272"/>
<path d="M216.241 56.1705C215.715 56.1705 215.264 55.9822 214.888 55.6058C214.512 55.2294 214.323 54.7784 214.323 54.2528C214.323 53.7273 214.512 53.2763 214.888 52.8999C215.264 52.5234 215.715 52.3352 216.241 52.3352C216.767 52.3352 217.218 52.5234 217.594 52.8999C217.97 53.2763 218.159 53.7273 218.159 54.2528C218.159 54.6009 218.07 54.9205 217.892 55.2116C217.722 55.5028 217.491 55.7372 217.2 55.9148C216.916 56.0852 216.596 56.1705 216.241 56.1705ZM224.503 56.1705C223.977 56.1705 223.526 55.9822 223.15 55.6058C222.773 55.2294 222.585 54.7784 222.585 54.2528C222.585 53.7273 222.773 53.2763 223.15 52.8999C223.526 52.5234 223.977 52.3352 224.503 52.3352C225.028 52.3352 225.479 52.5234 225.856 52.8999C226.232 53.2763 226.42 53.7273 226.42 54.2528C226.42 54.6009 226.331 54.9205 226.154 55.2116C225.983 55.5028 225.753 55.7372 225.461 55.9148C225.177 56.0852 224.858 56.1705 224.503 56.1705ZM232.764 56.1705C232.239 56.1705 231.788 55.9822 231.411 55.6058C231.035 55.2294 230.847 54.7784 230.847 54.2528C230.847 53.7273 231.035 53.2763 231.411 52.8999C231.788 52.5234 232.239 52.3352 232.764 52.3352C233.29 52.3352 233.741 52.5234 234.117 52.8999C234.494 53.2763 234.682 53.7273 234.682 54.2528C234.682 54.6009 234.593 54.9205 234.416 55.2116C234.245 55.5028 234.014 55.7372 233.723 55.9148C233.439 56.0852 233.119 56.1705 232.764 56.1705Z" fill="#727272"/>
<path d="M306.241 56.1705C305.715 56.1705 305.264 55.9822 304.888 55.6058C304.512 55.2294 304.323 54.7784 304.323 54.2528C304.323 53.7273 304.512 53.2763 304.888 52.8999C305.264 52.5234 305.715 52.3352 306.241 52.3352C306.767 52.3352 307.218 52.5234 307.594 52.8999C307.97 53.2763 308.159 53.7273 308.159 54.2528C308.159 54.6009 308.07 54.9205 307.892 55.2116C307.722 55.5028 307.491 55.7372 307.2 55.9148C306.916 56.0852 306.596 56.1705 306.241 56.1705ZM314.503 56.1705C313.977 56.1705 313.526 55.9822 313.15 55.6058C312.773 55.2294 312.585 54.7784 312.585 54.2528C312.585 53.7273 312.773 53.2763 313.15 52.8999C313.526 52.5234 313.977 52.3352 314.503 52.3352C315.028 52.3352 315.479 52.5234 315.856 52.8999C316.232 53.2763 316.42 53.7273 316.42 54.2528C316.42 54.6009 316.331 54.9205 316.154 55.2116C315.983 55.5028 315.753 55.7372 315.461 55.9148C315.177 56.0852 314.858 56.1705 314.503 56.1705ZM322.764 56.1705C322.239 56.1705 321.788 55.9822 321.411 55.6058C321.035 55.2294 320.847 54.7784 320.847 54.2528C320.847 53.7273 321.035 53.2763 321.411 52.8999C321.788 52.5234 322.239 52.3352 322.764 52.3352C323.29 52.3352 323.741 52.5234 324.117 52.8999C324.494 53.2763 324.682 53.7273 324.682 54.2528C324.682 54.6009 324.593 54.9205 324.416 55.2116C324.245 55.5028 324.014 55.7372 323.723 55.9148C323.439 56.0852 323.119 56.1705 322.764 56.1705Z" fill="#727272"/>
<path d="M395.741 56.1705C395.215 56.1705 394.764 55.9822 394.388 55.6058C394.012 55.2294 393.823 54.7784 393.823 54.2528C393.823 53.7273 394.012 53.2763 394.388 52.8999C394.764 52.5234 395.215 52.3352 395.741 52.3352C396.267 52.3352 396.718 52.5234 397.094 52.8999C397.47 53.2763 397.659 53.7273 397.659 54.2528C397.659 54.6009 397.57 54.9205 397.392 55.2116C397.222 55.5028 396.991 55.7372 396.7 55.9148C396.416 56.0852 396.096 56.1705 395.741 56.1705ZM404.003 56.1705C403.477 56.1705 403.026 55.9822 402.65 55.6058C402.273 55.2294 402.085 54.7784 402.085 54.2528C402.085 53.7273 402.273 53.2763 402.65 52.8999C403.026 52.5234 403.477 52.3352 404.003 52.3352C404.528 52.3352 404.979 52.5234 405.356 52.8999C405.732 53.2763 405.92 53.7273 405.92 54.2528C405.92 54.6009 405.831 54.9205 405.654 55.2116C405.483 55.5028 405.253 55.7372 404.961 55.9148C404.677 56.0852 404.358 56.1705 404.003 56.1705ZM412.264 56.1705C411.739 56.1705 411.288 55.9822 410.911 55.6058C410.535 55.2294 410.347 54.7784 410.347 54.2528C410.347 53.7273 410.535 53.2763 410.911 52.8999C411.288 52.5234 411.739 52.3352 412.264 52.3352C412.79 52.3352 413.241 52.5234 413.617 52.8999C413.994 53.2763 414.182 53.7273 414.182 54.2528C414.182 54.6009 414.093 54.9205 413.916 55.2116C413.745 55.5028 413.514 55.7372 413.223 55.9148C412.939 56.0852 412.619 56.1705 412.264 56.1705Z" fill="#727272"/>
<path d="M216.741 196.17C216.215 196.17 215.764 195.982 215.388 195.606C215.012 195.229 214.823 194.778 214.823 194.253C214.823 193.727 215.012 193.276 215.388 192.9C215.764 192.523 216.215 192.335 216.741 192.335C217.267 192.335 217.718 192.523 218.094 192.9C218.47 193.276 218.659 193.727 218.659 194.253C218.659 194.601 218.57 194.92 218.392 195.212C218.222 195.503 217.991 195.737 217.7 195.915C217.416 196.085 217.096 196.17 216.741 196.17ZM225.003 196.17C224.477 196.17 224.026 195.982 223.65 195.606C223.273 195.229 223.085 194.778 223.085 194.253C223.085 193.727 223.273 193.276 223.65 192.9C224.026 192.523 224.477 192.335 225.003 192.335C225.528 192.335 225.979 192.523 226.356 192.9C226.732 193.276 226.92 193.727 226.92 194.253C226.92 194.601 226.831 194.92 226.654 195.212C226.483 195.503 226.253 195.737 225.961 195.915C225.677 196.085 225.358 196.17 225.003 196.17ZM233.264 196.17C232.739 196.17 232.288 195.982 231.911 195.606C231.535 195.229 231.347 194.778 231.347 194.253C231.347 193.727 231.535 193.276 231.911 192.9C232.288 192.523 232.739 192.335 233.264 192.335C233.79 192.335 234.241 192.523 234.617 192.9C234.994 193.276 235.182 193.727 235.182 194.253C235.182 194.601 235.093 194.92 234.916 195.212C234.745 195.503 234.514 195.737 234.223 195.915C233.939 196.085 233.619 196.17 233.264 196.17Z" fill="#727272"/>
<path d="M306.741 336.17C306.215 336.17 305.764 335.982 305.388 335.606C305.012 335.229 304.823 334.778 304.823 334.253C304.823 333.727 305.012 333.276 305.388 332.9C305.764 332.523 306.215 332.335 306.741 332.335C307.267 332.335 307.718 332.523 308.094 332.9C308.47 333.276 308.659 333.727 308.659 334.253C308.659 334.601 308.57 334.92 308.392 335.212C308.222 335.503 307.991 335.737 307.7 335.915C307.416 336.085 307.096 336.17 306.741 336.17ZM315.003 336.17C314.477 336.17 314.026 335.982 313.65 335.606C313.273 335.229 313.085 334.778 313.085 334.253C313.085 333.727 313.273 333.276 313.65 332.9C314.026 332.523 314.477 332.335 315.003 332.335C315.528 332.335 315.979 332.523 316.356 332.9C316.732 333.276 316.92 333.727 316.92 334.253C316.92 334.601 316.831 334.92 316.654 335.212C316.483 335.503 316.253 335.737 315.961 335.915C315.677 336.085 315.358 336.17 315.003 336.17ZM323.264 336.17C322.739 336.17 322.288 335.982 321.911 335.606C321.535 335.229 321.347 334.778 321.347 334.253C321.347 333.727 321.535 333.276 321.911 332.9C322.288 332.523 322.739 332.335 323.264 332.335C323.79 332.335 324.241 332.523 324.617 332.9C324.994 333.276 325.182 333.727 325.182 334.253C325.182 334.601 325.093 334.92 324.916 335.212C324.745 335.503 324.514 335.737 324.223 335.915C323.939 336.085 323.619 336.17 323.264 336.17Z" fill="#727272"/>
<path d="M351.741 476.17C351.215 476.17 350.764 475.982 350.388 475.606C350.012 475.229 349.823 474.778 349.823 474.253C349.823 473.727 350.012 473.276 350.388 472.9C350.764 472.523 351.215 472.335 351.741 472.335C352.267 472.335 352.718 472.523 353.094 472.9C353.47 473.276 353.659 473.727 353.659 474.253C353.659 474.601 353.57 474.92 353.392 475.212C353.222 475.503 352.991 475.737 352.7 475.915C352.416 476.085 352.096 476.17 351.741 476.17ZM360.003 476.17C359.477 476.17 359.026 475.982 358.65 475.606C358.273 475.229 358.085 474.778 358.085 474.253C358.085 473.727 358.273 473.276 358.65 472.9C359.026 472.523 359.477 472.335 360.003 472.335C360.528 472.335 360.979 472.523 361.356 472.9C361.732 473.276 361.92 473.727 361.92 474.253C361.92 474.601 361.831 474.92 361.654 475.212C361.483 475.503 361.253 475.737 360.961 475.915C360.677 476.085 360.358 476.17 360.003 476.17ZM368.264 476.17C367.739 476.17 367.288 475.982 366.911 475.606C366.535 475.229 366.347 474.778 366.347 474.253C366.347 473.727 366.535 473.276 366.911 472.9C367.288 472.523 367.739 472.335 368.264 472.335C368.79 472.335 369.241 472.523 369.617 472.9C369.994 473.276 370.182 473.727 370.182 474.253C370.182 474.601 370.093 474.92 369.916 475.212C369.745 475.503 369.514 475.737 369.223 475.915C368.939 476.085 368.619 476.17 368.264 476.17Z" fill="#727272"/>
<path d="M485.241 56.1705C484.715 56.1705 484.264 55.9822 483.888 55.6058C483.512 55.2294 483.323 54.7784 483.323 54.2528C483.323 53.7273 483.512 53.2763 483.888 52.8999C484.264 52.5234 484.715 52.3352 485.241 52.3352C485.767 52.3352 486.218 52.5234 486.594 52.8999C486.97 53.2763 487.159 53.7273 487.159 54.2528C487.159 54.6009 487.07 54.9205 486.892 55.2116C486.722 55.5028 486.491 55.7372 486.2 55.9148C485.916 56.0852 485.596 56.1705 485.241 56.1705ZM493.503 56.1705C492.977 56.1705 492.526 55.9822 492.15 55.6058C491.773 55.2294 491.585 54.7784 491.585 54.2528C491.585 53.7273 491.773 53.2763 492.15 52.8999C492.526 52.5234 492.977 52.3352 493.503 52.3352C494.028 52.3352 494.479 52.5234 494.856 52.8999C495.232 53.2763 495.42 53.7273 495.42 54.2528C495.42 54.6009 495.331 54.9205 495.154 55.2116C494.983 55.5028 494.753 55.7372 494.461 55.9148C494.177 56.0852 493.858 56.1705 493.503 56.1705ZM501.764 56.1705C501.239 56.1705 500.788 55.9822 500.411 55.6058C500.035 55.2294 499.847 54.7784 499.847 54.2528C499.847 53.7273 500.035 53.2763 500.411 52.8999C500.788 52.5234 501.239 52.3352 501.764 52.3352C502.29 52.3352 502.741 52.5234 503.117 52.8999C503.494 53.2763 503.682 53.7273 503.682 54.2528C503.682 54.6009 503.593 54.9205 503.416 55.2116C503.245 55.5028 503.014 55.7372 502.723 55.9148C502.439 56.0852 502.119 56.1705 501.764 56.1705Z" fill="#727272"/>
<path d="M306.241 196.17C305.715 196.17 305.264 195.982 304.888 195.606C304.512 195.229 304.323 194.778 304.323 194.253C304.323 193.727 304.512 193.276 304.888 192.9C305.264 192.523 305.715 192.335 306.241 192.335C306.767 192.335 307.218 192.523 307.594 192.9C307.97 193.276 308.159 193.727 308.159 194.253C308.159 194.601 308.07 194.92 307.892 195.212C307.722 195.503 307.491 195.737 307.2 195.915C306.916 196.085 306.596 196.17 306.241 196.17ZM314.503 196.17C313.977 196.17 313.526 195.982 313.15 195.606C312.773 195.229 312.585 194.778 312.585 194.253C312.585 193.727 312.773 193.276 313.15 192.9C313.526 192.523 313.977 192.335 314.503 192.335C315.028 192.335 315.479 192.523 315.856 192.9C316.232 193.276 316.42 193.727 316.42 194.253C316.42 194.601 316.331 194.92 316.154 195.212C315.983 195.503 315.753 195.737 315.461 195.915C315.177 196.085 314.858 196.17 314.503 196.17ZM322.764 196.17C322.239 196.17 321.788 195.982 321.411 195.606C321.035 195.229 320.847 194.778 320.847 194.253C320.847 193.727 321.035 193.276 321.411 192.9C321.788 192.523 322.239 192.335 322.764 192.335C323.29 192.335 323.741 192.523 324.117 192.9C324.494 193.276 324.682 193.727 324.682 194.253C324.682 194.601 324.593 194.92 324.416 195.212C324.245 195.503 324.014 195.737 323.723 195.915C323.439 196.085 323.119 196.17 322.764 196.17Z" fill="#727272"/>
<path d="M396.241 336.17C395.715 336.17 395.264 335.982 394.888 335.606C394.512 335.229 394.323 334.778 394.323 334.253C394.323 333.727 394.512 333.276 394.888 332.9C395.264 332.523 395.715 332.335 396.241 332.335C396.767 332.335 397.218 332.523 397.594 332.9C397.97 333.276 398.159 333.727 398.159 334.253C398.159 334.601 398.07 334.92 397.892 335.212C397.722 335.503 397.491 335.737 397.2 335.915C396.916 336.085 396.596 336.17 396.241 336.17ZM404.503 336.17C403.977 336.17 403.526 335.982 403.15 335.606C402.773 335.229 402.585 334.778 402.585 334.253C402.585 333.727 402.773 333.276 403.15 332.9C403.526 332.523 403.977 332.335 404.503 332.335C405.028 332.335 405.479 332.523 405.856 332.9C406.232 333.276 406.42 333.727 406.42 334.253C406.42 334.601 406.331 334.92 406.154 335.212C405.983 335.503 405.753 335.737 405.461 335.915C405.177 336.085 404.858 336.17 404.503 336.17ZM412.764 336.17C412.239 336.17 411.788 335.982 411.411 335.606C411.035 335.229 410.847 334.778 410.847 334.253C410.847 333.727 411.035 333.276 411.411 332.9C411.788 332.523 412.239 332.335 412.764 332.335C413.29 332.335 413.741 332.523 414.117 332.9C414.494 333.276 414.682 333.727 414.682 334.253C414.682 334.601 414.593 334.92 414.416 335.212C414.245 335.503 414.014 335.737 413.723 335.915C413.439 336.085 413.119 336.17 412.764 336.17Z" fill="#727272"/>
<path d="M574.741 56.1705C574.215 56.1705 573.764 55.9822 573.388 55.6058C573.012 55.2294 572.823 54.7784 572.823 54.2528C572.823 53.7273 573.012 53.2763 573.388 52.8999C573.764 52.5234 574.215 52.3352 574.741 52.3352C575.267 52.3352 575.718 52.5234 576.094 52.8999C576.47 53.2763 576.659 53.7273 576.659 54.2528C576.659 54.6009 576.57 54.9205 576.392 55.2116C576.222 55.5028 575.991 55.7372 575.7 55.9148C575.416 56.0852 575.096 56.1705 574.741 56.1705ZM583.003 56.1705C582.477 56.1705 582.026 55.9822 581.65 55.6058C581.273 55.2294 581.085 54.7784 581.085 54.2528C581.085 53.7273 581.273 53.2763 581.65 52.8999C582.026 52.5234 582.477 52.3352 583.003 52.3352C583.528 52.3352 583.979 52.5234 584.356 52.8999C584.732 53.2763 584.92 53.7273 584.92 54.2528C584.92 54.6009 584.831 54.9205 584.654 55.2116C584.483 55.5028 584.253 55.7372 583.961 55.9148C583.677 56.0852 583.358 56.1705 583.003 56.1705ZM591.264 56.1705C590.739 56.1705 590.288 55.9822 589.911 55.6058C589.535 55.2294 589.347 54.7784 589.347 54.2528C589.347 53.7273 589.535 53.2763 589.911 52.8999C590.288 52.5234 590.739 52.3352 591.264 52.3352C591.79 52.3352 592.241 52.5234 592.617 52.8999C592.994 53.2763 593.182 53.7273 593.182 54.2528C593.182 54.6009 593.093 54.9205 592.916 55.2116C592.745 55.5028 592.514 55.7372 592.223 55.9148C591.939 56.0852 591.619 56.1705 591.264 56.1705Z" fill="#727272"/>
<path d="M395.741 196.17C395.215 196.17 394.764 195.982 394.388 195.606C394.012 195.229 393.823 194.778 393.823 194.253C393.823 193.727 394.012 193.276 394.388 192.9C394.764 192.523 395.215 192.335 395.741 192.335C396.267 192.335 396.718 192.523 397.094 192.9C397.47 193.276 397.659 193.727 397.659 194.253C397.659 194.601 397.57 194.92 397.392 195.212C397.222 195.503 396.991 195.737 396.7 195.915C396.416 196.085 396.096 196.17 395.741 196.17ZM404.003 196.17C403.477 196.17 403.026 195.982 402.65 195.606C402.273 195.229 402.085 194.778 402.085 194.253C402.085 193.727 402.273 193.276 402.65 192.9C403.026 192.523 403.477 192.335 404.003 192.335C404.528 192.335 404.979 192.523 405.356 192.9C405.732 193.276 405.92 193.727 405.92 194.253C405.92 194.601 405.831 194.92 405.654 195.212C405.483 195.503 405.253 195.737 404.961 195.915C404.677 196.085 404.358 196.17 404.003 196.17ZM412.264 196.17C411.739 196.17 411.288 195.982 410.911 195.606C410.535 195.229 410.347 194.778 410.347 194.253C410.347 193.727 410.535 193.276 410.911 192.9C411.288 192.523 411.739 192.335 412.264 192.335C412.79 192.335 413.241 192.523 413.617 192.9C413.994 193.276 414.182 193.727 414.182 194.253C414.182 194.601 414.093 194.92 413.916 195.212C413.745 195.503 413.514 195.737 413.223 195.915C412.939 196.085 412.619 196.17 412.264 196.17Z" fill="#727272"/>
<path d="M664.741 56.1705C664.215 56.1705 663.764 55.9822 663.388 55.6058C663.012 55.2294 662.823 54.7784 662.823 54.2528C662.823 53.7273 663.012 53.2763 663.388 52.8999C663.764 52.5234 664.215 52.3352 664.741 52.3352C665.267 52.3352 665.718 52.5234 666.094 52.8999C666.47 53.2763 666.659 53.7273 666.659 54.2528C666.659 54.6009 666.57 54.9205 666.392 55.2116C666.222 55.5028 665.991 55.7372 665.7 55.9148C665.416 56.0852 665.096 56.1705 664.741 56.1705ZM673.003 56.1705C672.477 56.1705 672.026 55.9822 671.65 55.6058C671.273 55.2294 671.085 54.7784 671.085 54.2528C671.085 53.7273 671.273 53.2763 671.65 52.8999C672.026 52.5234 672.477 52.3352 673.003 52.3352C673.528 52.3352 673.979 52.5234 674.356 52.8999C674.732 53.2763 674.92 53.7273 674.92 54.2528C674.92 54.6009 674.831 54.9205 674.654 55.2116C674.483 55.5028 674.253 55.7372 673.961 55.9148C673.677 56.0852 673.358 56.1705 673.003 56.1705ZM681.264 56.1705C680.739 56.1705 680.288 55.9822 679.911 55.6058C679.535 55.2294 679.347 54.7784 679.347 54.2528C679.347 53.7273 679.535 53.2763 679.911 52.8999C680.288 52.5234 680.739 52.3352 681.264 52.3352C681.79 52.3352 682.241 52.5234 682.617 52.8999C682.994 53.2763 683.182 53.7273 683.182 54.2528C683.182 54.6009 683.093 54.9205 682.916 55.2116C682.745 55.5028 682.514 55.7372 682.223 55.9148C681.939 56.0852 681.619 56.1705 681.264 56.1705Z" fill="#727272"/>
<path d="M485.741 196.17C485.215 196.17 484.764 195.982 484.388 195.606C484.012 195.229 483.823 194.778 483.823 194.253C483.823 193.727 484.012 193.276 484.388 192.9C484.764 192.523 485.215 192.335 485.741 192.335C486.267 192.335 486.718 192.523 487.094 192.9C487.47 193.276 487.659 193.727 487.659 194.253C487.659 194.601 487.57 194.92 487.392 195.212C487.222 195.503 486.991 195.737 486.7 195.915C486.416 196.085 486.096 196.17 485.741 196.17ZM494.003 196.17C493.477 196.17 493.026 195.982 492.65 195.606C492.273 195.229 492.085 194.778 492.085 194.253C492.085 193.727 492.273 193.276 492.65 192.9C493.026 192.523 493.477 192.335 494.003 192.335C494.528 192.335 494.979 192.523 495.356 192.9C495.732 193.276 495.92 193.727 495.92 194.253C495.92 194.601 495.831 194.92 495.654 195.212C495.483 195.503 495.253 195.737 494.961 195.915C494.677 196.085 494.358 196.17 494.003 196.17ZM502.264 196.17C501.739 196.17 501.288 195.982 500.911 195.606C500.535 195.229 500.347 194.778 500.347 194.253C500.347 193.727 500.535 193.276 500.911 192.9C501.288 192.523 501.739 192.335 502.264 192.335C502.79 192.335 503.241 192.523 503.617 192.9C503.994 193.276 504.182 193.727 504.182 194.253C504.182 194.601 504.093 194.92 503.916 195.212C503.745 195.503 503.514 195.737 503.223 195.915C502.939 196.085 502.619 196.17 502.264 196.17Z" fill="#727272"/>
<path d="M758.568 57.3182C756.818 57.3182 755.261 57.0341 753.898 56.4659C752.542 55.8902 751.477 55.1061 750.705 54.1136C749.932 53.1212 749.545 51.9962 749.545 50.7386C749.545 49.7689 749.765 48.8788 750.205 48.0682C750.652 47.25 751.258 46.572 752.023 46.0341C752.788 45.4886 753.644 45.1402 754.591 44.9886V44.8295C753.348 44.5795 752.341 43.9773 751.568 43.0227C750.795 42.0606 750.409 40.9432 750.409 39.6705C750.409 38.4659 750.761 37.3939 751.466 36.4545C752.17 35.5076 753.136 34.7652 754.364 34.2273C755.598 33.6818 757 33.4091 758.568 33.4091C760.136 33.4091 761.534 33.6818 762.761 34.2273C763.996 34.7727 764.966 35.5189 765.67 36.4659C766.375 37.4053 766.731 38.4735 766.739 39.6705C766.731 40.9508 766.337 42.0682 765.557 43.0227C764.777 43.9773 763.777 44.5795 762.557 44.8295V44.9886C763.489 45.1402 764.333 45.4886 765.091 46.0341C765.856 46.572 766.462 47.25 766.909 48.0682C767.364 48.8788 767.595 49.7689 767.602 50.7386C767.595 51.9962 767.205 53.1212 766.432 54.1136C765.659 55.1061 764.591 55.8902 763.227 56.4659C761.871 57.0341 760.318 57.3182 758.568 57.3182ZM758.568 53.7045C759.348 53.7045 760.03 53.5644 760.614 53.2841C761.197 52.9962 761.652 52.6023 761.977 52.1023C762.311 51.5947 762.477 51.0114 762.477 50.3523C762.477 49.678 762.307 49.0833 761.966 48.5682C761.625 48.0455 761.163 47.6364 760.58 47.3409C759.996 47.0379 759.326 46.8864 758.568 46.8864C757.818 46.8864 757.148 47.0379 756.557 47.3409C755.966 47.6364 755.5 48.0455 755.159 48.5682C754.826 49.0833 754.659 49.678 754.659 50.3523C754.659 51.0114 754.822 51.5947 755.148 52.1023C755.473 52.6023 755.932 52.9962 756.523 53.2841C757.114 53.5644 757.795 53.7045 758.568 53.7045ZM758.568 43.3068C759.22 43.3068 759.799 43.1742 760.307 42.9091C760.814 42.6439 761.212 42.2765 761.5 41.8068C761.788 41.3371 761.932 40.7955 761.932 40.1818C761.932 39.5758 761.788 39.0455 761.5 38.5909C761.212 38.1288 760.818 37.7689 760.318 37.5114C759.818 37.2462 759.235 37.1136 758.568 37.1136C757.909 37.1136 757.326 37.2462 756.818 37.5114C756.311 37.7689 755.913 38.1288 755.625 38.5909C755.345 39.0455 755.205 39.5758 755.205 40.1818C755.205 40.7955 755.348 41.3371 755.636 41.8068C755.924 42.2765 756.322 42.6439 756.83 42.9091C757.337 43.1742 757.917 43.3068 758.568 43.3068ZM778.494 57V39.5455H783.335V57H778.494ZM780.926 37.2955C780.206 37.2955 779.589 37.0568 779.074 36.5795C778.566 36.0947 778.312 35.5152 778.312 34.8409C778.312 34.1742 778.566 33.6023 779.074 33.125C779.589 32.6402 780.206 32.3977 780.926 32.3977C781.646 32.3977 782.259 32.6402 782.767 33.125C783.282 33.6023 783.54 34.1742 783.54 34.8409C783.54 35.5152 783.282 36.0947 782.767 36.5795C782.259 37.0568 781.646 37.2955 780.926 37.2955ZM796.497 39.5455V43.1818H785.986V39.5455H796.497ZM788.372 35.3636H793.213V51.6364C793.213 52.0833 793.281 52.4318 793.418 52.6818C793.554 52.9242 793.743 53.0947 793.986 53.1932C794.236 53.2917 794.524 53.3409 794.849 53.3409C795.077 53.3409 795.304 53.322 795.531 53.2841C795.759 53.2386 795.933 53.2045 796.054 53.1818L796.815 56.7841C796.573 56.8598 796.232 56.947 795.793 57.0455C795.353 57.1515 794.819 57.2159 794.19 57.2386C793.024 57.2841 792.001 57.1288 791.122 56.7727C790.251 56.4167 789.573 55.8636 789.088 55.1136C788.603 54.3636 788.365 53.4167 788.372 52.2727V35.3636ZM807.418 57.3409C805.622 57.3409 804.077 56.9773 802.781 56.25C801.493 55.5152 800.501 54.4773 799.804 53.1364C799.107 51.7879 798.759 50.1932 798.759 48.3523C798.759 46.5568 799.107 44.9811 799.804 43.625C800.501 42.2689 801.482 41.2121 802.747 40.4545C804.02 39.697 805.512 39.3182 807.224 39.3182C808.376 39.3182 809.448 39.5038 810.44 39.875C811.44 40.2386 812.312 40.7879 813.054 41.5227C813.804 42.2576 814.387 43.1818 814.804 44.2955C815.221 45.4015 815.429 46.697 815.429 48.1818V49.5114H800.69V46.5114H810.872C810.872 45.8144 810.721 45.197 810.418 44.6591C810.115 44.1212 809.694 43.7008 809.156 43.3977C808.626 43.0871 808.009 42.9318 807.304 42.9318C806.569 42.9318 805.918 43.1023 805.349 43.4432C804.789 43.7765 804.349 44.2273 804.031 44.7955C803.713 45.3561 803.55 45.9811 803.543 46.6705V49.5227C803.543 50.3864 803.702 51.1326 804.02 51.7614C804.346 52.3902 804.804 52.875 805.395 53.2159C805.986 53.5568 806.687 53.7273 807.497 53.7273C808.035 53.7273 808.527 53.6515 808.974 53.5C809.421 53.3485 809.804 53.1212 810.122 52.8182C810.44 52.5152 810.683 52.1439 810.849 51.7045L815.327 52C815.099 53.0758 814.634 54.0152 813.929 54.8182C813.232 55.6136 812.33 56.2348 811.224 56.6818C810.126 57.1212 808.857 57.3409 807.418 57.3409ZM818.588 57V39.5455H823.202V42.625H823.406C823.77 41.6023 824.376 40.7955 825.224 40.2045C826.073 39.6136 827.088 39.3182 828.27 39.3182C829.467 39.3182 830.486 39.6174 831.327 40.2159C832.168 40.8068 832.728 41.6098 833.009 42.625H833.19C833.546 41.625 834.19 40.8258 835.122 40.2273C836.062 39.6212 837.171 39.3182 838.452 39.3182C840.08 39.3182 841.402 39.8371 842.418 40.875C843.44 41.9053 843.952 43.3674 843.952 45.2614V57H839.122V46.2159C839.122 45.2462 838.865 44.5189 838.349 44.0341C837.834 43.5492 837.19 43.3068 836.418 43.3068C835.539 43.3068 834.853 43.5871 834.361 44.1477C833.868 44.7008 833.622 45.4318 833.622 46.3409V57H828.929V46.1136C828.929 45.2576 828.683 44.5758 828.19 44.0682C827.705 43.5606 827.065 43.3068 826.27 43.3068C825.732 43.3068 825.247 43.4432 824.815 43.7159C824.391 43.9811 824.054 44.3561 823.804 44.8409C823.554 45.3182 823.429 45.8788 823.429 46.5227V57H818.588ZM862.298 44.5227L857.866 44.7955C857.791 44.4167 857.628 44.0758 857.378 43.7727C857.128 43.4621 856.798 43.2159 856.389 43.0341C855.988 42.8447 855.507 42.75 854.946 42.75C854.196 42.75 853.563 42.9091 853.048 43.2273C852.533 43.5379 852.276 43.9545 852.276 44.4773C852.276 44.8939 852.442 45.2462 852.776 45.5341C853.109 45.822 853.681 46.053 854.491 46.2273L857.651 46.8636C859.348 47.2121 860.613 47.7727 861.446 48.5455C862.279 49.3182 862.696 50.3333 862.696 51.5909C862.696 52.7348 862.359 53.7386 861.685 54.6023C861.018 55.4659 860.101 56.1402 858.935 56.625C857.776 57.1023 856.438 57.3409 854.923 57.3409C852.613 57.3409 850.772 56.8598 849.401 55.8977C848.037 54.928 847.238 53.6098 847.003 51.9432L851.764 51.6932C851.908 52.3977 852.257 52.9356 852.81 53.3068C853.363 53.6705 854.071 53.8523 854.935 53.8523C855.783 53.8523 856.465 53.6894 856.98 53.3636C857.503 53.0303 857.768 52.6023 857.776 52.0795C857.768 51.6402 857.582 51.2803 857.219 51C856.855 50.7121 856.295 50.4924 855.537 50.3409L852.514 49.7386C850.81 49.3977 849.541 48.8068 848.707 47.9659C847.882 47.125 847.469 46.053 847.469 44.75C847.469 43.6288 847.772 42.6629 848.378 41.8523C848.991 41.0417 849.851 40.4167 850.957 39.9773C852.071 39.5379 853.374 39.3182 854.866 39.3182C857.071 39.3182 858.806 39.7841 860.071 40.7159C861.344 41.6477 862.086 42.9167 862.298 44.5227Z" fill="#727272"/>
<path d="M570.534 192.909V189.034L580.25 173.727H583.591V179.091H581.614L575.489 188.784V188.966H589.295V192.909H570.534ZM581.705 197V191.727L581.795 190.011V173.727H586.409V197H581.705ZM600.026 197V179.545H604.866V197H600.026ZM602.457 177.295C601.738 177.295 601.12 177.057 600.605 176.58C600.098 176.095 599.844 175.515 599.844 174.841C599.844 174.174 600.098 173.602 600.605 173.125C601.12 172.64 601.738 172.398 602.457 172.398C603.177 172.398 603.791 172.64 604.298 173.125C604.813 173.602 605.071 174.174 605.071 174.841C605.071 175.515 604.813 176.095 604.298 176.58C603.791 177.057 603.177 177.295 602.457 177.295ZM618.028 179.545V183.182H607.517V179.545H618.028ZM609.903 175.364H614.744V191.636C614.744 192.083 614.813 192.432 614.949 192.682C615.085 192.924 615.275 193.095 615.517 193.193C615.767 193.292 616.055 193.341 616.381 193.341C616.608 193.341 616.835 193.322 617.062 193.284C617.29 193.239 617.464 193.205 617.585 193.182L618.347 196.784C618.104 196.86 617.763 196.947 617.324 197.045C616.884 197.152 616.35 197.216 615.722 197.239C614.555 197.284 613.532 197.129 612.653 196.773C611.782 196.417 611.104 195.864 610.619 195.114C610.134 194.364 609.896 193.417 609.903 192.273V175.364ZM628.949 197.341C627.153 197.341 625.608 196.977 624.312 196.25C623.025 195.515 622.032 194.477 621.335 193.136C620.638 191.788 620.29 190.193 620.29 188.352C620.29 186.557 620.638 184.981 621.335 183.625C622.032 182.269 623.013 181.212 624.278 180.455C625.551 179.697 627.044 179.318 628.756 179.318C629.907 179.318 630.979 179.504 631.972 179.875C632.972 180.239 633.843 180.788 634.585 181.523C635.335 182.258 635.919 183.182 636.335 184.295C636.752 185.402 636.96 186.697 636.96 188.182V189.511H622.222V186.511H632.403C632.403 185.814 632.252 185.197 631.949 184.659C631.646 184.121 631.225 183.701 630.688 183.398C630.157 183.087 629.54 182.932 628.835 182.932C628.1 182.932 627.449 183.102 626.881 183.443C626.32 183.777 625.881 184.227 625.562 184.795C625.244 185.356 625.081 185.981 625.074 186.67V189.523C625.074 190.386 625.233 191.133 625.551 191.761C625.877 192.39 626.335 192.875 626.926 193.216C627.517 193.557 628.218 193.727 629.028 193.727C629.566 193.727 630.059 193.652 630.506 193.5C630.953 193.348 631.335 193.121 631.653 192.818C631.972 192.515 632.214 192.144 632.381 191.705L636.858 192C636.631 193.076 636.165 194.015 635.46 194.818C634.763 195.614 633.862 196.235 632.756 196.682C631.657 197.121 630.388 197.341 628.949 197.341ZM640.119 197V179.545H644.733V182.625H644.938C645.301 181.602 645.907 180.795 646.756 180.205C647.604 179.614 648.619 179.318 649.801 179.318C650.998 179.318 652.017 179.617 652.858 180.216C653.699 180.807 654.259 181.61 654.54 182.625H654.722C655.078 181.625 655.722 180.826 656.653 180.227C657.593 179.621 658.703 179.318 659.983 179.318C661.612 179.318 662.934 179.837 663.949 180.875C664.972 181.905 665.483 183.367 665.483 185.261V197H660.653V186.216C660.653 185.246 660.396 184.519 659.881 184.034C659.366 183.549 658.722 183.307 657.949 183.307C657.07 183.307 656.384 183.587 655.892 184.148C655.4 184.701 655.153 185.432 655.153 186.341V197H650.46V186.114C650.46 185.258 650.214 184.576 649.722 184.068C649.237 183.561 648.597 183.307 647.801 183.307C647.263 183.307 646.778 183.443 646.347 183.716C645.922 183.981 645.585 184.356 645.335 184.841C645.085 185.318 644.96 185.879 644.96 186.523V197H640.119ZM683.83 184.523L679.398 184.795C679.322 184.417 679.159 184.076 678.909 183.773C678.659 183.462 678.33 183.216 677.92 183.034C677.519 182.845 677.038 182.75 676.477 182.75C675.727 182.75 675.095 182.909 674.58 183.227C674.064 183.538 673.807 183.955 673.807 184.477C673.807 184.894 673.973 185.246 674.307 185.534C674.64 185.822 675.212 186.053 676.023 186.227L679.182 186.864C680.879 187.212 682.144 187.773 682.977 188.545C683.811 189.318 684.227 190.333 684.227 191.591C684.227 192.735 683.89 193.739 683.216 194.602C682.549 195.466 681.633 196.14 680.466 196.625C679.307 197.102 677.97 197.341 676.455 197.341C674.144 197.341 672.303 196.86 670.932 195.898C669.568 194.928 668.769 193.61 668.534 191.943L673.295 191.693C673.439 192.398 673.788 192.936 674.341 193.307C674.894 193.67 675.602 193.852 676.466 193.852C677.314 193.852 677.996 193.689 678.511 193.364C679.034 193.03 679.299 192.602 679.307 192.08C679.299 191.64 679.114 191.28 678.75 191C678.386 190.712 677.826 190.492 677.068 190.341L674.045 189.739C672.341 189.398 671.072 188.807 670.239 187.966C669.413 187.125 669 186.053 669 184.75C669 183.629 669.303 182.663 669.909 181.852C670.523 181.042 671.383 180.417 672.489 179.977C673.602 179.538 674.905 179.318 676.398 179.318C678.602 179.318 680.337 179.784 681.602 180.716C682.875 181.648 683.617 182.917 683.83 184.523Z" fill="#727272"/>
<path d="M480.886 337V333.455L489.17 325.784C489.875 325.102 490.466 324.489 490.943 323.943C491.428 323.398 491.795 322.864 492.045 322.341C492.295 321.811 492.42 321.239 492.42 320.625C492.42 319.943 492.265 319.356 491.955 318.864C491.644 318.364 491.22 317.981 490.682 317.716C490.144 317.443 489.534 317.307 488.852 317.307C488.14 317.307 487.519 317.451 486.989 317.739C486.458 318.027 486.049 318.439 485.761 318.977C485.473 319.515 485.33 320.155 485.33 320.898H480.659C480.659 319.375 481.004 318.053 481.693 316.932C482.383 315.811 483.348 314.943 484.591 314.33C485.833 313.716 487.265 313.409 488.886 313.409C490.553 313.409 492.004 313.705 493.239 314.295C494.481 314.879 495.447 315.689 496.136 316.727C496.826 317.765 497.17 318.955 497.17 320.295C497.17 321.174 496.996 322.042 496.648 322.898C496.307 323.754 495.697 324.705 494.818 325.75C493.939 326.788 492.701 328.034 491.102 329.489L487.705 332.818V332.977H497.477V337H480.886ZM508.494 337V319.545H513.335V337H508.494ZM510.926 317.295C510.206 317.295 509.589 317.057 509.074 316.58C508.566 316.095 508.312 315.515 508.312 314.841C508.312 314.174 508.566 313.602 509.074 313.125C509.589 312.64 510.206 312.398 510.926 312.398C511.646 312.398 512.259 312.64 512.767 313.125C513.282 313.602 513.54 314.174 513.54 314.841C513.54 315.515 513.282 316.095 512.767 316.58C512.259 317.057 511.646 317.295 510.926 317.295ZM526.497 319.545V323.182H515.986V319.545H526.497ZM518.372 315.364H523.213V331.636C523.213 332.083 523.281 332.432 523.418 332.682C523.554 332.924 523.743 333.095 523.986 333.193C524.236 333.292 524.524 333.341 524.849 333.341C525.077 333.341 525.304 333.322 525.531 333.284C525.759 333.239 525.933 333.205 526.054 333.182L526.815 336.784C526.573 336.86 526.232 336.947 525.793 337.045C525.353 337.152 524.819 337.216 524.19 337.239C523.024 337.284 522.001 337.129 521.122 336.773C520.251 336.417 519.573 335.864 519.088 335.114C518.603 334.364 518.365 333.417 518.372 332.273V315.364ZM537.418 337.341C535.622 337.341 534.077 336.977 532.781 336.25C531.493 335.515 530.501 334.477 529.804 333.136C529.107 331.788 528.759 330.193 528.759 328.352C528.759 326.557 529.107 324.981 529.804 323.625C530.501 322.269 531.482 321.212 532.747 320.455C534.02 319.697 535.512 319.318 537.224 319.318C538.376 319.318 539.448 319.504 540.44 319.875C541.44 320.239 542.312 320.788 543.054 321.523C543.804 322.258 544.387 323.182 544.804 324.295C545.221 325.402 545.429 326.697 545.429 328.182V329.511H530.69V326.511H540.872C540.872 325.814 540.721 325.197 540.418 324.659C540.115 324.121 539.694 323.701 539.156 323.398C538.626 323.087 538.009 322.932 537.304 322.932C536.569 322.932 535.918 323.102 535.349 323.443C534.789 323.777 534.349 324.227 534.031 324.795C533.713 325.356 533.55 325.981 533.543 326.67V329.523C533.543 330.386 533.702 331.133 534.02 331.761C534.346 332.39 534.804 332.875 535.395 333.216C535.986 333.557 536.687 333.727 537.497 333.727C538.035 333.727 538.527 333.652 538.974 333.5C539.421 333.348 539.804 333.121 540.122 332.818C540.44 332.515 540.683 332.144 540.849 331.705L545.327 332C545.099 333.076 544.634 334.015 543.929 334.818C543.232 335.614 542.33 336.235 541.224 336.682C540.126 337.121 538.857 337.341 537.418 337.341ZM548.588 337V319.545H553.202V322.625H553.406C553.77 321.602 554.376 320.795 555.224 320.205C556.073 319.614 557.088 319.318 558.27 319.318C559.467 319.318 560.486 319.617 561.327 320.216C562.168 320.807 562.728 321.61 563.009 322.625H563.19C563.546 321.625 564.19 320.826 565.122 320.227C566.062 319.621 567.171 319.318 568.452 319.318C570.08 319.318 571.402 319.837 572.418 320.875C573.44 321.905 573.952 323.367 573.952 325.261V337H569.122V326.216C569.122 325.246 568.865 324.519 568.349 324.034C567.834 323.549 567.19 323.307 566.418 323.307C565.539 323.307 564.853 323.587 564.361 324.148C563.868 324.701 563.622 325.432 563.622 326.341V337H558.929V326.114C558.929 325.258 558.683 324.576 558.19 324.068C557.705 323.561 557.065 323.307 556.27 323.307C555.732 323.307 555.247 323.443 554.815 323.716C554.391 323.981 554.054 324.356 553.804 324.841C553.554 325.318 553.429 325.879 553.429 326.523V337H548.588ZM592.298 324.523L587.866 324.795C587.791 324.417 587.628 324.076 587.378 323.773C587.128 323.462 586.798 323.216 586.389 323.034C585.988 322.845 585.507 322.75 584.946 322.75C584.196 322.75 583.563 322.909 583.048 323.227C582.533 323.538 582.276 323.955 582.276 324.477C582.276 324.894 582.442 325.246 582.776 325.534C583.109 325.822 583.681 326.053 584.491 326.227L587.651 326.864C589.348 327.212 590.613 327.773 591.446 328.545C592.279 329.318 592.696 330.333 592.696 331.591C592.696 332.735 592.359 333.739 591.685 334.602C591.018 335.466 590.101 336.14 588.935 336.625C587.776 337.102 586.438 337.341 584.923 337.341C582.613 337.341 580.772 336.86 579.401 335.898C578.037 334.928 577.238 333.61 577.003 331.943L581.764 331.693C581.908 332.398 582.257 332.936 582.81 333.307C583.363 333.67 584.071 333.852 584.935 333.852C585.783 333.852 586.465 333.689 586.98 333.364C587.503 333.03 587.768 332.602 587.776 332.08C587.768 331.64 587.582 331.28 587.219 331C586.855 330.712 586.295 330.492 585.537 330.341L582.514 329.739C580.81 329.398 579.541 328.807 578.707 327.966C577.882 327.125 577.469 326.053 577.469 324.75C577.469 323.629 577.772 322.663 578.378 321.852C578.991 321.042 579.851 320.417 580.957 319.977C582.071 319.538 583.374 319.318 584.866 319.318C587.071 319.318 588.806 319.784 590.071 320.716C591.344 321.648 592.086 322.917 592.298 324.523Z" fill="#727272"/>
<path d="M447.011 453.727V477H442.091V458.398H441.955L436.625 461.739V457.375L442.386 453.727H447.011ZM459.994 477V459.545H464.835V477H459.994ZM462.426 457.295C461.706 457.295 461.089 457.057 460.574 456.58C460.066 456.095 459.812 455.515 459.812 454.841C459.812 454.174 460.066 453.602 460.574 453.125C461.089 452.64 461.706 452.398 462.426 452.398C463.146 452.398 463.759 452.64 464.267 453.125C464.782 453.602 465.04 454.174 465.04 454.841C465.04 455.515 464.782 456.095 464.267 456.58C463.759 457.057 463.146 457.295 462.426 457.295ZM477.997 459.545V463.182H467.486V459.545H477.997ZM469.872 455.364H474.713V471.636C474.713 472.083 474.781 472.432 474.918 472.682C475.054 472.924 475.243 473.095 475.486 473.193C475.736 473.292 476.024 473.341 476.349 473.341C476.577 473.341 476.804 473.322 477.031 473.284C477.259 473.239 477.433 473.205 477.554 473.182L478.315 476.784C478.073 476.86 477.732 476.947 477.293 477.045C476.853 477.152 476.319 477.216 475.69 477.239C474.524 477.284 473.501 477.129 472.622 476.773C471.751 476.417 471.073 475.864 470.588 475.114C470.103 474.364 469.865 473.417 469.872 472.273V455.364ZM488.918 477.341C487.122 477.341 485.577 476.977 484.281 476.25C482.993 475.515 482.001 474.477 481.304 473.136C480.607 471.788 480.259 470.193 480.259 468.352C480.259 466.557 480.607 464.981 481.304 463.625C482.001 462.269 482.982 461.212 484.247 460.455C485.52 459.697 487.012 459.318 488.724 459.318C489.876 459.318 490.948 459.504 491.94 459.875C492.94 460.239 493.812 460.788 494.554 461.523C495.304 462.258 495.887 463.182 496.304 464.295C496.721 465.402 496.929 466.697 496.929 468.182V469.511H482.19V466.511H492.372C492.372 465.814 492.221 465.197 491.918 464.659C491.615 464.121 491.194 463.701 490.656 463.398C490.126 463.087 489.509 462.932 488.804 462.932C488.069 462.932 487.418 463.102 486.849 463.443C486.289 463.777 485.849 464.227 485.531 464.795C485.213 465.356 485.05 465.981 485.043 466.67V469.523C485.043 470.386 485.202 471.133 485.52 471.761C485.846 472.39 486.304 472.875 486.895 473.216C487.486 473.557 488.187 473.727 488.997 473.727C489.535 473.727 490.027 473.652 490.474 473.5C490.921 473.348 491.304 473.121 491.622 472.818C491.94 472.515 492.183 472.144 492.349 471.705L496.827 472C496.599 473.076 496.134 474.015 495.429 474.818C494.732 475.614 493.83 476.235 492.724 476.682C491.626 477.121 490.357 477.341 488.918 477.341ZM500.088 477V459.545H504.702V462.625H504.906C505.27 461.602 505.876 460.795 506.724 460.205C507.573 459.614 508.588 459.318 509.77 459.318C510.967 459.318 511.986 459.617 512.827 460.216C513.668 460.807 514.228 461.61 514.509 462.625H514.69C515.046 461.625 515.69 460.826 516.622 460.227C517.562 459.621 518.671 459.318 519.952 459.318C521.58 459.318 522.902 459.837 523.918 460.875C524.94 461.905 525.452 463.367 525.452 465.261V477H520.622V466.216C520.622 465.246 520.365 464.519 519.849 464.034C519.334 463.549 518.69 463.307 517.918 463.307C517.039 463.307 516.353 463.587 515.861 464.148C515.368 464.701 515.122 465.432 515.122 466.341V477H510.429V466.114C510.429 465.258 510.183 464.576 509.69 464.068C509.205 463.561 508.565 463.307 507.77 463.307C507.232 463.307 506.747 463.443 506.315 463.716C505.891 463.981 505.554 464.356 505.304 464.841C505.054 465.318 504.929 465.879 504.929 466.523V477H500.088Z" fill="#727272"/>
</svg>
