<svg xmlns="http://www.w3.org/2000/svg" width="891" height="511" fill="none" viewBox="0 0 891 511"><rect width="716" height="89" x="1" y="1" stroke="#dbdbdb" stroke-width="2" rx="26"/><rect width="358" height="89" x="180" y="141" stroke="#dbdbdb" stroke-width="2" rx="26"/><rect width="178" height="89" x="270" y="281" stroke="#dbdbdb" stroke-width="2" rx="26"/><rect width="89" height="89" x="315" y="421" stroke="#dbdbdb" stroke-width="2" rx="26"/><path stroke="#dbdbdb" stroke-width="2" d="M91 0v91M180 0v91M270 0v91M360 0v91M449 0v91M270 140v91M360 280v91M539 0v91M360 140v91M629 0v91M450 140v91"/><path fill="#727272" d="M37.24 56.17q-.788 0-1.352-.564a1.85 1.85 0 0 1-.565-1.353q0-.789.565-1.353a1.85 1.85 0 0 1 1.353-.565q.789 0 1.353.565.565.564.565 1.353 0 .521-.267.959a2 2 0 0 1-.692.703q-.426.255-.96.255m8.263 0q-.789 0-1.353-.564a1.85 1.85 0 0 1-.565-1.353q0-.789.565-1.353a1.85 1.85 0 0 1 1.353-.565q.788 0 1.353.565.564.564.564 1.353 0 .521-.266.959a2 2 0 0 1-.693.703q-.426.255-.958.255m8.261 0q-.787 0-1.353-.564a1.85 1.85 0 0 1-.564-1.353q0-.789.564-1.353a1.85 1.85 0 0 1 1.353-.565q.789 0 1.353.565.565.564.565 1.353 0 .521-.266.959a2 2 0 0 1-.693.703q-.425.255-.959.255M126.741 56.17q-.789 0-1.353-.564a1.85 1.85 0 0 1-.565-1.353q0-.789.565-1.353a1.84 1.84 0 0 1 1.353-.565q.789 0 1.353.565.565.564.565 1.353 0 .521-.267.959-.255.435-.692.703-.426.255-.959.255m8.262 0q-.789 0-1.353-.564a1.84 1.84 0 0 1-.565-1.353q0-.789.565-1.353a1.84 1.84 0 0 1 1.353-.565q.787 0 1.353.565.564.564.564 1.353 0 .521-.266.959a2 2 0 0 1-.693.703q-.426.255-.958.255m8.261 0q-.788 0-1.353-.564a1.85 1.85 0 0 1-.564-1.353q0-.789.564-1.353a1.85 1.85 0 0 1 1.353-.565q.789 0 1.353.565.565.564.565 1.353 0 .521-.266.959a2 2 0 0 1-.693.703q-.426.255-.959.255M216.241 56.17q-.789 0-1.353-.564a1.85 1.85 0 0 1-.565-1.353q0-.789.565-1.353a1.84 1.84 0 0 1 1.353-.565q.789 0 1.353.565.565.564.565 1.353 0 .521-.267.959-.255.435-.692.703-.426.255-.959.255m8.262 0q-.789 0-1.353-.564a1.84 1.84 0 0 1-.565-1.353q0-.789.565-1.353a1.84 1.84 0 0 1 1.353-.565q.787 0 1.353.565.564.564.564 1.353 0 .521-.266.959a2 2 0 0 1-.693.703q-.426.255-.958.255m8.261 0q-.788 0-1.353-.564a1.85 1.85 0 0 1-.564-1.353q0-.789.564-1.353a1.85 1.85 0 0 1 1.353-.565q.789 0 1.353.565.565.564.565 1.353 0 .521-.266.959a2 2 0 0 1-.693.703q-.426.255-.959.255M306.241 56.17q-.789 0-1.353-.564a1.85 1.85 0 0 1-.565-1.353q0-.789.565-1.353a1.84 1.84 0 0 1 1.353-.565q.789 0 1.353.565.564.564.565 1.353 0 .521-.267.959-.255.435-.692.703-.426.255-.959.255m8.262 0q-.789 0-1.353-.564a1.84 1.84 0 0 1-.565-1.353q0-.789.565-1.353a1.84 1.84 0 0 1 1.353-.565q.787 0 1.353.565.564.564.564 1.353 0 .521-.266.959a2 2 0 0 1-.693.703q-.426.255-.958.255m8.261 0q-.788 0-1.353-.564a1.85 1.85 0 0 1-.564-1.353q0-.789.564-1.353a1.85 1.85 0 0 1 1.353-.565q.789 0 1.353.565.565.564.565 1.353 0 .521-.266.959a2 2 0 0 1-.693.703q-.426.255-.959.255M395.741 56.17q-.789 0-1.353-.564a1.85 1.85 0 0 1-.565-1.353q0-.789.565-1.353a1.84 1.84 0 0 1 1.353-.565q.789 0 1.353.565.564.564.565 1.353 0 .521-.267.959-.255.435-.692.703-.426.255-.959.255m8.262 0q-.789 0-1.353-.564a1.84 1.84 0 0 1-.565-1.353q0-.789.565-1.353a1.84 1.84 0 0 1 1.353-.565q.787 0 1.353.565.564.564.564 1.353 0 .521-.266.959a2 2 0 0 1-.693.703q-.426.255-.958.255m8.261 0q-.788 0-1.353-.564a1.85 1.85 0 0 1-.564-1.353q0-.789.564-1.353a1.85 1.85 0 0 1 1.353-.565q.789 0 1.353.565.565.564.565 1.353 0 .521-.266.959a2 2 0 0 1-.693.703q-.426.255-.959.255M216.741 196.17q-.789 0-1.353-.564a1.85 1.85 0 0 1-.565-1.353q0-.789.565-1.353a1.84 1.84 0 0 1 1.353-.565q.789 0 1.353.565.565.564.565 1.353 0 .522-.267.959a2 2 0 0 1-.692.703q-.426.255-.959.255m8.262 0q-.789 0-1.353-.564a1.85 1.85 0 0 1-.565-1.353q0-.789.565-1.353a1.84 1.84 0 0 1 1.353-.565q.787 0 1.353.565.564.564.564 1.353 0 .522-.266.959a2 2 0 0 1-.693.703q-.426.255-.958.255m8.261 0q-.788 0-1.353-.564a1.85 1.85 0 0 1-.564-1.353q0-.789.564-1.353a1.85 1.85 0 0 1 1.353-.565q.789 0 1.353.565.565.564.565 1.353 0 .522-.266.959a2 2 0 0 1-.693.703q-.426.255-.959.255M306.741 336.17q-.789 0-1.353-.564a1.85 1.85 0 0 1-.565-1.353q0-.789.565-1.353a1.84 1.84 0 0 1 1.353-.565q.789 0 1.353.565.564.564.565 1.353 0 .522-.267.959a2 2 0 0 1-.692.703q-.426.255-.959.255m8.262 0q-.789 0-1.353-.564a1.85 1.85 0 0 1-.565-1.353q0-.789.565-1.353a1.84 1.84 0 0 1 1.353-.565q.787 0 1.353.565.564.564.564 1.353 0 .522-.266.959a2 2 0 0 1-.693.703q-.426.255-.958.255m8.261 0q-.788 0-1.353-.564a1.85 1.85 0 0 1-.564-1.353q0-.789.564-1.353a1.85 1.85 0 0 1 1.353-.565q.789 0 1.353.565.565.564.565 1.353 0 .522-.266.959a2 2 0 0 1-.693.703q-.426.255-.959.255M351.741 476.17q-.789 0-1.353-.564a1.85 1.85 0 0 1-.565-1.353q0-.789.565-1.353a1.84 1.84 0 0 1 1.353-.565q.789 0 1.353.565.564.564.565 1.353 0 .521-.267.959a2 2 0 0 1-.692.703q-.426.255-.959.255m8.262 0q-.789 0-1.353-.564a1.85 1.85 0 0 1-.565-1.353q0-.789.565-1.353a1.84 1.84 0 0 1 1.353-.565q.787 0 1.353.565.564.564.564 1.353 0 .521-.266.959a2 2 0 0 1-.693.703q-.426.255-.958.255m8.261 0q-.788 0-1.353-.564a1.85 1.85 0 0 1-.564-1.353q0-.789.564-1.353a1.85 1.85 0 0 1 1.353-.565q.789 0 1.353.565.565.564.565 1.353 0 .521-.266.959a2 2 0 0 1-.693.703q-.426.255-.959.255M485.241 56.17q-.789 0-1.353-.564a1.85 1.85 0 0 1-.565-1.353q0-.789.565-1.353a1.84 1.84 0 0 1 1.353-.565q.789 0 1.353.565.564.564.565 1.353 0 .521-.267.959-.255.435-.692.703-.426.255-.959.255m8.262 0q-.789 0-1.353-.564a1.84 1.84 0 0 1-.565-1.353q0-.789.565-1.353a1.84 1.84 0 0 1 1.353-.565q.787 0 1.353.565.564.564.564 1.353 0 .521-.266.959a2 2 0 0 1-.693.703q-.426.255-.958.255m8.261 0q-.788 0-1.353-.564a1.85 1.85 0 0 1-.564-1.353q0-.789.564-1.353a1.85 1.85 0 0 1 1.353-.565q.789 0 1.353.565.565.564.565 1.353 0 .521-.266.959a2 2 0 0 1-.693.703q-.426.255-.959.255M306.241 196.17q-.789 0-1.353-.564a1.85 1.85 0 0 1-.565-1.353q0-.789.565-1.353a1.84 1.84 0 0 1 1.353-.565q.789 0 1.353.565.564.564.565 1.353 0 .522-.267.959a2 2 0 0 1-.692.703q-.426.255-.959.255m8.262 0q-.789 0-1.353-.564a1.85 1.85 0 0 1-.565-1.353q0-.789.565-1.353a1.84 1.84 0 0 1 1.353-.565q.787 0 1.353.565.564.564.564 1.353 0 .522-.266.959a2 2 0 0 1-.693.703q-.426.255-.958.255m8.261 0q-.788 0-1.353-.564a1.85 1.85 0 0 1-.564-1.353q0-.789.564-1.353a1.85 1.85 0 0 1 1.353-.565q.789 0 1.353.565.565.564.565 1.353 0 .522-.266.959a2 2 0 0 1-.693.703q-.426.255-.959.255M396.241 336.17q-.789 0-1.353-.564a1.85 1.85 0 0 1-.565-1.353q0-.789.565-1.353a1.84 1.84 0 0 1 1.353-.565q.789 0 1.353.565.564.564.565 1.353 0 .522-.267.959a2 2 0 0 1-.692.703q-.426.255-.959.255m8.262 0q-.789 0-1.353-.564a1.85 1.85 0 0 1-.565-1.353q0-.789.565-1.353a1.84 1.84 0 0 1 1.353-.565q.787 0 1.353.565.564.564.564 1.353 0 .522-.266.959a2 2 0 0 1-.693.703q-.426.255-.958.255m8.261 0q-.788 0-1.353-.564a1.85 1.85 0 0 1-.564-1.353q0-.789.564-1.353a1.85 1.85 0 0 1 1.353-.565q.789 0 1.353.565.565.564.565 1.353 0 .522-.266.959a2 2 0 0 1-.693.703q-.426.255-.959.255M574.741 56.17q-.789 0-1.353-.564a1.85 1.85 0 0 1-.565-1.353q0-.789.565-1.353a1.84 1.84 0 0 1 1.353-.565q.789 0 1.353.565.564.564.565 1.353 0 .521-.267.959-.255.435-.692.703-.426.255-.959.255m8.262 0q-.789 0-1.353-.564a1.84 1.84 0 0 1-.565-1.353q0-.789.565-1.353a1.84 1.84 0 0 1 1.353-.565q.788 0 1.353.565.564.564.564 1.353 0 .521-.266.959a2 2 0 0 1-.693.703q-.426.255-.958.255m8.261 0q-.788 0-1.353-.564a1.85 1.85 0 0 1-.564-1.353q0-.789.564-1.353a1.85 1.85 0 0 1 1.353-.565q.789 0 1.353.565.565.564.565 1.353 0 .521-.266.959a2 2 0 0 1-.693.703q-.426.255-.959.255M395.741 196.17q-.789 0-1.353-.564a1.85 1.85 0 0 1-.565-1.353q0-.789.565-1.353a1.84 1.84 0 0 1 1.353-.565q.789 0 1.353.565.564.564.565 1.353 0 .522-.267.959a2 2 0 0 1-.692.703q-.426.255-.959.255m8.262 0q-.789 0-1.353-.564a1.85 1.85 0 0 1-.565-1.353q0-.789.565-1.353a1.84 1.84 0 0 1 1.353-.565q.787 0 1.353.565.564.564.564 1.353 0 .522-.266.959a2 2 0 0 1-.693.703q-.426.255-.958.255m8.261 0q-.788 0-1.353-.564a1.85 1.85 0 0 1-.564-1.353q0-.789.564-1.353a1.85 1.85 0 0 1 1.353-.565q.789 0 1.353.565.565.564.565 1.353 0 .522-.266.959a2 2 0 0 1-.693.703q-.426.255-.959.255M664.741 56.17q-.789 0-1.353-.564a1.85 1.85 0 0 1-.565-1.353q0-.789.565-1.353a1.84 1.84 0 0 1 1.353-.565q.789 0 1.353.565.564.564.565 1.353 0 .521-.267.959-.255.435-.692.703-.426.255-.959.255m8.262 0q-.789 0-1.353-.564a1.84 1.84 0 0 1-.565-1.353q0-.789.565-1.353a1.84 1.84 0 0 1 1.353-.565q.788 0 1.353.565.564.564.564 1.353 0 .521-.266.959a2 2 0 0 1-.693.703q-.426.255-.958.255m8.261 0q-.788 0-1.353-.564a1.85 1.85 0 0 1-.564-1.353q0-.789.564-1.353a1.85 1.85 0 0 1 1.353-.565q.789 0 1.353.565.565.564.565 1.353 0 .521-.266.959a2 2 0 0 1-.693.703q-.426.255-.959.255M485.741 196.17q-.789 0-1.353-.564a1.85 1.85 0 0 1-.565-1.353q0-.789.565-1.353a1.84 1.84 0 0 1 1.353-.565q.789 0 1.353.565.564.564.565 1.353 0 .522-.267.959a2 2 0 0 1-.692.703q-.426.255-.959.255m8.262 0q-.789 0-1.353-.564a1.85 1.85 0 0 1-.565-1.353q0-.789.565-1.353a1.84 1.84 0 0 1 1.353-.565q.787 0 1.353.565.564.564.564 1.353 0 .522-.266.959a2 2 0 0 1-.693.703q-.426.255-.958.255m8.261 0q-.788 0-1.353-.564a1.85 1.85 0 0 1-.564-1.353q0-.789.564-1.353a1.85 1.85 0 0 1 1.353-.565q.789 0 1.353.565.565.564.565 1.353 0 .522-.266.959a2 2 0 0 1-.693.703q-.426.255-.959.255M758.568 57.318q-2.625 0-4.67-.852-2.034-.864-3.193-2.352a5.35 5.35 0 0 1-1.16-3.375q0-1.455.66-2.67a5.9 5.9 0 0 1 1.818-2.035 6 6 0 0 1 2.568-1.045v-.16q-1.864-.375-3.023-1.806-1.16-1.443-1.159-3.353 0-1.806 1.057-3.215 1.056-1.42 2.898-2.228 1.851-.818 4.204-.818t4.193.818q1.853.819 2.909 2.239 1.057 1.41 1.069 3.204-.012 1.92-1.182 3.353a5.08 5.08 0 0 1-3 1.806v.16q1.398.227 2.534 1.045a5.9 5.9 0 0 1 1.818 2.034q.683 1.215.693 2.67a5.4 5.4 0 0 1-1.17 3.376q-1.16 1.488-3.205 2.352-2.034.852-4.659.852m0-3.613q1.17 0 2.046-.42.875-.433 1.363-1.183.5-.76.5-1.75 0-1.011-.511-1.784a3.5 3.5 0 0 0-1.386-1.227q-.875-.455-2.012-.455-1.125 0-2.011.455a3.5 3.5 0 0 0-1.398 1.227q-.5.773-.5 1.784 0 .99.489 1.75.488.75 1.375 1.182.886.42 2.045.42m0-10.398q.977 0 1.739-.398a3 3 0 0 0 1.193-1.102q.432-.705.432-1.625 0-.91-.432-1.591a2.96 2.96 0 0 0-1.182-1.08q-.75-.397-1.75-.397-.988 0-1.75.397a2.95 2.95 0 0 0-1.193 1.08q-.42.682-.42 1.59 0 .921.431 1.626.432.705 1.194 1.102.761.398 1.738.398M778.494 57V39.545h4.841V57zm2.432-19.705q-1.08 0-1.852-.715-.762-.727-.762-1.74 0-1 .762-1.715a2.6 2.6 0 0 1 1.852-.727q1.08 0 1.841.727.773.716.773 1.716 0 1.011-.773 1.739-.762.715-1.841.715m15.571 2.25v3.637h-10.511v-3.637zm-8.125-4.181h4.841v16.272q0 .67.205 1.046.204.363.568.511.375.148.863.148.342 0 .682-.057.342-.068.523-.102l.761 3.602q-.363.114-1.022.261-.66.159-1.603.194-1.75.068-3.068-.466-1.307-.535-2.034-1.66t-.716-2.84zm19.046 21.977q-2.694 0-4.637-1.091-1.932-1.102-2.977-3.114-1.045-2.022-1.045-4.784 0-2.692 1.045-4.727 1.045-2.034 2.943-3.17 1.91-1.137 4.477-1.137 1.728 0 3.216.557 1.5.546 2.614 1.648 1.125 1.102 1.75 2.772.625 1.66.625 3.887v1.33H800.69v-3h10.182q0-1.047-.454-1.853a3.26 3.26 0 0 0-1.262-1.261q-.795-.466-1.852-.466-1.102 0-1.955.511-.84.5-1.318 1.352a3.8 3.8 0 0 0-.488 1.875v2.853q0 1.295.477 2.238a3.5 3.5 0 0 0 1.375 1.455q.887.51 2.102.511.807 0 1.477-.227t1.148-.682.727-1.113l4.478.295a6.1 6.1 0 0 1-1.398 2.818q-1.046 1.194-2.705 1.864-1.647.66-3.806.659m11.17-.341V39.545h4.614v3.08h.204q.546-1.535 1.818-2.42 1.273-.887 3.046-.887 1.795 0 3.057.898 1.261.886 1.682 2.409h.181q.534-1.5 1.932-2.398 1.41-.909 3.33-.909 2.442 0 3.966 1.557 1.533 1.545 1.534 4.386V57h-4.83V46.216q0-1.455-.773-2.182t-1.931-.727q-1.319 0-2.057.84-.74.83-.739 2.194V57h-4.693V46.114q0-1.284-.739-2.046-.727-.76-1.92-.761-.807 0-1.455.409-.636.398-1.011 1.125-.375.716-.375 1.682V57zm43.71-12.477-4.432.272a2.3 2.3 0 0 0-.488-1.022q-.375-.466-.989-.739-.601-.284-1.443-.284-1.125 0-1.898.477-.772.466-.772 1.25 0 .626.5 1.057.5.432 1.715.693l3.16.637q2.546.522 3.795 1.681t1.25 3.046q0 1.716-1.011 3.011-1 1.296-2.75 2.023-1.739.716-4.012.716-3.465 0-5.522-1.443-2.046-1.455-2.398-3.955l4.761-.25q.216 1.058 1.046 1.614.83.545 2.125.545 1.272 0 2.045-.488.784-.501.796-1.284-.012-.66-.557-1.08-.545-.432-1.682-.66l-3.023-.601q-2.556-.512-3.807-1.773-1.238-1.261-1.238-3.216 0-1.681.909-2.898.92-1.215 2.579-1.875 1.671-.66 3.909-.659 3.308 0 5.205 1.398 1.91 1.397 2.227 3.807M570.534 192.909v-3.875l9.716-15.307h3.341v5.364h-1.977l-6.125 9.693v.182h13.806v3.943zM581.705 197v-5.273l.09-1.716v-16.284h4.614V197zm18.321 0v-17.455h4.84V197zm2.431-19.705a2.63 2.63 0 0 1-1.852-.715q-.76-.728-.761-1.739 0-1 .761-1.716a2.6 2.6 0 0 1 1.852-.727q1.08 0 1.841.727.773.716.773 1.716 0 1.011-.773 1.739-.76.715-1.841.715m15.571 2.25v3.637h-10.511v-3.637zm-8.125-4.181h4.841v16.272q0 .67.205 1.046.204.363.568.511.375.148.864.148.34 0 .681-.057l.523-.102.762 3.602q-.364.114-1.023.261-.66.16-1.602.194-1.75.068-3.069-.466-1.306-.534-2.034-1.659t-.716-2.841zm19.046 21.977q-2.694 0-4.637-1.091a7.5 7.5 0 0 1-2.977-3.114q-1.045-2.022-1.045-4.784 0-2.693 1.045-4.727t2.943-3.17q1.91-1.137 4.478-1.137 1.726 0 3.216.557 1.5.546 2.613 1.648 1.125 1.102 1.75 2.772.625 1.66.625 3.887v1.329h-14.738v-3h10.181q0-1.045-.454-1.852a3.26 3.26 0 0 0-1.261-1.261q-.796-.466-1.853-.466-1.102 0-1.954.511-.841.5-1.319 1.352a3.8 3.8 0 0 0-.488 1.875v2.853q0 1.295.477 2.238a3.5 3.5 0 0 0 1.375 1.455q.887.511 2.102.511.807 0 1.478-.227a3.1 3.1 0 0 0 1.147-.682 2.96 2.96 0 0 0 .728-1.113l4.477.295a6.1 6.1 0 0 1-1.398 2.818q-1.045 1.194-2.704 1.864-1.649.659-3.807.659m11.17-.341v-17.455h4.614v3.08h.205q.545-1.535 1.818-2.42 1.272-.887 3.045-.887 1.796 0 3.057.898 1.261.887 1.682 2.409h.182q.534-1.5 1.931-2.398 1.41-.909 3.33-.909 2.444 0 3.966 1.557 1.534 1.545 1.534 4.386V197h-4.83v-10.784q0-1.455-.772-2.182t-1.932-.727q-1.319 0-2.057.841-.738.83-.739 2.193V197h-4.693v-10.886q0-1.284-.738-2.046-.727-.76-1.921-.761a2.66 2.66 0 0 0-1.454.409q-.637.397-1.012 1.125-.375.716-.375 1.682V197zm43.711-12.477-4.432.272a2.3 2.3 0 0 0-.489-1.022 2.6 2.6 0 0 0-.989-.739q-.601-.284-1.443-.284-1.125 0-1.897.477-.774.467-.773 1.25 0 .625.5 1.057t1.716.693l3.159.637q2.545.523 3.795 1.681 1.25 1.16 1.25 3.046 0 1.716-1.011 3.011-1 1.296-2.75 2.023-1.739.716-4.011.716-3.467 0-5.523-1.443-2.046-1.455-2.398-3.955l4.761-.25q.216 1.058 1.046 1.614.83.545 2.125.545 1.272 0 2.045-.488.784-.501.796-1.284-.012-.66-.557-1.08-.545-.432-1.682-.659l-3.023-.602q-2.556-.512-3.806-1.773Q669 186.704 669 184.75q0-1.681.909-2.898.921-1.215 2.58-1.875 1.67-.659 3.909-.659 3.306 0 5.204 1.398 1.909 1.398 2.228 3.807M480.886 337v-3.545l8.284-7.671a31 31 0 0 0 1.773-1.841q.727-.817 1.102-1.602.375-.795.375-1.716 0-1.023-.465-1.761a3.06 3.06 0 0 0-1.273-1.148q-.807-.41-1.83-.409-1.068 0-1.863.432-.796.431-1.228 1.238t-.431 1.921h-4.671q0-2.285 1.034-3.966t2.898-2.602q1.863-.921 4.295-.921 2.5 0 4.353.886 1.863.875 2.897 2.432 1.034 1.558 1.034 3.568a6.9 6.9 0 0 1-.522 2.603q-.512 1.284-1.83 2.852-1.318 1.557-3.716 3.739l-3.397 3.329v.159h9.772V337zm27.608 0v-17.455h4.841V337zm2.432-19.705a2.63 2.63 0 0 1-1.852-.715q-.762-.728-.762-1.739 0-1 .762-1.716a2.6 2.6 0 0 1 1.852-.727q1.08 0 1.841.727.773.715.773 1.716 0 1.011-.773 1.739-.762.715-1.841.715m15.571 2.25v3.637h-10.511v-3.637zm-8.125-4.181h4.841v16.272q0 .67.205 1.046.204.364.568.511.375.148.863.148.342 0 .682-.057l.523-.102.761 3.602q-.363.114-1.022.261-.66.16-1.603.194-1.75.068-3.068-.466-1.307-.534-2.034-1.659t-.716-2.841zm19.046 21.977q-2.694 0-4.637-1.091-1.932-1.103-2.977-3.114-1.045-2.022-1.045-4.784 0-2.693 1.045-4.727 1.046-2.034 2.943-3.17 1.91-1.137 4.477-1.137 1.728 0 3.216.557 1.5.546 2.614 1.648 1.125 1.102 1.75 2.772.625 1.66.625 3.887v1.329H530.69v-3h10.182q0-1.045-.454-1.852a3.26 3.26 0 0 0-1.262-1.261q-.795-.466-1.852-.466-1.102 0-1.955.511-.84.5-1.318 1.352a3.8 3.8 0 0 0-.488 1.875v2.853q0 1.295.477 2.238a3.5 3.5 0 0 0 1.375 1.455q.887.511 2.102.511.807 0 1.477-.227.67-.228 1.148-.682t.727-1.113l4.478.295a6.1 6.1 0 0 1-1.398 2.818q-1.046 1.194-2.705 1.864-1.647.659-3.806.659m11.17-.341v-17.455h4.614v3.08h.204q.546-1.535 1.818-2.42 1.273-.887 3.046-.887 1.795 0 3.057.898 1.261.887 1.682 2.409h.181q.534-1.5 1.932-2.398 1.41-.909 3.33-.909 2.442 0 3.966 1.557 1.534 1.545 1.534 4.386V337h-4.83v-10.784q0-1.455-.773-2.182t-1.931-.727q-1.319 0-2.057.841-.74.83-.739 2.193V337h-4.693v-10.886q0-1.284-.739-2.046-.727-.76-1.92-.761-.807 0-1.455.409-.636.397-1.011 1.125-.375.716-.375 1.682V337zm43.71-12.477-4.432.272a2.3 2.3 0 0 0-.488-1.022 2.6 2.6 0 0 0-.989-.739q-.601-.284-1.443-.284-1.125 0-1.898.477-.772.467-.772 1.25 0 .625.5 1.057t1.715.693l3.16.637q2.546.522 3.795 1.681t1.25 3.046q0 1.716-1.011 3.011-1 1.296-2.75 2.023-1.739.716-4.012.716-3.465 0-5.522-1.443-2.046-1.455-2.398-3.955l4.761-.25q.216 1.058 1.046 1.614.83.545 2.125.545 1.272 0 2.045-.488.784-.501.796-1.284-.012-.66-.557-1.08-.545-.432-1.682-.659l-3.023-.602q-2.556-.512-3.807-1.773-1.238-1.262-1.238-3.216 0-1.681.909-2.898.92-1.215 2.579-1.875 1.671-.659 3.909-.659 3.308 0 5.205 1.398 1.91 1.398 2.227 3.807M447.011 453.727V477h-4.92v-18.602h-.136l-5.33 3.341v-4.364l5.761-3.648zM459.994 477v-17.455h4.841V477zm2.432-19.705a2.63 2.63 0 0 1-1.852-.715q-.762-.728-.762-1.739 0-1 .762-1.716a2.6 2.6 0 0 1 1.852-.727q1.08 0 1.841.727.773.716.773 1.716 0 1.011-.773 1.739-.761.715-1.841.715m15.571 2.25v3.637h-10.511v-3.637zm-8.125-4.181h4.841v16.272q0 .67.205 1.046.204.364.568.511.375.148.863.148.342 0 .682-.057l.523-.102.761 3.602q-.363.114-1.022.261-.66.16-1.603.194-1.75.068-3.068-.466-1.306-.534-2.034-1.659t-.716-2.841zm19.046 21.977q-2.693 0-4.637-1.091-1.932-1.102-2.977-3.114-1.045-2.022-1.045-4.784 0-2.693 1.045-4.727 1.046-2.034 2.943-3.17 1.91-1.137 4.477-1.137 1.728 0 3.216.557 1.5.546 2.614 1.648 1.125 1.102 1.75 2.772.625 1.66.625 3.887v1.329H482.19v-3h10.182q0-1.045-.454-1.852a3.26 3.26 0 0 0-1.262-1.261q-.795-.466-1.852-.466-1.102 0-1.955.511-.84.5-1.318 1.352a3.8 3.8 0 0 0-.488 1.875v2.853q0 1.295.477 2.238a3.5 3.5 0 0 0 1.375 1.455q.887.511 2.102.511.807 0 1.477-.227.67-.228 1.148-.682t.727-1.113l4.478.295a6.1 6.1 0 0 1-1.398 2.818q-1.046 1.194-2.705 1.864-1.647.659-3.806.659m11.17-.341v-17.455h4.614v3.08h.204q.546-1.535 1.818-2.42 1.273-.887 3.046-.887 1.796 0 3.057.898 1.261.886 1.682 2.409h.181q.534-1.5 1.932-2.398 1.41-.909 3.33-.909 2.442 0 3.966 1.557 1.534 1.545 1.534 4.386V477h-4.83v-10.784q0-1.455-.773-2.182t-1.931-.727q-1.319 0-2.057.841-.74.83-.739 2.193V477h-4.693v-10.886q0-1.284-.739-2.046-.728-.76-1.92-.761-.807 0-1.455.409-.636.397-1.011 1.125-.375.716-.375 1.682V477z"/></svg>