<svg xmlns="http://www.w3.org/2000/svg" width="841" height="1285" fill="none" viewBox="0 0 841 1285"><path fill="#00577c" d="M362 113h120v120H362z"/><path fill="#202020" d="M0 1191c0-14.91 12.088-27 27-27h455v120H27c-14.912 0-27-12.09-27-27z"/><rect width="839" height="120" x="1" y="113" stroke="#dbdbdb" stroke-width="2" rx="26"/><rect width="839" height="120" x="1" y="1164" stroke="#dbdbdb" stroke-width="2" rx="26"/><rect width="119" height="120" x="33" y="293" stroke="#f55" stroke-width="2" rx="26"/><rect width="119" height="120" x="33" y="474" stroke="#f55" stroke-width="2" rx="26"/><rect width="119" height="120" x="33" y="655" stroke="#096" stroke-width="2" rx="26"/><rect width="119" height="120" x="232" y="293" stroke="#f55" stroke-width="2" rx="26"/><rect width="119" height="120" x="232" y="474" stroke="#f55" stroke-width="2" rx="26"/><rect width="119" height="120" x="232" y="655" stroke="#096" stroke-width="2" rx="26"/><path stroke="#dbdbdb" stroke-width="2" d="M121 112v122M121 1163v122M241 112v122M241 1163v122M362 112v122M362 1163v122M482 112v122M482 1163v122M602 112v122M602 1163v122M722 112v122M722 1163v122"/><path fill="#fff" d="M19.85 184h-2.954l8.546-23.273h2.909L36.896 184h-2.954l-6.955-19.591h-.182zm1.092-9.091H32.85v2.5H20.94zm19.216 15.636v-24h2.59v2.773h.319q.296-.454.818-1.159.534-.715 1.523-1.273 1-.567 2.704-.568 2.204 0 3.887 1.102 1.68 1.103 2.625 3.125.943 2.023.943 4.773 0 2.773-.943 4.807-.944 2.023-2.614 3.136-1.671 1.103-3.852 1.103-1.683 0-2.693-.557-1.013-.569-1.557-1.284a17 17 0 0 1-.841-1.205h-.227v9.227zm2.636-15.272q0 1.977.58 3.488.579 1.5 1.693 2.353 1.113.84 2.727.841 1.682 0 2.807-.887 1.136-.897 1.704-2.409.58-1.523.58-3.386 0-1.842-.568-3.318-.557-1.49-1.693-2.353-1.126-.875-2.83-.875-1.636 0-2.75.83-1.113.817-1.682 2.295-.568 1.467-.568 3.421m16.864 15.272v-24h2.59v2.773h.319q.296-.454.818-1.159.534-.715 1.523-1.273 1-.567 2.704-.568 2.204 0 3.887 1.102 1.68 1.103 2.625 3.125.942 2.023.943 4.773 0 2.773-.943 4.807-.944 2.023-2.614 3.136-1.671 1.103-3.852 1.103-1.682 0-2.693-.557-1.013-.569-1.557-1.284a17 17 0 0 1-.841-1.205h-.227v9.227zm2.636-15.272q0 1.977.58 3.488.579 1.5 1.693 2.353 1.113.84 2.727.841 1.682 0 2.807-.887 1.136-.897 1.704-2.409.58-1.523.58-3.386 0-1.842-.568-3.318-.557-1.49-1.693-2.353-1.126-.875-2.83-.875-1.635 0-2.75.83-1.113.817-1.682 2.295-.568 1.467-.568 3.421m19.546-14.546V184h-2.682v-23.273zm12.23 23.637q-2.523 0-4.353-1.114-1.818-1.125-2.806-3.136-.978-2.023-.978-4.705t.977-4.727q.99-2.057 2.75-3.205 1.773-1.158 4.137-1.159 1.364 0 2.693.455a6.7 6.7 0 0 1 2.42 1.477q1.091 1.011 1.739 2.682.648 1.67.648 4.113v1.137H87.842v-2.318H98.57q0-1.478-.591-2.637a4.46 4.46 0 0 0-1.66-1.829q-1.068-.67-2.522-.671-1.602 0-2.773.796a5.2 5.2 0 0 0-1.784 2.045 6 6 0 0 0-.625 2.705v1.545q0 1.978.682 3.352.693 1.365 1.92 2.08 1.228.705 2.853.705 1.056 0 1.909-.296a4.1 4.1 0 0 0 1.488-.909 4.1 4.1 0 0 0 .966-1.523l2.591.728a5.76 5.76 0 0 1-1.375 2.318q-.966.988-2.386 1.545-1.421.546-3.193.546"/><path fill="#727272" d="M19.85 1235h-2.954l8.546-23.27h2.909l8.545 23.27h-2.954l-6.955-19.59h-.182zm1.092-9.09H32.85v2.5H20.94zm19.216 15.64v-24h2.59v2.77h.319c.197-.3.47-.69.818-1.16.356-.48.864-.9 1.523-1.27q1-.57 2.704-.57c1.47 0 2.765.37 3.887 1.1 1.12.74 1.996 1.78 2.625 3.13q.943 2.01.943 4.77 0 2.775-.943 4.8c-.63 1.35-1.5 2.4-2.614 3.14s-2.398 1.1-3.852 1.1c-1.122 0-2.02-.18-2.693-.55q-1.013-.57-1.557-1.29-.546-.72-.841-1.2h-.227v9.23zm2.636-15.28c0 1.32.193 2.48.58 3.49.386 1 .95 1.79 1.693 2.35q1.113.84 2.727.84c1.121 0 2.057-.29 2.807-.88.757-.6 1.326-1.4 1.704-2.41.387-1.02.58-2.14.58-3.39 0-1.22-.19-2.33-.568-3.32-.371-.99-.936-1.77-1.693-2.35q-1.126-.87-2.83-.87c-1.09 0-2.008.27-2.75.83-.742.54-1.303 1.31-1.682 2.29q-.568 1.47-.568 3.42m16.864 15.28v-24h2.59v2.77h.319c.197-.3.47-.69.818-1.16.356-.48.864-.9 1.523-1.27q1-.57 2.704-.57c1.47 0 2.765.37 3.887 1.1 1.12.74 1.996 1.78 2.625 3.13q.942 2.01.943 4.77 0 2.775-.943 4.8c-.63 1.35-1.5 2.4-2.614 3.14s-2.398 1.1-3.852 1.1c-1.121 0-2.02-.18-2.693-.55q-1.013-.57-1.557-1.29-.546-.72-.841-1.2h-.227v9.23zm2.636-15.28c0 1.32.193 2.48.58 3.49.386 1 .95 1.79 1.693 2.35q1.113.84 2.727.84c1.121 0 2.057-.29 2.807-.88.757-.6 1.326-1.4 1.704-2.41.387-1.02.58-2.14.58-3.39 0-1.22-.19-2.33-.568-3.32-.371-.99-.936-1.77-1.693-2.35q-1.126-.87-2.83-.87c-1.09 0-2.007.27-2.75.83-.742.54-1.303 1.31-1.682 2.29q-.568 1.47-.568 3.42m19.546-14.54V1235h-2.682v-23.27zm12.23 23.63q-2.523 0-4.353-1.11c-1.212-.75-2.147-1.8-2.806-3.14-.652-1.34-.978-2.91-.978-4.7s.326-3.36.977-4.73c.66-1.37 1.576-2.44 2.75-3.2 1.182-.78 2.561-1.16 4.137-1.16q1.364 0 2.693.45c.886.31 1.693.8 2.42 1.48.728.67 1.307 1.57 1.739 2.68.432 1.12.648 2.49.648 4.12v1.13H87.842v-2.32H98.57c0-.98-.197-1.86-.591-2.63a4.37 4.37 0 0 0-1.66-1.83c-.712-.45-1.552-.67-2.522-.67-1.068 0-1.992.26-2.773.79a5.3 5.3 0 0 0-1.784 2.05 6 6 0 0 0-.625 2.7v1.55c0 1.32.227 2.43.682 3.35.462.91 1.102 1.6 1.92 2.08.819.47 1.77.7 2.853.7.704 0 1.34-.09 1.909-.29a4.2 4.2 0 0 0 1.488-.91c.417-.41.739-.92.966-1.52l2.591.72a5.7 5.7 0 0 1-1.375 2.32c-.644.66-1.44 1.18-2.386 1.55q-1.421.54-3.193.54M31.068 31V7.727h2.818V28.5h10.819V31zm24.727.364q-2.363 0-4.147-1.125-1.773-1.126-2.773-3.148-.99-2.023-.989-4.727 0-2.728.989-4.762 1-2.034 2.773-3.159 1.785-1.125 4.147-1.125 2.364 0 4.137 1.125 1.784 1.125 2.773 3.16 1 2.033 1 4.76 0 2.706-1 4.728-.99 2.022-2.773 3.148-1.772 1.125-4.137 1.125m0-2.41q1.796 0 2.955-.92t1.716-2.42.557-3.25-.557-3.262-1.716-2.443-2.955-.932-2.954.932-1.716 2.443-.557 3.262.557 3.25q.556 1.5 1.716 2.42t2.954.92M71.16 31l-5.318-17.454h2.818l3.773 13.363h.182l3.727-13.363h2.864l3.681 13.318h.182l3.773-13.318h2.818L84.341 31h-2.636l-3.819-13.41h-.272L73.796 31zM511.068 1082v-23.27h2.818v20.77h10.819v2.5zm24.727.36c-1.575 0-2.958-.37-4.147-1.12q-1.773-1.125-2.773-3.15c-.659-1.35-.989-2.92-.989-4.73s.33-3.4.989-4.76c.667-1.35 1.591-2.41 2.773-3.16 1.189-.75 2.572-1.12 4.147-1.12s2.955.37 4.137 1.12c1.189.75 2.113 1.81 2.773 3.16.666 1.36 1 2.95 1 4.76s-.334 3.38-1 4.73q-.99 2.025-2.773 3.15c-1.182.75-2.561 1.12-4.137 1.12m0-2.41c1.197 0 2.182-.3 2.955-.92.773-.61 1.345-1.42 1.716-2.42s.557-2.08.557-3.25c0-1.16-.186-2.25-.557-3.26s-.943-1.82-1.716-2.44q-1.16-.93-2.955-.93t-2.954.93c-.773.62-1.345 1.43-1.716 2.44a9.4 9.4 0 0 0-.557 3.26c0 1.17.186 2.25.557 3.25s.943 1.81 1.716 2.42c.773.62 1.757.92 2.954.92m15.364 2.05-5.318-17.45h2.818l3.773 13.36h.182l3.727-13.36h2.864l3.681 13.31h.182l3.773-13.31h2.818l-5.318 17.45h-2.636l-3.819-13.41h-.272l-3.819 13.41zM62.653 63.727V87h-2.818V66.682H59.7l-5.682 3.772v-2.863l5.818-3.864zM62.653 1114.73V1138h-2.818v-20.32H59.7l-5.682 3.77v-2.86l5.818-3.86zM172.222 87v-2.046l7.681-8.408a54 54 0 0 0 2.228-2.569q.875-1.102 1.295-2.068a5 5 0 0 0 .432-2.045q0-1.228-.591-2.125a3.83 3.83 0 0 0-1.591-1.387q-1.011-.489-2.273-.488-1.34 0-2.341.556a3.84 3.84 0 0 0-1.534 1.534q-.534.99-.534 2.319h-2.682q0-2.045.944-3.591a6.55 6.55 0 0 1 2.568-2.41q1.636-.863 3.67-.863 2.046 0 3.625.864t2.478 2.33q.897 1.466.897 3.26 0 1.285-.466 2.512-.454 1.215-1.59 2.716-1.125 1.489-3.126 3.636l-5.227 5.591v.182h10.818V87zM172.222 1138v-2.05l7.681-8.4c.902-.99 1.644-1.85 2.228-2.57q.875-1.11 1.295-2.07c.288-.65.432-1.33.432-2.05 0-.81-.197-1.52-.591-2.12a3.86 3.86 0 0 0-1.591-1.39 5.24 5.24 0 0 0-2.273-.49c-.894 0-1.674.19-2.341.56a3.86 3.86 0 0 0-1.534 1.53c-.356.66-.534 1.44-.534 2.32h-2.682c0-1.36.315-2.56.944-3.59a6.6 6.6 0 0 1 2.568-2.41c1.091-.57 2.314-.86 3.67-.86 1.364 0 2.572.29 3.625.86 1.053.58 1.879 1.35 2.478 2.33.598.98.897 2.07.897 3.26q0 1.29-.466 2.52c-.303.81-.833 1.71-1.59 2.71-.75.99-1.792 2.21-3.126 3.64l-5.227 5.59v.18h10.818v2.5zM299.585 87.318q-2.25 0-4.011-.772-1.75-.774-2.784-2.148-1.023-1.386-1.114-3.216h2.864q.09 1.124.772 1.943.683.806 1.785 1.25t2.443.443q1.5 0 2.659-.522 1.16-.524 1.818-1.455t.659-2.16q0-1.283-.636-2.26-.636-.99-1.864-1.546-1.227-.557-3-.557h-1.864v-2.5h1.864q1.386 0 2.432-.5 1.057-.5 1.648-1.409.602-.909.602-2.136 0-1.182-.523-2.057a3.57 3.57 0 0 0-1.477-1.364q-.943-.489-2.227-.488-1.205 0-2.273.443a4.23 4.23 0 0 0-1.727 1.261q-.67.819-.728 1.978h-2.727q.069-1.83 1.102-3.205 1.034-1.386 2.705-2.16 1.681-.772 3.693-.772 2.16 0 3.705.875 1.545.864 2.375 2.284a6 6 0 0 1 .829 3.068q0 1.966-1.034 3.353-1.023 1.386-2.784 1.92v.182q2.204.363 3.443 1.875 1.239 1.5 1.239 3.716 0 1.897-1.034 3.409-1.023 1.5-2.796 2.364t-4.034.863M299.585 1138.32c-1.5 0-2.837-.26-4.011-.77-1.167-.52-2.095-1.24-2.784-2.15-.682-.93-1.053-2-1.114-3.22h2.864c.06.75.318 1.4.772 1.94q.683.81 1.785 1.26c.734.29 1.549.44 2.443.44 1 0 1.886-.18 2.659-.52.773-.35 1.379-.84 1.818-1.46q.659-.93.659-2.16c0-.85-.212-1.61-.636-2.26-.424-.66-1.046-1.17-1.864-1.54-.818-.38-1.818-.56-3-.56h-1.864v-2.5h1.864c.924 0 1.735-.17 2.432-.5.705-.34 1.254-.8 1.648-1.41.401-.61.602-1.32.602-2.14 0-.79-.174-1.47-.523-2.05-.348-.59-.841-1.04-1.477-1.37-.629-.32-1.371-.49-2.227-.49q-1.205 0-2.273.45c-.705.28-1.28.71-1.727 1.26q-.67.81-.728 1.98h-2.727q.069-1.83 1.102-3.21t2.705-2.16c1.121-.51 2.352-.77 3.693-.77q2.16 0 3.705.87c1.03.58 1.822 1.34 2.375 2.29s.829 1.97.829 3.07c0 1.31-.344 2.42-1.034 3.35q-1.023 1.38-2.784 1.92v.18c1.47.24 2.617.87 3.443 1.88.826 1 1.239 2.23 1.239 3.71 0 1.27-.345 2.4-1.034 3.41-.682 1-1.614 1.79-2.796 2.36q-1.772.87-4.034.87M411.098 82.227V79.91l10.227-16.182h1.682v3.591h-1.136l-7.728 12.228v.181h13.773v2.5zM422.053 87V63.727h2.681V87zM411.098 1133.23v-2.32l10.227-16.18h1.682v3.59h-1.136l-7.728 12.23v.18h13.773v2.5zm10.955 4.77v-23.27h2.681V1138zM539.447 87.318q-2 0-3.602-.795t-2.568-2.182-1.057-3.16h2.727q.16 1.58 1.432 2.615 1.284 1.022 3.068 1.022 1.432 0 2.546-.67a4.73 4.73 0 0 0 1.761-1.841q.648-1.182.648-2.67 0-1.524-.67-2.716a4.9 4.9 0 0 0-1.819-1.898q-1.159-.693-2.647-.705a7.3 7.3 0 0 0-2.194.33q-1.125.33-1.852.852l-2.636-.318 1.409-11.455h12.091v2.5h-9.727l-.819 6.864h.137q.715-.568 1.795-.943a6.8 6.8 0 0 1 2.25-.375q2.136 0 3.807 1.023a7.14 7.14 0 0 1 2.636 2.772q.966 1.761.966 4.023 0 2.227-1 3.977a7.3 7.3 0 0 1-2.727 2.75q-1.738 1-3.955 1M539.447 1138.32c-1.333 0-2.534-.27-3.602-.8s-1.924-1.25-2.568-2.18c-.644-.92-.996-1.98-1.057-3.16h2.727c.107 1.05.584 1.93 1.432 2.62q1.284 1.02 3.068 1.02c.955 0 1.803-.23 2.546-.67a4.75 4.75 0 0 0 1.761-1.84q.648-1.185.648-2.67c0-1.02-.223-1.92-.67-2.72a4.94 4.94 0 0 0-1.819-1.9c-.772-.46-1.655-.69-2.647-.7q-1.069-.015-2.194.33c-.75.22-1.367.5-1.852.85l-2.636-.32 1.409-11.45h12.091v2.5h-9.727l-.819 6.86h.137c.477-.38 1.075-.69 1.795-.94s1.47-.38 2.25-.38c1.424 0 2.693.34 3.807 1.03 1.121.67 2 1.59 2.636 2.77q.966 1.755.966 4.02c0 1.49-.333 2.81-1 3.98a7.34 7.34 0 0 1-2.727 2.75c-1.159.66-2.477 1-3.955 1M659.652 87.318a8.7 8.7 0 0 1-2.864-.545q-1.431-.523-2.613-1.762-1.182-1.25-1.898-3.375-.716-2.136-.716-5.363 0-3.091.58-5.477.58-2.399 1.681-4.035 1.103-1.647 2.66-2.5 1.567-.852 3.534-.852 1.954 0 3.477.784a6.6 6.6 0 0 1 2.5 2.16q.966 1.386 1.25 3.193h-2.773q-.385-1.569-1.5-2.603-1.113-1.034-2.954-1.034-2.705 0-4.262 2.352-1.545 2.354-1.557 6.603h.182a6.85 6.85 0 0 1 3.466-2.716 6.8 6.8 0 0 1 2.262-.375q2 0 3.659 1 1.659.989 2.659 2.738 1 1.74 1 3.989 0 2.16-.966 3.954a7.36 7.36 0 0 1-2.716 2.842q-1.739 1.044-4.091 1.022m0-2.5q1.433 0 2.568-.716a5.1 5.1 0 0 0 1.807-1.92q.67-1.205.67-2.682 0-1.443-.647-2.625a4.95 4.95 0 0 0-1.762-1.898q-1.113-.704-2.545-.704-1.08 0-2.011.431a5.2 5.2 0 0 0-1.637 1.16 5.6 5.6 0 0 0-1.091 1.693 5.1 5.1 0 0 0-.397 1.989q0 1.386.647 2.59a5.34 5.34 0 0 0 1.796 1.944q1.147.738 2.602.738M659.652 1138.32a8.8 8.8 0 0 1-2.864-.55c-.954-.35-1.825-.93-2.613-1.76s-1.421-1.96-1.898-3.37q-.716-2.145-.716-5.37c0-2.06.193-3.88.58-5.47.386-1.6.947-2.95 1.681-4.04.735-1.1 1.622-1.93 2.66-2.5 1.045-.57 2.223-.85 3.534-.85q1.954 0 3.477.78a6.7 6.7 0 0 1 2.5 2.16c.644.93 1.061 1.99 1.25 3.2h-2.773q-.385-1.575-1.5-2.61c-.742-.69-1.727-1.03-2.954-1.03-1.803 0-3.224.78-4.262 2.35q-1.545 2.355-1.557 6.6h.182c.425-.64.928-1.19 1.512-1.64a6.6 6.6 0 0 1 1.954-1.07 6.8 6.8 0 0 1 2.262-.38c1.333 0 2.553.34 3.659 1s1.992 1.57 2.659 2.74q1 1.74 1 3.99c0 1.44-.322 2.76-.966 3.95a7.4 7.4 0 0 1-2.716 2.85q-1.739 1.035-4.091 1.02m0-2.5q1.433 0 2.568-.72a5.16 5.16 0 0 0 1.807-1.92c.447-.8.67-1.7.67-2.68 0-.96-.215-1.84-.647-2.62a4.9 4.9 0 0 0-1.762-1.9c-.742-.47-1.591-.71-2.545-.71-.72 0-1.39.15-2.011.43s-1.167.67-1.637 1.16a5.7 5.7 0 0 0-1.091 1.7 5.1 5.1 0 0 0-.397 1.99c0 .92.215 1.78.647 2.59a5.3 5.3 0 0 0 1.796 1.94c.765.49 1.632.74 2.602.74M747.474 31V7.727h2.819v10.364h12.409V7.727h2.818V31h-2.818V20.59h-12.409V31zm23.324 0V13.546h2.682V31zm1.364-20.364q-.785 0-1.352-.534a1.71 1.71 0 0 1-.557-1.284q0-.75.557-1.284A1.9 1.9 0 0 1 772.162 7q.784 0 1.341.534.568.534.568 1.284t-.568 1.284a1.87 1.87 0 0 1-1.341.534m13.276 27.273q-1.944 0-3.341-.5-1.398-.49-2.33-1.295a7.1 7.1 0 0 1-1.466-1.705l2.137-1.5q.363.477.92 1.091.557.625 1.523 1.08.976.465 2.557.465 2.113 0 3.488-1.022t1.375-3.205v-3.545h-.227q-.295.477-.841 1.181-.534.694-1.545 1.24-1 .533-2.705.533-2.114 0-3.795-1-1.671-1-2.648-2.909-.966-1.91-.966-4.636 0-2.682.943-4.67.943-2 2.625-3.091 1.682-1.103 3.886-1.103 1.705 0 2.705.568 1.011.558 1.545 1.273.546.704.841 1.16h.273v-2.773h2.591V31.5q0 2.25-1.023 3.66-1.011 1.42-2.727 2.079-1.705.67-3.795.67m-.091-9.59q1.612 0 2.727-.74 1.114-.738 1.693-2.125.58-1.386.58-3.318 0-1.886-.569-3.33-.567-1.442-1.681-2.26-1.114-.819-2.75-.819-1.705 0-2.841.864-1.125.863-1.694 2.318-.556 1.455-.556 3.227 0 1.82.568 3.216.579 1.387 1.704 2.182 1.137.784 2.819.784m15.227-7.819V31h-2.682V7.727h2.682v8.546h.227a4.93 4.93 0 0 1 1.841-2.148q1.239-.807 3.296-.807 1.784 0 3.124.716 1.341.705 2.08 2.17.75 1.455.75 3.705V31h-2.682V20.09q0-2.078-1.079-3.215-1.068-1.148-2.966-1.148-1.319 0-2.364.557a4.07 4.07 0 0 0-1.636 1.625q-.591 1.068-.591 2.591M747.474 1082v-23.27h2.819v10.36h12.409v-10.36h2.818V1082h-2.818v-10.41h-12.409V1082zm23.324 0v-17.45h2.682V1082zm1.364-20.36q-.785 0-1.352-.54a1.7 1.7 0 0 1-.557-1.28q0-.75.557-1.29c.378-.35.829-.53 1.352-.53s.97.18 1.341.53q.568.54.568 1.29c0 .5-.189.93-.568 1.28q-.557.54-1.341.54m13.276 27.27c-1.296 0-2.41-.17-3.341-.5-.932-.33-1.709-.76-2.33-1.3-.614-.53-1.102-1.09-1.466-1.7l2.137-1.5c.242.32.549.68.92 1.09q.557.63 1.523 1.08c.651.31 1.503.47 2.557.47 1.409 0 2.571-.35 3.488-1.03s1.375-1.75 1.375-3.2v-3.55h-.227c-.197.32-.477.71-.841 1.18-.356.47-.871.88-1.545 1.24q-1 .54-2.705.54c-1.409 0-2.674-.34-3.795-1q-1.671-1.005-2.648-2.91c-.644-1.27-.966-2.82-.966-4.64 0-1.79.314-3.34.943-4.67q.943-1.995 2.625-3.09c1.121-.73 2.417-1.1 3.886-1.1q1.705 0 2.705.57c.674.37 1.189.79 1.545 1.27.364.47.644.86.841 1.16h.273v-2.77h2.591v17.95q0 2.25-1.023 3.66c-.674.95-1.583 1.64-2.727 2.08-1.136.45-2.402.67-3.795.67m-.091-9.59c1.075 0 1.984-.25 2.727-.74q1.114-.735 1.693-2.13c.386-.92.58-2.03.58-3.31q0-1.89-.569-3.33c-.378-.97-.939-1.72-1.681-2.26-.743-.55-1.659-.82-2.75-.82-1.137 0-2.084.29-2.841.86-.75.58-1.315 1.35-1.694 2.32-.371.97-.556 2.04-.556 3.23q0 1.815.568 3.21c.386.93.954 1.65 1.704 2.18.758.53 1.697.79 2.819.79m15.227-7.82v10.5h-2.682v-23.27h2.682v8.54h.227a5 5 0 0 1 1.841-2.15c.826-.53 1.924-.8 3.296-.8 1.189 0 2.231.24 3.124.71s1.588 1.2 2.08 2.17c.5.97.75 2.21.75 3.71V1082h-2.682v-10.91q0-2.085-1.079-3.21c-.712-.77-1.701-1.15-2.966-1.15-.879 0-1.667.18-2.364.55a4.15 4.15 0 0 0-1.636 1.63c-.394.71-.591 1.57-.591 2.59M773.496 87l10.409-20.59v-.183h-12v-2.5h14.909v2.637L776.45 87zM773.496 1138l10.409-20.59v-.18h-12v-2.5h14.909v2.63L776.45 1138z"/><path fill="#fff" d="M155.303 184v-23.273h8.136q2.432 0 4.011.841 1.58.83 2.353 2.239.772 1.398.772 3.102 0 1.5-.534 2.477a4.15 4.15 0 0 1-1.386 1.546 6.3 6.3 0 0 1-1.852.841V172q1.068.067 2.147.75 1.08.682 1.807 1.955.727 1.272.727 3.113 0 1.75-.795 3.148-.796 1.397-2.511 2.216-1.716.818-4.466.818zm2.818-2.5h5.591q2.761 0 3.92-1.068 1.17-1.08 1.171-2.614 0-1.182-.603-2.182-.602-1.011-1.716-1.613-1.113-.614-2.636-.614h-5.727zm0-10.545h5.227q1.273 0 2.295-.5a4 4 0 0 0 1.637-1.41q.613-.909.613-2.136 0-1.534-1.068-2.602-1.068-1.08-3.386-1.08h-5.318zm22.767 13.454q-1.659 0-3.012-.625a5.17 5.17 0 0 1-2.147-1.829q-.796-1.205-.796-2.91 0-1.5.591-2.431a4.2 4.2 0 0 1 1.58-1.478 8.3 8.3 0 0 1 2.182-.795 26 26 0 0 1 2.42-.432q1.59-.204 2.58-.307 1-.112 1.454-.375.466-.261.466-.909v-.091q0-1.681-.92-2.613-.91-.933-2.762-.932-1.92 0-3.011.841-1.091.84-1.534 1.795l-2.546-.909q.683-1.591 1.818-2.477a6.8 6.8 0 0 1 2.5-1.25 10.4 10.4 0 0 1 2.682-.364q.841 0 1.932.205a6.2 6.2 0 0 1 2.125.807q1.034.613 1.716 1.852t.682 3.318V184h-2.682v-2.364h-.136q-.273.568-.909 1.216-.637.648-1.694 1.103t-2.579.454m.409-2.409q1.59 0 2.682-.625 1.102-.625 1.659-1.614a4.1 4.1 0 0 0 .568-2.079v-2.455q-.171.206-.75.375a13 13 0 0 1-1.318.284q-.74.114-1.443.205-.694.08-1.125.136-1.046.137-1.955.443-.897.296-1.454.898-.546.591-.546 1.614 0 1.398 1.034 2.113 1.046.705 2.648.705m15.167-21.273V184h-2.681v-23.273zm7.594 0V184h-2.682v-23.273z"/><path fill="#727272" d="M155.303 1235v-23.27h8.136q2.432 0 4.011.84c1.053.55 1.837 1.3 2.353 2.24.515.93.772 1.96.772 3.1 0 1-.178 1.82-.534 2.48-.348.65-.81 1.16-1.386 1.54q-.852.57-1.852.84v.23q1.068.075 2.147.75c.72.45 1.322 1.11 1.807 1.95q.727 1.275.727 3.12 0 1.74-.795 3.15c-.53.93-1.368 1.67-2.511 2.21-1.144.55-2.633.82-4.466.82zm2.818-2.5h5.591c1.841 0 3.147-.36 3.92-1.07q1.17-1.08 1.171-2.61c0-.79-.201-1.52-.603-2.18q-.602-1.02-1.716-1.62c-.742-.41-1.621-.61-2.636-.61h-5.727zm0-10.55h5.227c.848 0 1.614-.16 2.295-.5.69-.33 1.235-.8 1.637-1.4.409-.61.613-1.32.613-2.14 0-1.02-.356-1.89-1.068-2.6q-1.068-1.08-3.386-1.08h-5.318zm22.767 13.46q-1.659 0-3.012-.63a5.1 5.1 0 0 1-2.147-1.83c-.531-.8-.796-1.77-.796-2.9 0-1 .197-1.82.591-2.44a4.1 4.1 0 0 1 1.58-1.47 8.4 8.4 0 0 1 2.182-.8 29 29 0 0 1 2.42-.43c1.061-.14 1.92-.24 2.58-.31.666-.07 1.151-.2 1.454-.37.311-.18.466-.48.466-.91v-.09c0-1.12-.307-2-.92-2.62q-.91-.93-2.762-.93-1.92 0-3.011.84t-1.534 1.8l-2.546-.91c.455-1.06 1.061-1.89 1.818-2.48a6.9 6.9 0 0 1 2.5-1.25q1.364-.36 2.682-.36c.561 0 1.205.07 1.932.2q1.102.195 2.125.81c.689.41 1.261 1.03 1.716 1.85.455.83.682 1.93.682 3.32v11.5h-2.682v-2.36h-.136c-.182.38-.485.78-.909 1.21s-.989.8-1.694 1.1c-.704.31-1.564.46-2.579.46m.409-2.41c1.06 0 1.954-.21 2.682-.62q1.102-.63 1.659-1.62c.379-.66.568-1.35.568-2.08v-2.45c-.114.13-.364.26-.75.37-.379.11-.818.2-1.318.29-.493.07-.974.14-1.443.2-.463.05-.838.1-1.125.14-.697.09-1.349.24-1.955.44q-.897.3-1.454.9c-.364.39-.546.93-.546 1.61 0 .93.345 1.64 1.034 2.12.697.47 1.58.7 2.648.7m15.167-21.27V1235h-2.681v-23.27zm7.594 0V1235h-2.682v-23.27z"/><path fill="#fff" d="M285.03 168h-2.818q-.25-1.216-.875-2.136a5.8 5.8 0 0 0-1.5-1.546 6.4 6.4 0 0 0-1.944-.954 7.8 7.8 0 0 0-2.227-.319q-2.113 0-3.829 1.069-1.705 1.068-2.716 3.147-1 2.08-1 5.103t1 5.102q1.01 2.08 2.716 3.148 1.716 1.068 3.829 1.068a7.8 7.8 0 0 0 2.227-.318 6.5 6.5 0 0 0 1.944-.944 6 6 0 0 0 1.5-1.556 6 6 0 0 0 .875-2.137h2.818q-.318 1.785-1.159 3.193a8.7 8.7 0 0 1-2.091 2.398 9.2 9.2 0 0 1-2.807 1.489 10.5 10.5 0 0 1-3.307.511q-2.978 0-5.295-1.454-2.319-1.455-3.648-4.137t-1.33-6.363q0-3.682 1.33-6.364 1.329-2.682 3.648-4.136 2.317-1.455 5.295-1.455 1.762 0 3.307.511a9 9 0 0 1 2.807 1.5 8.6 8.6 0 0 1 2.091 2.387q.84 1.398 1.159 3.193m11.281 16.364q-2.363 0-4.148-1.125-1.772-1.126-2.772-3.148-.989-2.023-.989-4.727 0-2.728.989-4.762 1-2.034 2.772-3.159 1.784-1.125 4.148-1.125t4.136 1.125q1.785 1.125 2.773 3.159 1 2.034 1 4.762 0 2.704-1 4.727-.988 2.022-2.773 3.148-1.772 1.125-4.136 1.125m0-2.409q1.796 0 2.955-.921 1.158-.92 1.716-2.42.556-1.5.556-3.25t-.556-3.262q-.558-1.511-1.716-2.443-1.16-.932-2.955-.932t-2.954.932q-1.16.932-1.716 2.443-.558 1.512-.557 3.262 0 1.75.557 3.25.556 1.5 1.716 2.42 1.158.921 2.954.921m17.139 2.454q-1.66 0-3.011-.625a5.16 5.16 0 0 1-2.148-1.829q-.795-1.205-.795-2.91 0-1.5.591-2.431a4.17 4.17 0 0 1 1.579-1.478 8.3 8.3 0 0 1 2.182-.795q1.205-.273 2.42-.432 1.591-.204 2.58-.307 1-.112 1.455-.375.465-.261.465-.909v-.091q0-1.681-.92-2.613-.91-.933-2.761-.932-1.92 0-3.012.841-1.09.84-1.534 1.795l-2.545-.909q.681-1.591 1.818-2.477a6.8 6.8 0 0 1 2.5-1.25 10.4 10.4 0 0 1 2.682-.364q.84 0 1.932.205a6.2 6.2 0 0 1 2.125.807q1.034.613 1.715 1.852.682 1.239.682 3.318V184h-2.682v-2.364h-.136q-.273.568-.909 1.216t-1.693 1.103q-1.058.454-2.58.454m.409-2.409q1.591 0 2.682-.625 1.103-.625 1.659-1.614a4.1 4.1 0 0 0 .568-2.079v-2.455q-.17.206-.75.375-.567.16-1.318.284-.738.114-1.443.205-.693.08-1.125.136-1.045.137-1.954.443-.899.296-1.455.898-.546.591-.545 1.614 0 1.398 1.034 2.113 1.045.705 2.647.705m20.077-15.455v2.273h-9.045v-2.273zm-6.409-4.181h2.682V179q0 1.137.329 1.705.342.556.864.75.534.181 1.125.181.443 0 .727-.045l.455-.091.545 2.409a6 6 0 0 1-.761.205q-.489.113-1.239.113-1.136 0-2.227-.488a4.4 4.4 0 0 1-1.795-1.489q-.705-1-.705-2.523z"/><path fill="#727272" d="M285.03 1219h-2.818a5.95 5.95 0 0 0-.875-2.14 5.8 5.8 0 0 0-1.5-1.54 6.4 6.4 0 0 0-1.944-.96 7.8 7.8 0 0 0-2.227-.31c-1.409 0-2.685.35-3.829 1.06q-1.705 1.08-2.716 3.15-1 2.085-1 5.1c0 2.02.333 3.72 1 5.11.674 1.38 1.579 2.43 2.716 3.14 1.144.72 2.42 1.07 3.829 1.07.773 0 1.515-.1 2.227-.32.713-.21 1.36-.52 1.944-.94a5.8 5.8 0 0 0 1.5-1.56 6 6 0 0 0 .875-2.13h2.818c-.212 1.19-.599 2.25-1.159 3.19a8.8 8.8 0 0 1-2.091 2.4 9.2 9.2 0 0 1-2.807 1.49q-1.545.51-3.307.51c-1.985 0-3.75-.49-5.295-1.46-1.546-.97-2.762-2.34-3.648-4.13s-1.33-3.91-1.33-6.37q0-3.675 1.33-6.36 1.329-2.685 3.648-4.14c1.545-.97 3.31-1.45 5.295-1.45q1.762 0 3.307.51 1.557.51 2.807 1.5a8.6 8.6 0 0 1 2.091 2.39c.56.93.947 1.99 1.159 3.19m11.281 16.36c-1.576 0-2.958-.37-4.148-1.12q-1.772-1.125-2.772-3.15c-.659-1.35-.989-2.92-.989-4.73s.33-3.4.989-4.76c.666-1.35 1.591-2.41 2.772-3.16 1.19-.75 2.572-1.12 4.148-1.12s2.955.37 4.136 1.12c1.19.75 2.114 1.81 2.773 3.16.667 1.36 1 2.95 1 4.76s-.333 3.38-1 4.73q-.988 2.025-2.773 3.15c-1.181.75-2.56 1.12-4.136 1.12m0-2.41c1.197 0 2.182-.3 2.955-.92.772-.61 1.344-1.42 1.716-2.42s.556-2.08.556-3.25c0-1.16-.185-2.25-.556-3.26s-.944-1.82-1.716-2.44q-1.16-.93-2.955-.93t-2.954.93c-.773.62-1.345 1.43-1.716 2.44a9.4 9.4 0 0 0-.557 3.26c0 1.17.185 2.25.557 3.25.371 1 .943 1.81 1.716 2.42.772.62 1.757.92 2.954.92m17.139 2.46q-1.66 0-3.011-.63a5.1 5.1 0 0 1-2.148-1.83c-.53-.8-.795-1.77-.795-2.9 0-1 .197-1.82.591-2.44q.59-.945 1.579-1.47a8.4 8.4 0 0 1 2.182-.8c.803-.18 1.61-.32 2.42-.43 1.061-.14 1.921-.24 2.58-.31.667-.07 1.152-.2 1.455-.37.31-.18.465-.48.465-.91v-.09c0-1.12-.306-2-.92-2.62q-.91-.93-2.761-.93-1.92 0-3.012.84-1.09.84-1.534 1.8l-2.545-.91c.454-1.06 1.06-1.89 1.818-2.48a6.9 6.9 0 0 1 2.5-1.25q1.363-.36 2.682-.36c.56 0 1.204.07 1.932.2q1.101.195 2.125.81c.689.41 1.261 1.03 1.715 1.85.455.83.682 1.93.682 3.32v11.5h-2.682v-2.36h-.136c-.182.38-.485.78-.909 1.21s-.989.8-1.693 1.1c-.705.31-1.565.46-2.58.46m.409-2.41c1.061 0 1.955-.21 2.682-.62q1.103-.63 1.659-1.62c.379-.66.568-1.35.568-2.08v-2.45c-.113.13-.363.26-.75.37-.378.11-.818.2-1.318.29-.492.07-.973.14-1.443.2-.462.05-.837.1-1.125.14-.697.09-1.348.24-1.954.44q-.899.3-1.455.9c-.364.39-.545.93-.545 1.61 0 .93.344 1.64 1.034 2.12.697.47 1.579.7 2.647.7m20.077-15.45v2.27h-9.045v-2.27zm-6.409-4.19h2.682V1230c0 .76.11 1.33.329 1.7q.342.57.864.75c.356.13.731.19 1.125.19.295 0 .538-.02.727-.05q.284-.06.455-.09l.545 2.41c-.182.07-.435.14-.761.2q-.489.12-1.239.12c-.757 0-1.5-.17-2.227-.49a4.43 4.43 0 0 1-1.795-1.49q-.705-1.005-.705-2.52zM466.849 797v-23.273h2.819V794.5h10.818v2.5zm24.728.364q-2.364 0-4.148-1.125-1.773-1.125-2.773-3.148-.988-2.023-.988-4.727 0-2.728.988-4.762 1-2.034 2.773-3.159 1.784-1.125 4.148-1.125t4.136 1.125q1.784 1.125 2.773 3.159 1 2.034 1 4.762 0 2.704-1 4.727-.989 2.023-2.773 3.148-1.773 1.125-4.136 1.125m0-2.409q1.796 0 2.954-.921 1.16-.92 1.716-2.42.557-1.5.557-3.25t-.557-3.262q-.556-1.511-1.716-2.443-1.158-.932-2.954-.932t-2.955.932q-1.16.932-1.716 2.443-.557 1.512-.557 3.262t.557 3.25q.556 1.5 1.716 2.42 1.16.921 2.955.921M506.94 797l-5.318-17.455h2.818l3.773 13.364h.182l3.727-13.364h2.864l3.682 13.319h.181l3.773-13.319h2.818L520.122 797h-2.636l-3.818-13.409h-.273L509.577 797zm32.137-11.227v-2.455h14v2.455zm0 6.727v-2.455h14v2.455zm29.003 4.5v-17.455h2.59v2.728h.228q.545-1.398 1.761-2.171 1.216-.784 2.921-.784 1.726 0 2.875.784 1.159.773 1.806 2.171h.182a5.1 5.1 0 0 1 2.012-2.148q1.34-.807 3.215-.807 2.342 0 3.83 1.466 1.488 1.455 1.489 4.534V797h-2.682v-11.682q0-1.932-1.057-2.761t-2.489-.83q-1.84 0-2.852 1.114-1.011 1.103-1.011 2.795V797h-2.728v-11.955q0-1.488-.965-2.397-.966-.921-2.489-.921a3.7 3.7 0 0 0-1.955.557 4.2 4.2 0 0 0-1.454 1.546q-.546.977-.546 2.261V797zm27.812 0v-17.455h2.682V797zm1.364-20.364q-.785 0-1.353-.534a1.72 1.72 0 0 1-.556-1.284q0-.75.556-1.284.569-.534 1.353-.534.783 0 1.341.534.568.534.568 1.284t-.568 1.284a1.87 1.87 0 0 1-1.341.534m12.821 20.728q-2.182 0-3.853-1.103-1.67-1.114-2.613-3.136-.943-2.034-.943-4.807 0-2.75.943-4.773t2.625-3.125 3.886-1.102q1.705 0 2.693.568 1 .558 1.523 1.273.534.705.83 1.159h.227v-8.591h2.682V797h-2.591v-2.682h-.318q-.296.477-.841 1.205-.546.715-1.557 1.284-1.011.557-2.693.557m.363-2.409q1.614 0 2.728-.841 1.113-.853 1.693-2.353.579-1.51.579-3.488 0-1.954-.568-3.421-.568-1.478-1.682-2.295-1.113-.83-2.75-.83-1.704 0-2.841.875-1.125.864-1.693 2.353-.557 1.476-.557 3.318 0 1.863.569 3.386.579 1.512 1.704 2.409 1.137.887 2.818.887m19.512 2.409q-2.182 0-3.853-1.103-1.67-1.114-2.613-3.136-.943-2.034-.943-4.807 0-2.75.943-4.773t2.625-3.125 3.886-1.102q1.705 0 2.693.568 1 .558 1.523 1.273.534.705.83 1.159h.227v-8.591h2.682V797h-2.591v-2.682h-.318q-.296.477-.841 1.205-.546.715-1.557 1.284-1.011.557-2.693.557m.363-2.409q1.614 0 2.728-.841 1.113-.853 1.693-2.353.579-1.51.579-3.488 0-1.954-.568-3.421-.568-1.478-1.682-2.295-1.113-.83-2.75-.83-1.704 0-2.841.875-1.125.864-1.693 2.353-.557 1.476-.557 3.318 0 1.863.569 3.386.579 1.512 1.704 2.409 1.137.887 2.818.887m15.603-21.228V797h-2.682v-23.273zm12.23 23.637q-2.523 0-4.353-1.114-1.818-1.125-2.806-3.136-.978-2.023-.978-4.705t.978-4.727q.988-2.057 2.75-3.205 1.772-1.159 4.136-1.159 1.364 0 2.693.455a6.7 6.7 0 0 1 2.421 1.477q1.09 1.011 1.738 2.682.648 1.67.648 4.113v1.137H651.92v-2.318h10.728q0-1.477-.591-2.637a4.47 4.47 0 0 0-1.659-1.829q-1.068-.67-2.523-.671-1.602 0-2.773.796a5.23 5.23 0 0 0-1.784 2.045 6 6 0 0 0-.625 2.705v1.545q0 1.977.682 3.352.693 1.365 1.92 2.08 1.228.705 2.853.705 1.057 0 1.909-.296a4.1 4.1 0 0 0 1.488-.909q.625-.614.966-1.523l2.591.728a5.74 5.74 0 0 1-1.375 2.318q-.966.989-2.386 1.545-1.42.546-3.193.546m27.125-4.455v-15h2.545v15zm-6.228-6.227v-2.546h15v2.546zm37.64-12.955V797h-2.819v-20.318h-.136l-5.682 3.773v-2.864l5.818-3.864zM538.749 830.227v-2.454h14v2.454zm0 6.728V834.5h14v2.455zm28.412 2.272v-2.318l10.227-16.182h1.682v3.591h-1.137l-7.727 12.227v.182h13.773v2.5zM578.115 844v-23.273h2.682V844zm25.986-4.091v-15h2.545v15zm-6.227-6.227v-2.546h15v2.546zm37.639-12.955V844h-2.818v-20.318h-.137l-5.682 3.773v-2.864l5.819-3.864zM538.264 877.227v-2.454h14v2.454zm0 6.728V881.5h14v2.455zm36.23 7.363q-2 0-3.602-.795-1.602-.796-2.568-2.182t-1.057-3.159h2.727q.16 1.58 1.432 2.613 1.284 1.023 3.068 1.023 1.432 0 2.546-.67a4.73 4.73 0 0 0 1.761-1.841q.648-1.182.648-2.671 0-1.522-.671-2.716a4.9 4.9 0 0 0-1.818-1.897q-1.158-.693-2.648-.705a7.3 7.3 0 0 0-2.193.33q-1.125.33-1.852.852l-2.636-.318 1.409-11.455h12.091v2.5h-9.728l-.818 6.864h.137q.715-.568 1.795-.943a6.8 6.8 0 0 1 2.25-.375q2.136 0 3.807 1.022 1.682 1.012 2.636 2.773.966 1.761.966 4.023 0 2.228-1 3.977a7.3 7.3 0 0 1-2.727 2.75q-1.738 1-3.955 1"/><path fill="#fff" d="M391.74 184v-23.273h2.818v11.546h.273l10.455-11.546h3.681l-9.772 10.5L408.967 184h-3.409l-8.091-10.818-2.909 3.273V184zm21.605 0v-17.455h2.682V184zm1.364-20.364q-.785 0-1.352-.534a1.71 1.71 0 0 1-.557-1.284q0-.75.557-1.284a1.9 1.9 0 0 1 1.352-.534q.785 0 1.341.534.568.534.568 1.284t-.568 1.284a1.87 1.87 0 0 1-1.341.534M424.893 184l-5.318-17.455h2.818l3.773 13.364h.182l3.727-13.364h2.864l3.682 13.319h.182l3.772-13.319h2.818L438.075 184h-2.636l-3.818-13.409h-.273L427.53 184zm22.046 0v-17.455h2.682V184zm1.364-20.364q-.784 0-1.353-.534a1.72 1.72 0 0 1-.557-1.284q0-.75.557-1.284.569-.534 1.353-.534.783 0 1.34.534.569.534.569 1.284t-.569 1.284a1.87 1.87 0 0 1-1.34.534"/><path fill="#727272" d="M391.74 1235v-23.27h2.818v11.54h.273l10.455-11.54h3.681l-9.772 10.5 9.772 12.77h-3.409l-8.091-10.82-2.909 3.27v7.55zm21.605 0v-17.45h2.682V1235zm1.364-20.36q-.785 0-1.352-.54a1.7 1.7 0 0 1-.557-1.28q0-.75.557-1.29c.378-.35.829-.53 1.352-.53s.97.18 1.341.53q.568.54.568 1.29c0 .5-.189.93-.568 1.28q-.556.54-1.341.54m10.184 20.36-5.318-17.45h2.818l3.773 13.36h.182l3.727-13.36h2.864l3.682 13.31h.182l3.772-13.31h2.818l-5.318 17.45h-2.636l-3.818-13.41h-.273L427.53 1235zm22.046 0v-17.45h2.682V1235zm1.364-20.36q-.784 0-1.353-.54a1.7 1.7 0 0 1-.557-1.28q0-.75.557-1.29c.379-.35.83-.53 1.353-.53.522 0 .969.18 1.34.53q.569.54.569 1.29c0 .5-.19.93-.569 1.28q-.557.54-1.34.54"/><path fill="#fff" d="M510.709 160.727h3.363l7.91 19.318h.272l7.909-19.318h3.364V184h-2.636v-17.682h-.228L523.391 184h-2.546l-7.273-17.682h-.227V184h-2.636zm33.241 23.682q-1.66 0-3.011-.625a5.16 5.16 0 0 1-2.148-1.829q-.795-1.205-.795-2.91 0-1.5.591-2.431a4.17 4.17 0 0 1 1.579-1.478 8.3 8.3 0 0 1 2.182-.795q1.205-.273 2.42-.432 1.591-.204 2.58-.307 1-.112 1.455-.375.465-.261.465-.909v-.091q0-1.681-.92-2.613-.91-.933-2.761-.932-1.92 0-3.012.841-1.09.84-1.534 1.795l-2.545-.909q.681-1.591 1.818-2.477a6.8 6.8 0 0 1 2.5-1.25 10.4 10.4 0 0 1 2.682-.364q.84 0 1.932.205a6.2 6.2 0 0 1 2.125.807q1.034.613 1.715 1.852.682 1.239.682 3.318V184h-2.682v-2.364h-.136q-.273.568-.909 1.216-.637.648-1.693 1.103-1.058.454-2.58.454m.409-2.409q1.592 0 2.682-.625 1.103-.625 1.659-1.614a4.1 4.1 0 0 0 .568-2.079v-2.455q-.17.206-.75.375-.567.16-1.318.284-.738.114-1.443.205-.693.08-1.125.136-1.045.137-1.954.443-.899.296-1.455.898-.545.591-.545 1.614 0 1.398 1.034 2.113 1.045.705 2.647.705m15.168-8.5V184h-2.682v-17.455h2.591v2.728h.227a5 5 0 0 1 1.864-2.137q1.25-.818 3.227-.818 1.773 0 3.103.727 1.329.717 2.068 2.182.738 1.455.738 3.682V184h-2.681v-10.909q0-2.056-1.069-3.205-1.068-1.158-2.931-1.159-1.285 0-2.296.557-1 .557-1.579 1.625-.58 1.068-.58 2.591M510.709 1211.73h3.363l7.91 19.32h.272l7.909-19.32h3.364V1235h-2.636v-17.68h-.228l-7.272 17.68h-2.546l-7.273-17.68h-.227V1235h-2.636zm33.241 23.68q-1.66 0-3.011-.63a5.1 5.1 0 0 1-2.148-1.83c-.53-.8-.795-1.77-.795-2.9 0-1 .197-1.82.591-2.44q.59-.945 1.579-1.47a8.4 8.4 0 0 1 2.182-.8c.803-.18 1.61-.32 2.42-.43 1.061-.14 1.921-.24 2.58-.31.667-.07 1.152-.2 1.455-.37.31-.18.465-.48.465-.91v-.09c0-1.12-.306-2-.92-2.62q-.91-.93-2.761-.93-1.92 0-3.012.84-1.09.84-1.534 1.8l-2.545-.91c.454-1.06 1.06-1.89 1.818-2.48a6.9 6.9 0 0 1 2.5-1.25q1.364-.36 2.682-.36c.56 0 1.204.07 1.932.2q1.101.195 2.125.81c.689.41 1.261 1.03 1.715 1.85.455.83.682 1.93.682 3.32v11.5h-2.682v-2.36h-.136c-.182.38-.485.78-.909 1.21s-.989.8-1.693 1.1c-.705.31-1.565.46-2.58.46m.409-2.41c1.061 0 1.955-.21 2.682-.62q1.103-.63 1.659-1.62c.379-.66.568-1.35.568-2.08v-2.45c-.113.13-.363.26-.75.37-.378.11-.818.2-1.318.29-.492.07-.973.14-1.443.2-.462.05-.837.1-1.125.14-.697.09-1.348.24-1.954.44q-.899.3-1.455.9c-.364.39-.545.93-.545 1.61 0 .93.344 1.64 1.034 2.12.697.47 1.579.7 2.647.7m15.168-8.5v10.5h-2.682v-17.45h2.591v2.72h.227a4.96 4.96 0 0 1 1.864-2.13c.833-.55 1.909-.82 3.227-.82 1.182 0 2.216.24 3.103.73.886.47 1.575 1.2 2.068 2.18.492.97.738 2.19.738 3.68V1235h-2.681v-10.91c0-1.37-.357-2.44-1.069-3.2-.712-.78-1.689-1.16-2.931-1.16-.857 0-1.622.18-2.296.55a4.06 4.06 0 0 0-1.579 1.63c-.387.71-.58 1.57-.58 2.59M54.967 343.227v-2.5h17.455v2.5h-7.318V364h-2.818v-20.773zM76.407 364v-17.455h2.683V364zm1.364-20.364q-.783 0-1.352-.534a1.72 1.72 0 0 1-.557-1.284q0-.75.557-1.284.569-.534 1.352-.534.785 0 1.341.534.568.534.568 1.284t-.568 1.284a1.87 1.87 0 0 1-1.34.534m13.276 27.273q-1.944 0-3.341-.5-1.397-.489-2.33-1.295-.92-.796-1.466-1.705l2.137-1.5q.364.477.92 1.091.557.625 1.523 1.08.978.465 2.557.465 2.114 0 3.489-1.022t1.374-3.205v-3.545h-.227q-.296.477-.84 1.182-.535.693-1.546 1.238-1 .534-2.705.534-2.114 0-3.795-1-1.67-1-2.648-2.909-.966-1.91-.966-4.636 0-2.682.943-4.671.944-2 2.625-3.091 1.683-1.101 3.887-1.102 1.704 0 2.704.568 1.012.558 1.546 1.273.545.705.84 1.159h.273v-2.773h2.591V364.5q0 2.25-1.022 3.659-1.012 1.42-2.728 2.08-1.704.67-3.795.67m-.091-9.591q1.614 0 2.727-.738 1.114-.74 1.693-2.125.58-1.387.58-3.319 0-1.886-.568-3.329-.569-1.443-1.682-2.262-1.115-.818-2.75-.818-1.704 0-2.84.864-1.125.864-1.694 2.318-.557 1.455-.557 3.227 0 1.818.568 3.216.58 1.387 1.705 2.182 1.136.784 2.818.784m19.864 3.046q-2.523 0-4.353-1.114-1.818-1.125-2.806-3.136-.978-2.023-.978-4.705t.978-4.727q.988-2.057 2.75-3.205 1.772-1.159 4.136-1.159 1.364 0 2.693.455a6.7 6.7 0 0 1 2.421 1.477q1.09 1.011 1.738 2.682.648 1.67.648 4.113v1.137h-13.455v-2.318h10.728q0-1.478-.591-2.637a4.47 4.47 0 0 0-1.659-1.829q-1.069-.67-2.523-.671-1.602 0-2.773.796a5.2 5.2 0 0 0-1.784 2.045 6 6 0 0 0-.625 2.705v1.545q0 1.977.682 3.352.693 1.365 1.92 2.08 1.228.705 2.853.705 1.056 0 1.909-.296a4.1 4.1 0 0 0 1.488-.909q.626-.614.966-1.523l2.591.728a5.75 5.75 0 0 1-1.375 2.318q-.966.988-2.386 1.545-1.421.546-3.193.546m11.306-.364v-17.455h2.591v2.637h.182q.477-1.296 1.727-2.102 1.25-.807 2.819-.807.296 0 .738.011.444.012.671.034v2.727a9 9 0 0 0-.625-.102 6 6 0 0 0-1.012-.079q-1.273 0-2.272.534a4.03 4.03 0 0 0-1.569 1.454q-.567.921-.568 2.103V364zM54.967 524.227v-2.5h17.455v2.5h-7.318V545h-2.818v-20.773zM76.407 545v-17.455h2.683V545zm1.364-20.364q-.783 0-1.352-.534a1.72 1.72 0 0 1-.557-1.284q0-.75.557-1.284.569-.534 1.352-.534.785 0 1.341.534.568.534.568 1.284t-.568 1.284a1.87 1.87 0 0 1-1.34.534m13.276 27.273q-1.944 0-3.341-.5-1.397-.489-2.33-1.295-.92-.796-1.466-1.705l2.137-1.5q.364.477.92 1.091.557.626 1.523 1.08.978.465 2.557.465 2.114 0 3.489-1.022t1.374-3.205v-3.545h-.227q-.296.477-.84 1.182-.535.693-1.546 1.238-1 .534-2.705.534-2.114 0-3.795-1-1.67-1-2.648-2.909-.966-1.91-.966-4.636 0-2.682.943-4.671.944-2 2.625-3.091 1.683-1.101 3.887-1.102 1.704 0 2.704.568 1.012.558 1.546 1.273.545.705.84 1.159h.273v-2.773h2.591V545.5q0 2.25-1.022 3.659-1.012 1.42-2.728 2.08-1.704.67-3.795.67m-.091-9.591q1.614 0 2.727-.738 1.114-.74 1.693-2.125.58-1.387.58-3.319 0-1.886-.568-3.329-.569-1.443-1.682-2.262-1.115-.818-2.75-.818-1.704 0-2.84.864-1.125.864-1.694 2.318-.557 1.455-.557 3.227 0 1.818.568 3.216.58 1.387 1.705 2.182 1.136.784 2.818.784m19.864 3.046q-2.523 0-4.353-1.114-1.818-1.125-2.806-3.136-.978-2.023-.978-4.705t.978-4.727q.988-2.057 2.75-3.205 1.772-1.159 4.136-1.159 1.364 0 2.693.455a6.7 6.7 0 0 1 2.421 1.477q1.09 1.011 1.738 2.682.648 1.67.648 4.113v1.137h-13.455v-2.318h10.728q0-1.477-.591-2.637a4.47 4.47 0 0 0-1.659-1.829q-1.069-.67-2.523-.671-1.602 0-2.773.796a5.2 5.2 0 0 0-1.784 2.045 6 6 0 0 0-.625 2.705v1.545q0 1.977.682 3.352.693 1.365 1.92 2.08 1.228.705 2.853.705 1.056 0 1.909-.296a4.1 4.1 0 0 0 1.488-.909q.626-.614.966-1.523l2.591.728a5.75 5.75 0 0 1-1.375 2.318q-.966.989-2.386 1.545-1.421.546-3.193.546m11.306-.364v-17.455h2.591v2.637h.182q.477-1.296 1.727-2.102 1.25-.807 2.819-.807.296 0 .738.011.444.012.671.034v2.727a9 9 0 0 0-.625-.102 6 6 0 0 0-1.012-.079q-1.273 0-2.272.534a4.03 4.03 0 0 0-1.569 1.454q-.567.921-.568 2.103V545zM54.967 705.227v-2.5h17.455v2.5h-7.318V726h-2.818v-20.773zM76.407 726v-17.455h2.683V726zm1.364-20.364q-.783 0-1.352-.534a1.72 1.72 0 0 1-.557-1.284q0-.75.557-1.284.569-.534 1.352-.534.785 0 1.341.534.568.534.568 1.284t-.568 1.284a1.87 1.87 0 0 1-1.34.534m13.276 27.273q-1.944 0-3.341-.5-1.397-.489-2.33-1.295-.92-.796-1.466-1.705l2.137-1.5q.364.477.92 1.091.557.626 1.523 1.08.978.465 2.557.465 2.114 0 3.489-1.022t1.374-3.205v-3.545h-.227q-.296.477-.84 1.182-.535.693-1.546 1.238-1 .534-2.705.534-2.114 0-3.795-1-1.67-1-2.648-2.909-.966-1.91-.966-4.636 0-2.682.943-4.671.944-2 2.625-3.091 1.683-1.102 3.887-1.102 1.704 0 2.704.568 1.012.558 1.546 1.273.545.705.84 1.159h.273v-2.773h2.591V726.5q0 2.25-1.022 3.659-1.012 1.42-2.728 2.08-1.704.67-3.795.67m-.091-9.591q1.614 0 2.727-.738 1.114-.74 1.693-2.125.58-1.387.58-3.319 0-1.886-.568-3.329-.569-1.443-1.682-2.262-1.115-.818-2.75-.818-1.704 0-2.84.864-1.125.864-1.694 2.318-.557 1.455-.557 3.227 0 1.818.568 3.216.58 1.387 1.705 2.182 1.136.784 2.818.784m19.864 3.046q-2.523 0-4.353-1.114-1.818-1.125-2.806-3.136-.978-2.023-.978-4.705t.978-4.727q.988-2.057 2.75-3.205 1.772-1.159 4.136-1.159 1.364 0 2.693.455a6.7 6.7 0 0 1 2.421 1.477q1.09 1.011 1.738 2.682.648 1.67.648 4.113v1.137h-13.455v-2.318h10.728q0-1.477-.591-2.637a4.47 4.47 0 0 0-1.659-1.829q-1.069-.67-2.523-.671-1.602 0-2.773.796a5.2 5.2 0 0 0-1.784 2.045 6 6 0 0 0-.625 2.705v1.545q0 1.977.682 3.352.693 1.365 1.92 2.08 1.228.705 2.853.705 1.056 0 1.909-.296a4.1 4.1 0 0 0 1.488-.909q.626-.614.966-1.523l2.591.728a5.75 5.75 0 0 1-1.375 2.318q-.966.989-2.386 1.545-1.421.546-3.193.546m11.306-.364v-17.455h2.591v2.637h.182q.477-1.296 1.727-2.102 1.25-.807 2.819-.807.296 0 .738.011.444.012.671.034v2.727a9 9 0 0 0-.625-.102 6 6 0 0 0-1.012-.079q-1.273 0-2.272.534a4.03 4.03 0 0 0-1.569 1.454q-.567.921-.568 2.103V726zM193.52 344.642h5.256l-8.196 21.449h-5.27zm-11.335 8.523v-5.043h19.616v5.043zm0 9.432v-5.043h19.616v5.043zM181.785 538.866v-5l20-8.806v5.752l-13.693 5.498.185-.299v.711l-.185-.299 13.693 5.497v5.753zm18.977-20.525-19.105 31.534h-2.67l19.105-31.534zM202 719.866l-20 8.807v-5.753l13.693-5.497-.184.299v-.711l.184.299L182 711.812v-5.752l20 8.806zM262.74 364v-23.273h2.818v11.546h.273l10.455-11.546h3.681l-9.772 10.5L279.967 364h-3.409l-8.091-10.818-2.909 3.273V364zm21.605 0v-17.455h2.682V364zm1.364-20.364q-.785 0-1.352-.534a1.71 1.71 0 0 1-.557-1.284q0-.75.557-1.284a1.9 1.9 0 0 1 1.352-.534q.785 0 1.341.534.568.534.568 1.284t-.568 1.284a1.87 1.87 0 0 1-1.341.534M295.893 364l-5.318-17.455h2.818l3.773 13.364h.182l3.727-13.364h2.864l3.682 13.319h.182l3.772-13.319h2.818L309.075 364h-2.636l-3.818-13.409h-.273L298.53 364zm22.046 0v-17.455h2.682V364zm1.364-20.364q-.784 0-1.353-.534a1.72 1.72 0 0 1-.557-1.284q0-.75.557-1.284.569-.534 1.353-.534.783 0 1.34.534.569.534.569 1.284t-.569 1.284a1.87 1.87 0 0 1-1.34.534"/><path fill="#f55" d="M520.629 340.727V364h-4.25l-10.125-14.648h-.17V364h-4.921v-23.273h4.319l10.045 14.637h.205v-14.637zm11.861 23.614q-2.648 0-4.579-1.125a7.7 7.7 0 0 1-2.966-3.159q-1.046-2.034-1.046-4.716 0-2.705 1.046-4.727 1.045-2.034 2.966-3.159 1.931-1.137 4.579-1.137t4.568 1.137q1.932 1.125 2.978 3.159 1.044 2.022 1.045 4.727 0 2.682-1.045 4.716a7.7 7.7 0 0 1-2.978 3.159q-1.92 1.125-4.568 1.125m.023-3.75q1.204 0 2.011-.682.807-.693 1.216-1.886.42-1.194.421-2.716 0-1.523-.421-2.716-.41-1.193-1.216-1.886-.807-.694-2.011-.694-1.217 0-2.046.694-.818.692-1.238 1.886-.41 1.193-.409 2.716 0 1.522.409 2.716.42 1.193 1.238 1.886.83.682 2.046.682m21-14.046v3.637h-10.512v-3.637zm-8.125-4.181h4.841v16.272q0 .67.204 1.046.205.364.568.511.375.148.864.148.341 0 .682-.057l.523-.102.761 3.602q-.363.114-1.023.261-.659.16-1.602.194-1.75.068-3.068-.466-1.307-.534-2.034-1.659-.728-1.125-.716-2.841zm23.662 21.966q-1.67 0-2.978-.58a4.8 4.8 0 0 1-2.068-1.739q-.75-1.158-.75-2.886 0-1.455.534-2.443a4.3 4.3 0 0 1 1.455-1.591 7 7 0 0 1 2.091-.909 16 16 0 0 1 2.477-.432 65 65 0 0 0 2.455-.295q.932-.148 1.352-.432t.42-.841v-.068q0-1.08-.681-1.671-.67-.591-1.91-.591-1.307 0-2.079.58-.772.568-1.023 1.432l-4.477-.364q.34-1.591 1.341-2.75 1-1.17 2.579-1.795 1.591-.637 3.682-.637 1.455 0 2.784.341a7.3 7.3 0 0 1 2.375 1.057 5.14 5.14 0 0 1 1.648 1.841q.603 1.113.602 2.67V364h-4.591v-2.42h-.136a4.9 4.9 0 0 1-1.125 1.443 5.2 5.2 0 0 1-1.693.966q-.989.34-2.284.341m1.386-3.341q1.068 0 1.886-.421a3.34 3.34 0 0 0 1.285-1.159q.465-.727.465-1.648v-1.852a2.6 2.6 0 0 1-.625.273q-.386.114-.875.216-.488.09-.977.17l-.886.125a6 6 0 0 0-1.489.398q-.636.273-.988.739-.353.454-.353 1.136 0 .989.716 1.511.728.512 1.841.512M590.041 364v-17.455h4.614v3.08h.204q.546-1.535 1.819-2.42 1.272-.887 3.045-.887 1.795 0 3.057.898 1.261.886 1.682 2.409h.181q.535-1.5 1.932-2.398 1.41-.909 3.33-.909 2.444 0 3.966 1.557 1.534 1.545 1.534 4.386V364h-4.83v-10.784q0-1.455-.772-2.182-.774-.727-1.932-.727-1.319 0-2.057.841-.74.83-.739 2.193V364h-4.693v-10.886q0-1.284-.739-2.046-.727-.76-1.92-.761-.807 0-1.455.409-.636.397-1.011 1.125-.375.716-.375 1.682V364zm34.165.33q-1.67 0-2.977-.58a4.8 4.8 0 0 1-2.068-1.739q-.75-1.158-.75-2.886 0-1.455.534-2.443a4.3 4.3 0 0 1 1.454-1.591 7 7 0 0 1 2.091-.909 16 16 0 0 1 2.477-.432 65 65 0 0 0 2.455-.295q.932-.148 1.352-.432t.421-.841v-.068q0-1.08-.682-1.671-.671-.591-1.909-.591-1.308 0-2.08.58-.772.568-1.023 1.432l-4.477-.364q.34-1.591 1.341-2.75 1-1.17 2.58-1.795 1.59-.637 3.681-.637 1.455 0 2.785.341 1.34.341 2.375 1.057a5.14 5.14 0 0 1 1.647 1.841q.603 1.113.603 2.67V364h-4.591v-2.42h-.137a4.9 4.9 0 0 1-1.125 1.443 5.2 5.2 0 0 1-1.693.966q-.988.34-2.284.341m1.386-3.341q1.068 0 1.887-.421a3.35 3.35 0 0 0 1.284-1.159q.466-.727.466-1.648v-1.852a2.6 2.6 0 0 1-.625.273q-.387.114-.875.216-.489.09-.978.17l-.886.125a6 6 0 0 0-1.489.398q-.636.273-.988.739-.352.454-.352 1.136 0 .989.715 1.511.728.512 1.841.512m21.483-14.444v3.637h-10.511v-3.637zm-8.125-4.181h4.841v16.272q0 .67.205 1.046.204.364.568.511.375.148.864.148.34 0 .681-.057l.523-.102.761 3.602q-.363.114-1.022.261-.66.16-1.603.194-1.75.068-3.068-.466-1.306-.534-2.034-1.659t-.716-2.841zm18.978 21.977q-2.682 0-4.614-1.136a7.7 7.7 0 0 1-2.955-3.182q-1.022-2.034-1.022-4.682 0-2.682 1.034-4.705 1.045-2.034 2.966-3.17 1.92-1.148 4.568-1.148 2.284 0 4 .83t2.716 2.329q1 1.5 1.102 3.523h-4.568q-.194-1.307-1.023-2.102-.817-.807-2.148-.807-1.125 0-1.966.614-.829.602-1.295 1.761t-.466 2.807q0 1.67.455 2.841.465 1.17 1.306 1.784.841.613 1.966.613.83 0 1.489-.341a2.87 2.87 0 0 0 1.102-.988q.444-.66.58-1.58h4.568q-.114 2-1.091 3.523-.966 1.511-2.67 2.364-1.705.852-4.034.852m15.735-10.432V364h-4.841v-23.273h4.705v8.898h.205q.59-1.545 1.909-2.42 1.318-.887 3.306-.887 1.819 0 3.171.796 1.364.783 2.114 2.261.76 1.466.75 3.511V364h-4.841v-10.25q.01-1.614-.819-2.511-.817-.898-2.295-.898-.988 0-1.75.42-.75.421-1.182 1.228-.42.795-.432 1.92M433.871 520.784v-4.057h19.113v4.057h-7.125V540h-4.863v-19.216zM456.041 540v-17.455h4.841V540zm2.432-19.705a2.63 2.63 0 0 1-1.852-.715q-.762-.728-.762-1.739 0-1 .762-1.716a2.6 2.6 0 0 1 1.852-.727q1.08 0 1.841.727.773.716.773 1.716 0 1.011-.773 1.739-.761.715-1.841.715m14.151 26.614q-2.353 0-4.035-.648-1.67-.636-2.659-1.738a5.35 5.35 0 0 1-1.284-2.478l4.478-.602q.204.523.647.977.444.455 1.171.728.739.284 1.795.284 1.58 0 2.602-.773 1.035-.761 1.035-2.557v-3.193h-.205q-.318.727-.955 1.375-.636.648-1.636 1.057-1 .41-2.386.409-1.966 0-3.58-.909-1.602-.92-2.557-2.807-.943-1.898-.943-4.795 0-2.966.966-4.955t2.568-2.977a6.64 6.64 0 0 1 3.534-.989q1.467 0 2.455.5.988.489 1.591 1.227.613.728.943 1.432h.182v-2.932h4.807v17.625q0 2.228-1.091 3.728t-3.023 2.25q-1.92.76-4.42.761m.102-10.795q1.17 0 1.977-.58.818-.59 1.25-1.682.443-1.102.443-2.636t-.432-2.659q-.43-1.137-1.25-1.762-.818-.625-1.988-.625-1.193 0-2.012.648-.818.636-1.238 1.773-.42 1.135-.421 2.625 0 1.511.421 2.614.432 1.09 1.238 1.693.819.591 2.012.591m20.238 4.227q-2.692 0-4.636-1.091-1.932-1.102-2.977-3.114-1.046-2.022-1.046-4.784 0-2.693 1.046-4.727t2.943-3.17q1.91-1.137 4.477-1.137 1.728 0 3.216.557 1.5.546 2.614 1.648 1.125 1.103 1.75 2.772.625 1.66.625 3.887v1.329h-14.739v-3h10.182q0-1.045-.455-1.852a3.25 3.25 0 0 0-1.261-1.261q-.795-.466-1.852-.466-1.103 0-1.955.511-.84.5-1.318 1.352a3.8 3.8 0 0 0-.489 1.875v2.853q0 1.295.478 2.238a3.5 3.5 0 0 0 1.375 1.455q.886.511 2.102.511.807 0 1.477-.227.67-.228 1.148-.682t.727-1.113l4.478.295a6.1 6.1 0 0 1-1.398 2.818q-1.046 1.194-2.705 1.864-1.647.659-3.807.659m11.171-.341v-17.455h4.693v3.046h.182q.477-1.625 1.602-2.455 1.125-.84 2.591-.841.364 0 .784.046.421.045.739.125v4.295a6.4 6.4 0 0 0-.943-.181 8.5 8.5 0 0 0-1.103-.08q-1.068 0-1.909.466a3.43 3.43 0 0 0-1.318 1.273q-.477.818-.477 1.886V540zm26.932.284q-1.989 0-3.603-1.023-1.602-1.033-2.545-3.034-.932-2.011-.932-4.932 0-3 .966-4.988.966-2 2.568-2.989a6.6 6.6 0 0 1 3.534-1q1.466 0 2.444.5.988.489 1.59 1.227.614.728.932 1.432h.148v-8.75h4.83V540h-4.773v-2.795h-.205a6.3 6.3 0 0 1-.966 1.443q-.614.704-1.602 1.17-.977.466-2.386.466m1.534-3.852q1.17 0 1.977-.637.819-.647 1.25-1.806.444-1.16.443-2.716 0-1.557-.432-2.705-.43-1.148-1.25-1.773-.818-.625-1.988-.625-1.194 0-2.012.648t-1.238 1.796-.421 2.659q0 1.523.421 2.693.432 1.16 1.238 1.818.819.648 2.012.648m20.264 3.909q-2.648 0-4.579-1.125a7.7 7.7 0 0 1-2.966-3.159q-1.046-2.034-1.046-4.716 0-2.705 1.046-4.727 1.045-2.034 2.966-3.159 1.931-1.137 4.579-1.137t4.568 1.137q1.932 1.125 2.978 3.159 1.044 2.022 1.045 4.727 0 2.682-1.045 4.716a7.7 7.7 0 0 1-2.978 3.159q-1.92 1.125-4.568 1.125m.023-3.75q1.204 0 2.011-.682.807-.693 1.216-1.886.42-1.194.421-2.716 0-1.523-.421-2.716-.41-1.193-1.216-1.886-.807-.694-2.011-.694-1.217 0-2.046.694-.818.693-1.238 1.886-.41 1.193-.409 2.716 0 1.522.409 2.716.42 1.193 1.238 1.886.83.682 2.046.682m19.67 3.75q-2.693 0-4.636-1.091-1.932-1.102-2.977-3.114-1.046-2.022-1.046-4.784 0-2.693 1.046-4.727t2.943-3.17q1.91-1.137 4.477-1.137 1.728 0 3.216.557 1.5.546 2.614 1.648 1.125 1.103 1.75 2.772.625 1.66.625 3.887v1.329h-14.739v-3h10.182q0-1.045-.455-1.852a3.25 3.25 0 0 0-1.261-1.261q-.795-.466-1.852-.466-1.103 0-1.955.511-.841.5-1.318 1.352a3.8 3.8 0 0 0-.489 1.875v2.853q0 1.295.478 2.238a3.5 3.5 0 0 0 1.375 1.455q.885.511 2.102.511.807 0 1.477-.227.67-.228 1.148-.682a3 3 0 0 0 .727-1.113l4.477.295a6.1 6.1 0 0 1-1.397 2.818q-1.046 1.194-2.705 1.864-1.647.659-3.807.659m25.693-12.818-4.431.272a2.3 2.3 0 0 0-.489-1.022 2.6 2.6 0 0 0-.989-.739q-.601-.284-1.443-.284-1.124 0-1.898.477-.772.467-.772 1.25 0 .625.5 1.057t1.716.693l3.159.637q2.545.522 3.795 1.681t1.25 3.046q0 1.716-1.011 3.011-1 1.296-2.75 2.023-1.738.716-4.012.716-3.465 0-5.522-1.443-2.046-1.455-2.398-3.955l4.761-.25q.216 1.058 1.046 1.614.83.545 2.125.545 1.272 0 2.045-.488.784-.501.796-1.284-.012-.66-.557-1.08-.545-.432-1.682-.659l-3.023-.602q-2.556-.512-3.806-1.773-1.239-1.261-1.239-3.216 0-1.681.909-2.898.92-1.215 2.58-1.875 1.67-.659 3.909-.659 3.306 0 5.204 1.398 1.91 1.398 2.227 3.807m15.694 2.386V540h-4.841v-17.455h4.613v3.08h.205a4.87 4.87 0 0 1 1.943-2.409q1.363-.898 3.307-.898 1.818 0 3.17.796 1.353.795 2.103 2.272.75 1.466.75 3.5V540h-4.841v-10.25q.011-1.602-.818-2.5-.83-.909-2.285-.909-.977 0-1.727.42-.739.421-1.159 1.228-.41.795-.42 1.92m22.951 10.432q-2.647 0-4.579-1.125a7.7 7.7 0 0 1-2.966-3.159q-1.046-2.034-1.046-4.716 0-2.705 1.046-4.727 1.045-2.034 2.966-3.159 1.932-1.137 4.579-1.137 2.648 0 4.568 1.137 1.932 1.125 2.978 3.159 1.045 2.022 1.045 4.727 0 2.682-1.045 4.716a7.7 7.7 0 0 1-2.978 3.159q-1.92 1.125-4.568 1.125m.023-3.75q1.205 0 2.011-.682.808-.693 1.216-1.886.421-1.194.421-2.716t-.421-2.716q-.409-1.193-1.216-1.886-.806-.694-2.011-.694-1.216 0-2.045.694-.819.693-1.239 1.886-.41 1.193-.409 2.716 0 1.522.409 2.716.42 1.193 1.239 1.886.829.682 2.045.682m21-14.046v3.637h-10.511v-3.637zm-8.125-4.181h4.841v16.272q0 .67.204 1.046.205.363.569.511.375.148.863.148.342 0 .682-.057l.523-.102.761 3.602q-.363.114-1.023.261-.658.16-1.602.194-1.75.068-3.068-.466-1.307-.534-2.034-1.659-.728-1.125-.716-2.841zm26.571 21.977q-2.682 0-4.614-1.136a7.7 7.7 0 0 1-2.954-3.182q-1.023-2.034-1.023-4.682 0-2.682 1.034-4.705 1.046-2.034 2.966-3.17 1.92-1.148 4.568-1.148 2.284 0 4 .83t2.716 2.329q1 1.5 1.103 3.523h-4.569q-.192-1.307-1.022-2.102-.819-.807-2.148-.807-1.125 0-1.966.614-.83.601-1.295 1.761-.466 1.159-.466 2.807 0 1.67.454 2.841.466 1.17 1.307 1.784.841.613 1.966.613.83 0 1.489-.341a2.9 2.9 0 0 0 1.102-.988q.442-.66.579-1.58h4.569q-.114 2-1.091 3.523-.966 1.511-2.671 2.364-1.704.852-4.034.852m18.781 0q-2.647 0-4.579-1.125a7.7 7.7 0 0 1-2.966-3.159q-1.046-2.034-1.046-4.716 0-2.705 1.046-4.727 1.045-2.034 2.966-3.159 1.932-1.137 4.579-1.137 2.648 0 4.568 1.137 1.932 1.125 2.978 3.159 1.045 2.022 1.045 4.727 0 2.682-1.045 4.716a7.7 7.7 0 0 1-2.978 3.159q-1.92 1.125-4.568 1.125m.023-3.75q1.205 0 2.011-.682.808-.693 1.216-1.886.421-1.194.421-2.716t-.421-2.716q-.409-1.193-1.216-1.886-.806-.694-2.011-.694-1.216 0-2.045.694-.819.693-1.239 1.886-.41 1.193-.409 2.716 0 1.522.409 2.716.42 1.193 1.239 1.886.829.682 2.045.682M706.885 540v-17.455h4.614v3.08h.204q.546-1.535 1.818-2.42 1.273-.887 3.046-.887 1.795 0 3.057.898 1.26.886 1.681 2.409h.182q.534-1.5 1.932-2.398 1.408-.909 3.33-.909 2.442 0 3.965 1.557 1.535 1.545 1.535 4.386V540h-4.83v-10.784q0-1.455-.773-2.182t-1.932-.727q-1.317 0-2.056.841-.74.83-.739 2.193V540h-4.693v-10.886q0-1.284-.739-2.046-.728-.76-1.92-.761-.807 0-1.455.409-.636.397-1.011 1.125-.375.716-.375 1.682V540zm37.142.341q-2.693 0-4.636-1.091a7.47 7.47 0 0 1-2.978-3.114q-1.045-2.022-1.045-4.784 0-2.693 1.045-4.727t2.944-3.17q1.909-1.137 4.477-1.137 1.727 0 3.216.557 1.5.546 2.613 1.648 1.125 1.103 1.75 2.772.625 1.66.625 3.887v1.329H737.3v-3h10.182q0-1.045-.455-1.852a3.25 3.25 0 0 0-1.261-1.261q-.796-.466-1.853-.466-1.101 0-1.954.511-.841.5-1.318 1.352a3.8 3.8 0 0 0-.489 1.875v2.853q0 1.295.477 2.238a3.5 3.5 0 0 0 1.375 1.455q.886.511 2.103.511.806 0 1.477-.227a3.1 3.1 0 0 0 1.148-.682 3 3 0 0 0 .727-1.113l4.477.295a6.1 6.1 0 0 1-1.398 2.818q-1.045 1.194-2.704 1.864-1.649.659-3.807.659M506.304 579v-23.273h4.841v8.75h.148q.318-.704.92-1.432.613-.738 1.591-1.227.988-.5 2.455-.5 1.908 0 3.522 1 1.614.988 2.58 2.989.966 1.989.966 4.988 0 2.92-.943 4.932-.933 2-2.546 3.034-1.602 1.023-3.591 1.023-1.408 0-2.398-.466-.976-.466-1.602-1.17a6 6 0 0 1-.954-1.443h-.216V579zm4.739-8.727q0 1.557.431 2.716.432 1.159 1.25 1.806.819.637 1.989.637 1.182 0 2-.648.818-.658 1.239-1.818.432-1.17.432-2.693 0-1.512-.421-2.659-.42-1.149-1.239-1.796-.817-.648-2.011-.648-1.181 0-2 .625-.807.625-1.239 1.773-.43 1.148-.431 2.705m23.468 9.068q-2.693 0-4.636-1.091-1.932-1.102-2.977-3.114-1.046-2.022-1.046-4.784 0-2.693 1.046-4.727t2.943-3.17q1.91-1.137 4.477-1.137 1.728 0 3.216.557 1.5.546 2.614 1.648 1.125 1.103 1.75 2.772.625 1.66.625 3.887v1.329h-14.739v-3h10.182q0-1.045-.455-1.852a3.25 3.25 0 0 0-1.261-1.261q-.795-.466-1.852-.466-1.103 0-1.955.511-.84.5-1.318 1.352a3.8 3.8 0 0 0-.489 1.875v2.853q0 1.295.478 2.238a3.5 3.5 0 0 0 1.375 1.455q.886.511 2.102.511.807 0 1.477-.227.67-.228 1.148-.682t.727-1.113l4.477.295a6.1 6.1 0 0 1-1.397 2.818q-1.046 1.194-2.705 1.864-1.647.659-3.807.659m20.557-17.796v3.637h-10.773v-3.637zM546.761 579v-18.716q0-1.897.739-3.148a4.75 4.75 0 0 1 2.045-1.875q1.296-.625 2.944-.625 1.113 0 2.034.171a14 14 0 0 1 1.386.307l-.864 3.636a6 6 0 0 0-.704-.17 4.4 4.4 0 0 0-.841-.08q-1.068 0-1.489.5-.42.489-.42 1.375V579zm18.526.341q-2.648 0-4.58-1.125a7.7 7.7 0 0 1-2.966-3.159q-1.044-2.034-1.045-4.716 0-2.705 1.045-4.727 1.046-2.034 2.966-3.159 1.932-1.137 4.58-1.137t4.568 1.137q1.932 1.125 2.977 3.159 1.046 2.022 1.046 4.727 0 2.682-1.046 4.716a7.7 7.7 0 0 1-2.977 3.159q-1.92 1.125-4.568 1.125m.023-3.75q1.204 0 2.011-.682.807-.693 1.216-1.886.42-1.194.42-2.716t-.42-2.716q-.41-1.193-1.216-1.886-.807-.694-2.011-.694-1.216 0-2.046.694-.818.693-1.238 1.886-.41 1.193-.41 2.716 0 1.522.41 2.716.42 1.193 1.238 1.886.83.682 2.046.682M577.026 579v-17.455h4.693v3.046h.182q.477-1.625 1.602-2.455 1.125-.84 2.591-.841.363 0 .784.046.42.045.738.125v4.295a6.3 6.3 0 0 0-.943-.181 8.5 8.5 0 0 0-1.102-.08q-1.068 0-1.909.466a3.43 3.43 0 0 0-1.318 1.273q-.477.818-.478 1.886V579zm20.235.341q-2.693 0-4.636-1.091-1.932-1.102-2.977-3.114-1.046-2.022-1.046-4.784 0-2.693 1.046-4.727t2.943-3.17q1.91-1.137 4.477-1.137 1.728 0 3.216.557 1.5.546 2.614 1.648 1.125 1.103 1.75 2.772.625 1.66.625 3.887v1.329h-14.739v-3h10.182q0-1.045-.455-1.852a3.25 3.25 0 0 0-1.261-1.261q-.795-.466-1.852-.466-1.103 0-1.955.511-.84.5-1.318 1.352a3.8 3.8 0 0 0-.489 1.875v2.853q0 1.295.478 2.238a3.5 3.5 0 0 0 1.375 1.455q.886.511 2.102.511.807 0 1.477-.227.67-.228 1.148-.682t.727-1.113l4.477.295a6.1 6.1 0 0 1-1.397 2.818q-1.046 1.194-2.705 1.864-1.647.659-3.807.659m18.668-.341v-23.273h4.92v10.262h.307l8.375-10.262h5.898l-8.636 10.421L635.531 579h-5.886l-6.375-9.568-2.421 2.954V579zm23.065 0v-17.455h4.841V579zm2.432-19.705a2.63 2.63 0 0 1-1.852-.715q-.762-.728-.762-1.739 0-1 .762-1.716a2.6 2.6 0 0 1 1.852-.727q1.08 0 1.841.727.773.716.773 1.716 0 1.011-.773 1.739-.762.715-1.841.715m9.73 19.705-4.75-17.455h4.898l2.705 11.728h.159l2.818-11.728h4.807l2.863 11.66h.148l2.659-11.66h4.886L667.611 579h-5.125l-3-10.977h-.216l-3 10.977zm23.776 0v-17.455h4.841V579zm2.432-19.705q-1.08 0-1.853-.715-.76-.728-.761-1.739 0-1 .761-1.716a2.6 2.6 0 0 1 1.853-.727 2.57 2.57 0 0 1 1.841.727q.772.716.772 1.716 0 1.011-.772 1.739-.762.715-1.841.715"/><path fill="#096" d="M413.011 687.784v-4.057h19.114v4.057H425V707h-4.864v-19.216zM435.182 707v-17.455h4.841V707zm2.432-19.705q-1.08 0-1.853-.715-.76-.728-.761-1.739 0-1 .761-1.716a2.6 2.6 0 0 1 1.853-.727 2.57 2.57 0 0 1 1.841.727q.772.716.772 1.716 0 1.011-.772 1.739-.762.715-1.841.715m14.15 26.614q-2.352 0-4.034-.648-1.67-.636-2.659-1.738a5.35 5.35 0 0 1-1.284-2.478l4.477-.602q.205.523.648.977.443.455 1.17.728.739.284 1.796.284 1.58 0 2.602-.773 1.034-.761 1.034-2.557v-3.193h-.204a4.6 4.6 0 0 1-.955 1.375q-.637.648-1.636 1.057-1 .41-2.387.409-1.965 0-3.579-.909-1.602-.92-2.557-2.807-.943-1.898-.943-4.795 0-2.966.966-4.955t2.568-2.977a6.64 6.64 0 0 1 3.534-.989q1.465 0 2.455.5.988.489 1.59 1.227.615.728.944 1.432h.181v-2.932h4.807v17.625q0 2.228-1.091 3.728t-3.022 2.25q-1.921.76-4.421.761m.102-10.795q1.171 0 1.978-.58.818-.59 1.25-1.682.443-1.102.443-2.636t-.432-2.659q-.432-1.137-1.25-1.762-.817-.625-1.989-.625-1.192 0-2.011.648-.817.636-1.239 1.773-.42 1.135-.42 2.625 0 1.511.42 2.614.432 1.09 1.239 1.693.819.591 2.011.591m20.239 4.227q-2.693 0-4.636-1.091a7.47 7.47 0 0 1-2.978-3.114q-1.045-2.022-1.045-4.784 0-2.693 1.045-4.727 1.046-2.034 2.944-3.17 1.909-1.137 4.477-1.137 1.726 0 3.216.557 1.5.546 2.613 1.648 1.125 1.103 1.75 2.772.625 1.66.625 3.887v1.329h-14.738v-3h10.182q0-1.045-.455-1.852a3.25 3.25 0 0 0-1.261-1.261q-.796-.466-1.853-.466-1.102 0-1.954.511-.841.5-1.318 1.352a3.8 3.8 0 0 0-.489 1.875v2.853q0 1.295.477 2.238a3.5 3.5 0 0 0 1.375 1.455q.886.511 2.103.511.807 0 1.477-.227a3.1 3.1 0 0 0 1.148-.682 3 3 0 0 0 .727-1.113l4.477.295a6.1 6.1 0 0 1-1.398 2.818q-1.045 1.194-2.704 1.864-1.648.659-3.807.659m11.171-.341v-17.455h4.693v3.046h.182q.477-1.625 1.602-2.455 1.125-.84 2.591-.841.364 0 .784.046.42.045.738.125v4.295a6.3 6.3 0 0 0-.943-.181 8.5 8.5 0 0 0-1.102-.08q-1.068 0-1.909.466a3.43 3.43 0 0 0-1.318 1.273q-.478.818-.478 1.886V707zm28.386.341q-2.682 0-4.614-1.136a7.7 7.7 0 0 1-2.954-3.182q-1.023-2.034-1.023-4.682 0-2.682 1.034-4.705 1.046-2.034 2.966-3.17 1.92-1.148 4.568-1.148 2.284 0 4 .83t2.716 2.329q1 1.5 1.102 3.523h-4.568q-.193-1.307-1.023-2.102-.818-.807-2.147-.807-1.126 0-1.966.614-.83.602-1.296 1.761t-.466 2.807q0 1.67.455 2.841.466 1.17 1.307 1.784.84.613 1.966.613a3.2 3.2 0 0 0 1.488-.341 2.9 2.9 0 0 0 1.103-.988q.442-.66.579-1.58h4.568q-.113 2-1.091 3.523-.965 1.511-2.67 2.364-1.704.852-4.034.852m18.781 0q-2.647 0-4.579-1.125a7.7 7.7 0 0 1-2.966-3.159q-1.046-2.034-1.046-4.716 0-2.705 1.046-4.727 1.045-2.034 2.966-3.159 1.932-1.137 4.579-1.137 2.648 0 4.568 1.137 1.932 1.125 2.978 3.159 1.045 2.022 1.045 4.727 0 2.682-1.045 4.716a7.7 7.7 0 0 1-2.978 3.159q-1.92 1.125-4.568 1.125m.023-3.75q1.204 0 2.011-.682.807-.693 1.216-1.886.42-1.194.421-2.716 0-1.523-.421-2.716-.41-1.193-1.216-1.886-.807-.694-2.011-.694-1.217 0-2.046.694-.818.693-1.238 1.886-.41 1.193-.409 2.716 0 1.522.409 2.716.42 1.193 1.238 1.886.83.682 2.046.682M542.182 707v-17.455h4.613v3.08H547q.546-1.535 1.818-2.42 1.273-.887 3.046-.887 1.796 0 3.056.898 1.262.887 1.682 2.409h.182q.534-1.5 1.932-2.398 1.409-.909 3.329-.909 2.443 0 3.966 1.557 1.534 1.545 1.534 4.386V707h-4.829v-10.784q0-1.455-.773-2.182t-1.932-.727q-1.317 0-2.056.841-.74.83-.739 2.193V707h-4.693v-10.886q0-1.284-.739-2.046-.728-.76-1.92-.761-.807 0-1.455.409-.636.398-1.011 1.125-.375.716-.375 1.682V707zm37.142.341q-2.694 0-4.636-1.091a7.47 7.47 0 0 1-2.978-3.114q-1.045-2.022-1.045-4.784 0-2.693 1.045-4.727t2.943-3.17q1.91-1.137 4.478-1.137 1.726 0 3.216.557 1.5.546 2.613 1.648 1.125 1.103 1.75 2.772.625 1.66.625 3.887v1.329h-14.738v-3h10.181q0-1.045-.454-1.852a3.26 3.26 0 0 0-1.262-1.261q-.795-.466-1.852-.466-1.102 0-1.954.511-.841.5-1.318 1.352a3.8 3.8 0 0 0-.489 1.875v2.853q0 1.295.477 2.238a3.5 3.5 0 0 0 1.375 1.455q.887.511 2.102.511.807 0 1.478-.227a3.1 3.1 0 0 0 1.147-.682 2.96 2.96 0 0 0 .728-1.113l4.477.295a6.1 6.1 0 0 1-1.398 2.818q-1.045 1.194-2.704 1.864-1.649.659-3.807.659m25.693-12.818-4.432.272a2.3 2.3 0 0 0-.488-1.022 2.6 2.6 0 0 0-.989-.739q-.603-.284-1.443-.284-1.125 0-1.898.477-.773.467-.773 1.25 0 .625.5 1.057.501.432 1.716.693l3.159.637q2.545.522 3.796 1.681t1.25 3.046q0 1.716-1.012 3.011-1 1.296-2.75 2.023-1.739.716-4.011.716-3.466 0-5.523-1.443-2.045-1.455-2.397-3.955l4.761-.25q.216 1.058 1.045 1.614.83.545 2.125.545 1.274 0 2.046-.488.785-.501.795-1.284-.011-.66-.556-1.08-.546-.432-1.682-.659l-3.023-.602q-2.558-.511-3.807-1.773-1.239-1.261-1.238-3.216 0-1.681.909-2.898.92-1.215 2.579-1.875 1.671-.659 3.909-.659 3.308 0 5.205 1.398 1.91 1.398 2.227 3.807m15.83 12.807q-1.67 0-2.978-.58a4.8 4.8 0 0 1-2.068-1.739q-.75-1.158-.75-2.886 0-1.455.534-2.443a4.3 4.3 0 0 1 1.455-1.591 7 7 0 0 1 2.091-.909 16 16 0 0 1 2.477-.432 65 65 0 0 0 2.454-.295q.932-.149 1.353-.432.42-.285.42-.841v-.068q0-1.08-.682-1.671-.67-.591-1.909-.591-1.307 0-2.079.58-.773.568-1.023 1.432l-4.477-.364q.34-1.591 1.341-2.75 1-1.17 2.579-1.795 1.591-.637 3.682-.637 1.455 0 2.784.341a7.3 7.3 0 0 1 2.375 1.057 5.14 5.14 0 0 1 1.648 1.841q.602 1.113.602 2.67V707h-4.591v-2.42h-.136a4.9 4.9 0 0 1-1.125 1.443 5.2 5.2 0 0 1-1.693.966q-.989.34-2.284.341m1.386-3.341q1.068 0 1.886-.421a3.33 3.33 0 0 0 1.284-1.159 3 3 0 0 0 .466-1.648v-1.852q-.227.148-.625.273-.386.114-.875.216-.488.09-.977.17l-.886.125a6 6 0 0 0-1.489.398q-.636.273-.989.739-.351.454-.352 1.136 0 .989.716 1.511.728.512 1.841.512m21.585-14.444v3.637h-10.773v-3.637zM635.511 707v-18.716q0-1.897.739-3.148a4.75 4.75 0 0 1 2.045-1.875q1.296-.625 2.944-.625 1.113 0 2.034.171a14 14 0 0 1 1.386.307l-.864 3.636a6 6 0 0 0-.704-.17 4.4 4.4 0 0 0-.841-.08q-1.068 0-1.489.5-.42.489-.42 1.375V707zm20.549-17.455v3.637h-10.512v-3.637zm-8.125-4.181h4.841v16.272q0 .67.204 1.046.205.363.568.511.375.148.864.148.34 0 .682-.057l.522-.102.762 3.602a13 13 0 0 1-1.023.261q-.659.16-1.602.194-1.75.068-3.068-.466-1.308-.534-2.034-1.659-.728-1.125-.716-2.841zm19.045 21.977q-2.693 0-4.636-1.091a7.47 7.47 0 0 1-2.978-3.114q-1.044-2.022-1.045-4.784 0-2.693 1.045-4.727 1.046-2.034 2.944-3.17 1.909-1.137 4.477-1.137 1.726 0 3.216.557 1.5.546 2.613 1.648 1.125 1.103 1.75 2.772.625 1.66.625 3.887v1.329h-14.738v-3h10.182q0-1.045-.455-1.852a3.25 3.25 0 0 0-1.261-1.261q-.796-.466-1.853-.466-1.101 0-1.954.511-.841.5-1.318 1.352a3.8 3.8 0 0 0-.489 1.875v2.853q0 1.295.477 2.238a3.5 3.5 0 0 0 1.375 1.455q.886.511 2.103.511.807 0 1.477-.227a3.1 3.1 0 0 0 1.148-.682 3 3 0 0 0 .727-1.113l4.477.295a6.1 6.1 0 0 1-1.398 2.818q-1.044 1.194-2.704 1.864-1.648.659-3.807.659m11.171-.341v-17.455h4.693v3.046h.182q.477-1.625 1.602-2.455 1.125-.84 2.591-.841.363 0 .784.046.42.045.738.125v4.295a6.3 6.3 0 0 0-.943-.181 8.5 8.5 0 0 0-1.102-.08q-1.068 0-1.909.466a3.43 3.43 0 0 0-1.318 1.273q-.477.818-.478 1.886V707zm20.59 0v-23.273h4.921v10.262h.307l8.375-10.262h5.897l-8.636 10.421L718.344 707h-5.887l-6.375-9.568-2.42 2.954V707zm23.066 0v-17.455h4.841V707zm2.432-19.705q-1.08 0-1.853-.715-.76-.728-.761-1.739 0-1 .761-1.716a2.6 2.6 0 0 1 1.853-.727 2.57 2.57 0 0 1 1.841.727q.772.716.772 1.716 0 1.011-.772 1.739-.762.715-1.841.715m9.73 19.705-4.75-17.455h4.897l2.705 11.728h.159l2.818-11.728h4.807l2.864 11.66h.147l2.66-11.66h4.886L750.423 707h-5.125l-3-10.977h-.216l-3 10.977zm23.775 0v-17.455h4.841V707zm2.432-19.705a2.63 2.63 0 0 1-1.852-.715q-.762-.728-.762-1.739 0-1 .762-1.716a2.6 2.6 0 0 1 1.852-.727q1.08 0 1.841.727.773.716.773 1.716 0 1.011-.773 1.739-.762.715-1.841.715m11.548 16.523-.125 1.25q-.147 1.5-.568 2.989-.408 1.5-.863 2.716-.443 1.215-.716 1.909h-3.137q.17-.67.466-1.875.296-1.194.557-2.682t.33-3.034l.056-1.273zm-359.974 34.75v-10.023h4.841V746h-4.648v-3.17h-.182a5.15 5.15 0 0 1-1.966 2.465q-1.363.933-3.329.932-1.75 0-3.08-.795-1.329-.795-2.079-2.262-.74-1.465-.75-3.511v-11.114h4.841v10.25q.011 1.546.829 2.444.819.897 2.193.897.876 0 1.637-.397a3.13 3.13 0 0 0 1.227-1.205q.477-.796.466-1.966m8.713 13.977v-24h4.773v2.932h.216q.318-.704.92-1.432.614-.738 1.591-1.227.988-.5 2.455-.5 1.909 0 3.522 1 1.614.988 2.58 2.989.966 1.989.966 4.988 0 2.92-.943 4.932-.933 2-2.546 3.034-1.602 1.023-3.591 1.023-1.409 0-2.397-.466-.978-.466-1.603-1.17a6 6 0 0 1-.954-1.443h-.148v9.34zm4.739-15.272q0 1.557.432 2.716.43 1.159 1.25 1.806.818.637 1.988.637 1.182 0 2-.648.818-.659 1.239-1.818.432-1.17.432-2.693 0-1.512-.421-2.659-.42-1.149-1.238-1.796-.819-.648-2.012-.648-1.182 0-2 .625-.807.625-1.238 1.773-.432 1.148-.432 2.705m21.943 9.011q-1.99 0-3.602-1.023-1.603-1.033-2.546-3.034-.932-2.012-.932-4.932 0-3 .966-4.988.966-2 2.568-2.989a6.6 6.6 0 0 1 3.535-1q1.465 0 2.443.5.988.489 1.591 1.227.613.728.931 1.432h.148v-8.75h4.83V746h-4.773v-2.795h-.205a6.3 6.3 0 0 1-.965 1.443q-.615.704-1.603 1.17-.977.466-2.386.466m1.534-3.852q1.17 0 1.977-.637.819-.647 1.25-1.806.444-1.16.443-2.716 0-1.557-.431-2.705-.432-1.148-1.25-1.773t-1.989-.625q-1.193 0-2.011.648t-1.239 1.796q-.42 1.147-.42 2.659 0 1.523.42 2.693.432 1.16 1.239 1.818.818.648 2.011.648m17.355 3.898q-1.67 0-2.977-.58a4.8 4.8 0 0 1-2.068-1.739q-.75-1.158-.75-2.886 0-1.455.534-2.443a4.3 4.3 0 0 1 1.454-1.591 7 7 0 0 1 2.091-.909 16 16 0 0 1 2.477-.432 64 64 0 0 0 2.455-.295q.932-.149 1.352-.432.421-.285.421-.841v-.068q0-1.08-.682-1.671-.67-.591-1.909-.591-1.307 0-2.08.58-.773.568-1.022 1.432l-4.478-.364q.342-1.591 1.341-2.75 1-1.17 2.58-1.795 1.59-.637 3.682-.637 1.454 0 2.784.341a7.3 7.3 0 0 1 2.375 1.057 5.1 5.1 0 0 1 1.647 1.841q.603 1.113.603 2.67V746h-4.591v-2.42h-.137a4.9 4.9 0 0 1-1.125 1.443 5.2 5.2 0 0 1-1.693.966q-.988.34-2.284.341m1.386-3.341q1.069 0 1.887-.421a3.35 3.35 0 0 0 1.284-1.159 3 3 0 0 0 .466-1.648v-1.852a2.6 2.6 0 0 1-.625.273q-.386.114-.875.216-.49.09-.977.17l-.887.125a6 6 0 0 0-1.488.398q-.637.273-.989.739-.352.454-.352 1.136 0 .989.716 1.511.727.512 1.84.512m21.483-14.444v3.637h-10.511v-3.637zm-8.125-4.181h4.841v16.272q0 .67.205 1.046.204.363.568.511.375.148.864.148.34 0 .682-.057l.522-.102.762 3.602q-.365.114-1.023.261-.66.16-1.602.194-1.75.068-3.069-.466-1.307-.534-2.034-1.659t-.716-2.841zm19.046 21.977q-2.694 0-4.636-1.091a7.47 7.47 0 0 1-2.978-3.114q-1.045-2.022-1.045-4.784 0-2.693 1.045-4.727 1.046-2.034 2.943-3.17 1.91-1.137 4.478-1.137 1.726 0 3.216.557 1.5.546 2.613 1.648 1.125 1.103 1.75 2.772.625 1.66.625 3.887v1.329h-14.738v-3h10.181q0-1.045-.454-1.852a3.26 3.26 0 0 0-1.262-1.261q-.795-.466-1.852-.466-1.102 0-1.954.511-.841.5-1.318 1.352a3.8 3.8 0 0 0-.489 1.875v2.853q0 1.295.477 2.238a3.5 3.5 0 0 0 1.375 1.455q.887.511 2.102.511.807 0 1.478-.227a3.1 3.1 0 0 0 1.147-.682 2.96 2.96 0 0 0 .728-1.113l4.477.295a6.1 6.1 0 0 1-1.398 2.818q-1.045 1.194-2.704 1.864-1.648.659-3.807.659m18.667-.341v-23.273h4.921v19.216h9.977V746zm25.952.341q-2.647 0-4.579-1.125a7.7 7.7 0 0 1-2.966-3.159q-1.046-2.034-1.046-4.716 0-2.705 1.046-4.727 1.045-2.034 2.966-3.159 1.932-1.137 4.579-1.137 2.648 0 4.568 1.137 1.932 1.125 2.978 3.159 1.045 2.022 1.045 4.727 0 2.682-1.045 4.716a7.7 7.7 0 0 1-2.978 3.159q-1.92 1.125-4.568 1.125m.023-3.75q1.204 0 2.011-.682.807-.693 1.216-1.886.42-1.194.421-2.716 0-1.523-.421-2.716-.41-1.193-1.216-1.886-.807-.694-2.011-.694-1.217 0-2.046.694-.818.693-1.238 1.886-.41 1.193-.409 2.716 0 1.522.409 2.716.42 1.193 1.238 1.886.83.682 2.046.682M559.188 746l-4.75-17.455h4.897l2.705 11.728h.159l2.818-11.728h4.807l2.864 11.66h.147l2.659-11.66h4.887L575.642 746h-5.125l-3-10.977h-.216l-3 10.977zm40.465-17.455v3.637h-10.511v-3.637zm-8.125-4.181h4.841v16.272q0 .67.205 1.046.204.363.568.511.375.148.864.148.34 0 .682-.057l.522-.102.762 3.602q-.364.114-1.023.261-.66.16-1.602.194-1.75.068-3.069-.466-1.306-.534-2.034-1.659t-.716-2.841zm18.978 21.977q-2.648 0-4.58-1.125a7.7 7.7 0 0 1-2.966-3.159q-1.045-2.034-1.045-4.716 0-2.705 1.045-4.727 1.046-2.034 2.966-3.159 1.932-1.137 4.58-1.137t4.568 1.137q1.932 1.125 2.977 3.159 1.046 2.022 1.046 4.727 0 2.682-1.046 4.716a7.7 7.7 0 0 1-2.977 3.159q-1.92 1.125-4.568 1.125m.022-3.75q1.205 0 2.012-.682.807-.693 1.216-1.886.42-1.194.42-2.716t-.42-2.716q-.41-1.193-1.216-1.886-.807-.694-2.012-.694-1.215 0-2.045.694-.817.693-1.239 1.886-.409 1.193-.409 2.716 0 1.522.409 2.716.421 1.193 1.239 1.886.83.682 2.045.682M629.651 746v-17.455h4.613v3.08h.205q.545-1.535 1.818-2.42 1.273-.887 3.045-.887 1.796 0 3.057.898 1.262.887 1.682 2.409h.182q.534-1.5 1.932-2.398 1.409-.909 3.329-.909 2.443 0 3.966 1.557 1.534 1.545 1.534 4.386V746h-4.829v-10.784q0-1.455-.773-2.182t-1.932-.727q-1.318 0-2.057.841-.738.83-.738 2.193V746h-4.694v-10.886q0-1.284-.738-2.046-.727-.76-1.921-.761-.806 0-1.454.409a2.8 2.8 0 0 0-1.012 1.125q-.375.716-.375 1.682V746zm29.187 0v-17.455h4.841V746zm2.432-19.705a2.63 2.63 0 0 1-1.852-.715q-.762-.728-.762-1.739 0-1 .762-1.716a2.6 2.6 0 0 1 1.852-.727q1.08 0 1.841.727.773.716.773 1.716 0 1.011-.773 1.739-.761.715-1.841.715m12.719 19.989q-1.989 0-3.603-1.023-1.602-1.033-2.545-3.034-.932-2.012-.932-4.932 0-3 .966-4.988.966-2 2.568-2.989a6.6 6.6 0 0 1 3.534-1q1.467 0 2.443.5.99.489 1.591 1.227.614.728.932 1.432h.148v-8.75h4.829V746h-4.772v-2.795h-.205a6.3 6.3 0 0 1-.966 1.443q-.614.704-1.602 1.17-.978.466-2.386.466m1.534-3.852q1.17 0 1.977-.637.818-.647 1.25-1.806.443-1.16.443-2.716t-.432-2.705-1.25-1.773-1.988-.625q-1.194 0-2.012.648t-1.238 1.796q-.421 1.147-.421 2.659 0 1.523.421 2.693.432 1.16 1.238 1.818.819.648 2.012.648m18.809 3.852q-1.988 0-3.602-1.023-1.603-1.033-2.545-3.034-.932-2.012-.932-4.932 0-3 .966-4.988.966-2 2.568-2.989a6.6 6.6 0 0 1 3.534-1q1.466 0 2.443.5.989.489 1.591 1.227.614.728.932 1.432h.148v-8.75h4.829V746h-4.773v-2.795h-.204a6.3 6.3 0 0 1-.966 1.443q-.614.704-1.602 1.17-.977.466-2.387.466m1.534-3.852q1.171 0 1.978-.637.818-.647 1.25-1.806.443-1.16.443-2.716t-.432-2.705-1.25-1.773-1.989-.625q-1.192 0-2.011.648-.817.648-1.239 1.796-.42 1.147-.42 2.659 0 1.523.42 2.693.432 1.16 1.239 1.818.819.648 2.011.648m17.219-19.705V746h-4.841v-23.273zm11.833 23.614q-2.694 0-4.637-1.091-1.932-1.102-2.977-3.114-1.045-2.022-1.045-4.784 0-2.693 1.045-4.727t2.943-3.17q1.91-1.137 4.477-1.137 1.728 0 3.216.557 1.5.546 2.614 1.648 1.125 1.103 1.75 2.772.625 1.66.625 3.887v1.329H718.19v-3h10.182q0-1.045-.454-1.852a3.26 3.26 0 0 0-1.262-1.261q-.795-.466-1.852-.466-1.102 0-1.955.511-.84.5-1.318 1.352a3.8 3.8 0 0 0-.488 1.875v2.853q0 1.295.477 2.238a3.5 3.5 0 0 0 1.375 1.455q.887.511 2.102.511.807 0 1.477-.227.67-.228 1.148-.682t.727-1.113l4.478.295a6.1 6.1 0 0 1-1.398 2.818q-1.046 1.194-2.705 1.864-1.647.659-3.806.659m25.485-3.886v-16.091h4.069v16.091zm-6.011-6.012v-4.068h16.091v4.068zm38.338-13.716V746h-4.92v-18.602h-.137l-5.329 3.341v-4.364l5.761-3.648z"/><path fill="#fff" d="M262.74 545v-23.273h2.818v11.546h.273l10.455-11.546h3.681l-9.772 10.5L279.967 545h-3.409l-8.091-10.818-2.909 3.273V545zm21.605 0v-17.455h2.682V545zm1.364-20.364q-.785 0-1.352-.534a1.71 1.71 0 0 1-.557-1.284q0-.75.557-1.284a1.9 1.9 0 0 1 1.352-.534q.785 0 1.341.534.568.534.568 1.284t-.568 1.284a1.87 1.87 0 0 1-1.341.534M295.893 545l-5.318-17.455h2.818l3.773 13.364h.182l3.727-13.364h2.864l3.682 13.319h.182l3.772-13.319h2.818L309.075 545h-2.636l-3.818-13.409h-.273L298.53 545zm22.046 0v-17.455h2.682V545zm1.364-20.364q-.784 0-1.353-.534a1.72 1.72 0 0 1-.557-1.284q0-.75.557-1.284.569-.534 1.353-.534.783 0 1.34.534.569.534.569 1.284t-.569 1.284a1.87 1.87 0 0 1-1.34.534M262.74 726v-23.273h2.818v11.546h.273l10.455-11.546h3.681l-9.772 10.5L279.967 726h-3.409l-8.091-10.818-2.909 3.273V726zm21.605 0v-17.455h2.682V726zm1.364-20.364q-.785 0-1.352-.534a1.71 1.71 0 0 1-.557-1.284q0-.75.557-1.284a1.9 1.9 0 0 1 1.352-.534q.785 0 1.341.534.568.534.568 1.284t-.568 1.284a1.87 1.87 0 0 1-1.341.534M295.893 726l-5.318-17.455h2.818l3.773 13.364h.182l3.727-13.364h2.864l3.682 13.319h.182l3.772-13.319h2.818L309.075 726h-2.636l-3.818-13.409h-.273L298.53 726zm22.046 0v-17.455h2.682V726zm1.364-20.364q-.784 0-1.353-.534a1.72 1.72 0 0 1-.557-1.284q0-.75.557-1.284.569-.534 1.353-.534.783 0 1.34.534.569.534.569 1.284t-.569 1.284a1.87 1.87 0 0 1-1.34.534M622.967 163.227v-2.5h17.455v2.5h-7.318V184h-2.818v-20.773zM644.408 184v-17.455h2.681V184zm1.363-20.364q-.783 0-1.352-.534a1.72 1.72 0 0 1-.557-1.284q0-.75.557-1.284.569-.534 1.352-.534t1.341.534q.568.534.568 1.284t-.568 1.284a1.87 1.87 0 0 1-1.341.534m13.276 27.273q-1.944 0-3.341-.5-1.397-.489-2.33-1.295-.92-.796-1.465-1.705l2.136-1.5q.363.477.92 1.091.558.625 1.523 1.08.978.465 2.557.465 2.113 0 3.489-1.022t1.375-3.205v-3.545h-.228q-.295.477-.841 1.182-.534.693-1.545 1.238-1 .534-2.705.534-2.114 0-3.795-1-1.67-1-2.648-2.909-.966-1.91-.966-4.636 0-2.682.943-4.671.943-2 2.625-3.091 1.682-1.102 3.887-1.102 1.705 0 2.704.568 1.012.558 1.546 1.273.545.705.841 1.159h.272v-2.773h2.591V184.5q0 2.25-1.022 3.659-1.012 1.42-2.728 2.08-1.704.67-3.795.67m-.091-9.591q1.614 0 2.727-.738 1.114-.74 1.693-2.125.58-1.387.58-3.319 0-1.886-.568-3.329-.569-1.443-1.682-2.262-1.113-.818-2.75-.818-1.704 0-2.841.864-1.125.863-1.693 2.318-.557 1.455-.557 3.227 0 1.818.568 3.216.58 1.387 1.705 2.182 1.136.784 2.818.784m19.864 3.046q-2.523 0-4.353-1.114-1.818-1.125-2.806-3.136-.978-2.023-.978-4.705t.978-4.727q.988-2.057 2.75-3.205 1.772-1.158 4.136-1.159 1.364 0 2.693.455a6.7 6.7 0 0 1 2.421 1.477q1.09 1.011 1.738 2.682.648 1.67.648 4.113v1.137h-13.455v-2.318h10.728q0-1.478-.591-2.637a4.47 4.47 0 0 0-1.659-1.829q-1.069-.67-2.523-.671-1.602 0-2.773.796a5.2 5.2 0 0 0-1.784 2.045 6 6 0 0 0-.625 2.705v1.545q0 1.978.682 3.352.693 1.365 1.92 2.08 1.228.705 2.853.705 1.057 0 1.909-.296a4.1 4.1 0 0 0 1.488-.909q.625-.614.966-1.523l2.591.728a5.75 5.75 0 0 1-1.375 2.318q-.966.988-2.386 1.545-1.421.546-3.193.546m11.306-.364v-17.455h2.591v2.637h.182q.477-1.296 1.727-2.102 1.25-.807 2.819-.807.296 0 .738.011.443.012.671.034v2.727a9 9 0 0 0-.625-.102 6 6 0 0 0-1.012-.079q-1.272 0-2.272.534a4.03 4.03 0 0 0-1.569 1.454q-.568.921-.568 2.103V184zM622.967 1214.23v-2.5h17.455v2.5h-7.318V1235h-2.818v-20.77zm21.441 20.77v-17.45h2.681V1235zm1.363-20.36q-.783 0-1.352-.54a1.7 1.7 0 0 1-.557-1.28q0-.75.557-1.29c.379-.35.83-.53 1.352-.53s.97.18 1.341.53q.568.54.568 1.29c0 .5-.189.93-.568 1.28q-.557.54-1.341.54m13.276 27.27c-1.296 0-2.409-.17-3.341-.5s-1.708-.76-2.33-1.3c-.613-.53-1.102-1.09-1.465-1.7l2.136-1.5c.242.32.549.68.92 1.09q.558.63 1.523 1.08c.652.31 1.504.47 2.557.47 1.409 0 2.572-.35 3.489-1.03s1.375-1.75 1.375-3.2v-3.55h-.228c-.197.32-.477.71-.841 1.18-.356.47-.871.88-1.545 1.24q-1 .54-2.705.54c-1.409 0-2.674-.34-3.795-1q-1.67-1.005-2.648-2.91c-.644-1.27-.966-2.82-.966-4.64 0-1.79.315-3.34.943-4.67q.943-1.995 2.625-3.09c1.122-.73 2.417-1.1 3.887-1.1q1.705 0 2.704.57c.675.37 1.19.79 1.546 1.27.363.47.644.86.841 1.16h.272v-2.77h2.591v17.95q0 2.25-1.022 3.66c-.675.95-1.584 1.64-2.728 2.08-1.136.45-2.401.67-3.795.67m-.091-9.59c1.076 0 1.985-.25 2.727-.74q1.114-.735 1.693-2.13c.387-.92.58-2.03.58-3.31q0-1.89-.568-3.33c-.379-.97-.94-1.72-1.682-2.26-.742-.55-1.659-.82-2.75-.82-1.136 0-2.083.29-2.841.86-.75.58-1.314 1.35-1.693 2.32-.371.97-.557 2.04-.557 3.23q0 1.815.568 3.21c.387.93.955 1.65 1.705 2.18.757.53 1.697.79 2.818.79m19.864 3.04q-2.523 0-4.353-1.11c-1.212-.75-2.147-1.8-2.806-3.14-.652-1.34-.978-2.91-.978-4.7s.326-3.36.978-4.73c.659-1.37 1.575-2.44 2.75-3.2 1.181-.78 2.56-1.16 4.136-1.16q1.364 0 2.693.45c.886.31 1.693.8 2.421 1.48.727.67 1.306 1.57 1.738 2.68.432 1.12.648 2.49.648 4.12v1.13h-13.455v-2.32h10.728c0-.98-.197-1.86-.591-2.63a4.38 4.38 0 0 0-1.659-1.83c-.713-.45-1.553-.67-2.523-.67-1.068 0-1.993.26-2.773.79a5.3 5.3 0 0 0-1.784 2.05 6 6 0 0 0-.625 2.7v1.55c0 1.32.227 2.43.682 3.35.462.91 1.102 1.6 1.92 2.08.819.47 1.769.7 2.853.7.704 0 1.341-.09 1.909-.29a4.2 4.2 0 0 0 1.488-.91c.417-.41.739-.92.966-1.52l2.591.72a5.7 5.7 0 0 1-1.375 2.32c-.644.66-1.439 1.18-2.386 1.55q-1.421.54-3.193.54m11.306-.36v-17.45h2.591v2.63h.182q.477-1.29 1.727-2.1t2.819-.81c.197 0 .443.01.738.01.296.01.519.02.671.04v2.73c-.091-.03-.3-.06-.625-.11a6.5 6.5 0 0 0-1.012-.08q-1.272 0-2.272.54c-.659.35-1.182.83-1.569 1.45q-.568.93-.568 2.1V1235zM738.327 184v-2.045l12.545-18.728H738.19v-2.5h16.046v2.046L741.69 181.5h12.682v2.5zm27.727.364q-2.523 0-4.352-1.114-1.818-1.125-2.807-3.136-.978-2.023-.977-4.705 0-2.682.977-4.727.989-2.057 2.75-3.205 1.772-1.158 4.136-1.159 1.364 0 2.693.455a6.7 6.7 0 0 1 2.421 1.477q1.09 1.011 1.739 2.682.647 1.67.647 4.113v1.137h-13.454v-2.318h10.727q0-1.478-.591-2.637a4.45 4.45 0 0 0-1.659-1.829q-1.068-.67-2.523-.671-1.602 0-2.772.796a5.2 5.2 0 0 0-1.785 2.045 6 6 0 0 0-.625 2.705v1.545q0 1.978.682 3.352.693 1.365 1.921 2.08 1.227.705 2.852.705 1.057 0 1.909-.296a4.1 4.1 0 0 0 1.489-.909 4.15 4.15 0 0 0 .966-1.523l2.591.728a5.8 5.8 0 0 1-1.375 2.318q-.966.988-2.387 1.545-1.42.546-3.193.546m11.67-.364v-23.273h2.682v8.591h.228q.294-.454.818-1.159.534-.715 1.522-1.273 1-.567 2.705-.568 2.205 0 3.886 1.102 1.683 1.103 2.625 3.125.944 2.023.944 4.773 0 2.773-.944 4.807-.943 2.023-2.613 3.136-1.67 1.103-3.853 1.103-1.682 0-2.693-.557-1.011-.569-1.557-1.284a17 17 0 0 1-.84-1.205h-.319V184zm2.637-8.727q0 1.977.579 3.488.58 1.5 1.694 2.353 1.113.84 2.727.841 1.682 0 2.807-.887 1.135-.897 1.704-2.409.58-1.523.58-3.386 0-1.842-.568-3.318-.558-1.49-1.694-2.353-1.125-.875-2.829-.875-1.637 0-2.75.83-1.114.817-1.682 2.295-.568 1.467-.568 3.421M797.236 184v-17.455h2.591v2.637h.182q.476-1.296 1.727-2.102 1.25-.807 2.818-.807.295 0 .739.011.443.012.67.034v2.727a9 9 0 0 0-.625-.102 6 6 0 0 0-1.011-.079q-1.273 0-2.273.534a4 4 0 0 0-1.568 1.454q-.568.921-.568 2.103V184zm17.042.409q-1.659 0-3.011-.625a5.2 5.2 0 0 1-2.148-1.829q-.795-1.205-.795-2.91 0-1.5.591-2.431a4.17 4.17 0 0 1 1.579-1.478 8.3 8.3 0 0 1 2.182-.795q1.204-.273 2.421-.432 1.59-.204 2.579-.307 1-.112 1.455-.375.466-.261.466-.909v-.091q0-1.681-.921-2.613-.909-.933-2.761-.932-1.92 0-3.012.841-1.09.84-1.534 1.795l-2.545-.909q.681-1.591 1.818-2.477a6.8 6.8 0 0 1 2.5-1.25 10.4 10.4 0 0 1 2.682-.364q.84 0 1.932.205a6.2 6.2 0 0 1 2.125.807q1.034.613 1.716 1.852t.681 3.318V184h-2.681v-2.364h-.137q-.273.568-.909 1.216t-1.693 1.103q-1.057.454-2.58.454m.41-2.409q1.59 0 2.681-.625 1.102-.625 1.659-1.614a4.1 4.1 0 0 0 .569-2.079v-2.455q-.171.206-.75.375-.569.16-1.319.284-.738.114-1.443.205-.693.08-1.125.136-1.045.137-1.954.443-.899.296-1.455.898-.545.591-.545 1.614 0 1.398 1.034 2.113 1.045.705 2.648.705M738.327 1235v-2.05l12.545-18.72H738.19v-2.5h16.046v2.04l-12.546 18.73h12.682v2.5zm27.727.36q-2.523 0-4.352-1.11c-1.212-.75-2.148-1.8-2.807-3.14-.652-1.34-.977-2.91-.977-4.7s.325-3.36.977-4.73c.659-1.37 1.576-2.44 2.75-3.2 1.182-.78 2.56-1.16 4.136-1.16q1.364 0 2.693.45c.887.31 1.694.8 2.421 1.48.727.67 1.307 1.57 1.739 2.68.431 1.12.647 2.49.647 4.12v1.13h-13.454v-2.32h10.727c0-.98-.197-1.86-.591-2.63a4.36 4.36 0 0 0-1.659-1.83c-.712-.45-1.553-.67-2.523-.67-1.068 0-1.992.26-2.772.79a5.3 5.3 0 0 0-1.785 2.05 6 6 0 0 0-.625 2.7v1.55c0 1.32.228 2.43.682 3.35.462.91 1.103 1.6 1.921 2.08.818.47 1.769.7 2.852.7.705 0 1.341-.09 1.909-.29a4.2 4.2 0 0 0 1.489-.91c.416-.41.738-.92.966-1.52l2.591.72a5.7 5.7 0 0 1-1.375 2.32c-.644.66-1.44 1.18-2.387 1.55q-1.42.54-3.193.54m11.67-.36v-23.27h2.682v8.59h.228c.196-.3.469-.69.818-1.16.356-.48.863-.9 1.522-1.27q1-.57 2.705-.57c1.47 0 2.765.37 3.886 1.1 1.122.74 1.997 1.78 2.625 3.13q.944 2.01.944 4.77 0 2.775-.944 4.8c-.628 1.35-1.5 2.4-2.613 3.14-1.114.74-2.398 1.1-3.853 1.1-1.121 0-2.019-.18-2.693-.55q-1.011-.57-1.557-1.29-.545-.72-.84-1.2h-.319v2.68zm2.637-8.73c0 1.32.193 2.48.579 3.49.387 1 .951 1.79 1.694 2.35q1.113.84 2.727.84c1.121 0 2.057-.29 2.807-.88.757-.6 1.325-1.4 1.704-2.41.387-1.02.58-2.14.58-3.39 0-1.22-.19-2.33-.568-3.32-.372-.99-.936-1.77-1.694-2.35q-1.125-.87-2.829-.87c-1.091 0-2.008.27-2.75.83-.743.54-1.303 1.31-1.682 2.29q-.568 1.47-.568 3.42m16.875 8.73v-17.45h2.591v2.63h.182q.476-1.29 1.727-2.1 1.25-.81 2.818-.81c.197 0 .443.01.739.01.295.01.519.02.67.04v2.73c-.091-.03-.299-.06-.625-.11a6.5 6.5 0 0 0-1.011-.08q-1.273 0-2.273.54c-.659.35-1.182.83-1.568 1.45q-.568.93-.568 2.1V1235zm17.042.41q-1.659 0-3.011-.63a5.1 5.1 0 0 1-2.148-1.83c-.53-.8-.795-1.77-.795-2.9 0-1 .197-1.82.591-2.44q.59-.945 1.579-1.47a8.4 8.4 0 0 1 2.182-.8c.803-.18 1.61-.32 2.421-.43 1.06-.14 1.92-.24 2.579-.31.667-.07 1.152-.2 1.455-.37.31-.18.466-.48.466-.91v-.09c0-1.12-.307-2-.921-2.62q-.909-.93-2.761-.93-1.92 0-3.012.84-1.09.84-1.534 1.8l-2.545-.91c.454-1.06 1.06-1.89 1.818-2.48a6.9 6.9 0 0 1 2.5-1.25q1.363-.36 2.682-.36c.56 0 1.204.07 1.932.2q1.102.195 2.125.81c.689.41 1.261 1.03 1.716 1.85.454.83.681 1.93.681 3.32v11.5h-2.681v-2.36h-.137c-.182.38-.485.78-.909 1.21s-.988.8-1.693 1.1c-.705.31-1.564.46-2.58.46m.41-2.41c1.06 0 1.954-.21 2.681-.62q1.102-.63 1.659-1.62c.379-.66.569-1.35.569-2.08v-2.45c-.114.13-.364.26-.75.37-.379.11-.819.2-1.319.29-.492.07-.973.14-1.443.2-.462.05-.837.1-1.125.14-.697.09-1.348.24-1.954.44q-.899.3-1.455.9c-.363.39-.545.93-.545 1.61 0 .93.344 1.64 1.034 2.12.697.47 1.579.7 2.648.7"/></svg>