<svg width="841" height="182" viewBox="0 0 841 182" fill="none" xmlns="http://www.w3.org/2000/svg">
<rect x="1" y="1" width="839" height="120" rx="26" stroke="#DBDBDB" stroke-width="2"/>
<line x1="121" y1="-4.37114e-08" x2="121" y2="122" stroke="#DBDBDB" stroke-width="2"/>
<line x1="241" y1="-4.37114e-08" x2="241" y2="122" stroke="#DBDBDB" stroke-width="2"/>
<line x1="362" y1="-4.37114e-08" x2="362" y2="122" stroke="#DBDBDB" stroke-width="2"/>
<line x1="482" y1="-4.37114e-08" x2="482" y2="122" stroke="#DBDBDB" stroke-width="2"/>
<line x1="602" y1="-4.37114e-08" x2="602" y2="122" stroke="#DBDBDB" stroke-width="2"/>
<line x1="722" y1="-4.37114e-08" x2="722" y2="122" stroke="#DBDBDB" stroke-width="2"/>
<path d="M19.8509 72H16.8963L25.4418 48.7273H28.3509L36.8963 72H33.9418L26.9872 52.4091H26.8054L19.8509 72ZM20.9418 62.9091H32.8509V65.4091H20.9418V62.9091ZM40.1577 78.5455V54.5455H42.7486V57.3182H43.0668C43.2637 57.0152 43.5365 56.6288 43.8849 56.1591C44.241 55.6818 44.7486 55.2576 45.4077 54.8864C46.0743 54.5076 46.9759 54.3182 48.1122 54.3182C49.5819 54.3182 50.8774 54.6856 51.9986 55.4205C53.1198 56.1553 53.9948 57.197 54.6236 58.5455C55.2524 59.8939 55.5668 61.4848 55.5668 63.3182C55.5668 65.1667 55.2524 66.7689 54.6236 68.125C53.9948 69.4735 53.1236 70.5189 52.0099 71.2614C50.8963 71.9962 49.6122 72.3636 48.1577 72.3636C47.0365 72.3636 46.1387 72.178 45.4645 71.8068C44.7902 71.428 44.2713 71 43.9077 70.5227C43.544 70.0379 43.2637 69.6364 43.0668 69.3182H42.8395V78.5455H40.1577ZM42.794 63.2727C42.794 64.5909 42.9872 65.7538 43.3736 66.7614C43.7599 67.7614 44.3243 68.5455 45.0668 69.1136C45.8092 69.6742 46.7183 69.9545 47.794 69.9545C48.9152 69.9545 49.8509 69.6591 50.6009 69.0682C51.3584 68.4697 51.9266 67.6667 52.3054 66.6591C52.6918 65.6439 52.8849 64.5152 52.8849 63.2727C52.8849 62.0455 52.6955 60.9394 52.3168 59.9545C51.9455 58.9621 51.3812 58.178 50.6236 57.6023C49.8736 57.0189 48.9304 56.7273 47.794 56.7273C46.7031 56.7273 45.7865 57.0038 45.044 57.5568C44.3016 58.1023 43.741 58.8674 43.3622 59.8523C42.9834 60.8295 42.794 61.9697 42.794 63.2727ZM59.6577 78.5455V54.5455H62.2486V57.3182H62.5668C62.7637 57.0152 63.0365 56.6288 63.3849 56.1591C63.741 55.6818 64.2486 55.2576 64.9077 54.8864C65.5743 54.5076 66.4759 54.3182 67.6122 54.3182C69.0819 54.3182 70.3774 54.6856 71.4986 55.4205C72.6198 56.1553 73.4948 57.197 74.1236 58.5455C74.7524 59.8939 75.0668 61.4848 75.0668 63.3182C75.0668 65.1667 74.7524 66.7689 74.1236 68.125C73.4948 69.4735 72.6236 70.5189 71.5099 71.2614C70.3963 71.9962 69.1122 72.3636 67.6577 72.3636C66.5365 72.3636 65.6387 72.178 64.9645 71.8068C64.2902 71.428 63.7713 71 63.4077 70.5227C63.044 70.0379 62.7637 69.6364 62.5668 69.3182H62.3395V78.5455H59.6577ZM62.294 63.2727C62.294 64.5909 62.4872 65.7538 62.8736 66.7614C63.2599 67.7614 63.8243 68.5455 64.5668 69.1136C65.3092 69.6742 66.2183 69.9545 67.294 69.9545C68.4152 69.9545 69.3509 69.6591 70.1009 69.0682C70.8584 68.4697 71.4266 67.6667 71.8054 66.6591C72.1918 65.6439 72.3849 64.5152 72.3849 63.2727C72.3849 62.0455 72.1955 60.9394 71.8168 59.9545C71.4455 58.9621 70.8812 58.178 70.1236 57.6023C69.3736 57.0189 68.4304 56.7273 67.294 56.7273C66.2031 56.7273 65.2865 57.0038 64.544 57.5568C63.8016 58.1023 63.241 58.8674 62.8622 59.8523C62.4834 60.8295 62.294 61.9697 62.294 63.2727ZM81.8395 48.7273V72H79.1577V48.7273H81.8395ZM94.0696 72.3636C92.3878 72.3636 90.937 71.9924 89.7173 71.25C88.5052 70.5 87.5696 69.4545 86.9105 68.1136C86.259 66.7652 85.9332 65.197 85.9332 63.4091C85.9332 61.6212 86.259 60.0455 86.9105 58.6818C87.5696 57.3106 88.4863 56.2424 89.6605 55.4773C90.8423 54.7045 92.2211 54.3182 93.7969 54.3182C94.706 54.3182 95.6037 54.4697 96.4901 54.7727C97.3764 55.0758 98.1832 55.5682 98.9105 56.25C99.6378 56.9242 100.217 57.8182 100.649 58.9318C101.081 60.0455 101.297 61.4167 101.297 63.0455V64.1818H87.8423V61.8636H98.5696C98.5696 60.8788 98.3726 60 97.9787 59.2273C97.5923 58.4545 97.0393 57.8447 96.3196 57.3977C95.6075 56.9508 94.7666 56.7273 93.7969 56.7273C92.7287 56.7273 91.8045 56.9924 91.0241 57.5227C90.2514 58.0455 89.6567 58.7273 89.2401 59.5682C88.8234 60.4091 88.6151 61.3106 88.6151 62.2727V63.8182C88.6151 65.1364 88.8423 66.2538 89.2969 67.1705C89.759 68.0795 90.3991 68.7727 91.2173 69.25C92.0355 69.7197 92.9863 69.9545 94.0696 69.9545C94.7741 69.9545 95.4105 69.8561 95.9787 69.6591C96.5545 69.4545 97.0507 69.1515 97.4673 68.75C97.884 68.3409 98.206 67.8333 98.4332 67.2273L101.024 67.9545C100.751 68.8333 100.293 69.6061 99.6491 70.2727C99.0052 70.9318 98.2098 71.447 97.2628 71.8182C96.3158 72.1818 95.2514 72.3636 94.0696 72.3636Z" fill="white"/>
<path d="M155.303 72V48.7273H163.439C165.06 48.7273 166.397 49.0076 167.45 49.5682C168.503 50.1212 169.287 50.8674 169.803 51.8068C170.318 52.7386 170.575 53.7727 170.575 54.9091C170.575 55.9091 170.397 56.7348 170.041 57.3864C169.693 58.0379 169.231 58.553 168.655 58.9318C168.087 59.3106 167.469 59.5909 166.803 59.7727V60C167.515 60.0455 168.231 60.2955 168.95 60.75C169.67 61.2045 170.272 61.8561 170.757 62.7045C171.242 63.553 171.484 64.5909 171.484 65.8182C171.484 66.9848 171.219 68.0341 170.689 68.9659C170.159 69.8977 169.321 70.6364 168.178 71.1818C167.034 71.7273 165.545 72 163.712 72H155.303ZM158.121 69.5H163.712C165.553 69.5 166.859 69.1439 167.632 68.4318C168.412 67.7121 168.803 66.8409 168.803 65.8182C168.803 65.0303 168.602 64.303 168.2 63.6364C167.799 62.9621 167.227 62.4242 166.484 62.0227C165.742 61.6136 164.863 61.4091 163.848 61.4091H158.121V69.5ZM158.121 58.9545H163.348C164.196 58.9545 164.962 58.7879 165.643 58.4545C166.333 58.1212 166.878 57.6515 167.28 57.0455C167.689 56.4394 167.893 55.7273 167.893 54.9091C167.893 53.8864 167.537 53.0189 166.825 52.3068C166.113 51.5871 164.984 51.2273 163.439 51.2273H158.121V58.9545ZM180.888 72.4091C179.782 72.4091 178.778 72.2008 177.876 71.7841C176.975 71.3598 176.259 70.75 175.729 69.9545C175.198 69.1515 174.933 68.1818 174.933 67.0455C174.933 66.0455 175.13 65.2348 175.524 64.6136C175.918 63.9848 176.445 63.4924 177.104 63.1364C177.763 62.7803 178.49 62.5152 179.286 62.3409C180.089 62.1591 180.895 62.0152 181.706 61.9091C182.767 61.7727 183.626 61.6705 184.286 61.6023C184.952 61.5265 185.437 61.4015 185.74 61.2273C186.051 61.053 186.206 60.75 186.206 60.3182V60.2273C186.206 59.1061 185.899 58.2348 185.286 57.6136C184.679 56.9924 183.759 56.6818 182.524 56.6818C181.244 56.6818 180.24 56.9621 179.513 57.5227C178.786 58.0833 178.274 58.6818 177.979 59.3182L175.433 58.4091C175.888 57.3485 176.494 56.5227 177.251 55.9318C178.017 55.3333 178.85 54.9167 179.751 54.6818C180.661 54.4394 181.554 54.3182 182.433 54.3182C182.994 54.3182 183.638 54.3864 184.365 54.5227C185.1 54.6515 185.808 54.9205 186.49 55.3295C187.179 55.7386 187.751 56.3561 188.206 57.1818C188.661 58.0076 188.888 59.1136 188.888 60.5V72H186.206V69.6364H186.07C185.888 70.0152 185.585 70.4205 185.161 70.8523C184.736 71.2841 184.172 71.6515 183.467 71.9545C182.763 72.2576 181.903 72.4091 180.888 72.4091ZM181.297 70C182.357 70 183.251 69.7917 183.979 69.375C184.714 68.9583 185.267 68.4205 185.638 67.7614C186.017 67.1023 186.206 66.4091 186.206 65.6818V63.2273C186.092 63.3636 185.842 63.4886 185.456 63.6023C185.077 63.7083 184.638 63.803 184.138 63.8864C183.645 63.9621 183.164 64.0303 182.695 64.0909C182.232 64.1439 181.857 64.1894 181.57 64.2273C180.873 64.3182 180.221 64.4659 179.615 64.6705C179.017 64.8674 178.532 65.1667 178.161 65.5682C177.797 65.9621 177.615 66.5 177.615 67.1818C177.615 68.1136 177.96 68.8182 178.649 69.2955C179.346 69.7652 180.229 70 181.297 70ZM196.464 48.7273V72H193.783V48.7273H196.464ZM204.058 48.7273V72H201.376V48.7273H204.058Z" fill="white"/>
<path d="M285.03 56H282.212C282.045 55.1894 281.753 54.4773 281.337 53.8636C280.928 53.25 280.428 52.7348 279.837 52.3182C279.253 51.8939 278.606 51.5758 277.893 51.3636C277.181 51.1515 276.439 51.0455 275.666 51.0455C274.257 51.0455 272.981 51.4015 271.837 52.1136C270.7 52.8258 269.795 53.875 269.121 55.2614C268.454 56.6477 268.121 58.3485 268.121 60.3636C268.121 62.3788 268.454 64.0795 269.121 65.4659C269.795 66.8523 270.7 67.9015 271.837 68.6136C272.981 69.3258 274.257 69.6818 275.666 69.6818C276.439 69.6818 277.181 69.5758 277.893 69.3636C278.606 69.1515 279.253 68.8371 279.837 68.4205C280.428 67.9962 280.928 67.4773 281.337 66.8636C281.753 66.2424 282.045 65.5303 282.212 64.7273H285.03C284.818 65.9167 284.431 66.9811 283.871 67.9205C283.31 68.8598 282.613 69.6591 281.78 70.3182C280.946 70.9697 280.011 71.4659 278.973 71.8068C277.943 72.1477 276.84 72.3182 275.666 72.3182C273.681 72.3182 271.916 71.8333 270.371 70.8636C268.825 69.8939 267.609 68.5152 266.723 66.7273C265.837 64.9394 265.393 62.8182 265.393 60.3636C265.393 57.9091 265.837 55.7879 266.723 54C267.609 52.2121 268.825 50.8333 270.371 49.8636C271.916 48.8939 273.681 48.4091 275.666 48.4091C276.84 48.4091 277.943 48.5795 278.973 48.9205C280.011 49.2614 280.946 49.7614 281.78 50.4205C282.613 51.072 283.31 51.8674 283.871 52.8068C284.431 53.7386 284.818 54.803 285.03 56ZM296.311 72.3636C294.735 72.3636 293.353 71.9886 292.163 71.2386C290.982 70.4886 290.057 69.4394 289.391 68.0909C288.732 66.7424 288.402 65.1667 288.402 63.3636C288.402 61.5455 288.732 59.9583 289.391 58.6023C290.057 57.2462 290.982 56.1932 292.163 55.4432C293.353 54.6932 294.735 54.3182 296.311 54.3182C297.887 54.3182 299.266 54.6932 300.447 55.4432C301.637 56.1932 302.561 57.2462 303.22 58.6023C303.887 59.9583 304.22 61.5455 304.22 63.3636C304.22 65.1667 303.887 66.7424 303.22 68.0909C302.561 69.4394 301.637 70.4886 300.447 71.2386C299.266 71.9886 297.887 72.3636 296.311 72.3636ZM296.311 69.9545C297.508 69.9545 298.493 69.6477 299.266 69.0341C300.038 68.4205 300.61 67.6136 300.982 66.6136C301.353 65.6136 301.538 64.5303 301.538 63.3636C301.538 62.197 301.353 61.1098 300.982 60.1023C300.61 59.0947 300.038 58.2803 299.266 57.6591C298.493 57.0379 297.508 56.7273 296.311 56.7273C295.114 56.7273 294.129 57.0379 293.357 57.6591C292.584 58.2803 292.012 59.0947 291.641 60.1023C291.269 61.1098 291.084 62.197 291.084 63.3636C291.084 64.5303 291.269 65.6136 291.641 66.6136C292.012 67.6136 292.584 68.4205 293.357 69.0341C294.129 69.6477 295.114 69.9545 296.311 69.9545ZM313.45 72.4091C312.344 72.4091 311.34 72.2008 310.439 71.7841C309.537 71.3598 308.821 70.75 308.291 69.9545C307.761 69.1515 307.496 68.1818 307.496 67.0455C307.496 66.0455 307.693 65.2348 308.087 64.6136C308.481 63.9848 309.007 63.4924 309.666 63.1364C310.325 62.7803 311.053 62.5152 311.848 62.3409C312.651 62.1591 313.458 62.0152 314.268 61.9091C315.329 61.7727 316.189 61.6705 316.848 61.6023C317.515 61.5265 318 61.4015 318.303 61.2273C318.613 61.053 318.768 60.75 318.768 60.3182V60.2273C318.768 59.1061 318.462 58.2348 317.848 57.6136C317.242 56.9924 316.321 56.6818 315.087 56.6818C313.806 56.6818 312.803 56.9621 312.075 57.5227C311.348 58.0833 310.837 58.6818 310.541 59.3182L307.996 58.4091C308.45 57.3485 309.056 56.5227 309.814 55.9318C310.579 55.3333 311.412 54.9167 312.314 54.6818C313.223 54.4394 314.117 54.3182 314.996 54.3182C315.556 54.3182 316.2 54.3864 316.928 54.5227C317.662 54.6515 318.371 54.9205 319.053 55.3295C319.742 55.7386 320.314 56.3561 320.768 57.1818C321.223 58.0076 321.45 59.1136 321.45 60.5V72H318.768V69.6364H318.632C318.45 70.0152 318.147 70.4205 317.723 70.8523C317.299 71.2841 316.734 71.6515 316.03 71.9545C315.325 72.2576 314.465 72.4091 313.45 72.4091ZM313.859 70C314.92 70 315.814 69.7917 316.541 69.375C317.276 68.9583 317.829 68.4205 318.2 67.7614C318.579 67.1023 318.768 66.4091 318.768 65.6818V63.2273C318.655 63.3636 318.405 63.4886 318.018 63.6023C317.64 63.7083 317.2 63.803 316.7 63.8864C316.208 63.9621 315.727 64.0303 315.257 64.0909C314.795 64.1439 314.42 64.1894 314.132 64.2273C313.435 64.3182 312.784 64.4659 312.178 64.6705C311.579 64.8674 311.094 65.1667 310.723 65.5682C310.359 65.9621 310.178 66.5 310.178 67.1818C310.178 68.1136 310.522 68.8182 311.212 69.2955C311.909 69.7652 312.791 70 313.859 70ZM333.936 54.5455V56.8182H324.891V54.5455H333.936ZM327.527 50.3636H330.209V67C330.209 67.7576 330.319 68.3258 330.538 68.7045C330.766 69.0758 331.054 69.3258 331.402 69.4545C331.758 69.5758 332.133 69.6364 332.527 69.6364C332.822 69.6364 333.065 69.6212 333.254 69.5909C333.444 69.553 333.595 69.5227 333.709 69.5L334.254 71.9091C334.072 71.9773 333.819 72.0455 333.493 72.1136C333.167 72.1894 332.754 72.2273 332.254 72.2273C331.497 72.2273 330.754 72.0644 330.027 71.7386C329.307 71.4129 328.709 70.9167 328.232 70.25C327.762 69.5833 327.527 68.7424 327.527 67.7273V50.3636Z" fill="white"/>
<path d="M391.74 72V48.7273H394.558V60.2727H394.831L405.286 48.7273H408.967L399.195 59.2273L408.967 72H405.558L397.467 61.1818L394.558 64.4545V72H391.74ZM413.345 72V54.5455H416.027V72H413.345ZM414.709 51.6364C414.186 51.6364 413.735 51.4583 413.357 51.1023C412.985 50.7462 412.8 50.3182 412.8 49.8182C412.8 49.3182 412.985 48.8902 413.357 48.5341C413.735 48.178 414.186 48 414.709 48C415.232 48 415.679 48.178 416.05 48.5341C416.429 48.8902 416.618 49.3182 416.618 49.8182C416.618 50.3182 416.429 50.7462 416.05 51.1023C415.679 51.4583 415.232 51.6364 414.709 51.6364ZM424.893 72L419.575 54.5455H422.393L426.166 67.9091H426.348L430.075 54.5455H432.939L436.621 67.8636H436.803L440.575 54.5455H443.393L438.075 72H435.439L431.621 58.5909H431.348L427.53 72H424.893ZM446.939 72V54.5455H449.621V72H446.939ZM448.303 51.6364C447.78 51.6364 447.329 51.4583 446.95 51.1023C446.579 50.7462 446.393 50.3182 446.393 49.8182C446.393 49.3182 446.579 48.8902 446.95 48.5341C447.329 48.178 447.78 48 448.303 48C448.825 48 449.272 48.178 449.643 48.5341C450.022 48.8902 450.212 49.3182 450.212 49.8182C450.212 50.3182 450.022 50.7462 449.643 51.1023C449.272 51.4583 448.825 51.6364 448.303 51.6364Z" fill="white"/>
<path d="M510.709 48.7273H514.072L521.982 68.0455H522.254L530.163 48.7273H533.527V72H530.891V54.3182H530.663L523.391 72H520.845L513.572 54.3182H513.345V72H510.709V48.7273ZM543.95 72.4091C542.844 72.4091 541.84 72.2008 540.939 71.7841C540.037 71.3598 539.321 70.75 538.791 69.9545C538.261 69.1515 537.996 68.1818 537.996 67.0455C537.996 66.0455 538.193 65.2348 538.587 64.6136C538.981 63.9848 539.507 63.4924 540.166 63.1364C540.825 62.7803 541.553 62.5152 542.348 62.3409C543.151 62.1591 543.958 62.0152 544.768 61.9091C545.829 61.7727 546.689 61.6705 547.348 61.6023C548.015 61.5265 548.5 61.4015 548.803 61.2273C549.113 61.053 549.268 60.75 549.268 60.3182V60.2273C549.268 59.1061 548.962 58.2348 548.348 57.6136C547.742 56.9924 546.821 56.6818 545.587 56.6818C544.306 56.6818 543.303 56.9621 542.575 57.5227C541.848 58.0833 541.337 58.6818 541.041 59.3182L538.496 58.4091C538.95 57.3485 539.556 56.5227 540.314 55.9318C541.079 55.3333 541.912 54.9167 542.814 54.6818C543.723 54.4394 544.617 54.3182 545.496 54.3182C546.056 54.3182 546.7 54.3864 547.428 54.5227C548.162 54.6515 548.871 54.9205 549.553 55.3295C550.242 55.7386 550.814 56.3561 551.268 57.1818C551.723 58.0076 551.95 59.1136 551.95 60.5V72H549.268V69.6364H549.132C548.95 70.0152 548.647 70.4205 548.223 70.8523C547.799 71.2841 547.234 71.6515 546.53 71.9545C545.825 72.2576 544.965 72.4091 543.95 72.4091ZM544.359 70C545.42 70 546.314 69.7917 547.041 69.375C547.776 68.9583 548.329 68.4205 548.7 67.7614C549.079 67.1023 549.268 66.4091 549.268 65.6818V63.2273C549.155 63.3636 548.905 63.4886 548.518 63.6023C548.14 63.7083 547.7 63.803 547.2 63.8864C546.708 63.9621 546.227 64.0303 545.757 64.0909C545.295 64.1439 544.92 64.1894 544.632 64.2273C543.935 64.3182 543.284 64.4659 542.678 64.6705C542.079 64.8674 541.594 65.1667 541.223 65.5682C540.859 65.9621 540.678 66.5 540.678 67.1818C540.678 68.1136 541.022 68.8182 541.712 69.2955C542.409 69.7652 543.291 70 544.359 70ZM559.527 61.5V72H556.845V54.5455H559.436V57.2727H559.663C560.072 56.3864 560.694 55.6742 561.527 55.1364C562.36 54.5909 563.436 54.3182 564.754 54.3182C565.936 54.3182 566.97 54.5606 567.857 55.0455C568.743 55.5227 569.432 56.25 569.925 57.2273C570.417 58.197 570.663 59.4242 570.663 60.9091V72H567.982V61.0909C567.982 59.7197 567.625 58.6515 566.913 57.8864C566.201 57.1136 565.224 56.7273 563.982 56.7273C563.125 56.7273 562.36 56.9129 561.686 57.2841C561.019 57.6553 560.493 58.197 560.107 58.9091C559.72 59.6212 559.527 60.4848 559.527 61.5Z" fill="white"/>
<path d="M622.967 51.2273V48.7273H640.422V51.2273H633.104V72H630.286V51.2273H622.967ZM644.408 72V54.5455H647.089V72H644.408ZM645.771 51.6364C645.249 51.6364 644.798 51.4583 644.419 51.1023C644.048 50.7462 643.862 50.3182 643.862 49.8182C643.862 49.3182 644.048 48.8902 644.419 48.5341C644.798 48.178 645.249 48 645.771 48C646.294 48 646.741 48.178 647.112 48.5341C647.491 48.8902 647.68 49.3182 647.68 49.8182C647.68 50.3182 647.491 50.7462 647.112 51.1023C646.741 51.4583 646.294 51.6364 645.771 51.6364ZM659.047 78.9091C657.751 78.9091 656.638 78.7424 655.706 78.4091C654.774 78.0833 653.998 77.6515 653.376 77.1136C652.763 76.5833 652.274 76.0152 651.911 75.4091L654.047 73.9091C654.289 74.2273 654.596 74.5909 654.967 75C655.339 75.4167 655.846 75.7765 656.49 76.0795C657.142 76.3902 657.994 76.5455 659.047 76.5455C660.456 76.5455 661.619 76.2045 662.536 75.5227C663.452 74.8409 663.911 73.7727 663.911 72.3182V68.7727H663.683C663.486 69.0909 663.206 69.4848 662.842 69.9545C662.486 70.4167 661.971 70.8295 661.297 71.1932C660.63 71.5492 659.729 71.7273 658.592 71.7273C657.183 71.7273 655.918 71.3939 654.797 70.7273C653.683 70.0606 652.801 69.0909 652.149 67.8182C651.505 66.5455 651.183 65 651.183 63.1818C651.183 61.3939 651.498 59.8371 652.126 58.5114C652.755 57.178 653.63 56.1477 654.751 55.4205C655.873 54.6856 657.168 54.3182 658.638 54.3182C659.774 54.3182 660.676 54.5076 661.342 54.8864C662.017 55.2576 662.532 55.6818 662.888 56.1591C663.251 56.6288 663.532 57.0152 663.729 57.3182H664.001V54.5455H666.592V72.5C666.592 74 666.251 75.2197 665.57 76.1591C664.895 77.1061 663.986 77.7992 662.842 78.2386C661.706 78.6856 660.441 78.9091 659.047 78.9091ZM658.956 69.3182C660.032 69.3182 660.941 69.072 661.683 68.5795C662.426 68.0871 662.99 67.3788 663.376 66.4545C663.763 65.5303 663.956 64.4242 663.956 63.1364C663.956 61.8788 663.767 60.7689 663.388 59.8068C663.009 58.8447 662.448 58.0909 661.706 57.5455C660.964 57 660.047 56.7273 658.956 56.7273C657.82 56.7273 656.873 57.0152 656.115 57.5909C655.365 58.1667 654.801 58.9394 654.422 59.9091C654.051 60.8788 653.865 61.9545 653.865 63.1364C653.865 64.3485 654.054 65.4205 654.433 66.3523C654.82 67.2765 655.388 68.0038 656.138 68.5341C656.895 69.0568 657.835 69.3182 658.956 69.3182ZM678.82 72.3636C677.138 72.3636 675.687 71.9924 674.467 71.25C673.255 70.5 672.32 69.4545 671.661 68.1136C671.009 66.7652 670.683 65.197 670.683 63.4091C670.683 61.6212 671.009 60.0455 671.661 58.6818C672.32 57.3106 673.236 56.2424 674.411 55.4773C675.592 54.7045 676.971 54.3182 678.547 54.3182C679.456 54.3182 680.354 54.4697 681.24 54.7727C682.126 55.0758 682.933 55.5682 683.661 56.25C684.388 56.9242 684.967 57.8182 685.399 58.9318C685.831 60.0455 686.047 61.4167 686.047 63.0455V64.1818H672.592V61.8636H683.32C683.32 60.8788 683.123 60 682.729 59.2273C682.342 58.4545 681.789 57.8447 681.07 57.3977C680.357 56.9508 679.517 56.7273 678.547 56.7273C677.479 56.7273 676.554 56.9924 675.774 57.5227C675.001 58.0455 674.407 58.7273 673.99 59.5682C673.573 60.4091 673.365 61.3106 673.365 62.2727V63.8182C673.365 65.1364 673.592 66.2538 674.047 67.1705C674.509 68.0795 675.149 68.7727 675.967 69.25C676.786 69.7197 677.736 69.9545 678.82 69.9545C679.524 69.9545 680.161 69.8561 680.729 69.6591C681.304 69.4545 681.801 69.1515 682.217 68.75C682.634 68.3409 682.956 67.8333 683.183 67.2273L685.774 67.9545C685.501 68.8333 685.043 69.6061 684.399 70.2727C683.755 70.9318 682.96 71.447 682.013 71.8182C681.066 72.1818 680.001 72.3636 678.82 72.3636ZM690.126 72V54.5455H692.717V57.1818H692.899C693.217 56.3182 693.793 55.6174 694.626 55.0795C695.46 54.5417 696.399 54.2727 697.445 54.2727C697.642 54.2727 697.888 54.2765 698.183 54.2841C698.479 54.2917 698.702 54.303 698.854 54.3182V57.0455C698.763 57.0227 698.554 56.9886 698.229 56.9432C697.911 56.8902 697.573 56.8636 697.217 56.8636C696.369 56.8636 695.611 57.0417 694.945 57.3977C694.286 57.7462 693.763 58.2311 693.376 58.8523C692.998 59.4659 692.808 60.1667 692.808 60.9545V72H690.126Z" fill="white"/>
<path d="M738.327 72V69.9545L750.872 51.2273H738.19V48.7273H754.236V50.7727L741.69 69.5H754.372V72H738.327ZM766.054 72.3636C764.372 72.3636 762.921 71.9924 761.702 71.25C760.49 70.5 759.554 69.4545 758.895 68.1136C758.243 66.7652 757.918 65.197 757.918 63.4091C757.918 61.6212 758.243 60.0455 758.895 58.6818C759.554 57.3106 760.471 56.2424 761.645 55.4773C762.827 54.7045 764.205 54.3182 765.781 54.3182C766.69 54.3182 767.588 54.4697 768.474 54.7727C769.361 55.0758 770.168 55.5682 770.895 56.25C771.622 56.9242 772.202 57.8182 772.634 58.9318C773.065 60.0455 773.281 61.4167 773.281 63.0455V64.1818H759.827V61.8636H770.554C770.554 60.8788 770.357 60 769.963 59.2273C769.577 58.4545 769.024 57.8447 768.304 57.3977C767.592 56.9508 766.751 56.7273 765.781 56.7273C764.713 56.7273 763.789 56.9924 763.009 57.5227C762.236 58.0455 761.641 58.7273 761.224 59.5682C760.808 60.4091 760.599 61.3106 760.599 62.2727V63.8182C760.599 65.1364 760.827 66.2538 761.281 67.1705C761.743 68.0795 762.384 68.7727 763.202 69.25C764.02 69.7197 764.971 69.9545 766.054 69.9545C766.759 69.9545 767.395 69.8561 767.963 69.6591C768.539 69.4545 769.035 69.1515 769.452 68.75C769.868 68.3409 770.19 67.8333 770.418 67.2273L773.009 67.9545C772.736 68.8333 772.277 69.6061 771.634 70.2727C770.99 70.9318 770.194 71.447 769.247 71.8182C768.3 72.1818 767.236 72.3636 766.054 72.3636ZM777.724 72V48.7273H780.406V57.3182H780.634C780.83 57.0152 781.103 56.6288 781.452 56.1591C781.808 55.6818 782.315 55.2576 782.974 54.8864C783.641 54.5076 784.543 54.3182 785.679 54.3182C787.149 54.3182 788.444 54.6856 789.565 55.4205C790.687 56.1553 791.562 57.197 792.19 58.5455C792.819 59.8939 793.134 61.4848 793.134 63.3182C793.134 65.1667 792.819 66.7689 792.19 68.125C791.562 69.4735 790.69 70.5189 789.577 71.2614C788.463 71.9962 787.179 72.3636 785.724 72.3636C784.603 72.3636 783.705 72.178 783.031 71.8068C782.357 71.428 781.838 71 781.474 70.5227C781.111 70.0379 780.83 69.6364 780.634 69.3182H780.315V72H777.724ZM780.361 63.2727C780.361 64.5909 780.554 65.7538 780.94 66.7614C781.327 67.7614 781.891 68.5455 782.634 69.1136C783.376 69.6742 784.285 69.9545 785.361 69.9545C786.482 69.9545 787.418 69.6591 788.168 69.0682C788.925 68.4697 789.493 67.6667 789.872 66.6591C790.259 65.6439 790.452 64.5152 790.452 63.2727C790.452 62.0455 790.262 60.9394 789.884 59.9545C789.512 58.9621 788.948 58.178 788.19 57.6023C787.44 57.0189 786.497 56.7273 785.361 56.7273C784.27 56.7273 783.353 57.0038 782.611 57.5568C781.868 58.1023 781.308 58.8674 780.929 59.8523C780.55 60.8295 780.361 61.9697 780.361 63.2727ZM797.236 72V54.5455H799.827V57.1818H800.009C800.327 56.3182 800.902 55.6174 801.736 55.0795C802.569 54.5417 803.509 54.2727 804.554 54.2727C804.751 54.2727 804.997 54.2765 805.293 54.2841C805.588 54.2917 805.812 54.303 805.963 54.3182V57.0455C805.872 57.0227 805.664 56.9886 805.338 56.9432C805.02 56.8902 804.683 56.8636 804.327 56.8636C803.478 56.8636 802.721 57.0417 802.054 57.3977C801.395 57.7462 800.872 58.2311 800.486 58.8523C800.107 59.4659 799.918 60.1667 799.918 60.9545V72H797.236ZM814.278 72.4091C813.172 72.4091 812.169 72.2008 811.267 71.7841C810.366 71.3598 809.65 70.75 809.119 69.9545C808.589 69.1515 808.324 68.1818 808.324 67.0455C808.324 66.0455 808.521 65.2348 808.915 64.6136C809.309 63.9848 809.835 63.4924 810.494 63.1364C811.153 62.7803 811.881 62.5152 812.676 62.3409C813.479 62.1591 814.286 62.0152 815.097 61.9091C816.157 61.7727 817.017 61.6705 817.676 61.6023C818.343 61.5265 818.828 61.4015 819.131 61.2273C819.441 61.053 819.597 60.75 819.597 60.3182V60.2273C819.597 59.1061 819.29 58.2348 818.676 57.6136C818.07 56.9924 817.15 56.6818 815.915 56.6818C814.634 56.6818 813.631 56.9621 812.903 57.5227C812.176 58.0833 811.665 58.6818 811.369 59.3182L808.824 58.4091C809.278 57.3485 809.884 56.5227 810.642 55.9318C811.407 55.3333 812.241 54.9167 813.142 54.6818C814.051 54.4394 814.945 54.3182 815.824 54.3182C816.384 54.3182 817.028 54.3864 817.756 54.5227C818.491 54.6515 819.199 54.9205 819.881 55.3295C820.57 55.7386 821.142 56.3561 821.597 57.1818C822.051 58.0076 822.278 59.1136 822.278 60.5V72H819.597V69.6364H819.46C819.278 70.0152 818.975 70.4205 818.551 70.8523C818.127 71.2841 817.563 71.6515 816.858 71.9545C816.153 72.2576 815.294 72.4091 814.278 72.4091ZM814.688 70C815.748 70 816.642 69.7917 817.369 69.375C818.104 68.9583 818.657 68.4205 819.028 67.7614C819.407 67.1023 819.597 66.4091 819.597 65.6818V63.2273C819.483 63.3636 819.233 63.4886 818.847 63.6023C818.468 63.7083 818.028 63.803 817.528 63.8864C817.036 63.9621 816.555 64.0303 816.085 64.0909C815.623 64.1439 815.248 64.1894 814.96 64.2273C814.263 64.3182 813.612 64.4659 813.006 64.6705C812.407 64.8674 811.922 65.1667 811.551 65.5682C811.188 65.9621 811.006 66.5 811.006 67.1818C811.006 68.1136 811.35 68.8182 812.04 69.2955C812.737 69.7652 813.619 70 814.688 70Z" fill="white"/>
<path d="M781.061 171.561C781.646 170.975 781.646 170.025 781.061 169.439L771.515 159.893C770.929 159.308 769.979 159.308 769.393 159.893C768.808 160.479 768.808 161.429 769.393 162.015L777.879 170.5L769.393 178.985C768.808 179.571 768.808 180.521 769.393 181.107C769.979 181.692 770.929 181.692 771.515 181.107L781.061 171.561ZM59 170.5L59 172L780 172L780 170.5L780 169L59 169L59 170.5Z" fill="#727272"/>
</svg>
