<svg xmlns="http://www.w3.org/2000/svg" width="841" height="182" fill="none" viewBox="0 0 841 182"><rect width="839" height="120" x="1" y="1" stroke="#dbdbdb" stroke-width="2" rx="26"/><path stroke="#dbdbdb" stroke-width="2" d="M121 0v122M241 0v122M362 0v122M482 0v122M602 0v122M722 0v122"/><path fill="#fff" d="M19.85 72h-2.954l8.546-23.273h2.909L36.896 72h-2.954l-6.955-19.59h-.182zm1.092-9.09H32.85v2.5H20.94zm19.216 15.636v-24h2.59v2.772h.319q.296-.455.818-1.159.534-.715 1.523-1.273 1-.567 2.704-.568 2.204 0 3.887 1.102 1.68 1.103 2.625 3.125.943 2.023.943 4.773 0 2.773-.943 4.807-.944 2.023-2.614 3.136-1.671 1.103-3.852 1.103-1.683 0-2.693-.557-1.013-.569-1.557-1.284a17 17 0 0 1-.841-1.205h-.227v9.228zm2.636-15.273q0 1.977.58 3.488.579 1.5 1.693 2.353 1.113.84 2.727.84 1.682 0 2.807-.886 1.136-.897 1.704-2.409.58-1.523.58-3.386 0-1.842-.568-3.318-.557-1.49-1.693-2.353-1.126-.875-2.83-.875-1.636 0-2.75.83-1.113.818-1.682 2.295-.568 1.467-.568 3.42m16.864 15.273v-24h2.59v2.772h.319q.296-.455.818-1.159.534-.715 1.523-1.273 1-.567 2.704-.568 2.204 0 3.887 1.102 1.68 1.103 2.625 3.125.942 2.023.943 4.773 0 2.773-.943 4.807-.944 2.023-2.614 3.136-1.671 1.103-3.852 1.103-1.682 0-2.693-.557-1.013-.569-1.557-1.284a17 17 0 0 1-.841-1.205h-.227v9.228zm2.636-15.273q0 1.977.58 3.488.579 1.5 1.693 2.353 1.113.84 2.727.84 1.682 0 2.807-.886 1.136-.897 1.704-2.409.58-1.523.58-3.386 0-1.842-.568-3.318-.557-1.49-1.693-2.353-1.126-.875-2.83-.875-1.635 0-2.75.83-1.113.818-1.682 2.295-.568 1.467-.568 3.42M81.84 48.727V72h-2.682V48.727zm12.23 23.637q-2.523 0-4.353-1.114-1.818-1.126-2.806-3.136-.978-2.023-.978-4.705t.977-4.727q.99-2.057 2.75-3.205 1.773-1.158 4.137-1.159 1.364 0 2.693.455a6.7 6.7 0 0 1 2.42 1.477q1.091 1.011 1.739 2.682.648 1.67.648 4.113v1.137H87.842v-2.318H98.57q0-1.477-.591-2.637a4.45 4.45 0 0 0-1.66-1.83q-1.068-.67-2.522-.67-1.602 0-2.773.796a5.23 5.23 0 0 0-1.784 2.045 6 6 0 0 0-.625 2.705v1.545q0 1.977.682 3.353.693 1.363 1.92 2.079 1.228.704 2.853.704 1.056 0 1.909-.295a4.1 4.1 0 0 0 1.488-.909 4.1 4.1 0 0 0 .966-1.523l2.591.727a5.75 5.75 0 0 1-1.375 2.319q-.966.989-2.386 1.545-1.421.546-3.193.546M155.303 72V48.727h8.136q2.432 0 4.011.841 1.58.83 2.353 2.239.772 1.398.772 3.102 0 1.5-.534 2.477a4.15 4.15 0 0 1-1.386 1.546 6.3 6.3 0 0 1-1.852.84V60q1.068.067 2.147.75 1.08.682 1.807 1.955.727 1.272.727 3.113 0 1.75-.795 3.148-.796 1.398-2.511 2.216t-4.466.818zm2.818-2.5h5.591q2.761 0 3.92-1.068 1.17-1.08 1.171-2.614 0-1.182-.603-2.182-.602-1.011-1.716-1.613-1.113-.615-2.636-.614h-5.727zm0-10.545h5.227q1.273 0 2.295-.5a4 4 0 0 0 1.637-1.41q.613-.909.613-2.136 0-1.534-1.068-2.602-1.068-1.08-3.386-1.08h-5.318zm22.767 13.454q-1.659 0-3.012-.625a5.17 5.17 0 0 1-2.147-1.83q-.796-1.204-.796-2.908 0-1.5.591-2.432a4.2 4.2 0 0 1 1.58-1.478 8.3 8.3 0 0 1 2.182-.795 27 27 0 0 1 2.42-.432q1.59-.204 2.58-.307 1-.113 1.454-.375.466-.261.466-.909v-.09q0-1.683-.92-2.614-.91-.933-2.762-.932-1.92 0-3.011.84-1.091.842-1.534 1.796l-2.546-.909q.683-1.59 1.818-2.477a6.8 6.8 0 0 1 2.5-1.25q1.364-.364 2.682-.364.841 0 1.932.205a6.2 6.2 0 0 1 2.125.806q1.034.614 1.716 1.853t.682 3.318V72h-2.682v-2.364h-.136q-.273.57-.909 1.216-.637.648-1.694 1.102-1.056.456-2.579.455m.409-2.409q1.59 0 2.682-.625 1.102-.625 1.659-1.614a4.1 4.1 0 0 0 .568-2.08v-2.454q-.171.205-.75.375-.568.16-1.318.284-.74.114-1.443.205-.694.08-1.125.136-1.046.136-1.955.444-.897.295-1.454.897-.546.591-.546 1.614 0 1.398 1.034 2.114 1.046.704 2.648.704m15.167-21.273V72h-2.681V48.727zm7.594 0V72h-2.682V48.727zM285.03 56h-2.818q-.25-1.216-.875-2.136a5.8 5.8 0 0 0-1.5-1.546 6.4 6.4 0 0 0-1.944-.954 7.8 7.8 0 0 0-2.227-.319q-2.113 0-3.829 1.069-1.705 1.068-2.716 3.147-1 2.08-1 5.103t1 5.102q1.01 2.08 2.716 3.148 1.716 1.068 3.829 1.068 1.16 0 2.227-.318a6.5 6.5 0 0 0 1.944-.944 6 6 0 0 0 1.5-1.556 6 6 0 0 0 .875-2.137h2.818q-.318 1.784-1.159 3.194a8.7 8.7 0 0 1-2.091 2.397 9.2 9.2 0 0 1-2.807 1.489q-1.545.51-3.307.511-2.978 0-5.295-1.454-2.319-1.455-3.648-4.137t-1.33-6.363q0-3.682 1.33-6.364 1.329-2.682 3.648-4.136 2.317-1.455 5.295-1.455 1.762 0 3.307.511 1.557.511 2.807 1.5a8.6 8.6 0 0 1 2.091 2.387q.84 1.398 1.159 3.193m11.281 16.364q-2.363 0-4.148-1.125-1.772-1.126-2.772-3.148-.989-2.023-.989-4.727 0-2.728.989-4.762 1-2.034 2.772-3.159 1.784-1.125 4.148-1.125t4.136 1.125q1.785 1.125 2.773 3.16 1 2.033 1 4.76 0 2.706-1 4.728-.988 2.023-2.773 3.148-1.772 1.125-4.136 1.125m0-2.41q1.796 0 2.955-.92 1.158-.92 1.716-2.42.556-1.5.556-3.25t-.556-3.262q-.558-1.511-1.716-2.443-1.16-.932-2.955-.932t-2.954.932q-1.16.932-1.716 2.443-.558 1.512-.557 3.262 0 1.75.557 3.25.556 1.5 1.716 2.42 1.158.92 2.954.92m17.139 2.455q-1.66 0-3.011-.625a5.16 5.16 0 0 1-2.148-1.83q-.795-1.204-.795-2.908 0-1.5.591-2.432a4.17 4.17 0 0 1 1.579-1.478 8.3 8.3 0 0 1 2.182-.795q1.205-.273 2.42-.432 1.591-.204 2.58-.307 1-.113 1.455-.375.465-.261.465-.909v-.09q0-1.683-.92-2.614-.91-.933-2.761-.932-1.92 0-3.012.84-1.09.842-1.534 1.796l-2.545-.909q.681-1.59 1.818-2.477a6.8 6.8 0 0 1 2.5-1.25 10.4 10.4 0 0 1 2.682-.364q.84 0 1.932.205a6.2 6.2 0 0 1 2.125.806q1.034.614 1.715 1.853.682 1.239.682 3.318V72h-2.682v-2.364h-.136q-.273.57-.909 1.216-.636.648-1.693 1.102-1.058.456-2.58.455m.409-2.409q1.591 0 2.682-.625 1.103-.625 1.659-1.614a4.1 4.1 0 0 0 .568-2.08v-2.454q-.17.205-.75.375-.567.16-1.318.284-.738.114-1.443.205-.693.08-1.125.136-1.045.136-1.954.444-.899.295-1.455.897-.546.591-.545 1.614 0 1.398 1.034 2.114 1.045.704 2.647.704m20.077-15.455v2.273h-9.045v-2.273zm-6.409-4.181h2.682V67q0 1.137.329 1.704.342.558.864.75.534.182 1.125.182.443 0 .727-.045l.455-.091.545 2.41a5.4 5.4 0 0 1-.761.204q-.489.113-1.239.113-1.136 0-2.227-.488a4.4 4.4 0 0 1-1.795-1.489q-.705-1-.705-2.523zM391.74 72V48.727h2.818v11.546h.273l10.455-11.546h3.681l-9.772 10.5L408.967 72h-3.409l-8.091-10.818-2.909 3.272V72zm21.605 0V54.545h2.682V72zm1.364-20.364q-.785 0-1.352-.534a1.71 1.71 0 0 1-.557-1.284q0-.75.557-1.284a1.9 1.9 0 0 1 1.352-.534q.785 0 1.341.534.568.534.568 1.284t-.568 1.284a1.87 1.87 0 0 1-1.341.534M424.893 72l-5.318-17.455h2.818l3.773 13.364h.182l3.727-13.364h2.864l3.682 13.319h.182l3.772-13.319h2.818L438.075 72h-2.636l-3.818-13.41h-.273L427.53 72zm22.046 0V54.545h2.682V72zm1.364-20.364q-.784 0-1.353-.534a1.72 1.72 0 0 1-.557-1.284q0-.75.557-1.284.569-.534 1.353-.534.783 0 1.34.534.569.534.569 1.284t-.569 1.284a1.87 1.87 0 0 1-1.34.534M510.709 48.727h3.363l7.91 19.319h.272l7.909-19.319h3.364V72h-2.636V54.318h-.228L523.391 72h-2.546l-7.273-17.682h-.227V72h-2.636zM543.95 72.41q-1.66 0-3.011-.625a5.16 5.16 0 0 1-2.148-1.83q-.795-1.204-.795-2.908 0-1.5.591-2.432a4.17 4.17 0 0 1 1.579-1.478 8.3 8.3 0 0 1 2.182-.795q1.205-.273 2.42-.432 1.591-.204 2.58-.307 1-.113 1.455-.375.465-.261.465-.909v-.09q0-1.683-.92-2.614-.91-.933-2.761-.932-1.92 0-3.012.84-1.09.842-1.534 1.796l-2.545-.909q.681-1.59 1.818-2.477a6.8 6.8 0 0 1 2.5-1.25 10.4 10.4 0 0 1 2.682-.364q.84 0 1.932.205a6.2 6.2 0 0 1 2.125.806q1.034.614 1.715 1.853.682 1.239.682 3.318V72h-2.682v-2.364h-.136q-.273.57-.909 1.216-.637.648-1.693 1.102-1.058.456-2.58.455m.409-2.409q1.592 0 2.682-.625 1.103-.625 1.659-1.614a4.1 4.1 0 0 0 .568-2.08v-2.454q-.17.205-.75.375-.567.16-1.318.284-.738.114-1.443.205-.693.08-1.125.136-1.045.136-1.954.444-.899.295-1.455.897-.545.591-.545 1.614 0 1.398 1.034 2.114 1.045.704 2.647.704m15.168-8.5V72h-2.682V54.545h2.591v2.728h.227a5 5 0 0 1 1.864-2.137q1.25-.818 3.227-.818 1.773 0 3.103.727 1.329.717 2.068 2.182.738 1.455.738 3.682V72h-2.681V61.09q0-2.056-1.069-3.204-1.068-1.158-2.931-1.159-1.285 0-2.296.557-1 .557-1.579 1.625-.58 1.068-.58 2.591M622.967 51.227v-2.5h17.455v2.5h-7.318V72h-2.818V51.227zM644.408 72V54.545h2.681V72zm1.363-20.364q-.783 0-1.352-.534a1.72 1.72 0 0 1-.557-1.284q0-.75.557-1.284.569-.534 1.352-.534t1.341.534q.568.534.568 1.284t-.568 1.284a1.87 1.87 0 0 1-1.341.534m13.276 27.273q-1.944 0-3.341-.5-1.397-.49-2.33-1.295-.92-.796-1.465-1.705l2.136-1.5q.363.477.92 1.091.558.625 1.523 1.08.978.465 2.557.466 2.113 0 3.489-1.023t1.375-3.205v-3.545h-.228q-.295.477-.841 1.181-.534.694-1.545 1.24-1 .533-2.705.533-2.114 0-3.795-1-1.67-1-2.648-2.909-.966-1.908-.966-4.636 0-2.682.943-4.67.943-2 2.625-3.092 1.682-1.102 3.887-1.102 1.705 0 2.704.568 1.012.558 1.546 1.273.545.705.841 1.16h.272v-2.774h2.591V72.5q0 2.25-1.022 3.66-1.012 1.42-2.728 2.079-1.704.67-3.795.67m-.091-9.59q1.614 0 2.727-.74 1.114-.738 1.693-2.124.58-1.386.58-3.319 0-1.886-.568-3.33-.569-1.442-1.682-2.26-1.113-.819-2.75-.819-1.704 0-2.841.864-1.125.864-1.693 2.318-.557 1.455-.557 3.227 0 1.819.568 3.216.58 1.386 1.705 2.182 1.136.784 2.818.784m19.864 3.045q-2.523 0-4.353-1.114-1.818-1.126-2.806-3.136-.978-2.023-.978-4.705t.978-4.727q.988-2.057 2.75-3.205 1.772-1.158 4.136-1.159 1.364 0 2.693.455a6.7 6.7 0 0 1 2.421 1.477q1.09 1.011 1.738 2.682.648 1.67.648 4.113v1.137h-13.455v-2.318h10.728q0-1.477-.591-2.637a4.46 4.46 0 0 0-1.659-1.83q-1.069-.67-2.523-.67-1.602 0-2.773.796a5.23 5.23 0 0 0-1.784 2.045 6 6 0 0 0-.625 2.705v1.545q0 1.977.682 3.353.693 1.363 1.92 2.079 1.228.704 2.853.704 1.057 0 1.909-.295a4.1 4.1 0 0 0 1.488-.909q.625-.614.966-1.523l2.591.727a5.75 5.75 0 0 1-1.375 2.319q-.966.989-2.386 1.545-1.421.546-3.193.546M690.126 72V54.545h2.591v2.637h.182q.477-1.296 1.727-2.102 1.25-.807 2.819-.807.296 0 .738.011.443.012.671.034v2.727a8 8 0 0 0-.625-.102 6 6 0 0 0-1.012-.08q-1.272 0-2.272.535a4.04 4.04 0 0 0-1.569 1.454q-.568.921-.568 2.103V72zM738.327 72v-2.046l12.545-18.727H738.19v-2.5h16.046v2.046L741.69 69.5h12.682V72zm27.727.364q-2.523 0-4.352-1.114-1.818-1.126-2.807-3.136-.978-2.023-.977-4.705 0-2.682.977-4.727.989-2.057 2.75-3.205 1.772-1.158 4.136-1.159 1.364 0 2.693.455a6.7 6.7 0 0 1 2.421 1.477q1.09 1.011 1.739 2.682.647 1.67.647 4.113v1.137h-13.454v-2.318h10.727q0-1.477-.591-2.637a4.45 4.45 0 0 0-1.659-1.83q-1.068-.67-2.523-.67-1.602 0-2.772.796a5.24 5.24 0 0 0-1.785 2.045 6 6 0 0 0-.625 2.705v1.545q0 1.977.682 3.353.693 1.363 1.921 2.079 1.227.704 2.852.704 1.057 0 1.909-.295a4.1 4.1 0 0 0 1.489-.909q.624-.614.966-1.523l2.591.727a5.76 5.76 0 0 1-1.375 2.319q-.966.989-2.387 1.545-1.42.546-3.193.546m11.67-.364V48.727h2.682v8.591h.228q.294-.455.818-1.159.534-.715 1.522-1.273 1-.567 2.705-.568 2.205 0 3.886 1.102 1.683 1.103 2.625 3.125.944 2.023.944 4.773 0 2.773-.944 4.807-.943 2.023-2.613 3.136-1.67 1.103-3.853 1.103-1.682 0-2.693-.557-1.011-.569-1.557-1.284a17 17 0 0 1-.84-1.205h-.319V72zm2.637-8.727q0 1.977.579 3.488.58 1.5 1.694 2.353 1.113.84 2.727.84 1.682 0 2.807-.886 1.135-.897 1.704-2.409.58-1.523.58-3.386 0-1.842-.568-3.318-.558-1.49-1.694-2.353-1.125-.875-2.829-.875-1.637 0-2.75.83-1.114.818-1.682 2.295-.568 1.467-.568 3.42M797.236 72V54.545h2.591v2.637h.182q.476-1.296 1.727-2.102 1.25-.807 2.818-.807.295 0 .739.011.443.012.67.034v2.727a8 8 0 0 0-.625-.102 6 6 0 0 0-1.011-.08q-1.273 0-2.273.535a4.03 4.03 0 0 0-1.568 1.454q-.568.921-.568 2.103V72zm17.042.41q-1.659-.001-3.011-.626a5.2 5.2 0 0 1-2.148-1.83q-.795-1.204-.795-2.908 0-1.5.591-2.432a4.17 4.17 0 0 1 1.579-1.478 8.3 8.3 0 0 1 2.182-.795q1.204-.273 2.421-.432 1.59-.204 2.579-.307 1-.113 1.455-.375.466-.261.466-.909v-.09q0-1.683-.921-2.614-.909-.933-2.761-.932-1.92 0-3.012.84-1.09.842-1.534 1.796l-2.545-.909q.681-1.59 1.818-2.477a6.8 6.8 0 0 1 2.5-1.25 10.4 10.4 0 0 1 2.682-.364q.84 0 1.932.205a6.2 6.2 0 0 1 2.125.806q1.034.614 1.716 1.853t.681 3.318V72h-2.681v-2.364h-.137q-.273.57-.909 1.216-.636.648-1.693 1.102-1.057.456-2.58.455m.41-2.41q1.59 0 2.681-.625 1.102-.625 1.659-1.614.569-.988.569-2.08v-2.454q-.171.205-.75.375-.569.16-1.319.284-.738.114-1.443.205-.693.08-1.125.136-1.045.136-1.954.444-.899.295-1.455.897-.545.591-.545 1.614 0 1.398 1.034 2.114 1.045.704 2.648.704"/><path fill="#727272" d="M781.061 171.561a1.5 1.5 0 0 0 0-2.122l-9.546-9.546a1.5 1.5 0 0 0-2.122 0 1.5 1.5 0 0 0 0 2.122l8.486 8.485-8.486 8.485a1.5 1.5 0 0 0 0 2.122 1.5 1.5 0 0 0 2.122 0zM59 170.5v1.5h721v-3H59z"/></svg>