<svg xmlns="http://www.w3.org/2000/svg" width="841" height="234" fill="none" viewBox="0 0 841 234"><rect width="839" height="120" x="1" y="113" stroke="#dbdbdb" stroke-width="2" rx="26"/><path stroke="#dbdbdb" stroke-width="2" d="M121 112v122M241 112v122M362 112v122M482 112v122M602 112v122M722 112v122"/><path fill="#fff" d="M19.85 184h-2.954l8.546-23.273h2.909L36.896 184h-2.954l-6.955-19.591h-.182zm1.092-9.091H32.85v2.5H20.94zm19.216 15.636v-24h2.59v2.773h.319q.296-.454.818-1.159.534-.715 1.523-1.273 1-.567 2.704-.568 2.204 0 3.887 1.102 1.68 1.103 2.625 3.125.943 2.023.943 4.773 0 2.773-.943 4.807-.944 2.023-2.614 3.136-1.671 1.103-3.852 1.103-1.683 0-2.693-.557-1.013-.569-1.557-1.284a17 17 0 0 1-.841-1.205h-.227v9.227zm2.636-15.272q0 1.977.58 3.488.579 1.5 1.693 2.353 1.113.84 2.727.841 1.682 0 2.807-.887 1.136-.897 1.704-2.409.58-1.523.58-3.386 0-1.842-.568-3.318-.557-1.49-1.693-2.353-1.126-.875-2.83-.875-1.636 0-2.75.83-1.113.817-1.682 2.295-.568 1.467-.568 3.421m16.864 15.272v-24h2.59v2.773h.319q.296-.454.818-1.159.534-.715 1.523-1.273 1-.567 2.704-.568 2.204 0 3.887 1.102 1.68 1.103 2.625 3.125.942 2.023.943 4.773 0 2.773-.943 4.807-.944 2.023-2.614 3.136-1.671 1.103-3.852 1.103-1.682 0-2.693-.557-1.013-.569-1.557-1.284a17 17 0 0 1-.841-1.205h-.227v9.227zm2.636-15.272q0 1.977.58 3.488.579 1.5 1.693 2.353 1.113.84 2.727.841 1.682 0 2.807-.887 1.136-.897 1.704-2.409.58-1.523.58-3.386 0-1.842-.568-3.318-.557-1.49-1.693-2.353-1.126-.875-2.83-.875-1.635 0-2.75.83-1.113.817-1.682 2.295-.568 1.467-.568 3.421m19.546-14.546V184h-2.682v-23.273zm12.23 23.637q-2.523 0-4.353-1.114-1.818-1.125-2.806-3.136-.978-2.023-.978-4.705t.977-4.727q.99-2.057 2.75-3.205 1.773-1.158 4.137-1.159 1.364 0 2.693.455a6.7 6.7 0 0 1 2.42 1.477q1.091 1.011 1.739 2.682.648 1.67.648 4.113v1.137H87.842v-2.318H98.57q0-1.478-.591-2.637a4.46 4.46 0 0 0-1.66-1.829q-1.068-.67-2.522-.671-1.602 0-2.773.796a5.2 5.2 0 0 0-1.784 2.045 6 6 0 0 0-.625 2.705v1.545q0 1.978.682 3.352.693 1.365 1.92 2.08 1.228.705 2.853.705 1.056 0 1.909-.296a4.1 4.1 0 0 0 1.488-.909 4.1 4.1 0 0 0 .966-1.523l2.591.728a5.76 5.76 0 0 1-1.375 2.318q-.966.988-2.386 1.545-1.421.546-3.193.546"/><path fill="#727272" d="M62.653 63.727V87h-2.818V66.682H59.7l-5.682 3.772v-2.863l5.818-3.864zM31.068 31V7.727h2.818V28.5h10.819V31zm24.727.364q-2.363 0-4.147-1.125-1.773-1.126-2.773-3.148-.99-2.023-.989-4.727 0-2.728.989-4.762 1-2.034 2.773-3.159 1.785-1.125 4.147-1.125 2.364 0 4.137 1.125 1.784 1.125 2.773 3.16 1 2.033 1 4.76 0 2.706-1 4.728-.99 2.022-2.773 3.148-1.772 1.125-4.137 1.125m0-2.41q1.796 0 2.955-.92t1.716-2.42.557-3.25-.557-3.262-1.716-2.443-2.955-.932-2.954.932-1.716 2.443-.557 3.262.557 3.25q.556 1.5 1.716 2.42t2.954.92M71.16 31l-5.318-17.454h2.818l3.773 13.363h.182l3.727-13.363h2.864l3.681 13.318h.182l3.773-13.318h2.818L84.341 31h-2.636l-3.819-13.41h-.272L73.796 31zM172.222 87v-2.046l7.681-8.408a54 54 0 0 0 2.228-2.569q.875-1.102 1.295-2.068a5 5 0 0 0 .432-2.045q0-1.228-.591-2.125a3.83 3.83 0 0 0-1.591-1.387q-1.011-.489-2.273-.488-1.34 0-2.341.556a3.84 3.84 0 0 0-1.534 1.534q-.534.99-.534 2.319h-2.682q0-2.045.944-3.591a6.55 6.55 0 0 1 2.568-2.41q1.636-.863 3.67-.863 2.046 0 3.625.864t2.478 2.33q.897 1.466.897 3.26 0 1.285-.466 2.512-.454 1.215-1.59 2.716-1.125 1.489-3.126 3.636l-5.227 5.591v.182h10.818V87zM299.585 87.318q-2.25 0-4.011-.772-1.75-.774-2.784-2.148-1.023-1.386-1.114-3.216h2.864q.09 1.124.772 1.943.683.806 1.785 1.25t2.443.443q1.5 0 2.659-.522 1.16-.524 1.818-1.455t.659-2.16q0-1.283-.636-2.26-.636-.99-1.864-1.546-1.227-.557-3-.557h-1.864v-2.5h1.864q1.386 0 2.432-.5 1.057-.5 1.648-1.409.602-.909.602-2.136 0-1.182-.523-2.057a3.57 3.57 0 0 0-1.477-1.364q-.943-.489-2.227-.488-1.205 0-2.273.443a4.23 4.23 0 0 0-1.727 1.261q-.67.819-.728 1.978h-2.727q.069-1.83 1.102-3.205 1.034-1.386 2.705-2.16 1.681-.772 3.693-.772 2.16 0 3.705.875 1.545.864 2.375 2.284a6 6 0 0 1 .829 3.068q0 1.966-1.034 3.353-1.023 1.386-2.784 1.92v.182q2.204.363 3.443 1.875 1.239 1.5 1.239 3.716 0 1.897-1.034 3.409-1.023 1.5-2.796 2.364t-4.034.863M411.098 82.227V79.91l10.227-16.182h1.682v3.591h-1.136l-7.728 12.228v.181h13.773v2.5zM422.053 87V63.727h2.681V87zM539.447 87.318q-2 0-3.602-.795t-2.568-2.182-1.057-3.16h2.727q.16 1.58 1.432 2.615 1.284 1.022 3.068 1.022 1.432 0 2.546-.67a4.73 4.73 0 0 0 1.761-1.841q.648-1.182.648-2.67 0-1.524-.67-2.716a4.9 4.9 0 0 0-1.819-1.898q-1.159-.693-2.647-.705a7.3 7.3 0 0 0-2.194.33q-1.125.33-1.852.852l-2.636-.318 1.409-11.455h12.091v2.5h-9.727l-.819 6.864h.137q.715-.568 1.795-.943a6.8 6.8 0 0 1 2.25-.375q2.136 0 3.807 1.023a7.14 7.14 0 0 1 2.636 2.772q.966 1.761.966 4.023 0 2.227-1 3.977a7.3 7.3 0 0 1-2.727 2.75q-1.738 1-3.955 1M659.652 87.318a8.7 8.7 0 0 1-2.864-.545q-1.431-.523-2.613-1.762-1.182-1.25-1.898-3.375-.716-2.136-.716-5.363 0-3.091.58-5.477.58-2.399 1.681-4.035 1.103-1.647 2.66-2.5 1.567-.852 3.534-.852 1.954 0 3.477.784a6.6 6.6 0 0 1 2.5 2.16q.966 1.386 1.25 3.193h-2.773q-.385-1.569-1.5-2.603-1.113-1.034-2.954-1.034-2.705 0-4.262 2.352-1.545 2.354-1.557 6.603h.182a6.85 6.85 0 0 1 3.466-2.716 6.8 6.8 0 0 1 2.262-.375q2 0 3.659 1 1.659.989 2.659 2.738 1 1.74 1 3.989 0 2.16-.966 3.954a7.36 7.36 0 0 1-2.716 2.842q-1.739 1.044-4.091 1.022m0-2.5q1.433 0 2.568-.716a5.1 5.1 0 0 0 1.807-1.92q.67-1.205.67-2.682 0-1.443-.647-2.625a4.95 4.95 0 0 0-1.762-1.898q-1.113-.704-2.545-.704-1.08 0-2.011.431a5.2 5.2 0 0 0-1.637 1.16 5.6 5.6 0 0 0-1.091 1.693 5.1 5.1 0 0 0-.397 1.989q0 1.386.647 2.59a5.34 5.34 0 0 0 1.796 1.944q1.147.738 2.602.738M773.496 87l10.409-20.59v-.183h-12v-2.5h14.909v2.637L776.45 87zM747.474 31V7.727h2.819v10.364h12.409V7.727h2.818V31h-2.818V20.59h-12.409V31zm23.324 0V13.546h2.682V31zm1.364-20.364q-.785 0-1.352-.534a1.71 1.71 0 0 1-.557-1.284q0-.75.557-1.284A1.9 1.9 0 0 1 772.162 7q.784 0 1.341.534.568.534.568 1.284t-.568 1.284a1.87 1.87 0 0 1-1.341.534m13.276 27.273q-1.944 0-3.341-.5-1.398-.49-2.33-1.295a7.1 7.1 0 0 1-1.466-1.705l2.137-1.5q.363.477.92 1.091.557.625 1.523 1.08.976.465 2.557.465 2.113 0 3.488-1.022t1.375-3.205v-3.545h-.227q-.295.477-.841 1.181-.534.694-1.545 1.24-1 .533-2.705.533-2.114 0-3.795-1-1.671-1-2.648-2.909-.966-1.91-.966-4.636 0-2.682.943-4.67.943-2 2.625-3.091 1.682-1.103 3.886-1.103 1.705 0 2.705.568 1.011.558 1.545 1.273.546.704.841 1.16h.273v-2.773h2.591V31.5q0 2.25-1.023 3.66-1.011 1.42-2.727 2.079-1.705.67-3.795.67m-.091-9.59q1.612 0 2.727-.74 1.114-.738 1.693-2.125.58-1.386.58-3.318 0-1.886-.569-3.33-.567-1.442-1.681-2.26-1.114-.819-2.75-.819-1.705 0-2.841.864-1.125.863-1.694 2.318-.556 1.455-.556 3.227 0 1.82.568 3.216.579 1.387 1.704 2.182 1.137.784 2.819.784m15.227-7.819V31h-2.682V7.727h2.682v8.546h.227a4.93 4.93 0 0 1 1.841-2.148q1.239-.807 3.296-.807 1.784 0 3.124.716 1.341.705 2.08 2.17.75 1.455.75 3.705V31h-2.682V20.09q0-2.078-1.079-3.215-1.068-1.148-2.966-1.148-1.319 0-2.364.557a4.07 4.07 0 0 0-1.636 1.625q-.591 1.068-.591 2.591"/><path fill="#fff" d="M155.303 184v-23.273h8.136q2.432 0 4.011.841 1.58.83 2.353 2.239.772 1.398.772 3.102 0 1.5-.534 2.477a4.15 4.15 0 0 1-1.386 1.546 6.3 6.3 0 0 1-1.852.841V172q1.068.067 2.147.75 1.08.682 1.807 1.955.727 1.272.727 3.113 0 1.75-.795 3.148-.796 1.397-2.511 2.216-1.716.818-4.466.818zm2.818-2.5h5.591q2.761 0 3.92-1.068 1.17-1.08 1.171-2.614 0-1.182-.603-2.182-.602-1.011-1.716-1.613-1.113-.614-2.636-.614h-5.727zm0-10.545h5.227q1.273 0 2.295-.5a4 4 0 0 0 1.637-1.41q.613-.909.613-2.136 0-1.534-1.068-2.602-1.068-1.08-3.386-1.08h-5.318zm22.767 13.454q-1.659 0-3.012-.625a5.17 5.17 0 0 1-2.147-1.829q-.796-1.205-.796-2.91 0-1.5.591-2.431a4.2 4.2 0 0 1 1.58-1.478 8.3 8.3 0 0 1 2.182-.795 26 26 0 0 1 2.42-.432q1.59-.204 2.58-.307 1-.112 1.454-.375.466-.261.466-.909v-.091q0-1.681-.92-2.613-.91-.933-2.762-.932-1.92 0-3.011.841-1.091.84-1.534 1.795l-2.546-.909q.683-1.591 1.818-2.477a6.8 6.8 0 0 1 2.5-1.25 10.4 10.4 0 0 1 2.682-.364q.841 0 1.932.205a6.2 6.2 0 0 1 2.125.807q1.034.613 1.716 1.852t.682 3.318V184h-2.682v-2.364h-.136q-.273.568-.909 1.216-.637.648-1.694 1.103t-2.579.454m.409-2.409q1.59 0 2.682-.625 1.102-.625 1.659-1.614a4.1 4.1 0 0 0 .568-2.079v-2.455q-.171.206-.75.375a13 13 0 0 1-1.318.284q-.74.114-1.443.205-.694.08-1.125.136-1.046.137-1.955.443-.897.296-1.454.898-.546.591-.546 1.614 0 1.398 1.034 2.113 1.046.705 2.648.705m15.167-21.273V184h-2.681v-23.273zm7.594 0V184h-2.682v-23.273zM285.03 168h-2.818q-.25-1.216-.875-2.136a5.8 5.8 0 0 0-1.5-1.546 6.4 6.4 0 0 0-1.944-.954 7.8 7.8 0 0 0-2.227-.319q-2.113 0-3.829 1.069-1.705 1.068-2.716 3.147-1 2.08-1 5.103t1 5.102q1.01 2.08 2.716 3.148 1.716 1.068 3.829 1.068a7.8 7.8 0 0 0 2.227-.318 6.5 6.5 0 0 0 1.944-.944 6 6 0 0 0 1.5-1.556 6 6 0 0 0 .875-2.137h2.818q-.318 1.785-1.159 3.193a8.7 8.7 0 0 1-2.091 2.398 9.2 9.2 0 0 1-2.807 1.489 10.5 10.5 0 0 1-3.307.511q-2.978 0-5.295-1.454-2.319-1.455-3.648-4.137t-1.33-6.363q0-3.682 1.33-6.364 1.329-2.682 3.648-4.136 2.317-1.455 5.295-1.455 1.762 0 3.307.511a9 9 0 0 1 2.807 1.5 8.6 8.6 0 0 1 2.091 2.387q.84 1.398 1.159 3.193m11.281 16.364q-2.363 0-4.148-1.125-1.772-1.126-2.772-3.148-.989-2.023-.989-4.727 0-2.728.989-4.762 1-2.034 2.772-3.159 1.784-1.125 4.148-1.125t4.136 1.125q1.785 1.125 2.773 3.159 1 2.034 1 4.762 0 2.704-1 4.727-.988 2.022-2.773 3.148-1.772 1.125-4.136 1.125m0-2.409q1.796 0 2.955-.921 1.158-.92 1.716-2.42.556-1.5.556-3.25t-.556-3.262q-.558-1.511-1.716-2.443-1.16-.932-2.955-.932t-2.954.932q-1.16.932-1.716 2.443-.558 1.512-.557 3.262 0 1.75.557 3.25.556 1.5 1.716 2.42 1.158.921 2.954.921m17.139 2.454q-1.66 0-3.011-.625a5.16 5.16 0 0 1-2.148-1.829q-.795-1.205-.795-2.91 0-1.5.591-2.431a4.17 4.17 0 0 1 1.579-1.478 8.3 8.3 0 0 1 2.182-.795q1.205-.273 2.42-.432 1.591-.204 2.58-.307 1-.112 1.455-.375.465-.261.465-.909v-.091q0-1.681-.92-2.613-.91-.933-2.761-.932-1.92 0-3.012.841-1.09.84-1.534 1.795l-2.545-.909q.681-1.591 1.818-2.477a6.8 6.8 0 0 1 2.5-1.25 10.4 10.4 0 0 1 2.682-.364q.84 0 1.932.205a6.2 6.2 0 0 1 2.125.807q1.034.613 1.715 1.852.682 1.239.682 3.318V184h-2.682v-2.364h-.136q-.273.568-.909 1.216t-1.693 1.103q-1.058.454-2.58.454m.409-2.409q1.591 0 2.682-.625 1.103-.625 1.659-1.614a4.1 4.1 0 0 0 .568-2.079v-2.455q-.17.206-.75.375-.567.16-1.318.284-.738.114-1.443.205-.693.08-1.125.136-1.045.137-1.954.443-.899.296-1.455.898-.546.591-.545 1.614 0 1.398 1.034 2.113 1.045.705 2.647.705m20.077-15.455v2.273h-9.045v-2.273zm-6.409-4.181h2.682V179q0 1.137.329 1.705.342.556.864.75.534.181 1.125.181.443 0 .727-.045l.455-.091.545 2.409a6 6 0 0 1-.761.205q-.489.113-1.239.113-1.136 0-2.227-.488a4.4 4.4 0 0 1-1.795-1.489q-.705-1-.705-2.523zM391.74 184v-23.273h2.818v11.546h.273l10.455-11.546h3.681l-9.772 10.5L408.967 184h-3.409l-8.091-10.818-2.909 3.273V184zm21.605 0v-17.455h2.682V184zm1.364-20.364q-.785 0-1.352-.534a1.71 1.71 0 0 1-.557-1.284q0-.75.557-1.284a1.9 1.9 0 0 1 1.352-.534q.785 0 1.341.534.568.534.568 1.284t-.568 1.284a1.87 1.87 0 0 1-1.341.534M424.893 184l-5.318-17.455h2.818l3.773 13.364h.182l3.727-13.364h2.864l3.682 13.319h.182l3.772-13.319h2.818L438.075 184h-2.636l-3.818-13.409h-.273L427.53 184zm22.046 0v-17.455h2.682V184zm1.364-20.364q-.784 0-1.353-.534a1.72 1.72 0 0 1-.557-1.284q0-.75.557-1.284.569-.534 1.353-.534.783 0 1.34.534.569.534.569 1.284t-.569 1.284a1.87 1.87 0 0 1-1.34.534M510.709 160.727h3.363l7.91 19.318h.272l7.909-19.318h3.364V184h-2.636v-17.682h-.228L523.391 184h-2.546l-7.273-17.682h-.227V184h-2.636zm33.241 23.682q-1.66 0-3.011-.625a5.16 5.16 0 0 1-2.148-1.829q-.795-1.205-.795-2.91 0-1.5.591-2.431a4.17 4.17 0 0 1 1.579-1.478 8.3 8.3 0 0 1 2.182-.795q1.205-.273 2.42-.432 1.591-.204 2.58-.307 1-.112 1.455-.375.465-.261.465-.909v-.091q0-1.681-.92-2.613-.91-.933-2.761-.932-1.92 0-3.012.841-1.09.84-1.534 1.795l-2.545-.909q.681-1.591 1.818-2.477a6.8 6.8 0 0 1 2.5-1.25 10.4 10.4 0 0 1 2.682-.364q.84 0 1.932.205a6.2 6.2 0 0 1 2.125.807q1.034.613 1.715 1.852.682 1.239.682 3.318V184h-2.682v-2.364h-.136q-.273.568-.909 1.216-.637.648-1.693 1.103-1.058.454-2.58.454m.409-2.409q1.592 0 2.682-.625 1.103-.625 1.659-1.614a4.1 4.1 0 0 0 .568-2.079v-2.455q-.17.206-.75.375-.567.16-1.318.284-.738.114-1.443.205-.693.08-1.125.136-1.045.137-1.954.443-.899.296-1.455.898-.545.591-.545 1.614 0 1.398 1.034 2.113 1.045.705 2.647.705m15.168-8.5V184h-2.682v-17.455h2.591v2.728h.227a5 5 0 0 1 1.864-2.137q1.25-.818 3.227-.818 1.773 0 3.103.727 1.329.717 2.068 2.182.738 1.455.738 3.682V184h-2.681v-10.909q0-2.056-1.069-3.205-1.068-1.158-2.931-1.159-1.285 0-2.296.557-1 .557-1.579 1.625-.58 1.068-.58 2.591M622.967 163.227v-2.5h17.455v2.5h-7.318V184h-2.818v-20.773zM644.408 184v-17.455h2.681V184zm1.363-20.364q-.783 0-1.352-.534a1.72 1.72 0 0 1-.557-1.284q0-.75.557-1.284.569-.534 1.352-.534t1.341.534q.568.534.568 1.284t-.568 1.284a1.87 1.87 0 0 1-1.341.534m13.276 27.273q-1.944 0-3.341-.5-1.397-.489-2.33-1.295-.92-.796-1.465-1.705l2.136-1.5q.363.477.92 1.091.558.625 1.523 1.08.978.465 2.557.465 2.113 0 3.489-1.022t1.375-3.205v-3.545h-.228q-.295.477-.841 1.182-.534.693-1.545 1.238-1 .534-2.705.534-2.114 0-3.795-1-1.67-1-2.648-2.909-.966-1.91-.966-4.636 0-2.682.943-4.671.943-2 2.625-3.091 1.682-1.102 3.887-1.102 1.705 0 2.704.568 1.012.558 1.546 1.273.545.705.841 1.159h.272v-2.773h2.591V184.5q0 2.25-1.022 3.659-1.012 1.42-2.728 2.08-1.704.67-3.795.67m-.091-9.591q1.614 0 2.727-.738 1.114-.74 1.693-2.125.58-1.387.58-3.319 0-1.886-.568-3.329-.569-1.443-1.682-2.262-1.113-.818-2.75-.818-1.704 0-2.841.864-1.125.863-1.693 2.318-.557 1.455-.557 3.227 0 1.818.568 3.216.58 1.387 1.705 2.182 1.136.784 2.818.784m19.864 3.046q-2.523 0-4.353-1.114-1.818-1.125-2.806-3.136-.978-2.023-.978-4.705t.978-4.727q.988-2.057 2.75-3.205 1.772-1.158 4.136-1.159 1.364 0 2.693.455a6.7 6.7 0 0 1 2.421 1.477q1.09 1.011 1.738 2.682.648 1.67.648 4.113v1.137h-13.455v-2.318h10.728q0-1.478-.591-2.637a4.47 4.47 0 0 0-1.659-1.829q-1.069-.67-2.523-.671-1.602 0-2.773.796a5.2 5.2 0 0 0-1.784 2.045 6 6 0 0 0-.625 2.705v1.545q0 1.978.682 3.352.693 1.365 1.92 2.08 1.228.705 2.853.705 1.057 0 1.909-.296a4.1 4.1 0 0 0 1.488-.909q.625-.614.966-1.523l2.591.728a5.75 5.75 0 0 1-1.375 2.318q-.966.988-2.386 1.545-1.421.546-3.193.546m11.306-.364v-17.455h2.591v2.637h.182q.477-1.296 1.727-2.102 1.25-.807 2.819-.807.296 0 .738.011.443.012.671.034v2.727a9 9 0 0 0-.625-.102 6 6 0 0 0-1.012-.079q-1.272 0-2.272.534a4.03 4.03 0 0 0-1.569 1.454q-.568.921-.568 2.103V184zM738.327 184v-2.045l12.545-18.728H738.19v-2.5h16.046v2.046L741.69 181.5h12.682v2.5zm27.727.364q-2.523 0-4.352-1.114-1.818-1.125-2.807-3.136-.978-2.023-.977-4.705 0-2.682.977-4.727.989-2.057 2.75-3.205 1.772-1.158 4.136-1.159 1.364 0 2.693.455a6.7 6.7 0 0 1 2.421 1.477q1.09 1.011 1.739 2.682.647 1.67.647 4.113v1.137h-13.454v-2.318h10.727q0-1.478-.591-2.637a4.45 4.45 0 0 0-1.659-1.829q-1.068-.67-2.523-.671-1.602 0-2.772.796a5.2 5.2 0 0 0-1.785 2.045 6 6 0 0 0-.625 2.705v1.545q0 1.978.682 3.352.693 1.365 1.921 2.08 1.227.705 2.852.705 1.057 0 1.909-.296a4.1 4.1 0 0 0 1.489-.909 4.15 4.15 0 0 0 .966-1.523l2.591.728a5.8 5.8 0 0 1-1.375 2.318q-.966.988-2.387 1.545-1.42.546-3.193.546m11.67-.364v-23.273h2.682v8.591h.228q.294-.454.818-1.159.534-.715 1.522-1.273 1-.567 2.705-.568 2.205 0 3.886 1.102 1.683 1.103 2.625 3.125.944 2.023.944 4.773 0 2.773-.944 4.807-.943 2.023-2.613 3.136-1.67 1.103-3.853 1.103-1.682 0-2.693-.557-1.011-.569-1.557-1.284a17 17 0 0 1-.84-1.205h-.319V184zm2.637-8.727q0 1.977.579 3.488.58 1.5 1.694 2.353 1.113.84 2.727.841 1.682 0 2.807-.887 1.135-.897 1.704-2.409.58-1.523.58-3.386 0-1.842-.568-3.318-.558-1.49-1.694-2.353-1.125-.875-2.829-.875-1.637 0-2.75.83-1.114.817-1.682 2.295-.568 1.467-.568 3.421M797.236 184v-17.455h2.591v2.637h.182q.476-1.296 1.727-2.102 1.25-.807 2.818-.807.295 0 .739.011.443.012.67.034v2.727a9 9 0 0 0-.625-.102 6 6 0 0 0-1.011-.079q-1.273 0-2.273.534a4 4 0 0 0-1.568 1.454q-.568.921-.568 2.103V184zm17.042.409q-1.659 0-3.011-.625a5.2 5.2 0 0 1-2.148-1.829q-.795-1.205-.795-2.91 0-1.5.591-2.431a4.17 4.17 0 0 1 1.579-1.478 8.3 8.3 0 0 1 2.182-.795q1.204-.273 2.421-.432 1.59-.204 2.579-.307 1-.112 1.455-.375.466-.261.466-.909v-.091q0-1.681-.921-2.613-.909-.933-2.761-.932-1.92 0-3.012.841-1.09.84-1.534 1.795l-2.545-.909q.681-1.591 1.818-2.477a6.8 6.8 0 0 1 2.5-1.25 10.4 10.4 0 0 1 2.682-.364q.84 0 1.932.205a6.2 6.2 0 0 1 2.125.807q1.034.613 1.716 1.852t.681 3.318V184h-2.681v-2.364h-.137q-.273.568-.909 1.216t-1.693 1.103q-1.057.454-2.58.454m.41-2.409q1.59 0 2.681-.625 1.102-.625 1.659-1.614a4.1 4.1 0 0 0 .569-2.079v-2.455q-.171.206-.75.375-.569.16-1.319.284-.738.114-1.443.205-.693.08-1.125.136-1.045.137-1.954.443-.899.296-1.455.898-.545.591-.545 1.614 0 1.398 1.034 2.113 1.045.705 2.648.705"/></svg>