<svg width="841" height="234" viewBox="0 0 841 234" fill="none" xmlns="http://www.w3.org/2000/svg">
<rect x="1" y="113" width="839" height="120" rx="26" stroke="#DBDBDB" stroke-width="2"/>
<line x1="121" y1="112" x2="121" y2="234" stroke="#DBDBDB" stroke-width="2"/>
<line x1="241" y1="112" x2="241" y2="234" stroke="#DBDBDB" stroke-width="2"/>
<line x1="362" y1="112" x2="362" y2="234" stroke="#DBDBDB" stroke-width="2"/>
<line x1="482" y1="112" x2="482" y2="234" stroke="#DBDBDB" stroke-width="2"/>
<line x1="602" y1="112" x2="602" y2="234" stroke="#DBDBDB" stroke-width="2"/>
<line x1="722" y1="112" x2="722" y2="234" stroke="#DBDBDB" stroke-width="2"/>
<path d="M19.8509 184H16.8963L25.4418 160.727H28.3509L36.8963 184H33.9418L26.9872 164.409H26.8054L19.8509 184ZM20.9418 174.909H32.8509V177.409H20.9418V174.909ZM40.1577 190.545V166.545H42.7486V169.318H43.0668C43.2637 169.015 43.5365 168.629 43.8849 168.159C44.241 167.682 44.7486 167.258 45.4077 166.886C46.0743 166.508 46.9759 166.318 48.1122 166.318C49.5819 166.318 50.8774 166.686 51.9986 167.42C53.1198 168.155 53.9948 169.197 54.6236 170.545C55.2524 171.894 55.5668 173.485 55.5668 175.318C55.5668 177.167 55.2524 178.769 54.6236 180.125C53.9948 181.473 53.1236 182.519 52.0099 183.261C50.8963 183.996 49.6122 184.364 48.1577 184.364C47.0365 184.364 46.1387 184.178 45.4645 183.807C44.7902 183.428 44.2713 183 43.9077 182.523C43.544 182.038 43.2637 181.636 43.0668 181.318H42.8395V190.545H40.1577ZM42.794 175.273C42.794 176.591 42.9872 177.754 43.3736 178.761C43.7599 179.761 44.3243 180.545 45.0668 181.114C45.8092 181.674 46.7183 181.955 47.794 181.955C48.9152 181.955 49.8509 181.659 50.6009 181.068C51.3584 180.47 51.9266 179.667 52.3054 178.659C52.6918 177.644 52.8849 176.515 52.8849 175.273C52.8849 174.045 52.6955 172.939 52.3168 171.955C51.9455 170.962 51.3812 170.178 50.6236 169.602C49.8736 169.019 48.9304 168.727 47.794 168.727C46.7031 168.727 45.7865 169.004 45.044 169.557C44.3016 170.102 43.741 170.867 43.3622 171.852C42.9834 172.83 42.794 173.97 42.794 175.273ZM59.6577 190.545V166.545H62.2486V169.318H62.5668C62.7637 169.015 63.0365 168.629 63.3849 168.159C63.741 167.682 64.2486 167.258 64.9077 166.886C65.5743 166.508 66.4759 166.318 67.6122 166.318C69.0819 166.318 70.3774 166.686 71.4986 167.42C72.6198 168.155 73.4948 169.197 74.1236 170.545C74.7524 171.894 75.0668 173.485 75.0668 175.318C75.0668 177.167 74.7524 178.769 74.1236 180.125C73.4948 181.473 72.6236 182.519 71.5099 183.261C70.3963 183.996 69.1122 184.364 67.6577 184.364C66.5365 184.364 65.6387 184.178 64.9645 183.807C64.2902 183.428 63.7713 183 63.4077 182.523C63.044 182.038 62.7637 181.636 62.5668 181.318H62.3395V190.545H59.6577ZM62.294 175.273C62.294 176.591 62.4872 177.754 62.8736 178.761C63.2599 179.761 63.8243 180.545 64.5668 181.114C65.3092 181.674 66.2183 181.955 67.294 181.955C68.4152 181.955 69.3509 181.659 70.1009 181.068C70.8584 180.47 71.4266 179.667 71.8054 178.659C72.1918 177.644 72.3849 176.515 72.3849 175.273C72.3849 174.045 72.1955 172.939 71.8168 171.955C71.4455 170.962 70.8812 170.178 70.1236 169.602C69.3736 169.019 68.4304 168.727 67.294 168.727C66.2031 168.727 65.2865 169.004 64.544 169.557C63.8016 170.102 63.241 170.867 62.8622 171.852C62.4834 172.83 62.294 173.97 62.294 175.273ZM81.8395 160.727V184H79.1577V160.727H81.8395ZM94.0696 184.364C92.3878 184.364 90.937 183.992 89.7173 183.25C88.5052 182.5 87.5696 181.455 86.9105 180.114C86.259 178.765 85.9332 177.197 85.9332 175.409C85.9332 173.621 86.259 172.045 86.9105 170.682C87.5696 169.311 88.4863 168.242 89.6605 167.477C90.8423 166.705 92.2211 166.318 93.7969 166.318C94.706 166.318 95.6037 166.47 96.4901 166.773C97.3764 167.076 98.1832 167.568 98.9105 168.25C99.6378 168.924 100.217 169.818 100.649 170.932C101.081 172.045 101.297 173.417 101.297 175.045V176.182H87.8423V173.864H98.5696C98.5696 172.879 98.3726 172 97.9787 171.227C97.5923 170.455 97.0393 169.845 96.3196 169.398C95.6075 168.951 94.7666 168.727 93.7969 168.727C92.7287 168.727 91.8045 168.992 91.0241 169.523C90.2514 170.045 89.6567 170.727 89.2401 171.568C88.8234 172.409 88.6151 173.311 88.6151 174.273V175.818C88.6151 177.136 88.8423 178.254 89.2969 179.17C89.759 180.08 90.3991 180.773 91.2173 181.25C92.0355 181.72 92.9863 181.955 94.0696 181.955C94.7741 181.955 95.4105 181.856 95.9787 181.659C96.5545 181.455 97.0507 181.152 97.4673 180.75C97.884 180.341 98.206 179.833 98.4332 179.227L101.024 179.955C100.751 180.833 100.293 181.606 99.6491 182.273C99.0052 182.932 98.2098 183.447 97.2628 183.818C96.3158 184.182 95.2514 184.364 94.0696 184.364Z" fill="white"/>
<path d="M62.6534 63.7273V87H59.8352V66.6818H59.6989L54.017 70.4545V67.5909L59.8352 63.7273H62.6534Z" fill="#727272"/>
<path d="M31.0682 31V7.72727H33.8864V28.5H44.7045V31H31.0682ZM55.7955 31.3636C54.2197 31.3636 52.8371 30.9886 51.6477 30.2386C50.4659 29.4886 49.5417 28.4394 48.875 27.0909C48.2159 25.7424 47.8864 24.1667 47.8864 22.3636C47.8864 20.5455 48.2159 18.9583 48.875 17.6023C49.5417 16.2462 50.4659 15.1932 51.6477 14.4432C52.8371 13.6932 54.2197 13.3182 55.7955 13.3182C57.3712 13.3182 58.75 13.6932 59.9318 14.4432C61.1212 15.1932 62.0455 16.2462 62.7045 17.6023C63.3712 18.9583 63.7045 20.5455 63.7045 22.3636C63.7045 24.1667 63.3712 25.7424 62.7045 27.0909C62.0455 28.4394 61.1212 29.4886 59.9318 30.2386C58.75 30.9886 57.3712 31.3636 55.7955 31.3636ZM55.7955 28.9545C56.9924 28.9545 57.9773 28.6477 58.75 28.0341C59.5227 27.4205 60.0947 26.6136 60.4659 25.6136C60.8371 24.6136 61.0227 23.5303 61.0227 22.3636C61.0227 21.197 60.8371 20.1098 60.4659 19.1023C60.0947 18.0947 59.5227 17.2803 58.75 16.6591C57.9773 16.0379 56.9924 15.7273 55.7955 15.7273C54.5985 15.7273 53.6136 16.0379 52.8409 16.6591C52.0682 17.2803 51.4962 18.0947 51.125 19.1023C50.7538 20.1098 50.5682 21.197 50.5682 22.3636C50.5682 23.5303 50.7538 24.6136 51.125 25.6136C51.4962 26.6136 52.0682 27.4205 52.8409 28.0341C53.6136 28.6477 54.5985 28.9545 55.7955 28.9545ZM71.1591 31L65.8409 13.5455H68.6591L72.4318 26.9091H72.6136L76.3409 13.5455H79.2045L82.8864 26.8636H83.0682L86.8409 13.5455H89.6591L84.3409 31H81.7045L77.8864 17.5909H77.6136L73.7955 31H71.1591Z" fill="#727272"/>
<path d="M172.222 87V84.9545L179.903 76.5455C180.805 75.5606 181.547 74.7045 182.131 73.9773C182.714 73.2424 183.146 72.553 183.426 71.9091C183.714 71.2576 183.858 70.5758 183.858 69.8636C183.858 69.0455 183.661 68.3371 183.267 67.7386C182.881 67.1402 182.35 66.678 181.676 66.3523C181.002 66.0265 180.244 65.8636 179.403 65.8636C178.509 65.8636 177.729 66.0492 177.062 66.4205C176.403 66.7841 175.892 67.2955 175.528 67.9545C175.172 68.6136 174.994 69.3864 174.994 70.2727H172.312C172.312 68.9091 172.627 67.7121 173.256 66.6818C173.884 65.6515 174.741 64.8485 175.824 64.2727C176.915 63.697 178.138 63.4091 179.494 63.4091C180.858 63.4091 182.066 63.697 183.119 64.2727C184.172 64.8485 184.998 65.625 185.597 66.6023C186.195 67.5795 186.494 68.6667 186.494 69.8636C186.494 70.7197 186.339 71.5568 186.028 72.375C185.725 73.1856 185.195 74.0909 184.438 75.0909C183.688 76.0833 182.646 77.2955 181.312 78.7273L176.085 84.3182V84.5H186.903V87H172.222Z" fill="#727272"/>
<path d="M299.585 87.3182C298.085 87.3182 296.748 87.0606 295.574 86.5455C294.407 86.0303 293.479 85.3144 292.79 84.3977C292.108 83.4735 291.737 82.4015 291.676 81.1818H294.54C294.6 81.9318 294.858 82.5795 295.312 83.125C295.767 83.6629 296.362 84.0795 297.097 84.375C297.831 84.6705 298.646 84.8182 299.54 84.8182C300.54 84.8182 301.426 84.6439 302.199 84.2955C302.972 83.947 303.578 83.4621 304.017 82.8409C304.456 82.2197 304.676 81.5 304.676 80.6818C304.676 79.8258 304.464 79.072 304.04 78.4205C303.616 77.7614 302.994 77.2462 302.176 76.875C301.358 76.5038 300.358 76.3182 299.176 76.3182H297.312V73.8182H299.176C300.1 73.8182 300.911 73.6515 301.608 73.3182C302.313 72.9848 302.862 72.5152 303.256 71.9091C303.657 71.303 303.858 70.5909 303.858 69.7727C303.858 68.9848 303.684 68.2992 303.335 67.7159C302.987 67.1326 302.494 66.678 301.858 66.3523C301.229 66.0265 300.487 65.8636 299.631 65.8636C298.828 65.8636 298.07 66.0114 297.358 66.3068C296.653 66.5947 296.078 67.0152 295.631 67.5682C295.184 68.1136 294.941 68.7727 294.903 69.5455H292.176C292.222 68.3258 292.589 67.2576 293.278 66.3409C293.968 65.4167 294.869 64.697 295.983 64.1818C297.104 63.6667 298.335 63.4091 299.676 63.4091C301.116 63.4091 302.35 63.7008 303.381 64.2841C304.411 64.8598 305.203 65.6212 305.756 66.5682C306.309 67.5152 306.585 68.5379 306.585 69.6364C306.585 70.947 306.241 72.0644 305.551 72.9886C304.869 73.9129 303.941 74.553 302.767 74.9091V75.0909C304.237 75.3333 305.384 75.9583 306.21 76.9659C307.036 77.9659 307.449 79.2045 307.449 80.6818C307.449 81.947 307.104 83.0833 306.415 84.0909C305.733 85.0909 304.801 85.8788 303.619 86.4545C302.438 87.0303 301.093 87.3182 299.585 87.3182Z" fill="#727272"/>
<path d="M411.098 82.2273V79.9091L421.325 63.7273H423.007V67.3182H421.871L414.143 79.5455V79.7273H427.916V82.2273H411.098ZM422.053 87V81.5227V80.4432V63.7273H424.734V87H422.053Z" fill="#727272"/>
<path d="M539.447 87.3182C538.114 87.3182 536.913 87.053 535.845 86.5227C534.777 85.9924 533.921 85.2652 533.277 84.3409C532.633 83.4167 532.281 82.3636 532.22 81.1818H534.947C535.054 82.2348 535.531 83.1061 536.379 83.7955C537.235 84.4773 538.258 84.8182 539.447 84.8182C540.402 84.8182 541.25 84.5947 541.993 84.1477C542.743 83.7008 543.33 83.0871 543.754 82.3068C544.186 81.5189 544.402 80.6288 544.402 79.6364C544.402 78.6212 544.179 77.7159 543.732 76.9205C543.292 76.1174 542.686 75.4848 541.913 75.0227C541.141 74.5606 540.258 74.3258 539.266 74.3182C538.554 74.3106 537.822 74.4205 537.072 74.6477C536.322 74.8674 535.705 75.1515 535.22 75.5L532.584 75.1818L533.993 63.7273H546.084V66.2273H536.357L535.538 73.0909H535.675C536.152 72.7121 536.75 72.3977 537.47 72.1477C538.19 71.8977 538.94 71.7727 539.72 71.7727C541.144 71.7727 542.413 72.1136 543.527 72.7955C544.648 73.4697 545.527 74.3939 546.163 75.5682C546.807 76.7424 547.129 78.0833 547.129 79.5909C547.129 81.0758 546.796 82.4015 546.129 83.5682C545.47 84.7273 544.561 85.6439 543.402 86.3182C542.243 86.9848 540.925 87.3182 539.447 87.3182Z" fill="#727272"/>
<path d="M659.652 87.3182C658.697 87.303 657.743 87.1212 656.788 86.7727C655.834 86.4242 654.963 85.8371 654.175 85.0114C653.387 84.178 652.754 83.053 652.277 81.6364C651.8 80.2121 651.561 78.4242 651.561 76.2727C651.561 74.2121 651.754 72.3864 652.141 70.7955C652.527 69.197 653.088 67.8523 653.822 66.7614C654.557 65.6629 655.444 64.8295 656.482 64.2614C657.527 63.6932 658.705 63.4091 660.016 63.4091C661.319 63.4091 662.478 63.6705 663.493 64.1932C664.516 64.7083 665.349 65.428 665.993 66.3523C666.637 67.2765 667.054 68.3409 667.243 69.5455H664.47C664.213 68.5 663.713 67.6326 662.97 66.9432C662.228 66.2538 661.243 65.9091 660.016 65.9091C658.213 65.9091 656.792 66.6932 655.754 68.2614C654.724 69.8295 654.205 72.0303 654.197 74.8636H654.379C654.804 74.2197 655.307 73.6705 655.891 73.2159C656.482 72.7538 657.133 72.3977 657.845 72.1477C658.557 71.8977 659.311 71.7727 660.107 71.7727C661.44 71.7727 662.66 72.1061 663.766 72.7727C664.872 73.4318 665.758 74.3447 666.425 75.5114C667.091 76.6705 667.425 78 667.425 79.5C667.425 80.9394 667.103 82.2576 666.459 83.4545C665.815 84.6439 664.91 85.5909 663.743 86.2955C662.584 86.9924 661.22 87.3333 659.652 87.3182ZM659.652 84.8182C660.607 84.8182 661.463 84.5795 662.22 84.1023C662.985 83.625 663.588 82.9848 664.027 82.1818C664.474 81.3788 664.697 80.4848 664.697 79.5C664.697 78.5379 664.482 77.6629 664.05 76.875C663.625 76.0795 663.038 75.447 662.288 74.9773C661.546 74.5076 660.697 74.2727 659.743 74.2727C659.023 74.2727 658.353 74.4167 657.732 74.7045C657.11 74.9848 656.565 75.3712 656.095 75.8636C655.633 76.3561 655.269 76.9205 655.004 77.5568C654.739 78.1856 654.607 78.8485 654.607 79.5455C654.607 80.4697 654.822 81.3333 655.254 82.1364C655.694 82.9394 656.292 83.5871 657.05 84.0795C657.815 84.572 658.682 84.8182 659.652 84.8182Z" fill="#727272"/>
<path d="M773.496 87L783.905 66.4091V66.2273H771.905V63.7273H786.814V66.3636L776.45 87H773.496Z" fill="#727272"/>
<path d="M747.474 31V7.72727H750.293V18.0909H762.702V7.72727H765.52V31H762.702V20.5909H750.293V31H747.474ZM770.798 31V13.5455H773.48V31H770.798ZM772.162 10.6364C771.639 10.6364 771.188 10.4583 770.81 10.1023C770.438 9.74621 770.253 9.31818 770.253 8.81818C770.253 8.31818 770.438 7.89015 770.81 7.53409C771.188 7.17803 771.639 7 772.162 7C772.685 7 773.132 7.17803 773.503 7.53409C773.882 7.89015 774.071 8.31818 774.071 8.81818C774.071 9.31818 773.882 9.74621 773.503 10.1023C773.132 10.4583 772.685 10.6364 772.162 10.6364ZM785.438 37.9091C784.142 37.9091 783.028 37.7424 782.097 37.4091C781.165 37.0833 780.388 36.6515 779.767 36.1136C779.153 35.5833 778.665 35.0152 778.301 34.4091L780.438 32.9091C780.68 33.2273 780.987 33.5909 781.358 34C781.729 34.4167 782.237 34.7765 782.881 35.0795C783.532 35.3902 784.384 35.5455 785.438 35.5455C786.847 35.5455 788.009 35.2045 788.926 34.5227C789.843 33.8409 790.301 32.7727 790.301 31.3182V27.7727H790.074C789.877 28.0909 789.597 28.4848 789.233 28.9545C788.877 29.4167 788.362 29.8295 787.688 30.1932C787.021 30.5492 786.119 30.7273 784.983 30.7273C783.574 30.7273 782.309 30.3939 781.188 29.7273C780.074 29.0606 779.191 28.0909 778.54 26.8182C777.896 25.5455 777.574 24 777.574 22.1818C777.574 20.3939 777.888 18.8371 778.517 17.5114C779.146 16.178 780.021 15.1477 781.142 14.4205C782.263 13.6856 783.559 13.3182 785.028 13.3182C786.165 13.3182 787.066 13.5076 787.733 13.8864C788.407 14.2576 788.922 14.6818 789.278 15.1591C789.642 15.6288 789.922 16.0152 790.119 16.3182H790.392V13.5455H792.983V31.5C792.983 33 792.642 34.2197 791.96 35.1591C791.286 36.1061 790.377 36.7992 789.233 37.2386C788.097 37.6856 786.831 37.9091 785.438 37.9091ZM785.347 28.3182C786.422 28.3182 787.331 28.072 788.074 27.5795C788.816 27.0871 789.381 26.3788 789.767 25.4545C790.153 24.5303 790.347 23.4242 790.347 22.1364C790.347 20.8788 790.157 19.7689 789.778 18.8068C789.4 17.8447 788.839 17.0909 788.097 16.5455C787.354 16 786.438 15.7273 785.347 15.7273C784.21 15.7273 783.263 16.0152 782.506 16.5909C781.756 17.1667 781.191 17.9394 780.812 18.9091C780.441 19.8788 780.256 20.9545 780.256 22.1364C780.256 23.3485 780.445 24.4205 780.824 25.3523C781.21 26.2765 781.778 27.0038 782.528 27.5341C783.286 28.0568 784.225 28.3182 785.347 28.3182ZM800.574 20.5V31H797.892V7.72727H800.574V16.2727H800.801C801.21 15.3712 801.824 14.6553 802.642 14.125C803.468 13.5871 804.566 13.3182 805.938 13.3182C807.127 13.3182 808.169 13.5568 809.062 14.0341C809.956 14.5038 810.65 15.2273 811.142 16.2045C811.642 17.1742 811.892 18.4091 811.892 19.9091V31H809.21V20.0909C809.21 18.7045 808.85 17.6326 808.131 16.875C807.419 16.1098 806.43 15.7273 805.165 15.7273C804.286 15.7273 803.498 15.9129 802.801 16.2841C802.112 16.6553 801.566 17.197 801.165 17.9091C800.771 18.6212 800.574 19.4848 800.574 20.5Z" fill="#727272"/>
<path d="M155.303 184V160.727H163.439C165.06 160.727 166.397 161.008 167.45 161.568C168.503 162.121 169.287 162.867 169.803 163.807C170.318 164.739 170.575 165.773 170.575 166.909C170.575 167.909 170.397 168.735 170.041 169.386C169.693 170.038 169.231 170.553 168.655 170.932C168.087 171.311 167.469 171.591 166.803 171.773V172C167.515 172.045 168.231 172.295 168.95 172.75C169.67 173.205 170.272 173.856 170.757 174.705C171.242 175.553 171.484 176.591 171.484 177.818C171.484 178.985 171.219 180.034 170.689 180.966C170.159 181.898 169.321 182.636 168.178 183.182C167.034 183.727 165.545 184 163.712 184H155.303ZM158.121 181.5H163.712C165.553 181.5 166.859 181.144 167.632 180.432C168.412 179.712 168.803 178.841 168.803 177.818C168.803 177.03 168.602 176.303 168.2 175.636C167.799 174.962 167.227 174.424 166.484 174.023C165.742 173.614 164.863 173.409 163.848 173.409H158.121V181.5ZM158.121 170.955H163.348C164.196 170.955 164.962 170.788 165.643 170.455C166.333 170.121 166.878 169.652 167.28 169.045C167.689 168.439 167.893 167.727 167.893 166.909C167.893 165.886 167.537 165.019 166.825 164.307C166.113 163.587 164.984 163.227 163.439 163.227H158.121V170.955ZM180.888 184.409C179.782 184.409 178.778 184.201 177.876 183.784C176.975 183.36 176.259 182.75 175.729 181.955C175.198 181.152 174.933 180.182 174.933 179.045C174.933 178.045 175.13 177.235 175.524 176.614C175.918 175.985 176.445 175.492 177.104 175.136C177.763 174.78 178.49 174.515 179.286 174.341C180.089 174.159 180.895 174.015 181.706 173.909C182.767 173.773 183.626 173.67 184.286 173.602C184.952 173.527 185.437 173.402 185.74 173.227C186.051 173.053 186.206 172.75 186.206 172.318V172.227C186.206 171.106 185.899 170.235 185.286 169.614C184.679 168.992 183.759 168.682 182.524 168.682C181.244 168.682 180.24 168.962 179.513 169.523C178.786 170.083 178.274 170.682 177.979 171.318L175.433 170.409C175.888 169.348 176.494 168.523 177.251 167.932C178.017 167.333 178.85 166.917 179.751 166.682C180.661 166.439 181.554 166.318 182.433 166.318C182.994 166.318 183.638 166.386 184.365 166.523C185.1 166.652 185.808 166.92 186.49 167.33C187.179 167.739 187.751 168.356 188.206 169.182C188.661 170.008 188.888 171.114 188.888 172.5V184H186.206V181.636H186.07C185.888 182.015 185.585 182.42 185.161 182.852C184.736 183.284 184.172 183.652 183.467 183.955C182.763 184.258 181.903 184.409 180.888 184.409ZM181.297 182C182.357 182 183.251 181.792 183.979 181.375C184.714 180.958 185.267 180.42 185.638 179.761C186.017 179.102 186.206 178.409 186.206 177.682V175.227C186.092 175.364 185.842 175.489 185.456 175.602C185.077 175.708 184.638 175.803 184.138 175.886C183.645 175.962 183.164 176.03 182.695 176.091C182.232 176.144 181.857 176.189 181.57 176.227C180.873 176.318 180.221 176.466 179.615 176.67C179.017 176.867 178.532 177.167 178.161 177.568C177.797 177.962 177.615 178.5 177.615 179.182C177.615 180.114 177.96 180.818 178.649 181.295C179.346 181.765 180.229 182 181.297 182ZM196.464 160.727V184H193.783V160.727H196.464ZM204.058 160.727V184H201.376V160.727H204.058Z" fill="white"/>
<path d="M285.03 168H282.212C282.045 167.189 281.753 166.477 281.337 165.864C280.928 165.25 280.428 164.735 279.837 164.318C279.253 163.894 278.606 163.576 277.893 163.364C277.181 163.152 276.439 163.045 275.666 163.045C274.257 163.045 272.981 163.402 271.837 164.114C270.7 164.826 269.795 165.875 269.121 167.261C268.454 168.648 268.121 170.348 268.121 172.364C268.121 174.379 268.454 176.08 269.121 177.466C269.795 178.852 270.7 179.902 271.837 180.614C272.981 181.326 274.257 181.682 275.666 181.682C276.439 181.682 277.181 181.576 277.893 181.364C278.606 181.152 279.253 180.837 279.837 180.42C280.428 179.996 280.928 179.477 281.337 178.864C281.753 178.242 282.045 177.53 282.212 176.727H285.03C284.818 177.917 284.431 178.981 283.871 179.92C283.31 180.86 282.613 181.659 281.78 182.318C280.946 182.97 280.011 183.466 278.973 183.807C277.943 184.148 276.84 184.318 275.666 184.318C273.681 184.318 271.916 183.833 270.371 182.864C268.825 181.894 267.609 180.515 266.723 178.727C265.837 176.939 265.393 174.818 265.393 172.364C265.393 169.909 265.837 167.788 266.723 166C267.609 164.212 268.825 162.833 270.371 161.864C271.916 160.894 273.681 160.409 275.666 160.409C276.84 160.409 277.943 160.58 278.973 160.92C280.011 161.261 280.946 161.761 281.78 162.42C282.613 163.072 283.31 163.867 283.871 164.807C284.431 165.739 284.818 166.803 285.03 168ZM296.311 184.364C294.735 184.364 293.353 183.989 292.163 183.239C290.982 182.489 290.057 181.439 289.391 180.091C288.732 178.742 288.402 177.167 288.402 175.364C288.402 173.545 288.732 171.958 289.391 170.602C290.057 169.246 290.982 168.193 292.163 167.443C293.353 166.693 294.735 166.318 296.311 166.318C297.887 166.318 299.266 166.693 300.447 167.443C301.637 168.193 302.561 169.246 303.22 170.602C303.887 171.958 304.22 173.545 304.22 175.364C304.22 177.167 303.887 178.742 303.22 180.091C302.561 181.439 301.637 182.489 300.447 183.239C299.266 183.989 297.887 184.364 296.311 184.364ZM296.311 181.955C297.508 181.955 298.493 181.648 299.266 181.034C300.038 180.42 300.61 179.614 300.982 178.614C301.353 177.614 301.538 176.53 301.538 175.364C301.538 174.197 301.353 173.11 300.982 172.102C300.61 171.095 300.038 170.28 299.266 169.659C298.493 169.038 297.508 168.727 296.311 168.727C295.114 168.727 294.129 169.038 293.357 169.659C292.584 170.28 292.012 171.095 291.641 172.102C291.269 173.11 291.084 174.197 291.084 175.364C291.084 176.53 291.269 177.614 291.641 178.614C292.012 179.614 292.584 180.42 293.357 181.034C294.129 181.648 295.114 181.955 296.311 181.955ZM313.45 184.409C312.344 184.409 311.34 184.201 310.439 183.784C309.537 183.36 308.821 182.75 308.291 181.955C307.761 181.152 307.496 180.182 307.496 179.045C307.496 178.045 307.693 177.235 308.087 176.614C308.481 175.985 309.007 175.492 309.666 175.136C310.325 174.78 311.053 174.515 311.848 174.341C312.651 174.159 313.458 174.015 314.268 173.909C315.329 173.773 316.189 173.67 316.848 173.602C317.515 173.527 318 173.402 318.303 173.227C318.613 173.053 318.768 172.75 318.768 172.318V172.227C318.768 171.106 318.462 170.235 317.848 169.614C317.242 168.992 316.321 168.682 315.087 168.682C313.806 168.682 312.803 168.962 312.075 169.523C311.348 170.083 310.837 170.682 310.541 171.318L307.996 170.409C308.45 169.348 309.056 168.523 309.814 167.932C310.579 167.333 311.412 166.917 312.314 166.682C313.223 166.439 314.117 166.318 314.996 166.318C315.556 166.318 316.2 166.386 316.928 166.523C317.662 166.652 318.371 166.92 319.053 167.33C319.742 167.739 320.314 168.356 320.768 169.182C321.223 170.008 321.45 171.114 321.45 172.5V184H318.768V181.636H318.632C318.45 182.015 318.147 182.42 317.723 182.852C317.299 183.284 316.734 183.652 316.03 183.955C315.325 184.258 314.465 184.409 313.45 184.409ZM313.859 182C314.92 182 315.814 181.792 316.541 181.375C317.276 180.958 317.829 180.42 318.2 179.761C318.579 179.102 318.768 178.409 318.768 177.682V175.227C318.655 175.364 318.405 175.489 318.018 175.602C317.64 175.708 317.2 175.803 316.7 175.886C316.208 175.962 315.727 176.03 315.257 176.091C314.795 176.144 314.42 176.189 314.132 176.227C313.435 176.318 312.784 176.466 312.178 176.67C311.579 176.867 311.094 177.167 310.723 177.568C310.359 177.962 310.178 178.5 310.178 179.182C310.178 180.114 310.522 180.818 311.212 181.295C311.909 181.765 312.791 182 313.859 182ZM333.936 166.545V168.818H324.891V166.545H333.936ZM327.527 162.364H330.209V179C330.209 179.758 330.319 180.326 330.538 180.705C330.766 181.076 331.054 181.326 331.402 181.455C331.758 181.576 332.133 181.636 332.527 181.636C332.822 181.636 333.065 181.621 333.254 181.591C333.444 181.553 333.595 181.523 333.709 181.5L334.254 183.909C334.072 183.977 333.819 184.045 333.493 184.114C333.167 184.189 332.754 184.227 332.254 184.227C331.497 184.227 330.754 184.064 330.027 183.739C329.307 183.413 328.709 182.917 328.232 182.25C327.762 181.583 327.527 180.742 327.527 179.727V162.364Z" fill="white"/>
<path d="M391.74 184V160.727H394.558V172.273H394.831L405.286 160.727H408.967L399.195 171.227L408.967 184H405.558L397.467 173.182L394.558 176.455V184H391.74ZM413.345 184V166.545H416.027V184H413.345ZM414.709 163.636C414.186 163.636 413.735 163.458 413.357 163.102C412.985 162.746 412.8 162.318 412.8 161.818C412.8 161.318 412.985 160.89 413.357 160.534C413.735 160.178 414.186 160 414.709 160C415.232 160 415.679 160.178 416.05 160.534C416.429 160.89 416.618 161.318 416.618 161.818C416.618 162.318 416.429 162.746 416.05 163.102C415.679 163.458 415.232 163.636 414.709 163.636ZM424.893 184L419.575 166.545H422.393L426.166 179.909H426.348L430.075 166.545H432.939L436.621 179.864H436.803L440.575 166.545H443.393L438.075 184H435.439L431.621 170.591H431.348L427.53 184H424.893ZM446.939 184V166.545H449.621V184H446.939ZM448.303 163.636C447.78 163.636 447.329 163.458 446.95 163.102C446.579 162.746 446.393 162.318 446.393 161.818C446.393 161.318 446.579 160.89 446.95 160.534C447.329 160.178 447.78 160 448.303 160C448.825 160 449.272 160.178 449.643 160.534C450.022 160.89 450.212 161.318 450.212 161.818C450.212 162.318 450.022 162.746 449.643 163.102C449.272 163.458 448.825 163.636 448.303 163.636Z" fill="white"/>
<path d="M510.709 160.727H514.072L521.982 180.045H522.254L530.163 160.727H533.527V184H530.891V166.318H530.663L523.391 184H520.845L513.572 166.318H513.345V184H510.709V160.727ZM543.95 184.409C542.844 184.409 541.84 184.201 540.939 183.784C540.037 183.36 539.321 182.75 538.791 181.955C538.261 181.152 537.996 180.182 537.996 179.045C537.996 178.045 538.193 177.235 538.587 176.614C538.981 175.985 539.507 175.492 540.166 175.136C540.825 174.78 541.553 174.515 542.348 174.341C543.151 174.159 543.958 174.015 544.768 173.909C545.829 173.773 546.689 173.67 547.348 173.602C548.015 173.527 548.5 173.402 548.803 173.227C549.113 173.053 549.268 172.75 549.268 172.318V172.227C549.268 171.106 548.962 170.235 548.348 169.614C547.742 168.992 546.821 168.682 545.587 168.682C544.306 168.682 543.303 168.962 542.575 169.523C541.848 170.083 541.337 170.682 541.041 171.318L538.496 170.409C538.95 169.348 539.556 168.523 540.314 167.932C541.079 167.333 541.912 166.917 542.814 166.682C543.723 166.439 544.617 166.318 545.496 166.318C546.056 166.318 546.7 166.386 547.428 166.523C548.162 166.652 548.871 166.92 549.553 167.33C550.242 167.739 550.814 168.356 551.268 169.182C551.723 170.008 551.95 171.114 551.95 172.5V184H549.268V181.636H549.132C548.95 182.015 548.647 182.42 548.223 182.852C547.799 183.284 547.234 183.652 546.53 183.955C545.825 184.258 544.965 184.409 543.95 184.409ZM544.359 182C545.42 182 546.314 181.792 547.041 181.375C547.776 180.958 548.329 180.42 548.7 179.761C549.079 179.102 549.268 178.409 549.268 177.682V175.227C549.155 175.364 548.905 175.489 548.518 175.602C548.14 175.708 547.7 175.803 547.2 175.886C546.708 175.962 546.227 176.03 545.757 176.091C545.295 176.144 544.92 176.189 544.632 176.227C543.935 176.318 543.284 176.466 542.678 176.67C542.079 176.867 541.594 177.167 541.223 177.568C540.859 177.962 540.678 178.5 540.678 179.182C540.678 180.114 541.022 180.818 541.712 181.295C542.409 181.765 543.291 182 544.359 182ZM559.527 173.5V184H556.845V166.545H559.436V169.273H559.663C560.072 168.386 560.694 167.674 561.527 167.136C562.36 166.591 563.436 166.318 564.754 166.318C565.936 166.318 566.97 166.561 567.857 167.045C568.743 167.523 569.432 168.25 569.925 169.227C570.417 170.197 570.663 171.424 570.663 172.909V184H567.982V173.091C567.982 171.72 567.625 170.652 566.913 169.886C566.201 169.114 565.224 168.727 563.982 168.727C563.125 168.727 562.36 168.913 561.686 169.284C561.019 169.655 560.493 170.197 560.107 170.909C559.72 171.621 559.527 172.485 559.527 173.5Z" fill="white"/>
<path d="M622.967 163.227V160.727H640.422V163.227H633.104V184H630.286V163.227H622.967ZM644.408 184V166.545H647.089V184H644.408ZM645.771 163.636C645.249 163.636 644.798 163.458 644.419 163.102C644.048 162.746 643.862 162.318 643.862 161.818C643.862 161.318 644.048 160.89 644.419 160.534C644.798 160.178 645.249 160 645.771 160C646.294 160 646.741 160.178 647.112 160.534C647.491 160.89 647.68 161.318 647.68 161.818C647.68 162.318 647.491 162.746 647.112 163.102C646.741 163.458 646.294 163.636 645.771 163.636ZM659.047 190.909C657.751 190.909 656.638 190.742 655.706 190.409C654.774 190.083 653.998 189.652 653.376 189.114C652.763 188.583 652.274 188.015 651.911 187.409L654.047 185.909C654.289 186.227 654.596 186.591 654.967 187C655.339 187.417 655.846 187.777 656.49 188.08C657.142 188.39 657.994 188.545 659.047 188.545C660.456 188.545 661.619 188.205 662.536 187.523C663.452 186.841 663.911 185.773 663.911 184.318V180.773H663.683C663.486 181.091 663.206 181.485 662.842 181.955C662.486 182.417 661.971 182.83 661.297 183.193C660.63 183.549 659.729 183.727 658.592 183.727C657.183 183.727 655.918 183.394 654.797 182.727C653.683 182.061 652.801 181.091 652.149 179.818C651.505 178.545 651.183 177 651.183 175.182C651.183 173.394 651.498 171.837 652.126 170.511C652.755 169.178 653.63 168.148 654.751 167.42C655.873 166.686 657.168 166.318 658.638 166.318C659.774 166.318 660.676 166.508 661.342 166.886C662.017 167.258 662.532 167.682 662.888 168.159C663.251 168.629 663.532 169.015 663.729 169.318H664.001V166.545H666.592V184.5C666.592 186 666.251 187.22 665.57 188.159C664.895 189.106 663.986 189.799 662.842 190.239C661.706 190.686 660.441 190.909 659.047 190.909ZM658.956 181.318C660.032 181.318 660.941 181.072 661.683 180.58C662.426 180.087 662.99 179.379 663.376 178.455C663.763 177.53 663.956 176.424 663.956 175.136C663.956 173.879 663.767 172.769 663.388 171.807C663.009 170.845 662.448 170.091 661.706 169.545C660.964 169 660.047 168.727 658.956 168.727C657.82 168.727 656.873 169.015 656.115 169.591C655.365 170.167 654.801 170.939 654.422 171.909C654.051 172.879 653.865 173.955 653.865 175.136C653.865 176.348 654.054 177.42 654.433 178.352C654.82 179.277 655.388 180.004 656.138 180.534C656.895 181.057 657.835 181.318 658.956 181.318ZM678.82 184.364C677.138 184.364 675.687 183.992 674.467 183.25C673.255 182.5 672.32 181.455 671.661 180.114C671.009 178.765 670.683 177.197 670.683 175.409C670.683 173.621 671.009 172.045 671.661 170.682C672.32 169.311 673.236 168.242 674.411 167.477C675.592 166.705 676.971 166.318 678.547 166.318C679.456 166.318 680.354 166.47 681.24 166.773C682.126 167.076 682.933 167.568 683.661 168.25C684.388 168.924 684.967 169.818 685.399 170.932C685.831 172.045 686.047 173.417 686.047 175.045V176.182H672.592V173.864H683.32C683.32 172.879 683.123 172 682.729 171.227C682.342 170.455 681.789 169.845 681.07 169.398C680.357 168.951 679.517 168.727 678.547 168.727C677.479 168.727 676.554 168.992 675.774 169.523C675.001 170.045 674.407 170.727 673.99 171.568C673.573 172.409 673.365 173.311 673.365 174.273V175.818C673.365 177.136 673.592 178.254 674.047 179.17C674.509 180.08 675.149 180.773 675.967 181.25C676.786 181.72 677.736 181.955 678.82 181.955C679.524 181.955 680.161 181.856 680.729 181.659C681.304 181.455 681.801 181.152 682.217 180.75C682.634 180.341 682.956 179.833 683.183 179.227L685.774 179.955C685.501 180.833 685.043 181.606 684.399 182.273C683.755 182.932 682.96 183.447 682.013 183.818C681.066 184.182 680.001 184.364 678.82 184.364ZM690.126 184V166.545H692.717V169.182H692.899C693.217 168.318 693.793 167.617 694.626 167.08C695.46 166.542 696.399 166.273 697.445 166.273C697.642 166.273 697.888 166.277 698.183 166.284C698.479 166.292 698.702 166.303 698.854 166.318V169.045C698.763 169.023 698.554 168.989 698.229 168.943C697.911 168.89 697.573 168.864 697.217 168.864C696.369 168.864 695.611 169.042 694.945 169.398C694.286 169.746 693.763 170.231 693.376 170.852C692.998 171.466 692.808 172.167 692.808 172.955V184H690.126Z" fill="white"/>
<path d="M738.327 184V181.955L750.872 163.227H738.19V160.727H754.236V162.773L741.69 181.5H754.372V184H738.327ZM766.054 184.364C764.372 184.364 762.921 183.992 761.702 183.25C760.49 182.5 759.554 181.455 758.895 180.114C758.243 178.765 757.918 177.197 757.918 175.409C757.918 173.621 758.243 172.045 758.895 170.682C759.554 169.311 760.471 168.242 761.645 167.477C762.827 166.705 764.205 166.318 765.781 166.318C766.69 166.318 767.588 166.47 768.474 166.773C769.361 167.076 770.168 167.568 770.895 168.25C771.622 168.924 772.202 169.818 772.634 170.932C773.065 172.045 773.281 173.417 773.281 175.045V176.182H759.827V173.864H770.554C770.554 172.879 770.357 172 769.963 171.227C769.577 170.455 769.024 169.845 768.304 169.398C767.592 168.951 766.751 168.727 765.781 168.727C764.713 168.727 763.789 168.992 763.009 169.523C762.236 170.045 761.641 170.727 761.224 171.568C760.808 172.409 760.599 173.311 760.599 174.273V175.818C760.599 177.136 760.827 178.254 761.281 179.17C761.743 180.08 762.384 180.773 763.202 181.25C764.02 181.72 764.971 181.955 766.054 181.955C766.759 181.955 767.395 181.856 767.963 181.659C768.539 181.455 769.035 181.152 769.452 180.75C769.868 180.341 770.19 179.833 770.418 179.227L773.009 179.955C772.736 180.833 772.277 181.606 771.634 182.273C770.99 182.932 770.194 183.447 769.247 183.818C768.3 184.182 767.236 184.364 766.054 184.364ZM777.724 184V160.727H780.406V169.318H780.634C780.83 169.015 781.103 168.629 781.452 168.159C781.808 167.682 782.315 167.258 782.974 166.886C783.641 166.508 784.543 166.318 785.679 166.318C787.149 166.318 788.444 166.686 789.565 167.42C790.687 168.155 791.562 169.197 792.19 170.545C792.819 171.894 793.134 173.485 793.134 175.318C793.134 177.167 792.819 178.769 792.19 180.125C791.562 181.473 790.69 182.519 789.577 183.261C788.463 183.996 787.179 184.364 785.724 184.364C784.603 184.364 783.705 184.178 783.031 183.807C782.357 183.428 781.838 183 781.474 182.523C781.111 182.038 780.83 181.636 780.634 181.318H780.315V184H777.724ZM780.361 175.273C780.361 176.591 780.554 177.754 780.94 178.761C781.327 179.761 781.891 180.545 782.634 181.114C783.376 181.674 784.285 181.955 785.361 181.955C786.482 181.955 787.418 181.659 788.168 181.068C788.925 180.47 789.493 179.667 789.872 178.659C790.259 177.644 790.452 176.515 790.452 175.273C790.452 174.045 790.262 172.939 789.884 171.955C789.512 170.962 788.948 170.178 788.19 169.602C787.44 169.019 786.497 168.727 785.361 168.727C784.27 168.727 783.353 169.004 782.611 169.557C781.868 170.102 781.308 170.867 780.929 171.852C780.55 172.83 780.361 173.97 780.361 175.273ZM797.236 184V166.545H799.827V169.182H800.009C800.327 168.318 800.902 167.617 801.736 167.08C802.569 166.542 803.509 166.273 804.554 166.273C804.751 166.273 804.997 166.277 805.293 166.284C805.588 166.292 805.812 166.303 805.963 166.318V169.045C805.872 169.023 805.664 168.989 805.338 168.943C805.02 168.89 804.683 168.864 804.327 168.864C803.478 168.864 802.721 169.042 802.054 169.398C801.395 169.746 800.872 170.231 800.486 170.852C800.107 171.466 799.918 172.167 799.918 172.955V184H797.236ZM814.278 184.409C813.172 184.409 812.169 184.201 811.267 183.784C810.366 183.36 809.65 182.75 809.119 181.955C808.589 181.152 808.324 180.182 808.324 179.045C808.324 178.045 808.521 177.235 808.915 176.614C809.309 175.985 809.835 175.492 810.494 175.136C811.153 174.78 811.881 174.515 812.676 174.341C813.479 174.159 814.286 174.015 815.097 173.909C816.157 173.773 817.017 173.67 817.676 173.602C818.343 173.527 818.828 173.402 819.131 173.227C819.441 173.053 819.597 172.75 819.597 172.318V172.227C819.597 171.106 819.29 170.235 818.676 169.614C818.07 168.992 817.15 168.682 815.915 168.682C814.634 168.682 813.631 168.962 812.903 169.523C812.176 170.083 811.665 170.682 811.369 171.318L808.824 170.409C809.278 169.348 809.884 168.523 810.642 167.932C811.407 167.333 812.241 166.917 813.142 166.682C814.051 166.439 814.945 166.318 815.824 166.318C816.384 166.318 817.028 166.386 817.756 166.523C818.491 166.652 819.199 166.92 819.881 167.33C820.57 167.739 821.142 168.356 821.597 169.182C822.051 170.008 822.278 171.114 822.278 172.5V184H819.597V181.636H819.46C819.278 182.015 818.975 182.42 818.551 182.852C818.127 183.284 817.563 183.652 816.858 183.955C816.153 184.258 815.294 184.409 814.278 184.409ZM814.688 182C815.748 182 816.642 181.792 817.369 181.375C818.104 180.958 818.657 180.42 819.028 179.761C819.407 179.102 819.597 178.409 819.597 177.682V175.227C819.483 175.364 819.233 175.489 818.847 175.602C818.468 175.708 818.028 175.803 817.528 175.886C817.036 175.962 816.555 176.03 816.085 176.091C815.623 176.144 815.248 176.189 814.96 176.227C814.263 176.318 813.612 176.466 813.006 176.67C812.407 176.867 811.922 177.167 811.551 177.568C811.188 177.962 811.006 178.5 811.006 179.182C811.006 180.114 811.35 180.818 812.04 181.295C812.737 181.765 813.619 182 814.688 182Z" fill="white"/>
</svg>
