<svg xmlns="http://www.w3.org/2000/svg" width="425" height="235" fill="none" viewBox="0 0 425 235"><path fill="#fff" d="M15.256 34.727h3.363l7.91 19.319h.272l7.91-19.319h3.363V58h-2.636V40.318h-.228L27.937 58h-2.545l-7.273-17.682h-.227V58h-2.636zM43.36 58V40.545h2.682V58zm1.363-20.364q-.783 0-1.352-.534a1.72 1.72 0 0 1-.557-1.284q0-.75.557-1.284.569-.534 1.352-.534.785 0 1.341.534.57.534.569 1.284 0 .75-.569 1.284a1.87 1.87 0 0 1-1.34.534m12.822 20.728q-2.183 0-3.853-1.103-1.67-1.113-2.613-3.136-.945-2.034-.944-4.807 0-2.75.944-4.773.942-2.022 2.625-3.125 1.68-1.102 3.886-1.102 1.704 0 2.693.568 1 .558 1.523 1.273.533.705.83 1.16h.227v-8.592h2.682V58h-2.592v-2.682h-.318q-.296.477-.84 1.205-.546.715-1.557 1.284-1.012.557-2.693.557m.363-2.41q1.614 0 2.727-.84 1.114-.853 1.694-2.353.58-1.51.58-3.488 0-1.954-.57-3.42-.568-1.478-1.68-2.296-1.115-.83-2.75-.83-1.705 0-2.842.875-1.125.864-1.693 2.353-.557 1.476-.557 3.318 0 1.862.568 3.386.58 1.511 1.705 2.41 1.137.886 2.818.886m19.512 2.41q-2.183 0-3.853-1.103-1.67-1.113-2.614-3.136-.943-2.034-.943-4.807 0-2.75.944-4.773.942-2.022 2.624-3.125 1.683-1.102 3.887-1.102 1.704 0 2.693.568 1 .558 1.523 1.273.533.705.83 1.16h.227v-8.592h2.682V58h-2.592v-2.682h-.318q-.296.477-.84 1.205-.546.715-1.557 1.284-1.012.557-2.693.557m.363-2.41q1.614 0 2.727-.84 1.114-.853 1.694-2.353.58-1.51.58-3.488 0-1.954-.57-3.42-.568-1.478-1.68-2.296-1.115-.83-2.75-.83-1.705 0-2.842.875-1.125.864-1.693 2.353-.557 1.476-.557 3.318 0 1.862.568 3.386.58 1.511 1.705 2.41 1.137.886 2.818.886m15.602-21.227V58h-2.681V34.727zm12.23 23.637q-2.522 0-4.352-1.114-1.818-1.125-2.807-3.136-.977-2.023-.977-4.705t.977-4.727q.99-2.057 2.75-3.205 1.773-1.158 4.137-1.159 1.364 0 2.693.455a6.7 6.7 0 0 1 2.42 1.477q1.091 1.011 1.739 2.682.648 1.67.648 4.113v1.137H99.389v-2.318h10.727q0-1.477-.59-2.637a4.46 4.46 0 0 0-1.66-1.83q-1.068-.67-2.522-.67-1.602 0-2.773.796a5.23 5.23 0 0 0-1.784 2.045 6 6 0 0 0-.625 2.705v1.545q0 1.977.682 3.352.693 1.365 1.92 2.08 1.227.705 2.852.705 1.057 0 1.91-.296a4.1 4.1 0 0 0 1.488-.909q.626-.614.966-1.523l2.591.728a5.75 5.75 0 0 1-1.375 2.318q-.966.989-2.386 1.545-1.42.546-3.194.546m21.398-11.591v-2.455h14v2.455zm0 6.727v-2.455h14V53.5zM173.178 31V7.727h2.818v10.364h12.409V7.727h2.818V31h-2.818V20.59h-12.409V31zm23.323 0V13.546h2.682V31zm1.364-20.364q-.784 0-1.352-.534a1.72 1.72 0 0 1-.557-1.284q0-.75.557-1.284A1.9 1.9 0 0 1 197.865 7q.784 0 1.341.534.568.534.568 1.284t-.568 1.284a1.87 1.87 0 0 1-1.341.534m13.276 27.273q-1.943 0-3.341-.5-1.398-.49-2.33-1.295a7.1 7.1 0 0 1-1.466-1.705l2.137-1.5q.363.477.92 1.091.557.625 1.523 1.08.977.465 2.557.465 2.114 0 3.488-1.022t1.375-3.205v-3.545h-.227q-.295.477-.841 1.181-.534.694-1.545 1.24-1 .533-2.705.533-2.114 0-3.795-1-1.671-1-2.648-2.909-.966-1.91-.966-4.636 0-2.682.943-4.67.944-2 2.625-3.091 1.682-1.103 3.887-1.103 1.704 0 2.704.568 1.01.558 1.546 1.273.544.704.84 1.16h.273v-2.773h2.591V31.5q0 2.25-1.023 3.66-1.011 1.42-2.727 2.079-1.704.67-3.795.67m-.091-9.59q1.613 0 2.727-.74 1.113-.738 1.693-2.125.58-1.386.58-3.318 0-1.886-.568-3.33-.569-1.442-1.682-2.26-1.114-.819-2.75-.819-1.706 0-2.841.864-1.125.863-1.693 2.318-.558 1.455-.557 3.227 0 1.82.568 3.216.58 1.387 1.705 2.182 1.136.784 2.818.784m15.227-7.819V31h-2.682V7.727h2.682v8.546h.227a4.93 4.93 0 0 1 1.841-2.148q1.238-.807 3.296-.807 1.784 0 3.125.716 1.341.705 2.079 2.17.75 1.455.75 3.705V31h-2.682V20.09q0-2.078-1.079-3.215-1.068-1.148-2.966-1.148-1.319 0-2.364.557a4.07 4.07 0 0 0-1.636 1.625q-.591 1.068-.591 2.591m32.043 6.41v-15h2.545v15zm-6.228-6.228v-2.546h15v2.546zM281.959 31V7.727h2.818V28.5h10.818V31zm24.727.364q-2.363 0-4.148-1.125-1.772-1.126-2.772-3.148-.989-2.023-.989-4.727 0-2.728.989-4.762 1-2.034 2.772-3.159 1.784-1.125 4.148-1.125t4.136 1.125q1.785 1.125 2.773 3.16 1 2.033 1 4.76 0 2.706-1 4.728-.988 2.022-2.773 3.148-1.772 1.125-4.136 1.125m0-2.41q1.796 0 2.955-.92 1.158-.92 1.716-2.42.556-1.5.556-3.25t-.556-3.262q-.558-1.511-1.716-2.443-1.16-.932-2.955-.932t-2.954.932q-1.16.932-1.716 2.443-.558 1.512-.557 3.262 0 1.75.557 3.25.556 1.5 1.716 2.42 1.158.92 2.954.92M322.05 31l-5.318-17.454h2.818l3.772 13.363h.182l3.728-13.363h2.863l3.682 13.318h.182l3.773-13.318h2.818L335.232 31h-2.637l-3.818-13.41h-.273L324.686 31zM248.722 86v-2.046l7.681-8.408a54 54 0 0 0 2.228-2.569q.875-1.102 1.295-2.068a5 5 0 0 0 .432-2.045q0-1.228-.591-2.125a3.83 3.83 0 0 0-1.591-1.387q-1.011-.489-2.273-.488-1.34 0-2.341.556a3.84 3.84 0 0 0-1.534 1.534q-.534.99-.534 2.319h-2.682q0-2.045.944-3.591a6.55 6.55 0 0 1 2.568-2.41q1.636-.863 3.67-.863 2.046 0 3.625.864 1.58.863 2.478 2.33.897 1.466.897 3.26 0 1.285-.466 2.512-.455 1.215-1.59 2.716-1.125 1.489-3.126 3.636l-5.227 5.591v.182h10.818V86z"/><path stroke="#fff" d="M166 46.5h180"/><path fill="#fff" d="M15.256 175.727h3.363l7.91 19.318h.272l7.91-19.318h3.363V199h-2.636v-17.682h-.228L27.937 199h-2.545l-7.273-17.682h-.227V199h-2.636zM43.36 199v-17.455h2.682V199zm1.363-20.364q-.783 0-1.352-.534a1.72 1.72 0 0 1-.557-1.284q0-.75.557-1.284.569-.534 1.352-.534.785 0 1.341.534.57.534.569 1.284 0 .75-.569 1.284a1.87 1.87 0 0 1-1.34.534m12.822 20.728q-2.183 0-3.853-1.103-1.67-1.113-2.613-3.136-.945-2.034-.944-4.807 0-2.75.944-4.773.942-2.022 2.625-3.125 1.68-1.101 3.886-1.102 1.704 0 2.693.568 1 .558 1.523 1.273.533.705.83 1.159h.227v-8.591h2.682V199h-2.592v-2.682h-.318q-.296.477-.84 1.205-.546.715-1.557 1.284-1.012.557-2.693.557m.363-2.409q1.614 0 2.727-.841 1.114-.853 1.694-2.353.58-1.51.58-3.488 0-1.954-.57-3.421-.568-1.477-1.68-2.295-1.115-.83-2.75-.83-1.705 0-2.842.875-1.125.864-1.693 2.353-.557 1.476-.557 3.318 0 1.863.568 3.386.58 1.512 1.705 2.409 1.137.887 2.818.887m19.512 2.409q-2.183 0-3.853-1.103-1.67-1.113-2.614-3.136-.943-2.034-.943-4.807 0-2.75.944-4.773.942-2.022 2.624-3.125 1.683-1.101 3.887-1.102 1.704 0 2.693.568 1 .558 1.523 1.273.533.705.83 1.159h.227v-8.591h2.682V199h-2.592v-2.682h-.318q-.296.477-.84 1.205-.546.715-1.557 1.284-1.012.557-2.693.557m.363-2.409q1.614 0 2.727-.841 1.114-.853 1.694-2.353.58-1.51.58-3.488 0-1.954-.57-3.421-.568-1.477-1.68-2.295-1.115-.83-2.75-.83-1.705 0-2.842.875-1.125.864-1.693 2.353-.557 1.476-.557 3.318 0 1.863.568 3.386.58 1.512 1.705 2.409 1.137.887 2.818.887m15.602-21.228V199h-2.681v-23.273zm12.23 23.637q-2.522 0-4.352-1.114-1.818-1.125-2.807-3.136-.977-2.023-.977-4.705t.977-4.727q.99-2.057 2.75-3.205 1.773-1.158 4.137-1.159 1.364 0 2.693.455a6.7 6.7 0 0 1 2.42 1.477q1.091 1.011 1.739 2.682.648 1.67.648 4.113v1.137H99.389v-2.318h10.727q0-1.478-.59-2.637a4.46 4.46 0 0 0-1.66-1.829q-1.068-.67-2.522-.671-1.602 0-2.773.796a5.2 5.2 0 0 0-1.784 2.045 6 6 0 0 0-.625 2.705v1.545q0 1.978.682 3.352.693 1.365 1.92 2.08 1.227.705 2.852.705 1.057 0 1.91-.296a4.1 4.1 0 0 0 1.488-.909q.626-.614.966-1.523l2.591.728a5.75 5.75 0 0 1-1.375 2.318q-.966.988-2.386 1.545-1.42.546-3.194.546m21.398-11.591v-2.455h14v2.455zm0 6.727v-2.455h14v2.455zM223.011 172l10.409-20.591v-.182h-12v-2.5h14.91v2.637L225.966 172zm33.418-4.091v-15h2.545v15zm-6.227-6.227v-2.546h15v2.546zm37.639-12.955V172h-2.818v-20.318h-.137l-5.681 3.773v-2.864l5.818-3.864zM248.722 227v-2.045l7.681-8.41a53 53 0 0 0 2.228-2.568q.875-1.102 1.295-2.068a5 5 0 0 0 .432-2.045q0-1.228-.591-2.125a3.83 3.83 0 0 0-1.591-1.387q-1.011-.488-2.273-.488-1.34 0-2.341.556a3.84 3.84 0 0 0-1.534 1.535q-.534.988-.534 2.318h-2.682q0-2.046.944-3.591a6.55 6.55 0 0 1 2.568-2.409q1.636-.864 3.67-.864 2.046 0 3.625.864 1.58.863 2.478 2.329.897 1.467.897 3.262a7 7 0 0 1-.466 2.511q-.455 1.216-1.59 2.716-1.125 1.488-3.126 3.636l-5.227 5.591v.182h10.818v2.5z"/><path stroke="#fff" d="M166 187.5h180"/><path fill="#fff" d="M368.733 186.227v-2.454h14v2.454zm0 6.728V190.5h14v2.455zm37.412 2.272v-2.318l10.227-16.182h1.682v3.591h-1.136l-7.728 12.227v.182h13.773v2.5zM417.099 200v-23.273h2.682V200z"/></svg>