<svg xmlns="http://www.w3.org/2000/svg" width="560" height="460" fill="none" viewBox="0 0 560 460"><path fill="#fff" d="M14.648 128.42q-.136-1.374-1.17-2.136-1.035-.76-2.807-.761-1.206 0-2.035.341-.83.329-1.272.92a2.2 2.2 0 0 0-.432 1.341q-.023.625.261 1.091.296.466.807.807.51.33 1.182.579.67.239 1.432.409l2.09.5q1.523.342 2.796.909a8.5 8.5 0 0 1 2.204 1.398 5.8 5.8 0 0 1 1.444 1.955q.522 1.125.534 2.579-.011 2.137-1.091 3.705-1.068 1.557-3.091 2.42-2.01.852-4.852.853-2.819 0-4.91-.864-2.08-.864-3.25-2.557-1.158-1.704-1.215-4.216h4.761q.08 1.17.67 1.955.603.772 1.603 1.17 1.01.387 2.284.387 1.25 0 2.17-.364.933-.365 1.444-1.011.51-.648.51-1.489 0-.784-.465-1.318-.455-.534-1.34-.909-.876-.376-2.149-.682l-2.534-.637q-2.943-.716-4.647-2.238t-1.694-4.102q-.01-2.115 1.125-3.694 1.149-1.58 3.148-2.466 2-.885 4.546-.886 2.59 0 4.522.886 1.944.886 3.023 2.466t1.114 3.659zm17.537-.875v3.637H21.673v-3.637zm-8.125-4.181h4.84v16.272q0 .67.205 1.046.204.363.568.511.375.148.864.148.34 0 .682-.057l.522-.102.762 3.602q-.364.114-1.023.261-.66.16-1.602.194-1.75.068-3.068-.466-1.308-.534-2.034-1.659-.728-1.125-.716-2.841zm16.255 21.966q-1.67 0-2.977-.58a4.8 4.8 0 0 1-2.068-1.739q-.75-1.158-.75-2.886 0-1.455.534-2.443.534-.989 1.454-1.591a7 7 0 0 1 2.091-.909 16 16 0 0 1 2.478-.432 65 65 0 0 0 2.454-.295q.933-.148 1.352-.432t.421-.841v-.068q0-1.08-.682-1.671-.67-.591-1.909-.591-1.306 0-2.08.58-.772.568-1.022 1.432l-4.477-.364q.34-1.591 1.34-2.75 1-1.17 2.58-1.795 1.59-.637 3.682-.637 1.455 0 2.784.341 1.34.341 2.375 1.057a5.13 5.13 0 0 1 1.648 1.841q.602 1.113.602 2.67V145h-4.591v-2.42h-.136a4.9 4.9 0 0 1-1.125 1.443 5.2 5.2 0 0 1-1.694.966q-.988.34-2.284.341m1.387-3.341q1.068 0 1.886-.421a3.34 3.34 0 0 0 1.284-1.159 3 3 0 0 0 .466-1.648v-1.852a2.6 2.6 0 0 1-.625.273q-.387.114-.875.216-.489.09-.977.17l-.887.125a6 6 0 0 0-1.488.398q-.636.273-.989.739-.352.454-.352 1.136 0 .989.716 1.511.727.512 1.84.512M53.9 145v-17.455h4.693v3.046h.182q.477-1.625 1.602-2.455 1.125-.84 2.59-.841.364 0 .785.046.42.045.739.125v4.295a6.4 6.4 0 0 0-.944-.181 8.5 8.5 0 0 0-1.102-.08q-1.068 0-1.91.466a3.43 3.43 0 0 0-1.317 1.273q-.477.818-.477 1.886V145zm23.252-17.455v3.637H66.642v-3.637zm-8.125-4.181h4.841v16.272q0 .67.205 1.046.204.363.568.511.375.148.864.148.34 0 .681-.057l.523-.102.762 3.602q-.364.114-1.023.261-.66.16-1.602.194-1.75.068-3.069-.466-1.306-.534-2.034-1.659-.726-1.125-.716-2.841zm14.108 21.931q-1.125 0-1.931-.795a2.66 2.66 0 0 1-.796-1.932q0-1.113.795-1.909a2.66 2.66 0 0 1 1.932-.795q1.091 0 1.91.795.818.796.818 1.909 0 .75-.387 1.375a2.94 2.94 0 0 1-.988.989q-.614.363-1.353.363m0-12.227q-1.125 0-1.931-.795a2.63 2.63 0 0 1-.796-1.932q0-1.114.795-1.898a2.66 2.66 0 0 1 1.932-.795q1.091 0 1.91.795.818.784.818 1.898 0 .761-.387 1.386-.376.614-.988.978-.614.363-1.353.363m18.907 1.432V145h-2.682v-17.455h2.591v2.728h.227a5 5 0 0 1 1.864-2.137q1.25-.818 3.227-.818 1.773 0 3.102.727 1.33.717 2.068 2.182.74 1.455.739 3.682V145h-2.682v-10.909q0-2.056-1.068-3.205-1.068-1.158-2.932-1.159-1.284 0-2.295.557-1 .557-1.58 1.625-.579 1.068-.579 2.591M127.08 145v-17.455h2.681V145zm1.363-20.364q-.784 0-1.352-.534a1.72 1.72 0 0 1-.557-1.284q0-.75.557-1.284a1.9 1.9 0 0 1 1.352-.534q.785 0 1.341.534.568.534.568 1.284t-.568 1.284a1.87 1.87 0 0 1-1.341.534m13.821 2.909v2.273h-9.045v-2.273zm-6.409-4.181h2.682V140q0 1.137.329 1.705.342.556.864.75.534.181 1.125.181.444 0 .727-.045l.455-.091.545 2.409a5.5 5.5 0 0 1-.761.205q-.489.113-1.239.113-1.136 0-2.227-.488a4.4 4.4 0 0 1-1.795-1.489q-.705-1-.705-2.523zm17.574 22q-2.523 0-4.352-1.114-1.818-1.125-2.807-3.136-.977-2.023-.977-4.705t.977-4.727q.989-2.057 2.75-3.205 1.773-1.159 4.136-1.159 1.364 0 2.693.455a6.7 6.7 0 0 1 2.421 1.477q1.09 1.011 1.739 2.682.647 1.67.647 4.113v1.137h-13.454v-2.318h10.727q0-1.478-.591-2.637a4.45 4.45 0 0 0-1.659-1.829q-1.068-.67-2.523-.671-1.602 0-2.772.796a5.2 5.2 0 0 0-1.785 2.045 6 6 0 0 0-.625 2.705v1.545q0 1.977.682 3.352.694 1.365 1.921 2.08 1.227.705 2.852.705 1.057 0 1.909-.296a4.1 4.1 0 0 0 1.489-.909 4.15 4.15 0 0 0 .966-1.523l2.591.728a5.8 5.8 0 0 1-1.375 2.318q-.966.988-2.387 1.545-1.42.546-3.193.546m11.307-.364v-17.455h2.591v2.728h.227q.546-1.398 1.761-2.171 1.216-.784 2.921-.784 1.727 0 2.875.784 1.16.773 1.807 2.171h.181a5.1 5.1 0 0 1 2.012-2.148q1.341-.807 3.216-.807 2.34 0 3.829 1.466 1.49 1.455 1.489 4.534V145h-2.682v-11.682q0-1.932-1.057-2.761t-2.488-.83q-1.841 0-2.853 1.114-1.011 1.103-1.011 2.795V145h-2.727v-11.955q0-1.488-.966-2.397-.966-.921-2.489-.921-1.045 0-1.954.557a4.2 4.2 0 0 0-1.455 1.546q-.546.977-.545 2.261V145zm40.176-13.545-2.409.681a4.5 4.5 0 0 0-.671-1.17q-.43-.58-1.181-.955-.75-.375-1.921-.375-1.602 0-2.67.739-1.057.727-1.057 1.852 0 1 .727 1.58.728.579 2.273.966l2.591.636q2.34.568 3.488 1.739 1.148 1.159 1.148 2.988 0 1.5-.864 2.682-.852 1.182-2.386 1.864-1.534.681-3.568.682-2.67 0-4.421-1.159-1.75-1.16-2.215-3.387l2.545-.636q.363 1.409 1.375 2.113 1.023.705 2.67.705 1.875 0 2.978-.795 1.113-.807 1.113-1.932 0-.91-.636-1.523-.636-.625-1.955-.932l-2.909-.682q-2.397-.568-3.522-1.761-1.114-1.205-1.114-3.011 0-1.477.83-2.614.84-1.137 2.284-1.784 1.454-.648 3.295-.648 2.59 0 4.068 1.137 1.489 1.136 2.114 3M23.999 226.727a4.85 4.85 0 0 1-2.512-.67 5.2 5.2 0 0 1-1.818-1.818 4.85 4.85 0 0 1-.67-2.512q0-1.386.67-2.511a5.1 5.1 0 0 1 1.818-1.807 4.8 4.8 0 0 1 2.512-.682q1.386 0 2.51.682a5.04 5.04 0 0 1 1.808 1.807q.681 1.125.682 2.511 0 1.375-.682 2.512a5.14 5.14 0 0 1-1.807 1.818q-1.125.67-2.511.67M54.034 231h-5.273l8.034-23.273h6.341L71.16 231h-5.273l-5.83-17.955h-.181zm-.33-9.148H66.16v3.841H53.704zm29.24-8.307v3.637H72.17v-3.637zM74.635 231v-18.716q0-1.897.739-3.148a4.75 4.75 0 0 1 2.046-1.875q1.294-.624 2.943-.625 1.113 0 2.034.171a14 14 0 0 1 1.386.307l-.864 3.636a6 6 0 0 0-.704-.17 4.4 4.4 0 0 0-.841-.08q-1.068 0-1.489.5-.42.489-.42 1.375V231zm20.549-17.455v3.637H84.673v-3.637zm-8.125-4.181h4.84v16.272q0 .67.205 1.046.204.363.568.511.375.148.864.148.34 0 .682-.057l.523-.102.76 3.602q-.362.114-1.022.261-.66.16-1.602.194-1.75.068-3.068-.466-1.308-.534-2.034-1.659-.728-1.125-.716-2.841zm19.045 21.977q-2.693 0-4.636-1.091a7.47 7.47 0 0 1-2.977-3.114q-1.046-2.022-1.046-4.784 0-2.693 1.046-4.727 1.045-2.034 2.943-3.17 1.909-1.137 4.477-1.137 1.727 0 3.216.557 1.5.546 2.613 1.648 1.126 1.102 1.75 2.772.625 1.66.625 3.887v1.329H99.378v-3h10.182q0-1.045-.455-1.852a3.25 3.25 0 0 0-1.261-1.261q-.796-.466-1.853-.466-1.102 0-1.954.511-.841.5-1.318 1.352a3.8 3.8 0 0 0-.489 1.875v2.853q0 1.295.477 2.238a3.5 3.5 0 0 0 1.375 1.455q.886.511 2.103.511.807 0 1.477-.227a3.1 3.1 0 0 0 1.148-.682 3 3 0 0 0 .727-1.113l4.477.295a6.1 6.1 0 0 1-1.398 2.818q-1.045 1.194-2.704 1.864-1.648.659-3.807.659m11.171-.341v-17.455h4.693v3.046h.182q.477-1.625 1.602-2.455 1.125-.84 2.591-.841.364 0 .784.046.42.045.738.125v4.295a6.3 6.3 0 0 0-.943-.181 8.5 8.5 0 0 0-1.102-.08q-1.068 0-1.909.466a3.43 3.43 0 0 0-1.318 1.273q-.477.818-.478 1.886V231zm30.579-23.273V231h-4.92v-18.602h-.137l-5.329 3.341v-4.364l5.761-3.648zm27.506 10.796-4.432.272a2.3 2.3 0 0 0-.489-1.022 2.6 2.6 0 0 0-.988-.739q-.603-.284-1.443-.284-1.125 0-1.898.477-.773.467-.773 1.25 0 .625.5 1.057t1.716.693l3.159.637q2.545.523 3.796 1.681 1.25 1.16 1.25 3.046 0 1.716-1.012 3.011-1 1.296-2.75 2.023-1.738.716-4.011.716-3.466 0-5.523-1.443-2.046-1.455-2.398-3.955l4.762-.25q.216 1.058 1.045 1.614.83.545 2.125.545 1.273 0 2.046-.488.783-.501.795-1.284-.011-.66-.557-1.08-.545-.432-1.682-.659l-3.022-.602q-2.558-.512-3.807-1.773-1.239-1.262-1.239-3.216 0-1.681.909-2.898.921-1.215 2.58-1.875 1.671-.659 3.909-.659 3.307 0 5.205 1.398 1.908 1.398 2.227 3.807m12.73-4.978v3.637H177.58v-3.637zm-8.125-4.181h4.841v16.272q0 .67.204 1.046.205.363.569.511.375.148.863.148.341 0 .682-.057l.523-.102.761 3.602q-.363.114-1.023.261-.659.16-1.602.194-1.75.068-3.068-.466-1.307-.534-2.034-1.659-.728-1.125-.716-2.841zm19.045 21.977q-2.693 0-4.636-1.091-1.932-1.102-2.977-3.114-1.046-2.022-1.046-4.784 0-2.693 1.046-4.727 1.045-2.034 2.943-3.17 1.91-1.137 4.477-1.137 1.728 0 3.216.557 1.5.546 2.614 1.648 1.125 1.102 1.75 2.772.624 1.66.625 3.887v1.329h-14.739v-3h10.182q0-1.045-.455-1.852a3.25 3.25 0 0 0-1.261-1.261q-.796-.466-1.852-.466-1.103 0-1.955.511-.84.5-1.318 1.352a3.8 3.8 0 0 0-.489 1.875v2.853q0 1.295.478 2.238a3.5 3.5 0 0 0 1.375 1.455q.886.511 2.102.511.807 0 1.477-.227.67-.228 1.148-.682t.727-1.113l4.477.295a6.1 6.1 0 0 1-1.397 2.818q-1.046 1.194-2.705 1.864-1.647.659-3.807.659m11.171 6.204v-24h4.773v2.932h.215a6.4 6.4 0 0 1 .921-1.432q.613-.738 1.591-1.227.988-.5 2.454-.5 1.91 0 3.523 1 1.614.988 2.58 2.989.966 1.988.966 4.988 0 2.92-.944 4.932-.931 2-2.545 3.034-1.602 1.023-3.591 1.023-1.409 0-2.398-.466-.977-.466-1.602-1.17a6 6 0 0 1-.955-1.443h-.147v9.34zm4.738-15.272q0 1.557.432 2.716t1.25 1.806q.819.637 1.989.637 1.181 0 2-.648.817-.659 1.239-1.818.43-1.17.431-2.693 0-1.512-.42-2.659-.42-1.148-1.239-1.796-.818-.648-2.011-.648-1.182 0-2 .625-.807.626-1.239 1.773-.432 1.148-.432 2.705m18.341 9.022q-1.125 0-1.931-.795a2.65 2.65 0 0 1-.796-1.932q0-1.113.796-1.909a2.65 2.65 0 0 1 1.931-.795q1.092 0 1.909.795.819.796.819 1.909 0 .75-.387 1.375a2.94 2.94 0 0 1-.988.989q-.614.363-1.353.363m0-12.227q-1.125 0-1.931-.795a2.63 2.63 0 0 1-.796-1.932q0-1.114.796-1.898a2.65 2.65 0 0 1 1.931-.795q1.092 0 1.909.795.819.784.819 1.898 0 .761-.387 1.386-.375.614-.988.978-.614.363-1.353.363m18.907 1.432V231h-2.682v-17.455h2.591v2.728h.227a5 5 0 0 1 1.864-2.137q1.25-.818 3.227-.818 1.773 0 3.102.727 1.33.717 2.068 2.182.74 1.455.739 3.682V231h-2.682v-10.909q0-2.056-1.068-3.205-1.068-1.158-2.932-1.159-1.284 0-2.295.557-1 .557-1.58 1.625-.579 1.068-.579 2.591m24.264-13.864-7.5 27.864h-2.455l7.5-27.864zM279.565 231v-2.045l7.682-8.41a52 52 0 0 0 2.227-2.568q.876-1.102 1.296-2.068a5 5 0 0 0 .432-2.045q0-1.228-.591-2.125a3.84 3.84 0 0 0-1.591-1.387q-1.011-.488-2.273-.488-1.34 0-2.341.556a3.84 3.84 0 0 0-1.534 1.535q-.534.988-.534 2.318h-2.682q0-2.046.943-3.591a6.55 6.55 0 0 1 2.569-2.409q1.636-.864 3.67-.864 2.046 0 3.625.864 1.58.863 2.477 2.329.898 1.467.898 3.262a7 7 0 0 1-.466 2.511q-.454 1.216-1.591 2.716-1.124 1.488-3.125 3.636l-5.227 5.591v.182h10.818v2.5zm28.421 0v-17.455h2.682V231zm1.363-20.364q-.783 0-1.352-.534a1.72 1.72 0 0 1-.557-1.284q0-.75.557-1.284.569-.534 1.352-.534.785 0 1.341.534.569.534.569 1.284t-.569 1.284a1.87 1.87 0 0 1-1.341.534m13.821 2.909v2.273h-9.045v-2.273zm-6.409-4.181h2.682V226q0 1.137.33 1.705.34.556.863.75.534.181 1.125.181.444 0 .728-.045l.454-.091.546 2.409a6 6 0 0 1-.762.205q-.488.113-1.238.113-1.137 0-2.228-.488a4.4 4.4 0 0 1-1.795-1.489q-.705-1-.705-2.523zm17.574 22q-2.523 0-4.352-1.114-1.818-1.125-2.807-3.136-.977-2.023-.977-4.705t.977-4.727q.989-2.057 2.75-3.205 1.773-1.158 4.136-1.159 1.364 0 2.694.455a6.7 6.7 0 0 1 2.42 1.477q1.09 1.011 1.739 2.682.648 1.67.647 4.113v1.137h-13.454v-2.318h10.727q0-1.478-.591-2.637a4.45 4.45 0 0 0-1.659-1.829q-1.068-.67-2.523-.671-1.602 0-2.772.796a5.2 5.2 0 0 0-1.784 2.045 6 6 0 0 0-.625 2.705v1.545q0 1.978.681 3.352.694 1.365 1.921 2.08 1.227.705 2.852.705 1.057 0 1.909-.296a4.1 4.1 0 0 0 1.489-.909q.625-.614.966-1.523l2.591.728a5.75 5.75 0 0 1-1.375 2.318q-.966.988-2.387 1.545-1.42.546-3.193.546m11.307-.364v-17.455h2.591v2.728h.227q.546-1.398 1.762-2.171 1.216-.783 2.92-.784 1.728 0 2.875.784 1.16.773 1.807 2.171h.182a5.1 5.1 0 0 1 2.011-2.148q1.341-.807 3.216-.807 2.341 0 3.829 1.466 1.49 1.455 1.489 4.534V231h-2.682v-11.682q0-1.932-1.057-2.761t-2.488-.83q-1.84 0-2.852 1.114-1.012 1.103-1.012 2.795V231h-2.727v-11.955q0-1.488-.966-2.397-.966-.921-2.489-.921-1.045 0-1.954.557a4.2 4.2 0 0 0-1.455 1.546q-.545.977-.545 2.261V231zm40.176-13.545-2.409.681a4.5 4.5 0 0 0-.67-1.17q-.432-.58-1.182-.955t-1.921-.375q-1.602 0-2.67.739-1.057.727-1.057 1.852 0 1 .727 1.58.728.579 2.273.966l2.591.636q2.34.568 3.489 1.739 1.147 1.159 1.147 2.988 0 1.5-.863 2.682-.852 1.182-2.387 1.864-1.533.681-3.568.682-2.67 0-4.42-1.159t-2.216-3.387l2.545-.636q.364 1.409 1.375 2.113 1.023.705 2.671.705 1.875 0 2.977-.795 1.113-.807 1.114-1.932 0-.91-.637-1.523-.636-.625-1.954-.932l-2.909-.682q-2.398-.568-3.523-1.761-1.114-1.205-1.114-3.011 0-1.477.83-2.614.84-1.137 2.284-1.784 1.455-.648 3.295-.648 2.592 0 4.069 1.137 1.488 1.136 2.113 3m-361.82 56.272a4.85 4.85 0 0 1-2.51-.67 5.2 5.2 0 0 1-1.819-1.818 4.85 4.85 0 0 1-.67-2.512q0-1.386.67-2.511a5.1 5.1 0 0 1 1.818-1.807 4.8 4.8 0 0 1 2.512-.682q1.386 0 2.51.682a5.04 5.04 0 0 1 1.808 1.807q.681 1.125.682 2.511 0 1.375-.682 2.512a5.14 5.14 0 0 1-1.807 1.818q-1.125.67-2.511.67M54.035 278h-5.273l8.034-23.273h6.341L71.16 278h-5.273l-5.83-17.955h-.181zm-.33-9.148H66.16v3.841H53.704zm29.24-8.307v3.637H72.17v-3.637zM74.635 278v-18.716q0-1.897.739-3.148a4.75 4.75 0 0 1 2.046-1.875q1.294-.624 2.943-.625 1.113 0 2.034.171a14 14 0 0 1 1.386.307l-.864 3.636a6 6 0 0 0-.704-.17 4.4 4.4 0 0 0-.841-.08q-1.068 0-1.489.5-.42.489-.42 1.375V278zm20.549-17.455v3.637H84.673v-3.637zm-8.125-4.181h4.84v16.272q0 .67.205 1.046.204.364.568.511.375.148.864.148.34 0 .682-.057l.523-.102.76 3.602q-.362.114-1.022.261-.66.16-1.602.194-1.75.068-3.068-.466-1.308-.534-2.034-1.659-.728-1.125-.716-2.841zm19.045 21.977q-2.693 0-4.636-1.091a7.47 7.47 0 0 1-2.977-3.114q-1.046-2.022-1.046-4.784 0-2.693 1.046-4.727 1.045-2.034 2.943-3.17 1.909-1.137 4.477-1.137 1.727 0 3.216.557 1.5.546 2.613 1.648 1.126 1.102 1.75 2.772.625 1.66.625 3.887v1.329H99.378v-3h10.182q0-1.045-.455-1.852a3.25 3.25 0 0 0-1.261-1.261q-.796-.466-1.853-.466-1.102 0-1.954.511-.841.5-1.318 1.352a3.8 3.8 0 0 0-.489 1.875v2.853q0 1.295.477 2.238a3.5 3.5 0 0 0 1.375 1.455q.886.511 2.103.511.807 0 1.477-.227a3.1 3.1 0 0 0 1.148-.682 3 3 0 0 0 .727-1.113l4.477.295a6.1 6.1 0 0 1-1.398 2.818q-1.045 1.194-2.704 1.864-1.648.659-3.807.659m11.171-.341v-17.455h4.693v3.046h.182q.477-1.625 1.602-2.455 1.125-.84 2.591-.841.364 0 .784.046.42.045.738.125v4.295a6.3 6.3 0 0 0-.943-.181 8.5 8.5 0 0 0-1.102-.08q-1.068 0-1.909.466a3.43 3.43 0 0 0-1.318 1.273q-.477.818-.478 1.886V278zm20.454 0v-3.545l8.284-7.671a31 31 0 0 0 1.773-1.841q.727-.817 1.102-1.602.375-.795.375-1.716 0-1.023-.466-1.761-.466-.75-1.272-1.148-.807-.41-1.83-.409-1.068 0-1.864.432-.795.431-1.227 1.238t-.432 1.921h-4.67q0-2.285 1.034-3.966 1.033-1.682 2.898-2.602 1.863-.921 4.295-.921 2.5 0 4.352.886 1.865.875 2.898 2.432 1.034 1.558 1.034 3.568 0 1.319-.523 2.603-.51 1.284-1.829 2.852-1.318 1.557-3.716 3.739l-3.398 3.329v.159h9.773V278zm42.131-12.477-4.432.272a2.3 2.3 0 0 0-.489-1.022 2.6 2.6 0 0 0-.988-.739q-.603-.284-1.443-.284-1.125 0-1.898.477-.773.467-.773 1.25 0 .625.5 1.057t1.716.693l3.159.637q2.545.522 3.796 1.681t1.25 3.046q0 1.716-1.012 3.011-1 1.296-2.75 2.023-1.738.716-4.011.716-3.466 0-5.523-1.443-2.046-1.455-2.398-3.955l4.762-.25q.216 1.058 1.045 1.614.83.545 2.125.545 1.273 0 2.046-.488.783-.501.795-1.284-.011-.66-.557-1.08-.545-.432-1.682-.659l-3.022-.602q-2.558-.512-3.807-1.773-1.239-1.262-1.239-3.216 0-1.681.909-2.898.921-1.215 2.58-1.875 1.671-.659 3.909-.659 3.307 0 5.205 1.398 1.908 1.398 2.227 3.807m12.73-4.978v3.637H182.08v-3.637zm-8.125-4.181h4.841v16.272q0 .67.204 1.046.205.364.569.511.375.148.863.148.341 0 .682-.057l.523-.102.761 3.602q-.363.114-1.023.261-.659.16-1.602.194-1.75.068-3.068-.466-1.307-.534-2.034-1.659-.728-1.125-.716-2.841zm19.045 21.977q-2.693 0-4.636-1.091-1.932-1.103-2.977-3.114-1.046-2.022-1.046-4.784 0-2.693 1.046-4.727 1.045-2.034 2.943-3.17 1.91-1.137 4.477-1.137 1.728 0 3.216.557 1.5.546 2.614 1.648 1.125 1.102 1.75 2.772.624 1.66.625 3.887v1.329h-14.739v-3h10.182q0-1.045-.455-1.852a3.25 3.25 0 0 0-1.261-1.261q-.796-.466-1.852-.466-1.103 0-1.955.511-.84.5-1.318 1.352a3.8 3.8 0 0 0-.489 1.875v2.853q0 1.295.478 2.238a3.5 3.5 0 0 0 1.375 1.455q.886.511 2.102.511.807 0 1.477-.227.67-.228 1.148-.682t.727-1.113l4.477.295a6.1 6.1 0 0 1-1.397 2.818q-1.046 1.194-2.705 1.864-1.647.659-3.807.659m11.171 6.204v-24h4.773v2.932h.215a6.4 6.4 0 0 1 .921-1.432q.613-.738 1.591-1.227.988-.5 2.454-.5 1.91 0 3.523 1 1.614.988 2.58 2.989.966 1.988.966 4.988 0 2.92-.944 4.932-.931 2-2.545 3.034-1.602 1.023-3.591 1.023-1.409 0-2.398-.466-.977-.466-1.602-1.17a6 6 0 0 1-.955-1.443h-.147v9.34zm4.738-15.272q0 1.557.432 2.716t1.25 1.806q.819.637 1.989.637 1.181 0 2-.648.817-.659 1.239-1.818.43-1.17.431-2.693 0-1.512-.42-2.659-.42-1.149-1.239-1.796-.818-.648-2.011-.648-1.182 0-2 .625-.807.625-1.239 1.773t-.432 2.705m30.035-3.75-4.432.272a2.3 2.3 0 0 0-.489-1.022 2.6 2.6 0 0 0-.989-.739q-.602-.284-1.443-.284-1.125 0-1.897.477-.774.467-.773 1.25 0 .625.5 1.057t1.716.693l3.159.637q2.545.522 3.795 1.681t1.25 3.046q0 1.716-1.011 3.011-1 1.296-2.75 2.023-1.739.716-4.011.716-3.466 0-5.523-1.443-2.046-1.455-2.398-3.955l4.761-.25q.216 1.058 1.046 1.614.83.545 2.125.545 1.272 0 2.045-.488.784-.501.796-1.284-.012-.66-.557-1.08-.546-.432-1.682-.659l-3.023-.602q-2.556-.512-3.806-1.773-1.239-1.262-1.239-3.216 0-1.681.909-2.898.921-1.215 2.58-1.875 1.67-.659 3.909-.659 3.306 0 5.204 1.398 1.909 1.398 2.228 3.807m6.275 12.772q-1.125 0-1.932-.795a2.66 2.66 0 0 1-.795-1.932q0-1.114.795-1.909a2.66 2.66 0 0 1 1.932-.795q1.091 0 1.909.795t.818 1.909q0 .75-.386 1.375-.375.614-.989.989a2.6 2.6 0 0 1-1.352.363m0-12.227q-1.125 0-1.932-.795a2.63 2.63 0 0 1-.795-1.932q0-1.114.795-1.898a2.66 2.66 0 0 1 1.932-.795q1.091 0 1.909.795.818.784.818 1.898 0 .761-.386 1.386-.375.614-.989.978a2.6 2.6 0 0 1-1.352.363m18.906 1.432V278h-2.681v-17.455h2.59v2.728h.228a5 5 0 0 1 1.863-2.137q1.25-.818 3.228-.818 1.772 0 3.102.727 1.33.717 2.068 2.182.74 1.455.739 3.682V278h-2.682v-10.909q0-2.056-1.068-3.205-1.068-1.159-2.932-1.159-1.284 0-2.296.557-1 .557-1.579 1.625-.58 1.068-.58 2.591m24.265-13.864-7.5 27.864h-2.455l7.5-27.864zm2.588 19.591v-2.318l10.227-16.182h1.682v3.591h-1.137l-7.727 12.227v.182h13.773v2.5zM312.443 278v-23.273h2.682V278zm19.168 0v-17.455h2.682V278zm1.363-20.364q-.783 0-1.352-.534a1.72 1.72 0 0 1-.557-1.284q0-.75.557-1.284.569-.534 1.352-.534.785 0 1.341.534.569.534.569 1.284t-.569 1.284a1.87 1.87 0 0 1-1.341.534m13.821 2.909v2.273h-9.045v-2.273zm-6.409-4.181h2.682V273q0 1.137.33 1.705.34.556.863.75.534.181 1.125.181.444 0 .728-.045l.454-.091.546 2.409a6 6 0 0 1-.762.205q-.488.113-1.238.113-1.137 0-2.228-.488a4.4 4.4 0 0 1-1.795-1.489q-.705-1-.705-2.523zm17.574 22q-2.523 0-4.352-1.114-1.818-1.125-2.807-3.136-.977-2.023-.977-4.705t.977-4.727q.989-2.057 2.75-3.205 1.773-1.159 4.137-1.159 1.363 0 2.693.455a6.7 6.7 0 0 1 2.42 1.477q1.09 1.011 1.739 2.682.648 1.67.648 4.113v1.137h-13.455v-2.318h10.727q0-1.478-.591-2.637a4.45 4.45 0 0 0-1.659-1.829q-1.068-.67-2.522-.671-1.603 0-2.773.796a5.2 5.2 0 0 0-1.784 2.045 6 6 0 0 0-.625 2.705v1.545q0 1.977.682 3.352.693 1.365 1.92 2.08 1.227.705 2.852.705 1.057 0 1.909-.296a4.1 4.1 0 0 0 1.489-.909q.625-.614.966-1.523l2.591.728a5.75 5.75 0 0 1-1.375 2.318q-.966.988-2.387 1.545-1.42.546-3.193.546m11.307-.364v-17.455h2.591v2.728h.227q.546-1.398 1.762-2.171 1.216-.784 2.92-.784 1.728 0 2.875.784 1.16.773 1.807 2.171h.182a5.1 5.1 0 0 1 2.011-2.148q1.341-.807 3.216-.807 2.341 0 3.83 1.466 1.488 1.455 1.488 4.534V278h-2.682v-11.682q0-1.932-1.056-2.761-1.058-.83-2.489-.83-1.84 0-2.852 1.114-1.012 1.103-1.012 2.795V278h-2.727v-11.955q0-1.488-.966-2.397-.966-.921-2.489-.921-1.045 0-1.954.557a4.2 4.2 0 0 0-1.455 1.546q-.545.977-.545 2.261V278zm40.176-13.545-2.409.681a4.5 4.5 0 0 0-.67-1.17q-.432-.58-1.182-.955t-1.921-.375q-1.602 0-2.67.739-1.057.727-1.057 1.852 0 1 .727 1.58.728.579 2.273.966l2.591.636q2.34.568 3.489 1.739 1.147 1.159 1.147 2.988 0 1.5-.863 2.682-.852 1.182-2.387 1.864-1.533.682-3.568.682-2.67 0-4.42-1.159t-2.216-3.387l2.545-.636q.364 1.409 1.375 2.113 1.023.705 2.671.705 1.875 0 2.977-.795 1.113-.807 1.114-1.932 0-.91-.637-1.523-.636-.625-1.954-.932l-2.909-.682q-2.398-.568-3.523-1.761-1.114-1.205-1.114-3.011 0-1.477.83-2.614.84-1.136 2.284-1.784 1.455-.648 3.295-.648 2.592 0 4.069 1.137 1.488 1.136 2.113 3M23.999 320.727a4.85 4.85 0 0 1-2.512-.67 5.2 5.2 0 0 1-1.818-1.818 4.85 4.85 0 0 1-.67-2.512q0-1.386.67-2.511a5.1 5.1 0 0 1 1.818-1.807 4.8 4.8 0 0 1 2.512-.682q1.386 0 2.51.682a5.04 5.04 0 0 1 1.808 1.807q.681 1.125.682 2.511 0 1.375-.682 2.512a5.14 5.14 0 0 1-1.807 1.818q-1.125.67-2.511.67M54.034 325h-5.273l8.034-23.273h6.341L71.16 325h-5.273l-5.83-17.955h-.181zm-.33-9.148H66.16v3.841H53.704zm29.24-8.307v3.637H72.17v-3.637zM74.635 325v-18.716q0-1.897.739-3.148a4.75 4.75 0 0 1 2.046-1.875q1.294-.624 2.943-.625 1.113 0 2.034.171a14 14 0 0 1 1.386.307l-.864 3.636a6 6 0 0 0-.704-.17 4.4 4.4 0 0 0-.841-.08q-1.068 0-1.489.5-.42.489-.42 1.375V325zm20.549-17.455v3.637H84.673v-3.637zm-8.125-4.181h4.84v16.272q0 .67.205 1.046.204.364.568.511.375.148.864.148.34 0 .682-.057l.523-.102.76 3.602q-.362.114-1.022.261-.66.16-1.602.194-1.75.068-3.068-.466-1.308-.534-2.034-1.659-.728-1.125-.716-2.841zm19.045 21.977q-2.693 0-4.636-1.091a7.47 7.47 0 0 1-2.977-3.114q-1.046-2.022-1.046-4.784 0-2.693 1.046-4.727 1.045-2.034 2.943-3.17 1.909-1.137 4.477-1.137 1.727 0 3.216.557 1.5.546 2.613 1.648 1.126 1.102 1.75 2.772.625 1.66.625 3.887v1.329H99.378v-3h10.182q0-1.045-.455-1.852a3.25 3.25 0 0 0-1.261-1.261q-.796-.466-1.853-.466-1.102 0-1.954.511-.841.5-1.318 1.352a3.8 3.8 0 0 0-.489 1.875v2.853q0 1.295.477 2.238a3.5 3.5 0 0 0 1.375 1.455q.886.511 2.103.511.807 0 1.477-.227a3.1 3.1 0 0 0 1.148-.682 3 3 0 0 0 .727-1.113l4.477.295a6.1 6.1 0 0 1-1.398 2.818q-1.045 1.194-2.704 1.864-1.648.659-3.807.659m11.171-.341v-17.455h4.693v3.046h.182q.477-1.625 1.602-2.455 1.125-.84 2.591-.841.364 0 .784.046.42.045.738.125v4.295a6.3 6.3 0 0 0-.943-.181 8.5 8.5 0 0 0-1.102-.08q-1.068 0-1.909.466a3.43 3.43 0 0 0-1.318 1.273q-.477.818-.478 1.886V325zm29.056.318q-2.545 0-4.534-.875-1.977-.886-3.125-2.432-1.135-1.556-1.17-3.591h4.954q.046.853.557 1.5.523.637 1.387.989.863.352 1.943.352 1.125 0 1.988-.397.864-.399 1.353-1.103.488-.704.488-1.625 0-.931-.522-1.647-.512-.728-1.478-1.137-.954-.409-2.272-.409h-2.171v-3.613h2.171q1.113 0 1.965-.387.864-.385 1.341-1.068.478-.693.478-1.614 0-.874-.421-1.534a2.8 2.8 0 0 0-1.159-1.045q-.738-.375-1.727-.375-1 0-1.83.363a3.2 3.2 0 0 0-1.329 1.012 2.65 2.65 0 0 0-.534 1.545h-4.716q.034-2.011 1.147-3.545 1.114-1.534 3-2.398 1.899-.875 4.285-.875 2.409 0 4.215.875 1.808.875 2.807 2.364 1.012 1.478 1 3.318.012 1.954-1.216 3.261-1.215 1.307-3.17 1.659v.182q2.568.33 3.909 1.784 1.353 1.443 1.341 3.614.012 1.989-1.148 3.534-1.148 1.545-3.17 2.432-2.023.886-4.637.886m34.466-12.795-4.432.272a2.3 2.3 0 0 0-.488-1.022 2.6 2.6 0 0 0-.989-.739q-.602-.284-1.443-.284-1.125 0-1.898.477-.772.467-.772 1.25 0 .625.5 1.057t1.715.693l3.16.637q2.546.522 3.795 1.681t1.25 3.046q0 1.716-1.011 3.011-1 1.296-2.75 2.023-1.739.716-4.012.716-3.465 0-5.522-1.443-2.046-1.455-2.398-3.955l4.761-.25q.216 1.058 1.046 1.614.83.545 2.125.545 1.272 0 2.045-.488.784-.501.796-1.284-.012-.66-.557-1.08-.546-.432-1.682-.659l-3.023-.602q-2.556-.512-3.807-1.773-1.238-1.262-1.238-3.216 0-1.681.909-2.898.92-1.215 2.579-1.875 1.671-.659 3.909-.659 3.308 0 5.205 1.398 1.91 1.398 2.227 3.807m12.73-4.978v3.637h-10.511v-3.637zm-8.125-4.181h4.841v16.272q0 .67.205 1.046.204.364.568.511.375.148.864.148.34 0 .681-.057l.523-.102.762 3.602q-.364.114-1.023.261-.66.16-1.602.194-1.75.068-3.069-.466-1.307-.534-2.034-1.659t-.716-2.841zm19.046 21.977q-2.693 0-4.637-1.091a7.5 7.5 0 0 1-2.977-3.114q-1.045-2.022-1.045-4.784 0-2.693 1.045-4.727t2.943-3.17q1.91-1.137 4.478-1.137 1.727 0 3.216.557 1.5.546 2.613 1.648 1.125 1.102 1.75 2.772.625 1.66.625 3.887v1.329h-14.738v-3h10.181q0-1.045-.454-1.852a3.26 3.26 0 0 0-1.261-1.261q-.796-.466-1.853-.466-1.102 0-1.954.511-.841.5-1.319 1.352a3.8 3.8 0 0 0-.488 1.875v2.853q0 1.295.477 2.238a3.5 3.5 0 0 0 1.375 1.455q.887.511 2.102.511.807 0 1.478-.227a3.1 3.1 0 0 0 1.147-.682 2.96 2.96 0 0 0 .728-1.113l4.477.295a6.1 6.1 0 0 1-1.398 2.818q-1.045 1.194-2.704 1.864-1.648.659-3.807.659m11.17 6.204v-24h4.773v2.932h.216q.318-.704.92-1.432.615-.738 1.591-1.227.989-.5 2.455-.5 1.91 0 3.523 1 1.613.988 2.579 2.989.966 1.988.966 4.988 0 2.92-.943 4.932-.932 2-2.546 3.034-1.602 1.023-3.591 1.023-1.409 0-2.397-.466-.978-.466-1.603-1.17a6 6 0 0 1-.954-1.443h-.148v9.34zm4.739-15.272q0 1.557.432 2.716t1.25 1.806q.818.637 1.988.637 1.182 0 2-.648.819-.659 1.239-1.818.432-1.17.432-2.693 0-1.512-.421-2.659-.42-1.149-1.238-1.796-.819-.648-2.012-.648-1.18 0-2 .625-.806.625-1.238 1.773t-.432 2.705m30.034-3.75-4.432.272a2.3 2.3 0 0 0-.488-1.022 2.6 2.6 0 0 0-.989-.739q-.603-.284-1.443-.284-1.125 0-1.898.477-.773.467-.773 1.25 0 .625.5 1.057.501.432 1.716.693l3.159.637q2.545.522 3.796 1.681t1.25 3.046q0 1.716-1.012 3.011-1 1.296-2.75 2.023-1.739.716-4.011.716-3.466 0-5.523-1.443-2.045-1.455-2.397-3.955l4.761-.25q.216 1.058 1.045 1.614.83.545 2.125.545 1.274 0 2.046-.488.784-.501.795-1.284-.01-.66-.557-1.08-.545-.432-1.681-.659l-3.023-.602q-2.558-.512-3.807-1.773-1.239-1.262-1.239-3.216 0-1.681.91-2.898.92-1.215 2.579-1.875 1.671-.659 3.909-.659 3.308 0 5.205 1.398 1.91 1.398 2.227 3.807m6.276 12.772q-1.125 0-1.932-.795a2.65 2.65 0 0 1-.796-1.932q0-1.114.796-1.909a2.66 2.66 0 0 1 1.932-.795q1.09 0 1.909.795.818.795.818 1.909 0 .75-.386 1.375-.375.614-.989.989-.614.363-1.352.363m0-12.227q-1.125 0-1.932-.795a2.63 2.63 0 0 1-.796-1.932q0-1.114.796-1.898a2.66 2.66 0 0 1 1.932-.795q1.09 0 1.909.795.818.784.818 1.898 0 .761-.386 1.386-.375.614-.989.978-.614.363-1.352.363m18.906 1.432V325h-2.682v-17.455h2.591v2.728h.227a5 5 0 0 1 1.864-2.137q1.25-.818 3.227-.818 1.773 0 3.102.727 1.33.717 2.069 2.182.738 1.455.738 3.682V325h-2.682v-10.909q0-2.056-1.068-3.205-1.068-1.159-2.932-1.159-1.284 0-2.295.557-1 .557-1.58 1.625-.579 1.068-.579 2.591m24.264-13.864-7.5 27.864h-2.454l7.5-27.864zm10.588 24.682q-2.34 0-4.136-.829-1.785-.841-2.784-2.307-1-1.477-.989-3.364a6.2 6.2 0 0 1 .58-2.727 5.9 5.9 0 0 1 1.613-2.102 4.95 4.95 0 0 1 2.307-1.08v-.136q-1.67-.432-2.659-1.875-.989-1.455-.977-3.307-.012-1.773.897-3.171.91-1.397 2.5-2.204 1.604-.807 3.648-.807 2.023 0 3.614.807t2.5 2.204q.92 1.398.932 3.171-.012 1.852-1.012 3.307-.988 1.443-2.625 1.875v.136a4.8 4.8 0 0 1 2.273 1.08 6.1 6.1 0 0 1 1.614 2.102 6.3 6.3 0 0 1 .613 2.727q-.01 1.887-1.023 3.364-.999 1.465-2.784 2.307-1.772.83-4.102.829m0-2.5q1.58 0 2.727-.511 1.148-.512 1.773-1.443.625-.933.636-2.182-.01-1.318-.681-2.33-.67-1.01-1.83-1.591-1.147-.579-2.625-.579-1.489 0-2.659.579-1.16.58-1.829 1.591-.66 1.012-.648 2.33-.012 1.25.602 2.182.625.931 1.784 1.443 1.16.511 2.75.511m0-11.045q1.25 0 2.216-.5a3.8 3.8 0 0 0 1.534-1.398q.557-.897.568-2.102-.011-1.182-.556-2.057a3.6 3.6 0 0 0-1.512-1.364q-.966-.488-2.25-.488-1.306 0-2.284.488a3.53 3.53 0 0 0-1.511 1.364q-.534.875-.523 2.057-.012 1.205.534 2.102a3.8 3.8 0 0 0 1.534 1.398q.978.5 2.25.5M331.736 325v-17.455h2.682V325zm1.363-20.364q-.783 0-1.352-.534a1.72 1.72 0 0 1-.557-1.284q0-.75.557-1.284.569-.534 1.352-.534.785 0 1.341.534.569.534.569 1.284t-.569 1.284a1.87 1.87 0 0 1-1.341.534m13.821 2.909v2.273h-9.045v-2.273zm-6.409-4.181h2.682V320q0 1.137.33 1.705.34.556.863.75.534.181 1.125.181.444 0 .728-.045l.454-.091.546 2.409a6 6 0 0 1-.762.205q-.488.113-1.238.113-1.137 0-2.228-.488a4.4 4.4 0 0 1-1.795-1.489q-.705-1-.705-2.523zm17.574 22q-2.523 0-4.352-1.114-1.818-1.125-2.807-3.136-.977-2.023-.977-4.705t.977-4.727q.989-2.057 2.75-3.205 1.773-1.159 4.136-1.159 1.364 0 2.694.455a6.7 6.7 0 0 1 2.42 1.477q1.09 1.011 1.739 2.682.648 1.67.647 4.113v1.137h-13.454v-2.318h10.727q0-1.478-.591-2.637a4.45 4.45 0 0 0-1.659-1.829q-1.068-.67-2.523-.671-1.602 0-2.772.796a5.2 5.2 0 0 0-1.784 2.045 6 6 0 0 0-.625 2.705v1.545q0 1.977.681 3.352.694 1.365 1.921 2.08 1.227.705 2.852.705 1.057 0 1.909-.296a4.1 4.1 0 0 0 1.489-.909q.625-.614.966-1.523l2.591.728a5.75 5.75 0 0 1-1.375 2.318q-.966.988-2.387 1.545-1.42.546-3.193.546m11.307-.364v-17.455h2.591v2.728h.227q.546-1.398 1.762-2.171 1.216-.784 2.92-.784 1.728 0 2.875.784 1.16.773 1.807 2.171h.182a5.1 5.1 0 0 1 2.011-2.148q1.341-.807 3.216-.807 2.341 0 3.829 1.466 1.49 1.455 1.489 4.534V325h-2.682v-11.682q0-1.932-1.057-2.761t-2.488-.83q-1.84 0-2.852 1.114-1.012 1.103-1.012 2.795V325h-2.727v-11.955q0-1.488-.966-2.397-.966-.921-2.489-.921-1.045 0-1.954.557a4.2 4.2 0 0 0-1.455 1.546q-.545.977-.545 2.261V325zm40.176-13.545-2.409.681a4.5 4.5 0 0 0-.67-1.17q-.432-.58-1.182-.955t-1.921-.375q-1.602 0-2.67.739-1.057.727-1.057 1.852 0 1 .727 1.58.728.579 2.273.966l2.591.636q2.34.568 3.489 1.739 1.147 1.159 1.147 2.988 0 1.5-.863 2.682-.852 1.182-2.387 1.864-1.533.682-3.568.682-2.67 0-4.42-1.159t-2.216-3.387l2.545-.636q.364 1.409 1.375 2.113 1.023.705 2.671.705 1.875 0 2.977-.795 1.113-.807 1.114-1.932 0-.91-.637-1.523-.636-.625-1.954-.932l-2.909-.682q-2.398-.568-3.523-1.761-1.114-1.205-1.114-3.011 0-1.477.83-2.614.84-1.136 2.284-1.784 1.455-.648 3.295-.648 2.592 0 4.069 1.137 1.488 1.136 2.113 3M3.773 419H.818l8.546-23.273h2.909L20.818 419h-2.954l-6.955-19.591h-.182zm1.09-9.091h11.91v2.5H4.863zm26.99-8.364v2.273h-9.41v-2.273zM25.26 419v-19.864q0-1.5.705-2.5a4.4 4.4 0 0 1 1.83-1.5q1.124-.5 2.375-.5.988 0 1.613.159.625.16.932.296l-.773 2.318a14 14 0 0 0-.568-.17q-.353-.103-.932-.103-1.329 0-1.92.671-.58.67-.58 1.966V419zm17.94-17.455v2.273h-9.045v-2.273zm-6.408-4.181h2.681V414q0 1.137.33 1.705.34.556.864.75.533.181 1.125.181.443 0 .727-.045l.454-.091.546 2.409a6 6 0 0 1-.762.205q-.488.113-1.238.113a5.4 5.4 0 0 1-2.227-.488 4.4 4.4 0 0 1-1.796-1.489q-.704-1-.704-2.523zm17.574 22q-2.523 0-4.353-1.114-1.818-1.125-2.807-3.136-.977-2.023-.977-4.705t.977-4.727q.99-2.057 2.75-3.205 1.773-1.159 4.137-1.159 1.364 0 2.693.455a6.7 6.7 0 0 1 2.42 1.477q1.092 1.011 1.739 2.682.648 1.67.648 4.113v1.137H48.139v-2.318h10.728q0-1.478-.591-2.637a4.46 4.46 0 0 0-1.66-1.829q-1.068-.67-2.522-.671-1.602 0-2.773.796a5.2 5.2 0 0 0-1.784 2.045 6 6 0 0 0-.625 2.705v1.545q0 1.977.682 3.352.693 1.365 1.92 2.08 1.228.705 2.852.705 1.057 0 1.91-.296a4.1 4.1 0 0 0 1.488-.909q.626-.614.966-1.523l2.591.728a5.75 5.75 0 0 1-1.375 2.318q-.966.988-2.386 1.545-1.421.546-3.193.546M65.673 419v-17.455h2.591v2.637h.182q.477-1.296 1.727-2.102 1.25-.807 2.819-.807.295 0 .738.011.445.012.67.034v2.727q-.136-.033-.624-.102a6 6 0 0 0-1.012-.079q-1.272 0-2.272.534a4 4 0 0 0-1.569 1.454q-.568.921-.568 2.103V419zm24.77-5.023.011-5.807h.705l5.591-6.625h5.557l-7.511 8.773h-1.148zM86.057 419v-23.273h4.84V419zm10.909 0-5.136-7.602 3.227-3.421L102.636 419zm28.008-13.545-2.409.681a4.5 4.5 0 0 0-.67-1.17q-.432-.58-1.182-.955t-1.92-.375q-1.603 0-2.671.739-1.056.727-1.057 1.852 0 1 .728 1.58.727.579 2.272.966l2.591.636q2.342.568 3.489 1.739 1.148 1.159 1.148 2.988 0 1.5-.864 2.682-.852 1.182-2.386 1.864t-3.569.682q-2.67 0-4.42-1.159t-2.216-3.387l2.546-.636q.363 1.409 1.375 2.113 1.021.705 2.67.705 1.875 0 2.977-.795 1.114-.807 1.114-1.932 0-.91-.636-1.523-.637-.625-1.955-.932l-2.909-.682q-2.398-.568-3.523-1.761-1.113-1.205-1.113-3.011 0-1.477.829-2.614.841-1.136 2.284-1.784 1.454-.648 3.296-.648 2.59 0 4.068 1.137 1.489 1.136 2.113 3m11.946-3.91v2.273h-9.045v-2.273zm-6.409-4.181h2.682V414q0 1.137.33 1.705.34.556.863.75.534.181 1.125.181.444 0 .728-.045l.454-.091.546 2.409a6 6 0 0 1-.762.205q-.488.113-1.238.113-1.137 0-2.228-.488a4.4 4.4 0 0 1-1.795-1.489q-.705-1-.705-2.523zm17.574 22q-2.523 0-4.352-1.114-1.818-1.125-2.807-3.136-.977-2.023-.977-4.705t.977-4.727q.989-2.057 2.75-3.205 1.773-1.159 4.136-1.159 1.364 0 2.694.455a6.7 6.7 0 0 1 2.42 1.477q1.09 1.011 1.739 2.682.647 1.67.647 4.113v1.137h-13.454v-2.318h10.727q0-1.478-.591-2.637a4.45 4.45 0 0 0-1.659-1.829q-1.068-.67-2.523-.671-1.602 0-2.772.796a5.2 5.2 0 0 0-1.784 2.045 6 6 0 0 0-.625 2.705v1.545q0 1.977.681 3.352.694 1.365 1.921 2.08 1.227.705 2.852.705 1.057 0 1.909-.296a4.1 4.1 0 0 0 1.489-.909q.626-.614.966-1.523l2.591.728a5.75 5.75 0 0 1-1.375 2.318q-.966.988-2.387 1.545-1.42.546-3.193.546m11.307 6.181v-24h2.591v2.773h.318q.296-.454.818-1.159.534-.715 1.523-1.273 1-.567 2.705-.568 2.204 0 3.886 1.102t2.625 3.125.943 4.773q0 2.773-.943 4.807-.943 2.023-2.614 3.136-1.67 1.103-3.852 1.103-1.682 0-2.693-.557-1.011-.568-1.557-1.284a17 17 0 0 1-.841-1.205h-.227v9.227zm2.636-15.272q0 1.977.58 3.488.58 1.5 1.693 2.353 1.114.84 2.727.841 1.683 0 2.807-.887 1.137-.897 1.705-2.409.579-1.523.579-3.386 0-1.842-.568-3.318-.556-1.49-1.693-2.353-1.125-.875-2.83-.875-1.635 0-2.75.83-1.113.817-1.681 2.295-.569 1.467-.569 3.421m29.228-4.818-2.409.681a4.5 4.5 0 0 0-.671-1.17q-.432-.58-1.182-.955t-1.92-.375q-1.602 0-2.671.739-1.056.727-1.056 1.852 0 1 .727 1.58.727.579 2.273.966l2.591.636q2.34.568 3.488 1.739 1.148 1.159 1.148 2.988 0 1.5-.864 2.682-.852 1.182-2.386 1.864t-3.568.682q-2.671 0-4.421-1.159t-2.216-3.387l2.546-.636q.364 1.409 1.375 2.113 1.023.705 2.67.705 1.875 0 2.978-.795 1.113-.807 1.113-1.932 0-.91-.636-1.523-.636-.625-1.955-.932l-2.909-.682q-2.398-.568-3.523-1.761-1.113-1.205-1.113-3.011 0-1.477.829-2.614.841-1.136 2.284-1.784 1.455-.648 3.296-.648 2.59 0 4.068 1.137 1.488 1.136 2.114 3m8.355 10.363-.182 1.227a25 25 0 0 1-.591 2.773 52 52 0 0 1-.807 2.784q-.42 1.307-.693 2.08h-2.045l.386-1.921q.239-1.192.477-2.67.25-1.465.409-3l.137-1.273zM213.58 419v-17.455h2.681V419zm1.363-20.364q-.784 0-1.352-.534a1.72 1.72 0 0 1-.557-1.284q0-.75.557-1.284a1.9 1.9 0 0 1 1.352-.534q.785 0 1.341.534.568.534.568 1.284t-.568 1.284a1.87 1.87 0 0 1-1.341.534m13.821 2.909v2.273h-9.045v-2.273zm-6.409-4.181h2.682V414q0 1.137.329 1.705.342.556.864.75.534.181 1.125.181.444 0 .727-.045l.455-.091.545 2.409a5.5 5.5 0 0 1-.761.205q-.489.113-1.239.113-1.136 0-2.227-.488a4.4 4.4 0 0 1-1.795-1.489q-.705-1-.705-2.523zm17.574 22q-2.523 0-4.352-1.114-1.818-1.125-2.807-3.136-.977-2.023-.977-4.705t.977-4.727q.989-2.057 2.75-3.205 1.773-1.159 4.136-1.159 1.364 0 2.693.455a6.7 6.7 0 0 1 2.421 1.477q1.09 1.011 1.739 2.682.647 1.67.647 4.113v1.137h-13.454v-2.318h10.727q0-1.478-.591-2.637a4.45 4.45 0 0 0-1.659-1.829q-1.068-.67-2.523-.671-1.602 0-2.772.796a5.2 5.2 0 0 0-1.785 2.045 6 6 0 0 0-.625 2.705v1.545q0 1.977.682 3.352.694 1.365 1.921 2.08 1.227.705 2.852.705 1.057 0 1.909-.296a4.1 4.1 0 0 0 1.489-.909 4.15 4.15 0 0 0 .966-1.523l2.591.728a5.8 5.8 0 0 1-1.375 2.318q-.966.988-2.387 1.545-1.42.546-3.193.546m11.307-.364v-17.455h2.591v2.728h.227q.546-1.398 1.761-2.171 1.216-.784 2.921-.784 1.727 0 2.875.784 1.16.773 1.807 2.171h.181a5.1 5.1 0 0 1 2.012-2.148q1.341-.807 3.216-.807 2.34 0 3.829 1.466 1.49 1.455 1.489 4.534V419h-2.682v-11.682q0-1.932-1.057-2.761t-2.488-.83q-1.841 0-2.853 1.114-1.011 1.103-1.011 2.795V419h-2.727v-11.955q0-1.488-.966-2.397-.966-.921-2.489-.921-1.045 0-1.954.557a4.2 4.2 0 0 0-1.455 1.546q-.545.977-.545 2.261V419zm40.176-13.545-2.409.681a4.5 4.5 0 0 0-.671-1.17q-.43-.58-1.181-.955-.75-.375-1.921-.375-1.602 0-2.67.739-1.057.727-1.057 1.852 0 1 .727 1.58.728.579 2.273.966l2.591.636q2.34.568 3.488 1.739 1.149 1.159 1.148 2.988 0 1.5-.864 2.682-.852 1.182-2.386 1.864t-3.568.682q-2.67 0-4.421-1.159-1.75-1.16-2.215-3.387l2.545-.636q.364 1.409 1.375 2.113 1.023.705 2.67.705 1.875 0 2.978-.795 1.113-.807 1.113-1.932 0-.91-.636-1.523-.636-.625-1.955-.932l-2.909-.682q-2.397-.568-3.522-1.761-1.114-1.205-1.114-3.011 0-1.477.83-2.614.84-1.136 2.284-1.784 1.454-.648 3.295-.648 2.59 0 4.068 1.137 1.489 1.136 2.114 3m18.491 13.954q-1.659 0-3.011-.625a5.2 5.2 0 0 1-2.148-1.829q-.795-1.204-.795-2.91 0-1.5.591-2.431a4.17 4.17 0 0 1 1.579-1.478 8.3 8.3 0 0 1 2.182-.795q1.204-.273 2.421-.432 1.59-.204 2.579-.307 1-.113 1.455-.375.466-.261.466-.909v-.091q0-1.682-.921-2.613-.909-.933-2.761-.932-1.92 0-3.012.841-1.09.84-1.534 1.795l-2.545-.909q.681-1.591 1.818-2.477a6.8 6.8 0 0 1 2.5-1.25 10.4 10.4 0 0 1 2.682-.364q.84 0 1.932.205a6.2 6.2 0 0 1 2.125.807q1.034.613 1.716 1.852t.681 3.318V419h-2.681v-2.364h-.137q-.273.568-.909 1.216t-1.693 1.103q-1.057.454-2.58.454m.409-2.409q1.591 0 2.682-.625 1.103-.625 1.659-1.614a4.1 4.1 0 0 0 .569-2.079v-2.455q-.171.205-.75.375-.569.16-1.319.284-.738.114-1.443.205-.693.08-1.125.136-1.045.137-1.954.443-.899.296-1.455.898-.545.591-.545 1.614 0 1.398 1.034 2.113 1.045.705 2.647.705m12.486 2v-17.455h2.591v2.637h.182q.477-1.296 1.727-2.102 1.25-.807 2.818-.807.296 0 .739.011.443.012.671.034v2.727a9 9 0 0 0-.625-.102 6 6 0 0 0-1.012-.079q-1.272 0-2.273.534a4.03 4.03 0 0 0-1.568 1.454q-.567.921-.568 2.103V419zm18.693.364q-2.522 0-4.352-1.114-1.818-1.125-2.807-3.136-.977-2.023-.977-4.705t.977-4.727q.989-2.057 2.75-3.205 1.773-1.159 4.137-1.159 1.364 0 2.693.455a6.7 6.7 0 0 1 2.42 1.477q1.091 1.011 1.739 2.682.648 1.67.648 4.113v1.137h-13.455v-2.318h10.727q0-1.478-.59-2.637a4.46 4.46 0 0 0-1.66-1.829q-1.068-.67-2.522-.671-1.603 0-2.773.796a5.2 5.2 0 0 0-1.784 2.045 6 6 0 0 0-.625 2.705v1.545q0 1.977.682 3.352.693 1.365 1.92 2.08 1.227.705 2.852.705 1.057 0 1.91-.296a4.1 4.1 0 0 0 1.488-.909q.625-.614.966-1.523l2.591.728a5.75 5.75 0 0 1-1.375 2.318q-.966.988-2.386 1.545-1.42.546-3.194.546m26.898 0q-2.181 0-3.852-1.103-1.67-1.113-2.614-3.136-.942-2.034-.943-4.807 0-2.75.943-4.773t2.625-3.125q1.683-1.101 3.887-1.102 1.704 0 2.693.568 1 .558 1.523 1.273.534.705.829 1.159h.227v-8.591h2.682V419h-2.591v-2.682h-.318q-.295.477-.841 1.205-.545.716-1.557 1.284-1.011.557-2.693.557m.364-2.409q1.614 0 2.727-.841 1.114-.853 1.693-2.353.58-1.51.58-3.488 0-1.954-.568-3.421-.569-1.477-1.682-2.295-1.114-.83-2.75-.83-1.705 0-2.841.875-1.125.864-1.693 2.353-.557 1.476-.557 3.318 0 1.863.568 3.386.58 1.512 1.705 2.409 1.136.887 2.818.887m20.011 2.409q-2.364 0-4.148-1.125-1.772-1.125-2.772-3.148-.989-2.023-.989-4.727 0-2.728.989-4.762 1-2.034 2.772-3.159 1.784-1.125 4.148-1.125t4.137 1.125q1.783 1.125 2.772 3.159 1 2.034 1 4.762 0 2.704-1 4.727-.989 2.023-2.772 3.148-1.773 1.125-4.137 1.125m0-2.409q1.796 0 2.955-.921 1.158-.92 1.716-2.42.556-1.5.556-3.25t-.556-3.262q-.558-1.511-1.716-2.443-1.16-.932-2.955-.932t-2.954.932-1.716 2.443q-.557 1.512-.557 3.262t.557 3.25q.556 1.5 1.716 2.42 1.158.921 2.954.921M404.128 419l-5.318-17.455h2.818l3.773 13.364h.181l3.728-13.364h2.863l3.682 13.319h.182l3.773-13.319h2.818L417.31 419h-2.637l-3.818-13.409h-.273L406.764 419zm24.727-10.5V419h-2.682v-17.455h2.591v2.728h.227a5 5 0 0 1 1.864-2.137q1.25-.818 3.227-.818 1.773 0 3.103.727 1.329.717 2.068 2.182.738 1.455.738 3.682V419h-2.681v-10.909q0-2.056-1.069-3.205-1.068-1.159-2.931-1.159-1.285 0-2.296.557-1 .557-1.579 1.625-.58 1.068-.58 2.591m32.628-6.955v2.273h-9.045v-2.273zm-6.409-4.181h2.682V414q0 1.137.329 1.705.341.556.864.75.534.181 1.125.181.443 0 .727-.045l.455-.091.545 2.409a6 6 0 0 1-.761.205q-.489.113-1.239.113-1.136 0-2.227-.488a4.43 4.43 0 0 1-1.796-1.489q-.704-1-.704-2.523zm17.346 22q-2.363 0-4.147-1.125-1.773-1.125-2.773-3.148-.989-2.023-.989-4.727 0-2.728.989-4.762 1-2.034 2.773-3.159 1.784-1.125 4.147-1.125t4.137 1.125q1.783 1.125 2.773 3.159 1 2.034 1 4.762 0 2.704-1 4.727-.99 2.023-2.773 3.148-1.773 1.125-4.137 1.125m0-2.409q1.796 0 2.955-.921 1.16-.92 1.716-2.42.557-1.5.557-3.25t-.557-3.262-1.716-2.443q-1.16-.932-2.955-.932t-2.954.932-1.716 2.443q-.557 1.512-.557 3.262t.557 3.25q.556 1.5 1.716 2.42 1.159.921 2.954.921M48.642 39V9.91h11.647q3.21 0 5.355.95 2.145.952 3.225 2.643 1.08 1.676 1.08 3.863 0 1.705-.682 2.998a5.9 5.9 0 0 1-1.875 2.102q-1.179.81-2.7 1.15v.285a6.5 6.5 0 0 1 3.112.937q1.463.867 2.372 2.429.909 1.548.909 3.693 0 2.316-1.15 4.134-1.137 1.803-3.367 2.855-2.231 1.05-5.497 1.051zm6.15-5.028h5.014q2.573 0 3.75-.98 1.18-.994 1.18-2.643 0-1.207-.583-2.13-.582-.924-1.662-1.45-1.065-.525-2.542-.525h-5.157zm0-11.89h4.56q1.264 0 2.244-.44.994-.455 1.563-1.278.582-.825.582-1.975 0-1.576-1.122-2.542-1.108-.966-3.153-.966h-4.674zM74.973 39V17.182h6.052V39zm3.04-24.63q-1.35 0-2.315-.896-.952-.909-.952-2.173 0-1.25.952-2.145.966-.909 2.315-.909 1.35 0 2.301.91.966.893.966 2.144 0 1.264-.966 2.173-.951.895-2.3.895m13.91 12.016V39h-6.051V17.182h5.767v3.85h.255a6.1 6.1 0 0 1 2.43-3.012q1.704-1.122 4.133-1.122 2.273 0 3.963.994t2.628 2.841q.937 1.832.937 4.375V39h-6.05V26.188q.013-2.003-1.023-3.125-1.037-1.137-2.856-1.137-1.221 0-2.159.526-.922.525-1.449 1.534-.51.995-.525 2.4m25.053 13.026q-2.088 0-3.721-.724-1.633-.739-2.586-2.174-.937-1.449-.937-3.608 0-1.818.668-3.054a5.4 5.4 0 0 1 1.818-1.988 8.8 8.8 0 0 1 2.613-1.137 20 20 0 0 1 3.097-.54 78 78 0 0 0 3.068-.369q1.165-.184 1.69-.54.526-.355.526-1.05v-.086q0-1.35-.852-2.088-.838-.739-2.387-.739-1.633 0-2.599.725-.966.71-1.278 1.79l-5.597-.455q.426-1.99 1.676-3.437 1.25-1.464 3.225-2.245 1.987-.795 4.602-.795 1.818 0 3.48.426 1.676.426 2.969 1.32a6.4 6.4 0 0 1 2.059 2.302q.753 1.392.753 3.338V39h-5.738v-3.026h-.171a6.2 6.2 0 0 1-1.406 1.804q-.88.767-2.117 1.208-1.236.426-2.855.426m1.733-4.176q1.335 0 2.358-.526a4.2 4.2 0 0 0 1.605-1.449q.583-.909.583-2.06v-2.315q-.285.185-.782.341-.483.142-1.093.27-.612.114-1.222.213l-1.108.156q-1.065.157-1.861.498-.795.34-1.236.923-.44.568-.44 1.42 0 1.236.895 1.89.909.639 2.301.639M133.958 39V17.182h5.866v3.807h.227q.597-2.032 2.003-3.068 1.406-1.052 3.239-1.052.455 0 .98.057t.923.156v5.37a8 8 0 0 0-1.179-.228q-.752-.099-1.377-.099-1.336 0-2.387.582-1.036.57-1.648 1.591-.596 1.023-.596 2.358V39zm20.767 8.182q-1.15 0-2.159-.185-.994-.17-1.648-.44l1.364-4.517q1.065.327 1.917.355.867.028 1.492-.398.638-.426 1.037-1.449l.355-.923-7.827-22.443h6.364l4.517 16.023h.227l4.56-16.023h6.406l-8.48 24.176q-.61 1.761-1.662 3.068a6.8 6.8 0 0 1-2.628 2.031q-1.591.725-3.835.725m44.854-28.906q-.17-1.719-1.463-2.67-1.293-.953-3.508-.953-1.506 0-2.543.426-1.037.413-1.591 1.151a2.77 2.77 0 0 0-.54 1.676q-.028.782.327 1.364a3.4 3.4 0 0 0 1.009 1.008q.639.413 1.477.725.838.299 1.79.511l2.613.625a18.5 18.5 0 0 1 3.495 1.137q1.59.71 2.755 1.747a7.25 7.25 0 0 1 1.804 2.443q.654 1.406.668 3.224-.014 2.67-1.364 4.631-1.335 1.946-3.863 3.026-2.515 1.065-6.066 1.065-3.522 0-6.136-1.08-2.6-1.08-4.063-3.196-1.449-2.13-1.52-5.27h5.952q.1 1.463.838 2.444.753.965 2.003 1.463 1.265.483 2.855.483 1.563 0 2.713-.455 1.165-.454 1.804-1.264a2.92 2.92 0 0 0 .639-1.86q0-.98-.582-1.649-.568-.667-1.676-1.136-1.094-.468-2.685-.852l-3.167-.796q-3.68-.894-5.81-2.798t-2.117-5.128q-.013-2.642 1.407-4.616 1.434-1.975 3.934-3.083 2.5-1.107 5.682-1.108 3.239 0 5.654 1.108 2.428 1.108 3.778 3.083 1.35 1.973 1.392 4.574zm20.259 21.15q-3.366 0-5.795-1.364-2.415-1.377-3.722-3.892-1.306-2.528-1.306-5.98 0-3.366 1.306-5.909 1.308-2.542 3.679-3.963 2.387-1.42 5.597-1.42 2.158 0 4.02.696a8.9 8.9 0 0 1 3.267 2.06q1.406 1.377 2.187 3.465.782 2.074.782 4.858v1.662h-18.424v-3.75h12.728q0-1.307-.569-2.315a4.06 4.06 0 0 0-1.576-1.577q-.995-.582-2.316-.582-1.378 0-2.443.639-1.051.625-1.648 1.69a4.8 4.8 0 0 0-.61 2.344v3.565q0 1.62.596 2.799.61 1.179 1.719 1.818 1.109.64 2.628.64 1.008 0 1.846-.285a3.8 3.8 0 0 0 1.435-.852q.597-.57.909-1.392l5.597.369a7.65 7.65 0 0 1-1.747 3.523q-1.307 1.49-3.381 2.33-2.06.823-4.759.823m20.185-.014q-2.088 0-3.722-.724-1.633-.739-2.585-2.174-.937-1.449-.937-3.608 0-1.818.667-3.054a5.4 5.4 0 0 1 1.819-1.988 8.8 8.8 0 0 1 2.613-1.137 20 20 0 0 1 3.097-.54 79 79 0 0 0 3.068-.369q1.165-.184 1.69-.54.526-.355.526-1.05v-.086q0-1.35-.852-2.088-.839-.739-2.387-.739-1.633 0-2.599.725-.966.71-1.279 1.79l-5.596-.455q.426-1.99 1.676-3.437 1.25-1.464 3.224-2.245 1.989-.795 4.603-.795 1.818 0 3.48.426 1.676.426 2.969 1.32a6.4 6.4 0 0 1 2.059 2.302q.753 1.392.753 3.338V39h-5.739v-3.026h-.17a6.2 6.2 0 0 1-1.406 1.804q-.88.767-2.117 1.208-1.236.426-2.855.426m1.733-4.176q1.335 0 2.358-.526a4.2 4.2 0 0 0 1.605-1.449q.582-.909.582-2.06v-2.315a3.2 3.2 0 0 1-.781.341q-.483.142-1.094.27a55 55 0 0 1-1.221.213l-1.108.156q-1.065.157-1.861.498-.795.34-1.236.923-.44.568-.44 1.42 0 1.236.895 1.89.909.639 2.301.639M257.005 39V17.182h5.866v3.807h.227q.597-2.032 2.003-3.068 1.407-1.052 3.239-1.052.455 0 .98.057t.923.156v5.37a8 8 0 0 0-1.179-.228q-.753-.099-1.378-.099-1.335 0-2.386.582-1.036.57-1.648 1.591-.596 1.023-.596 2.358V39zm25.209.426q-3.352 0-5.767-1.42-2.4-1.435-3.693-3.978-1.279-2.542-1.279-5.852 0-3.353 1.293-5.88 1.307-2.544 3.707-3.964 2.401-1.434 5.711-1.434 2.855 0 5 1.037t3.395 2.912 1.377 4.403h-5.71q-.242-1.633-1.278-2.628-1.023-1.008-2.685-1.008-1.405 0-2.457.767-1.037.752-1.62 2.201-.582 1.45-.582 3.509 0 2.088.568 3.551.583 1.463 1.634 2.23 1.052.767 2.457.767 1.037 0 1.861-.426a3.6 3.6 0 0 0 1.378-1.236q.554-.823.724-1.974h5.71q-.142 2.5-1.363 4.403-1.208 1.89-3.338 2.955t-5.043 1.065m19.67-13.04V39h-6.051V9.91h5.88V21.03h.256q.74-1.932 2.386-3.025 1.649-1.108 4.134-1.108 2.272 0 3.963.994 1.704.98 2.642 2.827.952 1.832.938 4.389V39h-6.052V26.188q.015-2.018-1.022-3.14-1.023-1.122-2.87-1.122-1.235 0-2.187.526a3.7 3.7 0 0 0-1.477 1.534q-.527.995-.54 2.4m44.062-8.11q-.17-1.719-1.463-2.67-1.292-.953-3.508-.953-1.506 0-2.543.426-1.036.413-1.591 1.151a2.77 2.77 0 0 0-.54 1.676q-.028.782.327 1.364.37.582 1.009 1.008.639.413 1.477.725.838.299 1.79.511l2.613.625a18.5 18.5 0 0 1 3.495 1.137q1.59.71 2.755 1.747a7.25 7.25 0 0 1 1.804 2.443q.654 1.406.668 3.224-.014 2.67-1.364 4.631-1.335 1.946-3.863 3.026-2.514 1.065-6.066 1.065-3.523 0-6.136-1.08-2.6-1.08-4.062-3.196-1.45-2.13-1.52-5.27h5.951q.1 1.463.838 2.444.753.965 2.003 1.463 1.265.483 2.855.483 1.563 0 2.713-.455 1.165-.454 1.804-1.264.64-.81.64-1.86 0-.98-.583-1.649-.568-.667-1.676-1.136-1.093-.468-2.685-.852l-3.167-.796q-3.679-.894-5.81-2.798t-2.116-5.128q-.015-2.642 1.406-4.616 1.434-1.975 3.935-3.083 2.5-1.107 5.681-1.108 3.239 0 5.654 1.108 2.429 1.108 3.778 3.083 1.35 1.973 1.392 4.574zm21.922-1.094v4.545h-13.14v-4.545zm-10.157-5.227h6.051v20.34q0 .84.256 1.307.256.454.71.64.47.184 1.08.184.426 0 .852-.07.426-.086.654-.129l.951 4.503q-.454.143-1.278.327-.824.199-2.003.241-2.187.085-3.835-.582-1.634-.667-2.543-2.074t-.895-3.551zm20.32 27.457q-2.088 0-3.722-.724-1.633-.739-2.585-2.174-.937-1.449-.937-3.608 0-1.818.667-3.054a5.4 5.4 0 0 1 1.818-1.988 8.8 8.8 0 0 1 2.614-1.137 20 20 0 0 1 3.097-.54 79 79 0 0 0 3.068-.369q1.164-.184 1.69-.54.526-.355.526-1.05v-.086q0-1.35-.853-2.088-.837-.739-2.386-.739-1.633 0-2.599.725-.966.71-1.279 1.79l-5.596-.455q.425-1.99 1.676-3.437 1.25-1.464 3.224-2.245 1.989-.795 4.602-.795 1.82 0 3.481.426 1.676.426 2.968 1.32a6.4 6.4 0 0 1 2.06 2.302q.753 1.392.753 3.338V39h-5.739v-3.026h-.17a6.2 6.2 0 0 1-1.407 1.804q-.88.767-2.116 1.208-1.236.426-2.855.426m1.733-4.176q1.335 0 2.358-.526a4.2 4.2 0 0 0 1.605-1.449q.582-.909.582-2.06v-2.315q-.284.185-.781.341-.483.142-1.094.27a55 55 0 0 1-1.221.213l-1.108.156q-1.065.157-1.861.498-.795.34-1.236.923-.44.568-.44 1.42 0 1.236.895 1.89.909.639 2.301.639m26.854-18.054v4.545h-13.14v-4.545zm-10.157-5.227h6.051v20.34q0 .84.256 1.307.256.454.71.64.47.184 1.08.184.426 0 .852-.07.426-.086.654-.129l.951 4.503q-.454.143-1.278.327-.824.199-2.003.241-2.187.085-3.835-.582-1.634-.667-2.543-2.074t-.895-3.551zM410.559 39V17.182h6.051V39zm3.04-24.63q-1.35 0-2.315-.896-.952-.909-.952-2.173 0-1.25.952-2.145.966-.909 2.315-.909 1.35 0 2.301.91.966.893.966 2.144 0 1.264-.966 2.173-.951.895-2.301.895m26.012 9.033-5.54.341a2.86 2.86 0 0 0-.61-1.278 3.25 3.25 0 0 0-1.236-.923q-.753-.355-1.804-.355-1.406 0-2.372.596-.966.583-.966 1.563 0 .78.625 1.32.624.54 2.145.867l3.948.796q3.183.653 4.745 2.102t1.562 3.807q0 2.145-1.264 3.764-1.25 1.62-3.437 2.528-2.174.895-5.015.895-4.332 0-6.903-1.804-2.558-1.818-2.997-4.943l5.952-.312q.269 1.32 1.306 2.017 1.038.681 2.657.681 1.59 0 2.556-.61.98-.625.995-1.606-.015-.824-.696-1.349-.682-.54-2.103-.824l-3.778-.753q-3.197-.638-4.758-2.216-1.55-1.575-1.549-4.02 0-2.101 1.137-3.622 1.15-1.52 3.224-2.343 2.088-.825 4.886-.824 4.134 0 6.506 1.747 2.386 1.747 2.784 4.758m15.913-6.221v4.545h-13.139v-4.545zm-10.156-5.227h6.051v20.34q0 .84.255 1.307.257.454.711.64.468.184 1.079.184.426 0 .852-.07.426-.086.654-.129l.952 4.503q-.456.143-1.279.327-.824.199-2.003.241-2.187.085-3.835-.582-1.634-.667-2.543-2.074t-.894-3.551zM459.466 39V17.182h6.051V39zm3.039-24.63q-1.349 0-2.315-.896-.952-.909-.952-2.173 0-1.25.952-2.145.966-.909 2.315-.909 1.35 0 2.301.91.966.893.966 2.144 0 1.264-.966 2.173-.951.895-2.301.895m17.717 25.056q-3.352 0-5.767-1.42-2.4-1.435-3.693-3.978-1.28-2.542-1.279-5.852 0-3.353 1.293-5.88 1.307-2.544 3.707-3.964 2.401-1.434 5.711-1.434 2.855 0 5 1.037t3.394 2.912 1.378 4.403h-5.71q-.241-1.633-1.278-2.628-1.023-1.008-2.685-1.008-1.407 0-2.457.767-1.037.752-1.62 2.201-.582 1.45-.582 3.509 0 2.088.568 3.551.582 1.463 1.634 2.23 1.05.767 2.457.767 1.037 0 1.861-.426a3.6 3.6 0 0 0 1.378-1.236q.553-.823.724-1.974h5.71q-.141 2.5-1.363 4.403-1.208 1.89-3.338 2.955t-5.043 1.065m31.772-16.023-5.54.341a2.86 2.86 0 0 0-.611-1.278 3.24 3.24 0 0 0-1.235-.923q-.753-.355-1.804-.355-1.407 0-2.373.596-.965.583-.965 1.563 0 .78.625 1.32.624.54 2.144.867l3.949.796q3.183.653 4.745 2.102t1.562 3.807q0 2.145-1.264 3.764-1.25 1.62-3.438 2.528-2.172.895-5.014.895-4.332 0-6.903-1.804-2.558-1.818-2.997-4.943l5.951-.312q.27 1.32 1.307 2.017 1.037.681 2.656.681 1.591 0 2.557-.61.98-.625.995-1.606-.015-.824-.696-1.349-.683-.54-2.103-.824l-3.778-.753q-3.196-.638-4.759-2.216-1.548-1.575-1.548-4.02 0-2.101 1.136-3.622 1.15-1.52 3.225-2.343 2.088-.825 4.886-.824 4.133 0 6.506 1.747 2.387 1.747 2.784 4.758M46.113 46.955h103.488v2.727H46.113zm113.638 0h354.146v2.727H159.751zM529.277 382.5V393h-2.682v-17.455h2.591v2.728h.227a5 5 0 0 1 1.864-2.137q1.25-.818 3.227-.818 1.773 0 3.103.727 1.329.717 2.068 2.182.738 1.455.738 3.682V393h-2.681v-10.909q0-2.056-1.069-3.205-1.068-1.159-2.931-1.159-1.285 0-2.296.557-1 .557-1.579 1.625-.58 1.068-.58 2.591M519.815 452v-2.045l7.682-8.41a52 52 0 0 0 2.227-2.568q.876-1.102 1.296-2.068a5 5 0 0 0 .432-2.045q0-1.228-.591-2.125a3.84 3.84 0 0 0-1.591-1.387q-1.011-.488-2.273-.488-1.34 0-2.341.556a3.84 3.84 0 0 0-1.534 1.535q-.534.988-.534 2.318h-2.682q0-2.046.943-3.591a6.55 6.55 0 0 1 2.569-2.409q1.636-.864 3.67-.864 2.046 0 3.625.864 1.58.863 2.477 2.329.898 1.467.898 3.262a7 7 0 0 1-.466 2.511q-.454 1.216-1.591 2.716-1.125 1.488-3.125 3.636l-5.227 5.591v.182h10.818v2.5zm20.648-15.409v-2.955h.409l4.409-4.909h2.864l-5.136 5.682h-.546zm-2.182 3.773v-15.5h2.409v15.5zm7.182 0-3.909-5.455 1.636-1.682 5.137 7.137z"/><path stroke="#fff" stroke-width="3" d="M506 409.5h54"/></svg>