<svg xmlns="http://www.w3.org/2000/svg" width="331" height="318" fill="none" viewBox="0 0 331 318"><path fill="#fff" d="M109.277 121.5V132h-2.682v-17.455h2.591v2.728h.227a5 5 0 0 1 1.864-2.137q1.25-.818 3.227-.818 1.773 0 3.103.727 1.329.717 2.068 2.182.738 1.455.738 3.682V132h-2.681v-10.909q0-2.056-1.069-3.205-1.068-1.159-2.931-1.159-1.285 0-2.296.557-1 .557-1.579 1.625-.58 1.068-.58 2.591M156.545 146.227v-2.454h14v2.454zm0 6.728V150.5h14v2.455zm37.14-16.228V160h-2.819v-20.318h-.136l-5.682 3.773v-2.864l5.818-3.864zM91.136 240.5V251h-2.681v-17.455h2.59v2.728h.228a5 5 0 0 1 1.863-2.137q1.251-.818 3.228-.818 1.772 0 3.102.727 1.33.717 2.068 2.182.74 1.455.739 3.682V251h-2.682v-10.909q0-2.056-1.068-3.205-1.068-1.158-2.932-1.159-1.284 0-2.295.557-1 .557-1.58 1.625t-.58 2.591m26.128-3.273v-2.454h14v2.454zm0 6.728V241.5h14v2.455zM146.222 251v-2.045l7.681-8.41a53 53 0 0 0 2.228-2.568q.875-1.102 1.295-2.068a5 5 0 0 0 .432-2.045q0-1.228-.591-2.125a3.83 3.83 0 0 0-1.591-1.387q-1.011-.488-2.273-.488-1.34 0-2.341.556a3.84 3.84 0 0 0-1.534 1.535q-.534.988-.534 2.318h-2.682q0-2.046.944-3.591a6.55 6.55 0 0 1 2.568-2.409q1.636-.864 3.67-.864 2.046 0 3.625.864 1.58.863 2.478 2.329.897 1.467.897 3.262a7 7 0 0 1-.466 2.511q-.455 1.216-1.59 2.716-1.125 1.488-3.126 3.636l-5.227 5.591v.182h10.818v2.5zm20.647-15.409v-2.955h.409l4.41-4.909h2.863l-5.136 5.682h-.546zm-2.181 3.773v-15.5h2.409v15.5zm7.181 0-3.909-5.455 1.637-1.682 5.136 7.137zM90.955 303.636l-.046-3.318h.545l7.637-7.773h3.318l-8.136 8.228h-.227zm-2.5 6.364v-23.273h2.681V310zm11.09 0-6.818-8.636 1.91-1.864 8.318 10.5zm16.407-11.227v-2.455h14v2.455zm0 6.727v-2.455h14v2.455zm31.684-18.773V310h-2.681v-23.273zm12.003 23.637q-2.363 0-4.148-1.125-1.772-1.126-2.772-3.148-.989-2.023-.989-4.727 0-2.728.989-4.762 1-2.034 2.772-3.159 1.785-1.125 4.148-1.125 2.364 0 4.137 1.125 1.784 1.125 2.772 3.159 1 2.034 1 4.762 0 2.704-1 4.727-.988 2.023-2.772 3.148-1.773 1.125-4.137 1.125m0-2.409q1.795 0 2.955-.921 1.158-.92 1.716-2.42.556-1.5.556-3.25t-.556-3.262q-.558-1.511-1.716-2.443-1.16-.932-2.955-.932t-2.954.932-1.716 2.443q-.557 1.512-.557 3.262t.557 3.25 1.716 2.42q1.158.921 2.954.921m19.049 8.954q-1.944 0-3.341-.5-1.398-.489-2.33-1.295a7.1 7.1 0 0 1-1.466-1.705l2.137-1.5q.363.477.92 1.091.557.625 1.523 1.08.976.465 2.557.465 2.113 0 3.488-1.022t1.375-3.205v-3.545h-.227q-.295.477-.841 1.182-.534.693-1.545 1.238-1 .534-2.705.534-2.113 0-3.795-1-1.671-1-2.648-2.909-.966-1.91-.966-4.636 0-2.682.943-4.671.944-2 2.625-3.091 1.682-1.101 3.886-1.102 1.705 0 2.705.568 1.011.558 1.545 1.273.546.705.841 1.159h.273v-2.773h2.591V310.5q0 2.25-1.023 3.659-1.011 1.42-2.727 2.08-1.705.67-3.795.67m-.091-9.591q1.612 0 2.727-.738 1.113-.74 1.693-2.125.58-1.387.58-3.319 0-1.886-.569-3.329-.567-1.443-1.681-2.262-1.114-.818-2.75-.818-1.706 0-2.841.864-1.125.864-1.694 2.318-.556 1.455-.556 3.227 0 1.818.568 3.216.579 1.387 1.704 2.182 1.136.784 2.819.784M190.278 314v-1.773l5.319-4.727q.795-.705 1.329-1.261.534-.557.807-1.08t.273-1.114q0-1.022-.784-1.625-.785-.602-1.944-.602-1.227 0-1.977.659-.75.648-.75 1.705h-2.363q0-1.943 1.443-3.125 1.443-1.193 3.693-1.193 1.5 0 2.636.545 1.137.534 1.773 1.477.636.933.636 2.114 0 .932-.375 1.727-.375.796-1.17 1.648a28 28 0 0 1-2.046 1.943l-2.954 2.591V312h6.954v2zm15.287-13.818q0-4.295 1.114-7.898a24.6 24.6 0 0 1 3.205-6.648h2.363q-.818 1.126-1.534 2.773a27 27 0 0 0-1.239 3.602 34 34 0 0 0-.84 4.046 29.5 29.5 0 0 0-.296 4.125q0 2.704.523 5.488a31.5 31.5 0 0 0 1.409 5.171q.887 2.386 1.977 3.886h-2.363a24.7 24.7 0 0 1-3.205-6.636q-1.114-3.614-1.114-7.909m13.321-.682V310h-2.681v-17.455h2.59v2.728h.228a5 5 0 0 1 1.863-2.137q1.25-.818 3.228-.818 1.772 0 3.102.727 1.33.717 2.068 2.182.74 1.455.739 3.682V310h-2.682v-10.909q0-2.056-1.068-3.205-1.069-1.159-2.932-1.159-1.284 0-2.296.557-1 .557-1.579 1.625-.58 1.068-.58 2.591m21.765.682q0 4.295-1.125 7.909a24.4 24.4 0 0 1-3.194 6.636h-2.363q.818-1.125 1.522-2.772a26 26 0 0 0 1.25-3.591q.535-1.966.83-4.057.307-2.103.307-4.125 0-2.705-.523-5.489a31.5 31.5 0 0 0-1.409-5.17q-.887-2.387-1.977-3.887h2.363a24.4 24.4 0 0 1 3.194 6.648q1.125 3.602 1.125 7.898M99.815 191v-2.045l7.682-8.41a52 52 0 0 0 2.227-2.568q.876-1.102 1.296-2.068a5 5 0 0 0 .432-2.045q0-1.228-.591-2.125a3.84 3.84 0 0 0-1.591-1.387q-1.011-.488-2.273-.488-1.34 0-2.341.556a3.84 3.84 0 0 0-1.534 1.535q-.534.988-.534 2.318h-2.682q0-2.046.943-3.591a6.55 6.55 0 0 1 2.569-2.409q1.636-.864 3.67-.864 2.046 0 3.625.864 1.58.863 2.477 2.329.898 1.467.898 3.262a7 7 0 0 1-.466 2.511q-.454 1.216-1.591 2.716-1.124 1.488-3.125 3.636l-5.227 5.591v.182h10.818v2.5zm20.648-15.409v-2.955h.409l4.409-4.909h2.864l-5.136 5.682h-.546zm-2.182 3.773v-15.5h2.409v15.5zm7.182 0-3.909-5.455 1.636-1.682 5.137 7.137zM1.452 14.98V9.91h23.892v5.07h-8.907V39h-6.079V14.98zM29.165 39V17.182h6.05V39zm3.04-24.63q-1.35 0-2.316-.896-.951-.909-.951-2.173 0-1.25.951-2.145.966-.909 2.316-.909t2.3.91q.967.893.967 2.144 0 1.264-.966 2.173-.953.895-2.301.895M40.063 39V17.182h5.767v3.85h.256q.682-1.92 2.273-3.026 1.59-1.108 3.807-1.108 2.245 0 3.82 1.122 1.577 1.108 2.103 3.011h.227q.667-1.875 2.415-2.997 1.76-1.136 4.162-1.136 3.054 0 4.957 1.946 1.918 1.932 1.918 5.483V39H65.73V25.52q0-1.818-.966-2.727-.966-.91-2.415-.91-1.647 0-2.57 1.052-.924 1.036-.924 2.741V39h-5.867V25.392q0-1.605-.923-2.557-.909-.951-2.4-.951-1.01 0-1.819.51-.795.498-1.264 1.407-.468.896-.469 2.102V39zm46.428.426q-3.367 0-5.796-1.364-2.415-1.377-3.721-3.892-1.307-2.528-1.307-5.98 0-3.366 1.307-5.909 1.305-2.542 3.679-3.963 2.386-1.42 5.596-1.42 2.16 0 4.02.696a8.9 8.9 0 0 1 3.267 2.06q1.407 1.377 2.188 3.465.78 2.074.781 4.858v1.662H78.082v-3.75h12.727q0-1.307-.568-2.315a4.07 4.07 0 0 0-1.577-1.577q-.995-.582-2.315-.582-1.378 0-2.443.639-1.051.625-1.648 1.69-.597 1.051-.611 2.344v3.565q0 1.62.597 2.799.61 1.179 1.718 1.818 1.108.64 2.628.64 1.008 0 1.847-.285a3.8 3.8 0 0 0 1.434-.852q.597-.57.91-1.392l5.596.369a7.64 7.64 0 0 1-1.747 3.523q-1.307 1.49-3.38 2.33-2.06.823-4.76.823m49.002-19.332h-6.222q-.17-1.208-.696-2.145a5.5 5.5 0 0 0-1.349-1.62 5.9 5.9 0 0 0-1.904-1.022 7.3 7.3 0 0 0-2.315-.355q-2.258 0-3.935 1.122-1.675 1.108-2.599 3.238-.924 2.117-.923 5.142 0 3.111.923 5.228.937 2.116 2.614 3.196t3.877 1.08q1.237 0 2.287-.327a6 6 0 0 0 1.89-.952 5.5 5.5 0 0 0 1.363-1.548q.554-.91.767-2.074l6.222.028a11.3 11.3 0 0 1-1.207 3.864 11.6 11.6 0 0 1-2.572 3.31q-1.605 1.448-3.835 2.3-2.215.84-5.014.839-3.892 0-6.96-1.762-3.054-1.761-4.83-5.1-1.761-3.337-1.761-8.082 0-4.757 1.79-8.096 1.79-3.338 4.858-5.085 3.068-1.761 6.903-1.762 2.528 0 4.688.71 2.173.71 3.849 2.075 1.676 1.349 2.727 3.31 1.065 1.959 1.364 4.488m14.155 19.332q-3.31 0-5.725-1.406-2.4-1.42-3.707-3.949-1.307-2.543-1.307-5.895 0-3.38 1.307-5.909 1.307-2.542 3.707-3.949 2.415-1.42 5.725-1.42t5.71 1.42q2.415 1.407 3.722 3.949 1.306 2.528 1.306 5.91 0 3.351-1.306 5.894-1.308 2.529-3.722 3.949-2.4 1.406-5.71 1.406m.028-4.687q1.506 0 2.514-.853 1.009-.866 1.52-2.358.526-1.49.526-3.394t-.526-3.395q-.511-1.492-1.52-2.358t-2.514-.867q-1.52 0-2.557.867-1.022.866-1.548 2.358-.511 1.491-.511 3.395 0 1.902.511 3.394.526 1.492 1.548 2.358 1.038.853 2.557.853M164.321 39V17.182h5.767v3.85h.256q.681-1.92 2.272-3.026 1.592-1.108 3.807-1.108 2.245 0 3.821 1.122 1.577 1.108 2.103 3.011h.227q.667-1.875 2.415-2.997 1.76-1.136 4.162-1.136 3.054 0 4.957 1.946 1.917 1.932 1.918 5.483V39h-6.037V25.52q0-1.818-.966-2.727-.966-.91-2.415-.91-1.649 0-2.571 1.052-.924 1.036-.923 2.741V39h-5.867V25.392q0-1.605-.923-2.557-.909-.951-2.401-.951-1.008 0-1.818.51-.796.498-1.264 1.407-.47.896-.469 2.102V39zm36.484 8.182v-30h5.966v3.665h.27q.398-.882 1.151-1.79.767-.924 1.988-1.534 1.236-.625 3.069-.625 2.385 0 4.403 1.25 2.017 1.236 3.224 3.736 1.208 2.485 1.208 6.235 0 3.651-1.179 6.165-1.165 2.5-3.182 3.793-2.002 1.278-4.489 1.278-1.761 0-2.997-.582-1.221-.583-2.003-1.463-.78-.895-1.193-1.804h-.184v11.676zm5.924-19.091q0 1.946.539 3.395.54 1.45 1.563 2.258 1.022.795 2.486.796 1.477 0 2.5-.81 1.023-.825 1.548-2.273.54-1.463.54-3.366 0-1.89-.526-3.324-.525-1.434-1.548-2.244t-2.514-.81q-1.477 0-2.5.781-1.01.782-1.549 2.216-.539 1.436-.539 3.38m25.44-18.182V39h-6.051V9.91zm14.791 29.517q-3.368 0-5.796-1.364-2.415-1.377-3.722-3.892-1.306-2.528-1.306-5.98 0-3.366 1.306-5.909 1.308-2.542 3.679-3.963 2.387-1.42 5.597-1.42 2.159 0 4.02.696a8.9 8.9 0 0 1 3.267 2.06q1.406 1.377 2.187 3.465.782 2.074.782 4.858v1.662H238.55v-3.75h12.728q0-1.307-.568-2.315a4.07 4.07 0 0 0-1.577-1.577q-.995-.582-2.316-.582-1.377 0-2.443.639-1.05.625-1.647 1.69-.597 1.051-.611 2.344v3.565q0 1.62.596 2.799a4.37 4.37 0 0 0 1.719 1.818q1.108.64 2.628.64 1.008 0 1.847-.285a3.8 3.8 0 0 0 1.434-.852q.597-.57.909-1.392l5.597.369a7.65 7.65 0 0 1-1.747 3.523q-1.306 1.49-3.381 2.33-2.06.823-4.758.823m18.629-22.244 4.005 7.628 4.106-7.628h6.207l-6.321 10.909L280.077 39h-6.179l-4.304-7.543L265.362 39h-6.25l6.477-10.91-6.25-10.908zM283.501 39V17.182h6.051V39zm3.039-24.63q-1.349 0-2.315-.896-.952-.909-.952-2.173 0-1.25.952-2.145.966-.909 2.315-.909 1.35 0 2.302.91.966.893.966 2.144 0 1.264-.966 2.173-.952.895-2.302.895m19.464 2.812v4.545h-13.139v-4.545zm-10.156-5.227h6.051v20.34q0 .84.256 1.307.255.454.71.64.469.184 1.08.184.426 0 .852-.07.426-.086.653-.129l.952 4.503q-.454.143-1.278.327-.825.199-2.003.241-2.188.085-3.835-.582-1.634-.667-2.543-2.074t-.895-3.551zm17.834 35.227q-1.15 0-2.159-.185-.994-.17-1.648-.44l1.364-4.517q1.065.327 1.917.355.867.028 1.492-.398.64-.426 1.037-1.449l.355-.923-7.827-22.443h6.364l4.517 16.023h.227l4.56-16.023h6.406l-8.48 24.176q-.61 1.761-1.662 3.068a6.8 6.8 0 0 1-2.628 2.031q-1.591.725-3.835.725M.031 46.955h198.046v2.727H.031zm209.556 0h98.975v2.727h-98.975zm109.125 0h12.257v2.727h-12.257z"/><path stroke="#fff" stroke-width="3" d="M86 148.5h54"/></svg>