<svg width="331" height="318" viewBox="0 0 331 318" fill="none" xmlns="http://www.w3.org/2000/svg">
<path d="M109.277 121.5V132H106.595V114.545H109.186V117.273H109.413C109.822 116.386 110.444 115.674 111.277 115.136C112.11 114.591 113.186 114.318 114.504 114.318C115.686 114.318 116.72 114.561 117.607 115.045C118.493 115.523 119.182 116.25 119.675 117.227C120.167 118.197 120.413 119.424 120.413 120.909V132H117.732V121.091C117.732 119.72 117.375 118.652 116.663 117.886C115.951 117.114 114.974 116.727 113.732 116.727C112.875 116.727 112.11 116.913 111.436 117.284C110.769 117.655 110.243 118.197 109.857 118.909C109.47 119.621 109.277 120.485 109.277 121.5Z" fill="white"/>
<path d="M156.545 146.227V143.773H170.545V146.227H156.545ZM156.545 152.955V150.5H170.545V152.955H156.545ZM193.685 136.727V160H190.866V139.682H190.73L185.048 143.455V140.591L190.866 136.727H193.685Z" fill="white"/>
<path d="M91.1364 240.5V251H88.4545V233.545H91.0455V236.273H91.2727C91.6818 235.386 92.303 234.674 93.1364 234.136C93.9697 233.591 95.0455 233.318 96.3636 233.318C97.5455 233.318 98.5795 233.561 99.4659 234.045C100.352 234.523 101.042 235.25 101.534 236.227C102.027 237.197 102.273 238.424 102.273 239.909V251H99.5909V240.091C99.5909 238.72 99.2348 237.652 98.5227 236.886C97.8106 236.114 96.8333 235.727 95.5909 235.727C94.7348 235.727 93.9697 235.913 93.2955 236.284C92.6288 236.655 92.1023 237.197 91.7159 237.909C91.3295 238.621 91.1364 239.485 91.1364 240.5ZM117.264 237.227V234.773H131.264V237.227H117.264ZM117.264 243.955V241.5H131.264V243.955H117.264ZM146.222 251V248.955L153.903 240.545C154.805 239.561 155.547 238.705 156.131 237.977C156.714 237.242 157.146 236.553 157.426 235.909C157.714 235.258 157.858 234.576 157.858 233.864C157.858 233.045 157.661 232.337 157.267 231.739C156.881 231.14 156.35 230.678 155.676 230.352C155.002 230.027 154.244 229.864 153.403 229.864C152.509 229.864 151.729 230.049 151.062 230.42C150.403 230.784 149.892 231.295 149.528 231.955C149.172 232.614 148.994 233.386 148.994 234.273H146.312C146.312 232.909 146.627 231.712 147.256 230.682C147.884 229.652 148.741 228.848 149.824 228.273C150.915 227.697 152.138 227.409 153.494 227.409C154.858 227.409 156.066 227.697 157.119 228.273C158.172 228.848 158.998 229.625 159.597 230.602C160.195 231.58 160.494 232.667 160.494 233.864C160.494 234.72 160.339 235.557 160.028 236.375C159.725 237.186 159.195 238.091 158.438 239.091C157.688 240.083 156.646 241.295 155.312 242.727L150.085 248.318V248.5H160.903V251H146.222ZM166.869 235.591V232.636H167.278L171.688 227.727H174.551L169.415 233.409H168.869L166.869 235.591ZM164.688 239.364V223.864H167.097V239.364H164.688ZM171.869 239.364L167.96 233.909L169.597 232.227L174.733 239.364H171.869Z" fill="white"/>
<path d="M90.9545 303.636L90.9091 300.318H91.4545L99.0909 292.545H102.409L94.2727 300.773H94.0455L90.9545 303.636ZM88.4545 310V286.727H91.1364V310H88.4545ZM99.5455 310L92.7273 301.364L94.6364 299.5L102.955 310H99.5455ZM115.952 298.773V296.318H129.952V298.773H115.952ZM115.952 305.5V303.045H129.952V305.5H115.952ZM147.636 286.727V310H144.955V286.727H147.636ZM159.639 310.364C158.063 310.364 156.681 309.989 155.491 309.239C154.31 308.489 153.385 307.439 152.719 306.091C152.06 304.742 151.73 303.167 151.73 301.364C151.73 299.545 152.06 297.958 152.719 296.602C153.385 295.246 154.31 294.193 155.491 293.443C156.681 292.693 158.063 292.318 159.639 292.318C161.215 292.318 162.594 292.693 163.776 293.443C164.965 294.193 165.889 295.246 166.548 296.602C167.215 297.958 167.548 299.545 167.548 301.364C167.548 303.167 167.215 304.742 166.548 306.091C165.889 307.439 164.965 308.489 163.776 309.239C162.594 309.989 161.215 310.364 159.639 310.364ZM159.639 307.955C160.836 307.955 161.821 307.648 162.594 307.034C163.366 306.42 163.938 305.614 164.31 304.614C164.681 303.614 164.866 302.53 164.866 301.364C164.866 300.197 164.681 299.11 164.31 298.102C163.938 297.095 163.366 296.28 162.594 295.659C161.821 295.038 160.836 294.727 159.639 294.727C158.442 294.727 157.457 295.038 156.685 295.659C155.912 296.28 155.34 297.095 154.969 298.102C154.598 299.11 154.412 300.197 154.412 301.364C154.412 302.53 154.598 303.614 154.969 304.614C155.34 305.614 155.912 306.42 156.685 307.034C157.457 307.648 158.442 307.955 159.639 307.955ZM178.688 316.909C177.392 316.909 176.278 316.742 175.347 316.409C174.415 316.083 173.638 315.652 173.017 315.114C172.403 314.583 171.915 314.015 171.551 313.409L173.688 311.909C173.93 312.227 174.237 312.591 174.608 313C174.979 313.417 175.487 313.777 176.131 314.08C176.782 314.39 177.634 314.545 178.688 314.545C180.097 314.545 181.259 314.205 182.176 313.523C183.093 312.841 183.551 311.773 183.551 310.318V306.773H183.324C183.127 307.091 182.847 307.485 182.483 307.955C182.127 308.417 181.612 308.83 180.938 309.193C180.271 309.549 179.369 309.727 178.233 309.727C176.824 309.727 175.559 309.394 174.438 308.727C173.324 308.061 172.441 307.091 171.79 305.818C171.146 304.545 170.824 303 170.824 301.182C170.824 299.394 171.138 297.837 171.767 296.511C172.396 295.178 173.271 294.148 174.392 293.42C175.513 292.686 176.809 292.318 178.278 292.318C179.415 292.318 180.316 292.508 180.983 292.886C181.657 293.258 182.172 293.682 182.528 294.159C182.892 294.629 183.172 295.015 183.369 295.318H183.642V292.545H186.233V310.5C186.233 312 185.892 313.22 185.21 314.159C184.536 315.106 183.627 315.799 182.483 316.239C181.347 316.686 180.081 316.909 178.688 316.909ZM178.597 307.318C179.672 307.318 180.581 307.072 181.324 306.58C182.066 306.087 182.631 305.379 183.017 304.455C183.403 303.53 183.597 302.424 183.597 301.136C183.597 299.879 183.407 298.769 183.028 297.807C182.65 296.845 182.089 296.091 181.347 295.545C180.604 295 179.688 294.727 178.597 294.727C177.46 294.727 176.513 295.015 175.756 295.591C175.006 296.167 174.441 296.939 174.062 297.909C173.691 298.879 173.506 299.955 173.506 301.136C173.506 302.348 173.695 303.42 174.074 304.352C174.46 305.277 175.028 306.004 175.778 306.534C176.536 307.057 177.475 307.318 178.597 307.318ZM190.278 314V312.227L195.597 307.5C196.127 307.03 196.57 306.61 196.926 306.239C197.282 305.867 197.551 305.508 197.733 305.159C197.915 304.811 198.006 304.439 198.006 304.045C198.006 303.364 197.744 302.822 197.222 302.42C196.699 302.019 196.051 301.818 195.278 301.818C194.46 301.818 193.801 302.038 193.301 302.477C192.801 302.909 192.551 303.477 192.551 304.182H190.188C190.188 302.886 190.669 301.845 191.631 301.057C192.593 300.261 193.824 299.864 195.324 299.864C196.324 299.864 197.203 300.045 197.96 300.409C198.718 300.765 199.309 301.258 199.733 301.886C200.157 302.508 200.369 303.212 200.369 304C200.369 304.621 200.244 305.197 199.994 305.727C199.744 306.258 199.354 306.807 198.824 307.375C198.294 307.943 197.612 308.591 196.778 309.318L193.824 311.909V312H200.778V314H190.278ZM205.565 300.182C205.565 297.318 205.937 294.686 206.679 292.284C207.429 289.875 208.497 287.659 209.884 285.636H212.247C211.702 286.386 211.19 287.311 210.713 288.409C210.243 289.5 209.83 290.701 209.474 292.011C209.118 293.314 208.838 294.663 208.634 296.057C208.437 297.451 208.338 298.826 208.338 300.182C208.338 301.985 208.512 303.814 208.861 305.67C209.209 307.527 209.679 309.25 210.27 310.841C210.861 312.432 211.52 313.727 212.247 314.727H209.884C208.497 312.705 207.429 310.492 206.679 308.091C205.937 305.682 205.565 303.045 205.565 300.182ZM218.886 299.5V310H216.205V292.545H218.795V295.273H219.023C219.432 294.386 220.053 293.674 220.886 293.136C221.72 292.591 222.795 292.318 224.114 292.318C225.295 292.318 226.33 292.561 227.216 293.045C228.102 293.523 228.792 294.25 229.284 295.227C229.777 296.197 230.023 297.424 230.023 298.909V310H227.341V299.091C227.341 297.72 226.985 296.652 226.273 295.886C225.561 295.114 224.583 294.727 223.341 294.727C222.485 294.727 221.72 294.913 221.045 295.284C220.379 295.655 219.852 296.197 219.466 296.909C219.08 297.621 218.886 298.485 218.886 299.5ZM240.651 300.182C240.651 303.045 240.276 305.682 239.526 308.091C238.783 310.492 237.719 312.705 236.332 314.727H233.969C234.514 313.977 235.022 313.053 235.491 311.955C235.969 310.864 236.385 309.667 236.741 308.364C237.098 307.053 237.374 305.701 237.571 304.307C237.776 302.905 237.878 301.53 237.878 300.182C237.878 298.379 237.704 296.549 237.355 294.693C237.007 292.837 236.537 291.114 235.946 289.523C235.355 287.932 234.696 286.636 233.969 285.636H236.332C237.719 287.659 238.783 289.875 239.526 292.284C240.276 294.686 240.651 297.318 240.651 300.182Z" fill="white"/>
<path d="M99.8153 191V188.955L107.497 180.545C108.399 179.561 109.141 178.705 109.724 177.977C110.308 177.242 110.74 176.553 111.02 175.909C111.308 175.258 111.452 174.576 111.452 173.864C111.452 173.045 111.255 172.337 110.861 171.739C110.474 171.14 109.944 170.678 109.27 170.352C108.596 170.027 107.838 169.864 106.997 169.864C106.103 169.864 105.323 170.049 104.656 170.42C103.997 170.784 103.486 171.295 103.122 171.955C102.766 172.614 102.588 173.386 102.588 174.273H99.9062C99.9062 172.909 100.221 171.712 100.849 170.682C101.478 169.652 102.334 168.848 103.418 168.273C104.509 167.697 105.732 167.409 107.088 167.409C108.452 167.409 109.66 167.697 110.713 168.273C111.766 168.848 112.592 169.625 113.19 170.602C113.789 171.58 114.088 172.667 114.088 173.864C114.088 174.72 113.933 175.557 113.622 176.375C113.319 177.186 112.789 178.091 112.031 179.091C111.281 180.083 110.24 181.295 108.906 182.727L103.679 188.318V188.5H114.497V191H99.8153ZM120.463 175.591V172.636H120.872L125.281 167.727H128.145L123.009 173.409H122.463L120.463 175.591ZM118.281 179.364V163.864H120.69V179.364H118.281ZM125.463 179.364L121.554 173.909L123.19 172.227L128.327 179.364H125.463Z" fill="white"/>
<path d="M1.4517 14.9801V9.90909H25.3438V14.9801H16.4375V39H10.358V14.9801H1.4517ZM29.1648 39V17.1818H35.2159V39H29.1648ZM32.2045 14.3693C31.3049 14.3693 30.5331 14.071 29.8892 13.4744C29.2547 12.8684 28.9375 12.1439 28.9375 11.3011C28.9375 10.4678 29.2547 9.75284 29.8892 9.15625C30.5331 8.55019 31.3049 8.24716 32.2045 8.24716C33.1042 8.24716 33.8712 8.55019 34.5057 9.15625C35.1496 9.75284 35.4716 10.4678 35.4716 11.3011C35.4716 12.1439 35.1496 12.8684 34.5057 13.4744C33.8712 14.071 33.1042 14.3693 32.2045 14.3693ZM40.0632 39V17.1818H45.8303V21.0312H46.0859C46.5405 19.7528 47.2981 18.7443 48.3587 18.0057C49.4193 17.267 50.6882 16.8977 52.1655 16.8977C53.6617 16.8977 54.9354 17.2718 55.9865 18.0199C57.0376 18.7585 57.7384 19.7623 58.0888 21.0312H58.3161C58.7611 19.7812 59.5661 18.7822 60.7308 18.0341C61.9051 17.2765 63.2924 16.8977 64.8928 16.8977C66.9287 16.8977 68.5812 17.5464 69.8501 18.8438C71.1286 20.1316 71.7678 21.9593 71.7678 24.3267V39H65.7308V25.5199C65.7308 24.3078 65.4089 23.3987 64.7649 22.7926C64.121 22.1866 63.3161 21.8835 62.3501 21.8835C61.2517 21.8835 60.3946 22.2339 59.7791 22.9347C59.1636 23.6259 58.8558 24.5398 58.8558 25.6761V39H52.9893V25.392C52.9893 24.322 52.6816 23.4697 52.0661 22.8352C51.46 22.2008 50.6598 21.8835 49.6655 21.8835C48.9931 21.8835 48.3871 22.054 47.8473 22.3949C47.317 22.7263 46.8956 23.1951 46.5831 23.8011C46.2706 24.3977 46.1143 25.0985 46.1143 25.9034V39H40.0632ZM86.4908 39.4261C84.2464 39.4261 82.3146 38.9716 80.6953 38.0625C79.0855 37.1439 77.8449 35.8466 76.9737 34.1705C76.1025 32.4848 75.6669 30.4915 75.6669 28.1903C75.6669 25.946 76.1025 23.9763 76.9737 22.2812C77.8449 20.5862 79.0713 19.2652 80.6527 18.3182C82.2436 17.3712 84.1091 16.8977 86.2493 16.8977C87.6887 16.8977 89.0286 17.1297 90.2692 17.5938C91.5192 18.0483 92.6082 18.7348 93.5362 19.6534C94.4737 20.572 95.2029 21.7273 95.7237 23.1193C96.2446 24.5019 96.505 26.1212 96.505 27.9773V29.6392H78.0817V25.8892H90.8089C90.8089 25.018 90.6196 24.2462 90.2408 23.5739C89.862 22.9015 89.3364 22.3759 88.6641 21.9972C88.0012 21.6089 87.2294 21.4148 86.3487 21.4148C85.4302 21.4148 84.6158 21.6278 83.9055 22.054C83.2048 22.4706 82.6555 23.0341 82.2578 23.7443C81.8601 24.4451 81.6565 25.2263 81.647 26.0881V29.6534C81.647 30.733 81.8459 31.6657 82.2436 32.4517C82.6508 33.2377 83.2237 33.8438 83.9624 34.2699C84.701 34.696 85.5769 34.9091 86.5902 34.9091C87.2625 34.9091 87.8781 34.8144 88.4368 34.625C88.9955 34.4356 89.4737 34.1515 89.8714 33.7727C90.2692 33.3939 90.5722 32.9299 90.7805 32.3807L96.3771 32.75C96.093 34.0947 95.5107 35.2689 94.63 36.2727C93.7588 37.267 92.6319 38.0436 91.2493 38.6023C89.8762 39.1515 88.29 39.4261 86.4908 39.4261ZM135.493 20.0938H129.271C129.158 19.2888 128.926 18.5739 128.575 17.9489C128.225 17.3144 127.775 16.7746 127.226 16.3295C126.677 15.8845 126.042 15.5436 125.322 15.3068C124.612 15.0701 123.84 14.9517 123.007 14.9517C121.501 14.9517 120.19 15.3258 119.072 16.0739C117.955 16.8125 117.089 17.892 116.473 19.3125C115.857 20.7235 115.55 22.4375 115.55 24.4545C115.55 26.5284 115.857 28.2708 116.473 29.6818C117.098 31.0928 117.969 32.1581 119.087 32.8778C120.204 33.5975 121.497 33.9574 122.964 33.9574C123.788 33.9574 124.551 33.8485 125.251 33.6307C125.962 33.4129 126.591 33.0956 127.141 32.679C127.69 32.2528 128.144 31.7367 128.504 31.1307C128.874 30.5246 129.129 29.8333 129.271 29.0568L135.493 29.0852C135.332 30.4205 134.929 31.7083 134.286 32.9489C133.651 34.1799 132.794 35.2831 131.714 36.2585C130.644 37.2244 129.366 37.9915 127.879 38.5597C126.402 39.1184 124.731 39.3977 122.865 39.3977C120.27 39.3977 117.95 38.8106 115.905 37.6364C113.869 36.4621 112.259 34.7623 111.075 32.5369C109.901 30.3116 109.314 27.6174 109.314 24.4545C109.314 21.2822 109.911 18.5833 111.104 16.358C112.297 14.1326 113.916 12.4375 115.962 11.2727C118.007 10.0985 120.308 9.51136 122.865 9.51136C124.551 9.51136 126.113 9.74811 127.553 10.2216C129.001 10.6951 130.285 11.3864 131.402 12.2955C132.519 13.1951 133.429 14.2983 134.129 15.6051C134.839 16.9119 135.294 18.4081 135.493 20.0938ZM149.648 39.4261C147.441 39.4261 145.533 38.9574 143.923 38.0199C142.323 37.0729 141.087 35.7566 140.216 34.071C139.345 32.3759 138.909 30.411 138.909 28.1761C138.909 25.9223 139.345 23.9527 140.216 22.267C141.087 20.572 142.323 19.2557 143.923 18.3182C145.533 17.3712 147.441 16.8977 149.648 16.8977C151.854 16.8977 153.758 17.3712 155.358 18.3182C156.968 19.2557 158.208 20.572 159.08 22.267C159.951 23.9527 160.386 25.9223 160.386 28.1761C160.386 30.411 159.951 32.3759 159.08 34.071C158.208 35.7566 156.968 37.0729 155.358 38.0199C153.758 38.9574 151.854 39.4261 149.648 39.4261ZM149.676 34.7386C150.68 34.7386 151.518 34.4545 152.19 33.8864C152.863 33.3087 153.369 32.5227 153.71 31.5284C154.061 30.5341 154.236 29.4025 154.236 28.1335C154.236 26.8646 154.061 25.733 153.71 24.7386C153.369 23.7443 152.863 22.9583 152.19 22.3807C151.518 21.803 150.68 21.5142 149.676 21.5142C148.663 21.5142 147.811 21.803 147.119 22.3807C146.438 22.9583 145.921 23.7443 145.571 24.7386C145.23 25.733 145.06 26.8646 145.06 28.1335C145.06 29.4025 145.23 30.5341 145.571 31.5284C145.921 32.5227 146.438 33.3087 147.119 33.8864C147.811 34.4545 148.663 34.7386 149.676 34.7386ZM164.321 39V17.1818H170.088V21.0312H170.344C170.798 19.7528 171.556 18.7443 172.616 18.0057C173.677 17.267 174.946 16.8977 176.423 16.8977C177.92 16.8977 179.193 17.2718 180.244 18.0199C181.295 18.7585 181.996 19.7623 182.347 21.0312H182.574C183.019 19.7812 183.824 18.7822 184.989 18.0341C186.163 17.2765 187.55 16.8977 189.151 16.8977C191.187 16.8977 192.839 17.5464 194.108 18.8438C195.386 20.1316 196.026 21.9593 196.026 24.3267V39H189.989V25.5199C189.989 24.3078 189.667 23.3987 189.023 22.7926C188.379 22.1866 187.574 21.8835 186.608 21.8835C185.509 21.8835 184.652 22.2339 184.037 22.9347C183.421 23.6259 183.114 24.5398 183.114 25.6761V39H177.247V25.392C177.247 24.322 176.939 23.4697 176.324 22.8352C175.718 22.2008 174.918 21.8835 173.923 21.8835C173.251 21.8835 172.645 22.054 172.105 22.3949C171.575 22.7263 171.153 23.1951 170.841 23.8011C170.528 24.3977 170.372 25.0985 170.372 25.9034V39H164.321ZM200.805 47.1818V17.1818H206.771V20.8466H207.041C207.306 20.2595 207.69 19.6629 208.192 19.0568C208.703 18.4413 209.366 17.9299 210.18 17.5227C211.004 17.1061 212.027 16.8977 213.249 16.8977C214.839 16.8977 216.307 17.3144 217.652 18.1477C218.997 18.9716 220.071 20.2169 220.876 21.8835C221.681 23.5407 222.084 25.6193 222.084 28.1193C222.084 30.553 221.691 32.608 220.905 34.2841C220.128 35.9508 219.068 37.215 217.723 38.0767C216.388 38.929 214.892 39.3551 213.234 39.3551C212.06 39.3551 211.061 39.161 210.237 38.7727C209.423 38.3845 208.755 37.8968 208.234 37.3097C207.714 36.7131 207.316 36.1117 207.041 35.5057H206.857V47.1818H200.805ZM206.729 28.0909C206.729 29.3883 206.909 30.5199 207.268 31.4858C207.628 32.4517 208.149 33.2045 208.831 33.7443C209.513 34.2746 210.341 34.5398 211.317 34.5398C212.302 34.5398 213.135 34.2699 213.817 33.7301C214.499 33.1809 215.015 32.4233 215.365 31.4574C215.725 30.482 215.905 29.3598 215.905 28.0909C215.905 26.8314 215.73 25.7235 215.379 24.767C215.029 23.8106 214.513 23.0625 213.831 22.5227C213.149 21.983 212.311 21.7131 211.317 21.7131C210.332 21.7131 209.499 21.9735 208.817 22.4943C208.144 23.0152 207.628 23.7538 207.268 24.7102C206.909 25.6667 206.729 26.7936 206.729 28.0909ZM232.169 9.90909V39H226.118V9.90909H232.169ZM246.96 39.4261C244.715 39.4261 242.783 38.9716 241.164 38.0625C239.554 37.1439 238.314 35.8466 237.442 34.1705C236.571 32.4848 236.136 30.4915 236.136 28.1903C236.136 25.946 236.571 23.9763 237.442 22.2812C238.314 20.5862 239.54 19.2652 241.121 18.3182C242.712 17.3712 244.578 16.8977 246.718 16.8977C248.157 16.8977 249.497 17.1297 250.738 17.5938C251.988 18.0483 253.077 18.7348 254.005 19.6534C254.942 20.572 255.672 21.7273 256.192 23.1193C256.713 24.5019 256.974 26.1212 256.974 27.9773V29.6392H238.55V25.8892H251.278C251.278 25.018 251.088 24.2462 250.71 23.5739C250.331 22.9015 249.805 22.3759 249.133 21.9972C248.47 21.6089 247.698 21.4148 246.817 21.4148C245.899 21.4148 245.085 21.6278 244.374 22.054C243.674 22.4706 243.124 23.0341 242.727 23.7443C242.329 24.4451 242.125 25.2263 242.116 26.0881V29.6534C242.116 30.733 242.315 31.6657 242.712 32.4517C243.12 33.2377 243.692 33.8438 244.431 34.2699C245.17 34.696 246.046 34.9091 247.059 34.9091C247.731 34.9091 248.347 34.8144 248.906 34.625C249.464 34.4356 249.942 34.1515 250.34 33.7727C250.738 33.3939 251.041 32.9299 251.249 32.3807L256.846 32.75C256.562 34.0947 255.979 35.2689 255.099 36.2727C254.228 37.267 253.101 38.0436 251.718 38.6023C250.345 39.1515 248.759 39.4261 246.96 39.4261ZM265.589 17.1818L269.594 24.8097L273.7 17.1818H279.907L273.586 28.0909L280.077 39H273.898L269.594 31.4574L265.362 39H259.112L265.589 28.0909L259.339 17.1818H265.589ZM283.501 39V17.1818H289.552V39H283.501ZM286.54 14.3693C285.641 14.3693 284.869 14.071 284.225 13.4744C283.591 12.8684 283.273 12.1439 283.273 11.3011C283.273 10.4678 283.591 9.75284 284.225 9.15625C284.869 8.55019 285.641 8.24716 286.54 8.24716C287.44 8.24716 288.207 8.55019 288.842 9.15625C289.486 9.75284 289.808 10.4678 289.808 11.3011C289.808 12.1439 289.486 12.8684 288.842 13.4744C288.207 14.071 287.44 14.3693 286.54 14.3693ZM306.004 17.1818V21.7273H292.865V17.1818H306.004ZM295.848 11.9545H301.899V32.2955C301.899 32.8542 301.984 33.2898 302.155 33.6023C302.325 33.9053 302.562 34.1184 302.865 34.2415C303.178 34.3646 303.537 34.4261 303.945 34.4261C304.229 34.4261 304.513 34.4025 304.797 34.3551C305.081 34.2983 305.299 34.2557 305.45 34.2273L306.402 38.7301C306.099 38.8248 305.673 38.9337 305.124 39.0568C304.574 39.1894 303.907 39.2699 303.121 39.2983C301.662 39.3551 300.384 39.161 299.286 38.7159C298.196 38.2708 297.349 37.5795 296.743 36.642C296.137 35.7045 295.839 34.5208 295.848 33.0909V11.9545ZM313.682 47.1818C312.915 47.1818 312.195 47.1203 311.523 46.9972C310.86 46.8835 310.311 46.7367 309.875 46.5568L311.239 42.0398C311.949 42.2576 312.588 42.3759 313.156 42.3949C313.734 42.4138 314.231 42.2813 314.648 41.9972C315.074 41.7131 315.42 41.2301 315.685 40.5483L316.04 39.625L308.213 17.1818H314.577L319.094 33.2045H319.321L323.881 17.1818H330.287L321.807 41.358C321.4 42.5322 320.846 43.5549 320.145 44.4261C319.454 45.3068 318.578 45.9839 317.517 46.4574C316.456 46.9403 315.178 47.1818 313.682 47.1818Z" fill="white"/>
<path d="M0.03125 46.9545H198.077V49.6818H0.03125V46.9545ZM209.587 46.9545H308.562V49.6818H209.587V46.9545ZM318.712 46.9545H330.969V49.6818H318.712V46.9545Z" fill="white"/>
<line x1="86" y1="148.5" x2="140" y2="148.5" stroke="white" stroke-width="3"/>
</svg>
