<svg width="200" height="200" viewBox="0 0 200 200" fill="none" xmlns="http://www.w3.org/2000/svg">
<path d="M70.475 181.25L74.1875 193.75H0L47.6312 104.437L52.7 121.5L20.8312 181.25H70.475ZM180.75 193.75L149.581 90.0125C143.426 69.4959 130.845 51.4979 113.692 38.6688C96.5391 25.8396 75.7198 18.8573 54.3 18.75L65.55 56.25H52.5L37.5 6.25H53.7938C77.9883 6.24994 101.538 14.0499 120.949 28.4925C140.36 42.9351 154.598 63.2507 161.55 86.425L193.75 193.75H180.75Z" fill="#46BBA5"/>
<path d="M75.2312 87.625L103.075 181.25H145.744L131.162 132.194C127.518 119.936 120.202 109.091 110.2 101.123C100.199 93.1539 87.9933 88.4388 75.2312 87.625ZM58.4375 75H71.25C87.4124 74.9995 103.143 80.2201 116.097 89.8842C129.052 99.5483 138.539 113.139 143.144 128.631L162.5 193.75H93.75L58.4375 75Z" fill="#E2E2E2"/>
</svg>
