<svg width="707" height="448" viewBox="0 0 707 448" fill="none" xmlns="http://www.w3.org/2000/svg">
<rect x="516" y="112" width="136" height="136" rx="27" stroke="#DBDBDB" stroke-width="2" stroke-dasharray="20 20"/>
<rect x="360" y="112" width="136" height="136" rx="27" stroke="#DBDBDB" stroke-width="2" stroke-dasharray="20 20"/>
<rect x="1" y="82" width="705" height="197" rx="27" stroke="#DBDBDB" stroke-width="2"/>
<rect x="204" y="112" width="136" height="136" rx="27" stroke="#DBDBDB" stroke-width="2" stroke-dasharray="20 20"/>
<rect x="48" y="112" width="136" height="136" rx="27" stroke="#DBDBDB" stroke-width="2" stroke-dasharray="20 20"/>
<path d="M589.568 181.966V185.091H576.841V181.966H589.568Z" fill="white"/>
<path d="M433.568 181.966V185.091H420.841V181.966H433.568Z" fill="white"/>
<path d="M277.568 181.966V185.091H264.841V181.966H277.568Z" fill="white"/>
<path d="M121.568 181.966V185.091H108.841V181.966H121.568Z" fill="white"/>
<path d="M41.9759 391V361.909H45.4986V387.875H59.0213V391H41.9759ZM72.8849 391.455C70.9152 391.455 69.187 390.986 67.7003 390.048C66.223 389.111 65.0677 387.799 64.2344 386.114C63.4105 384.428 62.9986 382.458 62.9986 380.205C62.9986 377.932 63.4105 375.948 64.2344 374.253C65.0677 372.558 66.223 371.241 67.7003 370.304C69.187 369.366 70.9152 368.898 72.8849 368.898C74.8546 368.898 76.5781 369.366 78.0554 370.304C79.5421 371.241 80.6974 372.558 81.5213 374.253C82.3546 375.948 82.7713 377.932 82.7713 380.205C82.7713 382.458 82.3546 384.428 81.5213 386.114C80.6974 387.799 79.5421 389.111 78.0554 390.048C76.5781 390.986 74.8546 391.455 72.8849 391.455ZM72.8849 388.443C74.3812 388.443 75.6122 388.06 76.5781 387.293C77.544 386.526 78.259 385.517 78.723 384.267C79.187 383.017 79.419 381.663 79.419 380.205C79.419 378.746 79.187 377.387 78.723 376.128C78.259 374.868 77.544 373.85 76.5781 373.074C75.6122 372.297 74.3812 371.909 72.8849 371.909C71.3887 371.909 70.1577 372.297 69.1918 373.074C68.2259 373.85 67.5109 374.868 67.0469 376.128C66.5829 377.387 66.3509 378.746 66.3509 380.205C66.3509 381.663 66.5829 383.017 67.0469 384.267C67.5109 385.517 68.2259 386.526 69.1918 387.293C70.1577 388.06 71.3887 388.443 72.8849 388.443ZM92.0895 391L85.4418 369.182H88.9645L93.6804 385.886H93.9077L98.5668 369.182H102.146L106.749 385.83H106.976L111.692 369.182H115.214L108.567 391H105.271L100.499 374.239H100.158L95.3849 391H92.0895ZM128.052 391.455C125.95 391.455 124.136 390.991 122.612 390.062C121.096 389.125 119.927 387.818 119.103 386.142C118.289 384.456 117.881 382.496 117.881 380.261C117.881 378.027 118.289 376.057 119.103 374.352C119.927 372.638 121.073 371.303 122.54 370.347C124.018 369.381 125.741 368.898 127.711 368.898C128.847 368.898 129.969 369.087 131.077 369.466C132.185 369.845 133.194 370.46 134.103 371.312C135.012 372.155 135.737 373.273 136.276 374.665C136.816 376.057 137.086 377.771 137.086 379.807V381.227H120.268V378.33H133.677C133.677 377.098 133.431 376 132.938 375.034C132.455 374.068 131.764 373.306 130.864 372.747C129.974 372.188 128.923 371.909 127.711 371.909C126.376 371.909 125.22 372.241 124.245 372.903C123.279 373.557 122.536 374.409 122.015 375.46C121.494 376.511 121.234 377.638 121.234 378.841V380.773C121.234 382.42 121.518 383.817 122.086 384.963C122.664 386.099 123.464 386.966 124.487 387.562C125.509 388.15 126.698 388.443 128.052 388.443C128.933 388.443 129.728 388.32 130.438 388.074C131.158 387.818 131.778 387.439 132.299 386.938C132.82 386.426 133.222 385.792 133.506 385.034L136.745 385.943C136.404 387.042 135.831 388.008 135.026 388.841C134.221 389.665 133.227 390.309 132.043 390.773C130.86 391.227 129.529 391.455 128.052 391.455ZM157.64 374.068L154.629 374.92C154.439 374.419 154.16 373.931 153.79 373.457C153.431 372.974 152.938 372.577 152.313 372.264C151.688 371.952 150.888 371.795 149.913 371.795C148.577 371.795 147.465 372.103 146.575 372.719C145.694 373.325 145.254 374.097 145.254 375.034C145.254 375.867 145.557 376.526 146.163 377.009C146.769 377.491 147.716 377.894 149.004 378.216L152.242 379.011C154.193 379.485 155.647 380.209 156.603 381.185C157.559 382.151 158.038 383.396 158.038 384.92C158.038 386.17 157.678 387.288 156.958 388.273C156.248 389.258 155.254 390.034 153.975 390.602C152.697 391.17 151.21 391.455 149.515 391.455C147.29 391.455 145.448 390.972 143.989 390.006C142.531 389.04 141.608 387.629 141.219 385.773L144.401 384.977C144.704 386.152 145.277 387.032 146.12 387.619C146.972 388.206 148.085 388.5 149.458 388.5C151.021 388.5 152.261 388.169 153.18 387.506C154.108 386.833 154.572 386.028 154.572 385.091C154.572 384.333 154.307 383.699 153.776 383.188C153.246 382.667 152.432 382.278 151.333 382.023L147.697 381.17C145.699 380.697 144.231 379.963 143.293 378.969C142.365 377.965 141.901 376.71 141.901 375.205C141.901 373.973 142.247 372.884 142.938 371.938C143.639 370.991 144.591 370.247 145.793 369.707C147.005 369.168 148.379 368.898 149.913 368.898C152.072 368.898 153.767 369.371 154.998 370.318C156.238 371.265 157.119 372.515 157.64 374.068ZM172.572 369.182V372.023H161.266V369.182H172.572ZM164.561 363.955H167.913V384.75C167.913 385.697 168.051 386.407 168.325 386.881C168.609 387.345 168.969 387.657 169.405 387.818C169.85 387.97 170.319 388.045 170.811 388.045C171.18 388.045 171.483 388.027 171.72 387.989C171.957 387.941 172.146 387.903 172.288 387.875L172.97 390.886C172.743 390.972 172.426 391.057 172.018 391.142C171.611 391.237 171.095 391.284 170.47 391.284C169.523 391.284 168.595 391.08 167.686 390.673C166.786 390.266 166.038 389.646 165.442 388.812C164.855 387.979 164.561 386.928 164.561 385.659V363.955ZM42.6204 439V409.909H52.4499C54.7321 409.909 56.5977 410.321 58.0465 411.145C59.5049 411.959 60.5844 413.062 61.2852 414.455C61.9859 415.847 62.3363 417.4 62.3363 419.114C62.3363 420.828 61.9859 422.385 61.2852 423.787C60.5939 425.188 59.5238 426.306 58.0749 427.139C56.6261 427.963 54.77 428.375 52.5067 428.375H45.4613V425.25H52.3931C53.9556 425.25 55.2103 424.98 56.1573 424.44C57.1043 423.901 57.7908 423.171 58.217 422.253C58.6526 421.325 58.8704 420.278 58.8704 419.114C58.8704 417.949 58.6526 416.907 58.217 415.989C57.7908 415.07 57.0996 414.35 56.1431 413.83C55.1867 413.299 53.9177 413.034 52.3363 413.034H46.1431V439H42.6204ZM67.5565 439V417.182H70.7951V420.477H71.0224C71.4201 419.398 72.1398 418.522 73.1815 417.849C74.2231 417.177 75.3974 416.841 76.7042 416.841C76.9504 416.841 77.2582 416.846 77.6275 416.855C77.9968 416.865 78.2762 416.879 78.4656 416.898V420.307C78.3519 420.278 78.0915 420.236 77.6843 420.179C77.2866 420.113 76.8652 420.08 76.4201 420.08C75.3595 420.08 74.4125 420.302 73.5792 420.747C72.7553 421.183 72.1019 421.789 71.619 422.565C71.1455 423.332 70.9087 424.208 70.9087 425.193V439H67.5565ZM82.4393 439V417.182H85.7915V439H82.4393ZM84.1438 413.545C83.4904 413.545 82.927 413.323 82.4535 412.878C81.9895 412.433 81.7575 411.898 81.7575 411.273C81.7575 410.648 81.9895 410.113 82.4535 409.668C82.927 409.223 83.4904 409 84.1438 409C84.7972 409 85.3559 409.223 85.82 409.668C86.2934 410.113 86.5302 410.648 86.5302 411.273C86.5302 411.898 86.2934 412.433 85.82 412.878C85.3559 413.323 84.7972 413.545 84.1438 413.545ZM100.795 439.455C98.8254 439.455 97.0972 438.986 95.6104 438.048C94.1332 437.111 92.9779 435.799 92.1445 434.114C91.3207 432.428 90.9087 430.458 90.9087 428.205C90.9087 425.932 91.3207 423.948 92.1445 422.253C92.9779 420.558 94.1332 419.241 95.6104 418.304C97.0972 417.366 98.8254 416.898 100.795 416.898C102.765 416.898 104.488 417.366 105.966 418.304C107.452 419.241 108.608 420.558 109.431 422.253C110.265 423.948 110.681 425.932 110.681 428.205C110.681 430.458 110.265 432.428 109.431 434.114C108.608 435.799 107.452 437.111 105.966 438.048C104.488 438.986 102.765 439.455 100.795 439.455ZM100.795 436.443C102.291 436.443 103.522 436.06 104.488 435.293C105.454 434.526 106.169 433.517 106.633 432.267C107.097 431.017 107.329 429.663 107.329 428.205C107.329 426.746 107.097 425.387 106.633 424.128C106.169 422.868 105.454 421.85 104.488 421.074C103.522 420.297 102.291 419.909 100.795 419.909C99.2989 419.909 98.0678 420.297 97.1019 421.074C96.136 421.85 95.421 422.868 94.957 424.128C94.493 425.387 94.261 426.746 94.261 428.205C94.261 429.663 94.493 431.017 94.957 432.267C95.421 433.517 96.136 434.526 97.1019 435.293C98.0678 436.06 99.2989 436.443 100.795 436.443ZM115.799 439V417.182H119.037V420.477H119.265C119.662 419.398 120.382 418.522 121.424 417.849C122.465 417.177 123.64 416.841 124.946 416.841C125.193 416.841 125.5 416.846 125.87 416.855C126.239 416.865 126.518 416.879 126.708 416.898V420.307C126.594 420.278 126.334 420.236 125.926 420.179C125.529 420.113 125.107 420.08 124.662 420.08C123.602 420.08 122.655 420.302 121.821 420.747C120.998 421.183 120.344 421.789 119.861 422.565C119.388 423.332 119.151 424.208 119.151 425.193V439H115.799ZM130.681 439V417.182H134.034V439H130.681ZM132.386 413.545C131.733 413.545 131.169 413.323 130.696 412.878C130.232 412.433 130 411.898 130 411.273C130 410.648 130.232 410.113 130.696 409.668C131.169 409.223 131.733 409 132.386 409C133.039 409 133.598 409.223 134.062 409.668C134.536 410.113 134.772 410.648 134.772 411.273C134.772 411.898 134.536 412.433 134.062 412.878C133.598 413.323 133.039 413.545 132.386 413.545ZM149.662 417.182V420.023H138.355V417.182H149.662ZM141.651 411.955H145.003V432.75C145.003 433.697 145.141 434.407 145.415 434.881C145.699 435.345 146.059 435.657 146.495 435.818C146.94 435.97 147.408 436.045 147.901 436.045C148.27 436.045 148.573 436.027 148.81 435.989C149.047 435.941 149.236 435.903 149.378 435.875L150.06 438.886C149.833 438.972 149.516 439.057 149.108 439.142C148.701 439.237 148.185 439.284 147.56 439.284C146.613 439.284 145.685 439.08 144.776 438.673C143.876 438.266 143.128 437.646 142.532 436.812C141.944 435.979 141.651 434.928 141.651 433.659V411.955ZM156.864 447.182C156.296 447.182 155.789 447.134 155.344 447.04C154.899 446.955 154.591 446.869 154.421 446.784L155.273 443.83C156.087 444.038 156.807 444.114 157.432 444.057C158.057 444 158.611 443.721 159.094 443.219C159.587 442.726 160.036 441.926 160.444 440.818L161.069 439.114L153 417.182H156.637L162.659 434.568H162.887L168.909 417.182H172.546L163.284 442.182C162.868 443.309 162.352 444.241 161.736 444.98C161.121 445.728 160.406 446.282 159.591 446.642C158.786 447.002 157.877 447.182 156.864 447.182Z" fill="#717171"/>
<path d="M533.113 391V361.909H536.635V374.864H552.147V361.909H555.669V391H552.147V377.989H536.635V391H533.113ZM562.267 391V369.182H565.62V391H562.267ZM563.972 365.545C563.319 365.545 562.755 365.323 562.282 364.878C561.818 364.433 561.586 363.898 561.586 363.273C561.586 362.648 561.818 362.113 562.282 361.668C562.755 361.223 563.319 361 563.972 361C564.625 361 565.184 361.223 565.648 361.668C566.122 362.113 566.358 362.648 566.358 363.273C566.358 363.898 566.122 364.433 565.648 364.878C565.184 365.323 564.625 365.545 563.972 365.545ZM580.566 399.636C578.947 399.636 577.555 399.428 576.39 399.011C575.225 398.604 574.255 398.064 573.478 397.392C572.711 396.729 572.1 396.019 571.646 395.261L574.316 393.386C574.619 393.784 575.003 394.239 575.467 394.75C575.931 395.271 576.565 395.721 577.37 396.099C578.185 396.488 579.25 396.682 580.566 396.682C582.328 396.682 583.781 396.256 584.927 395.403C586.073 394.551 586.646 393.216 586.646 391.398V386.966H586.362C586.116 387.364 585.765 387.856 585.311 388.443C584.866 389.021 584.222 389.537 583.379 389.991C582.546 390.437 581.419 390.659 579.998 390.659C578.237 390.659 576.655 390.242 575.254 389.409C573.862 388.576 572.759 387.364 571.944 385.773C571.139 384.182 570.737 382.25 570.737 379.977C570.737 377.742 571.13 375.796 571.916 374.139C572.702 372.473 573.796 371.185 575.197 370.276C576.599 369.357 578.218 368.898 580.055 368.898C581.475 368.898 582.602 369.134 583.436 369.608C584.279 370.072 584.922 370.602 585.368 371.199C585.822 371.786 586.172 372.269 586.419 372.648H586.76V369.182H589.998V391.625C589.998 393.5 589.572 395.025 588.72 396.199C587.877 397.383 586.741 398.249 585.311 398.798C583.89 399.357 582.309 399.636 580.566 399.636ZM580.453 387.648C581.797 387.648 582.934 387.34 583.862 386.724C584.79 386.109 585.495 385.223 585.978 384.068C586.461 382.913 586.703 381.53 586.703 379.92C586.703 378.348 586.466 376.961 585.993 375.759C585.519 374.556 584.818 373.614 583.89 372.932C582.962 372.25 581.816 371.909 580.453 371.909C579.032 371.909 577.849 372.269 576.902 372.989C575.964 373.708 575.259 374.674 574.785 375.886C574.321 377.098 574.089 378.443 574.089 379.92C574.089 381.436 574.326 382.776 574.799 383.94C575.282 385.096 575.993 386.005 576.93 386.668C577.877 387.321 579.051 387.648 580.453 387.648ZM599.487 377.875V391H596.135V361.909H599.487V372.591H599.771C600.282 371.464 601.049 370.569 602.072 369.906C603.104 369.234 604.477 368.898 606.191 368.898C607.678 368.898 608.98 369.196 610.098 369.793C611.215 370.38 612.082 371.284 612.697 372.506C613.322 373.718 613.635 375.261 613.635 377.136V391H610.282V377.364C610.282 375.631 609.833 374.291 608.933 373.344C608.043 372.387 606.807 371.909 605.225 371.909C604.127 371.909 603.142 372.141 602.271 372.605C601.409 373.069 600.727 373.746 600.225 374.636C599.733 375.527 599.487 376.606 599.487 377.875ZM628.915 391.455C626.813 391.455 624.999 390.991 623.475 390.062C621.96 389.125 620.79 387.818 619.966 386.142C619.152 384.456 618.745 382.496 618.745 380.261C618.745 378.027 619.152 376.057 619.966 374.352C620.79 372.638 621.936 371.303 623.404 370.347C624.881 369.381 626.605 368.898 628.574 368.898C629.711 368.898 630.833 369.087 631.941 369.466C633.049 369.845 634.057 370.46 634.966 371.312C635.875 372.155 636.6 373.273 637.14 374.665C637.679 376.057 637.949 377.771 637.949 379.807V381.227H621.131V378.33H634.54C634.54 377.098 634.294 376 633.801 375.034C633.319 374.068 632.627 373.306 631.728 372.747C630.837 372.188 629.786 371.909 628.574 371.909C627.239 371.909 626.084 372.241 625.108 372.903C624.142 373.557 623.399 374.409 622.878 375.46C622.357 376.511 622.097 377.638 622.097 378.841V380.773C622.097 382.42 622.381 383.817 622.949 384.963C623.527 386.099 624.327 386.966 625.35 387.562C626.373 388.15 627.561 388.443 628.915 388.443C629.796 388.443 630.591 388.32 631.301 388.074C632.021 387.818 632.641 387.439 633.162 386.938C633.683 386.426 634.086 385.792 634.37 385.034L637.608 385.943C637.267 387.042 636.694 388.008 635.89 388.841C635.085 389.665 634.09 390.309 632.907 390.773C631.723 391.227 630.392 391.455 628.915 391.455ZM658.503 374.068L655.492 374.92C655.302 374.419 655.023 373.931 654.654 373.457C654.294 372.974 653.801 372.577 653.176 372.264C652.551 371.952 651.751 371.795 650.776 371.795C649.441 371.795 648.328 372.103 647.438 372.719C646.557 373.325 646.117 374.097 646.117 375.034C646.117 375.867 646.42 376.526 647.026 377.009C647.632 377.491 648.579 377.894 649.867 378.216L653.105 379.011C655.056 379.485 656.51 380.209 657.466 381.185C658.423 382.151 658.901 383.396 658.901 384.92C658.901 386.17 658.541 387.288 657.821 388.273C657.111 389.258 656.117 390.034 654.838 390.602C653.56 391.17 652.073 391.455 650.378 391.455C648.153 391.455 646.311 390.972 644.853 390.006C643.394 389.04 642.471 387.629 642.083 385.773L645.265 384.977C645.568 386.152 646.141 387.032 646.983 387.619C647.836 388.206 648.948 388.5 650.321 388.5C651.884 388.5 653.124 388.169 654.043 387.506C654.971 386.833 655.435 386.028 655.435 385.091C655.435 384.333 655.17 383.699 654.64 383.188C654.109 382.667 653.295 382.278 652.196 382.023L648.56 381.17C646.562 380.697 645.094 379.963 644.157 378.969C643.229 377.965 642.765 376.71 642.765 375.205C642.765 373.973 643.11 372.884 643.801 371.938C644.502 370.991 645.454 370.247 646.657 369.707C647.869 369.168 649.242 368.898 650.776 368.898C652.935 368.898 654.63 369.371 655.861 370.318C657.102 371.265 657.982 372.515 658.503 374.068ZM673.436 369.182V372.023H662.129V369.182H673.436ZM665.424 363.955H668.777V384.75C668.777 385.697 668.914 386.407 669.189 386.881C669.473 387.345 669.833 387.657 670.268 387.818C670.713 387.97 671.182 388.045 671.674 388.045C672.044 388.045 672.347 388.027 672.583 387.989C672.82 387.941 673.01 387.903 673.152 387.875L673.833 390.886C673.606 390.972 673.289 391.057 672.882 391.142C672.475 391.237 671.958 391.284 671.333 391.284C670.386 391.284 669.458 391.08 668.549 390.673C667.65 390.266 666.902 389.646 666.305 388.812C665.718 387.979 665.424 386.928 665.424 385.659V363.955ZM538.62 439V409.909H548.45C550.732 409.909 552.598 410.321 554.047 411.145C555.505 411.959 556.584 413.062 557.285 414.455C557.986 415.847 558.336 417.4 558.336 419.114C558.336 420.828 557.986 422.385 557.285 423.787C556.594 425.188 555.524 426.306 554.075 427.139C552.626 427.963 550.77 428.375 548.507 428.375H541.461V425.25H548.393C549.956 425.25 551.21 424.98 552.157 424.44C553.104 423.901 553.791 423.171 554.217 422.253C554.653 421.325 554.87 420.278 554.87 419.114C554.87 417.949 554.653 416.907 554.217 415.989C553.791 415.07 553.1 414.35 552.143 413.83C551.187 413.299 549.918 413.034 548.336 413.034H542.143V439H538.62ZM563.556 439V417.182H566.795V420.477H567.022C567.42 419.398 568.14 418.522 569.181 417.849C570.223 417.177 571.397 416.841 572.704 416.841C572.95 416.841 573.258 416.846 573.627 416.855C573.997 416.865 574.276 416.879 574.466 416.898V420.307C574.352 420.278 574.092 420.236 573.684 420.179C573.287 420.113 572.865 420.08 572.42 420.08C571.359 420.08 570.413 420.302 569.579 420.747C568.755 421.183 568.102 421.789 567.619 422.565C567.145 423.332 566.909 424.208 566.909 425.193V439H563.556ZM578.439 439V417.182H581.792V439H578.439ZM580.144 413.545C579.49 413.545 578.927 413.323 578.453 412.878C577.989 412.433 577.757 411.898 577.757 411.273C577.757 410.648 577.989 410.113 578.453 409.668C578.927 409.223 579.49 409 580.144 409C580.797 409 581.356 409.223 581.82 409.668C582.293 410.113 582.53 410.648 582.53 411.273C582.53 411.898 582.293 412.433 581.82 412.878C581.356 413.323 580.797 413.545 580.144 413.545ZM596.795 439.455C594.825 439.455 593.097 438.986 591.61 438.048C590.133 437.111 588.978 435.799 588.145 434.114C587.321 432.428 586.909 430.458 586.909 428.205C586.909 425.932 587.321 423.948 588.145 422.253C588.978 420.558 590.133 419.241 591.61 418.304C593.097 417.366 594.825 416.898 596.795 416.898C598.765 416.898 600.488 417.366 601.966 418.304C603.452 419.241 604.608 420.558 605.431 422.253C606.265 423.948 606.681 425.932 606.681 428.205C606.681 430.458 606.265 432.428 605.431 434.114C604.608 435.799 603.452 437.111 601.966 438.048C600.488 438.986 598.765 439.455 596.795 439.455ZM596.795 436.443C598.291 436.443 599.522 436.06 600.488 435.293C601.454 434.526 602.169 433.517 602.633 432.267C603.097 431.017 603.329 429.663 603.329 428.205C603.329 426.746 603.097 425.387 602.633 424.128C602.169 422.868 601.454 421.85 600.488 421.074C599.522 420.297 598.291 419.909 596.795 419.909C595.299 419.909 594.068 420.297 593.102 421.074C592.136 421.85 591.421 422.868 590.957 424.128C590.493 425.387 590.261 426.746 590.261 428.205C590.261 429.663 590.493 431.017 590.957 432.267C591.421 433.517 592.136 434.526 593.102 435.293C594.068 436.06 595.299 436.443 596.795 436.443ZM611.799 439V417.182H615.037V420.477H615.265C615.662 419.398 616.382 418.522 617.424 417.849C618.465 417.177 619.64 416.841 620.946 416.841C621.193 416.841 621.5 416.846 621.87 416.855C622.239 416.865 622.518 416.879 622.708 416.898V420.307C622.594 420.278 622.334 420.236 621.926 420.179C621.529 420.113 621.107 420.08 620.662 420.08C619.602 420.08 618.655 420.302 617.821 420.747C616.998 421.183 616.344 421.789 615.861 422.565C615.388 423.332 615.151 424.208 615.151 425.193V439H611.799ZM626.681 439V417.182H630.034V439H626.681ZM628.386 413.545C627.733 413.545 627.169 413.323 626.696 412.878C626.232 412.433 626 411.898 626 411.273C626 410.648 626.232 410.113 626.696 409.668C627.169 409.223 627.733 409 628.386 409C629.039 409 629.598 409.223 630.062 409.668C630.536 410.113 630.772 410.648 630.772 411.273C630.772 411.898 630.536 412.433 630.062 412.878C629.598 413.323 629.039 413.545 628.386 413.545ZM645.662 417.182V420.023H634.355V417.182H645.662ZM637.651 411.955H641.003V432.75C641.003 433.697 641.141 434.407 641.415 434.881C641.699 435.345 642.059 435.657 642.495 435.818C642.94 435.97 643.408 436.045 643.901 436.045C644.27 436.045 644.573 436.027 644.81 435.989C645.047 435.941 645.236 435.903 645.378 435.875L646.06 438.886C645.833 438.972 645.516 439.057 645.108 439.142C644.701 439.237 644.185 439.284 643.56 439.284C642.613 439.284 641.685 439.08 640.776 438.673C639.876 438.266 639.128 437.646 638.532 436.812C637.944 435.979 637.651 434.928 637.651 433.659V411.955ZM652.864 447.182C652.296 447.182 651.789 447.134 651.344 447.04C650.899 446.955 650.591 446.869 650.421 446.784L651.273 443.83C652.087 444.038 652.807 444.114 653.432 444.057C654.057 444 654.611 443.721 655.094 443.219C655.587 442.726 656.036 441.926 656.444 440.818L657.069 439.114L649 417.182H652.637L658.659 434.568H658.887L664.909 417.182H668.546L659.284 442.182C658.868 443.309 658.352 444.241 657.736 444.98C657.121 445.728 656.406 446.282 655.591 446.642C654.786 447.002 653.877 447.182 652.864 447.182Z" fill="#717171"/>
<path d="M222.238 39V9.90909H232.067C234.349 9.90909 236.215 10.321 237.664 11.1449C239.122 11.9593 240.202 13.0625 240.902 14.4545C241.603 15.8466 241.953 17.3996 241.953 19.1136C241.953 20.8277 241.603 22.3854 240.902 23.7869C240.211 25.1884 239.141 26.3059 237.692 27.1392C236.243 27.9631 234.387 28.375 232.124 28.375H225.078V25.25H232.01C233.573 25.25 234.828 24.9801 235.775 24.4403C236.721 23.9006 237.408 23.1714 237.834 22.2528C238.27 21.3248 238.488 20.2784 238.488 19.1136C238.488 17.9489 238.27 16.9072 237.834 15.9886C237.408 15.0701 236.717 14.3504 235.76 13.8295C234.804 13.2992 233.535 13.0341 231.953 13.0341H225.76V39H222.238ZM247.174 39V17.1818H250.412V20.4773H250.64C251.037 19.3977 251.757 18.5218 252.799 17.8494C253.84 17.1771 255.015 16.8409 256.321 16.8409C256.568 16.8409 256.875 16.8456 257.245 16.8551C257.614 16.8646 257.893 16.8788 258.083 16.8977V20.3068C257.969 20.2784 257.709 20.2358 257.301 20.179C256.904 20.1127 256.482 20.0795 256.037 20.0795C254.977 20.0795 254.03 20.3021 253.196 20.7472C252.373 21.1828 251.719 21.7888 251.236 22.5653C250.763 23.3324 250.526 24.2083 250.526 25.1932V39H247.174ZM262.056 39V17.1818H265.409V39H262.056ZM263.761 13.5455C263.108 13.5455 262.544 13.3229 262.071 12.8778C261.607 12.4328 261.375 11.8977 261.375 11.2727C261.375 10.6477 261.607 10.1127 262.071 9.66761C262.544 9.22254 263.108 9 263.761 9C264.414 9 264.973 9.22254 265.437 9.66761C265.911 10.1127 266.147 10.6477 266.147 11.2727C266.147 11.8977 265.911 12.4328 265.437 12.8778C264.973 13.3229 264.414 13.5455 263.761 13.5455ZM280.412 39.4545C278.443 39.4545 276.714 38.9858 275.228 38.0483C273.75 37.1108 272.595 35.7992 271.762 34.1136C270.938 32.428 270.526 30.4583 270.526 28.2045C270.526 25.9318 270.938 23.9479 271.762 22.2528C272.595 20.5578 273.75 19.2415 275.228 18.304C276.714 17.3665 278.443 16.8977 280.412 16.8977C282.382 16.8977 284.105 17.3665 285.583 18.304C287.069 19.2415 288.225 20.5578 289.049 22.2528C289.882 23.9479 290.299 25.9318 290.299 28.2045C290.299 30.4583 289.882 32.428 289.049 34.1136C288.225 35.7992 287.069 37.1108 285.583 38.0483C284.105 38.9858 282.382 39.4545 280.412 39.4545ZM280.412 36.4432C281.908 36.4432 283.14 36.0597 284.105 35.2926C285.071 34.5256 285.786 33.517 286.25 32.267C286.714 31.017 286.946 29.6629 286.946 28.2045C286.946 26.7462 286.714 25.3873 286.25 24.1278C285.786 22.8684 285.071 21.8504 284.105 21.0739C283.14 20.2973 281.908 19.9091 280.412 19.9091C278.916 19.9091 277.685 20.2973 276.719 21.0739C275.753 21.8504 275.038 22.8684 274.574 24.1278C274.11 25.3873 273.878 26.7462 273.878 28.2045C273.878 29.6629 274.11 31.017 274.574 32.267C275.038 33.517 275.753 34.5256 276.719 35.2926C277.685 36.0597 278.916 36.4432 280.412 36.4432ZM295.416 39V17.1818H298.654V20.4773H298.882C299.279 19.3977 299.999 18.5218 301.041 17.8494C302.083 17.1771 303.257 16.8409 304.564 16.8409C304.81 16.8409 305.118 16.8456 305.487 16.8551C305.856 16.8646 306.136 16.8788 306.325 16.8977V20.3068C306.211 20.2784 305.951 20.2358 305.544 20.179C305.146 20.1127 304.725 20.0795 304.279 20.0795C303.219 20.0795 302.272 20.3021 301.439 20.7472C300.615 21.1828 299.961 21.7888 299.478 22.5653C299.005 23.3324 298.768 24.2083 298.768 25.1932V39H295.416ZM310.299 39V17.1818H313.651V39H310.299ZM312.003 13.5455C311.35 13.5455 310.786 13.3229 310.313 12.8778C309.849 12.4328 309.617 11.8977 309.617 11.2727C309.617 10.6477 309.849 10.1127 310.313 9.66761C310.786 9.22254 311.35 9 312.003 9C312.657 9 313.215 9.22254 313.679 9.66761C314.153 10.1127 314.39 10.6477 314.39 11.2727C314.39 11.8977 314.153 12.4328 313.679 12.8778C313.215 13.3229 312.657 13.5455 312.003 13.5455ZM329.279 17.1818V20.0227H317.973V17.1818H329.279ZM321.268 11.9545H324.62V32.75C324.62 33.697 324.758 34.4072 325.032 34.8807C325.316 35.3447 325.676 35.6572 326.112 35.8182C326.557 35.9697 327.026 36.0455 327.518 36.0455C327.887 36.0455 328.19 36.0265 328.427 35.9886C328.664 35.9413 328.853 35.9034 328.995 35.875L329.677 38.8864C329.45 38.9716 329.133 39.0568 328.725 39.142C328.318 39.2367 327.802 39.2841 327.177 39.2841C326.23 39.2841 325.302 39.0805 324.393 38.6733C323.493 38.2661 322.745 37.6458 322.149 36.8125C321.562 35.9792 321.268 34.928 321.268 33.6591V11.9545ZM336.481 47.1818C335.913 47.1818 335.406 47.1345 334.961 47.0398C334.516 46.9545 334.208 46.8693 334.038 46.7841L334.89 43.8295C335.705 44.0379 336.424 44.1136 337.049 44.0568C337.674 44 338.228 43.7206 338.711 43.2188C339.204 42.7263 339.654 41.9261 340.061 40.8182L340.686 39.1136L332.618 17.1818H336.254L342.277 34.5682H342.504L348.527 17.1818H352.163L342.902 42.1818C342.485 43.3087 341.969 44.2415 341.353 44.9801C340.738 45.7282 340.023 46.2822 339.208 46.642C338.404 47.0019 337.494 47.1818 336.481 47.1818ZM378.86 29.9091H382.724L385.963 34.1705L386.815 35.3068L391.645 41.7273H387.781L384.599 37.4659L383.804 36.3864L378.86 29.9091ZM392.838 24.4545C392.838 27.5227 392.284 30.1742 391.176 32.4091C390.068 34.6439 388.548 36.3674 386.616 37.5795C384.684 38.7917 382.478 39.3977 379.997 39.3977C377.516 39.3977 375.309 38.7917 373.377 37.5795C371.446 36.3674 369.926 34.6439 368.818 32.4091C367.71 30.1742 367.156 27.5227 367.156 24.4545C367.156 21.3864 367.71 18.7348 368.818 16.5C369.926 14.2652 371.446 12.5417 373.377 11.3295C375.309 10.1174 377.516 9.51136 379.997 9.51136C382.478 9.51136 384.684 10.1174 386.616 11.3295C388.548 12.5417 390.068 14.2652 391.176 16.5C392.284 18.7348 392.838 21.3864 392.838 24.4545ZM389.429 24.4545C389.429 21.9356 389.007 19.8097 388.164 18.0767C387.331 16.3438 386.199 15.0322 384.77 14.142C383.349 13.2519 381.758 12.8068 379.997 12.8068C378.235 12.8068 376.64 13.2519 375.21 14.142C373.789 15.0322 372.658 16.3438 371.815 18.0767C370.982 19.8097 370.565 21.9356 370.565 24.4545C370.565 26.9735 370.982 29.0994 371.815 30.8324C372.658 32.5653 373.789 33.8769 375.21 34.767C376.64 35.6572 378.235 36.1023 379.997 36.1023C381.758 36.1023 383.349 35.6572 384.77 34.767C386.199 33.8769 387.331 32.5653 388.164 30.8324C389.007 29.0994 389.429 26.9735 389.429 24.4545ZM412.056 30.0795V17.1818H415.409V39H412.056V35.3068H411.829C411.318 36.4148 410.522 37.357 409.443 38.1335C408.363 38.9006 407 39.2841 405.352 39.2841C403.988 39.2841 402.776 38.9858 401.716 38.3892C400.655 37.7831 399.822 36.8741 399.216 35.6619C398.609 34.4403 398.306 32.9015 398.306 31.0455V17.1818H401.659V30.8182C401.659 32.4091 402.104 33.678 402.994 34.625C403.894 35.572 405.039 36.0455 406.431 36.0455C407.265 36.0455 408.112 35.8324 408.974 35.4062C409.845 34.9801 410.574 34.3267 411.162 33.446C411.758 32.5653 412.056 31.4432 412.056 30.0795ZM430.696 39.4545C428.594 39.4545 426.781 38.9905 425.256 38.0625C423.741 37.125 422.571 35.8182 421.748 34.142C420.933 32.4564 420.526 30.4962 420.526 28.2614C420.526 26.0265 420.933 24.0568 421.748 22.3523C422.571 20.6383 423.717 19.303 425.185 18.3466C426.662 17.3807 428.386 16.8977 430.355 16.8977C431.492 16.8977 432.614 17.0871 433.722 17.4659C434.83 17.8447 435.838 18.4602 436.748 19.3125C437.657 20.1553 438.381 21.2727 438.921 22.6648C439.461 24.0568 439.73 25.7708 439.73 27.8068V29.2273H422.912V26.3295H436.321C436.321 25.0985 436.075 24 435.583 23.0341C435.1 22.0682 434.408 21.3059 433.509 20.7472C432.619 20.1884 431.568 19.9091 430.355 19.9091C429.02 19.9091 427.865 20.2405 426.89 20.9034C425.924 21.5568 425.18 22.4091 424.659 23.4602C424.139 24.5114 423.878 25.6383 423.878 26.8409V28.7727C423.878 30.4205 424.162 31.8172 424.73 32.9631C425.308 34.0994 426.108 34.9659 427.131 35.5625C428.154 36.1496 429.342 36.4432 430.696 36.4432C431.577 36.4432 432.373 36.3201 433.083 36.0739C433.802 35.8182 434.423 35.4394 434.944 34.9375C435.464 34.4261 435.867 33.7917 436.151 33.0341L439.39 33.9432C439.049 35.0417 438.476 36.0076 437.671 36.8409C436.866 37.6648 435.872 38.3087 434.688 38.7727C433.504 39.2273 432.174 39.4545 430.696 39.4545ZM458.58 30.0795V17.1818H461.932V39H458.58V35.3068H458.353C457.841 36.4148 457.046 37.357 455.966 38.1335C454.887 38.9006 453.523 39.2841 451.875 39.2841C450.512 39.2841 449.3 38.9858 448.239 38.3892C447.178 37.7831 446.345 36.8741 445.739 35.6619C445.133 34.4403 444.83 32.9015 444.83 31.0455V17.1818H448.182V30.8182C448.182 32.4091 448.627 33.678 449.517 34.625C450.417 35.572 451.563 36.0455 452.955 36.0455C453.788 36.0455 454.636 35.8324 455.498 35.4062C456.369 34.9801 457.098 34.3267 457.685 33.446C458.282 32.5653 458.58 31.4432 458.58 30.0795ZM477.22 39.4545C475.118 39.4545 473.304 38.9905 471.779 38.0625C470.264 37.125 469.095 35.8182 468.271 34.142C467.457 32.4564 467.049 30.4962 467.049 28.2614C467.049 26.0265 467.457 24.0568 468.271 22.3523C469.095 20.6383 470.241 19.303 471.708 18.3466C473.186 17.3807 474.909 16.8977 476.879 16.8977C478.015 16.8977 479.137 17.0871 480.245 17.4659C481.353 17.8447 482.362 18.4602 483.271 19.3125C484.18 20.1553 484.904 21.2727 485.444 22.6648C485.984 24.0568 486.254 25.7708 486.254 27.8068V29.2273H469.436V26.3295H482.845C482.845 25.0985 482.599 24 482.106 23.0341C481.623 22.0682 480.932 21.3059 480.032 20.7472C479.142 20.1884 478.091 19.9091 476.879 19.9091C475.544 19.9091 474.388 20.2405 473.413 20.9034C472.447 21.5568 471.704 22.4091 471.183 23.4602C470.662 24.5114 470.402 25.6383 470.402 26.8409V28.7727C470.402 30.4205 470.686 31.8172 471.254 32.9631C471.832 34.0994 472.632 34.9659 473.654 35.5625C474.677 36.1496 475.866 36.4432 477.22 36.4432C478.1 36.4432 478.896 36.3201 479.606 36.0739C480.326 35.8182 480.946 35.4394 481.467 34.9375C481.988 34.4261 482.39 33.7917 482.674 33.0341L485.913 33.9432C485.572 35.0417 484.999 36.0076 484.194 36.8409C483.389 37.6648 482.395 38.3087 481.211 38.7727C480.028 39.2273 478.697 39.4545 477.22 39.4545Z" fill="white"/>
<path d="M622.375 307.25L638.625 323.5L622.375 339.75" stroke="#DBDBDB" stroke-width="4" stroke-linecap="round" stroke-linejoin="round"/>
<line x1="60" y1="323.5" x2="636" y2="323.5" stroke="#DBDBDB" stroke-width="5"/>
</svg>
