<svg xmlns="http://www.w3.org/2000/svg" width="707" height="448" fill="none" viewBox="0 0 707 448"><rect width="136" height="136" x="516" y="112" stroke="#dbdbdb" stroke-dasharray="20 20" stroke-width="2" rx="27"/><rect width="136" height="136" x="360" y="112" stroke="#dbdbdb" stroke-dasharray="20 20" stroke-width="2" rx="27"/><rect width="705" height="197" x="1" y="82" stroke="#dbdbdb" stroke-width="2" rx="27"/><rect width="136" height="136" x="204" y="112" stroke="#dbdbdb" stroke-dasharray="20 20" stroke-width="2" rx="27"/><rect width="136" height="136" x="48" y="112" stroke="#dbdbdb" stroke-dasharray="20 20" stroke-width="2" rx="27"/><path fill="#fff" d="M589.568 181.966v3.125h-12.727v-3.125zM433.568 181.966v3.125h-12.727v-3.125zM277.568 181.966v3.125h-12.727v-3.125zM121.568 181.966v3.125h-12.727v-3.125z"/><path fill="#717171" d="M41.976 391v-29.091h3.523v25.966H59.02V391zm30.909.455q-2.955 0-5.185-1.407-2.215-1.406-3.466-3.934Q63 383.584 63 380.205q0-3.41 1.235-5.952 1.25-2.543 3.466-3.949 2.23-1.406 5.185-1.406t5.17 1.406q2.23 1.406 3.466 3.949 1.25 2.543 1.25 5.952 0 3.38-1.25 5.909-1.236 2.528-3.466 3.934-2.215 1.407-5.17 1.407m0-3.012q2.244 0 3.693-1.15t2.145-3.026q.696-1.875.696-4.062t-.696-4.077-2.145-3.054q-1.449-1.165-3.693-1.165t-3.693 1.165q-1.449 1.164-2.145 3.054t-.696 4.077.696 4.062 2.145 3.026q1.449 1.15 3.693 1.15M92.089 391l-6.647-21.818h3.523l4.715 16.704h.228l4.659-16.704h3.579l4.603 16.648h.227l4.716-16.648h3.522L108.567 391h-3.296l-4.772-16.761h-.341L95.385 391zm35.963.455q-3.153 0-5.44-1.393-2.274-1.406-3.509-3.92-1.221-2.529-1.222-5.881 0-3.351 1.222-5.909 1.236-2.571 3.437-4.005 2.216-1.449 5.171-1.449 1.704 0 3.366.568t3.026 1.846q1.364 1.265 2.173 3.353.81 2.088.81 5.142v1.42h-16.818v-2.897h13.409q0-1.848-.739-3.296a5.57 5.57 0 0 0-2.074-2.287q-1.335-.838-3.153-.838-2.003 0-3.466.994a6.55 6.55 0 0 0-2.23 2.557 7.5 7.5 0 0 0-.781 3.381v1.932q0 2.47.852 4.19.867 1.704 2.401 2.599 1.534.881 3.565.881 1.321 0 2.386-.369a5.1 5.1 0 0 0 1.861-1.136q.781-.767 1.207-1.904l3.239.909a7.2 7.2 0 0 1-1.719 2.898q-1.207 1.236-2.983 1.932-1.775.682-3.991.682m29.588-17.387-3.011.852a5.6 5.6 0 0 0-.839-1.463q-.539-.724-1.477-1.193-.937-.469-2.4-.469-2.004 0-3.338.924-1.321.91-1.321 2.315 0 1.25.909 1.975.909.724 2.841 1.207l3.238.795q2.927.71 4.361 2.174 1.435 1.449 1.435 3.735 0 1.875-1.08 3.353-1.065 1.477-2.983 2.329-1.917.852-4.46.853-3.337 0-5.526-1.449-2.187-1.449-2.77-4.233l3.182-.796q.454 1.762 1.719 2.642 1.278.88 3.338.881 2.344 0 3.722-.994 1.392-1.01 1.392-2.415 0-1.137-.796-1.903-.795-.782-2.443-1.165l-3.636-.853q-2.997-.71-4.404-2.201-1.392-1.506-1.392-3.764 0-1.848 1.037-3.267 1.052-1.42 2.855-2.231 1.819-.809 4.12-.809 3.238 0 5.085 1.42 1.86 1.42 2.642 3.75m14.932-4.886v2.841h-11.306v-2.841zm-8.011-5.227h3.352v20.795q0 1.42.412 2.131.426.696 1.08.937a4.3 4.3 0 0 0 1.406.227q.553 0 .909-.056l.568-.114.682 3.011a7 7 0 0 1-.952.256q-.61.142-1.548.142a6.75 6.75 0 0 1-2.784-.611 5.5 5.5 0 0 1-2.244-1.861q-.88-1.25-.881-3.153zM42.621 439v-29.091h9.829q3.423 0 5.596 1.236 2.188 1.22 3.24 3.31 1.05 2.088 1.05 4.659t-1.05 4.673q-1.038 2.102-3.211 3.352-2.174 1.236-5.568 1.236H45.46v-3.125h6.932q2.344 0 3.764-.81t2.06-2.187q.653-1.393.653-3.139 0-1.748-.653-3.125-.639-1.379-2.074-2.159-1.434-.796-3.807-.796h-6.193V439zm24.935 0v-21.818h3.24v3.295h.226q.597-1.618 2.16-2.628 1.561-1.008 3.522-1.008.369 0 .924.014.553.015.838.043v3.409a10 10 0 0 0-.782-.128 8 8 0 0 0-1.264-.099q-1.591 0-2.84.667a5.04 5.04 0 0 0-1.961 1.818q-.71 1.15-.71 2.628V439zm14.883 0v-21.818h3.353V439zm1.705-25.455a2.38 2.38 0 0 1-1.69-.667q-.697-.667-.697-1.605t.697-1.605a2.38 2.38 0 0 1 1.69-.668q.98 0 1.676.668.71.667.71 1.605t-.71 1.605a2.34 2.34 0 0 1-1.676.667m16.651 25.91q-2.955 0-5.185-1.407-2.215-1.406-3.466-3.934-1.235-2.53-1.235-5.909 0-3.41 1.235-5.952 1.251-2.543 3.466-3.949 2.23-1.406 5.185-1.406t5.171 1.406q2.23 1.406 3.465 3.949 1.25 2.543 1.25 5.952 0 3.38-1.25 5.909-1.235 2.528-3.465 3.934-2.216 1.407-5.171 1.407m0-3.012q2.244 0 3.693-1.15t2.145-3.026q.696-1.875.696-4.062t-.696-4.077-2.145-3.054q-1.449-1.165-3.693-1.165t-3.693 1.165q-1.449 1.164-2.145 3.054t-.696 4.077.696 4.062 2.145 3.026q1.449 1.15 3.693 1.15M115.799 439v-21.818h3.238v3.295h.228q.596-1.618 2.159-2.628 1.562-1.008 3.522-1.008.37 0 .924.014.553.015.838.043v3.409a10 10 0 0 0-.782-.128 8 8 0 0 0-1.264-.099q-1.59 0-2.841.667a5.05 5.05 0 0 0-1.96 1.818q-.71 1.15-.71 2.628V439zm14.882 0v-21.818h3.353V439zm1.705-25.455a2.38 2.38 0 0 1-1.69-.667q-.696-.667-.696-1.605t.696-1.605a2.38 2.38 0 0 1 1.69-.668q.98 0 1.676.668.71.667.71 1.605t-.71 1.605a2.34 2.34 0 0 1-1.676.667m17.276 3.637v2.841h-11.307v-2.841zm-8.011-5.227h3.352v20.795q0 1.42.412 2.131.426.696 1.08.937.667.227 1.406.227.554 0 .909-.056l.568-.114.682 3.011a7 7 0 0 1-.952.256q-.61.142-1.548.142a6.75 6.75 0 0 1-2.784-.611 5.5 5.5 0 0 1-2.244-1.861q-.881-1.25-.881-3.153zm15.213 35.227a7.4 7.4 0 0 1-1.52-.142q-.668-.128-.923-.256l.852-2.954q1.221.312 2.159.227t1.662-.838q.739-.74 1.35-2.401l.625-1.704L153 417.182h3.637l6.022 17.386h.228l6.022-17.386h3.637l-9.262 25q-.624 1.69-1.548 2.798-.923 1.122-2.145 1.662-1.207.54-2.727.54M533.113 391v-29.091h3.522v12.955h15.512v-12.955h3.522V391h-3.522v-13.011h-15.512V391zm29.154 0v-21.818h3.353V391zm1.705-25.455a2.38 2.38 0 0 1-1.69-.667q-.696-.667-.696-1.605t.696-1.605a2.38 2.38 0 0 1 1.69-.668q.98 0 1.676.668.71.667.71 1.605t-.71 1.605a2.34 2.34 0 0 1-1.676.667m16.594 34.091q-2.428 0-4.176-.625-1.747-.61-2.912-1.619-1.15-.994-1.832-2.131l2.67-1.875q.455.597 1.151 1.364.696.782 1.903 1.349 1.222.583 3.196.583 2.642 0 4.361-1.279t1.719-4.005v-4.432h-.284q-.37.597-1.051 1.477-.668.867-1.932 1.548-1.25.668-3.381.668-2.642 0-4.744-1.25-2.088-1.25-3.31-3.636-1.207-2.387-1.207-5.796 0-3.352 1.179-5.838 1.18-2.5 3.281-3.863 2.103-1.378 4.858-1.378 2.13 0 3.381.71 1.264.696 1.932 1.591.68.88 1.051 1.449h.341v-3.466h3.238v22.443q0 2.813-1.278 4.574-1.264 1.776-3.409 2.599-2.131.838-4.745.838m-.113-11.988q2.017 0 3.409-.924 1.392-.923 2.116-2.656t.725-4.148q0-2.358-.71-4.161-.711-1.804-2.103-2.827t-3.437-1.023q-2.131 0-3.551 1.08-1.407 1.079-2.117 2.897-.696 1.818-.696 4.034 0 2.274.71 4.02.725 1.734 2.131 2.728 1.42.98 3.523.98m19.034-9.773V391h-3.352v-29.091h3.352v10.682h.284a6.16 6.16 0 0 1 2.301-2.685q1.548-1.008 4.119-1.008 2.23 0 3.907.895 1.676.88 2.599 2.713.938 1.818.938 4.63V391h-3.353v-13.636q0-2.6-1.349-4.02-1.335-1.435-3.708-1.435-1.647 0-2.954.696-1.293.696-2.046 2.031-.738 1.336-.738 3.239m29.428 13.58q-3.154 0-5.44-1.393-2.273-1.406-3.509-3.92-1.221-2.529-1.221-5.881 0-3.351 1.221-5.909 1.236-2.571 3.438-4.005 2.216-1.449 5.17-1.449 1.705 0 3.367.568t3.025 1.846q1.364 1.265 2.174 3.353t.809 5.142v1.42h-16.818v-2.897h13.409q0-1.848-.739-3.296a5.56 5.56 0 0 0-2.073-2.287q-1.336-.838-3.154-.838-2.002 0-3.466.994a6.55 6.55 0 0 0-2.23 2.557 7.5 7.5 0 0 0-.781 3.381v1.932q0 2.47.852 4.19.867 1.704 2.401 2.599 1.534.881 3.565.881 1.321 0 2.386-.369a5.1 5.1 0 0 0 1.861-1.136q.782-.767 1.208-1.904l3.238.909a7.2 7.2 0 0 1-1.718 2.898q-1.208 1.236-2.983 1.932-1.776.682-3.992.682m29.588-17.387-3.011.852a5.6 5.6 0 0 0-.838-1.463q-.54-.724-1.478-1.193t-2.4-.469q-2.003 0-3.338.924-1.321.91-1.321 2.315 0 1.25.909 1.975.909.724 2.841 1.207l3.238.795q2.927.71 4.361 2.174 1.435 1.449 1.435 3.735 0 1.875-1.08 3.353-1.065 1.477-2.983 2.329-1.917.852-4.46.853-3.338 0-5.525-1.449t-2.77-4.233l3.182-.796q.455 1.762 1.718 2.642 1.279.88 3.338.881 2.344 0 3.722-.994 1.392-1.01 1.392-2.415 0-1.137-.795-1.903-.796-.782-2.444-1.165l-3.636-.853q-2.997-.71-4.403-2.201-1.392-1.506-1.392-3.764 0-1.848 1.036-3.267 1.052-1.42 2.856-2.231 1.818-.809 4.119-.809 3.239 0 5.085 1.42 1.861 1.42 2.642 3.75m14.933-4.886v2.841h-11.307v-2.841zm-8.012-5.227h3.353v20.795q0 1.42.412 2.131.426.696 1.079.937a4.3 4.3 0 0 0 1.406.227q.555 0 .909-.056l.569-.114.681 3.011a7 7 0 0 1-.951.256q-.611.142-1.549.142a6.75 6.75 0 0 1-2.784-.611 5.53 5.53 0 0 1-2.244-1.861q-.88-1.25-.881-3.153zM538.62 439v-29.091h9.83q3.423 0 5.597 1.236 2.187 1.22 3.238 3.31 1.051 2.088 1.051 4.659t-1.051 4.673q-1.036 2.102-3.21 3.352-2.173 1.236-5.568 1.236h-7.046v-3.125h6.932q2.344 0 3.764-.81t2.06-2.187q.654-1.393.653-3.139 0-1.748-.653-3.125-.639-1.379-2.074-2.159-1.434-.796-3.807-.796h-6.193V439zm24.936 0v-21.818h3.239v3.295h.227q.597-1.618 2.159-2.628 1.563-1.008 3.523-1.008.37 0 .923.014.555.015.839.043v3.409a10 10 0 0 0-.782-.128 8 8 0 0 0-1.264-.099q-1.59 0-2.841.667a5.04 5.04 0 0 0-1.96 1.818q-.71 1.15-.71 2.628V439zm14.883 0v-21.818h3.353V439zm1.705-25.455a2.38 2.38 0 0 1-1.691-.667q-.696-.667-.696-1.605t.696-1.605a2.39 2.39 0 0 1 1.691-.668q.98 0 1.676.668.71.667.71 1.605t-.71 1.605a2.34 2.34 0 0 1-1.676.667m16.651 25.91q-2.955 0-5.185-1.407-2.215-1.406-3.465-3.934-1.236-2.53-1.236-5.909 0-3.41 1.236-5.952 1.25-2.543 3.465-3.949 2.23-1.406 5.185-1.406t5.171 1.406q2.23 1.406 3.465 3.949 1.25 2.543 1.25 5.952 0 3.38-1.25 5.909-1.235 2.528-3.465 3.934-2.216 1.407-5.171 1.407m0-3.012q2.244 0 3.693-1.15t2.145-3.026q.696-1.875.696-4.062t-.696-4.077-2.145-3.054q-1.449-1.165-3.693-1.165t-3.693 1.165q-1.449 1.164-2.145 3.054t-.696 4.077.696 4.062 2.145 3.026q1.449 1.15 3.693 1.15M611.799 439v-21.818h3.238v3.295h.228q.596-1.618 2.159-2.628 1.562-1.008 3.522-1.008.37 0 .924.014.553.015.838.043v3.409a10 10 0 0 0-.782-.128 8 8 0 0 0-1.264-.099q-1.59 0-2.841.667a5.05 5.05 0 0 0-1.96 1.818q-.71 1.15-.71 2.628V439zm14.882 0v-21.818h3.353V439zm1.705-25.455a2.38 2.38 0 0 1-1.69-.667q-.696-.667-.696-1.605t.696-1.605a2.38 2.38 0 0 1 1.69-.668q.98 0 1.676.668.71.667.71 1.605t-.71 1.605a2.34 2.34 0 0 1-1.676.667m17.276 3.637v2.841h-11.307v-2.841zm-8.011-5.227h3.352v20.795q0 1.42.412 2.131.426.696 1.08.937.667.227 1.406.227.554 0 .909-.056l.568-.114.682 3.011a7 7 0 0 1-.952.256q-.61.142-1.548.142a6.75 6.75 0 0 1-2.784-.611 5.5 5.5 0 0 1-2.244-1.861q-.881-1.25-.881-3.153zm15.213 35.227a7.4 7.4 0 0 1-1.52-.142q-.668-.128-.923-.256l.852-2.954q1.221.312 2.159.227t1.662-.838q.739-.74 1.35-2.401l.625-1.704L649 417.182h3.637l6.022 17.386h.228l6.022-17.386h3.637l-9.262 25q-.624 1.69-1.548 2.798-.923 1.122-2.145 1.662-1.207.54-2.727.54"/><path fill="#fff" d="M222.238 39V9.91h9.829q3.423 0 5.597 1.235 2.188 1.221 3.238 3.31 1.051 2.088 1.051 4.659t-1.051 4.673q-1.036 2.102-3.21 3.352-2.173 1.236-5.568 1.236h-7.046V25.25h6.932q2.345 0 3.765-.81t2.059-2.187q.654-1.392.654-3.14 0-1.747-.654-3.124-.639-1.379-2.074-2.16-1.434-.795-3.807-.795h-6.193V39zm24.936 0V17.182h3.238v3.295h.228q.596-1.62 2.159-2.628t3.522-1.008q.37 0 .924.014.553.015.838.043v3.409a10 10 0 0 0-.782-.128 7.7 7.7 0 0 0-1.264-.1q-1.59 0-2.841.668a5.04 5.04 0 0 0-1.96 1.818q-.71 1.15-.71 2.628V39zm14.882 0V17.182h3.353V39zm1.705-25.454a2.38 2.38 0 0 1-1.69-.668q-.696-.668-.696-1.605t.696-1.605a2.38 2.38 0 0 1 1.69-.668q.98 0 1.676.668.71.668.71 1.605 0 .938-.71 1.605a2.34 2.34 0 0 1-1.676.668m16.651 25.909q-2.954 0-5.184-1.407-2.217-1.406-3.466-3.934-1.236-2.529-1.236-5.91 0-3.408 1.236-5.951 1.25-2.543 3.466-3.949 2.23-1.406 5.184-1.406t5.171 1.406q2.23 1.407 3.466 3.949 1.25 2.543 1.25 5.951 0 3.381-1.25 5.91-1.236 2.528-3.466 3.934-2.217 1.407-5.171 1.407m0-3.012q2.245 0 3.693-1.15 1.449-1.15 2.145-3.026t.696-4.063-.696-4.076-2.145-3.054-3.693-1.165-3.693 1.165q-1.449 1.164-2.145 3.054t-.696 4.076q0 2.188.696 4.063t2.145 3.026q1.449 1.15 3.693 1.15M295.416 39V17.182h3.238v3.295h.228q.596-1.62 2.159-2.628t3.523-1.008q.37 0 .923.014.554.015.838.043v3.409a10 10 0 0 0-.781-.128 7.7 7.7 0 0 0-1.265-.1q-1.59 0-2.84.668a5.04 5.04 0 0 0-1.961 1.818q-.71 1.15-.71 2.628V39zm14.883 0V17.182h3.352V39zm1.704-25.454a2.38 2.38 0 0 1-1.69-.668q-.696-.668-.696-1.605t.696-1.605a2.38 2.38 0 0 1 1.69-.668q.98 0 1.676.668.711.668.711 1.605 0 .938-.711 1.605a2.33 2.33 0 0 1-1.676.668m17.276 3.636v2.84h-11.306v-2.84zm-8.011-5.227h3.352V32.75q0 1.42.412 2.13.426.697 1.08.938.668.227 1.406.227.554 0 .909-.056l.568-.114.682 3.011q-.34.128-.952.256-.61.142-1.548.142a6.75 6.75 0 0 1-2.784-.61 5.5 5.5 0 0 1-2.244-1.861q-.88-1.25-.881-3.154zm15.213 35.227a7.4 7.4 0 0 1-1.52-.142q-.668-.127-.923-.256l.852-2.954q1.222.312 2.159.227.938-.085 1.662-.838.74-.74 1.35-2.4l.625-1.705-8.068-21.932h3.636l6.023 17.386h.227l6.023-17.386h3.636l-9.261 25q-.625 1.69-1.549 2.798-.923 1.122-2.145 1.662-1.207.54-2.727.54m42.379-17.273h3.864l3.239 4.261.852 1.137 4.83 6.42h-3.864l-3.182-4.261-.795-1.08zm13.978-5.454q0 4.603-1.662 7.954t-4.56 5.17q-2.898 1.82-6.619 1.819-3.722 0-6.62-1.819-2.897-1.818-4.559-5.17t-1.662-7.954 1.662-7.955 4.559-5.17q2.898-1.82 6.62-1.819 3.721 0 6.619 1.819t4.56 5.17 1.662 7.954m-3.409 0q0-3.78-1.265-6.378-1.25-2.6-3.394-3.935-2.131-1.335-4.773-1.335t-4.787 1.335q-2.131 1.335-3.395 3.935-1.25 2.6-1.25 6.377 0 3.78 1.25 6.378 1.264 2.6 3.395 3.935 2.145 1.335 4.787 1.335t4.773-1.335q2.144-1.335 3.394-3.935 1.265-2.599 1.265-6.378m22.627 5.625V17.182h3.353V39h-3.353v-3.693h-.227q-.767 1.662-2.386 2.826-1.62 1.151-4.091 1.151-2.046 0-3.636-.895-1.591-.909-2.5-2.727-.91-1.832-.91-4.616V17.182h3.353v13.636q0 2.387 1.335 3.807 1.35 1.42 3.437 1.42 1.25 0 2.543-.639 1.306-.64 2.188-1.96.894-1.32.894-3.366m18.64 9.375q-3.153 0-5.44-1.392-2.273-1.407-3.508-3.921-1.222-2.529-1.222-5.88 0-3.353 1.222-5.91 1.235-2.571 3.437-4.005 2.216-1.45 5.17-1.45 1.705 0 3.367.569 1.661.568 3.026 1.846 1.363 1.264 2.173 3.353.81 2.088.809 5.142v1.42h-16.818V26.33h13.409q0-1.846-.738-3.295a5.57 5.57 0 0 0-2.074-2.287q-1.335-.838-3.154-.838-2.002 0-3.465.994a6.54 6.54 0 0 0-2.231 2.557 7.5 7.5 0 0 0-.781 3.38v1.933q0 2.472.852 4.19.867 1.704 2.401 2.6 1.534.88 3.565.88 1.322 0 2.387-.37a5.1 5.1 0 0 0 1.861-1.136q.78-.766 1.207-1.903l3.239.91a7.2 7.2 0 0 1-1.719 2.897q-1.207 1.236-2.983 1.932-1.775.681-3.992.681m27.884-9.375V17.182h3.352V39h-3.352v-3.693h-.227q-.767 1.662-2.387 2.826-1.619 1.151-4.091 1.151-2.044 0-3.636-.895-1.591-.909-2.5-2.727-.909-1.832-.909-4.616V17.182h3.352v13.636q0 2.387 1.335 3.807 1.35 1.42 3.438 1.42 1.25 0 2.543-.639 1.307-.64 2.187-1.96.895-1.32.895-3.366m18.64 9.375q-3.153 0-5.441-1.392-2.272-1.407-3.508-3.921-1.221-2.529-1.222-5.88 0-3.353 1.222-5.91 1.236-2.571 3.437-4.005 2.216-1.45 5.171-1.45 1.704 0 3.366.569 1.662.568 3.026 1.846 1.363 1.264 2.173 3.353.81 2.088.81 5.142v1.42h-16.818V26.33h13.409q0-1.846-.739-3.295a5.56 5.56 0 0 0-2.074-2.287q-1.335-.838-3.153-.838-2.003 0-3.466.994a6.54 6.54 0 0 0-2.23 2.557 7.5 7.5 0 0 0-.781 3.38v1.933q0 2.472.852 4.19.867 1.704 2.4 2.6 1.535.88 3.566.88 1.32 0 2.386-.37a5.1 5.1 0 0 0 1.861-1.136q.781-.766 1.207-1.903l3.239.91a7.2 7.2 0 0 1-1.719 2.897q-1.207 1.236-2.983 1.932-1.775.681-3.991.681"/><path stroke="#dbdbdb" stroke-linecap="round" stroke-linejoin="round" stroke-width="4" d="m622.375 307.25 16.25 16.25-16.25 16.25"/><path stroke="#dbdbdb" stroke-width="5" d="M60 323.5h576"/></svg>