<svg width="1251" height="356" viewBox="0 0 1251 356" fill="none" xmlns="http://www.w3.org/2000/svg">
<rect x="516" y="112" width="136" height="136" rx="27" stroke="#DBDBDB" stroke-width="2"/>
<rect x="1114" y="112" width="136" height="136" rx="27" stroke="#DBDBDB" stroke-width="2"/>
<rect x="360" y="112" width="136" height="136" rx="27" stroke="#DBDBDB" stroke-width="2"/>
<rect x="1" y="82" width="705" height="197" rx="27" stroke="#DBDBDB" stroke-width="2"/>
<rect x="204" y="112" width="136" height="136" rx="27" stroke="#DBDBDB" stroke-width="2" stroke-dasharray="20 20"/>
<rect x="48" y="112" width="136" height="136" rx="27" stroke="#DBDBDB" stroke-width="2" stroke-dasharray="20 20"/>
<path d="M561.593 196V166.909H571.423C573.705 166.909 575.57 167.321 577.019 168.145C578.478 168.959 579.557 170.062 580.258 171.455C580.959 172.847 581.309 174.4 581.309 176.114C581.309 177.828 580.959 179.385 580.258 180.787C579.567 182.188 578.496 183.306 577.048 184.139C575.599 184.963 573.743 185.375 571.479 185.375H564.434V182.25H571.366C572.928 182.25 574.183 181.98 575.13 181.44C576.077 180.901 576.763 180.171 577.19 179.253C577.625 178.325 577.843 177.278 577.843 176.114C577.843 174.949 577.625 173.907 577.19 172.989C576.763 172.07 576.072 171.35 575.116 170.83C574.159 170.299 572.89 170.034 571.309 170.034H565.116V196H561.593ZM596.302 196.398C594.427 196.398 592.755 196.076 591.288 195.432C589.829 194.788 588.669 193.893 587.808 192.747C586.955 191.592 586.491 190.252 586.415 188.727H589.995C590.071 189.665 590.393 190.474 590.961 191.156C591.529 191.829 592.272 192.349 593.191 192.719C594.11 193.088 595.128 193.273 596.245 193.273C597.495 193.273 598.603 193.055 599.569 192.619C600.535 192.184 601.292 191.578 601.842 190.801C602.391 190.025 602.665 189.125 602.665 188.102C602.665 187.032 602.4 186.09 601.87 185.276C601.34 184.452 600.563 183.808 599.54 183.344C598.518 182.88 597.268 182.648 595.79 182.648H593.461V179.523H595.79C596.946 179.523 597.959 179.314 598.83 178.898C599.711 178.481 600.397 177.894 600.89 177.136C601.392 176.379 601.643 175.489 601.643 174.466C601.643 173.481 601.425 172.624 600.989 171.895C600.554 171.166 599.938 170.598 599.143 170.19C598.357 169.783 597.429 169.58 596.359 169.58C595.355 169.58 594.408 169.764 593.518 170.134C592.637 170.493 591.917 171.019 591.359 171.71C590.8 172.392 590.497 173.216 590.45 174.182H587.04C587.097 172.657 587.557 171.322 588.418 170.176C589.28 169.021 590.407 168.121 591.799 167.477C593.201 166.833 594.739 166.511 596.415 166.511C598.215 166.511 599.758 166.876 601.046 167.605C602.334 168.325 603.324 169.277 604.015 170.46C604.706 171.644 605.052 172.922 605.052 174.295C605.052 175.934 604.621 177.33 603.759 178.486C602.907 179.641 601.747 180.441 600.279 180.886V181.114C602.116 181.417 603.551 182.198 604.583 183.457C605.615 184.707 606.131 186.256 606.131 188.102C606.131 189.684 605.701 191.104 604.839 192.364C603.987 193.614 602.822 194.598 601.344 195.318C599.867 196.038 598.186 196.398 596.302 196.398Z" fill="white"/>
<path d="M1159.72 196V166.909H1169.55C1171.83 166.909 1173.7 167.321 1175.14 168.145C1176.6 168.959 1177.68 170.062 1178.38 171.455C1179.08 172.847 1179.43 174.4 1179.43 176.114C1179.43 177.828 1179.08 179.385 1178.38 180.787C1177.69 182.188 1176.62 183.306 1175.17 184.139C1173.72 184.963 1171.87 185.375 1169.6 185.375H1162.56V182.25H1169.49C1171.05 182.25 1172.31 181.98 1173.25 181.44C1174.2 180.901 1174.89 180.171 1175.31 179.253C1175.75 178.325 1175.97 177.278 1175.97 176.114C1175.97 174.949 1175.75 173.907 1175.31 172.989C1174.89 172.07 1174.2 171.35 1173.24 170.83C1172.28 170.299 1171.02 170.034 1169.43 170.034H1163.24V196H1159.72ZM1184.6 196V193.443L1194.2 182.932C1195.33 181.701 1196.25 180.631 1196.98 179.722C1197.71 178.803 1198.25 177.941 1198.6 177.136C1198.96 176.322 1199.14 175.47 1199.14 174.58C1199.14 173.557 1198.9 172.671 1198.4 171.923C1197.92 171.175 1197.26 170.598 1196.42 170.19C1195.57 169.783 1194.63 169.58 1193.57 169.58C1192.46 169.58 1191.48 169.812 1190.65 170.276C1189.82 170.73 1189.19 171.369 1188.73 172.193C1188.29 173.017 1188.06 173.983 1188.06 175.091H1184.71C1184.71 173.386 1185.1 171.89 1185.89 170.602C1186.68 169.314 1187.75 168.311 1189.1 167.591C1190.46 166.871 1191.99 166.511 1193.69 166.511C1195.39 166.511 1196.9 166.871 1198.22 167.591C1199.54 168.311 1200.57 169.281 1201.32 170.503C1202.06 171.724 1202.44 173.083 1202.44 174.58C1202.44 175.65 1202.24 176.696 1201.86 177.719C1201.48 178.732 1200.81 179.864 1199.87 181.114C1198.93 182.354 1197.63 183.869 1195.96 185.659L1189.43 192.648V192.875H1202.95V196H1184.6Z" fill="white"/>
<path d="M408.531 196V166.909H418.36C420.642 166.909 422.508 167.321 423.957 168.145C425.415 168.959 426.495 170.062 427.195 171.455C427.896 172.847 428.246 174.4 428.246 176.114C428.246 177.828 427.896 179.385 427.195 180.787C426.504 182.188 425.434 183.306 423.985 184.139C422.536 184.963 420.68 185.375 418.417 185.375H411.371V182.25H418.303C419.866 182.25 421.121 181.98 422.067 181.44C423.014 180.901 423.701 180.171 424.127 179.253C424.563 178.325 424.781 177.278 424.781 176.114C424.781 174.949 424.563 173.907 424.127 172.989C423.701 172.07 423.01 171.35 422.053 170.83C421.097 170.299 419.828 170.034 418.246 170.034H412.053V196H408.531ZM443.637 166.909V196H440.114V170.602H439.944L432.842 175.318V171.739L440.114 166.909H443.637Z" fill="white"/>
<path d="M277.568 181.966V185.091H264.841V181.966H277.568Z" fill="white"/>
<path d="M121.568 181.966V185.091H108.841V181.966H121.568Z" fill="white"/>
<path d="M222.238 39V9.90909H232.067C234.349 9.90909 236.215 10.321 237.664 11.1449C239.122 11.9593 240.202 13.0625 240.902 14.4545C241.603 15.8466 241.953 17.3996 241.953 19.1136C241.953 20.8277 241.603 22.3854 240.902 23.7869C240.211 25.1884 239.141 26.3059 237.692 27.1392C236.243 27.9631 234.387 28.375 232.124 28.375H225.078V25.25H232.01C233.573 25.25 234.828 24.9801 235.775 24.4403C236.721 23.9006 237.408 23.1714 237.834 22.2528C238.27 21.3248 238.488 20.2784 238.488 19.1136C238.488 17.9489 238.27 16.9072 237.834 15.9886C237.408 15.0701 236.717 14.3504 235.76 13.8295C234.804 13.2992 233.535 13.0341 231.953 13.0341H225.76V39H222.238ZM247.174 39V17.1818H250.412V20.4773H250.64C251.037 19.3977 251.757 18.5218 252.799 17.8494C253.84 17.1771 255.015 16.8409 256.321 16.8409C256.568 16.8409 256.875 16.8456 257.245 16.8551C257.614 16.8646 257.893 16.8788 258.083 16.8977V20.3068C257.969 20.2784 257.709 20.2358 257.301 20.179C256.904 20.1127 256.482 20.0795 256.037 20.0795C254.977 20.0795 254.03 20.3021 253.196 20.7472C252.373 21.1828 251.719 21.7888 251.236 22.5653C250.763 23.3324 250.526 24.2083 250.526 25.1932V39H247.174ZM262.056 39V17.1818H265.409V39H262.056ZM263.761 13.5455C263.108 13.5455 262.544 13.3229 262.071 12.8778C261.607 12.4328 261.375 11.8977 261.375 11.2727C261.375 10.6477 261.607 10.1127 262.071 9.66761C262.544 9.22254 263.108 9 263.761 9C264.414 9 264.973 9.22254 265.437 9.66761C265.911 10.1127 266.147 10.6477 266.147 11.2727C266.147 11.8977 265.911 12.4328 265.437 12.8778C264.973 13.3229 264.414 13.5455 263.761 13.5455ZM280.412 39.4545C278.443 39.4545 276.714 38.9858 275.228 38.0483C273.75 37.1108 272.595 35.7992 271.762 34.1136C270.938 32.428 270.526 30.4583 270.526 28.2045C270.526 25.9318 270.938 23.9479 271.762 22.2528C272.595 20.5578 273.75 19.2415 275.228 18.304C276.714 17.3665 278.443 16.8977 280.412 16.8977C282.382 16.8977 284.105 17.3665 285.583 18.304C287.069 19.2415 288.225 20.5578 289.049 22.2528C289.882 23.9479 290.299 25.9318 290.299 28.2045C290.299 30.4583 289.882 32.428 289.049 34.1136C288.225 35.7992 287.069 37.1108 285.583 38.0483C284.105 38.9858 282.382 39.4545 280.412 39.4545ZM280.412 36.4432C281.908 36.4432 283.14 36.0597 284.105 35.2926C285.071 34.5256 285.786 33.517 286.25 32.267C286.714 31.017 286.946 29.6629 286.946 28.2045C286.946 26.7462 286.714 25.3873 286.25 24.1278C285.786 22.8684 285.071 21.8504 284.105 21.0739C283.14 20.2973 281.908 19.9091 280.412 19.9091C278.916 19.9091 277.685 20.2973 276.719 21.0739C275.753 21.8504 275.038 22.8684 274.574 24.1278C274.11 25.3873 273.878 26.7462 273.878 28.2045C273.878 29.6629 274.11 31.017 274.574 32.267C275.038 33.517 275.753 34.5256 276.719 35.2926C277.685 36.0597 278.916 36.4432 280.412 36.4432ZM295.416 39V17.1818H298.654V20.4773H298.882C299.279 19.3977 299.999 18.5218 301.041 17.8494C302.083 17.1771 303.257 16.8409 304.564 16.8409C304.81 16.8409 305.118 16.8456 305.487 16.8551C305.856 16.8646 306.136 16.8788 306.325 16.8977V20.3068C306.211 20.2784 305.951 20.2358 305.544 20.179C305.146 20.1127 304.725 20.0795 304.279 20.0795C303.219 20.0795 302.272 20.3021 301.439 20.7472C300.615 21.1828 299.961 21.7888 299.478 22.5653C299.005 23.3324 298.768 24.2083 298.768 25.1932V39H295.416ZM310.299 39V17.1818H313.651V39H310.299ZM312.003 13.5455C311.35 13.5455 310.786 13.3229 310.313 12.8778C309.849 12.4328 309.617 11.8977 309.617 11.2727C309.617 10.6477 309.849 10.1127 310.313 9.66761C310.786 9.22254 311.35 9 312.003 9C312.657 9 313.215 9.22254 313.679 9.66761C314.153 10.1127 314.39 10.6477 314.39 11.2727C314.39 11.8977 314.153 12.4328 313.679 12.8778C313.215 13.3229 312.657 13.5455 312.003 13.5455ZM329.279 17.1818V20.0227H317.973V17.1818H329.279ZM321.268 11.9545H324.62V32.75C324.62 33.697 324.758 34.4072 325.032 34.8807C325.316 35.3447 325.676 35.6572 326.112 35.8182C326.557 35.9697 327.026 36.0455 327.518 36.0455C327.887 36.0455 328.19 36.0265 328.427 35.9886C328.664 35.9413 328.853 35.9034 328.995 35.875L329.677 38.8864C329.45 38.9716 329.133 39.0568 328.725 39.142C328.318 39.2367 327.802 39.2841 327.177 39.2841C326.23 39.2841 325.302 39.0805 324.393 38.6733C323.493 38.2661 322.745 37.6458 322.149 36.8125C321.562 35.9792 321.268 34.928 321.268 33.6591V11.9545ZM336.481 47.1818C335.913 47.1818 335.406 47.1345 334.961 47.0398C334.516 46.9545 334.208 46.8693 334.038 46.7841L334.89 43.8295C335.705 44.0379 336.424 44.1136 337.049 44.0568C337.674 44 338.228 43.7206 338.711 43.2188C339.204 42.7263 339.654 41.9261 340.061 40.8182L340.686 39.1136L332.618 17.1818H336.254L342.277 34.5682H342.504L348.527 17.1818H352.163L342.902 42.1818C342.485 43.3087 341.969 44.2415 341.353 44.9801C340.738 45.7282 340.023 46.2822 339.208 46.642C338.404 47.0019 337.494 47.1818 336.481 47.1818ZM378.86 29.9091H382.724L385.963 34.1705L386.815 35.3068L391.645 41.7273H387.781L384.599 37.4659L383.804 36.3864L378.86 29.9091ZM392.838 24.4545C392.838 27.5227 392.284 30.1742 391.176 32.4091C390.068 34.6439 388.548 36.3674 386.616 37.5795C384.684 38.7917 382.478 39.3977 379.997 39.3977C377.516 39.3977 375.309 38.7917 373.377 37.5795C371.446 36.3674 369.926 34.6439 368.818 32.4091C367.71 30.1742 367.156 27.5227 367.156 24.4545C367.156 21.3864 367.71 18.7348 368.818 16.5C369.926 14.2652 371.446 12.5417 373.377 11.3295C375.309 10.1174 377.516 9.51136 379.997 9.51136C382.478 9.51136 384.684 10.1174 386.616 11.3295C388.548 12.5417 390.068 14.2652 391.176 16.5C392.284 18.7348 392.838 21.3864 392.838 24.4545ZM389.429 24.4545C389.429 21.9356 389.007 19.8097 388.164 18.0767C387.331 16.3438 386.199 15.0322 384.77 14.142C383.349 13.2519 381.758 12.8068 379.997 12.8068C378.235 12.8068 376.64 13.2519 375.21 14.142C373.789 15.0322 372.658 16.3438 371.815 18.0767C370.982 19.8097 370.565 21.9356 370.565 24.4545C370.565 26.9735 370.982 29.0994 371.815 30.8324C372.658 32.5653 373.789 33.8769 375.21 34.767C376.64 35.6572 378.235 36.1023 379.997 36.1023C381.758 36.1023 383.349 35.6572 384.77 34.767C386.199 33.8769 387.331 32.5653 388.164 30.8324C389.007 29.0994 389.429 26.9735 389.429 24.4545ZM412.056 30.0795V17.1818H415.409V39H412.056V35.3068H411.829C411.318 36.4148 410.522 37.357 409.443 38.1335C408.363 38.9006 407 39.2841 405.352 39.2841C403.988 39.2841 402.776 38.9858 401.716 38.3892C400.655 37.7831 399.822 36.8741 399.216 35.6619C398.609 34.4403 398.306 32.9015 398.306 31.0455V17.1818H401.659V30.8182C401.659 32.4091 402.104 33.678 402.994 34.625C403.894 35.572 405.039 36.0455 406.431 36.0455C407.265 36.0455 408.112 35.8324 408.974 35.4062C409.845 34.9801 410.574 34.3267 411.162 33.446C411.758 32.5653 412.056 31.4432 412.056 30.0795ZM430.696 39.4545C428.594 39.4545 426.781 38.9905 425.256 38.0625C423.741 37.125 422.571 35.8182 421.748 34.142C420.933 32.4564 420.526 30.4962 420.526 28.2614C420.526 26.0265 420.933 24.0568 421.748 22.3523C422.571 20.6383 423.717 19.303 425.185 18.3466C426.662 17.3807 428.386 16.8977 430.355 16.8977C431.492 16.8977 432.614 17.0871 433.722 17.4659C434.83 17.8447 435.838 18.4602 436.748 19.3125C437.657 20.1553 438.381 21.2727 438.921 22.6648C439.461 24.0568 439.73 25.7708 439.73 27.8068V29.2273H422.912V26.3295H436.321C436.321 25.0985 436.075 24 435.583 23.0341C435.1 22.0682 434.408 21.3059 433.509 20.7472C432.619 20.1884 431.568 19.9091 430.355 19.9091C429.02 19.9091 427.865 20.2405 426.89 20.9034C425.924 21.5568 425.18 22.4091 424.659 23.4602C424.139 24.5114 423.878 25.6383 423.878 26.8409V28.7727C423.878 30.4205 424.162 31.8172 424.73 32.9631C425.308 34.0994 426.108 34.9659 427.131 35.5625C428.154 36.1496 429.342 36.4432 430.696 36.4432C431.577 36.4432 432.373 36.3201 433.083 36.0739C433.802 35.8182 434.423 35.4394 434.944 34.9375C435.464 34.4261 435.867 33.7917 436.151 33.0341L439.39 33.9432C439.049 35.0417 438.476 36.0076 437.671 36.8409C436.866 37.6648 435.872 38.3087 434.688 38.7727C433.504 39.2273 432.174 39.4545 430.696 39.4545ZM458.58 30.0795V17.1818H461.932V39H458.58V35.3068H458.353C457.841 36.4148 457.046 37.357 455.966 38.1335C454.887 38.9006 453.523 39.2841 451.875 39.2841C450.512 39.2841 449.3 38.9858 448.239 38.3892C447.178 37.7831 446.345 36.8741 445.739 35.6619C445.133 34.4403 444.83 32.9015 444.83 31.0455V17.1818H448.182V30.8182C448.182 32.4091 448.627 33.678 449.517 34.625C450.417 35.572 451.563 36.0455 452.955 36.0455C453.788 36.0455 454.636 35.8324 455.498 35.4062C456.369 34.9801 457.098 34.3267 457.685 33.446C458.282 32.5653 458.58 31.4432 458.58 30.0795ZM477.22 39.4545C475.118 39.4545 473.304 38.9905 471.779 38.0625C470.264 37.125 469.095 35.8182 468.271 34.142C467.457 32.4564 467.049 30.4962 467.049 28.2614C467.049 26.0265 467.457 24.0568 468.271 22.3523C469.095 20.6383 470.241 19.303 471.708 18.3466C473.186 17.3807 474.909 16.8977 476.879 16.8977C478.015 16.8977 479.137 17.0871 480.245 17.4659C481.353 17.8447 482.362 18.4602 483.271 19.3125C484.18 20.1553 484.904 21.2727 485.444 22.6648C485.984 24.0568 486.254 25.7708 486.254 27.8068V29.2273H469.436V26.3295H482.845C482.845 25.0985 482.599 24 482.106 23.0341C481.623 22.0682 480.932 21.3059 480.032 20.7472C479.142 20.1884 478.091 19.9091 476.879 19.9091C475.544 19.9091 474.388 20.2405 473.413 20.9034C472.447 21.5568 471.704 22.4091 471.183 23.4602C470.662 24.5114 470.402 25.6383 470.402 26.8409V28.7727C470.402 30.4205 470.686 31.8172 471.254 32.9631C471.832 34.0994 472.632 34.9659 473.654 35.5625C474.677 36.1496 475.866 36.4432 477.22 36.4432C478.1 36.4432 478.896 36.3201 479.606 36.0739C480.326 35.8182 480.946 35.4394 481.467 34.9375C481.988 34.4261 482.39 33.7917 482.674 33.0341L485.913 33.9432C485.572 35.0417 484.999 36.0076 484.194 36.8409C483.389 37.6648 482.395 38.3087 481.211 38.7727C480.028 39.2273 478.697 39.4545 477.22 39.4545Z" fill="white"/>
<path d="M622.375 307.25L638.625 323.5L622.375 339.75" stroke="#DBDBDB" stroke-width="4" stroke-linecap="round" stroke-linejoin="round"/>
<line x1="60" y1="323.5" x2="636" y2="323.5" stroke="#DBDBDB" stroke-width="5"/>
<path d="M1020.28 173.148L1042.64 178.456L1037.33 200.816" stroke="#DBDBDB" stroke-width="4" stroke-linecap="round" stroke-linejoin="round"/>
<path d="M765 181C880.08 233.373 940.748 235.801 1040.5 181" stroke="#DBDBDB" stroke-width="4"/>
<path d="M846.523 174V144.909H856.352C858.634 144.909 860.5 145.321 861.949 146.145C863.407 146.959 864.487 148.062 865.188 149.455C865.888 150.847 866.239 152.4 866.239 154.114C866.239 155.828 865.888 157.385 865.188 158.787C864.496 160.188 863.426 161.306 861.977 162.139C860.528 162.963 858.672 163.375 856.409 163.375H849.364V160.25H856.295C857.858 160.25 859.113 159.98 860.06 159.44C861.007 158.901 861.693 158.171 862.119 157.253C862.555 156.325 862.773 155.278 862.773 154.114C862.773 152.949 862.555 151.907 862.119 150.989C861.693 150.07 861.002 149.35 860.045 148.83C859.089 148.299 857.82 148.034 856.239 148.034H850.045V174H846.523ZM871.402 174V171.443L881.004 160.932C882.131 159.701 883.059 158.631 883.788 157.722C884.518 156.803 885.057 155.941 885.408 155.136C885.768 154.322 885.947 153.47 885.947 152.58C885.947 151.557 885.701 150.671 885.209 149.923C884.726 149.175 884.063 148.598 883.22 148.19C882.377 147.783 881.43 147.58 880.379 147.58C879.262 147.58 878.286 147.812 877.453 148.276C876.629 148.73 875.99 149.369 875.536 150.193C875.09 151.017 874.868 151.983 874.868 153.091H871.516C871.516 151.386 871.909 149.89 872.695 148.602C873.481 147.314 874.551 146.311 875.905 145.591C877.268 144.871 878.798 144.511 880.493 144.511C882.197 144.511 883.708 144.871 885.024 145.591C886.34 146.311 887.373 147.281 888.121 148.503C888.869 149.724 889.243 151.083 889.243 152.58C889.243 153.65 889.049 154.696 888.661 155.719C888.282 156.732 887.619 157.864 886.672 159.114C885.734 160.354 884.432 161.869 882.766 163.659L876.232 170.648V170.875H889.754V174H871.402ZM916.075 174.455C913.973 174.455 912.16 173.991 910.635 173.062C909.12 172.125 907.95 170.818 907.126 169.142C906.312 167.456 905.905 165.496 905.905 163.261C905.905 161.027 906.312 159.057 907.126 157.352C907.95 155.638 909.096 154.303 910.564 153.347C912.041 152.381 913.765 151.898 915.734 151.898C916.871 151.898 917.993 152.087 919.101 152.466C920.209 152.845 921.217 153.46 922.126 154.312C923.036 155.155 923.76 156.273 924.3 157.665C924.839 159.057 925.109 160.771 925.109 162.807V164.227H908.291V161.33H921.7C921.7 160.098 921.454 159 920.962 158.034C920.479 157.068 919.787 156.306 918.888 155.747C917.998 155.188 916.946 154.909 915.734 154.909C914.399 154.909 913.244 155.241 912.268 155.903C911.303 156.557 910.559 157.409 910.038 158.46C909.518 159.511 909.257 160.638 909.257 161.841V163.773C909.257 165.42 909.541 166.817 910.109 167.963C910.687 169.099 911.487 169.966 912.51 170.562C913.533 171.15 914.721 171.443 916.075 171.443C916.956 171.443 917.751 171.32 918.462 171.074C919.181 170.818 919.802 170.439 920.322 169.938C920.843 169.426 921.246 168.792 921.53 168.034L924.768 168.943C924.428 170.042 923.855 171.008 923.05 171.841C922.245 172.665 921.25 173.309 920.067 173.773C918.883 174.227 917.553 174.455 916.075 174.455ZM932.123 152.182L937.35 161.102L942.577 152.182H946.441L939.396 163.091L946.441 174H942.577L937.35 165.534L932.123 174H928.259L935.191 163.091L928.259 152.182H932.123ZM951.224 174V152.182H954.577V174H951.224ZM952.929 148.545C952.276 148.545 951.712 148.323 951.239 147.878C950.775 147.433 950.543 146.898 950.543 146.273C950.543 145.648 950.775 145.113 951.239 144.668C951.712 144.223 952.276 144 952.929 144C953.582 144 954.141 144.223 954.605 144.668C955.079 145.113 955.315 145.648 955.315 146.273C955.315 146.898 955.079 147.433 954.605 147.878C954.141 148.323 953.582 148.545 952.929 148.545ZM970.205 152.182V155.023H958.898V152.182H970.205ZM962.194 146.955H965.546V167.75C965.546 168.697 965.683 169.407 965.958 169.881C966.242 170.345 966.602 170.657 967.038 170.818C967.483 170.97 967.951 171.045 968.444 171.045C968.813 171.045 969.116 171.027 969.353 170.989C969.59 170.941 969.779 170.903 969.921 170.875L970.603 173.886C970.376 173.972 970.058 174.057 969.651 174.142C969.244 174.237 968.728 174.284 968.103 174.284C967.156 174.284 966.228 174.08 965.319 173.673C964.419 173.266 963.671 172.646 963.075 171.812C962.487 170.979 962.194 169.928 962.194 168.659V146.955ZM990.312 157.068L987.3 157.92C987.111 157.419 986.832 156.931 986.462 156.457C986.103 155.974 985.61 155.577 984.985 155.264C984.36 154.952 983.56 154.795 982.585 154.795C981.249 154.795 980.137 155.103 979.246 155.719C978.366 156.325 977.925 157.097 977.925 158.034C977.925 158.867 978.228 159.526 978.835 160.009C979.441 160.491 980.388 160.894 981.675 161.216L984.914 162.011C986.865 162.485 988.318 163.209 989.275 164.185C990.231 165.151 990.71 166.396 990.71 167.92C990.71 169.17 990.35 170.288 989.63 171.273C988.92 172.258 987.925 173.034 986.647 173.602C985.369 174.17 983.882 174.455 982.187 174.455C979.961 174.455 978.12 173.972 976.661 173.006C975.203 172.04 974.28 170.629 973.891 168.773L977.073 167.977C977.376 169.152 977.949 170.032 978.792 170.619C979.644 171.206 980.757 171.5 982.13 171.5C983.692 171.5 984.933 171.169 985.852 170.506C986.78 169.833 987.244 169.028 987.244 168.091C987.244 167.333 986.978 166.699 986.448 166.188C985.918 165.667 985.103 165.278 984.005 165.023L980.369 164.17C978.371 163.697 976.903 162.963 975.965 161.969C975.037 160.965 974.573 159.71 974.573 158.205C974.573 156.973 974.919 155.884 975.61 154.938C976.311 153.991 977.263 153.247 978.465 152.707C979.677 152.168 981.05 151.898 982.585 151.898C984.744 151.898 986.439 152.371 987.67 153.318C988.91 154.265 989.791 155.515 990.312 157.068Z" fill="white"/>
<path d="M832.557 260.182V263.023H821.25V260.182H832.557ZM824.545 254.955H827.898V275.75C827.898 276.697 828.035 277.407 828.31 277.881C828.594 278.345 828.954 278.657 829.389 278.818C829.834 278.97 830.303 279.045 830.795 279.045C831.165 279.045 831.468 279.027 831.705 278.989C831.941 278.941 832.131 278.903 832.273 278.875L832.955 281.886C832.727 281.972 832.41 282.057 832.003 282.142C831.596 282.237 831.08 282.284 830.455 282.284C829.508 282.284 828.58 282.08 827.67 281.673C826.771 281.266 826.023 280.646 825.426 279.812C824.839 278.979 824.545 277.928 824.545 276.659V254.955ZM841.42 268.875V282H838.068V252.909H841.42V263.591H841.705C842.216 262.464 842.983 261.569 844.006 260.906C845.038 260.234 846.411 259.898 848.125 259.898C849.612 259.898 850.914 260.196 852.031 260.793C853.149 261.38 854.015 262.284 854.631 263.506C855.256 264.718 855.568 266.261 855.568 268.136V282H852.216V268.364C852.216 266.631 851.766 265.291 850.866 264.344C849.976 263.387 848.741 262.909 847.159 262.909C846.061 262.909 845.076 263.141 844.205 263.605C843.343 264.069 842.661 264.746 842.159 265.636C841.667 266.527 841.42 267.606 841.42 268.875ZM870.849 282.455C868.746 282.455 866.933 281.991 865.408 281.062C863.893 280.125 862.724 278.818 861.9 277.142C861.085 275.456 860.678 273.496 860.678 271.261C860.678 269.027 861.085 267.057 861.9 265.352C862.724 263.638 863.87 262.303 865.337 261.347C866.815 260.381 868.538 259.898 870.508 259.898C871.644 259.898 872.766 260.087 873.874 260.466C874.982 260.845 875.991 261.46 876.9 262.312C877.809 263.155 878.533 264.273 879.073 265.665C879.613 267.057 879.883 268.771 879.883 270.807V272.227H863.065V269.33H876.474C876.474 268.098 876.228 267 875.735 266.034C875.252 265.068 874.561 264.306 873.661 263.747C872.771 263.188 871.72 262.909 870.508 262.909C869.173 262.909 868.017 263.241 867.042 263.903C866.076 264.557 865.333 265.409 864.812 266.46C864.291 267.511 864.031 268.638 864.031 269.841V271.773C864.031 273.42 864.315 274.817 864.883 275.963C865.46 277.099 866.261 277.966 867.283 278.562C868.306 279.15 869.495 279.443 870.849 279.443C871.729 279.443 872.525 279.32 873.235 279.074C873.955 278.818 874.575 278.439 875.096 277.938C875.617 277.426 876.019 276.792 876.303 276.034L879.542 276.943C879.201 278.042 878.628 279.008 877.823 279.841C877.018 280.665 876.024 281.309 874.84 281.773C873.656 282.227 872.326 282.455 870.849 282.455ZM911.119 290.182V278.648H910.835C910.588 279.045 910.238 279.547 909.783 280.153C909.329 280.75 908.68 281.285 907.837 281.759C906.995 282.223 905.872 282.455 904.471 282.455C902.653 282.455 901.048 281.995 899.656 281.077C898.263 280.149 897.174 278.842 896.388 277.156C895.603 275.461 895.21 273.458 895.21 271.148C895.21 268.856 895.603 266.867 896.388 265.182C897.174 263.496 898.268 262.194 899.67 261.276C901.071 260.357 902.691 259.898 904.528 259.898C905.948 259.898 907.07 260.134 907.894 260.608C908.728 261.072 909.362 261.602 909.798 262.199C910.243 262.786 910.588 263.269 910.835 263.648H911.232V260.182H914.471V290.182H911.119ZM904.925 279.443C906.27 279.443 907.406 279.093 908.335 278.392C909.263 277.682 909.968 276.702 910.451 275.452C910.934 274.192 911.175 272.739 911.175 271.091C911.175 269.462 910.939 268.037 910.465 266.815C909.992 265.584 909.291 264.628 908.363 263.946C907.435 263.255 906.289 262.909 904.925 262.909C903.505 262.909 902.321 263.274 901.374 264.003C900.437 264.723 899.731 265.703 899.258 266.943C898.794 268.174 898.562 269.557 898.562 271.091C898.562 272.644 898.799 274.055 899.272 275.324C899.755 276.583 900.465 277.587 901.403 278.335C902.35 279.074 903.524 279.443 904.925 279.443ZM934.357 273.08V260.182H937.71V282H934.357V278.307H934.13C933.619 279.415 932.823 280.357 931.744 281.134C930.664 281.901 929.3 282.284 927.653 282.284C926.289 282.284 925.077 281.986 924.016 281.389C922.956 280.783 922.122 279.874 921.516 278.662C920.91 277.44 920.607 275.902 920.607 274.045V260.182H923.96V273.818C923.96 275.409 924.405 276.678 925.295 277.625C926.194 278.572 927.34 279.045 928.732 279.045C929.566 279.045 930.413 278.832 931.275 278.406C932.146 277.98 932.875 277.327 933.462 276.446C934.059 275.565 934.357 274.443 934.357 273.08ZM952.997 282.455C950.895 282.455 949.081 281.991 947.557 281.062C946.042 280.125 944.872 278.818 944.048 277.142C943.234 275.456 942.827 273.496 942.827 271.261C942.827 269.027 943.234 267.057 944.048 265.352C944.872 263.638 946.018 262.303 947.486 261.347C948.963 260.381 950.687 259.898 952.656 259.898C953.793 259.898 954.915 260.087 956.023 260.466C957.131 260.845 958.139 261.46 959.048 262.312C959.957 263.155 960.682 264.273 961.222 265.665C961.761 267.057 962.031 268.771 962.031 270.807V272.227H945.213V269.33H958.622C958.622 268.098 958.376 267 957.884 266.034C957.401 265.068 956.709 264.306 955.81 263.747C954.92 263.188 953.868 262.909 952.656 262.909C951.321 262.909 950.166 263.241 949.19 263.903C948.224 264.557 947.481 265.409 946.96 266.46C946.439 267.511 946.179 268.638 946.179 269.841V271.773C946.179 273.42 946.463 274.817 947.031 275.963C947.609 277.099 948.409 277.966 949.432 278.562C950.455 279.15 951.643 279.443 952.997 279.443C953.878 279.443 954.673 279.32 955.384 279.074C956.103 278.818 956.723 278.439 957.244 277.938C957.765 277.426 958.168 276.792 958.452 276.034L961.69 276.943C961.349 278.042 960.777 279.008 959.972 279.841C959.167 280.665 958.172 281.309 956.989 281.773C955.805 282.227 954.474 282.455 952.997 282.455ZM980.881 273.08V260.182H984.233V282H980.881V278.307H980.653C980.142 279.415 979.347 280.357 978.267 281.134C977.188 281.901 975.824 282.284 974.176 282.284C972.812 282.284 971.6 281.986 970.54 281.389C969.479 280.783 968.646 279.874 968.04 278.662C967.434 277.44 967.131 275.902 967.131 274.045V260.182H970.483V273.818C970.483 275.409 970.928 276.678 971.818 277.625C972.718 278.572 973.864 279.045 975.256 279.045C976.089 279.045 976.937 278.832 977.798 278.406C978.67 277.98 979.399 277.327 979.986 276.446C980.582 275.565 980.881 274.443 980.881 273.08ZM999.521 282.455C997.418 282.455 995.605 281.991 994.08 281.062C992.565 280.125 991.396 278.818 990.572 277.142C989.757 275.456 989.35 273.496 989.35 271.261C989.35 269.027 989.757 267.057 990.572 265.352C991.396 263.638 992.541 262.303 994.009 261.347C995.487 260.381 997.21 259.898 999.18 259.898C1000.32 259.898 1001.44 260.087 1002.55 260.466C1003.65 260.845 1004.66 261.46 1005.57 262.312C1006.48 263.155 1007.21 264.273 1007.75 265.665C1008.28 267.057 1008.55 268.771 1008.55 270.807V272.227H991.737V269.33H1005.15C1005.15 268.098 1004.9 267 1004.41 266.034C1003.92 265.068 1003.23 264.306 1002.33 263.747C1001.44 263.188 1000.39 262.909 999.18 262.909C997.844 262.909 996.689 263.241 995.714 263.903C994.748 264.557 994.004 265.409 993.484 266.46C992.963 267.511 992.702 268.638 992.702 269.841V271.773C992.702 273.42 992.987 274.817 993.555 275.963C994.132 277.099 994.933 277.966 995.955 278.562C996.978 279.15 998.166 279.443 999.521 279.443C1000.4 279.443 1001.2 279.32 1001.91 279.074C1002.63 278.818 1003.25 278.439 1003.77 277.938C1004.29 277.426 1004.69 276.792 1004.98 276.034L1008.21 276.943C1007.87 278.042 1007.3 279.008 1006.5 279.841C1005.69 280.665 1004.7 281.309 1003.51 281.773C1002.33 282.227 1001 282.455 999.521 282.455Z" fill="white"/>
</svg>
