<svg width="707" height="1477" viewBox="0 0 707 1477" fill="none" xmlns="http://www.w3.org/2000/svg">
<rect x="516" y="167" width="136" height="136" rx="27" stroke="#DBDBDB" stroke-width="2"/>
<rect x="516" y="700" width="136" height="136" rx="27" stroke="#DBDBDB" stroke-width="2"/>
<rect x="516" y="1233" width="136" height="136" rx="27" stroke="#DBDBDB" stroke-width="2"/>
<rect x="360" y="700" width="136" height="136" rx="27" stroke="#DBDBDB" stroke-width="2"/>
<rect x="360" y="1233" width="136" height="136" rx="27" stroke="#DBDBDB" stroke-width="2"/>
<rect x="360" y="167" width="136" height="136" rx="27" stroke="#DBDBDB" stroke-width="2" stroke-dasharray="20 20"/>
<rect x="204" y="167" width="136" height="136" rx="27" stroke="#DBDBDB" stroke-width="2" stroke-dasharray="20 20"/>
<rect x="48" y="167" width="136" height="136" rx="27" stroke="#DBDBDB" stroke-width="2" stroke-dasharray="20 20"/>
<rect x="1" y="137" width="705" height="197" rx="27" stroke="#DBDBDB" stroke-width="2"/>
<rect x="1" y="670" width="705" height="197" rx="27" stroke="#DBDBDB" stroke-width="2"/>
<rect x="1" y="1203" width="705" height="197" rx="27" stroke="#DBDBDB" stroke-width="2"/>
<rect x="204" y="700" width="136" height="136" rx="27" stroke="#DBDBDB" stroke-width="2" stroke-dasharray="20 20"/>
<rect x="204" y="1233" width="136" height="136" rx="27" stroke="#DBDBDB" stroke-width="2"/>
<rect x="48" y="700" width="136" height="136" rx="27" stroke="#DBDBDB" stroke-width="2" stroke-dasharray="20 20"/>
<rect x="48" y="1233" width="136" height="136" rx="27" stroke="#DBDBDB" stroke-width="2" stroke-dasharray="20 20"/>
<path d="M565.523 251V221.909H575.352C577.634 221.909 579.5 222.321 580.949 223.145C582.407 223.959 583.487 225.062 584.188 226.455C584.888 227.847 585.239 229.4 585.239 231.114C585.239 232.828 584.888 234.385 584.188 235.787C583.496 237.188 582.426 238.306 580.977 239.139C579.528 239.963 577.672 240.375 575.409 240.375H568.364V237.25H575.295C576.858 237.25 578.113 236.98 579.06 236.44C580.007 235.901 580.693 235.171 581.119 234.253C581.555 233.325 581.773 232.278 581.773 231.114C581.773 229.949 581.555 228.907 581.119 227.989C580.693 227.07 580.002 226.35 579.045 225.83C578.089 225.299 576.82 225.034 575.239 225.034H569.045V251H565.523ZM600.629 221.909V251H597.107V225.602H596.936L589.834 230.318V226.739L597.107 221.909H600.629Z" fill="white"/>
<path d="M574.841 108.398C572.966 108.398 571.295 108.076 569.827 107.432C568.368 106.788 567.208 105.893 566.347 104.747C565.494 103.592 565.03 102.252 564.955 100.727H568.534C568.61 101.665 568.932 102.474 569.5 103.156C570.068 103.829 570.812 104.349 571.73 104.719C572.649 105.088 573.667 105.273 574.784 105.273C576.034 105.273 577.142 105.055 578.108 104.619C579.074 104.184 579.831 103.578 580.381 102.801C580.93 102.025 581.205 101.125 581.205 100.102C581.205 99.0322 580.939 98.09 580.409 97.2756C579.879 96.4517 579.102 95.8078 578.08 95.3438C577.057 94.8797 575.807 94.6477 574.33 94.6477H572V91.5227H574.33C575.485 91.5227 576.498 91.3144 577.369 90.8977C578.25 90.4811 578.937 89.8939 579.429 89.1364C579.931 88.3788 580.182 87.4886 580.182 86.4659C580.182 85.4811 579.964 84.6241 579.528 83.8949C579.093 83.1657 578.477 82.5975 577.682 82.1903C576.896 81.7831 575.968 81.5795 574.898 81.5795C573.894 81.5795 572.947 81.7642 572.057 82.1335C571.176 82.4934 570.456 83.0189 569.898 83.7102C569.339 84.392 569.036 85.2159 568.989 86.1818H565.58C565.636 84.6572 566.096 83.322 566.957 82.1761C567.819 81.0208 568.946 80.1212 570.338 79.4773C571.74 78.8333 573.278 78.5114 574.955 78.5114C576.754 78.5114 578.297 78.8759 579.585 79.6051C580.873 80.3248 581.863 81.2765 582.554 82.4602C583.245 83.6439 583.591 84.9223 583.591 86.2955C583.591 87.9337 583.16 89.3305 582.298 90.4858C581.446 91.6411 580.286 92.4413 578.818 92.8864V93.1136C580.655 93.4167 582.09 94.1979 583.122 95.4574C584.154 96.7074 584.67 98.2557 584.67 100.102C584.67 101.684 584.24 103.104 583.378 104.364C582.526 105.614 581.361 106.598 579.884 107.318C578.406 108.038 576.725 108.398 574.841 108.398Z" fill="#717171"/>
<path d="M575.239 611.909V641H571.716V615.602H571.545L564.443 620.318V616.739L571.716 611.909H575.239Z" fill="#717171"/>
<path d="M575.239 1144.91V1174H571.716V1148.6H571.545L564.443 1153.32V1149.74L571.716 1144.91H575.239Z" fill="#717171"/>
<path d="M427.841 641.398C425.966 641.398 424.295 641.076 422.827 640.432C421.368 639.788 420.208 638.893 419.347 637.747C418.494 636.592 418.03 635.252 417.955 633.727H421.534C421.61 634.665 421.932 635.474 422.5 636.156C423.068 636.829 423.812 637.349 424.73 637.719C425.649 638.088 426.667 638.273 427.784 638.273C429.034 638.273 430.142 638.055 431.108 637.619C432.074 637.184 432.831 636.578 433.381 635.801C433.93 635.025 434.205 634.125 434.205 633.102C434.205 632.032 433.939 631.09 433.409 630.276C432.879 629.452 432.102 628.808 431.08 628.344C430.057 627.88 428.807 627.648 427.33 627.648H425V624.523H427.33C428.485 624.523 429.498 624.314 430.369 623.898C431.25 623.481 431.937 622.894 432.429 622.136C432.931 621.379 433.182 620.489 433.182 619.466C433.182 618.481 432.964 617.624 432.528 616.895C432.093 616.166 431.477 615.598 430.682 615.19C429.896 614.783 428.968 614.58 427.898 614.58C426.894 614.58 425.947 614.764 425.057 615.134C424.176 615.493 423.456 616.019 422.898 616.71C422.339 617.392 422.036 618.216 421.989 619.182H418.58C418.636 617.657 419.096 616.322 419.957 615.176C420.819 614.021 421.946 613.121 423.338 612.477C424.74 611.833 426.278 611.511 427.955 611.511C429.754 611.511 431.297 611.876 432.585 612.605C433.873 613.325 434.863 614.277 435.554 615.46C436.245 616.644 436.591 617.922 436.591 619.295C436.591 620.934 436.16 622.33 435.298 623.486C434.446 624.641 433.286 625.441 431.818 625.886V626.114C433.655 626.417 435.09 627.198 436.122 628.457C437.154 629.707 437.67 631.256 437.67 633.102C437.67 634.684 437.24 636.104 436.378 637.364C435.526 638.614 434.361 639.598 432.884 640.318C431.406 641.038 429.725 641.398 427.841 641.398Z" fill="#717171"/>
<path d="M418.011 1174V1171.44L427.614 1160.93C428.741 1159.7 429.669 1158.63 430.398 1157.72C431.127 1156.8 431.667 1155.94 432.017 1155.14C432.377 1154.32 432.557 1153.47 432.557 1152.58C432.557 1151.56 432.311 1150.67 431.818 1149.92C431.335 1149.18 430.672 1148.6 429.83 1148.19C428.987 1147.78 428.04 1147.58 426.989 1147.58C425.871 1147.58 424.896 1147.81 424.062 1148.28C423.239 1148.73 422.599 1149.37 422.145 1150.19C421.7 1151.02 421.477 1151.98 421.477 1153.09H418.125C418.125 1151.39 418.518 1149.89 419.304 1148.6C420.09 1147.31 421.16 1146.31 422.514 1145.59C423.878 1144.87 425.407 1144.51 427.102 1144.51C428.807 1144.51 430.317 1144.87 431.634 1145.59C432.95 1146.31 433.982 1147.28 434.73 1148.5C435.478 1149.72 435.852 1151.08 435.852 1152.58C435.852 1153.65 435.658 1154.7 435.27 1155.72C434.891 1156.73 434.228 1157.86 433.281 1159.11C432.344 1160.35 431.042 1161.87 429.375 1163.66L422.841 1170.65V1170.88H436.364V1174H418.011Z" fill="#717171"/>
<path d="M271.841 1174.4C269.966 1174.4 268.295 1174.08 266.827 1173.43C265.368 1172.79 264.208 1171.89 263.347 1170.75C262.494 1169.59 262.03 1168.25 261.955 1166.73H265.534C265.61 1167.66 265.932 1168.47 266.5 1169.16C267.068 1169.83 267.812 1170.35 268.73 1170.72C269.649 1171.09 270.667 1171.27 271.784 1171.27C273.034 1171.27 274.142 1171.05 275.108 1170.62C276.074 1170.18 276.831 1169.58 277.381 1168.8C277.93 1168.02 278.205 1167.12 278.205 1166.1C278.205 1165.03 277.939 1164.09 277.409 1163.28C276.879 1162.45 276.102 1161.81 275.08 1161.34C274.057 1160.88 272.807 1160.65 271.33 1160.65H269V1157.52H271.33C272.485 1157.52 273.498 1157.31 274.369 1156.9C275.25 1156.48 275.937 1155.89 276.429 1155.14C276.931 1154.38 277.182 1153.49 277.182 1152.47C277.182 1151.48 276.964 1150.62 276.528 1149.89C276.093 1149.17 275.477 1148.6 274.682 1148.19C273.896 1147.78 272.968 1147.58 271.898 1147.58C270.894 1147.58 269.947 1147.76 269.057 1148.13C268.176 1148.49 267.456 1149.02 266.898 1149.71C266.339 1150.39 266.036 1151.22 265.989 1152.18H262.58C262.636 1150.66 263.096 1149.32 263.957 1148.18C264.819 1147.02 265.946 1146.12 267.338 1145.48C268.74 1144.83 270.278 1144.51 271.955 1144.51C273.754 1144.51 275.297 1144.88 276.585 1145.61C277.873 1146.32 278.863 1147.28 279.554 1148.46C280.245 1149.64 280.591 1150.92 280.591 1152.3C280.591 1153.93 280.16 1155.33 279.298 1156.49C278.446 1157.64 277.286 1158.44 275.818 1158.89V1159.11C277.655 1159.42 279.09 1160.2 280.122 1161.46C281.154 1162.71 281.67 1164.26 281.67 1166.1C281.67 1167.68 281.24 1169.1 280.378 1170.36C279.526 1171.61 278.361 1172.6 276.884 1173.32C275.406 1174.04 273.725 1174.4 271.841 1174.4Z" fill="#717171"/>
<path d="M561.718 784V754.909H571.548C573.83 754.909 575.695 755.321 577.144 756.145C578.603 756.959 579.682 758.062 580.383 759.455C581.084 760.847 581.434 762.4 581.434 764.114C581.434 765.828 581.084 767.385 580.383 768.787C579.692 770.188 578.621 771.306 577.173 772.139C575.724 772.963 573.868 773.375 571.604 773.375H564.559V770.25H571.491C573.053 770.25 574.308 769.98 575.255 769.44C576.202 768.901 576.888 768.171 577.315 767.253C577.75 766.325 577.968 765.278 577.968 764.114C577.968 762.949 577.75 761.907 577.315 760.989C576.888 760.07 576.197 759.35 575.241 758.83C574.284 758.299 573.015 758.034 571.434 758.034H565.241V784H561.718ZM586.597 784V781.443L596.2 770.932C597.326 769.701 598.254 768.631 598.984 767.722C599.713 766.803 600.253 765.941 600.603 765.136C600.963 764.322 601.143 763.47 601.143 762.58C601.143 761.557 600.897 760.671 600.404 759.923C599.921 759.175 599.258 758.598 598.415 758.19C597.573 757.783 596.626 757.58 595.575 757.58C594.457 757.58 593.482 757.812 592.648 758.276C591.825 758.73 591.185 759.369 590.731 760.193C590.286 761.017 590.063 761.983 590.063 763.091H586.711C586.711 761.386 587.104 759.89 587.89 758.602C588.676 757.314 589.746 756.311 591.1 755.591C592.464 754.871 593.993 754.511 595.688 754.511C597.393 754.511 598.903 754.871 600.219 755.591C601.536 756.311 602.568 757.281 603.316 758.503C604.064 759.724 604.438 761.083 604.438 762.58C604.438 763.65 604.244 764.696 603.856 765.719C603.477 766.732 602.814 767.864 601.867 769.114C600.93 770.354 599.628 771.869 597.961 773.659L591.427 780.648V780.875H604.95V784H586.597Z" fill="white"/>
<path d="M561.718 1317V1287.91H571.548C573.83 1287.91 575.695 1288.32 577.144 1289.14C578.603 1289.96 579.682 1291.06 580.383 1292.45C581.084 1293.85 581.434 1295.4 581.434 1297.11C581.434 1298.83 581.084 1300.39 580.383 1301.79C579.692 1303.19 578.621 1304.31 577.173 1305.14C575.724 1305.96 573.868 1306.38 571.604 1306.38H564.559V1303.25H571.491C573.053 1303.25 574.308 1302.98 575.255 1302.44C576.202 1301.9 576.888 1301.17 577.315 1300.25C577.75 1299.32 577.968 1298.28 577.968 1297.11C577.968 1295.95 577.75 1294.91 577.315 1293.99C576.888 1293.07 576.197 1292.35 575.241 1291.83C574.284 1291.3 573.015 1291.03 571.434 1291.03H565.241V1317H561.718ZM586.597 1317V1314.44L596.2 1303.93C597.326 1302.7 598.254 1301.63 598.984 1300.72C599.713 1299.8 600.253 1298.94 600.603 1298.14C600.963 1297.32 601.143 1296.47 601.143 1295.58C601.143 1294.56 600.897 1293.67 600.404 1292.92C599.921 1292.18 599.258 1291.6 598.415 1291.19C597.573 1290.78 596.626 1290.58 595.575 1290.58C594.457 1290.58 593.482 1290.81 592.648 1291.28C591.825 1291.73 591.185 1292.37 590.731 1293.19C590.286 1294.02 590.063 1294.98 590.063 1296.09H586.711C586.711 1294.39 587.104 1292.89 587.89 1291.6C588.676 1290.31 589.746 1289.31 591.1 1288.59C592.464 1287.87 593.993 1287.51 595.688 1287.51C597.393 1287.51 598.903 1287.87 600.219 1288.59C601.536 1289.31 602.568 1290.28 603.316 1291.5C604.064 1292.72 604.438 1294.08 604.438 1295.58C604.438 1296.65 604.244 1297.7 603.856 1298.72C603.477 1299.73 602.814 1300.86 601.867 1302.11C600.93 1303.35 599.628 1304.87 597.961 1306.66L591.427 1313.65V1313.88H604.95V1317H586.597Z" fill="white"/>
<path d="M408.531 784V754.909H418.36C420.642 754.909 422.508 755.321 423.957 756.145C425.415 756.959 426.495 758.062 427.195 759.455C427.896 760.847 428.246 762.4 428.246 764.114C428.246 765.828 427.896 767.385 427.195 768.787C426.504 770.188 425.434 771.306 423.985 772.139C422.536 772.963 420.68 773.375 418.417 773.375H411.371V770.25H418.303C419.866 770.25 421.121 769.98 422.067 769.44C423.014 768.901 423.701 768.171 424.127 767.253C424.563 766.325 424.781 765.278 424.781 764.114C424.781 762.949 424.563 761.907 424.127 760.989C423.701 760.07 423.01 759.35 422.053 758.83C421.097 758.299 419.828 758.034 418.246 758.034H412.053V784H408.531ZM443.637 754.909V784H440.114V758.602H439.944L432.842 763.318V759.739L440.114 754.909H443.637Z" fill="white"/>
<path d="M405.593 1317V1287.91H415.423C417.705 1287.91 419.57 1288.32 421.019 1289.14C422.478 1289.96 423.557 1291.06 424.258 1292.45C424.959 1293.85 425.309 1295.4 425.309 1297.11C425.309 1298.83 424.959 1300.39 424.258 1301.79C423.567 1303.19 422.496 1304.31 421.048 1305.14C419.599 1305.96 417.743 1306.38 415.479 1306.38H408.434V1303.25H415.366C416.928 1303.25 418.183 1302.98 419.13 1302.44C420.077 1301.9 420.763 1301.17 421.19 1300.25C421.625 1299.32 421.843 1298.28 421.843 1297.11C421.843 1295.95 421.625 1294.91 421.19 1293.99C420.763 1293.07 420.072 1292.35 419.116 1291.83C418.159 1291.3 416.89 1291.03 415.309 1291.03H409.116V1317H405.593ZM440.302 1317.4C438.427 1317.4 436.755 1317.08 435.288 1316.43C433.829 1315.79 432.669 1314.89 431.808 1313.75C430.955 1312.59 430.491 1311.25 430.415 1309.73H433.995C434.071 1310.66 434.393 1311.47 434.961 1312.16C435.529 1312.83 436.272 1313.35 437.191 1313.72C438.11 1314.09 439.128 1314.27 440.245 1314.27C441.495 1314.27 442.603 1314.05 443.569 1313.62C444.535 1313.18 445.292 1312.58 445.842 1311.8C446.391 1311.02 446.665 1310.12 446.665 1309.1C446.665 1308.03 446.4 1307.09 445.87 1306.28C445.34 1305.45 444.563 1304.81 443.54 1304.34C442.518 1303.88 441.268 1303.65 439.79 1303.65H437.461V1300.52H439.79C440.946 1300.52 441.959 1300.31 442.83 1299.9C443.711 1299.48 444.397 1298.89 444.89 1298.14C445.392 1297.38 445.643 1296.49 445.643 1295.47C445.643 1294.48 445.425 1293.62 444.989 1292.89C444.554 1292.17 443.938 1291.6 443.143 1291.19C442.357 1290.78 441.429 1290.58 440.359 1290.58C439.355 1290.58 438.408 1290.76 437.518 1291.13C436.637 1291.49 435.917 1292.02 435.359 1292.71C434.8 1293.39 434.497 1294.22 434.45 1295.18H431.04C431.097 1293.66 431.557 1292.32 432.418 1291.18C433.28 1290.02 434.407 1289.12 435.799 1288.48C437.201 1287.83 438.739 1287.51 440.415 1287.51C442.215 1287.51 443.758 1287.88 445.046 1288.61C446.334 1289.32 447.324 1290.28 448.015 1291.46C448.706 1292.64 449.052 1293.92 449.052 1295.3C449.052 1296.93 448.621 1298.33 447.759 1299.49C446.907 1300.64 445.747 1301.44 444.279 1301.89V1302.11C446.116 1302.42 447.551 1303.2 448.583 1304.46C449.615 1305.71 450.131 1307.26 450.131 1309.1C450.131 1310.68 449.701 1312.1 448.839 1313.36C447.987 1314.61 446.822 1315.6 445.344 1316.32C443.867 1317.04 442.186 1317.4 440.302 1317.4Z" fill="white"/>
<path d="M433.568 236.966V240.091H420.841V236.966H433.568Z" fill="white"/>
<path d="M277.568 769.966V773.091H264.841V769.966H277.568Z" fill="white"/>
<path d="M252.531 1317V1287.91H262.36C264.642 1287.91 266.508 1288.32 267.957 1289.14C269.415 1289.96 270.495 1291.06 271.195 1292.45C271.896 1293.85 272.246 1295.4 272.246 1297.11C272.246 1298.83 271.896 1300.39 271.195 1301.79C270.504 1303.19 269.434 1304.31 267.985 1305.14C266.536 1305.96 264.68 1306.38 262.417 1306.38H255.371V1303.25H262.303C263.866 1303.25 265.121 1302.98 266.067 1302.44C267.014 1301.9 267.701 1301.17 268.127 1300.25C268.563 1299.32 268.781 1298.28 268.781 1297.11C268.781 1295.95 268.563 1294.91 268.127 1293.99C267.701 1293.07 267.01 1292.35 266.053 1291.83C265.097 1291.3 263.828 1291.03 262.246 1291.03H256.053V1317H252.531ZM287.637 1287.91V1317H284.114V1291.6H283.944L276.842 1296.32V1292.74L284.114 1287.91H287.637Z" fill="white"/>
<path d="M277.568 236.966V240.091H264.841V236.966H277.568Z" fill="white"/>
<path d="M121.568 769.966V773.091H108.841V769.966H121.568Z" fill="white"/>
<path d="M121.568 1302.97V1306.09H108.841V1302.97H121.568Z" fill="white"/>
<path d="M121.568 236.966V240.091H108.841V236.966H121.568Z" fill="white"/>
<path d="M222.238 39V9.90909H232.067C234.349 9.90909 236.215 10.321 237.664 11.1449C239.122 11.9593 240.202 13.0625 240.902 14.4545C241.603 15.8466 241.953 17.3996 241.953 19.1136C241.953 20.8277 241.603 22.3854 240.902 23.7869C240.211 25.1884 239.141 26.3059 237.692 27.1392C236.243 27.9631 234.387 28.375 232.124 28.375H225.078V25.25H232.01C233.573 25.25 234.828 24.9801 235.775 24.4403C236.721 23.9006 237.408 23.1714 237.834 22.2528C238.27 21.3248 238.488 20.2784 238.488 19.1136C238.488 17.9489 238.27 16.9072 237.834 15.9886C237.408 15.0701 236.717 14.3504 235.76 13.8295C234.804 13.2992 233.535 13.0341 231.953 13.0341H225.76V39H222.238ZM247.174 39V17.1818H250.412V20.4773H250.64C251.037 19.3977 251.757 18.5218 252.799 17.8494C253.84 17.1771 255.015 16.8409 256.321 16.8409C256.568 16.8409 256.875 16.8456 257.245 16.8551C257.614 16.8646 257.893 16.8788 258.083 16.8977V20.3068C257.969 20.2784 257.709 20.2358 257.301 20.179C256.904 20.1127 256.482 20.0795 256.037 20.0795C254.977 20.0795 254.03 20.3021 253.196 20.7472C252.373 21.1828 251.719 21.7888 251.236 22.5653C250.763 23.3324 250.526 24.2083 250.526 25.1932V39H247.174ZM262.056 39V17.1818H265.409V39H262.056ZM263.761 13.5455C263.108 13.5455 262.544 13.3229 262.071 12.8778C261.607 12.4328 261.375 11.8977 261.375 11.2727C261.375 10.6477 261.607 10.1127 262.071 9.66761C262.544 9.22254 263.108 9 263.761 9C264.414 9 264.973 9.22254 265.437 9.66761C265.911 10.1127 266.147 10.6477 266.147 11.2727C266.147 11.8977 265.911 12.4328 265.437 12.8778C264.973 13.3229 264.414 13.5455 263.761 13.5455ZM280.412 39.4545C278.443 39.4545 276.714 38.9858 275.228 38.0483C273.75 37.1108 272.595 35.7992 271.762 34.1136C270.938 32.428 270.526 30.4583 270.526 28.2045C270.526 25.9318 270.938 23.9479 271.762 22.2528C272.595 20.5578 273.75 19.2415 275.228 18.304C276.714 17.3665 278.443 16.8977 280.412 16.8977C282.382 16.8977 284.105 17.3665 285.583 18.304C287.069 19.2415 288.225 20.5578 289.049 22.2528C289.882 23.9479 290.299 25.9318 290.299 28.2045C290.299 30.4583 289.882 32.428 289.049 34.1136C288.225 35.7992 287.069 37.1108 285.583 38.0483C284.105 38.9858 282.382 39.4545 280.412 39.4545ZM280.412 36.4432C281.908 36.4432 283.14 36.0597 284.105 35.2926C285.071 34.5256 285.786 33.517 286.25 32.267C286.714 31.017 286.946 29.6629 286.946 28.2045C286.946 26.7462 286.714 25.3873 286.25 24.1278C285.786 22.8684 285.071 21.8504 284.105 21.0739C283.14 20.2973 281.908 19.9091 280.412 19.9091C278.916 19.9091 277.685 20.2973 276.719 21.0739C275.753 21.8504 275.038 22.8684 274.574 24.1278C274.11 25.3873 273.878 26.7462 273.878 28.2045C273.878 29.6629 274.11 31.017 274.574 32.267C275.038 33.517 275.753 34.5256 276.719 35.2926C277.685 36.0597 278.916 36.4432 280.412 36.4432ZM295.416 39V17.1818H298.654V20.4773H298.882C299.279 19.3977 299.999 18.5218 301.041 17.8494C302.083 17.1771 303.257 16.8409 304.564 16.8409C304.81 16.8409 305.118 16.8456 305.487 16.8551C305.856 16.8646 306.136 16.8788 306.325 16.8977V20.3068C306.211 20.2784 305.951 20.2358 305.544 20.179C305.146 20.1127 304.725 20.0795 304.279 20.0795C303.219 20.0795 302.272 20.3021 301.439 20.7472C300.615 21.1828 299.961 21.7888 299.478 22.5653C299.005 23.3324 298.768 24.2083 298.768 25.1932V39H295.416ZM310.299 39V17.1818H313.651V39H310.299ZM312.003 13.5455C311.35 13.5455 310.786 13.3229 310.313 12.8778C309.849 12.4328 309.617 11.8977 309.617 11.2727C309.617 10.6477 309.849 10.1127 310.313 9.66761C310.786 9.22254 311.35 9 312.003 9C312.657 9 313.215 9.22254 313.679 9.66761C314.153 10.1127 314.39 10.6477 314.39 11.2727C314.39 11.8977 314.153 12.4328 313.679 12.8778C313.215 13.3229 312.657 13.5455 312.003 13.5455ZM329.279 17.1818V20.0227H317.973V17.1818H329.279ZM321.268 11.9545H324.62V32.75C324.62 33.697 324.758 34.4072 325.032 34.8807C325.316 35.3447 325.676 35.6572 326.112 35.8182C326.557 35.9697 327.026 36.0455 327.518 36.0455C327.887 36.0455 328.19 36.0265 328.427 35.9886C328.664 35.9413 328.853 35.9034 328.995 35.875L329.677 38.8864C329.45 38.9716 329.133 39.0568 328.725 39.142C328.318 39.2367 327.802 39.2841 327.177 39.2841C326.23 39.2841 325.302 39.0805 324.393 38.6733C323.493 38.2661 322.745 37.6458 322.149 36.8125C321.562 35.9792 321.268 34.928 321.268 33.6591V11.9545ZM336.481 47.1818C335.913 47.1818 335.406 47.1345 334.961 47.0398C334.516 46.9545 334.208 46.8693 334.038 46.7841L334.89 43.8295C335.705 44.0379 336.424 44.1136 337.049 44.0568C337.674 44 338.228 43.7206 338.711 43.2188C339.204 42.7263 339.654 41.9261 340.061 40.8182L340.686 39.1136L332.618 17.1818H336.254L342.277 34.5682H342.504L348.527 17.1818H352.163L342.902 42.1818C342.485 43.3087 341.969 44.2415 341.353 44.9801C340.738 45.7282 340.023 46.2822 339.208 46.642C338.404 47.0019 337.494 47.1818 336.481 47.1818ZM378.86 29.9091H382.724L385.963 34.1705L386.815 35.3068L391.645 41.7273H387.781L384.599 37.4659L383.804 36.3864L378.86 29.9091ZM392.838 24.4545C392.838 27.5227 392.284 30.1742 391.176 32.4091C390.068 34.6439 388.548 36.3674 386.616 37.5795C384.684 38.7917 382.478 39.3977 379.997 39.3977C377.516 39.3977 375.309 38.7917 373.377 37.5795C371.446 36.3674 369.926 34.6439 368.818 32.4091C367.71 30.1742 367.156 27.5227 367.156 24.4545C367.156 21.3864 367.71 18.7348 368.818 16.5C369.926 14.2652 371.446 12.5417 373.377 11.3295C375.309 10.1174 377.516 9.51136 379.997 9.51136C382.478 9.51136 384.684 10.1174 386.616 11.3295C388.548 12.5417 390.068 14.2652 391.176 16.5C392.284 18.7348 392.838 21.3864 392.838 24.4545ZM389.429 24.4545C389.429 21.9356 389.007 19.8097 388.164 18.0767C387.331 16.3438 386.199 15.0322 384.77 14.142C383.349 13.2519 381.758 12.8068 379.997 12.8068C378.235 12.8068 376.64 13.2519 375.21 14.142C373.789 15.0322 372.658 16.3438 371.815 18.0767C370.982 19.8097 370.565 21.9356 370.565 24.4545C370.565 26.9735 370.982 29.0994 371.815 30.8324C372.658 32.5653 373.789 33.8769 375.21 34.767C376.64 35.6572 378.235 36.1023 379.997 36.1023C381.758 36.1023 383.349 35.6572 384.77 34.767C386.199 33.8769 387.331 32.5653 388.164 30.8324C389.007 29.0994 389.429 26.9735 389.429 24.4545ZM412.056 30.0795V17.1818H415.409V39H412.056V35.3068H411.829C411.318 36.4148 410.522 37.357 409.443 38.1335C408.363 38.9006 407 39.2841 405.352 39.2841C403.988 39.2841 402.776 38.9858 401.716 38.3892C400.655 37.7831 399.822 36.8741 399.216 35.6619C398.609 34.4403 398.306 32.9015 398.306 31.0455V17.1818H401.659V30.8182C401.659 32.4091 402.104 33.678 402.994 34.625C403.894 35.572 405.039 36.0455 406.431 36.0455C407.265 36.0455 408.112 35.8324 408.974 35.4062C409.845 34.9801 410.574 34.3267 411.162 33.446C411.758 32.5653 412.056 31.4432 412.056 30.0795ZM430.696 39.4545C428.594 39.4545 426.781 38.9905 425.256 38.0625C423.741 37.125 422.571 35.8182 421.748 34.142C420.933 32.4564 420.526 30.4962 420.526 28.2614C420.526 26.0265 420.933 24.0568 421.748 22.3523C422.571 20.6383 423.717 19.303 425.185 18.3466C426.662 17.3807 428.386 16.8977 430.355 16.8977C431.492 16.8977 432.614 17.0871 433.722 17.4659C434.83 17.8447 435.838 18.4602 436.748 19.3125C437.657 20.1553 438.381 21.2727 438.921 22.6648C439.461 24.0568 439.73 25.7708 439.73 27.8068V29.2273H422.912V26.3295H436.321C436.321 25.0985 436.075 24 435.583 23.0341C435.1 22.0682 434.408 21.3059 433.509 20.7472C432.619 20.1884 431.568 19.9091 430.355 19.9091C429.02 19.9091 427.865 20.2405 426.89 20.9034C425.924 21.5568 425.18 22.4091 424.659 23.4602C424.139 24.5114 423.878 25.6383 423.878 26.8409V28.7727C423.878 30.4205 424.162 31.8172 424.73 32.9631C425.308 34.0994 426.108 34.9659 427.131 35.5625C428.154 36.1496 429.342 36.4432 430.696 36.4432C431.577 36.4432 432.373 36.3201 433.083 36.0739C433.802 35.8182 434.423 35.4394 434.944 34.9375C435.464 34.4261 435.867 33.7917 436.151 33.0341L439.39 33.9432C439.049 35.0417 438.476 36.0076 437.671 36.8409C436.866 37.6648 435.872 38.3087 434.688 38.7727C433.504 39.2273 432.174 39.4545 430.696 39.4545ZM458.58 30.0795V17.1818H461.932V39H458.58V35.3068H458.353C457.841 36.4148 457.046 37.357 455.966 38.1335C454.887 38.9006 453.523 39.2841 451.875 39.2841C450.512 39.2841 449.3 38.9858 448.239 38.3892C447.178 37.7831 446.345 36.8741 445.739 35.6619C445.133 34.4403 444.83 32.9015 444.83 31.0455V17.1818H448.182V30.8182C448.182 32.4091 448.627 33.678 449.517 34.625C450.417 35.572 451.563 36.0455 452.955 36.0455C453.788 36.0455 454.636 35.8324 455.498 35.4062C456.369 34.9801 457.098 34.3267 457.685 33.446C458.282 32.5653 458.58 31.4432 458.58 30.0795ZM477.22 39.4545C475.118 39.4545 473.304 38.9905 471.779 38.0625C470.264 37.125 469.095 35.8182 468.271 34.142C467.457 32.4564 467.049 30.4962 467.049 28.2614C467.049 26.0265 467.457 24.0568 468.271 22.3523C469.095 20.6383 470.241 19.303 471.708 18.3466C473.186 17.3807 474.909 16.8977 476.879 16.8977C478.015 16.8977 479.137 17.0871 480.245 17.4659C481.353 17.8447 482.362 18.4602 483.271 19.3125C484.18 20.1553 484.904 21.2727 485.444 22.6648C485.984 24.0568 486.254 25.7708 486.254 27.8068V29.2273H469.436V26.3295H482.845C482.845 25.0985 482.599 24 482.106 23.0341C481.623 22.0682 480.932 21.3059 480.032 20.7472C479.142 20.1884 478.091 19.9091 476.879 19.9091C475.544 19.9091 474.388 20.2405 473.413 20.9034C472.447 21.5568 471.704 22.4091 471.183 23.4602C470.662 24.5114 470.402 25.6383 470.402 26.8409V28.7727C470.402 30.4205 470.686 31.8172 471.254 32.9631C471.832 34.0994 472.632 34.9659 473.654 35.5625C474.677 36.1496 475.866 36.4432 477.22 36.4432C478.1 36.4432 478.896 36.3201 479.606 36.0739C480.326 35.8182 480.946 35.4394 481.467 34.9375C481.988 34.4261 482.39 33.7917 482.674 33.0341L485.913 33.9432C485.572 35.0417 484.999 36.0076 484.194 36.8409C483.389 37.6648 482.395 38.3087 481.211 38.7727C480.028 39.2273 478.697 39.4545 477.22 39.4545Z" fill="white"/>
<path d="M222.238 559V529.909H232.067C234.349 529.909 236.215 530.321 237.664 531.145C239.122 531.959 240.202 533.062 240.902 534.455C241.603 535.847 241.953 537.4 241.953 539.114C241.953 540.828 241.603 542.385 240.902 543.787C240.211 545.188 239.141 546.306 237.692 547.139C236.243 547.963 234.387 548.375 232.124 548.375H225.078V545.25H232.01C233.573 545.25 234.828 544.98 235.775 544.44C236.721 543.901 237.408 543.171 237.834 542.253C238.27 541.325 238.488 540.278 238.488 539.114C238.488 537.949 238.27 536.907 237.834 535.989C237.408 535.07 236.717 534.35 235.76 533.83C234.804 533.299 233.535 533.034 231.953 533.034H225.76V559H222.238ZM247.174 559V537.182H250.412V540.477H250.64C251.037 539.398 251.757 538.522 252.799 537.849C253.84 537.177 255.015 536.841 256.321 536.841C256.568 536.841 256.875 536.846 257.245 536.855C257.614 536.865 257.893 536.879 258.083 536.898V540.307C257.969 540.278 257.709 540.236 257.301 540.179C256.904 540.113 256.482 540.08 256.037 540.08C254.977 540.08 254.03 540.302 253.196 540.747C252.373 541.183 251.719 541.789 251.236 542.565C250.763 543.332 250.526 544.208 250.526 545.193V559H247.174ZM262.056 559V537.182H265.409V559H262.056ZM263.761 533.545C263.108 533.545 262.544 533.323 262.071 532.878C261.607 532.433 261.375 531.898 261.375 531.273C261.375 530.648 261.607 530.113 262.071 529.668C262.544 529.223 263.108 529 263.761 529C264.414 529 264.973 529.223 265.437 529.668C265.911 530.113 266.147 530.648 266.147 531.273C266.147 531.898 265.911 532.433 265.437 532.878C264.973 533.323 264.414 533.545 263.761 533.545ZM280.412 559.455C278.443 559.455 276.714 558.986 275.228 558.048C273.75 557.111 272.595 555.799 271.762 554.114C270.938 552.428 270.526 550.458 270.526 548.205C270.526 545.932 270.938 543.948 271.762 542.253C272.595 540.558 273.75 539.241 275.228 538.304C276.714 537.366 278.443 536.898 280.412 536.898C282.382 536.898 284.105 537.366 285.583 538.304C287.069 539.241 288.225 540.558 289.049 542.253C289.882 543.948 290.299 545.932 290.299 548.205C290.299 550.458 289.882 552.428 289.049 554.114C288.225 555.799 287.069 557.111 285.583 558.048C284.105 558.986 282.382 559.455 280.412 559.455ZM280.412 556.443C281.908 556.443 283.14 556.06 284.105 555.293C285.071 554.526 285.786 553.517 286.25 552.267C286.714 551.017 286.946 549.663 286.946 548.205C286.946 546.746 286.714 545.387 286.25 544.128C285.786 542.868 285.071 541.85 284.105 541.074C283.14 540.297 281.908 539.909 280.412 539.909C278.916 539.909 277.685 540.297 276.719 541.074C275.753 541.85 275.038 542.868 274.574 544.128C274.11 545.387 273.878 546.746 273.878 548.205C273.878 549.663 274.11 551.017 274.574 552.267C275.038 553.517 275.753 554.526 276.719 555.293C277.685 556.06 278.916 556.443 280.412 556.443ZM295.416 559V537.182H298.654V540.477H298.882C299.279 539.398 299.999 538.522 301.041 537.849C302.083 537.177 303.257 536.841 304.564 536.841C304.81 536.841 305.118 536.846 305.487 536.855C305.856 536.865 306.136 536.879 306.325 536.898V540.307C306.211 540.278 305.951 540.236 305.544 540.179C305.146 540.113 304.725 540.08 304.279 540.08C303.219 540.08 302.272 540.302 301.439 540.747C300.615 541.183 299.961 541.789 299.478 542.565C299.005 543.332 298.768 544.208 298.768 545.193V559H295.416ZM310.299 559V537.182H313.651V559H310.299ZM312.003 533.545C311.35 533.545 310.786 533.323 310.313 532.878C309.849 532.433 309.617 531.898 309.617 531.273C309.617 530.648 309.849 530.113 310.313 529.668C310.786 529.223 311.35 529 312.003 529C312.657 529 313.215 529.223 313.679 529.668C314.153 530.113 314.39 530.648 314.39 531.273C314.39 531.898 314.153 532.433 313.679 532.878C313.215 533.323 312.657 533.545 312.003 533.545ZM329.279 537.182V540.023H317.973V537.182H329.279ZM321.268 531.955H324.62V552.75C324.62 553.697 324.758 554.407 325.032 554.881C325.316 555.345 325.676 555.657 326.112 555.818C326.557 555.97 327.026 556.045 327.518 556.045C327.887 556.045 328.19 556.027 328.427 555.989C328.664 555.941 328.853 555.903 328.995 555.875L329.677 558.886C329.45 558.972 329.133 559.057 328.725 559.142C328.318 559.237 327.802 559.284 327.177 559.284C326.23 559.284 325.302 559.08 324.393 558.673C323.493 558.266 322.745 557.646 322.149 556.812C321.562 555.979 321.268 554.928 321.268 553.659V531.955ZM336.481 567.182C335.913 567.182 335.406 567.134 334.961 567.04C334.516 566.955 334.208 566.869 334.038 566.784L334.89 563.83C335.705 564.038 336.424 564.114 337.049 564.057C337.674 564 338.228 563.721 338.711 563.219C339.204 562.726 339.654 561.926 340.061 560.818L340.686 559.114L332.618 537.182H336.254L342.277 554.568H342.504L348.527 537.182H352.163L342.902 562.182C342.485 563.309 341.969 564.241 341.353 564.98C340.738 565.728 340.023 566.282 339.208 566.642C338.404 567.002 337.494 567.182 336.481 567.182ZM378.86 549.909H382.724L385.963 554.17L386.815 555.307L391.645 561.727H387.781L384.599 557.466L383.804 556.386L378.86 549.909ZM392.838 544.455C392.838 547.523 392.284 550.174 391.176 552.409C390.068 554.644 388.548 556.367 386.616 557.58C384.684 558.792 382.478 559.398 379.997 559.398C377.516 559.398 375.309 558.792 373.377 557.58C371.446 556.367 369.926 554.644 368.818 552.409C367.71 550.174 367.156 547.523 367.156 544.455C367.156 541.386 367.71 538.735 368.818 536.5C369.926 534.265 371.446 532.542 373.377 531.33C375.309 530.117 377.516 529.511 379.997 529.511C382.478 529.511 384.684 530.117 386.616 531.33C388.548 532.542 390.068 534.265 391.176 536.5C392.284 538.735 392.838 541.386 392.838 544.455ZM389.429 544.455C389.429 541.936 389.007 539.81 388.164 538.077C387.331 536.344 386.199 535.032 384.77 534.142C383.349 533.252 381.758 532.807 379.997 532.807C378.235 532.807 376.64 533.252 375.21 534.142C373.789 535.032 372.658 536.344 371.815 538.077C370.982 539.81 370.565 541.936 370.565 544.455C370.565 546.973 370.982 549.099 371.815 550.832C372.658 552.565 373.789 553.877 375.21 554.767C376.64 555.657 378.235 556.102 379.997 556.102C381.758 556.102 383.349 555.657 384.77 554.767C386.199 553.877 387.331 552.565 388.164 550.832C389.007 549.099 389.429 546.973 389.429 544.455ZM412.056 550.08V537.182H415.409V559H412.056V555.307H411.829C411.318 556.415 410.522 557.357 409.443 558.134C408.363 558.901 407 559.284 405.352 559.284C403.988 559.284 402.776 558.986 401.716 558.389C400.655 557.783 399.822 556.874 399.216 555.662C398.609 554.44 398.306 552.902 398.306 551.045V537.182H401.659V550.818C401.659 552.409 402.104 553.678 402.994 554.625C403.894 555.572 405.039 556.045 406.431 556.045C407.265 556.045 408.112 555.832 408.974 555.406C409.845 554.98 410.574 554.327 411.162 553.446C411.758 552.565 412.056 551.443 412.056 550.08ZM430.696 559.455C428.594 559.455 426.781 558.991 425.256 558.062C423.741 557.125 422.571 555.818 421.748 554.142C420.933 552.456 420.526 550.496 420.526 548.261C420.526 546.027 420.933 544.057 421.748 542.352C422.571 540.638 423.717 539.303 425.185 538.347C426.662 537.381 428.386 536.898 430.355 536.898C431.492 536.898 432.614 537.087 433.722 537.466C434.83 537.845 435.838 538.46 436.748 539.312C437.657 540.155 438.381 541.273 438.921 542.665C439.461 544.057 439.73 545.771 439.73 547.807V549.227H422.912V546.33H436.321C436.321 545.098 436.075 544 435.583 543.034C435.1 542.068 434.408 541.306 433.509 540.747C432.619 540.188 431.568 539.909 430.355 539.909C429.02 539.909 427.865 540.241 426.89 540.903C425.924 541.557 425.18 542.409 424.659 543.46C424.139 544.511 423.878 545.638 423.878 546.841V548.773C423.878 550.42 424.162 551.817 424.73 552.963C425.308 554.099 426.108 554.966 427.131 555.562C428.154 556.15 429.342 556.443 430.696 556.443C431.577 556.443 432.373 556.32 433.083 556.074C433.802 555.818 434.423 555.439 434.944 554.938C435.464 554.426 435.867 553.792 436.151 553.034L439.39 553.943C439.049 555.042 438.476 556.008 437.671 556.841C436.866 557.665 435.872 558.309 434.688 558.773C433.504 559.227 432.174 559.455 430.696 559.455ZM458.58 550.08V537.182H461.932V559H458.58V555.307H458.353C457.841 556.415 457.046 557.357 455.966 558.134C454.887 558.901 453.523 559.284 451.875 559.284C450.512 559.284 449.3 558.986 448.239 558.389C447.178 557.783 446.345 556.874 445.739 555.662C445.133 554.44 444.83 552.902 444.83 551.045V537.182H448.182V550.818C448.182 552.409 448.627 553.678 449.517 554.625C450.417 555.572 451.563 556.045 452.955 556.045C453.788 556.045 454.636 555.832 455.498 555.406C456.369 554.98 457.098 554.327 457.685 553.446C458.282 552.565 458.58 551.443 458.58 550.08ZM477.22 559.455C475.118 559.455 473.304 558.991 471.779 558.062C470.264 557.125 469.095 555.818 468.271 554.142C467.457 552.456 467.049 550.496 467.049 548.261C467.049 546.027 467.457 544.057 468.271 542.352C469.095 540.638 470.241 539.303 471.708 538.347C473.186 537.381 474.909 536.898 476.879 536.898C478.015 536.898 479.137 537.087 480.245 537.466C481.353 537.845 482.362 538.46 483.271 539.312C484.18 540.155 484.904 541.273 485.444 542.665C485.984 544.057 486.254 545.771 486.254 547.807V549.227H469.436V546.33H482.845C482.845 545.098 482.599 544 482.106 543.034C481.623 542.068 480.932 541.306 480.032 540.747C479.142 540.188 478.091 539.909 476.879 539.909C475.544 539.909 474.388 540.241 473.413 540.903C472.447 541.557 471.704 542.409 471.183 543.46C470.662 544.511 470.402 545.638 470.402 546.841V548.773C470.402 550.42 470.686 551.817 471.254 552.963C471.832 554.099 472.632 554.966 473.654 555.562C474.677 556.15 475.866 556.443 477.22 556.443C478.1 556.443 478.896 556.32 479.606 556.074C480.326 555.818 480.946 555.439 481.467 554.938C481.988 554.426 482.39 553.792 482.674 553.034L485.913 553.943C485.572 555.042 484.999 556.008 484.194 556.841C483.389 557.665 482.395 558.309 481.211 558.773C480.028 559.227 478.697 559.455 477.22 559.455Z" fill="white"/>
<path d="M222.238 1092V1062.91H232.067C234.349 1062.91 236.215 1063.32 237.664 1064.14C239.122 1064.96 240.202 1066.06 240.902 1067.45C241.603 1068.85 241.953 1070.4 241.953 1072.11C241.953 1073.83 241.603 1075.39 240.902 1076.79C240.211 1078.19 239.141 1079.31 237.692 1080.14C236.243 1080.96 234.387 1081.38 232.124 1081.38H225.078V1078.25H232.01C233.573 1078.25 234.828 1077.98 235.775 1077.44C236.721 1076.9 237.408 1076.17 237.834 1075.25C238.27 1074.32 238.488 1073.28 238.488 1072.11C238.488 1070.95 238.27 1069.91 237.834 1068.99C237.408 1068.07 236.717 1067.35 235.76 1066.83C234.804 1066.3 233.535 1066.03 231.953 1066.03H225.76V1092H222.238ZM247.174 1092V1070.18H250.412V1073.48H250.64C251.037 1072.4 251.757 1071.52 252.799 1070.85C253.84 1070.18 255.015 1069.84 256.321 1069.84C256.568 1069.84 256.875 1069.85 257.245 1069.86C257.614 1069.86 257.893 1069.88 258.083 1069.9V1073.31C257.969 1073.28 257.709 1073.24 257.301 1073.18C256.904 1073.11 256.482 1073.08 256.037 1073.08C254.977 1073.08 254.03 1073.3 253.196 1073.75C252.373 1074.18 251.719 1074.79 251.236 1075.57C250.763 1076.33 250.526 1077.21 250.526 1078.19V1092H247.174ZM262.056 1092V1070.18H265.409V1092H262.056ZM263.761 1066.55C263.108 1066.55 262.544 1066.32 262.071 1065.88C261.607 1065.43 261.375 1064.9 261.375 1064.27C261.375 1063.65 261.607 1063.11 262.071 1062.67C262.544 1062.22 263.108 1062 263.761 1062C264.414 1062 264.973 1062.22 265.437 1062.67C265.911 1063.11 266.147 1063.65 266.147 1064.27C266.147 1064.9 265.911 1065.43 265.437 1065.88C264.973 1066.32 264.414 1066.55 263.761 1066.55ZM280.412 1092.45C278.443 1092.45 276.714 1091.99 275.228 1091.05C273.75 1090.11 272.595 1088.8 271.762 1087.11C270.938 1085.43 270.526 1083.46 270.526 1081.2C270.526 1078.93 270.938 1076.95 271.762 1075.25C272.595 1073.56 273.75 1072.24 275.228 1071.3C276.714 1070.37 278.443 1069.9 280.412 1069.9C282.382 1069.9 284.105 1070.37 285.583 1071.3C287.069 1072.24 288.225 1073.56 289.049 1075.25C289.882 1076.95 290.299 1078.93 290.299 1081.2C290.299 1083.46 289.882 1085.43 289.049 1087.11C288.225 1088.8 287.069 1090.11 285.583 1091.05C284.105 1091.99 282.382 1092.45 280.412 1092.45ZM280.412 1089.44C281.908 1089.44 283.14 1089.06 284.105 1088.29C285.071 1087.53 285.786 1086.52 286.25 1085.27C286.714 1084.02 286.946 1082.66 286.946 1081.2C286.946 1079.75 286.714 1078.39 286.25 1077.13C285.786 1075.87 285.071 1074.85 284.105 1074.07C283.14 1073.3 281.908 1072.91 280.412 1072.91C278.916 1072.91 277.685 1073.3 276.719 1074.07C275.753 1074.85 275.038 1075.87 274.574 1077.13C274.11 1078.39 273.878 1079.75 273.878 1081.2C273.878 1082.66 274.11 1084.02 274.574 1085.27C275.038 1086.52 275.753 1087.53 276.719 1088.29C277.685 1089.06 278.916 1089.44 280.412 1089.44ZM295.416 1092V1070.18H298.654V1073.48H298.882C299.279 1072.4 299.999 1071.52 301.041 1070.85C302.083 1070.18 303.257 1069.84 304.564 1069.84C304.81 1069.84 305.118 1069.85 305.487 1069.86C305.856 1069.86 306.136 1069.88 306.325 1069.9V1073.31C306.211 1073.28 305.951 1073.24 305.544 1073.18C305.146 1073.11 304.725 1073.08 304.279 1073.08C303.219 1073.08 302.272 1073.3 301.439 1073.75C300.615 1074.18 299.961 1074.79 299.478 1075.57C299.005 1076.33 298.768 1077.21 298.768 1078.19V1092H295.416ZM310.299 1092V1070.18H313.651V1092H310.299ZM312.003 1066.55C311.35 1066.55 310.786 1066.32 310.313 1065.88C309.849 1065.43 309.617 1064.9 309.617 1064.27C309.617 1063.65 309.849 1063.11 310.313 1062.67C310.786 1062.22 311.35 1062 312.003 1062C312.657 1062 313.215 1062.22 313.679 1062.67C314.153 1063.11 314.39 1063.65 314.39 1064.27C314.39 1064.9 314.153 1065.43 313.679 1065.88C313.215 1066.32 312.657 1066.55 312.003 1066.55ZM329.279 1070.18V1073.02H317.973V1070.18H329.279ZM321.268 1064.95H324.62V1085.75C324.62 1086.7 324.758 1087.41 325.032 1087.88C325.316 1088.34 325.676 1088.66 326.112 1088.82C326.557 1088.97 327.026 1089.05 327.518 1089.05C327.887 1089.05 328.19 1089.03 328.427 1088.99C328.664 1088.94 328.853 1088.9 328.995 1088.88L329.677 1091.89C329.45 1091.97 329.133 1092.06 328.725 1092.14C328.318 1092.24 327.802 1092.28 327.177 1092.28C326.23 1092.28 325.302 1092.08 324.393 1091.67C323.493 1091.27 322.745 1090.65 322.149 1089.81C321.562 1088.98 321.268 1087.93 321.268 1086.66V1064.95ZM336.481 1100.18C335.913 1100.18 335.406 1100.13 334.961 1100.04C334.516 1099.95 334.208 1099.87 334.038 1099.78L334.89 1096.83C335.705 1097.04 336.424 1097.11 337.049 1097.06C337.674 1097 338.228 1096.72 338.711 1096.22C339.204 1095.73 339.654 1094.93 340.061 1093.82L340.686 1092.11L332.618 1070.18H336.254L342.277 1087.57H342.504L348.527 1070.18H352.163L342.902 1095.18C342.485 1096.31 341.969 1097.24 341.353 1097.98C340.738 1098.73 340.023 1099.28 339.208 1099.64C338.404 1100 337.494 1100.18 336.481 1100.18ZM378.86 1082.91H382.724L385.963 1087.17L386.815 1088.31L391.645 1094.73H387.781L384.599 1090.47L383.804 1089.39L378.86 1082.91ZM392.838 1077.45C392.838 1080.52 392.284 1083.17 391.176 1085.41C390.068 1087.64 388.548 1089.37 386.616 1090.58C384.684 1091.79 382.478 1092.4 379.997 1092.4C377.516 1092.4 375.309 1091.79 373.377 1090.58C371.446 1089.37 369.926 1087.64 368.818 1085.41C367.71 1083.17 367.156 1080.52 367.156 1077.45C367.156 1074.39 367.71 1071.73 368.818 1069.5C369.926 1067.27 371.446 1065.54 373.377 1064.33C375.309 1063.12 377.516 1062.51 379.997 1062.51C382.478 1062.51 384.684 1063.12 386.616 1064.33C388.548 1065.54 390.068 1067.27 391.176 1069.5C392.284 1071.73 392.838 1074.39 392.838 1077.45ZM389.429 1077.45C389.429 1074.94 389.007 1072.81 388.164 1071.08C387.331 1069.34 386.199 1068.03 384.77 1067.14C383.349 1066.25 381.758 1065.81 379.997 1065.81C378.235 1065.81 376.64 1066.25 375.21 1067.14C373.789 1068.03 372.658 1069.34 371.815 1071.08C370.982 1072.81 370.565 1074.94 370.565 1077.45C370.565 1079.97 370.982 1082.1 371.815 1083.83C372.658 1085.57 373.789 1086.88 375.21 1087.77C376.64 1088.66 378.235 1089.1 379.997 1089.1C381.758 1089.1 383.349 1088.66 384.77 1087.77C386.199 1086.88 387.331 1085.57 388.164 1083.83C389.007 1082.1 389.429 1079.97 389.429 1077.45ZM412.056 1083.08V1070.18H415.409V1092H412.056V1088.31H411.829C411.318 1089.41 410.522 1090.36 409.443 1091.13C408.363 1091.9 407 1092.28 405.352 1092.28C403.988 1092.28 402.776 1091.99 401.716 1091.39C400.655 1090.78 399.822 1089.87 399.216 1088.66C398.609 1087.44 398.306 1085.9 398.306 1084.05V1070.18H401.659V1083.82C401.659 1085.41 402.104 1086.68 402.994 1087.62C403.894 1088.57 405.039 1089.05 406.431 1089.05C407.265 1089.05 408.112 1088.83 408.974 1088.41C409.845 1087.98 410.574 1087.33 411.162 1086.45C411.758 1085.57 412.056 1084.44 412.056 1083.08ZM430.696 1092.45C428.594 1092.45 426.781 1091.99 425.256 1091.06C423.741 1090.12 422.571 1088.82 421.748 1087.14C420.933 1085.46 420.526 1083.5 420.526 1081.26C420.526 1079.03 420.933 1077.06 421.748 1075.35C422.571 1073.64 423.717 1072.3 425.185 1071.35C426.662 1070.38 428.386 1069.9 430.355 1069.9C431.492 1069.9 432.614 1070.09 433.722 1070.47C434.83 1070.84 435.838 1071.46 436.748 1072.31C437.657 1073.16 438.381 1074.27 438.921 1075.66C439.461 1077.06 439.73 1078.77 439.73 1080.81V1082.23H422.912V1079.33H436.321C436.321 1078.1 436.075 1077 435.583 1076.03C435.1 1075.07 434.408 1074.31 433.509 1073.75C432.619 1073.19 431.568 1072.91 430.355 1072.91C429.02 1072.91 427.865 1073.24 426.89 1073.9C425.924 1074.56 425.18 1075.41 424.659 1076.46C424.139 1077.51 423.878 1078.64 423.878 1079.84V1081.77C423.878 1083.42 424.162 1084.82 424.73 1085.96C425.308 1087.1 426.108 1087.97 427.131 1088.56C428.154 1089.15 429.342 1089.44 430.696 1089.44C431.577 1089.44 432.373 1089.32 433.083 1089.07C433.802 1088.82 434.423 1088.44 434.944 1087.94C435.464 1087.43 435.867 1086.79 436.151 1086.03L439.39 1086.94C439.049 1088.04 438.476 1089.01 437.671 1089.84C436.866 1090.66 435.872 1091.31 434.688 1091.77C433.504 1092.23 432.174 1092.45 430.696 1092.45ZM458.58 1083.08V1070.18H461.932V1092H458.58V1088.31H458.353C457.841 1089.41 457.046 1090.36 455.966 1091.13C454.887 1091.9 453.523 1092.28 451.875 1092.28C450.512 1092.28 449.3 1091.99 448.239 1091.39C447.178 1090.78 446.345 1089.87 445.739 1088.66C445.133 1087.44 444.83 1085.9 444.83 1084.05V1070.18H448.182V1083.82C448.182 1085.41 448.627 1086.68 449.517 1087.62C450.417 1088.57 451.563 1089.05 452.955 1089.05C453.788 1089.05 454.636 1088.83 455.498 1088.41C456.369 1087.98 457.098 1087.33 457.685 1086.45C458.282 1085.57 458.58 1084.44 458.58 1083.08ZM477.22 1092.45C475.118 1092.45 473.304 1091.99 471.779 1091.06C470.264 1090.12 469.095 1088.82 468.271 1087.14C467.457 1085.46 467.049 1083.5 467.049 1081.26C467.049 1079.03 467.457 1077.06 468.271 1075.35C469.095 1073.64 470.241 1072.3 471.708 1071.35C473.186 1070.38 474.909 1069.9 476.879 1069.9C478.015 1069.9 479.137 1070.09 480.245 1070.47C481.353 1070.84 482.362 1071.46 483.271 1072.31C484.18 1073.16 484.904 1074.27 485.444 1075.66C485.984 1077.06 486.254 1078.77 486.254 1080.81V1082.23H469.436V1079.33H482.845C482.845 1078.1 482.599 1077 482.106 1076.03C481.623 1075.07 480.932 1074.31 480.032 1073.75C479.142 1073.19 478.091 1072.91 476.879 1072.91C475.544 1072.91 474.388 1073.24 473.413 1073.9C472.447 1074.56 471.704 1075.41 471.183 1076.46C470.662 1077.51 470.402 1078.64 470.402 1079.84V1081.77C470.402 1083.42 470.686 1084.82 471.254 1085.96C471.832 1087.1 472.632 1087.97 473.654 1088.56C474.677 1089.15 475.866 1089.44 477.22 1089.44C478.1 1089.44 478.896 1089.32 479.606 1089.07C480.326 1088.82 480.946 1088.44 481.467 1087.94C481.988 1087.43 482.39 1086.79 482.674 1086.03L485.913 1086.94C485.572 1088.04 484.999 1089.01 484.194 1089.84C483.389 1090.66 482.395 1091.31 481.211 1091.77C480.028 1092.23 478.697 1092.45 477.22 1092.45Z" fill="white"/>
<path d="M622.375 895.25L638.625 911.5L622.375 927.75" stroke="#DBDBDB" stroke-width="4" stroke-linecap="round" stroke-linejoin="round"/>
<path d="M622.375 1428.25L638.625 1444.5L622.375 1460.75" stroke="#DBDBDB" stroke-width="4" stroke-linecap="round" stroke-linejoin="round"/>
<path d="M622.375 362.25L638.625 378.5L622.375 394.75" stroke="#DBDBDB" stroke-width="4" stroke-linecap="round" stroke-linejoin="round"/>
<line x1="44" y1="911.5" x2="636" y2="911.5" stroke="#DBDBDB" stroke-width="5"/>
<line x1="44" y1="1444.5" x2="636" y2="1444.5" stroke="#DBDBDB" stroke-width="5"/>
<line x1="44" y1="378.5" x2="636" y2="378.5" stroke="#DBDBDB" stroke-width="5"/>
</svg>
