<svg xmlns="http://www.w3.org/2000/svg" width="558" height="1797" fill="none" viewBox="0 0 558 1797"><rect width="136" height="136" x="367" y="122" stroke="#dbdbdb" stroke-dasharray="20 20" stroke-width="2" rx="27"/><rect width="136" height="136" x="367" y="599" stroke="#dbdbdb" stroke-width="2" rx="27"/><rect width="136" height="136" x="367" y="1076" stroke="#dbdbdb" stroke-width="2" rx="27"/><rect width="136" height="136" x="367" y="1553" stroke="#dbdbdb" stroke-width="2" rx="27"/><rect width="136" height="136" x="211" y="122" stroke="#dbdbdb" stroke-dasharray="20 20" stroke-width="2" rx="27"/><rect width="136" height="136" x="211" y="599" stroke="#dbdbdb" stroke-dasharray="20 20" stroke-width="2" rx="27"/><rect width="136" height="136" x="211" y="1076" stroke="#dbdbdb" stroke-width="2" rx="27"/><rect width="136" height="136" x="211" y="1553" stroke="#dbdbdb" stroke-width="2" rx="27"/><rect width="136" height="136" x="55" y="122" stroke="#dbdbdb" stroke-dasharray="20 20" stroke-width="2" rx="27"/><rect width="136" height="136" x="55" y="599" stroke="#dbdbdb" stroke-dasharray="20 20" stroke-width="2" rx="27"/><rect width="136" height="136" x="55" y="1076" stroke="#dbdbdb" stroke-dasharray="20 20" stroke-width="2" rx="27"/><rect width="136" height="136" x="55" y="1553" stroke="#dbdbdb" stroke-width="2" rx="27"/><rect width="556" height="197" x="1" y="92" stroke="#dbdbdb" stroke-width="2" rx="27"/><rect width="556" height="197" x="1" y="569" stroke="#dbdbdb" stroke-width="2" rx="27"/><rect width="556" height="197" x="1" y="1046" stroke="#dbdbdb" stroke-width="2" rx="27"/><rect width="556" height="197" x="1" y="1523" stroke="#dbdbdb" stroke-width="2" rx="27"/><path fill="#fff" d="M444.869 191.966v3.125h-12.727v-3.125zM419.531 683v-29.091h9.829q3.423 0 5.597 1.236 2.188 1.22 3.238 3.31 1.051 2.088 1.051 4.659t-1.051 4.673q-1.036 2.102-3.21 3.352-2.174 1.236-5.568 1.236h-7.046v-3.125h6.932q2.345 0 3.764-.81 1.42-.81 2.06-2.187.654-1.393.654-3.139 0-1.748-.654-3.125-.639-1.379-2.074-2.159-1.434-.796-3.807-.796h-6.193V683zm35.106-29.091V683h-3.523v-25.398h-.17l-7.102 4.716v-3.579l7.272-4.83zM419.531 1160v-29.09h9.829q3.423 0 5.597 1.23c1.458.82 2.538 1.92 3.238 3.31.701 1.4 1.051 2.95 1.051 4.66q0 2.58-1.051 4.68c-.691 1.4-1.761 2.52-3.21 3.35-1.449.82-3.305 1.24-5.568 1.24h-7.046v-3.13h6.932q2.345 0 3.764-.81 1.42-.81 2.06-2.19c.436-.93.654-1.97.654-3.14q0-1.74-.654-3.12-.639-1.38-2.074-2.16c-.956-.53-2.225-.8-3.807-.8h-6.193V1160zm35.106-29.09V1160h-3.523v-25.4h-.17l-7.102 4.72v-3.58l7.272-4.83zM416.593 1637v-29.09h9.83q3.423 0 5.596 1.23c1.459.82 2.538 1.92 3.239 3.31.701 1.4 1.051 2.95 1.051 4.66q0 2.58-1.051 4.68c-.691 1.4-1.762 2.52-3.21 3.35-1.449.82-3.305 1.24-5.569 1.24h-7.045v-3.13h6.932q2.343 0 3.764-.81t2.06-2.19c.435-.93.653-1.97.653-3.14q0-1.74-.653-3.12-.64-1.38-2.074-2.16c-.957-.53-2.226-.8-3.807-.8h-6.193V1637zm34.709.4c-1.875 0-3.547-.32-5.014-.97-1.459-.64-2.619-1.54-3.48-2.68q-1.28-1.74-1.393-4.02h3.58q.114 1.395.966 2.43.852 1.005 2.23 1.56c.919.37 1.937.55 3.054.55 1.25 0 2.358-.22 3.324-.65.966-.44 1.723-1.04 2.273-1.82q.823-1.17.823-2.7 0-1.605-.795-2.82c-.53-.83-1.307-1.47-2.33-1.94q-1.533-.69-3.75-.69h-2.329v-3.13h2.329c1.156 0 2.169-.21 3.04-.62.881-.42 1.567-1.01 2.06-1.76q.753-1.14.753-2.67 0-1.485-.654-2.58a4.54 4.54 0 0 0-1.846-1.7c-.786-.41-1.714-.61-2.784-.61-1.004 0-1.951.18-2.841.55-.881.36-1.601.89-2.159 1.58-.559.68-.862 1.51-.909 2.47h-3.41c.057-1.52.517-2.86 1.378-4q1.293-1.74 3.381-2.7c1.402-.65 2.94-.97 4.616-.97 1.8 0 3.343.37 4.631 1.1 1.288.71 2.278 1.67 2.969 2.85a7.47 7.47 0 0 1 1.037 3.84c0 1.63-.431 3.03-1.293 4.19q-1.278 1.725-3.48 2.4v.22c1.837.31 3.272 1.09 4.304 2.35 1.032 1.25 1.548 2.8 1.548 4.64q0 2.37-1.292 4.26c-.852 1.25-2.017 2.24-3.495 2.96q-2.216 1.08-5.042 1.08M285.869 191.966v3.125h-12.727v-3.125zM285.869 668.966v3.125h-12.727v-3.125zM257.718 1160v-29.09h9.83q3.423 0 5.596 1.23c1.459.82 2.538 1.92 3.239 3.31.701 1.4 1.051 2.95 1.051 4.66q0 2.58-1.051 4.68c-.691 1.4-1.762 2.52-3.21 3.35-1.449.82-3.305 1.24-5.569 1.24h-7.045v-3.13h6.932q2.343 0 3.764-.81t2.06-2.19c.435-.93.653-1.97.653-3.14q0-1.74-.653-3.12-.64-1.38-2.074-2.16c-.957-.53-2.226-.8-3.807-.8h-6.193V1160zm24.879 0v-2.56l9.603-10.51a67 67 0 0 0 2.784-3.21q1.094-1.38 1.619-2.58c.36-.82.54-1.67.54-2.56 0-1.02-.246-1.91-.739-2.66a4.86 4.86 0 0 0-1.989-1.73c-.842-.41-1.789-.61-2.84-.61-1.118 0-2.093.23-2.927.7a4.77 4.77 0 0 0-1.917 1.91c-.445.83-.668 1.79-.668 2.9h-3.352c0-1.7.393-3.2 1.179-4.49a8.2 8.2 0 0 1 3.21-3.01q2.046-1.08 4.588-1.08 2.557 0 4.531 1.08 1.975 1.08 3.097 2.91t1.122 4.08c0 1.07-.194 2.12-.582 3.14q-.568 1.515-1.989 3.39c-.937 1.24-2.239 2.76-3.906 4.55l-6.534 6.99v.23h13.523v3.12zM260.531 1637v-29.09h9.829q3.423 0 5.597 1.23c1.458.82 2.538 1.92 3.238 3.31.701 1.4 1.051 2.95 1.051 4.66q0 2.58-1.051 4.68c-.691 1.4-1.761 2.52-3.21 3.35-1.449.82-3.305 1.24-5.568 1.24h-7.046v-3.13h6.932q2.345 0 3.764-.81 1.42-.81 2.06-2.19c.436-.93.654-1.97.654-3.14q0-1.74-.654-3.12-.639-1.38-2.074-2.16c-.956-.53-2.225-.8-3.807-.8h-6.193V1637zm35.106-29.09V1637h-3.523v-25.4h-.17l-7.102 4.72v-3.58l7.272-4.83zM126.869 191.966v3.125h-12.727v-3.125zM126.869 668.966v3.125h-12.727v-3.125zM126.869 1145.97v3.12h-12.727v-3.12zM98.718 1637v-29.09h9.83q3.423 0 5.596 1.23c1.459.82 2.538 1.92 3.239 3.31.701 1.4 1.051 2.95 1.051 4.66q0 2.58-1.051 4.68c-.691 1.4-1.762 2.52-3.21 3.35-1.449.82-3.305 1.24-5.569 1.24h-7.045v-3.13h6.932q2.343 0 3.764-.81t2.06-2.19c.435-.93.653-1.97.653-3.14q0-1.74-.653-3.12-.64-1.38-2.074-2.16c-.957-.53-2.226-.8-3.807-.8h-6.193V1637zm24.879 0v-2.56l9.603-10.51a67 67 0 0 0 2.784-3.21q1.094-1.38 1.619-2.58c.36-.82.54-1.67.54-2.56 0-1.02-.246-1.91-.739-2.66a4.86 4.86 0 0 0-1.989-1.73c-.842-.41-1.789-.61-2.84-.61-1.118 0-2.093.23-2.927.7a4.77 4.77 0 0 0-1.917 1.91c-.445.83-.668 1.79-.668 2.9h-3.352c0-1.7.393-3.2 1.179-4.49a8.2 8.2 0 0 1 3.21-3.01q2.046-1.08 4.588-1.08 2.557 0 4.531 1.08 1.975 1.08 3.097 2.91t1.122 4.08c0 1.07-.194 2.12-.582 3.14q-.568 1.515-1.989 3.39c-.937 1.24-2.239 2.76-3.906 4.55l-6.534 6.99v.23h13.523v3.12zM147.238 39V9.91h9.829q3.423 0 5.597 1.235 2.188 1.221 3.238 3.31 1.051 2.088 1.051 4.659t-1.051 4.673q-1.036 2.102-3.21 3.352-2.173 1.236-5.568 1.236h-7.046V25.25h6.932q2.345 0 3.765-.81t2.059-2.187q.654-1.392.654-3.14 0-1.747-.654-3.124-.639-1.379-2.074-2.16-1.434-.795-3.807-.795h-6.193V39zm24.936 0V17.182h3.238v3.295h.228q.596-1.62 2.159-2.628t3.522-1.008q.37 0 .924.014.553.015.838.043v3.409a10 10 0 0 0-.782-.128 7.7 7.7 0 0 0-1.264-.1q-1.59 0-2.841.668a5.04 5.04 0 0 0-1.96 1.818q-.71 1.15-.71 2.628V39zm14.882 0V17.182h3.353V39zm1.705-25.454a2.38 2.38 0 0 1-1.69-.668q-.696-.668-.696-1.605t.696-1.605a2.38 2.38 0 0 1 1.69-.668q.98 0 1.676.668.71.668.71 1.605 0 .938-.71 1.605a2.34 2.34 0 0 1-1.676.668m16.651 25.909q-2.954 0-5.184-1.407-2.217-1.406-3.466-3.934-1.236-2.529-1.236-5.91 0-3.408 1.236-5.951 1.25-2.543 3.466-3.949 2.23-1.406 5.184-1.406t5.171 1.406q2.23 1.407 3.466 3.949 1.25 2.543 1.25 5.951 0 3.381-1.25 5.91-1.236 2.528-3.466 3.934-2.217 1.407-5.171 1.407m0-3.012q2.245 0 3.693-1.15 1.449-1.15 2.145-3.026t.696-4.063-.696-4.076-2.145-3.054q-1.448-1.165-3.693-1.165t-3.693 1.165-2.145 3.054-.696 4.076.696 4.063 2.145 3.026 3.693 1.15M220.416 39V17.182h3.238v3.295h.228q.596-1.62 2.159-2.628t3.523-1.008q.37 0 .923.014.554.015.838.043v3.409a10 10 0 0 0-.781-.128 7.7 7.7 0 0 0-1.265-.1q-1.59 0-2.84.668a5.04 5.04 0 0 0-1.961 1.818q-.71 1.15-.71 2.628V39zm14.883 0V17.182h3.352V39zm1.704-25.454a2.38 2.38 0 0 1-1.69-.668q-.696-.668-.696-1.605t.696-1.605a2.38 2.38 0 0 1 1.69-.668q.98 0 1.676.668.711.668.711 1.605 0 .938-.711 1.605a2.33 2.33 0 0 1-1.676.668m17.276 3.636v2.84h-11.306v-2.84zm-8.011-5.227h3.352V32.75q0 1.42.412 2.13.426.697 1.08.938.668.227 1.406.227.553 0 .909-.056l.568-.114.682 3.011q-.34.128-.952.256-.61.142-1.548.142a6.75 6.75 0 0 1-2.784-.61 5.5 5.5 0 0 1-2.244-1.861q-.88-1.25-.881-3.154zm15.213 35.227a7.4 7.4 0 0 1-1.52-.142q-.668-.127-.923-.256l.852-2.954q1.222.312 2.159.227.938-.085 1.662-.838.74-.74 1.35-2.4l.625-1.705-8.068-21.932h3.636l6.023 17.386h.227l6.023-17.386h3.636l-9.261 25q-.625 1.69-1.549 2.798-.923 1.122-2.145 1.662-1.207.54-2.727.54m42.379-17.273h3.864l3.239 4.261.852 1.137 4.83 6.42h-3.864l-3.182-4.261-.795-1.08zm13.978-5.454q0 4.603-1.662 7.954t-4.56 5.17q-2.898 1.82-6.619 1.819-3.722 0-6.62-1.819-2.897-1.818-4.559-5.17t-1.662-7.954 1.662-7.955 4.559-5.17q2.898-1.82 6.62-1.819 3.721 0 6.619 1.819t4.56 5.17 1.662 7.954m-3.409 0q0-3.78-1.265-6.378-1.25-2.6-3.394-3.935-2.131-1.335-4.773-1.335t-4.787 1.335q-2.131 1.335-3.395 3.935-1.25 2.6-1.25 6.377 0 3.78 1.25 6.378 1.264 2.6 3.395 3.935 2.145 1.335 4.787 1.335t4.773-1.335q2.144-1.335 3.394-3.935 1.265-2.599 1.265-6.378m22.627 5.625V17.182h3.353V39h-3.353v-3.693h-.227q-.767 1.662-2.386 2.826-1.62 1.151-4.091 1.151-2.046 0-3.636-.895-1.591-.909-2.5-2.727-.91-1.832-.91-4.616V17.182h3.353v13.636q0 2.387 1.335 3.807 1.35 1.42 3.437 1.42 1.25 0 2.543-.639 1.306-.64 2.188-1.96.894-1.32.894-3.366m18.64 9.375q-3.153 0-5.44-1.392-2.273-1.407-3.508-3.921-1.222-2.529-1.222-5.88 0-3.353 1.222-5.91 1.235-2.571 3.437-4.005 2.216-1.45 5.17-1.45 1.705 0 3.367.569 1.661.568 3.026 1.846 1.363 1.264 2.173 3.353.81 2.088.809 5.142v1.42h-16.818V26.33h13.409q0-1.846-.738-3.295a5.57 5.57 0 0 0-2.074-2.287q-1.335-.838-3.154-.838-2.002 0-3.465.994a6.54 6.54 0 0 0-2.231 2.557 7.5 7.5 0 0 0-.781 3.38v1.933q0 2.472.852 4.19.867 1.704 2.401 2.6 1.534.88 3.565.88 1.322 0 2.387-.37a5.1 5.1 0 0 0 1.861-1.136q.78-.766 1.207-1.903l3.239.91a7.2 7.2 0 0 1-1.719 2.897q-1.207 1.236-2.983 1.932-1.775.681-3.992.681m27.884-9.375V17.182h3.352V39h-3.352v-3.693h-.227q-.767 1.662-2.387 2.826-1.619 1.151-4.091 1.151-2.044 0-3.636-.895-1.591-.909-2.5-2.727-.909-1.832-.909-4.616V17.182h3.352v13.636q0 2.387 1.335 3.807 1.35 1.42 3.438 1.42 1.25 0 2.543-.639 1.307-.64 2.187-1.96.895-1.32.895-3.366m18.64 9.375q-3.153 0-5.441-1.392-2.272-1.407-3.508-3.921-1.221-2.529-1.222-5.88 0-3.353 1.222-5.91 1.236-2.571 3.437-4.005 2.216-1.45 5.171-1.45 1.704 0 3.366.569 1.662.568 3.026 1.846 1.363 1.264 2.173 3.353.81 2.088.81 5.142v1.42h-16.818V26.33h13.409q0-1.846-.739-3.295a5.56 5.56 0 0 0-2.074-2.287q-1.335-.838-3.153-.838-2.003 0-3.466.994a6.54 6.54 0 0 0-2.23 2.557 7.5 7.5 0 0 0-.781 3.38v1.933q0 2.472.852 4.19.867 1.704 2.4 2.6 1.535.88 3.566.88 1.32 0 2.386-.37a5.1 5.1 0 0 0 1.861-1.136q.781-.766 1.207-1.903l3.239.91a7.2 7.2 0 0 1-1.719 2.897q-1.207 1.236-2.983 1.932-1.775.681-3.991.681M147.238 466v-29.091h9.829q3.423 0 5.597 1.236 2.188 1.22 3.238 3.31 1.051 2.088 1.051 4.659t-1.051 4.673q-1.036 2.102-3.21 3.352-2.173 1.236-5.568 1.236h-7.046v-3.125h6.932q2.345 0 3.765-.81t2.059-2.187q.654-1.393.654-3.139 0-1.748-.654-3.125-.639-1.379-2.074-2.159-1.434-.796-3.807-.796h-6.193V466zm24.936 0v-21.818h3.238v3.295h.228q.596-1.618 2.159-2.628 1.562-1.008 3.522-1.008.37 0 .924.014.553.015.838.043v3.409a10 10 0 0 0-.782-.128 8 8 0 0 0-1.264-.099q-1.59 0-2.841.667a5.05 5.05 0 0 0-1.96 1.818q-.71 1.15-.71 2.628V466zm14.882 0v-21.818h3.353V466zm1.705-25.455a2.38 2.38 0 0 1-1.69-.667q-.696-.667-.696-1.605t.696-1.605a2.38 2.38 0 0 1 1.69-.668q.98 0 1.676.668.71.667.71 1.605t-.71 1.605a2.34 2.34 0 0 1-1.676.667m16.651 25.91q-2.954 0-5.184-1.407-2.217-1.406-3.466-3.934-1.236-2.53-1.236-5.909 0-3.41 1.236-5.952 1.25-2.543 3.466-3.949 2.23-1.406 5.184-1.406t5.171 1.406q2.23 1.406 3.466 3.949 1.25 2.543 1.25 5.952 0 3.38-1.25 5.909-1.236 2.528-3.466 3.934-2.217 1.407-5.171 1.407m0-3.012q2.245 0 3.693-1.15 1.449-1.15 2.145-3.026t.696-4.062q0-2.188-.696-4.077-.696-1.89-2.145-3.054-1.448-1.165-3.693-1.165t-3.693 1.165q-1.449 1.164-2.145 3.054t-.696 4.077.696 4.062 2.145 3.026q1.449 1.15 3.693 1.15M220.416 466v-21.818h3.238v3.295h.228q.596-1.618 2.159-2.628 1.563-1.008 3.523-1.008.37 0 .923.014.554.015.838.043v3.409a10 10 0 0 0-.781-.128 8 8 0 0 0-1.265-.099q-1.59 0-2.84.667a5.04 5.04 0 0 0-1.961 1.818q-.71 1.15-.71 2.628V466zm14.883 0v-21.818h3.352V466zm1.704-25.455a2.38 2.38 0 0 1-1.69-.667q-.696-.667-.696-1.605t.696-1.605a2.38 2.38 0 0 1 1.69-.668q.98 0 1.676.668.711.667.711 1.605t-.711 1.605a2.33 2.33 0 0 1-1.676.667m17.276 3.637v2.841h-11.306v-2.841zm-8.011-5.227h3.352v20.795q0 1.42.412 2.131.426.696 1.08.937a4.3 4.3 0 0 0 1.406.227q.553 0 .909-.056l.568-.114.682 3.011a7 7 0 0 1-.952.256q-.61.142-1.548.142a6.75 6.75 0 0 1-2.784-.611 5.5 5.5 0 0 1-2.244-1.861q-.88-1.25-.881-3.153zm15.213 35.227a7.4 7.4 0 0 1-1.52-.142q-.668-.128-.923-.256l.852-2.954q1.222.312 2.159.227.938-.085 1.662-.838.74-.74 1.35-2.401l.625-1.704-8.068-21.932h3.636l6.023 17.386h.227l6.023-17.386h3.636l-9.261 25q-.625 1.69-1.549 2.798-.923 1.122-2.145 1.662-1.207.54-2.727.54m42.379-17.273h3.864l3.239 4.261.852 1.137 4.83 6.42h-3.864l-3.182-4.261-.795-1.08zm13.978-5.454q0 4.602-1.662 7.954t-4.56 5.171-6.619 1.818-6.62-1.818q-2.897-1.819-4.559-5.171t-1.662-7.954 1.662-7.955 4.559-5.17q2.898-1.82 6.62-1.819 3.721 0 6.619 1.819t4.56 5.17 1.662 7.955m-3.409 0q0-3.778-1.265-6.378-1.25-2.6-3.394-3.935-2.131-1.335-4.773-1.335t-4.787 1.335q-2.131 1.335-3.395 3.935-1.25 2.6-1.25 6.378t1.25 6.377q1.264 2.6 3.395 3.935 2.145 1.335 4.787 1.335t4.773-1.335q2.144-1.335 3.394-3.935 1.265-2.6 1.265-6.377m22.627 5.625v-12.898h3.353V466h-3.353v-3.693h-.227q-.767 1.662-2.386 2.827-1.62 1.15-4.091 1.15-2.046 0-3.636-.895-1.591-.909-2.5-2.727-.91-1.832-.91-4.617v-13.863h3.353v13.636q0 2.387 1.335 3.807 1.35 1.42 3.437 1.42 1.25 0 2.543-.639 1.306-.639 2.188-1.96.894-1.321.894-3.366m18.64 9.375q-3.153 0-5.44-1.393-2.273-1.406-3.508-3.92-1.222-2.529-1.222-5.881 0-3.351 1.222-5.909 1.235-2.571 3.437-4.005 2.216-1.449 5.17-1.449 1.705 0 3.367.568t3.026 1.846q1.363 1.265 2.173 3.353t.809 5.142v1.42h-16.818v-2.897h13.409q0-1.848-.738-3.296a5.57 5.57 0 0 0-2.074-2.287q-1.335-.838-3.154-.838-2.002 0-3.465.994a6.55 6.55 0 0 0-2.231 2.557 7.5 7.5 0 0 0-.781 3.381v1.932q0 2.47.852 4.19.867 1.704 2.401 2.599 1.534.881 3.565.881 1.322 0 2.387-.369a5.1 5.1 0 0 0 1.861-1.136q.78-.767 1.207-1.904l3.239.909a7.2 7.2 0 0 1-1.719 2.898q-1.207 1.236-2.983 1.932-1.775.682-3.992.682m27.884-9.375v-12.898h3.352V466h-3.352v-3.693h-.227q-.767 1.662-2.387 2.827-1.619 1.15-4.091 1.15-2.044 0-3.636-.895-1.591-.909-2.5-2.727-.909-1.832-.909-4.617v-13.863h3.352v13.636q0 2.387 1.335 3.807 1.35 1.42 3.438 1.42 1.25 0 2.543-.639 1.307-.639 2.187-1.96.895-1.321.895-3.366m18.64 9.375q-3.153 0-5.441-1.393-2.272-1.406-3.508-3.92-1.221-2.529-1.222-5.881 0-3.351 1.222-5.909 1.236-2.571 3.437-4.005 2.216-1.449 5.171-1.449 1.704 0 3.366.568t3.026 1.846q1.363 1.265 2.173 3.353t.81 5.142v1.42h-16.818v-2.897h13.409q0-1.848-.739-3.296a5.57 5.57 0 0 0-2.074-2.287q-1.335-.838-3.153-.838-2.003 0-3.466.994a6.55 6.55 0 0 0-2.23 2.557 7.5 7.5 0 0 0-.781 3.381v1.932q0 2.47.852 4.19.867 1.704 2.4 2.599 1.535.881 3.566.881 1.32 0 2.386-.369a5.1 5.1 0 0 0 1.861-1.136q.781-.767 1.207-1.904l3.239.909a7.2 7.2 0 0 1-1.719 2.898q-1.207 1.236-2.983 1.932-1.775.682-3.991.682M147.238 943v-29.091h9.829q3.423 0 5.597 1.236 2.188 1.22 3.238 3.31 1.051 2.088 1.051 4.659t-1.051 4.673q-1.036 2.102-3.21 3.352-2.173 1.236-5.568 1.236h-7.046v-3.125h6.932q2.345 0 3.765-.81t2.059-2.187q.654-1.393.654-3.139 0-1.748-.654-3.125-.639-1.379-2.074-2.159-1.434-.796-3.807-.796h-6.193V943zm24.936 0v-21.818h3.238v3.295h.228q.596-1.618 2.159-2.628 1.562-1.008 3.522-1.008.37 0 .924.014.553.015.838.043v3.409a10 10 0 0 0-.782-.128 8 8 0 0 0-1.264-.099q-1.59 0-2.841.667a5.05 5.05 0 0 0-1.96 1.818q-.71 1.15-.71 2.628V943zm14.882 0v-21.818h3.353V943zm1.705-25.455a2.38 2.38 0 0 1-1.69-.667q-.696-.668-.696-1.605 0-.938.696-1.605a2.38 2.38 0 0 1 1.69-.668q.98 0 1.676.668.71.667.71 1.605t-.71 1.605a2.34 2.34 0 0 1-1.676.667m16.651 25.91q-2.954 0-5.184-1.407-2.217-1.406-3.466-3.934-1.236-2.53-1.236-5.909 0-3.41 1.236-5.952 1.25-2.543 3.466-3.949 2.23-1.407 5.184-1.406 2.954 0 5.171 1.406 2.23 1.406 3.466 3.949 1.25 2.543 1.25 5.952 0 3.38-1.25 5.909-1.236 2.528-3.466 3.934-2.217 1.407-5.171 1.407m0-3.012q2.245 0 3.693-1.15 1.449-1.15 2.145-3.026t.696-4.062q0-2.188-.696-4.077-.696-1.89-2.145-3.054-1.448-1.165-3.693-1.165t-3.693 1.165-2.145 3.054-.696 4.077.696 4.062 2.145 3.026q1.449 1.15 3.693 1.15M220.416 943v-21.818h3.238v3.295h.228q.596-1.618 2.159-2.628 1.563-1.008 3.523-1.008.37 0 .923.014.554.015.838.043v3.409a10 10 0 0 0-.781-.128 8 8 0 0 0-1.265-.099q-1.59 0-2.84.667a5.04 5.04 0 0 0-1.961 1.818q-.71 1.15-.71 2.628V943zm14.883 0v-21.818h3.352V943zm1.704-25.455a2.38 2.38 0 0 1-1.69-.667q-.696-.668-.696-1.605 0-.938.696-1.605a2.38 2.38 0 0 1 1.69-.668q.98 0 1.676.668.711.667.711 1.605t-.711 1.605a2.33 2.33 0 0 1-1.676.667m17.276 3.637v2.841h-11.306v-2.841zm-8.011-5.227h3.352v20.795q0 1.42.412 2.131.426.696 1.08.937a4.3 4.3 0 0 0 1.406.227q.553 0 .909-.056l.568-.114.682 3.011a7 7 0 0 1-.952.256q-.61.142-1.548.142a6.75 6.75 0 0 1-2.784-.611 5.5 5.5 0 0 1-2.244-1.861q-.88-1.25-.881-3.153zm15.213 35.227a7.4 7.4 0 0 1-1.52-.142q-.668-.128-.923-.256l.852-2.954q1.222.312 2.159.227.938-.085 1.662-.838.74-.74 1.35-2.401l.625-1.704-8.068-21.932h3.636l6.023 17.386h.227l6.023-17.386h3.636l-9.261 25q-.625 1.69-1.549 2.798-.923 1.122-2.145 1.662-1.207.54-2.727.54m42.379-17.273h3.864l3.239 4.261.852 1.137 4.83 6.42h-3.864l-3.182-4.261-.795-1.08zm13.978-5.454q0 4.602-1.662 7.954t-4.56 5.171q-2.898 1.818-6.619 1.818-3.722 0-6.62-1.818-2.897-1.819-4.559-5.171t-1.662-7.954q0-4.603 1.662-7.955t4.559-5.17q2.898-1.82 6.62-1.819 3.721 0 6.619 1.819t4.56 5.17q1.662 3.352 1.662 7.955m-3.409 0q0-3.779-1.265-6.378-1.25-2.6-3.394-3.935-2.131-1.335-4.773-1.335t-4.787 1.335q-2.131 1.335-3.395 3.935-1.25 2.6-1.25 6.378t1.25 6.377q1.264 2.6 3.395 3.935 2.145 1.335 4.787 1.335t4.773-1.335q2.144-1.335 3.394-3.935 1.265-2.6 1.265-6.377m22.627 5.625v-12.898h3.353V943h-3.353v-3.693h-.227q-.767 1.662-2.386 2.827-1.62 1.15-4.091 1.15-2.046 0-3.636-.895-1.591-.909-2.5-2.727-.91-1.832-.91-4.617v-13.863h3.353v13.636q0 2.387 1.335 3.807 1.35 1.42 3.437 1.42 1.25 0 2.543-.639 1.306-.639 2.188-1.96.894-1.322.894-3.366m18.64 9.375q-3.153 0-5.44-1.393-2.273-1.406-3.508-3.92-1.222-2.529-1.222-5.881 0-3.351 1.222-5.909 1.235-2.571 3.437-4.005 2.216-1.449 5.17-1.449 1.705 0 3.367.568t3.026 1.846q1.363 1.265 2.173 3.353t.809 5.142v1.42h-16.818v-2.897h13.409q0-1.847-.738-3.296a5.57 5.57 0 0 0-2.074-2.287q-1.335-.838-3.154-.838-2.002 0-3.465.994a6.55 6.55 0 0 0-2.231 2.557 7.5 7.5 0 0 0-.781 3.381v1.932q0 2.47.852 4.19.867 1.705 2.401 2.599 1.534.881 3.565.881 1.322 0 2.387-.369a5.1 5.1 0 0 0 1.861-1.136q.78-.767 1.207-1.904l3.239.909a7.2 7.2 0 0 1-1.719 2.898q-1.207 1.236-2.983 1.932-1.775.682-3.992.682m27.884-9.375v-12.898h3.352V943h-3.352v-3.693h-.227q-.767 1.662-2.387 2.827-1.619 1.15-4.091 1.15-2.044 0-3.636-.895-1.591-.909-2.5-2.727-.909-1.832-.909-4.617v-13.863h3.352v13.636q0 2.387 1.335 3.807 1.35 1.42 3.438 1.42 1.25 0 2.543-.639 1.307-.639 2.187-1.96.895-1.322.895-3.366m18.64 9.375q-3.153 0-5.441-1.393-2.272-1.406-3.508-3.92-1.221-2.529-1.222-5.881 0-3.351 1.222-5.909 1.236-2.571 3.437-4.005 2.216-1.449 5.171-1.449 1.704 0 3.366.568t3.026 1.846q1.363 1.265 2.173 3.353t.81 5.142v1.42h-16.818v-2.897h13.409q0-1.847-.739-3.296a5.57 5.57 0 0 0-2.074-2.287q-1.335-.838-3.153-.838-2.003 0-3.466.994a6.55 6.55 0 0 0-2.23 2.557 7.5 7.5 0 0 0-.781 3.381v1.932q0 2.47.852 4.19.867 1.705 2.4 2.599 1.535.881 3.566.881 1.32 0 2.386-.369a5.1 5.1 0 0 0 1.861-1.136q.781-.767 1.207-1.904l3.239.909a7.2 7.2 0 0 1-1.719 2.898q-1.207 1.236-2.983 1.932-1.775.682-3.991.682M147.238 1420v-29.09h9.829q3.423 0 5.597 1.23c1.458.82 2.538 1.92 3.238 3.31.701 1.4 1.051 2.95 1.051 4.66q0 2.58-1.051 4.68c-.691 1.4-1.761 2.52-3.21 3.35-1.449.82-3.305 1.24-5.568 1.24h-7.046v-3.13h6.932q2.345 0 3.765-.81t2.059-2.19c.436-.93.654-1.97.654-3.14q0-1.74-.654-3.12-.639-1.38-2.074-2.16c-.956-.53-2.225-.8-3.807-.8h-6.193V1420zm24.936 0v-21.82h3.238v3.3h.228c.397-1.08 1.117-1.96 2.159-2.63s2.216-1.01 3.522-1.01c.247 0 .554.01.924.02.369 0 .648.02.838.04v3.41c-.114-.03-.374-.07-.782-.13-.397-.07-.819-.1-1.264-.1-1.06 0-2.007.22-2.841.67a5 5 0 0 0-1.96 1.82c-.473.76-.71 1.64-.71 2.62V1420zm14.882 0v-21.82h3.353V1420zm1.705-25.45c-.653 0-1.217-.23-1.69-.67-.464-.45-.696-.98-.696-1.61 0-.62.232-1.16.696-1.6a2.36 2.36 0 0 1 1.69-.67c.653 0 1.212.22 1.676.67.474.44.71.98.71 1.6 0 .63-.236 1.16-.71 1.61-.464.44-1.023.67-1.676.67m16.651 25.9c-1.969 0-3.698-.46-5.184-1.4-1.478-.94-2.633-2.25-3.466-3.94q-1.236-2.52-1.236-5.91c0-2.27.412-4.25 1.236-5.95.833-1.69 1.988-3.01 3.466-3.95 1.486-.93 3.215-1.4 5.184-1.4s3.693.47 5.171 1.4c1.486.94 2.642 2.26 3.466 3.95.833 1.7 1.25 3.68 1.25 5.95q0 3.39-1.25 5.91c-.824 1.69-1.98 3-3.466 3.94-1.478.94-3.201 1.4-5.171 1.4m0-3.01c1.496 0 2.728-.38 3.693-1.15.966-.76 1.681-1.77 2.145-3.02s.696-2.61.696-4.07c0-1.45-.232-2.81-.696-4.07q-.696-1.89-2.145-3.06c-.965-.77-2.197-1.16-3.693-1.16s-2.727.39-3.693 1.16q-1.449 1.17-2.145 3.06c-.464 1.26-.696 2.62-.696 4.07 0 1.46.232 2.82.696 4.07s1.179 2.26 2.145 3.02c.966.77 2.197 1.15 3.693 1.15m15.004 2.56v-21.82h3.238v3.3h.228c.397-1.08 1.117-1.96 2.159-2.63s2.216-1.01 3.523-1.01c.246 0 .554.01.923.02.369 0 .649.02.838.04v3.41c-.114-.03-.374-.07-.781-.13-.398-.07-.819-.1-1.265-.1-1.06 0-2.007.22-2.84.67a5 5 0 0 0-1.961 1.82c-.473.76-.71 1.64-.71 2.62V1420zm14.883 0v-21.82h3.352V1420zm1.704-25.45c-.653 0-1.217-.23-1.69-.67-.464-.45-.696-.98-.696-1.61 0-.62.232-1.16.696-1.6a2.36 2.36 0 0 1 1.69-.67c.654 0 1.212.22 1.676.67.474.44.711.98.711 1.6 0 .63-.237 1.16-.711 1.61-.464.44-1.022.67-1.676.67m17.276 3.63v2.84h-11.306v-2.84zm-8.011-5.23h3.352v20.8q0 1.425.412 2.13c.284.46.644.78 1.08.94.445.15.914.23 1.406.23q.553 0 .909-.06c.237-.05.426-.09.568-.11l.682 3.01c-.227.08-.544.17-.952.25-.407.1-.923.14-1.548.14-.947 0-1.875-.2-2.784-.61q-1.35-.6-2.244-1.86-.88-1.245-.881-3.15zm15.213 35.23c-.568 0-1.075-.05-1.52-.14s-.753-.17-.923-.26l.852-2.95c.815.21 1.534.28 2.159.23q.938-.09 1.662-.84.74-.735 1.35-2.4l.625-1.71-8.068-21.93h3.636l6.023 17.39h.227l6.023-17.39h3.636l-9.261 25c-.417 1.13-.933 2.06-1.549 2.8-.615.75-1.33 1.3-2.145 1.66q-1.207.54-2.727.54m42.379-17.27h3.864l3.239 4.26.852 1.14 4.83 6.42h-3.864l-3.182-4.26-.795-1.08zm13.978-5.46c0 3.07-.554 5.72-1.662 7.96-1.108 2.23-2.628 3.96-4.56 5.17s-4.138 1.82-6.619 1.82-4.688-.61-6.62-1.82c-1.931-1.21-3.451-2.94-4.559-5.17-1.108-2.24-1.662-4.89-1.662-7.96 0-3.06.554-5.72 1.662-7.95s2.628-3.96 4.559-5.17 4.139-1.82 6.62-1.82 4.687.61 6.619 1.82 3.452 2.94 4.56 5.17 1.662 4.89 1.662 7.95m-3.409 0c0-2.51-.422-4.64-1.265-6.37-.833-1.74-1.965-3.05-3.394-3.94-1.421-.89-3.012-1.33-4.773-1.33-1.762 0-3.357.44-4.787 1.33-1.421.89-2.552 2.2-3.395 3.94-.833 1.73-1.25 3.86-1.25 6.37 0 2.52.417 4.65 1.25 6.38.843 1.74 1.974 3.05 3.395 3.94 1.43.89 3.025 1.33 4.787 1.33 1.761 0 3.352-.44 4.773-1.33 1.429-.89 2.561-2.2 3.394-3.94.843-1.73 1.265-3.86 1.265-6.38m22.627 5.63v-12.9h3.353V1420h-3.353v-3.69h-.227c-.511 1.1-1.307 2.05-2.386 2.82s-2.443 1.15-4.091 1.15c-1.364 0-2.576-.29-3.636-.89q-1.591-.915-2.5-2.73c-.607-1.22-.91-2.76-.91-4.61v-13.87h3.353v13.64c0 1.59.445 2.86 1.335 3.8.9.95 2.045 1.43 3.437 1.43.834 0 1.681-.22 2.543-.64.871-.43 1.6-1.08 2.188-1.96.596-.88.894-2.01.894-3.37m18.64 9.37c-2.102 0-3.915-.46-5.44-1.39-1.515-.94-2.685-2.24-3.508-3.92q-1.222-2.52-1.222-5.88 0-3.345 1.222-5.91c.823-1.71 1.969-3.05 3.437-4 1.477-.97 3.201-1.45 5.17-1.45q1.705 0 3.367.57c1.108.37 2.116.99 3.026 1.84s1.633 1.96 2.173 3.35c.54 1.4.809 3.11.809 5.15v1.42h-16.818v-2.9h13.409q0-1.845-.738-3.3a5.6 5.6 0 0 0-2.074-2.28q-1.335-.84-3.154-.84-2.002 0-3.465.99a6.6 6.6 0 0 0-2.231 2.56 7.5 7.5 0 0 0-.781 3.38v1.93c0 1.65.284 3.05.852 4.19.578 1.14 1.378 2.01 2.401 2.6s2.211.88 3.565.88c.881 0 1.677-.12 2.387-.37.719-.25 1.34-.63 1.861-1.13.52-.51.923-1.15 1.207-1.91l3.239.91a7.16 7.16 0 0 1-1.719 2.9c-.805.82-1.799 1.47-2.983 1.93s-2.514.68-3.992.68m27.884-9.37v-12.9h3.352V1420h-3.352v-3.69h-.227c-.512 1.1-1.307 2.05-2.387 2.82-1.079.77-2.443 1.15-4.091 1.15-1.363 0-2.575-.29-3.636-.89q-1.591-.915-2.5-2.73c-.606-1.22-.909-2.76-.909-4.61v-13.87h3.352v13.64c0 1.59.445 2.86 1.335 3.8.9.95 2.046 1.43 3.438 1.43.833 0 1.681-.22 2.543-.64.871-.43 1.6-1.08 2.187-1.96.597-.88.895-2.01.895-3.37m18.64 9.37c-2.102 0-3.916-.46-5.441-1.39-1.515-.94-2.684-2.24-3.508-3.92q-1.221-2.52-1.222-5.88 0-3.345 1.222-5.91c.824-1.71 1.97-3.05 3.437-4 1.478-.97 3.201-1.45 5.171-1.45q1.704 0 3.366.57c1.108.37 2.117.99 3.026 1.84s1.633 1.96 2.173 3.35c.54 1.4.81 3.11.81 5.15v1.42h-16.818v-2.9h13.409q0-1.845-.739-3.3a5.6 5.6 0 0 0-2.074-2.28q-1.335-.84-3.153-.84-2.003 0-3.466.99a6.6 6.6 0 0 0-2.23 2.56 7.5 7.5 0 0 0-.781 3.38v1.93c0 1.65.284 3.05.852 4.19.578 1.14 1.378 2.01 2.4 2.6s2.212.88 3.566.88c.88 0 1.676-.12 2.386-.37.72-.25 1.34-.63 1.861-1.13.521-.51.923-1.15 1.207-1.91l3.239.91a7.16 7.16 0 0 1-1.719 2.9c-.805.82-1.799 1.47-2.983 1.93-1.183.46-2.514.68-3.991.68"/><path stroke="#dbdbdb" stroke-linecap="round" stroke-linejoin="round" stroke-width="4" d="m473.375 317.25 16.25 16.25-16.25 16.25M473.375 794.25l16.25 16.25-16.25 16.25M473.375 1271.25l16.25 16.25-16.25 16.25M473.375 1748.25l16.25 16.25-16.25 16.25"/><path stroke="#dbdbdb" stroke-width="5" d="M76 333.5h411M76 810.5h411M76 1287.5h411M76 1764.5h411"/><path fill="#717171" d="M438.33 542.398q-2.927 0-5.171-1.037-2.23-1.051-3.48-2.884-1.25-1.846-1.236-4.204-.014-1.847.725-3.409a7.4 7.4 0 0 1 2.017-2.628 6.2 6.2 0 0 1 2.883-1.35v-.17q-2.088-.54-3.324-2.344-1.236-1.818-1.221-4.133-.015-2.217 1.122-3.963 1.136-1.748 3.125-2.756 2.002-1.009 4.56-1.009 2.528 0 4.517 1.009 1.988 1.008 3.125 2.756 1.15 1.746 1.164 3.963-.014 2.315-1.264 4.133-1.235 1.804-3.281 2.344v.17q1.577.285 2.841 1.35 1.264 1.05 2.017 2.628.752 1.562.767 3.409-.015 2.358-1.278 4.204-1.25 1.833-3.481 2.884-2.215 1.037-5.127 1.037m0-3.125q1.974 0 3.409-.639 1.434-.64 2.216-1.804.78-1.165.795-2.728-.014-1.647-.852-2.912-.838-1.263-2.287-1.988-1.435-.725-3.281-.725-1.861 0-3.324.725-1.45.725-2.287 1.988-.824 1.265-.81 2.912-.014 1.563.753 2.728.781 1.164 2.23 1.804 1.449.639 3.438.639m0-13.807q1.562 0 2.769-.625a4.75 4.75 0 0 0 1.918-1.747q.696-1.122.71-2.628-.013-1.478-.696-2.571a4.5 4.5 0 0 0-1.889-1.705q-1.207-.61-2.812-.61-1.633 0-2.856.61-1.221.597-1.889 1.705-.668 1.093-.653 2.571-.014 1.506.667 2.628a4.76 4.76 0 0 0 1.918 1.747q1.221.625 2.813.625M437.33 1019.4c-1.951 0-3.675-.35-5.171-1.04q-2.23-1.05-3.48-2.88c-.833-1.23-1.245-2.64-1.236-4.21-.009-1.23.232-2.36.725-3.41a7.4 7.4 0 0 1 2.017-2.62 6.2 6.2 0 0 1 2.883-1.35v-.17c-1.392-.36-2.5-1.15-3.324-2.35q-1.236-1.816-1.221-4.131-.015-2.217 1.122-3.963 1.136-1.748 3.125-2.756 2.002-1.009 4.56-1.009 2.528 0 4.517 1.009 1.988 1.008 3.125 2.756 1.15 1.746 1.164 3.963-.014 2.315-1.264 4.131c-.824 1.2-1.917 1.99-3.281 2.35v.17q1.577.285 2.841 1.35c.843.7 1.515 1.57 2.017 2.62s.757 2.18.767 3.41c-.01 1.57-.436 2.98-1.278 4.21q-1.25 1.83-3.481 2.88c-1.477.69-3.186 1.04-5.127 1.04m0-3.13c1.316 0 2.452-.21 3.409-.64q1.434-.63 2.216-1.8.78-1.17.795-2.73-.014-1.65-.852-2.91a5.8 5.8 0 0 0-2.287-1.99q-1.435-.72-3.281-.72-1.861 0-3.324.72c-.966.48-1.729 1.15-2.287 1.99q-.824 1.26-.81 2.91-.014 1.56.753 2.73.781 1.17 2.23 1.8c.966.43 2.112.64 3.438.64m0-13.8q1.562 0 2.769-.63c.815-.42 1.454-1 1.918-1.75q.696-1.117.71-2.624-.013-1.477-.696-2.571a4.5 4.5 0 0 0-1.889-1.705q-1.207-.61-2.812-.61-1.633 0-2.856.61-1.221.597-1.889 1.705-.668 1.094-.653 2.571-.014 1.507.667 2.624a4.77 4.77 0 0 0 1.918 1.75q1.221.63 2.813.63M279.273 989.511q1.79.015 3.579.682 1.79.668 3.267 2.216 1.478 1.535 2.372 4.19.895 2.656.895 6.661c0 2.59-.246 4.88-.738 6.89-.483 2-1.184 3.68-2.103 5.06q-1.364 2.055-3.323 3.12c-1.298.71-2.766 1.07-4.404 1.07-1.629 0-3.082-.32-4.361-.97a8.6 8.6 0 0 1-3.125-2.71q-1.208-1.755-1.548-4.05h3.466c.312 1.34.933 2.44 1.861 3.31q1.406 1.29 3.707 1.29 3.367 0 5.313-2.94 1.96-2.94 1.96-8.31h-.227c-.531.8-1.16 1.48-1.89 2.06a8.2 8.2 0 0 1-2.429 1.34c-.89.31-1.837.47-2.84.47a8.9 8.9 0 0 1-4.589-1.24q-2.073-1.245-3.323-3.42-1.236-2.192-1.236-5.003 0-2.67 1.193-4.886a9.2 9.2 0 0 1 3.381-3.551q2.187-1.321 5.142-1.279m0 3.125q-1.79 0-3.225.895a6.43 6.43 0 0 0-2.258 2.387q-.824 1.491-.824 3.309c0 1.213.265 2.313.795 3.313.54.98 1.274 1.77 2.202 2.35q1.407.87 3.196.87c.9 0 1.738-.17 2.514-.52a6.5 6.5 0 0 0 2.032-1.47 7.1 7.1 0 0 0 1.377-2.11q.498-1.2.498-2.49a6.5 6.5 0 0 0-.824-3.196 6.54 6.54 0 0 0-2.245-2.414q-1.42-.924-3.238-.924M438.841 1496.4c-1.875 0-3.546-.32-5.014-.97-1.459-.64-2.619-1.54-3.48-2.68q-1.28-1.74-1.392-4.02h3.579q.114 1.395.966 2.43.853 1.005 2.23 1.56c.919.37 1.937.55 3.054.55 1.25 0 2.358-.22 3.324-.65.966-.44 1.723-1.04 2.273-1.82q.824-1.17.824-2.7 0-1.605-.796-2.82c-.53-.83-1.307-1.47-2.329-1.94q-1.535-.69-3.75-.69H436v-3.13h2.33c1.155 0 2.168-.21 3.039-.62.881-.42 1.568-1.01 2.06-1.76q.753-1.14.753-2.67 0-1.485-.654-2.58a4.54 4.54 0 0 0-1.846-1.7c-.786-.41-1.714-.61-2.784-.61-1.004 0-1.951.18-2.841.55-.881.36-1.601.89-2.159 1.58-.559.68-.862 1.51-.909 2.47h-3.409c.056-1.52.516-2.86 1.377-4q1.293-1.74 3.381-2.7c1.402-.65 2.94-.97 4.617-.97 1.799 0 3.342.37 4.63 1.1 1.288.71 2.278 1.67 2.969 2.85a7.47 7.47 0 0 1 1.037 3.84c0 1.63-.431 3.03-1.293 4.19q-1.278 1.725-3.48 2.4v.22c1.837.31 3.272 1.09 4.304 2.35 1.032 1.25 1.548 2.8 1.548 4.64q0 2.37-1.292 4.26c-.852 1.25-2.017 2.24-3.494 2.96q-2.217 1.08-5.043 1.08M280.33 1500.4c-1.951 0-3.675-.35-5.171-1.04q-2.23-1.05-3.48-2.88c-.833-1.23-1.245-2.64-1.236-4.21-.009-1.23.232-2.36.725-3.41a7.4 7.4 0 0 1 2.017-2.62 6.2 6.2 0 0 1 2.883-1.35v-.17c-1.392-.36-2.5-1.15-3.324-2.35-.824-1.21-1.231-2.59-1.221-4.13q-.015-2.22 1.122-3.96 1.136-1.755 3.125-2.76c1.335-.67 2.855-1.01 4.56-1.01 1.685 0 3.191.34 4.517 1.01q1.988 1.005 3.125 2.76 1.15 1.74 1.164 3.96c-.009 1.54-.431 2.92-1.264 4.13-.824 1.2-1.917 1.99-3.281 2.35v.17q1.577.285 2.841 1.35c.843.7 1.515 1.57 2.017 2.62s.757 2.18.767 3.41c-.01 1.57-.436 2.98-1.278 4.21q-1.25 1.83-3.481 2.88c-1.477.69-3.186 1.04-5.127 1.04m0-3.13c1.316 0 2.452-.21 3.409-.64q1.434-.63 2.216-1.8.78-1.17.795-2.73-.014-1.65-.852-2.91a5.8 5.8 0 0 0-2.287-1.99q-1.435-.72-3.281-.72-1.861 0-3.324.72c-.966.48-1.729 1.15-2.287 1.99q-.824 1.26-.81 2.91-.014 1.56.753 2.73.781 1.17 2.23 1.8c.966.43 2.112.64 3.438.64m0-13.8q1.562 0 2.769-.63c.815-.42 1.454-1 1.918-1.75.464-.74.701-1.62.71-2.62q-.014-1.485-.696-2.58a4.57 4.57 0 0 0-1.889-1.7c-.805-.41-1.742-.61-2.812-.61-1.089 0-2.041.2-2.856.61-.814.4-1.444.97-1.889 1.7q-.668 1.095-.653 2.58c-.01 1 .213 1.88.667 2.62a4.77 4.77 0 0 0 1.918 1.75q1.221.63 2.813.63M120.273 1470.51c1.193.01 2.386.24 3.579.68q1.79.675 3.267 2.22c.985 1.02 1.776 2.42 2.372 4.19q.895 2.655.895 6.66c0 2.59-.246 4.88-.738 6.89-.483 2-1.184 3.68-2.103 5.06q-1.364 2.055-3.323 3.12c-1.298.71-2.766 1.07-4.404 1.07-1.629 0-3.082-.32-4.361-.97a8.6 8.6 0 0 1-3.125-2.71q-1.207-1.755-1.548-4.05h3.466c.312 1.34.933 2.44 1.861 3.31q1.406 1.29 3.707 1.29 3.367 0 5.313-2.94 1.96-2.94 1.96-8.31h-.227c-.531.8-1.16 1.48-1.89 2.06a8.2 8.2 0 0 1-2.429 1.34c-.89.31-1.837.47-2.84.47a8.9 8.9 0 0 1-4.589-1.24q-2.073-1.245-3.323-3.42c-.824-1.46-1.236-3.13-1.236-5q0-2.67 1.193-4.89a9.2 9.2 0 0 1 3.381-3.55c1.458-.88 3.172-1.31 5.142-1.28m0 3.13c-1.193 0-2.268.29-3.225.89-.947.59-1.7 1.38-2.258 2.39-.549.99-.824 2.1-.824 3.31s.265 2.31.795 3.31c.54.98 1.274 1.77 2.202 2.35q1.407.87 3.196.87c.9 0 1.738-.17 2.514-.52a6.5 6.5 0 0 0 2.032-1.47 7.1 7.1 0 0 0 1.377-2.11q.498-1.2.498-2.49c0-1.14-.275-2.2-.824-3.2a6.6 6.6 0 0 0-2.245-2.41c-.947-.62-2.026-.92-3.238-.92"/></svg>