<svg xmlns="http://www.w3.org/2000/svg" width="935" height="1165" fill="none" viewBox="0 0 935 1165"><g clip-path="url(#a)"><path fill="#002647" d="m832.277 855-112.714-52.672s16.763-35.886 21.965-74.667c6.212-46.304 0-79.875 0-79.875L865.224 631s7.514 67.721 0 116.341S832.277 855 832.277 855"/><path fill="#717171" d="M432.304 215v-26.909h16.135v2.891h-12.876v9.092h11.667v2.89h-11.667V215zm21.296 0v-20.182h3.101V215zm1.576-23.545a2.2 2.2 0 0 1-1.563-.618 1.99 1.99 0 0 1-.644-1.485q0-.867.644-1.484a2.2 2.2 0 0 1 1.563-.618q.908 0 1.551.618.657.617.657 1.484t-.657 1.485a2.16 2.16 0 0 1-1.551.618M462.38 215v-20.182h2.996v3.048h.21q.552-1.497 1.997-2.43t3.259-.933q.34 0 .854.013.512.013.775.039v3.154a9 9 0 0 0-.723-.118 7 7 0 0 0-1.169-.092q-1.471 0-2.628.617a4.66 4.66 0 0 0-1.813 1.682q-.657 1.064-.657 2.431V215zm28.062-15.662-2.786.788a5.2 5.2 0 0 0-.775-1.353q-.5-.67-1.366-1.104-.867-.433-2.221-.433-1.853 0-3.087.854-1.222.84-1.222 2.142 0 1.155.841 1.826.84.67 2.627 1.117l2.996.736q2.707.656 4.034 2.01 1.327 1.34 1.327 3.455 0 1.735-.999 3.101-.985 1.367-2.759 2.155t-4.126.788q-3.087 0-5.111-1.34t-2.562-3.915l2.943-.736q.421 1.63 1.59 2.444 1.182.815 3.088.815 2.168 0 3.442-.92 1.288-.933 1.288-2.234 0-1.052-.736-1.761-.736-.722-2.26-1.077l-3.363-.788q-2.773-.657-4.074-2.037-1.287-1.392-1.287-3.482 0-1.708.959-3.022.972-1.313 2.641-2.063 1.681-.749 3.81-.749 2.995 0 4.704 1.314 1.721 1.314 2.444 3.469m13.813-4.52v2.628h-10.459v-2.628zm-7.411-4.835h3.101v19.236q0 1.314.381 1.971.394.643.999.867.617.21 1.3.21.513 0 .841-.053l.526-.105.63 2.786q-.315.119-.88.236-.565.132-1.432.132a6.25 6.25 0 0 1-2.575-.565 5.1 5.1 0 0 1-2.076-1.721q-.815-1.157-.815-2.917zm-76.02 45.999v-2.891h20.182v2.891h-8.462V260h-3.258v-24.018zM443.519 260v-20.182h2.995v3.048h.211q.55-1.497 1.997-2.43 1.445-.933 3.258-.933.342 0 .854.013t.776.039v3.154a9 9 0 0 0-.723-.118 7 7 0 0 0-1.17-.092q-1.472 0-2.627.617a4.67 4.67 0 0 0-1.814 1.682q-.657 1.064-.657 2.431V260zm19.705.473q-1.918 0-3.482-.723-1.563-.735-2.483-2.115-.92-1.393-.92-3.364 0-1.734.683-2.811a4.8 4.8 0 0 1 1.827-1.709 9.6 9.6 0 0 1 2.523-.919 31 31 0 0 1 2.798-.5q1.84-.236 2.983-.354 1.156-.131 1.682-.434.538-.302.538-1.051v-.105q0-1.945-1.064-3.022-1.051-1.078-3.193-1.078-2.22 0-3.482.973-1.261.972-1.774 2.076l-2.943-1.051q.789-1.84 2.103-2.865a7.9 7.9 0 0 1 2.89-1.445 12 12 0 0 1 3.101-.421q.972 0 2.234.237a7.2 7.2 0 0 1 2.457.933q1.195.71 1.984 2.141.788 1.433.788 3.837V260h-3.101v-2.733h-.157q-.316.657-1.052 1.406t-1.957 1.274q-1.222.526-2.983.526m.473-2.785q1.84 0 3.101-.723 1.275-.723 1.918-1.866a4.75 4.75 0 0 0 .657-2.404v-2.838q-.196.236-.867.433-.657.184-1.524.329-.854.13-1.669.236-.801.092-1.301.158-1.208.158-2.259.512-1.038.342-1.682 1.038-.631.684-.631 1.866 0 1.616 1.196 2.444 1.209.815 3.061.815m22.636 2.732q-2.839 0-4.888-1.34t-3.153-3.692-1.104-5.374q0-3.075 1.13-5.426 1.143-2.366 3.179-3.692 2.05-1.341 4.783-1.341 2.128 0 3.837.789 1.708.788 2.798 2.207 1.091 1.42 1.354 3.311h-3.101q-.355-1.38-1.577-2.444-1.209-1.077-3.258-1.077-1.814 0-3.18.946-1.353.933-2.115 2.641-.75 1.695-.749 3.981 0 2.339.735 4.073.75 1.734 2.103 2.694 1.366.959 3.206.959 1.209 0 2.194-.421a4.5 4.5 0 0 0 1.669-1.208 4.65 4.65 0 0 0 .972-1.892h3.101a7.2 7.2 0 0 1-1.301 3.219q-1.025 1.419-2.72 2.26-1.681.827-3.915.827m15.359-7.778-.052-3.837h.631l8.829-8.987h3.837l-9.408 9.513h-.263zm-2.89 7.358v-26.909h3.101V260zm12.824 0-7.884-9.986 2.208-2.155L515.567 260zM592.445 704v-26.909h3.259v11.983h14.348v-11.983h3.258V704h-3.258v-12.036h-14.348V704zm35.43.42q-2.916 0-5.032-1.287-2.102-1.3-3.245-3.627-1.13-2.338-1.13-5.439t1.13-5.466q1.143-2.379 3.179-3.705 2.05-1.341 4.783-1.341 1.577 0 3.114.526 1.537.525 2.799 1.708 1.26 1.17 2.01 3.101t.749 4.756v1.314h-15.557v-2.68h12.403q0-1.708-.683-3.048a5.15 5.15 0 0 0-1.918-2.116q-1.236-.775-2.917-.775-1.853 0-3.206.92a6.05 6.05 0 0 0-2.063 2.365 6.94 6.94 0 0 0-.723 3.127v1.787q0 2.286.789 3.876.801 1.576 2.22 2.404 1.42.815 3.298.815 1.223 0 2.208-.342a4.7 4.7 0 0 0 1.721-1.051q.723-.71 1.117-1.76l2.995.84a6.64 6.64 0 0 1-1.589 2.681q-1.117 1.143-2.76 1.787-1.642.63-3.692.63m19.013.053q-1.919 0-3.482-.723-1.564-.735-2.483-2.115-.92-1.393-.92-3.364 0-1.734.683-2.811a4.8 4.8 0 0 1 1.826-1.709 9.6 9.6 0 0 1 2.523-.919 31 31 0 0 1 2.799-.5 125 125 0 0 1 2.982-.354q1.157-.131 1.682-.434.539-.302.539-1.051v-.105q0-1.945-1.064-3.022-1.051-1.078-3.193-1.078-2.221 0-3.482.973-1.261.972-1.774 2.076l-2.943-1.051q.788-1.84 2.102-2.865a7.9 7.9 0 0 1 2.891-1.445 12 12 0 0 1 3.101-.421q.972 0 2.233.237 1.275.224 2.457.933 1.196.71 1.984 2.141.789 1.433.789 3.837V704h-3.101v-2.733h-.158q-.315.657-1.051 1.406-.735.749-1.958 1.274-1.222.526-2.982.526m.473-2.785q1.84 0 3.101-.723 1.274-.723 1.918-1.866a4.75 4.75 0 0 0 .657-2.404v-2.838q-.198.236-.867.433-.657.184-1.524.329-.855.13-1.669.236-.801.092-1.301.158-1.209.158-2.26.512-1.038.342-1.682 1.038-.63.684-.63 1.866 0 1.616 1.195 2.444 1.21.815 3.062.815m22.057 2.732q-2.523 0-4.454-1.274-1.932-1.287-3.022-3.626-1.09-2.352-1.091-5.558 0-3.18 1.091-5.519t3.035-3.613q1.945-1.275 4.494-1.275 1.971 0 3.114.657 1.156.644 1.76 1.472.618.815.96 1.34h.262v-9.933h3.101V704h-2.996v-3.101h-.367q-.342.552-.973 1.393-.63.828-1.8 1.485-1.169.643-3.114.643m.421-2.785q1.865 0 3.153-.972 1.287-.986 1.958-2.72.67-1.748.67-4.034 0-2.26-.657-3.955-.657-1.708-1.945-2.654-1.287-.959-3.179-.959-1.971 0-3.285 1.012-1.3.998-1.958 2.719-.644 1.708-.644 3.837 0 2.155.657 3.916.67 1.747 1.971 2.785 1.314 1.025 3.259 1.025M569.122 749v-26.909h9.092q3.167 0 5.177 1.143 2.023 1.13 2.996 3.061t.972 4.31-.972 4.323q-.96 1.944-2.97 3.101-2.01 1.143-5.15 1.143h-6.517v-2.891h6.411q2.168 0 3.482-.749 1.314-.748 1.906-2.023.604-1.288.604-2.904t-.604-2.891q-.592-1.274-1.919-1.997-1.327-.735-3.521-.735h-5.729V749zm31.048.42q-2.733 0-4.796-1.3-2.05-1.302-3.206-3.64-1.143-2.339-1.143-5.466 0-3.153 1.143-5.505 1.156-2.352 3.206-3.653 2.063-1.3 4.796-1.301t4.782 1.301q2.063 1.3 3.206 3.653 1.157 2.352 1.157 5.505 0 3.127-1.157 5.466-1.143 2.338-3.206 3.64-2.049 1.3-4.782 1.3m0-2.785q2.076 0 3.416-1.064t1.984-2.799.644-3.758-.644-3.771-1.984-2.825-3.416-1.077-3.417 1.077q-1.34 1.078-1.984 2.825t-.643 3.771.643 3.758q.645 1.734 1.984 2.799 1.341 1.064 3.417 1.064m28.173-13.297-2.785.788a5.2 5.2 0 0 0-.775-1.353q-.5-.67-1.367-1.104-.867-.433-2.22-.433-1.853 0-3.088.854-1.222.84-1.222 2.142 0 1.155.841 1.826.84.67 2.628 1.117l2.995.736q2.707.656 4.034 2.01 1.327 1.34 1.327 3.455 0 1.735-.998 3.101-.986 1.367-2.76 2.155t-4.125.788q-3.088 0-5.111-1.34t-2.563-3.915l2.944-.736q.42 1.63 1.589 2.444 1.183.815 3.088.815 2.168 0 3.443-.92 1.287-.933 1.287-2.234 0-1.052-.736-1.761-.735-.721-2.259-1.077l-3.364-.788q-2.772-.657-4.073-2.037-1.288-1.392-1.288-3.482 0-1.708.959-3.022.972-1.313 2.641-2.063 1.682-.749 3.811-.749 2.996 0 4.703 1.314 1.722 1.314 2.444 3.469M633.379 749v-20.182h3.101V749zm1.577-23.545a2.2 2.2 0 0 1-1.564-.618 1.99 1.99 0 0 1-.644-1.485q0-.867.644-1.484a2.2 2.2 0 0 1 1.564-.618q.906 0 1.55.618.657.617.657 1.484t-.657 1.485a2.16 2.16 0 0 1-1.55.618m15.98 3.363v2.628h-10.459v-2.628zm-7.41-4.835h3.101v19.236q0 1.314.381 1.971.393.643.998.867.617.21 1.301.21.513 0 .841-.053l.525-.105.631 2.786q-.316.119-.88.236-.565.132-1.432.132a6.26 6.26 0 0 1-2.576-.565 5.1 5.1 0 0 1-2.076-1.721q-.814-1.157-.814-2.917zM655.601 749v-20.182h3.1V749zm1.576-23.545a2.2 2.2 0 0 1-1.563-.618 1.99 1.99 0 0 1-.644-1.485q0-.867.644-1.484a2.2 2.2 0 0 1 1.563-.618q.907 0 1.551.618.657.617.657 1.484t-.657 1.485a2.16 2.16 0 0 1-1.551.618m15.403 23.965q-2.733 0-4.796-1.3-2.05-1.302-3.206-3.64-1.143-2.339-1.143-5.466 0-3.153 1.143-5.505 1.156-2.352 3.206-3.653 2.063-1.3 4.796-1.301t4.782 1.301q2.063 1.3 3.206 3.653 1.157 2.352 1.157 5.505 0 3.127-1.157 5.466-1.142 2.338-3.206 3.64-2.049 1.3-4.782 1.3m0-2.785q2.076 0 3.416-1.064t1.984-2.799.644-3.758-.644-3.771-1.984-2.825-3.416-1.077-3.416 1.077q-1.34 1.078-1.984 2.825t-.644 3.771.644 3.758 1.984 2.799 3.416 1.064m16.979-9.776V749h-3.101v-20.182h2.996v3.154h.263a5.77 5.77 0 0 1 2.154-2.471q1.446-.946 3.732-.946 2.05 0 3.587.841 1.537.828 2.391 2.523.855 1.682.854 4.257V749h-3.101v-12.614q0-2.378-1.235-3.705-1.234-1.34-3.39-1.34-1.484 0-2.654.644-1.155.643-1.826 1.879-.67 1.235-.67 2.995M155.605 279v-26.909h3.259v24.018h12.508V279zm26.331.473q-1.918 0-3.482-.723-1.563-.735-2.483-2.115-.92-1.393-.92-3.364 0-1.734.683-2.811a4.8 4.8 0 0 1 1.827-1.709 9.6 9.6 0 0 1 2.522-.919 31 31 0 0 1 2.799-.5q1.84-.236 2.983-.354 1.156-.132 1.681-.434.54-.302.539-1.051v-.105q0-1.945-1.064-3.022-1.051-1.078-3.193-1.078-2.22 0-3.482.973-1.261.972-1.774 2.076l-2.943-1.051q.789-1.84 2.103-2.865a7.9 7.9 0 0 1 2.89-1.445 12 12 0 0 1 3.101-.421q.972 0 2.234.237a7.2 7.2 0 0 1 2.457.933q1.195.71 1.984 2.141.788 1.433.788 3.837V279h-3.101v-2.733h-.157q-.316.657-1.052 1.406-.735.749-1.957 1.274-1.222.526-2.983.526m.473-2.785q1.84 0 3.101-.723 1.275-.723 1.918-1.866a4.75 4.75 0 0 0 .657-2.404v-2.838q-.196.236-.867.433-.657.184-1.524.329-.855.13-1.669.236-.801.092-1.301.158-1.208.158-2.26.512-1.038.342-1.681 1.038-.631.684-.631 1.866 0 1.616 1.196 2.444 1.208.815 3.061.815m28.732-13.35-2.785.788a5.2 5.2 0 0 0-.776-1.353q-.499-.67-1.366-1.104-.867-.433-2.221-.433-1.853 0-3.087.854-1.222.84-1.222 2.142 0 1.155.841 1.826.84.67 2.628 1.117l2.995.736q2.707.656 4.034 2.01 1.327 1.34 1.327 3.455 0 1.735-.998 3.101-.986 1.367-2.76 2.155t-4.125.788q-3.089 0-5.112-1.34t-2.562-3.915l2.943-.736q.422 1.63 1.59 2.444 1.183.815 3.088.815 2.168 0 3.443-.92 1.287-.933 1.287-2.234 0-1.052-.736-1.761-.735-.721-2.26-1.077l-3.363-.788q-2.772-.657-4.073-2.037-1.288-1.392-1.288-3.482 0-1.708.959-3.022.972-1.313 2.641-2.063 1.682-.749 3.81-.749 2.997 0 4.704 1.314 1.721 1.315 2.444 3.469m13.813-4.52v2.628h-10.459v-2.628zm-7.411-4.835h3.101v19.236q0 1.314.381 1.971.395.643.999.867.617.21 1.301.21.512 0 .84-.053l.526-.105.631 2.786a6 6 0 0 1-.881.236q-.565.132-1.432.132a6.25 6.25 0 0 1-2.575-.565 5.1 5.1 0 0 1-2.076-1.721q-.815-1.157-.815-2.917zm-74.719 45.999v-2.891h20.182v2.891h-8.462V324h-3.258v-24.018zM165.519 324v-20.182h2.995v3.048h.211q.55-1.497 1.997-2.43 1.445-.933 3.258-.933.342 0 .854.013t.776.039v3.154a9 9 0 0 0-.723-.118 7 7 0 0 0-1.17-.092q-1.472 0-2.627.617a4.67 4.67 0 0 0-1.814 1.682q-.657 1.064-.657 2.431V324zm19.705.473q-1.918 0-3.482-.723-1.563-.735-2.483-2.115-.92-1.393-.92-3.364 0-1.734.683-2.811a4.8 4.8 0 0 1 1.827-1.709 9.6 9.6 0 0 1 2.523-.919 31 31 0 0 1 2.798-.5q1.84-.236 2.983-.354 1.156-.132 1.682-.434.538-.302.538-1.051v-.105q0-1.945-1.064-3.022-1.051-1.078-3.193-1.078-2.22 0-3.482.973-1.261.972-1.774 2.076l-2.943-1.051q.789-1.84 2.103-2.865a7.9 7.9 0 0 1 2.89-1.445 12 12 0 0 1 3.101-.421q.972 0 2.234.237a7.2 7.2 0 0 1 2.457.933q1.195.71 1.984 2.141.788 1.433.788 3.837V324h-3.101v-2.733h-.157q-.316.657-1.052 1.406t-1.957 1.274q-1.222.526-2.983.526m.473-2.785q1.84 0 3.101-.723 1.275-.723 1.918-1.866a4.75 4.75 0 0 0 .657-2.404v-2.838q-.196.236-.867.433-.657.184-1.524.329-.854.13-1.669.236-.801.092-1.301.158-1.208.158-2.259.512-1.038.342-1.682 1.038-.631.684-.631 1.866 0 1.616 1.196 2.444 1.209.815 3.061.815m22.636 2.732q-2.838 0-4.888-1.34t-3.153-3.692q-1.104-2.352-1.104-5.374 0-3.074 1.13-5.426 1.143-2.366 3.179-3.692 2.05-1.341 4.783-1.341 2.129 0 3.837.789 1.708.788 2.798 2.207 1.091 1.42 1.354 3.311h-3.101q-.355-1.38-1.577-2.444-1.209-1.077-3.258-1.077-1.814 0-3.18.946-1.353.933-2.115 2.641-.75 1.695-.749 3.981 0 2.339.735 4.073.75 1.734 2.103 2.694 1.366.959 3.206.959 1.209 0 2.194-.421a4.5 4.5 0 0 0 1.669-1.208 4.65 4.65 0 0 0 .972-1.892h3.101a7.2 7.2 0 0 1-1.301 3.219q-1.025 1.419-2.72 2.26-1.681.827-3.915.827m15.359-7.778-.052-3.837h.631l8.829-8.987h3.837l-9.408 9.513h-.263zm-2.89 7.358v-26.909h3.101V324zm12.824 0-7.884-9.986 2.208-2.155L237.567 324z"/><path fill="#fff" d="M465.063 364.398q-3.21 0-5.468-1.747-2.26-1.762-3.452-5.1-1.194-3.353-1.193-8.096 0-4.716 1.193-8.054 1.207-3.353 3.466-5.114 2.272-1.776 5.454-1.776t5.441 1.776q2.272 1.761 3.466 5.114 1.207 3.338 1.207 8.054 0 4.743-1.193 8.096-1.194 3.338-3.452 5.1-2.258 1.746-5.469 1.747m0-3.125q3.182 0 4.944-3.068 1.761-3.07 1.761-8.75 0-3.778-.81-6.435-.795-2.656-2.301-4.048-1.491-1.392-3.594-1.392-3.153 0-4.929 3.11-1.775 3.097-1.775 8.765 0 3.778.795 6.42.796 2.642 2.287 4.02 1.506 1.377 3.622 1.378M265.044 389.909V419h-3.523v-25.398h-.17l-7.102 4.716v-3.579l7.272-4.83zm17.628-.398q1.79.015 3.58.682 1.79.668 3.267 2.216 1.476 1.535 2.372 4.19.894 2.657.895 6.662 0 3.879-.739 6.89-.725 2.997-2.102 5.056-1.363 2.06-3.324 3.125-1.946 1.066-4.404 1.066-2.442 0-4.36-.966a8.56 8.56 0 0 1-3.125-2.713q-1.207-1.747-1.549-4.049h3.466q.47 2.004 1.861 3.31 1.406 1.293 3.707 1.293 3.368 0 5.313-2.941 1.96-2.94 1.96-8.309h-.227a8.9 8.9 0 0 1-1.889 2.059 8.3 8.3 0 0 1-2.429 1.336 8.5 8.5 0 0 1-2.841.468q-2.5 0-4.588-1.235-2.075-1.25-3.324-3.424-1.236-2.187-1.236-5 0-2.67 1.193-4.886a9.2 9.2 0 0 1 3.381-3.551q2.187-1.321 5.142-1.279m0 3.125q-1.79 0-3.224.895a6.44 6.44 0 0 0-2.259 2.387q-.824 1.491-.824 3.309t.796 3.31a6.34 6.34 0 0 0 2.201 2.358q1.407.866 3.196.866 1.35 0 2.515-.525a6.5 6.5 0 0 0 2.031-1.463 7.1 7.1 0 0 0 1.378-2.117 6.4 6.4 0 0 0 .497-2.486 6.5 6.5 0 0 0-.824-3.196 6.54 6.54 0 0 0-2.244-2.414q-1.42-.924-3.239-.924m24.961-3.125q1.79.015 3.58.682 1.79.668 3.267 2.216 1.476 1.535 2.372 4.19.894 2.657.895 6.662 0 3.879-.739 6.89-.725 2.997-2.102 5.056-1.363 2.06-3.324 3.125-1.946 1.066-4.404 1.066-2.442 0-4.36-.966a8.56 8.56 0 0 1-3.125-2.713q-1.207-1.747-1.549-4.049h3.466q.47 2.004 1.861 3.31 1.406 1.293 3.707 1.293 3.368 0 5.313-2.941 1.96-2.94 1.96-8.309h-.227a8.9 8.9 0 0 1-1.889 2.059 8.34 8.34 0 0 1-5.27 1.804q-2.5 0-4.588-1.235-2.074-1.25-3.324-3.424-1.236-2.187-1.236-5 0-2.67 1.193-4.886a9.2 9.2 0 0 1 3.381-3.551q2.187-1.321 5.142-1.279m0 3.125q-1.79 0-3.224.895a6.44 6.44 0 0 0-2.259 2.387q-.824 1.491-.824 3.309t.796 3.31a6.34 6.34 0 0 0 2.201 2.358q1.407.866 3.196.866 1.35 0 2.515-.525a6.5 6.5 0 0 0 2.031-1.463 7.1 7.1 0 0 0 1.378-2.117 6.4 6.4 0 0 0 .497-2.486 6.5 6.5 0 0 0-.824-3.196 6.54 6.54 0 0 0-2.244-2.414q-1.42-.924-3.239-.924M136.947 534.909V564h-3.523v-25.398h-.171l-7.102 4.716v-3.579l7.273-4.83zm17.684 29.489q-2.926 0-5.17-1.037-2.23-1.051-3.48-2.884-1.251-1.846-1.236-4.204-.014-1.847.724-3.409a7.4 7.4 0 0 1 2.017-2.628 6.2 6.2 0 0 1 2.884-1.35v-.17q-2.088-.54-3.324-2.344-1.236-1.818-1.222-4.133-.014-2.217 1.123-3.963 1.136-1.748 3.125-2.756 2.003-1.009 4.559-1.009 2.529 0 4.517 1.009 1.99 1.008 3.125 2.756 1.151 1.746 1.165 3.963-.014 2.315-1.264 4.133-1.236 1.804-3.281 2.344v.17q1.577.285 2.84 1.35a7.65 7.65 0 0 1 2.018 2.628q.752 1.562.767 3.409-.015 2.358-1.279 4.204-1.25 1.833-3.48 2.884-2.216 1.037-5.128 1.037m0-3.125q1.975 0 3.409-.639 1.435-.64 2.216-1.804t.796-2.728q-.015-1.647-.853-2.912-.838-1.263-2.287-1.988-1.434-.725-3.281-.725-1.86 0-3.324.725-1.449.725-2.287 1.988-.824 1.265-.809 2.912-.015 1.563.753 2.728.78 1.164 2.23 1.804 1.449.639 3.437.639m0-13.807q1.563 0 2.77-.625a4.76 4.76 0 0 0 1.918-1.747q.695-1.122.71-2.628-.015-1.478-.696-2.571a4.5 4.5 0 0 0-1.889-1.705q-1.208-.61-2.813-.61-1.634 0-2.855.61-1.221.597-1.889 1.705-.668 1.093-.654 2.571-.013 1.506.668 2.628a4.75 4.75 0 0 0 1.918 1.747q1.221.625 2.812.625m25.16 16.932q-2.812 0-5.014-.966-2.189-.966-3.48-2.685-1.28-1.732-1.392-4.02h3.579q.114 1.406.966 2.429.853 1.009 2.23 1.563 1.379.554 3.054.554 1.875 0 3.324-.654 1.45-.653 2.273-1.818.824-1.164.824-2.699 0-1.605-.796-2.826-.795-1.236-2.329-1.932t-3.75-.696h-2.33v-3.125h2.33q1.733 0 3.039-.625 1.322-.625 2.06-1.762.753-1.135.753-2.67 0-1.478-.654-2.571-.653-1.093-1.846-1.705-1.179-.61-2.784-.61a7.3 7.3 0 0 0-2.841.554q-1.321.539-2.159 1.576-.838 1.023-.909 2.472h-3.409q.085-2.287 1.377-4.006 1.293-1.733 3.381-2.699 2.102-.966 4.617-.966 2.698 0 4.63 1.094 1.932 1.08 2.969 2.855a7.5 7.5 0 0 1 1.037 3.835q0 2.458-1.293 4.191-1.278 1.732-3.48 2.4v.228q2.756.455 4.304 2.343 1.549 1.876 1.549 4.645 0 2.372-1.293 4.262-1.278 1.875-3.494 2.954t-5.043 1.08M113.376 721.909V751h-3.523v-25.398h-.17l-7.102 4.716v-3.579l7.272-4.83zM121.743 751v-2.557l9.602-10.511a67 67 0 0 0 2.784-3.21q1.094-1.378 1.619-2.586.54-1.221.54-2.556 0-1.535-.738-2.657-.724-1.122-1.989-1.733-1.264-.61-2.841-.61-1.676 0-2.926.696a4.8 4.8 0 0 0-1.918 1.917q-.667 1.236-.667 2.898h-3.353q0-2.557 1.179-4.489a8.2 8.2 0 0 1 3.211-3.011q2.045-1.08 4.588-1.08 2.557 0 4.531 1.08t3.096 2.912q1.123 1.832 1.123 4.077 0 1.605-.583 3.139-.568 1.52-1.988 3.395-1.407 1.86-3.907 4.545l-6.534 6.989v.227h13.523V751zm22.912-5.966v-2.898l12.784-20.227h2.102v4.489h-1.42l-9.66 15.284v.227h17.216v3.125zM158.348 751v-29.091h3.352V751zM190.786 889.909V919h-3.522v-25.398h-.171l-7.102 4.716v-3.579l7.273-4.83zM199.153 919v-2.557l9.602-10.511a67 67 0 0 0 2.784-3.21q1.094-1.378 1.62-2.586a6.3 6.3 0 0 0 .539-2.556q0-1.535-.738-2.657-.725-1.122-1.989-1.733-1.264-.61-2.841-.61-1.676 0-2.926.696a4.8 4.8 0 0 0-1.918 1.917q-.667 1.236-.667 2.898h-3.353q0-2.557 1.179-4.489a8.2 8.2 0 0 1 3.211-3.011q2.045-1.08 4.588-1.08 2.557 0 4.531 1.08t3.097 2.912 1.122 4.077q0 1.605-.583 3.139-.567 1.52-1.988 3.395-1.407 1.86-3.907 4.545l-6.534 6.989v.227h13.523V919zm24.219 0v-2.557l9.602-10.511a67 67 0 0 0 2.784-3.21q1.094-1.378 1.619-2.586.54-1.221.54-2.556 0-1.535-.739-2.657-.724-1.122-1.988-1.733-1.264-.61-2.841-.61-1.677 0-2.926.696a4.8 4.8 0 0 0-1.918 1.917q-.667 1.236-.667 2.898h-3.353q0-2.557 1.179-4.489a8.2 8.2 0 0 1 3.21-3.011q2.045-1.08 4.589-1.08 2.556 0 4.531 1.08t3.096 2.912q1.123 1.832 1.123 4.077 0 1.605-.583 3.139-.568 1.52-1.989 3.395-1.406 1.86-3.906 4.545l-6.534 6.989v.227h13.523V919zM357.031 998.511q1.79.015 3.58.682c1.193.445 2.282 1.187 3.267 2.217.985 1.02 1.776 2.42 2.372 4.19q.895 2.655.895 6.66c0 2.59-.246 4.88-.739 6.89-.483 2-1.183 3.68-2.102 5.06q-1.364 2.055-3.324 3.12c-1.297.71-2.765 1.07-4.403 1.07-1.629 0-3.083-.32-4.361-.97a8.57 8.57 0 0 1-3.125-2.71q-1.208-1.755-1.548-4.05h3.466c.312 1.34.932 2.44 1.86 3.31q1.407 1.29 3.708 1.29 3.366 0 5.312-2.94 1.96-2.94 1.961-8.31h-.228c-.53.8-1.16 1.48-1.889 2.06a8.2 8.2 0 0 1-2.429 1.34c-.89.31-1.837.47-2.841.47a8.9 8.9 0 0 1-4.588-1.24q-2.073-1.245-3.324-3.42c-.824-1.46-1.236-3.13-1.236-5q0-2.67 1.194-4.89a9.2 9.2 0 0 1 3.38-3.55q2.189-1.321 5.142-1.279m0 3.129c-1.193 0-2.268.29-3.224.89-.947.59-1.7 1.38-2.259 2.39-.549.99-.823 2.1-.823 3.31s.265 2.31.795 3.31c.54.98 1.274 1.77 2.202 2.35q1.406.87 3.196.87c.899 0 1.737-.17 2.514-.52a6.5 6.5 0 0 0 2.031-1.47 7.1 7.1 0 0 0 1.378-2.11q.497-1.2.497-2.49c0-1.14-.274-2.2-.824-3.2a6.6 6.6 0 0 0-2.244-2.41c-.947-.62-2.026-.92-3.239-.92m25.018 26.76c-1.951 0-3.674-.35-5.17-1.04q-2.23-1.05-3.48-2.88c-.834-1.23-1.246-2.64-1.236-4.21-.01-1.23.232-2.36.724-3.41a7.4 7.4 0 0 1 2.017-2.62 6.2 6.2 0 0 1 2.884-1.35v-.17c-1.392-.36-2.5-1.15-3.324-2.35-.824-1.21-1.231-2.59-1.222-4.13q-.013-2.22 1.122-3.96 1.137-1.755 3.125-2.76 2.004-1.009 4.56-1.009 2.528 0 4.517 1.009 1.99 1.005 3.125 2.76 1.15 1.74 1.165 3.96c-.01 1.54-.431 2.92-1.264 4.13-.824 1.2-1.918 1.99-3.281 2.35v.17q1.577.285 2.84 1.35a7.6 7.6 0 0 1 2.017 2.62c.502 1.05.758 2.18.768 3.41-.01 1.57-.436 2.98-1.279 4.21q-1.25 1.83-3.48 2.88c-1.477.69-3.187 1.04-5.128 1.04m0-3.13c1.316 0 2.453-.21 3.409-.64q1.435-.63 2.216-1.8t.796-2.73q-.015-1.65-.853-2.91c-.558-.84-1.321-1.51-2.287-1.99q-1.434-.72-3.281-.72-1.86 0-3.324.72a5.8 5.8 0 0 0-2.287 1.99q-.824 1.26-.809 2.91-.015 1.56.753 2.73.78 1.17 2.23 1.8c.966.43 2.111.64 3.437.64m0-13.8q1.563 0 2.77-.63c.814-.42 1.454-1 1.918-1.75.464-.74.7-1.62.71-2.62q-.015-1.485-.696-2.58a4.6 4.6 0 0 0-1.889-1.7c-.805-.41-1.743-.61-2.813-.61-1.089 0-2.041.2-2.855.61-.814.4-1.444.97-1.889 1.7q-.668 1.095-.654 2.58c-.009 1 .213 1.88.668 2.62a4.77 4.77 0 0 0 1.918 1.75q1.222.63 2.812.63M545.828 1031.4a11 11 0 0 1-3.58-.68c-1.193-.44-2.282-1.17-3.267-2.21s-1.776-2.44-2.372-4.21c-.597-1.78-.895-4.02-.895-6.71 0-2.57.241-4.86.724-6.85q.724-2.985 2.103-5.04 1.377-2.055 3.323-3.12c1.307-.71 2.78-1.07 4.418-1.07 1.629 0 3.078.33 4.347.98a8.4 8.4 0 0 1 3.125 2.7q1.207 1.74 1.562 3.99h-3.466c-.322-1.31-.947-2.39-1.875-3.25q-1.392-1.29-3.693-1.29-3.38 0-5.327 2.94-1.93 2.94-1.946 8.25h.228c.53-.81 1.16-1.49 1.889-2.06a8.7 8.7 0 0 1 2.443-1.34 8.5 8.5 0 0 1 2.827-.46c1.666 0 3.191.41 4.574 1.25q2.073 1.23 3.323 3.42 1.25 2.175 1.25 4.98 0 2.7-1.207 4.95a9.23 9.23 0 0 1-3.395 3.55c-1.449.87-3.153 1.3-5.113 1.28m0-3.13c1.193 0 2.263-.3 3.21-.89q1.434-.9 2.258-2.4c.559-1.01.838-2.12.838-3.36 0-1.2-.27-2.29-.809-3.28a6.2 6.2 0 0 0-2.202-2.37c-.928-.59-1.989-.88-3.182-.88q-1.349 0-2.514.54c-.777.35-1.458.83-2.045 1.45a7 7 0 0 0-1.364 2.12 6.3 6.3 0 0 0-.497 2.48q0 1.74.809 3.24.825 1.5 2.245 2.43c.956.61 2.04.92 3.253.92m16.21 2.73 13.012-25.74v-.23h-15v-3.12h18.636v3.29l-12.954 25.8zM708.085 928.398a10.9 10.9 0 0 1-3.579-.682q-1.79-.654-3.267-2.202-1.478-1.562-2.372-4.219-.895-2.67-.895-6.704 0-3.864.724-6.847.725-2.997 2.102-5.042 1.379-2.06 3.324-3.125 1.96-1.066 4.418-1.066 2.444 0 4.347.98a8.3 8.3 0 0 1 3.125 2.699q1.206 1.734 1.562 3.992h-3.466q-.483-1.96-1.875-3.253t-3.693-1.293q-3.38 0-5.327 2.941-1.932 2.94-1.946 8.253h.227a8.6 8.6 0 0 1 1.89-2.06 8.457 8.457 0 0 1 5.27-1.804q2.5 0 4.573 1.25 2.075 1.236 3.324 3.423 1.25 2.173 1.25 4.986 0 2.699-1.207 4.943a9.2 9.2 0 0 1-3.395 3.551q-2.173 1.308-5.114 1.279m0-3.125q1.79 0 3.211-.895a6.4 6.4 0 0 0 2.258-2.401q.838-1.506.838-3.352 0-1.804-.809-3.281a6.2 6.2 0 0 0-2.202-2.372q-1.392-.881-3.182-.881a5.9 5.9 0 0 0-2.514.54 6.5 6.5 0 0 0-2.046 1.449 7 7 0 0 0-1.363 2.116 6.3 6.3 0 0 0-.497 2.486q0 1.733.809 3.238a6.66 6.66 0 0 0 2.245 2.429q1.434.924 3.252.924m24.393 3.125q-2.5 0-4.503-.995-2.002-.994-3.21-2.727-1.207-1.732-1.321-3.949h3.409q.199 1.976 1.79 3.267 1.605 1.28 3.835 1.279 1.79 0 3.182-.838a5.93 5.93 0 0 0 2.202-2.301q.809-1.477.809-3.339 0-1.903-.838-3.394a6.16 6.16 0 0 0-2.272-2.373q-1.45-.866-3.31-.88a9.1 9.1 0 0 0-2.742.412q-1.406.411-2.315 1.065l-3.295-.398 1.761-14.318h15.114v3.125h-12.16l-1.022 8.58h.17q.895-.711 2.245-1.179a8.5 8.5 0 0 1 2.812-.469q2.67 0 4.759 1.278a8.93 8.93 0 0 1 3.295 3.466q1.207 2.202 1.207 5.029 0 2.784-1.25 4.971a9.13 9.13 0 0 1-3.409 3.438q-2.173 1.25-4.943 1.25M787.263 753.398q-2.499 0-4.503-.995-2.003-.994-3.21-2.727t-1.321-3.949h3.409q.199 1.976 1.79 3.267 1.606 1.28 3.835 1.279 1.79 0 3.182-.838a5.9 5.9 0 0 0 2.202-2.301q.81-1.477.809-3.339 0-1.903-.838-3.394a6.15 6.15 0 0 0-2.272-2.373q-1.449-.866-3.31-.88a9 9 0 0 0-2.741.412q-1.407.411-2.316 1.065l-3.295-.398 1.761-14.318h15.114v3.125H783.4l-1.023 8.58h.17q.895-.711 2.245-1.179a8.5 8.5 0 0 1 2.812-.469q2.67 0 4.759 1.278a8.93 8.93 0 0 1 3.295 3.466q1.208 2.202 1.208 5.029 0 2.784-1.25 4.971a9.14 9.14 0 0 1-3.41 3.438q-2.172 1.25-4.943 1.25m25.075 0q-2.813 0-5.014-.966-2.188-.966-3.48-2.685-1.28-1.732-1.393-4.02h3.58q.114 1.406.966 2.429.852 1.009 2.23 1.563t3.054.554q1.875 0 3.324-.654 1.448-.653 2.273-1.818.823-1.164.823-2.699 0-1.605-.795-2.826-.795-1.236-2.33-1.932-1.533-.696-3.75-.696h-2.329v-3.125h2.329q1.734 0 3.04-.625 1.322-.625 2.06-1.762.753-1.135.753-2.67 0-1.477-.654-2.571-.653-1.093-1.846-1.705-1.179-.61-2.784-.61a7.3 7.3 0 0 0-2.841.554q-1.322.539-2.159 1.576-.838 1.023-.909 2.472h-3.41q.086-2.287 1.378-4.006 1.293-1.733 3.381-2.699 2.103-.966 4.616-.966 2.7 0 4.631 1.094 1.932 1.08 2.969 2.855a7.5 7.5 0 0 1 1.037 3.835q0 2.458-1.293 4.191-1.278 1.733-3.48 2.4v.228q2.756.455 4.304 2.343 1.548 1.876 1.548 4.645 0 2.372-1.292 4.262-1.278 1.875-3.495 2.954t-5.042 1.08M760.744 566.398q-2.812 0-5.014-.966-2.187-.966-3.48-2.685-1.278-1.732-1.392-4.02h3.579q.114 1.406.966 2.429.852 1.009 2.23 1.563t3.054.554q1.875 0 3.324-.654 1.45-.653 2.273-1.818.824-1.164.824-2.699 0-1.605-.796-2.826-.796-1.236-2.329-1.932-1.535-.696-3.75-.696h-2.33v-3.125h2.33q1.732 0 3.04-.625 1.32-.625 2.059-1.762.753-1.135.753-2.67 0-1.478-.653-2.571-.654-1.093-1.847-1.705-1.179-.61-2.784-.61a7.3 7.3 0 0 0-2.841.554q-1.321.539-2.159 1.576-.838 1.023-.909 2.472h-3.409q.085-2.287 1.378-4.006 1.292-1.733 3.38-2.699 2.103-.966 4.617-.966 2.699 0 4.63 1.094 1.932 1.08 2.969 2.855a7.5 7.5 0 0 1 1.037 3.835q0 2.458-1.293 4.191-1.278 1.732-3.48 2.4v.228q2.756.455 4.304 2.343 1.55 1.876 1.549 4.645 0 2.372-1.293 4.262-1.278 1.875-3.494 2.954t-5.043 1.08m16.548-.398 13.012-25.739v-.227h-15v-3.125h18.636v3.296L780.986 566zM636.173 388.909V418h-3.523v-25.398h-.17l-7.102 4.716v-3.579l7.272-4.83zm7.685 23.125v-2.898l12.784-20.227h2.102v4.489h-1.42l-9.659 15.284v.227h17.215v3.125zM657.551 418v-29.091h3.352V418zM277.002 94.094h-6.222q-.171-1.207-.696-2.145a5.5 5.5 0 0 0-1.349-1.62 6 6 0 0 0-1.904-1.022 7.3 7.3 0 0 0-2.315-.355q-2.258 0-3.935 1.122-1.676 1.108-2.599 3.239-.924 2.115-.924 5.141 0 3.111.924 5.228.938 2.116 2.613 3.196 1.677 1.08 3.878 1.079 1.236 0 2.287-.326a6 6 0 0 0 1.889-.952 5.5 5.5 0 0 0 1.364-1.548 6 6 0 0 0 .767-2.074l6.222.028a11.3 11.3 0 0 1-1.208 3.864 11.6 11.6 0 0 1-2.571 3.31q-1.605 1.448-3.835 2.301-2.216.838-5.014.838-3.892 0-6.961-1.762-3.053-1.761-4.829-5.099-1.761-3.338-1.761-8.083 0-4.758 1.789-8.096 1.79-3.338 4.858-5.085 3.069-1.761 6.904-1.762 2.528 0 4.687.71 2.173.71 3.85 2.075 1.675 1.349 2.727 3.31 1.065 1.959 1.364 4.488M281.298 113V91.182h6.052V113zm3.04-24.63q-1.349 0-2.315-.896-.952-.909-.952-2.173 0-1.25.952-2.145.966-.909 2.315-.909 1.35 0 2.301.91.966.893.966 2.144 0 1.264-.966 2.173-.951.895-2.301.895m7.859 24.63V91.182h5.866v3.807h.228q.596-2.032 2.002-3.068 1.407-1.052 3.239-1.052.455 0 .98.057.526.057.924.156v5.37a8 8 0 0 0-1.179-.228 11 11 0 0 0-1.378-.099q-1.335 0-2.387.582-1.036.57-1.647 1.591-.597 1.023-.597 2.358V113zm25.209.426q-3.351 0-5.767-1.42-2.4-1.435-3.693-3.978-1.278-2.542-1.278-5.852 0-3.353 1.292-5.88 1.307-2.544 3.708-3.964 2.4-1.434 5.71-1.434 2.855 0 5 1.037t3.395 2.912 1.378 4.403h-5.711q-.24-1.633-1.278-2.628-1.023-1.008-2.685-1.008-1.405 0-2.457.767-1.037.753-1.619 2.201-.583 1.45-.583 3.509 0 2.088.569 3.551.582 1.463 1.633 2.23t2.457.767q1.038 0 1.861-.426a3.6 3.6 0 0 0 1.378-1.236q.554-.823.724-1.974h5.711q-.143 2.5-1.364 4.403-1.208 1.89-3.338 2.955t-5.043 1.065m27.61-9.716V91.182h6.052V113h-5.81v-3.963h-.227a6.45 6.45 0 0 1-2.458 3.082q-1.704 1.165-4.162 1.165-2.187 0-3.849-.994t-2.599-2.827q-.924-1.833-.938-4.389V91.182h6.051v12.812q.014 1.932 1.037 3.054t2.742 1.122q1.094 0 2.045-.497a3.9 3.9 0 0 0 1.534-1.505q.597-.994.582-2.458m16.943-19.8V113h-6.051V83.91zm11.069 29.502q-2.088 0-3.722-.724-1.634-.739-2.585-2.174-.937-1.449-.937-3.608 0-1.818.667-3.054a5.4 5.4 0 0 1 1.818-1.988 8.8 8.8 0 0 1 2.614-1.137 20 20 0 0 1 3.097-.539 80 80 0 0 0 3.068-.37q1.164-.184 1.69-.54.526-.355.526-1.05v-.086q0-1.35-.853-2.088-.838-.739-2.386-.739-1.633 0-2.599.725-.966.71-1.279 1.79l-5.596-.455q.425-1.99 1.676-3.437 1.25-1.464 3.224-2.245 1.989-.795 4.602-.795 1.82 0 3.481.426 1.676.426 2.968 1.32a6.4 6.4 0 0 1 2.06 2.302q.753 1.392.753 3.338V113h-5.739v-3.026h-.17a6.1 6.1 0 0 1-1.407 1.804q-.88.767-2.116 1.208-1.236.426-2.855.426m1.733-4.176q1.335 0 2.358-.526a4.2 4.2 0 0 0 1.605-1.449q.582-.909.582-2.059v-2.316q-.284.185-.781.341-.483.142-1.094.27-.61.114-1.221.213l-1.108.156q-1.066.157-1.861.498t-1.236.923q-.44.568-.44 1.42 0 1.236.895 1.89.909.639 2.301.639M390.009 113V91.182h5.867v3.807h.227q.596-2.032 2.003-3.068 1.406-1.052 3.239-1.052.454 0 .98.057.525.057.923.156v5.37a8 8 0 0 0-1.179-.228q-.753-.099-1.378-.099-1.335 0-2.386.582a4.3 4.3 0 0 0-1.648 1.591q-.596 1.023-.596 2.358V113zm36.052 0h-10.313V83.91h10.398q4.389 0 7.557 1.746 3.166 1.733 4.872 4.986 1.719 3.253 1.718 7.784 0 4.546-1.718 7.813-1.705 3.267-4.901 5.014-3.182 1.747-7.613 1.747m-4.162-5.27h3.906q2.727 0 4.588-.966 1.875-.98 2.812-3.025.952-2.06.952-5.313 0-3.225-.952-5.27-.937-2.045-2.798-3.011t-4.588-.966h-3.92zm22.837 5.27V91.182h6.051V113zm3.04-24.63q-1.35 0-2.316-.896-.951-.909-.951-2.173 0-1.25.951-2.145.966-.909 2.316-.909t2.301.91q.966.893.966 2.144 0 1.264-.966 2.173-.952.895-2.301.895m26.012 9.033-5.54.341a2.86 2.86 0 0 0-.611-1.278 3.24 3.24 0 0 0-1.236-.923q-.752-.356-1.804-.356-1.406 0-2.372.597-.966.583-.966 1.563 0 .78.625 1.32t2.145.867l3.949.796q3.182.653 4.744 2.102 1.563 1.449 1.563 3.807 0 2.145-1.264 3.764-1.25 1.619-3.438 2.528-2.173.895-5.014.895-4.332 0-6.903-1.804-2.557-1.818-2.998-4.943l5.952-.313q.27 1.322 1.307 2.018 1.037.681 2.656.681 1.591 0 2.557-.61.98-.625.994-1.606-.014-.824-.696-1.349-.681-.54-2.102-.824l-3.778-.753q-3.196-.639-4.759-2.216-1.548-1.576-1.548-4.02 0-2.101 1.136-3.622 1.15-1.52 3.225-2.343 2.087-.825 4.886-.824 4.133 0 6.506 1.747 2.386 1.747 2.784 4.758m9.79 9.319.014-7.259h.881l6.989-8.281h6.946l-9.389 10.966h-1.435zM478.095 113V83.91h6.051V113zm13.637 0-6.421-9.503 4.034-4.275L498.82 113zm19.016 0V83.91h11.477q3.296 0 5.625 1.178 2.344 1.165 3.566 3.31 1.235 2.13 1.235 5.014 0 2.898-1.25 4.986-1.25 2.073-3.622 3.182-2.358 1.108-5.71 1.108h-7.685v-4.944h6.691q1.76 0 2.926-.483 1.164-.483 1.733-1.448.582-.966.582-2.401 0-1.449-.582-2.443-.568-.995-1.747-1.506-1.165-.525-2.941-.525h-4.147V113zm15.71-13.239 7.23 13.239h-6.789l-7.074-13.239zm20.018 13.665q-3.366 0-5.795-1.364-2.415-1.377-3.722-3.892-1.307-2.528-1.307-5.98 0-3.366 1.307-5.909t3.679-3.963q2.386-1.42 5.597-1.42 2.159 0 4.019.696a8.9 8.9 0 0 1 3.267 2.06q1.407 1.377 2.188 3.465.781 2.074.781 4.858v1.662h-18.423v-3.75h12.727q0-1.307-.568-2.315a4.07 4.07 0 0 0-1.577-1.577q-.994-.582-2.315-.582-1.378 0-2.443.639-1.051.625-1.648 1.69-.596 1.051-.611 2.344v3.565q0 1.62.597 2.799.61 1.179 1.719 1.818 1.107.639 2.627.639 1.009 0 1.847-.284a3.8 3.8 0 0 0 1.435-.852q.596-.569.909-1.392l5.596.369a7.64 7.64 0 0 1-1.747 3.523q-1.307 1.492-3.38 2.329-2.06.825-4.759.824m28.381 7.756v-11.676h-.185q-.427.909-1.207 1.804-.767.88-2.003 1.463-1.222.582-2.983.582-2.486 0-4.503-1.278-2.003-1.293-3.182-3.793-1.164-2.514-1.165-6.165 0-3.75 1.208-6.236 1.207-2.499 3.21-3.735a8.23 8.23 0 0 1 4.418-1.25q1.831 0 3.054.625 1.235.61 1.988 1.534.768.91 1.165 1.79h.256v-3.665h5.966v30zm-4.461-12.642q1.464 0 2.472-.796 1.023-.809 1.563-2.258.554-1.45.554-3.395t-.54-3.38-1.563-2.217q-1.022-.78-2.486-.78-1.491 0-2.514.809-1.023.81-1.548 2.244t-.526 3.324q0 1.904.526 3.366.54 1.45 1.548 2.273 1.023.81 2.514.81m29.347-4.83V91.182h6.051V113h-5.809v-3.963h-.228a6.44 6.44 0 0 1-2.457 3.082q-1.705 1.165-4.162 1.165-2.187 0-3.85-.994-1.661-.994-2.599-2.827-.923-1.833-.937-4.389V91.182h6.051v12.812q.014 1.932 1.037 3.054t2.741 1.122a4.35 4.35 0 0 0 2.046-.497q.95-.512 1.534-1.505.596-.994.582-2.458m20.835 9.716q-3.368 0-5.796-1.364-2.415-1.377-3.721-3.892-1.307-2.528-1.307-5.98 0-3.366 1.307-5.909t3.678-3.963q2.387-1.42 5.597-1.42 2.159 0 4.02.696a8.9 8.9 0 0 1 3.267 2.06q1.407 1.377 2.188 3.465.78 2.074.781 4.858v1.662h-18.424v-3.75h12.728q0-1.307-.568-2.315a4.07 4.07 0 0 0-1.577-1.577q-.995-.582-2.315-.582-1.378 0-2.444.639-1.05.625-1.647 1.69-.597 1.051-.611 2.344v3.565q0 1.62.596 2.799a4.38 4.38 0 0 0 1.719 1.818q1.109.639 2.628.639 1.008 0 1.847-.284a3.8 3.8 0 0 0 1.434-.852q.597-.569.909-1.392l5.597.369a7.65 7.65 0 0 1-1.747 3.523q-1.307 1.492-3.381 2.329-2.06.825-4.758.824m32.116-16.023-5.54.341a2.85 2.85 0 0 0-.611-1.278 3.24 3.24 0 0 0-1.235-.923q-.754-.356-1.804-.356-1.407 0-2.372.597-.966.583-.966 1.563 0 .78.625 1.32.624.54 2.145.867l3.948.796q3.183.653 4.745 2.102t1.562 3.807q0 2.145-1.264 3.764-1.25 1.619-3.438 2.528-2.173.895-5.014.895-4.332 0-6.903-1.804-2.558-1.818-2.997-4.943l5.951-.313q.27 1.322 1.307 2.018 1.038.681 2.656.681 1.591 0 2.557-.61.98-.625.995-1.606-.015-.824-.696-1.349-.682-.54-2.103-.824l-3.778-.753q-3.196-.639-4.759-2.216-1.548-1.576-1.548-4.02 0-2.101 1.136-3.622 1.151-1.52 3.225-2.343 2.088-.825 4.886-.824 4.134 0 6.506 1.747 2.386 1.747 2.784 4.758m15.913-6.221v4.545h-13.14v-4.545zm-10.157-5.228h6.052v20.341q0 .839.255 1.307.256.455.71.639.47.186 1.08.185.426 0 .852-.071.426-.085.654-.128l.951 4.503q-.455.142-1.278.327-.824.198-2.003.241-2.187.085-3.835-.582-1.634-.667-2.543-2.074t-.895-3.551zm31.978 11.45-5.539.34a2.9 2.9 0 0 0-.611-1.278 3.25 3.25 0 0 0-1.236-.923q-.753-.356-1.804-.356-1.406 0-2.372.597-.966.583-.966 1.563 0 .78.625 1.32t2.145.867l3.949.796q3.181.653 4.744 2.102t1.563 3.807q0 2.145-1.265 3.764-1.25 1.619-3.437 2.528-2.173.895-5.014.895-4.333 0-6.904-1.804-2.556-1.818-2.997-4.943l5.952-.313q.27 1.322 1.307 2.018 1.036.681 2.656.681 1.59 0 2.557-.61.98-.625.994-1.606-.014-.824-.696-1.349-.682-.54-2.102-.824l-3.779-.753q-3.196-.639-4.758-2.216-1.548-1.576-1.549-4.02 0-2.101 1.137-3.622 1.15-1.52 3.224-2.343 2.088-.825 4.887-.824 4.133 0 6.505 1.747 2.387 1.747 2.784 4.758"/><mask id="b" fill="#fff"><path d="M834.522 521.904c91.22 203.384 1.001 441.89-201.508 532.716-202.51 90.83-440.625-.41-531.845-203.798-91.22-203.384-1.002-441.89 201.508-532.718 202.509-90.828 440.625.416 531.845 203.8M217.144 798.805c62.369 139.056 225.17 201.445 363.629 139.341 138.458-62.1 200.141-225.169 137.773-364.225S493.376 372.48 354.918 434.58c-138.459 62.1-200.142 225.169-137.774 364.225"/></mask><path stroke="#fff" stroke-width="4" d="M834.522 521.904c91.22 203.384 1.001 441.89-201.508 532.716-202.51 90.83-440.625-.41-531.845-203.798-91.22-203.384-1.002-441.89 201.508-532.718 202.509-90.828 440.625.416 531.845 203.8ZM217.144 798.805c62.369 139.056 225.17 201.445 363.629 139.341 138.458-62.1 200.141-225.169 137.773-364.225S493.376 372.48 354.918 434.58c-138.459 62.1-200.142 225.169-137.774 364.225Z" mask="url(#b)"/><path stroke="#fff" stroke-width="2" d="m71.082 627.737 123.501 18.619M164.526 421.573l93.826 82.438M355.573 299.982l34.356 120.079M582.03 300.993l-36.023 119.59M771.984 424.28l-94.962 81.126M865.119 630.702l-123.749 16.9M831.858 854.706l-113.238-52.69M683.238 1026.215l-66.77-105.55M465.182 1087.937l.9-124.894M248.202 1023.107l68.286-104.577M101.78 850.778l113.987-51.053"/></g><defs><clipPath id="a"><path fill="#fff" d="M0 0h935v1165H0z"/></clipPath></defs></svg>