<svg xmlns="http://www.w3.org/2000/svg" width="1322" height="325" fill="none" viewBox="0 0 1322 325"><path fill="#002647" d="M362 96h119v120H362z"/><rect width="1319" height="120" x="2" y="96" stroke="#dbdbdb" stroke-width="2" rx="26"/><path stroke="#dbdbdb" stroke-width="2" d="M242 95v122M122 95v122M362 95v122M482 95v122M603 95v122M723 95v122M843 95v122M963 95v122M1083 95v122M1203 95v122"/><path fill="#fff" d="M172.61 140.909V170h-3.523v-25.398h-.17l-7.103 4.716v-3.579l7.273-4.83zm7.684 23.125v-2.898l12.784-20.227h2.103v4.489h-1.421l-9.659 15.284v.227h17.216v3.125zM193.988 170v-29.091h3.352V170zM60.5 170.398q-3.21 0-5.469-1.747-2.258-1.762-3.451-5.1-1.194-3.353-1.194-8.096 0-4.716 1.194-8.054 1.208-3.353 3.465-5.114 2.274-1.776 5.455-1.776t5.44 1.776q2.273 1.761 3.466 5.114 1.208 3.338 1.208 8.054 0 4.743-1.194 8.096-1.193 3.338-3.451 5.1-2.259 1.746-5.469 1.747m0-3.125q3.182 0 4.943-3.068 1.761-3.07 1.761-8.75 0-3.779-.81-6.435-.795-2.656-2.3-4.048-1.492-1.392-3.594-1.392-3.153 0-4.929 3.11-1.776 3.097-1.776 8.765 0 3.778.796 6.42.795 2.642 2.287 4.02 1.506 1.377 3.622 1.378"/><path fill="#717171" d="M25.24 271v-26.909h16.136v2.891H28.5v9.092h11.667v2.89H28.5V271zm21.296 0v-20.182h3.101V271zm1.577-23.545a2.2 2.2 0 0 1-1.564-.618 1.99 1.99 0 0 1-.643-1.485q0-.867.643-1.484.658-.618 1.564-.618t1.55.618q.657.617.657 1.484t-.657 1.485q-.644.618-1.55.618M55.317 271v-20.182h2.995v3.048h.21q.552-1.497 1.998-2.43t3.258-.933q.342 0 .854.013.513.013.775.039v3.154a9 9 0 0 0-.722-.118 7 7 0 0 0-1.17-.092q-1.471 0-2.627.617a4.66 4.66 0 0 0-1.814 1.682q-.657 1.064-.657 2.431V271zm28.062-15.662-2.786.788a5.2 5.2 0 0 0-.775-1.353q-.499-.67-1.367-1.104-.867-.433-2.22-.433-1.852 0-3.088.854-1.221.84-1.222 2.142 0 1.155.841 1.826.84.67 2.628 1.117l2.996.736q2.706.656 4.034 2.01 1.326 1.34 1.326 3.455 0 1.735-.998 3.101-.985 1.367-2.76 2.155-1.773.788-4.125.788-3.087 0-5.111-1.34t-2.562-3.915l2.943-.736q.42 1.63 1.59 2.444 1.182.815 3.088.815 2.167 0 3.442-.92 1.287-.933 1.288-2.234 0-1.052-.736-1.761-.735-.721-2.26-1.077l-3.364-.788q-2.772-.657-4.073-2.037-1.287-1.392-1.288-3.482 0-1.708.96-3.022.972-1.313 2.64-2.063 1.683-.749 3.81-.749 2.997 0 4.705 1.314 1.72 1.314 2.444 3.469m13.812-4.52v2.628H86.732v-2.628zm-7.41-4.835h3.1v19.236q0 1.314.382 1.971.393.643.998.867.618.21 1.301.21.513 0 .84-.053l.526-.105.631 2.786a6 6 0 0 1-.88.236q-.565.132-1.432.132a6.25 6.25 0 0 1-2.576-.565 5.1 5.1 0 0 1-2.076-1.721q-.814-1.157-.814-2.917zm-76.02 45.999v-2.891h20.181v2.891h-8.461V316h-3.259v-24.018zM36.455 316v-20.182h2.996v3.048h.21q.552-1.497 1.997-2.43t3.259-.933q.341 0 .854.013t.775.039v3.154a9 9 0 0 0-.722-.118 7 7 0 0 0-1.17-.092q-1.47 0-2.628.617a4.66 4.66 0 0 0-1.813 1.682q-.657 1.064-.657 2.431V316zm19.706.473q-1.92 0-3.482-.723-1.564-.735-2.483-2.115-.92-1.393-.92-3.364 0-1.734.683-2.811a4.8 4.8 0 0 1 1.826-1.709 9.6 9.6 0 0 1 2.523-.919 31 31 0 0 1 2.799-.5q1.839-.236 2.982-.354 1.157-.132 1.682-.434.54-.302.539-1.051v-.105q0-1.945-1.064-3.022-1.051-1.078-3.193-1.078-2.22 0-3.482.973-1.261.972-1.774 2.076l-2.943-1.051q.789-1.84 2.102-2.865a7.9 7.9 0 0 1 2.89-1.445 12 12 0 0 1 3.102-.421q.972 0 2.233.237a7.2 7.2 0 0 1 2.457.933q1.196.71 1.984 2.141.789 1.433.789 3.837V316H62.31v-2.733h-.158q-.315.657-1.05 1.406t-1.959 1.274q-1.222.526-2.982.526m.473-2.785q1.84 0 3.1-.723 1.275-.723 1.919-1.866a4.75 4.75 0 0 0 .657-2.404v-2.838q-.197.236-.867.433-.657.184-1.524.329a72 72 0 0 1-1.67.236q-.8.092-1.3.158-1.21.158-2.26.512-1.037.342-1.682 1.038-.63.684-.63 1.866 0 1.616 1.195 2.444 1.21.815 3.062.815m22.635 2.732q-2.838 0-4.887-1.34-2.05-1.34-3.154-3.692-1.103-2.352-1.103-5.374 0-3.074 1.13-5.426 1.141-2.366 3.18-3.692 2.049-1.341 4.782-1.341 2.129 0 3.836.789 1.709.788 2.8 2.207 1.09 1.42 1.352 3.311h-3.1q-.356-1.38-1.577-2.444-1.209-1.077-3.259-1.077-1.813 0-3.18.946-1.353.933-2.115 2.641-.749 1.695-.749 3.981 0 2.339.736 4.073.75 1.734 2.102 2.694 1.367.959 3.206.959 1.21 0 2.195-.421a4.5 4.5 0 0 0 1.668-1.208 4.64 4.64 0 0 0 .973-1.892h3.1a7.2 7.2 0 0 1-1.3 3.219q-1.026 1.419-2.72 2.26-1.682.827-3.916.827m15.36-7.778-.053-3.837h.631l8.83-8.987h3.836l-9.407 9.513h-.263zM91.74 316v-26.909h3.1V316zm12.823 0-7.883-9.986 2.207-2.155L108.504 316zM377.382 271v-26.909h3.259v11.983h14.348v-11.983h3.258V271h-3.258v-12.036h-14.348V271zm35.43.42q-2.917 0-5.032-1.287-2.103-1.3-3.246-3.627-1.13-2.339-1.13-5.439t1.13-5.466q1.143-2.379 3.18-3.705 2.05-1.341 4.783-1.341 1.576 0 3.114.526 1.536.525 2.798 1.708 1.261 1.17 2.011 3.101.748 1.932.748 4.756v1.314h-15.556v-2.68h12.403q0-1.708-.683-3.048a5.15 5.15 0 0 0-1.919-2.116q-1.235-.775-2.916-.775-1.853 0-3.206.92a6.04 6.04 0 0 0-2.063 2.365 6.94 6.94 0 0 0-.723 3.127v1.787q0 2.286.788 3.876.802 1.576 2.221 2.404 1.419.815 3.298.815 1.222 0 2.207-.342a4.7 4.7 0 0 0 1.722-1.051 4.8 4.8 0 0 0 1.116-1.76l2.996.84a6.6 6.6 0 0 1-1.59 2.681q-1.116 1.143-2.759 1.787-1.643.63-3.692.63m19.012.053q-1.918 0-3.482-.723-1.563-.735-2.483-2.115-.92-1.393-.92-3.364 0-1.734.684-2.811a4.8 4.8 0 0 1 1.826-1.709 9.6 9.6 0 0 1 2.523-.919 31 31 0 0 1 2.798-.5 125 125 0 0 1 2.983-.354q1.156-.132 1.682-.434.538-.302.538-1.051v-.105q0-1.945-1.064-3.022-1.051-1.078-3.193-1.078-2.22 0-3.481.973-1.262.972-1.774 2.076l-2.943-1.051q.788-1.84 2.102-2.865a7.9 7.9 0 0 1 2.89-1.445 12 12 0 0 1 3.101-.421q.972 0 2.234.237 1.275.224 2.457.933 1.195.71 1.984 2.141.788 1.433.788 3.837V271h-3.101v-2.733h-.157q-.315.657-1.051 1.406t-1.958 1.274q-1.222.526-2.983.526m.473-2.785q1.84 0 3.101-.723 1.274-.723 1.919-1.866a4.75 4.75 0 0 0 .656-2.404v-2.838q-.196.236-.867.433-.657.184-1.524.329-.853.13-1.669.236-.8.092-1.3.158-1.209.158-2.26.512-1.038.342-1.682 1.038-.631.684-.631 1.866 0 1.616 1.196 2.444 1.209.815 3.061.815m22.058 2.732q-2.523 0-4.454-1.274-1.932-1.287-3.022-3.626-1.09-2.352-1.091-5.558 0-3.18 1.091-5.519t3.035-3.613 4.493-1.275q1.971 0 3.114.657 1.157.644 1.761 1.472.618.815.959 1.34h.263v-9.933h3.101V271h-2.996v-3.101h-.368q-.342.552-.972 1.393-.632.828-1.8 1.485-1.17.643-3.114.643m.42-2.785q1.866 0 3.154-.972 1.288-.986 1.957-2.72.67-1.748.671-4.034 0-2.26-.657-3.955-.658-1.708-1.945-2.654-1.287-.959-3.18-.959-1.971 0-3.285 1.012-1.3.998-1.957 2.719-.644 1.709-.644 3.837 0 2.155.657 3.916.67 1.747 1.971 2.785 1.314 1.025 3.258 1.025M354.058 316v-26.909h9.093q3.166 0 5.177 1.143 2.023 1.13 2.995 3.061t.973 4.31q0 2.379-.973 4.323-.959 1.944-2.969 3.101-2.01 1.143-5.151 1.143h-6.517v-2.891h6.412q2.168 0 3.482-.749 1.314-.748 1.905-2.023.605-1.288.605-2.904t-.605-2.891q-.59-1.274-1.918-1.997-1.328-.735-3.521-.735h-5.729V316zm31.048.42q-2.733 0-4.796-1.3-2.05-1.302-3.206-3.64-1.143-2.339-1.143-5.466 0-3.153 1.143-5.505 1.157-2.352 3.206-3.653 2.063-1.3 4.796-1.301t4.783 1.301q2.063 1.3 3.206 3.653 1.156 2.352 1.156 5.505 0 3.127-1.156 5.466-1.143 2.338-3.206 3.64-2.05 1.3-4.783 1.3m0-2.785q2.076 0 3.416-1.064t1.984-2.799q.644-1.734.644-3.758t-.644-3.771q-.643-1.747-1.984-2.825-1.34-1.077-3.416-1.077t-3.416 1.077-1.984 2.825-.644 3.771.644 3.758 1.984 2.799 3.416 1.064m28.174-13.297-2.786.788a5.2 5.2 0 0 0-.775-1.353q-.5-.67-1.366-1.104-.867-.433-2.221-.433-1.853 0-3.087.854-1.222.84-1.222 2.142 0 1.155.841 1.826.84.67 2.627 1.117l2.996.736q2.707.656 4.034 2.01 1.327 1.34 1.327 3.455 0 1.735-.999 3.101-.985 1.367-2.759 2.155t-4.126.788q-3.087 0-5.111-1.34t-2.562-3.915l2.943-.736q.421 1.63 1.59 2.444 1.183.815 3.088.815 2.168 0 3.442-.92 1.288-.933 1.288-2.234 0-1.052-.736-1.761-.736-.721-2.26-1.077l-3.363-.788q-2.773-.657-4.074-2.037-1.287-1.392-1.287-3.482 0-1.708.959-3.022.972-1.313 2.641-2.063 1.682-.749 3.81-.749 2.995 0 4.704 1.314 1.722 1.315 2.444 3.469M418.316 316v-20.182h3.1V316zm1.576-23.545a2.2 2.2 0 0 1-1.563-.618 1.99 1.99 0 0 1-.644-1.485q0-.867.644-1.484a2.2 2.2 0 0 1 1.563-.618q.907 0 1.551.618.657.617.657 1.484t-.657 1.485a2.16 2.16 0 0 1-1.551.618m15.981 3.363v2.628h-10.459v-2.628zm-7.411-4.835h3.101v19.236q0 1.314.381 1.971.395.643.999.867.618.21 1.301.21.512 0 .841-.053l.525-.105.631 2.786q-.315.119-.881.236-.564.132-1.432.132a6.25 6.25 0 0 1-2.575-.565 5.1 5.1 0 0 1-2.076-1.721q-.815-1.157-.815-2.917zM440.537 316v-20.182h3.101V316zm1.577-23.545a2.2 2.2 0 0 1-1.564-.618 1.99 1.99 0 0 1-.643-1.485q0-.867.643-1.484.657-.618 1.564-.618.906 0 1.55.618.657.617.657 1.484t-.657 1.485a2.16 2.16 0 0 1-1.55.618m15.402 23.965q-2.733 0-4.795-1.3-2.05-1.302-3.206-3.64-1.143-2.339-1.143-5.466 0-3.153 1.143-5.505 1.155-2.352 3.206-3.653 2.062-1.3 4.795-1.301t4.783 1.301q2.063 1.3 3.206 3.653 1.156 2.352 1.156 5.505 0 3.127-1.156 5.466-1.143 2.338-3.206 3.64-2.05 1.3-4.783 1.3m0-2.785q2.076 0 3.417-1.064t1.984-2.799q.643-1.734.643-3.758t-.643-3.771q-.645-1.747-1.984-2.825-1.341-1.077-3.417-1.077t-3.416 1.077-1.984 2.825-.644 3.771.644 3.758 1.984 2.799 3.416 1.064m16.98-9.776V316h-3.101v-20.182h2.995v3.154h.263a5.77 5.77 0 0 1 2.155-2.471q1.445-.946 3.732-.946 2.05 0 3.587.841 1.537.828 2.391 2.523.854 1.682.854 4.257V316h-3.101v-12.614q0-2.377-1.235-3.705-1.234-1.34-3.39-1.34-1.484 0-2.654.644-1.157.643-1.826 1.879-.67 1.235-.67 2.995M1217.54 271v-26.909h3.26v24.018h12.51V271zm26.33.473q-1.92 0-3.48-.723c-1.04-.49-1.87-1.195-2.48-2.115-.62-.929-.92-2.05-.92-3.364 0-1.156.23-2.093.68-2.811a4.9 4.9 0 0 1 1.83-1.709q1.14-.617 2.52-.919c.93-.211 1.86-.377 2.8-.5 1.23-.157 2.22-.276 2.98-.354q1.155-.132 1.68-.434.54-.302.54-1.051v-.105c0-1.297-.35-2.304-1.06-3.022-.7-.719-1.77-1.078-3.2-1.078q-2.22 0-3.48.973-1.26.972-1.77 2.076l-2.94-1.051q.78-1.84 2.1-2.865a7.85 7.85 0 0 1 2.89-1.445 12 12 0 0 1 3.1-.421c.65 0 1.39.079 2.23.237q1.275.224 2.46.933 1.2.71 1.98 2.141c.53.955.79 2.234.79 3.837V271h-3.1v-2.733h-.16q-.315.657-1.05 1.406t-1.95 1.274c-.82.351-1.81.526-2.99.526m.48-2.785c1.22 0 2.26-.241 3.1-.723.85-.482 1.49-1.104 1.91-1.866q.66-1.143.66-2.404v-2.838q-.195.236-.87.433c-.43.123-.94.232-1.52.329-.57.087-1.13.166-1.67.236-.53.061-.97.114-1.3.158-.8.105-1.56.276-2.26.512q-1.035.342-1.68 1.038-.63.684-.63 1.866c0 1.077.4 1.892 1.19 2.444.81.543 1.83.815 3.07.815m28.73-13.35-2.79.788a5 5 0 0 0-.77-1.353c-.34-.447-.79-.815-1.37-1.104q-.87-.433-2.22-.433-1.845 0-3.09.854c-.81.56-1.22 1.274-1.22 2.142q0 1.155.84 1.826c.56.447 1.44.819 2.63 1.117l2.99.736c1.81.437 3.15 1.108 4.04 2.01.88.893 1.33 2.045 1.33 3.455a5.16 5.16 0 0 1-1 3.101q-.99 1.367-2.76 2.155c-1.18.526-2.56.788-4.13.788-2.06 0-3.76-.446-5.11-1.34-1.35-.893-2.2-2.198-2.56-3.915l2.94-.736q.42 1.63 1.59 2.444 1.185.815 3.09.815c1.44 0 2.59-.307 3.44-.92q1.29-.933 1.29-2.234c0-.701-.25-1.288-.74-1.761-.49-.481-1.24-.84-2.26-1.077l-3.36-.788c-1.85-.438-3.21-1.117-4.07-2.037q-1.29-1.392-1.29-3.482 0-1.708.96-3.022.975-1.313 2.64-2.063 1.68-.749 3.81-.749c2 0 3.57.438 4.7 1.314 1.15.876 1.97 2.033 2.45 3.469m13.81-4.52v2.628h-10.46v-2.628zm-7.41-4.835h3.1v19.236c0 .876.13 1.533.38 1.971.26.429.6.718 1 .867.41.14.85.21 1.3.21q.51 0 .84-.053c.22-.043.4-.078.53-.105l.63 2.786c-.21.079-.51.158-.88.236-.38.088-.86.132-1.43.132q-1.32 0-2.58-.565c-.83-.377-1.52-.951-2.08-1.721q-.81-1.157-.81-2.917zm-74.72 45.999v-2.891h20.18v2.891h-8.46V316h-3.26v-24.018zm22.7 24.018v-20.182h2.99v3.048h.21c.37-.998 1.03-1.808 2-2.43.96-.622 2.05-.933 3.26-.933.22 0 .51.004.85.013q.51.013.78.039v3.154a10 10 0 0 0-.73-.118 7 7 0 0 0-1.17-.092c-.98 0-1.85.205-2.62.617-.77.403-1.37.964-1.82 1.682-.43.709-.65 1.52-.65 2.431V316zm19.7.473q-1.92 0-3.48-.723c-1.04-.49-1.87-1.195-2.48-2.115-.62-.929-.92-2.05-.92-3.364 0-1.156.22-2.093.68-2.811a4.74 4.74 0 0 1 1.83-1.709q1.14-.617 2.52-.919c.93-.211 1.86-.377 2.8-.5 1.22-.157 2.22-.276 2.98-.354q1.155-.132 1.68-.434.54-.302.54-1.051v-.105c0-1.297-.35-2.304-1.06-3.022-.71-.719-1.77-1.078-3.2-1.078q-2.22 0-3.48.973-1.26.972-1.77 2.076l-2.95-1.051c.53-1.227 1.23-2.182 2.11-2.865a7.8 7.8 0 0 1 2.89-1.445 12 12 0 0 1 3.1-.421c.65 0 1.39.079 2.23.237q1.275.224 2.46.933 1.2.71 1.98 2.141c.53.955.79 2.234.79 3.837V316h-3.1v-2.733h-.16q-.315.657-1.05 1.406c-.49.499-1.14.924-1.96 1.274-.81.351-1.81.526-2.98.526m.47-2.785c1.23 0 2.26-.241 3.1-.723q1.275-.723 1.92-1.866.66-1.143.66-2.404v-2.838q-.195.236-.87.433c-.44.123-.94.232-1.52.329-.57.087-1.13.166-1.67.236-.53.061-.97.114-1.3.158-.81.105-1.56.276-2.26.512q-1.035.342-1.68 1.038-.63.684-.63 1.866c0 1.077.4 1.892 1.19 2.444q1.215.815 3.06.815m22.64 2.732q-2.835 0-4.89-1.34c-1.36-.893-2.42-2.124-3.15-3.692q-1.11-2.352-1.11-5.374c0-2.05.38-3.858 1.13-5.426q1.155-2.366 3.18-3.692c1.37-.894 2.96-1.341 4.79-1.341 1.42 0 2.69.263 3.83.789 1.14.525 2.08 1.261 2.8 2.207.73.946 1.18 2.05 1.36 3.311h-3.11c-.23-.92-.76-1.734-1.57-2.444-.81-.718-1.89-1.077-3.26-1.077q-1.815 0-3.18.946c-.9.622-1.61 1.502-2.12 2.641-.5 1.13-.74 2.457-.74 3.981 0 1.559.24 2.917.73 4.073q.75 1.734 2.1 2.694 1.365.959 3.21.959 1.215 0 2.19-.421c.66-.28 1.22-.683 1.67-1.208.46-.526.78-1.157.97-1.892h3.11a7.16 7.16 0 0 1-1.31 3.219c-.68.946-1.59 1.699-2.72 2.26-1.12.552-2.42.827-3.91.827m15.36-7.778-.05-3.837h.63l8.83-8.987h3.83l-9.4 9.513h-.27zm-2.89 7.358v-26.909h3.1V316zm12.82 0-7.88-9.986 2.21-2.155L1299.5 316z"/><path fill="#fff" d="M289.181 170.398q-2.813 0-5.014-.966-2.188-.966-3.481-2.685-1.278-1.733-1.392-4.02h3.58q.114 1.407.966 2.429.852 1.009 2.23 1.563t3.054.554q1.875 0 3.324-.654 1.448-.653 2.273-1.818.823-1.164.823-2.699 0-1.605-.795-2.826-.795-1.236-2.33-1.932-1.533-.696-3.75-.696h-2.329v-3.125h2.329q1.734 0 3.04-.625 1.321-.625 2.06-1.762.753-1.136.753-2.67 0-1.478-.654-2.571-.653-1.093-1.846-1.705-1.179-.61-2.784-.61a7.3 7.3 0 0 0-2.841.554q-1.322.539-2.159 1.576-.838 1.023-.91 2.472h-3.409q.085-2.287 1.378-4.006 1.293-1.733 3.381-2.699 2.102-.966 4.616-.966 2.7 0 4.631 1.094 1.932 1.08 2.969 2.855a7.5 7.5 0 0 1 1.037 3.835q0 2.458-1.293 4.191-1.278 1.733-3.48 2.4v.228q2.756.454 4.304 2.343 1.548 1.876 1.548 4.645 0 2.373-1.292 4.262-1.279 1.874-3.495 2.954t-5.042 1.08m16.548-.398 13.011-25.739v-.227h-15v-3.125h18.637v3.296L309.422 170zM407.7 170.398q-2.5 0-4.503-.995-2.002-.994-3.21-2.727-1.207-1.732-1.321-3.949h3.409q.199 1.976 1.79 3.267 1.605 1.28 3.835 1.279 1.79 0 3.182-.838a5.9 5.9 0 0 0 2.201-2.301q.81-1.478.81-3.339 0-1.903-.838-3.394a6.15 6.15 0 0 0-2.273-2.373q-1.449-.866-3.309-.88a9.1 9.1 0 0 0-2.742.412q-1.406.411-2.315 1.065l-3.296-.398 1.762-14.318h15.113v3.125h-12.159l-1.022 8.58h.17q.896-.711 2.244-1.179a8.5 8.5 0 0 1 2.813-.469q2.67 0 4.758 1.278a8.93 8.93 0 0 1 3.296 3.466q1.207 2.202 1.207 5.029 0 2.784-1.25 4.971a9.14 9.14 0 0 1-3.409 3.438q-2.173 1.25-4.943 1.25m25.075 0q-2.813 0-5.015-.966-2.187-.966-3.48-2.685-1.278-1.733-1.392-4.02h3.58q.112 1.407.966 2.429.852 1.009 2.23 1.563 1.377.554 3.054.554 1.875 0 3.324-.654 1.448-.653 2.272-1.818.825-1.164.824-2.699 0-1.605-.795-2.826-.796-1.236-2.33-1.932t-3.75-.696h-2.329v-3.125h2.329q1.733 0 3.04-.625 1.321-.625 2.06-1.762.752-1.136.752-2.67 0-1.478-.653-2.571-.654-1.093-1.847-1.705-1.179-.61-2.784-.61-1.505 0-2.841.554-1.32.539-2.159 1.576-.837 1.023-.909 2.472h-3.409q.085-2.287 1.378-4.006 1.293-1.733 3.381-2.699 2.102-.966 4.616-.966 2.699 0 4.631 1.094 1.931 1.08 2.969 2.855a7.5 7.5 0 0 1 1.037 3.835q0 2.458-1.293 4.191-1.278 1.733-3.48 2.4v.228q2.756.454 4.304 2.343 1.548 1.876 1.548 4.645 0 2.373-1.293 4.262-1.278 1.874-3.494 2.954t-5.042 1.08M528.522 170.398a10.9 10.9 0 0 1-3.58-.682q-1.79-.654-3.267-2.202-1.476-1.562-2.372-4.219-.894-2.67-.895-6.704 0-3.864.725-6.847.725-2.997 2.102-5.042 1.378-2.06 3.324-3.125 1.96-1.066 4.418-1.066 2.442 0 4.346.98a8.3 8.3 0 0 1 3.125 2.699q1.207 1.733 1.563 3.992h-3.466q-.483-1.96-1.875-3.253t-3.693-1.293q-3.381 0-5.327 2.941-1.932 2.94-1.946 8.253h.227a8.54 8.54 0 0 1 4.332-3.395 8.5 8.5 0 0 1 2.827-.469q2.5 0 4.574 1.25 2.074 1.236 3.324 3.423 1.25 2.173 1.25 4.986 0 2.699-1.207 4.943a9.2 9.2 0 0 1-3.395 3.551q-2.174 1.308-5.114 1.279m0-3.125q1.79 0 3.21-.895a6.4 6.4 0 0 0 2.259-2.401q.837-1.506.838-3.352 0-1.804-.81-3.281a6.16 6.16 0 0 0-2.202-2.372q-1.392-.881-3.181-.881-1.35 0-2.515.54a6.5 6.5 0 0 0-2.045 1.449 7 7 0 0 0-1.364 2.116 6.3 6.3 0 0 0-.497 2.486q0 1.733.81 3.238a6.66 6.66 0 0 0 2.244 2.429q1.435.924 3.253.924m24.393 3.125q-2.5 0-4.503-.995-2.003-.994-3.21-2.727-1.208-1.732-1.321-3.949h3.409q.198 1.976 1.79 3.267 1.605 1.28 3.835 1.279 1.79 0 3.182-.838a5.9 5.9 0 0 0 2.201-2.301q.81-1.478.81-3.339 0-1.903-.838-3.394a6.15 6.15 0 0 0-2.273-2.373q-1.449-.866-3.309-.88a9 9 0 0 0-2.742.412q-1.406.411-2.315 1.065l-3.296-.398 1.762-14.318h15.113v3.125h-12.159l-1.023 8.58h.171q.895-.711 2.244-1.179a8.5 8.5 0 0 1 2.813-.469q2.67 0 4.758 1.278a8.93 8.93 0 0 1 3.296 3.466q1.207 2.202 1.207 5.029 0 2.784-1.25 4.971a9.14 9.14 0 0 1-3.409 3.438q-2.174 1.25-4.943 1.25M466.25 32.455q0 4.758-1.804 8.096-1.79 3.337-4.887 5.1-3.082 1.746-6.932 1.747-3.877 0-6.96-1.762-3.083-1.761-4.872-5.1-1.79-3.337-1.79-8.081 0-4.76 1.79-8.097t4.872-5.085q3.083-1.761 6.96-1.762 3.85 0 6.932 1.762 3.097 1.747 4.887 5.085 1.803 3.338 1.804 8.097m-6.236 0q0-3.082-.923-5.2-.91-2.115-2.571-3.21-1.662-1.093-3.893-1.093t-3.892 1.093-2.585 3.21q-.909 2.118-.909 5.2t.909 5.198q.923 2.117 2.585 3.21 1.663 1.094 3.892 1.094t3.893-1.093q1.66-1.095 2.571-3.21.923-2.118.923-5.2M470.692 47V25.182h5.867v3.807h.227q.596-2.032 2.003-3.068 1.406-1.052 3.238-1.052.455 0 .98.057.526.057.924.156v5.37a8 8 0 0 0-1.179-.228q-.753-.099-1.378-.099-1.335 0-2.386.582a4.3 4.3 0 0 0-1.648 1.591q-.597 1.023-.597 2.358V47zm23.391.355q-2.486 0-4.502-1.278-2.003-1.293-3.182-3.793-1.165-2.514-1.165-6.165 0-3.75 1.207-6.235 1.207-2.5 3.211-3.736a8.2 8.2 0 0 1 4.417-1.25q1.833 0 3.054.625 1.236.61 1.989 1.534.766.91 1.165 1.79h.184V17.909h6.037V47h-5.966v-3.494h-.255q-.426.909-1.208 1.804-.767.88-2.003 1.463-1.22.582-2.983.582m1.918-4.815q1.462 0 2.472-.796 1.022-.81 1.562-2.258.554-1.45.554-3.395t-.54-3.38q-.539-1.436-1.562-2.217-1.023-.78-2.486-.78-1.491 0-2.514.809-1.023.81-1.548 2.244t-.526 3.324q0 1.904.526 3.366.54 1.45 1.548 2.273 1.023.81 2.514.81m25.416 4.886q-3.367 0-5.796-1.364-2.415-1.377-3.721-3.892-1.308-2.527-1.307-5.98 0-3.366 1.307-5.909t3.678-3.963q2.387-1.42 5.597-1.42 2.159 0 4.02.696a8.9 8.9 0 0 1 3.267 2.06q1.407 1.377 2.188 3.465.78 2.074.781 4.858v1.662h-18.424v-3.75h12.728q0-1.307-.568-2.315a4.07 4.07 0 0 0-1.577-1.577q-.995-.582-2.315-.582-1.378 0-2.444.639-1.05.625-1.647 1.69-.597 1.051-.611 2.344v3.565q0 1.62.596 2.799a4.38 4.38 0 0 0 1.719 1.818q1.109.64 2.628.64 1.008 0 1.847-.285a3.8 3.8 0 0 0 1.434-.852q.597-.57.909-1.392l5.597.369a7.65 7.65 0 0 1-1.747 3.523q-1.307 1.49-3.381 2.33-2.06.823-4.758.823M535.38 47V25.182h5.866v3.807h.227q.597-2.032 2.003-3.068 1.407-1.052 3.239-1.052.455 0 .98.057t.923.156v5.37a8 8 0 0 0-1.179-.228q-.753-.099-1.378-.099-1.335 0-2.386.582-1.036.57-1.648 1.591-.596 1.023-.596 2.358V47zm25.294.426q-3.366 0-5.795-1.364-2.415-1.377-3.722-3.892-1.307-2.527-1.307-5.98 0-3.366 1.307-5.909 1.308-2.542 3.679-3.963 2.387-1.42 5.597-1.42 2.159 0 4.02.696a8.9 8.9 0 0 1 3.267 2.06q1.406 1.377 2.187 3.465.782 2.074.782 4.858v1.662h-18.424v-3.75h12.728q0-1.307-.569-2.315a4.06 4.06 0 0 0-1.576-1.577q-.995-.582-2.316-.582-1.377 0-2.443.639-1.051.625-1.648 1.69a4.8 4.8 0 0 0-.61 2.344v3.565q0 1.62.596 2.799.61 1.179 1.719 1.818 1.109.64 2.628.64 1.009 0 1.846-.285a3.8 3.8 0 0 0 1.435-.852q.597-.57.909-1.392l5.597.369a7.65 7.65 0 0 1-1.747 3.523q-1.308 1.49-3.381 2.33-2.06.823-4.759.823m22.003-.07q-2.486 0-4.503-1.28-2.002-1.291-3.181-3.792-1.165-2.514-1.165-6.165 0-3.75 1.207-6.235 1.207-2.5 3.21-3.736a8.23 8.23 0 0 1 4.418-1.25q1.833 0 3.054.625 1.236.61 1.989 1.534.766.91 1.164 1.79h.185V17.909h6.037V47h-5.966v-3.494h-.256a7.8 7.8 0 0 1-1.207 1.804q-.767.88-2.003 1.463-1.221.582-2.983.582m1.918-4.816q1.463 0 2.471-.796 1.023-.81 1.563-2.258.554-1.45.554-3.395t-.54-3.38-1.562-2.217-2.486-.78q-1.493 0-2.514.809-1.023.81-1.549 2.244-.525 1.434-.525 3.324 0 1.904.525 3.366.54 1.45 1.549 2.273 1.021.81 2.514.81M619.751 47h-10.312V17.91h10.397q4.389 0 7.557 1.746 3.168 1.734 4.872 4.986 1.719 3.253 1.719 7.784 0 4.546-1.719 7.813-1.704 3.268-4.9 5.014Q624.183 47 619.751 47m-4.162-5.27h3.906q2.728 0 4.588-.966 1.875-.98 2.813-3.025.952-2.06.952-5.313 0-3.224-.952-5.27-.938-2.045-2.798-3.011t-4.588-.966h-3.921zM638.426 47V25.182h6.052V47zm3.04-24.63q-1.349 0-2.315-.896-.952-.909-.952-2.173 0-1.25.952-2.145.966-.909 2.315-.909 1.35 0 2.301.91.966.893.966 2.144 0 1.264-.966 2.173-.951.895-2.301.895m26.012 9.033-5.539.341a2.9 2.9 0 0 0-.611-1.278 3.25 3.25 0 0 0-1.236-.923q-.753-.355-1.804-.355-1.406 0-2.372.596-.966.583-.966 1.563 0 .78.625 1.32t2.145.867l3.949.796q3.181.653 4.744 2.102t1.562 3.807q0 2.145-1.264 3.764-1.25 1.62-3.437 2.528-2.173.895-5.014.895-4.333 0-6.904-1.804-2.556-1.818-2.997-4.943l5.952-.312q.27 1.32 1.307 2.017 1.036.681 2.656.681 1.59 0 2.557-.61.98-.625.994-1.606-.015-.824-.696-1.349-.682-.54-2.102-.824l-3.779-.753q-3.196-.64-4.758-2.216-1.549-1.575-1.549-4.02 0-2.101 1.137-3.622 1.15-1.52 3.224-2.343 2.088-.825 4.887-.824 4.133 0 6.505 1.747 2.387 1.747 2.784 4.758m9.791 9.319.014-7.259h.881l6.988-8.281h6.946l-9.389 10.966h-1.434zM671.786 47V17.91h6.051V47zm13.636 0-6.42-9.503 4.034-4.275L692.51 47zm19.017 0V17.91h11.477q3.295 0 5.625 1.178 2.343 1.165 3.565 3.31 1.236 2.13 1.236 5.014 0 2.898-1.25 4.986-1.25 2.073-3.622 3.182-2.359 1.108-5.71 1.108h-7.685v-4.944h6.69q1.762 0 2.926-.483 1.166-.483 1.733-1.448.583-.966.583-2.401 0-1.449-.583-2.443-.567-.994-1.747-1.506-1.164-.526-2.94-.526h-4.148V47zm15.71-13.239L727.379 47h-6.79l-7.074-13.239zm20.018 13.665q-3.367 0-5.796-1.364-2.415-1.377-3.721-3.892-1.308-2.527-1.307-5.98 0-3.366 1.307-5.909t3.678-3.963q2.387-1.42 5.597-1.42 2.159 0 4.02.696a8.9 8.9 0 0 1 3.267 2.06q1.407 1.377 2.188 3.465.78 2.074.781 4.858v1.662h-18.424v-3.75h12.728q0-1.307-.568-2.315a4.07 4.07 0 0 0-1.577-1.577q-.995-.582-2.315-.582-1.378 0-2.444.639-1.05.625-1.647 1.69-.597 1.051-.611 2.344v3.565q0 1.62.596 2.799a4.38 4.38 0 0 0 1.719 1.818q1.109.64 2.628.64 1.008 0 1.847-.285a3.8 3.8 0 0 0 1.434-.852q.597-.57.909-1.392l5.597.369a7.65 7.65 0 0 1-1.747 3.523q-1.307 1.49-3.381 2.33-2.06.823-4.758.823m28.38 7.756V43.506h-.184a7.8 7.8 0 0 1-1.208 1.804q-.767.88-2.003 1.463-1.22.582-2.983.582-2.486 0-4.502-1.278-2.004-1.293-3.182-3.793-1.165-2.514-1.165-6.165 0-3.75 1.207-6.235 1.207-2.5 3.211-3.736a8.2 8.2 0 0 1 4.417-1.25q1.833 0 3.054.625 1.236.61 1.989 1.534.766.91 1.165 1.79h.255v-3.665h5.966v30zm-4.46-12.642q1.463 0 2.472-.796 1.022-.81 1.562-2.258.554-1.45.554-3.395t-.54-3.38-1.562-2.217-2.486-.78q-1.491 0-2.514.809-1.023.81-1.548 2.244t-.526 3.324q0 1.904.526 3.366.538 1.45 1.548 2.273 1.023.81 2.514.81m29.347-4.83V25.182h6.051V47h-5.81v-3.963h-.227a6.45 6.45 0 0 1-2.458 3.082q-1.704 1.165-4.162 1.165-2.187 0-3.849-.994t-2.599-2.827q-.924-1.832-.938-4.39V25.183h6.051v12.812q.014 1.932 1.037 3.054t2.742 1.122a4.35 4.35 0 0 0 2.045-.497q.952-.511 1.534-1.505.597-.994.583-2.458m20.834 9.716q-3.366 0-5.795-1.364-2.415-1.377-3.722-3.892-1.307-2.527-1.307-5.98 0-3.366 1.307-5.909t3.679-3.963q2.386-1.42 5.597-1.42 2.159 0 4.02.696a8.9 8.9 0 0 1 3.267 2.06q1.405 1.377 2.187 3.465.781 2.074.781 4.858v1.662h-18.423v-3.75h12.727q0-1.307-.568-2.315a4.07 4.07 0 0 0-1.577-1.577q-.993-.582-2.315-.582-1.378 0-2.443.639-1.051.625-1.648 1.69-.596 1.051-.611 2.344v3.565q0 1.62.597 2.799.61 1.179 1.719 1.818 1.107.64 2.628.64 1.008 0 1.846-.285a3.8 3.8 0 0 0 1.435-.852q.597-.57.909-1.392l5.596.369a7.64 7.64 0 0 1-1.747 3.523q-1.307 1.49-3.38 2.33-2.06.823-4.759.823m32.117-16.023-5.54.341a2.86 2.86 0 0 0-.611-1.278 3.24 3.24 0 0 0-1.236-.923q-.753-.355-1.804-.355-1.406 0-2.372.596-.966.583-.966 1.563 0 .78.625 1.32t2.145.867l3.949.796q3.182.653 4.744 2.102 1.563 1.449 1.563 3.807 0 2.145-1.264 3.764-1.251 1.62-3.438 2.528-2.173.895-5.014.895-4.333 0-6.904-1.804-2.556-1.818-2.997-4.943l5.952-.312q.27 1.32 1.307 2.017 1.036.681 2.656.681 1.591 0 2.557-.61.98-.625.994-1.606-.013-.824-.696-1.349-.681-.54-2.102-.824l-3.779-.753q-3.195-.64-4.758-2.216-1.548-1.575-1.548-4.02 0-2.101 1.136-3.622 1.15-1.52 3.224-2.343 2.088-.825 4.887-.824 4.133 0 6.505 1.747 2.386 1.747 2.785 4.758m15.912-6.221v4.545h-13.139v-4.545zm-10.156-5.227h6.051v20.34q0 .84.256 1.307.255.454.71.64.469.184 1.08.184.426 0 .852-.07.426-.086.653-.129l.952 4.503q-.454.143-1.278.327-.824.198-2.003.241-2.188.086-3.836-.582-1.633-.667-2.542-2.074t-.895-3.551zm31.978 11.448-5.54.341a2.86 2.86 0 0 0-.611-1.278 3.24 3.24 0 0 0-1.235-.923q-.754-.355-1.804-.355-1.407 0-2.373.596-.965.583-.965 1.563 0 .78.625 1.32.624.54 2.144.867l3.949.796q3.182.653 4.745 2.102 1.562 1.449 1.562 3.807 0 2.145-1.264 3.764-1.25 1.62-3.438 2.528-2.172.895-5.014.895-4.332 0-6.903-1.804-2.558-1.818-2.997-4.943l5.951-.312q.27 1.32 1.307 2.017 1.037.681 2.656.681 1.591 0 2.557-.61.98-.625.995-1.606-.015-.824-.696-1.349-.683-.54-2.103-.824l-3.778-.753q-3.196-.64-4.759-2.216-1.548-1.575-1.548-4.02 0-2.101 1.136-3.622 1.15-1.52 3.225-2.343 2.088-.825 4.886-.824 4.133 0 6.506 1.747 2.386 1.747 2.784 4.758M650.264 170.398a10.9 10.9 0 0 1-3.579-.682q-1.791-.654-3.267-2.202-1.477-1.562-2.373-4.219-.894-2.67-.894-6.704 0-3.864.724-6.847.725-2.997 2.102-5.042 1.379-2.06 3.324-3.125 1.96-1.066 4.418-1.066 2.443 0 4.346.98a8.3 8.3 0 0 1 3.125 2.699q1.207 1.733 1.563 3.992h-3.466q-.483-1.96-1.875-3.253t-3.693-1.293q-3.381 0-5.327 2.941-1.932 2.94-1.946 8.253h.227a8.51 8.51 0 0 1 4.333-3.395 8.5 8.5 0 0 1 2.826-.469q2.5 0 4.574 1.25 2.074 1.236 3.324 3.423 1.25 2.173 1.25 4.986 0 2.699-1.207 4.943a9.2 9.2 0 0 1-3.395 3.551q-2.174 1.308-5.114 1.279m0-3.125q1.79 0 3.21-.895a6.4 6.4 0 0 0 2.259-2.401q.838-1.506.838-3.352 0-1.804-.81-3.281a6.17 6.17 0 0 0-2.201-2.372q-1.392-.881-3.182-.881a5.9 5.9 0 0 0-2.514.54 6.5 6.5 0 0 0-2.046 1.449 7 7 0 0 0-1.363 2.116 6.3 6.3 0 0 0-.498 2.486q0 1.733.81 3.238a6.66 6.66 0 0 0 2.244 2.429q1.435.924 3.253.924M666.475 170l13.012-25.739v-.227h-15v-3.125h18.636v3.296L670.168 170zM768.968 140.511q1.79.015 3.58.682 1.79.668 3.267 2.216 1.476 1.535 2.372 4.19.895 2.657.895 6.662 0 3.879-.739 6.89-.725 2.997-2.102 5.056-1.364 2.06-3.324 3.125-1.945 1.066-4.404 1.066-2.442 0-4.36-.966a8.56 8.56 0 0 1-3.125-2.713q-1.207-1.747-1.549-4.049h3.466q.47 2.004 1.861 3.31 1.406 1.293 3.707 1.293 3.368 0 5.313-2.941 1.96-2.94 1.96-8.309h-.227a8.9 8.9 0 0 1-1.889 2.059 8.3 8.3 0 0 1-2.429 1.336 8.5 8.5 0 0 1-2.841.468q-2.5 0-4.588-1.235-2.075-1.25-3.324-3.424-1.236-2.187-1.236-5 0-2.67 1.193-4.886a9.2 9.2 0 0 1 3.381-3.551q2.187-1.321 5.142-1.279m0 3.125q-1.79 0-3.224.895a6.44 6.44 0 0 0-2.259 2.387q-.824 1.491-.824 3.309t.796 3.31a6.34 6.34 0 0 0 2.201 2.358q1.407.867 3.196.866 1.35 0 2.515-.525a6.5 6.5 0 0 0 2.031-1.463 7.1 7.1 0 0 0 1.378-2.117 6.4 6.4 0 0 0 .497-2.486 6.5 6.5 0 0 0-.824-3.196 6.54 6.54 0 0 0-2.244-2.414q-1.42-.924-3.239-.924m25.018 26.762q-2.926 0-5.171-1.037-2.229-1.051-3.48-2.884-1.25-1.846-1.236-4.204-.014-1.847.725-3.409a7.4 7.4 0 0 1 2.017-2.628 6.2 6.2 0 0 1 2.883-1.35v-.17q-2.088-.54-3.323-2.344-1.236-1.818-1.222-4.133-.014-2.217 1.122-3.963 1.137-1.748 3.125-2.756 2.003-1.008 4.56-1.009 2.528 0 4.517 1.009 1.988 1.008 3.125 2.756 1.15 1.746 1.165 3.963-.015 2.315-1.265 4.133-1.235 1.804-3.281 2.344v.17q1.577.285 2.841 1.35 1.264 1.05 2.017 2.628.753 1.562.767 3.409-.013 2.358-1.278 4.204-1.251 1.833-3.48 2.884-2.217 1.037-5.128 1.037m0-3.125q1.974 0 3.409-.639 1.434-.64 2.216-1.804.781-1.165.795-2.728-.014-1.647-.852-2.912-.838-1.263-2.287-1.988-1.434-.725-3.281-.725-1.861 0-3.324.725-1.449.725-2.287 1.988-.823 1.265-.81 2.912-.014 1.563.753 2.728.781 1.164 2.23 1.804 1.449.639 3.438.639m0-13.807q1.562 0 2.77-.625a4.76 4.76 0 0 0 1.917-1.747q.696-1.122.711-2.628-.015-1.478-.696-2.571a4.5 4.5 0 0 0-1.89-1.705q-1.207-.61-2.812-.61-1.634 0-2.855.61-1.222.597-1.89 1.705-.667 1.094-.653 2.571-.014 1.506.668 2.628a4.76 4.76 0 0 0 1.917 1.747q1.222.625 2.813.625M881.223 140.909V170H877.7v-25.398h-.17l-7.102 4.716v-3.579l7.272-4.83zM889.589 170v-2.557l9.603-10.511a67 67 0 0 0 2.784-3.21q1.094-1.379 1.619-2.586.54-1.221.54-2.556 0-1.535-.739-2.657-.725-1.121-1.988-1.733-1.264-.61-2.841-.61-1.677 0-2.926.696a4.8 4.8 0 0 0-1.918 1.917q-.668 1.236-.668 2.898h-3.352q0-2.557 1.179-4.489a8.2 8.2 0 0 1 3.21-3.011q2.046-1.08 4.588-1.08 2.557 0 4.532 1.08 1.974 1.08 3.096 2.912t1.122 4.077q0 1.605-.582 3.139-.569 1.52-1.989 3.395-1.405 1.86-3.906 4.545l-6.534 6.989v.227h13.523V170zm24.219 0v-2.557l9.603-10.511a68 68 0 0 0 2.784-3.21q1.094-1.379 1.619-2.586.54-1.221.54-2.556 0-1.535-.739-2.657-.724-1.121-1.989-1.733-1.263-.61-2.84-.61-1.677 0-2.927.696a4.8 4.8 0 0 0-1.917 1.917q-.668 1.236-.668 2.898h-3.352q0-2.557 1.179-4.489a8.2 8.2 0 0 1 3.21-3.011q2.046-1.08 4.588-1.08 2.557 0 4.531 1.08 1.975 1.08 3.097 2.912t1.122 4.077q0 1.605-.582 3.139-.569 1.52-1.989 3.395-1.406 1.86-3.906 4.545l-6.534 6.989v.227h13.523V170zM1000.81 140.909V170h-3.52v-25.398h-.17l-7.103 4.716v-3.579l7.273-4.83zm8.37 29.091v-2.557l9.6-10.511a66 66 0 0 0 2.79-3.21q1.08-1.379 1.62-2.586a6.4 6.4 0 0 0 .53-2.556c0-1.023-.24-1.909-.73-2.657a4.86 4.86 0 0 0-1.99-1.733c-.85-.407-1.79-.61-2.84-.61-1.12 0-2.1.232-2.93.696a4.85 4.85 0 0 0-1.92 1.917q-.66 1.236-.66 2.898h-3.36c0-1.705.4-3.201 1.18-4.489a8.25 8.25 0 0 1 3.21-3.011q2.055-1.08 4.59-1.08c1.7 0 3.22.36 4.53 1.08 1.32.72 2.35 1.69 3.1 2.912s1.12 2.58 1.12 4.077c0 1.07-.19 2.116-.58 3.139-.38 1.013-1.04 2.145-1.99 3.395-.94 1.24-2.24 2.755-3.91 4.545l-6.53 6.989v.227h13.52V170zm22.91-5.966v-2.898l12.79-20.227h2.1v4.489h-1.42l-9.66 15.284v.227h17.21v3.125zm13.69 5.966v-29.091h3.36V170zM1120.38 140.909V170h-3.52v-25.398h-.17l-7.1 4.716v-3.579l7.27-4.83zm17.69 29.489c-1.95 0-3.68-.346-5.17-1.037q-2.235-1.051-3.48-2.884c-.84-1.231-1.25-2.632-1.24-4.204-.01-1.231.23-2.368.73-3.409a7.4 7.4 0 0 1 2.01-2.628c.86-.71 1.83-1.16 2.89-1.35v-.17c-1.4-.36-2.5-1.141-3.33-2.344-.82-1.212-1.23-2.59-1.22-4.133-.01-1.478.37-2.799 1.12-3.963.76-1.165 1.8-2.084 3.13-2.756q1.995-1.008 4.56-1.009c1.68 0 3.19.337 4.51 1.009 1.33.672 2.37 1.591 3.13 2.756.77 1.164 1.16 2.485 1.16 3.963 0 1.543-.43 2.921-1.26 4.133-.82 1.203-1.92 1.984-3.28 2.344v.17c1.05.19 2 .64 2.84 1.35a7.7 7.7 0 0 1 2.02 2.628c.5 1.041.75 2.178.76 3.409-.01 1.572-.43 2.973-1.27 4.204q-1.26 1.833-3.48 2.884-2.22 1.037-5.13 1.037m0-3.125c1.31 0 2.45-.213 3.41-.639.95-.427 1.69-1.028 2.21-1.804.52-.777.79-1.686.8-2.728-.01-1.098-.3-2.069-.85-2.912-.56-.842-1.33-1.505-2.29-1.988s-2.05-.725-3.28-.725q-1.86 0-3.33.725-1.44.725-2.28 1.988-.825 1.265-.81 2.912-.015 1.563.75 2.728c.52.776 1.26 1.377 2.23 1.804.97.426 2.11.639 3.44.639m0-13.807c1.04 0 1.96-.208 2.77-.625a4.83 4.83 0 0 0 1.92-1.747c.46-.748.7-1.624.71-2.628-.01-.985-.25-1.842-.7-2.571a4.5 4.5 0 0 0-1.89-1.705c-.8-.407-1.74-.61-2.81-.61-1.09 0-2.04.203-2.86.61q-1.215.597-1.89 1.705c-.44.729-.66 1.586-.65 2.571-.01 1.004.21 1.88.67 2.628q.69 1.122 1.92 1.747c.81.417 1.75.625 2.81.625m25.16 16.932c-1.88 0-3.55-.322-5.02-.966q-2.175-.966-3.48-2.685c-.85-1.155-1.31-2.495-1.39-4.02h3.58c.08.938.4 1.747.97 2.429.56.673 1.31 1.193 2.23 1.563s1.93.554 3.05.554c1.25 0 2.36-.218 3.32-.654q1.455-.653 2.28-1.818c.55-.776.82-1.676.82-2.699 0-1.07-.26-2.012-.79-2.826-.53-.824-1.31-1.468-2.33-1.932q-1.545-.696-3.75-.696h-2.33v-3.125h2.33c1.15 0 2.16-.209 3.04-.625s1.56-1.004 2.06-1.762q.75-1.136.75-2.67c0-.985-.22-1.842-.65-2.571-.44-.729-1.06-1.297-1.85-1.705q-1.185-.61-2.79-.61c-1 0-1.95.184-2.84.554q-1.32.539-2.16 1.576c-.55.682-.86 1.506-.9 2.472h-3.41c.05-1.525.51-2.86 1.37-4.006.87-1.155 1.99-2.055 3.38-2.699q2.115-.966 4.62-.966c1.8 0 3.34.365 4.63 1.094q1.935 1.08 2.97 2.855a7.5 7.5 0 0 1 1.04 3.835q0 2.458-1.29 4.191c-.86 1.155-2.02 1.955-3.49 2.4v.228c1.84.303 3.28 1.084 4.31 2.343 1.03 1.25 1.55 2.799 1.55 4.645 0 1.582-.43 3.002-1.3 4.262-.85 1.25-2.01 2.234-3.49 2.954q-2.22 1.08-5.04 1.08M1240.48 140.909V170h-3.52v-25.398h-.17l-7.1 4.716v-3.579l7.27-4.83zm17.63-.398c1.19.01 2.39.237 3.58.682q1.785.668 3.27 2.216 1.47 1.535 2.37 4.19c.59 1.771.89 3.992.89 6.662 0 2.586-.24 4.882-.74 6.89q-.72 2.997-2.1 5.056c-.91 1.373-2.02 2.415-3.32 3.125q-1.95 1.066-4.41 1.066c-1.62 0-3.08-.322-4.36-.966a8.5 8.5 0 0 1-3.12-2.713c-.81-1.165-1.32-2.514-1.55-4.049h3.47q.465 2.004 1.86 3.31c.93.862 2.17 1.293 3.7 1.293 2.25 0 4.02-.98 5.32-2.941s1.96-4.73 1.96-8.309h-.23a8.9 8.9 0 0 1-1.89 2.059 8.35 8.35 0 0 1-5.27 1.804q-2.505 0-4.59-1.235c-1.38-.834-2.49-1.975-3.32-3.424-.83-1.458-1.24-3.125-1.24-5q0-2.67 1.2-4.886a9.2 9.2 0 0 1 3.38-3.551c1.45-.881 3.17-1.307 5.14-1.279m0 3.125c-1.19 0-2.27.299-3.23.895a6.4 6.4 0 0 0-2.25 2.387c-.55.994-.83 2.097-.83 3.309s.27 2.316.8 3.31a6.33 6.33 0 0 0 2.2 2.358c.94.578 2 .866 3.2.866.89 0 1.73-.175 2.51-.525.78-.36 1.45-.848 2.03-1.463a7 7 0 0 0 1.38-2.117 6.508 6.508 0 0 0-.33-5.682 6.6 6.6 0 0 0-2.24-2.414q-1.425-.924-3.24-.924m24.96-3.125c1.19.01 2.39.237 3.58.682q1.785.668 3.27 2.216 1.47 1.535 2.37 4.19c.59 1.771.89 3.992.89 6.662 0 2.586-.24 4.882-.74 6.89q-.72 2.997-2.1 5.056c-.91 1.373-2.01 2.415-3.32 3.125-1.3.711-2.77 1.066-4.4 1.066s-3.09-.322-4.37-.966a8.6 8.6 0 0 1-3.12-2.713c-.81-1.165-1.32-2.514-1.55-4.049h3.47q.465 2.004 1.86 3.31c.94.862 2.17 1.293 3.71 1.293q3.36 0 5.31-2.941c1.3-1.96 1.96-4.73 1.96-8.309h-.23a8.9 8.9 0 0 1-1.89 2.059 8.35 8.35 0 0 1-5.27 1.804c-1.67 0-3.19-.412-4.59-1.235-1.38-.834-2.49-1.975-3.32-3.424-.82-1.458-1.24-3.125-1.24-5q0-2.67 1.2-4.886a9.2 9.2 0 0 1 3.38-3.551c1.46-.881 3.17-1.307 5.14-1.279m0 3.125c-1.19 0-2.27.299-3.22.895a6.4 6.4 0 0 0-2.26 2.387c-.55.994-.83 2.097-.83 3.309s.27 2.316.8 3.31a6.33 6.33 0 0 0 2.2 2.358c.94.578 2 .866 3.2.866.9 0 1.73-.175 2.51-.525.78-.36 1.45-.848 2.03-1.463a7 7 0 0 0 1.38-2.117 6.508 6.508 0 0 0-.33-5.682 6.6 6.6 0 0 0-2.24-2.414q-1.425-.924-3.24-.924"/></svg>