<svg width="1322" height="325" viewBox="0 0 1322 325" fill="none" xmlns="http://www.w3.org/2000/svg">
<rect x="362" y="96" width="119" height="120" fill="#002647"/>
<rect x="2" y="96" width="1319" height="120" rx="26" stroke="#DBDBDB" stroke-width="2"/>
<line x1="242" y1="95" x2="242" y2="217" stroke="#DBDBDB" stroke-width="2"/>
<line x1="122" y1="95" x2="122" y2="217" stroke="#DBDBDB" stroke-width="2"/>
<line x1="362" y1="95" x2="362" y2="217" stroke="#DBDBDB" stroke-width="2"/>
<line x1="482" y1="95" x2="482" y2="217" stroke="#DBDBDB" stroke-width="2"/>
<line x1="603" y1="95" x2="603" y2="217" stroke="#DBDBDB" stroke-width="2"/>
<line x1="723" y1="95" x2="723" y2="217" stroke="#DBDBDB" stroke-width="2"/>
<line x1="843" y1="95" x2="843" y2="217" stroke="#DBDBDB" stroke-width="2"/>
<line x1="963" y1="95" x2="963" y2="217" stroke="#DBDBDB" stroke-width="2"/>
<line x1="1083" y1="95" x2="1083" y2="217" stroke="#DBDBDB" stroke-width="2"/>
<line x1="1203" y1="95" x2="1203" y2="217" stroke="#DBDBDB" stroke-width="2"/>
<path d="M172.61 140.909V170H169.087V144.602H168.917L161.814 149.318V145.739L169.087 140.909H172.61ZM180.294 164.034V161.136L193.078 140.909H195.181V145.398H193.76L184.101 160.682V160.909H201.317V164.034H180.294ZM193.988 170V163.153V161.804V140.909H197.34V170H193.988Z" fill="white"/>
<path d="M60.5 170.398C58.3598 170.398 56.5369 169.815 55.0312 168.651C53.5256 167.476 52.375 165.777 51.5795 163.551C50.7841 161.316 50.3864 158.617 50.3864 155.455C50.3864 152.311 50.7841 149.626 51.5795 147.401C52.3845 145.166 53.5398 143.461 55.0455 142.287C56.5606 141.103 58.3788 140.511 60.5 140.511C62.6212 140.511 64.4347 141.103 65.9403 142.287C67.4555 143.461 68.6108 145.166 69.4062 147.401C70.2112 149.626 70.6136 152.311 70.6136 155.455C70.6136 158.617 70.2159 161.316 69.4205 163.551C68.625 165.777 67.4744 167.476 65.9688 168.651C64.4631 169.815 62.6402 170.398 60.5 170.398ZM60.5 167.273C62.6212 167.273 64.2689 166.25 65.4432 164.205C66.6174 162.159 67.2045 159.242 67.2045 155.455C67.2045 152.936 66.9347 150.791 66.3949 149.02C65.8646 147.249 65.0975 145.9 64.0938 144.972C63.0994 144.044 61.9015 143.58 60.5 143.58C58.3977 143.58 56.7547 144.616 55.571 146.69C54.3873 148.755 53.7955 151.676 53.7955 155.455C53.7955 157.973 54.0606 160.114 54.5909 161.875C55.1212 163.636 55.8835 164.976 56.8778 165.895C57.8816 166.813 59.089 167.273 60.5 167.273Z" fill="white"/>
<path d="M25.2409 271V244.091H41.3759V246.982H28.4995V256.074H40.1671V258.964H28.4995V271H25.2409ZM46.5363 271V250.818H49.6372V271H46.5363ZM48.113 247.455C47.5086 247.455 46.9874 247.249 46.5494 246.837C46.1202 246.425 45.9056 245.93 45.9056 245.352C45.9056 244.774 46.1202 244.279 46.5494 243.868C46.9874 243.456 47.5086 243.25 48.113 243.25C48.7174 243.25 49.2342 243.456 49.6634 243.868C50.1014 244.279 50.3204 244.774 50.3204 245.352C50.3204 245.93 50.1014 246.425 49.6634 246.837C49.2342 247.249 48.7174 247.455 48.113 247.455ZM55.3166 271V250.818H58.3123V253.866H58.5226C58.8904 252.868 59.5562 252.058 60.5197 251.436C61.4833 250.814 62.5694 250.503 63.7782 250.503C64.006 250.503 64.2907 250.507 64.6323 250.516C64.9739 250.525 65.2323 250.538 65.4075 250.555V253.709C65.3024 253.683 65.0615 253.643 64.6848 253.591C64.3169 253.529 63.9271 253.499 63.5154 253.499C62.5344 253.499 61.6584 253.704 60.8876 254.116C60.1255 254.519 59.5211 255.08 59.0744 255.798C58.6364 256.507 58.4174 257.318 58.4174 258.229V271H55.3166ZM83.3786 255.338L80.5931 256.126C80.4179 255.662 80.1595 255.211 79.8179 254.773C79.4851 254.326 79.0296 253.958 78.4514 253.669C77.8733 253.38 77.1331 253.236 76.2309 253.236C74.9958 253.236 73.9666 253.52 73.1432 254.09C72.3286 254.65 71.9213 255.364 71.9213 256.232C71.9213 257.002 72.2016 257.611 72.7622 258.058C73.3228 258.505 74.1987 258.877 75.39 259.175L78.3857 259.911C80.1902 260.348 81.5348 261.019 82.4195 261.921C83.3042 262.814 83.7465 263.966 83.7465 265.376C83.7465 266.533 83.4137 267.566 82.748 268.477C82.091 269.388 81.1713 270.107 79.9887 270.632C78.8062 271.158 77.431 271.42 75.863 271.42C73.8045 271.42 72.1008 270.974 70.7519 270.08C69.4029 269.187 68.5489 267.882 68.1897 266.165L71.1329 265.429C71.4132 266.515 71.9432 267.33 72.7227 267.873C73.5111 268.416 74.5403 268.688 75.8105 268.688C77.2558 268.688 78.4033 268.381 79.2529 267.768C80.1114 267.146 80.5406 266.401 80.5406 265.534C80.5406 264.833 80.2953 264.246 79.8048 263.773C79.3142 263.292 78.5609 262.933 77.5448 262.696L74.1812 261.908C72.3329 261.47 70.9752 260.791 70.108 259.871C69.2496 258.943 68.8204 257.782 68.8204 256.389C68.8204 255.25 69.1401 254.243 69.7796 253.367C70.4278 252.491 71.3081 251.804 72.4205 251.304C73.5418 250.805 74.8119 250.555 76.2309 250.555C78.2281 250.555 79.796 250.993 80.9347 251.869C82.0822 252.745 82.8969 253.902 83.3786 255.338ZM97.1912 250.818V253.446H86.7324V250.818H97.1912ZM89.7807 245.983H92.8816V265.219C92.8816 266.095 93.0086 266.752 93.2626 267.19C93.5254 267.619 93.8583 267.908 94.2612 268.057C94.6729 268.197 95.1065 268.267 95.562 268.267C95.9036 268.267 96.1839 268.25 96.4029 268.214C96.6219 268.171 96.7971 268.136 96.9284 268.109L97.5591 270.895C97.3489 270.974 97.0555 271.053 96.6788 271.131C96.3021 271.219 95.8248 271.263 95.2466 271.263C94.3707 271.263 93.5123 271.074 92.6713 270.698C91.8392 270.321 91.1472 269.747 90.5953 268.977C90.0523 268.206 89.7807 267.233 89.7807 266.06V245.983ZM13.7606 291.982V289.091H33.9424V291.982H25.4807V316H22.2222V291.982H13.7606ZM36.4553 316V295.818H39.451V298.866H39.6612C40.0291 297.868 40.6948 297.058 41.6584 296.436C42.6219 295.814 43.7081 295.503 44.9169 295.503C45.1447 295.503 45.4293 295.507 45.771 295.516C46.1126 295.525 46.371 295.538 46.5462 295.555V298.709C46.4411 298.683 46.2002 298.643 45.8235 298.591C45.4556 298.529 45.0658 298.499 44.6541 298.499C43.6731 298.499 42.7971 298.704 42.0263 299.116C41.2642 299.519 40.6598 300.08 40.2131 300.798C39.7751 301.507 39.5561 302.318 39.5561 303.229V316H36.4553ZM56.1608 316.473C54.8819 316.473 53.7213 316.232 52.6789 315.75C51.6365 315.26 50.8087 314.555 50.1956 313.635C49.5824 312.706 49.2758 311.585 49.2758 310.271C49.2758 309.115 49.5036 308.178 49.9591 307.46C50.4146 306.732 51.0233 306.163 51.7854 305.751C52.5475 305.34 53.3884 305.033 54.3082 304.832C55.2367 304.621 56.1695 304.455 57.1068 304.332C58.3331 304.175 59.3273 304.056 60.0894 303.978C60.8602 303.89 61.4208 303.746 61.7712 303.544C62.1304 303.343 62.3099 302.992 62.3099 302.493V302.388C62.3099 301.091 61.9552 300.084 61.2457 299.366C60.5449 298.647 59.4806 298.288 58.0528 298.288C56.5725 298.288 55.4118 298.612 54.5709 299.261C53.73 299.909 53.1388 300.601 52.7971 301.337L49.854 300.286C50.3795 299.059 51.0803 298.104 51.9562 297.421C52.8409 296.729 53.8045 296.247 54.8469 295.976C55.898 295.696 56.9316 295.555 57.9477 295.555C58.5959 295.555 59.3405 295.634 60.1814 295.792C61.031 295.941 61.8501 296.252 62.6384 296.725C63.4355 297.198 64.0969 297.912 64.6224 298.866C65.148 299.821 65.4108 301.1 65.4108 302.703V316H62.3099V313.267H62.1523C61.942 313.705 61.5916 314.174 61.1011 314.673C60.6106 315.172 59.958 315.597 59.1434 315.947C58.3287 316.298 57.3345 316.473 56.1608 316.473ZM56.6338 313.688C57.8601 313.688 58.8937 313.447 59.7346 312.965C60.5843 312.483 61.2238 311.861 61.653 311.099C62.0909 310.337 62.3099 309.536 62.3099 308.695V305.857C62.1785 306.014 61.8895 306.159 61.4427 306.29C61.0048 306.413 60.4967 306.522 59.9186 306.619C59.3492 306.706 58.793 306.785 58.2499 306.855C57.7156 306.916 57.282 306.969 56.9491 307.013C56.1433 307.118 55.3899 307.289 54.6892 307.525C53.9972 307.753 53.4366 308.099 53.0074 308.563C52.5869 309.019 52.3767 309.641 52.3767 310.429C52.3767 311.506 52.7752 312.321 53.5724 312.873C54.3782 313.416 55.3987 313.688 56.6338 313.688ZM79.2694 316.42C77.3773 316.42 75.748 315.974 74.3816 315.08C73.0151 314.187 71.964 312.956 71.2282 311.388C70.4924 309.82 70.1245 308.029 70.1245 306.014C70.1245 303.964 70.5011 302.156 71.2544 300.588C72.0165 299.011 73.0764 297.78 74.4341 296.896C75.8006 296.002 77.3948 295.555 79.2168 295.555C80.6358 295.555 81.9147 295.818 83.0534 296.344C84.1922 296.869 85.1251 297.605 85.8521 298.551C86.5791 299.497 87.0302 300.601 87.2054 301.862H84.1046C83.8681 300.942 83.3425 300.128 82.5279 299.418C81.722 298.7 80.6358 298.341 79.2694 298.341C78.0605 298.341 77.0007 298.656 76.0897 299.287C75.1874 299.909 74.4823 300.789 73.9743 301.928C73.475 303.058 73.2253 304.385 73.2253 305.909C73.2253 307.468 73.4706 308.826 73.9611 309.982C74.4604 311.138 75.1612 312.036 76.0634 312.676C76.9744 313.315 78.043 313.635 79.2694 313.635C80.0752 313.635 80.8066 313.495 81.4636 313.214C82.1206 312.934 82.6768 312.531 83.1323 312.006C83.5878 311.48 83.9119 310.849 84.1046 310.114H87.2054C87.0302 311.305 86.5966 312.378 85.9047 313.333C85.2214 314.279 84.3148 315.032 83.1848 315.593C82.0636 316.145 80.7585 316.42 79.2694 316.42ZM94.6291 308.642L94.5765 304.805H95.2072L104.037 295.818H107.873L98.4657 305.331H98.2029L94.6291 308.642ZM91.7385 316V289.091H94.8393V316H91.7385ZM104.562 316L96.6788 306.014L98.8862 303.859L108.504 316H104.562Z" fill="#717171"/>
<path d="M377.382 271V244.091H380.641V256.074H394.989V244.091H398.247V271H394.989V258.964H380.641V271H377.382ZM412.812 271.42C410.867 271.42 409.19 270.991 407.78 270.133C406.378 269.266 405.296 268.057 404.534 266.506C403.781 264.947 403.404 263.134 403.404 261.067C403.404 259 403.781 257.178 404.534 255.601C405.296 254.015 406.356 252.78 407.714 251.896C409.08 251.002 410.675 250.555 412.497 250.555C413.548 250.555 414.586 250.731 415.611 251.081C416.635 251.431 417.568 252.001 418.409 252.789C419.25 253.569 419.92 254.602 420.42 255.89C420.919 257.178 421.168 258.763 421.168 260.646V261.96H405.612V259.28H418.015C418.015 258.141 417.787 257.125 417.332 256.232C416.885 255.338 416.246 254.633 415.413 254.116C414.59 253.599 413.618 253.341 412.497 253.341C411.261 253.341 410.193 253.647 409.291 254.261C408.397 254.865 407.71 255.653 407.228 256.626C406.746 257.598 406.505 258.64 406.505 259.753V261.54C406.505 263.064 406.768 264.356 407.293 265.416C407.828 266.467 408.568 267.268 409.514 267.82C410.46 268.363 411.559 268.635 412.812 268.635C413.627 268.635 414.362 268.521 415.019 268.293C415.685 268.057 416.259 267.706 416.741 267.242C417.222 266.769 417.595 266.182 417.857 265.482L420.853 266.322C420.538 267.339 420.008 268.232 419.263 269.003C418.519 269.765 417.599 270.361 416.504 270.79C415.409 271.21 414.178 271.42 412.812 271.42ZM431.824 271.473C430.545 271.473 429.385 271.232 428.342 270.75C427.3 270.26 426.472 269.555 425.859 268.635C425.246 267.706 424.939 266.585 424.939 265.271C424.939 264.115 425.167 263.178 425.623 262.46C426.078 261.732 426.687 261.163 427.449 260.751C428.211 260.34 429.052 260.033 429.972 259.832C430.9 259.621 431.833 259.455 432.77 259.332C433.997 259.175 434.991 259.056 435.753 258.978C436.524 258.89 437.084 258.746 437.435 258.544C437.794 258.343 437.973 257.992 437.973 257.493V257.388C437.973 256.091 437.619 255.084 436.909 254.366C436.208 253.647 435.144 253.288 433.716 253.288C432.236 253.288 431.075 253.612 430.235 254.261C429.394 254.909 428.802 255.601 428.461 256.337L425.518 255.286C426.043 254.059 426.744 253.104 427.62 252.421C428.505 251.729 429.468 251.247 430.51 250.976C431.562 250.696 432.595 250.555 433.611 250.555C434.259 250.555 435.004 250.634 435.845 250.792C436.695 250.941 437.514 251.252 438.302 251.725C439.099 252.198 439.76 252.912 440.286 253.866C440.812 254.821 441.074 256.1 441.074 257.703V271H437.973V268.267H437.816C437.606 268.705 437.255 269.174 436.765 269.673C436.274 270.172 435.622 270.597 434.807 270.947C433.992 271.298 432.998 271.473 431.824 271.473ZM432.297 268.688C433.524 268.688 434.557 268.447 435.398 267.965C436.248 267.483 436.887 266.861 437.317 266.099C437.755 265.337 437.973 264.536 437.973 263.695V260.857C437.842 261.014 437.553 261.159 437.106 261.29C436.668 261.413 436.16 261.522 435.582 261.619C435.013 261.706 434.457 261.785 433.913 261.855C433.379 261.916 432.946 261.969 432.613 262.013C431.807 262.118 431.054 262.289 430.353 262.525C429.661 262.753 429.1 263.099 428.671 263.563C428.25 264.019 428.04 264.641 428.04 265.429C428.04 266.506 428.439 267.321 429.236 267.873C430.042 268.416 431.062 268.688 432.297 268.688ZM454.355 271.42C452.673 271.42 451.188 270.996 449.901 270.146C448.613 269.288 447.606 268.079 446.879 266.52C446.152 264.952 445.788 263.099 445.788 260.962C445.788 258.842 446.152 257.002 446.879 255.443C447.606 253.884 448.617 252.68 449.914 251.83C451.21 250.98 452.708 250.555 454.407 250.555C455.721 250.555 456.759 250.774 457.521 251.212C458.292 251.642 458.879 252.132 459.282 252.684C459.694 253.227 460.013 253.674 460.241 254.024H460.504V244.091H463.605V271H460.609V267.899H460.241C460.013 268.267 459.689 268.731 459.269 269.292C458.848 269.844 458.248 270.339 457.469 270.777C456.689 271.206 455.651 271.42 454.355 271.42ZM454.775 268.635C456.019 268.635 457.07 268.311 457.929 267.663C458.787 267.006 459.44 266.099 459.886 264.943C460.333 263.778 460.557 262.433 460.557 260.909C460.557 259.402 460.338 258.084 459.9 256.954C459.462 255.815 458.813 254.931 457.955 254.3C457.097 253.661 456.037 253.341 454.775 253.341C453.461 253.341 452.366 253.678 451.49 254.353C450.623 255.018 449.971 255.925 449.533 257.072C449.104 258.211 448.889 259.49 448.889 260.909C448.889 262.346 449.108 263.651 449.546 264.825C449.993 265.99 450.65 266.918 451.517 267.61C452.393 268.293 453.479 268.635 454.775 268.635ZM354.058 316V289.091H363.151C365.262 289.091 366.987 289.472 368.328 290.234C369.676 290.987 370.675 292.008 371.323 293.295C371.971 294.583 372.296 296.02 372.296 297.605C372.296 299.191 371.971 300.632 371.323 301.928C370.684 303.224 369.694 304.258 368.354 305.029C367.014 305.791 365.297 306.172 363.203 306.172H356.686V303.281H363.098C364.543 303.281 365.704 303.032 366.58 302.532C367.456 302.033 368.091 301.359 368.485 300.509C368.888 299.65 369.09 298.683 369.09 297.605C369.09 296.528 368.888 295.564 368.485 294.714C368.091 293.865 367.452 293.199 366.567 292.717C365.682 292.227 364.508 291.982 363.046 291.982H357.317V316H354.058ZM385.106 316.42C383.284 316.42 381.686 315.987 380.31 315.12C378.944 314.252 377.875 313.039 377.104 311.48C376.342 309.921 375.961 308.099 375.961 306.014C375.961 303.912 376.342 302.077 377.104 300.509C377.875 298.941 378.944 297.723 380.31 296.856C381.686 295.989 383.284 295.555 385.106 295.555C386.928 295.555 388.522 295.989 389.889 296.856C391.264 297.723 392.333 298.941 393.095 300.509C393.866 302.077 394.251 303.912 394.251 306.014C394.251 308.099 393.866 309.921 393.095 311.48C392.333 313.039 391.264 314.252 389.889 315.12C388.522 315.987 386.928 316.42 385.106 316.42ZM385.106 313.635C386.49 313.635 387.629 313.28 388.522 312.571C389.416 311.861 390.077 310.928 390.506 309.772C390.936 308.616 391.15 307.363 391.15 306.014C391.15 304.665 390.936 303.408 390.506 302.243C390.077 301.078 389.416 300.137 388.522 299.418C387.629 298.7 386.49 298.341 385.106 298.341C383.722 298.341 382.584 298.7 381.69 299.418C380.797 300.137 380.135 301.078 379.706 302.243C379.277 303.408 379.062 304.665 379.062 306.014C379.062 307.363 379.277 308.616 379.706 309.772C380.135 310.928 380.797 311.861 381.69 312.571C382.584 313.28 383.722 313.635 385.106 313.635ZM413.28 300.338L410.494 301.126C410.319 300.662 410.061 300.211 409.719 299.773C409.386 299.326 408.931 298.958 408.353 298.669C407.775 298.38 407.035 298.236 406.132 298.236C404.897 298.236 403.868 298.52 403.045 299.09C402.23 299.65 401.823 300.364 401.823 301.232C401.823 302.002 402.103 302.611 402.664 303.058C403.224 303.505 404.1 303.877 405.291 304.175L408.287 304.911C410.092 305.348 411.436 306.019 412.321 306.921C413.206 307.814 413.648 308.966 413.648 310.376C413.648 311.533 413.315 312.566 412.649 313.477C411.992 314.388 411.073 315.107 409.89 315.632C408.708 316.158 407.332 316.42 405.764 316.42C403.706 316.42 402.002 315.974 400.653 315.08C399.304 314.187 398.45 312.882 398.091 311.165L401.034 310.429C401.315 311.515 401.845 312.33 402.624 312.873C403.412 313.416 404.442 313.688 405.712 313.688C407.157 313.688 408.305 313.381 409.154 312.768C410.013 312.146 410.442 311.401 410.442 310.534C410.442 309.833 410.197 309.246 409.706 308.773C409.216 308.292 408.462 307.933 407.446 307.696L404.083 306.908C402.234 306.47 400.877 305.791 400.009 304.871C399.151 303.943 398.722 302.782 398.722 301.389C398.722 300.25 399.041 299.243 399.681 298.367C400.329 297.491 401.209 296.804 402.322 296.304C403.443 295.805 404.713 295.555 406.132 295.555C408.129 295.555 409.697 295.993 410.836 296.869C411.984 297.745 412.798 298.902 413.28 300.338ZM418.316 316V295.818H421.416V316H418.316ZM419.892 292.455C419.288 292.455 418.767 292.249 418.329 291.837C417.9 291.425 417.685 290.93 417.685 290.352C417.685 289.774 417.9 289.279 418.329 288.868C418.767 288.456 419.288 288.25 419.892 288.25C420.497 288.25 421.014 288.456 421.443 288.868C421.881 289.279 422.1 289.774 422.1 290.352C422.1 290.93 421.881 291.425 421.443 291.837C421.014 292.249 420.497 292.455 419.892 292.455ZM435.873 295.818V298.446H425.414V295.818H435.873ZM428.462 290.983H431.563V310.219C431.563 311.095 431.69 311.752 431.944 312.19C432.207 312.619 432.54 312.908 432.943 313.057C433.355 313.197 433.788 313.267 434.244 313.267C434.585 313.267 434.866 313.25 435.085 313.214C435.304 313.171 435.479 313.136 435.61 313.109L436.241 315.895C436.031 315.974 435.737 316.053 435.36 316.131C434.984 316.219 434.506 316.263 433.928 316.263C433.052 316.263 432.194 316.074 431.353 315.698C430.521 315.321 429.829 314.747 429.277 313.977C428.734 313.206 428.462 312.233 428.462 311.06V290.983ZM440.537 316V295.818H443.638V316H440.537ZM442.114 292.455C441.51 292.455 440.988 292.249 440.55 291.837C440.121 291.425 439.907 290.93 439.907 290.352C439.907 289.774 440.121 289.279 440.55 288.868C440.988 288.456 441.51 288.25 442.114 288.25C442.718 288.25 443.235 288.456 443.664 288.868C444.102 289.279 444.321 289.774 444.321 290.352C444.321 290.93 444.102 291.425 443.664 291.837C443.235 292.249 442.718 292.455 442.114 292.455ZM457.516 316.42C455.694 316.42 454.096 315.987 452.721 315.12C451.354 314.252 450.285 313.039 449.515 311.48C448.753 309.921 448.372 308.099 448.372 306.014C448.372 303.912 448.753 302.077 449.515 300.509C450.285 298.941 451.354 297.723 452.721 296.856C454.096 295.989 455.694 295.555 457.516 295.555C459.338 295.555 460.933 295.989 462.299 296.856C463.674 297.723 464.743 298.941 465.505 300.509C466.276 302.077 466.661 303.912 466.661 306.014C466.661 308.099 466.276 309.921 465.505 311.48C464.743 313.039 463.674 314.252 462.299 315.12C460.933 315.987 459.338 316.42 457.516 316.42ZM457.516 313.635C458.9 313.635 460.039 313.28 460.933 312.571C461.826 311.861 462.487 310.928 462.917 309.772C463.346 308.616 463.56 307.363 463.56 306.014C463.56 304.665 463.346 303.408 462.917 302.243C462.487 301.078 461.826 300.137 460.933 299.418C460.039 298.7 458.9 298.341 457.516 298.341C456.132 298.341 454.994 298.7 454.1 299.418C453.207 300.137 452.545 301.078 452.116 302.243C451.687 303.408 451.472 304.665 451.472 306.014C451.472 307.363 451.687 308.616 452.116 309.772C452.545 310.928 453.207 311.861 454.1 312.571C454.994 313.28 456.132 313.635 457.516 313.635ZM474.496 303.859V316H471.395V295.818H474.39V298.972H474.653C475.126 297.947 475.845 297.123 476.808 296.501C477.772 295.871 479.015 295.555 480.54 295.555C481.906 295.555 483.102 295.836 484.127 296.396C485.151 296.948 485.949 297.789 486.518 298.919C487.087 300.04 487.372 301.459 487.372 303.176V316H484.271V303.386C484.271 301.801 483.859 300.566 483.036 299.681C482.213 298.788 481.083 298.341 479.646 298.341C478.656 298.341 477.772 298.556 476.992 298.985C476.221 299.414 475.612 300.04 475.166 300.864C474.719 301.687 474.496 302.686 474.496 303.859Z" fill="#717171"/>
<path d="M1217.54 271V244.091H1220.8V268.109H1233.31V271H1217.54ZM1243.87 271.473C1242.59 271.473 1241.43 271.232 1240.39 270.75C1239.35 270.26 1238.52 269.555 1237.91 268.635C1237.29 267.706 1236.99 266.585 1236.99 265.271C1236.99 264.115 1237.22 263.178 1237.67 262.46C1238.13 261.732 1238.74 261.163 1239.5 260.751C1240.26 260.34 1241.1 260.033 1242.02 259.832C1242.95 259.621 1243.88 259.455 1244.82 259.332C1246.05 259.175 1247.04 259.056 1247.8 258.978C1248.57 258.89 1249.13 258.746 1249.48 258.544C1249.84 258.343 1250.02 257.992 1250.02 257.493V257.388C1250.02 256.091 1249.67 255.084 1248.96 254.366C1248.26 253.647 1247.19 253.288 1245.76 253.288C1244.28 253.288 1243.12 253.612 1242.28 254.261C1241.44 254.909 1240.85 255.601 1240.51 256.337L1237.57 255.286C1238.09 254.059 1238.79 253.104 1239.67 252.421C1240.55 251.729 1241.52 251.247 1242.56 250.976C1243.61 250.696 1244.64 250.555 1245.66 250.555C1246.31 250.555 1247.05 250.634 1247.89 250.792C1248.74 250.941 1249.56 251.252 1250.35 251.725C1251.15 252.198 1251.81 252.912 1252.33 253.866C1252.86 254.821 1253.12 256.1 1253.12 257.703V271H1250.02V268.267H1249.86C1249.65 268.705 1249.3 269.174 1248.81 269.673C1248.32 270.172 1247.67 270.597 1246.86 270.947C1246.04 271.298 1245.05 271.473 1243.87 271.473ZM1244.35 268.688C1245.57 268.688 1246.61 268.447 1247.45 267.965C1248.3 267.483 1248.94 266.861 1249.36 266.099C1249.8 265.337 1250.02 264.536 1250.02 263.695V260.857C1249.89 261.014 1249.6 261.159 1249.15 261.29C1248.72 261.413 1248.21 261.522 1247.63 261.619C1247.06 261.706 1246.5 261.785 1245.96 261.855C1245.43 261.916 1244.99 261.969 1244.66 262.013C1243.86 262.118 1243.1 262.289 1242.4 262.525C1241.71 262.753 1241.15 263.099 1240.72 263.563C1240.3 264.019 1240.09 264.641 1240.09 265.429C1240.09 266.506 1240.49 267.321 1241.28 267.873C1242.09 268.416 1243.11 268.688 1244.35 268.688ZM1273.08 255.338L1270.29 256.126C1270.12 255.662 1269.86 255.211 1269.52 254.773C1269.18 254.326 1268.73 253.958 1268.15 253.669C1267.57 253.38 1266.83 253.236 1265.93 253.236C1264.7 253.236 1263.67 253.52 1262.84 254.09C1262.03 254.65 1261.62 255.364 1261.62 256.232C1261.62 257.002 1261.9 257.611 1262.46 258.058C1263.02 258.505 1263.9 258.877 1265.09 259.175L1268.08 259.911C1269.89 260.348 1271.23 261.019 1272.12 261.921C1273 262.814 1273.45 263.966 1273.45 265.376C1273.45 266.533 1273.11 267.566 1272.45 268.477C1271.79 269.388 1270.87 270.107 1269.69 270.632C1268.51 271.158 1267.13 271.42 1265.56 271.42C1263.5 271.42 1261.8 270.974 1260.45 270.08C1259.1 269.187 1258.25 267.882 1257.89 266.165L1260.83 265.429C1261.11 266.515 1261.64 267.33 1262.42 267.873C1263.21 268.416 1264.24 268.688 1265.51 268.688C1266.95 268.688 1268.1 268.381 1268.95 267.768C1269.81 267.146 1270.24 266.401 1270.24 265.534C1270.24 264.833 1269.99 264.246 1269.5 263.773C1269.01 263.292 1268.26 262.933 1267.24 262.696L1263.88 261.908C1262.03 261.47 1260.67 260.791 1259.81 259.871C1258.95 258.943 1258.52 257.782 1258.52 256.389C1258.52 255.25 1258.84 254.243 1259.48 253.367C1260.13 252.491 1261.01 251.804 1262.12 251.304C1263.24 250.805 1264.51 250.555 1265.93 250.555C1267.93 250.555 1269.5 250.993 1270.63 251.869C1271.78 252.745 1272.6 253.902 1273.08 255.338ZM1286.89 250.818V253.446H1276.43V250.818H1286.89ZM1279.48 245.983H1282.58V265.219C1282.58 266.095 1282.71 266.752 1282.96 267.19C1283.22 267.619 1283.56 267.908 1283.96 268.057C1284.37 268.197 1284.81 268.267 1285.26 268.267C1285.6 268.267 1285.88 268.25 1286.1 268.214C1286.32 268.171 1286.5 268.136 1286.63 268.109L1287.26 270.895C1287.05 270.974 1286.75 271.053 1286.38 271.131C1286 271.219 1285.52 271.263 1284.95 271.263C1284.07 271.263 1283.21 271.074 1282.37 270.698C1281.54 270.321 1280.85 269.747 1280.29 268.977C1279.75 268.206 1279.48 267.233 1279.48 266.06V245.983ZM1204.76 291.982V289.091H1224.94V291.982H1216.48V316H1213.22V291.982H1204.76ZM1227.46 316V295.818H1230.45V298.866H1230.66C1231.03 297.868 1231.69 297.058 1232.66 296.436C1233.62 295.814 1234.71 295.503 1235.92 295.503C1236.14 295.503 1236.43 295.507 1236.77 295.516C1237.11 295.525 1237.37 295.538 1237.55 295.555V298.709C1237.44 298.683 1237.2 298.643 1236.82 298.591C1236.46 298.529 1236.07 298.499 1235.65 298.499C1234.67 298.499 1233.8 298.704 1233.03 299.116C1232.26 299.519 1231.66 300.08 1231.21 300.798C1230.78 301.507 1230.56 302.318 1230.56 303.229V316H1227.46ZM1247.16 316.473C1245.88 316.473 1244.72 316.232 1243.68 315.75C1242.64 315.26 1241.81 314.555 1241.2 313.635C1240.58 312.706 1240.28 311.585 1240.28 310.271C1240.28 309.115 1240.5 308.178 1240.96 307.46C1241.41 306.732 1242.02 306.163 1242.79 305.751C1243.55 305.34 1244.39 305.033 1245.31 304.832C1246.24 304.621 1247.17 304.455 1248.11 304.332C1249.33 304.175 1250.33 304.056 1251.09 303.978C1251.86 303.89 1252.42 303.746 1252.77 303.544C1253.13 303.343 1253.31 302.992 1253.31 302.493V302.388C1253.31 301.091 1252.96 300.084 1252.25 299.366C1251.54 298.647 1250.48 298.288 1249.05 298.288C1247.57 298.288 1246.41 298.612 1245.57 299.261C1244.73 299.909 1244.14 300.601 1243.8 301.337L1240.85 300.286C1241.38 299.059 1242.08 298.104 1242.96 297.421C1243.84 296.729 1244.8 296.247 1245.85 295.976C1246.9 295.696 1247.93 295.555 1248.95 295.555C1249.6 295.555 1250.34 295.634 1251.18 295.792C1252.03 295.941 1252.85 296.252 1253.64 296.725C1254.44 297.198 1255.1 297.912 1255.62 298.866C1256.15 299.821 1256.41 301.1 1256.41 302.703V316H1253.31V313.267H1253.15C1252.94 313.705 1252.59 314.174 1252.1 314.673C1251.61 315.172 1250.96 315.597 1250.14 315.947C1249.33 316.298 1248.33 316.473 1247.16 316.473ZM1247.63 313.688C1248.86 313.688 1249.89 313.447 1250.73 312.965C1251.58 312.483 1252.22 311.861 1252.65 311.099C1253.09 310.337 1253.31 309.536 1253.31 308.695V305.857C1253.18 306.014 1252.89 306.159 1252.44 306.29C1252 306.413 1251.5 306.522 1250.92 306.619C1250.35 306.706 1249.79 306.785 1249.25 306.855C1248.72 306.916 1248.28 306.969 1247.95 307.013C1247.14 307.118 1246.39 307.289 1245.69 307.525C1245 307.753 1244.44 308.099 1244.01 308.563C1243.59 309.019 1243.38 309.641 1243.38 310.429C1243.38 311.506 1243.78 312.321 1244.57 312.873C1245.38 313.416 1246.4 313.688 1247.63 313.688ZM1270.27 316.42C1268.38 316.42 1266.75 315.974 1265.38 315.08C1264.02 314.187 1262.96 312.956 1262.23 311.388C1261.49 309.82 1261.12 308.029 1261.12 306.014C1261.12 303.964 1261.5 302.156 1262.25 300.588C1263.02 299.011 1264.08 297.78 1265.43 296.896C1266.8 296.002 1268.39 295.555 1270.22 295.555C1271.64 295.555 1272.91 295.818 1274.05 296.344C1275.19 296.869 1276.13 297.605 1276.85 298.551C1277.58 299.497 1278.03 300.601 1278.21 301.862H1275.1C1274.87 300.942 1274.34 300.128 1273.53 299.418C1272.72 298.7 1271.64 298.341 1270.27 298.341C1269.06 298.341 1268 298.656 1267.09 299.287C1266.19 299.909 1265.48 300.789 1264.97 301.928C1264.47 303.058 1264.23 304.385 1264.23 305.909C1264.23 307.468 1264.47 308.826 1264.96 309.982C1265.46 311.138 1266.16 312.036 1267.06 312.676C1267.97 313.315 1269.04 313.635 1270.27 313.635C1271.08 313.635 1271.81 313.495 1272.46 313.214C1273.12 312.934 1273.68 312.531 1274.13 312.006C1274.59 311.48 1274.91 310.849 1275.1 310.114H1278.21C1278.03 311.305 1277.6 312.378 1276.9 313.333C1276.22 314.279 1275.31 315.032 1274.18 315.593C1273.06 316.145 1271.76 316.42 1270.27 316.42ZM1285.63 308.642L1285.58 304.805H1286.21L1295.04 295.818H1298.87L1289.47 305.331H1289.2L1285.63 308.642ZM1282.74 316V289.091H1285.84V316H1282.74ZM1295.56 316L1287.68 306.014L1289.89 303.859L1299.5 316H1295.56Z" fill="#717171"/>
<path d="M289.181 170.398C287.306 170.398 285.634 170.076 284.167 169.432C282.708 168.788 281.548 167.893 280.686 166.747C279.834 165.592 279.37 164.252 279.294 162.727H282.874C282.95 163.665 283.272 164.474 283.84 165.156C284.408 165.829 285.151 166.349 286.07 166.719C286.989 167.088 288.007 167.273 289.124 167.273C290.374 167.273 291.482 167.055 292.448 166.619C293.414 166.184 294.171 165.578 294.721 164.801C295.27 164.025 295.544 163.125 295.544 162.102C295.544 161.032 295.279 160.09 294.749 159.276C294.219 158.452 293.442 157.808 292.419 157.344C291.397 156.88 290.147 156.648 288.669 156.648H286.34V153.523H288.669C289.825 153.523 290.838 153.314 291.709 152.898C292.59 152.481 293.276 151.894 293.769 151.136C294.271 150.379 294.522 149.489 294.522 148.466C294.522 147.481 294.304 146.624 293.868 145.895C293.433 145.166 292.817 144.598 292.022 144.19C291.236 143.783 290.308 143.58 289.238 143.58C288.234 143.58 287.287 143.764 286.397 144.134C285.516 144.493 284.796 145.019 284.238 145.71C283.679 146.392 283.376 147.216 283.328 148.182H279.919C279.976 146.657 280.435 145.322 281.297 144.176C282.159 143.021 283.286 142.121 284.678 141.477C286.079 140.833 287.618 140.511 289.294 140.511C291.094 140.511 292.637 140.876 293.925 141.605C295.213 142.325 296.203 143.277 296.894 144.46C297.585 145.644 297.931 146.922 297.931 148.295C297.931 149.934 297.5 151.33 296.638 152.486C295.786 153.641 294.626 154.441 293.158 154.886V155.114C294.995 155.417 296.43 156.198 297.462 157.457C298.494 158.707 299.01 160.256 299.01 162.102C299.01 163.684 298.579 165.104 297.718 166.364C296.865 167.614 295.701 168.598 294.223 169.318C292.746 170.038 291.065 170.398 289.181 170.398ZM305.729 170L318.74 144.261V144.034H303.74V140.909H322.377V144.205L309.422 170H305.729Z" fill="white"/>
<path d="M407.7 170.398C406.033 170.398 404.532 170.066 403.197 169.403C401.862 168.741 400.792 167.831 399.987 166.676C399.182 165.521 398.742 164.205 398.666 162.727H402.075C402.208 164.044 402.804 165.133 403.865 165.994C404.935 166.847 406.213 167.273 407.7 167.273C408.893 167.273 409.954 166.993 410.882 166.435C411.819 165.876 412.553 165.109 413.083 164.134C413.623 163.149 413.893 162.036 413.893 160.795C413.893 159.527 413.614 158.395 413.055 157.401C412.506 156.397 411.748 155.606 410.782 155.028C409.816 154.451 408.713 154.157 407.473 154.148C406.583 154.138 405.669 154.276 404.731 154.56C403.794 154.834 403.022 155.189 402.416 155.625L399.12 155.227L400.882 140.909H415.995V144.034H403.836L402.814 152.614H402.984C403.581 152.14 404.329 151.747 405.228 151.435C406.128 151.122 407.065 150.966 408.041 150.966C409.821 150.966 411.407 151.392 412.799 152.244C414.201 153.087 415.299 154.242 416.095 155.71C416.9 157.178 417.302 158.854 417.302 160.739C417.302 162.595 416.886 164.252 416.052 165.71C415.228 167.159 414.092 168.305 412.643 169.148C411.194 169.981 409.547 170.398 407.7 170.398ZM432.775 170.398C430.9 170.398 429.228 170.076 427.76 169.432C426.302 168.788 425.142 167.893 424.28 166.747C423.428 165.592 422.964 164.252 422.888 162.727H426.468C426.543 163.665 426.865 164.474 427.434 165.156C428.002 165.829 428.745 166.349 429.664 166.719C430.582 167.088 431.6 167.273 432.718 167.273C433.968 167.273 435.076 167.055 436.042 166.619C437.007 166.184 437.765 165.578 438.314 164.801C438.864 164.025 439.138 163.125 439.138 162.102C439.138 161.032 438.873 160.09 438.343 159.276C437.812 158.452 437.036 157.808 436.013 157.344C434.99 156.88 433.74 156.648 432.263 156.648H429.934V153.523H432.263C433.418 153.523 434.432 153.314 435.303 152.898C436.184 152.481 436.87 151.894 437.363 151.136C437.864 150.379 438.115 149.489 438.115 148.466C438.115 147.481 437.898 146.624 437.462 145.895C437.026 145.166 436.411 144.598 435.615 144.19C434.829 143.783 433.901 143.58 432.831 143.58C431.828 143.58 430.881 143.764 429.99 144.134C429.11 144.493 428.39 145.019 427.831 145.71C427.273 146.392 426.97 147.216 426.922 148.182H423.513C423.57 146.657 424.029 145.322 424.891 144.176C425.753 143.021 426.88 142.121 428.272 141.477C429.673 140.833 431.212 140.511 432.888 140.511C434.687 140.511 436.231 140.876 437.519 141.605C438.807 142.325 439.796 143.277 440.488 144.46C441.179 145.644 441.525 146.922 441.525 148.295C441.525 149.934 441.094 151.33 440.232 152.486C439.38 153.641 438.22 154.441 436.752 154.886V155.114C438.589 155.417 440.024 156.198 441.056 157.457C442.088 158.707 442.604 160.256 442.604 162.102C442.604 163.684 442.173 165.104 441.311 166.364C440.459 167.614 439.294 168.598 437.817 169.318C436.34 170.038 434.659 170.398 432.775 170.398Z" fill="white"/>
<path d="M528.522 170.398C527.329 170.379 526.136 170.152 524.942 169.716C523.749 169.28 522.66 168.546 521.675 167.514C520.691 166.473 519.9 165.066 519.303 163.295C518.707 161.515 518.408 159.28 518.408 156.591C518.408 154.015 518.65 151.733 519.133 149.744C519.616 147.746 520.317 146.065 521.235 144.702C522.154 143.329 523.262 142.287 524.559 141.577C525.866 140.866 527.338 140.511 528.977 140.511C530.605 140.511 532.054 140.838 533.323 141.491C534.602 142.135 535.643 143.035 536.448 144.19C537.253 145.346 537.774 146.676 538.011 148.182H534.545C534.223 146.875 533.598 145.791 532.67 144.929C531.742 144.067 530.511 143.636 528.977 143.636C526.723 143.636 524.947 144.616 523.65 146.577C522.362 148.537 521.713 151.288 521.704 154.83H521.931C522.461 154.025 523.091 153.338 523.82 152.77C524.559 152.192 525.373 151.747 526.263 151.435C527.154 151.122 528.096 150.966 529.09 150.966C530.757 150.966 532.281 151.383 533.664 152.216C535.047 153.04 536.155 154.181 536.988 155.639C537.821 157.088 538.238 158.75 538.238 160.625C538.238 162.424 537.835 164.072 537.031 165.568C536.226 167.055 535.094 168.239 533.636 169.119C532.187 169.991 530.482 170.417 528.522 170.398ZM528.522 167.273C529.715 167.273 530.785 166.974 531.732 166.378C532.689 165.781 533.442 164.981 533.991 163.977C534.549 162.973 534.829 161.856 534.829 160.625C534.829 159.422 534.559 158.329 534.019 157.344C533.489 156.349 532.755 155.559 531.817 154.972C530.889 154.384 529.829 154.091 528.636 154.091C527.736 154.091 526.898 154.271 526.121 154.631C525.345 154.981 524.663 155.464 524.076 156.08C523.498 156.695 523.044 157.401 522.712 158.196C522.381 158.982 522.215 159.811 522.215 160.682C522.215 161.837 522.485 162.917 523.025 163.92C523.574 164.924 524.322 165.734 525.269 166.349C526.226 166.965 527.31 167.273 528.522 167.273ZM552.915 170.398C551.248 170.398 549.747 170.066 548.412 169.403C547.077 168.741 546.007 167.831 545.202 166.676C544.397 165.521 543.956 164.205 543.881 162.727H547.29C547.422 164.044 548.019 165.133 549.08 165.994C550.15 166.847 551.428 167.273 552.915 167.273C554.108 167.273 555.169 166.993 556.097 166.435C557.034 165.876 557.768 165.109 558.298 164.134C558.838 163.149 559.108 162.036 559.108 160.795C559.108 159.527 558.829 158.395 558.27 157.401C557.721 156.397 556.963 155.606 555.997 155.028C555.031 154.451 553.928 154.157 552.688 154.148C551.797 154.138 550.884 154.276 549.946 154.56C549.009 154.834 548.237 155.189 547.631 155.625L544.335 155.227L546.097 140.909H561.21V144.034H549.051L548.028 152.614H548.199C548.795 152.14 549.544 151.747 550.443 151.435C551.343 151.122 552.28 150.966 553.256 150.966C555.036 150.966 556.622 151.392 558.014 152.244C559.416 153.087 560.514 154.242 561.31 155.71C562.115 157.178 562.517 158.854 562.517 160.739C562.517 162.595 562.1 164.252 561.267 165.71C560.443 167.159 559.307 168.305 557.858 169.148C556.409 169.981 554.761 170.398 552.915 170.398Z" fill="white"/>
<path d="M466.25 32.4545C466.25 35.6269 465.648 38.3258 464.446 40.5511C463.252 42.7765 461.624 44.4763 459.559 45.6506C457.504 46.8153 455.194 47.3977 452.627 47.3977C450.042 47.3977 447.722 46.8106 445.667 45.6364C443.612 44.4621 441.988 42.7623 440.795 40.5369C439.602 38.3116 439.005 35.6174 439.005 32.4545C439.005 29.2822 439.602 26.5833 440.795 24.358C441.988 22.1326 443.612 20.4375 445.667 19.2727C447.722 18.0985 450.042 17.5114 452.627 17.5114C455.194 17.5114 457.504 18.0985 459.559 19.2727C461.624 20.4375 463.252 22.1326 464.446 24.358C465.648 26.5833 466.25 29.2822 466.25 32.4545ZM460.014 32.4545C460.014 30.3996 459.706 28.6667 459.091 27.2557C458.484 25.8447 457.627 24.7746 456.52 24.0455C455.412 23.3163 454.114 22.9517 452.627 22.9517C451.141 22.9517 449.843 23.3163 448.735 24.0455C447.627 24.7746 446.766 25.8447 446.15 27.2557C445.544 28.6667 445.241 30.3996 445.241 32.4545C445.241 34.5095 445.544 36.2424 446.15 37.6534C446.766 39.0644 447.627 40.1345 448.735 40.8636C449.843 41.5928 451.141 41.9574 452.627 41.9574C454.114 41.9574 455.412 41.5928 456.52 40.8636C457.627 40.1345 458.484 39.0644 459.091 37.6534C459.706 36.2424 460.014 34.5095 460.014 32.4545ZM470.692 47V25.1818H476.559V28.9886H476.786C477.184 27.6345 477.851 26.6117 478.789 25.9205C479.726 25.2197 480.806 24.8693 482.027 24.8693C482.33 24.8693 482.657 24.8883 483.007 24.9261C483.358 24.964 483.666 25.0161 483.931 25.0824V30.4517C483.647 30.3665 483.254 30.2907 482.752 30.2244C482.25 30.1581 481.791 30.125 481.374 30.125C480.484 30.125 479.688 30.3191 478.988 30.7074C478.296 31.0862 477.747 31.6165 477.34 32.2983C476.942 32.9801 476.743 33.7661 476.743 34.6562V47H470.692ZM494.083 47.3551C492.426 47.3551 490.925 46.929 489.581 46.0767C488.245 45.215 487.185 43.9508 486.399 42.2841C485.622 40.608 485.234 38.553 485.234 36.1193C485.234 33.6193 485.636 31.5407 486.441 29.8835C487.246 28.2169 488.316 26.9716 489.652 26.1477C490.996 25.3144 492.469 24.8977 494.069 24.8977C495.291 24.8977 496.309 25.1061 497.123 25.5227C497.947 25.9299 498.61 26.4413 499.112 27.0568C499.623 27.6629 500.011 28.2595 500.277 28.8466H500.461V17.9091H506.498V47H500.532V43.5057H500.277C499.993 44.1117 499.59 44.7131 499.069 45.3097C498.558 45.8968 497.89 46.3845 497.066 46.7727C496.252 47.161 495.258 47.3551 494.083 47.3551ZM496.001 42.5398C496.976 42.5398 497.8 42.2746 498.473 41.7443C499.154 41.2045 499.675 40.4517 500.035 39.4858C500.404 38.5199 500.589 37.3883 500.589 36.0909C500.589 34.7936 500.409 33.6667 500.049 32.7102C499.69 31.7538 499.169 31.0152 498.487 30.4943C497.805 29.9735 496.976 29.7131 496.001 29.7131C495.007 29.7131 494.169 29.983 493.487 30.5227C492.805 31.0625 492.289 31.8106 491.939 32.767C491.588 33.7235 491.413 34.8314 491.413 36.0909C491.413 37.3598 491.588 38.482 491.939 39.4574C492.298 40.4233 492.815 41.1809 493.487 41.7301C494.169 42.2699 495.007 42.5398 496.001 42.5398ZM521.417 47.4261C519.172 47.4261 517.24 46.9716 515.621 46.0625C514.011 45.1439 512.771 43.8466 511.9 42.1705C511.028 40.4848 510.593 38.4915 510.593 36.1903C510.593 33.946 511.028 31.9763 511.9 30.2812C512.771 28.5862 513.997 27.2652 515.578 26.3182C517.169 25.3712 519.035 24.8977 521.175 24.8977C522.614 24.8977 523.954 25.1297 525.195 25.5938C526.445 26.0483 527.534 26.7348 528.462 27.6534C529.4 28.572 530.129 29.7273 530.65 31.1193C531.17 32.5019 531.431 34.1212 531.431 35.9773V37.6392H513.007V33.8892H525.735C525.735 33.018 525.545 32.2462 525.167 31.5739C524.788 30.9015 524.262 30.3759 523.59 29.9972C522.927 29.6089 522.155 29.4148 521.275 29.4148C520.356 29.4148 519.542 29.6278 518.831 30.054C518.131 30.4706 517.581 31.0341 517.184 31.7443C516.786 32.4451 516.582 33.2263 516.573 34.0881V37.6534C516.573 38.733 516.772 39.6657 517.169 40.4517C517.577 41.2377 518.15 41.8438 518.888 42.2699C519.627 42.696 520.503 42.9091 521.516 42.9091C522.188 42.9091 522.804 42.8144 523.363 42.625C523.921 42.4356 524.4 42.1515 524.797 41.7727C525.195 41.3939 525.498 40.9299 525.706 40.3807L531.303 40.75C531.019 42.0947 530.436 43.2689 529.556 44.2727C528.685 45.267 527.558 46.0436 526.175 46.6023C524.802 47.1515 523.216 47.4261 521.417 47.4261ZM535.38 47V25.1818H541.246V28.9886H541.473C541.871 27.6345 542.539 26.6117 543.476 25.9205C544.414 25.2197 545.493 24.8693 546.715 24.8693C547.018 24.8693 547.345 24.8883 547.695 24.9261C548.045 24.964 548.353 25.0161 548.618 25.0824V30.4517C548.334 30.3665 547.941 30.2907 547.439 30.2244C546.937 30.1581 546.478 30.125 546.061 30.125C545.171 30.125 544.376 30.3191 543.675 30.7074C542.984 31.0862 542.435 31.6165 542.027 32.2983C541.63 32.9801 541.431 33.7661 541.431 34.6562V47H535.38ZM560.674 47.4261C558.43 47.4261 556.498 46.9716 554.879 46.0625C553.269 45.1439 552.029 43.8466 551.157 42.1705C550.286 40.4848 549.85 38.4915 549.85 36.1903C549.85 33.946 550.286 31.9763 551.157 30.2812C552.029 28.5862 553.255 27.2652 554.836 26.3182C556.427 25.3712 558.293 24.8977 560.433 24.8977C561.872 24.8977 563.212 25.1297 564.453 25.5938C565.703 26.0483 566.792 26.7348 567.72 27.6534C568.657 28.572 569.386 29.7273 569.907 31.1193C570.428 32.5019 570.689 34.1212 570.689 35.9773V37.6392H552.265V33.8892H564.993C564.993 33.018 564.803 32.2462 564.424 31.5739C564.046 30.9015 563.52 30.3759 562.848 29.9972C562.185 29.6089 561.413 29.4148 560.532 29.4148C559.614 29.4148 558.799 29.6278 558.089 30.054C557.388 30.4706 556.839 31.0341 556.441 31.7443C556.044 32.4451 555.84 33.2263 555.831 34.0881V37.6534C555.831 38.733 556.029 39.6657 556.427 40.4517C556.834 41.2377 557.407 41.8438 558.146 42.2699C558.885 42.696 559.761 42.9091 560.774 42.9091C561.446 42.9091 562.062 42.8144 562.62 42.625C563.179 42.4356 563.657 42.1515 564.055 41.7727C564.453 41.3939 564.756 40.9299 564.964 40.3807L570.561 40.75C570.277 42.0947 569.694 43.2689 568.814 44.2727C567.942 45.267 566.815 46.0436 565.433 46.6023C564.06 47.1515 562.474 47.4261 560.674 47.4261ZM582.677 47.3551C581.02 47.3551 579.519 46.929 578.174 46.0767C576.839 45.215 575.779 43.9508 574.993 42.2841C574.216 40.608 573.828 38.553 573.828 36.1193C573.828 33.6193 574.23 31.5407 575.035 29.8835C575.84 28.2169 576.91 26.9716 578.245 26.1477C579.59 25.3144 581.063 24.8977 582.663 24.8977C583.885 24.8977 584.903 25.1061 585.717 25.5227C586.541 25.9299 587.204 26.4413 587.706 27.0568C588.217 27.6629 588.605 28.2595 588.87 28.8466H589.055V17.9091H595.092V47H589.126V43.5057H588.87C588.586 44.1117 588.184 44.7131 587.663 45.3097C587.152 45.8968 586.484 46.3845 585.66 46.7727C584.846 47.161 583.851 47.3551 582.677 47.3551ZM584.595 42.5398C585.57 42.5398 586.394 42.2746 587.066 41.7443C587.748 41.2045 588.269 40.4517 588.629 39.4858C588.998 38.5199 589.183 37.3883 589.183 36.0909C589.183 34.7936 589.003 33.6667 588.643 32.7102C588.283 31.7538 587.762 31.0152 587.081 30.4943C586.399 29.9735 585.57 29.7131 584.595 29.7131C583.6 29.7131 582.762 29.983 582.081 30.5227C581.399 31.0625 580.883 31.8106 580.532 32.767C580.182 33.7235 580.007 34.8314 580.007 36.0909C580.007 37.3598 580.182 38.482 580.532 39.4574C580.892 40.4233 581.408 41.1809 582.081 41.7301C582.762 42.2699 583.6 42.5398 584.595 42.5398ZM619.751 47H609.439V17.9091H619.836C622.762 17.9091 625.281 18.4915 627.393 19.6562C629.505 20.8116 631.129 22.4735 632.265 24.642C633.411 26.8106 633.984 29.4053 633.984 32.4261C633.984 35.4564 633.411 38.0606 632.265 40.2386C631.129 42.4167 629.495 44.0881 627.365 45.2528C625.243 46.4176 622.706 47 619.751 47ZM615.589 41.7301H619.495C621.314 41.7301 622.843 41.4081 624.083 40.7642C625.333 40.1108 626.271 39.1023 626.896 37.7386C627.53 36.3655 627.848 34.5947 627.848 32.4261C627.848 30.2765 627.53 28.5199 626.896 27.1562C626.271 25.7926 625.338 24.7888 624.098 24.1449C622.857 23.5009 621.328 23.179 619.51 23.179H615.589V41.7301ZM638.426 47V25.1818H644.478V47H638.426ZM641.466 22.3693C640.567 22.3693 639.795 22.071 639.151 21.4744C638.516 20.8684 638.199 20.1439 638.199 19.3011C638.199 18.4678 638.516 17.7528 639.151 17.1562C639.795 16.5502 640.567 16.2472 641.466 16.2472C642.366 16.2472 643.133 16.5502 643.767 17.1562C644.411 17.7528 644.733 18.4678 644.733 19.3011C644.733 20.1439 644.411 20.8684 643.767 21.4744C643.133 22.071 642.366 22.3693 641.466 22.3693ZM667.478 31.4034L661.939 31.7443C661.844 31.2708 661.64 30.8447 661.328 30.4659C661.015 30.0777 660.603 29.7699 660.092 29.5426C659.59 29.3059 658.989 29.1875 658.288 29.1875C657.35 29.1875 656.56 29.3864 655.916 29.7841C655.272 30.1723 654.95 30.6932 654.95 31.3466C654.95 31.8674 655.158 32.3078 655.575 32.6676C655.992 33.0275 656.707 33.3163 657.72 33.5341L661.669 34.3295C663.79 34.7652 665.371 35.4659 666.413 36.4318C667.455 37.3977 667.975 38.6667 667.975 40.2386C667.975 41.6686 667.554 42.9233 666.711 44.0028C665.878 45.0824 664.732 45.9252 663.274 46.5312C661.825 47.1278 660.154 47.4261 658.26 47.4261C655.371 47.4261 653.07 46.8248 651.356 45.6222C649.652 44.41 648.653 42.7623 648.359 40.679L654.311 40.3665C654.491 41.2472 654.926 41.9195 655.618 42.3835C656.309 42.8381 657.194 43.0653 658.274 43.0653C659.334 43.0653 660.187 42.8617 660.831 42.4545C661.484 42.0379 661.815 41.5028 661.825 40.8494C661.815 40.3002 661.583 39.8504 661.129 39.5C660.674 39.1402 659.974 38.8655 659.027 38.6761L655.248 37.9233C653.118 37.4972 651.531 36.7585 650.49 35.7074C649.458 34.6562 648.941 33.3163 648.941 31.6875C648.941 30.286 649.32 29.0786 650.078 28.0653C650.845 27.0521 651.92 26.2708 653.302 25.7216C654.694 25.1723 656.323 24.8977 658.189 24.8977C660.944 24.8977 663.113 25.4801 664.694 26.6449C666.285 27.8097 667.213 29.3958 667.478 31.4034ZM677.269 40.7216L677.283 33.4631H678.164L685.152 25.1818H692.098L682.709 36.1477H681.275L677.269 40.7216ZM671.786 47V17.9091H677.837V47H671.786ZM685.422 47L679.002 37.4972L683.036 33.2216L692.51 47H685.422ZM704.439 47V17.9091H715.916C718.113 17.9091 719.988 18.3021 721.541 19.0881C723.103 19.8646 724.292 20.9678 725.106 22.3977C725.93 23.8182 726.342 25.4896 726.342 27.4119C726.342 29.3437 725.925 31.0057 725.092 32.3977C724.259 33.7803 723.051 34.8409 721.47 35.5795C719.898 36.3182 717.994 36.6875 715.76 36.6875H708.075V31.7443H714.765C715.94 31.7443 716.915 31.5833 717.691 31.2614C718.468 30.9394 719.046 30.4564 719.424 29.8125C719.813 29.1686 720.007 28.3684 720.007 27.4119C720.007 26.446 719.813 25.6316 719.424 24.9688C719.046 24.3059 718.463 23.804 717.677 23.4631C716.901 23.1127 715.921 22.9375 714.737 22.9375H710.589V47H704.439ZM720.149 33.7614L727.379 47H720.589L713.515 33.7614H720.149ZM740.167 47.4261C737.922 47.4261 735.99 46.9716 734.371 46.0625C732.761 45.1439 731.521 43.8466 730.65 42.1705C729.778 40.4848 729.343 38.4915 729.343 36.1903C729.343 33.946 729.778 31.9763 730.65 30.2812C731.521 28.5862 732.747 27.2652 734.328 26.3182C735.919 25.3712 737.785 24.8977 739.925 24.8977C741.364 24.8977 742.704 25.1297 743.945 25.5938C745.195 26.0483 746.284 26.7348 747.212 27.6534C748.15 28.572 748.879 29.7273 749.4 31.1193C749.92 32.5019 750.181 34.1212 750.181 35.9773V37.6392H731.757V33.8892H744.485C744.485 33.018 744.295 32.2462 743.917 31.5739C743.538 30.9015 743.012 30.3759 742.34 29.9972C741.677 29.6089 740.905 29.4148 740.025 29.4148C739.106 29.4148 738.292 29.6278 737.581 30.054C736.881 30.4706 736.331 31.0341 735.934 31.7443C735.536 32.4451 735.332 33.2263 735.323 34.0881V37.6534C735.323 38.733 735.522 39.6657 735.919 40.4517C736.327 41.2377 736.9 41.8438 737.638 42.2699C738.377 42.696 739.253 42.9091 740.266 42.9091C740.938 42.9091 741.554 42.8144 742.113 42.625C742.671 42.4356 743.15 42.1515 743.547 41.7727C743.945 41.3939 744.248 40.9299 744.456 40.3807L750.053 40.75C749.769 42.0947 749.186 43.2689 748.306 44.2727C747.435 45.267 746.308 46.0436 744.925 46.6023C743.552 47.1515 741.966 47.4261 740.167 47.4261ZM768.547 55.1818V43.5057H768.363C768.078 44.1117 767.676 44.7131 767.155 45.3097C766.644 45.8968 765.976 46.3845 765.152 46.7727C764.338 47.161 763.344 47.3551 762.169 47.3551C760.512 47.3551 759.011 46.929 757.667 46.0767C756.331 45.215 755.271 43.9508 754.485 42.2841C753.708 40.608 753.32 38.553 753.32 36.1193C753.32 33.6193 753.722 31.5407 754.527 29.8835C755.332 28.2169 756.402 26.9716 757.738 26.1477C759.082 25.3144 760.555 24.8977 762.155 24.8977C763.377 24.8977 764.395 25.1061 765.209 25.5227C766.033 25.9299 766.696 26.4413 767.198 27.0568C767.709 27.6629 768.097 28.2595 768.363 28.8466H768.618V25.1818H774.584V55.1818H768.547ZM764.087 42.5398C765.062 42.5398 765.886 42.2746 766.559 41.7443C767.24 41.2045 767.761 40.4517 768.121 39.4858C768.49 38.5199 768.675 37.3883 768.675 36.0909C768.675 34.7936 768.495 33.6667 768.135 32.7102C767.775 31.7538 767.255 31.0152 766.573 30.4943C765.891 29.9735 765.062 29.7131 764.087 29.7131C763.093 29.7131 762.255 29.983 761.573 30.5227C760.891 31.0625 760.375 31.8106 760.025 32.767C759.674 33.7235 759.499 34.8314 759.499 36.0909C759.499 37.3598 759.674 38.482 760.025 39.4574C760.384 40.4233 760.9 41.1809 761.573 41.7301C762.255 42.2699 763.093 42.5398 764.087 42.5398ZM793.434 37.7102V25.1818H799.485V47H793.675V43.0369H793.448C792.955 44.3153 792.136 45.3428 790.99 46.1193C789.854 46.8958 788.467 47.2841 786.828 47.2841C785.37 47.2841 784.087 46.9527 782.979 46.2898C781.871 45.6269 781.005 44.6847 780.38 43.4631C779.764 42.2415 779.452 40.7784 779.442 39.0739V25.1818H785.493V37.9943C785.503 39.2822 785.848 40.3002 786.53 41.0483C787.212 41.7964 788.126 42.1705 789.272 42.1705C790.001 42.1705 790.683 42.0047 791.317 41.6733C791.952 41.3324 792.463 40.8305 792.851 40.1676C793.249 39.5047 793.443 38.6856 793.434 37.7102ZM814.268 47.4261C812.024 47.4261 810.092 46.9716 808.473 46.0625C806.863 45.1439 805.622 43.8466 804.751 42.1705C803.88 40.4848 803.444 38.4915 803.444 36.1903C803.444 33.946 803.88 31.9763 804.751 30.2812C805.622 28.5862 806.849 27.2652 808.43 26.3182C810.021 25.3712 811.886 24.8977 814.027 24.8977C815.466 24.8977 816.806 25.1297 818.047 25.5938C819.297 26.0483 820.386 26.7348 821.314 27.6534C822.251 28.572 822.98 29.7273 823.501 31.1193C824.022 32.5019 824.282 34.1212 824.282 35.9773V37.6392H805.859V33.8892H818.586C818.586 33.018 818.397 32.2462 818.018 31.5739C817.639 30.9015 817.114 30.3759 816.441 29.9972C815.779 29.6089 815.007 29.4148 814.126 29.4148C813.208 29.4148 812.393 29.6278 811.683 30.054C810.982 30.4706 810.433 31.0341 810.035 31.7443C809.637 32.4451 809.434 33.2263 809.424 34.0881V37.6534C809.424 38.733 809.623 39.6657 810.021 40.4517C810.428 41.2377 811.001 41.8438 811.74 42.2699C812.478 42.696 813.354 42.9091 814.368 42.9091C815.04 42.9091 815.655 42.8144 816.214 42.625C816.773 42.4356 817.251 42.1515 817.649 41.7727C818.047 41.3939 818.35 40.9299 818.558 40.3807L824.154 40.75C823.87 42.0947 823.288 43.2689 822.407 44.2727C821.536 45.267 820.409 46.0436 819.027 46.6023C817.654 47.1515 816.067 47.4261 814.268 47.4261ZM846.385 31.4034L840.845 31.7443C840.75 31.2708 840.547 30.8447 840.234 30.4659C839.922 30.0777 839.51 29.7699 838.998 29.5426C838.496 29.3059 837.895 29.1875 837.194 29.1875C836.257 29.1875 835.466 29.3864 834.822 29.7841C834.178 30.1723 833.856 30.6932 833.856 31.3466C833.856 31.8674 834.065 32.3078 834.481 32.6676C834.898 33.0275 835.613 33.3163 836.626 33.5341L840.575 34.3295C842.696 34.7652 844.278 35.4659 845.319 36.4318C846.361 37.3977 846.882 38.6667 846.882 40.2386C846.882 41.6686 846.46 42.9233 845.618 44.0028C844.784 45.0824 843.638 45.9252 842.18 46.5312C840.731 47.1278 839.06 47.4261 837.166 47.4261C834.278 47.4261 831.976 46.8248 830.262 45.6222C828.558 44.41 827.559 42.7623 827.265 40.679L833.217 40.3665C833.397 41.2472 833.833 41.9195 834.524 42.3835C835.215 42.8381 836.1 43.0653 837.18 43.0653C838.241 43.0653 839.093 42.8617 839.737 42.4545C840.39 42.0379 840.722 41.5028 840.731 40.8494C840.722 40.3002 840.49 39.8504 840.035 39.5C839.581 39.1402 838.88 38.8655 837.933 38.6761L834.154 37.9233C832.024 37.4972 830.438 36.7585 829.396 35.7074C828.364 34.6562 827.848 33.3163 827.848 31.6875C827.848 30.286 828.226 29.0786 828.984 28.0653C829.751 27.0521 830.826 26.2708 832.208 25.7216C833.6 25.1723 835.229 24.8977 837.095 24.8977C839.85 24.8977 842.019 25.4801 843.6 26.6449C845.191 27.8097 846.119 29.3958 846.385 31.4034ZM862.297 25.1818V29.7273H849.158V25.1818H862.297ZM852.141 19.9545H858.192V40.2955C858.192 40.8542 858.277 41.2898 858.448 41.6023C858.618 41.9053 858.855 42.1184 859.158 42.2415C859.471 42.3646 859.83 42.4261 860.238 42.4261C860.522 42.4261 860.806 42.4025 861.09 42.3551C861.374 42.2983 861.592 42.2557 861.743 42.2273L862.695 46.7301C862.392 46.8248 861.966 46.9337 861.417 47.0568C860.867 47.1894 860.2 47.2699 859.414 47.2983C857.955 47.3551 856.677 47.161 855.578 46.7159C854.489 46.2708 853.642 45.5795 853.036 44.642C852.43 43.7045 852.132 42.5208 852.141 41.0909V19.9545ZM884.119 31.4034L878.579 31.7443C878.484 31.2708 878.281 30.8447 877.968 30.4659C877.656 30.0777 877.244 29.7699 876.733 29.5426C876.231 29.3059 875.629 29.1875 874.929 29.1875C873.991 29.1875 873.2 29.3864 872.556 29.7841C871.913 30.1723 871.591 30.6932 871.591 31.3466C871.591 31.8674 871.799 32.3078 872.216 32.6676C872.632 33.0275 873.347 33.3163 874.36 33.5341L878.309 34.3295C880.431 34.7652 882.012 35.4659 883.054 36.4318C884.095 37.3977 884.616 38.6667 884.616 40.2386C884.616 41.6686 884.195 42.9233 883.352 44.0028C882.519 45.0824 881.373 45.9252 879.914 46.5312C878.466 47.1278 876.794 47.4261 874.9 47.4261C872.012 47.4261 869.711 46.8248 867.997 45.6222C866.292 44.41 865.293 42.7623 865 40.679L870.951 40.3665C871.131 41.2472 871.567 41.9195 872.258 42.3835C872.949 42.8381 873.835 43.0653 874.914 43.0653C875.975 43.0653 876.827 42.8617 877.471 42.4545C878.125 42.0379 878.456 41.5028 878.466 40.8494C878.456 40.3002 878.224 39.8504 877.77 39.5C877.315 39.1402 876.614 38.8655 875.667 38.6761L871.889 37.9233C869.758 37.4972 868.172 36.7585 867.13 35.7074C866.098 34.6562 865.582 33.3163 865.582 31.6875C865.582 30.286 865.961 29.0786 866.718 28.0653C867.485 27.0521 868.56 26.2708 869.943 25.7216C871.335 25.1723 872.964 24.8977 874.829 24.8977C877.585 24.8977 879.753 25.4801 881.335 26.6449C882.926 27.8097 883.854 29.3958 884.119 31.4034Z" fill="white"/>
<path d="M650.264 170.398C649.071 170.379 647.878 170.152 646.685 169.716C645.491 169.28 644.402 168.546 643.418 167.514C642.433 166.473 641.642 165.066 641.045 163.295C640.449 161.515 640.151 159.28 640.151 156.591C640.151 154.015 640.392 151.733 640.875 149.744C641.358 147.746 642.059 146.065 642.977 144.702C643.896 143.329 645.004 142.287 646.301 141.577C647.608 140.866 649.08 140.511 650.719 140.511C652.348 140.511 653.796 140.838 655.065 141.491C656.344 142.135 657.385 143.035 658.19 144.19C658.995 145.346 659.516 146.676 659.753 148.182H656.287C655.965 146.875 655.34 145.791 654.412 144.929C653.484 144.067 652.253 143.636 650.719 143.636C648.465 143.636 646.689 144.616 645.392 146.577C644.104 148.537 643.455 151.288 643.446 154.83H643.673C644.204 154.025 644.833 153.338 645.562 152.77C646.301 152.192 647.116 151.747 648.006 151.435C648.896 151.122 649.838 150.966 650.832 150.966C652.499 150.966 654.024 151.383 655.406 152.216C656.789 153.04 657.897 154.181 658.73 155.639C659.563 157.088 659.98 158.75 659.98 160.625C659.98 162.424 659.578 164.072 658.773 165.568C657.968 167.055 656.836 168.239 655.378 169.119C653.929 169.991 652.224 170.417 650.264 170.398ZM650.264 167.273C651.457 167.273 652.527 166.974 653.474 166.378C654.431 165.781 655.184 164.981 655.733 163.977C656.292 162.973 656.571 161.856 656.571 160.625C656.571 159.422 656.301 158.329 655.761 157.344C655.231 156.349 654.497 155.559 653.56 154.972C652.632 154.384 651.571 154.091 650.378 154.091C649.478 154.091 648.64 154.271 647.864 154.631C647.087 154.981 646.405 155.464 645.818 156.08C645.241 156.695 644.786 157.401 644.455 158.196C644.123 158.982 643.957 159.811 643.957 160.682C643.957 161.837 644.227 162.917 644.767 163.92C645.316 164.924 646.064 165.734 647.011 166.349C647.968 166.965 649.052 167.273 650.264 167.273ZM666.475 170L679.487 144.261V144.034H664.487V140.909H683.123V144.205L670.168 170H666.475Z" fill="white"/>
<path d="M768.968 140.511C770.161 140.521 771.354 140.748 772.548 141.193C773.741 141.638 774.83 142.377 775.815 143.409C776.799 144.432 777.59 145.829 778.187 147.599C778.783 149.37 779.082 151.591 779.082 154.261C779.082 156.847 778.835 159.143 778.343 161.151C777.86 163.149 777.159 164.834 776.241 166.207C775.332 167.58 774.224 168.622 772.917 169.332C771.62 170.043 770.152 170.398 768.513 170.398C766.885 170.398 765.431 170.076 764.153 169.432C762.884 168.778 761.842 167.874 761.028 166.719C760.223 165.554 759.707 164.205 759.479 162.67H762.945C763.258 164.006 763.878 165.109 764.806 165.98C765.744 166.842 766.979 167.273 768.513 167.273C770.758 167.273 772.529 166.293 773.826 164.332C775.133 162.372 775.786 159.602 775.786 156.023H775.559C775.029 156.818 774.399 157.505 773.67 158.082C772.941 158.66 772.131 159.105 771.241 159.418C770.351 159.73 769.404 159.886 768.4 159.886C766.733 159.886 765.204 159.474 763.812 158.651C762.429 157.817 761.321 156.676 760.488 155.227C759.664 153.769 759.252 152.102 759.252 150.227C759.252 148.447 759.65 146.818 760.445 145.341C761.25 143.854 762.377 142.67 763.826 141.79C765.284 140.909 766.998 140.483 768.968 140.511ZM768.968 143.636C767.775 143.636 766.7 143.935 765.744 144.531C764.797 145.118 764.044 145.914 763.485 146.918C762.936 147.912 762.661 149.015 762.661 150.227C762.661 151.439 762.926 152.543 763.457 153.537C763.996 154.522 764.73 155.308 765.658 155.895C766.596 156.473 767.661 156.761 768.854 156.761C769.754 156.761 770.592 156.586 771.369 156.236C772.145 155.876 772.822 155.388 773.4 154.773C773.987 154.148 774.446 153.442 774.778 152.656C775.109 151.861 775.275 151.032 775.275 150.17C775.275 149.034 775 147.969 774.451 146.974C773.911 145.98 773.163 145.175 772.207 144.56C771.26 143.944 770.18 143.636 768.968 143.636ZM793.986 170.398C792.035 170.398 790.312 170.052 788.815 169.361C787.329 168.66 786.169 167.699 785.335 166.477C784.502 165.246 784.09 163.845 784.099 162.273C784.09 161.042 784.331 159.905 784.824 158.864C785.316 157.812 785.989 156.937 786.841 156.236C787.703 155.526 788.664 155.076 789.724 154.886V154.716C788.332 154.356 787.224 153.575 786.401 152.372C785.577 151.16 785.17 149.782 785.179 148.239C785.17 146.761 785.544 145.44 786.301 144.276C787.059 143.111 788.1 142.192 789.426 141.52C790.761 140.848 792.281 140.511 793.986 140.511C795.671 140.511 797.177 140.848 798.503 141.52C799.829 142.192 800.87 143.111 801.628 144.276C802.395 145.44 802.783 146.761 802.793 148.239C802.783 149.782 802.362 151.16 801.528 152.372C800.705 153.575 799.611 154.356 798.247 154.716V154.886C799.298 155.076 800.245 155.526 801.088 156.236C801.931 156.937 802.603 157.812 803.105 158.864C803.607 159.905 803.863 161.042 803.872 162.273C803.863 163.845 803.437 165.246 802.594 166.477C801.76 167.699 800.6 168.66 799.114 169.361C797.636 170.052 795.927 170.398 793.986 170.398ZM793.986 167.273C795.302 167.273 796.438 167.06 797.395 166.634C798.351 166.207 799.09 165.606 799.611 164.83C800.132 164.053 800.397 163.144 800.406 162.102C800.397 161.004 800.113 160.033 799.554 159.19C798.995 158.348 798.233 157.685 797.267 157.202C796.311 156.719 795.217 156.477 793.986 156.477C792.745 156.477 791.637 156.719 790.662 157.202C789.696 157.685 788.934 158.348 788.375 159.19C787.826 160.033 787.556 161.004 787.565 162.102C787.556 163.144 787.807 164.053 788.318 164.83C788.839 165.606 789.582 166.207 790.548 166.634C791.514 167.06 792.66 167.273 793.986 167.273ZM793.986 153.466C795.027 153.466 795.951 153.258 796.756 152.841C797.57 152.424 798.209 151.842 798.673 151.094C799.137 150.346 799.374 149.47 799.384 148.466C799.374 147.481 799.142 146.624 798.688 145.895C798.233 145.156 797.603 144.588 796.798 144.19C795.993 143.783 795.056 143.58 793.986 143.58C792.897 143.58 791.945 143.783 791.131 144.19C790.316 144.588 789.687 145.156 789.241 145.895C788.796 146.624 788.579 147.481 788.588 148.466C788.579 149.47 788.801 150.346 789.256 151.094C789.72 151.842 790.359 152.424 791.173 152.841C791.988 153.258 792.925 153.466 793.986 153.466Z" fill="white"/>
<path d="M881.223 140.909V170H877.7V144.602H877.53L870.428 149.318V145.739L877.7 140.909H881.223ZM889.589 170V167.443L899.192 156.932C900.319 155.701 901.247 154.631 901.976 153.722C902.705 152.803 903.245 151.941 903.595 151.136C903.955 150.322 904.135 149.47 904.135 148.58C904.135 147.557 903.889 146.671 903.396 145.923C902.913 145.175 902.25 144.598 901.408 144.19C900.565 143.783 899.618 143.58 898.567 143.58C897.449 143.58 896.474 143.812 895.641 144.276C894.817 144.73 894.178 145.369 893.723 146.193C893.278 147.017 893.055 147.983 893.055 149.091H889.703C889.703 147.386 890.096 145.89 890.882 144.602C891.668 143.314 892.738 142.311 894.092 141.591C895.456 140.871 896.985 140.511 898.68 140.511C900.385 140.511 901.895 140.871 903.212 141.591C904.528 142.311 905.56 143.281 906.308 144.503C907.056 145.724 907.43 147.083 907.43 148.58C907.43 149.65 907.236 150.696 906.848 151.719C906.469 152.732 905.806 153.864 904.859 155.114C903.922 156.354 902.62 157.869 900.953 159.659L894.419 166.648V166.875H907.942V170H889.589ZM913.808 170V167.443L923.411 156.932C924.537 155.701 925.465 154.631 926.195 153.722C926.924 152.803 927.464 151.941 927.814 151.136C928.174 150.322 928.354 149.47 928.354 148.58C928.354 147.557 928.107 146.671 927.615 145.923C927.132 145.175 926.469 144.598 925.626 144.19C924.784 143.783 923.837 143.58 922.786 143.58C921.668 143.58 920.693 143.812 919.859 144.276C919.036 144.73 918.396 145.369 917.942 146.193C917.497 147.017 917.274 147.983 917.274 149.091H913.922C913.922 147.386 914.315 145.89 915.101 144.602C915.887 143.314 916.957 142.311 918.311 141.591C919.675 140.871 921.204 140.511 922.899 140.511C924.604 140.511 926.114 140.871 927.43 141.591C928.747 142.311 929.779 143.281 930.527 144.503C931.275 145.724 931.649 147.083 931.649 148.58C931.649 149.65 931.455 150.696 931.067 151.719C930.688 152.732 930.025 153.864 929.078 155.114C928.141 156.354 926.839 157.869 925.172 159.659L918.638 166.648V166.875H932.161V170H913.808Z" fill="white"/>
<path d="M1000.81 140.909V170H997.29V144.602H997.12L990.017 149.318V145.739L997.29 140.909H1000.81ZM1009.18 170V167.443L1018.78 156.932C1019.91 155.701 1020.84 154.631 1021.57 153.722C1022.29 152.803 1022.83 151.941 1023.19 151.136C1023.54 150.322 1023.72 149.47 1023.72 148.58C1023.72 147.557 1023.48 146.671 1022.99 145.923C1022.5 145.175 1021.84 144.598 1021 144.19C1020.15 143.783 1019.21 143.58 1018.16 143.58C1017.04 143.58 1016.06 143.812 1015.23 144.276C1014.41 144.73 1013.77 145.369 1013.31 146.193C1012.87 147.017 1012.65 147.983 1012.65 149.091H1009.29C1009.29 147.386 1009.69 145.89 1010.47 144.602C1011.26 143.314 1012.33 142.311 1013.68 141.591C1015.05 140.871 1016.58 140.511 1018.27 140.511C1019.97 140.511 1021.49 140.871 1022.8 141.591C1024.12 142.311 1025.15 143.281 1025.9 144.503C1026.65 145.724 1027.02 147.083 1027.02 148.58C1027.02 149.65 1026.83 150.696 1026.44 151.719C1026.06 152.732 1025.4 153.864 1024.45 155.114C1023.51 156.354 1022.21 157.869 1020.54 159.659L1014.01 166.648V166.875H1027.53V170H1009.18ZM1032.09 164.034V161.136L1044.88 140.909H1046.98V145.398H1045.56L1035.9 160.682V160.909H1053.11V164.034H1032.09ZM1045.78 170V163.153V161.804V140.909H1049.14V170H1045.78Z" fill="white"/>
<path d="M1120.38 140.909V170H1116.86V144.602H1116.69L1109.59 149.318V145.739L1116.86 140.909H1120.38ZM1138.07 170.398C1136.12 170.398 1134.39 170.052 1132.9 169.361C1131.41 168.66 1130.25 167.699 1129.42 166.477C1128.58 165.246 1128.17 163.845 1128.18 162.273C1128.17 161.042 1128.41 159.905 1128.91 158.864C1129.4 157.812 1130.07 156.937 1130.92 156.236C1131.78 155.526 1132.75 155.076 1133.81 154.886V154.716C1132.41 154.356 1131.31 153.575 1130.48 152.372C1129.66 151.16 1129.25 149.782 1129.26 148.239C1129.25 146.761 1129.63 145.44 1130.38 144.276C1131.14 143.111 1132.18 142.192 1133.51 141.52C1134.84 140.848 1136.36 140.511 1138.07 140.511C1139.75 140.511 1141.26 140.848 1142.58 141.52C1143.91 142.192 1144.95 143.111 1145.71 144.276C1146.48 145.44 1146.87 146.761 1146.87 148.239C1146.87 149.782 1146.44 151.16 1145.61 152.372C1144.79 153.575 1143.69 154.356 1142.33 154.716V154.886C1143.38 155.076 1144.33 155.526 1145.17 156.236C1146.01 156.937 1146.69 157.812 1147.19 158.864C1147.69 159.905 1147.94 161.042 1147.95 162.273C1147.94 163.845 1147.52 165.246 1146.68 166.477C1145.84 167.699 1144.68 168.66 1143.2 169.361C1141.72 170.052 1140.01 170.398 1138.07 170.398ZM1138.07 167.273C1139.38 167.273 1140.52 167.06 1141.48 166.634C1142.43 166.207 1143.17 165.606 1143.69 164.83C1144.21 164.053 1144.48 163.144 1144.49 162.102C1144.48 161.004 1144.19 160.033 1143.64 159.19C1143.08 158.348 1142.31 157.685 1141.35 157.202C1140.39 156.719 1139.3 156.477 1138.07 156.477C1136.83 156.477 1135.72 156.719 1134.74 157.202C1133.78 157.685 1133.02 158.348 1132.46 159.19C1131.91 160.033 1131.64 161.004 1131.65 162.102C1131.64 163.144 1131.89 164.053 1132.4 164.83C1132.92 165.606 1133.66 166.207 1134.63 166.634C1135.6 167.06 1136.74 167.273 1138.07 167.273ZM1138.07 153.466C1139.11 153.466 1140.03 153.258 1140.84 152.841C1141.65 152.424 1142.29 151.842 1142.76 151.094C1143.22 150.346 1143.46 149.47 1143.47 148.466C1143.46 147.481 1143.22 146.624 1142.77 145.895C1142.31 145.156 1141.69 144.588 1140.88 144.19C1140.08 143.783 1139.14 143.58 1138.07 143.58C1136.98 143.58 1136.03 143.783 1135.21 144.19C1134.4 144.588 1133.77 145.156 1133.32 145.895C1132.88 146.624 1132.66 147.481 1132.67 148.466C1132.66 149.47 1132.88 150.346 1133.34 151.094C1133.8 151.842 1134.44 152.424 1135.26 152.841C1136.07 153.258 1137.01 153.466 1138.07 153.466ZM1163.23 170.398C1161.35 170.398 1159.68 170.076 1158.21 169.432C1156.76 168.788 1155.6 167.893 1154.73 166.747C1153.88 165.592 1153.42 164.252 1153.34 162.727H1156.92C1157 163.665 1157.32 164.474 1157.89 165.156C1158.45 165.829 1159.2 166.349 1160.12 166.719C1161.04 167.088 1162.05 167.273 1163.17 167.273C1164.42 167.273 1165.53 167.055 1166.49 166.619C1167.46 166.184 1168.22 165.578 1168.77 164.801C1169.32 164.025 1169.59 163.125 1169.59 162.102C1169.59 161.032 1169.33 160.09 1168.8 159.276C1168.27 158.452 1167.49 157.808 1166.47 157.344C1165.44 156.88 1164.19 156.648 1162.72 156.648H1160.39V153.523H1162.72C1163.87 153.523 1164.88 153.314 1165.76 152.898C1166.64 152.481 1167.32 151.894 1167.82 151.136C1168.32 150.379 1168.57 149.489 1168.57 148.466C1168.57 147.481 1168.35 146.624 1167.92 145.895C1167.48 145.166 1166.86 144.598 1166.07 144.19C1165.28 143.783 1164.35 143.58 1163.28 143.58C1162.28 143.58 1161.33 143.764 1160.44 144.134C1159.56 144.493 1158.84 145.019 1158.28 145.71C1157.73 146.392 1157.42 147.216 1157.38 148.182H1153.97C1154.02 146.657 1154.48 145.322 1155.34 144.176C1156.21 143.021 1157.33 142.121 1158.72 141.477C1160.13 140.833 1161.67 140.511 1163.34 140.511C1165.14 140.511 1166.68 140.876 1167.97 141.605C1169.26 142.325 1170.25 143.277 1170.94 144.46C1171.63 145.644 1171.98 146.922 1171.98 148.295C1171.98 149.934 1171.55 151.33 1170.69 152.486C1169.83 153.641 1168.67 154.441 1167.2 154.886V155.114C1169.04 155.417 1170.48 156.198 1171.51 157.457C1172.54 158.707 1173.06 160.256 1173.06 162.102C1173.06 163.684 1172.63 165.104 1171.76 166.364C1170.91 167.614 1169.75 168.598 1168.27 169.318C1166.79 170.038 1165.11 170.398 1163.23 170.398Z" fill="white"/>
<path d="M1240.48 140.909V170H1236.96V144.602H1236.79L1229.69 149.318V145.739L1236.96 140.909H1240.48ZM1258.11 140.511C1259.3 140.521 1260.5 140.748 1261.69 141.193C1262.88 141.638 1263.97 142.377 1264.96 143.409C1265.94 144.432 1266.73 145.829 1267.33 147.599C1267.92 149.37 1268.22 151.591 1268.22 154.261C1268.22 156.847 1267.98 159.143 1267.48 161.151C1267 163.149 1266.3 164.834 1265.38 166.207C1264.47 167.58 1263.36 168.622 1262.06 169.332C1260.76 170.043 1259.29 170.398 1257.65 170.398C1256.03 170.398 1254.57 170.076 1253.29 169.432C1252.02 168.778 1250.98 167.874 1250.17 166.719C1249.36 165.554 1248.85 164.205 1248.62 162.67H1252.09C1252.4 164.006 1253.02 165.109 1253.95 165.98C1254.88 166.842 1256.12 167.273 1257.65 167.273C1259.9 167.273 1261.67 166.293 1262.97 164.332C1264.27 162.372 1264.93 159.602 1264.93 156.023H1264.7C1264.17 156.818 1263.54 157.505 1262.81 158.082C1262.08 158.66 1261.27 159.105 1260.38 159.418C1259.49 159.73 1258.54 159.886 1257.54 159.886C1255.87 159.886 1254.34 159.474 1252.95 158.651C1251.57 157.817 1250.46 156.676 1249.63 155.227C1248.8 153.769 1248.39 152.102 1248.39 150.227C1248.39 148.447 1248.79 146.818 1249.59 145.341C1250.39 143.854 1251.52 142.67 1252.97 141.79C1254.42 140.909 1256.14 140.483 1258.11 140.511ZM1258.11 143.636C1256.92 143.636 1255.84 143.935 1254.88 144.531C1253.94 145.118 1253.18 145.914 1252.63 146.918C1252.08 147.912 1251.8 149.015 1251.8 150.227C1251.8 151.439 1252.07 152.543 1252.6 153.537C1253.14 154.522 1253.87 155.308 1254.8 155.895C1255.74 156.473 1256.8 156.761 1258 156.761C1258.89 156.761 1259.73 156.586 1260.51 156.236C1261.29 155.876 1261.96 155.388 1262.54 154.773C1263.13 154.148 1263.59 153.442 1263.92 152.656C1264.25 151.861 1264.42 151.032 1264.42 150.17C1264.42 149.034 1264.14 147.969 1263.59 146.974C1263.05 145.98 1262.3 145.175 1261.35 144.56C1260.4 143.944 1259.32 143.636 1258.11 143.636ZM1283.07 140.511C1284.26 140.521 1285.46 140.748 1286.65 141.193C1287.84 141.638 1288.93 142.377 1289.92 143.409C1290.9 144.432 1291.69 145.829 1292.29 147.599C1292.88 149.37 1293.18 151.591 1293.18 154.261C1293.18 156.847 1292.94 159.143 1292.44 161.151C1291.96 163.149 1291.26 164.834 1290.34 166.207C1289.43 167.58 1288.33 168.622 1287.02 169.332C1285.72 170.043 1284.25 170.398 1282.62 170.398C1280.99 170.398 1279.53 170.076 1278.25 169.432C1276.99 168.778 1275.94 167.874 1275.13 166.719C1274.32 165.554 1273.81 164.205 1273.58 162.67H1277.05C1277.36 164.006 1277.98 165.109 1278.91 165.98C1279.85 166.842 1281.08 167.273 1282.62 167.273C1284.86 167.273 1286.63 166.293 1287.93 164.332C1289.23 162.372 1289.89 159.602 1289.89 156.023H1289.66C1289.13 156.818 1288.5 157.505 1287.77 158.082C1287.04 158.66 1286.23 159.105 1285.34 159.418C1284.45 159.73 1283.51 159.886 1282.5 159.886C1280.83 159.886 1279.31 159.474 1277.91 158.651C1276.53 157.817 1275.42 156.676 1274.59 155.227C1273.77 153.769 1273.35 152.102 1273.35 150.227C1273.35 148.447 1273.75 146.818 1274.55 145.341C1275.35 143.854 1276.48 142.67 1277.93 141.79C1279.39 140.909 1281.1 140.483 1283.07 140.511ZM1283.07 143.636C1281.88 143.636 1280.8 143.935 1279.85 144.531C1278.9 145.118 1278.15 145.914 1277.59 146.918C1277.04 147.912 1276.76 149.015 1276.76 150.227C1276.76 151.439 1277.03 152.543 1277.56 153.537C1278.1 154.522 1278.83 155.308 1279.76 155.895C1280.7 156.473 1281.76 156.761 1282.96 156.761C1283.86 156.761 1284.69 156.586 1285.47 156.236C1286.25 155.876 1286.92 155.388 1287.5 154.773C1288.09 154.148 1288.55 153.442 1288.88 152.656C1289.21 151.861 1289.38 151.032 1289.38 150.17C1289.38 149.034 1289.1 147.969 1288.55 146.974C1288.01 145.98 1287.26 145.175 1286.31 144.56C1285.36 143.944 1284.28 143.636 1283.07 143.636Z" fill="white"/>
</svg>
