<svg xmlns="http://www.w3.org/2000/svg" width="425" height="94" fill="none" viewBox="0 0 425 94"><path fill="#fff" d="M15.256 34.727h3.363l7.91 19.319h.272l7.91-19.319h3.363V58h-2.636V40.318h-.228L27.937 58h-2.545l-7.273-17.682h-.227V58h-2.636zM43.36 58V40.545h2.682V58zm1.363-20.364q-.783 0-1.352-.534a1.72 1.72 0 0 1-.557-1.284q0-.75.557-1.284.569-.534 1.352-.534.785 0 1.341.534.57.534.569 1.284 0 .75-.569 1.284a1.87 1.87 0 0 1-1.34.534m12.822 20.728q-2.183 0-3.853-1.103-1.67-1.113-2.613-3.136-.945-2.034-.944-4.807 0-2.75.944-4.773.942-2.022 2.625-3.125 1.68-1.102 3.886-1.102 1.704 0 2.693.568 1 .558 1.523 1.273.533.705.83 1.16h.227v-8.592h2.682V58h-2.592v-2.682h-.318q-.296.477-.84 1.205-.546.715-1.557 1.284-1.012.557-2.693.557m.363-2.41q1.614 0 2.727-.84 1.114-.853 1.694-2.353.58-1.51.58-3.488 0-1.954-.57-3.42-.568-1.478-1.68-2.296-1.115-.83-2.75-.83-1.705 0-2.842.875-1.125.864-1.693 2.353-.557 1.476-.557 3.318 0 1.862.568 3.386.58 1.511 1.705 2.41 1.137.886 2.818.886m19.512 2.41q-2.183 0-3.853-1.103-1.67-1.113-2.614-3.136-.943-2.034-.943-4.807 0-2.75.944-4.773.942-2.022 2.624-3.125 1.683-1.102 3.887-1.102 1.704 0 2.693.568 1 .558 1.523 1.273.533.705.83 1.16h.227v-8.592h2.682V58h-2.592v-2.682h-.318q-.296.477-.84 1.205-.546.715-1.557 1.284-1.012.557-2.693.557m.363-2.41q1.614 0 2.727-.84 1.114-.853 1.694-2.353.58-1.51.58-3.488 0-1.954-.57-3.42-.568-1.478-1.68-2.296-1.115-.83-2.75-.83-1.705 0-2.842.875-1.125.864-1.693 2.353-.557 1.476-.557 3.318 0 1.862.568 3.386.58 1.511 1.705 2.41 1.137.886 2.818.886m15.602-21.227V58h-2.681V34.727zm12.23 23.637q-2.522 0-4.352-1.114-1.818-1.125-2.807-3.136-.977-2.023-.977-4.705t.977-4.727q.99-2.057 2.75-3.205 1.773-1.158 4.137-1.159 1.364 0 2.693.455a6.7 6.7 0 0 1 2.42 1.477q1.091 1.011 1.739 2.682.648 1.67.648 4.113v1.137H99.389v-2.318h10.727q0-1.477-.59-2.637a4.46 4.46 0 0 0-1.66-1.83q-1.068-.67-2.522-.67-1.602 0-2.773.796a5.23 5.23 0 0 0-1.784 2.045 6 6 0 0 0-.625 2.705v1.545q0 1.977.682 3.352.693 1.365 1.92 2.08 1.227.705 2.852.705 1.057 0 1.91-.296a4.1 4.1 0 0 0 1.488-.909q.626-.614.966-1.523l2.591.728a5.75 5.75 0 0 1-1.375 2.318q-.966.989-2.386 1.545-1.42.546-3.194.546m21.398-11.591v-2.455h14v2.455zm0 6.727v-2.455h14V53.5zM227.26 31.318q-2 0-3.602-.795-1.603-.796-2.569-2.182-.965-1.386-1.056-3.16h2.727q.159 1.58 1.432 2.614 1.284 1.023 3.068 1.023 1.432 0 2.545-.67a4.73 4.73 0 0 0 1.762-1.841q.647-1.182.647-2.67 0-1.524-.67-2.716a4.9 4.9 0 0 0-1.818-1.898q-1.159-.693-2.648-.705a7.3 7.3 0 0 0-2.193.33q-1.125.33-1.852.852l-2.637-.318 1.409-11.455h12.091v2.5h-9.727l-.818 6.864h.136q.716-.568 1.796-.943a6.8 6.8 0 0 1 2.25-.375q2.136 0 3.806 1.023 1.682 1.011 2.637 2.772.966 1.761.966 4.023 0 2.227-1 3.977a7.3 7.3 0 0 1-2.728 2.75q-1.738 1-3.954 1m28.06-4.409v-15h2.545v15zm-6.228-6.227v-2.546h15v2.546zM279.277 31l10.409-20.59v-.183h-12v-2.5h14.909v2.637L282.232 31zM248.722 86v-2.046l7.681-8.408a54 54 0 0 0 2.228-2.569q.875-1.102 1.295-2.068a5 5 0 0 0 .432-2.045q0-1.228-.591-2.125a3.83 3.83 0 0 0-1.591-1.387q-1.011-.489-2.273-.488-1.34 0-2.341.556a3.84 3.84 0 0 0-1.534 1.534q-.534.99-.534 2.319h-2.682q0-2.045.944-3.591a6.55 6.55 0 0 1 2.568-2.41q1.636-.863 3.67-.863 2.046 0 3.625.864 1.58.863 2.478 2.33.897 1.466.897 3.26 0 1.285-.466 2.512-.455 1.215-1.59 2.716-1.125 1.489-3.126 3.636l-5.227 5.591v.182h10.818V86z"/><path stroke="#fff" d="M166 46.5h180"/><path fill="#fff" d="M369.014 45.227v-2.454h14v2.454zm0 6.728V49.5h14v2.455zm45.685 7.363a8.7 8.7 0 0 1-2.864-.545q-1.432-.523-2.613-1.762-1.182-1.25-1.898-3.375-.716-2.136-.716-5.363 0-3.09.58-5.478.579-2.397 1.681-4.034 1.103-1.647 2.659-2.5 1.569-.852 3.534-.852 1.956 0 3.478.784a6.6 6.6 0 0 1 2.5 2.16q.966 1.385 1.25 3.192h-2.773q-.387-1.567-1.5-2.602t-2.955-1.034q-2.704 0-4.261 2.352-1.545 2.354-1.557 6.603h.182a6.83 6.83 0 0 1 3.466-2.716 6.8 6.8 0 0 1 2.261-.375q2 0 3.659 1 1.66.989 2.66 2.738 1 1.74 1 3.989 0 2.16-.966 3.955a7.36 7.36 0 0 1-2.716 2.84q-1.739 1.045-4.091 1.023m0-2.5q1.431 0 2.568-.716a5.1 5.1 0 0 0 1.807-1.92q.67-1.205.67-2.682 0-1.443-.647-2.625a4.95 4.95 0 0 0-1.762-1.898q-1.113-.704-2.545-.704-1.08 0-2.012.431a5.2 5.2 0 0 0-1.636 1.16 5.6 5.6 0 0 0-1.091 1.693 5.1 5.1 0 0 0-.398 1.988q0 1.387.648 2.591a5.34 5.34 0 0 0 1.796 1.944q1.147.738 2.602.738"/></svg>