<svg width="648" height="611" viewBox="0 0 648 611" fill="none" xmlns="http://www.w3.org/2000/svg">
<path d="M87 234C87 219.088 99.0883 207 114 207H207V329H114C99.0883 329 87 316.912 87 302V234Z" fill="#995E00"/>
<path d="M87 412C87 397.088 99.0883 385 114 385H207V507H114C99.0883 507 87 494.912 87 480V412Z" fill="#540099"/>
<path d="M76.9386 15.9091H84.5238L92.5352 35.4545H92.8761L100.887 15.9091H108.473V45H102.507V26.0653H102.265L94.7369 44.858H90.6744L83.146 25.9943H82.9045V45H76.9386V15.9091ZM123.37 45.4261C121.125 45.4261 119.194 44.9716 117.574 44.0625C115.964 43.1439 114.724 41.8466 113.853 40.1705C112.981 38.4848 112.546 36.4915 112.546 34.1903C112.546 31.946 112.981 29.9763 113.853 28.2812C114.724 26.5862 115.95 25.2652 117.532 24.3182C119.123 23.3712 120.988 22.8977 123.128 22.8977C124.568 22.8977 125.908 23.1297 127.148 23.5938C128.398 24.0483 129.487 24.7348 130.415 25.6534C131.353 26.572 132.082 27.7273 132.603 29.1193C133.123 30.5019 133.384 32.1212 133.384 33.9773V35.6392H114.961V31.8892H127.688C127.688 31.018 127.498 30.2462 127.12 29.5739C126.741 28.9015 126.215 28.3759 125.543 27.9972C124.88 27.6089 124.108 27.4148 123.228 27.4148C122.309 27.4148 121.495 27.6278 120.784 28.054C120.084 28.4706 119.534 29.0341 119.137 29.7443C118.739 30.4451 118.535 31.2263 118.526 32.0881V35.6534C118.526 36.733 118.725 37.6657 119.123 38.4517C119.53 39.2377 120.103 39.8438 120.841 40.2699C121.58 40.696 122.456 40.9091 123.469 40.9091C124.141 40.9091 124.757 40.8144 125.316 40.625C125.874 40.4356 126.353 40.1515 126.75 39.7727C127.148 39.3939 127.451 38.9299 127.659 38.3807L133.256 38.75C132.972 40.0947 132.39 41.2689 131.509 42.2727C130.638 43.267 129.511 44.0436 128.128 44.6023C126.755 45.1515 125.169 45.4261 123.37 45.4261ZM137.333 45V23.1818H143.199V26.9886H143.426C143.824 25.6345 144.492 24.6117 145.429 23.9205C146.367 23.2197 147.446 22.8693 148.668 22.8693C148.971 22.8693 149.298 22.8883 149.648 22.9261C149.998 22.964 150.306 23.0161 150.571 23.0824V28.4517C150.287 28.3665 149.894 28.2907 149.392 28.2244C148.891 28.1581 148.431 28.125 148.015 28.125C147.124 28.125 146.329 28.3191 145.628 28.7074C144.937 29.0862 144.388 29.6165 143.98 30.2983C143.583 30.9801 143.384 31.7661 143.384 32.6562V45H137.333ZM162.514 53.6364C160.554 53.6364 158.873 53.3665 157.471 52.8267C156.079 52.2964 154.971 51.572 154.147 50.6534C153.324 49.7348 152.788 48.7027 152.542 47.5568L158.139 46.804C158.309 47.2396 158.579 47.6468 158.949 48.0256C159.318 48.4044 159.806 48.7074 160.412 48.9347C161.027 49.1714 161.775 49.2898 162.656 49.2898C163.972 49.2898 165.056 48.9678 165.909 48.3239C166.77 47.6894 167.201 46.6241 167.201 45.1278V41.1364H166.946C166.681 41.7424 166.283 42.3153 165.752 42.8551C165.222 43.3949 164.54 43.8352 163.707 44.1761C162.874 44.517 161.879 44.6875 160.724 44.6875C159.086 44.6875 157.594 44.3087 156.25 43.5511C154.914 42.7841 153.849 41.6146 153.054 40.0426C152.268 38.4612 151.875 36.4631 151.875 34.0483C151.875 31.5767 152.277 29.5123 153.082 27.8551C153.887 26.1979 154.957 24.9574 156.292 24.1335C157.637 23.3097 159.109 22.8977 160.71 22.8977C161.931 22.8977 162.954 23.1061 163.778 23.5227C164.602 23.9299 165.265 24.4413 165.767 25.0568C166.278 25.6629 166.671 26.2595 166.946 26.8466H167.173V23.1818H173.181V45.2131C173.181 47.0691 172.727 48.6222 171.818 49.8722C170.909 51.1222 169.649 52.0597 168.039 52.6847C166.439 53.3191 164.597 53.6364 162.514 53.6364ZM162.642 40.142C163.617 40.142 164.441 39.9006 165.113 39.4176C165.795 38.9252 166.316 38.2244 166.676 37.3153C167.045 36.3968 167.23 35.2983 167.23 34.0199C167.23 32.7415 167.05 31.6335 166.69 30.696C166.33 29.7491 165.809 29.0152 165.127 28.4943C164.446 27.9735 163.617 27.7131 162.642 27.7131C161.647 27.7131 160.809 27.983 160.127 28.5227C159.446 29.053 158.93 29.7917 158.579 30.7386C158.229 31.6856 158.054 32.7794 158.054 34.0199C158.054 35.2794 158.229 36.3684 158.579 37.2869C158.939 38.196 159.455 38.9015 160.127 39.4034C160.809 39.8958 161.647 40.142 162.642 40.142ZM177.997 45V23.1818H184.048V45H177.997ZM181.037 20.3693C180.137 20.3693 179.365 20.071 178.721 19.4744C178.087 18.8684 177.77 18.1439 177.77 17.3011C177.77 16.4678 178.087 15.7528 178.721 15.1562C179.365 14.5502 180.137 14.2472 181.037 14.2472C181.936 14.2472 182.703 14.5502 183.338 15.1562C183.982 15.7528 184.304 16.4678 184.304 17.3011C184.304 18.1439 183.982 18.8684 183.338 19.4744C182.703 20.071 181.936 20.3693 181.037 20.3693ZM194.946 32.3864V45H188.895V23.1818H194.662V27.0312H194.918C195.401 25.7623 196.211 24.7585 197.347 24.0199C198.483 23.2718 199.861 22.8977 201.48 22.8977C202.996 22.8977 204.317 23.2292 205.444 23.892C206.57 24.5549 207.446 25.5019 208.071 26.733C208.696 27.9545 209.009 29.4129 209.009 31.108V45H202.958V32.1875C202.967 30.8523 202.626 29.8106 201.935 29.0625C201.244 28.3049 200.292 27.9261 199.08 27.9261C198.266 27.9261 197.546 28.1013 196.921 28.4517C196.305 28.8021 195.822 29.3134 195.472 29.9858C195.131 30.6487 194.956 31.4489 194.946 32.3864ZM223.608 53.6364C221.647 53.6364 219.967 53.3665 218.565 52.8267C217.173 52.2964 216.065 51.572 215.241 50.6534C214.417 49.7348 213.882 48.7027 213.636 47.5568L219.233 46.804C219.403 47.2396 219.673 47.6468 220.042 48.0256C220.412 48.4044 220.899 48.7074 221.505 48.9347C222.121 49.1714 222.869 49.2898 223.75 49.2898C225.066 49.2898 226.15 48.9678 227.002 48.3239C227.864 47.6894 228.295 46.6241 228.295 45.1278V41.1364H228.039C227.774 41.7424 227.377 42.3153 226.846 42.8551C226.316 43.3949 225.634 43.8352 224.801 44.1761C223.967 44.517 222.973 44.6875 221.818 44.6875C220.18 44.6875 218.688 44.3087 217.343 43.5511C216.008 42.7841 214.943 41.6146 214.147 40.0426C213.361 38.4612 212.968 36.4631 212.968 34.0483C212.968 31.5767 213.371 29.5123 214.176 27.8551C214.981 26.1979 216.051 24.9574 217.386 24.1335C218.731 23.3097 220.203 22.8977 221.804 22.8977C223.025 22.8977 224.048 23.1061 224.872 23.5227C225.696 23.9299 226.359 24.4413 226.86 25.0568C227.372 25.6629 227.765 26.2595 228.039 26.8466H228.267V23.1818H234.275V45.2131C234.275 47.0691 233.821 48.6222 232.912 49.8722C232.002 51.1222 230.743 52.0597 229.133 52.6847C227.533 53.3191 225.691 53.6364 223.608 53.6364ZM223.735 40.142C224.711 40.142 225.535 39.9006 226.207 39.4176C226.889 38.9252 227.41 38.2244 227.77 37.3153C228.139 36.3968 228.324 35.2983 228.324 34.0199C228.324 32.7415 228.144 31.6335 227.784 30.696C227.424 29.7491 226.903 29.0152 226.221 28.4943C225.539 27.9735 224.711 27.7131 223.735 27.7131C222.741 27.7131 221.903 27.983 221.221 28.5227C220.539 29.053 220.023 29.7917 219.673 30.7386C219.323 31.6856 219.147 32.7794 219.147 34.0199C219.147 35.2794 219.323 36.3684 219.673 37.2869C220.033 38.196 220.549 38.9015 221.221 39.4034C221.903 39.8958 222.741 40.142 223.735 40.142ZM247.354 20.9801V15.9091H271.246V20.9801H262.34V45H256.26V20.9801H247.354ZM276.871 45L270.934 23.1818H277.056L280.436 37.8409H280.635L284.158 23.1818H290.167L293.746 37.7557H293.931L297.255 23.1818H303.363L297.439 45H291.033L287.283 31.2784H287.013L283.263 45H276.871ZM315.902 45.4261C313.695 45.4261 311.787 44.9574 310.177 44.0199C308.577 43.0729 307.341 41.7566 306.47 40.071C305.599 38.3759 305.163 36.411 305.163 34.1761C305.163 31.9223 305.599 29.9527 306.47 28.267C307.341 26.572 308.577 25.2557 310.177 24.3182C311.787 23.3712 313.695 22.8977 315.902 22.8977C318.108 22.8977 320.011 23.3712 321.612 24.3182C323.222 25.2557 324.462 26.572 325.333 28.267C326.205 29.9527 326.64 31.9223 326.64 34.1761C326.64 36.411 326.205 38.3759 325.333 40.071C324.462 41.7566 323.222 43.0729 321.612 44.0199C320.011 44.9574 318.108 45.4261 315.902 45.4261ZM315.93 40.7386C316.934 40.7386 317.772 40.4545 318.444 39.8864C319.117 39.3087 319.623 38.5227 319.964 37.5284C320.315 36.5341 320.49 35.4025 320.49 34.1335C320.49 32.8646 320.315 31.733 319.964 30.7386C319.623 29.7443 319.117 28.9583 318.444 28.3807C317.772 27.803 316.934 27.5142 315.93 27.5142C314.917 27.5142 314.065 27.803 313.373 28.3807C312.691 28.9583 312.175 29.7443 311.825 30.7386C311.484 31.733 311.314 32.8646 311.314 34.1335C311.314 35.4025 311.484 36.5341 311.825 37.5284C312.175 38.5227 312.691 39.3087 313.373 39.8864C314.065 40.4545 314.917 40.7386 315.93 40.7386ZM355.728 24.2756C355.614 23.1297 355.126 22.2396 354.265 21.6051C353.403 20.9706 352.233 20.6534 350.756 20.6534C349.752 20.6534 348.905 20.7955 348.213 21.0795C347.522 21.3542 346.992 21.7377 346.623 22.2301C346.263 22.7225 346.083 23.2812 346.083 23.9062C346.064 24.4271 346.173 24.8816 346.409 25.2699C346.656 25.6581 346.992 25.9943 347.418 26.2784C347.844 26.553 348.337 26.7945 348.895 27.0028C349.454 27.2017 350.051 27.3722 350.685 27.5142L353.299 28.1392C354.568 28.4233 355.732 28.8021 356.793 29.2756C357.854 29.7491 358.772 30.3314 359.549 31.0227C360.325 31.714 360.926 32.5284 361.353 33.4659C361.788 34.4034 362.011 35.4782 362.02 36.6903C362.011 38.4706 361.556 40.0142 360.657 41.321C359.766 42.6184 358.479 43.6269 356.793 44.3466C355.117 45.0568 353.095 45.4119 350.728 45.4119C348.379 45.4119 346.334 45.0521 344.591 44.3324C342.858 43.6127 341.504 42.5473 340.529 41.1364C339.563 39.7159 339.056 37.9593 339.009 35.8665H344.961C345.027 36.8419 345.306 37.6562 345.799 38.3097C346.301 38.9536 346.968 39.4413 347.801 39.7727C348.644 40.0947 349.596 40.2557 350.657 40.2557C351.698 40.2557 352.603 40.1042 353.37 39.8011C354.146 39.4981 354.748 39.0767 355.174 38.5369C355.6 37.9972 355.813 37.3769 355.813 36.6761C355.813 36.0227 355.619 35.4735 355.23 35.0284C354.852 34.5833 354.293 34.2045 353.554 33.892C352.825 33.5795 351.93 33.2955 350.87 33.0398L347.702 32.2443C345.249 31.6477 343.313 30.715 341.892 29.446C340.472 28.1771 339.766 26.4678 339.776 24.3182C339.766 22.5568 340.235 21.018 341.182 19.7017C342.139 18.3854 343.45 17.358 345.117 16.6193C346.783 15.8807 348.677 15.5114 350.799 15.5114C352.958 15.5114 354.842 15.8807 356.452 16.6193C358.071 17.358 359.331 18.3854 360.23 19.7017C361.13 21.018 361.594 22.5426 361.623 24.2756H355.728ZM375.902 45.4261C373.695 45.4261 371.787 44.9574 370.177 44.0199C368.577 43.0729 367.341 41.7566 366.47 40.071C365.599 38.3759 365.163 36.411 365.163 34.1761C365.163 31.9223 365.599 29.9527 366.47 28.267C367.341 26.572 368.577 25.2557 370.177 24.3182C371.787 23.3712 373.695 22.8977 375.902 22.8977C378.108 22.8977 380.011 23.3712 381.612 24.3182C383.222 25.2557 384.462 26.572 385.333 28.267C386.205 29.9527 386.64 31.9223 386.64 34.1761C386.64 36.411 386.205 38.3759 385.333 40.071C384.462 41.7566 383.222 43.0729 381.612 44.0199C380.011 44.9574 378.108 45.4261 375.902 45.4261ZM375.93 40.7386C376.934 40.7386 377.772 40.4545 378.444 39.8864C379.117 39.3087 379.623 38.5227 379.964 37.5284C380.315 36.5341 380.49 35.4025 380.49 34.1335C380.49 32.8646 380.315 31.733 379.964 30.7386C379.623 29.7443 379.117 28.9583 378.444 28.3807C377.772 27.803 376.934 27.5142 375.93 27.5142C374.917 27.5142 374.065 27.803 373.373 28.3807C372.691 28.9583 372.175 29.7443 371.825 30.7386C371.484 31.733 371.314 32.8646 371.314 34.1335C371.314 35.4025 371.484 36.5341 371.825 37.5284C372.175 38.5227 372.691 39.3087 373.373 39.8864C374.065 40.4545 374.917 40.7386 375.93 40.7386ZM390.575 45V23.1818H396.441V26.9886H396.669C397.066 25.6345 397.734 24.6117 398.672 23.9205C399.609 23.2197 400.689 22.8693 401.91 22.8693C402.213 22.8693 402.54 22.8883 402.89 22.9261C403.241 22.964 403.548 23.0161 403.814 23.0824V28.4517C403.529 28.3665 403.136 28.2907 402.635 28.2244C402.133 28.1581 401.673 28.125 401.257 28.125C400.367 28.125 399.571 28.3191 398.87 28.7074C398.179 29.0862 397.63 29.6165 397.223 30.2983C396.825 30.9801 396.626 31.7661 396.626 32.6562V45H390.575ZM419.641 23.1818V27.7273H406.502V23.1818H419.641ZM409.485 17.9545H415.536V38.2955C415.536 38.8542 415.621 39.2898 415.792 39.6023C415.962 39.9053 416.199 40.1184 416.502 40.2415C416.814 40.3646 417.174 40.4261 417.581 40.4261C417.865 40.4261 418.15 40.4025 418.434 40.3551C418.718 40.2983 418.935 40.2557 419.087 40.2273L420.039 44.7301C419.736 44.8248 419.31 44.9337 418.76 45.0568C418.211 45.1894 417.543 45.2699 416.757 45.2983C415.299 45.3551 414.021 45.161 412.922 44.7159C411.833 44.2708 410.986 43.5795 410.38 42.642C409.774 41.7045 409.475 40.5208 409.485 39.0909V17.9545ZM433.292 45.4261C431.047 45.4261 429.115 44.9716 427.496 44.0625C425.886 43.1439 424.646 41.8466 423.775 40.1705C422.903 38.4848 422.468 36.4915 422.468 34.1903C422.468 31.946 422.903 29.9763 423.775 28.2812C424.646 26.5862 425.872 25.2652 427.453 24.3182C429.044 23.3712 430.91 22.8977 433.05 22.8977C434.489 22.8977 435.829 23.1297 437.07 23.5938C438.32 24.0483 439.409 24.7348 440.337 25.6534C441.275 26.572 442.004 27.7273 442.525 29.1193C443.045 30.5019 443.306 32.1212 443.306 33.9773V35.6392H424.882V31.8892H437.61C437.61 31.018 437.42 30.2462 437.042 29.5739C436.663 28.9015 436.137 28.3759 435.465 27.9972C434.802 27.6089 434.03 27.4148 433.15 27.4148C432.231 27.4148 431.417 27.6278 430.706 28.054C430.006 28.4706 429.456 29.0341 429.059 29.7443C428.661 30.4451 428.457 31.2263 428.448 32.0881V35.6534C428.448 36.733 428.647 37.6657 429.044 38.4517C429.452 39.2377 430.025 39.8438 430.763 40.2699C431.502 40.696 432.378 40.9091 433.391 40.9091C434.063 40.9091 434.679 40.8144 435.238 40.625C435.796 40.4356 436.275 40.1515 436.672 39.7727C437.07 39.3939 437.373 38.9299 437.581 38.3807L443.178 38.75C442.894 40.0947 442.311 41.2689 441.431 42.2727C440.56 43.267 439.433 44.0436 438.05 44.6023C436.677 45.1515 435.091 45.4261 433.292 45.4261ZM455.294 45.3551C453.637 45.3551 452.136 44.929 450.792 44.0767C449.456 43.215 448.396 41.9508 447.61 40.2841C446.833 38.608 446.445 36.553 446.445 34.1193C446.445 31.6193 446.847 29.5407 447.652 27.8835C448.457 26.2169 449.527 24.9716 450.863 24.1477C452.207 23.3144 453.68 22.8977 455.28 22.8977C456.502 22.8977 457.52 23.1061 458.334 23.5227C459.158 23.9299 459.821 24.4413 460.323 25.0568C460.834 25.6629 461.222 26.2595 461.488 26.8466H461.672V15.9091H467.709V45H461.743V41.5057H461.488C461.203 42.1117 460.801 42.7131 460.28 43.3097C459.769 43.8968 459.101 44.3845 458.277 44.7727C457.463 45.161 456.469 45.3551 455.294 45.3551ZM457.212 40.5398C458.187 40.5398 459.011 40.2746 459.684 39.7443C460.365 39.2045 460.886 38.4517 461.246 37.4858C461.615 36.5199 461.8 35.3883 461.8 34.0909C461.8 32.7936 461.62 31.6667 461.26 30.7102C460.9 29.7538 460.38 29.0152 459.698 28.4943C459.016 27.9735 458.187 27.7131 457.212 27.7131C456.218 27.7131 455.38 27.983 454.698 28.5227C454.016 29.0625 453.5 29.8106 453.15 30.767C452.799 31.7235 452.624 32.8314 452.624 34.0909C452.624 35.3598 452.799 36.482 453.15 37.4574C453.509 38.4233 454.025 39.1809 454.698 39.7301C455.38 40.2699 456.218 40.5398 457.212 40.5398ZM482.056 45V15.9091H493.533C495.739 15.9091 497.619 16.3305 499.172 17.1733C500.725 18.0066 501.909 19.1667 502.723 20.6534C503.547 22.1307 503.959 23.8352 503.959 25.767C503.959 27.6989 503.542 29.4034 502.709 30.8807C501.876 32.358 500.668 33.5085 499.087 34.3324C497.515 35.1562 495.612 35.5682 493.377 35.5682H486.061V30.6392H492.382C493.566 30.6392 494.542 30.4356 495.309 30.0284C496.085 29.6117 496.663 29.0388 497.042 28.3097C497.43 27.571 497.624 26.7235 497.624 25.767C497.624 24.8011 497.43 23.9583 497.042 23.2386C496.663 22.5095 496.085 21.946 495.309 21.5483C494.532 21.1411 493.547 20.9375 492.354 20.9375H488.206V45H482.056ZM507.841 45V23.1818H513.892V45H507.841ZM510.88 20.3693C509.981 20.3693 509.209 20.071 508.565 19.4744C507.931 18.8684 507.613 18.1439 507.613 17.3011C507.613 16.4678 507.931 15.7528 508.565 15.1562C509.209 14.5502 509.981 14.2472 510.88 14.2472C511.78 14.2472 512.547 14.5502 513.181 15.1562C513.825 15.7528 514.147 16.4678 514.147 17.3011C514.147 18.1439 513.825 18.8684 513.181 19.4744C512.547 20.071 511.78 20.3693 510.88 20.3693ZM524.79 15.9091V45H518.739V15.9091H524.79ZM539.581 45.4261C537.336 45.4261 535.404 44.9716 533.785 44.0625C532.175 43.1439 530.935 41.8466 530.064 40.1705C529.192 38.4848 528.757 36.4915 528.757 34.1903C528.757 31.946 529.192 29.9763 530.064 28.2812C530.935 26.5862 532.161 25.2652 533.743 24.3182C535.333 23.3712 537.199 22.8977 539.339 22.8977C540.779 22.8977 542.118 23.1297 543.359 23.5938C544.609 24.0483 545.698 24.7348 546.626 25.6534C547.564 26.572 548.293 27.7273 548.814 29.1193C549.334 30.5019 549.595 32.1212 549.595 33.9773V35.6392H531.172V31.8892H543.899C543.899 31.018 543.709 30.2462 543.331 29.5739C542.952 28.9015 542.426 28.3759 541.754 27.9972C541.091 27.6089 540.319 27.4148 539.439 27.4148C538.52 27.4148 537.706 27.6278 536.995 28.054C536.295 28.4706 535.745 29.0341 535.348 29.7443C534.95 30.4451 534.746 31.2263 534.737 32.0881V35.6534C534.737 36.733 534.936 37.6657 535.333 38.4517C535.741 39.2377 536.314 39.8438 537.052 40.2699C537.791 40.696 538.667 40.9091 539.68 40.9091C540.352 40.9091 540.968 40.8144 541.527 40.625C542.085 40.4356 542.564 40.1515 542.961 39.7727C543.359 39.3939 543.662 38.9299 543.87 38.3807L549.467 38.75C549.183 40.0947 548.6 41.2689 547.72 42.2727C546.849 43.267 545.722 44.0436 544.339 44.6023C542.966 45.1515 541.38 45.4261 539.581 45.4261ZM571.697 29.4034L566.157 29.7443C566.063 29.2708 565.859 28.8447 565.547 28.4659C565.234 28.0777 564.822 27.7699 564.311 27.5426C563.809 27.3059 563.208 27.1875 562.507 27.1875C561.569 27.1875 560.779 27.3864 560.135 27.7841C559.491 28.1723 559.169 28.6932 559.169 29.3466C559.169 29.8674 559.377 30.3078 559.794 30.6676C560.21 31.0275 560.925 31.3163 561.939 31.5341L565.887 32.3295C568.009 32.7652 569.59 33.4659 570.632 34.4318C571.673 35.3977 572.194 36.6667 572.194 38.2386C572.194 39.6686 571.773 40.9233 570.93 42.0028C570.097 43.0824 568.951 43.9252 567.493 44.5312C566.044 45.1278 564.372 45.4261 562.478 45.4261C559.59 45.4261 557.289 44.8248 555.575 43.6222C553.87 42.41 552.871 40.7623 552.578 38.679L558.529 38.3665C558.709 39.2472 559.145 39.9195 559.836 40.3835C560.528 40.8381 561.413 41.0653 562.493 41.0653C563.553 41.0653 564.405 40.8617 565.049 40.4545C565.703 40.0379 566.034 39.5028 566.044 38.8494C566.034 38.3002 565.802 37.8504 565.348 37.5C564.893 37.1402 564.192 36.8655 563.245 36.6761L559.467 35.9233C557.336 35.4972 555.75 34.7585 554.708 33.7074C553.676 32.6562 553.16 31.3163 553.16 29.6875C553.16 28.286 553.539 27.0786 554.297 26.0653C555.064 25.0521 556.138 24.2708 557.521 23.7216C558.913 23.1723 560.542 22.8977 562.407 22.8977C565.163 22.8977 567.332 23.4801 568.913 24.6449C570.504 25.8097 571.432 27.3958 571.697 29.4034Z" fill="white"/>
<rect x="88" y="208" width="358" height="120" rx="26" stroke="#DBDBDB" stroke-width="2"/>
<rect x="88" y="208" width="358" height="120" rx="26" stroke="#DBDBDB" stroke-width="2"/>
<rect x="88" y="386" width="238" height="120" rx="26" stroke="#DBDBDB" stroke-width="2"/>
<line x1="208" y1="207" x2="208" y2="329" stroke="#DBDBDB" stroke-width="2"/>
<line x1="328" y1="207" x2="328" y2="329" stroke="#DBDBDB" stroke-width="2"/>
<line x1="208" y1="385" x2="208" y2="507" stroke="#DBDBDB" stroke-width="2"/>
<path d="M245.976 282V279.443L255.578 268.932C256.705 267.701 257.633 266.631 258.363 265.722C259.092 264.803 259.632 263.941 259.982 263.136C260.342 262.322 260.522 261.47 260.522 260.58C260.522 259.557 260.275 258.671 259.783 257.923C259.3 257.175 258.637 256.598 257.794 256.19C256.952 255.783 256.005 255.58 254.953 255.58C253.836 255.58 252.861 255.812 252.027 256.276C251.203 256.73 250.564 257.369 250.11 258.193C249.665 259.017 249.442 259.983 249.442 261.091H246.09C246.09 259.386 246.483 257.89 247.269 256.602C248.055 255.314 249.125 254.311 250.479 253.591C251.843 252.871 253.372 252.511 255.067 252.511C256.772 252.511 258.282 252.871 259.598 253.591C260.915 254.311 261.947 255.281 262.695 256.503C263.443 257.724 263.817 259.083 263.817 260.58C263.817 261.65 263.623 262.696 263.235 263.719C262.856 264.732 262.193 265.864 261.246 267.114C260.309 268.354 259.007 269.869 257.34 271.659L250.806 278.648V278.875H264.328V282H245.976ZM271.104 282L284.115 256.261V256.034H269.115V252.909H287.752V256.205L274.797 282H271.104Z" fill="white"/>
<path d="M138.961 252.909V282H135.439V256.602H135.268L128.166 261.318V257.739L135.439 252.909H138.961ZM156.589 252.511C157.782 252.521 158.975 252.748 160.169 253.193C161.362 253.638 162.451 254.377 163.436 255.409C164.421 256.432 165.211 257.829 165.808 259.599C166.404 261.37 166.703 263.591 166.703 266.261C166.703 268.847 166.457 271.143 165.964 273.151C165.481 275.149 164.78 276.834 163.862 278.207C162.953 279.58 161.845 280.622 160.538 281.332C159.241 282.043 157.773 282.398 156.135 282.398C154.506 282.398 153.052 282.076 151.774 281.432C150.505 280.778 149.463 279.874 148.649 278.719C147.844 277.554 147.328 276.205 147.1 274.67H150.566C150.879 276.006 151.499 277.109 152.427 277.98C153.365 278.842 154.6 279.273 156.135 279.273C158.379 279.273 160.15 278.293 161.447 276.332C162.754 274.372 163.407 271.602 163.407 268.023H163.18C162.65 268.818 162.02 269.505 161.291 270.082C160.562 270.66 159.752 271.105 158.862 271.418C157.972 271.73 157.025 271.886 156.021 271.886C154.354 271.886 152.825 271.474 151.433 270.651C150.05 269.817 148.942 268.676 148.109 267.227C147.285 265.769 146.873 264.102 146.873 262.227C146.873 260.447 147.271 258.818 148.066 257.341C148.871 255.854 149.998 254.67 151.447 253.79C152.905 252.909 154.619 252.483 156.589 252.511ZM156.589 255.636C155.396 255.636 154.321 255.935 153.365 256.531C152.418 257.118 151.665 257.914 151.106 258.918C150.557 259.912 150.282 261.015 150.282 262.227C150.282 263.439 150.547 264.543 151.078 265.537C151.618 266.522 152.351 267.308 153.279 267.895C154.217 268.473 155.282 268.761 156.475 268.761C157.375 268.761 158.213 268.586 158.99 268.236C159.766 267.876 160.443 267.388 161.021 266.773C161.608 266.148 162.067 265.442 162.399 264.656C162.73 263.861 162.896 263.032 162.896 262.17C162.896 261.034 162.621 259.969 162.072 258.974C161.532 257.98 160.784 257.175 159.828 256.56C158.881 255.944 157.801 255.636 156.589 255.636Z" fill="white"/>
<path d="M336.635 138V112.545H345.235C347.232 112.545 348.865 112.906 350.133 113.627C351.409 114.339 352.353 115.305 352.966 116.523C353.579 117.741 353.886 119.1 353.886 120.599C353.886 122.099 353.579 123.462 352.966 124.689C352.361 125.915 351.425 126.893 350.157 127.622C348.89 128.343 347.266 128.703 345.285 128.703H339.12V125.969H345.186C346.553 125.969 347.651 125.733 348.479 125.26C349.308 124.788 349.909 124.15 350.282 123.346C350.663 122.534 350.853 121.619 350.853 120.599C350.853 119.58 350.663 118.669 350.282 117.865C349.909 117.061 349.304 116.432 348.467 115.976C347.63 115.512 346.52 115.28 345.136 115.28H339.717V138H336.635ZM358.454 138V118.909H361.387V138H358.454ZM359.945 115.727C359.373 115.727 358.88 115.533 358.466 115.143C358.06 114.754 357.857 114.286 357.857 113.739C357.857 113.192 358.06 112.724 358.466 112.334C358.88 111.945 359.373 111.75 359.945 111.75C360.517 111.75 361.006 111.945 361.412 112.334C361.826 112.724 362.033 113.192 362.033 113.739C362.033 114.286 361.826 114.754 361.412 115.143C361.006 115.533 360.517 115.727 359.945 115.727ZM369.693 112.545V138H366.759V112.545H369.693ZM383.069 138.398C381.23 138.398 379.643 137.992 378.309 137.18C376.983 136.359 375.96 135.216 375.239 133.749C374.526 132.274 374.17 130.559 374.17 128.604C374.17 126.648 374.526 124.925 375.239 123.433C375.96 121.933 376.963 120.765 378.247 119.928C379.539 119.083 381.048 118.661 382.771 118.661C383.765 118.661 384.747 118.826 385.717 119.158C386.686 119.489 387.569 120.028 388.364 120.773C389.159 121.511 389.793 122.489 390.266 123.707C390.738 124.925 390.974 126.424 390.974 128.206V129.449H376.258V126.913H387.991C387.991 125.836 387.776 124.875 387.345 124.03C386.922 123.185 386.317 122.518 385.53 122.029C384.751 121.54 383.832 121.295 382.771 121.295C381.603 121.295 380.592 121.585 379.738 122.165C378.893 122.737 378.243 123.483 377.787 124.403C377.331 125.322 377.103 126.308 377.103 127.361V129.051C377.103 130.493 377.352 131.715 377.849 132.718C378.355 133.712 379.055 134.47 379.95 134.992C380.845 135.506 381.884 135.763 383.069 135.763C383.84 135.763 384.536 135.655 385.157 135.44C385.787 135.216 386.33 134.884 386.786 134.445C387.241 133.998 387.593 133.443 387.842 132.78L390.676 133.575C390.378 134.536 389.876 135.382 389.172 136.111C388.468 136.832 387.598 137.395 386.562 137.801C385.526 138.199 384.362 138.398 383.069 138.398ZM414.179 112.545V138H411.097V115.777H410.947L404.733 119.903V116.771L411.097 112.545H414.179ZM431.791 138V112.545H434.873V123.881H448.446V112.545H451.528V138H448.446V126.615H434.873V138H431.791ZM465.306 138.398C463.466 138.398 461.879 137.992 460.545 137.18C459.22 136.359 458.196 135.216 457.475 133.749C456.763 132.274 456.406 130.559 456.406 128.604C456.406 126.648 456.763 124.925 457.475 123.433C458.196 121.933 459.199 120.765 460.483 119.928C461.776 119.083 463.284 118.661 465.007 118.661C466.002 118.661 466.984 118.826 467.953 119.158C468.922 119.489 469.805 120.028 470.6 120.773C471.396 121.511 472.03 122.489 472.502 123.707C472.974 124.925 473.21 126.424 473.21 128.206V129.449H458.495V126.913H470.227C470.227 125.836 470.012 124.875 469.581 124.03C469.159 123.185 468.554 122.518 467.767 122.029C466.988 121.54 466.068 121.295 465.007 121.295C463.839 121.295 462.828 121.585 461.975 122.165C461.129 122.737 460.479 123.483 460.023 124.403C459.568 125.322 459.34 126.308 459.34 127.361V129.051C459.34 130.493 459.588 131.715 460.085 132.718C460.591 133.712 461.291 134.47 462.186 134.992C463.081 135.506 464.121 135.763 465.306 135.763C466.076 135.763 466.772 135.655 467.394 135.44C468.023 135.216 468.566 134.884 469.022 134.445C469.478 133.998 469.83 133.443 470.078 132.78L472.912 133.575C472.614 134.536 472.113 135.382 471.408 136.111C470.704 136.832 469.834 137.395 468.798 137.801C467.762 138.199 466.598 138.398 465.306 138.398ZM483.29 138.447C482.081 138.447 480.983 138.22 479.997 137.764C479.011 137.3 478.228 136.633 477.648 135.763C477.068 134.884 476.778 133.824 476.778 132.581C476.778 131.487 476.993 130.601 477.424 129.921C477.855 129.233 478.431 128.695 479.152 128.305C479.872 127.916 480.668 127.626 481.538 127.435C482.416 127.237 483.299 127.079 484.185 126.963C485.345 126.814 486.286 126.702 487.007 126.627C487.736 126.545 488.266 126.408 488.598 126.217C488.937 126.027 489.107 125.695 489.107 125.223V125.124C489.107 123.897 488.772 122.944 488.1 122.265C487.437 121.585 486.431 121.246 485.08 121.246C483.68 121.246 482.582 121.552 481.786 122.165C480.991 122.779 480.432 123.433 480.109 124.129L477.324 123.135C477.822 121.975 478.484 121.072 479.313 120.425C480.15 119.771 481.061 119.315 482.047 119.058C483.042 118.793 484.02 118.661 484.981 118.661C485.594 118.661 486.298 118.735 487.094 118.884C487.897 119.025 488.672 119.319 489.418 119.767C490.172 120.214 490.797 120.889 491.295 121.793C491.792 122.696 492.04 123.906 492.04 125.422V138H489.107V135.415H488.958C488.759 135.829 488.428 136.272 487.964 136.745C487.5 137.217 486.882 137.619 486.112 137.95C485.341 138.282 484.401 138.447 483.29 138.447ZM483.738 135.812C484.898 135.812 485.876 135.585 486.671 135.129C487.475 134.673 488.08 134.085 488.486 133.364C488.9 132.643 489.107 131.885 489.107 131.089V128.405C488.983 128.554 488.709 128.691 488.287 128.815C487.872 128.931 487.392 129.035 486.845 129.126C486.306 129.209 485.78 129.283 485.267 129.349C484.761 129.407 484.351 129.457 484.036 129.499C483.274 129.598 482.561 129.76 481.898 129.983C481.244 130.199 480.713 130.526 480.307 130.965C479.91 131.396 479.711 131.984 479.711 132.73C479.711 133.749 480.088 134.52 480.842 135.042C481.604 135.556 482.569 135.812 483.738 135.812ZM504.603 138.398C503.012 138.398 501.608 137.996 500.39 137.192C499.171 136.38 498.219 135.237 497.531 133.762C496.843 132.279 496.499 130.526 496.499 128.504C496.499 126.499 496.843 124.759 497.531 123.284C498.219 121.809 499.176 120.67 500.402 119.866C501.628 119.062 503.045 118.661 504.653 118.661C505.896 118.661 506.877 118.868 507.598 119.282C508.327 119.688 508.883 120.152 509.264 120.674C509.653 121.188 509.956 121.61 510.171 121.942H510.42V112.545H513.353V138H510.519V135.067H510.171C509.956 135.415 509.649 135.854 509.251 136.384C508.854 136.906 508.286 137.374 507.549 137.789C506.811 138.195 505.829 138.398 504.603 138.398ZM505.001 135.763C506.177 135.763 507.172 135.456 507.984 134.843C508.796 134.222 509.413 133.364 509.836 132.27C510.258 131.168 510.469 129.896 510.469 128.455C510.469 127.029 510.262 125.782 509.848 124.713C509.434 123.636 508.821 122.799 508.008 122.203C507.196 121.598 506.194 121.295 505.001 121.295C503.758 121.295 502.722 121.614 501.893 122.252C501.073 122.882 500.456 123.74 500.042 124.825C499.635 125.902 499.432 127.112 499.432 128.455C499.432 129.813 499.64 131.048 500.054 132.158C500.477 133.26 501.098 134.139 501.918 134.793C502.747 135.44 503.774 135.763 505.001 135.763ZM362.15 180V154.545H370.751C372.748 154.545 374.38 154.906 375.648 155.627C376.924 156.339 377.868 157.305 378.481 158.523C379.095 159.741 379.401 161.1 379.401 162.599C379.401 164.099 379.095 165.462 378.481 166.689C377.877 167.915 376.94 168.893 375.672 169.622C374.405 170.343 372.781 170.703 370.8 170.703H364.636V167.969H370.701C372.068 167.969 373.166 167.733 373.995 167.26C374.823 166.788 375.424 166.15 375.797 165.346C376.178 164.534 376.369 163.619 376.369 162.599C376.369 161.58 376.178 160.669 375.797 159.865C375.424 159.061 374.819 158.432 373.982 157.976C373.145 157.512 372.035 157.28 370.651 157.28H365.232V180H362.15ZM391.519 180.398C389.796 180.398 388.284 179.988 386.983 179.167C385.69 178.347 384.679 177.199 383.95 175.724C383.229 174.25 382.869 172.526 382.869 170.554C382.869 168.565 383.229 166.829 383.95 165.346C384.679 163.863 385.69 162.711 386.983 161.891C388.284 161.071 389.796 160.661 391.519 160.661C393.243 160.661 394.751 161.071 396.044 161.891C397.344 162.711 398.355 163.863 399.076 165.346C399.805 166.829 400.17 168.565 400.17 170.554C400.17 172.526 399.805 174.25 399.076 175.724C398.355 177.199 397.344 178.347 396.044 179.167C394.751 179.988 393.243 180.398 391.519 180.398ZM391.519 177.763C392.829 177.763 393.906 177.427 394.751 176.756C395.596 176.085 396.222 175.202 396.628 174.109C397.034 173.015 397.237 171.83 397.237 170.554C397.237 169.278 397.034 168.089 396.628 166.987C396.222 165.885 395.596 164.994 394.751 164.315C393.906 163.635 392.829 163.295 391.519 163.295C390.21 163.295 389.133 163.635 388.288 164.315C387.443 164.994 386.817 165.885 386.411 166.987C386.005 168.089 385.802 169.278 385.802 170.554C385.802 171.83 386.005 173.015 386.411 174.109C386.817 175.202 387.443 176.085 388.288 176.756C389.133 177.427 390.21 177.763 391.519 177.763ZM418.17 165.185L415.535 165.93C415.37 165.491 415.125 165.065 414.802 164.65C414.487 164.228 414.056 163.88 413.509 163.606C412.963 163.333 412.262 163.196 411.409 163.196C410.241 163.196 409.267 163.465 408.488 164.004C407.718 164.534 407.332 165.21 407.332 166.03C407.332 166.759 407.597 167.335 408.128 167.757C408.658 168.18 409.487 168.532 410.613 168.814L413.447 169.51C415.154 169.924 416.426 170.558 417.263 171.412C418.1 172.257 418.518 173.346 418.518 174.68C418.518 175.774 418.203 176.752 417.574 177.614C416.952 178.475 416.082 179.155 414.964 179.652C413.845 180.149 412.544 180.398 411.061 180.398C409.114 180.398 407.502 179.975 406.226 179.13C404.95 178.285 404.142 177.05 403.802 175.426L406.586 174.73C406.852 175.758 407.353 176.528 408.09 177.042C408.836 177.556 409.81 177.812 411.011 177.812C412.378 177.812 413.464 177.522 414.268 176.942C415.08 176.354 415.486 175.65 415.486 174.83C415.486 174.167 415.254 173.612 414.79 173.164C414.326 172.708 413.613 172.369 412.652 172.145L409.47 171.399C407.722 170.985 406.437 170.343 405.617 169.473C404.805 168.594 404.399 167.496 404.399 166.179C404.399 165.102 404.701 164.149 405.306 163.32C405.919 162.492 406.752 161.841 407.805 161.369C408.865 160.897 410.067 160.661 411.409 160.661C413.298 160.661 414.781 161.075 415.858 161.903C416.944 162.732 417.715 163.826 418.17 165.185ZM422.934 180V160.909H425.867V180H422.934ZM424.425 157.727C423.853 157.727 423.36 157.533 422.946 157.143C422.54 156.754 422.337 156.286 422.337 155.739C422.337 155.192 422.54 154.724 422.946 154.334C423.36 153.945 423.853 153.75 424.425 153.75C424.997 153.75 425.486 153.945 425.892 154.334C426.306 154.724 426.513 155.192 426.513 155.739C426.513 156.286 426.306 156.754 425.892 157.143C425.486 157.533 424.997 157.727 424.425 157.727ZM439.542 160.909V163.395H429.648V160.909H439.542ZM432.532 156.335H435.465V174.531C435.465 175.36 435.585 175.981 435.826 176.396C436.074 176.802 436.389 177.075 436.77 177.216C437.16 177.348 437.57 177.415 438.001 177.415C438.324 177.415 438.589 177.398 438.796 177.365C439.003 177.324 439.169 177.29 439.293 177.266L439.89 179.901C439.691 179.975 439.413 180.05 439.057 180.124C438.701 180.207 438.249 180.249 437.702 180.249C436.874 180.249 436.062 180.07 435.266 179.714C434.479 179.358 433.825 178.815 433.303 178.086C432.789 177.357 432.532 176.437 432.532 175.327V156.335ZM443.954 180V160.909H446.887V180H443.954ZM445.446 157.727C444.874 157.727 444.381 157.533 443.967 157.143C443.561 156.754 443.358 156.286 443.358 155.739C443.358 155.192 443.561 154.724 443.967 154.334C444.381 153.945 444.874 153.75 445.446 153.75C446.017 153.75 446.506 153.945 446.912 154.334C447.327 154.724 447.534 155.192 447.534 155.739C447.534 156.286 447.327 156.754 446.912 157.143C446.506 157.533 446.017 157.727 445.446 157.727ZM460.016 180.398C458.292 180.398 456.78 179.988 455.479 179.167C454.186 178.347 453.175 177.199 452.446 175.724C451.725 174.25 451.365 172.526 451.365 170.554C451.365 168.565 451.725 166.829 452.446 165.346C453.175 163.863 454.186 162.711 455.479 161.891C456.78 161.071 458.292 160.661 460.016 160.661C461.739 160.661 463.247 161.071 464.54 161.891C465.841 162.711 466.851 163.863 467.572 165.346C468.302 166.829 468.666 168.565 468.666 170.554C468.666 172.526 468.302 174.25 467.572 175.724C466.851 177.199 465.841 178.347 464.54 179.167C463.247 179.988 461.739 180.398 460.016 180.398ZM460.016 177.763C461.325 177.763 462.402 177.427 463.247 176.756C464.092 176.085 464.718 175.202 465.124 174.109C465.53 173.015 465.733 171.83 465.733 170.554C465.733 169.278 465.53 168.089 465.124 166.987C464.718 165.885 464.092 164.994 463.247 164.315C462.402 163.635 461.325 163.295 460.016 163.295C458.706 163.295 457.629 163.635 456.784 164.315C455.939 164.994 455.313 165.885 454.907 166.987C454.501 168.089 454.298 169.278 454.298 170.554C454.298 171.83 454.501 173.015 454.907 174.109C455.313 175.202 455.939 176.085 456.784 176.756C457.629 177.427 458.706 177.763 460.016 177.763ZM476.077 168.516V180H473.144V160.909H475.977V163.892H476.226C476.673 162.923 477.353 162.144 478.264 161.555C479.176 160.959 480.352 160.661 481.794 160.661C483.087 160.661 484.218 160.926 485.187 161.456C486.157 161.978 486.911 162.773 487.449 163.842C487.988 164.903 488.257 166.245 488.257 167.869V180H485.324V168.068C485.324 166.568 484.935 165.4 484.156 164.563C483.377 163.718 482.308 163.295 480.949 163.295C480.013 163.295 479.176 163.498 478.438 163.904C477.709 164.31 477.133 164.903 476.711 165.682C476.288 166.461 476.077 167.405 476.077 168.516Z" fill="#717171"/>
<path d="M333.674 563V537.545H342.275C344.271 537.545 345.904 537.906 347.172 538.627C348.448 539.339 349.392 540.305 350.005 541.523C350.619 542.741 350.925 544.1 350.925 545.599C350.925 547.099 350.619 548.462 350.005 549.689C349.4 550.915 348.464 551.893 347.196 552.622C345.929 553.343 344.305 553.703 342.324 553.703H336.159V550.969H342.225C343.592 550.969 344.69 550.733 345.519 550.26C346.347 549.788 346.948 549.15 347.321 548.346C347.702 547.534 347.892 546.619 347.892 545.599C347.892 544.58 347.702 543.669 347.321 542.865C346.948 542.061 346.343 541.432 345.506 540.976C344.669 540.512 343.559 540.28 342.175 540.28H336.756V563H333.674ZM355.493 563V543.909H358.426V563H355.493ZM356.984 540.727C356.413 540.727 355.919 540.533 355.505 540.143C355.099 539.754 354.896 539.286 354.896 538.739C354.896 538.192 355.099 537.724 355.505 537.334C355.919 536.945 356.413 536.75 356.984 536.75C357.556 536.75 358.045 536.945 358.451 537.334C358.865 537.724 359.072 538.192 359.072 538.739C359.072 539.286 358.865 539.754 358.451 540.143C358.045 540.533 357.556 540.727 356.984 540.727ZM366.732 537.545V563H363.798V537.545H366.732ZM380.108 563.398C378.269 563.398 376.682 562.992 375.348 562.18C374.022 561.359 372.999 560.216 372.278 558.749C371.566 557.274 371.209 555.559 371.209 553.604C371.209 551.648 371.566 549.925 372.278 548.433C372.999 546.933 374.002 545.765 375.286 544.928C376.579 544.083 378.087 543.661 379.81 543.661C380.804 543.661 381.786 543.826 382.756 544.158C383.725 544.489 384.608 545.028 385.403 545.773C386.199 546.511 386.832 547.489 387.305 548.707C387.777 549.925 388.013 551.424 388.013 553.206V554.449H373.297V551.913H385.03C385.03 550.836 384.815 549.875 384.384 549.03C383.961 548.185 383.356 547.518 382.569 547.029C381.79 546.54 380.871 546.295 379.81 546.295C378.642 546.295 377.631 546.585 376.777 547.165C375.932 547.737 375.282 548.483 374.826 549.403C374.37 550.322 374.142 551.308 374.142 552.361V554.051C374.142 555.493 374.391 556.715 374.888 557.718C375.394 558.712 376.094 559.47 376.989 559.992C377.884 560.506 378.923 560.763 380.108 560.763C380.879 560.763 381.575 560.655 382.196 560.44C382.826 560.216 383.369 559.884 383.825 559.445C384.28 558.998 384.633 558.443 384.881 557.78L387.715 558.575C387.417 559.536 386.915 560.382 386.211 561.111C385.507 561.832 384.637 562.395 383.601 562.801C382.565 563.199 381.401 563.398 380.108 563.398ZM402.269 563V560.763L410.671 551.565C411.657 550.488 412.469 549.552 413.107 548.756C413.745 547.953 414.218 547.199 414.524 546.494C414.839 545.782 414.996 545.036 414.996 544.257C414.996 543.362 414.781 542.587 414.35 541.933C413.928 541.278 413.348 540.773 412.61 540.417C411.873 540.06 411.044 539.882 410.124 539.882C409.147 539.882 408.293 540.085 407.564 540.491C406.843 540.889 406.284 541.448 405.886 542.169C405.497 542.89 405.302 543.735 405.302 544.705H402.369C402.369 543.213 402.713 541.904 403.4 540.777C404.088 539.65 405.024 538.772 406.209 538.142C407.402 537.512 408.741 537.197 410.224 537.197C411.715 537.197 413.037 537.512 414.189 538.142C415.34 538.772 416.244 539.621 416.898 540.69C417.553 541.759 417.88 542.948 417.88 544.257C417.88 545.193 417.71 546.109 417.37 547.004C417.039 547.891 416.459 548.881 415.63 549.974C414.81 551.06 413.671 552.386 412.212 553.952L406.495 560.067V560.266H418.327V563H402.269ZM433.752 563V537.545H436.834V548.881H450.407V537.545H453.489V563H450.407V551.615H436.834V563H433.752ZM467.267 563.398C465.427 563.398 463.84 562.992 462.506 562.18C461.181 561.359 460.157 560.216 459.436 558.749C458.724 557.274 458.367 555.559 458.367 553.604C458.367 551.648 458.724 549.925 459.436 548.433C460.157 546.933 461.16 545.765 462.444 544.928C463.737 544.083 465.245 543.661 466.968 543.661C467.963 543.661 468.944 543.826 469.914 544.158C470.883 544.489 471.766 545.028 472.561 545.773C473.357 546.511 473.991 547.489 474.463 548.707C474.935 549.925 475.171 551.424 475.171 553.206V554.449H460.455V551.913H472.188C472.188 550.836 471.973 549.875 471.542 549.03C471.12 548.185 470.515 547.518 469.727 547.029C468.949 546.54 468.029 546.295 466.968 546.295C465.8 546.295 464.789 546.585 463.936 547.165C463.09 547.737 462.44 548.483 461.984 549.403C461.529 550.322 461.301 551.308 461.301 552.361V554.051C461.301 555.493 461.549 556.715 462.046 557.718C462.552 558.712 463.252 559.47 464.147 559.992C465.042 560.506 466.082 560.763 467.267 560.763C468.037 560.763 468.733 560.655 469.355 560.44C469.984 560.216 470.527 559.884 470.983 559.445C471.439 558.998 471.791 558.443 472.039 557.78L474.873 558.575C474.575 559.536 474.073 560.382 473.369 561.111C472.665 561.832 471.795 562.395 470.759 562.801C469.723 563.199 468.559 563.398 467.267 563.398ZM485.251 563.447C484.042 563.447 482.944 563.22 481.958 562.764C480.972 562.3 480.189 561.633 479.609 560.763C479.029 559.884 478.739 558.824 478.739 557.581C478.739 556.487 478.954 555.601 479.385 554.921C479.816 554.233 480.392 553.695 481.112 553.305C481.833 552.916 482.629 552.626 483.499 552.435C484.377 552.237 485.26 552.079 486.146 551.963C487.306 551.814 488.247 551.702 488.968 551.627C489.697 551.545 490.227 551.408 490.558 551.217C490.898 551.027 491.068 550.695 491.068 550.223V550.124C491.068 548.897 490.732 547.944 490.061 547.265C489.398 546.585 488.392 546.246 487.041 546.246C485.641 546.246 484.543 546.552 483.747 547.165C482.952 547.779 482.393 548.433 482.069 549.129L479.285 548.135C479.783 546.975 480.445 546.072 481.274 545.425C482.111 544.771 483.022 544.315 484.008 544.058C485.003 543.793 485.98 543.661 486.942 543.661C487.555 543.661 488.259 543.735 489.055 543.884C489.858 544.025 490.633 544.319 491.379 544.767C492.133 545.214 492.758 545.889 493.256 546.793C493.753 547.696 494.001 548.906 494.001 550.422V563H491.068V560.415H490.919C490.72 560.829 490.389 561.272 489.925 561.745C489.461 562.217 488.843 562.619 488.073 562.95C487.302 563.282 486.362 563.447 485.251 563.447ZM485.699 560.812C486.859 560.812 487.837 560.585 488.632 560.129C489.436 559.673 490.041 559.085 490.447 558.364C490.861 557.643 491.068 556.885 491.068 556.089V553.405C490.944 553.554 490.67 553.691 490.248 553.815C489.833 553.931 489.353 554.035 488.806 554.126C488.267 554.209 487.741 554.283 487.227 554.349C486.722 554.407 486.312 554.457 485.997 554.499C485.235 554.598 484.522 554.76 483.859 554.983C483.205 555.199 482.674 555.526 482.268 555.965C481.871 556.396 481.672 556.984 481.672 557.73C481.672 558.749 482.049 559.52 482.803 560.042C483.565 560.556 484.53 560.812 485.699 560.812ZM506.564 563.398C504.973 563.398 503.568 562.996 502.35 562.192C501.132 561.38 500.18 560.237 499.492 558.762C498.804 557.279 498.46 555.526 498.46 553.504C498.46 551.499 498.804 549.759 499.492 548.284C500.18 546.809 501.137 545.67 502.363 544.866C503.589 544.062 505.006 543.661 506.614 543.661C507.856 543.661 508.838 543.868 509.559 544.282C510.288 544.688 510.844 545.152 511.225 545.674C511.614 546.188 511.917 546.61 512.132 546.942H512.381V537.545H515.314V563H512.48V560.067H512.132C511.917 560.415 511.61 560.854 511.212 561.384C510.815 561.906 510.247 562.374 509.51 562.789C508.772 563.195 507.79 563.398 506.564 563.398ZM506.962 560.763C508.138 560.763 509.133 560.456 509.945 559.843C510.757 559.222 511.374 558.364 511.796 557.27C512.219 556.168 512.43 554.896 512.43 553.455C512.43 552.029 512.223 550.782 511.809 549.713C511.395 548.636 510.781 547.799 509.969 547.203C509.157 546.598 508.155 546.295 506.962 546.295C505.719 546.295 504.683 546.614 503.854 547.252C503.034 547.882 502.417 548.74 502.002 549.825C501.596 550.902 501.393 552.112 501.393 553.455C501.393 554.813 501.601 556.048 502.015 557.158C502.437 558.26 503.059 559.139 503.879 559.793C504.708 560.44 505.735 560.763 506.962 560.763ZM361.65 605V579.545H370.251C372.248 579.545 373.88 579.906 375.148 580.627C376.424 581.339 377.368 582.305 377.981 583.523C378.595 584.741 378.901 586.1 378.901 587.599C378.901 589.099 378.595 590.462 377.981 591.689C377.377 592.915 376.44 593.893 375.172 594.622C373.905 595.343 372.281 595.703 370.3 595.703H364.136V592.969H370.201C371.568 592.969 372.666 592.733 373.495 592.26C374.323 591.788 374.924 591.15 375.297 590.346C375.678 589.534 375.869 588.619 375.869 587.599C375.869 586.58 375.678 585.669 375.297 584.865C374.924 584.061 374.319 583.432 373.482 582.976C372.645 582.512 371.535 582.28 370.151 582.28H364.732V605H361.65ZM391.019 605.398C389.296 605.398 387.784 604.988 386.483 604.167C385.19 603.347 384.179 602.199 383.45 600.724C382.729 599.25 382.369 597.526 382.369 595.554C382.369 593.565 382.729 591.829 383.45 590.346C384.179 588.863 385.19 587.711 386.483 586.891C387.784 586.071 389.296 585.661 391.019 585.661C392.743 585.661 394.251 586.071 395.544 586.891C396.844 587.711 397.855 588.863 398.576 590.346C399.305 591.829 399.67 593.565 399.67 595.554C399.67 597.526 399.305 599.25 398.576 600.724C397.855 602.199 396.844 603.347 395.544 604.167C394.251 604.988 392.743 605.398 391.019 605.398ZM391.019 602.763C392.329 602.763 393.406 602.427 394.251 601.756C395.096 601.085 395.722 600.202 396.128 599.109C396.534 598.015 396.737 596.83 396.737 595.554C396.737 594.278 396.534 593.089 396.128 591.987C395.722 590.885 395.096 589.994 394.251 589.315C393.406 588.635 392.329 588.295 391.019 588.295C389.71 588.295 388.633 588.635 387.788 589.315C386.943 589.994 386.317 590.885 385.911 591.987C385.505 593.089 385.302 594.278 385.302 595.554C385.302 596.83 385.505 598.015 385.911 599.109C386.317 600.202 386.943 601.085 387.788 601.756C388.633 602.427 389.71 602.763 391.019 602.763ZM417.67 590.185L415.035 590.93C414.87 590.491 414.625 590.065 414.302 589.65C413.987 589.228 413.556 588.88 413.009 588.606C412.463 588.333 411.762 588.196 410.909 588.196C409.741 588.196 408.767 588.465 407.988 589.004C407.218 589.534 406.832 590.21 406.832 591.03C406.832 591.759 407.097 592.335 407.628 592.757C408.158 593.18 408.987 593.532 410.113 593.814L412.947 594.51C414.654 594.924 415.926 595.558 416.763 596.412C417.6 597.257 418.018 598.346 418.018 599.68C418.018 600.774 417.703 601.752 417.074 602.614C416.452 603.475 415.582 604.155 414.464 604.652C413.345 605.149 412.044 605.398 410.561 605.398C408.614 605.398 407.002 604.975 405.726 604.13C404.45 603.285 403.642 602.05 403.302 600.426L406.086 599.73C406.352 600.758 406.853 601.528 407.59 602.042C408.336 602.556 409.31 602.812 410.511 602.812C411.878 602.812 412.964 602.522 413.768 601.942C414.58 601.354 414.986 600.65 414.986 599.83C414.986 599.167 414.754 598.612 414.29 598.164C413.826 597.708 413.113 597.369 412.152 597.145L408.97 596.399C407.222 595.985 405.937 595.343 405.117 594.473C404.305 593.594 403.899 592.496 403.899 591.179C403.899 590.102 404.201 589.149 404.806 588.32C405.419 587.492 406.252 586.841 407.305 586.369C408.365 585.897 409.567 585.661 410.909 585.661C412.798 585.661 414.281 586.075 415.358 586.903C416.444 587.732 417.215 588.826 417.67 590.185ZM422.434 605V585.909H425.367V605H422.434ZM423.925 582.727C423.353 582.727 422.86 582.533 422.446 582.143C422.04 581.754 421.837 581.286 421.837 580.739C421.837 580.192 422.04 579.724 422.446 579.334C422.86 578.945 423.353 578.75 423.925 578.75C424.497 578.75 424.986 578.945 425.392 579.334C425.806 579.724 426.013 580.192 426.013 580.739C426.013 581.286 425.806 581.754 425.392 582.143C424.986 582.533 424.497 582.727 423.925 582.727ZM439.042 585.909V588.395H429.148V585.909H439.042ZM432.032 581.335H434.965V599.531C434.965 600.36 435.085 600.981 435.326 601.396C435.574 601.802 435.889 602.075 436.27 602.216C436.66 602.348 437.07 602.415 437.501 602.415C437.824 602.415 438.089 602.398 438.296 602.365C438.503 602.324 438.669 602.29 438.793 602.266L439.39 604.901C439.191 604.975 438.913 605.05 438.557 605.124C438.201 605.207 437.749 605.249 437.202 605.249C436.374 605.249 435.562 605.07 434.766 604.714C433.979 604.358 433.325 603.815 432.803 603.086C432.289 602.357 432.032 601.437 432.032 600.327V581.335ZM443.454 605V585.909H446.387V605H443.454ZM444.946 582.727C444.374 582.727 443.881 582.533 443.467 582.143C443.061 581.754 442.858 581.286 442.858 580.739C442.858 580.192 443.061 579.724 443.467 579.334C443.881 578.945 444.374 578.75 444.946 578.75C445.517 578.75 446.006 578.945 446.412 579.334C446.827 579.724 447.034 580.192 447.034 580.739C447.034 581.286 446.827 581.754 446.412 582.143C446.006 582.533 445.517 582.727 444.946 582.727ZM459.516 605.398C457.792 605.398 456.28 604.988 454.979 604.167C453.686 603.347 452.675 602.199 451.946 600.724C451.225 599.25 450.865 597.526 450.865 595.554C450.865 593.565 451.225 591.829 451.946 590.346C452.675 588.863 453.686 587.711 454.979 586.891C456.28 586.071 457.792 585.661 459.516 585.661C461.239 585.661 462.747 586.071 464.04 586.891C465.341 587.711 466.351 588.863 467.072 590.346C467.802 591.829 468.166 593.565 468.166 595.554C468.166 597.526 467.802 599.25 467.072 600.724C466.351 602.199 465.341 603.347 464.04 604.167C462.747 604.988 461.239 605.398 459.516 605.398ZM459.516 602.763C460.825 602.763 461.902 602.427 462.747 601.756C463.592 601.085 464.218 600.202 464.624 599.109C465.03 598.015 465.233 596.83 465.233 595.554C465.233 594.278 465.03 593.089 464.624 591.987C464.218 590.885 463.592 589.994 462.747 589.315C461.902 588.635 460.825 588.295 459.516 588.295C458.206 588.295 457.129 588.635 456.284 589.315C455.439 589.994 454.813 590.885 454.407 591.987C454.001 593.089 453.798 594.278 453.798 595.554C453.798 596.83 454.001 598.015 454.407 599.109C454.813 600.202 455.439 601.085 456.284 601.756C457.129 602.427 458.206 602.763 459.516 602.763ZM475.577 593.516V605H472.644V585.909H475.477V588.892H475.726C476.173 587.923 476.853 587.144 477.764 586.555C478.676 585.959 479.852 585.661 481.294 585.661C482.587 585.661 483.718 585.926 484.687 586.456C485.657 586.978 486.411 587.773 486.949 588.842C487.488 589.903 487.757 591.245 487.757 592.869V605H484.824V593.068C484.824 591.568 484.435 590.4 483.656 589.563C482.877 588.718 481.808 588.295 480.449 588.295C479.513 588.295 478.676 588.498 477.938 588.904C477.209 589.31 476.633 589.903 476.211 590.682C475.788 591.461 475.577 592.405 475.577 593.516Z" fill="#717171"/>
<path d="M138.332 430.909V460H134.81V434.602H134.639L127.537 439.318V435.739L134.81 430.909H138.332ZM146.699 460V457.443L156.301 446.932C157.428 445.701 158.356 444.631 159.085 443.722C159.814 442.803 160.354 441.941 160.705 441.136C161.064 440.322 161.244 439.47 161.244 438.58C161.244 437.557 160.998 436.671 160.506 435.923C160.023 435.175 159.36 434.598 158.517 434.19C157.674 433.783 156.727 433.58 155.676 433.58C154.559 433.58 153.583 433.812 152.75 434.276C151.926 434.73 151.287 435.369 150.832 436.193C150.387 437.017 150.165 437.983 150.165 439.091H146.812C146.812 437.386 147.205 435.89 147.991 434.602C148.777 433.314 149.848 432.311 151.202 431.591C152.565 430.871 154.095 430.511 155.79 430.511C157.494 430.511 159.005 430.871 160.321 431.591C161.637 432.311 162.67 433.281 163.418 434.503C164.166 435.724 164.54 437.083 164.54 438.58C164.54 439.65 164.346 440.696 163.957 441.719C163.579 442.732 162.916 443.864 161.969 445.114C161.031 446.354 159.729 447.869 158.062 449.659L151.528 456.648V456.875H165.051V460H146.699Z" fill="white"/>
<path d="M364.572 276.034V273.136L377.356 252.909H379.458V257.398H378.038L368.379 272.682V272.909H385.594V276.034H364.572ZM378.265 282V275.153V273.804V252.909H381.617V282H378.265ZM391.827 282L404.838 256.261V256.034H389.838V252.909H408.474V256.205L395.52 282H391.827Z" fill="white"/>
<path d="M254.497 460.398C252.622 460.398 250.951 460.076 249.483 459.432C248.025 458.788 246.865 457.893 246.003 456.747C245.151 455.592 244.687 454.252 244.611 452.727H248.19C248.266 453.665 248.588 454.474 249.156 455.156C249.724 455.829 250.468 456.349 251.386 456.719C252.305 457.088 253.323 457.273 254.44 457.273C255.69 457.273 256.798 457.055 257.764 456.619C258.73 456.184 259.488 455.578 260.037 454.801C260.586 454.025 260.861 453.125 260.861 452.102C260.861 451.032 260.596 450.09 260.065 449.276C259.535 448.452 258.759 447.808 257.736 447.344C256.713 446.88 255.463 446.648 253.986 446.648H251.656V443.523H253.986C255.141 443.523 256.154 443.314 257.026 442.898C257.906 442.481 258.593 441.894 259.085 441.136C259.587 440.379 259.838 439.489 259.838 438.466C259.838 437.481 259.62 436.624 259.185 435.895C258.749 435.166 258.134 434.598 257.338 434.19C256.552 433.783 255.624 433.58 254.554 433.58C253.55 433.58 252.603 433.764 251.713 434.134C250.832 434.493 250.113 435.019 249.554 435.71C248.995 436.392 248.692 437.216 248.645 438.182H245.236C245.293 436.657 245.752 435.322 246.614 434.176C247.475 433.021 248.602 432.121 249.994 431.477C251.396 430.833 252.935 430.511 254.611 430.511C256.41 430.511 257.954 430.876 259.241 431.605C260.529 432.325 261.519 433.277 262.21 434.46C262.902 435.644 263.247 436.922 263.247 438.295C263.247 439.934 262.816 441.33 261.955 442.486C261.102 443.641 259.942 444.441 258.474 444.886V445.114C260.312 445.417 261.746 446.198 262.778 447.457C263.811 448.707 264.327 450.256 264.327 452.102C264.327 453.684 263.896 455.104 263.034 456.364C262.182 457.614 261.017 458.598 259.54 459.318C258.063 460.038 256.382 460.398 254.497 460.398ZM270.136 460V457.443L279.739 446.932C280.866 445.701 281.794 444.631 282.523 443.722C283.252 442.803 283.792 441.941 284.142 441.136C284.502 440.322 284.682 439.47 284.682 438.58C284.682 437.557 284.436 436.671 283.943 435.923C283.46 435.175 282.797 434.598 281.955 434.19C281.112 433.783 280.165 433.58 279.114 433.58C277.996 433.58 277.021 433.812 276.188 434.276C275.364 434.73 274.724 435.369 274.27 436.193C273.825 437.017 273.602 437.983 273.602 439.091H270.25C270.25 437.386 270.643 435.89 271.429 434.602C272.215 433.314 273.285 432.311 274.639 431.591C276.003 430.871 277.532 430.511 279.227 430.511C280.932 430.511 282.442 430.871 283.759 431.591C285.075 432.311 286.107 433.281 286.855 434.503C287.603 435.724 287.977 437.083 287.977 438.58C287.977 439.65 287.783 440.696 287.395 441.719C287.016 442.732 286.353 443.864 285.406 445.114C284.469 446.354 283.167 447.869 281.5 449.659L274.966 456.648V456.875H288.489V460H270.136Z" fill="white"/>
<path d="M280.561 148.061C281.146 147.475 281.146 146.525 280.561 145.939L271.015 136.393C270.429 135.808 269.479 135.808 268.893 136.393C268.308 136.979 268.308 137.929 268.893 138.515L277.379 147L268.893 155.485C268.308 156.071 268.308 157.021 268.893 157.607C269.479 158.192 270.429 158.192 271.015 157.607L280.561 148.061ZM149.5 147L149.5 145.5L148 145.5L148 147L149.5 147ZM149.5 186L151 186L151 147L149.5 147L148 147L148 186L149.5 186ZM149.5 147L149.5 148.5L279.5 148.5L279.5 147L279.5 145.5L149.5 145.5L149.5 147Z" fill="#717171"/>
<path d="M280.061 569.939C280.646 570.525 280.646 571.475 280.061 572.061L270.515 581.607C269.929 582.192 268.979 582.192 268.393 581.607C267.808 581.021 267.808 580.071 268.393 579.485L276.879 571L268.393 562.515C267.808 561.929 267.808 560.979 268.393 560.393C268.979 559.808 269.929 559.808 270.515 560.393L280.061 569.939ZM149 571L149 572.5L147.5 572.5L147.5 571L149 571ZM149 532L150.5 532L150.5 571H149L147.5 571L147.5 532L149 532ZM149 571L149 569.5L279 569.5L279 571L279 572.5L149 572.5L149 571Z" fill="#717171"/>
</svg>
