<svg width="850" height="1120" viewBox="0 0 850 1120" fill="none" xmlns="http://www.w3.org/2000/svg">
<path d="M346.396 15.9091H353.981L361.992 35.4545H362.333L370.344 15.9091H377.93V45H371.964V26.0653H371.722L364.194 44.858H360.131L352.603 25.9943H352.362V45H346.396V15.9091ZM392.827 45.4261C390.582 45.4261 388.651 44.9716 387.031 44.0625C385.421 43.1439 384.181 41.8466 383.31 40.1705C382.438 38.4848 382.003 36.4915 382.003 34.1903C382.003 31.946 382.438 29.9763 383.31 28.2812C384.181 26.5862 385.407 25.2652 386.989 24.3182C388.58 23.3712 390.445 22.8977 392.585 22.8977C394.025 22.8977 395.365 23.1297 396.605 23.5938C397.855 24.0483 398.944 24.7348 399.872 25.6534C400.81 26.572 401.539 27.7273 402.06 29.1193C402.58 30.5019 402.841 32.1212 402.841 33.9773V35.6392H384.418V31.8892H397.145C397.145 31.018 396.955 30.2462 396.577 29.5739C396.198 28.9015 395.672 28.3759 395 27.9972C394.337 27.6089 393.565 27.4148 392.685 27.4148C391.766 27.4148 390.952 27.6278 390.241 28.054C389.541 28.4706 388.991 29.0341 388.594 29.7443C388.196 30.4451 387.992 31.2263 387.983 32.0881V35.6534C387.983 36.733 388.182 37.6657 388.58 38.4517C388.987 39.2377 389.56 39.8438 390.298 40.2699C391.037 40.696 391.913 40.9091 392.926 40.9091C393.598 40.9091 394.214 40.8144 394.773 40.625C395.331 40.4356 395.81 40.1515 396.207 39.7727C396.605 39.3939 396.908 38.9299 397.116 38.3807L402.713 38.75C402.429 40.0947 401.847 41.2689 400.966 42.2727C400.095 43.267 398.968 44.0436 397.585 44.6023C396.212 45.1515 394.626 45.4261 392.827 45.4261ZM406.79 45V23.1818H412.656V26.9886H412.884C413.281 25.6345 413.949 24.6117 414.886 23.9205C415.824 23.2197 416.903 22.8693 418.125 22.8693C418.428 22.8693 418.755 22.8883 419.105 22.9261C419.455 22.964 419.763 23.0161 420.028 23.0824V28.4517C419.744 28.3665 419.351 28.2907 418.849 28.2244C418.348 28.1581 417.888 28.125 417.472 28.125C416.581 28.125 415.786 28.3191 415.085 28.7074C414.394 29.0862 413.845 29.6165 413.438 30.2983C413.04 30.9801 412.841 31.7661 412.841 32.6562V45H406.79ZM431.971 53.6364C430.011 53.6364 428.33 53.3665 426.928 52.8267C425.536 52.2964 424.428 51.572 423.604 50.6534C422.781 49.7348 422.246 48.7027 421.999 47.5568L427.596 46.804C427.766 47.2396 428.036 47.6468 428.406 48.0256C428.775 48.4044 429.263 48.7074 429.869 48.9347C430.484 49.1714 431.232 49.2898 432.113 49.2898C433.429 49.2898 434.513 48.9678 435.366 48.3239C436.228 47.6894 436.658 46.6241 436.658 45.1278V41.1364H436.403C436.138 41.7424 435.74 42.3153 435.21 42.8551C434.679 43.3949 433.997 43.8352 433.164 44.1761C432.331 44.517 431.336 44.6875 430.181 44.6875C428.543 44.6875 427.051 44.3087 425.707 43.5511C424.371 42.7841 423.306 41.6146 422.511 40.0426C421.725 38.4612 421.332 36.4631 421.332 34.0483C421.332 31.5767 421.734 29.5123 422.539 27.8551C423.344 26.1979 424.414 24.9574 425.749 24.1335C427.094 23.3097 428.567 22.8977 430.167 22.8977C431.388 22.8977 432.411 23.1061 433.235 23.5227C434.059 23.9299 434.722 24.4413 435.224 25.0568C435.735 25.6629 436.128 26.2595 436.403 26.8466H436.63V23.1818H442.638V45.2131C442.638 47.0691 442.184 48.6222 441.275 49.8722C440.366 51.1222 439.106 52.0597 437.496 52.6847C435.896 53.3191 434.054 53.6364 431.971 53.6364ZM432.099 40.142C433.074 40.142 433.898 39.9006 434.57 39.4176C435.252 38.9252 435.773 38.2244 436.133 37.3153C436.502 36.3968 436.687 35.2983 436.687 34.0199C436.687 32.7415 436.507 31.6335 436.147 30.696C435.787 29.7491 435.266 29.0152 434.585 28.4943C433.903 27.9735 433.074 27.7131 432.099 27.7131C431.104 27.7131 430.266 27.983 429.585 28.5227C428.903 29.053 428.387 29.7917 428.036 30.7386C427.686 31.6856 427.511 32.7794 427.511 34.0199C427.511 35.2794 427.686 36.3684 428.036 37.2869C428.396 38.196 428.912 38.9015 429.585 39.4034C430.266 39.8958 431.104 40.142 432.099 40.142ZM447.454 45V23.1818H453.505V45H447.454ZM450.494 20.3693C449.594 20.3693 448.822 20.071 448.178 19.4744C447.544 18.8684 447.227 18.1439 447.227 17.3011C447.227 16.4678 447.544 15.7528 448.178 15.1562C448.822 14.5502 449.594 14.2472 450.494 14.2472C451.393 14.2472 452.16 14.5502 452.795 15.1562C453.439 15.7528 453.761 16.4678 453.761 17.3011C453.761 18.1439 453.439 18.8684 452.795 19.4744C452.16 20.071 451.393 20.3693 450.494 20.3693ZM464.403 32.3864V45H458.352V23.1818H464.119V27.0312H464.375C464.858 25.7623 465.668 24.7585 466.804 24.0199C467.94 23.2718 469.318 22.8977 470.938 22.8977C472.453 22.8977 473.774 23.2292 474.901 23.892C476.027 24.5549 476.903 25.5019 477.528 26.733C478.153 27.9545 478.466 29.4129 478.466 31.108V45H472.415V32.1875C472.424 30.8523 472.083 29.8106 471.392 29.0625C470.701 28.3049 469.749 27.9261 468.537 27.9261C467.723 27.9261 467.003 28.1013 466.378 28.4517C465.762 28.8021 465.279 29.3134 464.929 29.9858C464.588 30.6487 464.413 31.4489 464.403 32.3864ZM493.065 53.6364C491.104 53.6364 489.424 53.3665 488.022 52.8267C486.63 52.2964 485.522 51.572 484.698 50.6534C483.874 49.7348 483.339 48.7027 483.093 47.5568L488.69 46.804C488.86 47.2396 489.13 47.6468 489.499 48.0256C489.869 48.4044 490.356 48.7074 490.962 48.9347C491.578 49.1714 492.326 49.2898 493.207 49.2898C494.523 49.2898 495.607 48.9678 496.46 48.3239C497.321 47.6894 497.752 46.6241 497.752 45.1278V41.1364H497.496C497.231 41.7424 496.834 42.3153 496.303 42.8551C495.773 43.3949 495.091 43.8352 494.258 44.1761C493.424 44.517 492.43 44.6875 491.275 44.6875C489.637 44.6875 488.145 44.3087 486.8 43.5511C485.465 42.7841 484.4 41.6146 483.604 40.0426C482.818 38.4612 482.425 36.4631 482.425 34.0483C482.425 31.5767 482.828 29.5123 483.633 27.8551C484.438 26.1979 485.508 24.9574 486.843 24.1335C488.188 23.3097 489.66 22.8977 491.261 22.8977C492.482 22.8977 493.505 23.1061 494.329 23.5227C495.153 23.9299 495.816 24.4413 496.317 25.0568C496.829 25.6629 497.222 26.2595 497.496 26.8466H497.724V23.1818H503.732V45.2131C503.732 47.0691 503.278 48.6222 502.369 49.8722C501.46 51.1222 500.2 52.0597 498.59 52.6847C496.99 53.3191 495.148 53.6364 493.065 53.6364ZM493.192 40.142C494.168 40.142 494.992 39.9006 495.664 39.4176C496.346 38.9252 496.867 38.2244 497.227 37.3153C497.596 36.3968 497.781 35.2983 497.781 34.0199C497.781 32.7415 497.601 31.6335 497.241 30.696C496.881 29.7491 496.36 29.0152 495.678 28.4943C494.996 27.9735 494.168 27.7131 493.192 27.7131C492.198 27.7131 491.36 27.983 490.678 28.5227C489.996 29.053 489.48 29.7917 489.13 30.7386C488.78 31.6856 488.604 32.7794 488.604 34.0199C488.604 35.2794 488.78 36.3684 489.13 37.2869C489.49 38.196 490.006 38.9015 490.678 39.4034C491.36 39.8958 492.198 40.142 493.192 40.142Z" fill="white"/>
<line x1="133" y1="357" x2="133" y2="315" stroke="white" stroke-width="2"/>
<line x1="278" y1="647" x2="278" y2="605" stroke="white" stroke-width="2"/>
<line x1="445" y1="953" x2="445" y2="911" stroke="white" stroke-width="2"/>
<line x1="713" y1="357" x2="713" y2="315" stroke="white" stroke-width="2"/>
<line x1="425" y1="357" x2="425" y2="272" stroke="white" stroke-width="2"/>
<path d="M613 647L613 605.263L712 605.263L712 562" stroke="white" stroke-width="2"/>
<line x1="208" y1="314" x2="208" y2="272" stroke="white" stroke-width="2"/>
<line x1="425" y1="604" x2="425" y2="562" stroke="white" stroke-width="2"/>
<line x1="612" y1="911" x2="612" y2="869" stroke="white" stroke-width="2"/>
<line x1="788" y1="314" x2="788" y2="272" stroke="white" stroke-width="2"/>
<line x1="60" y1="314" x2="60" y2="272" stroke="white" stroke-width="2"/>
<line x1="133" y1="605" x2="133" y2="563" stroke="white" stroke-width="2"/>
<line x1="279" y1="912" x2="279" y2="870" stroke="white" stroke-width="2"/>
<line x1="640" y1="314" x2="640" y2="272" stroke="white" stroke-width="2"/>
<line x1="209" y1="315" x2="59" y2="315" stroke="white" stroke-width="2"/>
<line x1="426" y1="605" x2="132" y2="605" stroke="white" stroke-width="2"/>
<line x1="613" y1="912" x2="278" y2="912" stroke="white" stroke-width="2"/>
<line x1="789" y1="315" x2="639" y2="315" stroke="white" stroke-width="2"/>
<rect x="582" y="116" width="120" height="120" rx="26" stroke="#DBDBDB" stroke-width="2"/>
<rect x="1" y="116" width="120" height="120" rx="26" stroke="#DBDBDB" stroke-width="2"/>
<rect x="365" y="116" width="120" height="120" rx="26" stroke="#DBDBDB" stroke-width="2"/>
<rect x="365" y="389" width="120" height="120" rx="26" stroke="#DBDBDB" stroke-width="2"/>
<rect x="729" y="116" width="120" height="120" rx="26" stroke="#DBDBDB" stroke-width="2"/>
<rect x="148" y="116" width="120" height="120" rx="26" stroke="#DBDBDB" stroke-width="2"/>
<path d="M630.497 190.398C628.622 190.398 626.951 190.076 625.483 189.432C624.025 188.788 622.865 187.893 622.003 186.747C621.151 185.592 620.687 184.252 620.611 182.727H624.19C624.266 183.665 624.588 184.474 625.156 185.156C625.724 185.829 626.468 186.349 627.386 186.719C628.305 187.088 629.323 187.273 630.44 187.273C631.69 187.273 632.798 187.055 633.764 186.619C634.73 186.184 635.488 185.578 636.037 184.801C636.586 184.025 636.861 183.125 636.861 182.102C636.861 181.032 636.596 180.09 636.065 179.276C635.535 178.452 634.759 177.808 633.736 177.344C632.713 176.88 631.463 176.648 629.986 176.648H627.656V173.523H629.986C631.141 173.523 632.154 173.314 633.026 172.898C633.906 172.481 634.593 171.894 635.085 171.136C635.587 170.379 635.838 169.489 635.838 168.466C635.838 167.481 635.62 166.624 635.185 165.895C634.749 165.166 634.134 164.598 633.338 164.19C632.552 163.783 631.624 163.58 630.554 163.58C629.55 163.58 628.603 163.764 627.713 164.134C626.832 164.493 626.113 165.019 625.554 165.71C624.995 166.392 624.692 167.216 624.645 168.182H621.236C621.293 166.657 621.752 165.322 622.614 164.176C623.475 163.021 624.602 162.121 625.994 161.477C627.396 160.833 628.935 160.511 630.611 160.511C632.41 160.511 633.954 160.876 635.241 161.605C636.529 162.325 637.519 163.277 638.21 164.46C638.902 165.644 639.247 166.922 639.247 168.295C639.247 169.934 638.816 171.33 637.955 172.486C637.102 173.641 635.942 174.441 634.474 174.886V175.114C636.312 175.417 637.746 176.198 638.778 177.457C639.811 178.707 640.327 180.256 640.327 182.102C640.327 183.684 639.896 185.104 639.034 186.364C638.182 187.614 637.017 188.598 635.54 189.318C634.063 190.038 632.382 190.398 630.497 190.398ZM646.136 190V187.443L655.739 176.932C656.866 175.701 657.794 174.631 658.523 173.722C659.252 172.803 659.792 171.941 660.142 171.136C660.502 170.322 660.682 169.47 660.682 168.58C660.682 167.557 660.436 166.671 659.943 165.923C659.46 165.175 658.797 164.598 657.955 164.19C657.112 163.783 656.165 163.58 655.114 163.58C653.996 163.58 653.021 163.812 652.188 164.276C651.364 164.73 650.724 165.369 650.27 166.193C649.825 167.017 649.602 167.983 649.602 169.091H646.25C646.25 167.386 646.643 165.89 647.429 164.602C648.215 163.314 649.285 162.311 650.639 161.591C652.003 160.871 653.532 160.511 655.227 160.511C656.932 160.511 658.442 160.871 659.759 161.591C661.075 162.311 662.107 163.281 662.855 164.503C663.603 165.724 663.977 167.083 663.977 168.58C663.977 169.65 663.783 170.696 663.395 171.719C663.016 172.732 662.353 173.864 661.406 175.114C660.469 176.354 659.167 177.869 657.5 179.659L650.966 186.648V186.875H664.489V190H646.136Z" fill="white"/>
<path d="M40.9762 190V187.443L50.5785 176.932C51.7054 175.701 52.6334 174.631 53.3626 173.722C54.0917 172.803 54.6315 171.941 54.9819 171.136C55.3417 170.322 55.5217 169.47 55.5217 168.58C55.5217 167.557 55.2755 166.671 54.783 165.923C54.3001 165.175 53.6372 164.598 52.7944 164.19C51.9516 163.783 51.0046 163.58 49.9535 163.58C48.8361 163.58 47.8607 163.812 47.0273 164.276C46.2035 164.73 45.5643 165.369 45.1097 166.193C44.6647 167.017 44.4421 167.983 44.4421 169.091H41.0898C41.0898 167.386 41.4828 165.89 42.2688 164.602C43.0548 163.314 44.1249 162.311 45.479 161.591C46.8427 160.871 48.372 160.511 50.0671 160.511C51.7717 160.511 53.2821 160.871 54.5984 161.591C55.9147 162.311 56.9469 163.281 57.695 164.503C58.4431 165.724 58.8171 167.083 58.8171 168.58C58.8171 169.65 58.623 170.696 58.2347 171.719C57.8559 172.732 57.1931 173.864 56.2461 175.114C55.3086 176.354 54.0065 177.869 52.3398 179.659L45.8058 186.648V186.875H59.3285V190H40.9762ZM66.104 190L79.1154 164.261V164.034H64.1154V160.909H82.7518V164.205L69.7972 190H66.104Z" fill="white"/>
<path d="M416.961 160.909V190H413.439V164.602H413.268L406.166 169.318V165.739L413.439 160.909H416.961ZM434.589 160.511C435.782 160.521 436.975 160.748 438.169 161.193C439.362 161.638 440.451 162.377 441.436 163.409C442.421 164.432 443.211 165.829 443.808 167.599C444.404 169.37 444.703 171.591 444.703 174.261C444.703 176.847 444.457 179.143 443.964 181.151C443.481 183.149 442.78 184.834 441.862 186.207C440.953 187.58 439.845 188.622 438.538 189.332C437.241 190.043 435.773 190.398 434.135 190.398C432.506 190.398 431.052 190.076 429.774 189.432C428.505 188.778 427.463 187.874 426.649 186.719C425.844 185.554 425.328 184.205 425.1 182.67H428.566C428.879 184.006 429.499 185.109 430.427 185.98C431.365 186.842 432.6 187.273 434.135 187.273C436.379 187.273 438.15 186.293 439.447 184.332C440.754 182.372 441.407 179.602 441.407 176.023H441.18C440.65 176.818 440.02 177.505 439.291 178.082C438.562 178.66 437.752 179.105 436.862 179.418C435.972 179.73 435.025 179.886 434.021 179.886C432.354 179.886 430.825 179.474 429.433 178.651C428.05 177.817 426.942 176.676 426.109 175.227C425.285 173.769 424.873 172.102 424.873 170.227C424.873 168.447 425.271 166.818 426.066 165.341C426.871 163.854 427.998 162.67 429.447 161.79C430.905 160.909 432.619 160.483 434.589 160.511ZM434.589 163.636C433.396 163.636 432.321 163.935 431.365 164.531C430.418 165.118 429.665 165.914 429.106 166.918C428.557 167.912 428.282 169.015 428.282 170.227C428.282 171.439 428.547 172.543 429.078 173.537C429.618 174.522 430.351 175.308 431.279 175.895C432.217 176.473 433.282 176.761 434.475 176.761C435.375 176.761 436.213 176.586 436.99 176.236C437.766 175.876 438.443 175.388 439.021 174.773C439.608 174.148 440.067 173.442 440.399 172.656C440.73 171.861 440.896 171.032 440.896 170.17C440.896 169.034 440.621 167.969 440.072 166.974C439.532 165.98 438.784 165.175 437.828 164.56C436.881 163.944 435.801 163.636 434.589 163.636Z" fill="white"/>
<path d="M416.961 433.909V463H413.439V437.602H413.268L406.166 442.318V438.739L413.439 433.909H416.961ZM434.589 433.511C435.782 433.521 436.975 433.748 438.169 434.193C439.362 434.638 440.451 435.377 441.436 436.409C442.421 437.432 443.211 438.829 443.808 440.599C444.404 442.37 444.703 444.591 444.703 447.261C444.703 449.847 444.457 452.143 443.964 454.151C443.481 456.149 442.78 457.834 441.862 459.207C440.953 460.58 439.845 461.622 438.538 462.332C437.241 463.043 435.773 463.398 434.135 463.398C432.506 463.398 431.052 463.076 429.774 462.432C428.505 461.778 427.463 460.874 426.649 459.719C425.844 458.554 425.328 457.205 425.1 455.67H428.566C428.879 457.006 429.499 458.109 430.427 458.98C431.365 459.842 432.6 460.273 434.135 460.273C436.379 460.273 438.15 459.293 439.447 457.332C440.754 455.372 441.407 452.602 441.407 449.023H441.18C440.65 449.818 440.02 450.505 439.291 451.082C438.562 451.66 437.752 452.105 436.862 452.418C435.972 452.73 435.025 452.886 434.021 452.886C432.354 452.886 430.825 452.474 429.433 451.651C428.05 450.817 426.942 449.676 426.109 448.227C425.285 446.769 424.873 445.102 424.873 443.227C424.873 441.447 425.271 439.818 426.066 438.341C426.871 436.854 427.998 435.67 429.447 434.79C430.905 433.909 432.619 433.483 434.589 433.511ZM434.589 436.636C433.396 436.636 432.321 436.935 431.365 437.531C430.418 438.118 429.665 438.914 429.106 439.918C428.557 440.912 428.282 442.015 428.282 443.227C428.282 444.439 428.547 445.543 429.078 446.537C429.618 447.522 430.351 448.308 431.279 448.895C432.217 449.473 433.282 449.761 434.475 449.761C435.375 449.761 436.213 449.586 436.99 449.236C437.766 448.876 438.443 448.388 439.021 447.773C439.608 447.148 440.067 446.442 440.399 445.656C440.73 444.861 440.896 444.032 440.896 443.17C440.896 442.034 440.621 440.969 440.072 439.974C439.532 438.98 438.784 438.175 437.828 437.56C436.881 436.944 435.801 436.636 434.589 436.636Z" fill="white"/>
<path d="M781.332 160.909V190H777.81V164.602H777.639L770.537 169.318V165.739L777.81 160.909H781.332ZM789.699 190V187.443L799.301 176.932C800.428 175.701 801.356 174.631 802.085 173.722C802.814 172.803 803.354 171.941 803.705 171.136C804.064 170.322 804.244 169.47 804.244 168.58C804.244 167.557 803.998 166.671 803.506 165.923C803.023 165.175 802.36 164.598 801.517 164.19C800.674 163.783 799.727 163.58 798.676 163.58C797.559 163.58 796.583 163.812 795.75 164.276C794.926 164.73 794.287 165.369 793.832 166.193C793.387 167.017 793.165 167.983 793.165 169.091H789.812C789.812 167.386 790.205 165.89 790.991 164.602C791.777 163.314 792.848 162.311 794.202 161.591C795.565 160.871 797.095 160.511 798.79 160.511C800.494 160.511 802.005 160.871 803.321 161.591C804.637 162.311 805.67 163.281 806.418 164.503C807.166 165.724 807.54 167.083 807.54 168.58C807.54 169.65 807.346 170.696 806.957 171.719C806.579 172.732 805.916 173.864 804.969 175.114C804.031 176.354 802.729 177.869 801.062 179.659L794.528 186.648V186.875H808.051V190H789.699Z" fill="white"/>
<path d="M186.572 184.034V181.136L199.356 160.909H201.458V165.398H200.038L190.379 180.682V180.909H207.594V184.034H186.572ZM200.265 190V183.153V181.804V160.909H203.617V190H200.265ZM213.827 190L226.838 164.261V164.034H211.838V160.909H230.474V164.205L217.52 190H213.827Z" fill="white"/>
<rect x="13" y="389" width="238" height="120" rx="26" stroke="#DBDBDB" stroke-width="2"/>
<rect x="100" y="693" width="358" height="120" rx="26" stroke="#DBDBDB" stroke-width="2"/>
<rect x="100" y="693" width="358" height="120" rx="26" stroke="#DBDBDB" stroke-width="2"/>
<line x1="133" y1="388" x2="133" y2="510" stroke="#DBDBDB" stroke-width="2"/>
<rect x="593" y="389" width="238" height="120" rx="26" stroke="#DBDBDB" stroke-width="2"/>
<rect x="494" y="693" width="238" height="120" rx="26" stroke="#DBDBDB" stroke-width="2"/>
<path d="M50.9762 463V460.443L60.5785 449.932C61.7054 448.701 62.6334 447.631 63.3626 446.722C64.0917 445.803 64.6315 444.941 64.9819 444.136C65.3417 443.322 65.5217 442.47 65.5217 441.58C65.5217 440.557 65.2755 439.671 64.783 438.923C64.3001 438.175 63.6372 437.598 62.7944 437.19C61.9516 436.783 61.0046 436.58 59.9535 436.58C58.8361 436.58 57.8607 436.812 57.0273 437.276C56.2035 437.73 55.5643 438.369 55.1097 439.193C54.6647 440.017 54.4421 440.983 54.4421 442.091H51.0898C51.0898 440.386 51.4828 438.89 52.2688 437.602C53.0548 436.314 54.1249 435.311 55.479 434.591C56.8427 433.871 58.372 433.511 60.0671 433.511C61.7717 433.511 63.2821 433.871 64.5984 434.591C65.9147 435.311 66.9469 436.281 67.695 437.503C68.4431 438.724 68.8171 440.083 68.8171 441.58C68.8171 442.65 68.623 443.696 68.2347 444.719C67.8559 445.732 67.1931 446.864 66.2461 448.114C65.3086 449.354 64.0065 450.869 62.3398 452.659L55.8058 459.648V459.875H69.3285V463H50.9762ZM76.104 463L89.1154 437.261V437.034H74.1154V433.909H92.7518V437.205L79.7972 463H76.104Z" fill="white"/>
<line x1="220" y1="692" x2="220" y2="814" stroke="#DBDBDB" stroke-width="2"/>
<line x1="340" y1="692" x2="340" y2="814" stroke="#DBDBDB" stroke-width="2"/>
<path d="M169.572 457.034V454.136L182.356 433.909H184.458V438.398H183.038L173.379 453.682V453.909H190.594V457.034H169.572ZM183.265 463V456.153V454.804V433.909H186.617V463H183.265ZM196.827 463L209.838 437.261V437.034H194.838V433.909H213.474V437.205L200.52 463H196.827Z" fill="white"/>
<line x1="713" y1="388" x2="713" y2="510" stroke="#DBDBDB" stroke-width="2"/>
<line x1="614" y1="692" x2="614" y2="814" stroke="#DBDBDB" stroke-width="2"/>
<path d="M257.976 767V764.443L267.578 753.932C268.705 752.701 269.633 751.631 270.363 750.722C271.092 749.803 271.632 748.941 271.982 748.136C272.342 747.322 272.522 746.47 272.522 745.58C272.522 744.557 272.275 743.671 271.783 742.923C271.3 742.175 270.637 741.598 269.794 741.19C268.952 740.783 268.005 740.58 266.953 740.58C265.836 740.58 264.861 740.812 264.027 741.276C263.203 741.73 262.564 742.369 262.11 743.193C261.665 744.017 261.442 744.983 261.442 746.091H258.09C258.09 744.386 258.483 742.89 259.269 741.602C260.055 740.314 261.125 739.311 262.479 738.591C263.843 737.871 265.372 737.511 267.067 737.511C268.772 737.511 270.282 737.871 271.598 738.591C272.915 739.311 273.947 740.281 274.695 741.503C275.443 742.724 275.817 744.083 275.817 745.58C275.817 746.65 275.623 747.696 275.235 748.719C274.856 749.732 274.193 750.864 273.246 752.114C272.309 753.354 271.007 754.869 269.34 756.659L262.806 763.648V763.875H276.328V767H257.976ZM283.104 767L296.115 741.261V741.034H281.115V737.909H299.752V741.205L286.797 767H283.104Z" fill="white"/>
<path d="M150.961 737.909V767H147.439V741.602H147.268L140.166 746.318V742.739L147.439 737.909H150.961ZM168.589 737.511C169.782 737.521 170.975 737.748 172.169 738.193C173.362 738.638 174.451 739.377 175.436 740.409C176.421 741.432 177.211 742.829 177.808 744.599C178.404 746.37 178.703 748.591 178.703 751.261C178.703 753.847 178.457 756.143 177.964 758.151C177.481 760.149 176.78 761.834 175.862 763.207C174.953 764.58 173.845 765.622 172.538 766.332C171.241 767.043 169.773 767.398 168.135 767.398C166.506 767.398 165.052 767.076 163.774 766.432C162.505 765.778 161.463 764.874 160.649 763.719C159.844 762.554 159.328 761.205 159.1 759.67H162.566C162.879 761.006 163.499 762.109 164.427 762.98C165.365 763.842 166.6 764.273 168.135 764.273C170.379 764.273 172.15 763.293 173.447 761.332C174.754 759.372 175.407 756.602 175.407 753.023H175.18C174.65 753.818 174.02 754.505 173.291 755.082C172.562 755.66 171.752 756.105 170.862 756.418C169.972 756.73 169.025 756.886 168.021 756.886C166.354 756.886 164.825 756.474 163.433 755.651C162.05 754.817 160.942 753.676 160.109 752.227C159.285 750.769 158.873 749.102 158.873 747.227C158.873 745.447 159.271 743.818 160.066 742.341C160.871 740.854 161.998 739.67 163.447 738.79C164.905 737.909 166.619 737.483 168.589 737.511ZM168.589 740.636C167.396 740.636 166.321 740.935 165.365 741.531C164.418 742.118 163.665 742.914 163.106 743.918C162.557 744.912 162.282 746.015 162.282 747.227C162.282 748.439 162.547 749.543 163.078 750.537C163.618 751.522 164.351 752.308 165.279 752.895C166.217 753.473 167.282 753.761 168.475 753.761C169.375 753.761 170.213 753.586 170.99 753.236C171.766 752.876 172.443 752.388 173.021 751.773C173.608 751.148 174.067 750.442 174.399 749.656C174.73 748.861 174.896 748.032 174.896 747.17C174.896 746.034 174.621 744.969 174.072 743.974C173.532 742.98 172.784 742.175 171.828 741.56C170.881 740.944 169.801 740.636 168.589 740.636Z" fill="white"/>
<path d="M643.332 433.909V463H639.81V437.602H639.639L632.537 442.318V438.739L639.81 433.909H643.332ZM651.699 463V460.443L661.301 449.932C662.428 448.701 663.356 447.631 664.085 446.722C664.814 445.803 665.354 444.941 665.705 444.136C666.064 443.322 666.244 442.47 666.244 441.58C666.244 440.557 665.998 439.671 665.506 438.923C665.023 438.175 664.36 437.598 663.517 437.19C662.674 436.783 661.727 436.58 660.676 436.58C659.559 436.58 658.583 436.812 657.75 437.276C656.926 437.73 656.287 438.369 655.832 439.193C655.387 440.017 655.165 440.983 655.165 442.091H651.812C651.812 440.386 652.205 438.89 652.991 437.602C653.777 436.314 654.848 435.311 656.202 434.591C657.565 433.871 659.095 433.511 660.79 433.511C662.494 433.511 664.005 433.871 665.321 434.591C666.637 435.311 667.67 436.281 668.418 437.503C669.166 438.724 669.54 440.083 669.54 441.58C669.54 442.65 669.346 443.696 668.957 444.719C668.579 445.732 667.916 446.864 666.969 448.114C666.031 449.354 664.729 450.869 663.062 452.659L656.528 459.648V459.875H670.051V463H651.699Z" fill="white"/>
<path d="M544.332 737.909V767H540.81V741.602H540.639L533.537 746.318V742.739L540.81 737.909H544.332ZM552.699 767V764.443L562.301 753.932C563.428 752.701 564.356 751.631 565.085 750.722C565.814 749.803 566.354 748.941 566.705 748.136C567.064 747.322 567.244 746.47 567.244 745.58C567.244 744.557 566.998 743.671 566.506 742.923C566.023 742.175 565.36 741.598 564.517 741.19C563.674 740.783 562.727 740.58 561.676 740.58C560.559 740.58 559.583 740.812 558.75 741.276C557.926 741.73 557.287 742.369 556.832 743.193C556.387 744.017 556.165 744.983 556.165 746.091H552.812C552.812 744.386 553.205 742.89 553.991 741.602C554.777 740.314 555.848 739.311 557.202 738.591C558.565 737.871 560.095 737.511 561.79 737.511C563.494 737.511 565.005 737.871 566.321 738.591C567.637 739.311 568.67 740.281 569.418 741.503C570.166 742.724 570.54 744.083 570.54 745.58C570.54 746.65 570.346 747.696 569.957 748.719C569.579 749.732 568.916 750.864 567.969 752.114C567.031 753.354 565.729 754.869 564.062 756.659L557.528 763.648V763.875H571.051V767H552.699Z" fill="white"/>
<path d="M376.572 761.034V758.136L389.356 737.909H391.458V742.398H390.038L380.379 757.682V757.909H397.594V761.034H376.572ZM390.265 767V760.153V758.804V737.909H393.617V767H390.265ZM403.827 767L416.838 741.261V741.034H401.838V737.909H420.474V741.205L407.52 767H403.827Z" fill="white"/>
<path d="M759.497 463.398C757.622 463.398 755.951 463.076 754.483 462.432C753.025 461.788 751.865 460.893 751.003 459.747C750.151 458.592 749.687 457.252 749.611 455.727H753.19C753.266 456.665 753.588 457.474 754.156 458.156C754.724 458.829 755.468 459.349 756.386 459.719C757.305 460.088 758.323 460.273 759.44 460.273C760.69 460.273 761.798 460.055 762.764 459.619C763.73 459.184 764.488 458.578 765.037 457.801C765.586 457.025 765.861 456.125 765.861 455.102C765.861 454.032 765.596 453.09 765.065 452.276C764.535 451.452 763.759 450.808 762.736 450.344C761.713 449.88 760.463 449.648 758.986 449.648H756.656V446.523H758.986C760.141 446.523 761.154 446.314 762.026 445.898C762.906 445.481 763.593 444.894 764.085 444.136C764.587 443.379 764.838 442.489 764.838 441.466C764.838 440.481 764.62 439.624 764.185 438.895C763.749 438.166 763.134 437.598 762.338 437.19C761.552 436.783 760.624 436.58 759.554 436.58C758.55 436.58 757.603 436.764 756.713 437.134C755.832 437.493 755.113 438.019 754.554 438.71C753.995 439.392 753.692 440.216 753.645 441.182H750.236C750.293 439.657 750.752 438.322 751.614 437.176C752.475 436.021 753.602 435.121 754.994 434.477C756.396 433.833 757.935 433.511 759.611 433.511C761.41 433.511 762.954 433.876 764.241 434.605C765.529 435.325 766.519 436.277 767.21 437.46C767.902 438.644 768.247 439.922 768.247 441.295C768.247 442.934 767.816 444.33 766.955 445.486C766.102 446.641 764.942 447.441 763.474 447.886V448.114C765.312 448.417 766.746 449.198 767.778 450.457C768.811 451.707 769.327 453.256 769.327 455.102C769.327 456.684 768.896 458.104 768.034 459.364C767.182 460.614 766.017 461.598 764.54 462.318C763.063 463.038 761.382 463.398 759.497 463.398ZM775.136 463V460.443L784.739 449.932C785.866 448.701 786.794 447.631 787.523 446.722C788.252 445.803 788.792 444.941 789.142 444.136C789.502 443.322 789.682 442.47 789.682 441.58C789.682 440.557 789.436 439.671 788.943 438.923C788.46 438.175 787.797 437.598 786.955 437.19C786.112 436.783 785.165 436.58 784.114 436.58C782.996 436.58 782.021 436.812 781.188 437.276C780.364 437.73 779.724 438.369 779.27 439.193C778.825 440.017 778.602 440.983 778.602 442.091H775.25C775.25 440.386 775.643 438.89 776.429 437.602C777.215 436.314 778.285 435.311 779.639 434.591C781.003 433.871 782.532 433.511 784.227 433.511C785.932 433.511 787.442 433.871 788.759 434.591C790.075 435.311 791.107 436.281 791.855 437.503C792.603 438.724 792.977 440.083 792.977 441.58C792.977 442.65 792.783 443.696 792.395 444.719C792.016 445.732 791.353 446.864 790.406 448.114C789.469 449.354 788.167 450.869 786.5 452.659L779.966 459.648V459.875H793.489V463H775.136Z" fill="white"/>
<path d="M660.497 767.398C658.622 767.398 656.951 767.076 655.483 766.432C654.025 765.788 652.865 764.893 652.003 763.747C651.151 762.592 650.687 761.252 650.611 759.727H654.19C654.266 760.665 654.588 761.474 655.156 762.156C655.724 762.829 656.468 763.349 657.386 763.719C658.305 764.088 659.323 764.273 660.44 764.273C661.69 764.273 662.798 764.055 663.764 763.619C664.73 763.184 665.488 762.578 666.037 761.801C666.586 761.025 666.861 760.125 666.861 759.102C666.861 758.032 666.596 757.09 666.065 756.276C665.535 755.452 664.759 754.808 663.736 754.344C662.713 753.88 661.463 753.648 659.986 753.648H657.656V750.523H659.986C661.141 750.523 662.154 750.314 663.026 749.898C663.906 749.481 664.593 748.894 665.085 748.136C665.587 747.379 665.838 746.489 665.838 745.466C665.838 744.481 665.62 743.624 665.185 742.895C664.749 742.166 664.134 741.598 663.338 741.19C662.552 740.783 661.624 740.58 660.554 740.58C659.55 740.58 658.603 740.764 657.713 741.134C656.832 741.493 656.113 742.019 655.554 742.71C654.995 743.392 654.692 744.216 654.645 745.182H651.236C651.293 743.657 651.752 742.322 652.614 741.176C653.475 740.021 654.602 739.121 655.994 738.477C657.396 737.833 658.935 737.511 660.611 737.511C662.41 737.511 663.954 737.876 665.241 738.605C666.529 739.325 667.519 740.277 668.21 741.46C668.902 742.644 669.247 743.922 669.247 745.295C669.247 746.934 668.816 748.33 667.955 749.486C667.102 750.641 665.942 751.441 664.474 751.886V752.114C666.312 752.417 667.746 753.198 668.778 754.457C669.811 755.707 670.327 757.256 670.327 759.102C670.327 760.684 669.896 762.104 669.034 763.364C668.182 764.614 667.017 765.598 665.54 766.318C664.063 767.038 662.382 767.398 660.497 767.398ZM676.136 767V764.443L685.739 753.932C686.866 752.701 687.794 751.631 688.523 750.722C689.252 749.803 689.792 748.941 690.142 748.136C690.502 747.322 690.682 746.47 690.682 745.58C690.682 744.557 690.436 743.671 689.943 742.923C689.46 742.175 688.797 741.598 687.955 741.19C687.112 740.783 686.165 740.58 685.114 740.58C683.996 740.58 683.021 740.812 682.188 741.276C681.364 741.73 680.724 742.369 680.27 743.193C679.825 744.017 679.602 744.983 679.602 746.091H676.25C676.25 744.386 676.643 742.89 677.429 741.602C678.215 740.314 679.285 739.311 680.639 738.591C682.003 737.871 683.532 737.511 685.227 737.511C686.932 737.511 688.442 737.871 689.759 738.591C691.075 739.311 692.107 740.281 692.855 741.503C693.603 742.724 693.977 744.083 693.977 745.58C693.977 746.65 693.783 747.696 693.395 748.719C693.016 749.732 692.353 750.864 691.406 752.114C690.469 753.354 689.167 754.869 687.5 756.659L680.966 763.648V763.875H694.489V767H676.136Z" fill="white"/>
<rect x="146" y="999" width="599" height="120" rx="26" stroke="#DBDBDB" stroke-width="2"/>
<line x1="266" y1="998" x2="266" y2="1120" stroke="#DBDBDB" stroke-width="2"/>
<line x1="386" y1="998" x2="386" y2="1120" stroke="#DBDBDB" stroke-width="2"/>
<line x1="507" y1="998" x2="507" y2="1120" stroke="#DBDBDB" stroke-width="2"/>
<line x1="627" y1="998" x2="627" y2="1120" stroke="#DBDBDB" stroke-width="2"/>
<path d="M196.332 1043.91V1073H192.81V1047.6H192.639L185.537 1052.32V1048.74L192.81 1043.91H196.332ZM204.699 1073V1070.44L214.301 1059.93C215.428 1058.7 216.356 1057.63 217.085 1056.72C217.814 1055.8 218.354 1054.94 218.705 1054.14C219.064 1053.32 219.244 1052.47 219.244 1051.58C219.244 1050.56 218.998 1049.67 218.506 1048.92C218.023 1048.18 217.36 1047.6 216.517 1047.19C215.674 1046.78 214.727 1046.58 213.676 1046.58C212.559 1046.58 211.583 1046.81 210.75 1047.28C209.926 1047.73 209.287 1048.37 208.832 1049.19C208.387 1050.02 208.165 1050.98 208.165 1052.09H204.812C204.812 1050.39 205.205 1048.89 205.991 1047.6C206.777 1046.31 207.848 1045.31 209.202 1044.59C210.565 1043.87 212.095 1043.51 213.79 1043.51C215.494 1043.51 217.005 1043.87 218.321 1044.59C219.637 1045.31 220.67 1046.28 221.418 1047.5C222.166 1048.72 222.54 1050.08 222.54 1051.58C222.54 1052.65 222.346 1053.7 221.957 1054.72C221.579 1055.73 220.916 1056.86 219.969 1058.11C219.031 1059.35 217.729 1060.87 216.062 1062.66L209.528 1069.65V1069.88H223.051V1073H204.699Z" fill="white"/>
<path d="M315.961 1043.91V1073H312.439V1047.6H312.268L305.166 1052.32V1048.74L312.439 1043.91H315.961ZM333.589 1043.51C334.782 1043.52 335.975 1043.75 337.169 1044.19C338.362 1044.64 339.451 1045.38 340.436 1046.41C341.421 1047.43 342.211 1048.83 342.808 1050.6C343.404 1052.37 343.703 1054.59 343.703 1057.26C343.703 1059.85 343.457 1062.14 342.964 1064.15C342.481 1066.15 341.78 1067.83 340.862 1069.21C339.953 1070.58 338.845 1071.62 337.538 1072.33C336.241 1073.04 334.773 1073.4 333.135 1073.4C331.506 1073.4 330.052 1073.08 328.774 1072.43C327.505 1071.78 326.463 1070.87 325.649 1069.72C324.844 1068.55 324.328 1067.2 324.1 1065.67H327.566C327.879 1067.01 328.499 1068.11 329.427 1068.98C330.365 1069.84 331.6 1070.27 333.135 1070.27C335.379 1070.27 337.15 1069.29 338.447 1067.33C339.754 1065.37 340.407 1062.6 340.407 1059.02H340.18C339.65 1059.82 339.02 1060.5 338.291 1061.08C337.562 1061.66 336.752 1062.11 335.862 1062.42C334.972 1062.73 334.025 1062.89 333.021 1062.89C331.354 1062.89 329.825 1062.47 328.433 1061.65C327.05 1060.82 325.942 1059.68 325.109 1058.23C324.285 1056.77 323.873 1055.1 323.873 1053.23C323.873 1051.45 324.271 1049.82 325.066 1048.34C325.871 1046.85 326.998 1045.67 328.447 1044.79C329.905 1043.91 331.619 1043.48 333.589 1043.51ZM333.589 1046.64C332.396 1046.64 331.321 1046.93 330.365 1047.53C329.418 1048.12 328.665 1048.91 328.106 1049.92C327.557 1050.91 327.282 1052.02 327.282 1053.23C327.282 1054.44 327.547 1055.54 328.078 1056.54C328.618 1057.52 329.351 1058.31 330.279 1058.89C331.217 1059.47 332.282 1059.76 333.475 1059.76C334.375 1059.76 335.213 1059.59 335.99 1059.24C336.766 1058.88 337.443 1058.39 338.021 1057.77C338.608 1057.15 339.067 1056.44 339.399 1055.66C339.73 1054.86 339.896 1054.03 339.896 1053.17C339.896 1052.03 339.621 1050.97 339.072 1049.97C338.532 1048.98 337.784 1048.18 336.828 1047.56C335.881 1046.94 334.801 1046.64 333.589 1046.64Z" fill="white"/>
<path d="M423.976 1073V1070.44L433.578 1059.93C434.705 1058.7 435.633 1057.63 436.363 1056.72C437.092 1055.8 437.632 1054.94 437.982 1054.14C438.342 1053.32 438.522 1052.47 438.522 1051.58C438.522 1050.56 438.275 1049.67 437.783 1048.92C437.3 1048.18 436.637 1047.6 435.794 1047.19C434.952 1046.78 434.005 1046.58 432.953 1046.58C431.836 1046.58 430.861 1046.81 430.027 1047.28C429.203 1047.73 428.564 1048.37 428.11 1049.19C427.665 1050.02 427.442 1050.98 427.442 1052.09H424.09C424.09 1050.39 424.483 1048.89 425.269 1047.6C426.055 1046.31 427.125 1045.31 428.479 1044.59C429.843 1043.87 431.372 1043.51 433.067 1043.51C434.772 1043.51 436.282 1043.87 437.598 1044.59C438.915 1045.31 439.947 1046.28 440.695 1047.5C441.443 1048.72 441.817 1050.08 441.817 1051.58C441.817 1052.65 441.623 1053.7 441.235 1054.72C440.856 1055.73 440.193 1056.86 439.246 1058.11C438.309 1059.35 437.007 1060.87 435.34 1062.66L428.806 1069.65V1069.88H442.328V1073H423.976ZM449.104 1073L462.115 1047.26V1047.03H447.115V1043.91H465.752V1047.2L452.797 1073H449.104Z" fill="white"/>
<path d="M553.497 1073.4C551.622 1073.4 549.951 1073.08 548.483 1072.43C547.025 1071.79 545.865 1070.89 545.003 1069.75C544.151 1068.59 543.687 1067.25 543.611 1065.73H547.19C547.266 1066.66 547.588 1067.47 548.156 1068.16C548.724 1068.83 549.468 1069.35 550.386 1069.72C551.305 1070.09 552.323 1070.27 553.44 1070.27C554.69 1070.27 555.798 1070.05 556.764 1069.62C557.73 1069.18 558.488 1068.58 559.037 1067.8C559.586 1067.02 559.861 1066.12 559.861 1065.1C559.861 1064.03 559.596 1063.09 559.065 1062.28C558.535 1061.45 557.759 1060.81 556.736 1060.34C555.713 1059.88 554.463 1059.65 552.986 1059.65H550.656V1056.52H552.986C554.141 1056.52 555.154 1056.31 556.026 1055.9C556.906 1055.48 557.593 1054.89 558.085 1054.14C558.587 1053.38 558.838 1052.49 558.838 1051.47C558.838 1050.48 558.62 1049.62 558.185 1048.89C557.749 1048.17 557.134 1047.6 556.338 1047.19C555.552 1046.78 554.624 1046.58 553.554 1046.58C552.55 1046.58 551.603 1046.76 550.713 1047.13C549.832 1047.49 549.113 1048.02 548.554 1048.71C547.995 1049.39 547.692 1050.22 547.645 1051.18H544.236C544.293 1049.66 544.752 1048.32 545.614 1047.18C546.475 1046.02 547.602 1045.12 548.994 1044.48C550.396 1043.83 551.935 1043.51 553.611 1043.51C555.41 1043.51 556.954 1043.88 558.241 1044.61C559.529 1045.32 560.519 1046.28 561.21 1047.46C561.902 1048.64 562.247 1049.92 562.247 1051.3C562.247 1052.93 561.816 1054.33 560.955 1055.49C560.102 1056.64 558.942 1057.44 557.474 1057.89V1058.11C559.312 1058.42 560.746 1059.2 561.778 1060.46C562.811 1061.71 563.327 1063.26 563.327 1065.1C563.327 1066.68 562.896 1068.1 562.034 1069.36C561.182 1070.61 560.017 1071.6 558.54 1072.32C557.063 1073.04 555.382 1073.4 553.497 1073.4ZM569.136 1073V1070.44L578.739 1059.93C579.866 1058.7 580.794 1057.63 581.523 1056.72C582.252 1055.8 582.792 1054.94 583.142 1054.14C583.502 1053.32 583.682 1052.47 583.682 1051.58C583.682 1050.56 583.436 1049.67 582.943 1048.92C582.46 1048.18 581.797 1047.6 580.955 1047.19C580.112 1046.78 579.165 1046.58 578.114 1046.58C576.996 1046.58 576.021 1046.81 575.188 1047.28C574.364 1047.73 573.724 1048.37 573.27 1049.19C572.825 1050.02 572.602 1050.98 572.602 1052.09H569.25C569.25 1050.39 569.643 1048.89 570.429 1047.6C571.215 1046.31 572.285 1045.31 573.639 1044.59C575.003 1043.87 576.532 1043.51 578.227 1043.51C579.932 1043.51 581.442 1043.87 582.759 1044.59C584.075 1045.31 585.107 1046.28 585.855 1047.5C586.603 1048.72 586.977 1050.08 586.977 1051.58C586.977 1052.65 586.783 1053.7 586.395 1054.72C586.016 1055.73 585.353 1056.86 584.406 1058.11C583.469 1059.35 582.167 1060.87 580.5 1062.66L573.966 1069.65V1069.88H587.489V1073H569.136Z" fill="white"/>
<path d="M663.572 1067.03V1064.14L676.356 1043.91H678.458V1048.4H677.038L667.379 1063.68V1063.91H684.594V1067.03H663.572ZM677.265 1073V1066.15V1064.8V1043.91H680.617V1073H677.265ZM690.827 1073L703.838 1047.26V1047.03H688.838V1043.91H707.474V1047.2L694.52 1073H690.827Z" fill="white"/>
</svg>
