<svg xmlns="http://www.w3.org/2000/svg" width="850" height="1120" fill="none" viewBox="0 0 850 1120"><path fill="#fff" d="M346.396 15.91h7.585l8.011 19.545h.341l8.011-19.546h7.586V45h-5.966V26.065h-.242l-7.528 18.793h-4.063l-7.528-18.864h-.241V45h-5.966zm46.431 29.516q-3.367 0-5.796-1.364-2.415-1.377-3.721-3.892-1.308-2.527-1.307-5.98 0-3.366 1.307-5.909t3.679-3.963q2.386-1.42 5.596-1.42 2.16 0 4.02.696a8.9 8.9 0 0 1 3.267 2.06q1.407 1.377 2.188 3.465.78 2.074.781 4.858v1.662h-18.423v-3.75h12.727q0-1.307-.568-2.315A4.07 4.07 0 0 0 395 27.997q-.995-.582-2.315-.582-1.378 0-2.444.639-1.05.625-1.647 1.69-.597 1.051-.611 2.344v3.565q0 1.62.597 2.799.61 1.179 1.718 1.818 1.108.64 2.628.64 1.008 0 1.847-.285a3.8 3.8 0 0 0 1.434-.852q.597-.57.909-1.392l5.597.369a7.64 7.64 0 0 1-1.747 3.523q-1.307 1.49-3.381 2.33-2.06.823-4.758.823M406.79 45V23.182h5.866v3.807h.228q.596-2.032 2.002-3.068 1.406-1.052 3.239-1.052.455 0 .98.057t.923.156v5.37a8 8 0 0 0-1.179-.228q-.752-.099-1.377-.099-1.336 0-2.387.582-1.036.57-1.647 1.591-.597 1.023-.597 2.358V45zm25.181 8.636q-2.94 0-5.043-.81-2.088-.795-3.324-2.173-1.235-1.377-1.605-3.096l5.597-.753q.255.654.81 1.222.554.567 1.463.909.923.354 2.244.355 1.974 0 3.253-.966 1.293-.952 1.292-3.196v-3.992h-.255q-.398.91-1.193 1.72-.797.81-2.046 1.32-1.25.511-2.983.511-2.458 0-4.474-1.136-2.004-1.15-3.196-3.508-1.179-2.373-1.179-5.995 0-3.707 1.207-6.193t3.21-3.721a8.3 8.3 0 0 1 4.418-1.236q1.832 0 3.068.625 1.236.61 1.989 1.534.767.91 1.179 1.79h.227v-3.665h6.008v22.031q0 2.785-1.363 4.66-1.364 1.875-3.779 2.812-2.4.951-5.525.951m.128-13.494q1.463 0 2.471-.724 1.023-.74 1.563-2.103.554-1.378.554-3.295 0-1.919-.54-3.324-.54-1.42-1.562-2.202-1.023-.78-2.486-.78-1.493 0-2.514.809-1.023.795-1.549 2.216-.525 1.42-.525 3.28 0 1.89.525 3.268.54 1.363 1.549 2.116 1.021.74 2.514.739M447.454 45V23.182h6.051V45zm3.04-24.63q-1.35 0-2.316-.896-.951-.909-.951-2.173 0-1.25.951-2.145.966-.909 2.316-.909 1.348 0 2.301.91.966.894.966 2.144 0 1.264-.966 2.173-.953.895-2.301.895m13.909 12.016V45h-6.051V23.182h5.767v3.85h.256a6.1 6.1 0 0 1 2.429-3.012q1.704-1.122 4.134-1.122 2.273 0 3.963.994t2.627 2.841q.938 1.832.938 4.375V45h-6.051V32.188q.014-2.003-1.023-3.126-1.037-1.136-2.855-1.136-1.221 0-2.159.526-.924.525-1.449 1.534-.511.995-.526 2.4m28.662 21.25q-2.94 0-5.043-.81-2.088-.795-3.324-2.173-1.236-1.377-1.605-3.096l5.597-.753q.255.654.809 1.222.555.567 1.463.909.924.354 2.245.355 1.974 0 3.253-.966 1.292-.952 1.292-3.196v-3.992h-.256q-.397.91-1.193 1.72-.795.81-2.045 1.32-1.25.511-2.983.511-2.457 0-4.475-1.136-2.002-1.15-3.196-3.508-1.179-2.373-1.179-5.995 0-3.707 1.208-6.193t3.21-3.721a8.3 8.3 0 0 1 4.418-1.236q1.832 0 3.068.625 1.236.61 1.988 1.534.768.91 1.179 1.79h.228v-3.665h6.008v22.031q0 2.785-1.363 4.66-1.364 1.875-3.779 2.812-2.4.951-5.525.951m.127-13.494q1.464 0 2.472-.724 1.023-.74 1.563-2.103.554-1.378.554-3.295 0-1.919-.54-3.324-.54-1.42-1.563-2.202-1.023-.78-2.486-.78-1.491 0-2.514.809-1.023.795-1.548 2.216-.526 1.42-.526 3.28 0 1.89.526 3.268.54 1.363 1.548 2.116 1.023.74 2.514.739"/><path stroke="#fff" stroke-width="2" d="M133 357v-42M278 647v-42M445 953v-42M713 357v-42M425 357v-85M613 647v-41.737h99V562M208 314v-42M425 604v-42M612 911v-42M788 314v-42M60 314v-42M133 605v-42M279 912v-42M640 314v-42M209 315H59M426 605H132M613 912H278M789 315H639"/><rect width="120" height="120" x="582" y="116" stroke="#dbdbdb" stroke-width="2" rx="26"/><rect width="120" height="120" x="1" y="116" stroke="#dbdbdb" stroke-width="2" rx="26"/><rect width="120" height="120" x="365" y="116" stroke="#dbdbdb" stroke-width="2" rx="26"/><rect width="120" height="120" x="365" y="389" stroke="#dbdbdb" stroke-width="2" rx="26"/><rect width="120" height="120" x="729" y="116" stroke="#dbdbdb" stroke-width="2" rx="26"/><rect width="120" height="120" x="148" y="116" stroke="#dbdbdb" stroke-width="2" rx="26"/><path fill="#fff" d="M630.497 190.398q-2.812 0-5.014-.966-2.187-.966-3.48-2.685-1.278-1.732-1.392-4.02h3.579q.114 1.407.966 2.429.852 1.009 2.23 1.563t3.054.554q1.875 0 3.324-.654 1.45-.653 2.273-1.818.824-1.164.824-2.699 0-1.605-.796-2.826-.795-1.236-2.329-1.932t-3.75-.696h-2.33v-3.125h2.33q1.732 0 3.04-.625 1.32-.625 2.059-1.762.753-1.136.753-2.67 0-1.478-.653-2.571-.654-1.093-1.847-1.705-1.179-.61-2.784-.61a7.3 7.3 0 0 0-2.841.554q-1.321.539-2.159 1.576-.838 1.023-.909 2.472h-3.409q.085-2.287 1.378-4.006 1.292-1.733 3.38-2.699 2.103-.966 4.617-.966 2.699 0 4.63 1.094 1.932 1.08 2.969 2.855a7.47 7.47 0 0 1 1.037 3.835q0 2.458-1.292 4.191-1.28 1.733-3.481 2.4v.228q2.757.454 4.304 2.343 1.55 1.876 1.549 4.645 0 2.373-1.293 4.262-1.278 1.875-3.494 2.954t-5.043 1.08m15.639-.398v-2.557l9.603-10.511a67 67 0 0 0 2.784-3.21q1.094-1.379 1.619-2.586.54-1.221.54-2.556 0-1.535-.739-2.657-.725-1.121-1.988-1.733-1.264-.61-2.841-.61-1.677 0-2.926.696a4.8 4.8 0 0 0-1.918 1.917q-.668 1.236-.668 2.898h-3.352q0-2.557 1.179-4.489a8.2 8.2 0 0 1 3.21-3.011q2.046-1.08 4.588-1.08 2.557 0 4.532 1.08 1.974 1.08 3.096 2.912t1.122 4.077q0 1.605-.582 3.139-.569 1.52-1.989 3.395-1.406 1.86-3.906 4.545l-6.534 6.989v.227h13.523V190zM40.976 190v-2.557l9.603-10.511a67 67 0 0 0 2.784-3.21q1.094-1.379 1.619-2.586.54-1.221.54-2.556 0-1.535-.739-2.657-.725-1.121-1.989-1.733-1.264-.61-2.84-.61-1.676 0-2.927.696a4.8 4.8 0 0 0-1.917 1.917q-.668 1.236-.668 2.898H41.09q0-2.557 1.179-4.489a8.2 8.2 0 0 1 3.21-3.011q2.046-1.08 4.588-1.08 2.557 0 4.531 1.08 1.975 1.08 3.097 2.912t1.122 4.077q0 1.605-.582 3.139-.57 1.52-1.989 3.395-1.406 1.86-3.906 4.545l-6.534 6.989v.227h13.523V190zm25.128 0 13.011-25.739v-.227h-15v-3.125h18.637v3.296L69.797 190zM416.961 160.909V190h-3.522v-25.398h-.171l-7.102 4.716v-3.579l7.273-4.83zm17.628-.398q1.79.015 3.58.682 1.79.668 3.267 2.216 1.477 1.535 2.372 4.19.894 2.657.895 6.662 0 3.879-.739 6.89-.725 2.997-2.102 5.056-1.363 2.06-3.324 3.125-1.946 1.066-4.403 1.066-2.444 0-4.361-.966a8.56 8.56 0 0 1-3.125-2.713q-1.207-1.747-1.549-4.049h3.466q.47 2.004 1.861 3.31 1.406 1.293 3.708 1.293 3.366 0 5.312-2.941 1.96-2.94 1.96-8.309h-.227a8.9 8.9 0 0 1-1.889 2.059 8.3 8.3 0 0 1-2.429 1.336 8.5 8.5 0 0 1-2.841.468q-2.5 0-4.588-1.235-2.074-1.25-3.324-3.424-1.236-2.187-1.236-5 0-2.67 1.193-4.886a9.2 9.2 0 0 1 3.381-3.551q2.187-1.321 5.142-1.279m0 3.125q-1.79 0-3.224.895a6.44 6.44 0 0 0-2.259 2.387q-.824 1.491-.824 3.309t.796 3.31a6.35 6.35 0 0 0 2.201 2.358q1.407.867 3.196.866 1.35 0 2.515-.525a6.5 6.5 0 0 0 2.031-1.463 7.1 7.1 0 0 0 1.378-2.117 6.4 6.4 0 0 0 .497-2.486 6.5 6.5 0 0 0-.824-3.196 6.54 6.54 0 0 0-2.244-2.414q-1.42-.924-3.239-.924M416.961 433.909V463h-3.522v-25.398h-.171l-7.102 4.716v-3.579l7.273-4.83zm17.628-.398q1.79.015 3.58.682 1.79.668 3.267 2.216 1.477 1.535 2.372 4.19.894 2.657.895 6.662 0 3.879-.739 6.89-.725 2.997-2.102 5.056-1.363 2.06-3.324 3.125-1.946 1.066-4.403 1.066-2.444 0-4.361-.966a8.56 8.56 0 0 1-3.125-2.713q-1.207-1.747-1.549-4.049h3.466q.47 2.004 1.861 3.31 1.406 1.293 3.708 1.293 3.366 0 5.312-2.941 1.96-2.94 1.96-8.309h-.227a8.9 8.9 0 0 1-1.889 2.059 8.3 8.3 0 0 1-2.429 1.336 8.5 8.5 0 0 1-2.841.468q-2.5 0-4.588-1.235-2.074-1.25-3.324-3.424-1.236-2.187-1.236-5 0-2.67 1.193-4.886a9.2 9.2 0 0 1 3.381-3.551q2.187-1.321 5.142-1.279m0 3.125q-1.79 0-3.224.895a6.44 6.44 0 0 0-2.259 2.387q-.824 1.491-.824 3.309t.796 3.31a6.35 6.35 0 0 0 2.201 2.358q1.407.866 3.196.866 1.35 0 2.515-.525a6.5 6.5 0 0 0 2.031-1.463 7.1 7.1 0 0 0 1.378-2.117 6.4 6.4 0 0 0 .497-2.486 6.5 6.5 0 0 0-.824-3.196 6.54 6.54 0 0 0-2.244-2.414q-1.42-.924-3.239-.924M781.332 160.909V190h-3.522v-25.398h-.171l-7.102 4.716v-3.579l7.273-4.83zM789.699 190v-2.557l9.602-10.511a67 67 0 0 0 2.784-3.21q1.093-1.379 1.62-2.586a6.3 6.3 0 0 0 .539-2.556q0-1.535-.738-2.657-.724-1.121-1.989-1.733-1.264-.61-2.841-.61-1.676 0-2.926.696a4.8 4.8 0 0 0-1.918 1.917q-.667 1.236-.667 2.898h-3.353q0-2.557 1.179-4.489a8.2 8.2 0 0 1 3.211-3.011q2.045-1.08 4.588-1.08 2.557 0 4.531 1.08 1.975 1.08 3.097 2.912t1.122 4.077q0 1.605-.583 3.139-.567 1.52-1.988 3.395-1.407 1.86-3.907 4.545l-6.534 6.989v.227h13.523V190zM186.572 184.034v-2.898l12.784-20.227h2.102v4.489h-1.42l-9.659 15.284v.227h17.215v3.125zM200.265 190v-29.091h3.352V190zm13.562 0 13.011-25.739v-.227h-15v-3.125h18.636v3.296L217.52 190z"/><rect width="238" height="120" x="13" y="389" stroke="#dbdbdb" stroke-width="2" rx="26"/><rect width="358" height="120" x="100" y="693" stroke="#dbdbdb" stroke-width="2" rx="26"/><rect width="358" height="120" x="100" y="693" stroke="#dbdbdb" stroke-width="2" rx="26"/><path stroke="#dbdbdb" stroke-width="2" d="M133 388v122"/><rect width="238" height="120" x="593" y="389" stroke="#dbdbdb" stroke-width="2" rx="26"/><rect width="238" height="120" x="494" y="693" stroke="#dbdbdb" stroke-width="2" rx="26"/><path fill="#fff" d="M50.976 463v-2.557l9.603-10.511a67 67 0 0 0 2.784-3.21q1.094-1.378 1.619-2.586.54-1.221.54-2.556 0-1.535-.739-2.657-.725-1.121-1.989-1.733-1.264-.61-2.84-.61-1.676 0-2.927.696a4.8 4.8 0 0 0-1.917 1.917q-.668 1.236-.668 2.898H51.09q0-2.557 1.179-4.489a8.2 8.2 0 0 1 3.21-3.011q2.046-1.08 4.588-1.08 2.557 0 4.531 1.08 1.975 1.08 3.097 2.912t1.122 4.077q0 1.605-.582 3.139-.57 1.52-1.989 3.395-1.406 1.86-3.906 4.545l-6.534 6.989v.227h13.523V463zm25.128 0 13.011-25.739v-.227h-15v-3.125h18.637v3.296L79.797 463z"/><path stroke="#dbdbdb" stroke-width="2" d="M220 692v122M340 692v122"/><path fill="#fff" d="M169.572 457.034v-2.898l12.784-20.227h2.102v4.489h-1.42l-9.659 15.284v.227h17.215v3.125zM183.265 463v-29.091h3.352V463zm13.562 0 13.011-25.739v-.227h-15v-3.125h18.636v3.296L200.52 463z"/><path stroke="#dbdbdb" stroke-width="2" d="M713 388v122M614 692v122"/><path fill="#fff" d="M257.976 767v-2.557l9.602-10.511a67 67 0 0 0 2.785-3.21q1.094-1.378 1.619-2.586.54-1.221.54-2.556 0-1.535-.739-2.657-.725-1.122-1.989-1.733-1.263-.61-2.841-.61-1.675 0-2.926.696a4.8 4.8 0 0 0-1.917 1.917q-.668 1.236-.668 2.898h-3.352q0-2.557 1.179-4.489a8.2 8.2 0 0 1 3.21-3.011q2.046-1.08 4.588-1.08 2.557 0 4.531 1.08 1.975 1.08 3.097 2.912t1.122 4.077q0 1.605-.582 3.139-.568 1.52-1.989 3.395-1.405 1.86-3.906 4.545l-6.534 6.989v.227h13.522V767zm25.128 0 13.011-25.739v-.227h-15v-3.125h18.637v3.296L286.797 767zM150.961 737.909V767h-3.522v-25.398h-.171l-7.102 4.716v-3.579l7.273-4.83zm17.628-.398q1.79.015 3.58.682 1.79.668 3.267 2.216 1.477 1.535 2.372 4.19.895 2.657.895 6.662 0 3.879-.739 6.89-.725 2.997-2.102 5.056-1.363 2.06-3.324 3.125-1.946 1.066-4.403 1.066-2.444 0-4.361-.966a8.56 8.56 0 0 1-3.125-2.713q-1.207-1.747-1.549-4.049h3.466q.47 2.004 1.861 3.31 1.406 1.293 3.708 1.293 3.366 0 5.312-2.941 1.96-2.94 1.96-8.309h-.227a8.9 8.9 0 0 1-1.889 2.059 8.3 8.3 0 0 1-2.429 1.336 8.5 8.5 0 0 1-2.841.468q-2.5 0-4.588-1.235-2.075-1.25-3.324-3.424-1.236-2.187-1.236-5 0-2.67 1.193-4.886a9.2 9.2 0 0 1 3.381-3.551q2.187-1.321 5.142-1.279m0 3.125q-1.79 0-3.224.895a6.44 6.44 0 0 0-2.259 2.387q-.824 1.491-.824 3.309t.796 3.31a6.35 6.35 0 0 0 2.201 2.358q1.407.866 3.196.866 1.35 0 2.515-.525a6.5 6.5 0 0 0 2.031-1.463 7.1 7.1 0 0 0 1.378-2.117 6.4 6.4 0 0 0 .497-2.486 6.5 6.5 0 0 0-.824-3.196 6.54 6.54 0 0 0-2.244-2.414q-1.42-.924-3.239-.924M643.332 433.909V463h-3.522v-25.398h-.171l-7.102 4.716v-3.579l7.273-4.83zM651.699 463v-2.557l9.602-10.511a67 67 0 0 0 2.784-3.21q1.093-1.378 1.62-2.586a6.3 6.3 0 0 0 .539-2.556q0-1.535-.738-2.657-.724-1.121-1.989-1.733-1.264-.61-2.841-.61-1.676 0-2.926.696a4.8 4.8 0 0 0-1.918 1.917q-.667 1.236-.667 2.898h-3.353q0-2.557 1.179-4.489a8.2 8.2 0 0 1 3.211-3.011q2.045-1.08 4.588-1.08 2.556 0 4.531 1.08t3.097 2.912 1.122 4.077q0 1.605-.583 3.139-.567 1.52-1.988 3.395-1.407 1.86-3.907 4.545l-6.534 6.989v.227h13.523V463zM544.332 737.909V767h-3.522v-25.398h-.171l-7.102 4.716v-3.579l7.273-4.83zM552.699 767v-2.557l9.602-10.511a67 67 0 0 0 2.784-3.21q1.093-1.378 1.62-2.586a6.3 6.3 0 0 0 .539-2.556q0-1.535-.738-2.657-.724-1.122-1.989-1.733-1.264-.61-2.841-.61-1.676 0-2.926.696a4.8 4.8 0 0 0-1.918 1.917q-.667 1.236-.667 2.898h-3.353q0-2.557 1.179-4.489a8.2 8.2 0 0 1 3.211-3.011q2.045-1.08 4.588-1.08 2.556 0 4.531 1.08t3.097 2.912 1.122 4.077q0 1.605-.583 3.139-.567 1.52-1.988 3.395-1.407 1.86-3.907 4.545l-6.534 6.989v.227h13.523V767zM376.572 761.034v-2.898l12.784-20.227h2.102v4.489h-1.42l-9.659 15.284v.227h17.215v3.125zM390.265 767v-29.091h3.352V767zm13.562 0 13.011-25.739v-.227h-15v-3.125h18.636v3.296L407.52 767zM759.497 463.398q-2.812 0-5.014-.966-2.187-.966-3.48-2.685-1.278-1.733-1.392-4.02h3.579q.114 1.407.966 2.429.852 1.009 2.23 1.563t3.054.554q1.875 0 3.324-.654 1.45-.652 2.273-1.818.824-1.164.824-2.699 0-1.605-.796-2.826-.795-1.236-2.329-1.932t-3.75-.696h-2.33v-3.125h2.33q1.732 0 3.04-.625 1.32-.625 2.059-1.762.753-1.135.753-2.67 0-1.477-.653-2.571-.654-1.093-1.847-1.705-1.179-.61-2.784-.61a7.3 7.3 0 0 0-2.841.554q-1.321.539-2.159 1.576-.838 1.023-.909 2.472h-3.409q.085-2.287 1.378-4.006 1.292-1.733 3.38-2.699 2.103-.966 4.617-.966 2.699 0 4.63 1.094 1.932 1.08 2.969 2.855a7.47 7.47 0 0 1 1.037 3.835q0 2.458-1.292 4.191-1.28 1.732-3.481 2.4v.228q2.757.454 4.304 2.343 1.55 1.876 1.549 4.645 0 2.372-1.293 4.262-1.278 1.874-3.494 2.954t-5.043 1.08m15.639-.398v-2.557l9.603-10.511a67 67 0 0 0 2.784-3.21q1.094-1.378 1.619-2.586.54-1.221.54-2.556 0-1.535-.739-2.657-.725-1.121-1.988-1.733-1.264-.61-2.841-.61-1.677 0-2.926.696a4.8 4.8 0 0 0-1.918 1.917q-.668 1.236-.668 2.898h-3.352q0-2.557 1.179-4.489a8.2 8.2 0 0 1 3.21-3.011q2.046-1.08 4.588-1.08 2.557 0 4.532 1.08 1.974 1.08 3.096 2.912t1.122 4.077q0 1.605-.582 3.139-.569 1.52-1.989 3.395-1.406 1.86-3.906 4.545l-6.534 6.989v.227h13.523V463zM660.497 767.398q-2.812 0-5.014-.966-2.187-.966-3.48-2.685-1.278-1.732-1.392-4.02h3.579q.114 1.406.966 2.429.852 1.009 2.23 1.563t3.054.554q1.875 0 3.324-.654 1.45-.653 2.273-1.818.824-1.164.824-2.699 0-1.605-.796-2.826-.795-1.236-2.329-1.932t-3.75-.696h-2.33v-3.125h2.33q1.732 0 3.04-.625 1.32-.625 2.059-1.762.753-1.135.753-2.67 0-1.477-.653-2.571-.654-1.093-1.847-1.705-1.179-.61-2.784-.61a7.3 7.3 0 0 0-2.841.554q-1.321.539-2.159 1.576-.838 1.023-.909 2.472h-3.409q.085-2.287 1.378-4.006 1.292-1.733 3.38-2.699 2.103-.966 4.617-.966 2.699 0 4.63 1.094 1.932 1.08 2.969 2.855a7.47 7.47 0 0 1 1.037 3.835q0 2.458-1.292 4.191-1.28 1.733-3.481 2.4v.228q2.757.455 4.304 2.343 1.55 1.876 1.549 4.645 0 2.372-1.293 4.262-1.278 1.875-3.494 2.954t-5.043 1.08m15.639-.398v-2.557l9.603-10.511a67 67 0 0 0 2.784-3.21q1.094-1.378 1.619-2.586.54-1.221.54-2.556 0-1.535-.739-2.657-.725-1.122-1.988-1.733-1.264-.61-2.841-.61-1.677 0-2.926.696a4.8 4.8 0 0 0-1.918 1.917q-.668 1.236-.668 2.898h-3.352q0-2.557 1.179-4.489a8.2 8.2 0 0 1 3.21-3.011q2.046-1.08 4.588-1.08 2.557 0 4.532 1.08 1.974 1.08 3.096 2.912t1.122 4.077q0 1.605-.582 3.139-.569 1.52-1.989 3.395-1.406 1.86-3.906 4.545l-6.534 6.989v.227h13.523V767z"/><rect width="599" height="120" x="146" y="999" stroke="#dbdbdb" stroke-width="2" rx="26"/><path stroke="#dbdbdb" stroke-width="2" d="M266 998v122M386 998v122M507 998v122M627 998v122"/><path fill="#fff" d="M196.332 1043.91V1073h-3.522v-25.4h-.171l-7.102 4.72v-3.58l7.273-4.83zm8.367 29.09v-2.56l9.602-10.51a66 66 0 0 0 2.784-3.21q1.093-1.38 1.62-2.58c.359-.82.539-1.67.539-2.56 0-1.02-.246-1.91-.738-2.66a4.86 4.86 0 0 0-1.989-1.73c-.843-.41-1.79-.61-2.841-.61-1.117 0-2.093.23-2.926.7a4.77 4.77 0 0 0-1.918 1.91c-.445.83-.667 1.79-.667 2.9h-3.353c0-1.7.393-3.2 1.179-4.49a8.2 8.2 0 0 1 3.211-3.01q2.045-1.08 4.588-1.08 2.557 0 4.531 1.08 1.975 1.08 3.097 2.91t1.122 4.08c0 1.07-.194 2.12-.583 3.14q-.567 1.515-1.988 3.39c-.938 1.24-2.24 2.76-3.907 4.55l-6.534 6.99v.23h13.523v3.12zM315.961 1043.91V1073h-3.522v-25.4h-.171l-7.102 4.72v-3.58l7.273-4.83zm17.628-.4c1.193.01 2.386.24 3.58.68q1.79.675 3.267 2.22c.985 1.02 1.775 2.42 2.372 4.19q.894 2.655.895 6.66c0 2.59-.246 4.88-.739 6.89-.483 2-1.184 3.68-2.102 5.06q-1.363 2.055-3.324 3.12c-1.297.71-2.765 1.07-4.403 1.07-1.629 0-3.083-.32-4.361-.97a8.57 8.57 0 0 1-3.125-2.71q-1.207-1.755-1.549-4.05h3.466c.313 1.34.933 2.44 1.861 3.31q1.406 1.29 3.708 1.29 3.366 0 5.312-2.94 1.96-2.94 1.96-8.31h-.227c-.53.8-1.16 1.48-1.889 2.06a8.2 8.2 0 0 1-2.429 1.34c-.89.31-1.837.47-2.841.47a8.9 8.9 0 0 1-4.588-1.24q-2.074-1.245-3.324-3.42c-.824-1.46-1.236-3.13-1.236-5q0-2.67 1.193-4.89a9.2 9.2 0 0 1 3.381-3.55c1.458-.88 3.172-1.31 5.142-1.28m0 3.13c-1.193 0-2.268.29-3.224.89-.947.59-1.7 1.38-2.259 2.39-.549.99-.824 2.1-.824 3.31s.265 2.31.796 3.31c.54.98 1.273 1.77 2.201 2.35q1.407.87 3.196.87c.9 0 1.738-.17 2.515-.52a6.5 6.5 0 0 0 2.031-1.47 7.1 7.1 0 0 0 1.378-2.11q.497-1.2.497-2.49c0-1.14-.275-2.2-.824-3.2a6.6 6.6 0 0 0-2.244-2.41c-.947-.62-2.027-.92-3.239-.92M423.976 1073v-2.56l9.602-10.51a66 66 0 0 0 2.785-3.21q1.094-1.38 1.619-2.58c.36-.82.54-1.67.54-2.56 0-1.02-.247-1.91-.739-2.66a4.86 4.86 0 0 0-1.989-1.73c-.842-.41-1.789-.61-2.841-.61-1.117 0-2.092.23-2.926.7a4.76 4.76 0 0 0-1.917 1.91c-.445.83-.668 1.79-.668 2.9h-3.352c0-1.7.393-3.2 1.179-4.49a8.2 8.2 0 0 1 3.21-3.01q2.046-1.08 4.588-1.08 2.557 0 4.531 1.08 1.975 1.08 3.097 2.91t1.122 4.08c0 1.07-.194 2.12-.582 3.14q-.568 1.515-1.989 3.39c-.937 1.24-2.239 2.76-3.906 4.55l-6.534 6.99v.23h13.522v3.12zm25.128 0 13.011-25.74v-.23h-15v-3.12h18.637v3.29l-12.955 25.8zM553.497 1073.4c-1.875 0-3.546-.32-5.014-.97-1.458-.64-2.618-1.54-3.48-2.68q-1.278-1.74-1.392-4.02h3.579q.114 1.395.966 2.43.852 1.005 2.23 1.56c.919.37 1.937.55 3.054.55 1.25 0 2.358-.22 3.324-.65.966-.44 1.724-1.04 2.273-1.82q.824-1.17.824-2.7 0-1.605-.796-2.82c-.53-.83-1.306-1.47-2.329-1.94q-1.535-.69-3.75-.69h-2.33v-3.13h2.33c1.155 0 2.168-.21 3.04-.62.88-.42 1.567-1.01 2.059-1.76q.753-1.14.753-2.67 0-1.485-.653-2.58a4.54 4.54 0 0 0-1.847-1.7c-.786-.41-1.714-.61-2.784-.61-1.004 0-1.951.18-2.841.55-.881.36-1.6.89-2.159 1.58-.559.68-.862 1.51-.909 2.47h-3.409c.057-1.52.516-2.86 1.378-4q1.292-1.74 3.38-2.7c1.402-.65 2.941-.97 4.617-.97 1.799 0 3.343.37 4.63 1.1 1.288.71 2.278 1.67 2.969 2.85a7.46 7.46 0 0 1 1.037 3.84c0 1.63-.431 3.03-1.292 4.19q-1.28 1.725-3.481 2.4v.22c1.838.31 3.272 1.09 4.304 2.35 1.033 1.25 1.549 2.8 1.549 4.64q0 2.37-1.293 4.26c-.852 1.25-2.017 2.24-3.494 2.96q-2.216 1.08-5.043 1.08m15.639-.4v-2.56l9.603-10.51a66 66 0 0 0 2.784-3.21q1.094-1.38 1.619-2.58c.36-.82.54-1.67.54-2.56 0-1.02-.246-1.91-.739-2.66a4.87 4.87 0 0 0-1.988-1.73c-.843-.41-1.79-.61-2.841-.61-1.118 0-2.093.23-2.926.7a4.77 4.77 0 0 0-1.918 1.91c-.445.83-.668 1.79-.668 2.9h-3.352c0-1.7.393-3.2 1.179-4.49a8.2 8.2 0 0 1 3.21-3.01q2.046-1.08 4.588-1.08 2.557 0 4.532 1.08 1.974 1.08 3.096 2.91t1.122 4.08c0 1.07-.194 2.12-.582 3.14q-.569 1.515-1.989 3.39c-.937 1.24-2.239 2.76-3.906 4.55l-6.534 6.99v.23h13.523v3.12zM663.572 1067.03v-2.89l12.784-20.23h2.102v4.49h-1.42l-9.659 15.28v.23h17.215v3.12zm13.693 5.97v-29.09h3.352V1073zm13.562 0 13.011-25.74v-.23h-15v-3.12h18.636v3.29L694.52 1073z"/></svg>