<svg xmlns="http://www.w3.org/2000/svg" width="738" height="1284" fill="none" viewBox="0 0 738 1284"><path fill="#995e00" d="M309 984h120v122H309zM0 180c0-14.912 12.088-27 27-27h93v122H27c-14.912 0-27-12.088-27-27z"/><path fill="#540099" d="M429 1189c0-14.91-12.088-27-27-27h-93v122h93c14.912 0 27-12.09 27-27zM360 358c0-14.912-12.088-27-27-27h-93v122h93c14.912 0 27-12.088 27-27z"/><rect width="120" height="122" x="531" y="243" fill="#995e00" rx="27"/><path fill="#fff" d="M160.575 26.094h-6.222q-.17-1.208-.696-2.145a5.5 5.5 0 0 0-1.349-1.62 5.9 5.9 0 0 0-1.904-1.022 7.3 7.3 0 0 0-2.315-.355q-2.258 0-3.935 1.122-1.675 1.108-2.599 3.238-.923 2.117-.923 5.142 0 3.111.923 5.228.937 2.115 2.614 3.196t3.878 1.08q1.235 0 2.286-.327a6 6 0 0 0 1.89-.952 5.5 5.5 0 0 0 1.363-1.548q.555-.91.767-2.074l6.222.028a11.3 11.3 0 0 1-1.207 3.864 11.6 11.6 0 0 1-2.571 3.31q-1.606 1.448-3.836 2.3-2.215.84-5.014.839-3.892 0-6.96-1.762-3.054-1.761-4.83-5.1-1.761-3.337-1.761-8.082 0-4.757 1.79-8.096 1.79-3.337 4.858-5.085 3.067-1.761 6.903-1.762 2.529 0 4.688.71 2.173.71 3.849 2.075 1.676 1.349 2.727 3.31 1.066 1.959 1.364 4.488m14.155 19.332q-3.31 0-5.725-1.406-2.4-1.42-3.707-3.949-1.307-2.543-1.307-5.895 0-3.38 1.307-5.909 1.307-2.542 3.707-3.949 2.415-1.42 5.725-1.42t5.71 1.42q2.415 1.407 3.722 3.949 1.306 2.528 1.306 5.91 0 3.351-1.306 5.894-1.307 2.529-3.722 3.949-2.4 1.406-5.71 1.406m.028-4.687q1.506 0 2.514-.853 1.009-.866 1.52-2.358.526-1.49.526-3.395 0-1.902-.526-3.394-.511-1.492-1.52-2.358t-2.514-.867q-1.52 0-2.557.867-1.022.866-1.548 2.358-.511 1.492-.511 3.394 0 1.904.511 3.395.526 1.492 1.548 2.358 1.038.853 2.557.853M189.403 45V23.182h5.767v3.85h.256q.681-1.92 2.273-3.026 1.59-1.108 3.806-1.108 2.245 0 3.821 1.122 1.577 1.108 2.103 3.011h.227q.668-1.875 2.415-2.997 1.76-1.136 4.162-1.136 3.054 0 4.957 1.946 1.918 1.932 1.918 5.483V45h-6.037V31.52q0-1.818-.966-2.727-.966-.91-2.415-.91-1.648 0-2.571 1.052-.924 1.036-.923 2.741V45h-5.867V31.392q0-1.605-.923-2.557-.909-.951-2.401-.951-1.008 0-1.818.51-.796.498-1.264 1.407-.47.896-.469 2.102V45zm36.484 8.182v-30h5.966v3.665h.27q.398-.882 1.151-1.79.767-.924 1.988-1.534 1.236-.625 3.069-.625a8.2 8.2 0 0 1 4.403 1.25q2.018 1.236 3.224 3.736 1.208 2.485 1.208 6.235 0 3.651-1.179 6.165-1.165 2.5-3.182 3.793-2.002 1.278-4.489 1.278-1.761 0-2.997-.582-1.221-.583-2.003-1.463-.78-.895-1.193-1.804h-.184v11.676zm5.924-19.091q0 1.946.539 3.395.54 1.45 1.563 2.258 1.022.795 2.486.796 1.477 0 2.5-.81 1.023-.825 1.548-2.273.54-1.462.54-3.366 0-1.89-.526-3.324-.525-1.434-1.548-2.244t-2.514-.81q-1.477 0-2.5.781-1.01.782-1.549 2.216-.539 1.436-.539 3.38m25.611 11.32q-2.089.001-3.722-.724-1.634-.738-2.585-2.173-.938-1.449-.938-3.608 0-1.818.668-3.054a5.4 5.4 0 0 1 1.818-1.988 8.8 8.8 0 0 1 2.614-1.137 20 20 0 0 1 3.096-.54 78 78 0 0 0 3.068-.369q1.165-.184 1.691-.54.525-.355.525-1.05v-.086q0-1.35-.852-2.088-.838-.739-2.386-.739-1.634 0-2.6.725-.966.71-1.278 1.79l-5.597-.455q.426-1.99 1.676-3.437 1.251-1.464 3.225-2.245 1.989-.795 4.602-.795 1.818 0 3.48.426 1.677.426 2.969 1.32a6.4 6.4 0 0 1 2.06 2.302q.752 1.392.752 3.338V45h-5.738v-3.026h-.171a6.2 6.2 0 0 1-1.406 1.804q-.881.767-2.116 1.208-1.236.426-2.855.426m1.732-4.175q1.337 0 2.358-.526a4.2 4.2 0 0 0 1.606-1.449q.582-.909.582-2.06v-2.315q-.284.185-.781.341-.483.142-1.094.27-.61.114-1.222.213l-1.108.157q-1.065.156-1.86.497-.797.34-1.236.923-.441.568-.441 1.42 0 1.236.895 1.89.909.639 2.301.639M274.403 45V23.182h5.867v3.807h.227q.597-2.032 2.003-3.068 1.406-1.052 3.238-1.052.455 0 .98.057.526.057.924.156v5.37a8 8 0 0 0-1.179-.228q-.753-.099-1.378-.099-1.335 0-2.386.582a4.3 4.3 0 0 0-1.648 1.591q-.597 1.023-.597 2.358V45zm25.295.426q-3.367 0-5.796-1.364-2.415-1.377-3.721-3.892-1.307-2.527-1.307-5.98 0-3.366 1.307-5.909t3.679-3.963q2.386-1.42 5.596-1.42 2.16 0 4.02.696a8.9 8.9 0 0 1 3.267 2.06q1.407 1.377 2.188 3.465.781 2.074.781 4.858v1.662h-18.423v-3.75h12.727q0-1.307-.568-2.315a4.07 4.07 0 0 0-1.577-1.577q-.995-.582-2.315-.582-1.378 0-2.443.639-1.051.625-1.648 1.69-.597 1.051-.611 2.344v3.565q0 1.62.597 2.799.61 1.179 1.718 1.818 1.109.64 2.628.64 1.009 0 1.847-.285a3.8 3.8 0 0 0 1.434-.852q.597-.57.91-1.392l5.596.369a7.64 7.64 0 0 1-1.747 3.523q-1.306 1.49-3.381 2.33-2.06.823-4.758.823M348.7 26.094h-6.222q-.17-1.208-.696-2.145a5.5 5.5 0 0 0-1.349-1.62 5.9 5.9 0 0 0-1.904-1.022 7.3 7.3 0 0 0-2.315-.355q-2.258 0-3.935 1.122-1.675 1.108-2.599 3.238-.923 2.117-.923 5.142 0 3.111.923 5.228.937 2.115 2.614 3.196t3.878 1.08q1.235 0 2.286-.327a6 6 0 0 0 1.89-.952 5.5 5.5 0 0 0 1.363-1.548q.554-.91.767-2.074l6.222.028a11.3 11.3 0 0 1-1.207 3.864 11.6 11.6 0 0 1-2.571 3.31q-1.606 1.448-3.836 2.3-2.215.84-5.014.839-3.893 0-6.96-1.762-3.054-1.761-4.83-5.1-1.761-3.337-1.761-8.082 0-4.757 1.79-8.096 1.79-3.337 4.858-5.085 3.067-1.761 6.903-1.762 2.529 0 4.688.71 2.173.71 3.849 2.075 1.676 1.349 2.727 3.31 1.066 1.959 1.364 4.488m18.288 9.616V23.182h6.051V45h-5.809v-3.963h-.228a6.44 6.44 0 0 1-2.457 3.082q-1.705 1.165-4.162 1.165-2.187 0-3.849-.994t-2.6-2.827q-.923-1.832-.937-4.39V23.183h6.051v12.812q.014 1.932 1.037 3.054t2.741 1.122q1.094 0 2.046-.497a3.9 3.9 0 0 0 1.534-1.505q.597-.994.582-2.458M377.88 45V23.182h5.866v3.807h.227q.597-2.032 2.003-3.068 1.407-1.052 3.239-1.052.455 0 .98.057t.923.156v5.37a8 8 0 0 0-1.179-.228q-.753-.099-1.378-.099-1.335 0-2.386.582-1.036.57-1.648 1.591-.596 1.023-.596 2.358V45zm16.367 0V23.182h5.866v3.807h.228q.596-2.032 2.002-3.068 1.406-1.052 3.239-1.052.455 0 .98.057.526.057.923.156v5.37a8 8 0 0 0-1.179-.228q-.752-.099-1.377-.099-1.336 0-2.387.582-1.036.57-1.647 1.591-.597 1.023-.597 2.358V45zm25.295.426q-3.368 0-5.796-1.364-2.415-1.377-3.721-3.892-1.308-2.527-1.307-5.98 0-3.366 1.307-5.909t3.678-3.963q2.387-1.42 5.597-1.42 2.159 0 4.02.696a8.9 8.9 0 0 1 3.267 2.06q1.407 1.377 2.188 3.465.78 2.074.781 4.858v1.662h-18.424v-3.75h12.728q0-1.307-.568-2.315a4.07 4.07 0 0 0-1.577-1.577q-.995-.582-2.315-.582-1.378 0-2.444.639-1.05.625-1.647 1.69-.597 1.051-.611 2.344v3.565q0 1.62.596 2.799a4.38 4.38 0 0 0 1.719 1.818q1.108.64 2.628.64 1.008 0 1.847-.285a3.8 3.8 0 0 0 1.434-.852q.597-.57.909-1.392l5.597.369a7.65 7.65 0 0 1-1.747 3.523q-1.306 1.49-3.381 2.33-2.06.823-4.758.823m20.014-13.04V45h-6.051V23.182h5.767v3.85h.255a6.1 6.1 0 0 1 2.429-3.012q1.705-1.122 4.134-1.122 2.272 0 3.963.994 1.69.994 2.628 2.841.937 1.832.937 4.375V45h-6.051V32.188q.015-2.003-1.023-3.126-1.037-1.136-2.855-1.136-1.221 0-2.159.526-.923.525-1.449 1.534-.512.995-.525 2.4m30.437-9.204v4.545h-13.14v-4.545zm-10.157-5.227h6.051v20.34q0 .84.256 1.307.256.454.71.64.47.184 1.08.184.426 0 .852-.07.426-.086.654-.129l.951 4.503q-.454.143-1.278.327-.824.198-2.003.241-2.187.086-3.835-.582-1.634-.667-2.543-2.074t-.895-3.551zM483.306 45V15.91h6.15v12.002h12.486V15.909h6.136V45h-6.136V32.983h-12.486V45zm39.673.426q-3.366 0-5.795-1.364-2.415-1.377-3.722-3.892-1.307-2.527-1.307-5.98 0-3.366 1.307-5.909t3.679-3.963q2.386-1.42 5.597-1.42 2.159 0 4.019.696a8.9 8.9 0 0 1 3.268 2.06q1.405 1.377 2.187 3.465.781 2.074.781 4.858v1.662H514.57v-3.75h12.727q0-1.307-.568-2.315a4.07 4.07 0 0 0-1.577-1.577q-.994-.582-2.315-.582-1.378 0-2.443.639-1.051.625-1.648 1.69-.596 1.051-.611 2.344v3.565q0 1.62.597 2.799.61 1.179 1.719 1.818 1.107.64 2.627.64 1.009 0 1.847-.285a3.8 3.8 0 0 0 1.435-.852q.596-.57.909-1.392l5.596.369a7.64 7.64 0 0 1-1.747 3.523q-1.307 1.49-3.38 2.33-2.06.823-4.759.823m20.185-.014q-2.088 0-3.722-.724-1.634-.739-2.585-2.174-.938-1.449-.938-3.608 0-1.818.668-3.054a5.4 5.4 0 0 1 1.818-1.988 8.8 8.8 0 0 1 2.614-1.137 20 20 0 0 1 3.096-.54 79 79 0 0 0 3.069-.369q1.164-.184 1.69-.54.525-.355.526-1.05v-.086q0-1.35-.853-2.088-.838-.739-2.386-.739-1.634 0-2.6.725-.966.71-1.278 1.79l-5.597-.455q.427-1.99 1.677-3.437 1.25-1.464 3.224-2.245 1.989-.795 4.602-.795 1.818 0 3.48.426 1.677.426 2.969 1.32a6.4 6.4 0 0 1 2.06 2.302q.753 1.392.753 3.338V45h-5.739v-3.026h-.17a6.2 6.2 0 0 1-1.407 1.804q-.88.767-2.116 1.208-1.236.426-2.855.426m1.733-4.176q1.335 0 2.358-.526a4.2 4.2 0 0 0 1.605-1.449q.582-.909.582-2.06v-2.315q-.284.185-.781.341-.483.142-1.094.27a55 55 0 0 1-1.221.213l-1.108.157q-1.066.156-1.861.497-.796.34-1.236.923-.44.568-.44 1.42 0 1.236.895 1.89.909.639 2.301.639m23.288 4.12q-2.486 0-4.503-1.28-2.003-1.291-3.182-3.792-1.164-2.514-1.164-6.165 0-3.75 1.207-6.235 1.207-2.5 3.21-3.736a8.23 8.23 0 0 1 4.418-1.25q1.832 0 3.054.625 1.236.61 1.988 1.534.768.91 1.165 1.79h.185V15.909h6.037V45h-5.966v-3.494h-.256a7.8 7.8 0 0 1-1.207 1.804q-.767.88-2.003 1.463-1.221.582-2.983.582m1.918-4.816q1.463 0 2.471-.796 1.023-.81 1.563-2.258.554-1.45.554-3.395t-.54-3.38-1.563-2.217-2.485-.78q-1.492 0-2.515.809-1.022.81-1.548 2.244-.525 1.435-.525 3.324 0 1.904.525 3.366.54 1.45 1.548 2.273 1.023.81 2.515.81m33.625-11.137-5.539.341a2.9 2.9 0 0 0-.611-1.278 3.25 3.25 0 0 0-1.236-.923q-.753-.355-1.804-.355-1.406 0-2.372.596-.966.583-.966 1.563 0 .78.625 1.32t2.145.867l3.949.796q3.181.653 4.744 2.102t1.562 3.807q0 2.145-1.264 3.764-1.25 1.62-3.437 2.528-2.173.895-5.014.895-4.333 0-6.904-1.804-2.556-1.818-2.997-4.943l5.952-.312q.27 1.32 1.307 2.017 1.036.681 2.656.681 1.59 0 2.557-.61.98-.625.994-1.606-.015-.824-.696-1.349-.682-.54-2.102-.824l-3.779-.753q-3.196-.64-4.758-2.216-1.549-1.575-1.549-4.02 0-2.101 1.137-3.622 1.15-1.52 3.224-2.343 2.088-.825 4.887-.824 4.133 0 6.505 1.747 2.387 1.747 2.784 4.758M223.457 602h-6.591l10.042-29.091h7.927L244.863 602h-6.591l-7.287-22.443h-.227zm-.412-11.435h15.568v4.801h-15.568zm32.23 11.79q-2.485 0-4.503-1.278-2.003-1.293-3.182-3.793-1.165-2.514-1.165-6.165 0-3.75 1.208-6.235 1.208-2.5 3.21-3.736a8.2 8.2 0 0 1 4.418-1.25q1.831 0 3.054.625 1.235.61 1.988 1.534.768.909 1.165 1.79h.185v-10.938h6.037V602h-5.966v-3.494h-.256q-.426.909-1.207 1.804-.767.88-2.003 1.463-1.222.582-2.983.582m1.917-4.815q1.464 0 2.472-.796 1.023-.809 1.563-2.258.554-1.45.554-3.395t-.54-3.381q-.54-1.434-1.563-2.216-1.023-.781-2.486-.781-1.491 0-2.514.81t-1.548 2.244q-.526 1.434-.526 3.324 0 1.904.526 3.366.54 1.45 1.548 2.273 1.023.81 2.514.81m23.513 4.815q-2.487 0-4.503-1.278-2.004-1.293-3.182-3.793-1.165-2.514-1.165-6.165 0-3.75 1.207-6.235 1.208-2.5 3.211-3.736a8.2 8.2 0 0 1 4.417-1.25q1.833 0 3.054.625 1.236.61 1.989 1.534.767.909 1.165 1.79h.184v-10.938h6.037V602h-5.966v-3.494h-.255q-.426.909-1.208 1.804-.767.88-2.002 1.463-1.222.582-2.983.582m1.917-4.815q1.463 0 2.472-.796 1.022-.809 1.562-2.258.554-1.45.554-3.395t-.54-3.381q-.539-1.434-1.562-2.216-1.022-.781-2.486-.781-1.491 0-2.514.81t-1.548 2.244q-.526 1.434-.526 3.324 0 1.904.526 3.366.54 1.45 1.548 2.273 1.023.81 2.514.81m36.335-17.358v4.545h-13.139v-4.545zm-10.156-5.227h6.051v20.34q0 .839.256 1.307.255.454.71.639.47.186 1.08.185.426 0 .852-.071.426-.085.653-.128l.952 4.503q-.454.142-1.278.327-.825.198-2.003.241-2.188.086-3.835-.582-1.634-.667-2.543-2.074t-.895-3.551zm23.722 27.471q-3.31 0-5.725-1.406-2.4-1.42-3.707-3.949-1.307-2.543-1.307-5.895 0-3.38 1.307-5.909 1.307-2.542 3.707-3.949 2.415-1.42 5.725-1.42t5.71 1.42q2.415 1.407 3.722 3.949 1.306 2.529 1.306 5.909 0 3.353-1.306 5.895-1.308 2.529-3.722 3.949-2.4 1.406-5.71 1.406m.028-4.687q1.506 0 2.514-.853 1.009-.866 1.52-2.358.526-1.492.526-3.394 0-1.904-.526-3.395-.511-1.493-1.52-2.358-1.008-.867-2.514-.867-1.52 0-2.557.867-1.022.865-1.548 2.358-.511 1.491-.511 3.395 0 1.902.511 3.394.526 1.492 1.548 2.358 1.038.853 2.557.853m48.349-24.83V602h-5.313l-12.656-18.31h-.213V602h-6.151v-29.091h5.398l12.557 18.296h.256v-18.296zm14.911 29.517q-3.366 0-5.795-1.364-2.415-1.377-3.722-3.892-1.307-2.528-1.307-5.98 0-3.366 1.307-5.909t3.679-3.963q2.386-1.42 5.597-1.42 2.159 0 4.019.696a8.9 8.9 0 0 1 3.268 2.059q1.405 1.378 2.187 3.466.781 2.074.781 4.858v1.662h-18.423v-3.75h12.727q0-1.307-.568-2.315a4.07 4.07 0 0 0-1.577-1.577q-.994-.582-2.315-.582-1.378 0-2.443.639-1.051.625-1.648 1.69-.596 1.051-.611 2.344v3.565q0 1.62.597 2.799.61 1.179 1.719 1.818 1.107.639 2.628.639 1.008 0 1.846-.284a3.8 3.8 0 0 0 1.435-.852q.596-.568.909-1.392l5.596.369a7.64 7.64 0 0 1-1.747 3.523q-1.307 1.492-3.38 2.329-2.06.824-4.759.824m18.111-.426-5.938-21.818h6.123l3.38 14.659h.199l3.523-14.659h6.008l3.58 14.574h.185l3.323-14.574h6.108L434.49 602h-6.406l-3.75-13.722h-.27L420.314 602zm39.091 0v-29.091h11.477q3.31 0 5.639 1.264 2.33 1.251 3.551 3.48 1.236 2.216 1.236 5.114t-1.25 5.114-3.622 3.451q-2.358 1.236-5.71 1.236h-7.316v-4.929h6.321q1.776 0 2.927-.611 1.164-.624 1.733-1.718.582-1.109.582-2.543 0-1.45-.582-2.528-.569-1.094-1.733-1.691-1.166-.61-2.955-.61h-4.148V602zm25.785 0v-21.818h6.051V602zm3.039-24.631q-1.349 0-2.315-.895-.951-.909-.952-2.173 0-1.25.952-2.145.966-.909 2.315-.909 1.35 0 2.301.909.966.896.966 2.145 0 1.264-.966 2.173-.951.895-2.301.895m13.91-4.46V602h-6.051v-29.091zm14.791 29.517q-3.367 0-5.796-1.364-2.415-1.377-3.721-3.892-1.307-2.528-1.307-5.98 0-3.366 1.307-5.909t3.679-3.963q2.385-1.42 5.596-1.42 2.16 0 4.02.696a8.9 8.9 0 0 1 3.267 2.059q1.407 1.378 2.188 3.466.78 2.074.781 4.858v1.662h-18.423v-3.75h12.727q0-1.307-.568-2.315a4.1 4.1 0 0 0-1.577-1.577q-.995-.582-2.315-.582-1.378 0-2.444.639-1.05.625-1.647 1.69a4.77 4.77 0 0 0-.611 2.344v3.565q0 1.62.596 2.799a4.38 4.38 0 0 0 1.719 1.818q1.108.639 2.628.639 1.008 0 1.847-.284a3.8 3.8 0 0 0 1.434-.852q.597-.568.909-1.392l5.597.369a7.64 7.64 0 0 1-1.747 3.523q-1.307 1.492-3.381 2.329-2.06.824-4.758.824M210.845 904.909h6.15v18.892q0 3.181-1.52 5.568-1.505 2.387-4.218 3.722-2.714 1.321-6.321 1.321-3.622 0-6.336-1.321-2.712-1.335-4.218-3.722t-1.506-5.568v-18.892h6.151v18.367q0 1.661.724 2.954a5.3 5.3 0 0 0 2.074 2.031q1.335.74 3.111.739 1.79 0 3.111-.739a5.2 5.2 0 0 0 2.059-2.031q.74-1.293.739-2.954zm11.097 37.273v-30h5.966v3.665h.27q.398-.881 1.15-1.79.768-.924 1.989-1.534 1.236-.625 3.068-.625 2.387 0 4.404 1.25 2.016 1.236 3.224 3.736 1.208 2.485 1.208 6.235 0 3.651-1.179 6.165-1.166 2.5-3.182 3.793-2.003 1.278-4.489 1.278-1.761 0-2.997-.582-1.221-.583-2.003-1.463-.781-.895-1.193-1.804h-.185v11.676zm5.923-19.091q0 1.946.54 3.395t1.563 2.258q1.023.796 2.485.796 1.478 0 2.5-.81 1.023-.824 1.549-2.273.54-1.462.54-3.366 0-1.89-.526-3.324-.525-1.435-1.548-2.244t-2.515-.81q-1.477 0-2.5.781-1.008.782-1.548 2.216-.54 1.436-.54 3.381m27.429 11.264q-2.486 0-4.502-1.278-2.004-1.293-3.182-3.793-1.165-2.514-1.165-6.165 0-3.75 1.207-6.235 1.207-2.5 3.211-3.736a8.2 8.2 0 0 1 4.417-1.25q1.833 0 3.054.625 1.236.61 1.989 1.534.766.909 1.165 1.79h.184v-10.938h6.037V934h-5.966v-3.494h-.255a7.8 7.8 0 0 1-1.208 1.804q-.767.88-2.003 1.463-1.22.582-2.983.582m1.918-4.815q1.462 0 2.472-.796 1.022-.809 1.562-2.258.554-1.45.554-3.395t-.54-3.381q-.54-1.434-1.562-2.216-1.023-.781-2.486-.781-1.491 0-2.514.81t-1.548 2.244-.526 3.324q0 1.904.526 3.366.539 1.45 1.548 2.273 1.023.81 2.514.81m21.694 4.872q-2.088 0-3.722-.724-1.633-.739-2.585-2.174-.937-1.448-.937-3.608 0-1.818.667-3.054a5.4 5.4 0 0 1 1.818-1.988 8.8 8.8 0 0 1 2.614-1.137 20 20 0 0 1 3.097-.539 78 78 0 0 0 3.068-.37q1.165-.184 1.69-.54.526-.354.526-1.051v-.085q0-1.35-.853-2.088-.837-.739-2.386-.739-1.633 0-2.599.725-.966.71-1.279 1.79l-5.596-.455q.425-1.99 1.676-3.437 1.25-1.464 3.224-2.245 1.989-.795 4.602-.795 1.82 0 3.481.426 1.676.426 2.968 1.321a6.4 6.4 0 0 1 2.06 2.301q.753 1.392.753 3.338V934h-5.739v-3.026h-.17a6.1 6.1 0 0 1-1.407 1.804q-.88.767-2.116 1.208-1.236.426-2.855.426m1.733-4.176q1.335 0 2.358-.526a4.2 4.2 0 0 0 1.605-1.449q.582-.909.582-2.059v-2.316q-.284.185-.781.341-.482.143-1.094.27-.61.114-1.221.213l-1.108.156q-1.065.157-1.861.498-.795.34-1.236.923-.44.568-.44 1.42 0 1.236.895 1.89.909.639 2.301.639m26.854-18.054v4.545h-13.14v-4.545zm-10.157-5.227h6.051v20.34q0 .839.256 1.307.256.455.71.639.47.186 1.08.185.426 0 .852-.071.426-.085.654-.128l.951 4.503q-.454.142-1.278.327-.824.198-2.003.241-2.188.086-3.835-.582-1.634-.667-2.543-2.074t-.895-3.551zm23.807 27.471q-3.366 0-5.795-1.364-2.415-1.377-3.722-3.892-1.307-2.528-1.307-5.98 0-3.366 1.307-5.909t3.679-3.963q2.386-1.42 5.597-1.42 2.159 0 4.02.696a8.9 8.9 0 0 1 3.267 2.059q1.406 1.378 2.187 3.466.781 2.074.781 4.858v1.662h-18.423v-3.75h12.727q0-1.307-.568-2.315a4.07 4.07 0 0 0-1.577-1.577q-.993-.582-2.315-.582-1.378 0-2.443.639-1.051.625-1.648 1.69-.596 1.051-.611 2.344v3.565q0 1.62.597 2.799.61 1.179 1.719 1.818 1.107.639 2.628.639 1.008 0 1.846-.284a3.8 3.8 0 0 0 1.435-.852q.597-.569.909-1.392l5.596.369a7.64 7.64 0 0 1-1.747 3.523q-1.307 1.492-3.38 2.329-2.06.824-4.759.824m23.335-.426v-29.091h11.477q3.31 0 5.639 1.264 2.33 1.251 3.551 3.48 1.236 2.216 1.236 5.114t-1.25 5.114-3.622 3.451q-2.358 1.236-5.71 1.236h-7.316v-4.929h6.321q1.776 0 2.926-.611 1.166-.624 1.733-1.718.583-1.109.583-2.543 0-1.45-.583-2.528-.567-1.094-1.733-1.691-1.164-.61-2.954-.61h-4.148V934zm25.784 0v-21.818h6.052V934zm3.04-24.631q-1.349 0-2.315-.895-.952-.909-.952-2.173 0-1.25.952-2.145.966-.909 2.315-.909 1.35 0 2.301.909.966.896.966 2.145 0 1.264-.966 2.173-.951.895-2.301.895m13.91-4.46V934h-6.051v-29.091zm14.79 29.517q-3.366 0-5.795-1.364-2.415-1.377-3.722-3.892-1.306-2.528-1.306-5.98 0-3.366 1.306-5.909 1.308-2.543 3.679-3.963 2.387-1.42 5.597-1.42 2.159 0 4.02.696a8.9 8.9 0 0 1 3.267 2.059q1.406 1.378 2.187 3.466.782 2.074.782 4.858v1.662h-18.424v-3.75h12.728q0-1.307-.569-2.315a4.07 4.07 0 0 0-1.576-1.577q-.994-.582-2.316-.582-1.377 0-2.443.639-1.05.625-1.647 1.69a4.77 4.77 0 0 0-.611 2.344v3.565q0 1.62.596 2.799.611 1.179 1.719 1.818t2.628.639q1.008 0 1.847-.284a3.8 3.8 0 0 0 1.434-.852q.597-.569.909-1.392l5.597.369a7.65 7.65 0 0 1-1.747 3.523q-1.307 1.492-3.381 2.329-2.06.824-4.759.824m23.335-.426v-29.091h6.151v12.003h12.485v-12.003h6.137V934h-6.137v-12.017h-12.485V934zm39.673.426q-3.366 0-5.795-1.364-2.415-1.377-3.722-3.892-1.307-2.528-1.307-5.98 0-3.366 1.307-5.909t3.679-3.963q2.387-1.42 5.597-1.42 2.159 0 4.02.696a8.9 8.9 0 0 1 3.267 2.059q1.406 1.378 2.187 3.466.782 2.074.782 4.858v1.662h-18.424v-3.75h12.727q0-1.307-.568-2.315a4.07 4.07 0 0 0-1.576-1.577q-.994-.582-2.316-.582-1.377 0-2.443.639-1.051.625-1.648 1.69a4.8 4.8 0 0 0-.61 2.344v3.565q0 1.62.596 2.799.61 1.179 1.719 1.818t2.628.639q1.008 0 1.846-.284a3.8 3.8 0 0 0 1.435-.852q.597-.569.909-1.392l5.597.369a7.65 7.65 0 0 1-1.747 3.523q-1.308 1.492-3.381 2.329-2.06.824-4.759.824m20.185-.014q-2.088 0-3.722-.724-1.633-.739-2.585-2.174-.937-1.448-.937-3.608 0-1.818.667-3.054a5.4 5.4 0 0 1 1.818-1.988 8.8 8.8 0 0 1 2.614-1.137 20 20 0 0 1 3.097-.539 78 78 0 0 0 3.068-.37q1.165-.184 1.69-.54.526-.354.526-1.051v-.085q0-1.35-.853-2.088-.837-.739-2.386-.739-1.633 0-2.599.725-.966.71-1.279 1.79l-5.596-.455q.425-1.99 1.676-3.437 1.25-1.464 3.224-2.245 1.989-.795 4.603-.795 1.818 0 3.48.426 1.676.426 2.968 1.321a6.4 6.4 0 0 1 2.06 2.301q.753 1.392.753 3.338V934h-5.739v-3.026h-.17a6.2 6.2 0 0 1-1.406 1.804q-.882.767-2.117 1.208-1.236.426-2.855.426m1.733-4.176q1.335 0 2.358-.526a4.2 4.2 0 0 0 1.605-1.449q.582-.909.582-2.059v-2.316a3.2 3.2 0 0 1-.781.341q-.482.143-1.094.27-.61.114-1.221.213l-1.108.156q-1.066.157-1.861.498t-1.236.923q-.44.568-.44 1.42 0 1.236.895 1.89.909.639 2.301.639m23.288 4.119q-2.486 0-4.503-1.278-2.002-1.293-3.181-3.793-1.165-2.514-1.165-6.165 0-3.75 1.207-6.235 1.208-2.5 3.21-3.736a8.2 8.2 0 0 1 4.418-1.25q1.833 0 3.054.625 1.236.61 1.989 1.534.767.909 1.164 1.79h.185v-10.938h6.037V934h-5.966v-3.494h-.256q-.426.909-1.207 1.804-.767.88-2.003 1.463-1.22.582-2.983.582m1.918-4.815q1.463 0 2.471-.796 1.023-.809 1.563-2.258.554-1.45.554-3.395t-.54-3.381q-.54-1.434-1.562-2.216-1.023-.781-2.486-.781-1.492 0-2.514.81-1.023.81-1.549 2.244-.525 1.434-.525 3.324 0 1.904.525 3.366.54 1.45 1.549 2.273 1.022.81 2.514.81m33.626-11.137-5.54.341a2.86 2.86 0 0 0-.611-1.278 3.2 3.2 0 0 0-1.236-.923q-.753-.355-1.804-.355-1.406 0-2.372.596-.966.582-.966 1.563 0 .78.625 1.321.625.539 2.145.866l3.949.796q3.182.653 4.744 2.102 1.563 1.449 1.563 3.807 0 2.144-1.264 3.764-1.251 1.619-3.438 2.528-2.173.895-5.014.895-4.333 0-6.904-1.804-2.556-1.818-2.997-4.943l5.952-.313q.27 1.322 1.307 2.018 1.036.681 2.656.681 1.591 0 2.557-.61.98-.625.994-1.606-.014-.824-.696-1.349-.681-.54-2.102-.824l-3.779-.753q-3.195-.639-4.758-2.216-1.548-1.577-1.548-4.019 0-2.103 1.136-3.623 1.15-1.52 3.224-2.343 2.088-.824 4.887-.824 4.133 0 6.505 1.747 2.386 1.747 2.785 4.758"/><rect width="358" height="120" x="190" y="985" stroke="#dbdbdb" stroke-width="2" rx="26"/><rect width="358" height="120" x="1" y="154" stroke="#dbdbdb" stroke-width="2" rx="26"/><rect width="358" height="120" x="190" y="985" stroke="#dbdbdb" stroke-width="2" rx="26"/><rect width="358" height="120" x="1" y="154" stroke="#dbdbdb" stroke-width="2" rx="26"/><rect width="238" height="120" x="190" y="1163" stroke="#dbdbdb" stroke-width="2" rx="26"/><rect width="238" height="120" x="121" y="332" stroke="#dbdbdb" stroke-width="2" rx="26"/><path stroke="#dbdbdb" stroke-width="2" d="M310 984v122M121 153v122M430 984v122M241 153v122M310 1162v122M241 331v122"/><path fill="#fff" d="M347.976 1059v-2.56l9.602-10.51a66 66 0 0 0 2.785-3.21q1.094-1.38 1.619-2.58c.36-.82.54-1.67.54-2.56 0-1.02-.247-1.91-.739-2.66a4.86 4.86 0 0 0-1.989-1.73c-.842-.41-1.789-.61-2.841-.61-1.117 0-2.092.23-2.926.7a4.76 4.76 0 0 0-1.917 1.91c-.445.83-.668 1.79-.668 2.9h-3.352c0-1.7.393-3.2 1.179-4.49a8.2 8.2 0 0 1 3.21-3.01q2.046-1.08 4.588-1.08 2.557 0 4.531 1.08 1.975 1.08 3.097 2.91t1.122 4.08c0 1.07-.194 2.12-.582 3.14q-.568 1.515-1.989 3.39c-.937 1.24-2.239 2.76-3.906 4.55l-6.534 6.99v.23h13.522v3.12zm25.128 0 13.011-25.74v-.23h-15v-3.12h18.637v3.29l-12.955 25.8zM158.976 228v-2.557l9.602-10.511a67 67 0 0 0 2.785-3.21q1.094-1.379 1.619-2.586.54-1.221.54-2.556 0-1.535-.739-2.657-.724-1.121-1.989-1.733-1.263-.61-2.841-.61-1.675 0-2.926.696a4.8 4.8 0 0 0-1.917 1.917q-.668 1.236-.668 2.898h-3.352q0-2.557 1.179-4.489a8.2 8.2 0 0 1 3.21-3.011q2.046-1.08 4.588-1.08 2.557 0 4.531 1.08 1.975 1.08 3.097 2.912t1.122 4.077q0 1.605-.582 3.139-.568 1.52-1.989 3.395-1.406 1.86-3.906 4.545l-6.534 6.989v.227h13.522V228zm25.128 0 13.011-25.739v-.227h-15v-3.125h18.637v3.296L187.797 228zM240.961 1029.91V1059h-3.522v-25.4h-.171l-7.102 4.72v-3.58l7.273-4.83zm17.628-.4c1.193.01 2.386.24 3.58.68q1.79.675 3.267 2.22c.985 1.02 1.775 2.42 2.372 4.19q.894 2.655.895 6.66c0 2.59-.246 4.88-.739 6.89-.483 2-1.184 3.68-2.102 5.06q-1.363 2.055-3.324 3.12c-1.297.71-2.765 1.07-4.403 1.07-1.629 0-3.083-.32-4.361-.97a8.57 8.57 0 0 1-3.125-2.71q-1.207-1.755-1.549-4.05h3.466c.313 1.34.933 2.44 1.861 3.31q1.406 1.29 3.708 1.29 3.366 0 5.312-2.94 1.96-2.94 1.96-8.31h-.227c-.53.8-1.16 1.48-1.889 2.06a8.2 8.2 0 0 1-2.429 1.34c-.89.31-1.837.47-2.841.47a8.9 8.9 0 0 1-4.588-1.24q-2.075-1.245-3.324-3.42c-.824-1.46-1.236-3.13-1.236-5q0-2.67 1.193-4.89a9.2 9.2 0 0 1 3.381-3.55c1.458-.88 3.172-1.31 5.142-1.28m0 3.13c-1.193 0-2.268.29-3.224.89-.947.59-1.7 1.38-2.259 2.39-.549.99-.824 2.1-.824 3.31s.265 2.31.796 3.31c.54.98 1.273 1.77 2.201 2.35q1.407.87 3.196.87c.9 0 1.738-.17 2.515-.52a6.5 6.5 0 0 0 2.031-1.47 7.1 7.1 0 0 0 1.378-2.11q.497-1.2.497-2.49c0-1.14-.275-2.2-.824-3.2a6.6 6.6 0 0 0-2.244-2.41c-.947-.62-2.027-.92-3.239-.92M51.961 198.909V228H48.44v-25.398h-.17l-7.103 4.716v-3.579l7.273-4.83zm17.628-.398q1.79.015 3.58.682 1.79.668 3.267 2.216 1.477 1.535 2.372 4.19.894 2.657.895 6.662 0 3.879-.739 6.89-.725 2.997-2.102 5.056-1.364 2.06-3.324 3.125-1.946 1.066-4.403 1.066-2.444 0-4.361-.966a8.6 8.6 0 0 1-3.125-2.713q-1.207-1.747-1.549-4.049h3.466q.47 2.004 1.861 3.31 1.406 1.293 3.708 1.293 3.366 0 5.312-2.941 1.96-2.94 1.96-8.309h-.227a8.9 8.9 0 0 1-1.89 2.059 8.3 8.3 0 0 1-2.428 1.336 8.5 8.5 0 0 1-2.841.468q-2.5 0-4.588-1.235-2.074-1.25-3.324-3.424-1.236-2.187-1.236-5 0-2.67 1.193-4.886a9.2 9.2 0 0 1 3.381-3.551q2.187-1.321 5.142-1.279m0 3.125q-1.79 0-3.224.895a6.44 6.44 0 0 0-2.259 2.387q-.824 1.491-.824 3.309t.796 3.31a6.35 6.35 0 0 0 2.201 2.358q1.406.867 3.197.866 1.35 0 2.514-.525a6.5 6.5 0 0 0 2.031-1.463 7.1 7.1 0 0 0 1.378-2.117 6.4 6.4 0 0 0 .497-2.486 6.5 6.5 0 0 0-.824-3.196 6.54 6.54 0 0 0-2.244-2.414q-1.42-.924-3.239-.924M240.332 1207.91V1237h-3.522v-25.4h-.171l-7.102 4.72v-3.58l7.273-4.83zm8.367 29.09v-2.56l9.602-10.51a66 66 0 0 0 2.784-3.21q1.094-1.38 1.62-2.58c.359-.82.539-1.67.539-2.56 0-1.02-.246-1.91-.738-2.66a4.86 4.86 0 0 0-1.989-1.73c-.843-.41-1.79-.61-2.841-.61-1.117 0-2.093.23-2.926.7a4.77 4.77 0 0 0-1.918 1.91c-.445.83-.667 1.79-.667 2.9h-3.353c0-1.7.393-3.2 1.179-4.49a8.2 8.2 0 0 1 3.211-3.01q2.045-1.08 4.588-1.08 2.556 0 4.531 1.08t3.097 2.91 1.122 4.08c0 1.07-.194 2.12-.583 3.14q-.567 1.515-1.988 3.39c-.938 1.24-2.24 2.76-3.907 4.55l-6.534 6.99v.23h13.523v3.12zM171.332 376.909V406h-3.522v-25.398h-.171l-7.102 4.716v-3.579l7.273-4.83zM179.699 406v-2.557l9.602-10.511a67 67 0 0 0 2.784-3.21q1.093-1.378 1.62-2.586a6.3 6.3 0 0 0 .539-2.556q0-1.535-.738-2.657-.725-1.121-1.989-1.733-1.264-.61-2.841-.61-1.676 0-2.926.696a4.8 4.8 0 0 0-1.918 1.917q-.667 1.236-.667 2.898h-3.353q0-2.557 1.179-4.489a8.2 8.2 0 0 1 3.211-3.011q2.045-1.08 4.588-1.08 2.557 0 4.531 1.08 1.975 1.08 3.097 2.912t1.122 4.077q0 1.605-.583 3.139-.567 1.52-1.988 3.395-1.407 1.86-3.907 4.545l-6.534 6.989v.227h13.523V406zM466.572 1053.03v-2.89l12.784-20.23h2.102v4.49h-1.42l-9.659 15.28v.23h17.215v3.12zm13.693 5.97v-29.09h3.352V1059zm13.562 0 13.011-25.74v-.23h-15v-3.12h18.636v3.29L497.52 1059zM277.572 222.034v-2.898l12.784-20.227h2.102v4.489h-1.42l-9.659 15.284v.227h17.215v3.125zM291.265 228v-29.091h3.352V228zm13.562 0 13.011-25.739v-.227h-15v-3.125h18.636v3.296L308.52 228zM356.497 1237.4c-1.875 0-3.546-.32-5.014-.97-1.458-.64-2.618-1.54-3.48-2.68q-1.278-1.74-1.392-4.02h3.579q.114 1.395.966 2.43.853 1.005 2.23 1.56c.919.37 1.937.55 3.054.55 1.25 0 2.358-.22 3.324-.65.966-.44 1.724-1.04 2.273-1.82q.824-1.17.824-2.7 0-1.605-.796-2.82c-.53-.83-1.306-1.47-2.329-1.94q-1.535-.69-3.75-.69h-2.33v-3.13h2.33c1.155 0 2.168-.21 3.04-.62.88-.42 1.567-1.01 2.059-1.76q.753-1.14.753-2.67 0-1.485-.653-2.58a4.54 4.54 0 0 0-1.847-1.7c-.786-.41-1.714-.61-2.784-.61-1.004 0-1.951.18-2.841.55-.881.36-1.6.89-2.159 1.58-.559.68-.862 1.51-.909 2.47h-3.409c.057-1.52.516-2.86 1.378-4q1.292-1.74 3.38-2.7c1.402-.65 2.941-.97 4.617-.97 1.799 0 3.343.37 4.63 1.1 1.288.71 2.278 1.67 2.969 2.85a7.46 7.46 0 0 1 1.037 3.84c0 1.63-.431 3.03-1.292 4.19q-1.28 1.725-3.481 2.4v.22c1.838.31 3.272 1.09 4.304 2.35 1.033 1.25 1.549 2.8 1.549 4.64q0 2.37-1.293 4.26c-.852 1.25-2.017 2.24-3.494 2.96q-2.216 1.08-5.043 1.08m15.639-.4v-2.56l9.603-10.51a66 66 0 0 0 2.784-3.21q1.094-1.38 1.619-2.58c.36-.82.54-1.67.54-2.56 0-1.02-.246-1.91-.739-2.66a4.87 4.87 0 0 0-1.988-1.73c-.843-.41-1.79-.61-2.841-.61-1.118 0-2.093.23-2.926.7a4.77 4.77 0 0 0-1.918 1.91c-.445.83-.668 1.79-.668 2.9h-3.352c0-1.7.393-3.2 1.179-4.49a8.2 8.2 0 0 1 3.21-3.01q2.046-1.08 4.588-1.08 2.557 0 4.532 1.08 1.974 1.08 3.096 2.91t1.122 4.08c0 1.07-.194 2.12-.582 3.14q-.569 1.515-1.989 3.39c-.937 1.24-2.239 2.76-3.906 4.55l-6.534 6.99v.23h13.523v3.12zM287.497 406.398q-2.812 0-5.014-.966-2.187-.966-3.48-2.685-1.278-1.733-1.392-4.02h3.579q.114 1.407.966 2.429.853 1.009 2.23 1.563t3.054.554q1.875 0 3.324-.654 1.45-.652 2.273-1.818.824-1.164.824-2.699 0-1.605-.796-2.826-.795-1.236-2.329-1.932t-3.75-.696h-2.33v-3.125h2.33q1.732 0 3.04-.625 1.32-.625 2.059-1.762.753-1.135.753-2.67 0-1.477-.653-2.571-.653-1.093-1.847-1.705-1.179-.61-2.784-.61a7.3 7.3 0 0 0-2.841.554q-1.321.539-2.159 1.576-.839 1.023-.909 2.472h-3.409q.085-2.287 1.378-4.006 1.292-1.733 3.38-2.699 2.103-.966 4.617-.966 2.699 0 4.63 1.094 1.932 1.08 2.969 2.855a7.47 7.47 0 0 1 1.037 3.835q0 2.458-1.292 4.191-1.28 1.732-3.481 2.4v.228q2.757.454 4.304 2.343 1.55 1.876 1.549 4.645 0 2.372-1.293 4.262-1.278 1.874-3.494 2.954t-5.043 1.08m15.639-.398v-2.557l9.603-10.511a67 67 0 0 0 2.784-3.21q1.094-1.378 1.619-2.586.54-1.221.54-2.556 0-1.535-.739-2.657-.725-1.121-1.988-1.733-1.265-.61-2.841-.61-1.677 0-2.926.696a4.8 4.8 0 0 0-1.918 1.917q-.668 1.236-.668 2.898h-3.352q0-2.557 1.179-4.489a8.2 8.2 0 0 1 3.21-3.011q2.046-1.08 4.588-1.08 2.557 0 4.532 1.08 1.974 1.08 3.096 2.912t1.122 4.077q0 1.605-.582 3.139-.568 1.52-1.989 3.395-1.406 1.86-3.906 4.545l-6.534 6.989v.227h13.523V406zM471.821 136.909V166h-3.523v-25.398h-.171l-7.102 4.716v-3.579l7.273-4.83zm17.628-.398q1.79.015 3.579.682 1.79.668 3.267 2.216 1.478 1.535 2.372 4.19.895 2.657.895 6.662 0 3.879-.738 6.89-.724 2.997-2.103 5.056-1.363 2.06-3.324 3.125-1.946 1.066-4.403 1.066-2.443 0-4.361-.966a8.6 8.6 0 0 1-3.125-2.713q-1.208-1.747-1.548-4.049h3.466q.469 2.004 1.861 3.31 1.406 1.293 3.707 1.293 3.366 0 5.312-2.941 1.96-2.94 1.961-8.309h-.228a8.9 8.9 0 0 1-1.889 2.059 8.3 8.3 0 0 1-2.429 1.336 8.5 8.5 0 0 1-2.841.468q-2.5 0-4.588-1.235-2.073-1.25-3.324-3.424-1.235-2.187-1.235-5 0-2.67 1.193-4.886a9.2 9.2 0 0 1 3.38-3.551q2.188-1.321 5.143-1.279m0 3.125q-1.79 0-3.225.895a6.43 6.43 0 0 0-2.258 2.387q-.825 1.491-.824 3.309 0 1.819.795 3.31a6.35 6.35 0 0 0 2.202 2.358q1.406.867 3.196.866 1.35 0 2.514-.525a6.5 6.5 0 0 0 2.031-1.463 7.1 7.1 0 0 0 1.378-2.117 6.4 6.4 0 0 0 .497-2.486 6.5 6.5 0 0 0-.824-3.196 6.5 6.5 0 0 0-2.244-2.414q-1.42-.924-3.238-.924M516.455 166v-21.818h3.352V166zm1.704-25.455a2.38 2.38 0 0 1-1.69-.667q-.696-.668-.696-1.605 0-.938.696-1.605a2.38 2.38 0 0 1 1.69-.668q.981 0 1.677.668.71.667.71 1.605t-.71 1.605a2.34 2.34 0 0 1-1.677.667m23.243 8.523-3.012.852a5.6 5.6 0 0 0-.838-1.463q-.54-.724-1.477-1.193t-2.401-.469q-2.003 0-3.338.924-1.32.91-1.321 2.315 0 1.25.909 1.975.909.723 2.841 1.207l3.239.795q2.926.71 4.361 2.174 1.434 1.449 1.434 3.735 0 1.875-1.079 3.353-1.066 1.477-2.983 2.329t-4.46.853q-3.339 0-5.526-1.449t-2.77-4.233l3.182-.796q.455 1.762 1.719 2.642 1.278.88 3.338.881 2.343 0 3.721-.994 1.392-1.01 1.392-2.415 0-1.137-.795-1.903-.795-.782-2.443-1.165l-3.637-.853q-2.997-.71-4.403-2.201-1.392-1.506-1.392-3.764 0-1.848 1.037-3.267 1.051-1.42 2.855-2.231 1.818-.809 4.119-.809 3.239 0 5.086 1.42 1.86 1.42 2.642 3.75m20.046-12.159V166h-3.352v-29.091zm15.287 29.546q-3.153 0-5.44-1.393-2.273-1.406-3.508-3.92-1.222-2.529-1.222-5.881 0-3.351 1.222-5.909 1.235-2.571 3.437-4.005 2.216-1.449 5.171-1.449 1.704 0 3.366.568 1.661.568 3.026 1.846 1.363 1.265 2.173 3.353t.81 5.142v1.42h-16.819v-2.897h13.409q0-1.847-.738-3.296a5.57 5.57 0 0 0-2.074-2.287q-1.335-.838-3.153-.838-2.004 0-3.466.994a6.54 6.54 0 0 0-2.23 2.557 7.5 7.5 0 0 0-.782 3.381v1.932q0 2.47.853 4.19.865 1.704 2.4 2.599 1.534.882 3.565.881 1.322 0 2.387-.369a5.1 5.1 0 0 0 1.861-1.136q.78-.767 1.207-1.904l3.239.909a7.2 7.2 0 0 1-1.719 2.898q-1.207 1.236-2.983 1.932-1.775.681-3.992.682m29.589-17.387-3.012.852a5.6 5.6 0 0 0-.838-1.463q-.54-.724-1.477-1.193t-2.401-.469q-2.003 0-3.338.924-1.321.91-1.321 2.315 0 1.25.909 1.975.909.723 2.841 1.207l3.239.795q2.926.71 4.361 2.174 1.434 1.449 1.434 3.735 0 1.875-1.079 3.353-1.066 1.477-2.983 2.329t-4.46.853q-3.339 0-5.526-1.449t-2.77-4.233l3.182-.796q.455 1.762 1.719 2.642 1.278.88 3.338.881 2.343 0 3.721-.994 1.392-1.01 1.392-2.415 0-1.137-.795-1.903-.795-.782-2.443-1.165l-3.637-.853q-2.997-.71-4.403-2.201-1.392-1.506-1.392-3.764 0-1.848 1.037-3.267 1.051-1.42 2.855-2.231 1.818-.809 4.119-.809 3.238 0 5.085 1.42 1.861 1.42 2.643 3.75m20.898 0-3.011.852a5.6 5.6 0 0 0-.838-1.463q-.54-.724-1.478-1.193t-2.4-.469q-2.004 0-3.338.924-1.321.91-1.321 2.315 0 1.25.909 1.975.909.723 2.841 1.207l3.238.795q2.927.71 4.361 2.174 1.434 1.449 1.435 3.735 0 1.875-1.08 3.353-1.065 1.477-2.983 2.329-1.917.852-4.46.853-3.338 0-5.526-1.449t-2.77-4.233l3.182-.796q.454 1.762 1.719 2.642 1.278.88 3.338.881 2.344 0 3.722-.994 1.392-1.01 1.392-2.415 0-1.137-.796-1.903-.795-.782-2.443-1.165l-3.636-.853q-2.997-.71-4.404-2.201-1.392-1.506-1.392-3.764 0-1.848 1.037-3.267 1.052-1.42 2.855-2.231 1.818-.809 4.12-.809 3.239 0 5.085 1.42 1.86 1.42 2.642 3.75m26.182-4.886v2.841h-11.306v-2.841zm-8.011-5.227h3.352v20.795q0 1.42.412 2.131.426.696 1.08.937a4.3 4.3 0 0 0 1.406.227q.553 0 .909-.056l.568-.114.682 3.011a7 7 0 0 1-.952.256q-.61.142-1.548.142a6.75 6.75 0 0 1-2.784-.611 5.5 5.5 0 0 1-2.244-1.861q-.88-1.25-.881-3.153zm16.875 13.92V166h-3.352v-29.091h3.352v10.682h.284a6.18 6.18 0 0 1 2.301-2.685q1.55-1.008 4.12-1.008 2.229 0 3.906.895 1.676.88 2.599 2.713.938 1.818.938 4.63V166h-3.352v-13.636q0-2.6-1.35-4.02-1.335-1.435-3.707-1.435-1.649 0-2.955.696-1.293.696-2.045 2.031-.74 1.336-.739 3.239m26.701 13.636q-2.073 0-3.764-.781-1.69-.795-2.685-2.287-.994-1.506-.994-3.636 0-1.875.739-3.04a5.2 5.2 0 0 1 1.974-1.847 10.4 10.4 0 0 1 2.727-.994 34 34 0 0 1 3.026-.54q1.988-.255 3.224-.383 1.251-.142 1.818-.469.583-.327.583-1.136v-.114q0-2.102-1.151-3.267-1.136-1.164-3.451-1.165-2.401 0-3.765 1.051t-1.917 2.245l-3.182-1.137q.852-1.988 2.273-3.096a8.5 8.5 0 0 1 3.125-1.563 13 13 0 0 1 3.352-.454q1.052 0 2.415.255a7.7 7.7 0 0 1 2.656 1.009q1.293.767 2.145 2.315t.852 4.148V166h-3.352v-2.955h-.171q-.34.711-1.136 1.52-.795.81-2.116 1.378t-3.225.568m.511-3.011q1.99 0 3.353-.781 1.377-.781 2.074-2.017.71-1.236.71-2.6v-3.068q-.213.256-.938.469-.71.199-1.647.355-.924.142-1.804.256-.867.1-1.407.17-1.306.17-2.443.554-1.122.369-1.818 1.122-.682.74-.682 2.017 0 1.748 1.293 2.642 1.307.88 3.309.881m18.96-10.625V166h-3.352v-21.818h3.238v3.409h.284a6.24 6.24 0 0 1 2.33-2.671q1.563-1.022 4.034-1.022 2.216 0 3.878.909 1.662.894 2.585 2.727.923 1.818.923 4.602V166h-3.352v-13.636q0-2.571-1.335-4.006-1.335-1.449-3.665-1.449-1.605 0-2.869.696-1.25.696-1.975 2.031-.724 1.336-.724 3.239m-128.443 61.523q-2.812 0-5.014-.966-2.187-.966-3.48-2.685-1.278-1.732-1.392-4.02h3.579q.114 1.407.966 2.429.852 1.009 2.23 1.563t3.054.554q1.875 0 3.324-.654 1.45-.653 2.273-1.818.824-1.164.824-2.699 0-1.605-.796-2.826-.795-1.236-2.329-1.932t-3.75-.696h-2.33v-3.125h2.33q1.732 0 3.04-.625 1.32-.625 2.059-1.762.753-1.136.753-2.67 0-1.478-.653-2.571-.654-1.093-1.847-1.705-1.179-.61-2.784-.61a7.3 7.3 0 0 0-2.841.554q-1.321.539-2.159 1.576-.838 1.023-.909 2.472h-3.409q.085-2.287 1.378-4.006 1.292-1.733 3.38-2.699 2.103-.966 4.617-.966 2.699 0 4.63 1.094 1.932 1.08 2.969 2.855a7.47 7.47 0 0 1 1.037 3.835q0 2.458-1.292 4.191-1.28 1.733-3.481 2.4v.228q2.757.454 4.304 2.343 1.55 1.876 1.549 4.645 0 2.373-1.293 4.262-1.278 1.875-3.494 2.954t-5.043 1.08m15.639-.398v-2.557l9.603-10.511a67 67 0 0 0 2.784-3.21q1.094-1.379 1.619-2.586.54-1.221.54-2.556 0-1.535-.739-2.657-.725-1.121-1.988-1.733-1.264-.61-2.841-.61-1.677 0-2.926.696a4.8 4.8 0 0 0-1.918 1.917q-.668 1.236-.668 2.898h-3.352q0-2.557 1.179-4.489a8.2 8.2 0 0 1 3.21-3.011q2.046-1.08 4.588-1.08 2.557 0 4.532 1.08 1.974 1.08 3.096 2.912t1.122 4.077q0 1.605-.582 3.139-.569 1.52-1.989 3.395-1.406 1.86-3.906 4.545l-6.534 6.989v.227h13.523V214z"/><path stroke="#fff" stroke-width="2" d="M487 305h-42M444 215h-42M445 393h-42M445 214v179"/><rect width="120" height="120" x="531" y="244" stroke="#dbdbdb" stroke-width="2" rx="26"/><path fill="#fff" d="M582.961 288.909V318h-3.522v-25.398h-.171l-7.102 4.716v-3.579l7.273-4.83zm17.628-.398q1.79.015 3.58.682 1.79.668 3.267 2.216 1.477 1.535 2.372 4.19.894 2.657.895 6.662 0 3.879-.739 6.89-.725 2.997-2.102 5.056-1.364 2.06-3.324 3.125-1.946 1.066-4.403 1.066-2.444 0-4.361-.966a8.56 8.56 0 0 1-3.125-2.713q-1.207-1.747-1.549-4.049h3.466q.47 2.004 1.861 3.31 1.406 1.293 3.708 1.293 3.366 0 5.312-2.941 1.96-2.94 1.96-8.309h-.227a8.9 8.9 0 0 1-1.889 2.059 8.3 8.3 0 0 1-2.429 1.336 8.5 8.5 0 0 1-2.841.468q-2.5 0-4.588-1.235-2.074-1.25-3.324-3.424-1.236-2.187-1.236-5 0-2.67 1.193-4.886a9.2 9.2 0 0 1 3.381-3.551q2.187-1.321 5.142-1.279m0 3.125q-1.79 0-3.224.895a6.44 6.44 0 0 0-2.259 2.387q-.824 1.491-.824 3.309t.796 3.31a6.35 6.35 0 0 0 2.201 2.358q1.407.866 3.196.866 1.35 0 2.515-.525a6.5 6.5 0 0 0 2.031-1.463 7.1 7.1 0 0 0 1.378-2.117 6.4 6.4 0 0 0 .497-2.486 6.5 6.5 0 0 0-.824-3.196 6.54 6.54 0 0 0-2.244-2.414q-1.42-.924-3.239-.924"/><rect width="599" height="120" x="69" y="648" stroke="#dbdbdb" stroke-width="2" rx="26"/><path stroke="#dbdbdb" stroke-width="2" d="M189 647v122M309 647v122M430 647v122M550 647v122"/><path fill="#fff" d="M119.332 692.909V722h-3.522v-25.398h-.171l-7.102 4.716v-3.579l7.273-4.83zM127.699 722v-2.557l9.602-10.511a67 67 0 0 0 2.784-3.21q1.094-1.378 1.62-2.586a6.3 6.3 0 0 0 .539-2.556q0-1.535-.738-2.657-.725-1.122-1.989-1.733-1.264-.61-2.841-.61-1.676 0-2.926.696a4.8 4.8 0 0 0-1.918 1.917q-.667 1.236-.667 2.898h-3.353q0-2.557 1.179-4.489a8.2 8.2 0 0 1 3.211-3.011q2.045-1.08 4.588-1.08 2.557 0 4.531 1.08 1.975 1.08 3.097 2.912t1.122 4.077q0 1.605-.583 3.139-.567 1.52-1.988 3.395-1.407 1.86-3.907 4.545l-6.534 6.989v.227h13.523V722zM238.961 692.909V722h-3.522v-25.398h-.171l-7.102 4.716v-3.579l7.273-4.83zm17.628-.398q1.79.015 3.58.682 1.79.668 3.267 2.216 1.477 1.535 2.372 4.19.894 2.657.895 6.662 0 3.879-.739 6.89-.725 2.997-2.102 5.056-1.363 2.06-3.324 3.125-1.946 1.066-4.403 1.066-2.444 0-4.361-.966a8.56 8.56 0 0 1-3.125-2.713q-1.207-1.747-1.549-4.049h3.466q.47 2.004 1.861 3.31 1.406 1.293 3.708 1.293 3.366 0 5.312-2.941 1.96-2.94 1.96-8.309h-.227a8.9 8.9 0 0 1-1.889 2.059 8.3 8.3 0 0 1-2.429 1.336 8.5 8.5 0 0 1-2.841.468q-2.5 0-4.588-1.235-2.075-1.25-3.324-3.424-1.236-2.187-1.236-5 0-2.67 1.193-4.886a9.2 9.2 0 0 1 3.381-3.551q2.187-1.321 5.142-1.279m0 3.125q-1.79 0-3.224.895a6.44 6.44 0 0 0-2.259 2.387q-.824 1.491-.824 3.309t.796 3.31a6.35 6.35 0 0 0 2.201 2.358q1.407.866 3.196.866 1.35 0 2.515-.525a6.5 6.5 0 0 0 2.031-1.463 7.1 7.1 0 0 0 1.378-2.117 6.4 6.4 0 0 0 .497-2.486 6.5 6.5 0 0 0-.824-3.196 6.54 6.54 0 0 0-2.244-2.414q-1.42-.924-3.239-.924"/></svg>