<svg width="738" height="1616" viewBox="0 0 738 1616" fill="none" xmlns="http://www.w3.org/2000/svg">
<path d="M428 984H521C535.912 984 548 996.088 548 1011V1079C548 1093.91 535.912 1106 521 1106H428V984Z" fill="#995E00"/>
<path d="M240 153H333C347.912 153 360 165.088 360 180V248C360 262.912 347.912 275 333 275H240V153Z" fill="#995E00"/>
<path d="M360 358C360 343.088 347.912 331 333 331H240V453H333C347.912 453 360 440.912 360 426V358Z" fill="#540099"/>
<rect x="531" y="243" width="120" height="122" rx="27" fill="#540099"/>
<path d="M160.575 26.0938H154.353C154.24 25.2888 154.008 24.5739 153.657 23.9489C153.307 23.3144 152.857 22.7746 152.308 22.3295C151.759 21.8845 151.124 21.5436 150.404 21.3068C149.694 21.0701 148.922 20.9517 148.089 20.9517C146.583 20.9517 145.272 21.3258 144.154 22.0739C143.037 22.8125 142.171 23.892 141.555 25.3125C140.94 26.7235 140.632 28.4375 140.632 30.4545C140.632 32.5284 140.94 34.2708 141.555 35.6818C142.18 37.0928 143.051 38.1581 144.169 38.8778C145.286 39.5975 146.579 39.9574 148.047 39.9574C148.87 39.9574 149.633 39.8485 150.333 39.6307C151.044 39.4129 151.673 39.0956 152.223 38.679C152.772 38.2528 153.226 37.7367 153.586 37.1307C153.956 36.5246 154.211 35.8333 154.353 35.0568L160.575 35.0852C160.414 36.4205 160.011 37.7083 159.368 38.9489C158.733 40.1799 157.876 41.2831 156.797 42.2585C155.726 43.2244 154.448 43.9915 152.961 44.5597C151.484 45.1184 149.813 45.3977 147.947 45.3977C145.352 45.3977 143.032 44.8106 140.987 43.6364C138.951 42.4621 137.341 40.7623 136.157 38.5369C134.983 36.3116 134.396 33.6174 134.396 30.4545C134.396 27.2822 134.993 24.5833 136.186 22.358C137.379 20.1326 138.998 18.4375 141.044 17.2727C143.089 16.0985 145.39 15.5114 147.947 15.5114C149.633 15.5114 151.195 15.7481 152.635 16.2216C154.083 16.6951 155.367 17.3864 156.484 18.2955C157.601 19.1951 158.511 20.2983 159.211 21.6051C159.922 22.9119 160.376 24.4081 160.575 26.0938ZM174.73 45.4261C172.523 45.4261 170.615 44.9574 169.005 44.0199C167.405 43.0729 166.169 41.7566 165.298 40.071C164.427 38.3759 163.991 36.411 163.991 34.1761C163.991 31.9223 164.427 29.9527 165.298 28.267C166.169 26.572 167.405 25.2557 169.005 24.3182C170.615 23.3712 172.523 22.8977 174.73 22.8977C176.936 22.8977 178.84 23.3712 180.44 24.3182C182.05 25.2557 183.29 26.572 184.162 28.267C185.033 29.9527 185.468 31.9223 185.468 34.1761C185.468 36.411 185.033 38.3759 184.162 40.071C183.29 41.7566 182.05 43.0729 180.44 44.0199C178.84 44.9574 176.936 45.4261 174.73 45.4261ZM174.758 40.7386C175.762 40.7386 176.6 40.4545 177.272 39.8864C177.945 39.3087 178.451 38.5227 178.792 37.5284C179.143 36.5341 179.318 35.4025 179.318 34.1335C179.318 32.8646 179.143 31.733 178.792 30.7386C178.451 29.7443 177.945 28.9583 177.272 28.3807C176.6 27.803 175.762 27.5142 174.758 27.5142C173.745 27.5142 172.893 27.803 172.201 28.3807C171.52 28.9583 171.003 29.7443 170.653 30.7386C170.312 31.733 170.142 32.8646 170.142 34.1335C170.142 35.4025 170.312 36.5341 170.653 37.5284C171.003 38.5227 171.52 39.3087 172.201 39.8864C172.893 40.4545 173.745 40.7386 174.758 40.7386ZM189.403 45V23.1818H195.17V27.0312H195.426C195.88 25.7528 196.638 24.7443 197.699 24.0057C198.759 23.267 200.028 22.8977 201.505 22.8977C203.002 22.8977 204.275 23.2718 205.326 24.0199C206.377 24.7585 207.078 25.7623 207.429 27.0312H207.656C208.101 25.7812 208.906 24.7822 210.071 24.0341C211.245 23.2765 212.632 22.8977 214.233 22.8977C216.269 22.8977 217.921 23.5464 219.19 24.8438C220.468 26.1316 221.108 27.9593 221.108 30.3267V45H215.071V31.5199C215.071 30.3078 214.749 29.3987 214.105 28.7926C213.461 28.1866 212.656 27.8835 211.69 27.8835C210.592 27.8835 209.734 28.2339 209.119 28.9347C208.503 29.6259 208.196 30.5398 208.196 31.6761V45H202.329V31.392C202.329 30.322 202.021 29.4697 201.406 28.8352C200.8 28.2008 200 27.8835 199.005 27.8835C198.333 27.8835 197.727 28.054 197.187 28.3949C196.657 28.7263 196.235 29.1951 195.923 29.8011C195.61 30.3977 195.454 31.0985 195.454 31.9034V45H189.403ZM225.887 53.1818V23.1818H231.853V26.8466H232.123C232.388 26.2595 232.772 25.6629 233.274 25.0568C233.785 24.4413 234.448 23.9299 235.262 23.5227C236.086 23.1061 237.109 22.8977 238.331 22.8977C239.922 22.8977 241.389 23.3144 242.734 24.1477C244.079 24.9716 245.154 26.2169 245.958 27.8835C246.763 29.5407 247.166 31.6193 247.166 34.1193C247.166 36.553 246.773 38.608 245.987 40.2841C245.21 41.9508 244.15 43.215 242.805 44.0767C241.47 44.929 239.974 45.3551 238.316 45.3551C237.142 45.3551 236.143 45.161 235.319 44.7727C234.505 44.3845 233.837 43.8968 233.316 43.3097C232.796 42.7131 232.398 42.1117 232.123 41.5057H231.939V53.1818H225.887ZM231.811 34.0909C231.811 35.3883 231.991 36.5199 232.35 37.4858C232.71 38.4517 233.231 39.2045 233.913 39.7443C234.595 40.2746 235.423 40.5398 236.399 40.5398C237.384 40.5398 238.217 40.2699 238.899 39.7301C239.581 39.1809 240.097 38.4233 240.447 37.4574C240.807 36.482 240.987 35.3598 240.987 34.0909C240.987 32.8314 240.812 31.7235 240.461 30.767C240.111 29.8106 239.595 29.0625 238.913 28.5227C238.231 27.983 237.393 27.7131 236.399 27.7131C235.414 27.7131 234.581 27.9735 233.899 28.4943C233.226 29.0152 232.71 29.7538 232.35 30.7102C231.991 31.6667 231.811 32.7936 231.811 34.0909ZM257.422 45.4119C256.029 45.4119 254.789 45.1705 253.7 44.6875C252.611 44.1951 251.749 43.4706 251.115 42.5142C250.49 41.5483 250.177 40.3456 250.177 38.9062C250.177 37.6941 250.4 36.6761 250.845 35.8523C251.29 35.0284 251.896 34.3655 252.663 33.8636C253.43 33.3617 254.301 32.983 255.277 32.7273C256.261 32.4716 257.294 32.2917 258.373 32.1875C259.642 32.0549 260.665 31.9318 261.441 31.8182C262.218 31.6951 262.781 31.5152 263.132 31.2784C263.482 31.0417 263.657 30.6913 263.657 30.2273V30.142C263.657 29.2424 263.373 28.5464 262.805 28.054C262.246 27.5616 261.451 27.3153 260.419 27.3153C259.33 27.3153 258.463 27.5568 257.819 28.0398C257.175 28.5133 256.749 29.1098 256.541 29.8295L250.944 29.375C251.228 28.0492 251.787 26.9034 252.62 25.9375C253.454 24.9621 254.529 24.214 255.845 23.6932C257.171 23.1629 258.705 22.8977 260.447 22.8977C261.659 22.8977 262.819 23.0398 263.927 23.3239C265.045 23.608 266.034 24.0483 266.896 24.6449C267.767 25.2415 268.454 26.0085 268.956 26.946C269.458 27.8741 269.708 28.9867 269.708 30.2841V45H263.97V41.9744H263.799C263.449 42.6562 262.98 43.2576 262.393 43.7784C261.806 44.2898 261.1 44.6922 260.277 44.9858C259.453 45.2699 258.501 45.4119 257.422 45.4119ZM259.154 41.2358C260.045 41.2358 260.831 41.0606 261.512 40.7102C262.194 40.3504 262.729 39.8674 263.118 39.2614C263.506 38.6553 263.7 37.9687 263.7 37.2017V34.8864C263.511 35.0095 263.25 35.1231 262.919 35.2273C262.597 35.322 262.232 35.4119 261.825 35.4972C261.418 35.5729 261.011 35.6439 260.603 35.7102C260.196 35.767 259.827 35.8191 259.495 35.8665C258.785 35.9706 258.165 36.1364 257.635 36.3636C257.104 36.5909 256.692 36.8987 256.399 37.2869C256.105 37.6657 255.958 38.1392 255.958 38.7074C255.958 39.5312 256.257 40.161 256.853 40.5966C257.459 41.0227 258.226 41.2358 259.154 41.2358ZM274.403 45V23.1818H280.27V26.9886H280.497C280.895 25.6345 281.562 24.6117 282.5 23.9205C283.437 23.2197 284.517 22.8693 285.738 22.8693C286.041 22.8693 286.368 22.8883 286.718 22.9261C287.069 22.964 287.377 23.0161 287.642 23.0824V28.4517C287.358 28.3665 286.965 28.2907 286.463 28.2244C285.961 28.1581 285.502 28.125 285.085 28.125C284.195 28.125 283.399 28.3191 282.699 28.7074C282.007 29.0862 281.458 29.6165 281.051 30.2983C280.653 30.9801 280.454 31.7661 280.454 32.6562V45H274.403ZM299.698 45.4261C297.453 45.4261 295.522 44.9716 293.902 44.0625C292.292 43.1439 291.052 41.8466 290.181 40.1705C289.31 38.4848 288.874 36.4915 288.874 34.1903C288.874 31.946 289.31 29.9763 290.181 28.2812C291.052 26.5862 292.278 25.2652 293.86 24.3182C295.451 23.3712 297.316 22.8977 299.456 22.8977C300.896 22.8977 302.236 23.1297 303.476 23.5938C304.726 24.0483 305.815 24.7348 306.743 25.6534C307.681 26.572 308.41 27.7273 308.931 29.1193C309.452 30.5019 309.712 32.1212 309.712 33.9773V35.6392H291.289V31.8892H304.016C304.016 31.018 303.827 30.2462 303.448 29.5739C303.069 28.9015 302.543 28.3759 301.871 27.9972C301.208 27.6089 300.436 27.4148 299.556 27.4148C298.637 27.4148 297.823 27.6278 297.113 28.054C296.412 28.4706 295.863 29.0341 295.465 29.7443C295.067 30.4451 294.864 31.2263 294.854 32.0881V35.6534C294.854 36.733 295.053 37.6657 295.451 38.4517C295.858 39.2377 296.431 39.8438 297.169 40.2699C297.908 40.696 298.784 40.9091 299.797 40.9091C300.47 40.9091 301.085 40.8144 301.644 40.625C302.203 40.4356 302.681 40.1515 303.078 39.7727C303.476 39.3939 303.779 38.9299 303.988 38.3807L309.584 38.75C309.3 40.0947 308.718 41.2689 307.837 42.2727C306.966 43.267 305.839 44.0436 304.456 44.6023C303.083 45.1515 301.497 45.4261 299.698 45.4261ZM348.7 26.0938H342.478C342.365 25.2888 342.133 24.5739 341.782 23.9489C341.432 23.3144 340.982 22.7746 340.433 22.3295C339.884 21.8845 339.249 21.5436 338.529 21.3068C337.819 21.0701 337.047 20.9517 336.214 20.9517C334.708 20.9517 333.397 21.3258 332.279 22.0739C331.162 22.8125 330.296 23.892 329.68 25.3125C329.065 26.7235 328.757 28.4375 328.757 30.4545C328.757 32.5284 329.065 34.2708 329.68 35.6818C330.305 37.0928 331.176 38.1581 332.294 38.8778C333.411 39.5975 334.704 39.9574 336.172 39.9574C336.995 39.9574 337.758 39.8485 338.458 39.6307C339.169 39.4129 339.798 39.0956 340.348 38.679C340.897 38.2528 341.351 37.7367 341.711 37.1307C342.081 36.5246 342.336 35.8333 342.478 35.0568L348.7 35.0852C348.539 36.4205 348.136 37.7083 347.493 38.9489C346.858 40.1799 346.001 41.2831 344.922 42.2585C343.851 43.2244 342.573 43.9915 341.086 44.5597C339.609 45.1184 337.938 45.3977 336.072 45.3977C333.477 45.3977 331.157 44.8106 329.112 43.6364C327.076 42.4621 325.466 40.7623 324.282 38.5369C323.108 36.3116 322.521 33.6174 322.521 30.4545C322.521 27.2822 323.118 24.5833 324.311 22.358C325.504 20.1326 327.123 18.4375 329.169 17.2727C331.214 16.0985 333.515 15.5114 336.072 15.5114C337.758 15.5114 339.32 15.7481 340.76 16.2216C342.208 16.6951 343.492 17.3864 344.609 18.2955C345.726 19.1951 346.636 20.2983 347.336 21.6051C348.047 22.9119 348.501 24.4081 348.7 26.0938ZM366.988 35.7102V23.1818H373.039V45H367.23V41.0369H367.002C366.51 42.3153 365.691 43.3428 364.545 44.1193C363.409 44.8958 362.021 45.2841 360.383 45.2841C358.925 45.2841 357.642 44.9527 356.534 44.2898C355.426 43.6269 354.559 42.6847 353.934 41.4631C353.319 40.2415 353.006 38.7784 352.997 37.0739V23.1818H359.048V35.9943C359.057 37.2822 359.403 38.3002 360.085 39.0483C360.767 39.7964 361.681 40.1705 362.826 40.1705C363.556 40.1705 364.237 40.0047 364.872 39.6733C365.506 39.3324 366.018 38.8305 366.406 38.1676C366.804 37.5047 366.998 36.6856 366.988 35.7102ZM377.88 45V23.1818H383.746V26.9886H383.973C384.371 25.6345 385.039 24.6117 385.976 23.9205C386.914 23.2197 387.993 22.8693 389.215 22.8693C389.518 22.8693 389.845 22.8883 390.195 22.9261C390.545 22.964 390.853 23.0161 391.118 23.0824V28.4517C390.834 28.3665 390.441 28.2907 389.939 28.2244C389.437 28.1581 388.978 28.125 388.561 28.125C387.671 28.125 386.876 28.3191 386.175 28.7074C385.484 29.0862 384.935 29.6165 384.527 30.2983C384.13 30.9801 383.931 31.7661 383.931 32.6562V45H377.88ZM394.247 45V23.1818H400.113V26.9886H400.341C400.738 25.6345 401.406 24.6117 402.343 23.9205C403.281 23.2197 404.36 22.8693 405.582 22.8693C405.885 22.8693 406.212 22.8883 406.562 22.9261C406.913 22.964 407.22 23.0161 407.485 23.0824V28.4517C407.201 28.3665 406.808 28.2907 406.306 28.2244C405.805 28.1581 405.345 28.125 404.929 28.125C404.038 28.125 403.243 28.3191 402.542 28.7074C401.851 29.0862 401.302 29.6165 400.895 30.2983C400.497 30.9801 400.298 31.7661 400.298 32.6562V45H394.247ZM419.542 45.4261C417.297 45.4261 415.365 44.9716 413.746 44.0625C412.136 43.1439 410.896 41.8466 410.025 40.1705C409.153 38.4848 408.718 36.4915 408.718 34.1903C408.718 31.946 409.153 29.9763 410.025 28.2812C410.896 26.5862 412.122 25.2652 413.703 24.3182C415.294 23.3712 417.16 22.8977 419.3 22.8977C420.739 22.8977 422.079 23.1297 423.32 23.5938C424.57 24.0483 425.659 24.7348 426.587 25.6534C427.525 26.572 428.254 27.7273 428.775 29.1193C429.295 30.5019 429.556 32.1212 429.556 33.9773V35.6392H411.132V31.8892H423.86C423.86 31.018 423.67 30.2462 423.292 29.5739C422.913 28.9015 422.387 28.3759 421.715 27.9972C421.052 27.6089 420.28 27.4148 419.4 27.4148C418.481 27.4148 417.667 27.6278 416.956 28.054C416.256 28.4706 415.706 29.0341 415.309 29.7443C414.911 30.4451 414.707 31.2263 414.698 32.0881V35.6534C414.698 36.733 414.897 37.6657 415.294 38.4517C415.702 39.2377 416.275 39.8438 417.013 40.2699C417.752 40.696 418.628 40.9091 419.641 40.9091C420.313 40.9091 420.929 40.8144 421.488 40.625C422.046 40.4356 422.525 40.1515 422.922 39.7727C423.32 39.3939 423.623 38.9299 423.831 38.3807L429.428 38.75C429.144 40.0947 428.561 41.2689 427.681 42.2727C426.81 43.267 425.683 44.0436 424.3 44.6023C422.927 45.1515 421.341 45.4261 419.542 45.4261ZM439.556 32.3864V45H433.505V23.1818H439.272V27.0312H439.527C440.01 25.7623 440.82 24.7585 441.956 24.0199C443.093 23.2718 444.471 22.8977 446.09 22.8977C447.605 22.8977 448.926 23.2292 450.053 23.892C451.18 24.5549 452.056 25.5019 452.681 26.733C453.306 27.9545 453.618 29.4129 453.618 31.108V45H447.567V32.1875C447.577 30.8523 447.236 29.8106 446.544 29.0625C445.853 28.3049 444.901 27.9261 443.689 27.9261C442.875 27.9261 442.155 28.1013 441.53 28.4517C440.915 28.8021 440.432 29.3134 440.081 29.9858C439.74 30.6487 439.565 31.4489 439.556 32.3864ZM469.993 23.1818V27.7273H456.853V23.1818H469.993ZM459.836 17.9545H465.887V38.2955C465.887 38.8542 465.973 39.2898 466.143 39.6023C466.314 39.9053 466.55 40.1184 466.853 40.2415C467.166 40.3646 467.526 40.4261 467.933 40.4261C468.217 40.4261 468.501 40.4025 468.785 40.3551C469.069 40.2983 469.287 40.2557 469.439 40.2273L470.39 44.7301C470.087 44.8248 469.661 44.9337 469.112 45.0568C468.563 45.1894 467.895 45.2699 467.109 45.2983C465.651 45.3551 464.372 45.161 463.274 44.7159C462.185 44.2708 461.337 43.5795 460.731 42.642C460.125 41.7045 459.827 40.5208 459.836 39.0909V17.9545ZM483.306 45V15.9091H489.456V27.9119H501.942V15.9091H508.078V45H501.942V32.983H489.456V45H483.306ZM522.979 45.4261C520.735 45.4261 518.803 44.9716 517.184 44.0625C515.574 43.1439 514.333 41.8466 513.462 40.1705C512.591 38.4848 512.155 36.4915 512.155 34.1903C512.155 31.946 512.591 29.9763 513.462 28.2812C514.333 26.5862 515.56 25.2652 517.141 24.3182C518.732 23.3712 520.597 22.8977 522.738 22.8977C524.177 22.8977 525.517 23.1297 526.757 23.5938C528.007 24.0483 529.096 24.7348 530.025 25.6534C530.962 26.572 531.691 27.7273 532.212 29.1193C532.733 30.5019 532.993 32.1212 532.993 33.9773V35.6392H514.57V31.8892H527.297C527.297 31.018 527.108 30.2462 526.729 29.5739C526.35 28.9015 525.825 28.3759 525.152 27.9972C524.489 27.6089 523.718 27.4148 522.837 27.4148C521.918 27.4148 521.104 27.6278 520.394 28.054C519.693 28.4706 519.144 29.0341 518.746 29.7443C518.348 30.4451 518.145 31.2263 518.135 32.0881V35.6534C518.135 36.733 518.334 37.6657 518.732 38.4517C519.139 39.2377 519.712 39.8438 520.451 40.2699C521.189 40.696 522.065 40.9091 523.078 40.9091C523.751 40.9091 524.366 40.8144 524.925 40.625C525.484 40.4356 525.962 40.1515 526.36 39.7727C526.757 39.3939 527.06 38.9299 527.269 38.3807L532.865 38.75C532.581 40.0947 531.999 41.2689 531.118 42.2727C530.247 43.267 529.12 44.0436 527.738 44.6023C526.364 45.1515 524.778 45.4261 522.979 45.4261ZM543.164 45.4119C541.772 45.4119 540.531 45.1705 539.442 44.6875C538.353 44.1951 537.491 43.4706 536.857 42.5142C536.232 41.5483 535.919 40.3456 535.919 38.9062C535.919 37.6941 536.142 36.6761 536.587 35.8523C537.032 35.0284 537.638 34.3655 538.405 33.8636C539.172 33.3617 540.043 32.983 541.019 32.7273C542.004 32.4716 543.036 32.2917 544.115 32.1875C545.384 32.0549 546.407 31.9318 547.184 31.8182C547.96 31.6951 548.524 31.5152 548.874 31.2784C549.224 31.0417 549.4 30.6913 549.4 30.2273V30.142C549.4 29.2424 549.115 28.5464 548.547 28.054C547.989 27.5616 547.193 27.3153 546.161 27.3153C545.072 27.3153 544.205 27.5568 543.561 28.0398C542.917 28.5133 542.491 29.1098 542.283 29.8295L536.686 29.375C536.971 28.0492 537.529 26.9034 538.363 25.9375C539.196 24.9621 540.271 24.214 541.587 23.6932C542.913 23.1629 544.447 22.8977 546.189 22.8977C547.401 22.8977 548.561 23.0398 549.669 23.3239C550.787 23.608 551.776 24.0483 552.638 24.6449C553.509 25.2415 554.196 26.0085 554.698 26.946C555.2 27.8741 555.451 28.9867 555.451 30.2841V45H549.712V41.9744H549.542C549.191 42.6562 548.722 43.2576 548.135 43.7784C547.548 44.2898 546.843 44.6922 546.019 44.9858C545.195 45.2699 544.243 45.4119 543.164 45.4119ZM544.897 41.2358C545.787 41.2358 546.573 41.0606 547.255 40.7102C547.936 40.3504 548.471 39.8674 548.86 39.2614C549.248 38.6553 549.442 37.9687 549.442 37.2017V34.8864C549.253 35.0095 548.992 35.1231 548.661 35.2273C548.339 35.322 547.974 35.4119 547.567 35.4972C547.16 35.5729 546.753 35.6439 546.346 35.7102C545.938 35.767 545.569 35.8191 545.238 35.8665C544.527 35.9706 543.907 36.1364 543.377 36.3636C542.846 36.5909 542.435 36.8987 542.141 37.2869C541.847 37.6657 541.701 38.1392 541.701 38.7074C541.701 39.5312 541.999 40.161 542.596 40.5966C543.202 41.0227 543.969 41.2358 544.897 41.2358ZM568.185 45.3551C566.528 45.3551 565.027 44.929 563.682 44.0767C562.347 43.215 561.286 41.9508 560.5 40.2841C559.724 38.608 559.336 36.553 559.336 34.1193C559.336 31.6193 559.738 29.5407 560.543 27.8835C561.348 26.2169 562.418 24.9716 563.753 24.1477C565.098 23.3144 566.57 22.8977 568.171 22.8977C569.392 22.8977 570.41 23.1061 571.225 23.5227C572.049 23.9299 572.712 24.4413 573.213 25.0568C573.725 25.6629 574.113 26.2595 574.378 26.8466H574.563V15.9091H580.6V45H574.634V41.5057H574.378C574.094 42.1117 573.692 42.7131 573.171 43.3097C572.659 43.8968 571.992 44.3845 571.168 44.7727C570.354 45.161 569.359 45.3551 568.185 45.3551ZM570.103 40.5398C571.078 40.5398 571.902 40.2746 572.574 39.7443C573.256 39.2045 573.777 38.4517 574.137 37.4858C574.506 36.5199 574.691 35.3883 574.691 34.0909C574.691 32.7936 574.511 31.6667 574.151 30.7102C573.791 29.7538 573.27 29.0152 572.588 28.4943C571.907 27.9735 571.078 27.7131 570.103 27.7131C569.108 27.7131 568.27 27.983 567.588 28.5227C566.907 29.0625 566.391 29.8106 566.04 30.767C565.69 31.7235 565.515 32.8314 565.515 34.0909C565.515 35.3598 565.69 36.482 566.04 37.4574C566.4 38.4233 566.916 39.1809 567.588 39.7301C568.27 40.2699 569.108 40.5398 570.103 40.5398ZM603.728 29.4034L598.189 29.7443C598.094 29.2708 597.89 28.8447 597.578 28.4659C597.265 28.0777 596.853 27.7699 596.342 27.5426C595.84 27.3059 595.239 27.1875 594.538 27.1875C593.6 27.1875 592.81 27.3864 592.166 27.7841C591.522 28.1723 591.2 28.6932 591.2 29.3466C591.2 29.8674 591.408 30.3078 591.825 30.6676C592.242 31.0275 592.957 31.3163 593.97 31.5341L597.919 32.3295C600.04 32.7652 601.621 33.4659 602.663 34.4318C603.705 35.3977 604.225 36.6667 604.225 38.2386C604.225 39.6686 603.804 40.9233 602.961 42.0028C602.128 43.0824 600.982 43.9252 599.524 44.5312C598.075 45.1278 596.404 45.4261 594.51 45.4261C591.621 45.4261 589.32 44.8248 587.606 43.6222C585.902 42.41 584.903 40.7623 584.609 38.679L590.561 38.3665C590.741 39.2472 591.176 39.9195 591.868 40.3835C592.559 40.8381 593.444 41.0653 594.524 41.0653C595.584 41.0653 596.437 40.8617 597.081 40.4545C597.734 40.0379 598.065 39.5028 598.075 38.8494C598.065 38.3002 597.833 37.8504 597.379 37.5C596.924 37.1402 596.224 36.8655 595.277 36.6761L591.498 35.9233C589.368 35.4972 587.781 34.7585 586.74 33.7074C585.708 32.6562 585.191 31.3163 585.191 29.6875C585.191 28.286 585.57 27.0786 586.328 26.0653C587.095 25.0521 588.17 24.2708 589.552 23.7216C590.944 23.1723 592.573 22.8977 594.439 22.8977C597.194 22.8977 599.363 23.4801 600.944 24.6449C602.535 25.8097 603.463 27.3958 603.728 29.4034Z" fill="white"/>
<path d="M223.457 602H216.866L226.908 572.909H234.835L244.863 602H238.272L230.985 579.557H230.758L223.457 602ZM223.045 590.565H238.613V595.366H223.045V590.565ZM255.275 602.355C253.618 602.355 252.117 601.929 250.772 601.077C249.437 600.215 248.376 598.951 247.59 597.284C246.814 595.608 246.425 593.553 246.425 591.119C246.425 588.619 246.828 586.541 247.633 584.884C248.438 583.217 249.508 581.972 250.843 581.148C252.188 580.314 253.66 579.898 255.261 579.898C256.482 579.898 257.5 580.106 258.315 580.523C259.138 580.93 259.801 581.441 260.303 582.057C260.815 582.663 261.203 583.259 261.468 583.847H261.653V572.909H267.69V602H261.724V598.506H261.468C261.184 599.112 260.781 599.713 260.261 600.31C259.749 600.897 259.082 601.384 258.258 601.773C257.443 602.161 256.449 602.355 255.275 602.355ZM257.192 597.54C258.168 597.54 258.992 597.275 259.664 596.744C260.346 596.205 260.867 595.452 261.227 594.486C261.596 593.52 261.781 592.388 261.781 591.091C261.781 589.794 261.601 588.667 261.241 587.71C260.881 586.754 260.36 586.015 259.678 585.494C258.996 584.973 258.168 584.713 257.192 584.713C256.198 584.713 255.36 584.983 254.678 585.523C253.996 586.062 253.48 586.811 253.13 587.767C252.78 588.723 252.604 589.831 252.604 591.091C252.604 592.36 252.78 593.482 253.13 594.457C253.49 595.423 254.006 596.181 254.678 596.73C255.36 597.27 256.198 597.54 257.192 597.54ZM280.705 602.355C279.047 602.355 277.546 601.929 276.202 601.077C274.866 600.215 273.806 598.951 273.02 597.284C272.243 595.608 271.855 593.553 271.855 591.119C271.855 588.619 272.258 586.541 273.062 584.884C273.867 583.217 274.938 581.972 276.273 581.148C277.617 580.314 279.09 579.898 280.69 579.898C281.912 579.898 282.93 580.106 283.744 580.523C284.568 580.93 285.231 581.441 285.733 582.057C286.244 582.663 286.633 583.259 286.898 583.847H287.082V572.909H293.119V602H287.153V598.506H286.898C286.614 599.112 286.211 599.713 285.69 600.31C285.179 600.897 284.511 601.384 283.688 601.773C282.873 602.161 281.879 602.355 280.705 602.355ZM282.622 597.54C283.598 597.54 284.421 597.275 285.094 596.744C285.776 596.205 286.296 595.452 286.656 594.486C287.026 593.52 287.21 592.388 287.21 591.091C287.21 589.794 287.03 588.667 286.67 587.71C286.311 586.754 285.79 586.015 285.108 585.494C284.426 584.973 283.598 584.713 282.622 584.713C281.628 584.713 280.79 584.983 280.108 585.523C279.426 586.062 278.91 586.811 278.56 587.767C278.209 588.723 278.034 589.831 278.034 591.091C278.034 592.36 278.209 593.482 278.56 594.457C278.92 595.423 279.436 596.181 280.108 596.73C280.79 597.27 281.628 597.54 282.622 597.54ZM318.957 580.182V584.727H305.818V580.182H318.957ZM308.801 574.955H314.852V595.295C314.852 595.854 314.938 596.29 315.108 596.602C315.278 596.905 315.515 597.118 315.818 597.241C316.131 597.365 316.491 597.426 316.898 597.426C317.182 597.426 317.466 597.402 317.75 597.355C318.034 597.298 318.252 597.256 318.403 597.227L319.355 601.73C319.052 601.825 318.626 601.934 318.077 602.057C317.527 602.189 316.86 602.27 316.074 602.298C314.616 602.355 313.337 602.161 312.239 601.716C311.15 601.271 310.302 600.58 309.696 599.642C309.09 598.705 308.792 597.521 308.801 596.091V574.955ZM332.523 602.426C330.316 602.426 328.408 601.957 326.798 601.02C325.198 600.073 323.962 598.757 323.091 597.071C322.22 595.376 321.784 593.411 321.784 591.176C321.784 588.922 322.22 586.953 323.091 585.267C323.962 583.572 325.198 582.256 326.798 581.318C328.408 580.371 330.316 579.898 332.523 579.898C334.729 579.898 336.633 580.371 338.233 581.318C339.843 582.256 341.083 583.572 341.955 585.267C342.826 586.953 343.261 588.922 343.261 591.176C343.261 593.411 342.826 595.376 341.955 597.071C341.083 598.757 339.843 600.073 338.233 601.02C336.633 601.957 334.729 602.426 332.523 602.426ZM332.551 597.739C333.555 597.739 334.393 597.455 335.065 596.886C335.738 596.309 336.244 595.523 336.585 594.528C336.936 593.534 337.111 592.402 337.111 591.134C337.111 589.865 336.936 588.733 336.585 587.739C336.244 586.744 335.738 585.958 335.065 585.381C334.393 584.803 333.555 584.514 332.551 584.514C331.538 584.514 330.686 584.803 329.994 585.381C329.313 585.958 328.796 586.744 328.446 587.739C328.105 588.733 327.935 589.865 327.935 591.134C327.935 592.402 328.105 593.534 328.446 594.528C328.796 595.523 329.313 596.309 329.994 596.886C330.686 597.455 331.538 597.739 332.551 597.739ZM380.9 572.909V602H375.587L362.931 583.69H362.718V602H356.567V572.909H361.965L374.522 591.205H374.778V572.909H380.9ZM395.811 602.426C393.567 602.426 391.635 601.972 390.016 601.062C388.406 600.144 387.165 598.847 386.294 597.17C385.423 595.485 384.987 593.491 384.987 591.19C384.987 588.946 385.423 586.976 386.294 585.281C387.165 583.586 388.392 582.265 389.973 581.318C391.564 580.371 393.429 579.898 395.57 579.898C397.009 579.898 398.349 580.13 399.589 580.594C400.839 581.048 401.929 581.735 402.857 582.653C403.794 583.572 404.523 584.727 405.044 586.119C405.565 587.502 405.825 589.121 405.825 590.977V592.639H387.402V588.889H400.129C400.129 588.018 399.94 587.246 399.561 586.574C399.182 585.902 398.657 585.376 397.984 584.997C397.321 584.609 396.55 584.415 395.669 584.415C394.75 584.415 393.936 584.628 393.226 585.054C392.525 585.471 391.976 586.034 391.578 586.744C391.18 587.445 390.977 588.226 390.967 589.088V592.653C390.967 593.733 391.166 594.666 391.564 595.452C391.971 596.238 392.544 596.844 393.283 597.27C394.021 597.696 394.897 597.909 395.911 597.909C396.583 597.909 397.198 597.814 397.757 597.625C398.316 597.436 398.794 597.152 399.192 596.773C399.589 596.394 399.893 595.93 400.101 595.381L405.697 595.75C405.413 597.095 404.831 598.269 403.95 599.273C403.079 600.267 401.952 601.044 400.57 601.602C399.196 602.152 397.61 602.426 395.811 602.426ZM413.922 602L407.984 580.182H414.107L417.487 594.841H417.686L421.209 580.182H427.217L430.797 594.756H430.982L434.305 580.182H440.413L434.49 602H428.084L424.334 588.278H424.064L420.314 602H413.922ZM453.013 602V572.909H464.49C466.696 572.909 468.576 573.33 470.129 574.173C471.682 575.007 472.866 576.167 473.68 577.653C474.504 579.131 474.916 580.835 474.916 582.767C474.916 584.699 474.5 586.403 473.666 587.881C472.833 589.358 471.625 590.509 470.044 591.332C468.472 592.156 466.569 592.568 464.334 592.568H457.018V587.639H463.339C464.523 587.639 465.499 587.436 466.266 587.028C467.042 586.612 467.62 586.039 467.999 585.31C468.387 584.571 468.581 583.723 468.581 582.767C468.581 581.801 468.387 580.958 467.999 580.239C467.62 579.509 467.042 578.946 466.266 578.548C465.489 578.141 464.504 577.938 463.311 577.938H459.163V602H453.013ZM478.798 602V580.182H484.849V602H478.798ZM481.837 577.369C480.938 577.369 480.166 577.071 479.522 576.474C478.888 575.868 478.57 575.144 478.57 574.301C478.57 573.468 478.888 572.753 479.522 572.156C480.166 571.55 480.938 571.247 481.837 571.247C482.737 571.247 483.504 571.55 484.138 572.156C484.782 572.753 485.104 573.468 485.104 574.301C485.104 575.144 484.782 575.868 484.138 576.474C483.504 577.071 482.737 577.369 481.837 577.369ZM495.747 572.909V602H489.696V572.909H495.747ZM510.538 602.426C508.293 602.426 506.362 601.972 504.742 601.062C503.132 600.144 501.892 598.847 501.021 597.17C500.149 595.485 499.714 593.491 499.714 591.19C499.714 588.946 500.149 586.976 501.021 585.281C501.892 583.586 503.118 582.265 504.7 581.318C506.29 580.371 508.156 579.898 510.296 579.898C511.736 579.898 513.076 580.13 514.316 580.594C515.566 581.048 516.655 581.735 517.583 582.653C518.521 583.572 519.25 584.727 519.771 586.119C520.291 587.502 520.552 589.121 520.552 590.977V592.639H502.129V588.889H514.856C514.856 588.018 514.666 587.246 514.288 586.574C513.909 585.902 513.383 585.376 512.711 584.997C512.048 584.609 511.276 584.415 510.396 584.415C509.477 584.415 508.663 584.628 507.952 585.054C507.252 585.471 506.702 586.034 506.305 586.744C505.907 587.445 505.703 588.226 505.694 589.088V592.653C505.694 593.733 505.893 594.666 506.29 595.452C506.698 596.238 507.271 596.844 508.009 597.27C508.748 597.696 509.624 597.909 510.637 597.909C511.309 597.909 511.925 597.814 512.484 597.625C513.042 597.436 513.521 597.152 513.918 596.773C514.316 596.394 514.619 595.93 514.827 595.381L520.424 595.75C520.14 597.095 519.558 598.269 518.677 599.273C517.806 600.267 516.679 601.044 515.296 601.602C513.923 602.152 512.337 602.426 510.538 602.426Z" fill="white"/>
<path d="M195.962 1449H185.65V1419.91H196.047C198.973 1419.91 201.492 1420.49 203.604 1421.66C205.716 1422.81 207.34 1424.47 208.476 1426.64C209.622 1428.81 210.195 1431.41 210.195 1434.43C210.195 1437.46 209.622 1440.06 208.476 1442.24C207.34 1444.42 205.706 1446.09 203.576 1447.25C201.454 1448.42 198.917 1449 195.962 1449ZM191.8 1443.73H195.706C197.525 1443.73 199.054 1443.41 200.294 1442.76C201.544 1442.11 202.482 1441.1 203.107 1439.74C203.741 1438.37 204.059 1436.59 204.059 1434.43C204.059 1432.28 203.741 1430.52 203.107 1429.16C202.482 1427.79 201.549 1426.79 200.309 1426.14C199.068 1425.5 197.539 1425.18 195.721 1425.18H191.8V1443.73ZM228.629 1439.71V1427.18H234.68V1449H228.87V1445.04H228.643C228.151 1446.32 227.332 1447.34 226.186 1448.12C225.049 1448.9 223.662 1449.28 222.024 1449.28C220.565 1449.28 219.282 1448.95 218.174 1448.29C217.066 1447.63 216.2 1446.68 215.575 1445.46C214.959 1444.24 214.647 1442.78 214.637 1441.07V1427.18H220.689V1439.99C220.698 1441.28 221.044 1442.3 221.725 1443.05C222.407 1443.8 223.321 1444.17 224.467 1444.17C225.196 1444.17 225.878 1444 226.512 1443.67C227.147 1443.33 227.658 1442.83 228.047 1442.17C228.444 1441.5 228.638 1440.69 228.629 1439.71ZM239.52 1449V1427.18H245.287V1431.03H245.543C245.998 1429.75 246.755 1428.74 247.816 1428.01C248.876 1427.27 250.145 1426.9 251.623 1426.9C253.119 1426.9 254.392 1427.27 255.444 1428.02C256.495 1428.76 257.195 1429.76 257.546 1431.03H257.773C258.218 1429.78 259.023 1428.78 260.188 1428.03C261.362 1427.28 262.749 1426.9 264.35 1426.9C266.386 1426.9 268.038 1427.55 269.307 1428.84C270.586 1430.13 271.225 1431.96 271.225 1434.33V1449H265.188V1435.52C265.188 1434.31 264.866 1433.4 264.222 1432.79C263.578 1432.19 262.773 1431.88 261.807 1431.88C260.709 1431.88 259.852 1432.23 259.236 1432.93C258.621 1433.63 258.313 1434.54 258.313 1435.68V1449H252.446V1435.39C252.446 1434.32 252.139 1433.47 251.523 1432.84C250.917 1432.2 250.117 1431.88 249.123 1431.88C248.45 1431.88 247.844 1432.05 247.304 1432.39C246.774 1432.73 246.353 1433.2 246.04 1433.8C245.728 1434.4 245.571 1435.1 245.571 1435.9V1449H239.52ZM276.005 1457.18V1427.18H281.971V1430.85H282.24C282.506 1430.26 282.889 1429.66 283.391 1429.06C283.902 1428.44 284.565 1427.93 285.38 1427.52C286.203 1427.11 287.226 1426.9 288.448 1426.9C290.039 1426.9 291.507 1427.31 292.851 1428.15C294.196 1428.97 295.271 1430.22 296.076 1431.88C296.881 1433.54 297.283 1435.62 297.283 1438.12C297.283 1440.55 296.89 1442.61 296.104 1444.28C295.328 1445.95 294.267 1447.21 292.922 1448.08C291.587 1448.93 290.091 1449.36 288.434 1449.36C287.259 1449.36 286.26 1449.16 285.436 1448.77C284.622 1448.38 283.954 1447.9 283.434 1447.31C282.913 1446.71 282.515 1446.11 282.24 1445.51H282.056V1457.18H276.005ZM281.928 1438.09C281.928 1439.39 282.108 1440.52 282.468 1441.49C282.828 1442.45 283.348 1443.2 284.03 1443.74C284.712 1444.27 285.541 1444.54 286.516 1444.54C287.501 1444.54 288.334 1444.27 289.016 1443.73C289.698 1443.18 290.214 1442.42 290.564 1441.46C290.924 1440.48 291.104 1439.36 291.104 1438.09C291.104 1436.83 290.929 1435.72 290.578 1434.77C290.228 1433.81 289.712 1433.06 289.03 1432.52C288.348 1431.98 287.51 1431.71 286.516 1431.71C285.531 1431.71 284.698 1431.97 284.016 1432.49C283.344 1433.02 282.828 1433.75 282.468 1434.71C282.108 1435.67 281.928 1436.79 281.928 1438.09ZM310.689 1449V1419.91H322.166C324.363 1419.91 326.238 1420.3 327.791 1421.09C329.353 1421.86 330.542 1422.97 331.356 1424.4C332.18 1425.82 332.592 1427.49 332.592 1429.41C332.592 1431.34 332.175 1433.01 331.342 1434.4C330.509 1435.78 329.301 1436.84 327.72 1437.58C326.148 1438.32 324.244 1438.69 322.01 1438.69H314.325V1433.74H321.015C322.19 1433.74 323.165 1433.58 323.941 1433.26C324.718 1432.94 325.296 1432.46 325.674 1431.81C326.063 1431.17 326.257 1430.37 326.257 1429.41C326.257 1428.45 326.063 1427.63 325.674 1426.97C325.296 1426.31 324.713 1425.8 323.927 1425.46C323.151 1425.11 322.171 1424.94 320.987 1424.94H316.839V1449H310.689ZM326.399 1435.76L333.629 1449H326.839L319.765 1435.76H326.399ZM346.417 1449.43C344.172 1449.43 342.24 1448.97 340.621 1448.06C339.011 1447.14 337.771 1445.85 336.9 1444.17C336.028 1442.48 335.593 1440.49 335.593 1438.19C335.593 1435.95 336.028 1433.98 336.9 1432.28C337.771 1430.59 338.997 1429.27 340.578 1428.32C342.169 1427.37 344.035 1426.9 346.175 1426.9C347.614 1426.9 348.954 1427.13 350.195 1427.59C351.445 1428.05 352.534 1428.73 353.462 1429.65C354.4 1430.57 355.129 1431.73 355.65 1433.12C356.17 1434.5 356.431 1436.12 356.431 1437.98V1439.64H338.007V1435.89H350.735C350.735 1435.02 350.545 1434.25 350.167 1433.57C349.788 1432.9 349.262 1432.38 348.59 1432C347.927 1431.61 347.155 1431.41 346.275 1431.41C345.356 1431.41 344.542 1431.63 343.831 1432.05C343.131 1432.47 342.581 1433.03 342.184 1433.74C341.786 1434.45 341.582 1435.23 341.573 1436.09V1439.65C341.573 1440.73 341.772 1441.67 342.169 1442.45C342.577 1443.24 343.15 1443.84 343.888 1444.27C344.627 1444.7 345.503 1444.91 346.516 1444.91C347.188 1444.91 347.804 1444.81 348.363 1444.62C348.921 1444.44 349.4 1444.15 349.797 1443.77C350.195 1443.39 350.498 1442.93 350.706 1442.38L356.303 1442.75C356.019 1444.09 355.436 1445.27 354.556 1446.27C353.685 1447.27 352.558 1448.04 351.175 1448.6C349.802 1449.15 348.216 1449.43 346.417 1449.43ZM378.533 1433.4L372.993 1433.74C372.899 1433.27 372.695 1432.84 372.382 1432.47C372.07 1432.08 371.658 1431.77 371.147 1431.54C370.645 1431.31 370.043 1431.19 369.343 1431.19C368.405 1431.19 367.614 1431.39 366.971 1431.78C366.327 1432.17 366.005 1432.69 366.005 1433.35C366.005 1433.87 366.213 1434.31 366.63 1434.67C367.046 1435.03 367.761 1435.32 368.775 1435.53L372.723 1436.33C374.845 1436.77 376.426 1437.47 377.468 1438.43C378.509 1439.4 379.03 1440.67 379.03 1442.24C379.03 1443.67 378.609 1444.92 377.766 1446C376.933 1447.08 375.787 1447.93 374.328 1448.53C372.88 1449.13 371.208 1449.43 369.314 1449.43C366.426 1449.43 364.125 1448.82 362.411 1447.62C360.706 1446.41 359.707 1444.76 359.414 1442.68L365.365 1442.37C365.545 1443.25 365.981 1443.92 366.672 1444.38C367.364 1444.84 368.249 1445.07 369.328 1445.07C370.389 1445.07 371.241 1444.86 371.885 1444.45C372.539 1444.04 372.87 1443.5 372.88 1442.85C372.87 1442.3 372.638 1441.85 372.184 1441.5C371.729 1441.14 371.028 1440.87 370.081 1440.68L366.303 1439.92C364.172 1439.5 362.586 1438.76 361.544 1437.71C360.512 1436.66 359.996 1435.32 359.996 1433.69C359.996 1432.29 360.375 1431.08 361.132 1430.07C361.9 1429.05 362.974 1428.27 364.357 1427.72C365.749 1427.17 367.378 1426.9 369.243 1426.9C371.999 1426.9 374.167 1427.48 375.749 1428.64C377.34 1429.81 378.268 1431.4 378.533 1433.4ZM394.446 1427.18V1431.73H381.306V1427.18H394.446ZM384.289 1421.95H390.341V1442.3C390.341 1442.85 390.426 1443.29 390.596 1443.6C390.767 1443.91 391.003 1444.12 391.306 1444.24C391.619 1444.36 391.979 1444.43 392.386 1444.43C392.67 1444.43 392.954 1444.4 393.238 1444.36C393.522 1444.3 393.74 1444.26 393.892 1444.23L394.843 1448.73C394.54 1448.82 394.114 1448.93 393.565 1449.06C393.016 1449.19 392.348 1449.27 391.562 1449.3C390.104 1449.36 388.825 1449.16 387.727 1448.72C386.638 1448.27 385.79 1447.58 385.184 1446.64C384.578 1445.7 384.28 1444.52 384.289 1443.09V1421.95ZM417.503 1449.43C415.297 1449.43 413.389 1448.96 411.779 1448.02C410.178 1447.07 408.943 1445.76 408.071 1444.07C407.2 1442.38 406.765 1440.41 406.765 1438.18C406.765 1435.92 407.2 1433.95 408.071 1432.27C408.943 1430.57 410.178 1429.26 411.779 1428.32C413.389 1427.37 415.297 1426.9 417.503 1426.9C419.71 1426.9 421.613 1427.37 423.213 1428.32C424.823 1429.26 426.064 1430.57 426.935 1432.27C427.806 1433.95 428.242 1435.92 428.242 1438.18C428.242 1440.41 427.806 1442.38 426.935 1444.07C426.064 1445.76 424.823 1447.07 423.213 1448.02C421.613 1448.96 419.71 1449.43 417.503 1449.43ZM417.532 1444.74C418.535 1444.74 419.373 1444.45 420.046 1443.89C420.718 1443.31 421.225 1442.52 421.566 1441.53C421.916 1440.53 422.091 1439.4 422.091 1438.13C422.091 1436.86 421.916 1435.73 421.566 1434.74C421.225 1433.74 420.718 1432.96 420.046 1432.38C419.373 1431.8 418.535 1431.51 417.532 1431.51C416.518 1431.51 415.666 1431.8 414.975 1432.38C414.293 1432.96 413.777 1433.74 413.426 1434.74C413.086 1435.73 412.915 1436.86 412.915 1438.13C412.915 1439.4 413.086 1440.53 413.426 1441.53C413.777 1442.52 414.293 1443.31 414.975 1443.89C415.666 1444.45 416.518 1444.74 417.532 1444.74ZM443.909 1427.18V1431.73H430.444V1427.18H443.909ZM433.526 1449V1425.61C433.526 1424.02 433.834 1422.71 434.449 1421.67C435.074 1420.63 435.926 1419.85 437.006 1419.33C438.086 1418.81 439.312 1418.55 440.685 1418.55C441.613 1418.55 442.461 1418.62 443.228 1418.76C444.004 1418.9 444.582 1419.03 444.961 1419.14L443.881 1423.69C443.644 1423.61 443.351 1423.54 443 1423.47C442.659 1423.41 442.309 1423.38 441.949 1423.38C441.059 1423.38 440.439 1423.58 440.088 1424C439.738 1424.41 439.563 1424.98 439.563 1425.72V1449H433.526ZM456.978 1449V1419.91H468.455C470.661 1419.91 472.541 1420.33 474.094 1421.17C475.647 1422.01 476.831 1423.17 477.645 1424.65C478.469 1426.13 478.881 1427.84 478.881 1429.77C478.881 1431.7 478.464 1433.4 477.631 1434.88C476.798 1436.36 475.59 1437.51 474.009 1438.33C472.437 1439.16 470.533 1439.57 468.299 1439.57H460.983V1434.64H467.304C468.488 1434.64 469.463 1434.44 470.23 1434.03C471.007 1433.61 471.585 1433.04 471.963 1432.31C472.352 1431.57 472.546 1430.72 472.546 1429.77C472.546 1428.8 472.352 1427.96 471.963 1427.24C471.585 1426.51 471.007 1425.95 470.23 1425.55C469.454 1425.14 468.469 1424.94 467.276 1424.94H463.128V1449H456.978ZM482.762 1449V1427.18H488.814V1449H482.762ZM485.802 1424.37C484.903 1424.37 484.131 1424.07 483.487 1423.47C482.852 1422.87 482.535 1422.14 482.535 1421.3C482.535 1420.47 482.852 1419.75 483.487 1419.16C484.131 1418.55 484.903 1418.25 485.802 1418.25C486.702 1418.25 487.469 1418.55 488.103 1419.16C488.747 1419.75 489.069 1420.47 489.069 1421.3C489.069 1422.14 488.747 1422.87 488.103 1423.47C487.469 1424.07 486.702 1424.37 485.802 1424.37ZM499.712 1419.91V1449H493.661V1419.91H499.712ZM514.502 1449.43C512.258 1449.43 510.326 1448.97 508.707 1448.06C507.097 1447.14 505.857 1445.85 504.985 1444.17C504.114 1442.48 503.679 1440.49 503.679 1438.19C503.679 1435.95 504.114 1433.98 504.985 1432.28C505.857 1430.59 507.083 1429.27 508.664 1428.32C510.255 1427.37 512.121 1426.9 514.261 1426.9C515.7 1426.9 517.04 1427.13 518.281 1427.59C519.531 1428.05 520.62 1428.73 521.548 1429.65C522.485 1430.57 523.215 1431.73 523.735 1433.12C524.256 1434.5 524.517 1436.12 524.517 1437.98V1439.64H506.093V1435.89H518.821C518.821 1435.02 518.631 1434.25 518.252 1433.57C517.874 1432.9 517.348 1432.38 516.676 1432C516.013 1431.61 515.241 1431.41 514.36 1431.41C513.442 1431.41 512.627 1431.63 511.917 1432.05C511.217 1432.47 510.667 1433.03 510.27 1433.74C509.872 1434.45 509.668 1435.23 509.659 1436.09V1439.65C509.659 1440.73 509.858 1441.67 510.255 1442.45C510.663 1443.24 511.235 1443.84 511.974 1444.27C512.713 1444.7 513.589 1444.91 514.602 1444.91C515.274 1444.91 515.89 1444.81 516.449 1444.62C517.007 1444.44 517.485 1444.15 517.883 1443.77C518.281 1443.39 518.584 1442.93 518.792 1442.38L524.389 1442.75C524.105 1444.09 523.522 1445.27 522.642 1446.27C521.77 1447.27 520.644 1448.04 519.261 1448.6C517.888 1449.15 516.302 1449.43 514.502 1449.43ZM550.323 1419.91V1449H544.172V1425.75H544.002L537.34 1429.92V1424.47L544.542 1419.91H550.323Z" fill="white"/>
<path d="M210.845 904.909H216.995V923.801C216.995 925.922 216.489 927.778 215.475 929.369C214.472 930.96 213.065 932.201 211.257 933.091C209.448 933.972 207.341 934.412 204.936 934.412C202.521 934.412 200.409 933.972 198.6 933.091C196.792 932.201 195.386 930.96 194.382 929.369C193.378 927.778 192.876 925.922 192.876 923.801V904.909H199.027V923.276C199.027 924.384 199.268 925.368 199.751 926.23C200.243 927.092 200.935 927.769 201.825 928.261C202.715 928.754 203.752 929 204.936 929C206.129 929 207.166 928.754 208.047 928.261C208.937 927.769 209.623 927.092 210.106 926.23C210.599 925.368 210.845 924.384 210.845 923.276V904.909ZM221.942 942.182V912.182H227.908V915.847H228.178C228.443 915.259 228.827 914.663 229.328 914.057C229.84 913.441 230.503 912.93 231.317 912.523C232.141 912.106 233.164 911.898 234.385 911.898C235.976 911.898 237.444 912.314 238.789 913.148C240.133 913.972 241.208 915.217 242.013 916.884C242.818 918.541 243.221 920.619 243.221 923.119C243.221 925.553 242.828 927.608 242.042 929.284C241.265 930.951 240.204 932.215 238.86 933.077C237.525 933.929 236.028 934.355 234.371 934.355C233.197 934.355 232.198 934.161 231.374 933.773C230.56 933.384 229.892 932.897 229.371 932.31C228.85 931.713 228.453 931.112 228.178 930.506H227.993V942.182H221.942ZM227.865 923.091C227.865 924.388 228.045 925.52 228.405 926.486C228.765 927.452 229.286 928.205 229.968 928.744C230.65 929.275 231.478 929.54 232.453 929.54C233.438 929.54 234.272 929.27 234.953 928.73C235.635 928.181 236.151 927.423 236.502 926.457C236.862 925.482 237.042 924.36 237.042 923.091C237.042 921.831 236.866 920.723 236.516 919.767C236.166 918.811 235.65 918.062 234.968 917.523C234.286 916.983 233.448 916.713 232.453 916.713C231.469 916.713 230.635 916.973 229.953 917.494C229.281 918.015 228.765 918.754 228.405 919.71C228.045 920.667 227.865 921.794 227.865 923.091ZM255.294 934.355C253.637 934.355 252.136 933.929 250.792 933.077C249.456 932.215 248.396 930.951 247.61 929.284C246.833 927.608 246.445 925.553 246.445 923.119C246.445 920.619 246.847 918.541 247.652 916.884C248.457 915.217 249.527 913.972 250.863 913.148C252.207 912.314 253.68 911.898 255.28 911.898C256.502 911.898 257.52 912.106 258.334 912.523C259.158 912.93 259.821 913.441 260.323 914.057C260.834 914.663 261.222 915.259 261.488 915.847H261.672V904.909H267.709V934H261.743V930.506H261.488C261.203 931.112 260.801 931.713 260.28 932.31C259.769 932.897 259.101 933.384 258.277 933.773C257.463 934.161 256.469 934.355 255.294 934.355ZM257.212 929.54C258.187 929.54 259.011 929.275 259.684 928.744C260.365 928.205 260.886 927.452 261.246 926.486C261.615 925.52 261.8 924.388 261.8 923.091C261.8 921.794 261.62 920.667 261.26 919.71C260.9 918.754 260.38 918.015 259.698 917.494C259.016 916.973 258.187 916.713 257.212 916.713C256.218 916.713 255.38 916.983 254.698 917.523C254.016 918.062 253.5 918.811 253.15 919.767C252.799 920.723 252.624 921.831 252.624 923.091C252.624 924.36 252.799 925.482 253.15 926.457C253.509 927.423 254.025 928.181 254.698 928.73C255.38 929.27 256.218 929.54 257.212 929.54ZM278.906 934.412C277.514 934.412 276.273 934.17 275.184 933.688C274.095 933.195 273.234 932.471 272.599 931.514C271.974 930.548 271.662 929.346 271.662 927.906C271.662 926.694 271.884 925.676 272.329 924.852C272.774 924.028 273.38 923.366 274.147 922.864C274.914 922.362 275.786 921.983 276.761 921.727C277.746 921.472 278.778 921.292 279.858 921.188C281.127 921.055 282.149 920.932 282.926 920.818C283.702 920.695 284.266 920.515 284.616 920.278C284.967 920.042 285.142 919.691 285.142 919.227V919.142C285.142 918.242 284.858 917.546 284.289 917.054C283.731 916.562 282.935 916.315 281.903 916.315C280.814 916.315 279.948 916.557 279.304 917.04C278.66 917.513 278.234 918.11 278.025 918.83L272.429 918.375C272.713 917.049 273.271 915.903 274.105 914.938C274.938 913.962 276.013 913.214 277.329 912.693C278.655 912.163 280.189 911.898 281.931 911.898C283.144 911.898 284.304 912.04 285.412 912.324C286.529 912.608 287.519 913.048 288.38 913.645C289.252 914.241 289.938 915.009 290.44 915.946C290.942 916.874 291.193 917.987 291.193 919.284V934H285.454V930.974H285.284C284.933 931.656 284.465 932.258 283.877 932.778C283.29 933.29 282.585 933.692 281.761 933.986C280.937 934.27 279.985 934.412 278.906 934.412ZM280.639 930.236C281.529 930.236 282.315 930.061 282.997 929.71C283.679 929.35 284.214 928.867 284.602 928.261C284.99 927.655 285.184 926.969 285.184 926.202V923.886C284.995 924.009 284.734 924.123 284.403 924.227C284.081 924.322 283.717 924.412 283.309 924.497C282.902 924.573 282.495 924.644 282.088 924.71C281.681 924.767 281.311 924.819 280.98 924.866C280.27 924.971 279.649 925.136 279.119 925.364C278.589 925.591 278.177 925.899 277.883 926.287C277.59 926.666 277.443 927.139 277.443 927.707C277.443 928.531 277.741 929.161 278.338 929.597C278.944 930.023 279.711 930.236 280.639 930.236ZM307.493 912.182V916.727H294.353V912.182H307.493ZM297.336 906.955H303.387V927.295C303.387 927.854 303.473 928.29 303.643 928.602C303.814 928.905 304.05 929.118 304.353 929.241C304.666 929.365 305.026 929.426 305.433 929.426C305.717 929.426 306.001 929.402 306.285 929.355C306.569 929.298 306.787 929.256 306.939 929.227L307.89 933.73C307.587 933.825 307.161 933.934 306.612 934.057C306.063 934.189 305.395 934.27 304.609 934.298C303.151 934.355 301.872 934.161 300.774 933.716C299.685 933.271 298.837 932.58 298.231 931.642C297.625 930.705 297.327 929.521 297.336 928.091V906.955ZM321.143 934.426C318.899 934.426 316.967 933.972 315.348 933.062C313.738 932.144 312.497 930.847 311.626 929.17C310.755 927.485 310.319 925.491 310.319 923.19C310.319 920.946 310.755 918.976 311.626 917.281C312.497 915.586 313.724 914.265 315.305 913.318C316.896 912.371 318.761 911.898 320.902 911.898C322.341 911.898 323.681 912.13 324.922 912.594C326.172 913.048 327.261 913.735 328.189 914.653C329.126 915.572 329.855 916.727 330.376 918.119C330.897 919.502 331.157 921.121 331.157 922.977V924.639H312.734V920.889H325.461C325.461 920.018 325.272 919.246 324.893 918.574C324.514 917.902 323.989 917.376 323.316 916.997C322.654 916.609 321.882 916.415 321.001 916.415C320.083 916.415 319.268 916.628 318.558 917.054C317.857 917.471 317.308 918.034 316.91 918.744C316.512 919.445 316.309 920.226 316.299 921.088V924.653C316.299 925.733 316.498 926.666 316.896 927.452C317.303 928.238 317.876 928.844 318.615 929.27C319.353 929.696 320.229 929.909 321.243 929.909C321.915 929.909 322.53 929.814 323.089 929.625C323.648 929.436 324.126 929.152 324.524 928.773C324.922 928.394 325.225 927.93 325.433 927.381L331.029 927.75C330.745 929.095 330.163 930.269 329.282 931.273C328.411 932.267 327.284 933.044 325.902 933.602C324.529 934.152 322.942 934.426 321.143 934.426ZM344.478 934V904.909H355.955C358.161 904.909 360.041 905.33 361.594 906.173C363.147 907.007 364.331 908.167 365.145 909.653C365.969 911.131 366.381 912.835 366.381 914.767C366.381 916.699 365.964 918.403 365.131 919.881C364.298 921.358 363.09 922.509 361.509 923.332C359.937 924.156 358.033 924.568 355.799 924.568H348.483V919.639H354.804C355.988 919.639 356.963 919.436 357.73 919.028C358.507 918.612 359.085 918.039 359.463 917.31C359.852 916.571 360.046 915.723 360.046 914.767C360.046 913.801 359.852 912.958 359.463 912.239C359.085 911.509 358.507 910.946 357.73 910.548C356.954 910.141 355.969 909.938 354.776 909.938H350.628V934H344.478ZM370.262 934V912.182H376.314V934H370.262ZM373.302 909.369C372.403 909.369 371.631 909.071 370.987 908.474C370.352 907.868 370.035 907.144 370.035 906.301C370.035 905.468 370.352 904.753 370.987 904.156C371.631 903.55 372.403 903.247 373.302 903.247C374.202 903.247 374.969 903.55 375.603 904.156C376.247 904.753 376.569 905.468 376.569 906.301C376.569 907.144 376.247 907.868 375.603 908.474C374.969 909.071 374.202 909.369 373.302 909.369ZM387.212 904.909V934H381.161V904.909H387.212ZM402.002 934.426C399.758 934.426 397.826 933.972 396.207 933.062C394.597 932.144 393.357 930.847 392.485 929.17C391.614 927.485 391.179 925.491 391.179 923.19C391.179 920.946 391.614 918.976 392.485 917.281C393.357 915.586 394.583 914.265 396.164 913.318C397.755 912.371 399.621 911.898 401.761 911.898C403.2 911.898 404.54 912.13 405.781 912.594C407.031 913.048 408.12 913.735 409.048 914.653C409.985 915.572 410.715 916.727 411.235 918.119C411.756 919.502 412.017 921.121 412.017 922.977V924.639H393.593V920.889H406.321C406.321 920.018 406.131 919.246 405.752 918.574C405.374 917.902 404.848 917.376 404.176 916.997C403.513 916.609 402.741 916.415 401.86 916.415C400.942 916.415 400.127 916.628 399.417 917.054C398.717 917.471 398.167 918.034 397.77 918.744C397.372 919.445 397.168 920.226 397.159 921.088V924.653C397.159 925.733 397.358 926.666 397.755 927.452C398.163 928.238 398.735 928.844 399.474 929.27C400.213 929.696 401.089 929.909 402.102 929.909C402.774 929.909 403.39 929.814 403.949 929.625C404.507 929.436 404.985 929.152 405.383 928.773C405.781 928.394 406.084 927.93 406.292 927.381L411.889 927.75C411.605 929.095 411.022 930.269 410.142 931.273C409.27 932.267 408.144 933.044 406.761 933.602C405.388 934.152 403.802 934.426 402.002 934.426ZM425.337 934V904.909H431.488V916.912H443.973V904.909H450.11V934H443.973V921.983H431.488V934H425.337ZM465.01 934.426C462.766 934.426 460.834 933.972 459.215 933.062C457.605 932.144 456.364 930.847 455.493 929.17C454.622 927.485 454.186 925.491 454.186 923.19C454.186 920.946 454.622 918.976 455.493 917.281C456.364 915.586 457.591 914.265 459.172 913.318C460.763 912.371 462.629 911.898 464.769 911.898C466.208 911.898 467.548 912.13 468.789 912.594C470.039 913.048 471.128 913.735 472.056 914.653C472.993 915.572 473.722 916.727 474.243 918.119C474.764 919.502 475.025 921.121 475.025 922.977V924.639H456.601V920.889H469.328C469.328 920.018 469.139 919.246 468.76 918.574C468.382 917.902 467.856 917.376 467.184 916.997C466.521 916.609 465.749 916.415 464.868 916.415C463.95 916.415 463.135 916.628 462.425 917.054C461.724 917.471 461.175 918.034 460.777 918.744C460.38 919.445 460.176 920.226 460.167 921.088V924.653C460.167 925.733 460.365 926.666 460.763 927.452C461.17 928.238 461.743 928.844 462.482 929.27C463.221 929.696 464.096 929.909 465.11 929.909C465.782 929.909 466.398 929.814 466.956 929.625C467.515 929.436 467.993 929.152 468.391 928.773C468.789 928.394 469.092 927.93 469.3 927.381L474.897 927.75C474.613 929.095 474.03 930.269 473.15 931.273C472.278 932.267 471.151 933.044 469.769 933.602C468.396 934.152 466.81 934.426 465.01 934.426ZM485.195 934.412C483.803 934.412 482.562 934.17 481.473 933.688C480.384 933.195 479.523 932.471 478.888 931.514C478.263 930.548 477.951 929.346 477.951 927.906C477.951 926.694 478.173 925.676 478.618 924.852C479.063 924.028 479.669 923.366 480.436 922.864C481.203 922.362 482.075 921.983 483.05 921.727C484.035 921.472 485.067 921.292 486.147 921.188C487.416 921.055 488.438 920.932 489.215 920.818C489.991 920.695 490.555 920.515 490.905 920.278C491.256 920.042 491.431 919.691 491.431 919.227V919.142C491.431 918.242 491.147 917.546 490.578 917.054C490.02 916.562 489.224 916.315 488.192 916.315C487.103 916.315 486.237 916.557 485.593 917.04C484.949 917.513 484.523 918.11 484.314 918.83L478.718 918.375C479.002 917.049 479.56 915.903 480.394 914.938C481.227 913.962 482.302 913.214 483.618 912.693C484.944 912.163 486.478 911.898 488.221 911.898C489.433 911.898 490.593 912.04 491.701 912.324C492.818 912.608 493.808 913.048 494.669 913.645C495.541 914.241 496.227 915.009 496.729 915.946C497.231 916.874 497.482 917.987 497.482 919.284V934H491.743V930.974H491.573C491.222 931.656 490.754 932.258 490.167 932.778C489.579 933.29 488.874 933.692 488.05 933.986C487.226 934.27 486.275 934.412 485.195 934.412ZM486.928 930.236C487.818 930.236 488.604 930.061 489.286 929.71C489.968 929.35 490.503 928.867 490.891 928.261C491.279 927.655 491.473 926.969 491.473 926.202V923.886C491.284 924.009 491.024 924.123 490.692 924.227C490.37 924.322 490.006 924.412 489.598 924.497C489.191 924.573 488.784 924.644 488.377 924.71C487.97 924.767 487.6 924.819 487.269 924.866C486.559 924.971 485.938 925.136 485.408 925.364C484.878 925.591 484.466 925.899 484.172 926.287C483.879 926.666 483.732 927.139 483.732 927.707C483.732 928.531 484.03 929.161 484.627 929.597C485.233 930.023 486 930.236 486.928 930.236ZM510.216 934.355C508.559 934.355 507.058 933.929 505.713 933.077C504.378 932.215 503.318 930.951 502.532 929.284C501.755 927.608 501.367 925.553 501.367 923.119C501.367 920.619 501.769 918.541 502.574 916.884C503.379 915.217 504.449 913.972 505.784 913.148C507.129 912.314 508.602 911.898 510.202 911.898C511.424 911.898 512.442 912.106 513.256 912.523C514.08 912.93 514.743 913.441 515.245 914.057C515.756 914.663 516.144 915.259 516.409 915.847H516.594V904.909H522.631V934H516.665V930.506H516.409C516.125 931.112 515.723 931.713 515.202 932.31C514.691 932.897 514.023 933.384 513.199 933.773C512.385 934.161 511.391 934.355 510.216 934.355ZM512.134 929.54C513.109 929.54 513.933 929.275 514.605 928.744C515.287 928.205 515.808 927.452 516.168 926.486C516.537 925.52 516.722 924.388 516.722 923.091C516.722 921.794 516.542 920.667 516.182 919.71C515.822 918.754 515.301 918.015 514.62 917.494C513.938 916.973 513.109 916.713 512.134 916.713C511.14 916.713 510.301 916.983 509.62 917.523C508.938 918.062 508.422 918.811 508.071 919.767C507.721 920.723 507.546 921.831 507.546 923.091C507.546 924.36 507.721 925.482 508.071 926.457C508.431 927.423 508.947 928.181 509.62 928.73C510.301 929.27 511.14 929.54 512.134 929.54ZM545.76 918.403L540.22 918.744C540.125 918.271 539.922 917.845 539.609 917.466C539.297 917.078 538.885 916.77 538.373 916.543C537.871 916.306 537.27 916.188 536.569 916.188C535.632 916.188 534.841 916.386 534.197 916.784C533.553 917.172 533.231 917.693 533.231 918.347C533.231 918.867 533.44 919.308 533.856 919.668C534.273 920.027 534.988 920.316 536.001 920.534L539.95 921.33C542.071 921.765 543.653 922.466 544.694 923.432C545.736 924.398 546.257 925.667 546.257 927.239C546.257 928.669 545.835 929.923 544.993 931.003C544.159 932.082 543.013 932.925 541.555 933.531C540.106 934.128 538.435 934.426 536.541 934.426C533.653 934.426 531.351 933.825 529.637 932.622C527.933 931.41 526.934 929.762 526.64 927.679L532.592 927.366C532.772 928.247 533.208 928.92 533.899 929.384C534.59 929.838 535.475 930.065 536.555 930.065C537.616 930.065 538.468 929.862 539.112 929.455C539.765 929.038 540.097 928.503 540.106 927.849C540.097 927.3 539.865 926.85 539.41 926.5C538.956 926.14 538.255 925.866 537.308 925.676L533.529 924.923C531.399 924.497 529.813 923.759 528.771 922.707C527.739 921.656 527.223 920.316 527.223 918.688C527.223 917.286 527.601 916.079 528.359 915.065C529.126 914.052 530.201 913.271 531.583 912.722C532.975 912.172 534.604 911.898 536.47 911.898C539.225 911.898 541.394 912.48 542.975 913.645C544.566 914.81 545.494 916.396 545.76 918.403Z" fill="white"/>
<rect x="190" y="985" width="358" height="120" rx="26" stroke="#DBDBDB" stroke-width="2"/>
<rect x="1" y="154" width="358" height="120" rx="26" stroke="#DBDBDB" stroke-width="2"/>
<rect x="190" y="985" width="358" height="120" rx="26" stroke="#DBDBDB" stroke-width="2"/>
<rect x="1" y="154" width="358" height="120" rx="26" stroke="#DBDBDB" stroke-width="2"/>
<rect x="190" y="1163" width="238" height="120" rx="26" stroke="#DBDBDB" stroke-width="2"/>
<rect x="121" y="332" width="238" height="120" rx="26" stroke="#DBDBDB" stroke-width="2"/>
<line x1="310" y1="984" x2="310" y2="1106" stroke="#DBDBDB" stroke-width="2"/>
<line x1="121" y1="153" x2="121" y2="275" stroke="#DBDBDB" stroke-width="2"/>
<line x1="430" y1="984" x2="430" y2="1106" stroke="#DBDBDB" stroke-width="2"/>
<line x1="241" y1="153" x2="241" y2="275" stroke="#DBDBDB" stroke-width="2"/>
<line x1="310" y1="1162" x2="310" y2="1284" stroke="#DBDBDB" stroke-width="2"/>
<line x1="241" y1="331" x2="241" y2="453" stroke="#DBDBDB" stroke-width="2"/>
<path d="M347.976 1059V1056.44L357.578 1045.93C358.705 1044.7 359.633 1043.63 360.363 1042.72C361.092 1041.8 361.632 1040.94 361.982 1040.14C362.342 1039.32 362.522 1038.47 362.522 1037.58C362.522 1036.56 362.275 1035.67 361.783 1034.92C361.3 1034.18 360.637 1033.6 359.794 1033.19C358.952 1032.78 358.005 1032.58 356.953 1032.58C355.836 1032.58 354.861 1032.81 354.027 1033.28C353.203 1033.73 352.564 1034.37 352.11 1035.19C351.665 1036.02 351.442 1036.98 351.442 1038.09H348.09C348.09 1036.39 348.483 1034.89 349.269 1033.6C350.055 1032.31 351.125 1031.31 352.479 1030.59C353.843 1029.87 355.372 1029.51 357.067 1029.51C358.772 1029.51 360.282 1029.87 361.598 1030.59C362.915 1031.31 363.947 1032.28 364.695 1033.5C365.443 1034.72 365.817 1036.08 365.817 1037.58C365.817 1038.65 365.623 1039.7 365.235 1040.72C364.856 1041.73 364.193 1042.86 363.246 1044.11C362.309 1045.35 361.007 1046.87 359.34 1048.66L352.806 1055.65V1055.88H366.328V1059H347.976ZM373.104 1059L386.115 1033.26V1033.03H371.115V1029.91H389.752V1033.2L376.797 1059H373.104Z" fill="white"/>
<path d="M158.976 228V225.443L168.578 214.932C169.705 213.701 170.633 212.631 171.363 211.722C172.092 210.803 172.632 209.941 172.982 209.136C173.342 208.322 173.522 207.47 173.522 206.58C173.522 205.557 173.275 204.671 172.783 203.923C172.3 203.175 171.637 202.598 170.794 202.19C169.952 201.783 169.005 201.58 167.953 201.58C166.836 201.58 165.861 201.812 165.027 202.276C164.203 202.73 163.564 203.369 163.11 204.193C162.665 205.017 162.442 205.983 162.442 207.091H159.09C159.09 205.386 159.483 203.89 160.269 202.602C161.055 201.314 162.125 200.311 163.479 199.591C164.843 198.871 166.372 198.511 168.067 198.511C169.772 198.511 171.282 198.871 172.598 199.591C173.915 200.311 174.947 201.281 175.695 202.503C176.443 203.724 176.817 205.083 176.817 206.58C176.817 207.65 176.623 208.696 176.235 209.719C175.856 210.732 175.193 211.864 174.246 213.114C173.309 214.354 172.007 215.869 170.34 217.659L163.806 224.648V224.875H177.328V228H158.976ZM184.104 228L197.115 202.261V202.034H182.115V198.909H200.752V202.205L187.797 228H184.104Z" fill="white"/>
<path d="M240.961 1029.91V1059H237.439V1033.6H237.268L230.166 1038.32V1034.74L237.439 1029.91H240.961ZM258.589 1029.51C259.782 1029.52 260.975 1029.75 262.169 1030.19C263.362 1030.64 264.451 1031.38 265.436 1032.41C266.421 1033.43 267.211 1034.83 267.808 1036.6C268.404 1038.37 268.703 1040.59 268.703 1043.26C268.703 1045.85 268.457 1048.14 267.964 1050.15C267.481 1052.15 266.78 1053.83 265.862 1055.21C264.953 1056.58 263.845 1057.62 262.538 1058.33C261.241 1059.04 259.773 1059.4 258.135 1059.4C256.506 1059.4 255.052 1059.08 253.774 1058.43C252.505 1057.78 251.463 1056.87 250.649 1055.72C249.844 1054.55 249.328 1053.2 249.1 1051.67H252.566C252.879 1053.01 253.499 1054.11 254.427 1054.98C255.365 1055.84 256.6 1056.27 258.135 1056.27C260.379 1056.27 262.15 1055.29 263.447 1053.33C264.754 1051.37 265.407 1048.6 265.407 1045.02H265.18C264.65 1045.82 264.02 1046.5 263.291 1047.08C262.562 1047.66 261.752 1048.11 260.862 1048.42C259.972 1048.73 259.025 1048.89 258.021 1048.89C256.354 1048.89 254.825 1048.47 253.433 1047.65C252.05 1046.82 250.942 1045.68 250.109 1044.23C249.285 1042.77 248.873 1041.1 248.873 1039.23C248.873 1037.45 249.271 1035.82 250.066 1034.34C250.871 1032.85 251.998 1031.67 253.447 1030.79C254.905 1029.91 256.619 1029.48 258.589 1029.51ZM258.589 1032.64C257.396 1032.64 256.321 1032.93 255.365 1033.53C254.418 1034.12 253.665 1034.91 253.106 1035.92C252.557 1036.91 252.282 1038.02 252.282 1039.23C252.282 1040.44 252.547 1041.54 253.078 1042.54C253.618 1043.52 254.351 1044.31 255.279 1044.89C256.217 1045.47 257.282 1045.76 258.475 1045.76C259.375 1045.76 260.213 1045.59 260.99 1045.24C261.766 1044.88 262.443 1044.39 263.021 1043.77C263.608 1043.15 264.067 1042.44 264.399 1041.66C264.73 1040.86 264.896 1040.03 264.896 1039.17C264.896 1038.03 264.621 1036.97 264.072 1035.97C263.532 1034.98 262.784 1034.18 261.828 1033.56C260.881 1032.94 259.801 1032.64 258.589 1032.64Z" fill="white"/>
<path d="M51.9613 198.909V228H48.4386V202.602H48.2681L41.1658 207.318V203.739L48.4386 198.909H51.9613ZM69.5891 198.511C70.7823 198.521 71.9755 198.748 73.1687 199.193C74.3619 199.638 75.4509 200.377 76.4357 201.409C77.4206 202.432 78.2113 203.829 78.8079 205.599C79.4045 207.37 79.7028 209.591 79.7028 212.261C79.7028 214.847 79.4566 217.143 78.9641 219.151C78.4812 221.149 77.7804 222.834 76.8619 224.207C75.9528 225.58 74.8448 226.622 73.538 227.332C72.2406 228.043 70.7728 228.398 69.1346 228.398C67.5058 228.398 66.0522 228.076 64.7738 227.432C63.5049 226.778 62.4632 225.874 61.6488 224.719C60.8439 223.554 60.3278 222.205 60.1005 220.67H63.5664C63.8789 222.006 64.4992 223.109 65.4272 223.98C66.3647 224.842 67.6005 225.273 69.1346 225.273C71.3789 225.273 73.1497 224.293 74.4471 222.332C75.7539 220.372 76.4073 217.602 76.4073 214.023H76.18C75.6497 214.818 75.02 215.505 74.2908 216.082C73.5617 216.66 72.752 217.105 71.8619 217.418C70.9717 217.73 70.0247 217.886 69.021 217.886C67.3543 217.886 65.8249 217.474 64.4329 216.651C63.0503 215.817 61.9424 214.676 61.109 213.227C60.2852 211.769 59.8732 210.102 59.8732 208.227C59.8732 206.447 60.271 204.818 61.0664 203.341C61.8713 201.854 62.9982 200.67 64.4471 199.79C65.9054 198.909 67.6194 198.483 69.5891 198.511ZM69.5891 201.636C68.396 201.636 67.3211 201.935 66.3647 202.531C65.4177 203.118 64.6649 203.914 64.1062 204.918C63.5569 205.912 63.2823 207.015 63.2823 208.227C63.2823 209.439 63.5475 210.543 64.0778 211.537C64.6175 212.522 65.3514 213.308 66.2795 213.895C67.217 214.473 68.2823 214.761 69.4755 214.761C70.3751 214.761 71.2132 214.586 71.9897 214.236C72.7662 213.876 73.4433 213.388 74.021 212.773C74.6081 212.148 75.0674 211.442 75.3988 210.656C75.7302 209.861 75.896 209.032 75.896 208.17C75.896 207.034 75.6213 205.969 75.0721 204.974C74.5323 203.98 73.7842 203.175 72.8278 202.56C71.8808 201.944 70.8013 201.636 69.5891 201.636Z" fill="white"/>
<path d="M240.332 1207.91V1237H236.81V1211.6H236.639L229.537 1216.32V1212.74L236.81 1207.91H240.332ZM248.699 1237V1234.44L258.301 1223.93C259.428 1222.7 260.356 1221.63 261.085 1220.72C261.814 1219.8 262.354 1218.94 262.705 1218.14C263.064 1217.32 263.244 1216.47 263.244 1215.58C263.244 1214.56 262.998 1213.67 262.506 1212.92C262.023 1212.18 261.36 1211.6 260.517 1211.19C259.674 1210.78 258.727 1210.58 257.676 1210.58C256.559 1210.58 255.583 1210.81 254.75 1211.28C253.926 1211.73 253.287 1212.37 252.832 1213.19C252.387 1214.02 252.165 1214.98 252.165 1216.09H248.812C248.812 1214.39 249.205 1212.89 249.991 1211.6C250.777 1210.31 251.848 1209.31 253.202 1208.59C254.565 1207.87 256.095 1207.51 257.79 1207.51C259.494 1207.51 261.005 1207.87 262.321 1208.59C263.637 1209.31 264.67 1210.28 265.418 1211.5C266.166 1212.72 266.54 1214.08 266.54 1215.58C266.54 1216.65 266.346 1217.7 265.957 1218.72C265.579 1219.73 264.916 1220.86 263.969 1222.11C263.031 1223.35 261.729 1224.87 260.062 1226.66L253.528 1233.65V1233.88H267.051V1237H248.699Z" fill="white"/>
<path d="M171.332 376.909V406H167.81V380.602H167.639L160.537 385.318V381.739L167.81 376.909H171.332ZM179.699 406V403.443L189.301 392.932C190.428 391.701 191.356 390.631 192.085 389.722C192.814 388.803 193.354 387.941 193.705 387.136C194.064 386.322 194.244 385.47 194.244 384.58C194.244 383.557 193.998 382.671 193.506 381.923C193.023 381.175 192.36 380.598 191.517 380.19C190.674 379.783 189.727 379.58 188.676 379.58C187.559 379.58 186.583 379.812 185.75 380.276C184.926 380.73 184.287 381.369 183.832 382.193C183.387 383.017 183.165 383.983 183.165 385.091H179.812C179.812 383.386 180.205 381.89 180.991 380.602C181.777 379.314 182.848 378.311 184.202 377.591C185.565 376.871 187.095 376.511 188.79 376.511C190.494 376.511 192.005 376.871 193.321 377.591C194.637 378.311 195.67 379.281 196.418 380.503C197.166 381.724 197.54 383.083 197.54 384.58C197.54 385.65 197.346 386.696 196.957 387.719C196.579 388.732 195.916 389.864 194.969 391.114C194.031 392.354 192.729 393.869 191.062 395.659L184.528 402.648V402.875H198.051V406H179.699Z" fill="white"/>
<path d="M466.572 1053.03V1050.14L479.356 1029.91H481.458V1034.4H480.038L470.379 1049.68V1049.91H487.594V1053.03H466.572ZM480.265 1059V1052.15V1050.8V1029.91H483.617V1059H480.265ZM493.827 1059L506.838 1033.26V1033.03H491.838V1029.91H510.474V1033.2L497.52 1059H493.827Z" fill="white"/>
<path d="M277.572 222.034V219.136L290.356 198.909H292.458V203.398H291.038L281.379 218.682V218.909H298.594V222.034H277.572ZM291.265 228V221.153V219.804V198.909H294.617V228H291.265ZM304.827 228L317.838 202.261V202.034H302.838V198.909H321.474V202.205L308.52 228H304.827Z" fill="white"/>
<path d="M356.497 1237.4C354.622 1237.4 352.951 1237.08 351.483 1236.43C350.025 1235.79 348.865 1234.89 348.003 1233.75C347.151 1232.59 346.687 1231.25 346.611 1229.73H350.19C350.266 1230.66 350.588 1231.47 351.156 1232.16C351.724 1232.83 352.468 1233.35 353.386 1233.72C354.305 1234.09 355.323 1234.27 356.44 1234.27C357.69 1234.27 358.798 1234.05 359.764 1233.62C360.73 1233.18 361.488 1232.58 362.037 1231.8C362.586 1231.02 362.861 1230.12 362.861 1229.1C362.861 1228.03 362.596 1227.09 362.065 1226.28C361.535 1225.45 360.759 1224.81 359.736 1224.34C358.713 1223.88 357.463 1223.65 355.986 1223.65H353.656V1220.52H355.986C357.141 1220.52 358.154 1220.31 359.026 1219.9C359.906 1219.48 360.593 1218.89 361.085 1218.14C361.587 1217.38 361.838 1216.49 361.838 1215.47C361.838 1214.48 361.62 1213.62 361.185 1212.89C360.749 1212.17 360.134 1211.6 359.338 1211.19C358.552 1210.78 357.624 1210.58 356.554 1210.58C355.55 1210.58 354.603 1210.76 353.713 1211.13C352.832 1211.49 352.113 1212.02 351.554 1212.71C350.995 1213.39 350.692 1214.22 350.645 1215.18H347.236C347.293 1213.66 347.752 1212.32 348.614 1211.18C349.475 1210.02 350.602 1209.12 351.994 1208.48C353.396 1207.83 354.935 1207.51 356.611 1207.51C358.41 1207.51 359.954 1207.88 361.241 1208.61C362.529 1209.32 363.519 1210.28 364.21 1211.46C364.902 1212.64 365.247 1213.92 365.247 1215.3C365.247 1216.93 364.816 1218.33 363.955 1219.49C363.102 1220.64 361.942 1221.44 360.474 1221.89V1222.11C362.312 1222.42 363.746 1223.2 364.778 1224.46C365.811 1225.71 366.327 1227.26 366.327 1229.1C366.327 1230.68 365.896 1232.1 365.034 1233.36C364.182 1234.61 363.017 1235.6 361.54 1236.32C360.063 1237.04 358.382 1237.4 356.497 1237.4ZM372.136 1237V1234.44L381.739 1223.93C382.866 1222.7 383.794 1221.63 384.523 1220.72C385.252 1219.8 385.792 1218.94 386.142 1218.14C386.502 1217.32 386.682 1216.47 386.682 1215.58C386.682 1214.56 386.436 1213.67 385.943 1212.92C385.46 1212.18 384.797 1211.6 383.955 1211.19C383.112 1210.78 382.165 1210.58 381.114 1210.58C379.996 1210.58 379.021 1210.81 378.188 1211.28C377.364 1211.73 376.724 1212.37 376.27 1213.19C375.825 1214.02 375.602 1214.98 375.602 1216.09H372.25C372.25 1214.39 372.643 1212.89 373.429 1211.6C374.215 1210.31 375.285 1209.31 376.639 1208.59C378.003 1207.87 379.532 1207.51 381.227 1207.51C382.932 1207.51 384.442 1207.87 385.759 1208.59C387.075 1209.31 388.107 1210.28 388.855 1211.5C389.603 1212.72 389.977 1214.08 389.977 1215.58C389.977 1216.65 389.783 1217.7 389.395 1218.72C389.016 1219.73 388.353 1220.86 387.406 1222.11C386.469 1223.35 385.167 1224.87 383.5 1226.66L376.966 1233.65V1233.88H390.489V1237H372.136Z" fill="white"/>
<path d="M287.497 406.398C285.622 406.398 283.951 406.076 282.483 405.432C281.025 404.788 279.865 403.893 279.003 402.747C278.151 401.592 277.687 400.252 277.611 398.727H281.19C281.266 399.665 281.588 400.474 282.156 401.156C282.724 401.829 283.468 402.349 284.386 402.719C285.305 403.088 286.323 403.273 287.44 403.273C288.69 403.273 289.798 403.055 290.764 402.619C291.73 402.184 292.488 401.578 293.037 400.801C293.586 400.025 293.861 399.125 293.861 398.102C293.861 397.032 293.596 396.09 293.065 395.276C292.535 394.452 291.759 393.808 290.736 393.344C289.713 392.88 288.463 392.648 286.986 392.648H284.656V389.523H286.986C288.141 389.523 289.154 389.314 290.026 388.898C290.906 388.481 291.593 387.894 292.085 387.136C292.587 386.379 292.838 385.489 292.838 384.466C292.838 383.481 292.62 382.624 292.185 381.895C291.749 381.166 291.134 380.598 290.338 380.19C289.552 379.783 288.624 379.58 287.554 379.58C286.55 379.58 285.603 379.764 284.713 380.134C283.832 380.493 283.113 381.019 282.554 381.71C281.995 382.392 281.692 383.216 281.645 384.182H278.236C278.293 382.657 278.752 381.322 279.614 380.176C280.475 379.021 281.602 378.121 282.994 377.477C284.396 376.833 285.935 376.511 287.611 376.511C289.41 376.511 290.954 376.876 292.241 377.605C293.529 378.325 294.519 379.277 295.21 380.46C295.902 381.644 296.247 382.922 296.247 384.295C296.247 385.934 295.816 387.33 294.955 388.486C294.102 389.641 292.942 390.441 291.474 390.886V391.114C293.312 391.417 294.746 392.198 295.778 393.457C296.811 394.707 297.327 396.256 297.327 398.102C297.327 399.684 296.896 401.104 296.034 402.364C295.182 403.614 294.017 404.598 292.54 405.318C291.063 406.038 289.382 406.398 287.497 406.398ZM303.136 406V403.443L312.739 392.932C313.866 391.701 314.794 390.631 315.523 389.722C316.252 388.803 316.792 387.941 317.142 387.136C317.502 386.322 317.682 385.47 317.682 384.58C317.682 383.557 317.436 382.671 316.943 381.923C316.46 381.175 315.797 380.598 314.955 380.19C314.112 379.783 313.165 379.58 312.114 379.58C310.996 379.58 310.021 379.812 309.188 380.276C308.364 380.73 307.724 381.369 307.27 382.193C306.825 383.017 306.602 383.983 306.602 385.091H303.25C303.25 383.386 303.643 381.89 304.429 380.602C305.215 379.314 306.285 378.311 307.639 377.591C309.003 376.871 310.532 376.511 312.227 376.511C313.932 376.511 315.442 376.871 316.759 377.591C318.075 378.311 319.107 379.281 319.855 380.503C320.603 381.724 320.977 383.083 320.977 384.58C320.977 385.65 320.783 386.696 320.395 387.719C320.016 388.732 319.353 389.864 318.406 391.114C317.469 392.354 316.167 393.869 314.5 395.659L307.966 402.648V402.875H321.489V406H303.136Z" fill="white"/>
<path d="M468.357 166.398C466.482 166.398 464.81 166.076 463.342 165.432C461.884 164.788 460.724 163.893 459.862 162.747C459.01 161.592 458.546 160.252 458.47 158.727H462.05C462.125 159.665 462.447 160.474 463.016 161.156C463.584 161.829 464.327 162.349 465.246 162.719C466.164 163.088 467.182 163.273 468.3 163.273C469.55 163.273 470.658 163.055 471.624 162.619C472.589 162.184 473.347 161.578 473.896 160.801C474.446 160.025 474.72 159.125 474.72 158.102C474.72 157.032 474.455 156.09 473.925 155.276C473.394 154.452 472.618 153.808 471.595 153.344C470.572 152.88 469.322 152.648 467.845 152.648H465.516V149.523H467.845C469 149.523 470.014 149.314 470.885 148.898C471.766 148.481 472.452 147.894 472.945 147.136C473.446 146.379 473.697 145.489 473.697 144.466C473.697 143.481 473.48 142.624 473.044 141.895C472.608 141.166 471.993 140.598 471.197 140.19C470.411 139.783 469.483 139.58 468.413 139.58C467.41 139.58 466.463 139.764 465.572 140.134C464.692 140.493 463.972 141.019 463.413 141.71C462.855 142.392 462.552 143.216 462.504 144.182H459.095C459.152 142.657 459.611 141.322 460.473 140.176C461.335 139.021 462.462 138.121 463.854 137.477C465.255 136.833 466.794 136.511 468.47 136.511C470.269 136.511 471.813 136.876 473.101 137.605C474.389 138.325 475.378 139.277 476.07 140.46C476.761 141.644 477.107 142.922 477.107 144.295C477.107 145.934 476.676 147.33 475.814 148.486C474.962 149.641 473.802 150.441 472.334 150.886V151.114C474.171 151.417 475.606 152.198 476.638 153.457C477.67 154.707 478.186 156.256 478.186 158.102C478.186 159.684 477.755 161.104 476.893 162.364C476.041 163.614 474.876 164.598 473.399 165.318C471.922 166.038 470.241 166.398 468.357 166.398ZM483.996 166V163.443L493.598 152.932C494.725 151.701 495.653 150.631 496.382 149.722C497.111 148.803 497.651 147.941 498.001 147.136C498.361 146.322 498.541 145.47 498.541 144.58C498.541 143.557 498.295 142.671 497.803 141.923C497.32 141.175 496.657 140.598 495.814 140.19C494.971 139.783 494.024 139.58 492.973 139.58C491.856 139.58 490.88 139.812 490.047 140.276C489.223 140.73 488.584 141.369 488.129 142.193C487.684 143.017 487.462 143.983 487.462 145.091H484.109C484.109 143.386 484.502 141.89 485.288 140.602C486.074 139.314 487.144 138.311 488.499 137.591C489.862 136.871 491.392 136.511 493.087 136.511C494.791 136.511 496.302 136.871 497.618 137.591C498.934 138.311 499.966 139.281 500.714 140.503C501.463 141.724 501.837 143.083 501.837 144.58C501.837 145.65 501.643 146.696 501.254 147.719C500.875 148.732 500.213 149.864 499.266 151.114C498.328 152.354 497.026 153.869 495.359 155.659L488.825 162.648V162.875H502.348V166H483.996ZM519.521 166V144.182H522.874V166H519.521ZM521.226 140.545C520.572 140.545 520.009 140.323 519.536 139.878C519.071 139.433 518.839 138.898 518.839 138.273C518.839 137.648 519.071 137.113 519.536 136.668C520.009 136.223 520.572 136 521.226 136C521.879 136 522.438 136.223 522.902 136.668C523.375 137.113 523.612 137.648 523.612 138.273C523.612 138.898 523.375 139.433 522.902 139.878C522.438 140.323 521.879 140.545 521.226 140.545ZM544.468 149.068L541.457 149.92C541.267 149.419 540.988 148.931 540.619 148.457C540.259 147.974 539.766 147.577 539.141 147.264C538.516 146.952 537.716 146.795 536.741 146.795C535.406 146.795 534.293 147.103 533.403 147.719C532.522 148.325 532.082 149.097 532.082 150.034C532.082 150.867 532.385 151.526 532.991 152.009C533.597 152.491 534.544 152.894 535.832 153.216L539.07 154.011C541.021 154.485 542.475 155.209 543.431 156.185C544.388 157.151 544.866 158.396 544.866 159.92C544.866 161.17 544.506 162.288 543.786 163.273C543.076 164.258 542.082 165.034 540.803 165.602C539.525 166.17 538.038 166.455 536.343 166.455C534.118 166.455 532.276 165.972 530.817 165.006C529.359 164.04 528.436 162.629 528.048 160.773L531.229 159.977C531.532 161.152 532.105 162.032 532.948 162.619C533.8 163.206 534.913 163.5 536.286 163.5C537.849 163.5 539.089 163.169 540.008 162.506C540.936 161.833 541.4 161.028 541.4 160.091C541.4 159.333 541.135 158.699 540.604 158.188C540.074 157.667 539.26 157.278 538.161 157.023L534.525 156.17C532.527 155.697 531.059 154.963 530.121 153.969C529.193 152.965 528.729 151.71 528.729 150.205C528.729 148.973 529.075 147.884 529.766 146.938C530.467 145.991 531.419 145.247 532.621 144.707C533.834 144.168 535.207 143.898 536.741 143.898C538.9 143.898 540.595 144.371 541.826 145.318C543.067 146.265 543.947 147.515 544.468 149.068ZM564.514 136.909V166H561.162V136.909H564.514ZM579.802 166.455C577.7 166.455 575.886 165.991 574.362 165.062C572.846 164.125 571.677 162.818 570.853 161.142C570.039 159.456 569.631 157.496 569.631 155.261C569.631 153.027 570.039 151.057 570.853 149.352C571.677 147.638 572.823 146.303 574.29 145.347C575.768 144.381 577.491 143.898 579.461 143.898C580.597 143.898 581.719 144.087 582.827 144.466C583.935 144.845 584.944 145.46 585.853 146.312C586.762 147.155 587.487 148.273 588.026 149.665C588.566 151.057 588.836 152.771 588.836 154.807V156.227H572.018V153.33H585.427C585.427 152.098 585.181 151 584.688 150.034C584.205 149.068 583.514 148.306 582.614 147.747C581.724 147.188 580.673 146.909 579.461 146.909C578.126 146.909 576.97 147.241 575.995 147.903C575.029 148.557 574.286 149.409 573.765 150.46C573.244 151.511 572.984 152.638 572.984 153.841V155.773C572.984 157.42 573.268 158.817 573.836 159.963C574.414 161.099 575.214 161.966 576.237 162.562C577.259 163.15 578.448 163.443 579.802 163.443C580.683 163.443 581.478 163.32 582.188 163.074C582.908 162.818 583.528 162.439 584.049 161.938C584.57 161.426 584.972 160.792 585.256 160.034L588.495 160.943C588.154 162.042 587.581 163.008 586.776 163.841C585.971 164.665 584.977 165.309 583.793 165.773C582.61 166.227 581.279 166.455 579.802 166.455ZM609.39 149.068L606.379 149.92C606.189 149.419 605.91 148.931 605.54 148.457C605.181 147.974 604.688 147.577 604.063 147.264C603.438 146.952 602.638 146.795 601.663 146.795C600.327 146.795 599.215 147.103 598.325 147.719C597.444 148.325 597.004 149.097 597.004 150.034C597.004 150.867 597.307 151.526 597.913 152.009C598.519 152.491 599.466 152.894 600.754 153.216L603.992 154.011C605.943 154.485 607.397 155.209 608.353 156.185C609.309 157.151 609.788 158.396 609.788 159.92C609.788 161.17 609.428 162.288 608.708 163.273C607.998 164.258 607.004 165.034 605.725 165.602C604.447 166.17 602.96 166.455 601.265 166.455C599.04 166.455 597.198 165.972 595.739 165.006C594.281 164.04 593.358 162.629 592.969 160.773L596.151 159.977C596.454 161.152 597.027 162.032 597.87 162.619C598.722 163.206 599.835 163.5 601.208 163.5C602.771 163.5 604.011 163.169 604.93 162.506C605.858 161.833 606.322 161.028 606.322 160.091C606.322 159.333 606.057 158.699 605.526 158.188C604.996 157.667 604.182 157.278 603.083 157.023L599.447 156.17C597.449 155.697 595.981 154.963 595.043 153.969C594.115 152.965 593.651 151.71 593.651 150.205C593.651 148.973 593.997 147.884 594.688 146.938C595.389 145.991 596.341 145.247 597.543 144.707C598.755 144.168 600.129 143.898 601.663 143.898C603.822 143.898 605.517 144.371 606.748 145.318C607.988 146.265 608.869 147.515 609.39 149.068ZM630.288 149.068L627.277 149.92C627.088 149.419 626.808 148.931 626.439 148.457C626.079 147.974 625.587 147.577 624.962 147.264C624.337 146.952 623.536 146.795 622.561 146.795C621.226 146.795 620.113 147.103 619.223 147.719C618.342 148.325 617.902 149.097 617.902 150.034C617.902 150.867 618.205 151.526 618.811 152.009C619.417 152.491 620.364 152.894 621.652 153.216L624.891 154.011C626.841 154.485 628.295 155.209 629.251 156.185C630.208 157.151 630.686 158.396 630.686 159.92C630.686 161.17 630.326 162.288 629.607 163.273C628.896 164.258 627.902 165.034 626.624 165.602C625.345 166.17 623.858 166.455 622.163 166.455C619.938 166.455 618.096 165.972 616.638 165.006C615.179 164.04 614.256 162.629 613.868 160.773L617.05 159.977C617.353 161.152 617.926 162.032 618.768 162.619C619.621 163.206 620.733 163.5 622.107 163.5C623.669 163.5 624.91 163.169 625.828 162.506C626.756 161.833 627.22 161.028 627.22 160.091C627.22 159.333 626.955 158.699 626.425 158.188C625.894 157.667 625.08 157.278 623.982 157.023L620.345 156.17C618.347 155.697 616.879 154.963 615.942 153.969C615.014 152.965 614.55 151.71 614.55 150.205C614.55 148.973 614.895 147.884 615.587 146.938C616.287 145.991 617.239 145.247 618.442 144.707C619.654 144.168 621.027 143.898 622.561 143.898C624.72 143.898 626.415 144.371 627.646 145.318C628.887 146.265 629.768 147.515 630.288 149.068ZM656.471 144.182V147.023H645.164V144.182H656.471ZM648.46 138.955H651.812V159.75C651.812 160.697 651.949 161.407 652.224 161.881C652.508 162.345 652.868 162.657 653.303 162.818C653.748 162.97 654.217 163.045 654.71 163.045C655.079 163.045 655.382 163.027 655.619 162.989C655.855 162.941 656.045 162.903 656.187 162.875L656.869 165.886C656.641 165.972 656.324 166.057 655.917 166.142C655.51 166.237 654.994 166.284 654.369 166.284C653.422 166.284 652.494 166.08 651.585 165.673C650.685 165.266 649.937 164.646 649.34 163.812C648.753 162.979 648.46 161.928 648.46 160.659V138.955ZM665.335 152.875V166H661.982V136.909H665.335V147.591H665.619C666.13 146.464 666.897 145.569 667.92 144.906C668.952 144.234 670.325 143.898 672.039 143.898C673.526 143.898 674.828 144.196 675.945 144.793C677.063 145.38 677.929 146.284 678.545 147.506C679.17 148.718 679.482 150.261 679.482 152.136V166H676.13V152.364C676.13 150.631 675.68 149.291 674.781 148.344C673.89 147.387 672.655 146.909 671.073 146.909C669.975 146.909 668.99 147.141 668.119 147.605C667.257 148.069 666.575 148.746 666.073 149.636C665.581 150.527 665.335 151.606 665.335 152.875ZM692.036 166.511C690.653 166.511 689.398 166.251 688.271 165.73C687.144 165.2 686.25 164.438 685.587 163.443C684.924 162.439 684.592 161.227 684.592 159.807C684.592 158.557 684.839 157.544 685.331 156.767C685.823 155.981 686.482 155.366 687.305 154.92C688.129 154.475 689.038 154.144 690.033 153.926C691.036 153.699 692.045 153.519 693.058 153.386C694.384 153.216 695.459 153.088 696.283 153.003C697.116 152.908 697.722 152.752 698.101 152.534C698.489 152.316 698.683 151.937 698.683 151.398V151.284C698.683 149.883 698.3 148.794 697.533 148.017C696.775 147.241 695.625 146.852 694.081 146.852C692.481 146.852 691.226 147.203 690.317 147.903C689.408 148.604 688.768 149.352 688.399 150.148L685.217 149.011C685.786 147.686 686.543 146.653 687.49 145.915C688.446 145.167 689.488 144.646 690.615 144.352C691.751 144.049 692.869 143.898 693.967 143.898C694.668 143.898 695.473 143.983 696.382 144.153C697.301 144.314 698.186 144.651 699.038 145.162C699.9 145.673 700.615 146.445 701.183 147.477C701.751 148.509 702.036 149.892 702.036 151.625V166H698.683V163.045H698.513C698.286 163.519 697.907 164.026 697.376 164.565C696.846 165.105 696.141 165.564 695.26 165.943C694.379 166.322 693.304 166.511 692.036 166.511ZM692.547 163.5C693.873 163.5 694.99 163.24 695.899 162.719C696.818 162.198 697.509 161.526 697.973 160.702C698.446 159.878 698.683 159.011 698.683 158.102V155.034C698.541 155.205 698.229 155.361 697.746 155.503C697.272 155.635 696.723 155.754 696.098 155.858C695.482 155.953 694.881 156.038 694.294 156.114C693.716 156.18 693.248 156.237 692.888 156.284C692.017 156.398 691.202 156.582 690.445 156.838C689.696 157.084 689.09 157.458 688.626 157.96C688.172 158.453 687.945 159.125 687.945 159.977C687.945 161.142 688.375 162.023 689.237 162.619C690.108 163.206 691.212 163.5 692.547 163.5ZM711.506 152.875V166H708.154V144.182H711.393V147.591H711.677C712.188 146.483 712.965 145.593 714.006 144.92C715.048 144.239 716.393 143.898 718.04 143.898C719.518 143.898 720.81 144.201 721.918 144.807C723.026 145.403 723.888 146.312 724.504 147.534C725.119 148.746 725.427 150.28 725.427 152.136V166H722.075V152.364C722.075 150.65 721.629 149.314 720.739 148.358C719.849 147.392 718.628 146.909 717.075 146.909C716.004 146.909 715.048 147.141 714.205 147.605C713.372 148.069 712.714 148.746 712.231 149.636C711.748 150.527 711.506 151.606 711.506 152.875ZM570.072 208.034V205.136L582.856 184.909H584.958V189.398H583.538L573.879 204.682V204.909H591.094V208.034H570.072ZM583.765 214V207.153V205.804V184.909H587.117V214H583.765ZM597.327 214L610.338 188.261V188.034H595.338V184.909H613.974V188.205L601.02 214H597.327Z" fill="white"/>
<line x1="487" y1="305" x2="445" y2="305" stroke="white" stroke-width="2"/>
<line x1="444" y1="215" x2="402" y2="215" stroke="white" stroke-width="2"/>
<line x1="445" y1="393" x2="403" y2="393" stroke="white" stroke-width="2"/>
<line x1="445" y1="214" x2="445" y2="393" stroke="white" stroke-width="2"/>
<rect x="531" y="244" width="120" height="120" rx="26" stroke="#DBDBDB" stroke-width="2"/>
<path d="M579.497 318.398C577.622 318.398 575.951 318.076 574.483 317.432C573.025 316.788 571.865 315.893 571.003 314.747C570.151 313.592 569.687 312.252 569.611 310.727H573.19C573.266 311.665 573.588 312.474 574.156 313.156C574.724 313.829 575.468 314.349 576.386 314.719C577.305 315.088 578.323 315.273 579.44 315.273C580.69 315.273 581.798 315.055 582.764 314.619C583.73 314.184 584.488 313.578 585.037 312.801C585.586 312.025 585.861 311.125 585.861 310.102C585.861 309.032 585.596 308.09 585.065 307.276C584.535 306.452 583.759 305.808 582.736 305.344C581.713 304.88 580.463 304.648 578.986 304.648H576.656V301.523H578.986C580.141 301.523 581.154 301.314 582.026 300.898C582.906 300.481 583.593 299.894 584.085 299.136C584.587 298.379 584.838 297.489 584.838 296.466C584.838 295.481 584.62 294.624 584.185 293.895C583.749 293.166 583.134 292.598 582.338 292.19C581.552 291.783 580.624 291.58 579.554 291.58C578.55 291.58 577.603 291.764 576.713 292.134C575.832 292.493 575.113 293.019 574.554 293.71C573.995 294.392 573.692 295.216 573.645 296.182H570.236C570.293 294.657 570.752 293.322 571.614 292.176C572.475 291.021 573.602 290.121 574.994 289.477C576.396 288.833 577.935 288.511 579.611 288.511C581.41 288.511 582.954 288.876 584.241 289.605C585.529 290.325 586.519 291.277 587.21 292.46C587.902 293.644 588.247 294.922 588.247 296.295C588.247 297.934 587.816 299.33 586.955 300.486C586.102 301.641 584.942 302.441 583.474 302.886V303.114C585.312 303.417 586.746 304.198 587.778 305.457C588.811 306.707 589.327 308.256 589.327 310.102C589.327 311.684 588.896 313.104 588.034 314.364C587.182 315.614 586.017 316.598 584.54 317.318C583.063 318.038 581.382 318.398 579.497 318.398ZM595.136 318V315.443L604.739 304.932C605.866 303.701 606.794 302.631 607.523 301.722C608.252 300.803 608.792 299.941 609.142 299.136C609.502 298.322 609.682 297.47 609.682 296.58C609.682 295.557 609.436 294.671 608.943 293.923C608.46 293.175 607.797 292.598 606.955 292.19C606.112 291.783 605.165 291.58 604.114 291.58C602.996 291.58 602.021 291.812 601.188 292.276C600.364 292.73 599.724 293.369 599.27 294.193C598.825 295.017 598.602 295.983 598.602 297.091H595.25C595.25 295.386 595.643 293.89 596.429 292.602C597.215 291.314 598.285 290.311 599.639 289.591C601.003 288.871 602.532 288.511 604.227 288.511C605.932 288.511 607.442 288.871 608.759 289.591C610.075 290.311 611.107 291.281 611.855 292.503C612.603 293.724 612.977 295.083 612.977 296.58C612.977 297.65 612.783 298.696 612.395 299.719C612.016 300.732 611.353 301.864 610.406 303.114C609.469 304.354 608.167 305.869 606.5 307.659L599.966 314.648V314.875H613.489V318H595.136Z" fill="white"/>
<rect x="69" y="648" width="599" height="120" rx="26" stroke="#DBDBDB" stroke-width="2"/>
<rect x="69" y="1495" width="599" height="120" rx="26" stroke="#DBDBDB" stroke-width="2"/>
<line x1="189" y1="647" x2="189" y2="769" stroke="#DBDBDB" stroke-width="2"/>
<line x1="189" y1="1494" x2="189" y2="1616" stroke="#DBDBDB" stroke-width="2"/>
<line x1="309" y1="647" x2="309" y2="769" stroke="#DBDBDB" stroke-width="2"/>
<line x1="309" y1="1494" x2="309" y2="1616" stroke="#DBDBDB" stroke-width="2"/>
<line x1="430" y1="647" x2="430" y2="769" stroke="#DBDBDB" stroke-width="2"/>
<line x1="430" y1="1494" x2="430" y2="1616" stroke="#DBDBDB" stroke-width="2"/>
<line x1="550" y1="647" x2="550" y2="769" stroke="#DBDBDB" stroke-width="2"/>
<line x1="550" y1="1494" x2="550" y2="1616" stroke="#DBDBDB" stroke-width="2"/>
<path d="M119.332 692.909V722H115.81V696.602H115.639L108.537 701.318V697.739L115.81 692.909H119.332ZM127.699 722V719.443L137.301 708.932C138.428 707.701 139.356 706.631 140.085 705.722C140.814 704.803 141.354 703.941 141.705 703.136C142.064 702.322 142.244 701.47 142.244 700.58C142.244 699.557 141.998 698.671 141.506 697.923C141.023 697.175 140.36 696.598 139.517 696.19C138.674 695.783 137.727 695.58 136.676 695.58C135.559 695.58 134.583 695.812 133.75 696.276C132.926 696.73 132.287 697.369 131.832 698.193C131.387 699.017 131.165 699.983 131.165 701.091H127.812C127.812 699.386 128.205 697.89 128.991 696.602C129.777 695.314 130.848 694.311 132.202 693.591C133.565 692.871 135.095 692.511 136.79 692.511C138.494 692.511 140.005 692.871 141.321 693.591C142.637 694.311 143.67 695.281 144.418 696.503C145.166 697.724 145.54 699.083 145.54 700.58C145.54 701.65 145.346 702.696 144.957 703.719C144.579 704.732 143.916 705.864 142.969 707.114C142.031 708.354 140.729 709.869 139.062 711.659L132.528 718.648V718.875H146.051V722H127.699Z" fill="white"/>
<path d="M119.332 1539.91V1569H115.81V1543.6H115.639L108.537 1548.32V1544.74L115.81 1539.91H119.332ZM127.699 1569V1566.44L137.301 1555.93C138.428 1554.7 139.356 1553.63 140.085 1552.72C140.814 1551.8 141.354 1550.94 141.705 1550.14C142.064 1549.32 142.244 1548.47 142.244 1547.58C142.244 1546.56 141.998 1545.67 141.506 1544.92C141.023 1544.18 140.36 1543.6 139.517 1543.19C138.674 1542.78 137.727 1542.58 136.676 1542.58C135.559 1542.58 134.583 1542.81 133.75 1543.28C132.926 1543.73 132.287 1544.37 131.832 1545.19C131.387 1546.02 131.165 1546.98 131.165 1548.09H127.812C127.812 1546.39 128.205 1544.89 128.991 1543.6C129.777 1542.31 130.848 1541.31 132.202 1540.59C133.565 1539.87 135.095 1539.51 136.79 1539.51C138.494 1539.51 140.005 1539.87 141.321 1540.59C142.637 1541.31 143.67 1542.28 144.418 1543.5C145.166 1544.72 145.54 1546.08 145.54 1547.58C145.54 1548.65 145.346 1549.7 144.957 1550.72C144.579 1551.73 143.916 1552.86 142.969 1554.11C142.031 1555.35 140.729 1556.87 139.062 1558.66L132.528 1565.65V1565.88H146.051V1569H127.699Z" fill="white"/>
<path d="M238.961 692.909V722H235.439V696.602H235.268L228.166 701.318V697.739L235.439 692.909H238.961ZM256.589 692.511C257.782 692.521 258.975 692.748 260.169 693.193C261.362 693.638 262.451 694.377 263.436 695.409C264.421 696.432 265.211 697.829 265.808 699.599C266.404 701.37 266.703 703.591 266.703 706.261C266.703 708.847 266.457 711.143 265.964 713.151C265.481 715.149 264.78 716.834 263.862 718.207C262.953 719.58 261.845 720.622 260.538 721.332C259.241 722.043 257.773 722.398 256.135 722.398C254.506 722.398 253.052 722.076 251.774 721.432C250.505 720.778 249.463 719.874 248.649 718.719C247.844 717.554 247.328 716.205 247.1 714.67H250.566C250.879 716.006 251.499 717.109 252.427 717.98C253.365 718.842 254.6 719.273 256.135 719.273C258.379 719.273 260.15 718.293 261.447 716.332C262.754 714.372 263.407 711.602 263.407 708.023H263.18C262.65 708.818 262.02 709.505 261.291 710.082C260.562 710.66 259.752 711.105 258.862 711.418C257.972 711.73 257.025 711.886 256.021 711.886C254.354 711.886 252.825 711.474 251.433 710.651C250.05 709.817 248.942 708.676 248.109 707.227C247.285 705.769 246.873 704.102 246.873 702.227C246.873 700.447 247.271 698.818 248.066 697.341C248.871 695.854 249.998 694.67 251.447 693.79C252.905 692.909 254.619 692.483 256.589 692.511ZM256.589 695.636C255.396 695.636 254.321 695.935 253.365 696.531C252.418 697.118 251.665 697.914 251.106 698.918C250.557 699.912 250.282 701.015 250.282 702.227C250.282 703.439 250.547 704.543 251.078 705.537C251.618 706.522 252.351 707.308 253.279 707.895C254.217 708.473 255.282 708.761 256.475 708.761C257.375 708.761 258.213 708.586 258.99 708.236C259.766 707.876 260.443 707.388 261.021 706.773C261.608 706.148 262.067 705.442 262.399 704.656C262.73 703.861 262.896 703.032 262.896 702.17C262.896 701.034 262.621 699.969 262.072 698.974C261.532 697.98 260.784 697.175 259.828 696.56C258.881 695.944 257.801 695.636 256.589 695.636Z" fill="white"/>
<path d="M238.961 1539.91V1569H235.439V1543.6H235.268L228.166 1548.32V1544.74L235.439 1539.91H238.961ZM256.589 1539.51C257.782 1539.52 258.975 1539.75 260.169 1540.19C261.362 1540.64 262.451 1541.38 263.436 1542.41C264.421 1543.43 265.211 1544.83 265.808 1546.6C266.404 1548.37 266.703 1550.59 266.703 1553.26C266.703 1555.85 266.457 1558.14 265.964 1560.15C265.481 1562.15 264.78 1563.83 263.862 1565.21C262.953 1566.58 261.845 1567.62 260.538 1568.33C259.241 1569.04 257.773 1569.4 256.135 1569.4C254.506 1569.4 253.052 1569.08 251.774 1568.43C250.505 1567.78 249.463 1566.87 248.649 1565.72C247.844 1564.55 247.328 1563.2 247.1 1561.67H250.566C250.879 1563.01 251.499 1564.11 252.427 1564.98C253.365 1565.84 254.6 1566.27 256.135 1566.27C258.379 1566.27 260.15 1565.29 261.447 1563.33C262.754 1561.37 263.407 1558.6 263.407 1555.02H263.18C262.65 1555.82 262.02 1556.5 261.291 1557.08C260.562 1557.66 259.752 1558.11 258.862 1558.42C257.972 1558.73 257.025 1558.89 256.021 1558.89C254.354 1558.89 252.825 1558.47 251.433 1557.65C250.05 1556.82 248.942 1555.68 248.109 1554.23C247.285 1552.77 246.873 1551.1 246.873 1549.23C246.873 1547.45 247.271 1545.82 248.066 1544.34C248.871 1542.85 249.998 1541.67 251.447 1540.79C252.905 1539.91 254.619 1539.48 256.589 1539.51ZM256.589 1542.64C255.396 1542.64 254.321 1542.93 253.365 1543.53C252.418 1544.12 251.665 1544.91 251.106 1545.92C250.557 1546.91 250.282 1548.02 250.282 1549.23C250.282 1550.44 250.547 1551.54 251.078 1552.54C251.618 1553.52 252.351 1554.31 253.279 1554.89C254.217 1555.47 255.282 1555.76 256.475 1555.76C257.375 1555.76 258.213 1555.59 258.99 1555.24C259.766 1554.88 260.443 1554.39 261.021 1553.77C261.608 1553.15 262.067 1552.44 262.399 1551.66C262.73 1550.86 262.896 1550.03 262.896 1549.17C262.896 1548.03 262.621 1546.97 262.072 1545.97C261.532 1544.98 260.784 1544.18 259.828 1543.56C258.881 1542.94 257.801 1542.64 256.589 1542.64Z" fill="white"/>
<path d="M347.976 722V719.443L357.578 708.932C358.705 707.701 359.633 706.631 360.363 705.722C361.092 704.803 361.632 703.941 361.982 703.136C362.342 702.322 362.522 701.47 362.522 700.58C362.522 699.557 362.275 698.671 361.783 697.923C361.3 697.175 360.637 696.598 359.794 696.19C358.952 695.783 358.005 695.58 356.953 695.58C355.836 695.58 354.861 695.812 354.027 696.276C353.203 696.73 352.564 697.369 352.11 698.193C351.665 699.017 351.442 699.983 351.442 701.091H348.09C348.09 699.386 348.483 697.89 349.269 696.602C350.055 695.314 351.125 694.311 352.479 693.591C353.843 692.871 355.372 692.511 357.067 692.511C358.772 692.511 360.282 692.871 361.598 693.591C362.915 694.311 363.947 695.281 364.695 696.503C365.443 697.724 365.817 699.083 365.817 700.58C365.817 701.65 365.623 702.696 365.235 703.719C364.856 704.732 364.193 705.864 363.246 707.114C362.309 708.354 361.007 709.869 359.34 711.659L352.806 718.648V718.875H366.328V722H347.976ZM373.104 722L386.115 696.261V696.034H371.115V692.909H389.752V696.205L376.797 722H373.104Z" fill="white"/>
<path d="M347.976 1569V1566.44L357.578 1555.93C358.705 1554.7 359.633 1553.63 360.363 1552.72C361.092 1551.8 361.632 1550.94 361.982 1550.14C362.342 1549.32 362.522 1548.47 362.522 1547.58C362.522 1546.56 362.275 1545.67 361.783 1544.92C361.3 1544.18 360.637 1543.6 359.794 1543.19C358.952 1542.78 358.005 1542.58 356.953 1542.58C355.836 1542.58 354.861 1542.81 354.027 1543.28C353.203 1543.73 352.564 1544.37 352.11 1545.19C351.665 1546.02 351.442 1546.98 351.442 1548.09H348.09C348.09 1546.39 348.483 1544.89 349.269 1543.6C350.055 1542.31 351.125 1541.31 352.479 1540.59C353.843 1539.87 355.372 1539.51 357.067 1539.51C358.772 1539.51 360.282 1539.87 361.598 1540.59C362.915 1541.31 363.947 1542.28 364.695 1543.5C365.443 1544.72 365.817 1546.08 365.817 1547.58C365.817 1548.65 365.623 1549.7 365.235 1550.72C364.856 1551.73 364.193 1552.86 363.246 1554.11C362.309 1555.35 361.007 1556.87 359.34 1558.66L352.806 1565.65V1565.88H366.328V1569H347.976ZM373.104 1569L386.115 1543.26V1543.03H371.115V1539.91H389.752V1543.2L376.797 1569H373.104Z" fill="white"/>
<path d="M476.497 722.398C474.622 722.398 472.951 722.076 471.483 721.432C470.025 720.788 468.865 719.893 468.003 718.747C467.151 717.592 466.687 716.252 466.611 714.727H470.19C470.266 715.665 470.588 716.474 471.156 717.156C471.724 717.829 472.468 718.349 473.386 718.719C474.305 719.088 475.323 719.273 476.44 719.273C477.69 719.273 478.798 719.055 479.764 718.619C480.73 718.184 481.488 717.578 482.037 716.801C482.586 716.025 482.861 715.125 482.861 714.102C482.861 713.032 482.596 712.09 482.065 711.276C481.535 710.452 480.759 709.808 479.736 709.344C478.713 708.88 477.463 708.648 475.986 708.648H473.656V705.523H475.986C477.141 705.523 478.154 705.314 479.026 704.898C479.906 704.481 480.593 703.894 481.085 703.136C481.587 702.379 481.838 701.489 481.838 700.466C481.838 699.481 481.62 698.624 481.185 697.895C480.749 697.166 480.134 696.598 479.338 696.19C478.552 695.783 477.624 695.58 476.554 695.58C475.55 695.58 474.603 695.764 473.713 696.134C472.832 696.493 472.113 697.019 471.554 697.71C470.995 698.392 470.692 699.216 470.645 700.182H467.236C467.293 698.657 467.752 697.322 468.614 696.176C469.475 695.021 470.602 694.121 471.994 693.477C473.396 692.833 474.935 692.511 476.611 692.511C478.41 692.511 479.954 692.876 481.241 693.605C482.529 694.325 483.519 695.277 484.21 696.46C484.902 697.644 485.247 698.922 485.247 700.295C485.247 701.934 484.816 703.33 483.955 704.486C483.102 705.641 481.942 706.441 480.474 706.886V707.114C482.312 707.417 483.746 708.198 484.778 709.457C485.811 710.707 486.327 712.256 486.327 714.102C486.327 715.684 485.896 717.104 485.034 718.364C484.182 719.614 483.017 720.598 481.54 721.318C480.063 722.038 478.382 722.398 476.497 722.398ZM492.136 722V719.443L501.739 708.932C502.866 707.701 503.794 706.631 504.523 705.722C505.252 704.803 505.792 703.941 506.142 703.136C506.502 702.322 506.682 701.47 506.682 700.58C506.682 699.557 506.436 698.671 505.943 697.923C505.46 697.175 504.797 696.598 503.955 696.19C503.112 695.783 502.165 695.58 501.114 695.58C499.996 695.58 499.021 695.812 498.188 696.276C497.364 696.73 496.724 697.369 496.27 698.193C495.825 699.017 495.602 699.983 495.602 701.091H492.25C492.25 699.386 492.643 697.89 493.429 696.602C494.215 695.314 495.285 694.311 496.639 693.591C498.003 692.871 499.532 692.511 501.227 692.511C502.932 692.511 504.442 692.871 505.759 693.591C507.075 694.311 508.107 695.281 508.855 696.503C509.603 697.724 509.977 699.083 509.977 700.58C509.977 701.65 509.783 702.696 509.395 703.719C509.016 704.732 508.353 705.864 507.406 707.114C506.469 708.354 505.167 709.869 503.5 711.659L496.966 718.648V718.875H510.489V722H492.136Z" fill="white"/>
<path d="M476.497 1569.4C474.622 1569.4 472.951 1569.08 471.483 1568.43C470.025 1567.79 468.865 1566.89 468.003 1565.75C467.151 1564.59 466.687 1563.25 466.611 1561.73H470.19C470.266 1562.66 470.588 1563.47 471.156 1564.16C471.724 1564.83 472.468 1565.35 473.386 1565.72C474.305 1566.09 475.323 1566.27 476.44 1566.27C477.69 1566.27 478.798 1566.05 479.764 1565.62C480.73 1565.18 481.488 1564.58 482.037 1563.8C482.586 1563.02 482.861 1562.12 482.861 1561.1C482.861 1560.03 482.596 1559.09 482.065 1558.28C481.535 1557.45 480.759 1556.81 479.736 1556.34C478.713 1555.88 477.463 1555.65 475.986 1555.65H473.656V1552.52H475.986C477.141 1552.52 478.154 1552.31 479.026 1551.9C479.906 1551.48 480.593 1550.89 481.085 1550.14C481.587 1549.38 481.838 1548.49 481.838 1547.47C481.838 1546.48 481.62 1545.62 481.185 1544.89C480.749 1544.17 480.134 1543.6 479.338 1543.19C478.552 1542.78 477.624 1542.58 476.554 1542.58C475.55 1542.58 474.603 1542.76 473.713 1543.13C472.832 1543.49 472.113 1544.02 471.554 1544.71C470.995 1545.39 470.692 1546.22 470.645 1547.18H467.236C467.293 1545.66 467.752 1544.32 468.614 1543.18C469.475 1542.02 470.602 1541.12 471.994 1540.48C473.396 1539.83 474.935 1539.51 476.611 1539.51C478.41 1539.51 479.954 1539.88 481.241 1540.61C482.529 1541.32 483.519 1542.28 484.21 1543.46C484.902 1544.64 485.247 1545.92 485.247 1547.3C485.247 1548.93 484.816 1550.33 483.955 1551.49C483.102 1552.64 481.942 1553.44 480.474 1553.89V1554.11C482.312 1554.42 483.746 1555.2 484.778 1556.46C485.811 1557.71 486.327 1559.26 486.327 1561.1C486.327 1562.68 485.896 1564.1 485.034 1565.36C484.182 1566.61 483.017 1567.6 481.54 1568.32C480.063 1569.04 478.382 1569.4 476.497 1569.4ZM492.136 1569V1566.44L501.739 1555.93C502.866 1554.7 503.794 1553.63 504.523 1552.72C505.252 1551.8 505.792 1550.94 506.142 1550.14C506.502 1549.32 506.682 1548.47 506.682 1547.58C506.682 1546.56 506.436 1545.67 505.943 1544.92C505.46 1544.18 504.797 1543.6 503.955 1543.19C503.112 1542.78 502.165 1542.58 501.114 1542.58C499.996 1542.58 499.021 1542.81 498.188 1543.28C497.364 1543.73 496.724 1544.37 496.27 1545.19C495.825 1546.02 495.602 1546.98 495.602 1548.09H492.25C492.25 1546.39 492.643 1544.89 493.429 1543.6C494.215 1542.31 495.285 1541.31 496.639 1540.59C498.003 1539.87 499.532 1539.51 501.227 1539.51C502.932 1539.51 504.442 1539.87 505.759 1540.59C507.075 1541.31 508.107 1542.28 508.855 1543.5C509.603 1544.72 509.977 1546.08 509.977 1547.58C509.977 1548.65 509.783 1549.7 509.395 1550.72C509.016 1551.73 508.353 1552.86 507.406 1554.11C506.469 1555.35 505.167 1556.87 503.5 1558.66L496.966 1565.65V1565.88H510.489V1569H492.136Z" fill="white"/>
<path d="M586.572 1563.03V1560.14L599.356 1539.91H601.458V1544.4H600.038L590.379 1559.68V1559.91H607.594V1563.03H586.572ZM600.265 1569V1562.15V1560.8V1539.91H603.617V1569H600.265ZM613.827 1569L626.838 1543.26V1543.03H611.838V1539.91H630.474V1543.2L617.52 1569H613.827Z" fill="white"/>
</svg>
