<svg width="738" height="1284" viewBox="0 0 738 1284" fill="none" xmlns="http://www.w3.org/2000/svg">
<path d="M428 984H521C535.912 984 548 996.088 548 1011V1079C548 1093.91 535.912 1106 521 1106H428V984Z" fill="#995E00"/>
<rect x="120" y="153" width="120" height="122" fill="#995E00"/>
<path d="M429 1189C429 1174.09 416.912 1162 402 1162H309V1284H402C416.912 1284 429 1271.91 429 1257V1189Z" fill="#540099"/>
<path d="M360 358C360 343.088 347.912 331 333 331H240V453H333C347.912 453 360 440.912 360 426V358Z" fill="#540099"/>
<rect x="531" y="243" width="120" height="122" rx="27" fill="#995E00"/>
<path d="M160.575 26.0938H154.353C154.24 25.2888 154.008 24.5739 153.657 23.9489C153.307 23.3144 152.857 22.7746 152.308 22.3295C151.759 21.8845 151.124 21.5436 150.404 21.3068C149.694 21.0701 148.922 20.9517 148.089 20.9517C146.583 20.9517 145.272 21.3258 144.154 22.0739C143.037 22.8125 142.171 23.892 141.555 25.3125C140.94 26.7235 140.632 28.4375 140.632 30.4545C140.632 32.5284 140.94 34.2708 141.555 35.6818C142.18 37.0928 143.051 38.1581 144.169 38.8778C145.286 39.5975 146.579 39.9574 148.047 39.9574C148.87 39.9574 149.633 39.8485 150.333 39.6307C151.044 39.4129 151.673 39.0956 152.223 38.679C152.772 38.2528 153.226 37.7367 153.586 37.1307C153.956 36.5246 154.211 35.8333 154.353 35.0568L160.575 35.0852C160.414 36.4205 160.011 37.7083 159.368 38.9489C158.733 40.1799 157.876 41.2831 156.797 42.2585C155.726 43.2244 154.448 43.9915 152.961 44.5597C151.484 45.1184 149.813 45.3977 147.947 45.3977C145.352 45.3977 143.032 44.8106 140.987 43.6364C138.951 42.4621 137.341 40.7623 136.157 38.5369C134.983 36.3116 134.396 33.6174 134.396 30.4545C134.396 27.2822 134.993 24.5833 136.186 22.358C137.379 20.1326 138.998 18.4375 141.044 17.2727C143.089 16.0985 145.39 15.5114 147.947 15.5114C149.633 15.5114 151.195 15.7481 152.635 16.2216C154.083 16.6951 155.367 17.3864 156.484 18.2955C157.601 19.1951 158.511 20.2983 159.211 21.6051C159.922 22.9119 160.376 24.4081 160.575 26.0938ZM174.73 45.4261C172.523 45.4261 170.615 44.9574 169.005 44.0199C167.405 43.0729 166.169 41.7566 165.298 40.071C164.427 38.3759 163.991 36.411 163.991 34.1761C163.991 31.9223 164.427 29.9527 165.298 28.267C166.169 26.572 167.405 25.2557 169.005 24.3182C170.615 23.3712 172.523 22.8977 174.73 22.8977C176.936 22.8977 178.84 23.3712 180.44 24.3182C182.05 25.2557 183.29 26.572 184.162 28.267C185.033 29.9527 185.468 31.9223 185.468 34.1761C185.468 36.411 185.033 38.3759 184.162 40.071C183.29 41.7566 182.05 43.0729 180.44 44.0199C178.84 44.9574 176.936 45.4261 174.73 45.4261ZM174.758 40.7386C175.762 40.7386 176.6 40.4545 177.272 39.8864C177.945 39.3087 178.451 38.5227 178.792 37.5284C179.143 36.5341 179.318 35.4025 179.318 34.1335C179.318 32.8646 179.143 31.733 178.792 30.7386C178.451 29.7443 177.945 28.9583 177.272 28.3807C176.6 27.803 175.762 27.5142 174.758 27.5142C173.745 27.5142 172.893 27.803 172.201 28.3807C171.52 28.9583 171.003 29.7443 170.653 30.7386C170.312 31.733 170.142 32.8646 170.142 34.1335C170.142 35.4025 170.312 36.5341 170.653 37.5284C171.003 38.5227 171.52 39.3087 172.201 39.8864C172.893 40.4545 173.745 40.7386 174.758 40.7386ZM189.403 45V23.1818H195.17V27.0312H195.426C195.88 25.7528 196.638 24.7443 197.699 24.0057C198.759 23.267 200.028 22.8977 201.505 22.8977C203.002 22.8977 204.275 23.2718 205.326 24.0199C206.377 24.7585 207.078 25.7623 207.429 27.0312H207.656C208.101 25.7812 208.906 24.7822 210.071 24.0341C211.245 23.2765 212.632 22.8977 214.233 22.8977C216.269 22.8977 217.921 23.5464 219.19 24.8438C220.468 26.1316 221.108 27.9593 221.108 30.3267V45H215.071V31.5199C215.071 30.3078 214.749 29.3987 214.105 28.7926C213.461 28.1866 212.656 27.8835 211.69 27.8835C210.592 27.8835 209.734 28.2339 209.119 28.9347C208.503 29.6259 208.196 30.5398 208.196 31.6761V45H202.329V31.392C202.329 30.322 202.021 29.4697 201.406 28.8352C200.8 28.2008 200 27.8835 199.005 27.8835C198.333 27.8835 197.727 28.054 197.187 28.3949C196.657 28.7263 196.235 29.1951 195.923 29.8011C195.61 30.3977 195.454 31.0985 195.454 31.9034V45H189.403ZM225.887 53.1818V23.1818H231.853V26.8466H232.123C232.388 26.2595 232.772 25.6629 233.274 25.0568C233.785 24.4413 234.448 23.9299 235.262 23.5227C236.086 23.1061 237.109 22.8977 238.331 22.8977C239.922 22.8977 241.389 23.3144 242.734 24.1477C244.079 24.9716 245.154 26.2169 245.958 27.8835C246.763 29.5407 247.166 31.6193 247.166 34.1193C247.166 36.553 246.773 38.608 245.987 40.2841C245.21 41.9508 244.15 43.215 242.805 44.0767C241.47 44.929 239.974 45.3551 238.316 45.3551C237.142 45.3551 236.143 45.161 235.319 44.7727C234.505 44.3845 233.837 43.8968 233.316 43.3097C232.796 42.7131 232.398 42.1117 232.123 41.5057H231.939V53.1818H225.887ZM231.811 34.0909C231.811 35.3883 231.991 36.5199 232.35 37.4858C232.71 38.4517 233.231 39.2045 233.913 39.7443C234.595 40.2746 235.423 40.5398 236.399 40.5398C237.384 40.5398 238.217 40.2699 238.899 39.7301C239.581 39.1809 240.097 38.4233 240.447 37.4574C240.807 36.482 240.987 35.3598 240.987 34.0909C240.987 32.8314 240.812 31.7235 240.461 30.767C240.111 29.8106 239.595 29.0625 238.913 28.5227C238.231 27.983 237.393 27.7131 236.399 27.7131C235.414 27.7131 234.581 27.9735 233.899 28.4943C233.226 29.0152 232.71 29.7538 232.35 30.7102C231.991 31.6667 231.811 32.7936 231.811 34.0909ZM257.422 45.4119C256.029 45.4119 254.789 45.1705 253.7 44.6875C252.611 44.1951 251.749 43.4706 251.115 42.5142C250.49 41.5483 250.177 40.3456 250.177 38.9062C250.177 37.6941 250.4 36.6761 250.845 35.8523C251.29 35.0284 251.896 34.3655 252.663 33.8636C253.43 33.3617 254.301 32.983 255.277 32.7273C256.261 32.4716 257.294 32.2917 258.373 32.1875C259.642 32.0549 260.665 31.9318 261.441 31.8182C262.218 31.6951 262.781 31.5152 263.132 31.2784C263.482 31.0417 263.657 30.6913 263.657 30.2273V30.142C263.657 29.2424 263.373 28.5464 262.805 28.054C262.246 27.5616 261.451 27.3153 260.419 27.3153C259.33 27.3153 258.463 27.5568 257.819 28.0398C257.175 28.5133 256.749 29.1098 256.541 29.8295L250.944 29.375C251.228 28.0492 251.787 26.9034 252.62 25.9375C253.454 24.9621 254.529 24.214 255.845 23.6932C257.171 23.1629 258.705 22.8977 260.447 22.8977C261.659 22.8977 262.819 23.0398 263.927 23.3239C265.045 23.608 266.034 24.0483 266.896 24.6449C267.767 25.2415 268.454 26.0085 268.956 26.946C269.458 27.8741 269.708 28.9867 269.708 30.2841V45H263.97V41.9744H263.799C263.449 42.6562 262.98 43.2576 262.393 43.7784C261.806 44.2898 261.1 44.6922 260.277 44.9858C259.453 45.2699 258.501 45.4119 257.422 45.4119ZM259.154 41.2358C260.045 41.2358 260.831 41.0606 261.512 40.7102C262.194 40.3504 262.729 39.8674 263.118 39.2614C263.506 38.6553 263.7 37.9687 263.7 37.2017V34.8864C263.511 35.0095 263.25 35.1231 262.919 35.2273C262.597 35.322 262.232 35.4119 261.825 35.4972C261.418 35.5729 261.011 35.6439 260.603 35.7102C260.196 35.767 259.827 35.8191 259.495 35.8665C258.785 35.9706 258.165 36.1364 257.635 36.3636C257.104 36.5909 256.692 36.8987 256.399 37.2869C256.105 37.6657 255.958 38.1392 255.958 38.7074C255.958 39.5312 256.257 40.161 256.853 40.5966C257.459 41.0227 258.226 41.2358 259.154 41.2358ZM274.403 45V23.1818H280.27V26.9886H280.497C280.895 25.6345 281.562 24.6117 282.5 23.9205C283.437 23.2197 284.517 22.8693 285.738 22.8693C286.041 22.8693 286.368 22.8883 286.718 22.9261C287.069 22.964 287.377 23.0161 287.642 23.0824V28.4517C287.358 28.3665 286.965 28.2907 286.463 28.2244C285.961 28.1581 285.502 28.125 285.085 28.125C284.195 28.125 283.399 28.3191 282.699 28.7074C282.007 29.0862 281.458 29.6165 281.051 30.2983C280.653 30.9801 280.454 31.7661 280.454 32.6562V45H274.403ZM299.698 45.4261C297.453 45.4261 295.522 44.9716 293.902 44.0625C292.292 43.1439 291.052 41.8466 290.181 40.1705C289.31 38.4848 288.874 36.4915 288.874 34.1903C288.874 31.946 289.31 29.9763 290.181 28.2812C291.052 26.5862 292.278 25.2652 293.86 24.3182C295.451 23.3712 297.316 22.8977 299.456 22.8977C300.896 22.8977 302.236 23.1297 303.476 23.5938C304.726 24.0483 305.815 24.7348 306.743 25.6534C307.681 26.572 308.41 27.7273 308.931 29.1193C309.452 30.5019 309.712 32.1212 309.712 33.9773V35.6392H291.289V31.8892H304.016C304.016 31.018 303.827 30.2462 303.448 29.5739C303.069 28.9015 302.543 28.3759 301.871 27.9972C301.208 27.6089 300.436 27.4148 299.556 27.4148C298.637 27.4148 297.823 27.6278 297.113 28.054C296.412 28.4706 295.863 29.0341 295.465 29.7443C295.067 30.4451 294.864 31.2263 294.854 32.0881V35.6534C294.854 36.733 295.053 37.6657 295.451 38.4517C295.858 39.2377 296.431 39.8438 297.169 40.2699C297.908 40.696 298.784 40.9091 299.797 40.9091C300.47 40.9091 301.085 40.8144 301.644 40.625C302.203 40.4356 302.681 40.1515 303.078 39.7727C303.476 39.3939 303.779 38.9299 303.988 38.3807L309.584 38.75C309.3 40.0947 308.718 41.2689 307.837 42.2727C306.966 43.267 305.839 44.0436 304.456 44.6023C303.083 45.1515 301.497 45.4261 299.698 45.4261ZM348.7 26.0938H342.478C342.365 25.2888 342.133 24.5739 341.782 23.9489C341.432 23.3144 340.982 22.7746 340.433 22.3295C339.884 21.8845 339.249 21.5436 338.529 21.3068C337.819 21.0701 337.047 20.9517 336.214 20.9517C334.708 20.9517 333.397 21.3258 332.279 22.0739C331.162 22.8125 330.296 23.892 329.68 25.3125C329.065 26.7235 328.757 28.4375 328.757 30.4545C328.757 32.5284 329.065 34.2708 329.68 35.6818C330.305 37.0928 331.176 38.1581 332.294 38.8778C333.411 39.5975 334.704 39.9574 336.172 39.9574C336.995 39.9574 337.758 39.8485 338.458 39.6307C339.169 39.4129 339.798 39.0956 340.348 38.679C340.897 38.2528 341.351 37.7367 341.711 37.1307C342.081 36.5246 342.336 35.8333 342.478 35.0568L348.7 35.0852C348.539 36.4205 348.136 37.7083 347.493 38.9489C346.858 40.1799 346.001 41.2831 344.922 42.2585C343.851 43.2244 342.573 43.9915 341.086 44.5597C339.609 45.1184 337.938 45.3977 336.072 45.3977C333.477 45.3977 331.157 44.8106 329.112 43.6364C327.076 42.4621 325.466 40.7623 324.282 38.5369C323.108 36.3116 322.521 33.6174 322.521 30.4545C322.521 27.2822 323.118 24.5833 324.311 22.358C325.504 20.1326 327.123 18.4375 329.169 17.2727C331.214 16.0985 333.515 15.5114 336.072 15.5114C337.758 15.5114 339.32 15.7481 340.76 16.2216C342.208 16.6951 343.492 17.3864 344.609 18.2955C345.726 19.1951 346.636 20.2983 347.336 21.6051C348.047 22.9119 348.501 24.4081 348.7 26.0938ZM366.988 35.7102V23.1818H373.039V45H367.23V41.0369H367.002C366.51 42.3153 365.691 43.3428 364.545 44.1193C363.409 44.8958 362.021 45.2841 360.383 45.2841C358.925 45.2841 357.642 44.9527 356.534 44.2898C355.426 43.6269 354.559 42.6847 353.934 41.4631C353.319 40.2415 353.006 38.7784 352.997 37.0739V23.1818H359.048V35.9943C359.057 37.2822 359.403 38.3002 360.085 39.0483C360.767 39.7964 361.681 40.1705 362.826 40.1705C363.556 40.1705 364.237 40.0047 364.872 39.6733C365.506 39.3324 366.018 38.8305 366.406 38.1676C366.804 37.5047 366.998 36.6856 366.988 35.7102ZM377.88 45V23.1818H383.746V26.9886H383.973C384.371 25.6345 385.039 24.6117 385.976 23.9205C386.914 23.2197 387.993 22.8693 389.215 22.8693C389.518 22.8693 389.845 22.8883 390.195 22.9261C390.545 22.964 390.853 23.0161 391.118 23.0824V28.4517C390.834 28.3665 390.441 28.2907 389.939 28.2244C389.437 28.1581 388.978 28.125 388.561 28.125C387.671 28.125 386.876 28.3191 386.175 28.7074C385.484 29.0862 384.935 29.6165 384.527 30.2983C384.13 30.9801 383.931 31.7661 383.931 32.6562V45H377.88ZM394.247 45V23.1818H400.113V26.9886H400.341C400.738 25.6345 401.406 24.6117 402.343 23.9205C403.281 23.2197 404.36 22.8693 405.582 22.8693C405.885 22.8693 406.212 22.8883 406.562 22.9261C406.913 22.964 407.22 23.0161 407.485 23.0824V28.4517C407.201 28.3665 406.808 28.2907 406.306 28.2244C405.805 28.1581 405.345 28.125 404.929 28.125C404.038 28.125 403.243 28.3191 402.542 28.7074C401.851 29.0862 401.302 29.6165 400.895 30.2983C400.497 30.9801 400.298 31.7661 400.298 32.6562V45H394.247ZM419.542 45.4261C417.297 45.4261 415.365 44.9716 413.746 44.0625C412.136 43.1439 410.896 41.8466 410.025 40.1705C409.153 38.4848 408.718 36.4915 408.718 34.1903C408.718 31.946 409.153 29.9763 410.025 28.2812C410.896 26.5862 412.122 25.2652 413.703 24.3182C415.294 23.3712 417.16 22.8977 419.3 22.8977C420.739 22.8977 422.079 23.1297 423.32 23.5938C424.57 24.0483 425.659 24.7348 426.587 25.6534C427.525 26.572 428.254 27.7273 428.775 29.1193C429.295 30.5019 429.556 32.1212 429.556 33.9773V35.6392H411.132V31.8892H423.86C423.86 31.018 423.67 30.2462 423.292 29.5739C422.913 28.9015 422.387 28.3759 421.715 27.9972C421.052 27.6089 420.28 27.4148 419.4 27.4148C418.481 27.4148 417.667 27.6278 416.956 28.054C416.256 28.4706 415.706 29.0341 415.309 29.7443C414.911 30.4451 414.707 31.2263 414.698 32.0881V35.6534C414.698 36.733 414.897 37.6657 415.294 38.4517C415.702 39.2377 416.275 39.8438 417.013 40.2699C417.752 40.696 418.628 40.9091 419.641 40.9091C420.313 40.9091 420.929 40.8144 421.488 40.625C422.046 40.4356 422.525 40.1515 422.922 39.7727C423.32 39.3939 423.623 38.9299 423.831 38.3807L429.428 38.75C429.144 40.0947 428.561 41.2689 427.681 42.2727C426.81 43.267 425.683 44.0436 424.3 44.6023C422.927 45.1515 421.341 45.4261 419.542 45.4261ZM439.556 32.3864V45H433.505V23.1818H439.272V27.0312H439.527C440.01 25.7623 440.82 24.7585 441.956 24.0199C443.093 23.2718 444.471 22.8977 446.09 22.8977C447.605 22.8977 448.926 23.2292 450.053 23.892C451.18 24.5549 452.056 25.5019 452.681 26.733C453.306 27.9545 453.618 29.4129 453.618 31.108V45H447.567V32.1875C447.577 30.8523 447.236 29.8106 446.544 29.0625C445.853 28.3049 444.901 27.9261 443.689 27.9261C442.875 27.9261 442.155 28.1013 441.53 28.4517C440.915 28.8021 440.432 29.3134 440.081 29.9858C439.74 30.6487 439.565 31.4489 439.556 32.3864ZM469.993 23.1818V27.7273H456.853V23.1818H469.993ZM459.836 17.9545H465.887V38.2955C465.887 38.8542 465.973 39.2898 466.143 39.6023C466.314 39.9053 466.55 40.1184 466.853 40.2415C467.166 40.3646 467.526 40.4261 467.933 40.4261C468.217 40.4261 468.501 40.4025 468.785 40.3551C469.069 40.2983 469.287 40.2557 469.439 40.2273L470.39 44.7301C470.087 44.8248 469.661 44.9337 469.112 45.0568C468.563 45.1894 467.895 45.2699 467.109 45.2983C465.651 45.3551 464.372 45.161 463.274 44.7159C462.185 44.2708 461.337 43.5795 460.731 42.642C460.125 41.7045 459.827 40.5208 459.836 39.0909V17.9545ZM483.306 45V15.9091H489.456V27.9119H501.942V15.9091H508.078V45H501.942V32.983H489.456V45H483.306ZM522.979 45.4261C520.735 45.4261 518.803 44.9716 517.184 44.0625C515.574 43.1439 514.333 41.8466 513.462 40.1705C512.591 38.4848 512.155 36.4915 512.155 34.1903C512.155 31.946 512.591 29.9763 513.462 28.2812C514.333 26.5862 515.56 25.2652 517.141 24.3182C518.732 23.3712 520.597 22.8977 522.738 22.8977C524.177 22.8977 525.517 23.1297 526.757 23.5938C528.007 24.0483 529.096 24.7348 530.025 25.6534C530.962 26.572 531.691 27.7273 532.212 29.1193C532.733 30.5019 532.993 32.1212 532.993 33.9773V35.6392H514.57V31.8892H527.297C527.297 31.018 527.108 30.2462 526.729 29.5739C526.35 28.9015 525.825 28.3759 525.152 27.9972C524.489 27.6089 523.718 27.4148 522.837 27.4148C521.918 27.4148 521.104 27.6278 520.394 28.054C519.693 28.4706 519.144 29.0341 518.746 29.7443C518.348 30.4451 518.145 31.2263 518.135 32.0881V35.6534C518.135 36.733 518.334 37.6657 518.732 38.4517C519.139 39.2377 519.712 39.8438 520.451 40.2699C521.189 40.696 522.065 40.9091 523.078 40.9091C523.751 40.9091 524.366 40.8144 524.925 40.625C525.484 40.4356 525.962 40.1515 526.36 39.7727C526.757 39.3939 527.06 38.9299 527.269 38.3807L532.865 38.75C532.581 40.0947 531.999 41.2689 531.118 42.2727C530.247 43.267 529.12 44.0436 527.738 44.6023C526.364 45.1515 524.778 45.4261 522.979 45.4261ZM543.164 45.4119C541.772 45.4119 540.531 45.1705 539.442 44.6875C538.353 44.1951 537.491 43.4706 536.857 42.5142C536.232 41.5483 535.919 40.3456 535.919 38.9062C535.919 37.6941 536.142 36.6761 536.587 35.8523C537.032 35.0284 537.638 34.3655 538.405 33.8636C539.172 33.3617 540.043 32.983 541.019 32.7273C542.004 32.4716 543.036 32.2917 544.115 32.1875C545.384 32.0549 546.407 31.9318 547.184 31.8182C547.96 31.6951 548.524 31.5152 548.874 31.2784C549.224 31.0417 549.4 30.6913 549.4 30.2273V30.142C549.4 29.2424 549.115 28.5464 548.547 28.054C547.989 27.5616 547.193 27.3153 546.161 27.3153C545.072 27.3153 544.205 27.5568 543.561 28.0398C542.917 28.5133 542.491 29.1098 542.283 29.8295L536.686 29.375C536.971 28.0492 537.529 26.9034 538.363 25.9375C539.196 24.9621 540.271 24.214 541.587 23.6932C542.913 23.1629 544.447 22.8977 546.189 22.8977C547.401 22.8977 548.561 23.0398 549.669 23.3239C550.787 23.608 551.776 24.0483 552.638 24.6449C553.509 25.2415 554.196 26.0085 554.698 26.946C555.2 27.8741 555.451 28.9867 555.451 30.2841V45H549.712V41.9744H549.542C549.191 42.6562 548.722 43.2576 548.135 43.7784C547.548 44.2898 546.843 44.6922 546.019 44.9858C545.195 45.2699 544.243 45.4119 543.164 45.4119ZM544.897 41.2358C545.787 41.2358 546.573 41.0606 547.255 40.7102C547.936 40.3504 548.471 39.8674 548.86 39.2614C549.248 38.6553 549.442 37.9687 549.442 37.2017V34.8864C549.253 35.0095 548.992 35.1231 548.661 35.2273C548.339 35.322 547.974 35.4119 547.567 35.4972C547.16 35.5729 546.753 35.6439 546.346 35.7102C545.938 35.767 545.569 35.8191 545.238 35.8665C544.527 35.9706 543.907 36.1364 543.377 36.3636C542.846 36.5909 542.435 36.8987 542.141 37.2869C541.847 37.6657 541.701 38.1392 541.701 38.7074C541.701 39.5312 541.999 40.161 542.596 40.5966C543.202 41.0227 543.969 41.2358 544.897 41.2358ZM568.185 45.3551C566.528 45.3551 565.027 44.929 563.682 44.0767C562.347 43.215 561.286 41.9508 560.5 40.2841C559.724 38.608 559.336 36.553 559.336 34.1193C559.336 31.6193 559.738 29.5407 560.543 27.8835C561.348 26.2169 562.418 24.9716 563.753 24.1477C565.098 23.3144 566.57 22.8977 568.171 22.8977C569.392 22.8977 570.41 23.1061 571.225 23.5227C572.049 23.9299 572.712 24.4413 573.213 25.0568C573.725 25.6629 574.113 26.2595 574.378 26.8466H574.563V15.9091H580.6V45H574.634V41.5057H574.378C574.094 42.1117 573.692 42.7131 573.171 43.3097C572.659 43.8968 571.992 44.3845 571.168 44.7727C570.354 45.161 569.359 45.3551 568.185 45.3551ZM570.103 40.5398C571.078 40.5398 571.902 40.2746 572.574 39.7443C573.256 39.2045 573.777 38.4517 574.137 37.4858C574.506 36.5199 574.691 35.3883 574.691 34.0909C574.691 32.7936 574.511 31.6667 574.151 30.7102C573.791 29.7538 573.27 29.0152 572.588 28.4943C571.907 27.9735 571.078 27.7131 570.103 27.7131C569.108 27.7131 568.27 27.983 567.588 28.5227C566.907 29.0625 566.391 29.8106 566.04 30.767C565.69 31.7235 565.515 32.8314 565.515 34.0909C565.515 35.3598 565.69 36.482 566.04 37.4574C566.4 38.4233 566.916 39.1809 567.588 39.7301C568.27 40.2699 569.108 40.5398 570.103 40.5398ZM603.728 29.4034L598.189 29.7443C598.094 29.2708 597.89 28.8447 597.578 28.4659C597.265 28.0777 596.853 27.7699 596.342 27.5426C595.84 27.3059 595.239 27.1875 594.538 27.1875C593.6 27.1875 592.81 27.3864 592.166 27.7841C591.522 28.1723 591.2 28.6932 591.2 29.3466C591.2 29.8674 591.408 30.3078 591.825 30.6676C592.242 31.0275 592.957 31.3163 593.97 31.5341L597.919 32.3295C600.04 32.7652 601.621 33.4659 602.663 34.4318C603.705 35.3977 604.225 36.6667 604.225 38.2386C604.225 39.6686 603.804 40.9233 602.961 42.0028C602.128 43.0824 600.982 43.9252 599.524 44.5312C598.075 45.1278 596.404 45.4261 594.51 45.4261C591.621 45.4261 589.32 44.8248 587.606 43.6222C585.902 42.41 584.903 40.7623 584.609 38.679L590.561 38.3665C590.741 39.2472 591.176 39.9195 591.868 40.3835C592.559 40.8381 593.444 41.0653 594.524 41.0653C595.584 41.0653 596.437 40.8617 597.081 40.4545C597.734 40.0379 598.065 39.5028 598.075 38.8494C598.065 38.3002 597.833 37.8504 597.379 37.5C596.924 37.1402 596.224 36.8655 595.277 36.6761L591.498 35.9233C589.368 35.4972 587.781 34.7585 586.74 33.7074C585.708 32.6562 585.191 31.3163 585.191 29.6875C585.191 28.286 585.57 27.0786 586.328 26.0653C587.095 25.0521 588.17 24.2708 589.552 23.7216C590.944 23.1723 592.573 22.8977 594.439 22.8977C597.194 22.8977 599.363 23.4801 600.944 24.6449C602.535 25.8097 603.463 27.3958 603.728 29.4034Z" fill="white"/>
<path d="M223.457 602H216.866L226.908 572.909H234.835L244.863 602H238.272L230.985 579.557H230.758L223.457 602ZM223.045 590.565H238.613V595.366H223.045V590.565ZM255.275 602.355C253.618 602.355 252.117 601.929 250.772 601.077C249.437 600.215 248.376 598.951 247.59 597.284C246.814 595.608 246.425 593.553 246.425 591.119C246.425 588.619 246.828 586.541 247.633 584.884C248.438 583.217 249.508 581.972 250.843 581.148C252.188 580.314 253.66 579.898 255.261 579.898C256.482 579.898 257.5 580.106 258.315 580.523C259.138 580.93 259.801 581.441 260.303 582.057C260.815 582.663 261.203 583.259 261.468 583.847H261.653V572.909H267.69V602H261.724V598.506H261.468C261.184 599.112 260.781 599.713 260.261 600.31C259.749 600.897 259.082 601.384 258.258 601.773C257.443 602.161 256.449 602.355 255.275 602.355ZM257.192 597.54C258.168 597.54 258.992 597.275 259.664 596.744C260.346 596.205 260.867 595.452 261.227 594.486C261.596 593.52 261.781 592.388 261.781 591.091C261.781 589.794 261.601 588.667 261.241 587.71C260.881 586.754 260.36 586.015 259.678 585.494C258.996 584.973 258.168 584.713 257.192 584.713C256.198 584.713 255.36 584.983 254.678 585.523C253.996 586.062 253.48 586.811 253.13 587.767C252.78 588.723 252.604 589.831 252.604 591.091C252.604 592.36 252.78 593.482 253.13 594.457C253.49 595.423 254.006 596.181 254.678 596.73C255.36 597.27 256.198 597.54 257.192 597.54ZM280.705 602.355C279.047 602.355 277.546 601.929 276.202 601.077C274.866 600.215 273.806 598.951 273.02 597.284C272.243 595.608 271.855 593.553 271.855 591.119C271.855 588.619 272.258 586.541 273.062 584.884C273.867 583.217 274.938 581.972 276.273 581.148C277.617 580.314 279.09 579.898 280.69 579.898C281.912 579.898 282.93 580.106 283.744 580.523C284.568 580.93 285.231 581.441 285.733 582.057C286.244 582.663 286.633 583.259 286.898 583.847H287.082V572.909H293.119V602H287.153V598.506H286.898C286.614 599.112 286.211 599.713 285.69 600.31C285.179 600.897 284.511 601.384 283.688 601.773C282.873 602.161 281.879 602.355 280.705 602.355ZM282.622 597.54C283.598 597.54 284.421 597.275 285.094 596.744C285.776 596.205 286.296 595.452 286.656 594.486C287.026 593.52 287.21 592.388 287.21 591.091C287.21 589.794 287.03 588.667 286.67 587.71C286.311 586.754 285.79 586.015 285.108 585.494C284.426 584.973 283.598 584.713 282.622 584.713C281.628 584.713 280.79 584.983 280.108 585.523C279.426 586.062 278.91 586.811 278.56 587.767C278.209 588.723 278.034 589.831 278.034 591.091C278.034 592.36 278.209 593.482 278.56 594.457C278.92 595.423 279.436 596.181 280.108 596.73C280.79 597.27 281.628 597.54 282.622 597.54ZM318.957 580.182V584.727H305.818V580.182H318.957ZM308.801 574.955H314.852V595.295C314.852 595.854 314.938 596.29 315.108 596.602C315.278 596.905 315.515 597.118 315.818 597.241C316.131 597.365 316.491 597.426 316.898 597.426C317.182 597.426 317.466 597.402 317.75 597.355C318.034 597.298 318.252 597.256 318.403 597.227L319.355 601.73C319.052 601.825 318.626 601.934 318.077 602.057C317.527 602.189 316.86 602.27 316.074 602.298C314.616 602.355 313.337 602.161 312.239 601.716C311.15 601.271 310.302 600.58 309.696 599.642C309.09 598.705 308.792 597.521 308.801 596.091V574.955ZM332.523 602.426C330.316 602.426 328.408 601.957 326.798 601.02C325.198 600.073 323.962 598.757 323.091 597.071C322.22 595.376 321.784 593.411 321.784 591.176C321.784 588.922 322.22 586.953 323.091 585.267C323.962 583.572 325.198 582.256 326.798 581.318C328.408 580.371 330.316 579.898 332.523 579.898C334.729 579.898 336.633 580.371 338.233 581.318C339.843 582.256 341.083 583.572 341.955 585.267C342.826 586.953 343.261 588.922 343.261 591.176C343.261 593.411 342.826 595.376 341.955 597.071C341.083 598.757 339.843 600.073 338.233 601.02C336.633 601.957 334.729 602.426 332.523 602.426ZM332.551 597.739C333.555 597.739 334.393 597.455 335.065 596.886C335.738 596.309 336.244 595.523 336.585 594.528C336.936 593.534 337.111 592.402 337.111 591.134C337.111 589.865 336.936 588.733 336.585 587.739C336.244 586.744 335.738 585.958 335.065 585.381C334.393 584.803 333.555 584.514 332.551 584.514C331.538 584.514 330.686 584.803 329.994 585.381C329.313 585.958 328.796 586.744 328.446 587.739C328.105 588.733 327.935 589.865 327.935 591.134C327.935 592.402 328.105 593.534 328.446 594.528C328.796 595.523 329.313 596.309 329.994 596.886C330.686 597.455 331.538 597.739 332.551 597.739ZM380.9 572.909V602H375.587L362.931 583.69H362.718V602H356.567V572.909H361.965L374.522 591.205H374.778V572.909H380.9ZM395.811 602.426C393.567 602.426 391.635 601.972 390.016 601.062C388.406 600.144 387.165 598.847 386.294 597.17C385.423 595.485 384.987 593.491 384.987 591.19C384.987 588.946 385.423 586.976 386.294 585.281C387.165 583.586 388.392 582.265 389.973 581.318C391.564 580.371 393.429 579.898 395.57 579.898C397.009 579.898 398.349 580.13 399.589 580.594C400.839 581.048 401.929 581.735 402.857 582.653C403.794 583.572 404.523 584.727 405.044 586.119C405.565 587.502 405.825 589.121 405.825 590.977V592.639H387.402V588.889H400.129C400.129 588.018 399.94 587.246 399.561 586.574C399.182 585.902 398.657 585.376 397.984 584.997C397.321 584.609 396.55 584.415 395.669 584.415C394.75 584.415 393.936 584.628 393.226 585.054C392.525 585.471 391.976 586.034 391.578 586.744C391.18 587.445 390.977 588.226 390.967 589.088V592.653C390.967 593.733 391.166 594.666 391.564 595.452C391.971 596.238 392.544 596.844 393.283 597.27C394.021 597.696 394.897 597.909 395.911 597.909C396.583 597.909 397.198 597.814 397.757 597.625C398.316 597.436 398.794 597.152 399.192 596.773C399.589 596.394 399.893 595.93 400.101 595.381L405.697 595.75C405.413 597.095 404.831 598.269 403.95 599.273C403.079 600.267 401.952 601.044 400.57 601.602C399.196 602.152 397.61 602.426 395.811 602.426ZM413.922 602L407.984 580.182H414.107L417.487 594.841H417.686L421.209 580.182H427.217L430.797 594.756H430.982L434.305 580.182H440.413L434.49 602H428.084L424.334 588.278H424.064L420.314 602H413.922ZM453.013 602V572.909H464.49C466.696 572.909 468.576 573.33 470.129 574.173C471.682 575.007 472.866 576.167 473.68 577.653C474.504 579.131 474.916 580.835 474.916 582.767C474.916 584.699 474.5 586.403 473.666 587.881C472.833 589.358 471.625 590.509 470.044 591.332C468.472 592.156 466.569 592.568 464.334 592.568H457.018V587.639H463.339C464.523 587.639 465.499 587.436 466.266 587.028C467.042 586.612 467.62 586.039 467.999 585.31C468.387 584.571 468.581 583.723 468.581 582.767C468.581 581.801 468.387 580.958 467.999 580.239C467.62 579.509 467.042 578.946 466.266 578.548C465.489 578.141 464.504 577.938 463.311 577.938H459.163V602H453.013ZM478.798 602V580.182H484.849V602H478.798ZM481.837 577.369C480.938 577.369 480.166 577.071 479.522 576.474C478.888 575.868 478.57 575.144 478.57 574.301C478.57 573.468 478.888 572.753 479.522 572.156C480.166 571.55 480.938 571.247 481.837 571.247C482.737 571.247 483.504 571.55 484.138 572.156C484.782 572.753 485.104 573.468 485.104 574.301C485.104 575.144 484.782 575.868 484.138 576.474C483.504 577.071 482.737 577.369 481.837 577.369ZM495.747 572.909V602H489.696V572.909H495.747ZM510.538 602.426C508.293 602.426 506.362 601.972 504.742 601.062C503.132 600.144 501.892 598.847 501.021 597.17C500.149 595.485 499.714 593.491 499.714 591.19C499.714 588.946 500.149 586.976 501.021 585.281C501.892 583.586 503.118 582.265 504.7 581.318C506.29 580.371 508.156 579.898 510.296 579.898C511.736 579.898 513.076 580.13 514.316 580.594C515.566 581.048 516.655 581.735 517.583 582.653C518.521 583.572 519.25 584.727 519.771 586.119C520.291 587.502 520.552 589.121 520.552 590.977V592.639H502.129V588.889H514.856C514.856 588.018 514.666 587.246 514.288 586.574C513.909 585.902 513.383 585.376 512.711 584.997C512.048 584.609 511.276 584.415 510.396 584.415C509.477 584.415 508.663 584.628 507.952 585.054C507.252 585.471 506.702 586.034 506.305 586.744C505.907 587.445 505.703 588.226 505.694 589.088V592.653C505.694 593.733 505.893 594.666 506.29 595.452C506.698 596.238 507.271 596.844 508.009 597.27C508.748 597.696 509.624 597.909 510.637 597.909C511.309 597.909 511.925 597.814 512.484 597.625C513.042 597.436 513.521 597.152 513.918 596.773C514.316 596.394 514.619 595.93 514.827 595.381L520.424 595.75C520.14 597.095 519.558 598.269 518.677 599.273C517.806 600.267 516.679 601.044 515.296 601.602C513.923 602.152 512.337 602.426 510.538 602.426Z" fill="white"/>
<path d="M210.845 904.909H216.995V923.801C216.995 925.922 216.489 927.778 215.475 929.369C214.472 930.96 213.065 932.201 211.257 933.091C209.448 933.972 207.341 934.412 204.936 934.412C202.521 934.412 200.409 933.972 198.6 933.091C196.792 932.201 195.386 930.96 194.382 929.369C193.378 927.778 192.876 925.922 192.876 923.801V904.909H199.027V923.276C199.027 924.384 199.268 925.368 199.751 926.23C200.243 927.092 200.935 927.769 201.825 928.261C202.715 928.754 203.752 929 204.936 929C206.129 929 207.166 928.754 208.047 928.261C208.937 927.769 209.623 927.092 210.106 926.23C210.599 925.368 210.845 924.384 210.845 923.276V904.909ZM221.942 942.182V912.182H227.908V915.847H228.178C228.443 915.259 228.827 914.663 229.328 914.057C229.84 913.441 230.503 912.93 231.317 912.523C232.141 912.106 233.164 911.898 234.385 911.898C235.976 911.898 237.444 912.314 238.789 913.148C240.133 913.972 241.208 915.217 242.013 916.884C242.818 918.541 243.221 920.619 243.221 923.119C243.221 925.553 242.828 927.608 242.042 929.284C241.265 930.951 240.204 932.215 238.86 933.077C237.525 933.929 236.028 934.355 234.371 934.355C233.197 934.355 232.198 934.161 231.374 933.773C230.56 933.384 229.892 932.897 229.371 932.31C228.85 931.713 228.453 931.112 228.178 930.506H227.993V942.182H221.942ZM227.865 923.091C227.865 924.388 228.045 925.52 228.405 926.486C228.765 927.452 229.286 928.205 229.968 928.744C230.65 929.275 231.478 929.54 232.453 929.54C233.438 929.54 234.272 929.27 234.953 928.73C235.635 928.181 236.151 927.423 236.502 926.457C236.862 925.482 237.042 924.36 237.042 923.091C237.042 921.831 236.866 920.723 236.516 919.767C236.166 918.811 235.65 918.062 234.968 917.523C234.286 916.983 233.448 916.713 232.453 916.713C231.469 916.713 230.635 916.973 229.953 917.494C229.281 918.015 228.765 918.754 228.405 919.71C228.045 920.667 227.865 921.794 227.865 923.091ZM255.294 934.355C253.637 934.355 252.136 933.929 250.792 933.077C249.456 932.215 248.396 930.951 247.61 929.284C246.833 927.608 246.445 925.553 246.445 923.119C246.445 920.619 246.847 918.541 247.652 916.884C248.457 915.217 249.527 913.972 250.863 913.148C252.207 912.314 253.68 911.898 255.28 911.898C256.502 911.898 257.52 912.106 258.334 912.523C259.158 912.93 259.821 913.441 260.323 914.057C260.834 914.663 261.222 915.259 261.488 915.847H261.672V904.909H267.709V934H261.743V930.506H261.488C261.203 931.112 260.801 931.713 260.28 932.31C259.769 932.897 259.101 933.384 258.277 933.773C257.463 934.161 256.469 934.355 255.294 934.355ZM257.212 929.54C258.187 929.54 259.011 929.275 259.684 928.744C260.365 928.205 260.886 927.452 261.246 926.486C261.615 925.52 261.8 924.388 261.8 923.091C261.8 921.794 261.62 920.667 261.26 919.71C260.9 918.754 260.38 918.015 259.698 917.494C259.016 916.973 258.187 916.713 257.212 916.713C256.218 916.713 255.38 916.983 254.698 917.523C254.016 918.062 253.5 918.811 253.15 919.767C252.799 920.723 252.624 921.831 252.624 923.091C252.624 924.36 252.799 925.482 253.15 926.457C253.509 927.423 254.025 928.181 254.698 928.73C255.38 929.27 256.218 929.54 257.212 929.54ZM278.906 934.412C277.514 934.412 276.273 934.17 275.184 933.688C274.095 933.195 273.234 932.471 272.599 931.514C271.974 930.548 271.662 929.346 271.662 927.906C271.662 926.694 271.884 925.676 272.329 924.852C272.774 924.028 273.38 923.366 274.147 922.864C274.914 922.362 275.786 921.983 276.761 921.727C277.746 921.472 278.778 921.292 279.858 921.188C281.127 921.055 282.149 920.932 282.926 920.818C283.702 920.695 284.266 920.515 284.616 920.278C284.967 920.042 285.142 919.691 285.142 919.227V919.142C285.142 918.242 284.858 917.546 284.289 917.054C283.731 916.562 282.935 916.315 281.903 916.315C280.814 916.315 279.948 916.557 279.304 917.04C278.66 917.513 278.234 918.11 278.025 918.83L272.429 918.375C272.713 917.049 273.271 915.903 274.105 914.938C274.938 913.962 276.013 913.214 277.329 912.693C278.655 912.163 280.189 911.898 281.931 911.898C283.144 911.898 284.304 912.04 285.412 912.324C286.529 912.608 287.519 913.048 288.38 913.645C289.252 914.241 289.938 915.009 290.44 915.946C290.942 916.874 291.193 917.987 291.193 919.284V934H285.454V930.974H285.284C284.933 931.656 284.465 932.258 283.877 932.778C283.29 933.29 282.585 933.692 281.761 933.986C280.937 934.27 279.985 934.412 278.906 934.412ZM280.639 930.236C281.529 930.236 282.315 930.061 282.997 929.71C283.679 929.35 284.214 928.867 284.602 928.261C284.99 927.655 285.184 926.969 285.184 926.202V923.886C284.995 924.009 284.734 924.123 284.403 924.227C284.081 924.322 283.717 924.412 283.309 924.497C282.902 924.573 282.495 924.644 282.088 924.71C281.681 924.767 281.311 924.819 280.98 924.866C280.27 924.971 279.649 925.136 279.119 925.364C278.589 925.591 278.177 925.899 277.883 926.287C277.59 926.666 277.443 927.139 277.443 927.707C277.443 928.531 277.741 929.161 278.338 929.597C278.944 930.023 279.711 930.236 280.639 930.236ZM307.493 912.182V916.727H294.353V912.182H307.493ZM297.336 906.955H303.387V927.295C303.387 927.854 303.473 928.29 303.643 928.602C303.814 928.905 304.05 929.118 304.353 929.241C304.666 929.365 305.026 929.426 305.433 929.426C305.717 929.426 306.001 929.402 306.285 929.355C306.569 929.298 306.787 929.256 306.939 929.227L307.89 933.73C307.587 933.825 307.161 933.934 306.612 934.057C306.063 934.189 305.395 934.27 304.609 934.298C303.151 934.355 301.872 934.161 300.774 933.716C299.685 933.271 298.837 932.58 298.231 931.642C297.625 930.705 297.327 929.521 297.336 928.091V906.955ZM321.143 934.426C318.899 934.426 316.967 933.972 315.348 933.062C313.738 932.144 312.497 930.847 311.626 929.17C310.755 927.485 310.319 925.491 310.319 923.19C310.319 920.946 310.755 918.976 311.626 917.281C312.497 915.586 313.724 914.265 315.305 913.318C316.896 912.371 318.761 911.898 320.902 911.898C322.341 911.898 323.681 912.13 324.922 912.594C326.172 913.048 327.261 913.735 328.189 914.653C329.126 915.572 329.855 916.727 330.376 918.119C330.897 919.502 331.157 921.121 331.157 922.977V924.639H312.734V920.889H325.461C325.461 920.018 325.272 919.246 324.893 918.574C324.514 917.902 323.989 917.376 323.316 916.997C322.654 916.609 321.882 916.415 321.001 916.415C320.083 916.415 319.268 916.628 318.558 917.054C317.857 917.471 317.308 918.034 316.91 918.744C316.512 919.445 316.309 920.226 316.299 921.088V924.653C316.299 925.733 316.498 926.666 316.896 927.452C317.303 928.238 317.876 928.844 318.615 929.27C319.353 929.696 320.229 929.909 321.243 929.909C321.915 929.909 322.53 929.814 323.089 929.625C323.648 929.436 324.126 929.152 324.524 928.773C324.922 928.394 325.225 927.93 325.433 927.381L331.029 927.75C330.745 929.095 330.163 930.269 329.282 931.273C328.411 932.267 327.284 933.044 325.902 933.602C324.529 934.152 322.942 934.426 321.143 934.426ZM344.478 934V904.909H355.955C358.161 904.909 360.041 905.33 361.594 906.173C363.147 907.007 364.331 908.167 365.145 909.653C365.969 911.131 366.381 912.835 366.381 914.767C366.381 916.699 365.964 918.403 365.131 919.881C364.298 921.358 363.09 922.509 361.509 923.332C359.937 924.156 358.033 924.568 355.799 924.568H348.483V919.639H354.804C355.988 919.639 356.963 919.436 357.73 919.028C358.507 918.612 359.085 918.039 359.463 917.31C359.852 916.571 360.046 915.723 360.046 914.767C360.046 913.801 359.852 912.958 359.463 912.239C359.085 911.509 358.507 910.946 357.73 910.548C356.954 910.141 355.969 909.938 354.776 909.938H350.628V934H344.478ZM370.262 934V912.182H376.314V934H370.262ZM373.302 909.369C372.403 909.369 371.631 909.071 370.987 908.474C370.352 907.868 370.035 907.144 370.035 906.301C370.035 905.468 370.352 904.753 370.987 904.156C371.631 903.55 372.403 903.247 373.302 903.247C374.202 903.247 374.969 903.55 375.603 904.156C376.247 904.753 376.569 905.468 376.569 906.301C376.569 907.144 376.247 907.868 375.603 908.474C374.969 909.071 374.202 909.369 373.302 909.369ZM387.212 904.909V934H381.161V904.909H387.212ZM402.002 934.426C399.758 934.426 397.826 933.972 396.207 933.062C394.597 932.144 393.357 930.847 392.485 929.17C391.614 927.485 391.179 925.491 391.179 923.19C391.179 920.946 391.614 918.976 392.485 917.281C393.357 915.586 394.583 914.265 396.164 913.318C397.755 912.371 399.621 911.898 401.761 911.898C403.2 911.898 404.54 912.13 405.781 912.594C407.031 913.048 408.12 913.735 409.048 914.653C409.985 915.572 410.715 916.727 411.235 918.119C411.756 919.502 412.017 921.121 412.017 922.977V924.639H393.593V920.889H406.321C406.321 920.018 406.131 919.246 405.752 918.574C405.374 917.902 404.848 917.376 404.176 916.997C403.513 916.609 402.741 916.415 401.86 916.415C400.942 916.415 400.127 916.628 399.417 917.054C398.717 917.471 398.167 918.034 397.77 918.744C397.372 919.445 397.168 920.226 397.159 921.088V924.653C397.159 925.733 397.358 926.666 397.755 927.452C398.163 928.238 398.735 928.844 399.474 929.27C400.213 929.696 401.089 929.909 402.102 929.909C402.774 929.909 403.39 929.814 403.949 929.625C404.507 929.436 404.985 929.152 405.383 928.773C405.781 928.394 406.084 927.93 406.292 927.381L411.889 927.75C411.605 929.095 411.022 930.269 410.142 931.273C409.27 932.267 408.144 933.044 406.761 933.602C405.388 934.152 403.802 934.426 402.002 934.426ZM425.337 934V904.909H431.488V916.912H443.973V904.909H450.11V934H443.973V921.983H431.488V934H425.337ZM465.01 934.426C462.766 934.426 460.834 933.972 459.215 933.062C457.605 932.144 456.364 930.847 455.493 929.17C454.622 927.485 454.186 925.491 454.186 923.19C454.186 920.946 454.622 918.976 455.493 917.281C456.364 915.586 457.591 914.265 459.172 913.318C460.763 912.371 462.629 911.898 464.769 911.898C466.208 911.898 467.548 912.13 468.789 912.594C470.039 913.048 471.128 913.735 472.056 914.653C472.993 915.572 473.722 916.727 474.243 918.119C474.764 919.502 475.025 921.121 475.025 922.977V924.639H456.601V920.889H469.328C469.328 920.018 469.139 919.246 468.76 918.574C468.382 917.902 467.856 917.376 467.184 916.997C466.521 916.609 465.749 916.415 464.868 916.415C463.95 916.415 463.135 916.628 462.425 917.054C461.724 917.471 461.175 918.034 460.777 918.744C460.38 919.445 460.176 920.226 460.167 921.088V924.653C460.167 925.733 460.365 926.666 460.763 927.452C461.17 928.238 461.743 928.844 462.482 929.27C463.221 929.696 464.096 929.909 465.11 929.909C465.782 929.909 466.398 929.814 466.956 929.625C467.515 929.436 467.993 929.152 468.391 928.773C468.789 928.394 469.092 927.93 469.3 927.381L474.897 927.75C474.613 929.095 474.03 930.269 473.15 931.273C472.278 932.267 471.151 933.044 469.769 933.602C468.396 934.152 466.81 934.426 465.01 934.426ZM485.195 934.412C483.803 934.412 482.562 934.17 481.473 933.688C480.384 933.195 479.523 932.471 478.888 931.514C478.263 930.548 477.951 929.346 477.951 927.906C477.951 926.694 478.173 925.676 478.618 924.852C479.063 924.028 479.669 923.366 480.436 922.864C481.203 922.362 482.075 921.983 483.05 921.727C484.035 921.472 485.067 921.292 486.147 921.188C487.416 921.055 488.438 920.932 489.215 920.818C489.991 920.695 490.555 920.515 490.905 920.278C491.256 920.042 491.431 919.691 491.431 919.227V919.142C491.431 918.242 491.147 917.546 490.578 917.054C490.02 916.562 489.224 916.315 488.192 916.315C487.103 916.315 486.237 916.557 485.593 917.04C484.949 917.513 484.523 918.11 484.314 918.83L478.718 918.375C479.002 917.049 479.56 915.903 480.394 914.938C481.227 913.962 482.302 913.214 483.618 912.693C484.944 912.163 486.478 911.898 488.221 911.898C489.433 911.898 490.593 912.04 491.701 912.324C492.818 912.608 493.808 913.048 494.669 913.645C495.541 914.241 496.227 915.009 496.729 915.946C497.231 916.874 497.482 917.987 497.482 919.284V934H491.743V930.974H491.573C491.222 931.656 490.754 932.258 490.167 932.778C489.579 933.29 488.874 933.692 488.05 933.986C487.226 934.27 486.275 934.412 485.195 934.412ZM486.928 930.236C487.818 930.236 488.604 930.061 489.286 929.71C489.968 929.35 490.503 928.867 490.891 928.261C491.279 927.655 491.473 926.969 491.473 926.202V923.886C491.284 924.009 491.024 924.123 490.692 924.227C490.37 924.322 490.006 924.412 489.598 924.497C489.191 924.573 488.784 924.644 488.377 924.71C487.97 924.767 487.6 924.819 487.269 924.866C486.559 924.971 485.938 925.136 485.408 925.364C484.878 925.591 484.466 925.899 484.172 926.287C483.879 926.666 483.732 927.139 483.732 927.707C483.732 928.531 484.03 929.161 484.627 929.597C485.233 930.023 486 930.236 486.928 930.236ZM510.216 934.355C508.559 934.355 507.058 933.929 505.713 933.077C504.378 932.215 503.318 930.951 502.532 929.284C501.755 927.608 501.367 925.553 501.367 923.119C501.367 920.619 501.769 918.541 502.574 916.884C503.379 915.217 504.449 913.972 505.784 913.148C507.129 912.314 508.602 911.898 510.202 911.898C511.424 911.898 512.442 912.106 513.256 912.523C514.08 912.93 514.743 913.441 515.245 914.057C515.756 914.663 516.144 915.259 516.409 915.847H516.594V904.909H522.631V934H516.665V930.506H516.409C516.125 931.112 515.723 931.713 515.202 932.31C514.691 932.897 514.023 933.384 513.199 933.773C512.385 934.161 511.391 934.355 510.216 934.355ZM512.134 929.54C513.109 929.54 513.933 929.275 514.605 928.744C515.287 928.205 515.808 927.452 516.168 926.486C516.537 925.52 516.722 924.388 516.722 923.091C516.722 921.794 516.542 920.667 516.182 919.71C515.822 918.754 515.301 918.015 514.62 917.494C513.938 916.973 513.109 916.713 512.134 916.713C511.14 916.713 510.301 916.983 509.62 917.523C508.938 918.062 508.422 918.811 508.071 919.767C507.721 920.723 507.546 921.831 507.546 923.091C507.546 924.36 507.721 925.482 508.071 926.457C508.431 927.423 508.947 928.181 509.62 928.73C510.301 929.27 511.14 929.54 512.134 929.54ZM545.76 918.403L540.22 918.744C540.125 918.271 539.922 917.845 539.609 917.466C539.297 917.078 538.885 916.77 538.373 916.543C537.871 916.306 537.27 916.188 536.569 916.188C535.632 916.188 534.841 916.386 534.197 916.784C533.553 917.172 533.231 917.693 533.231 918.347C533.231 918.867 533.44 919.308 533.856 919.668C534.273 920.027 534.988 920.316 536.001 920.534L539.95 921.33C542.071 921.765 543.653 922.466 544.694 923.432C545.736 924.398 546.257 925.667 546.257 927.239C546.257 928.669 545.835 929.923 544.993 931.003C544.159 932.082 543.013 932.925 541.555 933.531C540.106 934.128 538.435 934.426 536.541 934.426C533.653 934.426 531.351 933.825 529.637 932.622C527.933 931.41 526.934 929.762 526.64 927.679L532.592 927.366C532.772 928.247 533.208 928.92 533.899 929.384C534.59 929.838 535.475 930.065 536.555 930.065C537.616 930.065 538.468 929.862 539.112 929.455C539.765 929.038 540.097 928.503 540.106 927.849C540.097 927.3 539.865 926.85 539.41 926.5C538.956 926.14 538.255 925.866 537.308 925.676L533.529 924.923C531.399 924.497 529.813 923.759 528.771 922.707C527.739 921.656 527.223 920.316 527.223 918.688C527.223 917.286 527.601 916.079 528.359 915.065C529.126 914.052 530.201 913.271 531.583 912.722C532.975 912.172 534.604 911.898 536.47 911.898C539.225 911.898 541.394 912.48 542.975 913.645C544.566 914.81 545.494 916.396 545.76 918.403Z" fill="white"/>
<rect x="190" y="985" width="358" height="120" rx="26" stroke="#DBDBDB" stroke-width="2"/>
<rect x="1" y="154" width="358" height="120" rx="26" stroke="#DBDBDB" stroke-width="2"/>
<rect x="190" y="985" width="358" height="120" rx="26" stroke="#DBDBDB" stroke-width="2"/>
<rect x="1" y="154" width="358" height="120" rx="26" stroke="#DBDBDB" stroke-width="2"/>
<rect x="190" y="1163" width="238" height="120" rx="26" stroke="#DBDBDB" stroke-width="2"/>
<rect x="121" y="332" width="238" height="120" rx="26" stroke="#DBDBDB" stroke-width="2"/>
<line x1="310" y1="984" x2="310" y2="1106" stroke="#DBDBDB" stroke-width="2"/>
<line x1="121" y1="153" x2="121" y2="275" stroke="#DBDBDB" stroke-width="2"/>
<line x1="430" y1="984" x2="430" y2="1106" stroke="#DBDBDB" stroke-width="2"/>
<line x1="241" y1="153" x2="241" y2="275" stroke="#DBDBDB" stroke-width="2"/>
<line x1="310" y1="1162" x2="310" y2="1284" stroke="#DBDBDB" stroke-width="2"/>
<line x1="241" y1="331" x2="241" y2="453" stroke="#DBDBDB" stroke-width="2"/>
<path d="M347.976 1059V1056.44L357.578 1045.93C358.705 1044.7 359.633 1043.63 360.363 1042.72C361.092 1041.8 361.632 1040.94 361.982 1040.14C362.342 1039.32 362.522 1038.47 362.522 1037.58C362.522 1036.56 362.275 1035.67 361.783 1034.92C361.3 1034.18 360.637 1033.6 359.794 1033.19C358.952 1032.78 358.005 1032.58 356.953 1032.58C355.836 1032.58 354.861 1032.81 354.027 1033.28C353.203 1033.73 352.564 1034.37 352.11 1035.19C351.665 1036.02 351.442 1036.98 351.442 1038.09H348.09C348.09 1036.39 348.483 1034.89 349.269 1033.6C350.055 1032.31 351.125 1031.31 352.479 1030.59C353.843 1029.87 355.372 1029.51 357.067 1029.51C358.772 1029.51 360.282 1029.87 361.598 1030.59C362.915 1031.31 363.947 1032.28 364.695 1033.5C365.443 1034.72 365.817 1036.08 365.817 1037.58C365.817 1038.65 365.623 1039.7 365.235 1040.72C364.856 1041.73 364.193 1042.86 363.246 1044.11C362.309 1045.35 361.007 1046.87 359.34 1048.66L352.806 1055.65V1055.88H366.328V1059H347.976ZM373.104 1059L386.115 1033.26V1033.03H371.115V1029.91H389.752V1033.2L376.797 1059H373.104Z" fill="white"/>
<path d="M158.976 228V225.443L168.578 214.932C169.705 213.701 170.633 212.631 171.363 211.722C172.092 210.803 172.632 209.941 172.982 209.136C173.342 208.322 173.522 207.47 173.522 206.58C173.522 205.557 173.275 204.671 172.783 203.923C172.3 203.175 171.637 202.598 170.794 202.19C169.952 201.783 169.005 201.58 167.953 201.58C166.836 201.58 165.861 201.812 165.027 202.276C164.203 202.73 163.564 203.369 163.11 204.193C162.665 205.017 162.442 205.983 162.442 207.091H159.09C159.09 205.386 159.483 203.89 160.269 202.602C161.055 201.314 162.125 200.311 163.479 199.591C164.843 198.871 166.372 198.511 168.067 198.511C169.772 198.511 171.282 198.871 172.598 199.591C173.915 200.311 174.947 201.281 175.695 202.503C176.443 203.724 176.817 205.083 176.817 206.58C176.817 207.65 176.623 208.696 176.235 209.719C175.856 210.732 175.193 211.864 174.246 213.114C173.309 214.354 172.007 215.869 170.34 217.659L163.806 224.648V224.875H177.328V228H158.976ZM184.104 228L197.115 202.261V202.034H182.115V198.909H200.752V202.205L187.797 228H184.104Z" fill="white"/>
<path d="M240.961 1029.91V1059H237.439V1033.6H237.268L230.166 1038.32V1034.74L237.439 1029.91H240.961ZM258.589 1029.51C259.782 1029.52 260.975 1029.75 262.169 1030.19C263.362 1030.64 264.451 1031.38 265.436 1032.41C266.421 1033.43 267.211 1034.83 267.808 1036.6C268.404 1038.37 268.703 1040.59 268.703 1043.26C268.703 1045.85 268.457 1048.14 267.964 1050.15C267.481 1052.15 266.78 1053.83 265.862 1055.21C264.953 1056.58 263.845 1057.62 262.538 1058.33C261.241 1059.04 259.773 1059.4 258.135 1059.4C256.506 1059.4 255.052 1059.08 253.774 1058.43C252.505 1057.78 251.463 1056.87 250.649 1055.72C249.844 1054.55 249.328 1053.2 249.1 1051.67H252.566C252.879 1053.01 253.499 1054.11 254.427 1054.98C255.365 1055.84 256.6 1056.27 258.135 1056.27C260.379 1056.27 262.15 1055.29 263.447 1053.33C264.754 1051.37 265.407 1048.6 265.407 1045.02H265.18C264.65 1045.82 264.02 1046.5 263.291 1047.08C262.562 1047.66 261.752 1048.11 260.862 1048.42C259.972 1048.73 259.025 1048.89 258.021 1048.89C256.354 1048.89 254.825 1048.47 253.433 1047.65C252.05 1046.82 250.942 1045.68 250.109 1044.23C249.285 1042.77 248.873 1041.1 248.873 1039.23C248.873 1037.45 249.271 1035.82 250.066 1034.34C250.871 1032.85 251.998 1031.67 253.447 1030.79C254.905 1029.91 256.619 1029.48 258.589 1029.51ZM258.589 1032.64C257.396 1032.64 256.321 1032.93 255.365 1033.53C254.418 1034.12 253.665 1034.91 253.106 1035.92C252.557 1036.91 252.282 1038.02 252.282 1039.23C252.282 1040.44 252.547 1041.54 253.078 1042.54C253.618 1043.52 254.351 1044.31 255.279 1044.89C256.217 1045.47 257.282 1045.76 258.475 1045.76C259.375 1045.76 260.213 1045.59 260.99 1045.24C261.766 1044.88 262.443 1044.39 263.021 1043.77C263.608 1043.15 264.067 1042.44 264.399 1041.66C264.73 1040.86 264.896 1040.03 264.896 1039.17C264.896 1038.03 264.621 1036.97 264.072 1035.97C263.532 1034.98 262.784 1034.18 261.828 1033.56C260.881 1032.94 259.801 1032.64 258.589 1032.64Z" fill="white"/>
<path d="M51.9613 198.909V228H48.4386V202.602H48.2681L41.1658 207.318V203.739L48.4386 198.909H51.9613ZM69.5891 198.511C70.7823 198.521 71.9755 198.748 73.1687 199.193C74.3619 199.638 75.4509 200.377 76.4357 201.409C77.4206 202.432 78.2113 203.829 78.8079 205.599C79.4045 207.37 79.7028 209.591 79.7028 212.261C79.7028 214.847 79.4566 217.143 78.9641 219.151C78.4812 221.149 77.7804 222.834 76.8619 224.207C75.9528 225.58 74.8448 226.622 73.538 227.332C72.2406 228.043 70.7728 228.398 69.1346 228.398C67.5058 228.398 66.0522 228.076 64.7738 227.432C63.5049 226.778 62.4632 225.874 61.6488 224.719C60.8439 223.554 60.3278 222.205 60.1005 220.67H63.5664C63.8789 222.006 64.4992 223.109 65.4272 223.98C66.3647 224.842 67.6005 225.273 69.1346 225.273C71.3789 225.273 73.1497 224.293 74.4471 222.332C75.7539 220.372 76.4073 217.602 76.4073 214.023H76.18C75.6497 214.818 75.02 215.505 74.2908 216.082C73.5617 216.66 72.752 217.105 71.8619 217.418C70.9717 217.73 70.0247 217.886 69.021 217.886C67.3543 217.886 65.8249 217.474 64.4329 216.651C63.0503 215.817 61.9424 214.676 61.109 213.227C60.2852 211.769 59.8732 210.102 59.8732 208.227C59.8732 206.447 60.271 204.818 61.0664 203.341C61.8713 201.854 62.9982 200.67 64.4471 199.79C65.9054 198.909 67.6194 198.483 69.5891 198.511ZM69.5891 201.636C68.396 201.636 67.3211 201.935 66.3647 202.531C65.4177 203.118 64.6649 203.914 64.1062 204.918C63.5569 205.912 63.2823 207.015 63.2823 208.227C63.2823 209.439 63.5475 210.543 64.0778 211.537C64.6175 212.522 65.3514 213.308 66.2795 213.895C67.217 214.473 68.2823 214.761 69.4755 214.761C70.3751 214.761 71.2132 214.586 71.9897 214.236C72.7662 213.876 73.4433 213.388 74.021 212.773C74.6081 212.148 75.0674 211.442 75.3988 210.656C75.7302 209.861 75.896 209.032 75.896 208.17C75.896 207.034 75.6213 205.969 75.0721 204.974C74.5323 203.98 73.7842 203.175 72.8278 202.56C71.8808 201.944 70.8013 201.636 69.5891 201.636Z" fill="white"/>
<path d="M240.332 1207.91V1237H236.81V1211.6H236.639L229.537 1216.32V1212.74L236.81 1207.91H240.332ZM248.699 1237V1234.44L258.301 1223.93C259.428 1222.7 260.356 1221.63 261.085 1220.72C261.814 1219.8 262.354 1218.94 262.705 1218.14C263.064 1217.32 263.244 1216.47 263.244 1215.58C263.244 1214.56 262.998 1213.67 262.506 1212.92C262.023 1212.18 261.36 1211.6 260.517 1211.19C259.674 1210.78 258.727 1210.58 257.676 1210.58C256.559 1210.58 255.583 1210.81 254.75 1211.28C253.926 1211.73 253.287 1212.37 252.832 1213.19C252.387 1214.02 252.165 1214.98 252.165 1216.09H248.812C248.812 1214.39 249.205 1212.89 249.991 1211.6C250.777 1210.31 251.848 1209.31 253.202 1208.59C254.565 1207.87 256.095 1207.51 257.79 1207.51C259.494 1207.51 261.005 1207.87 262.321 1208.59C263.637 1209.31 264.67 1210.28 265.418 1211.5C266.166 1212.72 266.54 1214.08 266.54 1215.58C266.54 1216.65 266.346 1217.7 265.957 1218.72C265.579 1219.73 264.916 1220.86 263.969 1222.11C263.031 1223.35 261.729 1224.87 260.062 1226.66L253.528 1233.65V1233.88H267.051V1237H248.699Z" fill="white"/>
<path d="M171.332 376.909V406H167.81V380.602H167.639L160.537 385.318V381.739L167.81 376.909H171.332ZM179.699 406V403.443L189.301 392.932C190.428 391.701 191.356 390.631 192.085 389.722C192.814 388.803 193.354 387.941 193.705 387.136C194.064 386.322 194.244 385.47 194.244 384.58C194.244 383.557 193.998 382.671 193.506 381.923C193.023 381.175 192.36 380.598 191.517 380.19C190.674 379.783 189.727 379.58 188.676 379.58C187.559 379.58 186.583 379.812 185.75 380.276C184.926 380.73 184.287 381.369 183.832 382.193C183.387 383.017 183.165 383.983 183.165 385.091H179.812C179.812 383.386 180.205 381.89 180.991 380.602C181.777 379.314 182.848 378.311 184.202 377.591C185.565 376.871 187.095 376.511 188.79 376.511C190.494 376.511 192.005 376.871 193.321 377.591C194.637 378.311 195.67 379.281 196.418 380.503C197.166 381.724 197.54 383.083 197.54 384.58C197.54 385.65 197.346 386.696 196.957 387.719C196.579 388.732 195.916 389.864 194.969 391.114C194.031 392.354 192.729 393.869 191.062 395.659L184.528 402.648V402.875H198.051V406H179.699Z" fill="white"/>
<path d="M466.572 1053.03V1050.14L479.356 1029.91H481.458V1034.4H480.038L470.379 1049.68V1049.91H487.594V1053.03H466.572ZM480.265 1059V1052.15V1050.8V1029.91H483.617V1059H480.265ZM493.827 1059L506.838 1033.26V1033.03H491.838V1029.91H510.474V1033.2L497.52 1059H493.827Z" fill="white"/>
<path d="M277.572 222.034V219.136L290.356 198.909H292.458V203.398H291.038L281.379 218.682V218.909H298.594V222.034H277.572ZM291.265 228V221.153V219.804V198.909H294.617V228H291.265ZM304.827 228L317.838 202.261V202.034H302.838V198.909H321.474V202.205L308.52 228H304.827Z" fill="white"/>
<path d="M356.497 1237.4C354.622 1237.4 352.951 1237.08 351.483 1236.43C350.025 1235.79 348.865 1234.89 348.003 1233.75C347.151 1232.59 346.687 1231.25 346.611 1229.73H350.19C350.266 1230.66 350.588 1231.47 351.156 1232.16C351.724 1232.83 352.468 1233.35 353.386 1233.72C354.305 1234.09 355.323 1234.27 356.44 1234.27C357.69 1234.27 358.798 1234.05 359.764 1233.62C360.73 1233.18 361.488 1232.58 362.037 1231.8C362.586 1231.02 362.861 1230.12 362.861 1229.1C362.861 1228.03 362.596 1227.09 362.065 1226.28C361.535 1225.45 360.759 1224.81 359.736 1224.34C358.713 1223.88 357.463 1223.65 355.986 1223.65H353.656V1220.52H355.986C357.141 1220.52 358.154 1220.31 359.026 1219.9C359.906 1219.48 360.593 1218.89 361.085 1218.14C361.587 1217.38 361.838 1216.49 361.838 1215.47C361.838 1214.48 361.62 1213.62 361.185 1212.89C360.749 1212.17 360.134 1211.6 359.338 1211.19C358.552 1210.78 357.624 1210.58 356.554 1210.58C355.55 1210.58 354.603 1210.76 353.713 1211.13C352.832 1211.49 352.113 1212.02 351.554 1212.71C350.995 1213.39 350.692 1214.22 350.645 1215.18H347.236C347.293 1213.66 347.752 1212.32 348.614 1211.18C349.475 1210.02 350.602 1209.12 351.994 1208.48C353.396 1207.83 354.935 1207.51 356.611 1207.51C358.41 1207.51 359.954 1207.88 361.241 1208.61C362.529 1209.32 363.519 1210.28 364.21 1211.46C364.902 1212.64 365.247 1213.92 365.247 1215.3C365.247 1216.93 364.816 1218.33 363.955 1219.49C363.102 1220.64 361.942 1221.44 360.474 1221.89V1222.11C362.312 1222.42 363.746 1223.2 364.778 1224.46C365.811 1225.71 366.327 1227.26 366.327 1229.1C366.327 1230.68 365.896 1232.1 365.034 1233.36C364.182 1234.61 363.017 1235.6 361.54 1236.32C360.063 1237.04 358.382 1237.4 356.497 1237.4ZM372.136 1237V1234.44L381.739 1223.93C382.866 1222.7 383.794 1221.63 384.523 1220.72C385.252 1219.8 385.792 1218.94 386.142 1218.14C386.502 1217.32 386.682 1216.47 386.682 1215.58C386.682 1214.56 386.436 1213.67 385.943 1212.92C385.46 1212.18 384.797 1211.6 383.955 1211.19C383.112 1210.78 382.165 1210.58 381.114 1210.58C379.996 1210.58 379.021 1210.81 378.188 1211.28C377.364 1211.73 376.724 1212.37 376.27 1213.19C375.825 1214.02 375.602 1214.98 375.602 1216.09H372.25C372.25 1214.39 372.643 1212.89 373.429 1211.6C374.215 1210.31 375.285 1209.31 376.639 1208.59C378.003 1207.87 379.532 1207.51 381.227 1207.51C382.932 1207.51 384.442 1207.87 385.759 1208.59C387.075 1209.31 388.107 1210.28 388.855 1211.5C389.603 1212.72 389.977 1214.08 389.977 1215.58C389.977 1216.65 389.783 1217.7 389.395 1218.72C389.016 1219.73 388.353 1220.86 387.406 1222.11C386.469 1223.35 385.167 1224.87 383.5 1226.66L376.966 1233.65V1233.88H390.489V1237H372.136Z" fill="white"/>
<path d="M287.497 406.398C285.622 406.398 283.951 406.076 282.483 405.432C281.025 404.788 279.865 403.893 279.003 402.747C278.151 401.592 277.687 400.252 277.611 398.727H281.19C281.266 399.665 281.588 400.474 282.156 401.156C282.724 401.829 283.468 402.349 284.386 402.719C285.305 403.088 286.323 403.273 287.44 403.273C288.69 403.273 289.798 403.055 290.764 402.619C291.73 402.184 292.488 401.578 293.037 400.801C293.586 400.025 293.861 399.125 293.861 398.102C293.861 397.032 293.596 396.09 293.065 395.276C292.535 394.452 291.759 393.808 290.736 393.344C289.713 392.88 288.463 392.648 286.986 392.648H284.656V389.523H286.986C288.141 389.523 289.154 389.314 290.026 388.898C290.906 388.481 291.593 387.894 292.085 387.136C292.587 386.379 292.838 385.489 292.838 384.466C292.838 383.481 292.62 382.624 292.185 381.895C291.749 381.166 291.134 380.598 290.338 380.19C289.552 379.783 288.624 379.58 287.554 379.58C286.55 379.58 285.603 379.764 284.713 380.134C283.832 380.493 283.113 381.019 282.554 381.71C281.995 382.392 281.692 383.216 281.645 384.182H278.236C278.293 382.657 278.752 381.322 279.614 380.176C280.475 379.021 281.602 378.121 282.994 377.477C284.396 376.833 285.935 376.511 287.611 376.511C289.41 376.511 290.954 376.876 292.241 377.605C293.529 378.325 294.519 379.277 295.21 380.46C295.902 381.644 296.247 382.922 296.247 384.295C296.247 385.934 295.816 387.33 294.955 388.486C294.102 389.641 292.942 390.441 291.474 390.886V391.114C293.312 391.417 294.746 392.198 295.778 393.457C296.811 394.707 297.327 396.256 297.327 398.102C297.327 399.684 296.896 401.104 296.034 402.364C295.182 403.614 294.017 404.598 292.54 405.318C291.063 406.038 289.382 406.398 287.497 406.398ZM303.136 406V403.443L312.739 392.932C313.866 391.701 314.794 390.631 315.523 389.722C316.252 388.803 316.792 387.941 317.142 387.136C317.502 386.322 317.682 385.47 317.682 384.58C317.682 383.557 317.436 382.671 316.943 381.923C316.46 381.175 315.797 380.598 314.955 380.19C314.112 379.783 313.165 379.58 312.114 379.58C310.996 379.58 310.021 379.812 309.188 380.276C308.364 380.73 307.724 381.369 307.27 382.193C306.825 383.017 306.602 383.983 306.602 385.091H303.25C303.25 383.386 303.643 381.89 304.429 380.602C305.215 379.314 306.285 378.311 307.639 377.591C309.003 376.871 310.532 376.511 312.227 376.511C313.932 376.511 315.442 376.871 316.759 377.591C318.075 378.311 319.107 379.281 319.855 380.503C320.603 381.724 320.977 383.083 320.977 384.58C320.977 385.65 320.783 386.696 320.395 387.719C320.016 388.732 319.353 389.864 318.406 391.114C317.469 392.354 316.167 393.869 314.5 395.659L307.966 402.648V402.875H321.489V406H303.136Z" fill="white"/>
<path d="M459.836 166V163.443L469.438 152.932C470.565 151.701 471.493 150.631 472.222 149.722C472.951 148.803 473.491 147.941 473.841 147.136C474.201 146.322 474.381 145.47 474.381 144.58C474.381 143.557 474.135 142.671 473.642 141.923C473.159 141.175 472.497 140.598 471.654 140.19C470.811 139.783 469.864 139.58 468.813 139.58C467.695 139.58 466.72 139.812 465.887 140.276C465.063 140.73 464.424 141.369 463.969 142.193C463.524 143.017 463.301 143.983 463.301 145.091H459.949C459.949 143.386 460.342 141.89 461.128 140.602C461.914 139.314 462.984 138.311 464.338 137.591C465.702 136.871 467.231 136.511 468.926 136.511C470.631 136.511 472.141 136.871 473.458 137.591C474.774 138.311 475.806 139.281 476.554 140.503C477.302 141.724 477.676 143.083 477.676 144.58C477.676 145.65 477.482 146.696 477.094 147.719C476.715 148.732 476.052 149.864 475.105 151.114C474.168 152.354 472.866 153.869 471.199 155.659L464.665 162.648V162.875H478.188V166H459.836ZM484.963 166L497.975 140.261V140.034H482.975V136.909H501.611V140.205L488.657 166H484.963ZM518.213 166V144.182H521.565V166H518.213ZM519.917 140.545C519.264 140.545 518.7 140.323 518.227 139.878C517.763 139.433 517.531 138.898 517.531 138.273C517.531 137.648 517.763 137.113 518.227 136.668C518.7 136.223 519.264 136 519.917 136C520.571 136 521.129 136.223 521.593 136.668C522.067 137.113 522.304 137.648 522.304 138.273C522.304 138.898 522.067 139.433 521.593 139.878C521.129 140.323 520.571 140.545 519.917 140.545ZM543.159 149.068L540.148 149.92C539.959 149.419 539.679 148.931 539.31 148.457C538.95 147.974 538.458 147.577 537.833 147.264C537.208 146.952 536.408 146.795 535.432 146.795C534.097 146.795 532.984 147.103 532.094 147.719C531.213 148.325 530.773 149.097 530.773 150.034C530.773 150.867 531.076 151.526 531.682 152.009C532.288 152.491 533.235 152.894 534.523 153.216L537.762 154.011C539.712 154.485 541.166 155.209 542.123 156.185C543.079 157.151 543.557 158.396 543.557 159.92C543.557 161.17 543.197 162.288 542.478 163.273C541.767 164.258 540.773 165.034 539.495 165.602C538.216 166.17 536.73 166.455 535.034 166.455C532.809 166.455 530.967 165.972 529.509 165.006C528.051 164.04 527.127 162.629 526.739 160.773L529.921 159.977C530.224 161.152 530.797 162.032 531.64 162.619C532.492 163.206 533.605 163.5 534.978 163.5C536.54 163.5 537.781 163.169 538.699 162.506C539.627 161.833 540.091 161.028 540.091 160.091C540.091 159.333 539.826 158.699 539.296 158.188C538.766 157.667 537.951 157.278 536.853 157.023L533.216 156.17C531.218 155.697 529.75 154.963 528.813 153.969C527.885 152.965 527.421 151.71 527.421 150.205C527.421 148.973 527.766 147.884 528.458 146.938C529.158 145.991 530.11 145.247 531.313 144.707C532.525 144.168 533.898 143.898 535.432 143.898C537.591 143.898 539.286 144.371 540.517 145.318C541.758 146.265 542.639 147.515 543.159 149.068ZM563.206 136.909V166H559.853V136.909H563.206ZM578.493 166.455C576.391 166.455 574.578 165.991 573.053 165.062C571.538 164.125 570.368 162.818 569.544 161.142C568.73 159.456 568.323 157.496 568.323 155.261C568.323 153.027 568.73 151.057 569.544 149.352C570.368 147.638 571.514 146.303 572.982 145.347C574.459 144.381 576.183 143.898 578.152 143.898C579.289 143.898 580.411 144.087 581.519 144.466C582.627 144.845 583.635 145.46 584.544 146.312C585.453 147.155 586.178 148.273 586.718 149.665C587.257 151.057 587.527 152.771 587.527 154.807V156.227H570.709V153.33H584.118C584.118 152.098 583.872 151 583.38 150.034C582.897 149.068 582.205 148.306 581.306 147.747C580.416 147.188 579.364 146.909 578.152 146.909C576.817 146.909 575.662 147.241 574.686 147.903C573.721 148.557 572.977 149.409 572.456 150.46C571.935 151.511 571.675 152.638 571.675 153.841V155.773C571.675 157.42 571.959 158.817 572.527 159.963C573.105 161.099 573.905 161.966 574.928 162.562C575.951 163.15 577.139 163.443 578.493 163.443C579.374 163.443 580.169 163.32 580.88 163.074C581.599 162.818 582.22 162.439 582.74 161.938C583.261 161.426 583.664 160.792 583.948 160.034L587.186 160.943C586.846 162.042 586.273 163.008 585.468 163.841C584.663 164.665 583.668 165.309 582.485 165.773C581.301 166.227 579.971 166.455 578.493 166.455ZM608.081 149.068L605.07 149.92C604.881 149.419 604.601 148.931 604.232 148.457C603.872 147.974 603.38 147.577 602.755 147.264C602.13 146.952 601.329 146.795 600.354 146.795C599.019 146.795 597.906 147.103 597.016 147.719C596.135 148.325 595.695 149.097 595.695 150.034C595.695 150.867 595.998 151.526 596.604 152.009C597.21 152.491 598.157 152.894 599.445 153.216L602.684 154.011C604.634 154.485 606.088 155.209 607.044 156.185C608.001 157.151 608.479 158.396 608.479 159.92C608.479 161.17 608.119 162.288 607.4 163.273C606.689 164.258 605.695 165.034 604.417 165.602C603.138 166.17 601.651 166.455 599.956 166.455C597.731 166.455 595.889 165.972 594.431 165.006C592.972 164.04 592.049 162.629 591.661 160.773L594.843 159.977C595.146 161.152 595.719 162.032 596.561 162.619C597.414 163.206 598.526 163.5 599.9 163.5C601.462 163.5 602.703 163.169 603.621 162.506C604.549 161.833 605.013 161.028 605.013 160.091C605.013 159.333 604.748 158.699 604.218 158.188C603.687 157.667 602.873 157.278 601.775 157.023L598.138 156.17C596.14 155.697 594.672 154.963 593.735 153.969C592.807 152.965 592.343 151.71 592.343 150.205C592.343 148.973 592.688 147.884 593.38 146.938C594.08 145.991 595.032 145.247 596.235 144.707C597.447 144.168 598.82 143.898 600.354 143.898C602.513 143.898 604.208 144.371 605.439 145.318C606.68 146.265 607.56 147.515 608.081 149.068ZM628.98 149.068L625.968 149.92C625.779 149.419 625.5 148.931 625.13 148.457C624.77 147.974 624.278 147.577 623.653 147.264C623.028 146.952 622.228 146.795 621.252 146.795C619.917 146.795 618.805 147.103 617.914 147.719C617.034 148.325 616.593 149.097 616.593 150.034C616.593 150.867 616.896 151.526 617.502 152.009C618.109 152.491 619.056 152.894 620.343 153.216L623.582 154.011C625.533 154.485 626.986 155.209 627.943 156.185C628.899 157.151 629.377 158.396 629.377 159.92C629.377 161.17 629.018 162.288 628.298 163.273C627.588 164.258 626.593 165.034 625.315 165.602C624.037 166.17 622.55 166.455 620.855 166.455C618.629 166.455 616.788 165.972 615.329 165.006C613.871 164.04 612.948 162.629 612.559 160.773L615.741 159.977C616.044 161.152 616.617 162.032 617.46 162.619C618.312 163.206 619.425 163.5 620.798 163.5C622.36 163.5 623.601 163.169 624.52 162.506C625.448 161.833 625.912 161.028 625.912 160.091C625.912 159.333 625.646 158.699 625.116 158.188C624.586 157.667 623.771 157.278 622.673 157.023L619.037 156.17C617.038 155.697 615.571 154.963 614.633 153.969C613.705 152.965 613.241 151.71 613.241 150.205C613.241 148.973 613.587 147.884 614.278 146.938C614.979 145.991 615.931 145.247 617.133 144.707C618.345 144.168 619.718 143.898 621.252 143.898C623.412 143.898 625.107 144.371 626.338 145.318C627.578 146.265 628.459 147.515 628.98 149.068ZM655.162 144.182V147.023H643.855V144.182H655.162ZM647.151 138.955H650.503V159.75C650.503 160.697 650.641 161.407 650.915 161.881C651.199 162.345 651.559 162.657 651.995 162.818C652.44 162.97 652.908 163.045 653.401 163.045C653.77 163.045 654.073 163.027 654.31 162.989C654.547 162.941 654.736 162.903 654.878 162.875L655.56 165.886C655.333 165.972 655.016 166.057 654.608 166.142C654.201 166.237 653.685 166.284 653.06 166.284C652.113 166.284 651.185 166.08 650.276 165.673C649.376 165.266 648.628 164.646 648.032 163.812C647.444 162.979 647.151 161.928 647.151 160.659V138.955ZM664.026 152.875V166H660.674V136.909H664.026V147.591H664.31C664.821 146.464 665.588 145.569 666.611 144.906C667.643 144.234 669.016 143.898 670.73 143.898C672.217 143.898 673.519 144.196 674.637 144.793C675.754 145.38 676.621 146.284 677.236 147.506C677.861 148.718 678.174 150.261 678.174 152.136V166H674.821V152.364C674.821 150.631 674.372 149.291 673.472 148.344C672.582 147.387 671.346 146.909 669.765 146.909C668.666 146.909 667.681 147.141 666.81 147.605C665.948 148.069 665.266 148.746 664.765 149.636C664.272 150.527 664.026 151.606 664.026 152.875ZM690.727 166.511C689.344 166.511 688.09 166.251 686.963 165.73C685.836 165.2 684.941 164.438 684.278 163.443C683.615 162.439 683.284 161.227 683.284 159.807C683.284 158.557 683.53 157.544 684.022 156.767C684.515 155.981 685.173 155.366 685.997 154.92C686.821 154.475 687.73 154.144 688.724 153.926C689.728 153.699 690.736 153.519 691.75 153.386C693.075 153.216 694.15 153.088 694.974 153.003C695.807 152.908 696.413 152.752 696.792 152.534C697.181 152.316 697.375 151.937 697.375 151.398V151.284C697.375 149.883 696.991 148.794 696.224 148.017C695.467 147.241 694.316 146.852 692.772 146.852C691.172 146.852 689.917 147.203 689.008 147.903C688.099 148.604 687.46 149.352 687.091 150.148L683.909 149.011C684.477 147.686 685.234 146.653 686.181 145.915C687.138 145.167 688.18 144.646 689.306 144.352C690.443 144.049 691.56 143.898 692.659 143.898C693.359 143.898 694.164 143.983 695.074 144.153C695.992 144.314 696.877 144.651 697.73 145.162C698.592 145.673 699.306 146.445 699.875 147.477C700.443 148.509 700.727 149.892 700.727 151.625V166H697.375V163.045H697.204C696.977 163.519 696.598 164.026 696.068 164.565C695.538 165.105 694.832 165.564 693.951 165.943C693.071 166.322 691.996 166.511 690.727 166.511ZM691.238 163.5C692.564 163.5 693.681 163.24 694.591 162.719C695.509 162.198 696.2 161.526 696.664 160.702C697.138 159.878 697.375 159.011 697.375 158.102V155.034C697.233 155.205 696.92 155.361 696.437 155.503C695.964 155.635 695.414 155.754 694.789 155.858C694.174 155.953 693.573 156.038 692.985 156.114C692.408 156.18 691.939 156.237 691.579 156.284C690.708 156.398 689.894 156.582 689.136 156.838C688.388 157.084 687.782 157.458 687.318 157.96C686.863 158.453 686.636 159.125 686.636 159.977C686.636 161.142 687.067 162.023 687.929 162.619C688.8 163.206 689.903 163.5 691.238 163.5ZM710.198 152.875V166H706.846V144.182H710.084V147.591H710.368C710.88 146.483 711.656 145.593 712.698 144.92C713.739 144.239 715.084 143.898 716.732 143.898C718.209 143.898 719.502 144.201 720.61 144.807C721.718 145.403 722.579 146.312 723.195 147.534C723.81 148.746 724.118 150.28 724.118 152.136V166H720.766V152.364C720.766 150.65 720.321 149.314 719.431 148.358C718.541 147.392 717.319 146.909 715.766 146.909C714.696 146.909 713.739 147.141 712.897 147.605C712.063 148.069 711.405 148.746 710.922 149.636C710.439 150.527 710.198 151.606 710.198 152.875ZM579.997 214.398C578.122 214.398 576.451 214.076 574.983 213.432C573.525 212.788 572.365 211.893 571.503 210.747C570.651 209.592 570.187 208.252 570.111 206.727H573.69C573.766 207.665 574.088 208.474 574.656 209.156C575.224 209.829 575.968 210.349 576.886 210.719C577.805 211.088 578.823 211.273 579.94 211.273C581.19 211.273 582.298 211.055 583.264 210.619C584.23 210.184 584.988 209.578 585.537 208.801C586.086 208.025 586.361 207.125 586.361 206.102C586.361 205.032 586.096 204.09 585.565 203.276C585.035 202.452 584.259 201.808 583.236 201.344C582.213 200.88 580.963 200.648 579.486 200.648H577.156V197.523H579.486C580.641 197.523 581.654 197.314 582.526 196.898C583.406 196.481 584.093 195.894 584.585 195.136C585.087 194.379 585.338 193.489 585.338 192.466C585.338 191.481 585.12 190.624 584.685 189.895C584.249 189.166 583.634 188.598 582.838 188.19C582.052 187.783 581.124 187.58 580.054 187.58C579.05 187.58 578.103 187.764 577.213 188.134C576.332 188.493 575.613 189.019 575.054 189.71C574.495 190.392 574.192 191.216 574.145 192.182H570.736C570.793 190.657 571.252 189.322 572.114 188.176C572.975 187.021 574.102 186.121 575.494 185.477C576.896 184.833 578.435 184.511 580.111 184.511C581.91 184.511 583.454 184.876 584.741 185.605C586.029 186.325 587.019 187.277 587.71 188.46C588.402 189.644 588.747 190.922 588.747 192.295C588.747 193.934 588.316 195.33 587.455 196.486C586.602 197.641 585.442 198.441 583.974 198.886V199.114C585.812 199.417 587.246 200.198 588.278 201.457C589.311 202.707 589.827 204.256 589.827 206.102C589.827 207.684 589.396 209.104 588.534 210.364C587.682 211.614 586.517 212.598 585.04 213.318C583.563 214.038 581.882 214.398 579.997 214.398ZM595.636 214V211.443L605.239 200.932C606.366 199.701 607.294 198.631 608.023 197.722C608.752 196.803 609.292 195.941 609.642 195.136C610.002 194.322 610.182 193.47 610.182 192.58C610.182 191.557 609.936 190.671 609.443 189.923C608.96 189.175 608.297 188.598 607.455 188.19C606.612 187.783 605.665 187.58 604.614 187.58C603.496 187.58 602.521 187.812 601.688 188.276C600.864 188.73 600.224 189.369 599.77 190.193C599.325 191.017 599.102 191.983 599.102 193.091H595.75C595.75 191.386 596.143 189.89 596.929 188.602C597.715 187.314 598.785 186.311 600.139 185.591C601.503 184.871 603.032 184.511 604.727 184.511C606.432 184.511 607.942 184.871 609.259 185.591C610.575 186.311 611.607 187.281 612.355 188.503C613.103 189.724 613.477 191.083 613.477 192.58C613.477 193.65 613.283 194.696 612.895 195.719C612.516 196.732 611.853 197.864 610.906 199.114C609.969 200.354 608.667 201.869 607 203.659L600.466 210.648V210.875H613.989V214H595.636Z" fill="white"/>
<line x1="487" y1="305" x2="445" y2="305" stroke="white" stroke-width="2"/>
<line x1="444" y1="215" x2="402" y2="215" stroke="white" stroke-width="2"/>
<line x1="445" y1="393" x2="403" y2="393" stroke="white" stroke-width="2"/>
<line x1="445" y1="214" x2="445" y2="393" stroke="white" stroke-width="2"/>
<rect x="531" y="244" width="120" height="120" rx="26" stroke="#DBDBDB" stroke-width="2"/>
<path d="M570.976 318V315.443L580.578 304.932C581.705 303.701 582.633 302.631 583.363 301.722C584.092 300.803 584.632 299.941 584.982 299.136C585.342 298.322 585.522 297.47 585.522 296.58C585.522 295.557 585.275 294.671 584.783 293.923C584.3 293.175 583.637 292.598 582.794 292.19C581.952 291.783 581.005 291.58 579.953 291.58C578.836 291.58 577.861 291.812 577.027 292.276C576.203 292.73 575.564 293.369 575.11 294.193C574.665 295.017 574.442 295.983 574.442 297.091H571.09C571.09 295.386 571.483 293.89 572.269 292.602C573.055 291.314 574.125 290.311 575.479 289.591C576.843 288.871 578.372 288.511 580.067 288.511C581.772 288.511 583.282 288.871 584.598 289.591C585.915 290.311 586.947 291.281 587.695 292.503C588.443 293.724 588.817 295.083 588.817 296.58C588.817 297.65 588.623 298.696 588.235 299.719C587.856 300.732 587.193 301.864 586.246 303.114C585.309 304.354 584.007 305.869 582.34 307.659L575.806 314.648V314.875H589.328V318H570.976ZM596.104 318L609.115 292.261V292.034H594.115V288.909H612.752V292.205L599.797 318H596.104Z" fill="white"/>
<rect x="69" y="648" width="599" height="120" rx="26" stroke="#DBDBDB" stroke-width="2"/>
<line x1="189" y1="647" x2="189" y2="769" stroke="#DBDBDB" stroke-width="2"/>
<line x1="309" y1="647" x2="309" y2="769" stroke="#DBDBDB" stroke-width="2"/>
<line x1="430" y1="647" x2="430" y2="769" stroke="#DBDBDB" stroke-width="2"/>
<line x1="550" y1="647" x2="550" y2="769" stroke="#DBDBDB" stroke-width="2"/>
<path d="M119.332 692.909V722H115.81V696.602H115.639L108.537 701.318V697.739L115.81 692.909H119.332ZM127.699 722V719.443L137.301 708.932C138.428 707.701 139.356 706.631 140.085 705.722C140.814 704.803 141.354 703.941 141.705 703.136C142.064 702.322 142.244 701.47 142.244 700.58C142.244 699.557 141.998 698.671 141.506 697.923C141.023 697.175 140.36 696.598 139.517 696.19C138.674 695.783 137.727 695.58 136.676 695.58C135.559 695.58 134.583 695.812 133.75 696.276C132.926 696.73 132.287 697.369 131.832 698.193C131.387 699.017 131.165 699.983 131.165 701.091H127.812C127.812 699.386 128.205 697.89 128.991 696.602C129.777 695.314 130.848 694.311 132.202 693.591C133.565 692.871 135.095 692.511 136.79 692.511C138.494 692.511 140.005 692.871 141.321 693.591C142.637 694.311 143.67 695.281 144.418 696.503C145.166 697.724 145.54 699.083 145.54 700.58C145.54 701.65 145.346 702.696 144.957 703.719C144.579 704.732 143.916 705.864 142.969 707.114C142.031 708.354 140.729 709.869 139.062 711.659L132.528 718.648V718.875H146.051V722H127.699Z" fill="white"/>
<path d="M238.961 692.909V722H235.439V696.602H235.268L228.166 701.318V697.739L235.439 692.909H238.961ZM256.589 692.511C257.782 692.521 258.975 692.748 260.169 693.193C261.362 693.638 262.451 694.377 263.436 695.409C264.421 696.432 265.211 697.829 265.808 699.599C266.404 701.37 266.703 703.591 266.703 706.261C266.703 708.847 266.457 711.143 265.964 713.151C265.481 715.149 264.78 716.834 263.862 718.207C262.953 719.58 261.845 720.622 260.538 721.332C259.241 722.043 257.773 722.398 256.135 722.398C254.506 722.398 253.052 722.076 251.774 721.432C250.505 720.778 249.463 719.874 248.649 718.719C247.844 717.554 247.328 716.205 247.1 714.67H250.566C250.879 716.006 251.499 717.109 252.427 717.98C253.365 718.842 254.6 719.273 256.135 719.273C258.379 719.273 260.15 718.293 261.447 716.332C262.754 714.372 263.407 711.602 263.407 708.023H263.18C262.65 708.818 262.02 709.505 261.291 710.082C260.562 710.66 259.752 711.105 258.862 711.418C257.972 711.73 257.025 711.886 256.021 711.886C254.354 711.886 252.825 711.474 251.433 710.651C250.05 709.817 248.942 708.676 248.109 707.227C247.285 705.769 246.873 704.102 246.873 702.227C246.873 700.447 247.271 698.818 248.066 697.341C248.871 695.854 249.998 694.67 251.447 693.79C252.905 692.909 254.619 692.483 256.589 692.511ZM256.589 695.636C255.396 695.636 254.321 695.935 253.365 696.531C252.418 697.118 251.665 697.914 251.106 698.918C250.557 699.912 250.282 701.015 250.282 702.227C250.282 703.439 250.547 704.543 251.078 705.537C251.618 706.522 252.351 707.308 253.279 707.895C254.217 708.473 255.282 708.761 256.475 708.761C257.375 708.761 258.213 708.586 258.99 708.236C259.766 707.876 260.443 707.388 261.021 706.773C261.608 706.148 262.067 705.442 262.399 704.656C262.73 703.861 262.896 703.032 262.896 702.17C262.896 701.034 262.621 699.969 262.072 698.974C261.532 697.98 260.784 697.175 259.828 696.56C258.881 695.944 257.801 695.636 256.589 695.636Z" fill="white"/>
<path d="M347.976 722V719.443L357.578 708.932C358.705 707.701 359.633 706.631 360.363 705.722C361.092 704.803 361.632 703.941 361.982 703.136C362.342 702.322 362.522 701.47 362.522 700.58C362.522 699.557 362.275 698.671 361.783 697.923C361.3 697.175 360.637 696.598 359.794 696.19C358.952 695.783 358.005 695.58 356.953 695.58C355.836 695.58 354.861 695.812 354.027 696.276C353.203 696.73 352.564 697.369 352.11 698.193C351.665 699.017 351.442 699.983 351.442 701.091H348.09C348.09 699.386 348.483 697.89 349.269 696.602C350.055 695.314 351.125 694.311 352.479 693.591C353.843 692.871 355.372 692.511 357.067 692.511C358.772 692.511 360.282 692.871 361.598 693.591C362.915 694.311 363.947 695.281 364.695 696.503C365.443 697.724 365.817 699.083 365.817 700.58C365.817 701.65 365.623 702.696 365.235 703.719C364.856 704.732 364.193 705.864 363.246 707.114C362.309 708.354 361.007 709.869 359.34 711.659L352.806 718.648V718.875H366.328V722H347.976ZM373.104 722L386.115 696.261V696.034H371.115V692.909H389.752V696.205L376.797 722H373.104Z" fill="white"/>
</svg>
