<svg width="850" height="237" viewBox="0 0 850 237" fill="none" xmlns="http://www.w3.org/2000/svg">
<path d="M319.869 15.9091V45H314.556L301.9 26.6903H301.687V45H295.536V15.9091H300.934L313.491 34.2045H313.746V15.9091H319.869ZM338.828 35.7102V23.1818H344.879V45H339.07V41.0369H338.842C338.35 42.3153 337.531 43.3428 336.385 44.1193C335.249 44.8958 333.861 45.2841 332.223 45.2841C330.765 45.2841 329.482 44.9527 328.374 44.2898C327.266 43.6269 326.399 42.6847 325.774 41.4631C325.159 40.2415 324.846 38.7784 324.837 37.0739V23.1818H330.888V35.9943C330.897 37.2822 331.243 38.3002 331.925 39.0483C332.607 39.7964 333.52 40.1705 334.666 40.1705C335.395 40.1705 336.077 40.0047 336.712 39.6733C337.346 39.3324 337.857 38.8305 338.246 38.1676C338.643 37.5047 338.838 36.6856 338.828 35.7102ZM349.719 45V23.1818H355.487V27.0312H355.742C356.197 25.7528 356.954 24.7443 358.015 24.0057C359.076 23.267 360.344 22.8977 361.822 22.8977C363.318 22.8977 364.592 23.2718 365.643 24.0199C366.694 24.7585 367.395 25.7623 367.745 27.0312H367.972C368.417 25.7812 369.222 24.7822 370.387 24.0341C371.561 23.2765 372.949 22.8977 374.549 22.8977C376.585 22.8977 378.237 23.5464 379.506 24.8438C380.785 26.1316 381.424 27.9593 381.424 30.3267V45H375.387V31.5199C375.387 30.3078 375.065 29.3987 374.421 28.7926C373.777 28.1866 372.972 27.8835 372.006 27.8835C370.908 27.8835 370.051 28.2339 369.435 28.9347C368.82 29.6259 368.512 30.5398 368.512 31.6761V45H362.646V31.392C362.646 30.322 362.338 29.4697 361.722 28.8352C361.116 28.2008 360.316 27.8835 359.322 27.8835C358.649 27.8835 358.043 28.054 357.504 28.3949C356.973 28.7263 356.552 29.1951 356.239 29.8011C355.927 30.3977 355.771 31.0985 355.771 31.9034V45H349.719ZM386.317 45V15.9091H392.369V26.8466H392.553C392.818 26.2595 393.202 25.6629 393.704 25.0568C394.215 24.4413 394.878 23.9299 395.692 23.5227C396.516 23.1061 397.539 22.8977 398.761 22.8977C400.352 22.8977 401.819 23.3144 403.164 24.1477C404.509 24.9716 405.584 26.2169 406.388 27.8835C407.193 29.5407 407.596 31.6193 407.596 34.1193C407.596 36.553 407.203 38.608 406.417 40.2841C405.64 41.9508 404.58 43.215 403.235 44.0767C401.9 44.929 400.404 45.3551 398.746 45.3551C397.572 45.3551 396.573 45.161 395.749 44.7727C394.935 44.3845 394.267 43.8968 393.746 43.3097C393.226 42.7131 392.828 42.1117 392.553 41.5057H392.283V45H386.317ZM392.241 34.0909C392.241 35.3883 392.421 36.5199 392.781 37.4858C393.14 38.4517 393.661 39.2045 394.343 39.7443C395.025 40.2746 395.853 40.5398 396.829 40.5398C397.814 40.5398 398.647 40.2699 399.329 39.7301C400.011 39.1809 400.527 38.4233 400.877 37.4574C401.237 36.482 401.417 35.3598 401.417 34.0909C401.417 32.8314 401.242 31.7235 400.891 30.767C400.541 29.8106 400.025 29.0625 399.343 28.5227C398.661 27.983 397.823 27.7131 396.829 27.7131C395.844 27.7131 395.011 27.9735 394.329 28.4943C393.656 29.0152 393.14 29.7538 392.781 30.7102C392.421 31.6667 392.241 32.7936 392.241 34.0909ZM421.577 45.4261C419.332 45.4261 417.401 44.9716 415.781 44.0625C414.171 43.1439 412.931 41.8466 412.06 40.1705C411.188 38.4848 410.753 36.4915 410.753 34.1903C410.753 31.946 411.188 29.9763 412.06 28.2812C412.931 26.5862 414.157 25.2652 415.739 24.3182C417.33 23.3712 419.195 22.8977 421.335 22.8977C422.775 22.8977 424.115 23.1297 425.355 23.5938C426.605 24.0483 427.694 24.7348 428.622 25.6534C429.56 26.572 430.289 27.7273 430.81 29.1193C431.33 30.5019 431.591 32.1212 431.591 33.9773V35.6392H413.168V31.8892H425.895C425.895 31.018 425.705 30.2462 425.327 29.5739C424.948 28.9015 424.422 28.3759 423.75 27.9972C423.087 27.6089 422.315 27.4148 421.435 27.4148C420.516 27.4148 419.702 27.6278 418.991 28.054C418.291 28.4706 417.741 29.0341 417.344 29.7443C416.946 30.4451 416.742 31.2263 416.733 32.0881V35.6534C416.733 36.733 416.932 37.6657 417.33 38.4517C417.737 39.2377 418.31 39.8438 419.048 40.2699C419.787 40.696 420.663 40.9091 421.676 40.9091C422.348 40.9091 422.964 40.8144 423.523 40.625C424.081 40.4356 424.56 40.1515 424.957 39.7727C425.355 39.3939 425.658 38.9299 425.866 38.3807L431.463 38.75C431.179 40.0947 430.597 41.2689 429.716 42.2727C428.845 43.267 427.718 44.0436 426.335 44.6023C424.962 45.1515 423.376 45.4261 421.577 45.4261ZM435.54 45V23.1818H441.406V26.9886H441.634C442.031 25.6345 442.699 24.6117 443.636 23.9205C444.574 23.2197 445.653 22.8693 446.875 22.8693C447.178 22.8693 447.505 22.8883 447.855 22.9261C448.205 22.964 448.513 23.0161 448.778 23.0824V28.4517C448.494 28.3665 448.101 28.2907 447.599 28.2244C447.098 28.1581 446.638 28.125 446.222 28.125C445.331 28.125 444.536 28.3191 443.835 28.7074C443.144 29.0862 442.595 29.6165 442.188 30.2983C441.79 30.9801 441.591 31.7661 441.591 32.6562V45H435.54ZM461.278 45V15.9091H472.756C474.962 15.9091 476.842 16.3305 478.395 17.1733C479.948 18.0066 481.132 19.1667 481.946 20.6534C482.77 22.1307 483.182 23.8352 483.182 25.767C483.182 27.6989 482.765 29.4034 481.932 30.8807C481.098 32.358 479.891 33.5085 478.31 34.3324C476.738 35.1562 474.834 35.5682 472.599 35.5682H465.284V30.6392H471.605C472.789 30.6392 473.764 30.4356 474.531 30.0284C475.308 29.6117 475.885 29.0388 476.264 28.3097C476.652 27.571 476.847 26.7235 476.847 25.767C476.847 24.8011 476.652 23.9583 476.264 23.2386C475.885 22.5095 475.308 21.946 474.531 21.5483C473.755 21.1411 472.77 20.9375 471.577 20.9375H467.429V45H461.278ZM492.699 45.4119C491.307 45.4119 490.066 45.1705 488.977 44.6875C487.888 44.1951 487.027 43.4706 486.392 42.5142C485.767 41.5483 485.455 40.3456 485.455 38.9062C485.455 37.6941 485.677 36.6761 486.122 35.8523C486.567 35.0284 487.173 34.3655 487.94 33.8636C488.707 33.3617 489.579 32.983 490.554 32.7273C491.539 32.4716 492.571 32.2917 493.651 32.1875C494.92 32.0549 495.942 31.9318 496.719 31.8182C497.495 31.6951 498.059 31.5152 498.409 31.2784C498.759 31.0417 498.935 30.6913 498.935 30.2273V30.142C498.935 29.2424 498.651 28.5464 498.082 28.054C497.524 27.5616 496.728 27.3153 495.696 27.3153C494.607 27.3153 493.741 27.5568 493.097 28.0398C492.453 28.5133 492.027 29.1098 491.818 29.8295L486.222 29.375C486.506 28.0492 487.064 26.9034 487.898 25.9375C488.731 24.9621 489.806 24.214 491.122 23.6932C492.448 23.1629 493.982 22.8977 495.724 22.8977C496.937 22.8977 498.097 23.0398 499.205 23.3239C500.322 23.608 501.312 24.0483 502.173 24.6449C503.045 25.2415 503.731 26.0085 504.233 26.946C504.735 27.8741 504.986 28.9867 504.986 30.2841V45H499.247V41.9744H499.077C498.726 42.6562 498.258 43.2576 497.67 43.7784C497.083 44.2898 496.378 44.6922 495.554 44.9858C494.73 45.2699 493.778 45.4119 492.699 45.4119ZM494.432 41.2358C495.322 41.2358 496.108 41.0606 496.79 40.7102C497.472 40.3504 498.007 39.8674 498.395 39.2614C498.783 38.6553 498.977 37.9687 498.977 37.2017V34.8864C498.788 35.0095 498.527 35.1231 498.196 35.2273C497.874 35.322 497.509 35.4119 497.102 35.4972C496.695 35.5729 496.288 35.6439 495.881 35.7102C495.473 35.767 495.104 35.8191 494.773 35.8665C494.063 35.9706 493.442 36.1364 492.912 36.3636C492.382 36.5909 491.97 36.8987 491.676 37.2869C491.383 37.6657 491.236 38.1392 491.236 38.7074C491.236 39.5312 491.534 40.161 492.131 40.5966C492.737 41.0227 493.504 41.2358 494.432 41.2358ZM509.68 45V23.1818H515.732V45H509.68ZM512.72 20.3693C511.821 20.3693 511.049 20.071 510.405 19.4744C509.77 18.8684 509.453 18.1439 509.453 17.3011C509.453 16.4678 509.77 15.7528 510.405 15.1562C511.049 14.5502 511.821 14.2472 512.72 14.2472C513.62 14.2472 514.387 14.5502 515.021 15.1562C515.665 15.7528 515.987 16.4678 515.987 17.3011C515.987 18.1439 515.665 18.8684 515.021 19.4744C514.387 20.071 513.62 20.3693 512.72 20.3693ZM520.579 45V23.1818H526.445V26.9886H526.673C527.07 25.6345 527.738 24.6117 528.675 23.9205C529.613 23.2197 530.692 22.8693 531.914 22.8693C532.217 22.8693 532.544 22.8883 532.894 22.9261C533.245 22.964 533.552 23.0161 533.817 23.0824V28.4517C533.533 28.3665 533.14 28.2907 532.638 28.2244C532.137 28.1581 531.677 28.125 531.261 28.125C530.371 28.125 529.575 28.3191 528.874 28.7074C528.183 29.0862 527.634 29.6165 527.227 30.2983C526.829 30.9801 526.63 31.7661 526.63 32.6562V45H520.579ZM555.099 29.4034L549.56 29.7443C549.465 29.2708 549.261 28.8447 548.949 28.4659C548.636 28.0777 548.224 27.7699 547.713 27.5426C547.211 27.3059 546.61 27.1875 545.909 27.1875C544.972 27.1875 544.181 27.3864 543.537 27.7841C542.893 28.1723 542.571 28.6932 542.571 29.3466C542.571 29.8674 542.779 30.3078 543.196 30.6676C543.613 31.0275 544.328 31.3163 545.341 31.5341L549.29 32.3295C551.411 32.7652 552.992 33.4659 554.034 34.4318C555.076 35.3977 555.597 36.6667 555.597 38.2386C555.597 39.6686 555.175 40.9233 554.332 42.0028C553.499 43.0824 552.353 43.9252 550.895 44.5312C549.446 45.1278 547.775 45.4261 545.881 45.4261C542.992 45.4261 540.691 44.8248 538.977 43.6222C537.273 42.41 536.274 40.7623 535.98 38.679L541.932 38.3665C542.112 39.2472 542.547 39.9195 543.239 40.3835C543.93 40.8381 544.815 41.0653 545.895 41.0653C546.955 41.0653 547.808 40.8617 548.452 40.4545C549.105 40.0379 549.437 39.5028 549.446 38.8494C549.437 38.3002 549.205 37.8504 548.75 37.5C548.295 37.1402 547.595 36.8655 546.648 36.6761L542.869 35.9233C540.739 35.4972 539.152 34.7585 538.111 33.7074C537.079 32.6562 536.562 31.3163 536.562 29.6875C536.562 28.286 536.941 27.0786 537.699 26.0653C538.466 25.0521 539.541 24.2708 540.923 23.7216C542.315 23.1723 543.944 22.8977 545.81 22.8977C548.565 22.8977 550.734 23.4801 552.315 24.6449C553.906 25.8097 554.834 27.3958 555.099 29.4034Z" fill="white"/>
<rect x="582" y="116" width="120" height="120" rx="26" stroke="#DBDBDB" stroke-width="2"/>
<rect x="1" y="116" width="120" height="120" rx="26" stroke="#DBDBDB" stroke-width="2"/>
<rect x="365" y="116" width="120" height="120" rx="26" stroke="#DBDBDB" stroke-width="2"/>
<rect x="729" y="116" width="120" height="120" rx="26" stroke="#DBDBDB" stroke-width="2"/>
<rect x="148" y="116" width="120" height="120" rx="26" stroke="#DBDBDB" stroke-width="2"/>
<path d="M630.497 190.398C628.622 190.398 626.951 190.076 625.483 189.432C624.025 188.788 622.865 187.893 622.003 186.747C621.151 185.592 620.687 184.252 620.611 182.727H624.19C624.266 183.665 624.588 184.474 625.156 185.156C625.724 185.829 626.468 186.349 627.386 186.719C628.305 187.088 629.323 187.273 630.44 187.273C631.69 187.273 632.798 187.055 633.764 186.619C634.73 186.184 635.488 185.578 636.037 184.801C636.586 184.025 636.861 183.125 636.861 182.102C636.861 181.032 636.596 180.09 636.065 179.276C635.535 178.452 634.759 177.808 633.736 177.344C632.713 176.88 631.463 176.648 629.986 176.648H627.656V173.523H629.986C631.141 173.523 632.154 173.314 633.026 172.898C633.906 172.481 634.593 171.894 635.085 171.136C635.587 170.379 635.838 169.489 635.838 168.466C635.838 167.481 635.62 166.624 635.185 165.895C634.749 165.166 634.134 164.598 633.338 164.19C632.552 163.783 631.624 163.58 630.554 163.58C629.55 163.58 628.603 163.764 627.713 164.134C626.832 164.493 626.113 165.019 625.554 165.71C624.995 166.392 624.692 167.216 624.645 168.182H621.236C621.293 166.657 621.752 165.322 622.614 164.176C623.475 163.021 624.602 162.121 625.994 161.477C627.396 160.833 628.935 160.511 630.611 160.511C632.41 160.511 633.954 160.876 635.241 161.605C636.529 162.325 637.519 163.277 638.21 164.46C638.902 165.644 639.247 166.922 639.247 168.295C639.247 169.934 638.816 171.33 637.955 172.486C637.102 173.641 635.942 174.441 634.474 174.886V175.114C636.312 175.417 637.746 176.198 638.778 177.457C639.811 178.707 640.327 180.256 640.327 182.102C640.327 183.684 639.896 185.104 639.034 186.364C638.182 187.614 637.017 188.598 635.54 189.318C634.063 190.038 632.382 190.398 630.497 190.398ZM646.136 190V187.443L655.739 176.932C656.866 175.701 657.794 174.631 658.523 173.722C659.252 172.803 659.792 171.941 660.142 171.136C660.502 170.322 660.682 169.47 660.682 168.58C660.682 167.557 660.436 166.671 659.943 165.923C659.46 165.175 658.797 164.598 657.955 164.19C657.112 163.783 656.165 163.58 655.114 163.58C653.996 163.58 653.021 163.812 652.188 164.276C651.364 164.73 650.724 165.369 650.27 166.193C649.825 167.017 649.602 167.983 649.602 169.091H646.25C646.25 167.386 646.643 165.89 647.429 164.602C648.215 163.314 649.285 162.311 650.639 161.591C652.003 160.871 653.532 160.511 655.227 160.511C656.932 160.511 658.442 160.871 659.759 161.591C661.075 162.311 662.107 163.281 662.855 164.503C663.603 165.724 663.977 167.083 663.977 168.58C663.977 169.65 663.783 170.696 663.395 171.719C663.016 172.732 662.353 173.864 661.406 175.114C660.469 176.354 659.167 177.869 657.5 179.659L650.966 186.648V186.875H664.489V190H646.136Z" fill="white"/>
<path d="M40.9762 190V187.443L50.5785 176.932C51.7054 175.701 52.6334 174.631 53.3626 173.722C54.0917 172.803 54.6315 171.941 54.9819 171.136C55.3417 170.322 55.5217 169.47 55.5217 168.58C55.5217 167.557 55.2755 166.671 54.783 165.923C54.3001 165.175 53.6372 164.598 52.7944 164.19C51.9516 163.783 51.0046 163.58 49.9535 163.58C48.8361 163.58 47.8607 163.812 47.0273 164.276C46.2035 164.73 45.5643 165.369 45.1097 166.193C44.6647 167.017 44.4421 167.983 44.4421 169.091H41.0898C41.0898 167.386 41.4828 165.89 42.2688 164.602C43.0548 163.314 44.1249 162.311 45.479 161.591C46.8427 160.871 48.372 160.511 50.0671 160.511C51.7717 160.511 53.2821 160.871 54.5984 161.591C55.9147 162.311 56.9469 163.281 57.695 164.503C58.4431 165.724 58.8171 167.083 58.8171 168.58C58.8171 169.65 58.623 170.696 58.2347 171.719C57.8559 172.732 57.1931 173.864 56.2461 175.114C55.3086 176.354 54.0065 177.869 52.3398 179.659L45.8058 186.648V186.875H59.3285V190H40.9762ZM66.104 190L79.1154 164.261V164.034H64.1154V160.909H82.7518V164.205L69.7972 190H66.104Z" fill="white"/>
<path d="M416.961 160.909V190H413.439V164.602H413.268L406.166 169.318V165.739L413.439 160.909H416.961ZM434.589 160.511C435.782 160.521 436.975 160.748 438.169 161.193C439.362 161.638 440.451 162.377 441.436 163.409C442.421 164.432 443.211 165.829 443.808 167.599C444.404 169.37 444.703 171.591 444.703 174.261C444.703 176.847 444.457 179.143 443.964 181.151C443.481 183.149 442.78 184.834 441.862 186.207C440.953 187.58 439.845 188.622 438.538 189.332C437.241 190.043 435.773 190.398 434.135 190.398C432.506 190.398 431.052 190.076 429.774 189.432C428.505 188.778 427.463 187.874 426.649 186.719C425.844 185.554 425.328 184.205 425.1 182.67H428.566C428.879 184.006 429.499 185.109 430.427 185.98C431.365 186.842 432.6 187.273 434.135 187.273C436.379 187.273 438.15 186.293 439.447 184.332C440.754 182.372 441.407 179.602 441.407 176.023H441.18C440.65 176.818 440.02 177.505 439.291 178.082C438.562 178.66 437.752 179.105 436.862 179.418C435.972 179.73 435.025 179.886 434.021 179.886C432.354 179.886 430.825 179.474 429.433 178.651C428.05 177.817 426.942 176.676 426.109 175.227C425.285 173.769 424.873 172.102 424.873 170.227C424.873 168.447 425.271 166.818 426.066 165.341C426.871 163.854 427.998 162.67 429.447 161.79C430.905 160.909 432.619 160.483 434.589 160.511ZM434.589 163.636C433.396 163.636 432.321 163.935 431.365 164.531C430.418 165.118 429.665 165.914 429.106 166.918C428.557 167.912 428.282 169.015 428.282 170.227C428.282 171.439 428.547 172.543 429.078 173.537C429.618 174.522 430.351 175.308 431.279 175.895C432.217 176.473 433.282 176.761 434.475 176.761C435.375 176.761 436.213 176.586 436.99 176.236C437.766 175.876 438.443 175.388 439.021 174.773C439.608 174.148 440.067 173.442 440.399 172.656C440.73 171.861 440.896 171.032 440.896 170.17C440.896 169.034 440.621 167.969 440.072 166.974C439.532 165.98 438.784 165.175 437.828 164.56C436.881 163.944 435.801 163.636 434.589 163.636Z" fill="white"/>
<path d="M781.332 160.909V190H777.81V164.602H777.639L770.537 169.318V165.739L777.81 160.909H781.332ZM789.699 190V187.443L799.301 176.932C800.428 175.701 801.356 174.631 802.085 173.722C802.814 172.803 803.354 171.941 803.705 171.136C804.064 170.322 804.244 169.47 804.244 168.58C804.244 167.557 803.998 166.671 803.506 165.923C803.023 165.175 802.36 164.598 801.517 164.19C800.674 163.783 799.727 163.58 798.676 163.58C797.559 163.58 796.583 163.812 795.75 164.276C794.926 164.73 794.287 165.369 793.832 166.193C793.387 167.017 793.165 167.983 793.165 169.091H789.812C789.812 167.386 790.205 165.89 790.991 164.602C791.777 163.314 792.848 162.311 794.202 161.591C795.565 160.871 797.095 160.511 798.79 160.511C800.494 160.511 802.005 160.871 803.321 161.591C804.637 162.311 805.67 163.281 806.418 164.503C807.166 165.724 807.54 167.083 807.54 168.58C807.54 169.65 807.346 170.696 806.957 171.719C806.579 172.732 805.916 173.864 804.969 175.114C804.031 176.354 802.729 177.869 801.062 179.659L794.528 186.648V186.875H808.051V190H789.699Z" fill="white"/>
<path d="M186.572 184.034V181.136L199.356 160.909H201.458V165.398H200.038L190.379 180.682V180.909H207.594V184.034H186.572ZM200.265 190V183.153V181.804V160.909H203.617V190H200.265ZM213.827 190L226.838 164.261V164.034H211.838V160.909H230.474V164.205L217.52 190H213.827Z" fill="white"/>
</svg>
