<svg xmlns="http://www.w3.org/2000/svg" width="850" height="237" fill="none" viewBox="0 0 850 237"><path fill="#fff" d="M319.869 15.91V45h-5.313L301.9 26.69h-.213V45h-6.151V15.91h5.398l12.557 18.295h.255V15.909zm18.959 19.8V23.182h6.051V45h-5.809v-3.963h-.228a6.44 6.44 0 0 1-2.457 3.082q-1.705 1.165-4.162 1.165-2.187 0-3.849-.994t-2.6-2.827q-.923-1.832-.937-4.39V23.183h6.051v12.812q.014 1.932 1.037 3.054t2.741 1.122q1.094 0 2.046-.497.95-.511 1.534-1.505.596-.994.582-2.458M349.719 45V23.182h5.768v3.85h.255q.682-1.92 2.273-3.026 1.59-1.108 3.807-1.108 2.244 0 3.821 1.122 1.577 1.108 2.102 3.011h.227q.668-1.875 2.415-2.997 1.762-1.136 4.162-1.136 3.054 0 4.957 1.946 1.918 1.932 1.918 5.483V45h-6.037V31.52q0-1.818-.966-2.727-.966-.91-2.415-.91-1.647 0-2.571 1.052-.923 1.036-.923 2.741V45h-5.866V31.392q0-1.605-.924-2.557-.909-.951-2.4-.951a3.33 3.33 0 0 0-1.818.51q-.796.498-1.265 1.407-.468.896-.468 2.102V45zm36.598 0V15.91h6.052v10.937h.184q.398-.882 1.151-1.79.767-.924 1.988-1.534 1.236-.625 3.069-.625a8.2 8.2 0 0 1 4.403 1.25q2.018 1.236 3.224 3.736 1.208 2.485 1.208 6.235 0 3.651-1.179 6.165-1.165 2.5-3.182 3.793-2.002 1.278-4.489 1.278-1.761 0-2.997-.582-1.221-.583-2.003-1.463-.78-.895-1.193-1.804h-.27V45zm5.924-10.91q0 1.947.54 3.396.539 1.45 1.562 2.258 1.022.795 2.486.796 1.477 0 2.5-.81 1.023-.825 1.548-2.273.54-1.462.54-3.366 0-1.89-.526-3.324-.525-1.434-1.548-2.244t-2.514-.81q-1.477 0-2.5.781-1.01.782-1.548 2.216-.54 1.436-.54 3.38m29.336 11.336q-3.367 0-5.796-1.364-2.415-1.377-3.721-3.892-1.308-2.527-1.307-5.98 0-3.366 1.307-5.909t3.679-3.963q2.386-1.42 5.596-1.42 2.16 0 4.02.696a8.9 8.9 0 0 1 3.267 2.06q1.407 1.377 2.188 3.465.78 2.074.781 4.858v1.662h-18.423v-3.75h12.727q0-1.307-.568-2.315a4.07 4.07 0 0 0-1.577-1.577q-.995-.582-2.315-.582-1.378 0-2.444.639-1.05.625-1.647 1.69-.597 1.051-.611 2.344v3.565q0 1.62.597 2.799.61 1.179 1.718 1.818 1.108.64 2.628.64 1.008 0 1.847-.285a3.8 3.8 0 0 0 1.434-.852q.597-.57.909-1.392l5.597.369a7.64 7.64 0 0 1-1.747 3.523q-1.307 1.49-3.381 2.33-2.06.823-4.758.823M435.54 45V23.182h5.866v3.807h.228q.596-2.032 2.002-3.068 1.406-1.052 3.239-1.052.455 0 .98.057t.923.156v5.37a8 8 0 0 0-1.179-.228q-.752-.099-1.377-.099-1.336 0-2.387.582-1.036.57-1.647 1.591-.597 1.023-.597 2.358V45zm25.738 0V15.91h11.478q3.31 0 5.639 1.263 2.33 1.251 3.551 3.48 1.236 2.217 1.236 5.114 0 2.898-1.25 5.114t-3.622 3.451q-2.358 1.236-5.711 1.236h-7.315V30.64h6.321q1.776 0 2.926-.61 1.165-.625 1.733-1.72.582-1.107.583-2.542 0-1.45-.583-2.528-.568-1.095-1.733-1.69-1.164-.611-2.954-.611h-4.148V45zm31.421.412q-2.088 0-3.722-.724-1.633-.739-2.585-2.174-.937-1.449-.937-3.608 0-1.818.667-3.054a5.4 5.4 0 0 1 1.818-1.988 8.8 8.8 0 0 1 2.614-1.137 20 20 0 0 1 3.097-.54 79 79 0 0 0 3.068-.369q1.165-.184 1.69-.54.526-.355.526-1.05v-.086q0-1.35-.853-2.088-.837-.739-2.386-.739-1.633 0-2.599.725-.966.71-1.279 1.79l-5.596-.455q.426-1.99 1.676-3.437 1.25-1.464 3.224-2.245 1.989-.795 4.602-.795 1.82 0 3.481.426 1.676.426 2.968 1.32a6.4 6.4 0 0 1 2.06 2.302q.753 1.392.753 3.338V45h-5.739v-3.026h-.17a6.2 6.2 0 0 1-1.407 1.804q-.88.767-2.116 1.208-1.236.426-2.855.426m1.733-4.176q1.335 0 2.358-.526a4.2 4.2 0 0 0 1.605-1.449q.582-.909.582-2.06v-2.315q-.284.185-.781.341-.483.142-1.094.27a55 55 0 0 1-1.221.213l-1.108.157q-1.066.156-1.861.497t-1.236.923q-.44.568-.44 1.42 0 1.236.895 1.89.909.639 2.301.639M509.68 45V23.182h6.052V45zm3.04-24.63q-1.349 0-2.315-.896-.952-.909-.952-2.173 0-1.25.952-2.145.966-.909 2.315-.909 1.35 0 2.301.91.966.894.966 2.144 0 1.264-.966 2.173-.951.895-2.301.895M520.579 45V23.182h5.866v3.807h.228q.596-2.032 2.002-3.068 1.407-1.052 3.239-1.052.455 0 .98.057.526.057.923.156v5.37a8 8 0 0 0-1.179-.228q-.752-.099-1.377-.099-1.335 0-2.387.582-1.036.57-1.647 1.591-.597 1.023-.597 2.358V45zm34.52-15.597-5.539.341a2.9 2.9 0 0 0-.611-1.278 3.25 3.25 0 0 0-1.236-.923q-.753-.355-1.804-.355-1.406 0-2.372.596-.966.583-.966 1.563 0 .78.625 1.32t2.145.867l3.949.796q3.181.653 4.744 2.102t1.563 3.807q0 2.145-1.265 3.764-1.25 1.62-3.437 2.528-2.173.895-5.014.895-4.333 0-6.904-1.804-2.556-1.818-2.997-4.943l5.952-.312q.27 1.32 1.307 2.017 1.036.681 2.656.681 1.59 0 2.557-.61.98-.625.994-1.606-.013-.824-.696-1.349-.682-.54-2.102-.824l-3.779-.753q-3.196-.64-4.758-2.216-1.548-1.575-1.549-4.02 0-2.101 1.137-3.622 1.15-1.52 3.224-2.343 2.088-.825 4.887-.824 4.133 0 6.505 1.747 2.387 1.747 2.784 4.758"/><rect width="120" height="120" x="582" y="116" stroke="#dbdbdb" stroke-width="2" rx="26"/><rect width="120" height="120" x="1" y="116" stroke="#dbdbdb" stroke-width="2" rx="26"/><rect width="120" height="120" x="365" y="116" stroke="#dbdbdb" stroke-width="2" rx="26"/><rect width="120" height="120" x="729" y="116" stroke="#dbdbdb" stroke-width="2" rx="26"/><rect width="120" height="120" x="148" y="116" stroke="#dbdbdb" stroke-width="2" rx="26"/><path fill="#fff" d="M630.497 190.398q-2.812 0-5.014-.966-2.187-.966-3.48-2.685-1.278-1.732-1.392-4.02h3.579q.114 1.407.966 2.429.852 1.009 2.23 1.563t3.054.554q1.875 0 3.324-.654 1.45-.653 2.273-1.818.824-1.164.824-2.699 0-1.605-.796-2.826-.795-1.236-2.329-1.932t-3.75-.696h-2.33v-3.125h2.33q1.732 0 3.04-.625 1.32-.625 2.059-1.762.753-1.136.753-2.67 0-1.478-.653-2.571-.654-1.093-1.847-1.705-1.179-.61-2.784-.61a7.3 7.3 0 0 0-2.841.554q-1.321.539-2.159 1.576-.838 1.023-.909 2.472h-3.409q.085-2.287 1.378-4.006 1.292-1.733 3.38-2.699 2.103-.966 4.617-.966 2.699 0 4.63 1.094 1.932 1.08 2.969 2.855a7.47 7.47 0 0 1 1.037 3.835q0 2.458-1.292 4.191-1.28 1.733-3.481 2.4v.228q2.757.454 4.304 2.343 1.55 1.876 1.549 4.645 0 2.373-1.293 4.262-1.278 1.875-3.494 2.954t-5.043 1.08m15.639-.398v-2.557l9.603-10.511a67 67 0 0 0 2.784-3.21q1.094-1.379 1.619-2.586.54-1.221.54-2.556 0-1.535-.739-2.657-.725-1.121-1.988-1.733-1.264-.61-2.841-.61-1.677 0-2.926.696a4.8 4.8 0 0 0-1.918 1.917q-.668 1.236-.668 2.898h-3.352q0-2.557 1.179-4.489a8.2 8.2 0 0 1 3.21-3.011q2.046-1.08 4.588-1.08 2.557 0 4.532 1.08 1.974 1.08 3.096 2.912t1.122 4.077q0 1.605-.582 3.139-.569 1.52-1.989 3.395-1.406 1.86-3.906 4.545l-6.534 6.989v.227h13.523V190zM40.976 190v-2.557l9.603-10.511a67 67 0 0 0 2.784-3.21q1.094-1.379 1.619-2.586.54-1.221.54-2.556 0-1.535-.739-2.657-.725-1.121-1.989-1.733-1.264-.61-2.84-.61-1.676 0-2.927.696a4.8 4.8 0 0 0-1.917 1.917q-.668 1.236-.668 2.898H41.09q0-2.557 1.179-4.489a8.2 8.2 0 0 1 3.21-3.011q2.046-1.08 4.588-1.08 2.557 0 4.531 1.08 1.975 1.08 3.097 2.912t1.122 4.077q0 1.605-.582 3.139-.57 1.52-1.989 3.395-1.406 1.86-3.906 4.545l-6.534 6.989v.227h13.523V190zm25.128 0 13.011-25.739v-.227h-15v-3.125h18.637v3.296L69.797 190zM416.961 160.909V190h-3.522v-25.398h-.171l-7.102 4.716v-3.579l7.273-4.83zm17.628-.398q1.79.015 3.58.682 1.79.668 3.267 2.216 1.477 1.535 2.372 4.19.894 2.657.895 6.662 0 3.879-.739 6.89-.725 2.997-2.102 5.056-1.363 2.06-3.324 3.125-1.946 1.066-4.403 1.066-2.444 0-4.361-.966a8.56 8.56 0 0 1-3.125-2.713q-1.207-1.747-1.549-4.049h3.466q.47 2.004 1.861 3.31 1.406 1.293 3.708 1.293 3.366 0 5.312-2.941 1.96-2.94 1.96-8.309h-.227a8.9 8.9 0 0 1-1.889 2.059 8.3 8.3 0 0 1-2.429 1.336 8.5 8.5 0 0 1-2.841.468q-2.5 0-4.588-1.235-2.074-1.25-3.324-3.424-1.236-2.187-1.236-5 0-2.67 1.193-4.886a9.2 9.2 0 0 1 3.381-3.551q2.187-1.321 5.142-1.279m0 3.125q-1.79 0-3.224.895a6.44 6.44 0 0 0-2.259 2.387q-.824 1.491-.824 3.309t.796 3.31a6.35 6.35 0 0 0 2.201 2.358q1.407.867 3.196.866 1.35 0 2.515-.525a6.5 6.5 0 0 0 2.031-1.463 7.1 7.1 0 0 0 1.378-2.117 6.4 6.4 0 0 0 .497-2.486 6.5 6.5 0 0 0-.824-3.196 6.54 6.54 0 0 0-2.244-2.414q-1.42-.924-3.239-.924M781.332 160.909V190h-3.522v-25.398h-.171l-7.102 4.716v-3.579l7.273-4.83zM789.699 190v-2.557l9.602-10.511a67 67 0 0 0 2.784-3.21q1.093-1.379 1.62-2.586a6.3 6.3 0 0 0 .539-2.556q0-1.535-.738-2.657-.724-1.121-1.989-1.733-1.264-.61-2.841-.61-1.676 0-2.926.696a4.8 4.8 0 0 0-1.918 1.917q-.667 1.236-.667 2.898h-3.353q0-2.557 1.179-4.489a8.2 8.2 0 0 1 3.211-3.011q2.045-1.08 4.588-1.08 2.557 0 4.531 1.08 1.975 1.08 3.097 2.912t1.122 4.077q0 1.605-.583 3.139-.567 1.52-1.988 3.395-1.407 1.86-3.907 4.545l-6.534 6.989v.227h13.523V190zM186.572 184.034v-2.898l12.784-20.227h2.102v4.489h-1.42l-9.659 15.284v.227h17.215v3.125zM200.265 190v-29.091h3.352V190zm13.562 0 13.011-25.739v-.227h-15v-3.125h18.636v3.296L217.52 190z"/></svg>