<svg width="1186" height="1408" viewBox="0 0 1186 1408" fill="none" xmlns="http://www.w3.org/2000/svg">
<rect x="294" y="142" width="599" height="120" rx="26" stroke="#DBDBDB" stroke-width="2"/>
<rect x="194" y="501" width="358" height="120" rx="26" stroke="#DBDBDB" stroke-width="2"/>
<rect x="691" y="501" width="238" height="120" rx="26" stroke="#DBDBDB" stroke-width="2"/>
<rect x="121" y="857" width="238" height="120" rx="26" stroke="#DBDBDB" stroke-width="2"/>
<rect x="618" y="857" width="120" height="120" rx="26" fill="#009966" stroke="#DBDBDB" stroke-width="2"/>
<rect x="48" y="1212" width="120" height="120" rx="26" fill="#009966" stroke="#DBDBDB" stroke-width="2"/>
<rect x="443" y="857" width="120" height="120" rx="26" fill="#009966" stroke="#DBDBDB" stroke-width="2"/>
<rect x="881" y="857" width="120" height="120" rx="26" fill="#009966" stroke="#DBDBDB" stroke-width="2"/>
<rect x="311" y="1212" width="120" height="120" rx="26" fill="#009966" stroke="#DBDBDB" stroke-width="2"/>
<line x1="414" y1="141" x2="414" y2="263" stroke="#DBDBDB" stroke-width="2"/>
<line x1="314" y1="500" x2="314" y2="622" stroke="#DBDBDB" stroke-width="2"/>
<line x1="811" y1="500" x2="811" y2="622" stroke="#DBDBDB" stroke-width="2"/>
<line x1="241" y1="856" x2="241" y2="978" stroke="#DBDBDB" stroke-width="2"/>
<line x1="534" y1="141" x2="534" y2="263" stroke="#DBDBDB" stroke-width="2"/>
<line x1="434" y1="500" x2="434" y2="622" stroke="#DBDBDB" stroke-width="2"/>
<line x1="655" y1="141" x2="655" y2="263" stroke="#DBDBDB" stroke-width="2"/>
<line x1="775" y1="141" x2="775" y2="263" stroke="#DBDBDB" stroke-width="2"/>
<path d="M331.976 216V213.443L341.578 202.932C342.705 201.701 343.633 200.631 344.363 199.722C345.092 198.803 345.632 197.941 345.982 197.136C346.342 196.322 346.522 195.47 346.522 194.58C346.522 193.557 346.275 192.671 345.783 191.923C345.3 191.175 344.637 190.598 343.794 190.19C342.952 189.783 342.005 189.58 340.953 189.58C339.836 189.58 338.861 189.812 338.027 190.276C337.203 190.73 336.564 191.369 336.11 192.193C335.665 193.017 335.442 193.983 335.442 195.091H332.09C332.09 193.386 332.483 191.89 333.269 190.602C334.055 189.314 335.125 188.311 336.479 187.591C337.843 186.871 339.372 186.511 341.067 186.511C342.772 186.511 344.282 186.871 345.598 187.591C346.915 188.311 347.947 189.281 348.695 190.503C349.443 191.724 349.817 193.083 349.817 194.58C349.817 195.65 349.623 196.696 349.235 197.719C348.856 198.732 348.193 199.864 347.246 201.114C346.309 202.354 345.007 203.869 343.34 205.659L336.806 212.648V212.875H350.328V216H331.976ZM357.104 216L370.115 190.261V190.034H355.115V186.909H373.752V190.205L360.797 216H357.104Z" fill="white"/>
<path d="M231.976 575V572.443L241.578 561.932C242.705 560.701 243.633 559.631 244.363 558.722C245.092 557.803 245.632 556.941 245.982 556.136C246.342 555.322 246.522 554.47 246.522 553.58C246.522 552.557 246.275 551.671 245.783 550.923C245.3 550.175 244.637 549.598 243.794 549.19C242.952 548.783 242.005 548.58 240.953 548.58C239.836 548.58 238.861 548.812 238.027 549.276C237.203 549.73 236.564 550.369 236.11 551.193C235.665 552.017 235.442 552.983 235.442 554.091H232.09C232.09 552.386 232.483 550.89 233.269 549.602C234.055 548.314 235.125 547.311 236.479 546.591C237.843 545.871 239.372 545.511 241.067 545.511C242.772 545.511 244.282 545.871 245.598 546.591C246.915 547.311 247.947 548.281 248.695 549.503C249.443 550.724 249.817 552.083 249.817 553.58C249.817 554.65 249.623 555.696 249.235 556.719C248.856 557.732 248.193 558.864 247.246 560.114C246.309 561.354 245.007 562.869 243.34 564.659L236.806 571.648V571.875H250.328V575H231.976ZM257.104 575L270.115 549.261V549.034H255.115V545.909H273.752V549.205L260.797 575H257.104Z" fill="white"/>
<path d="M666.497 931.398C664.622 931.398 662.951 931.076 661.483 930.432C660.025 929.788 658.865 928.893 658.003 927.747C657.151 926.592 656.687 925.252 656.611 923.727H660.19C660.266 924.665 660.588 925.474 661.156 926.156C661.724 926.829 662.468 927.349 663.386 927.719C664.305 928.088 665.323 928.273 666.44 928.273C667.69 928.273 668.798 928.055 669.764 927.619C670.73 927.184 671.488 926.578 672.037 925.801C672.586 925.025 672.861 924.125 672.861 923.102C672.861 922.032 672.596 921.09 672.065 920.276C671.535 919.452 670.759 918.808 669.736 918.344C668.713 917.88 667.463 917.648 665.986 917.648H663.656V914.523H665.986C667.141 914.523 668.154 914.314 669.026 913.898C669.906 913.481 670.593 912.894 671.085 912.136C671.587 911.379 671.838 910.489 671.838 909.466C671.838 908.481 671.62 907.624 671.185 906.895C670.749 906.166 670.134 905.598 669.338 905.19C668.552 904.783 667.624 904.58 666.554 904.58C665.55 904.58 664.603 904.764 663.713 905.134C662.832 905.493 662.113 906.019 661.554 906.71C660.995 907.392 660.692 908.216 660.645 909.182H657.236C657.293 907.657 657.752 906.322 658.614 905.176C659.475 904.021 660.602 903.121 661.994 902.477C663.396 901.833 664.935 901.511 666.611 901.511C668.41 901.511 669.954 901.876 671.241 902.605C672.529 903.325 673.519 904.277 674.21 905.46C674.902 906.644 675.247 907.922 675.247 909.295C675.247 910.934 674.816 912.33 673.955 913.486C673.102 914.641 671.942 915.441 670.474 915.886V916.114C672.312 916.417 673.746 917.198 674.778 918.457C675.811 919.707 676.327 921.256 676.327 923.102C676.327 924.684 675.896 926.104 675.034 927.364C674.182 928.614 673.017 929.598 671.54 930.318C670.063 931.038 668.382 931.398 666.497 931.398ZM682.136 931V928.443L691.739 917.932C692.866 916.701 693.794 915.631 694.523 914.722C695.252 913.803 695.792 912.941 696.142 912.136C696.502 911.322 696.682 910.47 696.682 909.58C696.682 908.557 696.436 907.671 695.943 906.923C695.46 906.175 694.797 905.598 693.955 905.19C693.112 904.783 692.165 904.58 691.114 904.58C689.996 904.58 689.021 904.812 688.188 905.276C687.364 905.73 686.724 906.369 686.27 907.193C685.825 908.017 685.602 908.983 685.602 910.091H682.25C682.25 908.386 682.643 906.89 683.429 905.602C684.215 904.314 685.285 903.311 686.639 902.591C688.003 901.871 689.532 901.511 691.227 901.511C692.932 901.511 694.442 901.871 695.759 902.591C697.075 903.311 698.107 904.281 698.855 905.503C699.603 906.724 699.977 908.083 699.977 909.58C699.977 910.65 699.783 911.696 699.395 912.719C699.016 913.732 698.353 914.864 697.406 916.114C696.469 917.354 695.167 918.869 693.5 920.659L686.966 927.648V927.875H700.489V931H682.136Z" fill="white"/>
<path d="M87.9762 1286V1283.44L97.5785 1272.93C98.7054 1271.7 99.6334 1270.63 100.363 1269.72C101.092 1268.8 101.632 1267.94 101.982 1267.14C102.342 1266.32 102.522 1265.47 102.522 1264.58C102.522 1263.56 102.275 1262.67 101.783 1261.92C101.3 1261.18 100.637 1260.6 99.7944 1260.19C98.9516 1259.78 98.0046 1259.58 96.9535 1259.58C95.8361 1259.58 94.8607 1259.81 94.0273 1260.28C93.2035 1260.73 92.5643 1261.37 92.1097 1262.19C91.6647 1263.02 91.4421 1263.98 91.4421 1265.09H88.0898C88.0898 1263.39 88.4828 1261.89 89.2688 1260.6C90.0548 1259.31 91.1249 1258.31 92.479 1257.59C93.8427 1256.87 95.372 1256.51 97.0671 1256.51C98.7717 1256.51 100.282 1256.87 101.598 1257.59C102.915 1258.31 103.947 1259.28 104.695 1260.5C105.443 1261.72 105.817 1263.08 105.817 1264.58C105.817 1265.65 105.623 1266.7 105.235 1267.72C104.856 1268.73 104.193 1269.86 103.246 1271.11C102.309 1272.35 101.007 1273.87 99.3398 1275.66L92.8058 1282.65V1282.88H106.328V1286H87.9762ZM113.104 1286L126.115 1260.26V1260.03H111.115V1256.91H129.752V1260.2L116.797 1286H113.104Z" fill="white"/>
<path d="M737.497 575.398C735.622 575.398 733.951 575.076 732.483 574.432C731.025 573.788 729.865 572.893 729.003 571.747C728.151 570.592 727.687 569.252 727.611 567.727H731.19C731.266 568.665 731.588 569.474 732.156 570.156C732.724 570.829 733.468 571.349 734.386 571.719C735.305 572.088 736.323 572.273 737.44 572.273C738.69 572.273 739.798 572.055 740.764 571.619C741.73 571.184 742.488 570.578 743.037 569.801C743.586 569.025 743.861 568.125 743.861 567.102C743.861 566.032 743.596 565.09 743.065 564.276C742.535 563.452 741.759 562.808 740.736 562.344C739.713 561.88 738.463 561.648 736.986 561.648H734.656V558.523H736.986C738.141 558.523 739.154 558.314 740.026 557.898C740.906 557.481 741.593 556.894 742.085 556.136C742.587 555.379 742.838 554.489 742.838 553.466C742.838 552.481 742.62 551.624 742.185 550.895C741.749 550.166 741.134 549.598 740.338 549.19C739.552 548.783 738.624 548.58 737.554 548.58C736.55 548.58 735.603 548.764 734.713 549.134C733.832 549.493 733.113 550.019 732.554 550.71C731.995 551.392 731.692 552.216 731.645 553.182H728.236C728.293 551.657 728.752 550.322 729.614 549.176C730.475 548.021 731.602 547.121 732.994 546.477C734.396 545.833 735.935 545.511 737.611 545.511C739.41 545.511 740.954 545.876 742.241 546.605C743.529 547.325 744.519 548.277 745.21 549.46C745.902 550.644 746.247 551.922 746.247 553.295C746.247 554.934 745.816 556.33 744.955 557.486C744.102 558.641 742.942 559.441 741.474 559.886V560.114C743.312 560.417 744.746 561.198 745.778 562.457C746.811 563.707 747.327 565.256 747.327 567.102C747.327 568.684 746.896 570.104 746.034 571.364C745.182 572.614 744.017 573.598 742.54 574.318C741.063 575.038 739.382 575.398 737.497 575.398ZM753.136 575V572.443L762.739 561.932C763.866 560.701 764.794 559.631 765.523 558.722C766.252 557.803 766.792 556.941 767.142 556.136C767.502 555.322 767.682 554.47 767.682 553.58C767.682 552.557 767.436 551.671 766.943 550.923C766.46 550.175 765.797 549.598 764.955 549.19C764.112 548.783 763.165 548.58 762.114 548.58C760.996 548.58 760.021 548.812 759.188 549.276C758.364 549.73 757.724 550.369 757.27 551.193C756.825 552.017 756.602 552.983 756.602 554.091H753.25C753.25 552.386 753.643 550.89 754.429 549.602C755.215 548.314 756.285 547.311 757.639 546.591C759.003 545.871 760.532 545.511 762.227 545.511C763.932 545.511 765.442 545.871 766.759 546.591C768.075 547.311 769.107 548.281 769.855 549.503C770.603 550.724 770.977 552.083 770.977 553.58C770.977 554.65 770.783 555.696 770.395 556.719C770.016 557.732 769.353 558.864 768.406 560.114C767.469 561.354 766.167 562.869 764.5 564.659L757.966 571.648V571.875H771.489V575H753.136Z" fill="white"/>
<path d="M158.976 931V928.443L168.578 917.932C169.705 916.701 170.633 915.631 171.363 914.722C172.092 913.803 172.632 912.941 172.982 912.136C173.342 911.322 173.522 910.47 173.522 909.58C173.522 908.557 173.275 907.671 172.783 906.923C172.3 906.175 171.637 905.598 170.794 905.19C169.952 904.783 169.005 904.58 167.953 904.58C166.836 904.58 165.861 904.812 165.027 905.276C164.203 905.73 163.564 906.369 163.11 907.193C162.665 908.017 162.442 908.983 162.442 910.091H159.09C159.09 908.386 159.483 906.89 160.269 905.602C161.055 904.314 162.125 903.311 163.479 902.591C164.843 901.871 166.372 901.511 168.067 901.511C169.772 901.511 171.282 901.871 172.598 902.591C173.915 903.311 174.947 904.281 175.695 905.503C176.443 906.724 176.817 908.083 176.817 909.58C176.817 910.65 176.623 911.696 176.235 912.719C175.856 913.732 175.193 914.864 174.246 916.114C173.309 917.354 172.007 918.869 170.34 920.659L163.806 927.648V927.875H177.328V931H158.976ZM184.104 931L197.115 905.261V905.034H182.115V901.909H200.752V905.205L187.797 931H184.104Z" fill="white"/>
<path d="M494.961 901.909V931H491.439V905.602H491.268L484.166 910.318V906.739L491.439 901.909H494.961ZM512.589 901.511C513.782 901.521 514.975 901.748 516.169 902.193C517.362 902.638 518.451 903.377 519.436 904.409C520.421 905.432 521.211 906.829 521.808 908.599C522.404 910.37 522.703 912.591 522.703 915.261C522.703 917.847 522.457 920.143 521.964 922.151C521.481 924.149 520.78 925.834 519.862 927.207C518.953 928.58 517.845 929.622 516.538 930.332C515.241 931.043 513.773 931.398 512.135 931.398C510.506 931.398 509.052 931.076 507.774 930.432C506.505 929.778 505.463 928.874 504.649 927.719C503.844 926.554 503.328 925.205 503.1 923.67H506.566C506.879 925.006 507.499 926.109 508.427 926.98C509.365 927.842 510.6 928.273 512.135 928.273C514.379 928.273 516.15 927.293 517.447 925.332C518.754 923.372 519.407 920.602 519.407 917.023H519.18C518.65 917.818 518.02 918.505 517.291 919.082C516.562 919.66 515.752 920.105 514.862 920.418C513.972 920.73 513.025 920.886 512.021 920.886C510.354 920.886 508.825 920.474 507.433 919.651C506.05 918.817 504.942 917.676 504.109 916.227C503.285 914.769 502.873 913.102 502.873 911.227C502.873 909.447 503.271 907.818 504.066 906.341C504.871 904.854 505.998 903.67 507.447 902.79C508.905 901.909 510.619 901.483 512.589 901.511ZM512.589 904.636C511.396 904.636 510.321 904.935 509.365 905.531C508.418 906.118 507.665 906.914 507.106 907.918C506.557 908.912 506.282 910.015 506.282 911.227C506.282 912.439 506.547 913.543 507.078 914.537C507.618 915.522 508.351 916.308 509.279 916.895C510.217 917.473 511.282 917.761 512.475 917.761C513.375 917.761 514.213 917.586 514.99 917.236C515.766 916.876 516.443 916.388 517.021 915.773C517.608 915.148 518.067 914.442 518.399 913.656C518.73 912.861 518.896 912.032 518.896 911.17C518.896 910.034 518.621 908.969 518.072 907.974C517.532 906.98 516.784 906.175 515.828 905.56C514.881 904.944 513.801 904.636 512.589 904.636Z" fill="white"/>
<path d="M450.572 210.034V207.136L463.356 186.909H465.458V191.398H464.038L454.379 206.682V206.909H471.594V210.034H450.572ZM464.265 216V209.153V207.804V186.909H467.617V216H464.265ZM477.827 216L490.838 190.261V190.034H475.838V186.909H494.474V190.205L481.52 216H477.827Z" fill="white"/>
<path d="M350.572 569.034V566.136L363.356 545.909H365.458V550.398H364.038L354.379 565.682V565.909H371.594V569.034H350.572ZM364.265 575V568.153V566.804V545.909H367.617V575H364.265ZM377.827 575L390.838 549.261V549.034H375.838V545.909H394.474V549.205L381.52 575H377.827Z" fill="white"/>
<path d="M861.332 545.909V575H857.81V549.602H857.639L850.537 554.318V550.739L857.81 545.909H861.332ZM869.699 575V572.443L879.301 561.932C880.428 560.701 881.356 559.631 882.085 558.722C882.814 557.803 883.354 556.941 883.705 556.136C884.064 555.322 884.244 554.47 884.244 553.58C884.244 552.557 883.998 551.671 883.506 550.923C883.023 550.175 882.36 549.598 881.517 549.19C880.674 548.783 879.727 548.58 878.676 548.58C877.559 548.58 876.583 548.812 875.75 549.276C874.926 549.73 874.287 550.369 873.832 551.193C873.387 552.017 873.165 552.983 873.165 554.091H869.812C869.812 552.386 870.205 550.89 870.991 549.602C871.777 548.314 872.848 547.311 874.202 546.591C875.565 545.871 877.095 545.511 878.79 545.511C880.494 545.511 882.005 545.871 883.321 546.591C884.637 547.311 885.67 548.281 886.418 549.503C887.166 550.724 887.54 552.083 887.54 553.58C887.54 554.65 887.346 555.696 886.957 556.719C886.579 557.732 885.916 558.864 884.969 560.114C884.031 561.354 882.729 562.869 881.062 564.659L874.528 571.648V571.875H888.051V575H869.699Z" fill="white"/>
<path d="M277.572 925.034V922.136L290.356 901.909H292.458V906.398H291.038L281.379 921.682V921.909H298.594V925.034H277.572ZM291.265 931V924.153V922.804V901.909H294.617V931H291.265ZM304.827 931L317.838 905.261V905.034H302.838V901.909H321.474V905.205L308.52 931H304.827Z" fill="white"/>
<path d="M933.332 901.909V931H929.81V905.602H929.639L922.537 910.318V906.739L929.81 901.909H933.332ZM941.699 931V928.443L951.301 917.932C952.428 916.701 953.356 915.631 954.085 914.722C954.814 913.803 955.354 912.941 955.705 912.136C956.064 911.322 956.244 910.47 956.244 909.58C956.244 908.557 955.998 907.671 955.506 906.923C955.023 906.175 954.36 905.598 953.517 905.19C952.674 904.783 951.727 904.58 950.676 904.58C949.559 904.58 948.583 904.812 947.75 905.276C946.926 905.73 946.287 906.369 945.832 907.193C945.387 908.017 945.165 908.983 945.165 910.091H941.812C941.812 908.386 942.205 906.89 942.991 905.602C943.777 904.314 944.848 903.311 946.202 902.591C947.565 901.871 949.095 901.511 950.79 901.511C952.494 901.511 954.005 901.871 955.321 902.591C956.637 903.311 957.67 904.281 958.418 905.503C959.166 906.724 959.54 908.083 959.54 909.58C959.54 910.65 959.346 911.696 958.957 912.719C958.579 913.732 957.916 914.864 956.969 916.114C956.031 917.354 954.729 918.869 953.062 920.659L946.528 927.648V927.875H960.051V931H941.699Z" fill="white"/>
<path d="M349.572 1280.03V1277.14L362.356 1256.91H364.458V1261.4H363.038L353.379 1276.68V1276.91H370.594V1280.03H349.572ZM363.265 1286V1279.15V1277.8V1256.91H366.617V1286H363.265ZM376.827 1286L389.838 1260.26V1260.03H374.838V1256.91H393.474V1260.2L380.52 1286H376.827Z" fill="white"/>
<path d="M583.961 186.909V216H580.439V190.602H580.268L573.166 195.318V191.739L580.439 186.909H583.961ZM601.589 186.511C602.782 186.521 603.975 186.748 605.169 187.193C606.362 187.638 607.451 188.377 608.436 189.409C609.421 190.432 610.211 191.829 610.808 193.599C611.404 195.37 611.703 197.591 611.703 200.261C611.703 202.847 611.457 205.143 610.964 207.151C610.481 209.149 609.78 210.834 608.862 212.207C607.953 213.58 606.845 214.622 605.538 215.332C604.241 216.043 602.773 216.398 601.135 216.398C599.506 216.398 598.052 216.076 596.774 215.432C595.505 214.778 594.463 213.874 593.649 212.719C592.844 211.554 592.328 210.205 592.1 208.67H595.566C595.879 210.006 596.499 211.109 597.427 211.98C598.365 212.842 599.6 213.273 601.135 213.273C603.379 213.273 605.15 212.293 606.447 210.332C607.754 208.372 608.407 205.602 608.407 202.023H608.18C607.65 202.818 607.02 203.505 606.291 204.082C605.562 204.66 604.752 205.105 603.862 205.418C602.972 205.73 602.025 205.886 601.021 205.886C599.354 205.886 597.825 205.474 596.433 204.651C595.05 203.817 593.942 202.676 593.109 201.227C592.285 199.769 591.873 198.102 591.873 196.227C591.873 194.447 592.271 192.818 593.066 191.341C593.871 189.854 594.998 188.67 596.447 187.79C597.905 186.909 599.619 186.483 601.589 186.511ZM601.589 189.636C600.396 189.636 599.321 189.935 598.365 190.531C597.418 191.118 596.665 191.914 596.106 192.918C595.557 193.912 595.282 195.015 595.282 196.227C595.282 197.439 595.547 198.543 596.078 199.537C596.618 200.522 597.351 201.308 598.279 201.895C599.217 202.473 600.282 202.761 601.475 202.761C602.375 202.761 603.213 202.586 603.99 202.236C604.766 201.876 605.443 201.388 606.021 200.773C606.608 200.148 607.067 199.442 607.399 198.656C607.73 197.861 607.896 197.032 607.896 196.17C607.896 195.034 607.621 193.969 607.072 192.974C606.532 191.98 605.784 191.175 604.828 190.56C603.881 189.944 602.801 189.636 601.589 189.636Z" fill="white"/>
<path d="M483.961 545.909V575H480.439V549.602H480.268L473.166 554.318V550.739L480.439 545.909H483.961ZM501.589 545.511C502.782 545.521 503.975 545.748 505.169 546.193C506.362 546.638 507.451 547.377 508.436 548.409C509.421 549.432 510.211 550.829 510.808 552.599C511.404 554.37 511.703 556.591 511.703 559.261C511.703 561.847 511.457 564.143 510.964 566.151C510.481 568.149 509.78 569.834 508.862 571.207C507.953 572.58 506.845 573.622 505.538 574.332C504.241 575.043 502.773 575.398 501.135 575.398C499.506 575.398 498.052 575.076 496.774 574.432C495.505 573.778 494.463 572.874 493.649 571.719C492.844 570.554 492.328 569.205 492.1 567.67H495.566C495.879 569.006 496.499 570.109 497.427 570.98C498.365 571.842 499.6 572.273 501.135 572.273C503.379 572.273 505.15 571.293 506.447 569.332C507.754 567.372 508.407 564.602 508.407 561.023H508.18C507.65 561.818 507.02 562.505 506.291 563.082C505.562 563.66 504.752 564.105 503.862 564.418C502.972 564.73 502.025 564.886 501.021 564.886C499.354 564.886 497.825 564.474 496.433 563.651C495.05 562.817 493.942 561.676 493.109 560.227C492.285 558.769 491.873 557.102 491.873 555.227C491.873 553.447 492.271 551.818 493.066 550.341C493.871 548.854 494.998 547.67 496.447 546.79C497.905 545.909 499.619 545.483 501.589 545.511ZM501.589 548.636C500.396 548.636 499.321 548.935 498.365 549.531C497.418 550.118 496.665 550.914 496.106 551.918C495.557 552.912 495.282 554.015 495.282 555.227C495.282 556.439 495.547 557.543 496.078 558.537C496.618 559.522 497.351 560.308 498.279 560.895C499.217 561.473 500.282 561.761 501.475 561.761C502.375 561.761 503.213 561.586 503.99 561.236C504.766 560.876 505.443 560.388 506.021 559.773C506.608 559.148 507.067 558.442 507.399 557.656C507.73 556.861 507.896 556.032 507.896 555.17C507.896 554.034 507.621 552.969 507.072 551.974C506.532 550.98 505.784 550.175 504.828 549.56C503.881 548.944 502.801 548.636 501.589 548.636Z" fill="white"/>
<path d="M434.454 74.2756C434.341 73.1297 433.853 72.2396 432.991 71.6051C432.129 70.9706 430.96 70.6534 429.483 70.6534C428.479 70.6534 427.631 70.7955 426.94 71.0795C426.249 71.3542 425.718 71.7377 425.349 72.2301C424.989 72.7225 424.809 73.2812 424.809 73.9062C424.79 74.4271 424.899 74.8816 425.136 75.2699C425.382 75.6581 425.718 75.9943 426.145 76.2784C426.571 76.553 427.063 76.7945 427.622 77.0028C428.181 77.2017 428.777 77.3722 429.412 77.5142L432.025 78.1392C433.294 78.4233 434.459 78.8021 435.52 79.2756C436.58 79.7491 437.499 80.3314 438.275 81.0227C439.052 81.714 439.653 82.5284 440.079 83.4659C440.515 84.4034 440.737 85.4782 440.747 86.6903C440.737 88.4706 440.283 90.0142 439.383 91.321C438.493 92.6184 437.205 93.6269 435.52 94.3466C433.843 95.0568 431.822 95.4119 429.454 95.4119C427.106 95.4119 425.06 95.0521 423.318 94.3324C421.585 93.6127 420.231 92.5473 419.255 91.1364C418.289 89.7159 417.783 87.9593 417.735 85.8665H423.687C423.753 86.8419 424.033 87.6562 424.525 88.3097C425.027 88.9536 425.695 89.4413 426.528 89.7727C427.371 90.0947 428.323 90.2557 429.383 90.2557C430.425 90.2557 431.329 90.1042 432.096 89.8011C432.873 89.4981 433.474 89.0767 433.9 88.5369C434.326 87.9972 434.539 87.3769 434.539 86.6761C434.539 86.0227 434.345 85.4735 433.957 85.0284C433.578 84.5833 433.02 84.2045 432.281 83.892C431.552 83.5795 430.657 83.2955 429.596 83.0398L426.429 82.2443C423.976 81.6477 422.039 80.715 420.619 79.446C419.199 78.1771 418.493 76.4678 418.502 74.3182C418.493 72.5568 418.962 71.018 419.909 69.7017C420.865 68.3854 422.177 67.358 423.843 66.6193C425.51 65.8807 427.404 65.5114 429.525 65.5114C431.684 65.5114 433.569 65.8807 435.179 66.6193C436.798 67.358 438.057 68.3854 438.957 69.7017C439.857 71.018 440.321 72.5426 440.349 74.2756H434.454ZM444.77 103.182V73.1818H450.736V76.8466H451.006C451.271 76.2595 451.655 75.6629 452.157 75.0568C452.668 74.4413 453.331 73.9299 454.145 73.5227C454.969 73.1061 455.992 72.8977 457.213 72.8977C458.804 72.8977 460.272 73.3144 461.617 74.1477C462.962 74.9716 464.036 76.2169 464.841 77.8835C465.646 79.5407 466.049 81.6193 466.049 84.1193C466.049 86.553 465.656 88.608 464.87 90.2841C464.093 91.9508 463.033 93.215 461.688 94.0767C460.353 94.929 458.856 95.3551 457.199 95.3551C456.025 95.3551 455.026 95.161 454.202 94.7727C453.388 94.3845 452.72 93.8968 452.199 93.3097C451.678 92.7131 451.281 92.1117 451.006 91.5057H450.821V103.182H444.77ZM450.694 84.0909C450.694 85.3883 450.873 86.5199 451.233 87.4858C451.593 88.4517 452.114 89.2045 452.796 89.7443C453.478 90.2746 454.306 90.5398 455.282 90.5398C456.266 90.5398 457.1 90.2699 457.782 89.7301C458.463 89.1809 458.98 88.4233 459.33 87.4574C459.69 86.482 459.87 85.3598 459.87 84.0909C459.87 82.8314 459.694 81.7235 459.344 80.767C458.994 79.8106 458.478 79.0625 457.796 78.5227C457.114 77.983 456.276 77.7131 455.282 77.7131C454.297 77.7131 453.463 77.9735 452.782 78.4943C452.109 79.0152 451.593 79.7538 451.233 80.7102C450.873 81.6667 450.694 82.7936 450.694 84.0909ZM476.134 65.9091V95H470.083V65.9091H476.134ZM480.981 95V73.1818H487.032V95H480.981ZM484.021 70.3693C483.121 70.3693 482.35 70.071 481.706 69.4744C481.071 68.8684 480.754 68.1439 480.754 67.3011C480.754 66.4678 481.071 65.7528 481.706 65.1562C482.35 64.5502 483.121 64.2472 484.021 64.2472C484.921 64.2472 485.688 64.5502 486.322 65.1562C486.966 65.7528 487.288 66.4678 487.288 67.3011C487.288 68.1439 486.966 68.8684 486.322 69.4744C485.688 70.071 484.921 70.3693 484.021 70.3693ZM503.485 73.1818V77.7273H490.346V73.1818H503.485ZM493.328 67.9545H499.38V88.2955C499.38 88.8542 499.465 89.2898 499.635 89.6023C499.806 89.9053 500.042 90.1184 500.346 90.2415C500.658 90.3646 501.018 90.4261 501.425 90.4261C501.709 90.4261 501.993 90.4025 502.277 90.3551C502.561 90.2983 502.779 90.2557 502.931 90.2273L503.882 94.7301C503.579 94.8248 503.153 94.9337 502.604 95.0568C502.055 95.1894 501.387 95.2699 500.601 95.2983C499.143 95.3551 497.864 95.161 496.766 94.7159C495.677 94.2708 494.829 93.5795 494.223 92.642C493.617 91.7045 493.319 90.5208 493.328 89.0909V67.9545ZM519.032 73.1818V77.7273H505.892V73.1818H519.032ZM508.875 67.9545H514.926V88.2955C514.926 88.8542 515.012 89.2898 515.182 89.6023C515.353 89.9053 515.589 90.1184 515.892 90.2415C516.205 90.3646 516.565 90.4261 516.972 90.4261C517.256 90.4261 517.54 90.4025 517.824 90.3551C518.108 90.2983 518.326 90.2557 518.478 90.2273L519.429 94.7301C519.126 94.8248 518.7 94.9337 518.151 95.0568C517.602 95.1894 516.934 95.2699 516.148 95.2983C514.69 95.3551 513.411 95.161 512.313 94.7159C511.224 94.2708 510.376 93.5795 509.77 92.642C509.164 91.7045 508.866 90.5208 508.875 89.0909V67.9545ZM522.973 95V73.1818H529.025V95H522.973ZM526.013 70.3693C525.114 70.3693 524.342 70.071 523.698 69.4744C523.063 68.8684 522.746 68.1439 522.746 67.3011C522.746 66.4678 523.063 65.7528 523.698 65.1562C524.342 64.5502 525.114 64.2472 526.013 64.2472C526.913 64.2472 527.68 64.5502 528.314 65.1562C528.958 65.7528 529.28 66.4678 529.28 67.3011C529.28 68.1439 528.958 68.8684 528.314 69.4744C527.68 70.071 526.913 70.3693 526.013 70.3693ZM539.923 82.3864V95H533.872V73.1818H539.639V77.0312H539.895C540.377 75.7623 541.187 74.7585 542.324 74.0199C543.46 73.2718 544.838 72.8977 546.457 72.8977C547.972 72.8977 549.293 73.2292 550.42 73.892C551.547 74.5549 552.423 75.5019 553.048 76.733C553.673 77.9545 553.985 79.4129 553.985 81.108V95H547.934V82.1875C547.944 80.8523 547.603 79.8106 546.912 79.0625C546.22 78.3049 545.269 77.9261 544.056 77.9261C543.242 77.9261 542.522 78.1013 541.897 78.4517C541.282 78.8021 540.799 79.3134 540.449 79.9858C540.108 80.6487 539.932 81.4489 539.923 82.3864ZM568.584 103.636C566.624 103.636 564.943 103.366 563.542 102.827C562.15 102.296 561.042 101.572 560.218 100.653C559.394 99.7348 558.859 98.7027 558.613 97.5568L564.209 96.804C564.38 97.2396 564.65 97.6468 565.019 98.0256C565.388 98.4044 565.876 98.7074 566.482 98.9347C567.097 99.1714 567.846 99.2898 568.726 99.2898C570.042 99.2898 571.127 98.9678 571.979 98.3239C572.841 97.6894 573.272 96.6241 573.272 95.1278V91.1364H573.016C572.751 91.7424 572.353 92.3153 571.823 92.8551C571.292 93.3949 570.611 93.8352 569.777 94.1761C568.944 94.517 567.95 94.6875 566.794 94.6875C565.156 94.6875 563.665 94.3087 562.32 93.5511C560.985 92.7841 559.919 91.6146 559.124 90.0426C558.338 88.4612 557.945 86.4631 557.945 84.0483C557.945 81.5767 558.347 79.5123 559.152 77.8551C559.957 76.1979 561.027 74.9574 562.363 74.1335C563.707 73.3097 565.18 72.8977 566.78 72.8977C568.002 72.8977 569.025 73.1061 569.848 73.5227C570.672 73.9299 571.335 74.4413 571.837 75.0568C572.348 75.6629 572.741 76.2595 573.016 76.8466H573.243V73.1818H579.252V95.2131C579.252 97.0691 578.797 98.6222 577.888 99.8722C576.979 101.122 575.72 102.06 574.11 102.685C572.509 103.319 570.667 103.636 568.584 103.636ZM568.712 90.142C569.687 90.142 570.511 89.9006 571.184 89.4176C571.865 88.9252 572.386 88.2244 572.746 87.3153C573.115 86.3968 573.3 85.2983 573.3 84.0199C573.3 82.7415 573.12 81.6335 572.76 80.696C572.4 79.7491 571.88 79.0152 571.198 78.4943C570.516 77.9735 569.687 77.7131 568.712 77.7131C567.718 77.7131 566.88 77.983 566.198 78.5227C565.516 79.053 565 79.7917 564.65 80.7386C564.299 81.6856 564.124 82.7794 564.124 84.0199C564.124 85.2794 564.299 86.3684 564.65 87.2869C565.009 88.196 565.525 88.9015 566.198 89.4034C566.88 89.8958 567.718 90.142 568.712 90.142ZM617.771 65.9091V95H612.458L599.802 76.6903H599.589V95H593.439V65.9091H598.836L611.393 84.2045H611.649V65.9091H617.771ZM636.73 85.7102V73.1818H642.782V95H636.972V91.0369H636.745C636.252 92.3153 635.433 93.3428 634.287 94.1193C633.151 94.8958 631.764 95.2841 630.125 95.2841C628.667 95.2841 627.384 94.9527 626.276 94.2898C625.168 93.6269 624.301 92.6847 623.676 91.4631C623.061 90.2415 622.748 88.7784 622.739 87.0739V73.1818H628.79V85.9943C628.8 87.2822 629.145 88.3002 629.827 89.0483C630.509 89.7964 631.423 90.1705 632.569 90.1705C633.298 90.1705 633.98 90.0047 634.614 89.6733C635.248 89.3324 635.76 88.8305 636.148 88.1676C636.546 87.5047 636.74 86.6856 636.73 85.7102ZM647.622 95V73.1818H653.389V77.0312H653.645C654.099 75.7528 654.857 74.7443 655.917 74.0057C656.978 73.267 658.247 72.8977 659.724 72.8977C661.22 72.8977 662.494 73.2718 663.545 74.0199C664.596 74.7585 665.297 75.7623 665.647 77.0312H665.875C666.32 75.7812 667.125 74.7822 668.289 74.0341C669.464 73.2765 670.851 72.8977 672.451 72.8977C674.487 72.8977 676.14 73.5464 677.409 74.8438C678.687 76.1316 679.326 77.9593 679.326 80.3267V95H673.289V81.5199C673.289 80.3078 672.967 79.3987 672.324 78.7926C671.68 78.1866 670.875 77.8835 669.909 77.8835C668.81 77.8835 667.953 78.2339 667.338 78.9347C666.722 79.6259 666.414 80.5398 666.414 81.6761V95H660.548V81.392C660.548 80.322 660.24 79.4697 659.625 78.8352C659.019 78.2008 658.218 77.8835 657.224 77.8835C656.552 77.8835 655.946 78.054 655.406 78.3949C654.876 78.7263 654.454 79.1951 654.142 79.8011C653.829 80.3977 653.673 81.0985 653.673 81.9034V95H647.622ZM684.22 95V65.9091H690.271V76.8466H690.456C690.721 76.2595 691.104 75.6629 691.606 75.0568C692.118 74.4413 692.78 73.9299 693.595 73.5227C694.419 73.1061 695.441 72.8977 696.663 72.8977C698.254 72.8977 699.722 73.3144 701.066 74.1477C702.411 74.9716 703.486 76.2169 704.291 77.8835C705.096 79.5407 705.498 81.6193 705.498 84.1193C705.498 86.553 705.105 88.608 704.319 90.2841C703.543 91.9508 702.482 93.215 701.137 94.0767C699.802 94.929 698.306 95.3551 696.649 95.3551C695.475 95.3551 694.475 95.161 693.652 94.7727C692.837 94.3845 692.17 93.8968 691.649 93.3097C691.128 92.7131 690.73 92.1117 690.456 91.5057H690.186V95H684.22ZM690.143 84.0909C690.143 85.3883 690.323 86.5199 690.683 87.4858C691.043 88.4517 691.564 89.2045 692.245 89.7443C692.927 90.2746 693.756 90.5398 694.731 90.5398C695.716 90.5398 696.549 90.2699 697.231 89.7301C697.913 89.1809 698.429 88.4233 698.779 87.4574C699.139 86.482 699.319 85.3598 699.319 84.0909C699.319 82.8314 699.144 81.7235 698.794 80.767C698.443 79.8106 697.927 79.0625 697.245 78.5227C696.564 77.983 695.725 77.7131 694.731 77.7131C693.746 77.7131 692.913 77.9735 692.231 78.4943C691.559 79.0152 691.043 79.7538 690.683 80.7102C690.323 81.6667 690.143 82.7936 690.143 84.0909ZM719.479 95.4261C717.235 95.4261 715.303 94.9716 713.684 94.0625C712.074 93.1439 710.833 91.8466 709.962 90.1705C709.091 88.4848 708.655 86.4915 708.655 84.1903C708.655 81.946 709.091 79.9763 709.962 78.2812C710.833 76.5862 712.06 75.2652 713.641 74.3182C715.232 73.3712 717.097 72.8977 719.238 72.8977C720.677 72.8977 722.017 73.1297 723.257 73.5938C724.507 74.0483 725.596 74.7348 726.525 75.6534C727.462 76.572 728.191 77.7273 728.712 79.1193C729.233 80.5019 729.493 82.1212 729.493 83.9773V85.6392H711.07V81.8892H723.797C723.797 81.018 723.608 80.2462 723.229 79.5739C722.85 78.9015 722.325 78.3759 721.652 77.9972C720.989 77.6089 720.218 77.4148 719.337 77.4148C718.418 77.4148 717.604 77.6278 716.894 78.054C716.193 78.4706 715.644 79.0341 715.246 79.7443C714.848 80.4451 714.645 81.2263 714.635 82.0881V85.6534C714.635 86.733 714.834 87.6657 715.232 88.4517C715.639 89.2377 716.212 89.8438 716.951 90.2699C717.689 90.696 718.565 90.9091 719.578 90.9091C720.251 90.9091 720.866 90.8144 721.425 90.625C721.984 90.4356 722.462 90.1515 722.86 89.7727C723.257 89.3939 723.56 88.9299 723.769 88.3807L729.365 88.75C729.081 90.0947 728.499 91.2689 727.618 92.2727C726.747 93.267 725.62 94.0436 724.238 94.6023C722.864 95.1515 721.278 95.4261 719.479 95.4261ZM733.442 95V73.1818H739.309V76.9886H739.536C739.934 75.6345 740.601 74.6117 741.539 73.9205C742.476 73.2197 743.556 72.8693 744.777 72.8693C745.08 72.8693 745.407 72.8883 745.757 72.9261C746.108 72.964 746.416 73.0161 746.681 73.0824V78.4517C746.397 78.3665 746.004 78.2907 745.502 78.2244C745 78.1581 744.541 78.125 744.124 78.125C743.234 78.125 742.438 78.3191 741.738 78.7074C741.046 79.0862 740.497 79.6165 740.09 80.2983C739.692 80.9801 739.493 81.7661 739.493 82.6562V95H733.442ZM767.963 79.4034L762.423 79.7443C762.328 79.2708 762.125 78.8447 761.812 78.4659C761.5 78.0777 761.088 77.7699 760.576 77.5426C760.074 77.3059 759.473 77.1875 758.772 77.1875C757.835 77.1875 757.044 77.3864 756.4 77.7841C755.756 78.1723 755.434 78.6932 755.434 79.3466C755.434 79.8674 755.643 80.3078 756.059 80.6676C756.476 81.0275 757.191 81.3163 758.204 81.5341L762.153 82.3295C764.274 82.7652 765.856 83.4659 766.897 84.4318C767.939 85.3977 768.46 86.6667 768.46 88.2386C768.46 89.6686 768.038 90.9233 767.196 92.0028C766.362 93.0824 765.217 93.9252 763.758 94.5312C762.309 95.1278 760.638 95.4261 758.744 95.4261C755.856 95.4261 753.555 94.8248 751.841 93.6222C750.136 92.41 749.137 90.7623 748.843 88.679L754.795 88.3665C754.975 89.2472 755.411 89.9195 756.102 90.3835C756.793 90.8381 757.679 91.0653 758.758 91.0653C759.819 91.0653 760.671 90.8617 761.315 90.4545C761.968 90.0379 762.3 89.5028 762.309 88.8494C762.3 88.3002 762.068 87.8504 761.613 87.5C761.159 87.1402 760.458 86.8655 759.511 86.6761L755.733 85.9233C753.602 85.4972 752.016 84.7585 750.974 83.7074C749.942 82.6562 749.426 81.3163 749.426 79.6875C749.426 78.286 749.805 77.0786 750.562 76.0653C751.329 75.0521 752.404 74.2708 753.787 73.7216C755.179 73.1723 756.807 72.8977 758.673 72.8977C761.429 72.8977 763.597 73.4801 765.179 74.6449C766.77 75.8097 767.698 77.3958 767.963 79.4034Z" fill="white"/>
<path d="M701.497 216.398C699.622 216.398 697.951 216.076 696.483 215.432C695.025 214.788 693.865 213.893 693.003 212.747C692.151 211.592 691.687 210.252 691.611 208.727H695.19C695.266 209.665 695.588 210.474 696.156 211.156C696.724 211.829 697.468 212.349 698.386 212.719C699.305 213.088 700.323 213.273 701.44 213.273C702.69 213.273 703.798 213.055 704.764 212.619C705.73 212.184 706.488 211.578 707.037 210.801C707.586 210.025 707.861 209.125 707.861 208.102C707.861 207.032 707.596 206.09 707.065 205.276C706.535 204.452 705.759 203.808 704.736 203.344C703.713 202.88 702.463 202.648 700.986 202.648H698.656V199.523H700.986C702.141 199.523 703.154 199.314 704.026 198.898C704.906 198.481 705.593 197.894 706.085 197.136C706.587 196.379 706.838 195.489 706.838 194.466C706.838 193.481 706.62 192.624 706.185 191.895C705.749 191.166 705.134 190.598 704.338 190.19C703.552 189.783 702.624 189.58 701.554 189.58C700.55 189.58 699.603 189.764 698.713 190.134C697.832 190.493 697.113 191.019 696.554 191.71C695.995 192.392 695.692 193.216 695.645 194.182H692.236C692.293 192.657 692.752 191.322 693.614 190.176C694.475 189.021 695.602 188.121 696.994 187.477C698.396 186.833 699.935 186.511 701.611 186.511C703.41 186.511 704.954 186.876 706.241 187.605C707.529 188.325 708.519 189.277 709.21 190.46C709.902 191.644 710.247 192.922 710.247 194.295C710.247 195.934 709.816 197.33 708.955 198.486C708.102 199.641 706.942 200.441 705.474 200.886V201.114C707.312 201.417 708.746 202.198 709.778 203.457C710.811 204.707 711.327 206.256 711.327 208.102C711.327 209.684 710.896 211.104 710.034 212.364C709.182 213.614 708.017 214.598 706.54 215.318C705.063 216.038 703.382 216.398 701.497 216.398ZM717.136 216V213.443L726.739 202.932C727.866 201.701 728.794 200.631 729.523 199.722C730.252 198.803 730.792 197.941 731.142 197.136C731.502 196.322 731.682 195.47 731.682 194.58C731.682 193.557 731.436 192.671 730.943 191.923C730.46 191.175 729.797 190.598 728.955 190.19C728.112 189.783 727.165 189.58 726.114 189.58C724.996 189.58 724.021 189.812 723.188 190.276C722.364 190.73 721.724 191.369 721.27 192.193C720.825 193.017 720.602 193.983 720.602 195.091H717.25C717.25 193.386 717.643 191.89 718.429 190.602C719.215 189.314 720.285 188.311 721.639 187.591C723.003 186.871 724.532 186.511 726.227 186.511C727.932 186.511 729.442 186.871 730.759 187.591C732.075 188.311 733.107 189.281 733.855 190.503C734.603 191.724 734.977 193.083 734.977 194.58C734.977 195.65 734.783 196.696 734.395 197.719C734.016 198.732 733.353 199.864 732.406 201.114C731.469 202.354 730.167 203.869 728.5 205.659L721.966 212.648V212.875H735.489V216H717.136Z" fill="white"/>
<path d="M825.332 186.909V216H821.81V190.602H821.639L814.537 195.318V191.739L821.81 186.909H825.332ZM833.699 216V213.443L843.301 202.932C844.428 201.701 845.356 200.631 846.085 199.722C846.814 198.803 847.354 197.941 847.705 197.136C848.064 196.322 848.244 195.47 848.244 194.58C848.244 193.557 847.998 192.671 847.506 191.923C847.023 191.175 846.36 190.598 845.517 190.19C844.674 189.783 843.727 189.58 842.676 189.58C841.559 189.58 840.583 189.812 839.75 190.276C838.926 190.73 838.287 191.369 837.832 192.193C837.387 193.017 837.165 193.983 837.165 195.091H833.812C833.812 193.386 834.205 191.89 834.991 190.602C835.777 189.314 836.848 188.311 838.202 187.591C839.565 186.871 841.095 186.511 842.79 186.511C844.494 186.511 846.005 186.871 847.321 187.591C848.637 188.311 849.67 189.281 850.418 190.503C851.166 191.724 851.54 193.083 851.54 194.58C851.54 195.65 851.346 196.696 850.957 197.719C850.579 198.732 849.916 199.864 848.969 201.114C848.031 202.354 846.729 203.869 845.062 205.659L838.528 212.648V212.875H852.051V216H833.699Z" fill="white"/>
<line x1="593" y1="301" x2="593" y2="368" stroke="white" stroke-width="2"/>
<line x1="373" y1="674" x2="373" y2="741" stroke="white" stroke-width="2"/>
<line x1="811" y1="674" x2="811" y2="741" stroke="white" stroke-width="2"/>
<line x1="241" y1="1029" x2="241" y2="1096" stroke="white" stroke-width="2"/>
<line y1="-1" x2="67" y2="-1" transform="matrix(5.61454e-08 1 1 -3.4031e-08 810 366)" stroke="white" stroke-width="2"/>
<line y1="-1" x2="67" y2="-1" transform="matrix(3.38411e-08 1 1 -5.64605e-08 503 739)" stroke="white" stroke-width="2"/>
<line y1="-1" x2="67" y2="-1" transform="matrix(3.38411e-08 1 1 -5.64605e-08 941 739)" stroke="white" stroke-width="2"/>
<line y1="-1" x2="67" y2="-1" transform="matrix(3.38411e-08 1 1 -5.64605e-08 371 1094)" stroke="white" stroke-width="2"/>
<line y1="-1" x2="67" y2="-1" transform="matrix(6.10884e-08 1 1 -3.12774e-08 373 366)" stroke="white" stroke-width="2"/>
<line y1="-1" x2="67" y2="-1" transform="matrix(3.57047e-08 1 1 -5.35136e-08 240 739)" stroke="white" stroke-width="2"/>
<line y1="-1" x2="67" y2="-1" transform="matrix(3.68204e-08 1 1 -5.1892e-08 678 739)" stroke="white" stroke-width="2"/>
<line y1="-1" x2="67" y2="-1" transform="matrix(3.68204e-08 1 1 -5.1892e-08 108 1094)" stroke="white" stroke-width="2"/>
<line x1="811" y1="367" x2="373" y2="367" stroke="white" stroke-width="2"/>
<line x1="504" y1="740" x2="240" y2="740" stroke="white" stroke-width="2"/>
<line x1="942" y1="740" x2="678" y2="740" stroke="white" stroke-width="2"/>
<line x1="372" y1="1095" x2="108" y2="1095" stroke="white" stroke-width="2"/>
</svg>
