<svg xmlns="http://www.w3.org/2000/svg" width="1367" height="229" fill="none" viewBox="0 0 1367 229"><rect width="1365" height="150" x="1" y="78" stroke="#dbdbdb" stroke-width="2" rx="27"/><path fill="#fff" d="M598.581 168v-4.432l10.355-9.588a39 39 0 0 0 2.216-2.301q.909-1.023 1.377-2.003a4.96 4.96 0 0 0 .469-2.145q0-1.278-.582-2.201a3.8 3.8 0 0 0-1.591-1.435q-1.008-.511-2.287-.511-1.335 0-2.33.539a3.73 3.73 0 0 0-1.534 1.549q-.539 1.008-.539 2.4h-5.838q0-2.855 1.292-4.957 1.293-2.103 3.622-3.253 2.33-1.15 5.37-1.151 3.124 0 5.44 1.108 2.33 1.094 3.622 3.04 1.293 1.946 1.293 4.46a8.6 8.6 0 0 1-.654 3.253q-.639 1.605-2.287 3.566-1.647 1.946-4.645 4.673l-4.247 4.162v.199h12.216V168zm36.601.639q-3.664-.014-6.307-1.804-2.628-1.79-4.048-5.184-1.405-3.395-1.392-8.168 0-4.758 1.406-8.111 1.42-3.353 4.049-5.099 2.641-1.762 6.292-1.762t6.279 1.762q2.641 1.761 4.062 5.113 1.42 3.339 1.406 8.097 0 4.787-1.42 8.182-1.406 3.395-4.034 5.184t-6.293 1.79m0-5.099q2.5 0 3.992-2.514 1.49-2.515 1.477-7.543 0-3.31-.682-5.511-.667-2.202-1.903-3.31a4.15 4.15 0 0 0-2.884-1.108q-2.486 0-3.977 2.486t-1.506 7.443q0 3.352.668 5.597.682 2.23 1.917 3.352a4.2 4.2 0 0 0 2.898 1.108m27.539 5.099q-3.664-.014-6.307-1.804-2.627-1.79-4.048-5.184-1.406-3.395-1.392-8.168 0-4.758 1.406-8.111 1.42-3.353 4.049-5.099 2.642-1.762 6.292-1.762t6.279 1.762q2.641 1.761 4.062 5.113 1.42 3.339 1.406 8.097 0 4.787-1.42 8.182-1.407 3.395-4.034 5.184-2.628 1.79-6.293 1.79m0-5.099q2.5 0 3.992-2.514 1.49-2.515 1.477-7.543 0-3.31-.682-5.511-.667-2.202-1.903-3.31a4.15 4.15 0 0 0-2.884-1.108q-2.486 0-3.977 2.486t-1.506 7.443q0 3.352.668 5.597.681 2.23 1.918 3.352a4.2 4.2 0 0 0 2.897 1.108m25.561 4.46v-29.091h6.151v12.827h.383l10.469-12.827h7.372l-10.795 13.026L712.785 168h-7.358l-7.969-11.96-3.025 3.693V168zm27.578 0v-29.091h11.648q3.21 0 5.355.952 2.145.951 3.225 2.642 1.079 1.676 1.079 3.863 0 1.705-.682 2.998a5.9 5.9 0 0 1-1.875 2.102q-1.179.81-2.698 1.15v.285a6.5 6.5 0 0 1 3.11.937q1.463.867 2.373 2.429.909 1.548.909 3.693 0 2.316-1.151 4.134-1.137 1.803-3.366 2.855-2.23 1.051-5.498 1.051zm6.151-5.028h5.014q2.571 0 3.75-.981 1.179-.993 1.179-2.642 0-1.207-.582-2.13-.582-.924-1.662-1.449-1.065-.526-2.543-.526h-5.156zm0-11.89h4.56q1.264 0 2.244-.44.995-.455 1.562-1.278.583-.825.583-1.975 0-1.576-1.122-2.542-1.108-.966-3.154-.966h-4.673zM593.366 9.91h4.205l9.886 24.147h.341l9.887-24.148h4.204V39h-3.295V16.898h-.284L609.219 39h-3.182l-9.091-22.102h-.284V39h-3.296zm44.28 29.545q-3.154 0-5.441-1.392-2.272-1.407-3.508-3.921-1.222-2.529-1.222-5.88 0-3.353 1.222-5.91 1.236-2.571 3.437-4.005 2.216-1.45 5.171-1.45 1.704 0 3.366.569 1.662.568 3.026 1.846 1.363 1.264 2.173 3.353.81 2.088.81 5.142v1.42h-16.818V26.33h13.409q0-1.846-.739-3.295a5.56 5.56 0 0 0-2.074-2.287q-1.335-.838-3.153-.838-2.004 0-3.466.994a6.53 6.53 0 0 0-2.23 2.557 7.5 7.5 0 0 0-.782 3.38v1.933q0 2.472.853 4.19.866 1.704 2.4 2.6 1.534.88 3.566.88 1.32 0 2.386-.37a5.1 5.1 0 0 0 1.861-1.136q.781-.766 1.207-1.903l3.239.91a7.2 7.2 0 0 1-1.719 2.897q-1.207 1.236-2.983 1.932-1.776.681-3.991.681M651.779 39V17.182h3.239v3.409h.284q.681-1.748 2.202-2.713 1.52-.98 3.65-.98 2.16 0 3.594.98 1.45.966 2.258 2.713h.228q.837-1.69 2.514-2.685 1.676-1.008 4.02-1.008 2.926 0 4.787 1.832 1.86 1.818 1.86 5.668V39h-3.352V24.398q0-2.414-1.321-3.452t-3.111-1.037q-2.3 0-3.565 1.392-1.264 1.378-1.264 3.495V39h-3.409V24.057q0-1.86-1.208-2.997-1.207-1.15-3.11-1.15-1.308 0-2.444.695-1.122.696-1.818 1.932-.681 1.221-.682 2.827V39zm43.629.455q-2.954 0-5.184-1.407-2.217-1.406-3.466-3.934-1.236-2.529-1.236-5.91 0-3.408 1.236-5.951 1.25-2.543 3.466-3.949 2.23-1.406 5.184-1.406t5.171 1.406q2.23 1.407 3.466 3.949 1.25 2.543 1.25 5.951 0 3.381-1.25 5.91-1.236 2.528-3.466 3.934-2.216 1.407-5.171 1.407m0-3.012q2.245 0 3.694-1.15t2.144-3.026.696-4.063-.696-4.076-2.144-3.054q-1.449-1.165-3.694-1.165t-3.693 1.165-2.145 3.054-.696 4.076.696 4.063 2.145 3.026 3.693 1.15M710.412 39V17.182h3.239v3.295h.227q.596-1.62 2.159-2.628t3.523-1.008q.37 0 .923.014.554.015.838.043v3.409a10 10 0 0 0-.781-.128 7.7 7.7 0 0 0-1.264-.1q-1.592 0-2.841.668a5.04 5.04 0 0 0-1.961 1.818q-.71 1.15-.71 2.628V39zm17.706 8.182a7.4 7.4 0 0 1-1.52-.142q-.668-.127-.923-.256l.852-2.954q1.221.312 2.159.227t1.662-.838q.738-.74 1.349-2.4l.625-1.705-8.068-21.932h3.637l6.022 17.386h.228l6.022-17.386h3.637l-9.262 25q-.624 1.69-1.548 2.798-.923 1.122-2.145 1.662-1.207.54-2.727.54"/></svg>