<svg width="1366" height="390" viewBox="0 0 1366 390" fill="none" xmlns="http://www.w3.org/2000/svg">
<rect x="1" y="78" width="1364" height="150" rx="27" stroke="#DBDBDB" stroke-width="2"/>
<rect x="2" y="78" width="337" height="150" rx="27" fill="#009966" stroke="#DBDBDB" stroke-width="2"/>
<rect x="672" y="78" width="529.6" height="150" rx="27" fill="#EC003F" stroke="#DBDBDB" stroke-width="2"/>
<path d="M1223.85 171V166.568L1234.21 156.98C1235.09 156.128 1235.82 155.361 1236.42 154.679C1237.03 153.997 1237.49 153.33 1237.8 152.676C1238.11 152.013 1238.27 151.298 1238.27 150.531C1238.27 149.679 1238.07 148.945 1237.69 148.33C1237.3 147.705 1236.77 147.226 1236.09 146.895C1235.42 146.554 1234.66 146.384 1233.81 146.384C1232.92 146.384 1232.14 146.563 1231.48 146.923C1230.82 147.283 1230.3 147.799 1229.94 148.472C1229.58 149.144 1229.4 149.944 1229.4 150.872H1223.57C1223.57 148.969 1224 147.316 1224.86 145.915C1225.72 144.513 1226.93 143.429 1228.48 142.662C1230.03 141.895 1231.82 141.511 1233.85 141.511C1235.93 141.511 1237.75 141.881 1239.29 142.619C1240.84 143.348 1242.05 144.362 1242.91 145.659C1243.77 146.956 1244.21 148.443 1244.21 150.119C1244.21 151.218 1243.99 152.302 1243.55 153.372C1243.13 154.442 1242.36 155.631 1241.26 156.938C1240.17 158.235 1238.62 159.793 1236.62 161.611L1232.37 165.773V165.972H1244.59V171H1223.85ZM1260.45 171.639C1258.01 171.63 1255.91 171.028 1254.14 169.835C1252.39 168.642 1251.04 166.914 1250.1 164.651C1249.16 162.387 1248.7 159.665 1248.7 156.483C1248.7 153.311 1249.17 150.607 1250.11 148.372C1251.06 146.137 1252.41 144.437 1254.16 143.273C1255.92 142.098 1258.02 141.511 1260.45 141.511C1262.89 141.511 1264.98 142.098 1266.73 143.273C1268.49 144.447 1269.85 146.152 1270.79 148.386C1271.74 150.612 1272.21 153.311 1272.2 156.483C1272.2 159.674 1271.73 162.402 1270.78 164.665C1269.84 166.928 1268.5 168.656 1266.74 169.849C1264.99 171.043 1262.89 171.639 1260.45 171.639ZM1260.45 166.54C1262.12 166.54 1263.45 165.702 1264.44 164.026C1265.44 162.349 1265.93 159.835 1265.92 156.483C1265.92 154.277 1265.69 152.439 1265.24 150.972C1264.79 149.504 1264.16 148.401 1263.34 147.662C1262.52 146.923 1261.56 146.554 1260.45 146.554C1258.79 146.554 1257.47 147.383 1256.47 149.04C1255.48 150.697 1254.98 153.178 1254.97 156.483C1254.97 158.718 1255.19 160.583 1255.64 162.08C1256.09 163.566 1256.73 164.684 1257.55 165.432C1258.38 166.17 1259.34 166.54 1260.45 166.54ZM1286.01 171V141.909H1292.16V154.736H1292.55L1303.02 141.909H1310.39L1299.59 154.935L1310.52 171H1303.16L1295.19 159.04L1292.16 162.733V171H1286.01ZM1313.59 171V141.909H1325.24C1327.38 141.909 1329.16 142.226 1330.59 142.861C1332.02 143.495 1333.1 144.376 1333.82 145.503C1334.54 146.62 1334.9 147.908 1334.9 149.366C1334.9 150.503 1334.67 151.502 1334.22 152.364C1333.76 153.216 1333.14 153.917 1332.34 154.466C1331.55 155.006 1330.66 155.389 1329.64 155.616V155.901C1330.75 155.948 1331.79 156.26 1332.75 156.838C1333.73 157.416 1334.52 158.225 1335.12 159.267C1335.73 160.299 1336.03 161.53 1336.03 162.96C1336.03 164.504 1335.65 165.882 1334.88 167.094C1334.13 168.296 1333 169.248 1331.52 169.949C1330.03 170.65 1328.2 171 1326.02 171H1313.59ZM1319.74 165.972H1324.76C1326.47 165.972 1327.72 165.645 1328.51 164.991C1329.29 164.329 1329.68 163.448 1329.68 162.349C1329.68 161.545 1329.49 160.834 1329.1 160.219C1328.71 159.603 1328.16 159.12 1327.44 158.77C1326.73 158.42 1325.88 158.244 1324.9 158.244H1319.74V165.972ZM1319.74 154.082H1324.3C1325.14 154.082 1325.89 153.936 1326.55 153.642C1327.21 153.339 1327.73 152.913 1328.11 152.364C1328.5 151.814 1328.69 151.156 1328.69 150.389C1328.69 149.338 1328.32 148.491 1327.57 147.847C1326.83 147.203 1325.78 146.881 1324.41 146.881H1319.74V154.082Z" fill="white"/>
<path d="M142.337 144V114.909H153.814C156.021 114.909 157.9 115.33 159.453 116.173C161.007 117.007 162.19 118.167 163.005 119.653C163.828 121.131 164.24 122.835 164.24 124.767C164.24 126.699 163.824 128.403 162.99 129.881C162.157 131.358 160.95 132.509 159.368 133.332C157.796 134.156 155.893 134.568 153.658 134.568H146.343V129.639H152.664C153.847 129.639 154.823 129.436 155.59 129.028C156.366 128.612 156.944 128.039 157.323 127.31C157.711 126.571 157.905 125.723 157.905 124.767C157.905 123.801 157.711 122.958 157.323 122.239C156.944 121.509 156.366 120.946 155.59 120.548C154.813 120.141 153.828 119.938 152.635 119.938H148.488V144H142.337ZM180.721 114.909V144H174.571V120.747H174.4L167.738 124.923V119.469L174.94 114.909H180.721ZM191.229 140.619C190.292 140.619 189.487 140.288 188.814 139.625C188.151 138.962 187.82 138.157 187.82 137.21C187.82 136.282 188.151 135.487 188.814 134.824C189.487 134.161 190.292 133.83 191.229 133.83C192.138 133.83 192.934 134.161 193.615 134.824C194.297 135.487 194.638 136.282 194.638 137.21C194.638 137.835 194.477 138.408 194.155 138.929C193.843 139.44 193.431 139.852 192.919 140.165C192.408 140.468 191.845 140.619 191.229 140.619ZM191.229 126.344C190.292 126.344 189.487 126.012 188.814 125.349C188.151 124.687 187.82 123.882 187.82 122.935C187.82 122.007 188.151 121.216 188.814 120.562C189.487 119.9 190.292 119.568 191.229 119.568C192.138 119.568 192.934 119.9 193.615 120.562C194.297 121.216 194.638 122.007 194.638 122.935C194.638 123.569 194.477 124.147 194.155 124.668C193.843 125.179 193.431 125.586 192.919 125.889C192.408 126.192 191.845 126.344 191.229 126.344ZM123.182 192.398C121.175 192.398 119.385 192.028 117.813 191.29C116.25 190.551 115.01 189.533 114.091 188.236C113.173 186.938 112.694 185.452 112.657 183.776H118.623C118.689 184.902 119.162 185.816 120.043 186.517C120.924 187.218 121.97 187.568 123.182 187.568C124.148 187.568 125 187.355 125.739 186.929C126.487 186.493 127.069 185.892 127.486 185.125C127.912 184.348 128.125 183.458 128.125 182.455C128.125 181.432 127.908 180.532 127.472 179.756C127.046 178.979 126.454 178.373 125.696 177.938C124.939 177.502 124.072 177.279 123.097 177.27C122.245 177.27 121.416 177.445 120.611 177.795C119.816 178.146 119.195 178.624 118.75 179.23L113.282 178.25L114.659 162.909H132.444V167.938H119.73L118.978 175.224H119.148C119.659 174.505 120.431 173.908 121.463 173.435C122.496 172.961 123.651 172.724 124.929 172.724C126.681 172.724 128.244 173.136 129.617 173.96C130.99 174.784 132.074 175.916 132.87 177.355C133.665 178.785 134.058 180.433 134.049 182.298C134.058 184.259 133.604 186.001 132.685 187.526C131.776 189.041 130.502 190.234 128.864 191.105C127.235 191.967 125.341 192.398 123.182 192.398ZM149.745 192.639C147.301 192.63 145.199 192.028 143.438 190.835C141.686 189.642 140.337 187.914 139.39 185.651C138.452 183.387 137.988 180.665 137.998 177.483C137.998 174.311 138.466 171.607 139.404 169.372C140.351 167.137 141.7 165.437 143.452 164.273C145.213 163.098 147.311 162.511 149.745 162.511C152.178 162.511 154.271 163.098 156.023 164.273C157.784 165.447 159.139 167.152 160.086 169.386C161.033 171.612 161.501 174.311 161.492 177.483C161.492 180.674 161.018 183.402 160.071 185.665C159.134 187.928 157.789 189.656 156.037 190.849C154.285 192.043 152.188 192.639 149.745 192.639ZM149.745 187.54C151.411 187.54 152.742 186.702 153.736 185.026C154.73 183.349 155.223 180.835 155.213 177.483C155.213 175.277 154.986 173.439 154.532 171.972C154.087 170.504 153.452 169.401 152.628 168.662C151.814 167.923 150.853 167.554 149.745 167.554C148.087 167.554 146.762 168.383 145.767 170.04C144.773 171.697 144.271 174.178 144.262 177.483C144.262 179.718 144.484 181.583 144.929 183.08C145.384 184.566 146.023 185.684 146.847 186.432C147.671 187.17 148.637 187.54 149.745 187.54ZM175.306 192V162.909H181.456V175.736H181.84L192.309 162.909H199.681L188.885 175.935L199.809 192H192.451L184.482 180.04L181.456 183.733V192H175.306ZM202.884 192V162.909H214.532C216.672 162.909 218.457 163.226 219.887 163.861C221.317 164.495 222.391 165.376 223.111 166.503C223.831 167.62 224.191 168.908 224.191 170.366C224.191 171.503 223.963 172.502 223.509 173.364C223.054 174.216 222.429 174.917 221.634 175.466C220.848 176.006 219.948 176.389 218.935 176.616V176.901C220.043 176.948 221.08 177.26 222.046 177.838C223.021 178.416 223.812 179.225 224.418 180.267C225.024 181.299 225.327 182.53 225.327 183.96C225.327 185.504 224.944 186.882 224.176 188.094C223.419 189.296 222.297 190.248 220.81 190.949C219.323 191.65 217.491 192 215.313 192H202.884ZM209.034 186.972H214.049C215.763 186.972 217.013 186.645 217.799 185.991C218.585 185.329 218.978 184.448 218.978 183.349C218.978 182.545 218.783 181.834 218.395 181.219C218.007 180.603 217.453 180.12 216.733 179.77C216.023 179.42 215.176 179.244 214.191 179.244H209.034V186.972ZM209.034 175.082H213.594C214.437 175.082 215.185 174.936 215.838 174.642C216.501 174.339 217.022 173.913 217.401 173.364C217.789 172.814 217.983 172.156 217.983 171.389C217.983 170.338 217.609 169.491 216.861 168.847C216.123 168.203 215.071 167.881 213.708 167.881H209.034V175.082Z" fill="white"/>
<path d="M905.439 144V114.909H916.916C919.122 114.909 921.002 115.33 922.555 116.173C924.108 117.007 925.292 118.167 926.106 119.653C926.93 121.131 927.342 122.835 927.342 124.767C927.342 126.699 926.925 128.403 926.092 129.881C925.259 131.358 924.051 132.509 922.47 133.332C920.898 134.156 918.994 134.568 916.76 134.568H909.444V129.639H915.765C916.949 129.639 917.924 129.436 918.691 129.028C919.468 128.612 920.046 128.039 920.424 127.31C920.813 126.571 921.007 125.723 921.007 124.767C921.007 123.801 920.813 122.958 920.424 122.239C920.046 121.509 919.468 120.946 918.691 120.548C917.915 120.141 916.93 119.938 915.737 119.938H911.589V144H905.439ZM941.919 144.398C939.798 144.398 937.909 144.033 936.252 143.304C934.604 142.565 933.302 141.552 932.346 140.264C931.399 138.967 930.911 137.471 930.882 135.776H937.076C937.114 136.486 937.346 137.111 937.772 137.651C938.207 138.181 938.785 138.593 939.505 138.886C940.224 139.18 941.034 139.327 941.934 139.327C942.871 139.327 943.7 139.161 944.419 138.83C945.139 138.498 945.703 138.039 946.11 137.452C946.517 136.865 946.721 136.187 946.721 135.42C946.721 134.644 946.503 133.957 946.067 133.361C945.641 132.755 945.025 132.281 944.221 131.94C943.425 131.599 942.478 131.429 941.38 131.429H938.667V126.912H941.38C942.308 126.912 943.127 126.751 943.837 126.429C944.557 126.107 945.115 125.662 945.513 125.094C945.911 124.516 946.11 123.844 946.11 123.077C946.11 122.348 945.935 121.708 945.584 121.159C945.243 120.6 944.76 120.165 944.135 119.852C943.52 119.54 942.8 119.384 941.976 119.384C941.143 119.384 940.381 119.535 939.689 119.838C938.998 120.132 938.444 120.553 938.027 121.102C937.611 121.652 937.388 122.295 937.36 123.034H931.465C931.493 121.358 931.971 119.881 932.9 118.602C933.828 117.324 935.078 116.325 936.65 115.605C938.231 114.876 940.016 114.511 942.005 114.511C944.012 114.511 945.769 114.876 947.275 115.605C948.78 116.334 949.95 117.319 950.783 118.56C951.626 119.791 952.042 121.173 952.033 122.707C952.042 124.336 951.536 125.695 950.513 126.784C949.5 127.873 948.179 128.564 946.55 128.858V129.085C948.69 129.36 950.319 130.103 951.436 131.315C952.563 132.518 953.122 134.024 953.113 135.832C953.122 137.49 952.644 138.962 951.678 140.25C950.721 141.538 949.4 142.551 947.715 143.29C946.029 144.028 944.097 144.398 941.919 144.398ZM961.127 140.619C960.19 140.619 959.385 140.288 958.713 139.625C958.05 138.962 957.718 138.157 957.718 137.21C957.718 136.282 958.05 135.487 958.713 134.824C959.385 134.161 960.19 133.83 961.127 133.83C962.037 133.83 962.832 134.161 963.514 134.824C964.196 135.487 964.537 136.282 964.537 137.21C964.537 137.835 964.376 138.408 964.054 138.929C963.741 139.44 963.329 139.852 962.818 140.165C962.306 140.468 961.743 140.619 961.127 140.619ZM961.127 126.344C960.19 126.344 959.385 126.012 958.713 125.349C958.05 124.687 957.718 123.882 957.718 122.935C957.718 122.007 958.05 121.216 958.713 120.562C959.385 119.9 960.19 119.568 961.127 119.568C962.037 119.568 962.832 119.9 963.514 120.562C964.196 121.216 964.537 122.007 964.537 122.935C964.537 123.569 964.376 124.147 964.054 124.668C963.741 125.179 963.329 125.586 962.818 125.889C962.306 126.192 961.743 126.344 961.127 126.344ZM889.577 192.398C887.39 192.398 885.444 192.043 883.739 191.332C882.044 190.613 880.714 189.633 879.748 188.392C878.782 187.152 878.299 185.745 878.299 184.173C878.299 182.961 878.574 181.848 879.123 180.835C879.682 179.812 880.439 178.965 881.396 178.293C882.352 177.611 883.422 177.175 884.606 176.986V176.787C883.053 176.474 881.793 175.722 880.827 174.528C879.862 173.326 879.379 171.929 879.379 170.338C879.379 168.832 879.819 167.492 880.7 166.318C881.58 165.134 882.788 164.206 884.322 163.534C885.865 162.852 887.617 162.511 889.577 162.511C891.538 162.511 893.285 162.852 894.819 163.534C896.362 164.216 897.575 165.149 898.455 166.332C899.336 167.507 899.781 168.842 899.79 170.338C899.781 171.938 899.289 173.335 898.313 174.528C897.338 175.722 896.088 176.474 894.563 176.787V176.986C895.728 177.175 896.784 177.611 897.731 178.293C898.687 178.965 899.445 179.812 900.004 180.835C900.572 181.848 900.861 182.961 900.87 184.173C900.861 185.745 900.373 187.152 899.407 188.392C898.441 189.633 897.106 190.613 895.401 191.332C893.706 192.043 891.765 192.398 889.577 192.398ZM889.577 187.881C890.553 187.881 891.405 187.705 892.134 187.355C892.863 186.995 893.432 186.503 893.839 185.878C894.255 185.243 894.464 184.514 894.464 183.69C894.464 182.848 894.251 182.104 893.825 181.46C893.398 180.807 892.821 180.295 892.092 179.926C891.362 179.547 890.524 179.358 889.577 179.358C888.64 179.358 887.802 179.547 887.063 179.926C886.325 180.295 885.742 180.807 885.316 181.46C884.899 182.104 884.691 182.848 884.691 183.69C884.691 184.514 884.895 185.243 885.302 185.878C885.709 186.503 886.282 186.995 887.021 187.355C887.759 187.705 888.612 187.881 889.577 187.881ZM889.577 174.884C890.392 174.884 891.116 174.718 891.751 174.386C892.385 174.055 892.882 173.596 893.242 173.009C893.602 172.421 893.782 171.744 893.782 170.977C893.782 170.22 893.602 169.557 893.242 168.989C892.882 168.411 892.39 167.961 891.765 167.639C891.14 167.308 890.411 167.142 889.577 167.142C888.754 167.142 888.024 167.308 887.39 167.639C886.755 167.961 886.258 168.411 885.898 168.989C885.548 169.557 885.373 170.22 885.373 170.977C885.373 171.744 885.553 172.421 885.913 173.009C886.272 173.596 886.77 174.055 887.404 174.386C888.039 174.718 888.763 174.884 889.577 174.884ZM916.577 192.639C914.134 192.63 912.031 192.028 910.27 190.835C908.518 189.642 907.169 187.914 906.222 185.651C905.284 183.387 904.82 180.665 904.83 177.483C904.83 174.311 905.298 171.607 906.236 169.372C907.183 167.137 908.532 165.437 910.284 164.273C912.045 163.098 914.143 162.511 916.577 162.511C919.01 162.511 921.103 163.098 922.855 164.273C924.616 165.447 925.971 167.152 926.918 169.386C927.865 171.612 928.333 174.311 928.324 177.483C928.324 180.674 927.85 183.402 926.903 185.665C925.966 187.928 924.621 189.656 922.869 190.849C921.117 192.043 919.02 192.639 916.577 192.639ZM916.577 187.54C918.243 187.54 919.574 186.702 920.568 185.026C921.563 183.349 922.055 180.835 922.045 177.483C922.045 175.277 921.818 173.439 921.364 171.972C920.919 170.504 920.284 169.401 919.46 168.662C918.646 167.923 917.685 167.554 916.577 167.554C914.92 167.554 913.594 168.383 912.599 170.04C911.605 171.697 911.103 174.178 911.094 177.483C911.094 179.718 911.316 181.583 911.761 183.08C912.216 184.566 912.855 185.684 913.679 186.432C914.503 187.17 915.469 187.54 916.577 187.54ZM942.138 192V162.909H948.288V175.736H948.672L959.141 162.909H966.513L955.717 175.935L966.641 192H959.283L951.314 180.04L948.288 183.733V192H942.138ZM969.716 192V162.909H981.364C983.504 162.909 985.289 163.226 986.719 163.861C988.149 164.495 989.223 165.376 989.943 166.503C990.663 167.62 991.023 168.908 991.023 170.366C991.023 171.503 990.795 172.502 990.341 173.364C989.886 174.216 989.261 174.917 988.466 175.466C987.68 176.006 986.78 176.389 985.767 176.616V176.901C986.875 176.948 987.912 177.26 988.878 177.838C989.853 178.416 990.644 179.225 991.25 180.267C991.856 181.299 992.159 182.53 992.159 183.96C992.159 185.504 991.776 186.882 991.009 188.094C990.251 189.296 989.129 190.248 987.642 190.949C986.155 191.65 984.323 192 982.145 192H969.716ZM975.866 186.972H980.881C982.595 186.972 983.845 186.645 984.631 185.991C985.417 185.329 985.81 184.448 985.81 183.349C985.81 182.545 985.616 181.834 985.227 181.219C984.839 180.603 984.285 180.12 983.565 179.77C982.855 179.42 982.008 179.244 981.023 179.244H975.866V186.972ZM975.866 175.082H980.426C981.269 175.082 982.017 174.936 982.67 174.642C983.333 174.339 983.854 173.913 984.233 173.364C984.621 172.814 984.815 172.156 984.815 171.389C984.815 170.338 984.441 169.491 983.693 168.847C982.955 168.203 981.903 167.881 980.54 167.881H975.866V175.082Z" fill="white"/>
<path d="M672.277 363V333.909H689.833V337.034H675.799V346.864H688.924V349.989H675.799V359.875H690.061V363H672.277ZM698.228 341.182L703.456 350.102L708.683 341.182H712.547L705.501 352.091L712.547 363H708.683L703.456 354.534L698.228 363H694.365L701.297 352.091L694.365 341.182H698.228ZM726.819 341.182V344.023H715.512V341.182H726.819ZM718.807 335.955H722.159V356.75C722.159 357.697 722.297 358.407 722.571 358.881C722.855 359.345 723.215 359.657 723.651 359.818C724.096 359.97 724.565 360.045 725.057 360.045C725.426 360.045 725.73 360.027 725.966 359.989C726.203 359.941 726.392 359.903 726.534 359.875L727.216 362.886C726.989 362.972 726.672 363.057 726.265 363.142C725.857 363.237 725.341 363.284 724.716 363.284C723.769 363.284 722.841 363.08 721.932 362.673C721.033 362.266 720.284 361.646 719.688 360.812C719.101 359.979 718.807 358.928 718.807 357.659V335.955ZM740.775 363.455C738.672 363.455 736.859 362.991 735.334 362.062C733.819 361.125 732.65 359.818 731.826 358.142C731.011 356.456 730.604 354.496 730.604 352.261C730.604 350.027 731.011 348.057 731.826 346.352C732.65 344.638 733.795 343.303 735.263 342.347C736.74 341.381 738.464 340.898 740.434 340.898C741.57 340.898 742.692 341.087 743.8 341.466C744.908 341.845 745.917 342.46 746.826 343.312C747.735 344.155 748.459 345.273 748.999 346.665C749.539 348.057 749.809 349.771 749.809 351.807V353.227H732.99V350.33H746.4C746.4 349.098 746.153 348 745.661 347.034C745.178 346.068 744.487 345.306 743.587 344.747C742.697 344.188 741.646 343.909 740.434 343.909C739.098 343.909 737.943 344.241 736.968 344.903C736.002 345.557 735.258 346.409 734.738 347.46C734.217 348.511 733.956 349.638 733.956 350.841V352.773C733.956 354.42 734.24 355.817 734.809 356.963C735.386 358.099 736.186 358.966 737.209 359.562C738.232 360.15 739.42 360.443 740.775 360.443C741.655 360.443 742.451 360.32 743.161 360.074C743.881 359.818 744.501 359.439 745.022 358.938C745.542 358.426 745.945 357.792 746.229 357.034L749.468 357.943C749.127 359.042 748.554 360.008 747.749 360.841C746.944 361.665 745.95 362.309 744.766 362.773C743.582 363.227 742.252 363.455 740.775 363.455ZM754.908 363V341.182H758.147V344.477H758.374C758.772 343.398 759.491 342.522 760.533 341.849C761.575 341.177 762.749 340.841 764.056 340.841C764.302 340.841 764.61 340.846 764.979 340.855C765.348 340.865 765.628 340.879 765.817 340.898V344.307C765.703 344.278 765.443 344.236 765.036 344.179C764.638 344.113 764.217 344.08 763.772 344.08C762.711 344.08 761.764 344.302 760.931 344.747C760.107 345.183 759.453 345.789 758.971 346.565C758.497 347.332 758.26 348.208 758.26 349.193V363H754.908ZM773.143 349.875V363H769.791V341.182H773.029V344.591H773.314C773.825 343.483 774.601 342.593 775.643 341.92C776.685 341.239 778.029 340.898 779.677 340.898C781.154 340.898 782.447 341.201 783.555 341.807C784.663 342.403 785.525 343.312 786.14 344.534C786.756 345.746 787.064 347.28 787.064 349.136V363H783.711V349.364C783.711 347.65 783.266 346.314 782.376 345.358C781.486 344.392 780.264 343.909 778.711 343.909C777.641 343.909 776.685 344.141 775.842 344.605C775.009 345.069 774.35 345.746 773.868 346.636C773.385 347.527 773.143 348.606 773.143 349.875ZM799.61 363.511C798.227 363.511 796.972 363.251 795.846 362.73C794.719 362.2 793.824 361.438 793.161 360.443C792.498 359.439 792.167 358.227 792.167 356.807C792.167 355.557 792.413 354.544 792.905 353.767C793.398 352.981 794.056 352.366 794.88 351.92C795.703 351.475 796.613 351.144 797.607 350.926C798.611 350.699 799.619 350.519 800.632 350.386C801.958 350.216 803.033 350.088 803.857 350.003C804.69 349.908 805.296 349.752 805.675 349.534C806.063 349.316 806.257 348.937 806.257 348.398V348.284C806.257 346.883 805.874 345.794 805.107 345.017C804.349 344.241 803.199 343.852 801.655 343.852C800.055 343.852 798.8 344.203 797.891 344.903C796.982 345.604 796.343 346.352 795.973 347.148L792.792 346.011C793.36 344.686 794.117 343.653 795.064 342.915C796.021 342.167 797.062 341.646 798.189 341.352C799.326 341.049 800.443 340.898 801.542 340.898C802.242 340.898 803.047 340.983 803.956 341.153C804.875 341.314 805.76 341.651 806.613 342.162C807.474 342.673 808.189 343.445 808.757 344.477C809.326 345.509 809.61 346.892 809.61 348.625V363H806.257V360.045H806.087C805.86 360.519 805.481 361.026 804.951 361.565C804.42 362.105 803.715 362.564 802.834 362.943C801.953 363.322 800.879 363.511 799.61 363.511ZM800.121 360.5C801.447 360.5 802.564 360.24 803.473 359.719C804.392 359.198 805.083 358.526 805.547 357.702C806.021 356.878 806.257 356.011 806.257 355.102V352.034C806.115 352.205 805.803 352.361 805.32 352.503C804.846 352.635 804.297 352.754 803.672 352.858C803.057 352.953 802.455 353.038 801.868 353.114C801.291 353.18 800.822 353.237 800.462 353.284C799.591 353.398 798.776 353.582 798.019 353.838C797.271 354.084 796.665 354.458 796.201 354.96C795.746 355.453 795.519 356.125 795.519 356.977C795.519 358.142 795.95 359.023 796.811 359.619C797.683 360.206 798.786 360.5 800.121 360.5ZM819.081 333.909V363H815.728V333.909H819.081ZM836.925 363V333.909H854.368V337.034H840.448V346.864H853.061V349.989H840.448V363H836.925ZM859.713 363V341.182H862.951V344.477H863.179C863.576 343.398 864.296 342.522 865.338 341.849C866.379 341.177 867.554 340.841 868.86 340.841C869.107 340.841 869.414 340.846 869.784 340.855C870.153 340.865 870.432 340.879 870.622 340.898V344.307C870.508 344.278 870.248 344.236 869.841 344.179C869.443 344.113 869.021 344.08 868.576 344.08C867.516 344.08 866.569 344.302 865.735 344.747C864.912 345.183 864.258 345.789 863.775 346.565C863.302 347.332 863.065 348.208 863.065 349.193V363H859.713ZM881.016 363.511C879.633 363.511 878.379 363.251 877.252 362.73C876.125 362.2 875.23 361.438 874.567 360.443C873.904 359.439 873.573 358.227 873.573 356.807C873.573 355.557 873.819 354.544 874.311 353.767C874.804 352.981 875.462 352.366 876.286 351.92C877.11 351.475 878.019 351.144 879.013 350.926C880.017 350.699 881.025 350.519 882.039 350.386C883.364 350.216 884.439 350.088 885.263 350.003C886.096 349.908 886.703 349.752 887.081 349.534C887.47 349.316 887.664 348.937 887.664 348.398V348.284C887.664 346.883 887.28 345.794 886.513 345.017C885.756 344.241 884.605 343.852 883.061 343.852C881.461 343.852 880.206 344.203 879.297 344.903C878.388 345.604 877.749 346.352 877.38 347.148L874.198 346.011C874.766 344.686 875.524 343.653 876.471 342.915C877.427 342.167 878.469 341.646 879.596 341.352C880.732 341.049 881.849 340.898 882.948 340.898C883.649 340.898 884.453 340.983 885.363 341.153C886.281 341.314 887.167 341.651 888.019 342.162C888.881 342.673 889.596 343.445 890.164 344.477C890.732 345.509 891.016 346.892 891.016 348.625V363H887.664V360.045H887.493C887.266 360.519 886.887 361.026 886.357 361.565C885.827 362.105 885.121 362.564 884.24 362.943C883.36 363.322 882.285 363.511 881.016 363.511ZM881.527 360.5C882.853 360.5 883.971 360.24 884.88 359.719C885.798 359.198 886.489 358.526 886.953 357.702C887.427 356.878 887.664 356.011 887.664 355.102V352.034C887.522 352.205 887.209 352.361 886.726 352.503C886.253 352.635 885.703 352.754 885.078 352.858C884.463 352.953 883.862 353.038 883.275 353.114C882.697 353.18 882.228 353.237 881.868 353.284C880.997 353.398 880.183 353.582 879.425 353.838C878.677 354.084 878.071 354.458 877.607 354.96C877.152 355.453 876.925 356.125 876.925 356.977C876.925 358.142 877.356 359.023 878.218 359.619C879.089 360.206 880.192 360.5 881.527 360.5ZM905.941 371.636C904.322 371.636 902.93 371.428 901.765 371.011C900.6 370.604 899.63 370.064 898.853 369.392C898.086 368.729 897.475 368.019 897.021 367.261L899.691 365.386C899.994 365.784 900.378 366.239 900.842 366.75C901.306 367.271 901.94 367.721 902.745 368.099C903.56 368.488 904.625 368.682 905.941 368.682C907.703 368.682 909.156 368.256 910.302 367.403C911.448 366.551 912.021 365.216 912.021 363.398V358.966H911.737C911.491 359.364 911.14 359.856 910.686 360.443C910.241 361.021 909.597 361.537 908.754 361.991C907.921 362.437 906.794 362.659 905.373 362.659C903.612 362.659 902.03 362.242 900.629 361.409C899.237 360.576 898.134 359.364 897.319 357.773C896.514 356.182 896.112 354.25 896.112 351.977C896.112 349.742 896.505 347.796 897.291 346.139C898.077 344.473 899.171 343.185 900.572 342.276C901.974 341.357 903.593 340.898 905.43 340.898C906.85 340.898 907.977 341.134 908.811 341.608C909.654 342.072 910.297 342.602 910.743 343.199C911.197 343.786 911.547 344.269 911.794 344.648H912.135V341.182H915.373V363.625C915.373 365.5 914.947 367.025 914.095 368.199C913.252 369.383 912.116 370.249 910.686 370.798C909.265 371.357 907.684 371.636 905.941 371.636ZM905.828 359.648C907.172 359.648 908.309 359.34 909.237 358.724C910.165 358.109 910.87 357.223 911.353 356.068C911.836 354.913 912.078 353.53 912.078 351.92C912.078 350.348 911.841 348.961 911.368 347.759C910.894 346.556 910.193 345.614 909.265 344.932C908.337 344.25 907.191 343.909 905.828 343.909C904.407 343.909 903.224 344.269 902.277 344.989C901.339 345.708 900.634 346.674 900.16 347.886C899.696 349.098 899.464 350.443 899.464 351.92C899.464 353.436 899.701 354.776 900.174 355.94C900.657 357.096 901.368 358.005 902.305 358.668C903.252 359.321 904.426 359.648 905.828 359.648ZM921.51 363V341.182H924.748V344.591H925.032C925.487 343.426 926.221 342.522 927.234 341.878C928.247 341.224 929.464 340.898 930.885 340.898C932.324 340.898 933.522 341.224 934.478 341.878C935.444 342.522 936.197 343.426 936.737 344.591H936.964C937.523 343.464 938.361 342.569 939.478 341.906C940.596 341.234 941.936 340.898 943.498 340.898C945.449 340.898 947.045 341.509 948.285 342.73C949.526 343.942 950.146 345.831 950.146 348.398V363H946.794V348.398C946.794 346.788 946.353 345.637 945.473 344.946C944.592 344.255 943.555 343.909 942.362 343.909C940.828 343.909 939.639 344.373 938.797 345.301C937.954 346.22 937.532 347.384 937.532 348.795V363H934.123V348.057C934.123 346.816 933.721 345.817 932.916 345.06C932.111 344.293 931.074 343.909 929.805 343.909C928.934 343.909 928.119 344.141 927.362 344.605C926.614 345.069 926.008 345.713 925.544 346.537C925.089 347.351 924.862 348.294 924.862 349.364V363H921.51ZM965.423 363.455C963.321 363.455 961.507 362.991 959.983 362.062C958.467 361.125 957.298 359.818 956.474 358.142C955.66 356.456 955.252 354.496 955.252 352.261C955.252 350.027 955.66 348.057 956.474 346.352C957.298 344.638 958.444 343.303 959.912 342.347C961.389 341.381 963.112 340.898 965.082 340.898C966.218 340.898 967.341 341.087 968.449 341.466C969.556 341.845 970.565 342.46 971.474 343.312C972.383 344.155 973.108 345.273 973.647 346.665C974.187 348.057 974.457 349.771 974.457 351.807V353.227H957.639V350.33H971.048C971.048 349.098 970.802 348 970.309 347.034C969.826 346.068 969.135 345.306 968.235 344.747C967.345 344.188 966.294 343.909 965.082 343.909C963.747 343.909 962.592 344.241 961.616 344.903C960.65 345.557 959.907 346.409 959.386 347.46C958.865 348.511 958.605 349.638 958.605 350.841V352.773C958.605 354.42 958.889 355.817 959.457 356.963C960.035 358.099 960.835 358.966 961.858 359.562C962.88 360.15 964.069 360.443 965.423 360.443C966.304 360.443 967.099 360.32 967.809 360.074C968.529 359.818 969.149 359.439 969.67 358.938C970.191 358.426 970.593 357.792 970.877 357.034L974.116 357.943C973.775 359.042 973.202 360.008 972.397 360.841C971.592 361.665 970.598 362.309 969.414 362.773C968.231 363.227 966.9 363.455 965.423 363.455ZM982.909 349.875V363H979.556V341.182H982.795V344.591H983.079C983.591 343.483 984.367 342.593 985.409 341.92C986.45 341.239 987.795 340.898 989.443 340.898C990.92 340.898 992.213 341.201 993.321 341.807C994.429 342.403 995.29 343.312 995.906 344.534C996.521 345.746 996.829 347.28 996.829 349.136V363H993.477V349.364C993.477 347.65 993.032 346.314 992.142 345.358C991.252 344.392 990.03 343.909 988.477 343.909C987.407 343.909 986.45 344.141 985.608 344.605C984.774 345.069 984.116 345.746 983.633 346.636C983.15 347.527 982.909 348.606 982.909 349.875ZM1012.44 341.182V344.023H1001.14V341.182H1012.44ZM1004.43 335.955H1007.78V356.75C1007.78 357.697 1007.92 358.407 1008.2 358.881C1008.48 359.345 1008.84 359.657 1009.28 359.818C1009.72 359.97 1010.19 360.045 1010.68 360.045C1011.05 360.045 1011.35 360.027 1011.59 359.989C1011.83 359.941 1012.02 359.903 1012.16 359.875L1012.84 362.886C1012.61 362.972 1012.3 363.057 1011.89 363.142C1011.48 363.237 1010.97 363.284 1010.34 363.284C1009.39 363.284 1008.47 363.08 1007.56 362.673C1006.66 362.266 1005.91 361.646 1005.31 360.812C1004.73 359.979 1004.43 358.928 1004.43 357.659V335.955ZM1023.91 363.511C1022.52 363.511 1021.27 363.251 1020.14 362.73C1019.02 362.2 1018.12 361.438 1017.46 360.443C1016.79 359.439 1016.46 358.227 1016.46 356.807C1016.46 355.557 1016.71 354.544 1017.2 353.767C1017.69 352.981 1018.35 352.366 1019.18 351.92C1020 351.475 1020.91 351.144 1021.9 350.926C1022.91 350.699 1023.92 350.519 1024.93 350.386C1026.26 350.216 1027.33 350.088 1028.15 350.003C1028.99 349.908 1029.59 349.752 1029.97 349.534C1030.36 349.316 1030.55 348.937 1030.55 348.398V348.284C1030.55 346.883 1030.17 345.794 1029.4 345.017C1028.65 344.241 1027.5 343.852 1025.95 343.852C1024.35 343.852 1023.1 344.203 1022.19 344.903C1021.28 345.604 1020.64 346.352 1020.27 347.148L1017.09 346.011C1017.66 344.686 1018.41 343.653 1019.36 342.915C1020.32 342.167 1021.36 341.646 1022.49 341.352C1023.62 341.049 1024.74 340.898 1025.84 340.898C1026.54 340.898 1027.34 340.983 1028.25 341.153C1029.17 341.314 1030.06 341.651 1030.91 342.162C1031.77 342.673 1032.49 343.445 1033.05 344.477C1033.62 345.509 1033.91 346.892 1033.91 348.625V363H1030.55V360.045H1030.38C1030.16 360.519 1029.78 361.026 1029.25 361.565C1028.72 362.105 1028.01 362.564 1027.13 362.943C1026.25 363.322 1025.18 363.511 1023.91 363.511ZM1024.42 360.5C1025.74 360.5 1026.86 360.24 1027.77 359.719C1028.69 359.198 1029.38 358.526 1029.84 357.702C1030.32 356.878 1030.55 356.011 1030.55 355.102V352.034C1030.41 352.205 1030.1 352.361 1029.62 352.503C1029.14 352.635 1028.59 352.754 1027.97 352.858C1027.35 352.953 1026.75 353.038 1026.17 353.114C1025.59 353.18 1025.12 353.237 1024.76 353.284C1023.89 353.398 1023.07 353.582 1022.32 353.838C1021.57 354.084 1020.96 354.458 1020.5 354.96C1020.04 355.453 1019.82 356.125 1019.82 356.977C1019.82 358.142 1020.25 359.023 1021.11 359.619C1021.98 360.206 1023.08 360.5 1024.42 360.5ZM1049.51 341.182V344.023H1038.21V341.182H1049.51ZM1041.5 335.955H1044.85V356.75C1044.85 357.697 1044.99 358.407 1045.27 358.881C1045.55 359.345 1045.91 359.657 1046.35 359.818C1046.79 359.97 1047.26 360.045 1047.75 360.045C1048.12 360.045 1048.42 360.027 1048.66 359.989C1048.9 359.941 1049.09 359.903 1049.23 359.875L1049.91 362.886C1049.68 362.972 1049.37 363.057 1048.96 363.142C1048.55 363.237 1048.04 363.284 1047.41 363.284C1046.46 363.284 1045.54 363.08 1044.63 362.673C1043.73 362.266 1042.98 361.646 1042.38 360.812C1041.8 359.979 1041.5 358.928 1041.5 357.659V335.955ZM1054.56 363V341.182H1057.91V363H1054.56ZM1056.26 337.545C1055.61 337.545 1055.04 337.323 1054.57 336.878C1054.11 336.433 1053.87 335.898 1053.87 335.273C1053.87 334.648 1054.11 334.113 1054.57 333.668C1055.04 333.223 1055.61 333 1056.26 333C1056.91 333 1057.47 333.223 1057.94 333.668C1058.41 334.113 1058.65 334.648 1058.65 335.273C1058.65 335.898 1058.41 336.433 1057.94 336.878C1057.47 337.323 1056.91 337.545 1056.26 337.545ZM1072.91 363.455C1070.94 363.455 1069.21 362.986 1067.73 362.048C1066.25 361.111 1065.1 359.799 1064.26 358.114C1063.44 356.428 1063.03 354.458 1063.03 352.205C1063.03 349.932 1063.44 347.948 1064.26 346.253C1065.1 344.558 1066.25 343.241 1067.73 342.304C1069.21 341.366 1070.94 340.898 1072.91 340.898C1074.88 340.898 1076.61 341.366 1078.08 342.304C1079.57 343.241 1080.72 344.558 1081.55 346.253C1082.38 347.948 1082.8 349.932 1082.8 352.205C1082.8 354.458 1082.38 356.428 1081.55 358.114C1080.72 359.799 1079.57 361.111 1078.08 362.048C1076.61 362.986 1074.88 363.455 1072.91 363.455ZM1072.91 360.443C1074.41 360.443 1075.64 360.06 1076.61 359.293C1077.57 358.526 1078.29 357.517 1078.75 356.267C1079.21 355.017 1079.45 353.663 1079.45 352.205C1079.45 350.746 1079.21 349.387 1078.75 348.128C1078.29 346.868 1077.57 345.85 1076.61 345.074C1075.64 344.297 1074.41 343.909 1072.91 343.909C1071.42 343.909 1070.19 344.297 1069.22 345.074C1068.25 345.85 1067.54 346.868 1067.07 348.128C1066.61 349.387 1066.38 350.746 1066.38 352.205C1066.38 353.663 1066.61 355.017 1067.07 356.267C1067.54 357.517 1068.25 358.526 1069.22 359.293C1070.19 360.06 1071.42 360.443 1072.91 360.443ZM1091.27 349.875V363H1087.92V341.182H1091.15V344.591H1091.44C1091.95 343.483 1092.73 342.593 1093.77 341.92C1094.81 341.239 1096.15 340.898 1097.8 340.898C1099.28 340.898 1100.57 341.201 1101.68 341.807C1102.79 342.403 1103.65 343.312 1104.27 344.534C1104.88 345.746 1105.19 347.28 1105.19 349.136V363H1101.84V349.364C1101.84 347.65 1101.39 346.314 1100.5 345.358C1099.61 344.392 1098.39 343.909 1096.84 343.909C1095.77 343.909 1094.81 344.141 1093.97 344.605C1093.13 345.069 1092.48 345.746 1091.99 346.636C1091.51 347.527 1091.27 348.606 1091.27 349.875Z" fill="white"/>
<path d="M593.366 9.90909H597.571L607.457 34.0568H607.798L617.685 9.90909H621.889V39H618.594V16.8977H618.31L609.219 39H606.037L596.946 16.8977H596.662V39H593.366V9.90909ZM637.646 39.4545C635.543 39.4545 633.73 38.9905 632.205 38.0625C630.69 37.125 629.521 35.8182 628.697 34.142C627.882 32.4564 627.475 30.4962 627.475 28.2614C627.475 26.0265 627.882 24.0568 628.697 22.3523C629.521 20.6383 630.666 19.303 632.134 18.3466C633.612 17.3807 635.335 16.8977 637.305 16.8977C638.441 16.8977 639.563 17.0871 640.671 17.4659C641.779 17.8447 642.788 18.4602 643.697 19.3125C644.606 20.1553 645.33 21.2727 645.87 22.6648C646.41 24.0568 646.68 25.7708 646.68 27.8068V29.2273H629.862V26.3295H643.271C643.271 25.0985 643.024 24 642.532 23.0341C642.049 22.0682 641.358 21.3059 640.458 20.7472C639.568 20.1884 638.517 19.9091 637.305 19.9091C635.969 19.9091 634.814 20.2405 633.839 20.9034C632.873 21.5568 632.129 22.4091 631.609 23.4602C631.088 24.5114 630.827 25.6383 630.827 26.8409V28.7727C630.827 30.4205 631.112 31.8172 631.68 32.9631C632.257 34.0994 633.058 34.9659 634.08 35.5625C635.103 36.1496 636.291 36.4432 637.646 36.4432C638.526 36.4432 639.322 36.3201 640.032 36.0739C640.752 35.8182 641.372 35.4394 641.893 34.9375C642.414 34.4261 642.816 33.7917 643.1 33.0341L646.339 33.9432C645.998 35.0417 645.425 36.0076 644.62 36.8409C643.815 37.6648 642.821 38.3087 641.637 38.7727C640.453 39.2273 639.123 39.4545 637.646 39.4545ZM651.779 39V17.1818H655.018V20.5909H655.302C655.756 19.4261 656.49 18.5218 657.504 17.8778C658.517 17.2244 659.734 16.8977 661.154 16.8977C662.594 16.8977 663.791 17.2244 664.748 17.8778C665.714 18.5218 666.467 19.4261 667.006 20.5909H667.234C667.792 19.464 668.63 18.5691 669.748 17.9062C670.865 17.2339 672.205 16.8977 673.768 16.8977C675.719 16.8977 677.314 17.5085 678.555 18.7301C679.795 19.9422 680.415 21.8314 680.415 24.3977V39H677.063V24.3977C677.063 22.7879 676.623 21.6373 675.742 20.946C674.862 20.2547 673.825 19.9091 672.631 19.9091C671.097 19.9091 669.909 20.3731 669.066 21.3011C668.223 22.2197 667.802 23.3845 667.802 24.7955V39H664.393V24.0568C664.393 22.8163 663.99 21.8172 663.185 21.0597C662.38 20.2926 661.344 19.9091 660.075 19.9091C659.203 19.9091 658.389 20.1411 657.631 20.6051C656.883 21.0691 656.277 21.7131 655.813 22.5369C655.359 23.3513 655.131 24.2936 655.131 25.3636V39H651.779ZM695.408 39.4545C693.439 39.4545 691.71 38.9858 690.224 38.0483C688.746 37.1108 687.591 35.7992 686.758 34.1136C685.934 32.428 685.522 30.4583 685.522 28.2045C685.522 25.9318 685.934 23.9479 686.758 22.2528C687.591 20.5578 688.746 19.2415 690.224 18.304C691.71 17.3665 693.439 16.8977 695.408 16.8977C697.378 16.8977 699.102 17.3665 700.579 18.304C702.066 19.2415 703.221 20.5578 704.045 22.2528C704.878 23.9479 705.295 25.9318 705.295 28.2045C705.295 30.4583 704.878 32.428 704.045 34.1136C703.221 35.7992 702.066 37.1108 700.579 38.0483C699.102 38.9858 697.378 39.4545 695.408 39.4545ZM695.408 36.4432C696.905 36.4432 698.136 36.0597 699.102 35.2926C700.067 34.5256 700.782 33.517 701.246 32.267C701.71 31.017 701.942 29.6629 701.942 28.2045C701.942 26.7462 701.71 25.3873 701.246 24.1278C700.782 22.8684 700.067 21.8504 699.102 21.0739C698.136 20.2973 696.905 19.9091 695.408 19.9091C693.912 19.9091 692.681 20.2973 691.715 21.0739C690.749 21.8504 690.034 22.8684 689.57 24.1278C689.106 25.3873 688.874 26.7462 688.874 28.2045C688.874 29.6629 689.106 31.017 689.57 32.267C690.034 33.517 690.749 34.5256 691.715 35.2926C692.681 36.0597 693.912 36.4432 695.408 36.4432ZM710.412 39V17.1818H713.651V20.4773H713.878C714.276 19.3977 714.995 18.5218 716.037 17.8494C717.079 17.1771 718.253 16.8409 719.56 16.8409C719.806 16.8409 720.114 16.8456 720.483 16.8551C720.852 16.8646 721.132 16.8788 721.321 16.8977V20.3068C721.207 20.2784 720.947 20.2358 720.54 20.179C720.142 20.1127 719.721 20.0795 719.276 20.0795C718.215 20.0795 717.268 20.3021 716.435 20.7472C715.611 21.1828 714.957 21.7888 714.474 22.5653C714.001 23.3324 713.764 24.2083 713.764 25.1932V39H710.412ZM728.118 47.1818C727.55 47.1818 727.043 47.1345 726.598 47.0398C726.153 46.9545 725.845 46.8693 725.675 46.7841L726.527 43.8295C727.341 44.0379 728.061 44.1136 728.686 44.0568C729.311 44 729.865 43.7206 730.348 43.2188C730.84 42.7263 731.29 41.9261 731.697 40.8182L732.322 39.1136L724.254 17.1818H727.891L733.913 34.5682H734.141L740.163 17.1818H743.8L734.538 42.1818C734.122 43.3087 733.606 44.2415 732.99 44.9801C732.375 45.7282 731.66 46.2822 730.845 46.642C730.04 47.0019 729.131 47.1818 728.118 47.1818Z" fill="white"/>
<path d="M461.182 171.398C459.175 171.398 457.385 171.028 455.813 170.29C454.25 169.551 453.01 168.533 452.091 167.236C451.173 165.938 450.694 164.452 450.657 162.776H456.623C456.689 163.902 457.162 164.816 458.043 165.517C458.924 166.218 459.97 166.568 461.182 166.568C462.148 166.568 463 166.355 463.739 165.929C464.487 165.493 465.069 164.892 465.486 164.125C465.912 163.348 466.125 162.458 466.125 161.455C466.125 160.432 465.908 159.532 465.472 158.756C465.046 157.979 464.454 157.373 463.696 156.938C462.939 156.502 462.072 156.279 461.097 156.27C460.245 156.27 459.416 156.445 458.611 156.795C457.816 157.146 457.195 157.624 456.75 158.23L451.282 157.25L452.659 141.909H470.444V146.938H457.73L456.978 154.224H457.148C457.659 153.505 458.431 152.908 459.463 152.435C460.496 151.961 461.651 151.724 462.929 151.724C464.681 151.724 466.244 152.136 467.617 152.96C468.99 153.784 470.074 154.916 470.87 156.355C471.665 157.785 472.058 159.433 472.049 161.298C472.058 163.259 471.604 165.001 470.685 166.526C469.776 168.041 468.502 169.234 466.864 170.105C465.235 170.967 463.341 171.398 461.182 171.398ZM487.745 171.639C485.301 171.63 483.199 171.028 481.438 169.835C479.686 168.642 478.337 166.914 477.39 164.651C476.452 162.387 475.988 159.665 475.998 156.483C475.998 153.311 476.466 150.607 477.404 148.372C478.351 146.137 479.7 144.437 481.452 143.273C483.213 142.098 485.311 141.511 487.745 141.511C490.178 141.511 492.271 142.098 494.023 143.273C495.784 144.447 497.139 146.152 498.086 148.386C499.033 150.612 499.501 153.311 499.492 156.483C499.492 159.674 499.018 162.402 498.071 164.665C497.134 166.928 495.789 168.656 494.037 169.849C492.285 171.043 490.188 171.639 487.745 171.639ZM487.745 166.54C489.411 166.54 490.742 165.702 491.736 164.026C492.73 162.349 493.223 159.835 493.213 156.483C493.213 154.277 492.986 152.439 492.532 150.972C492.087 149.504 491.452 148.401 490.628 147.662C489.814 146.923 488.853 146.554 487.745 146.554C486.087 146.554 484.762 147.383 483.767 149.04C482.773 150.697 482.271 153.178 482.262 156.483C482.262 158.718 482.484 160.583 482.929 162.08C483.384 163.566 484.023 164.684 484.847 165.432C485.671 166.17 486.637 166.54 487.745 166.54ZM513.306 171V141.909H519.456V154.736H519.84L530.309 141.909H537.681L526.885 154.935L537.809 171H530.451L522.482 159.04L519.456 162.733V171H513.306ZM540.884 171V141.909H552.532C554.672 141.909 556.457 142.226 557.887 142.861C559.317 143.495 560.391 144.376 561.111 145.503C561.831 146.62 562.191 147.908 562.191 149.366C562.191 150.503 561.963 151.502 561.509 152.364C561.054 153.216 560.429 153.917 559.634 154.466C558.848 155.006 557.948 155.389 556.935 155.616V155.901C558.043 155.948 559.08 156.26 560.046 156.838C561.021 157.416 561.812 158.225 562.418 159.267C563.024 160.299 563.327 161.53 563.327 162.96C563.327 164.504 562.944 165.882 562.176 167.094C561.419 168.296 560.297 169.248 558.81 169.949C557.323 170.65 555.491 171 553.313 171H540.884ZM547.034 165.972H552.049C553.763 165.972 555.013 165.645 555.799 164.991C556.585 164.329 556.978 163.448 556.978 162.349C556.978 161.545 556.783 160.834 556.395 160.219C556.007 159.603 555.453 159.12 554.733 158.77C554.023 158.42 553.176 158.244 552.191 158.244H547.034V165.972ZM547.034 154.082H551.594C552.437 154.082 553.185 153.936 553.838 153.642C554.501 153.339 555.022 152.913 555.401 152.364C555.789 151.814 555.983 151.156 555.983 150.389C555.983 149.338 555.609 148.491 554.861 147.847C554.123 147.203 553.071 146.881 551.708 146.881H547.034V154.082Z" fill="white"/>
<line x1="508" y1="257" x2="508" y2="306" stroke="white" stroke-width="2"/>
<line x1="1271" y1="257" x2="1271" y2="306" stroke="white" stroke-width="2"/>
<line x1="506.999" y1="306" x2="1270" y2="305" stroke="white" stroke-width="2"/>
</svg>
