<svg width="1893" height="428" viewBox="0 0 1893 428" fill="none" xmlns="http://www.w3.org/2000/svg">
<path d="M264.498 346.034V342.909H286.316V346.034H277.168V372H273.646V346.034H264.498ZM296.998 372.455C295.028 372.455 293.3 371.986 291.813 371.048C290.336 370.111 289.181 368.799 288.347 367.114C287.523 365.428 287.111 363.458 287.111 361.205C287.111 358.932 287.523 356.948 288.347 355.253C289.181 353.558 290.336 352.241 291.813 351.304C293.3 350.366 295.028 349.898 296.998 349.898C298.968 349.898 300.691 350.366 302.168 351.304C303.655 352.241 304.81 353.558 305.634 355.253C306.468 356.948 306.884 358.932 306.884 361.205C306.884 363.458 306.468 365.428 305.634 367.114C304.81 368.799 303.655 370.111 302.168 371.048C300.691 371.986 298.968 372.455 296.998 372.455ZM296.998 369.443C298.494 369.443 299.725 369.06 300.691 368.293C301.657 367.526 302.372 366.517 302.836 365.267C303.3 364.017 303.532 362.663 303.532 361.205C303.532 359.746 303.3 358.387 302.836 357.128C302.372 355.868 301.657 354.85 300.691 354.074C299.725 353.297 298.494 352.909 296.998 352.909C295.502 352.909 294.271 353.297 293.305 354.074C292.339 354.85 291.624 355.868 291.16 357.128C290.696 358.387 290.464 359.746 290.464 361.205C290.464 362.663 290.696 364.017 291.16 365.267C291.624 366.517 292.339 367.526 293.305 368.293C294.271 369.06 295.502 369.443 296.998 369.443ZM320.865 372.455C318.895 372.455 317.167 371.986 315.68 371.048C314.203 370.111 313.048 368.799 312.214 367.114C311.391 365.428 310.979 363.458 310.979 361.205C310.979 358.932 311.391 356.948 312.214 355.253C313.048 353.558 314.203 352.241 315.68 351.304C317.167 350.366 318.895 349.898 320.865 349.898C322.835 349.898 324.558 350.366 326.036 351.304C327.522 352.241 328.678 353.558 329.501 355.253C330.335 356.948 330.751 358.932 330.751 361.205C330.751 363.458 330.335 365.428 329.501 367.114C328.678 368.799 327.522 370.111 326.036 371.048C324.558 371.986 322.835 372.455 320.865 372.455ZM320.865 369.443C322.361 369.443 323.592 369.06 324.558 368.293C325.524 367.526 326.239 366.517 326.703 365.267C327.167 364.017 327.399 362.663 327.399 361.205C327.399 359.746 327.167 358.387 326.703 357.128C326.239 355.868 325.524 354.85 324.558 354.074C323.592 353.297 322.361 352.909 320.865 352.909C319.369 352.909 318.138 353.297 317.172 354.074C316.206 354.85 315.491 355.868 315.027 357.128C314.563 358.387 314.331 359.746 314.331 361.205C314.331 362.663 314.563 364.017 315.027 365.267C315.491 366.517 316.206 367.526 317.172 368.293C318.138 369.06 319.369 369.443 320.865 369.443ZM362.573 355.068L359.562 355.92C359.372 355.419 359.093 354.931 358.724 354.457C358.364 353.974 357.871 353.577 357.246 353.264C356.621 352.952 355.821 352.795 354.846 352.795C353.511 352.795 352.398 353.103 351.508 353.719C350.627 354.325 350.187 355.097 350.187 356.034C350.187 356.867 350.49 357.526 351.096 358.009C351.702 358.491 352.649 358.894 353.937 359.216L357.175 360.011C359.126 360.485 360.58 361.209 361.536 362.185C362.493 363.151 362.971 364.396 362.971 365.92C362.971 367.17 362.611 368.288 361.891 369.273C361.181 370.258 360.187 371.034 358.908 371.602C357.63 372.17 356.143 372.455 354.448 372.455C352.223 372.455 350.381 371.972 348.923 371.006C347.464 370.04 346.541 368.629 346.153 366.773L349.335 365.977C349.638 367.152 350.21 368.032 351.053 368.619C351.906 369.206 353.018 369.5 354.391 369.5C355.954 369.5 357.194 369.169 358.113 368.506C359.041 367.833 359.505 367.028 359.505 366.091C359.505 365.333 359.24 364.699 358.71 364.188C358.179 363.667 357.365 363.278 356.266 363.023L352.63 362.17C350.632 361.697 349.164 360.963 348.227 359.969C347.299 358.965 346.835 357.71 346.835 356.205C346.835 354.973 347.18 353.884 347.871 352.938C348.572 351.991 349.524 351.247 350.727 350.707C351.939 350.168 353.312 349.898 354.846 349.898C357.005 349.898 358.7 350.371 359.931 351.318C361.172 352.265 362.052 353.515 362.573 355.068ZM368.017 372V350.182H371.256V353.591H371.54C371.994 352.426 372.728 351.522 373.741 350.878C374.755 350.224 375.972 349.898 377.392 349.898C378.831 349.898 380.029 350.224 380.986 350.878C381.952 351.522 382.705 352.426 383.244 353.591H383.472C384.03 352.464 384.868 351.569 385.986 350.906C387.103 350.234 388.443 349.898 390.006 349.898C391.956 349.898 393.552 350.509 394.793 351.73C396.033 352.942 396.653 354.831 396.653 357.398V372H393.301V357.398C393.301 355.788 392.861 354.637 391.98 353.946C391.099 353.255 390.062 352.909 388.869 352.909C387.335 352.909 386.147 353.373 385.304 354.301C384.461 355.22 384.04 356.384 384.04 357.795V372H380.631V357.057C380.631 355.816 380.228 354.817 379.423 354.06C378.618 353.293 377.581 352.909 376.312 352.909C375.441 352.909 374.627 353.141 373.869 353.605C373.121 354.069 372.515 354.713 372.051 355.537C371.597 356.351 371.369 357.294 371.369 358.364V372H368.017ZM409.203 372.511C407.821 372.511 406.566 372.251 405.439 371.73C404.312 371.2 403.417 370.438 402.754 369.443C402.091 368.439 401.76 367.227 401.76 365.807C401.76 364.557 402.006 363.544 402.499 362.767C402.991 361.981 403.649 361.366 404.473 360.92C405.297 360.475 406.206 360.144 407.2 359.926C408.204 359.699 409.213 359.519 410.226 359.386C411.552 359.216 412.626 359.088 413.45 359.003C414.284 358.908 414.89 358.752 415.268 358.534C415.657 358.316 415.851 357.937 415.851 357.398V357.284C415.851 355.883 415.467 354.794 414.7 354.017C413.943 353.241 412.792 352.852 411.249 352.852C409.648 352.852 408.393 353.203 407.484 353.903C406.575 354.604 405.936 355.352 405.567 356.148L402.385 355.011C402.953 353.686 403.711 352.653 404.658 351.915C405.614 351.167 406.656 350.646 407.783 350.352C408.919 350.049 410.036 349.898 411.135 349.898C411.836 349.898 412.641 349.983 413.55 350.153C414.468 350.314 415.354 350.651 416.206 351.162C417.068 351.673 417.783 352.445 418.351 353.477C418.919 354.509 419.203 355.892 419.203 357.625V372H415.851V369.045H415.68C415.453 369.519 415.074 370.026 414.544 370.565C414.014 371.105 413.308 371.564 412.428 371.943C411.547 372.322 410.472 372.511 409.203 372.511ZM409.714 369.5C411.04 369.5 412.158 369.24 413.067 368.719C413.985 368.198 414.677 367.526 415.141 366.702C415.614 365.878 415.851 365.011 415.851 364.102V361.034C415.709 361.205 415.396 361.361 414.913 361.503C414.44 361.635 413.891 361.754 413.266 361.858C412.65 361.953 412.049 362.038 411.462 362.114C410.884 362.18 410.415 362.237 410.055 362.284C409.184 362.398 408.37 362.582 407.612 362.838C406.864 363.084 406.258 363.458 405.794 363.96C405.339 364.453 405.112 365.125 405.112 365.977C405.112 367.142 405.543 368.023 406.405 368.619C407.276 369.206 408.379 369.5 409.714 369.5ZM428.674 342.909V372H425.322V342.909H428.674ZM438.166 342.909V372H434.814V342.909H438.166ZM465.272 350.182V353.023H453.511V350.182H465.272ZM457.033 372V347.17C457.033 345.92 457.327 344.879 457.914 344.045C458.501 343.212 459.263 342.587 460.201 342.17C461.138 341.754 462.128 341.545 463.17 341.545C463.994 341.545 464.666 341.612 465.187 341.744C465.708 341.877 466.096 342 466.352 342.114L465.386 345.011C465.215 344.955 464.978 344.884 464.675 344.798C464.382 344.713 463.994 344.67 463.511 344.67C462.403 344.67 461.602 344.95 461.11 345.509C460.627 346.067 460.386 346.886 460.386 347.966V372H457.033ZM477.935 372.455C475.966 372.455 474.237 371.986 472.751 371.048C471.273 370.111 470.118 368.799 469.285 367.114C468.461 365.428 468.049 363.458 468.049 361.205C468.049 358.932 468.461 356.948 469.285 355.253C470.118 353.558 471.273 352.241 472.751 351.304C474.237 350.366 475.966 349.898 477.935 349.898C479.905 349.898 481.629 350.366 483.106 351.304C484.593 352.241 485.748 353.558 486.572 355.253C487.405 356.948 487.822 358.932 487.822 361.205C487.822 363.458 487.405 365.428 486.572 367.114C485.748 368.799 484.593 370.111 483.106 371.048C481.629 371.986 479.905 372.455 477.935 372.455ZM477.935 369.443C479.432 369.443 480.663 369.06 481.629 368.293C482.594 367.526 483.309 366.517 483.773 365.267C484.237 364.017 484.469 362.663 484.469 361.205C484.469 359.746 484.237 358.387 483.773 357.128C483.309 355.868 482.594 354.85 481.629 354.074C480.663 353.297 479.432 352.909 477.935 352.909C476.439 352.909 475.208 353.297 474.242 354.074C473.276 354.85 472.561 355.868 472.097 357.128C471.633 358.387 471.401 359.746 471.401 361.205C471.401 362.663 471.633 364.017 472.097 365.267C472.561 366.517 473.276 367.526 474.242 368.293C475.208 369.06 476.439 369.443 477.935 369.443ZM492.939 372V350.182H496.178V353.477H496.405C496.803 352.398 497.522 351.522 498.564 350.849C499.606 350.177 500.78 349.841 502.087 349.841C502.333 349.841 502.641 349.846 503.01 349.855C503.379 349.865 503.659 349.879 503.848 349.898V353.307C503.734 353.278 503.474 353.236 503.067 353.179C502.669 353.113 502.248 353.08 501.803 353.08C500.742 353.08 499.795 353.302 498.962 353.747C498.138 354.183 497.484 354.789 497.001 355.565C496.528 356.332 496.291 357.208 496.291 358.193V372H492.939ZM528.844 372.398C526.969 372.398 525.298 372.076 523.83 371.432C522.372 370.788 521.212 369.893 520.35 368.747C519.498 367.592 519.034 366.252 518.958 364.727H522.538C522.613 365.665 522.935 366.474 523.504 367.156C524.072 367.829 524.815 368.349 525.734 368.719C526.652 369.088 527.67 369.273 528.788 369.273C530.038 369.273 531.146 369.055 532.111 368.619C533.077 368.184 533.835 367.578 534.384 366.801C534.933 366.025 535.208 365.125 535.208 364.102C535.208 363.032 534.943 362.09 534.413 361.276C533.882 360.452 533.106 359.808 532.083 359.344C531.06 358.88 529.81 358.648 528.333 358.648H526.004V355.523H528.333C529.488 355.523 530.502 355.314 531.373 354.898C532.254 354.481 532.94 353.894 533.433 353.136C533.934 352.379 534.185 351.489 534.185 350.466C534.185 349.481 533.968 348.624 533.532 347.895C533.096 347.166 532.481 346.598 531.685 346.19C530.899 345.783 529.971 345.58 528.901 345.58C527.897 345.58 526.951 345.764 526.06 346.134C525.18 346.493 524.46 347.019 523.901 347.71C523.343 348.392 523.04 349.216 522.992 350.182H519.583C519.64 348.657 520.099 347.322 520.961 346.176C521.823 345.021 522.95 344.121 524.342 343.477C525.743 342.833 527.282 342.511 528.958 342.511C530.757 342.511 532.301 342.876 533.589 343.605C534.877 344.325 535.866 345.277 536.558 346.46C537.249 347.644 537.594 348.922 537.594 350.295C537.594 351.934 537.164 353.33 536.302 354.486C535.45 355.641 534.29 356.441 532.822 356.886V357.114C534.659 357.417 536.094 358.198 537.126 359.457C538.158 360.707 538.674 362.256 538.674 364.102C538.674 365.684 538.243 367.104 537.381 368.364C536.529 369.614 535.364 370.598 533.887 371.318C532.41 372.038 530.729 372.398 528.844 372.398ZM553.972 372.398C551.832 372.398 550.009 371.815 548.504 370.651C546.998 369.476 545.847 367.777 545.052 365.551C544.256 363.316 543.859 360.617 543.859 357.455C543.859 354.311 544.256 351.626 545.052 349.401C545.857 347.166 547.012 345.461 548.518 344.287C550.033 343.103 551.851 342.511 553.972 342.511C556.094 342.511 557.907 343.103 559.413 344.287C560.928 345.461 562.083 347.166 562.879 349.401C563.683 351.626 564.086 354.311 564.086 357.455C564.086 360.617 563.688 363.316 562.893 365.551C562.097 367.777 560.947 369.476 559.441 370.651C557.935 371.815 556.112 372.398 553.972 372.398ZM553.972 369.273C556.094 369.273 557.741 368.25 558.915 366.205C560.09 364.159 560.677 361.242 560.677 357.455C560.677 354.936 560.407 352.791 559.867 351.02C559.337 349.249 558.57 347.9 557.566 346.972C556.572 346.044 555.374 345.58 553.972 345.58C551.87 345.58 550.227 346.616 549.043 348.69C547.86 350.755 547.268 353.676 547.268 357.455C547.268 359.973 547.533 362.114 548.063 363.875C548.594 365.636 549.356 366.976 550.35 367.895C551.354 368.813 552.561 369.273 553.972 369.273ZM569.995 372V342.909H573.518V357.341H573.859L586.927 342.909H591.529L579.313 356.034L591.529 372H587.268L577.154 358.477L573.518 362.568V372H569.995ZM596.089 372V342.909H606.259C608.286 342.909 609.957 343.259 611.273 343.96C612.59 344.652 613.57 345.584 614.214 346.759C614.858 347.923 615.18 349.216 615.18 350.636C615.18 351.886 614.957 352.919 614.512 353.733C614.076 354.547 613.499 355.191 612.779 355.665C612.069 356.138 611.297 356.489 610.464 356.716V357C611.354 357.057 612.249 357.369 613.148 357.938C614.048 358.506 614.801 359.32 615.407 360.381C616.013 361.441 616.316 362.739 616.316 364.273C616.316 365.731 615.985 367.043 615.322 368.207C614.659 369.372 613.612 370.295 612.183 370.977C610.753 371.659 608.892 372 606.6 372H596.089ZM599.611 368.875H606.6C608.901 368.875 610.535 368.43 611.501 367.54C612.476 366.64 612.964 365.551 612.964 364.273C612.964 363.288 612.713 362.379 612.211 361.545C611.709 360.703 610.994 360.03 610.066 359.528C609.138 359.017 608.04 358.761 606.771 358.761H599.611V368.875ZM599.611 355.693H606.146C607.206 355.693 608.163 355.485 609.015 355.068C609.877 354.652 610.558 354.064 611.06 353.307C611.572 352.549 611.827 351.659 611.827 350.636C611.827 349.358 611.382 348.274 610.492 347.384C609.602 346.484 608.191 346.034 606.259 346.034H599.611V355.693Z" fill="white"/>
<path d="M979.065 352H975.542C975.334 350.987 974.969 350.097 974.448 349.33C973.937 348.562 973.312 347.919 972.573 347.398C971.844 346.867 971.034 346.47 970.144 346.205C969.254 345.939 968.326 345.807 967.36 345.807C965.599 345.807 964.003 346.252 962.573 347.142C961.153 348.032 960.021 349.344 959.178 351.077C958.345 352.81 957.928 354.936 957.928 357.455C957.928 359.973 958.345 362.099 959.178 363.832C960.021 365.565 961.153 366.877 962.573 367.767C964.003 368.657 965.599 369.102 967.36 369.102C968.326 369.102 969.254 368.97 970.144 368.705C971.034 368.439 971.844 368.046 972.573 367.526C973.312 366.995 973.937 366.347 974.448 365.58C974.969 364.803 975.334 363.913 975.542 362.909H979.065C978.799 364.396 978.317 365.726 977.616 366.901C976.915 368.075 976.044 369.074 975.002 369.898C973.96 370.712 972.791 371.332 971.494 371.759C970.206 372.185 968.828 372.398 967.36 372.398C964.879 372.398 962.673 371.792 960.741 370.58C958.809 369.367 957.289 367.644 956.181 365.409C955.073 363.174 954.519 360.523 954.519 357.455C954.519 354.386 955.073 351.735 956.181 349.5C957.289 347.265 958.809 345.542 960.741 344.33C962.673 343.117 964.879 342.511 967.36 342.511C968.828 342.511 970.206 342.724 971.494 343.151C972.791 343.577 973.96 344.202 975.002 345.026C976.044 345.84 976.915 346.834 977.616 348.009C978.317 349.173 978.799 350.504 979.065 352ZM990.723 372.511C989.34 372.511 988.086 372.251 986.959 371.73C985.832 371.2 984.937 370.438 984.274 369.443C983.611 368.439 983.28 367.227 983.28 365.807C983.28 364.557 983.526 363.544 984.018 362.767C984.511 361.981 985.169 361.366 985.993 360.92C986.817 360.475 987.726 360.144 988.72 359.926C989.724 359.699 990.732 359.519 991.746 359.386C993.071 359.216 994.146 359.088 994.97 359.003C995.804 358.908 996.41 358.752 996.788 358.534C997.177 358.316 997.371 357.937 997.371 357.398V357.284C997.371 355.883 996.987 354.794 996.22 354.017C995.463 353.241 994.312 352.852 992.768 352.852C991.168 352.852 989.913 353.203 989.004 353.903C988.095 354.604 987.456 355.352 987.087 356.148L983.905 355.011C984.473 353.686 985.231 352.653 986.178 351.915C987.134 351.167 988.176 350.646 989.303 350.352C990.439 350.049 991.556 349.898 992.655 349.898C993.356 349.898 994.161 349.983 995.07 350.153C995.988 350.314 996.874 350.651 997.726 351.162C998.588 351.673 999.303 352.445 999.871 353.477C1000.44 354.509 1000.72 355.892 1000.72 357.625V372H997.371V369.045H997.2C996.973 369.519 996.594 370.026 996.064 370.565C995.534 371.105 994.828 371.564 993.947 371.943C993.067 372.322 991.992 372.511 990.723 372.511ZM991.234 369.5C992.56 369.5 993.678 369.24 994.587 368.719C995.505 368.198 996.196 367.526 996.661 366.702C997.134 365.878 997.371 365.011 997.371 364.102V361.034C997.229 361.205 996.916 361.361 996.433 361.503C995.96 361.635 995.411 361.754 994.786 361.858C994.17 361.953 993.569 362.038 992.982 362.114C992.404 362.18 991.935 362.237 991.575 362.284C990.704 362.398 989.89 362.582 989.132 362.838C988.384 363.084 987.778 363.458 987.314 363.96C986.859 364.453 986.632 365.125 986.632 365.977C986.632 367.142 987.063 368.023 987.925 368.619C988.796 369.206 989.899 369.5 991.234 369.5ZM1010.19 358.875V372H1006.84V350.182H1010.08V353.591H1010.36C1010.88 352.483 1011.65 351.593 1012.69 350.92C1013.74 350.239 1015.08 349.898 1016.73 349.898C1018.21 349.898 1019.5 350.201 1020.61 350.807C1021.71 351.403 1022.58 352.312 1023.19 353.534C1023.81 354.746 1024.11 356.28 1024.11 358.136V372H1020.76V358.364C1020.76 356.65 1020.32 355.314 1019.43 354.358C1018.54 353.392 1017.32 352.909 1015.76 352.909C1014.69 352.909 1013.74 353.141 1012.89 353.605C1012.06 354.069 1011.4 354.746 1010.92 355.636C1010.44 356.527 1010.19 357.606 1010.19 358.875ZM1051.21 350.182V353.023H1039.44V350.182H1051.21ZM1042.97 372V347.17C1042.97 345.92 1043.26 344.879 1043.85 344.045C1044.44 343.212 1045.2 342.587 1046.13 342.17C1047.07 341.754 1048.06 341.545 1049.1 341.545C1049.93 341.545 1050.6 341.612 1051.12 341.744C1051.64 341.877 1052.03 342 1052.29 342.114L1051.32 345.011C1051.15 344.955 1050.91 344.884 1050.61 344.798C1050.32 344.713 1049.93 344.67 1049.44 344.67C1048.34 344.67 1047.54 344.95 1047.04 345.509C1046.56 346.067 1046.32 346.886 1046.32 347.966V372H1042.97ZM1055.9 372V350.182H1059.26V372H1055.9ZM1057.61 346.545C1056.96 346.545 1056.39 346.323 1055.92 345.878C1055.45 345.433 1055.22 344.898 1055.22 344.273C1055.22 343.648 1055.45 343.113 1055.92 342.668C1056.39 342.223 1056.96 342 1057.61 342C1058.26 342 1058.82 342.223 1059.28 342.668C1059.76 343.113 1060 343.648 1060 344.273C1060 344.898 1059.76 345.433 1059.28 345.878C1058.82 346.323 1058.26 346.545 1057.61 346.545ZM1074.88 350.182V353.023H1063.58V350.182H1074.88ZM1066.87 344.955H1070.23V365.75C1070.23 366.697 1070.36 367.407 1070.64 367.881C1070.92 368.345 1071.28 368.657 1071.72 368.818C1072.16 368.97 1072.63 369.045 1073.12 369.045C1073.49 369.045 1073.8 369.027 1074.03 368.989C1074.27 368.941 1074.46 368.903 1074.6 368.875L1075.28 371.886C1075.06 371.972 1074.74 372.057 1074.33 372.142C1073.92 372.237 1073.41 372.284 1072.78 372.284C1071.84 372.284 1070.91 372.08 1070 371.673C1069.1 371.266 1068.35 370.646 1067.75 369.812C1067.17 368.979 1066.87 367.928 1066.87 366.659V344.955ZM1100.95 372.398C1099.08 372.398 1097.4 372.076 1095.94 371.432C1094.48 370.788 1093.32 369.893 1092.46 368.747C1091.6 367.592 1091.14 366.252 1091.06 364.727H1094.64C1094.72 365.665 1095.04 366.474 1095.61 367.156C1096.18 367.829 1096.92 368.349 1097.84 368.719C1098.76 369.088 1099.78 369.273 1100.89 369.273C1102.14 369.273 1103.25 369.055 1104.22 368.619C1105.18 368.184 1105.94 367.578 1106.49 366.801C1107.04 366.025 1107.31 365.125 1107.31 364.102C1107.31 363.032 1107.05 362.09 1106.52 361.276C1105.99 360.452 1105.21 359.808 1104.19 359.344C1103.17 358.88 1101.92 358.648 1100.44 358.648H1098.11V355.523H1100.44C1101.59 355.523 1102.61 355.314 1103.48 354.898C1104.36 354.481 1105.05 353.894 1105.54 353.136C1106.04 352.379 1106.29 351.489 1106.29 350.466C1106.29 349.481 1106.07 348.624 1105.64 347.895C1105.2 347.166 1104.59 346.598 1103.79 346.19C1103.01 345.783 1102.08 345.58 1101.01 345.58C1100 345.58 1099.06 345.764 1098.17 346.134C1097.29 346.493 1096.57 347.019 1096.01 347.71C1095.45 348.392 1095.15 349.216 1095.1 350.182H1091.69C1091.75 348.657 1092.21 347.322 1093.07 346.176C1093.93 345.021 1095.06 344.121 1096.45 343.477C1097.85 342.833 1099.39 342.511 1101.06 342.511C1102.86 342.511 1104.41 342.876 1105.69 343.605C1106.98 344.325 1107.97 345.277 1108.66 346.46C1109.35 347.644 1109.7 348.922 1109.7 350.295C1109.7 351.934 1109.27 353.33 1108.41 354.486C1107.56 355.641 1106.4 356.441 1104.93 356.886V357.114C1106.76 357.417 1108.2 358.198 1109.23 359.457C1110.26 360.707 1110.78 362.256 1110.78 364.102C1110.78 365.684 1110.35 367.104 1109.49 368.364C1108.63 369.614 1107.47 370.598 1105.99 371.318C1104.52 372.038 1102.83 372.398 1100.95 372.398ZM1126.08 372.398C1123.94 372.398 1122.12 371.815 1120.61 370.651C1119.1 369.476 1117.95 367.777 1117.16 365.551C1116.36 363.316 1115.96 360.617 1115.96 357.455C1115.96 354.311 1116.36 351.626 1117.16 349.401C1117.96 347.166 1119.12 345.461 1120.62 344.287C1122.14 343.103 1123.96 342.511 1126.08 342.511C1128.2 342.511 1130.01 343.103 1131.52 344.287C1133.03 345.461 1134.19 347.166 1134.98 349.401C1135.79 351.626 1136.19 354.311 1136.19 357.455C1136.19 360.617 1135.79 363.316 1135 365.551C1134.2 367.777 1133.05 369.476 1131.55 370.651C1130.04 371.815 1128.22 372.398 1126.08 372.398ZM1126.08 369.273C1128.2 369.273 1129.85 368.25 1131.02 366.205C1132.2 364.159 1132.78 361.242 1132.78 357.455C1132.78 354.936 1132.51 352.791 1131.97 351.02C1131.44 349.249 1130.68 347.9 1129.67 346.972C1128.68 346.044 1127.48 345.58 1126.08 345.58C1123.98 345.58 1122.33 346.616 1121.15 348.69C1119.97 350.755 1119.37 353.676 1119.37 357.455C1119.37 359.973 1119.64 362.114 1120.17 363.875C1120.7 365.636 1121.46 366.976 1122.46 367.895C1123.46 368.813 1124.67 369.273 1126.08 369.273ZM1142.1 372V342.909H1145.62V357.341H1145.96L1159.03 342.909H1163.63L1151.42 356.034L1163.63 372H1159.37L1149.26 358.477L1145.62 362.568V372H1142.1ZM1168.19 372V342.909H1178.37C1180.39 342.909 1182.06 343.259 1183.38 343.96C1184.7 344.652 1185.68 345.584 1186.32 346.759C1186.96 347.923 1187.29 349.216 1187.29 350.636C1187.29 351.886 1187.06 352.919 1186.62 353.733C1186.18 354.547 1185.6 355.191 1184.88 355.665C1184.17 356.138 1183.4 356.489 1182.57 356.716V357C1183.46 357.057 1184.35 357.369 1185.25 357.938C1186.15 358.506 1186.91 359.32 1187.51 360.381C1188.12 361.441 1188.42 362.739 1188.42 364.273C1188.42 365.731 1188.09 367.043 1187.43 368.207C1186.76 369.372 1185.72 370.295 1184.29 370.977C1182.86 371.659 1181 372 1178.71 372H1168.19ZM1171.72 368.875H1178.71C1181.01 368.875 1182.64 368.43 1183.61 367.54C1184.58 366.64 1185.07 365.551 1185.07 364.273C1185.07 363.288 1184.82 362.379 1184.32 361.545C1183.81 360.703 1183.1 360.03 1182.17 359.528C1181.24 359.017 1180.15 358.761 1178.88 358.761H1171.72V368.875ZM1171.72 355.693H1178.25C1179.31 355.693 1180.27 355.485 1181.12 355.068C1181.98 354.652 1182.66 354.064 1183.17 353.307C1183.68 352.549 1183.93 351.659 1183.93 350.636C1183.93 349.358 1183.49 348.274 1182.6 347.384C1181.71 346.484 1180.3 346.034 1178.37 346.034H1171.72V355.693ZM1198.76 368.023L1198.53 369.557C1198.37 370.636 1198.12 371.792 1197.79 373.023C1197.47 374.254 1197.13 375.414 1196.78 376.503C1196.43 377.592 1196.14 378.458 1195.91 379.102H1193.36C1193.48 378.496 1193.64 377.696 1193.84 376.702C1194.04 375.707 1194.24 374.595 1194.44 373.364C1194.65 372.142 1194.82 370.892 1194.95 369.614L1195.12 368.023H1198.76ZM1225.08 372.455C1223.03 372.455 1221.27 371.972 1219.8 371.006C1218.32 370.04 1217.18 368.709 1216.39 367.014C1215.59 365.319 1215.19 363.383 1215.19 361.205C1215.19 358.989 1215.6 357.033 1216.42 355.338C1217.24 353.634 1218.39 352.303 1219.85 351.347C1221.33 350.381 1223.05 349.898 1225.02 349.898C1226.56 349.898 1227.94 350.182 1229.17 350.75C1230.4 351.318 1231.41 352.114 1232.2 353.136C1232.98 354.159 1233.47 355.352 1233.66 356.716H1230.31C1230.05 355.722 1229.48 354.841 1228.6 354.074C1227.73 353.297 1226.56 352.909 1225.08 352.909C1223.77 352.909 1222.63 353.25 1221.64 353.932C1220.67 354.604 1219.91 355.556 1219.36 356.787C1218.82 358.009 1218.55 359.443 1218.55 361.091C1218.55 362.777 1218.81 364.244 1219.34 365.494C1219.88 366.744 1220.64 367.715 1221.61 368.406C1222.6 369.098 1223.75 369.443 1225.08 369.443C1225.95 369.443 1226.74 369.292 1227.45 368.989C1228.16 368.686 1228.76 368.25 1229.26 367.682C1229.75 367.114 1230.1 366.432 1230.31 365.636H1233.66C1233.47 366.924 1233 368.084 1232.25 369.116C1231.51 370.139 1230.53 370.954 1229.31 371.56C1228.1 372.156 1226.69 372.455 1225.08 372.455ZM1241.91 358.875V372H1238.56V342.909H1241.91V353.591H1242.2C1242.71 352.464 1243.48 351.569 1244.5 350.906C1245.53 350.234 1246.9 349.898 1248.62 349.898C1250.1 349.898 1251.41 350.196 1252.52 350.793C1253.64 351.38 1254.51 352.284 1255.12 353.506C1255.75 354.718 1256.06 356.261 1256.06 358.136V372H1252.71V358.364C1252.71 356.631 1252.26 355.291 1251.36 354.344C1250.47 353.387 1249.23 352.909 1247.65 352.909C1246.55 352.909 1245.57 353.141 1244.7 353.605C1243.83 354.069 1243.15 354.746 1242.65 355.636C1242.16 356.527 1241.91 357.606 1241.91 358.875ZM1271.06 372.455C1269.09 372.455 1267.36 371.986 1265.87 371.048C1264.39 370.111 1263.24 368.799 1262.41 367.114C1261.58 365.428 1261.17 363.458 1261.17 361.205C1261.17 358.932 1261.58 356.948 1262.41 355.253C1263.24 353.558 1264.39 352.241 1265.87 351.304C1267.36 350.366 1269.09 349.898 1271.06 349.898C1273.03 349.898 1274.75 350.366 1276.23 351.304C1277.71 352.241 1278.87 353.558 1279.69 355.253C1280.53 356.948 1280.94 358.932 1280.94 361.205C1280.94 363.458 1280.53 365.428 1279.69 367.114C1278.87 368.799 1277.71 370.111 1276.23 371.048C1274.75 371.986 1273.03 372.455 1271.06 372.455ZM1271.06 369.443C1272.55 369.443 1273.78 369.06 1274.75 368.293C1275.72 367.526 1276.43 366.517 1276.89 365.267C1277.36 364.017 1277.59 362.663 1277.59 361.205C1277.59 359.746 1277.36 358.387 1276.89 357.128C1276.43 355.868 1275.72 354.85 1274.75 354.074C1273.78 353.297 1272.55 352.909 1271.06 352.909C1269.56 352.909 1268.33 353.297 1267.36 354.074C1266.4 354.85 1265.68 355.868 1265.22 357.128C1264.75 358.387 1264.52 359.746 1264.52 361.205C1264.52 362.663 1264.75 364.017 1265.22 365.267C1265.68 366.517 1266.4 367.526 1267.36 368.293C1268.33 369.06 1269.56 369.443 1271.06 369.443ZM1294.92 372.455C1292.95 372.455 1291.23 371.986 1289.74 371.048C1288.26 370.111 1287.11 368.799 1286.27 367.114C1285.45 365.428 1285.04 363.458 1285.04 361.205C1285.04 358.932 1285.45 356.948 1286.27 355.253C1287.11 353.558 1288.26 352.241 1289.74 351.304C1291.23 350.366 1292.95 349.898 1294.92 349.898C1296.89 349.898 1298.62 350.366 1300.09 351.304C1301.58 352.241 1302.74 353.558 1303.56 355.253C1304.39 356.948 1304.81 358.932 1304.81 361.205C1304.81 363.458 1304.39 365.428 1303.56 367.114C1302.74 368.799 1301.58 370.111 1300.09 371.048C1298.62 371.986 1296.89 372.455 1294.92 372.455ZM1294.92 369.443C1296.42 369.443 1297.65 369.06 1298.62 368.293C1299.58 367.526 1300.3 366.517 1300.76 365.267C1301.23 364.017 1301.46 362.663 1301.46 361.205C1301.46 359.746 1301.23 358.387 1300.76 357.128C1300.3 355.868 1299.58 354.85 1298.62 354.074C1297.65 353.297 1296.42 352.909 1294.92 352.909C1293.43 352.909 1292.2 353.297 1291.23 354.074C1290.26 354.85 1289.55 355.868 1289.09 357.128C1288.62 358.387 1288.39 359.746 1288.39 361.205C1288.39 362.663 1288.62 364.017 1289.09 365.267C1289.55 366.517 1290.26 367.526 1291.23 368.293C1292.2 369.06 1293.43 369.443 1294.92 369.443ZM1325.38 355.068L1322.37 355.92C1322.18 355.419 1321.9 354.931 1321.53 354.457C1321.17 353.974 1320.68 353.577 1320.06 353.264C1319.43 352.952 1318.63 352.795 1317.65 352.795C1316.32 352.795 1315.21 353.103 1314.32 353.719C1313.44 354.325 1313 355.097 1313 356.034C1313 356.867 1313.3 357.526 1313.9 358.009C1314.51 358.491 1315.46 358.894 1316.75 359.216L1319.98 360.011C1321.94 360.485 1323.39 361.209 1324.35 362.185C1325.3 363.151 1325.78 364.396 1325.78 365.92C1325.78 367.17 1325.42 368.288 1324.7 369.273C1323.99 370.258 1323 371.034 1321.72 371.602C1320.44 372.17 1318.95 372.455 1317.26 372.455C1315.03 372.455 1313.19 371.972 1311.73 371.006C1310.27 370.04 1309.35 368.629 1308.96 366.773L1312.14 365.977C1312.45 367.152 1313.02 368.032 1313.86 368.619C1314.71 369.206 1315.83 369.5 1317.2 369.5C1318.76 369.5 1320 369.169 1320.92 368.506C1321.85 367.833 1322.31 367.028 1322.31 366.091C1322.31 365.333 1322.05 364.699 1321.52 364.188C1320.99 363.667 1320.17 363.278 1319.08 363.023L1315.44 362.17C1313.44 361.697 1311.97 360.963 1311.04 359.969C1310.11 358.965 1309.64 357.71 1309.64 356.205C1309.64 354.973 1309.99 353.884 1310.68 352.938C1311.38 351.991 1312.33 351.247 1313.54 350.707C1314.75 350.168 1316.12 349.898 1317.65 349.898C1319.81 349.898 1321.51 350.371 1322.74 351.318C1323.98 352.265 1324.86 353.515 1325.38 355.068ZM1339.97 372.455C1337.87 372.455 1336.06 371.991 1334.53 371.062C1333.02 370.125 1331.85 368.818 1331.02 367.142C1330.21 365.456 1329.8 363.496 1329.8 361.261C1329.8 359.027 1330.21 357.057 1331.02 355.352C1331.85 353.638 1332.99 352.303 1334.46 351.347C1335.94 350.381 1337.66 349.898 1339.63 349.898C1340.77 349.898 1341.89 350.087 1343 350.466C1344.11 350.845 1345.12 351.46 1346.02 352.312C1346.93 353.155 1347.66 354.273 1348.2 355.665C1348.74 357.057 1349.01 358.771 1349.01 360.807V362.227H1332.19V359.33H1345.6C1345.6 358.098 1345.35 357 1344.86 356.034C1344.38 355.068 1343.69 354.306 1342.79 353.747C1341.9 353.188 1340.84 352.909 1339.63 352.909C1338.3 352.909 1337.14 353.241 1336.17 353.903C1335.2 354.557 1334.46 355.409 1333.94 356.46C1333.42 357.511 1333.16 358.638 1333.16 359.841V361.773C1333.16 363.42 1333.44 364.817 1334.01 365.963C1334.59 367.099 1335.39 367.966 1336.41 368.562C1337.43 369.15 1338.62 369.443 1339.97 369.443C1340.85 369.443 1341.65 369.32 1342.36 369.074C1343.08 368.818 1343.7 368.439 1344.22 367.938C1344.74 367.426 1345.14 366.792 1345.43 366.034L1348.67 366.943C1348.33 368.042 1347.75 369.008 1346.95 369.841C1346.14 370.665 1345.15 371.309 1343.97 371.773C1342.78 372.227 1341.45 372.455 1339.97 372.455ZM1374.85 350.182V353.023H1363.54V350.182H1374.85ZM1366.83 344.955H1370.19V365.75C1370.19 366.697 1370.32 367.407 1370.6 367.881C1370.88 368.345 1371.24 368.657 1371.68 368.818C1372.12 368.97 1372.59 369.045 1373.08 369.045C1373.45 369.045 1373.76 369.027 1373.99 368.989C1374.23 368.941 1374.42 368.903 1374.56 368.875L1375.24 371.886C1375.02 371.972 1374.7 372.057 1374.29 372.142C1373.88 372.237 1373.37 372.284 1372.74 372.284C1371.8 372.284 1370.87 372.08 1369.96 371.673C1369.06 371.266 1368.31 370.646 1367.72 369.812C1367.13 368.979 1366.83 367.928 1366.83 366.659V344.955ZM1383.71 358.875V372H1380.36V342.909H1383.71V353.591H1383.99C1384.5 352.464 1385.27 351.569 1386.29 350.906C1387.33 350.234 1388.7 349.898 1390.41 349.898C1391.9 349.898 1393.2 350.196 1394.32 350.793C1395.44 351.38 1396.3 352.284 1396.92 353.506C1397.54 354.718 1397.86 356.261 1397.86 358.136V372H1394.5V358.364C1394.5 356.631 1394.06 355.291 1393.16 354.344C1392.27 353.387 1391.03 352.909 1389.45 352.909C1388.35 352.909 1387.36 353.141 1386.49 353.605C1385.63 354.069 1384.95 354.746 1384.45 355.636C1383.96 356.527 1383.71 357.606 1383.71 358.875ZM1403.99 372V350.182H1407.34V372H1403.99ZM1405.69 346.545C1405.04 346.545 1404.48 346.323 1404 345.878C1403.54 345.433 1403.31 344.898 1403.31 344.273C1403.31 343.648 1403.54 343.113 1404 342.668C1404.48 342.223 1405.04 342 1405.69 342C1406.35 342 1406.91 342.223 1407.37 342.668C1407.84 343.113 1408.08 343.648 1408.08 344.273C1408.08 344.898 1407.84 345.433 1407.37 345.878C1406.91 346.323 1406.35 346.545 1405.69 346.545ZM1428.94 355.068L1425.93 355.92C1425.74 355.419 1425.46 354.931 1425.09 354.457C1424.73 353.974 1424.24 353.577 1423.61 353.264C1422.99 352.952 1422.18 352.795 1421.21 352.795C1419.87 352.795 1418.76 353.103 1417.87 353.719C1416.99 354.325 1416.55 355.097 1416.55 356.034C1416.55 356.867 1416.85 357.526 1417.46 358.009C1418.07 358.491 1419.01 358.894 1420.3 359.216L1423.54 360.011C1425.49 360.485 1426.94 361.209 1427.9 362.185C1428.86 363.151 1429.33 364.396 1429.33 365.92C1429.33 367.17 1428.97 368.288 1428.25 369.273C1427.54 370.258 1426.55 371.034 1425.27 371.602C1423.99 372.17 1422.51 372.455 1420.81 372.455C1418.59 372.455 1416.74 371.972 1415.29 371.006C1413.83 370.04 1412.9 368.629 1412.52 366.773L1415.7 365.977C1416 367.152 1416.57 368.032 1417.42 368.619C1418.27 369.206 1419.38 369.5 1420.75 369.5C1422.32 369.5 1423.56 369.169 1424.48 368.506C1425.4 367.833 1425.87 367.028 1425.87 366.091C1425.87 365.333 1425.6 364.699 1425.07 364.188C1424.54 363.667 1423.73 363.278 1422.63 363.023L1418.99 362.17C1417 361.697 1415.53 360.963 1414.59 359.969C1413.66 358.965 1413.2 357.71 1413.2 356.205C1413.2 354.973 1413.54 353.884 1414.24 352.938C1414.94 351.991 1415.89 351.247 1417.09 350.707C1418.3 350.168 1419.68 349.898 1421.21 349.898C1423.37 349.898 1425.06 350.371 1426.29 351.318C1427.54 352.265 1428.42 353.515 1428.94 355.068ZM1446.09 372V342.909H1449.44V353.648H1449.72C1449.97 353.269 1450.31 352.786 1450.74 352.199C1451.19 351.602 1451.82 351.072 1452.65 350.608C1453.48 350.134 1454.61 349.898 1456.03 349.898C1457.87 349.898 1459.48 350.357 1460.89 351.276C1462.29 352.194 1463.38 353.496 1464.17 355.182C1464.95 356.867 1465.35 358.856 1465.35 361.148C1465.35 363.458 1464.95 365.461 1464.17 367.156C1463.38 368.842 1462.29 370.149 1460.9 371.077C1459.51 371.995 1457.9 372.455 1456.09 372.455C1454.68 372.455 1453.56 372.223 1452.72 371.759C1451.88 371.285 1451.23 370.75 1450.77 370.153C1450.32 369.547 1449.97 369.045 1449.72 368.648H1449.32V372H1446.09ZM1449.38 361.091C1449.38 362.739 1449.62 364.192 1450.11 365.452C1450.59 366.702 1451.29 367.682 1452.22 368.392C1453.15 369.093 1454.29 369.443 1455.63 369.443C1457.03 369.443 1458.2 369.074 1459.14 368.335C1460.09 367.587 1460.8 366.583 1461.27 365.324C1461.75 364.055 1461.99 362.644 1461.99 361.091C1461.99 359.557 1461.76 358.174 1461.28 356.943C1460.82 355.703 1460.11 354.723 1459.17 354.003C1458.23 353.274 1457.05 352.909 1455.63 352.909C1454.27 352.909 1453.12 353.255 1452.19 353.946C1451.27 354.628 1450.56 355.584 1450.09 356.815C1449.62 358.037 1449.38 359.462 1449.38 361.091ZM1473.83 342.909V372H1470.47V342.909H1473.83ZM1488.83 372.455C1486.86 372.455 1485.13 371.986 1483.65 371.048C1482.17 370.111 1481.01 368.799 1480.18 367.114C1479.36 365.428 1478.94 363.458 1478.94 361.205C1478.94 358.932 1479.36 356.948 1480.18 355.253C1481.01 353.558 1482.17 352.241 1483.65 351.304C1485.13 350.366 1486.86 349.898 1488.83 349.898C1490.8 349.898 1492.52 350.366 1494 351.304C1495.49 352.241 1496.64 353.558 1497.47 355.253C1498.3 356.948 1498.72 358.932 1498.72 361.205C1498.72 363.458 1498.3 365.428 1497.47 367.114C1496.64 368.799 1495.49 370.111 1494 371.048C1492.52 371.986 1490.8 372.455 1488.83 372.455ZM1488.83 369.443C1490.33 369.443 1491.56 369.06 1492.52 368.293C1493.49 367.526 1494.2 366.517 1494.67 365.267C1495.13 364.017 1495.36 362.663 1495.36 361.205C1495.36 359.746 1495.13 358.387 1494.67 357.128C1494.2 355.868 1493.49 354.85 1492.52 354.074C1491.56 353.297 1490.33 352.909 1488.83 352.909C1487.33 352.909 1486.1 353.297 1485.14 354.074C1484.17 354.85 1483.46 355.868 1482.99 357.128C1482.53 358.387 1482.3 359.746 1482.3 361.205C1482.3 362.663 1482.53 364.017 1482.99 365.267C1483.46 366.517 1484.17 367.526 1485.14 368.293C1486.1 369.06 1487.33 369.443 1488.83 369.443ZM1512.7 372.455C1510.65 372.455 1508.89 371.972 1507.41 371.006C1505.94 370.04 1504.8 368.709 1504 367.014C1503.21 365.319 1502.81 363.383 1502.81 361.205C1502.81 358.989 1503.22 357.033 1504.03 355.338C1504.86 353.634 1506 352.303 1507.47 351.347C1508.95 350.381 1510.67 349.898 1512.64 349.898C1514.17 349.898 1515.56 350.182 1516.79 350.75C1518.02 351.318 1519.03 352.114 1519.81 353.136C1520.6 354.159 1521.09 355.352 1521.28 356.716H1517.92C1517.67 355.722 1517.1 354.841 1516.22 354.074C1515.35 353.297 1514.17 352.909 1512.7 352.909C1511.39 352.909 1510.24 353.25 1509.26 353.932C1508.28 354.604 1507.52 355.556 1506.97 356.787C1506.43 358.009 1506.16 359.443 1506.16 361.091C1506.16 362.777 1506.43 364.244 1506.96 365.494C1507.5 366.744 1508.26 367.715 1509.23 368.406C1510.22 369.098 1511.37 369.443 1512.7 369.443C1513.57 369.443 1514.36 369.292 1515.07 368.989C1515.78 368.686 1516.38 368.25 1516.87 367.682C1517.37 367.114 1517.72 366.432 1517.92 365.636H1521.28C1521.09 366.924 1520.62 368.084 1519.87 369.116C1519.13 370.139 1518.15 370.954 1516.93 371.56C1515.72 372.156 1514.31 372.455 1512.7 372.455ZM1529.3 364.045L1529.25 359.898H1529.93L1539.47 350.182H1543.62L1533.45 360.466H1533.17L1529.3 364.045ZM1526.18 372V342.909H1529.53V372H1526.18ZM1540.04 372L1531.52 361.205L1533.9 358.875L1544.3 372H1540.04Z" fill="white"/>
<line x1="442.103" y1="267" x2="442.103" y2="316" stroke="white" stroke-width="2"/>
<line x1="1254.19" y1="267" x2="1254.19" y2="316" stroke="white" stroke-width="2"/>
<line x1="230" y1="315" x2="1253" y2="315" stroke="white" stroke-width="2"/>
<rect x="7" y="78" width="1885" height="150" rx="27" stroke="#DBDBDB" stroke-width="2"/>
<rect x="8.05884" y="78" width="356.812" height="150" rx="27" fill="#009966" stroke="#DBDBDB" stroke-width="2"/>
<rect x="1" y="267" width="229" height="150" rx="27" fill="#7F22FE" stroke="#DBDBDB" stroke-width="2"/>
<path d="M1434 105C1434 90.0883 1446.09 78 1461 78H1576C1590.91 78 1603 90.0883 1603 105V201C1603 215.912 1590.91 228 1576 228H1461C1446.09 228 1434 215.912 1434 201V105Z" fill="#FB701A" stroke="#DBDBDB" stroke-width="2"/>
<rect x="537.453" y="78" width="560.734" height="150" rx="27" fill="#EC003F" stroke="#DBDBDB" stroke-width="2"/>
<path d="M158.184 144V114.909H169.661C171.868 114.909 173.748 115.33 175.301 116.173C176.854 117.007 178.037 118.167 178.852 119.653C179.676 121.131 180.088 122.835 180.088 124.767C180.088 126.699 179.671 128.403 178.838 129.881C178.004 131.358 176.797 132.509 175.215 133.332C173.643 134.156 171.74 134.568 169.505 134.568H162.19V129.639H168.511C169.695 129.639 170.67 129.436 171.437 129.028C172.213 128.612 172.791 128.039 173.17 127.31C173.558 126.571 173.752 125.723 173.752 124.767C173.752 123.801 173.558 122.958 173.17 122.239C172.791 121.509 172.213 120.946 171.437 120.548C170.66 120.141 169.676 119.938 168.482 119.938H164.335V144H158.184ZM196.568 114.909V144H190.418V120.747H190.247L183.585 124.923V119.469L190.787 114.909H196.568ZM207.076 140.619C206.139 140.619 205.334 140.288 204.661 139.625C203.998 138.962 203.667 138.157 203.667 137.21C203.667 136.282 203.998 135.487 204.661 134.824C205.334 134.161 206.139 133.83 207.076 133.83C207.985 133.83 208.781 134.161 209.463 134.824C210.144 135.487 210.485 136.282 210.485 137.21C210.485 137.835 210.324 138.408 210.002 138.929C209.69 139.44 209.278 139.852 208.766 140.165C208.255 140.468 207.692 140.619 207.076 140.619ZM207.076 126.344C206.139 126.344 205.334 126.012 204.661 125.349C203.998 124.687 203.667 123.882 203.667 122.935C203.667 122.007 203.998 121.216 204.661 120.562C205.334 119.9 206.139 119.568 207.076 119.568C207.985 119.568 208.781 119.9 209.463 120.562C210.144 121.216 210.485 122.007 210.485 122.935C210.485 123.569 210.324 124.147 210.002 124.668C209.69 125.179 209.278 125.586 208.766 125.889C208.255 126.192 207.692 126.344 207.076 126.344ZM139.029 192.398C137.022 192.398 135.232 192.028 133.66 191.29C132.097 190.551 130.857 189.533 129.938 188.236C129.02 186.938 128.542 185.452 128.504 183.776H134.47C134.536 184.902 135.009 185.816 135.89 186.517C136.771 187.218 137.817 187.568 139.029 187.568C139.995 187.568 140.847 187.355 141.586 186.929C142.334 186.493 142.917 185.892 143.333 185.125C143.759 184.348 143.972 183.458 143.972 182.455C143.972 181.432 143.755 180.532 143.319 179.756C142.893 178.979 142.301 178.373 141.543 177.938C140.786 177.502 139.919 177.279 138.944 177.27C138.092 177.27 137.263 177.445 136.458 177.795C135.663 178.146 135.043 178.624 134.597 179.23L129.129 178.25L130.507 162.909H148.291V167.938H135.578L134.825 175.224H134.995C135.507 174.505 136.278 173.908 137.311 173.435C138.343 172.961 139.498 172.724 140.776 172.724C142.528 172.724 144.091 173.136 145.464 173.96C146.837 174.784 147.921 175.916 148.717 177.355C149.512 178.785 149.905 180.433 149.896 182.298C149.905 184.259 149.451 186.001 148.532 187.526C147.623 189.041 146.349 190.234 144.711 191.105C143.082 191.967 141.188 192.398 139.029 192.398ZM165.592 192.639C163.149 192.63 161.046 192.028 159.285 190.835C157.533 189.642 156.184 187.914 155.237 185.651C154.299 183.387 153.835 180.665 153.845 177.483C153.845 174.311 154.313 171.607 155.251 169.372C156.198 167.137 157.547 165.437 159.299 164.273C161.061 163.098 163.158 162.511 165.592 162.511C168.025 162.511 170.118 163.098 171.87 164.273C173.632 165.447 174.986 167.152 175.933 169.386C176.88 171.612 177.348 174.311 177.339 177.483C177.339 180.674 176.865 183.402 175.918 185.665C174.981 187.928 173.636 189.656 171.884 190.849C170.132 192.043 168.035 192.639 165.592 192.639ZM165.592 187.54C167.258 187.54 168.589 186.702 169.583 185.026C170.578 183.349 171.07 180.835 171.061 177.483C171.061 175.277 170.833 173.439 170.379 171.972C169.934 170.504 169.299 169.401 168.475 168.662C167.661 167.923 166.7 167.554 165.592 167.554C163.935 167.554 162.609 168.383 161.614 170.04C160.62 171.697 160.118 174.178 160.109 177.483C160.109 179.718 160.331 181.583 160.776 183.08C161.231 184.566 161.87 185.684 162.694 186.432C163.518 187.17 164.484 187.54 165.592 187.54ZM191.153 192V162.909H197.303V175.736H197.687L208.156 162.909H215.528L204.732 175.935L215.656 192H208.298L200.329 180.04L197.303 183.733V192H191.153ZM218.731 192V162.909H230.379C232.519 162.909 234.304 163.226 235.734 163.861C237.164 164.495 238.239 165.376 238.958 166.503C239.678 167.62 240.038 168.908 240.038 170.366C240.038 171.503 239.811 172.502 239.356 173.364C238.901 174.216 238.276 174.917 237.481 175.466C236.695 176.006 235.795 176.389 234.782 176.616V176.901C235.89 176.948 236.927 177.26 237.893 177.838C238.868 178.416 239.659 179.225 240.265 180.267C240.871 181.299 241.174 182.53 241.174 183.96C241.174 185.504 240.791 186.882 240.024 188.094C239.266 189.296 238.144 190.248 236.657 190.949C235.17 191.65 233.338 192 231.16 192H218.731ZM224.882 186.972H229.896C231.61 186.972 232.86 186.645 233.646 185.991C234.432 185.329 234.825 184.448 234.825 183.349C234.825 182.545 234.631 181.834 234.242 181.219C233.854 180.603 233.3 180.12 232.58 179.77C231.87 179.42 231.023 179.244 230.038 179.244H224.882V186.972ZM224.882 175.082H229.441C230.284 175.082 231.032 174.936 231.686 174.642C232.348 174.339 232.869 173.913 233.248 173.364C233.636 172.814 233.83 172.156 233.83 171.389C233.83 170.338 233.456 169.491 232.708 168.847C231.97 168.203 230.918 167.881 229.555 167.881H224.882V175.082Z" fill="white"/>
<path d="M84.536 333V303.909H96.0133C98.2197 303.909 100.099 304.33 101.652 305.173C103.206 306.007 104.389 307.167 105.204 308.653C106.027 310.131 106.439 311.835 106.439 313.767C106.439 315.699 106.023 317.403 105.189 318.881C104.356 320.358 103.149 321.509 101.567 322.332C99.9953 323.156 98.0919 323.568 95.857 323.568H88.5417V318.639H94.8627C96.0464 318.639 97.0218 318.436 97.7888 318.028C98.5654 317.612 99.143 317.039 99.5218 316.31C99.9101 315.571 100.104 314.723 100.104 313.767C100.104 312.801 99.9101 311.958 99.5218 311.239C99.143 310.509 98.5654 309.946 97.7888 309.548C97.0123 309.141 96.0275 308.938 94.8343 308.938H90.6866V333H84.536ZM109.824 327.886V323.043L121.969 303.909H126.145V310.614H123.673L116.017 322.73V322.957H133.275V327.886H109.824ZM123.787 333V326.409L123.9 324.264V303.909H129.667V333H123.787ZM140.967 329.619C140.03 329.619 139.225 329.288 138.552 328.625C137.889 327.962 137.558 327.157 137.558 326.21C137.558 325.282 137.889 324.487 138.552 323.824C139.225 323.161 140.03 322.83 140.967 322.83C141.876 322.83 142.672 323.161 143.353 323.824C144.035 324.487 144.376 325.282 144.376 326.21C144.376 326.835 144.215 327.408 143.893 327.929C143.581 328.44 143.169 328.852 142.657 329.165C142.146 329.468 141.583 329.619 140.967 329.619ZM140.967 315.344C140.03 315.344 139.225 315.012 138.552 314.349C137.889 313.687 137.558 312.882 137.558 311.935C137.558 311.007 137.889 310.216 138.552 309.562C139.225 308.9 140.03 308.568 140.967 308.568C141.876 308.568 142.672 308.9 143.353 309.562C144.035 310.216 144.376 311.007 144.376 311.935C144.376 312.569 144.215 313.147 143.893 313.668C143.581 314.179 143.169 314.586 142.657 314.889C142.146 315.192 141.583 315.344 140.967 315.344ZM68.9856 381.398C66.8644 381.398 64.9752 381.033 63.318 380.304C61.6702 379.565 60.3681 378.552 59.4117 377.264C58.4647 375.967 57.9771 374.471 57.9486 372.776H64.1418C64.1797 373.486 64.4117 374.111 64.8378 374.651C65.2735 375.181 65.8511 375.593 66.5708 375.886C67.2905 376.18 68.1002 376.327 68.9998 376.327C69.9373 376.327 70.7659 376.161 71.4856 375.83C72.2053 375.498 72.7687 375.039 73.1759 374.452C73.5831 373.865 73.7867 373.187 73.7867 372.42C73.7867 371.644 73.5689 370.957 73.1333 370.361C72.7072 369.755 72.0916 369.281 71.2867 368.94C70.4913 368.599 69.5443 368.429 68.4458 368.429H65.7327V363.912H68.4458C69.3738 363.912 70.193 363.751 70.9032 363.429C71.6229 363.107 72.1816 362.662 72.5793 362.094C72.9771 361.516 73.1759 360.844 73.1759 360.077C73.1759 359.348 73.0007 358.708 72.6503 358.159C72.3094 357.6 71.8265 357.165 71.2015 356.852C70.586 356.54 69.8663 356.384 69.0424 356.384C68.2091 356.384 67.4467 356.535 66.7555 356.838C66.0642 357.132 65.5102 357.553 65.0935 358.102C64.6769 358.652 64.4543 359.295 64.4259 360.034H58.531C58.5594 358.358 59.0377 356.881 59.9657 355.602C60.8937 354.324 62.1437 353.325 63.7157 352.605C65.2971 351.876 67.0822 351.511 69.0708 351.511C71.0784 351.511 72.835 351.876 74.3407 352.605C75.8464 353.334 77.0159 354.319 77.8492 355.56C78.692 356.791 79.1087 358.173 79.0992 359.707C79.1087 361.336 78.6021 362.695 77.5793 363.784C76.5661 364.873 75.245 365.564 73.6163 365.858V366.085C75.7564 366.36 77.3852 367.103 78.5026 368.315C79.6295 369.518 80.1882 371.024 80.1788 372.832C80.1882 374.49 79.71 375.962 78.7441 377.25C77.7877 378.538 76.4666 379.551 74.781 380.29C73.0954 381.028 71.1636 381.398 68.9856 381.398ZM96.0062 381.639C93.563 381.63 91.4607 381.028 89.6994 379.835C87.9475 378.642 86.598 376.914 85.6511 374.651C84.7136 372.387 84.2495 369.665 84.259 366.483C84.259 363.311 84.7278 360.607 85.6653 358.372C86.6122 356.137 87.9617 354.437 89.7136 353.273C91.4749 352.098 93.5725 351.511 96.0062 351.511C98.4399 351.511 100.533 352.098 102.285 353.273C104.046 354.447 105.4 356.152 106.347 358.386C107.294 360.612 107.763 363.311 107.753 366.483C107.753 369.674 107.28 372.402 106.333 374.665C105.395 376.928 104.051 378.656 102.299 379.849C100.547 381.043 98.4494 381.639 96.0062 381.639ZM96.0062 376.54C97.6728 376.54 99.0033 375.702 99.9976 374.026C100.992 372.349 101.484 369.835 101.475 366.483C101.475 364.277 101.248 362.439 100.793 360.972C100.348 359.504 99.7136 358.401 98.8897 357.662C98.0753 356.923 97.1141 356.554 96.0062 356.554C94.349 356.554 93.0232 357.383 92.0289 359.04C91.0346 360.697 90.5327 363.178 90.5232 366.483C90.5232 368.718 90.7458 370.583 91.1908 372.08C91.6454 373.566 92.2846 374.684 93.1084 375.432C93.9323 376.17 94.8982 376.54 96.0062 376.54ZM121.567 381V351.909H127.718V364.736H128.101L138.57 351.909H145.942L135.147 364.935L146.07 381H138.712L130.743 369.04L127.718 372.733V381H121.567ZM149.145 381V351.909H160.793C162.933 351.909 164.718 352.226 166.148 352.861C167.578 353.495 168.653 354.376 169.373 355.503C170.092 356.62 170.452 357.908 170.452 359.366C170.452 360.503 170.225 361.502 169.77 362.364C169.316 363.216 168.691 363.917 167.895 364.466C167.109 365.006 166.21 365.389 165.197 365.616V365.901C166.304 365.948 167.341 366.26 168.307 366.838C169.283 367.416 170.073 368.225 170.679 369.267C171.286 370.299 171.589 371.53 171.589 372.96C171.589 374.504 171.205 375.882 170.438 377.094C169.68 378.296 168.558 379.248 167.072 379.949C165.585 380.65 163.752 381 161.574 381H149.145ZM155.296 375.972H160.31C162.024 375.972 163.274 375.645 164.06 374.991C164.846 374.329 165.239 373.448 165.239 372.349C165.239 371.545 165.045 370.834 164.657 370.219C164.268 369.603 163.715 369.12 162.995 368.77C162.285 368.42 161.437 368.244 160.452 368.244H155.296V375.972ZM155.296 364.082H159.856C160.698 364.082 161.447 363.936 162.1 363.642C162.763 363.339 163.284 362.913 163.662 362.364C164.051 361.814 164.245 361.156 164.245 360.389C164.245 359.338 163.871 358.491 163.123 357.847C162.384 357.203 161.333 356.881 159.969 356.881H155.296V364.082Z" fill="white"/>
<path d="M1231.15 171.398C1229.14 171.398 1227.35 171.028 1225.78 170.29C1224.22 169.551 1222.98 168.533 1222.06 167.236C1221.14 165.938 1220.66 164.452 1220.63 162.776H1226.59C1226.66 163.902 1227.13 164.816 1228.01 165.517C1228.89 166.218 1229.94 166.568 1231.15 166.568C1232.12 166.568 1232.97 166.355 1233.71 165.929C1234.46 165.493 1235.04 164.892 1235.45 164.125C1235.88 163.348 1236.09 162.458 1236.09 161.455C1236.09 160.432 1235.88 159.532 1235.44 158.756C1235.01 157.979 1234.42 157.373 1233.66 156.938C1232.91 156.502 1232.04 156.279 1231.07 156.27C1230.21 156.27 1229.38 156.445 1228.58 156.795C1227.78 157.146 1227.16 157.624 1226.72 158.23L1221.25 157.25L1222.63 141.909H1240.41V146.938H1227.7L1226.95 154.224H1227.12C1227.63 153.505 1228.4 152.908 1229.43 152.435C1230.46 151.961 1231.62 151.724 1232.9 151.724C1234.65 151.724 1236.21 152.136 1237.59 152.96C1238.96 153.784 1240.04 154.916 1240.84 156.355C1241.63 157.785 1242.03 159.433 1242.02 161.298C1242.03 163.259 1241.57 165.001 1240.65 166.526C1239.74 168.041 1238.47 169.234 1236.83 170.105C1235.2 170.967 1233.31 171.398 1231.15 171.398ZM1257.71 171.639C1255.27 171.63 1253.17 171.028 1251.41 169.835C1249.65 168.642 1248.31 166.914 1247.36 164.651C1246.42 162.387 1245.96 159.665 1245.97 156.483C1245.97 153.311 1246.43 150.607 1247.37 148.372C1248.32 146.137 1249.67 144.437 1251.42 143.273C1253.18 142.098 1255.28 141.511 1257.71 141.511C1260.15 141.511 1262.24 142.098 1263.99 143.273C1265.75 144.447 1267.11 146.152 1268.05 148.386C1269 150.612 1269.47 153.311 1269.46 156.483C1269.46 159.674 1268.99 162.402 1268.04 164.665C1267.1 166.928 1265.76 168.656 1264.01 169.849C1262.25 171.043 1260.16 171.639 1257.71 171.639ZM1257.71 166.54C1259.38 166.54 1260.71 165.702 1261.7 164.026C1262.7 162.349 1263.19 159.835 1263.18 156.483C1263.18 154.277 1262.95 152.439 1262.5 150.972C1262.06 149.504 1261.42 148.401 1260.6 147.662C1259.78 146.923 1258.82 146.554 1257.71 146.554C1256.06 146.554 1254.73 147.383 1253.74 149.04C1252.74 150.697 1252.24 153.178 1252.23 156.483C1252.23 158.718 1252.45 160.583 1252.9 162.08C1253.35 163.566 1253.99 164.684 1254.82 165.432C1255.64 166.17 1256.61 166.54 1257.71 166.54ZM1283.27 171V141.909H1289.42V154.736H1289.81L1300.28 141.909H1307.65L1296.85 154.935L1307.78 171H1300.42L1292.45 159.04L1289.42 162.733V171H1283.27ZM1310.85 171V141.909H1322.5C1324.64 141.909 1326.43 142.226 1327.86 142.861C1329.29 143.495 1330.36 144.376 1331.08 145.503C1331.8 146.62 1332.16 147.908 1332.16 149.366C1332.16 150.503 1331.93 151.502 1331.48 152.364C1331.02 153.216 1330.4 153.917 1329.6 154.466C1328.82 155.006 1327.92 155.389 1326.9 155.616V155.901C1328.01 155.948 1329.05 156.26 1330.01 156.838C1330.99 157.416 1331.78 158.225 1332.39 159.267C1332.99 160.299 1333.3 161.53 1333.3 162.96C1333.3 164.504 1332.91 165.882 1332.15 167.094C1331.39 168.296 1330.27 169.248 1328.78 169.949C1327.29 170.65 1325.46 171 1323.28 171H1310.85ZM1317 165.972H1322.02C1323.73 165.972 1324.98 165.645 1325.77 164.991C1326.55 164.329 1326.95 163.448 1326.95 162.349C1326.95 161.545 1326.75 160.834 1326.36 160.219C1325.98 159.603 1325.42 159.12 1324.7 158.77C1323.99 158.42 1323.14 158.244 1322.16 158.244H1317V165.972ZM1317 154.082H1321.56C1322.41 154.082 1323.15 153.936 1323.81 153.642C1324.47 153.339 1324.99 152.913 1325.37 152.364C1325.76 151.814 1325.95 151.156 1325.95 150.389C1325.95 149.338 1325.58 148.491 1324.83 147.847C1324.09 147.203 1323.04 146.881 1321.68 146.881H1317V154.082Z" fill="white"/>
<path d="M1689.42 165.886V161.043L1701.57 141.909H1705.74V148.614H1703.27L1695.61 160.73V160.957H1712.87V165.886H1689.42ZM1703.38 171V164.409L1703.5 162.264V141.909H1709.27V171H1703.38ZM1728.38 171.639C1725.93 171.63 1723.83 171.028 1722.07 169.835C1720.32 168.642 1718.97 166.914 1718.02 164.651C1717.08 162.387 1716.62 159.665 1716.63 156.483C1716.63 153.311 1717.1 150.607 1718.04 148.372C1718.98 146.137 1720.33 144.437 1722.08 143.273C1723.85 142.098 1725.94 141.511 1728.38 141.511C1730.81 141.511 1732.9 142.098 1734.66 143.273C1736.42 144.447 1737.77 146.152 1738.72 148.386C1739.67 150.612 1740.13 153.311 1740.12 156.483C1740.12 159.674 1739.65 162.402 1738.7 164.665C1737.77 166.928 1736.42 168.656 1734.67 169.849C1732.92 171.043 1730.82 171.639 1728.38 171.639ZM1728.38 166.54C1730.04 166.54 1731.37 165.702 1732.37 164.026C1733.36 162.349 1733.86 159.835 1733.85 156.483C1733.85 154.277 1733.62 152.439 1733.16 150.972C1732.72 149.504 1732.08 148.401 1731.26 147.662C1730.45 146.923 1729.49 146.554 1728.38 146.554C1726.72 146.554 1725.39 147.383 1724.4 149.04C1723.41 150.697 1722.9 153.178 1722.89 156.483C1722.89 158.718 1723.12 160.583 1723.56 162.08C1724.02 163.566 1724.66 164.684 1725.48 165.432C1726.3 166.17 1727.27 166.54 1728.38 166.54ZM1753.94 171V141.909H1760.09V154.736H1760.47L1770.94 141.909H1778.31L1767.52 154.935L1778.44 171H1771.08L1763.11 159.04L1760.09 162.733V171H1753.94ZM1781.52 171V141.909H1793.16C1795.3 141.909 1797.09 142.226 1798.52 142.861C1799.95 143.495 1801.02 144.376 1801.74 145.503C1802.46 146.62 1802.82 147.908 1802.82 149.366C1802.82 150.503 1802.6 151.502 1802.14 152.364C1801.69 153.216 1801.06 153.917 1800.27 154.466C1799.48 155.006 1798.58 155.389 1797.57 155.616V155.901C1798.68 155.948 1799.71 156.26 1800.68 156.838C1801.65 157.416 1802.44 158.225 1803.05 159.267C1803.66 160.299 1803.96 161.53 1803.96 162.96C1803.96 164.504 1803.58 165.882 1802.81 167.094C1802.05 168.296 1800.93 169.248 1799.44 169.949C1797.96 170.65 1796.12 171 1793.95 171H1781.52ZM1787.67 165.972H1792.68C1794.4 165.972 1795.65 165.645 1796.43 164.991C1797.22 164.329 1797.61 163.448 1797.61 162.349C1797.61 161.545 1797.42 160.834 1797.03 160.219C1796.64 159.603 1796.09 159.12 1795.37 158.77C1794.66 158.42 1793.81 158.244 1792.82 158.244H1787.67V165.972ZM1787.67 154.082H1792.23C1793.07 154.082 1793.82 153.936 1794.47 153.642C1795.13 153.339 1795.65 152.913 1796.03 152.364C1796.42 151.814 1796.62 151.156 1796.62 150.389C1796.62 149.338 1796.24 148.491 1795.49 147.847C1794.76 147.203 1793.7 146.881 1792.34 146.881H1787.67V154.082Z" fill="white"/>
<path d="M786.939 144V114.909H798.416C800.623 114.909 802.503 115.33 804.056 116.173C805.609 117.007 806.792 118.167 807.607 119.653C808.431 121.131 808.842 122.835 808.842 124.767C808.842 126.699 808.426 128.403 807.592 129.881C806.759 131.358 805.552 132.509 803.97 133.332C802.398 134.156 800.495 134.568 798.26 134.568H790.945V129.639H797.266C798.449 129.639 799.425 129.436 800.192 129.028C800.968 128.612 801.546 128.039 801.925 127.31C802.313 126.571 802.507 125.723 802.507 124.767C802.507 123.801 802.313 122.958 801.925 122.239C801.546 121.509 800.968 120.946 800.192 120.548C799.415 120.141 798.431 119.938 797.237 119.938H793.09V144H786.939ZM812.667 144V139.568L823.022 129.98C823.903 129.128 824.641 128.361 825.238 127.679C825.844 126.997 826.303 126.33 826.616 125.676C826.928 125.013 827.085 124.298 827.085 123.531C827.085 122.679 826.891 121.945 826.502 121.33C826.114 120.705 825.584 120.226 824.911 119.895C824.239 119.554 823.477 119.384 822.624 119.384C821.734 119.384 820.958 119.563 820.295 119.923C819.632 120.283 819.121 120.799 818.761 121.472C818.401 122.144 818.221 122.944 818.221 123.872H812.383C812.383 121.969 812.814 120.316 813.676 118.915C814.537 117.513 815.745 116.429 817.298 115.662C818.851 114.895 820.641 114.511 822.667 114.511C824.75 114.511 826.564 114.881 828.107 115.619C829.66 116.348 830.868 117.362 831.73 118.659C832.591 119.956 833.022 121.443 833.022 123.119C833.022 124.218 832.804 125.302 832.369 126.372C831.943 127.442 831.18 128.631 830.082 129.938C828.983 131.235 827.435 132.793 825.437 134.611L821.19 138.773V138.972H833.406V144H812.667ZM841.456 140.619C840.519 140.619 839.714 140.288 839.041 139.625C838.378 138.962 838.047 138.157 838.047 137.21C838.047 136.282 838.378 135.487 839.041 134.824C839.714 134.161 840.519 133.83 841.456 133.83C842.365 133.83 843.161 134.161 843.842 134.824C844.524 135.487 844.865 136.282 844.865 137.21C844.865 137.835 844.704 138.408 844.382 138.929C844.07 139.44 843.658 139.852 843.146 140.165C842.635 140.468 842.072 140.619 841.456 140.619ZM841.456 126.344C840.519 126.344 839.714 126.012 839.041 125.349C838.378 124.687 838.047 123.882 838.047 122.935C838.047 122.007 838.378 121.216 839.041 120.562C839.714 119.9 840.519 119.568 841.456 119.568C842.365 119.568 843.161 119.9 843.842 120.562C844.524 121.216 844.865 122.007 844.865 122.935C844.865 123.569 844.704 124.147 844.382 124.668C844.07 125.179 843.658 125.586 843.146 125.889C842.635 126.192 842.072 126.344 841.456 126.344ZM770.492 192.398C768.304 192.398 766.358 192.043 764.654 191.332C762.959 190.613 761.628 189.633 760.662 188.392C759.697 187.152 759.214 185.745 759.214 184.173C759.214 182.961 759.488 181.848 760.037 180.835C760.596 179.812 761.354 178.965 762.31 178.293C763.267 177.611 764.337 177.175 765.52 176.986V176.787C763.967 176.474 762.708 175.722 761.742 174.528C760.776 173.326 760.293 171.929 760.293 170.338C760.293 168.832 760.733 167.492 761.614 166.318C762.495 165.134 763.702 164.206 765.236 163.534C766.78 162.852 768.532 162.511 770.492 162.511C772.452 162.511 774.199 162.852 775.733 163.534C777.277 164.216 778.489 165.149 779.37 166.332C780.251 167.507 780.696 168.842 780.705 170.338C780.696 171.938 780.203 173.335 779.228 174.528C778.252 175.722 777.002 176.474 775.478 176.787V176.986C776.643 177.175 777.698 177.611 778.645 178.293C779.602 178.965 780.359 179.812 780.918 180.835C781.486 181.848 781.775 182.961 781.785 184.173C781.775 185.745 781.287 187.152 780.322 188.392C779.356 189.633 778.02 190.613 776.316 191.332C774.621 192.043 772.679 192.398 770.492 192.398ZM770.492 187.881C771.467 187.881 772.32 187.705 773.049 187.355C773.778 186.995 774.346 186.503 774.753 185.878C775.17 185.243 775.378 184.514 775.378 183.69C775.378 182.848 775.165 182.104 774.739 181.46C774.313 180.807 773.735 180.295 773.006 179.926C772.277 179.547 771.439 179.358 770.492 179.358C769.554 179.358 768.716 179.547 767.978 179.926C767.239 180.295 766.657 180.807 766.231 181.46C765.814 182.104 765.606 182.848 765.606 183.69C765.606 184.514 765.809 185.243 766.216 185.878C766.624 186.503 767.197 186.995 767.935 187.355C768.674 187.705 769.526 187.881 770.492 187.881ZM770.492 174.884C771.306 174.884 772.031 174.718 772.665 174.386C773.3 174.055 773.797 173.596 774.157 173.009C774.517 172.421 774.697 171.744 774.697 170.977C774.697 170.22 774.517 169.557 774.157 168.989C773.797 168.411 773.304 167.961 772.679 167.639C772.054 167.308 771.325 167.142 770.492 167.142C769.668 167.142 768.939 167.308 768.304 167.639C767.67 167.961 767.173 168.411 766.813 168.989C766.463 169.557 766.287 170.22 766.287 170.977C766.287 171.744 766.467 172.421 766.827 173.009C767.187 173.596 767.684 174.055 768.319 174.386C768.953 174.718 769.678 174.884 770.492 174.884ZM797.491 192.639C795.048 192.63 792.946 192.028 791.184 190.835C789.433 189.642 788.083 187.914 787.136 185.651C786.199 183.387 785.735 180.665 785.744 177.483C785.744 174.311 786.213 171.607 787.15 169.372C788.097 167.137 789.447 165.437 791.199 164.273C792.96 163.098 795.058 162.511 797.491 162.511C799.925 162.511 802.018 163.098 803.77 164.273C805.531 165.447 806.885 167.152 807.832 169.386C808.779 171.612 809.248 174.311 809.238 177.483C809.238 180.674 808.765 183.402 807.818 185.665C806.88 187.928 805.536 189.656 803.784 190.849C802.032 192.043 799.934 192.639 797.491 192.639ZM797.491 187.54C799.158 187.54 800.488 186.702 801.483 185.026C802.477 183.349 802.969 180.835 802.96 177.483C802.96 175.277 802.733 173.439 802.278 171.972C801.833 170.504 801.199 169.401 800.375 168.662C799.56 167.923 798.599 167.554 797.491 167.554C795.834 167.554 794.508 168.383 793.514 170.04C792.52 171.697 792.018 174.178 792.008 177.483C792.008 179.718 792.231 181.583 792.676 183.08C793.13 184.566 793.77 185.684 794.594 186.432C795.417 187.17 796.383 187.54 797.491 187.54ZM823.052 192V162.909H829.203V175.736H829.586L840.055 162.909H847.427L836.632 175.935L847.555 192H840.197L832.228 180.04L829.203 183.733V192H823.052ZM850.63 192V162.909H862.278C864.418 162.909 866.203 163.226 867.633 163.861C869.063 164.495 870.138 165.376 870.858 166.503C871.577 167.62 871.937 168.908 871.937 170.366C871.937 171.503 871.71 172.502 871.255 173.364C870.801 174.216 870.176 174.917 869.38 175.466C868.594 176.006 867.695 176.389 866.682 176.616V176.901C867.79 176.948 868.827 177.26 869.792 177.838C870.768 178.416 871.559 179.225 872.165 180.267C872.771 181.299 873.074 182.53 873.074 183.96C873.074 185.504 872.69 186.882 871.923 188.094C871.166 189.296 870.043 190.248 868.557 190.949C867.07 191.65 865.237 192 863.059 192H850.63ZM856.781 186.972H861.795C863.509 186.972 864.759 186.645 865.545 185.991C866.331 185.329 866.724 184.448 866.724 183.349C866.724 182.545 866.53 181.834 866.142 181.219C865.754 180.603 865.2 180.12 864.48 179.77C863.77 179.42 862.922 179.244 861.937 179.244H856.781V186.972ZM856.781 175.082H861.341C862.184 175.082 862.932 174.936 863.585 174.642C864.248 174.339 864.769 173.913 865.148 173.364C865.536 172.814 865.73 172.156 865.73 171.389C865.73 170.338 865.356 169.491 864.608 168.847C863.869 168.203 862.818 167.881 861.454 167.881H856.781V175.082Z" fill="white"/>
<path d="M395.512 171V166.568L405.867 156.98C406.748 156.128 407.486 155.361 408.083 154.679C408.689 153.997 409.148 153.33 409.461 152.676C409.773 152.013 409.93 151.298 409.93 150.531C409.93 149.679 409.735 148.945 409.347 148.33C408.959 147.705 408.429 147.226 407.756 146.895C407.084 146.554 406.322 146.384 405.469 146.384C404.579 146.384 403.803 146.563 403.14 146.923C402.477 147.283 401.966 147.799 401.606 148.472C401.246 149.144 401.066 149.944 401.066 150.872H395.228C395.228 148.969 395.659 147.316 396.52 145.915C397.382 144.513 398.59 143.429 400.143 142.662C401.696 141.895 403.485 141.511 405.512 141.511C407.595 141.511 409.409 141.881 410.952 142.619C412.505 143.348 413.713 144.362 414.574 145.659C415.436 146.956 415.867 148.443 415.867 150.119C415.867 151.218 415.649 152.302 415.214 153.372C414.787 154.442 414.025 155.631 412.927 156.938C411.828 158.235 410.28 159.793 408.282 161.611L404.035 165.773V165.972H416.251V171H395.512ZM432.113 171.639C429.67 171.63 427.568 171.028 425.807 169.835C424.055 168.642 422.705 166.914 421.758 164.651C420.821 162.387 420.357 159.665 420.366 156.483C420.366 153.311 420.835 150.607 421.773 148.372C422.72 146.137 424.069 144.437 425.821 143.273C427.582 142.098 429.68 141.511 432.113 141.511C434.547 141.511 436.64 142.098 438.392 143.273C440.153 144.447 441.507 146.152 442.454 148.386C443.401 150.612 443.87 153.311 443.861 156.483C443.861 159.674 443.387 162.402 442.44 164.665C441.503 166.928 440.158 168.656 438.406 169.849C436.654 171.043 434.557 171.639 432.113 171.639ZM432.113 166.54C433.78 166.54 435.111 165.702 436.105 164.026C437.099 162.349 437.592 159.835 437.582 156.483C437.582 154.277 437.355 152.439 436.9 150.972C436.455 149.504 435.821 148.401 434.997 147.662C434.183 146.923 433.221 146.554 432.113 146.554C430.456 146.554 429.131 147.383 428.136 149.04C427.142 150.697 426.64 153.178 426.631 156.483C426.631 158.718 426.853 160.583 427.298 162.08C427.753 163.566 428.392 164.684 429.216 165.432C430.04 166.17 431.006 166.54 432.113 166.54ZM457.675 171V141.909H463.825V154.736H464.209L474.677 141.909H482.05L471.254 154.935L482.177 171H474.819L466.851 159.04L463.825 162.733V171H457.675ZM485.253 171V141.909H496.9C499.041 141.909 500.826 142.226 502.256 142.861C503.685 143.495 504.76 144.376 505.48 145.503C506.2 146.62 506.56 147.908 506.56 149.366C506.56 150.503 506.332 151.502 505.878 152.364C505.423 153.216 504.798 153.917 504.003 154.466C503.217 155.006 502.317 155.389 501.304 155.616V155.901C502.412 155.948 503.449 156.26 504.415 156.838C505.39 157.416 506.181 158.225 506.787 159.267C507.393 160.299 507.696 161.53 507.696 162.96C507.696 164.504 507.312 165.882 506.545 167.094C505.788 168.296 504.666 169.248 503.179 169.949C501.692 170.65 499.86 171 497.682 171H485.253ZM491.403 165.972H496.417C498.131 165.972 499.381 165.645 500.167 164.991C500.953 164.329 501.346 163.448 501.346 162.349C501.346 161.545 501.152 160.834 500.764 160.219C500.376 159.603 499.822 159.12 499.102 158.77C498.392 158.42 497.544 158.244 496.56 158.244H491.403V165.972ZM491.403 154.082H495.963C496.806 154.082 497.554 153.936 498.207 153.642C498.87 153.339 499.391 152.913 499.77 152.364C500.158 151.814 500.352 151.156 500.352 150.389C500.352 149.338 499.978 148.491 499.23 147.847C498.491 147.203 497.44 146.881 496.077 146.881H491.403V154.082Z" fill="white"/>
<path d="M874.921 9.90909H879.126L889.012 34.0568H889.353L899.24 9.90909H903.444V39H900.149V16.8977H899.865L890.774 39H887.592L878.501 16.8977H878.217V39H874.921V9.90909ZM919.201 39.4545C917.098 39.4545 915.285 38.9905 913.76 38.0625C912.245 37.125 911.076 35.8182 910.252 34.142C909.437 32.4564 909.03 30.4962 909.03 28.2614C909.03 26.0265 909.437 24.0568 910.252 22.3523C911.076 20.6383 912.221 19.303 913.689 18.3466C915.166 17.3807 916.89 16.8977 918.86 16.8977C919.996 16.8977 921.118 17.0871 922.226 17.4659C923.334 17.8447 924.343 18.4602 925.252 19.3125C926.161 20.1553 926.885 21.2727 927.425 22.6648C927.965 24.0568 928.235 25.7708 928.235 27.8068V29.2273H911.416V26.3295H924.826C924.826 25.0985 924.579 24 924.087 23.0341C923.604 22.0682 922.913 21.3059 922.013 20.7472C921.123 20.1884 920.072 19.9091 918.86 19.9091C917.524 19.9091 916.369 20.2405 915.394 20.9034C914.428 21.5568 913.684 22.4091 913.164 23.4602C912.643 24.5114 912.382 25.6383 912.382 26.8409V28.7727C912.382 30.4205 912.666 31.8172 913.235 32.9631C913.812 34.0994 914.612 34.9659 915.635 35.5625C916.658 36.1496 917.846 36.4432 919.201 36.4432C920.081 36.4432 920.877 36.3201 921.587 36.0739C922.307 35.8182 922.927 35.4394 923.448 34.9375C923.969 34.4261 924.371 33.7917 924.655 33.0341L927.894 33.9432C927.553 35.0417 926.98 36.0076 926.175 36.8409C925.37 37.6648 924.376 38.3087 923.192 38.7727C922.008 39.2273 920.678 39.4545 919.201 39.4545ZM933.334 39V17.1818H936.573V20.5909H936.857C937.311 19.4261 938.045 18.5218 939.058 17.8778C940.072 17.2244 941.289 16.8977 942.709 16.8977C944.148 16.8977 945.346 17.2244 946.303 17.8778C947.269 18.5218 948.022 19.4261 948.561 20.5909H948.789C949.347 19.464 950.185 18.5691 951.303 17.9062C952.42 17.2339 953.76 16.8977 955.323 16.8977C957.273 16.8977 958.869 17.5085 960.11 18.7301C961.35 19.9422 961.97 21.8314 961.97 24.3977V39H958.618V24.3977C958.618 22.7879 958.178 21.6373 957.297 20.946C956.416 20.2547 955.38 19.9091 954.186 19.9091C952.652 19.9091 951.464 20.3731 950.621 21.3011C949.778 22.2197 949.357 23.3845 949.357 24.7955V39H945.948V24.0568C945.948 22.8163 945.545 21.8172 944.74 21.0597C943.935 20.2926 942.898 19.9091 941.63 19.9091C940.758 19.9091 939.944 20.1411 939.186 20.6051C938.438 21.0691 937.832 21.7131 937.368 22.5369C936.914 23.3513 936.686 24.2936 936.686 25.3636V39H933.334ZM976.963 39.4545C974.994 39.4545 973.265 38.9858 971.779 38.0483C970.301 37.1108 969.146 35.7992 968.313 34.1136C967.489 32.428 967.077 30.4583 967.077 28.2045C967.077 25.9318 967.489 23.9479 968.313 22.2528C969.146 20.5578 970.301 19.2415 971.779 18.304C973.265 17.3665 974.994 16.8977 976.963 16.8977C978.933 16.8977 980.656 17.3665 982.134 18.304C983.621 19.2415 984.776 20.5578 985.6 22.2528C986.433 23.9479 986.85 25.9318 986.85 28.2045C986.85 30.4583 986.433 32.428 985.6 34.1136C984.776 35.7992 983.621 37.1108 982.134 38.0483C980.656 38.9858 978.933 39.4545 976.963 39.4545ZM976.963 36.4432C978.46 36.4432 979.691 36.0597 980.656 35.2926C981.622 34.5256 982.337 33.517 982.801 32.267C983.265 31.017 983.497 29.6629 983.497 28.2045C983.497 26.7462 983.265 25.3873 982.801 24.1278C982.337 22.8684 981.622 21.8504 980.656 21.0739C979.691 20.2973 978.46 19.9091 976.963 19.9091C975.467 19.9091 974.236 20.2973 973.27 21.0739C972.304 21.8504 971.589 22.8684 971.125 24.1278C970.661 25.3873 970.429 26.7462 970.429 28.2045C970.429 29.6629 970.661 31.017 971.125 32.267C971.589 33.517 972.304 34.5256 973.27 35.2926C974.236 36.0597 975.467 36.4432 976.963 36.4432ZM991.967 39V17.1818H995.205V20.4773H995.433C995.83 19.3977 996.55 18.5218 997.592 17.8494C998.634 17.1771 999.808 16.8409 1001.11 16.8409C1001.36 16.8409 1001.67 16.8456 1002.04 16.8551C1002.41 16.8646 1002.69 16.8788 1002.88 16.8977V20.3068C1002.76 20.2784 1002.5 20.2358 1002.09 20.179C1001.7 20.1127 1001.28 20.0795 1000.83 20.0795C999.77 20.0795 998.823 20.3021 997.99 20.7472C997.166 21.1828 996.512 21.7888 996.029 22.5653C995.556 23.3324 995.319 24.2083 995.319 25.1932V39H991.967ZM1009.67 47.1818C1009.1 47.1818 1008.6 47.1345 1008.15 47.0398C1007.71 46.9545 1007.4 46.8693 1007.23 46.7841L1008.08 43.8295C1008.9 44.0379 1009.62 44.1136 1010.24 44.0568C1010.87 44 1011.42 43.7206 1011.9 43.2188C1012.4 42.7263 1012.85 41.9261 1013.25 40.8182L1013.88 39.1136L1005.81 17.1818H1009.45L1015.47 34.5682H1015.7L1021.72 17.1818H1025.35L1016.09 42.1818C1015.68 43.3087 1015.16 44.2415 1014.54 44.9801C1013.93 45.7282 1013.21 46.2822 1012.4 46.642C1011.6 47.0019 1010.69 47.1818 1009.67 47.1818Z" fill="white"/>
<path d="M1489.44 144V114.909H1500.92C1503.12 114.909 1505 115.33 1506.56 116.173C1508.11 117.007 1509.29 118.167 1510.11 119.653C1510.93 121.131 1511.34 122.835 1511.34 124.767C1511.34 126.699 1510.93 128.403 1510.09 129.881C1509.26 131.358 1508.05 132.509 1506.47 133.332C1504.9 134.156 1502.99 134.568 1500.76 134.568H1493.44V129.639H1499.77C1500.95 129.639 1501.92 129.436 1502.69 129.028C1503.47 128.612 1504.05 128.039 1504.42 127.31C1504.81 126.571 1505.01 125.723 1505.01 124.767C1505.01 123.801 1504.81 122.958 1504.42 122.239C1504.05 121.509 1503.47 120.946 1502.69 120.548C1501.91 120.141 1500.93 119.938 1499.74 119.938H1495.59V144H1489.44ZM1525.92 144.398C1523.8 144.398 1521.91 144.033 1520.25 143.304C1518.6 142.565 1517.3 141.552 1516.35 140.264C1515.4 138.967 1514.91 137.471 1514.88 135.776H1521.08C1521.11 136.486 1521.35 137.111 1521.77 137.651C1522.21 138.181 1522.78 138.593 1523.5 138.886C1524.22 139.18 1525.03 139.327 1525.93 139.327C1526.87 139.327 1527.7 139.161 1528.42 138.83C1529.14 138.498 1529.7 138.039 1530.11 137.452C1530.52 136.865 1530.72 136.187 1530.72 135.42C1530.72 134.644 1530.5 133.957 1530.07 133.361C1529.64 132.755 1529.03 132.281 1528.22 131.94C1527.43 131.599 1526.48 131.429 1525.38 131.429H1522.67V126.912H1525.38C1526.31 126.912 1527.13 126.751 1527.84 126.429C1528.56 126.107 1529.12 125.662 1529.51 125.094C1529.91 124.516 1530.11 123.844 1530.11 123.077C1530.11 122.348 1529.93 121.708 1529.58 121.159C1529.24 120.6 1528.76 120.165 1528.14 119.852C1527.52 119.54 1526.8 119.384 1525.98 119.384C1525.14 119.384 1524.38 119.535 1523.69 119.838C1523 120.132 1522.44 120.553 1522.03 121.102C1521.61 121.652 1521.39 122.295 1521.36 123.034H1515.46C1515.49 121.358 1515.97 119.881 1516.9 118.602C1517.83 117.324 1519.08 116.325 1520.65 115.605C1522.23 114.876 1524.02 114.511 1526 114.511C1528.01 114.511 1529.77 114.876 1531.27 115.605C1532.78 116.334 1533.95 117.319 1534.78 118.56C1535.63 119.791 1536.04 121.173 1536.03 122.707C1536.04 124.336 1535.54 125.695 1534.51 126.784C1533.5 127.873 1532.18 128.564 1530.55 128.858V129.085C1532.69 129.36 1534.32 130.103 1535.44 131.315C1536.56 132.518 1537.12 134.024 1537.11 135.832C1537.12 137.49 1536.64 138.962 1535.68 140.25C1534.72 141.538 1533.4 142.551 1531.71 143.29C1530.03 144.028 1528.1 144.398 1525.92 144.398ZM1545.13 140.619C1544.19 140.619 1543.39 140.288 1542.71 139.625C1542.05 138.962 1541.72 138.157 1541.72 137.21C1541.72 136.282 1542.05 135.487 1542.71 134.824C1543.39 134.161 1544.19 133.83 1545.13 133.83C1546.04 133.83 1546.83 134.161 1547.51 134.824C1548.2 135.487 1548.54 136.282 1548.54 137.21C1548.54 137.835 1548.38 138.408 1548.05 138.929C1547.74 139.44 1547.33 139.852 1546.82 140.165C1546.31 140.468 1545.74 140.619 1545.13 140.619ZM1545.13 126.344C1544.19 126.344 1543.39 126.012 1542.71 125.349C1542.05 124.687 1541.72 123.882 1541.72 122.935C1541.72 122.007 1542.05 121.216 1542.71 120.562C1543.39 119.9 1544.19 119.568 1545.13 119.568C1546.04 119.568 1546.83 119.9 1547.51 120.562C1548.2 121.216 1548.54 122.007 1548.54 122.935C1548.54 123.569 1548.38 124.147 1548.05 124.668C1547.74 125.179 1547.33 125.586 1546.82 125.889C1546.31 126.192 1545.74 126.344 1545.13 126.344ZM1478.82 162.909V192H1472.67V168.747H1472.5L1465.84 172.923V167.469L1473.04 162.909H1478.82ZM1497.14 192.639C1494.7 192.63 1492.59 192.028 1490.83 190.835C1489.08 189.642 1487.73 187.914 1486.78 185.651C1485.85 183.387 1485.38 180.665 1485.39 177.483C1485.39 174.311 1485.86 171.607 1486.8 169.372C1487.75 167.137 1489.09 165.437 1490.85 164.273C1492.61 163.098 1494.71 162.511 1497.14 162.511C1499.57 162.511 1501.67 163.098 1503.42 164.273C1505.18 165.447 1506.53 167.152 1507.48 169.386C1508.43 171.612 1508.9 174.311 1508.89 177.483C1508.89 180.674 1508.41 183.402 1507.47 185.665C1506.53 187.928 1505.18 189.656 1503.43 190.849C1501.68 192.043 1499.58 192.639 1497.14 192.639ZM1497.14 187.54C1498.81 187.54 1500.14 186.702 1501.13 185.026C1502.13 183.349 1502.62 180.835 1502.61 177.483C1502.61 175.277 1502.38 173.439 1501.93 171.972C1501.48 170.504 1500.85 169.401 1500.02 168.662C1499.21 167.923 1498.25 167.554 1497.14 167.554C1495.48 167.554 1494.16 168.383 1493.16 170.04C1492.17 171.697 1491.67 174.178 1491.66 177.483C1491.66 179.718 1491.88 181.583 1492.32 183.08C1492.78 184.566 1493.42 185.684 1494.24 186.432C1495.07 187.17 1496.03 187.54 1497.14 187.54ZM1522.7 192V162.909H1528.85V175.736H1529.23L1539.7 162.909H1547.08L1536.28 175.935L1547.2 192H1539.85L1531.88 180.04L1528.85 183.733V192H1522.7ZM1550.28 192V162.909H1561.93C1564.07 162.909 1565.85 163.226 1567.28 163.861C1568.71 164.495 1569.79 165.376 1570.51 166.503C1571.23 167.62 1571.59 168.908 1571.59 170.366C1571.59 171.503 1571.36 172.502 1570.9 173.364C1570.45 174.216 1569.82 174.917 1569.03 175.466C1568.24 176.006 1567.34 176.389 1566.33 176.616V176.901C1567.44 176.948 1568.47 177.26 1569.44 177.838C1570.42 178.416 1571.21 179.225 1571.81 180.267C1572.42 181.299 1572.72 182.53 1572.72 183.96C1572.72 185.504 1572.34 186.882 1571.57 188.094C1570.81 189.296 1569.69 190.248 1568.2 190.949C1566.72 191.65 1564.89 192 1562.71 192H1550.28ZM1556.43 186.972H1561.44C1563.16 186.972 1564.41 186.645 1565.19 185.991C1565.98 185.329 1566.37 184.448 1566.37 183.349C1566.37 182.545 1566.18 181.834 1565.79 181.219C1565.4 180.603 1564.85 180.12 1564.13 179.77C1563.42 179.42 1562.57 179.244 1561.59 179.244H1556.43V186.972ZM1556.43 175.082H1560.99C1561.83 175.082 1562.58 174.936 1563.23 174.642C1563.9 174.339 1564.42 173.913 1564.8 173.364C1565.18 172.814 1565.38 172.156 1565.38 171.389C1565.38 170.338 1565 169.491 1564.26 168.847C1563.52 168.203 1562.47 167.881 1561.1 167.881H1556.43V175.082Z" fill="white"/>
</svg>
