<svg xmlns="http://www.w3.org/2000/svg" width="1367" height="867" fill="none" viewBox="0 0 1367 867"><rect width="1365" height="150" x="1" y="78" stroke="#dbdbdb" stroke-width="2" rx="27"/><rect width="1364" height="150" x="2" y="397" stroke="#dbdbdb" stroke-width="2" rx="27"/><rect width="1364" height="150" x="2" y="716" stroke="#dbdbdb" stroke-width="2" rx="27"/><rect width="333" height="150" x="2" y="78" fill="#096" stroke="#dbdbdb" stroke-width="2" rx="27"/><path fill="#096" stroke="#dbdbdb" stroke-width="2" d="M3 424c0-14.912 12.088-27 27-27h310v150H30c-14.912 0-27-12.088-27-27zM3 743c0-14.912 12.088-27 27-27h310v150H30c-14.912 0-27-12.088-27-27z"/><path fill="#f0b100" stroke="#dbdbdb" stroke-width="2" d="M340 397h306c14.912 0 27 12.088 27 27v96c0 14.912-12.088 27-27 27H340zM340 716h333v150H340z"/><path fill="#ec003f" stroke="#dbdbdb" stroke-width="2" d="M673 716h502.6c14.91 0 27 12.088 27 27v96c0 14.912-12.09 27-27 27H673z"/><path fill="#fff" d="M785.428 138.909V168h-6.15v-23.253h-.171l-6.662 4.176v-5.454l7.202-4.56zm17.539 29.489q-3.01 0-5.369-1.108-2.343-1.109-3.722-3.054-1.377-1.946-1.434-4.46h5.966q.099 1.69 1.42 2.741t3.139 1.051q1.45 0 2.557-.639a4.57 4.57 0 0 0 1.747-1.804q.64-1.166.64-2.67 0-1.535-.654-2.699a4.6 4.6 0 0 0-1.775-1.818q-1.137-.654-2.6-.668-1.278 0-2.486.525-1.192.526-1.86 1.435l-5.469-.98 1.378-15.341h17.784v5.029h-12.713l-.753 7.286h.17q.767-1.079 2.316-1.789 1.548-.711 3.465-.711 2.628 0 4.688 1.236t3.253 3.395q1.193 2.145 1.179 4.943.014 2.941-1.364 5.228-1.364 2.272-3.821 3.579-2.444 1.293-5.682 1.293m26.563.241q-3.665-.014-6.307-1.804-2.628-1.79-4.048-5.184-1.407-3.395-1.392-8.168 0-4.758 1.406-8.111 1.42-3.353 4.048-5.099 2.643-1.762 6.293-1.762t6.278 1.762q2.643 1.761 4.063 5.113 1.42 3.339 1.406 8.097 0 4.787-1.42 8.182-1.407 3.395-4.035 5.184-2.627 1.79-6.292 1.79m0-5.099q2.5 0 3.991-2.514 1.492-2.515 1.478-7.543 0-3.31-.682-5.511-.668-2.202-1.904-3.31-1.221-1.108-2.883-1.108-2.486 0-3.977 2.486-1.492 2.486-1.506 7.443 0 3.352.667 5.597.682 2.23 1.918 3.352a4.2 4.2 0 0 0 2.898 1.108m25.561 4.46v-29.091h6.15v12.827h.384l10.469-12.827h7.372l-10.796 13.026L879.594 168h-7.358l-7.969-11.96-3.026 3.693V168zm27.578 0v-29.091h11.648q3.21 0 5.355.952 2.145.951 3.224 2.642 1.08 1.676 1.08 3.863 0 1.705-.682 2.998a5.9 5.9 0 0 1-1.875 2.102q-1.18.81-2.699 1.15v.285a6.5 6.5 0 0 1 3.111.937q1.463.867 2.372 2.429.909 1.548.909 3.693 0 2.316-1.15 4.134-1.137 1.803-3.367 2.855-2.23 1.051-5.497 1.051zm6.151-5.028h5.014q2.571 0 3.75-.981 1.179-.993 1.179-2.642 0-1.207-.583-2.13-.582-.924-1.662-1.449-1.065-.526-2.542-.526h-5.156zm0-11.89h4.559q1.264 0 2.245-.44.993-.455 1.562-1.278.582-.825.582-1.975 0-1.576-1.122-2.542-1.107-.966-3.153-.966h-4.673zM952.049 457.909V487h-6.15v-23.253h-.171l-6.662 4.176v-5.454l7.202-4.56zm18.321 29.73q-3.666-.014-6.307-1.804-2.628-1.79-4.048-5.184-1.407-3.395-1.392-8.168 0-4.758 1.406-8.111 1.42-3.353 4.048-5.099 2.642-1.762 6.293-1.762 3.65 0 6.278 1.762 2.642 1.761 4.063 5.113 1.42 3.339 1.406 8.097 0 4.787-1.421 8.182-1.406 3.395-4.034 5.184t-6.292 1.79m0-5.099q2.5 0 3.991-2.514 1.491-2.515 1.477-7.543 0-3.31-.681-5.511-.668-2.202-1.904-3.31-1.221-1.108-2.883-1.108-2.486 0-3.978 2.486t-1.505 7.443q0 3.352.667 5.597.682 2.23 1.918 3.352a4.2 4.2 0 0 0 2.898 1.108m27.539 5.099q-3.665-.014-6.307-1.804-2.628-1.79-4.048-5.184-1.407-3.395-1.392-8.168 0-4.758 1.406-8.111 1.42-3.353 4.048-5.099 2.642-1.762 6.293-1.762c2.431 0 4.531.587 6.281 1.762 1.76 1.174 3.11 2.879 4.06 5.113q1.425 3.339 1.41 8.097c0 3.191-.48 5.919-1.42 8.182s-2.29 3.991-4.04 5.184-3.85 1.79-6.291 1.79m0-5.099c1.666 0 3.001-.838 3.991-2.514.99-1.677 1.49-4.191 1.48-7.543 0-2.206-.23-4.044-.68-5.511s-1.08-2.571-1.91-3.31q-1.219-1.108-2.881-1.108-2.486 0-3.978 2.486t-1.505 7.443q0 3.352.667 5.597.682 2.23 1.918 3.352a4.2 4.2 0 0 0 2.898 1.108m25.561 4.46v-29.091h6.15v12.827h.38l10.47-12.827h7.37l-10.79 13.026L1047.97 487h-7.36l-7.96-11.96-3.03 3.693V487zm27.58 0v-29.091h11.65c2.14 0 3.92.317 5.35.952 1.43.634 2.51 1.515 3.23 2.642.71 1.117 1.07 2.405 1.07 3.863 0 1.137-.22 2.136-.68 2.998a5.9 5.9 0 0 1-1.87 2.102 7.7 7.7 0 0 1-2.7 1.15v.285a6.5 6.5 0 0 1 3.11.937q1.47.867 2.37 2.429c.61 1.032.91 2.263.91 3.693 0 1.544-.38 2.922-1.15 4.134-.76 1.202-1.88 2.154-3.37 2.855-1.48.701-3.32 1.051-5.49 1.051zm6.15-5.028h5.01q2.58 0 3.75-.981c.79-.662 1.18-1.543 1.18-2.642 0-.804-.19-1.515-.58-2.13-.39-.616-.94-1.099-1.66-1.449q-1.065-.526-2.55-.526h-5.15zm0-11.89h4.56c.84 0 1.59-.146 2.24-.44q1.005-.454 1.56-1.278c.39-.55.59-1.208.59-1.975 0-1.051-.38-1.898-1.12-2.542s-1.79-.966-3.16-.966h-4.67zM1224.85 809v-4.432l10.36-9.588c.88-.852 1.61-1.619 2.21-2.301q.915-1.023 1.38-2.003c.31-.663.47-1.378.47-2.145 0-.852-.2-1.586-.58-2.201a3.8 3.8 0 0 0-1.6-1.435q-1.005-.511-2.28-.511c-.89 0-1.67.179-2.33.539a3.75 3.75 0 0 0-1.54 1.549q-.54 1.008-.54 2.4h-5.83q0-2.855 1.29-4.957c.86-1.402 2.07-2.486 3.62-3.253q2.325-1.15 5.37-1.151c2.08 0 3.9.37 5.44 1.108 1.55.729 2.76 1.743 3.62 3.04s1.3 2.784 1.3 4.46q0 1.648-.66 3.253c-.42 1.07-1.19 2.259-2.29 3.566-1.09 1.297-2.64 2.855-4.64 4.673l-4.25 4.162v.199h12.22V809zm36.6.639c-2.44-.009-4.54-.611-6.31-1.804-1.75-1.193-3.1-2.921-4.04-5.184s-1.4-4.986-1.4-8.168q0-4.758 1.41-8.111 1.425-3.353 4.05-5.099c1.76-1.175 3.86-1.762 6.29-1.762 2.44 0 4.53.587 6.28 1.762 1.76 1.174 3.12 2.879 4.06 5.113q1.425 3.339 1.41 8.097c0 3.191-.47 5.919-1.42 8.182-.94 2.263-2.28 3.991-4.04 5.184-1.75 1.194-3.85 1.79-6.29 1.79m0-5.099q2.505 0 3.99-2.514c1-1.677 1.49-4.191 1.48-7.543 0-2.206-.23-4.044-.68-5.511s-1.08-2.571-1.9-3.31a4.17 4.17 0 0 0-2.89-1.108c-1.66 0-2.98.829-3.98 2.486q-1.485 2.486-1.5 7.443c0 2.235.22 4.1.67 5.597.45 1.486 1.09 2.604 1.91 3.352.83.738 1.79 1.108 2.9 1.108m25.56 4.46v-29.091h6.15v12.827h.39l10.47-12.827h7.37l-10.8 13.026L1311.52 809h-7.36l-7.97-11.96-3.03 3.693V809zm27.58 0v-29.091h11.65c2.14 0 3.92.317 5.35.952 1.43.634 2.51 1.515 3.23 2.642q1.08 1.676 1.08 3.863c0 1.137-.23 2.136-.68 2.998a5.9 5.9 0 0 1-1.88 2.102 7.7 7.7 0 0 1-2.7 1.15v.285c1.11.047 2.15.359 3.11.937q1.47.866 2.37 2.429c.61 1.032.91 2.263.91 3.693 0 1.544-.38 2.922-1.15 4.134-.75 1.202-1.88 2.154-3.36 2.855-1.49.701-3.32 1.051-5.5 1.051zm6.15-5.028h5.02q2.565 0 3.75-.981 1.17-.993 1.17-2.642c0-.804-.19-1.515-.58-2.13-.39-.616-.94-1.099-1.66-1.449-.71-.35-1.56-.526-2.54-.526h-5.16zm0-11.89h4.56q1.26 0 2.25-.44.99-.455 1.56-1.278c.39-.55.58-1.208.58-1.975 0-1.051-.37-1.898-1.12-2.542-.74-.644-1.79-.966-3.16-.966h-4.67zM142.337 144v-29.091h11.477q3.31 0 5.639 1.264 2.33 1.251 3.552 3.48 1.235 2.216 1.235 5.114t-1.25 5.114-3.622 3.451q-2.358 1.236-5.71 1.236h-7.315v-4.929h6.321q1.775 0 2.926-.611 1.164-.624 1.733-1.718.582-1.109.582-2.543 0-1.45-.582-2.528-.569-1.095-1.733-1.691-1.165-.61-2.955-.61h-4.147V144zm38.384-29.091V144h-6.15v-23.253h-.171l-6.662 4.176v-5.454l7.202-4.56zm10.508 25.71a3.32 3.32 0 0 1-2.415-.994q-.994-.995-.994-2.415 0-1.392.994-2.386a3.32 3.32 0 0 1 2.415-.994q1.364 0 2.386.994t1.023 2.386q0 .938-.483 1.719a3.7 3.7 0 0 1-1.236 1.236 3.25 3.25 0 0 1-1.69.454m0-14.275q-1.406 0-2.415-.995-.994-.993-.994-2.414 0-1.392.994-2.373 1.01-.993 2.415-.994 1.364 0 2.386.994 1.023.981 1.023 2.373 0 .951-.483 1.733a3.54 3.54 0 0 1-1.236 1.221 3.25 3.25 0 0 1-1.69.455m-68.047 66.054q-3.01 0-5.369-1.108-2.344-1.108-3.722-3.054t-1.434-4.46h5.966q.099 1.69 1.42 2.741t3.139 1.051q1.449 0 2.557-.639a4.6 4.6 0 0 0 1.747-1.804q.639-1.165.639-2.67 0-1.535-.653-2.699a4.6 4.6 0 0 0-1.776-1.818q-1.136-.654-2.599-.668-1.278 0-2.486.525-1.193.526-1.861 1.435l-5.468-.98 1.377-15.341h17.785v5.029H119.73l-.752 7.286h.17q.767-1.079 2.315-1.789 1.55-.711 3.466-.711 2.628 0 4.688 1.236t3.253 3.395q1.192 2.145 1.179 4.943.014 2.941-1.364 5.228-1.364 2.272-3.821 3.579-2.443 1.293-5.682 1.293m26.563.241q-3.666-.014-6.307-1.804-2.628-1.79-4.048-5.184-1.407-3.395-1.392-8.168 0-4.758 1.406-8.111 1.42-3.353 4.048-5.099 2.642-1.762 6.293-1.762 3.65 0 6.278 1.762 2.642 1.761 4.063 5.113 1.42 3.339 1.406 8.097 0 4.787-1.421 8.182-1.406 3.395-4.034 5.184t-6.292 1.79m0-5.099q2.5 0 3.991-2.514 1.492-2.515 1.477-7.543 0-3.31-.681-5.511-.668-2.202-1.904-3.31-1.221-1.108-2.883-1.108-2.486 0-3.978 2.486t-1.505 7.443q0 3.352.667 5.597.682 2.23 1.918 3.352a4.2 4.2 0 0 0 2.898 1.108m25.561 4.46v-29.091h6.15v12.827h.384l10.469-12.827h7.372l-10.796 13.026L199.809 192h-7.358l-7.969-11.96-3.026 3.693V192zm27.578 0v-29.091h11.648q3.21 0 5.355.952 2.144.951 3.224 2.642 1.08 1.676 1.08 3.863 0 1.705-.682 2.998a5.9 5.9 0 0 1-1.875 2.102q-1.18.81-2.699 1.15v.285a6.5 6.5 0 0 1 3.111.937q1.463.867 2.372 2.429.909 1.548.909 3.693 0 2.316-1.151 4.134-1.135 1.803-3.366 2.855-2.23 1.051-5.497 1.051zm6.15-5.028h5.015q2.571 0 3.75-.981 1.179-.993 1.179-2.642 0-1.207-.583-2.13-.582-.924-1.662-1.449-1.065-.526-2.542-.526h-5.157zm0-11.89h4.56q1.264 0 2.244-.44.995-.454 1.563-1.278.582-.825.582-1.975 0-1.576-1.122-2.542-1.108-.966-3.153-.966h-4.674zM143.337 463v-29.091h11.477q3.31 0 5.639 1.264 2.33 1.251 3.552 3.48 1.235 2.216 1.235 5.114t-1.25 5.114-3.622 3.451q-2.358 1.236-5.71 1.236h-7.315v-4.929h6.321q1.775 0 2.926-.611 1.164-.624 1.733-1.718.582-1.109.582-2.543 0-1.45-.582-2.528-.569-1.095-1.733-1.691-1.165-.61-2.955-.61h-4.147V463zm38.384-29.091V463h-6.15v-23.253h-.171l-6.662 4.176v-5.454l7.202-4.56zm10.508 25.71a3.32 3.32 0 0 1-2.415-.994q-.994-.995-.994-2.415 0-1.392.994-2.386a3.32 3.32 0 0 1 2.415-.994q1.364 0 2.386.994t1.023 2.386q0 .937-.483 1.719a3.7 3.7 0 0 1-1.236 1.236 3.25 3.25 0 0 1-1.69.454m0-14.275q-1.406 0-2.415-.995-.994-.993-.994-2.414 0-1.392.994-2.373 1.01-.994 2.415-.994 1.364 0 2.386.994 1.023.981 1.023 2.373 0 .951-.483 1.733a3.54 3.54 0 0 1-1.236 1.221 3.25 3.25 0 0 1-1.69.455m-68.047 66.054q-3.01 0-5.369-1.108-2.344-1.108-3.722-3.054-1.378-1.947-1.434-4.46h5.966q.099 1.69 1.42 2.741t3.139 1.051q1.449 0 2.557-.639a4.6 4.6 0 0 0 1.747-1.804q.639-1.165.639-2.67 0-1.535-.653-2.699a4.6 4.6 0 0 0-1.776-1.818q-1.136-.654-2.599-.668-1.278 0-2.486.525-1.193.526-1.861 1.435l-5.468-.98 1.377-15.341h17.785v5.029H120.73l-.752 7.286h.17q.767-1.079 2.315-1.789 1.55-.711 3.466-.711 2.628 0 4.688 1.236t3.253 3.395q1.192 2.145 1.179 4.943.014 2.941-1.364 5.228-1.364 2.273-3.821 3.579-2.443 1.293-5.682 1.293m26.563.241q-3.666-.014-6.307-1.804-2.628-1.79-4.048-5.184-1.407-3.395-1.392-8.168 0-4.758 1.406-8.111 1.42-3.353 4.048-5.099 2.642-1.762 6.293-1.762 3.65 0 6.278 1.762 2.642 1.761 4.063 5.113 1.42 3.339 1.406 8.097 0 4.787-1.421 8.182-1.406 3.395-4.034 5.184t-6.292 1.79m0-5.099q2.5 0 3.991-2.514 1.492-2.515 1.477-7.543 0-3.31-.681-5.511-.668-2.202-1.904-3.31-1.221-1.108-2.883-1.108-2.486 0-3.978 2.486t-1.505 7.443q0 3.352.667 5.597.682 2.23 1.918 3.352a4.2 4.2 0 0 0 2.898 1.108m25.561 4.46v-29.091h6.15v12.827h.384l10.469-12.827h7.372l-10.796 13.026L200.809 511h-7.358l-7.969-11.96-3.026 3.693V511zm27.578 0v-29.091h11.648q3.21 0 5.355.952 2.144.951 3.224 2.642 1.08 1.676 1.08 3.863 0 1.705-.682 2.998a5.9 5.9 0 0 1-1.875 2.102q-1.18.81-2.699 1.15v.285a6.5 6.5 0 0 1 3.111.937q1.463.867 2.372 2.429.909 1.548.909 3.693 0 2.316-1.151 4.134-1.135 1.803-3.366 2.855-2.23 1.051-5.497 1.051zm6.15-5.028h5.015q2.571 0 3.75-.981 1.179-.993 1.179-2.642 0-1.207-.583-2.13-.582-.924-1.662-1.449-1.065-.526-2.542-.526h-5.157zm0-11.89h4.56q1.264 0 2.244-.44.995-.454 1.563-1.278.582-.825.582-1.975 0-1.576-1.122-2.542-1.108-.966-3.153-.966h-4.674zM143.337 782v-29.091h11.477q3.31 0 5.639 1.264 2.33 1.251 3.552 3.48 1.235 2.216 1.235 5.114t-1.25 5.114-3.622 3.451q-2.358 1.236-5.71 1.236h-7.315v-4.929h6.321q1.775 0 2.926-.611 1.164-.624 1.733-1.718.582-1.109.582-2.543 0-1.45-.582-2.528-.569-1.094-1.733-1.691-1.165-.61-2.955-.61h-4.147V782zm38.384-29.091V782h-6.15v-23.253h-.171l-6.662 4.176v-5.454l7.202-4.56zm10.508 25.71a3.32 3.32 0 0 1-2.415-.994q-.994-.995-.994-2.415 0-1.392.994-2.386a3.32 3.32 0 0 1 2.415-.994q1.364 0 2.386.994t1.023 2.386q0 .938-.483 1.719a3.7 3.7 0 0 1-1.236 1.236 3.25 3.25 0 0 1-1.69.454m0-14.275q-1.406 0-2.415-.995-.994-.993-.994-2.414 0-1.392.994-2.373 1.01-.994 2.415-.994 1.364 0 2.386.994 1.023.981 1.023 2.373 0 .951-.483 1.733a3.54 3.54 0 0 1-1.236 1.221 3.25 3.25 0 0 1-1.69.455m-68.047 66.054q-3.01 0-5.369-1.108-2.344-1.108-3.722-3.054-1.378-1.947-1.434-4.46h5.966q.099 1.69 1.42 2.741t3.139 1.051q1.449 0 2.557-.639a4.6 4.6 0 0 0 1.747-1.804q.639-1.166.639-2.67 0-1.535-.653-2.699a4.6 4.6 0 0 0-1.776-1.818q-1.136-.654-2.599-.668-1.278 0-2.486.525-1.193.526-1.861 1.435l-5.468-.98 1.377-15.341h17.785v5.029H120.73l-.752 7.286h.17q.767-1.079 2.315-1.789 1.55-.711 3.466-.711 2.628 0 4.688 1.236t3.253 3.395q1.192 2.145 1.179 4.943.014 2.941-1.364 5.228-1.364 2.272-3.821 3.579-2.443 1.293-5.682 1.293m26.563.241q-3.666-.014-6.307-1.804-2.628-1.79-4.048-5.184-1.407-3.395-1.392-8.168 0-4.758 1.406-8.111 1.42-3.353 4.048-5.099 2.642-1.762 6.293-1.762 3.65 0 6.278 1.762 2.642 1.761 4.063 5.113 1.42 3.339 1.406 8.097 0 4.787-1.421 8.182-1.406 3.395-4.034 5.184t-6.292 1.79m0-5.099q2.5 0 3.991-2.514 1.492-2.515 1.477-7.543 0-3.31-.681-5.511-.668-2.202-1.904-3.31-1.221-1.108-2.883-1.108-2.486 0-3.978 2.486t-1.505 7.443q0 3.352.667 5.597.682 2.23 1.918 3.352a4.2 4.2 0 0 0 2.898 1.108m25.561 4.46v-29.091h6.15v12.827h.384l10.469-12.827h7.372l-10.796 13.026L200.809 830h-7.358l-7.969-11.96-3.026 3.693V830zm27.578 0v-29.091h11.648q3.21 0 5.355.952 2.144.951 3.224 2.642 1.08 1.676 1.08 3.863 0 1.705-.682 2.998a5.9 5.9 0 0 1-1.875 2.102q-1.18.81-2.699 1.15v.285a6.5 6.5 0 0 1 3.111.937q1.463.866 2.372 2.429.909 1.548.909 3.693 0 2.316-1.151 4.134-1.135 1.803-3.366 2.855-2.23 1.051-5.497 1.051zm6.15-5.028h5.015q2.571 0 3.75-.981 1.179-.993 1.179-2.642 0-1.207-.583-2.13-.582-.924-1.662-1.449-1.065-.526-2.542-.526h-5.157zm0-11.89h4.56q1.264 0 2.244-.44.995-.455 1.563-1.278.582-.825.582-1.975 0-1.576-1.122-2.542-1.108-.966-3.153-.966h-4.674zM473.525 782v-29.091h11.477q3.31 0 5.639 1.264 2.33 1.251 3.551 3.48 1.236 2.216 1.236 5.114t-1.25 5.114-3.622 3.451q-2.358 1.236-5.71 1.236h-7.316v-4.929h6.321q1.776 0 2.926-.611 1.166-.624 1.733-1.718.583-1.109.583-2.543 0-1.45-.583-2.528-.567-1.094-1.733-1.691-1.164-.61-2.954-.61h-4.148V782zm25.727 0v-4.432l10.356-9.588a39 39 0 0 0 2.216-2.301q.909-1.023 1.377-2.003a4.96 4.96 0 0 0 .469-2.145q0-1.278-.582-2.201a3.83 3.83 0 0 0-1.591-1.435q-1.01-.511-2.287-.511-1.335 0-2.33.539a3.7 3.7 0 0 0-1.534 1.549q-.54 1.008-.54 2.4h-5.838q0-2.855 1.293-4.957 1.293-2.103 3.622-3.253 2.33-1.15 5.369-1.151 3.126 0 5.441 1.108 2.33 1.094 3.622 3.04 1.293 1.946 1.293 4.46a8.6 8.6 0 0 1-.654 3.253q-.639 1.605-2.287 3.566-1.647 1.946-4.645 4.673l-4.247 4.162v.199h12.216V782zm28.79-3.381a3.32 3.32 0 0 1-2.415-.994q-.995-.995-.995-2.415 0-1.392.995-2.386a3.32 3.32 0 0 1 2.415-.994q1.363 0 2.386.994t1.023 2.386q0 .938-.483 1.719a3.7 3.7 0 0 1-1.236 1.236 3.25 3.25 0 0 1-1.69.454m0-14.275a3.32 3.32 0 0 1-2.415-.995q-.995-.993-.995-2.414 0-1.392.995-2.373a3.32 3.32 0 0 1 2.415-.994q1.363 0 2.386.994 1.023.981 1.023 2.373 0 .951-.483 1.733a3.56 3.56 0 0 1-1.236 1.221 3.25 3.25 0 0 1-1.69.455m-70.86 66.054q-3.01 0-5.369-1.108-2.344-1.108-3.722-3.054-1.378-1.947-1.434-4.46h5.966q.099 1.69 1.42 2.741t3.139 1.051q1.449 0 2.557-.639a4.6 4.6 0 0 0 1.747-1.804q.639-1.166.639-2.67 0-1.535-.653-2.699a4.6 4.6 0 0 0-1.776-1.818q-1.136-.654-2.599-.668-1.278 0-2.486.525-1.193.526-1.861 1.435l-5.468-.98 1.377-15.341h17.785v5.029H453.73l-.752 7.286h.17q.767-1.079 2.315-1.789 1.55-.711 3.466-.711 2.628 0 4.688 1.236t3.253 3.395q1.192 2.145 1.179 4.943.014 2.941-1.364 5.228-1.364 2.272-3.821 3.579-2.444 1.293-5.682 1.293m26.563.241q-3.666-.014-6.307-1.804-2.628-1.79-4.048-5.184-1.407-3.395-1.392-8.168 0-4.758 1.406-8.111 1.42-3.353 4.048-5.099 2.642-1.762 6.293-1.762 3.65 0 6.278 1.762 2.642 1.761 4.063 5.113 1.42 3.339 1.406 8.097 0 4.787-1.421 8.182-1.406 3.395-4.034 5.184t-6.292 1.79m0-5.099q2.5 0 3.991-2.514 1.492-2.515 1.477-7.543 0-3.31-.681-5.511-.668-2.202-1.904-3.31-1.221-1.108-2.883-1.108-2.486 0-3.978 2.486t-1.505 7.443q0 3.352.667 5.597.682 2.23 1.918 3.352a4.2 4.2 0 0 0 2.898 1.108m25.561 4.46v-29.091h6.15v12.827h.384l10.469-12.827h7.372l-10.796 13.026L533.809 830h-7.358l-7.969-11.96-3.026 3.693V830zm27.578 0v-29.091h11.648q3.21 0 5.355.952 2.144.951 3.224 2.642 1.08 1.676 1.08 3.863 0 1.705-.682 2.998a5.9 5.9 0 0 1-1.875 2.102q-1.18.81-2.699 1.15v.285a6.5 6.5 0 0 1 3.111.937q1.463.866 2.372 2.429.909 1.548.909 3.693 0 2.316-1.151 4.134-1.135 1.803-3.366 2.855-2.23 1.051-5.497 1.051zm6.15-5.028h5.015q2.571 0 3.75-.981 1.179-.993 1.179-2.642 0-1.207-.583-2.13-.582-.924-1.662-1.449-1.065-.526-2.542-.526h-5.157zm0-11.89h4.56q1.264 0 2.244-.44.995-.455 1.563-1.278.582-.825.582-1.975 0-1.576-1.122-2.542-1.108-.966-3.153-.966h-4.674zM473.525 463v-29.091h11.477q3.31 0 5.639 1.264 2.33 1.251 3.551 3.48 1.236 2.216 1.236 5.114t-1.25 5.114-3.622 3.451q-2.358 1.236-5.71 1.236h-7.316v-4.929h6.321q1.776 0 2.926-.611 1.166-.624 1.733-1.718.583-1.109.583-2.543 0-1.45-.583-2.528-.567-1.095-1.733-1.691-1.164-.61-2.954-.61h-4.148V463zm25.727 0v-4.432l10.356-9.588a39 39 0 0 0 2.216-2.301q.909-1.022 1.377-2.003a4.96 4.96 0 0 0 .469-2.145q0-1.278-.582-2.201a3.83 3.83 0 0 0-1.591-1.435q-1.01-.511-2.287-.511-1.335 0-2.33.539a3.7 3.7 0 0 0-1.534 1.549q-.54 1.008-.54 2.4h-5.838q0-2.855 1.293-4.957 1.293-2.103 3.622-3.253 2.33-1.15 5.369-1.151 3.126 0 5.441 1.108 2.33 1.094 3.622 3.04 1.293 1.946 1.293 4.46a8.6 8.6 0 0 1-.654 3.253q-.639 1.605-2.287 3.566-1.647 1.946-4.645 4.673l-4.247 4.162v.199h12.216V463zm28.79-3.381a3.32 3.32 0 0 1-2.415-.994q-.995-.995-.995-2.415 0-1.392.995-2.386a3.32 3.32 0 0 1 2.415-.994q1.363 0 2.386.994t1.023 2.386q0 .937-.483 1.719a3.7 3.7 0 0 1-1.236 1.236 3.25 3.25 0 0 1-1.69.454m0-14.275a3.32 3.32 0 0 1-2.415-.995q-.995-.993-.995-2.414 0-1.392.995-2.373a3.32 3.32 0 0 1 2.415-.994q1.363 0 2.386.994 1.023.981 1.023 2.373 0 .951-.483 1.733a3.56 3.56 0 0 1-1.236 1.221 3.25 3.25 0 0 1-1.69.455m-70.86 66.054q-3.01 0-5.369-1.108-2.344-1.108-3.722-3.054-1.378-1.947-1.434-4.46h5.966q.099 1.69 1.42 2.741t3.139 1.051q1.449 0 2.557-.639a4.6 4.6 0 0 0 1.747-1.804q.639-1.165.639-2.67 0-1.535-.653-2.699a4.6 4.6 0 0 0-1.776-1.818q-1.136-.654-2.599-.668-1.278 0-2.486.525-1.193.526-1.861 1.435l-5.468-.98 1.377-15.341h17.785v5.029H453.73l-.752 7.286h.17q.767-1.079 2.315-1.789 1.55-.711 3.466-.711 2.628 0 4.688 1.236t3.253 3.395q1.192 2.145 1.179 4.943.014 2.941-1.364 5.228-1.364 2.273-3.821 3.579-2.444 1.293-5.682 1.293m26.563.241q-3.666-.014-6.307-1.804-2.628-1.79-4.048-5.184-1.407-3.395-1.392-8.168 0-4.758 1.406-8.111 1.42-3.353 4.048-5.099 2.642-1.762 6.293-1.762 3.65 0 6.278 1.762 2.642 1.761 4.063 5.113 1.42 3.339 1.406 8.097 0 4.787-1.421 8.182-1.406 3.395-4.034 5.184t-6.292 1.79m0-5.099q2.5 0 3.991-2.514 1.492-2.515 1.477-7.543 0-3.31-.681-5.511-.668-2.202-1.904-3.31-1.221-1.108-2.883-1.108-2.486 0-3.978 2.486t-1.505 7.443q0 3.352.667 5.597.682 2.23 1.918 3.352a4.2 4.2 0 0 0 2.898 1.108m25.561 4.46v-29.091h6.15v12.827h.384l10.469-12.827h7.372l-10.796 13.026L533.809 511h-7.358l-7.969-11.96-3.026 3.693V511zm27.578 0v-29.091h11.648q3.21 0 5.355.952 2.144.951 3.224 2.642 1.08 1.676 1.08 3.863 0 1.705-.682 2.998a5.9 5.9 0 0 1-1.875 2.102q-1.18.81-2.699 1.15v.285a6.5 6.5 0 0 1 3.111.937q1.463.867 2.372 2.429.909 1.548.909 3.693 0 2.316-1.151 4.134-1.135 1.803-3.366 2.855-2.23 1.051-5.497 1.051zm6.15-5.028h5.015q2.571 0 3.75-.981 1.179-.993 1.179-2.642 0-1.207-.583-2.13-.582-.924-1.662-1.449-1.065-.526-2.542-.526h-5.157zm0-11.89h4.56q1.264 0 2.244-.44.995-.454 1.563-1.278.582-.825.582-1.975 0-1.576-1.122-2.542-1.108-.966-3.153-.966h-4.674zM906.439 782v-29.091h11.477q3.31 0 5.639 1.264 2.33 1.251 3.551 3.48 1.236 2.216 1.236 5.114t-1.25 5.114-3.622 3.451q-2.359 1.236-5.71 1.236h-7.316v-4.929h6.321q1.776 0 2.926-.611 1.166-.624 1.733-1.718.583-1.109.583-2.543 0-1.45-.583-2.528-.567-1.094-1.733-1.691-1.164-.61-2.954-.61h-4.148V782zm36.48.398q-3.181 0-5.667-1.094-2.472-1.108-3.906-3.04-1.42-1.946-1.464-4.488h6.194q.057 1.065.696 1.875.653.795 1.733 1.235 1.079.441 2.429.441 1.406 0 2.485-.497 1.08-.498 1.691-1.378.61-.881.611-2.032 0-1.164-.654-2.059-.64-.91-1.846-1.421-1.194-.511-2.841-.511h-2.713v-4.517h2.713q1.392 0 2.457-.483 1.08-.483 1.676-1.335.597-.867.597-2.017 0-1.094-.526-1.918a3.47 3.47 0 0 0-1.449-1.307q-.923-.468-2.159-.468-1.25 0-2.287.454-1.037.44-1.662 1.264t-.667 1.932h-5.895q.042-2.514 1.435-4.432 1.392-1.917 3.75-2.997 2.371-1.094 5.355-1.094 3.01 0 5.27 1.094 2.258 1.094 3.508 2.955 1.264 1.846 1.25 4.147.014 2.443-1.52 4.077-1.52 1.633-3.963 2.074v.227q3.21.412 4.886 2.23 1.69 1.805 1.677 4.517.014 2.487-1.435 4.418-1.436 1.932-3.963 3.04-2.529 1.107-5.796 1.108m19.208-3.779a3.32 3.32 0 0 1-2.414-.994q-.995-.995-.995-2.415 0-1.392.995-2.386a3.32 3.32 0 0 1 2.414-.994q1.365 0 2.387.994t1.023 2.386q0 .938-.483 1.719a3.7 3.7 0 0 1-1.236 1.236 3.26 3.26 0 0 1-1.691.454m0-14.275a3.32 3.32 0 0 1-2.414-.995q-.995-.993-.995-2.414 0-1.392.995-2.373a3.32 3.32 0 0 1 2.414-.994q1.365 0 2.387.994 1.023.981 1.023 2.373 0 .951-.483 1.733a3.56 3.56 0 0 1-1.236 1.221 3.26 3.26 0 0 1-1.691.455m-71.55 66.054q-3.28 0-5.838-1.066-2.542-1.078-3.991-2.94a6.7 6.7 0 0 1-1.449-4.219q0-1.818.824-3.338a7.4 7.4 0 0 1 2.273-2.542 7.5 7.5 0 0 1 3.21-1.307v-.199q-2.33-.469-3.779-2.259-1.448-1.803-1.448-4.19 0-2.259 1.321-4.02 1.32-1.776 3.622-2.784 2.315-1.023 5.255-1.023t5.242 1.023q2.315 1.023 3.636 2.798 1.322 1.762 1.335 4.006-.013 2.4-1.477 4.19-1.462 1.79-3.75 2.259v.199a7.4 7.4 0 0 1 3.168 1.307 7.4 7.4 0 0 1 2.273 2.542 6.8 6.8 0 0 1 .866 3.338 6.75 6.75 0 0 1-1.463 4.219q-1.449 1.861-4.006 2.94-2.542 1.066-5.824 1.066m0-4.517q1.464 0 2.557-.526 1.094-.54 1.705-1.477.625-.952.625-2.188 0-1.264-.639-2.23a4.4 4.4 0 0 0-1.733-1.534q-1.095-.568-2.515-.568-1.406 0-2.514.568a4.4 4.4 0 0 0-1.747 1.534q-.625.966-.625 2.23 0 1.236.611 2.188.61.937 1.719 1.477 1.108.526 2.556.526m0-12.997q1.222 0 2.174-.498a3.74 3.74 0 0 0 1.491-1.377q.54-.882.54-2.032 0-1.136-.54-1.988a3.7 3.7 0 0 0-1.477-1.35q-.937-.497-2.188-.497-1.235 0-2.187.497a3.7 3.7 0 0 0-1.492 1.35q-.525.852-.525 1.988 0 1.15.54 2.032a3.74 3.74 0 0 0 1.491 1.377q.952.498 2.173.498m27 17.755q-3.665-.014-6.307-1.804-2.628-1.79-4.048-5.184-1.407-3.395-1.392-8.168 0-4.758 1.406-8.111 1.42-3.353 4.048-5.099 2.642-1.762 6.293-1.762 3.65 0 6.278 1.762 2.642 1.761 4.063 5.113 1.42 3.339 1.406 8.097 0 4.787-1.421 8.182-1.406 3.395-4.034 5.184t-6.292 1.79m0-5.099q2.5 0 3.991-2.514 1.492-2.515 1.477-7.543 0-3.31-.681-5.511-.668-2.202-1.904-3.31-1.221-1.108-2.883-1.108-2.486 0-3.978 2.486t-1.505 7.443q0 3.352.667 5.597.682 2.23 1.918 3.352a4.2 4.2 0 0 0 2.898 1.108m25.561 4.46v-29.091h6.15v12.827h.384l10.469-12.827h7.372l-10.796 13.026L967.641 830h-7.358l-7.969-11.96-3.026 3.693V830zm27.578 0v-29.091h11.648q3.21 0 5.355.952 2.144.951 3.224 2.642 1.08 1.676 1.08 3.863 0 1.705-.682 2.998a5.9 5.9 0 0 1-1.875 2.102q-1.18.81-2.699 1.15v.285a6.5 6.5 0 0 1 3.111.937q1.463.866 2.372 2.429.909 1.548.909 3.693 0 2.316-1.15 4.134-1.137 1.803-3.367 2.855-2.23 1.051-5.497 1.051zm6.15-5.028h5.015q2.571 0 3.75-.981 1.179-.993 1.179-2.642 0-1.207-.583-2.13-.582-.924-1.662-1.449-1.065-.526-2.542-.526h-5.157zm0-11.89h4.56q1.264 0 2.244-.44.994-.455 1.563-1.278.582-.825.582-1.975 0-1.576-1.122-2.542-1.108-.966-3.153-.966h-4.674zM593.366 9.91h4.205l9.886 24.147h.341l9.887-24.148h4.204V39h-3.295V16.898h-.284L609.219 39h-3.182l-9.091-22.102h-.284V39h-3.296zm44.28 29.545q-3.154 0-5.441-1.392-2.272-1.407-3.508-3.921-1.222-2.529-1.222-5.88 0-3.353 1.222-5.91 1.236-2.571 3.437-4.005 2.216-1.45 5.171-1.45 1.704 0 3.366.569 1.662.568 3.026 1.846 1.363 1.264 2.173 3.353.81 2.088.81 5.142v1.42h-16.818V26.33h13.409q0-1.846-.739-3.295a5.56 5.56 0 0 0-2.074-2.287q-1.335-.838-3.153-.838-2.004 0-3.466.994a6.53 6.53 0 0 0-2.23 2.557 7.5 7.5 0 0 0-.782 3.38v1.933q0 2.472.853 4.19.866 1.704 2.4 2.6 1.534.88 3.566.88 1.32 0 2.386-.37a5.1 5.1 0 0 0 1.861-1.136q.781-.766 1.207-1.903l3.239.91a7.2 7.2 0 0 1-1.719 2.897q-1.207 1.236-2.983 1.932-1.776.681-3.991.681M651.779 39V17.182h3.239v3.409h.284q.681-1.748 2.202-2.713 1.52-.98 3.65-.98 2.16 0 3.594.98 1.45.966 2.258 2.713h.228q.837-1.69 2.514-2.685 1.676-1.008 4.02-1.008 2.926 0 4.787 1.832 1.86 1.818 1.86 5.668V39h-3.352V24.398q0-2.414-1.321-3.452t-3.111-1.037q-2.3 0-3.565 1.392-1.264 1.378-1.264 3.495V39h-3.409V24.057q0-1.86-1.208-2.997-1.207-1.15-3.11-1.15-1.308 0-2.444.695-1.122.696-1.818 1.932-.681 1.221-.682 2.827V39zm43.629.455q-2.954 0-5.184-1.407-2.217-1.406-3.466-3.934-1.236-2.529-1.236-5.91 0-3.408 1.236-5.951 1.25-2.543 3.466-3.949 2.23-1.406 5.184-1.406t5.171 1.406q2.23 1.407 3.466 3.949 1.25 2.543 1.25 5.951 0 3.381-1.25 5.91-1.236 2.528-3.466 3.934-2.216 1.407-5.171 1.407m0-3.012q2.245 0 3.694-1.15t2.144-3.026.696-4.063-.696-4.076-2.144-3.054q-1.449-1.165-3.694-1.165t-3.693 1.165-2.145 3.054-.696 4.076.696 4.063 2.145 3.026 3.693 1.15M710.412 39V17.182h3.239v3.295h.227q.596-1.62 2.159-2.628t3.523-1.008q.37 0 .923.014.554.015.838.043v3.409a10 10 0 0 0-.781-.128 7.7 7.7 0 0 0-1.264-.1q-1.592 0-2.841.668a5.04 5.04 0 0 0-1.961 1.818q-.71 1.15-.71 2.628V39zm17.706 8.182a7.4 7.4 0 0 1-1.52-.142q-.668-.127-.923-.256l.852-2.954q1.221.312 2.159.227t1.662-.838q.738-.74 1.349-2.4l.625-1.705-8.068-21.932h3.637l6.022 17.386h.228l6.022-17.386h3.637l-9.262 25q-.624 1.69-1.548 2.798-.923 1.122-2.145 1.662-1.207.54-2.727.54M594.366 328.909h4.205l9.886 24.148h.341l9.887-24.148h4.204V358h-3.295v-22.102h-.284L610.219 358h-3.182l-9.091-22.102h-.284V358h-3.296zm44.28 29.546q-3.154 0-5.441-1.393-2.272-1.406-3.508-3.92-1.222-2.529-1.222-5.881 0-3.351 1.222-5.909 1.236-2.571 3.437-4.005 2.216-1.449 5.171-1.449 1.704 0 3.366.568t3.026 1.846q1.363 1.265 2.173 3.353t.81 5.142v1.42h-16.818v-2.897h13.409q0-1.848-.739-3.296a5.57 5.57 0 0 0-2.074-2.287q-1.335-.838-3.153-.838-2.004 0-3.466.994a6.54 6.54 0 0 0-2.23 2.557 7.5 7.5 0 0 0-.782 3.381v1.932q0 2.47.853 4.19.866 1.704 2.4 2.599 1.534.881 3.566.881 1.32 0 2.386-.369a5.1 5.1 0 0 0 1.861-1.136q.781-.767 1.207-1.904l3.239.909a7.2 7.2 0 0 1-1.719 2.898q-1.207 1.236-2.983 1.932-1.776.682-3.991.682m14.133-.455v-21.818h3.239v3.409h.284q.681-1.747 2.202-2.713 1.52-.98 3.65-.98 2.16 0 3.594.98 1.45.966 2.258 2.713h.228q.837-1.69 2.514-2.685 1.676-1.008 4.02-1.008 2.926 0 4.787 1.832 1.86 1.818 1.86 5.668V358h-3.352v-14.602q0-2.415-1.321-3.452t-3.111-1.037q-2.3 0-3.565 1.392-1.264 1.378-1.264 3.494V358h-3.409v-14.943q0-1.861-1.208-2.997-1.207-1.15-3.11-1.151-1.308 0-2.444.696-1.122.696-1.818 1.932-.681 1.221-.682 2.827V358zm43.629.455q-2.954 0-5.184-1.407-2.217-1.406-3.466-3.934-1.236-2.53-1.236-5.909 0-3.41 1.236-5.952 1.25-2.543 3.466-3.949 2.23-1.406 5.184-1.406t5.171 1.406q2.23 1.406 3.466 3.949 1.25 2.543 1.25 5.952 0 3.38-1.25 5.909-1.236 2.528-3.466 3.934-2.216 1.407-5.171 1.407m0-3.012q2.245 0 3.694-1.15t2.144-3.026q.696-1.875.696-4.062t-.696-4.077-2.144-3.054q-1.449-1.165-3.694-1.165t-3.693 1.165q-1.449 1.164-2.145 3.054t-.696 4.077.696 4.062 2.145 3.026q1.449 1.15 3.693 1.15M711.412 358v-21.818h3.239v3.295h.227q.596-1.618 2.159-2.628 1.563-1.008 3.523-1.008.37 0 .923.014.554.015.838.043v3.409a10 10 0 0 0-.781-.128 8 8 0 0 0-1.264-.099q-1.592 0-2.841.667a5.04 5.04 0 0 0-1.961 1.818q-.71 1.15-.71 2.628V358zm17.706 8.182a7.4 7.4 0 0 1-1.52-.142q-.668-.128-.923-.256l.852-2.954q1.221.312 2.159.227t1.662-.838q.738-.74 1.349-2.401l.625-1.704-8.068-21.932h3.637l6.022 17.386h.228l6.022-17.386h3.637l-9.262 25q-.624 1.69-1.548 2.798-.923 1.122-2.145 1.662-1.207.54-2.727.54M594.366 647.909h4.205l9.886 24.148h.341l9.887-24.148h4.204V677h-3.295v-22.102h-.284L610.219 677h-3.182l-9.091-22.102h-.284V677h-3.296zm44.28 29.546q-3.154 0-5.441-1.393-2.272-1.406-3.508-3.92-1.222-2.529-1.222-5.881 0-3.351 1.222-5.909 1.236-2.571 3.437-4.005 2.216-1.449 5.171-1.449 1.704 0 3.366.568t3.026 1.846q1.363 1.265 2.173 3.353t.81 5.142v1.42h-16.818v-2.897h13.409q0-1.847-.739-3.296a5.57 5.57 0 0 0-2.074-2.287q-1.335-.838-3.153-.838-2.004 0-3.466.994a6.54 6.54 0 0 0-2.23 2.557 7.5 7.5 0 0 0-.782 3.381v1.932q0 2.47.853 4.19.866 1.705 2.4 2.599 1.534.881 3.566.881 1.32 0 2.386-.369a5.1 5.1 0 0 0 1.861-1.136q.781-.767 1.207-1.904l3.239.909a7.2 7.2 0 0 1-1.719 2.898q-1.207 1.236-2.983 1.932-1.776.682-3.991.682m14.133-.455v-21.818h3.239v3.409h.284q.681-1.747 2.202-2.713 1.52-.98 3.65-.98 2.16 0 3.594.98 1.45.966 2.258 2.713h.228q.837-1.69 2.514-2.685 1.676-1.008 4.02-1.008 2.926 0 4.787 1.832 1.86 1.818 1.86 5.668V677h-3.352v-14.602q0-2.415-1.321-3.452t-3.111-1.037q-2.3 0-3.565 1.392-1.264 1.378-1.264 3.494V677h-3.409v-14.943q0-1.861-1.208-2.997-1.207-1.15-3.11-1.151-1.308 0-2.444.696-1.122.696-1.818 1.932-.681 1.221-.682 2.827V677zm43.629.455q-2.954 0-5.184-1.407-2.217-1.406-3.466-3.934-1.236-2.53-1.236-5.909 0-3.41 1.236-5.952 1.25-2.543 3.466-3.949 2.23-1.407 5.184-1.406 2.955 0 5.171 1.406 2.23 1.406 3.466 3.949 1.25 2.543 1.25 5.952 0 3.38-1.25 5.909-1.236 2.528-3.466 3.934-2.216 1.407-5.171 1.407m0-3.012q2.245 0 3.694-1.15t2.144-3.026.696-4.062q0-2.188-.696-4.077-.696-1.89-2.144-3.054-1.449-1.165-3.694-1.165t-3.693 1.165-2.145 3.054-.696 4.077.696 4.062 2.145 3.026q1.449 1.15 3.693 1.15M711.412 677v-21.818h3.239v3.295h.227q.596-1.618 2.159-2.628 1.563-1.008 3.523-1.008.37 0 .923.014.554.015.838.043v3.409a10 10 0 0 0-.781-.128 8 8 0 0 0-1.264-.099q-1.592 0-2.841.667a5.04 5.04 0 0 0-1.961 1.818q-.71 1.15-.71 2.628V677zm17.706 8.182a7.4 7.4 0 0 1-1.52-.142q-.668-.128-.923-.256l.852-2.954q1.221.312 2.159.227t1.662-.838q.738-.74 1.349-2.401l.625-1.704-8.068-21.932h3.637l6.022 17.386h.228l6.022-17.386h3.637l-9.262 25q-.624 1.69-1.548 2.798-.923 1.122-2.145 1.662-1.207.54-2.727.54"/></svg>