<svg width="1299" height="817" viewBox="0 0 1299 817" fill="none" xmlns="http://www.w3.org/2000/svg">
<rect x="206" y="451" width="1090" height="142" rx="27" fill="url(#paint0_linear_111_216)" stroke="#DBDBDB" stroke-width="2"/>
<rect x="208" y="1" width="1090" height="142" rx="27" fill="url(#paint1_linear_111_216)" stroke="#DBDBDB" stroke-width="2"/>
<path d="M2.52841 87V57.9091H14.0057C16.2027 57.9091 18.0777 58.3021 19.6307 59.0881C21.1932 59.8646 22.3816 60.9678 23.196 62.3977C24.0199 63.8182 24.4318 65.4896 24.4318 67.4119C24.4318 69.3437 24.0152 71.0057 23.1818 72.3977C22.3485 73.7803 21.1411 74.8409 19.5597 75.5795C17.9877 76.3182 16.0843 76.6875 13.8494 76.6875H6.16477V71.7443H12.8551C14.0294 71.7443 15.0047 71.5833 15.7812 71.2614C16.5578 70.9394 17.1354 70.4564 17.5142 69.8125C17.9025 69.1686 18.0966 68.3684 18.0966 67.4119C18.0966 66.446 17.9025 65.6316 17.5142 64.9688C17.1354 64.3059 16.553 63.804 15.767 63.4631C14.9905 63.1127 14.0104 62.9375 12.8267 62.9375H8.67898V87H2.52841ZM18.2386 73.7614L25.4688 87H18.679L11.6051 73.7614H18.2386ZM33.7926 87H27.2017L37.2443 57.9091H45.1705L55.1989 87H48.608L41.321 64.5568H41.0938L33.7926 87ZM33.3807 75.5653H48.9489V80.3665H33.3807V75.5653ZM58.7003 57.9091H66.2855L74.2969 77.4545H74.6378L82.6491 57.9091H90.2344V87H84.2685V68.0653H84.027L76.4986 86.858H72.4361L64.9077 67.9943H64.6662V87H58.7003V57.9091ZM98.7251 83.6193C97.7876 83.6193 96.9827 83.2879 96.3104 82.625C95.6475 81.9621 95.3161 81.1572 95.3161 80.2102C95.3161 79.2822 95.6475 78.4867 96.3104 77.8239C96.9827 77.161 97.7876 76.8295 98.7251 76.8295C99.6342 76.8295 100.43 77.161 101.112 77.8239C101.793 78.4867 102.134 79.2822 102.134 80.2102C102.134 80.8352 101.973 81.4081 101.651 81.929C101.339 82.4403 100.927 82.8523 100.415 83.1648C99.9041 83.4678 99.3407 83.6193 98.7251 83.6193ZM98.7251 69.3438C97.7876 69.3438 96.9827 69.0123 96.3104 68.3494C95.6475 67.6866 95.3161 66.8816 95.3161 65.9347C95.3161 65.0066 95.6475 64.2159 96.3104 63.5625C96.9827 62.8996 97.7876 62.5682 98.7251 62.5682C99.6342 62.5682 100.43 62.8996 101.112 63.5625C101.793 64.2159 102.134 65.0066 102.134 65.9347C102.134 66.5691 101.973 67.1468 101.651 67.6676C101.339 68.179 100.927 68.5862 100.415 68.8892C99.9041 69.1922 99.3407 69.3438 98.7251 69.3438Z" fill="white"/>
<path d="M711.46 57.9091V87H705.309V63.7472H705.138L698.477 67.9233V62.4688L705.678 57.9091H711.46ZM729.538 87.3977C728.042 87.3883 726.598 87.1373 725.206 86.6449C723.823 86.1525 722.583 85.3523 721.484 84.2443C720.386 83.1364 719.515 81.6686 718.871 79.8409C718.236 78.0133 717.919 75.7689 717.919 73.108C717.929 70.6648 718.208 68.482 718.757 66.5597C719.316 64.6278 720.111 62.9896 721.143 61.6449C722.185 60.3002 723.43 59.2775 724.879 58.5767C726.328 57.8665 727.952 57.5114 729.751 57.5114C731.693 57.5114 733.407 57.8902 734.893 58.6477C736.38 59.3958 737.573 60.4138 738.473 61.7017C739.382 62.9896 739.931 64.4337 740.121 66.0341H734.055C733.819 65.0208 733.321 64.2254 732.564 63.6477C731.806 63.0701 730.869 62.7812 729.751 62.7812C727.857 62.7812 726.418 63.6051 725.433 65.2528C724.458 66.9006 723.961 69.1402 723.942 71.9716H724.141C724.576 71.1098 725.163 70.3759 725.902 69.7699C726.65 69.1544 727.498 68.6856 728.445 68.3636C729.401 68.0322 730.41 67.8665 731.47 67.8665C733.194 67.8665 734.728 68.2737 736.072 69.0881C737.417 69.893 738.478 71.0009 739.254 72.4119C740.031 73.8229 740.419 75.4375 740.419 77.2557C740.419 79.2254 739.96 80.9773 739.041 82.5114C738.132 84.0455 736.858 85.2481 735.22 86.1193C733.591 86.9811 731.697 87.4072 729.538 87.3977ZM729.51 82.5682C730.457 82.5682 731.304 82.3409 732.053 81.8864C732.801 81.4318 733.388 80.8163 733.814 80.0398C734.24 79.2633 734.453 78.392 734.453 77.4261C734.453 76.4602 734.24 75.5937 733.814 74.8267C733.397 74.0597 732.82 73.4489 732.081 72.9943C731.342 72.5398 730.5 72.3125 729.553 72.3125C728.842 72.3125 728.184 72.4451 727.578 72.7102C726.982 72.9754 726.456 73.3447 726.001 73.8182C725.556 74.2917 725.206 74.8409 724.95 75.4659C724.695 76.0814 724.567 76.7396 724.567 77.4403C724.567 78.3778 724.78 79.2348 725.206 80.0114C725.642 80.7879 726.229 81.4081 726.967 81.8722C727.715 82.3362 728.563 82.5682 729.51 82.5682ZM773.498 67.3125C773.299 66.6212 773.02 66.0104 772.66 65.4801C772.3 64.9403 771.86 64.4858 771.339 64.1165C770.827 63.7377 770.24 63.4489 769.577 63.25C768.924 63.0511 768.2 62.9517 767.404 62.9517C765.917 62.9517 764.611 63.321 763.484 64.0597C762.366 64.7983 761.495 65.8731 760.87 67.2841C760.245 68.6856 759.933 70.3996 759.933 72.4261C759.933 74.4527 760.24 76.1761 760.856 77.5966C761.471 79.017 762.343 80.1013 763.469 80.8494C764.596 81.5881 765.927 81.9574 767.461 81.9574C768.853 81.9574 770.041 81.7112 771.026 81.2188C772.021 80.7169 772.778 80.0114 773.299 79.1023C773.829 78.1932 774.094 77.1184 774.094 75.8778L775.344 76.0625H767.844V71.4318H780.018V75.0966C780.018 77.6534 779.478 79.8504 778.398 81.6875C777.319 83.5152 775.832 84.9261 773.938 85.9205C772.044 86.9053 769.876 87.3977 767.433 87.3977C764.705 87.3977 762.309 86.7964 760.245 85.5938C758.181 84.3816 756.571 82.6629 755.415 80.4375C754.27 78.2027 753.697 75.5511 753.697 72.483C753.697 70.125 754.038 68.0227 754.719 66.1761C755.411 64.3201 756.377 62.7481 757.617 61.4602C758.858 60.1723 760.302 59.1922 761.95 58.5199C763.597 57.8475 765.382 57.5114 767.305 57.5114C768.952 57.5114 770.487 57.7528 771.907 58.2358C773.327 58.7093 774.587 59.3816 775.685 60.2528C776.793 61.1241 777.698 62.161 778.398 63.3636C779.099 64.5568 779.549 65.8731 779.748 67.3125H773.498ZM784.638 87V57.9091H796.286C798.426 57.9091 800.211 58.2263 801.641 58.8608C803.071 59.4953 804.145 60.3759 804.865 61.5028C805.585 62.6203 805.945 63.9081 805.945 65.3665C805.945 66.5028 805.717 67.5019 805.263 68.3636C804.808 69.2159 804.183 69.9167 803.388 70.4659C802.602 71.0057 801.702 71.3892 800.689 71.6165V71.9006C801.797 71.9479 802.834 72.2604 803.8 72.8381C804.775 73.4157 805.566 74.2254 806.172 75.267C806.778 76.2992 807.081 77.5303 807.081 78.9602C807.081 80.5038 806.697 81.8816 805.93 83.0938C805.173 84.2964 804.051 85.2481 802.564 85.9489C801.077 86.6496 799.245 87 797.067 87H784.638ZM790.788 81.9716H795.803C797.517 81.9716 798.767 81.6449 799.553 80.9915C800.339 80.3286 800.732 79.4479 800.732 78.3494C800.732 77.5445 800.537 76.8343 800.149 76.2188C799.761 75.6032 799.207 75.1203 798.487 74.7699C797.777 74.4195 796.929 74.2443 795.945 74.2443H790.788V81.9716ZM790.788 70.0824H795.348C796.191 70.0824 796.939 69.9356 797.592 69.642C798.255 69.339 798.776 68.9129 799.155 68.3636C799.543 67.8144 799.737 67.1562 799.737 66.3892C799.737 65.3381 799.363 64.4905 798.615 63.8466C797.876 63.2027 796.825 62.8807 795.462 62.8807H790.788V70.0824Z" fill="white"/>
<path d="M18.3097 516.276C18.196 515.13 17.7083 514.24 16.8466 513.605C15.9848 512.971 14.8153 512.653 13.3381 512.653C12.3343 512.653 11.4867 512.795 10.7955 513.08C10.1042 513.354 9.57386 513.738 9.20455 514.23C8.8447 514.723 8.66477 515.281 8.66477 515.906C8.64583 516.427 8.75473 516.882 8.99148 517.27C9.23769 517.658 9.57386 517.994 10 518.278C10.4261 518.553 10.9186 518.795 11.4773 519.003C12.036 519.202 12.6326 519.372 13.267 519.514L15.8807 520.139C17.1496 520.423 18.3144 520.802 19.375 521.276C20.4356 521.749 21.3542 522.331 22.1307 523.023C22.9072 523.714 23.5085 524.528 23.9347 525.466C24.3703 526.403 24.5928 527.478 24.6023 528.69C24.5928 530.471 24.1383 532.014 23.2386 533.321C22.3485 534.618 21.0606 535.627 19.375 536.347C17.6989 537.057 15.6771 537.412 13.3097 537.412C10.9612 537.412 8.91572 537.052 7.1733 536.332C5.44034 535.613 4.08617 534.547 3.1108 533.136C2.14489 531.716 1.63826 529.959 1.59091 527.866H7.54261C7.6089 528.842 7.88826 529.656 8.38068 530.31C8.88258 530.954 9.55019 531.441 10.3835 531.773C11.2263 532.095 12.178 532.256 13.2386 532.256C14.2803 532.256 15.1847 532.104 15.9517 531.801C16.7282 531.498 17.3295 531.077 17.7557 530.537C18.1818 529.997 18.3949 529.377 18.3949 528.676C18.3949 528.023 18.2008 527.473 17.8125 527.028C17.4337 526.583 16.875 526.205 16.1364 525.892C15.4072 525.58 14.5123 525.295 13.4517 525.04L10.2841 524.244C7.83144 523.648 5.89489 522.715 4.47443 521.446C3.05398 520.177 2.34848 518.468 2.35795 516.318C2.34848 514.557 2.81723 513.018 3.7642 511.702C4.72064 510.385 6.0322 509.358 7.69886 508.619C9.36553 507.881 11.2595 507.511 13.3807 507.511C15.5398 507.511 17.4242 507.881 19.0341 508.619C20.6534 509.358 21.9129 510.385 22.8125 511.702C23.7121 513.018 24.1761 514.543 24.2045 516.276H18.3097ZM44.5206 516.276C44.407 515.13 43.9193 514.24 43.0575 513.605C42.1958 512.971 41.0263 512.653 39.549 512.653C38.5452 512.653 37.6977 512.795 37.0064 513.08C36.3151 513.354 35.7848 513.738 35.4155 514.23C35.0556 514.723 34.8757 515.281 34.8757 515.906C34.8568 516.427 34.9657 516.882 35.2024 517.27C35.4486 517.658 35.7848 517.994 36.2109 518.278C36.6371 518.553 37.1295 518.795 37.6882 519.003C38.2469 519.202 38.8435 519.372 39.478 519.514L42.0916 520.139C43.3606 520.423 44.5253 520.802 45.5859 521.276C46.6465 521.749 47.5651 522.331 48.3416 523.023C49.1181 523.714 49.7195 524.528 50.1456 525.466C50.5812 526.403 50.8037 527.478 50.8132 528.69C50.8037 530.471 50.3492 532.014 49.4496 533.321C48.5594 534.618 47.2715 535.627 45.5859 536.347C43.9098 537.057 41.888 537.412 39.5206 537.412C37.1721 537.412 35.1267 537.052 33.3842 536.332C31.6513 535.613 30.2971 534.547 29.3217 533.136C28.3558 531.716 27.8492 529.959 27.8018 527.866H33.7536C33.8198 528.842 34.0992 529.656 34.5916 530.31C35.0935 530.954 35.7611 531.441 36.5945 531.773C37.4373 532.095 38.389 532.256 39.4496 532.256C40.4912 532.256 41.3956 532.104 42.1626 531.801C42.9392 531.498 43.5405 531.077 43.9666 530.537C44.3928 529.997 44.6058 529.377 44.6058 528.676C44.6058 528.023 44.4117 527.473 44.0234 527.028C43.6446 526.583 43.0859 526.205 42.3473 525.892C41.6181 525.58 40.7232 525.295 39.6626 525.04L36.495 524.244C34.0424 523.648 32.1058 522.715 30.6854 521.446C29.2649 520.177 28.5594 518.468 28.5689 516.318C28.5594 514.557 29.0282 513.018 29.9751 511.702C30.9316 510.385 32.2431 509.358 33.9098 508.619C35.5765 507.881 37.4704 507.511 39.5916 507.511C41.7507 507.511 43.6352 507.881 45.245 508.619C46.8643 509.358 48.1238 510.385 49.0234 511.702C49.9231 513.018 50.3871 514.543 50.4155 516.276H44.5206ZM65.2628 537H54.9503V507.909H65.348C68.2741 507.909 70.7931 508.491 72.9048 509.656C75.0166 510.812 76.6406 512.473 77.777 514.642C78.9228 516.811 79.4957 519.405 79.4957 522.426C79.4957 525.456 78.9228 528.061 77.777 530.239C76.6406 532.417 75.0071 534.088 72.8764 535.253C70.7552 536.418 68.2173 537 65.2628 537ZM61.1009 531.73H65.0071C66.8253 531.73 68.3546 531.408 69.5952 530.764C70.8452 530.111 71.7827 529.102 72.4077 527.739C73.0421 526.366 73.3594 524.595 73.3594 522.426C73.3594 520.277 73.0421 518.52 72.4077 517.156C71.7827 515.793 70.8499 514.789 69.6094 514.145C68.3688 513.501 66.8395 513.179 65.0213 513.179H61.1009V531.73ZM87.4751 533.619C86.5376 533.619 85.7327 533.288 85.0604 532.625C84.3975 531.962 84.0661 531.157 84.0661 530.21C84.0661 529.282 84.3975 528.487 85.0604 527.824C85.7327 527.161 86.5376 526.83 87.4751 526.83C88.3842 526.83 89.1797 527.161 89.8615 527.824C90.5433 528.487 90.8842 529.282 90.8842 530.21C90.8842 530.835 90.7232 531.408 90.4013 531.929C90.0888 532.44 89.6768 532.852 89.1655 533.165C88.6541 533.468 88.0907 533.619 87.4751 533.619ZM87.4751 519.344C86.5376 519.344 85.7327 519.012 85.0604 518.349C84.3975 517.687 84.0661 516.882 84.0661 515.935C84.0661 515.007 84.3975 514.216 85.0604 513.562C85.7327 512.9 86.5376 512.568 87.4751 512.568C88.3842 512.568 89.1797 512.9 89.8615 513.562C90.5433 514.216 90.8842 515.007 90.8842 515.935C90.8842 516.569 90.7232 517.147 90.4013 517.668C90.0888 518.179 89.6768 518.586 89.1655 518.889C88.6541 519.192 88.0907 519.344 87.4751 519.344Z" fill="white"/>
<path d="M160.26 256.818C160.102 255.487 159.462 254.453 158.341 253.717C157.22 252.982 155.845 252.614 154.216 252.614C153.024 252.614 151.982 252.806 151.088 253.192C150.204 253.577 149.512 254.107 149.012 254.782C148.522 255.456 148.277 256.223 148.277 257.081C148.277 257.799 148.447 258.417 148.789 258.934C149.139 259.442 149.586 259.866 150.129 260.208C150.672 260.541 151.242 260.817 151.837 261.036C152.433 261.246 152.98 261.417 153.48 261.548L156.213 262.284C156.913 262.468 157.693 262.722 158.551 263.046C159.419 263.37 160.246 263.813 161.035 264.373C161.832 264.925 162.489 265.635 163.006 266.502C163.522 267.369 163.781 268.433 163.781 269.695C163.781 271.149 163.4 272.463 162.638 273.636C161.884 274.81 160.781 275.743 159.327 276.435C157.881 277.127 156.125 277.473 154.058 277.473C152.131 277.473 150.462 277.162 149.052 276.54C147.65 275.918 146.547 275.051 145.741 273.939C144.944 272.826 144.493 271.534 144.387 270.062H147.751C147.839 271.079 148.18 271.92 148.776 272.585C149.38 273.242 150.142 273.733 151.062 274.057C151.991 274.372 152.989 274.53 154.058 274.53C155.302 274.53 156.419 274.328 157.408 273.925C158.398 273.514 159.182 272.944 159.76 272.217C160.338 271.482 160.627 270.623 160.627 269.642C160.627 268.749 160.378 268.022 159.879 267.461C159.379 266.9 158.722 266.445 157.908 266.094C157.093 265.744 156.213 265.437 155.267 265.175L151.956 264.229C149.853 263.624 148.189 262.761 146.963 261.64C145.736 260.519 145.123 259.052 145.123 257.239C145.123 255.732 145.531 254.418 146.345 253.297C147.169 252.167 148.272 251.291 149.656 250.669C151.049 250.038 152.604 249.723 154.321 249.723C156.055 249.723 157.597 250.034 158.946 250.656C160.295 251.269 161.363 252.11 162.152 253.179C162.949 254.247 163.369 255.46 163.413 256.818H160.26ZM168.718 284.568V256.818H171.714V260.024H172.082C172.309 259.674 172.625 259.227 173.028 258.684C173.439 258.132 174.026 257.642 174.788 257.212C175.559 256.774 176.601 256.555 177.915 256.555C179.615 256.555 181.113 256.98 182.409 257.83C183.705 258.68 184.717 259.884 185.444 261.443C186.171 263.002 186.535 264.842 186.535 266.962C186.535 269.099 186.171 270.952 185.444 272.52C184.717 274.079 183.71 275.288 182.422 276.146C181.134 276.996 179.65 277.42 177.968 277.42C176.672 277.42 175.634 277.206 174.854 276.777C174.074 276.339 173.474 275.844 173.054 275.292C172.633 274.731 172.309 274.267 172.082 273.899H171.819V284.568H168.718ZM171.766 266.909C171.766 268.433 171.99 269.778 172.436 270.943C172.883 272.099 173.536 273.006 174.394 273.663C175.253 274.311 176.304 274.635 177.547 274.635C178.844 274.635 179.926 274.293 180.793 273.61C181.669 272.918 182.326 271.99 182.764 270.825C183.21 269.651 183.434 268.346 183.434 266.909C183.434 265.49 183.215 264.211 182.777 263.072C182.348 261.925 181.695 261.018 180.819 260.353C179.952 259.678 178.861 259.341 177.547 259.341C176.286 259.341 175.226 259.661 174.368 260.3C173.509 260.931 172.861 261.815 172.423 262.954C171.985 264.084 171.766 265.402 171.766 266.909ZM197.204 277.473C195.925 277.473 194.764 277.232 193.722 276.75C192.679 276.26 191.852 275.555 191.239 274.635C190.625 273.706 190.319 272.585 190.319 271.271C190.319 270.115 190.547 269.178 191.002 268.46C191.458 267.732 192.066 267.163 192.828 266.751C193.59 266.34 194.431 266.033 195.351 265.832C196.28 265.621 197.213 265.455 198.15 265.332C199.376 265.175 200.37 265.056 201.132 264.978C201.903 264.89 202.464 264.746 202.814 264.544C203.173 264.343 203.353 263.992 203.353 263.493V263.388C203.353 262.091 202.998 261.084 202.289 260.366C201.588 259.647 200.524 259.288 199.096 259.288C197.615 259.288 196.455 259.612 195.614 260.261C194.773 260.909 194.182 261.601 193.84 262.337L190.897 261.286C191.422 260.059 192.123 259.104 192.999 258.421C193.884 257.729 194.847 257.247 195.89 256.976C196.941 256.696 197.975 256.555 198.991 256.555C199.639 256.555 200.383 256.634 201.224 256.792C202.074 256.941 202.893 257.252 203.681 257.725C204.478 258.198 205.14 258.912 205.665 259.866C206.191 260.821 206.454 262.1 206.454 263.703V277H203.353V274.267H203.195C202.985 274.705 202.635 275.174 202.144 275.673C201.654 276.172 201.001 276.597 200.186 276.947C199.372 277.298 198.378 277.473 197.204 277.473ZM197.677 274.688C198.903 274.688 199.937 274.447 200.778 273.965C201.627 273.483 202.267 272.861 202.696 272.099C203.134 271.337 203.353 270.536 203.353 269.695V266.857C203.222 267.014 202.932 267.159 202.486 267.29C202.048 267.413 201.54 267.522 200.962 267.619C200.392 267.706 199.836 267.785 199.293 267.855C198.759 267.916 198.325 267.969 197.992 268.013C197.186 268.118 196.433 268.289 195.732 268.525C195.04 268.753 194.48 269.099 194.05 269.563C193.63 270.019 193.42 270.641 193.42 271.429C193.42 272.506 193.818 273.321 194.615 273.873C195.421 274.416 196.442 274.688 197.677 274.688ZM220.312 277.42C218.42 277.42 216.791 276.974 215.425 276.08C214.058 275.187 213.007 273.956 212.271 272.388C211.535 270.82 211.167 269.029 211.167 267.014C211.167 264.964 211.544 263.156 212.297 261.588C213.059 260.011 214.119 258.78 215.477 257.896C216.844 257.002 218.438 256.555 220.26 256.555C221.679 256.555 222.958 256.818 224.096 257.344C225.235 257.869 226.168 258.605 226.895 259.551C227.622 260.497 228.073 261.601 228.248 262.862H225.148C224.911 261.942 224.385 261.128 223.571 260.418C222.765 259.7 221.679 259.341 220.312 259.341C219.104 259.341 218.044 259.656 217.133 260.287C216.23 260.909 215.525 261.789 215.017 262.928C214.518 264.058 214.268 265.385 214.268 266.909C214.268 268.468 214.514 269.826 215.004 270.982C215.503 272.138 216.204 273.036 217.106 273.676C218.017 274.315 219.086 274.635 220.312 274.635C221.118 274.635 221.85 274.495 222.507 274.214C223.164 273.934 223.72 273.531 224.175 273.006C224.631 272.48 224.955 271.849 225.148 271.114H228.248C228.073 272.305 227.64 273.378 226.948 274.333C226.264 275.279 225.358 276.032 224.228 276.593C223.107 277.145 221.801 277.42 220.312 277.42ZM241.243 277.42C239.298 277.42 237.621 276.991 236.211 276.133C234.809 275.266 233.727 274.057 232.965 272.506C232.212 270.947 231.835 269.134 231.835 267.067C231.835 265 232.212 263.178 232.965 261.601C233.727 260.015 234.787 258.78 236.145 257.896C237.512 257.002 239.106 256.555 240.928 256.555C241.979 256.555 243.017 256.731 244.042 257.081C245.067 257.431 245.999 258.001 246.84 258.789C247.681 259.569 248.351 260.602 248.851 261.89C249.35 263.178 249.6 264.763 249.6 266.646V267.96H234.043V265.28H246.446C246.446 264.141 246.218 263.125 245.763 262.232C245.316 261.338 244.677 260.633 243.845 260.116C243.021 259.599 242.049 259.341 240.928 259.341C239.693 259.341 238.624 259.647 237.722 260.261C236.828 260.865 236.141 261.653 235.659 262.626C235.177 263.598 234.936 264.64 234.936 265.753V267.54C234.936 269.064 235.199 270.356 235.725 271.416C236.259 272.467 236.999 273.268 237.945 273.82C238.891 274.363 239.99 274.635 241.243 274.635C242.058 274.635 242.794 274.521 243.45 274.293C244.116 274.057 244.69 273.706 245.172 273.242C245.653 272.769 246.026 272.182 246.289 271.482L249.284 272.322C248.969 273.339 248.439 274.232 247.694 275.003C246.95 275.765 246.03 276.361 244.935 276.79C243.84 277.21 242.61 277.42 241.243 277.42ZM277.442 268.749V256.818H280.542V277H277.442V273.584H277.231C276.758 274.609 276.023 275.48 275.024 276.199C274.025 276.908 272.764 277.263 271.24 277.263C269.979 277.263 268.857 276.987 267.876 276.435C266.895 275.874 266.124 275.033 265.564 273.912C265.003 272.782 264.723 271.359 264.723 269.642V256.818H267.824V269.432C267.824 270.903 268.235 272.077 269.059 272.953C269.891 273.829 270.951 274.267 272.238 274.267C273.009 274.267 273.793 274.07 274.59 273.676C275.396 273.282 276.071 272.677 276.614 271.863C277.166 271.048 277.442 270.01 277.442 268.749ZM300.517 261.338L297.732 262.126C297.557 261.662 297.298 261.211 296.957 260.773C296.624 260.326 296.168 259.958 295.59 259.669C295.012 259.38 294.272 259.236 293.37 259.236C292.134 259.236 291.105 259.52 290.282 260.09C289.467 260.65 289.06 261.364 289.06 262.232C289.06 263.002 289.34 263.611 289.901 264.058C290.461 264.505 291.337 264.877 292.529 265.175L295.524 265.911C297.329 266.348 298.673 267.019 299.558 267.921C300.443 268.814 300.885 269.966 300.885 271.376C300.885 272.533 300.552 273.566 299.887 274.477C299.23 275.388 298.31 276.107 297.127 276.632C295.945 277.158 294.57 277.42 293.002 277.42C290.943 277.42 289.239 276.974 287.891 276.08C286.542 275.187 285.688 273.882 285.328 272.165L288.272 271.429C288.552 272.515 289.082 273.33 289.861 273.873C290.65 274.416 291.679 274.688 292.949 274.688C294.394 274.688 295.542 274.381 296.392 273.768C297.25 273.146 297.679 272.401 297.679 271.534C297.679 270.833 297.434 270.246 296.943 269.773C296.453 269.292 295.7 268.933 294.684 268.696L291.32 267.908C289.472 267.47 288.114 266.791 287.247 265.871C286.388 264.943 285.959 263.782 285.959 262.389C285.959 261.25 286.279 260.243 286.918 259.367C287.566 258.491 288.447 257.804 289.559 257.304C290.68 256.805 291.951 256.555 293.37 256.555C295.367 256.555 296.935 256.993 298.073 257.869C299.221 258.745 300.036 259.902 300.517 261.338ZM314.015 277.42C312.07 277.42 310.393 276.991 308.982 276.133C307.581 275.266 306.499 274.057 305.737 272.506C304.984 270.947 304.607 269.134 304.607 267.067C304.607 265 304.984 263.178 305.737 261.601C306.499 260.015 307.559 258.78 308.917 257.896C310.283 257.002 311.877 256.555 313.699 256.555C314.75 256.555 315.788 256.731 316.813 257.081C317.838 257.431 318.771 258.001 319.612 258.789C320.453 259.569 321.123 260.602 321.622 261.89C322.121 263.178 322.371 264.763 322.371 266.646V267.96H306.814V265.28H319.218C319.218 264.141 318.99 263.125 318.534 262.232C318.088 261.338 317.448 260.633 316.616 260.116C315.793 259.599 314.82 259.341 313.699 259.341C312.464 259.341 311.395 259.647 310.493 260.261C309.6 260.865 308.912 261.653 308.43 262.626C307.949 263.598 307.708 264.64 307.708 265.753V267.54C307.708 269.064 307.971 270.356 308.496 271.416C309.03 272.467 309.771 273.268 310.717 273.82C311.663 274.363 312.762 274.635 314.015 274.635C314.829 274.635 315.565 274.521 316.222 274.293C316.888 274.057 317.461 273.706 317.943 273.242C318.425 272.769 318.797 272.182 319.06 271.482L322.056 272.322C321.74 273.339 321.21 274.232 320.466 275.003C319.721 275.765 318.802 276.361 317.707 276.79C316.612 277.21 315.381 277.42 314.015 277.42ZM334.709 277.42C333.027 277.42 331.542 276.996 330.255 276.146C328.967 275.288 327.96 274.079 327.233 272.52C326.506 270.952 326.142 269.099 326.142 266.962C326.142 264.842 326.506 263.002 327.233 261.443C327.96 259.884 328.971 258.68 330.268 257.83C331.564 256.98 333.062 256.555 334.761 256.555C336.075 256.555 337.113 256.774 337.875 257.212C338.646 257.642 339.233 258.132 339.636 258.684C340.048 259.227 340.367 259.674 340.595 260.024H340.858V250.091H343.959V277H340.963V273.899H340.595C340.367 274.267 340.043 274.731 339.623 275.292C339.202 275.844 338.602 276.339 337.823 276.777C337.043 277.206 336.005 277.42 334.709 277.42ZM335.129 274.635C336.373 274.635 337.424 274.311 338.283 273.663C339.141 273.006 339.794 272.099 340.24 270.943C340.687 269.778 340.911 268.433 340.911 266.909C340.911 265.402 340.692 264.084 340.254 262.954C339.816 261.815 339.167 260.931 338.309 260.3C337.451 259.661 336.391 259.341 335.129 259.341C333.815 259.341 332.72 259.678 331.844 260.353C330.977 261.018 330.325 261.925 329.887 263.072C329.458 264.211 329.243 265.49 329.243 266.909C329.243 268.346 329.462 269.651 329.9 270.825C330.347 271.99 331.004 272.918 331.871 273.61C332.747 274.293 333.833 274.635 335.129 274.635ZM366.414 277.473C365.135 277.473 363.974 277.232 362.932 276.75C361.889 276.26 361.062 275.555 360.449 274.635C359.835 273.706 359.529 272.585 359.529 271.271C359.529 270.115 359.757 269.178 360.212 268.46C360.667 267.732 361.276 267.163 362.038 266.751C362.8 266.34 363.641 266.033 364.561 265.832C365.49 265.621 366.422 265.455 367.36 265.332C368.586 265.175 369.58 265.056 370.342 264.978C371.113 264.89 371.674 264.746 372.024 264.544C372.383 264.343 372.563 263.992 372.563 263.493V263.388C372.563 262.091 372.208 261.084 371.499 260.366C370.798 259.647 369.734 259.288 368.306 259.288C366.825 259.288 365.665 259.612 364.824 260.261C363.983 260.909 363.392 261.601 363.05 262.337L360.107 261.286C360.632 260.059 361.333 259.104 362.209 258.421C363.094 257.729 364.057 257.247 365.1 256.976C366.151 256.696 367.185 256.555 368.201 256.555C368.849 256.555 369.593 256.634 370.434 256.792C371.284 256.941 372.103 257.252 372.891 257.725C373.688 258.198 374.35 258.912 374.875 259.866C375.401 260.821 375.664 262.1 375.664 263.703V277H372.563V274.267H372.405C372.195 274.705 371.845 275.174 371.354 275.673C370.864 276.172 370.211 276.597 369.396 276.947C368.582 277.298 367.587 277.473 366.414 277.473ZM366.887 274.688C368.113 274.688 369.147 274.447 369.988 273.965C370.837 273.483 371.477 272.861 371.906 272.099C372.344 271.337 372.563 270.536 372.563 269.695V266.857C372.431 267.014 372.142 267.159 371.696 267.29C371.258 267.413 370.75 267.522 370.172 267.619C369.602 267.706 369.046 267.785 368.503 267.855C367.969 267.916 367.535 267.969 367.202 268.013C366.396 268.118 365.643 268.289 364.942 268.525C364.25 268.753 363.69 269.099 363.26 269.563C362.84 270.019 362.63 270.641 362.63 271.429C362.63 272.506 363.028 273.321 363.825 273.873C364.631 274.416 365.652 274.688 366.887 274.688ZM395.619 261.338L392.833 262.126C392.658 261.662 392.4 261.211 392.058 260.773C391.725 260.326 391.27 259.958 390.692 259.669C390.114 259.38 389.373 259.236 388.471 259.236C387.236 259.236 386.207 259.52 385.383 260.09C384.569 260.65 384.161 261.364 384.161 262.232C384.161 263.002 384.442 263.611 385.002 264.058C385.563 264.505 386.439 264.877 387.63 265.175L390.626 265.911C392.43 266.348 393.775 267.019 394.66 267.921C395.544 268.814 395.987 269.966 395.987 271.376C395.987 272.533 395.654 273.566 394.988 274.477C394.331 275.388 393.411 276.107 392.229 276.632C391.046 277.158 389.671 277.42 388.103 277.42C386.045 277.42 384.341 276.974 382.992 276.08C381.643 275.187 380.789 273.882 380.43 272.165L383.373 271.429C383.653 272.515 384.183 273.33 384.963 273.873C385.751 274.416 386.781 274.688 388.051 274.688C389.496 274.688 390.643 274.381 391.493 273.768C392.352 273.146 392.781 272.401 392.781 271.534C392.781 270.833 392.536 270.246 392.045 269.773C391.554 269.292 390.801 268.933 389.785 268.696L386.421 267.908C384.573 267.47 383.215 266.791 382.348 265.871C381.49 264.943 381.061 263.782 381.061 262.389C381.061 261.25 381.38 260.243 382.02 259.367C382.668 258.491 383.548 257.804 384.661 257.304C385.782 256.805 387.052 256.555 388.471 256.555C390.468 256.555 392.036 256.993 393.175 257.869C394.322 258.745 395.137 259.902 395.619 261.338ZM417 277.473C415.721 277.473 414.56 277.232 413.518 276.75C412.475 276.26 411.648 275.555 411.034 274.635C410.421 273.706 410.115 272.585 410.115 271.271C410.115 270.115 410.342 269.178 410.798 268.46C411.253 267.732 411.862 267.163 412.624 266.751C413.386 266.34 414.227 266.033 415.147 265.832C416.076 265.621 417.008 265.455 417.946 265.332C419.172 265.175 420.166 265.056 420.928 264.978C421.699 264.89 422.26 264.746 422.61 264.544C422.969 264.343 423.149 263.992 423.149 263.493V263.388C423.149 262.091 422.794 261.084 422.085 260.366C421.384 259.647 420.319 259.288 418.892 259.288C417.411 259.288 416.251 259.612 415.41 260.261C414.569 260.909 413.978 261.601 413.636 262.337L410.693 261.286C411.218 260.059 411.919 259.104 412.795 258.421C413.68 257.729 414.643 257.247 415.686 256.976C416.737 256.696 417.77 256.555 418.787 256.555C419.435 256.555 420.179 256.634 421.02 256.792C421.87 256.941 422.689 257.252 423.477 257.725C424.274 258.198 424.936 258.912 425.461 259.866C425.987 260.821 426.25 262.1 426.25 263.703V277H423.149V274.267H422.991C422.781 274.705 422.431 275.174 421.94 275.673C421.449 276.172 420.797 276.597 419.982 276.947C419.168 277.298 418.173 277.473 417 277.473ZM417.473 274.688C418.699 274.688 419.733 274.447 420.574 273.965C421.423 273.483 422.063 272.861 422.492 272.099C422.93 271.337 423.149 270.536 423.149 269.695V266.857C423.017 267.014 422.728 267.159 422.282 267.29C421.844 267.413 421.336 267.522 420.757 267.619C420.188 267.706 419.632 267.785 419.089 267.855C418.554 267.916 418.121 267.969 417.788 268.013C416.982 268.118 416.229 268.289 415.528 268.525C414.836 268.753 414.275 269.099 413.846 269.563C413.426 270.019 413.216 270.641 413.216 271.429C413.216 272.506 413.614 273.321 414.411 273.873C415.217 274.416 416.238 274.688 417.473 274.688ZM435.01 264.859V277H431.909V256.818H434.905V259.972H435.168C435.641 258.947 436.359 258.123 437.323 257.501C438.286 256.871 439.53 256.555 441.054 256.555C442.421 256.555 443.616 256.836 444.641 257.396C445.666 257.948 446.463 258.789 447.033 259.919C447.602 261.04 447.887 262.459 447.887 264.176V277H444.786V264.386C444.786 262.801 444.374 261.566 443.551 260.681C442.727 259.788 441.597 259.341 440.161 259.341C439.171 259.341 438.286 259.556 437.507 259.985C436.736 260.414 436.127 261.04 435.68 261.864C435.234 262.687 435.01 263.686 435.01 264.859ZM154.289 322.42C152.345 322.42 150.667 321.991 149.257 321.133C147.856 320.266 146.774 319.057 146.012 317.506C145.258 315.947 144.882 314.134 144.882 312.067C144.882 310 145.258 308.178 146.012 306.601C146.774 305.015 147.834 303.78 149.191 302.896C150.558 302.002 152.152 301.555 153.974 301.555C155.025 301.555 156.063 301.731 157.088 302.081C158.113 302.431 159.046 303.001 159.887 303.789C160.728 304.569 161.398 305.602 161.897 306.89C162.396 308.178 162.646 309.763 162.646 311.646V312.96H147.089V310.28H159.493C159.493 309.141 159.265 308.125 158.809 307.232C158.363 306.338 157.723 305.633 156.891 305.116C156.068 304.599 155.095 304.341 153.974 304.341C152.739 304.341 151.67 304.647 150.768 305.261C149.875 305.865 149.187 306.653 148.705 307.626C148.224 308.598 147.983 309.64 147.983 310.753V312.54C147.983 314.064 148.245 315.356 148.771 316.416C149.305 317.467 150.045 318.268 150.992 318.82C151.938 319.363 153.037 319.635 154.289 319.635C155.104 319.635 155.84 319.521 156.497 319.293C157.163 319.057 157.736 318.706 158.218 318.242C158.7 317.769 159.072 317.182 159.335 316.482L162.331 317.322C162.015 318.339 161.485 319.232 160.741 320.003C159.996 320.765 159.077 321.361 157.982 321.79C156.887 322.21 155.656 322.42 154.289 322.42ZM169.133 301.818L173.969 310.07L178.804 301.818H182.378L175.861 311.909L182.378 322H178.804L173.969 314.169L169.133 322H165.56L171.972 311.909L165.56 301.818H169.133ZM195.579 301.818V304.446H185.121V301.818H195.579ZM188.169 296.983H191.27V316.219C191.27 317.095 191.397 317.752 191.651 318.19C191.914 318.619 192.246 318.908 192.649 319.057C193.061 319.197 193.495 319.267 193.95 319.267C194.292 319.267 194.572 319.25 194.791 319.214C195.01 319.171 195.185 319.136 195.317 319.109L195.947 321.895C195.737 321.974 195.444 322.053 195.067 322.131C194.69 322.219 194.213 322.263 193.635 322.263C192.759 322.263 191.9 322.074 191.06 321.698C190.227 321.321 189.535 320.747 188.984 319.977C188.44 319.206 188.169 318.233 188.169 317.06V296.983ZM208.489 322.42C206.544 322.42 204.867 321.991 203.456 321.133C202.055 320.266 200.973 319.057 200.211 317.506C199.458 315.947 199.081 314.134 199.081 312.067C199.081 310 199.458 308.178 200.211 306.601C200.973 305.015 202.033 303.78 203.391 302.896C204.757 302.002 206.351 301.555 208.173 301.555C209.224 301.555 210.262 301.731 211.287 302.081C212.312 302.431 213.245 303.001 214.086 303.789C214.927 304.569 215.597 305.602 216.096 306.89C216.596 308.178 216.845 309.763 216.845 311.646V312.96H201.288V310.28H213.692C213.692 309.141 213.464 308.125 213.009 307.232C212.562 306.338 211.922 305.633 211.09 305.116C210.267 304.599 209.295 304.341 208.173 304.341C206.938 304.341 205.87 304.647 204.967 305.261C204.074 305.865 203.386 306.653 202.905 307.626C202.423 308.598 202.182 309.64 202.182 310.753V312.54C202.182 314.064 202.445 315.356 202.97 316.416C203.505 317.467 204.245 318.268 205.191 318.82C206.137 319.363 207.236 319.635 208.489 319.635C209.303 319.635 210.039 319.521 210.696 319.293C211.362 319.057 211.936 318.706 212.417 318.242C212.899 317.769 213.271 317.182 213.534 316.482L216.53 317.322C216.215 318.339 215.685 319.232 214.94 320.003C214.195 320.765 213.276 321.361 212.181 321.79C211.086 322.21 209.855 322.42 208.489 322.42ZM224.663 309.859V322H221.562V301.818H224.558V304.972H224.821C225.294 303.947 226.012 303.123 226.976 302.501C227.939 301.871 229.183 301.555 230.707 301.555C232.074 301.555 233.269 301.836 234.294 302.396C235.319 302.948 236.116 303.789 236.685 304.919C237.255 306.04 237.539 307.459 237.539 309.176V322H234.439V309.386C234.439 307.801 234.027 306.566 233.204 305.681C232.38 304.788 231.25 304.341 229.814 304.341C228.824 304.341 227.939 304.556 227.159 304.985C226.389 305.414 225.78 306.04 225.333 306.864C224.886 307.687 224.663 308.686 224.663 309.859ZM257.501 306.338L254.716 307.126C254.54 306.662 254.282 306.211 253.94 305.773C253.608 305.326 253.152 304.958 252.574 304.669C251.996 304.38 251.256 304.236 250.353 304.236C249.118 304.236 248.089 304.52 247.266 305.09C246.451 305.65 246.044 306.364 246.044 307.232C246.044 308.002 246.324 308.611 246.885 309.058C247.445 309.505 248.321 309.877 249.513 310.175L252.508 310.911C254.313 311.348 255.657 312.019 256.542 312.921C257.427 313.814 257.869 314.966 257.869 316.376C257.869 317.533 257.536 318.566 256.871 319.477C256.214 320.388 255.294 321.107 254.111 321.632C252.929 322.158 251.554 322.42 249.986 322.42C247.927 322.42 246.223 321.974 244.874 321.08C243.525 320.187 242.671 318.882 242.312 317.165L245.255 316.429C245.536 317.515 246.066 318.33 246.845 318.873C247.634 319.416 248.663 319.688 249.933 319.688C251.378 319.688 252.526 319.381 253.375 318.768C254.234 318.146 254.663 317.401 254.663 316.534C254.663 315.833 254.418 315.246 253.927 314.773C253.437 314.292 252.683 313.933 251.667 313.696L248.304 312.908C246.456 312.47 245.098 311.791 244.231 310.871C243.372 309.943 242.943 308.782 242.943 307.389C242.943 306.25 243.263 305.243 243.902 304.367C244.55 303.491 245.431 302.804 246.543 302.304C247.664 301.805 248.934 301.555 250.353 301.555C252.351 301.555 253.919 301.993 255.057 302.869C256.205 303.745 257.019 304.902 257.501 306.338ZM262.537 322V301.818H265.638V322H262.537ZM264.114 298.455C263.509 298.455 262.988 298.249 262.55 297.837C262.121 297.425 261.906 296.93 261.906 296.352C261.906 295.774 262.121 295.279 262.55 294.868C262.988 294.456 263.509 294.25 264.114 294.25C264.718 294.25 265.235 294.456 265.664 294.868C266.102 295.279 266.321 295.774 266.321 296.352C266.321 296.93 266.102 297.425 265.664 297.837C265.235 298.249 264.718 298.455 264.114 298.455ZM279.516 322.42C277.694 322.42 276.095 321.987 274.72 321.12C273.354 320.252 272.285 319.039 271.514 317.48C270.752 315.921 270.371 314.099 270.371 312.014C270.371 309.912 270.752 308.077 271.514 306.509C272.285 304.941 273.354 303.723 274.72 302.856C276.095 301.989 277.694 301.555 279.516 301.555C281.338 301.555 282.932 301.989 284.299 302.856C285.674 303.723 286.742 304.941 287.505 306.509C288.275 308.077 288.661 309.912 288.661 312.014C288.661 314.099 288.275 315.921 287.505 317.48C286.742 319.039 285.674 320.252 284.299 321.12C282.932 321.987 281.338 322.42 279.516 322.42ZM279.516 319.635C280.9 319.635 282.039 319.28 282.932 318.571C283.826 317.861 284.487 316.928 284.916 315.772C285.345 314.616 285.56 313.363 285.56 312.014C285.56 310.665 285.345 309.408 284.916 308.243C284.487 307.078 283.826 306.137 282.932 305.418C282.039 304.7 280.9 304.341 279.516 304.341C278.132 304.341 276.993 304.7 276.1 305.418C275.206 306.137 274.545 307.078 274.116 308.243C273.687 309.408 273.472 310.665 273.472 312.014C273.472 313.363 273.687 314.616 274.116 315.772C274.545 316.928 275.206 317.861 276.1 318.571C276.993 319.28 278.132 319.635 279.516 319.635ZM296.495 309.859V322H293.394V301.818H296.39V304.972H296.653C297.126 303.947 297.844 303.123 298.808 302.501C299.771 301.871 301.015 301.555 302.539 301.555C303.906 301.555 305.101 301.836 306.126 302.396C307.151 302.948 307.948 303.789 308.517 304.919C309.087 306.04 309.371 307.459 309.371 309.176V322H306.271V309.386C306.271 307.801 305.859 306.566 305.036 305.681C304.212 304.788 303.082 304.341 301.646 304.341C300.656 304.341 299.771 304.556 298.992 304.985C298.221 305.414 297.612 306.04 297.165 306.864C296.718 307.687 296.495 308.686 296.495 309.859ZM333.643 322.42C331.821 322.42 330.222 321.987 328.847 321.12C327.481 320.252 326.412 319.039 325.641 317.48C324.879 315.921 324.498 314.099 324.498 312.014C324.498 309.912 324.879 308.077 325.641 306.509C326.412 304.941 327.481 303.723 328.847 302.856C330.222 301.989 331.821 301.555 333.643 301.555C335.465 301.555 337.059 301.989 338.426 302.856C339.801 303.723 340.869 304.941 341.632 306.509C342.402 308.077 342.788 309.912 342.788 312.014C342.788 314.099 342.402 315.921 341.632 317.48C340.869 319.039 339.801 320.252 338.426 321.12C337.059 321.987 335.465 322.42 333.643 322.42ZM333.643 319.635C335.027 319.635 336.166 319.28 337.059 318.571C337.953 317.861 338.614 316.928 339.043 315.772C339.472 314.616 339.687 313.363 339.687 312.014C339.687 310.665 339.472 309.408 339.043 308.243C338.614 307.078 337.953 306.137 337.059 305.418C336.166 304.7 335.027 304.341 333.643 304.341C332.259 304.341 331.12 304.7 330.227 305.418C329.333 306.137 328.672 307.078 328.243 308.243C327.813 309.408 327.599 310.665 327.599 312.014C327.599 313.363 327.813 314.616 328.243 315.772C328.672 316.928 329.333 317.861 330.227 318.571C331.12 319.28 332.259 319.635 333.643 319.635ZM356.508 301.818V304.446H345.629V301.818H356.508ZM348.888 322V299.033C348.888 297.876 349.159 296.913 349.702 296.142C350.245 295.371 350.951 294.793 351.818 294.408C352.685 294.022 353.6 293.83 354.564 293.83C355.326 293.83 355.948 293.891 356.43 294.013C356.911 294.136 357.27 294.25 357.507 294.355L356.614 297.036C356.456 296.983 356.237 296.917 355.957 296.838C355.685 296.76 355.326 296.72 354.879 296.72C353.854 296.72 353.114 296.979 352.659 297.495C352.212 298.012 351.989 298.77 351.989 299.768V322H348.888ZM371.681 322V295.091H380.773C382.875 295.091 384.601 295.45 385.95 296.168C387.299 296.878 388.298 297.855 388.946 299.098C389.594 300.342 389.918 301.757 389.918 303.342C389.918 304.928 389.594 306.334 388.946 307.56C388.298 308.786 387.303 309.75 385.963 310.451C384.623 311.143 382.911 311.489 380.826 311.489H373.468V308.545H380.721C382.157 308.545 383.313 308.335 384.189 307.915C385.074 307.494 385.714 306.899 386.108 306.128C386.511 305.348 386.712 304.42 386.712 303.342C386.712 302.265 386.511 301.323 386.108 300.517C385.705 299.712 385.061 299.09 384.176 298.652C383.292 298.205 382.122 297.982 380.668 297.982H374.939V322H371.681ZM384.347 309.912L390.969 322H387.185L380.668 309.912H384.347ZM396.452 322H393.035L402.916 295.091H406.28L416.16 322H412.744L404.703 299.348H404.493L396.452 322ZM397.713 311.489H411.483V314.379H397.713V311.489ZM420.352 295.091H424.241L433.386 317.428H433.701L442.846 295.091H446.735V322H443.687V301.555H443.424L435.015 322H432.072L423.663 301.555H423.4V322H420.352V295.091Z" fill="white"/>
<path d="M748.23 778V751.091H764.365V753.982H751.488V763.074H763.156V765.964H751.488V778H748.23ZM769.308 778V757.818H772.304V760.866H772.514C772.882 759.868 773.548 759.058 774.511 758.436C775.475 757.814 776.561 757.503 777.77 757.503C777.998 757.503 778.282 757.507 778.624 757.516C778.966 757.525 779.224 757.538 779.399 757.555V760.709C779.294 760.683 779.053 760.643 778.677 760.591C778.309 760.529 777.919 760.499 777.507 760.499C776.526 760.499 775.65 760.704 774.879 761.116C774.117 761.519 773.513 762.08 773.066 762.798C772.628 763.507 772.409 764.318 772.409 765.229V778H769.308ZM790.922 778.42C788.978 778.42 787.3 777.991 785.89 777.133C784.488 776.266 783.407 775.057 782.645 773.506C781.891 771.947 781.515 770.134 781.515 768.067C781.515 766 781.891 764.178 782.645 762.601C783.407 761.015 784.467 759.78 785.824 758.896C787.191 758.002 788.785 757.555 790.607 757.555C791.658 757.555 792.696 757.731 793.721 758.081C794.746 758.431 795.679 759.001 796.52 759.789C797.36 760.569 798.031 761.602 798.53 762.89C799.029 764.178 799.279 765.763 799.279 767.646V768.96H783.722V766.28H796.125C796.125 765.141 795.898 764.125 795.442 763.232C794.995 762.338 794.356 761.633 793.524 761.116C792.7 760.599 791.728 760.341 790.607 760.341C789.372 760.341 788.303 760.647 787.401 761.261C786.508 761.865 785.82 762.653 785.338 763.626C784.856 764.598 784.615 765.64 784.615 766.753V768.54C784.615 770.064 784.878 771.356 785.404 772.416C785.938 773.467 786.678 774.268 787.624 774.82C788.57 775.363 789.67 775.635 790.922 775.635C791.737 775.635 792.473 775.521 793.13 775.293C793.795 775.057 794.369 774.706 794.851 774.242C795.333 773.769 795.705 773.182 795.968 772.482L798.963 773.322C798.648 774.339 798.118 775.232 797.374 776.003C796.629 776.765 795.709 777.361 794.614 777.79C793.519 778.21 792.289 778.42 790.922 778.42ZM812.457 778.42C810.513 778.42 808.835 777.991 807.425 777.133C806.024 776.266 804.942 775.057 804.18 773.506C803.426 771.947 803.05 770.134 803.05 768.067C803.05 766 803.426 764.178 804.18 762.601C804.942 761.015 806.002 759.78 807.359 758.896C808.726 758.002 810.32 757.555 812.142 757.555C813.193 757.555 814.231 757.731 815.256 758.081C816.281 758.431 817.214 759.001 818.055 759.789C818.896 760.569 819.566 761.602 820.065 762.89C820.564 764.178 820.814 765.763 820.814 767.646V768.96H805.257V766.28H817.661C817.661 765.141 817.433 764.125 816.977 763.232C816.531 762.338 815.891 761.633 815.059 761.116C814.236 760.599 813.263 760.341 812.142 760.341C810.907 760.341 809.838 760.647 808.936 761.261C808.043 761.865 807.355 762.653 806.873 763.626C806.391 764.598 806.151 765.64 806.151 766.753V768.54C806.151 770.064 806.413 771.356 806.939 772.416C807.473 773.467 808.213 774.268 809.159 774.82C810.106 775.363 811.205 775.635 812.457 775.635C813.272 775.635 814.008 775.521 814.665 775.293C815.331 775.057 815.904 774.706 816.386 774.242C816.868 773.769 817.24 773.182 817.503 772.482L820.499 773.322C820.183 774.339 819.653 775.232 818.909 776.003C818.164 776.765 817.244 777.361 816.15 777.79C815.055 778.21 813.824 778.42 812.457 778.42ZM850.233 762.338L847.447 763.126C847.272 762.662 847.014 762.211 846.672 761.773C846.339 761.326 845.884 760.958 845.305 760.669C844.727 760.38 843.987 760.236 843.085 760.236C841.85 760.236 840.821 760.52 839.997 761.09C839.183 761.65 838.775 762.364 838.775 763.232C838.775 764.002 839.056 764.611 839.616 765.058C840.177 765.505 841.053 765.877 842.244 766.175L845.24 766.911C847.044 767.348 848.389 768.019 849.273 768.921C850.158 769.814 850.601 770.966 850.601 772.376C850.601 773.533 850.268 774.566 849.602 775.477C848.945 776.388 848.025 777.107 846.843 777.632C845.66 778.158 844.285 778.42 842.717 778.42C840.659 778.42 838.955 777.974 837.606 777.08C836.257 776.187 835.403 774.882 835.044 773.165L837.987 772.429C838.267 773.515 838.797 774.33 839.577 774.873C840.365 775.416 841.394 775.688 842.664 775.688C844.11 775.688 845.257 775.381 846.107 774.768C846.965 774.146 847.395 773.401 847.395 772.534C847.395 771.833 847.149 771.246 846.659 770.773C846.168 770.292 845.415 769.933 844.399 769.696L841.035 768.908C839.187 768.47 837.829 767.791 836.962 766.871C836.104 765.943 835.674 764.782 835.674 763.389C835.674 762.25 835.994 761.243 836.634 760.367C837.282 759.491 838.162 758.804 839.275 758.304C840.396 757.805 841.666 757.555 843.085 757.555C845.082 757.555 846.65 757.993 847.789 758.869C848.936 759.745 849.751 760.902 850.233 762.338ZM855.268 785.568V757.818H858.264V761.024H858.632C858.86 760.674 859.175 760.227 859.578 759.684C859.99 759.132 860.576 758.642 861.339 758.212C862.109 757.774 863.152 757.555 864.466 757.555C866.165 757.555 867.663 757.98 868.959 758.83C870.256 759.68 871.267 760.884 871.994 762.443C872.721 764.002 873.085 765.842 873.085 767.962C873.085 770.099 872.721 771.952 871.994 773.52C871.267 775.079 870.26 776.288 868.972 777.146C867.685 777.996 866.2 778.42 864.518 778.42C863.222 778.42 862.184 778.206 861.404 777.777C860.625 777.339 860.025 776.844 859.604 776.292C859.184 775.731 858.86 775.267 858.632 774.899H858.369V785.568H855.268ZM858.317 767.909C858.317 769.433 858.54 770.778 858.987 771.943C859.433 773.099 860.086 774.006 860.944 774.663C861.803 775.311 862.854 775.635 864.098 775.635C865.394 775.635 866.476 775.293 867.343 774.61C868.219 773.918 868.876 772.99 869.314 771.825C869.761 770.651 869.984 769.346 869.984 767.909C869.984 766.49 869.765 765.211 869.327 764.072C868.898 762.925 868.245 762.018 867.369 761.353C866.502 760.678 865.412 760.341 864.098 760.341C862.836 760.341 861.777 760.661 860.918 761.3C860.06 761.931 859.411 762.815 858.973 763.954C858.536 765.084 858.317 766.402 858.317 767.909ZM883.754 778.473C882.475 778.473 881.315 778.232 880.272 777.75C879.23 777.26 878.402 776.555 877.789 775.635C877.176 774.706 876.869 773.585 876.869 772.271C876.869 771.115 877.097 770.178 877.552 769.46C878.008 768.732 878.617 768.163 879.379 767.751C880.141 767.34 880.982 767.033 881.901 766.832C882.83 766.621 883.763 766.455 884.7 766.332C885.926 766.175 886.921 766.056 887.683 765.978C888.453 765.89 889.014 765.746 889.364 765.544C889.724 765.343 889.903 764.992 889.903 764.493V764.388C889.903 763.091 889.548 762.084 888.839 761.366C888.138 760.647 887.074 760.288 885.646 760.288C884.166 760.288 883.005 760.612 882.164 761.261C881.323 761.909 880.732 762.601 880.39 763.337L877.447 762.286C877.973 761.059 878.674 760.104 879.549 759.421C880.434 758.729 881.398 758.247 882.44 757.976C883.491 757.696 884.525 757.555 885.541 757.555C886.189 757.555 886.934 757.634 887.775 757.792C888.624 757.941 889.443 758.252 890.232 758.725C891.029 759.198 891.69 759.912 892.216 760.866C892.741 761.821 893.004 763.1 893.004 764.703V778H889.903V775.267H889.746C889.535 775.705 889.185 776.174 888.694 776.673C888.204 777.172 887.551 777.597 886.737 777.947C885.922 778.298 884.928 778.473 883.754 778.473ZM884.227 775.688C885.453 775.688 886.487 775.447 887.328 774.965C888.178 774.483 888.817 773.861 889.246 773.099C889.684 772.337 889.903 771.536 889.903 770.695V767.857C889.772 768.014 889.483 768.159 889.036 768.29C888.598 768.413 888.09 768.522 887.512 768.619C886.942 768.706 886.386 768.785 885.843 768.855C885.309 768.916 884.875 768.969 884.542 769.013C883.737 769.118 882.983 769.289 882.282 769.525C881.59 769.753 881.03 770.099 880.601 770.563C880.18 771.019 879.97 771.641 879.97 772.429C879.97 773.506 880.369 774.321 881.166 774.873C881.971 775.416 882.992 775.688 884.227 775.688ZM906.863 778.42C904.971 778.42 903.341 777.974 901.975 777.08C900.608 776.187 899.557 774.956 898.821 773.388C898.086 771.82 897.718 770.029 897.718 768.014C897.718 765.964 898.094 764.156 898.848 762.588C899.61 761.011 900.67 759.78 902.027 758.896C903.394 758.002 904.988 757.555 906.81 757.555C908.229 757.555 909.508 757.818 910.647 758.344C911.785 758.869 912.718 759.605 913.445 760.551C914.172 761.497 914.624 762.601 914.799 763.862H911.698C911.461 762.942 910.936 762.128 910.121 761.418C909.315 760.7 908.229 760.341 906.863 760.341C905.654 760.341 904.594 760.656 903.683 761.287C902.781 761.909 902.076 762.789 901.568 763.928C901.068 765.058 900.819 766.385 900.819 767.909C900.819 769.468 901.064 770.826 901.554 771.982C902.054 773.138 902.754 774.036 903.657 774.676C904.568 775.315 905.636 775.635 906.863 775.635C907.668 775.635 908.4 775.495 909.057 775.214C909.714 774.934 910.27 774.531 910.726 774.006C911.181 773.48 911.505 772.849 911.698 772.114H914.799C914.624 773.305 914.19 774.378 913.498 775.333C912.815 776.279 911.908 777.032 910.778 777.593C909.657 778.145 908.352 778.42 906.863 778.42ZM927.793 778.42C925.849 778.42 924.171 777.991 922.761 777.133C921.36 776.266 920.278 775.057 919.516 773.506C918.762 771.947 918.386 770.134 918.386 768.067C918.386 766 918.762 764.178 919.516 762.601C920.278 761.015 921.338 759.78 922.695 758.896C924.062 758.002 925.656 757.555 927.478 757.555C928.529 757.555 929.567 757.731 930.592 758.081C931.617 758.431 932.55 759.001 933.391 759.789C934.232 760.569 934.902 761.602 935.401 762.89C935.9 764.178 936.15 765.763 936.15 767.646V768.96H920.593V766.28H932.996C932.996 765.141 932.769 764.125 932.313 763.232C931.867 762.338 931.227 761.633 930.395 761.116C929.572 760.599 928.599 760.341 927.478 760.341C926.243 760.341 925.174 760.647 924.272 761.261C923.379 761.865 922.691 762.653 922.209 763.626C921.727 764.598 921.487 765.64 921.487 766.753V768.54C921.487 770.064 921.749 771.356 922.275 772.416C922.809 773.467 923.549 774.268 924.495 774.82C925.441 775.363 926.541 775.635 927.793 775.635C928.608 775.635 929.344 775.521 930.001 775.293C930.666 775.057 931.24 774.706 931.722 774.242C932.204 773.769 932.576 773.182 932.839 772.482L935.835 773.322C935.519 774.339 934.989 775.232 934.245 776.003C933.5 776.765 932.58 777.361 931.485 777.79C930.391 778.21 929.16 778.42 927.793 778.42Z" fill="white"/>
<path d="M770.729 537V532.568L781.084 522.98C781.965 522.128 782.703 521.361 783.3 520.679C783.906 519.997 784.365 519.33 784.678 518.676C784.99 518.013 785.147 517.298 785.147 516.531C785.147 515.679 784.953 514.945 784.564 514.33C784.176 513.705 783.646 513.226 782.973 512.895C782.301 512.554 781.539 512.384 780.686 512.384C779.796 512.384 779.02 512.563 778.357 512.923C777.694 513.283 777.183 513.799 776.823 514.472C776.463 515.144 776.283 515.944 776.283 516.872H770.445C770.445 514.969 770.876 513.316 771.738 511.915C772.599 510.513 773.807 509.429 775.36 508.662C776.913 507.895 778.703 507.511 780.729 507.511C782.812 507.511 784.626 507.881 786.169 508.619C787.722 509.348 788.93 510.362 789.792 511.659C790.653 512.956 791.084 514.443 791.084 516.119C791.084 517.218 790.866 518.302 790.431 519.372C790.005 520.442 789.242 521.631 788.144 522.938C787.045 524.235 785.497 525.793 783.499 527.611L779.252 531.773V531.972H791.468V537H770.729ZM794.859 531.886V527.043L807.004 507.909H811.18V514.614H808.708L801.052 526.73V526.957H818.311V531.886H794.859ZM808.822 537V530.409L808.936 528.264V507.909H814.703V537H808.822ZM833.261 537.398C831.074 537.398 829.127 537.043 827.423 536.332C825.728 535.613 824.397 534.633 823.431 533.392C822.466 532.152 821.983 530.745 821.983 529.173C821.983 527.961 822.257 526.848 822.806 525.835C823.365 524.812 824.123 523.965 825.079 523.293C826.036 522.611 827.106 522.175 828.289 521.986V521.787C826.736 521.474 825.477 520.722 824.511 519.528C823.545 518.326 823.062 516.929 823.062 515.338C823.062 513.832 823.502 512.492 824.383 511.318C825.264 510.134 826.471 509.206 828.005 508.534C829.549 507.852 831.301 507.511 833.261 507.511C835.221 507.511 836.968 507.852 838.502 508.534C840.046 509.216 841.258 510.149 842.139 511.332C843.02 512.507 843.465 513.842 843.474 515.338C843.465 516.938 842.972 518.335 841.997 519.528C841.021 520.722 839.771 521.474 838.247 521.787V521.986C839.412 522.175 840.467 522.611 841.414 523.293C842.371 523.965 843.128 524.812 843.687 525.835C844.255 526.848 844.544 527.961 844.554 529.173C844.544 530.745 844.056 532.152 843.091 533.392C842.125 534.633 840.789 535.613 839.085 536.332C837.39 537.043 835.449 537.398 833.261 537.398ZM833.261 532.881C834.236 532.881 835.089 532.705 835.818 532.355C836.547 531.995 837.115 531.503 837.522 530.878C837.939 530.243 838.147 529.514 838.147 528.69C838.147 527.848 837.934 527.104 837.508 526.46C837.082 525.807 836.504 525.295 835.775 524.926C835.046 524.547 834.208 524.358 833.261 524.358C832.324 524.358 831.485 524.547 830.747 524.926C830.008 525.295 829.426 525.807 829 526.46C828.583 527.104 828.375 527.848 828.375 528.69C828.375 529.514 828.578 530.243 828.985 530.878C829.393 531.503 829.966 531.995 830.704 532.355C831.443 532.705 832.295 532.881 833.261 532.881ZM833.261 519.884C834.075 519.884 834.8 519.718 835.434 519.386C836.069 519.055 836.566 518.596 836.926 518.009C837.286 517.421 837.466 516.744 837.466 515.977C837.466 515.22 837.286 514.557 836.926 513.989C836.566 513.411 836.074 512.961 835.449 512.639C834.824 512.308 834.094 512.142 833.261 512.142C832.437 512.142 831.708 512.308 831.074 512.639C830.439 512.961 829.942 513.411 829.582 513.989C829.232 514.557 829.056 515.22 829.056 515.977C829.056 516.744 829.236 517.421 829.596 518.009C829.956 518.596 830.453 519.055 831.088 519.386C831.722 519.718 832.447 519.884 833.261 519.884ZM877.572 517.312C877.373 516.621 877.094 516.01 876.734 515.48C876.374 514.94 875.934 514.486 875.413 514.116C874.902 513.738 874.315 513.449 873.652 513.25C872.998 513.051 872.274 512.952 871.478 512.952C869.992 512.952 868.685 513.321 867.558 514.06C866.44 514.798 865.569 515.873 864.944 517.284C864.319 518.686 864.007 520.4 864.007 522.426C864.007 524.453 864.315 526.176 864.93 527.597C865.546 529.017 866.417 530.101 867.544 530.849C868.671 531.588 870.001 531.957 871.535 531.957C872.927 531.957 874.116 531.711 875.1 531.219C876.095 530.717 876.852 530.011 877.373 529.102C877.904 528.193 878.169 527.118 878.169 525.878L879.419 526.062H871.919V521.432H884.092V525.097C884.092 527.653 883.552 529.85 882.473 531.688C881.393 533.515 879.906 534.926 878.012 535.92C876.118 536.905 873.95 537.398 871.507 537.398C868.779 537.398 866.384 536.796 864.319 535.594C862.255 534.382 860.645 532.663 859.49 530.438C858.344 528.203 857.771 525.551 857.771 522.483C857.771 520.125 858.112 518.023 858.794 516.176C859.485 514.32 860.451 512.748 861.691 511.46C862.932 510.172 864.376 509.192 866.024 508.52C867.672 507.848 869.457 507.511 871.379 507.511C873.027 507.511 874.561 507.753 875.981 508.236C877.402 508.709 878.661 509.382 879.76 510.253C880.868 511.124 881.772 512.161 882.473 513.364C883.173 514.557 883.623 515.873 883.822 517.312H877.572ZM888.712 537V507.909H900.36C902.5 507.909 904.285 508.226 905.715 508.861C907.145 509.495 908.22 510.376 908.939 511.503C909.659 512.62 910.019 513.908 910.019 515.366C910.019 516.503 909.792 517.502 909.337 518.364C908.882 519.216 908.257 519.917 907.462 520.466C906.676 521.006 905.776 521.389 904.763 521.616V521.901C905.871 521.948 906.908 522.26 907.874 522.838C908.849 523.416 909.64 524.225 910.246 525.267C910.852 526.299 911.155 527.53 911.155 528.96C911.155 530.504 910.772 531.882 910.005 533.094C909.247 534.296 908.125 535.248 906.638 535.949C905.151 536.65 903.319 537 901.141 537H888.712ZM894.863 531.972H899.877C901.591 531.972 902.841 531.645 903.627 530.991C904.413 530.329 904.806 529.448 904.806 528.349C904.806 527.545 904.612 526.834 904.223 526.219C903.835 525.603 903.281 525.12 902.561 524.77C901.851 524.42 901.004 524.244 900.019 524.244H894.863V531.972ZM894.863 520.082H899.422C900.265 520.082 901.013 519.936 901.667 519.642C902.329 519.339 902.85 518.913 903.229 518.364C903.617 517.814 903.811 517.156 903.811 516.389C903.811 515.338 903.437 514.491 902.689 513.847C901.951 513.203 900.9 512.881 899.536 512.881H894.863V520.082Z" fill="white"/>
<path d="M262.421 537.398C260.234 537.398 258.288 537.043 256.583 536.332C254.888 535.613 253.558 534.633 252.592 533.392C251.626 532.152 251.143 530.745 251.143 529.173C251.143 527.961 251.417 526.848 251.967 525.835C252.525 524.812 253.283 523.965 254.239 523.293C255.196 522.611 256.266 522.175 257.45 521.986V521.787C255.897 521.474 254.637 520.722 253.671 519.528C252.705 518.326 252.222 516.929 252.222 515.338C252.222 513.832 252.663 512.492 253.543 511.318C254.424 510.134 255.631 509.206 257.165 508.534C258.709 507.852 260.461 507.511 262.421 507.511C264.381 507.511 266.129 507.852 267.663 508.534C269.206 509.216 270.418 510.149 271.299 511.332C272.18 512.507 272.625 513.842 272.634 515.338C272.625 516.938 272.132 518.335 271.157 519.528C270.182 520.722 268.932 521.474 267.407 521.787V521.986C268.572 522.175 269.628 522.611 270.575 523.293C271.531 523.965 272.289 524.812 272.847 525.835C273.415 526.848 273.704 527.961 273.714 529.173C273.704 530.745 273.217 532.152 272.251 533.392C271.285 534.633 269.95 535.613 268.245 536.332C266.55 537.043 264.609 537.398 262.421 537.398ZM262.421 532.881C263.397 532.881 264.249 532.705 264.978 532.355C265.707 531.995 266.275 531.503 266.683 530.878C267.099 530.243 267.308 529.514 267.308 528.69C267.308 527.848 267.094 527.104 266.668 526.46C266.242 525.807 265.665 525.295 264.935 524.926C264.206 524.547 263.368 524.358 262.421 524.358C261.484 524.358 260.646 524.547 259.907 524.926C259.168 525.295 258.586 525.807 258.16 526.46C257.743 527.104 257.535 527.848 257.535 528.69C257.535 529.514 257.738 530.243 258.146 530.878C258.553 531.503 259.126 531.995 259.864 532.355C260.603 532.705 261.455 532.881 262.421 532.881ZM262.421 519.884C263.236 519.884 263.96 519.718 264.594 519.386C265.229 519.055 265.726 518.596 266.086 518.009C266.446 517.421 266.626 516.744 266.626 515.977C266.626 515.22 266.446 514.557 266.086 513.989C265.726 513.411 265.234 512.961 264.609 512.639C263.984 512.308 263.254 512.142 262.421 512.142C261.597 512.142 260.868 512.308 260.234 512.639C259.599 512.961 259.102 513.411 258.742 513.989C258.392 514.557 258.217 515.22 258.217 515.977C258.217 516.744 258.397 517.421 258.756 518.009C259.116 518.596 259.613 519.055 260.248 519.386C260.882 519.718 261.607 519.884 262.421 519.884ZM306.732 517.312C306.533 516.621 306.254 516.01 305.894 515.48C305.534 514.94 305.094 514.486 304.573 514.116C304.062 513.738 303.475 513.449 302.812 513.25C302.158 513.051 301.434 512.952 300.638 512.952C299.152 512.952 297.845 513.321 296.718 514.06C295.601 514.798 294.729 515.873 294.104 517.284C293.479 518.686 293.167 520.4 293.167 522.426C293.167 524.453 293.475 526.176 294.09 527.597C294.706 529.017 295.577 530.101 296.704 530.849C297.831 531.588 299.161 531.957 300.695 531.957C302.087 531.957 303.276 531.711 304.261 531.219C305.255 530.717 306.013 530.011 306.533 529.102C307.064 528.193 307.329 527.118 307.329 525.878L308.579 526.062H301.079V521.432H313.252V525.097C313.252 527.653 312.712 529.85 311.633 531.688C310.553 533.515 309.067 534.926 307.173 535.92C305.279 536.905 303.11 537.398 300.667 537.398C297.94 537.398 295.544 536.796 293.479 535.594C291.415 534.382 289.805 532.663 288.65 530.438C287.504 528.203 286.931 525.551 286.931 522.483C286.931 520.125 287.272 518.023 287.954 516.176C288.645 514.32 289.611 512.748 290.852 511.46C292.092 510.172 293.536 509.192 295.184 508.52C296.832 507.848 298.617 507.511 300.539 507.511C302.187 507.511 303.721 507.753 305.141 508.236C306.562 508.709 307.821 509.382 308.92 510.253C310.028 511.124 310.932 512.161 311.633 513.364C312.334 514.557 312.783 515.873 312.982 517.312H306.732ZM317.872 537V507.909H329.52C331.66 507.909 333.445 508.226 334.875 508.861C336.305 509.495 337.38 510.376 338.099 511.503C338.819 512.62 339.179 513.908 339.179 515.366C339.179 516.503 338.952 517.502 338.497 518.364C338.043 519.216 337.418 519.917 336.622 520.466C335.836 521.006 334.937 521.389 333.923 521.616V521.901C335.031 521.948 336.068 522.26 337.034 522.838C338.009 523.416 338.8 524.225 339.406 525.267C340.012 526.299 340.315 527.53 340.315 528.96C340.315 530.504 339.932 531.882 339.165 533.094C338.407 534.296 337.285 535.248 335.798 535.949C334.312 536.65 332.479 537 330.301 537H317.872ZM324.023 531.972H329.037C330.751 531.972 332.001 531.645 332.787 530.991C333.573 530.329 333.966 529.448 333.966 528.349C333.966 527.545 333.772 526.834 333.384 526.219C332.995 525.603 332.441 525.12 331.722 524.77C331.011 524.42 330.164 524.244 329.179 524.244H324.023V531.972ZM324.023 520.082H328.582C329.425 520.082 330.173 519.936 330.827 519.642C331.49 519.339 332.01 518.913 332.389 518.364C332.777 517.814 332.972 517.156 332.972 516.389C332.972 515.338 332.598 514.491 331.849 513.847C331.111 513.203 330.06 512.881 328.696 512.881H324.023V520.082Z" fill="white"/>
<line x1="386" y1="451" x2="386" y2="593" stroke="#DBDBDB" stroke-width="2"/>
<line x1="386" y1="630" x2="386" y2="679" stroke="white" stroke-width="2"/>
<line x1="386" y1="365" x2="386" y2="414" stroke="white" stroke-width="2"/>
<line x1="209" y1="365" x2="209" y2="414" stroke="white" stroke-width="2"/>
<line x1="1297" y1="630" x2="1297" y2="679" stroke="white" stroke-width="2"/>
<line x1="385" y1="679" x2="1298" y2="679" stroke="white" stroke-width="2"/>
<line x1="385" y1="366" x2="208" y2="366" stroke="white" stroke-width="2"/>
<defs>
<linearGradient id="paint0_linear_111_216" x1="206" y1="522" x2="1296" y2="522" gradientUnits="userSpaceOnUse">
<stop stop-color="#636363" stop-opacity="0.1"/>
<stop offset="1" stop-color="#A2A2A2" stop-opacity="0.1"/>
</linearGradient>
<linearGradient id="paint1_linear_111_216" x1="208" y1="72" x2="1298" y2="72" gradientUnits="userSpaceOnUse">
<stop stop-color="#636363" stop-opacity="0.1"/>
<stop offset="1" stop-color="#A2A2A2" stop-opacity="0.1"/>
</linearGradient>
</defs>
</svg>
