<svg width="643" height="357" viewBox="0 0 643 357" fill="none" xmlns="http://www.w3.org/2000/svg">
<path d="M79.3651 83.5455V101H77.2514V85.7614H77.1491L72.8878 88.5909V86.4432L77.2514 83.5455H79.3651ZM90.0781 101.239C88.794 101.239 87.7003 100.889 86.7969 100.19C85.8935 99.4858 85.2031 98.4659 84.7259 97.1307C84.2486 95.7898 84.0099 94.1705 84.0099 92.2727C84.0099 90.3864 84.2486 88.7756 84.7259 87.4403C85.2088 86.0994 85.902 85.0767 86.8054 84.3722C87.7145 83.6619 88.8054 83.3068 90.0781 83.3068C91.3509 83.3068 92.4389 83.6619 93.3423 84.3722C94.2514 85.0767 94.9446 86.0994 95.4219 87.4403C95.9048 88.7756 96.1463 90.3864 96.1463 92.2727C96.1463 94.1705 95.9077 95.7898 95.4304 97.1307C94.9531 98.4659 94.2628 99.4858 93.3594 100.19C92.456 100.889 91.3622 101.239 90.0781 101.239ZM90.0781 99.3636C91.3509 99.3636 92.3395 98.75 93.044 97.5227C93.7486 96.2955 94.1009 94.5455 94.1009 92.2727C94.1009 90.7614 93.9389 89.4744 93.6151 88.4119C93.2969 87.3494 92.8366 86.5398 92.2344 85.983C91.6378 85.4261 90.919 85.1477 90.0781 85.1477C88.8168 85.1477 87.831 85.7699 87.1207 87.0142C86.4105 88.2528 86.0554 90.0057 86.0554 92.2727C86.0554 93.7841 86.2145 95.0682 86.5327 96.125C86.8509 97.1818 87.3082 97.9858 87.9048 98.5369C88.5071 99.0881 89.2315 99.3636 90.0781 99.3636Z" fill="white"/>
<path d="M84.5 171.239C83.2159 171.239 82.1222 170.889 81.2188 170.19C80.3153 169.486 79.625 168.466 79.1477 167.131C78.6705 165.79 78.4318 164.17 78.4318 162.273C78.4318 160.386 78.6705 158.776 79.1477 157.44C79.6307 156.099 80.3239 155.077 81.2273 154.372C82.1364 153.662 83.2273 153.307 84.5 153.307C85.7727 153.307 86.8608 153.662 87.7642 154.372C88.6733 155.077 89.3665 156.099 89.8438 157.44C90.3267 158.776 90.5682 160.386 90.5682 162.273C90.5682 164.17 90.3295 165.79 89.8523 167.131C89.375 168.466 88.6847 169.486 87.7812 170.19C86.8778 170.889 85.7841 171.239 84.5 171.239ZM84.5 169.364C85.7727 169.364 86.7614 168.75 87.4659 167.523C88.1705 166.295 88.5227 164.545 88.5227 162.273C88.5227 160.761 88.3608 159.474 88.0369 158.412C87.7188 157.349 87.2585 156.54 86.6562 155.983C86.0597 155.426 85.3409 155.148 84.5 155.148C83.2386 155.148 82.2528 155.77 81.5426 157.014C80.8324 158.253 80.4773 160.006 80.4773 162.273C80.4773 163.784 80.6364 165.068 80.9545 166.125C81.2727 167.182 81.7301 167.986 82.3267 168.537C82.929 169.088 83.6534 169.364 84.5 169.364Z" fill="#727272"/>
<path d="M545.041 101V99.4659L550.803 93.1591C551.479 92.4205 552.036 91.7784 552.473 91.233C552.911 90.6818 553.234 90.1648 553.445 89.6818C553.661 89.1932 553.768 88.6818 553.768 88.1477C553.768 87.5341 553.621 87.0028 553.325 86.554C553.036 86.1051 552.638 85.7585 552.132 85.5142C551.626 85.2699 551.058 85.1477 550.428 85.1477C549.757 85.1477 549.172 85.2869 548.672 85.5653C548.178 85.8381 547.794 86.2216 547.521 86.7159C547.254 87.2102 547.121 87.7898 547.121 88.4545H545.109C545.109 87.4318 545.345 86.5341 545.817 85.7614C546.288 84.9886 546.93 84.3864 547.743 83.9545C548.561 83.5227 549.479 83.3068 550.496 83.3068C551.518 83.3068 552.425 83.5227 553.214 83.9545C554.004 84.3864 554.624 84.9687 555.072 85.7017C555.521 86.4347 555.746 87.25 555.746 88.1477C555.746 88.7898 555.629 89.4176 555.396 90.0312C555.169 90.6392 554.771 91.3182 554.203 92.0682C553.641 92.8125 552.859 93.7216 551.859 94.7955L547.939 98.9886V99.125H556.053V101H545.041ZM565.266 101.239C563.982 101.239 562.888 100.889 561.984 100.19C561.081 99.4858 560.391 98.4659 559.913 97.1307C559.436 95.7898 559.197 94.1705 559.197 92.2727C559.197 90.3864 559.436 88.7756 559.913 87.4403C560.396 86.0994 561.089 85.0767 561.993 84.3722C562.902 83.6619 563.993 83.3068 565.266 83.3068C566.538 83.3068 567.626 83.6619 568.53 84.3722C569.439 85.0767 570.132 86.0994 570.609 87.4403C571.092 88.7756 571.334 90.3864 571.334 92.2727C571.334 94.1705 571.095 95.7898 570.618 97.1307C570.141 98.4659 569.45 99.4858 568.547 100.19C567.643 100.889 566.55 101.239 565.266 101.239ZM565.266 99.3636C566.538 99.3636 567.527 98.75 568.232 97.5227C568.936 96.2955 569.288 94.5455 569.288 92.2727C569.288 90.7614 569.126 89.4744 568.803 88.4119C568.484 87.3494 568.024 86.5398 567.422 85.983C566.825 85.4261 566.107 85.1477 565.266 85.1477C564.004 85.1477 563.018 85.7699 562.308 87.0142C561.598 88.2528 561.243 90.0057 561.243 92.2727C561.243 93.7841 561.402 95.0682 561.72 96.125C562.038 97.1818 562.496 97.9858 563.092 98.5369C563.695 99.0881 564.419 99.3636 565.266 99.3636Z" fill="white"/>
<path d="M553.365 153.545V171H551.251V155.761H551.149L546.888 158.591V156.443L551.251 153.545H553.365ZM564.078 171.239C562.794 171.239 561.7 170.889 560.797 170.19C559.893 169.486 559.203 168.466 558.726 167.131C558.249 165.79 558.01 164.17 558.01 162.273C558.01 160.386 558.249 158.776 558.726 157.44C559.209 156.099 559.902 155.077 560.805 154.372C561.714 153.662 562.805 153.307 564.078 153.307C565.351 153.307 566.439 153.662 567.342 154.372C568.251 155.077 568.945 156.099 569.422 157.44C569.905 158.776 570.146 160.386 570.146 162.273C570.146 164.17 569.908 165.79 569.43 167.131C568.953 168.466 568.263 169.486 567.359 170.19C566.456 170.889 565.362 171.239 564.078 171.239ZM564.078 169.364C565.351 169.364 566.339 168.75 567.044 167.523C567.749 166.295 568.101 164.545 568.101 162.273C568.101 160.761 567.939 159.474 567.615 158.412C567.297 157.349 566.837 156.54 566.234 155.983C565.638 155.426 564.919 155.148 564.078 155.148C562.817 155.148 561.831 155.77 561.121 157.014C560.411 158.253 560.055 160.006 560.055 162.273C560.055 163.784 560.214 165.068 560.533 166.125C560.851 167.182 561.308 167.986 561.905 168.537C562.507 169.088 563.232 169.364 564.078 169.364Z" fill="#727272"/>
<path d="M126.287 52.5455V70H124.173V54.7614H124.071L119.81 57.5909V55.4432L124.173 52.5455H126.287ZM137.443 52.5455V70H135.33V54.7614H135.227L130.966 57.5909V55.4432L135.33 52.5455H137.443Z" fill="white"/>
<path d="M131.365 153.545V171H129.251V155.761H129.149L124.888 158.591V156.443L129.251 153.545H131.365Z" fill="#727272"/>
<path d="M169.099 66.5455V84H166.986V68.7614H166.884L162.622 71.5909V69.4432L166.986 66.5455H169.099ZM174.119 84V82.4659L179.881 76.1591C180.557 75.4205 181.114 74.7784 181.551 74.233C181.989 73.6818 182.313 73.1648 182.523 72.6818C182.739 72.1932 182.847 71.6818 182.847 71.1477C182.847 70.5341 182.699 70.0028 182.403 69.554C182.114 69.1051 181.716 68.7585 181.21 68.5142C180.705 68.2699 180.136 68.1477 179.506 68.1477C178.835 68.1477 178.25 68.2869 177.75 68.5653C177.256 68.8381 176.872 69.2216 176.599 69.7159C176.332 70.2102 176.199 70.7898 176.199 71.4545H174.188C174.188 70.4318 174.423 69.5341 174.895 68.7614C175.366 67.9886 176.009 67.3864 176.821 66.9545C177.639 66.5227 178.557 66.3068 179.574 66.3068C180.597 66.3068 181.503 66.5227 182.293 66.9545C183.082 67.3864 183.702 67.9687 184.151 68.7017C184.599 69.4347 184.824 70.25 184.824 71.1477C184.824 71.7898 184.707 72.4176 184.474 73.0312C184.247 73.6392 183.849 74.3182 183.281 75.0682C182.719 75.8125 181.938 76.7216 180.938 77.7955L177.017 81.9886V82.125H185.131V84H174.119Z" fill="white"/>
<path d="M169.041 171V169.466L174.803 163.159C175.479 162.42 176.036 161.778 176.473 161.233C176.911 160.682 177.234 160.165 177.445 159.682C177.661 159.193 177.768 158.682 177.768 158.148C177.768 157.534 177.621 157.003 177.325 156.554C177.036 156.105 176.638 155.759 176.132 155.514C175.626 155.27 175.058 155.148 174.428 155.148C173.757 155.148 173.172 155.287 172.672 155.565C172.178 155.838 171.794 156.222 171.521 156.716C171.254 157.21 171.121 157.79 171.121 158.455H169.109C169.109 157.432 169.345 156.534 169.817 155.761C170.288 154.989 170.93 154.386 171.743 153.955C172.561 153.523 173.479 153.307 174.496 153.307C175.518 153.307 176.425 153.523 177.214 153.955C178.004 154.386 178.624 154.969 179.072 155.702C179.521 156.435 179.746 157.25 179.746 158.148C179.746 158.79 179.629 159.418 179.396 160.031C179.169 160.639 178.771 161.318 178.203 162.068C177.641 162.812 176.859 163.722 175.859 164.795L171.939 168.989V169.125H180.053V171H169.041Z" fill="#727272"/>
<path d="M214.224 52.5455V70H212.111V54.7614H212.009L207.747 57.5909V55.4432L212.111 52.5455H214.224ZM225.142 70.2386C224.017 70.2386 223.014 70.0455 222.134 69.6591C221.259 69.2727 220.563 68.7358 220.045 68.0483C219.534 67.3551 219.256 66.5511 219.21 65.6364H221.358C221.403 66.1989 221.597 66.6847 221.938 67.0938C222.278 67.4972 222.724 67.8097 223.276 68.0312C223.827 68.2528 224.438 68.3636 225.108 68.3636C225.858 68.3636 226.523 68.233 227.102 67.9716C227.682 67.7102 228.136 67.3466 228.466 66.8807C228.795 66.4148 228.96 65.875 228.96 65.2614C228.96 64.6193 228.801 64.054 228.483 63.5653C228.165 63.071 227.699 62.6847 227.085 62.4062C226.472 62.1278 225.722 61.9886 224.835 61.9886H223.438V60.1136H224.835C225.528 60.1136 226.136 59.9886 226.659 59.7386C227.188 59.4886 227.599 59.1364 227.895 58.6818C228.196 58.2273 228.347 57.6932 228.347 57.0795C228.347 56.4886 228.216 55.9744 227.955 55.5369C227.693 55.0994 227.324 54.7585 226.847 54.5142C226.375 54.2699 225.818 54.1477 225.176 54.1477C224.574 54.1477 224.006 54.2585 223.472 54.4801C222.943 54.696 222.511 55.0114 222.176 55.4261C221.841 55.8352 221.659 56.3295 221.631 56.9091H219.585C219.619 55.9943 219.895 55.1932 220.412 54.5057C220.929 53.8125 221.605 53.2727 222.44 52.8864C223.281 52.5 224.205 52.3068 225.21 52.3068C226.29 52.3068 227.216 52.5256 227.989 52.9631C228.761 53.3949 229.355 53.9659 229.77 54.6761C230.185 55.3864 230.392 56.1534 230.392 56.9773C230.392 57.9602 230.134 58.7983 229.616 59.4915C229.105 60.1847 228.409 60.6648 227.528 60.9318V61.0682C228.631 61.25 229.491 61.7187 230.111 62.4744C230.73 63.2244 231.04 64.1534 231.04 65.2614C231.04 66.2102 230.781 67.0625 230.264 67.8182C229.753 68.5682 229.054 69.1591 228.168 69.5909C227.281 70.0227 226.273 70.2386 225.142 70.2386Z" fill="white"/>
<path d="M219.064 171.239C217.939 171.239 216.936 171.045 216.055 170.659C215.18 170.273 214.484 169.736 213.967 169.048C213.456 168.355 213.178 167.551 213.132 166.636H215.28C215.325 167.199 215.518 167.685 215.859 168.094C216.2 168.497 216.646 168.81 217.197 169.031C217.749 169.253 218.359 169.364 219.03 169.364C219.78 169.364 220.445 169.233 221.024 168.972C221.604 168.71 222.058 168.347 222.388 167.881C222.717 167.415 222.882 166.875 222.882 166.261C222.882 165.619 222.723 165.054 222.405 164.565C222.087 164.071 221.621 163.685 221.007 163.406C220.393 163.128 219.643 162.989 218.757 162.989H217.359V161.114H218.757C219.45 161.114 220.058 160.989 220.581 160.739C221.109 160.489 221.521 160.136 221.817 159.682C222.118 159.227 222.268 158.693 222.268 158.08C222.268 157.489 222.138 156.974 221.876 156.537C221.615 156.099 221.246 155.759 220.768 155.514C220.297 155.27 219.74 155.148 219.098 155.148C218.496 155.148 217.928 155.259 217.393 155.48C216.865 155.696 216.433 156.011 216.098 156.426C215.763 156.835 215.581 157.33 215.553 157.909H213.507C213.541 156.994 213.817 156.193 214.334 155.506C214.851 154.812 215.527 154.273 216.362 153.886C217.203 153.5 218.126 153.307 219.132 153.307C220.212 153.307 221.138 153.526 221.911 153.963C222.683 154.395 223.277 154.966 223.692 155.676C224.107 156.386 224.314 157.153 224.314 157.977C224.314 158.96 224.055 159.798 223.538 160.491C223.027 161.185 222.331 161.665 221.45 161.932V162.068C222.553 162.25 223.413 162.719 224.033 163.474C224.652 164.224 224.962 165.153 224.962 166.261C224.962 167.21 224.703 168.062 224.186 168.818C223.675 169.568 222.976 170.159 222.089 170.591C221.203 171.023 220.195 171.239 219.064 171.239Z" fill="#727272"/>
<path d="M258.166 63.5455V81H256.052V65.7614H255.95L251.689 68.5909V66.4432L256.052 63.5455H258.166ZM262.777 77.4205V75.6818L270.447 63.5455H271.708V66.2386H270.856L265.061 75.4091V75.5455H275.39V77.4205H262.777ZM270.993 81V76.892V76.0824V63.5455H273.004V81H270.993Z" fill="white"/>
<path d="M256.699 167.42V165.682L264.369 153.545H265.63V156.239H264.778L258.983 165.409V165.545H269.312V167.42H256.699ZM264.914 171V166.892V166.082V153.545H266.926V171H264.914Z" fill="#727272"/>
<path d="M312.064 23.5455V41H309.951V25.7614H309.848L305.587 28.5909V26.4432L309.951 23.5455H312.064ZM322.539 41.2386C321.539 41.2386 320.638 41.0398 319.837 40.642C319.036 40.2443 318.394 39.6989 317.911 39.0057C317.428 38.3125 317.164 37.5227 317.118 36.6364H319.164C319.243 37.4261 319.601 38.0795 320.238 38.5966C320.88 39.108 321.647 39.3636 322.539 39.3636C323.255 39.3636 323.891 39.196 324.448 38.8608C325.01 38.5256 325.451 38.0653 325.769 37.4801C326.093 36.8892 326.255 36.2216 326.255 35.4773C326.255 34.7159 326.087 34.0369 325.752 33.4403C325.422 32.8381 324.968 32.3636 324.388 32.017C323.809 31.6705 323.147 31.4943 322.402 31.4886C321.868 31.483 321.32 31.5653 320.757 31.7358C320.195 31.9006 319.732 32.1136 319.368 32.375L317.391 32.1364L318.448 23.5455H327.516V25.4205H320.221L319.607 30.5682H319.709C320.067 30.2841 320.516 30.0483 321.056 29.8608C321.596 29.6733 322.158 29.5795 322.743 29.5795C323.811 29.5795 324.763 29.8352 325.598 30.3466C326.439 30.8523 327.098 31.5455 327.576 32.4261C328.059 33.3068 328.3 34.3125 328.3 35.4432C328.3 36.5568 328.05 37.5511 327.55 38.4261C327.056 39.2955 326.374 39.983 325.505 40.4886C324.635 40.9886 323.647 41.2386 322.539 41.2386Z" fill="white"/>
<path d="M317.461 171.239C316.461 171.239 315.56 171.04 314.759 170.642C313.958 170.244 313.316 169.699 312.833 169.006C312.35 168.312 312.086 167.523 312.04 166.636H314.086C314.165 167.426 314.523 168.08 315.159 168.597C315.801 169.108 316.569 169.364 317.461 169.364C318.176 169.364 318.813 169.196 319.37 168.861C319.932 168.526 320.373 168.065 320.691 167.48C321.015 166.889 321.176 166.222 321.176 165.477C321.176 164.716 321.009 164.037 320.674 163.44C320.344 162.838 319.89 162.364 319.31 162.017C318.73 161.67 318.069 161.494 317.324 161.489C316.79 161.483 316.242 161.565 315.679 161.736C315.117 161.901 314.654 162.114 314.29 162.375L312.313 162.136L313.37 153.545H322.438V155.42H315.142L314.529 160.568H314.631C314.989 160.284 315.438 160.048 315.978 159.861C316.517 159.673 317.08 159.58 317.665 159.58C318.733 159.58 319.685 159.835 320.52 160.347C321.361 160.852 322.02 161.545 322.498 162.426C322.98 163.307 323.222 164.312 323.222 165.443C323.222 166.557 322.972 167.551 322.472 168.426C321.978 169.295 321.296 169.983 320.426 170.489C319.557 170.989 318.569 171.239 317.461 171.239Z" fill="#727272"/>
<path d="M368.377 52.5455V70H366.263V54.7614H366.161L361.9 57.5909V55.4432L366.263 52.5455H368.377ZM379.192 70.2386C378.476 70.2273 377.76 70.0909 377.044 69.8295C376.328 69.5682 375.675 69.1278 375.084 68.5085C374.493 67.8835 374.019 67.0398 373.661 65.9773C373.303 64.9091 373.124 63.5682 373.124 61.9545C373.124 60.4091 373.269 59.0398 373.559 57.8466C373.848 56.6477 374.269 55.6392 374.82 54.821C375.371 53.9972 376.036 53.3722 376.814 52.946C377.598 52.5199 378.482 52.3068 379.465 52.3068C380.442 52.3068 381.311 52.5028 382.073 52.8949C382.84 53.2812 383.465 53.821 383.948 54.5142C384.431 55.2074 384.743 56.0057 384.885 56.9091H382.806C382.613 56.125 382.238 55.4744 381.681 54.9574C381.124 54.4403 380.385 54.1818 379.465 54.1818C378.113 54.1818 377.047 54.7699 376.269 55.946C375.496 57.1222 375.107 58.7727 375.101 60.8977H375.238C375.556 60.4148 375.934 60.0028 376.371 59.6619C376.814 59.3153 377.303 59.0483 377.837 58.8608C378.371 58.6733 378.936 58.5795 379.533 58.5795C380.533 58.5795 381.448 58.8295 382.277 59.3295C383.107 59.8239 383.772 60.5085 384.272 61.3835C384.772 62.2528 385.022 63.25 385.022 64.375C385.022 65.4545 384.78 66.4432 384.297 67.3409C383.814 68.233 383.135 68.9432 382.26 69.4716C381.391 69.9943 380.368 70.25 379.192 70.2386ZM379.192 68.3636C379.908 68.3636 380.55 68.1847 381.118 67.8267C381.692 67.4687 382.144 66.9886 382.473 66.3864C382.809 65.7841 382.976 65.1136 382.976 64.375C382.976 63.6534 382.814 62.9972 382.49 62.4062C382.172 61.8097 381.732 61.3352 381.169 60.983C380.613 60.6307 379.976 60.4545 379.26 60.4545C378.721 60.4545 378.218 60.5625 377.752 60.7784C377.286 60.9886 376.877 61.2784 376.525 61.6477C376.178 62.017 375.905 62.4403 375.706 62.9176C375.507 63.3892 375.408 63.8864 375.408 64.4091C375.408 65.1023 375.57 65.75 375.894 66.3523C376.223 66.9545 376.672 67.4403 377.24 67.8097C377.814 68.179 378.465 68.3636 379.192 68.3636Z" fill="white"/>
<path d="M373.614 171.239C372.898 171.227 372.182 171.091 371.466 170.83C370.75 170.568 370.097 170.128 369.506 169.509C368.915 168.884 368.441 168.04 368.083 166.977C367.725 165.909 367.546 164.568 367.546 162.955C367.546 161.409 367.691 160.04 367.98 158.847C368.27 157.648 368.691 156.639 369.242 155.821C369.793 154.997 370.458 154.372 371.236 153.946C372.02 153.52 372.904 153.307 373.887 153.307C374.864 153.307 375.733 153.503 376.495 153.895C377.262 154.281 377.887 154.821 378.37 155.514C378.853 156.207 379.165 157.006 379.307 157.909H377.228C377.034 157.125 376.659 156.474 376.103 155.957C375.546 155.44 374.807 155.182 373.887 155.182C372.534 155.182 371.469 155.77 370.691 156.946C369.918 158.122 369.529 159.773 369.523 161.898H369.659C369.978 161.415 370.355 161.003 370.793 160.662C371.236 160.315 371.725 160.048 372.259 159.861C372.793 159.673 373.358 159.58 373.955 159.58C374.955 159.58 375.87 159.83 376.699 160.33C377.529 160.824 378.194 161.509 378.694 162.384C379.194 163.253 379.444 164.25 379.444 165.375C379.444 166.455 379.202 167.443 378.719 168.341C378.236 169.233 377.557 169.943 376.682 170.472C375.813 170.994 374.79 171.25 373.614 171.239ZM373.614 169.364C374.33 169.364 374.972 169.185 375.54 168.827C376.114 168.469 376.566 167.989 376.895 167.386C377.23 166.784 377.398 166.114 377.398 165.375C377.398 164.653 377.236 163.997 376.912 163.406C376.594 162.81 376.154 162.335 375.591 161.983C375.034 161.631 374.398 161.455 373.682 161.455C373.142 161.455 372.64 161.562 372.174 161.778C371.708 161.989 371.299 162.278 370.946 162.648C370.6 163.017 370.327 163.44 370.128 163.918C369.929 164.389 369.83 164.886 369.83 165.409C369.83 166.102 369.992 166.75 370.316 167.352C370.645 167.955 371.094 168.44 371.662 168.81C372.236 169.179 372.887 169.364 373.614 169.364Z" fill="#727272"/>
<path d="M418.01 99.5455V117H415.896V101.761H415.794L411.532 104.591V102.443L415.896 99.5455H418.01ZM423.575 117L431.382 101.557V101.42H422.382V99.5455H433.564V101.523L425.791 117H423.575Z" fill="white"/>
<path d="M417.497 171L425.304 155.557V155.42H416.304V153.545H427.485V155.523L419.713 171H417.497Z" fill="#727272"/>
<path d="M464.971 66.5455V84H462.857V68.7614H462.755L458.493 71.5909V69.4432L462.857 66.5455H464.971ZM475.581 84.2386C474.411 84.2386 473.377 84.0312 472.479 83.6165C471.587 83.196 470.891 82.6193 470.391 81.8864C469.891 81.1477 469.644 80.3068 469.65 79.3636C469.644 78.625 469.789 77.9432 470.084 77.3182C470.38 76.6875 470.783 76.1619 471.294 75.7415C471.811 75.3153 472.388 75.0455 473.025 74.9318V74.8295C472.189 74.6136 471.525 74.1449 471.03 73.4233C470.536 72.696 470.292 71.8693 470.297 70.9432C470.292 70.0568 470.516 69.2642 470.971 68.5653C471.425 67.8665 472.05 67.3153 472.846 66.9119C473.647 66.5085 474.559 66.3068 475.581 66.3068C476.593 66.3068 477.496 66.5085 478.292 66.9119C479.087 67.3153 479.712 67.8665 480.167 68.5653C480.627 69.2642 480.86 70.0568 480.865 70.9432C480.86 71.8693 480.607 72.696 480.107 73.4233C479.613 74.1449 478.956 74.6136 478.138 74.8295V74.9318C478.769 75.0455 479.337 75.3153 479.843 75.7415C480.348 76.1619 480.752 76.6875 481.053 77.3182C481.354 77.9432 481.507 78.625 481.513 79.3636C481.507 80.3068 481.252 81.1477 480.746 81.8864C480.246 82.6193 479.55 83.196 478.658 83.6165C477.772 84.0312 476.746 84.2386 475.581 84.2386ZM475.581 82.3636C476.371 82.3636 477.053 82.2358 477.627 81.9801C478.201 81.7244 478.644 81.3636 478.956 80.8977C479.269 80.4318 479.428 79.8864 479.434 79.2614C479.428 78.6023 479.257 78.0199 478.922 77.5142C478.587 77.0085 478.13 76.6108 477.55 76.321C476.976 76.0312 476.32 75.8864 475.581 75.8864C474.837 75.8864 474.172 76.0312 473.587 76.321C473.007 76.6108 472.55 77.0085 472.215 77.5142C471.885 78.0199 471.723 78.6023 471.729 79.2614C471.723 79.8864 471.874 80.4318 472.181 80.8977C472.493 81.3636 472.939 81.7244 473.519 81.9801C474.098 82.2358 474.786 82.3636 475.581 82.3636ZM475.581 74.0795C476.206 74.0795 476.76 73.9545 477.243 73.7045C477.732 73.4545 478.115 73.1051 478.394 72.6562C478.672 72.2074 478.814 71.6818 478.82 71.0795C478.814 70.4886 478.675 69.9744 478.402 69.5369C478.13 69.0937 477.752 68.7528 477.269 68.5142C476.786 68.2699 476.223 68.1477 475.581 68.1477C474.928 68.1477 474.357 68.2699 473.868 68.5142C473.38 68.7528 473.002 69.0937 472.735 69.5369C472.468 69.9744 472.337 70.4886 472.343 71.0795C472.337 71.6818 472.471 72.2074 472.743 72.6562C473.022 73.1051 473.405 73.4545 473.894 73.7045C474.382 73.9545 474.945 74.0795 475.581 74.0795Z" fill="white"/>
<path d="M470.503 171.239C469.333 171.239 468.299 171.031 467.401 170.616C466.509 170.196 465.813 169.619 465.313 168.886C464.813 168.148 464.566 167.307 464.571 166.364C464.566 165.625 464.711 164.943 465.006 164.318C465.301 163.687 465.705 163.162 466.216 162.741C466.733 162.315 467.31 162.045 467.946 161.932V161.83C467.111 161.614 466.446 161.145 465.952 160.423C465.458 159.696 465.213 158.869 465.219 157.943C465.213 157.057 465.438 156.264 465.892 155.565C466.347 154.866 466.972 154.315 467.767 153.912C468.569 153.509 469.48 153.307 470.503 153.307C471.515 153.307 472.418 153.509 473.213 153.912C474.009 154.315 474.634 154.866 475.088 155.565C475.549 156.264 475.782 157.057 475.787 157.943C475.782 158.869 475.529 159.696 475.029 160.423C474.534 161.145 473.878 161.614 473.06 161.83V161.932C473.691 162.045 474.259 162.315 474.765 162.741C475.27 163.162 475.674 163.687 475.975 164.318C476.276 164.943 476.429 165.625 476.435 166.364C476.429 167.307 476.174 168.148 475.668 168.886C475.168 169.619 474.472 170.196 473.58 170.616C472.694 171.031 471.668 171.239 470.503 171.239ZM470.503 169.364C471.293 169.364 471.975 169.236 472.549 168.98C473.123 168.724 473.566 168.364 473.878 167.898C474.191 167.432 474.35 166.886 474.355 166.261C474.35 165.602 474.179 165.02 473.844 164.514C473.509 164.009 473.051 163.611 472.472 163.321C471.898 163.031 471.242 162.886 470.503 162.886C469.759 162.886 469.094 163.031 468.509 163.321C467.929 163.611 467.472 164.009 467.137 164.514C466.807 165.02 466.645 165.602 466.651 166.261C466.645 166.886 466.796 167.432 467.103 167.898C467.415 168.364 467.861 168.724 468.441 168.98C469.02 169.236 469.708 169.364 470.503 169.364ZM470.503 161.08C471.128 161.08 471.682 160.955 472.165 160.705C472.654 160.455 473.037 160.105 473.316 159.656C473.594 159.207 473.736 158.682 473.742 158.08C473.736 157.489 473.597 156.974 473.324 156.537C473.051 156.094 472.674 155.753 472.191 155.514C471.708 155.27 471.145 155.148 470.503 155.148C469.85 155.148 469.279 155.27 468.79 155.514C468.301 155.753 467.924 156.094 467.657 156.537C467.39 156.974 467.259 157.489 467.265 158.08C467.259 158.682 467.392 159.207 467.665 159.656C467.944 160.105 468.327 160.455 468.816 160.705C469.304 160.955 469.867 161.08 470.503 161.08Z" fill="#727272"/>
<path d="M507.377 52.5455V70H505.263V54.7614H505.161L500.9 57.5909V55.4432L505.263 52.5455H507.377ZM517.953 52.3068C518.669 52.3125 519.385 52.4489 520.101 52.7159C520.817 52.983 521.471 53.4261 522.061 54.0455C522.652 54.6591 523.127 55.4972 523.485 56.5597C523.843 57.6222 524.022 58.9545 524.022 60.5568C524.022 62.108 523.874 63.4858 523.578 64.6903C523.289 65.8892 522.868 66.9006 522.317 67.7244C521.772 68.5483 521.107 69.1733 520.323 69.5994C519.544 70.0256 518.664 70.2386 517.681 70.2386C516.703 70.2386 515.831 70.0455 515.064 69.6591C514.303 69.267 513.678 68.7244 513.189 68.0312C512.706 67.3324 512.397 66.5227 512.26 65.6023H514.34C514.527 66.4034 514.9 67.0653 515.456 67.5881C516.019 68.1051 516.76 68.3636 517.681 68.3636C519.027 68.3636 520.09 67.7756 520.868 66.5994C521.652 65.4233 522.044 63.7614 522.044 61.6136H521.908C521.59 62.0909 521.212 62.5028 520.775 62.8494C520.337 63.196 519.851 63.4631 519.317 63.6506C518.783 63.8381 518.215 63.9318 517.613 63.9318C516.613 63.9318 515.695 63.6847 514.86 63.1903C514.03 62.6903 513.365 62.0057 512.865 61.1364C512.371 60.2614 512.124 59.2614 512.124 58.1364C512.124 57.0682 512.363 56.0909 512.84 55.2045C513.323 54.3125 513.999 53.6023 514.868 53.0739C515.743 52.5455 516.772 52.2898 517.953 52.3068ZM517.953 54.1818C517.238 54.1818 516.593 54.3608 516.019 54.7188C515.451 55.071 514.999 55.5483 514.664 56.1506C514.334 56.7472 514.169 57.4091 514.169 58.1364C514.169 58.8636 514.328 59.5256 514.647 60.1222C514.971 60.7131 515.411 61.1847 515.968 61.5369C516.53 61.8835 517.169 62.0568 517.885 62.0568C518.425 62.0568 518.928 61.9517 519.394 61.7415C519.86 61.5256 520.266 61.233 520.613 60.8636C520.965 60.4886 521.24 60.0653 521.439 59.5938C521.638 59.1165 521.738 58.6193 521.738 58.1023C521.738 57.4205 521.573 56.7812 521.243 56.1847C520.919 55.5881 520.471 55.1051 519.897 54.7358C519.328 54.3665 518.681 54.1818 517.953 54.1818Z" fill="white"/>
<path d="M512.375 153.307C513.091 153.312 513.807 153.449 514.523 153.716C515.239 153.983 515.892 154.426 516.483 155.045C517.074 155.659 517.549 156.497 517.907 157.56C518.265 158.622 518.444 159.955 518.444 161.557C518.444 163.108 518.296 164.486 518 165.69C517.711 166.889 517.29 167.901 516.739 168.724C516.194 169.548 515.529 170.173 514.745 170.599C513.966 171.026 513.086 171.239 512.103 171.239C511.125 171.239 510.253 171.045 509.486 170.659C508.725 170.267 508.1 169.724 507.611 169.031C507.128 168.332 506.819 167.523 506.682 166.602H508.762C508.949 167.403 509.321 168.065 509.878 168.588C510.441 169.105 511.182 169.364 512.103 169.364C513.449 169.364 514.512 168.776 515.29 167.599C516.074 166.423 516.466 164.761 516.466 162.614H516.33C516.012 163.091 515.634 163.503 515.196 163.849C514.759 164.196 514.273 164.463 513.739 164.651C513.205 164.838 512.637 164.932 512.034 164.932C511.034 164.932 510.117 164.685 509.282 164.19C508.452 163.69 507.787 163.006 507.287 162.136C506.793 161.261 506.546 160.261 506.546 159.136C506.546 158.068 506.784 157.091 507.262 156.205C507.745 155.312 508.421 154.602 509.29 154.074C510.165 153.545 511.194 153.29 512.375 153.307ZM512.375 155.182C511.659 155.182 511.015 155.361 510.441 155.719C509.873 156.071 509.421 156.548 509.086 157.151C508.756 157.747 508.591 158.409 508.591 159.136C508.591 159.864 508.75 160.526 509.069 161.122C509.392 161.713 509.833 162.185 510.39 162.537C510.952 162.884 511.591 163.057 512.307 163.057C512.847 163.057 513.35 162.952 513.816 162.741C514.282 162.526 514.688 162.233 515.034 161.864C515.387 161.489 515.662 161.065 515.861 160.594C516.06 160.116 516.159 159.619 516.159 159.102C516.159 158.42 515.995 157.781 515.665 157.185C515.341 156.588 514.892 156.105 514.319 155.736C513.75 155.366 513.103 155.182 512.375 155.182Z" fill="#727272"/>
<path d="M158.5 236.5V347C158.5 351.142 155.142 354.5 151 354.5H110C105.858 354.5 102.5 351.142 102.5 347V236.5H158.5Z" stroke="white" stroke-width="5"/>
<path d="M540.5 236.5V347C540.5 351.142 537.142 354.5 533 354.5H492C487.858 354.5 484.5 351.142 484.5 347V236.5H540.5Z" stroke="white" stroke-width="5"/>
<rect x="2.5" y="184.5" width="638" height="52" rx="7.5" stroke="white" stroke-width="5"/>
<rect x="126" y="279" width="9" height="42" rx="4.5" fill="#D9D9D9"/>
<rect x="508" y="279" width="9" height="42" rx="4.5" fill="#D9D9D9"/>
<rect x="126" y="254" width="9" height="16" rx="4.5" fill="#D9D9D9"/>
<rect x="508" y="254" width="9" height="16" rx="4.5" fill="#D9D9D9"/>
<circle cx="130.5" cy="334.5" r="4.5" fill="#D9D9D9"/>
<circle cx="512.5" cy="334.5" r="4.5" fill="#D9D9D9"/>
<line x1="2" y1="221.5" x2="640" y2="221.5" stroke="white" stroke-width="5"/>
<path d="M69 59.5H106.5V184.5H61.5V67C61.5 62.8579 64.8579 59.5 69 59.5Z" stroke="white" stroke-width="5"/>
<path d="M573 59.5H535.5V184.5H580.5V67C580.5 62.8579 577.142 59.5 573 59.5Z" stroke="white" stroke-width="5"/>
<path d="M114 34.5H144C148.142 34.5 151.5 37.8579 151.5 42V184.5H106.5V42C106.5 37.8579 109.858 34.5 114 34.5Z" stroke="white" stroke-width="5"/>
<path d="M204 34.5H234C238.142 34.5 241.5 37.8579 241.5 42V184.5H196.5V42C196.5 37.8579 199.858 34.5 204 34.5Z" stroke="white" stroke-width="5"/>
<path d="M498 34.5H528C532.142 34.5 535.5 37.8579 535.5 42V184.5H490.5V42C490.5 37.8579 493.858 34.5 498 34.5Z" stroke="white" stroke-width="5"/>
<path d="M388 34.5C392.142 34.5 395.5 37.8579 395.5 42V184.5H350.5V34.5H388Z" stroke="white" stroke-width="5"/>
<path d="M291 2.5H343C347.142 2.5 350.5 5.85786 350.5 10V184.5H283.5V10C283.5 5.85787 286.858 2.5 291 2.5Z" stroke="white" stroke-width="5"/>
<path d="M448.5 83.5V184.5H395.5V83.5H448.5Z" stroke="white" stroke-width="5"/>
<path d="M196.5 49.5V184.5H151.5V49.5H196.5Z" stroke="white" stroke-width="5"/>
<path d="M283.5 49.5V184.5H242.5V49.5H283.5Z" stroke="white" stroke-width="5"/>
<path d="M456 49.5H490.5V184.5H448.5V57C448.5 52.8579 451.858 49.5 456 49.5Z" stroke="white" stroke-width="5"/>
</svg>
