<svg width="796" height="490" viewBox="0 0 796 490" fill="none" xmlns="http://www.w3.org/2000/svg">
<path d="M7.18038 98.32C6.36971 98.32 5.61238 98.1067 4.90838 97.68C4.22571 97.232 3.67104 96.5493 3.24438 95.632C2.83904 94.6933 2.63638 93.4773 2.63638 91.984C2.63638 90.448 2.87104 88.9973 3.34038 87.632C3.83104 86.2667 4.50304 85.072 5.35638 84.048C6.20971 83.0027 7.21238 82.1813 8.36438 81.584C9.53771 80.9867 10.7964 80.688 12.1404 80.688C12.9724 80.688 13.8364 80.8267 14.7324 81.104C15.6284 81.3813 16.535 81.8293 17.4524 82.448L16.0764 82.224L16.7804 81.04H18.5084L15.9484 97.2L14.8604 95.184L18.5724 96.208L18.2844 97.968L13.0044 98.128L14.0284 92.048L14.9564 90.48C14.5084 92.2293 13.847 93.6907 12.9724 94.864C12.0977 96.016 11.1484 96.88 10.1244 97.456C9.10038 98.032 8.11904 98.32 7.18038 98.32ZM8.39638 95.76C8.92971 95.76 9.49504 95.6 10.0924 95.28C10.711 94.9387 11.2977 94.4373 11.8524 93.776C12.407 93.0933 12.8977 92.2507 13.3244 91.248C13.7724 90.2453 14.103 89.072 14.3164 87.728L15.0204 83.248L15.5644 84.336C14.9457 83.9093 14.3484 83.6 13.7724 83.408C13.1964 83.216 12.631 83.12 12.0764 83.12C11.159 83.12 10.3164 83.3547 9.54838 83.824C8.80171 84.2933 8.15104 84.9227 7.59638 85.712C7.04171 86.5013 6.60438 87.408 6.28438 88.432C5.98571 89.456 5.83638 90.5227 5.83638 91.632C5.83638 93.0613 6.08171 94.1067 6.57238 94.768C7.06304 95.4293 7.67104 95.76 8.39638 95.76ZM22.0576 98L24.6176 81.904L25.7056 83.856L22.0256 82.832L22.2816 81.136L27.7216 80.912L26.5376 86.928L25.5776 88.56C26.0043 86.896 26.6336 85.4773 27.4656 84.304C28.319 83.1307 29.2576 82.2453 30.2816 81.648C31.327 81.0293 32.351 80.72 33.3536 80.72C33.8656 80.72 34.303 80.7947 34.6656 80.944L33.8016 85.968H31.8496L31.8816 82.864L32.2976 83.216C31.7003 83.1733 31.0923 83.3227 30.4736 83.664C29.855 83.984 29.2576 84.4853 28.6816 85.168C28.127 85.8507 27.6363 86.6933 27.2096 87.696C26.783 88.6987 26.463 89.8507 26.2496 91.152L25.1936 98H22.0576ZM35.5264 98L38.0864 81.904L39.1744 83.856L35.4944 82.832L35.7504 81.136L41.1904 80.912L40.0064 86.928L39.0464 88.56C39.473 86.896 40.1024 85.4773 40.9344 84.304C41.7877 83.1307 42.7264 82.2453 43.7504 81.648C44.7957 81.0293 45.8197 80.72 46.8224 80.72C47.3344 80.72 47.7717 80.7947 48.1344 80.944L47.2704 85.968H45.3184L45.3504 82.864L45.7664 83.216C45.169 83.1733 44.561 83.3227 43.9424 83.664C43.3237 83.984 42.7264 84.4853 42.1504 85.168C41.5957 85.8507 41.105 86.6933 40.6784 87.696C40.2517 88.6987 39.9317 89.8507 39.7184 91.152L38.6624 98H35.5264ZM47.6229 101.36L52.4869 70.704L59.5269 70.864L59.2389 72.88L54.7909 73.04L50.6949 98.992L55.0789 99.184L54.7269 101.2L47.6229 101.36ZM69.5996 98.128L71.3916 87.12C71.5196 86.288 71.5196 85.584 71.3916 85.008C71.285 84.432 71.061 83.9947 70.7196 83.696C70.3996 83.3973 69.973 83.248 69.4396 83.248C68.9063 83.248 68.341 83.408 67.7436 83.728C67.1463 84.048 66.5596 84.528 65.9836 85.168C65.429 85.808 64.9383 86.6293 64.5116 87.632C64.085 88.6347 63.7543 89.808 63.5196 91.152L62.4636 98H59.3276L62.9436 75.216L63.3596 75.824L60.5116 75.216L60.7996 73.456L66.3676 73.232L63.9996 86.928L62.8476 88.56C63.3596 86.6827 64.053 85.168 64.9276 84.016C65.8236 82.864 66.7836 82.032 67.8076 81.52C68.8316 80.9867 69.813 80.72 70.7516 80.72C71.669 80.72 72.4476 80.944 73.0876 81.392C73.7276 81.84 74.1863 82.4907 74.4636 83.344C74.7623 84.1973 74.805 85.232 74.5916 86.448L73.0556 96.176L71.7436 95.184L75.4876 96.208L75.1996 97.968L69.5996 98.128ZM78.7756 98.128L81.3676 81.904L82.4876 83.856L78.7756 82.832L79.0316 81.136L84.6316 80.912L82.0716 97.168L80.9836 95.216L84.6636 96.272L84.3756 97.968L78.7756 98.128ZM83.6396 77.808C83.085 77.808 82.6476 77.6373 82.3276 77.296C82.0076 76.9547 81.8476 76.5067 81.8476 75.952C81.8476 75.2693 82.0503 74.7147 82.4556 74.288C82.8823 73.8613 83.4156 73.648 84.0556 73.648C84.6103 73.648 85.0476 73.808 85.3676 74.128C85.6876 74.448 85.8476 74.9067 85.8476 75.504C85.8476 76.1653 85.6343 76.72 85.2076 77.168C84.8023 77.5947 84.2796 77.808 83.6396 77.808ZM92.4386 105.68C91.5 105.68 90.54 105.584 89.5586 105.392C88.5773 105.2 87.6173 104.944 86.6786 104.624L87.3506 102.352C88.2466 102.651 89.1213 102.885 89.9746 103.056C90.8493 103.227 91.6386 103.312 92.3426 103.312C93.3026 103.312 94.1026 103.173 94.7426 102.896C95.404 102.64 95.9373 102.277 96.3426 101.808C96.7693 101.339 97.1 100.795 97.3346 100.176C97.5906 99.5573 97.772 98.9067 97.8786 98.224L98.8386 92.016L99.8626 90.48C99.4146 92.2293 98.7533 93.6907 97.8786 94.864C97.0253 96.016 96.076 96.88 95.0306 97.456C94.0066 98.032 93.0253 98.32 92.0866 98.32C91.276 98.32 90.5186 98.1067 89.8146 97.68C89.132 97.232 88.5773 96.5493 88.1506 95.632C87.7453 94.6933 87.5426 93.4773 87.5426 91.984C87.5426 90.448 87.7773 88.9973 88.2466 87.632C88.7373 86.2667 89.4093 85.072 90.2626 84.048C91.116 83.0027 92.1186 82.192 93.2706 81.616C94.444 81.0187 95.7026 80.72 97.0466 80.72C97.8786 80.72 98.7426 80.8587 99.6386 81.136C100.535 81.392 101.441 81.8293 102.359 82.448L101.015 82.16L101.687 81.04H103.415L100.727 98.16C100.492 99.568 100.119 100.752 99.6066 101.712C99.116 102.672 98.4973 103.44 97.7506 104.016C97.0253 104.613 96.204 105.04 95.2866 105.296C94.3906 105.552 93.4413 105.68 92.4386 105.68ZM93.3026 95.76C93.836 95.76 94.4013 95.6 94.9986 95.28C95.596 94.9387 96.172 94.4373 96.7266 93.776C97.3026 93.0933 97.804 92.2507 98.2306 91.248C98.6573 90.2453 98.988 89.072 99.2226 87.728L99.9266 83.248L100.471 84.336C99.852 83.9093 99.2546 83.6 98.6786 83.408C98.1026 83.216 97.5373 83.12 96.9826 83.12C96.0653 83.12 95.2226 83.3547 94.4546 83.824C93.708 84.2933 93.0573 84.9227 92.5026 85.712C91.948 86.5013 91.5106 87.408 91.1906 88.432C90.892 89.456 90.7426 90.5227 90.7426 91.632C90.7426 93.0613 90.988 94.1067 91.4786 94.768C91.9693 95.4293 92.5773 95.76 93.3026 95.76ZM116.318 98.128L118.11 87.12C118.238 86.288 118.238 85.584 118.11 85.008C118.004 84.432 117.78 83.9947 117.438 83.696C117.118 83.3973 116.692 83.248 116.158 83.248C115.625 83.248 115.06 83.408 114.462 83.728C113.865 84.048 113.278 84.528 112.702 85.168C112.148 85.808 111.657 86.6293 111.23 87.632C110.804 88.6347 110.473 89.808 110.238 91.152L109.182 98H106.046L109.662 75.216L110.078 75.824L107.23 75.216L107.518 73.456L113.086 73.232L110.718 86.928L109.566 88.56C110.078 86.6827 110.772 85.168 111.646 84.016C112.542 82.864 113.502 82.032 114.526 81.52C115.55 80.9867 116.532 80.72 117.47 80.72C118.388 80.72 119.166 80.944 119.806 81.392C120.446 81.84 120.905 82.4907 121.182 83.344C121.481 84.1973 121.524 85.232 121.31 86.448L119.774 96.176L118.462 95.184L122.206 96.208L121.918 97.968L116.318 98.128ZM134.774 70.704L129.91 101.36L122.838 101.2L123.158 99.184L127.574 98.992L131.702 73.04L127.318 72.88L127.638 70.864L134.774 70.704ZM151.627 87.376L151.243 89.872H142.155L142.539 87.376H151.627ZM164.93 98.32C164.12 98.32 163.362 98.1067 162.658 97.68C161.976 97.232 161.421 96.5493 160.994 95.632C160.589 94.6933 160.386 93.4773 160.386 91.984C160.386 90.448 160.621 88.9973 161.09 87.632C161.581 86.2667 162.253 85.072 163.106 84.048C163.96 83.0027 164.962 82.1813 166.114 81.584C167.288 80.9867 168.546 80.688 169.89 80.688C170.722 80.688 171.586 80.8267 172.482 81.104C173.378 81.3813 174.285 81.8293 175.202 82.448L173.826 82.224L174.53 81.04H176.258L173.698 97.2L172.61 95.184L176.322 96.208L176.034 97.968L170.754 98.128L171.778 92.048L172.706 90.48C172.258 92.2293 171.597 93.6907 170.722 94.864C169.848 96.016 168.898 96.88 167.874 97.456C166.85 98.032 165.869 98.32 164.93 98.32ZM166.146 95.76C166.68 95.76 167.245 95.6 167.842 95.28C168.461 94.9387 169.048 94.4373 169.602 93.776C170.157 93.0933 170.648 92.2507 171.074 91.248C171.522 90.2453 171.853 89.072 172.066 87.728L172.77 83.248L173.314 84.336C172.696 83.9093 172.098 83.6 171.522 83.408C170.946 83.216 170.381 83.12 169.826 83.12C168.909 83.12 168.066 83.3547 167.298 83.824C166.552 84.2933 165.901 84.9227 165.346 85.712C164.792 86.5013 164.354 87.408 164.034 88.432C163.736 89.456 163.586 90.5227 163.586 91.632C163.586 93.0613 163.832 94.1067 164.322 94.768C164.813 95.4293 165.421 95.76 166.146 95.76ZM179.808 98L182.368 81.904L183.456 83.856L179.776 82.832L180.032 81.136L185.472 80.912L184.288 86.928L183.328 88.56C183.754 86.896 184.384 85.4773 185.216 84.304C186.069 83.1307 187.008 82.2453 188.032 81.648C189.077 81.0293 190.101 80.72 191.104 80.72C191.616 80.72 192.053 80.7947 192.416 80.944L191.552 85.968H189.6L189.632 82.864L190.048 83.216C189.45 83.1733 188.842 83.3227 188.224 83.664C187.605 83.984 187.008 84.4853 186.432 85.168C185.877 85.8507 185.386 86.6933 184.96 87.696C184.533 88.6987 184.213 89.8507 184 91.152L182.944 98H179.808ZM193.276 98L195.836 81.904L196.924 83.856L193.244 82.832L193.5 81.136L198.94 80.912L197.756 86.928L196.796 88.56C197.223 86.896 197.852 85.4773 198.684 84.304C199.538 83.1307 200.476 82.2453 201.5 81.648C202.546 81.0293 203.57 80.72 204.572 80.72C205.084 80.72 205.522 80.7947 205.884 80.944L205.02 85.968H203.068L203.1 82.864L203.516 83.216C202.919 83.1733 202.311 83.3227 201.692 83.664C201.074 83.984 200.476 84.4853 199.9 85.168C199.346 85.8507 198.855 86.6933 198.428 87.696C198.002 88.6987 197.682 89.8507 197.468 91.152L196.412 98H193.276ZM205.373 101.36L210.237 70.704L217.277 70.864L216.989 72.88L212.541 73.04L208.445 98.992L212.829 99.184L212.477 101.2L205.373 101.36ZM217.046 98.128L220.822 74.224L221.942 76.144L218.262 75.216L218.518 73.456L224.118 73.232L220.342 97.136L219.19 95.184L222.934 96.208L222.646 97.968L217.046 98.128ZM234.976 80.72C236.235 80.72 237.333 80.9653 238.272 81.456C239.211 81.9253 239.947 82.672 240.48 83.696C241.013 84.72 241.28 86.0533 241.28 87.696C241.28 89.0187 241.088 90.32 240.704 91.6C240.341 92.8587 239.787 94 239.04 95.024C238.293 96.0267 237.344 96.8267 236.192 97.424C235.061 98.0213 233.739 98.32 232.224 98.32C230.987 98.32 229.888 98.0853 228.928 97.616C227.989 97.1253 227.253 96.368 226.72 95.344C226.208 94.2987 225.952 92.9547 225.952 91.312C225.952 89.9893 226.133 88.6987 226.496 87.44C226.88 86.1813 227.445 85.0507 228.192 84.048C228.939 83.024 229.877 82.2133 231.008 81.616C232.139 81.0187 233.461 80.72 234.976 80.72ZM234.656 83.056C233.696 83.056 232.864 83.3227 232.16 83.856C231.477 84.3893 230.912 85.0827 230.464 85.936C230.016 86.768 229.685 87.6747 229.472 88.656C229.259 89.616 229.152 90.5227 229.152 91.376C229.152 92.8267 229.429 93.9573 229.984 94.768C230.56 95.5787 231.424 95.984 232.576 95.984C233.515 95.984 234.325 95.7173 235.008 95.184C235.712 94.6507 236.288 93.968 236.736 93.136C237.184 92.2827 237.515 91.376 237.728 90.416C237.963 89.4347 238.08 88.5067 238.08 87.632C238.08 86.1813 237.803 85.0613 237.248 84.272C236.693 83.4613 235.829 83.056 234.656 83.056ZM246.087 98.064L244.359 82.928L244.743 83.248L242.695 82.864L242.951 81.136L247.239 80.912L248.391 96.208H247.943L254.215 81.104L257.543 80.944L258.855 96.176H258.503L264.103 82.896L264.263 83.344L262.055 82.864L262.311 81.136L268.295 80.912L268.071 82.608L266.247 83.152L266.759 82.768L259.943 98.064H256.551L254.951 83.376L255.815 83.44L249.479 98.064H246.087ZM278.056 70.704L273.192 101.36L266.12 101.2L266.44 99.184L270.856 98.992L274.984 73.04L270.6 72.88L270.92 70.864L278.056 70.704Z" fill="white"/>
<path d="M617.717 99.32C616.522 99.32 615.381 99.16 614.293 98.84C613.205 98.52 612.202 98.0613 611.285 97.464L612.405 95.128C614.048 96.152 615.786 96.664 617.621 96.664C618.752 96.664 619.754 96.4613 620.629 96.056C621.504 95.6507 622.186 95.0853 622.677 94.36C623.189 93.6133 623.445 92.7493 623.445 91.768C623.445 91.0213 623.274 90.4133 622.933 89.944C622.592 89.4533 622.09 89.0907 621.429 88.856C620.789 88.6213 620.01 88.504 619.093 88.504H616.533L616.917 86.104H619.445C621.109 86.104 622.378 85.6773 623.253 84.824C624.149 83.9707 624.597 82.9147 624.597 81.656C624.597 80.5253 624.266 79.7573 623.605 79.352C622.965 78.9253 622.144 78.712 621.141 78.712C620.458 78.712 619.733 78.7867 618.965 78.936C618.218 79.0853 617.504 79.2667 616.821 79.48L617.269 78.968L616.373 82.584H614.453L614.901 77.528C616.138 77.1227 617.354 76.8133 618.549 76.6C619.744 76.3867 620.853 76.28 621.877 76.28C623.029 76.28 624.053 76.44 624.949 76.76C625.866 77.0587 626.581 77.56 627.093 78.264C627.626 78.9467 627.893 79.896 627.893 81.112C627.893 82.8613 627.328 84.28 626.197 85.368C625.088 86.4347 623.626 87.0853 621.813 87.32L621.557 87.032C623.328 87.1813 624.618 87.6507 625.429 88.44C626.24 89.2293 626.645 90.3387 626.645 91.768C626.645 93.24 626.261 94.552 625.493 95.704C624.725 96.8347 623.669 97.72 622.325 98.36C620.981 99 619.445 99.32 617.717 99.32Z" fill="white"/>
<path d="M617.717 238.32C616.522 238.32 615.381 238.16 614.293 237.84C613.205 237.52 612.202 237.061 611.285 236.464L612.405 234.128C614.048 235.152 615.786 235.664 617.621 235.664C618.752 235.664 619.754 235.461 620.629 235.056C621.504 234.651 622.186 234.085 622.677 233.36C623.189 232.613 623.445 231.749 623.445 230.768C623.445 230.021 623.274 229.413 622.933 228.944C622.592 228.453 622.09 228.091 621.429 227.856C620.789 227.621 620.01 227.504 619.093 227.504H616.533L616.917 225.104H619.445C621.109 225.104 622.378 224.677 623.253 223.824C624.149 222.971 624.597 221.915 624.597 220.656C624.597 219.525 624.266 218.757 623.605 218.352C622.965 217.925 622.144 217.712 621.141 217.712C620.458 217.712 619.733 217.787 618.965 217.936C618.218 218.085 617.504 218.267 616.821 218.48L617.269 217.968L616.373 221.584H614.453L614.901 216.528C616.138 216.123 617.354 215.813 618.549 215.6C619.744 215.387 620.853 215.28 621.877 215.28C623.029 215.28 624.053 215.44 624.949 215.76C625.866 216.059 626.581 216.56 627.093 217.264C627.626 217.947 627.893 218.896 627.893 220.112C627.893 221.861 627.328 223.28 626.197 224.368C625.088 225.435 623.626 226.085 621.813 226.32L621.557 226.032C623.328 226.181 624.618 226.651 625.429 227.44C626.24 228.229 626.645 229.339 626.645 230.768C626.645 232.24 626.261 233.552 625.493 234.704C624.725 235.835 623.669 236.72 622.325 237.36C620.981 238 619.445 238.32 617.717 238.32Z" fill="white"/>
<path d="M565.034 49.672L564.65 52.008H550.762L551.146 49.672H565.034ZM564.074 55.816L563.69 58.152H549.802L550.186 55.816H564.074Z" fill="white"/>
<path d="M565.034 188.672L564.65 191.008H550.762L551.146 188.672H565.034ZM564.074 194.816L563.69 197.152H549.802L550.186 194.816H564.074Z" fill="white"/>
<path d="M565.034 327.672L564.65 330.008H550.762L551.146 327.672H565.034ZM564.074 333.816L563.69 336.152H549.802L550.186 333.816H564.074Z" fill="white"/>
<path d="M561.492 469.84C560.852 469.84 560.254 469.723 559.7 469.488C559.145 469.253 558.622 468.987 558.132 468.688C557.641 468.389 557.15 468.123 556.66 467.888C556.169 467.653 555.668 467.536 555.156 467.536C554.665 467.536 554.153 467.675 553.62 467.952C553.108 468.229 552.553 468.72 551.956 469.424L550.676 468.336C551.486 467.184 552.265 466.363 553.012 465.872C553.758 465.381 554.526 465.136 555.316 465.136C555.956 465.136 556.553 465.253 557.108 465.488C557.662 465.723 558.185 466 558.676 466.32C559.188 466.619 559.689 466.885 560.18 467.12C560.67 467.333 561.172 467.44 561.684 467.44C562.196 467.44 562.708 467.301 563.22 467.024C563.732 466.725 564.276 466.245 564.852 465.584L566.1 466.672C565.289 467.845 564.51 468.667 563.764 469.136C563.017 469.605 562.26 469.84 561.492 469.84ZM560.404 476.208C559.764 476.208 559.166 476.091 558.612 475.856C558.057 475.621 557.534 475.355 557.044 475.056C556.553 474.757 556.062 474.491 555.572 474.256C555.081 474.021 554.58 473.904 554.068 473.904C553.577 473.904 553.065 474.043 552.532 474.32C552.02 474.597 551.465 475.088 550.868 475.792L549.588 474.704C550.398 473.552 551.177 472.731 551.924 472.24C552.67 471.749 553.438 471.504 554.228 471.504C554.868 471.504 555.465 471.621 556.02 471.856C556.574 472.091 557.097 472.368 557.588 472.688C558.1 472.987 558.601 473.253 559.092 473.488C559.582 473.701 560.084 473.808 560.596 473.808C561.108 473.808 561.62 473.669 562.132 473.392C562.644 473.093 563.188 472.613 563.764 471.952L565.012 473.04C564.201 474.213 563.422 475.035 562.676 475.504C561.929 475.973 561.172 476.208 560.404 476.208Z" fill="white"/>
<path d="M60.549 3.344C59.0557 5.09333 57.7543 6.992 56.645 9.04C55.5357 11.088 54.6717 13.2213 54.053 15.44C53.4557 17.6587 53.157 19.888 53.157 22.128C53.157 23.9627 53.3703 25.7973 53.797 27.632C54.245 29.4667 54.917 31.216 55.813 32.88L53.733 34C52.5383 32.1653 51.653 30.2027 51.077 28.112C50.501 26.0213 50.213 23.8987 50.213 21.744C50.213 19.2907 50.565 16.88 51.269 14.512C51.973 12.144 52.9543 9.89333 54.213 7.76C55.493 5.62667 56.9863 3.67467 58.693 1.904L60.549 3.344ZM57.7587 30L58.0467 28.304L60.8307 27.792L59.9988 28.24L65.6628 20.912L66.6548 20.784L72.5748 13.136L76.4468 12.912L76.1908 14.608L73.5668 15.152L74.4948 14.672L68.8628 21.552L67.9348 21.68L61.7588 30H57.7587ZM70.0788 30L65.9828 22.032L62.1428 14.704L62.7188 15.28L60.5748 14.864L60.8307 13.136L64.5748 12.848L68.3508 20.272L72.5428 28.24L71.9988 27.728L74.5908 28.304L74.3028 30H70.0788ZM93.3928 19.376L93.0088 21.872H83.9208L84.3048 19.376H93.3928ZM106.696 30.32C105.885 30.32 105.128 30.1067 104.424 29.68C103.741 29.232 103.187 28.5493 102.76 27.632C102.355 26.6933 102.152 25.4773 102.152 23.984C102.152 22.448 102.387 20.9973 102.856 19.632C103.347 18.2667 104.019 17.072 104.872 16.048C105.725 15.0027 106.728 14.1813 107.88 13.584C109.053 12.9867 110.312 12.688 111.656 12.688C112.488 12.688 113.352 12.8267 114.248 13.104C115.144 13.3813 116.051 13.8293 116.968 14.448L115.592 14.224L116.296 13.04H118.024L115.464 29.2L114.376 27.184L118.088 28.208L117.8 29.968L112.52 30.128L113.544 24.048L114.472 22.48C114.024 24.2293 113.363 25.6907 112.488 26.864C111.613 28.016 110.664 28.88 109.64 29.456C108.616 30.032 107.635 30.32 106.696 30.32ZM107.912 27.76C108.445 27.76 109.011 27.6 109.608 27.28C110.227 26.9387 110.813 26.4373 111.368 25.776C111.923 25.0933 112.413 24.2507 112.84 23.248C113.288 22.2453 113.619 21.072 113.832 19.728L114.536 15.248L115.08 16.336C114.461 15.9093 113.864 15.6 113.288 15.408C112.712 15.216 112.147 15.12 111.592 15.12C110.675 15.12 109.832 15.3547 109.064 15.824C108.317 16.2933 107.667 16.9227 107.112 17.712C106.557 18.5013 106.12 19.408 105.8 20.432C105.501 21.456 105.352 22.5227 105.352 23.632C105.352 25.0613 105.597 26.1067 106.088 26.768C106.579 27.4293 107.187 27.76 107.912 27.76ZM121.573 30L124.133 13.904L125.221 15.856L121.541 14.832L121.797 13.136L127.237 12.912L126.053 18.928L125.093 20.56C125.52 18.896 126.149 17.4773 126.981 16.304C127.835 15.1307 128.773 14.2453 129.797 13.648C130.843 13.0293 131.867 12.72 132.869 12.72C133.381 12.72 133.819 12.7947 134.181 12.944L133.317 17.968H131.365L131.397 14.864L131.813 15.216C131.216 15.1733 130.608 15.3227 129.989 15.664C129.371 15.984 128.773 16.4853 128.197 17.168C127.643 17.8507 127.152 18.6933 126.725 19.696C126.299 20.6987 125.979 21.8507 125.765 23.152L124.709 30H121.573ZM135.042 30L137.602 13.904L138.69 15.856L135.01 14.832L135.266 13.136L140.706 12.912L139.522 18.928L138.562 20.56C138.989 18.896 139.618 17.4773 140.45 16.304C141.303 15.1307 142.242 14.2453 143.266 13.648C144.311 13.0293 145.335 12.72 146.338 12.72C146.85 12.72 147.287 12.7947 147.65 12.944L146.786 17.968H144.834L144.866 14.864L145.282 15.216C144.685 15.1733 144.077 15.3227 143.458 15.664C142.839 15.984 142.242 16.4853 141.666 17.168C141.111 17.8507 140.621 18.6933 140.194 19.696C139.767 20.6987 139.447 21.8507 139.234 23.152L138.178 30H135.042ZM147.139 33.36L152.003 2.704L159.043 2.864L158.755 4.88L154.307 5.04L150.211 30.992L154.595 31.184L154.243 33.2L147.139 33.36ZM158.811 30.128L162.587 6.224L163.707 8.144L160.027 7.216L160.283 5.456L165.883 5.232L162.107 29.136L160.955 27.184L164.699 28.208L164.411 29.968L158.811 30.128ZM176.742 12.72C178 12.72 179.099 12.9653 180.038 13.456C180.976 13.9253 181.712 14.672 182.246 15.696C182.779 16.72 183.046 18.0533 183.046 19.696C183.046 21.0187 182.854 22.32 182.47 23.6C182.107 24.8587 181.552 26 180.806 27.024C180.059 28.0267 179.11 28.8267 177.958 29.424C176.827 30.0213 175.504 30.32 173.99 30.32C172.752 30.32 171.654 30.0853 170.694 29.616C169.755 29.1253 169.019 28.368 168.486 27.344C167.974 26.2987 167.718 24.9547 167.718 23.312C167.718 21.9893 167.899 20.6987 168.262 19.44C168.646 18.1813 169.211 17.0507 169.958 16.048C170.704 15.024 171.643 14.2133 172.774 13.616C173.904 13.0187 175.227 12.72 176.742 12.72ZM176.422 15.056C175.462 15.056 174.63 15.3227 173.926 15.856C173.243 16.3893 172.678 17.0827 172.23 17.936C171.782 18.768 171.451 19.6747 171.238 20.656C171.024 21.616 170.918 22.5227 170.918 23.376C170.918 24.8267 171.195 25.9573 171.75 26.768C172.326 27.5787 173.19 27.984 174.342 27.984C175.28 27.984 176.091 27.7173 176.774 27.184C177.478 26.6507 178.054 25.968 178.502 25.136C178.95 24.2827 179.28 23.376 179.494 22.416C179.728 21.4347 179.846 20.5067 179.846 19.632C179.846 18.1813 179.568 17.0613 179.014 16.272C178.459 15.4613 177.595 15.056 176.422 15.056ZM187.853 30.064L186.125 14.928L186.509 15.248L184.461 14.864L184.717 13.136L189.005 12.912L190.157 28.208H189.709L195.981 13.104L199.309 12.944L200.621 28.176H200.269L205.869 14.896L206.029 15.344L203.821 14.864L204.077 13.136L210.061 12.912L209.837 14.608L208.013 15.152L208.525 14.768L201.709 30.064H198.317L196.717 15.376L197.581 15.44L191.245 30.064H187.853ZM219.821 2.704L214.957 33.36L207.885 33.2L208.205 31.184L212.621 30.992L216.749 5.04L212.365 4.88L212.685 2.864L219.821 2.704ZM218.545 32.752C220.039 31.0027 221.34 29.104 222.449 27.056C223.559 25.008 224.412 22.8747 225.009 20.656C225.628 18.4373 225.937 16.208 225.937 13.968C225.937 12.1333 225.724 10.2987 225.297 8.464C224.871 6.62933 224.199 4.88 223.281 3.216L225.361 2.064C226.577 3.92 227.463 5.89333 228.017 7.984C228.593 10.0747 228.881 12.1973 228.881 14.352C228.881 16.784 228.529 19.184 227.825 21.552C227.121 23.92 226.129 26.1707 224.849 28.304C223.591 30.4373 222.108 32.4 220.401 34.192L218.545 32.752Z" fill="white"/>
<path d="M611.455 31L611.871 28.12C613.023 27.2027 614.197 26.2747 615.391 25.336C616.607 24.376 617.759 23.416 618.847 22.456C619.935 21.4747 620.917 20.504 621.791 19.544C622.666 18.584 623.359 17.624 623.871 16.664C624.383 15.704 624.639 14.7653 624.639 13.848C624.639 12.8027 624.298 12.0347 623.615 11.544C622.954 11.0533 622.079 10.808 620.991 10.808C620.394 10.808 619.743 10.8827 619.039 11.032C618.335 11.16 617.61 11.3413 616.863 11.576L617.375 10.968L616.319 14.744H614.367L614.847 9.464C616.042 9.08 617.215 8.792 618.367 8.6C619.519 8.38667 620.618 8.28 621.663 8.28C622.901 8.28 623.999 8.45067 624.959 8.792C625.919 9.13333 626.666 9.66667 627.199 10.392C627.754 11.1173 628.031 12.0773 628.031 13.272C628.031 14.3813 627.786 15.4907 627.295 16.6C626.805 17.688 626.143 18.7653 625.311 19.832C624.479 20.8773 623.519 21.912 622.431 22.936C621.365 23.96 620.234 24.9627 619.039 25.944C617.845 26.9253 616.671 27.8853 615.519 28.824L615.583 28.344H626.335L625.887 31H611.455Z" fill="white"/>
<path d="M611.455 170L611.871 167.12C613.023 166.203 614.197 165.275 615.391 164.336C616.607 163.376 617.759 162.416 618.847 161.456C619.935 160.475 620.917 159.504 621.791 158.544C622.666 157.584 623.359 156.624 623.871 155.664C624.383 154.704 624.639 153.765 624.639 152.848C624.639 151.803 624.298 151.035 623.615 150.544C622.954 150.053 622.079 149.808 620.991 149.808C620.394 149.808 619.743 149.883 619.039 150.032C618.335 150.16 617.61 150.341 616.863 150.576L617.375 149.968L616.319 153.744H614.367L614.847 148.464C616.042 148.08 617.215 147.792 618.367 147.6C619.519 147.387 620.618 147.28 621.663 147.28C622.901 147.28 623.999 147.451 624.959 147.792C625.919 148.133 626.666 148.667 627.199 149.392C627.754 150.117 628.031 151.077 628.031 152.272C628.031 153.381 627.786 154.491 627.295 155.6C626.805 156.688 626.143 157.765 625.311 158.832C624.479 159.877 623.519 160.912 622.431 161.936C621.365 162.96 620.234 163.963 619.039 164.944C617.845 165.925 616.671 166.885 615.519 167.824L615.583 167.344H626.335L625.887 170H611.455Z" fill="white"/>
<line y1="53" x2="279" y2="53" stroke="white" stroke-width="2"/>
<line x1="602" y1="54" x2="638" y2="54" stroke="white" stroke-width="2"/>
<line x1="602" y1="193" x2="638" y2="193" stroke="white" stroke-width="2"/>
<path d="M725.799 33.344C724.306 35.0933 723.004 36.992 721.895 39.04C720.786 41.088 719.922 43.2213 719.303 45.44C718.706 47.6587 718.407 49.888 718.407 52.128C718.407 53.9627 718.62 55.7973 719.047 57.632C719.495 59.4667 720.167 61.216 721.063 62.88L718.983 64C717.788 62.1653 716.903 60.2027 716.327 58.112C715.751 56.0213 715.463 53.8987 715.463 51.744C715.463 49.2907 715.815 46.88 716.519 44.512C717.223 42.144 718.204 39.8933 719.463 37.76C720.743 35.6267 722.236 33.6747 723.943 31.904L725.799 33.344ZM730.561 60.32C729.558 60.32 728.523 60.1813 727.457 59.904C726.39 59.6267 725.323 59.2107 724.257 58.656L725.377 56.352C726.187 56.7787 726.998 57.0987 727.809 57.312C728.641 57.5253 729.419 57.632 730.145 57.632C731.254 57.632 732.246 57.3973 733.121 56.928C733.995 56.4587 734.678 55.8187 735.169 55.008C735.681 54.176 735.937 53.2693 735.937 52.288C735.937 51.4347 735.755 50.784 735.393 50.336C735.051 49.8667 734.571 49.536 733.953 49.344C733.355 49.1307 732.683 49.0133 731.937 48.992C731.211 48.9493 730.465 48.928 729.697 48.928H727.041L729.281 37.6H740.705L740.257 40.192H731.073L732.065 39.584L730.561 47.2L729.825 46.464H731.553C732.086 46.464 732.694 46.4853 733.377 46.528C734.059 46.5707 734.753 46.6773 735.457 46.848C736.161 46.9973 736.811 47.2747 737.409 47.68C738.006 48.064 738.475 48.608 738.817 49.312C739.179 50.016 739.361 50.9227 739.361 52.032C739.361 53.5893 738.987 54.9973 738.241 56.256C737.494 57.5147 736.459 58.5067 735.137 59.232C733.814 59.9573 732.289 60.32 730.561 60.32ZM758.33 49.376L757.946 51.872H748.858L749.242 49.376H758.33ZM774.45 60.32C773.084 60.32 771.922 60.0533 770.962 59.52C770.002 58.9653 769.276 58.0907 768.786 56.896C768.295 55.68 768.049 54.0907 768.049 52.128C768.049 50.9547 768.146 49.696 768.338 48.352C768.551 46.9867 768.892 45.6533 769.362 44.352C769.831 43.0507 770.46 41.8667 771.25 40.8C772.06 39.7333 773.063 38.88 774.258 38.24C775.452 37.6 776.871 37.28 778.514 37.28C780.562 37.28 782.119 37.8773 783.186 39.072C784.252 40.2667 784.786 42.304 784.786 45.184C784.786 46.4 784.679 47.7013 784.466 49.088C784.274 50.4533 783.943 51.7973 783.474 53.12C783.004 54.4427 782.375 55.648 781.586 56.736C780.796 57.824 779.815 58.6987 778.642 59.36C777.468 60 776.071 60.32 774.45 60.32ZM774.834 57.76C775.858 57.76 776.743 57.4613 777.49 56.864C778.258 56.2453 778.898 55.4347 779.41 54.432C779.943 53.4293 780.359 52.352 780.658 51.2C780.978 50.0267 781.202 48.8747 781.33 47.744C781.479 46.6133 781.554 45.6213 781.554 44.768C781.554 43.5093 781.415 42.528 781.138 41.824C780.86 41.0987 780.466 40.5867 779.954 40.288C779.442 39.9893 778.834 39.84 778.13 39.84C777.063 39.84 776.135 40.128 775.345 40.704C774.578 41.28 773.927 42.048 773.394 43.008C772.882 43.9467 772.466 44.9813 772.146 46.112C771.847 47.2213 771.623 48.3307 771.474 49.44C771.346 50.528 771.282 51.5093 771.282 52.384C771.282 54.368 771.591 55.7653 772.21 56.576C772.85 57.3653 773.724 57.76 774.834 57.76ZM785.295 62.752C786.789 61.0027 788.09 59.104 789.199 57.056C790.309 55.008 791.162 52.8747 791.759 50.656C792.378 48.4373 792.687 46.208 792.687 43.968C792.687 42.1333 792.474 40.2987 792.047 38.464C791.621 36.6293 790.949 34.88 790.031 33.216L792.111 32.064C793.327 33.92 794.213 35.8933 794.767 37.984C795.343 40.0747 795.631 42.1973 795.631 44.352C795.631 46.784 795.279 49.184 794.575 51.552C793.871 53.92 792.879 56.1707 791.599 58.304C790.341 60.4373 788.858 62.4 787.151 64.192L785.295 62.752Z" fill="white"/>
<path d="M680.25 43.75L664.75 59.25" stroke="white" stroke-width="2" stroke-linecap="round" stroke-linejoin="round"/>
<path d="M664.75 43.75L680.25 59.25" stroke="white" stroke-width="2" stroke-linecap="round" stroke-linejoin="round"/>
<path d="M352.846 33.344C351.353 35.0933 350.051 36.992 348.942 39.04C347.833 41.088 346.969 43.2213 346.35 45.44C345.753 47.6587 345.454 49.888 345.454 52.128C345.454 53.9627 345.667 55.7973 346.094 57.632C346.542 59.4667 347.214 61.216 348.11 62.88L346.03 64C344.835 62.1653 343.95 60.2027 343.374 58.112C342.798 56.0213 342.51 53.8987 342.51 51.744C342.51 49.2907 342.862 46.88 343.566 44.512C344.27 42.144 345.251 39.8933 346.51 37.76C347.79 35.6267 349.283 33.6747 350.99 31.904L352.846 33.344ZM362.6 60.128L364.392 49.12C364.52 48.288 364.52 47.584 364.392 47.008C364.285 46.432 364.061 45.9947 363.72 45.696C363.4 45.3973 362.973 45.248 362.44 45.248C361.906 45.248 361.341 45.408 360.744 45.728C360.146 46.048 359.56 46.528 358.984 47.168C358.429 47.808 357.938 48.6293 357.512 49.632C357.085 50.6347 356.754 51.808 356.52 53.152L355.464 60H352.328L355.944 37.216L356.36 37.824L353.512 37.216L353.8 35.456L359.368 35.232L357 48.928L355.848 50.56C356.36 48.6827 357.053 47.168 357.928 46.016C358.824 44.864 359.784 44.032 360.808 43.52C361.832 42.9867 362.813 42.72 363.752 42.72C364.669 42.72 365.448 42.944 366.088 43.392C366.728 43.84 367.186 44.4907 367.464 45.344C367.762 46.1973 367.805 47.232 367.592 48.448L366.056 58.176L364.744 57.184L368.488 58.208L368.2 59.968L362.6 60.128ZM371.776 60.128L374.368 43.904L375.488 45.856L371.776 44.832L372.032 43.136L377.632 42.912L375.072 59.168L373.984 57.216L377.664 58.272L377.376 59.968L371.776 60.128ZM376.64 39.808C376.085 39.808 375.648 39.6373 375.328 39.296C375.008 38.9547 374.848 38.5067 374.848 37.952C374.848 37.2693 375.05 36.7147 375.456 36.288C375.882 35.8613 376.416 35.648 377.056 35.648C377.61 35.648 378.048 35.808 378.368 36.128C378.688 36.448 378.848 36.9067 378.848 37.504C378.848 38.1653 378.634 38.72 378.208 39.168C377.802 39.5947 377.28 39.808 376.64 39.808ZM385.439 67.68C384.5 67.68 383.54 67.584 382.559 67.392C381.577 67.2 380.617 66.944 379.679 66.624L380.351 64.352C381.247 64.6507 382.121 64.8853 382.975 65.056C383.849 65.2267 384.639 65.312 385.343 65.312C386.303 65.312 387.103 65.1733 387.743 64.896C388.404 64.64 388.937 64.2773 389.343 63.808C389.769 63.3387 390.1 62.7947 390.335 62.176C390.591 61.5573 390.772 60.9067 390.879 60.224L391.839 54.016L392.863 52.48C392.415 54.2293 391.753 55.6907 390.879 56.864C390.025 58.016 389.076 58.88 388.031 59.456C387.007 60.032 386.025 60.32 385.087 60.32C384.276 60.32 383.519 60.1067 382.815 59.68C382.132 59.232 381.577 58.5493 381.151 57.632C380.745 56.6933 380.543 55.4773 380.543 53.984C380.543 52.448 380.777 50.9973 381.247 49.632C381.737 48.2667 382.409 47.072 383.263 46.048C384.116 45.0027 385.119 44.192 386.271 43.616C387.444 43.0187 388.703 42.72 390.047 42.72C390.879 42.72 391.743 42.8587 392.639 43.136C393.535 43.392 394.441 43.8293 395.359 44.448L394.015 44.16L394.687 43.04H396.415L393.727 60.16C393.492 61.568 393.119 62.752 392.607 63.712C392.116 64.672 391.497 65.44 390.751 66.016C390.025 66.6133 389.204 67.04 388.287 67.296C387.391 67.552 386.441 67.68 385.439 67.68ZM386.303 57.76C386.836 57.76 387.401 57.6 387.999 57.28C388.596 56.9387 389.172 56.4373 389.727 55.776C390.303 55.0933 390.804 54.2507 391.231 53.248C391.657 52.2453 391.988 51.072 392.223 49.728L392.927 45.248L393.471 46.336C392.852 45.9093 392.255 45.6 391.679 45.408C391.103 45.216 390.537 45.12 389.983 45.12C389.065 45.12 388.223 45.3547 387.455 45.824C386.708 46.2933 386.057 46.9227 385.503 47.712C384.948 48.5013 384.511 49.408 384.191 50.432C383.892 51.456 383.743 52.5227 383.743 53.632C383.743 55.0613 383.988 56.1067 384.479 56.768C384.969 57.4293 385.577 57.76 386.303 57.76ZM409.318 60.128L411.11 49.12C411.238 48.288 411.238 47.584 411.11 47.008C411.004 46.432 410.78 45.9947 410.438 45.696C410.118 45.3973 409.692 45.248 409.158 45.248C408.625 45.248 408.06 45.408 407.462 45.728C406.865 46.048 406.278 46.528 405.702 47.168C405.148 47.808 404.657 48.6293 404.23 49.632C403.804 50.6347 403.473 51.808 403.238 53.152L402.182 60H399.046L402.662 37.216L403.078 37.824L400.23 37.216L400.518 35.456L406.086 35.232L403.718 48.928L402.566 50.56C403.078 48.6827 403.772 47.168 404.646 46.016C405.542 44.864 406.502 44.032 407.526 43.52C408.55 42.9867 409.532 42.72 410.47 42.72C411.388 42.72 412.166 42.944 412.806 43.392C413.446 43.84 413.905 44.4907 414.182 45.344C414.481 46.1973 414.524 47.232 414.31 48.448L412.774 58.176L411.462 57.184L415.206 58.208L414.918 59.968L409.318 60.128ZM434.127 49.376L433.743 51.872H424.655L425.039 49.376H434.127ZM443.014 60.128L446.79 36.224L447.91 38.144L444.23 37.216L444.486 35.456L450.086 35.232L446.31 59.136L445.158 57.184L448.902 58.208L448.614 59.968L443.014 60.128ZM460.945 42.72C462.203 42.72 463.302 42.9653 464.241 43.456C465.179 43.9253 465.915 44.672 466.449 45.696C466.982 46.72 467.249 48.0533 467.249 49.696C467.249 51.0187 467.057 52.32 466.673 53.6C466.31 54.8587 465.755 56 465.009 57.024C464.262 58.0267 463.313 58.8267 462.161 59.424C461.03 60.0213 459.707 60.32 458.193 60.32C456.955 60.32 455.857 60.0853 454.897 59.616C453.958 59.1253 453.222 58.368 452.689 57.344C452.177 56.2987 451.921 54.9547 451.921 53.312C451.921 51.9893 452.102 50.6987 452.465 49.44C452.849 48.1813 453.414 47.0507 454.161 46.048C454.907 45.024 455.846 44.2133 456.977 43.616C458.107 43.0187 459.43 42.72 460.945 42.72ZM460.625 45.056C459.665 45.056 458.833 45.3227 458.129 45.856C457.446 46.3893 456.881 47.0827 456.433 47.936C455.985 48.768 455.654 49.6747 455.441 50.656C455.227 51.616 455.121 52.5227 455.121 53.376C455.121 54.8267 455.398 55.9573 455.953 56.768C456.529 57.5787 457.393 57.984 458.545 57.984C459.483 57.984 460.294 57.7173 460.977 57.184C461.681 56.6507 462.257 55.968 462.705 55.136C463.153 54.2827 463.483 53.376 463.697 52.416C463.931 51.4347 464.049 50.5067 464.049 49.632C464.049 48.1813 463.771 47.0613 463.217 46.272C462.662 45.4613 461.798 45.056 460.625 45.056ZM472.056 60.064L470.328 44.928L470.712 45.248L468.664 44.864L468.92 43.136L473.208 42.912L474.36 58.208H473.912L480.184 43.104L483.512 42.944L484.824 58.176H484.472L490.072 44.896L490.232 45.344L488.024 44.864L488.28 43.136L494.264 42.912L494.04 44.608L492.216 45.152L492.728 44.768L485.912 60.064H482.52L480.92 45.376L481.784 45.44L475.448 60.064H472.056ZM492.248 62.752C493.742 61.0027 495.043 59.104 496.152 57.056C497.262 55.008 498.115 52.8747 498.712 50.656C499.331 48.4373 499.64 46.208 499.64 43.968C499.64 42.1333 499.427 40.2987 499 38.464C498.574 36.6293 497.902 34.88 496.984 33.216L499.064 32.064C500.28 33.92 501.166 35.8933 501.72 37.984C502.296 40.0747 502.584 42.1973 502.584 44.352C502.584 46.784 502.232 49.184 501.528 51.552C500.824 53.92 499.832 56.1707 498.552 58.304C497.294 60.4373 495.811 62.4 494.104 64.192L492.248 62.752Z" fill="white"/>
<path d="M717.608 199.32C716.605 199.32 715.57 199.181 714.504 198.904C713.437 198.627 712.37 198.211 711.304 197.656L712.424 195.352C713.234 195.779 714.045 196.099 714.856 196.312C715.688 196.525 716.466 196.632 717.192 196.632C718.301 196.632 719.293 196.397 720.168 195.928C721.042 195.459 721.725 194.819 722.216 194.008C722.728 193.176 722.984 192.269 722.984 191.288C722.984 190.435 722.802 189.784 722.44 189.336C722.098 188.867 721.618 188.536 721 188.344C720.402 188.131 719.73 188.013 718.984 187.992C718.258 187.949 717.512 187.928 716.744 187.928H714.088L716.328 176.6H727.752L727.304 179.192H718.12L719.112 178.584L717.608 186.2L716.872 185.464H718.6C719.133 185.464 719.741 185.485 720.424 185.528C721.106 185.571 721.8 185.677 722.504 185.848C723.208 185.997 723.858 186.275 724.456 186.68C725.053 187.064 725.522 187.608 725.864 188.312C726.226 189.016 726.408 189.923 726.408 191.032C726.408 192.589 726.034 193.997 725.288 195.256C724.541 196.515 723.506 197.507 722.184 198.232C720.861 198.957 719.336 199.32 717.608 199.32Z" fill="white"/>
<path d="M608.811 343.32C607.616 343.32 606.475 343.16 605.387 342.84C604.299 342.52 603.296 342.061 602.379 341.464L603.499 339.128C605.141 340.152 606.88 340.664 608.715 340.664C609.845 340.664 610.848 340.461 611.723 340.056C612.597 339.651 613.28 339.085 613.771 338.36C614.283 337.613 614.539 336.749 614.539 335.768C614.539 335.021 614.368 334.413 614.027 333.944C613.685 333.453 613.184 333.091 612.523 332.856C611.883 332.621 611.104 332.504 610.187 332.504H607.627L608.011 330.104H610.539C612.203 330.104 613.472 329.677 614.347 328.824C615.243 327.971 615.691 326.915 615.691 325.656C615.691 324.525 615.36 323.757 614.699 323.352C614.059 322.925 613.237 322.712 612.235 322.712C611.552 322.712 610.827 322.787 610.059 322.936C609.312 323.085 608.597 323.267 607.915 323.48L608.363 322.968L607.467 326.584H605.547L605.995 321.528C607.232 321.123 608.448 320.813 609.643 320.6C610.837 320.387 611.947 320.28 612.971 320.28C614.123 320.28 615.147 320.44 616.043 320.76C616.96 321.059 617.675 321.56 618.187 322.264C618.72 322.947 618.987 323.896 618.987 325.112C618.987 326.861 618.421 328.28 617.291 329.368C616.181 330.435 614.72 331.085 612.907 331.32L612.651 331.032C614.421 331.181 615.712 331.651 616.523 332.44C617.333 333.229 617.739 334.339 617.739 335.768C617.739 337.24 617.355 338.552 616.587 339.704C615.819 340.835 614.763 341.72 613.419 342.36C612.075 343 610.539 343.32 608.811 343.32ZM622.337 343.224C621.782 343.224 621.345 343.064 621.025 342.744C620.726 342.403 620.577 341.976 620.577 341.464C620.577 340.824 620.79 340.301 621.217 339.896C621.643 339.491 622.155 339.288 622.753 339.288C623.286 339.288 623.713 339.448 624.033 339.768C624.374 340.088 624.545 340.525 624.545 341.08C624.545 341.72 624.331 342.243 623.905 342.648C623.478 343.032 622.955 343.224 622.337 343.224ZM633.873 343.32C632.679 343.32 631.537 343.16 630.449 342.84C629.361 342.52 628.359 342.061 627.441 341.464L628.561 339.128C630.204 340.152 631.943 340.664 633.777 340.664C634.908 340.664 635.911 340.461 636.785 340.056C637.66 339.651 638.343 339.085 638.833 338.36C639.345 337.613 639.601 336.749 639.601 335.768C639.601 335.021 639.431 334.413 639.089 333.944C638.748 333.453 638.247 333.091 637.585 332.856C636.945 332.621 636.167 332.504 635.249 332.504H632.689L633.073 330.104H635.601C637.265 330.104 638.535 329.677 639.409 328.824C640.305 327.971 640.753 326.915 640.753 325.656C640.753 324.525 640.423 323.757 639.761 323.352C639.121 322.925 638.3 322.712 637.297 322.712C636.615 322.712 635.889 322.787 635.121 322.936C634.375 323.085 633.66 323.267 632.977 323.48L633.425 322.968L632.529 326.584H630.609L631.057 321.528C632.295 321.123 633.511 320.813 634.705 320.6C635.9 320.387 637.009 320.28 638.033 320.28C639.185 320.28 640.209 320.44 641.105 320.76C642.023 321.059 642.737 321.56 643.249 322.264C643.783 322.947 644.049 323.896 644.049 325.112C644.049 326.861 643.484 328.28 642.353 329.368C641.244 330.435 639.783 331.085 637.969 331.32L637.713 331.032C639.484 331.181 640.775 331.651 641.585 332.44C642.396 333.229 642.801 334.339 642.801 335.768C642.801 337.24 642.417 338.552 641.649 339.704C640.881 340.835 639.825 341.72 638.481 342.36C637.137 343 635.601 343.32 633.873 343.32ZM651.623 343.32C650.429 343.32 649.287 343.16 648.199 342.84C647.111 342.52 646.109 342.061 645.191 341.464L646.311 339.128C647.954 340.152 649.693 340.664 651.527 340.664C652.658 340.664 653.661 340.461 654.535 340.056C655.41 339.651 656.093 339.085 656.583 338.36C657.095 337.613 657.351 336.749 657.351 335.768C657.351 335.021 657.181 334.413 656.839 333.944C656.498 333.453 655.997 333.091 655.335 332.856C654.695 332.621 653.917 332.504 652.999 332.504H650.439L650.823 330.104H653.351C655.015 330.104 656.285 329.677 657.159 328.824C658.055 327.971 658.503 326.915 658.503 325.656C658.503 324.525 658.173 323.757 657.511 323.352C656.871 322.925 656.05 322.712 655.047 322.712C654.365 322.712 653.639 322.787 652.871 322.936C652.125 323.085 651.41 323.267 650.727 323.48L651.175 322.968L650.279 326.584H648.359L648.807 321.528C650.045 321.123 651.261 320.813 652.455 320.6C653.65 320.387 654.759 320.28 655.783 320.28C656.935 320.28 657.959 320.44 658.855 320.76C659.773 321.059 660.487 321.56 660.999 322.264C661.533 322.947 661.799 323.896 661.799 325.112C661.799 326.861 661.234 328.28 660.103 329.368C658.994 330.435 657.533 331.085 655.719 331.32L655.463 331.032C657.234 331.181 658.525 331.651 659.335 332.44C660.146 333.229 660.551 334.339 660.551 335.768C660.551 337.24 660.167 338.552 659.399 339.704C658.631 340.835 657.575 341.72 656.231 342.36C654.887 343 653.351 343.32 651.623 343.32Z" fill="white"/>
<path d="M608.717 482.32C607.522 482.32 606.381 482.16 605.293 481.84C604.205 481.52 603.202 481.061 602.285 480.464L603.405 478.128C605.048 479.152 606.786 479.664 608.621 479.664C609.752 479.664 610.754 479.461 611.629 479.056C612.504 478.651 613.186 478.085 613.677 477.36C614.189 476.613 614.445 475.749 614.445 474.768C614.445 474.021 614.274 473.413 613.933 472.944C613.592 472.453 613.09 472.091 612.429 471.856C611.789 471.621 611.01 471.504 610.093 471.504H607.533L607.917 469.104H610.445C612.109 469.104 613.378 468.677 614.253 467.824C615.149 466.971 615.597 465.915 615.597 464.656C615.597 463.525 615.266 462.757 614.605 462.352C613.965 461.925 613.144 461.712 612.141 461.712C611.458 461.712 610.733 461.787 609.965 461.936C609.218 462.085 608.504 462.267 607.821 462.48L608.269 461.968L607.373 465.584H605.453L605.901 460.528C607.138 460.123 608.354 459.813 609.549 459.6C610.744 459.387 611.853 459.28 612.877 459.28C614.029 459.28 615.053 459.44 615.949 459.76C616.866 460.059 617.581 460.56 618.093 461.264C618.626 461.947 618.893 462.896 618.893 464.112C618.893 465.861 618.328 467.28 617.197 468.368C616.088 469.435 614.626 470.085 612.813 470.32L612.557 470.032C614.328 470.181 615.618 470.651 616.429 471.44C617.24 472.229 617.645 473.339 617.645 474.768C617.645 476.24 617.261 477.552 616.493 478.704C615.725 479.835 614.669 480.72 613.325 481.36C611.981 482 610.445 482.32 608.717 482.32Z" fill="white"/>
<path d="M321.25 43.75L305.75 59.25" stroke="white" stroke-width="2" stroke-linecap="round" stroke-linejoin="round"/>
<path d="M305.75 43.75L321.25 59.25" stroke="white" stroke-width="2" stroke-linecap="round" stroke-linejoin="round"/>
<path d="M680.25 182.75L664.75 198.25" stroke="white" stroke-width="2" stroke-linecap="round" stroke-linejoin="round"/>
<path d="M664.75 182.75L680.25 198.25" stroke="white" stroke-width="2" stroke-linecap="round" stroke-linejoin="round"/>
</svg>
