<svg xmlns="http://www.w3.org/2000/svg" width="817" height="233" fill="none" viewBox="0 0 817 233"><path fill="#727272" d="M5.75 154.182V176H3.11v-21.818zm7.472 11.974V176h-2.515v-16.364h2.43v2.557h.212a4.7 4.7 0 0 1 1.748-2.003q1.171-.767 3.025-.767 1.662 0 2.909.682 1.245.671 1.939 2.046.692 1.363.692 3.451V176h-2.514v-10.227q0-1.929-1.002-3.005-1.001-1.086-2.748-1.086-1.204 0-2.152.522a3.74 3.74 0 0 0-1.481 1.523q-.543 1.002-.543 2.429m21.213 10.185q-2.045 0-3.611-1.033-1.566-1.044-2.45-2.941-.885-1.906-.885-4.506 0-2.578.884-4.475.885-1.896 2.461-2.929 1.578-1.034 3.644-1.034 1.598 0 2.525.533.937.522 1.427 1.193.5.66.778 1.087h.213v-8.054h2.514V176h-2.429v-2.514h-.298a16 16 0 0 1-.788 1.129q-.512.671-1.46 1.204-.948.522-2.525.522m.341-2.259q1.513 0 2.557-.788 1.044-.8 1.587-2.205.544-1.417.544-3.271 0-1.832-.533-3.206-.532-1.386-1.577-2.152-1.044-.778-2.578-.778-1.598 0-2.663.82-1.054.81-1.588 2.205-.522 1.386-.522 3.111 0 1.747.533 3.175.543 1.416 1.598 2.258 1.065.831 2.642.831m18.974 2.259q-2.365 0-4.08-1.044-1.705-1.055-2.632-2.94-.916-1.897-.916-4.411t.916-4.432q.927-1.928 2.578-3.004 1.661-1.087 3.878-1.087a7.8 7.8 0 0 1 2.525.426 6.3 6.3 0 0 1 2.27 1.385q1.021.948 1.63 2.515.606 1.566.606 3.856v1.065H47.912v-2.173h10.057q0-1.385-.554-2.471a4.17 4.17 0 0 0-1.556-1.716q-1.001-.628-2.365-.628-1.502 0-2.6.746a4.9 4.9 0 0 0-1.672 1.917 5.64 5.64 0 0 0-.586 2.536v1.449q0 1.853.64 3.142.65 1.279 1.8 1.95 1.15.66 2.674.66.99 0 1.79-.277a3.8 3.8 0 0 0 1.395-.852q.586-.575.906-1.427l2.429.681a5.4 5.4 0 0 1-1.29 2.174q-.905.927-2.237 1.449-1.33.51-2.993.511m12.035-16.705 3.921 6.691 3.92-6.691h2.898l-5.284 8.182L76.524 176h-2.898l-3.92-6.349-3.92 6.349h-2.898l5.199-8.182-5.2-8.182zM86.3 176.341q-2.365 0-4.08-1.044-1.705-1.055-2.632-2.94-.915-1.897-.916-4.411 0-2.514.916-4.432.927-1.928 2.578-3.004 1.662-1.087 3.878-1.087 1.278 0 2.525.426a6.3 6.3 0 0 1 2.269 1.385q1.023.948 1.63 2.515.607 1.566.607 3.856v1.065H80.461v-2.173h10.056q0-1.385-.554-2.471a4.17 4.17 0 0 0-1.555-1.716q-1.002-.628-2.365-.628-1.502 0-2.6.746a4.9 4.9 0 0 0-1.672 1.917 5.64 5.64 0 0 0-.586 2.536v1.449q0 1.853.64 3.142.649 1.279 1.8 1.95 1.15.66 2.674.66.99 0 1.79-.277a3.8 3.8 0 0 0 1.395-.852q.586-.575.906-1.427l2.428.681a5.4 5.4 0 0 1-1.288 2.174q-.906.927-2.238 1.449-1.332.51-2.993.511m22.191-13.04-2.259.639a4.2 4.2 0 0 0-.628-1.097q-.405-.543-1.108-.895-.703-.351-1.801-.351-1.502 0-2.503.692-.99.682-.991 1.737 0 .937.682 1.48.682.544 2.13.906l2.429.597q2.195.532 3.271 1.629 1.076 1.088 1.076 2.802 0 1.407-.81 2.515-.798 1.107-2.237 1.747-1.439.639-3.345.639-2.503 0-4.144-1.087-1.64-1.086-2.078-3.174l2.387-.597q.34 1.321 1.289 1.981.959.661 2.503.661 1.758 0 2.792-.746 1.044-.756 1.044-1.811a1.9 1.9 0 0 0-.597-1.427q-.597-.586-1.832-.874l-2.728-.639q-2.248-.533-3.302-1.651-1.044-1.13-1.044-2.824 0-1.385.777-2.45.789-1.066 2.142-1.672 1.364-.608 3.089-.608 2.43 0 3.814 1.066 1.396 1.065 1.982 2.812m5.915 12.869q-.789 0-1.353-.564a1.85 1.85 0 0 1-.565-1.353q0-.789.565-1.353a1.84 1.84 0 0 1 1.353-.565q.789 0 1.353.565.565.564.565 1.353 0 .522-.267.959a2 2 0 0 1-.692.703q-.426.255-.959.255m0-12.144q-.789 0-1.353-.565a1.85 1.85 0 0 1-.565-1.353q0-.789.565-1.353a1.85 1.85 0 0 1 1.353-.565q.789 0 1.353.565.565.564.565 1.353 0 .522-.267.959a2 2 0 0 1-.692.703q-.426.255-.959.256"/><path fill="#fff" d="m3.736 7.182 6.477 18.366h.256l6.477-18.366h2.77L11.705 29H8.978L.966 7.182zm22.33 22.202q-1.556 0-2.823-.586a4.85 4.85 0 0 1-2.014-1.716q-.746-1.13-.746-2.727 0-1.405.554-2.28a3.9 3.9 0 0 1 1.481-1.385 7.8 7.8 0 0 1 2.046-.745 25 25 0 0 1 2.269-.405q1.491-.192 2.418-.288.938-.106 1.364-.351.436-.246.437-.853v-.085q0-1.577-.863-2.45-.852-.874-2.59-.874-1.8 0-2.822.789-1.023.787-1.439 1.683l-2.386-.852q.639-1.492 1.705-2.323A6.4 6.4 0 0 1 25 12.764a9.7 9.7 0 0 1 2.515-.34q.788 0 1.81.191 1.035.18 1.993.756.969.576 1.608 1.737t.64 3.11V29H31.05v-2.216h-.127q-.255.533-.853 1.14-.596.608-1.587 1.033-.99.426-2.418.427m.383-2.259q1.492 0 2.514-.586 1.034-.586 1.556-1.513a3.86 3.86 0 0 0 .533-1.95v-2.3q-.16.191-.704.351-.533.15-1.235.267-.693.105-1.353.191-.65.075-1.055.128a9.6 9.6 0 0 0-1.832.416q-.843.276-1.364.841-.512.555-.512 1.513 0 1.31.97 1.982.98.66 2.482.66M40.67 7.182V29h-2.514V7.182zM55.586 22.31v-9.674H58.1V29h-2.514v-2.77h-.17q-.575 1.247-1.79 2.12-1.215.863-3.068.863-1.535 0-2.727-.671-1.193-.682-1.875-2.046-.682-1.374-.682-3.462V12.636h2.514v10.228q0 1.79 1.001 2.855 1.013 1.065 2.578 1.065.938 0 1.908-.48.98-.479 1.64-1.47.672-.99.671-2.524m13.98 7.03q-2.365 0-4.08-1.043-1.705-1.054-2.631-2.94-.917-1.897-.917-4.411t.917-4.432q.926-1.928 2.578-3.004 1.662-1.086 3.877-1.087 1.279 0 2.525.426a6.26 6.26 0 0 1 2.27 1.385q1.022.948 1.63 2.515.606 1.567.607 3.856v1.066H63.728v-2.174h10.057q0-1.385-.554-2.471a4.17 4.17 0 0 0-1.555-1.716q-1.002-.628-2.365-.628-1.502 0-2.6.746a4.9 4.9 0 0 0-1.672 1.917 5.6 5.6 0 0 0-.586 2.536v1.448q0 1.854.639 3.143.65 1.279 1.8 1.95 1.151.66 2.674.66a5.4 5.4 0 0 0 1.79-.277 3.8 3.8 0 0 0 1.396-.852q.585-.575.905-1.427l2.43.681a5.4 5.4 0 0 1-1.29 2.174q-.906.927-2.237 1.448-1.332.512-2.994.512m22.191-13.039-2.258.64a4.2 4.2 0 0 0-.629-1.098q-.405-.543-1.108-.895-.704-.351-1.8-.351-1.502 0-2.504.692-.99.682-.99 1.737 0 .937.681 1.48.682.544 2.131.906l2.429.597q2.194.532 3.27 1.63 1.077 1.086 1.077 2.801 0 1.407-.81 2.514-.799 1.11-2.237 1.748-1.439.639-3.346.639-2.502 0-4.144-1.087-1.64-1.086-2.077-3.175l2.386-.596q.341 1.32 1.29 1.982.958.66 2.503.66 1.758 0 2.791-.746 1.044-.756 1.044-1.81 0-.854-.596-1.428-.597-.586-1.833-.874l-2.727-.64q-2.248-.532-3.303-1.65-1.044-1.13-1.044-2.824 0-1.385.778-2.45.79-1.065 2.141-1.672 1.365-.608 3.09-.608 2.429 0 3.814 1.066 1.395 1.065 1.981 2.812m5.916 12.87q-.789 0-1.353-.565a1.85 1.85 0 0 1-.565-1.353q0-.789.565-1.353a1.85 1.85 0 0 1 1.353-.565q.788 0 1.353.565.564.564.564 1.353 0 .522-.266.959a2 2 0 0 1-.693.703q-.426.256-.958.256m0-12.145q-.789 0-1.353-.565a1.85 1.85 0 0 1-.565-1.353q0-.789.565-1.353a1.85 1.85 0 0 1 1.353-.565q.788 0 1.353.565.564.564.564 1.353 0 .522-.266.959a2 2 0 0 1-.693.703q-.426.256-.958.256"/><path fill="#727272" d="M156.956 7.182V29h-2.642V9.952h-.128l-5.326 3.537v-2.685l5.454-3.622zM154.5 176.298q-2.407 0-4.102-1.31-1.694-1.322-2.588-3.825-.895-2.514-.895-6.072 0-3.537.895-6.041.905-2.514 2.599-3.835 1.704-1.332 4.091-1.331 2.386 0 4.08 1.331 1.705 1.321 2.6 3.835.905 2.504.905 6.041 0 3.558-.895 6.072-.894 2.504-2.588 3.825-1.695 1.31-4.102 1.31m0-2.343q2.387 0 3.707-2.302 1.321-2.3 1.321-6.562 0-2.834-.607-4.826-.597-1.992-1.726-3.036-1.118-1.044-2.695-1.044-2.365 0-3.697 2.333-1.331 2.322-1.331 6.573 0 2.834.596 4.815.597 1.982 1.715 3.015 1.13 1.034 2.717 1.034M549.845 226v-21.818h2.642v19.474h10.142V226zm23.182.341q-2.215 0-3.889-1.055-1.661-1.055-2.599-2.951-.927-1.896-.927-4.432 0-2.556.927-4.463.938-1.908 2.599-2.962 1.674-1.055 3.889-1.055 2.216 0 3.878 1.055 1.672 1.054 2.599 2.962.938 1.907.938 4.463 0 2.536-.938 4.432-.927 1.896-2.599 2.951-1.662 1.055-3.878 1.055m0-2.259q1.683 0 2.77-.863 1.087-.862 1.609-2.269.522-1.406.522-3.047a8.8 8.8 0 0 0-.522-3.057q-.522-1.417-1.609-2.291t-2.77-.873-2.77.873q-1.087.874-1.609 2.291a8.8 8.8 0 0 0-.522 3.057q0 1.641.522 3.047t1.609 2.269 2.77.863M587.43 226l-4.985-16.364h2.642l3.537 12.529h.17l3.494-12.529h2.685l3.452 12.486h.17l3.537-12.486h2.642L599.788 226h-2.471l-3.58-12.571h-.255L589.902 226zM753.976 226v-21.818h2.642v9.716h11.634v-9.716h2.642V226h-2.642v-9.759h-11.634V226zm21.866 0v-16.364h2.514V226zm1.279-19.091q-.735 0-1.268-.501a1.6 1.6 0 0 1-.522-1.203q0-.703.522-1.204a1.8 1.8 0 0 1 1.268-.501q.735 0 1.257.501.532.5.532 1.204 0 .703-.532 1.203a1.75 1.75 0 0 1-1.257.501m12.445 25.568q-1.821 0-3.132-.468-1.31-.459-2.184-1.215a6.7 6.7 0 0 1-1.374-1.598l2.003-1.406q.34.447.863 1.022.522.586 1.427 1.013.917.436 2.397.436 1.982 0 3.271-.958 1.289-.96 1.289-3.005v-3.324h-.213q-.277.448-.788 1.108-.501.65-1.449 1.162-.937.5-2.536.5-1.981 0-3.558-.937-1.566-.938-2.482-2.727-.906-1.791-.906-4.347 0-2.514.884-4.379.885-1.875 2.461-2.897 1.578-1.034 3.644-1.034 1.598 0 2.535.533.948.522 1.449 1.193.512.66.789 1.087h.255v-2.6h2.429v16.833q0 2.109-.959 3.43-.948 1.332-2.556 1.95-1.599.628-3.559.628m-.085-8.991q1.513 0 2.557-.693 1.044-.692 1.587-1.992.544-1.299.544-3.111 0-1.768-.533-3.121t-1.577-2.12-2.578-.767q-1.598 0-2.663.809-1.054.81-1.588 2.174-.522 1.363-.522 3.025 0 1.706.533 3.015.543 1.3 1.598 2.046 1.065.735 2.642.735m14.276-7.33V226h-2.514v-21.818h2.514v8.011h.213a4.6 4.6 0 0 1 1.726-2.013q1.161-.757 3.089-.757 1.673 0 2.93.671 1.257.661 1.949 2.035.704 1.364.704 3.473V226h-2.515v-10.227q0-1.95-1.012-3.015-1-1.076-2.78-1.076-1.236 0-2.216.522a3.8 3.8 0 0 0-1.534 1.523q-.554 1.002-.554 2.429M251.676 29v-1.918l7.202-7.883a50 50 0 0 0 2.088-2.408q.82-1.033 1.215-1.939.405-.916.405-1.917 0-1.15-.554-1.992a3.6 3.6 0 0 0-1.492-1.3q-.948-.458-2.131-.458-1.257 0-2.194.522-.927.51-1.438 1.438-.501.927-.501 2.173h-2.514q0-1.917.884-3.366a6.14 6.14 0 0 1 2.408-2.259q1.533-.81 3.441-.81 1.917 0 3.398.81 1.48.81 2.323 2.184.841 1.374.841 3.058 0 1.203-.437 2.354-.426 1.14-1.491 2.546-1.055 1.395-2.93 3.41l-4.9 5.24v.171h10.142V29zM261.956 154.182V176h-2.642v-19.048h-.128l-5.326 3.537v-2.685l5.454-3.622zM364.58 29.298q-2.11 0-3.761-.724-1.641-.724-2.61-2.014-.959-1.3-1.044-3.014h2.685q.085 1.054.724 1.821.64.756 1.673 1.172t2.29.415q1.407 0 2.493-.49 1.087-.489 1.705-1.363.618-.873.618-2.024 0-1.205-.597-2.12-.597-.927-1.747-1.45-1.15-.52-2.813-.521h-1.747v-2.344h1.747q1.3 0 2.28-.469.991-.468 1.545-1.32.565-.853.565-2.004 0-1.107-.49-1.928a3.36 3.36 0 0 0-1.385-1.278q-.885-.458-2.088-.458-1.13 0-2.131.415-.991.405-1.619 1.183-.63.767-.682 1.853h-2.557q.063-1.714 1.033-3.004.97-1.3 2.536-2.024 1.577-.724 3.462-.724 2.025 0 3.473.82 1.449.81 2.227 2.141a5.6 5.6 0 0 1 .777 2.877q0 1.842-.969 3.142-.959 1.3-2.61 1.8v.171q2.067.34 3.228 1.758 1.161 1.407 1.161 3.484 0 1.779-.969 3.196-.96 1.406-2.621 2.216t-3.782.81M460.623 24.526v-2.174l9.588-15.17h1.577v3.366h-1.065l-7.245 11.463v.17h12.912v2.345zM470.893 29V7.182h2.514V29zM357.676 176v-1.918l7.202-7.883a50 50 0 0 0 2.088-2.408q.82-1.033 1.215-1.939.405-.916.405-1.917 0-1.15-.554-1.993a3.6 3.6 0 0 0-1.492-1.299q-.948-.459-2.131-.458-1.257 0-2.194.522a3.6 3.6 0 0 0-1.438 1.438q-.501.927-.501 2.173h-2.514q0-1.917.884-3.366a6.14 6.14 0 0 1 2.408-2.259q1.533-.81 3.441-.809 1.917 0 3.398.809 1.48.81 2.323 2.184.841 1.374.841 3.058 0 1.203-.437 2.354-.426 1.14-1.491 2.546-1.055 1.396-2.93 3.409l-4.9 5.242v.17h10.142V176z"/><path fill="#fff" d="M576.451 29.298q-1.875 0-3.377-.745-1.502-.747-2.408-2.046-.906-1.3-.991-2.962h2.557q.149 1.481 1.342 2.45 1.204.96 2.877.96 1.342 0 2.386-.629a4.43 4.43 0 0 0 1.651-1.726q.608-1.108.608-2.503 0-1.427-.629-2.547a4.6 4.6 0 0 0-1.704-1.779q-1.087-.65-2.483-.66a6.8 6.8 0 0 0-2.056.309q-1.055.309-1.736.799l-2.472-.299 1.321-10.738h11.335v2.344h-9.119l-.767 6.434h.128q.67-.533 1.683-.884a6.4 6.4 0 0 1 2.109-.352q2.004 0 3.569.96a6.7 6.7 0 0 1 2.472 2.599q.905 1.65.905 3.771 0 2.088-.937 3.729a6.85 6.85 0 0 1-2.557 2.578q-1.63.937-3.707.937M778.371 29l9.759-19.304v-.17h-11.25V7.182h13.977v2.471L781.141 29z"/><path fill="#727272" d="M469.08 176.298q-2.11 0-3.761-.724-1.641-.724-2.61-2.014-.959-1.299-1.044-3.015h2.685q.085 1.056.724 1.822.64.756 1.673 1.172t2.29.416q1.407 0 2.493-.491 1.087-.49 1.705-1.363.618-.874.618-2.024 0-1.205-.597-2.12-.597-.927-1.747-1.449t-2.813-.522h-1.747v-2.344h1.747q1.3 0 2.28-.469.991-.469 1.545-1.321.565-.852.565-2.003 0-1.107-.49-1.928a3.35 3.35 0 0 0-1.385-1.278q-.885-.459-2.088-.458-1.13 0-2.131.415-.991.405-1.619 1.183-.63.767-.682 1.853h-2.557q.063-1.715 1.033-3.004.97-1.3 2.536-2.024 1.577-.724 3.462-.724 2.025 0 3.473.82 1.449.81 2.227 2.141.777 1.332.777 2.877 0 1.843-.969 3.142-.959 1.3-2.61 1.801v.17q2.067.34 3.228 1.758 1.161 1.407 1.161 3.484 0 1.779-.969 3.196-.96 1.406-2.621 2.216-1.662.809-3.782.809M566.123 171.526v-2.174l9.588-15.17h1.577v3.366h-1.065l-7.245 11.463v.171h12.912v2.344zm10.27 4.474v-21.818h2.514V176zM784.451 176.298q-1.875 0-3.377-.745-1.502-.746-2.408-2.046t-.991-2.962h2.557q.149 1.481 1.342 2.451 1.204.959 2.877.959 1.342 0 2.386-.629a4.43 4.43 0 0 0 1.651-1.726q.608-1.107.608-2.503 0-1.428-.629-2.547a4.6 4.6 0 0 0-1.704-1.779q-1.087-.65-2.483-.66a6.8 6.8 0 0 0-2.056.309q-1.055.309-1.736.799l-2.472-.299 1.321-10.738h11.335v2.344h-9.119l-.767 6.434h.128q.67-.533 1.683-.884a6.4 6.4 0 0 1 2.109-.352q2.004 0 3.569.959a6.7 6.7 0 0 1 2.472 2.6q.905 1.651.905 3.771 0 2.088-.937 3.729a6.86 6.86 0 0 1-2.557 2.578q-1.63.937-3.707.937"/><path stroke="#727272" stroke-width="2" d="M154 91h422"/><path stroke="#fff" stroke-width="2" d="M576 91h208M785 58v67"/><path stroke="#727272" stroke-width="2" d="M155 58v67M260 73v38M365 73v38M470 73v38"/><path stroke="#fff" stroke-width="2" d="M575 73v38"/></svg>