<svg xmlns="http://www.w3.org/2000/svg" width="1153" height="249" fill="none" viewBox="0 0 1153 249"><path fill="#727272" d="M341.751 170.182V192h-2.642v-21.818zm7.471 11.974V192h-2.515v-16.364h2.429v2.557h.213a4.7 4.7 0 0 1 1.748-2.003q1.171-.767 3.025-.767 1.662 0 2.909.682 1.246.671 1.938 2.046.693 1.363.693 3.451V192h-2.514v-10.227q0-1.929-1.002-3.005-1-1.086-2.748-1.086-1.204 0-2.152.522a3.74 3.74 0 0 0-1.481 1.523q-.543 1.002-.543 2.429m21.213 10.185q-2.045 0-3.611-1.033-1.566-1.044-2.451-2.941-.884-1.906-.884-4.506 0-2.578.884-4.475.885-1.896 2.461-2.929 1.577-1.034 3.644-1.034 1.598 0 2.525.533.938.522 1.427 1.193.5.66.778 1.087h.213v-8.054h2.514V192h-2.429v-2.514h-.298q-.278.447-.788 1.129-.512.671-1.46 1.204-.948.522-2.525.522m.341-2.259q1.513 0 2.557-.788 1.044-.8 1.587-2.205.543-1.417.544-3.271 0-1.832-.533-3.206-.533-1.386-1.577-2.152-1.044-.778-2.578-.778-1.598 0-2.663.82-1.054.81-1.588 2.205-.522 1.386-.522 3.111 0 1.747.533 3.175.543 1.416 1.598 2.258 1.065.831 2.642.831m18.974 2.259q-2.366 0-4.08-1.044-1.705-1.055-2.632-2.94-.916-1.897-.916-4.411t.916-4.432q.927-1.928 2.578-3.004 1.662-1.087 3.878-1.087 1.278 0 2.525.426a6.3 6.3 0 0 1 2.269 1.385q1.023.948 1.63 2.515.607 1.566.607 3.856v1.065h-12.613v-2.173h10.057q0-1.385-.554-2.471a4.2 4.2 0 0 0-1.556-1.716q-1.001-.628-2.365-.628-1.502 0-2.599.746a4.9 4.9 0 0 0-1.673 1.917 5.6 5.6 0 0 0-.586 2.536v1.449q0 1.853.639 3.142.65 1.279 1.801 1.95 1.15.66 2.674.66.99 0 1.79-.277a3.8 3.8 0 0 0 1.395-.852q.587-.575.906-1.427l2.429.681a5.4 5.4 0 0 1-1.289 2.174q-.906.927-2.238 1.449-1.33.51-2.993.511m12.036-16.705 3.92 6.691 3.92-6.691h2.898l-5.284 8.182 5.284 8.182h-2.898l-3.92-6.349-3.92 6.349h-2.898l5.199-8.182-5.199-8.182zm20.513 16.705q-2.365 0-4.081-1.044-1.704-1.055-2.631-2.94-.916-1.897-.916-4.411t.916-4.432q.927-1.928 2.578-3.004 1.662-1.087 3.878-1.087 1.278 0 2.525.426a6.3 6.3 0 0 1 2.269 1.385q1.023.948 1.63 2.515.607 1.566.607 3.856v1.065h-12.613v-2.173h10.056q0-1.385-.554-2.471a4.17 4.17 0 0 0-1.555-1.716q-1.002-.628-2.365-.628-1.502 0-2.599.746a4.9 4.9 0 0 0-1.673 1.917 5.6 5.6 0 0 0-.586 2.536v1.449q0 1.853.639 3.142.65 1.279 1.801 1.95 1.15.66 2.674.66.99 0 1.789-.277a3.8 3.8 0 0 0 1.396-.852q.586-.575.906-1.427l2.429.681a5.4 5.4 0 0 1-1.29 2.174q-.905.927-2.237 1.449-1.331.51-2.993.511m22.191-13.04-2.259.639a4.2 4.2 0 0 0-.628-1.097q-.406-.543-1.108-.895-.703-.351-1.801-.351-1.502 0-2.503.692-.991.682-.991 1.737 0 .937.682 1.48.682.544 2.13.906l2.429.597q2.195.532 3.271 1.629 1.076 1.087 1.076 2.802 0 1.407-.81 2.515-.798 1.107-2.237 1.747-1.438.639-3.345.639-2.503 0-4.144-1.087-1.64-1.086-2.078-3.174l2.387-.597q.34 1.321 1.289 1.981.959.661 2.503.661 1.758 0 2.792-.746 1.044-.756 1.044-1.811a1.9 1.9 0 0 0-.597-1.427q-.597-.586-1.832-.874l-2.728-.639q-2.247-.533-3.302-1.651-1.044-1.13-1.044-2.824 0-1.385.777-2.45.789-1.065 2.142-1.672 1.364-.608 3.089-.608 2.43 0 3.814 1.066 1.396 1.065 1.982 2.812m5.915 12.869q-.789 0-1.353-.564a1.85 1.85 0 0 1-.565-1.353q0-.789.565-1.353a1.84 1.84 0 0 1 1.353-.565q.789 0 1.353.565.565.564.565 1.353 0 .522-.267.959a2 2 0 0 1-.692.703q-.426.255-.959.255m0-12.144q-.789 0-1.353-.565a1.85 1.85 0 0 1-.565-1.353q0-.789.565-1.353a1.85 1.85 0 0 1 1.353-.565q.789 0 1.353.565.565.564.565 1.353 0 .522-.267.959a2 2 0 0 1-.692.703q-.426.255-.959.256"/><path fill="#fff" d="m339.736 7.182 6.477 18.366h.256l6.477-18.366h2.77L347.705 29h-2.727l-8.012-21.818zm22.33 22.202q-1.555 0-2.823-.586a4.84 4.84 0 0 1-2.014-1.716q-.746-1.13-.746-2.727 0-1.405.554-2.28.554-.884 1.481-1.385a7.8 7.8 0 0 1 2.046-.745q1.128-.256 2.269-.405 1.491-.192 2.418-.288.938-.106 1.364-.351.436-.246.436-.853v-.085q0-1.577-.862-2.45-.853-.874-2.589-.874-1.8 0-2.823.789-1.023.787-1.439 1.683l-2.386-.852q.639-1.492 1.705-2.323A6.4 6.4 0 0 1 361 12.764a9.7 9.7 0 0 1 2.515-.34q.788 0 1.811.191 1.034.18 1.992.756.969.576 1.608 1.737t.64 3.11V29h-2.515v-2.216h-.127q-.256.533-.853 1.14-.595.608-1.587 1.033-.99.426-2.418.427m.383-2.259q1.493 0 2.514-.586 1.034-.586 1.556-1.513a3.86 3.86 0 0 0 .532-1.95v-2.3q-.159.191-.703.351-.533.15-1.235.267-.693.105-1.353.191-.65.075-1.055.128a9.6 9.6 0 0 0-1.832.416q-.843.276-1.364.841-.511.555-.511 1.513 0 1.31.969 1.982.98.66 2.482.66m14.22-19.943V29h-2.514V7.182zm14.917 15.128v-9.674h2.514V29h-2.514v-2.77h-.17q-.575 1.247-1.79 2.12-1.214.863-3.068.863-1.534 0-2.727-.671-1.194-.682-1.875-2.046-.682-1.374-.682-3.462V12.636h2.514v10.228q0 1.79 1.001 2.855 1.013 1.065 2.579 1.065.937 0 1.907-.48.98-.479 1.64-1.47.671-.99.671-2.524m13.98 7.03q-2.365 0-4.08-1.043-1.705-1.054-2.631-2.94-.917-1.897-.917-4.411t.917-4.432q.926-1.928 2.578-3.004 1.661-1.086 3.878-1.087 1.278 0 2.524.426a6.3 6.3 0 0 1 2.27 1.385q1.022.948 1.63 2.515.606 1.567.607 3.856v1.066h-12.614v-2.174h10.057q0-1.385-.554-2.471a4.2 4.2 0 0 0-1.555-1.716q-1.002-.628-2.365-.628-1.502 0-2.6.746a4.9 4.9 0 0 0-1.672 1.917 5.6 5.6 0 0 0-.586 2.536v1.448q0 1.854.639 3.143.65 1.279 1.8 1.95 1.151.66 2.674.66a5.4 5.4 0 0 0 1.79-.277 3.8 3.8 0 0 0 1.396-.852q.585-.575.905-1.427l2.429.681a5.4 5.4 0 0 1-1.289 2.174q-.905.927-2.237 1.448-1.332.512-2.994.512m22.191-13.039-2.258.64a4.2 4.2 0 0 0-.629-1.098q-.405-.543-1.108-.895-.703-.351-1.8-.351-1.503 0-2.504.692-.99.682-.99 1.737 0 .937.681 1.48.682.544 2.131.906l2.429.597q2.194.532 3.271 1.63 1.076 1.086 1.076 2.801 0 1.407-.81 2.514-.799 1.11-2.237 1.748-1.438.639-3.345.639-2.505 0-4.145-1.087t-2.077-3.175l2.386-.596q.341 1.32 1.289 1.982.96.66 2.504.66 1.758 0 2.791-.746 1.044-.756 1.044-1.81 0-.854-.596-1.428-.597-.586-1.833-.874l-2.727-.64q-2.249-.532-3.303-1.65-1.044-1.13-1.044-2.824 0-1.385.778-2.45.788-1.065 2.141-1.672 1.363-.608 3.09-.608 2.428 0 3.814 1.066 1.395 1.065 1.981 2.812m5.916 12.87q-.789 0-1.353-.565a1.84 1.84 0 0 1-.565-1.353q0-.789.565-1.353a1.84 1.84 0 0 1 1.353-.565q.788 0 1.353.565.564.564.564 1.353 0 .522-.266.959a2 2 0 0 1-.693.703q-.426.256-.958.256m0-12.145q-.789 0-1.353-.565a1.84 1.84 0 0 1-.565-1.353q0-.789.565-1.353a1.84 1.84 0 0 1 1.353-.565q.788 0 1.353.565.564.564.564 1.353 0 .522-.266.959a2 2 0 0 1-.693.703q-.426.256-.958.256"/><path fill="#727272" d="M492.956 7.182V29h-2.642V9.952h-.128l-5.326 3.537v-2.685l5.454-3.622zM490.5 192.298q-2.407 0-4.102-1.31-1.694-1.322-2.588-3.825-.895-2.514-.895-6.072 0-3.537.895-6.041.905-2.514 2.599-3.835 1.704-1.332 4.091-1.331 2.387 0 4.08 1.331 1.705 1.321 2.6 3.835.905 2.504.905 6.041 0 3.558-.895 6.072-.894 2.504-2.588 3.825-1.695 1.31-4.102 1.31m0-2.343q2.387 0 3.707-2.302 1.321-2.3 1.321-6.562 0-2.834-.607-4.826-.597-1.992-1.726-3.036-1.118-1.044-2.695-1.044-2.365 0-3.697 2.333-1.332 2.322-1.331 6.573 0 2.834.596 4.815.597 1.982 1.715 3.015 1.13 1.034 2.717 1.034M885.845 242v-21.818h2.642v19.474h10.142V242zm23.182.341q-2.215 0-3.889-1.055-1.661-1.055-2.599-2.951-.927-1.896-.927-4.432 0-2.556.927-4.463.938-1.908 2.599-2.962 1.674-1.055 3.889-1.055 2.216 0 3.878 1.055 1.672 1.054 2.599 2.962.938 1.907.938 4.463 0 2.536-.938 4.432-.927 1.896-2.599 2.951-1.662 1.055-3.878 1.055m0-2.259q1.683 0 2.77-.863 1.087-.862 1.609-2.269.522-1.406.522-3.047a8.8 8.8 0 0 0-.522-3.057q-.522-1.417-1.609-2.291t-2.77-.873-2.77.873q-1.087.874-1.609 2.291a8.8 8.8 0 0 0-.522 3.057q0 1.641.522 3.047t1.609 2.269 2.77.863M923.43 242l-4.985-16.364h2.642l3.537 12.529h.17l3.494-12.529h2.685l3.452 12.486h.17l3.537-12.486h2.642L935.788 242h-2.471l-3.58-12.571h-.255L925.902 242zM1089.98 242v-21.818h2.64v9.716h11.63v-9.716h2.64V242h-2.64v-9.759h-11.63V242zm21.86 0v-16.364h2.52V242zm1.28-19.091a1.8 1.8 0 0 1-1.27-.501 1.6 1.6 0 0 1-.52-1.203c0-.469.17-.87.52-1.204a1.8 1.8 0 0 1 1.27-.501q.735 0 1.26.501c.35.334.53.735.53 1.204s-.18.87-.53 1.203a1.76 1.76 0 0 1-1.26.501m12.45 25.568c-1.22 0-2.26-.156-3.14-.468-.87-.306-1.6-.711-2.18-1.215-.57-.497-1.03-1.03-1.37-1.598l2-1.406c.23.298.51.639.86 1.022.35.391.83.728 1.43 1.013q.915.436 2.4.436 1.98 0 3.27-.958 1.29-.96 1.29-3.005v-3.324h-.22c-.18.299-.44.668-.79 1.108q-.495.65-1.44 1.162c-.63.333-1.47.5-2.54.5-1.32 0-2.51-.312-3.56-.937-1.04-.625-1.87-1.534-2.48-2.727-.6-1.194-.91-2.643-.91-4.347 0-1.676.3-3.136.89-4.379q.885-1.875 2.46-2.897c1.05-.689 2.27-1.034 3.64-1.034 1.07 0 1.91.178 2.54.533.63.348 1.11.746 1.45 1.193.34.44.6.803.79 1.087h.25v-2.6h2.43v16.833q0 2.109-.96 3.43c-.63.888-1.48 1.538-2.56 1.95-1.06.419-2.25.628-3.55.628m-.09-8.991c1.01 0 1.86-.231 2.56-.693q1.035-.692 1.59-1.992.54-1.299.54-3.111c0-1.179-.18-2.219-.53-3.121-.36-.902-.88-1.609-1.58-2.12q-1.05-.767-2.58-.767c-1.06 0-1.95.27-2.66.809-.71.54-1.23 1.265-1.59 2.174-.35.909-.52 1.917-.52 3.025 0 1.137.18 2.142.53 3.015.36.867.9 1.549 1.6 2.046q1.065.735 2.64.735m14.28-7.33V242h-2.52v-21.818h2.52v8.011h.21c.38-.845.96-1.516 1.73-2.013q1.155-.757 3.09-.757c1.11 0 2.09.224 2.92.671q1.26.661 1.95 2.035c.47.909.71 2.067.71 3.473V242h-2.52v-10.227c0-1.3-.33-2.305-1.01-3.015-.67-.718-1.59-1.076-2.78-1.076q-1.23 0-2.22.522a3.87 3.87 0 0 0-1.53 1.523c-.37.668-.55 1.478-.55 2.429M587.676 29v-1.918l7.202-7.883a50 50 0 0 0 2.088-2.408q.82-1.033 1.215-1.939.405-.916.405-1.917 0-1.15-.554-1.992a3.6 3.6 0 0 0-1.492-1.3q-.948-.458-2.131-.458-1.257 0-2.194.522-.927.51-1.438 1.438-.501.927-.501 2.173h-2.514q0-1.917.884-3.366a6.14 6.14 0 0 1 2.408-2.259q1.533-.81 3.441-.81 1.917 0 3.398.81 1.48.81 2.323 2.184.841 1.374.841 3.058 0 1.203-.437 2.354-.426 1.14-1.491 2.546-1.055 1.395-2.93 3.41l-4.9 5.24v.171h10.142V29zM597.956 170.182V192h-2.642v-19.048h-.128l-5.326 3.537v-2.685l5.454-3.622zM700.58 29.298q-2.11 0-3.761-.724-1.641-.724-2.61-2.014-.958-1.3-1.044-3.014h2.685q.085 1.054.724 1.821.64.756 1.673 1.172t2.29.415q1.407 0 2.493-.49 1.087-.489 1.705-1.363.618-.873.618-2.024 0-1.205-.597-2.12-.597-.927-1.747-1.45-1.15-.52-2.813-.521h-1.747v-2.344h1.747q1.3 0 2.28-.469.991-.468 1.545-1.32.564-.853.565-2.004 0-1.107-.49-1.928a3.36 3.36 0 0 0-1.385-1.278q-.885-.458-2.088-.458-1.13 0-2.131.415-.991.405-1.619 1.183-.63.767-.682 1.853h-2.557q.064-1.714 1.033-3.004.97-1.3 2.536-2.024 1.577-.724 3.462-.724 2.024 0 3.473.82 1.449.81 2.227 2.141a5.6 5.6 0 0 1 .777 2.877q0 1.842-.969 3.142-.958 1.3-2.61 1.8v.171q2.067.34 3.228 1.758 1.161 1.407 1.161 3.484 0 1.779-.969 3.196-.96 1.406-2.621 2.216t-3.782.81M796.623 24.526v-2.174l9.588-15.17h1.577v3.366h-1.065l-7.245 11.463v.17h12.912v2.345zM806.893 29V7.182h2.514V29zM693.676 192v-1.918l7.202-7.883a50 50 0 0 0 2.088-2.408q.82-1.033 1.215-1.939.405-.916.405-1.917 0-1.15-.554-1.993a3.6 3.6 0 0 0-1.492-1.299q-.948-.458-2.131-.458-1.257 0-2.194.522a3.6 3.6 0 0 0-1.438 1.438q-.501.927-.501 2.173h-2.514q0-1.917.884-3.366a6.14 6.14 0 0 1 2.408-2.259q1.533-.81 3.441-.809 1.917 0 3.398.809 1.48.81 2.323 2.184.841 1.374.841 3.058 0 1.203-.437 2.354-.426 1.14-1.491 2.546-1.055 1.396-2.93 3.409l-4.9 5.242v.17h10.142V192z"/><path fill="#fff" d="M912.451 29.298q-1.875 0-3.377-.745-1.502-.747-2.408-2.046-.906-1.3-.991-2.962h2.557q.149 1.481 1.342 2.45 1.204.96 2.877.96 1.342 0 2.386-.629a4.43 4.43 0 0 0 1.651-1.726q.608-1.108.608-2.503 0-1.427-.629-2.547a4.6 4.6 0 0 0-1.704-1.779q-1.087-.65-2.483-.66a6.8 6.8 0 0 0-2.056.309q-1.055.309-1.736.799l-2.472-.299 1.321-10.738h11.335v2.344h-9.119l-.767 6.434h.128q.67-.533 1.683-.884a6.4 6.4 0 0 1 2.109-.352q2.004 0 3.569.96a6.7 6.7 0 0 1 2.472 2.599q.905 1.65.905 3.771 0 2.088-.937 3.729a6.85 6.85 0 0 1-2.557 2.578q-1.63.937-3.707.937M1114.37 29l9.76-19.304v-.17h-11.25V7.182h13.98v2.471L1117.14 29z"/><path fill="#727272" d="M805.08 192.298q-2.11 0-3.761-.724-1.641-.724-2.61-2.014-.958-1.299-1.044-3.015h2.685q.085 1.056.724 1.822.64.756 1.673 1.172t2.29.416q1.407 0 2.493-.491 1.087-.49 1.705-1.363.618-.874.618-2.024 0-1.205-.597-2.12-.597-.927-1.747-1.449t-2.813-.522h-1.747v-2.344h1.747q1.3 0 2.28-.469.991-.469 1.545-1.321.564-.852.565-2.003 0-1.107-.49-1.928a3.35 3.35 0 0 0-1.385-1.278q-.885-.458-2.088-.458-1.13 0-2.131.415-.991.405-1.619 1.183-.63.767-.682 1.853h-2.557q.064-1.715 1.033-3.004.97-1.3 2.536-2.024 1.577-.724 3.462-.724 2.024 0 3.473.82 1.449.81 2.227 2.141.777 1.332.777 2.877 0 1.843-.969 3.142-.958 1.3-2.61 1.801v.17q2.067.34 3.228 1.758 1.161 1.407 1.161 3.484 0 1.779-.969 3.196-.96 1.406-2.621 2.216-1.662.809-3.782.809M902.123 187.526v-2.174l9.588-15.17h1.577v3.366h-1.065l-7.245 11.463v.171h12.912v2.344zm10.27 4.474v-21.818h2.514V192zM1120.45 192.298c-1.25 0-2.37-.248-3.38-.745q-1.5-.746-2.4-2.046-.915-1.3-.99-2.962h2.55c.1.988.55 1.804 1.34 2.451q1.215.959 2.88.959c.9 0 1.69-.21 2.39-.629q1.05-.628 1.65-1.726c.4-.738.61-1.573.61-2.503q0-1.428-.63-2.547a4.6 4.6 0 0 0-1.71-1.779c-.72-.433-1.55-.653-2.48-.66a6.9 6.9 0 0 0-2.06.309c-.7.206-1.28.472-1.73.799l-2.47-.299 1.32-10.738h11.33v2.344h-9.12l-.76 6.434h.12c.45-.355 1.01-.65 1.69-.884a6.3 6.3 0 0 1 2.11-.352q1.995 0 3.57.959a6.7 6.7 0 0 1 2.47 2.6q.9 1.651.9 3.771c0 1.392-.31 2.635-.94 3.729a6.83 6.83 0 0 1-2.55 2.578c-1.09.625-2.32.937-3.71.937"/><path fill="#096" d="M7.18 155.32q-1.216 0-2.272-.64-1.023-.672-1.664-2.048-.608-1.409-.608-3.648 0-2.304.704-4.352.737-2.048 2.016-3.584a9.5 9.5 0 0 1 3.008-2.464 8.2 8.2 0 0 1 3.776-.896q1.248 0 2.592.416 1.344.415 2.72 1.344l-1.376-.224.704-1.184h1.728l-2.56 16.16-1.088-2.016 3.712 1.024-.288 1.76-5.28.16 1.024-6.08.928-1.568q-.672 2.624-1.984 4.384-1.312 1.728-2.848 2.592t-2.944.864m1.216-2.56q.8 0 1.696-.48.929-.512 1.76-1.504.833-1.024 1.472-2.528.672-1.504.992-3.52l.704-4.48.544 1.088q-.927-.64-1.792-.928a5.3 5.3 0 0 0-1.696-.288q-1.376 0-2.528.704-1.12.704-1.952 1.888t-1.312 2.72a11.4 11.4 0 0 0-.448 3.2q0 2.144.736 3.136.737.992 1.824.992M22.058 155l2.56-16.096 1.088 1.952-3.68-1.024.256-1.696 5.44-.224-1.184 6.016-.96 1.632q.64-2.496 1.888-4.256 1.28-1.76 2.816-2.656 1.567-.928 3.072-.928.768 0 1.312.224l-.864 5.024H31.85l.032-3.104.416.352q-.897-.064-1.824.448-.928.48-1.792 1.504-.833 1.024-1.472 2.528-.64 1.504-.96 3.456L25.194 155zm13.468 0 2.56-16.096 1.088 1.952-3.68-1.024.256-1.696 5.44-.224-1.184 6.016-.96 1.632q.64-2.496 1.888-4.256 1.28-1.76 2.816-2.656 1.569-.928 3.072-.928.769 0 1.312.224l-.864 5.024h-1.952l.032-3.104.416.352q-.895-.064-1.824.448-.928.48-1.792 1.504-.831 1.024-1.472 2.528-.639 1.504-.96 3.456L38.662 155zm12.097 3.36 4.864-30.656 7.04.16-.288 2.016-4.448.16-4.096 25.952 4.384.192-.352 2.016zm21.977-3.232 1.792-11.008q.192-1.248 0-2.112-.16-.864-.672-1.312-.48-.448-1.28-.448t-1.696.48-1.76 1.44q-.833.96-1.472 2.464-.64 1.504-.992 3.52L62.464 155h-3.136l3.616-22.784.416.608-2.848-.608.288-1.76 5.568-.224L64 143.928l-1.152 1.632q.768-2.816 2.08-4.544 1.344-1.728 2.88-2.496 1.536-.8 2.944-.8 1.376 0 2.336.672t1.376 1.952q.447 1.28.128 3.104l-1.536 9.728-1.312-.992 3.744 1.024-.288 1.76zm9.176 0 2.592-16.224 1.12 1.952-3.712-1.024.256-1.696 5.6-.224-2.56 16.256-1.088-1.952 3.68 1.056-.288 1.696zm4.864-20.32q-.832 0-1.312-.512t-.48-1.344q0-1.024.608-1.664.64-.64 1.6-.64.832 0 1.312.48t.48 1.376q0 .992-.64 1.664-.609.64-1.568.64m8.799 27.872q-1.409 0-2.88-.288a22 22 0 0 1-2.88-.768l.672-2.272q1.344.448 2.624.704 1.311.256 2.368.256 1.44 0 2.4-.416.991-.384 1.6-1.088a5.1 5.1 0 0 0 .992-1.632 8.5 8.5 0 0 0 .544-1.952l.96-6.208 1.024-1.536q-.672 2.624-1.984 4.384-1.28 1.728-2.848 2.592-1.537.864-2.944.864-1.216 0-2.272-.64-1.025-.672-1.664-2.048-.609-1.409-.608-3.648 0-2.304.704-4.352.735-2.048 2.016-3.584a9.1 9.1 0 0 1 3.008-2.432 8.2 8.2 0 0 1 3.776-.896q1.248 0 2.592.416 1.344.384 2.72 1.312l-1.344-.288.672-1.12h1.728l-2.688 17.12q-.352 2.112-1.12 3.552-.737 1.44-1.856 2.304a6.6 6.6 0 0 1-2.464 1.28 10.3 10.3 0 0 1-2.848.384m.864-9.92q.8 0 1.696-.48.895-.512 1.728-1.504.864-1.024 1.504-2.528t.992-3.52l.704-4.48.544 1.088q-.928-.64-1.792-.928a5.3 5.3 0 0 0-1.696-.288q-1.377 0-2.528.704-1.12.704-1.952 1.888t-1.312 2.72a11.4 11.4 0 0 0-.448 3.2q0 2.144.736 3.136.735.992 1.824.992m23.015 2.368 1.792-11.008q.192-1.248 0-2.112-.159-.864-.672-1.312-.48-.448-1.28-.448t-1.696.48-1.76 1.44q-.831.96-1.472 2.464-.64 1.504-.992 3.52L109.182 155h-3.136l3.616-22.784.416.608-2.848-.608.288-1.76 5.568-.224-2.368 13.696-1.152 1.632q.769-2.816 2.08-4.544 1.344-1.728 2.88-2.496 1.537-.8 2.944-.8 1.376 0 2.336.672t1.376 1.952q.449 1.28.128 3.104l-1.536 9.728-1.312-.992 3.744 1.024-.288 1.76zm18.456-27.424-4.864 30.656-7.072-.16.32-2.016 4.416-.192 4.128-25.952-4.384-.16.32-2.016zm16.853 16.672-.384 2.496h-9.088l.384-2.496zm13.303 10.944q-1.216 0-2.272-.64-1.023-.672-1.664-2.048-.608-1.409-.608-3.648 0-2.304.704-4.352.737-2.048 2.016-3.584a9.5 9.5 0 0 1 3.008-2.464 8.2 8.2 0 0 1 3.776-.896q1.248 0 2.592.416 1.344.415 2.72 1.344l-1.376-.224.704-1.184h1.728l-2.56 16.16-1.088-2.016 3.712 1.024-.288 1.76-5.28.16 1.024-6.08.928-1.568q-.672 2.624-1.984 4.384-1.312 1.728-2.848 2.592t-2.944.864m1.216-2.56q.8 0 1.696-.48.929-.512 1.76-1.504.833-1.024 1.472-2.528.672-1.504.992-3.52l.704-4.48.544 1.088q-.927-.64-1.792-.928a5.3 5.3 0 0 0-1.696-.288 4.76 4.76 0 0 0-2.528.704q-1.12.704-1.952 1.888a9.8 9.8 0 0 0-1.312 2.72 11.4 11.4 0 0 0-.448 3.2q0 2.144.736 3.136.737.992 1.824.992m13.662 2.24 2.56-16.096 1.088 1.952-3.68-1.024.256-1.696 5.44-.224-1.184 6.016-.96 1.632q.64-2.496 1.888-4.256 1.28-1.76 2.816-2.656 1.567-.928 3.072-.928.768 0 1.312.224l-.864 5.024H189.6l.032-3.104.416.352q-.897-.064-1.824.448-.928.48-1.792 1.504-.833 1.024-1.472 2.528-.64 1.504-.96 3.456L182.944 155zm13.468 0 2.56-16.096 1.088 1.952-3.68-1.024.256-1.696 5.44-.224-1.184 6.016-.96 1.632q.64-2.496 1.888-4.256 1.28-1.76 2.816-2.656 1.569-.928 3.072-.928.768 0 1.312.224l-.864 5.024h-1.952l.032-3.104.416.352q-.895-.064-1.824.448-.928.48-1.792 1.504-.831 1.024-1.472 2.528-.639 1.504-.96 3.456L196.412 155zm12.097 3.36 4.864-30.656 7.04.16-.288 2.016-4.448.16-4.096 25.952 4.384.192-.352 2.016zm11.673-3.232 3.776-23.904 1.12 1.92-3.68-.928.256-1.76 5.6-.224-3.776 23.904-1.152-1.952 3.744 1.024-.288 1.76zm17.93-17.408q1.888 0 3.296.736 1.409.704 2.208 2.24t.8 4q0 1.984-.576 3.904a10.9 10.9 0 0 1-1.664 3.424 8.2 8.2 0 0 1-2.848 2.4q-1.696.896-3.968.896-1.856 0-3.296-.704-1.409-.736-2.208-2.272-.768-1.567-.768-4.032 0-1.984.544-3.872a11 11 0 0 1 1.696-3.392 8.15 8.15 0 0 1 2.816-2.432q1.696-.896 3.968-.896m-.32 2.336q-1.44 0-2.496.8-1.024.8-1.696 2.08a10.3 10.3 0 0 0-.992 2.72q-.32 1.44-.32 2.72 0 2.176.832 3.392.864 1.216 2.592 1.216 1.408 0 2.432-.8a6.2 6.2 0 0 0 1.728-2.048q.672-1.28.992-2.72.352-1.471.352-2.784 0-2.177-.832-3.36-.832-1.216-2.592-1.216m11.431 15.008-1.728-15.136.384.32-2.048-.384.256-1.728 4.288-.224 1.152 15.296h-.448l6.272-15.104 3.328-.16 1.312 15.232h-.352l5.6-13.28.16.448-2.208-.48.256-1.728 5.984-.224-.224 1.696-1.824.544.512-.384-6.816 15.296h-3.392l-1.6-14.688.864.064-6.336 14.624zm31.969-27.36-4.864 30.656-7.072-.16.32-2.016 4.416-.192 4.128-25.952-4.384-.16.32-2.016z"/><path fill="#e27c00" d="M60.549 60.344a33 33 0 0 0-3.904 5.696 30.7 30.7 0 0 0-2.592 6.4 25.6 25.6 0 0 0-.896 6.688q0 2.753.64 5.504a22 22 0 0 0 2.016 5.248L53.733 91a20.9 20.9 0 0 1-2.656-5.888 23.9 23.9 0 0 1-.864-6.368q0-3.68 1.056-7.232a30.1 30.1 0 0 1 2.944-6.752 32.5 32.5 0 0 1 4.48-5.856zM57.759 87l.288-1.696 2.784-.512-.832.448 5.664-7.328.992-.128 5.92-7.648 3.872-.224-.256 1.696-2.624.544.928-.48-5.632 6.88-.928.128L61.759 87zm12.32 0-4.096-7.968-3.84-7.328.576.576-2.144-.416.256-1.728 3.744-.288 3.776 7.424 4.192 7.968-.544-.512 2.592.576L74.303 87zm23.314-10.624-.384 2.496H83.92l.384-2.496zm13.303 10.944a4.3 4.3 0 0 1-2.272-.64q-1.024-.671-1.664-2.048-.608-1.409-.608-3.648 0-2.304.704-4.352.736-2.048 2.016-3.584a9.5 9.5 0 0 1 3.008-2.464 8.2 8.2 0 0 1 3.776-.896q1.248 0 2.592.416 1.344.415 2.72 1.344l-1.376-.224.704-1.184h1.728l-2.56 16.16-1.088-2.016 3.712 1.024-.288 1.76-5.28.16 1.024-6.08.928-1.568q-.672 2.624-1.984 4.384-1.312 1.728-2.848 2.592t-2.944.864m1.216-2.56q.8 0 1.696-.48.928-.512 1.76-1.504.832-1.024 1.472-2.528.672-1.504.992-3.52l.704-4.48.544 1.088q-.928-.64-1.792-.928a5.3 5.3 0 0 0-1.696-.288q-1.376 0-2.528.704-1.12.705-1.952 1.888-.832 1.185-1.312 2.72a11.4 11.4 0 0 0-.448 3.2q0 2.145.736 3.136.737.992 1.824.992M121.573 87l2.56-16.096 1.088 1.952-3.68-1.024.256-1.696 5.44-.224-1.184 6.016-.96 1.632q.64-2.496 1.888-4.256 1.28-1.76 2.816-2.656 1.569-.928 3.072-.928.768 0 1.312.224l-.864 5.024h-1.952l.032-3.104.416.352q-.896-.064-1.824.448-.928.48-1.792 1.504-.831 1.024-1.472 2.528-.639 1.505-.96 3.456L124.709 87zm13.469 0 2.56-16.096 1.088 1.952-3.68-1.024.256-1.696 5.44-.224-1.184 6.016-.96 1.632q.64-2.496 1.888-4.256 1.28-1.76 2.816-2.656 1.567-.928 3.072-.928.768 0 1.312.224l-.864 5.024h-1.952l.032-3.104.416.352q-.895-.064-1.824.448-.928.48-1.792 1.504-.832 1.024-1.472 2.528t-.96 3.456L138.178 87zm12.097 3.36 4.864-30.656 7.04.16-.288 2.016-4.448.16-4.096 25.952 4.384.192-.352 2.016zm11.672-3.232 3.776-23.904 1.12 1.92-3.68-.928.256-1.76 5.6-.224-3.776 23.904-1.152-1.952 3.744 1.024-.288 1.76zm17.931-17.408q1.887 0 3.296.736 1.407.704 2.208 2.24.8 1.536.8 4 0 1.984-.576 3.904a10.9 10.9 0 0 1-1.664 3.424 8.2 8.2 0 0 1-2.848 2.4q-1.697.896-3.968.896-1.856 0-3.296-.704-1.409-.735-2.208-2.272-.768-1.568-.768-4.032 0-1.984.544-3.872.576-1.889 1.696-3.392a8.14 8.14 0 0 1 2.816-2.432q1.695-.896 3.968-.896m-.32 2.336q-1.44 0-2.496.8-1.024.8-1.696 2.08a10.3 10.3 0 0 0-.992 2.72q-.32 1.44-.32 2.72 0 2.175.832 3.392.864 1.216 2.592 1.216 1.407 0 2.432-.8a6.2 6.2 0 0 0 1.728-2.048q.671-1.28.992-2.72.351-1.472.352-2.784 0-2.175-.832-3.36-.833-1.215-2.592-1.216m11.431 15.008-1.728-15.136.384.32-2.048-.384.256-1.728 4.288-.224 1.152 15.296h-.448l6.272-15.104 3.328-.16 1.312 15.232h-.352l5.6-13.28.16.448-2.208-.48.256-1.728 5.984-.224-.224 1.696-1.824.544.512-.384-6.816 15.296h-3.392l-1.6-14.688.864.064-6.336 14.624zm31.968-27.36-4.864 30.656-7.072-.16.32-2.016 4.416-.192 4.128-25.952-4.384-.16.32-2.016zm-1.276 30.048a32.8 32.8 0 0 0 3.904-5.696 29.5 29.5 0 0 0 2.56-6.4q.928-3.328.928-6.688 0-2.753-.64-5.504a20.3 20.3 0 0 0-2.016-5.248l2.08-1.152a20.2 20.2 0 0 1 2.656 5.92q.864 3.135.864 6.368a25.1 25.1 0 0 1-1.056 7.2 29.3 29.3 0 0 1-2.976 6.752 32.3 32.3 0 0 1-4.448 5.888z"/><path stroke="#fff" stroke-width="2" d="M0 110h279"/><path stroke="#727272" stroke-width="2" d="M490 107h422"/><path stroke="#fff" stroke-width="2" d="M912 107h208M1121 74v67"/><path stroke="#727272" stroke-width="2" d="M491 74v67M596 89v38M701 89v38M806 89v38"/><path stroke="#fff" stroke-width="2" d="M911 89v38"/><path stroke="#096" stroke-width="2" d="M912 65h208"/></svg>