<svg width="1150" height="249" viewBox="0 0 1150 249" fill="none" xmlns="http://www.w3.org/2000/svg">
<path d="M338.751 170.182V192H336.109V170.182H338.751ZM346.222 182.156V192H343.707V175.636H346.136V178.193H346.349C346.733 177.362 347.315 176.695 348.097 176.19C348.878 175.679 349.886 175.423 351.122 175.423C352.23 175.423 353.2 175.651 354.031 176.105C354.862 176.553 355.508 177.234 355.969 178.151C356.431 179.06 356.662 180.21 356.662 181.602V192H354.148V181.773C354.148 180.487 353.814 179.486 353.146 178.768C352.479 178.044 351.563 177.682 350.398 177.682C349.595 177.682 348.878 177.856 348.246 178.204C347.621 178.552 347.127 179.06 346.765 179.727C346.403 180.395 346.222 181.205 346.222 182.156ZM367.435 192.341C366.072 192.341 364.868 191.996 363.824 191.308C362.78 190.612 361.963 189.631 361.373 188.367C360.784 187.096 360.489 185.594 360.489 183.861C360.489 182.142 360.784 180.651 361.373 179.386C361.963 178.122 362.783 177.146 363.834 176.457C364.885 175.768 366.1 175.423 367.478 175.423C368.543 175.423 369.385 175.601 370.003 175.956C370.628 176.304 371.104 176.702 371.43 177.149C371.764 177.589 372.023 177.952 372.208 178.236H372.421V170.182H374.935V192H372.506V189.486H372.208C372.023 189.784 371.76 190.161 371.42 190.615C371.079 191.062 370.592 191.464 369.96 191.819C369.328 192.167 368.486 192.341 367.435 192.341ZM367.776 190.082C368.785 190.082 369.637 189.82 370.333 189.294C371.029 188.761 371.558 188.026 371.92 187.089C372.282 186.144 372.464 185.054 372.464 183.818C372.464 182.597 372.286 181.528 371.931 180.612C371.576 179.688 371.05 178.971 370.354 178.46C369.658 177.941 368.799 177.682 367.776 177.682C366.711 177.682 365.823 177.955 365.113 178.502C364.41 179.042 363.881 179.777 363.525 180.707C363.177 181.631 363.003 182.668 363.003 183.818C363.003 184.983 363.181 186.041 363.536 186.993C363.898 187.937 364.431 188.69 365.134 189.251C365.844 189.805 366.725 190.082 367.776 190.082ZM386.75 192.341C385.173 192.341 383.813 191.993 382.67 191.297C381.533 190.594 380.656 189.614 380.038 188.357C379.427 187.092 379.122 185.622 379.122 183.946C379.122 182.27 379.427 180.793 380.038 179.514C380.656 178.229 381.515 177.227 382.616 176.51C383.724 175.786 385.017 175.423 386.494 175.423C387.346 175.423 388.188 175.565 389.019 175.849C389.85 176.134 390.606 176.595 391.288 177.234C391.97 177.866 392.513 178.705 392.918 179.749C393.323 180.793 393.525 182.078 393.525 183.605V184.67H380.912V182.497H390.969C390.969 181.574 390.784 180.75 390.415 180.026C390.052 179.301 389.534 178.729 388.859 178.31C388.192 177.891 387.403 177.682 386.494 177.682C385.493 177.682 384.626 177.93 383.895 178.428C383.17 178.918 382.613 179.557 382.222 180.345C381.831 181.134 381.636 181.979 381.636 182.881V184.33C381.636 185.565 381.849 186.613 382.275 187.472C382.709 188.325 383.309 188.974 384.076 189.422C384.843 189.862 385.734 190.082 386.75 190.082C387.41 190.082 388.007 189.99 388.54 189.805C389.079 189.614 389.545 189.33 389.935 188.953C390.326 188.57 390.628 188.094 390.841 187.526L393.27 188.207C393.014 189.031 392.584 189.756 391.981 190.381C391.377 190.999 390.631 191.482 389.743 191.83C388.856 192.17 387.858 192.341 386.75 192.341ZM398.786 175.636L402.706 182.327L406.626 175.636H409.524L404.24 183.818L409.524 192H406.626L402.706 185.651L398.786 192H395.888L401.087 183.818L395.888 175.636H398.786ZM419.299 192.341C417.722 192.341 416.362 191.993 415.218 191.297C414.082 190.594 413.205 189.614 412.587 188.357C411.976 187.092 411.671 185.622 411.671 183.946C411.671 182.27 411.976 180.793 412.587 179.514C413.205 178.229 414.064 177.227 415.165 176.51C416.273 175.786 417.566 175.423 419.043 175.423C419.895 175.423 420.737 175.565 421.568 175.849C422.399 176.134 423.155 176.595 423.837 177.234C424.519 177.866 425.062 178.705 425.467 179.749C425.872 180.793 426.074 182.078 426.074 183.605V184.67H413.461V182.497H423.517C423.517 181.574 423.333 180.75 422.963 180.026C422.601 179.301 422.083 178.729 421.408 178.31C420.74 177.891 419.952 177.682 419.043 177.682C418.042 177.682 417.175 177.93 416.444 178.428C415.719 178.918 415.162 179.557 414.771 180.345C414.38 181.134 414.185 181.979 414.185 182.881V184.33C414.185 185.565 414.398 186.613 414.824 187.472C415.257 188.325 415.858 188.974 416.625 189.422C417.392 189.862 418.283 190.082 419.299 190.082C419.959 190.082 420.556 189.99 421.088 189.805C421.628 189.614 422.093 189.33 422.484 188.953C422.875 188.57 423.176 188.094 423.39 187.526L425.819 188.207C425.563 189.031 425.133 189.756 424.529 190.381C423.926 190.999 423.18 191.482 422.292 191.83C421.404 192.17 420.407 192.341 419.299 192.341ZM441.49 179.301L439.231 179.94C439.089 179.564 438.88 179.198 438.603 178.843C438.333 178.481 437.963 178.183 437.495 177.948C437.026 177.714 436.426 177.597 435.694 177.597C434.693 177.597 433.858 177.827 433.191 178.289C432.53 178.744 432.2 179.322 432.2 180.026C432.2 180.651 432.427 181.144 432.882 181.506C433.336 181.869 434.047 182.17 435.012 182.412L437.441 183.009C438.904 183.364 439.995 183.907 440.712 184.638C441.429 185.363 441.788 186.297 441.788 187.44C441.788 188.378 441.518 189.216 440.978 189.955C440.446 190.693 439.7 191.276 438.741 191.702C437.782 192.128 436.667 192.341 435.396 192.341C433.727 192.341 432.346 191.979 431.252 191.254C430.158 190.53 429.466 189.472 429.174 188.08L431.561 187.483C431.788 188.364 432.218 189.024 432.85 189.464C433.489 189.905 434.324 190.125 435.353 190.125C436.525 190.125 437.456 189.876 438.145 189.379C438.841 188.875 439.189 188.271 439.189 187.568C439.189 187 438.99 186.524 438.592 186.141C438.194 185.75 437.583 185.459 436.76 185.267L434.032 184.628C432.534 184.273 431.433 183.722 430.73 182.977C430.034 182.224 429.686 181.283 429.686 180.153C429.686 179.23 429.945 178.413 430.463 177.703C430.989 176.993 431.703 176.435 432.605 176.031C433.514 175.626 434.544 175.423 435.694 175.423C437.314 175.423 438.585 175.778 439.508 176.489C440.439 177.199 441.099 178.136 441.49 179.301ZM447.405 192.17C446.879 192.17 446.428 191.982 446.052 191.606C445.676 191.229 445.487 190.778 445.487 190.253C445.487 189.727 445.676 189.276 446.052 188.9C446.428 188.523 446.879 188.335 447.405 188.335C447.931 188.335 448.382 188.523 448.758 188.9C449.134 189.276 449.323 189.727 449.323 190.253C449.323 190.601 449.234 190.92 449.056 191.212C448.886 191.503 448.655 191.737 448.364 191.915C448.08 192.085 447.76 192.17 447.405 192.17ZM447.405 180.026C446.879 180.026 446.428 179.837 446.052 179.461C445.676 179.085 445.487 178.634 445.487 178.108C445.487 177.582 445.676 177.131 446.052 176.755C446.428 176.379 446.879 176.19 447.405 176.19C447.931 176.19 448.382 176.379 448.758 176.755C449.134 177.131 449.323 177.582 449.323 178.108C449.323 178.456 449.234 178.776 449.056 179.067C448.886 179.358 448.655 179.592 448.364 179.77C448.08 179.94 447.76 180.026 447.405 180.026Z" fill="#727272"/>
<path d="M336.736 7.18182L343.213 25.5483H343.469L349.946 7.18182H352.716L344.705 29H341.978L333.966 7.18182H336.736ZM359.066 29.3835C358.029 29.3835 357.088 29.1882 356.243 28.7976C355.397 28.3999 354.726 27.8281 354.229 27.0824C353.732 26.3295 353.483 25.4205 353.483 24.3551C353.483 23.4176 353.668 22.6577 354.037 22.0753C354.407 21.4858 354.9 21.0241 355.518 20.6903C356.136 20.3565 356.818 20.108 357.564 19.9446C358.316 19.7741 359.073 19.6392 359.833 19.5398C360.827 19.4119 361.633 19.3161 362.251 19.2521C362.876 19.1811 363.331 19.0639 363.615 18.9006C363.906 18.7372 364.051 18.4531 364.051 18.0483V17.9631C364.051 16.9119 363.764 16.0952 363.189 15.5128C362.62 14.9304 361.757 14.6392 360.6 14.6392C359.4 14.6392 358.458 14.902 357.777 15.4276C357.095 15.9531 356.615 16.5142 356.338 17.1108L353.952 16.2585C354.378 15.2642 354.946 14.4901 355.657 13.9361C356.374 13.375 357.155 12.9844 358 12.7642C358.853 12.5369 359.691 12.4233 360.515 12.4233C361.04 12.4233 361.644 12.4872 362.326 12.6151C363.015 12.7358 363.679 12.9879 364.318 13.3714C364.964 13.755 365.5 14.3338 365.926 15.108C366.353 15.8821 366.566 16.919 366.566 18.2188V29H364.051V26.7841H363.924C363.753 27.1392 363.469 27.5192 363.071 27.924C362.674 28.3288 362.145 28.6733 361.484 28.9574C360.824 29.2415 360.017 29.3835 359.066 29.3835ZM359.449 27.125C360.444 27.125 361.282 26.9297 361.963 26.5391C362.652 26.1484 363.171 25.6442 363.519 25.0263C363.874 24.4084 364.051 23.7585 364.051 23.0767V20.7756C363.945 20.9034 363.711 21.0206 363.348 21.1271C362.993 21.2266 362.581 21.3153 362.113 21.3935C361.651 21.4645 361.2 21.5284 360.76 21.5852C360.326 21.6349 359.975 21.6776 359.705 21.7131C359.051 21.7983 358.441 21.9368 357.873 22.1286C357.311 22.3132 356.857 22.5937 356.509 22.9702C356.168 23.3395 355.998 23.8437 355.998 24.483C355.998 25.3565 356.321 26.017 356.967 26.4645C357.62 26.9048 358.448 27.125 359.449 27.125ZM373.669 7.18182V29H371.155V7.18182H373.669ZM388.586 22.3097V12.6364H391.1V29H388.586V26.2301H388.416C388.032 27.0611 387.436 27.7678 386.626 28.3501C385.816 28.9254 384.794 29.2131 383.558 29.2131C382.535 29.2131 381.626 28.9893 380.831 28.5419C380.035 28.0874 379.41 27.4055 378.956 26.4964C378.501 25.5803 378.274 24.4261 378.274 23.0341V12.6364H380.788V22.8636C380.788 24.0568 381.122 25.0085 381.789 25.7188C382.464 26.429 383.324 26.7841 384.368 26.7841C384.993 26.7841 385.628 26.6243 386.275 26.3047C386.928 25.9851 387.475 25.495 387.915 24.8345C388.363 24.174 388.586 23.3324 388.586 22.3097ZM402.566 29.3409C400.99 29.3409 399.629 28.9929 398.486 28.2969C397.35 27.5938 396.472 26.6136 395.855 25.3565C395.244 24.0923 394.938 22.6222 394.938 20.946C394.938 19.2699 395.244 17.7926 395.855 16.5142C396.472 15.2287 397.332 14.2273 398.433 13.5099C399.541 12.7855 400.833 12.4233 402.311 12.4233C403.163 12.4233 404.004 12.5653 404.835 12.8494C405.666 13.1335 406.423 13.5952 407.105 14.2344C407.786 14.8665 408.33 15.7045 408.735 16.7486C409.139 17.7926 409.342 19.0781 409.342 20.6051V21.6705H396.728V19.4972H406.785C406.785 18.5739 406.6 17.75 406.231 17.0256C405.869 16.3011 405.35 15.7294 404.676 15.3104C404.008 14.8913 403.22 14.6818 402.311 14.6818C401.309 14.6818 400.443 14.9304 399.711 15.4276C398.987 15.9176 398.429 16.5568 398.039 17.3452C397.648 18.1335 397.453 18.9787 397.453 19.8807V21.3295C397.453 22.5653 397.666 23.6129 398.092 24.4723C398.525 25.3246 399.125 25.9744 399.892 26.4219C400.659 26.8622 401.551 27.0824 402.566 27.0824C403.227 27.0824 403.823 26.9901 404.356 26.8054C404.896 26.6136 405.361 26.3295 405.752 25.9531C406.142 25.5696 406.444 25.0937 406.657 24.5256L409.086 25.2074C408.83 26.0312 408.401 26.7557 407.797 27.3807C407.193 27.9986 406.448 28.4815 405.56 28.8295C404.672 29.1705 403.674 29.3409 402.566 29.3409ZM424.757 16.3011L422.499 16.9403C422.357 16.5639 422.147 16.1982 421.87 15.843C421.6 15.4808 421.231 15.1825 420.762 14.9482C420.294 14.7138 419.693 14.5966 418.962 14.5966C417.96 14.5966 417.126 14.8274 416.458 15.2891C415.798 15.7436 415.468 16.3224 415.468 17.0256C415.468 17.6506 415.695 18.1442 416.149 18.5064C416.604 18.8686 417.314 19.1705 418.28 19.4119L420.709 20.0085C422.172 20.3636 423.262 20.907 423.98 21.6385C424.697 22.3629 425.056 23.2969 425.056 24.4403C425.056 25.3778 424.786 26.2159 424.246 26.9545C423.713 27.6932 422.968 28.2756 422.009 28.7017C421.05 29.1278 419.935 29.3409 418.664 29.3409C416.994 29.3409 415.613 28.9787 414.519 28.2543C413.426 27.5298 412.733 26.4716 412.442 25.0795L414.828 24.483C415.056 25.3636 415.485 26.0241 416.117 26.4645C416.757 26.9048 417.591 27.125 418.621 27.125C419.793 27.125 420.723 26.8764 421.412 26.3793C422.108 25.875 422.456 25.2713 422.456 24.5682C422.456 24 422.257 23.5241 421.86 23.1406C421.462 22.75 420.851 22.4588 420.027 22.267L417.3 21.6278C415.801 21.2727 414.7 20.7223 413.997 19.9766C413.301 19.2237 412.953 18.2827 412.953 17.1534C412.953 16.2301 413.213 15.4134 413.731 14.7031C414.257 13.9929 414.97 13.4354 415.872 13.0305C416.781 12.6257 417.811 12.4233 418.962 12.4233C420.581 12.4233 421.852 12.7784 422.776 13.4886C423.706 14.1989 424.367 15.1364 424.757 16.3011ZM430.673 29.1705C430.147 29.1705 429.696 28.9822 429.32 28.6058C428.943 28.2294 428.755 27.7784 428.755 27.2528C428.755 26.7273 428.943 26.2763 429.32 25.8999C429.696 25.5234 430.147 25.3352 430.673 25.3352C431.198 25.3352 431.649 25.5234 432.026 25.8999C432.402 26.2763 432.59 26.7273 432.59 27.2528C432.59 27.6009 432.501 27.9205 432.324 28.2116C432.153 28.5028 431.923 28.7372 431.631 28.9148C431.347 29.0852 431.028 29.1705 430.673 29.1705ZM430.673 17.0256C430.147 17.0256 429.696 16.8374 429.32 16.4609C428.943 16.0845 428.755 15.6335 428.755 15.108C428.755 14.5824 428.943 14.1314 429.32 13.755C429.696 13.3786 430.147 13.1903 430.673 13.1903C431.198 13.1903 431.649 13.3786 432.026 13.755C432.402 14.1314 432.59 14.5824 432.59 15.108C432.59 15.456 432.501 15.7756 432.324 16.0668C432.153 16.358 431.923 16.5923 431.631 16.7699C431.347 16.9403 431.028 17.0256 430.673 17.0256Z" fill="white"/>
<path d="M489.956 7.18182V29H487.314V9.9517H487.186L481.86 13.4886V10.804L487.314 7.18182H489.956Z" fill="white"/>
<path d="M487.5 192.298C485.895 192.298 484.528 191.862 483.398 190.988C482.269 190.107 481.406 188.832 480.81 187.163C480.213 185.487 479.915 183.463 479.915 181.091C479.915 178.733 480.213 176.719 480.81 175.05C481.413 173.374 482.28 172.096 483.409 171.215C484.545 170.327 485.909 169.884 487.5 169.884C489.091 169.884 490.451 170.327 491.58 171.215C492.717 172.096 493.583 173.374 494.18 175.05C494.783 176.719 495.085 178.733 495.085 181.091C495.085 183.463 494.787 185.487 494.19 187.163C493.594 188.832 492.731 190.107 491.602 190.988C490.472 191.862 489.105 192.298 487.5 192.298ZM487.5 189.955C489.091 189.955 490.327 189.187 491.207 187.653C492.088 186.119 492.528 183.932 492.528 181.091C492.528 179.202 492.326 177.593 491.921 176.265C491.523 174.937 490.948 173.925 490.195 173.229C489.45 172.533 488.551 172.185 487.5 172.185C485.923 172.185 484.691 172.962 483.803 174.518C482.915 176.066 482.472 178.257 482.472 181.091C482.472 182.98 482.67 184.585 483.068 185.906C483.466 187.227 484.038 188.232 484.783 188.921C485.536 189.61 486.442 189.955 487.5 189.955Z" fill="#727272"/>
<path d="M460.845 242V220.182H463.487V239.656H473.629V242H460.845ZM484.027 242.341C482.55 242.341 481.254 241.989 480.138 241.286C479.031 240.583 478.164 239.599 477.539 238.335C476.921 237.071 476.612 235.594 476.612 233.903C476.612 232.199 476.921 230.711 477.539 229.44C478.164 228.168 479.031 227.181 480.138 226.478C481.254 225.775 482.55 225.423 484.027 225.423C485.504 225.423 486.797 225.775 487.905 226.478C489.02 227.181 489.886 228.168 490.504 229.44C491.129 230.711 491.442 232.199 491.442 233.903C491.442 235.594 491.129 237.071 490.504 238.335C489.886 239.599 489.02 240.583 487.905 241.286C486.797 241.989 485.504 242.341 484.027 242.341ZM484.027 240.082C485.149 240.082 486.072 239.795 486.797 239.219C487.521 238.644 488.058 237.888 488.406 236.95C488.754 236.013 488.928 234.997 488.928 233.903C488.928 232.81 488.754 231.79 488.406 230.846C488.058 229.901 487.521 229.138 486.797 228.555C486.072 227.973 485.149 227.682 484.027 227.682C482.905 227.682 481.982 227.973 481.257 228.555C480.533 229.138 479.996 229.901 479.648 230.846C479.3 231.79 479.126 232.81 479.126 233.903C479.126 234.997 479.3 236.013 479.648 236.95C479.996 237.888 480.533 238.644 481.257 239.219C481.982 239.795 482.905 240.082 484.027 240.082ZM498.43 242L493.445 225.636H496.087L499.624 238.165H499.794L503.288 225.636H505.973L509.425 238.122H509.595L513.132 225.636H515.774L510.788 242H508.317L504.737 229.429H504.482L500.902 242H498.43Z" fill="#727272"/>
<path d="M1086.98 242V220.182H1089.62V229.898H1101.25V220.182H1103.89V242H1101.25V232.241H1089.62V242H1086.98ZM1108.84 242V225.636H1111.36V242H1108.84ZM1110.12 222.909C1109.63 222.909 1109.21 222.742 1108.85 222.408C1108.5 222.075 1108.33 221.673 1108.33 221.205C1108.33 220.736 1108.5 220.335 1108.85 220.001C1109.21 219.667 1109.63 219.5 1110.12 219.5C1110.61 219.5 1111.03 219.667 1111.38 220.001C1111.73 220.335 1111.91 220.736 1111.91 221.205C1111.91 221.673 1111.73 222.075 1111.38 222.408C1111.03 222.742 1110.61 222.909 1110.12 222.909ZM1122.57 248.477C1121.35 248.477 1120.31 248.321 1119.43 248.009C1118.56 247.703 1117.83 247.298 1117.25 246.794C1116.68 246.297 1116.22 245.764 1115.88 245.196L1117.88 243.79C1118.11 244.088 1118.39 244.429 1118.74 244.812C1119.09 245.203 1119.57 245.54 1120.17 245.825C1120.78 246.116 1121.58 246.261 1122.57 246.261C1123.89 246.261 1124.98 245.942 1125.84 245.303C1126.7 244.663 1127.13 243.662 1127.13 242.298V238.974H1126.91C1126.73 239.273 1126.47 239.642 1126.12 240.082C1125.79 240.516 1125.31 240.903 1124.68 241.244C1124.05 241.577 1123.21 241.744 1122.14 241.744C1120.82 241.744 1119.63 241.432 1118.58 240.807C1117.54 240.182 1116.71 239.273 1116.1 238.08C1115.5 236.886 1115.19 235.437 1115.19 233.733C1115.19 232.057 1115.49 230.597 1116.08 229.354C1116.67 228.104 1117.49 227.138 1118.54 226.457C1119.59 225.768 1120.81 225.423 1122.18 225.423C1123.25 225.423 1124.09 225.601 1124.72 225.956C1125.35 226.304 1125.83 226.702 1126.17 227.149C1126.51 227.589 1126.77 227.952 1126.96 228.236H1127.21V225.636H1129.64V242.469C1129.64 243.875 1129.32 245.018 1128.68 245.899C1128.05 246.787 1127.2 247.437 1126.12 247.849C1125.06 248.268 1123.87 248.477 1122.57 248.477ZM1122.48 239.486C1123.49 239.486 1124.34 239.255 1125.04 238.793C1125.73 238.332 1126.26 237.668 1126.63 236.801C1126.99 235.935 1127.17 234.898 1127.17 233.69C1127.17 232.511 1126.99 231.471 1126.64 230.569C1126.28 229.667 1125.76 228.96 1125.06 228.449C1124.36 227.937 1123.5 227.682 1122.48 227.682C1121.42 227.682 1120.53 227.952 1119.82 228.491C1119.11 229.031 1118.59 229.756 1118.23 230.665C1117.88 231.574 1117.71 232.582 1117.71 233.69C1117.71 234.827 1117.89 235.832 1118.24 236.705C1118.6 237.572 1119.14 238.254 1119.84 238.751C1120.55 239.241 1121.43 239.486 1122.48 239.486ZM1136.76 232.156V242H1134.24V220.182H1136.76V228.193H1136.97C1137.35 227.348 1137.93 226.677 1138.7 226.18C1139.47 225.675 1140.5 225.423 1141.79 225.423C1142.9 225.423 1143.88 225.647 1144.71 226.094C1145.55 226.535 1146.2 227.213 1146.66 228.129C1147.13 229.038 1147.37 230.196 1147.37 231.602V242H1144.85V231.773C1144.85 230.473 1144.52 229.468 1143.84 228.758C1143.17 228.04 1142.25 227.682 1141.06 227.682C1140.24 227.682 1139.5 227.856 1138.84 228.204C1138.2 228.552 1137.69 229.06 1137.31 229.727C1136.94 230.395 1136.76 231.205 1136.76 232.156Z" fill="#727272"/>
<path d="M584.676 29V27.0824L591.878 19.1989C592.723 18.2756 593.419 17.473 593.966 16.7912C594.513 16.1023 594.918 15.456 595.181 14.8523C595.451 14.2415 595.586 13.6023 595.586 12.9347C595.586 12.1676 595.401 11.5036 595.032 10.9425C594.669 10.3814 594.172 9.94815 593.54 9.64276C592.908 9.33736 592.198 9.18466 591.409 9.18466C590.571 9.18466 589.84 9.35866 589.215 9.70668C588.597 10.0476 588.118 10.527 587.777 11.1449C587.443 11.7628 587.276 12.4872 587.276 13.3182H584.762C584.762 12.0398 585.056 10.9176 585.646 9.9517C586.235 8.98579 587.038 8.23295 588.054 7.69318C589.076 7.15341 590.223 6.88352 591.495 6.88352C592.773 6.88352 593.906 7.15341 594.893 7.69318C595.88 8.23295 596.654 8.96094 597.216 9.87713C597.777 10.7933 598.057 11.8125 598.057 12.9347C598.057 13.7372 597.912 14.522 597.62 15.2891C597.336 16.049 596.839 16.8977 596.129 17.8352C595.426 18.7656 594.449 19.902 593.199 21.2443L588.299 26.4858V26.6562H598.441V29H584.676Z" fill="white"/>
<path d="M594.956 170.182V192H592.314V172.952H592.186L586.86 176.489V173.804L592.314 170.182H594.956Z" fill="#727272"/>
<path d="M697.58 29.2983C696.174 29.2983 694.92 29.0568 693.819 28.5739C692.725 28.0909 691.855 27.4197 691.209 26.5604C690.57 25.6939 690.222 24.6889 690.165 23.5455H692.85C692.907 24.2486 693.148 24.8558 693.574 25.3672C694 25.8714 694.558 26.2621 695.247 26.5391C695.936 26.8161 696.699 26.9545 697.537 26.9545C698.475 26.9545 699.306 26.7912 700.03 26.4645C700.755 26.1378 701.323 25.6832 701.735 25.1009C702.147 24.5185 702.353 23.8438 702.353 23.0767C702.353 22.2741 702.154 21.5675 701.756 20.9567C701.358 20.3388 700.776 19.8558 700.009 19.5078C699.242 19.1598 698.304 18.9858 697.196 18.9858H695.449V16.642H697.196C698.063 16.642 698.823 16.4858 699.476 16.1733C700.137 15.8608 700.652 15.4205 701.021 14.8523C701.397 14.2841 701.586 13.6165 701.586 12.8494C701.586 12.1108 701.422 11.468 701.096 10.9212C700.769 10.3743 700.307 9.94815 699.711 9.64276C699.121 9.33736 698.425 9.18466 697.623 9.18466C696.87 9.18466 696.159 9.32315 695.492 9.60014C694.831 9.87003 694.292 10.2642 693.873 10.7827C693.453 11.294 693.226 11.9119 693.191 12.6364H690.634C690.676 11.4929 691.021 10.4915 691.667 9.6321C692.314 8.76562 693.159 8.09091 694.203 7.60795C695.254 7.125 696.408 6.88352 697.665 6.88352C699.015 6.88352 700.172 7.15696 701.138 7.70383C702.104 8.24361 702.846 8.95739 703.365 9.84517C703.883 10.733 704.142 11.6918 704.142 12.7216C704.142 13.9503 703.819 14.9979 703.173 15.8643C702.534 16.7308 701.664 17.331 700.563 17.6648V17.8352C701.941 18.0625 703.017 18.6484 703.791 19.593C704.565 20.5305 704.952 21.6918 704.952 23.0767C704.952 24.2628 704.629 25.3281 703.983 26.2727C703.343 27.2102 702.47 27.9489 701.362 28.4886C700.254 29.0284 698.993 29.2983 697.58 29.2983Z" fill="white"/>
<path d="M793.623 24.5256V22.3523L803.211 7.18182H804.788V10.5483H803.723L796.478 22.0114V22.1818H809.39V24.5256H793.623ZM803.893 29V23.8651V22.853V7.18182H806.407V29H803.893Z" fill="white"/>
<path d="M690.676 192V190.082L697.878 182.199C698.723 181.276 699.419 180.473 699.966 179.791C700.513 179.102 700.918 178.456 701.181 177.852C701.451 177.241 701.586 176.602 701.586 175.935C701.586 175.168 701.401 174.504 701.032 173.942C700.669 173.381 700.172 172.948 699.54 172.643C698.908 172.337 698.198 172.185 697.409 172.185C696.571 172.185 695.84 172.359 695.215 172.707C694.597 173.048 694.118 173.527 693.777 174.145C693.443 174.763 693.276 175.487 693.276 176.318H690.762C690.762 175.04 691.056 173.918 691.646 172.952C692.235 171.986 693.038 171.233 694.054 170.693C695.076 170.153 696.223 169.884 697.495 169.884C698.773 169.884 699.906 170.153 700.893 170.693C701.88 171.233 702.654 171.961 703.216 172.877C703.777 173.793 704.057 174.812 704.057 175.935C704.057 176.737 703.912 177.522 703.62 178.289C703.336 179.049 702.839 179.898 702.129 180.835C701.426 181.766 700.449 182.902 699.199 184.244L694.299 189.486V189.656H704.441V192H690.676Z" fill="#727272"/>
<path d="M909.451 29.2983C908.201 29.2983 907.075 29.0497 906.074 28.5526C905.072 28.0554 904.27 27.3736 903.666 26.5071C903.062 25.6406 902.732 24.6534 902.675 23.5455H905.232C905.331 24.5327 905.779 25.3494 906.574 25.9957C907.377 26.6349 908.336 26.9545 909.451 26.9545C910.346 26.9545 911.141 26.745 911.837 26.326C912.54 25.907 913.091 25.3317 913.488 24.6001C913.893 23.8615 914.096 23.027 914.096 22.0966C914.096 21.1449 913.886 20.2962 913.467 19.5504C913.055 18.7976 912.487 18.2045 911.763 17.7713C911.038 17.3381 910.211 17.1179 909.28 17.1108C908.613 17.1037 907.927 17.2067 907.224 17.4197C906.521 17.6257 905.942 17.892 905.488 18.2188L903.016 17.9205L904.337 7.18182H915.672V9.52557H906.553L905.786 15.9602H905.914C906.361 15.6051 906.922 15.3104 907.597 15.076C908.272 14.8416 908.975 14.7244 909.706 14.7244C911.042 14.7244 912.231 15.044 913.275 15.6832C914.326 16.3153 915.15 17.1818 915.747 18.2827C916.351 19.3835 916.652 20.6406 916.652 22.054C916.652 23.446 916.34 24.6889 915.715 25.7827C915.097 26.8693 914.245 27.7287 913.158 28.3608C912.071 28.9858 910.836 29.2983 909.451 29.2983Z" fill="white"/>
<path d="M1111.37 29L1121.13 9.69602V9.52557H1109.88V7.18182H1123.86V9.65341L1114.14 29H1111.37Z" fill="white"/>
<path d="M802.08 192.298C800.674 192.298 799.42 192.057 798.319 191.574C797.225 191.091 796.355 190.42 795.709 189.56C795.07 188.694 794.722 187.689 794.665 186.545H797.35C797.407 187.249 797.648 187.856 798.074 188.367C798.5 188.871 799.058 189.262 799.747 189.539C800.436 189.816 801.199 189.955 802.037 189.955C802.975 189.955 803.806 189.791 804.53 189.464C805.255 189.138 805.823 188.683 806.235 188.101C806.647 187.518 806.853 186.844 806.853 186.077C806.853 185.274 806.654 184.567 806.256 183.957C805.858 183.339 805.276 182.856 804.509 182.508C803.742 182.16 802.804 181.986 801.696 181.986H799.949V179.642H801.696C802.563 179.642 803.323 179.486 803.976 179.173C804.637 178.861 805.152 178.42 805.521 177.852C805.897 177.284 806.086 176.616 806.086 175.849C806.086 175.111 805.922 174.468 805.596 173.921C805.269 173.374 804.807 172.948 804.211 172.643C803.621 172.337 802.925 172.185 802.123 172.185C801.37 172.185 800.659 172.323 799.992 172.6C799.331 172.87 798.792 173.264 798.373 173.783C797.953 174.294 797.726 174.912 797.691 175.636H795.134C795.176 174.493 795.521 173.491 796.167 172.632C796.814 171.766 797.659 171.091 798.703 170.608C799.754 170.125 800.908 169.884 802.165 169.884C803.515 169.884 804.672 170.157 805.638 170.704C806.604 171.244 807.346 171.957 807.865 172.845C808.383 173.733 808.642 174.692 808.642 175.722C808.642 176.95 808.319 177.998 807.673 178.864C807.034 179.731 806.164 180.331 805.063 180.665V180.835C806.441 181.062 807.517 181.648 808.291 182.593C809.065 183.531 809.452 184.692 809.452 186.077C809.452 187.263 809.129 188.328 808.483 189.273C807.843 190.21 806.97 190.949 805.862 191.489C804.754 192.028 803.493 192.298 802.08 192.298Z" fill="#727272"/>
<path d="M899.123 187.526V185.352L908.711 170.182H910.288V173.548H909.223L901.978 185.011V185.182H914.89V187.526H899.123ZM909.393 192V186.865V185.853V170.182H911.907V192H909.393Z" fill="#727272"/>
<path d="M1117.45 192.298C1116.2 192.298 1115.08 192.05 1114.07 191.553C1113.07 191.055 1112.27 190.374 1111.67 189.507C1111.06 188.641 1110.73 187.653 1110.68 186.545H1113.23C1113.33 187.533 1113.78 188.349 1114.57 188.996C1115.38 189.635 1116.34 189.955 1117.45 189.955C1118.35 189.955 1119.14 189.745 1119.84 189.326C1120.54 188.907 1121.09 188.332 1121.49 187.6C1121.89 186.862 1122.1 186.027 1122.1 185.097C1122.1 184.145 1121.89 183.296 1121.47 182.55C1121.06 181.798 1120.49 181.205 1119.76 180.771C1119.04 180.338 1118.21 180.118 1117.28 180.111C1116.61 180.104 1115.93 180.207 1115.22 180.42C1114.52 180.626 1113.94 180.892 1113.49 181.219L1111.02 180.92L1112.34 170.182H1123.67V172.526H1114.55L1113.79 178.96H1113.91C1114.36 178.605 1114.92 178.31 1115.6 178.076C1116.27 177.842 1116.97 177.724 1117.71 177.724C1119.04 177.724 1120.23 178.044 1121.28 178.683C1122.33 179.315 1123.15 180.182 1123.75 181.283C1124.35 182.384 1124.65 183.641 1124.65 185.054C1124.65 186.446 1124.34 187.689 1123.71 188.783C1123.1 189.869 1122.24 190.729 1121.16 191.361C1120.07 191.986 1118.84 192.298 1117.45 192.298Z" fill="#727272"/>
<path d="M7.18038 155.32C6.36971 155.32 5.61238 155.107 4.90838 154.68C4.22571 154.232 3.67104 153.549 3.24438 152.632C2.83904 151.693 2.63638 150.477 2.63638 148.984C2.63638 147.448 2.87104 145.997 3.34038 144.632C3.83104 143.267 4.50304 142.072 5.35638 141.048C6.20971 140.003 7.21238 139.181 8.36438 138.584C9.53771 137.987 10.7964 137.688 12.1404 137.688C12.9724 137.688 13.8364 137.827 14.7324 138.104C15.6284 138.381 16.535 138.829 17.4524 139.448L16.0764 139.224L16.7804 138.04H18.5084L15.9484 154.2L14.8604 152.184L18.5724 153.208L18.2844 154.968L13.0044 155.128L14.0284 149.048L14.9564 147.48C14.5084 149.229 13.847 150.691 12.9724 151.864C12.0977 153.016 11.1484 153.88 10.1244 154.456C9.10038 155.032 8.11904 155.32 7.18038 155.32ZM8.39638 152.76C8.92971 152.76 9.49504 152.6 10.0924 152.28C10.711 151.939 11.2977 151.437 11.8524 150.776C12.407 150.093 12.8977 149.251 13.3244 148.248C13.7724 147.245 14.103 146.072 14.3164 144.728L15.0204 140.248L15.5644 141.336C14.9457 140.909 14.3484 140.6 13.7724 140.408C13.1964 140.216 12.631 140.12 12.0764 140.12C11.159 140.12 10.3164 140.355 9.54838 140.824C8.80171 141.293 8.15104 141.923 7.59638 142.712C7.04171 143.501 6.60438 144.408 6.28438 145.432C5.98571 146.456 5.83638 147.523 5.83638 148.632C5.83638 150.061 6.08171 151.107 6.57238 151.768C7.06304 152.429 7.67104 152.76 8.39638 152.76ZM22.0576 155L24.6176 138.904L25.7056 140.856L22.0256 139.832L22.2816 138.136L27.7216 137.912L26.5376 143.928L25.5776 145.56C26.0043 143.896 26.6336 142.477 27.4656 141.304C28.319 140.131 29.2576 139.245 30.2816 138.648C31.327 138.029 32.351 137.72 33.3536 137.72C33.8656 137.72 34.303 137.795 34.6656 137.944L33.8016 142.968H31.8496L31.8816 139.864L32.2976 140.216C31.7003 140.173 31.0923 140.323 30.4736 140.664C29.855 140.984 29.2576 141.485 28.6816 142.168C28.127 142.851 27.6363 143.693 27.2096 144.696C26.783 145.699 26.463 146.851 26.2496 148.152L25.1936 155H22.0576ZM35.5264 155L38.0864 138.904L39.1744 140.856L35.4944 139.832L35.7504 138.136L41.1904 137.912L40.0064 143.928L39.0464 145.56C39.473 143.896 40.1024 142.477 40.9344 141.304C41.7877 140.131 42.7264 139.245 43.7504 138.648C44.7957 138.029 45.8197 137.72 46.8224 137.72C47.3344 137.72 47.7717 137.795 48.1344 137.944L47.2704 142.968H45.3184L45.3504 139.864L45.7664 140.216C45.169 140.173 44.561 140.323 43.9424 140.664C43.3237 140.984 42.7264 141.485 42.1504 142.168C41.5957 142.851 41.105 143.693 40.6784 144.696C40.2517 145.699 39.9317 146.851 39.7184 148.152L38.6624 155H35.5264ZM47.6229 158.36L52.4869 127.704L59.5269 127.864L59.2389 129.88L54.7909 130.04L50.6949 155.992L55.0789 156.184L54.7269 158.2L47.6229 158.36ZM69.5996 155.128L71.3916 144.12C71.5196 143.288 71.5196 142.584 71.3916 142.008C71.285 141.432 71.061 140.995 70.7196 140.696C70.3996 140.397 69.973 140.248 69.4396 140.248C68.9063 140.248 68.341 140.408 67.7436 140.728C67.1463 141.048 66.5596 141.528 65.9836 142.168C65.429 142.808 64.9383 143.629 64.5116 144.632C64.085 145.635 63.7543 146.808 63.5196 148.152L62.4636 155H59.3276L62.9436 132.216L63.3596 132.824L60.5116 132.216L60.7996 130.456L66.3676 130.232L63.9996 143.928L62.8476 145.56C63.3596 143.683 64.053 142.168 64.9276 141.016C65.8236 139.864 66.7836 139.032 67.8076 138.52C68.8316 137.987 69.813 137.72 70.7516 137.72C71.669 137.72 72.4476 137.944 73.0876 138.392C73.7276 138.84 74.1863 139.491 74.4636 140.344C74.7623 141.197 74.805 142.232 74.5916 143.448L73.0556 153.176L71.7436 152.184L75.4876 153.208L75.1996 154.968L69.5996 155.128ZM78.7756 155.128L81.3676 138.904L82.4876 140.856L78.7756 139.832L79.0316 138.136L84.6316 137.912L82.0716 154.168L80.9836 152.216L84.6636 153.272L84.3756 154.968L78.7756 155.128ZM83.6396 134.808C83.085 134.808 82.6476 134.637 82.3276 134.296C82.0076 133.955 81.8476 133.507 81.8476 132.952C81.8476 132.269 82.0503 131.715 82.4556 131.288C82.8823 130.861 83.4156 130.648 84.0556 130.648C84.6103 130.648 85.0476 130.808 85.3676 131.128C85.6876 131.448 85.8476 131.907 85.8476 132.504C85.8476 133.165 85.6343 133.72 85.2076 134.168C84.8023 134.595 84.2796 134.808 83.6396 134.808ZM92.4386 162.68C91.5 162.68 90.54 162.584 89.5586 162.392C88.5773 162.2 87.6173 161.944 86.6786 161.624L87.3506 159.352C88.2466 159.651 89.1213 159.885 89.9746 160.056C90.8493 160.227 91.6386 160.312 92.3426 160.312C93.3026 160.312 94.1026 160.173 94.7426 159.896C95.404 159.64 95.9373 159.277 96.3426 158.808C96.7693 158.339 97.1 157.795 97.3346 157.176C97.5906 156.557 97.772 155.907 97.8786 155.224L98.8386 149.016L99.8626 147.48C99.4146 149.229 98.7533 150.691 97.8786 151.864C97.0253 153.016 96.076 153.88 95.0306 154.456C94.0066 155.032 93.0253 155.32 92.0866 155.32C91.276 155.32 90.5186 155.107 89.8146 154.68C89.132 154.232 88.5773 153.549 88.1506 152.632C87.7453 151.693 87.5426 150.477 87.5426 148.984C87.5426 147.448 87.7773 145.997 88.2466 144.632C88.7373 143.267 89.4093 142.072 90.2626 141.048C91.116 140.003 92.1186 139.192 93.2706 138.616C94.444 138.019 95.7026 137.72 97.0466 137.72C97.8786 137.72 98.7426 137.859 99.6386 138.136C100.535 138.392 101.441 138.829 102.359 139.448L101.015 139.16L101.687 138.04H103.415L100.727 155.16C100.492 156.568 100.119 157.752 99.6066 158.712C99.116 159.672 98.4973 160.44 97.7506 161.016C97.0253 161.613 96.204 162.04 95.2866 162.296C94.3906 162.552 93.4413 162.68 92.4386 162.68ZM93.3026 152.76C93.836 152.76 94.4013 152.6 94.9986 152.28C95.596 151.939 96.172 151.437 96.7266 150.776C97.3026 150.093 97.804 149.251 98.2306 148.248C98.6573 147.245 98.988 146.072 99.2226 144.728L99.9266 140.248L100.471 141.336C99.852 140.909 99.2546 140.6 98.6786 140.408C98.1026 140.216 97.5373 140.12 96.9826 140.12C96.0653 140.12 95.2226 140.355 94.4546 140.824C93.708 141.293 93.0573 141.923 92.5026 142.712C91.948 143.501 91.5106 144.408 91.1906 145.432C90.892 146.456 90.7426 147.523 90.7426 148.632C90.7426 150.061 90.988 151.107 91.4786 151.768C91.9693 152.429 92.5773 152.76 93.3026 152.76ZM116.318 155.128L118.11 144.12C118.238 143.288 118.238 142.584 118.11 142.008C118.004 141.432 117.78 140.995 117.438 140.696C117.118 140.397 116.692 140.248 116.158 140.248C115.625 140.248 115.06 140.408 114.462 140.728C113.865 141.048 113.278 141.528 112.702 142.168C112.148 142.808 111.657 143.629 111.23 144.632C110.804 145.635 110.473 146.808 110.238 148.152L109.182 155H106.046L109.662 132.216L110.078 132.824L107.23 132.216L107.518 130.456L113.086 130.232L110.718 143.928L109.566 145.56C110.078 143.683 110.772 142.168 111.646 141.016C112.542 139.864 113.502 139.032 114.526 138.52C115.55 137.987 116.532 137.72 117.47 137.72C118.388 137.72 119.166 137.944 119.806 138.392C120.446 138.84 120.905 139.491 121.182 140.344C121.481 141.197 121.524 142.232 121.31 143.448L119.774 153.176L118.462 152.184L122.206 153.208L121.918 154.968L116.318 155.128ZM134.774 127.704L129.91 158.36L122.838 158.2L123.158 156.184L127.574 155.992L131.702 130.04L127.318 129.88L127.638 127.864L134.774 127.704ZM151.627 144.376L151.243 146.872H142.155L142.539 144.376H151.627ZM164.93 155.32C164.12 155.32 163.362 155.107 162.658 154.68C161.976 154.232 161.421 153.549 160.994 152.632C160.589 151.693 160.386 150.477 160.386 148.984C160.386 147.448 160.621 145.997 161.09 144.632C161.581 143.267 162.253 142.072 163.106 141.048C163.96 140.003 164.962 139.181 166.114 138.584C167.288 137.987 168.546 137.688 169.89 137.688C170.722 137.688 171.586 137.827 172.482 138.104C173.378 138.381 174.285 138.829 175.202 139.448L173.826 139.224L174.53 138.04H176.258L173.698 154.2L172.61 152.184L176.322 153.208L176.034 154.968L170.754 155.128L171.778 149.048L172.706 147.48C172.258 149.229 171.597 150.691 170.722 151.864C169.848 153.016 168.898 153.88 167.874 154.456C166.85 155.032 165.869 155.32 164.93 155.32ZM166.146 152.76C166.68 152.76 167.245 152.6 167.842 152.28C168.461 151.939 169.048 151.437 169.602 150.776C170.157 150.093 170.648 149.251 171.074 148.248C171.522 147.245 171.853 146.072 172.066 144.728L172.77 140.248L173.314 141.336C172.696 140.909 172.098 140.6 171.522 140.408C170.946 140.216 170.381 140.12 169.826 140.12C168.909 140.12 168.066 140.355 167.298 140.824C166.552 141.293 165.901 141.923 165.346 142.712C164.792 143.501 164.354 144.408 164.034 145.432C163.736 146.456 163.586 147.523 163.586 148.632C163.586 150.061 163.832 151.107 164.322 151.768C164.813 152.429 165.421 152.76 166.146 152.76ZM179.808 155L182.368 138.904L183.456 140.856L179.776 139.832L180.032 138.136L185.472 137.912L184.288 143.928L183.328 145.56C183.754 143.896 184.384 142.477 185.216 141.304C186.069 140.131 187.008 139.245 188.032 138.648C189.077 138.029 190.101 137.72 191.104 137.72C191.616 137.72 192.053 137.795 192.416 137.944L191.552 142.968H189.6L189.632 139.864L190.048 140.216C189.45 140.173 188.842 140.323 188.224 140.664C187.605 140.984 187.008 141.485 186.432 142.168C185.877 142.851 185.386 143.693 184.96 144.696C184.533 145.699 184.213 146.851 184 148.152L182.944 155H179.808ZM193.276 155L195.836 138.904L196.924 140.856L193.244 139.832L193.5 138.136L198.94 137.912L197.756 143.928L196.796 145.56C197.223 143.896 197.852 142.477 198.684 141.304C199.538 140.131 200.476 139.245 201.5 138.648C202.546 138.029 203.57 137.72 204.572 137.72C205.084 137.72 205.522 137.795 205.884 137.944L205.02 142.968H203.068L203.1 139.864L203.516 140.216C202.919 140.173 202.311 140.323 201.692 140.664C201.074 140.984 200.476 141.485 199.9 142.168C199.346 142.851 198.855 143.693 198.428 144.696C198.002 145.699 197.682 146.851 197.468 148.152L196.412 155H193.276ZM205.373 158.36L210.237 127.704L217.277 127.864L216.989 129.88L212.541 130.04L208.445 155.992L212.829 156.184L212.477 158.2L205.373 158.36ZM217.046 155.128L220.822 131.224L221.942 133.144L218.262 132.216L218.518 130.456L224.118 130.232L220.342 154.136L219.19 152.184L222.934 153.208L222.646 154.968L217.046 155.128ZM234.976 137.72C236.235 137.72 237.333 137.965 238.272 138.456C239.211 138.925 239.947 139.672 240.48 140.696C241.013 141.72 241.28 143.053 241.28 144.696C241.28 146.019 241.088 147.32 240.704 148.6C240.341 149.859 239.787 151 239.04 152.024C238.293 153.027 237.344 153.827 236.192 154.424C235.061 155.021 233.739 155.32 232.224 155.32C230.987 155.32 229.888 155.085 228.928 154.616C227.989 154.125 227.253 153.368 226.72 152.344C226.208 151.299 225.952 149.955 225.952 148.312C225.952 146.989 226.133 145.699 226.496 144.44C226.88 143.181 227.445 142.051 228.192 141.048C228.939 140.024 229.877 139.213 231.008 138.616C232.139 138.019 233.461 137.72 234.976 137.72ZM234.656 140.056C233.696 140.056 232.864 140.323 232.16 140.856C231.477 141.389 230.912 142.083 230.464 142.936C230.016 143.768 229.685 144.675 229.472 145.656C229.259 146.616 229.152 147.523 229.152 148.376C229.152 149.827 229.429 150.957 229.984 151.768C230.56 152.579 231.424 152.984 232.576 152.984C233.515 152.984 234.325 152.717 235.008 152.184C235.712 151.651 236.288 150.968 236.736 150.136C237.184 149.283 237.515 148.376 237.728 147.416C237.963 146.435 238.08 145.507 238.08 144.632C238.08 143.181 237.803 142.061 237.248 141.272C236.693 140.461 235.829 140.056 234.656 140.056ZM246.087 155.064L244.359 139.928L244.743 140.248L242.695 139.864L242.951 138.136L247.239 137.912L248.391 153.208H247.943L254.215 138.104L257.543 137.944L258.855 153.176H258.503L264.103 139.896L264.263 140.344L262.055 139.864L262.311 138.136L268.295 137.912L268.071 139.608L266.247 140.152L266.759 139.768L259.943 155.064H256.551L254.951 140.376L255.815 140.44L249.479 155.064H246.087ZM278.056 127.704L273.192 158.36L266.12 158.2L266.44 156.184L270.856 155.992L274.984 130.04L270.6 129.88L270.92 127.864L278.056 127.704Z" fill="#009966"/>
<path d="M60.549 60.344C59.0557 62.0933 57.7543 63.992 56.645 66.04C55.5357 68.088 54.6717 70.2213 54.053 72.44C53.4557 74.6587 53.157 76.888 53.157 79.128C53.157 80.9627 53.3703 82.7973 53.797 84.632C54.245 86.4667 54.917 88.216 55.813 89.88L53.733 91C52.5383 89.1653 51.653 87.2027 51.077 85.112C50.501 83.0213 50.213 80.8987 50.213 78.744C50.213 76.2907 50.565 73.88 51.269 71.512C51.973 69.144 52.9543 66.8933 54.213 64.76C55.493 62.6267 56.9863 60.6747 58.693 58.904L60.549 60.344ZM57.7587 87L58.0467 85.304L60.8307 84.792L59.9988 85.24L65.6628 77.912L66.6548 77.784L72.5748 70.136L76.4468 69.912L76.1908 71.608L73.5668 72.152L74.4948 71.672L68.8628 78.552L67.9348 78.68L61.7588 87H57.7587ZM70.0788 87L65.9828 79.032L62.1428 71.704L62.7188 72.28L60.5748 71.864L60.8307 70.136L64.5748 69.848L68.3508 77.272L72.5428 85.24L71.9988 84.728L74.5908 85.304L74.3028 87H70.0788ZM93.3928 76.376L93.0088 78.872H83.9208L84.3048 76.376H93.3928ZM106.696 87.32C105.885 87.32 105.128 87.1067 104.424 86.68C103.741 86.232 103.187 85.5493 102.76 84.632C102.355 83.6933 102.152 82.4773 102.152 80.984C102.152 79.448 102.387 77.9973 102.856 76.632C103.347 75.2667 104.019 74.072 104.872 73.048C105.725 72.0027 106.728 71.1813 107.88 70.584C109.053 69.9867 110.312 69.688 111.656 69.688C112.488 69.688 113.352 69.8267 114.248 70.104C115.144 70.3813 116.051 70.8293 116.968 71.448L115.592 71.224L116.296 70.04H118.024L115.464 86.2L114.376 84.184L118.088 85.208L117.8 86.968L112.52 87.128L113.544 81.048L114.472 79.48C114.024 81.2293 113.363 82.6907 112.488 83.864C111.613 85.016 110.664 85.88 109.64 86.456C108.616 87.032 107.635 87.32 106.696 87.32ZM107.912 84.76C108.445 84.76 109.011 84.6 109.608 84.28C110.227 83.9387 110.813 83.4373 111.368 82.776C111.923 82.0933 112.413 81.2507 112.84 80.248C113.288 79.2453 113.619 78.072 113.832 76.728L114.536 72.248L115.08 73.336C114.461 72.9093 113.864 72.6 113.288 72.408C112.712 72.216 112.147 72.12 111.592 72.12C110.675 72.12 109.832 72.3547 109.064 72.824C108.317 73.2933 107.667 73.9227 107.112 74.712C106.557 75.5013 106.12 76.408 105.8 77.432C105.501 78.456 105.352 79.5227 105.352 80.632C105.352 82.0613 105.597 83.1067 106.088 83.768C106.579 84.4293 107.187 84.76 107.912 84.76ZM121.573 87L124.133 70.904L125.221 72.856L121.541 71.832L121.797 70.136L127.237 69.912L126.053 75.928L125.093 77.56C125.52 75.896 126.149 74.4773 126.981 73.304C127.835 72.1307 128.773 71.2453 129.797 70.648C130.843 70.0293 131.867 69.72 132.869 69.72C133.381 69.72 133.819 69.7947 134.181 69.944L133.317 74.968H131.365L131.397 71.864L131.813 72.216C131.216 72.1733 130.608 72.3227 129.989 72.664C129.371 72.984 128.773 73.4853 128.197 74.168C127.643 74.8507 127.152 75.6933 126.725 76.696C126.299 77.6987 125.979 78.8507 125.765 80.152L124.709 87H121.573ZM135.042 87L137.602 70.904L138.69 72.856L135.01 71.832L135.266 70.136L140.706 69.912L139.522 75.928L138.562 77.56C138.989 75.896 139.618 74.4773 140.45 73.304C141.303 72.1307 142.242 71.2453 143.266 70.648C144.311 70.0293 145.335 69.72 146.338 69.72C146.85 69.72 147.287 69.7947 147.65 69.944L146.786 74.968H144.834L144.866 71.864L145.282 72.216C144.685 72.1733 144.077 72.3227 143.458 72.664C142.839 72.984 142.242 73.4853 141.666 74.168C141.111 74.8507 140.621 75.6933 140.194 76.696C139.767 77.6987 139.447 78.8507 139.234 80.152L138.178 87H135.042ZM147.139 90.36L152.003 59.704L159.043 59.864L158.755 61.88L154.307 62.04L150.211 87.992L154.595 88.184L154.243 90.2L147.139 90.36ZM158.811 87.128L162.587 63.224L163.707 65.144L160.027 64.216L160.283 62.456L165.883 62.232L162.107 86.136L160.955 84.184L164.699 85.208L164.411 86.968L158.811 87.128ZM176.742 69.72C178 69.72 179.099 69.9653 180.038 70.456C180.976 70.9253 181.712 71.672 182.246 72.696C182.779 73.72 183.046 75.0533 183.046 76.696C183.046 78.0187 182.854 79.32 182.47 80.6C182.107 81.8587 181.552 83 180.806 84.024C180.059 85.0267 179.11 85.8267 177.958 86.424C176.827 87.0213 175.504 87.32 173.99 87.32C172.752 87.32 171.654 87.0853 170.694 86.616C169.755 86.1253 169.019 85.368 168.486 84.344C167.974 83.2987 167.718 81.9547 167.718 80.312C167.718 78.9893 167.899 77.6987 168.262 76.44C168.646 75.1813 169.211 74.0507 169.958 73.048C170.704 72.024 171.643 71.2133 172.774 70.616C173.904 70.0187 175.227 69.72 176.742 69.72ZM176.422 72.056C175.462 72.056 174.63 72.3227 173.926 72.856C173.243 73.3893 172.678 74.0827 172.23 74.936C171.782 75.768 171.451 76.6747 171.238 77.656C171.024 78.616 170.918 79.5227 170.918 80.376C170.918 81.8267 171.195 82.9573 171.75 83.768C172.326 84.5787 173.19 84.984 174.342 84.984C175.28 84.984 176.091 84.7173 176.774 84.184C177.478 83.6507 178.054 82.968 178.502 82.136C178.95 81.2827 179.28 80.376 179.494 79.416C179.728 78.4347 179.846 77.5067 179.846 76.632C179.846 75.1813 179.568 74.0613 179.014 73.272C178.459 72.4613 177.595 72.056 176.422 72.056ZM187.853 87.064L186.125 71.928L186.509 72.248L184.461 71.864L184.717 70.136L189.005 69.912L190.157 85.208H189.709L195.981 70.104L199.309 69.944L200.621 85.176H200.269L205.869 71.896L206.029 72.344L203.821 71.864L204.077 70.136L210.061 69.912L209.837 71.608L208.013 72.152L208.525 71.768L201.709 87.064H198.317L196.717 72.376L197.581 72.44L191.245 87.064H187.853ZM219.821 59.704L214.957 90.36L207.885 90.2L208.205 88.184L212.621 87.992L216.749 62.04L212.365 61.88L212.685 59.864L219.821 59.704ZM218.545 89.752C220.039 88.0027 221.34 86.104 222.449 84.056C223.559 82.008 224.412 79.8747 225.009 77.656C225.628 75.4373 225.937 73.208 225.937 70.968C225.937 69.1333 225.724 67.2987 225.297 65.464C224.871 63.6293 224.199 61.88 223.281 60.216L225.361 59.064C226.577 60.92 227.463 62.8933 228.017 64.984C228.593 67.0747 228.881 69.1973 228.881 71.352C228.881 73.784 228.529 76.184 227.825 78.552C227.121 80.92 226.129 83.1707 224.849 85.304C223.591 87.4373 222.108 89.4 220.401 91.192L218.545 89.752Z" fill="#E27C00"/>
<line y1="110" x2="279" y2="110" stroke="white" stroke-width="2"/>
<line x1="487" y1="107" x2="1117" y2="107" stroke="white" stroke-width="2"/>
<line x1="1118" y1="74" x2="1118" y2="141" stroke="white" stroke-width="2"/>
<line x1="488" y1="74" x2="488" y2="141" stroke="white" stroke-width="2"/>
<line x1="593" y1="89" x2="593" y2="127" stroke="white" stroke-width="2"/>
<line x1="698" y1="89" x2="698" y2="127" stroke="white" stroke-width="2"/>
<line x1="803" y1="89" x2="803" y2="127" stroke="white" stroke-width="2"/>
<line x1="908" y1="89" x2="908" y2="127" stroke="white" stroke-width="2"/>
<line x1="487" y1="65" x2="1117" y2="64.9999" stroke="#009966" stroke-width="2"/>
<line x1="487" y1="50" x2="909" y2="50" stroke="#E27C00" stroke-width="2"/>
</svg>
