<svg width="817" height="233" viewBox="0 0 817 233" fill="none" xmlns="http://www.w3.org/2000/svg">
<path d="M5.75089 154.182V176H3.10884V154.182H5.75089ZM13.2216 166.156V176H10.7074V159.636H13.1364V162.193H13.3494C13.733 161.362 14.3153 160.695 15.0966 160.19C15.8778 159.679 16.8864 159.423 18.1222 159.423C19.2301 159.423 20.1996 159.651 21.0305 160.105C21.8615 160.553 22.5078 161.234 22.9695 162.151C23.4311 163.06 23.6619 164.21 23.6619 165.602V176H21.1477V165.773C21.1477 164.487 20.8139 163.486 20.1463 162.768C19.4787 162.044 18.5625 161.682 17.3977 161.682C16.5952 161.682 15.8778 161.856 15.2457 162.204C14.6207 162.552 14.1271 163.06 13.7649 163.727C13.4027 164.395 13.2216 165.205 13.2216 166.156ZM34.4352 176.341C33.0716 176.341 31.8677 175.996 30.8237 175.308C29.7797 174.612 28.9629 173.631 28.3734 172.367C27.7839 171.096 27.4892 169.594 27.4892 167.861C27.4892 166.142 27.7839 164.651 28.3734 163.386C28.9629 162.122 29.7832 161.146 30.8343 160.457C31.8855 159.768 33.1 159.423 34.4778 159.423C35.5431 159.423 36.3848 159.601 37.0027 159.956C37.6277 160.304 38.1035 160.702 38.4302 161.149C38.764 161.589 39.0233 161.952 39.2079 162.236H39.421V154.182H41.9352V176H39.5062V173.486H39.2079C39.0233 173.784 38.7605 174.161 38.4196 174.615C38.0787 175.062 37.5922 175.464 36.9601 175.819C36.3279 176.167 35.4863 176.341 34.4352 176.341ZM34.7761 174.082C35.7846 174.082 36.6369 173.82 37.3329 173.294C38.0289 172.761 38.5581 172.026 38.9203 171.089C39.2825 170.144 39.4636 169.054 39.4636 167.818C39.4636 166.597 39.286 165.528 38.9309 164.612C38.5758 163.688 38.0502 162.971 37.3542 162.46C36.6582 161.941 35.7988 161.682 34.7761 161.682C33.7108 161.682 32.823 161.955 32.1127 162.502C31.4096 163.042 30.8805 163.777 30.5254 164.707C30.1774 165.631 30.0034 166.668 30.0034 167.818C30.0034 168.983 30.1809 170.041 30.536 170.993C30.8983 171.937 31.4309 172.69 32.1341 173.251C32.8443 173.805 33.725 174.082 34.7761 174.082ZM53.7498 176.341C52.1731 176.341 50.813 175.993 49.6696 175.297C48.5332 174.594 47.6561 173.614 47.0382 172.357C46.4274 171.092 46.122 169.622 46.122 167.946C46.122 166.27 46.4274 164.793 47.0382 163.514C47.6561 162.229 48.5154 161.227 49.6163 160.51C50.7243 159.786 52.0169 159.423 53.4941 159.423C54.3464 159.423 55.188 159.565 56.019 159.849C56.85 160.134 57.6064 160.595 58.2882 161.234C58.97 161.866 59.5133 162.705 59.9181 163.749C60.323 164.793 60.5254 166.078 60.5254 167.605V168.67H47.9118V166.497H57.9686C57.9686 165.574 57.7839 164.75 57.4146 164.026C57.0524 163.301 56.5339 162.729 55.8592 162.31C55.1916 161.891 54.4032 161.682 53.4941 161.682C52.4927 161.682 51.6262 161.93 50.8947 162.428C50.1703 162.918 49.6127 163.557 49.2221 164.345C48.8315 165.134 48.6362 165.979 48.6362 166.881V168.33C48.6362 169.565 48.8493 170.613 49.2754 171.472C49.7086 172.325 50.3088 172.974 51.0758 173.422C51.8429 173.862 52.7342 174.082 53.7498 174.082C54.4103 174.082 55.0069 173.99 55.5396 173.805C56.0794 173.614 56.5446 173.33 56.9352 172.953C57.3258 172.57 57.6277 172.094 57.8407 171.526L60.2697 172.207C60.014 173.031 59.5843 173.756 58.9806 174.381C58.377 174.999 57.6312 175.482 56.7434 175.83C55.8556 176.17 54.8578 176.341 53.7498 176.341ZM65.7855 159.636L69.706 166.327L73.6264 159.636H76.5241L71.2401 167.818L76.5241 176H73.6264L69.706 169.651L65.7855 176H62.8878L68.0866 167.818L62.8878 159.636H65.7855ZM86.2987 176.341C84.7219 176.341 83.3619 175.993 82.2184 175.297C81.082 174.594 80.2049 173.614 79.587 172.357C78.9762 171.092 78.6708 169.622 78.6708 167.946C78.6708 166.27 78.9762 164.793 79.587 163.514C80.2049 162.229 81.0643 161.227 82.1651 160.51C83.2731 159.786 84.5657 159.423 86.043 159.423C86.8952 159.423 87.7369 159.565 88.5678 159.849C89.3988 160.134 90.1552 160.595 90.837 161.234C91.5188 161.866 92.0621 162.705 92.467 163.749C92.8718 164.793 93.0742 166.078 93.0742 167.605V168.67H80.4606V166.497H90.5174C90.5174 165.574 90.3327 164.75 89.9634 164.026C89.6012 163.301 89.0827 162.729 88.408 162.31C87.7404 161.891 86.9521 161.682 86.043 161.682C85.0415 161.682 84.1751 161.93 83.4435 162.428C82.7191 162.918 82.1616 163.557 81.771 164.345C81.3803 165.134 81.185 165.979 81.185 166.881V168.33C81.185 169.565 81.3981 170.613 81.8242 171.472C82.2575 172.325 82.8576 172.974 83.6246 173.422C84.3917 173.862 85.283 174.082 86.2987 174.082C86.9592 174.082 87.5558 173.99 88.0884 173.805C88.6282 173.614 89.0934 173.33 89.484 172.953C89.8746 172.57 90.1765 172.094 90.3896 171.526L92.8185 172.207C92.5629 173.031 92.1332 173.756 91.5295 174.381C90.9258 174.999 90.18 175.482 89.2923 175.83C88.4045 176.17 87.4066 176.341 86.2987 176.341ZM108.49 163.301L106.231 163.94C106.089 163.564 105.88 163.198 105.603 162.843C105.333 162.481 104.963 162.183 104.495 161.948C104.026 161.714 103.426 161.597 102.694 161.597C101.693 161.597 100.858 161.827 100.191 162.289C99.5302 162.744 99.1999 163.322 99.1999 164.026C99.1999 164.651 99.4272 165.144 99.8817 165.506C100.336 165.869 101.047 166.17 102.012 166.412L104.441 167.009C105.904 167.364 106.995 167.907 107.712 168.638C108.429 169.363 108.788 170.297 108.788 171.44C108.788 172.378 108.518 173.216 107.978 173.955C107.446 174.693 106.7 175.276 105.741 175.702C104.782 176.128 103.667 176.341 102.396 176.341C100.727 176.341 99.3455 175.979 98.2518 175.254C97.158 174.53 96.4656 173.472 96.1744 172.08L98.5607 171.483C98.788 172.364 99.2177 173.024 99.8498 173.464C100.489 173.905 101.324 174.125 102.353 174.125C103.525 174.125 104.456 173.876 105.145 173.379C105.841 172.875 106.189 172.271 106.189 171.568C106.189 171 105.99 170.524 105.592 170.141C105.194 169.75 104.583 169.459 103.76 169.267L101.032 168.628C99.5337 168.273 98.4329 167.722 97.7298 166.977C97.0337 166.224 96.6857 165.283 96.6857 164.153C96.6857 163.23 96.945 162.413 97.4634 161.703C97.989 160.993 98.7028 160.435 99.6048 160.031C100.514 159.626 101.544 159.423 102.694 159.423C104.314 159.423 105.585 159.778 106.508 160.489C107.439 161.199 108.099 162.136 108.49 163.301ZM114.405 176.17C113.879 176.17 113.428 175.982 113.052 175.606C112.676 175.229 112.487 174.778 112.487 174.253C112.487 173.727 112.676 173.276 113.052 172.9C113.428 172.523 113.879 172.335 114.405 172.335C114.931 172.335 115.382 172.523 115.758 172.9C116.134 173.276 116.323 173.727 116.323 174.253C116.323 174.601 116.234 174.92 116.056 175.212C115.886 175.503 115.655 175.737 115.364 175.915C115.08 176.085 114.76 176.17 114.405 176.17ZM114.405 164.026C113.879 164.026 113.428 163.837 113.052 163.461C112.676 163.085 112.487 162.634 112.487 162.108C112.487 161.582 112.676 161.131 113.052 160.755C113.428 160.379 113.879 160.19 114.405 160.19C114.931 160.19 115.382 160.379 115.758 160.755C116.134 161.131 116.323 161.582 116.323 162.108C116.323 162.456 116.234 162.776 116.056 163.067C115.886 163.358 115.655 163.592 115.364 163.77C115.08 163.94 114.76 164.026 114.405 164.026Z" fill="#727272"/>
<path d="M3.73615 7.18182L10.2134 25.5483H10.4691L16.9464 7.18182H19.7163L11.7049 29H8.97763L0.966264 7.18182H3.73615ZM26.0657 29.3835C25.0288 29.3835 24.0877 29.1882 23.2425 28.7976C22.3974 28.3999 21.7262 27.8281 21.229 27.0824C20.7319 26.3295 20.4833 25.4205 20.4833 24.3551C20.4833 23.4176 20.668 22.6577 21.0373 22.0753C21.4066 21.4858 21.9002 21.0241 22.5181 20.6903C23.136 20.3565 23.8178 20.108 24.5636 19.9446C25.3164 19.7741 26.0728 19.6392 26.8327 19.5398C27.8271 19.4119 28.6332 19.3161 29.2511 19.2521C29.8761 19.1811 30.3306 19.0639 30.6147 18.9006C30.9059 18.7372 31.0515 18.4531 31.0515 18.0483V17.9631C31.0515 16.9119 30.7638 16.0952 30.1886 15.5128C29.6204 14.9304 28.7575 14.6392 27.5998 14.6392C26.3995 14.6392 25.4585 14.902 24.7766 15.4276C24.0948 15.9531 23.6154 16.5142 23.3384 17.1108L20.9521 16.2585C21.3782 15.2642 21.9464 14.4901 22.6566 13.9361C23.3739 13.375 24.1552 12.9844 25.0004 12.7642C25.8526 12.5369 26.6907 12.4233 27.5146 12.4233C28.0401 12.4233 28.6438 12.4872 29.3256 12.6151C30.0146 12.7358 30.6786 12.9879 31.3178 13.3714C31.9641 13.755 32.5004 14.3338 32.9265 15.108C33.3526 15.8821 33.5657 16.919 33.5657 18.2188V29H31.0515V26.7841H30.9237C30.7532 27.1392 30.4691 27.5192 30.0714 27.924C29.6737 28.3288 29.1445 28.6733 28.484 28.9574C27.8235 29.2415 27.0174 29.3835 26.0657 29.3835ZM26.4492 27.125C27.4435 27.125 28.2816 26.9297 28.9634 26.5391C29.6523 26.1484 30.1708 25.6442 30.5188 25.0263C30.8739 24.4084 31.0515 23.7585 31.0515 23.0767V20.7756C30.945 20.9034 30.7106 21.0206 30.3484 21.1271C29.9933 21.2266 29.5813 21.3153 29.1126 21.3935C28.6509 21.4645 28.1999 21.5284 27.7596 21.5852C27.3263 21.6349 26.9748 21.6776 26.7049 21.7131C26.0515 21.7983 25.4407 21.9368 24.8725 22.1286C24.3114 22.3132 23.8569 22.5937 23.5089 22.9702C23.168 23.3395 22.9975 23.8437 22.9975 24.483C22.9975 25.3565 23.3207 26.017 23.967 26.4645C24.6204 26.9048 25.4478 27.125 26.4492 27.125ZM40.6689 7.18182V29H38.1547V7.18182H40.6689ZM55.5863 22.3097V12.6364H58.1005V29H55.5863V26.2301H55.4158C55.0323 27.0611 54.4357 27.7678 53.6261 28.3501C52.8164 28.9254 51.7937 29.2131 50.5579 29.2131C49.5352 29.2131 48.6261 28.9893 47.8306 28.5419C47.0352 28.0874 46.4102 27.4055 45.9556 26.4964C45.5011 25.5803 45.2738 24.4261 45.2738 23.0341V12.6364H47.788V22.8636C47.788 24.0568 48.1218 25.0085 48.7894 25.7188C49.4641 26.429 50.3235 26.7841 51.3675 26.7841C51.9925 26.7841 52.6282 26.6243 53.2745 26.3047C53.9279 25.9851 54.4748 25.495 54.9151 24.8345C55.3626 24.174 55.5863 23.3324 55.5863 22.3097ZM69.5662 29.3409C67.9895 29.3409 66.6294 28.9929 65.486 28.2969C64.3496 27.5938 63.4725 26.6136 62.8546 25.3565C62.2438 24.0923 61.9384 22.6222 61.9384 20.946C61.9384 19.2699 62.2438 17.7926 62.8546 16.5142C63.4725 15.2287 64.3319 14.2273 65.4327 13.5099C66.5407 12.7855 67.8333 12.4233 69.3105 12.4233C70.1628 12.4233 71.0044 12.5653 71.8354 12.8494C72.6664 13.1335 73.4228 13.5952 74.1046 14.2344C74.7864 14.8665 75.3297 15.7045 75.7346 16.7486C76.1394 17.7926 76.3418 19.0781 76.3418 20.6051V21.6705H63.7282V19.4972H73.785C73.785 18.5739 73.6003 17.75 73.231 17.0256C72.8688 16.3011 72.3503 15.7294 71.6756 15.3104C71.008 14.8913 70.2196 14.6818 69.3105 14.6818C68.3091 14.6818 67.4426 14.9304 66.7111 15.4276C65.9867 15.9176 65.4292 16.5568 65.0385 17.3452C64.6479 18.1335 64.4526 18.9787 64.4526 19.8807V21.3295C64.4526 22.5653 64.6657 23.6129 65.0918 24.4723C65.525 25.3246 66.1252 25.9744 66.8922 26.4219C67.6593 26.8622 68.5506 27.0824 69.5662 27.0824C70.2267 27.0824 70.8233 26.9901 71.356 26.8054C71.8958 26.6136 72.361 26.3295 72.7516 25.9531C73.1422 25.5696 73.4441 25.0937 73.6571 24.5256L76.0861 25.2074C75.8304 26.0312 75.4007 26.7557 74.7971 27.3807C74.1934 27.9986 73.4476 28.4815 72.5598 28.8295C71.6721 29.1705 70.6742 29.3409 69.5662 29.3409ZM91.7573 16.3011L89.4988 16.9403C89.3567 16.5639 89.1472 16.1982 88.8702 15.843C88.6003 15.4808 88.231 15.1825 87.7623 14.9482C87.2935 14.7138 86.6934 14.5966 85.9618 14.5966C84.9604 14.5966 84.1259 14.8274 83.4583 15.2891C82.7978 15.7436 82.4675 16.3224 82.4675 17.0256C82.4675 17.6506 82.6948 18.1442 83.1493 18.5064C83.6039 18.8686 84.3141 19.1705 85.28 19.4119L87.709 20.0085C89.1721 20.3636 90.2623 20.907 90.9796 21.6385C91.6969 22.3629 92.0556 23.2969 92.0556 24.4403C92.0556 25.3778 91.7857 26.2159 91.2459 26.9545C90.7132 27.6932 89.9675 28.2756 89.0087 28.7017C88.0499 29.1278 86.9348 29.3409 85.6635 29.3409C83.9945 29.3409 82.6131 28.9787 81.5194 28.2543C80.4256 27.5298 79.7331 26.4716 79.4419 25.0795L81.8283 24.483C82.0556 25.3636 82.4853 26.0241 83.1174 26.4645C83.7566 26.9048 84.5911 27.125 85.6209 27.125C86.7928 27.125 87.7232 26.8764 88.4121 26.3793C89.1081 25.875 89.4561 25.2713 89.4561 24.5682C89.4561 24 89.2573 23.5241 88.8596 23.1406C88.4618 22.75 87.851 22.4588 87.0272 22.267L84.2999 21.6278C82.8013 21.2727 81.7005 20.7223 80.9973 19.9766C80.3013 19.2237 79.9533 18.2827 79.9533 17.1534C79.9533 16.2301 80.2125 15.4134 80.731 14.7031C81.2566 13.9929 81.9703 13.4354 82.8723 13.0305C83.7814 12.6257 84.8113 12.4233 85.9618 12.4233C87.5811 12.4233 88.8525 12.7784 89.7757 13.4886C90.7061 14.1989 91.3667 15.1364 91.7573 16.3011ZM97.6726 29.1705C97.147 29.1705 96.696 28.9822 96.3196 28.6058C95.9432 28.2294 95.755 27.7784 95.755 27.2528C95.755 26.7273 95.9432 26.2763 96.3196 25.8999C96.696 25.5234 97.147 25.3352 97.6726 25.3352C98.1982 25.3352 98.6491 25.5234 99.0256 25.8999C99.402 26.2763 99.5902 26.7273 99.5902 27.2528C99.5902 27.6009 99.5014 27.9205 99.3239 28.2116C99.1534 28.5028 98.9226 28.7372 98.6314 28.9148C98.3473 29.0852 98.0277 29.1705 97.6726 29.1705ZM97.6726 17.0256C97.147 17.0256 96.696 16.8374 96.3196 16.4609C95.9432 16.0845 95.755 15.6335 95.755 15.108C95.755 14.5824 95.9432 14.1314 96.3196 13.755C96.696 13.3786 97.147 13.1903 97.6726 13.1903C98.1982 13.1903 98.6491 13.3786 99.0256 13.755C99.402 14.1314 99.5902 14.5824 99.5902 15.108C99.5902 15.456 99.5014 15.7756 99.3239 16.0668C99.1534 16.358 98.9226 16.5923 98.6314 16.7699C98.3473 16.9403 98.0277 17.0256 97.6726 17.0256Z" fill="white"/>
<path d="M156.956 7.18182V29H154.314V9.9517H154.186L148.86 13.4886V10.804L154.314 7.18182H156.956Z" fill="#727272"/>
<path d="M154.5 176.298C152.895 176.298 151.528 175.862 150.398 174.988C149.269 174.107 148.406 172.832 147.81 171.163C147.213 169.487 146.915 167.463 146.915 165.091C146.915 162.733 147.213 160.719 147.81 159.05C148.413 157.374 149.28 156.096 150.409 155.215C151.545 154.327 152.909 153.884 154.5 153.884C156.091 153.884 157.451 154.327 158.58 155.215C159.717 156.096 160.583 157.374 161.18 159.05C161.783 160.719 162.085 162.733 162.085 165.091C162.085 167.463 161.787 169.487 161.19 171.163C160.594 172.832 159.731 174.107 158.602 174.988C157.472 175.862 156.105 176.298 154.5 176.298ZM154.5 173.955C156.091 173.955 157.327 173.187 158.207 171.653C159.088 170.119 159.528 167.932 159.528 165.091C159.528 163.202 159.326 161.593 158.921 160.265C158.523 158.937 157.948 157.925 157.195 157.229C156.45 156.533 155.551 156.185 154.5 156.185C152.923 156.185 151.691 156.962 150.803 158.518C149.915 160.066 149.472 162.257 149.472 165.091C149.472 166.98 149.67 168.585 150.068 169.906C150.466 171.227 151.038 172.232 151.783 172.921C152.536 173.61 153.442 173.955 154.5 173.955Z" fill="#727272"/>
<path d="M549.845 226V204.182H552.487V223.656H562.629V226H549.845ZM573.027 226.341C571.55 226.341 570.254 225.989 569.138 225.286C568.031 224.583 567.164 223.599 566.539 222.335C565.921 221.071 565.612 219.594 565.612 217.903C565.612 216.199 565.921 214.711 566.539 213.44C567.164 212.168 568.031 211.181 569.138 210.478C570.254 209.775 571.55 209.423 573.027 209.423C574.504 209.423 575.797 209.775 576.905 210.478C578.02 211.181 578.886 212.168 579.504 213.44C580.129 214.711 580.442 216.199 580.442 217.903C580.442 219.594 580.129 221.071 579.504 222.335C578.886 223.599 578.02 224.583 576.905 225.286C575.797 225.989 574.504 226.341 573.027 226.341ZM573.027 224.082C574.149 224.082 575.072 223.795 575.797 223.219C576.521 222.644 577.058 221.888 577.406 220.95C577.754 220.013 577.928 218.997 577.928 217.903C577.928 216.81 577.754 215.79 577.406 214.846C577.058 213.901 576.521 213.138 575.797 212.555C575.072 211.973 574.149 211.682 573.027 211.682C571.905 211.682 570.982 211.973 570.257 212.555C569.533 213.138 568.996 213.901 568.648 214.846C568.3 215.79 568.126 216.81 568.126 217.903C568.126 218.997 568.3 220.013 568.648 220.95C568.996 221.888 569.533 222.644 570.257 223.219C570.982 223.795 571.905 224.082 573.027 224.082ZM587.43 226L582.445 209.636H585.087L588.624 222.165H588.794L592.288 209.636H594.973L598.425 222.122H598.595L602.132 209.636H604.774L599.788 226H597.317L593.737 213.429H593.482L589.902 226H587.43Z" fill="#727272"/>
<path d="M753.976 226V204.182H756.618V213.898H768.252V204.182H770.894V226H768.252V216.241H756.618V226H753.976ZM775.842 226V209.636H778.356V226H775.842ZM777.121 206.909C776.631 206.909 776.208 206.742 775.853 206.408C775.505 206.075 775.331 205.673 775.331 205.205C775.331 204.736 775.505 204.335 775.853 204.001C776.208 203.667 776.631 203.5 777.121 203.5C777.611 203.5 778.03 203.667 778.378 204.001C778.733 204.335 778.91 204.736 778.91 205.205C778.91 205.673 778.733 206.075 778.378 206.408C778.03 206.742 777.611 206.909 777.121 206.909ZM789.566 232.477C788.352 232.477 787.308 232.321 786.434 232.009C785.561 231.703 784.833 231.298 784.25 230.794C783.675 230.297 783.217 229.764 782.876 229.196L784.879 227.79C785.106 228.088 785.394 228.429 785.742 228.812C786.09 229.203 786.566 229.54 787.169 229.825C787.78 230.116 788.579 230.261 789.566 230.261C790.887 230.261 791.978 229.942 792.837 229.303C793.696 228.663 794.126 227.662 794.126 226.298V222.974H793.913C793.728 223.273 793.466 223.642 793.125 224.082C792.791 224.516 792.308 224.903 791.676 225.244C791.051 225.577 790.206 225.744 789.14 225.744C787.819 225.744 786.633 225.432 785.582 224.807C784.538 224.182 783.711 223.273 783.1 222.08C782.496 220.886 782.194 219.437 782.194 217.733C782.194 216.057 782.489 214.597 783.078 213.354C783.668 212.104 784.488 211.138 785.539 210.457C786.591 209.768 787.805 209.423 789.183 209.423C790.248 209.423 791.093 209.601 791.718 209.956C792.35 210.304 792.833 210.702 793.167 211.149C793.508 211.589 793.771 211.952 793.956 212.236H794.211V209.636H796.64V226.469C796.64 227.875 796.321 229.018 795.681 229.899C795.049 230.787 794.197 231.437 793.125 231.849C792.059 232.268 790.873 232.477 789.566 232.477ZM789.481 223.486C790.49 223.486 791.342 223.255 792.038 222.793C792.734 222.332 793.263 221.668 793.625 220.801C793.988 219.935 794.169 218.898 794.169 217.69C794.169 216.511 793.991 215.471 793.636 214.569C793.281 213.667 792.755 212.96 792.059 212.449C791.363 211.937 790.504 211.682 789.481 211.682C788.416 211.682 787.528 211.952 786.818 212.491C786.115 213.031 785.586 213.756 785.23 214.665C784.882 215.574 784.708 216.582 784.708 217.69C784.708 218.827 784.886 219.832 785.241 220.705C785.603 221.572 786.136 222.254 786.839 222.751C787.549 223.241 788.43 223.486 789.481 223.486ZM803.757 216.156V226H801.243V204.182H803.757V212.193H803.97C804.353 211.348 804.929 210.677 805.696 210.18C806.47 209.675 807.5 209.423 808.785 209.423C809.9 209.423 810.877 209.647 811.715 210.094C812.553 210.535 813.203 211.213 813.664 212.129C814.133 213.038 814.368 214.196 814.368 215.602V226H811.853V215.773C811.853 214.473 811.516 213.468 810.841 212.758C810.174 212.04 809.247 211.682 808.061 211.682C807.237 211.682 806.498 211.856 805.845 212.204C805.199 212.552 804.687 213.06 804.311 213.727C803.941 214.395 803.757 215.205 803.757 216.156Z" fill="#727272"/>
<path d="M251.676 29V27.0824L258.878 19.1989C259.723 18.2756 260.419 17.473 260.966 16.7912C261.513 16.1023 261.918 15.456 262.181 14.8523C262.451 14.2415 262.586 13.6023 262.586 12.9347C262.586 12.1676 262.401 11.5036 262.032 10.9425C261.669 10.3814 261.172 9.94815 260.54 9.64276C259.908 9.33736 259.198 9.18466 258.409 9.18466C257.571 9.18466 256.84 9.35866 256.215 9.70668C255.597 10.0476 255.118 10.527 254.777 11.1449C254.443 11.7628 254.276 12.4872 254.276 13.3182H251.762C251.762 12.0398 252.056 10.9176 252.646 9.9517C253.235 8.98579 254.038 8.23295 255.054 7.69318C256.076 7.15341 257.223 6.88352 258.495 6.88352C259.773 6.88352 260.906 7.15341 261.893 7.69318C262.88 8.23295 263.654 8.96094 264.216 9.87713C264.777 10.7933 265.057 11.8125 265.057 12.9347C265.057 13.7372 264.912 14.522 264.62 15.2891C264.336 16.049 263.839 16.8977 263.129 17.8352C262.426 18.7656 261.449 19.902 260.199 21.2443L255.299 26.4858V26.6562H265.441V29H251.676Z" fill="#727272"/>
<path d="M261.956 154.182V176H259.314V156.952H259.186L253.86 160.489V157.804L259.314 154.182H261.956Z" fill="#727272"/>
<path d="M364.58 29.2983C363.174 29.2983 361.92 29.0568 360.819 28.5739C359.725 28.0909 358.855 27.4197 358.209 26.5604C357.57 25.6939 357.222 24.6889 357.165 23.5455H359.85C359.907 24.2486 360.148 24.8558 360.574 25.3672C361 25.8714 361.558 26.2621 362.247 26.5391C362.936 26.8161 363.699 26.9545 364.537 26.9545C365.475 26.9545 366.306 26.7912 367.03 26.4645C367.755 26.1378 368.323 25.6832 368.735 25.1009C369.147 24.5185 369.353 23.8438 369.353 23.0767C369.353 22.2741 369.154 21.5675 368.756 20.9567C368.358 20.3388 367.776 19.8558 367.009 19.5078C366.242 19.1598 365.304 18.9858 364.196 18.9858H362.449V16.642H364.196C365.063 16.642 365.823 16.4858 366.476 16.1733C367.137 15.8608 367.652 15.4205 368.021 14.8523C368.397 14.2841 368.586 13.6165 368.586 12.8494C368.586 12.1108 368.422 11.468 368.096 10.9212C367.769 10.3743 367.307 9.94815 366.711 9.64276C366.121 9.33736 365.425 9.18466 364.623 9.18466C363.87 9.18466 363.159 9.32315 362.492 9.60014C361.831 9.87003 361.292 10.2642 360.873 10.7827C360.453 11.294 360.226 11.9119 360.191 12.6364H357.634C357.676 11.4929 358.021 10.4915 358.667 9.6321C359.314 8.76562 360.159 8.09091 361.203 7.60795C362.254 7.125 363.408 6.88352 364.665 6.88352C366.015 6.88352 367.172 7.15696 368.138 7.70383C369.104 8.24361 369.846 8.95739 370.365 9.84517C370.883 10.733 371.142 11.6918 371.142 12.7216C371.142 13.9503 370.819 14.9979 370.173 15.8643C369.534 16.7308 368.664 17.331 367.563 17.6648V17.8352C368.941 18.0625 370.017 18.6484 370.791 19.593C371.565 20.5305 371.952 21.6918 371.952 23.0767C371.952 24.2628 371.629 25.3281 370.983 26.2727C370.343 27.2102 369.47 27.9489 368.362 28.4886C367.254 29.0284 365.993 29.2983 364.58 29.2983Z" fill="#727272"/>
<path d="M460.623 24.5256V22.3523L470.211 7.18182H471.788V10.5483H470.723L463.478 22.0114V22.1818H476.39V24.5256H460.623ZM470.893 29V23.8651V22.853V7.18182H473.407V29H470.893Z" fill="#727272"/>
<path d="M357.676 176V174.082L364.878 166.199C365.723 165.276 366.419 164.473 366.966 163.791C367.513 163.102 367.918 162.456 368.181 161.852C368.451 161.241 368.586 160.602 368.586 159.935C368.586 159.168 368.401 158.504 368.032 157.942C367.669 157.381 367.172 156.948 366.54 156.643C365.908 156.337 365.198 156.185 364.409 156.185C363.571 156.185 362.84 156.359 362.215 156.707C361.597 157.048 361.118 157.527 360.777 158.145C360.443 158.763 360.276 159.487 360.276 160.318H357.762C357.762 159.04 358.056 157.918 358.646 156.952C359.235 155.986 360.038 155.233 361.054 154.693C362.076 154.153 363.223 153.884 364.495 153.884C365.773 153.884 366.906 154.153 367.893 154.693C368.88 155.233 369.654 155.961 370.216 156.877C370.777 157.793 371.057 158.812 371.057 159.935C371.057 160.737 370.912 161.522 370.62 162.289C370.336 163.049 369.839 163.898 369.129 164.835C368.426 165.766 367.449 166.902 366.199 168.244L361.299 173.486V173.656H371.441V176H357.676Z" fill="#727272"/>
<path d="M576.451 29.2983C575.201 29.2983 574.075 29.0497 573.074 28.5526C572.072 28.0554 571.27 27.3736 570.666 26.5071C570.062 25.6406 569.732 24.6534 569.675 23.5455H572.232C572.331 24.5327 572.779 25.3494 573.574 25.9957C574.377 26.6349 575.336 26.9545 576.451 26.9545C577.346 26.9545 578.141 26.745 578.837 26.326C579.54 25.907 580.091 25.3317 580.488 24.6001C580.893 23.8615 581.096 23.027 581.096 22.0966C581.096 21.1449 580.886 20.2962 580.467 19.5504C580.055 18.7976 579.487 18.2045 578.763 17.7713C578.038 17.3381 577.211 17.1179 576.28 17.1108C575.613 17.1037 574.927 17.2067 574.224 17.4197C573.521 17.6257 572.942 17.892 572.488 18.2188L570.016 17.9205L571.337 7.18182H582.672V9.52557H573.553L572.786 15.9602H572.914C573.361 15.6051 573.922 15.3104 574.597 15.076C575.272 14.8416 575.975 14.7244 576.706 14.7244C578.042 14.7244 579.231 15.044 580.275 15.6832C581.326 16.3153 582.15 17.1818 582.747 18.2827C583.351 19.3835 583.652 20.6406 583.652 22.054C583.652 23.446 583.34 24.6889 582.715 25.7827C582.097 26.8693 581.245 27.7287 580.158 28.3608C579.071 28.9858 577.836 29.2983 576.451 29.2983Z" fill="white"/>
<path d="M778.371 29L788.13 9.69602V9.52557H776.88V7.18182H790.857V9.65341L781.141 29H778.371Z" fill="white"/>
<path d="M469.08 176.298C467.674 176.298 466.42 176.057 465.319 175.574C464.225 175.091 463.355 174.42 462.709 173.56C462.07 172.694 461.722 171.689 461.665 170.545H464.35C464.407 171.249 464.648 171.856 465.074 172.367C465.5 172.871 466.058 173.262 466.747 173.539C467.436 173.816 468.199 173.955 469.037 173.955C469.975 173.955 470.806 173.791 471.53 173.464C472.255 173.138 472.823 172.683 473.235 172.101C473.647 171.518 473.853 170.844 473.853 170.077C473.853 169.274 473.654 168.567 473.256 167.957C472.858 167.339 472.276 166.856 471.509 166.508C470.742 166.16 469.804 165.986 468.696 165.986H466.949V163.642H468.696C469.563 163.642 470.323 163.486 470.976 163.173C471.637 162.861 472.152 162.42 472.521 161.852C472.897 161.284 473.086 160.616 473.086 159.849C473.086 159.111 472.922 158.468 472.596 157.921C472.269 157.374 471.807 156.948 471.211 156.643C470.621 156.337 469.925 156.185 469.123 156.185C468.37 156.185 467.659 156.323 466.992 156.6C466.331 156.87 465.792 157.264 465.373 157.783C464.953 158.294 464.726 158.912 464.691 159.636H462.134C462.176 158.493 462.521 157.491 463.167 156.632C463.814 155.766 464.659 155.091 465.703 154.608C466.754 154.125 467.908 153.884 469.165 153.884C470.515 153.884 471.672 154.157 472.638 154.704C473.604 155.244 474.346 155.957 474.865 156.845C475.383 157.733 475.642 158.692 475.642 159.722C475.642 160.95 475.319 161.998 474.673 162.864C474.034 163.731 473.164 164.331 472.063 164.665V164.835C473.441 165.062 474.517 165.648 475.291 166.593C476.065 167.531 476.452 168.692 476.452 170.077C476.452 171.263 476.129 172.328 475.483 173.273C474.843 174.21 473.97 174.949 472.862 175.489C471.754 176.028 470.493 176.298 469.08 176.298Z" fill="#727272"/>
<path d="M566.123 171.526V169.352L575.711 154.182H577.288V157.548H576.223L568.978 169.011V169.182H581.89V171.526H566.123ZM576.393 176V170.865V169.853V154.182H578.907V176H576.393Z" fill="#727272"/>
<path d="M784.451 176.298C783.201 176.298 782.075 176.05 781.074 175.553C780.072 175.055 779.27 174.374 778.666 173.507C778.062 172.641 777.732 171.653 777.675 170.545H780.232C780.331 171.533 780.779 172.349 781.574 172.996C782.377 173.635 783.336 173.955 784.451 173.955C785.346 173.955 786.141 173.745 786.837 173.326C787.54 172.907 788.091 172.332 788.488 171.6C788.893 170.862 789.096 170.027 789.096 169.097C789.096 168.145 788.886 167.296 788.467 166.55C788.055 165.798 787.487 165.205 786.763 164.771C786.038 164.338 785.211 164.118 784.28 164.111C783.613 164.104 782.927 164.207 782.224 164.42C781.521 164.626 780.942 164.892 780.488 165.219L778.016 164.92L779.337 154.182H790.672V156.526H781.553L780.786 162.96H780.914C781.361 162.605 781.922 162.31 782.597 162.076C783.272 161.842 783.975 161.724 784.706 161.724C786.042 161.724 787.231 162.044 788.275 162.683C789.326 163.315 790.15 164.182 790.747 165.283C791.351 166.384 791.652 167.641 791.652 169.054C791.652 170.446 791.34 171.689 790.715 172.783C790.097 173.869 789.245 174.729 788.158 175.361C787.071 175.986 785.836 176.298 784.451 176.298Z" fill="#727272"/>
<line x1="154" y1="91" x2="576" y2="91" stroke="#727272" stroke-width="2"/>
<line x1="576" y1="91" x2="784" y2="91" stroke="white" stroke-width="2"/>
<line x1="785" y1="58" x2="785" y2="125" stroke="white" stroke-width="2"/>
<line x1="155" y1="58" x2="155" y2="125" stroke="#727272" stroke-width="2"/>
<line x1="260" y1="73" x2="260" y2="111" stroke="#727272" stroke-width="2"/>
<line x1="365" y1="73" x2="365" y2="111" stroke="#727272" stroke-width="2"/>
<line x1="470" y1="73" x2="470" y2="111" stroke="#727272" stroke-width="2"/>
<line x1="575" y1="73" x2="575" y2="111" stroke="white" stroke-width="2"/>
</svg>
