<svg width="1153" height="249" viewBox="0 0 1153 249" fill="none" xmlns="http://www.w3.org/2000/svg">
<path d="M341.751 170.182V192H339.109V170.182H341.751ZM349.222 182.156V192H346.707V175.636H349.136V178.193H349.349C349.733 177.362 350.315 176.695 351.097 176.19C351.878 175.679 352.886 175.423 354.122 175.423C355.23 175.423 356.2 175.651 357.031 176.105C357.862 176.553 358.508 177.234 358.969 178.151C359.431 179.06 359.662 180.21 359.662 181.602V192H357.148V181.773C357.148 180.487 356.814 179.486 356.146 178.768C355.479 178.044 354.563 177.682 353.398 177.682C352.595 177.682 351.878 177.856 351.246 178.204C350.621 178.552 350.127 179.06 349.765 179.727C349.403 180.395 349.222 181.205 349.222 182.156ZM370.435 192.341C369.072 192.341 367.868 191.996 366.824 191.308C365.78 190.612 364.963 189.631 364.373 188.367C363.784 187.096 363.489 185.594 363.489 183.861C363.489 182.142 363.784 180.651 364.373 179.386C364.963 178.122 365.783 177.146 366.834 176.457C367.885 175.768 369.1 175.423 370.478 175.423C371.543 175.423 372.385 175.601 373.003 175.956C373.628 176.304 374.104 176.702 374.43 177.149C374.764 177.589 375.023 177.952 375.208 178.236H375.421V170.182H377.935V192H375.506V189.486H375.208C375.023 189.784 374.76 190.161 374.42 190.615C374.079 191.062 373.592 191.464 372.96 191.819C372.328 192.167 371.486 192.341 370.435 192.341ZM370.776 190.082C371.785 190.082 372.637 189.82 373.333 189.294C374.029 188.761 374.558 188.026 374.92 187.089C375.282 186.144 375.464 185.054 375.464 183.818C375.464 182.597 375.286 181.528 374.931 180.612C374.576 179.688 374.05 178.971 373.354 178.46C372.658 177.941 371.799 177.682 370.776 177.682C369.711 177.682 368.823 177.955 368.113 178.502C367.41 179.042 366.881 179.777 366.525 180.707C366.177 181.631 366.003 182.668 366.003 183.818C366.003 184.983 366.181 186.041 366.536 186.993C366.898 187.937 367.431 188.69 368.134 189.251C368.844 189.805 369.725 190.082 370.776 190.082ZM389.75 192.341C388.173 192.341 386.813 191.993 385.67 191.297C384.533 190.594 383.656 189.614 383.038 188.357C382.427 187.092 382.122 185.622 382.122 183.946C382.122 182.27 382.427 180.793 383.038 179.514C383.656 178.229 384.515 177.227 385.616 176.51C386.724 175.786 388.017 175.423 389.494 175.423C390.346 175.423 391.188 175.565 392.019 175.849C392.85 176.134 393.606 176.595 394.288 177.234C394.97 177.866 395.513 178.705 395.918 179.749C396.323 180.793 396.525 182.078 396.525 183.605V184.67H383.912V182.497H393.969C393.969 181.574 393.784 180.75 393.415 180.026C393.052 179.301 392.534 178.729 391.859 178.31C391.192 177.891 390.403 177.682 389.494 177.682C388.493 177.682 387.626 177.93 386.895 178.428C386.17 178.918 385.613 179.557 385.222 180.345C384.831 181.134 384.636 181.979 384.636 182.881V184.33C384.636 185.565 384.849 186.613 385.275 187.472C385.709 188.325 386.309 188.974 387.076 189.422C387.843 189.862 388.734 190.082 389.75 190.082C390.41 190.082 391.007 189.99 391.54 189.805C392.079 189.614 392.545 189.33 392.935 188.953C393.326 188.57 393.628 188.094 393.841 187.526L396.27 188.207C396.014 189.031 395.584 189.756 394.981 190.381C394.377 190.999 393.631 191.482 392.743 191.83C391.856 192.17 390.858 192.341 389.75 192.341ZM401.786 175.636L405.706 182.327L409.626 175.636H412.524L407.24 183.818L412.524 192H409.626L405.706 185.651L401.786 192H398.888L404.087 183.818L398.888 175.636H401.786ZM422.299 192.341C420.722 192.341 419.362 191.993 418.218 191.297C417.082 190.594 416.205 189.614 415.587 188.357C414.976 187.092 414.671 185.622 414.671 183.946C414.671 182.27 414.976 180.793 415.587 179.514C416.205 178.229 417.064 177.227 418.165 176.51C419.273 175.786 420.566 175.423 422.043 175.423C422.895 175.423 423.737 175.565 424.568 175.849C425.399 176.134 426.155 176.595 426.837 177.234C427.519 177.866 428.062 178.705 428.467 179.749C428.872 180.793 429.074 182.078 429.074 183.605V184.67H416.461V182.497H426.517C426.517 181.574 426.333 180.75 425.963 180.026C425.601 179.301 425.083 178.729 424.408 178.31C423.74 177.891 422.952 177.682 422.043 177.682C421.042 177.682 420.175 177.93 419.444 178.428C418.719 178.918 418.162 179.557 417.771 180.345C417.38 181.134 417.185 181.979 417.185 182.881V184.33C417.185 185.565 417.398 186.613 417.824 187.472C418.257 188.325 418.858 188.974 419.625 189.422C420.392 189.862 421.283 190.082 422.299 190.082C422.959 190.082 423.556 189.99 424.088 189.805C424.628 189.614 425.093 189.33 425.484 188.953C425.875 188.57 426.176 188.094 426.39 187.526L428.819 188.207C428.563 189.031 428.133 189.756 427.529 190.381C426.926 190.999 426.18 191.482 425.292 191.83C424.404 192.17 423.407 192.341 422.299 192.341ZM444.49 179.301L442.231 179.94C442.089 179.564 441.88 179.198 441.603 178.843C441.333 178.481 440.963 178.183 440.495 177.948C440.026 177.714 439.426 177.597 438.694 177.597C437.693 177.597 436.858 177.827 436.191 178.289C435.53 178.744 435.2 179.322 435.2 180.026C435.2 180.651 435.427 181.144 435.882 181.506C436.336 181.869 437.047 182.17 438.012 182.412L440.441 183.009C441.904 183.364 442.995 183.907 443.712 184.638C444.429 185.363 444.788 186.297 444.788 187.44C444.788 188.378 444.518 189.216 443.978 189.955C443.446 190.693 442.7 191.276 441.741 191.702C440.782 192.128 439.667 192.341 438.396 192.341C436.727 192.341 435.346 191.979 434.252 191.254C433.158 190.53 432.466 189.472 432.174 188.08L434.561 187.483C434.788 188.364 435.218 189.024 435.85 189.464C436.489 189.905 437.324 190.125 438.353 190.125C439.525 190.125 440.456 189.876 441.145 189.379C441.841 188.875 442.189 188.271 442.189 187.568C442.189 187 441.99 186.524 441.592 186.141C441.194 185.75 440.583 185.459 439.76 185.267L437.032 184.628C435.534 184.273 434.433 183.722 433.73 182.977C433.034 182.224 432.686 181.283 432.686 180.153C432.686 179.23 432.945 178.413 433.463 177.703C433.989 176.993 434.703 176.435 435.605 176.031C436.514 175.626 437.544 175.423 438.694 175.423C440.314 175.423 441.585 175.778 442.508 176.489C443.439 177.199 444.099 178.136 444.49 179.301ZM450.405 192.17C449.879 192.17 449.428 191.982 449.052 191.606C448.676 191.229 448.487 190.778 448.487 190.253C448.487 189.727 448.676 189.276 449.052 188.9C449.428 188.523 449.879 188.335 450.405 188.335C450.931 188.335 451.382 188.523 451.758 188.9C452.134 189.276 452.323 189.727 452.323 190.253C452.323 190.601 452.234 190.92 452.056 191.212C451.886 191.503 451.655 191.737 451.364 191.915C451.08 192.085 450.76 192.17 450.405 192.17ZM450.405 180.026C449.879 180.026 449.428 179.837 449.052 179.461C448.676 179.085 448.487 178.634 448.487 178.108C448.487 177.582 448.676 177.131 449.052 176.755C449.428 176.379 449.879 176.19 450.405 176.19C450.931 176.19 451.382 176.379 451.758 176.755C452.134 177.131 452.323 177.582 452.323 178.108C452.323 178.456 452.234 178.776 452.056 179.067C451.886 179.358 451.655 179.592 451.364 179.77C451.08 179.94 450.76 180.026 450.405 180.026Z" fill="#727272"/>
<path d="M339.736 7.18182L346.213 25.5483H346.469L352.946 7.18182H355.716L347.705 29H344.978L336.966 7.18182H339.736ZM362.066 29.3835C361.029 29.3835 360.088 29.1882 359.243 28.7976C358.397 28.3999 357.726 27.8281 357.229 27.0824C356.732 26.3295 356.483 25.4205 356.483 24.3551C356.483 23.4176 356.668 22.6577 357.037 22.0753C357.407 21.4858 357.9 21.0241 358.518 20.6903C359.136 20.3565 359.818 20.108 360.564 19.9446C361.316 19.7741 362.073 19.6392 362.833 19.5398C363.827 19.4119 364.633 19.3161 365.251 19.2521C365.876 19.1811 366.331 19.0639 366.615 18.9006C366.906 18.7372 367.051 18.4531 367.051 18.0483V17.9631C367.051 16.9119 366.764 16.0952 366.189 15.5128C365.62 14.9304 364.757 14.6392 363.6 14.6392C362.4 14.6392 361.458 14.902 360.777 15.4276C360.095 15.9531 359.615 16.5142 359.338 17.1108L356.952 16.2585C357.378 15.2642 357.946 14.4901 358.657 13.9361C359.374 13.375 360.155 12.9844 361 12.7642C361.853 12.5369 362.691 12.4233 363.515 12.4233C364.04 12.4233 364.644 12.4872 365.326 12.6151C366.015 12.7358 366.679 12.9879 367.318 13.3714C367.964 13.755 368.5 14.3338 368.926 15.108C369.353 15.8821 369.566 16.919 369.566 18.2188V29H367.051V26.7841H366.924C366.753 27.1392 366.469 27.5192 366.071 27.924C365.674 28.3288 365.145 28.6733 364.484 28.9574C363.824 29.2415 363.017 29.3835 362.066 29.3835ZM362.449 27.125C363.444 27.125 364.282 26.9297 364.963 26.5391C365.652 26.1484 366.171 25.6442 366.519 25.0263C366.874 24.4084 367.051 23.7585 367.051 23.0767V20.7756C366.945 20.9034 366.711 21.0206 366.348 21.1271C365.993 21.2266 365.581 21.3153 365.113 21.3935C364.651 21.4645 364.2 21.5284 363.76 21.5852C363.326 21.6349 362.975 21.6776 362.705 21.7131C362.051 21.7983 361.441 21.9368 360.873 22.1286C360.311 22.3132 359.857 22.5937 359.509 22.9702C359.168 23.3395 358.998 23.8437 358.998 24.483C358.998 25.3565 359.321 26.017 359.967 26.4645C360.62 26.9048 361.448 27.125 362.449 27.125ZM376.669 7.18182V29H374.155V7.18182H376.669ZM391.586 22.3097V12.6364H394.1V29H391.586V26.2301H391.416C391.032 27.0611 390.436 27.7678 389.626 28.3501C388.816 28.9254 387.794 29.2131 386.558 29.2131C385.535 29.2131 384.626 28.9893 383.831 28.5419C383.035 28.0874 382.41 27.4055 381.956 26.4964C381.501 25.5803 381.274 24.4261 381.274 23.0341V12.6364H383.788V22.8636C383.788 24.0568 384.122 25.0085 384.789 25.7188C385.464 26.429 386.324 26.7841 387.368 26.7841C387.993 26.7841 388.628 26.6243 389.275 26.3047C389.928 25.9851 390.475 25.495 390.915 24.8345C391.363 24.174 391.586 23.3324 391.586 22.3097ZM405.566 29.3409C403.99 29.3409 402.629 28.9929 401.486 28.2969C400.35 27.5938 399.472 26.6136 398.855 25.3565C398.244 24.0923 397.938 22.6222 397.938 20.946C397.938 19.2699 398.244 17.7926 398.855 16.5142C399.472 15.2287 400.332 14.2273 401.433 13.5099C402.541 12.7855 403.833 12.4233 405.311 12.4233C406.163 12.4233 407.004 12.5653 407.835 12.8494C408.666 13.1335 409.423 13.5952 410.105 14.2344C410.786 14.8665 411.33 15.7045 411.735 16.7486C412.139 17.7926 412.342 19.0781 412.342 20.6051V21.6705H399.728V19.4972H409.785C409.785 18.5739 409.6 17.75 409.231 17.0256C408.869 16.3011 408.35 15.7294 407.676 15.3104C407.008 14.8913 406.22 14.6818 405.311 14.6818C404.309 14.6818 403.443 14.9304 402.711 15.4276C401.987 15.9176 401.429 16.5568 401.039 17.3452C400.648 18.1335 400.453 18.9787 400.453 19.8807V21.3295C400.453 22.5653 400.666 23.6129 401.092 24.4723C401.525 25.3246 402.125 25.9744 402.892 26.4219C403.659 26.8622 404.551 27.0824 405.566 27.0824C406.227 27.0824 406.823 26.9901 407.356 26.8054C407.896 26.6136 408.361 26.3295 408.752 25.9531C409.142 25.5696 409.444 25.0937 409.657 24.5256L412.086 25.2074C411.83 26.0312 411.401 26.7557 410.797 27.3807C410.193 27.9986 409.448 28.4815 408.56 28.8295C407.672 29.1705 406.674 29.3409 405.566 29.3409ZM427.757 16.3011L425.499 16.9403C425.357 16.5639 425.147 16.1982 424.87 15.843C424.6 15.4808 424.231 15.1825 423.762 14.9482C423.294 14.7138 422.693 14.5966 421.962 14.5966C420.96 14.5966 420.126 14.8274 419.458 15.2891C418.798 15.7436 418.468 16.3224 418.468 17.0256C418.468 17.6506 418.695 18.1442 419.149 18.5064C419.604 18.8686 420.314 19.1705 421.28 19.4119L423.709 20.0085C425.172 20.3636 426.262 20.907 426.98 21.6385C427.697 22.3629 428.056 23.2969 428.056 24.4403C428.056 25.3778 427.786 26.2159 427.246 26.9545C426.713 27.6932 425.968 28.2756 425.009 28.7017C424.05 29.1278 422.935 29.3409 421.664 29.3409C419.994 29.3409 418.613 28.9787 417.519 28.2543C416.426 27.5298 415.733 26.4716 415.442 25.0795L417.828 24.483C418.056 25.3636 418.485 26.0241 419.117 26.4645C419.757 26.9048 420.591 27.125 421.621 27.125C422.793 27.125 423.723 26.8764 424.412 26.3793C425.108 25.875 425.456 25.2713 425.456 24.5682C425.456 24 425.257 23.5241 424.86 23.1406C424.462 22.75 423.851 22.4588 423.027 22.267L420.3 21.6278C418.801 21.2727 417.7 20.7223 416.997 19.9766C416.301 19.2237 415.953 18.2827 415.953 17.1534C415.953 16.2301 416.213 15.4134 416.731 14.7031C417.257 13.9929 417.97 13.4354 418.872 13.0305C419.781 12.6257 420.811 12.4233 421.962 12.4233C423.581 12.4233 424.852 12.7784 425.776 13.4886C426.706 14.1989 427.367 15.1364 427.757 16.3011ZM433.673 29.1705C433.147 29.1705 432.696 28.9822 432.32 28.6058C431.943 28.2294 431.755 27.7784 431.755 27.2528C431.755 26.7273 431.943 26.2763 432.32 25.8999C432.696 25.5234 433.147 25.3352 433.673 25.3352C434.198 25.3352 434.649 25.5234 435.026 25.8999C435.402 26.2763 435.59 26.7273 435.59 27.2528C435.59 27.6009 435.501 27.9205 435.324 28.2116C435.153 28.5028 434.923 28.7372 434.631 28.9148C434.347 29.0852 434.028 29.1705 433.673 29.1705ZM433.673 17.0256C433.147 17.0256 432.696 16.8374 432.32 16.4609C431.943 16.0845 431.755 15.6335 431.755 15.108C431.755 14.5824 431.943 14.1314 432.32 13.755C432.696 13.3786 433.147 13.1903 433.673 13.1903C434.198 13.1903 434.649 13.3786 435.026 13.755C435.402 14.1314 435.59 14.5824 435.59 15.108C435.59 15.456 435.501 15.7756 435.324 16.0668C435.153 16.358 434.923 16.5923 434.631 16.7699C434.347 16.9403 434.028 17.0256 433.673 17.0256Z" fill="white"/>
<path d="M492.956 7.18182V29H490.314V9.9517H490.186L484.86 13.4886V10.804L490.314 7.18182H492.956Z" fill="#727272"/>
<path d="M490.5 192.298C488.895 192.298 487.528 191.862 486.398 190.988C485.269 190.107 484.406 188.832 483.81 187.163C483.213 185.487 482.915 183.463 482.915 181.091C482.915 178.733 483.213 176.719 483.81 175.05C484.413 173.374 485.28 172.096 486.409 171.215C487.545 170.327 488.909 169.884 490.5 169.884C492.091 169.884 493.451 170.327 494.58 171.215C495.717 172.096 496.583 173.374 497.18 175.05C497.783 176.719 498.085 178.733 498.085 181.091C498.085 183.463 497.787 185.487 497.19 187.163C496.594 188.832 495.731 190.107 494.602 190.988C493.472 191.862 492.105 192.298 490.5 192.298ZM490.5 189.955C492.091 189.955 493.327 189.187 494.207 187.653C495.088 186.119 495.528 183.932 495.528 181.091C495.528 179.202 495.326 177.593 494.921 176.265C494.523 174.937 493.948 173.925 493.195 173.229C492.45 172.533 491.551 172.185 490.5 172.185C488.923 172.185 487.691 172.962 486.803 174.518C485.915 176.066 485.472 178.257 485.472 181.091C485.472 182.98 485.67 184.585 486.068 185.906C486.466 187.227 487.038 188.232 487.783 188.921C488.536 189.61 489.442 189.955 490.5 189.955Z" fill="#727272"/>
<path d="M885.845 242V220.182H888.487V239.656H898.629V242H885.845ZM909.027 242.341C907.55 242.341 906.254 241.989 905.138 241.286C904.031 240.583 903.164 239.599 902.539 238.335C901.921 237.071 901.612 235.594 901.612 233.903C901.612 232.199 901.921 230.711 902.539 229.44C903.164 228.168 904.031 227.181 905.138 226.478C906.254 225.775 907.55 225.423 909.027 225.423C910.504 225.423 911.797 225.775 912.905 226.478C914.02 227.181 914.886 228.168 915.504 229.44C916.129 230.711 916.442 232.199 916.442 233.903C916.442 235.594 916.129 237.071 915.504 238.335C914.886 239.599 914.02 240.583 912.905 241.286C911.797 241.989 910.504 242.341 909.027 242.341ZM909.027 240.082C910.149 240.082 911.072 239.795 911.797 239.219C912.521 238.644 913.058 237.888 913.406 236.95C913.754 236.013 913.928 234.997 913.928 233.903C913.928 232.81 913.754 231.79 913.406 230.846C913.058 229.901 912.521 229.138 911.797 228.555C911.072 227.973 910.149 227.682 909.027 227.682C907.905 227.682 906.982 227.973 906.257 228.555C905.533 229.138 904.996 229.901 904.648 230.846C904.3 231.79 904.126 232.81 904.126 233.903C904.126 234.997 904.3 236.013 904.648 236.95C904.996 237.888 905.533 238.644 906.257 239.219C906.982 239.795 907.905 240.082 909.027 240.082ZM923.43 242L918.445 225.636H921.087L924.624 238.165H924.794L928.288 225.636H930.973L934.425 238.122H934.595L938.132 225.636H940.774L935.788 242H933.317L929.737 229.429H929.482L925.902 242H923.43Z" fill="#727272"/>
<path d="M1089.98 242V220.182H1092.62V229.898H1104.25V220.182H1106.89V242H1104.25V232.241H1092.62V242H1089.98ZM1111.84 242V225.636H1114.36V242H1111.84ZM1113.12 222.909C1112.63 222.909 1112.21 222.742 1111.85 222.408C1111.5 222.075 1111.33 221.673 1111.33 221.205C1111.33 220.736 1111.5 220.335 1111.85 220.001C1112.21 219.667 1112.63 219.5 1113.12 219.5C1113.61 219.5 1114.03 219.667 1114.38 220.001C1114.73 220.335 1114.91 220.736 1114.91 221.205C1114.91 221.673 1114.73 222.075 1114.38 222.408C1114.03 222.742 1113.61 222.909 1113.12 222.909ZM1125.57 248.477C1124.35 248.477 1123.31 248.321 1122.43 248.009C1121.56 247.703 1120.83 247.298 1120.25 246.794C1119.68 246.297 1119.22 245.764 1118.88 245.196L1120.88 243.79C1121.11 244.088 1121.39 244.429 1121.74 244.812C1122.09 245.203 1122.57 245.54 1123.17 245.825C1123.78 246.116 1124.58 246.261 1125.57 246.261C1126.89 246.261 1127.98 245.942 1128.84 245.303C1129.7 244.663 1130.13 243.662 1130.13 242.298V238.974H1129.91C1129.73 239.273 1129.47 239.642 1129.12 240.082C1128.79 240.516 1128.31 240.903 1127.68 241.244C1127.05 241.577 1126.21 241.744 1125.14 241.744C1123.82 241.744 1122.63 241.432 1121.58 240.807C1120.54 240.182 1119.71 239.273 1119.1 238.08C1118.5 236.886 1118.19 235.437 1118.19 233.733C1118.19 232.057 1118.49 230.597 1119.08 229.354C1119.67 228.104 1120.49 227.138 1121.54 226.457C1122.59 225.768 1123.81 225.423 1125.18 225.423C1126.25 225.423 1127.09 225.601 1127.72 225.956C1128.35 226.304 1128.83 226.702 1129.17 227.149C1129.51 227.589 1129.77 227.952 1129.96 228.236H1130.21V225.636H1132.64V242.469C1132.64 243.875 1132.32 245.018 1131.68 245.899C1131.05 246.787 1130.2 247.437 1129.12 247.849C1128.06 248.268 1126.87 248.477 1125.57 248.477ZM1125.48 239.486C1126.49 239.486 1127.34 239.255 1128.04 238.793C1128.73 238.332 1129.26 237.668 1129.63 236.801C1129.99 235.935 1130.17 234.898 1130.17 233.69C1130.17 232.511 1129.99 231.471 1129.64 230.569C1129.28 229.667 1128.76 228.96 1128.06 228.449C1127.36 227.937 1126.5 227.682 1125.48 227.682C1124.42 227.682 1123.53 227.952 1122.82 228.491C1122.11 229.031 1121.59 229.756 1121.23 230.665C1120.88 231.574 1120.71 232.582 1120.71 233.69C1120.71 234.827 1120.89 235.832 1121.24 236.705C1121.6 237.572 1122.14 238.254 1122.84 238.751C1123.55 239.241 1124.43 239.486 1125.48 239.486ZM1139.76 232.156V242H1137.24V220.182H1139.76V228.193H1139.97C1140.35 227.348 1140.93 226.677 1141.7 226.18C1142.47 225.675 1143.5 225.423 1144.79 225.423C1145.9 225.423 1146.88 225.647 1147.71 226.094C1148.55 226.535 1149.2 227.213 1149.66 228.129C1150.13 229.038 1150.37 230.196 1150.37 231.602V242H1147.85V231.773C1147.85 230.473 1147.52 229.468 1146.84 228.758C1146.17 228.04 1145.25 227.682 1144.06 227.682C1143.24 227.682 1142.5 227.856 1141.84 228.204C1141.2 228.552 1140.69 229.06 1140.31 229.727C1139.94 230.395 1139.76 231.205 1139.76 232.156Z" fill="#727272"/>
<path d="M587.676 29V27.0824L594.878 19.1989C595.723 18.2756 596.419 17.473 596.966 16.7912C597.513 16.1023 597.918 15.456 598.181 14.8523C598.451 14.2415 598.586 13.6023 598.586 12.9347C598.586 12.1676 598.401 11.5036 598.032 10.9425C597.669 10.3814 597.172 9.94815 596.54 9.64276C595.908 9.33736 595.198 9.18466 594.409 9.18466C593.571 9.18466 592.84 9.35866 592.215 9.70668C591.597 10.0476 591.118 10.527 590.777 11.1449C590.443 11.7628 590.276 12.4872 590.276 13.3182H587.762C587.762 12.0398 588.056 10.9176 588.646 9.9517C589.235 8.98579 590.038 8.23295 591.054 7.69318C592.076 7.15341 593.223 6.88352 594.495 6.88352C595.773 6.88352 596.906 7.15341 597.893 7.69318C598.88 8.23295 599.654 8.96094 600.216 9.87713C600.777 10.7933 601.057 11.8125 601.057 12.9347C601.057 13.7372 600.912 14.522 600.62 15.2891C600.336 16.049 599.839 16.8977 599.129 17.8352C598.426 18.7656 597.449 19.902 596.199 21.2443L591.299 26.4858V26.6562H601.441V29H587.676Z" fill="#727272"/>
<path d="M597.956 170.182V192H595.314V172.952H595.186L589.86 176.489V173.804L595.314 170.182H597.956Z" fill="#727272"/>
<path d="M700.58 29.2983C699.174 29.2983 697.92 29.0568 696.819 28.5739C695.725 28.0909 694.855 27.4197 694.209 26.5604C693.57 25.6939 693.222 24.6889 693.165 23.5455H695.85C695.907 24.2486 696.148 24.8558 696.574 25.3672C697 25.8714 697.558 26.2621 698.247 26.5391C698.936 26.8161 699.699 26.9545 700.537 26.9545C701.475 26.9545 702.306 26.7912 703.03 26.4645C703.755 26.1378 704.323 25.6832 704.735 25.1009C705.147 24.5185 705.353 23.8438 705.353 23.0767C705.353 22.2741 705.154 21.5675 704.756 20.9567C704.358 20.3388 703.776 19.8558 703.009 19.5078C702.242 19.1598 701.304 18.9858 700.196 18.9858H698.449V16.642H700.196C701.063 16.642 701.823 16.4858 702.476 16.1733C703.137 15.8608 703.652 15.4205 704.021 14.8523C704.397 14.2841 704.586 13.6165 704.586 12.8494C704.586 12.1108 704.422 11.468 704.096 10.9212C703.769 10.3743 703.307 9.94815 702.711 9.64276C702.121 9.33736 701.425 9.18466 700.623 9.18466C699.87 9.18466 699.159 9.32315 698.492 9.60014C697.831 9.87003 697.292 10.2642 696.873 10.7827C696.453 11.294 696.226 11.9119 696.191 12.6364H693.634C693.676 11.4929 694.021 10.4915 694.667 9.6321C695.314 8.76562 696.159 8.09091 697.203 7.60795C698.254 7.125 699.408 6.88352 700.665 6.88352C702.015 6.88352 703.172 7.15696 704.138 7.70383C705.104 8.24361 705.846 8.95739 706.365 9.84517C706.883 10.733 707.142 11.6918 707.142 12.7216C707.142 13.9503 706.819 14.9979 706.173 15.8643C705.534 16.7308 704.664 17.331 703.563 17.6648V17.8352C704.941 18.0625 706.017 18.6484 706.791 19.593C707.565 20.5305 707.952 21.6918 707.952 23.0767C707.952 24.2628 707.629 25.3281 706.983 26.2727C706.343 27.2102 705.47 27.9489 704.362 28.4886C703.254 29.0284 701.993 29.2983 700.58 29.2983Z" fill="#727272"/>
<path d="M796.623 24.5256V22.3523L806.211 7.18182H807.788V10.5483H806.723L799.478 22.0114V22.1818H812.39V24.5256H796.623ZM806.893 29V23.8651V22.853V7.18182H809.407V29H806.893Z" fill="#727272"/>
<path d="M693.676 192V190.082L700.878 182.199C701.723 181.276 702.419 180.473 702.966 179.791C703.513 179.102 703.918 178.456 704.181 177.852C704.451 177.241 704.586 176.602 704.586 175.935C704.586 175.168 704.401 174.504 704.032 173.942C703.669 173.381 703.172 172.948 702.54 172.643C701.908 172.337 701.198 172.185 700.409 172.185C699.571 172.185 698.84 172.359 698.215 172.707C697.597 173.048 697.118 173.527 696.777 174.145C696.443 174.763 696.276 175.487 696.276 176.318H693.762C693.762 175.04 694.056 173.918 694.646 172.952C695.235 171.986 696.038 171.233 697.054 170.693C698.076 170.153 699.223 169.884 700.495 169.884C701.773 169.884 702.906 170.153 703.893 170.693C704.88 171.233 705.654 171.961 706.216 172.877C706.777 173.793 707.057 174.812 707.057 175.935C707.057 176.737 706.912 177.522 706.62 178.289C706.336 179.049 705.839 179.898 705.129 180.835C704.426 181.766 703.449 182.902 702.199 184.244L697.299 189.486V189.656H707.441V192H693.676Z" fill="#727272"/>
<path d="M912.451 29.2983C911.201 29.2983 910.075 29.0497 909.074 28.5526C908.072 28.0554 907.27 27.3736 906.666 26.5071C906.062 25.6406 905.732 24.6534 905.675 23.5455H908.232C908.331 24.5327 908.779 25.3494 909.574 25.9957C910.377 26.6349 911.336 26.9545 912.451 26.9545C913.346 26.9545 914.141 26.745 914.837 26.326C915.54 25.907 916.091 25.3317 916.488 24.6001C916.893 23.8615 917.096 23.027 917.096 22.0966C917.096 21.1449 916.886 20.2962 916.467 19.5504C916.055 18.7976 915.487 18.2045 914.763 17.7713C914.038 17.3381 913.211 17.1179 912.28 17.1108C911.613 17.1037 910.927 17.2067 910.224 17.4197C909.521 17.6257 908.942 17.892 908.488 18.2188L906.016 17.9205L907.337 7.18182H918.672V9.52557H909.553L908.786 15.9602H908.914C909.361 15.6051 909.922 15.3104 910.597 15.076C911.272 14.8416 911.975 14.7244 912.706 14.7244C914.042 14.7244 915.231 15.044 916.275 15.6832C917.326 16.3153 918.15 17.1818 918.747 18.2827C919.351 19.3835 919.652 20.6406 919.652 22.054C919.652 23.446 919.34 24.6889 918.715 25.7827C918.097 26.8693 917.245 27.7287 916.158 28.3608C915.071 28.9858 913.836 29.2983 912.451 29.2983Z" fill="white"/>
<path d="M1114.37 29L1124.13 9.69602V9.52557H1112.88V7.18182H1126.86V9.65341L1117.14 29H1114.37Z" fill="white"/>
<path d="M805.08 192.298C803.674 192.298 802.42 192.057 801.319 191.574C800.225 191.091 799.355 190.42 798.709 189.56C798.07 188.694 797.722 187.689 797.665 186.545H800.35C800.407 187.249 800.648 187.856 801.074 188.367C801.5 188.871 802.058 189.262 802.747 189.539C803.436 189.816 804.199 189.955 805.037 189.955C805.975 189.955 806.806 189.791 807.53 189.464C808.255 189.138 808.823 188.683 809.235 188.101C809.647 187.518 809.853 186.844 809.853 186.077C809.853 185.274 809.654 184.567 809.256 183.957C808.858 183.339 808.276 182.856 807.509 182.508C806.742 182.16 805.804 181.986 804.696 181.986H802.949V179.642H804.696C805.563 179.642 806.323 179.486 806.976 179.173C807.637 178.861 808.152 178.42 808.521 177.852C808.897 177.284 809.086 176.616 809.086 175.849C809.086 175.111 808.922 174.468 808.596 173.921C808.269 173.374 807.807 172.948 807.211 172.643C806.621 172.337 805.925 172.185 805.123 172.185C804.37 172.185 803.659 172.323 802.992 172.6C802.331 172.87 801.792 173.264 801.373 173.783C800.953 174.294 800.726 174.912 800.691 175.636H798.134C798.176 174.493 798.521 173.491 799.167 172.632C799.814 171.766 800.659 171.091 801.703 170.608C802.754 170.125 803.908 169.884 805.165 169.884C806.515 169.884 807.672 170.157 808.638 170.704C809.604 171.244 810.346 171.957 810.865 172.845C811.383 173.733 811.642 174.692 811.642 175.722C811.642 176.95 811.319 177.998 810.673 178.864C810.034 179.731 809.164 180.331 808.063 180.665V180.835C809.441 181.062 810.517 181.648 811.291 182.593C812.065 183.531 812.452 184.692 812.452 186.077C812.452 187.263 812.129 188.328 811.483 189.273C810.843 190.21 809.97 190.949 808.862 191.489C807.754 192.028 806.493 192.298 805.08 192.298Z" fill="#727272"/>
<path d="M902.123 187.526V185.352L911.711 170.182H913.288V173.548H912.223L904.978 185.011V185.182H917.89V187.526H902.123ZM912.393 192V186.865V185.853V170.182H914.907V192H912.393Z" fill="#727272"/>
<path d="M1120.45 192.298C1119.2 192.298 1118.08 192.05 1117.07 191.553C1116.07 191.055 1115.27 190.374 1114.67 189.507C1114.06 188.641 1113.73 187.653 1113.68 186.545H1116.23C1116.33 187.533 1116.78 188.349 1117.57 188.996C1118.38 189.635 1119.34 189.955 1120.45 189.955C1121.35 189.955 1122.14 189.745 1122.84 189.326C1123.54 188.907 1124.09 188.332 1124.49 187.6C1124.89 186.862 1125.1 186.027 1125.1 185.097C1125.1 184.145 1124.89 183.296 1124.47 182.55C1124.06 181.798 1123.49 181.205 1122.76 180.771C1122.04 180.338 1121.21 180.118 1120.28 180.111C1119.61 180.104 1118.93 180.207 1118.22 180.42C1117.52 180.626 1116.94 180.892 1116.49 181.219L1114.02 180.92L1115.34 170.182H1126.67V172.526H1117.55L1116.79 178.96H1116.91C1117.36 178.605 1117.92 178.31 1118.6 178.076C1119.27 177.842 1119.97 177.724 1120.71 177.724C1122.04 177.724 1123.23 178.044 1124.28 178.683C1125.33 179.315 1126.15 180.182 1126.75 181.283C1127.35 182.384 1127.65 183.641 1127.65 185.054C1127.65 186.446 1127.34 187.689 1126.71 188.783C1126.1 189.869 1125.24 190.729 1124.16 191.361C1123.07 191.986 1121.84 192.298 1120.45 192.298Z" fill="#727272"/>
<path d="M7.18038 155.32C6.36971 155.32 5.61238 155.107 4.90838 154.68C4.22571 154.232 3.67104 153.549 3.24438 152.632C2.83904 151.693 2.63638 150.477 2.63638 148.984C2.63638 147.448 2.87104 145.997 3.34038 144.632C3.83104 143.267 4.50304 142.072 5.35638 141.048C6.20971 140.003 7.21238 139.181 8.36438 138.584C9.53771 137.987 10.7964 137.688 12.1404 137.688C12.9724 137.688 13.8364 137.827 14.7324 138.104C15.6284 138.381 16.535 138.829 17.4524 139.448L16.0764 139.224L16.7804 138.04H18.5084L15.9484 154.2L14.8604 152.184L18.5724 153.208L18.2844 154.968L13.0044 155.128L14.0284 149.048L14.9564 147.48C14.5084 149.229 13.847 150.691 12.9724 151.864C12.0977 153.016 11.1484 153.88 10.1244 154.456C9.10038 155.032 8.11904 155.32 7.18038 155.32ZM8.39638 152.76C8.92971 152.76 9.49504 152.6 10.0924 152.28C10.711 151.939 11.2977 151.437 11.8524 150.776C12.407 150.093 12.8977 149.251 13.3244 148.248C13.7724 147.245 14.103 146.072 14.3164 144.728L15.0204 140.248L15.5644 141.336C14.9457 140.909 14.3484 140.6 13.7724 140.408C13.1964 140.216 12.631 140.12 12.0764 140.12C11.159 140.12 10.3164 140.355 9.54838 140.824C8.80171 141.293 8.15104 141.923 7.59638 142.712C7.04171 143.501 6.60438 144.408 6.28438 145.432C5.98571 146.456 5.83638 147.523 5.83638 148.632C5.83638 150.061 6.08171 151.107 6.57238 151.768C7.06304 152.429 7.67104 152.76 8.39638 152.76ZM22.0576 155L24.6176 138.904L25.7056 140.856L22.0256 139.832L22.2816 138.136L27.7216 137.912L26.5376 143.928L25.5776 145.56C26.0043 143.896 26.6336 142.477 27.4656 141.304C28.319 140.131 29.2576 139.245 30.2816 138.648C31.327 138.029 32.351 137.72 33.3536 137.72C33.8656 137.72 34.303 137.795 34.6656 137.944L33.8016 142.968H31.8496L31.8816 139.864L32.2976 140.216C31.7003 140.173 31.0923 140.323 30.4736 140.664C29.855 140.984 29.2576 141.485 28.6816 142.168C28.127 142.851 27.6363 143.693 27.2096 144.696C26.783 145.699 26.463 146.851 26.2496 148.152L25.1936 155H22.0576ZM35.5264 155L38.0864 138.904L39.1744 140.856L35.4944 139.832L35.7504 138.136L41.1904 137.912L40.0064 143.928L39.0464 145.56C39.473 143.896 40.1024 142.477 40.9344 141.304C41.7877 140.131 42.7264 139.245 43.7504 138.648C44.7957 138.029 45.8197 137.72 46.8224 137.72C47.3344 137.72 47.7717 137.795 48.1344 137.944L47.2704 142.968H45.3184L45.3504 139.864L45.7664 140.216C45.169 140.173 44.561 140.323 43.9424 140.664C43.3237 140.984 42.7264 141.485 42.1504 142.168C41.5957 142.851 41.105 143.693 40.6784 144.696C40.2517 145.699 39.9317 146.851 39.7184 148.152L38.6624 155H35.5264ZM47.6229 158.36L52.4869 127.704L59.5269 127.864L59.2389 129.88L54.7909 130.04L50.6949 155.992L55.0789 156.184L54.7269 158.2L47.6229 158.36ZM69.5996 155.128L71.3916 144.12C71.5196 143.288 71.5196 142.584 71.3916 142.008C71.285 141.432 71.061 140.995 70.7196 140.696C70.3996 140.397 69.973 140.248 69.4396 140.248C68.9063 140.248 68.341 140.408 67.7436 140.728C67.1463 141.048 66.5596 141.528 65.9836 142.168C65.429 142.808 64.9383 143.629 64.5116 144.632C64.085 145.635 63.7543 146.808 63.5196 148.152L62.4636 155H59.3276L62.9436 132.216L63.3596 132.824L60.5116 132.216L60.7996 130.456L66.3676 130.232L63.9996 143.928L62.8476 145.56C63.3596 143.683 64.053 142.168 64.9276 141.016C65.8236 139.864 66.7836 139.032 67.8076 138.52C68.8316 137.987 69.813 137.72 70.7516 137.72C71.669 137.72 72.4476 137.944 73.0876 138.392C73.7276 138.84 74.1863 139.491 74.4636 140.344C74.7623 141.197 74.805 142.232 74.5916 143.448L73.0556 153.176L71.7436 152.184L75.4876 153.208L75.1996 154.968L69.5996 155.128ZM78.7756 155.128L81.3676 138.904L82.4876 140.856L78.7756 139.832L79.0316 138.136L84.6316 137.912L82.0716 154.168L80.9836 152.216L84.6636 153.272L84.3756 154.968L78.7756 155.128ZM83.6396 134.808C83.085 134.808 82.6476 134.637 82.3276 134.296C82.0076 133.955 81.8476 133.507 81.8476 132.952C81.8476 132.269 82.0503 131.715 82.4556 131.288C82.8823 130.861 83.4156 130.648 84.0556 130.648C84.6103 130.648 85.0476 130.808 85.3676 131.128C85.6876 131.448 85.8476 131.907 85.8476 132.504C85.8476 133.165 85.6343 133.72 85.2076 134.168C84.8023 134.595 84.2796 134.808 83.6396 134.808ZM92.4386 162.68C91.5 162.68 90.54 162.584 89.5586 162.392C88.5773 162.2 87.6173 161.944 86.6786 161.624L87.3506 159.352C88.2466 159.651 89.1213 159.885 89.9746 160.056C90.8493 160.227 91.6386 160.312 92.3426 160.312C93.3026 160.312 94.1026 160.173 94.7426 159.896C95.404 159.64 95.9373 159.277 96.3426 158.808C96.7693 158.339 97.1 157.795 97.3346 157.176C97.5906 156.557 97.772 155.907 97.8786 155.224L98.8386 149.016L99.8626 147.48C99.4146 149.229 98.7533 150.691 97.8786 151.864C97.0253 153.016 96.076 153.88 95.0306 154.456C94.0066 155.032 93.0253 155.32 92.0866 155.32C91.276 155.32 90.5186 155.107 89.8146 154.68C89.132 154.232 88.5773 153.549 88.1506 152.632C87.7453 151.693 87.5426 150.477 87.5426 148.984C87.5426 147.448 87.7773 145.997 88.2466 144.632C88.7373 143.267 89.4093 142.072 90.2626 141.048C91.116 140.003 92.1186 139.192 93.2706 138.616C94.444 138.019 95.7026 137.72 97.0466 137.72C97.8786 137.72 98.7426 137.859 99.6386 138.136C100.535 138.392 101.441 138.829 102.359 139.448L101.015 139.16L101.687 138.04H103.415L100.727 155.16C100.492 156.568 100.119 157.752 99.6066 158.712C99.116 159.672 98.4973 160.44 97.7506 161.016C97.0253 161.613 96.204 162.04 95.2866 162.296C94.3906 162.552 93.4413 162.68 92.4386 162.68ZM93.3026 152.76C93.836 152.76 94.4013 152.6 94.9986 152.28C95.596 151.939 96.172 151.437 96.7266 150.776C97.3026 150.093 97.804 149.251 98.2306 148.248C98.6573 147.245 98.988 146.072 99.2226 144.728L99.9266 140.248L100.471 141.336C99.852 140.909 99.2546 140.6 98.6786 140.408C98.1026 140.216 97.5373 140.12 96.9826 140.12C96.0653 140.12 95.2226 140.355 94.4546 140.824C93.708 141.293 93.0573 141.923 92.5026 142.712C91.948 143.501 91.5106 144.408 91.1906 145.432C90.892 146.456 90.7426 147.523 90.7426 148.632C90.7426 150.061 90.988 151.107 91.4786 151.768C91.9693 152.429 92.5773 152.76 93.3026 152.76ZM116.318 155.128L118.11 144.12C118.238 143.288 118.238 142.584 118.11 142.008C118.004 141.432 117.78 140.995 117.438 140.696C117.118 140.397 116.692 140.248 116.158 140.248C115.625 140.248 115.06 140.408 114.462 140.728C113.865 141.048 113.278 141.528 112.702 142.168C112.148 142.808 111.657 143.629 111.23 144.632C110.804 145.635 110.473 146.808 110.238 148.152L109.182 155H106.046L109.662 132.216L110.078 132.824L107.23 132.216L107.518 130.456L113.086 130.232L110.718 143.928L109.566 145.56C110.078 143.683 110.772 142.168 111.646 141.016C112.542 139.864 113.502 139.032 114.526 138.52C115.55 137.987 116.532 137.72 117.47 137.72C118.388 137.72 119.166 137.944 119.806 138.392C120.446 138.84 120.905 139.491 121.182 140.344C121.481 141.197 121.524 142.232 121.31 143.448L119.774 153.176L118.462 152.184L122.206 153.208L121.918 154.968L116.318 155.128ZM134.774 127.704L129.91 158.36L122.838 158.2L123.158 156.184L127.574 155.992L131.702 130.04L127.318 129.88L127.638 127.864L134.774 127.704ZM151.627 144.376L151.243 146.872H142.155L142.539 144.376H151.627ZM164.93 155.32C164.12 155.32 163.362 155.107 162.658 154.68C161.976 154.232 161.421 153.549 160.994 152.632C160.589 151.693 160.386 150.477 160.386 148.984C160.386 147.448 160.621 145.997 161.09 144.632C161.581 143.267 162.253 142.072 163.106 141.048C163.96 140.003 164.962 139.181 166.114 138.584C167.288 137.987 168.546 137.688 169.89 137.688C170.722 137.688 171.586 137.827 172.482 138.104C173.378 138.381 174.285 138.829 175.202 139.448L173.826 139.224L174.53 138.04H176.258L173.698 154.2L172.61 152.184L176.322 153.208L176.034 154.968L170.754 155.128L171.778 149.048L172.706 147.48C172.258 149.229 171.597 150.691 170.722 151.864C169.848 153.016 168.898 153.88 167.874 154.456C166.85 155.032 165.869 155.32 164.93 155.32ZM166.146 152.76C166.68 152.76 167.245 152.6 167.842 152.28C168.461 151.939 169.048 151.437 169.602 150.776C170.157 150.093 170.648 149.251 171.074 148.248C171.522 147.245 171.853 146.072 172.066 144.728L172.77 140.248L173.314 141.336C172.696 140.909 172.098 140.6 171.522 140.408C170.946 140.216 170.381 140.12 169.826 140.12C168.909 140.12 168.066 140.355 167.298 140.824C166.552 141.293 165.901 141.923 165.346 142.712C164.792 143.501 164.354 144.408 164.034 145.432C163.736 146.456 163.586 147.523 163.586 148.632C163.586 150.061 163.832 151.107 164.322 151.768C164.813 152.429 165.421 152.76 166.146 152.76ZM179.808 155L182.368 138.904L183.456 140.856L179.776 139.832L180.032 138.136L185.472 137.912L184.288 143.928L183.328 145.56C183.754 143.896 184.384 142.477 185.216 141.304C186.069 140.131 187.008 139.245 188.032 138.648C189.077 138.029 190.101 137.72 191.104 137.72C191.616 137.72 192.053 137.795 192.416 137.944L191.552 142.968H189.6L189.632 139.864L190.048 140.216C189.45 140.173 188.842 140.323 188.224 140.664C187.605 140.984 187.008 141.485 186.432 142.168C185.877 142.851 185.386 143.693 184.96 144.696C184.533 145.699 184.213 146.851 184 148.152L182.944 155H179.808ZM193.276 155L195.836 138.904L196.924 140.856L193.244 139.832L193.5 138.136L198.94 137.912L197.756 143.928L196.796 145.56C197.223 143.896 197.852 142.477 198.684 141.304C199.538 140.131 200.476 139.245 201.5 138.648C202.546 138.029 203.57 137.72 204.572 137.72C205.084 137.72 205.522 137.795 205.884 137.944L205.02 142.968H203.068L203.1 139.864L203.516 140.216C202.919 140.173 202.311 140.323 201.692 140.664C201.074 140.984 200.476 141.485 199.9 142.168C199.346 142.851 198.855 143.693 198.428 144.696C198.002 145.699 197.682 146.851 197.468 148.152L196.412 155H193.276ZM205.373 158.36L210.237 127.704L217.277 127.864L216.989 129.88L212.541 130.04L208.445 155.992L212.829 156.184L212.477 158.2L205.373 158.36ZM217.046 155.128L220.822 131.224L221.942 133.144L218.262 132.216L218.518 130.456L224.118 130.232L220.342 154.136L219.19 152.184L222.934 153.208L222.646 154.968L217.046 155.128ZM234.976 137.72C236.235 137.72 237.333 137.965 238.272 138.456C239.211 138.925 239.947 139.672 240.48 140.696C241.013 141.72 241.28 143.053 241.28 144.696C241.28 146.019 241.088 147.32 240.704 148.6C240.341 149.859 239.787 151 239.04 152.024C238.293 153.027 237.344 153.827 236.192 154.424C235.061 155.021 233.739 155.32 232.224 155.32C230.987 155.32 229.888 155.085 228.928 154.616C227.989 154.125 227.253 153.368 226.72 152.344C226.208 151.299 225.952 149.955 225.952 148.312C225.952 146.989 226.133 145.699 226.496 144.44C226.88 143.181 227.445 142.051 228.192 141.048C228.939 140.024 229.877 139.213 231.008 138.616C232.139 138.019 233.461 137.72 234.976 137.72ZM234.656 140.056C233.696 140.056 232.864 140.323 232.16 140.856C231.477 141.389 230.912 142.083 230.464 142.936C230.016 143.768 229.685 144.675 229.472 145.656C229.259 146.616 229.152 147.523 229.152 148.376C229.152 149.827 229.429 150.957 229.984 151.768C230.56 152.579 231.424 152.984 232.576 152.984C233.515 152.984 234.325 152.717 235.008 152.184C235.712 151.651 236.288 150.968 236.736 150.136C237.184 149.283 237.515 148.376 237.728 147.416C237.963 146.435 238.08 145.507 238.08 144.632C238.08 143.181 237.803 142.061 237.248 141.272C236.693 140.461 235.829 140.056 234.656 140.056ZM246.087 155.064L244.359 139.928L244.743 140.248L242.695 139.864L242.951 138.136L247.239 137.912L248.391 153.208H247.943L254.215 138.104L257.543 137.944L258.855 153.176H258.503L264.103 139.896L264.263 140.344L262.055 139.864L262.311 138.136L268.295 137.912L268.071 139.608L266.247 140.152L266.759 139.768L259.943 155.064H256.551L254.951 140.376L255.815 140.44L249.479 155.064H246.087ZM278.056 127.704L273.192 158.36L266.12 158.2L266.44 156.184L270.856 155.992L274.984 130.04L270.6 129.88L270.92 127.864L278.056 127.704Z" fill="#009966"/>
<path d="M60.549 60.344C59.0557 62.0933 57.7543 63.992 56.645 66.04C55.5357 68.088 54.6717 70.2213 54.053 72.44C53.4557 74.6587 53.157 76.888 53.157 79.128C53.157 80.9627 53.3703 82.7973 53.797 84.632C54.245 86.4667 54.917 88.216 55.813 89.88L53.733 91C52.5383 89.1653 51.653 87.2027 51.077 85.112C50.501 83.0213 50.213 80.8987 50.213 78.744C50.213 76.2907 50.565 73.88 51.269 71.512C51.973 69.144 52.9543 66.8933 54.213 64.76C55.493 62.6267 56.9863 60.6747 58.693 58.904L60.549 60.344ZM57.7587 87L58.0467 85.304L60.8307 84.792L59.9988 85.24L65.6628 77.912L66.6548 77.784L72.5748 70.136L76.4468 69.912L76.1908 71.608L73.5668 72.152L74.4948 71.672L68.8628 78.552L67.9348 78.68L61.7588 87H57.7587ZM70.0788 87L65.9828 79.032L62.1428 71.704L62.7188 72.28L60.5748 71.864L60.8307 70.136L64.5748 69.848L68.3508 77.272L72.5428 85.24L71.9988 84.728L74.5908 85.304L74.3028 87H70.0788ZM93.3928 76.376L93.0088 78.872H83.9208L84.3048 76.376H93.3928ZM106.696 87.32C105.885 87.32 105.128 87.1067 104.424 86.68C103.741 86.232 103.187 85.5493 102.76 84.632C102.355 83.6933 102.152 82.4773 102.152 80.984C102.152 79.448 102.387 77.9973 102.856 76.632C103.347 75.2667 104.019 74.072 104.872 73.048C105.725 72.0027 106.728 71.1813 107.88 70.584C109.053 69.9867 110.312 69.688 111.656 69.688C112.488 69.688 113.352 69.8267 114.248 70.104C115.144 70.3813 116.051 70.8293 116.968 71.448L115.592 71.224L116.296 70.04H118.024L115.464 86.2L114.376 84.184L118.088 85.208L117.8 86.968L112.52 87.128L113.544 81.048L114.472 79.48C114.024 81.2293 113.363 82.6907 112.488 83.864C111.613 85.016 110.664 85.88 109.64 86.456C108.616 87.032 107.635 87.32 106.696 87.32ZM107.912 84.76C108.445 84.76 109.011 84.6 109.608 84.28C110.227 83.9387 110.813 83.4373 111.368 82.776C111.923 82.0933 112.413 81.2507 112.84 80.248C113.288 79.2453 113.619 78.072 113.832 76.728L114.536 72.248L115.08 73.336C114.461 72.9093 113.864 72.6 113.288 72.408C112.712 72.216 112.147 72.12 111.592 72.12C110.675 72.12 109.832 72.3547 109.064 72.824C108.317 73.2933 107.667 73.9227 107.112 74.712C106.557 75.5013 106.12 76.408 105.8 77.432C105.501 78.456 105.352 79.5227 105.352 80.632C105.352 82.0613 105.597 83.1067 106.088 83.768C106.579 84.4293 107.187 84.76 107.912 84.76ZM121.573 87L124.133 70.904L125.221 72.856L121.541 71.832L121.797 70.136L127.237 69.912L126.053 75.928L125.093 77.56C125.52 75.896 126.149 74.4773 126.981 73.304C127.835 72.1307 128.773 71.2453 129.797 70.648C130.843 70.0293 131.867 69.72 132.869 69.72C133.381 69.72 133.819 69.7947 134.181 69.944L133.317 74.968H131.365L131.397 71.864L131.813 72.216C131.216 72.1733 130.608 72.3227 129.989 72.664C129.371 72.984 128.773 73.4853 128.197 74.168C127.643 74.8507 127.152 75.6933 126.725 76.696C126.299 77.6987 125.979 78.8507 125.765 80.152L124.709 87H121.573ZM135.042 87L137.602 70.904L138.69 72.856L135.01 71.832L135.266 70.136L140.706 69.912L139.522 75.928L138.562 77.56C138.989 75.896 139.618 74.4773 140.45 73.304C141.303 72.1307 142.242 71.2453 143.266 70.648C144.311 70.0293 145.335 69.72 146.338 69.72C146.85 69.72 147.287 69.7947 147.65 69.944L146.786 74.968H144.834L144.866 71.864L145.282 72.216C144.685 72.1733 144.077 72.3227 143.458 72.664C142.839 72.984 142.242 73.4853 141.666 74.168C141.111 74.8507 140.621 75.6933 140.194 76.696C139.767 77.6987 139.447 78.8507 139.234 80.152L138.178 87H135.042ZM147.139 90.36L152.003 59.704L159.043 59.864L158.755 61.88L154.307 62.04L150.211 87.992L154.595 88.184L154.243 90.2L147.139 90.36ZM158.811 87.128L162.587 63.224L163.707 65.144L160.027 64.216L160.283 62.456L165.883 62.232L162.107 86.136L160.955 84.184L164.699 85.208L164.411 86.968L158.811 87.128ZM176.742 69.72C178 69.72 179.099 69.9653 180.038 70.456C180.976 70.9253 181.712 71.672 182.246 72.696C182.779 73.72 183.046 75.0533 183.046 76.696C183.046 78.0187 182.854 79.32 182.47 80.6C182.107 81.8587 181.552 83 180.806 84.024C180.059 85.0267 179.11 85.8267 177.958 86.424C176.827 87.0213 175.504 87.32 173.99 87.32C172.752 87.32 171.654 87.0853 170.694 86.616C169.755 86.1253 169.019 85.368 168.486 84.344C167.974 83.2987 167.718 81.9547 167.718 80.312C167.718 78.9893 167.899 77.6987 168.262 76.44C168.646 75.1813 169.211 74.0507 169.958 73.048C170.704 72.024 171.643 71.2133 172.774 70.616C173.904 70.0187 175.227 69.72 176.742 69.72ZM176.422 72.056C175.462 72.056 174.63 72.3227 173.926 72.856C173.243 73.3893 172.678 74.0827 172.23 74.936C171.782 75.768 171.451 76.6747 171.238 77.656C171.024 78.616 170.918 79.5227 170.918 80.376C170.918 81.8267 171.195 82.9573 171.75 83.768C172.326 84.5787 173.19 84.984 174.342 84.984C175.28 84.984 176.091 84.7173 176.774 84.184C177.478 83.6507 178.054 82.968 178.502 82.136C178.95 81.2827 179.28 80.376 179.494 79.416C179.728 78.4347 179.846 77.5067 179.846 76.632C179.846 75.1813 179.568 74.0613 179.014 73.272C178.459 72.4613 177.595 72.056 176.422 72.056ZM187.853 87.064L186.125 71.928L186.509 72.248L184.461 71.864L184.717 70.136L189.005 69.912L190.157 85.208H189.709L195.981 70.104L199.309 69.944L200.621 85.176H200.269L205.869 71.896L206.029 72.344L203.821 71.864L204.077 70.136L210.061 69.912L209.837 71.608L208.013 72.152L208.525 71.768L201.709 87.064H198.317L196.717 72.376L197.581 72.44L191.245 87.064H187.853ZM219.821 59.704L214.957 90.36L207.885 90.2L208.205 88.184L212.621 87.992L216.749 62.04L212.365 61.88L212.685 59.864L219.821 59.704ZM218.545 89.752C220.039 88.0027 221.34 86.104 222.449 84.056C223.559 82.008 224.412 79.8747 225.009 77.656C225.628 75.4373 225.937 73.208 225.937 70.968C225.937 69.1333 225.724 67.2987 225.297 65.464C224.871 63.6293 224.199 61.88 223.281 60.216L225.361 59.064C226.577 60.92 227.463 62.8933 228.017 64.984C228.593 67.0747 228.881 69.1973 228.881 71.352C228.881 73.784 228.529 76.184 227.825 78.552C227.121 80.92 226.129 83.1707 224.849 85.304C223.591 87.4373 222.108 89.4 220.401 91.192L218.545 89.752Z" fill="#E27C00"/>
<line y1="110" x2="279" y2="110" stroke="white" stroke-width="2"/>
<line x1="490" y1="107" x2="912" y2="107" stroke="#727272" stroke-width="2"/>
<line x1="912" y1="107" x2="1120" y2="107" stroke="white" stroke-width="2"/>
<line x1="1121" y1="74" x2="1121" y2="141" stroke="white" stroke-width="2"/>
<line x1="491" y1="74" x2="491" y2="141" stroke="#727272" stroke-width="2"/>
<line x1="596" y1="89" x2="596" y2="127" stroke="#727272" stroke-width="2"/>
<line x1="701" y1="89" x2="701" y2="127" stroke="#727272" stroke-width="2"/>
<line x1="806" y1="89" x2="806" y2="127" stroke="#727272" stroke-width="2"/>
<line x1="911" y1="89" x2="911" y2="127" stroke="white" stroke-width="2"/>
<line x1="912" y1="65" x2="1120" y2="65" stroke="#009966" stroke-width="2"/>
</svg>
