<svg width="587" height="294" viewBox="0 0 587 294" fill="none" xmlns="http://www.w3.org/2000/svg">
<path d="M0.55175 71.36L0.80775 69.664L4.77575 68.64L3.14375 70.368L6.53575 48.896L6.98375 49.504L4.10375 48.832L4.35975 47.136L9.83175 46.912L8.64775 53.088L7.81575 54.528C8.26375 52.7787 8.90375 51.328 9.73575 50.176C10.5891 49.0027 11.5171 48.1387 12.5198 47.584C13.5438 47.008 14.5358 46.72 15.4958 46.72C16.3064 46.72 17.0531 46.9333 17.7358 47.36C18.4184 47.7867 18.9624 48.4693 19.3678 49.408C19.7944 50.3467 20.0078 51.584 20.0078 53.12C20.0078 55.168 19.6451 56.9707 18.9198 58.528C18.2158 60.0853 17.2131 61.344 15.9118 62.304C14.6318 63.264 13.1064 63.872 11.3358 64.128C9.56508 64.384 7.62375 64.2453 5.51175 63.712L7.36775 63.424L6.24775 70.432L5.12775 68.576L9.09575 69.664L8.83975 71.36H0.55175ZM7.55975 62.24L6.88775 61.28C8.38108 61.8133 9.73575 61.9947 10.9518 61.824C12.1891 61.6533 13.2344 61.2053 14.0878 60.48C14.9624 59.7333 15.6344 58.7627 16.1038 57.568C16.5731 56.352 16.8078 54.976 16.8078 53.44C16.8078 51.9467 16.5624 50.88 16.0718 50.24C15.5811 49.5787 14.9731 49.248 14.2478 49.248C13.7144 49.248 13.1491 49.4187 12.5518 49.76C11.9544 50.08 11.3678 50.5813 10.7917 51.264C10.2371 51.9253 9.73575 52.7573 9.28775 53.76C8.86108 54.7627 8.54108 55.936 8.32775 57.28L7.55975 62.24ZM31.804 46.72C33.0627 46.72 34.1613 46.9653 35.1 47.456C36.0387 47.9253 36.7747 48.672 37.308 49.696C37.8413 50.72 38.108 52.0533 38.108 53.696C38.108 55.0187 37.916 56.32 37.532 57.6C37.1693 58.8587 36.6147 60 35.868 61.024C35.1213 62.0267 34.172 62.8267 33.02 63.424C31.8893 64.0213 30.5667 64.32 29.052 64.32C27.8147 64.32 26.716 64.0853 25.756 63.616C24.8173 63.1253 24.0813 62.368 23.548 61.344C23.036 60.2987 22.78 58.9547 22.78 57.312C22.78 55.9893 22.9613 54.6987 23.324 53.44C23.708 52.1813 24.2733 51.0507 25.02 50.048C25.7667 49.024 26.7053 48.2133 27.836 47.616C28.9667 47.0187 30.2893 46.72 31.804 46.72ZM31.484 49.056C30.524 49.056 29.692 49.3227 28.988 49.856C28.3053 50.3893 27.74 51.0827 27.292 51.936C26.844 52.768 26.5133 53.6747 26.3 54.656C26.0867 55.616 25.98 56.5227 25.98 57.376C25.98 58.8267 26.2573 59.9573 26.812 60.768C27.388 61.5787 28.252 61.984 29.404 61.984C30.3427 61.984 31.1533 61.7173 31.836 61.184C32.54 60.6507 33.116 59.968 33.564 59.136C34.012 58.2827 34.3427 57.376 34.556 56.416C34.7907 55.4347 34.908 54.5067 34.908 53.632C34.908 52.1813 34.6307 51.0613 34.076 50.272C33.5213 49.4613 32.6573 49.056 31.484 49.056ZM44.8478 64.32C44.0371 64.32 43.1838 64.256 42.2878 64.128C41.3918 64 40.5064 63.8187 39.6318 63.584L40.4318 58.88H42.4158L42.2878 62.176L41.8718 61.472C42.3411 61.6427 42.8318 61.7813 43.3438 61.888C43.8771 61.9947 44.4318 62.048 45.0078 62.048C45.8184 62.048 46.5544 61.952 47.2158 61.76C47.8771 61.5467 48.3998 61.2373 48.7838 60.832C49.1891 60.4267 49.3918 59.9253 49.3918 59.328C49.4131 58.752 49.2318 58.2933 48.8478 57.952C48.4851 57.5893 48.0051 57.28 47.4078 57.024C46.8318 56.768 46.2024 56.512 45.5198 56.256C44.8584 56 44.2291 55.6907 43.6318 55.328C43.0558 54.9653 42.5864 54.5067 42.2238 53.952C41.8611 53.3973 41.6904 52.6827 41.7118 51.808C41.7118 50.7413 42.0104 49.824 42.6078 49.056C43.2264 48.288 44.0478 47.712 45.0718 47.328C46.1171 46.9227 47.2904 46.72 48.5918 46.72C49.4024 46.72 50.2451 46.8053 51.1198 46.976C51.9944 47.1253 52.8798 47.3493 53.7758 47.648L53.0718 51.68H51.1198L50.9918 48.96L51.5678 49.504C51.0771 49.2907 50.5758 49.1413 50.0638 49.056C49.5518 48.9707 49.0824 48.928 48.6558 48.928C47.9304 48.928 47.2798 49.0347 46.7038 49.248C46.1491 49.4613 45.7011 49.7493 45.3598 50.112C45.0398 50.4533 44.8691 50.88 44.8478 51.392C44.8478 51.9467 45.0291 52.4053 45.3918 52.768C45.7544 53.1093 46.2344 53.408 46.8318 53.664C47.4291 53.92 48.0584 54.1867 48.7198 54.464C49.4024 54.72 50.0318 55.04 50.6078 55.424C51.2051 55.7867 51.6851 56.2453 52.0478 56.8C52.4318 57.3547 52.6131 58.0693 52.5918 58.944C52.5704 60.0533 52.2291 61.0133 51.5678 61.824C50.9064 62.6347 49.9891 63.2533 48.8158 63.68C47.6424 64.1067 46.3198 64.32 44.8478 64.32ZM79.3153 48.672L78.9313 51.008H65.0433L65.4273 48.672H79.3153ZM78.3553 54.816L77.9713 57.152H64.0833L64.4673 54.816H78.3553ZM89.28 64.128L93.056 40.224L94.176 42.144L90.496 41.216L90.752 39.456L96.352 39.232L92.576 63.136L91.424 61.184L95.168 62.208L94.88 63.968L89.28 64.128ZM107.21 46.72C108.469 46.72 109.568 46.9653 110.506 47.456C111.445 47.9253 112.181 48.672 112.714 49.696C113.248 50.72 113.514 52.0533 113.514 53.696C113.514 55.0187 113.322 56.32 112.938 57.6C112.576 58.8587 112.021 60 111.274 61.024C110.528 62.0267 109.578 62.8267 108.426 63.424C107.296 64.0213 105.973 64.32 104.458 64.32C103.221 64.32 102.122 64.0853 101.162 63.616C100.224 63.1253 99.4876 62.368 98.9543 61.344C98.4423 60.2987 98.1863 58.9547 98.1863 57.312C98.1863 55.9893 98.3676 54.6987 98.7303 53.44C99.1143 52.1813 99.6796 51.0507 100.426 50.048C101.173 49.024 102.112 48.2133 103.242 47.616C104.373 47.0187 105.696 46.72 107.21 46.72ZM106.89 49.056C105.93 49.056 105.098 49.3227 104.394 49.856C103.712 50.3893 103.146 51.0827 102.698 51.936C102.25 52.768 101.92 53.6747 101.706 54.656C101.493 55.616 101.386 56.5227 101.386 57.376C101.386 58.8267 101.664 59.9573 102.218 60.768C102.794 61.5787 103.658 61.984 104.81 61.984C105.749 61.984 106.56 61.7173 107.242 61.184C107.946 60.6507 108.522 59.968 108.97 59.136C109.418 58.2827 109.749 57.376 109.962 56.416C110.197 55.4347 110.314 54.5067 110.314 53.632C110.314 52.1813 110.037 51.0613 109.482 50.272C108.928 49.4613 108.064 49.056 106.89 49.056ZM118.322 64.064L116.594 48.928L116.978 49.248L114.93 48.864L115.186 47.136L119.474 46.912L120.626 62.208H120.178L126.45 47.104L129.778 46.944L131.09 62.176H130.738L136.338 48.896L136.498 49.344L134.29 48.864L134.546 47.136L140.53 46.912L140.306 48.608L138.482 49.152L138.994 48.768L132.178 64.064H128.786L127.186 49.376L128.05 49.44L121.714 64.064H118.322ZM159.924 51.648L159.284 52.224L160.372 45.12H162.772L161.684 52.224L161.204 51.648H167.764L167.412 53.984H160.788L161.428 53.408L160.34 60.512H157.94L159.06 53.408L159.508 53.984H152.948L153.299 51.648H159.924Z" fill="white"/>
<path d="M255.18 98.32C254.37 98.32 253.612 98.1067 252.908 97.68C252.226 97.232 251.671 96.5493 251.244 95.632C250.839 94.6933 250.636 93.4773 250.636 91.984C250.636 90.448 250.871 88.9973 251.34 87.632C251.831 86.2667 252.503 85.072 253.356 84.048C254.21 83.0027 255.212 82.1813 256.364 81.584C257.538 80.9867 258.796 80.688 260.14 80.688C260.972 80.688 261.836 80.8267 262.732 81.104C263.628 81.3813 264.535 81.8293 265.452 82.448L264.076 82.224L264.78 81.04H266.508L263.948 97.2L262.86 95.184L266.572 96.208L266.284 97.968L261.004 98.128L262.028 92.048L262.956 90.48C262.508 92.2293 261.847 93.6907 260.972 94.864C260.098 96.016 259.148 96.88 258.124 97.456C257.1 98.032 256.119 98.32 255.18 98.32ZM256.396 95.76C256.93 95.76 257.495 95.6 258.092 95.28C258.711 94.9387 259.298 94.4373 259.852 93.776C260.407 93.0933 260.898 92.2507 261.324 91.248C261.772 90.2453 262.103 89.072 262.316 87.728L263.02 83.248L263.564 84.336C262.946 83.9093 262.348 83.6 261.772 83.408C261.196 83.216 260.631 83.12 260.076 83.12C259.159 83.12 258.316 83.3547 257.548 83.824C256.802 84.2933 256.151 84.9227 255.596 85.712C255.042 86.5013 254.604 87.408 254.284 88.432C253.986 89.456 253.836 90.5227 253.836 91.632C253.836 93.0613 254.082 94.1067 254.572 94.768C255.063 95.4293 255.671 95.76 256.396 95.76ZM270.058 98L272.618 81.904L273.706 83.856L270.026 82.832L270.282 81.136L275.722 80.912L274.538 86.928L273.578 88.56C274.004 86.896 274.634 85.4773 275.466 84.304C276.319 83.1307 277.258 82.2453 278.282 81.648C279.327 81.0293 280.351 80.72 281.354 80.72C281.866 80.72 282.303 80.7947 282.666 80.944L281.802 85.968H279.85L279.882 82.864L280.298 83.216C279.7 83.1733 279.092 83.3227 278.474 83.664C277.855 83.984 277.258 84.4853 276.682 85.168C276.127 85.8507 275.636 86.6933 275.21 87.696C274.783 88.6987 274.463 89.8507 274.25 91.152L273.194 98H270.058ZM283.526 98L286.086 81.904L287.174 83.856L283.494 82.832L283.75 81.136L289.19 80.912L288.006 86.928L287.046 88.56C287.473 86.896 288.102 85.4773 288.934 84.304C289.788 83.1307 290.726 82.2453 291.75 81.648C292.796 81.0293 293.82 80.72 294.822 80.72C295.334 80.72 295.772 80.7947 296.134 80.944L295.27 85.968H293.318L293.35 82.864L293.766 83.216C293.169 83.1733 292.561 83.3227 291.942 83.664C291.324 83.984 290.726 84.4853 290.15 85.168C289.596 85.8507 289.105 86.6933 288.678 87.696C288.252 88.6987 287.932 89.8507 287.718 91.152L286.662 98H283.526ZM295.623 101.36L300.487 70.704L307.527 70.864L307.239 72.88L302.791 73.04L298.695 98.992L303.079 99.184L302.727 101.2L295.623 101.36ZM317.6 98.128L319.392 87.12C319.52 86.288 319.52 85.584 319.392 85.008C319.285 84.432 319.061 83.9947 318.72 83.696C318.4 83.3973 317.973 83.248 317.44 83.248C316.906 83.248 316.341 83.408 315.744 83.728C315.146 84.048 314.56 84.528 313.984 85.168C313.429 85.808 312.938 86.6293 312.512 87.632C312.085 88.6347 311.754 89.808 311.52 91.152L310.464 98H307.328L310.944 75.216L311.36 75.824L308.512 75.216L308.8 73.456L314.368 73.232L312 86.928L310.848 88.56C311.36 86.6827 312.053 85.168 312.928 84.016C313.824 82.864 314.784 82.032 315.808 81.52C316.832 80.9867 317.813 80.72 318.752 80.72C319.669 80.72 320.448 80.944 321.088 81.392C321.728 81.84 322.186 82.4907 322.464 83.344C322.762 84.1973 322.805 85.232 322.592 86.448L321.056 96.176L319.744 95.184L323.488 96.208L323.2 97.968L317.6 98.128ZM326.776 98.128L329.368 81.904L330.488 83.856L326.776 82.832L327.032 81.136L332.632 80.912L330.072 97.168L328.984 95.216L332.664 96.272L332.376 97.968L326.776 98.128ZM331.64 77.808C331.085 77.808 330.648 77.6373 330.328 77.296C330.008 76.9547 329.848 76.5067 329.848 75.952C329.848 75.2693 330.05 74.7147 330.456 74.288C330.882 73.8613 331.416 73.648 332.056 73.648C332.61 73.648 333.048 73.808 333.368 74.128C333.688 74.448 333.848 74.9067 333.848 75.504C333.848 76.1653 333.634 76.72 333.208 77.168C332.802 77.5947 332.28 77.808 331.64 77.808ZM340.439 105.68C339.5 105.68 338.54 105.584 337.559 105.392C336.577 105.2 335.617 104.944 334.679 104.624L335.351 102.352C336.247 102.651 337.121 102.885 337.975 103.056C338.849 103.227 339.639 103.312 340.343 103.312C341.303 103.312 342.103 103.173 342.743 102.896C343.404 102.64 343.937 102.277 344.343 101.808C344.769 101.339 345.1 100.795 345.335 100.176C345.591 99.5573 345.772 98.9067 345.879 98.224L346.839 92.016L347.863 90.48C347.415 92.2293 346.753 93.6907 345.879 94.864C345.025 96.016 344.076 96.88 343.031 97.456C342.007 98.032 341.025 98.32 340.087 98.32C339.276 98.32 338.519 98.1067 337.815 97.68C337.132 97.232 336.577 96.5493 336.151 95.632C335.745 94.6933 335.543 93.4773 335.543 91.984C335.543 90.448 335.777 88.9973 336.247 87.632C336.737 86.2667 337.409 85.072 338.263 84.048C339.116 83.0027 340.119 82.192 341.271 81.616C342.444 81.0187 343.703 80.72 345.047 80.72C345.879 80.72 346.743 80.8587 347.639 81.136C348.535 81.392 349.441 81.8293 350.359 82.448L349.015 82.16L349.687 81.04H351.415L348.727 98.16C348.492 99.568 348.119 100.752 347.607 101.712C347.116 102.672 346.497 103.44 345.751 104.016C345.025 104.613 344.204 105.04 343.287 105.296C342.391 105.552 341.441 105.68 340.439 105.68ZM341.303 95.76C341.836 95.76 342.401 95.6 342.999 95.28C343.596 94.9387 344.172 94.4373 344.727 93.776C345.303 93.0933 345.804 92.2507 346.231 91.248C346.657 90.2453 346.988 89.072 347.223 87.728L347.927 83.248L348.471 84.336C347.852 83.9093 347.255 83.6 346.679 83.408C346.103 83.216 345.537 83.12 344.983 83.12C344.065 83.12 343.223 83.3547 342.455 83.824C341.708 84.2933 341.057 84.9227 340.503 85.712C339.948 86.5013 339.511 87.408 339.191 88.432C338.892 89.456 338.743 90.5227 338.743 91.632C338.743 93.0613 338.988 94.1067 339.479 94.768C339.969 95.4293 340.577 95.76 341.303 95.76ZM364.318 98.128L366.11 87.12C366.238 86.288 366.238 85.584 366.11 85.008C366.004 84.432 365.78 83.9947 365.438 83.696C365.118 83.3973 364.692 83.248 364.158 83.248C363.625 83.248 363.06 83.408 362.462 83.728C361.865 84.048 361.278 84.528 360.702 85.168C360.148 85.808 359.657 86.6293 359.23 87.632C358.804 88.6347 358.473 89.808 358.238 91.152L357.182 98H354.046L357.662 75.216L358.078 75.824L355.23 75.216L355.518 73.456L361.086 73.232L358.718 86.928L357.566 88.56C358.078 86.6827 358.772 85.168 359.646 84.016C360.542 82.864 361.502 82.032 362.526 81.52C363.55 80.9867 364.532 80.72 365.47 80.72C366.388 80.72 367.166 80.944 367.806 81.392C368.446 81.84 368.905 82.4907 369.182 83.344C369.481 84.1973 369.524 85.232 369.31 86.448L367.774 96.176L366.462 95.184L370.206 96.208L369.918 97.968L364.318 98.128ZM382.774 70.704L377.91 101.36L370.838 101.2L371.158 99.184L375.574 98.992L379.702 73.04L375.318 72.88L375.638 70.864L382.774 70.704ZM399.627 87.376L399.243 89.872H390.155L390.539 87.376H399.627ZM412.93 98.32C412.12 98.32 411.362 98.1067 410.658 97.68C409.976 97.232 409.421 96.5493 408.994 95.632C408.589 94.6933 408.386 93.4773 408.386 91.984C408.386 90.448 408.621 88.9973 409.09 87.632C409.581 86.2667 410.253 85.072 411.106 84.048C411.96 83.0027 412.962 82.1813 414.114 81.584C415.288 80.9867 416.546 80.688 417.89 80.688C418.722 80.688 419.586 80.8267 420.482 81.104C421.378 81.3813 422.285 81.8293 423.202 82.448L421.826 82.224L422.53 81.04H424.258L421.698 97.2L420.61 95.184L424.322 96.208L424.034 97.968L418.754 98.128L419.778 92.048L420.706 90.48C420.258 92.2293 419.597 93.6907 418.722 94.864C417.848 96.016 416.898 96.88 415.874 97.456C414.85 98.032 413.869 98.32 412.93 98.32ZM414.146 95.76C414.68 95.76 415.245 95.6 415.842 95.28C416.461 94.9387 417.048 94.4373 417.602 93.776C418.157 93.0933 418.648 92.2507 419.074 91.248C419.522 90.2453 419.853 89.072 420.066 87.728L420.77 83.248L421.314 84.336C420.696 83.9093 420.098 83.6 419.522 83.408C418.946 83.216 418.381 83.12 417.826 83.12C416.909 83.12 416.066 83.3547 415.298 83.824C414.552 84.2933 413.901 84.9227 413.346 85.712C412.792 86.5013 412.354 87.408 412.034 88.432C411.736 89.456 411.586 90.5227 411.586 91.632C411.586 93.0613 411.832 94.1067 412.322 94.768C412.813 95.4293 413.421 95.76 414.146 95.76ZM427.808 98L430.368 81.904L431.456 83.856L427.776 82.832L428.032 81.136L433.472 80.912L432.288 86.928L431.328 88.56C431.754 86.896 432.384 85.4773 433.216 84.304C434.069 83.1307 435.008 82.2453 436.032 81.648C437.077 81.0293 438.101 80.72 439.104 80.72C439.616 80.72 440.053 80.7947 440.416 80.944L439.552 85.968H437.6L437.632 82.864L438.048 83.216C437.45 83.1733 436.842 83.3227 436.224 83.664C435.605 83.984 435.008 84.4853 434.432 85.168C433.877 85.8507 433.386 86.6933 432.96 87.696C432.533 88.6987 432.213 89.8507 432 91.152L430.944 98H427.808ZM441.276 98L443.836 81.904L444.924 83.856L441.244 82.832L441.5 81.136L446.94 80.912L445.756 86.928L444.796 88.56C445.223 86.896 445.852 85.4773 446.684 84.304C447.538 83.1307 448.476 82.2453 449.5 81.648C450.546 81.0293 451.57 80.72 452.572 80.72C453.084 80.72 453.522 80.7947 453.884 80.944L453.02 85.968H451.068L451.1 82.864L451.516 83.216C450.919 83.1733 450.311 83.3227 449.692 83.664C449.074 83.984 448.476 84.4853 447.9 85.168C447.346 85.8507 446.855 86.6933 446.428 87.696C446.002 88.6987 445.682 89.8507 445.468 91.152L444.412 98H441.276ZM453.373 101.36L458.237 70.704L465.277 70.864L464.989 72.88L460.541 73.04L456.445 98.992L460.829 99.184L460.477 101.2L453.373 101.36ZM465.046 98.128L468.822 74.224L469.942 76.144L466.262 75.216L466.518 73.456L472.118 73.232L468.342 97.136L467.19 95.184L470.934 96.208L470.646 97.968L465.046 98.128ZM482.976 80.72C484.235 80.72 485.333 80.9653 486.272 81.456C487.211 81.9253 487.947 82.672 488.48 83.696C489.013 84.72 489.28 86.0533 489.28 87.696C489.28 89.0187 489.088 90.32 488.704 91.6C488.341 92.8587 487.787 94 487.04 95.024C486.293 96.0267 485.344 96.8267 484.192 97.424C483.061 98.0213 481.739 98.32 480.224 98.32C478.987 98.32 477.888 98.0853 476.928 97.616C475.989 97.1253 475.253 96.368 474.72 95.344C474.208 94.2987 473.952 92.9547 473.952 91.312C473.952 89.9893 474.133 88.6987 474.496 87.44C474.88 86.1813 475.445 85.0507 476.192 84.048C476.939 83.024 477.877 82.2133 479.008 81.616C480.139 81.0187 481.461 80.72 482.976 80.72ZM482.656 83.056C481.696 83.056 480.864 83.3227 480.16 83.856C479.477 84.3893 478.912 85.0827 478.464 85.936C478.016 86.768 477.685 87.6747 477.472 88.656C477.259 89.616 477.152 90.5227 477.152 91.376C477.152 92.8267 477.429 93.9573 477.984 94.768C478.56 95.5787 479.424 95.984 480.576 95.984C481.515 95.984 482.325 95.7173 483.008 95.184C483.712 94.6507 484.288 93.968 484.736 93.136C485.184 92.2827 485.515 91.376 485.728 90.416C485.963 89.4347 486.08 88.5067 486.08 87.632C486.08 86.1813 485.803 85.0613 485.248 84.272C484.693 83.4613 483.829 83.056 482.656 83.056ZM494.087 98.064L492.359 82.928L492.743 83.248L490.695 82.864L490.951 81.136L495.239 80.912L496.391 96.208H495.943L502.215 81.104L505.543 80.944L506.855 96.176H506.503L512.103 82.896L512.263 83.344L510.055 82.864L510.311 81.136L516.295 80.912L516.071 82.608L514.247 83.152L514.759 82.768L507.943 98.064H504.551L502.951 83.376L503.815 83.44L497.479 98.064H494.087ZM526.056 70.704L521.192 101.36L514.12 101.2L514.44 99.184L518.856 98.992L522.984 73.04L518.6 72.88L518.92 70.864L526.056 70.704Z" fill="white"/>
<path d="M199.549 3.344C198.056 5.09333 196.754 6.992 195.645 9.04C194.536 11.088 193.672 13.2213 193.053 15.44C192.456 17.6587 192.157 19.888 192.157 22.128C192.157 23.9627 192.37 25.7973 192.797 27.632C193.245 29.4667 193.917 31.216 194.813 32.88L192.733 34C191.538 32.1653 190.653 30.2027 190.077 28.112C189.501 26.0213 189.213 23.8987 189.213 21.744C189.213 19.2907 189.565 16.88 190.269 14.512C190.973 12.144 191.954 9.89333 193.213 7.76C194.493 5.62667 195.986 3.67467 197.693 1.904L199.549 3.344ZM196.759 30L197.047 28.304L199.831 27.792L198.999 28.24L204.663 20.912L205.655 20.784L211.575 13.136L215.447 12.912L215.191 14.608L212.567 15.152L213.495 14.672L207.863 21.552L206.935 21.68L200.759 30H196.759ZM209.079 30L204.983 22.032L201.143 14.704L201.719 15.28L199.575 14.864L199.831 13.136L203.575 12.848L207.351 20.272L211.543 28.24L210.999 27.728L213.591 28.304L213.303 30H209.079ZM232.393 19.376L232.009 21.872H222.921L223.305 19.376H232.393ZM245.696 30.32C244.885 30.32 244.128 30.1067 243.424 29.68C242.741 29.232 242.187 28.5493 241.76 27.632C241.355 26.6933 241.152 25.4773 241.152 23.984C241.152 22.448 241.387 20.9973 241.856 19.632C242.347 18.2667 243.019 17.072 243.872 16.048C244.725 15.0027 245.728 14.1813 246.88 13.584C248.053 12.9867 249.312 12.688 250.656 12.688C251.488 12.688 252.352 12.8267 253.248 13.104C254.144 13.3813 255.051 13.8293 255.968 14.448L254.592 14.224L255.296 13.04H257.024L254.464 29.2L253.376 27.184L257.088 28.208L256.8 29.968L251.52 30.128L252.544 24.048L253.472 22.48C253.024 24.2293 252.363 25.6907 251.488 26.864C250.613 28.016 249.664 28.88 248.64 29.456C247.616 30.032 246.635 30.32 245.696 30.32ZM246.912 27.76C247.445 27.76 248.011 27.6 248.608 27.28C249.227 26.9387 249.813 26.4373 250.368 25.776C250.923 25.0933 251.413 24.2507 251.84 23.248C252.288 22.2453 252.619 21.072 252.832 19.728L253.536 15.248L254.08 16.336C253.461 15.9093 252.864 15.6 252.288 15.408C251.712 15.216 251.147 15.12 250.592 15.12C249.675 15.12 248.832 15.3547 248.064 15.824C247.317 16.2933 246.667 16.9227 246.112 17.712C245.557 18.5013 245.12 19.408 244.8 20.432C244.501 21.456 244.352 22.5227 244.352 23.632C244.352 25.0613 244.597 26.1067 245.088 26.768C245.579 27.4293 246.187 27.76 246.912 27.76ZM260.573 30L263.133 13.904L264.221 15.856L260.541 14.832L260.797 13.136L266.237 12.912L265.053 18.928L264.093 20.56C264.52 18.896 265.149 17.4773 265.981 16.304C266.835 15.1307 267.773 14.2453 268.797 13.648C269.843 13.0293 270.867 12.72 271.869 12.72C272.381 12.72 272.819 12.7947 273.181 12.944L272.317 17.968H270.365L270.397 14.864L270.813 15.216C270.216 15.1733 269.608 15.3227 268.989 15.664C268.371 15.984 267.773 16.4853 267.197 17.168C266.643 17.8507 266.152 18.6933 265.725 19.696C265.299 20.6987 264.979 21.8507 264.765 23.152L263.709 30H260.573ZM274.042 30L276.602 13.904L277.69 15.856L274.01 14.832L274.266 13.136L279.706 12.912L278.522 18.928L277.562 20.56C277.989 18.896 278.618 17.4773 279.45 16.304C280.303 15.1307 281.242 14.2453 282.266 13.648C283.311 13.0293 284.335 12.72 285.338 12.72C285.85 12.72 286.287 12.7947 286.65 12.944L285.786 17.968H283.834L283.866 14.864L284.282 15.216C283.685 15.1733 283.077 15.3227 282.458 15.664C281.839 15.984 281.242 16.4853 280.666 17.168C280.111 17.8507 279.621 18.6933 279.194 19.696C278.767 20.6987 278.447 21.8507 278.234 23.152L277.178 30H274.042ZM286.139 33.36L291.003 2.704L298.043 2.864L297.755 4.88L293.307 5.04L289.211 30.992L293.595 31.184L293.243 33.2L286.139 33.36ZM297.811 30.128L301.587 6.224L302.707 8.144L299.027 7.216L299.283 5.456L304.883 5.232L301.107 29.136L299.955 27.184L303.699 28.208L303.411 29.968L297.811 30.128ZM315.742 12.72C317 12.72 318.099 12.9653 319.038 13.456C319.976 13.9253 320.712 14.672 321.246 15.696C321.779 16.72 322.046 18.0533 322.046 19.696C322.046 21.0187 321.854 22.32 321.47 23.6C321.107 24.8587 320.552 26 319.806 27.024C319.059 28.0267 318.11 28.8267 316.958 29.424C315.827 30.0213 314.504 30.32 312.99 30.32C311.752 30.32 310.654 30.0853 309.694 29.616C308.755 29.1253 308.019 28.368 307.486 27.344C306.974 26.2987 306.718 24.9547 306.718 23.312C306.718 21.9893 306.899 20.6987 307.262 19.44C307.646 18.1813 308.211 17.0507 308.958 16.048C309.704 15.024 310.643 14.2133 311.774 13.616C312.904 13.0187 314.227 12.72 315.742 12.72ZM315.422 15.056C314.462 15.056 313.63 15.3227 312.926 15.856C312.243 16.3893 311.678 17.0827 311.23 17.936C310.782 18.768 310.451 19.6747 310.238 20.656C310.024 21.616 309.918 22.5227 309.918 23.376C309.918 24.8267 310.195 25.9573 310.75 26.768C311.326 27.5787 312.19 27.984 313.342 27.984C314.28 27.984 315.091 27.7173 315.774 27.184C316.478 26.6507 317.054 25.968 317.502 25.136C317.95 24.2827 318.28 23.376 318.494 22.416C318.728 21.4347 318.846 20.5067 318.846 19.632C318.846 18.1813 318.568 17.0613 318.014 16.272C317.459 15.4613 316.595 15.056 315.422 15.056ZM326.853 30.064L325.125 14.928L325.509 15.248L323.461 14.864L323.717 13.136L328.005 12.912L329.157 28.208H328.709L334.981 13.104L338.309 12.944L339.621 28.176H339.269L344.869 14.896L345.029 15.344L342.821 14.864L343.077 13.136L349.061 12.912L348.837 14.608L347.013 15.152L347.525 14.768L340.709 30.064H337.317L335.717 15.376L336.581 15.44L330.245 30.064H326.853ZM358.821 2.704L353.957 33.36L346.885 33.2L347.205 31.184L351.621 30.992L355.749 5.04L351.365 4.88L351.685 2.864L358.821 2.704ZM357.545 32.752C359.039 31.0027 360.34 29.104 361.449 27.056C362.559 25.008 363.412 22.8747 364.009 20.656C364.628 18.4373 364.937 16.208 364.937 13.968C364.937 12.1333 364.724 10.2987 364.297 8.464C363.871 6.62933 363.199 4.88 362.281 3.216L364.361 2.064C365.577 3.92 366.463 5.89333 367.017 7.984C367.593 10.0747 367.881 12.1973 367.881 14.352C367.881 16.784 367.529 19.184 366.825 21.552C366.121 23.92 365.129 26.1707 363.849 28.304C362.591 30.4373 361.108 32.4 359.401 34.192L357.545 32.752Z" fill="white"/>
<path d="M436.846 3.344C435.353 5.09333 434.051 6.992 432.942 9.04C431.833 11.088 430.969 13.2213 430.35 15.44C429.753 17.6587 429.454 19.888 429.454 22.128C429.454 23.9627 429.667 25.7973 430.094 27.632C430.542 29.4667 431.214 31.216 432.11 32.88L430.03 34C428.835 32.1653 427.95 30.2027 427.374 28.112C426.798 26.0213 426.51 23.8987 426.51 21.744C426.51 19.2907 426.862 16.88 427.566 14.512C428.27 12.144 429.251 9.89333 430.51 7.76C431.79 5.62667 433.283 3.67467 434.99 1.904L436.846 3.344ZM446.6 30.128L448.392 19.12C448.52 18.288 448.52 17.584 448.392 17.008C448.285 16.432 448.061 15.9947 447.72 15.696C447.4 15.3973 446.973 15.248 446.44 15.248C445.906 15.248 445.341 15.408 444.744 15.728C444.146 16.048 443.56 16.528 442.984 17.168C442.429 17.808 441.938 18.6293 441.512 19.632C441.085 20.6347 440.754 21.808 440.52 23.152L439.464 30H436.328L439.944 7.216L440.36 7.824L437.512 7.216L437.8 5.456L443.368 5.232L441 18.928L439.848 20.56C440.36 18.6827 441.053 17.168 441.928 16.016C442.824 14.864 443.784 14.032 444.808 13.52C445.832 12.9867 446.813 12.72 447.752 12.72C448.669 12.72 449.448 12.944 450.088 13.392C450.728 13.84 451.186 14.4907 451.464 15.344C451.762 16.1973 451.805 17.232 451.592 18.448L450.056 28.176L448.744 27.184L452.488 28.208L452.2 29.968L446.6 30.128ZM455.776 30.128L458.368 13.904L459.488 15.856L455.776 14.832L456.032 13.136L461.632 12.912L459.072 29.168L457.984 27.216L461.664 28.272L461.376 29.968L455.776 30.128ZM460.64 9.808C460.085 9.808 459.648 9.63733 459.328 9.296C459.008 8.95467 458.848 8.50667 458.848 7.952C458.848 7.26933 459.05 6.71467 459.456 6.288C459.882 5.86133 460.416 5.648 461.056 5.648C461.61 5.648 462.048 5.808 462.368 6.128C462.688 6.448 462.848 6.90667 462.848 7.504C462.848 8.16533 462.634 8.72 462.208 9.168C461.802 9.59467 461.28 9.808 460.64 9.808ZM469.439 37.68C468.5 37.68 467.54 37.584 466.559 37.392C465.577 37.2 464.617 36.944 463.679 36.624L464.351 34.352C465.247 34.6507 466.121 34.8853 466.975 35.056C467.849 35.2267 468.639 35.312 469.343 35.312C470.303 35.312 471.103 35.1733 471.743 34.896C472.404 34.64 472.937 34.2773 473.343 33.808C473.769 33.3387 474.1 32.7947 474.335 32.176C474.591 31.5573 474.772 30.9067 474.879 30.224L475.839 24.016L476.863 22.48C476.415 24.2293 475.753 25.6907 474.879 26.864C474.025 28.016 473.076 28.88 472.031 29.456C471.007 30.032 470.025 30.32 469.087 30.32C468.276 30.32 467.519 30.1067 466.815 29.68C466.132 29.232 465.577 28.5493 465.151 27.632C464.745 26.6933 464.543 25.4773 464.543 23.984C464.543 22.448 464.777 20.9973 465.247 19.632C465.737 18.2667 466.409 17.072 467.263 16.048C468.116 15.0027 469.119 14.192 470.271 13.616C471.444 13.0187 472.703 12.72 474.047 12.72C474.879 12.72 475.743 12.8587 476.639 13.136C477.535 13.392 478.441 13.8293 479.359 14.448L478.015 14.16L478.687 13.04H480.415L477.727 30.16C477.492 31.568 477.119 32.752 476.607 33.712C476.116 34.672 475.497 35.44 474.751 36.016C474.025 36.6133 473.204 37.04 472.287 37.296C471.391 37.552 470.441 37.68 469.439 37.68ZM470.303 27.76C470.836 27.76 471.401 27.6 471.999 27.28C472.596 26.9387 473.172 26.4373 473.727 25.776C474.303 25.0933 474.804 24.2507 475.231 23.248C475.657 22.2453 475.988 21.072 476.223 19.728L476.927 15.248L477.471 16.336C476.852 15.9093 476.255 15.6 475.679 15.408C475.103 15.216 474.537 15.12 473.983 15.12C473.065 15.12 472.223 15.3547 471.455 15.824C470.708 16.2933 470.057 16.9227 469.503 17.712C468.948 18.5013 468.511 19.408 468.191 20.432C467.892 21.456 467.743 22.5227 467.743 23.632C467.743 25.0613 467.988 26.1067 468.479 26.768C468.969 27.4293 469.577 27.76 470.303 27.76ZM493.318 30.128L495.11 19.12C495.238 18.288 495.238 17.584 495.11 17.008C495.004 16.432 494.78 15.9947 494.438 15.696C494.118 15.3973 493.692 15.248 493.158 15.248C492.625 15.248 492.06 15.408 491.462 15.728C490.865 16.048 490.278 16.528 489.702 17.168C489.148 17.808 488.657 18.6293 488.23 19.632C487.804 20.6347 487.473 21.808 487.238 23.152L486.182 30H483.046L486.662 7.216L487.078 7.824L484.23 7.216L484.518 5.456L490.086 5.232L487.718 18.928L486.566 20.56C487.078 18.6827 487.772 17.168 488.646 16.016C489.542 14.864 490.502 14.032 491.526 13.52C492.55 12.9867 493.532 12.72 494.47 12.72C495.388 12.72 496.166 12.944 496.806 13.392C497.446 13.84 497.905 14.4907 498.182 15.344C498.481 16.1973 498.524 17.232 498.31 18.448L496.774 28.176L495.462 27.184L499.206 28.208L498.918 29.968L493.318 30.128ZM518.127 19.376L517.743 21.872H508.655L509.039 19.376H518.127ZM527.014 30.128L530.79 6.224L531.91 8.144L528.23 7.216L528.486 5.456L534.086 5.232L530.31 29.136L529.158 27.184L532.902 28.208L532.614 29.968L527.014 30.128ZM544.945 12.72C546.203 12.72 547.302 12.9653 548.241 13.456C549.179 13.9253 549.915 14.672 550.449 15.696C550.982 16.72 551.249 18.0533 551.249 19.696C551.249 21.0187 551.057 22.32 550.673 23.6C550.31 24.8587 549.755 26 549.009 27.024C548.262 28.0267 547.313 28.8267 546.161 29.424C545.03 30.0213 543.707 30.32 542.193 30.32C540.955 30.32 539.857 30.0853 538.897 29.616C537.958 29.1253 537.222 28.368 536.689 27.344C536.177 26.2987 535.921 24.9547 535.921 23.312C535.921 21.9893 536.102 20.6987 536.465 19.44C536.849 18.1813 537.414 17.0507 538.161 16.048C538.907 15.024 539.846 14.2133 540.977 13.616C542.107 13.0187 543.43 12.72 544.945 12.72ZM544.625 15.056C543.665 15.056 542.833 15.3227 542.129 15.856C541.446 16.3893 540.881 17.0827 540.433 17.936C539.985 18.768 539.654 19.6747 539.441 20.656C539.227 21.616 539.121 22.5227 539.121 23.376C539.121 24.8267 539.398 25.9573 539.953 26.768C540.529 27.5787 541.393 27.984 542.545 27.984C543.483 27.984 544.294 27.7173 544.977 27.184C545.681 26.6507 546.257 25.968 546.705 25.136C547.153 24.2827 547.483 23.376 547.697 22.416C547.931 21.4347 548.049 20.5067 548.049 19.632C548.049 18.1813 547.771 17.0613 547.217 16.272C546.662 15.4613 545.798 15.056 544.625 15.056ZM556.056 30.064L554.328 14.928L554.712 15.248L552.664 14.864L552.92 13.136L557.208 12.912L558.36 28.208H557.912L564.184 13.104L567.512 12.944L568.824 28.176H568.472L574.072 14.896L574.232 15.344L572.024 14.864L572.28 13.136L578.264 12.912L578.04 14.608L576.216 15.152L576.728 14.768L569.912 30.064H566.52L564.92 15.376L565.784 15.44L559.448 30.064H556.056ZM576.248 32.752C577.742 31.0027 579.043 29.104 580.152 27.056C581.262 25.008 582.115 22.8747 582.712 20.656C583.331 18.4373 583.64 16.208 583.64 13.968C583.64 12.1333 583.427 10.2987 583 8.464C582.574 6.62933 581.902 4.88 580.984 3.216L583.064 2.064C584.28 3.92 585.166 5.89333 585.72 7.984C586.296 10.0747 586.584 12.1973 586.584 14.352C586.584 16.784 586.232 19.184 585.528 21.552C584.824 23.92 583.832 26.1707 582.552 28.304C581.294 30.4373 579.811 32.4 578.104 34.192L576.248 32.752Z" fill="white"/>
<path d="M405.25 13.75L389.75 29.25" stroke="white" stroke-width="2" stroke-linecap="round" stroke-linejoin="round"/>
<path d="M389.75 13.75L405.25 29.25" stroke="white" stroke-width="2" stroke-linecap="round" stroke-linejoin="round"/>
<line x1="188" y1="53" x2="587" y2="53" stroke="white" stroke-width="2"/>
<path d="M0.583 191.36L0.839 189.664L4.807 188.64L3.175 190.368L6.567 168.896L7.015 169.504L4.135 168.832L4.391 167.136L9.863 166.912L8.679 173.088L7.847 174.528C8.295 172.779 8.935 171.328 9.767 170.176C10.6203 169.003 11.5483 168.139 12.551 167.584C13.575 167.008 14.567 166.72 15.527 166.72C16.3377 166.72 17.0843 166.933 17.767 167.36C18.4497 167.787 18.9937 168.469 19.399 169.408C19.8257 170.347 20.039 171.584 20.039 173.12C20.039 175.168 19.6763 176.971 18.951 178.528C18.247 180.085 17.2443 181.344 15.943 182.304C14.663 183.264 13.1377 183.872 11.367 184.128C9.59633 184.384 7.655 184.245 5.543 183.712L7.399 183.424L6.279 190.432L5.159 188.576L9.127 189.664L8.871 191.36H0.583ZM7.591 182.24L6.919 181.28C8.41233 181.813 9.767 181.995 10.983 181.824C12.2203 181.653 13.2657 181.205 14.119 180.48C14.9937 179.733 15.6657 178.763 16.135 177.568C16.6043 176.352 16.839 174.976 16.839 173.44C16.839 171.947 16.5937 170.88 16.103 170.24C15.6123 169.579 15.0043 169.248 14.279 169.248C13.7457 169.248 13.1803 169.419 12.583 169.76C11.9857 170.08 11.399 170.581 10.823 171.264C10.2683 171.925 9.767 172.757 9.319 173.76C8.89233 174.763 8.57233 175.936 8.359 177.28L7.591 182.24ZM31.8353 166.72C33.0939 166.72 34.1926 166.965 35.1313 167.456C36.0699 167.925 36.8059 168.672 37.3393 169.696C37.8726 170.72 38.1393 172.053 38.1393 173.696C38.1393 175.019 37.9473 176.32 37.5633 177.6C37.2006 178.859 36.6459 180 35.8993 181.024C35.1526 182.027 34.2033 182.827 33.0513 183.424C31.9206 184.021 30.5979 184.32 29.0833 184.32C27.8459 184.32 26.7473 184.085 25.7873 183.616C24.8486 183.125 24.1126 182.368 23.5793 181.344C23.0673 180.299 22.8113 178.955 22.8113 177.312C22.8113 175.989 22.9926 174.699 23.3553 173.44C23.7393 172.181 24.3046 171.051 25.0513 170.048C25.7979 169.024 26.7366 168.213 27.8673 167.616C28.9979 167.019 30.3206 166.72 31.8353 166.72ZM31.5153 169.056C30.5553 169.056 29.7233 169.323 29.0193 169.856C28.3366 170.389 27.7713 171.083 27.3233 171.936C26.8753 172.768 26.5446 173.675 26.3313 174.656C26.1179 175.616 26.0113 176.523 26.0113 177.376C26.0113 178.827 26.2886 179.957 26.8433 180.768C27.4193 181.579 28.2833 181.984 29.4353 181.984C30.3739 181.984 31.1846 181.717 31.8673 181.184C32.5713 180.651 33.1473 179.968 33.5953 179.136C34.0433 178.283 34.3739 177.376 34.5873 176.416C34.8219 175.435 34.9393 174.507 34.9393 173.632C34.9393 172.181 34.6619 171.061 34.1073 170.272C33.5526 169.461 32.6886 169.056 31.5153 169.056ZM44.879 184.32C44.0683 184.32 43.215 184.256 42.319 184.128C41.423 184 40.5377 183.819 39.663 183.584L40.463 178.88H42.447L42.319 182.176L41.903 181.472C42.3723 181.643 42.863 181.781 43.375 181.888C43.9083 181.995 44.463 182.048 45.039 182.048C45.8497 182.048 46.5857 181.952 47.247 181.76C47.9083 181.547 48.431 181.237 48.815 180.832C49.2203 180.427 49.423 179.925 49.423 179.328C49.4443 178.752 49.263 178.293 48.879 177.952C48.5163 177.589 48.0363 177.28 47.439 177.024C46.863 176.768 46.2337 176.512 45.551 176.256C44.8897 176 44.2603 175.691 43.663 175.328C43.087 174.965 42.6177 174.507 42.255 173.952C41.8923 173.397 41.7217 172.683 41.743 171.808C41.743 170.741 42.0417 169.824 42.639 169.056C43.2577 168.288 44.079 167.712 45.103 167.328C46.1483 166.923 47.3217 166.72 48.623 166.72C49.4337 166.72 50.2763 166.805 51.151 166.976C52.0257 167.125 52.911 167.349 53.807 167.648L53.103 171.68H51.151L51.023 168.96L51.599 169.504C51.1083 169.291 50.607 169.141 50.095 169.056C49.583 168.971 49.1137 168.928 48.687 168.928C47.9617 168.928 47.311 169.035 46.735 169.248C46.1803 169.461 45.7323 169.749 45.391 170.112C45.071 170.453 44.9003 170.88 44.879 171.392C44.879 171.947 45.0603 172.405 45.423 172.768C45.7857 173.109 46.2657 173.408 46.863 173.664C47.4603 173.92 48.0897 174.187 48.751 174.464C49.4337 174.72 50.063 175.04 50.639 175.424C51.2363 175.787 51.7163 176.245 52.079 176.8C52.463 177.355 52.6443 178.069 52.623 178.944C52.6017 180.053 52.2603 181.013 51.599 181.824C50.9377 182.635 50.0203 183.253 48.847 183.68C47.6737 184.107 46.351 184.32 44.879 184.32ZM79.3465 168.672L78.9625 171.008H65.0745L65.4585 168.672H79.3465ZM78.3865 174.816L78.0025 177.152H64.1145L64.4985 174.816H78.3865ZM98.4953 177.92L99.1673 178.624H88.3513V176.288L100.767 161.216L104.255 161.6L101.887 176.672L101.183 176.032H105.471L105.055 178.624H100.767L101.695 177.92L100.735 184H97.5353L98.4953 177.92ZM99.6793 176.032L98.6873 176.672L100.831 163.168L101.855 163.36L90.5273 177.184L90.1432 176.032H99.6793ZM120.83 171.648L120.19 172.224L121.278 165.12H123.678L122.59 172.224L122.11 171.648H128.67L128.318 173.984H121.694L122.334 173.408L121.246 180.512H118.846L119.966 173.408L120.414 173.984H113.854L114.206 171.648H120.83ZM144.043 184.32C142.678 184.32 141.515 184.053 140.555 183.52C139.595 182.965 138.87 182.091 138.379 180.896C137.889 179.68 137.643 178.091 137.643 176.128C137.643 174.955 137.739 173.696 137.931 172.352C138.145 170.987 138.486 169.653 138.955 168.352C139.425 167.051 140.054 165.867 140.843 164.8C141.654 163.733 142.657 162.88 143.851 162.24C145.046 161.6 146.465 161.28 148.107 161.28C150.155 161.28 151.713 161.877 152.779 163.072C153.846 164.267 154.379 166.304 154.379 169.184C154.379 170.4 154.273 171.701 154.059 173.088C153.867 174.453 153.537 175.797 153.067 177.12C152.598 178.443 151.969 179.648 151.179 180.736C150.39 181.824 149.409 182.699 148.235 183.36C147.062 184 145.665 184.32 144.043 184.32ZM144.427 181.76C145.451 181.76 146.337 181.461 147.083 180.864C147.851 180.245 148.491 179.435 149.003 178.432C149.537 177.429 149.953 176.352 150.251 175.2C150.571 174.027 150.795 172.875 150.923 171.744C151.073 170.613 151.147 169.621 151.147 168.768C151.147 167.509 151.009 166.528 150.731 165.824C150.454 165.099 150.059 164.587 149.547 164.288C149.035 163.989 148.427 163.84 147.723 163.84C146.657 163.84 145.729 164.128 144.939 164.704C144.171 165.28 143.521 166.048 142.987 167.008C142.475 167.947 142.059 168.981 141.739 170.112C141.441 171.221 141.217 172.331 141.067 173.44C140.939 174.528 140.875 175.509 140.875 176.384C140.875 178.368 141.185 179.765 141.803 180.576C142.443 181.365 143.318 181.76 144.427 181.76Z" fill="white"/>
<path d="M0.333 293.36L0.589 291.664L4.557 290.64L2.925 292.368L6.317 270.896L6.765 271.504L3.885 270.832L4.141 269.136L9.613 268.912L8.429 275.088L7.597 276.528C8.045 274.779 8.685 273.328 9.517 272.176C10.3703 271.003 11.2983 270.139 12.301 269.584C13.325 269.008 14.317 268.72 15.277 268.72C16.0877 268.72 16.8343 268.933 17.517 269.36C18.1997 269.787 18.7437 270.469 19.149 271.408C19.5757 272.347 19.789 273.584 19.789 275.12C19.789 277.168 19.4263 278.971 18.701 280.528C17.997 282.085 16.9943 283.344 15.693 284.304C14.413 285.264 12.8877 285.872 11.117 286.128C9.34633 286.384 7.405 286.245 5.293 285.712L7.149 285.424L6.029 292.432L4.909 290.576L8.877 291.664L8.621 293.36H0.333ZM7.341 284.24L6.669 283.28C8.16233 283.813 9.517 283.995 10.733 283.824C11.9703 283.653 13.0157 283.205 13.869 282.48C14.7437 281.733 15.4157 280.763 15.885 279.568C16.3543 278.352 16.589 276.976 16.589 275.44C16.589 273.947 16.3437 272.88 15.853 272.24C15.3623 271.579 14.7543 271.248 14.029 271.248C13.4957 271.248 12.9303 271.419 12.333 271.76C11.7357 272.08 11.149 272.581 10.573 273.264C10.0183 273.925 9.517 274.757 9.069 275.76C8.64233 276.763 8.32233 277.936 8.109 279.28L7.341 284.24ZM31.5853 268.72C32.8439 268.72 33.9426 268.965 34.8813 269.456C35.8199 269.925 36.5559 270.672 37.0893 271.696C37.6226 272.72 37.8893 274.053 37.8893 275.696C37.8893 277.019 37.6973 278.32 37.3133 279.6C36.9506 280.859 36.3959 282 35.6493 283.024C34.9026 284.027 33.9533 284.827 32.8013 285.424C31.6706 286.021 30.3479 286.32 28.8333 286.32C27.5959 286.32 26.4973 286.085 25.5373 285.616C24.5986 285.125 23.8626 284.368 23.3293 283.344C22.8173 282.299 22.5613 280.955 22.5613 279.312C22.5613 277.989 22.7426 276.699 23.1053 275.44C23.4893 274.181 24.0546 273.051 24.8013 272.048C25.5479 271.024 26.4866 270.213 27.6173 269.616C28.7479 269.019 30.0706 268.72 31.5853 268.72ZM31.2653 271.056C30.3053 271.056 29.4733 271.323 28.7693 271.856C28.0866 272.389 27.5213 273.083 27.0733 273.936C26.6253 274.768 26.2946 275.675 26.0813 276.656C25.8679 277.616 25.7613 278.523 25.7613 279.376C25.7613 280.827 26.0386 281.957 26.5933 282.768C27.1693 283.579 28.0333 283.984 29.1853 283.984C30.1239 283.984 30.9346 283.717 31.6173 283.184C32.3213 282.651 32.8973 281.968 33.3453 281.136C33.7933 280.283 34.1239 279.376 34.3373 278.416C34.5719 277.435 34.6893 276.507 34.6893 275.632C34.6893 274.181 34.4119 273.061 33.8573 272.272C33.3026 271.461 32.4386 271.056 31.2653 271.056ZM44.629 286.32C43.8183 286.32 42.965 286.256 42.069 286.128C41.173 286 40.2877 285.819 39.413 285.584L40.213 280.88H42.197L42.069 284.176L41.653 283.472C42.1223 283.643 42.613 283.781 43.125 283.888C43.6583 283.995 44.213 284.048 44.789 284.048C45.5997 284.048 46.3357 283.952 46.997 283.76C47.6583 283.547 48.181 283.237 48.565 282.832C48.9703 282.427 49.173 281.925 49.173 281.328C49.1943 280.752 49.013 280.293 48.629 279.952C48.2663 279.589 47.7863 279.28 47.189 279.024C46.613 278.768 45.9837 278.512 45.301 278.256C44.6397 278 44.0103 277.691 43.413 277.328C42.837 276.965 42.3677 276.507 42.005 275.952C41.6423 275.397 41.4717 274.683 41.493 273.808C41.493 272.741 41.7917 271.824 42.389 271.056C43.0077 270.288 43.829 269.712 44.853 269.328C45.8983 268.923 47.0717 268.72 48.373 268.72C49.1837 268.72 50.0263 268.805 50.901 268.976C51.7757 269.125 52.661 269.349 53.557 269.648L52.853 273.68H50.901L50.773 270.96L51.349 271.504C50.8583 271.291 50.357 271.141 49.845 271.056C49.333 270.971 48.8637 270.928 48.437 270.928C47.7117 270.928 47.061 271.035 46.485 271.248C45.9303 271.461 45.4823 271.749 45.141 272.112C44.821 272.453 44.6503 272.88 44.629 273.392C44.629 273.947 44.8103 274.405 45.173 274.768C45.5357 275.109 46.0157 275.408 46.613 275.664C47.2103 275.92 47.8397 276.187 48.501 276.464C49.1837 276.72 49.813 277.04 50.389 277.424C50.9863 277.787 51.4663 278.245 51.829 278.8C52.213 279.355 52.3943 280.069 52.373 280.944C52.3517 282.053 52.0103 283.013 51.349 283.824C50.6877 284.635 49.7703 285.253 48.597 285.68C47.4237 286.107 46.101 286.32 44.629 286.32ZM79.0965 270.672L78.7125 273.008H64.8245L65.2085 270.672H79.0965ZM78.1365 276.816L77.7525 279.152H63.8645L64.2485 276.816H78.1365ZM98.2453 279.92L98.9173 280.624H88.1013V278.288L100.517 263.216L104.005 263.6L101.637 278.672L100.933 278.032H105.221L104.805 280.624H100.517L101.445 279.92L100.485 286H97.2853L98.2453 279.92ZM99.4293 278.032L98.4373 278.672L100.581 265.168L101.605 265.36L90.2773 279.184L89.8932 278.032H99.4293Z" fill="white"/>
</svg>
