<svg width="589" height="294" viewBox="0 0 589 294" fill="none" xmlns="http://www.w3.org/2000/svg">
<path d="M2.55175 71.36L2.80775 69.664L6.77575 68.64L5.14375 70.368L8.53575 48.896L8.98375 49.504L6.10375 48.832L6.35975 47.136L11.8318 46.912L10.6478 53.088L9.81575 54.528C10.2638 52.7787 10.9038 51.328 11.7358 50.176C12.5891 49.0027 13.5171 48.1387 14.5198 47.584C15.5438 47.008 16.5358 46.72 17.4958 46.72C18.3064 46.72 19.0531 46.9333 19.7358 47.36C20.4184 47.7867 20.9624 48.4693 21.3678 49.408C21.7944 50.3467 22.0078 51.584 22.0078 53.12C22.0078 55.168 21.6451 56.9707 20.9198 58.528C20.2158 60.0853 19.2131 61.344 17.9118 62.304C16.6318 63.264 15.1064 63.872 13.3358 64.128C11.5651 64.384 9.62375 64.2453 7.51175 63.712L9.36775 63.424L8.24775 70.432L7.12775 68.576L11.0958 69.664L10.8398 71.36H2.55175ZM9.55975 62.24L8.88775 61.28C10.3811 61.8133 11.7358 61.9947 12.9518 61.824C14.1891 61.6533 15.2344 61.2053 16.0878 60.48C16.9624 59.7333 17.6344 58.7627 18.1038 57.568C18.5731 56.352 18.8078 54.976 18.8078 53.44C18.8078 51.9467 18.5624 50.88 18.0718 50.24C17.5811 49.5787 16.9731 49.248 16.2478 49.248C15.7144 49.248 15.1491 49.4187 14.5518 49.76C13.9544 50.08 13.3678 50.5813 12.7917 51.264C12.2371 51.9253 11.7358 52.7573 11.2878 53.76C10.8611 54.7627 10.5411 55.936 10.3278 57.28L9.55975 62.24ZM33.804 46.72C35.0627 46.72 36.1613 46.9653 37.1 47.456C38.0387 47.9253 38.7747 48.672 39.308 49.696C39.8413 50.72 40.108 52.0533 40.108 53.696C40.108 55.0187 39.916 56.32 39.532 57.6C39.1693 58.8587 38.6147 60 37.868 61.024C37.1213 62.0267 36.172 62.8267 35.02 63.424C33.8893 64.0213 32.5667 64.32 31.052 64.32C29.8147 64.32 28.716 64.0853 27.756 63.616C26.8173 63.1253 26.0813 62.368 25.548 61.344C25.036 60.2987 24.78 58.9547 24.78 57.312C24.78 55.9893 24.9613 54.6987 25.324 53.44C25.708 52.1813 26.2733 51.0507 27.02 50.048C27.7667 49.024 28.7053 48.2133 29.836 47.616C30.9667 47.0187 32.2893 46.72 33.804 46.72ZM33.484 49.056C32.524 49.056 31.692 49.3227 30.988 49.856C30.3053 50.3893 29.74 51.0827 29.292 51.936C28.844 52.768 28.5133 53.6747 28.3 54.656C28.0867 55.616 27.98 56.5227 27.98 57.376C27.98 58.8267 28.2573 59.9573 28.812 60.768C29.388 61.5787 30.252 61.984 31.404 61.984C32.3427 61.984 33.1533 61.7173 33.836 61.184C34.54 60.6507 35.116 59.968 35.564 59.136C36.012 58.2827 36.3427 57.376 36.556 56.416C36.7907 55.4347 36.908 54.5067 36.908 53.632C36.908 52.1813 36.6307 51.0613 36.076 50.272C35.5213 49.4613 34.6573 49.056 33.484 49.056ZM46.8478 64.32C46.0371 64.32 45.1838 64.256 44.2878 64.128C43.3918 64 42.5064 63.8187 41.6318 63.584L42.4318 58.88H44.4158L44.2878 62.176L43.8718 61.472C44.3411 61.6427 44.8318 61.7813 45.3438 61.888C45.8771 61.9947 46.4318 62.048 47.0078 62.048C47.8184 62.048 48.5544 61.952 49.2158 61.76C49.8771 61.5467 50.3998 61.2373 50.7838 60.832C51.1891 60.4267 51.3918 59.9253 51.3918 59.328C51.4131 58.752 51.2318 58.2933 50.8478 57.952C50.4851 57.5893 50.0051 57.28 49.4078 57.024C48.8318 56.768 48.2024 56.512 47.5198 56.256C46.8584 56 46.2291 55.6907 45.6318 55.328C45.0558 54.9653 44.5864 54.5067 44.2238 53.952C43.8611 53.3973 43.6904 52.6827 43.7118 51.808C43.7118 50.7413 44.0104 49.824 44.6078 49.056C45.2264 48.288 46.0478 47.712 47.0718 47.328C48.1171 46.9227 49.2904 46.72 50.5918 46.72C51.4024 46.72 52.2451 46.8053 53.1198 46.976C53.9944 47.1253 54.8798 47.3493 55.7758 47.648L55.0718 51.68H53.1198L52.9918 48.96L53.5678 49.504C53.0771 49.2907 52.5758 49.1413 52.0638 49.056C51.5518 48.9707 51.0824 48.928 50.6558 48.928C49.9304 48.928 49.2798 49.0347 48.7038 49.248C48.1491 49.4613 47.7011 49.7493 47.3598 50.112C47.0398 50.4533 46.8691 50.88 46.8478 51.392C46.8478 51.9467 47.0291 52.4053 47.3918 52.768C47.7544 53.1093 48.2344 53.408 48.8318 53.664C49.4291 53.92 50.0584 54.1867 50.7198 54.464C51.4024 54.72 52.0318 55.04 52.6078 55.424C53.2051 55.7867 53.6851 56.2453 54.0478 56.8C54.4318 57.3547 54.6131 58.0693 54.5918 58.944C54.5704 60.0533 54.2291 61.0133 53.5678 61.824C52.9064 62.6347 51.9891 63.2533 50.8158 63.68C49.6424 64.1067 48.3198 64.32 46.8478 64.32ZM81.3153 48.672L80.9313 51.008H67.0433L67.4273 48.672H81.3153ZM80.3553 54.816L79.9713 57.152H66.0833L66.4673 54.816H80.3553ZM91.28 64.128L95.056 40.224L96.176 42.144L92.496 41.216L92.752 39.456L98.352 39.232L94.576 63.136L93.424 61.184L97.168 62.208L96.88 63.968L91.28 64.128ZM109.21 46.72C110.469 46.72 111.568 46.9653 112.506 47.456C113.445 47.9253 114.181 48.672 114.714 49.696C115.248 50.72 115.514 52.0533 115.514 53.696C115.514 55.0187 115.322 56.32 114.938 57.6C114.576 58.8587 114.021 60 113.274 61.024C112.528 62.0267 111.578 62.8267 110.426 63.424C109.296 64.0213 107.973 64.32 106.458 64.32C105.221 64.32 104.122 64.0853 103.162 63.616C102.224 63.1253 101.488 62.368 100.954 61.344C100.442 60.2987 100.186 58.9547 100.186 57.312C100.186 55.9893 100.368 54.6987 100.73 53.44C101.114 52.1813 101.68 51.0507 102.426 50.048C103.173 49.024 104.112 48.2133 105.242 47.616C106.373 47.0187 107.696 46.72 109.21 46.72ZM108.89 49.056C107.93 49.056 107.098 49.3227 106.394 49.856C105.712 50.3893 105.146 51.0827 104.698 51.936C104.25 52.768 103.92 53.6747 103.706 54.656C103.493 55.616 103.386 56.5227 103.386 57.376C103.386 58.8267 103.664 59.9573 104.218 60.768C104.794 61.5787 105.658 61.984 106.81 61.984C107.749 61.984 108.56 61.7173 109.242 61.184C109.946 60.6507 110.522 59.968 110.97 59.136C111.418 58.2827 111.749 57.376 111.962 56.416C112.197 55.4347 112.314 54.5067 112.314 53.632C112.314 52.1813 112.037 51.0613 111.482 50.272C110.928 49.4613 110.064 49.056 108.89 49.056ZM120.322 64.064L118.594 48.928L118.978 49.248L116.93 48.864L117.186 47.136L121.474 46.912L122.626 62.208H122.178L128.45 47.104L131.778 46.944L133.09 62.176H132.738L138.338 48.896L138.498 49.344L136.29 48.864L136.546 47.136L142.53 46.912L142.306 48.608L140.482 49.152L140.994 48.768L134.178 64.064H130.786L129.186 49.376L130.05 49.44L123.714 64.064H120.322ZM161.924 51.648L161.284 52.224L162.372 45.12H164.772L163.684 52.224L163.204 51.648H169.764L169.412 53.984H162.788L163.428 53.408L162.34 60.512H159.94L161.06 53.408L161.508 53.984H154.948L155.299 51.648H161.924Z" fill="white"/>
<path d="M257.18 98.32C256.37 98.32 255.612 98.1067 254.908 97.68C254.226 97.232 253.671 96.5493 253.244 95.632C252.839 94.6933 252.636 93.4773 252.636 91.984C252.636 90.448 252.871 88.9973 253.34 87.632C253.831 86.2667 254.503 85.072 255.356 84.048C256.21 83.0027 257.212 82.1813 258.364 81.584C259.538 80.9867 260.796 80.688 262.14 80.688C262.972 80.688 263.836 80.8267 264.732 81.104C265.628 81.3813 266.535 81.8293 267.452 82.448L266.076 82.224L266.78 81.04H268.508L265.948 97.2L264.86 95.184L268.572 96.208L268.284 97.968L263.004 98.128L264.028 92.048L264.956 90.48C264.508 92.2293 263.847 93.6907 262.972 94.864C262.098 96.016 261.148 96.88 260.124 97.456C259.1 98.032 258.119 98.32 257.18 98.32ZM258.396 95.76C258.93 95.76 259.495 95.6 260.092 95.28C260.711 94.9387 261.298 94.4373 261.852 93.776C262.407 93.0933 262.898 92.2507 263.324 91.248C263.772 90.2453 264.103 89.072 264.316 87.728L265.02 83.248L265.564 84.336C264.946 83.9093 264.348 83.6 263.772 83.408C263.196 83.216 262.631 83.12 262.076 83.12C261.159 83.12 260.316 83.3547 259.548 83.824C258.802 84.2933 258.151 84.9227 257.596 85.712C257.042 86.5013 256.604 87.408 256.284 88.432C255.986 89.456 255.836 90.5227 255.836 91.632C255.836 93.0613 256.082 94.1067 256.572 94.768C257.063 95.4293 257.671 95.76 258.396 95.76ZM272.058 98L274.618 81.904L275.706 83.856L272.026 82.832L272.282 81.136L277.722 80.912L276.538 86.928L275.578 88.56C276.004 86.896 276.634 85.4773 277.466 84.304C278.319 83.1307 279.258 82.2453 280.282 81.648C281.327 81.0293 282.351 80.72 283.354 80.72C283.866 80.72 284.303 80.7947 284.666 80.944L283.802 85.968H281.85L281.882 82.864L282.298 83.216C281.7 83.1733 281.092 83.3227 280.474 83.664C279.855 83.984 279.258 84.4853 278.682 85.168C278.127 85.8507 277.636 86.6933 277.21 87.696C276.783 88.6987 276.463 89.8507 276.25 91.152L275.194 98H272.058ZM285.526 98L288.086 81.904L289.174 83.856L285.494 82.832L285.75 81.136L291.19 80.912L290.006 86.928L289.046 88.56C289.473 86.896 290.102 85.4773 290.934 84.304C291.788 83.1307 292.726 82.2453 293.75 81.648C294.796 81.0293 295.82 80.72 296.822 80.72C297.334 80.72 297.772 80.7947 298.134 80.944L297.27 85.968H295.318L295.35 82.864L295.766 83.216C295.169 83.1733 294.561 83.3227 293.942 83.664C293.324 83.984 292.726 84.4853 292.15 85.168C291.596 85.8507 291.105 86.6933 290.678 87.696C290.252 88.6987 289.932 89.8507 289.718 91.152L288.662 98H285.526ZM297.623 101.36L302.487 70.704L309.527 70.864L309.239 72.88L304.791 73.04L300.695 98.992L305.079 99.184L304.727 101.2L297.623 101.36ZM319.6 98.128L321.392 87.12C321.52 86.288 321.52 85.584 321.392 85.008C321.285 84.432 321.061 83.9947 320.72 83.696C320.4 83.3973 319.973 83.248 319.44 83.248C318.906 83.248 318.341 83.408 317.744 83.728C317.146 84.048 316.56 84.528 315.984 85.168C315.429 85.808 314.938 86.6293 314.512 87.632C314.085 88.6347 313.754 89.808 313.52 91.152L312.464 98H309.328L312.944 75.216L313.36 75.824L310.512 75.216L310.8 73.456L316.368 73.232L314 86.928L312.848 88.56C313.36 86.6827 314.053 85.168 314.928 84.016C315.824 82.864 316.784 82.032 317.808 81.52C318.832 80.9867 319.813 80.72 320.752 80.72C321.669 80.72 322.448 80.944 323.088 81.392C323.728 81.84 324.186 82.4907 324.464 83.344C324.762 84.1973 324.805 85.232 324.592 86.448L323.056 96.176L321.744 95.184L325.488 96.208L325.2 97.968L319.6 98.128ZM328.776 98.128L331.368 81.904L332.488 83.856L328.776 82.832L329.032 81.136L334.632 80.912L332.072 97.168L330.984 95.216L334.664 96.272L334.376 97.968L328.776 98.128ZM333.64 77.808C333.085 77.808 332.648 77.6373 332.328 77.296C332.008 76.9547 331.848 76.5067 331.848 75.952C331.848 75.2693 332.05 74.7147 332.456 74.288C332.882 73.8613 333.416 73.648 334.056 73.648C334.61 73.648 335.048 73.808 335.368 74.128C335.688 74.448 335.848 74.9067 335.848 75.504C335.848 76.1653 335.634 76.72 335.208 77.168C334.802 77.5947 334.28 77.808 333.64 77.808ZM342.439 105.68C341.5 105.68 340.54 105.584 339.559 105.392C338.577 105.2 337.617 104.944 336.679 104.624L337.351 102.352C338.247 102.651 339.121 102.885 339.975 103.056C340.849 103.227 341.639 103.312 342.343 103.312C343.303 103.312 344.103 103.173 344.743 102.896C345.404 102.64 345.937 102.277 346.343 101.808C346.769 101.339 347.1 100.795 347.335 100.176C347.591 99.5573 347.772 98.9067 347.879 98.224L348.839 92.016L349.863 90.48C349.415 92.2293 348.753 93.6907 347.879 94.864C347.025 96.016 346.076 96.88 345.031 97.456C344.007 98.032 343.025 98.32 342.087 98.32C341.276 98.32 340.519 98.1067 339.815 97.68C339.132 97.232 338.577 96.5493 338.151 95.632C337.745 94.6933 337.543 93.4773 337.543 91.984C337.543 90.448 337.777 88.9973 338.247 87.632C338.737 86.2667 339.409 85.072 340.263 84.048C341.116 83.0027 342.119 82.192 343.271 81.616C344.444 81.0187 345.703 80.72 347.047 80.72C347.879 80.72 348.743 80.8587 349.639 81.136C350.535 81.392 351.441 81.8293 352.359 82.448L351.015 82.16L351.687 81.04H353.415L350.727 98.16C350.492 99.568 350.119 100.752 349.607 101.712C349.116 102.672 348.497 103.44 347.751 104.016C347.025 104.613 346.204 105.04 345.287 105.296C344.391 105.552 343.441 105.68 342.439 105.68ZM343.303 95.76C343.836 95.76 344.401 95.6 344.999 95.28C345.596 94.9387 346.172 94.4373 346.727 93.776C347.303 93.0933 347.804 92.2507 348.231 91.248C348.657 90.2453 348.988 89.072 349.223 87.728L349.927 83.248L350.471 84.336C349.852 83.9093 349.255 83.6 348.679 83.408C348.103 83.216 347.537 83.12 346.983 83.12C346.065 83.12 345.223 83.3547 344.455 83.824C343.708 84.2933 343.057 84.9227 342.503 85.712C341.948 86.5013 341.511 87.408 341.191 88.432C340.892 89.456 340.743 90.5227 340.743 91.632C340.743 93.0613 340.988 94.1067 341.479 94.768C341.969 95.4293 342.577 95.76 343.303 95.76ZM366.318 98.128L368.11 87.12C368.238 86.288 368.238 85.584 368.11 85.008C368.004 84.432 367.78 83.9947 367.438 83.696C367.118 83.3973 366.692 83.248 366.158 83.248C365.625 83.248 365.06 83.408 364.462 83.728C363.865 84.048 363.278 84.528 362.702 85.168C362.148 85.808 361.657 86.6293 361.23 87.632C360.804 88.6347 360.473 89.808 360.238 91.152L359.182 98H356.046L359.662 75.216L360.078 75.824L357.23 75.216L357.518 73.456L363.086 73.232L360.718 86.928L359.566 88.56C360.078 86.6827 360.772 85.168 361.646 84.016C362.542 82.864 363.502 82.032 364.526 81.52C365.55 80.9867 366.532 80.72 367.47 80.72C368.388 80.72 369.166 80.944 369.806 81.392C370.446 81.84 370.905 82.4907 371.182 83.344C371.481 84.1973 371.524 85.232 371.31 86.448L369.774 96.176L368.462 95.184L372.206 96.208L371.918 97.968L366.318 98.128ZM384.774 70.704L379.91 101.36L372.838 101.2L373.158 99.184L377.574 98.992L381.702 73.04L377.318 72.88L377.638 70.864L384.774 70.704ZM401.627 87.376L401.243 89.872H392.155L392.539 87.376H401.627ZM414.93 98.32C414.12 98.32 413.362 98.1067 412.658 97.68C411.976 97.232 411.421 96.5493 410.994 95.632C410.589 94.6933 410.386 93.4773 410.386 91.984C410.386 90.448 410.621 88.9973 411.09 87.632C411.581 86.2667 412.253 85.072 413.106 84.048C413.96 83.0027 414.962 82.1813 416.114 81.584C417.288 80.9867 418.546 80.688 419.89 80.688C420.722 80.688 421.586 80.8267 422.482 81.104C423.378 81.3813 424.285 81.8293 425.202 82.448L423.826 82.224L424.53 81.04H426.258L423.698 97.2L422.61 95.184L426.322 96.208L426.034 97.968L420.754 98.128L421.778 92.048L422.706 90.48C422.258 92.2293 421.597 93.6907 420.722 94.864C419.848 96.016 418.898 96.88 417.874 97.456C416.85 98.032 415.869 98.32 414.93 98.32ZM416.146 95.76C416.68 95.76 417.245 95.6 417.842 95.28C418.461 94.9387 419.048 94.4373 419.602 93.776C420.157 93.0933 420.648 92.2507 421.074 91.248C421.522 90.2453 421.853 89.072 422.066 87.728L422.77 83.248L423.314 84.336C422.696 83.9093 422.098 83.6 421.522 83.408C420.946 83.216 420.381 83.12 419.826 83.12C418.909 83.12 418.066 83.3547 417.298 83.824C416.552 84.2933 415.901 84.9227 415.346 85.712C414.792 86.5013 414.354 87.408 414.034 88.432C413.736 89.456 413.586 90.5227 413.586 91.632C413.586 93.0613 413.832 94.1067 414.322 94.768C414.813 95.4293 415.421 95.76 416.146 95.76ZM429.808 98L432.368 81.904L433.456 83.856L429.776 82.832L430.032 81.136L435.472 80.912L434.288 86.928L433.328 88.56C433.754 86.896 434.384 85.4773 435.216 84.304C436.069 83.1307 437.008 82.2453 438.032 81.648C439.077 81.0293 440.101 80.72 441.104 80.72C441.616 80.72 442.053 80.7947 442.416 80.944L441.552 85.968H439.6L439.632 82.864L440.048 83.216C439.45 83.1733 438.842 83.3227 438.224 83.664C437.605 83.984 437.008 84.4853 436.432 85.168C435.877 85.8507 435.386 86.6933 434.96 87.696C434.533 88.6987 434.213 89.8507 434 91.152L432.944 98H429.808ZM443.276 98L445.836 81.904L446.924 83.856L443.244 82.832L443.5 81.136L448.94 80.912L447.756 86.928L446.796 88.56C447.223 86.896 447.852 85.4773 448.684 84.304C449.538 83.1307 450.476 82.2453 451.5 81.648C452.546 81.0293 453.57 80.72 454.572 80.72C455.084 80.72 455.522 80.7947 455.884 80.944L455.02 85.968H453.068L453.1 82.864L453.516 83.216C452.919 83.1733 452.311 83.3227 451.692 83.664C451.074 83.984 450.476 84.4853 449.9 85.168C449.346 85.8507 448.855 86.6933 448.428 87.696C448.002 88.6987 447.682 89.8507 447.468 91.152L446.412 98H443.276ZM455.373 101.36L460.237 70.704L467.277 70.864L466.989 72.88L462.541 73.04L458.445 98.992L462.829 99.184L462.477 101.2L455.373 101.36ZM467.046 98.128L470.822 74.224L471.942 76.144L468.262 75.216L468.518 73.456L474.118 73.232L470.342 97.136L469.19 95.184L472.934 96.208L472.646 97.968L467.046 98.128ZM484.976 80.72C486.235 80.72 487.333 80.9653 488.272 81.456C489.211 81.9253 489.947 82.672 490.48 83.696C491.013 84.72 491.28 86.0533 491.28 87.696C491.28 89.0187 491.088 90.32 490.704 91.6C490.341 92.8587 489.787 94 489.04 95.024C488.293 96.0267 487.344 96.8267 486.192 97.424C485.061 98.0213 483.739 98.32 482.224 98.32C480.987 98.32 479.888 98.0853 478.928 97.616C477.989 97.1253 477.253 96.368 476.72 95.344C476.208 94.2987 475.952 92.9547 475.952 91.312C475.952 89.9893 476.133 88.6987 476.496 87.44C476.88 86.1813 477.445 85.0507 478.192 84.048C478.939 83.024 479.877 82.2133 481.008 81.616C482.139 81.0187 483.461 80.72 484.976 80.72ZM484.656 83.056C483.696 83.056 482.864 83.3227 482.16 83.856C481.477 84.3893 480.912 85.0827 480.464 85.936C480.016 86.768 479.685 87.6747 479.472 88.656C479.259 89.616 479.152 90.5227 479.152 91.376C479.152 92.8267 479.429 93.9573 479.984 94.768C480.56 95.5787 481.424 95.984 482.576 95.984C483.515 95.984 484.325 95.7173 485.008 95.184C485.712 94.6507 486.288 93.968 486.736 93.136C487.184 92.2827 487.515 91.376 487.728 90.416C487.963 89.4347 488.08 88.5067 488.08 87.632C488.08 86.1813 487.803 85.0613 487.248 84.272C486.693 83.4613 485.829 83.056 484.656 83.056ZM496.087 98.064L494.359 82.928L494.743 83.248L492.695 82.864L492.951 81.136L497.239 80.912L498.391 96.208H497.943L504.215 81.104L507.543 80.944L508.855 96.176H508.503L514.103 82.896L514.263 83.344L512.055 82.864L512.311 81.136L518.295 80.912L518.071 82.608L516.247 83.152L516.759 82.768L509.943 98.064H506.551L504.951 83.376L505.815 83.44L499.479 98.064H496.087ZM528.056 70.704L523.192 101.36L516.12 101.2L516.44 99.184L520.856 98.992L524.984 73.04L520.6 72.88L520.92 70.864L528.056 70.704Z" fill="white"/>
<path d="M201.549 3.344C200.056 5.09333 198.754 6.992 197.645 9.04C196.536 11.088 195.672 13.2213 195.053 15.44C194.456 17.6587 194.157 19.888 194.157 22.128C194.157 23.9627 194.37 25.7973 194.797 27.632C195.245 29.4667 195.917 31.216 196.813 32.88L194.733 34C193.538 32.1653 192.653 30.2027 192.077 28.112C191.501 26.0213 191.213 23.8987 191.213 21.744C191.213 19.2907 191.565 16.88 192.269 14.512C192.973 12.144 193.954 9.89333 195.213 7.76C196.493 5.62667 197.986 3.67467 199.693 1.904L201.549 3.344ZM198.759 30L199.047 28.304L201.831 27.792L200.999 28.24L206.663 20.912L207.655 20.784L213.575 13.136L217.447 12.912L217.191 14.608L214.567 15.152L215.495 14.672L209.863 21.552L208.935 21.68L202.759 30H198.759ZM211.079 30L206.983 22.032L203.143 14.704L203.719 15.28L201.575 14.864L201.831 13.136L205.575 12.848L209.351 20.272L213.543 28.24L212.999 27.728L215.591 28.304L215.303 30H211.079ZM234.393 19.376L234.009 21.872H224.921L225.305 19.376H234.393ZM247.696 30.32C246.885 30.32 246.128 30.1067 245.424 29.68C244.741 29.232 244.187 28.5493 243.76 27.632C243.355 26.6933 243.152 25.4773 243.152 23.984C243.152 22.448 243.387 20.9973 243.856 19.632C244.347 18.2667 245.019 17.072 245.872 16.048C246.725 15.0027 247.728 14.1813 248.88 13.584C250.053 12.9867 251.312 12.688 252.656 12.688C253.488 12.688 254.352 12.8267 255.248 13.104C256.144 13.3813 257.051 13.8293 257.968 14.448L256.592 14.224L257.296 13.04H259.024L256.464 29.2L255.376 27.184L259.088 28.208L258.8 29.968L253.52 30.128L254.544 24.048L255.472 22.48C255.024 24.2293 254.363 25.6907 253.488 26.864C252.613 28.016 251.664 28.88 250.64 29.456C249.616 30.032 248.635 30.32 247.696 30.32ZM248.912 27.76C249.445 27.76 250.011 27.6 250.608 27.28C251.227 26.9387 251.813 26.4373 252.368 25.776C252.923 25.0933 253.413 24.2507 253.84 23.248C254.288 22.2453 254.619 21.072 254.832 19.728L255.536 15.248L256.08 16.336C255.461 15.9093 254.864 15.6 254.288 15.408C253.712 15.216 253.147 15.12 252.592 15.12C251.675 15.12 250.832 15.3547 250.064 15.824C249.317 16.2933 248.667 16.9227 248.112 17.712C247.557 18.5013 247.12 19.408 246.8 20.432C246.501 21.456 246.352 22.5227 246.352 23.632C246.352 25.0613 246.597 26.1067 247.088 26.768C247.579 27.4293 248.187 27.76 248.912 27.76ZM262.573 30L265.133 13.904L266.221 15.856L262.541 14.832L262.797 13.136L268.237 12.912L267.053 18.928L266.093 20.56C266.52 18.896 267.149 17.4773 267.981 16.304C268.835 15.1307 269.773 14.2453 270.797 13.648C271.843 13.0293 272.867 12.72 273.869 12.72C274.381 12.72 274.819 12.7947 275.181 12.944L274.317 17.968H272.365L272.397 14.864L272.813 15.216C272.216 15.1733 271.608 15.3227 270.989 15.664C270.371 15.984 269.773 16.4853 269.197 17.168C268.643 17.8507 268.152 18.6933 267.725 19.696C267.299 20.6987 266.979 21.8507 266.765 23.152L265.709 30H262.573ZM276.042 30L278.602 13.904L279.69 15.856L276.01 14.832L276.266 13.136L281.706 12.912L280.522 18.928L279.562 20.56C279.989 18.896 280.618 17.4773 281.45 16.304C282.303 15.1307 283.242 14.2453 284.266 13.648C285.311 13.0293 286.335 12.72 287.338 12.72C287.85 12.72 288.287 12.7947 288.65 12.944L287.786 17.968H285.834L285.866 14.864L286.282 15.216C285.685 15.1733 285.077 15.3227 284.458 15.664C283.839 15.984 283.242 16.4853 282.666 17.168C282.111 17.8507 281.621 18.6933 281.194 19.696C280.767 20.6987 280.447 21.8507 280.234 23.152L279.178 30H276.042ZM288.139 33.36L293.003 2.704L300.043 2.864L299.755 4.88L295.307 5.04L291.211 30.992L295.595 31.184L295.243 33.2L288.139 33.36ZM299.811 30.128L303.587 6.224L304.707 8.144L301.027 7.216L301.283 5.456L306.883 5.232L303.107 29.136L301.955 27.184L305.699 28.208L305.411 29.968L299.811 30.128ZM317.742 12.72C319 12.72 320.099 12.9653 321.038 13.456C321.976 13.9253 322.712 14.672 323.246 15.696C323.779 16.72 324.046 18.0533 324.046 19.696C324.046 21.0187 323.854 22.32 323.47 23.6C323.107 24.8587 322.552 26 321.806 27.024C321.059 28.0267 320.11 28.8267 318.958 29.424C317.827 30.0213 316.504 30.32 314.99 30.32C313.752 30.32 312.654 30.0853 311.694 29.616C310.755 29.1253 310.019 28.368 309.486 27.344C308.974 26.2987 308.718 24.9547 308.718 23.312C308.718 21.9893 308.899 20.6987 309.262 19.44C309.646 18.1813 310.211 17.0507 310.958 16.048C311.704 15.024 312.643 14.2133 313.774 13.616C314.904 13.0187 316.227 12.72 317.742 12.72ZM317.422 15.056C316.462 15.056 315.63 15.3227 314.926 15.856C314.243 16.3893 313.678 17.0827 313.23 17.936C312.782 18.768 312.451 19.6747 312.238 20.656C312.024 21.616 311.918 22.5227 311.918 23.376C311.918 24.8267 312.195 25.9573 312.75 26.768C313.326 27.5787 314.19 27.984 315.342 27.984C316.28 27.984 317.091 27.7173 317.774 27.184C318.478 26.6507 319.054 25.968 319.502 25.136C319.95 24.2827 320.28 23.376 320.494 22.416C320.728 21.4347 320.846 20.5067 320.846 19.632C320.846 18.1813 320.568 17.0613 320.014 16.272C319.459 15.4613 318.595 15.056 317.422 15.056ZM328.853 30.064L327.125 14.928L327.509 15.248L325.461 14.864L325.717 13.136L330.005 12.912L331.157 28.208H330.709L336.981 13.104L340.309 12.944L341.621 28.176H341.269L346.869 14.896L347.029 15.344L344.821 14.864L345.077 13.136L351.061 12.912L350.837 14.608L349.013 15.152L349.525 14.768L342.709 30.064H339.317L337.717 15.376L338.581 15.44L332.245 30.064H328.853ZM360.821 2.704L355.957 33.36L348.885 33.2L349.205 31.184L353.621 30.992L357.749 5.04L353.365 4.88L353.685 2.864L360.821 2.704ZM359.545 32.752C361.039 31.0027 362.34 29.104 363.449 27.056C364.559 25.008 365.412 22.8747 366.009 20.656C366.628 18.4373 366.937 16.208 366.937 13.968C366.937 12.1333 366.724 10.2987 366.297 8.464C365.871 6.62933 365.199 4.88 364.281 3.216L366.361 2.064C367.577 3.92 368.463 5.89333 369.017 7.984C369.593 10.0747 369.881 12.1973 369.881 14.352C369.881 16.784 369.529 19.184 368.825 21.552C368.121 23.92 367.129 26.1707 365.849 28.304C364.591 30.4373 363.108 32.4 361.401 34.192L359.545 32.752Z" fill="white"/>
<path d="M438.846 3.344C437.353 5.09333 436.051 6.992 434.942 9.04C433.833 11.088 432.969 13.2213 432.35 15.44C431.753 17.6587 431.454 19.888 431.454 22.128C431.454 23.9627 431.667 25.7973 432.094 27.632C432.542 29.4667 433.214 31.216 434.11 32.88L432.03 34C430.835 32.1653 429.95 30.2027 429.374 28.112C428.798 26.0213 428.51 23.8987 428.51 21.744C428.51 19.2907 428.862 16.88 429.566 14.512C430.27 12.144 431.251 9.89333 432.51 7.76C433.79 5.62667 435.283 3.67467 436.99 1.904L438.846 3.344ZM448.6 30.128L450.392 19.12C450.52 18.288 450.52 17.584 450.392 17.008C450.285 16.432 450.061 15.9947 449.72 15.696C449.4 15.3973 448.973 15.248 448.44 15.248C447.906 15.248 447.341 15.408 446.744 15.728C446.146 16.048 445.56 16.528 444.984 17.168C444.429 17.808 443.938 18.6293 443.512 19.632C443.085 20.6347 442.754 21.808 442.52 23.152L441.464 30H438.328L441.944 7.216L442.36 7.824L439.512 7.216L439.8 5.456L445.368 5.232L443 18.928L441.848 20.56C442.36 18.6827 443.053 17.168 443.928 16.016C444.824 14.864 445.784 14.032 446.808 13.52C447.832 12.9867 448.813 12.72 449.752 12.72C450.669 12.72 451.448 12.944 452.088 13.392C452.728 13.84 453.186 14.4907 453.464 15.344C453.762 16.1973 453.805 17.232 453.592 18.448L452.056 28.176L450.744 27.184L454.488 28.208L454.2 29.968L448.6 30.128ZM457.776 30.128L460.368 13.904L461.488 15.856L457.776 14.832L458.032 13.136L463.632 12.912L461.072 29.168L459.984 27.216L463.664 28.272L463.376 29.968L457.776 30.128ZM462.64 9.808C462.085 9.808 461.648 9.63733 461.328 9.296C461.008 8.95467 460.848 8.50667 460.848 7.952C460.848 7.26933 461.05 6.71467 461.456 6.288C461.882 5.86133 462.416 5.648 463.056 5.648C463.61 5.648 464.048 5.808 464.368 6.128C464.688 6.448 464.848 6.90667 464.848 7.504C464.848 8.16533 464.634 8.72 464.208 9.168C463.802 9.59467 463.28 9.808 462.64 9.808ZM471.439 37.68C470.5 37.68 469.54 37.584 468.559 37.392C467.577 37.2 466.617 36.944 465.679 36.624L466.351 34.352C467.247 34.6507 468.121 34.8853 468.975 35.056C469.849 35.2267 470.639 35.312 471.343 35.312C472.303 35.312 473.103 35.1733 473.743 34.896C474.404 34.64 474.937 34.2773 475.343 33.808C475.769 33.3387 476.1 32.7947 476.335 32.176C476.591 31.5573 476.772 30.9067 476.879 30.224L477.839 24.016L478.863 22.48C478.415 24.2293 477.753 25.6907 476.879 26.864C476.025 28.016 475.076 28.88 474.031 29.456C473.007 30.032 472.025 30.32 471.087 30.32C470.276 30.32 469.519 30.1067 468.815 29.68C468.132 29.232 467.577 28.5493 467.151 27.632C466.745 26.6933 466.543 25.4773 466.543 23.984C466.543 22.448 466.777 20.9973 467.247 19.632C467.737 18.2667 468.409 17.072 469.263 16.048C470.116 15.0027 471.119 14.192 472.271 13.616C473.444 13.0187 474.703 12.72 476.047 12.72C476.879 12.72 477.743 12.8587 478.639 13.136C479.535 13.392 480.441 13.8293 481.359 14.448L480.015 14.16L480.687 13.04H482.415L479.727 30.16C479.492 31.568 479.119 32.752 478.607 33.712C478.116 34.672 477.497 35.44 476.751 36.016C476.025 36.6133 475.204 37.04 474.287 37.296C473.391 37.552 472.441 37.68 471.439 37.68ZM472.303 27.76C472.836 27.76 473.401 27.6 473.999 27.28C474.596 26.9387 475.172 26.4373 475.727 25.776C476.303 25.0933 476.804 24.2507 477.231 23.248C477.657 22.2453 477.988 21.072 478.223 19.728L478.927 15.248L479.471 16.336C478.852 15.9093 478.255 15.6 477.679 15.408C477.103 15.216 476.537 15.12 475.983 15.12C475.065 15.12 474.223 15.3547 473.455 15.824C472.708 16.2933 472.057 16.9227 471.503 17.712C470.948 18.5013 470.511 19.408 470.191 20.432C469.892 21.456 469.743 22.5227 469.743 23.632C469.743 25.0613 469.988 26.1067 470.479 26.768C470.969 27.4293 471.577 27.76 472.303 27.76ZM495.318 30.128L497.11 19.12C497.238 18.288 497.238 17.584 497.11 17.008C497.004 16.432 496.78 15.9947 496.438 15.696C496.118 15.3973 495.692 15.248 495.158 15.248C494.625 15.248 494.06 15.408 493.462 15.728C492.865 16.048 492.278 16.528 491.702 17.168C491.148 17.808 490.657 18.6293 490.23 19.632C489.804 20.6347 489.473 21.808 489.238 23.152L488.182 30H485.046L488.662 7.216L489.078 7.824L486.23 7.216L486.518 5.456L492.086 5.232L489.718 18.928L488.566 20.56C489.078 18.6827 489.772 17.168 490.646 16.016C491.542 14.864 492.502 14.032 493.526 13.52C494.55 12.9867 495.532 12.72 496.47 12.72C497.388 12.72 498.166 12.944 498.806 13.392C499.446 13.84 499.905 14.4907 500.182 15.344C500.481 16.1973 500.524 17.232 500.31 18.448L498.774 28.176L497.462 27.184L501.206 28.208L500.918 29.968L495.318 30.128ZM520.127 19.376L519.743 21.872H510.655L511.039 19.376H520.127ZM529.014 30.128L532.79 6.224L533.91 8.144L530.23 7.216L530.486 5.456L536.086 5.232L532.31 29.136L531.158 27.184L534.902 28.208L534.614 29.968L529.014 30.128ZM546.945 12.72C548.203 12.72 549.302 12.9653 550.241 13.456C551.179 13.9253 551.915 14.672 552.449 15.696C552.982 16.72 553.249 18.0533 553.249 19.696C553.249 21.0187 553.057 22.32 552.673 23.6C552.31 24.8587 551.755 26 551.009 27.024C550.262 28.0267 549.313 28.8267 548.161 29.424C547.03 30.0213 545.707 30.32 544.193 30.32C542.955 30.32 541.857 30.0853 540.897 29.616C539.958 29.1253 539.222 28.368 538.689 27.344C538.177 26.2987 537.921 24.9547 537.921 23.312C537.921 21.9893 538.102 20.6987 538.465 19.44C538.849 18.1813 539.414 17.0507 540.161 16.048C540.907 15.024 541.846 14.2133 542.977 13.616C544.107 13.0187 545.43 12.72 546.945 12.72ZM546.625 15.056C545.665 15.056 544.833 15.3227 544.129 15.856C543.446 16.3893 542.881 17.0827 542.433 17.936C541.985 18.768 541.654 19.6747 541.441 20.656C541.227 21.616 541.121 22.5227 541.121 23.376C541.121 24.8267 541.398 25.9573 541.953 26.768C542.529 27.5787 543.393 27.984 544.545 27.984C545.483 27.984 546.294 27.7173 546.977 27.184C547.681 26.6507 548.257 25.968 548.705 25.136C549.153 24.2827 549.483 23.376 549.697 22.416C549.931 21.4347 550.049 20.5067 550.049 19.632C550.049 18.1813 549.771 17.0613 549.217 16.272C548.662 15.4613 547.798 15.056 546.625 15.056ZM558.056 30.064L556.328 14.928L556.712 15.248L554.664 14.864L554.92 13.136L559.208 12.912L560.36 28.208H559.912L566.184 13.104L569.512 12.944L570.824 28.176H570.472L576.072 14.896L576.232 15.344L574.024 14.864L574.28 13.136L580.264 12.912L580.04 14.608L578.216 15.152L578.728 14.768L571.912 30.064H568.52L566.92 15.376L567.784 15.44L561.448 30.064H558.056ZM578.248 32.752C579.742 31.0027 581.043 29.104 582.152 27.056C583.262 25.008 584.115 22.8747 584.712 20.656C585.331 18.4373 585.64 16.208 585.64 13.968C585.64 12.1333 585.427 10.2987 585 8.464C584.574 6.62933 583.902 4.88 582.984 3.216L585.064 2.064C586.28 3.92 587.166 5.89333 587.72 7.984C588.296 10.0747 588.584 12.1973 588.584 14.352C588.584 16.784 588.232 19.184 587.528 21.552C586.824 23.92 585.832 26.1707 584.552 28.304C583.294 30.4373 581.811 32.4 580.104 34.192L578.248 32.752Z" fill="white"/>
<path d="M407.25 13.75L391.75 29.25" stroke="white" stroke-width="2" stroke-linecap="round" stroke-linejoin="round"/>
<path d="M391.75 13.75L407.25 29.25" stroke="white" stroke-width="2" stroke-linecap="round" stroke-linejoin="round"/>
<line x1="190" y1="53" x2="589" y2="53" stroke="white" stroke-width="2"/>
<path d="M1.25487 191.36L1.51087 189.664L5.47888 188.64L3.84688 190.368L7.23888 168.896L7.68688 169.504L4.80688 168.832L5.06288 167.136L10.5349 166.912L9.35088 173.088L8.51888 174.528C8.96688 172.779 9.60688 171.328 10.4389 170.176C11.2922 169.003 12.2202 168.139 13.2229 167.584C14.2469 167.008 15.2389 166.72 16.1989 166.72C17.0095 166.72 17.7562 166.933 18.4389 167.36C19.1215 167.787 19.6655 168.469 20.0709 169.408C20.4975 170.347 20.7109 171.584 20.7109 173.12C20.7109 175.168 20.3482 176.971 19.6229 178.528C18.9189 180.085 17.9162 181.344 16.6149 182.304C15.3349 183.264 13.8095 183.872 12.0389 184.128C10.2682 184.384 8.32688 184.245 6.21488 183.712L8.07088 183.424L6.95088 190.432L5.83088 188.576L9.79888 189.664L9.54288 191.36H1.25487ZM8.26288 182.24L7.59088 181.28C9.08421 181.813 10.4389 181.995 11.6549 181.824C12.8922 181.653 13.9375 181.205 14.7909 180.48C15.6655 179.733 16.3375 178.763 16.8069 177.568C17.2762 176.352 17.5109 174.976 17.5109 173.44C17.5109 171.947 17.2655 170.88 16.7749 170.24C16.2842 169.579 15.6762 169.248 14.9509 169.248C14.4175 169.248 13.8522 169.419 13.2549 169.76C12.6575 170.08 12.0709 170.581 11.4949 171.264C10.9402 171.925 10.4389 172.757 9.99088 173.76C9.56421 174.763 9.24421 175.936 9.03088 177.28L8.26288 182.24ZM32.5071 166.72C33.7658 166.72 34.8645 166.965 35.8031 167.456C36.7418 167.925 37.4778 168.672 38.0111 169.696C38.5445 170.72 38.8111 172.053 38.8111 173.696C38.8111 175.019 38.6191 176.32 38.2351 177.6C37.8725 178.859 37.3178 180 36.5711 181.024C35.8245 182.027 34.8751 182.827 33.7231 183.424C32.5925 184.021 31.2698 184.32 29.7551 184.32C28.5178 184.32 27.4191 184.085 26.4591 183.616C25.5205 183.125 24.7845 182.368 24.2511 181.344C23.7391 180.299 23.4831 178.955 23.4831 177.312C23.4831 175.989 23.6645 174.699 24.0271 173.44C24.4111 172.181 24.9765 171.051 25.7231 170.048C26.4698 169.024 27.4085 168.213 28.5391 167.616C29.6698 167.019 30.9925 166.72 32.5071 166.72ZM32.1871 169.056C31.2271 169.056 30.3951 169.323 29.6911 169.856C29.0085 170.389 28.4431 171.083 27.9951 171.936C27.5471 172.768 27.2165 173.675 27.0031 174.656C26.7898 175.616 26.6831 176.523 26.6831 177.376C26.6831 178.827 26.9605 179.957 27.5151 180.768C28.0911 181.579 28.9551 181.984 30.1071 181.984C31.0458 181.984 31.8565 181.717 32.5391 181.184C33.2431 180.651 33.8191 179.968 34.2671 179.136C34.7151 178.283 35.0458 177.376 35.2591 176.416C35.4938 175.435 35.6111 174.507 35.6111 173.632C35.6111 172.181 35.3338 171.061 34.7791 170.272C34.2245 169.461 33.3605 169.056 32.1871 169.056ZM45.5509 184.32C44.7402 184.32 43.8869 184.256 42.9909 184.128C42.0949 184 41.2095 183.819 40.3349 183.584L41.1349 178.88H43.1189L42.9909 182.176L42.5749 181.472C43.0442 181.643 43.5349 181.781 44.0469 181.888C44.5802 181.995 45.1349 182.048 45.7109 182.048C46.5215 182.048 47.2575 181.952 47.9189 181.76C48.5802 181.547 49.1029 181.237 49.4869 180.832C49.8922 180.427 50.0949 179.925 50.0949 179.328C50.1162 178.752 49.9349 178.293 49.5509 177.952C49.1882 177.589 48.7082 177.28 48.1109 177.024C47.5349 176.768 46.9055 176.512 46.2229 176.256C45.5615 176 44.9322 175.691 44.3349 175.328C43.7589 174.965 43.2895 174.507 42.9269 173.952C42.5642 173.397 42.3935 172.683 42.4149 171.808C42.4149 170.741 42.7135 169.824 43.3109 169.056C43.9295 168.288 44.7509 167.712 45.7749 167.328C46.8202 166.923 47.9935 166.72 49.2949 166.72C50.1055 166.72 50.9482 166.805 51.8229 166.976C52.6975 167.125 53.5829 167.349 54.4789 167.648L53.7749 171.68H51.8229L51.6949 168.96L52.2709 169.504C51.7802 169.291 51.2789 169.141 50.7669 169.056C50.2549 168.971 49.7855 168.928 49.3589 168.928C48.6335 168.928 47.9829 169.035 47.4069 169.248C46.8522 169.461 46.4042 169.749 46.0629 170.112C45.7429 170.453 45.5722 170.88 45.5509 171.392C45.5509 171.947 45.7322 172.405 46.0949 172.768C46.4575 173.109 46.9375 173.408 47.5349 173.664C48.1322 173.92 48.7615 174.187 49.4229 174.464C50.1055 174.72 50.7349 175.04 51.3109 175.424C51.9082 175.787 52.3882 176.245 52.7509 176.8C53.1349 177.355 53.3162 178.069 53.2949 178.944C53.2735 180.053 52.9322 181.013 52.2709 181.824C51.6095 182.635 50.6922 183.253 49.5189 183.68C48.3455 184.107 47.0229 184.32 45.5509 184.32ZM80.0184 168.672L79.6344 171.008H65.7464L66.1304 168.672H80.0184ZM79.0584 174.816L78.6744 177.152H64.7864L65.1704 174.816H79.0584ZM97.2151 184.32C95.8498 184.32 94.6871 184.053 93.7271 183.52C92.7671 182.965 92.0418 182.091 91.5511 180.896C91.0605 179.68 90.8151 178.091 90.8151 176.128C90.8151 174.955 90.9111 173.696 91.1031 172.352C91.3165 170.987 91.6578 169.653 92.1271 168.352C92.5965 167.051 93.2258 165.867 94.0151 164.8C94.8258 163.733 95.8285 162.88 97.0231 162.24C98.2178 161.6 99.6365 161.28 101.279 161.28C103.327 161.28 104.884 161.877 105.951 163.072C107.018 164.267 107.551 166.304 107.551 169.184C107.551 170.4 107.444 171.701 107.231 173.088C107.039 174.453 106.708 175.797 106.239 177.12C105.77 178.443 105.14 179.648 104.351 180.736C103.562 181.824 102.58 182.699 101.407 183.36C100.234 184 98.8365 184.32 97.2151 184.32ZM97.5991 181.76C98.6231 181.76 99.5085 181.461 100.255 180.864C101.023 180.245 101.663 179.435 102.175 178.432C102.708 177.429 103.124 176.352 103.423 175.2C103.743 174.027 103.967 172.875 104.095 171.744C104.244 170.613 104.319 169.621 104.319 168.768C104.319 167.509 104.18 166.528 103.903 165.824C103.626 165.099 103.231 164.587 102.719 164.288C102.207 163.989 101.599 163.84 100.895 163.84C99.8285 163.84 98.9005 164.128 98.1111 164.704C97.3431 165.28 96.6925 166.048 96.1591 167.008C95.6471 167.947 95.2311 168.981 94.9111 170.112C94.6125 171.221 94.3885 172.331 94.2391 173.44C94.1111 174.528 94.0471 175.509 94.0471 176.384C94.0471 178.368 94.3565 179.765 94.9751 180.576C95.6151 181.365 96.4898 181.76 97.5991 181.76ZM123.502 171.648L122.862 172.224L123.95 165.12H126.35L125.262 172.224L124.782 171.648H131.342L130.99 173.984H124.366L125.006 173.408L123.918 180.512H121.518L122.638 173.408L123.086 173.984H116.526L116.878 171.648H123.502ZM144.795 184.32C143.6 184.32 142.459 184.16 141.371 183.84C140.283 183.52 139.28 183.061 138.363 182.464L139.483 180.128C141.126 181.152 142.864 181.664 144.699 181.664C145.83 181.664 146.832 181.461 147.707 181.056C148.582 180.651 149.264 180.085 149.755 179.36C150.267 178.613 150.523 177.749 150.523 176.768C150.523 176.021 150.352 175.413 150.011 174.944C149.67 174.453 149.168 174.091 148.507 173.856C147.867 173.621 147.088 173.504 146.171 173.504H143.611L143.995 171.104H146.523C148.187 171.104 149.456 170.677 150.331 169.824C151.227 168.971 151.675 167.915 151.675 166.656C151.675 165.525 151.344 164.757 150.683 164.352C150.043 163.925 149.222 163.712 148.219 163.712C147.536 163.712 146.811 163.787 146.043 163.936C145.296 164.085 144.582 164.267 143.899 164.48L144.347 163.968L143.451 167.584H141.531L141.979 162.528C143.216 162.123 144.432 161.813 145.627 161.6C146.822 161.387 147.931 161.28 148.955 161.28C150.107 161.28 151.131 161.44 152.027 161.76C152.944 162.059 153.659 162.56 154.171 163.264C154.704 163.947 154.971 164.896 154.971 166.112C154.971 167.861 154.406 169.28 153.275 170.368C152.166 171.435 150.704 172.085 148.891 172.32L148.635 172.032C150.406 172.181 151.696 172.651 152.507 173.44C153.318 174.229 153.723 175.339 153.723 176.768C153.723 178.24 153.339 179.552 152.571 180.704C151.803 181.835 150.747 182.72 149.403 183.36C148.059 184 146.523 184.32 144.795 184.32Z" fill="white"/>
<path d="M0.504875 293.36L0.760875 291.664L4.72888 290.64L3.09688 292.368L6.48888 270.896L6.93688 271.504L4.05688 270.832L4.31288 269.136L9.78488 268.912L8.60088 275.088L7.76888 276.528C8.21688 274.779 8.85688 273.328 9.68888 272.176C10.5422 271.003 11.4702 270.139 12.4729 269.584C13.4969 269.008 14.4889 268.72 15.4489 268.72C16.2595 268.72 17.0062 268.933 17.6889 269.36C18.3715 269.787 18.9155 270.469 19.3209 271.408C19.7475 272.347 19.9609 273.584 19.9609 275.12C19.9609 277.168 19.5982 278.971 18.8729 280.528C18.1689 282.085 17.1662 283.344 15.8649 284.304C14.5849 285.264 13.0595 285.872 11.2889 286.128C9.51821 286.384 7.57688 286.245 5.46488 285.712L7.32088 285.424L6.20088 292.432L5.08088 290.576L9.04888 291.664L8.79288 293.36H0.504875ZM7.51288 284.24L6.84088 283.28C8.33421 283.813 9.68888 283.995 10.9049 283.824C12.1422 283.653 13.1875 283.205 14.0409 282.48C14.9155 281.733 15.5875 280.763 16.0569 279.568C16.5262 278.352 16.7609 276.976 16.7609 275.44C16.7609 273.947 16.5155 272.88 16.0249 272.24C15.5342 271.579 14.9262 271.248 14.2009 271.248C13.6675 271.248 13.1022 271.419 12.5049 271.76C11.9075 272.08 11.3209 272.581 10.7449 273.264C10.1902 273.925 9.68888 274.757 9.24088 275.76C8.81421 276.763 8.49421 277.936 8.28088 279.28L7.51288 284.24ZM31.7571 268.72C33.0158 268.72 34.1145 268.965 35.0531 269.456C35.9918 269.925 36.7278 270.672 37.2611 271.696C37.7945 272.72 38.0611 274.053 38.0611 275.696C38.0611 277.019 37.8691 278.32 37.4851 279.6C37.1225 280.859 36.5678 282 35.8211 283.024C35.0745 284.027 34.1251 284.827 32.9731 285.424C31.8425 286.021 30.5198 286.32 29.0051 286.32C27.7678 286.32 26.6691 286.085 25.7091 285.616C24.7705 285.125 24.0345 284.368 23.5011 283.344C22.9891 282.299 22.7331 280.955 22.7331 279.312C22.7331 277.989 22.9145 276.699 23.2771 275.44C23.6611 274.181 24.2265 273.051 24.9731 272.048C25.7198 271.024 26.6585 270.213 27.7891 269.616C28.9198 269.019 30.2425 268.72 31.7571 268.72ZM31.4371 271.056C30.4771 271.056 29.6451 271.323 28.9411 271.856C28.2585 272.389 27.6931 273.083 27.2451 273.936C26.7971 274.768 26.4665 275.675 26.2531 276.656C26.0398 277.616 25.9331 278.523 25.9331 279.376C25.9331 280.827 26.2105 281.957 26.7651 282.768C27.3411 283.579 28.2051 283.984 29.3571 283.984C30.2958 283.984 31.1065 283.717 31.7891 283.184C32.4931 282.651 33.0691 281.968 33.5171 281.136C33.9651 280.283 34.2958 279.376 34.5091 278.416C34.7438 277.435 34.8611 276.507 34.8611 275.632C34.8611 274.181 34.5838 273.061 34.0291 272.272C33.4745 271.461 32.6105 271.056 31.4371 271.056ZM44.8009 286.32C43.9902 286.32 43.1369 286.256 42.2409 286.128C41.3449 286 40.4595 285.819 39.5849 285.584L40.3849 280.88H42.3689L42.2409 284.176L41.8249 283.472C42.2942 283.643 42.7849 283.781 43.2969 283.888C43.8302 283.995 44.3849 284.048 44.9609 284.048C45.7715 284.048 46.5075 283.952 47.1689 283.76C47.8302 283.547 48.3529 283.237 48.7369 282.832C49.1422 282.427 49.3449 281.925 49.3449 281.328C49.3662 280.752 49.1849 280.293 48.8009 279.952C48.4382 279.589 47.9582 279.28 47.3609 279.024C46.7849 278.768 46.1555 278.512 45.4729 278.256C44.8115 278 44.1822 277.691 43.5849 277.328C43.0089 276.965 42.5395 276.507 42.1769 275.952C41.8142 275.397 41.6435 274.683 41.6649 273.808C41.6649 272.741 41.9635 271.824 42.5609 271.056C43.1795 270.288 44.0009 269.712 45.0249 269.328C46.0702 268.923 47.2435 268.72 48.5449 268.72C49.3555 268.72 50.1982 268.805 51.0729 268.976C51.9475 269.125 52.8329 269.349 53.7289 269.648L53.0249 273.68H51.0729L50.9449 270.96L51.5209 271.504C51.0302 271.291 50.5289 271.141 50.0169 271.056C49.5049 270.971 49.0355 270.928 48.6089 270.928C47.8835 270.928 47.2329 271.035 46.6569 271.248C46.1022 271.461 45.6542 271.749 45.3129 272.112C44.9929 272.453 44.8222 272.88 44.8009 273.392C44.8009 273.947 44.9822 274.405 45.3449 274.768C45.7075 275.109 46.1875 275.408 46.7849 275.664C47.3822 275.92 48.0115 276.187 48.6729 276.464C49.3555 276.72 49.9849 277.04 50.5609 277.424C51.1582 277.787 51.6382 278.245 52.0009 278.8C52.3849 279.355 52.5662 280.069 52.5449 280.944C52.5235 282.053 52.1822 283.013 51.5209 283.824C50.8595 284.635 49.9422 285.253 48.7689 285.68C47.5955 286.107 46.2729 286.32 44.8009 286.32ZM79.2684 270.672L78.8844 273.008H64.9964L65.3804 270.672H79.2684ZM78.3084 276.816L77.9244 279.152H64.0364L64.4204 276.816H78.3084ZM94.5451 286.32C93.3505 286.32 92.2091 286.16 91.1211 285.84C90.0331 285.52 89.0305 285.061 88.1131 284.464L89.2331 282.128C90.8758 283.152 92.6145 283.664 94.4491 283.664C95.5798 283.664 96.5825 283.461 97.4571 283.056C98.3318 282.651 99.0145 282.085 99.5051 281.36C100.017 280.613 100.273 279.749 100.273 278.768C100.273 278.021 100.102 277.413 99.7611 276.944C99.4198 276.453 98.9185 276.091 98.2571 275.856C97.6171 275.621 96.8385 275.504 95.9211 275.504H93.3611L93.7451 273.104H96.2731C97.9371 273.104 99.2065 272.677 100.081 271.824C100.977 270.971 101.425 269.915 101.425 268.656C101.425 267.525 101.094 266.757 100.433 266.352C99.7931 265.925 98.9718 265.712 97.9691 265.712C97.2865 265.712 96.5611 265.787 95.7931 265.936C95.0465 266.085 94.3318 266.267 93.6491 266.48L94.0971 265.968L93.2011 269.584H91.2811L91.7291 264.528C92.9665 264.123 94.1825 263.813 95.3771 263.6C96.5718 263.387 97.6811 263.28 98.7051 263.28C99.8571 263.28 100.881 263.44 101.777 263.76C102.694 264.059 103.409 264.56 103.921 265.264C104.454 265.947 104.721 266.896 104.721 268.112C104.721 269.861 104.156 271.28 103.025 272.368C101.916 273.435 100.454 274.085 98.6411 274.32L98.3851 274.032C100.156 274.181 101.446 274.651 102.257 275.44C103.068 276.229 103.473 277.339 103.473 278.768C103.473 280.24 103.089 281.552 102.321 282.704C101.553 283.835 100.497 284.72 99.1531 285.36C97.8091 286 96.2731 286.32 94.5451 286.32Z" fill="white"/>
</svg>
