<svg width="279" height="106" viewBox="0 0 279 106" fill="none" xmlns="http://www.w3.org/2000/svg">
<path d="M7.18038 98.32C6.36971 98.32 5.61238 98.1067 4.90838 97.68C4.22571 97.232 3.67104 96.5493 3.24438 95.632C2.83904 94.6933 2.63638 93.4773 2.63638 91.984C2.63638 90.448 2.87104 88.9973 3.34038 87.632C3.83104 86.2667 4.50304 85.072 5.35638 84.048C6.20971 83.0027 7.21238 82.1813 8.36438 81.584C9.53771 80.9867 10.7964 80.688 12.1404 80.688C12.9724 80.688 13.8364 80.8267 14.7324 81.104C15.6284 81.3813 16.535 81.8293 17.4524 82.448L16.0764 82.224L16.7804 81.04H18.5084L15.9484 97.2L14.8604 95.184L18.5724 96.208L18.2844 97.968L13.0044 98.128L14.0284 92.048L14.9564 90.48C14.5084 92.2293 13.847 93.6907 12.9724 94.864C12.0977 96.016 11.1484 96.88 10.1244 97.456C9.10038 98.032 8.11904 98.32 7.18038 98.32ZM8.39638 95.76C8.92971 95.76 9.49504 95.6 10.0924 95.28C10.711 94.9387 11.2977 94.4373 11.8524 93.776C12.407 93.0933 12.8977 92.2507 13.3244 91.248C13.7724 90.2453 14.103 89.072 14.3164 87.728L15.0204 83.248L15.5644 84.336C14.9457 83.9093 14.3484 83.6 13.7724 83.408C13.1964 83.216 12.631 83.12 12.0764 83.12C11.159 83.12 10.3164 83.3547 9.54838 83.824C8.80171 84.2933 8.15104 84.9227 7.59638 85.712C7.04171 86.5013 6.60438 87.408 6.28438 88.432C5.98571 89.456 5.83638 90.5227 5.83638 91.632C5.83638 93.0613 6.08171 94.1067 6.57238 94.768C7.06304 95.4293 7.67104 95.76 8.39638 95.76ZM22.0576 98L24.6176 81.904L25.7056 83.856L22.0256 82.832L22.2816 81.136L27.7216 80.912L26.5376 86.928L25.5776 88.56C26.0043 86.896 26.6336 85.4773 27.4656 84.304C28.319 83.1307 29.2576 82.2453 30.2816 81.648C31.327 81.0293 32.351 80.72 33.3536 80.72C33.8656 80.72 34.303 80.7947 34.6656 80.944L33.8016 85.968H31.8496L31.8816 82.864L32.2976 83.216C31.7003 83.1733 31.0923 83.3227 30.4736 83.664C29.855 83.984 29.2576 84.4853 28.6816 85.168C28.127 85.8507 27.6363 86.6933 27.2096 87.696C26.783 88.6987 26.463 89.8507 26.2496 91.152L25.1936 98H22.0576ZM35.5264 98L38.0864 81.904L39.1744 83.856L35.4944 82.832L35.7504 81.136L41.1904 80.912L40.0064 86.928L39.0464 88.56C39.473 86.896 40.1024 85.4773 40.9344 84.304C41.7877 83.1307 42.7264 82.2453 43.7504 81.648C44.7957 81.0293 45.8197 80.72 46.8224 80.72C47.3344 80.72 47.7717 80.7947 48.1344 80.944L47.2704 85.968H45.3184L45.3504 82.864L45.7664 83.216C45.169 83.1733 44.561 83.3227 43.9424 83.664C43.3237 83.984 42.7264 84.4853 42.1504 85.168C41.5957 85.8507 41.105 86.6933 40.6784 87.696C40.2517 88.6987 39.9317 89.8507 39.7184 91.152L38.6624 98H35.5264ZM47.6229 101.36L52.4869 70.704L59.5269 70.864L59.2389 72.88L54.7909 73.04L50.6949 98.992L55.0789 99.184L54.7269 101.2L47.6229 101.36ZM69.5996 98.128L71.3916 87.12C71.5196 86.288 71.5196 85.584 71.3916 85.008C71.285 84.432 71.061 83.9947 70.7196 83.696C70.3996 83.3973 69.973 83.248 69.4396 83.248C68.9063 83.248 68.341 83.408 67.7436 83.728C67.1463 84.048 66.5596 84.528 65.9836 85.168C65.429 85.808 64.9383 86.6293 64.5116 87.632C64.085 88.6347 63.7543 89.808 63.5196 91.152L62.4636 98H59.3276L62.9436 75.216L63.3596 75.824L60.5116 75.216L60.7996 73.456L66.3676 73.232L63.9996 86.928L62.8476 88.56C63.3596 86.6827 64.053 85.168 64.9276 84.016C65.8236 82.864 66.7836 82.032 67.8076 81.52C68.8316 80.9867 69.813 80.72 70.7516 80.72C71.669 80.72 72.4476 80.944 73.0876 81.392C73.7276 81.84 74.1863 82.4907 74.4636 83.344C74.7623 84.1973 74.805 85.232 74.5916 86.448L73.0556 96.176L71.7436 95.184L75.4876 96.208L75.1996 97.968L69.5996 98.128ZM78.7756 98.128L81.3676 81.904L82.4876 83.856L78.7756 82.832L79.0316 81.136L84.6316 80.912L82.0716 97.168L80.9836 95.216L84.6636 96.272L84.3756 97.968L78.7756 98.128ZM83.6396 77.808C83.085 77.808 82.6476 77.6373 82.3276 77.296C82.0076 76.9547 81.8476 76.5067 81.8476 75.952C81.8476 75.2693 82.0503 74.7147 82.4556 74.288C82.8823 73.8613 83.4156 73.648 84.0556 73.648C84.6103 73.648 85.0476 73.808 85.3676 74.128C85.6876 74.448 85.8476 74.9067 85.8476 75.504C85.8476 76.1653 85.6343 76.72 85.2076 77.168C84.8023 77.5947 84.2796 77.808 83.6396 77.808ZM92.4386 105.68C91.5 105.68 90.54 105.584 89.5586 105.392C88.5773 105.2 87.6173 104.944 86.6786 104.624L87.3506 102.352C88.2466 102.651 89.1213 102.885 89.9746 103.056C90.8493 103.227 91.6386 103.312 92.3426 103.312C93.3026 103.312 94.1026 103.173 94.7426 102.896C95.404 102.64 95.9373 102.277 96.3426 101.808C96.7693 101.339 97.1 100.795 97.3346 100.176C97.5906 99.5573 97.772 98.9067 97.8786 98.224L98.8386 92.016L99.8626 90.48C99.4146 92.2293 98.7533 93.6907 97.8786 94.864C97.0253 96.016 96.076 96.88 95.0306 97.456C94.0066 98.032 93.0253 98.32 92.0866 98.32C91.276 98.32 90.5186 98.1067 89.8146 97.68C89.132 97.232 88.5773 96.5493 88.1506 95.632C87.7453 94.6933 87.5426 93.4773 87.5426 91.984C87.5426 90.448 87.7773 88.9973 88.2466 87.632C88.7373 86.2667 89.4093 85.072 90.2626 84.048C91.116 83.0027 92.1186 82.192 93.2706 81.616C94.444 81.0187 95.7026 80.72 97.0466 80.72C97.8786 80.72 98.7426 80.8587 99.6386 81.136C100.535 81.392 101.441 81.8293 102.359 82.448L101.015 82.16L101.687 81.04H103.415L100.727 98.16C100.492 99.568 100.119 100.752 99.6066 101.712C99.116 102.672 98.4973 103.44 97.7506 104.016C97.0253 104.613 96.204 105.04 95.2866 105.296C94.3906 105.552 93.4413 105.68 92.4386 105.68ZM93.3026 95.76C93.836 95.76 94.4013 95.6 94.9986 95.28C95.596 94.9387 96.172 94.4373 96.7266 93.776C97.3026 93.0933 97.804 92.2507 98.2306 91.248C98.6573 90.2453 98.988 89.072 99.2226 87.728L99.9266 83.248L100.471 84.336C99.852 83.9093 99.2546 83.6 98.6786 83.408C98.1026 83.216 97.5373 83.12 96.9826 83.12C96.0653 83.12 95.2226 83.3547 94.4546 83.824C93.708 84.2933 93.0573 84.9227 92.5026 85.712C91.948 86.5013 91.5106 87.408 91.1906 88.432C90.892 89.456 90.7426 90.5227 90.7426 91.632C90.7426 93.0613 90.988 94.1067 91.4786 94.768C91.9693 95.4293 92.5773 95.76 93.3026 95.76ZM116.318 98.128L118.11 87.12C118.238 86.288 118.238 85.584 118.11 85.008C118.004 84.432 117.78 83.9947 117.438 83.696C117.118 83.3973 116.692 83.248 116.158 83.248C115.625 83.248 115.06 83.408 114.462 83.728C113.865 84.048 113.278 84.528 112.702 85.168C112.148 85.808 111.657 86.6293 111.23 87.632C110.804 88.6347 110.473 89.808 110.238 91.152L109.182 98H106.046L109.662 75.216L110.078 75.824L107.23 75.216L107.518 73.456L113.086 73.232L110.718 86.928L109.566 88.56C110.078 86.6827 110.772 85.168 111.646 84.016C112.542 82.864 113.502 82.032 114.526 81.52C115.55 80.9867 116.532 80.72 117.47 80.72C118.388 80.72 119.166 80.944 119.806 81.392C120.446 81.84 120.905 82.4907 121.182 83.344C121.481 84.1973 121.524 85.232 121.31 86.448L119.774 96.176L118.462 95.184L122.206 96.208L121.918 97.968L116.318 98.128ZM134.774 70.704L129.91 101.36L122.838 101.2L123.158 99.184L127.574 98.992L131.702 73.04L127.318 72.88L127.638 70.864L134.774 70.704ZM151.627 87.376L151.243 89.872H142.155L142.539 87.376H151.627ZM164.93 98.32C164.12 98.32 163.362 98.1067 162.658 97.68C161.976 97.232 161.421 96.5493 160.994 95.632C160.589 94.6933 160.386 93.4773 160.386 91.984C160.386 90.448 160.621 88.9973 161.09 87.632C161.581 86.2667 162.253 85.072 163.106 84.048C163.96 83.0027 164.962 82.1813 166.114 81.584C167.288 80.9867 168.546 80.688 169.89 80.688C170.722 80.688 171.586 80.8267 172.482 81.104C173.378 81.3813 174.285 81.8293 175.202 82.448L173.826 82.224L174.53 81.04H176.258L173.698 97.2L172.61 95.184L176.322 96.208L176.034 97.968L170.754 98.128L171.778 92.048L172.706 90.48C172.258 92.2293 171.597 93.6907 170.722 94.864C169.848 96.016 168.898 96.88 167.874 97.456C166.85 98.032 165.869 98.32 164.93 98.32ZM166.146 95.76C166.68 95.76 167.245 95.6 167.842 95.28C168.461 94.9387 169.048 94.4373 169.602 93.776C170.157 93.0933 170.648 92.2507 171.074 91.248C171.522 90.2453 171.853 89.072 172.066 87.728L172.77 83.248L173.314 84.336C172.696 83.9093 172.098 83.6 171.522 83.408C170.946 83.216 170.381 83.12 169.826 83.12C168.909 83.12 168.066 83.3547 167.298 83.824C166.552 84.2933 165.901 84.9227 165.346 85.712C164.792 86.5013 164.354 87.408 164.034 88.432C163.736 89.456 163.586 90.5227 163.586 91.632C163.586 93.0613 163.832 94.1067 164.322 94.768C164.813 95.4293 165.421 95.76 166.146 95.76ZM179.808 98L182.368 81.904L183.456 83.856L179.776 82.832L180.032 81.136L185.472 80.912L184.288 86.928L183.328 88.56C183.754 86.896 184.384 85.4773 185.216 84.304C186.069 83.1307 187.008 82.2453 188.032 81.648C189.077 81.0293 190.101 80.72 191.104 80.72C191.616 80.72 192.053 80.7947 192.416 80.944L191.552 85.968H189.6L189.632 82.864L190.048 83.216C189.45 83.1733 188.842 83.3227 188.224 83.664C187.605 83.984 187.008 84.4853 186.432 85.168C185.877 85.8507 185.386 86.6933 184.96 87.696C184.533 88.6987 184.213 89.8507 184 91.152L182.944 98H179.808ZM193.276 98L195.836 81.904L196.924 83.856L193.244 82.832L193.5 81.136L198.94 80.912L197.756 86.928L196.796 88.56C197.223 86.896 197.852 85.4773 198.684 84.304C199.538 83.1307 200.476 82.2453 201.5 81.648C202.546 81.0293 203.57 80.72 204.572 80.72C205.084 80.72 205.522 80.7947 205.884 80.944L205.02 85.968H203.068L203.1 82.864L203.516 83.216C202.919 83.1733 202.311 83.3227 201.692 83.664C201.074 83.984 200.476 84.4853 199.9 85.168C199.346 85.8507 198.855 86.6933 198.428 87.696C198.002 88.6987 197.682 89.8507 197.468 91.152L196.412 98H193.276ZM205.373 101.36L210.237 70.704L217.277 70.864L216.989 72.88L212.541 73.04L208.445 98.992L212.829 99.184L212.477 101.2L205.373 101.36ZM217.046 98.128L220.822 74.224L221.942 76.144L218.262 75.216L218.518 73.456L224.118 73.232L220.342 97.136L219.19 95.184L222.934 96.208L222.646 97.968L217.046 98.128ZM234.976 80.72C236.235 80.72 237.333 80.9653 238.272 81.456C239.211 81.9253 239.947 82.672 240.48 83.696C241.013 84.72 241.28 86.0533 241.28 87.696C241.28 89.0187 241.088 90.32 240.704 91.6C240.341 92.8587 239.787 94 239.04 95.024C238.293 96.0267 237.344 96.8267 236.192 97.424C235.061 98.0213 233.739 98.32 232.224 98.32C230.987 98.32 229.888 98.0853 228.928 97.616C227.989 97.1253 227.253 96.368 226.72 95.344C226.208 94.2987 225.952 92.9547 225.952 91.312C225.952 89.9893 226.133 88.6987 226.496 87.44C226.88 86.1813 227.445 85.0507 228.192 84.048C228.939 83.024 229.877 82.2133 231.008 81.616C232.139 81.0187 233.461 80.72 234.976 80.72ZM234.656 83.056C233.696 83.056 232.864 83.3227 232.16 83.856C231.477 84.3893 230.912 85.0827 230.464 85.936C230.016 86.768 229.685 87.6747 229.472 88.656C229.259 89.616 229.152 90.5227 229.152 91.376C229.152 92.8267 229.429 93.9573 229.984 94.768C230.56 95.5787 231.424 95.984 232.576 95.984C233.515 95.984 234.325 95.7173 235.008 95.184C235.712 94.6507 236.288 93.968 236.736 93.136C237.184 92.2827 237.515 91.376 237.728 90.416C237.963 89.4347 238.08 88.5067 238.08 87.632C238.08 86.1813 237.803 85.0613 237.248 84.272C236.693 83.4613 235.829 83.056 234.656 83.056ZM246.087 98.064L244.359 82.928L244.743 83.248L242.695 82.864L242.951 81.136L247.239 80.912L248.391 96.208H247.943L254.215 81.104L257.543 80.944L258.855 96.176H258.503L264.103 82.896L264.263 83.344L262.055 82.864L262.311 81.136L268.295 80.912L268.071 82.608L266.247 83.152L266.759 82.768L259.943 98.064H256.551L254.951 83.376L255.815 83.44L249.479 98.064H246.087ZM278.056 70.704L273.192 101.36L266.12 101.2L266.44 99.184L270.856 98.992L274.984 73.04L270.6 72.88L270.92 70.864L278.056 70.704Z" fill="white"/>
<path d="M60.549 3.344C59.0557 5.09333 57.7543 6.992 56.645 9.04C55.5357 11.088 54.6717 13.2213 54.053 15.44C53.4557 17.6587 53.157 19.888 53.157 22.128C53.157 23.9627 53.3703 25.7973 53.797 27.632C54.245 29.4667 54.917 31.216 55.813 32.88L53.733 34C52.5383 32.1653 51.653 30.2027 51.077 28.112C50.501 26.0213 50.213 23.8987 50.213 21.744C50.213 19.2907 50.565 16.88 51.269 14.512C51.973 12.144 52.9543 9.89333 54.213 7.76C55.493 5.62667 56.9863 3.67467 58.693 1.904L60.549 3.344ZM57.7587 30L58.0467 28.304L60.8307 27.792L59.9988 28.24L65.6628 20.912L66.6548 20.784L72.5748 13.136L76.4468 12.912L76.1908 14.608L73.5668 15.152L74.4948 14.672L68.8628 21.552L67.9348 21.68L61.7588 30H57.7587ZM70.0788 30L65.9828 22.032L62.1428 14.704L62.7188 15.28L60.5748 14.864L60.8307 13.136L64.5748 12.848L68.3508 20.272L72.5428 28.24L71.9988 27.728L74.5908 28.304L74.3028 30H70.0788ZM93.3928 19.376L93.0088 21.872H83.9208L84.3048 19.376H93.3928ZM106.696 30.32C105.885 30.32 105.128 30.1067 104.424 29.68C103.741 29.232 103.187 28.5493 102.76 27.632C102.355 26.6933 102.152 25.4773 102.152 23.984C102.152 22.448 102.387 20.9973 102.856 19.632C103.347 18.2667 104.019 17.072 104.872 16.048C105.725 15.0027 106.728 14.1813 107.88 13.584C109.053 12.9867 110.312 12.688 111.656 12.688C112.488 12.688 113.352 12.8267 114.248 13.104C115.144 13.3813 116.051 13.8293 116.968 14.448L115.592 14.224L116.296 13.04H118.024L115.464 29.2L114.376 27.184L118.088 28.208L117.8 29.968L112.52 30.128L113.544 24.048L114.472 22.48C114.024 24.2293 113.363 25.6907 112.488 26.864C111.613 28.016 110.664 28.88 109.64 29.456C108.616 30.032 107.635 30.32 106.696 30.32ZM107.912 27.76C108.445 27.76 109.011 27.6 109.608 27.28C110.227 26.9387 110.813 26.4373 111.368 25.776C111.923 25.0933 112.413 24.2507 112.84 23.248C113.288 22.2453 113.619 21.072 113.832 19.728L114.536 15.248L115.08 16.336C114.461 15.9093 113.864 15.6 113.288 15.408C112.712 15.216 112.147 15.12 111.592 15.12C110.675 15.12 109.832 15.3547 109.064 15.824C108.317 16.2933 107.667 16.9227 107.112 17.712C106.557 18.5013 106.12 19.408 105.8 20.432C105.501 21.456 105.352 22.5227 105.352 23.632C105.352 25.0613 105.597 26.1067 106.088 26.768C106.579 27.4293 107.187 27.76 107.912 27.76ZM121.573 30L124.133 13.904L125.221 15.856L121.541 14.832L121.797 13.136L127.237 12.912L126.053 18.928L125.093 20.56C125.52 18.896 126.149 17.4773 126.981 16.304C127.835 15.1307 128.773 14.2453 129.797 13.648C130.843 13.0293 131.867 12.72 132.869 12.72C133.381 12.72 133.819 12.7947 134.181 12.944L133.317 17.968H131.365L131.397 14.864L131.813 15.216C131.216 15.1733 130.608 15.3227 129.989 15.664C129.371 15.984 128.773 16.4853 128.197 17.168C127.643 17.8507 127.152 18.6933 126.725 19.696C126.299 20.6987 125.979 21.8507 125.765 23.152L124.709 30H121.573ZM135.042 30L137.602 13.904L138.69 15.856L135.01 14.832L135.266 13.136L140.706 12.912L139.522 18.928L138.562 20.56C138.989 18.896 139.618 17.4773 140.45 16.304C141.303 15.1307 142.242 14.2453 143.266 13.648C144.311 13.0293 145.335 12.72 146.338 12.72C146.85 12.72 147.287 12.7947 147.65 12.944L146.786 17.968H144.834L144.866 14.864L145.282 15.216C144.685 15.1733 144.077 15.3227 143.458 15.664C142.839 15.984 142.242 16.4853 141.666 17.168C141.111 17.8507 140.621 18.6933 140.194 19.696C139.767 20.6987 139.447 21.8507 139.234 23.152L138.178 30H135.042ZM147.139 33.36L152.003 2.704L159.043 2.864L158.755 4.88L154.307 5.04L150.211 30.992L154.595 31.184L154.243 33.2L147.139 33.36ZM158.811 30.128L162.587 6.224L163.707 8.144L160.027 7.216L160.283 5.456L165.883 5.232L162.107 29.136L160.955 27.184L164.699 28.208L164.411 29.968L158.811 30.128ZM176.742 12.72C178 12.72 179.099 12.9653 180.038 13.456C180.976 13.9253 181.712 14.672 182.246 15.696C182.779 16.72 183.046 18.0533 183.046 19.696C183.046 21.0187 182.854 22.32 182.47 23.6C182.107 24.8587 181.552 26 180.806 27.024C180.059 28.0267 179.11 28.8267 177.958 29.424C176.827 30.0213 175.504 30.32 173.99 30.32C172.752 30.32 171.654 30.0853 170.694 29.616C169.755 29.1253 169.019 28.368 168.486 27.344C167.974 26.2987 167.718 24.9547 167.718 23.312C167.718 21.9893 167.899 20.6987 168.262 19.44C168.646 18.1813 169.211 17.0507 169.958 16.048C170.704 15.024 171.643 14.2133 172.774 13.616C173.904 13.0187 175.227 12.72 176.742 12.72ZM176.422 15.056C175.462 15.056 174.63 15.3227 173.926 15.856C173.243 16.3893 172.678 17.0827 172.23 17.936C171.782 18.768 171.451 19.6747 171.238 20.656C171.024 21.616 170.918 22.5227 170.918 23.376C170.918 24.8267 171.195 25.9573 171.75 26.768C172.326 27.5787 173.19 27.984 174.342 27.984C175.28 27.984 176.091 27.7173 176.774 27.184C177.478 26.6507 178.054 25.968 178.502 25.136C178.95 24.2827 179.28 23.376 179.494 22.416C179.728 21.4347 179.846 20.5067 179.846 19.632C179.846 18.1813 179.568 17.0613 179.014 16.272C178.459 15.4613 177.595 15.056 176.422 15.056ZM187.853 30.064L186.125 14.928L186.509 15.248L184.461 14.864L184.717 13.136L189.005 12.912L190.157 28.208H189.709L195.981 13.104L199.309 12.944L200.621 28.176H200.269L205.869 14.896L206.029 15.344L203.821 14.864L204.077 13.136L210.061 12.912L209.837 14.608L208.013 15.152L208.525 14.768L201.709 30.064H198.317L196.717 15.376L197.581 15.44L191.245 30.064H187.853ZM219.821 2.704L214.957 33.36L207.885 33.2L208.205 31.184L212.621 30.992L216.749 5.04L212.365 4.88L212.685 2.864L219.821 2.704ZM218.545 32.752C220.039 31.0027 221.34 29.104 222.449 27.056C223.559 25.008 224.412 22.8747 225.009 20.656C225.628 18.4373 225.937 16.208 225.937 13.968C225.937 12.1333 225.724 10.2987 225.297 8.464C224.871 6.62933 224.199 4.88 223.281 3.216L225.361 2.064C226.577 3.92 227.463 5.89333 228.017 7.984C228.593 10.0747 228.881 12.1973 228.881 14.352C228.881 16.784 228.529 19.184 227.825 21.552C227.121 23.92 226.129 26.1707 224.849 28.304C223.591 30.4373 222.108 32.4 220.401 34.192L218.545 32.752Z" fill="white"/>
<line y1="53" x2="279" y2="53" stroke="white" stroke-width="2"/>
</svg>
