<svg width="576" height="490" viewBox="0 0 576 490" fill="none" xmlns="http://www.w3.org/2000/svg">
<path d="M7.18038 98.32C6.36971 98.32 5.61238 98.1067 4.90838 97.68C4.22571 97.232 3.67104 96.5493 3.24438 95.632C2.83904 94.6933 2.63638 93.4773 2.63638 91.984C2.63638 90.448 2.87104 88.9973 3.34038 87.632C3.83104 86.2667 4.50304 85.072 5.35638 84.048C6.20971 83.0027 7.21238 82.1813 8.36438 81.584C9.53771 80.9867 10.7964 80.688 12.1404 80.688C12.9724 80.688 13.8364 80.8267 14.7324 81.104C15.6284 81.3813 16.535 81.8293 17.4524 82.448L16.0764 82.224L16.7804 81.04H18.5084L15.9484 97.2L14.8604 95.184L18.5724 96.208L18.2844 97.968L13.0044 98.128L14.0284 92.048L14.9564 90.48C14.5084 92.2293 13.847 93.6907 12.9724 94.864C12.0977 96.016 11.1484 96.88 10.1244 97.456C9.10038 98.032 8.11904 98.32 7.18038 98.32ZM8.39638 95.76C8.92971 95.76 9.49504 95.6 10.0924 95.28C10.711 94.9387 11.2977 94.4373 11.8524 93.776C12.407 93.0933 12.8977 92.2507 13.3244 91.248C13.7724 90.2453 14.103 89.072 14.3164 87.728L15.0204 83.248L15.5644 84.336C14.9457 83.9093 14.3484 83.6 13.7724 83.408C13.1964 83.216 12.631 83.12 12.0764 83.12C11.159 83.12 10.3164 83.3547 9.54838 83.824C8.80171 84.2933 8.15104 84.9227 7.59638 85.712C7.04171 86.5013 6.60438 87.408 6.28438 88.432C5.98571 89.456 5.83638 90.5227 5.83638 91.632C5.83638 93.0613 6.08171 94.1067 6.57238 94.768C7.06304 95.4293 7.67104 95.76 8.39638 95.76ZM22.0576 98L24.6176 81.904L25.7056 83.856L22.0256 82.832L22.2816 81.136L27.7216 80.912L26.5376 86.928L25.5776 88.56C26.0043 86.896 26.6336 85.4773 27.4656 84.304C28.319 83.1307 29.2576 82.2453 30.2816 81.648C31.327 81.0293 32.351 80.72 33.3536 80.72C33.8656 80.72 34.303 80.7947 34.6656 80.944L33.8016 85.968H31.8496L31.8816 82.864L32.2976 83.216C31.7003 83.1733 31.0923 83.3227 30.4736 83.664C29.855 83.984 29.2576 84.4853 28.6816 85.168C28.127 85.8507 27.6363 86.6933 27.2096 87.696C26.783 88.6987 26.463 89.8507 26.2496 91.152L25.1936 98H22.0576ZM35.5264 98L38.0864 81.904L39.1744 83.856L35.4944 82.832L35.7504 81.136L41.1904 80.912L40.0064 86.928L39.0464 88.56C39.473 86.896 40.1024 85.4773 40.9344 84.304C41.7877 83.1307 42.7264 82.2453 43.7504 81.648C44.7957 81.0293 45.8197 80.72 46.8224 80.72C47.3344 80.72 47.7717 80.7947 48.1344 80.944L47.2704 85.968H45.3184L45.3504 82.864L45.7664 83.216C45.169 83.1733 44.561 83.3227 43.9424 83.664C43.3237 83.984 42.7264 84.4853 42.1504 85.168C41.5957 85.8507 41.105 86.6933 40.6784 87.696C40.2517 88.6987 39.9317 89.8507 39.7184 91.152L38.6624 98H35.5264ZM47.6229 101.36L52.4869 70.704L59.5269 70.864L59.2389 72.88L54.7909 73.04L50.6949 98.992L55.0789 99.184L54.7269 101.2L47.6229 101.36ZM69.5996 98.128L71.3916 87.12C71.5196 86.288 71.5196 85.584 71.3916 85.008C71.285 84.432 71.061 83.9947 70.7196 83.696C70.3996 83.3973 69.973 83.248 69.4396 83.248C68.9063 83.248 68.341 83.408 67.7436 83.728C67.1463 84.048 66.5596 84.528 65.9836 85.168C65.429 85.808 64.9383 86.6293 64.5116 87.632C64.085 88.6347 63.7543 89.808 63.5196 91.152L62.4636 98H59.3276L62.9436 75.216L63.3596 75.824L60.5116 75.216L60.7996 73.456L66.3676 73.232L63.9996 86.928L62.8476 88.56C63.3596 86.6827 64.053 85.168 64.9276 84.016C65.8236 82.864 66.7836 82.032 67.8076 81.52C68.8316 80.9867 69.813 80.72 70.7516 80.72C71.669 80.72 72.4476 80.944 73.0876 81.392C73.7276 81.84 74.1863 82.4907 74.4636 83.344C74.7623 84.1973 74.805 85.232 74.5916 86.448L73.0556 96.176L71.7436 95.184L75.4876 96.208L75.1996 97.968L69.5996 98.128ZM78.7756 98.128L81.3676 81.904L82.4876 83.856L78.7756 82.832L79.0316 81.136L84.6316 80.912L82.0716 97.168L80.9836 95.216L84.6636 96.272L84.3756 97.968L78.7756 98.128ZM83.6396 77.808C83.085 77.808 82.6476 77.6373 82.3276 77.296C82.0076 76.9547 81.8476 76.5067 81.8476 75.952C81.8476 75.2693 82.0503 74.7147 82.4556 74.288C82.8823 73.8613 83.4156 73.648 84.0556 73.648C84.6103 73.648 85.0476 73.808 85.3676 74.128C85.6876 74.448 85.8476 74.9067 85.8476 75.504C85.8476 76.1653 85.6343 76.72 85.2076 77.168C84.8023 77.5947 84.2796 77.808 83.6396 77.808ZM92.4386 105.68C91.5 105.68 90.54 105.584 89.5586 105.392C88.5773 105.2 87.6173 104.944 86.6786 104.624L87.3506 102.352C88.2466 102.651 89.1213 102.885 89.9746 103.056C90.8493 103.227 91.6386 103.312 92.3426 103.312C93.3026 103.312 94.1026 103.173 94.7426 102.896C95.404 102.64 95.9373 102.277 96.3426 101.808C96.7693 101.339 97.1 100.795 97.3346 100.176C97.5906 99.5573 97.772 98.9067 97.8786 98.224L98.8386 92.016L99.8626 90.48C99.4146 92.2293 98.7533 93.6907 97.8786 94.864C97.0253 96.016 96.076 96.88 95.0306 97.456C94.0066 98.032 93.0253 98.32 92.0866 98.32C91.276 98.32 90.5186 98.1067 89.8146 97.68C89.132 97.232 88.5773 96.5493 88.1506 95.632C87.7453 94.6933 87.5426 93.4773 87.5426 91.984C87.5426 90.448 87.7773 88.9973 88.2466 87.632C88.7373 86.2667 89.4093 85.072 90.2626 84.048C91.116 83.0027 92.1186 82.192 93.2706 81.616C94.444 81.0187 95.7026 80.72 97.0466 80.72C97.8786 80.72 98.7426 80.8587 99.6386 81.136C100.535 81.392 101.441 81.8293 102.359 82.448L101.015 82.16L101.687 81.04H103.415L100.727 98.16C100.492 99.568 100.119 100.752 99.6066 101.712C99.116 102.672 98.4973 103.44 97.7506 104.016C97.0253 104.613 96.204 105.04 95.2866 105.296C94.3906 105.552 93.4413 105.68 92.4386 105.68ZM93.3026 95.76C93.836 95.76 94.4013 95.6 94.9986 95.28C95.596 94.9387 96.172 94.4373 96.7266 93.776C97.3026 93.0933 97.804 92.2507 98.2306 91.248C98.6573 90.2453 98.988 89.072 99.2226 87.728L99.9266 83.248L100.471 84.336C99.852 83.9093 99.2546 83.6 98.6786 83.408C98.1026 83.216 97.5373 83.12 96.9826 83.12C96.0653 83.12 95.2226 83.3547 94.4546 83.824C93.708 84.2933 93.0573 84.9227 92.5026 85.712C91.948 86.5013 91.5106 87.408 91.1906 88.432C90.892 89.456 90.7426 90.5227 90.7426 91.632C90.7426 93.0613 90.988 94.1067 91.4786 94.768C91.9693 95.4293 92.5773 95.76 93.3026 95.76ZM116.318 98.128L118.11 87.12C118.238 86.288 118.238 85.584 118.11 85.008C118.004 84.432 117.78 83.9947 117.438 83.696C117.118 83.3973 116.692 83.248 116.158 83.248C115.625 83.248 115.06 83.408 114.462 83.728C113.865 84.048 113.278 84.528 112.702 85.168C112.148 85.808 111.657 86.6293 111.23 87.632C110.804 88.6347 110.473 89.808 110.238 91.152L109.182 98H106.046L109.662 75.216L110.078 75.824L107.23 75.216L107.518 73.456L113.086 73.232L110.718 86.928L109.566 88.56C110.078 86.6827 110.772 85.168 111.646 84.016C112.542 82.864 113.502 82.032 114.526 81.52C115.55 80.9867 116.532 80.72 117.47 80.72C118.388 80.72 119.166 80.944 119.806 81.392C120.446 81.84 120.905 82.4907 121.182 83.344C121.481 84.1973 121.524 85.232 121.31 86.448L119.774 96.176L118.462 95.184L122.206 96.208L121.918 97.968L116.318 98.128ZM134.774 70.704L129.91 101.36L122.838 101.2L123.158 99.184L127.574 98.992L131.702 73.04L127.318 72.88L127.638 70.864L134.774 70.704ZM151.627 87.376L151.243 89.872H142.155L142.539 87.376H151.627ZM164.93 98.32C164.12 98.32 163.362 98.1067 162.658 97.68C161.976 97.232 161.421 96.5493 160.994 95.632C160.589 94.6933 160.386 93.4773 160.386 91.984C160.386 90.448 160.621 88.9973 161.09 87.632C161.581 86.2667 162.253 85.072 163.106 84.048C163.96 83.0027 164.962 82.1813 166.114 81.584C167.288 80.9867 168.546 80.688 169.89 80.688C170.722 80.688 171.586 80.8267 172.482 81.104C173.378 81.3813 174.285 81.8293 175.202 82.448L173.826 82.224L174.53 81.04H176.258L173.698 97.2L172.61 95.184L176.322 96.208L176.034 97.968L170.754 98.128L171.778 92.048L172.706 90.48C172.258 92.2293 171.597 93.6907 170.722 94.864C169.848 96.016 168.898 96.88 167.874 97.456C166.85 98.032 165.869 98.32 164.93 98.32ZM166.146 95.76C166.68 95.76 167.245 95.6 167.842 95.28C168.461 94.9387 169.048 94.4373 169.602 93.776C170.157 93.0933 170.648 92.2507 171.074 91.248C171.522 90.2453 171.853 89.072 172.066 87.728L172.77 83.248L173.314 84.336C172.696 83.9093 172.098 83.6 171.522 83.408C170.946 83.216 170.381 83.12 169.826 83.12C168.909 83.12 168.066 83.3547 167.298 83.824C166.552 84.2933 165.901 84.9227 165.346 85.712C164.792 86.5013 164.354 87.408 164.034 88.432C163.736 89.456 163.586 90.5227 163.586 91.632C163.586 93.0613 163.832 94.1067 164.322 94.768C164.813 95.4293 165.421 95.76 166.146 95.76ZM179.808 98L182.368 81.904L183.456 83.856L179.776 82.832L180.032 81.136L185.472 80.912L184.288 86.928L183.328 88.56C183.754 86.896 184.384 85.4773 185.216 84.304C186.069 83.1307 187.008 82.2453 188.032 81.648C189.077 81.0293 190.101 80.72 191.104 80.72C191.616 80.72 192.053 80.7947 192.416 80.944L191.552 85.968H189.6L189.632 82.864L190.048 83.216C189.45 83.1733 188.842 83.3227 188.224 83.664C187.605 83.984 187.008 84.4853 186.432 85.168C185.877 85.8507 185.386 86.6933 184.96 87.696C184.533 88.6987 184.213 89.8507 184 91.152L182.944 98H179.808ZM193.276 98L195.836 81.904L196.924 83.856L193.244 82.832L193.5 81.136L198.94 80.912L197.756 86.928L196.796 88.56C197.223 86.896 197.852 85.4773 198.684 84.304C199.538 83.1307 200.476 82.2453 201.5 81.648C202.546 81.0293 203.57 80.72 204.572 80.72C205.084 80.72 205.522 80.7947 205.884 80.944L205.02 85.968H203.068L203.1 82.864L203.516 83.216C202.919 83.1733 202.311 83.3227 201.692 83.664C201.074 83.984 200.476 84.4853 199.9 85.168C199.346 85.8507 198.855 86.6933 198.428 87.696C198.002 88.6987 197.682 89.8507 197.468 91.152L196.412 98H193.276ZM205.373 101.36L210.237 70.704L217.277 70.864L216.989 72.88L212.541 73.04L208.445 98.992L212.829 99.184L212.477 101.2L205.373 101.36ZM217.046 98.128L220.822 74.224L221.942 76.144L218.262 75.216L218.518 73.456L224.118 73.232L220.342 97.136L219.19 95.184L222.934 96.208L222.646 97.968L217.046 98.128ZM234.976 80.72C236.235 80.72 237.333 80.9653 238.272 81.456C239.211 81.9253 239.947 82.672 240.48 83.696C241.013 84.72 241.28 86.0533 241.28 87.696C241.28 89.0187 241.088 90.32 240.704 91.6C240.341 92.8587 239.787 94 239.04 95.024C238.293 96.0267 237.344 96.8267 236.192 97.424C235.061 98.0213 233.739 98.32 232.224 98.32C230.987 98.32 229.888 98.0853 228.928 97.616C227.989 97.1253 227.253 96.368 226.72 95.344C226.208 94.2987 225.952 92.9547 225.952 91.312C225.952 89.9893 226.133 88.6987 226.496 87.44C226.88 86.1813 227.445 85.0507 228.192 84.048C228.939 83.024 229.877 82.2133 231.008 81.616C232.139 81.0187 233.461 80.72 234.976 80.72ZM234.656 83.056C233.696 83.056 232.864 83.3227 232.16 83.856C231.477 84.3893 230.912 85.0827 230.464 85.936C230.016 86.768 229.685 87.6747 229.472 88.656C229.259 89.616 229.152 90.5227 229.152 91.376C229.152 92.8267 229.429 93.9573 229.984 94.768C230.56 95.5787 231.424 95.984 232.576 95.984C233.515 95.984 234.325 95.7173 235.008 95.184C235.712 94.6507 236.288 93.968 236.736 93.136C237.184 92.2827 237.515 91.376 237.728 90.416C237.963 89.4347 238.08 88.5067 238.08 87.632C238.08 86.1813 237.803 85.0613 237.248 84.272C236.693 83.4613 235.829 83.056 234.656 83.056ZM246.087 98.064L244.359 82.928L244.743 83.248L242.695 82.864L242.951 81.136L247.239 80.912L248.391 96.208H247.943L254.215 81.104L257.543 80.944L258.855 96.176H258.503L264.103 82.896L264.263 83.344L262.055 82.864L262.311 81.136L268.295 80.912L268.071 82.608L266.247 83.152L266.759 82.768L259.943 98.064H256.551L254.951 83.376L255.815 83.44L249.479 98.064H246.087ZM278.056 70.704L273.192 101.36L266.12 101.2L266.44 99.184L270.856 98.992L274.984 73.04L270.6 72.88L270.92 70.864L278.056 70.704Z" fill="#009966"/>
<path d="M382.102 98.32C381.292 98.32 380.534 98.1067 379.83 97.68C379.148 97.232 378.593 96.5493 378.166 95.632C377.761 94.6933 377.558 93.4773 377.558 91.984C377.558 90.448 377.793 88.9973 378.262 87.632C378.753 86.2667 379.425 85.072 380.278 84.048C381.132 83.0027 382.134 82.1813 383.286 81.584C384.46 80.9867 385.718 80.688 387.062 80.688C387.894 80.688 388.758 80.8267 389.654 81.104C390.55 81.3813 391.457 81.8293 392.374 82.448L390.998 82.224L391.702 81.04H393.43L390.87 97.2L389.782 95.184L393.494 96.208L393.206 97.968L387.926 98.128L388.95 92.048L389.878 90.48C389.43 92.2293 388.769 93.6907 387.894 94.864C387.02 96.016 386.07 96.88 385.046 97.456C384.022 98.032 383.041 98.32 382.102 98.32ZM383.318 95.76C383.852 95.76 384.417 95.6 385.014 95.28C385.633 94.9387 386.22 94.4373 386.774 93.776C387.329 93.0933 387.82 92.2507 388.246 91.248C388.694 90.2453 389.025 89.072 389.238 87.728L389.942 83.248L390.486 84.336C389.868 83.9093 389.27 83.6 388.694 83.408C388.118 83.216 387.553 83.12 386.998 83.12C386.081 83.12 385.238 83.3547 384.47 83.824C383.724 84.2933 383.073 84.9227 382.518 85.712C381.964 86.5013 381.526 87.408 381.206 88.432C380.908 89.456 380.758 90.5227 380.758 91.632C380.758 93.0613 381.004 94.1067 381.494 94.768C381.985 95.4293 382.593 95.76 383.318 95.76ZM396.98 98L399.54 81.904L400.628 83.856L396.948 82.832L397.204 81.136L402.644 80.912L401.46 86.928L400.5 88.56C400.926 86.896 401.556 85.4773 402.388 84.304C403.241 83.1307 404.18 82.2453 405.204 81.648C406.249 81.0293 407.273 80.72 408.276 80.72C408.788 80.72 409.225 80.7947 409.588 80.944L408.724 85.968H406.772L406.804 82.864L407.22 83.216C406.622 83.1733 406.014 83.3227 405.396 83.664C404.777 83.984 404.18 84.4853 403.604 85.168C403.049 85.8507 402.558 86.6933 402.132 87.696C401.705 88.6987 401.385 89.8507 401.172 91.152L400.116 98H396.98ZM410.448 98L413.008 81.904L414.096 83.856L410.416 82.832L410.672 81.136L416.112 80.912L414.928 86.928L413.968 88.56C414.395 86.896 415.024 85.4773 415.856 84.304C416.71 83.1307 417.648 82.2453 418.672 81.648C419.718 81.0293 420.742 80.72 421.744 80.72C422.256 80.72 422.694 80.7947 423.056 80.944L422.192 85.968H420.24L420.272 82.864L420.688 83.216C420.091 83.1733 419.483 83.3227 418.864 83.664C418.246 83.984 417.648 84.4853 417.072 85.168C416.518 85.8507 416.027 86.6933 415.6 87.696C415.174 88.6987 414.854 89.8507 414.64 91.152L413.584 98H410.448ZM422.545 101.36L427.409 70.704L434.449 70.864L434.161 72.88L429.713 73.04L425.617 98.992L430.001 99.184L429.649 101.2L422.545 101.36ZM439.061 98.32C438.058 98.32 437.023 98.1813 435.957 97.904C434.89 97.6267 433.823 97.2107 432.757 96.656L433.877 94.352C434.687 94.7787 435.498 95.0987 436.309 95.312C437.141 95.5253 437.919 95.632 438.645 95.632C439.754 95.632 440.746 95.3973 441.621 94.928C442.495 94.4587 443.178 93.8187 443.669 93.008C444.181 92.176 444.437 91.2693 444.437 90.288C444.437 89.4347 444.255 88.784 443.893 88.336C443.551 87.8667 443.071 87.536 442.453 87.344C441.855 87.1307 441.183 87.0133 440.437 86.992C439.711 86.9493 438.965 86.928 438.197 86.928H435.541L437.781 75.6H449.205L448.757 78.192H439.573L440.565 77.584L439.061 85.2L438.325 84.464H440.053C440.586 84.464 441.194 84.4853 441.877 84.528C442.559 84.5707 443.253 84.6773 443.957 84.848C444.661 84.9973 445.311 85.2747 445.909 85.68C446.506 86.064 446.975 86.608 447.317 87.312C447.679 88.016 447.861 88.9227 447.861 90.032C447.861 91.5893 447.487 92.9973 446.741 94.256C445.994 95.5147 444.959 96.5067 443.637 97.232C442.314 97.9573 440.789 98.32 439.061 98.32ZM460.478 70.704L455.614 101.36L448.541 101.2L448.861 99.184L453.278 98.992L457.406 73.04L453.022 72.88L453.342 70.864L460.478 70.704ZM477.33 87.376L476.946 89.872H467.858L468.242 87.376H477.33ZM490.634 98.32C489.823 98.32 489.066 98.1067 488.362 97.68C487.679 97.232 487.124 96.5493 486.698 95.632C486.292 94.6933 486.09 93.4773 486.09 91.984C486.09 90.448 486.324 88.9973 486.794 87.632C487.284 86.2667 487.956 85.072 488.81 84.048C489.663 83.0027 490.666 82.1813 491.818 81.584C492.991 80.9867 494.25 80.688 495.594 80.688C496.426 80.688 497.29 80.8267 498.186 81.104C499.082 81.3813 499.988 81.8293 500.906 82.448L499.53 82.224L500.234 81.04H501.962L499.402 97.2L498.314 95.184L502.026 96.208L501.738 97.968L496.458 98.128L497.482 92.048L498.41 90.48C497.962 92.2293 497.3 93.6907 496.426 94.864C495.551 96.016 494.602 96.88 493.578 97.456C492.554 98.032 491.572 98.32 490.634 98.32ZM491.85 95.76C492.383 95.76 492.948 95.6 493.546 95.28C494.164 94.9387 494.751 94.4373 495.306 93.776C495.86 93.0933 496.351 92.2507 496.778 91.248C497.226 90.2453 497.556 89.072 497.77 87.728L498.474 83.248L499.018 84.336C498.399 83.9093 497.802 83.6 497.226 83.408C496.65 83.216 496.084 83.12 495.53 83.12C494.612 83.12 493.77 83.3547 493.002 83.824C492.255 84.2933 491.604 84.9227 491.05 85.712C490.495 86.5013 490.058 87.408 489.738 88.432C489.439 89.456 489.29 90.5227 489.29 91.632C489.29 93.0613 489.535 94.1067 490.026 94.768C490.516 95.4293 491.124 95.76 491.85 95.76ZM505.511 98L508.071 81.904L509.159 83.856L505.479 82.832L505.735 81.136L511.175 80.912L509.991 86.928L509.031 88.56C509.457 86.896 510.087 85.4773 510.919 84.304C511.772 83.1307 512.711 82.2453 513.735 81.648C514.78 81.0293 515.804 80.72 516.807 80.72C517.319 80.72 517.756 80.7947 518.119 80.944L517.255 85.968H515.303L515.335 82.864L515.751 83.216C515.153 83.1733 514.545 83.3227 513.927 83.664C513.308 83.984 512.711 84.4853 512.135 85.168C511.58 85.8507 511.089 86.6933 510.663 87.696C510.236 88.6987 509.916 89.8507 509.703 91.152L508.647 98H505.511ZM518.98 98L521.54 81.904L522.628 83.856L518.948 82.832L519.204 81.136L524.644 80.912L523.46 86.928L522.5 88.56C522.926 86.896 523.556 85.4773 524.388 84.304C525.241 83.1307 526.18 82.2453 527.204 81.648C528.249 81.0293 529.273 80.72 530.276 80.72C530.788 80.72 531.225 80.7947 531.588 80.944L530.724 85.968H528.772L528.804 82.864L529.22 83.216C528.622 83.1733 528.014 83.3227 527.396 83.664C526.777 83.984 526.18 84.4853 525.604 85.168C525.049 85.8507 524.558 86.6933 524.132 87.696C523.705 88.6987 523.385 89.8507 523.172 91.152L522.116 98H518.98ZM531.076 101.36L535.94 70.704L542.98 70.864L542.692 72.88L538.244 73.04L534.148 98.992L538.532 99.184L538.18 101.2L531.076 101.36ZM551.464 91.92L552.136 92.624H541.32V90.288L553.736 75.216L557.224 75.6L554.856 90.672L554.152 90.032H558.44L558.024 92.624H553.736L554.664 91.92L553.704 98H550.504L551.464 91.92ZM552.648 90.032L551.656 90.672L553.8 77.168L554.824 77.36L543.496 91.184L543.112 90.032H552.648ZM570.134 70.704L565.27 101.36L558.198 101.2L558.518 99.184L562.934 98.992L567.062 73.04L562.678 72.88L562.998 70.864L570.134 70.704Z" fill="#009966"/>
<path d="M415.764 216.968L404.404 237H400.82L412.468 216.744L412.884 217.256H402.964L403.764 216.712L402.484 220.584H400.532L401.46 214.6H416.116L415.764 216.968ZM431.94 226.376L431.556 228.872H422.468L422.852 226.376H431.94ZM446.139 237.32C445.136 237.32 444.102 237.181 443.035 236.904C441.968 236.627 440.902 236.211 439.835 235.656L440.955 233.352C441.766 233.779 442.576 234.099 443.387 234.312C444.219 234.525 444.998 234.632 445.723 234.632C446.832 234.632 447.824 234.397 448.699 233.928C449.574 233.459 450.256 232.819 450.747 232.008C451.259 231.176 451.515 230.269 451.515 229.288C451.515 228.435 451.334 227.784 450.971 227.336C450.63 226.867 450.15 226.536 449.531 226.344C448.934 226.131 448.262 226.013 447.515 225.992C446.79 225.949 446.043 225.928 445.275 225.928H442.619L444.859 214.6H456.283L455.835 217.192H446.651L447.643 216.584L446.139 224.2L445.403 223.464H447.131C447.664 223.464 448.272 223.485 448.955 223.528C449.638 223.571 450.331 223.677 451.035 223.848C451.739 223.997 452.39 224.275 452.987 224.68C453.584 225.064 454.054 225.608 454.395 226.312C454.758 227.016 454.939 227.923 454.939 229.032C454.939 230.589 454.566 231.997 453.819 233.256C453.072 234.515 452.038 235.507 450.715 236.232C449.392 236.957 447.867 237.32 446.139 237.32Z" fill="#009966"/>
<path d="M418.455 376L418.871 373.12C420.023 372.203 421.197 371.275 422.391 370.336C423.607 369.376 424.759 368.416 425.847 367.456C426.935 366.475 427.917 365.504 428.791 364.544C429.666 363.584 430.359 362.624 430.871 361.664C431.383 360.704 431.639 359.765 431.639 358.848C431.639 357.803 431.298 357.035 430.615 356.544C429.954 356.053 429.079 355.808 427.991 355.808C427.394 355.808 426.743 355.883 426.039 356.032C425.335 356.16 424.61 356.341 423.863 356.576L424.375 355.968L423.319 359.744H421.367L421.847 354.464C423.042 354.08 424.215 353.792 425.367 353.6C426.519 353.387 427.618 353.28 428.663 353.28C429.901 353.28 430.999 353.451 431.959 353.792C432.919 354.133 433.666 354.667 434.199 355.392C434.754 356.117 435.031 357.077 435.031 358.272C435.031 359.381 434.786 360.491 434.295 361.6C433.805 362.688 433.143 363.765 432.311 364.832C431.479 365.877 430.519 366.912 429.431 367.936C428.365 368.96 427.234 369.963 426.039 370.944C424.845 371.925 423.671 372.885 422.519 373.824L422.583 373.344H433.335L432.887 376H418.455Z" fill="#009966"/>
<path d="M334.034 49.672L333.65 52.008H319.762L320.146 49.672H334.034ZM333.074 55.816L332.69 58.152H318.802L319.186 55.816H333.074Z" fill="white"/>
<path d="M334.034 188.672L333.65 191.008H319.762L320.146 188.672H334.034ZM333.074 194.816L332.69 197.152H318.802L319.186 194.816H333.074Z" fill="white"/>
<path d="M334.034 327.672L333.65 330.008H319.762L320.146 327.672H334.034ZM333.074 333.816L332.69 336.152H318.802L319.186 333.816H333.074Z" fill="white"/>
<path d="M334.034 466.672L333.65 469.008H319.762L320.146 466.672H334.034ZM333.074 472.816L332.69 475.152H318.802L319.186 472.816H333.074Z" fill="white"/>
<path d="M60.549 3.344C59.0557 5.09333 57.7543 6.992 56.645 9.04C55.5357 11.088 54.6717 13.2213 54.053 15.44C53.4557 17.6587 53.157 19.888 53.157 22.128C53.157 23.9627 53.3703 25.7973 53.797 27.632C54.245 29.4667 54.917 31.216 55.813 32.88L53.733 34C52.5383 32.1653 51.653 30.2027 51.077 28.112C50.501 26.0213 50.213 23.8987 50.213 21.744C50.213 19.2907 50.565 16.88 51.269 14.512C51.973 12.144 52.9543 9.89333 54.213 7.76C55.493 5.62667 56.9863 3.67467 58.693 1.904L60.549 3.344ZM57.7587 30L58.0467 28.304L60.8307 27.792L59.9988 28.24L65.6628 20.912L66.6548 20.784L72.5748 13.136L76.4468 12.912L76.1908 14.608L73.5668 15.152L74.4948 14.672L68.8628 21.552L67.9348 21.68L61.7588 30H57.7587ZM70.0788 30L65.9828 22.032L62.1428 14.704L62.7188 15.28L60.5748 14.864L60.8307 13.136L64.5748 12.848L68.3508 20.272L72.5428 28.24L71.9988 27.728L74.5908 28.304L74.3028 30H70.0788ZM93.3928 19.376L93.0088 21.872H83.9208L84.3048 19.376H93.3928ZM106.696 30.32C105.885 30.32 105.128 30.1067 104.424 29.68C103.741 29.232 103.187 28.5493 102.76 27.632C102.355 26.6933 102.152 25.4773 102.152 23.984C102.152 22.448 102.387 20.9973 102.856 19.632C103.347 18.2667 104.019 17.072 104.872 16.048C105.725 15.0027 106.728 14.1813 107.88 13.584C109.053 12.9867 110.312 12.688 111.656 12.688C112.488 12.688 113.352 12.8267 114.248 13.104C115.144 13.3813 116.051 13.8293 116.968 14.448L115.592 14.224L116.296 13.04H118.024L115.464 29.2L114.376 27.184L118.088 28.208L117.8 29.968L112.52 30.128L113.544 24.048L114.472 22.48C114.024 24.2293 113.363 25.6907 112.488 26.864C111.613 28.016 110.664 28.88 109.64 29.456C108.616 30.032 107.635 30.32 106.696 30.32ZM107.912 27.76C108.445 27.76 109.011 27.6 109.608 27.28C110.227 26.9387 110.813 26.4373 111.368 25.776C111.923 25.0933 112.413 24.2507 112.84 23.248C113.288 22.2453 113.619 21.072 113.832 19.728L114.536 15.248L115.08 16.336C114.461 15.9093 113.864 15.6 113.288 15.408C112.712 15.216 112.147 15.12 111.592 15.12C110.675 15.12 109.832 15.3547 109.064 15.824C108.317 16.2933 107.667 16.9227 107.112 17.712C106.557 18.5013 106.12 19.408 105.8 20.432C105.501 21.456 105.352 22.5227 105.352 23.632C105.352 25.0613 105.597 26.1067 106.088 26.768C106.579 27.4293 107.187 27.76 107.912 27.76ZM121.573 30L124.133 13.904L125.221 15.856L121.541 14.832L121.797 13.136L127.237 12.912L126.053 18.928L125.093 20.56C125.52 18.896 126.149 17.4773 126.981 16.304C127.835 15.1307 128.773 14.2453 129.797 13.648C130.843 13.0293 131.867 12.72 132.869 12.72C133.381 12.72 133.819 12.7947 134.181 12.944L133.317 17.968H131.365L131.397 14.864L131.813 15.216C131.216 15.1733 130.608 15.3227 129.989 15.664C129.371 15.984 128.773 16.4853 128.197 17.168C127.643 17.8507 127.152 18.6933 126.725 19.696C126.299 20.6987 125.979 21.8507 125.765 23.152L124.709 30H121.573ZM135.042 30L137.602 13.904L138.69 15.856L135.01 14.832L135.266 13.136L140.706 12.912L139.522 18.928L138.562 20.56C138.989 18.896 139.618 17.4773 140.45 16.304C141.303 15.1307 142.242 14.2453 143.266 13.648C144.311 13.0293 145.335 12.72 146.338 12.72C146.85 12.72 147.287 12.7947 147.65 12.944L146.786 17.968H144.834L144.866 14.864L145.282 15.216C144.685 15.1733 144.077 15.3227 143.458 15.664C142.839 15.984 142.242 16.4853 141.666 17.168C141.111 17.8507 140.621 18.6933 140.194 19.696C139.767 20.6987 139.447 21.8507 139.234 23.152L138.178 30H135.042ZM147.139 33.36L152.003 2.704L159.043 2.864L158.755 4.88L154.307 5.04L150.211 30.992L154.595 31.184L154.243 33.2L147.139 33.36ZM158.811 30.128L162.587 6.224L163.707 8.144L160.027 7.216L160.283 5.456L165.883 5.232L162.107 29.136L160.955 27.184L164.699 28.208L164.411 29.968L158.811 30.128ZM176.742 12.72C178 12.72 179.099 12.9653 180.038 13.456C180.976 13.9253 181.712 14.672 182.246 15.696C182.779 16.72 183.046 18.0533 183.046 19.696C183.046 21.0187 182.854 22.32 182.47 23.6C182.107 24.8587 181.552 26 180.806 27.024C180.059 28.0267 179.11 28.8267 177.958 29.424C176.827 30.0213 175.504 30.32 173.99 30.32C172.752 30.32 171.654 30.0853 170.694 29.616C169.755 29.1253 169.019 28.368 168.486 27.344C167.974 26.2987 167.718 24.9547 167.718 23.312C167.718 21.9893 167.899 20.6987 168.262 19.44C168.646 18.1813 169.211 17.0507 169.958 16.048C170.704 15.024 171.643 14.2133 172.774 13.616C173.904 13.0187 175.227 12.72 176.742 12.72ZM176.422 15.056C175.462 15.056 174.63 15.3227 173.926 15.856C173.243 16.3893 172.678 17.0827 172.23 17.936C171.782 18.768 171.451 19.6747 171.238 20.656C171.024 21.616 170.918 22.5227 170.918 23.376C170.918 24.8267 171.195 25.9573 171.75 26.768C172.326 27.5787 173.19 27.984 174.342 27.984C175.28 27.984 176.091 27.7173 176.774 27.184C177.478 26.6507 178.054 25.968 178.502 25.136C178.95 24.2827 179.28 23.376 179.494 22.416C179.728 21.4347 179.846 20.5067 179.846 19.632C179.846 18.1813 179.568 17.0613 179.014 16.272C178.459 15.4613 177.595 15.056 176.422 15.056ZM187.853 30.064L186.125 14.928L186.509 15.248L184.461 14.864L184.717 13.136L189.005 12.912L190.157 28.208H189.709L195.981 13.104L199.309 12.944L200.621 28.176H200.269L205.869 14.896L206.029 15.344L203.821 14.864L204.077 13.136L210.061 12.912L209.837 14.608L208.013 15.152L208.525 14.768L201.709 30.064H198.317L196.717 15.376L197.581 15.44L191.245 30.064H187.853ZM219.821 2.704L214.957 33.36L207.885 33.2L208.205 31.184L212.621 30.992L216.749 5.04L212.365 4.88L212.685 2.864L219.821 2.704ZM218.545 32.752C220.039 31.0027 221.34 29.104 222.449 27.056C223.559 25.008 224.412 22.8747 225.009 20.656C225.628 18.4373 225.937 16.208 225.937 13.968C225.937 12.1333 225.724 10.2987 225.297 8.464C224.871 6.62933 224.199 4.88 223.281 3.216L225.361 2.064C226.577 3.92 227.463 5.89333 228.017 7.984C228.593 10.0747 228.881 12.1973 228.881 14.352C228.881 16.784 228.529 19.184 227.825 21.552C227.121 23.92 226.129 26.1707 224.849 28.304C223.591 30.4373 222.108 32.4 220.401 34.192L218.545 32.752Z" fill="#E27C00"/>
<path d="M411.518 3.344C410.024 5.09333 408.723 6.992 407.614 9.04C406.504 11.088 405.64 13.2213 405.022 15.44C404.424 17.6587 404.126 19.888 404.126 22.128C404.126 23.9627 404.339 25.7973 404.766 27.632C405.214 29.4667 405.886 31.216 406.782 32.88L404.702 34C403.507 32.1653 402.622 30.2027 402.046 28.112C401.47 26.0213 401.182 23.8987 401.182 21.744C401.182 19.2907 401.534 16.88 402.238 14.512C402.942 12.144 403.923 9.89333 405.182 7.76C406.462 5.62667 407.955 3.67467 409.662 1.904L411.518 3.344ZM416.28 30.32C415.277 30.32 414.242 30.1813 413.176 29.904C412.109 29.6267 411.042 29.2107 409.976 28.656L411.096 26.352C411.906 26.7787 412.717 27.0987 413.528 27.312C414.36 27.5253 415.138 27.632 415.864 27.632C416.973 27.632 417.965 27.3973 418.84 26.928C419.714 26.4587 420.397 25.8187 420.888 25.008C421.4 24.176 421.656 23.2693 421.656 22.288C421.656 21.4347 421.474 20.784 421.112 20.336C420.77 19.8667 420.29 19.536 419.672 19.344C419.074 19.1307 418.402 19.0133 417.656 18.992C416.93 18.9493 416.184 18.928 415.416 18.928H412.76L415 7.6H426.424L425.976 10.192H416.792L417.784 9.584L416.28 17.2L415.544 16.464H417.272C417.805 16.464 418.413 16.4853 419.095 16.528C419.778 16.5707 420.472 16.6773 421.176 16.848C421.88 16.9973 422.53 17.2747 423.128 17.68C423.725 18.064 424.194 18.608 424.536 19.312C424.898 20.016 425.08 20.9227 425.08 22.032C425.08 23.5893 424.706 24.9973 423.96 26.256C423.213 27.5147 422.178 28.5067 420.856 29.232C419.533 29.9573 418.008 30.32 416.28 30.32ZM444.049 19.376L443.665 21.872H434.577L434.961 19.376H444.049ZM457.352 30.32C456.542 30.32 455.784 30.1067 455.08 29.68C454.398 29.232 453.843 28.5493 453.416 27.632C453.011 26.6933 452.808 25.4773 452.808 23.984C452.808 22.448 453.043 20.9973 453.512 19.632C454.003 18.2667 454.675 17.072 455.528 16.048C456.382 15.0027 457.384 14.1813 458.536 13.584C459.71 12.9867 460.968 12.688 462.312 12.688C463.144 12.688 464.008 12.8267 464.904 13.104C465.8 13.3813 466.707 13.8293 467.624 14.448L466.248 14.224L466.952 13.04H468.68L466.12 29.2L465.032 27.184L468.744 28.208L468.456 29.968L463.176 30.128L464.2 24.048L465.128 22.48C464.68 24.2293 464.019 25.6907 463.144 26.864C462.27 28.016 461.32 28.88 460.296 29.456C459.272 30.032 458.291 30.32 457.352 30.32ZM458.568 27.76C459.102 27.76 459.667 27.6 460.264 27.28C460.883 26.9387 461.47 26.4373 462.024 25.776C462.579 25.0933 463.07 24.2507 463.496 23.248C463.944 22.2453 464.275 21.072 464.488 19.728L465.192 15.248L465.736 16.336C465.118 15.9093 464.52 15.6 463.944 15.408C463.368 15.216 462.803 15.12 462.248 15.12C461.331 15.12 460.488 15.3547 459.72 15.824C458.974 16.2933 458.323 16.9227 457.768 17.712C457.214 18.5013 456.776 19.408 456.456 20.432C456.158 21.456 456.008 22.5227 456.008 23.632C456.008 25.0613 456.254 26.1067 456.744 26.768C457.235 27.4293 457.843 27.76 458.568 27.76ZM472.23 30L474.79 13.904L475.878 15.856L472.198 14.832L472.454 13.136L477.894 12.912L476.71 18.928L475.75 20.56C476.176 18.896 476.806 17.4773 477.638 16.304C478.491 15.1307 479.43 14.2453 480.454 13.648C481.499 13.0293 482.523 12.72 483.526 12.72C484.038 12.72 484.475 12.7947 484.838 12.944L483.974 17.968H482.022L482.054 14.864L482.47 15.216C481.872 15.1733 481.264 15.3227 480.646 15.664C480.027 15.984 479.43 16.4853 478.854 17.168C478.299 17.8507 477.808 18.6933 477.382 19.696C476.955 20.6987 476.635 21.8507 476.422 23.152L475.366 30H472.23ZM485.698 30L488.258 13.904L489.346 15.856L485.666 14.832L485.922 13.136L491.362 12.912L490.178 18.928L489.218 20.56C489.645 18.896 490.274 17.4773 491.106 16.304C491.96 15.1307 492.898 14.2453 493.922 13.648C494.968 13.0293 495.992 12.72 496.994 12.72C497.506 12.72 497.944 12.7947 498.306 12.944L497.442 17.968H495.49L495.522 14.864L495.938 15.216C495.341 15.1733 494.733 15.3227 494.114 15.664C493.496 15.984 492.898 16.4853 492.322 17.168C491.768 17.8507 491.277 18.6933 490.85 19.696C490.424 20.6987 490.104 21.8507 489.89 23.152L488.834 30H485.698ZM497.795 33.36L502.659 2.704L509.699 2.864L509.411 4.88L504.963 5.04L500.867 30.992L505.251 31.184L504.899 33.2L497.795 33.36ZM518.183 23.92L518.855 24.624H508.039V22.288L520.455 7.216L523.943 7.6L521.575 22.672L520.871 22.032H525.159L524.743 24.624H520.455L521.383 23.92L520.423 30H517.223L518.183 23.92ZM519.367 22.032L518.375 22.672L520.519 9.168L521.543 9.36L510.215 23.184L509.831 22.032H519.367ZM536.853 2.704L531.989 33.36L524.916 33.2L525.236 31.184L529.653 30.992L533.781 5.04L529.397 4.88L529.717 2.864L536.853 2.704ZM535.576 32.752C537.07 31.0027 538.371 29.104 539.481 27.056C540.59 25.008 541.443 22.8747 542.041 20.656C542.659 18.4373 542.969 16.208 542.969 13.968C542.969 12.1333 542.755 10.2987 542.329 8.464C541.902 6.62933 541.23 4.88 540.312 3.216L542.393 2.064C543.609 3.92 544.494 5.89333 545.049 7.984C545.625 10.0747 545.913 12.1973 545.913 14.352C545.913 16.784 545.561 19.184 544.857 21.552C544.153 23.92 543.161 26.1707 541.881 28.304C540.622 30.4373 539.139 32.4 537.433 34.192L535.576 32.752Z" fill="#E27C00"/>
<path d="M404.623 169.32C403.621 169.32 402.586 169.181 401.519 168.904C400.453 168.627 399.386 168.211 398.319 167.656L399.439 165.352C400.25 165.779 401.061 166.099 401.871 166.312C402.703 166.525 403.482 166.632 404.207 166.632C405.317 166.632 406.309 166.397 407.183 165.928C408.058 165.459 408.741 164.819 409.231 164.008C409.743 163.176 409.999 162.269 409.999 161.288C409.999 160.435 409.818 159.784 409.455 159.336C409.114 158.867 408.634 158.536 408.015 158.344C407.418 158.131 406.746 158.013 405.999 157.992C405.274 157.949 404.527 157.928 403.759 157.928H401.103L403.343 146.6H414.767L414.319 149.192H405.135L406.127 148.584L404.623 156.2L403.887 155.464H405.615C406.149 155.464 406.757 155.485 407.439 155.528C408.122 155.571 408.815 155.677 409.519 155.848C410.223 155.997 410.874 156.275 411.471 156.68C412.069 157.064 412.538 157.608 412.879 158.312C413.242 159.016 413.423 159.923 413.423 161.032C413.423 162.589 413.05 163.997 412.303 165.256C411.557 166.515 410.522 167.507 409.199 168.232C407.877 168.957 406.351 169.32 404.623 169.32ZM432.393 158.376L432.009 160.872H422.921L423.305 158.376H432.393ZM446.592 169.32C445.589 169.32 444.555 169.181 443.488 168.904C442.421 168.627 441.355 168.211 440.288 167.656L441.408 165.352C442.219 165.779 443.029 166.099 443.84 166.312C444.672 166.525 445.451 166.632 446.176 166.632C447.285 166.632 448.277 166.397 449.152 165.928C450.027 165.459 450.709 164.819 451.2 164.008C451.712 163.176 451.968 162.269 451.968 161.288C451.968 160.435 451.787 159.784 451.424 159.336C451.083 158.867 450.603 158.536 449.984 158.344C449.387 158.131 448.715 158.013 447.968 157.992C447.243 157.949 446.496 157.928 445.728 157.928H443.072L445.312 146.6H456.736L456.288 149.192H447.104L448.096 148.584L446.592 156.2L445.856 155.464H447.584C448.117 155.464 448.725 155.485 449.408 155.528C450.091 155.571 450.784 155.677 451.488 155.848C452.192 155.997 452.843 156.275 453.44 156.68C454.037 157.064 454.507 157.608 454.848 158.312C455.211 159.016 455.392 159.923 455.392 161.032C455.392 162.589 455.019 163.997 454.272 165.256C453.525 166.515 452.491 167.507 451.168 168.232C449.845 168.957 448.32 169.32 446.592 169.32Z" fill="#E27C00"/>
<path d="M425.965 308.32C424.6 308.32 423.437 308.053 422.477 307.52C421.517 306.965 420.792 306.091 420.301 304.896C419.81 303.68 419.565 302.091 419.565 300.128C419.565 298.955 419.661 297.696 419.853 296.352C420.066 294.987 420.408 293.653 420.877 292.352C421.346 291.051 421.976 289.867 422.765 288.8C423.576 287.733 424.578 286.88 425.773 286.24C426.968 285.6 428.386 285.28 430.029 285.28C432.077 285.28 433.634 285.877 434.701 287.072C435.768 288.267 436.301 290.304 436.301 293.184C436.301 294.4 436.194 295.701 435.981 297.088C435.789 298.453 435.458 299.797 434.989 301.12C434.52 302.443 433.89 303.648 433.101 304.736C432.312 305.824 431.33 306.699 430.157 307.36C428.984 308 427.586 308.32 425.965 308.32ZM426.349 305.76C427.373 305.76 428.258 305.461 429.005 304.864C429.773 304.245 430.413 303.435 430.925 302.432C431.458 301.429 431.874 300.352 432.173 299.2C432.493 298.027 432.717 296.875 432.845 295.744C432.994 294.613 433.069 293.621 433.069 292.768C433.069 291.509 432.93 290.528 432.653 289.824C432.376 289.099 431.981 288.587 431.469 288.288C430.957 287.989 430.349 287.84 429.645 287.84C428.578 287.84 427.65 288.128 426.861 288.704C426.093 289.28 425.442 290.048 424.909 291.008C424.397 291.947 423.981 292.981 423.661 294.112C423.362 295.221 423.138 296.331 422.989 297.44C422.861 298.528 422.797 299.509 422.797 300.384C422.797 302.368 423.106 303.765 423.725 304.576C424.365 305.365 425.24 305.76 426.349 305.76Z" fill="#E27C00"/>
<path d="M391.965 482.32C390.6 482.32 389.437 482.053 388.477 481.52C387.517 480.965 386.792 480.091 386.301 478.896C385.81 477.68 385.565 476.091 385.565 474.128C385.565 472.955 385.661 471.696 385.853 470.352C386.066 468.987 386.408 467.653 386.877 466.352C387.346 465.051 387.976 463.867 388.765 462.8C389.576 461.733 390.578 460.88 391.773 460.24C392.968 459.6 394.386 459.28 396.029 459.28C398.077 459.28 399.634 459.877 400.701 461.072C401.768 462.267 402.301 464.304 402.301 467.184C402.301 468.4 402.194 469.701 401.981 471.088C401.789 472.453 401.458 473.797 400.989 475.12C400.52 476.443 399.89 477.648 399.101 478.736C398.312 479.824 397.33 480.699 396.157 481.36C394.984 482 393.586 482.32 391.965 482.32ZM392.349 479.76C393.373 479.76 394.258 479.461 395.005 478.864C395.773 478.245 396.413 477.435 396.925 476.432C397.458 475.429 397.874 474.352 398.173 473.2C398.493 472.027 398.717 470.875 398.845 469.744C398.994 468.613 399.069 467.621 399.069 466.768C399.069 465.509 398.93 464.528 398.653 463.824C398.376 463.099 397.981 462.587 397.469 462.288C396.957 461.989 396.349 461.84 395.645 461.84C394.578 461.84 393.65 462.128 392.861 462.704C392.093 463.28 391.442 464.048 390.909 465.008C390.397 465.947 389.981 466.981 389.661 468.112C389.362 469.221 389.138 470.331 388.989 471.44C388.861 472.528 388.797 473.509 388.797 474.384C388.797 476.368 389.106 477.765 389.725 478.576C390.365 479.365 391.24 479.76 392.349 479.76Z" fill="white"/>
<line y1="53" x2="279" y2="53" stroke="white" stroke-width="2"/>
<line x1="371" y1="53" x2="576" y2="53" stroke="white" stroke-width="2"/>
<line x1="371" y1="192" x2="483" y2="192" stroke="white" stroke-width="2"/>
<line x1="394" y1="331" x2="460" y2="331" stroke="white" stroke-width="2"/>
</svg>
