<svg width="576" height="523" viewBox="0 0 576 523" fill="none" xmlns="http://www.w3.org/2000/svg">
<path d="M7.18038 98.32C6.36971 98.32 5.61238 98.1067 4.90838 97.68C4.22571 97.232 3.67104 96.5493 3.24438 95.632C2.83904 94.6933 2.63638 93.4773 2.63638 91.984C2.63638 90.448 2.87104 88.9973 3.34038 87.632C3.83104 86.2667 4.50304 85.072 5.35638 84.048C6.20971 83.0027 7.21238 82.1813 8.36438 81.584C9.53771 80.9867 10.7964 80.688 12.1404 80.688C12.9724 80.688 13.8364 80.8267 14.7324 81.104C15.6284 81.3813 16.535 81.8293 17.4524 82.448L16.0764 82.224L16.7804 81.04H18.5084L15.9484 97.2L14.8604 95.184L18.5724 96.208L18.2844 97.968L13.0044 98.128L14.0284 92.048L14.9564 90.48C14.5084 92.2293 13.847 93.6907 12.9724 94.864C12.0977 96.016 11.1484 96.88 10.1244 97.456C9.10038 98.032 8.11904 98.32 7.18038 98.32ZM8.39638 95.76C8.92971 95.76 9.49504 95.6 10.0924 95.28C10.711 94.9387 11.2977 94.4373 11.8524 93.776C12.407 93.0933 12.8977 92.2507 13.3244 91.248C13.7724 90.2453 14.103 89.072 14.3164 87.728L15.0204 83.248L15.5644 84.336C14.9457 83.9093 14.3484 83.6 13.7724 83.408C13.1964 83.216 12.631 83.12 12.0764 83.12C11.159 83.12 10.3164 83.3547 9.54838 83.824C8.80171 84.2933 8.15104 84.9227 7.59638 85.712C7.04171 86.5013 6.60438 87.408 6.28438 88.432C5.98571 89.456 5.83638 90.5227 5.83638 91.632C5.83638 93.0613 6.08171 94.1067 6.57238 94.768C7.06304 95.4293 7.67104 95.76 8.39638 95.76ZM22.0576 98L24.6176 81.904L25.7056 83.856L22.0256 82.832L22.2816 81.136L27.7216 80.912L26.5376 86.928L25.5776 88.56C26.0043 86.896 26.6336 85.4773 27.4656 84.304C28.319 83.1307 29.2576 82.2453 30.2816 81.648C31.327 81.0293 32.351 80.72 33.3536 80.72C33.8656 80.72 34.303 80.7947 34.6656 80.944L33.8016 85.968H31.8496L31.8816 82.864L32.2976 83.216C31.7003 83.1733 31.0923 83.3227 30.4736 83.664C29.855 83.984 29.2576 84.4853 28.6816 85.168C28.127 85.8507 27.6363 86.6933 27.2096 87.696C26.783 88.6987 26.463 89.8507 26.2496 91.152L25.1936 98H22.0576ZM35.5264 98L38.0864 81.904L39.1744 83.856L35.4944 82.832L35.7504 81.136L41.1904 80.912L40.0064 86.928L39.0464 88.56C39.473 86.896 40.1024 85.4773 40.9344 84.304C41.7877 83.1307 42.7264 82.2453 43.7504 81.648C44.7957 81.0293 45.8197 80.72 46.8224 80.72C47.3344 80.72 47.7717 80.7947 48.1344 80.944L47.2704 85.968H45.3184L45.3504 82.864L45.7664 83.216C45.169 83.1733 44.561 83.3227 43.9424 83.664C43.3237 83.984 42.7264 84.4853 42.1504 85.168C41.5957 85.8507 41.105 86.6933 40.6784 87.696C40.2517 88.6987 39.9317 89.8507 39.7184 91.152L38.6624 98H35.5264ZM47.6229 101.36L52.4869 70.704L59.5269 70.864L59.2389 72.88L54.7909 73.04L50.6949 98.992L55.0789 99.184L54.7269 101.2L47.6229 101.36ZM69.5996 98.128L71.3916 87.12C71.5196 86.288 71.5196 85.584 71.3916 85.008C71.285 84.432 71.061 83.9947 70.7196 83.696C70.3996 83.3973 69.973 83.248 69.4396 83.248C68.9063 83.248 68.341 83.408 67.7436 83.728C67.1463 84.048 66.5596 84.528 65.9836 85.168C65.429 85.808 64.9383 86.6293 64.5116 87.632C64.085 88.6347 63.7543 89.808 63.5196 91.152L62.4636 98H59.3276L62.9436 75.216L63.3596 75.824L60.5116 75.216L60.7996 73.456L66.3676 73.232L63.9996 86.928L62.8476 88.56C63.3596 86.6827 64.053 85.168 64.9276 84.016C65.8236 82.864 66.7836 82.032 67.8076 81.52C68.8316 80.9867 69.813 80.72 70.7516 80.72C71.669 80.72 72.4476 80.944 73.0876 81.392C73.7276 81.84 74.1863 82.4907 74.4636 83.344C74.7623 84.1973 74.805 85.232 74.5916 86.448L73.0556 96.176L71.7436 95.184L75.4876 96.208L75.1996 97.968L69.5996 98.128ZM78.7756 98.128L81.3676 81.904L82.4876 83.856L78.7756 82.832L79.0316 81.136L84.6316 80.912L82.0716 97.168L80.9836 95.216L84.6636 96.272L84.3756 97.968L78.7756 98.128ZM83.6396 77.808C83.085 77.808 82.6476 77.6373 82.3276 77.296C82.0076 76.9547 81.8476 76.5067 81.8476 75.952C81.8476 75.2693 82.0503 74.7147 82.4556 74.288C82.8823 73.8613 83.4156 73.648 84.0556 73.648C84.6103 73.648 85.0476 73.808 85.3676 74.128C85.6876 74.448 85.8476 74.9067 85.8476 75.504C85.8476 76.1653 85.6343 76.72 85.2076 77.168C84.8023 77.5947 84.2796 77.808 83.6396 77.808ZM92.4386 105.68C91.5 105.68 90.54 105.584 89.5586 105.392C88.5773 105.2 87.6173 104.944 86.6786 104.624L87.3506 102.352C88.2466 102.651 89.1213 102.885 89.9746 103.056C90.8493 103.227 91.6386 103.312 92.3426 103.312C93.3026 103.312 94.1026 103.173 94.7426 102.896C95.404 102.64 95.9373 102.277 96.3426 101.808C96.7693 101.339 97.1 100.795 97.3346 100.176C97.5906 99.5573 97.772 98.9067 97.8786 98.224L98.8386 92.016L99.8626 90.48C99.4146 92.2293 98.7533 93.6907 97.8786 94.864C97.0253 96.016 96.076 96.88 95.0306 97.456C94.0066 98.032 93.0253 98.32 92.0866 98.32C91.276 98.32 90.5186 98.1067 89.8146 97.68C89.132 97.232 88.5773 96.5493 88.1506 95.632C87.7453 94.6933 87.5426 93.4773 87.5426 91.984C87.5426 90.448 87.7773 88.9973 88.2466 87.632C88.7373 86.2667 89.4093 85.072 90.2626 84.048C91.116 83.0027 92.1186 82.192 93.2706 81.616C94.444 81.0187 95.7026 80.72 97.0466 80.72C97.8786 80.72 98.7426 80.8587 99.6386 81.136C100.535 81.392 101.441 81.8293 102.359 82.448L101.015 82.16L101.687 81.04H103.415L100.727 98.16C100.492 99.568 100.119 100.752 99.6066 101.712C99.116 102.672 98.4973 103.44 97.7506 104.016C97.0253 104.613 96.204 105.04 95.2866 105.296C94.3906 105.552 93.4413 105.68 92.4386 105.68ZM93.3026 95.76C93.836 95.76 94.4013 95.6 94.9986 95.28C95.596 94.9387 96.172 94.4373 96.7266 93.776C97.3026 93.0933 97.804 92.2507 98.2306 91.248C98.6573 90.2453 98.988 89.072 99.2226 87.728L99.9266 83.248L100.471 84.336C99.852 83.9093 99.2546 83.6 98.6786 83.408C98.1026 83.216 97.5373 83.12 96.9826 83.12C96.0653 83.12 95.2226 83.3547 94.4546 83.824C93.708 84.2933 93.0573 84.9227 92.5026 85.712C91.948 86.5013 91.5106 87.408 91.1906 88.432C90.892 89.456 90.7426 90.5227 90.7426 91.632C90.7426 93.0613 90.988 94.1067 91.4786 94.768C91.9693 95.4293 92.5773 95.76 93.3026 95.76ZM116.318 98.128L118.11 87.12C118.238 86.288 118.238 85.584 118.11 85.008C118.004 84.432 117.78 83.9947 117.438 83.696C117.118 83.3973 116.692 83.248 116.158 83.248C115.625 83.248 115.06 83.408 114.462 83.728C113.865 84.048 113.278 84.528 112.702 85.168C112.148 85.808 111.657 86.6293 111.23 87.632C110.804 88.6347 110.473 89.808 110.238 91.152L109.182 98H106.046L109.662 75.216L110.078 75.824L107.23 75.216L107.518 73.456L113.086 73.232L110.718 86.928L109.566 88.56C110.078 86.6827 110.772 85.168 111.646 84.016C112.542 82.864 113.502 82.032 114.526 81.52C115.55 80.9867 116.532 80.72 117.47 80.72C118.388 80.72 119.166 80.944 119.806 81.392C120.446 81.84 120.905 82.4907 121.182 83.344C121.481 84.1973 121.524 85.232 121.31 86.448L119.774 96.176L118.462 95.184L122.206 96.208L121.918 97.968L116.318 98.128ZM134.774 70.704L129.91 101.36L122.838 101.2L123.158 99.184L127.574 98.992L131.702 73.04L127.318 72.88L127.638 70.864L134.774 70.704ZM151.627 87.376L151.243 89.872H142.155L142.539 87.376H151.627ZM164.93 98.32C164.12 98.32 163.362 98.1067 162.658 97.68C161.976 97.232 161.421 96.5493 160.994 95.632C160.589 94.6933 160.386 93.4773 160.386 91.984C160.386 90.448 160.621 88.9973 161.09 87.632C161.581 86.2667 162.253 85.072 163.106 84.048C163.96 83.0027 164.962 82.1813 166.114 81.584C167.288 80.9867 168.546 80.688 169.89 80.688C170.722 80.688 171.586 80.8267 172.482 81.104C173.378 81.3813 174.285 81.8293 175.202 82.448L173.826 82.224L174.53 81.04H176.258L173.698 97.2L172.61 95.184L176.322 96.208L176.034 97.968L170.754 98.128L171.778 92.048L172.706 90.48C172.258 92.2293 171.597 93.6907 170.722 94.864C169.848 96.016 168.898 96.88 167.874 97.456C166.85 98.032 165.869 98.32 164.93 98.32ZM166.146 95.76C166.68 95.76 167.245 95.6 167.842 95.28C168.461 94.9387 169.048 94.4373 169.602 93.776C170.157 93.0933 170.648 92.2507 171.074 91.248C171.522 90.2453 171.853 89.072 172.066 87.728L172.77 83.248L173.314 84.336C172.696 83.9093 172.098 83.6 171.522 83.408C170.946 83.216 170.381 83.12 169.826 83.12C168.909 83.12 168.066 83.3547 167.298 83.824C166.552 84.2933 165.901 84.9227 165.346 85.712C164.792 86.5013 164.354 87.408 164.034 88.432C163.736 89.456 163.586 90.5227 163.586 91.632C163.586 93.0613 163.832 94.1067 164.322 94.768C164.813 95.4293 165.421 95.76 166.146 95.76ZM179.808 98L182.368 81.904L183.456 83.856L179.776 82.832L180.032 81.136L185.472 80.912L184.288 86.928L183.328 88.56C183.754 86.896 184.384 85.4773 185.216 84.304C186.069 83.1307 187.008 82.2453 188.032 81.648C189.077 81.0293 190.101 80.72 191.104 80.72C191.616 80.72 192.053 80.7947 192.416 80.944L191.552 85.968H189.6L189.632 82.864L190.048 83.216C189.45 83.1733 188.842 83.3227 188.224 83.664C187.605 83.984 187.008 84.4853 186.432 85.168C185.877 85.8507 185.386 86.6933 184.96 87.696C184.533 88.6987 184.213 89.8507 184 91.152L182.944 98H179.808ZM193.276 98L195.836 81.904L196.924 83.856L193.244 82.832L193.5 81.136L198.94 80.912L197.756 86.928L196.796 88.56C197.223 86.896 197.852 85.4773 198.684 84.304C199.538 83.1307 200.476 82.2453 201.5 81.648C202.546 81.0293 203.57 80.72 204.572 80.72C205.084 80.72 205.522 80.7947 205.884 80.944L205.02 85.968H203.068L203.1 82.864L203.516 83.216C202.919 83.1733 202.311 83.3227 201.692 83.664C201.074 83.984 200.476 84.4853 199.9 85.168C199.346 85.8507 198.855 86.6933 198.428 87.696C198.002 88.6987 197.682 89.8507 197.468 91.152L196.412 98H193.276ZM205.373 101.36L210.237 70.704L217.277 70.864L216.989 72.88L212.541 73.04L208.445 98.992L212.829 99.184L212.477 101.2L205.373 101.36ZM217.046 98.128L220.822 74.224L221.942 76.144L218.262 75.216L218.518 73.456L224.118 73.232L220.342 97.136L219.19 95.184L222.934 96.208L222.646 97.968L217.046 98.128ZM234.976 80.72C236.235 80.72 237.333 80.9653 238.272 81.456C239.211 81.9253 239.947 82.672 240.48 83.696C241.013 84.72 241.28 86.0533 241.28 87.696C241.28 89.0187 241.088 90.32 240.704 91.6C240.341 92.8587 239.787 94 239.04 95.024C238.293 96.0267 237.344 96.8267 236.192 97.424C235.061 98.0213 233.739 98.32 232.224 98.32C230.987 98.32 229.888 98.0853 228.928 97.616C227.989 97.1253 227.253 96.368 226.72 95.344C226.208 94.2987 225.952 92.9547 225.952 91.312C225.952 89.9893 226.133 88.6987 226.496 87.44C226.88 86.1813 227.445 85.0507 228.192 84.048C228.939 83.024 229.877 82.2133 231.008 81.616C232.139 81.0187 233.461 80.72 234.976 80.72ZM234.656 83.056C233.696 83.056 232.864 83.3227 232.16 83.856C231.477 84.3893 230.912 85.0827 230.464 85.936C230.016 86.768 229.685 87.6747 229.472 88.656C229.259 89.616 229.152 90.5227 229.152 91.376C229.152 92.8267 229.429 93.9573 229.984 94.768C230.56 95.5787 231.424 95.984 232.576 95.984C233.515 95.984 234.325 95.7173 235.008 95.184C235.712 94.6507 236.288 93.968 236.736 93.136C237.184 92.2827 237.515 91.376 237.728 90.416C237.963 89.4347 238.08 88.5067 238.08 87.632C238.08 86.1813 237.803 85.0613 237.248 84.272C236.693 83.4613 235.829 83.056 234.656 83.056ZM246.087 98.064L244.359 82.928L244.743 83.248L242.695 82.864L242.951 81.136L247.239 80.912L248.391 96.208H247.943L254.215 81.104L257.543 80.944L258.855 96.176H258.503L264.103 82.896L264.263 83.344L262.055 82.864L262.311 81.136L268.295 80.912L268.071 82.608L266.247 83.152L266.759 82.768L259.943 98.064H256.551L254.951 83.376L255.815 83.44L249.479 98.064H246.087ZM278.056 70.704L273.192 101.36L266.12 101.2L266.44 99.184L270.856 98.992L274.984 73.04L270.6 72.88L270.92 70.864L278.056 70.704Z" fill="#009966"/>
<path d="M381.102 98.32C380.292 98.32 379.534 98.1067 378.83 97.68C378.148 97.232 377.593 96.5493 377.166 95.632C376.761 94.6933 376.558 93.4773 376.558 91.984C376.558 90.448 376.793 88.9973 377.262 87.632C377.753 86.2667 378.425 85.072 379.278 84.048C380.132 83.0027 381.134 82.1813 382.286 81.584C383.46 80.9867 384.718 80.688 386.062 80.688C386.894 80.688 387.758 80.8267 388.654 81.104C389.55 81.3813 390.457 81.8293 391.374 82.448L389.998 82.224L390.702 81.04H392.43L389.87 97.2L388.782 95.184L392.494 96.208L392.206 97.968L386.926 98.128L387.95 92.048L388.878 90.48C388.43 92.2293 387.769 93.6907 386.894 94.864C386.02 96.016 385.07 96.88 384.046 97.456C383.022 98.032 382.041 98.32 381.102 98.32ZM382.318 95.76C382.852 95.76 383.417 95.6 384.014 95.28C384.633 94.9387 385.22 94.4373 385.774 93.776C386.329 93.0933 386.82 92.2507 387.246 91.248C387.694 90.2453 388.025 89.072 388.238 87.728L388.942 83.248L389.486 84.336C388.868 83.9093 388.27 83.6 387.694 83.408C387.118 83.216 386.553 83.12 385.998 83.12C385.081 83.12 384.238 83.3547 383.47 83.824C382.724 84.2933 382.073 84.9227 381.518 85.712C380.964 86.5013 380.526 87.408 380.206 88.432C379.908 89.456 379.758 90.5227 379.758 91.632C379.758 93.0613 380.004 94.1067 380.494 94.768C380.985 95.4293 381.593 95.76 382.318 95.76ZM395.98 98L398.54 81.904L399.628 83.856L395.948 82.832L396.204 81.136L401.644 80.912L400.46 86.928L399.5 88.56C399.926 86.896 400.556 85.4773 401.388 84.304C402.241 83.1307 403.18 82.2453 404.204 81.648C405.249 81.0293 406.273 80.72 407.276 80.72C407.788 80.72 408.225 80.7947 408.588 80.944L407.724 85.968H405.772L405.804 82.864L406.22 83.216C405.622 83.1733 405.014 83.3227 404.396 83.664C403.777 83.984 403.18 84.4853 402.604 85.168C402.049 85.8507 401.558 86.6933 401.132 87.696C400.705 88.6987 400.385 89.8507 400.172 91.152L399.116 98H395.98ZM409.448 98L412.008 81.904L413.096 83.856L409.416 82.832L409.672 81.136L415.112 80.912L413.928 86.928L412.968 88.56C413.395 86.896 414.024 85.4773 414.856 84.304C415.71 83.1307 416.648 82.2453 417.672 81.648C418.718 81.0293 419.742 80.72 420.744 80.72C421.256 80.72 421.694 80.7947 422.056 80.944L421.192 85.968H419.24L419.272 82.864L419.688 83.216C419.091 83.1733 418.483 83.3227 417.864 83.664C417.246 83.984 416.648 84.4853 416.072 85.168C415.518 85.8507 415.027 86.6933 414.6 87.696C414.174 88.6987 413.854 89.8507 413.64 91.152L412.584 98H409.448ZM421.545 101.36L426.409 70.704L433.449 70.864L433.161 72.88L428.713 73.04L424.617 98.992L429.001 99.184L428.649 101.2L421.545 101.36ZM438.061 98.32C437.058 98.32 436.023 98.1813 434.957 97.904C433.89 97.6267 432.823 97.2107 431.757 96.656L432.877 94.352C433.687 94.7787 434.498 95.0987 435.309 95.312C436.141 95.5253 436.919 95.632 437.645 95.632C438.754 95.632 439.746 95.3973 440.621 94.928C441.495 94.4587 442.178 93.8187 442.669 93.008C443.181 92.176 443.437 91.2693 443.437 90.288C443.437 89.4347 443.255 88.784 442.893 88.336C442.551 87.8667 442.071 87.536 441.453 87.344C440.855 87.1307 440.183 87.0133 439.437 86.992C438.711 86.9493 437.965 86.928 437.197 86.928H434.541L436.781 75.6H448.205L447.757 78.192H438.573L439.565 77.584L438.061 85.2L437.325 84.464H439.053C439.586 84.464 440.194 84.4853 440.877 84.528C441.559 84.5707 442.253 84.6773 442.957 84.848C443.661 84.9973 444.311 85.2747 444.909 85.68C445.506 86.064 445.975 86.608 446.317 87.312C446.679 88.016 446.861 88.9227 446.861 90.032C446.861 91.5893 446.487 92.9973 445.741 94.256C444.994 95.5147 443.959 96.5067 442.637 97.232C441.314 97.9573 439.789 98.32 438.061 98.32ZM459.478 70.704L454.614 101.36L447.541 101.2L447.861 99.184L452.278 98.992L456.406 73.04L452.022 72.88L452.342 70.864L459.478 70.704ZM476.33 87.376L475.946 89.872H466.858L467.242 87.376H476.33ZM489.634 98.32C488.823 98.32 488.066 98.1067 487.362 97.68C486.679 97.232 486.124 96.5493 485.698 95.632C485.292 94.6933 485.09 93.4773 485.09 91.984C485.09 90.448 485.324 88.9973 485.794 87.632C486.284 86.2667 486.956 85.072 487.81 84.048C488.663 83.0027 489.666 82.1813 490.818 81.584C491.991 80.9867 493.25 80.688 494.594 80.688C495.426 80.688 496.29 80.8267 497.186 81.104C498.082 81.3813 498.988 81.8293 499.906 82.448L498.53 82.224L499.234 81.04H500.962L498.402 97.2L497.314 95.184L501.026 96.208L500.738 97.968L495.458 98.128L496.482 92.048L497.41 90.48C496.962 92.2293 496.3 93.6907 495.426 94.864C494.551 96.016 493.602 96.88 492.578 97.456C491.554 98.032 490.572 98.32 489.634 98.32ZM490.85 95.76C491.383 95.76 491.948 95.6 492.546 95.28C493.164 94.9387 493.751 94.4373 494.306 93.776C494.86 93.0933 495.351 92.2507 495.778 91.248C496.226 90.2453 496.556 89.072 496.77 87.728L497.474 83.248L498.018 84.336C497.399 83.9093 496.802 83.6 496.226 83.408C495.65 83.216 495.084 83.12 494.53 83.12C493.612 83.12 492.77 83.3547 492.002 83.824C491.255 84.2933 490.604 84.9227 490.05 85.712C489.495 86.5013 489.058 87.408 488.738 88.432C488.439 89.456 488.29 90.5227 488.29 91.632C488.29 93.0613 488.535 94.1067 489.026 94.768C489.516 95.4293 490.124 95.76 490.85 95.76ZM504.511 98L507.071 81.904L508.159 83.856L504.479 82.832L504.735 81.136L510.175 80.912L508.991 86.928L508.031 88.56C508.457 86.896 509.087 85.4773 509.919 84.304C510.772 83.1307 511.711 82.2453 512.735 81.648C513.78 81.0293 514.804 80.72 515.807 80.72C516.319 80.72 516.756 80.7947 517.119 80.944L516.255 85.968H514.303L514.335 82.864L514.751 83.216C514.153 83.1733 513.545 83.3227 512.927 83.664C512.308 83.984 511.711 84.4853 511.135 85.168C510.58 85.8507 510.089 86.6933 509.663 87.696C509.236 88.6987 508.916 89.8507 508.703 91.152L507.647 98H504.511ZM517.98 98L520.54 81.904L521.628 83.856L517.948 82.832L518.204 81.136L523.644 80.912L522.46 86.928L521.5 88.56C521.926 86.896 522.556 85.4773 523.388 84.304C524.241 83.1307 525.18 82.2453 526.204 81.648C527.249 81.0293 528.273 80.72 529.276 80.72C529.788 80.72 530.225 80.7947 530.588 80.944L529.724 85.968H527.772L527.804 82.864L528.22 83.216C527.622 83.1733 527.014 83.3227 526.396 83.664C525.777 83.984 525.18 84.4853 524.604 85.168C524.049 85.8507 523.558 86.6933 523.132 87.696C522.705 88.6987 522.385 89.8507 522.172 91.152L521.116 98H517.98ZM530.076 101.36L534.94 70.704L541.98 70.864L541.692 72.88L537.244 73.04L533.148 98.992L537.532 99.184L537.18 101.2L530.076 101.36ZM548.512 98.32C547.147 98.32 545.984 98.0533 545.024 97.52C544.064 96.9653 543.339 96.0907 542.848 94.896C542.357 93.68 542.112 92.0907 542.112 90.128C542.112 88.9547 542.208 87.696 542.4 86.352C542.613 84.9867 542.955 83.6533 543.424 82.352C543.893 81.0507 544.523 79.8667 545.312 78.8C546.123 77.7333 547.125 76.88 548.32 76.24C549.515 75.6 550.933 75.28 552.576 75.28C554.624 75.28 556.181 75.8773 557.248 77.072C558.315 78.2667 558.848 80.304 558.848 83.184C558.848 84.4 558.741 85.7013 558.528 87.088C558.336 88.4533 558.005 89.7973 557.536 91.12C557.067 92.4427 556.437 93.648 555.648 94.736C554.859 95.824 553.877 96.6987 552.704 97.36C551.531 98 550.133 98.32 548.512 98.32ZM548.896 95.76C549.92 95.76 550.805 95.4613 551.552 94.864C552.32 94.2453 552.96 93.4347 553.472 92.432C554.005 91.4293 554.421 90.352 554.72 89.2C555.04 88.0267 555.264 86.8747 555.392 85.744C555.541 84.6133 555.616 83.6213 555.616 82.768C555.616 81.5093 555.477 80.528 555.2 79.824C554.923 79.0987 554.528 78.5867 554.016 78.288C553.504 77.9893 552.896 77.84 552.192 77.84C551.125 77.84 550.197 78.128 549.408 78.704C548.64 79.28 547.989 80.048 547.456 81.008C546.944 81.9467 546.528 82.9813 546.208 84.112C545.909 85.2213 545.685 86.3307 545.536 87.44C545.408 88.528 545.344 89.5093 545.344 90.384C545.344 92.368 545.653 93.7653 546.272 94.576C546.912 95.3653 547.787 95.76 548.896 95.76ZM571.134 70.704L566.27 101.36L559.198 101.2L559.518 99.184L563.934 98.992L568.062 73.04L563.678 72.88L563.998 70.864L571.134 70.704Z" fill="#009966"/>
<path d="M417.702 216.968L406.342 237H402.758L414.406 216.744L414.822 217.256H404.902L405.702 216.712L404.422 220.584H402.47L403.398 214.6H418.054L417.702 216.968ZM433.877 226.376L433.493 228.872H424.405L424.789 226.376H433.877ZM449.548 235.368L449.068 234.504L453.004 235.272L452.716 237H441.9L442.188 235.272L447.18 234.408L446.38 235.368L449.26 217.352L450.124 217.416L444.364 220.552L443.596 218.504L450.252 214.472H452.876L449.548 235.368Z" fill="#009966"/>
<path d="M423.179 366.752L423.275 364.448C424.341 363.744 425.419 363.232 426.507 362.912C427.595 362.592 428.629 362.432 429.611 362.432C430.677 362.432 431.648 362.624 432.523 363.008C433.397 363.392 434.091 364 434.603 364.832C435.115 365.664 435.371 366.741 435.371 368.064C435.371 369.643 434.997 371.061 434.251 372.32C433.504 373.557 432.491 374.539 431.211 375.264C429.931 375.968 428.491 376.32 426.891 376.32C425.909 376.32 425.003 376.171 424.171 375.872C423.339 375.573 422.603 375.104 421.963 374.464C421.344 373.824 420.864 372.992 420.523 371.968C420.181 370.944 420.011 369.717 420.011 368.288C420.011 366.795 420.192 365.333 420.555 363.904C420.939 362.453 421.493 361.088 422.219 359.808C422.965 358.528 423.851 357.397 424.875 356.416C425.92 355.435 427.104 354.667 428.427 354.112C429.771 353.536 431.243 353.248 432.843 353.248C433.909 353.248 434.976 353.387 436.043 353.664L435.563 356.192C435.093 356.085 434.635 356.011 434.187 355.968C433.76 355.904 433.344 355.872 432.939 355.872C431.701 355.872 430.571 356.107 429.547 356.576C428.523 357.024 427.616 357.653 426.827 358.464C426.059 359.275 425.419 360.213 424.907 361.28C424.395 362.325 424 363.456 423.723 364.672C423.467 365.888 423.339 367.125 423.339 368.384C423.339 369.707 423.477 370.763 423.755 371.552C424.053 372.341 424.48 372.907 425.035 373.248C425.589 373.568 426.229 373.728 426.955 373.728C427.957 373.728 428.832 373.483 429.579 372.992C430.347 372.48 430.944 371.808 431.371 370.976C431.797 370.144 432.011 369.237 432.011 368.256C432.011 366.976 431.68 366.08 431.019 365.568C430.379 365.035 429.557 364.768 428.555 364.768C427.68 364.768 426.763 364.939 425.803 365.28C424.864 365.621 423.989 366.112 423.179 366.752Z" fill="#009966"/>
<path d="M424.717 515.32C423.522 515.32 422.381 515.16 421.293 514.84C420.205 514.52 419.202 514.061 418.285 513.464L419.405 511.128C421.048 512.152 422.786 512.664 424.621 512.664C425.752 512.664 426.754 512.461 427.629 512.056C428.504 511.651 429.186 511.085 429.677 510.36C430.189 509.613 430.445 508.749 430.445 507.768C430.445 507.021 430.274 506.413 429.933 505.944C429.592 505.453 429.09 505.091 428.429 504.856C427.789 504.621 427.01 504.504 426.093 504.504H423.533L423.917 502.104H426.445C428.109 502.104 429.378 501.677 430.253 500.824C431.149 499.971 431.597 498.915 431.597 497.656C431.597 496.525 431.266 495.757 430.605 495.352C429.965 494.925 429.144 494.712 428.141 494.712C427.458 494.712 426.733 494.787 425.965 494.936C425.218 495.085 424.504 495.267 423.821 495.48L424.269 494.968L423.373 498.584H421.453L421.901 493.528C423.138 493.123 424.354 492.813 425.549 492.6C426.744 492.387 427.853 492.28 428.877 492.28C430.029 492.28 431.053 492.44 431.949 492.76C432.866 493.059 433.581 493.56 434.093 494.264C434.626 494.947 434.893 495.896 434.893 497.112C434.893 498.861 434.328 500.28 433.197 501.368C432.088 502.435 430.626 503.085 428.813 503.32L428.557 503.032C430.328 503.181 431.618 503.651 432.429 504.44C433.24 505.229 433.645 506.339 433.645 507.768C433.645 509.24 433.261 510.552 432.493 511.704C431.725 512.835 430.669 513.72 429.325 514.36C427.981 515 426.445 515.32 424.717 515.32Z" fill="#009966"/>
<path d="M334.034 49.672L333.65 52.008H319.762L320.146 49.672H334.034ZM333.074 55.816L332.69 58.152H318.802L319.186 55.816H333.074Z" fill="white"/>
<path d="M334.034 188.672L333.65 191.008H319.762L320.146 188.672H334.034ZM333.074 194.816L332.69 197.152H318.802L319.186 194.816H333.074Z" fill="white"/>
<path d="M334.034 327.672L333.65 330.008H319.762L320.146 327.672H334.034ZM333.074 333.816L332.69 336.152H318.802L319.186 333.816H333.074Z" fill="white"/>
<path d="M334.034 466.672L333.65 469.008H319.762L320.146 466.672H334.034ZM333.074 472.816L332.69 475.152H318.802L319.186 472.816H333.074Z" fill="white"/>
<path d="M60.549 3.344C59.0557 5.09333 57.7543 6.992 56.645 9.04C55.5357 11.088 54.6717 13.2213 54.053 15.44C53.4557 17.6587 53.157 19.888 53.157 22.128C53.157 23.9627 53.3703 25.7973 53.797 27.632C54.245 29.4667 54.917 31.216 55.813 32.88L53.733 34C52.5383 32.1653 51.653 30.2027 51.077 28.112C50.501 26.0213 50.213 23.8987 50.213 21.744C50.213 19.2907 50.565 16.88 51.269 14.512C51.973 12.144 52.9543 9.89333 54.213 7.76C55.493 5.62667 56.9863 3.67467 58.693 1.904L60.549 3.344ZM57.7587 30L58.0467 28.304L60.8307 27.792L59.9988 28.24L65.6628 20.912L66.6548 20.784L72.5748 13.136L76.4468 12.912L76.1908 14.608L73.5668 15.152L74.4948 14.672L68.8628 21.552L67.9348 21.68L61.7588 30H57.7587ZM70.0788 30L65.9828 22.032L62.1428 14.704L62.7188 15.28L60.5748 14.864L60.8307 13.136L64.5748 12.848L68.3508 20.272L72.5428 28.24L71.9988 27.728L74.5908 28.304L74.3028 30H70.0788ZM93.3928 19.376L93.0088 21.872H83.9208L84.3048 19.376H93.3928ZM106.696 30.32C105.885 30.32 105.128 30.1067 104.424 29.68C103.741 29.232 103.187 28.5493 102.76 27.632C102.355 26.6933 102.152 25.4773 102.152 23.984C102.152 22.448 102.387 20.9973 102.856 19.632C103.347 18.2667 104.019 17.072 104.872 16.048C105.725 15.0027 106.728 14.1813 107.88 13.584C109.053 12.9867 110.312 12.688 111.656 12.688C112.488 12.688 113.352 12.8267 114.248 13.104C115.144 13.3813 116.051 13.8293 116.968 14.448L115.592 14.224L116.296 13.04H118.024L115.464 29.2L114.376 27.184L118.088 28.208L117.8 29.968L112.52 30.128L113.544 24.048L114.472 22.48C114.024 24.2293 113.363 25.6907 112.488 26.864C111.613 28.016 110.664 28.88 109.64 29.456C108.616 30.032 107.635 30.32 106.696 30.32ZM107.912 27.76C108.445 27.76 109.011 27.6 109.608 27.28C110.227 26.9387 110.813 26.4373 111.368 25.776C111.923 25.0933 112.413 24.2507 112.84 23.248C113.288 22.2453 113.619 21.072 113.832 19.728L114.536 15.248L115.08 16.336C114.461 15.9093 113.864 15.6 113.288 15.408C112.712 15.216 112.147 15.12 111.592 15.12C110.675 15.12 109.832 15.3547 109.064 15.824C108.317 16.2933 107.667 16.9227 107.112 17.712C106.557 18.5013 106.12 19.408 105.8 20.432C105.501 21.456 105.352 22.5227 105.352 23.632C105.352 25.0613 105.597 26.1067 106.088 26.768C106.579 27.4293 107.187 27.76 107.912 27.76ZM121.573 30L124.133 13.904L125.221 15.856L121.541 14.832L121.797 13.136L127.237 12.912L126.053 18.928L125.093 20.56C125.52 18.896 126.149 17.4773 126.981 16.304C127.835 15.1307 128.773 14.2453 129.797 13.648C130.843 13.0293 131.867 12.72 132.869 12.72C133.381 12.72 133.819 12.7947 134.181 12.944L133.317 17.968H131.365L131.397 14.864L131.813 15.216C131.216 15.1733 130.608 15.3227 129.989 15.664C129.371 15.984 128.773 16.4853 128.197 17.168C127.643 17.8507 127.152 18.6933 126.725 19.696C126.299 20.6987 125.979 21.8507 125.765 23.152L124.709 30H121.573ZM135.042 30L137.602 13.904L138.69 15.856L135.01 14.832L135.266 13.136L140.706 12.912L139.522 18.928L138.562 20.56C138.989 18.896 139.618 17.4773 140.45 16.304C141.303 15.1307 142.242 14.2453 143.266 13.648C144.311 13.0293 145.335 12.72 146.338 12.72C146.85 12.72 147.287 12.7947 147.65 12.944L146.786 17.968H144.834L144.866 14.864L145.282 15.216C144.685 15.1733 144.077 15.3227 143.458 15.664C142.839 15.984 142.242 16.4853 141.666 17.168C141.111 17.8507 140.621 18.6933 140.194 19.696C139.767 20.6987 139.447 21.8507 139.234 23.152L138.178 30H135.042ZM147.139 33.36L152.003 2.704L159.043 2.864L158.755 4.88L154.307 5.04L150.211 30.992L154.595 31.184L154.243 33.2L147.139 33.36ZM158.811 30.128L162.587 6.224L163.707 8.144L160.027 7.216L160.283 5.456L165.883 5.232L162.107 29.136L160.955 27.184L164.699 28.208L164.411 29.968L158.811 30.128ZM176.742 12.72C178 12.72 179.099 12.9653 180.038 13.456C180.976 13.9253 181.712 14.672 182.246 15.696C182.779 16.72 183.046 18.0533 183.046 19.696C183.046 21.0187 182.854 22.32 182.47 23.6C182.107 24.8587 181.552 26 180.806 27.024C180.059 28.0267 179.11 28.8267 177.958 29.424C176.827 30.0213 175.504 30.32 173.99 30.32C172.752 30.32 171.654 30.0853 170.694 29.616C169.755 29.1253 169.019 28.368 168.486 27.344C167.974 26.2987 167.718 24.9547 167.718 23.312C167.718 21.9893 167.899 20.6987 168.262 19.44C168.646 18.1813 169.211 17.0507 169.958 16.048C170.704 15.024 171.643 14.2133 172.774 13.616C173.904 13.0187 175.227 12.72 176.742 12.72ZM176.422 15.056C175.462 15.056 174.63 15.3227 173.926 15.856C173.243 16.3893 172.678 17.0827 172.23 17.936C171.782 18.768 171.451 19.6747 171.238 20.656C171.024 21.616 170.918 22.5227 170.918 23.376C170.918 24.8267 171.195 25.9573 171.75 26.768C172.326 27.5787 173.19 27.984 174.342 27.984C175.28 27.984 176.091 27.7173 176.774 27.184C177.478 26.6507 178.054 25.968 178.502 25.136C178.95 24.2827 179.28 23.376 179.494 22.416C179.728 21.4347 179.846 20.5067 179.846 19.632C179.846 18.1813 179.568 17.0613 179.014 16.272C178.459 15.4613 177.595 15.056 176.422 15.056ZM187.853 30.064L186.125 14.928L186.509 15.248L184.461 14.864L184.717 13.136L189.005 12.912L190.157 28.208H189.709L195.981 13.104L199.309 12.944L200.621 28.176H200.269L205.869 14.896L206.029 15.344L203.821 14.864L204.077 13.136L210.061 12.912L209.837 14.608L208.013 15.152L208.525 14.768L201.709 30.064H198.317L196.717 15.376L197.581 15.44L191.245 30.064H187.853ZM219.821 2.704L214.957 33.36L207.885 33.2L208.205 31.184L212.621 30.992L216.749 5.04L212.365 4.88L212.685 2.864L219.821 2.704ZM218.545 32.752C220.039 31.0027 221.34 29.104 222.449 27.056C223.559 25.008 224.412 22.8747 225.009 20.656C225.628 18.4373 225.937 16.208 225.937 13.968C225.937 12.1333 225.724 10.2987 225.297 8.464C224.871 6.62933 224.199 4.88 223.281 3.216L225.361 2.064C226.577 3.92 227.463 5.89333 228.017 7.984C228.593 10.0747 228.881 12.1973 228.881 14.352C228.881 16.784 228.529 19.184 227.825 21.552C227.121 23.92 226.129 26.1707 224.849 28.304C223.591 30.4373 222.108 32.4 220.401 34.192L218.545 32.752Z" fill="#E27C00"/>
<path d="M410.518 3.344C409.024 5.09333 407.723 6.992 406.614 9.04C405.504 11.088 404.64 13.2213 404.022 15.44C403.424 17.6587 403.126 19.888 403.126 22.128C403.126 23.9627 403.339 25.7973 403.766 27.632C404.214 29.4667 404.886 31.216 405.782 32.88L403.702 34C402.507 32.1653 401.622 30.2027 401.046 28.112C400.47 26.0213 400.182 23.8987 400.182 21.744C400.182 19.2907 400.534 16.88 401.238 14.512C401.942 12.144 402.923 9.89333 404.182 7.76C405.462 5.62667 406.955 3.67467 408.662 1.904L410.518 3.344ZM415.28 30.32C414.277 30.32 413.242 30.1813 412.176 29.904C411.109 29.6267 410.042 29.2107 408.976 28.656L410.096 26.352C410.906 26.7787 411.717 27.0987 412.528 27.312C413.36 27.5253 414.138 27.632 414.864 27.632C415.973 27.632 416.965 27.3973 417.84 26.928C418.714 26.4587 419.397 25.8187 419.888 25.008C420.4 24.176 420.656 23.2693 420.656 22.288C420.656 21.4347 420.474 20.784 420.112 20.336C419.77 19.8667 419.29 19.536 418.672 19.344C418.074 19.1307 417.402 19.0133 416.656 18.992C415.93 18.9493 415.184 18.928 414.416 18.928H411.76L414 7.6H425.424L424.976 10.192H415.792L416.784 9.584L415.28 17.2L414.544 16.464H416.272C416.805 16.464 417.413 16.4853 418.095 16.528C418.778 16.5707 419.472 16.6773 420.176 16.848C420.88 16.9973 421.53 17.2747 422.128 17.68C422.725 18.064 423.194 18.608 423.536 19.312C423.898 20.016 424.08 20.9227 424.08 22.032C424.08 23.5893 423.706 24.9973 422.96 26.256C422.213 27.5147 421.178 28.5067 419.856 29.232C418.533 29.9573 417.008 30.32 415.28 30.32ZM443.049 19.376L442.665 21.872H433.577L433.961 19.376H443.049ZM456.352 30.32C455.542 30.32 454.784 30.1067 454.08 29.68C453.398 29.232 452.843 28.5493 452.416 27.632C452.011 26.6933 451.808 25.4773 451.808 23.984C451.808 22.448 452.043 20.9973 452.512 19.632C453.003 18.2667 453.675 17.072 454.528 16.048C455.382 15.0027 456.384 14.1813 457.536 13.584C458.71 12.9867 459.968 12.688 461.312 12.688C462.144 12.688 463.008 12.8267 463.904 13.104C464.8 13.3813 465.707 13.8293 466.624 14.448L465.248 14.224L465.952 13.04H467.68L465.12 29.2L464.032 27.184L467.744 28.208L467.456 29.968L462.176 30.128L463.2 24.048L464.128 22.48C463.68 24.2293 463.019 25.6907 462.144 26.864C461.27 28.016 460.32 28.88 459.296 29.456C458.272 30.032 457.291 30.32 456.352 30.32ZM457.568 27.76C458.102 27.76 458.667 27.6 459.264 27.28C459.883 26.9387 460.47 26.4373 461.024 25.776C461.579 25.0933 462.07 24.2507 462.496 23.248C462.944 22.2453 463.275 21.072 463.488 19.728L464.192 15.248L464.736 16.336C464.118 15.9093 463.52 15.6 462.944 15.408C462.368 15.216 461.803 15.12 461.248 15.12C460.331 15.12 459.488 15.3547 458.72 15.824C457.974 16.2933 457.323 16.9227 456.768 17.712C456.214 18.5013 455.776 19.408 455.456 20.432C455.158 21.456 455.008 22.5227 455.008 23.632C455.008 25.0613 455.254 26.1067 455.744 26.768C456.235 27.4293 456.843 27.76 457.568 27.76ZM471.23 30L473.79 13.904L474.878 15.856L471.198 14.832L471.454 13.136L476.894 12.912L475.71 18.928L474.75 20.56C475.176 18.896 475.806 17.4773 476.638 16.304C477.491 15.1307 478.43 14.2453 479.454 13.648C480.499 13.0293 481.523 12.72 482.526 12.72C483.038 12.72 483.475 12.7947 483.838 12.944L482.974 17.968H481.022L481.054 14.864L481.47 15.216C480.872 15.1733 480.264 15.3227 479.646 15.664C479.027 15.984 478.43 16.4853 477.854 17.168C477.299 17.8507 476.808 18.6933 476.382 19.696C475.955 20.6987 475.635 21.8507 475.422 23.152L474.366 30H471.23ZM484.698 30L487.258 13.904L488.346 15.856L484.666 14.832L484.922 13.136L490.362 12.912L489.178 18.928L488.218 20.56C488.645 18.896 489.274 17.4773 490.106 16.304C490.96 15.1307 491.898 14.2453 492.922 13.648C493.968 13.0293 494.992 12.72 495.994 12.72C496.506 12.72 496.944 12.7947 497.306 12.944L496.442 17.968H494.49L494.522 14.864L494.938 15.216C494.341 15.1733 493.733 15.3227 493.114 15.664C492.496 15.984 491.898 16.4853 491.322 17.168C490.768 17.8507 490.277 18.6933 489.85 19.696C489.424 20.6987 489.104 21.8507 488.89 23.152L487.834 30H484.698ZM496.795 33.36L501.659 2.704L508.699 2.864L508.411 4.88L503.963 5.04L499.867 30.992L504.251 31.184L503.899 33.2L496.795 33.36ZM515.231 30.32C513.865 30.32 512.703 30.0533 511.743 29.52C510.783 28.9653 510.057 28.0907 509.567 26.896C509.076 25.68 508.831 24.0907 508.831 22.128C508.831 20.9547 508.927 19.696 509.119 18.352C509.332 16.9867 509.673 15.6533 510.143 14.352C510.612 13.0507 511.241 11.8667 512.031 10.8C512.841 9.73333 513.844 8.88 515.039 8.24C516.233 7.6 517.652 7.28 519.295 7.28C521.343 7.28 522.9 7.87733 523.967 9.072C525.033 10.2667 525.567 12.304 525.567 15.184C525.567 16.4 525.46 17.7013 525.247 19.088C525.055 20.4533 524.724 21.7973 524.255 23.12C523.785 24.4427 523.156 25.648 522.367 26.736C521.577 27.824 520.596 28.6987 519.423 29.36C518.249 30 516.852 30.32 515.231 30.32ZM515.615 27.76C516.639 27.76 517.524 27.4613 518.271 26.864C519.039 26.2453 519.679 25.4347 520.191 24.432C520.724 23.4293 521.14 22.352 521.439 21.2C521.759 20.0267 521.983 18.8747 522.111 17.744C522.26 16.6133 522.335 15.6213 522.335 14.768C522.335 13.5093 522.196 12.528 521.919 11.824C521.641 11.0987 521.247 10.5867 520.735 10.288C520.223 9.98933 519.615 9.84 518.911 9.84C517.844 9.84 516.916 10.128 516.127 10.704C515.359 11.28 514.708 12.048 514.175 13.008C513.663 13.9467 513.247 14.9813 512.927 16.112C512.628 17.2213 512.404 18.3307 512.255 19.44C512.127 20.528 512.063 21.5093 512.063 22.384C512.063 24.368 512.372 25.7653 512.991 26.576C513.631 27.3653 514.505 27.76 515.615 27.76ZM537.853 2.704L532.989 33.36L525.916 33.2L526.236 31.184L530.653 30.992L534.781 5.04L530.397 4.88L530.717 2.864L537.853 2.704ZM536.576 32.752C538.07 31.0027 539.371 29.104 540.481 27.056C541.59 25.008 542.443 22.8747 543.041 20.656C543.659 18.4373 543.969 16.208 543.969 13.968C543.969 12.1333 543.755 10.2987 543.329 8.464C542.902 6.62933 542.23 4.88 541.312 3.216L543.393 2.064C544.609 3.92 545.494 5.89333 546.049 7.984C546.625 10.0747 546.913 12.1973 546.913 14.352C546.913 16.784 546.561 19.184 545.857 21.552C545.153 23.92 544.161 26.1707 542.881 28.304C541.622 30.4373 540.139 32.4 538.433 34.192L536.576 32.752Z" fill="#E27C00"/>
<path d="M406.061 169.32C405.058 169.32 404.023 169.181 402.957 168.904C401.89 168.627 400.823 168.211 399.757 167.656L400.877 165.352C401.687 165.779 402.498 166.099 403.309 166.312C404.141 166.525 404.919 166.632 405.645 166.632C406.754 166.632 407.746 166.397 408.621 165.928C409.495 165.459 410.178 164.819 410.669 164.008C411.181 163.176 411.437 162.269 411.437 161.288C411.437 160.435 411.255 159.784 410.893 159.336C410.551 158.867 410.071 158.536 409.453 158.344C408.855 158.131 408.183 158.013 407.437 157.992C406.711 157.949 405.965 157.928 405.197 157.928H402.541L404.781 146.6H416.205L415.757 149.192H406.573L407.565 148.584L406.061 156.2L405.325 155.464H407.053C407.586 155.464 408.194 155.485 408.877 155.528C409.559 155.571 410.253 155.677 410.957 155.848C411.661 155.997 412.311 156.275 412.909 156.68C413.506 157.064 413.975 157.608 414.317 158.312C414.679 159.016 414.861 159.923 414.861 161.032C414.861 162.589 414.487 163.997 413.741 165.256C412.994 166.515 411.959 167.507 410.637 168.232C409.314 168.957 407.789 169.32 406.061 169.32ZM433.83 158.376L433.446 160.872H424.358L424.742 158.376H433.83ZM449.502 167.368L449.022 166.504L452.958 167.272L452.67 169H441.854L442.142 167.272L447.134 166.408L446.334 167.368L449.214 149.352L450.078 149.416L444.318 152.552L443.549 150.504L450.206 146.472H452.83L449.502 167.368Z" fill="#E27C00"/>
<path d="M428.917 301.92L429.589 302.624H418.773V300.288L431.189 285.216L434.677 285.6L432.309 300.672L431.605 300.032H435.893L435.477 302.624H431.189L432.117 301.92L431.157 308H427.957L428.917 301.92ZM430.101 300.032L429.109 300.672L431.253 287.168L432.277 287.36L420.949 301.184L420.565 300.032H430.101Z" fill="#E27C00"/>
<path d="M418.455 447L418.871 444.12C420.023 443.203 421.197 442.275 422.391 441.336C423.607 440.376 424.759 439.416 425.847 438.456C426.935 437.475 427.917 436.504 428.791 435.544C429.666 434.584 430.359 433.624 430.871 432.664C431.383 431.704 431.639 430.765 431.639 429.848C431.639 428.803 431.298 428.035 430.615 427.544C429.954 427.053 429.079 426.808 427.991 426.808C427.394 426.808 426.743 426.883 426.039 427.032C425.335 427.16 424.61 427.341 423.863 427.576L424.375 426.968L423.319 430.744H421.367L421.847 425.464C423.042 425.08 424.215 424.792 425.367 424.6C426.519 424.387 427.618 424.28 428.663 424.28C429.901 424.28 430.999 424.451 431.959 424.792C432.919 425.133 433.666 425.667 434.199 426.392C434.754 427.117 435.031 428.077 435.031 429.272C435.031 430.381 434.786 431.491 434.295 432.6C433.805 433.688 433.143 434.765 432.311 435.832C431.479 436.877 430.519 437.912 429.431 438.936C428.365 439.96 427.234 440.963 426.039 441.944C424.845 442.925 423.671 443.885 422.519 444.824L422.583 444.344H433.335L432.887 447H418.455Z" fill="#E27C00"/>
<line y1="53" x2="279" y2="53" stroke="white" stroke-width="2"/>
<line x1="371" y1="53" x2="576" y2="53" stroke="white" stroke-width="2"/>
<line x1="371" y1="192" x2="483" y2="192" stroke="white" stroke-width="2"/>
<line x1="394" y1="331" x2="460" y2="331" stroke="white" stroke-width="2"/>
<line x1="394" y1="470" x2="460" y2="470" stroke="white" stroke-width="2"/>
</svg>
