<svg xmlns="http://www.w3.org/2000/svg" width="1251" height="356" fill="none" viewBox="0 0 1251 356"><rect width="136" height="136" x="516" y="112" stroke="#dbdbdb" stroke-width="2" rx="27"/><rect width="136" height="136" x="1114" y="112" stroke="#dbdbdb" stroke-width="2" rx="27"/><rect width="136" height="136" x="360" y="112" stroke="#dbdbdb" stroke-width="2" rx="27"/><rect width="705" height="197" x="1" y="82" stroke="#dbdbdb" stroke-width="2" rx="27"/><rect width="136" height="136" x="204" y="112" stroke="#dbdbdb" stroke-dasharray="20 20" stroke-width="2" rx="27"/><rect width="136" height="136" x="48" y="112" stroke="#dbdbdb" stroke-dasharray="20 20" stroke-width="2" rx="27"/><path fill="#fff" d="M561.593 196v-29.091h9.83q3.423 0 5.596 1.236 2.188 1.22 3.239 3.31 1.051 2.088 1.051 4.659t-1.051 4.673q-1.037 2.102-3.21 3.352-2.173 1.236-5.569 1.236h-7.045v-3.125h6.932q2.343 0 3.764-.81t2.06-2.187q.653-1.393.653-3.139 0-1.748-.653-3.125-.64-1.379-2.074-2.159-1.436-.796-3.807-.796h-6.193V196zm34.709.398q-2.813 0-5.014-.966-2.188-.966-3.48-2.685-1.28-1.732-1.393-4.02h3.58q.114 1.407.966 2.429.852 1.009 2.23 1.563t3.054.554q1.875 0 3.324-.654 1.448-.653 2.273-1.818.823-1.164.823-2.699 0-1.605-.795-2.826-.795-1.236-2.33-1.932-1.533-.696-3.75-.696h-2.329v-3.125h2.329q1.734 0 3.04-.625 1.321-.625 2.06-1.762.753-1.136.753-2.67 0-1.478-.654-2.571-.653-1.093-1.846-1.705-1.179-.61-2.784-.61a7.3 7.3 0 0 0-2.841.554q-1.322.539-2.159 1.576-.838 1.023-.909 2.472h-3.41q.086-2.287 1.378-4.006 1.293-1.733 3.381-2.699 2.103-.966 4.616-.966 2.7 0 4.631 1.094 1.932 1.08 2.969 2.855a7.5 7.5 0 0 1 1.037 3.835q0 2.458-1.293 4.191-1.278 1.733-3.48 2.4v.228q2.756.454 4.304 2.343 1.548 1.876 1.548 4.645 0 2.373-1.292 4.262-1.278 1.875-3.495 2.954t-5.042 1.08M1159.72 196v-29.091h9.83c2.28 0 4.15.412 5.59 1.236q2.19 1.22 3.24 3.31 1.05 2.088 1.05 4.659t-1.05 4.673q-1.035 2.102-3.21 3.352c-1.45.824-3.3 1.236-5.57 1.236h-7.04v-3.125h6.93c1.56 0 2.82-.27 3.76-.81.95-.539 1.64-1.269 2.06-2.187q.66-1.393.66-3.139 0-1.748-.66-3.125-.63-1.379-2.07-2.159c-.96-.531-2.22-.796-3.81-.796h-6.19V196zm24.88 0v-2.557l9.6-10.511a65 65 0 0 0 2.78-3.21q1.095-1.379 1.62-2.586.54-1.221.54-2.556c0-1.023-.24-1.909-.74-2.657q-.72-1.121-1.98-1.733c-.85-.407-1.79-.61-2.85-.61-1.11 0-2.09.232-2.92.696a4.8 4.8 0 0 0-1.92 1.917c-.44.824-.67 1.79-.67 2.898h-3.35c0-1.705.39-3.201 1.18-4.489a8.25 8.25 0 0 1 3.21-3.011q2.04-1.08 4.59-1.08t4.53 1.08c1.32.72 2.35 1.69 3.1 2.912.74 1.221 1.12 2.58 1.12 4.077 0 1.07-.2 2.116-.58 3.139-.38 1.013-1.05 2.145-1.99 3.395-.94 1.24-2.24 2.755-3.91 4.545l-6.53 6.989v.227h13.52V196zM408.531 196v-29.091h9.829q3.423 0 5.597 1.236 2.188 1.22 3.238 3.31 1.051 2.088 1.051 4.659t-1.051 4.673q-1.036 2.102-3.21 3.352-2.174 1.236-5.568 1.236h-7.046v-3.125h6.932q2.345 0 3.764-.81 1.42-.81 2.06-2.187.654-1.393.654-3.139 0-1.748-.654-3.125-.639-1.379-2.074-2.159-1.434-.796-3.807-.796h-6.193V196zm35.106-29.091V196h-3.523v-25.398h-.17l-7.102 4.716v-3.579l7.272-4.83zM277.568 181.966v3.125h-12.727v-3.125zM121.568 181.966v3.125h-12.727v-3.125zM222.238 39V9.91h9.829q3.423 0 5.597 1.235 2.188 1.221 3.238 3.31 1.051 2.088 1.051 4.659t-1.051 4.673q-1.036 2.102-3.21 3.352-2.173 1.236-5.568 1.236h-7.046V25.25h6.932q2.345 0 3.765-.81t2.059-2.187q.654-1.392.654-3.14 0-1.747-.654-3.124-.639-1.379-2.074-2.16-1.434-.795-3.807-.795h-6.193V39zm24.936 0V17.182h3.238v3.295h.228q.596-1.62 2.159-2.628t3.522-1.008q.37 0 .924.014.553.015.838.043v3.409a10 10 0 0 0-.782-.128 7.7 7.7 0 0 0-1.264-.1q-1.59 0-2.841.668a5.04 5.04 0 0 0-1.96 1.818q-.71 1.15-.71 2.628V39zm14.882 0V17.182h3.353V39zm1.705-25.454a2.38 2.38 0 0 1-1.69-.668q-.696-.668-.696-1.605t.696-1.605a2.38 2.38 0 0 1 1.69-.668q.98 0 1.676.668.71.668.71 1.605 0 .938-.71 1.605a2.34 2.34 0 0 1-1.676.668m16.651 25.909q-2.954 0-5.184-1.407-2.217-1.406-3.466-3.934-1.236-2.529-1.236-5.91 0-3.408 1.236-5.951 1.25-2.543 3.466-3.949 2.23-1.406 5.184-1.406t5.171 1.406q2.23 1.407 3.466 3.949 1.25 2.543 1.25 5.951 0 3.381-1.25 5.91-1.236 2.528-3.466 3.934-2.217 1.407-5.171 1.407m0-3.012q2.245 0 3.693-1.15 1.449-1.15 2.145-3.026t.696-4.063-.696-4.076-2.145-3.054-3.693-1.165-3.693 1.165q-1.449 1.164-2.145 3.054t-.696 4.076q0 2.188.696 4.063t2.145 3.026q1.449 1.15 3.693 1.15M295.416 39V17.182h3.238v3.295h.228q.596-1.62 2.159-2.628t3.523-1.008q.37 0 .923.014.554.015.838.043v3.409a10 10 0 0 0-.781-.128 7.7 7.7 0 0 0-1.265-.1q-1.59 0-2.84.668a5.04 5.04 0 0 0-1.961 1.818q-.71 1.15-.71 2.628V39zm14.883 0V17.182h3.352V39zm1.704-25.454a2.38 2.38 0 0 1-1.69-.668q-.696-.668-.696-1.605t.696-1.605a2.38 2.38 0 0 1 1.69-.668q.98 0 1.676.668.711.668.711 1.605 0 .938-.711 1.605a2.33 2.33 0 0 1-1.676.668m17.276 3.636v2.84h-11.306v-2.84zm-8.011-5.227h3.352V32.75q0 1.42.412 2.13.426.697 1.08.938.668.227 1.406.227.554 0 .909-.056l.568-.114.682 3.011q-.34.128-.952.256-.61.142-1.548.142a6.75 6.75 0 0 1-2.784-.61 5.5 5.5 0 0 1-2.244-1.861q-.88-1.25-.881-3.154zm15.213 35.227a7.4 7.4 0 0 1-1.52-.142q-.668-.127-.923-.256l.852-2.954q1.222.312 2.159.227.938-.085 1.662-.838.74-.74 1.35-2.4l.625-1.705-8.068-21.932h3.636l6.023 17.386h.227l6.023-17.386h3.636l-9.261 25q-.625 1.69-1.549 2.798-.923 1.122-2.145 1.662-1.207.54-2.727.54m42.379-17.273h3.864l3.239 4.261.852 1.137 4.83 6.42h-3.864l-3.182-4.261-.795-1.08zm13.978-5.454q0 4.603-1.662 7.954t-4.56 5.17q-2.898 1.82-6.619 1.819-3.722 0-6.62-1.819-2.897-1.818-4.559-5.17t-1.662-7.954 1.662-7.955 4.559-5.17q2.898-1.82 6.62-1.819 3.721 0 6.619 1.819t4.56 5.17 1.662 7.954m-3.409 0q0-3.78-1.265-6.378-1.25-2.6-3.394-3.935-2.131-1.335-4.773-1.335t-4.787 1.335q-2.131 1.335-3.395 3.935-1.25 2.6-1.25 6.377 0 3.78 1.25 6.378 1.264 2.6 3.395 3.935 2.145 1.335 4.787 1.335t4.773-1.335q2.144-1.335 3.394-3.935 1.265-2.599 1.265-6.378m22.627 5.625V17.182h3.353V39h-3.353v-3.693h-.227q-.767 1.662-2.386 2.826-1.62 1.151-4.091 1.151-2.046 0-3.636-.895-1.591-.909-2.5-2.727-.91-1.832-.91-4.616V17.182h3.353v13.636q0 2.387 1.335 3.807 1.35 1.42 3.437 1.42 1.25 0 2.543-.639 1.306-.64 2.188-1.96.894-1.32.894-3.366m18.64 9.375q-3.153 0-5.44-1.392-2.273-1.407-3.508-3.921-1.222-2.529-1.222-5.88 0-3.353 1.222-5.91 1.235-2.571 3.437-4.005 2.216-1.45 5.17-1.45 1.705 0 3.367.569 1.661.568 3.026 1.846 1.363 1.264 2.173 3.353.81 2.088.809 5.142v1.42h-16.818V26.33h13.409q0-1.846-.738-3.295a5.57 5.57 0 0 0-2.074-2.287q-1.335-.838-3.154-.838-2.002 0-3.465.994a6.54 6.54 0 0 0-2.231 2.557 7.5 7.5 0 0 0-.781 3.38v1.933q0 2.472.852 4.19.867 1.704 2.401 2.6 1.534.88 3.565.88 1.322 0 2.387-.37a5.1 5.1 0 0 0 1.861-1.136q.78-.766 1.207-1.903l3.239.91a7.2 7.2 0 0 1-1.719 2.897q-1.207 1.236-2.983 1.932-1.775.681-3.992.681m27.884-9.375V17.182h3.352V39h-3.352v-3.693h-.227q-.767 1.662-2.387 2.826-1.619 1.151-4.091 1.151-2.044 0-3.636-.895-1.591-.909-2.5-2.727-.909-1.832-.909-4.616V17.182h3.352v13.636q0 2.387 1.335 3.807 1.35 1.42 3.438 1.42 1.25 0 2.543-.639 1.307-.64 2.187-1.96.895-1.32.895-3.366m18.64 9.375q-3.153 0-5.441-1.392-2.272-1.407-3.508-3.921-1.221-2.529-1.222-5.88 0-3.353 1.222-5.91 1.236-2.571 3.437-4.005 2.216-1.45 5.171-1.45 1.704 0 3.366.569 1.662.568 3.026 1.846 1.363 1.264 2.173 3.353.81 2.088.81 5.142v1.42h-16.818V26.33h13.409q0-1.846-.739-3.295a5.56 5.56 0 0 0-2.074-2.287q-1.335-.838-3.153-.838-2.003 0-3.466.994a6.54 6.54 0 0 0-2.23 2.557 7.5 7.5 0 0 0-.781 3.38v1.933q0 2.472.852 4.19.867 1.704 2.4 2.6 1.535.88 3.566.88 1.32 0 2.386-.37a5.1 5.1 0 0 0 1.861-1.136q.781-.766 1.207-1.903l3.239.91a7.2 7.2 0 0 1-1.719 2.897q-1.207 1.236-2.983 1.932-1.775.681-3.991.681"/><path stroke="#dbdbdb" stroke-linecap="round" stroke-linejoin="round" stroke-width="4" d="m622.375 307.25 16.25 16.25-16.25 16.25"/><path stroke="#dbdbdb" stroke-width="5" d="M60 323.5h576"/><path stroke="#dbdbdb" stroke-linecap="round" stroke-linejoin="round" stroke-width="4" d="m1020.28 173.148 22.36 5.308-5.31 22.36"/><path stroke="#dbdbdb" stroke-width="4" d="M765 181c115.08 52.373 175.748 54.801 275.5 0"/><path fill="#fff" d="M846.523 174v-29.091h9.829q3.423 0 5.597 1.236 2.187 1.22 3.239 3.31 1.05 2.088 1.051 4.659t-1.051 4.673q-1.038 2.102-3.211 3.352-2.173 1.236-5.568 1.236h-7.045v-3.125h6.931q2.344 0 3.765-.81 1.42-.81 2.059-2.187.654-1.392.654-3.139 0-1.748-.654-3.125-.639-1.379-2.074-2.159-1.434-.796-3.806-.796h-6.194V174zm24.879 0v-2.557l9.602-10.511a67 67 0 0 0 2.784-3.21q1.094-1.379 1.62-2.586a6.25 6.25 0 0 0 .539-2.556q0-1.535-.738-2.657-.724-1.121-1.989-1.733-1.264-.61-2.841-.61-1.676 0-2.926.696a4.8 4.8 0 0 0-1.917 1.917q-.669 1.236-.668 2.898h-3.352q0-2.557 1.179-4.489a8.2 8.2 0 0 1 3.21-3.011q2.045-1.08 4.588-1.08 2.557 0 4.531 1.08 1.975 1.08 3.097 2.912t1.122 4.077q0 1.605-.582 3.139-.569 1.52-1.989 3.395-1.407 1.86-3.906 4.545l-6.534 6.989v.227h13.522V174zm44.673.455q-3.153 0-5.44-1.393-2.273-1.406-3.509-3.92-1.221-2.529-1.221-5.881 0-3.351 1.221-5.909 1.236-2.571 3.438-4.005 2.216-1.449 5.17-1.449 1.705 0 3.367.568t3.025 1.846q1.364 1.265 2.174 3.353t.809 5.142v1.42h-16.818v-2.897H921.7q0-1.847-.738-3.296a5.57 5.57 0 0 0-2.074-2.287q-1.335-.838-3.154-.838-2.002 0-3.466.994a6.55 6.55 0 0 0-2.23 2.557 7.5 7.5 0 0 0-.781 3.381v1.932q0 2.47.852 4.19.867 1.704 2.401 2.599 1.534.882 3.565.881 1.321 0 2.387-.369a5.1 5.1 0 0 0 1.86-1.136q.782-.767 1.208-1.904l3.238.909a7.16 7.16 0 0 1-1.718 2.898q-1.208 1.236-2.983 1.932-1.775.681-3.992.682m16.048-22.273 5.227 8.92 5.227-8.92h3.864l-7.045 10.909L946.441 174h-3.864l-5.227-8.466-5.227 8.466h-3.864l6.932-10.909-6.932-10.909zM951.224 174v-21.818h3.353V174zm1.705-25.455a2.38 2.38 0 0 1-1.69-.667q-.696-.668-.696-1.605 0-.938.696-1.605a2.38 2.38 0 0 1 1.69-.668q.98 0 1.676.668.71.667.71 1.605t-.71 1.605a2.34 2.34 0 0 1-1.676.667m17.276 3.637v2.841h-11.307v-2.841zm-8.011-5.227h3.352v20.795q0 1.42.412 2.131.426.696 1.08.937.667.227 1.406.227.553 0 .909-.056l.568-.114.682 3.011a7 7 0 0 1-.952.256q-.61.142-1.548.142a6.75 6.75 0 0 1-2.784-.611 5.5 5.5 0 0 1-2.244-1.861q-.881-1.25-.881-3.153zm28.118 10.113-3.012.852a5.6 5.6 0 0 0-.838-1.463q-.539-.724-1.477-1.193-.937-.469-2.4-.469-2.003 0-3.339.924-1.32.91-1.321 2.315 0 1.25.91 1.975.91.723 2.84 1.207l3.239.795q2.926.71 4.361 2.174 1.434 1.449 1.435 3.735 0 1.875-1.08 3.353-1.066 1.477-2.983 2.329t-4.46.853q-3.338 0-5.526-1.449t-2.77-4.233l3.182-.796q.454 1.762 1.719 2.642 1.278.88 3.338.881 2.343 0 3.722-.994 1.392-1.01 1.392-2.415 0-1.137-.796-1.903-.796-.782-2.443-1.165l-3.636-.853q-2.997-.71-4.404-2.201-1.392-1.506-1.392-3.764 0-1.848 1.037-3.267 1.052-1.42 2.855-2.231 1.818-.809 4.12-.809 3.238 0 5.085 1.42 1.86 1.42 2.642 3.75M832.557 260.182v2.841H821.25v-2.841zm-8.012-5.227h3.353v20.795q0 1.42.412 2.131.426.696 1.079.937a4.3 4.3 0 0 0 1.406.227q.555 0 .91-.056l.568-.114.682 3.011a7 7 0 0 1-.952.256q-.61.142-1.548.142a6.8 6.8 0 0 1-2.785-.611 5.53 5.53 0 0 1-2.244-1.861q-.88-1.25-.881-3.153zm16.875 13.92V282h-3.352v-29.091h3.352v10.682h.285a6.16 6.16 0 0 1 2.301-2.685q1.548-1.008 4.119-1.008 2.23 0 3.906.895 1.677.88 2.6 2.713.937 1.818.937 4.63V282h-3.352v-13.636q0-2.6-1.35-4.02-1.335-1.435-3.707-1.435-1.647 0-2.954.696-1.293.696-2.046 2.031-.739 1.336-.739 3.239m29.429 13.58q-3.154 0-5.441-1.393-2.272-1.406-3.508-3.92-1.222-2.529-1.222-5.881 0-3.351 1.222-5.909 1.236-2.571 3.437-4.005 2.216-1.449 5.171-1.449 1.704 0 3.366.568t3.026 1.846q1.363 1.265 2.173 3.353t.81 5.142v1.42h-16.818v-2.897h13.409q0-1.848-.739-3.296a5.57 5.57 0 0 0-2.074-2.287q-1.335-.838-3.153-.838-2.003 0-3.466.994a6.55 6.55 0 0 0-2.23 2.557 7.5 7.5 0 0 0-.781 3.381v1.932q0 2.47.852 4.19.866 1.704 2.4 2.599 1.535.881 3.566.881 1.32 0 2.386-.369a5.1 5.1 0 0 0 1.861-1.136q.781-.767 1.207-1.904l3.239.909a7.2 7.2 0 0 1-1.719 2.898q-1.207 1.236-2.983 1.932-1.776.682-3.991.682m40.27 7.727v-11.534h-.284q-.37.596-1.052 1.505-.681.895-1.946 1.606-1.264.696-3.366.696-2.727 0-4.815-1.378-2.09-1.392-3.268-3.921-1.178-2.543-1.178-6.008 0-3.438 1.178-5.966 1.179-2.529 3.282-3.906t4.858-1.378q2.13 0 3.366.71 1.25.696 1.904 1.591.667.88 1.037 1.449h.397v-3.466h3.239v30zm-6.194-10.739q2.017 0 3.41-1.051 1.392-1.065 2.116-2.94.724-1.89.724-4.361 0-2.443-.71-4.276-.71-1.846-2.102-2.869-1.392-1.037-3.438-1.037-2.13 0-3.551 1.094-1.406 1.08-2.116 2.94-.696 1.847-.696 4.148 0 2.33.71 4.233.724 1.889 2.131 3.011 1.42 1.108 3.522 1.108m29.432-6.363v-12.898h3.353V282h-3.353v-3.693h-.227q-.767 1.662-2.386 2.827-1.62 1.15-4.091 1.15-2.046 0-3.637-.895-1.59-.909-2.5-2.727-.909-1.832-.909-4.617v-13.863h3.353v13.636q0 2.387 1.335 3.807 1.349 1.42 3.437 1.42 1.25 0 2.543-.639 1.307-.639 2.187-1.96.895-1.321.895-3.366m18.64 9.375q-3.154 0-5.44-1.393-2.273-1.406-3.509-3.92-1.221-2.529-1.221-5.881 0-3.351 1.221-5.909 1.236-2.571 3.438-4.005 2.216-1.449 5.17-1.449 1.705 0 3.367.568t3.025 1.846q1.364 1.265 2.174 3.353t.809 5.142v1.42h-16.818v-2.897h13.409q0-1.848-.738-3.296a5.57 5.57 0 0 0-2.074-2.287q-1.336-.838-3.154-.838-2.002 0-3.466.994a6.55 6.55 0 0 0-2.23 2.557 7.5 7.5 0 0 0-.781 3.381v1.932q0 2.47.852 4.19.867 1.704 2.401 2.599 1.534.881 3.565.881 1.321 0 2.387-.369a5.1 5.1 0 0 0 1.86-1.136q.782-.767 1.208-1.904l3.238.909a7.2 7.2 0 0 1-1.718 2.898q-1.208 1.236-2.983 1.932-1.776.682-3.992.682m27.884-9.375v-12.898h3.352V282h-3.352v-3.693h-.228q-.766 1.662-2.386 2.827-1.619 1.15-4.091 1.15-2.046 0-3.636-.895-1.591-.909-2.5-2.727-.909-1.832-.909-4.617v-13.863h3.352v13.636q0 2.387 1.335 3.807 1.35 1.42 3.438 1.42 1.25 0 2.542-.639 1.308-.639 2.188-1.96.895-1.321.895-3.366m18.64 9.375q-3.154 0-5.441-1.393-2.272-1.406-3.508-3.92-1.222-2.529-1.222-5.881 0-3.351 1.222-5.909 1.236-2.571 3.437-4.005 2.216-1.449 5.171-1.449c1.14 0 2.26.189 3.37.568 1.1.379 2.11.994 3.02 1.846.91.843 1.64 1.961 2.18 3.353.53 1.392.8 3.106.8 5.142v1.42h-16.813v-2.897h13.413c0-1.232-.25-2.33-.74-3.296a5.63 5.63 0 0 0-2.08-2.287q-1.335-.838-3.15-.838-2.004 0-3.466.994a6.54 6.54 0 0 0-2.23 2.557 7.5 7.5 0 0 0-.782 3.381v1.932q0 2.47.853 4.19.866 1.704 2.4 2.599 1.534.881 3.566.881c.879 0 1.679-.123 2.389-.369a5.1 5.1 0 0 0 1.86-1.136c.52-.512.92-1.146 1.21-1.904l3.23.909a7.2 7.2 0 0 1-1.71 2.898c-.81.824-1.8 1.468-2.99 1.932q-1.77.682-3.989.682"/></svg>