<svg xmlns="http://www.w3.org/2000/svg" width="707" height="1477" fill="none" viewBox="0 0 707 1477"><rect width="136" height="136" x="516" y="167" stroke="#dbdbdb" stroke-width="2" rx="27"/><rect width="136" height="136" x="516" y="700" stroke="#dbdbdb" stroke-width="2" rx="27"/><rect width="136" height="136" x="516" y="1233" stroke="#dbdbdb" stroke-width="2" rx="27"/><rect width="136" height="136" x="360" y="700" stroke="#dbdbdb" stroke-width="2" rx="27"/><rect width="136" height="136" x="360" y="1233" stroke="#dbdbdb" stroke-width="2" rx="27"/><rect width="136" height="136" x="360" y="167" stroke="#dbdbdb" stroke-dasharray="20 20" stroke-width="2" rx="27"/><rect width="136" height="136" x="204" y="167" stroke="#dbdbdb" stroke-dasharray="20 20" stroke-width="2" rx="27"/><rect width="136" height="136" x="48" y="167" stroke="#dbdbdb" stroke-dasharray="20 20" stroke-width="2" rx="27"/><rect width="705" height="197" x="1" y="137" stroke="#dbdbdb" stroke-width="2" rx="27"/><rect width="705" height="197" x="1" y="670" stroke="#dbdbdb" stroke-width="2" rx="27"/><rect width="705" height="197" x="1" y="1203" stroke="#dbdbdb" stroke-width="2" rx="27"/><rect width="136" height="136" x="204" y="700" stroke="#dbdbdb" stroke-dasharray="20 20" stroke-width="2" rx="27"/><rect width="136" height="136" x="204" y="1233" stroke="#dbdbdb" stroke-width="2" rx="27"/><rect width="136" height="136" x="48" y="700" stroke="#dbdbdb" stroke-dasharray="20 20" stroke-width="2" rx="27"/><rect width="136" height="136" x="48" y="1233" stroke="#dbdbdb" stroke-dasharray="20 20" stroke-width="2" rx="27"/><path fill="#fff" d="M565.523 251v-29.091h9.829q3.423 0 5.597 1.236 2.187 1.22 3.239 3.31 1.05 2.088 1.051 4.659t-1.051 4.673q-1.038 2.102-3.211 3.352-2.173 1.236-5.568 1.236h-7.045v-3.125h6.931q2.345 0 3.765-.81t2.059-2.187q.654-1.393.654-3.139 0-1.748-.654-3.125-.639-1.379-2.074-2.159-1.434-.796-3.806-.796h-6.194V251zm35.106-29.091V251h-3.522v-25.398h-.171l-7.102 4.716v-3.579l7.273-4.83z"/><path fill="#717171" d="M574.841 108.398q-2.812 0-5.014-.966-2.188-.966-3.48-2.685-1.28-1.733-1.392-4.02h3.579q.114 1.406.966 2.429.852 1.009 2.23 1.563t3.054.554q1.875 0 3.324-.654 1.448-.652 2.273-1.818.824-1.164.824-2.699 0-1.605-.796-2.826-.795-1.236-2.329-1.932t-3.75-.696H572v-3.125h2.33q1.732 0 3.039-.625 1.322-.625 2.06-1.762.753-1.135.753-2.67 0-1.477-.654-2.571-.653-1.094-1.846-1.705-1.179-.61-2.784-.61a7.3 7.3 0 0 0-2.841.553q-1.322.54-2.159 1.577-.838 1.023-.909 2.472h-3.409q.085-2.287 1.377-4.006 1.293-1.733 3.381-2.699 2.102-.966 4.617-.966 2.698 0 4.63 1.094 1.932 1.08 2.969 2.855a7.5 7.5 0 0 1 1.037 3.836q0 2.457-1.293 4.19-1.278 1.733-3.48 2.4v.228q2.756.454 4.304 2.343 1.548 1.876 1.548 4.645 0 2.373-1.292 4.262-1.278 1.874-3.494 2.954t-5.043 1.08M575.239 611.909V641h-3.523v-25.398h-.171l-7.102 4.716v-3.579l7.273-4.83zM575.239 1144.91V1174h-3.523v-25.4h-.171l-7.102 4.72v-3.58l7.273-4.83zM427.841 641.398q-2.812 0-5.014-.966-2.189-.966-3.48-2.685-1.28-1.732-1.392-4.02h3.579q.114 1.406.966 2.429.853 1.009 2.23 1.563 1.379.554 3.054.554 1.875 0 3.324-.654 1.448-.653 2.273-1.818.824-1.164.824-2.699 0-1.605-.796-2.826-.795-1.236-2.329-1.932t-3.75-.696H425v-3.125h2.33q1.733 0 3.039-.625 1.322-.625 2.06-1.762.753-1.135.753-2.67 0-1.478-.654-2.571-.653-1.093-1.846-1.705-1.179-.61-2.784-.61a7.3 7.3 0 0 0-2.841.554q-1.322.539-2.159 1.576-.839 1.023-.909 2.472h-3.409q.085-2.287 1.377-4.006 1.293-1.733 3.381-2.699 2.102-.966 4.617-.966 2.698 0 4.63 1.094 1.932 1.08 2.969 2.855a7.5 7.5 0 0 1 1.037 3.835q0 2.458-1.293 4.191-1.278 1.732-3.48 2.4v.228q2.756.455 4.304 2.343 1.548 1.876 1.548 4.645 0 2.372-1.292 4.262-1.278 1.875-3.494 2.954t-5.043 1.08M418.011 1174v-2.56l9.603-10.51a66 66 0 0 0 2.784-3.21q1.094-1.38 1.619-2.58c.36-.82.54-1.67.54-2.56 0-1.02-.246-1.91-.739-2.66a4.87 4.87 0 0 0-1.988-1.73c-.843-.41-1.79-.61-2.841-.61-1.118 0-2.093.23-2.927.7a4.77 4.77 0 0 0-1.917 1.91c-.445.83-.668 1.79-.668 2.9h-3.352c0-1.7.393-3.2 1.179-4.49a8.2 8.2 0 0 1 3.21-3.01q2.046-1.08 4.588-1.08 2.557 0 4.532 1.08 1.974 1.08 3.096 2.91t1.122 4.08c0 1.07-.194 2.12-.582 3.14q-.569 1.515-1.989 3.39c-.937 1.24-2.239 2.76-3.906 4.55l-6.534 6.99v.23h13.523v3.12zM271.841 1174.4c-1.875 0-3.546-.32-5.014-.97-1.459-.64-2.619-1.54-3.48-2.68q-1.28-1.74-1.392-4.02h3.579q.114 1.395.966 2.43.852 1.005 2.23 1.56c.919.37 1.937.55 3.054.55 1.25 0 2.358-.22 3.324-.65.966-.44 1.723-1.04 2.273-1.82q.824-1.17.824-2.7 0-1.605-.796-2.82c-.53-.83-1.307-1.47-2.329-1.94q-1.535-.69-3.75-.69H269v-3.13h2.33c1.155 0 2.168-.21 3.039-.62.881-.42 1.568-1.01 2.06-1.76q.753-1.14.753-2.67 0-1.485-.654-2.58a4.54 4.54 0 0 0-1.846-1.7c-.786-.41-1.714-.61-2.784-.61-1.004 0-1.951.18-2.841.55-.881.36-1.601.89-2.159 1.58-.559.68-.862 1.51-.909 2.47h-3.409c.056-1.52.516-2.86 1.377-4q1.293-1.74 3.381-2.7c1.402-.65 2.94-.97 4.617-.97 1.799 0 3.342.37 4.63 1.1 1.288.71 2.278 1.67 2.969 2.85a7.47 7.47 0 0 1 1.037 3.84c0 1.63-.431 3.03-1.293 4.19q-1.278 1.725-3.48 2.4v.22c1.837.31 3.272 1.09 4.304 2.35 1.032 1.25 1.548 2.8 1.548 4.64q0 2.37-1.292 4.26c-.852 1.25-2.017 2.24-3.494 2.96q-2.217 1.08-5.043 1.08"/><path fill="#fff" d="M561.718 784v-29.091h9.83q3.423 0 5.596 1.236 2.188 1.22 3.239 3.31 1.051 2.088 1.051 4.659t-1.051 4.673q-1.037 2.102-3.21 3.352-2.173 1.236-5.569 1.236h-7.045v-3.125h6.932q2.343 0 3.764-.81t2.06-2.187q.653-1.393.653-3.139 0-1.748-.653-3.125-.64-1.379-2.074-2.159-1.436-.796-3.807-.796h-6.193V784zm24.879 0v-2.557l9.603-10.511a68 68 0 0 0 2.784-3.21q1.094-1.378 1.619-2.586.54-1.221.54-2.556 0-1.535-.739-2.657-.724-1.122-1.989-1.733-1.263-.61-2.84-.61-1.677 0-2.927.696a4.8 4.8 0 0 0-1.917 1.917q-.668 1.236-.668 2.898h-3.352q0-2.557 1.179-4.489a8.2 8.2 0 0 1 3.21-3.011q2.046-1.08 4.588-1.08 2.557 0 4.531 1.08 1.975 1.08 3.097 2.912t1.122 4.077q0 1.605-.582 3.139-.568 1.52-1.989 3.395-1.406 1.86-3.906 4.545l-6.534 6.989v.227h13.523V784zM561.718 1317v-29.09h9.83q3.423 0 5.596 1.23c1.459.82 2.538 1.92 3.239 3.31.701 1.4 1.051 2.95 1.051 4.66q0 2.58-1.051 4.68c-.691 1.4-1.762 2.52-3.21 3.35-1.449.82-3.305 1.24-5.569 1.24h-7.045v-3.13h6.932q2.343 0 3.764-.81t2.06-2.19c.435-.93.653-1.97.653-3.14q0-1.74-.653-3.12-.64-1.38-2.074-2.16c-.957-.53-2.226-.8-3.807-.8h-6.193V1317zm24.879 0v-2.56l9.603-10.51a67 67 0 0 0 2.784-3.21q1.094-1.38 1.619-2.58c.36-.82.54-1.67.54-2.56 0-1.02-.246-1.91-.739-2.66a4.86 4.86 0 0 0-1.989-1.73c-.842-.41-1.789-.61-2.84-.61-1.118 0-2.093.23-2.927.7a4.77 4.77 0 0 0-1.917 1.91c-.445.83-.668 1.79-.668 2.9h-3.352c0-1.7.393-3.2 1.179-4.49a8.2 8.2 0 0 1 3.21-3.01q2.046-1.08 4.588-1.08 2.557 0 4.531 1.08 1.975 1.08 3.097 2.91t1.122 4.08c0 1.07-.194 2.12-.582 3.14q-.568 1.515-1.989 3.39c-.937 1.24-2.239 2.76-3.906 4.55l-6.534 6.99v.23h13.523v3.12zM408.531 784v-29.091h9.829q3.423 0 5.597 1.236 2.188 1.22 3.238 3.31 1.051 2.088 1.051 4.659t-1.051 4.673q-1.036 2.102-3.21 3.352-2.174 1.236-5.568 1.236h-7.046v-3.125h6.932q2.345 0 3.764-.81 1.42-.81 2.06-2.187.654-1.393.654-3.139 0-1.748-.654-3.125-.639-1.379-2.074-2.159-1.434-.796-3.807-.796h-6.193V784zm35.106-29.091V784h-3.523v-25.398h-.17l-7.102 4.716v-3.579l7.272-4.83zM405.593 1317v-29.09h9.83q3.423 0 5.596 1.23c1.459.82 2.538 1.92 3.239 3.31.701 1.4 1.051 2.95 1.051 4.66q0 2.58-1.051 4.68c-.691 1.4-1.762 2.52-3.21 3.35-1.449.82-3.305 1.24-5.569 1.24h-7.045v-3.13h6.932q2.343 0 3.764-.81t2.06-2.19c.435-.93.653-1.97.653-3.14q0-1.74-.653-3.12-.64-1.38-2.074-2.16c-.957-.53-2.226-.8-3.807-.8h-6.193V1317zm34.709.4c-1.875 0-3.547-.32-5.014-.97-1.459-.64-2.619-1.54-3.48-2.68q-1.28-1.74-1.393-4.02h3.58q.114 1.395.966 2.43.852 1.005 2.23 1.56c.919.37 1.937.55 3.054.55 1.25 0 2.358-.22 3.324-.65.966-.44 1.723-1.04 2.273-1.82q.823-1.17.823-2.7 0-1.605-.795-2.82c-.53-.83-1.307-1.47-2.33-1.94q-1.533-.69-3.75-.69h-2.329v-3.13h2.329c1.156 0 2.169-.21 3.04-.62.881-.42 1.567-1.01 2.06-1.76q.753-1.14.753-2.67 0-1.485-.654-2.58a4.54 4.54 0 0 0-1.846-1.7c-.786-.41-1.714-.61-2.784-.61-1.004 0-1.951.18-2.841.55-.881.36-1.601.89-2.159 1.58-.559.68-.862 1.51-.909 2.47h-3.41c.057-1.52.517-2.86 1.378-4q1.293-1.74 3.381-2.7c1.402-.65 2.94-.97 4.616-.97 1.8 0 3.343.37 4.631 1.1 1.288.71 2.278 1.67 2.969 2.85a7.47 7.47 0 0 1 1.037 3.84c0 1.63-.431 3.03-1.293 4.19q-1.278 1.725-3.48 2.4v.22c1.837.31 3.272 1.09 4.304 2.35 1.032 1.25 1.548 2.8 1.548 4.64q0 2.37-1.292 4.26c-.852 1.25-2.017 2.24-3.495 2.96q-2.216 1.08-5.042 1.08M433.568 236.966v3.125h-12.727v-3.125zM277.568 769.966v3.125h-12.727v-3.125zM252.531 1317v-29.09h9.829q3.423 0 5.597 1.23c1.458.82 2.538 1.92 3.238 3.31.701 1.4 1.051 2.95 1.051 4.66q0 2.58-1.051 4.68c-.691 1.4-1.761 2.52-3.21 3.35-1.449.82-3.305 1.24-5.568 1.24h-7.046v-3.13h6.932q2.345 0 3.764-.81 1.42-.81 2.06-2.19c.436-.93.654-1.97.654-3.14q0-1.74-.654-3.12-.639-1.38-2.074-2.16c-.956-.53-2.225-.8-3.807-.8h-6.193V1317zm35.106-29.09V1317h-3.523v-25.4h-.17l-7.102 4.72v-3.58l7.272-4.83zM277.568 236.966v3.125h-12.727v-3.125zM121.568 769.966v3.125h-12.727v-3.125zM121.568 1302.97v3.12h-12.727v-3.12zM121.568 236.966v3.125h-12.727v-3.125zM222.238 39V9.91h9.829q3.423 0 5.597 1.235 2.188 1.221 3.238 3.31 1.051 2.088 1.051 4.659t-1.051 4.673q-1.036 2.102-3.21 3.352-2.173 1.236-5.568 1.236h-7.046V25.25h6.932q2.345 0 3.765-.81t2.059-2.187q.654-1.392.654-3.14 0-1.747-.654-3.124-.639-1.379-2.074-2.16-1.434-.795-3.807-.795h-6.193V39zm24.936 0V17.182h3.238v3.295h.228q.596-1.62 2.159-2.628t3.522-1.008q.37 0 .924.014.553.015.838.043v3.409a10 10 0 0 0-.782-.128 7.7 7.7 0 0 0-1.264-.1q-1.59 0-2.841.668a5.04 5.04 0 0 0-1.96 1.818q-.71 1.15-.71 2.628V39zm14.882 0V17.182h3.353V39zm1.705-25.454a2.38 2.38 0 0 1-1.69-.668q-.696-.668-.696-1.605t.696-1.605a2.38 2.38 0 0 1 1.69-.668q.98 0 1.676.668.71.668.71 1.605 0 .938-.71 1.605a2.34 2.34 0 0 1-1.676.668m16.651 25.909q-2.954 0-5.184-1.407-2.217-1.406-3.466-3.934-1.236-2.529-1.236-5.91 0-3.408 1.236-5.951 1.25-2.543 3.466-3.949 2.23-1.406 5.184-1.406t5.171 1.406q2.23 1.407 3.466 3.949 1.25 2.543 1.25 5.951 0 3.381-1.25 5.91-1.236 2.528-3.466 3.934-2.217 1.407-5.171 1.407m0-3.012q2.245 0 3.693-1.15 1.449-1.15 2.145-3.026t.696-4.063-.696-4.076-2.145-3.054-3.693-1.165-3.693 1.165q-1.449 1.164-2.145 3.054t-.696 4.076q0 2.188.696 4.063t2.145 3.026q1.449 1.15 3.693 1.15M295.416 39V17.182h3.238v3.295h.228q.596-1.62 2.159-2.628t3.523-1.008q.37 0 .923.014.554.015.838.043v3.409a10 10 0 0 0-.781-.128 7.7 7.7 0 0 0-1.265-.1q-1.59 0-2.84.668a5.04 5.04 0 0 0-1.961 1.818q-.71 1.15-.71 2.628V39zm14.883 0V17.182h3.352V39zm1.704-25.454a2.38 2.38 0 0 1-1.69-.668q-.696-.668-.696-1.605t.696-1.605a2.38 2.38 0 0 1 1.69-.668q.98 0 1.676.668.711.668.711 1.605 0 .938-.711 1.605a2.33 2.33 0 0 1-1.676.668m17.276 3.636v2.84h-11.306v-2.84zm-8.011-5.227h3.352V32.75q0 1.42.412 2.13.426.697 1.08.938.668.227 1.406.227.554 0 .909-.056l.568-.114.682 3.011q-.34.128-.952.256-.61.142-1.548.142a6.75 6.75 0 0 1-2.784-.61 5.5 5.5 0 0 1-2.244-1.861q-.88-1.25-.881-3.154zm15.213 35.227a7.4 7.4 0 0 1-1.52-.142q-.668-.127-.923-.256l.852-2.954q1.222.312 2.159.227.938-.085 1.662-.838.74-.74 1.35-2.4l.625-1.705-8.068-21.932h3.636l6.023 17.386h.227l6.023-17.386h3.636l-9.261 25q-.625 1.69-1.549 2.798-.923 1.122-2.145 1.662-1.207.54-2.727.54m42.379-17.273h3.864l3.239 4.261.852 1.137 4.83 6.42h-3.864l-3.182-4.261-.795-1.08zm13.978-5.454q0 4.603-1.662 7.954t-4.56 5.17q-2.898 1.82-6.619 1.819-3.722 0-6.62-1.819-2.897-1.818-4.559-5.17t-1.662-7.954 1.662-7.955 4.559-5.17q2.898-1.82 6.62-1.819 3.721 0 6.619 1.819t4.56 5.17 1.662 7.954m-3.409 0q0-3.78-1.265-6.378-1.25-2.6-3.394-3.935-2.131-1.335-4.773-1.335t-4.787 1.335q-2.131 1.335-3.395 3.935-1.25 2.6-1.25 6.377 0 3.78 1.25 6.378 1.264 2.6 3.395 3.935 2.145 1.335 4.787 1.335t4.773-1.335q2.144-1.335 3.394-3.935 1.265-2.599 1.265-6.378m22.627 5.625V17.182h3.353V39h-3.353v-3.693h-.227q-.767 1.662-2.386 2.826-1.62 1.151-4.091 1.151-2.046 0-3.636-.895-1.591-.909-2.5-2.727-.91-1.832-.91-4.616V17.182h3.353v13.636q0 2.387 1.335 3.807 1.35 1.42 3.437 1.42 1.25 0 2.543-.639 1.306-.64 2.188-1.96.894-1.32.894-3.366m18.64 9.375q-3.153 0-5.44-1.392-2.273-1.407-3.508-3.921-1.222-2.529-1.222-5.88 0-3.353 1.222-5.91 1.235-2.571 3.437-4.005 2.216-1.45 5.17-1.45 1.705 0 3.367.569 1.661.568 3.026 1.846 1.363 1.264 2.173 3.353.81 2.088.809 5.142v1.42h-16.818V26.33h13.409q0-1.846-.738-3.295a5.57 5.57 0 0 0-2.074-2.287q-1.335-.838-3.154-.838-2.002 0-3.465.994a6.54 6.54 0 0 0-2.231 2.557 7.5 7.5 0 0 0-.781 3.38v1.933q0 2.472.852 4.19.867 1.704 2.401 2.6 1.534.88 3.565.88 1.322 0 2.387-.37a5.1 5.1 0 0 0 1.861-1.136q.78-.766 1.207-1.903l3.239.91a7.2 7.2 0 0 1-1.719 2.897q-1.207 1.236-2.983 1.932-1.775.681-3.992.681m27.884-9.375V17.182h3.352V39h-3.352v-3.693h-.227q-.767 1.662-2.387 2.826-1.619 1.151-4.091 1.151-2.044 0-3.636-.895-1.591-.909-2.5-2.727-.909-1.832-.909-4.616V17.182h3.352v13.636q0 2.387 1.335 3.807 1.35 1.42 3.438 1.42 1.25 0 2.543-.639 1.307-.64 2.187-1.96.895-1.32.895-3.366m18.64 9.375q-3.153 0-5.441-1.392-2.272-1.407-3.508-3.921-1.221-2.529-1.222-5.88 0-3.353 1.222-5.91 1.236-2.571 3.437-4.005 2.216-1.45 5.171-1.45 1.704 0 3.366.569 1.662.568 3.026 1.846 1.363 1.264 2.173 3.353.81 2.088.81 5.142v1.42h-16.818V26.33h13.409q0-1.846-.739-3.295a5.56 5.56 0 0 0-2.074-2.287q-1.335-.838-3.153-.838-2.003 0-3.466.994a6.54 6.54 0 0 0-2.23 2.557 7.5 7.5 0 0 0-.781 3.38v1.933q0 2.472.852 4.19.867 1.704 2.4 2.6 1.535.88 3.566.88 1.32 0 2.386-.37a5.1 5.1 0 0 0 1.861-1.136q.781-.766 1.207-1.903l3.239.91a7.2 7.2 0 0 1-1.719 2.897q-1.207 1.236-2.983 1.932-1.775.681-3.991.681M222.238 559v-29.091h9.829q3.423 0 5.597 1.236 2.188 1.22 3.238 3.31 1.051 2.088 1.051 4.659t-1.051 4.673q-1.036 2.102-3.21 3.352-2.173 1.236-5.568 1.236h-7.046v-3.125h6.932q2.345 0 3.765-.81t2.059-2.187q.654-1.393.654-3.139 0-1.748-.654-3.125-.639-1.379-2.074-2.159-1.434-.796-3.807-.796h-6.193V559zm24.936 0v-21.818h3.238v3.295h.228q.596-1.618 2.159-2.628 1.562-1.008 3.522-1.008.37 0 .924.014.553.015.838.043v3.409a10 10 0 0 0-.782-.128 8 8 0 0 0-1.264-.099q-1.59 0-2.841.667a5.05 5.05 0 0 0-1.96 1.818q-.71 1.15-.71 2.628V559zm14.882 0v-21.818h3.353V559zm1.705-25.455a2.38 2.38 0 0 1-1.69-.667q-.696-.668-.696-1.605t.696-1.605a2.38 2.38 0 0 1 1.69-.668q.98 0 1.676.668.71.668.71 1.605t-.71 1.605a2.34 2.34 0 0 1-1.676.667m16.651 25.91q-2.954 0-5.184-1.407-2.217-1.406-3.466-3.934-1.236-2.53-1.236-5.909 0-3.41 1.236-5.952 1.25-2.543 3.466-3.949 2.23-1.407 5.184-1.406 2.954 0 5.171 1.406 2.23 1.406 3.466 3.949 1.25 2.543 1.25 5.952 0 3.38-1.25 5.909-1.236 2.528-3.466 3.934-2.217 1.407-5.171 1.407m0-3.012q2.245 0 3.693-1.15 1.449-1.15 2.145-3.026t.696-4.062q0-2.188-.696-4.077-.696-1.89-2.145-3.054-1.448-1.165-3.693-1.165t-3.693 1.165q-1.449 1.164-2.145 3.054t-.696 4.077.696 4.062 2.145 3.026 3.693 1.15M295.416 559v-21.818h3.238v3.295h.228q.596-1.618 2.159-2.628 1.563-1.008 3.523-1.008.37 0 .923.014.554.015.838.043v3.409a10 10 0 0 0-.781-.128 8 8 0 0 0-1.265-.099q-1.59 0-2.84.667a5.04 5.04 0 0 0-1.961 1.818q-.71 1.15-.71 2.628V559zm14.883 0v-21.818h3.352V559zm1.704-25.455a2.38 2.38 0 0 1-1.69-.667q-.696-.668-.696-1.605t.696-1.605a2.38 2.38 0 0 1 1.69-.668q.98 0 1.676.668.711.668.711 1.605t-.711 1.605a2.33 2.33 0 0 1-1.676.667m17.276 3.637v2.841h-11.306v-2.841zm-8.011-5.227h3.352v20.795q0 1.42.412 2.131.426.696 1.08.937a4.3 4.3 0 0 0 1.406.227q.554 0 .909-.056l.568-.114.682 3.011a7 7 0 0 1-.952.256q-.61.142-1.548.142a6.75 6.75 0 0 1-2.784-.611 5.5 5.5 0 0 1-2.244-1.861q-.88-1.25-.881-3.153zm15.213 35.227a7.4 7.4 0 0 1-1.52-.142q-.668-.128-.923-.256l.852-2.954q1.222.312 2.159.227.938-.085 1.662-.838.74-.74 1.35-2.401l.625-1.704-8.068-21.932h3.636l6.023 17.386h.227l6.023-17.386h3.636l-9.261 25q-.625 1.69-1.549 2.798-.923 1.122-2.145 1.662-1.207.54-2.727.54m42.379-17.273h3.864l3.239 4.261.852 1.137 4.83 6.42h-3.864l-3.182-4.261-.795-1.08zm13.978-5.454q0 4.602-1.662 7.954t-4.56 5.171q-2.898 1.818-6.619 1.818-3.722 0-6.62-1.818-2.897-1.819-4.559-5.171t-1.662-7.954q0-4.603 1.662-7.955t4.559-5.17q2.898-1.82 6.62-1.819 3.721 0 6.619 1.819t4.56 5.17q1.662 3.352 1.662 7.955m-3.409 0q0-3.779-1.265-6.378-1.25-2.6-3.394-3.935-2.131-1.335-4.773-1.335t-4.787 1.335q-2.131 1.335-3.395 3.935-1.25 2.6-1.25 6.378t1.25 6.377q1.264 2.6 3.395 3.935 2.145 1.335 4.787 1.335t4.773-1.335q2.144-1.335 3.394-3.935 1.265-2.6 1.265-6.377m22.627 5.625v-12.898h3.353V559h-3.353v-3.693h-.227q-.767 1.662-2.386 2.827-1.62 1.15-4.091 1.15-2.046 0-3.636-.895-1.591-.909-2.5-2.727-.91-1.832-.91-4.617v-13.863h3.353v13.636q0 2.387 1.335 3.807 1.35 1.42 3.437 1.42 1.25 0 2.543-.639 1.306-.639 2.188-1.96.894-1.322.894-3.366m18.64 9.375q-3.153 0-5.44-1.393-2.273-1.406-3.508-3.92-1.222-2.529-1.222-5.881 0-3.351 1.222-5.909 1.235-2.571 3.437-4.005 2.216-1.449 5.17-1.449 1.705 0 3.367.568t3.026 1.846q1.363 1.265 2.173 3.353t.809 5.142v1.42h-16.818v-2.897h13.409q0-1.847-.738-3.296a5.57 5.57 0 0 0-2.074-2.287q-1.335-.838-3.154-.838-2.002 0-3.465.994a6.55 6.55 0 0 0-2.231 2.557 7.5 7.5 0 0 0-.781 3.381v1.932q0 2.47.852 4.19.867 1.705 2.401 2.599 1.534.881 3.565.881 1.322 0 2.387-.369a5.1 5.1 0 0 0 1.861-1.136q.78-.767 1.207-1.904l3.239.909a7.2 7.2 0 0 1-1.719 2.898q-1.207 1.236-2.983 1.932-1.775.682-3.992.682m27.884-9.375v-12.898h3.352V559h-3.352v-3.693h-.227q-.767 1.662-2.387 2.827-1.619 1.15-4.091 1.15-2.044 0-3.636-.895-1.591-.909-2.5-2.727-.909-1.832-.909-4.617v-13.863h3.352v13.636q0 2.387 1.335 3.807 1.35 1.42 3.438 1.42 1.25 0 2.543-.639 1.307-.639 2.187-1.96.895-1.322.895-3.366m18.64 9.375q-3.153 0-5.441-1.393-2.272-1.406-3.508-3.92-1.221-2.529-1.222-5.881 0-3.351 1.222-5.909 1.236-2.571 3.437-4.005 2.216-1.449 5.171-1.449 1.704 0 3.366.568t3.026 1.846q1.363 1.265 2.173 3.353t.81 5.142v1.42h-16.818v-2.897h13.409q0-1.847-.739-3.296a5.57 5.57 0 0 0-2.074-2.287q-1.335-.838-3.153-.838-2.003 0-3.466.994a6.55 6.55 0 0 0-2.23 2.557 7.5 7.5 0 0 0-.781 3.381v1.932q0 2.47.852 4.19.867 1.705 2.4 2.599 1.535.881 3.566.881 1.32 0 2.386-.369a5.1 5.1 0 0 0 1.861-1.136q.781-.767 1.207-1.904l3.239.909a7.2 7.2 0 0 1-1.719 2.898q-1.207 1.236-2.983 1.932-1.775.682-3.991.682M222.238 1092v-29.09h9.829q3.423 0 5.597 1.23c1.458.82 2.538 1.92 3.238 3.31.701 1.4 1.051 2.95 1.051 4.66q0 2.58-1.051 4.68c-.691 1.4-1.761 2.52-3.21 3.35-1.449.82-3.305 1.24-5.568 1.24h-7.046v-3.13h6.932q2.345 0 3.765-.81t2.059-2.19c.436-.93.654-1.97.654-3.14q0-1.74-.654-3.12-.639-1.38-2.074-2.16c-.956-.53-2.225-.8-3.807-.8h-6.193V1092zm24.936 0v-21.82h3.238v3.3h.228c.397-1.08 1.117-1.96 2.159-2.63s2.216-1.01 3.522-1.01c.247 0 .554.01.924.02.369 0 .648.02.838.04v3.41c-.114-.03-.374-.07-.782-.13-.397-.07-.819-.1-1.264-.1-1.06 0-2.007.22-2.841.67a5 5 0 0 0-1.96 1.82c-.473.76-.71 1.64-.71 2.62V1092zm14.882 0v-21.82h3.353V1092zm1.705-25.45c-.653 0-1.217-.23-1.69-.67-.464-.45-.696-.98-.696-1.61 0-.62.232-1.16.696-1.6a2.36 2.36 0 0 1 1.69-.67c.653 0 1.212.22 1.676.67.474.44.71.98.71 1.6 0 .63-.236 1.16-.71 1.61-.464.44-1.023.67-1.676.67m16.651 25.9c-1.969 0-3.698-.46-5.184-1.4-1.478-.94-2.633-2.25-3.466-3.94q-1.236-2.52-1.236-5.91c0-2.27.412-4.25 1.236-5.95.833-1.69 1.988-3.01 3.466-3.95 1.486-.93 3.215-1.4 5.184-1.4s3.693.47 5.171 1.4c1.486.94 2.642 2.26 3.466 3.95.833 1.7 1.25 3.68 1.25 5.95q0 3.39-1.25 5.91c-.824 1.69-1.98 3-3.466 3.94-1.478.94-3.201 1.4-5.171 1.4m0-3.01c1.496 0 2.728-.38 3.693-1.15.966-.76 1.681-1.77 2.145-3.02s.696-2.61.696-4.07c0-1.45-.232-2.81-.696-4.07q-.696-1.89-2.145-3.06c-.965-.77-2.197-1.16-3.693-1.16s-2.727.39-3.693 1.16q-1.449 1.17-2.145 3.06c-.464 1.26-.696 2.62-.696 4.07 0 1.46.232 2.82.696 4.07s1.179 2.26 2.145 3.02c.966.77 2.197 1.15 3.693 1.15m15.004 2.56v-21.82h3.238v3.3h.228c.397-1.08 1.117-1.96 2.159-2.63s2.216-1.01 3.523-1.01c.246 0 .554.01.923.02.369 0 .649.02.838.04v3.41c-.114-.03-.374-.07-.781-.13-.398-.07-.819-.1-1.265-.1-1.06 0-2.007.22-2.84.67a5 5 0 0 0-1.961 1.82c-.473.76-.71 1.64-.71 2.62V1092zm14.883 0v-21.82h3.352V1092zm1.704-25.45c-.653 0-1.217-.23-1.69-.67-.464-.45-.696-.98-.696-1.61 0-.62.232-1.16.696-1.6a2.36 2.36 0 0 1 1.69-.67c.654 0 1.212.22 1.676.67.474.44.711.98.711 1.6 0 .63-.237 1.16-.711 1.61-.464.44-1.022.67-1.676.67m17.276 3.63v2.84h-11.306v-2.84zm-8.011-5.23h3.352v20.8q0 1.425.412 2.13c.284.46.644.78 1.08.94.445.15.914.23 1.406.23q.554 0 .909-.06c.237-.05.426-.09.568-.11l.682 3.01c-.227.08-.544.17-.952.25-.407.1-.923.14-1.548.14-.947 0-1.875-.2-2.784-.61q-1.35-.6-2.244-1.86-.88-1.245-.881-3.15zm15.213 35.23c-.568 0-1.075-.05-1.52-.14s-.753-.17-.923-.26l.852-2.95c.815.21 1.534.28 2.159.23q.938-.09 1.662-.84.74-.735 1.35-2.4l.625-1.71-8.068-21.93h3.636l6.023 17.39h.227l6.023-17.39h3.636l-9.261 25c-.417 1.13-.933 2.06-1.549 2.8-.615.75-1.33 1.3-2.145 1.66q-1.207.54-2.727.54m42.379-17.27h3.864l3.239 4.26.852 1.14 4.83 6.42h-3.864l-3.182-4.26-.795-1.08zm13.978-5.46c0 3.07-.554 5.72-1.662 7.96-1.108 2.23-2.628 3.96-4.56 5.17s-4.138 1.82-6.619 1.82-4.688-.61-6.62-1.82c-1.931-1.21-3.451-2.94-4.559-5.17-1.108-2.24-1.662-4.89-1.662-7.96 0-3.06.554-5.72 1.662-7.95s2.628-3.96 4.559-5.17 4.139-1.82 6.62-1.82 4.687.61 6.619 1.82 3.452 2.94 4.56 5.17 1.662 4.89 1.662 7.95m-3.409 0c0-2.51-.422-4.64-1.265-6.37-.833-1.74-1.965-3.05-3.394-3.94-1.421-.89-3.012-1.33-4.773-1.33-1.762 0-3.357.44-4.787 1.33-1.421.89-2.552 2.2-3.395 3.94-.833 1.73-1.25 3.86-1.25 6.37 0 2.52.417 4.65 1.25 6.38.843 1.74 1.974 3.05 3.395 3.94 1.43.89 3.025 1.33 4.787 1.33 1.761 0 3.352-.44 4.773-1.33 1.429-.89 2.561-2.2 3.394-3.94.843-1.73 1.265-3.86 1.265-6.38m22.627 5.63v-12.9h3.353V1092h-3.353v-3.69h-.227c-.511 1.1-1.307 2.05-2.386 2.82s-2.443 1.15-4.091 1.15c-1.364 0-2.576-.29-3.636-.89q-1.591-.915-2.5-2.73c-.607-1.22-.91-2.76-.91-4.61v-13.87h3.353v13.64c0 1.59.445 2.86 1.335 3.8.9.95 2.045 1.43 3.437 1.43.834 0 1.681-.22 2.543-.64.871-.43 1.6-1.08 2.188-1.96.596-.88.894-2.01.894-3.37m18.64 9.37c-2.102 0-3.915-.46-5.44-1.39-1.515-.94-2.685-2.24-3.508-3.92q-1.222-2.52-1.222-5.88 0-3.345 1.222-5.91c.823-1.71 1.969-3.05 3.437-4 1.477-.97 3.201-1.45 5.17-1.45q1.705 0 3.367.57c1.108.37 2.116.99 3.026 1.84s1.633 1.96 2.173 3.35c.54 1.4.809 3.11.809 5.15v1.42h-16.818v-2.9h13.409q0-1.845-.738-3.3a5.6 5.6 0 0 0-2.074-2.28q-1.335-.84-3.154-.84-2.002 0-3.465.99a6.6 6.6 0 0 0-2.231 2.56 7.5 7.5 0 0 0-.781 3.38v1.93c0 1.65.284 3.05.852 4.19.578 1.14 1.378 2.01 2.401 2.6s2.211.88 3.565.88c.881 0 1.677-.12 2.387-.37.719-.25 1.34-.63 1.861-1.13.52-.51.923-1.15 1.207-1.91l3.239.91a7.16 7.16 0 0 1-1.719 2.9c-.805.82-1.799 1.47-2.983 1.93s-2.514.68-3.992.68m27.884-9.37v-12.9h3.352V1092h-3.352v-3.69h-.227c-.512 1.1-1.307 2.05-2.387 2.82-1.079.77-2.443 1.15-4.091 1.15-1.363 0-2.575-.29-3.636-.89q-1.591-.915-2.5-2.73c-.606-1.22-.909-2.76-.909-4.61v-13.87h3.352v13.64c0 1.59.445 2.86 1.335 3.8.9.95 2.046 1.43 3.438 1.43.833 0 1.681-.22 2.543-.64.871-.43 1.6-1.08 2.187-1.96.597-.88.895-2.01.895-3.37m18.64 9.37c-2.102 0-3.916-.46-5.441-1.39-1.515-.94-2.684-2.24-3.508-3.92q-1.221-2.52-1.222-5.88 0-3.345 1.222-5.91c.824-1.71 1.97-3.05 3.437-4 1.478-.97 3.201-1.45 5.171-1.45q1.704 0 3.366.57c1.108.37 2.117.99 3.026 1.84s1.633 1.96 2.173 3.35c.54 1.4.81 3.11.81 5.15v1.42h-16.818v-2.9h13.409q0-1.845-.739-3.3a5.6 5.6 0 0 0-2.074-2.28q-1.335-.84-3.153-.84-2.003 0-3.466.99a6.6 6.6 0 0 0-2.23 2.56 7.5 7.5 0 0 0-.781 3.38v1.93c0 1.65.284 3.05.852 4.19.578 1.14 1.378 2.01 2.4 2.6s2.212.88 3.566.88c.88 0 1.676-.12 2.386-.37.72-.25 1.34-.63 1.861-1.13.521-.51.923-1.15 1.207-1.91l3.239.91a7.16 7.16 0 0 1-1.719 2.9c-.805.82-1.799 1.47-2.983 1.93-1.183.46-2.514.68-3.991.68"/><path stroke="#dbdbdb" stroke-linecap="round" stroke-linejoin="round" stroke-width="4" d="m622.375 895.25 16.25 16.25-16.25 16.25M622.375 1428.25l16.25 16.25-16.25 16.25M622.375 362.25l16.25 16.25-16.25 16.25"/><path stroke="#dbdbdb" stroke-width="5" d="M44 911.5h592M44 1444.5h592M44 378.5h592"/></svg>