<svg width="558" height="1797" viewBox="0 0 558 1797" fill="none" xmlns="http://www.w3.org/2000/svg">
<rect x="367" y="122" width="136" height="136" rx="27" stroke="#DBDBDB" stroke-width="2" stroke-dasharray="20 20"/>
<rect x="367" y="599" width="136" height="136" rx="27" stroke="#DBDBDB" stroke-width="2"/>
<rect x="367" y="1076" width="136" height="136" rx="27" stroke="#DBDBDB" stroke-width="2"/>
<rect x="367" y="1553" width="136" height="136" rx="27" stroke="#DBDBDB" stroke-width="2"/>
<rect x="211" y="122" width="136" height="136" rx="27" stroke="#DBDBDB" stroke-width="2" stroke-dasharray="20 20"/>
<rect x="211" y="599" width="136" height="136" rx="27" stroke="#DBDBDB" stroke-width="2" stroke-dasharray="20 20"/>
<rect x="211" y="1076" width="136" height="136" rx="27" stroke="#DBDBDB" stroke-width="2"/>
<rect x="211" y="1553" width="136" height="136" rx="27" stroke="#DBDBDB" stroke-width="2"/>
<rect x="55" y="122" width="136" height="136" rx="27" stroke="#DBDBDB" stroke-width="2" stroke-dasharray="20 20"/>
<rect x="55" y="599" width="136" height="136" rx="27" stroke="#DBDBDB" stroke-width="2" stroke-dasharray="20 20"/>
<rect x="55" y="1076" width="136" height="136" rx="27" stroke="#DBDBDB" stroke-width="2" stroke-dasharray="20 20"/>
<rect x="55" y="1553" width="136" height="136" rx="27" stroke="#DBDBDB" stroke-width="2"/>
<rect x="1" y="92" width="556" height="197" rx="27" stroke="#DBDBDB" stroke-width="2"/>
<rect x="1" y="569" width="556" height="197" rx="27" stroke="#DBDBDB" stroke-width="2"/>
<rect x="1" y="1046" width="556" height="197" rx="27" stroke="#DBDBDB" stroke-width="2"/>
<rect x="1" y="1523" width="556" height="197" rx="27" stroke="#DBDBDB" stroke-width="2"/>
<path d="M444.869 191.966V195.091H432.142V191.966H444.869Z" fill="white"/>
<path d="M419.531 683V653.909H429.36C431.642 653.909 433.508 654.321 434.957 655.145C436.415 655.959 437.495 657.062 438.195 658.455C438.896 659.847 439.246 661.4 439.246 663.114C439.246 664.828 438.896 666.385 438.195 667.787C437.504 669.188 436.434 670.306 434.985 671.139C433.536 671.963 431.68 672.375 429.417 672.375H422.371V669.25H429.303C430.866 669.25 432.121 668.98 433.067 668.44C434.014 667.901 434.701 667.171 435.127 666.253C435.563 665.325 435.781 664.278 435.781 663.114C435.781 661.949 435.563 660.907 435.127 659.989C434.701 659.07 434.01 658.35 433.053 657.83C432.097 657.299 430.828 657.034 429.246 657.034H423.053V683H419.531ZM454.637 653.909V683H451.114V657.602H450.944L443.842 662.318V658.739L451.114 653.909H454.637Z" fill="white"/>
<path d="M419.531 1160V1130.91H429.36C431.642 1130.91 433.508 1131.32 434.957 1132.14C436.415 1132.96 437.495 1134.06 438.195 1135.45C438.896 1136.85 439.246 1138.4 439.246 1140.11C439.246 1141.83 438.896 1143.39 438.195 1144.79C437.504 1146.19 436.434 1147.31 434.985 1148.14C433.536 1148.96 431.68 1149.38 429.417 1149.38H422.371V1146.25H429.303C430.866 1146.25 432.121 1145.98 433.067 1145.44C434.014 1144.9 434.701 1144.17 435.127 1143.25C435.563 1142.32 435.781 1141.28 435.781 1140.11C435.781 1138.95 435.563 1137.91 435.127 1136.99C434.701 1136.07 434.01 1135.35 433.053 1134.83C432.097 1134.3 430.828 1134.03 429.246 1134.03H423.053V1160H419.531ZM454.637 1130.91V1160H451.114V1134.6H450.944L443.842 1139.32V1135.74L451.114 1130.91H454.637Z" fill="white"/>
<path d="M416.593 1637V1607.91H426.423C428.705 1607.91 430.57 1608.32 432.019 1609.14C433.478 1609.96 434.557 1611.06 435.258 1612.45C435.959 1613.85 436.309 1615.4 436.309 1617.11C436.309 1618.83 435.959 1620.39 435.258 1621.79C434.567 1623.19 433.496 1624.31 432.048 1625.14C430.599 1625.96 428.743 1626.38 426.479 1626.38H419.434V1623.25H426.366C427.928 1623.25 429.183 1622.98 430.13 1622.44C431.077 1621.9 431.763 1621.17 432.19 1620.25C432.625 1619.32 432.843 1618.28 432.843 1617.11C432.843 1615.95 432.625 1614.91 432.19 1613.99C431.763 1613.07 431.072 1612.35 430.116 1611.83C429.159 1611.3 427.89 1611.03 426.309 1611.03H420.116V1637H416.593ZM451.302 1637.4C449.427 1637.4 447.755 1637.08 446.288 1636.43C444.829 1635.79 443.669 1634.89 442.808 1633.75C441.955 1632.59 441.491 1631.25 441.415 1629.73H444.995C445.071 1630.66 445.393 1631.47 445.961 1632.16C446.529 1632.83 447.272 1633.35 448.191 1633.72C449.11 1634.09 450.128 1634.27 451.245 1634.27C452.495 1634.27 453.603 1634.05 454.569 1633.62C455.535 1633.18 456.292 1632.58 456.842 1631.8C457.391 1631.02 457.665 1630.12 457.665 1629.1C457.665 1628.03 457.4 1627.09 456.87 1626.28C456.34 1625.45 455.563 1624.81 454.54 1624.34C453.518 1623.88 452.268 1623.65 450.79 1623.65H448.461V1620.52H450.79C451.946 1620.52 452.959 1620.31 453.83 1619.9C454.711 1619.48 455.397 1618.89 455.89 1618.14C456.392 1617.38 456.643 1616.49 456.643 1615.47C456.643 1614.48 456.425 1613.62 455.989 1612.89C455.554 1612.17 454.938 1611.6 454.143 1611.19C453.357 1610.78 452.429 1610.58 451.359 1610.58C450.355 1610.58 449.408 1610.76 448.518 1611.13C447.637 1611.49 446.917 1612.02 446.359 1612.71C445.8 1613.39 445.497 1614.22 445.45 1615.18H442.04C442.097 1613.66 442.557 1612.32 443.418 1611.18C444.28 1610.02 445.407 1609.12 446.799 1608.48C448.201 1607.83 449.739 1607.51 451.415 1607.51C453.215 1607.51 454.758 1607.88 456.046 1608.61C457.334 1609.32 458.324 1610.28 459.015 1611.46C459.706 1612.64 460.052 1613.92 460.052 1615.3C460.052 1616.93 459.621 1618.33 458.759 1619.49C457.907 1620.64 456.747 1621.44 455.279 1621.89V1622.11C457.116 1622.42 458.551 1623.2 459.583 1624.46C460.615 1625.71 461.131 1627.26 461.131 1629.1C461.131 1630.68 460.701 1632.1 459.839 1633.36C458.987 1634.61 457.822 1635.6 456.344 1636.32C454.867 1637.04 453.186 1637.4 451.302 1637.4Z" fill="white"/>
<path d="M285.869 191.966V195.091H273.142V191.966H285.869Z" fill="white"/>
<path d="M285.869 668.966V672.091H273.142V668.966H285.869Z" fill="white"/>
<path d="M257.718 1160V1130.91H267.548C269.83 1130.91 271.695 1131.32 273.144 1132.14C274.603 1132.96 275.682 1134.06 276.383 1135.45C277.084 1136.85 277.434 1138.4 277.434 1140.11C277.434 1141.83 277.084 1143.39 276.383 1144.79C275.692 1146.19 274.621 1147.31 273.173 1148.14C271.724 1148.96 269.868 1149.38 267.604 1149.38H260.559V1146.25H267.491C269.053 1146.25 270.308 1145.98 271.255 1145.44C272.202 1144.9 272.888 1144.17 273.315 1143.25C273.75 1142.32 273.968 1141.28 273.968 1140.11C273.968 1138.95 273.75 1137.91 273.315 1136.99C272.888 1136.07 272.197 1135.35 271.241 1134.83C270.284 1134.3 269.015 1134.03 267.434 1134.03H261.241V1160H257.718ZM282.597 1160V1157.44L292.2 1146.93C293.326 1145.7 294.254 1144.63 294.984 1143.72C295.713 1142.8 296.253 1141.94 296.603 1141.14C296.963 1140.32 297.143 1139.47 297.143 1138.58C297.143 1137.56 296.897 1136.67 296.404 1135.92C295.921 1135.18 295.258 1134.6 294.415 1134.19C293.573 1133.78 292.626 1133.58 291.575 1133.58C290.457 1133.58 289.482 1133.81 288.648 1134.28C287.825 1134.73 287.185 1135.37 286.731 1136.19C286.286 1137.02 286.063 1137.98 286.063 1139.09H282.711C282.711 1137.39 283.104 1135.89 283.89 1134.6C284.676 1133.31 285.746 1132.31 287.1 1131.59C288.464 1130.87 289.993 1130.51 291.688 1130.51C293.393 1130.51 294.903 1130.87 296.219 1131.59C297.536 1132.31 298.568 1133.28 299.316 1134.5C300.064 1135.72 300.438 1137.08 300.438 1138.58C300.438 1139.65 300.244 1140.7 299.856 1141.72C299.477 1142.73 298.814 1143.86 297.867 1145.11C296.93 1146.35 295.628 1147.87 293.961 1149.66L287.427 1156.65V1156.88H300.95V1160H282.597Z" fill="white"/>
<path d="M260.531 1637V1607.91H270.36C272.642 1607.91 274.508 1608.32 275.957 1609.14C277.415 1609.96 278.495 1611.06 279.195 1612.45C279.896 1613.85 280.246 1615.4 280.246 1617.11C280.246 1618.83 279.896 1620.39 279.195 1621.79C278.504 1623.19 277.434 1624.31 275.985 1625.14C274.536 1625.96 272.68 1626.38 270.417 1626.38H263.371V1623.25H270.303C271.866 1623.25 273.121 1622.98 274.067 1622.44C275.014 1621.9 275.701 1621.17 276.127 1620.25C276.563 1619.32 276.781 1618.28 276.781 1617.11C276.781 1615.95 276.563 1614.91 276.127 1613.99C275.701 1613.07 275.01 1612.35 274.053 1611.83C273.097 1611.3 271.828 1611.03 270.246 1611.03H264.053V1637H260.531ZM295.637 1607.91V1637H292.114V1611.6H291.944L284.842 1616.32V1612.74L292.114 1607.91H295.637Z" fill="white"/>
<path d="M126.869 191.966V195.091H114.142V191.966H126.869Z" fill="white"/>
<path d="M126.869 668.966V672.091H114.142V668.966H126.869Z" fill="white"/>
<path d="M126.869 1145.97V1149.09H114.142V1145.97H126.869Z" fill="white"/>
<path d="M98.718 1637V1607.91H108.548C110.83 1607.91 112.695 1608.32 114.144 1609.14C115.603 1609.96 116.682 1611.06 117.383 1612.45C118.084 1613.85 118.434 1615.4 118.434 1617.11C118.434 1618.83 118.084 1620.39 117.383 1621.79C116.692 1623.19 115.621 1624.31 114.173 1625.14C112.724 1625.96 110.868 1626.38 108.604 1626.38H101.559V1623.25H108.491C110.053 1623.25 111.308 1622.98 112.255 1622.44C113.202 1621.9 113.888 1621.17 114.315 1620.25C114.75 1619.32 114.968 1618.28 114.968 1617.11C114.968 1615.95 114.75 1614.91 114.315 1613.99C113.888 1613.07 113.197 1612.35 112.241 1611.83C111.284 1611.3 110.015 1611.03 108.434 1611.03H102.241V1637H98.718ZM123.597 1637V1634.44L133.2 1623.93C134.326 1622.7 135.254 1621.63 135.984 1620.72C136.713 1619.8 137.253 1618.94 137.603 1618.14C137.963 1617.32 138.143 1616.47 138.143 1615.58C138.143 1614.56 137.897 1613.67 137.404 1612.92C136.921 1612.18 136.258 1611.6 135.415 1611.19C134.573 1610.78 133.626 1610.58 132.575 1610.58C131.457 1610.58 130.482 1610.81 129.648 1611.28C128.825 1611.73 128.185 1612.37 127.731 1613.19C127.286 1614.02 127.063 1614.98 127.063 1616.09H123.711C123.711 1614.39 124.104 1612.89 124.89 1611.6C125.676 1610.31 126.746 1609.31 128.1 1608.59C129.464 1607.87 130.993 1607.51 132.688 1607.51C134.393 1607.51 135.903 1607.87 137.219 1608.59C138.536 1609.31 139.568 1610.28 140.316 1611.5C141.064 1612.72 141.438 1614.08 141.438 1615.58C141.438 1616.65 141.244 1617.7 140.856 1618.72C140.477 1619.73 139.814 1620.86 138.867 1622.11C137.93 1623.35 136.628 1624.87 134.961 1626.66L128.427 1633.65V1633.88H141.95V1637H123.597Z" fill="white"/>
<path d="M147.238 39V9.90909H157.067C159.349 9.90909 161.215 10.321 162.664 11.1449C164.122 11.9593 165.202 13.0625 165.902 14.4545C166.603 15.8466 166.953 17.3996 166.953 19.1136C166.953 20.8277 166.603 22.3854 165.902 23.7869C165.211 25.1884 164.141 26.3059 162.692 27.1392C161.243 27.9631 159.387 28.375 157.124 28.375H150.078V25.25H157.01C158.573 25.25 159.828 24.9801 160.775 24.4403C161.721 23.9006 162.408 23.1714 162.834 22.2528C163.27 21.3248 163.488 20.2784 163.488 19.1136C163.488 17.9489 163.27 16.9072 162.834 15.9886C162.408 15.0701 161.717 14.3504 160.76 13.8295C159.804 13.2992 158.535 13.0341 156.953 13.0341H150.76V39H147.238ZM172.174 39V17.1818H175.412V20.4773H175.64C176.037 19.3977 176.757 18.5218 177.799 17.8494C178.84 17.1771 180.015 16.8409 181.321 16.8409C181.568 16.8409 181.875 16.8456 182.245 16.8551C182.614 16.8646 182.893 16.8788 183.083 16.8977V20.3068C182.969 20.2784 182.709 20.2358 182.301 20.179C181.904 20.1127 181.482 20.0795 181.037 20.0795C179.977 20.0795 179.03 20.3021 178.196 20.7472C177.373 21.1828 176.719 21.7888 176.236 22.5653C175.763 23.3324 175.526 24.2083 175.526 25.1932V39H172.174ZM187.056 39V17.1818H190.409V39H187.056ZM188.761 13.5455C188.108 13.5455 187.544 13.3229 187.071 12.8778C186.607 12.4328 186.375 11.8977 186.375 11.2727C186.375 10.6477 186.607 10.1127 187.071 9.66761C187.544 9.22254 188.108 9 188.761 9C189.414 9 189.973 9.22254 190.437 9.66761C190.911 10.1127 191.147 10.6477 191.147 11.2727C191.147 11.8977 190.911 12.4328 190.437 12.8778C189.973 13.3229 189.414 13.5455 188.761 13.5455ZM205.412 39.4545C203.443 39.4545 201.714 38.9858 200.228 38.0483C198.75 37.1108 197.595 35.7992 196.762 34.1136C195.938 32.428 195.526 30.4583 195.526 28.2045C195.526 25.9318 195.938 23.9479 196.762 22.2528C197.595 20.5578 198.75 19.2415 200.228 18.304C201.714 17.3665 203.443 16.8977 205.412 16.8977C207.382 16.8977 209.105 17.3665 210.583 18.304C212.069 19.2415 213.225 20.5578 214.049 22.2528C214.882 23.9479 215.299 25.9318 215.299 28.2045C215.299 30.4583 214.882 32.428 214.049 34.1136C213.225 35.7992 212.069 37.1108 210.583 38.0483C209.105 38.9858 207.382 39.4545 205.412 39.4545ZM205.412 36.4432C206.908 36.4432 208.14 36.0597 209.105 35.2926C210.071 34.5256 210.786 33.517 211.25 32.267C211.714 31.017 211.946 29.6629 211.946 28.2045C211.946 26.7462 211.714 25.3873 211.25 24.1278C210.786 22.8684 210.071 21.8504 209.105 21.0739C208.14 20.2973 206.908 19.9091 205.412 19.9091C203.916 19.9091 202.685 20.2973 201.719 21.0739C200.753 21.8504 200.038 22.8684 199.574 24.1278C199.11 25.3873 198.878 26.7462 198.878 28.2045C198.878 29.6629 199.11 31.017 199.574 32.267C200.038 33.517 200.753 34.5256 201.719 35.2926C202.685 36.0597 203.916 36.4432 205.412 36.4432ZM220.416 39V17.1818H223.654V20.4773H223.882C224.279 19.3977 224.999 18.5218 226.041 17.8494C227.083 17.1771 228.257 16.8409 229.564 16.8409C229.81 16.8409 230.118 16.8456 230.487 16.8551C230.856 16.8646 231.136 16.8788 231.325 16.8977V20.3068C231.211 20.2784 230.951 20.2358 230.544 20.179C230.146 20.1127 229.725 20.0795 229.279 20.0795C228.219 20.0795 227.272 20.3021 226.439 20.7472C225.615 21.1828 224.961 21.7888 224.478 22.5653C224.005 23.3324 223.768 24.2083 223.768 25.1932V39H220.416ZM235.299 39V17.1818H238.651V39H235.299ZM237.003 13.5455C236.35 13.5455 235.786 13.3229 235.313 12.8778C234.849 12.4328 234.617 11.8977 234.617 11.2727C234.617 10.6477 234.849 10.1127 235.313 9.66761C235.786 9.22254 236.35 9 237.003 9C237.657 9 238.215 9.22254 238.679 9.66761C239.153 10.1127 239.39 10.6477 239.39 11.2727C239.39 11.8977 239.153 12.4328 238.679 12.8778C238.215 13.3229 237.657 13.5455 237.003 13.5455ZM254.279 17.1818V20.0227H242.973V17.1818H254.279ZM246.268 11.9545H249.62V32.75C249.62 33.697 249.758 34.4072 250.032 34.8807C250.316 35.3447 250.676 35.6572 251.112 35.8182C251.557 35.9697 252.026 36.0455 252.518 36.0455C252.887 36.0455 253.19 36.0265 253.427 35.9886C253.664 35.9413 253.853 35.9034 253.995 35.875L254.677 38.8864C254.45 38.9716 254.133 39.0568 253.725 39.142C253.318 39.2367 252.802 39.2841 252.177 39.2841C251.23 39.2841 250.302 39.0805 249.393 38.6733C248.493 38.2661 247.745 37.6458 247.149 36.8125C246.562 35.9792 246.268 34.928 246.268 33.6591V11.9545ZM261.481 47.1818C260.913 47.1818 260.406 47.1345 259.961 47.0398C259.516 46.9545 259.208 46.8693 259.038 46.7841L259.89 43.8295C260.705 44.0379 261.424 44.1136 262.049 44.0568C262.674 44 263.228 43.7206 263.711 43.2188C264.204 42.7263 264.654 41.9261 265.061 40.8182L265.686 39.1136L257.618 17.1818H261.254L267.277 34.5682H267.504L273.527 17.1818H277.163L267.902 42.1818C267.485 43.3087 266.969 44.2415 266.353 44.9801C265.738 45.7282 265.023 46.2822 264.208 46.642C263.404 47.0019 262.494 47.1818 261.481 47.1818ZM303.86 29.9091H307.724L310.963 34.1705L311.815 35.3068L316.645 41.7273H312.781L309.599 37.4659L308.804 36.3864L303.86 29.9091ZM317.838 24.4545C317.838 27.5227 317.284 30.1742 316.176 32.4091C315.068 34.6439 313.548 36.3674 311.616 37.5795C309.684 38.7917 307.478 39.3977 304.997 39.3977C302.516 39.3977 300.309 38.7917 298.377 37.5795C296.446 36.3674 294.926 34.6439 293.818 32.4091C292.71 30.1742 292.156 27.5227 292.156 24.4545C292.156 21.3864 292.71 18.7348 293.818 16.5C294.926 14.2652 296.446 12.5417 298.377 11.3295C300.309 10.1174 302.516 9.51136 304.997 9.51136C307.478 9.51136 309.684 10.1174 311.616 11.3295C313.548 12.5417 315.068 14.2652 316.176 16.5C317.284 18.7348 317.838 21.3864 317.838 24.4545ZM314.429 24.4545C314.429 21.9356 314.007 19.8097 313.164 18.0767C312.331 16.3438 311.199 15.0322 309.77 14.142C308.349 13.2519 306.758 12.8068 304.997 12.8068C303.235 12.8068 301.64 13.2519 300.21 14.142C298.789 15.0322 297.658 16.3438 296.815 18.0767C295.982 19.8097 295.565 21.9356 295.565 24.4545C295.565 26.9735 295.982 29.0994 296.815 30.8324C297.658 32.5653 298.789 33.8769 300.21 34.767C301.64 35.6572 303.235 36.1023 304.997 36.1023C306.758 36.1023 308.349 35.6572 309.77 34.767C311.199 33.8769 312.331 32.5653 313.164 30.8324C314.007 29.0994 314.429 26.9735 314.429 24.4545ZM337.056 30.0795V17.1818H340.409V39H337.056V35.3068H336.829C336.318 36.4148 335.522 37.357 334.443 38.1335C333.363 38.9006 332 39.2841 330.352 39.2841C328.988 39.2841 327.776 38.9858 326.716 38.3892C325.655 37.7831 324.822 36.8741 324.216 35.6619C323.609 34.4403 323.306 32.9015 323.306 31.0455V17.1818H326.659V30.8182C326.659 32.4091 327.104 33.678 327.994 34.625C328.894 35.572 330.039 36.0455 331.431 36.0455C332.265 36.0455 333.112 35.8324 333.974 35.4062C334.845 34.9801 335.574 34.3267 336.162 33.446C336.758 32.5653 337.056 31.4432 337.056 30.0795ZM355.696 39.4545C353.594 39.4545 351.781 38.9905 350.256 38.0625C348.741 37.125 347.571 35.8182 346.748 34.142C345.933 32.4564 345.526 30.4962 345.526 28.2614C345.526 26.0265 345.933 24.0568 346.748 22.3523C347.571 20.6383 348.717 19.303 350.185 18.3466C351.662 17.3807 353.386 16.8977 355.355 16.8977C356.492 16.8977 357.614 17.0871 358.722 17.4659C359.83 17.8447 360.838 18.4602 361.748 19.3125C362.657 20.1553 363.381 21.2727 363.921 22.6648C364.461 24.0568 364.73 25.7708 364.73 27.8068V29.2273H347.912V26.3295H361.321C361.321 25.0985 361.075 24 360.583 23.0341C360.1 22.0682 359.408 21.3059 358.509 20.7472C357.619 20.1884 356.568 19.9091 355.355 19.9091C354.02 19.9091 352.865 20.2405 351.89 20.9034C350.924 21.5568 350.18 22.4091 349.659 23.4602C349.139 24.5114 348.878 25.6383 348.878 26.8409V28.7727C348.878 30.4205 349.162 31.8172 349.73 32.9631C350.308 34.0994 351.108 34.9659 352.131 35.5625C353.154 36.1496 354.342 36.4432 355.696 36.4432C356.577 36.4432 357.373 36.3201 358.083 36.0739C358.802 35.8182 359.423 35.4394 359.944 34.9375C360.464 34.4261 360.867 33.7917 361.151 33.0341L364.39 33.9432C364.049 35.0417 363.476 36.0076 362.671 36.8409C361.866 37.6648 360.872 38.3087 359.688 38.7727C358.504 39.2273 357.174 39.4545 355.696 39.4545ZM383.58 30.0795V17.1818H386.932V39H383.58V35.3068H383.353C382.841 36.4148 382.046 37.357 380.966 38.1335C379.887 38.9006 378.523 39.2841 376.875 39.2841C375.512 39.2841 374.3 38.9858 373.239 38.3892C372.178 37.7831 371.345 36.8741 370.739 35.6619C370.133 34.4403 369.83 32.9015 369.83 31.0455V17.1818H373.182V30.8182C373.182 32.4091 373.627 33.678 374.517 34.625C375.417 35.572 376.563 36.0455 377.955 36.0455C378.788 36.0455 379.636 35.8324 380.498 35.4062C381.369 34.9801 382.098 34.3267 382.685 33.446C383.282 32.5653 383.58 31.4432 383.58 30.0795ZM402.22 39.4545C400.118 39.4545 398.304 38.9905 396.779 38.0625C395.264 37.125 394.095 35.8182 393.271 34.142C392.457 32.4564 392.049 30.4962 392.049 28.2614C392.049 26.0265 392.457 24.0568 393.271 22.3523C394.095 20.6383 395.241 19.303 396.708 18.3466C398.186 17.3807 399.909 16.8977 401.879 16.8977C403.015 16.8977 404.137 17.0871 405.245 17.4659C406.353 17.8447 407.362 18.4602 408.271 19.3125C409.18 20.1553 409.904 21.2727 410.444 22.6648C410.984 24.0568 411.254 25.7708 411.254 27.8068V29.2273H394.436V26.3295H407.845C407.845 25.0985 407.599 24 407.106 23.0341C406.623 22.0682 405.932 21.3059 405.032 20.7472C404.142 20.1884 403.091 19.9091 401.879 19.9091C400.544 19.9091 399.388 20.2405 398.413 20.9034C397.447 21.5568 396.704 22.4091 396.183 23.4602C395.662 24.5114 395.402 25.6383 395.402 26.8409V28.7727C395.402 30.4205 395.686 31.8172 396.254 32.9631C396.832 34.0994 397.632 34.9659 398.654 35.5625C399.677 36.1496 400.866 36.4432 402.22 36.4432C403.1 36.4432 403.896 36.3201 404.606 36.0739C405.326 35.8182 405.946 35.4394 406.467 34.9375C406.988 34.4261 407.39 33.7917 407.674 33.0341L410.913 33.9432C410.572 35.0417 409.999 36.0076 409.194 36.8409C408.389 37.6648 407.395 38.3087 406.211 38.7727C405.028 39.2273 403.697 39.4545 402.22 39.4545Z" fill="white"/>
<path d="M147.238 466V436.909H157.067C159.349 436.909 161.215 437.321 162.664 438.145C164.122 438.959 165.202 440.062 165.902 441.455C166.603 442.847 166.953 444.4 166.953 446.114C166.953 447.828 166.603 449.385 165.902 450.787C165.211 452.188 164.141 453.306 162.692 454.139C161.243 454.963 159.387 455.375 157.124 455.375H150.078V452.25H157.01C158.573 452.25 159.828 451.98 160.775 451.44C161.721 450.901 162.408 450.171 162.834 449.253C163.27 448.325 163.488 447.278 163.488 446.114C163.488 444.949 163.27 443.907 162.834 442.989C162.408 442.07 161.717 441.35 160.76 440.83C159.804 440.299 158.535 440.034 156.953 440.034H150.76V466H147.238ZM172.174 466V444.182H175.412V447.477H175.64C176.037 446.398 176.757 445.522 177.799 444.849C178.84 444.177 180.015 443.841 181.321 443.841C181.568 443.841 181.875 443.846 182.245 443.855C182.614 443.865 182.893 443.879 183.083 443.898V447.307C182.969 447.278 182.709 447.236 182.301 447.179C181.904 447.113 181.482 447.08 181.037 447.08C179.977 447.08 179.03 447.302 178.196 447.747C177.373 448.183 176.719 448.789 176.236 449.565C175.763 450.332 175.526 451.208 175.526 452.193V466H172.174ZM187.056 466V444.182H190.409V466H187.056ZM188.761 440.545C188.108 440.545 187.544 440.323 187.071 439.878C186.607 439.433 186.375 438.898 186.375 438.273C186.375 437.648 186.607 437.113 187.071 436.668C187.544 436.223 188.108 436 188.761 436C189.414 436 189.973 436.223 190.437 436.668C190.911 437.113 191.147 437.648 191.147 438.273C191.147 438.898 190.911 439.433 190.437 439.878C189.973 440.323 189.414 440.545 188.761 440.545ZM205.412 466.455C203.443 466.455 201.714 465.986 200.228 465.048C198.75 464.111 197.595 462.799 196.762 461.114C195.938 459.428 195.526 457.458 195.526 455.205C195.526 452.932 195.938 450.948 196.762 449.253C197.595 447.558 198.75 446.241 200.228 445.304C201.714 444.366 203.443 443.898 205.412 443.898C207.382 443.898 209.105 444.366 210.583 445.304C212.069 446.241 213.225 447.558 214.049 449.253C214.882 450.948 215.299 452.932 215.299 455.205C215.299 457.458 214.882 459.428 214.049 461.114C213.225 462.799 212.069 464.111 210.583 465.048C209.105 465.986 207.382 466.455 205.412 466.455ZM205.412 463.443C206.908 463.443 208.14 463.06 209.105 462.293C210.071 461.526 210.786 460.517 211.25 459.267C211.714 458.017 211.946 456.663 211.946 455.205C211.946 453.746 211.714 452.387 211.25 451.128C210.786 449.868 210.071 448.85 209.105 448.074C208.14 447.297 206.908 446.909 205.412 446.909C203.916 446.909 202.685 447.297 201.719 448.074C200.753 448.85 200.038 449.868 199.574 451.128C199.11 452.387 198.878 453.746 198.878 455.205C198.878 456.663 199.11 458.017 199.574 459.267C200.038 460.517 200.753 461.526 201.719 462.293C202.685 463.06 203.916 463.443 205.412 463.443ZM220.416 466V444.182H223.654V447.477H223.882C224.279 446.398 224.999 445.522 226.041 444.849C227.083 444.177 228.257 443.841 229.564 443.841C229.81 443.841 230.118 443.846 230.487 443.855C230.856 443.865 231.136 443.879 231.325 443.898V447.307C231.211 447.278 230.951 447.236 230.544 447.179C230.146 447.113 229.725 447.08 229.279 447.08C228.219 447.08 227.272 447.302 226.439 447.747C225.615 448.183 224.961 448.789 224.478 449.565C224.005 450.332 223.768 451.208 223.768 452.193V466H220.416ZM235.299 466V444.182H238.651V466H235.299ZM237.003 440.545C236.35 440.545 235.786 440.323 235.313 439.878C234.849 439.433 234.617 438.898 234.617 438.273C234.617 437.648 234.849 437.113 235.313 436.668C235.786 436.223 236.35 436 237.003 436C237.657 436 238.215 436.223 238.679 436.668C239.153 437.113 239.39 437.648 239.39 438.273C239.39 438.898 239.153 439.433 238.679 439.878C238.215 440.323 237.657 440.545 237.003 440.545ZM254.279 444.182V447.023H242.973V444.182H254.279ZM246.268 438.955H249.62V459.75C249.62 460.697 249.758 461.407 250.032 461.881C250.316 462.345 250.676 462.657 251.112 462.818C251.557 462.97 252.026 463.045 252.518 463.045C252.887 463.045 253.19 463.027 253.427 462.989C253.664 462.941 253.853 462.903 253.995 462.875L254.677 465.886C254.45 465.972 254.133 466.057 253.725 466.142C253.318 466.237 252.802 466.284 252.177 466.284C251.23 466.284 250.302 466.08 249.393 465.673C248.493 465.266 247.745 464.646 247.149 463.812C246.562 462.979 246.268 461.928 246.268 460.659V438.955ZM261.481 474.182C260.913 474.182 260.406 474.134 259.961 474.04C259.516 473.955 259.208 473.869 259.038 473.784L259.89 470.83C260.705 471.038 261.424 471.114 262.049 471.057C262.674 471 263.228 470.721 263.711 470.219C264.204 469.726 264.654 468.926 265.061 467.818L265.686 466.114L257.618 444.182H261.254L267.277 461.568H267.504L273.527 444.182H277.163L267.902 469.182C267.485 470.309 266.969 471.241 266.353 471.98C265.738 472.728 265.023 473.282 264.208 473.642C263.404 474.002 262.494 474.182 261.481 474.182ZM303.86 456.909H307.724L310.963 461.17L311.815 462.307L316.645 468.727H312.781L309.599 464.466L308.804 463.386L303.86 456.909ZM317.838 451.455C317.838 454.523 317.284 457.174 316.176 459.409C315.068 461.644 313.548 463.367 311.616 464.58C309.684 465.792 307.478 466.398 304.997 466.398C302.516 466.398 300.309 465.792 298.377 464.58C296.446 463.367 294.926 461.644 293.818 459.409C292.71 457.174 292.156 454.523 292.156 451.455C292.156 448.386 292.71 445.735 293.818 443.5C294.926 441.265 296.446 439.542 298.377 438.33C300.309 437.117 302.516 436.511 304.997 436.511C307.478 436.511 309.684 437.117 311.616 438.33C313.548 439.542 315.068 441.265 316.176 443.5C317.284 445.735 317.838 448.386 317.838 451.455ZM314.429 451.455C314.429 448.936 314.007 446.81 313.164 445.077C312.331 443.344 311.199 442.032 309.77 441.142C308.349 440.252 306.758 439.807 304.997 439.807C303.235 439.807 301.64 440.252 300.21 441.142C298.789 442.032 297.658 443.344 296.815 445.077C295.982 446.81 295.565 448.936 295.565 451.455C295.565 453.973 295.982 456.099 296.815 457.832C297.658 459.565 298.789 460.877 300.21 461.767C301.64 462.657 303.235 463.102 304.997 463.102C306.758 463.102 308.349 462.657 309.77 461.767C311.199 460.877 312.331 459.565 313.164 457.832C314.007 456.099 314.429 453.973 314.429 451.455ZM337.056 457.08V444.182H340.409V466H337.056V462.307H336.829C336.318 463.415 335.522 464.357 334.443 465.134C333.363 465.901 332 466.284 330.352 466.284C328.988 466.284 327.776 465.986 326.716 465.389C325.655 464.783 324.822 463.874 324.216 462.662C323.609 461.44 323.306 459.902 323.306 458.045V444.182H326.659V457.818C326.659 459.409 327.104 460.678 327.994 461.625C328.894 462.572 330.039 463.045 331.431 463.045C332.265 463.045 333.112 462.832 333.974 462.406C334.845 461.98 335.574 461.327 336.162 460.446C336.758 459.565 337.056 458.443 337.056 457.08ZM355.696 466.455C353.594 466.455 351.781 465.991 350.256 465.062C348.741 464.125 347.571 462.818 346.748 461.142C345.933 459.456 345.526 457.496 345.526 455.261C345.526 453.027 345.933 451.057 346.748 449.352C347.571 447.638 348.717 446.303 350.185 445.347C351.662 444.381 353.386 443.898 355.355 443.898C356.492 443.898 357.614 444.087 358.722 444.466C359.83 444.845 360.838 445.46 361.748 446.312C362.657 447.155 363.381 448.273 363.921 449.665C364.461 451.057 364.73 452.771 364.73 454.807V456.227H347.912V453.33H361.321C361.321 452.098 361.075 451 360.583 450.034C360.1 449.068 359.408 448.306 358.509 447.747C357.619 447.188 356.568 446.909 355.355 446.909C354.02 446.909 352.865 447.241 351.89 447.903C350.924 448.557 350.18 449.409 349.659 450.46C349.139 451.511 348.878 452.638 348.878 453.841V455.773C348.878 457.42 349.162 458.817 349.73 459.963C350.308 461.099 351.108 461.966 352.131 462.562C353.154 463.15 354.342 463.443 355.696 463.443C356.577 463.443 357.373 463.32 358.083 463.074C358.802 462.818 359.423 462.439 359.944 461.938C360.464 461.426 360.867 460.792 361.151 460.034L364.39 460.943C364.049 462.042 363.476 463.008 362.671 463.841C361.866 464.665 360.872 465.309 359.688 465.773C358.504 466.227 357.174 466.455 355.696 466.455ZM383.58 457.08V444.182H386.932V466H383.58V462.307H383.353C382.841 463.415 382.046 464.357 380.966 465.134C379.887 465.901 378.523 466.284 376.875 466.284C375.512 466.284 374.3 465.986 373.239 465.389C372.178 464.783 371.345 463.874 370.739 462.662C370.133 461.44 369.83 459.902 369.83 458.045V444.182H373.182V457.818C373.182 459.409 373.627 460.678 374.517 461.625C375.417 462.572 376.563 463.045 377.955 463.045C378.788 463.045 379.636 462.832 380.498 462.406C381.369 461.98 382.098 461.327 382.685 460.446C383.282 459.565 383.58 458.443 383.58 457.08ZM402.22 466.455C400.118 466.455 398.304 465.991 396.779 465.062C395.264 464.125 394.095 462.818 393.271 461.142C392.457 459.456 392.049 457.496 392.049 455.261C392.049 453.027 392.457 451.057 393.271 449.352C394.095 447.638 395.241 446.303 396.708 445.347C398.186 444.381 399.909 443.898 401.879 443.898C403.015 443.898 404.137 444.087 405.245 444.466C406.353 444.845 407.362 445.46 408.271 446.312C409.18 447.155 409.904 448.273 410.444 449.665C410.984 451.057 411.254 452.771 411.254 454.807V456.227H394.436V453.33H407.845C407.845 452.098 407.599 451 407.106 450.034C406.623 449.068 405.932 448.306 405.032 447.747C404.142 447.188 403.091 446.909 401.879 446.909C400.544 446.909 399.388 447.241 398.413 447.903C397.447 448.557 396.704 449.409 396.183 450.46C395.662 451.511 395.402 452.638 395.402 453.841V455.773C395.402 457.42 395.686 458.817 396.254 459.963C396.832 461.099 397.632 461.966 398.654 462.562C399.677 463.15 400.866 463.443 402.22 463.443C403.1 463.443 403.896 463.32 404.606 463.074C405.326 462.818 405.946 462.439 406.467 461.938C406.988 461.426 407.39 460.792 407.674 460.034L410.913 460.943C410.572 462.042 409.999 463.008 409.194 463.841C408.389 464.665 407.395 465.309 406.211 465.773C405.028 466.227 403.697 466.455 402.22 466.455Z" fill="white"/>
<path d="M147.238 943V913.909H157.067C159.349 913.909 161.215 914.321 162.664 915.145C164.122 915.959 165.202 917.062 165.902 918.455C166.603 919.847 166.953 921.4 166.953 923.114C166.953 924.828 166.603 926.385 165.902 927.787C165.211 929.188 164.141 930.306 162.692 931.139C161.243 931.963 159.387 932.375 157.124 932.375H150.078V929.25H157.01C158.573 929.25 159.828 928.98 160.775 928.44C161.721 927.901 162.408 927.171 162.834 926.253C163.27 925.325 163.488 924.278 163.488 923.114C163.488 921.949 163.27 920.907 162.834 919.989C162.408 919.07 161.717 918.35 160.76 917.83C159.804 917.299 158.535 917.034 156.953 917.034H150.76V943H147.238ZM172.174 943V921.182H175.412V924.477H175.64C176.037 923.398 176.757 922.522 177.799 921.849C178.84 921.177 180.015 920.841 181.321 920.841C181.568 920.841 181.875 920.846 182.245 920.855C182.614 920.865 182.893 920.879 183.083 920.898V924.307C182.969 924.278 182.709 924.236 182.301 924.179C181.904 924.113 181.482 924.08 181.037 924.08C179.977 924.08 179.03 924.302 178.196 924.747C177.373 925.183 176.719 925.789 176.236 926.565C175.763 927.332 175.526 928.208 175.526 929.193V943H172.174ZM187.056 943V921.182H190.409V943H187.056ZM188.761 917.545C188.108 917.545 187.544 917.323 187.071 916.878C186.607 916.433 186.375 915.898 186.375 915.273C186.375 914.648 186.607 914.113 187.071 913.668C187.544 913.223 188.108 913 188.761 913C189.414 913 189.973 913.223 190.437 913.668C190.911 914.113 191.147 914.648 191.147 915.273C191.147 915.898 190.911 916.433 190.437 916.878C189.973 917.323 189.414 917.545 188.761 917.545ZM205.412 943.455C203.443 943.455 201.714 942.986 200.228 942.048C198.75 941.111 197.595 939.799 196.762 938.114C195.938 936.428 195.526 934.458 195.526 932.205C195.526 929.932 195.938 927.948 196.762 926.253C197.595 924.558 198.75 923.241 200.228 922.304C201.714 921.366 203.443 920.898 205.412 920.898C207.382 920.898 209.105 921.366 210.583 922.304C212.069 923.241 213.225 924.558 214.049 926.253C214.882 927.948 215.299 929.932 215.299 932.205C215.299 934.458 214.882 936.428 214.049 938.114C213.225 939.799 212.069 941.111 210.583 942.048C209.105 942.986 207.382 943.455 205.412 943.455ZM205.412 940.443C206.908 940.443 208.14 940.06 209.105 939.293C210.071 938.526 210.786 937.517 211.25 936.267C211.714 935.017 211.946 933.663 211.946 932.205C211.946 930.746 211.714 929.387 211.25 928.128C210.786 926.868 210.071 925.85 209.105 925.074C208.14 924.297 206.908 923.909 205.412 923.909C203.916 923.909 202.685 924.297 201.719 925.074C200.753 925.85 200.038 926.868 199.574 928.128C199.11 929.387 198.878 930.746 198.878 932.205C198.878 933.663 199.11 935.017 199.574 936.267C200.038 937.517 200.753 938.526 201.719 939.293C202.685 940.06 203.916 940.443 205.412 940.443ZM220.416 943V921.182H223.654V924.477H223.882C224.279 923.398 224.999 922.522 226.041 921.849C227.083 921.177 228.257 920.841 229.564 920.841C229.81 920.841 230.118 920.846 230.487 920.855C230.856 920.865 231.136 920.879 231.325 920.898V924.307C231.211 924.278 230.951 924.236 230.544 924.179C230.146 924.113 229.725 924.08 229.279 924.08C228.219 924.08 227.272 924.302 226.439 924.747C225.615 925.183 224.961 925.789 224.478 926.565C224.005 927.332 223.768 928.208 223.768 929.193V943H220.416ZM235.299 943V921.182H238.651V943H235.299ZM237.003 917.545C236.35 917.545 235.786 917.323 235.313 916.878C234.849 916.433 234.617 915.898 234.617 915.273C234.617 914.648 234.849 914.113 235.313 913.668C235.786 913.223 236.35 913 237.003 913C237.657 913 238.215 913.223 238.679 913.668C239.153 914.113 239.39 914.648 239.39 915.273C239.39 915.898 239.153 916.433 238.679 916.878C238.215 917.323 237.657 917.545 237.003 917.545ZM254.279 921.182V924.023H242.973V921.182H254.279ZM246.268 915.955H249.62V936.75C249.62 937.697 249.758 938.407 250.032 938.881C250.316 939.345 250.676 939.657 251.112 939.818C251.557 939.97 252.026 940.045 252.518 940.045C252.887 940.045 253.19 940.027 253.427 939.989C253.664 939.941 253.853 939.903 253.995 939.875L254.677 942.886C254.45 942.972 254.133 943.057 253.725 943.142C253.318 943.237 252.802 943.284 252.177 943.284C251.23 943.284 250.302 943.08 249.393 942.673C248.493 942.266 247.745 941.646 247.149 940.812C246.562 939.979 246.268 938.928 246.268 937.659V915.955ZM261.481 951.182C260.913 951.182 260.406 951.134 259.961 951.04C259.516 950.955 259.208 950.869 259.038 950.784L259.89 947.83C260.705 948.038 261.424 948.114 262.049 948.057C262.674 948 263.228 947.721 263.711 947.219C264.204 946.726 264.654 945.926 265.061 944.818L265.686 943.114L257.618 921.182H261.254L267.277 938.568H267.504L273.527 921.182H277.163L267.902 946.182C267.485 947.309 266.969 948.241 266.353 948.98C265.738 949.728 265.023 950.282 264.208 950.642C263.404 951.002 262.494 951.182 261.481 951.182ZM303.86 933.909H307.724L310.963 938.17L311.815 939.307L316.645 945.727H312.781L309.599 941.466L308.804 940.386L303.86 933.909ZM317.838 928.455C317.838 931.523 317.284 934.174 316.176 936.409C315.068 938.644 313.548 940.367 311.616 941.58C309.684 942.792 307.478 943.398 304.997 943.398C302.516 943.398 300.309 942.792 298.377 941.58C296.446 940.367 294.926 938.644 293.818 936.409C292.71 934.174 292.156 931.523 292.156 928.455C292.156 925.386 292.71 922.735 293.818 920.5C294.926 918.265 296.446 916.542 298.377 915.33C300.309 914.117 302.516 913.511 304.997 913.511C307.478 913.511 309.684 914.117 311.616 915.33C313.548 916.542 315.068 918.265 316.176 920.5C317.284 922.735 317.838 925.386 317.838 928.455ZM314.429 928.455C314.429 925.936 314.007 923.81 313.164 922.077C312.331 920.344 311.199 919.032 309.77 918.142C308.349 917.252 306.758 916.807 304.997 916.807C303.235 916.807 301.64 917.252 300.21 918.142C298.789 919.032 297.658 920.344 296.815 922.077C295.982 923.81 295.565 925.936 295.565 928.455C295.565 930.973 295.982 933.099 296.815 934.832C297.658 936.565 298.789 937.877 300.21 938.767C301.64 939.657 303.235 940.102 304.997 940.102C306.758 940.102 308.349 939.657 309.77 938.767C311.199 937.877 312.331 936.565 313.164 934.832C314.007 933.099 314.429 930.973 314.429 928.455ZM337.056 934.08V921.182H340.409V943H337.056V939.307H336.829C336.318 940.415 335.522 941.357 334.443 942.134C333.363 942.901 332 943.284 330.352 943.284C328.988 943.284 327.776 942.986 326.716 942.389C325.655 941.783 324.822 940.874 324.216 939.662C323.609 938.44 323.306 936.902 323.306 935.045V921.182H326.659V934.818C326.659 936.409 327.104 937.678 327.994 938.625C328.894 939.572 330.039 940.045 331.431 940.045C332.265 940.045 333.112 939.832 333.974 939.406C334.845 938.98 335.574 938.327 336.162 937.446C336.758 936.565 337.056 935.443 337.056 934.08ZM355.696 943.455C353.594 943.455 351.781 942.991 350.256 942.062C348.741 941.125 347.571 939.818 346.748 938.142C345.933 936.456 345.526 934.496 345.526 932.261C345.526 930.027 345.933 928.057 346.748 926.352C347.571 924.638 348.717 923.303 350.185 922.347C351.662 921.381 353.386 920.898 355.355 920.898C356.492 920.898 357.614 921.087 358.722 921.466C359.83 921.845 360.838 922.46 361.748 923.312C362.657 924.155 363.381 925.273 363.921 926.665C364.461 928.057 364.73 929.771 364.73 931.807V933.227H347.912V930.33H361.321C361.321 929.098 361.075 928 360.583 927.034C360.1 926.068 359.408 925.306 358.509 924.747C357.619 924.188 356.568 923.909 355.355 923.909C354.02 923.909 352.865 924.241 351.89 924.903C350.924 925.557 350.18 926.409 349.659 927.46C349.139 928.511 348.878 929.638 348.878 930.841V932.773C348.878 934.42 349.162 935.817 349.73 936.963C350.308 938.099 351.108 938.966 352.131 939.562C353.154 940.15 354.342 940.443 355.696 940.443C356.577 940.443 357.373 940.32 358.083 940.074C358.802 939.818 359.423 939.439 359.944 938.938C360.464 938.426 360.867 937.792 361.151 937.034L364.39 937.943C364.049 939.042 363.476 940.008 362.671 940.841C361.866 941.665 360.872 942.309 359.688 942.773C358.504 943.227 357.174 943.455 355.696 943.455ZM383.58 934.08V921.182H386.932V943H383.58V939.307H383.353C382.841 940.415 382.046 941.357 380.966 942.134C379.887 942.901 378.523 943.284 376.875 943.284C375.512 943.284 374.3 942.986 373.239 942.389C372.178 941.783 371.345 940.874 370.739 939.662C370.133 938.44 369.83 936.902 369.83 935.045V921.182H373.182V934.818C373.182 936.409 373.627 937.678 374.517 938.625C375.417 939.572 376.563 940.045 377.955 940.045C378.788 940.045 379.636 939.832 380.498 939.406C381.369 938.98 382.098 938.327 382.685 937.446C383.282 936.565 383.58 935.443 383.58 934.08ZM402.22 943.455C400.118 943.455 398.304 942.991 396.779 942.062C395.264 941.125 394.095 939.818 393.271 938.142C392.457 936.456 392.049 934.496 392.049 932.261C392.049 930.027 392.457 928.057 393.271 926.352C394.095 924.638 395.241 923.303 396.708 922.347C398.186 921.381 399.909 920.898 401.879 920.898C403.015 920.898 404.137 921.087 405.245 921.466C406.353 921.845 407.362 922.46 408.271 923.312C409.18 924.155 409.904 925.273 410.444 926.665C410.984 928.057 411.254 929.771 411.254 931.807V933.227H394.436V930.33H407.845C407.845 929.098 407.599 928 407.106 927.034C406.623 926.068 405.932 925.306 405.032 924.747C404.142 924.188 403.091 923.909 401.879 923.909C400.544 923.909 399.388 924.241 398.413 924.903C397.447 925.557 396.704 926.409 396.183 927.46C395.662 928.511 395.402 929.638 395.402 930.841V932.773C395.402 934.42 395.686 935.817 396.254 936.963C396.832 938.099 397.632 938.966 398.654 939.562C399.677 940.15 400.866 940.443 402.22 940.443C403.1 940.443 403.896 940.32 404.606 940.074C405.326 939.818 405.946 939.439 406.467 938.938C406.988 938.426 407.39 937.792 407.674 937.034L410.913 937.943C410.572 939.042 409.999 940.008 409.194 940.841C408.389 941.665 407.395 942.309 406.211 942.773C405.028 943.227 403.697 943.455 402.22 943.455Z" fill="white"/>
<path d="M147.238 1420V1390.91H157.067C159.349 1390.91 161.215 1391.32 162.664 1392.14C164.122 1392.96 165.202 1394.06 165.902 1395.45C166.603 1396.85 166.953 1398.4 166.953 1400.11C166.953 1401.83 166.603 1403.39 165.902 1404.79C165.211 1406.19 164.141 1407.31 162.692 1408.14C161.243 1408.96 159.387 1409.38 157.124 1409.38H150.078V1406.25H157.01C158.573 1406.25 159.828 1405.98 160.775 1405.44C161.721 1404.9 162.408 1404.17 162.834 1403.25C163.27 1402.32 163.488 1401.28 163.488 1400.11C163.488 1398.95 163.27 1397.91 162.834 1396.99C162.408 1396.07 161.717 1395.35 160.76 1394.83C159.804 1394.3 158.535 1394.03 156.953 1394.03H150.76V1420H147.238ZM172.174 1420V1398.18H175.412V1401.48H175.64C176.037 1400.4 176.757 1399.52 177.799 1398.85C178.84 1398.18 180.015 1397.84 181.321 1397.84C181.568 1397.84 181.875 1397.85 182.245 1397.86C182.614 1397.86 182.893 1397.88 183.083 1397.9V1401.31C182.969 1401.28 182.709 1401.24 182.301 1401.18C181.904 1401.11 181.482 1401.08 181.037 1401.08C179.977 1401.08 179.03 1401.3 178.196 1401.75C177.373 1402.18 176.719 1402.79 176.236 1403.57C175.763 1404.33 175.526 1405.21 175.526 1406.19V1420H172.174ZM187.056 1420V1398.18H190.409V1420H187.056ZM188.761 1394.55C188.108 1394.55 187.544 1394.32 187.071 1393.88C186.607 1393.43 186.375 1392.9 186.375 1392.27C186.375 1391.65 186.607 1391.11 187.071 1390.67C187.544 1390.22 188.108 1390 188.761 1390C189.414 1390 189.973 1390.22 190.437 1390.67C190.911 1391.11 191.147 1391.65 191.147 1392.27C191.147 1392.9 190.911 1393.43 190.437 1393.88C189.973 1394.32 189.414 1394.55 188.761 1394.55ZM205.412 1420.45C203.443 1420.45 201.714 1419.99 200.228 1419.05C198.75 1418.11 197.595 1416.8 196.762 1415.11C195.938 1413.43 195.526 1411.46 195.526 1409.2C195.526 1406.93 195.938 1404.95 196.762 1403.25C197.595 1401.56 198.75 1400.24 200.228 1399.3C201.714 1398.37 203.443 1397.9 205.412 1397.9C207.382 1397.9 209.105 1398.37 210.583 1399.3C212.069 1400.24 213.225 1401.56 214.049 1403.25C214.882 1404.95 215.299 1406.93 215.299 1409.2C215.299 1411.46 214.882 1413.43 214.049 1415.11C213.225 1416.8 212.069 1418.11 210.583 1419.05C209.105 1419.99 207.382 1420.45 205.412 1420.45ZM205.412 1417.44C206.908 1417.44 208.14 1417.06 209.105 1416.29C210.071 1415.53 210.786 1414.52 211.25 1413.27C211.714 1412.02 211.946 1410.66 211.946 1409.2C211.946 1407.75 211.714 1406.39 211.25 1405.13C210.786 1403.87 210.071 1402.85 209.105 1402.07C208.14 1401.3 206.908 1400.91 205.412 1400.91C203.916 1400.91 202.685 1401.3 201.719 1402.07C200.753 1402.85 200.038 1403.87 199.574 1405.13C199.11 1406.39 198.878 1407.75 198.878 1409.2C198.878 1410.66 199.11 1412.02 199.574 1413.27C200.038 1414.52 200.753 1415.53 201.719 1416.29C202.685 1417.06 203.916 1417.44 205.412 1417.44ZM220.416 1420V1398.18H223.654V1401.48H223.882C224.279 1400.4 224.999 1399.52 226.041 1398.85C227.083 1398.18 228.257 1397.84 229.564 1397.84C229.81 1397.84 230.118 1397.85 230.487 1397.86C230.856 1397.86 231.136 1397.88 231.325 1397.9V1401.31C231.211 1401.28 230.951 1401.24 230.544 1401.18C230.146 1401.11 229.725 1401.08 229.279 1401.08C228.219 1401.08 227.272 1401.3 226.439 1401.75C225.615 1402.18 224.961 1402.79 224.478 1403.57C224.005 1404.33 223.768 1405.21 223.768 1406.19V1420H220.416ZM235.299 1420V1398.18H238.651V1420H235.299ZM237.003 1394.55C236.35 1394.55 235.786 1394.32 235.313 1393.88C234.849 1393.43 234.617 1392.9 234.617 1392.27C234.617 1391.65 234.849 1391.11 235.313 1390.67C235.786 1390.22 236.35 1390 237.003 1390C237.657 1390 238.215 1390.22 238.679 1390.67C239.153 1391.11 239.39 1391.65 239.39 1392.27C239.39 1392.9 239.153 1393.43 238.679 1393.88C238.215 1394.32 237.657 1394.55 237.003 1394.55ZM254.279 1398.18V1401.02H242.973V1398.18H254.279ZM246.268 1392.95H249.62V1413.75C249.62 1414.7 249.758 1415.41 250.032 1415.88C250.316 1416.34 250.676 1416.66 251.112 1416.82C251.557 1416.97 252.026 1417.05 252.518 1417.05C252.887 1417.05 253.19 1417.03 253.427 1416.99C253.664 1416.94 253.853 1416.9 253.995 1416.88L254.677 1419.89C254.45 1419.97 254.133 1420.06 253.725 1420.14C253.318 1420.24 252.802 1420.28 252.177 1420.28C251.23 1420.28 250.302 1420.08 249.393 1419.67C248.493 1419.27 247.745 1418.65 247.149 1417.81C246.562 1416.98 246.268 1415.93 246.268 1414.66V1392.95ZM261.481 1428.18C260.913 1428.18 260.406 1428.13 259.961 1428.04C259.516 1427.95 259.208 1427.87 259.038 1427.78L259.89 1424.83C260.705 1425.04 261.424 1425.11 262.049 1425.06C262.674 1425 263.228 1424.72 263.711 1424.22C264.204 1423.73 264.654 1422.93 265.061 1421.82L265.686 1420.11L257.618 1398.18H261.254L267.277 1415.57H267.504L273.527 1398.18H277.163L267.902 1423.18C267.485 1424.31 266.969 1425.24 266.353 1425.98C265.738 1426.73 265.023 1427.28 264.208 1427.64C263.404 1428 262.494 1428.18 261.481 1428.18ZM303.86 1410.91H307.724L310.963 1415.17L311.815 1416.31L316.645 1422.73H312.781L309.599 1418.47L308.804 1417.39L303.86 1410.91ZM317.838 1405.45C317.838 1408.52 317.284 1411.17 316.176 1413.41C315.068 1415.64 313.548 1417.37 311.616 1418.58C309.684 1419.79 307.478 1420.4 304.997 1420.4C302.516 1420.4 300.309 1419.79 298.377 1418.58C296.446 1417.37 294.926 1415.64 293.818 1413.41C292.71 1411.17 292.156 1408.52 292.156 1405.45C292.156 1402.39 292.71 1399.73 293.818 1397.5C294.926 1395.27 296.446 1393.54 298.377 1392.33C300.309 1391.12 302.516 1390.51 304.997 1390.51C307.478 1390.51 309.684 1391.12 311.616 1392.33C313.548 1393.54 315.068 1395.27 316.176 1397.5C317.284 1399.73 317.838 1402.39 317.838 1405.45ZM314.429 1405.45C314.429 1402.94 314.007 1400.81 313.164 1399.08C312.331 1397.34 311.199 1396.03 309.77 1395.14C308.349 1394.25 306.758 1393.81 304.997 1393.81C303.235 1393.81 301.64 1394.25 300.21 1395.14C298.789 1396.03 297.658 1397.34 296.815 1399.08C295.982 1400.81 295.565 1402.94 295.565 1405.45C295.565 1407.97 295.982 1410.1 296.815 1411.83C297.658 1413.57 298.789 1414.88 300.21 1415.77C301.64 1416.66 303.235 1417.1 304.997 1417.1C306.758 1417.1 308.349 1416.66 309.77 1415.77C311.199 1414.88 312.331 1413.57 313.164 1411.83C314.007 1410.1 314.429 1407.97 314.429 1405.45ZM337.056 1411.08V1398.18H340.409V1420H337.056V1416.31H336.829C336.318 1417.41 335.522 1418.36 334.443 1419.13C333.363 1419.9 332 1420.28 330.352 1420.28C328.988 1420.28 327.776 1419.99 326.716 1419.39C325.655 1418.78 324.822 1417.87 324.216 1416.66C323.609 1415.44 323.306 1413.9 323.306 1412.05V1398.18H326.659V1411.82C326.659 1413.41 327.104 1414.68 327.994 1415.62C328.894 1416.57 330.039 1417.05 331.431 1417.05C332.265 1417.05 333.112 1416.83 333.974 1416.41C334.845 1415.98 335.574 1415.33 336.162 1414.45C336.758 1413.57 337.056 1412.44 337.056 1411.08ZM355.696 1420.45C353.594 1420.45 351.781 1419.99 350.256 1419.06C348.741 1418.12 347.571 1416.82 346.748 1415.14C345.933 1413.46 345.526 1411.5 345.526 1409.26C345.526 1407.03 345.933 1405.06 346.748 1403.35C347.571 1401.64 348.717 1400.3 350.185 1399.35C351.662 1398.38 353.386 1397.9 355.355 1397.9C356.492 1397.9 357.614 1398.09 358.722 1398.47C359.83 1398.84 360.838 1399.46 361.748 1400.31C362.657 1401.16 363.381 1402.27 363.921 1403.66C364.461 1405.06 364.73 1406.77 364.73 1408.81V1410.23H347.912V1407.33H361.321C361.321 1406.1 361.075 1405 360.583 1404.03C360.1 1403.07 359.408 1402.31 358.509 1401.75C357.619 1401.19 356.568 1400.91 355.355 1400.91C354.02 1400.91 352.865 1401.24 351.89 1401.9C350.924 1402.56 350.18 1403.41 349.659 1404.46C349.139 1405.51 348.878 1406.64 348.878 1407.84V1409.77C348.878 1411.42 349.162 1412.82 349.73 1413.96C350.308 1415.1 351.108 1415.97 352.131 1416.56C353.154 1417.15 354.342 1417.44 355.696 1417.44C356.577 1417.44 357.373 1417.32 358.083 1417.07C358.802 1416.82 359.423 1416.44 359.944 1415.94C360.464 1415.43 360.867 1414.79 361.151 1414.03L364.39 1414.94C364.049 1416.04 363.476 1417.01 362.671 1417.84C361.866 1418.66 360.872 1419.31 359.688 1419.77C358.504 1420.23 357.174 1420.45 355.696 1420.45ZM383.58 1411.08V1398.18H386.932V1420H383.58V1416.31H383.353C382.841 1417.41 382.046 1418.36 380.966 1419.13C379.887 1419.9 378.523 1420.28 376.875 1420.28C375.512 1420.28 374.3 1419.99 373.239 1419.39C372.178 1418.78 371.345 1417.87 370.739 1416.66C370.133 1415.44 369.83 1413.9 369.83 1412.05V1398.18H373.182V1411.82C373.182 1413.41 373.627 1414.68 374.517 1415.62C375.417 1416.57 376.563 1417.05 377.955 1417.05C378.788 1417.05 379.636 1416.83 380.498 1416.41C381.369 1415.98 382.098 1415.33 382.685 1414.45C383.282 1413.57 383.58 1412.44 383.58 1411.08ZM402.22 1420.45C400.118 1420.45 398.304 1419.99 396.779 1419.06C395.264 1418.12 394.095 1416.82 393.271 1415.14C392.457 1413.46 392.049 1411.5 392.049 1409.26C392.049 1407.03 392.457 1405.06 393.271 1403.35C394.095 1401.64 395.241 1400.3 396.708 1399.35C398.186 1398.38 399.909 1397.9 401.879 1397.9C403.015 1397.9 404.137 1398.09 405.245 1398.47C406.353 1398.84 407.362 1399.46 408.271 1400.31C409.18 1401.16 409.904 1402.27 410.444 1403.66C410.984 1405.06 411.254 1406.77 411.254 1408.81V1410.23H394.436V1407.33H407.845C407.845 1406.1 407.599 1405 407.106 1404.03C406.623 1403.07 405.932 1402.31 405.032 1401.75C404.142 1401.19 403.091 1400.91 401.879 1400.91C400.544 1400.91 399.388 1401.24 398.413 1401.9C397.447 1402.56 396.704 1403.41 396.183 1404.46C395.662 1405.51 395.402 1406.64 395.402 1407.84V1409.77C395.402 1411.42 395.686 1412.82 396.254 1413.96C396.832 1415.1 397.632 1415.97 398.654 1416.56C399.677 1417.15 400.866 1417.44 402.22 1417.44C403.1 1417.44 403.896 1417.32 404.606 1417.07C405.326 1416.82 405.946 1416.44 406.467 1415.94C406.988 1415.43 407.39 1414.79 407.674 1414.03L410.913 1414.94C410.572 1416.04 409.999 1417.01 409.194 1417.84C408.389 1418.66 407.395 1419.31 406.211 1419.77C405.028 1420.23 403.697 1420.45 402.22 1420.45Z" fill="white"/>
<path d="M473.375 317.25L489.625 333.5L473.375 349.75" stroke="#DBDBDB" stroke-width="4" stroke-linecap="round" stroke-linejoin="round"/>
<path d="M473.375 794.25L489.625 810.5L473.375 826.75" stroke="#DBDBDB" stroke-width="4" stroke-linecap="round" stroke-linejoin="round"/>
<path d="M473.375 1271.25L489.625 1287.5L473.375 1303.75" stroke="#DBDBDB" stroke-width="4" stroke-linecap="round" stroke-linejoin="round"/>
<path d="M473.375 1748.25L489.625 1764.5L473.375 1780.75" stroke="#DBDBDB" stroke-width="4" stroke-linecap="round" stroke-linejoin="round"/>
<line x1="76" y1="333.5" x2="487" y2="333.5" stroke="#DBDBDB" stroke-width="5"/>
<line x1="76" y1="810.5" x2="487" y2="810.5" stroke="#DBDBDB" stroke-width="5"/>
<line x1="76" y1="1287.5" x2="487" y2="1287.5" stroke="#DBDBDB" stroke-width="5"/>
<line x1="76" y1="1764.5" x2="487" y2="1764.5" stroke="#DBDBDB" stroke-width="5"/>
<path d="M438.33 542.398C436.379 542.398 434.655 542.052 433.159 541.361C431.672 540.66 430.512 539.699 429.679 538.477C428.846 537.246 428.434 535.845 428.443 534.273C428.434 533.042 428.675 531.905 429.168 530.864C429.66 529.812 430.332 528.937 431.185 528.236C432.046 527.526 433.008 527.076 434.068 526.886V526.716C432.676 526.356 431.568 525.575 430.744 524.372C429.92 523.16 429.513 521.782 429.523 520.239C429.513 518.761 429.887 517.44 430.645 516.276C431.402 515.111 432.444 514.192 433.77 513.52C435.105 512.848 436.625 512.511 438.33 512.511C440.015 512.511 441.521 512.848 442.847 513.52C444.172 514.192 445.214 515.111 445.972 516.276C446.739 517.44 447.127 518.761 447.136 520.239C447.127 521.782 446.705 523.16 445.872 524.372C445.048 525.575 443.955 526.356 442.591 526.716V526.886C443.642 527.076 444.589 527.526 445.432 528.236C446.275 528.937 446.947 529.812 447.449 530.864C447.951 531.905 448.206 533.042 448.216 534.273C448.206 535.845 447.78 537.246 446.938 538.477C446.104 539.699 444.944 540.66 443.457 541.361C441.98 542.052 440.271 542.398 438.33 542.398ZM438.33 539.273C439.646 539.273 440.782 539.06 441.739 538.634C442.695 538.207 443.434 537.606 443.955 536.83C444.475 536.053 444.741 535.144 444.75 534.102C444.741 533.004 444.456 532.033 443.898 531.19C443.339 530.348 442.577 529.685 441.611 529.202C440.654 528.719 439.561 528.477 438.33 528.477C437.089 528.477 435.981 528.719 435.006 529.202C434.04 529.685 433.277 530.348 432.719 531.19C432.17 532.033 431.9 533.004 431.909 534.102C431.9 535.144 432.151 536.053 432.662 536.83C433.183 537.606 433.926 538.207 434.892 538.634C435.858 539.06 437.004 539.273 438.33 539.273ZM438.33 525.466C439.371 525.466 440.295 525.258 441.099 524.841C441.914 524.424 442.553 523.842 443.017 523.094C443.481 522.346 443.718 521.47 443.727 520.466C443.718 519.481 443.486 518.624 443.031 517.895C442.577 517.156 441.947 516.588 441.142 516.19C440.337 515.783 439.4 515.58 438.33 515.58C437.241 515.58 436.289 515.783 435.474 516.19C434.66 516.588 434.03 517.156 433.585 517.895C433.14 518.624 432.922 519.481 432.932 520.466C432.922 521.47 433.145 522.346 433.599 523.094C434.063 523.842 434.703 524.424 435.517 524.841C436.331 525.258 437.269 525.466 438.33 525.466Z" fill="#717171"/>
<path d="M437.33 1019.4C435.379 1019.4 433.655 1019.05 432.159 1018.36C430.672 1017.66 429.512 1016.7 428.679 1015.48C427.846 1014.25 427.434 1012.84 427.443 1011.27C427.434 1010.04 427.675 1008.91 428.168 1007.86C428.66 1006.81 429.332 1005.94 430.185 1005.24C431.046 1004.53 432.008 1004.08 433.068 1003.89V1003.72C431.676 1003.36 430.568 1002.57 429.744 1001.37C428.92 1000.16 428.513 998.782 428.523 997.239C428.513 995.761 428.887 994.44 429.645 993.276C430.402 992.111 431.444 991.192 432.77 990.52C434.105 989.848 435.625 989.511 437.33 989.511C439.015 989.511 440.521 989.848 441.847 990.52C443.172 991.192 444.214 992.111 444.972 993.276C445.739 994.44 446.127 995.761 446.136 997.239C446.127 998.782 445.705 1000.16 444.872 1001.37C444.048 1002.57 442.955 1003.36 441.591 1003.72V1003.89C442.642 1004.08 443.589 1004.53 444.432 1005.24C445.275 1005.94 445.947 1006.81 446.449 1007.86C446.951 1008.91 447.206 1010.04 447.216 1011.27C447.206 1012.84 446.78 1014.25 445.938 1015.48C445.104 1016.7 443.944 1017.66 442.457 1018.36C440.98 1019.05 439.271 1019.4 437.33 1019.4ZM437.33 1016.27C438.646 1016.27 439.782 1016.06 440.739 1015.63C441.695 1015.21 442.434 1014.61 442.955 1013.83C443.475 1013.05 443.741 1012.14 443.75 1011.1C443.741 1010 443.456 1009.03 442.898 1008.19C442.339 1007.35 441.577 1006.68 440.611 1006.2C439.654 1005.72 438.561 1005.48 437.33 1005.48C436.089 1005.48 434.981 1005.72 434.006 1006.2C433.04 1006.68 432.277 1007.35 431.719 1008.19C431.17 1009.03 430.9 1010 430.909 1011.1C430.9 1012.14 431.151 1013.05 431.662 1013.83C432.183 1014.61 432.926 1015.21 433.892 1015.63C434.858 1016.06 436.004 1016.27 437.33 1016.27ZM437.33 1002.47C438.371 1002.47 439.295 1002.26 440.099 1001.84C440.914 1001.42 441.553 1000.84 442.017 1000.09C442.481 999.346 442.718 998.47 442.727 997.466C442.718 996.481 442.486 995.624 442.031 994.895C441.577 994.156 440.947 993.588 440.142 993.19C439.337 992.783 438.4 992.58 437.33 992.58C436.241 992.58 435.289 992.783 434.474 993.19C433.66 993.588 433.03 994.156 432.585 994.895C432.14 995.624 431.922 996.481 431.932 997.466C431.922 998.47 432.145 999.346 432.599 1000.09C433.063 1000.84 433.703 1001.42 434.517 1001.84C435.331 1002.26 436.269 1002.47 437.33 1002.47Z" fill="#717171"/>
<path d="M279.273 989.511C280.466 989.521 281.659 989.748 282.852 990.193C284.045 990.638 285.134 991.377 286.119 992.409C287.104 993.432 287.895 994.829 288.491 996.599C289.088 998.37 289.386 1000.59 289.386 1003.26C289.386 1005.85 289.14 1008.14 288.648 1010.15C288.165 1012.15 287.464 1013.83 286.545 1015.21C285.636 1016.58 284.528 1017.62 283.222 1018.33C281.924 1019.04 280.456 1019.4 278.818 1019.4C277.189 1019.4 275.736 1019.08 274.457 1018.43C273.188 1017.78 272.147 1016.87 271.332 1015.72C270.527 1014.55 270.011 1013.2 269.784 1011.67H273.25C273.562 1013.01 274.183 1014.11 275.111 1014.98C276.048 1015.84 277.284 1016.27 278.818 1016.27C281.063 1016.27 282.833 1015.29 284.131 1013.33C285.438 1011.37 286.091 1008.6 286.091 1005.02H285.864C285.333 1005.82 284.704 1006.5 283.974 1007.08C283.245 1007.66 282.436 1008.11 281.545 1008.42C280.655 1008.73 279.708 1008.89 278.705 1008.89C277.038 1008.89 275.509 1008.47 274.116 1007.65C272.734 1006.82 271.626 1005.68 270.793 1004.23C269.969 1002.77 269.557 1001.1 269.557 999.227C269.557 997.447 269.955 995.818 270.75 994.341C271.555 992.854 272.682 991.67 274.131 990.79C275.589 989.909 277.303 989.483 279.273 989.511ZM279.273 992.636C278.08 992.636 277.005 992.935 276.048 993.531C275.101 994.118 274.348 994.914 273.79 995.918C273.241 996.912 272.966 998.015 272.966 999.227C272.966 1000.44 273.231 1001.54 273.761 1002.54C274.301 1003.52 275.035 1004.31 275.963 1004.89C276.901 1005.47 277.966 1005.76 279.159 1005.76C280.059 1005.76 280.897 1005.59 281.673 1005.24C282.45 1004.88 283.127 1004.39 283.705 1003.77C284.292 1003.15 284.751 1002.44 285.082 1001.66C285.414 1000.86 285.58 1000.03 285.58 999.17C285.58 998.034 285.305 996.969 284.756 995.974C284.216 994.98 283.468 994.175 282.511 993.56C281.564 992.944 280.485 992.636 279.273 992.636Z" fill="#717171"/>
<path d="M438.841 1496.4C436.966 1496.4 435.295 1496.08 433.827 1495.43C432.368 1494.79 431.208 1493.89 430.347 1492.75C429.494 1491.59 429.03 1490.25 428.955 1488.73H432.534C432.61 1489.66 432.932 1490.47 433.5 1491.16C434.068 1491.83 434.812 1492.35 435.73 1492.72C436.649 1493.09 437.667 1493.27 438.784 1493.27C440.034 1493.27 441.142 1493.05 442.108 1492.62C443.074 1492.18 443.831 1491.58 444.381 1490.8C444.93 1490.02 445.205 1489.12 445.205 1488.1C445.205 1487.03 444.939 1486.09 444.409 1485.28C443.879 1484.45 443.102 1483.81 442.08 1483.34C441.057 1482.88 439.807 1482.65 438.33 1482.65H436V1479.52H438.33C439.485 1479.52 440.498 1479.31 441.369 1478.9C442.25 1478.48 442.937 1477.89 443.429 1477.14C443.931 1476.38 444.182 1475.49 444.182 1474.47C444.182 1473.48 443.964 1472.62 443.528 1471.89C443.093 1471.17 442.477 1470.6 441.682 1470.19C440.896 1469.78 439.968 1469.58 438.898 1469.58C437.894 1469.58 436.947 1469.76 436.057 1470.13C435.176 1470.49 434.456 1471.02 433.898 1471.71C433.339 1472.39 433.036 1473.22 432.989 1474.18H429.58C429.636 1472.66 430.096 1471.32 430.957 1470.18C431.819 1469.02 432.946 1468.12 434.338 1467.48C435.74 1466.83 437.278 1466.51 438.955 1466.51C440.754 1466.51 442.297 1466.88 443.585 1467.61C444.873 1468.32 445.863 1469.28 446.554 1470.46C447.245 1471.64 447.591 1472.92 447.591 1474.3C447.591 1475.93 447.16 1477.33 446.298 1478.49C445.446 1479.64 444.286 1480.44 442.818 1480.89V1481.11C444.655 1481.42 446.09 1482.2 447.122 1483.46C448.154 1484.71 448.67 1486.26 448.67 1488.1C448.67 1489.68 448.24 1491.1 447.378 1492.36C446.526 1493.61 445.361 1494.6 443.884 1495.32C442.406 1496.04 440.725 1496.4 438.841 1496.4Z" fill="#717171"/>
<path d="M280.33 1500.4C278.379 1500.4 276.655 1500.05 275.159 1499.36C273.672 1498.66 272.512 1497.7 271.679 1496.48C270.846 1495.25 270.434 1493.84 270.443 1492.27C270.434 1491.04 270.675 1489.91 271.168 1488.86C271.66 1487.81 272.332 1486.94 273.185 1486.24C274.046 1485.53 275.008 1485.08 276.068 1484.89V1484.72C274.676 1484.36 273.568 1483.57 272.744 1482.37C271.92 1481.16 271.513 1479.78 271.523 1478.24C271.513 1476.76 271.887 1475.44 272.645 1474.28C273.402 1473.11 274.444 1472.19 275.77 1471.52C277.105 1470.85 278.625 1470.51 280.33 1470.51C282.015 1470.51 283.521 1470.85 284.847 1471.52C286.172 1472.19 287.214 1473.11 287.972 1474.28C288.739 1475.44 289.127 1476.76 289.136 1478.24C289.127 1479.78 288.705 1481.16 287.872 1482.37C287.048 1483.57 285.955 1484.36 284.591 1484.72V1484.89C285.642 1485.08 286.589 1485.53 287.432 1486.24C288.275 1486.94 288.947 1487.81 289.449 1488.86C289.951 1489.91 290.206 1491.04 290.216 1492.27C290.206 1493.84 289.78 1495.25 288.938 1496.48C288.104 1497.7 286.944 1498.66 285.457 1499.36C283.98 1500.05 282.271 1500.4 280.33 1500.4ZM280.33 1497.27C281.646 1497.27 282.782 1497.06 283.739 1496.63C284.695 1496.21 285.434 1495.61 285.955 1494.83C286.475 1494.05 286.741 1493.14 286.75 1492.1C286.741 1491 286.456 1490.03 285.898 1489.19C285.339 1488.35 284.577 1487.68 283.611 1487.2C282.654 1486.72 281.561 1486.48 280.33 1486.48C279.089 1486.48 277.981 1486.72 277.006 1487.2C276.04 1487.68 275.277 1488.35 274.719 1489.19C274.17 1490.03 273.9 1491 273.909 1492.1C273.9 1493.14 274.151 1494.05 274.662 1494.83C275.183 1495.61 275.926 1496.21 276.892 1496.63C277.858 1497.06 279.004 1497.27 280.33 1497.27ZM280.33 1483.47C281.371 1483.47 282.295 1483.26 283.099 1482.84C283.914 1482.42 284.553 1481.84 285.017 1481.09C285.481 1480.35 285.718 1479.47 285.727 1478.47C285.718 1477.48 285.486 1476.62 285.031 1475.89C284.577 1475.16 283.947 1474.59 283.142 1474.19C282.337 1473.78 281.4 1473.58 280.33 1473.58C279.241 1473.58 278.289 1473.78 277.474 1474.19C276.66 1474.59 276.03 1475.16 275.585 1475.89C275.14 1476.62 274.922 1477.48 274.932 1478.47C274.922 1479.47 275.145 1480.35 275.599 1481.09C276.063 1481.84 276.703 1482.42 277.517 1482.84C278.331 1483.26 279.269 1483.47 280.33 1483.47Z" fill="#717171"/>
<path d="M120.273 1470.51C121.466 1470.52 122.659 1470.75 123.852 1471.19C125.045 1471.64 126.134 1472.38 127.119 1473.41C128.104 1474.43 128.895 1475.83 129.491 1477.6C130.088 1479.37 130.386 1481.59 130.386 1484.26C130.386 1486.85 130.14 1489.14 129.648 1491.15C129.165 1493.15 128.464 1494.83 127.545 1496.21C126.636 1497.58 125.528 1498.62 124.222 1499.33C122.924 1500.04 121.456 1500.4 119.818 1500.4C118.189 1500.4 116.736 1500.08 115.457 1499.43C114.188 1498.78 113.147 1497.87 112.332 1496.72C111.527 1495.55 111.011 1494.2 110.784 1492.67H114.25C114.562 1494.01 115.183 1495.11 116.111 1495.98C117.048 1496.84 118.284 1497.27 119.818 1497.27C122.063 1497.27 123.833 1496.29 125.131 1494.33C126.438 1492.37 127.091 1489.6 127.091 1486.02H126.864C126.333 1486.82 125.704 1487.5 124.974 1488.08C124.245 1488.66 123.436 1489.11 122.545 1489.42C121.655 1489.73 120.708 1489.89 119.705 1489.89C118.038 1489.89 116.509 1489.47 115.116 1488.65C113.734 1487.82 112.626 1486.68 111.793 1485.23C110.969 1483.77 110.557 1482.1 110.557 1480.23C110.557 1478.45 110.955 1476.82 111.75 1475.34C112.555 1473.85 113.682 1472.67 115.131 1471.79C116.589 1470.91 118.303 1470.48 120.273 1470.51ZM120.273 1473.64C119.08 1473.64 118.005 1473.93 117.048 1474.53C116.101 1475.12 115.348 1475.91 114.79 1476.92C114.241 1477.91 113.966 1479.02 113.966 1480.23C113.966 1481.44 114.231 1482.54 114.761 1483.54C115.301 1484.52 116.035 1485.31 116.963 1485.89C117.901 1486.47 118.966 1486.76 120.159 1486.76C121.059 1486.76 121.897 1486.59 122.673 1486.24C123.45 1485.88 124.127 1485.39 124.705 1484.77C125.292 1484.15 125.751 1483.44 126.082 1482.66C126.414 1481.86 126.58 1481.03 126.58 1480.17C126.58 1479.03 126.305 1477.97 125.756 1476.97C125.216 1475.98 124.468 1475.18 123.511 1474.56C122.564 1473.94 121.485 1473.64 120.273 1473.64Z" fill="#717171"/>
</svg>
