<svg width="648" height="697" viewBox="0 0 648 697" fill="none" xmlns="http://www.w3.org/2000/svg">
<rect width="119" height="122" transform="matrix(-1 0 0 1 376 575)" fill="#009966"/>
<path d="M497 125H589C603.912 125 616 137.088 616 152V220C616 234.912 603.912 247 589 247H497V125Z" fill="#009966"/>
<rect x="16" y="576" width="599" height="120" rx="26" stroke="#DBDBDB" stroke-width="2"/>
<rect x="16" y="126" width="599" height="120" rx="26" stroke="#DBDBDB" stroke-width="2"/>
<line x1="136" y1="575" x2="136" y2="697" stroke="#DBDBDB" stroke-width="2"/>
<line x1="136" y1="125" x2="136" y2="247" stroke="#DBDBDB" stroke-width="2"/>
<line x1="256" y1="575" x2="256" y2="697" stroke="#DBDBDB" stroke-width="2"/>
<line x1="256" y1="125" x2="256" y2="247" stroke="#DBDBDB" stroke-width="2"/>
<line x1="377" y1="575" x2="377" y2="697" stroke="#DBDBDB" stroke-width="2"/>
<line x1="377" y1="125" x2="377" y2="247" stroke="#DBDBDB" stroke-width="2"/>
<line x1="497" y1="575" x2="497" y2="697" stroke="#DBDBDB" stroke-width="2"/>
<line x1="497" y1="125" x2="497" y2="247" stroke="#DBDBDB" stroke-width="2"/>
<path d="M66.3324 620.909V650H62.8097V624.602H62.6392L55.5369 629.318V625.739L62.8097 620.909H66.3324ZM74.6989 650V647.443L84.3011 636.932C85.428 635.701 86.3561 634.631 87.0852 633.722C87.8144 632.803 88.3542 631.941 88.7045 631.136C89.0644 630.322 89.2443 629.47 89.2443 628.58C89.2443 627.557 88.9981 626.671 88.5057 625.923C88.0227 625.175 87.3598 624.598 86.517 624.19C85.6742 623.783 84.7273 623.58 83.6761 623.58C82.5587 623.58 81.5833 623.812 80.75 624.276C79.9261 624.73 79.2869 625.369 78.8324 626.193C78.3873 627.017 78.1648 627.983 78.1648 629.091H74.8125C74.8125 627.386 75.2055 625.89 75.9915 624.602C76.7775 623.314 77.8475 622.311 79.2017 621.591C80.5653 620.871 82.0947 620.511 83.7898 620.511C85.4943 620.511 87.0047 620.871 88.321 621.591C89.6373 622.311 90.6695 623.281 91.4176 624.503C92.1657 625.724 92.5398 627.083 92.5398 628.58C92.5398 629.65 92.3456 630.696 91.9574 631.719C91.5786 632.732 90.9157 633.864 89.9688 635.114C89.0312 636.354 87.7292 637.869 86.0625 639.659L79.5284 646.648V646.875H93.0511V650H74.6989Z" fill="white"/>
<path d="M66.3324 170.909V200H62.8097V174.602H62.6392L55.5369 179.318V175.739L62.8097 170.909H66.3324ZM74.6989 200V197.443L84.3011 186.932C85.428 185.701 86.3561 184.631 87.0852 183.722C87.8144 182.803 88.3542 181.941 88.7045 181.136C89.0644 180.322 89.2443 179.47 89.2443 178.58C89.2443 177.557 88.9981 176.671 88.5057 175.923C88.0227 175.175 87.3598 174.598 86.517 174.19C85.6742 173.783 84.7273 173.58 83.6761 173.58C82.5587 173.58 81.5833 173.812 80.75 174.276C79.9261 174.73 79.2869 175.369 78.8324 176.193C78.3873 177.017 78.1648 177.983 78.1648 179.091H74.8125C74.8125 177.386 75.2055 175.89 75.9915 174.602C76.7775 173.314 77.8475 172.311 79.2017 171.591C80.5653 170.871 82.0947 170.511 83.7898 170.511C85.4943 170.511 87.0047 170.871 88.321 171.591C89.6373 172.311 90.6695 173.281 91.4176 174.503C92.1657 175.724 92.5398 177.083 92.5398 178.58C92.5398 179.65 92.3456 180.696 91.9574 181.719C91.5786 182.732 90.9157 183.864 89.9688 185.114C89.0312 186.354 87.7292 187.869 86.0625 189.659L79.5284 196.648V196.875H93.0511V200H74.6989Z" fill="white"/>
<path d="M185.961 620.909V650H182.439V624.602H182.268L175.166 629.318V625.739L182.439 620.909H185.961ZM203.589 620.511C204.782 620.521 205.975 620.748 207.169 621.193C208.362 621.638 209.451 622.377 210.436 623.409C211.421 624.432 212.211 625.829 212.808 627.599C213.404 629.37 213.703 631.591 213.703 634.261C213.703 636.847 213.457 639.143 212.964 641.151C212.481 643.149 211.78 644.834 210.862 646.207C209.953 647.58 208.845 648.622 207.538 649.332C206.241 650.043 204.773 650.398 203.135 650.398C201.506 650.398 200.052 650.076 198.774 649.432C197.505 648.778 196.463 647.874 195.649 646.719C194.844 645.554 194.328 644.205 194.1 642.67H197.566C197.879 644.006 198.499 645.109 199.427 645.98C200.365 646.842 201.6 647.273 203.135 647.273C205.379 647.273 207.15 646.293 208.447 644.332C209.754 642.372 210.407 639.602 210.407 636.023H210.18C209.65 636.818 209.02 637.505 208.291 638.082C207.562 638.66 206.752 639.105 205.862 639.418C204.972 639.73 204.025 639.886 203.021 639.886C201.354 639.886 199.825 639.474 198.433 638.651C197.05 637.817 195.942 636.676 195.109 635.227C194.285 633.769 193.873 632.102 193.873 630.227C193.873 628.447 194.271 626.818 195.066 625.341C195.871 623.854 196.998 622.67 198.447 621.79C199.905 620.909 201.619 620.483 203.589 620.511ZM203.589 623.636C202.396 623.636 201.321 623.935 200.365 624.531C199.418 625.118 198.665 625.914 198.106 626.918C197.557 627.912 197.282 629.015 197.282 630.227C197.282 631.439 197.547 632.543 198.078 633.537C198.618 634.522 199.351 635.308 200.279 635.895C201.217 636.473 202.282 636.761 203.475 636.761C204.375 636.761 205.213 636.586 205.99 636.236C206.766 635.876 207.443 635.388 208.021 634.773C208.608 634.148 209.067 633.442 209.399 632.656C209.73 631.861 209.896 631.032 209.896 630.17C209.896 629.034 209.621 627.969 209.072 626.974C208.532 625.98 207.784 625.175 206.828 624.56C205.881 623.944 204.801 623.636 203.589 623.636Z" fill="white"/>
<path d="M185.961 170.909V200H182.439V174.602H182.268L175.166 179.318V175.739L182.439 170.909H185.961ZM203.589 170.511C204.782 170.521 205.975 170.748 207.169 171.193C208.362 171.638 209.451 172.377 210.436 173.409C211.421 174.432 212.211 175.829 212.808 177.599C213.404 179.37 213.703 181.591 213.703 184.261C213.703 186.847 213.457 189.143 212.964 191.151C212.481 193.149 211.78 194.834 210.862 196.207C209.953 197.58 208.845 198.622 207.538 199.332C206.241 200.043 204.773 200.398 203.135 200.398C201.506 200.398 200.052 200.076 198.774 199.432C197.505 198.778 196.463 197.874 195.649 196.719C194.844 195.554 194.328 194.205 194.1 192.67H197.566C197.879 194.006 198.499 195.109 199.427 195.98C200.365 196.842 201.6 197.273 203.135 197.273C205.379 197.273 207.15 196.293 208.447 194.332C209.754 192.372 210.407 189.602 210.407 186.023H210.18C209.65 186.818 209.02 187.505 208.291 188.082C207.562 188.66 206.752 189.105 205.862 189.418C204.972 189.73 204.025 189.886 203.021 189.886C201.354 189.886 199.825 189.474 198.433 188.651C197.05 187.817 195.942 186.676 195.109 185.227C194.285 183.769 193.873 182.102 193.873 180.227C193.873 178.447 194.271 176.818 195.066 175.341C195.871 173.854 196.998 172.67 198.447 171.79C199.905 170.909 201.619 170.483 203.589 170.511ZM203.589 173.636C202.396 173.636 201.321 173.935 200.365 174.531C199.418 175.118 198.665 175.914 198.106 176.918C197.557 177.912 197.282 179.015 197.282 180.227C197.282 181.439 197.547 182.543 198.078 183.537C198.618 184.522 199.351 185.308 200.279 185.895C201.217 186.473 202.282 186.761 203.475 186.761C204.375 186.761 205.213 186.586 205.99 186.236C206.766 185.876 207.443 185.388 208.021 184.773C208.608 184.148 209.067 183.442 209.399 182.656C209.73 181.861 209.896 181.032 209.896 180.17C209.896 179.034 209.621 177.969 209.072 176.974C208.532 175.98 207.784 175.175 206.828 174.56C205.881 173.944 204.801 173.636 203.589 173.636Z" fill="white"/>
<path d="M293.976 650V647.443L303.578 636.932C304.705 635.701 305.633 634.631 306.363 633.722C307.092 632.803 307.632 631.941 307.982 631.136C308.342 630.322 308.522 629.47 308.522 628.58C308.522 627.557 308.275 626.671 307.783 625.923C307.3 625.175 306.637 624.598 305.794 624.19C304.952 623.783 304.005 623.58 302.953 623.58C301.836 623.58 300.861 623.812 300.027 624.276C299.203 624.73 298.564 625.369 298.11 626.193C297.665 627.017 297.442 627.983 297.442 629.091H294.09C294.09 627.386 294.483 625.89 295.269 624.602C296.055 623.314 297.125 622.311 298.479 621.591C299.843 620.871 301.372 620.511 303.067 620.511C304.772 620.511 306.282 620.871 307.598 621.591C308.915 622.311 309.947 623.281 310.695 624.503C311.443 625.724 311.817 627.083 311.817 628.58C311.817 629.65 311.623 630.696 311.235 631.719C310.856 632.732 310.193 633.864 309.246 635.114C308.309 636.354 307.007 637.869 305.34 639.659L298.806 646.648V646.875H312.328V650H293.976ZM319.104 650L332.115 624.261V624.034H317.115V620.909H335.752V624.205L322.797 650H319.104Z" fill="white"/>
<path d="M292.572 194.034V191.136L305.356 170.909H307.458V175.398H306.038L296.379 190.682V190.909H313.594V194.034H292.572ZM306.265 200V193.153V191.804V170.909H309.617V200H306.265ZM319.827 200L332.838 174.261V174.034H317.838V170.909H336.474V174.205L323.52 200H319.827Z" fill="white"/>
<path d="M164.592 365.545C164.456 364.394 163.903 363.5 162.933 362.864C161.964 362.227 160.774 361.909 159.365 361.909C158.335 361.909 157.433 362.076 156.661 362.409C155.895 362.742 155.297 363.201 154.865 363.784C154.441 364.367 154.229 365.03 154.229 365.773C154.229 366.394 154.376 366.928 154.672 367.375C154.975 367.814 155.361 368.182 155.831 368.477C156.301 368.765 156.793 369.004 157.308 369.193C157.823 369.375 158.297 369.523 158.729 369.636L161.092 370.273C161.698 370.432 162.373 370.652 163.115 370.932C163.865 371.212 164.581 371.595 165.263 372.08C165.952 372.557 166.52 373.17 166.967 373.92C167.414 374.67 167.638 375.591 167.638 376.682C167.638 377.939 167.308 379.076 166.649 380.091C165.998 381.106 165.043 381.913 163.786 382.511C162.536 383.11 161.017 383.409 159.229 383.409C157.562 383.409 156.119 383.14 154.899 382.602C153.687 382.064 152.732 381.314 152.036 380.352C151.346 379.39 150.956 378.273 150.865 377H153.774C153.85 377.879 154.145 378.606 154.661 379.182C155.183 379.75 155.842 380.174 156.638 380.455C157.441 380.727 158.304 380.864 159.229 380.864C160.304 380.864 161.27 380.689 162.126 380.341C162.982 379.985 163.661 379.492 164.161 378.864C164.661 378.227 164.911 377.485 164.911 376.636C164.911 375.864 164.695 375.235 164.263 374.75C163.831 374.265 163.263 373.871 162.558 373.568C161.854 373.265 161.092 373 160.274 372.773L157.411 371.955C155.592 371.432 154.153 370.686 153.092 369.716C152.032 368.746 151.501 367.477 151.501 365.909C151.501 364.606 151.854 363.47 152.558 362.5C153.27 361.523 154.225 360.765 155.422 360.227C156.626 359.682 157.971 359.409 159.456 359.409C160.956 359.409 162.289 359.678 163.456 360.216C164.623 360.746 165.547 361.473 166.229 362.398C166.918 363.322 167.282 364.371 167.32 365.545H164.592ZM171.908 383V365.545H174.499V368.273H174.726C175.089 367.341 175.677 366.617 176.487 366.102C177.298 365.58 178.271 365.318 179.408 365.318C180.559 365.318 181.518 365.58 182.283 366.102C183.055 366.617 183.658 367.341 184.089 368.273H184.271C184.718 367.371 185.389 366.655 186.283 366.125C187.177 365.587 188.249 365.318 189.499 365.318C191.059 365.318 192.336 365.807 193.328 366.784C194.321 367.754 194.817 369.265 194.817 371.318V383H192.135V371.318C192.135 370.03 191.783 369.11 191.078 368.557C190.374 368.004 189.544 367.727 188.589 367.727C187.362 367.727 186.411 368.098 185.737 368.841C185.063 369.576 184.726 370.508 184.726 371.636V383H181.999V371.045C181.999 370.053 181.677 369.254 181.033 368.648C180.389 368.034 179.559 367.727 178.544 367.727C177.847 367.727 177.196 367.913 176.589 368.284C175.991 368.655 175.506 369.17 175.135 369.83C174.771 370.481 174.589 371.235 174.589 372.091V383H171.908ZM204.857 383.409C203.75 383.409 202.747 383.201 201.845 382.784C200.944 382.36 200.228 381.75 199.697 380.955C199.167 380.152 198.902 379.182 198.902 378.045C198.902 377.045 199.099 376.235 199.493 375.614C199.887 374.985 200.413 374.492 201.072 374.136C201.732 373.78 202.459 373.515 203.254 373.341C204.057 373.159 204.864 373.015 205.675 372.909C206.735 372.773 207.595 372.67 208.254 372.602C208.921 372.527 209.406 372.402 209.709 372.227C210.019 372.053 210.175 371.75 210.175 371.318V371.227C210.175 370.106 209.868 369.235 209.254 368.614C208.648 367.992 207.728 367.682 206.493 367.682C205.213 367.682 204.209 367.962 203.482 368.523C202.754 369.083 202.243 369.682 201.947 370.318L199.402 369.409C199.857 368.348 200.463 367.523 201.22 366.932C201.985 366.333 202.819 365.917 203.72 365.682C204.629 365.439 205.523 365.318 206.402 365.318C206.963 365.318 207.607 365.386 208.334 365.523C209.069 365.652 209.777 365.92 210.459 366.33C211.148 366.739 211.72 367.356 212.175 368.182C212.629 369.008 212.857 370.114 212.857 371.5V383H210.175V380.636H210.038C209.857 381.015 209.554 381.42 209.129 381.852C208.705 382.284 208.141 382.652 207.436 382.955C206.732 383.258 205.872 383.409 204.857 383.409ZM205.266 381C206.326 381 207.22 380.792 207.947 380.375C208.682 379.958 209.235 379.42 209.607 378.761C209.985 378.102 210.175 377.409 210.175 376.682V374.227C210.061 374.364 209.811 374.489 209.425 374.602C209.046 374.708 208.607 374.803 208.107 374.886C207.614 374.962 207.133 375.03 206.663 375.091C206.201 375.144 205.826 375.189 205.538 375.227C204.841 375.318 204.19 375.466 203.584 375.67C202.985 375.867 202.5 376.167 202.129 376.568C201.766 376.962 201.584 377.5 201.584 378.182C201.584 379.114 201.929 379.818 202.618 380.295C203.315 380.765 204.197 381 205.266 381ZM220.433 359.727V383H217.751V359.727H220.433ZM228.027 359.727V383H225.345V359.727H228.027ZM240.257 383.364C238.575 383.364 237.125 382.992 235.905 382.25C234.693 381.5 233.757 380.455 233.098 379.114C232.446 377.765 232.121 376.197 232.121 374.409C232.121 372.621 232.446 371.045 233.098 369.682C233.757 368.311 234.674 367.242 235.848 366.477C237.03 365.705 238.409 365.318 239.984 365.318C240.893 365.318 241.791 365.47 242.678 365.773C243.564 366.076 244.371 366.568 245.098 367.25C245.825 367.924 246.405 368.818 246.837 369.932C247.268 371.045 247.484 372.417 247.484 374.045V375.182H234.03V372.864H244.757C244.757 371.879 244.56 371 244.166 370.227C243.78 369.455 243.227 368.845 242.507 368.398C241.795 367.951 240.954 367.727 239.984 367.727C238.916 367.727 237.992 367.992 237.212 368.523C236.439 369.045 235.844 369.727 235.428 370.568C235.011 371.409 234.803 372.311 234.803 373.273V374.818C234.803 376.136 235.03 377.254 235.484 378.17C235.946 379.08 236.587 379.773 237.405 380.25C238.223 380.72 239.174 380.955 240.257 380.955C240.962 380.955 241.598 380.856 242.166 380.659C242.742 380.455 243.238 380.152 243.655 379.75C244.071 379.341 244.393 378.833 244.621 378.227L247.212 378.955C246.939 379.833 246.481 380.606 245.837 381.273C245.193 381.932 244.397 382.447 243.45 382.818C242.503 383.182 241.439 383.364 240.257 383.364ZM263.928 369.455L261.518 370.136C261.367 369.735 261.143 369.345 260.848 368.966C260.56 368.58 260.166 368.261 259.666 368.011C259.166 367.761 258.526 367.636 257.746 367.636C256.678 367.636 255.787 367.883 255.075 368.375C254.371 368.86 254.018 369.477 254.018 370.227C254.018 370.894 254.261 371.42 254.746 371.807C255.231 372.193 255.988 372.515 257.018 372.773L259.609 373.409C261.17 373.788 262.333 374.367 263.098 375.148C263.863 375.92 264.246 376.917 264.246 378.136C264.246 379.136 263.958 380.03 263.382 380.818C262.814 381.606 262.018 382.227 260.996 382.682C259.973 383.136 258.784 383.364 257.428 383.364C255.647 383.364 254.174 382.977 253.007 382.205C251.84 381.432 251.102 380.303 250.791 378.818L253.337 378.182C253.579 379.121 254.037 379.826 254.712 380.295C255.393 380.765 256.284 381 257.382 381C258.632 381 259.625 380.735 260.359 380.205C261.102 379.667 261.473 379.023 261.473 378.273C261.473 377.667 261.261 377.159 260.837 376.75C260.412 376.333 259.761 376.023 258.882 375.818L255.973 375.136C254.375 374.758 253.2 374.17 252.45 373.375C251.708 372.572 251.337 371.568 251.337 370.364C251.337 369.379 251.613 368.508 252.166 367.75C252.727 366.992 253.488 366.398 254.45 365.966C255.42 365.534 256.518 365.318 257.746 365.318C259.473 365.318 260.829 365.697 261.814 366.455C262.806 367.212 263.511 368.212 263.928 369.455ZM275.874 365.545V367.818H266.828V365.545H275.874ZM269.464 361.364H272.146V378C272.146 378.758 272.256 379.326 272.476 379.705C272.703 380.076 272.991 380.326 273.339 380.455C273.696 380.576 274.071 380.636 274.464 380.636C274.76 380.636 275.002 380.621 275.192 380.591C275.381 380.553 275.533 380.523 275.646 380.5L276.192 382.909C276.01 382.977 275.756 383.045 275.43 383.114C275.105 383.189 274.692 383.227 274.192 383.227C273.434 383.227 272.692 383.064 271.964 382.739C271.245 382.413 270.646 381.917 270.169 381.25C269.699 380.583 269.464 379.742 269.464 378.727V361.364ZM291.589 372.5V383H288.908V365.545H291.499V368.273H291.726C292.135 367.386 292.756 366.674 293.589 366.136C294.423 365.591 295.499 365.318 296.817 365.318C297.999 365.318 299.033 365.561 299.919 366.045C300.805 366.523 301.495 367.25 301.987 368.227C302.48 369.197 302.726 370.424 302.726 371.909V383H300.044V372.091C300.044 370.72 299.688 369.652 298.976 368.886C298.264 368.114 297.286 367.727 296.044 367.727C295.188 367.727 294.423 367.913 293.749 368.284C293.082 368.655 292.555 369.197 292.169 369.909C291.783 370.621 291.589 371.485 291.589 372.5ZM318.626 375.864V365.545H321.308V383H318.626V380.045H318.445C318.036 380.932 317.399 381.686 316.536 382.307C315.672 382.92 314.581 383.227 313.263 383.227C312.172 383.227 311.202 382.989 310.354 382.511C309.505 382.027 308.839 381.299 308.354 380.33C307.869 379.352 307.626 378.121 307.626 376.636V365.545H310.308V376.455C310.308 377.727 310.664 378.742 311.376 379.5C312.096 380.258 313.013 380.636 314.126 380.636C314.793 380.636 315.471 380.466 316.161 380.125C316.857 379.784 317.441 379.261 317.911 378.557C318.388 377.852 318.626 376.955 318.626 375.864ZM326.22 383V365.545H328.811V368.273H329.038C329.402 367.341 329.989 366.617 330.8 366.102C331.61 365.58 332.584 365.318 333.72 365.318C334.872 365.318 335.83 365.58 336.595 366.102C337.368 366.617 337.97 367.341 338.402 368.273H338.584C339.031 367.371 339.701 366.655 340.595 366.125C341.489 365.587 342.561 365.318 343.811 365.318C345.372 365.318 346.648 365.807 347.641 366.784C348.633 367.754 349.129 369.265 349.129 371.318V383H346.447V371.318C346.447 370.03 346.095 369.11 345.391 368.557C344.686 368.004 343.857 367.727 342.902 367.727C341.675 367.727 340.724 368.098 340.05 368.841C339.375 369.576 339.038 370.508 339.038 371.636V383H336.311V371.045C336.311 370.053 335.989 369.254 335.345 368.648C334.701 368.034 333.872 367.727 332.857 367.727C332.16 367.727 331.508 367.913 330.902 368.284C330.304 368.655 329.819 369.17 329.447 369.83C329.084 370.481 328.902 371.235 328.902 372.091V383H326.22ZM354.396 383V359.727H357.078V368.318H357.305C357.502 368.015 357.775 367.629 358.124 367.159C358.48 366.682 358.987 366.258 359.646 365.886C360.313 365.508 361.214 365.318 362.351 365.318C363.821 365.318 365.116 365.686 366.237 366.42C367.358 367.155 368.233 368.197 368.862 369.545C369.491 370.894 369.805 372.485 369.805 374.318C369.805 376.167 369.491 377.769 368.862 379.125C368.233 380.473 367.362 381.519 366.249 382.261C365.135 382.996 363.851 383.364 362.396 383.364C361.275 383.364 360.377 383.178 359.703 382.807C359.029 382.428 358.51 382 358.146 381.523C357.783 381.038 357.502 380.636 357.305 380.318H356.987V383H354.396ZM357.033 374.273C357.033 375.591 357.226 376.754 357.612 377.761C357.999 378.761 358.563 379.545 359.305 380.114C360.048 380.674 360.957 380.955 362.033 380.955C363.154 380.955 364.089 380.659 364.839 380.068C365.597 379.47 366.165 378.667 366.544 377.659C366.93 376.644 367.124 375.515 367.124 374.273C367.124 373.045 366.934 371.939 366.555 370.955C366.184 369.962 365.62 369.178 364.862 368.602C364.112 368.019 363.169 367.727 362.033 367.727C360.942 367.727 360.025 368.004 359.283 368.557C358.54 369.102 357.98 369.867 357.601 370.852C357.222 371.83 357.033 372.97 357.033 374.273ZM381.226 383.364C379.544 383.364 378.093 382.992 376.874 382.25C375.661 381.5 374.726 380.455 374.067 379.114C373.415 377.765 373.089 376.197 373.089 374.409C373.089 372.621 373.415 371.045 374.067 369.682C374.726 368.311 375.643 367.242 376.817 366.477C377.999 365.705 379.377 365.318 380.953 365.318C381.862 365.318 382.76 365.47 383.646 365.773C384.533 366.076 385.339 366.568 386.067 367.25C386.794 367.924 387.374 368.818 387.805 369.932C388.237 371.045 388.453 372.417 388.453 374.045V375.182H374.999V372.864H385.726C385.726 371.879 385.529 371 385.135 370.227C384.749 369.455 384.196 368.845 383.476 368.398C382.764 367.951 381.923 367.727 380.953 367.727C379.885 367.727 378.961 367.992 378.18 368.523C377.408 369.045 376.813 369.727 376.396 370.568C375.98 371.409 375.771 372.311 375.771 373.273V374.818C375.771 376.136 375.999 377.254 376.453 378.17C376.915 379.08 377.555 379.773 378.374 380.25C379.192 380.72 380.143 380.955 381.226 380.955C381.93 380.955 382.567 380.856 383.135 380.659C383.711 380.455 384.207 380.152 384.624 379.75C385.04 379.341 385.362 378.833 385.589 378.227L388.18 378.955C387.908 379.833 387.449 380.606 386.805 381.273C386.161 381.932 385.366 382.447 384.419 382.818C383.472 383.182 382.408 383.364 381.226 383.364ZM392.533 383V365.545H395.124V368.182H395.305C395.624 367.318 396.199 366.617 397.033 366.08C397.866 365.542 398.805 365.273 399.851 365.273C400.048 365.273 400.294 365.277 400.589 365.284C400.885 365.292 401.108 365.303 401.26 365.318V368.045C401.169 368.023 400.961 367.989 400.635 367.943C400.317 367.89 399.98 367.864 399.624 367.864C398.775 367.864 398.018 368.042 397.351 368.398C396.692 368.746 396.169 369.231 395.783 369.852C395.404 370.466 395.214 371.167 395.214 371.955V383H392.533ZM413.439 383V365.545H416.121V383H413.439ZM414.803 362.636C414.28 362.636 413.829 362.458 413.45 362.102C413.079 361.746 412.893 361.318 412.893 360.818C412.893 360.318 413.079 359.89 413.45 359.534C413.829 359.178 414.28 359 414.803 359C415.325 359 415.772 359.178 416.143 359.534C416.522 359.89 416.712 360.318 416.712 360.818C416.712 361.318 416.522 361.746 416.143 362.102C415.772 362.458 415.325 362.636 414.803 362.636ZM433.396 369.455L430.987 370.136C430.836 369.735 430.612 369.345 430.317 368.966C430.029 368.58 429.635 368.261 429.135 368.011C428.635 367.761 427.995 367.636 427.214 367.636C426.146 367.636 425.256 367.883 424.544 368.375C423.839 368.86 423.487 369.477 423.487 370.227C423.487 370.894 423.73 371.42 424.214 371.807C424.699 372.193 425.457 372.515 426.487 372.773L429.078 373.409C430.639 373.788 431.802 374.367 432.567 375.148C433.332 375.92 433.714 376.917 433.714 378.136C433.714 379.136 433.427 380.03 432.851 380.818C432.283 381.606 431.487 382.227 430.464 382.682C429.442 383.136 428.252 383.364 426.896 383.364C425.116 383.364 423.643 382.977 422.476 382.205C421.309 381.432 420.571 380.303 420.26 378.818L422.805 378.182C423.048 379.121 423.506 379.826 424.18 380.295C424.862 380.765 425.752 381 426.851 381C428.101 381 429.093 380.735 429.828 380.205C430.571 379.667 430.942 379.023 430.942 378.273C430.942 377.667 430.73 377.159 430.305 376.75C429.881 376.333 429.23 376.023 428.351 375.818L425.442 375.136C423.843 374.758 422.669 374.17 421.919 373.375C421.177 372.572 420.805 371.568 420.805 370.364C420.805 369.379 421.082 368.508 421.635 367.75C422.196 366.992 422.957 366.398 423.919 365.966C424.889 365.534 425.987 365.318 427.214 365.318C428.942 365.318 430.298 365.697 431.283 366.455C432.275 367.212 432.98 368.212 433.396 369.455ZM446.706 383V380.955L454.388 372.545C455.289 371.561 456.032 370.705 456.615 369.977C457.198 369.242 457.63 368.553 457.911 367.909C458.198 367.258 458.342 366.576 458.342 365.864C458.342 365.045 458.145 364.337 457.751 363.739C457.365 363.14 456.835 362.678 456.161 362.352C455.486 362.027 454.729 361.864 453.888 361.864C452.994 361.864 452.214 362.049 451.547 362.42C450.888 362.784 450.376 363.295 450.013 363.955C449.657 364.614 449.479 365.386 449.479 366.273H446.797C446.797 364.909 447.111 363.712 447.74 362.682C448.369 361.652 449.225 360.848 450.308 360.273C451.399 359.697 452.623 359.409 453.979 359.409C455.342 359.409 456.551 359.697 457.604 360.273C458.657 360.848 459.482 361.625 460.081 362.602C460.679 363.58 460.979 364.667 460.979 365.864C460.979 366.72 460.823 367.557 460.513 368.375C460.21 369.186 459.679 370.091 458.922 371.091C458.172 372.083 457.13 373.295 455.797 374.727L450.57 380.318V380.5H461.388V383H446.706ZM466.808 383L477.217 362.409V362.227H465.217V359.727H480.126V362.364L469.763 383H466.808Z" fill="white"/>
<path d="M222.393 20.9801V15.9091H246.285V20.9801H237.379V45H231.299V20.9801H222.393ZM256.157 32.3864V45H250.106V15.9091H255.987V27.0312H256.243C256.735 25.7434 257.53 24.7348 258.629 24.0057C259.727 23.267 261.105 22.8977 262.762 22.8977C264.278 22.8977 265.599 23.2292 266.725 23.892C267.862 24.5455 268.743 25.4877 269.368 26.7188C270.002 27.9403 270.315 29.4034 270.305 31.108V45H264.254V32.1875C264.263 30.8428 263.922 29.7964 263.231 29.0483C262.549 28.3002 261.593 27.9261 260.362 27.9261C259.538 27.9261 258.809 28.1013 258.174 28.4517C257.549 28.8021 257.057 29.3134 256.697 29.9858C256.347 30.6487 256.167 31.4489 256.157 32.3864ZM275.067 45V23.1818H281.118V45H275.067ZM278.107 20.3693C277.207 20.3693 276.435 20.071 275.792 19.4744C275.157 18.8684 274.84 18.1439 274.84 17.3011C274.84 16.4678 275.157 15.7528 275.792 15.1562C276.435 14.5502 277.207 14.2472 278.107 14.2472C279.007 14.2472 279.774 14.5502 280.408 15.1562C281.052 15.7528 281.374 16.4678 281.374 17.3011C281.374 18.1439 281.052 18.8684 280.408 19.4744C279.774 20.071 279.007 20.3693 278.107 20.3693ZM285.966 45V23.1818H291.832V26.9886H292.059C292.457 25.6345 293.125 24.6117 294.062 23.9205C295 23.2197 296.079 22.8693 297.301 22.8693C297.604 22.8693 297.931 22.8883 298.281 22.9261C298.631 22.964 298.939 23.0161 299.204 23.0824V28.4517C298.92 28.3665 298.527 28.2907 298.025 28.2244C297.523 28.1581 297.064 28.125 296.647 28.125C295.757 28.125 294.962 28.3191 294.261 28.7074C293.57 29.0862 293.02 29.6165 292.613 30.2983C292.216 30.9801 292.017 31.7661 292.017 32.6562V45H285.966ZM309.357 45.3551C307.7 45.3551 306.199 44.929 304.854 44.0767C303.519 43.215 302.458 41.9508 301.672 40.2841C300.896 38.608 300.507 36.553 300.507 34.1193C300.507 31.6193 300.91 29.5407 301.715 27.8835C302.52 26.2169 303.59 24.9716 304.925 24.1477C306.27 23.3144 307.742 22.8977 309.343 22.8977C310.564 22.8977 311.582 23.1061 312.397 23.5227C313.221 23.9299 313.883 24.4413 314.385 25.0568C314.897 25.6629 315.285 26.2595 315.55 26.8466H315.735V15.9091H321.772V45H315.806V41.5057H315.55C315.266 42.1117 314.864 42.7131 314.343 43.3097C313.831 43.8968 313.164 44.3845 312.34 44.7727C311.525 45.161 310.531 45.3551 309.357 45.3551ZM311.275 40.5398C312.25 40.5398 313.074 40.2746 313.746 39.7443C314.428 39.2045 314.949 38.4517 315.309 37.4858C315.678 36.5199 315.863 35.3883 315.863 34.0909C315.863 32.7936 315.683 31.6667 315.323 30.7102C314.963 29.7538 314.442 29.0152 313.76 28.4943C313.078 27.9735 312.25 27.7131 311.275 27.7131C310.28 27.7131 309.442 27.983 308.76 28.5227C308.078 29.0625 307.562 29.8106 307.212 30.767C306.862 31.7235 306.686 32.8314 306.686 34.0909C306.686 35.3598 306.862 36.482 307.212 37.4574C307.572 38.4233 308.088 39.1809 308.76 39.7301C309.442 40.2699 310.28 40.5398 311.275 40.5398ZM336.118 45V15.9091H347.596C349.802 15.9091 351.682 16.3305 353.235 17.1733C354.788 18.0066 355.971 19.1667 356.786 20.6534C357.61 22.1307 358.022 23.8352 358.022 25.767C358.022 27.6989 357.605 29.4034 356.772 30.8807C355.938 32.358 354.731 33.5085 353.15 34.3324C351.578 35.1562 349.674 35.5682 347.439 35.5682H340.124V30.6392H346.445C347.629 30.6392 348.604 30.4356 349.371 30.0284C350.148 29.6117 350.725 29.0388 351.104 28.3097C351.492 27.571 351.686 26.7235 351.686 25.767C351.686 24.8011 351.492 23.9583 351.104 23.2386C350.725 22.5095 350.148 21.946 349.371 21.5483C348.595 21.1411 347.61 20.9375 346.417 20.9375H342.269V45H336.118ZM367.539 45.4119C366.147 45.4119 364.906 45.1705 363.817 44.6875C362.728 44.1951 361.866 43.4706 361.232 42.5142C360.607 41.5483 360.294 40.3456 360.294 38.9062C360.294 37.6941 360.517 36.6761 360.962 35.8523C361.407 35.0284 362.013 34.3655 362.78 33.8636C363.547 33.3617 364.418 32.983 365.394 32.7273C366.379 32.4716 367.411 32.2917 368.49 32.1875C369.759 32.0549 370.782 31.9318 371.559 31.8182C372.335 31.6951 372.899 31.5152 373.249 31.2784C373.599 31.0417 373.775 30.6913 373.775 30.2273V30.142C373.775 29.2424 373.49 28.5464 372.922 28.054C372.364 27.5616 371.568 27.3153 370.536 27.3153C369.447 27.3153 368.58 27.5568 367.936 28.0398C367.292 28.5133 366.866 29.1098 366.658 29.8295L361.061 29.375C361.346 28.0492 361.904 26.9034 362.738 25.9375C363.571 24.9621 364.646 24.214 365.962 23.6932C367.288 23.1629 368.822 22.8977 370.564 22.8977C371.776 22.8977 372.936 23.0398 374.044 23.3239C375.162 23.608 376.151 24.0483 377.013 24.6449C377.884 25.2415 378.571 26.0085 379.073 26.946C379.575 27.8741 379.826 28.9867 379.826 30.2841V45H374.087V41.9744H373.917C373.566 42.6562 373.097 43.2576 372.51 43.7784C371.923 44.2898 371.218 44.6922 370.394 44.9858C369.57 45.2699 368.618 45.4119 367.539 45.4119ZM369.272 41.2358C370.162 41.2358 370.948 41.0606 371.63 40.7102C372.311 40.3504 372.846 39.8674 373.235 39.2614C373.623 38.6553 373.817 37.9687 373.817 37.2017V34.8864C373.628 35.0095 373.367 35.1231 373.036 35.2273C372.714 35.322 372.349 35.4119 371.942 35.4972C371.535 35.5729 371.128 35.6439 370.721 35.7102C370.313 35.767 369.944 35.8191 369.613 35.8665C368.902 35.9706 368.282 36.1364 367.752 36.3636C367.221 36.5909 366.81 36.8987 366.516 37.2869C366.222 37.6657 366.076 38.1392 366.076 38.7074C366.076 39.5312 366.374 40.161 366.971 40.5966C367.577 41.0227 368.344 41.2358 369.272 41.2358ZM402.674 29.4034L397.134 29.7443C397.039 29.2708 396.836 28.8447 396.523 28.4659C396.211 28.0777 395.799 27.7699 395.287 27.5426C394.785 27.3059 394.184 27.1875 393.483 27.1875C392.546 27.1875 391.755 27.3864 391.111 27.7841C390.467 28.1723 390.145 28.6932 390.145 29.3466C390.145 29.8674 390.354 30.3078 390.77 30.6676C391.187 31.0275 391.902 31.3163 392.915 31.5341L396.864 32.3295C398.985 32.7652 400.567 33.4659 401.608 34.4318C402.65 35.3977 403.171 36.6667 403.171 38.2386C403.171 39.6686 402.749 40.9233 401.907 42.0028C401.073 43.0824 399.927 43.9252 398.469 44.5312C397.02 45.1278 395.349 45.4261 393.455 45.4261C390.567 45.4261 388.266 44.8248 386.551 43.6222C384.847 42.41 383.848 40.7623 383.554 38.679L389.506 38.3665C389.686 39.2472 390.122 39.9195 390.813 40.3835C391.504 40.8381 392.39 41.0653 393.469 41.0653C394.53 41.0653 395.382 40.8617 396.026 40.4545C396.679 40.0379 397.011 39.5028 397.02 38.8494C397.011 38.3002 396.779 37.8504 396.324 37.5C395.87 37.1402 395.169 36.8655 394.222 36.6761L390.444 35.9233C388.313 35.4972 386.727 34.7585 385.685 33.7074C384.653 32.6562 384.137 31.3163 384.137 29.6875C384.137 28.286 384.516 27.0786 385.273 26.0653C386.04 25.0521 387.115 24.2708 388.498 23.7216C389.89 23.1723 391.518 22.8977 393.384 22.8977C396.14 22.8977 398.308 23.4801 399.89 24.6449C401.48 25.8097 402.408 27.3958 402.674 29.4034ZM425.135 29.4034L419.595 29.7443C419.5 29.2708 419.297 28.8447 418.984 28.4659C418.672 28.0777 418.26 27.7699 417.748 27.5426C417.246 27.3059 416.645 27.1875 415.944 27.1875C415.007 27.1875 414.216 27.3864 413.572 27.7841C412.928 28.1723 412.606 28.6932 412.606 29.3466C412.606 29.8674 412.815 30.3078 413.231 30.6676C413.648 31.0275 414.363 31.3163 415.376 31.5341L419.325 32.3295C421.446 32.7652 423.028 33.4659 424.069 34.4318C425.111 35.3977 425.632 36.6667 425.632 38.2386C425.632 39.6686 425.21 40.9233 424.368 42.0028C423.534 43.0824 422.388 43.9252 420.93 44.5312C419.481 45.1278 417.81 45.4261 415.916 45.4261C413.028 45.4261 410.726 44.8248 409.012 43.6222C407.308 42.41 406.309 40.7623 406.015 38.679L411.967 38.3665C412.147 39.2472 412.583 39.9195 413.274 40.3835C413.965 40.8381 414.85 41.0653 415.93 41.0653C416.991 41.0653 417.843 40.8617 418.487 40.4545C419.14 40.0379 419.472 39.5028 419.481 38.8494C419.472 38.3002 419.24 37.8504 418.785 37.5C418.331 37.1402 417.63 36.8655 416.683 36.6761L412.904 35.9233C410.774 35.4972 409.188 34.7585 408.146 33.7074C407.114 32.6562 406.598 31.3163 406.598 29.6875C406.598 28.286 406.976 27.0786 407.734 26.0653C408.501 25.0521 409.576 24.2708 410.958 23.7216C412.35 23.1723 413.979 22.8977 415.845 22.8977C418.6 22.8977 420.769 23.4801 422.35 24.6449C423.941 25.8097 424.869 27.3958 425.135 29.4034Z" fill="white"/>
<path d="M423.497 650.398C421.622 650.398 419.951 650.076 418.483 649.432C417.025 648.788 415.865 647.893 415.003 646.747C414.151 645.592 413.687 644.252 413.611 642.727H417.19C417.266 643.665 417.588 644.474 418.156 645.156C418.724 645.829 419.468 646.349 420.386 646.719C421.305 647.088 422.323 647.273 423.44 647.273C424.69 647.273 425.798 647.055 426.764 646.619C427.73 646.184 428.488 645.578 429.037 644.801C429.586 644.025 429.861 643.125 429.861 642.102C429.861 641.032 429.596 640.09 429.065 639.276C428.535 638.452 427.759 637.808 426.736 637.344C425.713 636.88 424.463 636.648 422.986 636.648H420.656V633.523H422.986C424.141 633.523 425.154 633.314 426.026 632.898C426.906 632.481 427.593 631.894 428.085 631.136C428.587 630.379 428.838 629.489 428.838 628.466C428.838 627.481 428.62 626.624 428.185 625.895C427.749 625.166 427.134 624.598 426.338 624.19C425.552 623.783 424.624 623.58 423.554 623.58C422.55 623.58 421.603 623.764 420.713 624.134C419.832 624.493 419.113 625.019 418.554 625.71C417.995 626.392 417.692 627.216 417.645 628.182H414.236C414.293 626.657 414.752 625.322 415.614 624.176C416.475 623.021 417.602 622.121 418.994 621.477C420.396 620.833 421.935 620.511 423.611 620.511C425.41 620.511 426.954 620.876 428.241 621.605C429.529 622.325 430.519 623.277 431.21 624.46C431.902 625.644 432.247 626.922 432.247 628.295C432.247 629.934 431.816 631.33 430.955 632.486C430.102 633.641 428.942 634.441 427.474 634.886V635.114C429.312 635.417 430.746 636.198 431.778 637.457C432.811 638.707 433.327 640.256 433.327 642.102C433.327 643.684 432.896 645.104 432.034 646.364C431.182 647.614 430.017 648.598 428.54 649.318C427.063 650.038 425.382 650.398 423.497 650.398ZM439.136 650V647.443L448.739 636.932C449.866 635.701 450.794 634.631 451.523 633.722C452.252 632.803 452.792 631.941 453.142 631.136C453.502 630.322 453.682 629.47 453.682 628.58C453.682 627.557 453.436 626.671 452.943 625.923C452.46 625.175 451.797 624.598 450.955 624.19C450.112 623.783 449.165 623.58 448.114 623.58C446.996 623.58 446.021 623.812 445.188 624.276C444.364 624.73 443.724 625.369 443.27 626.193C442.825 627.017 442.602 627.983 442.602 629.091H439.25C439.25 627.386 439.643 625.89 440.429 624.602C441.215 623.314 442.285 622.311 443.639 621.591C445.003 620.871 446.532 620.511 448.227 620.511C449.932 620.511 451.442 620.871 452.759 621.591C454.075 622.311 455.107 623.281 455.855 624.503C456.603 625.724 456.977 627.083 456.977 628.58C456.977 629.65 456.783 630.696 456.395 631.719C456.016 632.732 455.353 633.864 454.406 635.114C453.469 636.354 452.167 637.869 450.5 639.659L443.966 646.648V646.875H457.489V650H439.136Z" fill="white"/>
<path d="M423.497 200.398C421.622 200.398 419.951 200.076 418.483 199.432C417.025 198.788 415.865 197.893 415.003 196.747C414.151 195.592 413.687 194.252 413.611 192.727H417.19C417.266 193.665 417.588 194.474 418.156 195.156C418.724 195.829 419.468 196.349 420.386 196.719C421.305 197.088 422.323 197.273 423.44 197.273C424.69 197.273 425.798 197.055 426.764 196.619C427.73 196.184 428.488 195.578 429.037 194.801C429.586 194.025 429.861 193.125 429.861 192.102C429.861 191.032 429.596 190.09 429.065 189.276C428.535 188.452 427.759 187.808 426.736 187.344C425.713 186.88 424.463 186.648 422.986 186.648H420.656V183.523H422.986C424.141 183.523 425.154 183.314 426.026 182.898C426.906 182.481 427.593 181.894 428.085 181.136C428.587 180.379 428.838 179.489 428.838 178.466C428.838 177.481 428.62 176.624 428.185 175.895C427.749 175.166 427.134 174.598 426.338 174.19C425.552 173.783 424.624 173.58 423.554 173.58C422.55 173.58 421.603 173.764 420.713 174.134C419.832 174.493 419.113 175.019 418.554 175.71C417.995 176.392 417.692 177.216 417.645 178.182H414.236C414.293 176.657 414.752 175.322 415.614 174.176C416.475 173.021 417.602 172.121 418.994 171.477C420.396 170.833 421.935 170.511 423.611 170.511C425.41 170.511 426.954 170.876 428.241 171.605C429.529 172.325 430.519 173.277 431.21 174.46C431.902 175.644 432.247 176.922 432.247 178.295C432.247 179.934 431.816 181.33 430.955 182.486C430.102 183.641 428.942 184.441 427.474 184.886V185.114C429.312 185.417 430.746 186.198 431.778 187.457C432.811 188.707 433.327 190.256 433.327 192.102C433.327 193.684 432.896 195.104 432.034 196.364C431.182 197.614 430.017 198.598 428.54 199.318C427.063 200.038 425.382 200.398 423.497 200.398ZM439.136 200V197.443L448.739 186.932C449.866 185.701 450.794 184.631 451.523 183.722C452.252 182.803 452.792 181.941 453.142 181.136C453.502 180.322 453.682 179.47 453.682 178.58C453.682 177.557 453.436 176.671 452.943 175.923C452.46 175.175 451.797 174.598 450.955 174.19C450.112 173.783 449.165 173.58 448.114 173.58C446.996 173.58 446.021 173.812 445.188 174.276C444.364 174.73 443.724 175.369 443.27 176.193C442.825 177.017 442.602 177.983 442.602 179.091H439.25C439.25 177.386 439.643 175.89 440.429 174.602C441.215 173.314 442.285 172.311 443.639 171.591C445.003 170.871 446.532 170.511 448.227 170.511C449.932 170.511 451.442 170.871 452.759 171.591C454.075 172.311 455.107 173.281 455.855 174.503C456.603 175.724 456.977 177.083 456.977 178.58C456.977 179.65 456.783 180.696 456.395 181.719C456.016 182.732 455.353 183.864 454.406 185.114C453.469 186.354 452.167 187.869 450.5 189.659L443.966 196.648V196.875H457.489V200H439.136Z" fill="white"/>
<path d="M533.572 644.034V641.136L546.356 620.909H548.458V625.398H547.038L537.379 640.682V640.909H554.594V644.034H533.572ZM547.265 650V643.153V641.804V620.909H550.617V650H547.265ZM560.827 650L573.838 624.261V624.034H558.838V620.909H577.474V624.205L564.52 650H560.827Z" fill="white"/>
<path d="M534.976 200V197.443L544.578 186.932C545.705 185.701 546.633 184.631 547.363 183.722C548.092 182.803 548.632 181.941 548.982 181.136C549.342 180.322 549.522 179.47 549.522 178.58C549.522 177.557 549.275 176.671 548.783 175.923C548.3 175.175 547.637 174.598 546.794 174.19C545.952 173.783 545.005 173.58 543.953 173.58C542.836 173.58 541.861 173.812 541.027 174.276C540.203 174.73 539.564 175.369 539.11 176.193C538.665 177.017 538.442 177.983 538.442 179.091H535.09C535.09 177.386 535.483 175.89 536.269 174.602C537.055 173.314 538.125 172.311 539.479 171.591C540.843 170.871 542.372 170.511 544.067 170.511C545.772 170.511 547.282 170.871 548.598 171.591C549.915 172.311 550.947 173.281 551.695 174.503C552.443 175.724 552.817 177.083 552.817 178.58C552.817 179.65 552.623 180.696 552.235 181.719C551.856 182.732 551.193 183.864 550.246 185.114C549.309 186.354 548.007 187.869 546.34 189.659L539.806 196.648V196.875H553.328V200H534.976ZM560.104 200L573.115 174.261V174.034H558.115V170.909H576.752V174.205L563.797 200H560.104Z" fill="white"/>
<line x1="316" y1="278" x2="316" y2="316" stroke="white" stroke-width="2"/>
<line x1="437" y1="278" x2="437" y2="316" stroke="white" stroke-width="2"/>
<line x1="557" y1="278" x2="557" y2="316" stroke="white" stroke-width="2"/>
<line x1="315" y1="317" x2="558" y2="317" stroke="white" stroke-width="2"/>
<path d="M313.939 520.061C314.525 520.646 315.475 520.646 316.061 520.061L325.607 510.515C326.192 509.929 326.192 508.979 325.607 508.393C325.021 507.808 324.071 507.808 323.485 508.393L315 516.879L306.515 508.393C305.929 507.808 304.979 507.808 304.393 508.393C303.808 508.979 303.808 509.929 304.393 510.515L313.939 520.061ZM315 434L313.5 434L313.5 519L315 519L316.5 519L316.5 434L315 434Z" fill="white"/>
</svg>
