<svg width="648" height="697" viewBox="0 0 648 697" fill="none" xmlns="http://www.w3.org/2000/svg">
<rect x="266" y="125" width="119" height="122" fill="#009966"/>
<rect width="119" height="122" transform="matrix(-1 0 0 1 264 575)" fill="#009966"/>
<rect x="25" y="126" width="599" height="120" rx="26" stroke="#DBDBDB" stroke-width="2"/>
<rect x="25" y="576" width="599" height="120" rx="26" stroke="#DBDBDB" stroke-width="2"/>
<line x1="145" y1="125" x2="145" y2="247" stroke="#DBDBDB" stroke-width="2"/>
<line x1="145" y1="575" x2="145" y2="697" stroke="#DBDBDB" stroke-width="2"/>
<line x1="265" y1="125" x2="265" y2="247" stroke="#DBDBDB" stroke-width="2"/>
<line x1="265" y1="575" x2="265" y2="697" stroke="#DBDBDB" stroke-width="2"/>
<line x1="386" y1="125" x2="386" y2="247" stroke="#DBDBDB" stroke-width="2"/>
<line x1="386" y1="575" x2="386" y2="697" stroke="#DBDBDB" stroke-width="2"/>
<line x1="506" y1="125" x2="506" y2="247" stroke="#DBDBDB" stroke-width="2"/>
<line x1="506" y1="575" x2="506" y2="697" stroke="#DBDBDB" stroke-width="2"/>
<path d="M75.3324 170.909V200H71.8097V174.602H71.6392L64.5369 179.318V175.739L71.8097 170.909H75.3324ZM83.6989 200V197.443L93.3011 186.932C94.428 185.701 95.3561 184.631 96.0852 183.722C96.8144 182.803 97.3542 181.941 97.7045 181.136C98.0644 180.322 98.2443 179.47 98.2443 178.58C98.2443 177.557 97.9981 176.671 97.5057 175.923C97.0227 175.175 96.3598 174.598 95.517 174.19C94.6742 173.783 93.7273 173.58 92.6761 173.58C91.5587 173.58 90.5833 173.812 89.75 174.276C88.9261 174.73 88.2869 175.369 87.8324 176.193C87.3873 177.017 87.1648 177.983 87.1648 179.091H83.8125C83.8125 177.386 84.2055 175.89 84.9915 174.602C85.7775 173.314 86.8475 172.311 88.2017 171.591C89.5653 170.871 91.0947 170.511 92.7898 170.511C94.4943 170.511 96.0047 170.871 97.321 171.591C98.6373 172.311 99.6695 173.281 100.418 174.503C101.166 175.724 101.54 177.083 101.54 178.58C101.54 179.65 101.346 180.696 100.957 181.719C100.579 182.732 99.9157 183.864 98.9688 185.114C98.0312 186.354 96.7292 187.869 95.0625 189.659L88.5284 196.648V196.875H102.051V200H83.6989Z" fill="white"/>
<path d="M75.3324 620.909V650H71.8097V624.602H71.6392L64.5369 629.318V625.739L71.8097 620.909H75.3324ZM83.6989 650V647.443L93.3011 636.932C94.428 635.701 95.3561 634.631 96.0852 633.722C96.8144 632.803 97.3542 631.941 97.7045 631.136C98.0644 630.322 98.2443 629.47 98.2443 628.58C98.2443 627.557 97.9981 626.671 97.5057 625.923C97.0227 625.175 96.3598 624.598 95.517 624.19C94.6742 623.783 93.7273 623.58 92.6761 623.58C91.5587 623.58 90.5833 623.812 89.75 624.276C88.9261 624.73 88.2869 625.369 87.8324 626.193C87.3873 627.017 87.1648 627.983 87.1648 629.091H83.8125C83.8125 627.386 84.2055 625.89 84.9915 624.602C85.7775 623.314 86.8475 622.311 88.2017 621.591C89.5653 620.871 91.0947 620.511 92.7898 620.511C94.4943 620.511 96.0047 620.871 97.321 621.591C98.6373 622.311 99.6695 623.281 100.418 624.503C101.166 625.724 101.54 627.083 101.54 628.58C101.54 629.65 101.346 630.696 100.957 631.719C100.579 632.732 99.9157 633.864 98.9688 635.114C98.0312 636.354 96.7292 637.869 95.0625 639.659L88.5284 646.648V646.875H102.051V650H83.6989Z" fill="white"/>
<path d="M181.572 194.034V191.136L194.356 170.909H196.458V175.398H195.038L185.379 190.682V190.909H202.594V194.034H181.572ZM195.265 200V193.153V191.804V170.909H198.617V200H195.265ZM208.827 200L221.838 174.261V174.034H206.838V170.909H225.474V174.205L212.52 200H208.827Z" fill="white"/>
<path d="M194.961 620.909V650H191.439V624.602H191.268L184.166 629.318V625.739L191.439 620.909H194.961ZM212.589 620.511C213.782 620.521 214.975 620.748 216.169 621.193C217.362 621.638 218.451 622.377 219.436 623.409C220.421 624.432 221.211 625.829 221.808 627.599C222.404 629.37 222.703 631.591 222.703 634.261C222.703 636.847 222.457 639.143 221.964 641.151C221.481 643.149 220.78 644.834 219.862 646.207C218.953 647.58 217.845 648.622 216.538 649.332C215.241 650.043 213.773 650.398 212.135 650.398C210.506 650.398 209.052 650.076 207.774 649.432C206.505 648.778 205.463 647.874 204.649 646.719C203.844 645.554 203.328 644.205 203.1 642.67H206.566C206.879 644.006 207.499 645.109 208.427 645.98C209.365 646.842 210.6 647.273 212.135 647.273C214.379 647.273 216.15 646.293 217.447 644.332C218.754 642.372 219.407 639.602 219.407 636.023H219.18C218.65 636.818 218.02 637.505 217.291 638.082C216.562 638.66 215.752 639.105 214.862 639.418C213.972 639.73 213.025 639.886 212.021 639.886C210.354 639.886 208.825 639.474 207.433 638.651C206.05 637.817 204.942 636.676 204.109 635.227C203.285 633.769 202.873 632.102 202.873 630.227C202.873 628.447 203.271 626.818 204.066 625.341C204.871 623.854 205.998 622.67 207.447 621.79C208.905 620.909 210.619 620.483 212.589 620.511ZM212.589 623.636C211.396 623.636 210.321 623.935 209.365 624.531C208.418 625.118 207.665 625.914 207.106 626.918C206.557 627.912 206.282 629.015 206.282 630.227C206.282 631.439 206.547 632.543 207.078 633.537C207.618 634.522 208.351 635.308 209.279 635.895C210.217 636.473 211.282 636.761 212.475 636.761C213.375 636.761 214.213 636.586 214.99 636.236C215.766 635.876 216.443 635.388 217.021 634.773C217.608 634.148 218.067 633.442 218.399 632.656C218.73 631.861 218.896 631.032 218.896 630.17C218.896 629.034 218.621 627.969 218.072 626.974C217.532 625.98 216.784 625.175 215.828 624.56C214.881 623.944 213.801 623.636 212.589 623.636Z" fill="white"/>
<path d="M314.961 170.909V200H311.439V174.602H311.268L304.166 179.318V175.739L311.439 170.909H314.961ZM332.589 170.511C333.782 170.521 334.975 170.748 336.169 171.193C337.362 171.638 338.451 172.377 339.436 173.409C340.421 174.432 341.211 175.829 341.808 177.599C342.404 179.37 342.703 181.591 342.703 184.261C342.703 186.847 342.457 189.143 341.964 191.151C341.481 193.149 340.78 194.834 339.862 196.207C338.953 197.58 337.845 198.622 336.538 199.332C335.241 200.043 333.773 200.398 332.135 200.398C330.506 200.398 329.052 200.076 327.774 199.432C326.505 198.778 325.463 197.874 324.649 196.719C323.844 195.554 323.328 194.205 323.1 192.67H326.566C326.879 194.006 327.499 195.109 328.427 195.98C329.365 196.842 330.6 197.273 332.135 197.273C334.379 197.273 336.15 196.293 337.447 194.332C338.754 192.372 339.407 189.602 339.407 186.023H339.18C338.65 186.818 338.02 187.505 337.291 188.082C336.562 188.66 335.752 189.105 334.862 189.418C333.972 189.73 333.025 189.886 332.021 189.886C330.354 189.886 328.825 189.474 327.433 188.651C326.05 187.817 324.942 186.676 324.109 185.227C323.285 183.769 322.873 182.102 322.873 180.227C322.873 178.447 323.271 176.818 324.066 175.341C324.871 173.854 325.998 172.67 327.447 171.79C328.905 170.909 330.619 170.483 332.589 170.511ZM332.589 173.636C331.396 173.636 330.321 173.935 329.365 174.531C328.418 175.118 327.665 175.914 327.106 176.918C326.557 177.912 326.282 179.015 326.282 180.227C326.282 181.439 326.547 182.543 327.078 183.537C327.618 184.522 328.351 185.308 329.279 185.895C330.217 186.473 331.282 186.761 332.475 186.761C333.375 186.761 334.213 186.586 334.99 186.236C335.766 185.876 336.443 185.388 337.021 184.773C337.608 184.148 338.067 183.442 338.399 182.656C338.73 181.861 338.896 181.032 338.896 180.17C338.896 179.034 338.621 177.969 338.072 176.974C337.532 175.98 336.784 175.175 335.828 174.56C334.881 173.944 333.801 173.636 332.589 173.636Z" fill="white"/>
<path d="M301.572 644.034V641.136L314.356 620.909H316.458V625.398H315.038L305.379 640.682V640.909H322.594V644.034H301.572ZM315.265 650V643.153V641.804V620.909H318.617V650H315.265ZM328.827 650L341.838 624.261V624.034H326.838V620.909H345.474V624.205L332.52 650H328.827Z" fill="white"/>
<path d="M173.999 365.545C173.862 364.394 173.309 363.5 172.339 362.864C171.37 362.227 170.18 361.909 168.771 361.909C167.741 361.909 166.839 362.076 166.067 362.409C165.302 362.742 164.703 363.201 164.271 363.784C163.847 364.367 163.635 365.03 163.635 365.773C163.635 366.394 163.783 366.928 164.078 367.375C164.381 367.814 164.768 368.182 165.237 368.477C165.707 368.765 166.199 369.004 166.714 369.193C167.23 369.375 167.703 369.523 168.135 369.636L170.499 370.273C171.105 370.432 171.779 370.652 172.521 370.932C173.271 371.212 173.987 371.595 174.669 372.08C175.358 372.557 175.927 373.17 176.374 373.92C176.821 374.67 177.044 375.591 177.044 376.682C177.044 377.939 176.714 379.076 176.055 380.091C175.404 381.106 174.449 381.913 173.192 382.511C171.942 383.11 170.423 383.409 168.635 383.409C166.968 383.409 165.525 383.14 164.305 382.602C163.093 382.064 162.139 381.314 161.442 380.352C160.752 379.39 160.362 378.273 160.271 377H163.18C163.256 377.879 163.552 378.606 164.067 379.182C164.589 379.75 165.249 380.174 166.044 380.455C166.847 380.727 167.711 380.864 168.635 380.864C169.711 380.864 170.677 380.689 171.533 380.341C172.389 379.985 173.067 379.492 173.567 378.864C174.067 378.227 174.317 377.485 174.317 376.636C174.317 375.864 174.101 375.235 173.669 374.75C173.237 374.265 172.669 373.871 171.964 373.568C171.26 373.265 170.499 373 169.68 372.773L166.817 371.955C164.999 371.432 163.559 370.686 162.499 369.716C161.438 368.746 160.908 367.477 160.908 365.909C160.908 364.606 161.26 363.47 161.964 362.5C162.677 361.523 163.631 360.765 164.828 360.227C166.033 359.682 167.377 359.409 168.862 359.409C170.362 359.409 171.696 359.678 172.862 360.216C174.029 360.746 174.953 361.473 175.635 362.398C176.324 363.322 176.688 364.371 176.726 365.545H173.999ZM181.314 383V365.545H183.905V368.273H184.132C184.496 367.341 185.083 366.617 185.893 366.102C186.704 365.58 187.678 365.318 188.814 365.318C189.965 365.318 190.924 365.58 191.689 366.102C192.462 366.617 193.064 367.341 193.496 368.273H193.678C194.125 367.371 194.795 366.655 195.689 366.125C196.583 365.587 197.655 365.318 198.905 365.318C200.465 365.318 201.742 365.807 202.734 366.784C203.727 367.754 204.223 369.265 204.223 371.318V383H201.541V371.318C201.541 370.03 201.189 369.11 200.484 368.557C199.78 368.004 198.95 367.727 197.996 367.727C196.768 367.727 195.818 368.098 195.143 368.841C194.469 369.576 194.132 370.508 194.132 371.636V383H191.405V371.045C191.405 370.053 191.083 369.254 190.439 368.648C189.795 368.034 188.965 367.727 187.95 367.727C187.253 367.727 186.602 367.913 185.996 368.284C185.397 368.655 184.912 369.17 184.541 369.83C184.178 370.481 183.996 371.235 183.996 372.091V383H181.314ZM214.263 383.409C213.157 383.409 212.153 383.201 211.251 382.784C210.35 382.36 209.634 381.75 209.104 380.955C208.573 380.152 208.308 379.182 208.308 378.045C208.308 377.045 208.505 376.235 208.899 375.614C209.293 374.985 209.82 374.492 210.479 374.136C211.138 373.78 211.865 373.515 212.661 373.341C213.464 373.159 214.27 373.015 215.081 372.909C216.142 372.773 217.001 372.67 217.661 372.602C218.327 372.527 218.812 372.402 219.115 372.227C219.426 372.053 219.581 371.75 219.581 371.318V371.227C219.581 370.106 219.274 369.235 218.661 368.614C218.054 367.992 217.134 367.682 215.899 367.682C214.619 367.682 213.615 367.962 212.888 368.523C212.161 369.083 211.649 369.682 211.354 370.318L208.808 369.409C209.263 368.348 209.869 367.523 210.626 366.932C211.392 366.333 212.225 365.917 213.126 365.682C214.036 365.439 214.929 365.318 215.808 365.318C216.369 365.318 217.013 365.386 217.74 365.523C218.475 365.652 219.183 365.92 219.865 366.33C220.554 366.739 221.126 367.356 221.581 368.182C222.036 369.008 222.263 370.114 222.263 371.5V383H219.581V380.636H219.445C219.263 381.015 218.96 381.42 218.536 381.852C218.111 382.284 217.547 382.652 216.842 382.955C216.138 383.258 215.278 383.409 214.263 383.409ZM214.672 381C215.732 381 216.626 380.792 217.354 380.375C218.089 379.958 218.642 379.42 219.013 378.761C219.392 378.102 219.581 377.409 219.581 376.682V374.227C219.467 374.364 219.217 374.489 218.831 374.602C218.452 374.708 218.013 374.803 217.513 374.886C217.02 374.962 216.539 375.03 216.07 375.091C215.607 375.144 215.232 375.189 214.945 375.227C214.248 375.318 213.596 375.466 212.99 375.67C212.392 375.867 211.907 376.167 211.536 376.568C211.172 376.962 210.99 377.5 210.99 378.182C210.99 379.114 211.335 379.818 212.024 380.295C212.721 380.765 213.604 381 214.672 381ZM229.839 359.727V383H227.158V359.727H229.839ZM237.433 359.727V383H234.751V359.727H237.433ZM249.663 383.364C247.982 383.364 246.531 382.992 245.311 382.25C244.099 381.5 243.163 380.455 242.504 379.114C241.853 377.765 241.527 376.197 241.527 374.409C241.527 372.621 241.853 371.045 242.504 369.682C243.163 368.311 244.08 367.242 245.254 366.477C246.436 365.705 247.815 365.318 249.391 365.318C250.3 365.318 251.197 365.47 252.084 365.773C252.97 366.076 253.777 366.568 254.504 367.25C255.232 367.924 255.811 368.818 256.243 369.932C256.675 371.045 256.891 372.417 256.891 374.045V375.182H243.436V372.864H254.163C254.163 371.879 253.966 371 253.572 370.227C253.186 369.455 252.633 368.845 251.913 368.398C251.201 367.951 250.36 367.727 249.391 367.727C248.322 367.727 247.398 367.992 246.618 368.523C245.845 369.045 245.25 369.727 244.834 370.568C244.417 371.409 244.209 372.311 244.209 373.273V374.818C244.209 376.136 244.436 377.254 244.891 378.17C245.353 379.08 245.993 379.773 246.811 380.25C247.629 380.72 248.58 380.955 249.663 380.955C250.368 380.955 251.004 380.856 251.572 380.659C252.148 380.455 252.644 380.152 253.061 379.75C253.478 379.341 253.8 378.833 254.027 378.227L256.618 378.955C256.345 379.833 255.887 380.606 255.243 381.273C254.599 381.932 253.804 382.447 252.857 382.818C251.91 383.182 250.845 383.364 249.663 383.364ZM273.334 369.455L270.925 370.136C270.773 369.735 270.55 369.345 270.254 368.966C269.966 368.58 269.572 368.261 269.072 368.011C268.572 367.761 267.932 367.636 267.152 367.636C266.084 367.636 265.194 367.883 264.482 368.375C263.777 368.86 263.425 369.477 263.425 370.227C263.425 370.894 263.667 371.42 264.152 371.807C264.637 372.193 265.394 372.515 266.425 372.773L269.016 373.409C270.576 373.788 271.739 374.367 272.504 375.148C273.269 375.92 273.652 376.917 273.652 378.136C273.652 379.136 273.364 380.03 272.788 380.818C272.22 381.606 271.425 382.227 270.402 382.682C269.379 383.136 268.19 383.364 266.834 383.364C265.054 383.364 263.58 382.977 262.413 382.205C261.247 381.432 260.508 380.303 260.197 378.818L262.743 378.182C262.985 379.121 263.444 379.826 264.118 380.295C264.8 380.765 265.69 381 266.788 381C268.038 381 269.031 380.735 269.766 380.205C270.508 379.667 270.879 379.023 270.879 378.273C270.879 377.667 270.667 377.159 270.243 376.75C269.819 376.333 269.167 376.023 268.288 375.818L265.379 375.136C263.781 374.758 262.607 374.17 261.857 373.375C261.114 372.572 260.743 371.568 260.743 370.364C260.743 369.379 261.019 368.508 261.572 367.75C262.133 366.992 262.894 366.398 263.857 365.966C264.826 365.534 265.925 365.318 267.152 365.318C268.879 365.318 270.235 365.697 271.22 366.455C272.213 367.212 272.917 368.212 273.334 369.455ZM285.28 365.545V367.818H276.234V365.545H285.28ZM278.871 361.364H281.553V378C281.553 378.758 281.662 379.326 281.882 379.705C282.109 380.076 282.397 380.326 282.746 380.455C283.102 380.576 283.477 380.636 283.871 380.636C284.166 380.636 284.409 380.621 284.598 380.591C284.787 380.553 284.939 380.523 285.053 380.5L285.598 382.909C285.416 382.977 285.162 383.045 284.837 383.114C284.511 383.189 284.098 383.227 283.598 383.227C282.84 383.227 282.098 383.064 281.371 382.739C280.651 382.413 280.053 381.917 279.575 381.25C279.106 380.583 278.871 379.742 278.871 378.727V361.364ZM300.996 372.5V383H298.314V365.545H300.905V368.273H301.132C301.541 367.386 302.162 366.674 302.996 366.136C303.829 365.591 304.905 365.318 306.223 365.318C307.405 365.318 308.439 365.561 309.325 366.045C310.212 366.523 310.901 367.25 311.393 368.227C311.886 369.197 312.132 370.424 312.132 371.909V383H309.45V372.091C309.45 370.72 309.094 369.652 308.382 368.886C307.67 368.114 306.693 367.727 305.45 367.727C304.594 367.727 303.829 367.913 303.155 368.284C302.488 368.655 301.962 369.197 301.575 369.909C301.189 370.621 300.996 371.485 300.996 372.5ZM328.033 375.864V365.545H330.714V383H328.033V380.045H327.851C327.442 380.932 326.805 381.686 325.942 382.307C325.078 382.92 323.987 383.227 322.669 383.227C321.578 383.227 320.608 382.989 319.76 382.511C318.911 382.027 318.245 381.299 317.76 380.33C317.275 379.352 317.033 378.121 317.033 376.636V365.545H319.714V376.455C319.714 377.727 320.071 378.742 320.783 379.5C321.502 380.258 322.419 380.636 323.533 380.636C324.199 380.636 324.877 380.466 325.567 380.125C326.264 379.784 326.847 379.261 327.317 378.557C327.794 377.852 328.033 376.955 328.033 375.864ZM335.626 383V365.545H338.217V368.273H338.445C338.808 367.341 339.395 366.617 340.206 366.102C341.017 365.58 341.99 365.318 343.126 365.318C344.278 365.318 345.236 365.58 346.001 366.102C346.774 366.617 347.376 367.341 347.808 368.273H347.99C348.437 367.371 349.107 366.655 350.001 366.125C350.895 365.587 351.967 365.318 353.217 365.318C354.778 365.318 356.054 365.807 357.047 366.784C358.039 367.754 358.536 369.265 358.536 371.318V383H355.854V371.318C355.854 370.03 355.501 369.11 354.797 368.557C354.092 368.004 353.263 367.727 352.308 367.727C351.081 367.727 350.13 368.098 349.456 368.841C348.782 369.576 348.445 370.508 348.445 371.636V383H345.717V371.045C345.717 370.053 345.395 369.254 344.751 368.648C344.107 368.034 343.278 367.727 342.263 367.727C341.566 367.727 340.914 367.913 340.308 368.284C339.71 368.655 339.225 369.17 338.854 369.83C338.49 370.481 338.308 371.235 338.308 372.091V383H335.626ZM363.803 383V359.727H366.484V368.318H366.712C366.909 368.015 367.181 367.629 367.53 367.159C367.886 366.682 368.393 366.258 369.053 365.886C369.719 365.508 370.621 365.318 371.757 365.318C373.227 365.318 374.522 365.686 375.643 366.42C376.765 367.155 377.64 368.197 378.268 369.545C378.897 370.894 379.212 372.485 379.212 374.318C379.212 376.167 378.897 377.769 378.268 379.125C377.64 380.473 376.768 381.519 375.655 382.261C374.541 382.996 373.257 383.364 371.803 383.364C370.681 383.364 369.784 383.178 369.109 382.807C368.435 382.428 367.916 382 367.553 381.523C367.189 381.038 366.909 380.636 366.712 380.318H366.393V383H363.803ZM366.439 374.273C366.439 375.591 366.632 376.754 367.018 377.761C367.405 378.761 367.969 379.545 368.712 380.114C369.454 380.674 370.363 380.955 371.439 380.955C372.56 380.955 373.496 380.659 374.246 380.068C375.003 379.47 375.571 378.667 375.95 377.659C376.337 376.644 376.53 375.515 376.53 374.273C376.53 373.045 376.34 371.939 375.962 370.955C375.59 369.962 375.026 369.178 374.268 368.602C373.518 368.019 372.575 367.727 371.439 367.727C370.348 367.727 369.431 368.004 368.689 368.557C367.946 369.102 367.386 369.867 367.007 370.852C366.628 371.83 366.439 372.97 366.439 374.273ZM390.632 383.364C388.95 383.364 387.5 382.992 386.28 382.25C385.068 381.5 384.132 380.455 383.473 379.114C382.821 377.765 382.496 376.197 382.496 374.409C382.496 372.621 382.821 371.045 383.473 369.682C384.132 368.311 385.049 367.242 386.223 366.477C387.405 365.705 388.784 365.318 390.359 365.318C391.268 365.318 392.166 365.47 393.053 365.773C393.939 366.076 394.746 366.568 395.473 367.25C396.2 367.924 396.78 368.818 397.212 369.932C397.643 371.045 397.859 372.417 397.859 374.045V375.182H384.405V372.864H395.132C395.132 371.879 394.935 371 394.541 370.227C394.155 369.455 393.602 368.845 392.882 368.398C392.17 367.951 391.329 367.727 390.359 367.727C389.291 367.727 388.367 367.992 387.587 368.523C386.814 369.045 386.219 369.727 385.803 370.568C385.386 371.409 385.178 372.311 385.178 373.273V374.818C385.178 376.136 385.405 377.254 385.859 378.17C386.321 379.08 386.962 379.773 387.78 380.25C388.598 380.72 389.549 380.955 390.632 380.955C391.337 380.955 391.973 380.856 392.541 380.659C393.117 380.455 393.613 380.152 394.03 379.75C394.446 379.341 394.768 378.833 394.996 378.227L397.587 378.955C397.314 379.833 396.856 380.606 396.212 381.273C395.568 381.932 394.772 382.447 393.825 382.818C392.878 383.182 391.814 383.364 390.632 383.364ZM401.939 383V365.545H404.53V368.182H404.712C405.03 367.318 405.606 366.617 406.439 366.08C407.272 365.542 408.212 365.273 409.257 365.273C409.454 365.273 409.7 365.277 409.996 365.284C410.291 365.292 410.515 365.303 410.666 365.318V368.045C410.575 368.023 410.367 367.989 410.041 367.943C409.723 367.89 409.386 367.864 409.03 367.864C408.181 367.864 407.424 368.042 406.757 368.398C406.098 368.746 405.575 369.231 405.189 369.852C404.81 370.466 404.621 371.167 404.621 371.955V383H401.939ZM422.845 383V365.545H425.527V383H422.845ZM424.209 362.636C423.686 362.636 423.235 362.458 422.857 362.102C422.485 361.746 422.3 361.318 422.3 360.818C422.3 360.318 422.485 359.89 422.857 359.534C423.235 359.178 423.686 359 424.209 359C424.732 359 425.179 359.178 425.55 359.534C425.929 359.89 426.118 360.318 426.118 360.818C426.118 361.318 425.929 361.746 425.55 362.102C425.179 362.458 424.732 362.636 424.209 362.636ZM442.803 369.455L440.393 370.136C440.242 369.735 440.018 369.345 439.723 368.966C439.435 368.58 439.041 368.261 438.541 368.011C438.041 367.761 437.401 367.636 436.621 367.636C435.553 367.636 434.662 367.883 433.95 368.375C433.246 368.86 432.893 369.477 432.893 370.227C432.893 370.894 433.136 371.42 433.621 371.807C434.106 372.193 434.863 372.515 435.893 372.773L438.484 373.409C440.045 373.788 441.208 374.367 441.973 375.148C442.738 375.92 443.121 376.917 443.121 378.136C443.121 379.136 442.833 380.03 442.257 380.818C441.689 381.606 440.893 382.227 439.871 382.682C438.848 383.136 437.659 383.364 436.303 383.364C434.522 383.364 433.049 382.977 431.882 382.205C430.715 381.432 429.977 380.303 429.666 378.818L432.212 378.182C432.454 379.121 432.912 379.826 433.587 380.295C434.268 380.765 435.159 381 436.257 381C437.507 381 438.5 380.735 439.234 380.205C439.977 379.667 440.348 379.023 440.348 378.273C440.348 377.667 440.136 377.159 439.712 376.75C439.287 376.333 438.636 376.023 437.757 375.818L434.848 375.136C433.25 374.758 432.075 374.17 431.325 373.375C430.583 372.572 430.212 371.568 430.212 370.364C430.212 369.379 430.488 368.508 431.041 367.75C431.602 366.992 432.363 366.398 433.325 365.966C434.295 365.534 435.393 365.318 436.621 365.318C438.348 365.318 439.704 365.697 440.689 366.455C441.681 367.212 442.386 368.212 442.803 369.455ZM464.294 359.727V383H461.476V362.682H461.339L455.658 366.455V363.591L461.476 359.727H464.294ZM478.396 359.409C479.351 359.417 480.305 359.598 481.26 359.955C482.214 360.311 483.086 360.902 483.874 361.727C484.661 362.545 485.294 363.663 485.771 365.08C486.249 366.496 486.487 368.273 486.487 370.409C486.487 372.477 486.29 374.314 485.896 375.92C485.51 377.519 484.949 378.867 484.214 379.966C483.487 381.064 482.601 381.898 481.555 382.466C480.518 383.034 479.343 383.318 478.033 383.318C476.73 383.318 475.567 383.061 474.544 382.545C473.529 382.023 472.696 381.299 472.044 380.375C471.4 379.443 470.987 378.364 470.805 377.136H473.578C473.828 378.205 474.324 379.087 475.067 379.784C475.817 380.473 476.805 380.818 478.033 380.818C479.828 380.818 481.245 380.034 482.283 378.466C483.328 376.898 483.851 374.682 483.851 371.818H483.669C483.245 372.455 482.741 373.004 482.158 373.466C481.574 373.928 480.927 374.284 480.214 374.534C479.502 374.784 478.745 374.909 477.942 374.909C476.608 374.909 475.385 374.58 474.271 373.92C473.165 373.254 472.279 372.341 471.612 371.182C470.953 370.015 470.624 368.682 470.624 367.182C470.624 365.758 470.942 364.455 471.578 363.273C472.222 362.083 473.124 361.136 474.283 360.432C475.449 359.727 476.821 359.386 478.396 359.409ZM478.396 361.909C477.442 361.909 476.582 362.148 475.817 362.625C475.059 363.095 474.457 363.731 474.01 364.534C473.571 365.33 473.351 366.212 473.351 367.182C473.351 368.152 473.563 369.034 473.987 369.83C474.419 370.617 475.006 371.246 475.749 371.716C476.499 372.178 477.351 372.409 478.305 372.409C479.025 372.409 479.696 372.269 480.317 371.989C480.938 371.701 481.48 371.311 481.942 370.818C482.411 370.318 482.779 369.754 483.044 369.125C483.309 368.489 483.442 367.826 483.442 367.136C483.442 366.227 483.222 365.375 482.783 364.58C482.351 363.784 481.752 363.14 480.987 362.648C480.23 362.155 479.366 361.909 478.396 361.909Z" fill="white"/>
<path d="M216.743 24.2756C216.63 23.1297 216.142 22.2396 215.28 21.6051C214.418 20.9706 213.249 20.6534 211.772 20.6534C210.768 20.6534 209.92 20.7955 209.229 21.0795C208.538 21.3542 208.007 21.7377 207.638 22.2301C207.278 22.7225 207.098 23.2812 207.098 23.9062C207.079 24.4271 207.188 24.8816 207.425 25.2699C207.671 25.6581 208.007 25.9943 208.434 26.2784C208.86 26.553 209.352 26.7945 209.911 27.0028C210.47 27.2017 211.066 27.3722 211.701 27.5142L214.314 28.1392C215.583 28.4233 216.748 28.8021 217.809 29.2756C218.869 29.7491 219.788 30.3314 220.564 31.0227C221.341 31.714 221.942 32.5284 222.368 33.4659C222.804 34.4034 223.026 35.4782 223.036 36.6903C223.026 38.4706 222.572 40.0142 221.672 41.321C220.782 42.6184 219.494 43.6269 217.809 44.3466C216.132 45.0568 214.111 45.4119 211.743 45.4119C209.395 45.4119 207.349 45.0521 205.607 44.3324C203.874 43.6127 202.52 42.5473 201.544 41.1364C200.578 39.7159 200.072 37.9593 200.025 35.8665H205.976C206.042 36.8419 206.322 37.6562 206.814 38.3097C207.316 38.9536 207.984 39.4413 208.817 39.7727C209.66 40.0947 210.612 40.2557 211.672 40.2557C212.714 40.2557 213.618 40.1042 214.385 39.8011C215.162 39.4981 215.763 39.0767 216.189 38.5369C216.615 37.9972 216.828 37.3769 216.828 36.6761C216.828 36.0227 216.634 35.4735 216.246 35.0284C215.867 34.5833 215.309 34.2045 214.57 33.892C213.841 33.5795 212.946 33.2955 211.885 33.0398L208.718 32.2443C206.265 31.6477 204.328 30.715 202.908 29.446C201.488 28.1771 200.782 26.4678 200.792 24.3182C200.782 22.5568 201.251 21.018 202.198 19.7017C203.154 18.3854 204.466 17.358 206.132 16.6193C207.799 15.8807 209.693 15.5114 211.814 15.5114C213.973 15.5114 215.858 15.8807 217.468 16.6193C219.087 17.358 220.346 18.3854 221.246 19.7017C222.146 21.018 222.61 22.5426 222.638 24.2756H216.743ZM237.002 45.4261C234.758 45.4261 232.826 44.9716 231.207 44.0625C229.597 43.1439 228.357 41.8466 227.485 40.1705C226.614 38.4848 226.179 36.4915 226.179 34.1903C226.179 31.946 226.614 29.9763 227.485 28.2812C228.357 26.5862 229.583 25.2652 231.164 24.3182C232.755 23.3712 234.621 22.8977 236.761 22.8977C238.2 22.8977 239.54 23.1297 240.781 23.5938C242.031 24.0483 243.12 24.7348 244.048 25.6534C244.985 26.572 245.715 27.7273 246.235 29.1193C246.756 30.5019 247.017 32.1212 247.017 33.9773V35.6392H228.593V31.8892H241.321C241.321 31.018 241.131 30.2462 240.752 29.5739C240.374 28.9015 239.848 28.3759 239.176 27.9972C238.513 27.6089 237.741 27.4148 236.86 27.4148C235.942 27.4148 235.127 27.6278 234.417 28.054C233.717 28.4706 233.167 29.0341 232.77 29.7443C232.372 30.4451 232.168 31.2263 232.159 32.0881V35.6534C232.159 36.733 232.358 37.6657 232.755 38.4517C233.163 39.2377 233.735 39.8438 234.474 40.2699C235.213 40.696 236.089 40.9091 237.102 40.9091C237.774 40.9091 238.39 40.8144 238.949 40.625C239.507 40.4356 239.985 40.1515 240.383 39.7727C240.781 39.3939 241.084 38.9299 241.292 38.3807L246.889 38.75C246.605 40.0947 246.022 41.2689 245.142 42.2727C244.27 43.267 243.144 44.0436 241.761 44.6023C240.388 45.1515 238.802 45.4261 237.002 45.4261ZM260.824 45.4261C258.589 45.4261 256.666 44.9527 255.056 44.0057C253.456 43.0492 252.225 41.7235 251.363 40.0284C250.511 38.3333 250.085 36.3826 250.085 34.1761C250.085 31.9413 250.516 29.9811 251.377 28.2955C252.249 26.6004 253.484 25.2794 255.085 24.3324C256.685 23.3759 258.589 22.8977 260.795 22.8977C262.699 22.8977 264.365 23.2434 265.795 23.9347C267.225 24.6259 268.357 25.5966 269.19 26.8466C270.023 28.0966 270.483 29.5644 270.568 31.25H264.858C264.697 30.161 264.27 29.285 263.579 28.6222C262.897 27.9498 262.002 27.6136 260.895 27.6136C259.957 27.6136 259.138 27.8693 258.437 28.3807C257.746 28.8826 257.206 29.6165 256.818 30.5824C256.43 31.5483 256.235 32.7178 256.235 34.0909C256.235 35.483 256.425 36.6667 256.804 37.642C257.192 38.6174 257.736 39.3608 258.437 39.8722C259.138 40.3835 259.957 40.6392 260.895 40.6392C261.586 40.6392 262.206 40.4972 262.755 40.2131C263.314 39.929 263.773 39.517 264.133 38.9773C264.502 38.428 264.744 37.7699 264.858 37.0028H270.568C270.473 38.6695 270.019 40.1373 269.204 41.4062C268.399 42.6657 267.287 43.6506 265.866 44.3608C264.446 45.071 262.765 45.4261 260.824 45.4261ZM284.3 45.4261C282.094 45.4261 280.185 44.9574 278.576 44.0199C276.975 43.0729 275.739 41.7566 274.868 40.071C273.997 38.3759 273.561 36.411 273.561 34.1761C273.561 31.9223 273.997 29.9527 274.868 28.267C275.739 26.572 276.975 25.2557 278.576 24.3182C280.185 23.3712 282.094 22.8977 284.3 22.8977C286.507 22.8977 288.41 23.3712 290.01 24.3182C291.62 25.2557 292.861 26.572 293.732 28.267C294.603 29.9527 295.039 31.9223 295.039 34.1761C295.039 36.411 294.603 38.3759 293.732 40.071C292.861 41.7566 291.62 43.0729 290.01 44.0199C288.41 44.9574 286.507 45.4261 284.3 45.4261ZM284.328 40.7386C285.332 40.7386 286.17 40.4545 286.843 39.8864C287.515 39.3087 288.022 38.5227 288.363 37.5284C288.713 36.5341 288.888 35.4025 288.888 34.1335C288.888 32.8646 288.713 31.733 288.363 30.7386C288.022 29.7443 287.515 28.9583 286.843 28.3807C286.17 27.803 285.332 27.5142 284.328 27.5142C283.315 27.5142 282.463 27.803 281.772 28.3807C281.09 28.9583 280.574 29.7443 280.223 30.7386C279.882 31.733 279.712 32.8646 279.712 34.1335C279.712 35.4025 279.882 36.5341 280.223 37.5284C280.574 38.5227 281.09 39.3087 281.772 39.8864C282.463 40.4545 283.315 40.7386 284.328 40.7386ZM305.025 32.3864V45H298.973V23.1818H304.74V27.0312H304.996C305.479 25.7623 306.289 24.7585 307.425 24.0199C308.561 23.2718 309.939 22.8977 311.559 22.8977C313.074 22.8977 314.395 23.2292 315.522 23.892C316.649 24.5549 317.525 25.5019 318.15 26.733C318.775 27.9545 319.087 29.4129 319.087 31.108V45H313.036V32.1875C313.045 30.8523 312.704 29.8106 312.013 29.0625C311.322 28.3049 310.37 27.9261 309.158 27.9261C308.344 27.9261 307.624 28.1013 306.999 28.4517C306.383 28.8021 305.9 29.3134 305.55 29.9858C305.209 30.6487 305.034 31.4489 305.025 32.3864ZM331.896 45.3551C330.239 45.3551 328.738 44.929 327.393 44.0767C326.058 43.215 324.997 41.9508 324.211 40.2841C323.435 38.608 323.047 36.553 323.047 34.1193C323.047 31.6193 323.449 29.5407 324.254 27.8835C325.059 26.2169 326.129 24.9716 327.464 24.1477C328.809 23.3144 330.281 22.8977 331.882 22.8977C333.103 22.8977 334.121 23.1061 334.936 23.5227C335.76 23.9299 336.422 24.4413 336.924 25.0568C337.436 25.6629 337.824 26.2595 338.089 26.8466H338.274V15.9091H344.311V45H338.345V41.5057H338.089C337.805 42.1117 337.403 42.7131 336.882 43.3097C336.37 43.8968 335.703 44.3845 334.879 44.7727C334.065 45.161 333.07 45.3551 331.896 45.3551ZM333.814 40.5398C334.789 40.5398 335.613 40.2746 336.285 39.7443C336.967 39.2045 337.488 38.4517 337.848 37.4858C338.217 36.5199 338.402 35.3883 338.402 34.0909C338.402 32.7936 338.222 31.6667 337.862 30.7102C337.502 29.7538 336.981 29.0152 336.299 28.4943C335.618 27.9735 334.789 27.7131 333.814 27.7131C332.819 27.7131 331.981 27.983 331.299 28.5227C330.618 29.0625 330.101 29.8106 329.751 30.767C329.401 31.7235 329.225 32.8314 329.225 34.0909C329.225 35.3598 329.401 36.482 329.751 37.4574C330.111 38.4233 330.627 39.1809 331.299 39.7301C331.981 40.2699 332.819 40.5398 333.814 40.5398ZM358.657 45V15.9091H370.135C372.341 15.9091 374.221 16.3305 375.774 17.1733C377.327 18.0066 378.511 19.1667 379.325 20.6534C380.149 22.1307 380.561 23.8352 380.561 25.767C380.561 27.6989 380.144 29.4034 379.311 30.8807C378.477 32.358 377.27 33.5085 375.689 34.3324C374.117 35.1562 372.213 35.5682 369.978 35.5682H362.663V30.6392H368.984C370.168 30.6392 371.143 30.4356 371.91 30.0284C372.687 29.6117 373.264 29.0388 373.643 28.3097C374.031 27.571 374.225 26.7235 374.225 25.767C374.225 24.8011 374.031 23.9583 373.643 23.2386C373.264 22.5095 372.687 21.946 371.91 21.5483C371.134 21.1411 370.149 20.9375 368.956 20.9375H364.808V45H358.657ZM390.078 45.4119C388.686 45.4119 387.445 45.1705 386.356 44.6875C385.267 44.1951 384.405 43.4706 383.771 42.5142C383.146 41.5483 382.833 40.3456 382.833 38.9062C382.833 37.6941 383.056 36.6761 383.501 35.8523C383.946 35.0284 384.552 34.3655 385.319 33.8636C386.086 33.3617 386.958 32.983 387.933 32.7273C388.918 32.4716 389.95 32.2917 391.029 32.1875C392.298 32.0549 393.321 31.9318 394.098 31.8182C394.874 31.6951 395.438 31.5152 395.788 31.2784C396.138 31.0417 396.314 30.6913 396.314 30.2273V30.142C396.314 29.2424 396.029 28.5464 395.461 28.054C394.903 27.5616 394.107 27.3153 393.075 27.3153C391.986 27.3153 391.119 27.5568 390.475 28.0398C389.832 28.5133 389.405 29.1098 389.197 29.8295L383.6 29.375C383.885 28.0492 384.443 26.9034 385.277 25.9375C386.11 24.9621 387.185 24.214 388.501 23.6932C389.827 23.1629 391.361 22.8977 393.103 22.8977C394.315 22.8977 395.475 23.0398 396.583 23.3239C397.701 23.608 398.69 24.0483 399.552 24.6449C400.423 25.2415 401.11 26.0085 401.612 26.946C402.114 27.8741 402.365 28.9867 402.365 30.2841V45H396.626V41.9744H396.456C396.105 42.6562 395.636 43.2576 395.049 43.7784C394.462 44.2898 393.757 44.6922 392.933 44.9858C392.109 45.2699 391.157 45.4119 390.078 45.4119ZM391.811 41.2358C392.701 41.2358 393.487 41.0606 394.169 40.7102C394.85 40.3504 395.386 39.8674 395.774 39.2614C396.162 38.6553 396.356 37.9687 396.356 37.2017V34.8864C396.167 35.0095 395.906 35.1231 395.575 35.2273C395.253 35.322 394.888 35.4119 394.481 35.4972C394.074 35.5729 393.667 35.6439 393.26 35.7102C392.852 35.767 392.483 35.8191 392.152 35.8665C391.441 35.9706 390.821 36.1364 390.291 36.3636C389.761 36.5909 389.349 36.8987 389.055 37.2869C388.761 37.6657 388.615 38.1392 388.615 38.7074C388.615 39.5312 388.913 40.161 389.51 40.5966C390.116 41.0227 390.883 41.2358 391.811 41.2358ZM425.213 29.4034L419.673 29.7443C419.578 29.2708 419.375 28.8447 419.062 28.4659C418.75 28.0777 418.338 27.7699 417.826 27.5426C417.324 27.3059 416.723 27.1875 416.022 27.1875C415.085 27.1875 414.294 27.3864 413.65 27.7841C413.006 28.1723 412.684 28.6932 412.684 29.3466C412.684 29.8674 412.893 30.3078 413.309 30.6676C413.726 31.0275 414.441 31.3163 415.454 31.5341L419.403 32.3295C421.524 32.7652 423.106 33.4659 424.147 34.4318C425.189 35.3977 425.71 36.6667 425.71 38.2386C425.71 39.6686 425.288 40.9233 424.446 42.0028C423.612 43.0824 422.467 43.9252 421.008 44.5312C419.559 45.1278 417.888 45.4261 415.994 45.4261C413.106 45.4261 410.805 44.8248 409.091 43.6222C407.386 42.41 406.387 40.7623 406.093 38.679L412.045 38.3665C412.225 39.2472 412.661 39.9195 413.352 40.3835C414.043 40.8381 414.929 41.0653 416.008 41.0653C417.069 41.0653 417.921 40.8617 418.565 40.4545C419.218 40.0379 419.55 39.5028 419.559 38.8494C419.55 38.3002 419.318 37.8504 418.863 37.5C418.409 37.1402 417.708 36.8655 416.761 36.6761L412.983 35.9233C410.852 35.4972 409.266 34.7585 408.224 33.7074C407.192 32.6562 406.676 31.3163 406.676 29.6875C406.676 28.286 407.055 27.0786 407.812 26.0653C408.579 25.0521 409.654 24.2708 411.037 23.7216C412.429 23.1723 414.057 22.8977 415.923 22.8977C418.679 22.8977 420.847 23.4801 422.429 24.6449C424.02 25.8097 424.948 27.3958 425.213 29.4034ZM447.674 29.4034L442.134 29.7443C442.039 29.2708 441.836 28.8447 441.523 28.4659C441.211 28.0777 440.799 27.7699 440.287 27.5426C439.785 27.3059 439.184 27.1875 438.483 27.1875C437.546 27.1875 436.755 27.3864 436.111 27.7841C435.467 28.1723 435.145 28.6932 435.145 29.3466C435.145 29.8674 435.354 30.3078 435.77 30.6676C436.187 31.0275 436.902 31.3163 437.915 31.5341L441.864 32.3295C443.985 32.7652 445.567 33.4659 446.608 34.4318C447.65 35.3977 448.171 36.6667 448.171 38.2386C448.171 39.6686 447.749 40.9233 446.907 42.0028C446.073 43.0824 444.927 43.9252 443.469 44.5312C442.02 45.1278 440.349 45.4261 438.455 45.4261C435.567 45.4261 433.266 44.8248 431.551 43.6222C429.847 42.41 428.848 40.7623 428.554 38.679L434.506 38.3665C434.686 39.2472 435.122 39.9195 435.813 40.3835C436.504 40.8381 437.39 41.0653 438.469 41.0653C439.53 41.0653 440.382 40.8617 441.026 40.4545C441.679 40.0379 442.011 39.5028 442.02 38.8494C442.011 38.3002 441.779 37.8504 441.324 37.5C440.87 37.1402 440.169 36.8655 439.222 36.6761L435.444 35.9233C433.313 35.4972 431.727 34.7585 430.685 33.7074C429.653 32.6562 429.137 31.3163 429.137 29.6875C429.137 28.286 429.516 27.0786 430.273 26.0653C431.04 25.0521 432.115 24.2708 433.498 23.7216C434.89 23.1723 436.518 22.8977 438.384 22.8977C441.14 22.8977 443.308 23.4801 444.89 24.6449C446.48 25.8097 447.408 27.3958 447.674 29.4034Z" fill="white"/>
<path d="M432.497 200.398C430.622 200.398 428.951 200.076 427.483 199.432C426.025 198.788 424.865 197.893 424.003 196.747C423.151 195.592 422.687 194.252 422.611 192.727H426.19C426.266 193.665 426.588 194.474 427.156 195.156C427.724 195.829 428.468 196.349 429.386 196.719C430.305 197.088 431.323 197.273 432.44 197.273C433.69 197.273 434.798 197.055 435.764 196.619C436.73 196.184 437.488 195.578 438.037 194.801C438.586 194.025 438.861 193.125 438.861 192.102C438.861 191.032 438.596 190.09 438.065 189.276C437.535 188.452 436.759 187.808 435.736 187.344C434.713 186.88 433.463 186.648 431.986 186.648H429.656V183.523H431.986C433.141 183.523 434.154 183.314 435.026 182.898C435.906 182.481 436.593 181.894 437.085 181.136C437.587 180.379 437.838 179.489 437.838 178.466C437.838 177.481 437.62 176.624 437.185 175.895C436.749 175.166 436.134 174.598 435.338 174.19C434.552 173.783 433.624 173.58 432.554 173.58C431.55 173.58 430.603 173.764 429.713 174.134C428.832 174.493 428.113 175.019 427.554 175.71C426.995 176.392 426.692 177.216 426.645 178.182H423.236C423.293 176.657 423.752 175.322 424.614 174.176C425.475 173.021 426.602 172.121 427.994 171.477C429.396 170.833 430.935 170.511 432.611 170.511C434.41 170.511 435.954 170.876 437.241 171.605C438.529 172.325 439.519 173.277 440.21 174.46C440.902 175.644 441.247 176.922 441.247 178.295C441.247 179.934 440.816 181.33 439.955 182.486C439.102 183.641 437.942 184.441 436.474 184.886V185.114C438.312 185.417 439.746 186.198 440.778 187.457C441.811 188.707 442.327 190.256 442.327 192.102C442.327 193.684 441.896 195.104 441.034 196.364C440.182 197.614 439.017 198.598 437.54 199.318C436.063 200.038 434.382 200.398 432.497 200.398ZM448.136 200V197.443L457.739 186.932C458.866 185.701 459.794 184.631 460.523 183.722C461.252 182.803 461.792 181.941 462.142 181.136C462.502 180.322 462.682 179.47 462.682 178.58C462.682 177.557 462.436 176.671 461.943 175.923C461.46 175.175 460.797 174.598 459.955 174.19C459.112 173.783 458.165 173.58 457.114 173.58C455.996 173.58 455.021 173.812 454.188 174.276C453.364 174.73 452.724 175.369 452.27 176.193C451.825 177.017 451.602 177.983 451.602 179.091H448.25C448.25 177.386 448.643 175.89 449.429 174.602C450.215 173.314 451.285 172.311 452.639 171.591C454.003 170.871 455.532 170.511 457.227 170.511C458.932 170.511 460.442 170.871 461.759 171.591C463.075 172.311 464.107 173.281 464.855 174.503C465.603 175.724 465.977 177.083 465.977 178.58C465.977 179.65 465.783 180.696 465.395 181.719C465.016 182.732 464.353 183.864 463.406 185.114C462.469 186.354 461.167 187.869 459.5 189.659L452.966 196.648V196.875H466.489V200H448.136Z" fill="white"/>
<path d="M432.497 650.398C430.622 650.398 428.951 650.076 427.483 649.432C426.025 648.788 424.865 647.893 424.003 646.747C423.151 645.592 422.687 644.252 422.611 642.727H426.19C426.266 643.665 426.588 644.474 427.156 645.156C427.724 645.829 428.468 646.349 429.386 646.719C430.305 647.088 431.323 647.273 432.44 647.273C433.69 647.273 434.798 647.055 435.764 646.619C436.73 646.184 437.488 645.578 438.037 644.801C438.586 644.025 438.861 643.125 438.861 642.102C438.861 641.032 438.596 640.09 438.065 639.276C437.535 638.452 436.759 637.808 435.736 637.344C434.713 636.88 433.463 636.648 431.986 636.648H429.656V633.523H431.986C433.141 633.523 434.154 633.314 435.026 632.898C435.906 632.481 436.593 631.894 437.085 631.136C437.587 630.379 437.838 629.489 437.838 628.466C437.838 627.481 437.62 626.624 437.185 625.895C436.749 625.166 436.134 624.598 435.338 624.19C434.552 623.783 433.624 623.58 432.554 623.58C431.55 623.58 430.603 623.764 429.713 624.134C428.832 624.493 428.113 625.019 427.554 625.71C426.995 626.392 426.692 627.216 426.645 628.182H423.236C423.293 626.657 423.752 625.322 424.614 624.176C425.475 623.021 426.602 622.121 427.994 621.477C429.396 620.833 430.935 620.511 432.611 620.511C434.41 620.511 435.954 620.876 437.241 621.605C438.529 622.325 439.519 623.277 440.21 624.46C440.902 625.644 441.247 626.922 441.247 628.295C441.247 629.934 440.816 631.33 439.955 632.486C439.102 633.641 437.942 634.441 436.474 634.886V635.114C438.312 635.417 439.746 636.198 440.778 637.457C441.811 638.707 442.327 640.256 442.327 642.102C442.327 643.684 441.896 645.104 441.034 646.364C440.182 647.614 439.017 648.598 437.54 649.318C436.063 650.038 434.382 650.398 432.497 650.398ZM448.136 650V647.443L457.739 636.932C458.866 635.701 459.794 634.631 460.523 633.722C461.252 632.803 461.792 631.941 462.142 631.136C462.502 630.322 462.682 629.47 462.682 628.58C462.682 627.557 462.436 626.671 461.943 625.923C461.46 625.175 460.797 624.598 459.955 624.19C459.112 623.783 458.165 623.58 457.114 623.58C455.996 623.58 455.021 623.812 454.188 624.276C453.364 624.73 452.724 625.369 452.27 626.193C451.825 627.017 451.602 627.983 451.602 629.091H448.25C448.25 627.386 448.643 625.89 449.429 624.602C450.215 623.314 451.285 622.311 452.639 621.591C454.003 620.871 455.532 620.511 457.227 620.511C458.932 620.511 460.442 620.871 461.759 621.591C463.075 622.311 464.107 623.281 464.855 624.503C465.603 625.724 465.977 627.083 465.977 628.58C465.977 629.65 465.783 630.696 465.395 631.719C465.016 632.732 464.353 633.864 463.406 635.114C462.469 636.354 461.167 637.869 459.5 639.659L452.966 646.648V646.875H466.489V650H448.136Z" fill="white"/>
<path d="M543.976 200V197.443L553.578 186.932C554.705 185.701 555.633 184.631 556.363 183.722C557.092 182.803 557.632 181.941 557.982 181.136C558.342 180.322 558.522 179.47 558.522 178.58C558.522 177.557 558.275 176.671 557.783 175.923C557.3 175.175 556.637 174.598 555.794 174.19C554.952 173.783 554.005 173.58 552.953 173.58C551.836 173.58 550.861 173.812 550.027 174.276C549.203 174.73 548.564 175.369 548.11 176.193C547.665 177.017 547.442 177.983 547.442 179.091H544.09C544.09 177.386 544.483 175.89 545.269 174.602C546.055 173.314 547.125 172.311 548.479 171.591C549.843 170.871 551.372 170.511 553.067 170.511C554.772 170.511 556.282 170.871 557.598 171.591C558.915 172.311 559.947 173.281 560.695 174.503C561.443 175.724 561.817 177.083 561.817 178.58C561.817 179.65 561.623 180.696 561.235 181.719C560.856 182.732 560.193 183.864 559.246 185.114C558.309 186.354 557.007 187.869 555.34 189.659L548.806 196.648V196.875H562.328V200H543.976ZM569.104 200L582.115 174.261V174.034H567.115V170.909H585.752V174.205L572.797 200H569.104Z" fill="white"/>
<path d="M543.976 650V647.443L553.578 636.932C554.705 635.701 555.633 634.631 556.363 633.722C557.092 632.803 557.632 631.941 557.982 631.136C558.342 630.322 558.522 629.47 558.522 628.58C558.522 627.557 558.275 626.671 557.783 625.923C557.3 625.175 556.637 624.598 555.794 624.19C554.952 623.783 554.005 623.58 552.953 623.58C551.836 623.58 550.861 623.812 550.027 624.276C549.203 624.73 548.564 625.369 548.11 626.193C547.665 627.017 547.442 627.983 547.442 629.091H544.09C544.09 627.386 544.483 625.89 545.269 624.602C546.055 623.314 547.125 622.311 548.479 621.591C549.843 620.871 551.372 620.511 553.067 620.511C554.772 620.511 556.282 620.871 557.598 621.591C558.915 622.311 559.947 623.281 560.695 624.503C561.443 625.724 561.817 627.083 561.817 628.58C561.817 629.65 561.623 630.696 561.235 631.719C560.856 632.732 560.193 633.864 559.246 635.114C558.309 636.354 557.007 637.869 555.34 639.659L548.806 646.648V646.875H562.328V650H543.976ZM569.104 650L582.115 624.261V624.034H567.115V620.909H585.752V624.205L572.797 650H569.104Z" fill="white"/>
<line x1="205" y1="278" x2="205" y2="316" stroke="white" stroke-width="2"/>
<line x1="324" y1="278" x2="324" y2="316" stroke="white" stroke-width="2"/>
<line x1="445" y1="278" x2="445" y2="316" stroke="white" stroke-width="2"/>
<line x1="565" y1="278" x2="565" y2="316" stroke="white" stroke-width="2"/>
<line x1="204" y1="317" x2="566" y2="317" stroke="white" stroke-width="2"/>
<path d="M321.939 520.061C322.525 520.646 323.475 520.646 324.061 520.061L333.607 510.515C334.192 509.929 334.192 508.979 333.607 508.393C333.021 507.808 332.071 507.808 331.485 508.393L323 516.879L314.515 508.393C313.929 507.808 312.979 507.808 312.393 508.393C311.808 508.979 311.808 509.929 312.393 510.515L321.939 520.061ZM323 434L321.5 434L321.5 519L323 519L324.5 519L324.5 434L323 434Z" fill="white"/>
</svg>
