<svg width="648" height="697" viewBox="0 0 648 697" fill="none" xmlns="http://www.w3.org/2000/svg">
<rect width="119" height="122" transform="matrix(-1 0 0 1 496 575)" fill="#009966"/>
<rect x="377" y="125" width="119" height="122" fill="#009966"/>
<rect x="16" y="576" width="599" height="120" rx="26" stroke="#DBDBDB" stroke-width="2"/>
<rect x="16" y="126" width="599" height="120" rx="26" stroke="#DBDBDB" stroke-width="2"/>
<line x1="136" y1="575" x2="136" y2="697" stroke="#DBDBDB" stroke-width="2"/>
<line x1="136" y1="125" x2="136" y2="247" stroke="#DBDBDB" stroke-width="2"/>
<line x1="256" y1="575" x2="256" y2="697" stroke="#DBDBDB" stroke-width="2"/>
<line x1="256" y1="125" x2="256" y2="247" stroke="#DBDBDB" stroke-width="2"/>
<line x1="377" y1="575" x2="377" y2="697" stroke="#DBDBDB" stroke-width="2"/>
<line x1="377" y1="125" x2="377" y2="247" stroke="#DBDBDB" stroke-width="2"/>
<line x1="497" y1="575" x2="497" y2="697" stroke="#DBDBDB" stroke-width="2"/>
<line x1="497" y1="125" x2="497" y2="247" stroke="#DBDBDB" stroke-width="2"/>
<path d="M66.3324 620.909V650H62.8097V624.602H62.6392L55.5369 629.318V625.739L62.8097 620.909H66.3324ZM74.6989 650V647.443L84.3011 636.932C85.428 635.701 86.3561 634.631 87.0852 633.722C87.8144 632.803 88.3542 631.941 88.7045 631.136C89.0644 630.322 89.2443 629.47 89.2443 628.58C89.2443 627.557 88.9981 626.671 88.5057 625.923C88.0227 625.175 87.3598 624.598 86.517 624.19C85.6742 623.783 84.7273 623.58 83.6761 623.58C82.5587 623.58 81.5833 623.812 80.75 624.276C79.9261 624.73 79.2869 625.369 78.8324 626.193C78.3873 627.017 78.1648 627.983 78.1648 629.091H74.8125C74.8125 627.386 75.2055 625.89 75.9915 624.602C76.7775 623.314 77.8475 622.311 79.2017 621.591C80.5653 620.871 82.0947 620.511 83.7898 620.511C85.4943 620.511 87.0047 620.871 88.321 621.591C89.6373 622.311 90.6695 623.281 91.4176 624.503C92.1657 625.724 92.5398 627.083 92.5398 628.58C92.5398 629.65 92.3456 630.696 91.9574 631.719C91.5786 632.732 90.9157 633.864 89.9688 635.114C89.0312 636.354 87.7292 637.869 86.0625 639.659L79.5284 646.648V646.875H93.0511V650H74.6989Z" fill="white"/>
<path d="M66.3324 170.909V200H62.8097V174.602H62.6392L55.5369 179.318V175.739L62.8097 170.909H66.3324ZM74.6989 200V197.443L84.3011 186.932C85.428 185.701 86.3561 184.631 87.0852 183.722C87.8144 182.803 88.3542 181.941 88.7045 181.136C89.0644 180.322 89.2443 179.47 89.2443 178.58C89.2443 177.557 88.9981 176.671 88.5057 175.923C88.0227 175.175 87.3598 174.598 86.517 174.19C85.6742 173.783 84.7273 173.58 83.6761 173.58C82.5587 173.58 81.5833 173.812 80.75 174.276C79.9261 174.73 79.2869 175.369 78.8324 176.193C78.3873 177.017 78.1648 177.983 78.1648 179.091H74.8125C74.8125 177.386 75.2055 175.89 75.9915 174.602C76.7775 173.314 77.8475 172.311 79.2017 171.591C80.5653 170.871 82.0947 170.511 83.7898 170.511C85.4943 170.511 87.0047 170.871 88.321 171.591C89.6373 172.311 90.6695 173.281 91.4176 174.503C92.1657 175.724 92.5398 177.083 92.5398 178.58C92.5398 179.65 92.3456 180.696 91.9574 181.719C91.5786 182.732 90.9157 183.864 89.9688 185.114C89.0312 186.354 87.7292 187.869 86.0625 189.659L79.5284 196.648V196.875H93.0511V200H74.6989Z" fill="white"/>
<path d="M185.961 620.909V650H182.439V624.602H182.268L175.166 629.318V625.739L182.439 620.909H185.961ZM203.589 620.511C204.782 620.521 205.975 620.748 207.169 621.193C208.362 621.638 209.451 622.377 210.436 623.409C211.421 624.432 212.211 625.829 212.808 627.599C213.404 629.37 213.703 631.591 213.703 634.261C213.703 636.847 213.457 639.143 212.964 641.151C212.481 643.149 211.78 644.834 210.862 646.207C209.953 647.58 208.845 648.622 207.538 649.332C206.241 650.043 204.773 650.398 203.135 650.398C201.506 650.398 200.052 650.076 198.774 649.432C197.505 648.778 196.463 647.874 195.649 646.719C194.844 645.554 194.328 644.205 194.1 642.67H197.566C197.879 644.006 198.499 645.109 199.427 645.98C200.365 646.842 201.6 647.273 203.135 647.273C205.379 647.273 207.15 646.293 208.447 644.332C209.754 642.372 210.407 639.602 210.407 636.023H210.18C209.65 636.818 209.02 637.505 208.291 638.082C207.562 638.66 206.752 639.105 205.862 639.418C204.972 639.73 204.025 639.886 203.021 639.886C201.354 639.886 199.825 639.474 198.433 638.651C197.05 637.817 195.942 636.676 195.109 635.227C194.285 633.769 193.873 632.102 193.873 630.227C193.873 628.447 194.271 626.818 195.066 625.341C195.871 623.854 196.998 622.67 198.447 621.79C199.905 620.909 201.619 620.483 203.589 620.511ZM203.589 623.636C202.396 623.636 201.321 623.935 200.365 624.531C199.418 625.118 198.665 625.914 198.106 626.918C197.557 627.912 197.282 629.015 197.282 630.227C197.282 631.439 197.547 632.543 198.078 633.537C198.618 634.522 199.351 635.308 200.279 635.895C201.217 636.473 202.282 636.761 203.475 636.761C204.375 636.761 205.213 636.586 205.99 636.236C206.766 635.876 207.443 635.388 208.021 634.773C208.608 634.148 209.067 633.442 209.399 632.656C209.73 631.861 209.896 631.032 209.896 630.17C209.896 629.034 209.621 627.969 209.072 626.974C208.532 625.98 207.784 625.175 206.828 624.56C205.881 623.944 204.801 623.636 203.589 623.636Z" fill="white"/>
<path d="M185.961 170.909V200H182.439V174.602H182.268L175.166 179.318V175.739L182.439 170.909H185.961ZM203.589 170.511C204.782 170.521 205.975 170.748 207.169 171.193C208.362 171.638 209.451 172.377 210.436 173.409C211.421 174.432 212.211 175.829 212.808 177.599C213.404 179.37 213.703 181.591 213.703 184.261C213.703 186.847 213.457 189.143 212.964 191.151C212.481 193.149 211.78 194.834 210.862 196.207C209.953 197.58 208.845 198.622 207.538 199.332C206.241 200.043 204.773 200.398 203.135 200.398C201.506 200.398 200.052 200.076 198.774 199.432C197.505 198.778 196.463 197.874 195.649 196.719C194.844 195.554 194.328 194.205 194.1 192.67H197.566C197.879 194.006 198.499 195.109 199.427 195.98C200.365 196.842 201.6 197.273 203.135 197.273C205.379 197.273 207.15 196.293 208.447 194.332C209.754 192.372 210.407 189.602 210.407 186.023H210.18C209.65 186.818 209.02 187.505 208.291 188.082C207.562 188.66 206.752 189.105 205.862 189.418C204.972 189.73 204.025 189.886 203.021 189.886C201.354 189.886 199.825 189.474 198.433 188.651C197.05 187.817 195.942 186.676 195.109 185.227C194.285 183.769 193.873 182.102 193.873 180.227C193.873 178.447 194.271 176.818 195.066 175.341C195.871 173.854 196.998 172.67 198.447 171.79C199.905 170.909 201.619 170.483 203.589 170.511ZM203.589 173.636C202.396 173.636 201.321 173.935 200.365 174.531C199.418 175.118 198.665 175.914 198.106 176.918C197.557 177.912 197.282 179.015 197.282 180.227C197.282 181.439 197.547 182.543 198.078 183.537C198.618 184.522 199.351 185.308 200.279 185.895C201.217 186.473 202.282 186.761 203.475 186.761C204.375 186.761 205.213 186.586 205.99 186.236C206.766 185.876 207.443 185.388 208.021 184.773C208.608 184.148 209.067 183.442 209.399 182.656C209.73 181.861 209.896 181.032 209.896 180.17C209.896 179.034 209.621 177.969 209.072 176.974C208.532 175.98 207.784 175.175 206.828 174.56C205.881 173.944 204.801 173.636 203.589 173.636Z" fill="white"/>
<path d="M293.976 650V647.443L303.578 636.932C304.705 635.701 305.633 634.631 306.363 633.722C307.092 632.803 307.632 631.941 307.982 631.136C308.342 630.322 308.522 629.47 308.522 628.58C308.522 627.557 308.275 626.671 307.783 625.923C307.3 625.175 306.637 624.598 305.794 624.19C304.952 623.783 304.005 623.58 302.953 623.58C301.836 623.58 300.861 623.812 300.027 624.276C299.203 624.73 298.564 625.369 298.11 626.193C297.665 627.017 297.442 627.983 297.442 629.091H294.09C294.09 627.386 294.483 625.89 295.269 624.602C296.055 623.314 297.125 622.311 298.479 621.591C299.843 620.871 301.372 620.511 303.067 620.511C304.772 620.511 306.282 620.871 307.598 621.591C308.915 622.311 309.947 623.281 310.695 624.503C311.443 625.724 311.817 627.083 311.817 628.58C311.817 629.65 311.623 630.696 311.235 631.719C310.856 632.732 310.193 633.864 309.246 635.114C308.309 636.354 307.007 637.869 305.34 639.659L298.806 646.648V646.875H312.328V650H293.976ZM319.104 650L332.115 624.261V624.034H317.115V620.909H335.752V624.205L322.797 650H319.104Z" fill="white"/>
<path d="M293.976 200V197.443L303.578 186.932C304.705 185.701 305.633 184.631 306.363 183.722C307.092 182.803 307.632 181.941 307.982 181.136C308.342 180.322 308.522 179.47 308.522 178.58C308.522 177.557 308.275 176.671 307.783 175.923C307.3 175.175 306.637 174.598 305.794 174.19C304.952 173.783 304.005 173.58 302.953 173.58C301.836 173.58 300.861 173.812 300.027 174.276C299.203 174.73 298.564 175.369 298.11 176.193C297.665 177.017 297.442 177.983 297.442 179.091H294.09C294.09 177.386 294.483 175.89 295.269 174.602C296.055 173.314 297.125 172.311 298.479 171.591C299.843 170.871 301.372 170.511 303.067 170.511C304.772 170.511 306.282 170.871 307.598 171.591C308.915 172.311 309.947 173.281 310.695 174.503C311.443 175.724 311.817 177.083 311.817 178.58C311.817 179.65 311.623 180.696 311.235 181.719C310.856 182.732 310.193 183.864 309.246 185.114C308.309 186.354 307.007 187.869 305.34 189.659L298.806 196.648V196.875H312.328V200H293.976ZM319.104 200L332.115 174.261V174.034H317.115V170.909H335.752V174.205L322.797 200H319.104Z" fill="white"/>
<path d="M163.545 365.545C163.409 364.394 162.856 363.5 161.886 362.864C160.917 362.227 159.727 361.909 158.318 361.909C157.288 361.909 156.386 362.076 155.614 362.409C154.848 362.742 154.25 363.201 153.818 363.784C153.394 364.367 153.182 365.03 153.182 365.773C153.182 366.394 153.33 366.928 153.625 367.375C153.928 367.814 154.314 368.182 154.784 368.477C155.254 368.765 155.746 369.004 156.261 369.193C156.777 369.375 157.25 369.523 157.682 369.636L160.045 370.273C160.652 370.432 161.326 370.652 162.068 370.932C162.818 371.212 163.534 371.595 164.216 372.08C164.905 372.557 165.473 373.17 165.92 373.92C166.367 374.67 166.591 375.591 166.591 376.682C166.591 377.939 166.261 379.076 165.602 380.091C164.951 381.106 163.996 381.913 162.739 382.511C161.489 383.11 159.97 383.409 158.182 383.409C156.515 383.409 155.072 383.14 153.852 382.602C152.64 382.064 151.686 381.314 150.989 380.352C150.299 379.39 149.909 378.273 149.818 377H152.727C152.803 377.879 153.098 378.606 153.614 379.182C154.136 379.75 154.795 380.174 155.591 380.455C156.394 380.727 157.258 380.864 158.182 380.864C159.258 380.864 160.223 380.689 161.08 380.341C161.936 379.985 162.614 379.492 163.114 378.864C163.614 378.227 163.864 377.485 163.864 376.636C163.864 375.864 163.648 375.235 163.216 374.75C162.784 374.265 162.216 373.871 161.511 373.568C160.807 373.265 160.045 373 159.227 372.773L156.364 371.955C154.545 371.432 153.106 370.686 152.045 369.716C150.985 368.746 150.455 367.477 150.455 365.909C150.455 364.606 150.807 363.47 151.511 362.5C152.223 361.523 153.178 360.765 154.375 360.227C155.58 359.682 156.924 359.409 158.409 359.409C159.909 359.409 161.242 359.678 162.409 360.216C163.576 360.746 164.5 361.473 165.182 362.398C165.871 363.322 166.235 364.371 166.273 365.545H163.545ZM170.861 383V365.545H173.452V368.273H173.679C174.043 367.341 174.63 366.617 175.44 366.102C176.251 365.58 177.224 365.318 178.361 365.318C179.512 365.318 180.471 365.58 181.236 366.102C182.009 366.617 182.611 367.341 183.043 368.273H183.224C183.671 367.371 184.342 366.655 185.236 366.125C186.13 365.587 187.202 365.318 188.452 365.318C190.012 365.318 191.289 365.807 192.281 366.784C193.274 367.754 193.77 369.265 193.77 371.318V383H191.088V371.318C191.088 370.03 190.736 369.11 190.031 368.557C189.327 368.004 188.497 367.727 187.543 367.727C186.315 367.727 185.365 368.098 184.69 368.841C184.016 369.576 183.679 370.508 183.679 371.636V383H180.952V371.045C180.952 370.053 180.63 369.254 179.986 368.648C179.342 368.034 178.512 367.727 177.497 367.727C176.8 367.727 176.149 367.913 175.543 368.284C174.944 368.655 174.459 369.17 174.088 369.83C173.724 370.481 173.543 371.235 173.543 372.091V383H170.861ZM203.81 383.409C202.704 383.409 201.7 383.201 200.798 382.784C199.897 382.36 199.181 381.75 198.651 380.955C198.12 380.152 197.855 379.182 197.855 378.045C197.855 377.045 198.052 376.235 198.446 375.614C198.84 374.985 199.366 374.492 200.026 374.136C200.685 373.78 201.412 373.515 202.207 373.341C203.01 373.159 203.817 373.015 204.628 372.909C205.688 372.773 206.548 372.67 207.207 372.602C207.874 372.527 208.359 372.402 208.662 372.227C208.973 372.053 209.128 371.75 209.128 371.318V371.227C209.128 370.106 208.821 369.235 208.207 368.614C207.601 367.992 206.681 367.682 205.446 367.682C204.166 367.682 203.162 367.962 202.435 368.523C201.707 369.083 201.196 369.682 200.901 370.318L198.355 369.409C198.81 368.348 199.416 367.523 200.173 366.932C200.938 366.333 201.772 365.917 202.673 365.682C203.582 365.439 204.476 365.318 205.355 365.318C205.916 365.318 206.56 365.386 207.287 365.523C208.022 365.652 208.73 365.92 209.412 366.33C210.101 366.739 210.673 367.356 211.128 368.182C211.582 369.008 211.81 370.114 211.81 371.5V383H209.128V380.636H208.991C208.81 381.015 208.507 381.42 208.082 381.852C207.658 382.284 207.094 382.652 206.389 382.955C205.685 383.258 204.825 383.409 203.81 383.409ZM204.219 381C205.279 381 206.173 380.792 206.901 380.375C207.635 379.958 208.188 379.42 208.56 378.761C208.938 378.102 209.128 377.409 209.128 376.682V374.227C209.014 374.364 208.764 374.489 208.378 374.602C207.999 374.708 207.56 374.803 207.06 374.886C206.567 374.962 206.086 375.03 205.616 375.091C205.154 375.144 204.779 375.189 204.491 375.227C203.795 375.318 203.143 375.466 202.537 375.67C201.938 375.867 201.454 376.167 201.082 376.568C200.719 376.962 200.537 377.5 200.537 378.182C200.537 379.114 200.882 379.818 201.571 380.295C202.268 380.765 203.151 381 204.219 381ZM219.386 359.727V383H216.705V359.727H219.386ZM226.98 359.727V383H224.298V359.727H226.98ZM239.21 383.364C237.528 383.364 236.078 382.992 234.858 382.25C233.646 381.5 232.71 380.455 232.051 379.114C231.4 377.765 231.074 376.197 231.074 374.409C231.074 372.621 231.4 371.045 232.051 369.682C232.71 368.311 233.627 367.242 234.801 366.477C235.983 365.705 237.362 365.318 238.938 365.318C239.847 365.318 240.744 365.47 241.631 365.773C242.517 366.076 243.324 366.568 244.051 367.25C244.778 367.924 245.358 368.818 245.79 369.932C246.222 371.045 246.438 372.417 246.438 374.045V375.182H232.983V372.864H243.71C243.71 371.879 243.513 371 243.119 370.227C242.733 369.455 242.18 368.845 241.46 368.398C240.748 367.951 239.907 367.727 238.938 367.727C237.869 367.727 236.945 367.992 236.165 368.523C235.392 369.045 234.797 369.727 234.381 370.568C233.964 371.409 233.756 372.311 233.756 373.273V374.818C233.756 376.136 233.983 377.254 234.438 378.17C234.9 379.08 235.54 379.773 236.358 380.25C237.176 380.72 238.127 380.955 239.21 380.955C239.915 380.955 240.551 380.856 241.119 380.659C241.695 380.455 242.191 380.152 242.608 379.75C243.025 379.341 243.347 378.833 243.574 378.227L246.165 378.955C245.892 379.833 245.434 380.606 244.79 381.273C244.146 381.932 243.35 382.447 242.403 382.818C241.456 383.182 240.392 383.364 239.21 383.364ZM262.881 369.455L260.472 370.136C260.32 369.735 260.097 369.345 259.801 368.966C259.513 368.58 259.119 368.261 258.619 368.011C258.119 367.761 257.479 367.636 256.699 367.636C255.631 367.636 254.741 367.883 254.028 368.375C253.324 368.86 252.972 369.477 252.972 370.227C252.972 370.894 253.214 371.42 253.699 371.807C254.184 372.193 254.941 372.515 255.972 372.773L258.562 373.409C260.123 373.788 261.286 374.367 262.051 375.148C262.816 375.92 263.199 376.917 263.199 378.136C263.199 379.136 262.911 380.03 262.335 380.818C261.767 381.606 260.972 382.227 259.949 382.682C258.926 383.136 257.737 383.364 256.381 383.364C254.6 383.364 253.127 382.977 251.96 382.205C250.794 381.432 250.055 380.303 249.744 378.818L252.29 378.182C252.532 379.121 252.991 379.826 253.665 380.295C254.347 380.765 255.237 381 256.335 381C257.585 381 258.578 380.735 259.312 380.205C260.055 379.667 260.426 379.023 260.426 378.273C260.426 377.667 260.214 377.159 259.79 376.75C259.366 376.333 258.714 376.023 257.835 375.818L254.926 375.136C253.328 374.758 252.153 374.17 251.403 373.375C250.661 372.572 250.29 371.568 250.29 370.364C250.29 369.379 250.566 368.508 251.119 367.75C251.68 366.992 252.441 366.398 253.403 365.966C254.373 365.534 255.472 365.318 256.699 365.318C258.426 365.318 259.782 365.697 260.767 366.455C261.759 367.212 262.464 368.212 262.881 369.455ZM274.827 365.545V367.818H265.781V365.545H274.827ZM268.418 361.364H271.099V378C271.099 378.758 271.209 379.326 271.429 379.705C271.656 380.076 271.944 380.326 272.293 380.455C272.649 380.576 273.024 380.636 273.418 380.636C273.713 380.636 273.955 380.621 274.145 380.591C274.334 380.553 274.486 380.523 274.599 380.5L275.145 382.909C274.963 382.977 274.709 383.045 274.384 383.114C274.058 383.189 273.645 383.227 273.145 383.227C272.387 383.227 271.645 383.064 270.918 382.739C270.198 382.413 269.599 381.917 269.122 381.25C268.652 380.583 268.418 379.742 268.418 378.727V361.364ZM290.543 372.5V383H287.861V365.545H290.452V368.273H290.679C291.088 367.386 291.709 366.674 292.543 366.136C293.376 365.591 294.452 365.318 295.77 365.318C296.952 365.318 297.986 365.561 298.872 366.045C299.759 366.523 300.448 367.25 300.94 368.227C301.433 369.197 301.679 370.424 301.679 371.909V383H298.997V372.091C298.997 370.72 298.641 369.652 297.929 368.886C297.217 368.114 296.24 367.727 294.997 367.727C294.141 367.727 293.376 367.913 292.702 368.284C292.035 368.655 291.509 369.197 291.122 369.909C290.736 370.621 290.543 371.485 290.543 372.5ZM317.58 375.864V365.545H320.261V383H317.58V380.045H317.398C316.989 380.932 316.352 381.686 315.489 382.307C314.625 382.92 313.534 383.227 312.216 383.227C311.125 383.227 310.155 382.989 309.307 382.511C308.458 382.027 307.792 381.299 307.307 380.33C306.822 379.352 306.58 378.121 306.58 376.636V365.545H309.261V376.455C309.261 377.727 309.617 378.742 310.33 379.5C311.049 380.258 311.966 380.636 313.08 380.636C313.746 380.636 314.424 380.466 315.114 380.125C315.811 379.784 316.394 379.261 316.864 378.557C317.341 377.852 317.58 376.955 317.58 375.864ZM325.173 383V365.545H327.764V368.273H327.991C328.355 367.341 328.942 366.617 329.753 366.102C330.563 365.58 331.537 365.318 332.673 365.318C333.825 365.318 334.783 365.58 335.548 366.102C336.321 366.617 336.923 367.341 337.355 368.273H337.537C337.984 367.371 338.654 366.655 339.548 366.125C340.442 365.587 341.514 365.318 342.764 365.318C344.325 365.318 345.601 365.807 346.594 366.784C347.586 367.754 348.082 369.265 348.082 371.318V383H345.401V371.318C345.401 370.03 345.048 369.11 344.344 368.557C343.639 368.004 342.81 367.727 341.855 367.727C340.628 367.727 339.677 368.098 339.003 368.841C338.329 369.576 337.991 370.508 337.991 371.636V383H335.264V371.045C335.264 370.053 334.942 369.254 334.298 368.648C333.654 368.034 332.825 367.727 331.81 367.727C331.113 367.727 330.461 367.913 329.855 368.284C329.257 368.655 328.772 369.17 328.401 369.83C328.037 370.481 327.855 371.235 327.855 372.091V383H325.173ZM353.349 383V359.727H356.031V368.318H356.259C356.455 368.015 356.728 367.629 357.077 367.159C357.433 366.682 357.94 366.258 358.599 365.886C359.266 365.508 360.168 365.318 361.304 365.318C362.774 365.318 364.069 365.686 365.19 366.42C366.312 367.155 367.187 368.197 367.815 369.545C368.444 370.894 368.759 372.485 368.759 374.318C368.759 376.167 368.444 377.769 367.815 379.125C367.187 380.473 366.315 381.519 365.202 382.261C364.088 382.996 362.804 383.364 361.349 383.364C360.228 383.364 359.33 383.178 358.656 382.807C357.982 382.428 357.463 382 357.099 381.523C356.736 381.038 356.455 380.636 356.259 380.318H355.94V383H353.349ZM355.986 374.273C355.986 375.591 356.179 376.754 356.565 377.761C356.952 378.761 357.516 379.545 358.259 380.114C359.001 380.674 359.91 380.955 360.986 380.955C362.107 380.955 363.043 380.659 363.793 380.068C364.55 379.47 365.118 378.667 365.497 377.659C365.884 376.644 366.077 375.515 366.077 374.273C366.077 373.045 365.887 371.939 365.509 370.955C365.137 369.962 364.573 369.178 363.815 368.602C363.065 368.019 362.122 367.727 360.986 367.727C359.895 367.727 358.978 368.004 358.236 368.557C357.493 369.102 356.933 369.867 356.554 370.852C356.175 371.83 355.986 372.97 355.986 374.273ZM380.179 383.364C378.497 383.364 377.046 382.992 375.827 382.25C374.615 381.5 373.679 380.455 373.02 379.114C372.368 377.765 372.043 376.197 372.043 374.409C372.043 372.621 372.368 371.045 373.02 369.682C373.679 368.311 374.596 367.242 375.77 366.477C376.952 365.705 378.33 365.318 379.906 365.318C380.815 365.318 381.713 365.47 382.599 365.773C383.486 366.076 384.293 366.568 385.02 367.25C385.747 367.924 386.327 368.818 386.759 369.932C387.19 371.045 387.406 372.417 387.406 374.045V375.182H373.952V372.864H384.679C384.679 371.879 384.482 371 384.088 370.227C383.702 369.455 383.149 368.845 382.429 368.398C381.717 367.951 380.876 367.727 379.906 367.727C378.838 367.727 377.914 367.992 377.134 368.523C376.361 369.045 375.766 369.727 375.349 370.568C374.933 371.409 374.724 372.311 374.724 373.273V374.818C374.724 376.136 374.952 377.254 375.406 378.17C375.868 379.08 376.509 379.773 377.327 380.25C378.145 380.72 379.096 380.955 380.179 380.955C380.884 380.955 381.52 380.856 382.088 380.659C382.664 380.455 383.16 380.152 383.577 379.75C383.993 379.341 384.315 378.833 384.543 378.227L387.134 378.955C386.861 379.833 386.402 380.606 385.759 381.273C385.115 381.932 384.319 382.447 383.372 382.818C382.425 383.182 381.361 383.364 380.179 383.364ZM391.486 383V365.545H394.077V368.182H394.259C394.577 367.318 395.152 366.617 395.986 366.08C396.819 365.542 397.759 365.273 398.804 365.273C399.001 365.273 399.247 365.277 399.543 365.284C399.838 365.292 400.062 365.303 400.213 365.318V368.045C400.122 368.023 399.914 367.989 399.588 367.943C399.27 367.89 398.933 367.864 398.577 367.864C397.728 367.864 396.971 368.042 396.304 368.398C395.645 368.746 395.122 369.231 394.736 369.852C394.357 370.466 394.168 371.167 394.168 371.955V383H391.486ZM412.392 383V365.545H415.074V383H412.392ZM413.756 362.636C413.233 362.636 412.782 362.458 412.403 362.102C412.032 361.746 411.847 361.318 411.847 360.818C411.847 360.318 412.032 359.89 412.403 359.534C412.782 359.178 413.233 359 413.756 359C414.278 359 414.725 359.178 415.097 359.534C415.475 359.89 415.665 360.318 415.665 360.818C415.665 361.318 415.475 361.746 415.097 362.102C414.725 362.458 414.278 362.636 413.756 362.636ZM432.349 369.455L429.94 370.136C429.789 369.735 429.565 369.345 429.27 368.966C428.982 368.58 428.588 368.261 428.088 368.011C427.588 367.761 426.948 367.636 426.168 367.636C425.099 367.636 424.209 367.883 423.497 368.375C422.793 368.86 422.44 369.477 422.44 370.227C422.44 370.894 422.683 371.42 423.168 371.807C423.652 372.193 424.41 372.515 425.44 372.773L428.031 373.409C429.592 373.788 430.755 374.367 431.52 375.148C432.285 375.92 432.668 376.917 432.668 378.136C432.668 379.136 432.38 380.03 431.804 380.818C431.236 381.606 430.44 382.227 429.418 382.682C428.395 383.136 427.205 383.364 425.849 383.364C424.069 383.364 422.596 382.977 421.429 382.205C420.262 381.432 419.524 380.303 419.213 378.818L421.759 378.182C422.001 379.121 422.459 379.826 423.134 380.295C423.815 380.765 424.705 381 425.804 381C427.054 381 428.046 380.735 428.781 380.205C429.524 379.667 429.895 379.023 429.895 378.273C429.895 377.667 429.683 377.159 429.259 376.75C428.834 376.333 428.183 376.023 427.304 375.818L424.395 375.136C422.796 374.758 421.622 374.17 420.872 373.375C420.13 372.572 419.759 371.568 419.759 370.364C419.759 369.379 420.035 368.508 420.588 367.75C421.149 366.992 421.91 366.398 422.872 365.966C423.842 365.534 424.94 365.318 426.168 365.318C427.895 365.318 429.251 365.697 430.236 366.455C431.228 367.212 431.933 368.212 432.349 369.455ZM453.523 383.318C452.023 383.318 450.686 383.061 449.511 382.545C448.345 382.03 447.417 381.314 446.727 380.398C446.045 379.473 445.674 378.402 445.614 377.182H448.477C448.538 377.932 448.795 378.58 449.25 379.125C449.705 379.663 450.299 380.08 451.034 380.375C451.769 380.67 452.583 380.818 453.477 380.818C454.477 380.818 455.364 380.644 456.136 380.295C456.909 379.947 457.515 379.462 457.955 378.841C458.394 378.22 458.614 377.5 458.614 376.682C458.614 375.826 458.402 375.072 457.977 374.42C457.553 373.761 456.932 373.246 456.114 372.875C455.295 372.504 454.295 372.318 453.114 372.318H451.25V369.818H453.114C454.038 369.818 454.848 369.652 455.545 369.318C456.25 368.985 456.799 368.515 457.193 367.909C457.595 367.303 457.795 366.591 457.795 365.773C457.795 364.985 457.621 364.299 457.273 363.716C456.924 363.133 456.432 362.678 455.795 362.352C455.167 362.027 454.424 361.864 453.568 361.864C452.765 361.864 452.008 362.011 451.295 362.307C450.591 362.595 450.015 363.015 449.568 363.568C449.121 364.114 448.879 364.773 448.841 365.545H446.114C446.159 364.326 446.527 363.258 447.216 362.341C447.905 361.417 448.807 360.697 449.92 360.182C451.042 359.667 452.273 359.409 453.614 359.409C455.053 359.409 456.288 359.701 457.318 360.284C458.348 360.86 459.14 361.621 459.693 362.568C460.246 363.515 460.523 364.538 460.523 365.636C460.523 366.947 460.178 368.064 459.489 368.989C458.807 369.913 457.879 370.553 456.705 370.909V371.091C458.174 371.333 459.322 371.958 460.148 372.966C460.973 373.966 461.386 375.205 461.386 376.682C461.386 377.947 461.042 379.083 460.352 380.091C459.67 381.091 458.739 381.879 457.557 382.455C456.375 383.03 455.03 383.318 453.523 383.318ZM466.034 383V380.955L473.716 372.545C474.617 371.561 475.36 370.705 475.943 369.977C476.527 369.242 476.958 368.553 477.239 367.909C477.527 367.258 477.67 366.576 477.67 365.864C477.67 365.045 477.473 364.337 477.08 363.739C476.693 363.14 476.163 362.678 475.489 362.352C474.814 362.027 474.057 361.864 473.216 361.864C472.322 361.864 471.542 362.049 470.875 362.42C470.216 362.784 469.705 363.295 469.341 363.955C468.985 364.614 468.807 365.386 468.807 366.273H466.125C466.125 364.909 466.439 363.712 467.068 362.682C467.697 361.652 468.553 360.848 469.636 360.273C470.727 359.697 471.951 359.409 473.307 359.409C474.67 359.409 475.879 359.697 476.932 360.273C477.985 360.848 478.811 361.625 479.409 362.602C480.008 363.58 480.307 364.667 480.307 365.864C480.307 366.72 480.152 367.557 479.841 368.375C479.538 369.186 479.008 370.091 478.25 371.091C477.5 372.083 476.458 373.295 475.125 374.727L469.898 380.318V380.5H480.716V383H466.034Z" fill="white"/>
<path d="M210.357 45V15.9091H229.618V20.9801H216.507V27.9119H228.339V32.983H216.507V45H210.357ZM241.898 45.4261C239.691 45.4261 237.783 44.9574 236.173 44.0199C234.573 43.0729 233.337 41.7566 232.466 40.071C231.595 38.3759 231.159 36.411 231.159 34.1761C231.159 31.9223 231.595 29.9527 232.466 28.267C233.337 26.572 234.573 25.2557 236.173 24.3182C237.783 23.3712 239.691 22.8977 241.898 22.8977C244.104 22.8977 246.008 23.3712 247.608 24.3182C249.218 25.2557 250.458 26.572 251.33 28.267C252.201 29.9527 252.636 31.9223 252.636 34.1761C252.636 36.411 252.201 38.3759 251.33 40.071C250.458 41.7566 249.218 43.0729 247.608 44.0199C246.008 44.9574 244.104 45.4261 241.898 45.4261ZM241.926 40.7386C242.93 40.7386 243.768 40.4545 244.44 39.8864C245.113 39.3087 245.619 38.5227 245.96 37.5284C246.311 36.5341 246.486 35.4025 246.486 34.1335C246.486 32.8646 246.311 31.733 245.96 30.7386C245.619 29.7443 245.113 28.9583 244.44 28.3807C243.768 27.803 242.93 27.5142 241.926 27.5142C240.913 27.5142 240.061 27.803 239.369 28.3807C238.688 28.9583 238.171 29.7443 237.821 30.7386C237.48 31.733 237.31 32.8646 237.31 34.1335C237.31 35.4025 237.48 36.5341 237.821 37.5284C238.171 38.5227 238.688 39.3087 239.369 39.8864C240.061 40.4545 240.913 40.7386 241.926 40.7386ZM270.562 35.7102V23.1818H276.614V45H270.804V41.0369H270.577C270.084 42.3153 269.265 43.3428 268.119 44.1193C266.983 44.8958 265.596 45.2841 263.957 45.2841C262.499 45.2841 261.216 44.9527 260.108 44.2898C259 43.6269 258.134 42.6847 257.509 41.4631C256.893 40.2415 256.58 38.7784 256.571 37.0739V23.1818H262.622V35.9943C262.632 37.2822 262.977 38.3002 263.659 39.0483C264.341 39.7964 265.255 40.1705 266.401 40.1705C267.13 40.1705 267.812 40.0047 268.446 39.6733C269.08 39.3324 269.592 38.8305 269.98 38.1676C270.378 37.5047 270.572 36.6856 270.562 35.7102ZM281.454 45V23.1818H287.32V26.9886H287.548C287.945 25.6345 288.613 24.6117 289.55 23.9205C290.488 23.2197 291.567 22.8693 292.789 22.8693C293.092 22.8693 293.419 22.8883 293.769 22.9261C294.12 22.964 294.427 23.0161 294.692 23.0824V28.4517C294.408 28.3665 294.015 28.2907 293.513 28.2244C293.012 28.1581 292.552 28.125 292.136 28.125C291.246 28.125 290.45 28.3191 289.749 28.7074C289.058 29.0862 288.509 29.6165 288.102 30.2983C287.704 30.9801 287.505 31.7661 287.505 32.6562V45H281.454ZM310.52 23.1818V27.7273H297.381V23.1818H310.52ZM300.364 17.9545H306.415V38.2955C306.415 38.8542 306.5 39.2898 306.67 39.6023C306.841 39.9053 307.078 40.1184 307.381 40.2415C307.693 40.3646 308.053 40.4261 308.46 40.4261C308.744 40.4261 309.028 40.4025 309.312 40.3551C309.597 40.2983 309.814 40.2557 309.966 40.2273L310.918 44.7301C310.615 44.8248 310.188 44.9337 309.639 45.0568C309.09 45.1894 308.422 45.2699 307.636 45.2983C306.178 45.3551 304.9 45.161 303.801 44.7159C302.712 44.2708 301.865 43.5795 301.259 42.642C300.652 41.7045 300.354 40.5208 300.364 39.0909V17.9545ZM320.982 32.3864V45H314.93V15.9091H320.811V27.0312H321.067C321.559 25.7434 322.355 24.7348 323.453 24.0057C324.552 23.267 325.929 22.8977 327.587 22.8977C329.102 22.8977 330.423 23.2292 331.55 23.892C332.686 24.5455 333.567 25.4877 334.192 26.7188C334.826 27.9403 335.139 29.4034 335.129 31.108V45H329.078V32.1875C329.088 30.8428 328.747 29.7964 328.055 29.0483C327.374 28.3002 326.417 27.9261 325.186 27.9261C324.362 27.9261 323.633 28.1013 322.999 28.4517C322.374 28.8021 321.881 29.3134 321.521 29.9858C321.171 30.6487 320.991 31.4489 320.982 32.3864ZM349.263 45V15.9091H360.74C362.946 15.9091 364.826 16.3305 366.379 17.1733C367.932 18.0066 369.116 19.1667 369.93 20.6534C370.754 22.1307 371.166 23.8352 371.166 25.767C371.166 27.6989 370.75 29.4034 369.916 30.8807C369.083 32.358 367.875 33.5085 366.294 34.3324C364.722 35.1562 362.819 35.5682 360.584 35.5682H353.268V30.6392H359.589C360.773 30.6392 361.749 30.4356 362.516 30.0284C363.292 29.6117 363.87 29.0388 364.249 28.3097C364.637 27.571 364.831 26.7235 364.831 25.767C364.831 24.8011 364.637 23.9583 364.249 23.2386C363.87 22.5095 363.292 21.946 362.516 21.5483C361.739 21.1411 360.754 20.9375 359.561 20.9375H355.413V45H349.263ZM380.683 45.4119C379.291 45.4119 378.051 45.1705 376.962 44.6875C375.873 44.1951 375.011 43.4706 374.376 42.5142C373.751 41.5483 373.439 40.3456 373.439 38.9062C373.439 37.6941 373.661 36.6761 374.107 35.8523C374.552 35.0284 375.158 34.3655 375.925 33.8636C376.692 33.3617 377.563 32.983 378.538 32.7273C379.523 32.4716 380.555 32.2917 381.635 32.1875C382.904 32.0549 383.927 31.9318 384.703 31.8182C385.48 31.6951 386.043 31.5152 386.393 31.2784C386.744 31.0417 386.919 30.6913 386.919 30.2273V30.142C386.919 29.2424 386.635 28.5464 386.067 28.054C385.508 27.5616 384.713 27.3153 383.68 27.3153C382.591 27.3153 381.725 27.5568 381.081 28.0398C380.437 28.5133 380.011 29.1098 379.803 29.8295L374.206 29.375C374.49 28.0492 375.049 26.9034 375.882 25.9375C376.715 24.9621 377.79 24.214 379.107 23.6932C380.432 23.1629 381.966 22.8977 383.709 22.8977C384.921 22.8977 386.081 23.0398 387.189 23.3239C388.306 23.608 389.296 24.0483 390.158 24.6449C391.029 25.2415 391.715 26.0085 392.217 26.946C392.719 27.8741 392.97 28.9867 392.97 30.2841V45H387.232V41.9744H387.061C386.711 42.6562 386.242 43.2576 385.655 43.7784C385.068 44.2898 384.362 44.6922 383.538 44.9858C382.714 45.2699 381.763 45.4119 380.683 45.4119ZM382.416 41.2358C383.306 41.2358 384.092 41.0606 384.774 40.7102C385.456 40.3504 385.991 39.8674 386.379 39.2614C386.768 38.6553 386.962 37.9687 386.962 37.2017V34.8864C386.772 35.0095 386.512 35.1231 386.18 35.2273C385.858 35.322 385.494 35.4119 385.087 35.4972C384.679 35.5729 384.272 35.6439 383.865 35.7102C383.458 35.767 383.089 35.8191 382.757 35.8665C382.047 35.9706 381.427 36.1364 380.896 36.3636C380.366 36.5909 379.954 36.8987 379.661 37.2869C379.367 37.6657 379.22 38.1392 379.22 38.7074C379.22 39.5312 379.518 40.161 380.115 40.5966C380.721 41.0227 381.488 41.2358 382.416 41.2358ZM415.818 29.4034L410.278 29.7443C410.184 29.2708 409.98 28.8447 409.668 28.4659C409.355 28.0777 408.943 27.7699 408.432 27.5426C407.93 27.3059 407.329 27.1875 406.628 27.1875C405.69 27.1875 404.9 27.3864 404.256 27.7841C403.612 28.1723 403.29 28.6932 403.29 29.3466C403.29 29.8674 403.498 30.3078 403.915 30.6676C404.331 31.0275 405.046 31.3163 406.06 31.5341L410.009 32.3295C412.13 32.7652 413.711 33.4659 414.753 34.4318C415.795 35.3977 416.315 36.6667 416.315 38.2386C416.315 39.6686 415.894 40.9233 415.051 42.0028C414.218 43.0824 413.072 43.9252 411.614 44.5312C410.165 45.1278 408.493 45.4261 406.599 45.4261C403.711 45.4261 401.41 44.8248 399.696 43.6222C397.991 42.41 396.992 40.7623 396.699 38.679L402.651 38.3665C402.83 39.2472 403.266 39.9195 403.957 40.3835C404.649 40.8381 405.534 41.0653 406.614 41.0653C407.674 41.0653 408.527 40.8617 409.17 40.4545C409.824 40.0379 410.155 39.5028 410.165 38.8494C410.155 38.3002 409.923 37.8504 409.469 37.5C409.014 37.1402 408.313 36.8655 407.366 36.6761L403.588 35.9233C401.457 35.4972 399.871 34.7585 398.83 33.7074C397.797 32.6562 397.281 31.3163 397.281 29.6875C397.281 28.286 397.66 27.0786 398.418 26.0653C399.185 25.0521 400.259 24.2708 401.642 23.7216C403.034 23.1723 404.663 22.8977 406.528 22.8977C409.284 22.8977 411.453 23.4801 413.034 24.6449C414.625 25.8097 415.553 27.3958 415.818 29.4034ZM438.279 29.4034L432.739 29.7443C432.645 29.2708 432.441 28.8447 432.129 28.4659C431.816 28.0777 431.404 27.7699 430.893 27.5426C430.391 27.3059 429.79 27.1875 429.089 27.1875C428.151 27.1875 427.361 27.3864 426.717 27.7841C426.073 28.1723 425.751 28.6932 425.751 29.3466C425.751 29.8674 425.959 30.3078 426.376 30.6676C426.792 31.0275 427.507 31.3163 428.521 31.5341L432.469 32.3295C434.591 32.7652 436.172 33.4659 437.214 34.4318C438.255 35.3977 438.776 36.6667 438.776 38.2386C438.776 39.6686 438.355 40.9233 437.512 42.0028C436.679 43.0824 435.533 43.9252 434.075 44.5312C432.626 45.1278 430.954 45.4261 429.06 45.4261C426.172 45.4261 423.871 44.8248 422.157 43.6222C420.452 42.41 419.453 40.7623 419.16 38.679L425.112 38.3665C425.291 39.2472 425.727 39.9195 426.418 40.3835C427.11 40.8381 427.995 41.0653 429.075 41.0653C430.135 41.0653 430.987 40.8617 431.631 40.4545C432.285 40.0379 432.616 39.5028 432.626 38.8494C432.616 38.3002 432.384 37.8504 431.93 37.5C431.475 37.1402 430.774 36.8655 429.827 36.6761L426.049 35.9233C423.918 35.4972 422.332 34.7585 421.29 33.7074C420.258 32.6562 419.742 31.3163 419.742 29.6875C419.742 28.286 420.121 27.0786 420.879 26.0653C421.646 25.0521 422.72 24.2708 424.103 23.7216C425.495 23.1723 427.124 22.8977 428.989 22.8977C431.745 22.8977 433.914 23.4801 435.495 24.6449C437.086 25.8097 438.014 27.3958 438.279 29.4034Z" fill="white"/>
<path d="M423.497 650.398C421.622 650.398 419.951 650.076 418.483 649.432C417.025 648.788 415.865 647.893 415.003 646.747C414.151 645.592 413.687 644.252 413.611 642.727H417.19C417.266 643.665 417.588 644.474 418.156 645.156C418.724 645.829 419.468 646.349 420.386 646.719C421.305 647.088 422.323 647.273 423.44 647.273C424.69 647.273 425.798 647.055 426.764 646.619C427.73 646.184 428.488 645.578 429.037 644.801C429.586 644.025 429.861 643.125 429.861 642.102C429.861 641.032 429.596 640.09 429.065 639.276C428.535 638.452 427.759 637.808 426.736 637.344C425.713 636.88 424.463 636.648 422.986 636.648H420.656V633.523H422.986C424.141 633.523 425.154 633.314 426.026 632.898C426.906 632.481 427.593 631.894 428.085 631.136C428.587 630.379 428.838 629.489 428.838 628.466C428.838 627.481 428.62 626.624 428.185 625.895C427.749 625.166 427.134 624.598 426.338 624.19C425.552 623.783 424.624 623.58 423.554 623.58C422.55 623.58 421.603 623.764 420.713 624.134C419.832 624.493 419.113 625.019 418.554 625.71C417.995 626.392 417.692 627.216 417.645 628.182H414.236C414.293 626.657 414.752 625.322 415.614 624.176C416.475 623.021 417.602 622.121 418.994 621.477C420.396 620.833 421.935 620.511 423.611 620.511C425.41 620.511 426.954 620.876 428.241 621.605C429.529 622.325 430.519 623.277 431.21 624.46C431.902 625.644 432.247 626.922 432.247 628.295C432.247 629.934 431.816 631.33 430.955 632.486C430.102 633.641 428.942 634.441 427.474 634.886V635.114C429.312 635.417 430.746 636.198 431.778 637.457C432.811 638.707 433.327 640.256 433.327 642.102C433.327 643.684 432.896 645.104 432.034 646.364C431.182 647.614 430.017 648.598 428.54 649.318C427.063 650.038 425.382 650.398 423.497 650.398ZM439.136 650V647.443L448.739 636.932C449.866 635.701 450.794 634.631 451.523 633.722C452.252 632.803 452.792 631.941 453.142 631.136C453.502 630.322 453.682 629.47 453.682 628.58C453.682 627.557 453.436 626.671 452.943 625.923C452.46 625.175 451.797 624.598 450.955 624.19C450.112 623.783 449.165 623.58 448.114 623.58C446.996 623.58 446.021 623.812 445.188 624.276C444.364 624.73 443.724 625.369 443.27 626.193C442.825 627.017 442.602 627.983 442.602 629.091H439.25C439.25 627.386 439.643 625.89 440.429 624.602C441.215 623.314 442.285 622.311 443.639 621.591C445.003 620.871 446.532 620.511 448.227 620.511C449.932 620.511 451.442 620.871 452.759 621.591C454.075 622.311 455.107 623.281 455.855 624.503C456.603 625.724 456.977 627.083 456.977 628.58C456.977 629.65 456.783 630.696 456.395 631.719C456.016 632.732 455.353 633.864 454.406 635.114C453.469 636.354 452.167 637.869 450.5 639.659L443.966 646.648V646.875H457.489V650H439.136Z" fill="white"/>
<path d="M423.497 200.398C421.622 200.398 419.951 200.076 418.483 199.432C417.025 198.788 415.865 197.893 415.003 196.747C414.151 195.592 413.687 194.252 413.611 192.727H417.19C417.266 193.665 417.588 194.474 418.156 195.156C418.724 195.829 419.468 196.349 420.386 196.719C421.305 197.088 422.323 197.273 423.44 197.273C424.69 197.273 425.798 197.055 426.764 196.619C427.73 196.184 428.488 195.578 429.037 194.801C429.586 194.025 429.861 193.125 429.861 192.102C429.861 191.032 429.596 190.09 429.065 189.276C428.535 188.452 427.759 187.808 426.736 187.344C425.713 186.88 424.463 186.648 422.986 186.648H420.656V183.523H422.986C424.141 183.523 425.154 183.314 426.026 182.898C426.906 182.481 427.593 181.894 428.085 181.136C428.587 180.379 428.838 179.489 428.838 178.466C428.838 177.481 428.62 176.624 428.185 175.895C427.749 175.166 427.134 174.598 426.338 174.19C425.552 173.783 424.624 173.58 423.554 173.58C422.55 173.58 421.603 173.764 420.713 174.134C419.832 174.493 419.113 175.019 418.554 175.71C417.995 176.392 417.692 177.216 417.645 178.182H414.236C414.293 176.657 414.752 175.322 415.614 174.176C416.475 173.021 417.602 172.121 418.994 171.477C420.396 170.833 421.935 170.511 423.611 170.511C425.41 170.511 426.954 170.876 428.241 171.605C429.529 172.325 430.519 173.277 431.21 174.46C431.902 175.644 432.247 176.922 432.247 178.295C432.247 179.934 431.816 181.33 430.955 182.486C430.102 183.641 428.942 184.441 427.474 184.886V185.114C429.312 185.417 430.746 186.198 431.778 187.457C432.811 188.707 433.327 190.256 433.327 192.102C433.327 193.684 432.896 195.104 432.034 196.364C431.182 197.614 430.017 198.598 428.54 199.318C427.063 200.038 425.382 200.398 423.497 200.398ZM439.136 200V197.443L448.739 186.932C449.866 185.701 450.794 184.631 451.523 183.722C452.252 182.803 452.792 181.941 453.142 181.136C453.502 180.322 453.682 179.47 453.682 178.58C453.682 177.557 453.436 176.671 452.943 175.923C452.46 175.175 451.797 174.598 450.955 174.19C450.112 173.783 449.165 173.58 448.114 173.58C446.996 173.58 446.021 173.812 445.188 174.276C444.364 174.73 443.724 175.369 443.27 176.193C442.825 177.017 442.602 177.983 442.602 179.091H439.25C439.25 177.386 439.643 175.89 440.429 174.602C441.215 173.314 442.285 172.311 443.639 171.591C445.003 170.871 446.532 170.511 448.227 170.511C449.932 170.511 451.442 170.871 452.759 171.591C454.075 172.311 455.107 173.281 455.855 174.503C456.603 175.724 456.977 177.083 456.977 178.58C456.977 179.65 456.783 180.696 456.395 181.719C456.016 182.732 455.353 183.864 454.406 185.114C453.469 186.354 452.167 187.869 450.5 189.659L443.966 196.648V196.875H457.489V200H439.136Z" fill="white"/>
<path d="M533.572 644.034V641.136L546.356 620.909H548.458V625.398H547.038L537.379 640.682V640.909H554.594V644.034H533.572ZM547.265 650V643.153V641.804V620.909H550.617V650H547.265ZM560.827 650L573.838 624.261V624.034H558.838V620.909H577.474V624.205L564.52 650H560.827Z" fill="white"/>
<path d="M533.572 194.034V191.136L546.356 170.909H548.458V175.398H547.038L537.379 190.682V190.909H554.594V194.034H533.572ZM547.265 200V193.153V191.804V170.909H550.617V200H547.265ZM560.827 200L573.838 174.261V174.034H558.838V170.909H577.474V174.205L564.52 200H560.827Z" fill="white"/>
<line x1="437" y1="278" x2="437" y2="316" stroke="white" stroke-width="2"/>
<line x1="557" y1="278" x2="557" y2="316" stroke="white" stroke-width="2"/>
<line x1="436" y1="317" x2="558" y2="317" stroke="white" stroke-width="2"/>
<path d="M313.939 520.061C314.525 520.646 315.475 520.646 316.061 520.061L325.607 510.515C326.192 509.929 326.192 508.979 325.607 508.393C325.021 507.808 324.071 507.808 323.485 508.393L315 516.879L306.515 508.393C305.929 507.808 304.979 507.808 304.393 508.393C303.808 508.979 303.808 509.929 304.393 510.515L313.939 520.061ZM315 434L313.5 434L313.5 519L315 519L316.5 519L316.5 434L315 434Z" fill="white"/>
</svg>
