<svg xmlns="http://www.w3.org/2000/svg" width="648" height="697" fill="none" viewBox="0 0 648 697"><path fill="#096" d="M266 125h119v122H266zM264 575H145v122h119z"/><rect width="599" height="120" x="25" y="126" stroke="#dbdbdb" stroke-width="2" rx="26"/><rect width="599" height="120" x="25" y="576" stroke="#dbdbdb" stroke-width="2" rx="26"/><path stroke="#dbdbdb" stroke-width="2" d="M145 125v122M145 575v122M265 125v122M265 575v122M386 125v122M386 575v122M506 125v122M506 575v122"/><path fill="#fff" d="M75.332 170.909V200H71.81v-25.398h-.17l-7.103 4.716v-3.579l7.273-4.83zM83.7 200v-2.557l9.602-10.511a67 67 0 0 0 2.784-3.21q1.095-1.379 1.62-2.586.54-1.221.54-2.556 0-1.535-.74-2.657-.723-1.121-1.988-1.733-1.265-.61-2.84-.61-1.677 0-2.927.696a4.8 4.8 0 0 0-1.918 1.917q-.667 1.236-.667 2.898h-3.353q0-2.557 1.18-4.489a8.2 8.2 0 0 1 3.21-3.011q2.045-1.08 4.588-1.08 2.557 0 4.531 1.08 1.975 1.08 3.097 2.912t1.122 4.077q0 1.605-.583 3.139-.567 1.52-1.988 3.395-1.407 1.86-3.906 4.545l-6.535 6.989v.227h13.523V200zM75.332 620.909V650H71.81v-25.398h-.17l-7.103 4.716v-3.579l7.273-4.83zM83.7 650v-2.557l9.602-10.511a67 67 0 0 0 2.784-3.21q1.095-1.378 1.62-2.586.54-1.221.54-2.556 0-1.535-.74-2.657-.723-1.122-1.988-1.733-1.265-.61-2.84-.61-1.677 0-2.927.696a4.8 4.8 0 0 0-1.918 1.917q-.667 1.236-.667 2.898h-3.353q0-2.557 1.18-4.489a8.2 8.2 0 0 1 3.21-3.011q2.045-1.08 4.588-1.08 2.557 0 4.531 1.08 1.975 1.08 3.097 2.912t1.122 4.077q0 1.605-.583 3.139-.567 1.52-1.988 3.395-1.407 1.86-3.906 4.545l-6.535 6.989v.227h13.523V650zM181.572 194.034v-2.898l12.784-20.227h2.102v4.489h-1.42l-9.659 15.284v.227h17.215v3.125zM195.265 200v-29.091h3.352V200zm13.562 0 13.011-25.739v-.227h-15v-3.125h18.636v3.296L212.52 200zM194.961 620.909V650h-3.522v-25.398h-.171l-7.102 4.716v-3.579l7.273-4.83zm17.628-.398q1.79.015 3.58.682 1.79.668 3.267 2.216 1.477 1.535 2.372 4.19.895 2.657.895 6.662 0 3.879-.739 6.89-.725 2.997-2.102 5.056-1.363 2.06-3.324 3.125-1.946 1.066-4.403 1.066-2.444 0-4.361-.966a8.56 8.56 0 0 1-3.125-2.713q-1.207-1.747-1.549-4.049h3.466q.47 2.004 1.861 3.31 1.406 1.293 3.708 1.293 3.366 0 5.312-2.941 1.96-2.94 1.96-8.309h-.227a8.9 8.9 0 0 1-1.889 2.059 8.3 8.3 0 0 1-2.429 1.336 8.5 8.5 0 0 1-2.841.468q-2.5 0-4.588-1.235-2.075-1.25-3.324-3.424-1.236-2.187-1.236-5 0-2.67 1.193-4.886a9.2 9.2 0 0 1 3.381-3.551q2.187-1.321 5.142-1.279m0 3.125q-1.79 0-3.224.895a6.44 6.44 0 0 0-2.259 2.387q-.824 1.491-.824 3.309t.796 3.31a6.35 6.35 0 0 0 2.201 2.358q1.407.866 3.196.866 1.35 0 2.515-.525a6.5 6.5 0 0 0 2.031-1.463 7.1 7.1 0 0 0 1.378-2.117 6.4 6.4 0 0 0 .497-2.486 6.5 6.5 0 0 0-.824-3.196 6.54 6.54 0 0 0-2.244-2.414q-1.42-.924-3.239-.924M314.961 170.909V200h-3.522v-25.398h-.171l-7.102 4.716v-3.579l7.273-4.83zm17.628-.398q1.79.015 3.58.682 1.79.668 3.267 2.216 1.477 1.535 2.372 4.19.894 2.657.895 6.662 0 3.879-.739 6.89-.725 2.997-2.102 5.056-1.363 2.06-3.324 3.125-1.946 1.066-4.403 1.066-2.444 0-4.361-.966a8.56 8.56 0 0 1-3.125-2.713q-1.207-1.747-1.549-4.049h3.466q.47 2.004 1.861 3.31 1.406 1.293 3.708 1.293 3.366 0 5.312-2.941 1.96-2.94 1.96-8.309h-.227a8.9 8.9 0 0 1-1.889 2.059 8.3 8.3 0 0 1-2.429 1.336 8.5 8.5 0 0 1-2.841.468q-2.5 0-4.588-1.235-2.074-1.25-3.324-3.424-1.236-2.187-1.236-5 0-2.67 1.193-4.886a9.2 9.2 0 0 1 3.381-3.551q2.187-1.321 5.142-1.279m0 3.125q-1.79 0-3.224.895a6.44 6.44 0 0 0-2.259 2.387q-.824 1.491-.824 3.309t.796 3.31a6.35 6.35 0 0 0 2.201 2.358q1.407.867 3.196.866 1.35 0 2.515-.525a6.5 6.5 0 0 0 2.031-1.463 7.1 7.1 0 0 0 1.378-2.117 6.4 6.4 0 0 0 .497-2.486 6.5 6.5 0 0 0-.824-3.196 6.54 6.54 0 0 0-2.244-2.414q-1.42-.924-3.239-.924M301.572 644.034v-2.898l12.784-20.227h2.102v4.489h-1.42l-9.659 15.284v.227h17.215v3.125zM315.265 650v-29.091h3.352V650zm13.562 0 13.011-25.739v-.227h-15v-3.125h18.636v3.296L332.52 650zM173.999 365.545q-.205-1.727-1.66-2.681-1.454-.955-3.568-.955-1.545 0-2.704.5-1.148.5-1.796 1.375a3.3 3.3 0 0 0-.636 1.989q0 .932.443 1.602.455.659 1.159 1.102.705.432 1.477.716.774.273 1.421.443l2.364.637q.909.239 2.022.659 1.125.42 2.148 1.148a5.85 5.85 0 0 1 1.705 1.84q.67 1.125.67 2.762 0 1.886-.989 3.409-.977 1.523-2.863 2.42-1.875.898-4.557.898-2.5 0-4.33-.807-1.818-.807-2.863-2.25-1.035-1.443-1.171-3.352h2.909q.114 1.318.887 2.182.784.852 1.977 1.273a8 8 0 0 0 2.591.409q1.614 0 2.898-.523 1.284-.534 2.034-1.477.75-.955.75-2.228 0-1.158-.648-1.886t-1.705-1.182a18 18 0 0 0-2.284-.795l-2.863-.818q-2.728-.784-4.318-2.239-1.591-1.455-1.591-3.807 0-1.954 1.056-3.409 1.069-1.466 2.864-2.273 1.807-.818 4.034-.818 2.25 0 4 .807 1.75.795 2.773 2.182a5.44 5.44 0 0 1 1.091 3.147zM181.314 383v-17.455h2.591v2.728h.227q.546-1.398 1.761-2.171 1.217-.784 2.921-.784 1.727 0 2.875.784 1.16.773 1.807 2.171h.182a5.1 5.1 0 0 1 2.011-2.148q1.341-.807 3.216-.807 2.34 0 3.829 1.466 1.49 1.455 1.489 4.534V383h-2.682v-11.682q0-1.932-1.057-2.761t-2.488-.83q-1.841 0-2.853 1.114-1.011 1.103-1.011 2.795V383h-2.727v-11.955q0-1.488-.966-2.397-.966-.921-2.489-.921-1.045 0-1.954.557a4.2 4.2 0 0 0-1.455 1.546q-.545.977-.545 2.261V383zm32.949.409q-1.659 0-3.012-.625a5.17 5.17 0 0 1-2.147-1.829q-.796-1.204-.796-2.91 0-1.5.591-2.431a4.2 4.2 0 0 1 1.58-1.478 8.3 8.3 0 0 1 2.182-.795 26 26 0 0 1 2.42-.432q1.59-.204 2.58-.307 1-.113 1.454-.375.466-.261.466-.909v-.091q0-1.682-.92-2.613-.91-.933-2.762-.932-1.92 0-3.011.841-1.091.84-1.534 1.795l-2.546-.909q.683-1.591 1.818-2.477a6.8 6.8 0 0 1 2.5-1.25 10.4 10.4 0 0 1 2.682-.364q.841 0 1.932.205a6.2 6.2 0 0 1 2.125.807q1.034.613 1.716 1.852t.682 3.318V383h-2.682v-2.364h-.136q-.273.568-.909 1.216-.637.648-1.694 1.103t-2.579.454m.409-2.409q1.59 0 2.682-.625 1.102-.625 1.659-1.614a4.1 4.1 0 0 0 .568-2.079v-2.455q-.171.205-.75.375a13 13 0 0 1-1.318.284q-.74.114-1.443.205-.694.08-1.125.136-1.046.137-1.955.443-.897.296-1.454.898-.546.591-.546 1.614 0 1.398 1.034 2.113 1.046.705 2.648.705m15.167-21.273V383h-2.681v-23.273zm7.594 0V383h-2.682v-23.273zm12.23 23.637q-2.522 0-4.352-1.114-1.818-1.125-2.807-3.136-.977-2.023-.977-4.705t.977-4.727q.989-2.057 2.75-3.205 1.773-1.159 4.137-1.159 1.363 0 2.693.455a6.7 6.7 0 0 1 2.42 1.477q1.092 1.011 1.739 2.682.648 1.67.648 4.113v1.137h-13.455v-2.318h10.727q0-1.478-.591-2.637a4.45 4.45 0 0 0-1.659-1.829q-1.068-.67-2.522-.671-1.603 0-2.773.796a5.2 5.2 0 0 0-1.784 2.045 6 6 0 0 0-.625 2.705v1.545q0 1.977.682 3.352.693 1.365 1.92 2.08 1.227.705 2.852.705 1.057 0 1.909-.296a4.1 4.1 0 0 0 1.489-.909q.625-.614.966-1.523l2.591.728a5.75 5.75 0 0 1-1.375 2.318q-.966.988-2.386 1.545-1.42.546-3.194.546m23.671-13.909-2.409.681a4.5 4.5 0 0 0-.671-1.17q-.432-.58-1.182-.955t-1.92-.375q-1.602 0-2.67.739-1.057.727-1.057 1.852 0 1 .727 1.58.727.579 2.273.966l2.591.636q2.34.568 3.488 1.739 1.148 1.159 1.148 2.988 0 1.5-.864 2.682-.852 1.182-2.386 1.864t-3.568.682q-2.67 0-4.421-1.159-1.75-1.16-2.216-3.387l2.546-.636q.364 1.409 1.375 2.113 1.023.705 2.67.705 1.875 0 2.978-.795 1.113-.807 1.113-1.932 0-.91-.636-1.523-.636-.625-1.955-.932l-2.909-.682q-2.397-.568-3.522-1.761-1.114-1.205-1.114-3.011 0-1.477.829-2.614.841-1.136 2.285-1.784 1.454-.648 3.295-.648 2.59 0 4.068 1.137 1.489 1.136 2.114 3m11.946-3.91v2.273h-9.046v-2.273zm-6.409-4.181h2.682V378q0 1.137.329 1.705.34.556.864.75.534.181 1.125.181.443 0 .727-.045l.455-.091.545 2.409a6 6 0 0 1-.761.205q-.489.113-1.239.113-1.137 0-2.227-.488a4.43 4.43 0 0 1-1.796-1.489q-.704-1-.704-2.523zm22.125 11.136V383h-2.682v-17.455h2.591v2.728h.227a5 5 0 0 1 1.864-2.137q1.25-.818 3.227-.818 1.773 0 3.102.727 1.33.717 2.068 2.182.74 1.455.739 3.682V383h-2.682v-10.909q0-2.056-1.068-3.205-1.068-1.159-2.932-1.159-1.284 0-2.295.557-1 .557-1.58 1.625-.579 1.068-.579 2.591m27.037 3.364v-10.319h2.681V383h-2.681v-2.955h-.182q-.614 1.33-1.909 2.262-1.296.92-3.273.92-1.637 0-2.909-.716-1.273-.727-2-2.181-.727-1.467-.727-3.694v-11.091h2.681v10.91q0 1.908 1.069 3.045 1.079 1.137 2.75 1.136.999 0 2.034-.511 1.045-.512 1.75-1.568.716-1.057.716-2.693m7.593 7.136v-17.455h2.591v2.728h.228q.545-1.398 1.761-2.171 1.216-.784 2.92-.784 1.728 0 2.875.784 1.16.773 1.807 2.171h.182a5.1 5.1 0 0 1 2.011-2.148q1.341-.807 3.216-.807 2.341 0 3.83 1.466 1.488 1.455 1.489 4.534V383h-2.682v-11.682q0-1.932-1.057-2.761t-2.489-.83q-1.84 0-2.852 1.114-1.011 1.103-1.011 2.795V383h-2.728v-11.955q0-1.488-.966-2.397-.966-.921-2.488-.921a3.7 3.7 0 0 0-1.955.557 4.2 4.2 0 0 0-1.454 1.546q-.546.977-.546 2.261V383zm28.177 0v-23.273h2.681v8.591h.228q.295-.454.818-1.159.534-.715 1.523-1.273 1-.567 2.704-.568 2.205 0 3.886 1.102 1.683 1.103 2.625 3.125.944 2.023.944 4.773 0 2.773-.944 4.807-.943 2.023-2.613 3.136-1.671 1.103-3.852 1.103-1.682 0-2.694-.557-1.011-.568-1.556-1.284a17 17 0 0 1-.841-1.205h-.319V383zm2.636-8.727q0 1.977.579 3.488.58 1.5 1.694 2.353 1.113.84 2.727.841 1.682 0 2.807-.887 1.135-.897 1.704-2.409.58-1.523.58-3.386 0-1.842-.568-3.318-.558-1.49-1.694-2.353-1.125-.875-2.829-.875-1.637 0-2.75.83-1.114.817-1.682 2.295-.568 1.467-.568 3.421m24.193 9.091q-2.523 0-4.352-1.114-1.818-1.125-2.807-3.136-.977-2.023-.977-4.705t.977-4.727q.989-2.057 2.75-3.205 1.773-1.159 4.136-1.159 1.363 0 2.694.455a6.7 6.7 0 0 1 2.42 1.477q1.09 1.011 1.739 2.682.647 1.67.647 4.113v1.137h-13.454v-2.318h10.727q0-1.478-.591-2.637a4.45 4.45 0 0 0-1.659-1.829q-1.068-.67-2.523-.671-1.602 0-2.772.796a5.2 5.2 0 0 0-1.784 2.045 6 6 0 0 0-.625 2.705v1.545q0 1.977.681 3.352.694 1.365 1.921 2.08 1.227.705 2.852.705 1.057 0 1.909-.296a4.1 4.1 0 0 0 1.489-.909 4.15 4.15 0 0 0 .966-1.523l2.591.728a5.75 5.75 0 0 1-1.375 2.318q-.966.988-2.387 1.545-1.42.546-3.193.546m11.307-.364v-17.455h2.591v2.637h.182q.477-1.296 1.727-2.102 1.25-.807 2.818-.807.295 0 .739.011.443.012.67.034v2.727a9 9 0 0 0-.625-.102 6 6 0 0 0-1.011-.079q-1.273 0-2.273.534a4 4 0 0 0-1.568 1.454q-.568.921-.568 2.103V383zm20.906 0v-17.455h2.682V383zm1.364-20.364q-.785 0-1.352-.534a1.71 1.71 0 0 1-.557-1.284q0-.75.557-1.284a1.9 1.9 0 0 1 1.352-.534q.785 0 1.341.534.568.534.568 1.284t-.568 1.284a1.87 1.87 0 0 1-1.341.534m18.594 6.819-2.41.681a4.5 4.5 0 0 0-.67-1.17q-.432-.58-1.182-.955t-1.92-.375q-1.602 0-2.671.739-1.057.727-1.057 1.852 0 1 .728 1.58.727.579 2.272.966l2.591.636q2.341.568 3.489 1.739 1.148 1.159 1.148 2.988 0 1.5-.864 2.682-.853 1.182-2.386 1.864t-3.568.682q-2.671 0-4.421-1.159t-2.216-3.387l2.546-.636q.363 1.409 1.375 2.113 1.022.705 2.67.705 1.875 0 2.977-.795 1.114-.807 1.114-1.932 0-.91-.636-1.523-.637-.625-1.955-.932l-2.909-.682q-2.398-.568-3.523-1.761-1.113-1.205-1.113-3.011 0-1.477.829-2.614.841-1.136 2.284-1.784 1.454-.648 3.296-.648 2.59 0 4.068 1.137 1.488 1.136 2.114 3m21.491-9.728V383h-2.818v-20.318h-.137l-5.681 3.773v-2.864l5.818-3.864zm14.102-.318a8.3 8.3 0 0 1 2.864.546q1.432.534 2.614 1.772 1.181 1.227 1.897 3.353.716 2.124.716 5.329 0 3.102-.591 5.511-.58 2.398-1.682 4.046-1.09 1.647-2.659 2.5-1.556.852-3.522.852-1.955 0-3.489-.773a6.85 6.85 0 0 1-2.5-2.17q-.966-1.398-1.239-3.239h2.773q.375 1.603 1.489 2.648 1.125 1.034 2.966 1.034 2.693 0 4.25-2.352 1.568-2.352 1.568-6.648h-.182a7.1 7.1 0 0 1-1.511 1.648 6.7 6.7 0 0 1-1.944 1.068 6.8 6.8 0 0 1-2.272.375q-2 0-3.671-.989-1.659-1-2.659-2.738-.988-1.75-.988-4 0-2.136.954-3.909a7.4 7.4 0 0 1 2.705-2.841q1.75-1.058 4.113-1.023m0 2.5q-1.431 0-2.579.716a5.15 5.15 0 0 0-1.807 1.909q-.659 1.193-.659 2.648 0 1.454.636 2.648a5.1 5.1 0 0 0 1.762 1.886q1.125.693 2.556.693 1.08 0 2.012-.42a5.2 5.2 0 0 0 1.625-1.171q.704-.75 1.102-1.693a5.1 5.1 0 0 0 .398-1.989q0-1.363-.659-2.556a5.2 5.2 0 0 0-1.796-1.932q-1.136-.74-2.591-.739M216.743 24.276q-.17-1.719-1.463-2.67-1.293-.953-3.508-.953-1.506 0-2.543.427-1.037.412-1.591 1.15a2.77 2.77 0 0 0-.54 1.676q-.028.782.327 1.364a3.4 3.4 0 0 0 1.009 1.008q.639.413 1.477.725.838.299 1.79.511l2.613.625a18.5 18.5 0 0 1 3.495 1.137q1.59.71 2.755 1.747a7.25 7.25 0 0 1 1.804 2.443q.654 1.406.668 3.224-.014 2.67-1.364 4.631-1.335 1.946-3.863 3.026-2.515 1.065-6.066 1.065-3.522 0-6.136-1.08-2.6-1.08-4.063-3.196-1.449-2.13-1.519-5.27h5.951q.1 1.463.838 2.444.753.965 2.003 1.463 1.265.483 2.855.483 1.563 0 2.713-.455 1.165-.454 1.804-1.264a2.92 2.92 0 0 0 .639-1.86q0-.98-.582-1.649-.568-.667-1.676-1.136-1.094-.469-2.685-.852l-3.167-.796q-3.68-.894-5.81-2.798t-2.116-5.128q-.015-2.642 1.406-4.616 1.434-1.975 3.934-3.083 2.5-1.107 5.682-1.108 3.239 0 5.654 1.108 2.428 1.108 3.778 3.083 1.35 1.974 1.392 4.574zm20.259 21.15q-3.366 0-5.795-1.364-2.415-1.377-3.722-3.892-1.306-2.527-1.306-5.98 0-3.366 1.306-5.909 1.308-2.542 3.679-3.963 2.387-1.42 5.597-1.42 2.158 0 4.02.696a8.9 8.9 0 0 1 3.267 2.06q1.406 1.377 2.187 3.465.782 2.074.782 4.858v1.662h-18.424v-3.75h12.728q0-1.307-.569-2.315a4.06 4.06 0 0 0-1.576-1.577q-.995-.582-2.316-.582-1.377 0-2.443.639-1.05.625-1.647 1.69-.597 1.051-.611 2.344v3.565q0 1.62.596 2.799a4.37 4.37 0 0 0 1.719 1.818q1.109.64 2.628.64 1.008 0 1.847-.285a3.8 3.8 0 0 0 1.434-.852q.597-.57.909-1.392l5.597.369a7.65 7.65 0 0 1-1.747 3.523q-1.307 1.49-3.381 2.33-2.06.823-4.759.823m23.822 0q-3.353 0-5.768-1.42-2.4-1.435-3.693-3.978-1.278-2.542-1.278-5.852 0-3.352 1.292-5.88 1.307-2.544 3.708-3.964 2.4-1.434 5.71-1.434 2.855 0 5 1.037t3.395 2.912 1.378 4.403h-5.71q-.242-1.633-1.279-2.628-1.023-1.008-2.684-1.008-1.407 0-2.458.767-1.037.752-1.619 2.201t-.583 3.509q0 2.088.569 3.551.582 1.463 1.633 2.23t2.458.767q1.036 0 1.86-.426a3.6 3.6 0 0 0 1.378-1.236q.554-.823.725-1.974h5.71q-.142 2.5-1.364 4.403-1.207 1.89-3.338 2.955-2.13 1.065-5.042 1.065m23.476 0q-3.31 0-5.724-1.406-2.401-1.42-3.708-3.949-1.307-2.543-1.307-5.895 0-3.38 1.307-5.909 1.306-2.542 3.708-3.949 2.414-1.42 5.724-1.42t5.71 1.42q2.415 1.407 3.722 3.949 1.307 2.528 1.307 5.91 0 3.351-1.307 5.894-1.307 2.529-3.722 3.949-2.4 1.406-5.71 1.406m.028-4.687q1.506 0 2.515-.853 1.008-.866 1.52-2.358.525-1.49.525-3.395 0-1.902-.525-3.394-.512-1.492-1.52-2.358-1.01-.867-2.515-.867-1.52 0-2.556.867-1.023.866-1.549 2.358-.511 1.492-.511 3.394 0 1.904.511 3.395.526 1.492 1.549 2.358 1.036.853 2.556.853m20.697-8.353V45h-6.052V23.182h5.767v3.85h.256a6.1 6.1 0 0 1 2.429-3.012q1.704-1.122 4.134-1.122 2.272 0 3.963.994 1.69.994 2.628 2.841.937 1.832.937 4.375V45h-6.051V32.188q.014-2.003-1.023-3.126-1.037-1.136-2.855-1.136-1.221 0-2.159.526-.924.525-1.449 1.534-.512.995-.525 2.4m26.871 12.97q-2.486 0-4.503-1.28-2.003-1.291-3.182-3.792-1.164-2.514-1.164-6.165 0-3.75 1.207-6.235 1.207-2.5 3.21-3.736a8.23 8.23 0 0 1 4.418-1.25q1.831 0 3.054.625 1.236.61 1.988 1.534.768.91 1.165 1.79h.185V15.909h6.037V45h-5.966v-3.494h-.256a7.8 7.8 0 0 1-1.207 1.804q-.767.88-2.003 1.463-1.221.582-2.983.582m1.918-4.816q1.463 0 2.471-.796 1.023-.81 1.563-2.258.554-1.45.554-3.395t-.54-3.38-1.563-2.217q-1.022-.78-2.485-.78-1.492 0-2.515.809-1.022.81-1.548 2.244-.525 1.435-.526 3.324 0 1.904.526 3.366.54 1.45 1.548 2.273 1.023.81 2.515.81M358.657 45V15.91h11.478q3.31 0 5.639 1.263 2.33 1.251 3.551 3.48 1.236 2.217 1.236 5.114 0 2.898-1.25 5.114t-3.622 3.451q-2.358 1.236-5.711 1.236h-7.315V30.64h6.321q1.776 0 2.926-.61 1.165-.625 1.733-1.72.582-1.107.582-2.542 0-1.45-.582-2.528-.568-1.095-1.733-1.69-1.164-.611-2.954-.611h-4.148V45zm31.421.412q-2.088 0-3.722-.724-1.634-.739-2.585-2.174-.938-1.449-.938-3.608 0-1.818.668-3.054a5.4 5.4 0 0 1 1.818-1.988 8.8 8.8 0 0 1 2.614-1.137 20 20 0 0 1 3.096-.54 79 79 0 0 0 3.069-.369q1.164-.184 1.69-.54.526-.355.526-1.05v-.086q0-1.35-.853-2.088-.837-.739-2.386-.739-1.634 0-2.6.725-.965.71-1.278 1.79l-5.597-.455q.427-1.99 1.677-3.437 1.25-1.464 3.224-2.245 1.989-.795 4.602-.795 1.818 0 3.48.426 1.676.426 2.969 1.32a6.4 6.4 0 0 1 2.06 2.302q.753 1.392.753 3.338V45h-5.739v-3.026h-.17a6.2 6.2 0 0 1-1.407 1.804q-.88.767-2.116 1.208-1.236.426-2.855.426m1.733-4.176q1.335 0 2.358-.526a4.2 4.2 0 0 0 1.605-1.449q.582-.909.582-2.06v-2.315q-.284.185-.781.341-.483.142-1.094.27a55 55 0 0 1-1.221.213l-1.108.157q-1.066.156-1.861.497t-1.236.923q-.44.568-.44 1.42 0 1.236.895 1.89.909.639 2.301.639m33.402-11.833-5.54.341a2.86 2.86 0 0 0-.611-1.278 3.24 3.24 0 0 0-1.236-.923q-.753-.355-1.804-.355-1.406 0-2.372.596-.966.583-.966 1.563 0 .78.625 1.32t2.145.867l3.949.796q3.182.653 4.744 2.102 1.563 1.449 1.563 3.807 0 2.145-1.264 3.764-1.25 1.62-3.438 2.528-2.173.895-5.014.895-4.332 0-6.903-1.804-2.557-1.818-2.998-4.943l5.952-.312q.27 1.32 1.307 2.017 1.037.681 2.656.681 1.591 0 2.557-.61.98-.625.994-1.606-.013-.824-.696-1.349-.681-.54-2.102-.824l-3.778-.753q-3.196-.64-4.759-2.216-1.548-1.575-1.548-4.02 0-2.101 1.136-3.622 1.15-1.52 3.225-2.343 2.087-.825 4.886-.824 4.133 0 6.506 1.747 2.387 1.747 2.784 4.758m22.461 0-5.54.341a2.86 2.86 0 0 0-.611-1.278 3.24 3.24 0 0 0-1.236-.923q-.753-.355-1.804-.355-1.406 0-2.372.596-.966.583-.966 1.563 0 .78.625 1.32t2.145.867l3.949.796q3.182.653 4.744 2.102 1.563 1.449 1.563 3.807 0 2.145-1.264 3.764-1.251 1.62-3.438 2.528-2.173.895-5.014.895-4.332 0-6.904-1.804-2.556-1.818-2.997-4.943l5.952-.312q.27 1.32 1.307 2.017 1.037.681 2.656.681 1.591 0 2.557-.61.98-.625.994-1.606-.014-.824-.696-1.349-.681-.54-2.102-.824l-3.778-.753q-3.196-.64-4.759-2.216-1.548-1.575-1.548-4.02 0-2.101 1.136-3.622 1.15-1.52 3.225-2.343 2.087-.825 4.886-.824 4.134 0 6.506 1.747 2.385 1.747 2.784 4.758M432.497 200.398q-2.812 0-5.014-.966-2.187-.966-3.48-2.685-1.278-1.732-1.392-4.02h3.579q.114 1.407.966 2.429.853 1.009 2.23 1.563t3.054.554q1.875 0 3.324-.654 1.45-.653 2.273-1.818.824-1.164.824-2.699 0-1.605-.796-2.826-.795-1.236-2.329-1.932t-3.75-.696h-2.33v-3.125h2.33q1.732 0 3.04-.625 1.32-.625 2.059-1.762.753-1.136.753-2.67 0-1.478-.653-2.571t-1.847-1.705q-1.179-.61-2.784-.61a7.3 7.3 0 0 0-2.841.554q-1.321.539-2.159 1.576-.839 1.023-.909 2.472h-3.409q.085-2.287 1.378-4.006 1.292-1.733 3.38-2.699 2.103-.966 4.617-.966 2.699 0 4.63 1.094 1.932 1.08 2.969 2.855a7.47 7.47 0 0 1 1.037 3.835q0 2.458-1.292 4.191-1.28 1.733-3.481 2.4v.228q2.757.454 4.304 2.343 1.55 1.876 1.549 4.645 0 2.373-1.293 4.262-1.278 1.875-3.494 2.954t-5.043 1.08m15.639-.398v-2.557l9.603-10.511a67 67 0 0 0 2.784-3.21q1.094-1.379 1.619-2.586.54-1.221.54-2.556 0-1.535-.739-2.657-.725-1.121-1.988-1.733-1.265-.61-2.841-.61-1.677 0-2.926.696a4.8 4.8 0 0 0-1.918 1.917q-.668 1.236-.668 2.898h-3.352q0-2.557 1.179-4.489a8.2 8.2 0 0 1 3.21-3.011q2.046-1.08 4.588-1.08 2.557 0 4.532 1.08 1.974 1.08 3.096 2.912t1.122 4.077q0 1.605-.582 3.139-.569 1.52-1.989 3.395-1.405 1.86-3.906 4.545l-6.534 6.989v.227h13.523V200zM432.497 650.398q-2.812 0-5.014-.966-2.187-.966-3.48-2.685-1.278-1.732-1.392-4.02h3.579q.114 1.406.966 2.429.853 1.009 2.23 1.563t3.054.554q1.875 0 3.324-.654 1.45-.653 2.273-1.818.824-1.164.824-2.699 0-1.605-.796-2.826-.795-1.236-2.329-1.932t-3.75-.696h-2.33v-3.125h2.33q1.732 0 3.04-.625 1.32-.625 2.059-1.762.753-1.135.753-2.67 0-1.478-.653-2.571t-1.847-1.705q-1.179-.61-2.784-.61a7.3 7.3 0 0 0-2.841.554q-1.321.539-2.159 1.576-.839 1.023-.909 2.472h-3.409q.085-2.287 1.378-4.006 1.292-1.733 3.38-2.699 2.103-.966 4.617-.966 2.699 0 4.63 1.094 1.932 1.08 2.969 2.855a7.47 7.47 0 0 1 1.037 3.835q0 2.458-1.292 4.191-1.28 1.732-3.481 2.4v.228q2.757.455 4.304 2.343 1.55 1.876 1.549 4.645 0 2.372-1.293 4.262-1.278 1.875-3.494 2.954t-5.043 1.08m15.639-.398v-2.557l9.603-10.511a67 67 0 0 0 2.784-3.21q1.094-1.378 1.619-2.586.54-1.221.54-2.556 0-1.535-.739-2.657-.725-1.122-1.988-1.733-1.265-.61-2.841-.61-1.677 0-2.926.696a4.8 4.8 0 0 0-1.918 1.917q-.668 1.236-.668 2.898h-3.352q0-2.557 1.179-4.489a8.2 8.2 0 0 1 3.21-3.011q2.046-1.08 4.588-1.08 2.557 0 4.532 1.08 1.974 1.08 3.096 2.912t1.122 4.077q0 1.605-.582 3.139-.569 1.52-1.989 3.395-1.405 1.86-3.906 4.545l-6.534 6.989v.227h13.523V650zM543.976 200v-2.557l9.602-10.511a67 67 0 0 0 2.785-3.21q1.094-1.379 1.619-2.586.54-1.221.54-2.556 0-1.535-.739-2.657-.724-1.121-1.989-1.733-1.263-.61-2.841-.61-1.675 0-2.926.696a4.8 4.8 0 0 0-1.917 1.917q-.668 1.236-.668 2.898h-3.352q0-2.557 1.179-4.489a8.2 8.2 0 0 1 3.21-3.011q2.046-1.08 4.588-1.08 2.557 0 4.531 1.08 1.975 1.08 3.097 2.912t1.122 4.077q0 1.605-.582 3.139-.568 1.52-1.989 3.395-1.406 1.86-3.906 4.545l-6.534 6.989v.227h13.522V200zm25.128 0 13.011-25.739v-.227h-15v-3.125h18.637v3.296L572.797 200zM543.976 650v-2.557l9.602-10.511a67 67 0 0 0 2.785-3.21q1.094-1.378 1.619-2.586.54-1.221.54-2.556 0-1.535-.739-2.657-.724-1.122-1.989-1.733-1.263-.61-2.841-.61-1.675 0-2.926.696a4.8 4.8 0 0 0-1.917 1.917q-.668 1.236-.668 2.898h-3.352q0-2.557 1.179-4.489a8.2 8.2 0 0 1 3.21-3.011q2.046-1.08 4.588-1.08 2.557 0 4.531 1.08 1.975 1.08 3.097 2.912t1.122 4.077q0 1.605-.582 3.139-.568 1.52-1.989 3.395-1.406 1.86-3.906 4.545l-6.534 6.989v.227h13.522V650zm25.128 0 13.011-25.739v-.227h-15v-3.125h18.637v3.296L572.797 650z"/><path stroke="#fff" stroke-width="2" d="M205 278v38M324 278v38M445 278v38M565 278v38M204 317h362"/><path fill="#fff" d="M321.939 520.061a1.5 1.5 0 0 0 2.122 0l9.546-9.546a1.5 1.5 0 0 0 0-2.122 1.5 1.5 0 0 0-2.122 0L323 516.879l-8.485-8.486a1.5 1.5 0 0 0-2.122 0 1.5 1.5 0 0 0 0 2.122zM323 434h-1.5v85h3v-85z"/></svg>