<svg width="648" height="697" viewBox="0 0 648 697" fill="none" xmlns="http://www.w3.org/2000/svg">
<path d="M506 125H598C612.912 125 625 137.088 625 152V220C625 234.912 612.912 247 598 247H506V125Z" fill="#009966"/>
<path d="M144 575H52C37.0883 575 25 587.088 25 602V670C25 684.912 37.0883 697 52 697H144V575Z" fill="#009966"/>
<rect x="25" y="126" width="599" height="120" rx="26" stroke="#DBDBDB" stroke-width="2"/>
<rect x="25" y="576" width="599" height="120" rx="26" stroke="#DBDBDB" stroke-width="2"/>
<line x1="145" y1="125" x2="145" y2="247" stroke="#DBDBDB" stroke-width="2"/>
<line x1="145" y1="575" x2="145" y2="697" stroke="#DBDBDB" stroke-width="2"/>
<line x1="265" y1="125" x2="265" y2="247" stroke="#DBDBDB" stroke-width="2"/>
<line x1="265" y1="575" x2="265" y2="697" stroke="#DBDBDB" stroke-width="2"/>
<line x1="386" y1="125" x2="386" y2="247" stroke="#DBDBDB" stroke-width="2"/>
<line x1="386" y1="575" x2="386" y2="697" stroke="#DBDBDB" stroke-width="2"/>
<line x1="506" y1="125" x2="506" y2="247" stroke="#DBDBDB" stroke-width="2"/>
<line x1="506" y1="575" x2="506" y2="697" stroke="#DBDBDB" stroke-width="2"/>
<path d="M62.9762 200V197.443L72.5785 186.932C73.7054 185.701 74.6334 184.631 75.3626 183.722C76.0917 182.803 76.6315 181.941 76.9819 181.136C77.3417 180.322 77.5217 179.47 77.5217 178.58C77.5217 177.557 77.2755 176.671 76.783 175.923C76.3001 175.175 75.6372 174.598 74.7944 174.19C73.9516 173.783 73.0046 173.58 71.9535 173.58C70.8361 173.58 69.8607 173.812 69.0273 174.276C68.2035 174.73 67.5643 175.369 67.1097 176.193C66.6647 177.017 66.4421 177.983 66.4421 179.091H63.0898C63.0898 177.386 63.4828 175.89 64.2688 174.602C65.0548 173.314 66.1249 172.311 67.479 171.591C68.8427 170.871 70.372 170.511 72.0671 170.511C73.7717 170.511 75.2821 170.871 76.5984 171.591C77.9147 172.311 78.9469 173.281 79.695 174.503C80.4431 175.724 80.8171 177.083 80.8171 178.58C80.8171 179.65 80.623 180.696 80.2347 181.719C79.8559 182.732 79.1931 183.864 78.2461 185.114C77.3086 186.354 76.0065 187.869 74.3398 189.659L67.8058 196.648V196.875H81.3285V200H62.9762ZM88.104 200L101.115 174.261V174.034H86.1154V170.909H104.752V174.205L91.7972 200H88.104Z" fill="white"/>
<path d="M75.3324 620.909V650H71.8097V624.602H71.6392L64.5369 629.318V625.739L71.8097 620.909H75.3324ZM83.6989 650V647.443L93.3011 636.932C94.428 635.701 95.3561 634.631 96.0852 633.722C96.8144 632.803 97.3542 631.941 97.7045 631.136C98.0644 630.322 98.2443 629.47 98.2443 628.58C98.2443 627.557 97.9981 626.671 97.5057 625.923C97.0227 625.175 96.3598 624.598 95.517 624.19C94.6742 623.783 93.7273 623.58 92.6761 623.58C91.5587 623.58 90.5833 623.812 89.75 624.276C88.9261 624.73 88.2869 625.369 87.8324 626.193C87.3873 627.017 87.1648 627.983 87.1648 629.091H83.8125C83.8125 627.386 84.2055 625.89 84.9915 624.602C85.7775 623.314 86.8475 622.311 88.2017 621.591C89.5653 620.871 91.0947 620.511 92.7898 620.511C94.4943 620.511 96.0047 620.871 97.321 621.591C98.6373 622.311 99.6695 623.281 100.418 624.503C101.166 625.724 101.54 627.083 101.54 628.58C101.54 629.65 101.346 630.696 100.957 631.719C100.579 632.732 99.9157 633.864 98.9688 635.114C98.0312 636.354 96.7292 637.869 95.0625 639.659L88.5284 646.648V646.875H102.051V650H83.6989Z" fill="white"/>
<path d="M181.572 194.034V191.136L194.356 170.909H196.458V175.398H195.038L185.379 190.682V190.909H202.594V194.034H181.572ZM195.265 200V193.153V191.804V170.909H198.617V200H195.265ZM208.827 200L221.838 174.261V174.034H206.838V170.909H225.474V174.205L212.52 200H208.827Z" fill="white"/>
<path d="M181.572 644.034V641.136L194.356 620.909H196.458V625.398H195.038L185.379 640.682V640.909H202.594V644.034H181.572ZM195.265 650V643.153V641.804V620.909H198.617V650H195.265ZM208.827 650L221.838 624.261V624.034H206.838V620.909H225.474V624.205L212.52 650H208.827Z" fill="white"/>
<path d="M314.961 170.909V200H311.439V174.602H311.268L304.166 179.318V175.739L311.439 170.909H314.961ZM332.589 170.511C333.782 170.521 334.975 170.748 336.169 171.193C337.362 171.638 338.451 172.377 339.436 173.409C340.421 174.432 341.211 175.829 341.808 177.599C342.404 179.37 342.703 181.591 342.703 184.261C342.703 186.847 342.457 189.143 341.964 191.151C341.481 193.149 340.78 194.834 339.862 196.207C338.953 197.58 337.845 198.622 336.538 199.332C335.241 200.043 333.773 200.398 332.135 200.398C330.506 200.398 329.052 200.076 327.774 199.432C326.505 198.778 325.463 197.874 324.649 196.719C323.844 195.554 323.328 194.205 323.1 192.67H326.566C326.879 194.006 327.499 195.109 328.427 195.98C329.365 196.842 330.6 197.273 332.135 197.273C334.379 197.273 336.15 196.293 337.447 194.332C338.754 192.372 339.407 189.602 339.407 186.023H339.18C338.65 186.818 338.02 187.505 337.291 188.082C336.562 188.66 335.752 189.105 334.862 189.418C333.972 189.73 333.025 189.886 332.021 189.886C330.354 189.886 328.825 189.474 327.433 188.651C326.05 187.817 324.942 186.676 324.109 185.227C323.285 183.769 322.873 182.102 322.873 180.227C322.873 178.447 323.271 176.818 324.066 175.341C324.871 173.854 325.998 172.67 327.447 171.79C328.905 170.909 330.619 170.483 332.589 170.511ZM332.589 173.636C331.396 173.636 330.321 173.935 329.365 174.531C328.418 175.118 327.665 175.914 327.106 176.918C326.557 177.912 326.282 179.015 326.282 180.227C326.282 181.439 326.547 182.543 327.078 183.537C327.618 184.522 328.351 185.308 329.279 185.895C330.217 186.473 331.282 186.761 332.475 186.761C333.375 186.761 334.213 186.586 334.99 186.236C335.766 185.876 336.443 185.388 337.021 184.773C337.608 184.148 338.067 183.442 338.399 182.656C338.73 181.861 338.896 181.032 338.896 180.17C338.896 179.034 338.621 177.969 338.072 176.974C337.532 175.98 336.784 175.175 335.828 174.56C334.881 173.944 333.801 173.636 332.589 173.636Z" fill="white"/>
<path d="M314.961 620.909V650H311.439V624.602H311.268L304.166 629.318V625.739L311.439 620.909H314.961ZM332.589 620.511C333.782 620.521 334.975 620.748 336.169 621.193C337.362 621.638 338.451 622.377 339.436 623.409C340.421 624.432 341.211 625.829 341.808 627.599C342.404 629.37 342.703 631.591 342.703 634.261C342.703 636.847 342.457 639.143 341.964 641.151C341.481 643.149 340.78 644.834 339.862 646.207C338.953 647.58 337.845 648.622 336.538 649.332C335.241 650.043 333.773 650.398 332.135 650.398C330.506 650.398 329.052 650.076 327.774 649.432C326.505 648.778 325.463 647.874 324.649 646.719C323.844 645.554 323.328 644.205 323.1 642.67H326.566C326.879 644.006 327.499 645.109 328.427 645.98C329.365 646.842 330.6 647.273 332.135 647.273C334.379 647.273 336.15 646.293 337.447 644.332C338.754 642.372 339.407 639.602 339.407 636.023H339.18C338.65 636.818 338.02 637.505 337.291 638.082C336.562 638.66 335.752 639.105 334.862 639.418C333.972 639.73 333.025 639.886 332.021 639.886C330.354 639.886 328.825 639.474 327.433 638.651C326.05 637.817 324.942 636.676 324.109 635.227C323.285 633.769 322.873 632.102 322.873 630.227C322.873 628.447 323.271 626.818 324.066 625.341C324.871 623.854 325.998 622.67 327.447 621.79C328.905 620.909 330.619 620.483 332.589 620.511ZM332.589 623.636C331.396 623.636 330.321 623.935 329.365 624.531C328.418 625.118 327.665 625.914 327.106 626.918C326.557 627.912 326.282 629.015 326.282 630.227C326.282 631.439 326.547 632.543 327.078 633.537C327.618 634.522 328.351 635.308 329.279 635.895C330.217 636.473 331.282 636.761 332.475 636.761C333.375 636.761 334.213 636.586 334.99 636.236C335.766 635.876 336.443 635.388 337.021 634.773C337.608 634.148 338.067 633.442 338.399 632.656C338.73 631.861 338.896 631.032 338.896 630.17C338.896 629.034 338.621 627.969 338.072 626.974C337.532 625.98 336.784 625.175 335.828 624.56C334.881 623.944 333.801 623.636 332.589 623.636Z" fill="white"/>
<path d="M174.295 365.545C174.159 364.394 173.606 363.5 172.636 362.864C171.667 362.227 170.477 361.909 169.068 361.909C168.038 361.909 167.136 362.076 166.364 362.409C165.598 362.742 165 363.201 164.568 363.784C164.144 364.367 163.932 365.03 163.932 365.773C163.932 366.394 164.08 366.928 164.375 367.375C164.678 367.814 165.064 368.182 165.534 368.477C166.004 368.765 166.496 369.004 167.011 369.193C167.527 369.375 168 369.523 168.432 369.636L170.795 370.273C171.402 370.432 172.076 370.652 172.818 370.932C173.568 371.212 174.284 371.595 174.966 372.08C175.655 372.557 176.223 373.17 176.67 373.92C177.117 374.67 177.341 375.591 177.341 376.682C177.341 377.939 177.011 379.076 176.352 380.091C175.701 381.106 174.746 381.913 173.489 382.511C172.239 383.11 170.72 383.409 168.932 383.409C167.265 383.409 165.822 383.14 164.602 382.602C163.39 382.064 162.436 381.314 161.739 380.352C161.049 379.39 160.659 378.273 160.568 377H163.477C163.553 377.879 163.848 378.606 164.364 379.182C164.886 379.75 165.545 380.174 166.341 380.455C167.144 380.727 168.008 380.864 168.932 380.864C170.008 380.864 170.973 380.689 171.83 380.341C172.686 379.985 173.364 379.492 173.864 378.864C174.364 378.227 174.614 377.485 174.614 376.636C174.614 375.864 174.398 375.235 173.966 374.75C173.534 374.265 172.966 373.871 172.261 373.568C171.557 373.265 170.795 373 169.977 372.773L167.114 371.955C165.295 371.432 163.856 370.686 162.795 369.716C161.735 368.746 161.205 367.477 161.205 365.909C161.205 364.606 161.557 363.47 162.261 362.5C162.973 361.523 163.928 360.765 165.125 360.227C166.33 359.682 167.674 359.409 169.159 359.409C170.659 359.409 171.992 359.678 173.159 360.216C174.326 360.746 175.25 361.473 175.932 362.398C176.621 363.322 176.985 364.371 177.023 365.545H174.295ZM181.611 383V365.545H184.202V368.273H184.429C184.793 367.341 185.38 366.617 186.19 366.102C187.001 365.58 187.974 365.318 189.111 365.318C190.262 365.318 191.221 365.58 191.986 366.102C192.759 366.617 193.361 367.341 193.793 368.273H193.974C194.421 367.371 195.092 366.655 195.986 366.125C196.88 365.587 197.952 365.318 199.202 365.318C200.762 365.318 202.039 365.807 203.031 366.784C204.024 367.754 204.52 369.265 204.52 371.318V383H201.838V371.318C201.838 370.03 201.486 369.11 200.781 368.557C200.077 368.004 199.247 367.727 198.293 367.727C197.065 367.727 196.115 368.098 195.44 368.841C194.766 369.576 194.429 370.508 194.429 371.636V383H191.702V371.045C191.702 370.053 191.38 369.254 190.736 368.648C190.092 368.034 189.262 367.727 188.247 367.727C187.55 367.727 186.899 367.913 186.293 368.284C185.694 368.655 185.209 369.17 184.838 369.83C184.474 370.481 184.293 371.235 184.293 372.091V383H181.611ZM214.56 383.409C213.454 383.409 212.45 383.201 211.548 382.784C210.647 382.36 209.931 381.75 209.401 380.955C208.87 380.152 208.605 379.182 208.605 378.045C208.605 377.045 208.802 376.235 209.196 375.614C209.59 374.985 210.116 374.492 210.776 374.136C211.435 373.78 212.162 373.515 212.957 373.341C213.76 373.159 214.567 373.015 215.378 372.909C216.438 372.773 217.298 372.67 217.957 372.602C218.624 372.527 219.109 372.402 219.412 372.227C219.723 372.053 219.878 371.75 219.878 371.318V371.227C219.878 370.106 219.571 369.235 218.957 368.614C218.351 367.992 217.431 367.682 216.196 367.682C214.916 367.682 213.912 367.962 213.185 368.523C212.457 369.083 211.946 369.682 211.651 370.318L209.105 369.409C209.56 368.348 210.166 367.523 210.923 366.932C211.688 366.333 212.522 365.917 213.423 365.682C214.332 365.439 215.226 365.318 216.105 365.318C216.666 365.318 217.31 365.386 218.037 365.523C218.772 365.652 219.48 365.92 220.162 366.33C220.851 366.739 221.423 367.356 221.878 368.182C222.332 369.008 222.56 370.114 222.56 371.5V383H219.878V380.636H219.741C219.56 381.015 219.257 381.42 218.832 381.852C218.408 382.284 217.844 382.652 217.139 382.955C216.435 383.258 215.575 383.409 214.56 383.409ZM214.969 381C216.029 381 216.923 380.792 217.651 380.375C218.385 379.958 218.938 379.42 219.31 378.761C219.688 378.102 219.878 377.409 219.878 376.682V374.227C219.764 374.364 219.514 374.489 219.128 374.602C218.749 374.708 218.31 374.803 217.81 374.886C217.317 374.962 216.836 375.03 216.366 375.091C215.904 375.144 215.529 375.189 215.241 375.227C214.545 375.318 213.893 375.466 213.287 375.67C212.688 375.867 212.204 376.167 211.832 376.568C211.469 376.962 211.287 377.5 211.287 378.182C211.287 379.114 211.632 379.818 212.321 380.295C213.018 380.765 213.901 381 214.969 381ZM230.136 359.727V383H227.455V359.727H230.136ZM237.73 359.727V383H235.048V359.727H237.73ZM249.96 383.364C248.278 383.364 246.828 382.992 245.608 382.25C244.396 381.5 243.46 380.455 242.801 379.114C242.15 377.765 241.824 376.197 241.824 374.409C241.824 372.621 242.15 371.045 242.801 369.682C243.46 368.311 244.377 367.242 245.551 366.477C246.733 365.705 248.112 365.318 249.688 365.318C250.597 365.318 251.494 365.47 252.381 365.773C253.267 366.076 254.074 366.568 254.801 367.25C255.528 367.924 256.108 368.818 256.54 369.932C256.972 371.045 257.188 372.417 257.188 374.045V375.182H243.733V372.864H254.46C254.46 371.879 254.263 371 253.869 370.227C253.483 369.455 252.93 368.845 252.21 368.398C251.498 367.951 250.657 367.727 249.688 367.727C248.619 367.727 247.695 367.992 246.915 368.523C246.142 369.045 245.547 369.727 245.131 370.568C244.714 371.409 244.506 372.311 244.506 373.273V374.818C244.506 376.136 244.733 377.254 245.188 378.17C245.65 379.08 246.29 379.773 247.108 380.25C247.926 380.72 248.877 380.955 249.96 380.955C250.665 380.955 251.301 380.856 251.869 380.659C252.445 380.455 252.941 380.152 253.358 379.75C253.775 379.341 254.097 378.833 254.324 378.227L256.915 378.955C256.642 379.833 256.184 380.606 255.54 381.273C254.896 381.932 254.1 382.447 253.153 382.818C252.206 383.182 251.142 383.364 249.96 383.364ZM273.631 369.455L271.222 370.136C271.07 369.735 270.847 369.345 270.551 368.966C270.263 368.58 269.869 368.261 269.369 368.011C268.869 367.761 268.229 367.636 267.449 367.636C266.381 367.636 265.491 367.883 264.778 368.375C264.074 368.86 263.722 369.477 263.722 370.227C263.722 370.894 263.964 371.42 264.449 371.807C264.934 372.193 265.691 372.515 266.722 372.773L269.312 373.409C270.873 373.788 272.036 374.367 272.801 375.148C273.566 375.92 273.949 376.917 273.949 378.136C273.949 379.136 273.661 380.03 273.085 380.818C272.517 381.606 271.722 382.227 270.699 382.682C269.676 383.136 268.487 383.364 267.131 383.364C265.35 383.364 263.877 382.977 262.71 382.205C261.544 381.432 260.805 380.303 260.494 378.818L263.04 378.182C263.282 379.121 263.741 379.826 264.415 380.295C265.097 380.765 265.987 381 267.085 381C268.335 381 269.328 380.735 270.062 380.205C270.805 379.667 271.176 379.023 271.176 378.273C271.176 377.667 270.964 377.159 270.54 376.75C270.116 376.333 269.464 376.023 268.585 375.818L265.676 375.136C264.078 374.758 262.903 374.17 262.153 373.375C261.411 372.572 261.04 371.568 261.04 370.364C261.04 369.379 261.316 368.508 261.869 367.75C262.43 366.992 263.191 366.398 264.153 365.966C265.123 365.534 266.222 365.318 267.449 365.318C269.176 365.318 270.532 365.697 271.517 366.455C272.509 367.212 273.214 368.212 273.631 369.455ZM285.577 365.545V367.818H276.531V365.545H285.577ZM279.168 361.364H281.849V378C281.849 378.758 281.959 379.326 282.179 379.705C282.406 380.076 282.694 380.326 283.043 380.455C283.399 380.576 283.774 380.636 284.168 380.636C284.463 380.636 284.705 380.621 284.895 380.591C285.084 380.553 285.236 380.523 285.349 380.5L285.895 382.909C285.713 382.977 285.459 383.045 285.134 383.114C284.808 383.189 284.395 383.227 283.895 383.227C283.137 383.227 282.395 383.064 281.668 382.739C280.948 382.413 280.349 381.917 279.872 381.25C279.402 380.583 279.168 379.742 279.168 378.727V361.364ZM301.293 372.5V383H298.611V365.545H301.202V368.273H301.429C301.838 367.386 302.459 366.674 303.293 366.136C304.126 365.591 305.202 365.318 306.52 365.318C307.702 365.318 308.736 365.561 309.622 366.045C310.509 366.523 311.198 367.25 311.69 368.227C312.183 369.197 312.429 370.424 312.429 371.909V383H309.747V372.091C309.747 370.72 309.391 369.652 308.679 368.886C307.967 368.114 306.99 367.727 305.747 367.727C304.891 367.727 304.126 367.913 303.452 368.284C302.785 368.655 302.259 369.197 301.872 369.909C301.486 370.621 301.293 371.485 301.293 372.5ZM328.33 375.864V365.545H331.011V383H328.33V380.045H328.148C327.739 380.932 327.102 381.686 326.239 382.307C325.375 382.92 324.284 383.227 322.966 383.227C321.875 383.227 320.905 382.989 320.057 382.511C319.208 382.027 318.542 381.299 318.057 380.33C317.572 379.352 317.33 378.121 317.33 376.636V365.545H320.011V376.455C320.011 377.727 320.367 378.742 321.08 379.5C321.799 380.258 322.716 380.636 323.83 380.636C324.496 380.636 325.174 380.466 325.864 380.125C326.561 379.784 327.144 379.261 327.614 378.557C328.091 377.852 328.33 376.955 328.33 375.864ZM335.923 383V365.545H338.514V368.273H338.741C339.105 367.341 339.692 366.617 340.503 366.102C341.313 365.58 342.287 365.318 343.423 365.318C344.575 365.318 345.533 365.58 346.298 366.102C347.071 366.617 347.673 367.341 348.105 368.273H348.287C348.734 367.371 349.404 366.655 350.298 366.125C351.192 365.587 352.264 365.318 353.514 365.318C355.075 365.318 356.351 365.807 357.344 366.784C358.336 367.754 358.832 369.265 358.832 371.318V383H356.151V371.318C356.151 370.03 355.798 369.11 355.094 368.557C354.389 368.004 353.56 367.727 352.605 367.727C351.378 367.727 350.427 368.098 349.753 368.841C349.079 369.576 348.741 370.508 348.741 371.636V383H346.014V371.045C346.014 370.053 345.692 369.254 345.048 368.648C344.404 368.034 343.575 367.727 342.56 367.727C341.863 367.727 341.211 367.913 340.605 368.284C340.007 368.655 339.522 369.17 339.151 369.83C338.787 370.481 338.605 371.235 338.605 372.091V383H335.923ZM364.099 383V359.727H366.781V368.318H367.009C367.205 368.015 367.478 367.629 367.827 367.159C368.183 366.682 368.69 366.258 369.349 365.886C370.016 365.508 370.918 365.318 372.054 365.318C373.524 365.318 374.819 365.686 375.94 366.42C377.062 367.155 377.937 368.197 378.565 369.545C379.194 370.894 379.509 372.485 379.509 374.318C379.509 376.167 379.194 377.769 378.565 379.125C377.937 380.473 377.065 381.519 375.952 382.261C374.838 382.996 373.554 383.364 372.099 383.364C370.978 383.364 370.08 383.178 369.406 382.807C368.732 382.428 368.213 382 367.849 381.523C367.486 381.038 367.205 380.636 367.009 380.318H366.69V383H364.099ZM366.736 374.273C366.736 375.591 366.929 376.754 367.315 377.761C367.702 378.761 368.266 379.545 369.009 380.114C369.751 380.674 370.66 380.955 371.736 380.955C372.857 380.955 373.793 380.659 374.543 380.068C375.3 379.47 375.868 378.667 376.247 377.659C376.634 376.644 376.827 375.515 376.827 374.273C376.827 373.045 376.637 371.939 376.259 370.955C375.887 369.962 375.323 369.178 374.565 368.602C373.815 368.019 372.872 367.727 371.736 367.727C370.645 367.727 369.728 368.004 368.986 368.557C368.243 369.102 367.683 369.867 367.304 370.852C366.925 371.83 366.736 372.97 366.736 374.273ZM390.929 383.364C389.247 383.364 387.796 382.992 386.577 382.25C385.365 381.5 384.429 380.455 383.77 379.114C383.118 377.765 382.793 376.197 382.793 374.409C382.793 372.621 383.118 371.045 383.77 369.682C384.429 368.311 385.346 367.242 386.52 366.477C387.702 365.705 389.08 365.318 390.656 365.318C391.565 365.318 392.463 365.47 393.349 365.773C394.236 366.076 395.043 366.568 395.77 367.25C396.497 367.924 397.077 368.818 397.509 369.932C397.94 371.045 398.156 372.417 398.156 374.045V375.182H384.702V372.864H395.429C395.429 371.879 395.232 371 394.838 370.227C394.452 369.455 393.899 368.845 393.179 368.398C392.467 367.951 391.626 367.727 390.656 367.727C389.588 367.727 388.664 367.992 387.884 368.523C387.111 369.045 386.516 369.727 386.099 370.568C385.683 371.409 385.474 372.311 385.474 373.273V374.818C385.474 376.136 385.702 377.254 386.156 378.17C386.618 379.08 387.259 379.773 388.077 380.25C388.895 380.72 389.846 380.955 390.929 380.955C391.634 380.955 392.27 380.856 392.838 380.659C393.414 380.455 393.91 380.152 394.327 379.75C394.743 379.341 395.065 378.833 395.293 378.227L397.884 378.955C397.611 379.833 397.152 380.606 396.509 381.273C395.865 381.932 395.069 382.447 394.122 382.818C393.175 383.182 392.111 383.364 390.929 383.364ZM402.236 383V365.545H404.827V368.182H405.009C405.327 367.318 405.902 366.617 406.736 366.08C407.569 365.542 408.509 365.273 409.554 365.273C409.751 365.273 409.997 365.277 410.293 365.284C410.588 365.292 410.812 365.303 410.963 365.318V368.045C410.872 368.023 410.664 367.989 410.338 367.943C410.02 367.89 409.683 367.864 409.327 367.864C408.478 367.864 407.721 368.042 407.054 368.398C406.395 368.746 405.872 369.231 405.486 369.852C405.107 370.466 404.918 371.167 404.918 371.955V383H402.236ZM423.142 383V365.545H425.824V383H423.142ZM424.506 362.636C423.983 362.636 423.532 362.458 423.153 362.102C422.782 361.746 422.597 361.318 422.597 360.818C422.597 360.318 422.782 359.89 423.153 359.534C423.532 359.178 423.983 359 424.506 359C425.028 359 425.475 359.178 425.847 359.534C426.225 359.89 426.415 360.318 426.415 360.818C426.415 361.318 426.225 361.746 425.847 362.102C425.475 362.458 425.028 362.636 424.506 362.636ZM443.099 369.455L440.69 370.136C440.539 369.735 440.315 369.345 440.02 368.966C439.732 368.58 439.338 368.261 438.838 368.011C438.338 367.761 437.698 367.636 436.918 367.636C435.849 367.636 434.959 367.883 434.247 368.375C433.543 368.86 433.19 369.477 433.19 370.227C433.19 370.894 433.433 371.42 433.918 371.807C434.402 372.193 435.16 372.515 436.19 372.773L438.781 373.409C440.342 373.788 441.505 374.367 442.27 375.148C443.035 375.92 443.418 376.917 443.418 378.136C443.418 379.136 443.13 380.03 442.554 380.818C441.986 381.606 441.19 382.227 440.168 382.682C439.145 383.136 437.955 383.364 436.599 383.364C434.819 383.364 433.346 382.977 432.179 382.205C431.012 381.432 430.274 380.303 429.963 378.818L432.509 378.182C432.751 379.121 433.209 379.826 433.884 380.295C434.565 380.765 435.455 381 436.554 381C437.804 381 438.796 380.735 439.531 380.205C440.274 379.667 440.645 379.023 440.645 378.273C440.645 377.667 440.433 377.159 440.009 376.75C439.584 376.333 438.933 376.023 438.054 375.818L435.145 375.136C433.546 374.758 432.372 374.17 431.622 373.375C430.88 372.572 430.509 371.568 430.509 370.364C430.509 369.379 430.785 368.508 431.338 367.75C431.899 366.992 432.66 366.398 433.622 365.966C434.592 365.534 435.69 365.318 436.918 365.318C438.645 365.318 440.001 365.697 440.986 366.455C441.978 367.212 442.683 368.212 443.099 369.455ZM464.591 359.727V383H461.773V362.682H461.636L455.955 366.455V363.591L461.773 359.727H464.591ZM471.284 383V380.955L478.966 372.545C479.867 371.561 480.61 370.705 481.193 369.977C481.777 369.242 482.208 368.553 482.489 367.909C482.777 367.258 482.92 366.576 482.92 365.864C482.92 365.045 482.723 364.337 482.33 363.739C481.943 363.14 481.413 362.678 480.739 362.352C480.064 362.027 479.307 361.864 478.466 361.864C477.572 361.864 476.792 362.049 476.125 362.42C475.466 362.784 474.955 363.295 474.591 363.955C474.235 364.614 474.057 365.386 474.057 366.273H471.375C471.375 364.909 471.689 363.712 472.318 362.682C472.947 361.652 473.803 360.848 474.886 360.273C475.977 359.697 477.201 359.409 478.557 359.409C479.92 359.409 481.129 359.697 482.182 360.273C483.235 360.848 484.061 361.625 484.659 362.602C485.258 363.58 485.557 364.667 485.557 365.864C485.557 366.72 485.402 367.557 485.091 368.375C484.788 369.186 484.258 370.091 483.5 371.091C482.75 372.083 481.708 373.295 480.375 374.727L475.148 380.318V380.5H485.966V383H471.284Z" fill="white"/>
<path d="M230.845 45V15.9091H250.106V20.9801H236.995V27.9119H248.828V32.983H236.995V45H230.845ZM254.13 45V23.1818H260.181V45H254.13ZM257.169 20.3693C256.27 20.3693 255.498 20.071 254.854 19.4744C254.22 18.8684 253.902 18.1439 253.902 17.3011C253.902 16.4678 254.22 15.7528 254.854 15.1562C255.498 14.5502 256.27 14.2472 257.169 14.2472C258.069 14.2472 258.836 14.5502 259.471 15.1562C260.114 15.7528 260.436 16.4678 260.436 17.3011C260.436 18.1439 260.114 18.8684 259.471 19.4744C258.836 20.071 258.069 20.3693 257.169 20.3693ZM265.028 45V23.1818H270.895V26.9886H271.122C271.52 25.6345 272.187 24.6117 273.125 23.9205C274.062 23.2197 275.142 22.8693 276.363 22.8693C276.666 22.8693 276.993 22.8883 277.343 22.9261C277.694 22.964 278.002 23.0161 278.267 23.0824V28.4517C277.983 28.3665 277.59 28.2907 277.088 28.2244C276.586 28.1581 276.127 28.125 275.71 28.125C274.82 28.125 274.024 28.3191 273.324 28.7074C272.632 29.0862 272.083 29.6165 271.676 30.2983C271.278 30.9801 271.079 31.7661 271.079 32.6562V45H265.028ZM299.549 29.4034L294.009 29.7443C293.914 29.2708 293.711 28.8447 293.398 28.4659C293.086 28.0777 292.674 27.7699 292.162 27.5426C291.66 27.3059 291.059 27.1875 290.358 27.1875C289.421 27.1875 288.63 27.3864 287.986 27.7841C287.342 28.1723 287.02 28.6932 287.02 29.3466C287.02 29.8674 287.229 30.3078 287.645 30.6676C288.062 31.0275 288.777 31.3163 289.79 31.5341L293.739 32.3295C295.86 32.7652 297.442 33.4659 298.483 34.4318C299.525 35.3977 300.046 36.6667 300.046 38.2386C300.046 39.6686 299.624 40.9233 298.782 42.0028C297.948 43.0824 296.802 43.9252 295.344 44.5312C293.895 45.1278 292.224 45.4261 290.33 45.4261C287.442 45.4261 285.141 44.8248 283.426 43.6222C281.722 42.41 280.723 40.7623 280.429 38.679L286.381 38.3665C286.561 39.2472 286.997 39.9195 287.688 40.3835C288.379 40.8381 289.265 41.0653 290.344 41.0653C291.405 41.0653 292.257 40.8617 292.901 40.4545C293.554 40.0379 293.886 39.5028 293.895 38.8494C293.886 38.3002 293.654 37.8504 293.199 37.5C292.745 37.1402 292.044 36.8655 291.097 36.6761L287.319 35.9233C285.188 35.4972 283.602 34.7585 282.56 33.7074C281.528 32.6562 281.012 31.3163 281.012 29.6875C281.012 28.286 281.391 27.0786 282.148 26.0653C282.915 25.0521 283.99 24.2708 285.373 23.7216C286.765 23.1723 288.393 22.8977 290.259 22.8977C293.015 22.8977 295.183 23.4801 296.765 24.6449C298.355 25.8097 299.283 27.3958 299.549 29.4034ZM315.461 23.1818V27.7273H302.322V23.1818H315.461ZM305.305 17.9545H311.356V38.2955C311.356 38.8542 311.441 39.2898 311.612 39.6023C311.782 39.9053 312.019 40.1184 312.322 40.2415C312.635 40.3646 312.994 40.4261 313.402 40.4261C313.686 40.4261 313.97 40.4025 314.254 40.3551C314.538 40.2983 314.756 40.2557 314.907 40.2273L315.859 44.7301C315.556 44.8248 315.13 44.9337 314.581 45.0568C314.031 45.1894 313.364 45.2699 312.578 45.2983C311.119 45.3551 309.841 45.161 308.743 44.7159C307.654 44.2708 306.806 43.5795 306.2 42.642C305.594 41.7045 305.296 40.5208 305.305 39.0909V17.9545ZM328.775 45V15.9091H340.252C342.458 15.9091 344.338 16.3305 345.891 17.1733C347.444 18.0066 348.628 19.1667 349.442 20.6534C350.266 22.1307 350.678 23.8352 350.678 25.767C350.678 27.6989 350.261 29.4034 349.428 30.8807C348.595 32.358 347.387 33.5085 345.806 34.3324C344.234 35.1562 342.33 35.5682 340.096 35.5682H332.78V30.6392H339.101C340.285 30.6392 341.26 30.4356 342.027 30.0284C342.804 29.6117 343.382 29.0388 343.76 28.3097C344.149 27.571 344.343 26.7235 344.343 25.767C344.343 24.8011 344.149 23.9583 343.76 23.2386C343.382 22.5095 342.804 21.946 342.027 21.5483C341.251 21.1411 340.266 20.9375 339.073 20.9375H334.925V45H328.775ZM360.195 45.4119C358.803 45.4119 357.562 45.1705 356.473 44.6875C355.384 44.1951 354.523 43.4706 353.888 42.5142C353.263 41.5483 352.951 40.3456 352.951 38.9062C352.951 37.6941 353.173 36.6761 353.618 35.8523C354.063 35.0284 354.669 34.3655 355.436 33.8636C356.203 33.3617 357.075 32.983 358.05 32.7273C359.035 32.4716 360.067 32.2917 361.147 32.1875C362.416 32.0549 363.438 31.9318 364.215 31.8182C364.991 31.6951 365.555 31.5152 365.905 31.2784C366.256 31.0417 366.431 30.6913 366.431 30.2273V30.142C366.431 29.2424 366.147 28.5464 365.578 28.054C365.02 27.5616 364.224 27.3153 363.192 27.3153C362.103 27.3153 361.237 27.5568 360.593 28.0398C359.949 28.5133 359.523 29.1098 359.314 29.8295L353.718 29.375C354.002 28.0492 354.56 26.9034 355.394 25.9375C356.227 24.9621 357.302 24.214 358.618 23.6932C359.944 23.1629 361.478 22.8977 363.221 22.8977C364.433 22.8977 365.593 23.0398 366.701 23.3239C367.818 23.608 368.808 24.0483 369.669 24.6449C370.541 25.2415 371.227 26.0085 371.729 26.946C372.231 27.8741 372.482 28.9867 372.482 30.2841V45H366.743V41.9744H366.573C366.222 42.6562 365.754 43.2576 365.167 43.7784C364.579 44.2898 363.874 44.6922 363.05 44.9858C362.226 45.2699 361.275 45.4119 360.195 45.4119ZM361.928 41.2358C362.818 41.2358 363.604 41.0606 364.286 40.7102C364.968 40.3504 365.503 39.8674 365.891 39.2614C366.279 38.6553 366.473 37.9687 366.473 37.2017V34.8864C366.284 35.0095 366.024 35.1231 365.692 35.2273C365.37 35.322 365.006 35.4119 364.598 35.4972C364.191 35.5729 363.784 35.6439 363.377 35.7102C362.97 35.767 362.6 35.8191 362.269 35.8665C361.559 35.9706 360.938 36.1364 360.408 36.3636C359.878 36.5909 359.466 36.8987 359.172 37.2869C358.879 37.6657 358.732 38.1392 358.732 38.7074C358.732 39.5312 359.03 40.161 359.627 40.5966C360.233 41.0227 361 41.2358 361.928 41.2358ZM395.33 29.4034L389.79 29.7443C389.695 29.2708 389.492 28.8447 389.179 28.4659C388.867 28.0777 388.455 27.7699 387.944 27.5426C387.442 27.3059 386.84 27.1875 386.14 27.1875C385.202 27.1875 384.411 27.3864 383.767 27.7841C383.123 28.1723 382.801 28.6932 382.801 29.3466C382.801 29.8674 383.01 30.3078 383.426 30.6676C383.843 31.0275 384.558 31.3163 385.571 31.5341L389.52 32.3295C391.641 32.7652 393.223 33.4659 394.265 34.4318C395.306 35.3977 395.827 36.6667 395.827 38.2386C395.827 39.6686 395.406 40.9233 394.563 42.0028C393.73 43.0824 392.584 43.9252 391.125 44.5312C389.676 45.1278 388.005 45.4261 386.111 45.4261C383.223 45.4261 380.922 44.8248 379.208 43.6222C377.503 42.41 376.504 40.7623 376.211 38.679L382.162 38.3665C382.342 39.2472 382.778 39.9195 383.469 40.3835C384.16 40.8381 385.046 41.0653 386.125 41.0653C387.186 41.0653 388.038 40.8617 388.682 40.4545C389.336 40.0379 389.667 39.5028 389.676 38.8494C389.667 38.3002 389.435 37.8504 388.98 37.5C388.526 37.1402 387.825 36.8655 386.878 36.6761L383.1 35.9233C380.969 35.4972 379.383 34.7585 378.341 33.7074C377.309 32.6562 376.793 31.3163 376.793 29.6875C376.793 28.286 377.172 27.0786 377.929 26.0653C378.696 25.0521 379.771 24.2708 381.154 23.7216C382.546 23.1723 384.175 22.8977 386.04 22.8977C388.796 22.8977 390.964 23.4801 392.546 24.6449C394.137 25.8097 395.065 27.3958 395.33 29.4034ZM417.791 29.4034L412.251 29.7443C412.156 29.2708 411.953 28.8447 411.64 28.4659C411.328 28.0777 410.916 27.7699 410.404 27.5426C409.903 27.3059 409.301 27.1875 408.6 27.1875C407.663 27.1875 406.872 27.3864 406.228 27.7841C405.584 28.1723 405.262 28.6932 405.262 29.3466C405.262 29.8674 405.471 30.3078 405.887 30.6676C406.304 31.0275 407.019 31.3163 408.032 31.5341L411.981 32.3295C414.102 32.7652 415.684 33.4659 416.725 34.4318C417.767 35.3977 418.288 36.6667 418.288 38.2386C418.288 39.6686 417.867 40.9233 417.024 42.0028C416.19 43.0824 415.045 43.9252 413.586 44.5312C412.137 45.1278 410.466 45.4261 408.572 45.4261C405.684 45.4261 403.383 44.8248 401.669 43.6222C399.964 42.41 398.965 40.7623 398.672 38.679L404.623 38.3665C404.803 39.2472 405.239 39.9195 405.93 40.3835C406.621 40.8381 407.507 41.0653 408.586 41.0653C409.647 41.0653 410.499 40.8617 411.143 40.4545C411.797 40.0379 412.128 39.5028 412.137 38.8494C412.128 38.3002 411.896 37.8504 411.441 37.5C410.987 37.1402 410.286 36.8655 409.339 36.6761L405.561 35.9233C403.43 35.4972 401.844 34.7585 400.802 33.7074C399.77 32.6562 399.254 31.3163 399.254 29.6875C399.254 28.286 399.633 27.0786 400.39 26.0653C401.157 25.0521 402.232 24.2708 403.615 23.7216C405.007 23.1723 406.636 22.8977 408.501 22.8977C411.257 22.8977 413.425 23.4801 415.007 24.6449C416.598 25.8097 417.526 27.3958 417.791 29.4034Z" fill="white"/>
<path d="M432.497 200.398C430.622 200.398 428.951 200.076 427.483 199.432C426.025 198.788 424.865 197.893 424.003 196.747C423.151 195.592 422.687 194.252 422.611 192.727H426.19C426.266 193.665 426.588 194.474 427.156 195.156C427.724 195.829 428.468 196.349 429.386 196.719C430.305 197.088 431.323 197.273 432.44 197.273C433.69 197.273 434.798 197.055 435.764 196.619C436.73 196.184 437.488 195.578 438.037 194.801C438.586 194.025 438.861 193.125 438.861 192.102C438.861 191.032 438.596 190.09 438.065 189.276C437.535 188.452 436.759 187.808 435.736 187.344C434.713 186.88 433.463 186.648 431.986 186.648H429.656V183.523H431.986C433.141 183.523 434.154 183.314 435.026 182.898C435.906 182.481 436.593 181.894 437.085 181.136C437.587 180.379 437.838 179.489 437.838 178.466C437.838 177.481 437.62 176.624 437.185 175.895C436.749 175.166 436.134 174.598 435.338 174.19C434.552 173.783 433.624 173.58 432.554 173.58C431.55 173.58 430.603 173.764 429.713 174.134C428.832 174.493 428.113 175.019 427.554 175.71C426.995 176.392 426.692 177.216 426.645 178.182H423.236C423.293 176.657 423.752 175.322 424.614 174.176C425.475 173.021 426.602 172.121 427.994 171.477C429.396 170.833 430.935 170.511 432.611 170.511C434.41 170.511 435.954 170.876 437.241 171.605C438.529 172.325 439.519 173.277 440.21 174.46C440.902 175.644 441.247 176.922 441.247 178.295C441.247 179.934 440.816 181.33 439.955 182.486C439.102 183.641 437.942 184.441 436.474 184.886V185.114C438.312 185.417 439.746 186.198 440.778 187.457C441.811 188.707 442.327 190.256 442.327 192.102C442.327 193.684 441.896 195.104 441.034 196.364C440.182 197.614 439.017 198.598 437.54 199.318C436.063 200.038 434.382 200.398 432.497 200.398ZM448.136 200V197.443L457.739 186.932C458.866 185.701 459.794 184.631 460.523 183.722C461.252 182.803 461.792 181.941 462.142 181.136C462.502 180.322 462.682 179.47 462.682 178.58C462.682 177.557 462.436 176.671 461.943 175.923C461.46 175.175 460.797 174.598 459.955 174.19C459.112 173.783 458.165 173.58 457.114 173.58C455.996 173.58 455.021 173.812 454.188 174.276C453.364 174.73 452.724 175.369 452.27 176.193C451.825 177.017 451.602 177.983 451.602 179.091H448.25C448.25 177.386 448.643 175.89 449.429 174.602C450.215 173.314 451.285 172.311 452.639 171.591C454.003 170.871 455.532 170.511 457.227 170.511C458.932 170.511 460.442 170.871 461.759 171.591C463.075 172.311 464.107 173.281 464.855 174.503C465.603 175.724 465.977 177.083 465.977 178.58C465.977 179.65 465.783 180.696 465.395 181.719C465.016 182.732 464.353 183.864 463.406 185.114C462.469 186.354 461.167 187.869 459.5 189.659L452.966 196.648V196.875H466.489V200H448.136Z" fill="white"/>
<path d="M432.497 650.398C430.622 650.398 428.951 650.076 427.483 649.432C426.025 648.788 424.865 647.893 424.003 646.747C423.151 645.592 422.687 644.252 422.611 642.727H426.19C426.266 643.665 426.588 644.474 427.156 645.156C427.724 645.829 428.468 646.349 429.386 646.719C430.305 647.088 431.323 647.273 432.44 647.273C433.69 647.273 434.798 647.055 435.764 646.619C436.73 646.184 437.488 645.578 438.037 644.801C438.586 644.025 438.861 643.125 438.861 642.102C438.861 641.032 438.596 640.09 438.065 639.276C437.535 638.452 436.759 637.808 435.736 637.344C434.713 636.88 433.463 636.648 431.986 636.648H429.656V633.523H431.986C433.141 633.523 434.154 633.314 435.026 632.898C435.906 632.481 436.593 631.894 437.085 631.136C437.587 630.379 437.838 629.489 437.838 628.466C437.838 627.481 437.62 626.624 437.185 625.895C436.749 625.166 436.134 624.598 435.338 624.19C434.552 623.783 433.624 623.58 432.554 623.58C431.55 623.58 430.603 623.764 429.713 624.134C428.832 624.493 428.113 625.019 427.554 625.71C426.995 626.392 426.692 627.216 426.645 628.182H423.236C423.293 626.657 423.752 625.322 424.614 624.176C425.475 623.021 426.602 622.121 427.994 621.477C429.396 620.833 430.935 620.511 432.611 620.511C434.41 620.511 435.954 620.876 437.241 621.605C438.529 622.325 439.519 623.277 440.21 624.46C440.902 625.644 441.247 626.922 441.247 628.295C441.247 629.934 440.816 631.33 439.955 632.486C439.102 633.641 437.942 634.441 436.474 634.886V635.114C438.312 635.417 439.746 636.198 440.778 637.457C441.811 638.707 442.327 640.256 442.327 642.102C442.327 643.684 441.896 645.104 441.034 646.364C440.182 647.614 439.017 648.598 437.54 649.318C436.063 650.038 434.382 650.398 432.497 650.398ZM448.136 650V647.443L457.739 636.932C458.866 635.701 459.794 634.631 460.523 633.722C461.252 632.803 461.792 631.941 462.142 631.136C462.502 630.322 462.682 629.47 462.682 628.58C462.682 627.557 462.436 626.671 461.943 625.923C461.46 625.175 460.797 624.598 459.955 624.19C459.112 623.783 458.165 623.58 457.114 623.58C455.996 623.58 455.021 623.812 454.188 624.276C453.364 624.73 452.724 625.369 452.27 626.193C451.825 627.017 451.602 627.983 451.602 629.091H448.25C448.25 627.386 448.643 625.89 449.429 624.602C450.215 623.314 451.285 622.311 452.639 621.591C454.003 620.871 455.532 620.511 457.227 620.511C458.932 620.511 460.442 620.871 461.759 621.591C463.075 622.311 464.107 623.281 464.855 624.503C465.603 625.724 465.977 627.083 465.977 628.58C465.977 629.65 465.783 630.696 465.395 631.719C465.016 632.732 464.353 633.864 463.406 635.114C462.469 636.354 461.167 637.869 459.5 639.659L452.966 646.648V646.875H466.489V650H448.136Z" fill="white"/>
<path d="M556.332 170.909V200H552.81V174.602H552.639L545.537 179.318V175.739L552.81 170.909H556.332ZM564.699 200V197.443L574.301 186.932C575.428 185.701 576.356 184.631 577.085 183.722C577.814 182.803 578.354 181.941 578.705 181.136C579.064 180.322 579.244 179.47 579.244 178.58C579.244 177.557 578.998 176.671 578.506 175.923C578.023 175.175 577.36 174.598 576.517 174.19C575.674 173.783 574.727 173.58 573.676 173.58C572.559 173.58 571.583 173.812 570.75 174.276C569.926 174.73 569.287 175.369 568.832 176.193C568.387 177.017 568.165 177.983 568.165 179.091H564.812C564.812 177.386 565.205 175.89 565.991 174.602C566.777 173.314 567.848 172.311 569.202 171.591C570.565 170.871 572.095 170.511 573.79 170.511C575.494 170.511 577.005 170.871 578.321 171.591C579.637 172.311 580.67 173.281 581.418 174.503C582.166 175.724 582.54 177.083 582.54 178.58C582.54 179.65 582.346 180.696 581.957 181.719C581.579 182.732 580.916 183.864 579.969 185.114C579.031 186.354 577.729 187.869 576.062 189.659L569.528 196.648V196.875H583.051V200H564.699Z" fill="white"/>
<path d="M543.976 650V647.443L553.578 636.932C554.705 635.701 555.633 634.631 556.363 633.722C557.092 632.803 557.632 631.941 557.982 631.136C558.342 630.322 558.522 629.47 558.522 628.58C558.522 627.557 558.275 626.671 557.783 625.923C557.3 625.175 556.637 624.598 555.794 624.19C554.952 623.783 554.005 623.58 552.953 623.58C551.836 623.58 550.861 623.812 550.027 624.276C549.203 624.73 548.564 625.369 548.11 626.193C547.665 627.017 547.442 627.983 547.442 629.091H544.09C544.09 627.386 544.483 625.89 545.269 624.602C546.055 623.314 547.125 622.311 548.479 621.591C549.843 620.871 551.372 620.511 553.067 620.511C554.772 620.511 556.282 620.871 557.598 621.591C558.915 622.311 559.947 623.281 560.695 624.503C561.443 625.724 561.817 627.083 561.817 628.58C561.817 629.65 561.623 630.696 561.235 631.719C560.856 632.732 560.193 633.864 559.246 635.114C558.309 636.354 557.007 637.869 555.34 639.659L548.806 646.648V646.875H562.328V650H543.976ZM569.104 650L582.115 624.261V624.034H567.115V620.909H585.752V624.205L572.797 650H569.104Z" fill="white"/>
<line x1="84" y1="278" x2="84" y2="316" stroke="white" stroke-width="2"/>
<line x1="205" y1="278" x2="205" y2="316" stroke="white" stroke-width="2"/>
<line x1="324" y1="278" x2="324" y2="316" stroke="white" stroke-width="2"/>
<line x1="445" y1="278" x2="445" y2="316" stroke="white" stroke-width="2"/>
<line x1="565" y1="278" x2="565" y2="316" stroke="white" stroke-width="2"/>
<line x1="83" y1="317" x2="566" y2="317" stroke="white" stroke-width="2"/>
<path d="M321.939 520.061C322.525 520.646 323.475 520.646 324.061 520.061L333.607 510.515C334.192 509.929 334.192 508.979 333.607 508.393C333.021 507.808 332.071 507.808 331.485 508.393L323 516.879L314.515 508.393C313.929 507.808 312.979 507.808 312.393 508.393C311.808 508.979 311.808 509.929 312.393 510.515L321.939 520.061ZM323 434L321.5 434L321.5 519L323 519L324.5 519L324.5 434L323 434Z" fill="white"/>
</svg>
