<svg width="648" height="213" viewBox="0 0 648 213" fill="none" xmlns="http://www.w3.org/2000/svg">
<rect x="25" y="92" width="599" height="120" rx="26" stroke="#DBDBDB" stroke-width="2"/>
<line x1="145" y1="91" x2="145" y2="213" stroke="#DBDBDB" stroke-width="2"/>
<line x1="265" y1="91" x2="265" y2="213" stroke="#DBDBDB" stroke-width="2"/>
<line x1="386" y1="91" x2="386" y2="213" stroke="#DBDBDB" stroke-width="2"/>
<line x1="506" y1="91" x2="506" y2="213" stroke="#DBDBDB" stroke-width="2"/>
<path d="M62.9762 166V163.443L72.5785 152.932C73.7054 151.701 74.6334 150.631 75.3626 149.722C76.0917 148.803 76.6315 147.941 76.9819 147.136C77.3417 146.322 77.5217 145.47 77.5217 144.58C77.5217 143.557 77.2755 142.671 76.783 141.923C76.3001 141.175 75.6372 140.598 74.7944 140.19C73.9516 139.783 73.0046 139.58 71.9535 139.58C70.8361 139.58 69.8607 139.812 69.0273 140.276C68.2035 140.73 67.5643 141.369 67.1097 142.193C66.6647 143.017 66.4421 143.983 66.4421 145.091H63.0898C63.0898 143.386 63.4828 141.89 64.2688 140.602C65.0548 139.314 66.1249 138.311 67.479 137.591C68.8427 136.871 70.372 136.511 72.0671 136.511C73.7717 136.511 75.2821 136.871 76.5984 137.591C77.9147 138.311 78.9469 139.281 79.695 140.503C80.4431 141.724 80.8171 143.083 80.8171 144.58C80.8171 145.65 80.623 146.696 80.2347 147.719C79.8559 148.732 79.1931 149.864 78.2461 151.114C77.3086 152.354 76.0065 153.869 74.3398 155.659L67.8058 162.648V162.875H81.3285V166H62.9762ZM88.104 166L101.115 140.261V140.034H86.1154V136.909H104.752V140.205L91.7972 166H88.104Z" fill="white"/>
<path d="M181.572 160.034V157.136L194.356 136.909H196.458V141.398H195.038L185.379 156.682V156.909H202.594V160.034H181.572ZM195.265 166V159.153V157.804V136.909H198.617V166H195.265ZM208.827 166L221.838 140.261V140.034H206.838V136.909H225.474V140.205L212.52 166H208.827Z" fill="white"/>
<path d="M314.961 136.909V166H311.439V140.602H311.268L304.166 145.318V141.739L311.439 136.909H314.961ZM332.589 136.511C333.782 136.521 334.975 136.748 336.169 137.193C337.362 137.638 338.451 138.377 339.436 139.409C340.421 140.432 341.211 141.829 341.808 143.599C342.404 145.37 342.703 147.591 342.703 150.261C342.703 152.847 342.457 155.143 341.964 157.151C341.481 159.149 340.78 160.834 339.862 162.207C338.953 163.58 337.845 164.622 336.538 165.332C335.241 166.043 333.773 166.398 332.135 166.398C330.506 166.398 329.052 166.076 327.774 165.432C326.505 164.778 325.463 163.874 324.649 162.719C323.844 161.554 323.328 160.205 323.1 158.67H326.566C326.879 160.006 327.499 161.109 328.427 161.98C329.365 162.842 330.6 163.273 332.135 163.273C334.379 163.273 336.15 162.293 337.447 160.332C338.754 158.372 339.407 155.602 339.407 152.023H339.18C338.65 152.818 338.02 153.505 337.291 154.082C336.562 154.66 335.752 155.105 334.862 155.418C333.972 155.73 333.025 155.886 332.021 155.886C330.354 155.886 328.825 155.474 327.433 154.651C326.05 153.817 324.942 152.676 324.109 151.227C323.285 149.769 322.873 148.102 322.873 146.227C322.873 144.447 323.271 142.818 324.066 141.341C324.871 139.854 325.998 138.67 327.447 137.79C328.905 136.909 330.619 136.483 332.589 136.511ZM332.589 139.636C331.396 139.636 330.321 139.935 329.365 140.531C328.418 141.118 327.665 141.914 327.106 142.918C326.557 143.912 326.282 145.015 326.282 146.227C326.282 147.439 326.547 148.543 327.078 149.537C327.618 150.522 328.351 151.308 329.279 151.895C330.217 152.473 331.282 152.761 332.475 152.761C333.375 152.761 334.213 152.586 334.99 152.236C335.766 151.876 336.443 151.388 337.021 150.773C337.608 150.148 338.067 149.442 338.399 148.656C338.73 147.861 338.896 147.032 338.896 146.17C338.896 145.034 338.621 143.969 338.072 142.974C337.532 141.98 336.784 141.175 335.828 140.56C334.881 139.944 333.801 139.636 332.589 139.636Z" fill="white"/>
<path d="M158.814 15.9091H164.964V34.8011C164.964 36.9223 164.458 38.7784 163.444 40.3693C162.44 41.9602 161.034 43.2008 159.225 44.0909C157.417 44.9716 155.31 45.4119 152.904 45.4119C150.49 45.4119 148.378 44.9716 146.569 44.0909C144.761 43.2008 143.354 41.9602 142.35 40.3693C141.347 38.7784 140.845 36.9223 140.845 34.8011V15.9091H146.995V34.2756C146.995 35.3835 147.237 36.3684 147.72 37.2301C148.212 38.0919 148.904 38.7689 149.794 39.2614C150.684 39.7538 151.721 40 152.904 40C154.098 40 155.135 39.7538 156.015 39.2614C156.905 38.7689 157.592 38.0919 158.075 37.2301C158.567 36.3684 158.814 35.3835 158.814 34.2756V15.9091ZM175.962 32.3864V45H169.911V23.1818H175.678V27.0312H175.934C176.417 25.7623 177.226 24.7585 178.363 24.0199C179.499 23.2718 180.877 22.8977 182.496 22.8977C184.011 22.8977 185.332 23.2292 186.459 23.892C187.586 24.5549 188.462 25.5019 189.087 26.733C189.712 27.9545 190.025 29.4129 190.025 31.108V45H183.973V32.1875C183.983 30.8523 183.642 29.8106 182.951 29.0625C182.259 28.3049 181.308 27.9261 180.096 27.9261C179.281 27.9261 178.561 28.1013 177.936 28.4517C177.321 28.8021 176.838 29.3134 176.488 29.9858C176.147 30.6487 175.971 31.4489 175.962 32.3864ZM212.947 29.4034L207.407 29.7443C207.313 29.2708 207.109 28.8447 206.797 28.4659C206.484 28.0777 206.072 27.7699 205.561 27.5426C205.059 27.3059 204.458 27.1875 203.757 27.1875C202.819 27.1875 202.029 27.3864 201.385 27.7841C200.741 28.1723 200.419 28.6932 200.419 29.3466C200.419 29.8674 200.627 30.3078 201.044 30.6676C201.46 31.0275 202.175 31.3163 203.189 31.5341L207.137 32.3295C209.259 32.7652 210.84 33.4659 211.882 34.4318C212.923 35.3977 213.444 36.6667 213.444 38.2386C213.444 39.6686 213.023 40.9233 212.18 42.0028C211.347 43.0824 210.201 43.9252 208.743 44.5312C207.294 45.1278 205.622 45.4261 203.728 45.4261C200.84 45.4261 198.539 44.8248 196.825 43.6222C195.12 42.41 194.121 40.7623 193.828 38.679L199.779 38.3665C199.959 39.2472 200.395 39.9195 201.086 40.3835C201.778 40.8381 202.663 41.0653 203.743 41.0653C204.803 41.0653 205.655 40.8617 206.299 40.4545C206.953 40.0379 207.284 39.5028 207.294 38.8494C207.284 38.3002 207.052 37.8504 206.598 37.5C206.143 37.1402 205.442 36.8655 204.495 36.6761L200.717 35.9233C198.586 35.4972 197 34.7585 195.958 33.7074C194.926 32.6562 194.41 31.3163 194.41 29.6875C194.41 28.286 194.789 27.0786 195.547 26.0653C196.314 25.0521 197.388 24.2708 198.771 23.7216C200.163 23.1723 201.792 22.8977 203.657 22.8977C206.413 22.8977 208.582 23.4801 210.163 24.6449C211.754 25.8097 212.682 27.3958 212.947 29.4034ZM227.113 45.4261C224.906 45.4261 222.998 44.9574 221.388 44.0199C219.788 43.0729 218.552 41.7566 217.681 40.071C216.81 38.3759 216.374 36.411 216.374 34.1761C216.374 31.9223 216.81 29.9527 217.681 28.267C218.552 26.572 219.788 25.2557 221.388 24.3182C222.998 23.3712 224.906 22.8977 227.113 22.8977C229.319 22.8977 231.222 23.3712 232.823 24.3182C234.433 25.2557 235.673 26.572 236.544 28.267C237.416 29.9527 237.851 31.9223 237.851 34.1761C237.851 36.411 237.416 38.3759 236.544 40.071C235.673 41.7566 234.433 43.0729 232.823 44.0199C231.222 44.9574 229.319 45.4261 227.113 45.4261ZM227.141 40.7386C228.145 40.7386 228.983 40.4545 229.655 39.8864C230.328 39.3087 230.834 38.5227 231.175 37.5284C231.525 36.5341 231.701 35.4025 231.701 34.1335C231.701 32.8646 231.525 31.733 231.175 30.7386C230.834 29.7443 230.328 28.9583 229.655 28.3807C228.983 27.803 228.145 27.5142 227.141 27.5142C226.128 27.5142 225.275 27.803 224.584 28.3807C223.902 28.9583 223.386 29.7443 223.036 30.7386C222.695 31.733 222.525 32.8646 222.525 34.1335C222.525 35.4025 222.695 36.5341 223.036 37.5284C223.386 38.5227 223.902 39.3087 224.584 39.8864C225.275 40.4545 226.128 40.7386 227.141 40.7386ZM241.786 45V23.1818H247.652V26.9886H247.88C248.277 25.6345 248.945 24.6117 249.882 23.9205C250.82 23.2197 251.9 22.8693 253.121 22.8693C253.424 22.8693 253.751 22.8883 254.101 22.9261C254.452 22.964 254.759 23.0161 255.025 23.0824V28.4517C254.74 28.3665 254.347 28.2907 253.846 28.2244C253.344 28.1581 252.884 28.125 252.468 28.125C251.578 28.125 250.782 28.3191 250.081 28.7074C249.39 29.0862 248.841 29.6165 248.434 30.2983C248.036 30.9801 247.837 31.7661 247.837 32.6562V45H241.786ZM270.852 23.1818V27.7273H257.713V23.1818H270.852ZM260.696 17.9545H266.747V38.2955C266.747 38.8542 266.832 39.2898 267.002 39.6023C267.173 39.9053 267.41 40.1184 267.713 40.2415C268.025 40.3646 268.385 40.4261 268.792 40.4261C269.076 40.4261 269.36 40.4025 269.645 40.3551C269.929 40.2983 270.146 40.2557 270.298 40.2273L271.25 44.7301C270.947 44.8248 270.52 44.9337 269.971 45.0568C269.422 45.1894 268.754 45.2699 267.968 45.2983C266.51 45.3551 265.232 45.161 264.133 44.7159C263.044 44.2708 262.197 43.5795 261.591 42.642C260.984 41.7045 260.686 40.5208 260.696 39.0909V17.9545ZM284.502 45.4261C282.258 45.4261 280.326 44.9716 278.707 44.0625C277.097 43.1439 275.857 41.8466 274.985 40.1705C274.114 38.4848 273.679 36.4915 273.679 34.1903C273.679 31.946 274.114 29.9763 274.985 28.2812C275.857 26.5862 277.083 25.2652 278.664 24.3182C280.255 23.3712 282.121 22.8977 284.261 22.8977C285.7 22.8977 287.04 23.1297 288.281 23.5938C289.531 24.0483 290.62 24.7348 291.548 25.6534C292.485 26.572 293.215 27.7273 293.735 29.1193C294.256 30.5019 294.517 32.1212 294.517 33.9773V35.6392H276.093V31.8892H288.821C288.821 31.018 288.631 30.2462 288.252 29.5739C287.874 28.9015 287.348 28.3759 286.676 27.9972C286.013 27.6089 285.241 27.4148 284.36 27.4148C283.442 27.4148 282.627 27.6278 281.917 28.054C281.217 28.4706 280.667 29.0341 280.27 29.7443C279.872 30.4451 279.668 31.2263 279.659 32.0881V35.6534C279.659 36.733 279.858 37.6657 280.255 38.4517C280.663 39.2377 281.235 39.8438 281.974 40.2699C282.713 40.696 283.589 40.9091 284.602 40.9091C285.274 40.9091 285.89 40.8144 286.449 40.625C287.007 40.4356 287.485 40.1515 287.883 39.7727C288.281 39.3939 288.584 38.9299 288.792 38.3807L294.389 38.75C294.105 40.0947 293.522 41.2689 292.642 42.2727C291.77 43.267 290.644 44.0436 289.261 44.6023C287.888 45.1515 286.302 45.4261 284.502 45.4261ZM306.505 45.3551C304.848 45.3551 303.347 44.929 302.002 44.0767C300.667 43.215 299.607 41.9508 298.821 40.2841C298.044 38.608 297.656 36.553 297.656 34.1193C297.656 31.6193 298.058 29.5407 298.863 27.8835C299.668 26.2169 300.738 24.9716 302.074 24.1477C303.418 23.3144 304.891 22.8977 306.491 22.8977C307.713 22.8977 308.731 23.1061 309.545 23.5227C310.369 23.9299 311.032 24.4413 311.534 25.0568C312.045 25.6629 312.433 26.2595 312.699 26.8466H312.883V15.9091H318.92V45H312.954V41.5057H312.699C312.414 42.1117 312.012 42.7131 311.491 43.3097C310.98 43.8968 310.312 44.3845 309.488 44.7727C308.674 45.161 307.68 45.3551 306.505 45.3551ZM308.423 40.5398C309.398 40.5398 310.222 40.2746 310.895 39.7443C311.576 39.2045 312.097 38.4517 312.457 37.4858C312.826 36.5199 313.011 35.3883 313.011 34.0909C313.011 32.7936 312.831 31.6667 312.471 30.7102C312.111 29.7538 311.591 29.0152 310.909 28.4943C310.227 27.9735 309.398 27.7131 308.423 27.7131C307.429 27.7131 306.591 27.983 305.909 28.5227C305.227 29.0625 304.711 29.8106 304.36 30.767C304.01 31.7235 303.835 32.8314 303.835 34.0909C303.835 35.3598 304.01 36.482 304.36 37.4574C304.72 38.4233 305.236 39.1809 305.909 39.7301C306.591 40.2699 307.429 40.5398 308.423 40.5398ZM357.599 15.9091V45H352.287L339.63 26.6903H339.417V45H333.267V15.9091H338.664L351.221 34.2045H351.477V15.9091H357.599ZM376.559 35.7102V23.1818H382.61V45H376.8V41.0369H376.573C376.08 42.3153 375.261 43.3428 374.115 44.1193C372.979 44.8958 371.592 45.2841 369.953 45.2841C368.495 45.2841 367.212 44.9527 366.104 44.2898C364.996 43.6269 364.13 42.6847 363.505 41.4631C362.889 40.2415 362.577 38.7784 362.567 37.0739V23.1818H368.618V35.9943C368.628 37.2822 368.973 38.3002 369.655 39.0483C370.337 39.7964 371.251 40.1705 372.397 40.1705C373.126 40.1705 373.808 40.0047 374.442 39.6733C375.077 39.3324 375.588 38.8305 375.976 38.1676C376.374 37.5047 376.568 36.6856 376.559 35.7102ZM387.45 45V23.1818H393.217V27.0312H393.473C393.927 25.7528 394.685 24.7443 395.745 24.0057C396.806 23.267 398.075 22.8977 399.552 22.8977C401.048 22.8977 402.322 23.2718 403.373 24.0199C404.424 24.7585 405.125 25.7623 405.475 27.0312H405.703C406.148 25.7812 406.953 24.7822 408.118 24.0341C409.292 23.2765 410.679 22.8977 412.279 22.8977C414.315 22.8977 415.968 23.5464 417.237 24.8438C418.515 26.1316 419.154 27.9593 419.154 30.3267V45H413.118V31.5199C413.118 30.3078 412.796 29.3987 412.152 28.7926C411.508 28.1866 410.703 27.8835 409.737 27.8835C408.638 27.8835 407.781 28.2339 407.166 28.9347C406.55 29.6259 406.243 30.5398 406.243 31.6761V45H400.376V31.392C400.376 30.322 400.068 29.4697 399.453 28.8352C398.847 28.2008 398.047 27.8835 397.052 27.8835C396.38 27.8835 395.774 28.054 395.234 28.3949C394.704 28.7263 394.282 29.1951 393.97 29.8011C393.657 30.3977 393.501 31.0985 393.501 31.9034V45H387.45ZM424.048 45V15.9091H430.099V26.8466H430.284C430.549 26.2595 430.932 25.6629 431.434 25.0568C431.946 24.4413 432.609 23.9299 433.423 23.5227C434.247 23.1061 435.27 22.8977 436.491 22.8977C438.082 22.8977 439.55 23.3144 440.895 24.1477C442.239 24.9716 443.314 26.2169 444.119 27.8835C444.924 29.5407 445.326 31.6193 445.326 34.1193C445.326 36.553 444.933 38.608 444.147 40.2841C443.371 41.9508 442.31 43.215 440.966 44.0767C439.63 44.929 438.134 45.3551 436.477 45.3551C435.303 45.3551 434.304 45.161 433.48 44.7727C432.665 44.3845 431.998 43.8968 431.477 43.3097C430.956 42.7131 430.558 42.1117 430.284 41.5057H430.014V45H424.048ZM429.971 34.0909C429.971 35.3883 430.151 36.5199 430.511 37.4858C430.871 38.4517 431.392 39.2045 432.074 39.7443C432.755 40.2746 433.584 40.5398 434.559 40.5398C435.544 40.5398 436.377 40.2699 437.059 39.7301C437.741 39.1809 438.257 38.4233 438.608 37.4574C438.967 36.482 439.147 35.3598 439.147 34.0909C439.147 32.8314 438.972 31.7235 438.622 30.767C438.271 29.8106 437.755 29.0625 437.074 28.5227C436.392 27.983 435.554 27.7131 434.559 27.7131C433.574 27.7131 432.741 27.9735 432.059 28.4943C431.387 29.0152 430.871 29.7538 430.511 30.7102C430.151 31.6667 429.971 32.7936 429.971 34.0909ZM459.307 45.4261C457.063 45.4261 455.131 44.9716 453.512 44.0625C451.902 43.1439 450.661 41.8466 449.79 40.1705C448.919 38.4848 448.483 36.4915 448.483 34.1903C448.483 31.946 448.919 29.9763 449.79 28.2812C450.661 26.5862 451.888 25.2652 453.469 24.3182C455.06 23.3712 456.926 22.8977 459.066 22.8977C460.505 22.8977 461.845 23.1297 463.086 23.5938C464.336 24.0483 465.425 24.7348 466.353 25.6534C467.29 26.572 468.019 27.7273 468.54 29.1193C469.061 30.5019 469.321 32.1212 469.321 33.9773V35.6392H450.898V31.8892H463.625C463.625 31.018 463.436 30.2462 463.057 29.5739C462.678 28.9015 462.153 28.3759 461.48 27.9972C460.818 27.6089 460.046 27.4148 459.165 27.4148C458.247 27.4148 457.432 27.6278 456.722 28.054C456.021 28.4706 455.472 29.0341 455.074 29.7443C454.676 30.4451 454.473 31.2263 454.463 32.0881V35.6534C454.463 36.733 454.662 37.6657 455.06 38.4517C455.467 39.2377 456.04 39.8438 456.779 40.2699C457.517 40.696 458.393 40.9091 459.407 40.9091C460.079 40.9091 460.694 40.8144 461.253 40.625C461.812 40.4356 462.29 40.1515 462.688 39.7727C463.086 39.3939 463.389 38.9299 463.597 38.3807L469.194 38.75C468.909 40.0947 468.327 41.2689 467.446 42.2727C466.575 43.267 465.448 44.0436 464.066 44.6023C462.693 45.1515 461.106 45.4261 459.307 45.4261ZM473.27 45V23.1818H479.137V26.9886H479.364C479.762 25.6345 480.429 24.6117 481.367 23.9205C482.304 23.2197 483.384 22.8693 484.605 22.8693C484.908 22.8693 485.235 22.8883 485.586 22.9261C485.936 22.964 486.244 23.0161 486.509 23.0824V28.4517C486.225 28.3665 485.832 28.2907 485.33 28.2244C484.828 28.1581 484.369 28.125 483.952 28.125C483.062 28.125 482.266 28.3191 481.566 28.7074C480.874 29.0862 480.325 29.6165 479.918 30.2983C479.52 30.9801 479.321 31.7661 479.321 32.6562V45H473.27ZM507.791 29.4034L502.251 29.7443C502.156 29.2708 501.953 28.8447 501.64 28.4659C501.328 28.0777 500.916 27.7699 500.404 27.5426C499.903 27.3059 499.301 27.1875 498.6 27.1875C497.663 27.1875 496.872 27.3864 496.228 27.7841C495.584 28.1723 495.262 28.6932 495.262 29.3466C495.262 29.8674 495.471 30.3078 495.887 30.6676C496.304 31.0275 497.019 31.3163 498.032 31.5341L501.981 32.3295C504.102 32.7652 505.684 33.4659 506.725 34.4318C507.767 35.3977 508.288 36.6667 508.288 38.2386C508.288 39.6686 507.867 40.9233 507.024 42.0028C506.19 43.0824 505.045 43.9252 503.586 44.5312C502.137 45.1278 500.466 45.4261 498.572 45.4261C495.684 45.4261 493.383 44.8248 491.669 43.6222C489.964 42.41 488.965 40.7623 488.672 38.679L494.623 38.3665C494.803 39.2472 495.239 39.9195 495.93 40.3835C496.621 40.8381 497.507 41.0653 498.586 41.0653C499.647 41.0653 500.499 40.8617 501.143 40.4545C501.797 40.0379 502.128 39.5028 502.137 38.8494C502.128 38.3002 501.896 37.8504 501.441 37.5C500.987 37.1402 500.286 36.8655 499.339 36.6761L495.561 35.9233C493.43 35.4972 491.844 34.7585 490.802 33.7074C489.77 32.6562 489.254 31.3163 489.254 29.6875C489.254 28.286 489.633 27.0786 490.39 26.0653C491.157 25.0521 492.232 24.2708 493.615 23.7216C495.007 23.1723 496.636 22.8977 498.501 22.8977C501.257 22.8977 503.425 23.4801 505.007 24.6449C506.598 25.8097 507.526 27.3958 507.791 29.4034Z" fill="white"/>
<path d="M432.497 166.398C430.622 166.398 428.951 166.076 427.483 165.432C426.025 164.788 424.865 163.893 424.003 162.747C423.151 161.592 422.687 160.252 422.611 158.727H426.19C426.266 159.665 426.588 160.474 427.156 161.156C427.724 161.829 428.468 162.349 429.386 162.719C430.305 163.088 431.323 163.273 432.44 163.273C433.69 163.273 434.798 163.055 435.764 162.619C436.73 162.184 437.488 161.578 438.037 160.801C438.586 160.025 438.861 159.125 438.861 158.102C438.861 157.032 438.596 156.09 438.065 155.276C437.535 154.452 436.759 153.808 435.736 153.344C434.713 152.88 433.463 152.648 431.986 152.648H429.656V149.523H431.986C433.141 149.523 434.154 149.314 435.026 148.898C435.906 148.481 436.593 147.894 437.085 147.136C437.587 146.379 437.838 145.489 437.838 144.466C437.838 143.481 437.62 142.624 437.185 141.895C436.749 141.166 436.134 140.598 435.338 140.19C434.552 139.783 433.624 139.58 432.554 139.58C431.55 139.58 430.603 139.764 429.713 140.134C428.832 140.493 428.113 141.019 427.554 141.71C426.995 142.392 426.692 143.216 426.645 144.182H423.236C423.293 142.657 423.752 141.322 424.614 140.176C425.475 139.021 426.602 138.121 427.994 137.477C429.396 136.833 430.935 136.511 432.611 136.511C434.41 136.511 435.954 136.876 437.241 137.605C438.529 138.325 439.519 139.277 440.21 140.46C440.902 141.644 441.247 142.922 441.247 144.295C441.247 145.934 440.816 147.33 439.955 148.486C439.102 149.641 437.942 150.441 436.474 150.886V151.114C438.312 151.417 439.746 152.198 440.778 153.457C441.811 154.707 442.327 156.256 442.327 158.102C442.327 159.684 441.896 161.104 441.034 162.364C440.182 163.614 439.017 164.598 437.54 165.318C436.063 166.038 434.382 166.398 432.497 166.398ZM448.136 166V163.443L457.739 152.932C458.866 151.701 459.794 150.631 460.523 149.722C461.252 148.803 461.792 147.941 462.142 147.136C462.502 146.322 462.682 145.47 462.682 144.58C462.682 143.557 462.436 142.671 461.943 141.923C461.46 141.175 460.797 140.598 459.955 140.19C459.112 139.783 458.165 139.58 457.114 139.58C455.996 139.58 455.021 139.812 454.188 140.276C453.364 140.73 452.724 141.369 452.27 142.193C451.825 143.017 451.602 143.983 451.602 145.091H448.25C448.25 143.386 448.643 141.89 449.429 140.602C450.215 139.314 451.285 138.311 452.639 137.591C454.003 136.871 455.532 136.511 457.227 136.511C458.932 136.511 460.442 136.871 461.759 137.591C463.075 138.311 464.107 139.281 464.855 140.503C465.603 141.724 465.977 143.083 465.977 144.58C465.977 145.65 465.783 146.696 465.395 147.719C465.016 148.732 464.353 149.864 463.406 151.114C462.469 152.354 461.167 153.869 459.5 155.659L452.966 162.648V162.875H466.489V166H448.136Z" fill="white"/>
<path d="M556.332 136.909V166H552.81V140.602H552.639L545.537 145.318V141.739L552.81 136.909H556.332ZM564.699 166V163.443L574.301 152.932C575.428 151.701 576.356 150.631 577.085 149.722C577.814 148.803 578.354 147.941 578.705 147.136C579.064 146.322 579.244 145.47 579.244 144.58C579.244 143.557 578.998 142.671 578.506 141.923C578.023 141.175 577.36 140.598 576.517 140.19C575.674 139.783 574.727 139.58 573.676 139.58C572.559 139.58 571.583 139.812 570.75 140.276C569.926 140.73 569.287 141.369 568.832 142.193C568.387 143.017 568.165 143.983 568.165 145.091H564.812C564.812 143.386 565.205 141.89 565.991 140.602C566.777 139.314 567.848 138.311 569.202 137.591C570.565 136.871 572.095 136.511 573.79 136.511C575.494 136.511 577.005 136.871 578.321 137.591C579.637 138.311 580.67 139.281 581.418 140.503C582.166 141.724 582.54 143.083 582.54 144.58C582.54 145.65 582.346 146.696 581.957 147.719C581.579 148.732 580.916 149.864 579.969 151.114C579.031 152.354 577.729 153.869 576.062 155.659L569.528 162.648V162.875H583.051V166H564.699Z" fill="white"/>
</svg>
