<svg width="1193" height="609" viewBox="0 0 1193 609" fill="none" xmlns="http://www.w3.org/2000/svg">
<rect x="1" y="129" width="213" height="77" rx="27" stroke="#DBDBDB" stroke-width="2"/>
<rect x="318" y="129" width="359" height="77" rx="27" stroke="#DBDBDB" stroke-width="2"/>
<path d="M83.6097 153.909V183H80.087V157.602H79.9165L72.8143 162.318V158.739L80.087 153.909H83.6097ZM92.033 183V161.182H95.2717V164.591H95.5558C96.0103 163.426 96.7442 162.522 97.7575 161.878C98.7707 161.224 99.9876 160.898 101.408 160.898C102.847 160.898 104.045 161.224 105.002 161.878C105.968 162.522 106.721 163.426 107.26 164.591H107.488C108.046 163.464 108.884 162.569 110.002 161.906C111.119 161.234 112.459 160.898 114.022 160.898C115.972 160.898 117.568 161.509 118.809 162.73C120.049 163.942 120.669 165.831 120.669 168.398V183H117.317V168.398C117.317 166.788 116.877 165.637 115.996 164.946C115.115 164.255 114.078 163.909 112.885 163.909C111.351 163.909 110.163 164.373 109.32 165.301C108.477 166.22 108.056 167.384 108.056 168.795V183H104.647V168.057C104.647 166.816 104.244 165.817 103.439 165.06C102.634 164.293 101.597 163.909 100.328 163.909C99.4573 163.909 98.6429 164.141 97.8853 164.605C97.1372 165.069 96.5311 165.713 96.0671 166.537C95.6126 167.351 95.3853 168.294 95.3853 169.364V183H92.033ZM142.253 166.068L139.242 166.92C139.052 166.419 138.773 165.931 138.404 165.457C138.044 164.974 137.551 164.577 136.926 164.264C136.301 163.952 135.501 163.795 134.526 163.795C133.191 163.795 132.078 164.103 131.188 164.719C130.307 165.325 129.867 166.097 129.867 167.034C129.867 167.867 130.17 168.526 130.776 169.009C131.382 169.491 132.329 169.894 133.617 170.216L136.855 171.011C138.806 171.485 140.26 172.209 141.216 173.185C142.173 174.151 142.651 175.396 142.651 176.92C142.651 178.17 142.291 179.288 141.571 180.273C140.861 181.258 139.867 182.034 138.588 182.602C137.31 183.17 135.823 183.455 134.128 183.455C131.903 183.455 130.061 182.972 128.603 182.006C127.144 181.04 126.221 179.629 125.833 177.773L129.015 176.977C129.318 178.152 129.891 179.032 130.733 179.619C131.586 180.206 132.698 180.5 134.071 180.5C135.634 180.5 136.874 180.169 137.793 179.506C138.721 178.833 139.185 178.028 139.185 177.091C139.185 176.333 138.92 175.699 138.39 175.188C137.859 174.667 137.045 174.278 135.946 174.023L132.31 173.17C130.312 172.697 128.844 171.963 127.907 170.969C126.979 169.965 126.515 168.71 126.515 167.205C126.515 165.973 126.86 164.884 127.551 163.938C128.252 162.991 129.204 162.247 130.407 161.707C131.619 161.168 132.992 160.898 134.526 160.898C136.685 160.898 138.38 161.371 139.611 162.318C140.852 163.265 141.732 164.515 142.253 166.068Z" fill="white"/>
<path d="M473.61 153.909V183H470.087V157.602H469.917L462.814 162.318V158.739L470.087 153.909H473.61ZM482.033 183V161.182H485.272V164.591H485.556C486.01 163.426 486.744 162.522 487.757 161.878C488.771 161.224 489.988 160.898 491.408 160.898C492.847 160.898 494.045 161.224 495.002 161.878C495.968 162.522 496.721 163.426 497.26 164.591H497.488C498.046 163.464 498.884 162.569 500.002 161.906C501.119 161.234 502.459 160.898 504.022 160.898C505.972 160.898 507.568 161.509 508.809 162.73C510.049 163.942 510.669 165.831 510.669 168.398V183H507.317V168.398C507.317 166.788 506.877 165.637 505.996 164.946C505.115 164.255 504.078 163.909 502.885 163.909C501.351 163.909 500.163 164.373 499.32 165.301C498.477 166.22 498.056 167.384 498.056 168.795V183H494.647V168.057C494.647 166.816 494.244 165.817 493.439 165.06C492.634 164.293 491.597 163.909 490.328 163.909C489.457 163.909 488.643 164.141 487.885 164.605C487.137 165.069 486.531 165.713 486.067 166.537C485.613 167.351 485.385 168.294 485.385 169.364V183H482.033ZM532.253 166.068L529.242 166.92C529.052 166.419 528.773 165.931 528.404 165.457C528.044 164.974 527.551 164.577 526.926 164.264C526.301 163.952 525.501 163.795 524.526 163.795C523.191 163.795 522.078 164.103 521.188 164.719C520.307 165.325 519.867 166.097 519.867 167.034C519.867 167.867 520.17 168.526 520.776 169.009C521.382 169.491 522.329 169.894 523.617 170.216L526.855 171.011C528.806 171.485 530.26 172.209 531.216 173.185C532.173 174.151 532.651 175.396 532.651 176.92C532.651 178.17 532.291 179.288 531.571 180.273C530.861 181.258 529.867 182.034 528.588 182.602C527.31 183.17 525.823 183.455 524.128 183.455C521.903 183.455 520.061 182.972 518.603 182.006C517.144 181.04 516.221 179.629 515.833 177.773L519.015 176.977C519.318 178.152 519.891 179.032 520.733 179.619C521.586 180.206 522.698 180.5 524.071 180.5C525.634 180.5 526.874 180.169 527.793 179.506C528.721 178.833 529.185 178.028 529.185 177.091C529.185 176.333 528.92 175.699 528.39 175.188C527.859 174.667 527.045 174.278 525.946 174.023L522.31 173.17C520.312 172.697 518.844 171.963 517.907 170.969C516.979 169.965 516.515 168.71 516.515 167.205C516.515 165.973 516.86 164.884 517.551 163.938C518.252 162.991 519.204 162.247 520.407 161.707C521.619 161.168 522.992 160.898 524.526 160.898C526.685 160.898 528.38 161.371 529.611 162.318C530.852 163.265 531.732 164.515 532.253 166.068Z" fill="white"/>
<path d="M63.1037 19H59.581C59.3726 17.9867 59.0081 17.0966 58.4872 16.3295C57.9759 15.5625 57.3509 14.9186 56.6122 14.3977C55.883 13.8674 55.0734 13.4697 54.1832 13.2045C53.2931 12.9394 52.3651 12.8068 51.3991 12.8068C49.6378 12.8068 48.0421 13.2519 46.6122 14.142C45.1918 15.0322 44.0601 16.3438 43.2173 18.0767C42.384 19.8097 41.9673 21.9356 41.9673 24.4545C41.9673 26.9735 42.384 29.0994 43.2173 30.8324C44.0601 32.5653 45.1918 33.8769 46.6122 34.767C48.0421 35.6572 49.6378 36.1023 51.3991 36.1023C52.3651 36.1023 53.2931 35.9697 54.1832 35.7045C55.0734 35.4394 55.883 35.0464 56.6122 34.5256C57.3509 33.9953 57.9759 33.3466 58.4872 32.5795C59.0081 31.803 59.3726 30.9129 59.581 29.9091H63.1037C62.8385 31.3958 62.3556 32.7263 61.6548 33.9006C60.9541 35.0748 60.0829 36.0739 59.0412 36.8977C57.9995 37.7121 56.83 38.3324 55.5327 38.7585C54.2448 39.1847 52.867 39.3977 51.3991 39.3977C48.9181 39.3977 46.7116 38.7917 44.7798 37.5795C42.848 36.3674 41.3281 34.6439 40.2202 32.4091C39.1122 30.1742 38.5582 27.5227 38.5582 24.4545C38.5582 21.3864 39.1122 18.7348 40.2202 16.5C41.3281 14.2652 42.848 12.5417 44.7798 11.3295C46.7116 10.1174 48.9181 9.51136 51.3991 9.51136C52.867 9.51136 54.2448 9.72443 55.5327 10.1506C56.83 10.5767 57.9995 11.2017 59.0412 12.0256C60.0829 12.84 60.9541 13.8343 61.6548 15.0085C62.3556 16.1733 62.8385 17.5038 63.1037 19ZM82.0916 30.0795V17.1818H85.4439V39H82.0916V35.3068H81.8643C81.353 36.4148 80.5575 37.357 79.478 38.1335C78.3984 38.9006 77.0348 39.2841 75.3871 39.2841C74.0234 39.2841 72.8113 38.9858 71.7507 38.3892C70.6901 37.7831 69.8568 36.8741 69.2507 35.6619C68.6446 34.4403 68.3416 32.9015 68.3416 31.0455V17.1818H71.6939V30.8182C71.6939 32.4091 72.139 33.678 73.0291 34.625C73.9287 35.572 75.0746 36.0455 76.4666 36.0455C77.3 36.0455 78.1475 35.8324 79.0092 35.4062C79.8804 34.9801 80.6096 34.3267 81.1967 33.446C81.7933 32.5653 82.0916 31.4432 82.0916 30.0795ZM91.5838 39V17.1818H94.8224V20.4773H95.0497C95.4474 19.3977 96.1671 18.5218 97.2088 17.8494C98.2505 17.1771 99.4247 16.8409 100.732 16.8409C100.978 16.8409 101.286 16.8456 101.655 16.8551C102.024 16.8646 102.304 16.8788 102.493 16.8977V20.3068C102.379 20.2784 102.119 20.2358 101.712 20.179C101.314 20.1127 100.893 20.0795 100.447 20.0795C99.3868 20.0795 98.4399 20.3021 97.6065 20.7472C96.7827 21.1828 96.1293 21.7888 95.6463 22.5653C95.1728 23.3324 94.9361 24.2083 94.9361 25.1932V39H91.5838ZM106.467 39V17.1818H109.705V20.4773H109.933C110.33 19.3977 111.05 18.5218 112.092 17.8494C113.133 17.1771 114.308 16.8409 115.614 16.8409C115.861 16.8409 116.168 16.8456 116.538 16.8551C116.907 16.8646 117.186 16.8788 117.376 16.8977V20.3068C117.262 20.2784 117.002 20.2358 116.594 20.179C116.197 20.1127 115.775 20.0795 115.33 20.0795C114.27 20.0795 113.323 20.3021 112.489 20.7472C111.665 21.1828 111.012 21.7888 110.529 22.5653C110.056 23.3324 109.819 24.2083 109.819 25.1932V39H106.467ZM129.833 39.4545C127.731 39.4545 125.917 38.9905 124.393 38.0625C122.878 37.125 121.708 35.8182 120.884 34.142C120.07 32.4564 119.663 30.4962 119.663 28.2614C119.663 26.0265 120.07 24.0568 120.884 22.3523C121.708 20.6383 122.854 19.303 124.322 18.3466C125.799 17.3807 127.522 16.8977 129.492 16.8977C130.629 16.8977 131.751 17.0871 132.859 17.4659C133.967 17.8447 134.975 18.4602 135.884 19.3125C136.793 20.1553 137.518 21.2727 138.058 22.6648C138.597 24.0568 138.867 25.7708 138.867 27.8068V29.2273H122.049V26.3295H135.458C135.458 25.0985 135.212 24 134.719 23.0341C134.237 22.0682 133.545 21.3059 132.646 20.7472C131.755 20.1884 130.704 19.9091 129.492 19.9091C128.157 19.9091 127.002 20.2405 126.026 20.9034C125.06 21.5568 124.317 22.4091 123.796 23.4602C123.275 24.5114 123.015 25.6383 123.015 26.8409V28.7727C123.015 30.4205 123.299 31.8172 123.867 32.9631C124.445 34.0994 125.245 34.9659 126.268 35.5625C127.29 36.1496 128.479 36.4432 129.833 36.4432C130.714 36.4432 131.509 36.3201 132.219 36.0739C132.939 35.8182 133.559 35.4394 134.08 34.9375C134.601 34.4261 135.004 33.7917 135.288 33.0341L138.526 33.9432C138.185 35.0417 137.612 36.0076 136.808 36.8409C136.003 37.6648 135.008 38.3087 133.825 38.7727C132.641 39.2273 131.31 39.4545 129.833 39.4545ZM147.319 25.875V39H143.967V17.1818H147.205V20.5909H147.489C148.001 19.483 148.777 18.5928 149.819 17.9205C150.861 17.2386 152.205 16.8977 153.853 16.8977C155.33 16.8977 156.623 17.2008 157.731 17.8068C158.839 18.4034 159.701 19.3125 160.316 20.5341C160.932 21.7462 161.239 23.2803 161.239 25.1364V39H157.887V25.3636C157.887 23.6496 157.442 22.3144 156.552 21.358C155.662 20.392 154.44 19.9091 152.887 19.9091C151.817 19.9091 150.861 20.1411 150.018 20.6051C149.184 21.0691 148.526 21.7462 148.043 22.6364C147.56 23.5265 147.319 24.6061 147.319 25.875ZM176.854 17.1818V20.0227H165.547V17.1818H176.854ZM168.842 11.9545H172.195V32.75C172.195 33.697 172.332 34.4072 172.607 34.8807C172.891 35.3447 173.25 35.6572 173.686 35.8182C174.131 35.9697 174.6 36.0455 175.092 36.0455C175.462 36.0455 175.765 36.0265 176.001 35.9886C176.238 35.9413 176.428 35.9034 176.57 35.875L177.251 38.8864C177.024 38.9716 176.707 39.0568 176.3 39.142C175.893 39.2367 175.376 39.2841 174.751 39.2841C173.804 39.2841 172.876 39.0805 171.967 38.6733C171.068 38.2661 170.32 37.6458 169.723 36.8125C169.136 35.9792 168.842 34.928 168.842 33.6591V11.9545ZM57.3224 61.0341V57.9091H79.1406V61.0341H69.9929V87H66.4702V61.0341H57.3224ZM84.1229 87V65.1818H87.4751V87H84.1229ZM85.8274 61.5455C85.174 61.5455 84.6106 61.3229 84.1371 60.8778C83.6731 60.4328 83.4411 59.8977 83.4411 59.2727C83.4411 58.6477 83.6731 58.1127 84.1371 57.6676C84.6106 57.2225 85.174 57 85.8274 57C86.4808 57 87.0395 57.2225 87.5036 57.6676C87.977 58.1127 88.2138 58.6477 88.2138 59.2727C88.2138 59.8977 87.977 60.4328 87.5036 60.8778C87.0395 61.3229 86.4808 61.5455 85.8274 61.5455ZM93.6151 87V65.1818H96.8537V68.5909H97.1378C97.5923 67.4261 98.3262 66.5218 99.3395 65.8778C100.353 65.2244 101.57 64.8977 102.99 64.8977C104.429 64.8977 105.627 65.2244 106.584 65.8778C107.55 66.5218 108.303 67.4261 108.842 68.5909H109.07C109.628 67.464 110.466 66.5691 111.584 65.9062C112.701 65.2339 114.041 64.8977 115.604 64.8977C117.554 64.8977 119.15 65.5085 120.391 66.7301C121.631 67.9422 122.251 69.8314 122.251 72.3977V87H118.899V72.3977C118.899 70.7879 118.459 69.6373 117.578 68.946C116.697 68.2547 115.661 67.9091 114.467 67.9091C112.933 67.9091 111.745 68.3731 110.902 69.3011C110.059 70.2197 109.638 71.3845 109.638 72.7955V87H106.229V72.0568C106.229 70.8163 105.826 69.8172 105.021 69.0597C104.216 68.2926 103.179 67.9091 101.911 67.9091C101.039 67.9091 100.225 68.1411 99.4673 68.6051C98.7192 69.0691 98.1132 69.7131 97.6491 70.5369C97.1946 71.3513 96.9673 72.2936 96.9673 73.3636V87H93.6151ZM137.528 87.4545C135.426 87.4545 133.613 86.9905 132.088 86.0625C130.573 85.125 129.403 83.8182 128.58 82.142C127.765 80.4564 127.358 78.4962 127.358 76.2614C127.358 74.0265 127.765 72.0568 128.58 70.3523C129.403 68.6383 130.549 67.303 132.017 66.3466C133.494 65.3807 135.218 64.8977 137.188 64.8977C138.324 64.8977 139.446 65.0871 140.554 65.4659C141.662 65.8447 142.67 66.4602 143.58 67.3125C144.489 68.1553 145.213 69.2727 145.753 70.6648C146.293 72.0568 146.562 73.7708 146.562 75.8068V77.2273H129.744V74.3295H143.153C143.153 73.0985 142.907 72 142.415 71.0341C141.932 70.0682 141.241 69.3059 140.341 68.7472C139.451 68.1884 138.4 67.9091 137.188 67.9091C135.852 67.9091 134.697 68.2405 133.722 68.9034C132.756 69.5568 132.012 70.4091 131.491 71.4602C130.971 72.5114 130.71 73.6383 130.71 74.8409V76.7727C130.71 78.4205 130.994 79.8172 131.562 80.9631C132.14 82.0994 132.94 82.9659 133.963 83.5625C134.986 84.1496 136.174 84.4432 137.528 84.4432C138.409 84.4432 139.205 84.3201 139.915 84.0739C140.634 83.8182 141.255 83.4394 141.776 82.9375C142.296 82.4261 142.699 81.7917 142.983 81.0341L146.222 81.9432C145.881 83.0417 145.308 84.0076 144.503 84.8409C143.698 85.6648 142.704 86.3087 141.52 86.7727C140.336 87.2273 139.006 87.4545 137.528 87.4545ZM154.105 87.2273C153.404 87.2273 152.803 86.9763 152.301 86.4744C151.799 85.9725 151.548 85.3712 151.548 84.6705C151.548 83.9697 151.799 83.3684 152.301 82.8665C152.803 82.3646 153.404 82.1136 154.105 82.1136C154.806 82.1136 155.407 82.3646 155.909 82.8665C156.411 83.3684 156.662 83.9697 156.662 84.6705C156.662 85.1345 156.544 85.5606 156.307 85.9489C156.08 86.3371 155.772 86.6496 155.384 86.8864C155.005 87.1136 154.579 87.2273 154.105 87.2273ZM154.105 71.0341C153.404 71.0341 152.803 70.7831 152.301 70.2812C151.799 69.7794 151.548 69.178 151.548 68.4773C151.548 67.7765 151.799 67.1752 152.301 66.6733C152.803 66.1714 153.404 65.9205 154.105 65.9205C154.806 65.9205 155.407 66.1714 155.909 66.6733C156.411 67.1752 156.662 67.7765 156.662 68.4773C156.662 68.9413 156.544 69.3674 156.307 69.7557C156.08 70.1439 155.772 70.4564 155.384 70.6932C155.005 70.9205 154.579 71.0341 154.105 71.0341Z" fill="white"/>
<path d="M380.584 13.0341V9.90909H402.402V13.0341H393.255V39H389.732V13.0341H380.584ZM407.385 39V17.1818H410.737V39H407.385ZM409.089 13.5455C408.436 13.5455 407.872 13.3229 407.399 12.8778C406.935 12.4328 406.703 11.8977 406.703 11.2727C406.703 10.6477 406.935 10.1127 407.399 9.66761C407.872 9.22254 408.436 9 409.089 9C409.743 9 410.301 9.22254 410.765 9.66761C411.239 10.1127 411.475 10.6477 411.475 11.2727C411.475 11.8977 411.239 12.4328 410.765 12.8778C410.301 13.3229 409.743 13.5455 409.089 13.5455ZM416.877 39V17.1818H420.115V20.5909H420.4C420.854 19.4261 421.588 18.5218 422.601 17.8778C423.614 17.2244 424.831 16.8977 426.252 16.8977C427.691 16.8977 428.889 17.2244 429.846 17.8778C430.811 18.5218 431.564 19.4261 432.104 20.5909H432.331C432.89 19.464 433.728 18.5691 434.846 17.9062C435.963 17.2339 437.303 16.8977 438.865 16.8977C440.816 16.8977 442.412 17.5085 443.652 18.7301C444.893 19.9422 445.513 21.8314 445.513 24.3977V39H442.161V24.3977C442.161 22.7879 441.721 21.6373 440.84 20.946C439.959 20.2547 438.922 19.9091 437.729 19.9091C436.195 19.9091 435.007 20.3731 434.164 21.3011C433.321 22.2197 432.9 23.3845 432.9 24.7955V39H429.49V24.0568C429.49 22.8163 429.088 21.8172 428.283 21.0597C427.478 20.2926 426.441 19.9091 425.172 19.9091C424.301 19.9091 423.487 20.1411 422.729 20.6051C421.981 21.0691 421.375 21.7131 420.911 22.5369C420.456 23.3513 420.229 24.2936 420.229 25.3636V39H416.877ZM460.79 39.4545C458.688 39.4545 456.874 38.9905 455.35 38.0625C453.835 37.125 452.665 35.8182 451.841 34.142C451.027 32.4564 450.62 30.4962 450.62 28.2614C450.62 26.0265 451.027 24.0568 451.841 22.3523C452.665 20.6383 453.811 19.303 455.279 18.3466C456.756 17.3807 458.48 16.8977 460.449 16.8977C461.586 16.8977 462.708 17.0871 463.816 17.4659C464.924 17.8447 465.932 18.4602 466.841 19.3125C467.75 20.1553 468.475 21.2727 469.015 22.6648C469.554 24.0568 469.824 25.7708 469.824 27.8068V29.2273H453.006V26.3295H466.415C466.415 25.0985 466.169 24 465.676 23.0341C465.194 22.0682 464.502 21.3059 463.603 20.7472C462.712 20.1884 461.661 19.9091 460.449 19.9091C459.114 19.9091 457.959 20.2405 456.983 20.9034C456.017 21.5568 455.274 22.4091 454.753 23.4602C454.232 24.5114 453.972 25.6383 453.972 26.8409V28.7727C453.972 30.4205 454.256 31.8172 454.824 32.9631C455.402 34.0994 456.202 34.9659 457.225 35.5625C458.248 36.1496 459.436 36.4432 460.79 36.4432C461.671 36.4432 462.466 36.3201 463.176 36.0739C463.896 35.8182 464.516 35.4394 465.037 34.9375C465.558 34.4261 465.961 33.7917 466.245 33.0341L469.483 33.9432C469.142 35.0417 468.569 36.0076 467.765 36.8409C466.96 37.6648 465.965 38.3087 464.782 38.7727C463.598 39.2273 462.267 39.4545 460.79 39.4545ZM486.628 39V9.90909H490.151V35.875H503.674V39H486.628ZM517.821 39.4545C515.719 39.4545 513.906 38.9905 512.381 38.0625C510.866 37.125 509.696 35.8182 508.873 34.142C508.058 32.4564 507.651 30.4962 507.651 28.2614C507.651 26.0265 508.058 24.0568 508.873 22.3523C509.696 20.6383 510.842 19.303 512.31 18.3466C513.787 17.3807 515.511 16.8977 517.48 16.8977C518.617 16.8977 519.739 17.0871 520.847 17.4659C521.955 17.8447 522.963 18.4602 523.873 19.3125C524.782 20.1553 525.506 21.2727 526.046 22.6648C526.586 24.0568 526.855 25.7708 526.855 27.8068V29.2273H510.037V26.3295H523.446C523.446 25.0985 523.2 24 522.708 23.0341C522.225 22.0682 521.533 21.3059 520.634 20.7472C519.744 20.1884 518.693 19.9091 517.48 19.9091C516.145 19.9091 514.99 20.2405 514.015 20.9034C513.049 21.5568 512.305 22.4091 511.784 23.4602C511.264 24.5114 511.003 25.6383 511.003 26.8409V28.7727C511.003 30.4205 511.287 31.8172 511.855 32.9631C512.433 34.0994 513.233 34.9659 514.256 35.5625C515.279 36.1496 516.467 36.4432 517.821 36.4432C518.702 36.4432 519.498 36.3201 520.208 36.0739C520.927 35.8182 521.548 35.4394 522.069 34.9375C522.589 34.4261 522.992 33.7917 523.276 33.0341L526.515 33.9432C526.174 35.0417 525.601 36.0076 524.796 36.8409C523.991 37.6648 522.997 38.3087 521.813 38.7727C520.629 39.2273 519.299 39.4545 517.821 39.4545ZM541.671 17.1818V20.0227H529.909V17.1818H541.671ZM533.432 39V14.1705C533.432 12.9205 533.726 11.8788 534.313 11.0455C534.9 10.2121 535.662 9.58712 536.6 9.17045C537.537 8.75379 538.527 8.54545 539.569 8.54545C540.392 8.54545 541.065 8.61174 541.586 8.74432C542.106 8.87689 542.495 9 542.75 9.11364L541.784 12.0114C541.614 11.9545 541.377 11.8835 541.074 11.7983C540.781 11.7131 540.392 11.6705 539.909 11.6705C538.801 11.6705 538.001 11.9498 537.509 12.5085C537.026 13.0672 536.784 13.8864 536.784 14.9659V39H533.432ZM555.858 17.1818V20.0227H544.551V17.1818H555.858ZM547.846 11.9545H551.199V32.75C551.199 33.697 551.336 34.4072 551.61 34.8807C551.895 35.3447 552.254 35.6572 552.69 35.8182C553.135 35.9697 553.604 36.0455 554.096 36.0455C554.466 36.0455 554.769 36.0265 555.005 35.9886C555.242 35.9413 555.431 35.9034 555.574 35.875L556.255 38.8864C556.028 38.9716 555.711 39.0568 555.304 39.142C554.896 39.2367 554.38 39.2841 553.755 39.2841C552.808 39.2841 551.88 39.0805 550.971 38.6733C550.072 38.2661 549.324 37.6458 548.727 36.8125C548.14 35.9792 547.846 34.928 547.846 33.6591V11.9545ZM581.014 39.4545C579.044 39.4545 577.316 38.9858 575.829 38.0483C574.352 37.1108 573.197 35.7992 572.363 34.1136C571.539 32.428 571.127 30.4583 571.127 28.2045C571.127 25.9318 571.539 23.9479 572.363 22.2528C573.197 20.5578 574.352 19.2415 575.829 18.304C577.316 17.3665 579.044 16.8977 581.014 16.8977C582.984 16.8977 584.707 17.3665 586.184 18.304C587.671 19.2415 588.826 20.5578 589.65 22.2528C590.484 23.9479 590.9 25.9318 590.9 28.2045C590.9 30.4583 590.484 32.428 589.65 34.1136C588.826 35.7992 587.671 37.1108 586.184 38.0483C584.707 38.9858 582.984 39.4545 581.014 39.4545ZM581.014 36.4432C582.51 36.4432 583.741 36.0597 584.707 35.2926C585.673 34.5256 586.388 33.517 586.852 32.267C587.316 31.017 587.548 29.6629 587.548 28.2045C587.548 26.7462 587.316 25.3873 586.852 24.1278C586.388 22.8684 585.673 21.8504 584.707 21.0739C583.741 20.2973 582.51 19.9091 581.014 19.9091C579.518 19.9091 578.287 20.2973 577.321 21.0739C576.355 21.8504 575.64 22.8684 575.176 24.1278C574.712 25.3873 574.48 26.7462 574.48 28.2045C574.48 29.6629 574.712 31.017 575.176 32.267C575.64 33.517 576.355 34.5256 577.321 35.2926C578.287 36.0597 579.518 36.4432 581.014 36.4432ZM599.37 25.875V39H596.017V17.1818H599.256V20.5909H599.54C600.051 19.483 600.828 18.5928 601.87 17.9205C602.911 17.2386 604.256 16.8977 605.904 16.8977C607.381 16.8977 608.674 17.2008 609.782 17.8068C610.89 18.4034 611.751 19.3125 612.367 20.5341C612.982 21.7462 613.29 23.2803 613.29 25.1364V39H609.938V25.3636C609.938 23.6496 609.493 22.3144 608.603 21.358C607.712 20.392 606.491 19.9091 604.938 19.9091C603.868 19.9091 602.911 20.1411 602.069 20.6051C601.235 21.0691 600.577 21.7462 600.094 22.6364C599.611 23.5265 599.37 24.6061 599.37 25.875ZM344.686 67H341.163C340.955 65.9867 340.59 65.0966 340.069 64.3295C339.558 63.5625 338.933 62.9186 338.194 62.3977C337.465 61.8674 336.655 61.4697 335.765 61.2045C334.875 60.9394 333.947 60.8068 332.981 60.8068C331.22 60.8068 329.624 61.2519 328.194 62.142C326.774 63.0322 325.642 64.3438 324.799 66.0767C323.966 67.8097 323.549 69.9356 323.549 72.4545C323.549 74.9735 323.966 77.0994 324.799 78.8324C325.642 80.5653 326.774 81.8769 328.194 82.767C329.624 83.6572 331.22 84.1023 332.981 84.1023C333.947 84.1023 334.875 83.9697 335.765 83.7045C336.655 83.4394 337.465 83.0464 338.194 82.5256C338.933 81.9953 339.558 81.3466 340.069 80.5795C340.59 79.803 340.955 78.9129 341.163 77.9091H344.686C344.421 79.3958 343.938 80.7263 343.237 81.9006C342.536 83.0748 341.665 84.0739 340.623 84.8977C339.582 85.7121 338.412 86.3324 337.115 86.7585C335.827 87.1847 334.449 87.3977 332.981 87.3977C330.5 87.3977 328.294 86.7917 326.362 85.5795C324.43 84.3674 322.91 82.6439 321.802 80.4091C320.694 78.1742 320.14 75.5227 320.14 72.4545C320.14 69.3864 320.694 66.7348 321.802 64.5C322.91 62.2652 324.43 60.5417 326.362 59.3295C328.294 58.1174 330.5 57.5114 332.981 57.5114C334.449 57.5114 335.827 57.7244 337.115 58.1506C338.412 58.5767 339.582 59.2017 340.623 60.0256C341.665 60.84 342.536 61.8343 343.237 63.0085C343.938 64.1733 344.421 65.5038 344.686 67ZM363.674 78.0795V65.1818H367.026V87H363.674V83.3068H363.446C362.935 84.4148 362.14 85.357 361.06 86.1335C359.98 86.9006 358.617 87.2841 356.969 87.2841C355.605 87.2841 354.393 86.9858 353.333 86.3892C352.272 85.7831 351.439 84.8741 350.833 83.6619C350.227 82.4403 349.924 80.9015 349.924 79.0455V65.1818H353.276V78.8182C353.276 80.4091 353.721 81.678 354.611 82.625C355.511 83.572 356.657 84.0455 358.049 84.0455C358.882 84.0455 359.73 83.8324 360.591 83.4062C361.462 82.9801 362.192 82.3267 362.779 81.446C363.375 80.5653 363.674 79.4432 363.674 78.0795ZM373.166 87V65.1818H376.404V68.4773H376.632C377.029 67.3977 377.749 66.5218 378.791 65.8494C379.833 65.1771 381.007 64.8409 382.314 64.8409C382.56 64.8409 382.868 64.8456 383.237 64.8551C383.606 64.8646 383.886 64.8788 384.075 64.8977V68.3068C383.961 68.2784 383.701 68.2358 383.294 68.179C382.896 68.1127 382.475 68.0795 382.029 68.0795C380.969 68.0795 380.022 68.3021 379.189 68.7472C378.365 69.1828 377.711 69.7888 377.228 70.5653C376.755 71.3324 376.518 72.2083 376.518 73.1932V87H373.166ZM388.049 87V65.1818H391.287V68.4773H391.515C391.912 67.3977 392.632 66.5218 393.674 65.8494C394.715 65.1771 395.89 64.8409 397.196 64.8409C397.443 64.8409 397.75 64.8456 398.12 64.8551C398.489 64.8646 398.768 64.8788 398.958 64.8977V68.3068C398.844 68.2784 398.584 68.2358 398.176 68.179C397.779 68.1127 397.357 68.0795 396.912 68.0795C395.852 68.0795 394.905 68.3021 394.071 68.7472C393.248 69.1828 392.594 69.7888 392.111 70.5653C391.638 71.3324 391.401 72.2083 391.401 73.1932V87H388.049ZM411.415 87.4545C409.313 87.4545 407.499 86.9905 405.975 86.0625C404.46 85.125 403.29 83.8182 402.466 82.142C401.652 80.4564 401.245 78.4962 401.245 76.2614C401.245 74.0265 401.652 72.0568 402.466 70.3523C403.29 68.6383 404.436 67.303 405.904 66.3466C407.381 65.3807 409.105 64.8977 411.074 64.8977C412.211 64.8977 413.333 65.0871 414.441 65.4659C415.549 65.8447 416.557 66.4602 417.466 67.3125C418.375 68.1553 419.1 69.2727 419.64 70.6648C420.179 72.0568 420.449 73.7708 420.449 75.8068V77.2273H403.631V74.3295H417.04C417.04 73.0985 416.794 72 416.301 71.0341C415.819 70.0682 415.127 69.3059 414.228 68.7472C413.337 68.1884 412.286 67.9091 411.074 67.9091C409.739 67.9091 408.584 68.2405 407.608 68.9034C406.642 69.5568 405.899 70.4091 405.378 71.4602C404.857 72.5114 404.597 73.6383 404.597 74.8409V76.7727C404.597 78.4205 404.881 79.8172 405.449 80.9631C406.027 82.0994 406.827 82.9659 407.85 83.5625C408.873 84.1496 410.061 84.4432 411.415 84.4432C412.296 84.4432 413.091 84.3201 413.801 84.0739C414.521 83.8182 415.141 83.4394 415.662 82.9375C416.183 82.4261 416.586 81.7917 416.87 81.0341L420.108 81.9432C419.767 83.0417 419.194 84.0076 418.39 84.8409C417.585 85.6648 416.59 86.3087 415.407 86.7727C414.223 87.2273 412.892 87.4545 411.415 87.4545ZM428.901 73.875V87H425.549V65.1818H428.787V68.5909H429.071C429.583 67.483 430.359 66.5928 431.401 65.9205C432.443 65.2386 433.787 64.8977 435.435 64.8977C436.912 64.8977 438.205 65.2008 439.313 65.8068C440.421 66.4034 441.283 67.3125 441.898 68.5341C442.514 69.7462 442.821 71.2803 442.821 73.1364V87H439.469V73.3636C439.469 71.6496 439.024 70.3144 438.134 69.358C437.244 68.392 436.022 67.9091 434.469 67.9091C433.399 67.9091 432.443 68.1411 431.6 68.6051C430.766 69.0691 430.108 69.7462 429.625 70.6364C429.142 71.5265 428.901 72.6061 428.901 73.875ZM458.436 65.1818V68.0227H447.129V65.1818H458.436ZM450.424 59.9545H453.777V80.75C453.777 81.697 453.914 82.4072 454.189 82.8807C454.473 83.3447 454.833 83.6572 455.268 83.8182C455.713 83.9697 456.182 84.0455 456.674 84.0455C457.044 84.0455 457.347 84.0265 457.583 83.9886C457.82 83.9413 458.01 83.9034 458.152 83.875L458.833 86.8864C458.606 86.9716 458.289 87.0568 457.882 87.142C457.475 87.2367 456.958 87.2841 456.333 87.2841C455.386 87.2841 454.458 87.0805 453.549 86.6733C452.65 86.2661 451.902 85.6458 451.305 84.8125C450.718 83.9792 450.424 82.928 450.424 81.6591V59.9545ZM473.592 61.0341V57.9091H495.41V61.0341H486.262V87H482.74V61.0341H473.592ZM500.392 87V65.1818H503.745V87H500.392ZM502.097 61.5455C501.444 61.5455 500.88 61.3229 500.407 60.8778C499.943 60.4328 499.711 59.8977 499.711 59.2727C499.711 58.6477 499.943 58.1127 500.407 57.6676C500.88 57.2225 501.444 57 502.097 57C502.75 57 503.309 57.2225 503.773 57.6676C504.247 58.1127 504.483 58.6477 504.483 59.2727C504.483 59.8977 504.247 60.4328 503.773 60.8778C503.309 61.3229 502.75 61.5455 502.097 61.5455ZM509.885 87V65.1818H513.123V68.5909H513.407C513.862 67.4261 514.596 66.5218 515.609 65.8778C516.622 65.2244 517.839 64.8977 519.26 64.8977C520.699 64.8977 521.897 65.2244 522.853 65.8778C523.819 66.5218 524.572 67.4261 525.112 68.5909H525.339C525.898 67.464 526.736 66.5691 527.853 65.9062C528.971 65.2339 530.311 64.8977 531.873 64.8977C533.824 64.8977 535.42 65.5085 536.66 66.7301C537.901 67.9422 538.521 69.8314 538.521 72.3977V87H535.169V72.3977C535.169 70.7879 534.728 69.6373 533.848 68.946C532.967 68.2547 531.93 67.9091 530.737 67.9091C529.203 67.9091 528.014 68.3731 527.172 69.3011C526.329 70.2197 525.907 71.3845 525.907 72.7955V87H522.498V72.0568C522.498 70.8163 522.096 69.8172 521.291 69.0597C520.486 68.2926 519.449 67.9091 518.18 67.9091C517.309 67.9091 516.494 68.1411 515.737 68.6051C514.989 69.0691 514.383 69.7131 513.919 70.5369C513.464 71.3513 513.237 72.2936 513.237 73.3636V87H509.885ZM553.798 87.4545C551.696 87.4545 549.882 86.9905 548.358 86.0625C546.842 85.125 545.673 83.8182 544.849 82.142C544.035 80.4564 543.627 78.4962 543.627 76.2614C543.627 74.0265 544.035 72.0568 544.849 70.3523C545.673 68.6383 546.819 67.303 548.287 66.3466C549.764 65.3807 551.487 64.8977 553.457 64.8977C554.593 64.8977 555.716 65.0871 556.824 65.4659C557.931 65.8447 558.94 66.4602 559.849 67.3125C560.758 68.1553 561.483 69.2727 562.022 70.6648C562.562 72.0568 562.832 73.7708 562.832 75.8068V77.2273H546.014V74.3295H559.423C559.423 73.0985 559.177 72 558.684 71.0341C558.201 70.0682 557.51 69.3059 556.61 68.7472C555.72 68.1884 554.669 67.9091 553.457 67.9091C552.122 67.9091 550.967 68.2405 549.991 68.9034C549.025 69.5568 548.282 70.4091 547.761 71.4602C547.24 72.5114 546.98 73.6383 546.98 74.8409V76.7727C546.98 78.4205 547.264 79.8172 547.832 80.9631C548.41 82.0994 549.21 82.9659 550.233 83.5625C551.255 84.1496 552.444 84.4432 553.798 84.4432C554.679 84.4432 555.474 84.3201 556.184 84.0739C556.904 83.8182 557.524 83.4394 558.045 82.9375C558.566 82.4261 558.968 81.7917 559.252 81.0341L562.491 81.9432C562.15 83.0417 561.577 84.0076 560.772 84.8409C559.967 85.6648 558.973 86.3087 557.789 86.7727C556.606 87.2273 555.275 87.4545 553.798 87.4545ZM595.545 65.1818C595.375 63.7424 594.683 62.625 593.471 61.8295C592.259 61.0341 590.772 60.6364 589.011 60.6364C587.723 60.6364 586.596 60.8447 585.63 61.2614C584.674 61.678 583.926 62.2509 583.386 62.9801C582.856 63.7093 582.591 64.5379 582.591 65.4659C582.591 66.2424 582.775 66.91 583.145 67.4688C583.523 68.018 584.006 68.4773 584.593 68.8466C585.181 69.2064 585.796 69.5047 586.44 69.7415C587.084 69.9687 587.676 70.1534 588.216 70.2955L591.17 71.0909C591.928 71.2898 592.77 71.5644 593.699 71.9148C594.636 72.2652 595.531 72.7434 596.383 73.3494C597.245 73.946 597.955 74.7131 598.514 75.6506C599.073 76.5881 599.352 77.7386 599.352 79.1023C599.352 80.6742 598.94 82.0947 598.116 83.3636C597.302 84.6326 596.109 85.6411 594.537 86.3892C592.974 87.1373 591.075 87.5114 588.841 87.5114C586.757 87.5114 584.953 87.1752 583.429 86.5028C581.913 85.8305 580.72 84.893 579.849 83.6903C578.987 82.4877 578.5 81.0909 578.386 79.5H582.022C582.117 80.5985 582.486 81.5076 583.13 82.2273C583.784 82.9375 584.608 83.4678 585.602 83.8182C586.606 84.1591 587.685 84.3295 588.841 84.3295C590.185 84.3295 591.393 84.1117 592.463 83.6761C593.533 83.2311 594.38 82.6155 595.005 81.8295C595.63 81.0341 595.943 80.1061 595.943 79.0455C595.943 78.0795 595.673 77.2936 595.133 76.6875C594.593 76.0814 593.883 75.589 593.002 75.2102C592.122 74.8314 591.17 74.5 590.147 74.2159L586.568 73.1932C584.295 72.5398 582.496 71.607 581.17 70.3949C579.844 69.1828 579.181 67.5966 579.181 65.6364C579.181 64.0076 579.622 62.5871 580.502 61.375C581.393 60.1534 582.586 59.2064 584.082 58.5341C585.588 57.8523 587.269 57.5114 589.125 57.5114C591 57.5114 592.666 57.8475 594.125 58.5199C595.583 59.1828 596.738 60.0919 597.591 61.2472C598.452 62.4025 598.907 63.714 598.954 65.1818H595.545ZM608.042 57.9091V87H604.689V57.9091H608.042ZM614.181 87V65.1818H617.534V87H614.181ZM615.886 61.5455C615.233 61.5455 614.669 61.3229 614.196 60.8778C613.732 60.4328 613.5 59.8977 613.5 59.2727C613.5 58.6477 613.732 58.1127 614.196 57.6676C614.669 57.2225 615.233 57 615.886 57C616.539 57 617.098 57.2225 617.562 57.6676C618.036 58.1127 618.272 58.6477 618.272 59.2727C618.272 59.8977 618.036 60.4328 617.562 60.8778C617.098 61.3229 616.539 61.5455 615.886 61.5455ZM632.537 87.4545C630.492 87.4545 628.73 86.9716 627.253 86.0057C625.776 85.0398 624.64 83.7093 623.844 82.0142C623.049 80.3191 622.651 78.3826 622.651 76.2045C622.651 73.9886 623.058 72.0331 623.873 70.3381C624.696 68.6335 625.842 67.303 627.31 66.3466C628.787 65.3807 630.511 64.8977 632.48 64.8977C634.015 64.8977 635.397 65.1818 636.628 65.75C637.859 66.3182 638.868 67.1136 639.654 68.1364C640.44 69.1591 640.927 70.3523 641.117 71.7159H637.765C637.509 70.7216 636.941 69.8409 636.06 69.0739C635.189 68.2973 634.015 67.9091 632.537 67.9091C631.23 67.9091 630.085 68.25 629.1 68.9318C628.124 69.6042 627.362 70.5559 626.813 71.7869C626.273 73.0085 626.003 74.4432 626.003 76.0909C626.003 77.7765 626.268 79.2443 626.799 80.4943C627.338 81.7443 628.096 82.715 629.071 83.4062C630.056 84.0975 631.212 84.4432 632.537 84.4432C633.408 84.4432 634.199 84.2917 634.909 83.9886C635.62 83.6856 636.221 83.25 636.713 82.6818C637.206 82.1136 637.556 81.4318 637.765 80.6364H641.117C640.927 81.9242 640.459 83.0843 639.711 84.1165C638.972 85.1392 637.992 85.9536 636.77 86.5597C635.558 87.1562 634.147 87.4545 632.537 87.4545ZM655.165 87.4545C653.063 87.4545 651.249 86.9905 649.725 86.0625C648.21 85.125 647.04 83.8182 646.216 82.142C645.402 80.4564 644.995 78.4962 644.995 76.2614C644.995 74.0265 645.402 72.0568 646.216 70.3523C647.04 68.6383 648.186 67.303 649.654 66.3466C651.131 65.3807 652.855 64.8977 654.824 64.8977C655.961 64.8977 657.083 65.0871 658.191 65.4659C659.299 65.8447 660.307 66.4602 661.216 67.3125C662.125 68.1553 662.85 69.2727 663.39 70.6648C663.929 72.0568 664.199 73.7708 664.199 75.8068V77.2273H647.381V74.3295H660.79C660.79 73.0985 660.544 72 660.051 71.0341C659.569 70.0682 658.877 69.3059 657.978 68.7472C657.087 68.1884 656.036 67.9091 654.824 67.9091C653.489 67.9091 652.334 68.2405 651.358 68.9034C650.392 69.5568 649.649 70.4091 649.128 71.4602C648.607 72.5114 648.347 73.6383 648.347 74.8409V76.7727C648.347 78.4205 648.631 79.8172 649.199 80.9631C649.777 82.0994 650.577 82.9659 651.6 83.5625C652.623 84.1496 653.811 84.4432 655.165 84.4432C656.046 84.4432 656.841 84.3201 657.551 84.0739C658.271 83.8182 658.891 83.4394 659.412 82.9375C659.933 82.4261 660.336 81.7917 660.62 81.0341L663.858 81.9432C663.517 83.0417 662.944 84.0076 662.14 84.8409C661.335 85.6648 660.34 86.3087 659.157 86.7727C657.973 87.2273 656.642 87.4545 655.165 87.4545ZM671.742 87.2273C671.041 87.2273 670.44 86.9763 669.938 86.4744C669.436 85.9725 669.185 85.3712 669.185 84.6705C669.185 83.9697 669.436 83.3684 669.938 82.8665C670.44 82.3646 671.041 82.1136 671.742 82.1136C672.443 82.1136 673.044 82.3646 673.546 82.8665C674.048 83.3684 674.299 83.9697 674.299 84.6705C674.299 85.1345 674.18 85.5606 673.944 85.9489C673.716 86.3371 673.408 86.6496 673.02 86.8864C672.641 87.1136 672.215 87.2273 671.742 87.2273ZM671.742 71.0341C671.041 71.0341 670.44 70.7831 669.938 70.2812C669.436 69.7794 669.185 69.178 669.185 68.4773C669.185 67.7765 669.436 67.1752 669.938 66.6733C670.44 66.1714 671.041 65.9205 671.742 65.9205C672.443 65.9205 673.044 66.1714 673.546 66.6733C674.048 67.1752 674.299 67.7765 674.299 68.4773C674.299 68.9413 674.18 69.3674 673.944 69.7557C673.716 70.1439 673.408 70.4564 673.02 70.6932C672.641 70.9205 672.215 71.0341 671.742 71.0341Z" fill="white"/>
<rect x="366" y="365" width="136" height="136" rx="27" stroke="#DBDBDB" stroke-width="2"/>
<rect x="210" y="365" width="136" height="136" rx="27" stroke="#DBDBDB" stroke-width="2" stroke-dasharray="20 20"/>
<rect x="54" y="365" width="136" height="136" rx="27" stroke="#DBDBDB" stroke-width="2" stroke-dasharray="20 20"/>
<rect x="1" y="335" width="555" height="197" rx="27" stroke="#DBDBDB" stroke-width="2"/>
<path d="M415.718 449V419.909H425.548C427.83 419.909 429.695 420.321 431.144 421.145C432.603 421.959 433.682 423.062 434.383 424.455C435.084 425.847 435.434 427.4 435.434 429.114C435.434 430.828 435.084 432.385 434.383 433.787C433.692 435.188 432.621 436.306 431.173 437.139C429.724 437.963 427.868 438.375 425.604 438.375H418.559V435.25H425.491C427.053 435.25 428.308 434.98 429.255 434.44C430.202 433.901 430.888 433.171 431.315 432.253C431.75 431.325 431.968 430.278 431.968 429.114C431.968 427.949 431.75 426.907 431.315 425.989C430.888 425.07 430.197 424.35 429.241 423.83C428.284 423.299 427.015 423.034 425.434 423.034H419.241V449H415.718ZM440.597 449V446.443L450.2 435.932C451.326 434.701 452.254 433.631 452.984 432.722C453.713 431.803 454.253 430.941 454.603 430.136C454.963 429.322 455.143 428.47 455.143 427.58C455.143 426.557 454.897 425.671 454.404 424.923C453.921 424.175 453.258 423.598 452.415 423.19C451.573 422.783 450.626 422.58 449.575 422.58C448.457 422.58 447.482 422.812 446.648 423.276C445.825 423.73 445.185 424.369 444.731 425.193C444.286 426.017 444.063 426.983 444.063 428.091H440.711C440.711 426.386 441.104 424.89 441.89 423.602C442.676 422.314 443.746 421.311 445.1 420.591C446.464 419.871 447.993 419.511 449.688 419.511C451.393 419.511 452.903 419.871 454.219 420.591C455.536 421.311 456.568 422.281 457.316 423.503C458.064 424.724 458.438 426.083 458.438 427.58C458.438 428.65 458.244 429.696 457.856 430.719C457.477 431.732 456.814 432.864 455.867 434.114C454.93 435.354 453.628 436.869 451.961 438.659L445.427 445.648V445.875H458.95V449H440.597Z" fill="white"/>
<path d="M284.869 434.966V438.091H272.142V434.966H284.869Z" fill="white"/>
<path d="M129.869 434.966V438.091H117.142V434.966H129.869Z" fill="white"/>
<path d="M230.833 282.909H234.697L237.935 287.17L238.788 288.307L243.617 294.727H239.754L236.572 290.466L235.776 289.386L230.833 282.909ZM244.81 277.455C244.81 280.523 244.256 283.174 243.148 285.409C242.04 287.644 240.521 289.367 238.589 290.58C236.657 291.792 234.451 292.398 231.969 292.398C229.488 292.398 227.282 291.792 225.35 290.58C223.418 289.367 221.898 287.644 220.79 285.409C219.683 283.174 219.129 280.523 219.129 277.455C219.129 274.386 219.683 271.735 220.79 269.5C221.898 267.265 223.418 265.542 225.35 264.33C227.282 263.117 229.488 262.511 231.969 262.511C234.451 262.511 236.657 263.117 238.589 264.33C240.521 265.542 242.04 267.265 243.148 269.5C244.256 271.735 244.81 274.386 244.81 277.455ZM241.401 277.455C241.401 274.936 240.98 272.81 240.137 271.077C239.304 269.344 238.172 268.032 236.742 267.142C235.322 266.252 233.731 265.807 231.969 265.807C230.208 265.807 228.612 266.252 227.183 267.142C225.762 268.032 224.63 269.344 223.788 271.077C222.954 272.81 222.538 274.936 222.538 277.455C222.538 279.973 222.954 282.099 223.788 283.832C224.63 285.565 225.762 286.877 227.183 287.767C228.612 288.657 230.208 289.102 231.969 289.102C233.731 289.102 235.322 288.657 236.742 287.767C238.172 286.877 239.304 285.565 240.137 283.832C240.98 282.099 241.401 279.973 241.401 277.455ZM264.029 283.08V270.182H267.381V292H264.029V288.307H263.802C263.29 289.415 262.495 290.357 261.415 291.134C260.336 291.901 258.972 292.284 257.325 292.284C255.961 292.284 254.749 291.986 253.688 291.389C252.628 290.783 251.794 289.874 251.188 288.662C250.582 287.44 250.279 285.902 250.279 284.045V270.182H253.631V283.818C253.631 285.409 254.076 286.678 254.967 287.625C255.866 288.572 257.012 289.045 258.404 289.045C259.237 289.045 260.085 288.832 260.947 288.406C261.818 287.98 262.547 287.327 263.134 286.446C263.731 285.565 264.029 284.443 264.029 283.08ZM282.669 292.455C280.567 292.455 278.753 291.991 277.229 291.062C275.714 290.125 274.544 288.818 273.72 287.142C272.906 285.456 272.499 283.496 272.499 281.261C272.499 279.027 272.906 277.057 273.72 275.352C274.544 273.638 275.69 272.303 277.158 271.347C278.635 270.381 280.358 269.898 282.328 269.898C283.464 269.898 284.587 270.087 285.695 270.466C286.803 270.845 287.811 271.46 288.72 272.312C289.629 273.155 290.354 274.273 290.893 275.665C291.433 277.057 291.703 278.771 291.703 280.807V282.227H274.885V279.33H288.294C288.294 278.098 288.048 277 287.555 276.034C287.072 275.068 286.381 274.306 285.482 273.747C284.591 273.188 283.54 272.909 282.328 272.909C280.993 272.909 279.838 273.241 278.862 273.903C277.896 274.557 277.153 275.409 276.632 276.46C276.111 277.511 275.851 278.638 275.851 279.841V281.773C275.851 283.42 276.135 284.817 276.703 285.963C277.281 287.099 278.081 287.966 279.104 288.562C280.126 289.15 281.315 289.443 282.669 289.443C283.55 289.443 284.345 289.32 285.055 289.074C285.775 288.818 286.395 288.439 286.916 287.938C287.437 287.426 287.839 286.792 288.124 286.034L291.362 286.943C291.021 288.042 290.448 289.008 289.643 289.841C288.839 290.665 287.844 291.309 286.661 291.773C285.477 292.227 284.146 292.455 282.669 292.455ZM310.553 283.08V270.182H313.905V292H310.553V288.307H310.325C309.814 289.415 309.018 290.357 307.939 291.134C306.859 291.901 305.496 292.284 303.848 292.284C302.484 292.284 301.272 291.986 300.212 291.389C299.151 290.783 298.318 289.874 297.712 288.662C297.106 287.44 296.803 285.902 296.803 284.045V270.182H300.155V283.818C300.155 285.409 300.6 286.678 301.49 287.625C302.39 288.572 303.536 289.045 304.928 289.045C305.761 289.045 306.608 288.832 307.47 288.406C308.341 287.98 309.071 287.327 309.658 286.446C310.254 285.565 310.553 284.443 310.553 283.08ZM329.192 292.455C327.09 292.455 325.277 291.991 323.752 291.062C322.237 290.125 321.067 288.818 320.244 287.142C319.429 285.456 319.022 283.496 319.022 281.261C319.022 279.027 319.429 277.057 320.244 275.352C321.067 273.638 322.213 272.303 323.681 271.347C325.158 270.381 326.882 269.898 328.852 269.898C329.988 269.898 331.11 270.087 332.218 270.466C333.326 270.845 334.335 271.46 335.244 272.312C336.153 273.155 336.877 274.273 337.417 275.665C337.957 277.057 338.227 278.771 338.227 280.807V282.227H321.408V279.33H334.817C334.817 278.098 334.571 277 334.079 276.034C333.596 275.068 332.905 274.306 332.005 273.747C331.115 273.188 330.064 272.909 328.852 272.909C327.516 272.909 326.361 273.241 325.386 273.903C324.42 274.557 323.676 275.409 323.156 276.46C322.635 277.511 322.374 278.638 322.374 279.841V281.773C322.374 283.42 322.658 284.817 323.227 285.963C323.804 287.099 324.604 287.966 325.627 288.562C326.65 289.15 327.838 289.443 329.192 289.443C330.073 289.443 330.869 289.32 331.579 289.074C332.299 288.818 332.919 288.439 333.44 287.938C333.96 287.426 334.363 286.792 334.647 286.034L337.886 286.943C337.545 288.042 336.972 289.008 336.167 289.841C335.362 290.665 334.368 291.309 333.184 291.773C332 292.227 330.67 292.455 329.192 292.455Z" fill="white"/>
<path d="M1043.36 226H1039.84C1039.63 224.987 1039.27 224.097 1038.75 223.33C1038.23 222.562 1037.61 221.919 1036.87 221.398C1036.14 220.867 1035.33 220.47 1034.44 220.205C1033.55 219.939 1032.62 219.807 1031.66 219.807C1029.9 219.807 1028.3 220.252 1026.87 221.142C1025.45 222.032 1024.32 223.344 1023.48 225.077C1022.64 226.81 1022.23 228.936 1022.23 231.455C1022.23 233.973 1022.64 236.099 1023.48 237.832C1024.32 239.565 1025.45 240.877 1026.87 241.767C1028.3 242.657 1029.9 243.102 1031.66 243.102C1032.62 243.102 1033.55 242.97 1034.44 242.705C1035.33 242.439 1036.14 242.046 1036.87 241.526C1037.61 240.995 1038.23 240.347 1038.75 239.58C1039.27 238.803 1039.63 237.913 1039.84 236.909H1043.36C1043.1 238.396 1042.61 239.726 1041.91 240.901C1041.21 242.075 1040.34 243.074 1039.3 243.898C1038.26 244.712 1037.09 245.332 1035.79 245.759C1034.5 246.185 1033.12 246.398 1031.66 246.398C1029.18 246.398 1026.97 245.792 1025.04 244.58C1023.11 243.367 1021.59 241.644 1020.48 239.409C1019.37 237.174 1018.82 234.523 1018.82 231.455C1018.82 228.386 1019.37 225.735 1020.48 223.5C1021.59 221.265 1023.11 219.542 1025.04 218.33C1026.97 217.117 1029.18 216.511 1031.66 216.511C1033.12 216.511 1034.5 216.724 1035.79 217.151C1037.09 217.577 1038.26 218.202 1039.3 219.026C1040.34 219.84 1041.21 220.834 1041.91 222.009C1042.61 223.173 1043.1 224.504 1043.36 226ZM1049.05 246V216.909H1058.88C1061.17 216.909 1063.03 217.321 1064.48 218.145C1065.94 218.959 1067.02 220.062 1067.72 221.455C1068.42 222.847 1068.77 224.4 1068.77 226.114C1068.77 227.828 1068.42 229.385 1067.72 230.787C1067.03 232.188 1065.96 233.306 1064.51 234.139C1063.06 234.963 1061.2 235.375 1058.94 235.375H1051.89V232.25H1058.83C1060.39 232.25 1061.64 231.98 1062.59 231.44C1063.54 230.901 1064.22 230.171 1064.65 229.253C1065.09 228.325 1065.3 227.278 1065.3 226.114C1065.3 224.949 1065.09 223.907 1064.65 222.989C1064.22 222.07 1063.53 221.35 1062.58 220.83C1061.62 220.299 1060.35 220.034 1058.77 220.034H1052.58V246H1049.05ZM1093.54 216.909H1097.06V236.17C1097.06 238.159 1096.59 239.935 1095.65 241.497C1094.72 243.05 1093.41 244.277 1091.72 245.176C1090.02 246.066 1088.03 246.511 1085.75 246.511C1083.47 246.511 1081.48 246.066 1079.79 245.176C1078.09 244.277 1076.77 243.05 1075.84 241.497C1074.91 239.935 1074.44 238.159 1074.44 236.17V216.909H1077.97V235.886C1077.97 237.307 1078.28 238.571 1078.9 239.679C1079.53 240.777 1080.42 241.644 1081.58 242.278C1082.74 242.903 1084.13 243.216 1085.75 243.216C1087.37 243.216 1088.76 242.903 1089.93 242.278C1091.09 241.644 1091.98 240.777 1092.6 239.679C1093.22 238.571 1093.54 237.307 1093.54 235.886V216.909Z" fill="white"/>
<path d="M472.375 560.25L488.625 576.5L472.375 592.75" stroke="#DBDBDB" stroke-width="4" stroke-linecap="round" stroke-linejoin="round"/>
<line x1="67" y1="576.5" x2="486" y2="576.5" stroke="#DBDBDB" stroke-width="5"/>
<line x1="924" y1="409" x2="1193" y2="409" stroke="white" stroke-width="2"/>
<line x1="1083.5" y1="299.5" x2="1083.5" y2="568.5" stroke="white" stroke-width="2"/>
<line x1="924" y1="433" x2="1193" y2="433" stroke="white" stroke-width="2"/>
<line x1="1059.5" y1="299.5" x2="1059.5" y2="568.5" stroke="white" stroke-width="2"/>
<line x1="924" y1="457" x2="1193" y2="457" stroke="white" stroke-width="2"/>
<line x1="1035.5" y1="299.5" x2="1035.5" y2="568.5" stroke="white" stroke-width="2"/>
<rect x="961" y="336" width="196" height="196" rx="27" fill="#18181B" stroke="#DBDBDB" stroke-width="2"/>
<rect x="991" y="365" width="136" height="136" rx="27" stroke="#DBDBDB" stroke-width="2"/>
<path d="M1040.52 449V419.909H1050.35C1052.63 419.909 1054.5 420.321 1055.95 421.145C1057.41 421.959 1058.49 423.062 1059.19 424.455C1059.89 425.847 1060.24 427.4 1060.24 429.114C1060.24 430.828 1059.89 432.385 1059.19 433.787C1058.5 435.188 1057.43 436.306 1055.98 437.139C1054.53 437.963 1052.67 438.375 1050.41 438.375H1043.36V435.25H1050.3C1051.86 435.25 1053.11 434.98 1054.06 434.44C1055.01 433.901 1055.69 433.171 1056.12 432.253C1056.55 431.325 1056.77 430.278 1056.77 429.114C1056.77 427.949 1056.55 426.907 1056.12 425.989C1055.69 425.07 1055 424.35 1054.05 423.83C1053.09 423.299 1051.82 423.034 1050.24 423.034H1044.05V449H1040.52ZM1075.63 419.909V449H1072.11V423.602H1071.94L1064.83 428.318V424.739L1072.11 419.909H1075.63Z" fill="white"/>
</svg>
