<svg width="1251" height="356" viewBox="0 0 1251 356" fill="none" xmlns="http://www.w3.org/2000/svg">
<rect x="516" y="112" width="136" height="136" rx="27" stroke="#DBDBDB" stroke-width="2"/>
<rect x="1114" y="112" width="136" height="136" rx="27" stroke="#DBDBDB" stroke-width="2"/>
<rect x="360" y="112" width="136" height="136" rx="27" stroke="#DBDBDB" stroke-width="2" stroke-dasharray="20 20"/>
<rect x="1" y="82" width="705" height="197" rx="27" stroke="#DBDBDB" stroke-width="2"/>
<rect x="204" y="112" width="136" height="136" rx="27" stroke="#DBDBDB" stroke-width="2" stroke-dasharray="20 20"/>
<rect x="48" y="112" width="136" height="136" rx="27" stroke="#DBDBDB" stroke-width="2" stroke-dasharray="20 20"/>
<path d="M561.718 196V166.909H571.548C573.83 166.909 575.695 167.321 577.144 168.145C578.603 168.959 579.682 170.062 580.383 171.455C581.084 172.847 581.434 174.4 581.434 176.114C581.434 177.828 581.084 179.385 580.383 180.787C579.692 182.188 578.621 183.306 577.173 184.139C575.724 184.963 573.868 185.375 571.604 185.375H564.559V182.25H571.491C573.053 182.25 574.308 181.98 575.255 181.44C576.202 180.901 576.888 180.171 577.315 179.253C577.75 178.325 577.968 177.278 577.968 176.114C577.968 174.949 577.75 173.907 577.315 172.989C576.888 172.07 576.197 171.35 575.241 170.83C574.284 170.299 573.015 170.034 571.434 170.034H565.241V196H561.718ZM586.597 196V193.443L596.2 182.932C597.326 181.701 598.254 180.631 598.984 179.722C599.713 178.803 600.253 177.941 600.603 177.136C600.963 176.322 601.143 175.47 601.143 174.58C601.143 173.557 600.897 172.671 600.404 171.923C599.921 171.175 599.258 170.598 598.415 170.19C597.573 169.783 596.626 169.58 595.575 169.58C594.457 169.58 593.482 169.812 592.648 170.276C591.825 170.73 591.185 171.369 590.731 172.193C590.286 173.017 590.063 173.983 590.063 175.091H586.711C586.711 173.386 587.104 171.89 587.89 170.602C588.676 169.314 589.746 168.311 591.1 167.591C592.464 166.871 593.993 166.511 595.688 166.511C597.393 166.511 598.903 166.871 600.219 167.591C601.536 168.311 602.568 169.281 603.316 170.503C604.064 171.724 604.438 173.083 604.438 174.58C604.438 175.65 604.244 176.696 603.856 177.719C603.477 178.732 602.814 179.864 601.867 181.114C600.93 182.354 599.628 183.869 597.961 185.659L591.427 192.648V192.875H604.95V196H586.597Z" fill="white"/>
<path d="M1162.53 196V166.909H1172.36C1174.64 166.909 1176.51 167.321 1177.96 168.145C1179.42 168.959 1180.49 170.062 1181.2 171.455C1181.9 172.847 1182.25 174.4 1182.25 176.114C1182.25 177.828 1181.9 179.385 1181.2 180.787C1180.5 182.188 1179.43 183.306 1177.99 184.139C1176.54 184.963 1174.68 185.375 1172.42 185.375H1165.37V182.25H1172.3C1173.87 182.25 1175.12 181.98 1176.07 181.44C1177.01 180.901 1177.7 180.171 1178.13 179.253C1178.56 178.325 1178.78 177.278 1178.78 176.114C1178.78 174.949 1178.56 173.907 1178.13 172.989C1177.7 172.07 1177.01 171.35 1176.05 170.83C1175.1 170.299 1173.83 170.034 1172.25 170.034H1166.05V196H1162.53ZM1197.64 166.909V196H1194.11V170.602H1193.94L1186.84 175.318V171.739L1194.11 166.909H1197.64Z" fill="white"/>
<path d="M433.568 181.966V185.091H420.841V181.966H433.568Z" fill="white"/>
<path d="M277.568 181.966V185.091H264.841V181.966H277.568Z" fill="white"/>
<path d="M121.568 181.966V185.091H108.841V181.966H121.568Z" fill="white"/>
<path d="M305.833 29.9091H309.697L312.935 34.1705L313.788 35.3068L318.617 41.7273H314.754L311.572 37.4659L310.776 36.3864L305.833 29.9091ZM319.81 24.4545C319.81 27.5227 319.256 30.1742 318.148 32.4091C317.04 34.6439 315.521 36.3674 313.589 37.5795C311.657 38.7917 309.451 39.3977 306.969 39.3977C304.488 39.3977 302.282 38.7917 300.35 37.5795C298.418 36.3674 296.898 34.6439 295.79 32.4091C294.683 30.1742 294.129 27.5227 294.129 24.4545C294.129 21.3864 294.683 18.7348 295.79 16.5C296.898 14.2652 298.418 12.5417 300.35 11.3295C302.282 10.1174 304.488 9.51136 306.969 9.51136C309.451 9.51136 311.657 10.1174 313.589 11.3295C315.521 12.5417 317.04 14.2652 318.148 16.5C319.256 18.7348 319.81 21.3864 319.81 24.4545ZM316.401 24.4545C316.401 21.9356 315.98 19.8097 315.137 18.0767C314.304 16.3438 313.172 15.0322 311.742 14.142C310.322 13.2519 308.731 12.8068 306.969 12.8068C305.208 12.8068 303.612 13.2519 302.183 14.142C300.762 15.0322 299.63 16.3438 298.788 18.0767C297.954 19.8097 297.538 21.9356 297.538 24.4545C297.538 26.9735 297.954 29.0994 298.788 30.8324C299.63 32.5653 300.762 33.8769 302.183 34.767C303.612 35.6572 305.208 36.1023 306.969 36.1023C308.731 36.1023 310.322 35.6572 311.742 34.767C313.172 33.8769 314.304 32.5653 315.137 30.8324C315.98 29.0994 316.401 26.9735 316.401 24.4545ZM339.029 30.0795V17.1818H342.381V39H339.029V35.3068H338.802C338.29 36.4148 337.495 37.357 336.415 38.1335C335.336 38.9006 333.972 39.2841 332.325 39.2841C330.961 39.2841 329.749 38.9858 328.688 38.3892C327.628 37.7831 326.794 36.8741 326.188 35.6619C325.582 34.4403 325.279 32.9015 325.279 31.0455V17.1818H328.631V30.8182C328.631 32.4091 329.076 33.678 329.967 34.625C330.866 35.572 332.012 36.0455 333.404 36.0455C334.237 36.0455 335.085 35.8324 335.947 35.4062C336.818 34.9801 337.547 34.3267 338.134 33.446C338.731 32.5653 339.029 31.4432 339.029 30.0795ZM357.669 39.4545C355.567 39.4545 353.753 38.9905 352.229 38.0625C350.714 37.125 349.544 35.8182 348.72 34.142C347.906 32.4564 347.499 30.4962 347.499 28.2614C347.499 26.0265 347.906 24.0568 348.72 22.3523C349.544 20.6383 350.69 19.303 352.158 18.3466C353.635 17.3807 355.358 16.8977 357.328 16.8977C358.464 16.8977 359.587 17.0871 360.695 17.4659C361.803 17.8447 362.811 18.4602 363.72 19.3125C364.629 20.1553 365.354 21.2727 365.893 22.6648C366.433 24.0568 366.703 25.7708 366.703 27.8068V29.2273H349.885V26.3295H363.294C363.294 25.0985 363.048 24 362.555 23.0341C362.072 22.0682 361.381 21.3059 360.482 20.7472C359.591 20.1884 358.54 19.9091 357.328 19.9091C355.993 19.9091 354.838 20.2405 353.862 20.9034C352.896 21.5568 352.153 22.4091 351.632 23.4602C351.111 24.5114 350.851 25.6383 350.851 26.8409V28.7727C350.851 30.4205 351.135 31.8172 351.703 32.9631C352.281 34.0994 353.081 34.9659 354.104 35.5625C355.126 36.1496 356.315 36.4432 357.669 36.4432C358.55 36.4432 359.345 36.3201 360.055 36.0739C360.775 35.8182 361.395 35.4394 361.916 34.9375C362.437 34.4261 362.839 33.7917 363.124 33.0341L366.362 33.9432C366.021 35.0417 365.448 36.0076 364.643 36.8409C363.839 37.6648 362.844 38.3087 361.661 38.7727C360.477 39.2273 359.146 39.4545 357.669 39.4545ZM385.553 30.0795V17.1818H388.905V39H385.553V35.3068H385.325C384.814 36.4148 384.018 37.357 382.939 38.1335C381.859 38.9006 380.496 39.2841 378.848 39.2841C377.484 39.2841 376.272 38.9858 375.212 38.3892C374.151 37.7831 373.318 36.8741 372.712 35.6619C372.106 34.4403 371.803 32.9015 371.803 31.0455V17.1818H375.155V30.8182C375.155 32.4091 375.6 33.678 376.49 34.625C377.39 35.572 378.536 36.0455 379.928 36.0455C380.761 36.0455 381.608 35.8324 382.47 35.4062C383.341 34.9801 384.071 34.3267 384.658 33.446C385.254 32.5653 385.553 31.4432 385.553 30.0795ZM404.192 39.4545C402.09 39.4545 400.277 38.9905 398.752 38.0625C397.237 37.125 396.067 35.8182 395.244 34.142C394.429 32.4564 394.022 30.4962 394.022 28.2614C394.022 26.0265 394.429 24.0568 395.244 22.3523C396.067 20.6383 397.213 19.303 398.681 18.3466C400.158 17.3807 401.882 16.8977 403.852 16.8977C404.988 16.8977 406.11 17.0871 407.218 17.4659C408.326 17.8447 409.335 18.4602 410.244 19.3125C411.153 20.1553 411.877 21.2727 412.417 22.6648C412.957 24.0568 413.227 25.7708 413.227 27.8068V29.2273H396.408V26.3295H409.817C409.817 25.0985 409.571 24 409.079 23.0341C408.596 22.0682 407.905 21.3059 407.005 20.7472C406.115 20.1884 405.064 19.9091 403.852 19.9091C402.516 19.9091 401.361 20.2405 400.386 20.9034C399.42 21.5568 398.676 22.4091 398.156 23.4602C397.635 24.5114 397.374 25.6383 397.374 26.8409V28.7727C397.374 30.4205 397.658 31.8172 398.227 32.9631C398.804 34.0994 399.604 34.9659 400.627 35.5625C401.65 36.1496 402.838 36.4432 404.192 36.4432C405.073 36.4432 405.869 36.3201 406.579 36.0739C407.299 35.8182 407.919 35.4394 408.44 34.9375C408.96 34.4261 409.363 33.7917 409.647 33.0341L412.886 33.9432C412.545 35.0417 411.972 36.0076 411.167 36.8409C410.362 37.6648 409.368 38.3087 408.184 38.7727C407 39.2273 405.67 39.4545 404.192 39.4545Z" fill="white"/>
<path d="M622.375 307.25L638.625 323.5L622.375 339.75" stroke="#DBDBDB" stroke-width="4" stroke-linecap="round" stroke-linejoin="round"/>
<line x1="60" y1="323.5" x2="636" y2="323.5" stroke="#DBDBDB" stroke-width="5"/>
<path d="M1020.28 173.148L1042.64 178.456L1037.33 200.816" stroke="#DBDBDB" stroke-width="4" stroke-linecap="round" stroke-linejoin="round"/>
<path d="M765 181C880.08 233.373 940.748 235.8 1040.5 181" stroke="#DBDBDB" stroke-width="4"/>
<path d="M846.523 174V144.909H856.352C858.634 144.909 860.5 145.321 861.949 146.145C863.407 146.959 864.487 148.062 865.188 149.455C865.888 150.847 866.239 152.4 866.239 154.114C866.239 155.828 865.888 157.385 865.188 158.787C864.496 160.188 863.426 161.306 861.977 162.139C860.528 162.963 858.672 163.375 856.409 163.375H849.364V160.25H856.295C857.858 160.25 859.113 159.98 860.06 159.44C861.007 158.901 861.693 158.171 862.119 157.253C862.555 156.325 862.773 155.278 862.773 154.114C862.773 152.949 862.555 151.907 862.119 150.989C861.693 150.07 861.002 149.35 860.045 148.83C859.089 148.299 857.82 148.034 856.239 148.034H850.045V174H846.523ZM881.629 144.909V174H878.107V148.602H877.936L870.834 153.318V149.739L878.107 144.909H881.629ZM910.45 174.455C908.348 174.455 906.535 173.991 905.01 173.062C903.495 172.125 902.325 170.818 901.501 169.142C900.687 167.456 900.28 165.496 900.28 163.261C900.28 161.027 900.687 159.057 901.501 157.352C902.325 155.638 903.471 154.303 904.939 153.347C906.416 152.381 908.14 151.898 910.109 151.898C911.246 151.898 912.368 152.087 913.476 152.466C914.584 152.845 915.592 153.46 916.501 154.312C917.411 155.155 918.135 156.273 918.675 157.665C919.214 159.057 919.484 160.771 919.484 162.807V164.227H902.666V161.33H916.075C916.075 160.098 915.829 159 915.337 158.034C914.854 157.068 914.162 156.306 913.263 155.747C912.373 155.188 911.321 154.909 910.109 154.909C908.774 154.909 907.619 155.241 906.643 155.903C905.678 156.557 904.934 157.409 904.413 158.46C903.893 159.511 903.632 160.638 903.632 161.841V163.773C903.632 165.42 903.916 166.817 904.484 167.963C905.062 169.099 905.862 169.966 906.885 170.562C907.908 171.15 909.096 171.443 910.45 171.443C911.331 171.443 912.126 171.32 912.837 171.074C913.556 170.818 914.177 170.439 914.697 169.938C915.218 169.426 915.621 168.792 915.905 168.034L919.143 168.943C918.803 170.042 918.23 171.008 917.425 171.841C916.62 172.665 915.625 173.309 914.442 173.773C913.258 174.227 911.928 174.455 910.45 174.455ZM926.498 152.182L931.725 161.102L936.952 152.182H940.816L933.771 163.091L940.816 174H936.952L931.725 165.534L926.498 174H922.634L929.566 163.091L922.634 152.182H926.498ZM945.599 174V152.182H948.952V174H945.599ZM947.304 148.545C946.651 148.545 946.087 148.323 945.614 147.878C945.15 147.433 944.918 146.898 944.918 146.273C944.918 145.648 945.15 145.113 945.614 144.668C946.087 144.223 946.651 144 947.304 144C947.957 144 948.516 144.223 948.98 144.668C949.454 145.113 949.69 145.648 949.69 146.273C949.69 146.898 949.454 147.433 948.98 147.878C948.516 148.323 947.957 148.545 947.304 148.545ZM964.58 152.182V155.023H953.273V152.182H964.58ZM956.569 146.955H959.921V167.75C959.921 168.697 960.058 169.407 960.333 169.881C960.617 170.345 960.977 170.657 961.413 170.818C961.858 170.97 962.326 171.045 962.819 171.045C963.188 171.045 963.491 171.027 963.728 170.989C963.965 170.941 964.154 170.903 964.296 170.875L964.978 173.886C964.751 173.972 964.433 174.057 964.026 174.142C963.619 174.237 963.103 174.284 962.478 174.284C961.531 174.284 960.603 174.08 959.694 173.673C958.794 173.266 958.046 172.646 957.45 171.812C956.862 170.979 956.569 169.928 956.569 168.659V146.955ZM984.687 157.068L981.675 157.92C981.486 157.419 981.207 156.931 980.837 156.457C980.478 155.974 979.985 155.577 979.36 155.264C978.735 154.952 977.935 154.795 976.96 154.795C975.624 154.795 974.512 155.103 973.621 155.719C972.741 156.325 972.3 157.097 972.3 158.034C972.3 158.867 972.603 159.526 973.21 160.009C973.816 160.491 974.763 160.894 976.05 161.216L979.289 162.011C981.24 162.485 982.693 163.209 983.65 164.185C984.606 165.151 985.085 166.396 985.085 167.92C985.085 169.17 984.725 170.288 984.005 171.273C983.295 172.258 982.3 173.034 981.022 173.602C979.744 174.17 978.257 174.455 976.562 174.455C974.336 174.455 972.495 173.972 971.036 173.006C969.578 172.04 968.655 170.629 968.266 168.773L971.448 167.977C971.751 169.152 972.324 170.032 973.167 170.619C974.019 171.206 975.132 171.5 976.505 171.5C978.067 171.5 979.308 171.169 980.227 170.506C981.155 169.833 981.619 169.028 981.619 168.091C981.619 167.333 981.353 166.699 980.823 166.188C980.293 165.667 979.478 165.278 978.38 165.023L974.744 164.17C972.746 163.697 971.278 162.963 970.34 161.969C969.412 160.965 968.948 159.71 968.948 158.205C968.948 156.973 969.294 155.884 969.985 154.938C970.686 153.991 971.638 153.247 972.84 152.707C974.052 152.168 975.425 151.898 976.96 151.898C979.119 151.898 980.814 152.371 982.045 153.318C983.285 154.265 984.166 155.515 984.687 157.068Z" fill="white"/>
<path d="M832.557 260.182V263.023H821.25V260.182H832.557ZM824.545 254.955H827.898V275.75C827.898 276.697 828.035 277.407 828.31 277.881C828.594 278.345 828.954 278.657 829.389 278.818C829.834 278.97 830.303 279.045 830.795 279.045C831.165 279.045 831.468 279.027 831.705 278.989C831.941 278.941 832.131 278.903 832.273 278.875L832.955 281.886C832.727 281.972 832.41 282.057 832.003 282.142C831.596 282.237 831.08 282.284 830.455 282.284C829.508 282.284 828.58 282.08 827.67 281.673C826.771 281.266 826.023 280.646 825.426 279.812C824.839 278.979 824.545 277.928 824.545 276.659V254.955ZM841.42 268.875V282H838.068V252.909H841.42V263.591H841.705C842.216 262.464 842.983 261.569 844.006 260.906C845.038 260.234 846.411 259.898 848.125 259.898C849.612 259.898 850.914 260.196 852.031 260.793C853.149 261.38 854.015 262.284 854.631 263.506C855.256 264.718 855.568 266.261 855.568 268.136V282H852.216V268.364C852.216 266.631 851.766 265.291 850.866 264.344C849.976 263.387 848.741 262.909 847.159 262.909C846.061 262.909 845.076 263.141 844.205 263.605C843.343 264.069 842.661 264.746 842.159 265.636C841.667 266.527 841.42 267.606 841.42 268.875ZM870.849 282.455C868.746 282.455 866.933 281.991 865.408 281.062C863.893 280.125 862.724 278.818 861.9 277.142C861.085 275.456 860.678 273.496 860.678 271.261C860.678 269.027 861.085 267.057 861.9 265.352C862.724 263.638 863.87 262.303 865.337 261.347C866.815 260.381 868.538 259.898 870.508 259.898C871.644 259.898 872.766 260.087 873.874 260.466C874.982 260.845 875.991 261.46 876.9 262.312C877.809 263.155 878.533 264.273 879.073 265.665C879.613 267.057 879.883 268.771 879.883 270.807V272.227H863.065V269.33H876.474C876.474 268.098 876.228 267 875.735 266.034C875.252 265.068 874.561 264.306 873.661 263.747C872.771 263.188 871.72 262.909 870.508 262.909C869.173 262.909 868.017 263.241 867.042 263.903C866.076 264.557 865.333 265.409 864.812 266.46C864.291 267.511 864.031 268.638 864.031 269.841V271.773C864.031 273.42 864.315 274.817 864.883 275.963C865.46 277.099 866.261 277.966 867.283 278.562C868.306 279.15 869.495 279.443 870.849 279.443C871.729 279.443 872.525 279.32 873.235 279.074C873.955 278.818 874.575 278.439 875.096 277.938C875.617 277.426 876.019 276.792 876.303 276.034L879.542 276.943C879.201 278.042 878.628 279.008 877.823 279.841C877.018 280.665 876.024 281.309 874.84 281.773C873.656 282.227 872.326 282.455 870.849 282.455ZM911.119 290.182V278.648H910.835C910.588 279.045 910.238 279.547 909.783 280.153C909.329 280.75 908.68 281.285 907.837 281.759C906.995 282.223 905.872 282.455 904.471 282.455C902.653 282.455 901.048 281.995 899.656 281.077C898.263 280.149 897.174 278.842 896.388 277.156C895.603 275.461 895.21 273.458 895.21 271.148C895.21 268.856 895.603 266.867 896.388 265.182C897.174 263.496 898.268 262.194 899.67 261.276C901.071 260.357 902.691 259.898 904.528 259.898C905.948 259.898 907.07 260.134 907.894 260.608C908.728 261.072 909.362 261.602 909.798 262.199C910.243 262.786 910.588 263.269 910.835 263.648H911.232V260.182H914.471V290.182H911.119ZM904.925 279.443C906.27 279.443 907.406 279.093 908.335 278.392C909.263 277.682 909.968 276.702 910.451 275.452C910.934 274.192 911.175 272.739 911.175 271.091C911.175 269.462 910.939 268.037 910.465 266.815C909.992 265.584 909.291 264.628 908.363 263.946C907.435 263.255 906.289 262.909 904.925 262.909C903.505 262.909 902.321 263.274 901.374 264.003C900.437 264.723 899.731 265.703 899.258 266.943C898.794 268.174 898.562 269.557 898.562 271.091C898.562 272.644 898.799 274.055 899.272 275.324C899.755 276.583 900.465 277.587 901.403 278.335C902.35 279.074 903.524 279.443 904.925 279.443ZM934.357 273.08V260.182H937.71V282H934.357V278.307H934.13C933.619 279.415 932.823 280.357 931.744 281.134C930.664 281.901 929.3 282.284 927.653 282.284C926.289 282.284 925.077 281.986 924.016 281.389C922.956 280.783 922.122 279.874 921.516 278.662C920.91 277.44 920.607 275.902 920.607 274.045V260.182H923.96V273.818C923.96 275.409 924.405 276.678 925.295 277.625C926.194 278.572 927.34 279.045 928.732 279.045C929.566 279.045 930.413 278.832 931.275 278.406C932.146 277.98 932.875 277.327 933.462 276.446C934.059 275.565 934.357 274.443 934.357 273.08ZM952.997 282.455C950.895 282.455 949.081 281.991 947.557 281.062C946.042 280.125 944.872 278.818 944.048 277.142C943.234 275.456 942.827 273.496 942.827 271.261C942.827 269.027 943.234 267.057 944.048 265.352C944.872 263.638 946.018 262.303 947.486 261.347C948.963 260.381 950.687 259.898 952.656 259.898C953.793 259.898 954.915 260.087 956.023 260.466C957.131 260.845 958.139 261.46 959.048 262.312C959.957 263.155 960.682 264.273 961.222 265.665C961.761 267.057 962.031 268.771 962.031 270.807V272.227H945.213V269.33H958.622C958.622 268.098 958.376 267 957.884 266.034C957.401 265.068 956.709 264.306 955.81 263.747C954.92 263.188 953.868 262.909 952.656 262.909C951.321 262.909 950.166 263.241 949.19 263.903C948.224 264.557 947.481 265.409 946.96 266.46C946.439 267.511 946.179 268.638 946.179 269.841V271.773C946.179 273.42 946.463 274.817 947.031 275.963C947.609 277.099 948.409 277.966 949.432 278.562C950.455 279.15 951.643 279.443 952.997 279.443C953.878 279.443 954.673 279.32 955.384 279.074C956.103 278.818 956.723 278.439 957.244 277.938C957.765 277.426 958.168 276.792 958.452 276.034L961.69 276.943C961.349 278.042 960.777 279.008 959.972 279.841C959.167 280.665 958.172 281.309 956.989 281.773C955.805 282.227 954.474 282.455 952.997 282.455ZM980.881 273.08V260.182H984.233V282H980.881V278.307H980.653C980.142 279.415 979.347 280.357 978.267 281.134C977.188 281.901 975.824 282.284 974.176 282.284C972.812 282.284 971.6 281.986 970.54 281.389C969.479 280.783 968.646 279.874 968.04 278.662C967.434 277.44 967.131 275.902 967.131 274.045V260.182H970.483V273.818C970.483 275.409 970.928 276.678 971.818 277.625C972.718 278.572 973.864 279.045 975.256 279.045C976.089 279.045 976.937 278.832 977.798 278.406C978.67 277.98 979.399 277.327 979.986 276.446C980.582 275.565 980.881 274.443 980.881 273.08ZM999.521 282.455C997.418 282.455 995.605 281.991 994.08 281.062C992.565 280.125 991.396 278.818 990.572 277.142C989.757 275.456 989.35 273.496 989.35 271.261C989.35 269.027 989.757 267.057 990.572 265.352C991.396 263.638 992.541 262.303 994.009 261.347C995.487 260.381 997.21 259.898 999.18 259.898C1000.32 259.898 1001.44 260.087 1002.55 260.466C1003.65 260.845 1004.66 261.46 1005.57 262.312C1006.48 263.155 1007.21 264.273 1007.75 265.665C1008.28 267.057 1008.55 268.771 1008.55 270.807V272.227H991.737V269.33H1005.15C1005.15 268.098 1004.9 267 1004.41 266.034C1003.92 265.068 1003.23 264.306 1002.33 263.747C1001.44 263.188 1000.39 262.909 999.18 262.909C997.844 262.909 996.689 263.241 995.714 263.903C994.748 264.557 994.004 265.409 993.484 266.46C992.963 267.511 992.702 268.638 992.702 269.841V271.773C992.702 273.42 992.987 274.817 993.555 275.963C994.132 277.099 994.933 277.966 995.955 278.562C996.978 279.15 998.166 279.443 999.521 279.443C1000.4 279.443 1001.2 279.32 1001.91 279.074C1002.63 278.818 1003.25 278.439 1003.77 277.938C1004.29 277.426 1004.69 276.792 1004.98 276.034L1008.21 276.943C1007.87 278.042 1007.3 279.008 1006.5 279.841C1005.69 280.665 1004.7 281.309 1003.51 281.773C1002.33 282.227 1001 282.455 999.521 282.455Z" fill="white"/>
</svg>
