<svg xmlns="http://www.w3.org/2000/svg" width="1193" height="402" fill="none" viewBox="0 0 1193 402"><rect width="136" height="136" x="361" y="158" stroke="#dbdbdb" stroke-dasharray="20 20" stroke-width="2" rx="27"/><rect width="136" height="136" x="205" y="158" stroke="#dbdbdb" stroke-dasharray="20 20" stroke-width="2" rx="27"/><rect width="136" height="136" x="49" y="158" stroke="#dbdbdb" stroke-dasharray="20 20" stroke-width="2" rx="27"/><rect width="550" height="197" x="1" y="128" stroke="#dbdbdb" stroke-width="2" rx="27"/><path fill="#fff" d="M435.869 227.966v3.125h-12.727v-3.125zM279.869 227.966v3.125h-12.727v-3.125zM123.869 227.966v3.125h-12.727v-3.125zM227.833 75.91h3.864l3.238 4.26.853 1.137 4.829 6.42h-3.863l-3.182-4.261-.796-1.08zm13.977-5.456q0 4.603-1.662 7.955t-4.559 5.17q-2.898 1.82-6.62 1.819-3.721 0-6.619-1.819t-4.56-5.17q-1.66-3.352-1.661-7.955 0-4.602 1.661-7.954t4.56-5.17q2.898-1.82 6.619-1.819 3.722 0 6.62 1.819 2.897 1.818 4.559 5.17t1.662 7.954m-3.409 0q0-3.777-1.264-6.377-1.25-2.6-3.395-3.935-2.13-1.335-4.773-1.335t-4.786 1.335q-2.132 1.335-3.395 3.935-1.25 2.6-1.25 6.377 0 3.78 1.25 6.378 1.263 2.6 3.395 3.935 2.144 1.335 4.786 1.335 2.643 0 4.773-1.335 2.145-1.335 3.395-3.935 1.264-2.599 1.264-6.377m22.628 5.626V63.182h3.352V85h-3.352v-3.693h-.227q-.768 1.662-2.387 2.826-1.619 1.151-4.09 1.151-2.046 0-3.637-.895-1.59-.909-2.5-2.727-.909-1.832-.909-4.617V63.183h3.352v13.636q0 2.386 1.336 3.807 1.349 1.42 3.437 1.42 1.25 0 2.543-.639 1.307-.64 2.187-1.96.895-1.32.895-3.367m18.64 9.374q-3.154 0-5.44-1.391-2.273-1.407-3.509-3.921-1.221-2.529-1.221-5.88 0-3.353 1.221-5.91 1.236-2.571 3.438-4.005 2.215-1.45 5.17-1.45 1.705 0 3.367.569 1.662.568 3.025 1.846 1.364 1.264 2.173 3.353.81 2.088.81 5.142v1.42h-16.818V72.33h13.409q0-1.845-.739-3.295a5.57 5.57 0 0 0-2.073-2.287q-1.336-.838-3.154-.838-2.002 0-3.466.994a6.54 6.54 0 0 0-2.23 2.557 7.5 7.5 0 0 0-.781 3.38v1.933q0 2.471.852 4.19.867 1.704 2.401 2.6 1.533.88 3.565.88 1.321 0 2.386-.37a5.1 5.1 0 0 0 1.861-1.135q.781-.767 1.208-1.904l3.238.91a7.2 7.2 0 0 1-1.719 2.897q-1.207 1.236-2.982 1.932-1.776.681-3.992.681m27.884-9.374V63.182h3.352V85h-3.352v-3.693h-.228q-.767 1.662-2.386 2.826-1.62 1.151-4.091 1.151-2.046 0-3.636-.895-1.591-.909-2.5-2.727-.909-1.832-.909-4.617V63.183h3.352v13.636q0 2.386 1.335 3.807 1.35 1.42 3.438 1.42 1.25 0 2.542-.639 1.307-.64 2.188-1.96.894-1.32.895-3.367m18.639 9.374q-3.153 0-5.44-1.391-2.273-1.407-3.508-3.921-1.222-2.529-1.222-5.88 0-3.353 1.222-5.91 1.235-2.571 3.437-4.005 2.216-1.45 5.171-1.45 1.704 0 3.366.569 1.662.568 3.026 1.846 1.363 1.264 2.173 3.353.81 2.088.81 5.142v1.42h-16.819V72.33h13.409q0-1.845-.738-3.295a5.56 5.56 0 0 0-2.074-2.287q-1.335-.838-3.153-.838-2.004 0-3.466.994a6.53 6.53 0 0 0-2.23 2.557 7.5 7.5 0 0 0-.782 3.38v1.933q0 2.471.853 4.19.865 1.704 2.4 2.6 1.534.88 3.565.88 1.322 0 2.387-.37a5.1 5.1 0 0 0 1.861-1.135q.78-.767 1.207-1.904l3.239.91a7.2 7.2 0 0 1-1.719 2.897q-1.207 1.236-2.983 1.932-1.776.681-3.992.681M1043.36 19h-3.52c-.21-1.013-.57-1.903-1.09-2.67a7.4 7.4 0 0 0-1.88-1.932 8 8 0 0 0-2.43-1.194 9.7 9.7 0 0 0-2.78-.397c-1.76 0-3.36.445-4.79 1.335q-2.13 1.335-3.39 3.935c-.84 1.733-1.25 3.859-1.25 6.377 0 2.52.41 4.645 1.25 6.378q1.26 2.6 3.39 3.935c1.43.89 3.03 1.335 4.79 1.335a9.7 9.7 0 0 0 2.78-.397q1.335-.399 2.43-1.18a7.6 7.6 0 0 0 1.88-1.945c.52-.777.88-1.667 1.09-2.67h3.52c-.26 1.486-.75 2.816-1.45 3.99a10.9 10.9 0 0 1-2.61 2.998 11.4 11.4 0 0 1-3.51 1.86c-1.29.427-2.67.64-4.13.64-2.48 0-4.69-.606-6.62-1.819q-2.895-1.818-4.56-5.17c-1.11-2.235-1.66-4.886-1.66-7.954 0-3.069.55-5.72 1.66-7.955q1.665-3.352 4.56-5.17c1.93-1.213 4.14-1.819 6.62-1.819 1.46 0 2.84.213 4.13.64q1.95.638 3.51 1.875 1.56 1.22 2.61 2.983c.7 1.164 1.19 2.495 1.45 3.991m5.69 20V9.91h9.83c2.29 0 4.15.411 5.6 1.235q2.19 1.221 3.24 3.31t1.05 4.659-1.05 4.673q-1.035 2.102-3.21 3.352c-1.45.824-3.31 1.236-5.57 1.236h-7.05V25.25h6.94c1.56 0 2.81-.27 3.76-.81s1.63-1.269 2.06-2.187c.44-.928.65-1.975.65-3.14 0-1.164-.21-2.206-.65-3.124q-.645-1.379-2.07-2.16-1.44-.795-3.81-.795h-6.19V39zm44.49-29.09h3.52v19.26q0 2.985-1.41 5.327-1.395 2.33-3.93 3.68-2.55 1.335-5.97 1.334c-2.28 0-4.27-.445-5.96-1.335-1.7-.9-3.02-2.126-3.95-3.679-.93-1.562-1.4-3.338-1.4-5.326V9.909h3.53v18.977q0 2.13.93 3.793c.63 1.099 1.52 1.965 2.68 2.6q1.74.937 4.17.937c1.62 0 3.01-.313 4.18-.938q1.74-.95 2.67-2.599c.62-1.108.94-2.372.94-3.793z"/><path stroke="#dbdbdb" stroke-linecap="round" stroke-linejoin="round" stroke-width="4" d="m467.375 353.25 16.25 16.25-16.25 16.25"/><path stroke="#dbdbdb" stroke-width="5" d="M79 369.5h402"/><path stroke="#fff" stroke-width="2" d="M924 202h269M1083.5 92.5v269M924 226h269M1059.5 92.5v269M924 250h269M1035.5 92.5v269"/><rect width="196" height="196" x="961" y="129" fill="#18181b" stroke="#dbdbdb" stroke-width="2" rx="27"/><path fill="#fff" d="M1002.6 242v-29.091h17.56v3.125h-14.04v9.83h13.13v3.125h-13.13v9.886h14.26V242zm23.45 0v-21.818h3.24v3.409h.29c.45-1.165 1.18-2.069 2.2-2.713 1.01-.654 2.23-.98 3.65-.98 1.44 0 2.63.326 3.59.98.97.644 1.72 1.548 2.26 2.713h.23a6.34 6.34 0 0 1 2.51-2.685q1.68-1.008 4.02-1.008c1.95 0 3.55.611 4.79 1.832q1.86 1.818 1.86 5.668V242h-3.35v-14.602q0-2.415-1.32-3.452c-.89-.691-1.92-1.037-3.12-1.037-1.53 0-2.72.464-3.56 1.392q-1.26 1.378-1.26 3.494V242h-3.41v-14.943c0-1.241-.41-2.24-1.21-2.997-.81-.767-1.84-1.151-3.11-1.151-.87 0-1.69.232-2.45.696a5.27 5.27 0 0 0-1.81 1.932q-.69 1.221-.69 2.827V242zm34.77 8.182v-30h3.24v3.466h.39c.25-.379.59-.862 1.03-1.449.44-.597 1.08-1.127 1.9-1.591.83-.474 1.96-.71 3.38-.71q2.76 0 4.86 1.378c1.4.918 2.49 2.22 3.28 3.906s1.18 3.674 1.18 5.966c0 2.31-.39 4.313-1.18 6.008-.79 1.686-1.87 2.993-3.27 3.921-1.39.918-2.99 1.378-4.81 1.378-1.4 0-2.53-.232-3.37-.696-.84-.474-1.49-1.009-1.94-1.606a22 22 0 0 1-1.06-1.505h-.28v11.534zm3.29-19.091c0 1.648.25 3.101.73 4.361.48 1.25 1.19 2.23 2.11 2.94.93.701 2.07 1.051 3.41 1.051 1.41 0 2.57-.369 3.51-1.108q1.425-1.122 2.13-3.011c.49-1.269.73-2.68.73-4.233 0-1.534-.24-2.917-.71-4.148-.47-1.24-1.17-2.22-2.12-2.94q-1.41-1.094-3.54-1.094c-1.36 0-2.51.346-3.43 1.037-.93.682-1.63 1.638-2.11 2.869-.47 1.222-.71 2.647-.71 4.276m30.57-10.909v2.841h-11.3v-2.841zm-8.01-5.227h3.35v20.795c0 .947.14 1.657.41 2.131q.435.696 1.08.937.675.227 1.41.227c.37 0 .67-.018.91-.056l.57-.114.68 3.011c-.23.086-.54.171-.95.256-.41.095-.93.142-1.55.142-.95 0-1.88-.204-2.78-.611a5.56 5.56 0 0 1-2.25-1.861c-.59-.833-.88-1.884-.88-3.153zm15.21 35.227c-.56 0-1.07-.048-1.52-.142-.44-.085-.75-.171-.92-.256l.85-2.954q1.23.312 2.16.227c.63-.057 1.18-.336 1.66-.838q.75-.74 1.35-2.401l.63-1.704-8.07-21.932h3.64l6.02 17.386h.23l6.02-17.386h3.64l-9.27 25c-.41 1.127-.93 2.059-1.54 2.798-.62.748-1.33 1.302-2.15 1.662q-1.2.54-2.73.54"/></svg>