<svg xmlns="http://www.w3.org/2000/svg" width="1049" height="538" fill="none" viewBox="0 0 1049 538"><path fill="#fff" d="M21.302 110.727V134h-2.818v-20.318h-.136l-5.682 3.773v-2.864l5.818-3.864zm11.628 23.455a1.97 1.97 0 0 1-1.443-.602 1.97 1.97 0 0 1-.602-1.444q0-.84.602-1.443a1.97 1.97 0 0 1 1.443-.602q.84 0 1.443.602.602.603.602 1.443 0 .557-.284 1.023a2.1 2.1 0 0 1-.738.75 1.95 1.95 0 0 1-1.023.273m33.752.136q-2 0-3.602-.795-1.603-.796-2.569-2.182t-1.056-3.159h2.727q.159 1.58 1.432 2.613 1.283 1.023 3.068 1.023 1.431 0 2.545-.67a4.73 4.73 0 0 0 1.762-1.841q.647-1.182.647-2.671 0-1.522-.67-2.716a4.9 4.9 0 0 0-1.818-1.897q-1.16-.693-2.648-.705a7.3 7.3 0 0 0-2.193.33q-1.126.33-1.852.852l-2.637-.318 1.41-11.455h12.09v2.5h-9.727l-.818 6.864h.136q.716-.568 1.795-.943 1.08-.375 2.25-.375 2.137 0 3.807 1.022 1.682 1.012 2.637 2.773.966 1.761.966 4.023 0 2.228-1 3.977a7.3 7.3 0 0 1-2.728 2.75q-1.739 1-3.954 1m19.469 0q-2 0-3.603-.795-1.602-.796-2.568-2.182t-1.057-3.159h2.728q.159 1.58 1.431 2.613 1.285 1.023 3.069 1.023 1.431 0 2.545-.67a4.74 4.74 0 0 0 1.761-1.841q.648-1.182.648-2.671 0-1.522-.67-2.716a4.9 4.9 0 0 0-1.819-1.897q-1.159-.693-2.647-.705a7.3 7.3 0 0 0-2.193.33q-1.125.33-1.853.852l-2.636-.318 1.409-11.455h12.09v2.5H83.06l-.819 6.864h.137q.716-.568 1.795-.943 1.08-.375 2.25-.375 2.137 0 3.807 1.022a7.15 7.15 0 0 1 2.636 2.773q.966 1.761.966 4.023 0 2.228-1 3.977a7.3 7.3 0 0 1-2.727 2.75q-1.739 1-3.954 1m19.468 0q-2 0-3.602-.795-1.602-.796-2.568-2.182t-1.057-3.159h2.727q.16 1.58 1.432 2.613 1.284 1.023 3.068 1.023 1.432 0 2.546-.67a4.73 4.73 0 0 0 1.761-1.841q.648-1.182.648-2.671 0-1.522-.671-2.716a4.9 4.9 0 0 0-1.818-1.897q-1.159-.693-2.647-.705a7.3 7.3 0 0 0-2.194.33q-1.125.33-1.852.852l-2.636-.318 1.409-11.455h12.091v2.5h-9.728l-.818 6.864h.137q.715-.568 1.795-.943a6.8 6.8 0 0 1 2.25-.375q2.136 0 3.807 1.022 1.682 1.012 2.636 2.773.966 1.761.966 4.023 0 2.228-1 3.977a7.3 7.3 0 0 1-2.727 2.75q-1.738 1-3.955 1m22.242-13.204v2.5h-10.182v-2.5zm12.855-10.387V134h-2.818v-20.318h-.137l-5.681 3.773v-2.864l5.818-3.864zM147.409 134v-2.045l7.682-8.41a53 53 0 0 0 2.227-2.568q.875-1.102 1.296-2.068a5 5 0 0 0 .431-2.045q0-1.228-.59-2.125a3.84 3.84 0 0 0-1.591-1.387q-1.012-.488-2.273-.488-1.34 0-2.341.556a3.84 3.84 0 0 0-1.534 1.535q-.534.988-.534 2.318H147.5q0-2.046.943-3.591a6.55 6.55 0 0 1 2.568-2.409q1.637-.864 3.671-.864 2.045 0 3.625.864 1.58.863 2.477 2.329.898 1.467.898 3.262a7 7 0 0 1-.466 2.511q-.454 1.216-1.591 2.716-1.125 1.488-3.125 3.636l-5.227 5.591v.182h10.818v2.5zm27.239.318q-2.25 0-4.012-.773-1.749-.773-2.784-2.147-1.023-1.387-1.113-3.216h2.863q.091 1.125.773 1.943.682.807 1.784 1.25t2.443.443q1.5 0 2.659-.523 1.16-.522 1.819-1.454t.659-2.159q0-1.284-.637-2.262-.636-.989-1.863-1.545-1.229-.557-3-.557h-1.864v-2.5h1.864q1.386 0 2.431-.5 1.057-.5 1.648-1.409.602-.909.602-2.136 0-1.182-.522-2.057a3.6 3.6 0 0 0-1.478-1.364q-.942-.488-2.227-.488-1.204 0-2.273.443a4.24 4.24 0 0 0-1.727 1.261q-.67.819-.727 1.977h-2.727q.068-1.829 1.102-3.204 1.034-1.386 2.704-2.159 1.683-.773 3.694-.773 2.159 0 3.704.875 1.545.864 2.375 2.284t.83 3.068q0 1.966-1.034 3.353-1.023 1.386-2.784 1.92v.182q2.204.363 3.443 1.875 1.238 1.5 1.238 3.716 0 1.897-1.034 3.409-1.023 1.5-2.795 2.364t-4.034.863m22.557-13.204v2.5h-10.182v-2.5zm4.127 8.113v-2.318l10.228-16.182h1.681v3.591h-1.136l-7.727 12.227v.182h13.773v2.5zM212.287 134v-23.273h2.682V134zm17.395.318q-2 0-3.602-.795-1.603-.796-2.569-2.182t-1.056-3.159h2.727q.159 1.58 1.432 2.613 1.283 1.023 3.068 1.023 1.431 0 2.545-.67a4.74 4.74 0 0 0 1.762-1.841q.647-1.182.647-2.671 0-1.522-.67-2.716a4.9 4.9 0 0 0-1.818-1.897q-1.16-.693-2.648-.705a7.3 7.3 0 0 0-2.193.33q-1.126.33-1.852.852l-2.637-.318 1.409-11.455h12.091v2.5h-9.727l-.818 6.864h.136q.716-.568 1.796-.943a6.8 6.8 0 0 1 2.25-.375q2.136 0 3.806 1.022a7.15 7.15 0 0 1 2.637 2.773q.966 1.761.966 4.023 0 2.228-1 3.977a7.3 7.3 0 0 1-2.728 2.75q-1.738 1-3.954 1m19.923 0a8.7 8.7 0 0 1-2.864-.545q-1.431-.523-2.613-1.762-1.182-1.25-1.898-3.375-.716-2.136-.716-5.363 0-3.091.58-5.478.58-2.397 1.682-4.034 1.102-1.647 2.659-2.5 1.567-.852 3.534-.852 1.954 0 3.477.784a6.63 6.63 0 0 1 2.5 2.159q.966 1.387 1.25 3.193h-2.773q-.385-1.567-1.5-2.602-1.113-1.034-2.954-1.034-2.705 0-4.262 2.352-1.545 2.353-1.556 6.603h.181a6.83 6.83 0 0 1 3.466-2.716 6.8 6.8 0 0 1 2.262-.375q2 0 3.659 1 1.659.989 2.659 2.738 1 1.739 1 3.989 0 2.159-.966 3.955a7.35 7.35 0 0 1-2.716 2.84q-1.739 1.046-4.091 1.023m0-2.5q1.433 0 2.568-.716a5.1 5.1 0 0 0 1.807-1.92q.67-1.205.671-2.682 0-1.443-.648-2.625a4.95 4.95 0 0 0-1.762-1.898q-1.113-.704-2.545-.704-1.08 0-2.011.432a5.2 5.2 0 0 0-1.637 1.159 5.6 5.6 0 0 0-1.091 1.693 5.1 5.1 0 0 0-.397 1.988q0 1.387.647 2.591a5.34 5.34 0 0 0 1.796 1.944q1.147.738 2.602.738M262.574 134l10.409-20.591v-.182h-12v-2.5h14.909v2.637L265.528 134zm-251.68 78v-2.045l7.68-8.41a53 53 0 0 0 2.228-2.568q.875-1.102 1.296-2.068a5 5 0 0 0 .431-2.045q0-1.228-.59-2.125a3.83 3.83 0 0 0-1.591-1.387q-1.012-.488-2.273-.488-1.34 0-2.341.556-.989.546-1.534 1.535-.534.988-.534 2.318h-2.682q0-2.046.943-3.591a6.55 6.55 0 0 1 2.568-2.409q1.637-.864 3.67-.864 2.046 0 3.626.864 1.58.863 2.477 2.329.898 1.467.898 3.262a7 7 0 0 1-.466 2.511q-.454 1.216-1.591 2.716-1.125 1.488-3.125 3.636l-5.227 5.591v.182h10.818v2.5zm22.036.182a1.97 1.97 0 0 1-1.443-.602 1.97 1.97 0 0 1-.602-1.444q0-.84.602-1.443a1.97 1.97 0 0 1 1.443-.602q.84 0 1.443.602.602.603.602 1.443 0 .557-.284 1.023a2.1 2.1 0 0 1-.738.75 1.95 1.95 0 0 1-1.023.273m33.752.136q-2 0-3.602-.795-1.603-.796-2.569-2.182t-1.056-3.159h2.727q.159 1.58 1.432 2.613 1.283 1.023 3.068 1.023 1.431 0 2.545-.67a4.73 4.73 0 0 0 1.762-1.841q.647-1.182.647-2.671 0-1.522-.67-2.716a4.9 4.9 0 0 0-1.818-1.897q-1.16-.693-2.648-.705a7.3 7.3 0 0 0-2.193.33q-1.126.33-1.852.852l-2.637-.318 1.41-11.455h12.09v2.5h-9.727l-.818 6.864h.136q.716-.568 1.795-.943 1.08-.375 2.25-.375 2.137 0 3.807 1.022 1.682 1.012 2.637 2.773.966 1.761.966 4.023 0 2.228-1 3.977a7.3 7.3 0 0 1-2.728 2.75q-1.739 1-3.954 1m19.469 0q-2 0-3.603-.795-1.602-.796-2.568-2.182t-1.057-3.159h2.728q.159 1.58 1.431 2.613 1.285 1.023 3.069 1.023 1.431 0 2.545-.67a4.74 4.74 0 0 0 1.761-1.841q.648-1.182.648-2.671 0-1.522-.67-2.716a4.9 4.9 0 0 0-1.819-1.897q-1.159-.693-2.647-.705a7.3 7.3 0 0 0-2.193.33q-1.125.33-1.853.852l-2.636-.318 1.409-11.455h12.09v2.5H83.06l-.819 6.864h.137q.716-.568 1.795-.943 1.08-.375 2.25-.375 2.137 0 3.807 1.022a7.15 7.15 0 0 1 2.636 2.773q.966 1.761.966 4.023 0 2.228-1 3.977a7.3 7.3 0 0 1-2.727 2.75q-1.739 1-3.954 1m19.468 0q-2 0-3.602-.795-1.602-.796-2.568-2.182t-1.057-3.159h2.727q.16 1.58 1.432 2.613 1.284 1.023 3.068 1.023 1.432 0 2.546-.67a4.73 4.73 0 0 0 1.761-1.841q.648-1.182.648-2.671 0-1.522-.671-2.716a4.9 4.9 0 0 0-1.818-1.897q-1.159-.693-2.647-.705a7.3 7.3 0 0 0-2.194.33q-1.125.33-1.852.852l-2.636-.318 1.409-11.455h12.091v2.5h-9.728l-.818 6.864h.137q.715-.568 1.795-.943a6.8 6.8 0 0 1 2.25-.375q2.136 0 3.807 1.022 1.682 1.012 2.636 2.773.966 1.761.966 4.023 0 2.228-1 3.977a7.3 7.3 0 0 1-2.727 2.75q-1.738 1-3.955 1m22.242-13.204v2.5h-10.182v-2.5zm12.082-10.705a8.3 8.3 0 0 1 2.864.546q1.432.534 2.613 1.772 1.182 1.227 1.898 3.353.716 2.125.716 5.329 0 3.102-.591 5.511-.58 2.398-1.682 4.046-1.09 1.647-2.659 2.5-1.557.852-3.522.852-1.955 0-3.489-.773a6.84 6.84 0 0 1-2.5-2.17q-.966-1.397-1.239-3.239h2.773q.375 1.603 1.489 2.648 1.124 1.034 2.966 1.034 2.693 0 4.25-2.352 1.568-2.352 1.568-6.648h-.182a7.1 7.1 0 0 1-1.511 1.648 6.7 6.7 0 0 1-1.944 1.068 6.8 6.8 0 0 1-2.272.375q-2 0-3.671-.989-1.659-1-2.659-2.738-.989-1.75-.989-4 0-2.136.955-3.909a7.37 7.37 0 0 1 2.705-2.841q1.749-1.058 4.113-1.023m0 2.5q-1.431 0-2.579.716a5.15 5.15 0 0 0-1.807 1.909q-.66 1.194-.659 2.648 0 1.454.636 2.648a5.1 5.1 0 0 0 1.761 1.886q1.126.693 2.557.693 1.08 0 2.012-.42a5.2 5.2 0 0 0 1.625-1.171q.704-.75 1.102-1.693a5.1 5.1 0 0 0 .398-1.989q0-1.363-.659-2.556a5.2 5.2 0 0 0-1.796-1.932q-1.136-.74-2.591-.739m20.014 21.409q-2.34 0-4.136-.829-1.783-.842-2.784-2.307-1-1.477-.989-3.364-.01-1.477.58-2.727a5.94 5.94 0 0 1 1.613-2.102 4.95 4.95 0 0 1 2.307-1.08v-.136q-1.67-.432-2.659-1.875-.989-1.455-.977-3.307-.012-1.773.898-3.171.909-1.397 2.5-2.204 1.602-.807 3.647-.807 2.023 0 3.614.807t2.5 2.204q.92 1.398.932 3.171-.012 1.852-1.012 3.307-.988 1.443-2.625 1.875v.136a4.8 4.8 0 0 1 2.273 1.08 6.1 6.1 0 0 1 1.614 2.102 6.3 6.3 0 0 1 .613 2.727q-.01 1.887-1.022 3.364-1 1.465-2.784 2.307-1.773.83-4.103.829m0-2.5q1.58 0 2.728-.511 1.148-.512 1.772-1.443.625-.933.637-2.182-.012-1.318-.682-2.33-.67-1.01-1.83-1.591-1.147-.579-2.625-.579-1.488 0-2.659.579-1.158.58-1.829 1.591-.66 1.012-.648 2.33-.012 1.25.602 2.182.626.931 1.784 1.443 1.16.511 2.75.511m0-11.045q1.25 0 2.216-.5a3.8 3.8 0 0 0 1.534-1.398q.558-.897.569-2.102-.012-1.182-.557-2.057a3.6 3.6 0 0 0-1.512-1.364q-.966-.488-2.25-.488-1.306 0-2.284.488a3.53 3.53 0 0 0-1.511 1.364q-.534.875-.523 2.057-.01 1.205.534 2.102a3.8 3.8 0 0 0 1.534 1.398q.978.5 2.25.5M172.949 212l10.409-20.591v-.182h-12v-2.5h14.909v2.637L175.903 212zm27.599-12.886v2.5h-10.182v-2.5zm12.401 13.204a8.7 8.7 0 0 1-2.864-.545q-1.432-.523-2.613-1.762-1.182-1.25-1.898-3.375-.716-2.136-.716-5.363 0-3.091.58-5.478.579-2.397 1.681-4.034 1.103-1.647 2.659-2.5 1.569-.852 3.534-.852 1.956 0 3.478.784a6.63 6.63 0 0 1 2.5 2.159q.966 1.387 1.25 3.193h-2.773q-.387-1.567-1.5-2.602t-2.955-1.034q-2.704 0-4.261 2.352-1.545 2.353-1.557 6.603h.182a6.8 6.8 0 0 1 3.466-2.716 6.8 6.8 0 0 1 2.261-.375q2 0 3.659 1 1.66.989 2.66 2.738 1 1.739 1 3.989 0 2.159-.966 3.955a7.36 7.36 0 0 1-2.716 2.84q-1.739 1.046-4.091 1.023m0-2.5q1.431 0 2.568-.716a5.1 5.1 0 0 0 1.807-1.92q.67-1.205.67-2.682 0-1.443-.647-2.625a4.95 4.95 0 0 0-1.762-1.898q-1.114-.704-2.545-.704-1.08 0-2.012.432a5.2 5.2 0 0 0-1.636 1.159 5.6 5.6 0 0 0-1.091 1.693 5.1 5.1 0 0 0-.398 1.988q0 1.387.648 2.591a5.34 5.34 0 0 0 1.796 1.944q1.147.738 2.602.738m19.514 2.5q-2 0-3.602-.795-1.602-.796-2.568-2.182-.967-1.386-1.057-3.159h2.727q.159 1.58 1.432 2.613 1.284 1.023 3.068 1.023 1.432 0 2.546-.67a4.73 4.73 0 0 0 1.761-1.841q.648-1.182.648-2.671 0-1.522-.671-2.716a4.9 4.9 0 0 0-1.818-1.897q-1.159-.693-2.648-.705a7.3 7.3 0 0 0-2.193.33q-1.125.33-1.852.852l-2.637-.318 1.41-11.455h12.09v2.5h-9.727l-.818 6.864h.136q.716-.568 1.796-.943a6.8 6.8 0 0 1 2.25-.375q2.136 0 3.807 1.022 1.682 1.012 2.636 2.773.966 1.761.966 4.023 0 2.228-1 3.977a7.3 7.3 0 0 1-2.727 2.75q-1.739 1-3.955 1m11.651-5.091v-2.318l10.227-16.182h1.682v3.591h-1.137l-7.727 12.227v.182h13.773v2.5zM255.068 212v-23.273h2.682V212zm17.986.318q-2.25 0-4.011-.773-1.75-.773-2.784-2.147-1.024-1.387-1.114-3.216h2.864q.09 1.125.772 1.943.682.807 1.784 1.25 1.103.443 2.444.443 1.5 0 2.659-.523 1.158-.522 1.818-1.454.659-.932.659-2.159 0-1.284-.636-2.262-.637-.988-1.864-1.545t-3-.557h-1.864v-2.5h1.864q1.386 0 2.432-.5 1.056-.5 1.647-1.409.603-.909.603-2.136 0-1.182-.523-2.057a3.6 3.6 0 0 0-1.477-1.364q-.944-.488-2.228-.488-1.204 0-2.272.443a4.23 4.23 0 0 0-1.728 1.261q-.67.819-.727 1.977h-2.727q.068-1.829 1.102-3.204 1.035-1.386 2.705-2.159 1.681-.773 3.693-.773 2.159 0 3.704.875 1.546.864 2.375 2.284.83 1.42.83 3.068 0 1.966-1.034 3.353-1.023 1.386-2.784 1.92v.182q2.204.363 3.443 1.875 1.239 1.5 1.239 3.716 0 1.897-1.034 3.409-1.023 1.5-2.796 2.364t-4.034.863m-254.797 78q-2.25 0-4.012-.773-1.749-.773-2.784-2.147-1.022-1.387-1.113-3.216h2.863q.091 1.125.773 1.943.683.807 1.784 1.25 1.103.443 2.443.443 1.5 0 2.66-.523 1.158-.522 1.818-1.454.659-.932.659-2.159 0-1.284-.637-2.262-.636-.988-1.863-1.545-1.228-.557-3-.557h-1.864v-2.5h1.864q1.386 0 2.432-.5 1.056-.5 1.647-1.409.602-.909.602-2.136 0-1.182-.522-2.057a3.6 3.6 0 0 0-1.478-1.364q-.942-.488-2.227-.488a5.9 5.9 0 0 0-2.273.443 4.23 4.23 0 0 0-1.727 1.261q-.671.819-.727 1.977h-2.727q.067-1.829 1.102-3.204 1.034-1.386 2.705-2.159 1.68-.773 3.693-.773 2.159 0 3.704.875 1.545.864 2.375 2.284t.83 3.068q0 1.966-1.034 3.353-1.023 1.386-2.784 1.92v.182q2.204.363 3.443 1.875 1.238 1.5 1.238 3.716 0 1.897-1.034 3.409-1.022 1.5-2.795 2.364t-4.034.863m14.673-.136a1.97 1.97 0 0 1-1.443-.602 1.97 1.97 0 0 1-.602-1.444q0-.84.602-1.443a1.97 1.97 0 0 1 1.443-.602q.84 0 1.443.602.602.603.602 1.443 0 .557-.284 1.023a2.1 2.1 0 0 1-.738.75 1.95 1.95 0 0 1-1.023.273m33.752.136q-2 0-3.602-.795-1.603-.796-2.569-2.182t-1.056-3.159h2.727q.159 1.58 1.432 2.613 1.283 1.023 3.068 1.023 1.431 0 2.545-.67a4.73 4.73 0 0 0 1.762-1.841q.647-1.182.647-2.671 0-1.522-.67-2.716a4.9 4.9 0 0 0-1.818-1.897q-1.16-.693-2.648-.705a7.3 7.3 0 0 0-2.193.33q-1.126.33-1.852.852l-2.637-.318 1.41-11.455h12.09v2.5h-9.727l-.818 6.864h.136q.716-.568 1.795-.943 1.08-.375 2.25-.375 2.137 0 3.807 1.022 1.682 1.012 2.637 2.773.966 1.761.966 4.023 0 2.228-1 3.977a7.3 7.3 0 0 1-2.728 2.75q-1.739 1-3.954 1m19.469 0q-2 0-3.603-.795-1.602-.796-2.568-2.182t-1.057-3.159h2.728q.159 1.58 1.431 2.613 1.285 1.023 3.069 1.023 1.431 0 2.545-.67a4.74 4.74 0 0 0 1.761-1.841q.648-1.182.648-2.671 0-1.522-.67-2.716a4.9 4.9 0 0 0-1.819-1.897q-1.159-.693-2.647-.705a7.3 7.3 0 0 0-2.193.33q-1.125.33-1.853.852l-2.636-.318 1.409-11.455h12.09v2.5H83.06l-.819 6.864h.137q.716-.568 1.795-.943 1.08-.375 2.25-.375 2.137 0 3.807 1.022a7.15 7.15 0 0 1 2.636 2.773q.966 1.761.966 4.023 0 2.228-1 3.977a7.3 7.3 0 0 1-2.727 2.75q-1.739 1-3.954 1m19.468 0q-2 0-3.602-.795-1.602-.796-2.568-2.182t-1.057-3.159h2.727q.16 1.58 1.432 2.613 1.284 1.023 3.068 1.023 1.432 0 2.546-.67a4.73 4.73 0 0 0 1.761-1.841q.648-1.182.648-2.671 0-1.522-.671-2.716a4.9 4.9 0 0 0-1.818-1.897q-1.159-.693-2.647-.705a7.3 7.3 0 0 0-2.194.33q-1.125.33-1.852.852l-2.636-.318 1.409-11.455h12.091v2.5h-9.728l-.818 6.864h.137q.715-.568 1.795-.943a6.8 6.8 0 0 1 2.25-.375q2.136 0 3.807 1.022 1.682 1.012 2.636 2.773.966 1.761.966 4.023 0 2.228-1 3.977a7.3 7.3 0 0 1-2.727 2.75q-1.738 1-3.955 1m22.242-13.204v2.5h-10.182v-2.5zM131.44 290v-2.045l7.682-8.41a52 52 0 0 0 2.227-2.568q.876-1.102 1.296-2.068a5 5 0 0 0 .432-2.045q0-1.228-.591-2.125a3.84 3.84 0 0 0-1.591-1.387q-1.011-.488-2.273-.488-1.34 0-2.341.556a3.84 3.84 0 0 0-1.534 1.535q-.534.988-.534 2.318h-2.682q0-2.046.943-3.591a6.55 6.55 0 0 1 2.569-2.409q1.636-.864 3.67-.864 2.046 0 3.625.864 1.58.863 2.477 2.329.898 1.467.898 3.262a7 7 0 0 1-.466 2.511q-.454 1.216-1.591 2.716-1.125 1.488-3.125 3.636l-5.227 5.591v.182h10.818v2.5zm18.33-4.773v-2.318l10.227-16.182h1.682v3.591h-1.136l-7.728 12.227v.182h13.773v2.5zM160.724 290v-23.273h2.682V290zm17.85.318a8.7 8.7 0 0 1-2.864-.545q-1.432-.523-2.613-1.762-1.182-1.25-1.898-3.375-.716-2.136-.716-5.363 0-3.091.579-5.478.58-2.397 1.682-4.034 1.103-1.647 2.659-2.5 1.569-.852 3.535-.852 1.954 0 3.477.784a6.63 6.63 0 0 1 2.5 2.159q.966 1.387 1.25 3.193h-2.773q-.387-1.567-1.5-2.602t-2.954-1.034q-2.705 0-4.262 2.352-1.545 2.353-1.557 6.603h.182a6.83 6.83 0 0 1 3.466-2.716 6.8 6.8 0 0 1 2.261-.375q2 0 3.66 1 1.659.989 2.659 2.738 1 1.739 1 3.989 0 2.159-.966 3.955a7.36 7.36 0 0 1-2.716 2.84q-1.739 1.046-4.091 1.023m0-2.5q1.431 0 2.568-.716a5.1 5.1 0 0 0 1.807-1.92q.67-1.204.67-2.682 0-1.443-.647-2.625a4.95 4.95 0 0 0-1.762-1.898q-1.114-.704-2.545-.704-1.08 0-2.012.432a5.2 5.2 0 0 0-1.636 1.159 5.6 5.6 0 0 0-1.091 1.693 5.1 5.1 0 0 0-.398 1.988q0 1.387.648 2.591a5.34 5.34 0 0 0 1.796 1.944q1.147.738 2.602.738m22.287-10.704v2.5h-10.182v-2.5zm12.128 13.204q-2.341 0-4.137-.829-1.783-.841-2.784-2.307-1-1.477-.988-3.364a6.2 6.2 0 0 1 .579-2.727 5.9 5.9 0 0 1 1.614-2.102 4.94 4.94 0 0 1 2.307-1.08v-.136q-1.67-.432-2.66-1.875-.988-1.455-.977-3.307-.01-1.773.898-3.171.909-1.397 2.5-2.204 1.602-.807 3.648-.807 2.023 0 3.613.807 1.591.807 2.5 2.204.921 1.398.932 3.171-.011 1.852-1.011 3.307-.989 1.443-2.625 1.875v.136a4.8 4.8 0 0 1 2.272 1.08 6.1 6.1 0 0 1 1.614 2.102q.602 1.25.614 2.727-.012 1.887-1.023 3.364-1 1.465-2.784 2.307-1.773.83-4.102.829m0-2.5q1.58 0 2.727-.511 1.147-.512 1.773-1.443.624-.933.636-2.182-.012-1.318-.682-2.33-.67-1.01-1.829-1.591-1.149-.579-2.625-.579-1.49 0-2.659.579-1.16.58-1.83 1.591-.659 1.012-.648 2.33-.011 1.25.603 2.182.624.931 1.784 1.443 1.158.511 2.75.511m0-11.045q1.25 0 2.216-.5a3.8 3.8 0 0 0 1.534-1.398q.556-.897.568-2.102-.012-1.182-.557-2.057a3.6 3.6 0 0 0-1.511-1.364q-.966-.488-2.25-.488-1.308 0-2.284.488a3.5 3.5 0 0 0-1.512 1.364q-.534.875-.523 2.057-.01 1.205.535 2.102a3.8 3.8 0 0 0 1.534 1.398q.977.5 2.25.5m20.446-10.046V290h-2.819v-20.318h-.136l-5.682 3.773v-2.864l5.818-3.864zm14.284 23.591q-2.568 0-4.375-1.398-1.807-1.409-2.762-4.079-.954-2.682-.954-6.477 0-3.773.954-6.444.966-2.681 2.773-4.09 1.818-1.42 4.364-1.421 2.545 0 4.352 1.421 1.818 1.409 2.773 4.09.966 2.67.966 6.444 0 3.795-.955 6.477-.955 2.67-2.761 4.079-1.807 1.398-4.375 1.398m0-2.5q2.546 0 3.954-2.454 1.41-2.455 1.409-7 0-3.023-.647-5.148-.637-2.125-1.841-3.239-1.194-1.113-2.875-1.113-2.523 0-3.943 2.488-1.42 2.478-1.421 7.012 0 3.022.636 5.136.637 2.113 1.83 3.216 1.204 1.102 2.898 1.102m20.591-21.091V290h-2.819v-20.318h-.136l-5.682 3.773v-2.864l5.818-3.864z"/><path fill="#727272" d="M464.489 110.727V134h-4.25l-10.125-14.648h-.171V134h-4.92v-23.273h4.318l10.045 14.637h.205v-14.637zm11.86 23.614q-2.647 0-4.579-1.125a7.7 7.7 0 0 1-2.966-3.159q-1.045-2.034-1.045-4.716 0-2.705 1.045-4.727 1.046-2.034 2.966-3.159 1.932-1.137 4.579-1.137 2.648 0 4.569 1.137 1.931 1.125 2.977 3.159 1.045 2.022 1.045 4.727 0 2.682-1.045 4.716a7.7 7.7 0 0 1-2.977 3.159q-1.92 1.125-4.569 1.125m.023-3.75q1.205 0 2.012-.682.806-.693 1.215-1.886.421-1.194.421-2.716t-.421-2.716q-.409-1.194-1.215-1.886-.807-.694-2.012-.694-1.215 0-2.045.694-.819.692-1.239 1.886-.41 1.193-.409 2.716 0 1.522.409 2.716.42 1.193 1.239 1.886.83.682 2.045.682m21-14.046v3.637h-10.511v-3.637zm-8.125-4.181h4.841v16.272q0 .67.205 1.046.204.363.568.511.375.148.863.148.342 0 .682-.057l.523-.102.761 3.602q-.363.114-1.022.261-.66.16-1.603.194-1.75.068-3.068-.466-1.306-.534-2.034-1.659t-.716-2.841zm26.571 21.977q-2.647 0-4.579-1.125a7.7 7.7 0 0 1-2.966-3.159q-1.046-2.034-1.046-4.716 0-2.705 1.046-4.727 1.045-2.034 2.966-3.159 1.932-1.137 4.579-1.137 2.648 0 4.568 1.137 1.932 1.125 2.978 3.159 1.045 2.022 1.045 4.727 0 2.682-1.045 4.716a7.7 7.7 0 0 1-2.978 3.159q-1.92 1.125-4.568 1.125m.023-3.75q1.204 0 2.011-.682.807-.693 1.216-1.886.42-1.194.421-2.716 0-1.523-.421-2.716-.41-1.194-1.216-1.886-.807-.694-2.011-.694-1.217 0-2.046.694-.818.692-1.238 1.886-.41 1.193-.409 2.716 0 1.522.409 2.716.42 1.193 1.238 1.886.83.682 2.046.682m22.909-4.023v-10.023h4.841V134h-4.648v-3.17h-.182a5.15 5.15 0 0 1-1.966 2.465q-1.363.933-3.329.932-1.75 0-3.08-.795-1.329-.795-2.079-2.262-.74-1.465-.75-3.511v-11.114h4.841v10.25q.011 1.546.829 2.444.819.897 2.193.897.875 0 1.637-.397a3.13 3.13 0 0 0 1.227-1.205q.478-.796.466-1.966m8.713 7.432v-17.455h4.693v3.046h.182q.477-1.625 1.602-2.455 1.125-.84 2.591-.841.364 0 .784.046.421.045.739.125v4.295a6.4 6.4 0 0 0-.943-.181 8.5 8.5 0 0 0-1.102-.08q-1.069 0-1.91.466a3.43 3.43 0 0 0-1.318 1.273q-.477.818-.477 1.886V134zm20.5 6.545v-24h4.773v2.932h.216q.318-.704.92-1.432.614-.738 1.591-1.227.988-.5 2.455-.5 1.909 0 3.522 1 1.614.988 2.58 2.989.966 1.988.966 4.988 0 2.92-.943 4.932-.932 2-2.546 3.034-1.602 1.023-3.591 1.023-1.409 0-2.397-.466-.978-.466-1.603-1.17a6 6 0 0 1-.954-1.443h-.148v9.34zm4.739-15.272q0 1.557.432 2.716.43 1.159 1.25 1.806.818.637 1.988.637 1.182 0 2-.648.818-.659 1.239-1.818.432-1.17.432-2.693 0-1.512-.421-2.659-.42-1.149-1.238-1.796-.819-.648-2.012-.648-1.181 0-2 .625-.807.626-1.238 1.773-.432 1.148-.432 2.705m20.352-1.364V134h-4.841v-23.273h4.705v8.898h.204q.59-1.545 1.909-2.42 1.318-.887 3.307-.887 1.818 0 3.171.796 1.363.783 2.113 2.261.762 1.466.75 3.511V134h-4.841v-10.25q.012-1.614-.818-2.511-.818-.898-2.295-.898-.989 0-1.75.42-.75.421-1.182 1.228-.42.795-.432 1.92m23.014 10.432q-2.647 0-4.579-1.125a7.7 7.7 0 0 1-2.966-3.159q-1.046-2.034-1.046-4.716 0-2.705 1.046-4.727 1.045-2.034 2.966-3.159 1.932-1.137 4.579-1.137 2.648 0 4.568 1.137 1.932 1.125 2.978 3.159 1.045 2.022 1.045 4.727 0 2.682-1.045 4.716a7.7 7.7 0 0 1-2.978 3.159q-1.92 1.125-4.568 1.125m.023-3.75q1.204 0 2.011-.682.807-.693 1.216-1.886.42-1.194.421-2.716 0-1.523-.421-2.716-.41-1.194-1.216-1.886-.807-.694-2.011-.694-1.217 0-2.046.694-.818.692-1.238 1.886-.41 1.193-.409 2.716 0 1.522.409 2.716.42 1.193 1.238 1.886.83.682 2.046.682m16.557-6.682V134h-4.841v-17.455h4.613v3.08h.205a4.87 4.87 0 0 1 1.943-2.409q1.364-.898 3.307-.898 1.818 0 3.17.796 1.353.796 2.103 2.272.75 1.467.75 3.5V134h-4.841v-10.25q.011-1.603-.818-2.5-.83-.909-2.284-.909-.978 0-1.728.42-.739.421-1.159 1.228-.41.795-.42 1.92m23.02 10.432q-2.694 0-4.637-1.091-1.932-1.102-2.977-3.114-1.045-2.022-1.045-4.784 0-2.693 1.045-4.727 1.046-2.034 2.943-3.17 1.91-1.137 4.477-1.137 1.728 0 3.216.557 1.5.546 2.614 1.648 1.125 1.102 1.75 2.772.625 1.66.625 3.887v1.329H648.94v-3h10.182q0-1.045-.454-1.852a3.26 3.26 0 0 0-1.262-1.261q-.795-.466-1.852-.466-1.102 0-1.955.511-.84.5-1.318 1.352a3.8 3.8 0 0 0-.488 1.875v2.853q0 1.295.477 2.238a3.5 3.5 0 0 0 1.375 1.455q.887.511 2.102.511.807 0 1.477-.227.67-.228 1.148-.682t.727-1.113l4.478.295a6.1 6.1 0 0 1-1.398 2.818q-1.046 1.194-2.705 1.864-1.647.659-3.806.659m23.417-10.432V134h-4.841v-17.455h4.614v3.08h.204a4.88 4.88 0 0 1 1.944-2.409q1.364-.898 3.306-.898 1.819 0 3.171.796t2.102 2.272q.75 1.467.75 3.5V134h-4.841v-10.25q.012-1.603-.818-2.5-.83-.909-2.284-.909-.977 0-1.727.42a2.93 2.93 0 0 0-1.159 1.228q-.41.795-.421 1.92m26.259 2.659v-10.023h4.841V134h-4.648v-3.17h-.182a5.15 5.15 0 0 1-1.966 2.465q-1.364.933-3.329.932-1.75 0-3.08-.795-1.329-.795-2.079-2.262-.74-1.465-.75-3.511v-11.114h4.84v10.25q.012 1.546.83 2.444t2.193.897q.875 0 1.637-.397a3.13 3.13 0 0 0 1.227-1.205q.477-.796.466-1.966m8.713 7.432v-17.455h4.613v3.08h.205q.546-1.535 1.818-2.42 1.273-.887 3.046-.887 1.796 0 3.056.898 1.262.886 1.682 2.409h.182q.534-1.5 1.932-2.398 1.409-.909 3.329-.909 2.443 0 3.966 1.557 1.534 1.545 1.534 4.386V134h-4.829v-10.784q0-1.455-.773-2.182t-1.932-.727q-1.317 0-2.056.841-.74.83-.739 2.193V134h-4.693v-10.886q0-1.284-.739-2.046-.728-.76-1.92-.761-.807 0-1.455.409-.636.397-1.011 1.125-.375.716-.375 1.682V134zm29.278 0v-23.273h4.841v8.75h.148q.318-.704.92-1.432.614-.738 1.591-1.227.989-.5 2.455-.5 1.91 0 3.522 1 1.614.988 2.58 2.989.966 1.988.966 4.988 0 2.92-.943 4.932-.932 2-2.546 3.034-1.602 1.023-3.591 1.023-1.409 0-2.397-.466-.978-.466-1.603-1.17a6 6 0 0 1-.954-1.443h-.216V134zm4.739-8.727q0 1.557.432 2.716t1.25 1.806q.818.637 1.988.637 1.182 0 2-.648.819-.659 1.239-1.818.432-1.17.432-2.693 0-1.512-.421-2.659-.42-1.149-1.238-1.796-.819-.648-2.012-.648-1.182 0-2 .625-.807.626-1.238 1.773-.432 1.148-.432 2.705m23.469 9.068q-2.694 0-4.637-1.091-1.932-1.102-2.977-3.114-1.045-2.022-1.045-4.784 0-2.693 1.045-4.727t2.943-3.17q1.91-1.137 4.477-1.137 1.728 0 3.216.557 1.5.546 2.614 1.648 1.125 1.102 1.75 2.772.625 1.66.625 3.887v1.329h-14.739v-3h10.182q0-1.045-.454-1.852a3.26 3.26 0 0 0-1.262-1.261q-.795-.466-1.852-.466-1.102 0-1.955.511-.84.5-1.318 1.352a3.8 3.8 0 0 0-.488 1.875v2.853q0 1.295.477 2.238a3.5 3.5 0 0 0 1.375 1.455q.887.511 2.102.511.807 0 1.477-.227.67-.228 1.148-.682t.727-1.113l4.478.295a6.1 6.1 0 0 1-1.398 2.818q-1.046 1.194-2.705 1.864-1.647.659-3.806.659m11.17-.341v-17.455h4.693v3.046h.182q.477-1.625 1.602-2.455 1.125-.84 2.591-.841.364 0 .784.046.421.045.739.125v4.295a6.4 6.4 0 0 0-.943-.181 8.5 8.5 0 0 0-1.102-.08q-1.069 0-1.91.466a3.43 3.43 0 0 0-1.318 1.273q-.477.818-.477 1.886V134zm16.355-3.182-.125 1.25q-.148 1.5-.568 2.989a32 32 0 0 1-.864 2.716q-.443 1.215-.716 1.909h-3.136q.17-.67.466-1.875.296-1.194.557-2.682t.329-3.034l.057-1.273zm18.625 3.523q-2.682 0-4.613-1.136a7.7 7.7 0 0 1-2.955-3.182q-1.023-2.034-1.023-4.682 0-2.682 1.034-4.705 1.046-2.034 2.966-3.17 1.921-1.148 4.568-1.148 2.285 0 4 .83 1.716.83 2.716 2.329t1.103 3.523h-4.569q-.192-1.307-1.022-2.102-.819-.807-2.148-.807-1.125 0-1.966.614-.83.602-1.295 1.761-.466 1.159-.466 2.807 0 1.67.454 2.841.466 1.17 1.307 1.784.841.613 1.966.613.83 0 1.489-.341a2.87 2.87 0 0 0 1.102-.988q.443-.66.579-1.58h4.569q-.114 2-1.091 3.523-.966 1.511-2.671 2.364-1.704.852-4.034.852m15.736-10.432V134h-4.841v-23.273h4.705v8.898h.204q.59-1.545 1.909-2.42 1.318-.887 3.307-.887 1.818 0 3.171.796 1.363.783 2.113 2.261.762 1.466.75 3.511V134h-4.841v-10.25q.012-1.614-.818-2.511-.818-.898-2.295-.898-.989 0-1.75.42-.75.421-1.182 1.228-.42.795-.432 1.92m23.082 10.432q-2.693 0-4.636-1.091-1.932-1.102-2.977-3.114-1.046-2.022-1.046-4.784 0-2.693 1.046-4.727 1.045-2.034 2.943-3.17 1.91-1.137 4.477-1.137 1.728 0 3.216.557 1.5.546 2.614 1.648 1.125 1.102 1.75 2.772.624 1.66.625 3.887v1.329h-14.739v-3h10.182q0-1.045-.455-1.852a3.25 3.25 0 0 0-1.261-1.261q-.796-.466-1.852-.466-1.103 0-1.955.511-.84.5-1.318 1.352a3.8 3.8 0 0 0-.489 1.875v2.853q0 1.295.478 2.238a3.5 3.5 0 0 0 1.375 1.455q.886.511 2.102.511.807 0 1.477-.227.67-.228 1.148-.682t.727-1.113l4.477.295a6.1 6.1 0 0 1-1.397 2.818q-1.046 1.194-2.705 1.864-1.647.659-3.807.659m19.057 0q-2.682 0-4.613-1.136a7.7 7.7 0 0 1-2.955-3.182q-1.023-2.034-1.023-4.682 0-2.682 1.034-4.705 1.046-2.034 2.966-3.17 1.921-1.148 4.568-1.148 2.285 0 4 .83 1.716.83 2.716 2.329t1.103 3.523h-4.569q-.192-1.307-1.022-2.102-.819-.807-2.148-.807-1.125 0-1.966.614-.83.602-1.295 1.761-.466 1.159-.466 2.807 0 1.67.454 2.841.466 1.17 1.307 1.784.841.613 1.966.613.83 0 1.489-.341a2.87 2.87 0 0 0 1.102-.988q.443-.66.579-1.58h4.569q-.114 2-1.091 3.523-.966 1.511-2.671 2.364-1.704.852-4.034.852m15.281-5.364.012-5.807h.704l5.591-6.625h5.557l-7.511 8.773h-1.148zM886.463 134v-23.273h4.841V134zm10.909 0-5.136-7.602 3.227-3.421 7.58 11.023zm19.963-10.091V134h-4.841v-17.455h4.614v3.08h.204a4.88 4.88 0 0 1 1.944-2.409q1.364-.898 3.306-.898 1.819 0 3.171.796t2.102 2.272q.75 1.467.75 3.5V134h-4.841v-10.25q.012-1.603-.818-2.5-.83-.909-2.284-.909-.977 0-1.727.42a2.93 2.93 0 0 0-1.159 1.228q-.41.795-.421 1.92m23.02 10.432q-2.693 0-4.636-1.091a7.47 7.47 0 0 1-2.978-3.114q-1.044-2.022-1.045-4.784 0-2.693 1.045-4.727 1.046-2.034 2.944-3.17 1.909-1.137 4.477-1.137 1.726 0 3.216.557 1.5.546 2.613 1.648 1.125 1.102 1.75 2.772.625 1.66.625 3.887v1.329h-14.738v-3h10.182q0-1.045-.455-1.852a3.25 3.25 0 0 0-1.261-1.261q-.796-.466-1.853-.466-1.101 0-1.954.511-.841.5-1.318 1.352a3.8 3.8 0 0 0-.489 1.875v2.853q0 1.295.477 2.238a3.5 3.5 0 0 0 1.375 1.455q.887.511 2.103.511.807 0 1.477-.227a3.1 3.1 0 0 0 1.148-.682 3 3 0 0 0 .727-1.113l4.477.295a6.1 6.1 0 0 1-1.398 2.818q-1.044 1.194-2.704 1.864-1.648.659-3.807.659m14.904-17.796 3.204 6.103 3.284-6.103h4.966l-5.057 8.728 5.193 8.727h-4.943l-3.443-6.034-3.386 6.034h-5l5.182-8.727-5-8.728zm23.613 0v3.637h-10.511v-3.637zm-8.125-4.181h4.841v16.272q0 .67.205 1.046.204.363.568.511.375.148.863.148.342 0 .682-.057l.523-.102.761 3.602q-.363.114-1.022.261-.66.16-1.603.194-1.75.068-3.068-.466-1.307-.534-2.034-1.659t-.716-2.841zm26.571 21.977q-2.647 0-4.579-1.125a7.7 7.7 0 0 1-2.966-3.159q-1.046-2.034-1.046-4.716 0-2.705 1.046-4.727 1.045-2.034 2.966-3.159 1.932-1.137 4.579-1.137c1.765 0 3.292.379 4.572 1.137a7.58 7.58 0 0 1 2.97 3.159q1.05 2.022 1.05 4.727 0 2.682-1.05 4.716a7.67 7.67 0 0 1-2.97 3.159c-1.28.75-2.807 1.125-4.572 1.125m.023-3.75q1.204 0 2.011-.682c.538-.462.948-1.091 1.218-1.886q.42-1.194.42-2.716t-.42-2.716c-.27-.796-.68-1.424-1.218-1.886q-.807-.694-2.011-.694-1.216 0-2.046.694-.818.692-1.238 1.886-.41 1.193-.409 2.716 0 1.522.409 2.716.42 1.193 1.238 1.886.83.682 2.046.682m16.559-6.682V134h-4.84v-17.455h4.61v3.08h.21a4.83 4.83 0 0 1 1.94-2.409q1.365-.898 3.3-.898c1.22 0 2.27.265 3.18.796q1.35.796 2.1 2.272.75 1.467.75 3.5V134h-4.84v-10.25c0-1.068-.27-1.902-.82-2.5-.55-.606-1.32-.909-2.29-.909-.65 0-1.22.14-1.72.42-.5.281-.88.69-1.16 1.228q-.405.795-.42 1.92m23.02 10.432c-1.8 0-3.34-.364-4.64-1.091-1.29-.735-2.28-1.773-2.98-3.114-.69-1.348-1.04-2.943-1.04-4.784 0-1.795.35-3.371 1.04-4.727.7-1.356 1.68-2.413 2.95-3.17q1.905-1.137 4.47-1.137c1.16 0 2.23.186 3.22.557q1.5.546 2.61 1.648c.75.735 1.34 1.659 1.75 2.772q.63 1.66.63 3.887v1.329h-14.74v-3h10.18q0-1.045-.45-1.852a3.35 3.35 0 0 0-1.26-1.261q-.795-.466-1.86-.466-1.095 0-1.95.511-.84.5-1.32 1.352a3.8 3.8 0 0 0-.49 1.875v2.853q0 1.295.48 2.238c.33.629.78 1.114 1.37 1.455.6.341 1.3.511 2.11.511q.81 0 1.47-.227c.45-.152.83-.379 1.15-.682s.56-.674.73-1.113l4.48.295a6.2 6.2 0 0 1-1.4 2.818c-.7.796-1.6 1.417-2.71 1.864-1.09.439-2.36.659-3.8.659M464.489 188.727V212h-4.25l-10.125-14.648h-.171V212h-4.92v-23.273h4.318l10.045 14.637h.205v-14.637zm11.86 23.614q-2.647 0-4.579-1.125a7.7 7.7 0 0 1-2.966-3.159q-1.045-2.034-1.045-4.716 0-2.705 1.045-4.727 1.046-2.034 2.966-3.159 1.932-1.137 4.579-1.137 2.648 0 4.569 1.137 1.931 1.125 2.977 3.159 1.045 2.022 1.045 4.727 0 2.682-1.045 4.716a7.7 7.7 0 0 1-2.977 3.159q-1.92 1.125-4.569 1.125m.023-3.75q1.205 0 2.012-.682.806-.693 1.215-1.886.421-1.194.421-2.716t-.421-2.716q-.409-1.194-1.215-1.886-.807-.694-2.012-.694-1.215 0-2.045.694-.819.692-1.239 1.886-.41 1.193-.409 2.716 0 1.522.409 2.716.42 1.193 1.239 1.886.83.682 2.045.682m21-14.046v3.637h-10.511v-3.637zm-8.125-4.181h4.841v16.272q0 .67.205 1.046.204.363.568.511.375.148.863.148.342 0 .682-.057l.523-.102.761 3.602q-.363.114-1.022.261-.66.16-1.603.194-1.75.068-3.068-.466-1.306-.534-2.034-1.659t-.716-2.841zm26.571 21.977q-2.647 0-4.579-1.125a7.7 7.7 0 0 1-2.966-3.159q-1.046-2.034-1.046-4.716 0-2.705 1.046-4.727 1.045-2.034 2.966-3.159 1.932-1.137 4.579-1.137 2.648 0 4.568 1.137 1.932 1.125 2.978 3.159 1.045 2.022 1.045 4.727 0 2.682-1.045 4.716a7.7 7.7 0 0 1-2.978 3.159q-1.92 1.125-4.568 1.125m.023-3.75q1.204 0 2.011-.682.807-.693 1.216-1.886.42-1.194.421-2.716 0-1.523-.421-2.716-.41-1.194-1.216-1.886-.807-.694-2.011-.694-1.217 0-2.046.694-.818.692-1.238 1.886-.41 1.193-.409 2.716 0 1.522.409 2.716.42 1.193 1.238 1.886.83.682 2.046.682m22.909-4.023v-10.023h4.841V212h-4.648v-3.17h-.182a5.15 5.15 0 0 1-1.966 2.465q-1.363.933-3.329.932-1.75 0-3.08-.795-1.329-.795-2.079-2.262-.74-1.465-.75-3.511v-11.114h4.841v10.25q.011 1.546.829 2.444.819.897 2.193.897.875 0 1.637-.397a3.13 3.13 0 0 0 1.227-1.205q.478-.796.466-1.966m8.713 7.432v-17.455h4.693v3.046h.182q.477-1.625 1.602-2.455 1.125-.84 2.591-.841.364 0 .784.046.421.045.739.125v4.295a6.4 6.4 0 0 0-.943-.181 8.5 8.5 0 0 0-1.102-.08q-1.069 0-1.91.466a3.43 3.43 0 0 0-1.318 1.273q-.477.818-.477 1.886V212zm20.5 6.545v-24h4.773v2.932h.216q.318-.704.92-1.432.614-.738 1.591-1.227.988-.5 2.455-.5 1.909 0 3.522 1 1.614.988 2.58 2.989.966 1.988.966 4.988 0 2.92-.943 4.932-.932 2-2.546 3.034-1.602 1.023-3.591 1.023-1.409 0-2.397-.466-.978-.466-1.603-1.17a6 6 0 0 1-.954-1.443h-.148v9.34zm4.739-15.272q0 1.557.432 2.716.43 1.159 1.25 1.806.818.637 1.988.637 1.182 0 2-.648.818-.659 1.239-1.818.432-1.17.432-2.693 0-1.512-.421-2.659-.42-1.148-1.238-1.796t-2.012-.648q-1.181 0-2 .625-.807.626-1.238 1.773-.432 1.148-.432 2.705m20.352-1.364V212h-4.841v-23.273h4.705v8.898h.204q.59-1.545 1.909-2.42 1.318-.887 3.307-.887 1.818 0 3.171.796 1.363.783 2.113 2.261.762 1.466.75 3.511V212h-4.841v-10.25q.012-1.614-.818-2.511-.818-.898-2.295-.898-.989 0-1.75.42-.75.421-1.182 1.228-.42.795-.432 1.92m23.014 10.432q-2.647 0-4.579-1.125a7.7 7.7 0 0 1-2.966-3.159q-1.046-2.034-1.046-4.716 0-2.705 1.046-4.727 1.045-2.034 2.966-3.159 1.932-1.137 4.579-1.137 2.648 0 4.568 1.137 1.932 1.125 2.978 3.159 1.045 2.022 1.045 4.727 0 2.682-1.045 4.716a7.7 7.7 0 0 1-2.978 3.159q-1.92 1.125-4.568 1.125m.023-3.75q1.204 0 2.011-.682.807-.693 1.216-1.886.42-1.194.421-2.716 0-1.523-.421-2.716-.41-1.194-1.216-1.886-.807-.694-2.011-.694-1.217 0-2.046.694-.818.692-1.238 1.886-.41 1.193-.409 2.716 0 1.522.409 2.716.42 1.193 1.238 1.886.83.682 2.046.682m16.557-6.682V212h-4.841v-17.455h4.613v3.08h.205a4.87 4.87 0 0 1 1.943-2.409q1.364-.898 3.307-.898 1.818 0 3.17.796 1.353.796 2.103 2.272.75 1.467.75 3.5V212h-4.841v-10.25q.011-1.602-.818-2.5-.83-.909-2.284-.909-.978 0-1.728.42-.739.421-1.159 1.228-.41.795-.42 1.92m23.02 10.432q-2.694 0-4.637-1.091-1.932-1.102-2.977-3.114-1.045-2.022-1.045-4.784 0-2.693 1.045-4.727 1.046-2.034 2.943-3.17 1.91-1.137 4.477-1.137 1.728 0 3.216.557 1.5.546 2.614 1.648 1.125 1.102 1.75 2.772.625 1.66.625 3.887v1.329H648.94v-3h10.182q0-1.045-.454-1.852a3.26 3.26 0 0 0-1.262-1.261q-.795-.466-1.852-.466-1.102 0-1.955.511-.84.5-1.318 1.352a3.8 3.8 0 0 0-.488 1.875v2.853q0 1.295.477 2.238a3.5 3.5 0 0 0 1.375 1.455q.887.511 2.102.511.807 0 1.477-.227.67-.228 1.148-.682t.727-1.113l4.478.295a6.1 6.1 0 0 1-1.398 2.818q-1.046 1.194-2.705 1.864-1.647.659-3.806.659m23.417-10.432V212h-4.841v-17.455h4.614v3.08h.204a4.88 4.88 0 0 1 1.944-2.409q1.364-.898 3.306-.898 1.819 0 3.171.796t2.102 2.272q.75 1.467.75 3.5V212h-4.841v-10.25q.012-1.602-.818-2.5-.83-.909-2.284-.909-.977 0-1.727.42a2.93 2.93 0 0 0-1.159 1.228q-.41.795-.421 1.92m26.259 2.659v-10.023h4.841V212h-4.648v-3.17h-.182a5.15 5.15 0 0 1-1.966 2.465q-1.364.933-3.329.932-1.75 0-3.08-.795-1.329-.795-2.079-2.262-.74-1.465-.75-3.511v-11.114h4.84v10.25q.012 1.546.83 2.444t2.193.897q.875 0 1.637-.397a3.13 3.13 0 0 0 1.227-1.205q.477-.796.466-1.966m8.713 7.432v-17.455h4.613v3.08h.205q.546-1.535 1.818-2.42 1.273-.887 3.046-.887 1.796 0 3.056.898 1.262.887 1.682 2.409h.182q.534-1.5 1.932-2.398 1.409-.909 3.329-.909 2.443 0 3.966 1.557 1.534 1.545 1.534 4.386V212h-4.829v-10.784q0-1.455-.773-2.182t-1.932-.727q-1.317 0-2.056.841-.74.83-.739 2.193V212h-4.693v-10.886q0-1.284-.739-2.046-.728-.76-1.92-.761-.807 0-1.455.409-.636.397-1.011 1.125-.375.716-.375 1.682V212zm29.278 0v-23.273h4.841v8.75h.148q.318-.704.92-1.432.614-.738 1.591-1.227.989-.5 2.455-.5 1.91 0 3.522 1 1.614.988 2.58 2.989.966 1.988.966 4.988 0 2.92-.943 4.932-.932 2-2.546 3.034-1.602 1.023-3.591 1.023-1.409 0-2.397-.466-.978-.466-1.603-1.17a6 6 0 0 1-.954-1.443h-.216V212zm4.739-8.727q0 1.557.432 2.716t1.25 1.806q.818.637 1.988.637 1.182 0 2-.648.819-.659 1.239-1.818.432-1.17.432-2.693 0-1.512-.421-2.659-.42-1.148-1.238-1.796t-2.012-.648q-1.182 0-2 .625-.807.626-1.238 1.773-.432 1.148-.432 2.705m23.469 9.068q-2.694 0-4.637-1.091-1.932-1.102-2.977-3.114-1.045-2.022-1.045-4.784 0-2.693 1.045-4.727t2.943-3.17q1.91-1.137 4.477-1.137 1.728 0 3.216.557 1.5.546 2.614 1.648 1.125 1.102 1.75 2.772.625 1.66.625 3.887v1.329h-14.739v-3h10.182q0-1.045-.454-1.852a3.26 3.26 0 0 0-1.262-1.261q-.795-.466-1.852-.466-1.102 0-1.955.511-.84.5-1.318 1.352a3.8 3.8 0 0 0-.488 1.875v2.853q0 1.295.477 2.238a3.5 3.5 0 0 0 1.375 1.455q.887.511 2.102.511.807 0 1.477-.227.67-.228 1.148-.682t.727-1.113l4.478.295a6.1 6.1 0 0 1-1.398 2.818q-1.046 1.194-2.705 1.864-1.647.659-3.806.659m11.17-.341v-17.455h4.693v3.046h.182q.477-1.625 1.602-2.455 1.125-.84 2.591-.841.364 0 .784.046.421.045.739.125v4.295a6.4 6.4 0 0 0-.943-.181 8.5 8.5 0 0 0-1.102-.08q-1.069 0-1.91.466a3.43 3.43 0 0 0-1.318 1.273q-.477.818-.477 1.886V212zm16.355-3.182-.125 1.25q-.148 1.5-.568 2.989a32 32 0 0 1-.864 2.716q-.443 1.215-.716 1.909h-3.136q.17-.67.466-1.875.296-1.194.557-2.682t.329-3.034l.057-1.273zm18.625 3.523q-2.682 0-4.613-1.136a7.7 7.7 0 0 1-2.955-3.182q-1.023-2.034-1.023-4.682 0-2.682 1.034-4.705 1.046-2.034 2.966-3.17 1.921-1.148 4.568-1.148 2.285 0 4 .83 1.716.83 2.716 2.329t1.103 3.523h-4.569q-.192-1.307-1.022-2.102-.819-.807-2.148-.807-1.125 0-1.966.614-.83.602-1.295 1.761-.466 1.159-.466 2.807 0 1.67.454 2.841.466 1.17 1.307 1.784.841.613 1.966.613.83 0 1.489-.341a2.87 2.87 0 0 0 1.102-.988q.443-.66.579-1.58h4.569q-.114 2-1.091 3.523-.966 1.511-2.671 2.364-1.704.852-4.034.852m15.736-10.432V212h-4.841v-23.273h4.705v8.898h.204q.59-1.545 1.909-2.42 1.318-.887 3.307-.887 1.818 0 3.171.796 1.363.783 2.113 2.261.762 1.466.75 3.511V212h-4.841v-10.25q.012-1.614-.818-2.511-.818-.898-2.295-.898-.989 0-1.75.42-.75.421-1.182 1.228-.42.795-.432 1.92m23.082 10.432q-2.693 0-4.636-1.091-1.932-1.102-2.977-3.114-1.046-2.022-1.046-4.784 0-2.693 1.046-4.727 1.045-2.034 2.943-3.17 1.91-1.137 4.477-1.137 1.728 0 3.216.557 1.5.546 2.614 1.648 1.125 1.102 1.75 2.772.624 1.66.625 3.887v1.329h-14.739v-3h10.182q0-1.045-.455-1.852a3.25 3.25 0 0 0-1.261-1.261q-.796-.466-1.852-.466-1.103 0-1.955.511-.84.5-1.318 1.352a3.8 3.8 0 0 0-.489 1.875v2.853q0 1.295.478 2.238a3.5 3.5 0 0 0 1.375 1.455q.886.511 2.102.511.807 0 1.477-.227.67-.228 1.148-.682t.727-1.113l4.477.295a6.1 6.1 0 0 1-1.397 2.818q-1.046 1.194-2.705 1.864-1.647.659-3.807.659m19.057 0q-2.682 0-4.613-1.136a7.7 7.7 0 0 1-2.955-3.182q-1.023-2.034-1.023-4.682 0-2.682 1.034-4.705 1.046-2.034 2.966-3.17 1.921-1.148 4.568-1.148 2.285 0 4 .83 1.716.83 2.716 2.329t1.103 3.523h-4.569q-.192-1.307-1.022-2.102-.819-.807-2.148-.807-1.125 0-1.966.614-.83.602-1.295 1.761-.466 1.159-.466 2.807 0 1.67.454 2.841.466 1.17 1.307 1.784.841.613 1.966.613.83 0 1.489-.341a2.87 2.87 0 0 0 1.102-.988q.443-.66.579-1.58h4.569q-.114 2-1.091 3.523-.966 1.511-2.671 2.364-1.704.852-4.034.852m15.281-5.364.012-5.807h.704l5.591-6.625h5.557l-7.511 8.773h-1.148zM886.463 212v-23.273h4.841V212zm10.909 0-5.136-7.602 3.227-3.421 7.58 11.023zm19.963-10.091V212h-4.841v-17.455h4.614v3.08h.204a4.88 4.88 0 0 1 1.944-2.409q1.364-.898 3.306-.898 1.819 0 3.171.796t2.102 2.272q.75 1.467.75 3.5V212h-4.841v-10.25q.012-1.602-.818-2.5-.83-.909-2.284-.909-.977 0-1.727.42a2.93 2.93 0 0 0-1.159 1.228q-.41.795-.421 1.92m23.02 10.432q-2.693 0-4.636-1.091a7.47 7.47 0 0 1-2.978-3.114q-1.044-2.022-1.045-4.784 0-2.693 1.045-4.727 1.046-2.034 2.944-3.17 1.909-1.137 4.477-1.137 1.726 0 3.216.557 1.5.546 2.613 1.648 1.125 1.102 1.75 2.772.625 1.66.625 3.887v1.329h-14.738v-3h10.182q0-1.045-.455-1.852a3.25 3.25 0 0 0-1.261-1.261q-.796-.466-1.853-.466-1.101 0-1.954.511-.841.5-1.318 1.352a3.8 3.8 0 0 0-.489 1.875v2.853q0 1.295.477 2.238a3.5 3.5 0 0 0 1.375 1.455q.887.511 2.103.511.807 0 1.477-.227a3.1 3.1 0 0 0 1.148-.682 3 3 0 0 0 .727-1.113l4.477.295a6.1 6.1 0 0 1-1.398 2.818q-1.044 1.194-2.704 1.864-1.648.659-3.807.659m14.904-17.796 3.204 6.103 3.284-6.103h4.966l-5.057 8.728 5.193 8.727h-4.943l-3.443-6.034-3.386 6.034h-5l5.182-8.727-5-8.728zm23.613 0v3.637h-10.511v-3.637zm-8.125-4.181h4.841v16.272q0 .67.205 1.046.204.363.568.511.375.148.863.148.342 0 .682-.057l.523-.102.761 3.602q-.363.114-1.022.261-.66.16-1.603.194-1.75.068-3.068-.466-1.307-.534-2.034-1.659t-.716-2.841zm26.571 21.977q-2.647 0-4.579-1.125a7.7 7.7 0 0 1-2.966-3.159q-1.046-2.034-1.046-4.716 0-2.705 1.046-4.727 1.045-2.034 2.966-3.159 1.932-1.137 4.579-1.137c1.765 0 3.292.379 4.572 1.137a7.58 7.58 0 0 1 2.97 3.159q1.05 2.022 1.05 4.727 0 2.682-1.05 4.716a7.67 7.67 0 0 1-2.97 3.159c-1.28.75-2.807 1.125-4.572 1.125m.023-3.75q1.204 0 2.011-.682c.538-.462.948-1.091 1.218-1.886q.42-1.194.42-2.716t-.42-2.716c-.27-.796-.68-1.424-1.218-1.886q-.807-.694-2.011-.694-1.216 0-2.046.694-.818.692-1.238 1.886-.41 1.193-.409 2.716 0 1.522.409 2.716.42 1.193 1.238 1.886.83.682 2.046.682m16.559-6.682V212h-4.84v-17.455h4.61v3.08h.21a4.83 4.83 0 0 1 1.94-2.409q1.365-.898 3.3-.898c1.22 0 2.27.265 3.18.796q1.35.796 2.1 2.272.75 1.467.75 3.5V212h-4.84v-10.25c0-1.068-.27-1.902-.82-2.5-.55-.606-1.32-.909-2.29-.909-.65 0-1.22.14-1.72.42-.5.281-.88.69-1.16 1.228q-.405.795-.42 1.92m23.02 10.432c-1.8 0-3.34-.364-4.64-1.091-1.29-.735-2.28-1.773-2.98-3.114-.69-1.348-1.04-2.943-1.04-4.784 0-1.795.35-3.371 1.04-4.727.7-1.356 1.68-2.413 2.95-3.17q1.905-1.137 4.47-1.137c1.16 0 2.23.186 3.22.557q1.5.546 2.61 1.648c.75.735 1.34 1.659 1.75 2.772q.63 1.66.63 3.887v1.329h-14.74v-3h10.18q0-1.045-.45-1.852a3.35 3.35 0 0 0-1.26-1.261q-.795-.466-1.86-.466-1.095 0-1.95.511-.84.5-1.32 1.352a3.8 3.8 0 0 0-.49 1.875v2.853q0 1.295.48 2.238c.33.629.78 1.114 1.37 1.455.6.341 1.3.511 2.11.511q.81 0 1.47-.227c.45-.152.83-.379 1.15-.682s.56-.674.73-1.113l4.48.295a6.2 6.2 0 0 1-1.4 2.818c-.7.796-1.6 1.417-2.71 1.864-1.09.439-2.36.659-3.8.659M464.489 266.727V290h-4.25l-10.125-14.648h-.171V290h-4.92v-23.273h4.318l10.045 14.637h.205v-14.637zm11.86 23.614q-2.647 0-4.579-1.125a7.7 7.7 0 0 1-2.966-3.159q-1.045-2.034-1.045-4.716 0-2.705 1.045-4.727 1.046-2.034 2.966-3.159 1.932-1.137 4.579-1.137 2.648 0 4.569 1.137 1.931 1.125 2.977 3.159 1.045 2.022 1.045 4.727 0 2.682-1.045 4.716a7.7 7.7 0 0 1-2.977 3.159q-1.92 1.125-4.569 1.125m.023-3.75q1.205 0 2.012-.682.806-.693 1.215-1.886.421-1.194.421-2.716t-.421-2.716q-.409-1.193-1.215-1.886-.807-.694-2.012-.694-1.215 0-2.045.694-.819.692-1.239 1.886-.41 1.193-.409 2.716 0 1.522.409 2.716.42 1.193 1.239 1.886.83.682 2.045.682m21-14.046v3.637h-10.511v-3.637zm-8.125-4.181h4.841v16.272q0 .67.205 1.046.204.364.568.511.375.148.863.148.342 0 .682-.057l.523-.102.761 3.602q-.363.114-1.022.261-.66.16-1.603.194-1.75.068-3.068-.466-1.306-.534-2.034-1.659t-.716-2.841zm26.571 21.977q-2.647 0-4.579-1.125a7.7 7.7 0 0 1-2.966-3.159q-1.046-2.034-1.046-4.716 0-2.705 1.046-4.727 1.045-2.034 2.966-3.159 1.932-1.137 4.579-1.137 2.648 0 4.568 1.137 1.932 1.125 2.978 3.159 1.045 2.022 1.045 4.727 0 2.682-1.045 4.716a7.7 7.7 0 0 1-2.978 3.159q-1.92 1.125-4.568 1.125m.023-3.75q1.204 0 2.011-.682.807-.693 1.216-1.886.42-1.194.421-2.716 0-1.523-.421-2.716-.41-1.193-1.216-1.886-.807-.694-2.011-.694-1.217 0-2.046.694-.818.692-1.238 1.886-.41 1.193-.409 2.716 0 1.522.409 2.716.42 1.193 1.238 1.886.83.682 2.046.682m22.909-4.023v-10.023h4.841V290h-4.648v-3.17h-.182a5.15 5.15 0 0 1-1.966 2.465q-1.363.933-3.329.932-1.75 0-3.08-.795-1.329-.795-2.079-2.262-.74-1.465-.75-3.511v-11.114h4.841v10.25q.011 1.546.829 2.444.819.897 2.193.897.875 0 1.637-.397a3.13 3.13 0 0 0 1.227-1.205q.478-.795.466-1.966m8.713 7.432v-17.455h4.693v3.046h.182q.477-1.625 1.602-2.455 1.125-.84 2.591-.841.364 0 .784.046.421.045.739.125v4.295a6.4 6.4 0 0 0-.943-.181 8.5 8.5 0 0 0-1.102-.08q-1.069 0-1.91.466a3.43 3.43 0 0 0-1.318 1.273q-.477.818-.477 1.886V290zm20.5 6.545v-24h4.773v2.932h.216q.318-.704.92-1.432.614-.738 1.591-1.227.988-.5 2.455-.5 1.909 0 3.522 1 1.614.988 2.58 2.989.966 1.988.966 4.988 0 2.92-.943 4.932-.932 2-2.546 3.034-1.602 1.023-3.591 1.023-1.409 0-2.397-.466-.978-.466-1.603-1.17a6 6 0 0 1-.954-1.443h-.148v9.34zm4.739-15.272q0 1.557.432 2.716.43 1.159 1.25 1.806.818.637 1.988.637 1.182 0 2-.648.818-.659 1.239-1.818.432-1.17.432-2.693 0-1.512-.421-2.659-.42-1.149-1.238-1.796-.819-.648-2.012-.648-1.181 0-2 .625-.807.625-1.238 1.773-.432 1.148-.432 2.705m20.352-1.364V290h-4.841v-23.273h4.705v8.898h.204q.59-1.545 1.909-2.42 1.318-.887 3.307-.887 1.818 0 3.171.796 1.363.783 2.113 2.261.762 1.466.75 3.511V290h-4.841v-10.25q.012-1.614-.818-2.511-.818-.898-2.295-.898-.989 0-1.75.42-.75.421-1.182 1.228-.42.795-.432 1.92m23.014 10.432q-2.647 0-4.579-1.125a7.7 7.7 0 0 1-2.966-3.159q-1.046-2.034-1.046-4.716 0-2.705 1.046-4.727 1.045-2.034 2.966-3.159 1.932-1.137 4.579-1.137 2.648 0 4.568 1.137 1.932 1.125 2.978 3.159 1.045 2.022 1.045 4.727 0 2.682-1.045 4.716a7.7 7.7 0 0 1-2.978 3.159q-1.92 1.125-4.568 1.125m.023-3.75q1.204 0 2.011-.682.807-.693 1.216-1.886.42-1.194.421-2.716 0-1.523-.421-2.716-.41-1.193-1.216-1.886-.807-.694-2.011-.694-1.217 0-2.046.694-.818.692-1.238 1.886-.41 1.193-.409 2.716 0 1.522.409 2.716.42 1.193 1.238 1.886.83.682 2.046.682m16.557-6.682V290h-4.841v-17.455h4.613v3.08h.205a4.87 4.87 0 0 1 1.943-2.409q1.364-.898 3.307-.898 1.818 0 3.17.796 1.353.795 2.103 2.272.75 1.467.75 3.5V290h-4.841v-10.25q.011-1.602-.818-2.5-.83-.909-2.284-.909-.978 0-1.728.42-.739.421-1.159 1.228-.41.795-.42 1.92m23.02 10.432q-2.694 0-4.637-1.091-1.932-1.103-2.977-3.114-1.045-2.022-1.045-4.784 0-2.693 1.045-4.727 1.046-2.034 2.943-3.17 1.91-1.137 4.477-1.137 1.728 0 3.216.557 1.5.546 2.614 1.648 1.125 1.102 1.75 2.772.625 1.66.625 3.887v1.329H648.94v-3h10.182q0-1.045-.454-1.852a3.26 3.26 0 0 0-1.262-1.261q-.795-.466-1.852-.466-1.102 0-1.955.511-.84.5-1.318 1.352a3.8 3.8 0 0 0-.488 1.875v2.853q0 1.295.477 2.238a3.5 3.5 0 0 0 1.375 1.455q.887.511 2.102.511.807 0 1.477-.227.67-.228 1.148-.682t.727-1.113l4.478.295a6.1 6.1 0 0 1-1.398 2.818q-1.046 1.194-2.705 1.864-1.647.659-3.806.659m23.417-10.432V290h-4.841v-17.455h4.614v3.08h.204a4.88 4.88 0 0 1 1.944-2.409q1.364-.898 3.306-.898 1.819 0 3.171.796 1.352.795 2.102 2.272.75 1.467.75 3.5V290h-4.841v-10.25q.012-1.602-.818-2.5-.83-.909-2.284-.909-.977 0-1.727.42a2.93 2.93 0 0 0-1.159 1.228q-.41.795-.421 1.92m26.259 2.659v-10.023h4.841V290h-4.648v-3.17h-.182a5.15 5.15 0 0 1-1.966 2.465q-1.364.933-3.329.932-1.75 0-3.08-.795-1.329-.795-2.079-2.262-.74-1.465-.75-3.511v-11.114h4.84v10.25q.012 1.546.83 2.444t2.193.897q.875 0 1.637-.397a3.13 3.13 0 0 0 1.227-1.205q.477-.795.466-1.966m8.713 7.432v-17.455h4.613v3.08h.205q.546-1.535 1.818-2.42 1.273-.887 3.046-.887 1.796 0 3.056.898 1.262.887 1.682 2.409h.182q.534-1.5 1.932-2.398 1.409-.909 3.329-.909 2.443 0 3.966 1.557 1.534 1.545 1.534 4.386V290h-4.829v-10.784q0-1.455-.773-2.182t-1.932-.727q-1.317 0-2.056.841-.74.83-.739 2.193V290h-4.693v-10.886q0-1.284-.739-2.046-.728-.76-1.92-.761-.807 0-1.455.409-.636.397-1.011 1.125-.375.716-.375 1.682V290zm29.278 0v-23.273h4.841v8.75h.148q.318-.704.92-1.432.614-.738 1.591-1.227.989-.5 2.455-.5 1.91 0 3.522 1 1.614.988 2.58 2.989.966 1.988.966 4.988 0 2.92-.943 4.932-.932 2-2.546 3.034-1.602 1.023-3.591 1.023-1.409 0-2.397-.466-.978-.466-1.603-1.17a6 6 0 0 1-.954-1.443h-.216V290zm4.739-8.727q0 1.557.432 2.716t1.25 1.806q.818.637 1.988.637 1.182 0 2-.648.819-.659 1.239-1.818.432-1.17.432-2.693 0-1.512-.421-2.659-.42-1.149-1.238-1.796-.819-.648-2.012-.648-1.182 0-2 .625-.807.625-1.238 1.773-.432 1.148-.432 2.705m23.469 9.068q-2.694 0-4.637-1.091-1.932-1.103-2.977-3.114-1.045-2.022-1.045-4.784 0-2.693 1.045-4.727t2.943-3.17q1.91-1.137 4.477-1.137 1.728 0 3.216.557 1.5.546 2.614 1.648 1.125 1.102 1.75 2.772.625 1.66.625 3.887v1.329h-14.739v-3h10.182q0-1.045-.454-1.852a3.26 3.26 0 0 0-1.262-1.261q-.795-.466-1.852-.466-1.102 0-1.955.511-.84.5-1.318 1.352a3.8 3.8 0 0 0-.488 1.875v2.853q0 1.295.477 2.238a3.5 3.5 0 0 0 1.375 1.455q.887.511 2.102.511.807 0 1.477-.227.67-.228 1.148-.682t.727-1.113l4.478.295a6.1 6.1 0 0 1-1.398 2.818q-1.046 1.194-2.705 1.864-1.647.659-3.806.659m11.17-.341v-17.455h4.693v3.046h.182q.477-1.625 1.602-2.455 1.125-.84 2.591-.841.364 0 .784.046.421.045.739.125v4.295a6.4 6.4 0 0 0-.943-.181 8.5 8.5 0 0 0-1.102-.08q-1.069 0-1.91.466a3.43 3.43 0 0 0-1.318 1.273q-.477.818-.477 1.886V290zm16.355-3.182-.125 1.25q-.148 1.5-.568 2.989a32 32 0 0 1-.864 2.716q-.443 1.216-.716 1.909h-3.136q.17-.67.466-1.875.296-1.194.557-2.682.261-1.489.329-3.034l.057-1.273zm18.625 3.523q-2.682 0-4.613-1.136a7.7 7.7 0 0 1-2.955-3.182q-1.023-2.034-1.023-4.682 0-2.682 1.034-4.705 1.046-2.034 2.966-3.17 1.921-1.148 4.568-1.148 2.285 0 4 .83 1.716.83 2.716 2.329t1.103 3.523h-4.569q-.192-1.307-1.022-2.102-.819-.807-2.148-.807-1.125 0-1.966.614-.83.602-1.295 1.761-.466 1.159-.466 2.807 0 1.67.454 2.841.466 1.17 1.307 1.784.841.613 1.966.613.83 0 1.489-.341a2.87 2.87 0 0 0 1.102-.988q.443-.66.579-1.58h4.569q-.114 2-1.091 3.523-.966 1.511-2.671 2.364-1.704.852-4.034.852m15.736-10.432V290h-4.841v-23.273h4.705v8.898h.204q.59-1.545 1.909-2.42 1.318-.887 3.307-.887 1.818 0 3.171.796 1.363.783 2.113 2.261.762 1.466.75 3.511V290h-4.841v-10.25q.012-1.614-.818-2.511-.818-.898-2.295-.898-.989 0-1.75.42-.75.421-1.182 1.228-.42.795-.432 1.92m23.082 10.432q-2.693 0-4.636-1.091-1.932-1.103-2.977-3.114-1.046-2.022-1.046-4.784 0-2.693 1.046-4.727 1.045-2.034 2.943-3.17 1.91-1.137 4.477-1.137 1.728 0 3.216.557 1.5.546 2.614 1.648 1.125 1.102 1.75 2.772.624 1.66.625 3.887v1.329h-14.739v-3h10.182q0-1.045-.455-1.852a3.25 3.25 0 0 0-1.261-1.261q-.796-.466-1.852-.466-1.103 0-1.955.511-.84.5-1.318 1.352a3.8 3.8 0 0 0-.489 1.875v2.853q0 1.295.478 2.238a3.5 3.5 0 0 0 1.375 1.455q.886.511 2.102.511.807 0 1.477-.227.67-.228 1.148-.682t.727-1.113l4.477.295a6.1 6.1 0 0 1-1.397 2.818q-1.046 1.194-2.705 1.864-1.647.659-3.807.659m19.057 0q-2.682 0-4.613-1.136a7.7 7.7 0 0 1-2.955-3.182q-1.023-2.034-1.023-4.682 0-2.682 1.034-4.705 1.046-2.034 2.966-3.17 1.921-1.148 4.568-1.148 2.285 0 4 .83 1.716.83 2.716 2.329t1.103 3.523h-4.569q-.192-1.307-1.022-2.102-.819-.807-2.148-.807-1.125 0-1.966.614-.83.602-1.295 1.761-.466 1.159-.466 2.807 0 1.67.454 2.841.466 1.17 1.307 1.784.841.613 1.966.613.83 0 1.489-.341a2.87 2.87 0 0 0 1.102-.988q.443-.66.579-1.58h4.569q-.114 2-1.091 3.523-.966 1.511-2.671 2.364-1.704.852-4.034.852m15.281-5.364.012-5.807h.704l5.591-6.625h5.557l-7.511 8.773h-1.148zM886.463 290v-23.273h4.841V290zm10.909 0-5.136-7.602 3.227-3.421 7.58 11.023zm19.963-10.091V290h-4.841v-17.455h4.614v3.08h.204a4.88 4.88 0 0 1 1.944-2.409q1.364-.898 3.306-.898 1.819 0 3.171.796 1.352.795 2.102 2.272.75 1.467.75 3.5V290h-4.841v-10.25q.012-1.602-.818-2.5-.83-.909-2.284-.909-.977 0-1.727.42a2.93 2.93 0 0 0-1.159 1.228q-.41.795-.421 1.92m23.02 10.432q-2.693 0-4.636-1.091a7.47 7.47 0 0 1-2.978-3.114q-1.044-2.022-1.045-4.784 0-2.693 1.045-4.727 1.046-2.034 2.944-3.17 1.909-1.137 4.477-1.137 1.726 0 3.216.557 1.5.546 2.613 1.648 1.125 1.102 1.75 2.772.625 1.66.625 3.887v1.329h-14.738v-3h10.182q0-1.045-.455-1.852a3.25 3.25 0 0 0-1.261-1.261q-.796-.466-1.853-.466-1.101 0-1.954.511-.841.5-1.318 1.352a3.8 3.8 0 0 0-.489 1.875v2.853q0 1.295.477 2.238a3.5 3.5 0 0 0 1.375 1.455q.887.511 2.103.511.807 0 1.477-.227a3.1 3.1 0 0 0 1.148-.682 3 3 0 0 0 .727-1.113l4.477.295a6.1 6.1 0 0 1-1.398 2.818q-1.044 1.194-2.704 1.864-1.648.659-3.807.659m14.904-17.796 3.204 6.103 3.284-6.103h4.966l-5.057 8.728 5.193 8.727h-4.943l-3.443-6.034-3.386 6.034h-5l5.182-8.727-5-8.728zm23.613 0v3.637h-10.511v-3.637zm-8.125-4.181h4.841v16.272q0 .67.205 1.046.204.364.568.511.375.148.863.148.342 0 .682-.057l.523-.102.761 3.602q-.363.114-1.022.261-.66.16-1.603.194-1.75.068-3.068-.466-1.307-.534-2.034-1.659t-.716-2.841zm26.571 21.977q-2.647 0-4.579-1.125a7.7 7.7 0 0 1-2.966-3.159q-1.046-2.034-1.046-4.716 0-2.705 1.046-4.727 1.045-2.034 2.966-3.159 1.932-1.137 4.579-1.137c1.765 0 3.292.379 4.572 1.137a7.58 7.58 0 0 1 2.97 3.159q1.05 2.022 1.05 4.727 0 2.682-1.05 4.716a7.67 7.67 0 0 1-2.97 3.159c-1.28.75-2.807 1.125-4.572 1.125m.023-3.75q1.204 0 2.011-.682c.538-.462.948-1.091 1.218-1.886q.42-1.194.42-2.716t-.42-2.716c-.27-.796-.68-1.424-1.218-1.886q-.807-.694-2.011-.694-1.216 0-2.046.694-.818.692-1.238 1.886-.41 1.193-.409 2.716 0 1.522.409 2.716.42 1.193 1.238 1.886.83.682 2.046.682m16.559-6.682V290h-4.84v-17.455h4.61v3.08h.21a4.83 4.83 0 0 1 1.94-2.409q1.365-.898 3.3-.898c1.22 0 2.27.265 3.18.796q1.35.795 2.1 2.272.75 1.467.75 3.5V290h-4.84v-10.25c0-1.068-.27-1.902-.82-2.5-.55-.606-1.32-.909-2.29-.909-.65 0-1.22.14-1.72.42-.5.281-.88.69-1.16 1.228q-.405.795-.42 1.92m23.02 10.432c-1.8 0-3.34-.364-4.64-1.091-1.29-.735-2.28-1.773-2.98-3.114-.69-1.348-1.04-2.943-1.04-4.784 0-1.795.35-3.371 1.04-4.727.7-1.356 1.68-2.413 2.95-3.17q1.905-1.137 4.47-1.137c1.16 0 2.23.186 3.22.557q1.5.546 2.61 1.648c.75.735 1.34 1.659 1.75 2.772q.63 1.66.63 3.887v1.329h-14.74v-3h10.18q0-1.045-.45-1.852a3.35 3.35 0 0 0-1.26-1.261q-.795-.466-1.86-.466-1.095 0-1.95.511-.84.5-1.32 1.352a3.8 3.8 0 0 0-.49 1.875v2.853q0 1.295.48 2.238c.33.629.78 1.114 1.37 1.455.6.341 1.3.511 2.11.511q.81 0 1.47-.227c.45-.152.83-.379 1.15-.682s.56-.674.73-1.113l4.48.295a6.2 6.2 0 0 1-1.4 2.818c-.7.796-1.6 1.417-2.71 1.864-1.09.439-2.36.659-3.8.659"/><path fill="#096" d="M445.023 368v-23.273h15.409v4.057h-10.489v5.546h9.466v4.056h-9.466V368zm25.233.341q-2.648 0-4.58-1.125a7.7 7.7 0 0 1-2.966-3.159q-1.045-2.034-1.045-4.716 0-2.705 1.045-4.727 1.046-2.034 2.966-3.159 1.932-1.137 4.58-1.137t4.568 1.137q1.932 1.125 2.977 3.159 1.046 2.022 1.046 4.727 0 2.682-1.046 4.716a7.7 7.7 0 0 1-2.977 3.159q-1.92 1.125-4.568 1.125m.022-3.75q1.205 0 2.012-.682.807-.693 1.216-1.886.42-1.194.42-2.716t-.42-2.716q-.41-1.193-1.216-1.886-.807-.694-2.012-.694-1.215 0-2.045.694-.818.692-1.239 1.886-.409 1.193-.409 2.716 0 1.522.409 2.716.422 1.193 1.239 1.886.83.682 2.045.682m22.91-4.023v-10.023h4.84V368h-4.647v-3.17h-.182a5.15 5.15 0 0 1-1.966 2.465q-1.363.933-3.33.932-1.75 0-3.079-.795t-2.08-2.262q-.738-1.465-.75-3.511v-11.114h4.841v10.25q.012 1.546.83 2.444t2.193.897q.875 0 1.636-.397a3.13 3.13 0 0 0 1.228-1.205q.477-.795.466-1.966m13.553-2.659V368h-4.84v-17.455h4.613v3.08h.205a4.87 4.87 0 0 1 1.943-2.409q1.363-.898 3.307-.898 1.818 0 3.17.796 1.352.795 2.102 2.272.75 1.467.75 3.5V368h-4.84v-10.25q.01-1.602-.819-2.5-.83-.909-2.284-.909-.977 0-1.727.42-.739.421-1.159 1.228-.41.795-.421 1.92m21.498 10.375q-1.989 0-3.603-1.023-1.602-1.033-2.545-3.034-.932-2.012-.932-4.932 0-3 .966-4.988.966-2 2.568-2.989a6.6 6.6 0 0 1 3.534-1q1.467 0 2.443.5.99.489 1.591 1.227.614.728.932 1.432h.148v-8.75h4.829V368h-4.772v-2.795h-.205a6.3 6.3 0 0 1-.966 1.443q-.614.704-1.602 1.17-.978.466-2.386.466m1.534-3.852q1.17 0 1.977-.637.818-.647 1.25-1.806.443-1.16.443-2.716t-.432-2.705q-.431-1.147-1.25-1.773-.818-.625-1.988-.625-1.194 0-2.012.648-.818.647-1.238 1.796-.421 1.147-.421 2.659 0 1.523.421 2.693.432 1.16 1.238 1.818.819.648 2.012.648m27.67 3.909q-2.647 0-4.579-1.125a7.7 7.7 0 0 1-2.966-3.159q-1.046-2.034-1.046-4.716 0-2.705 1.046-4.727 1.045-2.034 2.966-3.159 1.932-1.137 4.579-1.137 2.648 0 4.568 1.137 1.932 1.125 2.978 3.159 1.045 2.022 1.045 4.727 0 2.682-1.045 4.716a7.7 7.7 0 0 1-2.978 3.159q-1.92 1.125-4.568 1.125m.023-3.75q1.204 0 2.011-.682.807-.693 1.216-1.886.42-1.194.421-2.716 0-1.523-.421-2.716-.41-1.193-1.216-1.886-.807-.694-2.011-.694-1.217 0-2.046.694-.818.692-1.238 1.886-.41 1.193-.409 2.716 0 1.522.409 2.716.42 1.193 1.238 1.886.83.682 2.046.682m22.909-4.023v-10.023h4.841V368h-4.648v-3.17h-.182a5.15 5.15 0 0 1-1.966 2.465q-1.363.933-3.329.932-1.75 0-3.08-.795-1.329-.795-2.079-2.262-.74-1.465-.75-3.511v-11.114h4.841v10.25q.011 1.546.829 2.444.819.897 2.193.897.875 0 1.637-.397a3.13 3.13 0 0 0 1.227-1.205q.478-.795.466-1.966m8.713 7.432v-17.455h4.693v3.046h.182q.477-1.625 1.602-2.455 1.125-.84 2.591-.841.364 0 .784.046.421.045.739.125v4.295a6.4 6.4 0 0 0-.943-.181 8.5 8.5 0 0 0-1.102-.08q-1.069 0-1.91.466a3.43 3.43 0 0 0-1.318 1.273q-.477.818-.477 1.886V368zm20.5 6.545v-24h4.773v2.932h.216q.318-.704.92-1.432.614-.738 1.591-1.227.988-.5 2.455-.5 1.909 0 3.522 1 1.614.988 2.58 2.989.966 1.988.966 4.988 0 2.92-.943 4.932-.932 2-2.546 3.034-1.602 1.023-3.591 1.023-1.409 0-2.397-.466-.978-.466-1.603-1.17a6 6 0 0 1-.954-1.443h-.148v9.34zm4.739-15.272q0 1.557.432 2.716.43 1.159 1.25 1.806.818.637 1.988.637 1.182 0 2-.648.818-.659 1.239-1.818.432-1.17.432-2.693 0-1.512-.421-2.659-.42-1.149-1.238-1.796-.819-.648-2.012-.648-1.181 0-2 .625-.807.625-1.238 1.773-.432 1.148-.432 2.705m20.352-1.364V368h-4.841v-23.273h4.705v8.898h.204q.59-1.545 1.909-2.42 1.318-.887 3.307-.887 1.818 0 3.171.796 1.363.783 2.113 2.261.762 1.466.75 3.511V368h-4.841v-10.25q.012-1.614-.818-2.511-.818-.898-2.295-.898-.989 0-1.75.42-.75.421-1.182 1.228-.42.795-.432 1.92m23.014 10.432q-2.647 0-4.579-1.125a7.7 7.7 0 0 1-2.966-3.159q-1.046-2.034-1.046-4.716 0-2.705 1.046-4.727 1.045-2.034 2.966-3.159 1.932-1.137 4.579-1.137 2.648 0 4.568 1.137 1.932 1.125 2.978 3.159 1.045 2.022 1.045 4.727 0 2.682-1.045 4.716a7.7 7.7 0 0 1-2.978 3.159q-1.92 1.125-4.568 1.125m.023-3.75q1.204 0 2.011-.682.807-.693 1.216-1.886.42-1.194.421-2.716 0-1.523-.421-2.716-.41-1.193-1.216-1.886-.807-.694-2.011-.694-1.217 0-2.046.694-.818.692-1.238 1.886-.41 1.193-.409 2.716 0 1.522.409 2.716.42 1.193 1.238 1.886.83.682 2.046.682m16.557-6.682V368h-4.841v-17.455h4.613v3.08h.205a4.87 4.87 0 0 1 1.943-2.409q1.364-.898 3.307-.898 1.818 0 3.17.796 1.353.795 2.103 2.272.75 1.467.75 3.5V368h-4.841v-10.25q.011-1.602-.818-2.5-.83-.909-2.284-.909-.978 0-1.728.42-.739.421-1.159 1.228-.41.795-.42 1.92m23.02 10.432q-2.694 0-4.637-1.091-1.932-1.102-2.977-3.114-1.045-2.022-1.045-4.784 0-2.693 1.045-4.727t2.943-3.17q1.91-1.137 4.477-1.137 1.728 0 3.216.557 1.5.546 2.614 1.648 1.125 1.102 1.75 2.772.625 1.66.625 3.887v1.329h-14.739v-3h10.182q0-1.045-.454-1.852a3.26 3.26 0 0 0-1.262-1.261q-.795-.466-1.852-.466-1.102 0-1.955.511-.84.5-1.318 1.352a3.8 3.8 0 0 0-.488 1.875v2.853q0 1.295.477 2.238a3.5 3.5 0 0 0 1.375 1.455q.887.511 2.102.511.807 0 1.477-.227.67-.228 1.148-.682t.727-1.113l4.478.295a6.1 6.1 0 0 1-1.398 2.818q-1.046 1.194-2.705 1.864-1.647.659-3.806.659m23.417-10.432V368h-4.841v-17.455h4.614v3.08h.205a4.87 4.87 0 0 1 1.943-2.409q1.363-.898 3.307-.898 1.817 0 3.17.796 1.352.795 2.102 2.272.75 1.467.75 3.5V368h-4.841v-10.25q.012-1.602-.818-2.5-.83-.909-2.284-.909-.977 0-1.727.42a2.93 2.93 0 0 0-1.159 1.228q-.41.795-.421 1.92m26.259 2.659v-10.023h4.841V368h-4.648v-3.17h-.182a5.15 5.15 0 0 1-1.966 2.465q-1.364.933-3.329.932-1.75 0-3.08-.795-1.329-.795-2.079-2.262-.74-1.465-.75-3.511v-11.114h4.84v10.25q.012 1.546.83 2.444t2.193.897q.875 0 1.637-.397a3.13 3.13 0 0 0 1.227-1.205q.477-.795.466-1.966m8.713 7.432v-17.455h4.613v3.08h.205q.546-1.535 1.818-2.42 1.273-.887 3.046-.887 1.796 0 3.056.898 1.262.886 1.682 2.409h.182q.534-1.5 1.932-2.398 1.409-.909 3.329-.909 2.443 0 3.966 1.557 1.534 1.545 1.534 4.386V368h-4.829v-10.784q0-1.455-.773-2.182t-1.932-.727q-1.317 0-2.056.841-.74.83-.739 2.193V368h-4.693v-10.886q0-1.284-.739-2.046-.728-.76-1.92-.761-.807 0-1.455.409-.636.397-1.011 1.125-.375.716-.375 1.682V368zm29.278 0v-23.273h4.841v8.75h.148q.318-.704.92-1.432.614-.738 1.591-1.227.989-.5 2.455-.5 1.91 0 3.523 1 1.613.988 2.579 2.989.966 1.988.966 4.988 0 2.92-.943 4.932-.932 2-2.546 3.034-1.602 1.023-3.591 1.023-1.409 0-2.397-.466-.978-.466-1.603-1.17a6 6 0 0 1-.954-1.443h-.216V368zm4.739-8.727q0 1.557.432 2.716t1.25 1.806q.818.637 1.988.637 1.182 0 2-.648.819-.659 1.239-1.818.432-1.17.432-2.693 0-1.512-.421-2.659-.42-1.149-1.238-1.796-.819-.648-2.012-.648-1.182 0-2 .625-.807.625-1.238 1.773-.432 1.148-.432 2.705m23.469 9.068q-2.694 0-4.637-1.091-1.932-1.102-2.977-3.114-1.045-2.022-1.045-4.784 0-2.693 1.045-4.727t2.943-3.17q1.91-1.137 4.477-1.137 1.728 0 3.216.557 1.5.546 2.614 1.648 1.125 1.102 1.75 2.772.625 1.66.625 3.887v1.329H806.44v-3h10.182q0-1.045-.454-1.852a3.26 3.26 0 0 0-1.262-1.261q-.795-.466-1.852-.466-1.102 0-1.955.511-.84.5-1.318 1.352a3.8 3.8 0 0 0-.488 1.875v2.853q0 1.295.477 2.238a3.5 3.5 0 0 0 1.375 1.455q.887.511 2.102.511.807 0 1.477-.227.67-.228 1.148-.682t.727-1.113l4.478.295a6.1 6.1 0 0 1-1.398 2.818q-1.046 1.194-2.705 1.864-1.647.659-3.806.659m11.17-.341v-17.455h4.693v3.046h.182q.477-1.625 1.602-2.455 1.125-.84 2.591-.841.364 0 .784.046.421.045.739.125v4.295a6.4 6.4 0 0 0-.943-.181 8.5 8.5 0 0 0-1.102-.08q-1.069 0-1.91.466a3.43 3.43 0 0 0-1.318 1.273q-.477.818-.477 1.886V368zm25.477.33q-1.67 0-2.977-.58a4.8 4.8 0 0 1-2.068-1.739q-.75-1.158-.75-2.886 0-1.455.534-2.443a4.3 4.3 0 0 1 1.455-1.591 7 7 0 0 1 2.09-.909 16 16 0 0 1 2.478-.432 65 65 0 0 0 2.454-.295q.931-.148 1.353-.432.42-.285.42-.841v-.068q0-1.08-.682-1.671-.67-.591-1.909-.591-1.306 0-2.079.58-.774.568-1.023 1.432l-4.477-.364q.34-1.591 1.34-2.75 1-1.17 2.58-1.795 1.591-.637 3.682-.637 1.454 0 2.784.341a7.3 7.3 0 0 1 2.375 1.057 5.14 5.14 0 0 1 1.648 1.841q.602 1.113.602 2.67V368h-4.591v-2.42h-.136a5 5 0 0 1-1.125 1.443 5.2 5.2 0 0 1-1.694.966q-.988.34-2.284.341m1.387-3.341q1.068 0 1.886-.421a3.33 3.33 0 0 0 1.284-1.159 3 3 0 0 0 .466-1.648v-1.852q-.227.148-.625.273-.386.114-.875.216-.488.09-.977.17l-.887.125a6 6 0 0 0-1.488.398q-.636.273-.989.739-.352.454-.352 1.136 0 .989.716 1.511.727.512 1.841.512m21.483-14.444v3.637h-10.512v-3.637zm-8.125-4.181h4.841v16.272q0 .67.204 1.046.205.364.568.511.375.148.864.148.34 0 .682-.057l.522-.102.762 3.602a13 13 0 0 1-1.023.261q-.659.16-1.602.194-1.75.068-3.068-.466-1.308-.534-2.034-1.659-.728-1.125-.716-2.841zm18.684 28.181v-24h4.773v2.932h.216q.318-.704.92-1.432.615-.738 1.591-1.227.989-.5 2.455-.5 1.91 0 3.523 1 1.613.988 2.579 2.989.966 1.988.966 4.988 0 2.92-.943 4.932-.932 2-2.546 3.034-1.602 1.023-3.59 1.023-1.41 0-2.398-.466-.978-.466-1.602-1.17a6 6 0 0 1-.955-1.443h-.148v9.34zm4.739-15.272q0 1.557.432 2.716t1.25 1.806q.818.637 1.988.637 1.182 0 2-.648.819-.659 1.239-1.818.432-1.17.432-2.693 0-1.512-.421-2.659-.42-1.149-1.238-1.796-.819-.648-2.012-.648-1.18 0-2 .625-.806.625-1.238 1.773t-.432 2.705m23.398 9.068q-2.648 0-4.58-1.125a7.7 7.7 0 0 1-2.966-3.159q-1.045-2.034-1.045-4.716 0-2.705 1.045-4.727 1.046-2.034 2.966-3.159 1.932-1.137 4.58-1.137t4.568 1.137q1.932 1.125 2.977 3.159 1.046 2.022 1.046 4.727 0 2.682-1.046 4.716a7.7 7.7 0 0 1-2.977 3.159q-1.92 1.125-4.568 1.125m.022-3.75q1.205 0 2.012-.682.807-.693 1.216-1.886.42-1.194.42-2.716t-.42-2.716q-.41-1.193-1.216-1.886-.807-.694-2.012-.694-1.215 0-2.045.694-.817.692-1.239 1.886-.409 1.193-.409 2.716 0 1.522.409 2.716.421 1.193 1.239 1.886.83.682 2.045.682m26.239-9.068-4.432.272a2.3 2.3 0 0 0-.488-1.022 2.6 2.6 0 0 0-.989-.739q-.603-.284-1.443-.284-1.125 0-1.898.477-.773.467-.773 1.25 0 .625.5 1.057.501.432 1.716.693l3.159.637q2.545.522 3.796 1.681t1.25 3.046q0 1.716-1.012 3.011-1 1.296-2.75 2.023-1.739.716-4.011.716-3.466 0-5.523-1.443-2.045-1.455-2.397-3.955l4.761-.25q.216 1.058 1.045 1.614.83.545 2.125.545 1.274 0 2.046-.488.785-.501.795-1.284-.01-.66-.557-1.08-.545-.432-1.681-.659l-3.023-.602q-2.558-.512-3.807-1.773-1.239-1.261-1.239-3.216 0-1.681.91-2.898.92-1.215 2.579-1.875 1.671-.659 3.909-.659 3.308 0 5.205 1.398 1.91 1.398 2.227 3.807M941.088 368v-17.455h4.841V368zm2.432-19.705a2.63 2.63 0 0 1-1.852-.715q-.762-.728-.762-1.739 0-1 .762-1.716a2.6 2.6 0 0 1 1.852-.727q1.08 0 1.841.727.773.716.773 1.716 0 1.011-.773 1.739-.761.715-1.841.715m15.571 2.25v3.637H948.58v-3.637zm-8.125-4.181h4.841v16.272q0 .67.204 1.046.205.364.569.511.375.148.863.148.341 0 .682-.057l.523-.102.761 3.602q-.363.114-1.023.261-.659.16-1.602.194-1.75.068-3.068-.466-1.307-.534-2.034-1.659-.728-1.125-.716-2.841zM962.244 368v-17.455h4.841V368zm2.432-19.705a2.63 2.63 0 0 1-1.852-.715q-.762-.728-.762-1.739 0-1 .762-1.716a2.6 2.6 0 0 1 1.852-.727q1.08 0 1.841.727.773.716.773 1.716 0 1.011-.773 1.739-.762.715-1.841.715m14.173 20.046q-2.647 0-4.579-1.125a7.7 7.7 0 0 1-2.966-3.159q-1.045-2.034-1.045-4.716 0-2.705 1.045-4.727 1.046-2.034 2.966-3.159 1.932-1.137 4.579-1.137 2.648 0 4.569 1.137 1.931 1.125 2.977 3.159 1.045 2.022 1.045 4.727 0 2.682-1.045 4.716a7.7 7.7 0 0 1-2.977 3.159q-1.92 1.125-4.569 1.125m.023-3.75q1.205 0 2.012-.682.806-.693 1.215-1.886.421-1.194.421-2.716t-.421-2.716q-.409-1.193-1.215-1.886-.807-.694-2.012-.694-1.215 0-2.045.694-.819.692-1.239 1.886-.41 1.193-.409 2.716 0 1.522.409 2.716.42 1.193 1.239 1.886.83.682 2.045.682m16.557-6.682V368h-4.841v-17.455h4.614v3.08h.204a4.87 4.87 0 0 1 1.943-2.409q1.364-.898 3.311-.898c1.21 0 2.27.265 3.17.796q1.35.795 2.1 2.272.75 1.467.75 3.5V368h-4.84v-10.25c.01-1.068-.27-1.902-.82-2.5-.55-.606-1.315-.909-2.284-.909q-.977 0-1.727.42-.739.421-1.16 1.228-.408.795-.42 1.92m22.071 6v-3.875l9.72-15.307h3.34v5.364h-1.98l-6.12 9.693v.182h13.8v3.943zm11.17 4.091v-5.273l.09-1.716v-16.284h4.62V368zm16.7-23.273-.44 16.296h-4.16l-.45-16.296zm-2.52 23.568c-.75 0-1.39-.265-1.93-.795-.54-.538-.81-1.182-.8-1.932-.01-.742.26-1.379.8-1.909s1.18-.795 1.93-.795c.72 0 1.35.265 1.9.795.54.53.82 1.167.83 1.909-.01.5-.14.959-.4 1.375q-.375.614-.99.989c-.41.242-.86.363-1.34.363"/><path fill="#f55" d="M464.489 459.727V483h-4.25l-10.125-14.648h-.171V483h-4.92v-23.273h4.318l10.045 14.637h.205v-14.637zm11.86 23.614q-2.647 0-4.579-1.125a7.7 7.7 0 0 1-2.966-3.159q-1.045-2.034-1.045-4.716 0-2.705 1.045-4.727 1.046-2.034 2.966-3.159 1.932-1.137 4.579-1.137 2.648 0 4.569 1.137 1.931 1.125 2.977 3.159 1.045 2.022 1.045 4.727 0 2.682-1.045 4.716a7.7 7.7 0 0 1-2.977 3.159q-1.92 1.125-4.569 1.125m.023-3.75q1.205 0 2.012-.682.806-.693 1.215-1.886.421-1.194.421-2.716t-.421-2.716q-.409-1.193-1.215-1.886-.807-.694-2.012-.694-1.215 0-2.045.694-.819.692-1.239 1.886-.41 1.193-.409 2.716 0 1.522.409 2.716.42 1.193 1.239 1.886.83.682 2.045.682m23.963-6.682V483h-4.841v-17.455h4.614v3.08h.204a4.88 4.88 0 0 1 1.944-2.409q1.364-.898 3.306-.898 1.819 0 3.171.796 1.352.795 2.102 2.272.75 1.467.75 3.5V483h-4.841v-10.25q.012-1.602-.818-2.5-.83-.909-2.284-.909-.977 0-1.727.42a2.93 2.93 0 0 0-1.159 1.228q-.41.795-.421 1.92m23.02 10.432q-2.693 0-4.636-1.091a7.47 7.47 0 0 1-2.978-3.114q-1.044-2.022-1.045-4.784 0-2.693 1.045-4.727 1.046-2.034 2.944-3.17 1.909-1.137 4.477-1.137 1.726 0 3.216.557 1.5.546 2.613 1.648 1.125 1.102 1.75 2.772.625 1.66.625 3.887v1.329h-14.738v-3h10.182q0-1.045-.455-1.852a3.25 3.25 0 0 0-1.261-1.261q-.796-.466-1.853-.466-1.101 0-1.954.511-.841.5-1.318 1.352a3.8 3.8 0 0 0-.489 1.875v2.853q0 1.295.477 2.238a3.5 3.5 0 0 0 1.375 1.455q.886.511 2.103.511.807 0 1.477-.227a3.1 3.1 0 0 0 1.148-.682 3 3 0 0 0 .727-1.113l4.477.295a6.1 6.1 0 0 1-1.398 2.818q-1.044 1.194-2.704 1.864-1.648.659-3.807.659m19.125 0q-2.693 0-4.636-1.091a7.47 7.47 0 0 1-2.978-3.114q-1.044-2.022-1.045-4.784 0-2.693 1.045-4.727 1.046-2.034 2.944-3.17 1.909-1.137 4.477-1.137 1.726 0 3.216.557 1.5.546 2.613 1.648 1.125 1.102 1.75 2.772.625 1.66.625 3.887v1.329h-14.738v-3h10.182q0-1.045-.455-1.852a3.25 3.25 0 0 0-1.261-1.261q-.796-.466-1.853-.466-1.101 0-1.954.511-.841.5-1.318 1.352a3.8 3.8 0 0 0-.489 1.875v2.853q0 1.295.477 2.238a3.5 3.5 0 0 0 1.375 1.455q.886.511 2.103.511.807 0 1.477-.227a3.1 3.1 0 0 0 1.148-.682 3 3 0 0 0 .727-1.113l4.477.295a6.1 6.1 0 0 1-1.398 2.818q-1.044 1.194-2.704 1.864-1.648.659-3.807.659m17.602-.057q-1.988 0-3.602-1.023-1.602-1.033-2.545-3.034-.933-2.012-.932-4.932 0-3 .966-4.988.966-2 2.568-2.989a6.6 6.6 0 0 1 3.534-1q1.466 0 2.443.5.989.489 1.591 1.227.614.728.932 1.432h.148v-8.75h4.829V483h-4.773v-2.795h-.204a6.3 6.3 0 0 1-.966 1.443q-.614.704-1.602 1.17-.977.466-2.387.466m1.534-3.852q1.171 0 1.978-.637.818-.647 1.25-1.806.443-1.16.443-2.716t-.432-2.705q-.431-1.147-1.25-1.773-.817-.625-1.989-.625-1.192 0-2.011.648-.817.647-1.239 1.796-.42 1.147-.42 2.659 0 1.523.42 2.693.432 1.16 1.239 1.818.819.648 2.011.648m29.069-13.887v3.637h-10.512v-3.637zm-8.125-4.181h4.841v16.272q0 .67.204 1.046.205.364.568.511.375.148.864.148.34 0 .682-.057l.522-.102.762 3.602a13 13 0 0 1-1.023.261q-.659.16-1.602.194-1.75.068-3.068-.466-1.308-.534-2.034-1.659-.728-1.125-.716-2.841zm18.977 21.977q-2.648 0-4.58-1.125a7.7 7.7 0 0 1-2.966-3.159q-1.044-2.034-1.045-4.716 0-2.705 1.045-4.727 1.046-2.034 2.966-3.159 1.932-1.137 4.58-1.137t4.568 1.137q1.932 1.125 2.977 3.159 1.046 2.022 1.046 4.727 0 2.682-1.046 4.716a7.7 7.7 0 0 1-2.977 3.159q-1.92 1.125-4.568 1.125m.023-3.75q1.204 0 2.011-.682.807-.693 1.216-1.886.42-1.194.42-2.716t-.42-2.716q-.41-1.193-1.216-1.886-.807-.694-2.011-.694-1.216 0-2.046.694-.818.692-1.238 1.886-.41 1.193-.41 2.716 0 1.522.41 2.716.42 1.193 1.238 1.886.83.682 2.046.682m27.008 3.75q-2.682 0-4.613-1.136a7.7 7.7 0 0 1-2.955-3.182q-1.023-2.034-1.023-4.682 0-2.682 1.034-4.705 1.046-2.034 2.966-3.17 1.921-1.148 4.568-1.148 2.285 0 4 .83 1.716.83 2.716 2.329t1.103 3.523h-4.569q-.192-1.307-1.022-2.102-.819-.807-2.148-.807-1.125 0-1.966.614-.83.602-1.295 1.761-.466 1.159-.466 2.807 0 1.67.454 2.841.466 1.17 1.307 1.784.841.613 1.966.613.83 0 1.489-.341a2.87 2.87 0 0 0 1.102-.988q.443-.66.579-1.58h4.569q-.114 2-1.091 3.523-.966 1.511-2.671 2.364-1.704.852-4.034.852m15.736-10.432V483h-4.841v-23.273h4.705v8.898h.204q.59-1.545 1.909-2.42 1.318-.887 3.307-.887 1.818 0 3.171.796 1.363.783 2.113 2.261.762 1.466.75 3.511V483h-4.841v-10.25q.012-1.614-.818-2.511-.818-.898-2.295-.898-.989 0-1.75.42-.75.421-1.182 1.228-.42.795-.432 1.92m23.082 10.432q-2.693 0-4.636-1.091-1.932-1.102-2.977-3.114-1.046-2.022-1.046-4.784 0-2.693 1.046-4.727t2.943-3.17q1.91-1.137 4.477-1.137 1.728 0 3.216.557 1.5.546 2.614 1.648 1.125 1.102 1.75 2.772.625 1.66.625 3.887v1.329h-14.739v-3h10.182q0-1.045-.455-1.852a3.25 3.25 0 0 0-1.261-1.261q-.795-.466-1.852-.466-1.103 0-1.955.511-.84.5-1.318 1.352a3.8 3.8 0 0 0-.489 1.875v2.853q0 1.295.478 2.238a3.5 3.5 0 0 0 1.375 1.455q.886.511 2.102.511.807 0 1.477-.227.67-.228 1.148-.682t.727-1.113l4.477.295a6.1 6.1 0 0 1-1.397 2.818q-1.046 1.194-2.705 1.864-1.647.659-3.807.659m19.057 0q-2.682 0-4.613-1.136a7.7 7.7 0 0 1-2.955-3.182q-1.023-2.034-1.023-4.682 0-2.682 1.034-4.705 1.046-2.034 2.966-3.17 1.921-1.148 4.568-1.148 2.285 0 4 .83 1.716.83 2.716 2.329t1.103 3.523h-4.569q-.192-1.307-1.022-2.102-.819-.807-2.148-.807-1.125 0-1.966.614-.83.602-1.295 1.761-.466 1.159-.466 2.807 0 1.67.454 2.841.466 1.17 1.307 1.784.841.613 1.966.613.83 0 1.489-.341a2.87 2.87 0 0 0 1.102-.988q.443-.66.579-1.58h4.569q-.114 2-1.091 3.523-.966 1.511-2.671 2.364-1.704.852-4.034.852m15.281-5.364.012-5.807h.704l5.591-6.625h5.557l-7.511 8.773h-1.148zM697.338 483v-23.273h4.841V483zm10.909 0-5.136-7.602 3.227-3.421 7.58 11.023zm20.1.33q-1.67 0-2.978-.58a4.8 4.8 0 0 1-2.068-1.739q-.75-1.158-.75-2.886 0-1.455.534-2.443a4.3 4.3 0 0 1 1.455-1.591 7 7 0 0 1 2.091-.909 16 16 0 0 1 2.477-.432 65 65 0 0 0 2.454-.295q.932-.148 1.353-.432t.42-.841v-.068q0-1.08-.682-1.671-.67-.591-1.909-.591-1.307 0-2.079.58-.773.568-1.023 1.432l-4.477-.364q.34-1.591 1.341-2.75 1-1.17 2.579-1.795 1.591-.637 3.682-.637 1.455 0 2.784.341a7.3 7.3 0 0 1 2.375 1.057 5.14 5.14 0 0 1 1.648 1.841q.602 1.113.602 2.67V483h-4.591v-2.42h-.136a4.9 4.9 0 0 1-1.125 1.443 5.2 5.2 0 0 1-1.693.966q-.989.34-2.284.341m1.386-3.341q1.068 0 1.886-.421a3.33 3.33 0 0 0 1.284-1.159 3 3 0 0 0 .466-1.648v-1.852q-.227.148-.625.273-.386.114-.875.216-.488.09-.977.17l-.886.125a6 6 0 0 0-1.489.398q-.636.273-.989.739-.351.454-.352 1.136 0 .989.716 1.511.728.512 1.841.512m17.04-7.08V483h-4.841v-17.455h4.613v3.08h.205a4.87 4.87 0 0 1 1.943-2.409q1.364-.898 3.307-.898 1.818 0 3.17.796 1.353.795 2.103 2.272.75 1.467.75 3.5V483h-4.841v-10.25q.011-1.602-.818-2.5-.83-.909-2.284-.909-.978 0-1.728.42-.739.421-1.159 1.228-.41.795-.42 1.92m17.429 16.636q-.921 0-1.728-.147a6.3 6.3 0 0 1-1.318-.353l1.091-3.613q.852.261 1.534.284.693.022 1.193-.318.512-.342.83-1.159l.284-.739-6.261-17.955h5.091l3.613 12.819h.182l3.648-12.819h5.125l-6.784 19.341q-.489 1.41-1.33 2.455a5.46 5.46 0 0 1-2.102 1.625q-1.273.579-3.068.579m32.554-24v3.637h-10.773v-3.637zM788.449 483v-18.716q0-1.897.739-3.148a4.75 4.75 0 0 1 2.045-1.875q1.296-.624 2.943-.625 1.115 0 2.034.171.932.17 1.387.307l-.864 3.636a6 6 0 0 0-.705-.17 4.4 4.4 0 0 0-.84-.08q-1.07 0-1.489.5-.42.489-.421 1.375V483zm22.457-7.432v-10.023h4.841V483h-4.648v-3.17h-.181a5.16 5.16 0 0 1-1.966 2.465q-1.363.933-3.33.932-1.75 0-3.079-.795t-2.08-2.262q-.738-1.465-.75-3.511v-11.114h4.841v10.25q.012 1.546.83 2.444.817.897 2.193.897.874 0 1.636-.397a3.1 3.1 0 0 0 1.227-1.205q.478-.795.466-1.966m8.713 7.432v-17.455h4.693v3.046h.182q.478-1.625 1.603-2.455 1.125-.84 2.591-.841.363 0 .784.046.42.045.738.125v4.295a6.3 6.3 0 0 0-.943-.181 8.5 8.5 0 0 0-1.102-.08q-1.068 0-1.909.466a3.4 3.4 0 0 0-1.318 1.273q-.478.818-.478 1.886V483zm23.253-17.455v3.637h-10.511v-3.637zm-8.125-4.181h4.841v16.272q0 .67.205 1.046.204.364.568.511.375.148.863.148.342 0 .682-.057l.523-.102.761 3.602q-.363.114-1.022.261-.66.16-1.603.194-1.75.068-3.068-.466-1.307-.534-2.034-1.659t-.716-2.841zm16.494 11.545V483h-4.84v-23.273h4.704v8.898h.205q.59-1.545 1.909-2.42 1.318-.887 3.307-.887 1.818 0 3.17.796 1.364.783 2.114 2.261.76 1.466.75 3.511V483h-4.841v-10.25q.011-1.614-.818-2.511-.819-.898-2.296-.898-.988 0-1.75.42-.75.421-1.182 1.228-.42.795-.432 1.92m23.083 10.432q-2.694 0-4.636-1.091a7.47 7.47 0 0 1-2.978-3.114q-1.045-2.022-1.045-4.784 0-2.693 1.045-4.727t2.943-3.17q1.91-1.137 4.478-1.137 1.726 0 3.216.557 1.5.546 2.613 1.648 1.125 1.102 1.75 2.772.625 1.66.625 3.887v1.329h-14.738v-3h10.181q0-1.045-.454-1.852a3.26 3.26 0 0 0-1.262-1.261q-.795-.466-1.852-.466-1.102 0-1.954.511-.841.5-1.318 1.352a3.8 3.8 0 0 0-.489 1.875v2.853q0 1.295.477 2.238a3.5 3.5 0 0 0 1.375 1.455q.887.511 2.102.511.807 0 1.478-.227a3.1 3.1 0 0 0 1.147-.682 2.96 2.96 0 0 0 .728-1.113l4.477.295a6.1 6.1 0 0 1-1.398 2.818q-1.045 1.194-2.704 1.864-1.649.659-3.807.659m11.17-.341v-17.455h4.694v3.046h.181q.478-1.625 1.603-2.455 1.125-.84 2.59-.841.364 0 .785.046.42.045.738.125v4.295a6.3 6.3 0 0 0-.943-.181 8.5 8.5 0 0 0-1.102-.08q-1.068 0-1.909.466a3.43 3.43 0 0 0-1.319 1.273q-.477.818-.477 1.886V483zm13.924.295q-1.125 0-1.932-.795a2.65 2.65 0 0 1-.796-1.932q0-1.114.796-1.909a2.66 2.66 0 0 1 1.932-.795q1.09 0 1.909.795.818.795.818 1.909 0 .75-.386 1.375-.375.614-.989.989-.614.363-1.352.363"/><path fill="#fff" d="M288.857 39V9.91h19.261v5.07h-13.111v6.932h11.832v5.071h-11.832V39zm23.284 0V17.182h6.051V39zm3.04-24.63q-1.35 0-2.315-.896-.952-.909-.952-2.173 0-1.25.952-2.145.966-.909 2.315-.909 1.35 0 2.301.91.966.893.966 2.144 0 1.264-.966 2.173-.951.895-2.301.895m13.91 12.016V39h-6.051V17.182h5.767v3.85h.255a6.1 6.1 0 0 1 2.429-3.012q1.706-1.122 4.134-1.122 2.273 0 3.963.994t2.628 2.841q.937 1.832.937 4.375V39h-6.051V26.188q.015-2.003-1.022-3.125-1.037-1.137-2.856-1.137-1.221 0-2.159.526-.923.525-1.449 1.534-.51.995-.525 2.4m26.871 12.97q-2.486 0-4.502-1.28-2.004-1.291-3.182-3.792-1.165-2.514-1.165-6.165 0-3.75 1.207-6.235 1.207-2.5 3.211-3.736a8.2 8.2 0 0 1 4.417-1.25q1.833 0 3.054.625 1.236.61 1.989 1.534.766.91 1.165 1.79h.184V9.909h6.037V39h-5.966v-3.494h-.255a7.8 7.8 0 0 1-1.208 1.804q-.767.88-2.003 1.463-1.22.582-2.983.582m1.918-4.816q1.462 0 2.472-.796 1.022-.81 1.562-2.258.554-1.45.554-3.395t-.54-3.38-1.562-2.217q-1.023-.78-2.486-.78-1.491 0-2.514.809-1.023.81-1.549 2.244-.525 1.435-.525 3.324 0 1.904.525 3.366.54 1.45 1.549 2.273 1.023.81 2.514.81M373.352 39V17.182h6.051V39zm3.04-24.63q-1.35 0-2.315-.896-.952-.909-.952-2.173 0-1.25.952-2.145.966-.909 2.315-.909 1.35 0 2.301.91.966.893.966 2.144 0 1.264-.966 2.173-.951.895-2.301.895m13.91 12.016V39h-6.051V17.182h5.767v3.85h.255a6.1 6.1 0 0 1 2.429-3.012q1.705-1.122 4.134-1.122 2.272 0 3.963.994 1.69.994 2.628 2.841.937 1.832.937 4.375V39h-6.051V26.188q.015-2.003-1.023-3.125-1.037-1.137-2.855-1.137-1.221 0-2.159.526-.923.525-1.449 1.534-.51.995-.525 2.4m28.661 21.25q-2.94 0-5.043-.81-2.088-.795-3.323-2.173-1.236-1.377-1.606-3.096l5.597-.753q.256.654.81 1.222.554.567 1.463.909.923.354 2.244.355 1.974 0 3.253-.966 1.293-.952 1.293-3.196v-3.992h-.256q-.398.91-1.193 1.72-.796.81-2.046 1.32-1.25.511-2.983.511-2.457 0-4.474-1.136-2.003-1.15-3.196-3.508-1.179-2.373-1.179-5.995 0-3.707 1.207-6.193t3.21-3.721a8.3 8.3 0 0 1 4.418-1.236q1.833 0 3.068.625 1.236.61 1.989 1.534.767.91 1.179 1.79h.227v-3.665h6.009v22.031q0 2.785-1.364 4.66t-3.778 2.812q-2.401.951-5.526.951m.128-13.494q1.463 0 2.471-.724 1.023-.74 1.563-2.103.554-1.377.554-3.295t-.54-3.324q-.54-1.42-1.562-2.202-1.023-.78-2.486-.78-1.491 0-2.514.809-1.023.795-1.549 2.216-.525 1.42-.525 3.28 0 1.89.525 3.268.54 1.363 1.549 2.116 1.023.74 2.514.739m30.834 5.27q-2.088 0-3.721-.724-1.634-.739-2.585-2.174-.938-1.449-.938-3.608 0-1.818.668-3.054a5.4 5.4 0 0 1 1.818-1.988 8.8 8.8 0 0 1 2.614-1.137 20 20 0 0 1 3.096-.54 78 78 0 0 0 3.068-.369q1.165-.184 1.691-.54.525-.355.525-1.05v-.086q0-1.35-.852-2.088-.838-.739-2.386-.739-1.634 0-2.6.725-.966.71-1.278 1.79l-5.597-.455q.426-1.99 1.676-3.437 1.25-1.464 3.225-2.245 1.988-.795 4.602-.795 1.818 0 3.48.426 1.676.426 2.969 1.32a6.4 6.4 0 0 1 2.06 2.302q.752 1.392.752 3.338V39h-5.738v-3.026h-.171a6.2 6.2 0 0 1-1.406 1.804q-.881.767-2.116 1.208-1.236.426-2.856.426m1.733-4.176q1.337 0 2.358-.526a4.2 4.2 0 0 0 1.605-1.449q.583-.909.583-2.06v-2.315a3.3 3.3 0 0 1-.781.341q-.483.142-1.094.27-.611.114-1.222.213l-1.108.156q-1.065.157-1.861.498-.795.34-1.235.923-.441.568-.441 1.42 0 1.236.895 1.89.909.639 2.301.639M476.278 39V9.91h11.478q3.31 0 5.639 1.263 2.33 1.251 3.551 3.48 1.236 2.217 1.236 5.114 0 2.898-1.25 5.114t-3.622 3.451q-2.358 1.236-5.711 1.236h-7.315V24.64h6.321q1.776 0 2.926-.61 1.165-.625 1.733-1.72.582-1.107.583-2.542 0-1.45-.583-2.528-.568-1.095-1.733-1.69-1.164-.611-2.954-.611h-4.148V39zm31.836-12.614V39h-6.051V9.91h5.881V21.03h.256q.738-1.932 2.386-3.025 1.647-1.108 4.133-1.108 2.274 0 3.964.994 1.704.98 2.642 2.827.952 1.832.937 4.389V39h-6.051V26.188q.014-2.018-1.023-3.14-1.023-1.122-2.869-1.122-1.236 0-2.188.526-.937.525-1.477 1.534-.525.995-.54 2.4m28.768 13.04q-3.309 0-5.724-1.406-2.402-1.42-3.708-3.949-1.307-2.543-1.307-5.895 0-3.38 1.307-5.909 1.306-2.542 3.708-3.949 2.415-1.42 5.724-1.42t5.71 1.42q2.415 1.407 3.722 3.949 1.307 2.528 1.307 5.91 0 3.351-1.307 5.894-1.307 2.529-3.722 3.949-2.4 1.406-5.71 1.406m.029-4.687q1.505 0 2.514-.853 1.008-.866 1.52-2.358.525-1.49.525-3.394t-.525-3.395q-.512-1.492-1.52-2.358-1.01-.867-2.514-.867-1.52 0-2.557.867-1.023.866-1.549 2.358-.511 1.491-.511 3.395 0 1.902.511 3.394.526 1.492 1.549 2.358 1.036.853 2.557.853m20.696-8.353V39h-6.052V17.182h5.767v3.85h.256a6.1 6.1 0 0 1 2.429-3.012q1.704-1.122 4.134-1.122 2.273 0 3.963.994t2.628 2.841q.937 1.832.937 4.375V39h-6.051V26.188q.014-2.003-1.023-3.125-1.037-1.137-2.855-1.137-1.221 0-2.159.526-.924.525-1.449 1.534-.511.995-.525 2.4m28.774 13.04q-3.366 0-5.795-1.364-2.415-1.377-3.722-3.892-1.306-2.528-1.306-5.98 0-3.366 1.306-5.909 1.308-2.542 3.679-3.963 2.387-1.42 5.597-1.42 2.159 0 4.02.696a8.9 8.9 0 0 1 3.267 2.06q1.406 1.377 2.187 3.465.782 2.074.782 4.858v1.662h-18.424v-3.75H590.7q0-1.307-.569-2.315a4.06 4.06 0 0 0-1.576-1.577q-.994-.582-2.316-.582-1.377 0-2.443.639-1.051.625-1.648 1.69a4.8 4.8 0 0 0-.61 2.344v3.565q0 1.62.596 2.799.61 1.179 1.719 1.818 1.108.64 2.628.64 1.009 0 1.846-.285a3.8 3.8 0 0 0 1.435-.852q.597-.57.909-1.392l5.597.369a7.65 7.65 0 0 1-1.747 3.523q-1.308 1.49-3.381 2.33-2.06.823-4.759.823M634.048 9.91V39h-5.312L616.08 20.69h-.214V39h-6.15V9.91h5.398l12.556 18.295h.256V9.909zm18.96 19.801V17.182h6.051V39h-5.81v-3.963h-.227a6.44 6.44 0 0 1-2.457 3.082q-1.705 1.165-4.162 1.165-2.188 0-3.85-.994t-2.599-2.827q-.923-1.832-.938-4.39V17.183h6.051v12.812q.015 1.932 1.037 3.054t2.742 1.122a4.35 4.35 0 0 0 2.045-.497q.952-.511 1.534-1.505.597-.994.583-2.458M663.899 39V17.182h5.767v3.85h.256q.681-1.92 2.273-3.026 1.59-1.108 3.806-1.108 2.245 0 3.821 1.122 1.577 1.108 2.103 3.011h.227q.668-1.875 2.415-2.997 1.76-1.136 4.162-1.136 3.054 0 4.957 1.946 1.917 1.932 1.918 5.483V39h-6.037V25.52q0-1.818-.966-2.727-.966-.91-2.415-.91-1.647 0-2.571 1.052-.923 1.036-.923 2.741V39h-5.867V25.392q0-1.605-.923-2.557-.909-.951-2.401-.951-1.008 0-1.818.51-.795.498-1.264 1.407-.468.896-.469 2.102V39zm36.598 0V9.91h6.051v10.937h.185q.398-.882 1.151-1.79.767-.924 1.988-1.534 1.236-.625 3.068-.625 2.387 0 4.404 1.25 2.016 1.236 3.224 3.736 1.208 2.485 1.208 6.235 0 3.651-1.179 6.165-1.166 2.5-3.182 3.793-2.003 1.278-4.489 1.278-1.761 0-2.997-.582-1.221-.583-2.003-1.463-.781-.895-1.193-1.804h-.27V39zm5.923-10.91q0 1.947.54 3.396.54 1.45 1.563 2.258 1.023.795 2.486.796 1.476 0 2.5-.81 1.022-.825 1.548-2.273.54-1.463.54-3.366 0-1.89-.526-3.324-.525-1.434-1.548-2.244t-2.514-.81q-1.478 0-2.5.781-1.01.782-1.549 2.216-.54 1.436-.54 3.38m29.336 11.336q-3.366 0-5.795-1.364-2.415-1.377-3.722-3.892-1.306-2.528-1.306-5.98 0-3.366 1.306-5.909 1.308-2.542 3.679-3.963 2.387-1.42 5.597-1.42 2.159 0 4.02.696a8.9 8.9 0 0 1 3.267 2.06q1.406 1.377 2.187 3.465.782 2.074.782 4.858v1.662h-18.424v-3.75h12.728q0-1.307-.569-2.315a4.06 4.06 0 0 0-1.576-1.577q-.994-.582-2.316-.582-1.378 0-2.443.639-1.051.625-1.648 1.69a4.8 4.8 0 0 0-.61 2.344v3.565q0 1.62.596 2.799.61 1.179 1.719 1.818 1.108.64 2.628.64 1.008 0 1.846-.285a3.8 3.8 0 0 0 1.435-.852q.597-.57.909-1.392l5.597.369a7.65 7.65 0 0 1-1.747 3.523q-1.308 1.49-3.381 2.33-2.06.823-4.759.823M749.719 39V17.182h5.867v3.807h.227q.597-2.032 2.003-3.068 1.407-1.052 3.239-1.052.454 0 .98.057.525.057.923.156v5.37a8 8 0 0 0-1.179-.228q-.753-.099-1.378-.099-1.335 0-2.386.582a4.3 4.3 0 0 0-1.648 1.591q-.596 1.023-.596 2.358V39zM9.666 362.227v-2.318l10.227-16.182h1.682v3.591h-1.136l-7.728 12.227v.182h13.773v2.5zM20.62 367v-23.273h2.682V367zm12.31.182a1.97 1.97 0 0 1-1.443-.602 1.97 1.97 0 0 1-.602-1.444q0-.84.602-1.443a1.97 1.97 0 0 1 1.443-.602q.84 0 1.443.602.602.603.602 1.443 0 .557-.284 1.023a2.1 2.1 0 0 1-.738.75 1.95 1.95 0 0 1-1.023.273m34.456.136q-2.408 0-4.295-.886-1.875-.886-2.977-2.443-1.103-1.557-1.148-3.569h4.773q.08 1.353 1.136 2.194 1.057.84 2.511.841 1.16 0 2.046-.512a3.65 3.65 0 0 0 1.397-1.443q.513-.931.512-2.136 0-1.228-.523-2.159a3.7 3.7 0 0 0-1.42-1.455q-.91-.523-2.08-.534a4.9 4.9 0 0 0-1.989.42q-.954.421-1.488 1.148L59.466 356l1.102-12.273h14.228v4.023H64.625l-.602 5.83h.136q.615-.864 1.852-1.432 1.239-.568 2.773-.568 2.103 0 3.75.988a7.1 7.1 0 0 1 2.602 2.716q.955 1.716.944 3.955.011 2.352-1.091 4.181-1.092 1.819-3.057 2.864-1.954 1.034-4.546 1.034m20.625 0q-2.408 0-4.295-.886-1.875-.886-2.977-2.443-1.103-1.557-1.148-3.569h4.773q.079 1.353 1.136 2.194 1.057.84 2.511.841 1.16 0 2.046-.512a3.65 3.65 0 0 0 1.397-1.443q.513-.931.512-2.136 0-1.228-.523-2.159a3.7 3.7 0 0 0-1.42-1.455q-.91-.523-2.08-.534a4.9 4.9 0 0 0-1.989.42q-.954.421-1.488 1.148L80.09 356l1.102-12.273h14.228v4.023H85.25l-.602 5.83h.136q.615-.864 1.852-1.432 1.239-.568 2.773-.568 2.103 0 3.75.988a7.1 7.1 0 0 1 2.602 2.716q.955 1.716.944 3.955.011 2.352-1.091 4.181-1.092 1.819-3.057 2.864-1.954 1.034-4.546 1.034m20.625 0q-2.41 0-4.295-.886-1.876-.886-2.977-2.443-1.103-1.557-1.148-3.569h4.773q.079 1.353 1.136 2.194 1.058.84 2.511.841 1.16 0 2.046-.512a3.66 3.66 0 0 0 1.398-1.443q.51-.931.511-2.136 0-1.228-.523-2.159a3.7 3.7 0 0 0-1.42-1.455q-.91-.523-2.08-.534-1.023 0-1.988.42-.955.421-1.489 1.148l-4.375-.784 1.102-12.273h14.227v4.023h-10.17l-.602 5.83h.136q.614-.864 1.852-1.432 1.239-.568 2.773-.568 2.103 0 3.75.988a7.1 7.1 0 0 1 2.602 2.716q.955 1.716.944 3.955.01 2.352-1.091 4.181-1.092 1.819-3.057 2.864-1.954 1.034-4.546 1.034m23.046-13.875v3.841h-10.614v-3.841zm12.525 13.875q-2.545 0-4.534-.875-1.977-.886-3.125-2.432-1.135-1.556-1.17-3.591h4.954q.046.853.557 1.5.523.637 1.387.989.863.352 1.943.352 1.125 0 1.988-.397.864-.399 1.353-1.103.488-.704.488-1.625 0-.931-.522-1.647-.512-.728-1.478-1.137-.954-.409-2.272-.409h-2.171v-3.613h2.171q1.113 0 1.965-.387.864-.385 1.341-1.068.478-.693.478-1.614 0-.874-.421-1.534a2.8 2.8 0 0 0-1.159-1.045q-.738-.375-1.727-.375-1 0-1.83.363a3.2 3.2 0 0 0-1.329 1.012 2.65 2.65 0 0 0-.534 1.545h-4.716q.034-2.011 1.147-3.545 1.114-1.534 3-2.398 1.899-.875 4.285-.875 2.409 0 4.215.875 1.808.875 2.807 2.364 1.012 1.478 1 3.318.012 1.954-1.216 3.261-1.215 1.307-3.17 1.659v.182q2.568.33 3.909 1.784 1.353 1.443 1.341 3.614.012 1.989-1.148 3.534-1.148 1.545-3.17 2.432-2.023.886-4.637.886m21.424 0a10.5 10.5 0 0 1-3.466-.602q-1.66-.59-2.977-1.921-1.318-1.329-2.091-3.522-.762-2.193-.762-5.387.012-2.931.671-5.238.67-2.318 1.909-3.932 1.25-1.614 2.988-2.455 1.74-.852 3.898-.852 2.33 0 4.114.909 1.784.898 2.863 2.443a7.4 7.4 0 0 1 1.319 3.466h-4.853q-.284-1.216-1.193-1.909t-2.25-.693q-2.273 0-3.454 1.977-1.17 1.977-1.194 5.375h.159a5.4 5.4 0 0 1 1.41-1.761 6.4 6.4 0 0 1 2.034-1.125 7.3 7.3 0 0 1 2.42-.398q2.068 0 3.682.977a6.93 6.93 0 0 1 2.545 2.66q.932 1.692.932 3.875 0 2.363-1.102 4.204-1.09 1.84-3.057 2.886-1.954 1.035-4.545 1.023m-.023-3.863q1.137 0 2.034-.546a3.9 3.9 0 0 0 1.409-1.477q.511-.932.511-2.091t-.511-2.08a3.85 3.85 0 0 0-1.386-1.466q-.886-.545-2.023-.545-.852 0-1.58.318a4 4 0 0 0-1.261.887 4.26 4.26 0 0 0-1.148 2.897q0 1.125.512 2.057a4.1 4.1 0 0 0 1.409 1.489q.897.557 2.034.557m20.636-20.046q1.796 0 3.455.602a7.96 7.96 0 0 1 2.977 1.921q1.318 1.318 2.08 3.5.772 2.17.784 5.329 0 2.967-.671 5.296-.659 2.318-1.897 3.943-1.239 1.625-2.989 2.477-1.75.841-3.909.841-2.33 0-4.114-.898-1.783-.91-2.875-2.465a7.7 7.7 0 0 1-1.307-3.523h4.853q.284 1.272 1.193 1.977.909.693 2.25.693 2.273 0 3.454-1.977 1.182-1.989 1.194-5.443h-.16a5.6 5.6 0 0 1-1.409 1.761q-.886.728-2.034 1.125a7.3 7.3 0 0 1-2.42.398q-2.057 0-3.671-.966a6.93 6.93 0 0 1-2.545-2.659q-.932-1.693-.932-3.864-.011-2.34 1.08-4.17t3.045-2.864q1.966-1.045 4.568-1.034m.034 3.864q-1.148 0-2.045.545a4 4 0 0 0-1.409 1.466q-.512.92-.5 2.057 0 1.147.5 2.068a4 4 0 0 0 1.386 1.455q.886.534 2.023.534a3.9 3.9 0 0 0 2.841-1.193q.546-.569.852-1.307a4 4 0 0 0 .307-1.568 4.2 4.2 0 0 0-.523-2.023 4 4 0 0 0-1.409-1.477q-.898-.558-2.023-.557m23.591 6.17v3.841h-10.613v-3.841zm14.205-9.716V367h-4.921v-18.602h-.136l-5.329 3.341v-4.364l5.761-3.648zm5.179 19.182v-3.875l9.716-15.307h3.341v5.364h-1.978l-6.125 9.693v.182h13.807v3.943zm11.17 4.091v-5.273l.091-1.716v-16.284h4.614V367zm11.79 0 9.648-19.091v-.159h-11.239v-4.023h16.33v4.08L257.293 367zm26.736.511q-2.932-.01-5.046-1.443-2.102-1.431-3.238-4.148-1.125-2.715-1.114-6.534 0-3.806 1.125-6.488 1.137-2.682 3.239-4.08 2.113-1.409 5.034-1.409t5.023 1.409q2.113 1.41 3.25 4.091 1.135 2.67 1.125 6.477 0 3.83-1.137 6.546-1.125 2.715-3.227 4.148-2.103 1.431-5.034 1.431m0-4.079q2 0 3.193-2.012 1.193-2.01 1.182-6.034 0-2.647-.546-4.409-.534-1.761-1.522-2.647a3.32 3.32 0 0 0-2.307-.887q-1.989 0-3.182 1.989t-1.205 5.954q0 2.682.535 4.478.545 1.784 1.534 2.681a3.36 3.36 0 0 0 2.318.887M18.075 445.318q-2 0-3.602-.795-1.604-.796-2.568-2.182-.966-1.386-1.057-3.159h2.727q.159 1.58 1.432 2.613 1.284 1.023 3.068 1.023 1.431 0 2.545-.67a4.73 4.73 0 0 0 1.762-1.841q.647-1.182.647-2.671 0-1.522-.67-2.716a4.9 4.9 0 0 0-1.818-1.897q-1.159-.693-2.648-.705a7.3 7.3 0 0 0-2.193.33q-1.125.33-1.852.852l-2.637-.318 1.41-11.455h12.09v2.5h-9.727l-.818 6.864h.136q.716-.568 1.796-.943t2.25-.375q2.136 0 3.807 1.022 1.681 1.012 2.636 2.773.966 1.761.966 4.023 0 2.228-1 3.977a7.3 7.3 0 0 1-2.728 2.75q-1.738 1-3.954 1m14.855-.136a1.97 1.97 0 0 1-1.443-.602 1.97 1.97 0 0 1-.602-1.444q0-.84.602-1.443a1.97 1.97 0 0 1 1.443-.602q.84 0 1.443.602.602.603.602 1.443 0 .557-.284 1.023a2.1 2.1 0 0 1-.738.75 1.95 1.95 0 0 1-1.023.273m33.752.136q-2 0-3.602-.795-1.603-.796-2.569-2.182t-1.056-3.159h2.727q.159 1.58 1.432 2.613 1.283 1.023 3.068 1.023 1.431 0 2.545-.67a4.73 4.73 0 0 0 1.762-1.841q.647-1.182.647-2.671 0-1.522-.67-2.716a4.9 4.9 0 0 0-1.818-1.897q-1.16-.693-2.648-.705a7.3 7.3 0 0 0-2.193.33q-1.126.33-1.852.852l-2.637-.318 1.41-11.455h12.09v2.5h-9.727l-.818 6.864h.136q.716-.568 1.795-.943 1.08-.375 2.25-.375 2.137 0 3.807 1.022 1.682 1.012 2.637 2.773.966 1.761.966 4.023 0 2.228-1 3.977a7.3 7.3 0 0 1-2.728 2.75q-1.739 1-3.954 1m19.469 0q-2 0-3.603-.795-1.602-.796-2.568-2.182t-1.057-3.159h2.728q.159 1.58 1.431 2.613 1.285 1.023 3.069 1.023 1.431 0 2.545-.67a4.74 4.74 0 0 0 1.761-1.841q.648-1.182.648-2.671 0-1.522-.67-2.716a4.9 4.9 0 0 0-1.819-1.897q-1.159-.693-2.647-.705a7.3 7.3 0 0 0-2.193.33q-1.125.33-1.853.852l-2.636-.318 1.409-11.455h12.09v2.5H83.06l-.819 6.864h.137q.716-.568 1.795-.943 1.08-.375 2.25-.375 2.137 0 3.807 1.022a7.15 7.15 0 0 1 2.636 2.773q.966 1.761.966 4.023 0 2.228-1 3.977a7.3 7.3 0 0 1-2.727 2.75q-1.739 1-3.954 1m19.468 0q-2 0-3.602-.795-1.602-.796-2.568-2.182t-1.057-3.159h2.727q.16 1.58 1.432 2.613 1.284 1.023 3.068 1.023 1.432 0 2.546-.67a4.73 4.73 0 0 0 1.761-1.841q.648-1.182.648-2.671 0-1.522-.671-2.716a4.9 4.9 0 0 0-1.818-1.897q-1.159-.693-2.647-.705a7.3 7.3 0 0 0-2.194.33q-1.125.33-1.852.852l-2.636-.318 1.409-11.455h12.091v2.5h-9.728l-.818 6.864h.137q.715-.568 1.795-.943a6.8 6.8 0 0 1 2.25-.375q2.136 0 3.807 1.022 1.682 1.012 2.636 2.773.966 1.761.966 4.023 0 2.228-1 3.977a7.3 7.3 0 0 1-2.727 2.75q-1.738 1-3.955 1m22.242-13.204v2.5h-10.182v-2.5zm12.264 13.204q-2.568 0-4.375-1.398-1.807-1.409-2.761-4.079-.955-2.682-.955-6.477 0-3.773.955-6.444.966-2.681 2.772-4.09 1.818-1.42 4.364-1.421 2.546 0 4.352 1.421 1.819 1.409 2.773 4.09.966 2.67.966 6.444 0 3.795-.955 6.477-.954 2.67-2.761 4.079-1.807 1.398-4.375 1.398m0-2.5q2.545 0 3.955-2.454 1.409-2.455 1.409-7 0-3.023-.648-5.148-.636-2.125-1.841-3.239-1.193-1.113-2.875-1.113-2.523 0-3.943 2.488-1.42 2.478-1.421 7.012 0 3.022.637 5.136.636 2.113 1.829 3.216 1.205 1.102 2.898 1.102m20 2.5q-2.568 0-4.375-1.398-1.807-1.409-2.761-4.079-.955-2.682-.955-6.477 0-3.773.955-6.444.966-2.681 2.772-4.09 1.818-1.42 4.364-1.421 2.546 0 4.352 1.421 1.819 1.409 2.773 4.09.966 2.67.966 6.444 0 3.795-.955 6.477-.954 2.67-2.761 4.079-1.807 1.398-4.375 1.398m0-2.5q2.545 0 3.955-2.454 1.409-2.455 1.409-7 0-3.023-.648-5.148-.636-2.125-1.841-3.239-1.193-1.113-2.875-1.113-2.523 0-3.943 2.488-1.42 2.478-1.421 7.012 0 3.022.637 5.136.636 2.113 1.829 3.216 1.205 1.102 2.898 1.102m20 2.5q-2.568 0-4.375-1.398-1.807-1.409-2.761-4.079-.955-2.682-.955-6.477 0-3.773.955-6.444.966-2.681 2.772-4.09 1.818-1.42 4.364-1.421 2.546 0 4.352 1.421 1.819 1.409 2.773 4.09.966 2.67.966 6.444 0 3.795-.955 6.477-.954 2.67-2.761 4.079-1.807 1.398-4.375 1.398m0-2.5q2.545 0 3.955-2.454 1.409-2.455 1.409-7 0-3.023-.648-5.148-.636-2.125-1.841-3.239-1.193-1.113-2.875-1.113-2.523 0-3.943 2.488-1.42 2.478-1.421 7.012 0 3.022.637 5.136.636 2.113 1.829 3.216 1.205 1.102 2.898 1.102m22.455-10.704v2.5h-10.182v-2.5zm12.855-10.387V445h-2.819v-20.318h-.136l-5.682 3.773v-2.864l5.818-3.864zm14.875 0V445h-2.819v-20.318h-.136l-5.682 3.773v-2.864l5.818-3.864zM237.003 445v-2.045l7.682-8.41a53 53 0 0 0 2.227-2.568q.875-1.102 1.295-2.068a5 5 0 0 0 .432-2.045q0-1.228-.591-2.125a3.83 3.83 0 0 0-1.591-1.387q-1.01-.488-2.272-.488-1.341 0-2.341.556a3.83 3.83 0 0 0-1.534 1.535q-.534.988-.534 2.318h-2.682q0-2.046.943-3.591a6.55 6.55 0 0 1 2.568-2.409q1.637-.864 3.671-.864 2.045 0 3.625.864 1.579.863 2.477 2.329t.898 3.262q0 1.284-.466 2.511-.455 1.216-1.591 2.716-1.125 1.488-3.125 3.636l-5.228 5.591v.182h10.819v2.5zm19.375 0v-2.045l7.682-8.41a53 53 0 0 0 2.227-2.568q.875-1.102 1.295-2.068a5 5 0 0 0 .432-2.045q0-1.228-.591-2.125a3.83 3.83 0 0 0-1.591-1.387q-1.01-.488-2.272-.488-1.341 0-2.341.556a3.83 3.83 0 0 0-1.534 1.535q-.534.988-.534 2.318h-2.682q0-2.046.943-3.591a6.55 6.55 0 0 1 2.568-2.409q1.637-.864 3.671-.864 2.045 0 3.625.864 1.579.863 2.477 2.329t.898 3.262q0 1.284-.466 2.511-.455 1.216-1.591 2.716-1.125 1.488-3.125 3.636l-5.228 5.591v.182h10.819v2.5zM18.302 523.318a8.7 8.7 0 0 1-2.863-.545q-1.432-.523-2.614-1.762-1.181-1.25-1.898-3.375-.716-2.136-.716-5.363 0-3.091.58-5.478.58-2.397 1.682-4.034 1.1-1.647 2.659-2.5 1.568-.852 3.534-.852 1.954 0 3.477.784a6.63 6.63 0 0 1 2.5 2.159q.965 1.387 1.25 3.193H23.12q-.386-1.567-1.5-2.602t-2.954-1.034q-2.705 0-4.261 2.352-1.546 2.353-1.557 6.603h.181a6.83 6.83 0 0 1 3.466-2.716 6.8 6.8 0 0 1 2.262-.375q2 0 3.659 1 1.659.989 2.659 2.738 1 1.739 1 3.989 0 2.159-.966 3.955a7.35 7.35 0 0 1-2.716 2.84q-1.739 1.046-4.09 1.023m0-2.5q1.432 0 2.568-.716a5.1 5.1 0 0 0 1.807-1.92q.67-1.205.67-2.682 0-1.443-.647-2.625a4.95 4.95 0 0 0-1.761-1.898q-1.114-.704-2.546-.704-1.08 0-2.011.432a5.2 5.2 0 0 0-1.637 1.159 5.6 5.6 0 0 0-1.09 1.693 5.1 5.1 0 0 0-.398 1.988q0 1.387.648 2.591a5.34 5.34 0 0 0 1.795 1.944q1.148.738 2.602.738m14.628 2.364a1.97 1.97 0 0 1-1.443-.602 1.97 1.97 0 0 1-.602-1.444q0-.84.602-1.443a1.97 1.97 0 0 1 1.443-.602q.84 0 1.443.602.602.603.602 1.443 0 .557-.284 1.023a2.1 2.1 0 0 1-.738.75 1.95 1.95 0 0 1-1.023.273m33.752.136q-2 0-3.602-.795-1.603-.796-2.569-2.182t-1.056-3.159h2.727q.159 1.58 1.432 2.613 1.283 1.023 3.068 1.023 1.431 0 2.545-.67a4.73 4.73 0 0 0 1.762-1.841q.647-1.182.647-2.671 0-1.522-.67-2.716a4.9 4.9 0 0 0-1.818-1.897q-1.16-.693-2.648-.705a7.3 7.3 0 0 0-2.193.33q-1.126.33-1.852.852l-2.637-.318 1.41-11.455h12.09v2.5h-9.727l-.818 6.864h.136q.716-.568 1.795-.943 1.08-.375 2.25-.375 2.137 0 3.807 1.022 1.682 1.012 2.637 2.773.966 1.761.966 4.023 0 2.228-1 3.977a7.3 7.3 0 0 1-2.728 2.75q-1.739 1-3.954 1m19.469 0q-2 0-3.603-.795-1.602-.796-2.568-2.182t-1.057-3.159h2.728q.159 1.58 1.431 2.613 1.285 1.023 3.069 1.023 1.431 0 2.545-.67a4.74 4.74 0 0 0 1.761-1.841q.648-1.182.648-2.671 0-1.522-.67-2.716a4.9 4.9 0 0 0-1.819-1.897q-1.159-.693-2.647-.705a7.3 7.3 0 0 0-2.193.33q-1.125.33-1.853.852l-2.636-.318 1.409-11.455h12.09v2.5H83.06l-.819 6.864h.137q.716-.568 1.795-.943 1.08-.375 2.25-.375 2.137 0 3.807 1.022a7.15 7.15 0 0 1 2.636 2.773q.966 1.761.966 4.023 0 2.228-1 3.977a7.3 7.3 0 0 1-2.727 2.75q-1.739 1-3.954 1m19.468 0q-2 0-3.602-.795-1.602-.796-2.568-2.182t-1.057-3.159h2.727q.16 1.58 1.432 2.613 1.284 1.023 3.068 1.023 1.432 0 2.546-.67a4.73 4.73 0 0 0 1.761-1.841q.648-1.182.648-2.671 0-1.522-.671-2.716a4.9 4.9 0 0 0-1.818-1.897q-1.159-.693-2.647-.705a7.3 7.3 0 0 0-2.194.33q-1.125.33-1.852.852l-2.636-.318 1.409-11.455h12.091v2.5h-9.728l-.818 6.864h.137q.715-.568 1.795-.943a6.8 6.8 0 0 1 2.25-.375q2.136 0 3.807 1.022 1.682 1.012 2.636 2.773.966 1.761.966 4.023 0 2.228-1 3.977a7.3 7.3 0 0 1-2.727 2.75q-1.738 1-3.955 1m22.242-13.204v2.5h-10.182v-2.5zM132.543 523l10.409-20.591v-.182h-12v-2.5h14.909v2.637L135.497 523zm15.133-4.773v-2.318l10.227-16.182h1.682v3.591h-1.136l-7.727 12.227v.182h13.772v2.5zM158.631 523v-23.273h2.681V523zm17.991-23.273V523h-2.818v-20.318h-.136l-5.682 3.773v-2.864l5.818-3.864zm16.739 10.387v2.5h-10.182v-2.5zM196.94 523v-2.045l7.682-8.41a52 52 0 0 0 2.227-2.568q.876-1.102 1.296-2.068a5 5 0 0 0 .432-2.045q0-1.228-.591-2.125a3.84 3.84 0 0 0-1.591-1.387q-1.011-.488-2.273-.488-1.34 0-2.341.556a3.84 3.84 0 0 0-1.534 1.535q-.534.988-.534 2.318h-2.682q0-2.046.943-3.591a6.55 6.55 0 0 1 2.569-2.409q1.636-.864 3.67-.864 2.046 0 3.625.864 1.58.863 2.477 2.329.898 1.467.898 3.262a7 7 0 0 1-.466 2.511q-.454 1.216-1.591 2.716-1.124 1.488-3.125 3.636l-5.227 5.591v.182h10.818v2.5zm26.648.318q-2 0-3.602-.795-1.602-.796-2.568-2.182-.967-1.386-1.057-3.159h2.727q.159 1.58 1.432 2.613 1.284 1.023 3.068 1.023 1.432 0 2.546-.67a4.73 4.73 0 0 0 1.761-1.841q.648-1.182.648-2.671 0-1.522-.671-2.716a4.9 4.9 0 0 0-1.818-1.897q-1.159-.693-2.648-.705a7.3 7.3 0 0 0-2.193.33q-1.125.33-1.852.852l-2.637-.318 1.41-11.455h12.09v2.5h-9.727l-.818 6.864h.136q.716-.568 1.796-.943a6.8 6.8 0 0 1 2.25-.375q2.136 0 3.807 1.022 1.682 1.012 2.636 2.773.966 1.761.966 4.023 0 2.228-1 3.977a7.3 7.3 0 0 1-2.727 2.75q-1.739 1-3.955 1m19.651 0q-2.341 0-4.137-.829-1.783-.841-2.784-2.307-1-1.477-.988-3.364a6.2 6.2 0 0 1 .579-2.727 5.9 5.9 0 0 1 1.614-2.102 4.94 4.94 0 0 1 2.307-1.08v-.136q-1.67-.432-2.66-1.875-.988-1.455-.977-3.307-.01-1.773.898-3.171.909-1.397 2.5-2.204 1.602-.807 3.648-.807 2.023 0 3.613.807 1.591.807 2.5 2.204.921 1.398.932 3.171-.011 1.852-1.011 3.307-.989 1.443-2.625 1.875v.136a4.8 4.8 0 0 1 2.272 1.08 6.1 6.1 0 0 1 1.614 2.102q.602 1.25.614 2.727-.012 1.887-1.023 3.364-1 1.466-2.784 2.307-1.773.83-4.102.829m0-2.5q1.58 0 2.727-.511 1.147-.512 1.773-1.443.624-.933.636-2.182-.012-1.318-.682-2.33-.67-1.01-1.829-1.591-1.149-.579-2.625-.579-1.49 0-2.659.579-1.16.58-1.83 1.591-.659 1.012-.648 2.33-.011 1.25.603 2.182.624.931 1.784 1.443 1.158.511 2.75.511m0-11.045q1.25 0 2.216-.5a3.8 3.8 0 0 0 1.534-1.398q.556-.897.568-2.102-.012-1.182-.557-2.057a3.6 3.6 0 0 0-1.511-1.364q-.966-.488-2.25-.488-1.308 0-2.284.488a3.5 3.5 0 0 0-1.512 1.364q-.534.875-.523 2.057-.01 1.205.535 2.102a3.8 3.8 0 0 0 1.534 1.398q.977.5 2.25.5m19.855 13.545q-2.569 0-4.375-1.398-1.807-1.409-2.762-4.079-.954-2.682-.954-6.477 0-3.773.954-6.444.966-2.681 2.773-4.09 1.818-1.42 4.364-1.421 2.545 0 4.352 1.421 1.818 1.409 2.773 4.09.966 2.67.966 6.444 0 3.795-.955 6.477-.955 2.67-2.761 4.079-1.807 1.398-4.375 1.398m0-2.5q2.546 0 3.954-2.454 1.41-2.455 1.409-7 0-3.023-.647-5.148-.637-2.125-1.841-3.239-1.194-1.113-2.875-1.113-2.523 0-3.943 2.488-1.42 2.478-1.421 7.012 0 3.023.636 5.136.638 2.113 1.83 3.216 1.204 1.102 2.898 1.102"/><path fill="#727272" d="M317.939 121.939a1.5 1.5 0 0 0 0 2.122l9.546 9.546a1.5 1.5 0 0 0 2.122 0 1.5 1.5 0 0 0 0-2.122L321.121 123l8.486-8.485a1.5 1.5 0 0 0 0-2.122 1.5 1.5 0 0 0-2.122 0zM319 123v1.5h80v-3h-80zM317.939 199.939a1.5 1.5 0 0 0 0 2.122l9.546 9.546a1.5 1.5 0 0 0 2.122 0 1.5 1.5 0 0 0 0-2.122L321.121 201l8.486-8.485a1.5 1.5 0 0 0 0-2.122 1.5 1.5 0 0 0-2.122 0zM319 201v1.5h80v-3h-80zM317.939 277.939a1.5 1.5 0 0 0 0 2.122l9.546 9.546a1.5 1.5 0 0 0 2.122 0 1.5 1.5 0 0 0 0-2.122L321.121 279l8.486-8.485a1.5 1.5 0 0 0 0-2.122 1.5 1.5 0 0 0-2.122 0zM319 279v1.5h80v-3h-80z"/><path fill="#096" d="M317.939 355.939a1.5 1.5 0 0 0 0 2.122l9.546 9.546a1.5 1.5 0 0 0 2.122 0 1.5 1.5 0 0 0 0-2.122L321.121 357l8.486-8.485a1.5 1.5 0 0 0 0-2.122 1.5 1.5 0 0 0-2.122 0zM319 357v1.5h80v-3h-80z"/><path stroke="#f55" stroke-linecap="round" stroke-linejoin="round" stroke-width="4" d="m373.5 419.5-29 29M344.5 419.5l29 29M373.5 494.5l-29 29M344.5 494.5l29 29"/></svg>