<svg width="1385" height="774" viewBox="0 0 1385 774" fill="none" xmlns="http://www.w3.org/2000/svg">
<path d="M177.012 607.129C177.259 606.834 177.733 606.918 177.865 607.28L207.426 688.671C207.557 689.033 207.247 689.401 206.868 689.334L121.601 674.24C121.223 674.173 121.058 673.72 121.305 673.426L177.012 607.129Z" fill="#18181B" stroke="white" stroke-width="3"/>
<path d="M123.357 42V10.7273H135.878C138.179 10.7273 140.098 11.0683 141.635 11.7504C143.172 12.4324 144.327 13.3791 145.101 14.5906C145.875 15.7918 146.262 17.1763 146.262 18.744C146.262 19.9656 146.017 21.0395 145.529 21.9659C145.04 22.8821 144.368 23.6354 143.513 24.2259C142.668 24.8061 141.701 25.2184 140.612 25.4627V25.7681C141.803 25.819 142.917 26.1549 143.956 26.7759C145.004 27.3969 145.854 28.2673 146.506 29.3871C147.157 30.4967 147.483 31.8201 147.483 33.3572C147.483 35.0166 147.071 36.4978 146.246 37.8008C145.432 39.0936 144.226 40.1167 142.627 40.87C141.029 41.6233 139.059 42 136.718 42H123.357ZM129.969 36.5945H135.359C137.201 36.5945 138.545 36.2433 139.39 35.5408C140.235 34.8282 140.657 33.8815 140.657 32.7006C140.657 31.8353 140.449 31.0719 140.031 30.4102C139.614 29.7485 139.019 29.2293 138.245 28.8526C137.481 28.476 136.57 28.2876 135.512 28.2876H129.969V36.5945ZM129.969 23.8136H134.87C135.776 23.8136 136.58 23.6558 137.283 23.3402C137.995 23.0144 138.555 22.5563 138.963 21.9659C139.38 21.3755 139.589 20.668 139.589 19.8434C139.589 18.7134 139.186 17.8023 138.382 17.1101C137.588 16.4178 136.458 16.0717 134.992 16.0717H129.969V23.8136ZM158.351 42.4428C156.855 42.4428 155.521 42.1832 154.351 41.6641C153.18 41.1347 152.254 40.3559 151.572 39.3278C150.9 38.2894 150.564 36.9966 150.564 35.4492C150.564 34.1462 150.803 33.0518 151.282 32.1662C151.76 31.2805 152.411 30.5679 153.236 30.0284C154.061 29.4889 154.997 29.0817 156.046 28.8068C157.104 28.532 158.214 28.3385 159.375 28.2266C160.739 28.084 161.838 27.9517 162.673 27.8295C163.508 27.6972 164.113 27.5038 164.49 27.2493C164.867 26.9948 165.055 26.6181 165.055 26.1193V26.0277C165.055 25.0606 164.75 24.3124 164.139 23.783C163.538 23.2537 162.683 22.989 161.573 22.989C160.403 22.989 159.471 23.2486 158.779 23.7678C158.087 24.2768 157.629 24.9181 157.405 25.6918L151.388 25.2031C151.694 23.7779 152.294 22.5462 153.19 21.5078C154.086 20.4593 155.242 19.6551 156.657 19.0952C158.082 18.5251 159.731 18.2401 161.604 18.2401C162.907 18.2401 164.154 18.3928 165.345 18.6982C166.546 19.0036 167.61 19.4769 168.536 20.1183C169.473 20.7596 170.211 21.5842 170.751 22.592C171.29 23.5896 171.56 24.7857 171.56 26.1804V42H165.391V38.7475H165.208C164.831 39.4805 164.327 40.1269 163.696 40.6868C163.065 41.2365 162.306 41.6692 161.421 41.9847C160.535 42.2901 159.512 42.4428 158.351 42.4428ZM160.214 37.9535C161.171 37.9535 162.016 37.7652 162.749 37.3885C163.482 37.0017 164.057 36.4825 164.475 35.831C164.892 35.1795 165.101 34.4414 165.101 33.6168V31.1278C164.897 31.2602 164.617 31.3823 164.261 31.4943C163.915 31.5961 163.523 31.6928 163.085 31.7844C162.647 31.8659 162.21 31.9422 161.772 32.0135C161.334 32.0746 160.937 32.1306 160.581 32.1815C159.817 32.2934 159.151 32.4716 158.581 32.7159C158.01 32.9602 157.568 33.2911 157.252 33.7085C156.936 34.1156 156.779 34.6246 156.779 35.2354C156.779 36.1211 157.099 36.7981 157.741 37.2663C158.392 37.7244 159.217 37.9535 160.214 37.9535ZM187.173 51.2841C185.066 51.2841 183.259 50.994 181.753 50.4137C180.256 49.8436 179.065 49.0649 178.179 48.0774C177.294 47.09 176.719 45.9804 176.454 44.7486L182.47 43.9393C182.653 44.4076 182.944 44.8453 183.341 45.2525C183.738 45.6597 184.262 45.9854 184.913 46.2298C185.575 46.4843 186.379 46.6115 187.326 46.6115C188.741 46.6115 189.907 46.2654 190.823 45.5732C191.749 44.8911 192.212 43.7459 192.212 42.1374V37.8466H191.938C191.653 38.4981 191.225 39.114 190.655 39.6942C190.085 40.2745 189.352 40.7479 188.456 41.1143C187.56 41.4808 186.491 41.6641 185.249 41.6641C183.488 41.6641 181.885 41.2569 180.439 40.4425C179.004 39.6179 177.859 38.3607 177.004 36.6708C176.159 34.9708 175.736 32.8228 175.736 30.2269C175.736 27.57 176.169 25.3507 177.034 23.5692C177.899 21.7878 179.05 20.4542 180.485 19.5685C181.931 18.6829 183.514 18.2401 185.234 18.2401C186.547 18.2401 187.647 18.464 188.532 18.9119C189.418 19.3497 190.131 19.8994 190.67 20.5611C191.22 21.2126 191.642 21.8539 191.938 22.4851H192.182V18.5455H198.641V42.229C198.641 44.2243 198.152 45.8938 197.175 47.2376C196.198 48.5813 194.844 49.5891 193.113 50.261C191.393 50.9431 189.413 51.2841 187.173 51.2841ZM187.311 36.7777C188.359 36.7777 189.245 36.5181 189.968 35.9989C190.701 35.4696 191.261 34.7163 191.647 33.739C192.044 32.7515 192.243 31.5707 192.243 30.1964C192.243 28.8221 192.05 27.631 191.663 26.6232C191.276 25.6052 190.716 24.8163 189.983 24.2564C189.25 23.6965 188.359 23.4165 187.311 23.4165C186.242 23.4165 185.341 23.7067 184.608 24.2869C183.875 24.857 183.32 25.651 182.944 26.669C182.567 27.687 182.379 28.8628 182.379 30.1964C182.379 31.5503 182.567 32.721 182.944 33.7085C183.33 34.6857 183.885 35.4441 184.608 35.9837C185.341 36.513 186.242 36.7777 187.311 36.7777ZM224.367 42.4581C221.995 42.4581 219.944 41.9542 218.213 40.9464C216.493 39.9284 215.164 38.5134 214.228 36.7013C213.291 34.8791 212.823 32.7668 212.823 30.3643C212.823 27.9415 213.291 25.8241 214.228 24.0121C215.164 22.1899 216.493 20.7749 218.213 19.767C219.944 18.7491 221.995 18.2401 224.367 18.2401C226.739 18.2401 228.785 18.7491 230.506 19.767C232.236 20.7749 233.57 22.1899 234.506 24.0121C235.443 25.8241 235.911 27.9415 235.911 30.3643C235.911 32.7668 235.443 34.8791 234.506 36.7013C233.57 38.5134 232.236 39.9284 230.506 40.9464C228.785 41.9542 226.739 42.4581 224.367 42.4581ZM224.398 37.419C225.477 37.419 226.378 37.1136 227.1 36.5028C227.823 35.8819 228.368 35.0369 228.734 33.968C229.111 32.8991 229.299 31.6826 229.299 30.3185C229.299 28.9544 229.111 27.7379 228.734 26.669C228.368 25.6001 227.823 24.7552 227.1 24.1342C226.378 23.5133 225.477 23.2028 224.398 23.2028C223.308 23.2028 222.392 23.5133 221.649 24.1342C220.916 24.7552 220.361 25.6001 219.985 26.669C219.618 27.7379 219.435 28.9544 219.435 30.3185C219.435 31.6826 219.618 32.8991 219.985 33.968C220.361 35.0369 220.916 35.8819 221.649 36.5028C222.392 37.1136 223.308 37.419 224.398 37.419ZM252.754 18.5455V23.4318H238.278V18.5455H252.754ZM241.591 42V16.8505C241.591 15.1504 241.922 13.7405 242.584 12.6207C243.256 11.5009 244.172 10.6611 245.333 10.1012C246.493 9.54131 247.811 9.26136 249.287 9.26136C250.285 9.26136 251.196 9.33771 252.021 9.49041C252.856 9.64311 253.477 9.78054 253.884 9.9027L252.723 14.7891C252.469 14.7076 252.153 14.6313 251.776 14.56C251.41 14.4888 251.033 14.4531 250.646 14.4531C249.69 14.4531 249.023 14.6771 248.646 15.125C248.269 15.5627 248.081 16.1786 248.081 16.9727V42H241.591ZM265.611 16.1786V10.7273H291.295V16.1786H281.721V42H275.185V16.1786H265.611ZM302.598 42.4581C300.227 42.4581 298.175 41.9542 296.445 40.9464C294.724 39.9284 293.396 38.5134 292.459 36.7013C291.523 34.8791 291.054 32.7668 291.054 30.3643C291.054 27.9415 291.523 25.8241 292.459 24.0121C293.396 22.1899 294.724 20.7749 296.445 19.767C298.175 18.7491 300.227 18.2401 302.598 18.2401C304.97 18.2401 307.017 18.7491 308.737 19.767C310.468 20.7749 311.801 22.1899 312.738 24.0121C313.674 25.8241 314.142 27.9415 314.142 30.3643C314.142 32.7668 313.674 34.8791 312.738 36.7013C311.801 38.5134 310.468 39.9284 308.737 40.9464C307.017 41.9542 304.97 42.4581 302.598 42.4581ZM302.629 37.419C303.708 37.419 304.609 37.1136 305.332 36.5028C306.055 35.8819 306.599 35.0369 306.966 33.968C307.342 32.8991 307.531 31.6826 307.531 30.3185C307.531 28.9544 307.342 27.7379 306.966 26.669C306.599 25.6001 306.055 24.7552 305.332 24.1342C304.609 23.5133 303.708 23.2028 302.629 23.2028C301.54 23.2028 300.624 23.5133 299.88 24.1342C299.147 24.7552 298.593 25.6001 298.216 26.669C297.85 27.7379 297.666 28.9544 297.666 30.3185C297.666 31.6826 297.85 32.8991 298.216 33.968C298.593 35.0369 299.147 35.8819 299.88 36.5028C300.624 37.1136 301.54 37.419 302.629 37.419ZM321.632 50.7955C320.808 50.7955 320.034 50.7293 319.311 50.5969C318.599 50.4748 318.008 50.317 317.54 50.1236L319.006 45.2678C319.769 45.5019 320.457 45.6291 321.067 45.6495C321.688 45.6699 322.223 45.5273 322.671 45.2219C323.129 44.9165 323.5 44.3974 323.785 43.6644L324.167 42.6719L315.753 18.5455H322.594L327.45 35.7699H327.695L332.596 18.5455H339.483L330.367 44.5348C329.929 45.7971 329.333 46.8965 328.58 47.8331C327.837 48.7798 326.895 49.5077 325.755 50.0167C324.615 50.5359 323.241 50.7955 321.632 50.7955ZM362.327 25.2337L356.371 25.6001C356.27 25.0911 356.051 24.633 355.715 24.2259C355.379 23.8085 354.936 23.4776 354.386 23.2333C353.847 22.9788 353.2 22.8516 352.447 22.8516C351.439 22.8516 350.589 23.0653 349.897 23.4929C349.205 23.9103 348.859 24.4702 348.859 25.1726C348.859 25.7325 349.083 26.2058 349.53 26.5927C349.978 26.9795 350.747 27.29 351.836 27.5241L356.081 28.3793C358.362 28.8475 360.062 29.6009 361.181 30.6392C362.301 31.6776 362.861 33.0417 362.861 34.7315C362.861 36.2687 362.408 37.6175 361.502 38.7781C360.606 39.9386 359.374 40.8446 357.807 41.4961C356.249 42.1374 354.452 42.4581 352.416 42.4581C349.312 42.4581 346.838 41.8117 344.995 40.5188C343.163 39.2158 342.089 37.4445 341.773 35.2049L348.171 34.869C348.365 35.8157 348.833 36.5385 349.576 37.0373C350.319 37.5259 351.271 37.7702 352.432 37.7702C353.572 37.7702 354.488 37.5514 355.18 37.1136C355.883 36.6657 356.239 36.0906 356.249 35.3881C356.239 34.7977 355.99 34.3142 355.501 33.9375C355.012 33.5507 354.259 33.2554 353.241 33.0518L349.179 32.2425C346.889 31.7844 345.184 30.9904 344.064 29.8604C342.954 28.7305 342.399 27.29 342.399 25.5391C342.399 24.0324 342.807 22.7345 343.621 21.6452C344.446 20.556 345.601 19.7161 347.087 19.1257C348.584 18.5353 350.335 18.2401 352.34 18.2401C355.302 18.2401 357.634 18.8661 359.334 20.1183C361.044 21.3704 362.042 23.0755 362.327 25.2337Z" fill="white"/>
<path d="M149.102 359.091V386H143.412V364.491H143.255L137.092 368.354V363.309L143.754 359.091H149.102ZM173.232 386.394C171.164 386.394 169.386 385.956 167.897 385.08C166.417 384.196 165.278 382.969 164.481 381.401C163.693 379.833 163.298 378.029 163.298 375.988C163.298 373.921 163.697 372.107 164.494 370.548C165.3 368.98 166.443 367.758 167.923 366.882C169.404 365.998 171.164 365.555 173.205 365.555C174.966 365.555 176.508 365.875 177.83 366.515C179.153 367.154 180.2 368.052 180.971 369.208C181.741 370.364 182.166 371.722 182.245 373.281H176.963C176.814 372.274 176.42 371.464 175.781 370.85C175.15 370.229 174.322 369.918 173.297 369.918C172.43 369.918 171.672 370.154 171.024 370.627C170.385 371.091 169.886 371.77 169.526 372.664C169.167 373.557 168.988 374.639 168.988 375.909C168.988 377.197 169.163 378.292 169.513 379.194C169.872 380.096 170.376 380.784 171.024 381.257C171.672 381.73 172.43 381.966 173.297 381.966C173.937 381.966 174.511 381.835 175.019 381.572C175.535 381.309 175.96 380.928 176.293 380.429C176.635 379.921 176.858 379.312 176.963 378.603H182.245C182.158 380.144 181.737 381.502 180.984 382.676C180.239 383.841 179.21 384.752 177.896 385.409C176.582 386.066 175.027 386.394 173.232 386.394ZM185.829 386V365.818H191.426V386H185.829ZM188.641 363.217C187.809 363.217 187.095 362.941 186.499 362.389C185.912 361.828 185.619 361.158 185.619 360.379C185.619 359.608 185.912 358.946 186.499 358.395C187.095 357.834 187.809 357.554 188.641 357.554C189.473 357.554 190.182 357.834 190.769 358.395C191.365 358.946 191.663 359.608 191.663 360.379C191.663 361.158 191.365 361.828 190.769 362.389C190.182 362.941 189.473 363.217 188.641 363.217ZM195.91 386V365.818H201.336V369.339H201.547C201.915 368.087 202.532 367.141 203.399 366.501C204.266 365.853 205.265 365.529 206.395 365.529C206.675 365.529 206.978 365.547 207.302 365.582C207.626 365.617 207.91 365.665 208.156 365.726V370.693C207.893 370.614 207.529 370.544 207.065 370.483C206.601 370.421 206.176 370.391 205.791 370.391C204.967 370.391 204.231 370.57 203.583 370.929C202.944 371.28 202.436 371.77 202.059 372.401C201.691 373.032 201.507 373.759 201.507 374.582V386H195.91ZM219.229 386.394C217.162 386.394 215.383 385.956 213.894 385.08C212.414 384.196 211.275 382.969 210.478 381.401C209.69 379.833 209.295 378.029 209.295 375.988C209.295 373.921 209.694 372.107 210.491 370.548C211.297 368.98 212.44 367.758 213.92 366.882C215.401 365.998 217.162 365.555 219.202 365.555C220.963 365.555 222.505 365.875 223.827 366.515C225.15 367.154 226.197 368.052 226.968 369.208C227.739 370.364 228.163 371.722 228.242 373.281H222.96C222.811 372.274 222.417 371.464 221.778 370.85C221.147 370.229 220.319 369.918 219.294 369.918C218.427 369.918 217.67 370.154 217.021 370.627C216.382 371.091 215.883 371.77 215.523 372.664C215.164 373.557 214.985 374.639 214.985 375.909C214.985 377.197 215.16 378.292 215.51 379.194C215.869 380.096 216.373 380.784 217.021 381.257C217.67 381.73 218.427 381.966 219.294 381.966C219.934 381.966 220.508 381.835 221.016 381.572C221.532 381.309 221.957 380.928 222.29 380.429C222.632 379.921 222.855 379.312 222.96 378.603H228.242C228.155 380.144 227.734 381.502 226.981 382.676C226.236 383.841 225.207 384.752 223.893 385.409C222.579 386.066 221.024 386.394 219.229 386.394ZM237.423 359.091V386H231.826V359.091H237.423ZM251.104 386.394C249.028 386.394 247.242 385.974 245.744 385.133C244.255 384.283 243.107 383.083 242.301 381.533C241.495 379.973 241.092 378.13 241.092 376.001C241.092 373.925 241.495 372.103 242.301 370.535C243.107 368.967 244.241 367.745 245.704 366.869C247.176 365.993 248.901 365.555 250.881 365.555C252.213 365.555 253.452 365.77 254.599 366.199C255.756 366.62 256.763 367.255 257.621 368.104C258.489 368.954 259.163 370.023 259.645 371.31C260.127 372.589 260.368 374.087 260.368 375.804V377.341H243.326V373.873H255.099C255.099 373.067 254.924 372.353 254.573 371.731C254.223 371.109 253.737 370.623 253.115 370.272C252.502 369.913 251.788 369.734 250.973 369.734C250.123 369.734 249.37 369.931 248.713 370.325C248.065 370.71 247.557 371.232 247.189 371.888C246.821 372.537 246.633 373.259 246.624 374.056V377.354C246.624 378.353 246.808 379.216 247.176 379.943C247.552 380.67 248.082 381.23 248.766 381.625C249.449 382.019 250.259 382.216 251.196 382.216C251.818 382.216 252.388 382.128 252.905 381.953C253.421 381.778 253.864 381.515 254.232 381.165C254.599 380.814 254.88 380.385 255.072 379.877L260.249 380.219C259.987 381.463 259.448 382.549 258.633 383.477C257.827 384.397 256.785 385.115 255.506 385.632C254.236 386.14 252.769 386.394 251.104 386.394Z" fill="white"/>
<path d="M48.193 566V561.901L57.7715 553.032C58.5862 552.243 59.2694 551.534 59.8212 550.903C60.3819 550.272 60.8067 549.655 61.0957 549.05C61.3848 548.437 61.5293 547.776 61.5293 547.066C61.5293 546.278 61.3498 545.599 60.9906 545.03C60.6315 544.452 60.141 544.009 59.519 543.703C58.8971 543.387 58.192 543.23 57.4036 543.23C56.5802 543.23 55.862 543.396 55.2488 543.729C54.6356 544.062 54.1626 544.539 53.8298 545.161C53.4969 545.783 53.3305 546.523 53.3305 547.382H47.9303C47.9303 545.621 48.3288 544.093 49.1259 542.796C49.923 541.5 51.0399 540.497 52.4764 539.787C53.913 539.078 55.5685 538.723 57.443 538.723C59.3701 538.723 61.0476 539.065 62.4754 539.748C63.9119 540.422 65.0287 541.36 65.8259 542.56C66.623 543.76 67.0215 545.135 67.0215 546.685C67.0215 547.701 66.8201 548.704 66.4171 549.694C66.0229 550.684 65.3178 551.783 64.3017 552.992C63.2856 554.192 61.8534 555.633 60.0052 557.315L56.0766 561.165V561.349H67.3763V566H48.193ZM90.8495 545.818V550.023H78.6957V545.818H90.8495ZM81.4549 540.983H87.0522V559.798C87.0522 560.315 87.1311 560.718 87.2888 561.007C87.4464 561.287 87.6654 561.484 87.9457 561.598C88.2348 561.712 88.5676 561.769 88.9443 561.769C89.2071 561.769 89.4699 561.747 89.7326 561.703C89.9954 561.651 90.1969 561.612 90.337 561.585L91.2174 565.75C90.9371 565.838 90.5429 565.939 90.0348 566.053C89.5268 566.175 88.9093 566.25 88.1822 566.276C86.8333 566.328 85.6507 566.149 84.6346 565.737C83.6273 565.326 82.8433 564.686 82.2827 563.819C81.7221 562.952 81.4462 561.857 81.4549 560.534V540.983ZM94.4956 566V545.818H99.9221V549.339H100.132C100.5 548.087 101.118 547.141 101.985 546.501C102.852 545.853 103.851 545.529 104.981 545.529C105.261 545.529 105.563 545.547 105.887 545.582C106.211 545.617 106.496 545.665 106.741 545.726V550.693C106.479 550.614 106.115 550.544 105.651 550.483C105.187 550.421 104.762 550.391 104.376 550.391C103.553 550.391 102.817 550.57 102.169 550.929C101.529 551.28 101.021 551.77 100.645 552.401C100.277 553.032 100.093 553.759 100.093 554.582V566H94.4956ZM109.635 566V545.818H115.233V566H109.635ZM112.447 543.217C111.615 543.217 110.901 542.941 110.305 542.389C109.718 541.828 109.425 541.158 109.425 540.379C109.425 539.608 109.718 538.946 110.305 538.395C110.901 537.834 111.615 537.554 112.447 537.554C113.279 537.554 113.989 537.834 114.576 538.395C115.171 538.946 115.469 539.608 115.469 540.379C115.469 541.158 115.171 541.828 114.576 542.389C113.989 542.941 113.279 543.217 112.447 543.217ZM125.471 566.381C124.184 566.381 123.036 566.158 122.029 565.711C121.021 565.255 120.224 564.585 119.637 563.701C119.059 562.807 118.77 561.695 118.77 560.363C118.77 559.242 118.976 558.3 119.388 557.538C119.8 556.776 120.36 556.163 121.07 555.699C121.779 555.235 122.585 554.884 123.487 554.648C124.398 554.411 125.353 554.245 126.352 554.148C127.525 554.026 128.471 553.912 129.19 553.807C129.908 553.693 130.429 553.527 130.753 553.308C131.077 553.089 131.239 552.764 131.239 552.335V552.256C131.239 551.424 130.977 550.78 130.451 550.325C129.934 549.869 129.198 549.642 128.244 549.642C127.236 549.642 126.435 549.865 125.839 550.312C125.244 550.75 124.849 551.302 124.657 551.967L119.48 551.547C119.743 550.321 120.259 549.261 121.03 548.367C121.801 547.465 122.795 546.773 124.013 546.291C125.239 545.801 126.658 545.555 128.27 545.555C129.391 545.555 130.464 545.687 131.489 545.95C132.523 546.212 133.438 546.62 134.235 547.172C135.041 547.723 135.676 548.433 136.14 549.3C136.605 550.158 136.837 551.188 136.837 552.388V566H131.528V563.201H131.371C131.047 563.832 130.613 564.388 130.07 564.87C129.527 565.343 128.874 565.715 128.112 565.987C127.35 566.25 126.47 566.381 125.471 566.381ZM127.074 562.518C127.898 562.518 128.625 562.356 129.255 562.032C129.886 561.699 130.381 561.252 130.74 560.692C131.099 560.131 131.279 559.496 131.279 558.787V556.645C131.104 556.759 130.863 556.864 130.556 556.96C130.258 557.048 129.921 557.131 129.544 557.21C129.168 557.28 128.791 557.346 128.414 557.407C128.038 557.46 127.696 557.508 127.39 557.551C126.733 557.648 126.159 557.801 125.668 558.011C125.178 558.222 124.797 558.506 124.525 558.865C124.254 559.216 124.118 559.654 124.118 560.179C124.118 560.941 124.394 561.524 124.946 561.927C125.506 562.321 126.216 562.518 127.074 562.518ZM146.776 554.332V566H141.179V545.818H146.514V549.379H146.75C147.197 548.205 147.946 547.277 148.997 546.593C150.048 545.901 151.323 545.555 152.821 545.555C154.222 545.555 155.444 545.862 156.486 546.475C157.529 547.088 158.339 547.964 158.917 549.103C159.495 550.233 159.784 551.582 159.784 553.15V566H154.187V554.148C154.196 552.913 153.88 551.95 153.241 551.258C152.602 550.557 151.721 550.207 150.6 550.207C149.847 550.207 149.181 550.369 148.603 550.693C148.033 551.017 147.587 551.49 147.263 552.112C146.947 552.725 146.785 553.465 146.776 554.332ZM173.288 573.989C171.475 573.989 169.92 573.739 168.624 573.24C167.336 572.749 166.311 572.079 165.549 571.229C164.787 570.38 164.292 569.425 164.064 568.365L169.241 567.669C169.399 568.072 169.649 568.448 169.99 568.799C170.332 569.149 170.783 569.429 171.344 569.64C171.913 569.859 172.605 569.968 173.42 569.968C174.637 569.968 175.64 569.67 176.428 569.075C177.226 568.488 177.624 567.502 177.624 566.118V562.426H177.388C177.142 562.987 176.774 563.517 176.284 564.016C175.793 564.515 175.163 564.923 174.392 565.238C173.621 565.553 172.701 565.711 171.633 565.711C170.117 565.711 168.738 565.361 167.494 564.66C166.259 563.95 165.273 562.868 164.537 561.414C163.81 559.952 163.447 558.103 163.447 555.87C163.447 553.583 163.819 551.674 164.564 550.141C165.308 548.608 166.298 547.461 167.533 546.699C168.777 545.936 170.139 545.555 171.619 545.555C172.749 545.555 173.695 545.748 174.458 546.134C175.22 546.51 175.833 546.983 176.297 547.553C176.77 548.113 177.134 548.665 177.388 549.208H177.598V545.818H183.156V566.197C183.156 567.914 182.735 569.35 181.894 570.507C181.053 571.663 179.888 572.53 178.399 573.108C176.919 573.695 175.215 573.989 173.288 573.989ZM173.406 561.506C174.309 561.506 175.071 561.283 175.693 560.836C176.323 560.381 176.805 559.733 177.138 558.892C177.48 558.042 177.65 557.026 177.65 555.843C177.65 554.661 177.484 553.636 177.151 552.769C176.818 551.893 176.336 551.214 175.706 550.732C175.075 550.25 174.309 550.01 173.406 550.01C172.487 550.01 171.711 550.259 171.081 550.759C170.45 551.249 169.973 551.932 169.649 552.808C169.324 553.684 169.162 554.696 169.162 555.843C169.162 557.008 169.324 558.016 169.649 558.865C169.981 559.706 170.459 560.359 171.081 560.823C171.711 561.279 172.487 561.506 173.406 561.506ZM193.207 539.091V566H187.61V539.091H193.207ZM206.888 566.394C204.812 566.394 203.025 565.974 201.528 565.133C200.038 564.283 198.891 563.083 198.085 561.533C197.279 559.973 196.876 558.13 196.876 556.001C196.876 553.925 197.279 552.103 198.085 550.535C198.891 548.967 200.025 547.745 201.488 546.869C202.96 545.993 204.685 545.555 206.665 545.555C207.996 545.555 209.236 545.77 210.383 546.199C211.54 546.62 212.547 547.255 213.405 548.104C214.273 548.954 214.947 550.023 215.429 551.31C215.911 552.589 216.151 554.087 216.151 555.804V557.341H199.11V553.873H210.883C210.883 553.067 210.707 552.353 210.357 551.731C210.007 551.109 209.521 550.623 208.899 550.272C208.285 549.913 207.572 549.734 206.757 549.734C205.907 549.734 205.154 549.931 204.497 550.325C203.849 550.71 203.341 551.232 202.973 551.888C202.605 552.537 202.417 553.259 202.408 554.056V557.354C202.408 558.353 202.592 559.216 202.96 559.943C203.336 560.67 203.866 561.23 204.55 561.625C205.233 562.019 206.043 562.216 206.98 562.216C207.602 562.216 208.172 562.128 208.688 561.953C209.205 561.778 209.648 561.515 210.015 561.165C210.383 560.814 210.664 560.385 210.856 559.877L216.033 560.219C215.77 561.463 215.232 562.549 214.417 563.477C213.611 564.397 212.569 565.115 211.29 565.632C210.02 566.14 208.553 566.394 206.888 566.394ZM236.596 551.573L231.472 551.888C231.384 551.451 231.196 551.056 230.907 550.706C230.618 550.347 230.237 550.062 229.764 549.852C229.299 549.633 228.743 549.523 228.095 549.523C227.228 549.523 226.496 549.707 225.901 550.075C225.305 550.434 225.007 550.916 225.007 551.521C225.007 552.002 225.2 552.41 225.585 552.743C225.971 553.075 226.632 553.343 227.569 553.544L231.222 554.28C233.184 554.683 234.647 555.331 235.611 556.224C236.574 557.118 237.056 558.292 237.056 559.746C237.056 561.068 236.666 562.229 235.887 563.228C235.116 564.226 234.056 565.006 232.707 565.566C231.367 566.118 229.821 566.394 228.069 566.394C225.397 566.394 223.269 565.838 221.683 564.725C220.106 563.604 219.182 562.08 218.911 560.153L224.416 559.864C224.582 560.679 224.985 561.301 225.625 561.73C226.264 562.15 227.083 562.36 228.082 562.36C229.063 562.36 229.851 562.172 230.447 561.795C231.051 561.41 231.358 560.915 231.367 560.311C231.358 559.803 231.143 559.387 230.723 559.062C230.302 558.73 229.654 558.476 228.778 558.3L225.283 557.604C223.312 557.21 221.845 556.527 220.882 555.554C219.927 554.582 219.449 553.343 219.449 551.836C219.449 550.54 219.8 549.423 220.501 548.485C221.21 547.548 222.204 546.826 223.483 546.317C224.771 545.809 226.277 545.555 228.003 545.555C230.552 545.555 232.558 546.094 234.021 547.172C235.492 548.249 236.351 549.716 236.596 551.573Z" fill="white"/>
<path d="M273.563 539.091V566H267.874V544.491H267.716L261.554 548.354V543.309L268.216 539.091H273.563ZM305.367 551.573L300.243 551.888C300.155 551.451 299.967 551.056 299.678 550.706C299.389 550.347 299.008 550.062 298.534 549.852C298.07 549.633 297.514 549.523 296.866 549.523C295.999 549.523 295.267 549.707 294.672 550.075C294.076 550.434 293.778 550.916 293.778 551.521C293.778 552.002 293.971 552.41 294.356 552.743C294.742 553.075 295.403 553.343 296.34 553.544L299.993 554.28C301.955 554.683 303.418 555.331 304.381 556.224C305.345 557.118 305.827 558.292 305.827 559.746C305.827 561.068 305.437 562.229 304.657 563.228C303.887 564.226 302.827 565.006 301.478 565.566C300.137 566.118 298.591 566.394 296.84 566.394C294.168 566.394 292.039 565.838 290.454 564.725C288.877 563.604 287.953 562.08 287.682 560.153L293.187 559.864C293.353 560.679 293.756 561.301 294.396 561.73C295.035 562.15 295.854 562.36 296.853 562.36C297.834 562.36 298.622 562.172 299.218 561.795C299.822 561.41 300.129 560.915 300.137 560.311C300.129 559.803 299.914 559.387 299.494 559.062C299.073 558.73 298.425 558.476 297.549 558.3L294.054 557.604C292.083 557.21 290.616 556.527 289.652 555.554C288.698 554.582 288.22 553.343 288.22 551.836C288.22 550.54 288.571 549.423 289.271 548.485C289.981 547.548 290.975 546.826 292.254 546.317C293.542 545.809 295.048 545.555 296.774 545.555C299.323 545.555 301.329 546.094 302.792 547.172C304.263 548.249 305.122 549.716 305.367 551.573ZM322.688 573.568V562.768H322.517C322.254 563.328 321.882 563.885 321.4 564.436C320.927 564.98 320.309 565.431 319.547 565.79C318.794 566.149 317.874 566.328 316.788 566.328C315.255 566.328 313.867 565.934 312.623 565.146C311.388 564.349 310.407 563.179 309.68 561.638C308.962 560.087 308.602 558.187 308.602 555.935C308.602 553.623 308.975 551.7 309.719 550.167C310.464 548.626 311.454 547.474 312.689 546.712C313.933 545.941 315.295 545.555 316.775 545.555C317.905 545.555 318.847 545.748 319.6 546.134C320.362 546.51 320.975 546.983 321.439 547.553C321.912 548.113 322.272 548.665 322.517 549.208H322.753V545.818H328.272V573.568H322.688ZM318.562 561.874C319.464 561.874 320.226 561.629 320.848 561.138C321.479 560.639 321.961 559.943 322.293 559.049C322.635 558.156 322.806 557.109 322.806 555.909C322.806 554.709 322.639 553.667 322.307 552.782C321.974 551.897 321.492 551.214 320.861 550.732C320.231 550.25 319.464 550.01 318.562 550.01C317.642 550.01 316.867 550.259 316.236 550.759C315.606 551.258 315.128 551.95 314.804 552.835C314.48 553.719 314.318 554.744 314.318 555.909C314.318 557.083 314.48 558.121 314.804 559.023C315.137 559.917 315.614 560.617 316.236 561.125C316.867 561.625 317.642 561.874 318.562 561.874ZM345.708 557.407V545.818H351.305V566H345.931V562.334H345.721C345.265 563.517 344.507 564.467 343.448 565.185C342.396 565.904 341.113 566.263 339.598 566.263C338.249 566.263 337.062 565.956 336.037 565.343C335.012 564.73 334.211 563.858 333.633 562.728C333.063 561.598 332.774 560.245 332.765 558.668V545.818H338.363V557.67C338.371 558.861 338.691 559.803 339.322 560.495C339.953 561.187 340.798 561.533 341.858 561.533C342.532 561.533 343.163 561.379 343.75 561.073C344.337 560.757 344.81 560.293 345.169 559.68C345.537 559.067 345.716 558.309 345.708 557.407ZM361.537 566.381C360.249 566.381 359.102 566.158 358.095 565.711C357.087 565.255 356.29 564.585 355.703 563.701C355.125 562.807 354.836 561.695 354.836 560.363C354.836 559.242 355.042 558.3 355.454 557.538C355.865 556.776 356.426 556.163 357.135 555.699C357.845 555.235 358.651 554.884 359.553 554.648C360.464 554.411 361.419 554.245 362.417 554.148C363.591 554.026 364.537 553.912 365.255 553.807C365.974 553.693 366.495 553.527 366.819 553.308C367.143 553.089 367.305 552.764 367.305 552.335V552.256C367.305 551.424 367.042 550.78 366.517 550.325C366 549.869 365.264 549.642 364.309 549.642C363.302 549.642 362.501 549.865 361.905 550.312C361.309 550.75 360.915 551.302 360.722 551.967L355.545 551.547C355.808 550.321 356.325 549.261 357.096 548.367C357.867 547.465 358.861 546.773 360.079 546.291C361.305 545.801 362.724 545.555 364.336 545.555C365.457 545.555 366.53 545.687 367.555 545.95C368.588 546.212 369.504 546.62 370.301 547.172C371.107 547.723 371.742 548.433 372.206 549.3C372.67 550.158 372.902 551.188 372.902 552.388V566H367.594V563.201H367.436C367.112 563.832 366.679 564.388 366.136 564.87C365.593 565.343 364.94 565.715 364.178 565.987C363.416 566.25 362.536 566.381 361.537 566.381ZM363.14 562.518C363.963 562.518 364.69 562.356 365.321 562.032C365.952 561.699 366.447 561.252 366.806 560.692C367.165 560.131 367.345 559.496 367.345 558.787V556.645C367.169 556.759 366.928 556.864 366.622 556.96C366.324 557.048 365.987 557.131 365.61 557.21C365.233 557.28 364.857 557.346 364.48 557.407C364.104 557.46 363.762 557.508 363.455 557.551C362.798 557.648 362.225 557.801 361.734 558.011C361.244 558.222 360.862 558.506 360.591 558.865C360.319 559.216 360.184 559.654 360.184 560.179C360.184 560.941 360.46 561.524 361.011 561.927C361.572 562.321 362.282 562.518 363.14 562.518ZM377.245 566V545.818H382.671V549.339H382.882C383.25 548.087 383.867 547.141 384.734 546.501C385.601 545.853 386.6 545.529 387.73 545.529C388.01 545.529 388.312 545.547 388.637 545.582C388.961 545.617 389.245 545.665 389.491 545.726V550.693C389.228 550.614 388.864 550.544 388.4 550.483C387.936 550.421 387.511 550.391 387.126 550.391C386.302 550.391 385.566 550.57 384.918 550.929C384.279 551.28 383.771 551.77 383.394 552.401C383.026 553.032 382.842 553.759 382.842 554.582V566H377.245ZM400.643 566.394C398.567 566.394 396.78 565.974 395.282 565.133C393.793 564.283 392.645 563.083 391.839 561.533C391.033 559.973 390.63 558.13 390.63 556.001C390.63 553.925 391.033 552.103 391.839 550.535C392.645 548.967 393.779 547.745 395.242 546.869C396.714 545.993 398.44 545.555 400.419 545.555C401.751 545.555 402.99 545.77 404.138 546.199C405.294 546.62 406.301 547.255 407.16 548.104C408.027 548.954 408.701 550.023 409.183 551.31C409.665 552.589 409.906 554.087 409.906 555.804V557.341H392.864V553.873H404.637C404.637 553.067 404.462 552.353 404.111 551.731C403.761 551.109 403.275 550.623 402.653 550.272C402.04 549.913 401.326 549.734 400.511 549.734C399.661 549.734 398.908 549.931 398.251 550.325C397.603 550.71 397.095 551.232 396.727 551.888C396.359 552.537 396.171 553.259 396.162 554.056V557.354C396.162 558.353 396.346 559.216 396.714 559.943C397.091 560.67 397.621 561.23 398.304 561.625C398.987 562.019 399.797 562.216 400.735 562.216C401.356 562.216 401.926 562.128 402.443 561.953C402.959 561.778 403.402 561.515 403.77 561.165C404.138 560.814 404.418 560.385 404.611 559.877L409.787 560.219C409.525 561.463 408.986 562.549 408.171 563.477C407.365 564.397 406.323 565.115 405.044 565.632C403.774 566.14 402.307 566.394 400.643 566.394Z" fill="white"/>
<path d="M293.463 387.86V414.769H287.774V393.26H287.616L281.454 397.123V392.078L288.115 387.86H293.463ZM325.266 400.342L320.142 400.658C320.054 400.22 319.866 399.825 319.577 399.475C319.288 399.116 318.907 398.831 318.434 398.621C317.97 398.402 317.413 398.292 316.765 398.292C315.898 398.292 315.167 398.476 314.571 398.844C313.975 399.203 313.678 399.685 313.678 400.29C313.678 400.771 313.87 401.179 314.256 401.512C314.641 401.844 315.302 402.112 316.24 402.313L319.892 403.049C321.854 403.452 323.317 404.1 324.281 404.993C325.244 405.887 325.726 407.061 325.726 408.515C325.726 409.837 325.336 410.998 324.557 411.997C323.786 412.995 322.726 413.775 321.377 414.335C320.037 414.887 318.491 415.163 316.739 415.163C314.067 415.163 311.939 414.607 310.353 413.495C308.777 412.373 307.852 410.849 307.581 408.922L313.086 408.633C313.253 409.448 313.656 410.07 314.295 410.499C314.934 410.919 315.754 411.129 316.752 411.129C317.733 411.129 318.521 410.941 319.117 410.564C319.722 410.179 320.028 409.684 320.037 409.08C320.028 408.572 319.814 408.156 319.393 407.832C318.973 407.499 318.324 407.245 317.448 407.069L313.953 406.373C311.983 405.979 310.515 405.296 309.552 404.323C308.597 403.351 308.12 402.112 308.12 400.605C308.12 399.309 308.47 398.192 309.171 397.254C309.88 396.317 310.874 395.595 312.153 395.087C313.441 394.578 314.948 394.324 316.673 394.324C319.222 394.324 321.228 394.863 322.691 395.941C324.163 397.018 325.021 398.485 325.266 400.342ZM339.985 394.587V398.792H327.832V394.587H339.985ZM330.591 389.752H336.188V408.567C336.188 409.084 336.267 409.487 336.425 409.776C336.582 410.056 336.801 410.254 337.082 410.367C337.371 410.481 337.704 410.538 338.08 410.538C338.343 410.538 338.606 410.516 338.869 410.473C339.131 410.42 339.333 410.381 339.473 410.354L340.353 414.519C340.073 414.607 339.679 414.708 339.171 414.822C338.663 414.944 338.045 415.019 337.318 415.045C335.969 415.098 334.787 414.918 333.771 414.506C332.763 414.095 331.979 413.455 331.419 412.588C330.858 411.721 330.582 410.626 330.591 409.303V389.752ZM349.387 415.15C348.099 415.15 346.951 414.927 345.944 414.48C344.937 414.024 344.14 413.354 343.553 412.47C342.975 411.576 342.686 410.464 342.686 409.132C342.686 408.011 342.891 407.069 343.303 406.307C343.715 405.545 344.275 404.932 344.985 404.468C345.694 404.004 346.5 403.653 347.403 403.417C348.314 403.18 349.268 403.014 350.267 402.917C351.441 402.795 352.387 402.681 353.105 402.576C353.823 402.462 354.344 402.296 354.669 402.077C354.993 401.858 355.155 401.533 355.155 401.104V401.025C355.155 400.193 354.892 399.549 354.366 399.094C353.85 398.638 353.114 398.411 352.159 398.411C351.152 398.411 350.35 398.634 349.754 399.081C349.159 399.519 348.765 400.071 348.572 400.736L343.395 400.316C343.658 399.09 344.175 398.03 344.946 397.136C345.716 396.234 346.711 395.542 347.928 395.06C349.154 394.57 350.573 394.324 352.185 394.324C353.306 394.324 354.379 394.456 355.404 394.719C356.438 394.981 357.353 395.389 358.15 395.941C358.956 396.492 359.591 397.202 360.056 398.069C360.52 398.928 360.752 399.957 360.752 401.157V414.769H355.444V411.97H355.286C354.962 412.601 354.528 413.157 353.985 413.639C353.442 414.112 352.79 414.484 352.028 414.756C351.265 415.019 350.385 415.15 349.387 415.15ZM350.99 411.287C351.813 411.287 352.54 411.125 353.171 410.801C353.801 410.468 354.296 410.021 354.655 409.461C355.015 408.9 355.194 408.265 355.194 407.556V405.414C355.019 405.528 354.778 405.633 354.471 405.729C354.174 405.817 353.836 405.9 353.46 405.979C353.083 406.049 352.706 406.115 352.33 406.176C351.953 406.229 351.611 406.277 351.305 406.321C350.648 406.417 350.074 406.57 349.584 406.78C349.093 406.991 348.712 407.275 348.441 407.634C348.169 407.985 348.033 408.423 348.033 408.948C348.033 409.71 348.309 410.293 348.861 410.696C349.422 411.09 350.131 411.287 350.99 411.287ZM365.095 414.769V394.587H370.521V398.109H370.731C371.099 396.856 371.717 395.91 372.584 395.27C373.451 394.622 374.45 394.298 375.58 394.298C375.86 394.298 376.162 394.316 376.486 394.351C376.81 394.386 377.095 394.434 377.34 394.495V399.462C377.077 399.383 376.714 399.313 376.25 399.252C375.785 399.19 375.361 399.16 374.975 399.16C374.152 399.16 373.416 399.339 372.768 399.698C372.128 400.049 371.62 400.539 371.244 401.17C370.876 401.801 370.692 402.528 370.692 403.351V414.769H365.095Z" fill="white"/>
<path d="M272.71 248.149C314.323 281.015 359.836 335.06 395.002 391.15C412.653 419.303 427.668 447.924 438.265 474.581C448.872 501.266 455 525.857 455 545.988C455 653.969 365.539 771.865 236.503 771.865C172.099 771.864 120.505 738.06 84.9453 692.812C49.3585 647.529 30 590.987 30 545.988C30 527.344 35.7234 503.686 45.6709 477.505C55.6059 451.357 69.7014 422.83 86.3174 394.49C119.41 338.048 162.393 282.539 202.191 248.149H272.71Z" stroke="white" stroke-width="4"/>
<path d="M179.303 244.861L239.271 244.861L295.547 244.861" stroke="white" stroke-width="12" stroke-linecap="round"/>
<path d="M267.872 253.529C267.872 253.529 268.226 267.782 277.097 283.974C285.077 298.54 293.703 307.039 293.703 307.039" stroke="white" stroke-width="10" stroke-linecap="round"/>
<path d="M246.651 253.53C246.651 253.53 242.851 273.108 242.038 285.82C241.371 296.247 242.039 312.575 242.039 312.575" stroke="white" stroke-width="8" stroke-linecap="round"/>
<path d="M327.839 123.445C321.979 113.297 152.548 116.56 150.703 123.445C148.858 130.329 214.366 247.995 214.366 247.995H239.269H267.869C267.869 247.995 333.698 133.594 327.839 123.445Z" stroke="white" stroke-width="4"/>
<path d="M198.5 418.5C221.127 418.5 239.5 437.064 239.5 460C239.5 482.936 221.127 501.5 198.5 501.5C175.873 501.5 157.5 482.936 157.5 460C157.5 437.064 175.873 418.5 198.5 418.5Z" stroke="white" stroke-width="3"/>
<path d="M123.387 597.881C123.448 597.501 123.898 597.33 124.197 597.573L191.355 652.237C191.653 652.481 191.576 652.956 191.217 653.093L110.298 683.921C109.938 684.058 109.565 683.754 109.625 683.374L123.387 597.881Z" fill="#18181B" stroke="white" stroke-width="3"/>
<path d="M350.19 467.982C350.258 469.063 351.016 469.977 352.065 470.246L383.23 478.225L353.327 490.088C352.32 490.487 351.685 491.49 351.754 492.571L353.795 524.677L333.272 499.903L333.137 499.752C332.484 499.082 331.51 498.833 330.616 499.107L330.425 499.174L300.522 511.036L317.74 483.863C318.32 482.948 318.245 481.763 317.554 480.929L297.031 456.155L328.197 464.135C329.246 464.403 330.349 463.966 330.929 463.051L348.148 435.876L350.19 467.982Z" stroke="white" stroke-width="3"/>
<rect x="275.713" y="593.775" width="71.6847" height="71.6847" rx="3.5" transform="rotate(-8.87647 275.713 593.775)" stroke="white" stroke-width="3"/>
<path d="M696.784 247.676H690.096C689.974 246.81 689.724 246.042 689.347 245.37C688.971 244.688 688.487 244.108 687.897 243.629C687.306 243.151 686.624 242.784 685.851 242.53C685.087 242.275 684.257 242.148 683.362 242.148C681.743 242.148 680.333 242.55 679.132 243.354C677.931 244.148 676.999 245.309 676.337 246.836C675.676 248.353 675.345 250.195 675.345 252.364C675.345 254.593 675.676 256.466 676.337 257.983C677.009 259.5 677.946 260.645 679.147 261.419C680.348 262.192 681.738 262.579 683.316 262.579C684.201 262.579 685.021 262.462 685.774 262.228C686.538 261.994 687.215 261.653 687.805 261.205C688.396 260.747 688.884 260.192 689.271 259.54C689.668 258.889 689.943 258.146 690.096 257.311L696.784 257.342C696.611 258.777 696.178 260.161 695.486 261.495C694.804 262.818 693.883 264.004 692.722 265.053C691.572 266.091 690.197 266.916 688.599 267.527C687.011 268.127 685.214 268.428 683.209 268.428C680.42 268.428 677.926 267.796 675.727 266.534C673.538 265.272 671.807 263.444 670.535 261.052C669.273 258.66 668.641 255.764 668.641 252.364C668.641 248.953 669.283 246.052 670.565 243.66C671.848 241.268 673.589 239.445 675.788 238.193C677.987 236.931 680.46 236.3 683.209 236.3C685.021 236.3 686.701 236.554 688.248 237.063C689.806 237.572 691.185 238.315 692.386 239.293C693.587 240.26 694.565 241.446 695.318 242.85C696.081 244.255 696.57 245.864 696.784 247.676ZM707.908 254.44V268H701.403V236.727H707.725V248.684H708C708.529 247.299 709.384 246.215 710.565 245.431C711.746 244.637 713.227 244.24 715.008 244.24C716.637 244.24 718.057 244.596 719.269 245.309C720.49 246.011 721.437 247.024 722.109 248.348C722.791 249.661 723.127 251.234 723.117 253.066V268H716.612V254.227C716.622 252.781 716.256 251.656 715.512 250.852C714.779 250.048 713.751 249.646 712.428 249.646C711.542 249.646 710.758 249.834 710.076 250.211C709.404 250.587 708.875 251.137 708.488 251.86C708.112 252.572 707.918 253.433 707.908 254.44ZM728.236 268V244.545H734.741V268H728.236ZM731.504 241.522C730.537 241.522 729.707 241.201 729.015 240.56C728.333 239.908 727.992 239.13 727.992 238.224C727.992 237.328 728.333 236.559 729.015 235.918C729.707 235.266 730.537 234.941 731.504 234.941C732.471 234.941 733.295 235.266 733.977 235.918C734.67 236.559 735.016 237.328 735.016 238.224C735.016 239.13 734.67 239.908 733.977 240.56C733.295 241.201 732.471 241.522 731.504 241.522ZM746.457 236.727V268H739.952V236.727H746.457ZM760.31 268.382C758.529 268.382 756.915 267.924 755.47 267.007C754.034 266.081 752.894 264.722 752.049 262.93C751.215 261.129 750.797 258.92 750.797 256.303C750.797 253.616 751.23 251.381 752.095 249.6C752.961 247.808 754.111 246.469 755.546 245.584C756.992 244.688 758.575 244.24 760.295 244.24C761.608 244.24 762.703 244.464 763.578 244.912C764.464 245.35 765.176 245.899 765.716 246.561C766.266 247.213 766.683 247.854 766.968 248.485H767.167V236.727H773.656V268H767.243V264.244H766.968C766.663 264.895 766.23 265.542 765.67 266.183C765.12 266.814 764.403 267.338 763.517 267.756C762.642 268.173 761.573 268.382 760.31 268.382ZM762.372 263.205C763.42 263.205 764.306 262.92 765.029 262.35C765.762 261.77 766.322 260.961 766.708 259.922C767.106 258.884 767.304 257.667 767.304 256.273C767.304 254.878 767.111 253.667 766.724 252.638C766.337 251.61 765.777 250.816 765.044 250.256C764.311 249.696 763.42 249.417 762.372 249.417C761.303 249.417 760.402 249.707 759.669 250.287C758.936 250.867 758.381 251.671 758.005 252.7C757.628 253.728 757.44 254.919 757.44 256.273C757.44 257.637 757.628 258.843 758.005 259.892C758.391 260.93 758.946 261.744 759.669 262.335C760.402 262.915 761.303 263.205 762.372 263.205ZM794.469 268H787.384L798.18 236.727H806.7L817.481 268H810.396L802.562 243.874H802.318L794.469 268ZM794.026 255.708H810.762V260.869H794.026V255.708Z" fill="white"/>
<path d="M965.653 247.676H958.964C958.842 246.81 958.593 246.042 958.216 245.37C957.839 244.688 957.356 244.108 956.765 243.629C956.175 243.151 955.493 242.784 954.719 242.53C953.956 242.275 953.126 242.148 952.23 242.148C950.612 242.148 949.202 242.55 948.001 243.354C946.799 244.148 945.868 245.309 945.206 246.836C944.544 248.353 944.214 250.195 944.214 252.364C944.214 254.593 944.544 256.466 945.206 257.983C945.878 259.5 946.815 260.645 948.016 261.419C949.217 262.192 950.607 262.579 952.184 262.579C953.07 262.579 953.89 262.462 954.643 262.228C955.406 261.994 956.083 261.653 956.674 261.205C957.264 260.747 957.753 260.192 958.14 259.54C958.537 258.889 958.812 258.146 958.964 257.311L965.653 257.342C965.479 258.777 965.047 260.161 964.355 261.495C963.673 262.818 962.751 264.004 961.591 265.053C960.44 266.091 959.066 266.916 957.468 267.527C955.88 268.127 954.083 268.428 952.078 268.428C949.288 268.428 946.794 267.796 944.595 266.534C942.407 265.272 940.676 263.444 939.404 261.052C938.141 258.66 937.51 255.764 937.51 252.364C937.51 248.953 938.151 246.052 939.434 243.66C940.717 241.268 942.458 239.445 944.656 238.193C946.855 236.931 949.329 236.3 952.078 236.3C953.89 236.3 955.569 236.554 957.117 237.063C958.674 237.572 960.054 238.315 961.255 239.293C962.456 240.26 963.433 241.446 964.187 242.85C964.95 244.255 965.439 245.864 965.653 247.676ZM976.777 254.44V268H970.272V236.727H976.593V248.684H976.868C977.398 247.299 978.253 246.215 979.434 245.431C980.614 244.637 982.096 244.24 983.877 244.24C985.506 244.24 986.926 244.596 988.137 245.309C989.359 246.011 990.306 247.024 990.978 248.348C991.66 249.661 991.996 251.234 991.985 253.066V268H985.48V254.227C985.491 252.781 985.124 251.656 984.381 250.852C983.648 250.048 982.62 249.646 981.297 249.646C980.411 249.646 979.627 249.834 978.945 250.211C978.273 250.587 977.744 251.137 977.357 251.86C976.98 252.572 976.787 253.433 976.777 254.44ZM997.105 268V244.545H1003.61V268H997.105ZM1000.37 241.522C999.405 241.522 998.576 241.201 997.883 240.56C997.201 239.908 996.86 239.13 996.86 238.224C996.86 237.328 997.201 236.559 997.883 235.918C998.576 235.266 999.405 234.941 1000.37 234.941C1001.34 234.941 1002.16 235.266 1002.85 235.918C1003.54 236.559 1003.88 237.328 1003.88 238.224C1003.88 239.13 1003.54 239.908 1002.85 240.56C1002.16 241.201 1001.34 241.522 1000.37 241.522ZM1015.33 236.727V268H1008.82V236.727H1015.33ZM1029.18 268.382C1027.4 268.382 1025.78 267.924 1024.34 267.007C1022.9 266.081 1021.76 264.722 1020.92 262.93C1020.08 261.129 1019.67 258.92 1019.67 256.303C1019.67 253.616 1020.1 251.381 1020.96 249.6C1021.83 247.808 1022.98 246.469 1024.41 245.584C1025.86 244.688 1027.44 244.24 1029.16 244.24C1030.48 244.24 1031.57 244.464 1032.45 244.912C1033.33 245.35 1034.05 245.899 1034.58 246.561C1035.13 247.213 1035.55 247.854 1035.84 248.485H1036.04V236.727H1042.52V268H1036.11V264.244H1035.84C1035.53 264.895 1035.1 265.542 1034.54 266.183C1033.99 266.814 1033.27 267.338 1032.39 267.756C1031.51 268.173 1030.44 268.382 1029.18 268.382ZM1031.24 263.205C1032.29 263.205 1033.17 262.92 1033.9 262.35C1034.63 261.77 1035.19 260.961 1035.58 259.922C1035.97 258.884 1036.17 257.667 1036.17 256.273C1036.17 254.878 1035.98 253.667 1035.59 252.638C1035.21 251.61 1034.65 250.816 1033.91 250.256C1033.18 249.696 1032.29 249.417 1031.24 249.417C1030.17 249.417 1029.27 249.707 1028.54 250.287C1027.8 250.867 1027.25 251.671 1026.87 252.7C1026.5 253.728 1026.31 254.919 1026.31 256.273C1026.31 257.637 1026.5 258.843 1026.87 259.892C1027.26 260.93 1027.81 261.744 1028.54 262.335C1029.27 262.915 1030.17 263.205 1031.24 263.205ZM1057.95 268V236.727H1070.47C1072.77 236.727 1074.69 237.068 1076.23 237.75C1077.76 238.432 1078.92 239.379 1079.69 240.591C1080.47 241.792 1080.85 243.176 1080.85 244.744C1080.85 245.966 1080.61 247.04 1080.12 247.966C1079.63 248.882 1078.96 249.635 1078.1 250.226C1077.26 250.806 1076.29 251.218 1075.2 251.463V251.768C1076.39 251.819 1077.51 252.155 1078.55 252.776C1079.6 253.397 1080.45 254.267 1081.1 255.387C1081.75 256.497 1082.07 257.82 1082.07 259.357C1082.07 261.017 1081.66 262.498 1080.84 263.801C1080.02 265.094 1078.82 266.117 1077.22 266.87C1075.62 267.623 1073.65 268 1071.31 268H1057.95ZM1064.56 262.594H1069.95C1071.79 262.594 1073.14 262.243 1073.98 261.541C1074.83 260.828 1075.25 259.882 1075.25 258.701C1075.25 257.835 1075.04 257.072 1074.62 256.41C1074.2 255.748 1073.61 255.229 1072.84 254.853C1072.07 254.476 1071.16 254.288 1070.1 254.288H1064.56V262.594ZM1064.56 249.814H1069.46C1070.37 249.814 1071.17 249.656 1071.87 249.34C1072.59 249.014 1073.15 248.556 1073.55 247.966C1073.97 247.375 1074.18 246.668 1074.18 245.843C1074.18 244.713 1073.78 243.802 1072.97 243.11C1072.18 242.418 1071.05 242.072 1069.58 242.072H1064.56V249.814Z" fill="white"/>
<path d="M1230.7 247.676H1224.01C1223.89 246.81 1223.64 246.042 1223.26 245.37C1222.89 244.688 1222.4 244.108 1221.81 243.629C1221.22 243.151 1220.54 242.784 1219.77 242.53C1219 242.275 1218.17 242.148 1217.28 242.148C1215.66 242.148 1214.25 242.55 1213.05 243.354C1211.85 244.148 1210.92 245.309 1210.25 246.836C1209.59 248.353 1209.26 250.195 1209.26 252.364C1209.26 254.593 1209.59 256.466 1210.25 257.983C1210.93 259.5 1211.86 260.645 1213.06 261.419C1214.26 262.192 1215.65 262.579 1217.23 262.579C1218.12 262.579 1218.94 262.462 1219.69 262.228C1220.45 261.994 1221.13 261.653 1221.72 261.205C1222.31 260.747 1222.8 260.192 1223.19 259.54C1223.58 258.889 1223.86 258.146 1224.01 257.311L1230.7 257.342C1230.53 258.777 1230.09 260.161 1229.4 261.495C1228.72 262.818 1227.8 264.004 1226.64 265.053C1225.49 266.091 1224.11 266.916 1222.52 267.527C1220.93 268.127 1219.13 268.428 1217.12 268.428C1214.34 268.428 1211.84 267.796 1209.64 266.534C1207.45 265.272 1205.72 263.444 1204.45 261.052C1203.19 258.66 1202.56 255.764 1202.56 252.364C1202.56 248.953 1203.2 246.052 1204.48 243.66C1205.76 241.268 1207.5 239.445 1209.7 238.193C1211.9 236.931 1214.38 236.3 1217.12 236.3C1218.94 236.3 1220.62 236.554 1222.16 237.063C1223.72 237.572 1225.1 238.315 1226.3 239.293C1227.5 240.26 1228.48 241.446 1229.23 242.85C1230 244.255 1230.49 245.864 1230.7 247.676ZM1241.82 254.44V268H1235.32V236.727H1241.64V248.684H1241.92C1242.44 247.299 1243.3 246.215 1244.48 245.431C1245.66 244.637 1247.14 244.24 1248.92 244.24C1250.55 244.24 1251.97 244.596 1253.18 245.309C1254.41 246.011 1255.35 247.024 1256.02 248.348C1256.71 249.661 1257.04 251.234 1257.03 253.066V268H1250.53V254.227C1250.54 252.781 1250.17 251.656 1249.43 250.852C1248.7 250.048 1247.67 249.646 1246.34 249.646C1245.46 249.646 1244.67 249.834 1243.99 250.211C1243.32 250.587 1242.79 251.137 1242.4 251.86C1242.03 252.572 1241.83 253.433 1241.82 254.44ZM1262.15 268V244.545H1268.66V268H1262.15ZM1265.42 241.522C1264.45 241.522 1263.62 241.201 1262.93 240.56C1262.25 239.908 1261.91 239.13 1261.91 238.224C1261.91 237.328 1262.25 236.559 1262.93 235.918C1263.62 235.266 1264.45 234.941 1265.42 234.941C1266.39 234.941 1267.21 235.266 1267.89 235.918C1268.59 236.559 1268.93 237.328 1268.93 238.224C1268.93 239.13 1268.59 239.908 1267.89 240.56C1267.21 241.201 1266.39 241.522 1265.42 241.522ZM1280.37 236.727V268H1273.87V236.727H1280.37ZM1294.23 268.382C1292.44 268.382 1290.83 267.924 1289.39 267.007C1287.95 266.081 1286.81 264.722 1285.97 262.93C1285.13 261.129 1284.71 258.92 1284.71 256.303C1284.71 253.616 1285.15 251.381 1286.01 249.6C1286.88 247.808 1288.03 246.469 1289.46 245.584C1290.91 244.688 1292.49 244.24 1294.21 244.24C1295.52 244.24 1296.62 244.464 1297.49 244.912C1298.38 245.35 1299.09 245.899 1299.63 246.561C1300.18 247.213 1300.6 247.854 1300.88 248.485H1301.08V236.727H1307.57V268H1301.16V264.244H1300.88C1300.58 264.895 1300.15 265.542 1299.59 266.183C1299.04 266.814 1298.32 267.338 1297.43 267.756C1296.56 268.173 1295.49 268.382 1294.23 268.382ZM1296.29 263.205C1297.34 263.205 1298.22 262.92 1298.94 262.35C1299.68 261.77 1300.24 260.961 1300.62 259.922C1301.02 258.884 1301.22 257.667 1301.22 256.273C1301.22 254.878 1301.03 253.667 1300.64 252.638C1300.25 251.61 1299.69 250.816 1298.96 250.256C1298.23 249.696 1297.34 249.417 1296.29 249.417C1295.22 249.417 1294.32 249.707 1293.59 250.287C1292.85 250.867 1292.3 251.671 1291.92 252.7C1291.54 253.728 1291.36 254.919 1291.36 256.273C1291.36 257.637 1291.54 258.843 1291.92 259.892C1292.31 260.93 1292.86 261.744 1293.59 262.335C1294.32 262.915 1295.22 263.205 1296.29 263.205ZM1350.59 247.676H1343.9C1343.78 246.81 1343.53 246.042 1343.15 245.37C1342.77 244.688 1342.29 244.108 1341.7 243.629C1341.11 243.151 1340.43 242.784 1339.65 242.53C1338.89 242.275 1338.06 242.148 1337.17 242.148C1335.55 242.148 1334.14 242.55 1332.94 243.354C1331.73 244.148 1330.8 245.309 1330.14 246.836C1329.48 248.353 1329.15 250.195 1329.15 252.364C1329.15 254.593 1329.48 256.466 1330.14 257.983C1330.81 259.5 1331.75 260.645 1332.95 261.419C1334.15 262.192 1335.54 262.579 1337.12 262.579C1338.01 262.579 1338.82 262.462 1339.58 262.228C1340.34 261.994 1341.02 261.653 1341.61 261.205C1342.2 260.747 1342.69 260.192 1343.07 259.54C1343.47 258.889 1343.75 258.146 1343.9 257.311L1350.59 257.342C1350.41 258.777 1349.98 260.161 1349.29 261.495C1348.61 262.818 1347.69 264.004 1346.53 265.053C1345.38 266.091 1344 266.916 1342.4 267.527C1340.81 268.127 1339.02 268.428 1337.01 268.428C1334.22 268.428 1331.73 267.796 1329.53 266.534C1327.34 265.272 1325.61 263.444 1324.34 261.052C1323.08 258.66 1322.45 255.764 1322.45 252.364C1322.45 248.953 1323.09 246.052 1324.37 243.66C1325.65 241.268 1327.39 239.445 1329.59 238.193C1331.79 236.931 1334.26 236.3 1337.01 236.3C1338.82 236.3 1340.5 236.554 1342.05 237.063C1343.61 237.572 1344.99 238.315 1346.19 239.293C1347.39 240.26 1348.37 241.446 1349.12 242.85C1349.89 244.255 1350.37 245.864 1350.59 247.676Z" fill="white"/>
<path d="M833.007 367.619L820.259 361.742L814.381 348.993C814.022 348.204 813.443 347.534 812.713 347.065C811.984 346.596 811.135 346.346 810.268 346.346C809.4 346.346 808.551 346.596 807.822 347.065C807.092 347.534 806.513 348.204 806.154 348.993L800.367 361.742L787.618 367.619C786.829 367.978 786.16 368.557 785.69 369.287C785.221 370.016 784.972 370.865 784.972 371.733C784.972 372.6 785.221 373.449 785.69 374.179C786.16 374.908 786.829 375.487 787.618 375.847L800.367 381.633L806.244 394.382C806.604 395.171 807.183 395.841 807.912 396.31C808.642 396.779 809.491 397.029 810.358 397.029C811.225 397.029 812.074 396.779 812.804 396.31C813.533 395.841 814.112 395.171 814.472 394.382L820.259 381.633L833.007 375.756C836.534 374.219 836.534 369.156 833.007 367.619Z" fill="white"/>
<path d="M715.375 459.844C721.617 459.844 726.677 454.784 726.677 448.542C726.677 442.3 721.617 437.24 715.375 437.24C709.133 437.24 704.073 442.3 704.073 448.542C704.073 454.784 709.133 459.844 715.375 459.844Z" fill="white"/>
<path d="M769.625 459.844C775.867 459.844 780.927 454.784 780.927 448.542C780.927 442.3 775.867 437.24 769.625 437.24C763.383 437.24 758.323 442.3 758.323 448.542C758.323 454.784 763.383 459.844 769.625 459.844Z" fill="white"/>
<path d="M810.313 410.567C803.26 410.567 796.841 406.408 793.857 399.988L790.15 391.85L782.012 388.143C778.866 386.691 776.199 384.372 774.325 381.457C772.452 378.542 771.448 375.153 771.434 371.688C771.434 365.72 774.508 360.295 779.3 356.95C768.088 351.977 755.611 349.083 742.5 349.083C692.59 349.083 652.083 389.59 652.083 439.5C652.083 489.41 692.59 529.917 742.5 529.917C792.41 529.917 832.917 489.41 832.917 439.5C832.917 426.39 830.023 413.912 825.051 402.7C821.705 407.493 816.28 410.567 810.313 410.567ZM742.5 511.833C702.626 511.833 670.167 479.374 670.167 439.5C670.167 439.048 670.257 438.596 670.167 438.234C693.675 429.373 712.572 411.2 722.066 388.053C730.546 398.479 741.244 406.884 753.381 412.655C765.519 418.426 778.79 421.42 792.229 421.417C799.011 421.417 805.521 420.603 811.85 419.247C813.748 425.666 814.833 432.448 814.833 439.5C814.833 479.374 782.374 511.833 742.5 511.833Z" fill="white"/>
<path d="M1100.01 367.619L1087.26 361.742L1081.38 348.993C1081.02 348.204 1080.44 347.534 1079.71 347.065C1078.98 346.596 1078.13 346.346 1077.27 346.346C1076.4 346.346 1075.55 346.596 1074.82 347.065C1074.09 347.534 1073.51 348.204 1073.15 348.993L1067.37 361.742L1054.62 367.619C1053.83 367.978 1053.16 368.557 1052.69 369.287C1052.22 370.016 1051.97 370.865 1051.97 371.733C1051.97 372.6 1052.22 373.449 1052.69 374.179C1053.16 374.908 1053.83 375.487 1054.62 375.847L1067.37 381.633L1073.24 394.382C1073.6 395.171 1074.18 395.841 1074.91 396.31C1075.64 396.779 1076.49 397.029 1077.36 397.029C1078.23 397.029 1079.07 396.779 1079.8 396.31C1080.53 395.841 1081.11 395.171 1081.47 394.382L1087.26 381.633L1100.01 375.756C1103.53 374.219 1103.53 369.156 1100.01 367.619Z" fill="white"/>
<path d="M982.375 459.844C988.617 459.844 993.677 454.784 993.677 448.542C993.677 442.3 988.617 437.24 982.375 437.24C976.133 437.24 971.073 442.3 971.073 448.542C971.073 454.784 976.133 459.844 982.375 459.844Z" fill="white"/>
<path d="M1036.62 459.844C1042.87 459.844 1047.93 454.784 1047.93 448.542C1047.93 442.3 1042.87 437.24 1036.62 437.24C1030.38 437.24 1025.32 442.3 1025.32 448.542C1025.32 454.784 1030.38 459.844 1036.62 459.844Z" fill="white"/>
<path d="M1077.31 410.567C1070.26 410.567 1063.84 406.408 1060.86 399.988L1057.15 391.85L1049.01 388.143C1045.87 386.691 1043.2 384.372 1041.33 381.457C1039.45 378.542 1038.45 375.153 1038.43 371.688C1038.43 365.72 1041.51 360.295 1046.3 356.95C1035.09 351.977 1022.61 349.083 1009.5 349.083C959.59 349.083 919.083 389.59 919.083 439.5C919.083 489.41 959.59 529.917 1009.5 529.917C1059.41 529.917 1099.92 489.41 1099.92 439.5C1099.92 426.39 1097.02 413.912 1092.05 402.7C1088.71 407.493 1083.28 410.567 1077.31 410.567ZM1009.5 511.833C969.626 511.833 937.167 479.374 937.167 439.5C937.167 439.048 937.257 438.596 937.167 438.234C960.675 429.373 979.572 411.2 989.066 388.053C997.546 398.479 1008.24 406.884 1020.38 412.655C1032.52 418.426 1045.79 421.42 1059.23 421.417C1066.01 421.417 1072.52 420.603 1078.85 419.247C1080.75 425.666 1081.83 432.448 1081.83 439.5C1081.83 479.374 1049.37 511.833 1009.5 511.833Z" fill="white"/>
<path d="M1367.01 367.619L1354.26 361.742L1348.38 348.993C1348.02 348.204 1347.44 347.534 1346.71 347.065C1345.98 346.596 1345.13 346.346 1344.27 346.346C1343.4 346.346 1342.55 346.596 1341.82 347.065C1341.09 347.534 1340.51 348.204 1340.15 348.993L1334.37 361.742L1321.62 367.619C1320.83 367.978 1320.16 368.557 1319.69 369.287C1319.22 370.016 1318.97 370.865 1318.97 371.733C1318.97 372.6 1319.22 373.449 1319.69 374.179C1320.16 374.908 1320.83 375.487 1321.62 375.847L1334.37 381.633L1340.24 394.382C1340.6 395.171 1341.18 395.841 1341.91 396.31C1342.64 396.779 1343.49 397.029 1344.36 397.029C1345.23 397.029 1346.07 396.779 1346.8 396.31C1347.53 395.841 1348.11 395.171 1348.47 394.382L1354.26 381.633L1367.01 375.756C1370.53 374.219 1370.53 369.156 1367.01 367.619Z" fill="white"/>
<path d="M1249.37 459.844C1255.62 459.844 1260.68 454.784 1260.68 448.542C1260.68 442.3 1255.62 437.24 1249.37 437.24C1243.13 437.24 1238.07 442.3 1238.07 448.542C1238.07 454.784 1243.13 459.844 1249.37 459.844Z" fill="white"/>
<path d="M1303.62 459.844C1309.87 459.844 1314.93 454.784 1314.93 448.542C1314.93 442.3 1309.87 437.24 1303.62 437.24C1297.38 437.24 1292.32 442.3 1292.32 448.542C1292.32 454.784 1297.38 459.844 1303.62 459.844Z" fill="white"/>
<path d="M1344.31 410.567C1337.26 410.567 1330.84 406.408 1327.86 399.988L1324.15 391.85L1316.01 388.143C1312.87 386.691 1310.2 384.372 1308.33 381.457C1306.45 378.542 1305.45 375.153 1305.43 371.688C1305.43 365.72 1308.51 360.295 1313.3 356.95C1302.09 351.977 1289.61 349.083 1276.5 349.083C1226.59 349.083 1186.08 389.59 1186.08 439.5C1186.08 489.41 1226.59 529.917 1276.5 529.917C1326.41 529.917 1366.92 489.41 1366.92 439.5C1366.92 426.39 1364.02 413.912 1359.05 402.7C1355.71 407.493 1350.28 410.567 1344.31 410.567ZM1276.5 511.833C1236.63 511.833 1204.17 479.374 1204.17 439.5C1204.17 439.048 1204.26 438.596 1204.17 438.234C1227.68 429.373 1246.57 411.2 1256.07 388.053C1264.55 398.479 1275.24 406.884 1287.38 412.655C1299.52 418.426 1312.79 421.42 1326.23 421.417C1333.01 421.417 1339.52 420.603 1345.85 419.247C1347.75 425.666 1348.83 432.448 1348.83 439.5C1348.83 479.374 1316.37 511.833 1276.5 511.833Z" fill="white"/>
</svg>
