<svg width="1389" height="774" viewBox="0 0 1389 774" fill="none" xmlns="http://www.w3.org/2000/svg">
<path d="M690.5 473.5C704.834 473.5 716.5 485.339 716.5 500C716.5 514.661 704.834 526.5 690.5 526.5C676.166 526.5 664.5 514.661 664.5 500C664.5 485.339 676.166 473.5 690.5 473.5Z" stroke="#4ED400" stroke-width="3"/>
<path d="M1361.5 481.5C1375.83 481.5 1387.5 493.339 1387.5 508C1387.5 522.661 1375.83 534.5 1361.5 534.5C1347.17 534.5 1335.5 522.661 1335.5 508C1335.5 493.339 1347.17 481.5 1361.5 481.5Z" stroke="#0098D4" stroke-width="3"/>
<path d="M1105.5 481.5C1119.83 481.5 1131.5 493.339 1131.5 508C1131.5 522.661 1119.83 534.5 1105.5 534.5C1091.17 534.5 1079.5 522.661 1079.5 508C1079.5 493.339 1091.17 481.5 1105.5 481.5Z" stroke="#0098D4" stroke-width="3"/>
<path d="M690.5 644.5C704.834 644.5 716.5 656.339 716.5 671C716.5 685.661 704.834 697.5 690.5 697.5C676.166 697.5 664.5 685.661 664.5 671C664.5 656.339 676.166 644.5 690.5 644.5Z" stroke="white" stroke-width="3"/>
<path d="M1280.99 483.969C1281.05 483.589 1281.5 483.418 1281.8 483.661L1319.1 514.026C1319.4 514.269 1319.32 514.743 1318.96 514.881L1274.02 532.005C1273.66 532.142 1273.28 531.838 1273.34 531.459L1280.99 483.969Z" stroke="#0098D4" stroke-width="3"/>
<path d="M942.394 484.03C942.455 483.65 942.905 483.478 943.203 483.721L980.736 514.272C981.034 514.515 980.958 514.99 980.599 515.127L935.374 532.356C935.014 532.493 934.642 532.189 934.703 531.809L942.394 484.03Z" stroke="#0098D4" stroke-width="3"/>
<path d="M777.188 498.084C777.257 499.165 778.014 500.079 779.063 500.347L797.547 505.08L779.812 512.116C778.805 512.515 778.17 513.518 778.238 514.599L779.449 533.642L767.276 518.948L767.141 518.797C766.489 518.127 765.514 517.877 764.619 518.151L764.429 518.218L746.692 525.254L756.906 509.137C757.486 508.222 757.411 507.037 756.72 506.203L744.547 491.51L763.031 496.243C764.08 496.511 765.184 496.074 765.763 495.159L775.977 479.04L777.188 498.084Z" stroke="#0098D4" stroke-width="3"/>
<path d="M1039.19 498.084C1039.26 499.165 1040.01 500.079 1041.06 500.347L1059.55 505.08L1041.81 512.116C1040.81 512.515 1040.17 513.518 1040.24 514.599L1041.45 533.642L1029.28 518.948L1029.14 518.797C1028.49 518.127 1027.51 517.877 1026.62 518.151L1026.43 518.218L1008.69 525.254L1018.91 509.137C1019.49 508.222 1019.41 507.037 1018.72 506.203L1006.55 491.51L1025.03 496.243C1026.08 496.511 1027.18 496.074 1027.76 495.159L1037.98 479.04L1039.19 498.084Z" stroke="#4ED400" stroke-width="3"/>
<path d="M969.25 669.084C969.319 670.165 970.076 671.079 971.125 671.347L989.609 676.08L971.874 683.116C970.868 683.515 970.232 684.518 970.301 685.599L971.512 704.642L959.339 689.948L959.204 689.797C958.551 689.127 957.576 688.877 956.682 689.151L956.491 689.218L938.754 696.254L948.969 680.137C949.548 679.222 949.473 678.037 948.782 677.203L936.61 662.51L955.094 667.243C956.143 667.511 957.246 667.074 957.826 666.159L968.04 650.04L969.25 669.084Z" stroke="white" stroke-width="3"/>
<path d="M276.012 418.129C276.259 417.834 276.733 417.918 276.865 418.28L306.426 499.671C306.557 500.033 306.247 500.401 305.868 500.334L220.601 485.24C220.223 485.173 220.058 484.72 220.305 484.426L276.012 418.129Z" fill="#18181B" stroke="white" stroke-width="3"/>
<path d="M47.5188 10.7273H54.1307V31.0362C54.1307 33.3165 53.5861 35.3118 52.4968 37.022C51.4177 38.7322 49.906 40.0658 47.9616 41.0227C46.0173 41.9695 43.7522 42.4428 41.1665 42.4428C38.5707 42.4428 36.3005 41.9695 34.3562 41.0227C32.4118 40.0658 30.9001 38.7322 29.821 37.022C28.742 35.3118 28.2024 33.3165 28.2024 31.0362V10.7273H34.8143V30.4712C34.8143 31.6623 35.0739 32.721 35.593 33.6474C36.1224 34.5737 36.8655 35.3016 37.8224 35.831C38.7794 36.3603 39.8941 36.625 41.1665 36.625C42.4492 36.625 43.5639 36.3603 44.5107 35.831C45.4676 35.3016 46.2056 34.5737 46.7248 33.6474C47.2541 32.721 47.5188 31.6623 47.5188 30.4712V10.7273ZM59.4484 50.7955V18.5455H65.8618V22.4851H66.1519C66.4369 21.8539 66.8492 21.2126 67.3888 20.5611C67.9385 19.8994 68.6511 19.3497 69.5265 18.9119C70.4122 18.464 71.5116 18.2401 72.8248 18.2401C74.5351 18.2401 76.113 18.688 77.5585 19.5838C79.0041 20.4695 80.1595 21.8081 81.0248 23.5998C81.8901 25.3813 82.3227 27.6158 82.3227 30.3033C82.3227 32.9195 81.9002 35.1286 81.0553 36.9304C80.2206 38.7221 79.0804 40.0811 77.6349 41.0075C76.1995 41.9237 74.5911 42.3817 72.8096 42.3817C71.5473 42.3817 70.4733 42.1731 69.5876 41.7557C68.7122 41.3383 67.9945 40.814 67.4346 40.1829C66.8747 39.5415 66.4471 38.8951 66.1519 38.2436H65.9534V50.7955H59.4484ZM65.816 30.2727C65.816 31.6674 66.0094 32.8839 66.3962 33.9222C66.7831 34.9606 67.343 35.7699 68.0759 36.3501C68.8089 36.9202 69.6996 37.2053 70.7481 37.2053C71.8068 37.2053 72.7027 36.9151 73.4356 36.3349C74.1686 35.7444 74.7234 34.93 75.1001 33.8917C75.4869 32.8432 75.6803 31.6368 75.6803 30.2727C75.6803 28.9188 75.492 27.7277 75.1153 26.6996C74.7387 25.6714 74.1839 24.8672 73.4509 24.2869C72.718 23.7067 71.817 23.4165 70.7481 23.4165C69.6894 23.4165 68.7936 23.6965 68.0606 24.2564C67.3379 24.8163 66.7831 25.6103 66.3962 26.6385C66.0094 27.6667 65.816 28.8781 65.816 30.2727ZM95.3021 42.3817C93.5206 42.3817 91.9071 41.9237 90.4616 41.0075C89.0262 40.0811 87.886 38.7221 87.0411 36.9304C86.2064 35.1286 85.789 32.9195 85.789 30.3033C85.789 27.6158 86.2216 25.3813 87.0869 23.5998C87.9522 21.8081 89.1025 20.4695 90.5379 19.5838C91.9835 18.688 93.5664 18.2401 95.2868 18.2401C96.6001 18.2401 97.6944 18.464 98.5699 18.9119C99.4555 19.3497 100.168 19.8994 100.708 20.5611C101.257 21.2126 101.675 21.8539 101.96 22.4851H102.158V10.7273H108.648V42H102.235V38.2436H101.96C101.654 38.8951 101.222 39.5415 100.662 40.1829C100.112 40.814 99.3944 41.3383 98.5088 41.7557C97.6333 42.1731 96.5644 42.3817 95.3021 42.3817ZM97.3635 37.2053C98.4121 37.2053 99.2977 36.9202 100.021 36.3501C100.753 35.7699 101.313 34.9606 101.7 33.9222C102.097 32.8839 102.296 31.6674 102.296 30.2727C102.296 28.8781 102.102 27.6667 101.715 26.6385C101.329 25.6103 100.769 24.8163 100.036 24.2564C99.3028 23.6965 98.4121 23.4165 97.3635 23.4165C96.2947 23.4165 95.3937 23.7067 94.6608 24.2869C93.9278 24.8672 93.373 25.6714 92.9964 26.6996C92.6197 27.7277 92.4314 28.9188 92.4314 30.2727C92.4314 31.6368 92.6197 32.8432 92.9964 33.8917C93.3832 34.93 93.938 35.7444 94.6608 36.3349C95.3937 36.9151 96.2947 37.2053 97.3635 37.2053ZM120.684 42.4428C119.188 42.4428 117.854 42.1832 116.684 41.6641C115.513 41.1347 114.587 40.3559 113.905 39.3278C113.233 38.2894 112.897 36.9966 112.897 35.4492C112.897 34.1462 113.136 33.0518 113.615 32.1662C114.093 31.2805 114.744 30.5679 115.569 30.0284C116.394 29.4889 117.33 29.0817 118.379 28.8068C119.437 28.532 120.547 28.3385 121.708 28.2266C123.072 28.084 124.171 27.9517 125.006 27.8295C125.841 27.6972 126.446 27.5038 126.823 27.2493C127.2 26.9948 127.388 26.6181 127.388 26.1193V26.0277C127.388 25.0606 127.083 24.3124 126.472 23.783C125.871 23.2537 125.016 22.989 123.906 22.989C122.736 22.989 121.804 23.2486 121.112 23.7678C120.42 24.2768 119.962 24.9181 119.738 25.6918L113.721 25.2031C114.027 23.7779 114.627 22.5462 115.523 21.5078C116.419 20.4593 117.575 19.6551 118.99 19.0952C120.415 18.5251 122.064 18.2401 123.937 18.2401C125.24 18.2401 126.487 18.3928 127.678 18.6982C128.879 19.0036 129.943 19.4769 130.869 20.1183C131.806 20.7596 132.544 21.5842 133.084 22.592C133.623 23.5896 133.893 24.7857 133.893 26.1804V42H127.724V38.7475H127.541C127.164 39.4805 126.66 40.1269 126.029 40.6868C125.398 41.2365 124.639 41.6692 123.754 41.9847C122.868 42.2901 121.845 42.4428 120.684 42.4428ZM122.547 37.9535C123.504 37.9535 124.349 37.7652 125.082 37.3885C125.815 37.0017 126.39 36.4825 126.808 35.831C127.225 35.1795 127.434 34.4414 127.434 33.6168V31.1278C127.23 31.2602 126.95 31.3823 126.594 31.4943C126.248 31.5961 125.856 31.6928 125.418 31.7844C124.98 31.8659 124.543 31.9422 124.105 32.0135C123.667 32.0746 123.27 32.1306 122.914 32.1815C122.15 32.2934 121.484 32.4716 120.914 32.7159C120.343 32.9602 119.901 33.2911 119.585 33.7085C119.269 34.1156 119.112 34.6246 119.112 35.2354C119.112 36.1211 119.432 36.7981 120.074 37.2663C120.725 37.7244 121.55 37.9535 122.547 37.9535ZM151.415 18.5455V23.4318H137.29V18.5455H151.415ZM140.497 12.9261H147.002V34.7926C147.002 35.3932 147.094 35.8615 147.277 36.1974C147.46 36.5232 147.715 36.7522 148.04 36.8846C148.376 37.0169 148.763 37.0831 149.201 37.0831C149.506 37.0831 149.812 37.0576 150.117 37.0067C150.423 36.9457 150.657 36.8999 150.82 36.8693L151.843 41.7099C151.517 41.8117 151.059 41.9287 150.468 42.0611C149.878 42.2036 149.16 42.2901 148.315 42.3207C146.748 42.3817 145.373 42.1731 144.192 41.6946C143.022 41.2161 142.111 40.473 141.459 39.4652C140.808 38.4574 140.487 37.1849 140.497 35.6477V12.9261ZM166.089 42.4581C163.677 42.4581 161.6 41.9695 159.859 40.9922C158.129 40.0047 156.795 38.6101 155.859 36.8082C154.922 34.9962 154.454 32.8533 154.454 30.3796C154.454 27.967 154.922 25.8496 155.859 24.0273C156.795 22.2051 158.114 20.785 159.814 19.767C161.524 18.7491 163.529 18.2401 165.83 18.2401C167.377 18.2401 168.818 18.4895 170.151 18.9883C171.495 19.4769 172.666 20.215 173.663 21.2024C174.671 22.1899 175.455 23.4318 176.015 24.9283C176.575 26.4145 176.855 28.1553 176.855 30.1506V31.9371H157.05V27.9059H170.732C170.732 26.9693 170.528 26.1397 170.121 25.4169C169.714 24.6941 169.149 24.1291 168.426 23.7219C167.713 23.3046 166.884 23.0959 165.937 23.0959C164.949 23.0959 164.074 23.3249 163.31 23.783C162.557 24.2309 161.967 24.8366 161.539 25.6001C161.112 26.3535 160.893 27.1933 160.882 28.1197V31.9524C160.882 33.1129 161.096 34.1156 161.524 34.9606C161.962 35.8055 162.577 36.457 163.371 36.9151C164.165 37.3732 165.107 37.6023 166.196 37.6023C166.919 37.6023 167.581 37.5005 168.181 37.2969C168.782 37.0933 169.296 36.7879 169.724 36.3807C170.151 35.9735 170.477 35.4747 170.701 34.8842L176.717 35.2812C176.412 36.7268 175.786 37.9891 174.839 39.0682C173.903 40.1371 172.691 40.9718 171.205 41.5724C169.729 42.1629 168.024 42.4581 166.089 42.4581ZM189.743 42.3817C187.961 42.3817 186.348 41.9237 184.902 41.0075C183.467 40.0811 182.326 38.7221 181.482 36.9304C180.647 35.1286 180.229 32.9195 180.229 30.3033C180.229 27.6158 180.662 25.3813 181.527 23.5998C182.393 21.8081 183.543 20.4695 184.978 19.5838C186.424 18.688 188.007 18.2401 189.727 18.2401C191.04 18.2401 192.135 18.464 193.01 18.9119C193.896 19.3497 194.609 19.8994 195.148 20.5611C195.698 21.2126 196.115 21.8539 196.4 22.4851H196.599V10.7273H203.088V42H196.675V38.2436H196.4C196.095 38.8951 195.662 39.5415 195.102 40.1829C194.553 40.814 193.835 41.3383 192.949 41.7557C192.074 42.1731 191.005 42.3817 189.743 42.3817ZM191.804 37.2053C192.853 37.2053 193.738 36.9202 194.461 36.3501C195.194 35.7699 195.754 34.9606 196.141 33.9222C196.538 32.8839 196.736 31.6674 196.736 30.2727C196.736 28.8781 196.543 27.6667 196.156 26.6385C195.769 25.6103 195.209 24.8163 194.476 24.2564C193.743 23.6965 192.853 23.4165 191.804 23.4165C190.735 23.4165 189.834 23.7067 189.101 24.2869C188.368 24.8672 187.813 25.6714 187.437 26.6996C187.06 27.7277 186.872 28.9188 186.872 30.2727C186.872 31.6368 187.06 32.8432 187.437 33.8917C187.824 34.93 188.378 35.7444 189.101 36.3349C189.834 36.9151 190.735 37.2053 191.804 37.2053ZM218.511 42V10.7273H231.032C233.333 10.7273 235.252 11.0683 236.789 11.7504C238.326 12.4324 239.482 13.3791 240.255 14.5906C241.029 15.7918 241.416 17.1763 241.416 18.744C241.416 19.9656 241.172 21.0395 240.683 21.9659C240.194 22.8821 239.522 23.6354 238.667 24.2259C237.822 24.8061 236.855 25.2184 235.766 25.4627V25.7681C236.957 25.819 238.072 26.1549 239.11 26.7759C240.159 27.3969 241.009 28.2673 241.66 29.3871C242.312 30.4967 242.637 31.8201 242.637 33.3572C242.637 35.0166 242.225 36.4978 241.401 37.8008C240.586 39.0936 239.38 40.1167 237.782 40.87C236.183 41.6233 234.214 42 231.872 42H218.511ZM225.123 36.5945H230.513C232.356 36.5945 233.699 36.2433 234.544 35.5408C235.389 34.8282 235.812 33.8815 235.812 32.7006C235.812 31.8353 235.603 31.0719 235.186 30.4102C234.768 29.7485 234.173 29.2293 233.399 28.8526C232.636 28.476 231.725 28.2876 230.666 28.2876H225.123V36.5945ZM225.123 23.8136H230.025C230.931 23.8136 231.735 23.6558 232.437 23.3402C233.15 23.0144 233.71 22.5563 234.117 21.9659C234.534 21.3755 234.743 20.668 234.743 19.8434C234.743 18.7134 234.341 17.8023 233.537 17.1101C232.743 16.4178 231.613 16.0717 230.147 16.0717H225.123V23.8136ZM253.506 42.4428C252.009 42.4428 250.676 42.1832 249.505 41.6641C248.334 41.1347 247.408 40.3559 246.726 39.3278C246.054 38.2894 245.718 36.9966 245.718 35.4492C245.718 34.1462 245.957 33.0518 246.436 32.1662C246.914 31.2805 247.566 30.5679 248.39 30.0284C249.215 29.4889 250.151 29.0817 251.2 28.8068C252.259 28.532 253.368 28.3385 254.529 28.2266C255.893 28.084 256.992 27.9517 257.827 27.8295C258.662 27.6972 259.268 27.5038 259.644 27.2493C260.021 26.9948 260.209 26.6181 260.209 26.1193V26.0277C260.209 25.0606 259.904 24.3124 259.293 23.783C258.692 23.2537 257.837 22.989 256.728 22.989C255.557 22.989 254.626 23.2486 253.933 23.7678C253.241 24.2768 252.783 24.9181 252.559 25.6918L246.543 25.2031C246.848 23.7779 247.449 22.5462 248.345 21.5078C249.24 20.4593 250.396 19.6551 251.811 19.0952C253.236 18.5251 254.885 18.2401 256.758 18.2401C258.061 18.2401 259.308 18.3928 260.499 18.6982C261.701 19.0036 262.764 19.4769 263.691 20.1183C264.627 20.7596 265.365 21.5842 265.905 22.592C266.444 23.5896 266.714 24.7857 266.714 26.1804V42H260.545V38.7475H260.362C259.985 39.4805 259.481 40.1269 258.85 40.6868C258.219 41.2365 257.461 41.6692 256.575 41.9847C255.689 42.2901 254.666 42.4428 253.506 42.4428ZM255.369 37.9535C256.326 37.9535 257.171 37.7652 257.903 37.3885C258.636 37.0017 259.212 36.4825 259.629 35.831C260.046 35.1795 260.255 34.4414 260.255 33.6168V31.1278C260.051 31.2602 259.772 31.3823 259.415 31.4943C259.069 31.5961 258.677 31.6928 258.239 31.7844C257.802 31.8659 257.364 31.9422 256.926 32.0135C256.488 32.0746 256.091 32.1306 255.735 32.1815C254.972 32.2934 254.305 32.4716 253.735 32.7159C253.165 32.9602 252.722 33.2911 252.406 33.7085C252.091 34.1156 251.933 34.6246 251.933 35.2354C251.933 36.1211 252.254 36.7981 252.895 37.2663C253.546 37.7244 254.371 37.9535 255.369 37.9535ZM282.328 51.2841C280.22 51.2841 278.414 50.994 276.907 50.4137C275.41 49.8436 274.219 49.0649 273.334 48.0774C272.448 47.09 271.873 45.9804 271.608 44.7486L277.625 43.9393C277.808 44.4076 278.098 44.8453 278.495 45.2525C278.892 45.6597 279.416 45.9854 280.068 46.2298C280.729 46.4843 281.534 46.6115 282.48 46.6115C283.895 46.6115 285.061 46.2654 285.977 45.5732C286.904 44.8911 287.367 43.7459 287.367 42.1374V37.8466H287.092C286.807 38.4981 286.379 39.114 285.809 39.6942C285.239 40.2745 284.506 40.7479 283.61 41.1143C282.715 41.4808 281.646 41.6641 280.404 41.6641C278.643 41.6641 277.039 41.2569 275.594 40.4425C274.158 39.6179 273.013 38.3607 272.158 36.6708C271.313 34.9708 270.891 32.8228 270.891 30.2269C270.891 27.57 271.323 25.3507 272.188 23.5692C273.054 21.7878 274.204 20.4542 275.639 19.5685C277.085 18.6829 278.668 18.2401 280.388 18.2401C281.702 18.2401 282.801 18.464 283.687 18.9119C284.572 19.3497 285.285 19.8994 285.824 20.5611C286.374 21.2126 286.797 21.8539 287.092 22.4851H287.336V18.5455H293.795V42.229C293.795 44.2243 293.307 45.8938 292.329 47.2376C291.352 48.5813 289.998 49.5891 288.268 50.261C286.547 50.9431 284.567 51.2841 282.328 51.2841ZM282.465 36.7777C283.514 36.7777 284.399 36.5181 285.122 35.9989C285.855 35.4696 286.415 34.7163 286.802 33.739C287.199 32.7515 287.397 31.5707 287.397 30.1964C287.397 28.8221 287.204 27.631 286.817 26.6232C286.43 25.6052 285.87 24.8163 285.137 24.2564C284.404 23.6965 283.514 23.4165 282.465 23.4165C281.396 23.4165 280.495 23.7067 279.762 24.2869C279.029 24.857 278.475 25.651 278.098 26.669C277.721 27.687 277.533 28.8628 277.533 30.1964C277.533 31.5503 277.721 32.721 278.098 33.7085C278.485 34.6857 279.04 35.4441 279.762 35.9837C280.495 36.513 281.396 36.7777 282.465 36.7777ZM319.521 42.4581C317.149 42.4581 315.098 41.9542 313.368 40.9464C311.647 39.9284 310.319 38.5134 309.382 36.7013C308.446 34.8791 307.977 32.7668 307.977 30.3643C307.977 27.9415 308.446 25.8241 309.382 24.0121C310.319 22.1899 311.647 20.7749 313.368 19.767C315.098 18.7491 317.149 18.2401 319.521 18.2401C321.893 18.2401 323.939 18.7491 325.66 19.767C327.39 20.7749 328.724 22.1899 329.661 24.0121C330.597 25.8241 331.065 27.9415 331.065 30.3643C331.065 32.7668 330.597 34.8791 329.661 36.7013C328.724 38.5134 327.39 39.9284 325.66 40.9464C323.939 41.9542 321.893 42.4581 319.521 42.4581ZM319.552 37.419C320.631 37.419 321.532 37.1136 322.255 36.5028C322.977 35.8819 323.522 35.0369 323.888 33.968C324.265 32.8991 324.453 31.6826 324.453 30.3185C324.453 28.9544 324.265 27.7379 323.888 26.669C323.522 25.6001 322.977 24.7552 322.255 24.1342C321.532 23.5133 320.631 23.2028 319.552 23.2028C318.463 23.2028 317.546 23.5133 316.803 24.1342C316.07 24.7552 315.516 25.6001 315.139 26.669C314.772 27.7379 314.589 28.9544 314.589 30.3185C314.589 31.6826 314.772 32.8991 315.139 33.968C315.516 35.0369 316.07 35.8819 316.803 36.5028C317.546 37.1136 318.463 37.419 319.552 37.419ZM347.908 18.5455V23.4318H333.432V18.5455H347.908ZM336.746 42V16.8505C336.746 15.1504 337.077 13.7405 337.738 12.6207C338.41 11.5009 339.326 10.6611 340.487 10.1012C341.647 9.54131 342.966 9.26136 344.442 9.26136C345.439 9.26136 346.35 9.33771 347.175 9.49041C348.01 9.64311 348.631 9.78054 349.038 9.9027L347.877 14.7891C347.623 14.7076 347.307 14.6313 346.931 14.56C346.564 14.4888 346.188 14.4531 345.801 14.4531C344.844 14.4531 344.177 14.6771 343.8 15.125C343.424 15.5627 343.235 16.1786 343.235 16.9727V42H336.746ZM360.765 16.1786V10.7273H386.449V16.1786H376.875V42H370.339V16.1786H360.765ZM397.753 42.4581C395.381 42.4581 393.33 41.9542 391.599 40.9464C389.879 39.9284 388.55 38.5134 387.614 36.7013C386.677 34.8791 386.209 32.7668 386.209 30.3643C386.209 27.9415 386.677 25.8241 387.614 24.0121C388.55 22.1899 389.879 20.7749 391.599 19.767C393.33 18.7491 395.381 18.2401 397.753 18.2401C400.125 18.2401 402.171 18.7491 403.891 19.767C405.622 20.7749 406.955 22.1899 407.892 24.0121C408.829 25.8241 409.297 27.9415 409.297 30.3643C409.297 32.7668 408.829 34.8791 407.892 36.7013C406.955 38.5134 405.622 39.9284 403.891 40.9464C402.171 41.9542 400.125 42.4581 397.753 42.4581ZM397.783 37.419C398.862 37.419 399.763 37.1136 400.486 36.5028C401.209 35.8819 401.753 35.0369 402.12 33.968C402.497 32.8991 402.685 31.6826 402.685 30.3185C402.685 28.9544 402.497 27.7379 402.12 26.669C401.753 25.6001 401.209 24.7552 400.486 24.1342C399.763 23.5133 398.862 23.2028 397.783 23.2028C396.694 23.2028 395.778 23.5133 395.035 24.1342C394.302 24.7552 393.747 25.6001 393.37 26.669C393.004 27.7379 392.821 28.9544 392.821 30.3185C392.821 31.6826 393.004 32.8991 393.37 33.968C393.747 35.0369 394.302 35.8819 395.035 36.5028C395.778 37.1136 396.694 37.419 397.783 37.419ZM416.787 50.7955C415.962 50.7955 415.188 50.7293 414.466 50.5969C413.753 50.4748 413.163 50.317 412.694 50.1236L414.16 45.2678C414.924 45.5019 415.611 45.6291 416.222 45.6495C416.843 45.6699 417.377 45.5273 417.825 45.2219C418.283 44.9165 418.655 44.3974 418.94 43.6644L419.321 42.6719L410.908 18.5455H417.749L422.604 35.7699H422.849L427.75 18.5455H434.637L425.521 44.5348C425.083 45.7971 424.488 46.8965 423.734 47.8331C422.991 48.7798 422.05 49.5077 420.91 50.0167C419.769 50.5359 418.395 50.7955 416.787 50.7955ZM457.481 25.2337L451.526 25.6001C451.424 25.0911 451.205 24.633 450.869 24.2259C450.533 23.8085 450.09 23.4776 449.541 23.2333C449.001 22.9788 448.355 22.8516 447.601 22.8516C446.593 22.8516 445.743 23.0653 445.051 23.4929C444.359 23.9103 444.013 24.4702 444.013 25.1726C444.013 25.7325 444.237 26.2058 444.685 26.5927C445.133 26.9795 445.901 27.29 446.991 27.5241L451.236 28.3793C453.516 28.8475 455.216 29.6009 456.336 30.6392C457.455 31.6776 458.015 33.0417 458.015 34.7315C458.015 36.2687 457.562 37.6175 456.656 38.7781C455.761 39.9386 454.529 40.8446 452.961 41.4961C451.403 42.1374 449.607 42.4581 447.571 42.4581C444.466 42.4581 441.992 41.8117 440.15 40.5188C438.317 39.2158 437.243 37.4445 436.928 35.2049L443.326 34.869C443.519 35.8157 443.987 36.5385 444.731 37.0373C445.474 37.5259 446.426 37.7702 447.586 37.7702C448.726 37.7702 449.642 37.5514 450.335 37.1136C451.037 36.6657 451.393 36.0906 451.403 35.3881C451.393 34.7977 451.144 34.3142 450.655 33.9375C450.167 33.5507 449.413 33.2554 448.395 33.0518L444.334 32.2425C442.043 31.7844 440.338 30.9904 439.218 29.8604C438.109 28.7305 437.554 27.29 437.554 25.5391C437.554 24.0324 437.961 22.7345 438.775 21.6452C439.6 20.556 440.755 19.7161 442.242 19.1257C443.738 18.5353 445.489 18.2401 447.494 18.2401C450.457 18.2401 452.788 18.8661 454.488 20.1183C456.198 21.3704 457.196 23.0755 457.481 25.2337Z" fill="white"/>
<path d="M147.193 377V372.901L156.772 364.032C157.586 363.243 158.269 362.534 158.821 361.903C159.382 361.272 159.807 360.655 160.096 360.05C160.385 359.437 160.529 358.776 160.529 358.066C160.529 357.278 160.35 356.599 159.991 356.03C159.631 355.452 159.141 355.009 158.519 354.703C157.897 354.387 157.192 354.23 156.404 354.23C155.58 354.23 154.862 354.396 154.249 354.729C153.636 355.062 153.163 355.539 152.83 356.161C152.497 356.783 152.33 357.523 152.33 358.382H146.93C146.93 356.621 147.329 355.093 148.126 353.796C148.923 352.5 150.04 351.497 151.476 350.787C152.913 350.078 154.569 349.723 156.443 349.723C158.37 349.723 160.048 350.065 161.475 350.748C162.912 351.422 164.029 352.36 164.826 353.56C165.623 354.76 166.022 356.135 166.022 357.685C166.022 358.701 165.82 359.704 165.417 360.694C165.023 361.684 164.318 362.783 163.302 363.992C162.286 365.192 160.853 366.633 159.005 368.315L155.077 372.165V372.349H166.376V377H147.193ZM189.849 356.818V361.023H177.696V356.818H189.849ZM180.455 351.983H186.052V370.798C186.052 371.315 186.131 371.718 186.289 372.007C186.446 372.287 186.665 372.484 186.946 372.598C187.235 372.712 187.568 372.769 187.944 372.769C188.207 372.769 188.47 372.747 188.733 372.703C188.995 372.651 189.197 372.612 189.337 372.585L190.217 376.75C189.937 376.838 189.543 376.939 189.035 377.053C188.527 377.175 187.909 377.25 187.182 377.276C185.833 377.328 184.651 377.149 183.635 376.737C182.627 376.326 181.843 375.686 181.283 374.819C180.722 373.952 180.446 372.857 180.455 371.534V351.983ZM193.496 377V356.818H198.922V360.339H199.132C199.5 359.087 200.118 358.141 200.985 357.501C201.852 356.853 202.851 356.529 203.981 356.529C204.261 356.529 204.563 356.547 204.887 356.582C205.211 356.617 205.496 356.665 205.741 356.726V361.693C205.479 361.614 205.115 361.544 204.651 361.483C204.187 361.421 203.762 361.391 203.376 361.391C202.553 361.391 201.817 361.57 201.169 361.929C200.529 362.28 200.021 362.77 199.645 363.401C199.277 364.032 199.093 364.759 199.093 365.582V377H193.496ZM208.635 377V356.818H214.233V377H208.635ZM211.447 354.217C210.615 354.217 209.901 353.941 209.305 353.389C208.718 352.828 208.425 352.158 208.425 351.379C208.425 350.608 208.718 349.946 209.305 349.395C209.901 348.834 210.615 348.554 211.447 348.554C212.279 348.554 212.989 348.834 213.576 349.395C214.171 349.946 214.469 350.608 214.469 351.379C214.469 352.158 214.171 352.828 213.576 353.389C212.989 353.941 212.279 354.217 211.447 354.217ZM224.471 377.381C223.184 377.381 222.036 377.158 221.029 376.711C220.021 376.255 219.224 375.585 218.637 374.701C218.059 373.807 217.77 372.695 217.77 371.363C217.77 370.242 217.976 369.3 218.388 368.538C218.8 367.776 219.36 367.163 220.07 366.699C220.779 366.235 221.585 365.884 222.487 365.648C223.398 365.411 224.353 365.245 225.352 365.148C226.525 365.026 227.471 364.912 228.19 364.807C228.908 364.693 229.429 364.527 229.753 364.308C230.077 364.089 230.239 363.764 230.239 363.335V363.256C230.239 362.424 229.977 361.78 229.451 361.325C228.934 360.869 228.198 360.642 227.244 360.642C226.236 360.642 225.435 360.865 224.839 361.312C224.244 361.75 223.849 362.302 223.657 362.967L218.48 362.547C218.743 361.321 219.259 360.261 220.03 359.367C220.801 358.465 221.795 357.773 223.013 357.291C224.239 356.801 225.658 356.555 227.27 356.555C228.391 356.555 229.464 356.687 230.489 356.95C231.523 357.212 232.438 357.62 233.235 358.172C234.041 358.723 234.676 359.433 235.14 360.3C235.605 361.158 235.837 362.188 235.837 363.388V377H230.528V374.201H230.371C230.047 374.832 229.613 375.388 229.07 375.87C228.527 376.343 227.874 376.715 227.112 376.987C226.35 377.25 225.47 377.381 224.471 377.381ZM226.074 373.518C226.898 373.518 227.625 373.356 228.255 373.032C228.886 372.699 229.381 372.252 229.74 371.692C230.099 371.131 230.279 370.496 230.279 369.787V367.645C230.104 367.759 229.863 367.864 229.556 367.96C229.258 368.048 228.921 368.131 228.544 368.21C228.168 368.28 227.791 368.346 227.414 368.407C227.038 368.46 226.696 368.508 226.39 368.551C225.733 368.648 225.159 368.801 224.668 369.011C224.178 369.222 223.797 369.506 223.525 369.865C223.254 370.216 223.118 370.654 223.118 371.179C223.118 371.941 223.394 372.524 223.946 372.927C224.506 373.321 225.216 373.518 226.074 373.518ZM245.776 365.332V377H240.179V356.818H245.514V360.379H245.75C246.197 359.205 246.946 358.277 247.997 357.593C249.048 356.901 250.323 356.555 251.821 356.555C253.222 356.555 254.444 356.862 255.486 357.475C256.529 358.088 257.339 358.964 257.917 360.103C258.495 361.233 258.784 362.582 258.784 364.15V377H253.187V365.148C253.196 363.913 252.88 362.95 252.241 362.258C251.602 361.557 250.721 361.207 249.6 361.207C248.847 361.207 248.181 361.369 247.603 361.693C247.033 362.017 246.587 362.49 246.263 363.112C245.947 363.725 245.785 364.465 245.776 365.332ZM272.288 384.989C270.475 384.989 268.92 384.739 267.624 384.24C266.336 383.749 265.311 383.079 264.549 382.229C263.787 381.38 263.292 380.425 263.064 379.365L268.241 378.669C268.399 379.072 268.649 379.448 268.99 379.799C269.332 380.149 269.783 380.429 270.344 380.64C270.913 380.859 271.605 380.968 272.42 380.968C273.637 380.968 274.64 380.67 275.428 380.075C276.226 379.488 276.624 378.502 276.624 377.118V373.426H276.388C276.142 373.987 275.774 374.517 275.284 375.016C274.793 375.515 274.163 375.923 273.392 376.238C272.621 376.553 271.701 376.711 270.633 376.711C269.117 376.711 267.738 376.361 266.494 375.66C265.259 374.95 264.273 373.868 263.537 372.414C262.81 370.952 262.447 369.103 262.447 366.87C262.447 364.583 262.819 362.674 263.564 361.141C264.308 359.608 265.298 358.461 266.533 357.699C267.777 356.936 269.139 356.555 270.619 356.555C271.749 356.555 272.695 356.748 273.458 357.134C274.22 357.51 274.833 357.983 275.297 358.553C275.77 359.113 276.134 359.665 276.388 360.208H276.598V356.818H282.156V377.197C282.156 378.914 281.735 380.35 280.894 381.507C280.053 382.663 278.888 383.53 277.399 384.108C275.919 384.695 274.215 384.989 272.288 384.989ZM272.406 372.506C273.309 372.506 274.071 372.283 274.693 371.836C275.323 371.381 275.805 370.733 276.138 369.892C276.48 369.042 276.65 368.026 276.65 366.843C276.65 365.661 276.484 364.636 276.151 363.769C275.818 362.893 275.336 362.214 274.706 361.732C274.075 361.25 273.309 361.01 272.406 361.01C271.487 361.01 270.711 361.259 270.081 361.759C269.45 362.249 268.973 362.932 268.649 363.808C268.324 364.684 268.162 365.696 268.162 366.843C268.162 368.008 268.324 369.016 268.649 369.865C268.981 370.706 269.459 371.359 270.081 371.823C270.711 372.279 271.487 372.506 272.406 372.506ZM292.207 350.091V377H286.61V350.091H292.207ZM305.888 377.394C303.812 377.394 302.025 376.974 300.528 376.133C299.038 375.283 297.891 374.083 297.085 372.533C296.279 370.973 295.876 369.13 295.876 367.001C295.876 364.925 296.279 363.103 297.085 361.535C297.891 359.967 299.025 358.745 300.488 357.869C301.96 356.993 303.685 356.555 305.665 356.555C306.996 356.555 308.236 356.77 309.383 357.199C310.54 357.62 311.547 358.255 312.405 359.104C313.273 359.954 313.947 361.023 314.429 362.31C314.911 363.589 315.151 365.087 315.151 366.804V368.341H298.11V364.873H309.883C309.883 364.067 309.707 363.353 309.357 362.731C309.007 362.109 308.521 361.623 307.899 361.272C307.285 360.913 306.572 360.734 305.757 360.734C304.907 360.734 304.154 360.931 303.497 361.325C302.849 361.71 302.341 362.232 301.973 362.888C301.605 363.537 301.417 364.259 301.408 365.056V368.354C301.408 369.353 301.592 370.216 301.96 370.943C302.336 371.67 302.866 372.23 303.55 372.625C304.233 373.019 305.043 373.216 305.98 373.216C306.602 373.216 307.172 373.128 307.688 372.953C308.205 372.778 308.648 372.515 309.015 372.165C309.383 371.814 309.664 371.385 309.856 370.877L315.033 371.219C314.77 372.463 314.232 373.549 313.417 374.477C312.611 375.397 311.569 376.115 310.29 376.632C309.02 377.14 307.553 377.394 305.888 377.394ZM335.596 362.573L330.472 362.888C330.384 362.451 330.196 362.056 329.907 361.706C329.618 361.347 329.237 361.062 328.764 360.852C328.299 360.633 327.743 360.523 327.095 360.523C326.228 360.523 325.496 360.707 324.901 361.075C324.305 361.434 324.007 361.916 324.007 362.521C324.007 363.002 324.2 363.41 324.585 363.743C324.971 364.075 325.632 364.343 326.569 364.544L330.222 365.28C332.184 365.683 333.647 366.331 334.611 367.224C335.574 368.118 336.056 369.292 336.056 370.746C336.056 372.068 335.666 373.229 334.887 374.228C334.116 375.226 333.056 376.006 331.707 376.566C330.367 377.118 328.821 377.394 327.069 377.394C324.397 377.394 322.269 376.838 320.683 375.725C319.106 374.604 318.182 373.08 317.911 371.153L323.416 370.864C323.582 371.679 323.985 372.301 324.625 372.73C325.264 373.15 326.083 373.36 327.082 373.36C328.063 373.36 328.851 373.172 329.447 372.795C330.051 372.41 330.358 371.915 330.367 371.311C330.358 370.803 330.143 370.387 329.723 370.062C329.302 369.73 328.654 369.476 327.778 369.3L324.283 368.604C322.312 368.21 320.845 367.527 319.882 366.554C318.927 365.582 318.449 364.343 318.449 362.836C318.449 361.54 318.8 360.423 319.501 359.485C320.21 358.548 321.204 357.826 322.483 357.317C323.771 356.809 325.277 356.555 327.003 356.555C329.552 356.555 331.558 357.094 333.021 358.172C334.492 359.249 335.351 360.716 335.596 362.573Z" fill="white"/>
<path d="M188.563 567.091V594H182.874V572.491H182.716L176.554 576.354V571.309L183.216 567.091H188.563ZM220.367 579.573L215.243 579.888C215.155 579.451 214.967 579.056 214.678 578.706C214.389 578.347 214.008 578.062 213.534 577.852C213.07 577.633 212.514 577.523 211.866 577.523C210.999 577.523 210.267 577.707 209.672 578.075C209.076 578.434 208.778 578.916 208.778 579.521C208.778 580.002 208.971 580.41 209.356 580.743C209.742 581.075 210.403 581.343 211.34 581.544L214.993 582.28C216.955 582.683 218.418 583.331 219.381 584.224C220.345 585.118 220.827 586.292 220.827 587.746C220.827 589.068 220.437 590.229 219.657 591.228C218.887 592.226 217.827 593.006 216.478 593.566C215.137 594.118 213.591 594.394 211.84 594.394C209.168 594.394 207.039 593.838 205.454 592.725C203.877 591.604 202.953 590.08 202.682 588.153L208.187 587.864C208.353 588.679 208.756 589.301 209.396 589.73C210.035 590.15 210.854 590.36 211.853 590.36C212.834 590.36 213.622 590.172 214.218 589.795C214.822 589.41 215.129 588.915 215.137 588.311C215.129 587.803 214.914 587.387 214.494 587.062C214.073 586.73 213.425 586.476 212.549 586.3L209.054 585.604C207.083 585.21 205.616 584.527 204.652 583.554C203.698 582.582 203.22 581.343 203.22 579.836C203.22 578.54 203.571 577.423 204.271 576.485C204.981 575.548 205.975 574.826 207.254 574.317C208.542 573.809 210.048 573.555 211.774 573.555C214.323 573.555 216.329 574.094 217.792 575.172C219.263 576.249 220.122 577.716 220.367 579.573ZM237.688 601.568V590.768H237.517C237.254 591.328 236.882 591.885 236.4 592.436C235.927 592.98 235.309 593.431 234.547 593.79C233.794 594.149 232.874 594.328 231.788 594.328C230.255 594.328 228.867 593.934 227.623 593.146C226.388 592.349 225.407 591.179 224.68 589.638C223.962 588.087 223.602 586.187 223.602 583.935C223.602 581.623 223.975 579.7 224.719 578.167C225.464 576.626 226.454 575.474 227.689 574.712C228.933 573.941 230.295 573.555 231.775 573.555C232.905 573.555 233.847 573.748 234.6 574.134C235.362 574.51 235.975 574.983 236.439 575.553C236.912 576.113 237.272 576.665 237.517 577.208H237.753V573.818H243.272V601.568H237.688ZM233.562 589.874C234.464 589.874 235.226 589.629 235.848 589.138C236.479 588.639 236.961 587.943 237.293 587.049C237.635 586.156 237.806 585.109 237.806 583.909C237.806 582.709 237.639 581.667 237.307 580.782C236.974 579.897 236.492 579.214 235.861 578.732C235.231 578.25 234.464 578.01 233.562 578.01C232.642 578.01 231.867 578.259 231.236 578.759C230.606 579.258 230.128 579.95 229.804 580.835C229.48 581.719 229.318 582.744 229.318 583.909C229.318 585.083 229.48 586.121 229.804 587.023C230.137 587.917 230.614 588.617 231.236 589.125C231.867 589.625 232.642 589.874 233.562 589.874ZM260.708 585.407V573.818H266.305V594H260.931V590.334H260.721C260.265 591.517 259.507 592.467 258.448 593.185C257.396 593.904 256.113 594.263 254.598 594.263C253.249 594.263 252.062 593.956 251.037 593.343C250.012 592.73 249.211 591.858 248.633 590.728C248.063 589.598 247.774 588.245 247.765 586.668V573.818H253.363V585.67C253.371 586.861 253.691 587.803 254.322 588.495C254.953 589.187 255.798 589.533 256.858 589.533C257.532 589.533 258.163 589.379 258.75 589.073C259.337 588.757 259.81 588.293 260.169 587.68C260.537 587.067 260.716 586.309 260.708 585.407ZM276.537 594.381C275.249 594.381 274.102 594.158 273.095 593.711C272.087 593.255 271.29 592.585 270.703 591.701C270.125 590.807 269.836 589.695 269.836 588.363C269.836 587.242 270.042 586.3 270.454 585.538C270.865 584.776 271.426 584.163 272.135 583.699C272.845 583.235 273.651 582.884 274.553 582.648C275.464 582.411 276.419 582.245 277.417 582.148C278.591 582.026 279.537 581.912 280.255 581.807C280.974 581.693 281.495 581.527 281.819 581.308C282.143 581.089 282.305 580.764 282.305 580.335V580.256C282.305 579.424 282.042 578.78 281.517 578.325C281 577.869 280.264 577.642 279.309 577.642C278.302 577.642 277.501 577.865 276.905 578.312C276.309 578.75 275.915 579.302 275.722 579.967L270.545 579.547C270.808 578.321 271.325 577.261 272.096 576.367C272.867 575.465 273.861 574.773 275.079 574.291C276.305 573.801 277.724 573.555 279.336 573.555C280.457 573.555 281.53 573.687 282.555 573.95C283.588 574.212 284.504 574.62 285.301 575.172C286.107 575.723 286.742 576.433 287.206 577.3C287.67 578.158 287.902 579.188 287.902 580.388V594H282.594V591.201H282.436C282.112 591.832 281.679 592.388 281.136 592.87C280.593 593.343 279.94 593.715 279.178 593.987C278.416 594.25 277.536 594.381 276.537 594.381ZM278.14 590.518C278.963 590.518 279.69 590.356 280.321 590.032C280.952 589.699 281.447 589.252 281.806 588.692C282.165 588.131 282.345 587.496 282.345 586.787V584.645C282.169 584.759 281.928 584.864 281.622 584.96C281.324 585.048 280.987 585.131 280.61 585.21C280.233 585.28 279.857 585.346 279.48 585.407C279.104 585.46 278.762 585.508 278.455 585.551C277.798 585.648 277.225 585.801 276.734 586.011C276.244 586.222 275.862 586.506 275.591 586.865C275.319 587.216 275.184 587.654 275.184 588.179C275.184 588.941 275.46 589.524 276.011 589.927C276.572 590.321 277.282 590.518 278.14 590.518ZM292.245 594V573.818H297.671V577.339H297.882C298.25 576.087 298.867 575.141 299.734 574.501C300.601 573.853 301.6 573.529 302.73 573.529C303.01 573.529 303.312 573.547 303.637 573.582C303.961 573.617 304.245 573.665 304.491 573.726V578.693C304.228 578.614 303.864 578.544 303.4 578.483C302.936 578.421 302.511 578.391 302.126 578.391C301.302 578.391 300.566 578.57 299.918 578.929C299.279 579.28 298.771 579.77 298.394 580.401C298.026 581.032 297.842 581.759 297.842 582.582V594H292.245ZM315.643 594.394C313.567 594.394 311.78 593.974 310.282 593.133C308.793 592.283 307.645 591.083 306.839 589.533C306.033 587.973 305.63 586.13 305.63 584.001C305.63 581.925 306.033 580.103 306.839 578.535C307.645 576.967 308.779 575.745 310.242 574.869C311.714 573.993 313.44 573.555 315.419 573.555C316.751 573.555 317.99 573.77 319.138 574.199C320.294 574.62 321.301 575.255 322.16 576.104C323.027 576.954 323.701 578.023 324.183 579.31C324.665 580.589 324.906 582.087 324.906 583.804V585.341H307.864V581.873H319.637C319.637 581.067 319.462 580.353 319.111 579.731C318.761 579.109 318.275 578.623 317.653 578.272C317.04 577.913 316.326 577.734 315.511 577.734C314.661 577.734 313.908 577.931 313.251 578.325C312.603 578.71 312.095 579.232 311.727 579.888C311.359 580.537 311.171 581.259 311.162 582.056V585.354C311.162 586.353 311.346 587.216 311.714 587.943C312.091 588.67 312.621 589.23 313.304 589.625C313.987 590.019 314.797 590.216 315.735 590.216C316.356 590.216 316.926 590.128 317.443 589.953C317.959 589.778 318.402 589.515 318.77 589.165C319.138 588.814 319.418 588.385 319.611 587.877L324.787 588.219C324.525 589.463 323.986 590.549 323.171 591.477C322.365 592.397 321.323 593.115 320.044 593.632C318.774 594.14 317.307 594.394 315.643 594.394Z" fill="white"/>
<path d="M272.71 248.149C314.323 281.015 359.836 335.06 395.002 391.15C412.653 419.303 427.668 447.924 438.265 474.581C448.872 501.266 455 525.857 455 545.988C455 653.969 365.539 771.865 236.503 771.865C172.099 771.864 120.505 738.06 84.9453 692.812C49.3585 647.529 30 590.987 30 545.988C30 527.344 35.7234 503.686 45.6709 477.505C55.6059 451.357 69.7014 422.83 86.3174 394.49C119.41 338.048 162.393 282.539 202.191 248.149H272.71Z" stroke="white" stroke-width="4"/>
<path d="M179.303 244.861L239.27 244.861L295.546 244.861" stroke="white" stroke-width="12" stroke-linecap="round"/>
<path d="M267.872 253.529C267.872 253.529 268.226 267.782 277.097 283.974C285.077 298.54 293.703 307.039 293.703 307.039" stroke="white" stroke-width="10" stroke-linecap="round"/>
<path d="M246.651 253.53C246.651 253.53 242.852 273.108 242.038 285.82C241.371 296.247 242.039 312.575 242.039 312.575" stroke="white" stroke-width="8" stroke-linecap="round"/>
<path d="M327.838 123.445C321.979 113.297 152.547 116.56 150.702 123.445C148.857 130.329 214.366 247.995 214.366 247.995H239.268H267.868C267.868 247.995 333.698 133.594 327.838 123.445Z" stroke="white" stroke-width="4"/>
<path d="M222.387 408.881C222.448 408.501 222.898 408.33 223.197 408.573L290.355 463.237C290.653 463.481 290.576 463.956 290.217 464.093L209.298 494.921C208.938 495.058 208.565 494.754 208.625 494.374L222.387 408.881Z" fill="#18181B" stroke="white" stroke-width="3"/>
<rect x="190.713" y="621.775" width="71.6847" height="71.6847" rx="3.5" transform="rotate(-8.87647 190.713 621.775)" stroke="white" stroke-width="3"/>
<rect x="1199.71" y="492.919" width="40.945" height="40.945" rx="3.5" transform="rotate(-8.87647 1199.71 492.919)" stroke="#0098D4" stroke-width="3"/>
<path d="M696.784 57.6758H690.096C689.974 56.8105 689.724 56.0419 689.347 55.37C688.971 54.688 688.487 54.1077 687.897 53.6293C687.306 53.1508 686.624 52.7843 685.851 52.5298C685.087 52.2753 684.257 52.1481 683.362 52.1481C681.743 52.1481 680.333 52.5502 679.132 53.3544C677.931 54.1484 676.999 55.3089 676.337 56.8359C675.676 58.3527 675.345 60.1953 675.345 62.3636C675.345 64.593 675.676 66.4661 676.337 67.983C677.009 69.4998 677.946 70.645 679.147 71.4187C680.348 72.1924 681.738 72.5792 683.316 72.5792C684.201 72.5792 685.021 72.4621 685.774 72.228C686.538 71.9938 687.215 71.6528 687.805 71.2049C688.396 70.7468 688.884 70.192 689.271 69.5405C689.668 68.889 689.943 68.1458 690.096 67.3111L696.784 67.3416C696.611 68.777 696.178 70.1615 695.486 71.495C694.804 72.8184 693.883 74.0044 692.722 75.0529C691.572 76.0913 690.197 76.9158 688.599 77.5266C687.011 78.1272 685.214 78.4276 683.209 78.4276C680.42 78.4276 677.926 77.7964 675.727 76.5341C673.538 75.2718 671.807 73.4445 670.535 71.0522C669.273 68.6599 668.641 65.7637 668.641 62.3636C668.641 58.9534 669.283 56.0521 670.565 53.6598C671.848 51.2675 673.589 49.4453 675.788 48.1932C677.987 46.9309 680.46 46.2997 683.209 46.2997C685.021 46.2997 686.701 46.5542 688.248 47.0632C689.806 47.5722 691.185 48.3153 692.386 49.2926C693.587 50.2597 694.565 51.4457 695.318 52.8505C696.081 54.2553 696.57 55.8638 696.784 57.6758ZM707.908 64.4403V78H701.403V46.7273H707.725V58.6836H708C708.529 57.2991 709.384 56.215 710.565 55.4311C711.746 54.6371 713.227 54.2401 715.008 54.2401C716.637 54.2401 718.057 54.5964 719.269 55.3089C720.49 56.0114 721.437 57.0243 722.109 58.3477C722.791 59.6609 723.127 61.2337 723.117 63.0661V78H716.612V64.2266C716.622 62.781 716.256 61.6561 715.512 60.8519C714.779 60.0477 713.751 59.6456 712.428 59.6456C711.542 59.6456 710.758 59.8339 710.076 60.2106C709.404 60.5872 708.875 61.137 708.488 61.8597C708.112 62.5723 707.918 63.4325 707.908 64.4403ZM728.236 78V54.5455H734.741V78H728.236ZM731.504 51.522C730.537 51.522 729.707 51.2013 729.015 50.56C728.333 49.9085 727.992 49.1297 727.992 48.2237C727.992 47.3279 728.333 46.5593 729.015 45.918C729.707 45.2665 730.537 44.9407 731.504 44.9407C732.471 44.9407 733.295 45.2665 733.977 45.918C734.67 46.5593 735.016 47.3279 735.016 48.2237C735.016 49.1297 734.67 49.9085 733.977 50.56C733.295 51.2013 732.471 51.522 731.504 51.522ZM746.457 46.7273V78H739.952V46.7273H746.457ZM760.31 78.3817C758.529 78.3817 756.915 77.9237 755.47 77.0075C754.034 76.0811 752.894 74.7221 752.049 72.9304C751.215 71.1286 750.797 68.9195 750.797 66.3033C750.797 63.6158 751.23 61.3813 752.095 59.5998C752.961 57.8081 754.111 56.4695 755.546 55.5838C756.992 54.688 758.575 54.2401 760.295 54.2401C761.608 54.2401 762.703 54.464 763.578 54.9119C764.464 55.3497 765.176 55.8994 765.716 56.5611C766.266 57.2126 766.683 57.8539 766.968 58.4851H767.167V46.7273H773.656V78H767.243V74.2436H766.968C766.663 74.8951 766.23 75.5415 765.67 76.1829C765.12 76.814 764.403 77.3383 763.517 77.7557C762.642 78.1731 761.573 78.3817 760.31 78.3817ZM762.372 73.2053C763.42 73.2053 764.306 72.9202 765.029 72.3501C765.762 71.7699 766.322 70.9606 766.708 69.9222C767.106 68.8839 767.304 67.6674 767.304 66.2727C767.304 64.8781 767.111 63.6667 766.724 62.6385C766.337 61.6103 765.777 60.8163 765.044 60.2564C764.311 59.6965 763.42 59.4165 762.372 59.4165C761.303 59.4165 760.402 59.7067 759.669 60.2869C758.936 60.8672 758.381 61.6714 758.005 62.6996C757.628 63.7277 757.44 64.9188 757.44 66.2727C757.44 67.6368 757.628 68.8432 758.005 69.8917C758.391 70.93 758.946 71.7444 759.669 72.3349C760.402 72.9151 761.303 73.2053 762.372 73.2053ZM794.469 78H787.384L798.18 46.7273H806.7L817.481 78H810.396L802.562 53.8736H802.318L794.469 78ZM794.026 65.7077H810.762V70.869H794.026V65.7077Z" fill="white"/>
<path d="M662.757 447L653.809 415.727H661.032L666.208 437.456H666.468L672.179 415.727H678.363L684.059 437.502H684.334L689.51 415.727H696.733L687.785 447H681.341L675.386 426.554H675.141L669.201 447H662.757ZM704.318 447.443C702.822 447.443 701.488 447.183 700.318 446.664C699.147 446.135 698.22 445.356 697.538 444.328C696.867 443.289 696.531 441.997 696.531 440.449C696.531 439.146 696.77 438.052 697.248 437.166C697.727 436.281 698.378 435.568 699.203 435.028C700.027 434.489 700.964 434.082 702.013 433.807C703.071 433.532 704.181 433.339 705.341 433.227C706.705 433.084 707.805 432.952 708.64 432.83C709.474 432.697 710.08 432.504 710.457 432.249C710.833 431.995 711.022 431.618 711.022 431.119V431.028C711.022 430.061 710.716 429.312 710.106 428.783C709.505 428.254 708.65 427.989 707.54 427.989C706.37 427.989 705.438 428.249 704.746 428.768C704.054 429.277 703.595 429.918 703.372 430.692L697.355 430.203C697.661 428.778 698.261 427.546 699.157 426.508C700.053 425.459 701.208 424.655 702.623 424.095C704.049 423.525 705.698 423.24 707.571 423.24C708.874 423.24 710.121 423.393 711.312 423.698C712.513 424.004 713.577 424.477 714.503 425.118C715.44 425.76 716.178 426.584 716.717 427.592C717.257 428.59 717.527 429.786 717.527 431.18V447H711.358V443.748H711.174C710.798 444.48 710.294 445.127 709.663 445.687C709.032 446.237 708.273 446.669 707.388 446.985C706.502 447.29 705.479 447.443 704.318 447.443ZM706.181 442.953C707.138 442.953 707.983 442.765 708.716 442.388C709.449 442.002 710.024 441.482 710.441 440.831C710.859 440.179 711.068 439.441 711.068 438.617V436.128C710.864 436.26 710.584 436.382 710.228 436.494C709.882 436.596 709.49 436.693 709.052 436.784C708.614 436.866 708.176 436.942 707.739 437.013C707.301 437.075 706.904 437.131 706.548 437.181C705.784 437.293 705.117 437.472 704.547 437.716C703.977 437.96 703.534 438.291 703.219 438.708C702.903 439.116 702.745 439.625 702.745 440.235C702.745 441.121 703.066 441.798 703.707 442.266C704.359 442.724 705.184 442.953 706.181 442.953ZM729.078 433.44V447H722.573V423.545H728.773V427.684H729.048C729.567 426.319 730.437 425.24 731.659 424.446C732.881 423.642 734.362 423.24 736.103 423.24C737.731 423.24 739.151 423.596 740.363 424.309C741.574 425.022 742.516 426.04 743.188 427.363C743.86 428.676 744.196 430.244 744.196 432.066V447H737.691V433.227C737.701 431.791 737.334 430.671 736.591 429.867C735.848 429.053 734.825 428.646 733.522 428.646C732.646 428.646 731.873 428.834 731.201 429.211C730.539 429.587 730.02 430.137 729.643 430.86C729.277 431.572 729.089 432.433 729.078 433.44ZM761.798 423.545V428.432H747.673V423.545H761.798ZM750.88 417.926H757.385V439.793C757.385 440.393 757.477 440.862 757.66 441.197C757.843 441.523 758.098 441.752 758.423 441.885C758.759 442.017 759.146 442.083 759.584 442.083C759.889 442.083 760.195 442.058 760.5 442.007C760.805 441.946 761.04 441.9 761.202 441.869L762.225 446.71C761.9 446.812 761.442 446.929 760.851 447.061C760.261 447.204 759.543 447.29 758.698 447.321C757.13 447.382 755.756 447.173 754.575 446.695C753.405 446.216 752.493 445.473 751.842 444.465C751.19 443.457 750.87 442.185 750.88 440.648V417.926ZM785.256 430.234L779.301 430.6C779.199 430.091 778.98 429.633 778.644 429.226C778.309 428.808 777.866 428.478 777.316 428.233C776.776 427.979 776.13 427.852 775.377 427.852C774.369 427.852 773.519 428.065 772.827 428.493C772.134 428.91 771.788 429.47 771.788 430.173C771.788 430.732 772.012 431.206 772.46 431.593C772.908 431.98 773.677 432.29 774.766 432.524L779.011 433.379C781.291 433.848 782.991 434.601 784.111 435.639C785.231 436.678 785.791 438.042 785.791 439.732C785.791 441.269 785.338 442.618 784.432 443.778C783.536 444.939 782.304 445.845 780.736 446.496C779.179 447.137 777.382 447.458 775.346 447.458C772.241 447.458 769.768 446.812 767.925 445.519C766.093 444.216 765.019 442.444 764.703 440.205L771.101 439.869C771.295 440.816 771.763 441.538 772.506 442.037C773.249 442.526 774.201 442.77 775.361 442.77C776.502 442.77 777.418 442.551 778.11 442.114C778.812 441.666 779.169 441.091 779.179 440.388C779.169 439.798 778.919 439.314 778.431 438.938C777.942 438.551 777.189 438.255 776.171 438.052L772.109 437.243C769.818 436.784 768.113 435.99 766.994 434.86C765.884 433.73 765.329 432.29 765.329 430.539C765.329 429.032 765.736 427.734 766.551 426.645C767.375 425.556 768.531 424.716 770.017 424.126C771.513 423.535 773.264 423.24 775.27 423.24C778.232 423.24 780.563 423.866 782.263 425.118C783.974 426.37 784.971 428.076 785.256 430.234ZM793.689 447.397C792.681 447.397 791.816 447.041 791.093 446.328C790.381 445.605 790.024 444.74 790.024 443.732C790.024 442.735 790.381 441.879 791.093 441.167C791.816 440.454 792.681 440.098 793.689 440.098C794.666 440.098 795.521 440.454 796.254 441.167C796.987 441.879 797.354 442.735 797.354 443.732C797.354 444.404 797.181 445.02 796.835 445.58C796.499 446.13 796.056 446.572 795.506 446.908C794.956 447.234 794.351 447.397 793.689 447.397ZM793.689 430.967C792.681 430.967 791.816 430.61 791.093 429.898C790.381 429.185 790.024 428.32 790.024 427.302C790.024 426.304 790.381 425.454 791.093 424.752C791.816 424.039 792.681 423.683 793.689 423.683C794.666 423.683 795.521 424.039 796.254 424.752C796.987 425.454 797.354 426.304 797.354 427.302C797.354 427.984 797.181 428.605 796.835 429.165C796.499 429.714 796.056 430.152 795.506 430.478C794.956 430.804 794.351 430.967 793.689 430.967Z" fill="white"/>
<path d="M929.757 447L920.809 415.727H928.032L933.208 437.456H933.468L939.179 415.727H945.363L951.059 437.502H951.334L956.51 415.727H963.733L954.785 447H948.341L942.386 426.554H942.141L936.201 447H929.757ZM971.318 447.443C969.822 447.443 968.488 447.183 967.318 446.664C966.147 446.135 965.22 445.356 964.538 444.328C963.867 443.289 963.531 441.997 963.531 440.449C963.531 439.146 963.77 438.052 964.248 437.166C964.727 436.281 965.378 435.568 966.203 435.028C967.027 434.489 967.964 434.082 969.013 433.807C970.071 433.532 971.181 433.339 972.341 433.227C973.705 433.084 974.805 432.952 975.64 432.83C976.474 432.697 977.08 432.504 977.457 432.249C977.833 431.995 978.022 431.618 978.022 431.119V431.028C978.022 430.061 977.716 429.312 977.106 428.783C976.505 428.254 975.65 427.989 974.54 427.989C973.37 427.989 972.438 428.249 971.746 428.768C971.054 429.277 970.595 429.918 970.372 430.692L964.355 430.203C964.661 428.778 965.261 427.546 966.157 426.508C967.053 425.459 968.208 424.655 969.623 424.095C971.049 423.525 972.698 423.24 974.571 423.24C975.874 423.24 977.121 423.393 978.312 423.698C979.513 424.004 980.577 424.477 981.503 425.118C982.44 425.76 983.178 426.584 983.717 427.592C984.257 428.59 984.527 429.786 984.527 431.18V447H978.358V443.748H978.174C977.798 444.48 977.294 445.127 976.663 445.687C976.032 446.237 975.273 446.669 974.388 446.985C973.502 447.29 972.479 447.443 971.318 447.443ZM973.181 442.953C974.138 442.953 974.983 442.765 975.716 442.388C976.449 442.002 977.024 441.482 977.441 440.831C977.859 440.179 978.068 439.441 978.068 438.617V436.128C977.864 436.26 977.584 436.382 977.228 436.494C976.882 436.596 976.49 436.693 976.052 436.784C975.614 436.866 975.176 436.942 974.739 437.013C974.301 437.075 973.904 437.131 973.548 437.181C972.784 437.293 972.117 437.472 971.547 437.716C970.977 437.96 970.534 438.291 970.219 438.708C969.903 439.116 969.745 439.625 969.745 440.235C969.745 441.121 970.066 441.798 970.707 442.266C971.359 442.724 972.184 442.953 973.181 442.953ZM996.078 433.44V447H989.573V423.545H995.773V427.684H996.048C996.567 426.319 997.437 425.24 998.659 424.446C999.881 423.642 1001.36 423.24 1003.1 423.24C1004.73 423.24 1006.15 423.596 1007.36 424.309C1008.57 425.022 1009.52 426.04 1010.19 427.363C1010.86 428.676 1011.2 430.244 1011.2 432.066V447H1004.69V433.227C1004.7 431.791 1004.33 430.671 1003.59 429.867C1002.85 429.053 1001.82 428.646 1000.52 428.646C999.646 428.646 998.873 428.834 998.201 429.211C997.539 429.587 997.02 430.137 996.643 430.86C996.277 431.572 996.089 432.433 996.078 433.44ZM1028.8 423.545V428.432H1014.67V423.545H1028.8ZM1017.88 417.926H1024.38V439.793C1024.38 440.393 1024.48 440.862 1024.66 441.197C1024.84 441.523 1025.1 441.752 1025.42 441.885C1025.76 442.017 1026.15 442.083 1026.58 442.083C1026.89 442.083 1027.19 442.058 1027.5 442.007C1027.81 441.946 1028.04 441.9 1028.2 441.869L1029.23 446.71C1028.9 446.812 1028.44 446.929 1027.85 447.061C1027.26 447.204 1026.54 447.29 1025.7 447.321C1024.13 447.382 1022.76 447.173 1021.58 446.695C1020.4 446.216 1019.49 445.473 1018.84 444.465C1018.19 443.457 1017.87 442.185 1017.88 440.648V417.926ZM1052.26 430.234L1046.3 430.6C1046.2 430.091 1045.98 429.633 1045.64 429.226C1045.31 428.808 1044.87 428.478 1044.32 428.233C1043.78 427.979 1043.13 427.852 1042.38 427.852C1041.37 427.852 1040.52 428.065 1039.83 428.493C1039.13 428.91 1038.79 429.47 1038.79 430.173C1038.79 430.732 1039.01 431.206 1039.46 431.593C1039.91 431.98 1040.68 432.29 1041.77 432.524L1046.01 433.379C1048.29 433.848 1049.99 434.601 1051.11 435.639C1052.23 436.678 1052.79 438.042 1052.79 439.732C1052.79 441.269 1052.34 442.618 1051.43 443.778C1050.54 444.939 1049.3 445.845 1047.74 446.496C1046.18 447.137 1044.38 447.458 1042.35 447.458C1039.24 447.458 1036.77 446.812 1034.92 445.519C1033.09 444.216 1032.02 442.444 1031.7 440.205L1038.1 439.869C1038.29 440.816 1038.76 441.538 1039.51 442.037C1040.25 442.526 1041.2 442.77 1042.36 442.77C1043.5 442.77 1044.42 442.551 1045.11 442.114C1045.81 441.666 1046.17 441.091 1046.18 440.388C1046.17 439.798 1045.92 439.314 1045.43 438.938C1044.94 438.551 1044.19 438.255 1043.17 438.052L1039.11 437.243C1036.82 436.784 1035.11 435.99 1033.99 434.86C1032.88 433.73 1032.33 432.29 1032.33 430.539C1032.33 429.032 1032.74 427.734 1033.55 426.645C1034.38 425.556 1035.53 424.716 1037.02 424.126C1038.51 423.535 1040.26 423.24 1042.27 423.24C1045.23 423.24 1047.56 423.866 1049.26 425.118C1050.97 426.37 1051.97 428.076 1052.26 430.234ZM1060.69 447.397C1059.68 447.397 1058.82 447.041 1058.09 446.328C1057.38 445.605 1057.02 444.74 1057.02 443.732C1057.02 442.735 1057.38 441.879 1058.09 441.167C1058.82 440.454 1059.68 440.098 1060.69 440.098C1061.67 440.098 1062.52 440.454 1063.25 441.167C1063.99 441.879 1064.35 442.735 1064.35 443.732C1064.35 444.404 1064.18 445.02 1063.83 445.58C1063.5 446.13 1063.06 446.572 1062.51 446.908C1061.96 447.234 1061.35 447.397 1060.69 447.397ZM1060.69 430.967C1059.68 430.967 1058.82 430.61 1058.09 429.898C1057.38 429.185 1057.02 428.32 1057.02 427.302C1057.02 426.304 1057.38 425.454 1058.09 424.752C1058.82 424.039 1059.68 423.683 1060.69 423.683C1061.67 423.683 1062.52 424.039 1063.25 424.752C1063.99 425.454 1064.35 426.304 1064.35 427.302C1064.35 427.984 1064.18 428.605 1063.83 429.165C1063.5 429.714 1063.06 430.152 1062.51 430.478C1061.96 430.804 1061.35 430.967 1060.69 430.967Z" fill="white"/>
<path d="M1197.76 447L1188.81 415.727H1196.03L1201.21 437.456H1201.47L1207.18 415.727H1213.36L1219.06 437.502H1219.33L1224.51 415.727H1231.73L1222.78 447H1216.34L1210.39 426.554H1210.14L1204.2 447H1197.76ZM1239.32 447.443C1237.82 447.443 1236.49 447.183 1235.32 446.664C1234.15 446.135 1233.22 445.356 1232.54 444.328C1231.87 443.289 1231.53 441.997 1231.53 440.449C1231.53 439.146 1231.77 438.052 1232.25 437.166C1232.73 436.281 1233.38 435.568 1234.2 435.028C1235.03 434.489 1235.96 434.082 1237.01 433.807C1238.07 433.532 1239.18 433.339 1240.34 433.227C1241.71 433.084 1242.8 432.952 1243.64 432.83C1244.47 432.697 1245.08 432.504 1245.46 432.249C1245.83 431.995 1246.02 431.618 1246.02 431.119V431.028C1246.02 430.061 1245.72 429.312 1245.11 428.783C1244.5 428.254 1243.65 427.989 1242.54 427.989C1241.37 427.989 1240.44 428.249 1239.75 428.768C1239.05 429.277 1238.6 429.918 1238.37 430.692L1232.36 430.203C1232.66 428.778 1233.26 427.546 1234.16 426.508C1235.05 425.459 1236.21 424.655 1237.62 424.095C1239.05 423.525 1240.7 423.24 1242.57 423.24C1243.87 423.24 1245.12 423.393 1246.31 423.698C1247.51 424.004 1248.58 424.477 1249.5 425.118C1250.44 425.76 1251.18 426.584 1251.72 427.592C1252.26 428.59 1252.53 429.786 1252.53 431.18V447H1246.36V443.748H1246.17C1245.8 444.48 1245.29 445.127 1244.66 445.687C1244.03 446.237 1243.27 446.669 1242.39 446.985C1241.5 447.29 1240.48 447.443 1239.32 447.443ZM1241.18 442.953C1242.14 442.953 1242.98 442.765 1243.72 442.388C1244.45 442.002 1245.02 441.482 1245.44 440.831C1245.86 440.179 1246.07 439.441 1246.07 438.617V436.128C1245.86 436.26 1245.58 436.382 1245.23 436.494C1244.88 436.596 1244.49 436.693 1244.05 436.784C1243.61 436.866 1243.18 436.942 1242.74 437.013C1242.3 437.075 1241.9 437.131 1241.55 437.181C1240.78 437.293 1240.12 437.472 1239.55 437.716C1238.98 437.96 1238.53 438.291 1238.22 438.708C1237.9 439.116 1237.75 439.625 1237.75 440.235C1237.75 441.121 1238.07 441.798 1238.71 442.266C1239.36 442.724 1240.18 442.953 1241.18 442.953ZM1264.08 433.44V447H1257.57V423.545H1263.77V427.684H1264.05C1264.57 426.319 1265.44 425.24 1266.66 424.446C1267.88 423.642 1269.36 423.24 1271.1 423.24C1272.73 423.24 1274.15 423.596 1275.36 424.309C1276.57 425.022 1277.52 426.04 1278.19 427.363C1278.86 428.676 1279.2 430.244 1279.2 432.066V447H1272.69V433.227C1272.7 431.791 1272.33 430.671 1271.59 429.867C1270.85 429.053 1269.82 428.646 1268.52 428.646C1267.65 428.646 1266.87 428.834 1266.2 429.211C1265.54 429.587 1265.02 430.137 1264.64 430.86C1264.28 431.572 1264.09 432.433 1264.08 433.44ZM1296.8 423.545V428.432H1282.67V423.545H1296.8ZM1285.88 417.926H1292.38V439.793C1292.38 440.393 1292.48 440.862 1292.66 441.197C1292.84 441.523 1293.1 441.752 1293.42 441.885C1293.76 442.017 1294.15 442.083 1294.58 442.083C1294.89 442.083 1295.19 442.058 1295.5 442.007C1295.81 441.946 1296.04 441.9 1296.2 441.869L1297.23 446.71C1296.9 446.812 1296.44 446.929 1295.85 447.061C1295.26 447.204 1294.54 447.29 1293.7 447.321C1292.13 447.382 1290.76 447.173 1289.58 446.695C1288.4 446.216 1287.49 445.473 1286.84 444.465C1286.19 443.457 1285.87 442.185 1285.88 440.648V417.926ZM1320.26 430.234L1314.3 430.6C1314.2 430.091 1313.98 429.633 1313.64 429.226C1313.31 428.808 1312.87 428.478 1312.32 428.233C1311.78 427.979 1311.13 427.852 1310.38 427.852C1309.37 427.852 1308.52 428.065 1307.83 428.493C1307.13 428.91 1306.79 429.47 1306.79 430.173C1306.79 430.732 1307.01 431.206 1307.46 431.593C1307.91 431.98 1308.68 432.29 1309.77 432.524L1314.01 433.379C1316.29 433.848 1317.99 434.601 1319.11 435.639C1320.23 436.678 1320.79 438.042 1320.79 439.732C1320.79 441.269 1320.34 442.618 1319.43 443.778C1318.54 444.939 1317.3 445.845 1315.74 446.496C1314.18 447.137 1312.38 447.458 1310.35 447.458C1307.24 447.458 1304.77 446.812 1302.92 445.519C1301.09 444.216 1300.02 442.444 1299.7 440.205L1306.1 439.869C1306.29 440.816 1306.76 441.538 1307.51 442.037C1308.25 442.526 1309.2 442.77 1310.36 442.77C1311.5 442.77 1312.42 442.551 1313.11 442.114C1313.81 441.666 1314.17 441.091 1314.18 440.388C1314.17 439.798 1313.92 439.314 1313.43 438.938C1312.94 438.551 1312.19 438.255 1311.17 438.052L1307.11 437.243C1304.82 436.784 1303.11 435.99 1301.99 434.86C1300.88 433.73 1300.33 432.29 1300.33 430.539C1300.33 429.032 1300.74 427.734 1301.55 426.645C1302.38 425.556 1303.53 424.716 1305.02 424.126C1306.51 423.535 1308.26 423.24 1310.27 423.24C1313.23 423.24 1315.56 423.866 1317.26 425.118C1318.97 426.37 1319.97 428.076 1320.26 430.234ZM1328.69 447.397C1327.68 447.397 1326.82 447.041 1326.09 446.328C1325.38 445.605 1325.02 444.74 1325.02 443.732C1325.02 442.735 1325.38 441.879 1326.09 441.167C1326.82 440.454 1327.68 440.098 1328.69 440.098C1329.67 440.098 1330.52 440.454 1331.25 441.167C1331.99 441.879 1332.35 442.735 1332.35 443.732C1332.35 444.404 1332.18 445.02 1331.83 445.58C1331.5 446.13 1331.06 446.572 1330.51 446.908C1329.96 447.234 1329.35 447.397 1328.69 447.397ZM1328.69 430.967C1327.68 430.967 1326.82 430.61 1326.09 429.898C1325.38 429.185 1325.02 428.32 1325.02 427.302C1325.02 426.304 1325.38 425.454 1326.09 424.752C1326.82 424.039 1327.68 423.683 1328.69 423.683C1329.67 423.683 1330.52 424.039 1331.25 424.752C1331.99 425.454 1332.35 426.304 1332.35 427.302C1332.35 427.984 1332.18 428.605 1331.83 429.165C1331.5 429.714 1331.06 430.152 1330.51 430.478C1329.96 430.804 1329.35 430.967 1328.69 430.967Z" fill="white"/>
<path d="M654.718 618V586.727H661.33V599.63H674.752V586.727H681.349V618H674.752V605.082H661.33V618H654.718ZM693.366 618.443C691.87 618.443 690.536 618.183 689.365 617.664C688.195 617.135 687.268 616.356 686.586 615.328C685.914 614.289 685.578 612.997 685.578 611.449C685.578 610.146 685.818 609.052 686.296 608.166C686.775 607.281 687.426 606.568 688.251 606.028C689.075 605.489 690.012 605.082 691.06 604.807C692.119 604.532 693.229 604.339 694.389 604.227C695.753 604.084 696.853 603.952 697.688 603.83C698.522 603.697 699.128 603.504 699.505 603.249C699.881 602.995 700.07 602.618 700.07 602.119V602.028C700.07 601.061 699.764 600.312 699.153 599.783C698.553 599.254 697.698 598.989 696.588 598.989C695.417 598.989 694.486 599.249 693.794 599.768C693.101 600.277 692.643 600.918 692.419 601.692L686.403 601.203C686.708 599.778 687.309 598.546 688.205 597.508C689.101 596.459 690.256 595.655 691.671 595.095C693.096 594.525 694.746 594.24 696.619 594.24C697.922 594.24 699.169 594.393 700.36 594.698C701.561 595.004 702.625 595.477 703.551 596.118C704.488 596.76 705.226 597.584 705.765 598.592C706.305 599.59 706.575 600.786 706.575 602.18V618H700.406V614.748H700.222C699.846 615.48 699.342 616.127 698.711 616.687C698.079 617.237 697.321 617.669 696.435 617.985C695.55 618.29 694.527 618.443 693.366 618.443ZM695.229 613.953C696.186 613.953 697.031 613.765 697.764 613.388C698.497 613.002 699.072 612.482 699.489 611.831C699.907 611.179 700.115 610.441 700.115 609.617V607.128C699.912 607.26 699.632 607.382 699.276 607.494C698.929 607.596 698.538 607.693 698.1 607.784C697.662 607.866 697.224 607.942 696.787 608.013C696.349 608.075 695.952 608.131 695.596 608.181C694.832 608.293 694.165 608.472 693.595 608.716C693.025 608.96 692.582 609.291 692.267 609.708C691.951 610.116 691.793 610.625 691.793 611.235C691.793 612.121 692.114 612.798 692.755 613.266C693.407 613.724 694.231 613.953 695.229 613.953ZM731.136 601.234L725.181 601.6C725.079 601.091 724.86 600.633 724.524 600.226C724.188 599.808 723.746 599.478 723.196 599.233C722.656 598.979 722.01 598.852 721.257 598.852C720.249 598.852 719.399 599.065 718.706 599.493C718.014 599.91 717.668 600.47 717.668 601.173C717.668 601.732 717.892 602.206 718.34 602.593C718.788 602.98 719.557 603.29 720.646 603.524L724.891 604.379C727.171 604.848 728.871 605.601 729.991 606.639C731.111 607.678 731.671 609.042 731.671 610.732C731.671 612.269 731.218 613.618 730.312 614.778C729.416 615.939 728.184 616.845 726.616 617.496C725.059 618.137 723.262 618.458 721.226 618.458C718.121 618.458 715.647 617.812 713.805 616.519C711.972 615.216 710.898 613.444 710.583 611.205L716.981 610.869C717.174 611.816 717.643 612.538 718.386 613.037C719.129 613.526 720.081 613.77 721.241 613.77C722.381 613.77 723.298 613.551 723.99 613.114C724.692 612.666 725.049 612.091 725.059 611.388C725.049 610.798 724.799 610.314 724.311 609.938C723.822 609.551 723.069 609.255 722.051 609.052L717.989 608.243C715.698 607.784 713.993 606.99 712.873 605.86C711.764 604.73 711.209 603.29 711.209 601.539C711.209 600.032 711.616 598.734 712.431 597.645C713.255 596.556 714.411 595.716 715.897 595.126C717.393 594.535 719.144 594.24 721.15 594.24C724.112 594.24 726.443 594.866 728.143 596.118C729.854 597.37 730.851 599.076 731.136 601.234ZM739.569 618.397C738.561 618.397 737.696 618.041 736.973 617.328C736.261 616.605 735.904 615.74 735.904 614.732C735.904 613.735 736.261 612.879 736.973 612.167C737.696 611.454 738.561 611.098 739.569 611.098C740.546 611.098 741.401 611.454 742.134 612.167C742.867 612.879 743.234 613.735 743.234 614.732C743.234 615.404 743.061 616.02 742.715 616.58C742.379 617.13 741.936 617.572 741.386 617.908C740.836 618.234 740.231 618.397 739.569 618.397ZM739.569 601.967C738.561 601.967 737.696 601.61 736.973 600.898C736.261 600.185 735.904 599.32 735.904 598.302C735.904 597.304 736.261 596.454 736.973 595.752C737.696 595.039 738.561 594.683 739.569 594.683C740.546 594.683 741.401 595.039 742.134 595.752C742.867 596.454 743.234 597.304 743.234 598.302C743.234 598.984 743.061 599.605 742.715 600.165C742.379 600.714 741.936 601.152 741.386 601.478C740.836 601.804 740.231 601.967 739.569 601.967Z" fill="white"/>
<path d="M921.718 618V586.727H928.33V599.63H941.752V586.727H948.349V618H941.752V605.082H928.33V618H921.718ZM960.366 618.443C958.87 618.443 957.536 618.183 956.365 617.664C955.195 617.135 954.268 616.356 953.586 615.328C952.914 614.289 952.578 612.997 952.578 611.449C952.578 610.146 952.818 609.052 953.296 608.166C953.775 607.281 954.426 606.568 955.251 606.028C956.075 605.489 957.012 605.082 958.06 604.807C959.119 604.532 960.229 604.339 961.389 604.227C962.753 604.084 963.853 603.952 964.688 603.83C965.522 603.697 966.128 603.504 966.505 603.249C966.881 602.995 967.07 602.618 967.07 602.119V602.028C967.07 601.061 966.764 600.312 966.153 599.783C965.553 599.254 964.698 598.989 963.588 598.989C962.417 598.989 961.486 599.249 960.794 599.768C960.101 600.277 959.643 600.918 959.419 601.692L953.403 601.203C953.708 599.778 954.309 598.546 955.205 597.508C956.101 596.459 957.256 595.655 958.671 595.095C960.096 594.525 961.746 594.24 963.619 594.24C964.922 594.24 966.169 594.393 967.36 594.698C968.561 595.004 969.625 595.477 970.551 596.118C971.488 596.76 972.226 597.584 972.765 598.592C973.305 599.59 973.575 600.786 973.575 602.18V618H967.406V614.748H967.222C966.846 615.48 966.342 616.127 965.711 616.687C965.079 617.237 964.321 617.669 963.435 617.985C962.55 618.29 961.527 618.443 960.366 618.443ZM962.229 613.953C963.186 613.953 964.031 613.765 964.764 613.388C965.497 613.002 966.072 612.482 966.489 611.831C966.907 611.179 967.115 610.441 967.115 609.617V607.128C966.912 607.26 966.632 607.382 966.276 607.494C965.929 607.596 965.538 607.693 965.1 607.784C964.662 607.866 964.224 607.942 963.787 608.013C963.349 608.075 962.952 608.131 962.596 608.181C961.832 608.293 961.165 608.472 960.595 608.716C960.025 608.96 959.582 609.291 959.267 609.708C958.951 610.116 958.793 610.625 958.793 611.235C958.793 612.121 959.114 612.798 959.755 613.266C960.407 613.724 961.231 613.953 962.229 613.953ZM998.136 601.234L992.181 601.6C992.079 601.091 991.86 600.633 991.524 600.226C991.188 599.808 990.746 599.478 990.196 599.233C989.656 598.979 989.01 598.852 988.257 598.852C987.249 598.852 986.399 599.065 985.706 599.493C985.014 599.91 984.668 600.47 984.668 601.173C984.668 601.732 984.892 602.206 985.34 602.593C985.788 602.98 986.557 603.29 987.646 603.524L991.891 604.379C994.171 604.848 995.871 605.601 996.991 606.639C998.111 607.678 998.671 609.042 998.671 610.732C998.671 612.269 998.218 613.618 997.312 614.778C996.416 615.939 995.184 616.845 993.616 617.496C992.059 618.137 990.262 618.458 988.226 618.458C985.121 618.458 982.647 617.812 980.805 616.519C978.972 615.216 977.898 613.444 977.583 611.205L983.981 610.869C984.174 611.816 984.643 612.538 985.386 613.037C986.129 613.526 987.081 613.77 988.241 613.77C989.381 613.77 990.298 613.551 990.99 613.114C991.692 612.666 992.049 612.091 992.059 611.388C992.049 610.798 991.799 610.314 991.311 609.938C990.822 609.551 990.069 609.255 989.051 609.052L984.989 608.243C982.698 607.784 980.993 606.99 979.873 605.86C978.764 604.73 978.209 603.29 978.209 601.539C978.209 600.032 978.616 598.734 979.431 597.645C980.255 596.556 981.411 595.716 982.897 595.126C984.393 594.535 986.144 594.24 988.15 594.24C991.112 594.24 993.443 594.866 995.143 596.118C996.854 597.37 997.851 599.076 998.136 601.234ZM1006.57 618.397C1005.56 618.397 1004.7 618.041 1003.97 617.328C1003.26 616.605 1002.9 615.74 1002.9 614.732C1002.9 613.735 1003.26 612.879 1003.97 612.167C1004.7 611.454 1005.56 611.098 1006.57 611.098C1007.55 611.098 1008.4 611.454 1009.13 612.167C1009.87 612.879 1010.23 613.735 1010.23 614.732C1010.23 615.404 1010.06 616.02 1009.71 616.58C1009.38 617.13 1008.94 617.572 1008.39 617.908C1007.84 618.234 1007.23 618.397 1006.57 618.397ZM1006.57 601.967C1005.56 601.967 1004.7 601.61 1003.97 600.898C1003.26 600.185 1002.9 599.32 1002.9 598.302C1002.9 597.304 1003.26 596.454 1003.97 595.752C1004.7 595.039 1005.56 594.683 1006.57 594.683C1007.55 594.683 1008.4 595.039 1009.13 595.752C1009.87 596.454 1010.23 597.304 1010.23 598.302C1010.23 598.984 1010.06 599.605 1009.71 600.165C1009.38 600.714 1008.94 601.152 1008.39 601.478C1007.84 601.804 1007.23 601.967 1006.57 601.967Z" fill="white"/>
<path d="M1189.72 618V586.727H1196.33V599.63H1209.75V586.727H1216.35V618H1209.75V605.082H1196.33V618H1189.72ZM1228.37 618.443C1226.87 618.443 1225.54 618.183 1224.37 617.664C1223.19 617.135 1222.27 616.356 1221.59 615.328C1220.91 614.289 1220.58 612.997 1220.58 611.449C1220.58 610.146 1220.82 609.052 1221.3 608.166C1221.77 607.281 1222.43 606.568 1223.25 606.028C1224.08 605.489 1225.01 605.082 1226.06 604.807C1227.12 604.532 1228.23 604.339 1229.39 604.227C1230.75 604.084 1231.85 603.952 1232.69 603.83C1233.52 603.697 1234.13 603.504 1234.5 603.249C1234.88 602.995 1235.07 602.618 1235.07 602.119V602.028C1235.07 601.061 1234.76 600.312 1234.15 599.783C1233.55 599.254 1232.7 598.989 1231.59 598.989C1230.42 598.989 1229.49 599.249 1228.79 599.768C1228.1 600.277 1227.64 600.918 1227.42 601.692L1221.4 601.203C1221.71 599.778 1222.31 598.546 1223.2 597.508C1224.1 596.459 1225.26 595.655 1226.67 595.095C1228.1 594.525 1229.75 594.24 1231.62 594.24C1232.92 594.24 1234.17 594.393 1235.36 594.698C1236.56 595.004 1237.62 595.477 1238.55 596.118C1239.49 596.76 1240.23 597.584 1240.77 598.592C1241.3 599.59 1241.57 600.786 1241.57 602.18V618H1235.41V614.748H1235.22C1234.85 615.48 1234.34 616.127 1233.71 616.687C1233.08 617.237 1232.32 617.669 1231.44 617.985C1230.55 618.29 1229.53 618.443 1228.37 618.443ZM1230.23 613.953C1231.19 613.953 1232.03 613.765 1232.76 613.388C1233.5 613.002 1234.07 612.482 1234.49 611.831C1234.91 611.179 1235.12 610.441 1235.12 609.617V607.128C1234.91 607.26 1234.63 607.382 1234.28 607.494C1233.93 607.596 1233.54 607.693 1233.1 607.784C1232.66 607.866 1232.22 607.942 1231.79 608.013C1231.35 608.075 1230.95 608.131 1230.6 608.181C1229.83 608.293 1229.17 608.472 1228.6 608.716C1228.03 608.96 1227.58 609.291 1227.27 609.708C1226.95 610.116 1226.79 610.625 1226.79 611.235C1226.79 612.121 1227.11 612.798 1227.76 613.266C1228.41 613.724 1229.23 613.953 1230.23 613.953ZM1266.14 601.234L1260.18 601.6C1260.08 601.091 1259.86 600.633 1259.52 600.226C1259.19 599.808 1258.75 599.478 1258.2 599.233C1257.66 598.979 1257.01 598.852 1256.26 598.852C1255.25 598.852 1254.4 599.065 1253.71 599.493C1253.01 599.91 1252.67 600.47 1252.67 601.173C1252.67 601.732 1252.89 602.206 1253.34 602.593C1253.79 602.98 1254.56 603.29 1255.65 603.524L1259.89 604.379C1262.17 604.848 1263.87 605.601 1264.99 606.639C1266.11 607.678 1266.67 609.042 1266.67 610.732C1266.67 612.269 1266.22 613.618 1265.31 614.778C1264.42 615.939 1263.18 616.845 1261.62 617.496C1260.06 618.137 1258.26 618.458 1256.23 618.458C1253.12 618.458 1250.65 617.812 1248.8 616.519C1246.97 615.216 1245.9 613.444 1245.58 611.205L1251.98 610.869C1252.17 611.816 1252.64 612.538 1253.39 613.037C1254.13 613.526 1255.08 613.77 1256.24 613.77C1257.38 613.77 1258.3 613.551 1258.99 613.114C1259.69 612.666 1260.05 612.091 1260.06 611.388C1260.05 610.798 1259.8 610.314 1259.31 609.938C1258.82 609.551 1258.07 609.255 1257.05 609.052L1252.99 608.243C1250.7 607.784 1248.99 606.99 1247.87 605.86C1246.76 604.73 1246.21 603.29 1246.21 601.539C1246.21 600.032 1246.62 598.734 1247.43 597.645C1248.26 596.556 1249.41 595.716 1250.9 595.126C1252.39 594.535 1254.14 594.24 1256.15 594.24C1259.11 594.24 1261.44 594.866 1263.14 596.118C1264.85 597.37 1265.85 599.076 1266.14 601.234ZM1274.57 618.397C1273.56 618.397 1272.7 618.041 1271.97 617.328C1271.26 616.605 1270.9 615.74 1270.9 614.732C1270.9 613.735 1271.26 612.879 1271.97 612.167C1272.7 611.454 1273.56 611.098 1274.57 611.098C1275.55 611.098 1276.4 611.454 1277.13 612.167C1277.87 612.879 1278.23 613.735 1278.23 614.732C1278.23 615.404 1278.06 616.02 1277.71 616.58C1277.38 617.13 1276.94 617.572 1276.39 617.908C1275.84 618.234 1275.23 618.397 1274.57 618.397ZM1274.57 601.967C1273.56 601.967 1272.7 601.61 1271.97 600.898C1271.26 600.185 1270.9 599.32 1270.9 598.302C1270.9 597.304 1271.26 596.454 1271.97 595.752C1272.7 595.039 1273.56 594.683 1274.57 594.683C1275.55 594.683 1276.4 595.039 1277.13 595.752C1277.87 596.454 1278.23 597.304 1278.23 598.302C1278.23 598.984 1278.06 599.605 1277.71 600.165C1277.38 600.714 1276.94 601.152 1276.39 601.478C1275.84 601.804 1275.23 601.967 1274.57 601.967Z" fill="white"/>
<path d="M1204.21 673.577V678.739H1189.95V673.577H1204.21Z" fill="white"/>
<path d="M965.653 57.6758H958.964C958.842 56.8105 958.593 56.0419 958.216 55.37C957.839 54.688 957.356 54.1077 956.765 53.6293C956.175 53.1508 955.493 52.7843 954.719 52.5298C953.956 52.2753 953.126 52.1481 952.23 52.1481C950.612 52.1481 949.202 52.5502 948.001 53.3544C946.799 54.1484 945.868 55.3089 945.206 56.8359C944.544 58.3527 944.214 60.1953 944.214 62.3636C944.214 64.593 944.544 66.4661 945.206 67.983C945.878 69.4998 946.815 70.645 948.016 71.4187C949.217 72.1924 950.607 72.5792 952.184 72.5792C953.07 72.5792 953.89 72.4621 954.643 72.228C955.406 71.9938 956.083 71.6528 956.674 71.2049C957.264 70.7468 957.753 70.192 958.14 69.5405C958.537 68.889 958.812 68.1458 958.964 67.3111L965.653 67.3416C965.479 68.777 965.047 70.1615 964.355 71.495C963.673 72.8184 962.751 74.0044 961.591 75.0529C960.44 76.0913 959.066 76.9158 957.468 77.5266C955.88 78.1272 954.083 78.4276 952.078 78.4276C949.288 78.4276 946.794 77.7964 944.595 76.5341C942.407 75.2718 940.676 73.4445 939.404 71.0522C938.141 68.6599 937.51 65.7637 937.51 62.3636C937.51 58.9534 938.151 56.0521 939.434 53.6598C940.717 51.2675 942.458 49.4453 944.656 48.1932C946.855 46.9309 949.329 46.2997 952.078 46.2997C953.89 46.2997 955.569 46.5542 957.117 47.0632C958.674 47.5722 960.054 48.3153 961.255 49.2926C962.456 50.2597 963.433 51.4457 964.187 52.8505C964.95 54.2553 965.439 55.8638 965.653 57.6758ZM976.777 64.4403V78H970.272V46.7273H976.593V58.6836H976.868C977.398 57.2991 978.253 56.215 979.434 55.4311C980.614 54.6371 982.096 54.2401 983.877 54.2401C985.506 54.2401 986.926 54.5964 988.137 55.3089C989.359 56.0114 990.306 57.0243 990.978 58.3477C991.66 59.6609 991.996 61.2337 991.985 63.0661V78H985.48V64.2266C985.491 62.781 985.124 61.6561 984.381 60.8519C983.648 60.0477 982.62 59.6456 981.297 59.6456C980.411 59.6456 979.627 59.8339 978.945 60.2106C978.273 60.5872 977.744 61.137 977.357 61.8597C976.98 62.5723 976.787 63.4325 976.777 64.4403ZM997.105 78V54.5455H1003.61V78H997.105ZM1000.37 51.522C999.405 51.522 998.576 51.2013 997.883 50.56C997.201 49.9085 996.86 49.1297 996.86 48.2237C996.86 47.3279 997.201 46.5593 997.883 45.918C998.576 45.2665 999.405 44.9407 1000.37 44.9407C1001.34 44.9407 1002.16 45.2665 1002.85 45.918C1003.54 46.5593 1003.88 47.3279 1003.88 48.2237C1003.88 49.1297 1003.54 49.9085 1002.85 50.56C1002.16 51.2013 1001.34 51.522 1000.37 51.522ZM1015.33 46.7273V78H1008.82V46.7273H1015.33ZM1029.18 78.3817C1027.4 78.3817 1025.78 77.9237 1024.34 77.0075C1022.9 76.0811 1021.76 74.7221 1020.92 72.9304C1020.08 71.1286 1019.67 68.9195 1019.67 66.3033C1019.67 63.6158 1020.1 61.3813 1020.96 59.5998C1021.83 57.8081 1022.98 56.4695 1024.41 55.5838C1025.86 54.688 1027.44 54.2401 1029.16 54.2401C1030.48 54.2401 1031.57 54.464 1032.45 54.9119C1033.33 55.3497 1034.05 55.8994 1034.58 56.5611C1035.13 57.2126 1035.55 57.8539 1035.84 58.4851H1036.04V46.7273H1042.52V78H1036.11V74.2436H1035.84C1035.53 74.8951 1035.1 75.5415 1034.54 76.1829C1033.99 76.814 1033.27 77.3383 1032.39 77.7557C1031.51 78.1731 1030.44 78.3817 1029.18 78.3817ZM1031.24 73.2053C1032.29 73.2053 1033.17 72.9202 1033.9 72.3501C1034.63 71.7699 1035.19 70.9606 1035.58 69.9222C1035.97 68.8839 1036.17 67.6674 1036.17 66.2727C1036.17 64.8781 1035.98 63.6667 1035.59 62.6385C1035.21 61.6103 1034.65 60.8163 1033.91 60.2564C1033.18 59.6965 1032.29 59.4165 1031.24 59.4165C1030.17 59.4165 1029.27 59.7067 1028.54 60.2869C1027.8 60.8672 1027.25 61.6714 1026.87 62.6996C1026.5 63.7277 1026.31 64.9188 1026.31 66.2727C1026.31 67.6368 1026.5 68.8432 1026.87 69.8917C1027.26 70.93 1027.81 71.7444 1028.54 72.3349C1029.27 72.9151 1030.17 73.2053 1031.24 73.2053ZM1057.95 78V46.7273H1070.47C1072.77 46.7273 1074.69 47.0683 1076.23 47.7504C1077.76 48.4324 1078.92 49.3791 1079.69 50.5906C1080.47 51.7918 1080.85 53.1763 1080.85 54.744C1080.85 55.9656 1080.61 57.0395 1080.12 57.9659C1079.63 58.8821 1078.96 59.6354 1078.1 60.2259C1077.26 60.8061 1076.29 61.2184 1075.2 61.4627V61.7681C1076.39 61.819 1077.51 62.1549 1078.55 62.7759C1079.6 63.3969 1080.45 64.2673 1081.1 65.3871C1081.75 66.4967 1082.07 67.8201 1082.07 69.3572C1082.07 71.0166 1081.66 72.4978 1080.84 73.8008C1080.02 75.0936 1078.82 76.1167 1077.22 76.87C1075.62 77.6233 1073.65 78 1071.31 78H1057.95ZM1064.56 72.5945H1069.95C1071.79 72.5945 1073.14 72.2433 1073.98 71.5408C1074.83 70.8282 1075.25 69.8815 1075.25 68.7006C1075.25 67.8353 1075.04 67.0719 1074.62 66.4102C1074.2 65.7485 1073.61 65.2293 1072.84 64.8526C1072.07 64.476 1071.16 64.2876 1070.1 64.2876H1064.56V72.5945ZM1064.56 59.8136H1069.46C1070.37 59.8136 1071.17 59.6558 1071.87 59.3402C1072.59 59.0144 1073.15 58.5563 1073.55 57.9659C1073.97 57.3755 1074.18 56.668 1074.18 55.8434C1074.18 54.7134 1073.78 53.8023 1072.97 53.1101C1072.18 52.4178 1071.05 52.0717 1069.58 52.0717H1064.56V59.8136Z" fill="white"/>
<path d="M1230.7 57.6758H1224.01C1223.89 56.8105 1223.64 56.0419 1223.26 55.37C1222.89 54.688 1222.4 54.1077 1221.81 53.6293C1221.22 53.1508 1220.54 52.7843 1219.77 52.5298C1219 52.2753 1218.17 52.1481 1217.28 52.1481C1215.66 52.1481 1214.25 52.5502 1213.05 53.3544C1211.85 54.1484 1210.92 55.3089 1210.25 56.8359C1209.59 58.3527 1209.26 60.1953 1209.26 62.3636C1209.26 64.593 1209.59 66.4661 1210.25 67.983C1210.93 69.4998 1211.86 70.645 1213.06 71.4187C1214.26 72.1924 1215.65 72.5792 1217.23 72.5792C1218.12 72.5792 1218.94 72.4621 1219.69 72.228C1220.45 71.9938 1221.13 71.6528 1221.72 71.2049C1222.31 70.7468 1222.8 70.192 1223.19 69.5405C1223.58 68.889 1223.86 68.1458 1224.01 67.3111L1230.7 67.3416C1230.53 68.777 1230.09 70.1615 1229.4 71.495C1228.72 72.8184 1227.8 74.0044 1226.64 75.0529C1225.49 76.0913 1224.11 76.9158 1222.52 77.5266C1220.93 78.1272 1219.13 78.4276 1217.12 78.4276C1214.34 78.4276 1211.84 77.7964 1209.64 76.5341C1207.45 75.2718 1205.72 73.4445 1204.45 71.0522C1203.19 68.6599 1202.56 65.7637 1202.56 62.3636C1202.56 58.9534 1203.2 56.0521 1204.48 53.6598C1205.76 51.2675 1207.5 49.4453 1209.7 48.1932C1211.9 46.9309 1214.38 46.2997 1217.12 46.2997C1218.94 46.2997 1220.62 46.5542 1222.16 47.0632C1223.72 47.5722 1225.1 48.3153 1226.3 49.2926C1227.5 50.2597 1228.48 51.4457 1229.23 52.8505C1230 54.2553 1230.49 55.8638 1230.7 57.6758ZM1241.82 64.4403V78H1235.32V46.7273H1241.64V58.6836H1241.92C1242.44 57.2991 1243.3 56.215 1244.48 55.4311C1245.66 54.6371 1247.14 54.2401 1248.92 54.2401C1250.55 54.2401 1251.97 54.5964 1253.18 55.3089C1254.41 56.0114 1255.35 57.0243 1256.02 58.3477C1256.71 59.6609 1257.04 61.2337 1257.03 63.0661V78H1250.53V64.2266C1250.54 62.781 1250.17 61.6561 1249.43 60.8519C1248.7 60.0477 1247.67 59.6456 1246.34 59.6456C1245.46 59.6456 1244.67 59.8339 1243.99 60.2106C1243.32 60.5872 1242.79 61.137 1242.4 61.8597C1242.03 62.5723 1241.83 63.4325 1241.82 64.4403ZM1262.15 78V54.5455H1268.66V78H1262.15ZM1265.42 51.522C1264.45 51.522 1263.62 51.2013 1262.93 50.56C1262.25 49.9085 1261.91 49.1297 1261.91 48.2237C1261.91 47.3279 1262.25 46.5593 1262.93 45.918C1263.62 45.2665 1264.45 44.9407 1265.42 44.9407C1266.39 44.9407 1267.21 45.2665 1267.89 45.918C1268.59 46.5593 1268.93 47.3279 1268.93 48.2237C1268.93 49.1297 1268.59 49.9085 1267.89 50.56C1267.21 51.2013 1266.39 51.522 1265.42 51.522ZM1280.37 46.7273V78H1273.87V46.7273H1280.37ZM1294.23 78.3817C1292.44 78.3817 1290.83 77.9237 1289.39 77.0075C1287.95 76.0811 1286.81 74.7221 1285.97 72.9304C1285.13 71.1286 1284.71 68.9195 1284.71 66.3033C1284.71 63.6158 1285.15 61.3813 1286.01 59.5998C1286.88 57.8081 1288.03 56.4695 1289.46 55.5838C1290.91 54.688 1292.49 54.2401 1294.21 54.2401C1295.52 54.2401 1296.62 54.464 1297.49 54.9119C1298.38 55.3497 1299.09 55.8994 1299.63 56.5611C1300.18 57.2126 1300.6 57.8539 1300.88 58.4851H1301.08V46.7273H1307.57V78H1301.16V74.2436H1300.88C1300.58 74.8951 1300.15 75.5415 1299.59 76.1829C1299.04 76.814 1298.32 77.3383 1297.43 77.7557C1296.56 78.1731 1295.49 78.3817 1294.23 78.3817ZM1296.29 73.2053C1297.34 73.2053 1298.22 72.9202 1298.94 72.3501C1299.68 71.7699 1300.24 70.9606 1300.62 69.9222C1301.02 68.8839 1301.22 67.6674 1301.22 66.2727C1301.22 64.8781 1301.03 63.6667 1300.64 62.6385C1300.25 61.6103 1299.69 60.8163 1298.96 60.2564C1298.23 59.6965 1297.34 59.4165 1296.29 59.4165C1295.22 59.4165 1294.32 59.7067 1293.59 60.2869C1292.85 60.8672 1292.3 61.6714 1291.92 62.6996C1291.54 63.7277 1291.36 64.9188 1291.36 66.2727C1291.36 67.6368 1291.54 68.8432 1291.92 69.8917C1292.31 70.93 1292.86 71.7444 1293.59 72.3349C1294.32 72.9151 1295.22 73.2053 1296.29 73.2053ZM1350.59 57.6758H1343.9C1343.78 56.8105 1343.53 56.0419 1343.15 55.37C1342.77 54.688 1342.29 54.1077 1341.7 53.6293C1341.11 53.1508 1340.43 52.7843 1339.65 52.5298C1338.89 52.2753 1338.06 52.1481 1337.17 52.1481C1335.55 52.1481 1334.14 52.5502 1332.94 53.3544C1331.73 54.1484 1330.8 55.3089 1330.14 56.8359C1329.48 58.3527 1329.15 60.1953 1329.15 62.3636C1329.15 64.593 1329.48 66.4661 1330.14 67.983C1330.81 69.4998 1331.75 70.645 1332.95 71.4187C1334.15 72.1924 1335.54 72.5792 1337.12 72.5792C1338.01 72.5792 1338.82 72.4621 1339.58 72.228C1340.34 71.9938 1341.02 71.6528 1341.61 71.2049C1342.2 70.7468 1342.69 70.192 1343.07 69.5405C1343.47 68.889 1343.75 68.1458 1343.9 67.3111L1350.59 67.3416C1350.41 68.777 1349.98 70.1615 1349.29 71.495C1348.61 72.8184 1347.69 74.0044 1346.53 75.0529C1345.38 76.0913 1344 76.9158 1342.4 77.5266C1340.81 78.1272 1339.02 78.4276 1337.01 78.4276C1334.22 78.4276 1331.73 77.7964 1329.53 76.5341C1327.34 75.2718 1325.61 73.4445 1324.34 71.0522C1323.08 68.6599 1322.45 65.7637 1322.45 62.3636C1322.45 58.9534 1323.09 56.0521 1324.37 53.6598C1325.65 51.2675 1327.39 49.4453 1329.59 48.1932C1331.79 46.9309 1334.26 46.2997 1337.01 46.2997C1338.82 46.2997 1340.5 46.5542 1342.05 47.0632C1343.61 47.5722 1344.99 48.3153 1346.19 49.2926C1347.39 50.2597 1348.37 51.4457 1349.12 52.8505C1349.89 54.2553 1350.37 55.8638 1350.59 57.6758Z" fill="white"/>
<path d="M833.007 177.619L820.259 171.742L814.381 158.993C814.022 158.204 813.443 157.534 812.713 157.065C811.984 156.596 811.135 156.346 810.268 156.346C809.4 156.346 808.551 156.596 807.822 157.065C807.092 157.534 806.513 158.204 806.154 158.993L800.367 171.742L787.618 177.619C786.829 177.978 786.16 178.557 785.69 179.287C785.221 180.016 784.972 180.865 784.972 181.733C784.972 182.6 785.221 183.449 785.69 184.179C786.16 184.908 786.829 185.487 787.618 185.847L800.367 191.633L806.244 204.382C806.604 205.171 807.183 205.841 807.912 206.31C808.642 206.779 809.491 207.029 810.358 207.029C811.225 207.029 812.074 206.779 812.804 206.31C813.533 205.841 814.112 205.171 814.472 204.382L820.259 191.633L833.007 185.756C836.534 184.219 836.534 179.156 833.007 177.619Z" fill="white"/>
<path d="M715.375 269.844C721.617 269.844 726.677 264.784 726.677 258.542C726.677 252.3 721.617 247.24 715.375 247.24C709.133 247.24 704.073 252.3 704.073 258.542C704.073 264.784 709.133 269.844 715.375 269.844Z" fill="white"/>
<path d="M769.625 269.844C775.867 269.844 780.927 264.784 780.927 258.542C780.927 252.3 775.867 247.24 769.625 247.24C763.383 247.24 758.323 252.3 758.323 258.542C758.323 264.784 763.383 269.844 769.625 269.844Z" fill="white"/>
<path d="M810.312 220.567C803.26 220.567 796.84 216.408 793.856 209.988L790.149 201.85L782.012 198.143C778.865 196.691 776.199 194.372 774.325 191.457C772.451 188.542 771.448 185.153 771.433 181.688C771.433 175.72 774.507 170.295 779.299 166.95C768.088 161.977 755.61 159.083 742.5 159.083C692.59 159.083 652.083 199.59 652.083 249.5C652.083 299.41 692.59 339.917 742.5 339.917C792.41 339.917 832.916 299.41 832.916 249.5C832.916 236.39 830.023 223.912 825.05 212.7C821.705 217.493 816.28 220.567 810.312 220.567ZM742.5 321.833C702.626 321.833 670.166 289.374 670.166 249.5C670.166 249.048 670.257 248.596 670.166 248.234C693.675 239.373 712.572 221.2 722.066 198.053C730.546 208.479 741.244 216.884 753.381 222.655C765.518 228.426 778.789 231.42 792.229 231.417C799.01 231.417 805.52 230.603 811.849 229.247C813.748 235.666 814.833 242.448 814.833 249.5C814.833 289.374 782.373 321.833 742.5 321.833Z" fill="white"/>
<path d="M1100.01 177.619L1087.26 171.742L1081.38 158.993C1081.02 158.204 1080.44 157.534 1079.71 157.065C1078.98 156.596 1078.13 156.346 1077.27 156.346C1076.4 156.346 1075.55 156.596 1074.82 157.065C1074.09 157.534 1073.51 158.204 1073.15 158.993L1067.37 171.742L1054.62 177.619C1053.83 177.978 1053.16 178.557 1052.69 179.287C1052.22 180.016 1051.97 180.865 1051.97 181.733C1051.97 182.6 1052.22 183.449 1052.69 184.179C1053.16 184.908 1053.83 185.487 1054.62 185.847L1067.37 191.633L1073.24 204.382C1073.6 205.171 1074.18 205.841 1074.91 206.31C1075.64 206.779 1076.49 207.029 1077.36 207.029C1078.23 207.029 1079.07 206.779 1079.8 206.31C1080.53 205.841 1081.11 205.171 1081.47 204.382L1087.26 191.633L1100.01 185.756C1103.53 184.219 1103.53 179.156 1100.01 177.619Z" fill="white"/>
<path d="M982.375 269.844C988.617 269.844 993.677 264.784 993.677 258.542C993.677 252.3 988.617 247.24 982.375 247.24C976.133 247.24 971.073 252.3 971.073 258.542C971.073 264.784 976.133 269.844 982.375 269.844Z" fill="white"/>
<path d="M1036.63 269.844C1042.87 269.844 1047.93 264.784 1047.93 258.542C1047.93 252.3 1042.87 247.24 1036.63 247.24C1030.38 247.24 1025.32 252.3 1025.32 258.542C1025.32 264.784 1030.38 269.844 1036.63 269.844Z" fill="white"/>
<path d="M1077.31 220.567C1070.26 220.567 1063.84 216.408 1060.86 209.988L1057.15 201.85L1049.01 198.143C1045.87 196.691 1043.2 194.372 1041.32 191.457C1039.45 188.542 1038.45 185.153 1038.43 181.688C1038.43 175.72 1041.51 170.295 1046.3 166.95C1035.09 161.977 1022.61 159.083 1009.5 159.083C959.59 159.083 919.083 199.59 919.083 249.5C919.083 299.41 959.59 339.917 1009.5 339.917C1059.41 339.917 1099.92 299.41 1099.92 249.5C1099.92 236.39 1097.02 223.912 1092.05 212.7C1088.7 217.493 1083.28 220.567 1077.31 220.567ZM1009.5 321.833C969.626 321.833 937.166 289.374 937.166 249.5C937.166 249.048 937.257 248.596 937.166 248.234C960.675 239.373 979.572 221.2 989.066 198.053C997.546 208.479 1008.24 216.884 1020.38 222.655C1032.52 228.426 1045.79 231.42 1059.23 231.417C1066.01 231.417 1072.52 230.603 1078.85 229.247C1080.75 235.666 1081.83 242.448 1081.83 249.5C1081.83 289.374 1049.37 321.833 1009.5 321.833Z" fill="white"/>
<path d="M1367.01 177.619L1354.26 171.742L1348.38 158.993C1348.02 158.204 1347.44 157.534 1346.71 157.065C1345.98 156.596 1345.13 156.346 1344.27 156.346C1343.4 156.346 1342.55 156.596 1341.82 157.065C1341.09 157.534 1340.51 158.204 1340.15 158.993L1334.37 171.742L1321.62 177.619C1320.83 177.978 1320.16 178.557 1319.69 179.287C1319.22 180.016 1318.97 180.865 1318.97 181.733C1318.97 182.6 1319.22 183.449 1319.69 184.179C1320.16 184.908 1320.83 185.487 1321.62 185.847L1334.37 191.633L1340.24 204.382C1340.6 205.171 1341.18 205.841 1341.91 206.31C1342.64 206.779 1343.49 207.029 1344.36 207.029C1345.23 207.029 1346.07 206.779 1346.8 206.31C1347.53 205.841 1348.11 205.171 1348.47 204.382L1354.26 191.633L1367.01 185.756C1370.53 184.219 1370.53 179.156 1367.01 177.619Z" fill="white"/>
<path d="M1249.38 269.844C1255.62 269.844 1260.68 264.784 1260.68 258.542C1260.68 252.3 1255.62 247.24 1249.38 247.24C1243.13 247.24 1238.07 252.3 1238.07 258.542C1238.07 264.784 1243.13 269.844 1249.38 269.844Z" fill="white"/>
<path d="M1303.63 269.844C1309.87 269.844 1314.93 264.784 1314.93 258.542C1314.93 252.3 1309.87 247.24 1303.63 247.24C1297.38 247.24 1292.32 252.3 1292.32 258.542C1292.32 264.784 1297.38 269.844 1303.63 269.844Z" fill="white"/>
<path d="M1344.31 220.567C1337.26 220.567 1330.84 216.408 1327.86 209.988L1324.15 201.85L1316.01 198.143C1312.87 196.691 1310.2 194.372 1308.32 191.457C1306.45 188.542 1305.45 185.153 1305.43 181.688C1305.43 175.72 1308.51 170.295 1313.3 166.95C1302.09 161.977 1289.61 159.083 1276.5 159.083C1226.59 159.083 1186.08 199.59 1186.08 249.5C1186.08 299.41 1226.59 339.917 1276.5 339.917C1326.41 339.917 1366.92 299.41 1366.92 249.5C1366.92 236.39 1364.02 223.912 1359.05 212.7C1355.7 217.493 1350.28 220.567 1344.31 220.567ZM1276.5 321.833C1236.63 321.833 1204.17 289.374 1204.17 249.5C1204.17 249.048 1204.26 248.596 1204.17 248.234C1227.67 239.373 1246.57 221.2 1256.07 198.053C1264.55 208.479 1275.24 216.884 1287.38 222.655C1299.52 228.426 1312.79 231.42 1326.23 231.417C1333.01 231.417 1339.52 230.603 1345.85 229.247C1347.75 235.666 1348.83 242.448 1348.83 249.5C1348.83 289.374 1316.37 321.833 1276.5 321.833Z" fill="white"/>
</svg>
