<svg xmlns="http://www.w3.org/2000/svg" width="643" height="357" fill="none" viewBox="0 0 643 357"><path fill="#fff" d="M79.365 83.546V101h-2.114V85.761h-.102l-4.261 2.83v-2.148l4.363-2.897zm10.713 17.693q-1.926 0-3.281-1.049-1.355-1.056-2.071-3.06-.716-2.01-.716-4.857 0-2.83.716-4.833.724-2.01 2.08-3.068 1.364-1.065 3.272-1.065 1.909 0 3.264 1.065 1.365 1.057 2.08 3.068.724 2.003.724 4.833 0 2.847-.716 4.858-.716 2.003-2.07 3.059-1.356 1.049-3.282 1.049m0-1.875q1.909 0 2.966-1.841t1.057-5.25q0-2.268-.486-3.861-.477-1.594-1.38-2.429-.896-.835-2.157-.835-1.892 0-2.957 1.866-1.066 1.859-1.066 5.259 0 2.266.478 3.852.477 1.585 1.372 2.412.903.827 2.173.827"/><path fill="#727272" d="M84.5 171.239q-1.926 0-3.281-1.049-1.356-1.056-2.071-3.059-.716-2.012-.716-4.858 0-2.83.716-4.833.724-2.011 2.08-3.068 1.363-1.065 3.272-1.065t3.264 1.065q1.365 1.057 2.08 3.068.724 2.003.724 4.833 0 2.846-.716 4.858-.716 2.003-2.07 3.059-1.356 1.049-3.282 1.049m0-1.875q1.909 0 2.966-1.841 1.057-1.842 1.057-5.25 0-2.268-.486-3.861-.478-1.594-1.38-2.429-.896-.835-2.157-.835-1.892 0-2.957 1.866-1.065 1.858-1.066 5.259 0 2.266.477 3.852.478 1.585 1.373 2.412.903.827 2.173.827"/><path fill="#fff" d="M545.041 101v-1.534l5.762-6.307a40 40 0 0 0 1.67-1.926q.656-.827.972-1.551.323-.733.323-1.534 0-.92-.443-1.594a2.87 2.87 0 0 0-1.193-1.04 3.9 3.9 0 0 0-1.704-.366q-1.006 0-1.756.417a2.9 2.9 0 0 0-1.151 1.15q-.4.743-.4 1.74h-2.012q0-1.534.708-2.694a4.9 4.9 0 0 1 1.926-1.806q1.227-.648 2.753-.648 1.534 0 2.718.647a4.86 4.86 0 0 1 1.858 1.748 4.6 4.6 0 0 1 .674 2.446q0 .963-.35 1.883-.34.912-1.193 2.037-.844 1.117-2.344 2.728l-3.92 4.193v.136h8.114V101zm20.225.239q-1.926 0-3.282-1.049-1.354-1.056-2.071-3.06-.716-2.01-.716-4.857 0-2.83.716-4.833.724-2.01 2.08-3.068 1.364-1.065 3.273-1.065 1.908 0 3.264 1.065 1.363 1.057 2.079 3.068.725 2.003.725 4.833 0 2.847-.716 4.858-.716 2.003-2.071 3.059-1.356 1.049-3.281 1.049m0-1.875q1.908 0 2.966-1.841 1.056-1.84 1.056-5.25 0-2.268-.485-3.861-.478-1.594-1.381-2.429-.895-.835-2.156-.835-1.893 0-2.958 1.866-1.065 1.859-1.065 5.259 0 2.266.477 3.852t1.372 2.412q.904.827 2.174.827"/><path fill="#727272" d="M553.365 153.545V171h-2.114v-15.239h-.102l-4.261 2.83v-2.148l4.363-2.898zm10.713 17.694q-1.926 0-3.281-1.049-1.356-1.056-2.071-3.059-.716-2.012-.716-4.858 0-2.83.716-4.833.725-2.011 2.079-3.068 1.364-1.065 3.273-1.065t3.264 1.065q1.364 1.057 2.08 3.068.724 2.003.724 4.833 0 2.846-.716 4.858-.715 2.003-2.071 3.059-1.355 1.049-3.281 1.049m0-1.875q1.909 0 2.966-1.841 1.057-1.842 1.057-5.25 0-2.268-.486-3.861-.477-1.594-1.381-2.429-.894-.835-2.156-.835-1.892 0-2.957 1.866-1.066 1.858-1.066 5.259 0 2.266.478 3.852.477 1.585 1.372 2.412.903.827 2.173.827"/><path fill="#fff" d="M126.287 52.546V70h-2.114V54.761h-.102l-4.261 2.83v-2.148l4.363-2.898zm11.156 0V70h-2.113V54.761h-.103l-4.261 2.83v-2.148l4.364-2.898z"/><path fill="#727272" d="M131.365 153.545V171h-2.114v-15.239h-.102l-4.261 2.83v-2.148l4.363-2.898z"/><path fill="#fff" d="M169.099 66.546V84h-2.113V68.761h-.102l-4.262 2.83v-2.148l4.364-2.897zM174.119 84v-1.534l5.762-6.307a40 40 0 0 0 1.67-1.926q.657-.827.972-1.551.324-.733.324-1.534 0-.92-.444-1.594a2.87 2.87 0 0 0-1.193-1.04q-.758-.366-1.704-.366-1.006 0-1.756.417a2.9 2.9 0 0 0-1.151 1.15q-.4.743-.4 1.74h-2.011q0-1.534.707-2.694a4.9 4.9 0 0 1 1.926-1.806q1.227-.648 2.753-.648 1.534 0 2.719.647a4.9 4.9 0 0 1 1.858 1.748q.672 1.1.673 2.446 0 .963-.35 1.883-.34.912-1.193 2.037-.843 1.117-2.343 2.728l-3.921 4.193v.136h8.114V84z"/><path fill="#727272" d="M169.041 171v-1.534l5.762-6.307a40 40 0 0 0 1.67-1.926q.656-.827.972-1.551.323-.733.323-1.534 0-.92-.443-1.594a2.87 2.87 0 0 0-1.193-1.04 3.9 3.9 0 0 0-1.704-.366q-1.006 0-1.756.417a2.9 2.9 0 0 0-1.151 1.151q-.4.741-.4 1.739h-2.012q0-1.535.708-2.694a4.9 4.9 0 0 1 1.926-1.806q1.227-.648 2.753-.648 1.534 0 2.718.648a4.86 4.86 0 0 1 1.858 1.747 4.6 4.6 0 0 1 .674 2.446 5.3 5.3 0 0 1-.35 1.883q-.34.912-1.193 2.037-.844 1.117-2.344 2.727l-3.92 4.194v.136h8.114V171z"/><path fill="#fff" d="M214.224 52.546V70h-2.113V54.761h-.102l-4.262 2.83v-2.148l4.364-2.898zm10.918 17.693q-1.688 0-3.008-.58-1.312-.58-2.089-1.61-.766-1.04-.835-2.413h2.148q.068.844.58 1.458.51.605 1.338.937a4.9 4.9 0 0 0 1.832.333q1.125 0 1.994-.392.87-.392 1.364-1.091t.494-1.62q0-.963-.477-1.696-.477-.74-1.398-1.159-.92-.417-2.25-.417h-1.397v-1.875h1.397q1.04 0 1.824-.375.793-.376 1.236-1.057.452-.682.452-1.602 0-.887-.392-1.543a2.7 2.7 0 0 0-1.108-1.023q-.708-.366-1.671-.366-.903 0-1.704.332a3.2 3.2 0 0 0-1.296.946q-.503.615-.545 1.483h-2.046q.051-1.373.827-2.403a5.2 5.2 0 0 1 2.028-1.62q1.262-.58 2.77-.58 1.62 0 2.779.657 1.158.648 1.781 1.713.622 1.065.622 2.301 0 1.474-.776 2.515-.766 1.04-2.088 1.44v.136q1.654.273 2.583 1.406.929 1.126.929 2.787 0 1.425-.776 2.557-.767 1.125-2.096 1.773t-3.026.648"/><path fill="#727272" d="M219.064 171.239q-1.687 0-3.009-.58-1.312-.579-2.088-1.611-.766-1.04-.835-2.412h2.148q.067.845.579 1.458.512.605 1.338.937a4.9 4.9 0 0 0 1.833.333q1.125 0 1.994-.392.87-.392 1.364-1.091t.494-1.62q0-.963-.477-1.696-.477-.74-1.398-1.159-.921-.417-2.25-.417h-1.398v-1.875h1.398q1.04 0 1.824-.375a2.94 2.94 0 0 0 1.236-1.057q.451-.683.451-1.602 0-.887-.392-1.543a2.7 2.7 0 0 0-1.108-1.023q-.707-.366-1.67-.366a4.4 4.4 0 0 0-1.705.332q-.792.324-1.295.946-.503.614-.545 1.483h-2.046q.051-1.373.827-2.403.776-1.04 2.028-1.62 1.261-.579 2.77-.579 1.62 0 2.779.656 1.158.648 1.781 1.713.622 1.065.622 2.301 0 1.475-.776 2.514-.767 1.04-2.088 1.441v.136q1.654.273 2.583 1.406.929 1.125.929 2.787 0 1.423-.776 2.557-.766 1.125-2.097 1.773-1.329.648-3.025.648"/><path fill="#fff" d="M258.166 63.546V81h-2.114V65.761h-.102l-4.261 2.83v-2.148l4.363-2.898zm4.611 13.875v-1.74l7.67-12.135h1.261v2.693h-.852l-5.795 9.17v.136h10.329v1.876zM270.993 81V63.546h2.011V81z"/><path fill="#727272" d="M256.699 167.42v-1.738l7.67-12.137h1.261v2.694h-.852l-5.795 9.17v.136h10.329v1.875zm8.215 3.58v-17.455h2.012V171z"/><path fill="#fff" d="M312.064 23.546V41h-2.113V25.761h-.103l-4.261 2.83v-2.148l4.364-2.898zm10.475 17.693q-1.5 0-2.702-.597a5 5 0 0 1-1.926-1.636 4.46 4.46 0 0 1-.793-2.37h2.046q.119 1.185 1.074 1.96.963.768 2.301.768 1.074 0 1.909-.503a3.55 3.55 0 0 0 1.321-1.38q.486-.888.486-2.004 0-1.141-.503-2.037a3.7 3.7 0 0 0-1.364-1.423q-.868-.52-1.986-.528a5.5 5.5 0 0 0-1.645.247q-.843.247-1.389.639l-1.977-.239 1.057-8.59h9.068v1.875h-7.295l-.614 5.147h.102q.537-.426 1.347-.707a5.1 5.1 0 0 1 1.687-.282q1.602 0 2.855.768a5.36 5.36 0 0 1 1.978 2.08q.724 1.32.724 3.016 0 1.67-.75 2.983a5.5 5.5 0 0 1-2.045 2.063q-1.304.75-2.966.75"/><path fill="#727272" d="M317.461 171.239q-1.5 0-2.702-.597a5 5 0 0 1-1.926-1.636 4.47 4.47 0 0 1-.793-2.37h2.046q.119 1.185 1.073 1.961.964.767 2.302.767 1.073 0 1.909-.503a3.55 3.55 0 0 0 1.321-1.381q.486-.886.485-2.003 0-1.141-.502-2.037a3.7 3.7 0 0 0-1.364-1.423q-.87-.52-1.986-.528a5.4 5.4 0 0 0-1.645.247q-.843.248-1.389.639l-1.977-.239 1.057-8.591h9.068v1.875h-7.296l-.613 5.148h.102q.537-.426 1.347-.707a5.1 5.1 0 0 1 1.687-.281q1.602 0 2.855.767a5.36 5.36 0 0 1 1.978 2.079q.724 1.321.724 3.017 0 1.67-.75 2.983a5.5 5.5 0 0 1-2.046 2.063q-1.303.75-2.965.75"/><path fill="#fff" d="M368.377 52.546V70h-2.114V54.761h-.102l-4.261 2.83v-2.148l4.363-2.898zm10.815 17.693a6.5 6.5 0 0 1-2.148-.41q-1.074-.39-1.96-1.32-.886-.939-1.423-2.532-.537-1.602-.537-4.023 0-2.318.435-4.107.434-1.8 1.261-3.026.827-1.236 1.994-1.875 1.176-.64 2.651-.64 1.465 0 2.608.589a5 5 0 0 1 1.875 1.62q.724 1.038.937 2.394h-2.079q-.29-1.176-1.125-1.952-.836-.775-2.216-.775-2.029 0-3.196 1.764-1.16 1.764-1.168 4.952h.137a5.14 5.14 0 0 1 2.599-2.037 5.1 5.1 0 0 1 1.696-.281q1.5 0 2.744.75a5.54 5.54 0 0 1 1.995 2.053q.75 1.305.75 2.992 0 1.62-.725 2.966a5.5 5.5 0 0 1-2.037 2.13q-1.304.784-3.068.768m0-1.875q1.074 0 1.926-.537a3.84 3.84 0 0 0 1.355-1.44 4.06 4.06 0 0 0 .503-2.012q0-1.083-.486-1.969a3.7 3.7 0 0 0-1.321-1.423q-.835-.528-1.909-.528-.809 0-1.508.323-.699.315-1.227.87-.52.553-.819 1.27a3.8 3.8 0 0 0-.298 1.491q0 1.04.486 1.943a4 4 0 0 0 1.346 1.458 3.53 3.53 0 0 0 1.952.554"/><path fill="#727272" d="M373.614 171.239a6.6 6.6 0 0 1-2.148-.409q-1.074-.393-1.96-1.321-.886-.937-1.423-2.532-.537-1.602-.537-4.022 0-2.319.434-4.108.435-1.799 1.262-3.026.827-1.236 1.994-1.875 1.176-.639 2.651-.639 1.465 0 2.608.588a5 5 0 0 1 1.875 1.619q.724 1.04.937 2.395h-2.079q-.291-1.176-1.125-1.952-.836-.775-2.216-.775-2.03 0-3.196 1.764-1.16 1.764-1.168 4.952h.136a5.14 5.14 0 0 1 2.6-2.037 5.1 5.1 0 0 1 1.696-.281q1.5 0 2.744.75a5.54 5.54 0 0 1 1.995 2.054q.75 1.304.75 2.991 0 1.62-.725 2.966a5.5 5.5 0 0 1-2.037 2.131q-1.304.783-3.068.767m0-1.875q1.074 0 1.926-.537a3.83 3.83 0 0 0 1.355-1.441 4.06 4.06 0 0 0 .503-2.011q0-1.083-.486-1.969a3.7 3.7 0 0 0-1.321-1.423q-.835-.528-1.909-.528-.81 0-1.508.323-.699.316-1.228.87a4.2 4.2 0 0 0-.818 1.27 3.8 3.8 0 0 0-.298 1.491q0 1.04.486 1.943a4 4 0 0 0 1.346 1.458 3.53 3.53 0 0 0 1.952.554"/><path fill="#fff" d="M418.01 99.546V117h-2.114v-15.239h-.102l-4.262 2.83v-2.148l4.364-2.897zM423.575 117l7.807-15.443v-.137h-9v-1.874h11.182v1.977L425.791 117z"/><path fill="#727272" d="m417.497 171 7.807-15.443v-.137h-9v-1.875h11.181v1.978L419.713 171z"/><path fill="#fff" d="M464.971 66.546V84h-2.114V68.761h-.102l-4.262 2.83v-2.148l4.364-2.897zm10.61 17.693q-1.755 0-3.102-.623-1.338-.63-2.088-1.73-.75-1.108-.741-2.522a4.64 4.64 0 0 1 .434-2.046 4.5 4.5 0 0 1 1.21-1.576 3.7 3.7 0 0 1 1.731-.81v-.103a3.37 3.37 0 0 1-1.995-1.406q-.74-1.09-.733-2.48-.008-1.33.674-2.378.681-1.048 1.875-1.653 1.202-.605 2.735-.605 1.517 0 2.711.605 1.193.604 1.875 1.653.69 1.05.698 2.378-.008 1.39-.758 2.48-.742 1.082-1.969 1.406v.103a3.6 3.6 0 0 1 1.705.81q.758.63 1.21 1.576.451.938.46 2.046-.008 1.415-.767 2.522-.75 1.1-2.088 1.73-1.33.623-3.077.623m0-1.875q1.185 0 2.046-.384.861-.383 1.329-1.082.47-.7.478-1.637-.01-.988-.512-1.747a3.46 3.46 0 0 0-1.372-1.193q-.86-.435-1.969-.435-1.116 0-1.994.435-.87.435-1.372 1.193-.495.759-.486 1.747-.009.937.452 1.637.468.698 1.338 1.082.869.384 2.062.384m0-8.285q.938 0 1.662-.374.733-.375 1.151-1.049.417-.673.426-1.577-.009-.886-.418-1.542a2.7 2.7 0 0 0-1.133-1.023q-.725-.366-1.688-.366-.98 0-1.713.366-.732.359-1.133 1.023-.4.656-.392 1.542-.008.904.4 1.577.418.674 1.151 1.048.732.376 1.687.376"/><path fill="#727272" d="M470.503 171.239q-1.755 0-3.102-.623-1.338-.63-2.088-1.73-.75-1.107-.742-2.522a4.66 4.66 0 0 1 .435-2.046 4.46 4.46 0 0 1 1.21-1.577 3.7 3.7 0 0 1 1.73-.809v-.102a3.37 3.37 0 0 1-1.994-1.407q-.742-1.09-.733-2.48-.009-1.33.673-2.378t1.875-1.653q1.202-.605 2.736-.605 1.518 0 2.71.605 1.194.605 1.875 1.653.692 1.049.699 2.378-.008 1.39-.758 2.48-.742 1.083-1.969 1.407v.102a3.6 3.6 0 0 1 1.705.809 4.6 4.6 0 0 1 1.21 1.577q.451.938.46 2.046-.008 1.415-.767 2.522-.75 1.1-2.088 1.73-1.33.623-3.077.623m0-1.875q1.185 0 2.046-.384.861-.383 1.329-1.082.47-.7.477-1.637-.008-.988-.511-1.747a3.5 3.5 0 0 0-1.372-1.193q-.86-.435-1.969-.435-1.116 0-1.994.435a3.47 3.47 0 0 0-1.372 1.193q-.495.759-.486 1.747-.009.938.452 1.637.468.698 1.338 1.082.869.384 2.062.384m0-8.284q.938 0 1.662-.375.733-.375 1.151-1.049.417-.673.426-1.576-.009-.887-.418-1.543a2.7 2.7 0 0 0-1.133-1.023q-.725-.366-1.688-.366-.98 0-1.713.366-.733.358-1.133 1.023-.4.656-.392 1.543-.01.903.4 1.576.418.674 1.151 1.049.732.375 1.687.375"/><path fill="#fff" d="M507.377 52.546V70h-2.114V54.761h-.102l-4.261 2.83v-2.148l4.363-2.898zm10.576-.24a6.3 6.3 0 0 1 2.148.41q1.074.4 1.96 1.33.887.92 1.424 2.514t.537 3.997q0 2.327-.444 4.133-.434 1.799-1.261 3.034-.818 1.237-1.994 1.875-1.168.64-2.642.64-1.467 0-2.617-.58a5.14 5.14 0 0 1-1.875-1.628q-.724-1.048-.929-2.429h2.08q.281 1.201 1.116 1.986.844.776 2.225.776 2.02 0 3.187-1.765 1.176-1.764 1.176-4.985h-.136q-.477.716-1.133 1.235a5 5 0 0 1-1.458.802 5.1 5.1 0 0 1-1.704.28q-1.5 0-2.753-.74a5.6 5.6 0 0 1-1.995-2.055q-.741-1.313-.741-3 0-1.602.716-2.931a5.54 5.54 0 0 1 2.028-2.131q1.313-.793 3.085-.767m0 1.876a3.6 3.6 0 0 0-1.934.537 3.86 3.86 0 0 0-1.355 1.432 4.03 4.03 0 0 0-.495 1.985q0 1.092.478 1.986a3.8 3.8 0 0 0 1.321 1.415q.843.52 1.917.52.81 0 1.509-.316a3.9 3.9 0 0 0 1.219-.877q.528-.563.826-1.27a3.8 3.8 0 0 0 .299-1.492 3.9 3.9 0 0 0-.495-1.917 3.9 3.9 0 0 0-1.346-1.45q-.853-.552-1.944-.553"/><path fill="#727272" d="M512.375 153.307a6.2 6.2 0 0 1 2.148.409q1.074.4 1.96 1.329.887.92 1.424 2.515.537 1.594.537 3.997 0 2.327-.444 4.133-.434 1.799-1.261 3.034-.818 1.236-1.994 1.875-1.168.64-2.642.64-1.467 0-2.617-.58a5.14 5.14 0 0 1-1.875-1.628q-.724-1.048-.929-2.429h2.08q.28 1.201 1.116 1.986.844.776 2.225.776 2.02 0 3.187-1.765 1.176-1.764 1.176-4.985h-.136a5.3 5.3 0 0 1-1.134 1.235 5 5 0 0 1-1.457.802 5.1 5.1 0 0 1-1.705.281q-1.5 0-2.752-.742a5.6 5.6 0 0 1-1.995-2.054q-.741-1.312-.741-3 0-1.602.716-2.931a5.53 5.53 0 0 1 2.028-2.131q1.313-.793 3.085-.767m0 1.875q-1.074 0-1.934.537a3.86 3.86 0 0 0-1.355 1.432 4.03 4.03 0 0 0-.495 1.985q0 1.092.478 1.986a3.8 3.8 0 0 0 1.321 1.415q.843.52 1.917.52.81 0 1.509-.316a3.9 3.9 0 0 0 1.218-.877q.529-.563.827-1.27.298-.717.298-1.492 0-1.023-.494-1.917a3.9 3.9 0 0 0-1.346-1.449q-.853-.555-1.944-.554"/><path stroke="#fff" stroke-width="5" d="M158.5 236.5V347a7.5 7.5 0 0 1-7.5 7.5h-41a7.5 7.5 0 0 1-7.5-7.5V236.5zM540.5 236.5V347a7.5 7.5 0 0 1-7.5 7.5h-41a7.5 7.5 0 0 1-7.5-7.5V236.5z"/><rect width="638" height="52" x="2.5" y="184.5" stroke="#fff" stroke-width="5" rx="7.5"/><rect width="9" height="42" x="126" y="279" fill="#d9d9d9" rx="4.5"/><rect width="9" height="42" x="508" y="279" fill="#d9d9d9" rx="4.5"/><rect width="9" height="16" x="126" y="254" fill="#d9d9d9" rx="4.5"/><rect width="9" height="16" x="508" y="254" fill="#d9d9d9" rx="4.5"/><circle cx="130.5" cy="334.5" r="4.5" fill="#d9d9d9"/><circle cx="512.5" cy="334.5" r="4.5" fill="#d9d9d9"/><path stroke="#fff" stroke-width="5" d="M2 221.5h638M69 59.5h37.5v125h-45V67a7.5 7.5 0 0 1 7.5-7.5ZM573 59.5h-37.5v125h45V67a7.5 7.5 0 0 0-7.5-7.5ZM114 34.5h30a7.5 7.5 0 0 1 7.5 7.5v142.5h-45V42a7.5 7.5 0 0 1 7.5-7.5ZM204 34.5h30a7.5 7.5 0 0 1 7.5 7.5v142.5h-45V42a7.5 7.5 0 0 1 7.5-7.5ZM498 34.5h30a7.5 7.5 0 0 1 7.5 7.5v142.5h-45V42a7.5 7.5 0 0 1 7.5-7.5ZM388 34.5a7.5 7.5 0 0 1 7.5 7.5v142.5h-45v-150zM291 2.5h52a7.5 7.5 0 0 1 7.5 7.5v174.5h-67V10a7.5 7.5 0 0 1 7.5-7.5ZM448.5 83.5v101h-53v-101zM196.5 49.5v135h-45v-135zM283.5 49.5v135h-41v-135zM456 49.5h34.5v135h-42V57a7.5 7.5 0 0 1 7.5-7.5Z"/></svg>