<svg xmlns="http://www.w3.org/2000/svg" width="576" height="523" fill="none" viewBox="0 0 576 523"><path fill="#096" d="M7.18 98.32q-1.216 0-2.272-.64-1.023-.671-1.664-2.048-.608-1.408-.608-3.648 0-2.304.704-4.352.737-2.048 2.016-3.584a9.5 9.5 0 0 1 3.008-2.464 8.2 8.2 0 0 1 3.776-.896q1.248 0 2.592.416 1.344.415 2.72 1.344l-1.376-.224.704-1.184h1.728l-2.56 16.16-1.088-2.016 3.712 1.024-.288 1.76-5.28.16 1.024-6.08.928-1.568q-.672 2.624-1.984 4.384-1.312 1.728-2.848 2.592t-2.944.864m1.216-2.56q.8 0 1.696-.48.929-.512 1.76-1.504.833-1.024 1.472-2.528.672-1.504.992-3.52l.704-4.48.544 1.088q-.927-.64-1.792-.928a5.3 5.3 0 0 0-1.696-.288q-1.376 0-2.528.704-1.12.705-1.952 1.888-.832 1.185-1.312 2.72a11.4 11.4 0 0 0-.448 3.2q0 2.145.736 3.136.737.992 1.824.992M22.058 98l2.56-16.096 1.088 1.952-3.68-1.024.256-1.696 5.44-.224-1.184 6.016-.96 1.632q.64-2.496 1.888-4.256 1.28-1.76 2.816-2.656 1.567-.928 3.072-.928.768 0 1.312.224l-.864 5.024H31.85l.032-3.104.416.352q-.897-.064-1.824.448-.928.48-1.792 1.504-.833 1.024-1.472 2.528-.64 1.505-.96 3.456L25.194 98zm13.468 0 2.56-16.096 1.088 1.952-3.68-1.024.256-1.696 5.44-.224-1.184 6.016-.96 1.632q.64-2.496 1.888-4.256 1.28-1.76 2.816-2.656 1.569-.928 3.072-.928.769 0 1.312.224l-.864 5.024h-1.952l.032-3.104.416.352q-.895-.064-1.824.448-.928.48-1.792 1.504-.831 1.024-1.472 2.528-.639 1.505-.96 3.456L38.662 98zm12.097 3.36 4.864-30.656 7.04.16-.288 2.016-4.448.16-4.096 25.952 4.384.192-.352 2.016zM69.6 98.128l1.792-11.008q.192-1.248 0-2.112-.16-.864-.672-1.312-.48-.448-1.28-.448t-1.696.48-1.76 1.44q-.833.96-1.472 2.464-.64 1.504-.992 3.52L62.464 98h-3.136l3.616-22.784.416.608-2.848-.608.288-1.76 5.568-.224L64 86.928l-1.152 1.632q.768-2.816 2.08-4.544 1.344-1.728 2.88-2.496 1.536-.8 2.944-.8 1.376 0 2.336.672t1.376 1.952q.447 1.28.128 3.104l-1.536 9.728-1.312-.992 3.744 1.024-.288 1.76zm9.176 0 2.592-16.224 1.12 1.952-3.712-1.024.256-1.696 5.6-.224-2.56 16.256-1.088-1.952 3.68 1.056-.288 1.696zm4.864-20.32q-.832 0-1.312-.512t-.48-1.344q0-1.024.608-1.664.64-.64 1.6-.64.832 0 1.312.48t.48 1.376q0 .992-.64 1.664-.609.64-1.568.64m8.799 27.872q-1.409 0-2.88-.288a22 22 0 0 1-2.88-.768l.672-2.272q1.344.448 2.624.704 1.311.256 2.368.256 1.44 0 2.4-.416.991-.384 1.6-1.088a5.1 5.1 0 0 0 .992-1.632q.384-.929.544-1.952l.96-6.208 1.024-1.536q-.672 2.624-1.984 4.384-1.28 1.728-2.848 2.592-1.537.864-2.944.864-1.216 0-2.272-.64-1.025-.671-1.664-2.048-.609-1.408-.608-3.648 0-2.304.704-4.352.735-2.048 2.016-3.584a9.1 9.1 0 0 1 3.008-2.432 8.2 8.2 0 0 1 3.776-.896q1.248 0 2.592.416 1.344.384 2.72 1.312l-1.344-.288.672-1.12h1.728l-2.688 17.12q-.352 2.112-1.12 3.552-.737 1.44-1.856 2.304a6.6 6.6 0 0 1-2.464 1.28 10.3 10.3 0 0 1-2.848.384m.864-9.92q.8 0 1.696-.48.895-.512 1.728-1.504.864-1.024 1.504-2.528t.992-3.52l.704-4.48.544 1.088q-.928-.64-1.792-.928a5.3 5.3 0 0 0-1.696-.288q-1.377 0-2.528.704-1.12.705-1.952 1.888-.832 1.185-1.312 2.72a11.4 11.4 0 0 0-.448 3.2q0 2.145.736 3.136.735.992 1.824.992m23.015 2.368 1.792-11.008q.192-1.248 0-2.112-.159-.864-.672-1.312-.48-.448-1.28-.448t-1.696.48-1.76 1.44q-.831.96-1.472 2.464-.64 1.504-.992 3.52L109.182 98h-3.136l3.616-22.784.416.608-2.848-.608.288-1.76 5.568-.224-2.368 13.696-1.152 1.632q.769-2.816 2.08-4.544 1.344-1.728 2.88-2.496 1.537-.8 2.944-.8 1.376 0 2.336.672t1.376 1.952q.449 1.28.128 3.104l-1.536 9.728-1.312-.992 3.744 1.024-.288 1.76zm18.456-27.424-4.864 30.656-7.072-.16.32-2.016 4.416-.192 4.128-25.952-4.384-.16.32-2.016zm16.853 16.672-.384 2.496h-9.088l.384-2.496zM164.93 98.32q-1.216 0-2.272-.64-1.023-.671-1.664-2.048-.608-1.408-.608-3.648 0-2.304.704-4.352.737-2.048 2.016-3.584a9.5 9.5 0 0 1 3.008-2.464 8.2 8.2 0 0 1 3.776-.896q1.248 0 2.592.416 1.344.415 2.72 1.344l-1.376-.224.704-1.184h1.728l-2.56 16.16-1.088-2.016 3.712 1.024-.288 1.76-5.28.16 1.024-6.08.928-1.568q-.672 2.624-1.984 4.384-1.312 1.728-2.848 2.592t-2.944.864m1.216-2.56q.8 0 1.696-.48.929-.512 1.76-1.504.833-1.024 1.472-2.528.672-1.504.992-3.52l.704-4.48.544 1.088q-.927-.64-1.792-.928a5.3 5.3 0 0 0-1.696-.288q-1.376 0-2.528.704-1.12.705-1.952 1.888a9.8 9.8 0 0 0-1.312 2.72 11.4 11.4 0 0 0-.448 3.2q0 2.145.736 3.136.737.992 1.824.992M179.808 98l2.56-16.096 1.088 1.952-3.68-1.024.256-1.696 5.44-.224-1.184 6.016-.96 1.632q.64-2.496 1.888-4.256 1.28-1.76 2.816-2.656 1.567-.928 3.072-.928.768 0 1.312.224l-.864 5.024H189.6l.032-3.104.416.352q-.897-.064-1.824.448-.928.48-1.792 1.504-.833 1.024-1.472 2.528-.64 1.505-.96 3.456L182.944 98zm13.468 0 2.56-16.096 1.088 1.952-3.68-1.024.256-1.696 5.44-.224-1.184 6.016-.96 1.632q.64-2.496 1.888-4.256 1.28-1.76 2.816-2.656 1.569-.928 3.072-.928.768 0 1.312.224l-.864 5.024h-1.952l.032-3.104.416.352q-.895-.064-1.824.448-.928.48-1.792 1.504-.831 1.024-1.472 2.528-.639 1.505-.96 3.456L196.412 98zm12.097 3.36 4.864-30.656 7.04.16-.288 2.016-4.448.16-4.096 25.952 4.384.192-.352 2.016zm11.673-3.232 3.776-23.904 1.12 1.92-3.68-.928.256-1.76 5.6-.224-3.776 23.904-1.152-1.952 3.744 1.024-.288 1.76zm17.93-17.408q1.888 0 3.296.736 1.409.704 2.208 2.24t.8 4q0 1.984-.576 3.904a10.9 10.9 0 0 1-1.664 3.424 8.2 8.2 0 0 1-2.848 2.4q-1.696.896-3.968.896-1.856 0-3.296-.704-1.409-.735-2.208-2.272-.768-1.568-.768-4.032 0-1.984.544-3.872.576-1.889 1.696-3.392a8.15 8.15 0 0 1 2.816-2.432q1.696-.896 3.968-.896m-.32 2.336q-1.44 0-2.496.8-1.024.8-1.696 2.08a10.3 10.3 0 0 0-.992 2.72 12.6 12.6 0 0 0-.32 2.72q0 2.175.832 3.392.864 1.216 2.592 1.216 1.408 0 2.432-.8a6.2 6.2 0 0 0 1.728-2.048q.672-1.28.992-2.72.352-1.472.352-2.784 0-2.175-.832-3.36-.832-1.215-2.592-1.216m11.431 15.008-1.728-15.136.384.32-2.048-.384.256-1.728 4.288-.224 1.152 15.296h-.448l6.272-15.104 3.328-.16 1.312 15.232h-.352l5.6-13.28.16.448-2.208-.48.256-1.728 5.984-.224-.224 1.696-1.824.544.512-.384-6.816 15.296h-3.392l-1.6-14.688.864.064-6.336 14.624zm31.969-27.36-4.864 30.656-7.072-.16.32-2.016 4.416-.192 4.128-25.952-4.384-.16.32-2.016zM381.102 98.32q-1.216 0-2.272-.64-1.023-.671-1.664-2.048-.608-1.408-.608-3.648 0-2.304.704-4.352.737-2.048 2.016-3.584a9.5 9.5 0 0 1 3.008-2.464 8.2 8.2 0 0 1 3.776-.896q1.248 0 2.592.416 1.344.415 2.72 1.344l-1.376-.224.704-1.184h1.728l-2.56 16.16-1.088-2.016 3.712 1.024-.288 1.76-5.28.16 1.024-6.08.928-1.568q-.672 2.624-1.984 4.384-1.312 1.728-2.848 2.592t-2.944.864m1.216-2.56q.8 0 1.696-.48.929-.512 1.76-1.504.833-1.024 1.472-2.528.672-1.504.992-3.52l.704-4.48.544 1.088q-.928-.64-1.792-.928a5.3 5.3 0 0 0-1.696-.288q-1.376 0-2.528.704-1.12.705-1.952 1.888a9.8 9.8 0 0 0-1.312 2.72 11.4 11.4 0 0 0-.448 3.2q0 2.145.736 3.136t1.824.992M395.98 98l2.56-16.096 1.088 1.952-3.68-1.024.256-1.696 5.44-.224-1.184 6.016-.96 1.632q.64-2.496 1.888-4.256 1.28-1.76 2.816-2.656 1.567-.928 3.072-.928.768 0 1.312.224l-.864 5.024h-1.952l.032-3.104.416.352q-.897-.064-1.824.448-.928.48-1.792 1.504-.833 1.024-1.472 2.528-.64 1.505-.96 3.456L399.116 98zm13.468 0 2.56-16.096 1.088 1.952-3.68-1.024.256-1.696 5.44-.224-1.184 6.016-.96 1.632q.64-2.496 1.888-4.256 1.28-1.76 2.816-2.656 1.569-.928 3.072-.928.769 0 1.312.224l-.864 5.024h-1.952l.032-3.104.416.352q-.895-.064-1.824.448-.928.48-1.792 1.504-.831 1.024-1.472 2.528-.639 1.505-.96 3.456L412.584 98zm12.097 3.36 4.864-30.656 7.04.16-.288 2.016-4.448.16-4.096 25.952 4.384.192-.352 2.016zm16.516-3.04q-1.505 0-3.104-.416a15.2 15.2 0 0 1-3.2-1.248l1.12-2.304q1.215.64 2.432.96a9.4 9.4 0 0 0 2.336.32q1.663 0 2.976-.704a5.24 5.24 0 0 0 2.048-1.92 5.1 5.1 0 0 0 .768-2.72q0-1.28-.544-1.952-.513-.704-1.44-.992-.897-.32-2.016-.352a38 38 0 0 0-2.24-.064h-2.656l2.24-11.328h11.424l-.448 2.592h-9.184l.992-.608-1.504 7.616-.736-.736h1.728q.8 0 1.824.064 1.024.065 2.08.32 1.055.225 1.952.832.895.576 1.408 1.632.543 1.055.544 2.72 0 2.336-1.12 4.224t-3.104 2.976-4.576 1.088m21.417-27.616-4.864 30.656-7.073-.16.32-2.016 4.417-.192 4.128-25.952-4.384-.16.32-2.016zm16.852 16.672-.384 2.496h-9.088l.384-2.496zm13.304 10.944a4.3 4.3 0 0 1-2.272-.64q-1.025-.671-1.664-2.048-.608-1.408-.608-3.648 0-2.304.704-4.352.735-2.048 2.016-3.584a9.5 9.5 0 0 1 3.008-2.464 8.2 8.2 0 0 1 3.776-.896q1.248 0 2.592.416 1.344.415 2.72 1.344l-1.376-.224.704-1.184h1.728l-2.56 16.16-1.088-2.016 3.712 1.024-.288 1.76-5.28.16 1.024-6.08.928-1.568q-.672 2.624-1.984 4.384-1.312 1.728-2.848 2.592-1.537.864-2.944.864m1.216-2.56q.8 0 1.696-.48.927-.512 1.76-1.504.831-1.024 1.472-2.528.671-1.504.992-3.52l.704-4.48.544 1.088q-.928-.64-1.792-.928a5.4 5.4 0 0 0-1.696-.288q-1.377 0-2.528.704-1.12.705-1.952 1.888-.832 1.185-1.312 2.72a11.4 11.4 0 0 0-.448 3.2q0 2.145.736 3.136.735.992 1.824.992M504.511 98l2.56-16.096 1.088 1.952-3.68-1.024.256-1.696 5.44-.224-1.184 6.016-.96 1.632q.64-2.496 1.888-4.256 1.28-1.76 2.816-2.656 1.567-.928 3.072-.928.768 0 1.312.224l-.864 5.024h-1.952l.032-3.104.416.352q-.897-.064-1.824.448-.928.48-1.792 1.504-.833 1.024-1.472 2.528-.64 1.505-.96 3.456L507.647 98zm13.469 0 2.56-16.096 1.088 1.952-3.68-1.024.256-1.696 5.44-.224-1.184 6.016-.96 1.632q.64-2.496 1.888-4.256 1.28-1.76 2.816-2.656 1.567-.928 3.072-.928.768 0 1.312.224l-.864 5.024h-1.952l.032-3.104.416.352q-.897-.064-1.824.448-.928.48-1.792 1.504-.833 1.024-1.472 2.528-.64 1.505-.96 3.456L521.116 98zm12.096 3.36 4.864-30.656 7.04.16-.288 2.016-4.448.16-4.096 25.952 4.384.192-.352 2.016zm18.436-3.04q-2.048 0-3.488-.8-1.44-.833-2.176-2.624-.736-1.824-.736-4.768 0-1.76.288-3.776a21.6 21.6 0 0 1 1.024-4 13.8 13.8 0 0 1 1.888-3.552 9.2 9.2 0 0 1 3.008-2.56q1.792-.96 4.256-.96 3.072 0 4.672 1.792t1.6 6.112a26 26 0 0 1-.32 3.904 20.6 20.6 0 0 1-.992 4.032 14.2 14.2 0 0 1-1.888 3.616 9.1 9.1 0 0 1-2.944 2.624q-1.76.96-4.192.96m.384-2.56q1.536 0 2.656-.896 1.152-.929 1.92-2.432.8-1.504 1.248-3.232.48-1.76.672-3.456.224-1.696.224-2.976 0-1.888-.416-2.944-.416-1.087-1.184-1.536-.768-.448-1.824-.448-1.6 0-2.784.864-1.152.864-1.952 2.304a15 15 0 0 0-1.248 3.104 26 26 0 0 0-.672 3.328 25 25 0 0 0-.192 2.944q0 2.976.928 4.192.96 1.185 2.624 1.184m22.238-25.056-4.864 30.656-7.072-.16.32-2.016 4.416-.192 4.128-25.952-4.384-.16.32-2.016zM417.702 216.968 406.342 237h-3.584l11.648-20.256.416.512h-9.92l.8-.544-1.28 3.872h-1.952l.928-5.984h14.656zm16.175 9.408-.384 2.496h-9.088l.384-2.496zm15.671 8.992-.48-.864 3.936.768-.288 1.728H441.9l.288-1.728 4.992-.864-.8.96 2.88-18.016.864.064-5.76 3.136-.768-2.048 6.656-4.032h2.624zM423.179 366.752l.096-2.304q1.6-1.056 3.232-1.536t3.104-.48q1.6 0 2.912.576a4.54 4.54 0 0 1 2.08 1.824q.768 1.248.768 3.232 0 2.368-1.12 4.256a8.2 8.2 0 0 1-3.04 2.944q-1.92 1.056-4.32 1.056-1.473 0-2.72-.448a5.9 5.9 0 0 1-2.208-1.408q-.929-.96-1.44-2.496-.512-1.536-.512-3.68 0-2.24.544-4.384a17.2 17.2 0 0 1 1.664-4.096 15.4 15.4 0 0 1 2.656-3.392 11.8 11.8 0 0 1 3.552-2.304q2.016-.864 4.416-.864 1.6 0 3.2.416l-.48 2.528q-.704-.16-1.376-.224a8.4 8.4 0 0 0-1.248-.096q-1.856 0-3.392.704a8.5 8.5 0 0 0-2.72 1.888 11 11 0 0 0-1.92 2.816 15.5 15.5 0 0 0-1.184 3.392 18 18 0 0 0-.384 3.712q0 1.985.416 3.168.447 1.184 1.28 1.696.831.48 1.92.48 1.503 0 2.624-.736a5.3 5.3 0 0 0 1.792-2.016q.64-1.248.64-2.72 0-1.92-.992-2.688-.96-.8-2.464-.8-1.312 0-2.752.512a9.4 9.4 0 0 0-2.624 1.472M424.717 515.32q-1.792 0-3.424-.48a11.4 11.4 0 0 1-3.008-1.376l1.12-2.336q2.464 1.536 5.216 1.536 1.696 0 3.008-.608t2.048-1.696q.768-1.12.768-2.592 0-1.12-.512-1.824-.512-.736-1.504-1.088-.96-.352-2.336-.352h-2.56l.384-2.4h2.528q2.496 0 3.808-1.28 1.344-1.28 1.344-3.168 0-1.697-.992-2.304-.96-.64-2.464-.64-1.024 0-2.176.224-1.12.224-2.144.544l.448-.512-.896 3.616h-1.92l.448-5.056a27 27 0 0 1 3.648-.928 19 19 0 0 1 3.328-.32q1.728 0 3.072.48 1.376.448 2.144 1.504.8 1.024.8 2.848 0 2.624-1.696 4.256-1.664 1.6-4.384 1.952l-.256-.288q2.656.224 3.872 1.408t1.216 3.328q0 2.208-1.152 3.936-1.152 1.696-3.168 2.656t-4.608.96"/><path fill="#fff" d="m334.034 49.672-.384 2.336h-13.888l.384-2.336zm-.96 6.144-.384 2.336h-13.888l.384-2.336zM334.034 188.672l-.384 2.336h-13.888l.384-2.336zm-.96 6.144-.384 2.336h-13.888l.384-2.336zM334.034 327.672l-.384 2.336h-13.888l.384-2.336zm-.96 6.144-.384 2.336h-13.888l.384-2.336zM334.034 466.672l-.384 2.336h-13.888l.384-2.336zm-.96 6.144-.384 2.336h-13.888l.384-2.336z"/><path fill="#e27c00" d="M60.549 3.344a33 33 0 0 0-3.904 5.696 30.7 30.7 0 0 0-2.592 6.4 25.6 25.6 0 0 0-.896 6.688q0 2.753.64 5.504a22 22 0 0 0 2.016 5.248L53.733 34a20.9 20.9 0 0 1-2.656-5.888 23.9 23.9 0 0 1-.864-6.368q0-3.68 1.056-7.232a30.1 30.1 0 0 1 2.944-6.752 32.5 32.5 0 0 1 4.48-5.856zM57.759 30l.288-1.696 2.784-.512-.832.448 5.664-7.328.992-.128 5.92-7.648 3.872-.224-.256 1.696-2.624.544.928-.48-5.632 6.88-.928.128L61.759 30zm12.32 0-4.096-7.968-3.84-7.328.576.576-2.144-.416.256-1.728 3.744-.288 3.776 7.424 4.192 7.968-.544-.512 2.592.576L74.303 30zm23.314-10.624-.384 2.496H83.92l.384-2.496zm13.303 10.944a4.3 4.3 0 0 1-2.272-.64q-1.024-.671-1.664-2.048-.608-1.408-.608-3.648 0-2.304.704-4.352.736-2.048 2.016-3.584a9.5 9.5 0 0 1 3.008-2.464 8.2 8.2 0 0 1 3.776-.896q1.248 0 2.592.416 1.344.415 2.72 1.344l-1.376-.224.704-1.184h1.728l-2.56 16.16-1.088-2.016 3.712 1.024-.288 1.76-5.28.16 1.024-6.08.928-1.568q-.672 2.624-1.984 4.384-1.312 1.728-2.848 2.592t-2.944.864m1.216-2.56q.8 0 1.696-.48.928-.512 1.76-1.504.832-1.024 1.472-2.528.672-1.504.992-3.52l.704-4.48.544 1.088q-.928-.64-1.792-.928a5.3 5.3 0 0 0-1.696-.288q-1.376 0-2.528.704-1.12.705-1.952 1.888-.832 1.185-1.312 2.72a11.4 11.4 0 0 0-.448 3.2q0 2.145.736 3.136.737.992 1.824.992M121.573 30l2.56-16.096 1.088 1.952-3.68-1.024.256-1.696 5.44-.224-1.184 6.016-.96 1.632q.64-2.496 1.888-4.256 1.28-1.76 2.816-2.656 1.569-.928 3.072-.928.768 0 1.312.224l-.864 5.024h-1.952l.032-3.104.416.352q-.896-.064-1.824.448-.928.48-1.792 1.504-.831 1.024-1.472 2.528-.639 1.505-.96 3.456L124.709 30zm13.469 0 2.56-16.096 1.088 1.952-3.68-1.024.256-1.696 5.44-.224-1.184 6.016-.96 1.632q.64-2.496 1.888-4.256 1.28-1.76 2.816-2.656 1.567-.928 3.072-.928.768 0 1.312.224l-.864 5.024h-1.952l.032-3.104.416.352q-.895-.064-1.824.448-.928.48-1.792 1.504-.832 1.024-1.472 2.528t-.96 3.456L138.178 30zm12.097 3.36 4.864-30.656 7.04.16-.288 2.016-4.448.16-4.096 25.952 4.384.192-.352 2.016zm11.672-3.232 3.776-23.904 1.12 1.92-3.68-.928.256-1.76 5.6-.224-3.776 23.904-1.152-1.952 3.744 1.024-.288 1.76zm17.931-17.408q1.887 0 3.296.736 1.407.704 2.208 2.24.8 1.536.8 4 0 1.984-.576 3.904a10.9 10.9 0 0 1-1.664 3.424 8.2 8.2 0 0 1-2.848 2.4q-1.697.896-3.968.896-1.856 0-3.296-.704-1.409-.736-2.208-2.272-.768-1.568-.768-4.032 0-1.984.544-3.872.576-1.889 1.696-3.392a8.14 8.14 0 0 1 2.816-2.432q1.695-.896 3.968-.896m-.32 2.336q-1.44 0-2.496.8-1.024.8-1.696 2.08a10.3 10.3 0 0 0-.992 2.72q-.32 1.44-.32 2.72 0 2.175.832 3.392.864 1.215 2.592 1.216 1.407 0 2.432-.8a6.2 6.2 0 0 0 1.728-2.048q.671-1.28.992-2.72.351-1.472.352-2.784 0-2.175-.832-3.36-.833-1.215-2.592-1.216m11.431 15.008-1.728-15.136.384.32-2.048-.384.256-1.728 4.288-.224 1.152 15.296h-.448l6.272-15.104 3.328-.16 1.312 15.232h-.352l5.6-13.28.16.448-2.208-.48.256-1.728 5.984-.224-.224 1.696-1.824.544.512-.384-6.816 15.296h-3.392l-1.6-14.688.864.064-6.336 14.624zm31.968-27.36-4.864 30.656-7.072-.16.32-2.016 4.416-.192 4.128-25.952-4.384-.16.32-2.016zm-1.276 30.048a32.8 32.8 0 0 0 3.904-5.696 29.5 29.5 0 0 0 2.56-6.4q.928-3.328.928-6.688 0-2.753-.64-5.504a20.3 20.3 0 0 0-2.016-5.248l2.08-1.152a20.2 20.2 0 0 1 2.656 5.92q.864 3.135.864 6.368a25.1 25.1 0 0 1-1.056 7.2 29.3 29.3 0 0 1-2.976 6.752 32.3 32.3 0 0 1-4.448 5.888zM410.518 3.344a32.8 32.8 0 0 0-3.904 5.696 30.7 30.7 0 0 0-2.592 6.4 25.6 25.6 0 0 0-.896 6.688q0 2.753.64 5.504a22 22 0 0 0 2.016 5.248l-2.08 1.12a20.9 20.9 0 0 1-2.656-5.888 23.9 23.9 0 0 1-.864-6.368q0-3.68 1.056-7.232a30 30 0 0 1 2.944-6.752 32.5 32.5 0 0 1 4.48-5.856zm4.762 26.976q-1.505 0-3.104-.416a15.2 15.2 0 0 1-3.2-1.248l1.12-2.304q1.215.64 2.432.96a9.4 9.4 0 0 0 2.336.32q1.663 0 2.976-.704a5.24 5.24 0 0 0 2.048-1.92 5.1 5.1 0 0 0 .768-2.72q0-1.28-.544-1.952-.513-.704-1.44-.992-.897-.32-2.016-.352a38 38 0 0 0-2.24-.064h-2.656L414 7.6h11.424l-.448 2.592h-9.184l.992-.608-1.504 7.616-.736-.736h1.728q.8 0 1.823.064 1.025.065 2.081.32 1.055.225 1.952.832.895.576 1.408 1.632.543 1.056.544 2.72 0 2.335-1.12 4.224-1.12 1.888-3.104 2.976t-4.576 1.088m27.769-10.944-.384 2.496h-9.088l.384-2.496zm13.303 10.944q-1.216 0-2.272-.64-1.023-.671-1.664-2.048-.608-1.408-.608-3.648 0-2.304.704-4.352.737-2.048 2.016-3.584a9.5 9.5 0 0 1 3.008-2.464 8.2 8.2 0 0 1 3.776-.896q1.248 0 2.592.416 1.344.415 2.72 1.344l-1.376-.224.704-1.184h1.728l-2.56 16.16-1.088-2.016 3.712 1.024-.288 1.76-5.28.16 1.024-6.08.928-1.568q-.672 2.624-1.984 4.384-1.312 1.728-2.848 2.592t-2.944.864m1.216-2.56q.8 0 1.696-.48.929-.512 1.76-1.504.833-1.024 1.472-2.528.672-1.504.992-3.52l.704-4.48.544 1.088q-.928-.64-1.792-.928a5.3 5.3 0 0 0-1.696-.288q-1.376 0-2.528.704-1.12.705-1.952 1.888a9.8 9.8 0 0 0-1.312 2.72 11.4 11.4 0 0 0-.448 3.2q0 2.145.736 3.136t1.824.992M471.23 30l2.56-16.096 1.088 1.952-3.68-1.024.256-1.696 5.44-.224-1.184 6.016-.96 1.632q.64-2.496 1.888-4.256 1.28-1.76 2.816-2.656 1.567-.928 3.072-.928.768 0 1.312.224l-.864 5.024h-1.952l.032-3.104.416.352q-.897-.064-1.824.448-.928.48-1.792 1.504-.833 1.024-1.472 2.528-.64 1.505-.96 3.456L474.366 30zm13.468 0 2.56-16.096 1.088 1.952-3.68-1.024.256-1.696 5.44-.224-1.184 6.016-.96 1.632q.64-2.496 1.888-4.256 1.28-1.76 2.816-2.656 1.569-.928 3.072-.928.769 0 1.312.224l-.864 5.024h-1.952l.032-3.104.416.352q-.895-.064-1.824.448-.928.48-1.792 1.504-.831 1.024-1.472 2.528-.639 1.505-.96 3.456L487.834 30zm12.097 3.36 4.864-30.656 7.04.16-.288 2.016-4.448.16-4.096 25.952 4.384.192-.352 2.016zm18.436-3.04q-2.048 0-3.488-.8-1.44-.833-2.176-2.624-.736-1.824-.736-4.768 0-1.76.288-3.776a21.5 21.5 0 0 1 1.024-4 13.8 13.8 0 0 1 1.888-3.552 9.2 9.2 0 0 1 3.008-2.56q1.791-.96 4.256-.96 3.072 0 4.672 1.792t1.6 6.112a26 26 0 0 1-.32 3.904 20.6 20.6 0 0 1-.992 4.032 14.2 14.2 0 0 1-1.888 3.616 9.15 9.15 0 0 1-2.944 2.624q-1.76.96-4.192.96m.384-2.56q1.536 0 2.656-.896 1.152-.929 1.92-2.432.8-1.504 1.248-3.232.48-1.76.672-3.456.224-1.696.224-2.976 0-1.888-.416-2.944-.417-1.088-1.184-1.536-.768-.448-1.824-.448-1.6 0-2.784.864-1.152.864-1.952 2.304a15 15 0 0 0-1.248 3.104 26 26 0 0 0-.672 3.328 25 25 0 0 0-.192 2.944q0 2.976.928 4.192.96 1.185 2.624 1.184m22.238-25.056-4.864 30.656-7.073-.16.32-2.016 4.417-.192 4.128-25.952-4.384-.16.32-2.016zm-1.277 30.048a33 33 0 0 0 3.905-5.696 29.6 29.6 0 0 0 2.56-6.4q.928-3.328.928-6.688 0-2.753-.64-5.504a20.4 20.4 0 0 0-2.017-5.248l2.081-1.152a20.2 20.2 0 0 1 2.656 5.92q.864 3.135.864 6.368a25.1 25.1 0 0 1-1.056 7.2 29.3 29.3 0 0 1-2.976 6.752 32.4 32.4 0 0 1-4.448 5.888zM406.061 169.32q-1.505 0-3.104-.416a15.2 15.2 0 0 1-3.2-1.248l1.12-2.304q1.215.64 2.432.96 1.248.32 2.336.32 1.663 0 2.976-.704a5.23 5.23 0 0 0 2.048-1.92 5.1 5.1 0 0 0 .768-2.72q0-1.28-.544-1.952-.513-.704-1.44-.992-.897-.32-2.016-.352a38 38 0 0 0-2.24-.064h-2.656l2.24-11.328h11.424l-.448 2.592h-9.184l.992-.608-1.504 7.616-.736-.736h1.728q.8 0 1.824.064t2.08.32a5.5 5.5 0 0 1 1.952.832q.895.576 1.408 1.632.543 1.056.544 2.72 0 2.335-1.12 4.224-1.12 1.888-3.104 2.976t-4.576 1.088m27.769-10.944-.384 2.496h-9.088l.384-2.496zm15.672 8.992-.48-.864 3.936.768-.288 1.728h-10.816l.288-1.728 4.992-.864-.8.96 2.88-18.016.864.064-5.76 3.136-.769-2.048 6.657-4.032h2.624zM428.917 301.92l.672.704h-10.816v-2.336l12.416-15.072 3.488.384-2.368 15.072-.704-.64h4.288l-.416 2.592h-4.288l.928-.704-.96 6.08h-3.2zm1.184-1.888-.992.64 2.144-13.504 1.024.192-11.328 13.824-.384-1.152zM418.455 447l.416-2.88a763 763 0 0 1 3.52-2.784 82 82 0 0 0 3.456-2.88 42 42 0 0 0 2.944-2.912q1.312-1.44 2.08-2.88t.768-2.816q0-1.567-1.024-2.304-.992-.736-2.624-.736-.896 0-1.952.224-1.056.192-2.176.544l.512-.608-1.056 3.776h-1.952l.48-5.28a25 25 0 0 1 3.52-.864 18 18 0 0 1 3.296-.32q1.856 0 3.296.512t2.24 1.6q.832 1.088.832 2.88 0 1.664-.736 3.328-.736 1.632-1.984 3.232a30 30 0 0 1-2.88 3.104 58 58 0 0 1-3.392 3.008q-1.792 1.471-3.52 2.88l.064-.48h10.752l-.448 2.656z"/><path stroke="#fff" stroke-width="2" d="M0 53h279M371 53h205M371 192h112M394 331h66M394 470h66"/></svg>