<svg xmlns="http://www.w3.org/2000/svg" width="698" height="1396" fill="none" viewBox="0 0 698 1396"><g clip-path="url(#a)"><mask id="b" fill="#fff"><path d="M537.354 384.184a463 463 0 0 0 38.644-186.473l-379.077 1.055a83.9 83.9 0 0 1-7.005 33.799z"/></mask><path fill="#00a6ff" stroke="#fff" stroke-width="6" d="M537.354 384.184a463 463 0 0 0 38.644-186.473l-379.077 1.055a83.9 83.9 0 0 1-7.005 33.799z" mask="url(#b)"/><mask id="c" fill="#fff"><path d="M537.354 384.184a463 463 0 0 0 38.644-186.38l-334.657.864a128.3 128.3 0 0 1-10.712 51.664z"/></mask><path fill="#0097e9" stroke="#fff" stroke-width="6" d="M537.354 384.184a463 463 0 0 0 38.644-186.38l-334.657.864a128.3 128.3 0 0 1-10.712 51.664z" mask="url(#c)"/><mask id="d" fill="#fff"><path d="M537.354 384.184a463 463 0 0 0 38.644-186.38l-277.687.717a185.3 185.3 0 0 1-15.467 74.597z"/></mask><path fill="#0087d0" stroke="#fff" stroke-width="6" d="M537.354 384.184a463 463 0 0 0 38.644-186.38l-277.687.717a185.3 185.3 0 0 1-15.467 74.597z" mask="url(#d)"/><mask id="e" fill="#fff"><path d="M537.354 384.184a463 463 0 0 0 38.644-186.38l-221.902.573a241.1 241.1 0 0 1-20.123 97.053z"/></mask><path fill="#007abc" stroke="#fff" stroke-width="6" d="M537.354 384.184a463 463 0 0 0 38.644-186.38l-221.902.573a241.1 241.1 0 0 1-20.123 97.053z" mask="url(#e)"/><mask id="f" fill="#fff"><path d="M537.354 384.184a463 463 0 0 0 38.644-186.38l-161.914.418a301.1 301.1 0 0 1-25.13 121.202z"/></mask><path fill="#006aa3" stroke="#fff" stroke-width="6" d="M537.354 384.184a463 463 0 0 0 38.644-186.38l-161.914.418a301.1 301.1 0 0 1-25.13 121.202z" mask="url(#f)"/><mask id="g" fill="#fff"><path d="M537.354 384.184a463 463 0 0 0 38.644-186.38l-109.918.284a353.1 353.1 0 0 1-29.47 142.132z"/></mask><path fill="#005684" stroke="#fff" stroke-width="6" d="M537.354 384.184a463 463 0 0 0 38.644-186.38l-109.918.284a353.1 353.1 0 0 1-29.47 142.132z" mask="url(#g)"/><mask id="h" fill="#fff"><path d="M537.354 384.184a463 463 0 0 0 38.644-186.38l-58.247.15a404.75 404.75 0 0 1-33.783 162.933z"/></mask><path fill="#003a59" stroke="#fff" stroke-width="6" d="M537.354 384.184a463 463 0 0 0 38.644-186.38l-58.247.15a404.75 404.75 0 0 1-33.783 162.933z" mask="url(#h)"/><path fill="#fff" d="M539.979 181.206h-2.5v-17.455h2.5v7.318h20.772v2.818h-20.772zm20.772-19.628h-17.454v-2.591h2.636v-.182q-1.295-.477-2.102-1.727t-.807-2.819q0-.295.012-.738.01-.444.034-.671h2.727q-.034.137-.102.625-.08.478-.08 1.012 0 1.273.534 2.272.524.99 1.455 1.569.92.567 2.102.568h11.045zm.41-17.043q0 1.66-.625 3.011a5.17 5.17 0 0 1-1.83 2.148q-1.205.795-2.909.796-1.5 0-2.432-.591a4.17 4.17 0 0 1-1.477-1.58 8.3 8.3 0 0 1-.796-2.182 27 27 0 0 1-.431-2.42 106 106 0 0 1-.307-2.58q-.114-1-.375-1.454-.263-.466-.909-.466h-.091q-1.682 0-2.614.92-.932.91-.932 2.762 0 1.92.841 3.011t1.796 1.534l-.909 2.546q-1.591-.682-2.478-1.819a6.8 6.8 0 0 1-1.25-2.5 10.4 10.4 0 0 1-.363-2.681q0-.841.204-1.932a6.2 6.2 0 0 1 .807-2.125q.614-1.035 1.852-1.716 1.239-.682 3.318-.682h11.5v2.682h-2.363v.136q.568.273 1.216.909.648.637 1.102 1.694t.455 2.579m-2.41-.409q0-1.592-.625-2.682-.624-1.102-1.613-1.659a4.1 4.1 0 0 0-2.08-.568h-2.454q.204.171.375.75.159.568.284 1.318.114.739.204 1.443.08.693.137 1.125.136 1.046.443 1.955.295.897.898 1.454.59.546 1.613.546 1.398 0 2.114-1.034.705-1.046.704-2.648m2.364-19.577q0 2.455-1.159 4.228t-3.193 2.727-4.648.954q-2.66 0-4.693-.977-2.046-.989-3.193-2.75-1.16-1.773-1.159-4.136 0-1.842.681-3.318a6.36 6.36 0 0 1 1.91-2.421q1.227-.944 2.863-1.17v2.681q-1.193.308-2.113 1.364-.932 1.045-.932 2.818 0 1.569.818 2.75.807 1.17 2.284 1.83 1.466.648 3.443.648 2.023 0 3.523-.637 1.5-.648 2.329-1.818.83-1.182.83-2.773 0-1.045-.364-1.897a3.9 3.9 0 0 0-1.045-1.444q-.682-.59-1.636-.841v-2.681a6.2 6.2 0 0 1 2.784 1.125q1.227.886 1.954 2.352.716 1.455.716 3.386m-6.727-13.284-3.318.046v-.546l-7.773-7.636v-3.318l8.227 8.136v.227zm6.363 2.5h-23.272v-2.682h23.272zm0-11.091-8.636 6.818-1.864-1.909 10.5-8.318zm.319-22.86q0 2.568-1.398 4.375-1.409 1.807-4.08 2.76-2.682.955-6.477.955-3.773 0-6.443-.954-2.682-.966-4.091-2.773-1.42-1.818-1.42-4.364t1.42-4.352q1.409-1.818 4.091-2.772 2.67-.966 6.443-.966 3.795 0 6.477.954 2.671.954 4.08 2.761 1.398 1.807 1.398 4.376m-2.5 0q0-2.546-2.455-3.955t-7-1.41q-3.023 0-5.148.649-2.125.636-3.238 1.84-1.114 1.194-1.114 2.876 0 2.522 2.489 3.943 2.476 1.42 7.011 1.42 3.022 0 5.136-.636t3.216-1.83q1.103-1.205 1.103-2.897M542.711 235l2.028-12.364h1.932L544.643 235zm-5.536-3.067.32-1.932h9.659l-.32 1.932zm1.189 3.067 2.029-12.364h1.932L540.296 235zm-.483-7.365.326-1.932h9.659l-.326 1.932zm16.54-4.999V235h-2.614v-9.882h-.072l-2.832 1.774v-2.318l3.061-1.938zM476.711 311l2.028-12.364h1.932L478.643 311zm-5.536-3.067.32-1.932h9.659l-.32 1.932zm1.189 3.067 2.029-12.364h1.932L474.296 311zm-.483-7.365.326-1.932h9.659l-.326 1.932zM483.042 311v-1.884l4.401-4.074q.561-.545.942-.978.386-.435.585-.852.2-.422.2-.911a1.7 1.7 0 0 0-.248-.936 1.6 1.6 0 0 0-.676-.61 2.1 2.1 0 0 0-.972-.217q-.567 0-.99.229a1.6 1.6 0 0 0-.652.658q-.23.429-.229 1.021h-2.482q0-1.214.55-2.107a3.67 3.67 0 0 1 1.539-1.383q.99-.489 2.282-.489 1.329 0 2.312.471.99.465 1.54 1.292.549.827.549 1.896 0 .7-.278 1.382-.271.682-.972 1.515-.699.828-1.974 1.987l-1.805 1.768v.085h5.192V311zM326.711 229l2.028-12.364h1.932L328.643 229zm-5.536-3.067.32-1.932h9.659l-.32 1.932zm1.189 3.067 2.029-12.364h1.932L324.296 229zm-.483-7.365.326-1.932h9.659l-.326 1.932zm15.731 7.534q-1.352 0-2.409-.465-1.05-.47-1.66-1.292-.603-.827-.622-1.907h2.633q.024.452.295.796.278.339.737.526.459.186 1.032.187.598 0 1.057-.211t.718-.586q.26-.375.26-.863 0-.495-.278-.876-.272-.385-.785-.603-.507-.218-1.207-.218h-1.153v-1.919h1.153q.591 0 1.044-.206.459-.206.712-.567.255-.369.254-.857 0-.465-.223-.815a1.47 1.47 0 0 0-.616-.556 2 2 0 0 0-.918-.199q-.531 0-.972.193a1.7 1.7 0 0 0-.706.537 1.4 1.4 0 0 0-.284.821h-2.505q.018-1.068.61-1.883.591-.815 1.593-1.274 1.009-.465 2.276-.465 1.28 0 2.24.465t1.491 1.256q.537.785.531 1.763.006 1.038-.646 1.732-.645.695-1.684.882v.096q1.365.175 2.077.948.718.767.712 1.92a3.02 3.02 0 0 1-.609 1.877q-.61.822-1.685 1.292-1.074.471-2.463.471M260.711 247l2.028-12.364h1.932L262.643 247zm-5.536-3.067.32-1.932h9.659l-.32 1.932zm1.189 3.067 2.029-12.364h1.932L258.296 247zm-.483-7.365.326-1.932h9.659l-.326 1.932zm10.974 5.192v-2.059l5.162-8.132h1.774v2.85h-1.05l-3.254 5.149v.097h7.335v2.095zm5.934 2.173v-2.801l.049-.912v-8.651h2.451V247zM485.979 181.206h-2.5v-17.455h2.5v7.318h20.772v2.818h-20.772zm20.772-19.628h-17.454v-2.591h2.636v-.182q-1.295-.477-2.102-1.727t-.807-2.819q0-.295.012-.738.01-.444.034-.671h2.727q-.034.137-.102.625-.08.478-.08 1.012 0 1.273.534 2.272.524.99 1.455 1.569.92.567 2.102.568h11.045zm.41-17.043q0 1.66-.625 3.011a5.17 5.17 0 0 1-1.83 2.148q-1.205.795-2.909.796-1.5 0-2.432-.591a4.17 4.17 0 0 1-1.477-1.58 8.3 8.3 0 0 1-.796-2.182 27 27 0 0 1-.431-2.42 106 106 0 0 1-.307-2.58q-.114-1-.375-1.454-.263-.466-.909-.466h-.091q-1.682 0-2.614.92-.932.91-.932 2.762 0 1.92.841 3.011t1.796 1.534l-.909 2.546q-1.591-.682-2.478-1.819a6.8 6.8 0 0 1-1.25-2.5 10.4 10.4 0 0 1-.363-2.681q0-.841.204-1.932a6.2 6.2 0 0 1 .807-2.125q.614-1.035 1.852-1.716 1.239-.682 3.318-.682h11.5v2.682h-2.363v.136q.568.273 1.216.909.648.637 1.102 1.694t.455 2.579m-2.41-.409q0-1.592-.625-2.682-.624-1.102-1.613-1.659a4.1 4.1 0 0 0-2.08-.568h-2.454q.204.171.375.75.158.568.284 1.318.114.739.204 1.443.08.693.137 1.125.136 1.046.443 1.955.295.897.898 1.454.59.546 1.613.546 1.398 0 2.114-1.034.705-1.046.704-2.648m2.364-19.577q0 2.455-1.159 4.228t-3.193 2.727-4.648.954q-2.66 0-4.693-.977-2.046-.989-3.193-2.75-1.16-1.773-1.159-4.136 0-1.842.681-3.318a6.36 6.36 0 0 1 1.91-2.421q1.227-.944 2.863-1.17v2.681q-1.193.308-2.113 1.364-.933 1.045-.932 2.818 0 1.569.818 2.75.807 1.17 2.284 1.83 1.466.648 3.443.648 2.023 0 3.523-.637 1.5-.648 2.329-1.818.83-1.182.83-2.773 0-1.045-.364-1.897a3.9 3.9 0 0 0-1.045-1.444q-.682-.59-1.636-.841v-2.681a6.2 6.2 0 0 1 2.784 1.125q1.227.886 1.954 2.352.716 1.455.716 3.386m-6.727-13.284-3.318.046v-.546l-7.773-7.636v-3.318l8.227 8.136v.227zm6.363 2.5h-23.272v-2.682h23.272zm0-11.091-8.636 6.818-1.864-1.909 10.5-8.318zm-23.272-23.451h23.272v2.818h-20.318v.136l3.773 5.682h-2.864l-3.863-5.818zM431.979 181.206h-2.5v-17.455h2.5v7.318h20.772v2.818h-20.772zm20.772-19.628h-17.454v-2.591h2.636v-.182q-1.295-.477-2.102-1.727t-.807-2.819q0-.295.012-.738.01-.444.034-.671h2.727q-.034.137-.102.625-.08.478-.08 1.012 0 1.273.534 2.272.524.99 1.455 1.569.92.567 2.102.568h11.045zm.41-17.043q0 1.66-.625 3.011a5.17 5.17 0 0 1-1.83 2.148q-1.205.795-2.909.796-1.5 0-2.432-.591a4.17 4.17 0 0 1-1.477-1.58 8.3 8.3 0 0 1-.796-2.182 27 27 0 0 1-.431-2.42 106 106 0 0 1-.307-2.58q-.114-1-.375-1.454-.263-.466-.909-.466h-.091q-1.682 0-2.614.92-.932.91-.932 2.762 0 1.92.841 3.011t1.796 1.534l-.909 2.546q-1.591-.682-2.478-1.819a6.8 6.8 0 0 1-1.25-2.5 10.4 10.4 0 0 1-.363-2.681q0-.841.204-1.932a6.2 6.2 0 0 1 .807-2.125q.614-1.035 1.852-1.716 1.239-.682 3.318-.682h11.5v2.682h-2.363v.136q.568.273 1.216.909.648.637 1.102 1.694t.455 2.579m-2.41-.409q0-1.592-.625-2.682-.624-1.102-1.613-1.659a4.1 4.1 0 0 0-2.08-.568h-2.454q.204.171.375.75.158.568.284 1.318.114.739.204 1.443.08.693.137 1.125.136 1.046.443 1.955.295.897.898 1.454.59.546 1.613.546 1.398 0 2.114-1.034.705-1.046.704-2.648m2.364-19.577q0 2.455-1.159 4.228t-3.193 2.727-4.648.954q-2.66 0-4.693-.977-2.046-.989-3.193-2.75-1.16-1.773-1.159-4.136 0-1.842.681-3.318a6.36 6.36 0 0 1 1.91-2.421q1.227-.944 2.863-1.17v2.681q-1.193.308-2.113 1.364-.933 1.045-.932 2.818 0 1.569.818 2.75.807 1.17 2.284 1.83 1.466.648 3.443.648 2.023 0 3.523-.637 1.5-.648 2.329-1.818.83-1.182.83-2.773 0-1.045-.364-1.897a3.9 3.9 0 0 0-1.045-1.444q-.682-.59-1.636-.841v-2.681a6.2 6.2 0 0 1 2.784 1.125q1.227.886 1.954 2.352.716 1.455.716 3.386m-6.727-13.284-3.318.046v-.546l-7.773-7.636v-3.318l8.227 8.136v.227zm6.363 2.5h-23.272v-2.682h23.272zm0-11.091-8.636 6.818-1.864-1.909 10.5-8.318zm0-15.27h-2.045l-8.409-7.681a54 54 0 0 0-2.568-2.228q-1.103-.875-2.068-1.295a5 5 0 0 0-2.046-.432q-1.227 0-2.125.59a3.83 3.83 0 0 0-1.386 1.592q-.489 1.011-.489 2.273 0 1.341.557 2.34.546.989 1.534 1.535.989.534 2.318.534v2.682q-2.044 0-3.591-.944a6.56 6.56 0 0 1-2.409-2.568q-.864-1.636-.863-3.67 0-2.046.863-3.625.864-1.58 2.33-2.478 1.465-.897 3.261-.897a7 7 0 0 1 2.511.466q1.216.454 2.716 1.59 1.49 1.125 3.637 3.126l5.591 5.227h.181V72.723h2.5zM377.979 181.206h-2.5v-17.455h2.5v7.318h20.772v2.818h-20.772zm20.772-19.628h-17.454v-2.591h2.636v-.182q-1.295-.477-2.102-1.727t-.807-2.819q0-.295.012-.738.01-.444.034-.671h2.727q-.034.137-.102.625-.08.478-.08 1.012 0 1.273.534 2.272.524.99 1.455 1.569.92.567 2.102.568h11.045zm.41-17.043q0 1.66-.625 3.011a5.17 5.17 0 0 1-1.83 2.148q-1.205.795-2.909.796-1.5 0-2.432-.591a4.17 4.17 0 0 1-1.477-1.58 8.3 8.3 0 0 1-.796-2.182 27 27 0 0 1-.431-2.42 106 106 0 0 1-.307-2.58q-.114-1-.375-1.454-.263-.466-.909-.466h-.091q-1.682 0-2.614.92-.932.91-.932 2.762 0 1.92.841 3.011t1.796 1.534l-.909 2.546q-1.591-.682-2.478-1.819a6.8 6.8 0 0 1-1.25-2.5 10.4 10.4 0 0 1-.363-2.681q0-.841.204-1.932a6.2 6.2 0 0 1 .807-2.125q.614-1.035 1.852-1.716 1.239-.682 3.318-.682h11.5v2.682h-2.363v.136q.568.273 1.216.909.648.637 1.102 1.694t.455 2.579m-2.41-.409q0-1.592-.625-2.682-.624-1.102-1.613-1.659a4.1 4.1 0 0 0-2.08-.568h-2.454q.204.171.375.75.158.568.284 1.318.114.739.204 1.443.08.693.137 1.125.136 1.046.443 1.955.295.897.898 1.454.59.546 1.613.546 1.398 0 2.114-1.034.705-1.046.704-2.648m2.364-19.577q0 2.455-1.159 4.228t-3.193 2.727-4.648.954q-2.66 0-4.693-.977-2.046-.989-3.193-2.75-1.16-1.773-1.159-4.136 0-1.842.681-3.318a6.36 6.36 0 0 1 1.91-2.421q1.227-.944 2.863-1.17v2.681q-1.193.308-2.113 1.364-.933 1.045-.932 2.818 0 1.569.818 2.75.807 1.17 2.284 1.83 1.466.648 3.443.648 2.023 0 3.523-.637 1.5-.648 2.329-1.818.83-1.182.83-2.773 0-1.045-.364-1.897a3.9 3.9 0 0 0-1.045-1.444q-.682-.59-1.636-.841v-2.681a6.2 6.2 0 0 1 2.784 1.125q1.227.886 1.954 2.352.716 1.455.716 3.386m-6.727-13.284-3.318.046v-.546l-7.773-7.636v-3.318l8.227 8.136v.227zm6.363 2.5h-23.272v-2.682h23.272zm0-11.091-8.636 6.818-1.864-1.909 10.5-8.318zm.319-23.133q0 2.25-.773 4.011-.773 1.75-2.148 2.784-1.386 1.023-3.216 1.114v-2.864q1.125-.09 1.943-.772.807-.683 1.25-1.785.444-1.102.444-2.443 0-1.5-.523-2.659-.523-1.16-1.455-1.818-.932-.66-2.159-.66-1.284 0-2.261.637-.988.637-1.546 1.864-.556 1.227-.556 3v1.864h-2.5V79.95q0-1.386-.5-2.432-.5-1.056-1.409-1.648-.91-.602-2.137-.602-1.181 0-2.057.523a3.57 3.57 0 0 0-1.363 1.477q-.489.943-.489 2.227 0 1.204.443 2.273.432 1.057 1.262 1.727.818.67 1.977.728v2.727q-1.83-.069-3.205-1.102-1.386-1.034-2.159-2.705-.772-1.681-.772-3.693 0-2.16.875-3.705.863-1.545 2.284-2.375a6 6 0 0 1 3.068-.83q1.966 0 3.352 1.035 1.386 1.023 1.921 2.784h.181q.364-2.204 1.875-3.443 1.5-1.239 3.716-1.239 1.898 0 3.409 1.034 1.5 1.023 2.364 2.796t.864 4.034M323.979 181.206h-2.5v-17.455h2.5v7.318h20.772v2.818h-20.772zm20.772-19.628h-17.454v-2.591h2.636v-.182q-1.295-.477-2.102-1.727t-.807-2.819q0-.295.012-.738.01-.444.034-.671h2.727q-.035.137-.102.625-.08.478-.08 1.012 0 1.273.534 2.272.524.99 1.455 1.569.92.567 2.102.568h11.045zm.41-17.043q0 1.66-.625 3.011a5.17 5.17 0 0 1-1.83 2.148q-1.205.795-2.909.796-1.5 0-2.432-.591a4.17 4.17 0 0 1-1.477-1.58 8.3 8.3 0 0 1-.796-2.182 27 27 0 0 1-.431-2.42 106 106 0 0 1-.307-2.58q-.114-1-.375-1.454-.262-.466-.909-.466h-.091q-1.682 0-2.614.92-.932.91-.932 2.762 0 1.92.841 3.011t1.796 1.534l-.909 2.546q-1.591-.682-2.478-1.819a6.8 6.8 0 0 1-1.25-2.5 10.4 10.4 0 0 1-.363-2.681q0-.841.204-1.932a6.2 6.2 0 0 1 .807-2.125q.614-1.035 1.852-1.716 1.239-.682 3.318-.682h11.5v2.682h-2.363v.136q.568.273 1.216.909.648.637 1.102 1.694t.455 2.579m-2.41-.409q0-1.592-.625-2.682-.624-1.102-1.613-1.659a4.1 4.1 0 0 0-2.08-.568h-2.454q.204.171.375.75.158.568.284 1.318.114.739.204 1.443.08.693.137 1.125.136 1.046.443 1.955.295.897.898 1.454.59.546 1.613.546 1.398 0 2.114-1.034.705-1.046.704-2.648m2.364-19.577q0 2.455-1.159 4.228t-3.193 2.727-4.648.954q-2.66 0-4.693-.977-2.046-.989-3.193-2.75-1.16-1.773-1.159-4.136 0-1.842.681-3.318a6.36 6.36 0 0 1 1.91-2.421q1.227-.944 2.863-1.17v2.681q-1.193.308-2.113 1.364-.933 1.045-.932 2.818 0 1.569.818 2.75.807 1.17 2.284 1.83 1.466.648 3.443.648 2.023 0 3.523-.637 1.5-.648 2.329-1.818.83-1.182.83-2.773 0-1.045-.364-1.897a3.9 3.9 0 0 0-1.045-1.444q-.682-.59-1.636-.841v-2.681a6.2 6.2 0 0 1 2.784 1.125q1.227.886 1.954 2.352.716 1.455.716 3.386m-6.727-13.284-3.318.046v-.546l-7.773-7.636v-3.318l8.227 8.136v.227zm6.363 2.5h-23.272v-2.682h23.272zm0-11.091-8.636 6.818-1.864-1.909 10.5-8.318zm-4.772-14.724h-2.318l-16.182-10.227V76.04h3.591v1.136l12.227 7.727h.182V71.132h2.5zm4.772-10.955h-23.272v-2.681h23.272zM262.979 181.206h-2.5v-17.455h2.5v7.318h20.772v2.818h-20.772zm20.772-19.628h-17.454v-2.591h2.636v-.182q-1.295-.477-2.102-1.727t-.807-2.819q0-.295.012-.738.01-.444.034-.671h2.727q-.035.137-.102.625-.08.478-.08 1.012 0 1.273.534 2.272.524.99 1.455 1.569.92.567 2.102.568h11.045zm.41-17.043q0 1.66-.625 3.011a5.17 5.17 0 0 1-1.83 2.148q-1.205.795-2.909.796-1.5 0-2.432-.591a4.17 4.17 0 0 1-1.477-1.58 8.3 8.3 0 0 1-.796-2.182 27 27 0 0 1-.431-2.42 106 106 0 0 1-.307-2.58q-.114-1-.375-1.454-.262-.466-.909-.466h-.091q-1.682 0-2.614.92-.932.91-.932 2.762 0 1.92.841 3.011t1.796 1.534l-.909 2.546q-1.591-.682-2.478-1.819a6.8 6.8 0 0 1-1.25-2.5 10.4 10.4 0 0 1-.363-2.681q0-.841.204-1.932a6.2 6.2 0 0 1 .807-2.125q.614-1.035 1.852-1.716 1.239-.682 3.318-.682h11.5v2.682h-2.363v.136q.568.273 1.216.909.648.637 1.102 1.694t.455 2.579m-2.41-.409q0-1.592-.625-2.682-.624-1.102-1.613-1.659a4.1 4.1 0 0 0-2.08-.568h-2.454q.204.171.375.75.158.568.284 1.318.114.739.204 1.443.08.693.137 1.125.136 1.046.443 1.955.295.897.898 1.454.59.546 1.613.546 1.398 0 2.114-1.034.705-1.046.704-2.648m2.364-19.577q0 2.455-1.159 4.228t-3.193 2.727-4.648.954q-2.66 0-4.693-.977-2.046-.989-3.193-2.75-1.16-1.773-1.159-4.136 0-1.842.681-3.318a6.36 6.36 0 0 1 1.91-2.421q1.227-.944 2.863-1.17v2.681q-1.193.308-2.113 1.364-.933 1.045-.932 2.818 0 1.569.818 2.75.807 1.17 2.284 1.83 1.466.648 3.443.648 2.023 0 3.523-.637 1.5-.648 2.329-1.818.83-1.182.83-2.773 0-1.045-.364-1.897a3.9 3.9 0 0 0-1.045-1.444q-.682-.59-1.636-.841v-2.681a6.2 6.2 0 0 1 2.784 1.125q1.227.886 1.954 2.352.716 1.455.716 3.386m-6.727-13.284-3.318.046v-.546l-7.773-7.636v-3.318l8.227 8.136v.227zm6.363 2.5h-23.272v-2.682h23.272zm0-11.091-8.636 6.818-1.864-1.909 10.5-8.318zm.319-22.542q0 2-.796 3.602-.795 1.602-2.182 2.568-1.386.966-3.159 1.057v-2.727q1.58-.16 2.614-1.432 1.023-1.284 1.023-3.068 0-1.432-.671-2.546a4.73 4.73 0 0 0-1.841-1.761q-1.182-.648-2.67-.648-1.523 0-2.716.67a4.9 4.9 0 0 0-1.898 1.819q-.693 1.159-.704 2.648a7.3 7.3 0 0 0 .329 2.193q.33 1.125.852 1.852l-.318 2.636-11.454-1.409v-12.09h2.5v9.727l6.863.818v-.137q-.567-.715-.943-1.795a6.8 6.8 0 0 1-.375-2.25q0-2.136 1.023-3.807a7.14 7.14 0 0 1 2.773-2.636q1.761-.966 4.022-.966 2.227 0 3.978 1a7.3 7.3 0 0 1 2.75 2.727q1 1.739 1 3.955M212.979 181.206h-2.5v-17.455h2.5v7.318h20.772v2.818h-20.772zm20.772-19.628h-17.454v-2.591h2.636v-.182q-1.295-.477-2.102-1.727t-.807-2.819q0-.295.012-.738.01-.444.034-.671h2.727q-.035.137-.102.625-.08.478-.08 1.012 0 1.273.534 2.272.523.99 1.455 1.569.92.567 2.102.568h11.045zm.41-17.043q0 1.66-.625 3.011a5.17 5.17 0 0 1-1.83 2.148q-1.205.795-2.909.796-1.5 0-2.432-.591a4.17 4.17 0 0 1-1.477-1.58 8.3 8.3 0 0 1-.796-2.182 27 27 0 0 1-.431-2.42 106 106 0 0 1-.307-2.58q-.114-1-.375-1.454-.263-.466-.909-.466h-.091q-1.682 0-2.614.92-.932.91-.932 2.762 0 1.92.841 3.011t1.796 1.534l-.909 2.546q-1.591-.682-2.478-1.819a6.8 6.8 0 0 1-1.25-2.5 10.4 10.4 0 0 1-.363-2.681q0-.841.204-1.932a6.2 6.2 0 0 1 .807-2.125q.614-1.035 1.852-1.716 1.239-.682 3.318-.682h11.5v2.682h-2.363v.136q.568.273 1.216.909.648.637 1.102 1.694t.455 2.579m-2.41-.409q0-1.592-.625-2.682-.624-1.102-1.613-1.659a4.1 4.1 0 0 0-2.08-.568h-2.454q.204.171.375.75.158.568.284 1.318.114.739.204 1.443.08.693.137 1.125.136 1.046.443 1.955.295.897.898 1.454.59.546 1.613.546 1.398 0 2.114-1.034.704-1.046.704-2.648m2.364-19.577q0 2.455-1.159 4.228t-3.193 2.727-4.648.954q-2.66 0-4.693-.977-2.046-.989-3.193-2.75-1.16-1.773-1.159-4.136 0-1.842.681-3.318a6.36 6.36 0 0 1 1.91-2.421q1.227-.944 2.863-1.17v2.681q-1.193.308-2.113 1.364-.933 1.045-.932 2.818 0 1.569.818 2.75.807 1.17 2.284 1.83 1.466.648 3.443.648 2.023 0 3.523-.637 1.5-.648 2.329-1.818.83-1.182.83-2.773 0-1.045-.364-1.897a3.9 3.9 0 0 0-1.045-1.444q-.682-.59-1.636-.841v-2.681a6.2 6.2 0 0 1 2.784 1.125q1.227.886 1.954 2.352.716 1.455.716 3.386m-6.727-13.284-3.318.046v-.546l-7.773-7.636v-3.318l8.227 8.136v.227zm6.363 2.5h-23.272v-2.682h23.272zm0-11.091-8.636 6.818-1.864-1.909 10.5-8.318zm.319-22.997a8.7 8.7 0 0 1-.546 2.864q-.522 1.432-1.761 2.613-1.251 1.181-3.375 1.898-2.136.716-5.364.716-3.09 0-5.477-.58-2.398-.58-4.034-1.681-1.648-1.103-2.5-2.66-.852-1.568-.852-3.533 0-1.956.784-3.478a6.6 6.6 0 0 1 2.159-2.5q1.386-.966 3.193-1.25v2.773q-1.569.387-2.602 1.5-1.035 1.113-1.034 2.955 0 2.704 2.352 4.26 2.352 1.546 6.602 1.558v-.182a6.818 6.818 0 0 1-2.716-3.466 6.8 6.8 0 0 1-.375-2.261q0-2 1-3.66.988-1.659 2.739-2.659 1.738-1 3.988-1 2.16 0 3.955.966a7.36 7.36 0 0 1 2.841 2.716q1.045 1.74 1.023 4.091m-2.5 0q0-1.431-.716-2.568a5.1 5.1 0 0 0-1.921-1.807q-1.204-.67-2.682-.67-1.443 0-2.625.647a4.94 4.94 0 0 0-1.897 1.762q-.705 1.113-.705 2.545 0 1.08.432 2.012.42.93 1.159 1.636a5.6 5.6 0 0 0 1.693 1.09 5.1 5.1 0 0 0 1.989.399q1.386 0 2.591-.648a5.3 5.3 0 0 0 1.943-1.796q.739-1.147.739-2.602M488.054 283.676a1 1 0 0 0 .622 1.27l8.516 2.913a1 1 0 0 0 .647-1.892l-7.569-2.589 2.589-7.57a1 1 0 0 0-1.892-.647zM540 259l-.44-.898-51 25 .44.898.44.898 51-25zM543.763 250.647a1 1 0 0 0-.116-1.41l-6.864-5.821a1.001 1.001 0 0 0-1.294 1.525l6.102 5.175-5.175 6.101a1.001 1.001 0 0 0 1.525 1.294zM543 250l-.082-.997-146 12L397 262l.082.997 146-12zM333.459 252.159a1 1 0 0 0-.3 1.382l4.871 7.568a1 1 0 0 0 1.682-1.082l-4.33-6.727 6.727-4.33a1 1 0 0 0-1.082-1.682zM334 253l-.212.977 143 31L477 284l.212-.977-143-31zM279.817 219.017a1 1 0 0 0-.8 1.166l1.649 8.848a1.001 1.001 0 0 0 1.967-.367l-1.467-7.864 7.865-1.466a1.001 1.001 0 0 0-.367-1.967zM315 244l.566-.825-35-24L280 220l-.566.825 35 24z"/><mask id="i" fill="#fff"><path d="m396.689 264.545-6.495-3.75s-64.797 91.339-95.826 140.974c-31.028 49.636-49.75 61.856-75.762 64.224-78.608 7.154-125.528 98.422-125.528 98.422l97.861 56.5z"/></mask><path fill="#e27c00" d="m396.689 264.545-6.495-3.75s-64.797 91.339-95.826 140.974c-31.028 49.636-49.75 61.856-75.762 64.224-78.608 7.154-125.528 98.422-125.528 98.422l97.861 56.5z"/><path fill="#000" d="m391.194 259.063-2 3.464 6.495 3.75-.732-2.732-20.539 35.575-185.211 320.795 2.732-.733-97.861-56.5.779 2.647c26.454-46.504 68.639-91.807 123.931-97.345 17.045-.978 33.325-9.758 44.897-21.915 12.785-13.004 22.779-28.024 32.379-43.24 21.637-34.287 44.755-67.738 67.898-101.139a5773 5773 0 0 1 27.863-39.738l-3.263-2.314a5793 5793 0 0 0-27.884 39.769c-23.164 33.431-46.279 66.873-68.006 101.302-9.518 15.099-19.452 29.968-31.821 42.536-11.301 11.766-26.097 19.749-42.426 20.756-57.544 5.934-100.092 52.094-127.126 99.499l-.87 1.694 1.649.953 97.861 56.5 1.732 1 1-1.732L377.882 301.12l20.539-35.575 1-1.732-1.732-1zm-2 3.464 2-3.464-1.578-.911-1.054 1.486 3.263 2.314z" mask="url(#i)"/><circle cx="143.258" cy="590.5" r="54.5" fill="#e27c00" stroke="#000" stroke-width="4" transform="rotate(30 143.258 590.5)"/><circle cx="143.258" cy="590.499" r="48" fill="#e27c00" stroke="#000" transform="rotate(30 143.258 590.499)"/><circle cx="143.258" cy="590.5" r="40" fill="#e27c00" stroke="#000" transform="rotate(30 143.258 590.5)"/><circle cx="143.441" cy="591.183" r="10.5" fill="#e27c00" stroke="#000" transform="rotate(30 143.441 591.183)"/><path stroke="red" stroke-linecap="round" stroke-linejoin="round" stroke-width="3" d="m555 244-12 12M543 244l12 12M489 278l-12 12M477 278l12 12M327 238l-12 12M315 238l12 12M280 214l-12 12M268 214l12 12"/></g><g clip-path="url(#j)"><mask id="k" fill="#fff"><path d="M537.354 1082.18a462.95 462.95 0 0 0 38.644-186.469l-379.077 1.055a83.9 83.9 0 0 1-7.005 33.799z"/></mask><path fill="#00a6ff" stroke="#fff" stroke-width="6" d="M537.354 1082.18a462.95 462.95 0 0 0 38.644-186.469l-379.077 1.055a83.9 83.9 0 0 1-7.005 33.799z" mask="url(#k)"/><mask id="l" fill="#fff"><path d="M537.354 1082.18a463 463 0 0 0 38.644-186.376l-334.657.864a128.3 128.3 0 0 1-10.712 51.664z"/></mask><path fill="#0097e9" stroke="#fff" stroke-width="6" d="M537.354 1082.18a463 463 0 0 0 38.644-186.376l-334.657.864a128.3 128.3 0 0 1-10.712 51.664z" mask="url(#l)"/><mask id="m" fill="#fff"><path d="M537.354 1082.18a463 463 0 0 0 38.644-186.376l-277.687.717a185.3 185.3 0 0 1-15.467 74.597z"/></mask><path fill="#0087d0" stroke="#fff" stroke-width="6" d="M537.354 1082.18a463 463 0 0 0 38.644-186.376l-277.687.717a185.3 185.3 0 0 1-15.467 74.597z" mask="url(#m)"/><mask id="n" fill="#fff"><path d="M537.354 1082.18a463 463 0 0 0 38.644-186.376l-221.902.573a241.1 241.1 0 0 1-20.123 97.053z"/></mask><path fill="#007abc" stroke="#fff" stroke-width="6" d="M537.354 1082.18a463 463 0 0 0 38.644-186.376l-221.902.573a241.1 241.1 0 0 1-20.123 97.053z" mask="url(#n)"/><mask id="o" fill="#fff"><path d="M537.354 1082.18a463 463 0 0 0 38.644-186.376l-161.914.418a301 301 0 0 1-25.13 121.198z"/></mask><path fill="#006aa3" stroke="#fff" stroke-width="6" d="M537.354 1082.18a463 463 0 0 0 38.644-186.376l-161.914.418a301 301 0 0 1-25.13 121.198z" mask="url(#o)"/><mask id="p" fill="#fff"><path d="M537.354 1082.18a463 463 0 0 0 38.644-186.376l-109.918.284a353.1 353.1 0 0 1-29.47 142.132z"/></mask><path fill="#005684" stroke="#fff" stroke-width="6" d="M537.354 1082.18a463 463 0 0 0 38.644-186.376l-109.918.284a353.1 353.1 0 0 1-29.47 142.132z" mask="url(#p)"/><mask id="q" fill="#fff"><path d="M537.354 1082.18a463 463 0 0 0 38.644-186.376l-58.247.15a404.8 404.8 0 0 1-33.783 162.936z"/></mask><path fill="#003a59" stroke="#fff" stroke-width="6" d="M537.354 1082.18a463 463 0 0 0 38.644-186.376l-58.247.15a404.8 404.8 0 0 1-33.783 162.936z" mask="url(#q)"/><path fill="#fff" d="M539.979 879.206h-2.5v-17.455h2.5v7.318h20.772v2.818h-20.772zm20.772-19.628h-17.454v-2.591h2.636v-.182q-1.295-.477-2.102-1.727t-.807-2.819q0-.295.012-.738.01-.444.034-.671h2.727q-.034.137-.102.625-.08.478-.08 1.012 0 1.272.534 2.272.524.99 1.455 1.569.92.568 2.102.568h11.045zm.41-17.043q0 1.66-.625 3.011a5.17 5.17 0 0 1-1.83 2.148q-1.205.795-2.909.796-1.5 0-2.432-.591a4.17 4.17 0 0 1-1.477-1.58 8.3 8.3 0 0 1-.796-2.182 27 27 0 0 1-.431-2.42 106 106 0 0 1-.307-2.58q-.114-1-.375-1.454-.263-.466-.909-.466h-.091q-1.682 0-2.614.92-.932.91-.932 2.762 0 1.92.841 3.011t1.796 1.534l-.909 2.546q-1.591-.682-2.478-1.819a6.8 6.8 0 0 1-1.25-2.5 10.4 10.4 0 0 1-.363-2.681q0-.841.204-1.932a6.2 6.2 0 0 1 .807-2.125q.614-1.035 1.852-1.716 1.239-.682 3.318-.682h11.5v2.682h-2.363v.136q.568.273 1.216.909.648.637 1.102 1.694t.455 2.579m-2.41-.409q0-1.591-.625-2.682-.624-1.102-1.613-1.659a4.1 4.1 0 0 0-2.08-.568h-2.454q.204.171.375.75.159.568.284 1.318.114.739.204 1.443.08.693.137 1.125.136 1.046.443 1.955.295.897.898 1.454.59.546 1.613.546 1.398 0 2.114-1.034.705-1.046.704-2.648m2.364-19.577q0 2.455-1.159 4.228t-3.193 2.727-4.648.954q-2.66 0-4.693-.977-2.046-.989-3.193-2.75-1.16-1.773-1.159-4.136 0-1.842.681-3.318a6.36 6.36 0 0 1 1.91-2.421q1.227-.944 2.863-1.17v2.681q-1.193.308-2.113 1.364-.932 1.045-.932 2.818 0 1.568.818 2.75.807 1.17 2.284 1.83 1.466.648 3.443.648 2.023 0 3.523-.637 1.5-.648 2.329-1.818.83-1.182.83-2.773 0-1.045-.364-1.897a3.9 3.9 0 0 0-1.045-1.444q-.682-.59-1.636-.841v-2.681a6.2 6.2 0 0 1 2.784 1.125q1.227.886 1.954 2.352.716 1.455.716 3.386m-6.727-13.284-3.318.046v-.546l-7.773-7.636v-3.318l8.227 8.136v.227zm6.363 2.5h-23.272v-2.682h23.272zm0-11.091-8.636 6.818-1.864-1.909 10.5-8.318zm.319-22.861q0 2.57-1.398 4.375-1.409 1.807-4.08 2.762-2.682.954-6.477.954-3.773 0-6.443-.954-2.682-.966-4.091-2.773-1.42-1.818-1.42-4.364 0-2.544 1.42-4.352 1.409-1.818 4.091-2.773 2.67-.965 6.443-.965 3.795 0 6.477.954 2.671.954 4.08 2.761 1.398 1.807 1.398 4.375m-2.5 0q0-2.545-2.455-3.954t-7-1.409q-3.023 0-5.148.648-2.125.636-3.238 1.84-1.114 1.194-1.114 2.875 0 2.523 2.489 3.944 2.476 1.42 7.011 1.42 3.022 0 5.136-.636t3.216-1.83q1.103-1.205 1.103-2.898M542.711 933l2.028-12.364h1.932L544.643 933zm-5.536-3.067.32-1.932h9.659l-.32 1.932zm1.189 3.067 2.029-12.364h1.932L540.296 933zm-.483-7.365.326-1.932h9.659l-.326 1.932zm10.974 5.192v-2.059l5.162-8.132h1.774v2.85h-1.05l-3.254 5.149v.097h7.335v2.095zm5.934 2.173v-2.801l.049-.912v-8.651h2.451V933zM476.711 1009l2.028-12.364h1.932L478.643 1009zm-5.536-3.07.32-1.93h9.659l-.32 1.93zm1.189 3.07 2.029-12.364h1.932L474.296 1009zm-.483-7.37.326-1.927h9.659l-.326 1.927zm15.731 7.54c-.901 0-1.704-.16-2.409-.47q-1.05-.465-1.66-1.29c-.402-.55-.609-1.18-.622-1.91h2.633c.016.31.114.57.295.8.185.23.431.4.737.53q.459.18 1.032.18.598 0 1.057-.21c.305-.14.545-.33.718-.58q.26-.375.26-.87t-.278-.87c-.181-.26-.443-.46-.785-.61q-.507-.21-1.207-.21h-1.153v-1.92h1.153q.591 0 1.044-.21.459-.195.712-.57c.17-.24.254-.53.254-.85q0-.468-.223-.817a1.47 1.47 0 0 0-.616-.556 2 2 0 0 0-.918-.199q-.531 0-.972.193a1.7 1.7 0 0 0-.706.537 1.4 1.4 0 0 0-.284.822h-2.505q.018-1.07.61-1.884.591-.815 1.593-1.274 1.009-.465 2.276-.465 1.28 0 2.24.465t1.491 1.256q.537.785.531 1.763c.004.689-.211 1.269-.646 1.729-.43.47-.992.76-1.684.88v.1c.91.12 1.602.43 2.077.95q.718.765.712 1.92a3.04 3.04 0 0 1-.609 1.88q-.61.81-1.685 1.29c-.716.31-1.537.47-2.463.47M314.711 966l2.028-12.364h1.932L316.643 966zm-5.536-3.067.32-1.932h9.659l-.32 1.932zm1.189 3.067 2.029-12.364h1.932L312.296 966zm-.483-7.365.326-1.932h9.659l-.326 1.932zm16.54-4.999V966h-2.614v-9.882h-.072l-2.832 1.774v-2.318l3.061-1.938zM260.711 945l2.028-12.364h1.932L262.643 945zm-5.536-3.067.32-1.932h9.659l-.32 1.932zm1.189 3.067 2.029-12.364h1.932L258.296 945zm-.483-7.365.326-1.932h9.659l-.326 1.932zM267.042 945v-1.884l4.401-4.074q.561-.545.942-.978.386-.435.585-.852.2-.422.2-.911a1.7 1.7 0 0 0-.248-.936 1.6 1.6 0 0 0-.676-.61 2.1 2.1 0 0 0-.972-.217q-.567 0-.99.229a1.6 1.6 0 0 0-.652.658q-.23.429-.229 1.021h-2.482q0-1.214.55-2.107a3.67 3.67 0 0 1 1.539-1.383q.99-.489 2.282-.489 1.329 0 2.312.471.99.465 1.54 1.292.549.827.549 1.896 0 .7-.278 1.382-.272.683-.972 1.515-.699.828-1.974 1.987l-1.805 1.768v.085h5.192V945zM485.979 879.206h-2.5v-17.455h2.5v7.318h20.772v2.818h-20.772zm20.772-19.628h-17.454v-2.591h2.636v-.182q-1.295-.477-2.102-1.727t-.807-2.819q0-.295.012-.738.01-.444.034-.671h2.727q-.034.137-.102.625-.08.478-.08 1.012 0 1.272.534 2.272.524.99 1.455 1.569.92.568 2.102.568h11.045zm.41-17.043q0 1.66-.625 3.011a5.17 5.17 0 0 1-1.83 2.148q-1.205.795-2.909.796-1.5 0-2.432-.591a4.17 4.17 0 0 1-1.477-1.58 8.3 8.3 0 0 1-.796-2.182 27 27 0 0 1-.431-2.42 106 106 0 0 1-.307-2.58q-.114-1-.375-1.454-.263-.466-.909-.466h-.091q-1.682 0-2.614.92-.932.91-.932 2.762 0 1.92.841 3.011t1.796 1.534l-.909 2.546q-1.591-.682-2.478-1.819a6.8 6.8 0 0 1-1.25-2.5 10.4 10.4 0 0 1-.363-2.681q0-.841.204-1.932a6.2 6.2 0 0 1 .807-2.125q.614-1.035 1.852-1.716 1.239-.682 3.318-.682h11.5v2.682h-2.363v.136q.568.273 1.216.909.648.637 1.102 1.694t.455 2.579m-2.41-.409q0-1.591-.625-2.682-.624-1.102-1.613-1.659a4.1 4.1 0 0 0-2.08-.568h-2.454q.204.171.375.75.158.568.284 1.318.114.739.204 1.443.08.693.137 1.125.136 1.046.443 1.955.295.897.898 1.454.59.546 1.613.546 1.398 0 2.114-1.034.705-1.046.704-2.648m2.364-19.577q0 2.455-1.159 4.228t-3.193 2.727-4.648.954q-2.66 0-4.693-.977-2.046-.989-3.193-2.75-1.16-1.773-1.159-4.136 0-1.842.681-3.318a6.36 6.36 0 0 1 1.91-2.421q1.227-.944 2.863-1.17v2.681q-1.193.308-2.113 1.364-.933 1.045-.932 2.818 0 1.568.818 2.75.807 1.17 2.284 1.83 1.466.648 3.443.648 2.023 0 3.523-.637 1.5-.648 2.329-1.818.83-1.182.83-2.773 0-1.045-.364-1.897a3.9 3.9 0 0 0-1.045-1.444q-.682-.59-1.636-.841v-2.681a6.2 6.2 0 0 1 2.784 1.125q1.227.886 1.954 2.352.716 1.455.716 3.386m-6.727-13.284-3.318.046v-.546l-7.773-7.636v-3.318l8.227 8.136v.227zm6.363 2.5h-23.272v-2.682h23.272zm0-11.091-8.636 6.818-1.864-1.909 10.5-8.318zm-23.272-23.451h23.272v2.818h-20.318v.136l3.773 5.682h-2.864l-3.863-5.818zM431.979 879.206h-2.5v-17.455h2.5v7.318h20.772v2.818h-20.772zm20.772-19.628h-17.454v-2.591h2.636v-.182q-1.295-.477-2.102-1.727t-.807-2.819q0-.295.012-.738.01-.444.034-.671h2.727q-.034.137-.102.625-.08.478-.08 1.012 0 1.272.534 2.272.524.99 1.455 1.569.92.568 2.102.568h11.045zm.41-17.043q0 1.66-.625 3.011a5.17 5.17 0 0 1-1.83 2.148q-1.205.795-2.909.796-1.5 0-2.432-.591a4.17 4.17 0 0 1-1.477-1.58 8.3 8.3 0 0 1-.796-2.182 27 27 0 0 1-.431-2.42 106 106 0 0 1-.307-2.58q-.114-1-.375-1.454-.263-.466-.909-.466h-.091q-1.682 0-2.614.92-.932.91-.932 2.762 0 1.92.841 3.011t1.796 1.534l-.909 2.546q-1.591-.682-2.478-1.819a6.8 6.8 0 0 1-1.25-2.5 10.4 10.4 0 0 1-.363-2.681q0-.841.204-1.932a6.2 6.2 0 0 1 .807-2.125q.614-1.035 1.852-1.716 1.239-.682 3.318-.682h11.5v2.682h-2.363v.136q.568.273 1.216.909.648.637 1.102 1.694t.455 2.579m-2.41-.409q0-1.591-.625-2.682-.624-1.102-1.613-1.659a4.1 4.1 0 0 0-2.08-.568h-2.454q.204.171.375.75.158.568.284 1.318.114.739.204 1.443.08.693.137 1.125.136 1.046.443 1.955.295.897.898 1.454.59.546 1.613.546 1.398 0 2.114-1.034.705-1.046.704-2.648m2.364-19.577q0 2.455-1.159 4.228t-3.193 2.727-4.648.954q-2.66 0-4.693-.977-2.046-.989-3.193-2.75-1.16-1.773-1.159-4.136 0-1.842.681-3.318a6.36 6.36 0 0 1 1.91-2.421q1.227-.944 2.863-1.17v2.681q-1.193.308-2.113 1.364-.933 1.045-.932 2.818 0 1.568.818 2.75.807 1.17 2.284 1.83 1.466.648 3.443.648 2.023 0 3.523-.637 1.5-.648 2.329-1.818.83-1.182.83-2.773 0-1.045-.364-1.897a3.9 3.9 0 0 0-1.045-1.444q-.682-.59-1.636-.841v-2.681a6.2 6.2 0 0 1 2.784 1.125q1.227.886 1.954 2.352.716 1.455.716 3.386m-6.727-13.284-3.318.046v-.546l-7.773-7.636v-3.318l8.227 8.136v.227zm6.363 2.5h-23.272v-2.682h23.272zm0-11.091-8.636 6.818-1.864-1.909 10.5-8.318zm0-15.27h-2.045l-8.409-7.681a54 54 0 0 0-2.568-2.228q-1.103-.875-2.068-1.295a5 5 0 0 0-2.046-.432q-1.227 0-2.125.591a3.83 3.83 0 0 0-1.386 1.591q-.489 1.011-.489 2.273 0 1.341.557 2.34.546.99 1.534 1.535.989.534 2.318.534v2.681q-2.044 0-3.591-.943a6.55 6.55 0 0 1-2.409-2.568q-.864-1.636-.863-3.67 0-2.046.863-3.625.864-1.58 2.33-2.478 1.465-.897 3.261-.897a7 7 0 0 1 2.511.466q1.216.454 2.716 1.59 1.49 1.125 3.637 3.125l5.591 5.228h.181v-10.818h2.5zM377.979 879.206h-2.5v-17.455h2.5v7.318h20.772v2.818h-20.772zm20.772-19.628h-17.454v-2.591h2.636v-.182q-1.295-.477-2.102-1.727t-.807-2.819q0-.295.012-.738.01-.444.034-.671h2.727q-.034.137-.102.625-.08.478-.08 1.012 0 1.272.534 2.272.524.99 1.455 1.569.92.568 2.102.568h11.045zm.41-17.043q0 1.66-.625 3.011a5.17 5.17 0 0 1-1.83 2.148q-1.205.795-2.909.796-1.5 0-2.432-.591a4.17 4.17 0 0 1-1.477-1.58 8.3 8.3 0 0 1-.796-2.182 27 27 0 0 1-.431-2.42 106 106 0 0 1-.307-2.58q-.114-1-.375-1.454-.263-.466-.909-.466h-.091q-1.682 0-2.614.92-.932.91-.932 2.762 0 1.92.841 3.011t1.796 1.534l-.909 2.546q-1.591-.682-2.478-1.819a6.8 6.8 0 0 1-1.25-2.5 10.4 10.4 0 0 1-.363-2.681q0-.841.204-1.932a6.2 6.2 0 0 1 .807-2.125q.614-1.035 1.852-1.716 1.239-.682 3.318-.682h11.5v2.682h-2.363v.136q.568.273 1.216.909.648.637 1.102 1.694t.455 2.579m-2.41-.409q0-1.591-.625-2.682-.624-1.102-1.613-1.659a4.1 4.1 0 0 0-2.08-.568h-2.454q.204.171.375.75.158.568.284 1.318.114.739.204 1.443.08.693.137 1.125.136 1.046.443 1.955.295.897.898 1.454.59.546 1.613.546 1.398 0 2.114-1.034.705-1.046.704-2.648m2.364-19.577q0 2.455-1.159 4.228t-3.193 2.727-4.648.954q-2.66 0-4.693-.977-2.046-.989-3.193-2.75-1.16-1.773-1.159-4.136 0-1.842.681-3.318a6.36 6.36 0 0 1 1.91-2.421q1.227-.944 2.863-1.17v2.681q-1.193.308-2.113 1.364-.933 1.045-.932 2.818 0 1.568.818 2.75.807 1.17 2.284 1.83 1.466.648 3.443.648 2.023 0 3.523-.637 1.5-.648 2.329-1.818.83-1.182.83-2.773 0-1.045-.364-1.897a3.9 3.9 0 0 0-1.045-1.444q-.682-.59-1.636-.841v-2.681a6.2 6.2 0 0 1 2.784 1.125q1.227.886 1.954 2.352.716 1.455.716 3.386m-6.727-13.284-3.318.046v-.546l-7.773-7.636v-3.318l8.227 8.136v.227zm6.363 2.5h-23.272v-2.682h23.272zm0-11.091-8.636 6.818-1.864-1.909 10.5-8.318zm.319-23.133q0 2.25-.773 4.011-.773 1.75-2.148 2.784-1.386 1.023-3.216 1.114v-2.864q1.125-.09 1.943-.773.807-.681 1.25-1.784.444-1.101.444-2.443 0-1.5-.523-2.659-.523-1.16-1.455-1.818t-2.159-.659q-1.284 0-2.261.636-.988.636-1.546 1.864-.556 1.227-.556 3v1.863h-2.5v-1.863q0-1.386-.5-2.432-.5-1.057-1.409-1.648-.91-.602-2.137-.602-1.181 0-2.057.523a3.57 3.57 0 0 0-1.363 1.477q-.489.943-.489 2.227 0 1.205.443 2.273.432 1.057 1.262 1.727.818.67 1.977.728v2.727q-1.83-.069-3.205-1.102-1.386-1.035-2.159-2.705-.772-1.681-.772-3.693 0-2.16.875-3.705.863-1.545 2.284-2.375a6 6 0 0 1 3.068-.829q1.966 0 3.352 1.034 1.386 1.023 1.921 2.784h.181q.364-2.205 1.875-3.443 1.5-1.239 3.716-1.239 1.898 0 3.409 1.034 1.5 1.023 2.364 2.796t.864 4.034M323.979 879.206h-2.5v-17.455h2.5v7.318h20.772v2.818h-20.772zm20.772-19.628h-17.454v-2.591h2.636v-.182q-1.295-.477-2.102-1.727t-.807-2.819q0-.295.012-.738.01-.444.034-.671h2.727q-.035.137-.102.625-.08.478-.08 1.012 0 1.272.534 2.272.524.99 1.455 1.569.92.568 2.102.568h11.045zm.41-17.043q0 1.66-.625 3.011a5.17 5.17 0 0 1-1.83 2.148q-1.205.795-2.909.796-1.5 0-2.432-.591a4.17 4.17 0 0 1-1.477-1.58 8.3 8.3 0 0 1-.796-2.182 27 27 0 0 1-.431-2.42 106 106 0 0 1-.307-2.58q-.114-1-.375-1.454-.262-.466-.909-.466h-.091q-1.682 0-2.614.92-.932.91-.932 2.762 0 1.92.841 3.011t1.796 1.534l-.909 2.546q-1.591-.682-2.478-1.819a6.8 6.8 0 0 1-1.25-2.5 10.4 10.4 0 0 1-.363-2.681q0-.841.204-1.932a6.2 6.2 0 0 1 .807-2.125q.614-1.035 1.852-1.716 1.239-.682 3.318-.682h11.5v2.682h-2.363v.136q.568.273 1.216.909.648.637 1.102 1.694t.455 2.579m-2.41-.409q0-1.591-.625-2.682-.624-1.102-1.613-1.659a4.1 4.1 0 0 0-2.08-.568h-2.454q.204.171.375.75.158.568.284 1.318.114.739.204 1.443.08.693.137 1.125.136 1.046.443 1.955.295.897.898 1.454.59.546 1.613.546 1.398 0 2.114-1.034.705-1.046.704-2.648m2.364-19.577q0 2.455-1.159 4.228t-3.193 2.727-4.648.954q-2.66 0-4.693-.977-2.046-.989-3.193-2.75-1.16-1.773-1.159-4.136 0-1.842.681-3.318a6.36 6.36 0 0 1 1.91-2.421q1.227-.944 2.863-1.17v2.681q-1.193.308-2.113 1.364-.933 1.045-.932 2.818 0 1.568.818 2.75.807 1.17 2.284 1.83 1.466.648 3.443.648 2.023 0 3.523-.637 1.5-.648 2.329-1.818.83-1.182.83-2.773 0-1.045-.364-1.897a3.9 3.9 0 0 0-1.045-1.444q-.682-.59-1.636-.841v-2.681a6.2 6.2 0 0 1 2.784 1.125q1.227.886 1.954 2.352.716 1.455.716 3.386m-6.727-13.284-3.318.046v-.546l-7.773-7.636v-3.318l8.227 8.136v.227zm6.363 2.5h-23.272v-2.682h23.272zm0-11.091-8.636 6.818-1.864-1.909 10.5-8.318zm-4.772-14.724h-2.318l-16.182-10.227v-1.682h3.591v1.136l12.227 7.727h.182v-13.772h2.5zm4.772-10.955h-23.272v-2.682h23.272zM262.979 879.206h-2.5v-17.455h2.5v7.318h20.772v2.818h-20.772zm20.772-19.628h-17.454v-2.591h2.636v-.182q-1.295-.477-2.102-1.727t-.807-2.819q0-.295.012-.738.01-.444.034-.671h2.727q-.035.137-.102.625-.08.478-.08 1.012 0 1.272.534 2.272.524.99 1.455 1.569.92.568 2.102.568h11.045zm.41-17.043q0 1.66-.625 3.011a5.17 5.17 0 0 1-1.83 2.148q-1.205.795-2.909.796-1.5 0-2.432-.591a4.17 4.17 0 0 1-1.477-1.58 8.3 8.3 0 0 1-.796-2.182 27 27 0 0 1-.431-2.42 106 106 0 0 1-.307-2.58q-.114-1-.375-1.454-.262-.466-.909-.466h-.091q-1.682 0-2.614.92-.932.91-.932 2.762 0 1.92.841 3.011t1.796 1.534l-.909 2.546q-1.591-.682-2.478-1.819a6.8 6.8 0 0 1-1.25-2.5 10.4 10.4 0 0 1-.363-2.681q0-.841.204-1.932a6.2 6.2 0 0 1 .807-2.125q.614-1.035 1.852-1.716 1.239-.682 3.318-.682h11.5v2.682h-2.363v.136q.568.273 1.216.909.648.637 1.102 1.694t.455 2.579m-2.41-.409q0-1.591-.625-2.682-.624-1.102-1.613-1.659a4.1 4.1 0 0 0-2.08-.568h-2.454q.204.171.375.75.158.568.284 1.318.114.739.204 1.443.08.693.137 1.125.136 1.046.443 1.955.295.897.898 1.454.59.546 1.613.546 1.398 0 2.114-1.034.705-1.046.704-2.648m2.364-19.577q0 2.455-1.159 4.228t-3.193 2.727-4.648.954q-2.66 0-4.693-.977-2.046-.989-3.193-2.75-1.16-1.773-1.159-4.136 0-1.842.681-3.318a6.36 6.36 0 0 1 1.91-2.421q1.227-.944 2.863-1.17v2.681q-1.193.308-2.113 1.364-.933 1.045-.932 2.818 0 1.568.818 2.75.807 1.17 2.284 1.83 1.466.648 3.443.648 2.023 0 3.523-.637 1.5-.648 2.329-1.818.83-1.182.83-2.773 0-1.045-.364-1.897a3.9 3.9 0 0 0-1.045-1.444q-.682-.59-1.636-.841v-2.681a6.2 6.2 0 0 1 2.784 1.125q1.227.886 1.954 2.352.716 1.455.716 3.386m-6.727-13.284-3.318.046v-.546l-7.773-7.636v-3.318l8.227 8.136v.227zm6.363 2.5h-23.272v-2.682h23.272zm0-11.091-8.636 6.818-1.864-1.909 10.5-8.318zm.319-22.542q0 2-.796 3.602-.795 1.602-2.182 2.568-1.386.966-3.159 1.057v-2.727q1.58-.16 2.614-1.432 1.023-1.284 1.023-3.068 0-1.432-.671-2.546a4.73 4.73 0 0 0-1.841-1.761q-1.182-.648-2.67-.648-1.523 0-2.716.671a4.9 4.9 0 0 0-1.898 1.818q-.693 1.159-.704 2.647a7.3 7.3 0 0 0 .329 2.194q.33 1.125.852 1.852l-.318 2.636-11.454-1.409v-12.091h2.5v9.728l6.863.818v-.137q-.567-.715-.943-1.795a6.8 6.8 0 0 1-.375-2.25q0-2.136 1.023-3.807a7.13 7.13 0 0 1 2.773-2.636q1.761-.966 4.022-.966 2.227 0 3.978 1a7.3 7.3 0 0 1 2.75 2.727q1 1.738 1 3.955M212.979 879.206h-2.5v-17.455h2.5v7.318h20.772v2.818h-20.772zm20.772-19.628h-17.454v-2.591h2.636v-.182q-1.295-.477-2.102-1.727t-.807-2.819q0-.295.012-.738.01-.444.034-.671h2.727q-.035.137-.102.625-.08.478-.08 1.012 0 1.272.534 2.272.523.99 1.455 1.569.92.568 2.102.568h11.045zm.41-17.043q0 1.66-.625 3.011a5.17 5.17 0 0 1-1.83 2.148q-1.205.795-2.909.796-1.5 0-2.432-.591a4.17 4.17 0 0 1-1.477-1.58 8.3 8.3 0 0 1-.796-2.182 27 27 0 0 1-.431-2.42 106 106 0 0 1-.307-2.58q-.114-1-.375-1.454-.263-.466-.909-.466h-.091q-1.682 0-2.614.92-.932.91-.932 2.762 0 1.92.841 3.011t1.796 1.534l-.909 2.546q-1.591-.682-2.478-1.819a6.8 6.8 0 0 1-1.25-2.5 10.4 10.4 0 0 1-.363-2.681q0-.841.204-1.932a6.2 6.2 0 0 1 .807-2.125q.614-1.035 1.852-1.716 1.239-.682 3.318-.682h11.5v2.682h-2.363v.136q.568.273 1.216.909.648.637 1.102 1.694t.455 2.579m-2.41-.409q0-1.591-.625-2.682-.624-1.102-1.613-1.659a4.1 4.1 0 0 0-2.08-.568h-2.454q.204.171.375.75.158.568.284 1.318.114.739.204 1.443.08.693.137 1.125.136 1.046.443 1.955.295.897.898 1.454.59.546 1.613.546 1.398 0 2.114-1.034.704-1.046.704-2.648m2.364-19.577q0 2.455-1.159 4.228t-3.193 2.727-4.648.954q-2.66 0-4.693-.977-2.046-.989-3.193-2.75-1.16-1.773-1.159-4.136 0-1.842.681-3.318a6.36 6.36 0 0 1 1.91-2.421q1.227-.944 2.863-1.17v2.681q-1.193.308-2.113 1.364-.933 1.045-.932 2.818 0 1.568.818 2.75.807 1.17 2.284 1.83 1.466.648 3.443.648 2.023 0 3.523-.637 1.5-.648 2.329-1.818.83-1.182.83-2.773 0-1.045-.364-1.897a3.9 3.9 0 0 0-1.045-1.444q-.682-.59-1.636-.841v-2.681a6.2 6.2 0 0 1 2.784 1.125q1.227.886 1.954 2.352.716 1.455.716 3.386m-6.727-13.284-3.318.046v-.546l-7.773-7.636v-3.318l8.227 8.136v.227zm6.363 2.5h-23.272v-2.682h23.272zm0-11.091-8.636 6.818-1.864-1.909 10.5-8.318zm.319-22.997a8.7 8.7 0 0 1-.546 2.864q-.522 1.432-1.761 2.613-1.251 1.182-3.375 1.898-2.136.716-5.364.716-3.09 0-5.477-.58-2.398-.579-4.034-1.681-1.648-1.103-2.5-2.659-.852-1.569-.852-3.535 0-1.955.784-3.477a6.6 6.6 0 0 1 2.159-2.5q1.386-.965 3.193-1.25v2.773q-1.569.387-2.602 1.5-1.035 1.113-1.034 2.954 0 2.705 2.352 4.262 2.352 1.545 6.602 1.557v-.182a6.83 6.83 0 0 1-2.716-3.466 6.8 6.8 0 0 1-.375-2.261q0-2 1-3.66.988-1.659 2.739-2.659 1.738-1 3.988-1 2.16 0 3.955.966a7.37 7.37 0 0 1 2.841 2.716q1.045 1.739 1.023 4.091m-2.5 0q0-1.431-.716-2.568a5.13 5.13 0 0 0-1.921-1.807q-1.204-.67-2.682-.67-1.443 0-2.625.647a4.94 4.94 0 0 0-1.897 1.762q-.705 1.114-.705 2.545 0 1.08.432 2.012.42.931 1.159 1.636a5.6 5.6 0 0 0 1.693 1.091 5.1 5.1 0 0 0 1.989.398q1.386 0 2.591-.648a5.33 5.33 0 0 0 1.943-1.796q.739-1.147.739-2.602"/><path stroke="red" stroke-linecap="round" stroke-linejoin="round" stroke-width="3" d="m555 942-12 12M543 942l12 12M489 976l-12 12M477 976l12 12M327 936l-12 12M315 936l12 12M280 912l-12 12M268 912l12 12"/><mask id="r" fill="#fff"><path d="m396.689 962.545-6.495-3.75s-64.797 91.335-95.826 140.975c-31.028 49.63-49.75 61.86-75.762 64.22-78.608 7.16-125.528 98.42-125.528 98.42l97.861 56.5z"/></mask><path fill="#e27c00" d="m396.689 962.545-6.495-3.75s-64.797 91.335-95.826 140.975c-31.028 49.63-49.75 61.86-75.762 64.22-78.608 7.16-125.528 98.42-125.528 98.42l97.861 56.5z"/><path fill="#000" d="m391.194 957.063-2 3.464 6.495 3.75-.732-2.732-20.539 35.575-185.211 320.79 2.732-.73c-32.62-18.83-65.241-37.66-97.861-56.5l.779 2.65c26.454-46.5 68.639-91.81 123.931-97.35 17.045-.97 33.325-9.75 44.897-21.91 12.785-13.01 22.779-28.03 32.379-43.24 21.637-34.29 44.755-67.74 67.898-101.14a5773 5773 0 0 1 27.863-39.738l-3.263-2.314a5793 5793 0 0 0-27.884 39.769c-23.164 33.433-46.279 66.873-68.006 101.303-9.518 15.1-19.452 29.97-31.821 42.54-11.301 11.76-26.097 19.74-42.426 20.75-57.544 5.94-100.092 52.09-127.126 99.5l-.87 1.69 1.649.96c32.62 18.83 65.241 37.66 97.861 56.5l1.732 1 1-1.74 185.211-320.79 20.539-35.575 1-1.732-1.732-1zm-2 3.464 2-3.464-1.578-.911-1.054 1.486 3.263 2.314z" mask="url(#r)"/><circle cx="143.258" cy="1288.5" r="54.5" fill="#e27c00" stroke="#000" stroke-width="4" transform="rotate(30 143.258 1288.5)"/><circle cx="143.258" cy="1288.5" r="48" fill="#e27c00" stroke="#000" transform="rotate(30 143.258 1288.5)"/><circle cx="143.258" cy="1288.5" r="40" fill="#e27c00" stroke="#000" transform="rotate(30 143.258 1288.5)"/><circle cx="143.441" cy="1289.18" r="10.5" fill="#e27c00" stroke="#000" transform="rotate(30 143.441 1289.18)"/><path fill="#fff" d="M331.563 940.1c-.497.242-.704.84-.463 1.337l3.932 8.095a1 1 0 0 0 1.799-.873l-3.495-7.196 7.196-3.496a1 1 0 1 0-.874-1.799zM384 959l.327-.945-52-18L332 941l-.328.945 52 18zM282.641 928.067a1 1 0 0 0-.574 1.292l3.23 8.4a1 1 0 1 0 1.867-.718l-2.872-7.467 7.467-2.871a1 1 0 1 0-.718-1.867zM310 941l.406-.914-27-12L283 929l-.406.914 26.999 12zM470.465 975.885a1 1 0 0 0 .419-1.351l-4.193-7.963a.998.998 0 1 0-1.769.931l3.727 7.079-7.079 3.727a1 1 0 0 0 .932 1.77zM283 917l-.296.955 186.999 58L470 975l.296-.955-187-58zM538.979 950.201a1 1 0 0 0-.779-1.181l-8.816-1.808a1 1 0 0 0-.402 1.959l7.837 1.608-1.608 7.836a1 1 0 0 0 1.96.402zM491 981l.55.835 47-31L538 950l-.551-.835-47 31z"/></g><defs><clipPath id="a"><path fill="#fff" d="M0 0h698v698H0z"/></clipPath><clipPath id="j"><path fill="#fff" d="M0 698h698v698H0z"/></clipPath></defs></svg>