<svg width="1130" height="1319" viewBox="0 0 1130 1319" fill="none" xmlns="http://www.w3.org/2000/svg">
<line x1="687.816" y1="754.814" x2="1035.82" y2="754.814" stroke="#717171" stroke-width="4"/>
<line x1="648.402" y1="666.4" x2="894.402" y2="420.4" stroke="#717171" stroke-width="4"/>
<line x1="477.402" y1="670.229" x2="231.402" y2="424.229" stroke="#717171" stroke-width="4"/>
<line x1="232.402" y1="1083.4" x2="478.402" y2="837.4" stroke="#717171" stroke-width="4"/>
<line x1="894.402" y1="1086.23" x2="648.402" y2="840.229" stroke="#717171" stroke-width="4"/>
<line x1="452.031" y1="709.852" x2="130.617" y2="576.717" stroke="#717171" stroke-width="4"/>
<line x1="516.005" y1="643.331" x2="382.871" y2="321.916" stroke="#717171" stroke-width="4"/>
<line x1="608.278" y1="641.53" x2="741.413" y2="320.115" stroke="#717171" stroke-width="4"/>
<line x1="674.799" y1="705.503" x2="996.214" y2="572.369" stroke="#717171" stroke-width="4"/>
<line x1="996.485" y1="934.607" x2="675.071" y2="801.472" stroke="#717171" stroke-width="4"/>
<line x1="742.066" y1="1187.24" x2="608.932" y2="865.828" stroke="#717171" stroke-width="4"/>
<line x1="383.524" y1="1185.98" x2="516.658" y2="864.568" stroke="#717171" stroke-width="4"/>
<line x1="130.888" y1="931.564" x2="452.302" y2="798.43" stroke="#717171" stroke-width="4"/>
<line x1="91.8162" y1="754.814" x2="439.816" y2="754.814" stroke="#717171" stroke-width="4"/>
<line x1="563.816" y1="876.814" x2="563.816" y2="1224.81" stroke="#717171" stroke-width="4"/>
<line x1="563.816" y1="280.814" x2="563.816" y2="628.814" stroke="#717171" stroke-width="4"/>
<circle cx="563.816" cy="752.814" r="469.5" stroke="white" stroke-width="5"/>
<circle cx="563.816" cy="752.814" r="424.5" stroke="white" stroke-width="3"/>
<circle cx="563.816" cy="752.814" r="381.5" stroke="white" stroke-width="3"/>
<circle cx="563.816" cy="752.814" r="337.5" stroke="white" stroke-width="3"/>
<circle cx="563.816" cy="752.814" r="294.5" stroke="white" stroke-width="3"/>
<circle cx="563.816" cy="752.814" r="250.5" stroke="white" stroke-width="3"/>
<circle cx="563.816" cy="752.814" r="207.5" stroke="white" stroke-width="3"/>
<circle cx="563.816" cy="752.814" r="165.5" stroke="white" stroke-width="3"/>
<circle cx="563.816" cy="752.814" r="122.5" stroke="white" stroke-width="3"/>
<path d="M421.351 207.65C498.169 187.575 578.363 183.962 656.676 197.047C734.989 210.132 809.652 239.62 875.772 283.577C941.892 327.535 997.976 384.97 1040.35 452.117C1082.72 519.264 1110.42 594.608 1121.64 673.21C1132.85 751.812 1127.33 831.897 1105.44 908.216C1083.54 984.535 1045.76 1055.36 994.574 1116.06C943.389 1176.76 879.954 1225.95 808.427 1260.42C736.901 1294.89 658.897 1313.85 579.53 1316.07" stroke="#DBDBDB" stroke-width="4"/>
<path d="M462.25 228.744L418.061 208.281L441.646 165.675" stroke="#DBDBDB" stroke-width="4" stroke-linecap="round" stroke-linejoin="round"/>
<path d="M92.1116 228.042V225.542H109.566V228.042H102.248V248.814H99.4298V228.042H92.1116ZM116.234 238.314V248.814H113.552V225.542H116.234V234.087H116.461C116.87 233.186 117.484 232.47 118.302 231.939C119.128 231.402 120.226 231.133 121.597 231.133C122.787 231.133 123.828 231.371 124.722 231.849C125.616 232.318 126.31 233.042 126.802 234.019C127.302 234.989 127.552 236.224 127.552 237.724V248.814H124.87V237.905C124.87 236.519 124.51 235.447 123.791 234.689C123.078 233.924 122.09 233.542 120.825 233.542C119.946 233.542 119.158 233.727 118.461 234.099C117.772 234.47 117.226 235.011 116.825 235.724C116.431 236.436 116.234 237.299 116.234 238.314ZM139.776 249.178C138.095 249.178 136.644 248.807 135.424 248.064C134.212 247.314 133.276 246.269 132.617 244.928C131.966 243.58 131.64 242.011 131.64 240.224C131.64 238.436 131.966 236.86 132.617 235.496C133.276 234.125 134.193 233.057 135.367 232.292C136.549 231.519 137.928 231.133 139.504 231.133C140.413 231.133 141.31 231.284 142.197 231.587C143.083 231.89 143.89 232.383 144.617 233.064C145.345 233.739 145.924 234.633 146.356 235.746C146.788 236.86 147.004 238.231 147.004 239.86V240.996H133.549V238.678H144.276C144.276 237.693 144.079 236.814 143.685 236.042C143.299 235.269 142.746 234.659 142.026 234.212C141.314 233.765 140.473 233.542 139.504 233.542C138.435 233.542 137.511 233.807 136.731 234.337C135.958 234.86 135.364 235.542 134.947 236.383C134.53 237.224 134.322 238.125 134.322 239.087V240.633C134.322 241.951 134.549 243.068 135.004 243.985C135.466 244.894 136.106 245.587 136.924 246.064C137.742 246.534 138.693 246.769 139.776 246.769C140.481 246.769 141.117 246.671 141.685 246.474C142.261 246.269 142.757 245.966 143.174 245.564C143.591 245.155 143.913 244.648 144.14 244.042L146.731 244.769C146.458 245.648 146 246.421 145.356 247.087C144.712 247.746 143.917 248.261 142.97 248.633C142.023 248.996 140.958 249.178 139.776 249.178ZM166.674 249.178C165.22 249.178 163.935 248.811 162.822 248.076C161.708 247.333 160.837 246.288 160.208 244.939C159.579 243.583 159.265 241.981 159.265 240.133C159.265 238.299 159.579 236.708 160.208 235.36C160.837 234.011 161.712 232.97 162.833 232.235C163.954 231.5 165.25 231.133 166.72 231.133C167.856 231.133 168.754 231.322 169.413 231.701C170.079 232.072 170.587 232.496 170.935 232.974C171.292 233.443 171.568 233.83 171.765 234.133H171.992V225.542H174.674V248.814H172.083V246.133H171.765C171.568 246.451 171.288 246.852 170.924 247.337C170.56 247.814 170.042 248.242 169.367 248.621C168.693 248.992 167.795 249.178 166.674 249.178ZM167.038 246.769C168.114 246.769 169.023 246.489 169.765 245.928C170.507 245.36 171.072 244.576 171.458 243.576C171.845 242.568 172.038 241.405 172.038 240.087C172.038 238.784 171.848 237.644 171.47 236.667C171.091 235.682 170.53 234.917 169.788 234.371C169.045 233.818 168.129 233.542 167.038 233.542C165.901 233.542 164.954 233.833 164.197 234.417C163.447 234.992 162.882 235.777 162.504 236.769C162.132 237.754 161.947 238.86 161.947 240.087C161.947 241.33 162.136 242.458 162.515 243.474C162.901 244.481 163.47 245.284 164.22 245.883C164.977 246.474 165.917 246.769 167.038 246.769ZM179.958 248.814V231.36H182.64V248.814H179.958ZM181.322 228.451C180.799 228.451 180.348 228.273 179.97 227.917C179.598 227.561 179.413 227.133 179.413 226.633C179.413 226.133 179.598 225.705 179.97 225.349C180.348 224.992 180.799 224.814 181.322 224.814C181.845 224.814 182.292 224.992 182.663 225.349C183.042 225.705 183.231 226.133 183.231 226.633C183.231 227.133 183.042 227.561 182.663 227.917C182.292 228.273 181.845 228.451 181.322 228.451ZM199.916 235.269L197.507 235.951C197.355 235.549 197.132 235.159 196.836 234.78C196.548 234.394 196.154 234.076 195.654 233.826C195.154 233.576 194.514 233.451 193.734 233.451C192.666 233.451 191.775 233.697 191.063 234.189C190.359 234.674 190.007 235.292 190.007 236.042C190.007 236.708 190.249 237.235 190.734 237.621C191.219 238.008 191.976 238.33 193.007 238.587L195.597 239.224C197.158 239.602 198.321 240.182 199.086 240.962C199.851 241.735 200.234 242.731 200.234 243.951C200.234 244.951 199.946 245.845 199.37 246.633C198.802 247.421 198.007 248.042 196.984 248.496C195.961 248.951 194.772 249.178 193.416 249.178C191.635 249.178 190.162 248.792 188.995 248.019C187.828 247.246 187.09 246.117 186.779 244.633L189.325 243.996C189.567 244.936 190.025 245.64 190.7 246.11C191.382 246.58 192.272 246.814 193.37 246.814C194.62 246.814 195.613 246.549 196.347 246.019C197.09 245.481 197.461 244.837 197.461 244.087C197.461 243.481 197.249 242.974 196.825 242.564C196.4 242.148 195.749 241.837 194.87 241.633L191.961 240.951C190.363 240.572 189.188 239.985 188.438 239.189C187.696 238.386 187.325 237.383 187.325 236.178C187.325 235.193 187.601 234.322 188.154 233.564C188.715 232.807 189.476 232.212 190.438 231.78C191.408 231.349 192.507 231.133 193.734 231.133C195.461 231.133 196.817 231.511 197.802 232.269C198.794 233.027 199.499 234.027 199.916 235.269ZM206.771 242.451L206.725 239.133H207.271L214.907 231.36H218.225L210.089 239.587H209.862L206.771 242.451ZM204.271 248.814V225.542H206.953V248.814H204.271ZM215.362 248.814L208.543 240.178L210.453 238.314L218.771 248.814H215.362ZM237.768 249.178C236.132 249.178 234.722 248.792 233.541 248.019C232.359 247.246 231.45 246.182 230.813 244.826C230.177 243.47 229.859 241.921 229.859 240.178C229.859 238.405 230.185 236.841 230.836 235.485C231.495 234.121 232.412 233.057 233.586 232.292C234.768 231.519 236.147 231.133 237.722 231.133C238.95 231.133 240.056 231.36 241.041 231.814C242.025 232.269 242.832 232.905 243.461 233.724C244.09 234.542 244.48 235.496 244.632 236.587H241.95C241.745 235.792 241.291 235.087 240.586 234.474C239.889 233.852 238.95 233.542 237.768 233.542C236.722 233.542 235.806 233.814 235.018 234.36C234.238 234.898 233.628 235.659 233.188 236.644C232.757 237.621 232.541 238.769 232.541 240.087C232.541 241.436 232.753 242.61 233.177 243.61C233.609 244.61 234.215 245.386 234.995 245.939C235.783 246.492 236.707 246.769 237.768 246.769C238.465 246.769 239.097 246.648 239.666 246.405C240.234 246.163 240.715 245.814 241.109 245.36C241.503 244.905 241.783 244.36 241.95 243.724H244.632C244.48 244.754 244.105 245.682 243.507 246.508C242.916 247.326 242.132 247.977 241.154 248.462C240.185 248.939 239.056 249.178 237.768 249.178ZM253.688 249.224C252.582 249.224 251.578 249.015 250.677 248.599C249.775 248.174 249.06 247.564 248.529 246.769C247.999 245.966 247.734 244.996 247.734 243.86C247.734 242.86 247.931 242.049 248.325 241.428C248.719 240.799 249.245 240.307 249.904 239.951C250.563 239.595 251.291 239.33 252.086 239.155C252.889 238.974 253.696 238.83 254.507 238.724C255.567 238.587 256.427 238.485 257.086 238.417C257.753 238.341 258.238 238.216 258.541 238.042C258.851 237.867 259.007 237.564 259.007 237.133V237.042C259.007 235.921 258.7 235.049 258.086 234.428C257.48 233.807 256.56 233.496 255.325 233.496C254.044 233.496 253.041 233.777 252.313 234.337C251.586 234.898 251.075 235.496 250.779 236.133L248.234 235.224C248.688 234.163 249.294 233.337 250.052 232.746C250.817 232.148 251.65 231.731 252.552 231.496C253.461 231.254 254.355 231.133 255.234 231.133C255.794 231.133 256.438 231.201 257.166 231.337C257.9 231.466 258.609 231.735 259.291 232.144C259.98 232.553 260.552 233.171 261.007 233.996C261.461 234.822 261.688 235.928 261.688 237.314V248.814H259.007V246.451H258.87C258.688 246.83 258.385 247.235 257.961 247.667C257.537 248.099 256.972 248.466 256.268 248.769C255.563 249.072 254.703 249.224 253.688 249.224ZM254.097 246.814C255.158 246.814 256.052 246.606 256.779 246.189C257.514 245.773 258.067 245.235 258.438 244.576C258.817 243.917 259.007 243.224 259.007 242.496V240.042C258.893 240.178 258.643 240.303 258.257 240.417C257.878 240.523 257.438 240.617 256.938 240.701C256.446 240.777 255.965 240.845 255.495 240.905C255.033 240.958 254.658 241.004 254.37 241.042C253.673 241.133 253.022 241.28 252.416 241.485C251.817 241.682 251.332 241.981 250.961 242.383C250.597 242.777 250.416 243.314 250.416 243.996C250.416 244.928 250.76 245.633 251.45 246.11C252.147 246.58 253.029 246.814 254.097 246.814ZM269.265 238.314V248.814H266.583V231.36H269.174V234.087H269.401C269.81 233.201 270.432 232.489 271.265 231.951C272.098 231.405 273.174 231.133 274.492 231.133C275.674 231.133 276.708 231.375 277.595 231.86C278.481 232.337 279.17 233.064 279.663 234.042C280.155 235.011 280.401 236.239 280.401 237.724V248.814H277.72V237.905C277.72 236.534 277.364 235.466 276.651 234.701C275.939 233.928 274.962 233.542 273.72 233.542C272.864 233.542 272.098 233.727 271.424 234.099C270.757 234.47 270.231 235.011 269.845 235.724C269.458 236.436 269.265 237.299 269.265 238.314ZM301.393 249.178C299.817 249.178 298.435 248.803 297.245 248.053C296.063 247.303 295.139 246.254 294.472 244.905C293.813 243.557 293.484 241.981 293.484 240.178C293.484 238.36 293.813 236.773 294.472 235.417C295.139 234.061 296.063 233.008 297.245 232.258C298.435 231.508 299.817 231.133 301.393 231.133C302.969 231.133 304.347 231.508 305.529 232.258C306.719 233.008 307.643 234.061 308.302 235.417C308.969 236.773 309.302 238.36 309.302 240.178C309.302 241.981 308.969 243.557 308.302 244.905C307.643 246.254 306.719 247.303 305.529 248.053C304.347 248.803 302.969 249.178 301.393 249.178ZM301.393 246.769C302.59 246.769 303.575 246.462 304.347 245.849C305.12 245.235 305.692 244.428 306.063 243.428C306.435 242.428 306.62 241.345 306.62 240.178C306.62 239.011 306.435 237.924 306.063 236.917C305.692 235.909 305.12 235.095 304.347 234.474C303.575 233.852 302.59 233.542 301.393 233.542C300.196 233.542 299.211 233.852 298.438 234.474C297.666 235.095 297.094 235.909 296.722 236.917C296.351 237.924 296.166 239.011 296.166 240.178C296.166 241.345 296.351 242.428 296.722 243.428C297.094 244.428 297.666 245.235 298.438 245.849C299.211 246.462 300.196 246.769 301.393 246.769ZM316.078 238.314V248.814H313.396V231.36H315.987V234.087H316.214C316.623 233.201 317.244 232.489 318.078 231.951C318.911 231.405 319.987 231.133 321.305 231.133C322.487 231.133 323.521 231.375 324.407 231.86C325.293 232.337 325.983 233.064 326.475 234.042C326.968 235.011 327.214 236.239 327.214 237.724V248.814H324.532V237.905C324.532 236.534 324.176 235.466 323.464 234.701C322.752 233.928 321.774 233.542 320.532 233.542C319.676 233.542 318.911 233.727 318.237 234.099C317.57 234.47 317.043 235.011 316.657 235.724C316.271 236.436 316.078 237.299 316.078 238.314ZM334.796 225.542V248.814H332.114V225.542H334.796ZM341.435 255.36C340.981 255.36 340.576 255.322 340.22 255.246C339.864 255.178 339.617 255.11 339.481 255.042L340.163 252.678C340.814 252.845 341.39 252.905 341.89 252.86C342.39 252.814 342.833 252.591 343.22 252.189C343.614 251.796 343.973 251.155 344.299 250.269L344.799 248.905L338.345 231.36H341.254L346.072 245.269H346.254L351.072 231.36H353.981L346.572 251.36C346.239 252.261 345.826 253.008 345.333 253.599C344.841 254.197 344.269 254.64 343.617 254.928C342.973 255.216 342.246 255.36 341.435 255.36ZM110.833 287.814V270.36H113.424V272.996H113.606C113.924 272.133 114.5 271.432 115.333 270.894C116.167 270.356 117.106 270.087 118.151 270.087C118.348 270.087 118.595 270.091 118.89 270.099C119.185 270.106 119.409 270.117 119.56 270.133V272.86C119.47 272.837 119.261 272.803 118.935 272.758C118.617 272.705 118.28 272.678 117.924 272.678C117.076 272.678 116.318 272.856 115.651 273.212C114.992 273.561 114.47 274.046 114.083 274.667C113.704 275.28 113.515 275.981 113.515 276.769V287.814H110.833ZM129.299 288.178C127.723 288.178 126.341 287.803 125.151 287.053C123.97 286.303 123.045 285.254 122.379 283.905C121.72 282.557 121.39 280.981 121.39 279.178C121.39 277.36 121.72 275.773 122.379 274.417C123.045 273.061 123.97 272.008 125.151 271.258C126.341 270.508 127.723 270.133 129.299 270.133C130.875 270.133 132.254 270.508 133.435 271.258C134.625 272.008 135.549 273.061 136.208 274.417C136.875 275.773 137.208 277.36 137.208 279.178C137.208 280.981 136.875 282.557 136.208 283.905C135.549 285.254 134.625 286.303 133.435 287.053C132.254 287.803 130.875 288.178 129.299 288.178ZM129.299 285.769C130.496 285.769 131.481 285.462 132.254 284.849C133.026 284.235 133.598 283.428 133.97 282.428C134.341 281.428 134.526 280.345 134.526 279.178C134.526 278.011 134.341 276.924 133.97 275.917C133.598 274.909 133.026 274.095 132.254 273.474C131.481 272.852 130.496 272.542 129.299 272.542C128.102 272.542 127.117 272.852 126.345 273.474C125.572 274.095 125 274.909 124.629 275.917C124.257 276.924 124.072 278.011 124.072 279.178C124.072 280.345 124.257 281.428 124.629 282.428C125 283.428 125.572 284.235 126.345 284.849C127.117 285.462 128.102 285.769 129.299 285.769ZM148.893 270.36V272.633H139.847V270.36H148.893ZM142.484 266.178H145.166V282.814C145.166 283.572 145.275 284.14 145.495 284.519C145.722 284.89 146.01 285.14 146.359 285.269C146.715 285.39 147.09 285.451 147.484 285.451C147.779 285.451 148.022 285.436 148.211 285.405C148.4 285.367 148.552 285.337 148.666 285.314L149.211 287.724C149.029 287.792 148.775 287.86 148.45 287.928C148.124 288.004 147.711 288.042 147.211 288.042C146.453 288.042 145.711 287.879 144.984 287.553C144.264 287.227 143.666 286.731 143.188 286.064C142.719 285.398 142.484 284.557 142.484 283.542V266.178ZM158.063 288.224C156.957 288.224 155.953 288.015 155.052 287.599C154.15 287.174 153.435 286.564 152.904 285.769C152.374 284.966 152.109 283.996 152.109 282.86C152.109 281.86 152.306 281.049 152.7 280.428C153.094 279.799 153.62 279.307 154.279 278.951C154.938 278.595 155.666 278.33 156.461 278.155C157.264 277.974 158.071 277.83 158.882 277.724C159.942 277.587 160.802 277.485 161.461 277.417C162.128 277.341 162.613 277.216 162.916 277.042C163.226 276.867 163.382 276.564 163.382 276.133V276.042C163.382 274.921 163.075 274.049 162.461 273.428C161.855 272.807 160.935 272.496 159.7 272.496C158.419 272.496 157.416 272.777 156.688 273.337C155.961 273.898 155.45 274.496 155.154 275.133L152.609 274.224C153.063 273.163 153.669 272.337 154.427 271.746C155.192 271.148 156.025 270.731 156.927 270.496C157.836 270.254 158.73 270.133 159.609 270.133C160.169 270.133 160.813 270.201 161.541 270.337C162.275 270.466 162.984 270.735 163.666 271.144C164.355 271.553 164.927 272.171 165.382 272.996C165.836 273.822 166.063 274.928 166.063 276.314V287.814H163.382V285.451H163.245C163.063 285.83 162.76 286.235 162.336 286.667C161.912 287.099 161.347 287.466 160.643 287.769C159.938 288.072 159.078 288.224 158.063 288.224ZM158.472 285.814C159.533 285.814 160.427 285.606 161.154 285.189C161.889 284.773 162.442 284.235 162.813 283.576C163.192 282.917 163.382 282.224 163.382 281.496V279.042C163.268 279.178 163.018 279.303 162.632 279.417C162.253 279.523 161.813 279.617 161.313 279.701C160.821 279.777 160.34 279.845 159.87 279.905C159.408 279.958 159.033 280.004 158.745 280.042C158.048 280.133 157.397 280.28 156.791 280.485C156.192 280.682 155.707 280.981 155.336 281.383C154.972 281.777 154.791 282.314 154.791 282.996C154.791 283.928 155.135 284.633 155.825 285.11C156.522 285.58 157.404 285.814 158.472 285.814ZM178.549 270.36V272.633H169.504V270.36H178.549ZM172.14 266.178H174.822V282.814C174.822 283.572 174.932 284.14 175.151 284.519C175.379 284.89 175.667 285.14 176.015 285.269C176.371 285.39 176.746 285.451 177.14 285.451C177.435 285.451 177.678 285.436 177.867 285.405C178.057 285.367 178.208 285.337 178.322 285.314L178.867 287.724C178.685 287.792 178.432 287.86 178.106 287.928C177.78 288.004 177.367 288.042 176.867 288.042C176.11 288.042 175.367 287.879 174.64 287.553C173.92 287.227 173.322 286.731 172.845 286.064C172.375 285.398 172.14 284.557 172.14 283.542V266.178ZM189.714 288.178C188.032 288.178 186.581 287.807 185.362 287.064C184.149 286.314 183.214 285.269 182.555 283.928C181.903 282.58 181.578 281.011 181.578 279.224C181.578 277.436 181.903 275.86 182.555 274.496C183.214 273.125 184.131 272.057 185.305 271.292C186.487 270.519 187.865 270.133 189.441 270.133C190.35 270.133 191.248 270.284 192.134 270.587C193.021 270.89 193.828 271.383 194.555 272.064C195.282 272.739 195.862 273.633 196.293 274.746C196.725 275.86 196.941 277.231 196.941 278.86V279.996H183.487V277.678H194.214C194.214 276.693 194.017 275.814 193.623 275.042C193.237 274.269 192.684 273.659 191.964 273.212C191.252 272.765 190.411 272.542 189.441 272.542C188.373 272.542 187.449 272.807 186.668 273.337C185.896 273.86 185.301 274.542 184.884 275.383C184.468 276.224 184.259 277.125 184.259 278.087V279.633C184.259 280.951 184.487 282.068 184.941 282.985C185.403 283.894 186.043 284.587 186.862 285.064C187.68 285.534 188.631 285.769 189.714 285.769C190.418 285.769 191.055 285.671 191.623 285.474C192.199 285.269 192.695 284.966 193.112 284.564C193.528 284.155 193.85 283.648 194.078 283.042L196.668 283.769C196.396 284.648 195.937 285.421 195.293 286.087C194.649 286.746 193.854 287.261 192.907 287.633C191.96 287.996 190.896 288.178 189.714 288.178ZM217.112 288.178C215.475 288.178 214.066 287.792 212.884 287.019C211.703 286.246 210.793 285.182 210.157 283.826C209.521 282.47 209.203 280.921 209.203 279.178C209.203 277.405 209.528 275.841 210.18 274.485C210.839 273.121 211.756 272.057 212.93 271.292C214.112 270.519 215.49 270.133 217.066 270.133C218.293 270.133 219.399 270.36 220.384 270.814C221.369 271.269 222.176 271.905 222.805 272.724C223.434 273.542 223.824 274.496 223.975 275.587H221.293C221.089 274.792 220.634 274.087 219.93 273.474C219.233 272.852 218.293 272.542 217.112 272.542C216.066 272.542 215.149 272.814 214.362 273.36C213.581 273.898 212.971 274.659 212.532 275.644C212.1 276.621 211.884 277.769 211.884 279.087C211.884 280.436 212.096 281.61 212.521 282.61C212.953 283.61 213.559 284.386 214.339 284.939C215.127 285.492 216.051 285.769 217.112 285.769C217.809 285.769 218.441 285.648 219.009 285.405C219.578 285.163 220.059 284.814 220.453 284.36C220.846 283.905 221.127 283.36 221.293 282.724H223.975C223.824 283.754 223.449 284.682 222.85 285.508C222.259 286.326 221.475 286.977 220.498 287.462C219.528 287.939 218.399 288.178 217.112 288.178ZM234.987 288.178C233.411 288.178 232.028 287.803 230.839 287.053C229.657 286.303 228.733 285.254 228.066 283.905C227.407 282.557 227.078 280.981 227.078 279.178C227.078 277.36 227.407 275.773 228.066 274.417C228.733 273.061 229.657 272.008 230.839 271.258C232.028 270.508 233.411 270.133 234.987 270.133C236.562 270.133 237.941 270.508 239.123 271.258C240.312 272.008 241.237 273.061 241.896 274.417C242.562 275.773 242.896 277.36 242.896 279.178C242.896 280.981 242.562 282.557 241.896 283.905C241.237 285.254 240.312 286.303 239.123 287.053C237.941 287.803 236.562 288.178 234.987 288.178ZM234.987 285.769C236.184 285.769 237.168 285.462 237.941 284.849C238.714 284.235 239.286 283.428 239.657 282.428C240.028 281.428 240.214 280.345 240.214 279.178C240.214 278.011 240.028 276.924 239.657 275.917C239.286 274.909 238.714 274.095 237.941 273.474C237.168 272.852 236.184 272.542 234.987 272.542C233.79 272.542 232.805 272.852 232.032 273.474C231.259 274.095 230.687 274.909 230.316 275.917C229.945 276.924 229.759 278.011 229.759 279.178C229.759 280.345 229.945 281.428 230.316 282.428C230.687 283.428 231.259 284.235 232.032 284.849C232.805 285.462 233.79 285.769 234.987 285.769ZM257.989 280.678V270.36H260.671V287.814H257.989V284.86H257.808C257.399 285.746 256.762 286.5 255.899 287.121C255.035 287.735 253.944 288.042 252.626 288.042C251.535 288.042 250.565 287.803 249.717 287.326C248.868 286.841 248.202 286.114 247.717 285.144C247.232 284.167 246.989 282.936 246.989 281.451V270.36H249.671V281.269C249.671 282.542 250.027 283.557 250.739 284.314C251.459 285.072 252.376 285.451 253.489 285.451C254.156 285.451 254.834 285.28 255.524 284.939C256.221 284.599 256.804 284.076 257.274 283.371C257.751 282.667 257.989 281.769 257.989 280.678ZM268.265 277.314V287.814H265.583V270.36H268.174V273.087H268.401C268.81 272.201 269.432 271.489 270.265 270.951C271.098 270.405 272.174 270.133 273.492 270.133C274.674 270.133 275.708 270.375 276.595 270.86C277.481 271.337 278.17 272.064 278.663 273.042C279.155 274.011 279.401 275.239 279.401 276.724V287.814H276.72V276.905C276.72 275.534 276.364 274.466 275.651 273.701C274.939 272.928 273.962 272.542 272.72 272.542C271.864 272.542 271.098 272.727 270.424 273.099C269.757 273.47 269.231 274.011 268.845 274.724C268.458 275.436 268.265 276.299 268.265 277.314ZM291.893 270.36V272.633H282.847V270.36H291.893ZM285.484 266.178H288.166V282.814C288.166 283.572 288.275 284.14 288.495 284.519C288.722 284.89 289.01 285.14 289.359 285.269C289.715 285.39 290.09 285.451 290.484 285.451C290.779 285.451 291.022 285.436 291.211 285.405C291.4 285.367 291.552 285.337 291.666 285.314L292.211 287.724C292.029 287.792 291.775 287.86 291.45 287.928C291.124 288.004 290.711 288.042 290.211 288.042C289.453 288.042 288.711 287.879 287.984 287.553C287.264 287.227 286.666 286.731 286.188 286.064C285.719 285.398 285.484 284.557 285.484 283.542V266.178ZM303.058 288.178C301.376 288.178 299.925 287.807 298.705 287.064C297.493 286.314 296.558 285.269 295.899 283.928C295.247 282.58 294.921 281.011 294.921 279.224C294.921 277.436 295.247 275.86 295.899 274.496C296.558 273.125 297.474 272.057 298.649 271.292C299.83 270.519 301.209 270.133 302.785 270.133C303.694 270.133 304.592 270.284 305.478 270.587C306.364 270.89 307.171 271.383 307.899 272.064C308.626 272.739 309.205 273.633 309.637 274.746C310.069 275.86 310.285 277.231 310.285 278.86V279.996H296.83V277.678H307.558C307.558 276.693 307.361 275.814 306.967 275.042C306.58 274.269 306.027 273.659 305.308 273.212C304.596 272.765 303.755 272.542 302.785 272.542C301.717 272.542 300.792 272.807 300.012 273.337C299.239 273.86 298.645 274.542 298.228 275.383C297.811 276.224 297.603 277.125 297.603 278.087V279.633C297.603 280.951 297.83 282.068 298.285 282.985C298.747 283.894 299.387 284.587 300.205 285.064C301.024 285.534 301.974 285.769 303.058 285.769C303.762 285.769 304.399 285.671 304.967 285.474C305.542 285.269 306.039 284.966 306.455 284.564C306.872 284.155 307.194 283.648 307.421 283.042L310.012 283.769C309.739 284.648 309.281 285.421 308.637 286.087C307.993 286.746 307.198 287.261 306.251 287.633C305.304 287.996 304.239 288.178 303.058 288.178ZM314.364 287.814V270.36H316.955V272.996H317.137C317.455 272.133 318.031 271.432 318.864 270.894C319.698 270.356 320.637 270.087 321.683 270.087C321.88 270.087 322.126 270.091 322.421 270.099C322.717 270.106 322.94 270.117 323.092 270.133V272.86C323.001 272.837 322.792 272.803 322.467 272.758C322.149 272.705 321.811 272.678 321.455 272.678C320.607 272.678 319.849 272.856 319.183 273.212C318.524 273.561 318.001 274.046 317.614 274.667C317.236 275.28 317.046 275.981 317.046 276.769V287.814H314.364ZM334.989 276.587V279.087H324.808V276.587H334.989ZM157.971 327.178C156.335 327.178 154.926 326.792 153.744 326.019C152.562 325.246 151.653 324.182 151.016 322.826C150.38 321.47 150.062 319.921 150.062 318.178C150.062 316.405 150.388 314.841 151.039 313.485C151.698 312.121 152.615 311.057 153.789 310.292C154.971 309.519 156.35 309.133 157.926 309.133C159.153 309.133 160.259 309.36 161.244 309.814C162.229 310.269 163.035 310.905 163.664 311.724C164.293 312.542 164.683 313.496 164.835 314.587H162.153C161.948 313.792 161.494 313.087 160.789 312.474C160.092 311.852 159.153 311.542 157.971 311.542C156.926 311.542 156.009 311.814 155.221 312.36C154.441 312.898 153.831 313.659 153.391 314.644C152.96 315.621 152.744 316.769 152.744 318.087C152.744 319.436 152.956 320.61 153.38 321.61C153.812 322.61 154.418 323.386 155.198 323.939C155.986 324.492 156.91 324.769 157.971 324.769C158.668 324.769 159.301 324.648 159.869 324.405C160.437 324.163 160.918 323.814 161.312 323.36C161.706 322.905 161.986 322.36 162.153 321.724H164.835C164.683 322.754 164.308 323.682 163.71 324.508C163.119 325.326 162.335 325.977 161.357 326.462C160.388 326.939 159.259 327.178 157.971 327.178ZM171.437 303.542V326.814H168.755V303.542H171.437ZM183.44 327.178C181.864 327.178 180.481 326.803 179.292 326.053C178.11 325.303 177.186 324.254 176.519 322.905C175.86 321.557 175.531 319.981 175.531 318.178C175.531 316.36 175.86 314.773 176.519 313.417C177.186 312.061 178.11 311.008 179.292 310.258C180.481 309.508 181.864 309.133 183.44 309.133C185.015 309.133 186.394 309.508 187.576 310.258C188.766 311.008 189.69 312.061 190.349 313.417C191.015 314.773 191.349 316.36 191.349 318.178C191.349 319.981 191.015 321.557 190.349 322.905C189.69 324.254 188.766 325.303 187.576 326.053C186.394 326.803 185.015 327.178 183.44 327.178ZM183.44 324.769C184.637 324.769 185.622 324.462 186.394 323.849C187.167 323.235 187.739 322.428 188.11 321.428C188.481 320.428 188.667 319.345 188.667 318.178C188.667 317.011 188.481 315.924 188.11 314.917C187.739 313.909 187.167 313.095 186.394 312.474C185.622 311.852 184.637 311.542 183.44 311.542C182.243 311.542 181.258 311.852 180.485 312.474C179.712 313.095 179.14 313.909 178.769 314.917C178.398 315.924 178.212 317.011 178.212 318.178C178.212 319.345 178.398 320.428 178.769 321.428C179.14 322.428 179.712 323.235 180.485 323.849C181.258 324.462 182.243 324.769 183.44 324.769ZM202.533 327.178C200.897 327.178 199.488 326.792 198.306 326.019C197.124 325.246 196.215 324.182 195.579 322.826C194.943 321.47 194.624 319.921 194.624 318.178C194.624 316.405 194.95 314.841 195.602 313.485C196.261 312.121 197.177 311.057 198.352 310.292C199.533 309.519 200.912 309.133 202.488 309.133C203.715 309.133 204.821 309.36 205.806 309.814C206.791 310.269 207.598 310.905 208.227 311.724C208.855 312.542 209.246 313.496 209.397 314.587H206.715C206.511 313.792 206.056 313.087 205.352 312.474C204.655 311.852 203.715 311.542 202.533 311.542C201.488 311.542 200.571 311.814 199.783 312.36C199.003 312.898 198.393 313.659 197.954 314.644C197.522 315.621 197.306 316.769 197.306 318.087C197.306 319.436 197.518 320.61 197.943 321.61C198.374 322.61 198.98 323.386 199.761 323.939C200.549 324.492 201.473 324.769 202.533 324.769C203.23 324.769 203.863 324.648 204.431 324.405C204.999 324.163 205.48 323.814 205.874 323.36C206.268 322.905 206.549 322.36 206.715 321.724H209.397C209.246 322.754 208.871 323.682 208.272 324.508C207.681 325.326 206.897 325.977 205.92 326.462C204.95 326.939 203.821 327.178 202.533 327.178ZM215.818 320.451L215.772 317.133H216.318L223.954 309.36H227.272L219.136 317.587H218.908L215.818 320.451ZM213.318 326.814V303.542H215.999V326.814H213.318ZM224.408 326.814L217.59 318.178L219.499 316.314L227.818 326.814H224.408ZM234.678 326.814L229.36 309.36H232.178L235.951 322.724H236.133L239.86 309.36H242.724L246.406 322.678H246.587L250.36 309.36H253.178L247.86 326.814H245.224L241.406 313.405H241.133L237.315 326.814H234.678ZM256.724 326.814V309.36H259.406V326.814H256.724ZM258.087 306.451C257.565 306.451 257.114 306.273 256.735 305.917C256.364 305.561 256.178 305.133 256.178 304.633C256.178 304.133 256.364 303.705 256.735 303.349C257.114 302.992 257.565 302.814 258.087 302.814C258.61 302.814 259.057 302.992 259.428 303.349C259.807 303.705 259.997 304.133 259.997 304.633C259.997 305.133 259.807 305.561 259.428 305.917C259.057 306.273 258.61 306.451 258.087 306.451ZM276.681 313.269L274.272 313.951C274.121 313.549 273.897 313.159 273.602 312.78C273.314 312.394 272.92 312.076 272.42 311.826C271.92 311.576 271.28 311.451 270.499 311.451C269.431 311.451 268.541 311.697 267.829 312.189C267.124 312.674 266.772 313.292 266.772 314.042C266.772 314.708 267.015 315.235 267.499 315.621C267.984 316.008 268.742 316.33 269.772 316.587L272.363 317.224C273.924 317.602 275.087 318.182 275.852 318.962C276.617 319.735 276.999 320.731 276.999 321.951C276.999 322.951 276.712 323.845 276.136 324.633C275.568 325.421 274.772 326.042 273.749 326.496C272.727 326.951 271.537 327.178 270.181 327.178C268.401 327.178 266.927 326.792 265.761 326.019C264.594 325.246 263.855 324.117 263.545 322.633L266.09 321.996C266.333 322.936 266.791 323.64 267.465 324.11C268.147 324.58 269.037 324.814 270.136 324.814C271.386 324.814 272.378 324.549 273.113 324.019C273.855 323.481 274.227 322.837 274.227 322.087C274.227 321.481 274.015 320.974 273.59 320.564C273.166 320.148 272.515 319.837 271.636 319.633L268.727 318.951C267.128 318.572 265.954 317.985 265.204 317.189C264.462 316.386 264.09 315.383 264.09 314.178C264.09 313.193 264.367 312.322 264.92 311.564C265.48 310.807 266.242 310.212 267.204 309.78C268.174 309.349 269.272 309.133 270.499 309.133C272.227 309.133 273.583 309.511 274.568 310.269C275.56 311.027 276.265 312.027 276.681 313.269ZM288.355 327.178C286.673 327.178 285.222 326.807 284.002 326.064C282.79 325.314 281.855 324.269 281.195 322.928C280.544 321.58 280.218 320.011 280.218 318.224C280.218 316.436 280.544 314.86 281.195 313.496C281.855 312.125 282.771 311.057 283.945 310.292C285.127 309.519 286.506 309.133 288.082 309.133C288.991 309.133 289.889 309.284 290.775 309.587C291.661 309.89 292.468 310.383 293.195 311.064C293.923 311.739 294.502 312.633 294.934 313.746C295.366 314.86 295.582 316.231 295.582 317.86V318.996H282.127V316.678H292.855C292.855 315.693 292.658 314.814 292.264 314.042C291.877 313.269 291.324 312.659 290.605 312.212C289.892 311.765 289.051 311.542 288.082 311.542C287.014 311.542 286.089 311.807 285.309 312.337C284.536 312.86 283.942 313.542 283.525 314.383C283.108 315.224 282.9 316.125 282.9 317.087V318.633C282.9 319.951 283.127 321.068 283.582 321.985C284.044 322.894 284.684 323.587 285.502 324.064C286.32 324.534 287.271 324.769 288.355 324.769C289.059 324.769 289.695 324.671 290.264 324.474C290.839 324.269 291.336 323.966 291.752 323.564C292.169 323.155 292.491 322.648 292.718 322.042L295.309 322.769C295.036 323.648 294.578 324.421 293.934 325.087C293.29 325.746 292.495 326.261 291.548 326.633C290.601 326.996 289.536 327.178 288.355 327.178Z" fill="white"/>
<path d="M449.143 57V20.6364H456.831V35.6399H472.438V20.6364H480.109V57H472.438V41.9787H456.831V57H449.143ZM494.083 57.5149C492.343 57.5149 490.792 57.2131 489.431 56.6094C488.069 55.9938 486.992 55.0883 486.199 53.8928C485.418 52.6854 485.027 51.1821 485.027 49.3828C485.027 47.8677 485.305 46.5952 485.862 45.5653C486.418 44.5355 487.176 43.7069 488.134 43.0795C489.093 42.4522 490.182 41.9787 491.401 41.6591C492.633 41.3395 493.923 41.1146 495.272 40.9844C496.858 40.8187 498.137 40.6648 499.107 40.5227C500.078 40.3688 500.782 40.1439 501.22 39.848C501.658 39.5521 501.877 39.1141 501.877 38.5341V38.4276C501.877 37.303 501.522 36.433 500.812 35.8175C500.114 35.2019 499.119 34.8942 497.829 34.8942C496.468 34.8942 495.385 35.196 494.58 35.7997C493.775 36.3916 493.242 37.1373 492.982 38.0369L485.986 37.4688C486.341 35.8116 487.039 34.3793 488.081 33.1719C489.123 31.9527 490.466 31.0175 492.112 30.3665C493.769 29.7036 495.686 29.3722 497.865 29.3722C499.38 29.3722 500.83 29.5497 502.215 29.9048C503.611 30.2599 504.848 30.8104 505.926 31.5561C507.015 32.3018 507.873 33.2607 508.5 34.4325C509.128 35.5926 509.441 36.9834 509.441 38.6051V57H502.268V53.218H502.055C501.617 54.0703 501.031 54.822 500.297 55.473C499.563 56.1122 498.681 56.6153 497.651 56.9822C496.622 57.3374 495.432 57.5149 494.083 57.5149ZM496.249 52.2947C497.361 52.2947 498.344 52.0758 499.196 51.6378C500.048 51.188 500.717 50.5843 501.203 49.8267C501.688 49.0691 501.931 48.2109 501.931 47.2521V44.358C501.694 44.5118 501.368 44.6539 500.954 44.7841C500.552 44.9025 500.096 45.0149 499.587 45.1214C499.078 45.2161 498.569 45.3049 498.06 45.3878C497.551 45.4588 497.089 45.5239 496.675 45.5831C495.787 45.7133 495.012 45.9205 494.349 46.2045C493.686 46.4886 493.171 46.8733 492.804 47.3587C492.437 47.8321 492.254 48.424 492.254 49.1342C492.254 50.1641 492.627 50.9512 493.372 51.4957C494.13 52.0284 495.089 52.2947 496.249 52.2947ZM515.309 57V29.7273H522.643V34.4858H522.927C523.424 32.7931 524.258 31.5147 525.43 30.6506C526.602 29.7746 527.952 29.3366 529.479 29.3366C529.857 29.3366 530.266 29.3603 530.704 29.4077C531.142 29.455 531.526 29.5201 531.858 29.603V36.3146C531.503 36.2081 531.011 36.1134 530.384 36.0305C529.757 35.9477 529.183 35.9062 528.662 35.9062C527.549 35.9062 526.555 36.1489 525.679 36.6342C524.815 37.1077 524.128 37.7706 523.619 38.6229C523.122 39.4751 522.873 40.4576 522.873 41.5703V57H515.309ZM544.549 57.4439C542.477 57.4439 540.601 56.9112 538.92 55.8459C537.251 54.7687 535.925 53.1884 534.943 51.1051C533.972 49.0099 533.487 46.4413 533.487 43.3991C533.487 40.2741 533.99 37.6759 534.996 35.6044C536.002 33.5211 537.34 31.9645 539.009 30.9347C540.69 29.893 542.53 29.3722 544.531 29.3722C546.058 29.3722 547.33 29.6326 548.348 30.1534C549.378 30.6624 550.207 31.3016 550.834 32.071C551.473 32.8286 551.959 33.5743 552.29 34.3082H552.521V20.6364H560.067V57H552.61V52.6321H552.29C551.935 53.3897 551.432 54.1413 550.781 54.8871C550.142 55.621 549.307 56.2306 548.277 56.7159C547.259 57.2012 546.016 57.4439 544.549 57.4439ZM546.946 51.4247C548.165 51.4247 549.195 51.0933 550.035 50.4304C550.887 49.7557 551.538 48.8146 551.988 47.6072C552.45 46.3999 552.681 44.9853 552.681 43.3636C552.681 41.742 552.456 40.3333 552.006 39.1378C551.556 37.9422 550.905 37.0189 550.053 36.3679C549.201 35.7169 548.165 35.3913 546.946 35.3913C545.703 35.3913 544.655 35.7287 543.803 36.4034C542.951 37.0781 542.306 38.0133 541.868 39.2088C541.43 40.4044 541.211 41.7893 541.211 43.3636C541.211 44.9498 541.43 46.3525 541.868 47.5717C542.317 48.7791 542.962 49.7261 543.803 50.4126C544.655 51.0874 545.703 51.4247 546.946 51.4247ZM590.891 57H578V20.6364H590.998C594.655 20.6364 597.804 21.3643 600.444 22.8203C603.083 24.2644 605.113 26.3419 606.534 29.0526C607.966 31.7633 608.682 35.0066 608.682 38.7827C608.682 42.5705 607.966 45.8258 606.534 48.5483C605.113 51.2708 603.071 53.3601 600.408 54.8161C597.757 56.272 594.584 57 590.891 57ZM585.689 50.4126H590.571C592.844 50.4126 594.756 50.0102 596.306 49.2053C597.869 48.3885 599.041 47.1278 599.822 45.4233C600.615 43.7069 601.012 41.4934 601.012 38.7827C601.012 36.0956 600.615 33.8999 599.822 32.1953C599.041 30.4908 597.875 29.236 596.324 28.4311C594.774 27.6262 592.862 27.2237 590.589 27.2237H585.689V50.4126ZM614.235 57V29.7273H621.799V57H614.235ZM618.035 26.2116C616.91 26.2116 615.946 25.8388 615.141 25.093C614.348 24.3355 613.951 23.4299 613.951 22.3764C613.951 21.3348 614.348 20.4411 615.141 19.6953C615.946 18.9377 616.91 18.5589 618.035 18.5589C619.16 18.5589 620.118 18.9377 620.911 19.6953C621.716 20.4411 622.119 21.3348 622.119 22.3764C622.119 23.4299 621.716 24.3355 620.911 25.093C620.118 25.8388 619.16 26.2116 618.035 26.2116ZM650.55 37.5043L643.625 37.9304C643.507 37.3385 643.252 36.8059 642.862 36.3324C642.471 35.8471 641.956 35.4624 641.317 35.1783C640.69 34.8823 639.938 34.7344 639.062 34.7344C637.89 34.7344 636.902 34.983 636.097 35.4801C635.292 35.9654 634.89 36.6165 634.89 37.4332C634.89 38.0843 635.15 38.6347 635.671 39.0845C636.192 39.5343 637.085 39.8954 638.352 40.1676L643.288 41.1619C645.94 41.7064 647.916 42.5824 649.218 43.7898C650.52 44.9972 651.172 46.5833 651.172 48.5483C651.172 50.3357 650.645 51.9041 649.591 53.2536C648.55 54.603 647.117 55.6565 645.294 56.4141C643.483 57.1598 641.394 57.5327 639.027 57.5327C635.416 57.5327 632.54 56.781 630.397 55.2777C628.267 53.7625 627.018 51.7029 626.651 49.0987L634.091 48.7081C634.315 49.8089 634.86 50.6494 635.724 51.2294C636.588 51.7976 637.695 52.0817 639.044 52.0817C640.37 52.0817 641.435 51.8272 642.24 51.3182C643.057 50.7973 643.471 50.1286 643.483 49.3118C643.471 48.6252 643.181 48.063 642.613 47.625C642.045 47.1752 641.169 46.8319 639.985 46.5952L635.262 45.6541C632.599 45.1214 630.616 44.1982 629.314 42.8842C628.024 41.5703 627.379 39.8954 627.379 37.8594C627.379 36.1075 627.852 34.5982 628.799 33.3317C629.758 32.0651 631.102 31.0885 632.83 30.402C634.57 29.7154 636.606 29.3722 638.938 29.3722C642.382 29.3722 645.093 30.1001 647.07 31.5561C649.059 33.0121 650.219 34.9948 650.55 37.5043ZM662.788 49.152L662.806 40.0788H663.907L672.643 29.7273H681.325L669.589 43.4347H667.795L662.788 49.152ZM655.934 57V20.6364H663.498V57H655.934ZM672.98 57L664.954 45.1214L669.997 39.777L681.84 57H672.98Z" fill="white"/>
<path d="M445.982 66.9432H682V70.3523H445.982V66.9432Z" fill="white"/>
</svg>
