<svg width="1118" height="950" viewBox="0 0 1118 950" fill="none" xmlns="http://www.w3.org/2000/svg">
<path d="M469.017 149.586V145.909H486.338V149.586H479.881V167H475.474V149.586H469.017ZM487.466 167V151.182H491.719V153.942H491.884C492.172 152.96 492.656 152.219 493.336 151.717C494.016 151.209 494.798 150.955 495.684 150.955C495.904 150.955 496.141 150.969 496.395 150.996C496.649 151.024 496.872 151.062 497.064 151.11V155.002C496.858 154.941 496.573 154.886 496.209 154.838C495.845 154.79 495.512 154.766 495.21 154.766C494.565 154.766 493.988 154.906 493.48 155.188C492.979 155.462 492.581 155.847 492.286 156.341C491.997 156.836 491.853 157.405 491.853 158.051V167H487.466ZM503.39 167.299C502.381 167.299 501.481 167.124 500.692 166.773C499.902 166.416 499.277 165.891 498.817 165.198C498.364 164.498 498.138 163.626 498.138 162.582C498.138 161.703 498.299 160.965 498.622 160.368C498.944 159.771 499.384 159.29 499.94 158.926C500.496 158.562 501.128 158.288 501.835 158.102C502.549 157.917 503.297 157.786 504.08 157.711C505 157.615 505.741 157.526 506.304 157.443C506.867 157.354 507.276 157.223 507.53 157.052C507.784 156.88 507.911 156.626 507.911 156.29V156.228C507.911 155.576 507.705 155.071 507.293 154.714C506.888 154.357 506.311 154.179 505.563 154.179C504.773 154.179 504.145 154.354 503.678 154.704C503.211 155.047 502.902 155.48 502.751 156.001L498.694 155.672C498.9 154.711 499.305 153.88 499.909 153.18C500.513 152.473 501.292 151.93 502.247 151.553C503.208 151.168 504.32 150.976 505.583 150.976C506.462 150.976 507.303 151.079 508.106 151.285C508.917 151.491 509.634 151.81 510.259 152.243C510.89 152.675 511.388 153.231 511.752 153.911C512.116 154.584 512.298 155.39 512.298 156.331V167H508.137V164.806H508.014C507.76 165.301 507.42 165.737 506.994 166.114C506.569 166.485 506.057 166.777 505.46 166.99C504.862 167.196 504.172 167.299 503.39 167.299ZM504.646 164.271C505.292 164.271 505.861 164.144 506.356 163.89C506.85 163.629 507.238 163.279 507.519 162.839C507.801 162.4 507.942 161.902 507.942 161.346V159.668C507.804 159.757 507.616 159.839 507.375 159.915C507.142 159.983 506.877 160.049 506.582 160.11C506.287 160.165 505.992 160.217 505.697 160.265C505.401 160.306 505.134 160.344 504.893 160.378C504.378 160.454 503.929 160.574 503.544 160.739C503.16 160.903 502.861 161.127 502.648 161.408C502.435 161.683 502.329 162.026 502.329 162.438C502.329 163.035 502.545 163.492 502.978 163.808C503.417 164.116 503.973 164.271 504.646 164.271ZM522.848 167.309C521.228 167.309 519.834 166.966 518.667 166.279C517.507 165.586 516.615 164.625 515.99 163.396C515.372 162.167 515.063 160.752 515.063 159.153C515.063 157.532 515.375 156.111 516 154.889C516.632 153.66 517.528 152.703 518.688 152.016C519.848 151.323 521.228 150.976 522.828 150.976C524.208 150.976 525.416 151.226 526.453 151.728C527.49 152.229 528.31 152.933 528.914 153.839C529.518 154.745 529.851 155.809 529.913 157.031H525.773C525.656 156.242 525.347 155.607 524.846 155.126C524.352 154.639 523.703 154.395 522.9 154.395C522.22 154.395 521.626 154.58 521.118 154.951C520.617 155.315 520.226 155.847 519.944 156.547C519.663 157.248 519.522 158.095 519.522 159.091C519.522 160.1 519.659 160.958 519.934 161.665C520.215 162.373 520.61 162.912 521.118 163.282C521.626 163.653 522.22 163.838 522.9 163.838C523.401 163.838 523.851 163.735 524.249 163.529C524.654 163.324 524.987 163.025 525.248 162.634C525.516 162.235 525.691 161.758 525.773 161.202H529.913C529.844 162.41 529.515 163.475 528.924 164.395C528.341 165.308 527.534 166.022 526.504 166.537C525.474 167.051 524.256 167.309 522.848 167.309ZM536.697 162.448L536.707 157.186H537.346L542.413 151.182H547.448L540.641 159.132H539.601L536.697 162.448ZM532.722 167V145.909H537.109V167H532.722ZM542.608 167L537.953 160.11L540.878 157.011L547.747 167H542.608ZM574.036 145.909V167H570.185L561.009 153.725H560.854V167H556.395V145.909H560.308L569.412 159.173H569.598V145.909H574.036ZM587.782 160.265V151.182H592.169V167H587.957V164.127H587.792C587.435 165.054 586.841 165.799 586.01 166.362C585.187 166.924 584.181 167.206 582.993 167.206C581.936 167.206 581.005 166.966 580.202 166.485C579.399 166.004 578.771 165.321 578.318 164.436C577.871 163.55 577.645 162.489 577.638 161.254V151.182H582.025V160.471C582.032 161.405 582.282 162.143 582.777 162.685C583.271 163.227 583.934 163.499 584.764 163.499C585.293 163.499 585.787 163.378 586.247 163.138C586.707 162.891 587.078 162.527 587.36 162.047C587.648 161.566 587.789 160.972 587.782 160.265ZM595.678 167V151.182H599.859V153.973H600.044C600.374 153.046 600.923 152.315 601.692 151.779C602.461 151.244 603.381 150.976 604.452 150.976C605.537 150.976 606.46 151.247 607.222 151.789C607.984 152.325 608.492 153.053 608.746 153.973H608.911C609.234 153.066 609.818 152.342 610.662 151.8C611.513 151.25 612.519 150.976 613.679 150.976C615.155 150.976 616.354 151.446 617.273 152.387C618.2 153.32 618.664 154.645 618.664 156.362V167H614.287V157.227C614.287 156.348 614.054 155.689 613.587 155.25C613.12 154.81 612.536 154.591 611.836 154.591C611.04 154.591 610.418 154.845 609.972 155.353C609.526 155.854 609.303 156.516 609.303 157.34V167H605.049V157.134C605.049 156.358 604.826 155.741 604.38 155.281C603.941 154.821 603.36 154.591 602.64 154.591C602.152 154.591 601.713 154.714 601.321 154.961C600.937 155.202 600.631 155.541 600.405 155.981C600.178 156.413 600.065 156.921 600.065 157.505V167H595.678ZM622.212 167V145.909H626.599V153.839H626.732C626.925 153.413 627.203 152.981 627.567 152.541C627.937 152.095 628.418 151.724 629.008 151.429C629.606 151.127 630.347 150.976 631.233 150.976C632.386 150.976 633.45 151.278 634.425 151.882C635.4 152.479 636.179 153.382 636.763 154.591C637.347 155.792 637.638 157.299 637.638 159.112C637.638 160.876 637.353 162.366 636.784 163.581C636.221 164.789 635.452 165.706 634.477 166.331C633.509 166.949 632.424 167.257 631.223 167.257C630.371 167.257 629.647 167.117 629.05 166.835C628.459 166.554 627.975 166.2 627.598 165.775C627.22 165.342 626.932 164.906 626.732 164.467H626.537V167H622.212ZM626.506 159.091C626.506 160.031 626.636 160.852 626.897 161.552C627.158 162.252 627.536 162.798 628.03 163.19C628.524 163.574 629.125 163.766 629.832 163.766C630.546 163.766 631.15 163.571 631.645 163.179C632.139 162.781 632.513 162.232 632.767 161.532C633.028 160.824 633.159 160.011 633.159 159.091C633.159 158.178 633.032 157.375 632.778 156.681C632.524 155.988 632.149 155.445 631.655 155.054C631.161 154.663 630.553 154.467 629.832 154.467C629.118 154.467 628.514 154.656 628.02 155.033C627.532 155.411 627.158 155.946 626.897 156.64C626.636 157.333 626.506 158.15 626.506 159.091ZM647.774 167.309C646.147 167.309 644.747 166.979 643.573 166.32C642.406 165.654 641.506 164.714 640.875 163.499C640.243 162.277 639.927 160.831 639.927 159.163C639.927 157.536 640.243 156.108 640.875 154.879C641.506 153.65 642.395 152.692 643.542 152.006C644.695 151.319 646.048 150.976 647.599 150.976C648.643 150.976 649.614 151.144 650.514 151.48C651.42 151.81 652.21 152.308 652.882 152.974C653.562 153.64 654.091 154.477 654.468 155.487C654.846 156.489 655.035 157.663 655.035 159.009V160.213H641.678V157.495H650.905C650.905 156.863 650.768 156.304 650.493 155.816C650.219 155.329 649.838 154.948 649.35 154.673C648.87 154.391 648.31 154.251 647.671 154.251C647.006 154.251 646.415 154.405 645.9 154.714C645.392 155.016 644.994 155.425 644.706 155.94C644.417 156.448 644.27 157.014 644.263 157.639V160.224C644.263 161.006 644.407 161.683 644.695 162.252C644.99 162.822 645.406 163.262 645.941 163.571C646.477 163.88 647.112 164.034 647.847 164.034C648.334 164.034 648.78 163.965 649.185 163.828C649.59 163.691 649.937 163.485 650.225 163.21C650.514 162.936 650.734 162.599 650.885 162.201L654.942 162.469C654.736 163.444 654.314 164.295 653.675 165.023C653.044 165.744 652.227 166.307 651.224 166.712C650.229 167.11 649.079 167.309 647.774 167.309ZM657.898 167V151.182H662.151V153.942H662.316C662.604 152.96 663.088 152.219 663.768 151.717C664.447 151.209 665.23 150.955 666.116 150.955C666.335 150.955 666.572 150.969 666.826 150.996C667.08 151.024 667.303 151.062 667.496 151.11V155.002C667.29 154.941 667.005 154.886 666.641 154.838C666.277 154.79 665.944 154.766 665.642 154.766C664.997 154.766 664.42 154.906 663.912 155.188C663.411 155.462 663.013 155.847 662.717 156.341C662.429 156.836 662.285 157.405 662.285 158.051V167H657.898Z" fill="#717171"/>
<path d="M467.987 172.767H668V174.744H467.987V172.767Z" fill="#717171"/>
<path d="M23.4545 717.445C25.7545 717.445 27.7112 717.881 29.3246 718.753C30.938 719.618 32.1703 720.799 33.0217 722.295C33.8661 723.785 34.2884 725.46 34.2884 727.321C34.2884 729.195 33.8627 730.877 33.0114 732.367C32.16 733.857 30.9277 735.034 29.3143 735.899C27.7009 736.764 25.7476 737.197 23.4545 737.197C21.1546 737.197 19.1979 736.764 17.5845 735.899C15.9711 735.034 14.7422 733.857 13.8977 732.367C13.0464 730.877 12.6207 729.195 12.6207 727.321C12.6207 725.46 13.0464 723.785 13.8977 722.295C14.7422 720.799 15.9711 719.618 17.5845 718.753C19.1979 717.881 21.1546 717.445 23.4545 717.445ZM23.4545 721.966C21.9647 721.966 20.7083 722.189 19.6854 722.635C18.6624 723.074 17.8866 723.696 17.358 724.499C16.8293 725.302 16.565 726.243 16.565 727.321C16.565 728.399 16.8293 729.339 17.358 730.142C17.8866 730.946 18.6624 731.571 19.6854 732.017C20.7083 732.456 21.9647 732.676 23.4545 732.676C24.9444 732.676 26.2008 732.456 27.2237 732.017C28.2467 731.571 29.0225 730.946 29.5511 730.142C30.0798 729.339 30.3441 728.399 30.3441 727.321C30.3441 726.243 30.0798 725.302 29.5511 724.499C29.0225 723.696 28.2467 723.074 27.2237 722.635C26.2008 722.189 24.9444 721.966 23.4545 721.966ZM34 714.224L18.1818 714.224L18.1818 709.971L20.9418 709.971L20.9418 709.806C19.96 709.518 19.2185 709.034 18.7173 708.354C18.2093 707.674 17.9553 706.892 17.9553 706.006C17.9553 705.786 17.969 705.549 17.9964 705.295C18.0239 705.041 18.0617 704.818 18.1097 704.626L22.0025 704.626C21.9407 704.832 21.8858 705.117 21.8377 705.481C21.7897 705.845 21.7656 706.177 21.7656 706.48C21.7656 707.125 21.9064 707.702 22.1879 708.21C22.4625 708.711 22.8469 709.109 23.3413 709.404C23.8356 709.693 24.4054 709.837 25.0508 709.837L34 709.837L34 714.224ZM34.2575 697.265C34.2575 698.467 33.9485 699.555 33.3306 700.53C32.7058 701.498 31.7893 702.267 30.581 702.837C29.3658 703.4 27.8759 703.681 26.1115 703.681C24.299 703.681 22.792 703.389 21.5906 702.806C20.3822 702.222 19.4794 701.446 18.8821 700.478C18.2779 699.503 17.9758 698.436 17.9758 697.275C17.9758 696.39 18.1269 695.652 18.429 695.061C18.7242 694.464 19.0949 693.983 19.5412 693.62C19.9806 693.249 20.4131 692.967 20.8388 692.775L20.8388 692.641L12.9091 692.641L12.9091 688.264L34 688.264L34 692.59L31.4666 692.59L31.4666 692.775C31.906 692.981 32.342 693.273 32.7745 693.65C33.2002 694.021 33.5537 694.505 33.8352 695.103C34.1167 695.693 34.2575 696.414 34.2575 697.265ZM30.7663 695.875C30.7663 695.168 30.5741 694.57 30.1896 694.083C29.7983 693.589 29.2525 693.211 28.5522 692.95C27.8519 692.682 27.0315 692.549 26.0909 692.549C25.1503 692.549 24.3333 692.679 23.6399 692.94C22.9465 693.201 22.411 693.578 22.0334 694.073C21.6558 694.567 21.467 695.168 21.467 695.875C21.467 696.596 21.6626 697.203 22.054 697.698C22.4453 698.192 22.9877 698.566 23.6811 698.82C24.3745 699.074 25.1778 699.201 26.0909 699.201C27.0109 699.201 27.8245 699.074 28.5316 698.82C29.2319 698.559 29.7811 698.185 30.1793 697.698C30.5707 697.203 30.7663 696.596 30.7663 695.875ZM34.3089 677.449C34.3089 679.076 33.9794 680.476 33.3203 681.65C32.6544 682.818 31.7138 683.717 30.4986 684.349C29.2765 684.98 27.8313 685.296 26.163 685.296C24.5359 685.296 23.1078 684.98 21.8789 684.349C20.65 683.717 19.6922 682.828 19.0057 681.681C18.3191 680.528 17.9758 679.175 17.9758 677.624C17.9758 676.58 18.1441 675.609 18.4805 674.709C18.81 673.803 19.3078 673.014 19.9737 672.341C20.6397 671.661 21.4773 671.132 22.4865 670.755C23.4889 670.377 24.6629 670.188 26.0085 670.188L27.2134 670.188L27.2134 683.545L24.4947 683.545L24.4947 674.318C23.863 674.318 23.3035 674.455 22.816 674.73C22.3286 675.005 21.9476 675.386 21.6729 675.873C21.3914 676.354 21.2507 676.913 21.2507 677.552C21.2507 678.218 21.4052 678.808 21.7141 679.323C22.0162 679.831 22.4247 680.229 22.9396 680.518C23.4477 680.806 24.0141 680.954 24.6388 680.96L27.2237 680.96C28.0064 680.96 28.6826 680.816 29.2525 680.528C29.8223 680.233 30.2617 679.817 30.5707 679.282C30.8796 678.746 31.0341 678.111 31.0341 677.377C31.0341 676.889 30.9654 676.443 30.8281 676.038C30.6908 675.633 30.4848 675.286 30.2102 674.998C29.9356 674.709 29.5992 674.49 29.201 674.339L29.4687 670.281C30.4437 670.487 31.295 670.909 32.0227 671.548C32.7436 672.179 33.3066 672.996 33.7116 673.999C34.1098 674.994 34.3089 676.144 34.3089 677.449ZM34 667.325L18.1818 667.325L18.1818 663.072L20.9418 663.072L20.9418 662.907C19.96 662.619 19.2185 662.135 18.7173 661.455C18.2093 660.776 17.9553 659.993 17.9553 659.107C17.9553 658.888 17.969 658.651 17.9964 658.397C18.0239 658.143 18.0617 657.92 18.1097 657.727L22.0025 657.727C21.9407 657.933 21.8858 658.218 21.8377 658.582C21.7896 658.946 21.7656 659.279 21.7656 659.581C21.7656 660.227 21.9064 660.803 22.1879 661.311C22.4625 661.812 22.8469 662.211 23.3413 662.506C23.8356 662.794 24.4054 662.938 25.0508 662.938L34 662.938L34 667.325ZM34.3089 641.6C34.3089 643.2 33.9691 644.583 33.2894 645.751C32.6029 646.911 31.6486 647.807 30.4265 648.438C29.1976 649.07 27.773 649.386 26.1527 649.386C24.5187 649.386 23.0907 649.07 21.8686 648.438C20.6397 647.807 19.6854 646.911 19.0057 645.751C18.3191 644.583 17.9758 643.2 17.9758 641.6C17.9758 640.001 18.3191 638.621 19.0057 637.46C19.6854 636.293 20.6397 635.394 21.8686 634.762C23.0907 634.131 24.5187 633.815 26.1527 633.815C27.773 633.815 29.1976 634.131 30.4265 634.762C31.6485 635.394 32.6029 636.293 33.2894 637.46C33.9691 638.621 34.3089 640.001 34.3089 641.6ZM30.9105 641.58C30.9105 640.852 30.7045 640.244 30.2926 639.757C29.8738 639.269 29.304 638.902 28.5831 638.655C27.8622 638.401 27.0418 638.274 26.1218 638.274C25.2018 638.274 24.3814 638.401 23.6605 638.655C22.9396 638.902 22.3698 639.269 21.951 639.757C21.5322 640.244 21.3228 640.852 21.3228 641.58C21.3228 642.314 21.5322 642.932 21.951 643.433C22.3698 643.928 22.9396 644.302 23.6605 644.556C24.3814 644.803 25.2018 644.927 26.1218 644.927C27.0418 644.927 27.8622 644.803 28.5831 644.556C29.304 644.302 29.8738 643.928 30.2926 643.433C30.7045 642.932 30.9105 642.314 30.9105 641.58ZM18.1818 622.456L21.4773 622.456L21.4773 632.219L18.1818 632.219L18.1818 622.456ZM34 629.984L17.0387 629.984C15.8922 629.984 14.9413 629.761 14.1861 629.314C13.4309 628.861 12.8645 628.243 12.4869 627.461C12.1092 626.678 11.9204 625.789 11.9204 624.794C11.9204 624.121 11.9719 623.506 12.0749 622.95C12.1779 622.387 12.2706 621.968 12.353 621.694L15.6484 622.476C15.5935 622.648 15.542 622.861 15.494 623.115C15.4459 623.362 15.4219 623.616 15.4219 623.877C15.4219 624.522 15.5729 624.972 15.875 625.226C16.1702 625.48 16.5856 625.607 17.1211 625.607L34 625.607L34 629.984ZM34 612.981L12.9091 612.981L12.9091 604.66C12.9091 603.068 13.194 601.708 13.7638 600.582C14.3268 599.449 15.1266 598.588 16.1633 597.997C17.1932 597.4 18.4049 597.101 19.7986 597.101C21.1992 597.101 22.4041 597.403 23.4133 598.008C24.4157 598.612 25.1847 599.487 25.7202 600.634C26.2557 601.773 26.5234 603.153 26.5234 604.774L26.5234 610.345L22.9396 610.345L22.9396 605.494C22.9396 604.643 22.8229 603.936 22.5895 603.373C22.3561 602.81 22.0059 602.391 21.5391 602.117C21.0722 601.835 20.4921 601.694 19.7986 601.694C19.0984 601.694 18.5079 601.835 18.0273 602.117C17.5467 602.391 17.1829 602.814 16.9357 603.383C16.6817 603.946 16.5547 604.657 16.5547 605.515L16.5547 608.522L34 608.522L34 612.981ZM24.402 601.591L34 596.35L34 601.272L24.402 606.401L24.402 601.591ZM34.3089 587.079C34.3089 588.706 33.9794 590.106 33.3203 591.28C32.6543 592.447 31.7138 593.347 30.4986 593.978C29.2765 594.61 27.8313 594.926 26.163 594.926C24.5359 594.926 23.1078 594.61 21.8789 593.978C20.65 593.347 19.6922 592.458 19.0057 591.311C18.3191 590.158 17.9758 588.805 17.9758 587.254C17.9758 586.21 18.144 585.239 18.4805 584.339C18.81 583.433 19.3078 582.643 19.9737 581.971C20.6397 581.291 21.4773 580.762 22.4865 580.385C23.4889 580.007 24.6629 579.818 26.0085 579.818L27.2134 579.818L27.2134 593.175L24.4947 593.175L24.4947 583.948C23.863 583.948 23.3035 584.085 22.816 584.36C22.3286 584.634 21.9476 585.015 21.6729 585.503C21.3914 585.984 21.2507 586.543 21.2507 587.182C21.2507 587.848 21.4052 588.438 21.7141 588.953C22.0162 589.461 22.4247 589.859 22.9396 590.147C23.4477 590.436 24.0141 590.583 24.6388 590.59L27.2237 590.59C28.0064 590.59 28.6826 590.446 29.2525 590.158C29.8223 589.863 30.2617 589.447 30.5707 588.912C30.8796 588.376 31.0341 587.741 31.0341 587.006C31.0341 586.519 30.9654 586.073 30.8281 585.668C30.6908 585.263 30.4848 584.916 30.2102 584.628C29.9356 584.339 29.5992 584.12 29.201 583.968L29.4687 579.911C30.4436 580.117 31.295 580.539 32.0227 581.178C32.7436 581.809 33.3066 582.626 33.7116 583.629C34.1098 584.624 34.3089 585.774 34.3089 587.079ZM39.9318 566.503L31.4666 566.503L31.4666 566.636C31.906 566.842 32.342 567.134 32.7745 567.512C33.2002 567.883 33.5537 568.367 33.8352 568.964C34.1167 569.554 34.2574 570.275 34.2574 571.127C34.2574 572.328 33.9485 573.416 33.3306 574.391C32.7058 575.359 31.7893 576.128 30.581 576.698C29.3658 577.261 27.8759 577.542 26.1115 577.542C24.299 577.542 22.792 577.251 21.5905 576.667C20.3822 576.083 19.4794 575.308 18.8821 574.34C18.2779 573.365 17.9758 572.297 17.9758 571.137C17.9758 570.251 18.1269 569.513 18.429 568.923C18.7242 568.325 19.0949 567.845 19.5412 567.481C19.9806 567.11 20.4131 566.829 20.8388 566.636L20.8388 566.451L18.1818 566.451L18.1818 562.126L39.9318 562.126L39.9318 566.503ZM30.7663 569.736C30.7663 569.029 30.5741 568.432 30.1896 567.944C29.7983 567.45 29.2525 567.072 28.5522 566.812C27.8519 566.544 27.0315 566.41 26.0909 566.41C25.1503 566.41 24.3333 566.54 23.6399 566.801C22.9465 567.062 22.411 567.44 22.0334 567.934C21.6558 568.428 21.467 569.029 21.467 569.736C21.467 570.457 21.6626 571.065 22.054 571.559C22.4453 572.053 22.9877 572.428 23.6811 572.682C24.3745 572.936 25.1778 573.063 26.0909 573.063C27.0109 573.063 27.8244 572.936 28.5316 572.682C29.2319 572.421 29.7811 572.046 30.1793 571.559C30.5707 571.065 30.7663 570.457 30.7663 569.736ZM27.2649 548.46L18.1818 548.46L18.1818 544.073L34 544.073L34 548.285L31.1268 548.285L31.1268 548.45C32.0536 548.807 32.7985 549.401 33.3615 550.231C33.9245 551.055 34.206 552.061 34.206 553.249C34.206 554.306 33.9657 555.236 33.4851 556.04C33.0045 556.843 32.3214 557.471 31.4357 557.924C30.5501 558.37 29.4893 558.597 28.2535 558.604L18.1818 558.604L18.1818 554.217L27.4709 554.217C28.4046 554.21 29.1426 553.959 29.685 553.465C30.2274 552.971 30.4986 552.308 30.4986 551.477C30.4986 550.949 30.3784 550.454 30.1381 549.994C29.891 549.534 29.5271 549.164 29.0465 548.882C28.5659 548.594 27.9721 548.453 27.2649 548.46ZM34.3089 533.355C34.3089 534.982 33.9794 536.383 33.3203 537.557C32.6543 538.724 31.7138 539.623 30.4986 540.255C29.2765 540.886 27.8313 541.202 26.163 541.202C24.5359 541.202 23.1078 540.886 21.8789 540.255C20.65 539.623 19.6922 538.734 19.0057 537.588C18.3191 536.434 17.9758 535.082 17.9758 533.53C17.9758 532.486 18.144 531.515 18.4805 530.616C18.81 529.709 19.3078 528.92 19.9737 528.247C20.6397 527.567 21.4773 527.039 22.4865 526.661C23.4889 526.283 24.6629 526.095 26.0085 526.095L27.2134 526.095L27.2134 539.452L24.4947 539.452L24.4947 530.224C23.863 530.224 23.3035 530.362 22.816 530.636C22.3286 530.911 21.9476 531.292 21.6729 531.779C21.3914 532.26 21.2507 532.819 21.2507 533.458C21.2507 534.124 21.4052 534.714 21.7141 535.229C22.0162 535.737 22.4247 536.135 22.9396 536.424C23.4477 536.712 24.0141 536.86 24.6388 536.867L27.2237 536.867C28.0064 536.867 28.6826 536.722 29.2525 536.434C29.8223 536.139 30.2617 535.724 30.5707 535.188C30.8796 534.653 31.0341 534.017 31.0341 533.283C31.0341 532.795 30.9654 532.349 30.8281 531.944C30.6908 531.539 30.4848 531.192 30.2102 530.904C29.9356 530.616 29.5992 530.396 29.201 530.245L29.4687 526.187C30.4436 526.393 31.295 526.816 32.0227 527.454C32.7436 528.086 33.3066 528.903 33.7116 529.905C34.1098 530.901 34.3089 532.05 34.3089 533.355ZM22.6925 510.07L22.9396 514.087C22.5963 514.155 22.2874 514.303 22.0128 514.53C21.7313 514.756 21.5082 515.055 21.3434 515.426C21.1717 515.789 21.0859 516.225 21.0859 516.733C21.0859 517.413 21.2301 517.986 21.5185 518.453C21.7999 518.92 22.1775 519.154 22.6513 519.154C23.0289 519.154 23.3481 519.003 23.609 518.7C23.8699 518.398 24.0793 517.88 24.2372 517.145L24.8139 514.282C25.1297 512.745 25.6378 511.598 26.3381 510.843C27.0383 510.088 27.9583 509.71 29.098 509.71C30.1347 509.71 31.0444 510.016 31.827 510.627C32.6097 511.231 33.2208 512.061 33.6601 513.119C34.0927 514.169 34.3089 515.381 34.3089 516.754C34.3089 518.848 33.873 520.516 33.0011 521.759C32.1223 522.995 30.9277 523.719 29.4172 523.932L29.1907 519.617C29.8292 519.487 30.3166 519.171 30.653 518.67C30.9826 518.168 31.1474 517.526 31.1474 516.744C31.1474 515.975 30.9998 515.357 30.7045 514.89C30.4025 514.416 30.0145 514.176 29.5408 514.169C29.1426 514.176 28.8165 514.344 28.5625 514.674C28.3016 515.003 28.1025 515.511 27.9652 516.198L27.4194 518.937C27.1104 520.482 26.5749 521.632 25.8128 522.387C25.0508 523.136 24.0793 523.51 22.8984 523.51C21.8823 523.51 21.007 523.235 20.2724 522.686C19.5377 522.13 18.9713 521.351 18.5731 520.348C18.1749 519.339 17.9758 518.158 17.9758 516.806C17.9758 514.808 18.3981 513.235 19.2425 512.089C20.087 510.936 21.237 510.263 22.6925 510.07ZM18.1818 498.534L21.4773 498.534L21.4773 508.06L18.1818 508.06L18.1818 498.534ZM14.392 505.897L14.392 501.51L29.1392 501.51C29.5443 501.51 29.8601 501.448 30.0866 501.325C30.3063 501.201 30.4608 501.029 30.5501 500.81C30.6393 500.583 30.6839 500.322 30.6839 500.027C30.6839 499.821 30.6668 499.615 30.6324 499.409C30.5913 499.203 30.5604 499.045 30.5398 498.935L33.8043 498.245C33.873 498.465 33.9519 498.774 34.0412 499.172C34.1373 499.571 34.1957 500.055 34.2163 500.624C34.2574 501.682 34.1167 502.609 33.794 503.405C33.4713 504.194 32.9702 504.809 32.2905 505.248C31.6108 505.688 30.7526 505.904 29.7159 505.897L14.392 505.897ZM22.6925 482.713L22.9396 486.729C22.5963 486.798 22.2874 486.946 22.0128 487.172C21.7313 487.399 21.5082 487.697 21.3434 488.068C21.1717 488.432 21.0859 488.868 21.0859 489.376C21.0859 490.056 21.2301 490.629 21.5185 491.096C21.7999 491.563 22.1775 491.796 22.6513 491.796C23.0289 491.796 23.3481 491.645 23.609 491.343C23.8699 491.041 24.0793 490.523 24.2372 489.788L24.8139 486.925C25.1297 485.387 25.6378 484.241 26.3381 483.485C27.0383 482.73 27.9583 482.353 29.098 482.353C30.1347 482.353 31.0444 482.658 31.827 483.269C32.6097 483.873 33.2207 484.704 33.6601 485.761C34.0927 486.812 34.3089 488.024 34.3089 489.397C34.3089 491.491 33.873 493.159 33.0011 494.402C32.1223 495.637 30.9277 496.362 29.4172 496.575L29.1907 492.26C29.8292 492.129 30.3166 491.813 30.653 491.312C30.9826 490.811 31.1474 490.169 31.1474 489.386C31.1474 488.617 30.9998 488 30.7045 487.533C30.4024 487.059 30.0145 486.819 29.5408 486.812C29.1426 486.819 28.8165 486.987 28.5625 487.316C28.3016 487.646 28.1025 488.154 27.9652 488.841L27.4194 491.58C27.1104 493.125 26.5749 494.275 25.8128 495.03C25.0508 495.778 24.0793 496.152 22.8984 496.152C21.8823 496.152 21.007 495.878 20.2724 495.328C19.5377 494.772 18.9713 493.993 18.5731 492.991C18.1749 491.982 17.9758 490.801 17.9758 489.448C17.9758 487.45 18.3981 485.878 19.2425 484.732C20.087 483.578 21.237 482.905 22.6925 482.713Z" fill="#717171"/>
<path d="M41.25 738.659L41.25 481.333L43.2273 481.333L43.2273 738.659L41.25 738.659Z" fill="#717171"/>
<path d="M65 210.318C63.2879 210.318 61.8295 209.852 60.625 208.92C59.4205 207.981 58.5 206.621 57.8636 204.841C57.2273 203.053 56.9091 200.894 56.9091 198.364C56.9091 195.848 57.2273 193.701 57.8636 191.92C58.5076 190.133 59.4318 188.769 60.6364 187.83C61.8485 186.883 63.303 186.409 65 186.409C66.697 186.409 68.1477 186.883 69.3523 187.83C70.5644 188.769 71.4886 190.133 72.125 191.92C72.7689 193.701 73.0909 195.848 73.0909 198.364C73.0909 200.894 72.7727 203.053 72.1364 204.841C71.5 206.621 70.5795 207.981 69.375 208.92C68.1705 209.852 66.7121 210.318 65 210.318ZM65 207.818C66.697 207.818 68.0152 207 68.9545 205.364C69.8939 203.727 70.3636 201.394 70.3636 198.364C70.3636 196.348 70.1477 194.633 69.7159 193.216C69.2917 191.799 68.678 190.72 67.875 189.977C67.0795 189.235 66.1212 188.864 65 188.864C63.3182 188.864 62.0038 189.693 61.0568 191.352C60.1098 193.004 59.6364 195.341 59.6364 198.364C59.6364 200.379 59.8485 202.091 60.2727 203.5C60.697 204.909 61.3068 205.981 62.1023 206.716C62.9053 207.451 63.8712 207.818 65 207.818Z" fill="white"/>
<path d="M266.02 216V198.545H268.134V206.318H277.44V198.545H279.554V216H277.44V208.193H268.134V216H266.02ZM289.001 216.273C287.74 216.273 286.652 215.994 285.737 215.438C284.828 214.875 284.126 214.091 283.632 213.085C283.143 212.074 282.899 210.898 282.899 209.557C282.899 208.216 283.143 207.034 283.632 206.011C284.126 204.983 284.814 204.182 285.695 203.608C286.581 203.028 287.615 202.739 288.797 202.739C289.479 202.739 290.152 202.852 290.817 203.08C291.482 203.307 292.087 203.676 292.632 204.188C293.178 204.693 293.612 205.364 293.936 206.199C294.26 207.034 294.422 208.062 294.422 209.284V210.136H284.331V208.398H292.376C292.376 207.659 292.229 207 291.933 206.42C291.643 205.841 291.229 205.384 290.689 205.048C290.155 204.713 289.524 204.545 288.797 204.545C287.996 204.545 287.303 204.744 286.717 205.142C286.138 205.534 285.692 206.045 285.379 206.676C285.067 207.307 284.911 207.983 284.911 208.705V209.864C284.911 210.852 285.081 211.69 285.422 212.378C285.768 213.06 286.249 213.58 286.862 213.938C287.476 214.29 288.189 214.466 289.001 214.466C289.53 214.466 290.007 214.392 290.433 214.244C290.865 214.091 291.237 213.864 291.55 213.562C291.862 213.256 292.104 212.875 292.274 212.42L294.217 212.966C294.013 213.625 293.669 214.205 293.186 214.705C292.703 215.199 292.107 215.585 291.396 215.864C290.686 216.136 289.888 216.273 289.001 216.273ZM301.334 216.307C300.504 216.307 299.751 216.151 299.075 215.838C298.399 215.52 297.862 215.062 297.464 214.466C297.067 213.864 296.868 213.136 296.868 212.284C296.868 211.534 297.016 210.926 297.311 210.46C297.607 209.989 298.001 209.619 298.496 209.352C298.99 209.085 299.536 208.886 300.132 208.756C300.734 208.619 301.339 208.511 301.947 208.432C302.743 208.33 303.388 208.253 303.882 208.202C304.382 208.145 304.746 208.051 304.973 207.92C305.206 207.79 305.322 207.562 305.322 207.239V207.17C305.322 206.33 305.092 205.676 304.632 205.21C304.178 204.744 303.487 204.511 302.561 204.511C301.601 204.511 300.848 204.722 300.303 205.142C299.757 205.562 299.374 206.011 299.152 206.489L297.243 205.807C297.584 205.011 298.038 204.392 298.607 203.949C299.18 203.5 299.805 203.187 300.482 203.011C301.163 202.83 301.834 202.739 302.493 202.739C302.913 202.739 303.396 202.79 303.942 202.892C304.493 202.989 305.024 203.19 305.536 203.497C306.053 203.804 306.482 204.267 306.822 204.886C307.163 205.506 307.334 206.335 307.334 207.375V216H305.322V214.227H305.22C305.084 214.511 304.857 214.815 304.538 215.139C304.22 215.463 303.797 215.739 303.268 215.966C302.74 216.193 302.095 216.307 301.334 216.307ZM301.641 214.5C302.436 214.5 303.107 214.344 303.652 214.031C304.203 213.719 304.618 213.315 304.896 212.821C305.18 212.327 305.322 211.807 305.322 211.261V209.42C305.237 209.523 305.05 209.616 304.76 209.702C304.476 209.781 304.146 209.852 303.771 209.915C303.402 209.972 303.041 210.023 302.689 210.068C302.342 210.108 302.061 210.142 301.845 210.17C301.322 210.239 300.834 210.349 300.379 210.503C299.93 210.651 299.567 210.875 299.288 211.176C299.016 211.472 298.879 211.875 298.879 212.386C298.879 213.085 299.138 213.614 299.655 213.972C300.178 214.324 300.839 214.5 301.641 214.5ZM315.948 216.273C314.857 216.273 313.894 215.997 313.059 215.446C312.224 214.889 311.57 214.105 311.099 213.094C310.627 212.077 310.391 210.875 310.391 209.489C310.391 208.114 310.627 206.92 311.099 205.909C311.57 204.898 312.227 204.116 313.067 203.565C313.908 203.014 314.88 202.739 315.982 202.739C316.835 202.739 317.508 202.881 318.002 203.165C318.502 203.443 318.883 203.761 319.144 204.119C319.411 204.472 319.619 204.761 319.766 204.989H319.937V198.545H321.948V216H320.005V213.989H319.766C319.619 214.227 319.408 214.528 319.136 214.892C318.863 215.25 318.474 215.571 317.968 215.855C317.462 216.134 316.789 216.273 315.948 216.273ZM316.221 214.466C317.028 214.466 317.71 214.256 318.266 213.835C318.823 213.409 319.246 212.821 319.536 212.071C319.826 211.315 319.971 210.443 319.971 209.455C319.971 208.477 319.829 207.622 319.545 206.889C319.261 206.151 318.84 205.577 318.283 205.168C317.727 204.753 317.039 204.545 316.221 204.545C315.369 204.545 314.658 204.764 314.09 205.202C313.528 205.634 313.104 206.222 312.82 206.966C312.542 207.705 312.403 208.534 312.403 209.455C312.403 210.386 312.545 211.233 312.829 211.994C313.119 212.75 313.545 213.352 314.107 213.801C314.675 214.244 315.38 214.466 316.221 214.466ZM333.377 207.273C333.377 205.125 333.656 203.151 334.212 201.349C334.775 199.543 335.576 197.881 336.616 196.364H338.388C337.979 196.926 337.596 197.619 337.238 198.443C336.886 199.261 336.576 200.162 336.309 201.145C336.042 202.122 335.832 203.134 335.678 204.179C335.531 205.224 335.457 206.256 335.457 207.273C335.457 208.625 335.587 209.997 335.849 211.389C336.11 212.781 336.462 214.074 336.906 215.267C337.349 216.46 337.843 217.432 338.388 218.182H336.616C335.576 216.665 334.775 215.006 334.212 213.205C333.656 211.398 333.377 209.42 333.377 207.273ZM346.777 216.239C345.777 216.239 344.876 216.04 344.075 215.642C343.274 215.244 342.632 214.699 342.149 214.006C341.666 213.312 341.402 212.523 341.357 211.636H343.402C343.482 212.426 343.839 213.08 344.476 213.597C345.118 214.108 345.885 214.364 346.777 214.364C347.493 214.364 348.129 214.196 348.686 213.861C349.249 213.526 349.689 213.065 350.007 212.48C350.331 211.889 350.493 211.222 350.493 210.477C350.493 209.716 350.325 209.037 349.99 208.44C349.661 207.838 349.206 207.364 348.626 207.017C348.047 206.67 347.385 206.494 346.641 206.489C346.107 206.483 345.558 206.565 344.996 206.736C344.433 206.901 343.97 207.114 343.607 207.375L341.629 207.136L342.686 198.545H351.754V200.42H344.459L343.845 205.568H343.947C344.305 205.284 344.754 205.048 345.294 204.861C345.834 204.673 346.396 204.58 346.982 204.58C348.05 204.58 349.001 204.835 349.837 205.347C350.678 205.852 351.337 206.545 351.814 207.426C352.297 208.307 352.538 209.312 352.538 210.443C352.538 211.557 352.288 212.551 351.788 213.426C351.294 214.295 350.612 214.983 349.743 215.489C348.874 215.989 347.885 216.239 346.777 216.239ZM361.822 216.239C360.697 216.239 359.694 216.045 358.813 215.659C357.938 215.273 357.242 214.736 356.725 214.048C356.214 213.355 355.935 212.551 355.89 211.636H358.038C358.083 212.199 358.276 212.685 358.617 213.094C358.958 213.497 359.404 213.81 359.955 214.031C360.506 214.253 361.117 214.364 361.788 214.364C362.538 214.364 363.202 214.233 363.782 213.972C364.362 213.71 364.816 213.347 365.146 212.881C365.475 212.415 365.64 211.875 365.64 211.261C365.64 210.619 365.481 210.054 365.163 209.565C364.844 209.071 364.379 208.685 363.765 208.406C363.151 208.128 362.401 207.989 361.515 207.989H360.117V206.114H361.515C362.208 206.114 362.816 205.989 363.339 205.739C363.867 205.489 364.279 205.136 364.575 204.682C364.876 204.227 365.026 203.693 365.026 203.08C365.026 202.489 364.896 201.974 364.634 201.537C364.373 201.099 364.004 200.759 363.526 200.514C363.055 200.27 362.498 200.148 361.856 200.148C361.254 200.148 360.685 200.259 360.151 200.48C359.623 200.696 359.191 201.011 358.856 201.426C358.521 201.835 358.339 202.33 358.31 202.909H356.265C356.299 201.994 356.575 201.193 357.092 200.506C357.609 199.812 358.285 199.273 359.12 198.886C359.961 198.5 360.884 198.307 361.89 198.307C362.969 198.307 363.896 198.526 364.668 198.963C365.441 199.395 366.035 199.966 366.45 200.676C366.864 201.386 367.072 202.153 367.072 202.977C367.072 203.96 366.813 204.798 366.296 205.491C365.785 206.185 365.089 206.665 364.208 206.932V207.068C365.31 207.25 366.171 207.719 366.79 208.474C367.41 209.224 367.719 210.153 367.719 211.261C367.719 212.21 367.461 213.062 366.944 213.818C366.433 214.568 365.734 215.159 364.847 215.591C363.961 216.023 362.952 216.239 361.822 216.239ZM375.535 207.273C375.535 209.42 375.254 211.398 374.691 213.205C374.134 215.006 373.336 216.665 372.296 218.182H370.523C370.933 217.619 371.313 216.926 371.665 216.102C372.023 215.284 372.336 214.386 372.603 213.409C372.87 212.426 373.077 211.412 373.225 210.366C373.379 209.315 373.455 208.284 373.455 207.273C373.455 205.92 373.325 204.548 373.063 203.156C372.802 201.764 372.45 200.472 372.006 199.278C371.563 198.085 371.069 197.114 370.523 196.364H372.296C373.336 197.881 374.134 199.543 374.691 201.349C375.254 203.151 375.535 205.125 375.535 207.273Z" fill="white"/>
<path d="M1053.18 186.727V210H1050.37V189.682H1050.23L1044.55 193.455V190.591L1050.37 186.727H1053.18ZM1067.29 186.409C1068.24 186.417 1069.2 186.598 1070.15 186.955C1071.11 187.311 1071.98 187.902 1072.76 188.727C1073.55 189.545 1074.18 190.663 1074.66 192.08C1075.14 193.496 1075.38 195.273 1075.38 197.409C1075.38 199.477 1075.18 201.314 1074.79 202.92C1074.4 204.519 1073.84 205.867 1073.11 206.966C1072.38 208.064 1071.49 208.898 1070.45 209.466C1069.41 210.034 1068.23 210.318 1066.92 210.318C1065.62 210.318 1064.46 210.061 1063.43 209.545C1062.42 209.023 1061.59 208.299 1060.93 207.375C1060.29 206.443 1059.88 205.364 1059.7 204.136H1062.47C1062.72 205.205 1063.21 206.087 1063.96 206.784C1064.71 207.473 1065.7 207.818 1066.92 207.818C1068.72 207.818 1070.14 207.034 1071.17 205.466C1072.22 203.898 1072.74 201.682 1072.74 198.818H1072.56C1072.14 199.455 1071.63 200.004 1071.05 200.466C1070.46 200.928 1069.82 201.284 1069.11 201.534C1068.39 201.784 1067.64 201.909 1066.83 201.909C1065.5 201.909 1064.28 201.58 1063.16 200.92C1062.06 200.254 1061.17 199.341 1060.5 198.182C1059.84 197.015 1059.51 195.682 1059.51 194.182C1059.51 192.758 1059.83 191.455 1060.47 190.273C1061.11 189.083 1062.01 188.136 1063.17 187.432C1064.34 186.727 1065.71 186.386 1067.29 186.409ZM1067.29 188.909C1066.33 188.909 1065.47 189.148 1064.71 189.625C1063.95 190.095 1063.35 190.731 1062.9 191.534C1062.46 192.33 1062.24 193.212 1062.24 194.182C1062.24 195.152 1062.45 196.034 1062.88 196.83C1063.31 197.617 1063.9 198.246 1064.64 198.716C1065.39 199.178 1066.24 199.409 1067.2 199.409C1067.92 199.409 1068.59 199.269 1069.21 198.989C1069.83 198.701 1070.37 198.311 1070.83 197.818C1071.3 197.318 1071.67 196.754 1071.93 196.125C1072.2 195.489 1072.33 194.826 1072.33 194.136C1072.33 193.227 1072.11 192.375 1071.67 191.58C1071.24 190.784 1070.64 190.14 1069.88 189.648C1069.12 189.155 1068.26 188.909 1067.29 188.909ZM1087.26 186.409C1088.21 186.417 1089.16 186.598 1090.12 186.955C1091.07 187.311 1091.95 187.902 1092.73 188.727C1093.52 189.545 1094.15 190.663 1094.63 192.08C1095.11 193.496 1095.35 195.273 1095.35 197.409C1095.35 199.477 1095.15 201.314 1094.76 202.92C1094.37 204.519 1093.81 205.867 1093.07 206.966C1092.35 208.064 1091.46 208.898 1090.41 209.466C1089.38 210.034 1088.2 210.318 1086.89 210.318C1085.59 210.318 1084.43 210.061 1083.4 209.545C1082.39 209.023 1081.55 208.299 1080.9 207.375C1080.26 206.443 1079.85 205.364 1079.66 204.136H1082.44C1082.69 205.205 1083.18 206.087 1083.93 206.784C1084.68 207.473 1085.66 207.818 1086.89 207.818C1088.69 207.818 1090.1 207.034 1091.14 205.466C1092.19 203.898 1092.71 201.682 1092.71 198.818H1092.53C1092.1 199.455 1091.6 200.004 1091.02 200.466C1090.43 200.928 1089.79 201.284 1089.07 201.534C1088.36 201.784 1087.6 201.909 1086.8 201.909C1085.47 201.909 1084.24 201.58 1083.13 200.92C1082.02 200.254 1081.14 199.341 1080.47 198.182C1079.81 197.015 1079.48 195.682 1079.48 194.182C1079.48 192.758 1079.8 191.455 1080.44 190.273C1081.08 189.083 1081.98 188.136 1083.14 187.432C1084.31 186.727 1085.68 186.386 1087.26 186.409ZM1087.26 188.909C1086.3 188.909 1085.44 189.148 1084.68 189.625C1083.92 190.095 1083.32 190.731 1082.87 191.534C1082.43 192.33 1082.21 193.212 1082.21 194.182C1082.21 195.152 1082.42 196.034 1082.85 196.83C1083.28 197.617 1083.87 198.246 1084.61 198.716C1085.36 199.178 1086.21 199.409 1087.16 199.409C1087.88 199.409 1088.55 199.269 1089.18 198.989C1089.8 198.701 1090.34 198.311 1090.8 197.818C1091.27 197.318 1091.64 196.754 1091.9 196.125C1092.17 195.489 1092.3 194.826 1092.3 194.136C1092.3 193.227 1092.08 192.375 1091.64 191.58C1091.21 190.784 1090.61 190.14 1089.85 189.648C1089.09 189.155 1088.23 188.909 1087.26 188.909Z" fill="white"/>
<mask id="path-6-inside-1_228_60" fill="white">
<path d="M65 270H1070V950H65V270Z"/>
</mask>
<path d="M65 270H1070V950H65V270Z" fill="#292929"/>
<path d="M1070 950V951H1071V950H1070ZM65 950H64V951H65V950ZM1070 270H1069V950H1070H1071V270H1070ZM1070 950V949H65V950V951H1070V950ZM65 950H66V270H65H64V950H65Z" fill="#717171" mask="url(#path-6-inside-1_228_60)"/>
<line x1="65" y1="269.5" x2="1070" y2="269.5" stroke="white"/>
<line x1="65.5" y1="236" x2="65.5" y2="304" stroke="white"/>
<line x1="111.5" y1="252" x2="111.5" y2="288" stroke="white"/>
<line x1="226.5" y1="252" x2="226.5" y2="288" stroke="white"/>
<line x1="390.5" y1="252" x2="390.5" y2="288" stroke="white"/>
<line x1="401.5" y1="252" x2="401.5" y2="288" stroke="white"/>
<line x1="161.5" y1="270" x2="161.5" y2="950" stroke="#3E3E3E"/>
<line x1="321.5" y1="236" x2="321.5" y2="304" stroke="white"/>
<line x1="262.5" y1="270" x2="262.5" y2="950" stroke="#3E3E3E"/>
<line x1="363.5" y1="270" x2="363.5" y2="950" stroke="#3E3E3E"/>
<line x1="552.5" y1="252" x2="552.5" y2="288" stroke="white"/>
<line x1="464.5" y1="270" x2="464.5" y2="950" stroke="#3E3E3E"/>
<line x1="678.5" y1="252" x2="678.5" y2="288" stroke="white"/>
<line x1="565.5" y1="270" x2="565.5" y2="950" stroke="#3E3E3E"/>
<line x1="685.5" y1="252" x2="685.5" y2="288" stroke="white"/>
<line x1="666.5" y1="270" x2="666.5" y2="950" stroke="#3E3E3E"/>
<line x1="767.5" y1="270" x2="767.5" y2="950" stroke="#3E3E3E"/>
<line x1="868.5" y1="270" x2="868.5" y2="950" stroke="#3E3E3E"/>
<line x1="987.5" y1="252" x2="987.5" y2="288" stroke="white"/>
<line x1="969.5" y1="270" x2="969.5" y2="950" stroke="#3E3E3E"/>
<line x1="1070.5" y1="236" x2="1070.5" y2="304" stroke="white"/>
<path d="M438.836 25.3842C438.739 24.4103 438.325 23.6536 437.592 23.1143C436.86 22.575 435.866 22.3054 434.61 22.3054C433.757 22.3054 433.036 22.4261 432.449 22.6676C431.861 22.901 431.41 23.227 431.096 23.6456C430.79 24.0642 430.638 24.5391 430.638 25.0703C430.621 25.513 430.714 25.8994 430.915 26.2294C431.124 26.5594 431.41 26.8452 431.772 27.0866C432.135 27.3201 432.553 27.5253 433.028 27.7024C433.503 27.8714 434.01 28.0163 434.549 28.1371L436.771 28.6683C437.85 28.9098 438.84 29.2318 439.741 29.6342C440.643 30.0367 441.424 30.5317 442.084 31.1193C442.744 31.7069 443.255 32.3991 443.617 33.196C443.987 33.9929 444.176 34.9065 444.184 35.9368C444.176 37.45 443.79 38.7621 443.025 39.8729C442.269 40.9756 441.174 41.8329 439.741 42.4446C438.316 43.0483 436.598 43.3501 434.586 43.3501C432.589 43.3501 430.851 43.0443 429.37 42.4325C427.897 41.8208 426.746 40.9152 425.917 39.7159C425.096 38.5085 424.665 37.0154 424.625 35.2365H429.684C429.74 36.0656 429.977 36.7578 430.396 37.3132C430.823 37.8606 431.39 38.2751 432.098 38.5568C432.815 38.8305 433.624 38.9673 434.525 38.9673C435.411 38.9673 436.179 38.8385 436.831 38.581C437.491 38.3234 438.003 37.9652 438.365 37.5064C438.727 37.0476 438.908 36.5204 438.908 35.9247C438.908 35.3693 438.743 34.9025 438.413 34.5241C438.091 34.1458 437.616 33.8239 436.988 33.5582C436.369 33.2926 435.608 33.0511 434.706 32.8338L432.014 32.1577C429.929 31.6506 428.283 30.8577 427.076 29.7791C425.868 28.7005 425.269 27.2476 425.277 25.4205C425.269 23.9233 425.667 22.6153 426.472 21.4964C427.285 20.3776 428.4 19.5043 429.816 18.8764C431.233 18.2486 432.843 17.9347 434.646 17.9347C436.481 17.9347 438.083 18.2486 439.451 18.8764C440.828 19.5043 441.898 20.3776 442.663 21.4964C443.428 22.6153 443.822 23.9112 443.846 25.3842H438.836ZM456.056 43.3622C454.148 43.3622 452.506 42.9759 451.13 42.2031C449.762 41.4223 448.707 40.3196 447.967 38.8949C447.226 37.4621 446.856 35.7678 446.856 33.8118C446.856 31.9041 447.226 30.2299 447.967 28.7891C448.707 27.3482 449.749 26.2254 451.094 25.4205C452.446 24.6155 454.032 24.2131 455.851 24.2131C457.074 24.2131 458.213 24.4103 459.268 24.8047C460.33 25.1911 461.256 25.7746 462.045 26.5554C462.842 27.3362 463.461 28.3182 463.904 29.5014C464.347 30.6766 464.568 32.053 464.568 33.6307V35.0433H448.908V31.8558H459.726C459.726 31.1153 459.565 30.4593 459.244 29.8878C458.922 29.3163 458.475 28.8696 457.903 28.5476C457.34 28.2176 456.684 28.0526 455.935 28.0526C455.155 28.0526 454.462 28.2337 453.859 28.5959C453.263 28.95 452.796 29.429 452.458 30.0327C452.12 30.6283 451.947 31.2924 451.939 32.0249V35.0554C451.939 35.973 452.108 36.7659 452.446 37.4339C452.792 38.102 453.279 38.6172 453.907 38.9794C454.535 39.3416 455.279 39.5227 456.141 39.5227C456.712 39.5227 457.235 39.4422 457.71 39.2812C458.185 39.1203 458.592 38.8788 458.93 38.5568C459.268 38.2348 459.525 37.8404 459.702 37.3736L464.459 37.6875C464.218 38.8305 463.723 39.8286 462.974 40.6818C462.234 41.527 461.276 42.187 460.101 42.6619C458.934 43.1288 457.585 43.3622 456.056 43.3622ZM476.376 43.3622C474.469 43.3622 472.827 42.9759 471.45 42.2031C470.082 41.4223 469.027 40.3196 468.287 38.8949C467.546 37.4621 467.176 35.7678 467.176 33.8118C467.176 31.9041 467.546 30.2299 468.287 28.7891C469.027 27.3482 470.07 26.2254 471.414 25.4205C472.766 24.6155 474.352 24.2131 476.171 24.2131C477.395 24.2131 478.534 24.4103 479.588 24.8047C480.65 25.1911 481.576 25.7746 482.365 26.5554C483.162 27.3362 483.782 28.3182 484.224 29.5014C484.667 30.6766 484.888 32.053 484.888 33.6307V35.0433H469.229V31.8558H480.047C480.047 31.1153 479.886 30.4593 479.564 29.8878C479.242 29.3163 478.795 28.8696 478.224 28.5476C477.66 28.2176 477.004 28.0526 476.256 28.0526C475.475 28.0526 474.783 28.2337 474.179 28.5959C473.583 28.95 473.116 29.429 472.778 30.0327C472.44 30.6283 472.267 31.2924 472.259 32.0249V35.0554C472.259 35.973 472.428 36.7659 472.766 37.4339C473.112 38.102 473.599 38.6172 474.227 38.9794C474.855 39.3416 475.6 39.5227 476.461 39.5227C477.032 39.5227 477.556 39.4422 478.03 39.2812C478.505 39.1203 478.912 38.8788 479.25 38.5568C479.588 38.2348 479.846 37.8404 480.023 37.3736L484.78 37.6875C484.538 38.8305 484.043 39.8286 483.295 40.6818C482.554 41.527 481.596 42.187 480.421 42.6619C479.254 43.1288 477.906 43.3622 476.376 43.3622ZM492.905 37.6634L492.918 31.4936H493.666L499.606 24.4545H505.511L497.53 33.7756H496.31L492.905 37.6634ZM488.245 43V18.2727H493.388V43H488.245ZM499.836 43L494.378 34.9226L497.807 31.2884L505.861 43H499.836ZM515.058 22.5831V18.2727H535.366V22.5831H527.796V43H522.628V22.5831H515.058ZM538.614 43V24.4545H543.758V43H538.614ZM541.198 22.0639C540.433 22.0639 539.777 21.8104 539.23 21.3033C538.691 20.7881 538.421 20.1723 538.421 19.456C538.421 18.7476 538.691 18.1399 539.23 17.6328C539.777 17.1177 540.433 16.8601 541.198 16.8601C541.963 16.8601 542.615 17.1177 543.154 17.6328C543.701 18.1399 543.975 18.7476 543.975 19.456C543.975 20.1723 543.701 20.7881 543.154 21.3033C542.615 21.8104 541.963 22.0639 541.198 22.0639ZM547.878 43V24.4545H552.78V27.7266H552.997C553.383 26.6399 554.027 25.7827 554.929 25.1548C555.83 24.527 556.909 24.2131 558.165 24.2131C559.436 24.2131 560.519 24.531 561.413 25.1669C562.306 25.7947 562.902 26.648 563.199 27.7266H563.393C563.771 26.6641 564.455 25.8149 565.445 25.179C566.443 24.535 567.623 24.2131 568.983 24.2131C570.713 24.2131 572.118 24.7644 573.197 25.8672C574.283 26.9619 574.827 28.5154 574.827 30.5277V43H569.695V31.5419C569.695 30.5116 569.422 29.7389 568.874 29.2237C568.327 28.7086 567.643 28.451 566.822 28.451C565.888 28.451 565.159 28.7488 564.636 29.3445C564.113 29.9321 563.851 30.7088 563.851 31.6747V43H558.865V31.4332C558.865 30.5237 558.603 29.7992 558.08 29.2599C557.565 28.7206 556.885 28.451 556.04 28.451C555.468 28.451 554.953 28.5959 554.494 28.8857C554.043 29.1674 553.685 29.5658 553.42 30.081C553.154 30.5881 553.021 31.1837 553.021 31.8679V43H547.878ZM587.341 43.3622C585.434 43.3622 583.791 42.9759 582.415 42.2031C581.047 41.4223 579.992 40.3196 579.252 38.8949C578.511 37.4621 578.141 35.7678 578.141 33.8118C578.141 31.9041 578.511 30.2299 579.252 28.7891C579.992 27.3482 581.035 26.2254 582.379 25.4205C583.731 24.6155 585.317 24.2131 587.136 24.2131C588.359 24.2131 589.498 24.4103 590.553 24.8047C591.615 25.1911 592.541 25.7746 593.33 26.5554C594.127 27.3362 594.746 28.3182 595.189 29.5014C595.632 30.6766 595.853 32.053 595.853 33.6307V35.0433H580.193V31.8558H591.012C591.012 31.1153 590.851 30.4593 590.529 29.8878C590.207 29.3163 589.76 28.8696 589.188 28.5476C588.625 28.2176 587.969 28.0526 587.22 28.0526C586.44 28.0526 585.747 28.2337 585.144 28.5959C584.548 28.95 584.081 29.429 583.743 30.0327C583.405 30.6283 583.232 31.2924 583.224 32.0249V35.0554C583.224 35.973 583.393 36.7659 583.731 37.4339C584.077 38.102 584.564 38.6172 585.192 38.9794C585.82 39.3416 586.564 39.5227 587.426 39.5227C587.997 39.5227 588.52 39.4422 588.995 39.2812C589.47 39.1203 589.877 38.8788 590.215 38.5568C590.553 38.2348 590.81 37.8404 590.987 37.3736L595.745 37.6875C595.503 38.8305 595.008 39.8286 594.26 40.6818C593.519 41.527 592.561 42.187 591.386 42.6619C590.219 43.1288 588.871 43.3622 587.341 43.3622ZM623.572 26.2656C623.403 25.678 623.165 25.1589 622.859 24.7081C622.554 24.2493 622.179 23.8629 621.737 23.549C621.302 23.227 620.803 22.9815 620.239 22.8125C619.684 22.6435 619.068 22.5589 618.392 22.5589C617.128 22.5589 616.018 22.8729 615.06 23.5007C614.11 24.1286 613.369 25.0421 612.838 26.2415C612.307 27.4328 612.041 28.8897 612.041 30.6122C612.041 32.3348 612.303 33.7997 612.826 35.0071C613.349 36.2145 614.09 37.1361 615.048 37.772C616.006 38.3999 617.136 38.7138 618.44 38.7138C619.624 38.7138 620.634 38.5045 621.471 38.0859C622.316 37.6593 622.96 37.0597 623.403 36.2869C623.854 35.5142 624.079 34.6006 624.079 33.5462L625.141 33.7031H618.766V29.767H629.114V32.8821C629.114 35.0554 628.655 36.9228 627.737 38.4844C626.82 40.0379 625.556 41.2372 623.946 42.0824C622.336 42.9195 620.493 43.3381 618.416 43.3381C616.098 43.3381 614.062 42.8269 612.307 41.8047C610.552 40.7744 609.184 39.3134 608.202 37.4219C607.228 35.5223 606.741 33.2685 606.741 30.6605C606.741 28.6562 607.031 26.8693 607.61 25.2997C608.198 23.7221 609.019 22.3859 610.073 21.2912C611.128 20.1965 612.355 19.3634 613.756 18.7919C615.156 18.2204 616.674 17.9347 618.308 17.9347C619.708 17.9347 621.012 18.1399 622.22 18.5504C623.427 18.9529 624.497 19.5244 625.431 20.2649C626.373 21.0054 627.142 21.8868 627.737 22.9091C628.333 23.9233 628.715 25.0421 628.884 26.2656H623.572ZM632.944 43V24.4545H637.931V27.6903H638.124C638.462 26.5393 639.029 25.67 639.826 25.0824C640.623 24.4867 641.541 24.1889 642.579 24.1889C642.837 24.1889 643.114 24.205 643.412 24.2372C643.71 24.2694 643.972 24.3137 644.197 24.37V28.9339C643.956 28.8615 643.621 28.7971 643.195 28.7408C642.768 28.6844 642.378 28.6562 642.024 28.6562C641.267 28.6562 640.591 28.8213 639.995 29.1513C639.408 29.4732 638.941 29.924 638.595 30.5036C638.257 31.0831 638.088 31.7512 638.088 32.5078V43H632.944ZM651.613 43.3501C650.43 43.3501 649.376 43.1449 648.45 42.7344C647.524 42.3158 646.792 41.7 646.253 40.8871C645.721 40.0661 645.456 39.0438 645.456 37.8203C645.456 36.79 645.645 35.9247 646.023 35.2244C646.401 34.5241 646.917 33.9607 647.569 33.5341C648.221 33.1075 648.961 32.7855 649.79 32.5682C650.627 32.3509 651.505 32.1979 652.422 32.1094C653.501 31.9967 654.37 31.892 655.03 31.7955C655.69 31.6908 656.169 31.5379 656.467 31.3366C656.765 31.1354 656.914 30.8376 656.914 30.4432V30.3707C656.914 29.6061 656.672 29.0144 656.189 28.5959C655.714 28.1773 655.038 27.968 654.161 27.968C653.235 27.968 652.499 28.1733 651.951 28.5838C651.404 28.9863 651.042 29.4934 650.865 30.1051L646.108 29.7188C646.349 28.5919 646.824 27.6179 647.532 26.7969C648.241 25.9678 649.154 25.3319 650.273 24.8892C651.4 24.4384 652.704 24.2131 654.185 24.2131C655.215 24.2131 656.201 24.3338 657.143 24.5753C658.093 24.8168 658.934 25.1911 659.667 25.6982C660.407 26.2053 660.991 26.8572 661.417 27.6541C661.844 28.4429 662.057 29.3887 662.057 30.4915V43H657.179V40.4283H657.035C656.737 41.0078 656.338 41.5189 655.839 41.9616C655.34 42.3963 654.741 42.7384 654.04 42.9879C653.34 43.2294 652.531 43.3501 651.613 43.3501ZM653.086 39.8004C653.843 39.8004 654.511 39.6515 655.091 39.3537C655.67 39.0478 656.125 38.6373 656.455 38.1222C656.785 37.607 656.95 37.0234 656.95 36.3714V34.4034C656.789 34.508 656.568 34.6046 656.286 34.6932C656.012 34.7737 655.702 34.8501 655.356 34.9226C655.01 34.987 654.664 35.0473 654.318 35.1037C653.972 35.152 653.658 35.1963 653.376 35.2365C652.772 35.325 652.245 35.4659 651.794 35.6591C651.344 35.8523 650.994 36.1139 650.744 36.4439C650.495 36.7659 650.37 37.1683 650.37 37.6513C650.37 38.3516 650.623 38.8868 651.13 39.2571C651.646 39.6193 652.298 39.8004 653.086 39.8004ZM666.048 49.9545V24.4545H671.119V27.5696H671.348C671.573 27.0705 671.899 26.5634 672.326 26.0483C672.761 25.5251 673.324 25.0904 674.016 24.7443C674.717 24.3902 675.586 24.2131 676.624 24.2131C677.977 24.2131 679.224 24.5672 680.367 25.2756C681.51 25.9759 682.424 27.0343 683.108 28.451C683.792 29.8596 684.134 31.6264 684.134 33.7514C684.134 35.8201 683.8 37.5668 683.132 38.9915C682.472 40.4081 681.571 41.4827 680.428 42.2152C679.293 42.9396 678.021 43.3018 676.612 43.3018C675.614 43.3018 674.765 43.1368 674.065 42.8068C673.372 42.4768 672.805 42.0623 672.362 41.5632C671.92 41.0561 671.582 40.545 671.348 40.0298H671.191V49.9545H666.048ZM671.082 33.7273C671.082 34.83 671.235 35.7919 671.541 36.6129C671.847 37.4339 672.29 38.0739 672.869 38.5327C673.449 38.9834 674.153 39.2088 674.982 39.2088C675.819 39.2088 676.528 38.9794 677.107 38.5206C677.687 38.0537 678.126 37.4098 678.423 36.5888C678.729 35.7597 678.882 34.8059 678.882 33.7273C678.882 32.6567 678.733 31.715 678.435 30.902C678.138 30.089 677.699 29.4531 677.119 28.9943C676.54 28.5355 675.828 28.3061 674.982 28.3061C674.145 28.3061 673.437 28.5275 672.857 28.9702C672.286 29.4129 671.847 30.0407 671.541 30.8537C671.235 31.6667 671.082 32.6245 671.082 33.7273ZM692.707 32.2784V43H687.563V18.2727H692.562V27.7266H692.779C693.198 26.6319 693.874 25.7746 694.808 25.1548C695.741 24.527 696.912 24.2131 698.321 24.2131C699.609 24.2131 700.732 24.4948 701.69 25.0582C702.656 25.6136 703.404 26.4145 703.935 27.4609C704.475 28.4993 704.74 29.7429 704.732 31.1918V43H699.589V32.1094C699.597 30.9664 699.307 30.0769 698.72 29.4411C698.14 28.8052 697.327 28.4872 696.281 28.4872C695.58 28.4872 694.961 28.6361 694.421 28.9339C693.89 29.2318 693.471 29.6664 693.166 30.2379C692.868 30.8014 692.715 31.4815 692.707 32.2784Z" fill="white"/>
<path d="M423.272 49.7614H663.729V52.0795H423.272V49.7614ZM673.506 49.7614H706.737V52.0795H673.506V49.7614Z" fill="white"/>
<path d="M328.25 321.75L312.75 337.25" stroke="#FF0000" stroke-width="2" stroke-linecap="round" stroke-linejoin="round"/>
<path d="M312.75 321.75L328.25 337.25" stroke="#FF0000" stroke-width="2" stroke-linecap="round" stroke-linejoin="round"/>
<circle cx="551.5" cy="389.5" r="6" fill="#A80000" stroke="#690000"/>
<circle cx="986.5" cy="449.5" r="6" fill="#A80000" stroke="#690000"/>
<circle cx="225.5" cy="508.5" r="6" fill="#A80000" stroke="#690000"/>
<circle cx="677.5" cy="568.5" r="6" fill="#A80000" stroke="#690000"/>
<circle cx="684.5" cy="688.5" r="6" fill="#A80000" stroke="#690000"/>
<circle cx="390.5" cy="748.5" r="6" fill="#A80000" stroke="#690000"/>
<circle cx="400.5" cy="808.5" r="6" fill="#A80000" stroke="#690000"/>
<circle cx="110.5" cy="628.5" r="6" fill="#A80000" stroke="#690000"/>
<path d="M569.481 362.307C570.197 362.312 570.913 362.449 571.629 362.716C572.344 362.983 572.998 363.426 573.589 364.045C574.18 364.659 574.654 365.497 575.012 366.56C575.37 367.622 575.549 368.955 575.549 370.557C575.549 372.108 575.401 373.486 575.106 374.69C574.816 375.889 574.396 376.901 573.844 377.724C573.299 378.548 572.634 379.173 571.85 379.599C571.072 380.026 570.191 380.239 569.208 380.239C568.231 380.239 567.359 380.045 566.592 379.659C565.83 379.267 565.205 378.724 564.717 378.031C564.234 377.332 563.924 376.523 563.788 375.602H565.867C566.055 376.403 566.427 377.065 566.984 377.588C567.546 378.105 568.288 378.364 569.208 378.364C570.555 378.364 571.617 377.776 572.396 376.599C573.18 375.423 573.572 373.761 573.572 371.614H573.435C573.117 372.091 572.739 372.503 572.302 372.849C571.864 373.196 571.379 373.463 570.844 373.651C570.31 373.838 569.742 373.932 569.14 373.932C568.14 373.932 567.222 373.685 566.387 373.19C565.558 372.69 564.893 372.006 564.393 371.136C563.898 370.261 563.651 369.261 563.651 368.136C563.651 367.068 563.89 366.091 564.367 365.205C564.85 364.312 565.526 363.602 566.396 363.074C567.271 362.545 568.299 362.29 569.481 362.307ZM569.481 364.182C568.765 364.182 568.12 364.361 567.546 364.719C566.978 365.071 566.526 365.548 566.191 366.151C565.862 366.747 565.697 367.409 565.697 368.136C565.697 368.864 565.856 369.526 566.174 370.122C566.498 370.713 566.938 371.185 567.495 371.537C568.058 371.884 568.697 372.057 569.413 372.057C569.952 372.057 570.455 371.952 570.921 371.741C571.387 371.526 571.793 371.233 572.14 370.864C572.492 370.489 572.768 370.065 572.967 369.594C573.165 369.116 573.265 368.619 573.265 368.102C573.265 367.42 573.1 366.781 572.771 366.185C572.447 365.588 571.998 365.105 571.424 364.736C570.856 364.366 570.208 364.182 569.481 364.182ZM584.491 380.239C583.321 380.239 582.287 380.031 581.389 379.616C580.497 379.196 579.801 378.619 579.301 377.886C578.801 377.148 578.554 376.307 578.56 375.364C578.554 374.625 578.699 373.943 578.994 373.318C579.29 372.687 579.693 372.162 580.205 371.741C580.722 371.315 581.298 371.045 581.935 370.932V370.83C581.099 370.614 580.435 370.145 579.94 369.423C579.446 368.696 579.202 367.869 579.207 366.943C579.202 366.057 579.426 365.264 579.881 364.565C580.335 363.866 580.96 363.315 581.756 362.912C582.557 362.509 583.469 362.307 584.491 362.307C585.503 362.307 586.406 362.509 587.202 362.912C587.997 363.315 588.622 363.866 589.077 364.565C589.537 365.264 589.77 366.057 589.776 366.943C589.77 367.869 589.517 368.696 589.017 369.423C588.523 370.145 587.866 370.614 587.048 370.83V370.932C587.679 371.045 588.247 371.315 588.753 371.741C589.259 372.162 589.662 372.687 589.963 373.318C590.264 373.943 590.418 374.625 590.423 375.364C590.418 376.307 590.162 377.148 589.656 377.886C589.156 378.619 588.46 379.196 587.568 379.616C586.682 380.031 585.656 380.239 584.491 380.239ZM584.491 378.364C585.281 378.364 585.963 378.236 586.537 377.98C587.111 377.724 587.554 377.364 587.866 376.898C588.179 376.432 588.338 375.886 588.344 375.261C588.338 374.602 588.168 374.02 587.832 373.514C587.497 373.009 587.04 372.611 586.46 372.321C585.886 372.031 585.23 371.886 584.491 371.886C583.747 371.886 583.082 372.031 582.497 372.321C581.918 372.611 581.46 373.009 581.125 373.514C580.795 374.02 580.634 374.602 580.639 375.261C580.634 375.886 580.784 376.432 581.091 376.898C581.403 377.364 581.849 377.724 582.429 377.98C583.009 378.236 583.696 378.364 584.491 378.364ZM584.491 370.08C585.116 370.08 585.67 369.955 586.153 369.705C586.642 369.455 587.026 369.105 587.304 368.656C587.582 368.207 587.724 367.682 587.73 367.08C587.724 366.489 587.585 365.974 587.312 365.537C587.04 365.094 586.662 364.753 586.179 364.514C585.696 364.27 585.134 364.148 584.491 364.148C583.838 364.148 583.267 364.27 582.778 364.514C582.29 364.753 581.912 365.094 581.645 365.537C581.378 365.974 581.247 366.489 581.253 367.08C581.247 367.682 581.381 368.207 581.653 368.656C581.932 369.105 582.315 369.455 582.804 369.705C583.293 369.955 583.855 370.08 584.491 370.08Z" fill="white"/>
<path d="M998.33 415.545V433H996.216V417.761H996.114L991.853 420.591V418.443L996.216 415.545H998.33ZM1008.94 433.239C1007.77 433.239 1006.74 433.031 1005.84 432.616C1004.95 432.196 1004.25 431.619 1003.75 430.886C1003.25 430.148 1003 429.307 1003.01 428.364C1003 427.625 1003.15 426.943 1003.44 426.318C1003.74 425.687 1004.14 425.162 1004.65 424.741C1005.17 424.315 1005.75 424.045 1006.38 423.932V423.83C1005.55 423.614 1004.88 423.145 1004.39 422.423C1003.9 421.696 1003.65 420.869 1003.66 419.943C1003.65 419.057 1003.88 418.264 1004.33 417.565C1004.78 416.866 1005.41 416.315 1006.2 415.912C1007.01 415.509 1007.92 415.307 1008.94 415.307C1009.95 415.307 1010.86 415.509 1011.65 415.912C1012.45 416.315 1013.07 416.866 1013.53 417.565C1013.99 418.264 1014.22 419.057 1014.22 419.943C1014.22 420.869 1013.97 421.696 1013.47 422.423C1012.97 423.145 1012.32 423.614 1011.5 423.83V423.932C1012.13 424.045 1012.7 424.315 1013.2 424.741C1013.71 425.162 1014.11 425.687 1014.41 426.318C1014.71 426.943 1014.87 427.625 1014.87 428.364C1014.87 429.307 1014.61 430.148 1014.11 430.886C1013.61 431.619 1012.91 432.196 1012.02 432.616C1011.13 433.031 1010.11 433.239 1008.94 433.239ZM1008.94 431.364C1009.73 431.364 1010.41 431.236 1010.99 430.98C1011.56 430.724 1012 430.364 1012.32 429.898C1012.63 429.432 1012.79 428.886 1012.79 428.261C1012.79 427.602 1012.62 427.02 1012.28 426.514C1011.95 426.009 1011.49 425.611 1010.91 425.321C1010.34 425.031 1009.68 424.886 1008.94 424.886C1008.2 424.886 1007.53 425.031 1006.95 425.321C1006.37 425.611 1005.91 426.009 1005.57 426.514C1005.24 427.02 1005.08 427.602 1005.09 428.261C1005.08 428.886 1005.23 429.432 1005.54 429.898C1005.85 430.364 1006.3 430.724 1006.88 430.98C1007.46 431.236 1008.15 431.364 1008.94 431.364ZM1008.94 423.08C1009.57 423.08 1010.12 422.955 1010.6 422.705C1011.09 422.455 1011.47 422.105 1011.75 421.656C1012.03 421.207 1012.17 420.682 1012.18 420.08C1012.17 419.489 1012.03 418.974 1011.76 418.537C1011.49 418.094 1011.11 417.753 1010.63 417.514C1010.15 417.27 1009.58 417.148 1008.94 417.148C1008.29 417.148 1007.72 417.27 1007.23 417.514C1006.74 417.753 1006.36 418.094 1006.09 418.537C1005.83 418.974 1005.7 419.489 1005.7 420.08C1005.7 420.682 1005.83 421.207 1006.1 421.656C1006.38 422.105 1006.76 422.455 1007.25 422.705C1007.74 422.955 1008.3 423.08 1008.94 423.08ZM1024.04 433.239C1022.91 433.239 1021.91 433.045 1021.03 432.659C1020.15 432.273 1019.46 431.736 1018.94 431.048C1018.43 430.355 1018.15 429.551 1018.1 428.636H1020.25C1020.3 429.199 1020.49 429.685 1020.83 430.094C1021.17 430.497 1021.62 430.81 1022.17 431.031C1022.72 431.253 1023.33 431.364 1024 431.364C1024.75 431.364 1025.42 431.233 1026 430.972C1026.58 430.71 1027.03 430.347 1027.36 429.881C1027.69 429.415 1027.85 428.875 1027.85 428.261C1027.85 427.619 1027.7 427.054 1027.38 426.565C1027.06 426.071 1026.59 425.685 1025.98 425.406C1025.37 425.128 1024.62 424.989 1023.73 424.989H1022.33V423.114H1023.73C1024.42 423.114 1025.03 422.989 1025.55 422.739C1026.08 422.489 1026.49 422.136 1026.79 421.682C1027.09 421.227 1027.24 420.693 1027.24 420.08C1027.24 419.489 1027.11 418.974 1026.85 418.537C1026.59 418.099 1026.22 417.759 1025.74 417.514C1025.27 417.27 1024.71 417.148 1024.07 417.148C1023.47 417.148 1022.9 417.259 1022.37 417.48C1021.84 417.696 1021.41 418.011 1021.07 418.426C1020.74 418.835 1020.55 419.33 1020.53 419.909H1018.48C1018.51 418.994 1018.79 418.193 1019.31 417.506C1019.82 416.812 1020.5 416.273 1021.33 415.886C1022.18 415.5 1023.1 415.307 1024.1 415.307C1025.18 415.307 1026.11 415.526 1026.88 415.963C1027.66 416.395 1028.25 416.966 1028.66 417.676C1029.08 418.386 1029.29 419.153 1029.29 419.977C1029.29 420.96 1029.03 421.798 1028.51 422.491C1028 423.185 1027.3 423.665 1026.42 423.932V424.068C1027.53 424.25 1028.39 424.719 1029.01 425.474C1029.62 426.224 1029.93 427.153 1029.93 428.261C1029.93 429.21 1029.68 430.062 1029.16 430.818C1028.65 431.568 1027.95 432.159 1027.06 432.591C1026.18 433.023 1025.17 433.239 1024.04 433.239Z" fill="white"/>
<path d="M238.208 496.239C237.083 496.239 236.081 496.045 235.2 495.659C234.325 495.273 233.629 494.736 233.112 494.048C232.6 493.355 232.322 492.551 232.277 491.636H234.424C234.47 492.199 234.663 492.685 235.004 493.094C235.345 493.497 235.791 493.81 236.342 494.031C236.893 494.253 237.504 494.364 238.174 494.364C238.924 494.364 239.589 494.233 240.169 493.972C240.748 493.71 241.203 493.347 241.532 492.881C241.862 492.415 242.027 491.875 242.027 491.261C242.027 490.619 241.868 490.054 241.549 489.565C241.231 489.071 240.765 488.685 240.152 488.406C239.538 488.128 238.788 487.989 237.902 487.989H236.504V486.114H237.902C238.595 486.114 239.203 485.989 239.725 485.739C240.254 485.489 240.666 485.136 240.961 484.682C241.262 484.227 241.413 483.693 241.413 483.08C241.413 482.489 241.282 481.974 241.021 481.537C240.76 481.099 240.39 480.759 239.913 480.514C239.441 480.27 238.885 480.148 238.243 480.148C237.64 480.148 237.072 480.259 236.538 480.48C236.01 480.696 235.578 481.011 235.243 481.426C234.907 481.835 234.725 482.33 234.697 482.909H232.652C232.686 481.994 232.961 481.193 233.478 480.506C233.995 479.812 234.672 479.273 235.507 478.886C236.348 478.5 237.271 478.307 238.277 478.307C239.356 478.307 240.282 478.526 241.055 478.963C241.828 479.395 242.422 479.966 242.836 480.676C243.251 481.386 243.458 482.153 243.458 482.977C243.458 483.96 243.2 484.798 242.683 485.491C242.172 486.185 241.475 486.665 240.595 486.932V487.068C241.697 487.25 242.558 487.719 243.177 488.474C243.797 489.224 244.106 490.153 244.106 491.261C244.106 492.21 243.848 493.062 243.331 493.818C242.819 494.568 242.12 495.159 241.234 495.591C240.348 496.023 239.339 496.239 238.208 496.239ZM248.137 496L255.944 480.557V480.42H246.944V478.545H258.126V480.523L250.353 496H248.137Z" fill="white"/>
<path d="M702.834 533.545V551H700.72V535.761H700.618L696.357 538.591V536.443L700.72 533.545H702.834ZM707.854 551V549.466L713.615 543.159C714.291 542.42 714.848 541.778 715.286 541.233C715.723 540.682 716.047 540.165 716.257 539.682C716.473 539.193 716.581 538.682 716.581 538.148C716.581 537.534 716.433 537.003 716.138 536.554C715.848 536.105 715.45 535.759 714.945 535.514C714.439 535.27 713.871 535.148 713.24 535.148C712.57 535.148 711.984 535.287 711.484 535.565C710.99 535.838 710.607 536.222 710.334 536.716C710.067 537.21 709.933 537.79 709.933 538.455H707.922C707.922 537.432 708.158 536.534 708.629 535.761C709.101 534.989 709.743 534.386 710.555 533.955C711.374 533.523 712.291 533.307 713.308 533.307C714.331 533.307 715.237 533.523 716.027 533.955C716.817 534.386 717.436 534.969 717.885 535.702C718.334 536.435 718.558 537.25 718.558 538.148C718.558 538.79 718.442 539.418 718.209 540.031C717.982 540.639 717.584 541.318 717.016 542.068C716.453 542.812 715.672 543.722 714.672 544.795L710.751 548.989V549.125H718.865V551H707.854ZM722.385 551V549.466L728.146 543.159C728.822 542.42 729.379 541.778 729.817 541.233C730.254 540.682 730.578 540.165 730.788 539.682C731.004 539.193 731.112 538.682 731.112 538.148C731.112 537.534 730.964 537.003 730.669 536.554C730.379 536.105 729.982 535.759 729.476 535.514C728.97 535.27 728.402 535.148 727.771 535.148C727.101 535.148 726.516 535.287 726.016 535.565C725.521 535.838 725.138 536.222 724.865 536.716C724.598 537.21 724.464 537.79 724.464 538.455H722.453C722.453 537.432 722.689 536.534 723.161 535.761C723.632 534.989 724.274 534.386 725.087 533.955C725.905 533.523 726.822 533.307 727.839 533.307C728.862 533.307 729.768 533.523 730.558 533.955C731.348 534.386 731.967 534.969 732.416 535.702C732.865 536.435 733.089 537.25 733.089 538.148C733.089 538.79 732.973 539.418 732.74 540.031C732.513 540.639 732.115 541.318 731.547 542.068C730.984 542.812 730.203 543.722 729.203 544.795L725.283 548.989V549.125H733.396V551H722.385Z" fill="white"/>
<path d="M127.666 601.545V619H125.552V603.761H125.45L121.189 606.591V604.443L125.552 601.545H127.666ZM132.277 615.42V613.682L139.947 601.545H141.208V604.239H140.356L134.561 613.409V613.545H144.89V615.42H132.277ZM140.493 619V614.892V614.082V601.545H142.504V619H140.493Z" fill="white"/>
<path d="M709.588 653.545V671H707.474V655.761H707.372L703.11 658.591V656.443L707.474 653.545H709.588ZM714.608 671V669.466L720.369 663.159C721.045 662.42 721.602 661.778 722.039 661.233C722.477 660.682 722.801 660.165 723.011 659.682C723.227 659.193 723.335 658.682 723.335 658.148C723.335 657.534 723.187 657.003 722.892 656.554C722.602 656.105 722.204 655.759 721.699 655.514C721.193 655.27 720.625 655.148 719.994 655.148C719.324 655.148 718.738 655.287 718.238 655.565C717.744 655.838 717.36 656.222 717.088 656.716C716.821 657.21 716.687 657.79 716.687 658.455H714.676C714.676 657.432 714.912 656.534 715.383 655.761C715.855 654.989 716.497 654.386 717.309 653.955C718.127 653.523 719.045 653.307 720.062 653.307C721.085 653.307 721.991 653.523 722.781 653.955C723.571 654.386 724.19 654.969 724.639 655.702C725.088 656.435 725.312 657.25 725.312 658.148C725.312 658.79 725.196 659.418 724.963 660.031C724.735 660.639 724.338 661.318 723.77 662.068C723.207 662.812 722.426 663.722 721.426 664.795L717.505 668.989V669.125H725.619V671H714.608ZM728.355 667.42V665.682L736.025 653.545H737.287V656.239H736.434L730.639 665.409V665.545H740.968V667.42H728.355ZM736.571 671V666.892V666.082V653.545H738.582V671H736.571Z" fill="white"/>
<path d="M407.813 734.239C407.097 734.227 406.381 734.091 405.665 733.83C404.95 733.568 404.296 733.128 403.705 732.509C403.114 731.884 402.64 731.04 402.282 729.977C401.924 728.909 401.745 727.568 401.745 725.955C401.745 724.409 401.89 723.04 402.18 721.847C402.469 720.648 402.89 719.639 403.441 718.821C403.992 717.997 404.657 717.372 405.435 716.946C406.219 716.52 407.103 716.307 408.086 716.307C409.063 716.307 409.933 716.503 410.694 716.895C411.461 717.281 412.086 717.821 412.569 718.514C413.052 719.207 413.364 720.006 413.506 720.909H411.427C411.234 720.125 410.859 719.474 410.302 718.957C409.745 718.44 409.006 718.182 408.086 718.182C406.734 718.182 405.668 718.77 404.89 719.946C404.117 721.122 403.728 722.773 403.722 724.898H403.859C404.177 724.415 404.555 724.003 404.992 723.662C405.435 723.315 405.924 723.048 406.458 722.861C406.992 722.673 407.558 722.58 408.154 722.58C409.154 722.58 410.069 722.83 410.898 723.33C411.728 723.824 412.393 724.509 412.893 725.384C413.393 726.253 413.643 727.25 413.643 728.375C413.643 729.455 413.401 730.443 412.918 731.341C412.435 732.233 411.756 732.943 410.881 733.472C410.012 733.994 408.989 734.25 407.813 734.239ZM407.813 732.364C408.529 732.364 409.171 732.185 409.739 731.827C410.313 731.469 410.765 730.989 411.094 730.386C411.43 729.784 411.597 729.114 411.597 728.375C411.597 727.653 411.435 726.997 411.112 726.406C410.793 725.81 410.353 725.335 409.79 724.983C409.234 724.631 408.597 724.455 407.881 724.455C407.342 724.455 406.839 724.562 406.373 724.778C405.907 724.989 405.498 725.278 405.146 725.648C404.799 726.017 404.526 726.44 404.327 726.918C404.129 727.389 404.029 727.886 404.029 728.409C404.029 729.102 404.191 729.75 404.515 730.352C404.844 730.955 405.293 731.44 405.862 731.81C406.435 732.179 407.086 732.364 407.813 732.364ZM422.449 734.239C421.449 734.239 420.548 734.04 419.747 733.642C418.946 733.244 418.304 732.699 417.821 732.006C417.338 731.312 417.074 730.523 417.028 729.636H419.074C419.153 730.426 419.511 731.08 420.148 731.597C420.79 732.108 421.557 732.364 422.449 732.364C423.165 732.364 423.801 732.196 424.358 731.861C424.92 731.526 425.361 731.065 425.679 730.48C426.003 729.889 426.165 729.222 426.165 728.477C426.165 727.716 425.997 727.037 425.662 726.44C425.332 725.838 424.878 725.364 424.298 725.017C423.719 724.67 423.057 724.494 422.312 724.489C421.778 724.483 421.23 724.565 420.668 724.736C420.105 724.901 419.642 725.114 419.278 725.375L417.301 725.136L418.358 716.545H427.426V718.42H420.131L419.517 723.568H419.619C419.977 723.284 420.426 723.048 420.966 722.861C421.506 722.673 422.068 722.58 422.653 722.58C423.722 722.58 424.673 722.835 425.509 723.347C426.349 723.852 427.009 724.545 427.486 725.426C427.969 726.307 428.21 727.312 428.21 728.443C428.21 729.557 427.96 730.551 427.46 731.426C426.966 732.295 426.284 732.983 425.415 733.489C424.545 733.989 423.557 734.239 422.449 734.239Z" fill="white"/>
<path d="M417.259 793.239C416.543 793.227 415.827 793.091 415.111 792.83C414.395 792.568 413.741 792.128 413.151 791.509C412.56 790.884 412.085 790.04 411.727 788.977C411.369 787.909 411.19 786.568 411.19 784.955C411.19 783.409 411.335 782.04 411.625 780.847C411.915 779.648 412.335 778.639 412.886 777.821C413.438 776.997 414.102 776.372 414.881 775.946C415.665 775.52 416.548 775.307 417.531 775.307C418.509 775.307 419.378 775.503 420.139 775.895C420.906 776.281 421.531 776.821 422.014 777.514C422.497 778.207 422.81 779.006 422.952 779.909H420.872C420.679 779.125 420.304 778.474 419.747 777.957C419.19 777.44 418.452 777.182 417.531 777.182C416.179 777.182 415.114 777.77 414.335 778.946C413.563 780.122 413.173 781.773 413.168 783.898H413.304C413.622 783.415 414 783.003 414.438 782.662C414.881 782.315 415.369 782.048 415.903 781.861C416.438 781.673 417.003 781.58 417.599 781.58C418.599 781.58 419.514 781.83 420.344 782.33C421.173 782.824 421.838 783.509 422.338 784.384C422.838 785.253 423.088 786.25 423.088 787.375C423.088 788.455 422.847 789.443 422.364 790.341C421.881 791.233 421.202 791.943 420.327 792.472C419.457 792.994 418.435 793.25 417.259 793.239ZM417.259 791.364C417.974 791.364 418.616 791.185 419.185 790.827C419.759 790.469 420.21 789.989 420.54 789.386C420.875 788.784 421.043 788.114 421.043 787.375C421.043 786.653 420.881 785.997 420.557 785.406C420.239 784.81 419.798 784.335 419.236 783.983C418.679 783.631 418.043 783.455 417.327 783.455C416.787 783.455 416.284 783.562 415.818 783.778C415.352 783.989 414.943 784.278 414.591 784.648C414.244 785.017 413.972 785.44 413.773 785.918C413.574 786.389 413.474 786.886 413.474 787.409C413.474 788.102 413.636 788.75 413.96 789.352C414.29 789.955 414.739 790.44 415.307 790.81C415.881 791.179 416.531 791.364 417.259 791.364ZM426.985 793L434.792 777.557V777.42H425.792V775.545H436.974V777.523L429.201 793H426.985Z" fill="white"/>
</svg>
