<svg xmlns="http://www.w3.org/2000/svg" width="1746" height="840" fill="none" viewBox="0 0 1746 840"><rect width="117" height="117" x="1627.5" y="361.5" fill="#272727" stroke="#9c9c9c" stroke-width="3" rx="8.5"/><rect width="1317" height="837" x="1.5" y="1.5" fill="#272727" stroke="#9c9c9c" stroke-width="3" rx="25.5"/><path fill="#fff" d="M1680.55 427.918v-.725q.015-3.729.66-5.944c.44-1.478 1.08-2.671 1.91-3.58q1.26-1.363 3.03-2.472c.88-.568 1.67-1.157 2.36-1.768a7.8 7.8 0 0 0 1.67-2.024c.41-.753.61-1.591.61-2.514 0-.98-.23-1.84-.7-2.579a4.7 4.7 0 0 0-1.9-1.704c-.78-.398-1.64-.597-2.59-.597-.93 0-1.8.206-2.63.618-.82.398-1.49.995-2.02 1.79-.53.781-.81 1.754-.85 2.919h-8.7c.08-2.841.76-5.185 2.05-7.031 1.29-1.861 3-3.246 5.14-4.155q3.195-1.385 7.05-1.385 4.23 0 7.5 1.406c2.17.924 3.88 2.266 5.11 4.027q1.86 2.642 1.86 6.371 0 2.493-.84 4.432a10.8 10.8 0 0 1-2.28 3.409c-.98.98-2.13 1.868-3.47 2.663-1.12.668-2.04 1.364-2.77 2.088a7.2 7.2 0 0 0-1.6 2.515c-.34.951-.52 2.123-.53 3.515v.725zm4.21 13.636c-1.42 0-2.63-.497-3.64-1.492q-1.485-1.512-1.47-3.622-.015-2.088 1.47-3.579c1.01-.995 2.22-1.492 3.64-1.492 1.35 0 2.54.497 3.56 1.492 1.03.994 1.54 2.187 1.56 3.579-.02.938-.26 1.797-.75 2.578a5.5 5.5 0 0 1-1.85 1.854q-1.155.682-2.52.682"/><path stroke="#9c9c9c" stroke-width="2" d="M121 0v840M0 119h1320M0 239h1320M0 359h1320M0 479h1320M0 599h1320M0 719h1320M241 0v840M361 0v840M481 0v840M601 0v840M721 0v840M841 0v840M961 0v840M1081 0v840M1201 0v840"/><path fill="#9c9c9c" d="M1564.12 421.621a3 3 0 0 0 0-4.242l-19.09-19.092a2.996 2.996 0 0 0-4.24 0 3 3 0 0 0 0 4.242l16.97 16.971-16.97 16.971a3 3 0 0 0 0 4.242 2.996 2.996 0 0 0 4.24 0zM1410 419.5v3h152v-6h-152z"/></svg>