<svg xmlns="http://www.w3.org/2000/svg" width="1467" height="453" fill="none" viewBox="0 0 1467 453"><path fill="#fff" d="M166.225 122V90h11.187q3.344 0 5.516 1.156 2.172 1.14 3.234 3.078 1.062 1.923 1.063 4.266 0 2.062-.735 3.406-.718 1.344-1.906 2.125a8.7 8.7 0 0 1-2.547 1.156v.313q1.469.093 2.953 1.031 1.485.938 2.485 2.688 1 1.749 1 4.281 0 2.406-1.094 4.328t-3.453 3.047q-2.36 1.125-6.141 1.125zm3.875-3.438h7.687q3.797 0 5.391-1.468 1.61-1.485 1.609-3.594a5.7 5.7 0 0 0-.828-3q-.829-1.39-2.359-2.219-1.532-.843-3.625-.843H170.1zm0-14.5h7.187q1.75 0 3.156-.687 1.422-.687 2.25-1.938.844-1.25.844-2.937 0-2.11-1.469-3.578-1.469-1.484-4.656-1.484H170.1zm39.367 8.125V98h3.687v24h-3.687v-4.063h-.25q-.844 1.829-2.625 3.11-1.782 1.266-4.5 1.266-2.25 0-4-.985-1.75-1-2.75-3-1-2.016-1-5.078V98h3.687v15q0 2.625 1.469 4.188 1.485 1.562 3.781 1.562 1.375 0 2.797-.703 1.439-.704 2.406-2.156.985-1.454.985-3.704m20.191 10.313q-3.375 0-5.812-1.594-2.437-1.593-3.75-4.39t-1.313-6.391q0-3.657 1.344-6.453 1.36-2.813 3.781-4.39 2.437-1.594 5.688-1.594 2.53 0 4.562.937t3.328 2.625 1.61 3.937h-3.688q-.422-1.64-1.875-2.906-1.437-1.281-3.875-1.281-2.156 0-3.781 1.125-1.61 1.11-2.516 3.141-.89 2.014-.89 4.734 0 2.781.875 4.844.89 2.062 2.5 3.203 1.625 1.14 3.812 1.141 1.438 0 2.61-.501a5.4 5.4 0 0 0 1.984-1.437q.813-.937 1.156-2.25h3.688a8.55 8.55 0 0 1-1.547 3.828q-1.22 1.688-3.235 2.688-2 .984-4.656.984m18.266-9.25-.063-4.562h.75L259.111 98h4.563l-11.188 11.312h-.312zm-3.438 8.75V90h3.688v32zm15.25 0-9.375-11.875 2.625-2.563L264.424 122zm17.758.5q-3.468 0-5.984-1.531-2.5-1.547-3.86-4.313-1.343-2.781-1.343-6.468 0-3.689 1.343-6.501 1.36-2.828 3.782-4.406 2.437-1.594 5.687-1.594 1.875 0 3.703.626 1.828.624 3.328 2.031 1.5 1.39 2.391 3.687t.891 5.656v1.563h-18.5v-3.188h14.75q0-2.03-.813-3.625a6.1 6.1 0 0 0-2.281-2.515q-1.469-.922-3.469-.922-2.203 0-3.812 1.094a7.2 7.2 0 0 0-2.453 2.812 8.26 8.26 0 0 0-.86 3.719v2.125q0 2.72.938 4.609.952 1.875 2.64 2.86 1.688.969 3.922.969 1.454 0 2.625-.407a5.6 5.6 0 0 0 2.047-1.25q.86-.843 1.328-2.094l3.563 1.001a7.9 7.9 0 0 1-1.891 3.187q-1.328 1.36-3.281 2.125-1.953.75-4.391.75M303.479 98v3.125h-12.438V98zm-8.813-5.75h3.688v22.875q0 1.563.453 2.344.468.765 1.187 1.031a4.8 4.8 0 0 0 1.547.25q.61 0 1-.063l.625-.125.75 3.313a7.4 7.4 0 0 1-1.047.281q-.671.157-1.703.157a7.4 7.4 0 0 1-3.062-.672 6.1 6.1 0 0 1-2.469-2.047q-.969-1.375-.969-3.469zM225.207 175l5.25-32h3.125l-5.25 32zm-14.562-8.875.5-3.125h23.875l-.5 3.125zm3.312 8.875 5.25-32h3.125l-5.25 32zm-1.437-20 .5-3.125h23.875l-.5 3.125zm39.695-12v32h-3.875v-27.938h-.188l-7.812 5.188v-3.938l8-5.312z"/><path fill="#727272" d="M173.182 316q0-5.907 1.531-10.859a33.9 33.9 0 0 1 4.406-9.141h3.25q-1.125 1.547-2.109 3.812a37 37 0 0 0-1.703 4.954 47 47 0 0 0-1.157 5.562 41 41 0 0 0-.406 5.672q0 3.719.719 7.547t1.937 7.109q1.22 3.282 2.719 5.344h-3.25a34 34 0 0 1-4.406-9.125q-1.531-4.97-1.531-10.875m25.004 16.437q-3.532 0-6.016-1.921-2.484-1.938-3.797-5.61-1.312-3.687-1.312-8.906 0-5.187 1.312-8.859 1.327-3.689 3.813-5.625 2.499-1.954 6-1.954t5.984 1.954q2.5 1.936 3.812 5.625 1.329 3.672 1.329 8.859 0 5.219-1.313 8.906-1.313 3.672-3.797 5.61-2.484 1.921-6.015 1.921m0-3.437q3.5 0 5.437-3.375t1.938-9.625q0-4.156-.891-7.078-.875-2.922-2.531-4.453-1.641-1.532-3.953-1.532-3.47 0-5.422 3.422-1.953 3.407-1.953 9.641 0 4.157.875 7.062.874 2.907 2.515 4.422 1.656 1.516 3.985 1.516m43.25-14.719v3.438h-14v-3.438zm18.8 17.719v-2.812l10.563-11.563q1.859-2.031 3.062-3.531 1.203-1.517 1.782-2.844a6.9 6.9 0 0 0 .593-2.813q0-1.686-.812-2.921-.797-1.235-2.188-1.907-1.39-.672-3.125-.672-1.844 0-3.218.766a5.27 5.27 0 0 0-2.11 2.109q-.734 1.36-.734 3.188h-3.688q0-2.812 1.297-4.938a9 9 0 0 1 3.531-3.312q2.25-1.188 5.047-1.188 2.813 0 4.985 1.188t3.406 3.203q1.234 2.016 1.234 4.484a9.7 9.7 0 0 1-.64 3.454q-.625 1.671-2.188 3.734-1.546 2.047-4.297 5l-7.187 7.687v.25h14.875V332zm34.578-16q0 5.906-1.546 10.875a33.6 33.6 0 0 1-4.391 9.125h-3.25q1.125-1.547 2.094-3.812a36 36 0 0 0 1.718-4.938q.735-2.703 1.141-5.578.422-2.89.422-5.672 0-3.719-.719-7.547t-1.937-7.109q-1.22-3.282-2.719-5.344h3.25a33.5 33.5 0 0 1 4.391 9.141q1.546 4.953 1.546 10.859"/><path fill="#fff" d="M665.225 122V90h11.187q3.344 0 5.516 1.156 2.172 1.14 3.234 3.078 1.063 1.923 1.063 4.266 0 2.062-.735 3.406-.718 1.344-1.906 2.125a8.7 8.7 0 0 1-2.547 1.156v.313q1.469.093 2.953 1.031 1.485.938 2.485 2.688 1 1.749 1 4.281 0 2.406-1.094 4.328t-3.453 3.047q-2.36 1.125-6.141 1.125zm3.875-3.438h7.687q3.796 0 5.391-1.468 1.61-1.485 1.609-3.594a5.7 5.7 0 0 0-.828-3q-.829-1.39-2.359-2.219-1.532-.843-3.625-.843H669.1zm0-14.5h7.187q1.75 0 3.156-.687 1.422-.687 2.25-1.938.844-1.25.844-2.937 0-2.11-1.469-3.578-1.468-1.484-4.656-1.484H669.1zm39.367 8.125V98h3.687v24h-3.687v-4.063h-.25q-.845 1.829-2.625 3.11-1.782 1.266-4.5 1.266-2.25 0-4-.985-1.75-1-2.75-3-1-2.016-1-5.078V98h3.687v15q0 2.625 1.469 4.188 1.485 1.562 3.781 1.562 1.375 0 2.797-.703 1.438-.704 2.406-2.156.985-1.454.985-3.704m20.191 10.313q-3.375 0-5.812-1.594-2.437-1.593-3.75-4.39t-1.313-6.391q0-3.657 1.344-6.453 1.36-2.813 3.781-4.39 2.438-1.594 5.688-1.594 2.53 0 4.562.937t3.328 2.625q1.297 1.687 1.61 3.937h-3.688q-.421-1.64-1.875-2.906-1.437-1.281-3.875-1.281-2.156 0-3.781 1.125-1.61 1.11-2.516 3.141-.89 2.014-.89 4.734 0 2.781.875 4.844.89 2.062 2.5 3.203 1.625 1.14 3.812 1.141 1.438 0 2.61-.501a5.4 5.4 0 0 0 1.984-1.437q.813-.937 1.156-2.25h3.688a8.55 8.55 0 0 1-1.547 3.828q-1.22 1.688-3.235 2.688-2 .984-4.656.984m18.266-9.25-.063-4.562h.75L758.111 98h4.563l-11.188 11.312h-.312zm-3.438 8.75V90h3.688v32zm15.25 0-9.375-11.875 2.625-2.563L763.424 122zm17.758.5q-3.468 0-5.984-1.531-2.5-1.547-3.86-4.313-1.343-2.781-1.343-6.468 0-3.689 1.343-6.501 1.36-2.828 3.782-4.406 2.437-1.594 5.687-1.594 1.875 0 3.703.626 1.828.624 3.328 2.031 1.5 1.39 2.391 3.687t.891 5.656v1.563h-18.5v-3.188h14.75q0-2.03-.813-3.625a6.1 6.1 0 0 0-2.281-2.515q-1.469-.922-3.469-.922-2.203 0-3.812 1.094a7.2 7.2 0 0 0-2.453 2.812 8.26 8.26 0 0 0-.86 3.719v2.125q0 2.72.938 4.609.952 1.875 2.64 2.86 1.688.969 3.922.969 1.453 0 2.625-.407a5.6 5.6 0 0 0 2.047-1.25q.86-.843 1.328-2.094l3.563 1.001a7.9 7.9 0 0 1-1.891 3.187q-1.328 1.36-3.281 2.125-1.953.75-4.391.75M802.479 98v3.125h-12.438V98zm-8.813-5.75h3.688v22.875q0 1.563.453 2.344.468.765 1.187 1.031a4.8 4.8 0 0 0 1.547.25q.61 0 1-.063l.625-.125.75 3.313a7.4 7.4 0 0 1-1.047.281q-.672.157-1.703.157a7.4 7.4 0 0 1-3.062-.672 6.1 6.1 0 0 1-2.469-2.047q-.969-1.375-.969-3.469zM721.113 175l5.25-32h3.125l-5.25 32zm-14.562-8.875.5-3.125h23.875l-.5 3.125zm3.312 8.875 5.25-32h3.125l-5.25 32zm-1.437-20 .5-3.125h23.875l-.5 3.125zm28.445 20v-2.812l10.563-11.563q1.859-2.031 3.062-3.531 1.203-1.517 1.781-2.844a6.9 6.9 0 0 0 .594-2.813q0-1.686-.812-2.921-.798-1.235-2.188-1.907t-3.125-.672q-1.844 0-3.219.766a5.27 5.27 0 0 0-2.109 2.109q-.735 1.36-.734 3.188h-3.688q0-2.812 1.297-4.938a9 9 0 0 1 3.531-3.312q2.25-1.188 5.047-1.188 2.813 0 4.984 1.188 2.172 1.188 3.407 3.203 1.234 2.016 1.234 4.484a9.6 9.6 0 0 1-.641 3.454q-.624 1.671-2.187 3.734-1.547 2.047-4.297 5l-7.187 7.687v.25h14.875V175z"/><path fill="#727272" d="M671.859 316q0-5.907 1.532-10.859a33.9 33.9 0 0 1 4.406-9.141h3.25q-1.125 1.547-2.11 3.812a37 37 0 0 0-1.703 4.954 47 47 0 0 0-1.156 5.562 40.5 40.5 0 0 0-.406 5.672q0 3.719.719 7.547t1.937 7.109q1.22 3.282 2.719 5.344h-3.25a34 34 0 0 1-4.406-9.125q-1.532-4.97-1.532-10.875m25.379 16.437q-3.093 0-5.515-1.062-2.408-1.062-3.828-2.953-1.406-1.907-1.532-4.422h3.938q.125 1.547 1.062 2.672.938 1.108 2.453 1.719 1.516.609 3.36.609 2.063 0 3.656-.719 1.594-.719 2.5-2 .906-1.28.906-2.969 0-1.765-.875-3.109-.874-1.359-2.562-2.125-1.687-.765-4.125-.766h-2.563v-3.437h2.563q1.906 0 3.344-.688 1.452-.687 2.265-1.937.828-1.25.828-2.938 0-1.625-.718-2.828-.72-1.203-2.032-1.875-1.296-.672-3.062-.672a8.1 8.1 0 0 0-3.125.61q-1.454.594-2.375 1.734-.922 1.126-1 2.719h-3.75q.093-2.516 1.515-4.406 1.422-1.907 3.719-2.969 2.313-1.062 5.078-1.063 2.969 0 5.094 1.204 2.125 1.187 3.266 3.14a8.23 8.23 0 0 1 1.14 4.219q0 2.704-1.422 4.609-1.405 1.906-3.828 2.641v.25q3.031.5 4.735 2.578 1.703 2.063 1.703 5.109 0 2.61-1.422 4.688-1.407 2.062-3.844 3.25t-5.547 1.187m43.391-18.156v3.438h-14v-3.438zm28.801 18.156q-2.751 0-4.953-1.093-2.203-1.094-3.532-3-1.327-1.906-1.453-4.344h3.75q.219 2.172 1.969 3.594Q766.976 329 769.43 329q1.968 0 3.5-.922a6.5 6.5 0 0 0 2.422-2.531q.89-1.625.89-3.672 0-2.094-.922-3.734a6.76 6.76 0 0 0-2.5-2.61q-1.593-.952-3.64-.969-1.469-.015-3.016.454-1.546.452-2.547 1.172l-3.625-.438L761.93 300h16.625v3.437H765.18l-1.125 9.438h.187q.984-.781 2.469-1.297a9.4 9.4 0 0 1 3.094-.516q2.937 0 5.234 1.407 2.313 1.39 3.625 3.812 1.328 2.423 1.328 5.531 0 3.063-1.375 5.469a10.05 10.05 0 0 1-3.75 3.781q-2.39 1.375-5.437 1.375M794.137 316q0 5.906-1.547 10.875a33.6 33.6 0 0 1-4.391 9.125h-3.25q1.125-1.547 2.094-3.812a36 36 0 0 0 1.719-4.938q.734-2.703 1.14-5.578.423-2.89.422-5.672 0-3.719-.719-7.547t-1.937-7.109q-1.22-3.282-2.719-5.344h3.25a33.5 33.5 0 0 1 4.391 9.141q1.547 4.953 1.547 10.859"/><path fill="#fff" d="M1164.22 122V90h11.19q3.345 0 5.52 1.156c1.45.76 2.52 1.787 3.23 3.078.71 1.282 1.06 2.704 1.06 4.266 0 1.375-.24 2.51-.73 3.406-.48.896-1.11 1.604-1.91 2.125-.78.521-1.63.906-2.54 1.156v.313c.98.062 1.96.406 2.95 1.031s1.82 1.521 2.48 2.688c.67 1.166 1 2.593 1 4.281 0 1.604-.36 3.047-1.09 4.328q-1.095 1.922-3.45 3.047c-1.58.75-3.62 1.125-6.14 1.125zm3.88-3.438h7.69c2.53 0 4.33-.489 5.39-1.468 1.07-.99 1.61-2.188 1.61-3.594a5.73 5.73 0 0 0-.83-3c-.55-.927-1.34-1.667-2.36-2.219q-1.53-.843-3.63-.843h-7.87zm0-14.5h7.19c1.16 0 2.22-.229 3.15-.687q1.425-.687 2.25-1.938c.57-.833.85-1.812.85-2.937q0-2.11-1.47-3.578c-.98-.99-2.53-1.484-4.66-1.484h-7.31zm39.37 8.125V98h3.68v24h-3.68v-4.063h-.25c-.57 1.219-1.44 2.256-2.63 3.11q-1.785 1.266-4.5 1.266c-1.5 0-2.83-.329-4-.985-1.16-.667-2.08-1.667-2.75-3-.66-1.344-1-3.036-1-5.078V98h3.69v15q0 2.625 1.47 4.188 1.485 1.562 3.78 1.562c.92 0 1.85-.234 2.8-.703s1.76-1.188 2.4-2.156q.99-1.454.99-3.704m20.19 10.313c-2.25 0-4.19-.531-5.81-1.594q-2.445-1.593-3.75-4.39-1.32-2.797-1.32-6.391 0-3.657 1.35-6.453 1.35-2.813 3.78-4.39c1.62-1.063 3.52-1.594 5.69-1.594q2.52 0 4.56.937 2.025.938 3.33 2.625c.86 1.125 1.4 2.437 1.61 3.937h-3.69c-.28-1.093-.91-2.062-1.88-2.906q-1.44-1.281-3.87-1.281-2.16 0-3.78 1.125c-1.08.74-1.91 1.786-2.52 3.141-.59 1.343-.89 2.921-.89 4.734 0 1.854.29 3.469.88 4.844s1.42 2.442 2.5 3.203q1.62 1.14 3.81 1.141 1.44 0 2.61-.501a5.36 5.36 0 0 0 1.98-1.437c.54-.625.93-1.375 1.16-2.25h3.69a8.6 8.6 0 0 1-1.55 3.828q-1.215 1.688-3.24 2.688-1.995.984-4.65.984m18.26-9.25-.06-4.562h.75L1257.11 98h4.56l-11.18 11.312h-.32zm-3.43 8.75V90h3.68v32zm15.25 0-9.38-11.875 2.63-2.563L1262.42 122zm17.75.5c-2.31 0-4.3-.51-5.98-1.531-1.67-1.031-2.95-2.469-3.86-4.313-.9-1.854-1.34-4.01-1.34-6.468s.44-4.626 1.34-6.501q1.365-2.828 3.78-4.406c1.63-1.062 3.52-1.594 5.69-1.594 1.25 0 2.48.209 3.7.626q1.83.624 3.33 2.031c1 .927 1.8 2.156 2.39 3.687s.89 3.417.89 5.656v1.563h-18.5v-3.188h14.75q0-2.03-.81-3.625a6.1 6.1 0 0 0-2.28-2.515c-.98-.615-2.14-.922-3.47-.922q-2.205 0-3.81 1.094a7.2 7.2 0 0 0-2.46 2.812 8.3 8.3 0 0 0-.86 3.719v2.125c0 1.813.32 3.349.94 4.609q.96 1.875 2.64 2.86c1.13.646 2.43.969 3.92.969.97 0 1.85-.136 2.63-.407a5.7 5.7 0 0 0 2.05-1.25q.855-.843 1.32-2.094l3.57 1.001a8 8 0 0 1-1.89 3.187c-.89.906-1.98 1.615-3.29 2.125-1.3.5-2.76.75-4.39.75m25.99-24.5v3.125h-12.44V98zm-8.81-5.75h3.68v22.875c0 1.042.15 1.823.46 2.344.31.51.7.854 1.18 1.031.49.167 1.01.25 1.55.25.41 0 .74-.021 1-.063l.63-.125.75 3.313q-.375.141-1.05.281c-.45.104-1.02.157-1.7.157-1.05 0-2.07-.224-3.07-.672-.99-.448-1.81-1.131-2.47-2.047q-.96-1.375-.96-3.469zM1219.43 175l5.25-32h3.12l-5.25 32zm-14.57-8.875.5-3.125h23.88l-.5 3.125zm3.32 8.875 5.25-32h3.12l-5.25 32zm-1.44-20 .5-3.125h23.87l-.5 3.125zm39.26 20.437c-2.07 0-3.9-.354-5.52-1.062-1.6-.708-2.88-1.693-3.83-2.953q-1.41-1.906-1.53-4.422h3.94c.08 1.031.44 1.922 1.06 2.672.63.739 1.44 1.312 2.45 1.719q1.515.609 3.36.609 2.07 0 3.66-.719c1.06-.479 1.9-1.146 2.5-2s.91-1.843.91-2.969c0-1.177-.3-2.213-.88-3.109-.58-.906-1.44-1.614-2.56-2.125-1.13-.51-2.5-.766-4.13-.766h-2.56v-3.437h2.56c1.27 0 2.39-.229 3.35-.688.97-.458 1.72-1.104 2.26-1.937.56-.833.83-1.813.83-2.938q0-1.625-.72-2.828a4.9 4.9 0 0 0-2.03-1.875q-1.29-.672-3.06-.672c-1.11 0-2.15.204-3.13.61q-1.455.594-2.37 1.734c-.62.75-.95 1.657-1 2.719h-3.75c.06-1.677.57-3.146 1.51-4.406q1.425-1.907 3.72-2.969c1.54-.708 3.24-1.063 5.08-1.063 1.98 0 3.68.402 5.09 1.204q2.13 1.187 3.27 3.14a8.23 8.23 0 0 1 1.14 4.219c0 1.802-.47 3.339-1.42 4.609-.94 1.271-2.21 2.151-3.83 2.641v.25q3.03.5 4.74 2.578c1.13 1.375 1.7 3.078 1.7 5.109 0 1.74-.48 3.303-1.42 4.688-.94 1.375-2.22 2.458-3.85 3.25-1.62.792-3.47 1.187-5.54 1.187"/><path fill="#727272" d="M1170.79 316c0-3.938.52-7.557 1.54-10.859 1.03-3.313 2.5-6.36 4.4-9.141h3.25c-.75 1.031-1.45 2.302-2.11 3.812-.64 1.5-1.21 3.152-1.7 4.954a47 47 0 0 0-1.16 5.562c-.27 1.917-.4 3.807-.4 5.672q0 3.719.72 7.547c.48 2.552 1.12 4.922 1.93 7.109.82 2.188 1.72 3.969 2.72 5.344h-3.25a34 34 0 0 1-4.4-9.125c-1.02-3.313-1.54-6.938-1.54-10.875m25.2 16.437a11.9 11.9 0 0 1-3.94-.75c-1.31-.479-2.51-1.286-3.59-2.421q-1.635-1.719-2.61-4.641-.99-2.937-.99-7.375c0-2.833.27-5.344.8-7.531q.795-3.297 2.31-5.547 1.515-2.266 3.66-3.438t4.86-1.172c1.79 0 3.38.36 4.78 1.079a9.2 9.2 0 0 1 3.44 2.968q1.32 1.907 1.71 4.391h-3.81c-.35-1.438-1.04-2.63-2.06-3.578s-2.38-1.422-4.06-1.422c-2.48 0-4.44 1.078-5.86 3.234-1.42 2.157-2.13 5.183-2.14 9.078h.25a9.4 9.4 0 0 1 2.07-2.265 9.5 9.5 0 0 1 2.69-1.469 9.3 9.3 0 0 1 3.11-.516c1.83 0 3.51.459 5.03 1.375q2.28 1.36 3.66 3.766c.92 1.594 1.37 3.422 1.37 5.485q0 2.968-1.32 5.437a10.1 10.1 0 0 1-3.74 3.906c-1.59.959-3.47 1.427-5.62 1.406m0-3.437c1.31 0 2.49-.328 3.53-.984a7 7 0 0 0 2.48-2.641c.62-1.104.92-2.333.92-3.687 0-1.323-.29-2.527-.89-3.61a6.77 6.77 0 0 0-2.42-2.609c-1.02-.646-2.19-.969-3.5-.969q-1.485 0-2.76.594a7 7 0 0 0-2.25 1.593 7.5 7.5 0 0 0-1.5 2.329 6.9 6.9 0 0 0-.55 2.734c0 1.271.3 2.458.89 3.562a7.3 7.3 0 0 0 2.47 2.672c1.05.677 2.24 1.016 3.58 1.016m43.02-14.719v3.438h-14v-3.438zm28.98-14.719c1.32.011 2.63.261 3.94.75q1.965.735 3.6 2.438c1.08 1.125 1.95 2.661 2.6 4.609q.99 2.922.99 7.329 0 4.265-.81 7.578c-.53 2.198-1.31 4.052-2.32 5.562-1 1.511-2.21 2.656-3.65 3.438-1.43.781-3.04 1.171-4.85 1.171-1.79 0-3.39-.354-4.79-1.062a9.4 9.4 0 0 1-3.44-2.984c-.89-1.282-1.45-2.766-1.7-4.454h3.81c.34 1.469 1.03 2.683 2.05 3.641 1.03.948 2.39 1.422 4.07 1.422q3.705 0 5.85-3.234c1.44-2.157 2.15-5.204 2.15-9.141h-.25a9.8 9.8 0 0 1-2.07 2.266 9.3 9.3 0 0 1-2.68 1.468q-1.47.516-3.12.516c-1.83 0-3.52-.453-5.05-1.359-1.52-.917-2.74-2.172-3.65-3.766-.91-1.604-1.36-3.438-1.36-5.5 0-1.958.43-3.75 1.31-5.375a10.07 10.07 0 0 1 3.72-3.906c1.6-.969 3.49-1.438 5.65-1.407m0 3.438q-1.965 0-3.54.984a7.16 7.16 0 0 0-2.49 2.625q-.9 1.641-.9 3.641t.87 3.641c.6 1.083 1.4 1.948 2.42 2.593 1.03.636 2.21.954 3.52.954q1.485 0 2.76-.579c.86-.395 1.6-.932 2.24-1.609a7.8 7.8 0 0 0 1.51-2.328 6.95 6.95 0 0 0 .55-2.735q0-1.875-.9-3.515a7.26 7.26 0 0 0-2.47-2.656c-1.05-.677-2.23-1.016-3.57-1.016m25.21 13c0 3.937-.51 7.562-1.55 10.875-1.02 3.302-2.48 6.344-4.39 9.125h-3.25q1.125-1.547 2.1-3.812c.65-1.5 1.23-3.146 1.72-4.938a45 45 0 0 0 1.14-5.578q.42-2.89.42-5.672 0-3.719-.72-7.547c-.48-2.552-1.13-4.922-1.94-7.109s-1.72-3.969-2.72-5.344h3.25c1.91 2.781 3.37 5.828 4.39 9.141 1.04 3.302 1.55 6.921 1.55 10.859"/><rect width="467" height="451" x="1" y="1" stroke="#d4d4d4" stroke-dasharray="20 20" stroke-width="2" rx="26"/><rect width="467" height="451" x="500" y="1" stroke="#d4d4d4" stroke-dasharray="20 20" stroke-width="2" rx="26"/><rect width="467" height="451" x="999" y="1" stroke="#d4d4d4" stroke-dasharray="20 20" stroke-width="2" rx="26"/></svg>