<svg xmlns="http://www.w3.org/2000/svg" width="1633" height="453" fill="none" viewBox="0 0 1633 453"><path fill="#fff" d="M129.063 122V90h19.312v3.438h-15.437v10.812h14.437v3.437h-14.437v10.875h15.687V122zm25.796 0V98h3.563v3.75h.312q.75-1.922 2.422-2.984 1.672-1.08 4.016-1.079 2.375 0 3.953 1.079 1.594 1.062 2.484 2.984h.25q.923-1.86 2.766-2.953 1.844-1.11 4.422-1.11 3.219 0 5.265 2.016 2.047 2 2.047 6.234V122h-3.687v-16.063q0-2.656-1.453-3.796-1.454-1.141-3.422-1.141-2.532 0-3.922 1.531-1.39 1.516-1.391 3.844V122h-3.75v-16.438q0-2.046-1.328-3.296-1.328-1.266-3.422-1.266-1.437 0-2.687.766-1.235.765-2 2.125-.75 1.343-.75 3.109v15zm38.243 9V98h3.562v3.812h.438q.405-.624 1.125-1.593.734-.984 2.093-1.75 1.376-.781 3.719-.781 3.031 0 5.344 1.515 2.312 1.516 3.609 4.297t1.297 6.563q0 3.812-1.297 6.609-1.296 2.781-3.594 4.312-2.296 1.516-5.296 1.516-2.312 0-3.704-.766-1.39-.78-2.14-1.765a23 23 0 0 1-1.156-1.657h-.313V131zm3.625-21q0 2.718.796 4.797.798 2.063 2.329 3.234 1.53 1.157 3.75 1.157 2.312 0 3.859-1.219 1.563-1.234 2.344-3.313.797-2.094.797-4.656 0-2.531-.782-4.563-.765-2.046-2.328-3.234-1.547-1.203-3.89-1.203-2.25 0-3.782 1.141-1.531 1.125-2.312 3.156-.781 2.016-.781 4.703m33.625-12v3.125h-12.438V98zm-8.813-5.75h3.688v22.875q0 1.563.453 2.344.468.765 1.187 1.031a4.8 4.8 0 0 0 1.547.25q.61 0 1-.063l.625-.125.75 3.313a7.4 7.4 0 0 1-1.047.281q-.671.157-1.703.157a7.4 7.4 0 0 1-3.062-.672 6.1 6.1 0 0 1-2.469-2.047q-.969-1.375-.969-3.469zM238.273 131a8 8 0 0 1-1.671-.156q-.735-.141-1.016-.281l.937-3.25q1.344.343 2.375.249 1.031-.093 1.829-.921.812-.813 1.484-2.641l.687-1.875L234.023 98h4l6.625 19.125h.25L251.523 98h4l-10.187 27.5q-.687 1.86-1.703 3.078-1.016 1.234-2.36 1.828-1.328.594-3 .594m34.993-9V90h10.812q3.767 0 6.156 1.36 2.407 1.343 3.563 3.64t1.156 5.125-1.156 5.141q-1.142 2.311-3.531 3.687-2.391 1.359-6.125 1.359h-7.75v-3.437h7.625q2.578 0 4.14-.891 1.563-.89 2.266-2.406.719-1.531.719-3.453t-.719-3.437q-.703-1.516-2.281-2.376-1.578-.874-4.188-.874h-6.812V122zm27.429 0V98h3.688v24zm1.875-28a2.62 2.62 0 0 1-1.859-.734q-.765-.735-.766-1.766 0-1.03.766-1.766A2.62 2.62 0 0 1 302.57 89q1.079 0 1.844.734.781.735.781 1.766t-.781 1.766q-.765.734-1.844.734m12.254-4v32h-3.687V90zm16.817 32.5q-3.47 0-5.985-1.531-2.5-1.547-3.859-4.313-1.344-2.781-1.344-6.468 0-3.689 1.344-6.501 1.36-2.828 3.781-4.406 2.438-1.594 5.688-1.594 1.875 0 3.703.626 1.828.624 3.328 2.031 1.5 1.39 2.391 3.687.89 2.297.89 5.656v1.563h-18.5v-3.188h14.75q0-2.03-.812-3.625a6.1 6.1 0 0 0-2.282-2.515q-1.469-.922-3.468-.922-2.204 0-3.813 1.094a7.2 7.2 0 0 0-2.453 2.812 8.26 8.26 0 0 0-.859 3.719v2.125q0 2.72.937 4.609.954 1.875 2.641 2.86 1.687.969 3.922.969 1.452 0 2.625-.407a5.6 5.6 0 0 0 2.047-1.25q.858-.843 1.328-2.094l3.562 1.001a7.9 7.9 0 0 1-1.89 3.187q-1.329 1.36-3.282 2.125-1.953.75-4.39.75M225.707 175l5.25-32h3.125l-5.25 32zm-14.562-8.875.5-3.125h23.875l-.5 3.125zm3.312 8.875 5.25-32h3.125l-5.25 32zm-1.437-20 .5-3.125h23.875l-.5 3.125zm39.695-12v32h-3.875v-27.938h-.188l-7.812 5.188v-3.938l8-5.312z"/><path fill="#727272" d="M137.174 316q0-5.907 1.531-10.859a33.9 33.9 0 0 1 4.406-9.141h3.25q-1.125 1.547-2.109 3.812a37 37 0 0 0-1.703 4.954 47 47 0 0 0-1.156 5.562 40.5 40.5 0 0 0-.407 5.672q0 3.719.719 7.547t1.938 7.109q1.218 3.282 2.718 5.344h-3.25a34 34 0 0 1-4.406-9.125q-1.531-4.97-1.531-10.875m25.004 16.437q-3.532 0-6.016-1.921-2.484-1.938-3.797-5.61-1.312-3.687-1.312-8.906 0-5.187 1.312-8.859 1.328-3.689 3.813-5.625 2.499-1.954 6-1.954t5.984 1.954q2.5 1.936 3.813 5.625 1.328 3.672 1.328 8.859 0 5.219-1.313 8.906-1.312 3.672-3.797 5.61-2.484 1.921-6.015 1.921m0-3.437q3.5 0 5.437-3.375t1.938-9.625q0-4.156-.891-7.078-.875-2.922-2.531-4.453-1.641-1.532-3.953-1.532-3.47 0-5.422 3.422-1.953 3.407-1.953 9.641 0 4.157.875 7.062.875 2.907 2.515 4.422Q159.85 329 162.178 329m27.5 3.437q-3.532 0-6.016-1.921-2.484-1.938-3.797-5.61-1.312-3.687-1.312-8.906 0-5.187 1.312-8.859 1.328-3.689 3.813-5.625 2.499-1.954 6-1.954t5.984 1.954q2.5 1.936 3.813 5.625 1.328 3.672 1.328 8.859 0 5.219-1.313 8.906-1.312 3.672-3.797 5.61-2.484 1.921-6.015 1.921m0-3.437q3.5 0 5.437-3.375t1.938-9.625q0-4.156-.891-7.078-.875-2.922-2.531-4.453-1.641-1.532-3.953-1.532-3.47 0-5.422 3.422-1.953 3.407-1.953 9.641 0 4.157.875 7.062.875 2.907 2.515 4.422Q187.35 329 189.678 329m28.312-29v32h-3.875v-27.938h-.187l-7.813 5.188v-3.938l8-5.312zm23.016 14.281v3.438h-14v-3.438zm16.863 18.156q-3.531 0-6.015-1.921-2.485-1.938-3.797-5.61-1.313-3.687-1.313-8.906 0-5.187 1.313-8.859 1.328-3.689 3.812-5.625 2.5-1.954 6-1.954t5.985 1.954q2.5 1.936 3.812 5.625 1.328 3.672 1.328 8.859 0 5.219-1.312 8.906-1.313 3.672-3.797 5.61-2.484 1.921-6.016 1.921m0-3.437q3.5 0 5.438-3.375t1.937-9.625q0-4.156-.89-7.078-.876-2.922-2.532-4.453-1.64-1.532-3.953-1.532-3.469 0-5.422 3.422-1.953 3.407-1.953 9.641 0 4.157.875 7.062.875 2.907 2.516 4.422 1.656 1.516 3.984 1.516m28.313-29v32h-3.875v-27.938h-.188l-7.812 5.188v-3.938l8-5.312zm19.64 32.437q-3.531 0-6.015-1.921-2.485-1.938-3.797-5.61-1.313-3.687-1.313-8.906 0-5.187 1.313-8.859 1.328-3.689 3.812-5.625 2.5-1.954 6-1.954t5.985 1.954q2.5 1.936 3.812 5.625 1.328 3.672 1.328 8.859 0 5.219-1.312 8.906-1.313 3.672-3.797 5.61-2.484 1.921-6.016 1.921m0-3.437q3.5 0 5.438-3.375t1.937-9.625q0-4.156-.89-7.078-.875-2.922-2.532-4.453-1.64-1.532-3.953-1.532-3.469 0-5.422 3.422-1.953 3.407-1.953 9.641 0 4.157.875 7.062.875 2.907 2.516 4.422 1.656 1.516 3.984 1.516m25-13q0 5.906-1.547 10.875a33.6 33.6 0 0 1-4.39 9.125h-3.25q1.125-1.547 2.094-3.812a36 36 0 0 0 1.718-4.938q.735-2.703 1.141-5.578.422-2.89.422-5.672 0-3.719-.719-7.547t-1.937-7.109q-1.22-3.282-2.719-5.344h3.25a33.5 33.5 0 0 1 4.39 9.141q1.548 4.953 1.547 10.859"/><path fill="#fff" d="M628.063 122V90h19.312v3.438h-15.437v10.812h14.437v3.437h-14.437v10.875h15.687V122zm25.796 0V98h3.563v3.75h.312q.75-1.922 2.422-2.984 1.672-1.08 4.016-1.079 2.375 0 3.953 1.079 1.594 1.062 2.484 2.984h.25q.923-1.86 2.766-2.953 1.843-1.11 4.422-1.11 3.219 0 5.265 2.016 2.047 2 2.047 6.234V122h-3.687v-16.063q0-2.656-1.453-3.796-1.454-1.141-3.422-1.141-2.532 0-3.922 1.531-1.39 1.516-1.391 3.844V122h-3.75v-16.438q0-2.046-1.328-3.296-1.328-1.266-3.422-1.266-1.437 0-2.687.766-1.235.765-2 2.125-.75 1.343-.75 3.109v15zm38.243 9V98h3.562v3.812h.438q.405-.624 1.125-1.593.734-.984 2.093-1.75 1.376-.781 3.719-.781 3.031 0 5.344 1.515 2.312 1.516 3.609 4.297t1.297 6.563q0 3.812-1.297 6.609-1.296 2.781-3.594 4.312-2.296 1.516-5.296 1.516-2.312 0-3.704-.766-1.39-.78-2.14-1.765a23 23 0 0 1-1.156-1.657h-.313V131zm3.625-21q0 2.718.796 4.797.798 2.063 2.329 3.234 1.53 1.157 3.75 1.157 2.312 0 3.859-1.219 1.563-1.234 2.344-3.313.797-2.094.797-4.656 0-2.531-.782-4.563-.765-2.046-2.328-3.234-1.547-1.203-3.89-1.203-2.25 0-3.782 1.141-1.531 1.125-2.312 3.156-.781 2.016-.781 4.703m33.625-12v3.125h-12.438V98zm-8.813-5.75h3.688v22.875q0 1.563.453 2.344.468.765 1.187 1.031a4.8 4.8 0 0 0 1.547.25q.61 0 1-.063l.625-.125.75 3.313a7.4 7.4 0 0 1-1.047.281q-.671.157-1.703.157a7.4 7.4 0 0 1-3.062-.672 6.1 6.1 0 0 1-2.469-2.047q-.969-1.375-.969-3.469zM737.273 131a8 8 0 0 1-1.671-.156q-.735-.141-1.016-.281l.937-3.25q1.344.343 2.375.249 1.031-.093 1.829-.921.812-.813 1.484-2.641l.687-1.875L733.023 98h4l6.625 19.125h.25L750.523 98h4l-10.187 27.5q-.687 1.86-1.703 3.078-1.016 1.234-2.36 1.828-1.327.594-3 .594m34.993-9V90h10.812q3.766 0 6.156 1.36 2.407 1.343 3.563 3.64t1.156 5.125-1.156 5.141q-1.141 2.311-3.531 3.687-2.391 1.359-6.125 1.359h-7.75v-3.437h7.625q2.578 0 4.14-.891 1.563-.89 2.266-2.406.719-1.531.719-3.453t-.719-3.437q-.703-1.516-2.281-2.376-1.578-.874-4.188-.874h-6.812V122zm27.429 0V98h3.688v24zm1.875-28a2.62 2.62 0 0 1-1.859-.734q-.765-.735-.766-1.766 0-1.03.766-1.766A2.62 2.62 0 0 1 801.57 89q1.079 0 1.844.734.781.735.781 1.766t-.781 1.766q-.765.734-1.844.734m12.254-4v32h-3.687V90zm16.817 32.5q-3.47 0-5.985-1.531-2.5-1.547-3.859-4.313-1.344-2.781-1.344-6.468 0-3.689 1.344-6.501 1.36-2.828 3.781-4.406 2.437-1.594 5.688-1.594 1.875 0 3.703.626 1.828.624 3.328 2.031 1.5 1.39 2.391 3.687.89 2.297.89 5.656v1.563h-18.5v-3.188h14.75q0-2.03-.812-3.625a6.1 6.1 0 0 0-2.282-2.515q-1.469-.922-3.468-.922-2.204 0-3.813 1.094a7.2 7.2 0 0 0-2.453 2.812 8.26 8.26 0 0 0-.859 3.719v2.125q0 2.72.937 4.609.954 1.875 2.641 2.86 1.687.969 3.922.969 1.452 0 2.625-.407a5.6 5.6 0 0 0 2.047-1.25q.858-.843 1.328-2.094l3.562 1.001a7.9 7.9 0 0 1-1.89 3.187q-1.329 1.36-3.282 2.125-1.953.75-4.39.75M721.613 175l5.25-32h3.125l-5.25 32zm-14.562-8.875.5-3.125h23.875l-.5 3.125zm3.312 8.875 5.25-32h3.125l-5.25 32zm-1.437-20 .5-3.125h23.875l-.5 3.125zm28.445 20v-2.812l10.563-11.563q1.859-2.031 3.062-3.531 1.203-1.517 1.781-2.844a6.9 6.9 0 0 0 .594-2.813q0-1.686-.812-2.921-.798-1.235-2.188-1.907t-3.125-.672q-1.844 0-3.219.766a5.27 5.27 0 0 0-2.109 2.109q-.735 1.36-.734 3.188h-3.688q0-2.812 1.297-4.938a9 9 0 0 1 3.531-3.312q2.25-1.188 5.047-1.188 2.813 0 4.984 1.188 2.172 1.188 3.407 3.203 1.234 2.016 1.234 4.484a9.6 9.6 0 0 1-.641 3.454q-.624 1.671-2.187 3.734-1.547 2.047-4.297 5l-7.187 7.687v.25h14.875V175z"/><path fill="#727272" d="M637.104 316q0-5.907 1.531-10.859a33.9 33.9 0 0 1 4.406-9.141h3.25q-1.125 1.547-2.109 3.812a37 37 0 0 0-1.703 4.954 47 47 0 0 0-1.157 5.562 40.5 40.5 0 0 0-.406 5.672q0 3.719.719 7.547t1.937 7.109q1.22 3.282 2.719 5.344h-3.25a34 34 0 0 1-4.406-9.125q-1.531-4.97-1.531-10.875m25.003 16.437q-3.531 0-6.015-1.921-2.484-1.938-3.797-5.61-1.313-3.687-1.313-8.906 0-5.187 1.313-8.859 1.328-3.689 3.812-5.625 2.5-1.954 6-1.954t5.985 1.954q2.5 1.936 3.812 5.625 1.328 3.672 1.328 8.859 0 5.219-1.312 8.906-1.313 3.672-3.797 5.61-2.484 1.921-6.016 1.921m0-3.437q3.5 0 5.438-3.375t1.937-9.625q0-4.156-.89-7.078-.875-2.922-2.531-4.453-1.641-1.532-3.954-1.532-3.468 0-5.421 3.422-1.954 3.407-1.954 9.641 0 4.157.875 7.062.875 2.907 2.516 4.422 1.656 1.516 3.984 1.516m28.313-29v32h-3.875v-27.938h-.188l-7.812 5.188v-3.938l8-5.312zm20.453 0v32h-3.875v-27.938h-.187l-7.813 5.188v-3.938l8-5.312zm23.016 14.281v3.438h-14v-3.438zm16.863 18.156q-3.53 0-6.016-1.921-2.484-1.938-3.797-5.61-1.312-3.687-1.312-8.906 0-5.187 1.312-8.859 1.329-3.689 3.813-5.625 2.5-1.954 6-1.954t5.984 1.954q2.5 1.936 3.813 5.625 1.328 3.672 1.328 8.859 0 5.219-1.313 8.906-1.312 3.672-3.796 5.61-2.485 1.921-6.016 1.921m0-3.437q3.5 0 5.437-3.375t1.938-9.625q0-4.156-.891-7.078-.875-2.922-2.531-4.453-1.64-1.532-3.953-1.532-3.47 0-5.422 3.422-1.953 3.407-1.953 9.641 0 4.157.875 7.062.875 2.907 2.516 4.422 1.656 1.516 3.984 1.516m17.062 3v-2.812l10.563-11.563a73 73 0 0 0 3.062-3.531q1.204-1.517 1.782-2.844a6.9 6.9 0 0 0 .593-2.813q0-1.686-.812-2.921-.796-1.235-2.188-1.907-1.39-.672-3.125-.672-1.844 0-3.218.766a5.27 5.27 0 0 0-2.11 2.109q-.734 1.36-.734 3.188h-3.688q0-2.812 1.297-4.938a9 9 0 0 1 3.532-3.312q2.25-1.188 5.046-1.188 2.813 0 4.985 1.188t3.406 3.203q1.234 2.016 1.234 4.484a9.7 9.7 0 0 1-.64 3.454q-.625 1.671-2.188 3.734-1.546 2.047-4.297 5l-7.187 7.687v.25h14.875V332zm37.079.437q-3.532 0-6.016-1.921-2.484-1.938-3.797-5.61-1.312-3.687-1.312-8.906 0-5.187 1.312-8.859 1.327-3.689 3.813-5.625 2.499-1.954 6-1.954t5.984 1.954q2.5 1.936 3.812 5.625 1.329 3.672 1.329 8.859 0 5.219-1.313 8.906-1.313 3.672-3.797 5.61-2.484 1.921-6.015 1.921m0-3.437q3.5 0 5.437-3.375t1.938-9.625q0-4.156-.891-7.078-.875-2.922-2.531-4.453-1.641-1.532-3.953-1.532-3.47 0-5.422 3.422-1.953 3.407-1.953 9.641 0 4.157.875 7.062.874 2.907 2.515 4.422 1.656 1.516 3.985 1.516m25-13q0 5.906-1.547 10.875a33.6 33.6 0 0 1-4.391 9.125h-3.25q1.125-1.547 2.094-3.812a36 36 0 0 0 1.719-4.938 46 46 0 0 0 1.14-5.578q.422-2.89.422-5.672 0-3.719-.719-7.547t-1.937-7.109q-1.22-3.282-2.719-5.344h3.25a33.5 33.5 0 0 1 4.391 9.141q1.547 4.953 1.547 10.859"/><path fill="#fff" d="M1293.06 122V90h19.31v3.438h-15.43v10.812h14.44v3.437h-14.44v10.875h15.69V122zm25.8 0V98h3.56v3.75h.31q.75-1.922 2.43-2.984c1.11-.72 2.45-1.079 4.01-1.079 1.59 0 2.9.36 3.96 1.079 1.06.708 1.89 1.703 2.48 2.984h.25c.61-1.24 1.54-2.224 2.77-2.953 1.22-.74 2.7-1.11 4.42-1.11 2.14 0 3.9.672 5.26 2.016 1.37 1.333 2.05 3.412 2.05 6.234V122h-3.69v-16.063c0-1.77-.48-3.036-1.45-3.796q-1.455-1.141-3.42-1.141c-1.69 0-3 .51-3.92 1.531-.93 1.011-1.4 2.292-1.4 3.844V122h-3.75v-16.438q0-2.046-1.32-3.296c-.89-.844-2.03-1.266-3.43-1.266-.95 0-1.85.255-2.68.766-.83.51-1.49 1.218-2 2.125q-.75 1.343-.75 3.109v15zm38.24 9V98h3.56v3.812h.44c.27-.416.65-.947 1.13-1.593.49-.656 1.18-1.24 2.09-1.75q1.38-.781 3.72-.781 3.03 0 5.34 1.515c1.54 1.011 2.75 2.443 3.61 4.297.87 1.854 1.3 4.042 1.3 6.563 0 2.541-.43 4.744-1.3 6.609-.86 1.854-2.06 3.292-3.59 4.312-1.53 1.011-3.3 1.516-5.3 1.516-1.54 0-2.77-.255-3.7-.766-.93-.52-1.64-1.109-2.14-1.765-.5-.667-.89-1.219-1.16-1.657h-.31V131zm3.63-21c0 1.812.26 3.411.79 4.797.53 1.375 1.31 2.453 2.33 3.234q1.53 1.157 3.75 1.157c1.54 0 2.83-.407 3.86-1.219q1.56-1.234 2.34-3.313c.54-1.396.8-2.948.8-4.656q0-2.531-.78-4.563c-.51-1.364-1.29-2.442-2.33-3.234-1.03-.802-2.33-1.203-3.89-1.203q-2.25 0-3.78 1.141-1.53 1.125-2.31 3.156-.78 2.016-.78 4.703m33.62-12v3.125h-12.44V98zm-8.81-5.75h3.69v22.875q0 1.563.45 2.344c.31.51.71.854 1.19 1.031.49.167 1 .25 1.54.25.41 0 .74-.021 1-.063l.63-.125.75 3.313q-.375.141-1.05.281c-.45.104-1.01.157-1.7.157q-1.56 0-3.06-.672a6.05 6.05 0 0 1-2.47-2.047c-.65-.917-.97-2.073-.97-3.469zm16.73 38.75c-.62 0-1.18-.052-1.67-.156-.49-.094-.83-.188-1.01-.281l.93-3.25c.9.229 1.69.312 2.38.249q1.035-.093 1.83-.921c.54-.542 1.03-1.422 1.48-2.641l.69-1.875L1398.02 98h4l6.63 19.125h.25L1415.52 98h4l-10.18 27.5q-.69 1.86-1.71 3.078c-.67.823-1.46 1.432-2.36 1.828q-1.32.594-3 .594m35-9V90h10.81q3.765 0 6.15 1.36 2.415 1.343 3.57 3.64c.77 1.531 1.15 3.24 1.15 5.125s-.38 3.599-1.15 5.141c-.76 1.541-1.94 2.77-3.53 3.687-1.6.906-3.64 1.359-6.13 1.359h-7.75v-3.437h7.63q2.565 0 4.14-.891c1.04-.593 1.79-1.395 2.26-2.406q.72-1.531.72-3.453t-.72-3.437q-.705-1.516-2.28-2.376c-1.05-.583-2.45-.874-4.19-.874h-6.81V122zm27.43 0V98h3.68v24zm1.87-28a2.62 2.62 0 0 1-1.86-.734 2.36 2.36 0 0 1-.76-1.766c0-.687.25-1.276.76-1.766a2.62 2.62 0 0 1 1.86-.734c.72 0 1.33.245 1.84.734.52.49.79 1.079.79 1.766s-.27 1.276-.79 1.766c-.51.49-1.12.734-1.84.734m12.25-4v32h-3.68V90zm16.82 32.5c-2.31 0-4.31-.51-5.98-1.531-1.67-1.031-2.96-2.469-3.86-4.313q-1.35-2.781-1.35-6.468 0-3.689 1.35-6.501 1.35-2.828 3.78-4.406c1.62-1.062 3.52-1.594 5.69-1.594 1.25 0 2.48.209 3.7.626q1.83.624 3.33 2.031c1 .927 1.79 2.156 2.39 3.687.59 1.531.89 3.417.89 5.656v1.563h-18.5v-3.188h14.75q0-2.03-.81-3.625a6.2 6.2 0 0 0-2.29-2.515c-.97-.615-2.13-.922-3.46-.922-1.47 0-2.74.365-3.82 1.094a7.2 7.2 0 0 0-2.45 2.812 8.3 8.3 0 0 0-.86 3.719v2.125c0 1.813.31 3.349.94 4.609q.945 1.875 2.64 2.86c1.12.646 2.43.969 3.92.969.97 0 1.84-.136 2.63-.407a5.6 5.6 0 0 0 2.04-1.25c.58-.562 1.02-1.26 1.33-2.094l3.56 1.001q-.555 1.812-1.89 3.187c-.88.906-1.98 1.615-3.28 2.125-1.3.5-2.76.75-4.39.75M1375.96 175l5.25-32h3.12l-5.25 32zm-14.57-8.875.5-3.125h23.88l-.5 3.125zm3.32 8.875 5.25-32h3.12l-5.25 32zm-1.44-20 .5-3.125h23.87l-.5 3.125zm39.69-12v32h-3.87v-27.938h-.19l-7.81 5.188v-3.938l8-5.312zm19.65 32.437c-2.36 0-4.36-.64-6.02-1.921-1.66-1.292-2.92-3.162-3.8-5.61-.87-2.458-1.31-5.427-1.31-8.906 0-3.458.44-6.411 1.31-8.859.89-2.459 2.16-4.334 3.82-5.625q2.49-1.954 6-1.954c2.33 0 4.32.652 5.98 1.954q2.505 1.936 3.81 5.625c.89 2.448 1.33 5.401 1.33 8.859 0 3.479-.44 6.448-1.31 8.906-.88 2.448-2.14 4.318-3.8 5.61-1.66 1.281-3.66 1.921-6.01 1.921m0-3.437q3.495 0 5.43-3.375c1.29-2.25 1.94-5.458 1.94-9.625 0-2.771-.3-5.13-.89-7.078-.58-1.948-1.43-3.432-2.53-4.453s-2.41-1.532-3.95-1.532c-2.32 0-4.12 1.141-5.43 3.422q-1.95 3.407-1.95 9.641c0 2.771.29 5.125.88 7.062.58 1.938 1.42 3.412 2.51 4.422 1.11 1.011 2.43 1.516 3.99 1.516"/><path fill="#727272" d="M1301.7 316q0-5.907 1.53-10.859c1.03-3.313 2.5-6.36 4.4-9.141h3.25c-.75 1.031-1.45 2.302-2.11 3.812-.64 1.5-1.21 3.152-1.7 4.954a49 49 0 0 0-1.16 5.562c-.27 1.917-.4 3.807-.4 5.672q0 3.719.72 7.547c.48 2.552 1.12 4.922 1.93 7.109.82 2.188 1.72 3.969 2.72 5.344h-3.25a34 34 0 0 1-4.4-9.125q-1.53-4.97-1.53-10.875m25 16.437c-2.35 0-4.36-.64-6.02-1.921-1.65-1.292-2.92-3.162-3.79-5.61q-1.32-3.687-1.32-8.906 0-5.187 1.32-8.859 1.32-3.689 3.81-5.625 2.505-1.954 6-1.954c2.33 0 4.33.652 5.98 1.954 1.67 1.291 2.94 3.166 3.82 5.625q1.32 3.672 1.32 8.859c0 3.479-.43 6.448-1.31 8.906-.87 2.448-2.14 4.318-3.8 5.61-1.65 1.281-3.66 1.921-6.01 1.921m0-3.437c2.33 0 4.15-1.125 5.44-3.375s1.93-5.458 1.93-9.625c0-2.771-.29-5.13-.89-7.078-.58-1.948-1.42-3.432-2.53-4.453-1.09-1.021-2.41-1.532-3.95-1.532-2.31 0-4.12 1.141-5.42 3.422-1.3 2.271-1.96 5.485-1.96 9.641 0 2.771.3 5.125.88 7.062s1.42 3.412 2.51 4.422q1.665 1.516 3.99 1.516m27.25-29.438c1.31.011 2.62.261 3.94.75 1.31.49 2.51 1.303 3.59 2.438q1.62 1.687 2.61 4.609c.66 1.948.98 4.391.98 7.329q0 4.265-.81 7.578-.795 3.297-2.31 5.562-1.5 2.266-3.66 3.438c-1.42.781-3.04 1.171-4.84 1.171q-2.685 0-4.8-1.062a9.5 9.5 0 0 1-3.44-2.984c-.88-1.282-1.45-2.766-1.7-4.454h3.81c.35 1.469 1.03 2.683 2.05 3.641q1.545 1.422 4.08 1.422c2.47 0 4.42-1.078 5.84-3.234q2.16-3.235 2.16-9.141h-.25a9.8 9.8 0 0 1-2.08 2.266 9.1 9.1 0 0 1-2.67 1.468c-.98.344-2.02.516-3.13.516q-2.745 0-5.04-1.359-2.28-1.375-3.66-3.766c-.91-1.604-1.36-3.438-1.36-5.5 0-1.958.44-3.75 1.31-5.375a10.2 10.2 0 0 1 3.72-3.906c1.61-.969 3.49-1.438 5.66-1.407m0 3.438c-1.31 0-2.5.328-3.55.984a7.05 7.05 0 0 0-2.48 2.625c-.61 1.094-.91 2.308-.91 3.641s.29 2.547.88 3.641a6.95 6.95 0 0 0 2.42 2.593q1.545.954 3.51.954c.99 0 1.92-.193 2.77-.579a7.1 7.1 0 0 0 2.23-1.609 7.7 7.7 0 0 0 1.52-2.328c.36-.875.55-1.787.55-2.735 0-1.25-.31-2.421-.91-3.515a7.2 7.2 0 0 0-2.47-2.656c-1.04-.677-2.23-1.016-3.56-1.016m28.52-3v32h-3.88v-27.938h-.18l-7.82 5.188v-3.938l8-5.312zm23.01 14.281v3.438h-14v-3.438zM1423.16 300v32h-3.87v-27.938h-.19l-7.81 5.188v-3.938l8-5.312zm19.64 32.437c-2.35 0-4.36-.64-6.01-1.921-1.66-1.292-2.93-3.162-3.8-5.61-.88-2.458-1.31-5.427-1.31-8.906 0-3.458.43-6.411 1.31-8.859q1.32-3.689 3.81-5.625 2.505-1.954 6-1.954c2.33 0 4.33.652 5.99 1.954q2.49 1.936 3.81 5.625c.88 2.448 1.33 5.401 1.33 8.859q0 5.219-1.32 8.906c-.87 2.448-2.14 4.318-3.79 5.61-1.66 1.281-3.67 1.921-6.02 1.921m0-3.437c2.33 0 4.15-1.125 5.44-3.375s1.94-5.458 1.94-9.625c0-2.771-.3-5.13-.89-7.078s-1.43-3.432-2.54-4.453c-1.09-1.021-2.41-1.532-3.95-1.532-2.31 0-4.12 1.141-5.42 3.422q-1.95 3.407-1.95 9.641 0 4.157.87 7.062.87 2.907 2.52 4.422c1.1 1.011 2.43 1.516 3.98 1.516m27.5 3.437c-2.35 0-4.36-.64-6.01-1.921-1.66-1.292-2.93-3.162-3.8-5.61-.88-2.458-1.31-5.427-1.31-8.906 0-3.458.43-6.411 1.31-8.859q1.32-3.689 3.81-5.625 2.505-1.954 6-1.954c2.33 0 4.33.652 5.99 1.954q2.49 1.936 3.81 5.625c.88 2.448 1.33 5.401 1.33 8.859q0 5.219-1.32 8.906c-.87 2.448-2.14 4.318-3.79 5.61-1.66 1.281-3.67 1.921-6.02 1.921m0-3.437c2.33 0 4.15-1.125 5.44-3.375s1.94-5.458 1.94-9.625c0-2.771-.3-5.13-.89-7.078s-1.43-3.432-2.54-4.453c-1.09-1.021-2.41-1.532-3.95-1.532-2.31 0-4.12 1.141-5.42 3.422q-1.95 3.407-1.95 9.641 0 4.157.87 7.062.87 2.907 2.52 4.422c1.1 1.011 2.43 1.516 3.98 1.516m25-13c0 3.937-.51 7.562-1.55 10.875-1.02 3.302-2.48 6.344-4.39 9.125h-3.25q1.125-1.547 2.1-3.812c.65-1.5 1.23-3.146 1.72-4.938a45 45 0 0 0 1.14-5.578q.42-2.89.42-5.672 0-3.719-.72-7.547c-.48-2.552-1.13-4.922-1.94-7.109s-1.72-3.969-2.72-5.344h3.25c1.91 2.781 3.37 5.828 4.39 9.141 1.04 3.302 1.55 6.921 1.55 10.859"/><rect width="467" height="451" x="1" y="1" stroke="#d4d4d4" stroke-dasharray="20 20" stroke-width="2" rx="26"/><rect width="467" height="451" x="500" y="1" stroke="#d4d4d4" stroke-dasharray="20 20" stroke-width="2" rx="26"/><rect width="467" height="451" x="1165" y="1" stroke="#d4d4d4" stroke-dasharray="20 20" stroke-width="2" rx="26"/><circle cx="1032" cy="218" r="8" fill="#d9d9d9"/><circle cx="1032" cy="218" r="8" fill="#d9d9d9"/><circle cx="1066" cy="218" r="8" fill="#d9d9d9"/><circle cx="1100" cy="218" r="8" fill="#d9d9d9"/></svg>