<svg xmlns="http://www.w3.org/2000/svg" width="1080" height="209" fill="none" viewBox="0 0 1080 209"><rect width="1078" height="120" x="1" y="88" stroke="#dbdbdb" stroke-width="2" rx="26"/><path stroke="#dbdbdb" stroke-width="2" d="M121 87v122M241 87v122M362 87v122M482 87v122M602 87v122M722 87v122M841 87v122M960 87v122"/><path fill="#fff" d="M59.5 162.398q-3.21 0-5.469-1.747-2.258-1.762-3.451-5.1-1.194-3.353-1.194-8.096 0-4.716 1.194-8.054 1.208-3.353 3.465-5.114 2.274-1.776 5.455-1.776t5.44 1.776q2.273 1.761 3.466 5.114 1.208 3.338 1.208 8.054 0 4.743-1.194 8.096-1.193 3.338-3.451 5.1-2.259 1.746-5.469 1.747m0-3.125q3.182 0 4.943-3.068 1.761-3.07 1.761-8.75 0-3.779-.81-6.435-.795-2.656-2.3-4.048-1.492-1.392-3.594-1.392-3.153 0-4.929 3.11-1.776 3.097-1.776 8.765 0 3.778.796 6.42.795 2.642 2.287 4.02 1.506 1.377 3.622 1.378M183.442 132.909V162h-3.523v-25.398h-.17l-7.103 4.716v-3.579l7.273-4.83zM290.402 162v-2.557l9.602-10.511a67 67 0 0 0 2.784-3.21q1.094-1.379 1.62-2.586a6.25 6.25 0 0 0 .539-2.556q0-1.535-.738-2.657-.724-1.121-1.989-1.733-1.264-.61-2.841-.61-1.676 0-2.926.696a4.8 4.8 0 0 0-1.917 1.917q-.668 1.236-.668 2.898h-3.352q0-2.557 1.179-4.489a8.2 8.2 0 0 1 3.21-3.011q2.045-1.08 4.588-1.08 2.556 0 4.531 1.08t3.097 2.912 1.122 4.077q0 1.605-.582 3.139-.569 1.52-1.989 3.395-1.407 1.86-3.906 4.545l-6.534 6.989v.227h13.522V162zM398.782 24.276q-.17-1.719-1.463-2.67-1.292-.953-3.508-.953-1.506 0-2.543.427-1.036.412-1.591 1.15a2.77 2.77 0 0 0-.54 1.676q-.028.782.327 1.364.37.582 1.009 1.008.639.413 1.477.725.838.299 1.79.511l2.613.625a18.5 18.5 0 0 1 3.495 1.137q1.59.71 2.755 1.747a7.25 7.25 0 0 1 1.804 2.443q.654 1.406.668 3.224-.014 2.67-1.364 4.631-1.335 1.946-3.863 3.026-2.514 1.065-6.066 1.065-3.522 0-6.136-1.08-2.6-1.08-4.063-3.196-1.448-2.13-1.519-5.27h5.951q.1 1.463.838 2.444.753.965 2.003 1.463 1.265.483 2.855.483 1.563 0 2.713-.455 1.165-.454 1.804-1.264.64-.81.64-1.86 0-.98-.583-1.649-.568-.667-1.676-1.136-1.094-.469-2.685-.852l-3.167-.796q-3.679-.894-5.81-2.798t-2.116-5.128q-.015-2.642 1.406-4.616 1.434-1.975 3.935-3.083 2.5-1.107 5.681-1.108 3.239 0 5.654 1.108 2.429 1.108 3.778 3.083 1.35 1.974 1.392 4.574zm20.174 21.15q-3.309 0-5.724-1.406-2.4-1.42-3.707-3.949-1.308-2.543-1.307-5.895 0-3.38 1.307-5.909 1.307-2.542 3.707-3.949 2.415-1.42 5.724-1.42t5.711 1.42q2.414 1.407 3.721 3.949 1.307 2.528 1.307 5.91 0 3.351-1.307 5.894-1.307 2.529-3.721 3.949-2.401 1.406-5.711 1.406m.029-4.687q1.506 0 2.514-.853 1.008-.866 1.52-2.358.525-1.49.525-3.395 0-1.902-.525-3.394-.512-1.492-1.52-2.358t-2.514-.867q-1.52 0-2.557.867-1.023.866-1.548 2.358-.512 1.492-.512 3.394 0 1.904.512 3.395.525 1.492 1.548 2.358 1.036.853 2.557.853M433.63 45V23.182h5.866v3.807h.227q.597-2.032 2.003-3.068 1.407-1.052 3.239-1.052.455 0 .98.057t.923.156v5.37a8 8 0 0 0-1.179-.228q-.753-.099-1.378-.099-1.335 0-2.386.582-1.036.57-1.648 1.591-.596 1.023-.596 2.358V45zm29.066-21.818v4.545h-13.14v-4.545zm-10.157-5.227h6.052v20.34q0 .84.255 1.307.256.454.71.64.47.184 1.08.184.426 0 .852-.07.426-.086.654-.129l.951 4.503q-.454.143-1.278.327-.824.198-2.003.241-2.188.086-3.835-.582-1.634-.667-2.543-2.074t-.895-3.551zm23.807 27.471q-3.366 0-5.795-1.364-2.415-1.377-3.722-3.892-1.307-2.527-1.307-5.98 0-3.366 1.307-5.909t3.679-3.963q2.387-1.42 5.597-1.42 2.159 0 4.02.696a8.9 8.9 0 0 1 3.267 2.06q1.406 1.377 2.187 3.465.781 2.074.781 4.858v1.662h-18.423v-3.75h12.727q0-1.307-.568-2.315a4.07 4.07 0 0 0-1.576-1.577q-.995-.582-2.316-.582-1.377 0-2.443.639-1.051.625-1.648 1.69-.596 1.051-.611 2.344v3.565q0 1.62.597 2.799.61 1.179 1.719 1.818 1.107.64 2.628.64 1.009 0 1.846-.285a3.8 3.8 0 0 0 1.435-.852q.597-.57.909-1.392l5.597.369a7.64 7.64 0 0 1-1.748 3.523q-1.307 1.49-3.38 2.33-2.06.823-4.759.823m22.003-.07q-2.486 0-4.503-1.28-2.003-1.291-3.182-3.792-1.164-2.514-1.164-6.165 0-3.75 1.207-6.235 1.208-2.5 3.21-3.736a8.23 8.23 0 0 1 4.418-1.25q1.831 0 3.054.625 1.236.61 1.988 1.534.768.91 1.165 1.79h.185V15.909h6.037V45h-5.966v-3.494h-.256a7.8 7.8 0 0 1-1.207 1.804q-.767.88-2.003 1.463-1.221.582-2.983.582m1.918-4.816q1.463 0 2.471-.796 1.023-.81 1.563-2.258.554-1.45.554-3.395t-.54-3.38-1.563-2.217-2.485-.78q-1.492 0-2.515.809-1.021.81-1.548 2.244-.525 1.435-.525 3.324 0 1.904.525 3.366.54 1.45 1.548 2.273 1.023.81 2.515.81m49.176-24.63V45h-5.313l-12.656-18.31h-.213V45h-6.151V15.91h5.398l12.557 18.295h.256V15.909zm18.959 19.8V23.182h6.051V45h-5.809v-3.963h-.227a6.45 6.45 0 0 1-2.458 3.082q-1.704 1.165-4.162 1.165-2.187 0-3.849-.994t-2.6-2.827q-.923-1.832-.937-4.39V23.183h6.051v12.812q.014 1.932 1.037 3.054t2.741 1.122q1.094 0 2.046-.497a3.9 3.9 0 0 0 1.534-1.505q.597-.994.582-2.458M579.294 45V23.182h5.767v3.85h.255q.683-1.92 2.273-3.026 1.592-1.108 3.807-1.108 2.244 0 3.821 1.122 1.577 1.108 2.102 3.011h.228q.668-1.875 2.414-2.997 1.762-1.136 4.162-1.136 3.054 0 4.958 1.946 1.917 1.932 1.917 5.483V45h-6.037V31.52q0-1.818-.966-2.727-.966-.91-2.414-.91-1.649 0-2.571 1.052-.924 1.036-.924 2.741V45h-5.866V31.392q0-1.605-.923-2.557-.91-.951-2.401-.951-1.008 0-1.818.51-.796.498-1.264 1.407-.47.896-.469 2.102V45zm36.598 0V15.91h6.051v10.937h.184q.399-.882 1.151-1.79.766-.924 1.989-1.534 1.236-.625 3.068-.625 2.387 0 4.403 1.25 2.017 1.236 3.225 3.736 1.207 2.485 1.207 6.235 0 3.651-1.179 6.165-1.164 2.5-3.182 3.793-2.003 1.278-4.488 1.278-1.762 0-2.997-.582-1.222-.583-2.003-1.463-.781-.895-1.194-1.804h-.269V45zm5.923-10.91q0 1.947.54 3.396.54 1.45 1.562 2.258 1.023.795 2.486.796 1.477 0 2.5-.81 1.023-.825 1.548-2.273.54-1.462.54-3.366 0-1.89-.525-3.324-.526-1.434-1.549-2.244t-2.514-.81q-1.477 0-2.5.781-1.008.782-1.548 2.216-.54 1.436-.54 3.38m29.336 11.336q-3.366 0-5.796-1.364-2.414-1.377-3.721-3.892-1.307-2.527-1.307-5.98 0-3.366 1.307-5.909t3.679-3.963q2.386-1.42 5.596-1.42 2.16 0 4.02.696a8.9 8.9 0 0 1 3.267 2.06q1.407 1.377 2.188 3.465.781 2.074.781 4.858v1.662h-18.423v-3.75h12.727q0-1.307-.568-2.315a4.07 4.07 0 0 0-1.577-1.577q-.994-.582-2.315-.582-1.378 0-2.443.639-1.051.625-1.648 1.69-.596 1.051-.611 2.344v3.565q0 1.62.597 2.799.61 1.179 1.719 1.818 1.107.64 2.627.64 1.009 0 1.847-.285a3.8 3.8 0 0 0 1.435-.852q.596-.57.909-1.392l5.596.369a7.64 7.64 0 0 1-1.747 3.523q-1.307 1.49-3.381 2.33-2.06.823-4.758.823M665.114 45V23.182h5.866v3.807h.228q.596-2.032 2.003-3.068 1.406-1.052 3.238-1.052.455 0 .98.057.526.057.924.156v5.37a8 8 0 0 0-1.179-.228 11 11 0 0 0-1.378-.099q-1.335 0-2.387.582-1.037.57-1.647 1.591-.597 1.023-.597 2.358V45zm34.521-15.597-5.54.341a2.86 2.86 0 0 0-.611-1.278 3.24 3.24 0 0 0-1.236-.923q-.753-.355-1.804-.355-1.406 0-2.372.596-.966.583-.966 1.563 0 .78.625 1.32t2.145.867l3.949.796q3.182.653 4.744 2.102 1.563 1.449 1.563 3.807 0 2.145-1.264 3.764-1.251 1.62-3.438 2.528-2.173.895-5.014.895-4.333 0-6.904-1.804-2.556-1.818-2.997-4.943l5.952-.312q.27 1.32 1.307 2.017 1.036.681 2.656.681 1.591 0 2.557-.61.98-.625.994-1.606-.013-.824-.696-1.349-.681-.54-2.102-.824l-3.779-.753q-3.195-.64-4.758-2.216-1.548-1.575-1.548-4.02 0-2.101 1.136-3.622 1.15-1.52 3.224-2.343 2.088-.825 4.887-.824 4.133 0 6.505 1.747 2.386 1.747 2.785 4.758M409.998 156.034v-2.898l12.784-20.227h2.102v4.489h-1.421l-9.659 15.284v.227h17.216v3.125zM423.691 162v-29.091h3.352V162zM540.434 162.398q-2.499 0-4.503-.995-2.003-.994-3.21-2.727t-1.321-3.949h3.409q.199 1.976 1.79 3.267 1.606 1.28 3.835 1.279 1.79 0 3.182-.838a5.9 5.9 0 0 0 2.202-2.301q.81-1.478.809-3.339 0-1.903-.838-3.394a6.15 6.15 0 0 0-2.272-2.373q-1.449-.866-3.31-.88a9 9 0 0 0-2.741.412q-1.407.411-2.316 1.065l-3.295-.398 1.761-14.318h15.114v3.125h-12.159l-1.023 8.58h.17q.895-.711 2.245-1.179a8.5 8.5 0 0 1 2.812-.469q2.671 0 4.759 1.278a8.93 8.93 0 0 1 3.295 3.466q1.208 2.202 1.208 5.029 0 2.784-1.25 4.971a9.14 9.14 0 0 1-3.41 3.438q-2.172 1.25-4.943 1.25M660.69 162.398a10.9 10.9 0 0 1-3.58-.682q-1.79-.654-3.267-2.202-1.476-1.562-2.372-4.219-.894-2.67-.895-6.704 0-3.864.725-6.847.724-2.997 2.102-5.042 1.379-2.06 3.324-3.125 1.96-1.066 4.418-1.066 2.442 0 4.346.98a8.3 8.3 0 0 1 3.125 2.699q1.207 1.733 1.563 3.992h-3.466q-.483-1.96-1.875-3.253t-3.693-1.293q-3.381 0-5.327 2.941-1.932 2.94-1.946 8.253h.227a8.54 8.54 0 0 1 4.332-3.395 8.5 8.5 0 0 1 2.827-.469q2.5 0 4.574 1.25 2.075 1.236 3.324 3.423 1.25 2.173 1.25 4.986 0 2.699-1.207 4.943a9.2 9.2 0 0 1-3.395 3.551q-2.174 1.308-5.114 1.279m0-3.125q1.79 0 3.21-.895a6.4 6.4 0 0 0 2.259-2.401q.837-1.506.838-3.352 0-1.804-.81-3.281a6.16 6.16 0 0 0-2.202-2.372q-1.392-.881-3.181-.881-1.35 0-2.515.54a6.5 6.5 0 0 0-2.045 1.449 7 7 0 0 0-1.364 2.116 6.3 6.3 0 0 0-.497 2.486q0 1.733.81 3.238a6.66 6.66 0 0 0 2.244 2.429q1.435.924 3.253.924M772.995 162l13.011-25.739v-.227h-15v-3.125h18.636v3.296L776.688 162zM899.505 162.398q-2.926 0-5.17-1.037-2.23-1.051-3.48-2.884-1.251-1.846-1.236-4.204-.015-1.847.724-3.409a7.4 7.4 0 0 1 2.017-2.628 6.2 6.2 0 0 1 2.884-1.35v-.17q-2.088-.54-3.324-2.344-1.236-1.818-1.221-4.133-.015-2.217 1.122-3.963 1.136-1.748 3.125-2.756 2.003-1.008 4.559-1.009 2.53 0 4.517 1.009 1.99 1.008 3.125 2.756 1.151 1.746 1.165 3.963-.014 2.315-1.264 4.133-1.236 1.804-3.281 2.344v.17q1.576.285 2.841 1.35a7.66 7.66 0 0 1 2.017 2.628q.752 1.562.767 3.409-.015 2.358-1.279 4.204-1.25 1.833-3.48 2.884-2.215 1.037-5.128 1.037m0-3.125q1.975 0 3.409-.639 1.435-.64 2.216-1.804t.796-2.728q-.015-1.647-.852-2.912-.839-1.263-2.287-1.988-1.436-.725-3.282-.725-1.86 0-3.324.725-1.448.725-2.286 1.988-.825 1.265-.81 2.912-.015 1.563.753 2.728.781 1.164 2.23 1.804 1.45.639 3.437.639m0-13.807q1.563 0 2.77-.625a4.75 4.75 0 0 0 1.918-1.747q.696-1.122.71-2.628-.014-1.478-.696-2.571a4.5 4.5 0 0 0-1.889-1.705q-1.208-.61-2.813-.61-1.633 0-2.855.61-1.221.597-1.889 1.705-.668 1.094-.653 2.571-.014 1.506.667 2.628a4.75 4.75 0 0 0 1.918 1.747q1.221.625 2.812.625M1018.29 132.511c1.2.01 2.39.237 3.58.682q1.785.668 3.27 2.216 1.47 1.535 2.37 4.19.9 2.657.9 6.662c0 2.586-.25 4.882-.74 6.89-.49 1.998-1.19 3.683-2.11 5.056-.9 1.373-2.01 2.415-3.32 3.125-1.3.711-2.76 1.066-4.4 1.066-1.63 0-3.08-.322-4.36-.966a8.6 8.6 0 0 1-3.13-2.713c-.8-1.165-1.32-2.514-1.55-4.049h3.47q.465 2.004 1.86 3.31c.94.862 2.17 1.293 3.71 1.293q3.36 0 5.31-2.941c1.31-1.96 1.96-4.73 1.96-8.309h-.23a8.9 8.9 0 0 1-1.89 2.059 8.2 8.2 0 0 1-2.43 1.336c-.89.312-1.83.468-2.84.468-1.66 0-3.19-.412-4.58-1.235-1.39-.834-2.49-1.975-3.33-3.424q-1.23-2.187-1.23-5c0-1.78.39-3.409 1.19-4.886a9.2 9.2 0 0 1 3.38-3.551c1.46-.881 3.17-1.307 5.14-1.279m0 3.125c-1.19 0-2.27.299-3.22.895a6.4 6.4 0 0 0-2.26 2.387c-.55.994-.82 2.097-.82 3.309s.26 2.316.79 3.31a6.33 6.33 0 0 0 2.2 2.358c.94.578 2.01.866 3.2.866.9 0 1.74-.175 2.51-.525.78-.36 1.46-.848 2.03-1.463a7 7 0 0 0 1.38-2.117c.33-.795.5-1.624.5-2.486 0-1.136-.28-2.201-.82-3.196a6.5 6.5 0 0 0-2.25-2.414q-1.425-.924-3.24-.924"/></svg>