<svg xmlns="http://www.w3.org/2000/svg" width="648" height="611" fill="none" viewBox="0 0 648 611"><path fill="#995e00" d="M87 234c0-14.912 12.088-27 27-27h93v122h-93c-14.912 0-27-12.088-27-27z"/><path fill="#540099" d="M87 412c0-14.912 12.088-27 27-27h93v122h-93c-14.912 0-27-12.088-27-27z"/><path fill="#fff" d="M76.939 15.91h7.585l8.011 19.545h.341l8.011-19.546h7.586V45h-5.966V26.065h-.242l-7.528 18.793h-4.063l-7.528-18.864h-.242V45H76.94zm46.431 29.516q-3.367 0-5.796-1.364-2.415-1.377-3.721-3.892-1.308-2.527-1.307-5.98 0-3.366 1.307-5.909t3.679-3.963q2.386-1.42 5.596-1.42 2.16 0 4.02.696a8.9 8.9 0 0 1 3.267 2.06q1.407 1.377 2.188 3.465.78 2.074.781 4.858v1.662h-18.423v-3.75h12.727q0-1.307-.568-2.315a4.07 4.07 0 0 0-1.577-1.577q-.995-.582-2.315-.582-1.378 0-2.444.639-1.05.625-1.647 1.69-.597 1.051-.611 2.344v3.565q0 1.62.597 2.799.61 1.179 1.718 1.818 1.108.64 2.628.64 1.008 0 1.847-.285a3.8 3.8 0 0 0 1.434-.852q.597-.57.909-1.392l5.597.369a7.64 7.64 0 0 1-1.747 3.523q-1.306 1.49-3.381 2.33-2.06.823-4.758.823M137.333 45V23.182h5.866v3.807h.227q.597-2.032 2.003-3.068 1.406-1.052 3.239-1.052.455 0 .98.057t.923.156v5.37a8 8 0 0 0-1.179-.228q-.752-.099-1.377-.099-1.336 0-2.387.582-1.036.57-1.648 1.591-.596 1.023-.596 2.358V45zm25.181 8.636q-2.94 0-5.043-.81-2.088-.795-3.324-2.173-1.235-1.377-1.605-3.096l5.597-.753q.255.654.81 1.222.554.567 1.463.909.922.354 2.244.355 1.974 0 3.253-.966 1.292-.952 1.292-3.196v-3.992h-.255q-.398.91-1.194 1.72t-2.045 1.32q-1.25.511-2.983.511-2.458 0-4.474-1.136-2.004-1.15-3.196-3.508-1.179-2.373-1.179-5.995 0-3.707 1.207-6.193t3.21-3.721a8.3 8.3 0 0 1 4.418-1.236q1.832 0 3.068.625 1.236.61 1.989 1.534.767.91 1.179 1.79h.227v-3.665h6.008v22.031q0 2.785-1.363 4.66-1.364 1.875-3.779 2.812-2.4.951-5.525.951m.128-13.494q1.463 0 2.471-.724 1.023-.74 1.563-2.103.554-1.378.554-3.295 0-1.919-.54-3.324-.54-1.42-1.563-2.202-1.022-.78-2.485-.78-1.492 0-2.515.809-1.022.795-1.548 2.216-.525 1.42-.525 3.28 0 1.89.525 3.268.54 1.363 1.548 2.116 1.023.74 2.515.739M177.997 45V23.182h6.051V45zm3.04-24.63q-1.35 0-2.316-.896-.951-.909-.951-2.173 0-1.25.951-2.145.966-.909 2.316-.909t2.301.91q.966.894.966 2.144 0 1.264-.966 2.173-.952.895-2.301.895m13.909 12.016V45h-6.051V23.182h5.767v3.85h.256a6.1 6.1 0 0 1 2.429-3.012q1.704-1.122 4.133-1.122 2.274 0 3.964.994t2.627 2.841q.938 1.832.938 4.375V45h-6.051V32.188q.013-2.003-1.023-3.126-1.037-1.136-2.855-1.136-1.221 0-2.159.526-.924.525-1.449 1.534-.511.995-.526 2.4m28.662 21.25q-2.94 0-5.043-.81-2.088-.795-3.324-2.173-1.236-1.377-1.605-3.096l5.597-.753q.255.654.809 1.222.554.567 1.463.909.924.354 2.245.355 1.974 0 3.252-.966 1.293-.952 1.293-3.196v-3.992h-.256q-.397.91-1.193 1.72-.795.81-2.045 1.32-1.25.511-2.983.511-2.457 0-4.475-1.136-2.002-1.15-3.196-3.508-1.179-2.373-1.179-5.995 0-3.707 1.208-6.193t3.21-3.721a8.3 8.3 0 0 1 4.418-1.236q1.832 0 3.068.625 1.236.61 1.988 1.534.768.91 1.179 1.79h.228v-3.665h6.008v22.031q0 2.785-1.363 4.66-1.364 1.875-3.779 2.812-2.4.951-5.525.951m.127-13.494q1.464 0 2.472-.724 1.023-.74 1.563-2.103.554-1.378.554-3.295 0-1.919-.54-3.324-.54-1.42-1.563-2.202-1.022-.78-2.486-.78-1.491 0-2.514.809-1.023.795-1.548 2.216-.525 1.42-.526 3.28 0 1.89.526 3.268.54 1.363 1.548 2.116 1.023.74 2.514.739m23.619-19.162v-5.07h23.892v5.07h-8.906V45h-6.08V20.98zM276.871 45l-5.937-21.818h6.122l3.38 14.659h.199l3.523-14.66h6.009l3.579 14.575h.185l3.324-14.574h6.108L297.439 45h-6.406l-3.75-13.722h-.27L283.263 45zm39.031.426q-3.31 0-5.725-1.406-2.4-1.42-3.707-3.949-1.307-2.543-1.307-5.895 0-3.38 1.307-5.909 1.307-2.542 3.707-3.949 2.415-1.42 5.725-1.42t5.71 1.42q2.415 1.407 3.721 3.949 1.308 2.528 1.307 5.91 0 3.351-1.307 5.894-1.306 2.529-3.721 3.949-2.401 1.406-5.71 1.406m.028-4.687q1.506 0 2.514-.853 1.009-.866 1.52-2.358.526-1.49.526-3.395 0-1.902-.526-3.394-.511-1.492-1.52-2.358t-2.514-.867q-1.52 0-2.557.867-1.023.866-1.548 2.358-.511 1.492-.511 3.394 0 1.904.511 3.395.525 1.492 1.548 2.358 1.038.853 2.557.853m39.798-16.463q-.171-1.719-1.463-2.67-1.293-.953-3.509-.953-1.505 0-2.543.427-1.036.412-1.59 1.15a2.77 2.77 0 0 0-.54 1.676q-.028.782.326 1.364.37.582 1.009 1.008.64.413 1.477.725.839.299 1.79.511l2.614.625a18.4 18.4 0 0 1 3.494 1.137q1.591.71 2.756 1.747a7.3 7.3 0 0 1 1.804 2.443q.653 1.406.667 3.224-.014 2.67-1.363 4.631-1.336 1.946-3.864 3.026-2.514 1.065-6.065 1.065-3.523 0-6.137-1.08-2.6-1.08-4.062-3.196-1.45-2.13-1.52-5.27h5.952q.099 1.463.838 2.444.753.965 2.002 1.463 1.265.483 2.856.483 1.562 0 2.713-.455 1.164-.454 1.804-1.264a2.92 2.92 0 0 0 .639-1.86q0-.98-.583-1.649-.567-.667-1.676-1.136-1.094-.469-2.684-.852l-3.168-.796q-3.679-.894-5.81-2.798t-2.116-5.128q-.015-2.642 1.406-4.616 1.435-1.975 3.935-3.083 2.499-1.107 5.682-1.108 3.238 0 5.653 1.108 2.429 1.108 3.778 3.083 1.35 1.974 1.393 4.574zm20.174 21.15q-3.31 0-5.725-1.406-2.4-1.42-3.707-3.949-1.307-2.543-1.307-5.895 0-3.38 1.307-5.909 1.307-2.542 3.707-3.949 2.415-1.42 5.725-1.42t5.71 1.42q2.415 1.407 3.721 3.949 1.308 2.528 1.307 5.91 0 3.351-1.307 5.894-1.306 2.529-3.721 3.949-2.401 1.406-5.71 1.406m.028-4.687q1.506 0 2.514-.853 1.009-.866 1.52-2.358.526-1.49.526-3.395 0-1.902-.526-3.394-.511-1.492-1.52-2.358t-2.514-.867q-1.52 0-2.557.867-1.023.866-1.548 2.358-.511 1.492-.511 3.394 0 1.904.511 3.395.525 1.492 1.548 2.358 1.038.853 2.557.853M390.575 45V23.182h5.866v3.807h.228q.596-2.032 2.003-3.068 1.406-1.052 3.238-1.052.455 0 .98.057.526.057.924.156v5.37a8 8 0 0 0-1.179-.228 11 11 0 0 0-1.378-.099q-1.335 0-2.387.582-1.037.57-1.647 1.591-.597 1.023-.597 2.358V45zm29.066-21.818v4.545h-13.139v-4.545zm-10.156-5.227h6.051v20.34q0 .84.256 1.307.255.454.71.64.468.184 1.079.184.427 0 .853-.07.425-.086.653-.129l.952 4.503q-.454.143-1.279.327-.824.198-2.003.241-2.187.086-3.835-.582-1.633-.667-2.542-2.074-.91-1.406-.895-3.551zm23.807 27.471q-3.368 0-5.796-1.364-2.415-1.377-3.721-3.892-1.308-2.527-1.307-5.98 0-3.366 1.307-5.909t3.678-3.963q2.387-1.42 5.597-1.42 2.159 0 4.02.696a8.9 8.9 0 0 1 3.267 2.06q1.407 1.377 2.188 3.465.78 2.074.781 4.858v1.662h-18.424v-3.75h12.728q0-1.307-.568-2.315a4.07 4.07 0 0 0-1.577-1.577q-.995-.582-2.315-.582-1.378 0-2.444.639-1.05.625-1.647 1.69-.597 1.051-.611 2.344v3.565q0 1.62.596 2.799a4.38 4.38 0 0 0 1.719 1.818q1.108.64 2.628.64 1.008 0 1.847-.285a3.8 3.8 0 0 0 1.434-.852q.597-.57.909-1.392l5.597.369a7.65 7.65 0 0 1-1.747 3.523q-1.306 1.49-3.381 2.33-2.06.823-4.758.823m22.002-.07q-2.486 0-4.502-1.28-2.003-1.291-3.182-3.792-1.165-2.514-1.165-6.165 0-3.75 1.207-6.235 1.207-2.5 3.211-3.736a8.2 8.2 0 0 1 4.417-1.25q1.833 0 3.054.625 1.236.61 1.989 1.534.766.91 1.165 1.79h.184V15.909h6.037V45h-5.966v-3.494h-.255a7.8 7.8 0 0 1-1.208 1.804q-.767.88-2.003 1.463-1.22.582-2.983.582m1.918-4.816q1.463 0 2.472-.796 1.022-.81 1.562-2.258.554-1.45.554-3.395t-.54-3.38-1.562-2.217q-1.023-.78-2.486-.78-1.491 0-2.514.809-1.023.81-1.548 2.244t-.526 3.324q0 1.904.526 3.366.538 1.45 1.548 2.273 1.023.81 2.514.81M482.056 45V15.91h11.477q3.31 0 5.639 1.263 2.33 1.251 3.551 3.48 1.236 2.217 1.236 5.114 0 2.898-1.25 5.114t-3.622 3.451q-2.358 1.236-5.71 1.236h-7.316V30.64h6.321q1.776 0 2.927-.61 1.164-.625 1.733-1.72.582-1.107.582-2.542 0-1.45-.582-2.528-.569-1.095-1.733-1.69-1.166-.611-2.955-.611h-4.148V45zm25.785 0V23.182h6.051V45zm3.039-24.63q-1.349 0-2.315-.896-.952-.909-.952-2.173 0-1.25.952-2.145.966-.909 2.315-.909 1.35 0 2.301.91.966.894.966 2.144 0 1.264-.966 2.173-.951.895-2.301.895m13.91-4.46V45h-6.051V15.91zm14.791 29.516q-3.367 0-5.796-1.364-2.415-1.377-3.721-3.892-1.308-2.527-1.307-5.98 0-3.366 1.307-5.909t3.679-3.963q2.386-1.42 5.596-1.42 2.16 0 4.02.696a8.9 8.9 0 0 1 3.267 2.06q1.407 1.377 2.188 3.465.78 2.074.781 4.858v1.662h-18.423v-3.75h12.727q0-1.307-.568-2.315a4.07 4.07 0 0 0-1.577-1.577q-.995-.582-2.315-.582-1.378 0-2.444.639-1.05.625-1.647 1.69-.597 1.051-.611 2.344v3.565q0 1.62.596 2.799a4.38 4.38 0 0 0 1.719 1.818q1.108.64 2.628.64 1.008 0 1.847-.285a3.8 3.8 0 0 0 1.434-.852q.597-.57.909-1.392l5.597.369a7.65 7.65 0 0 1-1.747 3.523q-1.307 1.49-3.381 2.33-2.06.823-4.758.823m32.116-16.023-5.54.341a2.86 2.86 0 0 0-.61-1.278 3.25 3.25 0 0 0-1.236-.923q-.753-.355-1.804-.355-1.406 0-2.372.596-.966.583-.966 1.563 0 .78.625 1.32.624.54 2.145.867l3.948.796q3.182.653 4.745 2.102 1.562 1.449 1.562 3.807 0 2.145-1.264 3.764-1.25 1.62-3.437 2.528-2.174.895-5.015.895-4.332 0-6.903-1.804-2.557-1.818-2.997-4.943l5.951-.312q.27 1.32 1.307 2.017 1.038.681 2.657.681 1.59 0 2.556-.61.98-.625.995-1.606-.015-.824-.696-1.349-.683-.54-2.103-.824l-3.778-.753q-3.196-.64-4.759-2.216-1.548-1.575-1.548-4.02 0-2.101 1.137-3.622 1.15-1.52 3.224-2.343 2.088-.825 4.886-.824 4.134 0 6.506 1.747 2.387 1.747 2.784 4.758"/><rect width="358" height="120" x="88" y="208" stroke="#dbdbdb" stroke-width="2" rx="26"/><rect width="358" height="120" x="88" y="208" stroke="#dbdbdb" stroke-width="2" rx="26"/><rect width="238" height="120" x="88" y="386" stroke="#dbdbdb" stroke-width="2" rx="26"/><path stroke="#dbdbdb" stroke-width="2" d="M208 207v122M328 207v122M208 385v122"/><path fill="#fff" d="M245.976 282v-2.557l9.602-10.511a67 67 0 0 0 2.785-3.21q1.094-1.379 1.619-2.586.54-1.221.54-2.556 0-1.535-.739-2.657-.725-1.121-1.989-1.733-1.263-.61-2.841-.61-1.675 0-2.926.696a4.8 4.8 0 0 0-1.917 1.917q-.668 1.236-.668 2.898h-3.352q0-2.557 1.179-4.489a8.2 8.2 0 0 1 3.21-3.011q2.046-1.08 4.588-1.08 2.557 0 4.531 1.08 1.975 1.08 3.097 2.912t1.122 4.077q0 1.605-.582 3.139-.568 1.52-1.989 3.395-1.405 1.86-3.906 4.545l-6.534 6.989v.227h13.522V282zm25.128 0 13.011-25.739v-.227h-15v-3.125h18.637v3.296L274.797 282zM138.961 252.909V282h-3.522v-25.398h-.171l-7.102 4.716v-3.579l7.273-4.83zm17.628-.398q1.79.015 3.58.682 1.79.668 3.267 2.216 1.477 1.535 2.372 4.19.895 2.657.895 6.662 0 3.879-.739 6.89-.725 2.997-2.102 5.056-1.363 2.06-3.324 3.125-1.946 1.066-4.403 1.066-2.444 0-4.361-.966a8.56 8.56 0 0 1-3.125-2.713q-1.207-1.747-1.549-4.049h3.466q.47 2.004 1.861 3.31 1.406 1.293 3.708 1.293 3.366 0 5.312-2.941 1.96-2.94 1.96-8.309h-.227a8.9 8.9 0 0 1-1.889 2.059 8.3 8.3 0 0 1-2.429 1.336 8.5 8.5 0 0 1-2.841.468q-2.5 0-4.588-1.235-2.075-1.25-3.324-3.424-1.236-2.187-1.236-5 0-2.67 1.193-4.886a9.2 9.2 0 0 1 3.381-3.551q2.187-1.321 5.142-1.279m0 3.125q-1.79 0-3.224.895a6.44 6.44 0 0 0-2.259 2.387q-.824 1.491-.824 3.309t.796 3.31a6.35 6.35 0 0 0 2.201 2.358q1.407.866 3.196.866 1.35 0 2.515-.525a6.5 6.5 0 0 0 2.031-1.463 7.1 7.1 0 0 0 1.378-2.117 6.4 6.4 0 0 0 .497-2.486 6.5 6.5 0 0 0-.824-3.196 6.54 6.54 0 0 0-2.244-2.414q-1.42-.924-3.239-.924"/><path fill="#717171" d="M336.635 138v-25.455h8.6q2.996 0 4.898 1.082 1.914 1.068 2.833 2.896t.92 4.076q0 2.25-.92 4.09-.907 1.84-2.809 2.933-1.9 1.081-4.872 1.081h-6.165v-2.734h6.066q2.05 0 3.293-.709 1.243-.708 1.803-1.914.571-1.218.571-2.747t-.571-2.734q-.56-1.206-1.815-1.889-1.255-.696-3.331-.696h-5.419V138zm21.819 0v-19.091h2.933V138zm1.491-22.273a2.08 2.08 0 0 1-1.479-.584 1.88 1.88 0 0 1-.609-1.404q0-.82.609-1.405a2.09 2.09 0 0 1 1.479-.584q.858 0 1.467.584.621.585.621 1.405t-.621 1.404a2.04 2.04 0 0 1-1.467.584m9.748-3.182V138h-2.934v-25.455zm13.376 25.853q-2.759 0-4.76-1.218-1.989-1.231-3.07-3.431-1.07-2.213-1.069-5.145 0-2.934 1.069-5.171 1.082-2.25 3.008-3.505 1.939-1.267 4.524-1.267a9 9 0 0 1 2.946.497 7.3 7.3 0 0 1 2.647 1.615q1.192 1.107 1.902 2.934.708 1.827.708 4.499v1.243h-14.716v-2.536h11.733q0-1.616-.646-2.883a4.9 4.9 0 0 0-1.815-2.001q-1.168-.734-2.759-.734-1.752 0-3.033.87a5.7 5.7 0 0 0-1.951 2.238 6.6 6.6 0 0 0-.684 2.958v1.69q0 2.163.746 3.667.759 1.491 2.101 2.274 1.342.771 3.119.771 1.156 0 2.088-.323a4.5 4.5 0 0 0 1.629-.995 4.5 4.5 0 0 0 1.056-1.665l2.834.795a6.3 6.3 0 0 1-1.504 2.536q-1.056 1.081-2.61 1.69-1.554.597-3.493.597m31.11-25.853V138h-3.082v-22.223h-.15l-6.214 4.126v-3.132l6.364-4.226zM431.791 138v-25.455h3.082v11.336h13.573v-11.336h3.082V138h-3.082v-11.385h-13.573V138zm33.515.398q-2.76 0-4.761-1.218-1.988-1.231-3.07-3.431-1.068-2.213-1.069-5.145 0-2.934 1.069-5.171 1.082-2.25 3.008-3.505 1.94-1.267 4.524-1.267 1.493 0 2.946.497a7.3 7.3 0 0 1 2.647 1.615q1.194 1.107 1.902 2.934t.708 4.499v1.243h-14.715v-2.536h11.732q0-1.616-.646-2.883a4.87 4.87 0 0 0-1.814-2.001q-1.169-.734-2.76-.734-1.752 0-3.032.87a5.7 5.7 0 0 0-1.952 2.238 6.6 6.6 0 0 0-.683 2.958v1.69q0 2.163.745 3.667.759 1.491 2.101 2.274 1.342.771 3.12.771 1.155 0 2.088-.323a4.5 4.5 0 0 0 1.628-.995 4.5 4.5 0 0 0 1.056-1.665l2.834.795a6.3 6.3 0 0 1-1.504 2.536q-1.056 1.081-2.61 1.69-1.554.597-3.492.597m17.984.049q-1.814 0-3.293-.683-1.479-.696-2.349-2.001-.87-1.318-.87-3.182 0-1.64.646-2.66a4.57 4.57 0 0 1 1.728-1.616 9 9 0 0 1 2.386-.87 29 29 0 0 1 2.647-.472 123 123 0 0 1 2.822-.336q1.093-.123 1.591-.41.509-.285.509-.994v-.099q0-1.84-1.007-2.859-.994-1.02-3.02-1.019-2.1 0-3.294.919-1.192.92-1.677 1.964l-2.785-.994q.746-1.74 1.989-2.71a7.5 7.5 0 0 1 2.734-1.367 11.4 11.4 0 0 1 2.934-.397q.92 0 2.113.223a6.8 6.8 0 0 1 2.324.883q1.13.67 1.877 2.026.745 1.355.745 3.629V138h-2.933v-2.585h-.149q-.298.62-.994 1.33-.697.708-1.852 1.205t-2.822.497m.448-2.635q1.74 0 2.933-.683 1.206-.684 1.815-1.765a4.5 4.5 0 0 0 .621-2.275v-2.684q-.187.224-.82.41-.622.174-1.442.311-.808.124-1.578.223-.759.087-1.231.15-1.143.149-2.138.484-.981.324-1.591.982-.596.646-.596 1.765 0 1.529 1.131 2.312 1.143.77 2.896.77m20.865 2.586q-2.386 0-4.213-1.206-1.828-1.218-2.859-3.43-1.032-2.225-1.032-5.258 0-3.008 1.032-5.22t2.871-3.418 4.251-1.205q1.864 0 2.945.621 1.094.609 1.666 1.392.584.77.907 1.268h.249v-9.397h2.933V138h-2.834v-2.933h-.348a19 19 0 0 1-.92 1.317q-.596.783-1.702 1.405-1.107.609-2.946.609m.398-2.635q1.764 0 2.983-.92 1.218-.932 1.852-2.573.633-1.653.633-3.815 0-2.139-.621-3.742-.62-1.616-1.84-2.51-1.218-.908-3.007-.908-1.865 0-3.108.957-1.23.945-1.851 2.573-.61 1.616-.61 3.63 0 2.037.622 3.703.634 1.653 1.864 2.635 1.243.97 3.083.97M362.15 180v-25.455h8.601q2.995 0 4.897 1.082 1.914 1.069 2.833 2.896t.92 4.076q0 2.25-.92 4.09-.906 1.84-2.809 2.933-1.9 1.081-4.872 1.081h-6.164v-2.734h6.065q2.05 0 3.294-.709 1.242-.708 1.802-1.914.572-1.218.572-2.747t-.572-2.734q-.56-1.206-1.815-1.889-1.255-.696-3.331-.696h-5.419V180zm29.369.398q-2.585 0-4.536-1.231-1.94-1.23-3.033-3.443-1.081-2.212-1.081-5.17 0-2.984 1.081-5.208 1.093-2.225 3.033-3.455 1.951-1.23 4.536-1.23 2.586 0 4.525 1.23 1.95 1.23 3.032 3.455 1.094 2.224 1.094 5.208 0 2.958-1.094 5.17-1.082 2.213-3.032 3.443-1.94 1.231-4.525 1.231m0-2.635q1.965 0 3.232-1.007t1.877-2.647q.609-1.641.609-3.555t-.609-3.567-1.877-2.672q-1.267-1.02-3.232-1.02-1.964 0-3.231 1.02-1.268 1.019-1.877 2.672t-.609 3.567.609 3.555q.61 1.64 1.877 2.647 1.268 1.007 3.231 1.007m26.651-12.578-2.635.745a4.9 4.9 0 0 0-.733-1.28q-.472-.633-1.293-1.044-.82-.41-2.1-.41-1.752 0-2.921.808-1.156.795-1.156 2.026 0 1.094.796 1.727.795.634 2.485 1.057l2.834.696q2.56.621 3.816 1.902 1.255 1.267 1.255 3.268a4.85 4.85 0 0 1-.944 2.934q-.933 1.292-2.61 2.038-1.678.746-3.903.746-2.92 0-4.835-1.268-1.914-1.268-2.424-3.704l2.784-.696q.399 1.541 1.504 2.312 1.12.77 2.921.77 2.05 0 3.257-.87 1.218-.882 1.218-2.112 0-.994-.696-1.666-.696-.683-2.138-1.019l-3.182-.746q-2.622-.621-3.853-1.926-1.218-1.318-1.218-3.294 0-1.615.907-2.859.92-1.243 2.499-1.951 1.59-.708 3.604-.708 2.834 0 4.449 1.242 1.63 1.244 2.312 3.282M422.934 180v-19.091h2.933V180zm1.491-22.273a2.08 2.08 0 0 1-1.479-.584 1.88 1.88 0 0 1-.609-1.404q0-.82.609-1.405a2.09 2.09 0 0 1 1.479-.584q.858 0 1.467.584.621.585.621 1.405t-.621 1.404a2.04 2.04 0 0 1-1.467.584m15.117 3.182v2.486h-9.894v-2.486zm-7.01-4.574h2.933v18.196q0 1.243.361 1.865.372.609.944.82.585.199 1.231.199.484 0 .795-.05l.497-.099.597 2.635a6 6 0 0 1-.833.223q-.534.125-1.355.125-1.242 0-2.436-.535a4.84 4.84 0 0 1-1.963-1.628q-.771-1.094-.771-2.759zM443.954 180v-19.091h2.933V180zm1.492-22.273a2.08 2.08 0 0 1-1.479-.584 1.88 1.88 0 0 1-.609-1.404q0-.82.609-1.405a2.09 2.09 0 0 1 1.479-.584q.857 0 1.466.584.622.585.622 1.405t-.622 1.404a2.04 2.04 0 0 1-1.466.584m14.57 22.671q-2.586 0-4.537-1.231-1.94-1.23-3.033-3.443-1.081-2.212-1.081-5.17 0-2.984 1.081-5.208 1.093-2.225 3.033-3.455 1.951-1.23 4.537-1.23 2.584 0 4.524 1.23 1.951 1.23 3.032 3.455 1.095 2.224 1.094 5.208 0 2.958-1.094 5.17-1.081 2.213-3.032 3.443-1.94 1.231-4.524 1.231m0-2.635q1.964 0 3.231-1.007 1.268-1.007 1.877-2.647.609-1.641.609-3.555t-.609-3.567q-.61-1.653-1.877-2.672-1.268-1.02-3.231-1.02-1.965 0-3.232 1.02-1.268 1.019-1.877 2.672t-.609 3.567.609 3.555q.61 1.64 1.877 2.647t3.232 1.007m16.061-9.247V180h-2.933v-19.091h2.833v2.983h.249a5.46 5.46 0 0 1 2.038-2.337q1.368-.894 3.53-.894 1.94 0 3.393.795 1.455.783 2.262 2.386.808 1.591.808 4.027V180h-2.933v-11.932q0-2.25-1.168-3.505-1.168-1.268-3.207-1.268-1.404 0-2.511.609-1.094.61-1.727 1.778-.634 1.168-.634 2.834M333.674 563v-25.455h8.601q2.995 0 4.897 1.082 1.914 1.069 2.833 2.896t.92 4.076q0 2.25-.92 4.09-.907 1.84-2.809 2.933-1.9 1.081-4.872 1.081h-6.165v-2.734h6.066q2.05 0 3.294-.709 1.242-.708 1.802-1.914.571-1.218.571-2.747t-.571-2.734q-.56-1.206-1.815-1.889-1.255-.696-3.331-.696h-5.419V563zm21.819 0v-19.091h2.933V563zm1.491-22.273a2.08 2.08 0 0 1-1.479-.584 1.88 1.88 0 0 1-.609-1.404q0-.82.609-1.405a2.1 2.1 0 0 1 1.479-.584q.858 0 1.467.584.621.585.621 1.405t-.621 1.404a2.04 2.04 0 0 1-1.467.584m9.748-3.182V563h-2.934v-25.455zm13.376 25.853q-2.759 0-4.76-1.218-1.989-1.231-3.07-3.431-1.069-2.213-1.069-5.145 0-2.934 1.069-5.171 1.082-2.25 3.008-3.505 1.94-1.267 4.524-1.267a9 9 0 0 1 2.946.497 7.3 7.3 0 0 1 2.647 1.615q1.193 1.107 1.902 2.934.708 1.826.708 4.499v1.243h-14.716v-2.536h11.733q0-1.615-.646-2.883a4.9 4.9 0 0 0-1.815-2.001q-1.168-.734-2.759-.734-1.752 0-3.033.87a5.7 5.7 0 0 0-1.951 2.238 6.6 6.6 0 0 0-.684 2.958v1.69q0 2.163.746 3.667.759 1.491 2.101 2.274 1.342.771 3.119.771 1.156 0 2.088-.323a4.5 4.5 0 0 0 1.629-.995 4.5 4.5 0 0 0 1.056-1.665l2.834.795a6.3 6.3 0 0 1-1.504 2.536q-1.056 1.081-2.61 1.69-1.554.597-3.493.597m22.161-.398v-2.237l8.402-9.198a58 58 0 0 0 2.436-2.809q.958-1.205 1.417-2.262a5.5 5.5 0 0 0 .472-2.237q0-1.343-.646-2.324a4.2 4.2 0 0 0-1.74-1.516q-1.106-.535-2.486-.535-1.466 0-2.56.609a4.2 4.2 0 0 0-1.678 1.678q-.584 1.081-.584 2.536h-2.933q0-2.238 1.031-3.928a7.17 7.17 0 0 1 2.809-2.635q1.79-.945 4.015-.945 2.237 0 3.965.945t2.709 2.548q.982 1.603.982 3.567 0 1.404-.51 2.747-.497 1.33-1.74 2.97-1.23 1.629-3.418 3.978l-5.717 6.115v.199h11.832V563zm31.483 0v-25.455h3.082v11.336h13.573v-11.336h3.082V563h-3.082v-11.385h-13.573V563zm33.515.398q-2.76 0-4.761-1.218-1.988-1.231-3.07-3.431-1.068-2.213-1.069-5.145 0-2.934 1.069-5.171 1.082-2.25 3.008-3.505 1.94-1.267 4.524-1.267 1.492 0 2.946.497a7.3 7.3 0 0 1 2.647 1.615q1.194 1.107 1.902 2.934.708 1.826.708 4.499v1.243h-14.716v-2.536h11.733q0-1.615-.646-2.883a4.86 4.86 0 0 0-1.815-2.001q-1.167-.734-2.759-.734-1.752 0-3.032.87a5.7 5.7 0 0 0-1.952 2.238 6.6 6.6 0 0 0-.683 2.958v1.69q0 2.163.745 3.667.759 1.491 2.101 2.274 1.343.771 3.12.771 1.155 0 2.088-.323a4.5 4.5 0 0 0 1.628-.995 4.5 4.5 0 0 0 1.056-1.665l2.834.795a6.3 6.3 0 0 1-1.504 2.536q-1.056 1.081-2.61 1.69-1.554.597-3.492.597m17.984.049q-1.814 0-3.293-.683-1.479-.696-2.349-2.001-.87-1.318-.87-3.182 0-1.64.646-2.66a4.57 4.57 0 0 1 1.727-1.616 9.1 9.1 0 0 1 2.387-.87 29 29 0 0 1 2.647-.472 123 123 0 0 1 2.822-.336q1.093-.123 1.59-.41.51-.286.51-.994v-.099q0-1.84-1.007-2.859-.994-1.02-3.02-1.019-2.1 0-3.294.919-1.192.92-1.678 1.964l-2.784-.994q.746-1.74 1.989-2.71a7.5 7.5 0 0 1 2.734-1.367 11.4 11.4 0 0 1 2.934-.397q.92 0 2.113.223a6.8 6.8 0 0 1 2.324.883q1.13.67 1.877 2.026.745 1.355.745 3.629V563h-2.933v-2.585h-.149q-.298.62-.994 1.33-.697.708-1.852 1.205t-2.822.497m.448-2.635q1.74 0 2.933-.683 1.206-.684 1.815-1.765a4.5 4.5 0 0 0 .621-2.275v-2.684q-.187.224-.82.41-.622.174-1.442.311a64 64 0 0 1-1.579.223q-.757.087-1.23.15-1.143.149-2.138.484-.981.324-1.591.982-.596.646-.596 1.765 0 1.529 1.131 2.312 1.143.77 2.896.77m20.865 2.586q-2.387 0-4.214-1.206-1.827-1.218-2.858-3.43-1.032-2.225-1.032-5.258 0-3.008 1.032-5.22t2.871-3.418 4.251-1.205q1.863 0 2.945.621 1.094.609 1.666 1.392.584.77.907 1.268h.249v-9.397h2.933V563h-2.834v-2.933h-.348a19 19 0 0 1-.92 1.317q-.596.783-1.702 1.405-1.107.609-2.946.609m.398-2.635q1.764 0 2.983-.92 1.218-.932 1.851-2.573.634-1.653.634-3.815 0-2.139-.621-3.742-.621-1.616-1.84-2.51-1.218-.908-3.007-.908-1.865 0-3.108.957-1.23.945-1.852 2.573-.609 1.616-.609 3.63 0 2.037.622 3.703.634 1.653 1.864 2.635 1.243.97 3.083.97M361.65 605v-25.455h8.601q2.995 0 4.897 1.082 1.914 1.069 2.833 2.896t.92 4.076q0 2.25-.92 4.09-.906 1.84-2.809 2.933-1.9 1.081-4.872 1.081h-6.164v-2.734h6.065q2.05 0 3.294-.709 1.242-.708 1.802-1.914.572-1.218.572-2.747t-.572-2.734q-.56-1.206-1.815-1.889-1.255-.696-3.331-.696h-5.419V605zm29.369.398q-2.585 0-4.536-1.231-1.94-1.23-3.033-3.443-1.081-2.212-1.081-5.17 0-2.984 1.081-5.208 1.093-2.225 3.033-3.455 1.951-1.23 4.536-1.23 2.586 0 4.525 1.23 1.95 1.23 3.032 3.455 1.094 2.225 1.094 5.208 0 2.959-1.094 5.17-1.082 2.213-3.032 3.443-1.94 1.231-4.525 1.231m0-2.635q1.965 0 3.232-1.007t1.877-2.647q.609-1.641.609-3.555t-.609-3.567-1.877-2.672-3.232-1.02q-1.964 0-3.231 1.02-1.268 1.019-1.877 2.672t-.609 3.567.609 3.555q.61 1.64 1.877 2.647 1.268 1.007 3.231 1.007m26.651-12.578-2.635.745a4.9 4.9 0 0 0-.733-1.28q-.472-.633-1.293-1.044-.82-.41-2.1-.41-1.752 0-2.921.808-1.156.796-1.156 2.026 0 1.094.796 1.727.795.634 2.485 1.057l2.834.696q2.56.621 3.816 1.902 1.255 1.267 1.255 3.268a4.85 4.85 0 0 1-.944 2.934q-.933 1.292-2.61 2.038-1.678.746-3.903.746-2.92 0-4.835-1.268-1.914-1.268-2.424-3.704l2.784-.696q.399 1.542 1.504 2.312 1.12.77 2.921.77 2.05 0 3.257-.87 1.218-.882 1.218-2.112 0-.994-.696-1.666-.696-.684-2.138-1.019l-3.182-.746q-2.622-.621-3.853-1.926-1.218-1.319-1.218-3.294 0-1.615.907-2.859.92-1.243 2.499-1.951 1.59-.708 3.604-.708 2.834 0 4.449 1.242 1.63 1.244 2.312 3.282M422.434 605v-19.091h2.933V605zm1.491-22.273a2.08 2.08 0 0 1-1.479-.584 1.88 1.88 0 0 1-.609-1.404q0-.82.609-1.405a2.09 2.09 0 0 1 1.479-.584q.858 0 1.467.584.621.585.621 1.405t-.621 1.404a2.04 2.04 0 0 1-1.467.584m15.117 3.182v2.486h-9.894v-2.486zm-7.01-4.574h2.933v18.196q0 1.243.361 1.865.372.609.944.82.585.198 1.231.199.484 0 .795-.05l.497-.099.597 2.635a6 6 0 0 1-.833.223q-.534.125-1.355.125-1.242 0-2.436-.535a4.84 4.84 0 0 1-1.963-1.628q-.771-1.094-.771-2.759zM443.454 605v-19.091h2.933V605zm1.492-22.273a2.08 2.08 0 0 1-1.479-.584 1.88 1.88 0 0 1-.609-1.404q0-.82.609-1.405a2.09 2.09 0 0 1 1.479-.584q.857 0 1.466.584.622.585.622 1.405t-.622 1.404a2.04 2.04 0 0 1-1.466.584m14.57 22.671q-2.586 0-4.537-1.231-1.94-1.23-3.033-3.443-1.081-2.212-1.081-5.17 0-2.984 1.081-5.208 1.093-2.225 3.033-3.455 1.951-1.23 4.537-1.23 2.584 0 4.524 1.23 1.951 1.23 3.032 3.455 1.095 2.225 1.094 5.208 0 2.959-1.094 5.17-1.081 2.213-3.032 3.443-1.94 1.231-4.524 1.231m0-2.635q1.964 0 3.231-1.007 1.268-1.007 1.877-2.647.609-1.641.609-3.555t-.609-3.567q-.61-1.653-1.877-2.672-1.268-1.02-3.231-1.02-1.965 0-3.232 1.02-1.268 1.019-1.877 2.672t-.609 3.567.609 3.555q.61 1.64 1.877 2.647t3.232 1.007m16.061-9.247V605h-2.933v-19.091h2.833v2.983h.249a5.46 5.46 0 0 1 2.038-2.337q1.368-.894 3.53-.894 1.94 0 3.393.795 1.455.783 2.262 2.386.808 1.591.808 4.027V605h-2.933v-11.932q0-2.25-1.168-3.505-1.168-1.268-3.207-1.268-1.404 0-2.511.609-1.094.61-1.727 1.778-.634 1.168-.634 2.834"/><path fill="#fff" d="M138.332 430.909V460h-3.522v-25.398h-.171l-7.102 4.716v-3.579l7.273-4.83zM146.699 460v-2.557l9.602-10.511a67 67 0 0 0 2.784-3.21q1.094-1.378 1.62-2.586a6.3 6.3 0 0 0 .539-2.556q0-1.535-.738-2.657-.725-1.121-1.989-1.733-1.264-.61-2.841-.61-1.676 0-2.926.696a4.8 4.8 0 0 0-1.918 1.917q-.667 1.236-.667 2.898h-3.353q0-2.557 1.179-4.489a8.2 8.2 0 0 1 3.211-3.011q2.045-1.08 4.588-1.08 2.557 0 4.531 1.08 1.975 1.08 3.097 2.912t1.122 4.077q0 1.605-.583 3.139-.567 1.52-1.988 3.395-1.407 1.86-3.907 4.545l-6.534 6.989v.227h13.523V460zM364.572 276.034v-2.898l12.784-20.227h2.102v4.489h-1.42l-9.659 15.284v.227h17.215v3.125zM378.265 282v-29.091h3.352V282zm13.562 0 13.011-25.739v-.227h-15v-3.125h18.636v3.296L395.52 282zM254.497 460.398q-2.812 0-5.014-.966-2.187-.966-3.48-2.685-1.278-1.733-1.392-4.02h3.579q.114 1.407.966 2.429.853 1.009 2.23 1.563 1.379.554 3.054.554 1.875 0 3.324-.654 1.45-.652 2.273-1.818.824-1.164.824-2.699 0-1.605-.796-2.826-.795-1.236-2.329-1.932t-3.75-.696h-2.33v-3.125h2.33q1.732 0 3.04-.625 1.32-.625 2.059-1.762.753-1.135.753-2.67 0-1.477-.653-2.571-.653-1.093-1.847-1.705-1.179-.61-2.784-.61a7.3 7.3 0 0 0-2.841.554q-1.321.539-2.159 1.576-.838 1.023-.909 2.472h-3.409q.085-2.287 1.378-4.006 1.292-1.733 3.38-2.699 2.103-.966 4.617-.966 2.699 0 4.63 1.094 1.932 1.08 2.969 2.855a7.47 7.47 0 0 1 1.037 3.835q0 2.458-1.292 4.191-1.28 1.732-3.481 2.4v.228q2.757.454 4.304 2.343 1.55 1.876 1.549 4.645 0 2.372-1.293 4.262-1.278 1.874-3.494 2.954t-5.043 1.08m15.639-.398v-2.557l9.603-10.511a67 67 0 0 0 2.784-3.21q1.094-1.378 1.619-2.586.54-1.221.54-2.556 0-1.535-.739-2.657-.725-1.121-1.988-1.733-1.265-.61-2.841-.61-1.677 0-2.926.696a4.8 4.8 0 0 0-1.918 1.917q-.668 1.236-.668 2.898h-3.352q0-2.557 1.179-4.489a8.2 8.2 0 0 1 3.21-3.011q2.046-1.08 4.588-1.08 2.557 0 4.532 1.08 1.974 1.08 3.096 2.912t1.122 4.077q0 1.605-.582 3.139-.568 1.52-1.989 3.395-1.406 1.86-3.906 4.545l-6.534 6.989v.227h13.523V460z"/><path fill="#717171" d="M280.561 148.061a1.5 1.5 0 0 0 0-2.122l-9.546-9.546a1.5 1.5 0 0 0-2.122 0 1.5 1.5 0 0 0 0 2.122l8.486 8.485-8.486 8.485a1.5 1.5 0 0 0 0 2.122 1.5 1.5 0 0 0 2.122 0zM149.5 147v-1.5H148v1.5zm0 39h1.5v-39h-3v39zm0-39v1.5h130v-3h-130zM280.061 569.939a1.5 1.5 0 0 1 0 2.122l-9.546 9.546a1.5 1.5 0 0 1-2.122 0 1.5 1.5 0 0 1 0-2.122l8.486-8.485-8.486-8.485a1.5 1.5 0 0 1 0-2.122 1.5 1.5 0 0 1 2.122 0zM149 571v1.5h-1.5V571zm0-39h1.5v39h-3v-39zm0 39v-1.5h130v3H149z"/></svg>