<svg xmlns="http://www.w3.org/2000/svg" width="1186" height="1408" fill="none" viewBox="0 0 1186 1408"><rect width="599" height="120" x="294" y="142" stroke="#dbdbdb" stroke-width="2" rx="26"/><rect width="358" height="120" x="194" y="501" stroke="#dbdbdb" stroke-width="2" rx="26"/><rect width="238" height="120" x="691" y="501" stroke="#dbdbdb" stroke-width="2" rx="26"/><rect width="238" height="120" x="121" y="857" stroke="#dbdbdb" stroke-width="2" rx="26"/><rect width="120" height="120" x="618" y="857" fill="#096" stroke="#dbdbdb" stroke-width="2" rx="26"/><rect width="120" height="120" x="48" y="1212" fill="#096" stroke="#dbdbdb" stroke-width="2" rx="26"/><rect width="120" height="120" x="443" y="857" fill="#096" stroke="#dbdbdb" stroke-width="2" rx="26"/><rect width="120" height="120" x="881" y="857" fill="#096" stroke="#dbdbdb" stroke-width="2" rx="26"/><rect width="120" height="120" x="311" y="1212" fill="#096" stroke="#dbdbdb" stroke-width="2" rx="26"/><path stroke="#dbdbdb" stroke-width="2" d="M414 141v122M314 500v122M811 500v122M241 856v122M534 141v122M434 500v122M655 141v122M775 141v122"/><path fill="#fff" d="M331.976 216v-2.557l9.602-10.511a67 67 0 0 0 2.785-3.21q1.094-1.379 1.619-2.586.54-1.221.54-2.556 0-1.535-.739-2.657-.725-1.121-1.989-1.733-1.263-.61-2.841-.61-1.675 0-2.926.696a4.8 4.8 0 0 0-1.917 1.917q-.668 1.236-.668 2.898h-3.352q0-2.557 1.179-4.489a8.2 8.2 0 0 1 3.21-3.011q2.046-1.08 4.588-1.08 2.557 0 4.531 1.08 1.975 1.08 3.097 2.912t1.122 4.077q0 1.605-.582 3.139-.568 1.52-1.989 3.395-1.405 1.86-3.906 4.545l-6.534 6.989v.227h13.522V216zm25.128 0 13.011-25.739v-.227h-15v-3.125h18.637v3.296L360.797 216zM231.976 575v-2.557l9.602-10.511a67 67 0 0 0 2.785-3.21q1.094-1.378 1.619-2.586.54-1.221.54-2.556 0-1.535-.739-2.657-.724-1.122-1.989-1.733-1.263-.61-2.841-.61-1.675 0-2.926.696a4.8 4.8 0 0 0-1.917 1.917q-.668 1.236-.668 2.898h-3.352q0-2.557 1.179-4.489a8.2 8.2 0 0 1 3.21-3.011q2.046-1.08 4.588-1.08 2.557 0 4.531 1.08 1.975 1.08 3.097 2.912t1.122 4.077q0 1.605-.582 3.139-.568 1.52-1.989 3.395-1.406 1.86-3.906 4.545l-6.534 6.989v.227h13.522V575zm25.128 0 13.011-25.739v-.227h-15v-3.125h18.637v3.296L260.797 575zM666.497 931.398q-2.812 0-5.014-.966-2.187-.966-3.48-2.685-1.278-1.732-1.392-4.02h3.579q.114 1.406.966 2.429.852 1.009 2.23 1.563t3.054.554q1.875 0 3.324-.654 1.45-.653 2.273-1.818.824-1.164.824-2.699 0-1.605-.796-2.826-.795-1.236-2.329-1.932t-3.75-.696h-2.33v-3.125h2.33q1.732 0 3.04-.625 1.32-.625 2.059-1.762.753-1.135.753-2.67 0-1.477-.653-2.571-.654-1.093-1.847-1.705-1.179-.61-2.784-.61a7.3 7.3 0 0 0-2.841.554q-1.321.539-2.159 1.576-.838 1.023-.909 2.472h-3.409q.085-2.287 1.378-4.006 1.292-1.733 3.38-2.699 2.103-.966 4.617-.966 2.699 0 4.63 1.094 1.932 1.08 2.969 2.855a7.47 7.47 0 0 1 1.037 3.835q0 2.458-1.292 4.191-1.28 1.733-3.481 2.4v.228q2.757.455 4.304 2.343 1.55 1.876 1.549 4.645 0 2.372-1.293 4.262-1.278 1.875-3.494 2.954t-5.043 1.08m15.639-.398v-2.557l9.603-10.511a67 67 0 0 0 2.784-3.21q1.094-1.378 1.619-2.586.54-1.221.54-2.556 0-1.535-.739-2.657-.725-1.122-1.988-1.733-1.264-.61-2.841-.61-1.677 0-2.926.696a4.8 4.8 0 0 0-1.918 1.917q-.668 1.236-.668 2.898h-3.352q0-2.557 1.179-4.489a8.2 8.2 0 0 1 3.21-3.011q2.046-1.08 4.588-1.08 2.557 0 4.532 1.08 1.974 1.08 3.096 2.912t1.122 4.077q0 1.605-.582 3.139-.569 1.52-1.989 3.395-1.406 1.86-3.906 4.545l-6.534 6.989v.227h13.523V931zM87.976 1286v-2.56l9.603-10.51a66 66 0 0 0 2.784-3.21q1.094-1.38 1.619-2.58c.36-.82.54-1.67.54-2.56 0-1.02-.247-1.91-.739-2.66a4.87 4.87 0 0 0-1.989-1.73c-.842-.41-1.79-.61-2.84-.61-1.118 0-2.093.23-2.927.7a4.77 4.77 0 0 0-1.917 1.91c-.445.83-.668 1.79-.668 2.9H88.09c0-1.7.393-3.2 1.179-4.49a8.2 8.2 0 0 1 3.21-3.01q2.046-1.08 4.588-1.08 2.557 0 4.531 1.08 1.975 1.08 3.097 2.91t1.122 4.08c0 1.07-.194 2.12-.582 3.14q-.569 1.515-1.989 3.39c-.937 1.24-2.239 2.76-3.906 4.55l-6.534 6.99v.23h13.522v3.12zm25.128 0 13.011-25.74v-.23h-15v-3.12h18.637v3.29l-12.955 25.8zM737.497 575.398q-2.812 0-5.014-.966-2.187-.966-3.48-2.685-1.278-1.732-1.392-4.02h3.579q.114 1.406.966 2.429.852 1.009 2.23 1.563t3.054.554q1.875 0 3.324-.654 1.45-.653 2.273-1.818.824-1.164.824-2.699 0-1.605-.796-2.826-.795-1.236-2.329-1.932t-3.75-.696h-2.33v-3.125h2.33q1.732 0 3.04-.625 1.32-.625 2.059-1.762.753-1.135.753-2.67 0-1.478-.653-2.571-.654-1.093-1.847-1.705-1.179-.61-2.784-.61a7.3 7.3 0 0 0-2.841.554q-1.321.539-2.159 1.576-.838 1.023-.909 2.472h-3.409q.085-2.287 1.378-4.006 1.292-1.733 3.38-2.699 2.103-.966 4.617-.966 2.699 0 4.63 1.094 1.932 1.08 2.969 2.855a7.47 7.47 0 0 1 1.037 3.835q0 2.458-1.292 4.191-1.28 1.732-3.481 2.4v.228q2.757.455 4.304 2.343 1.55 1.876 1.549 4.645 0 2.372-1.293 4.262-1.278 1.875-3.494 2.954t-5.043 1.08m15.639-.398v-2.557l9.603-10.511a67 67 0 0 0 2.784-3.21q1.094-1.378 1.619-2.586.54-1.221.54-2.556 0-1.535-.739-2.657-.725-1.122-1.988-1.733-1.264-.61-2.841-.61-1.677 0-2.926.696a4.8 4.8 0 0 0-1.918 1.917q-.668 1.236-.668 2.898h-3.352q0-2.557 1.179-4.489a8.2 8.2 0 0 1 3.21-3.011q2.046-1.08 4.588-1.08 2.557 0 4.532 1.08 1.974 1.08 3.096 2.912t1.122 4.077q0 1.605-.582 3.139-.569 1.52-1.989 3.395-1.406 1.86-3.906 4.545l-6.534 6.989v.227h13.523V575zM158.976 931v-2.557l9.602-10.511a67 67 0 0 0 2.785-3.21q1.094-1.378 1.619-2.586.54-1.221.54-2.556 0-1.535-.739-2.657-.724-1.122-1.989-1.733-1.263-.61-2.841-.61-1.675 0-2.926.696a4.8 4.8 0 0 0-1.917 1.917q-.668 1.236-.668 2.898h-3.352q0-2.557 1.179-4.489a8.2 8.2 0 0 1 3.21-3.011q2.046-1.08 4.588-1.08 2.557 0 4.531 1.08 1.975 1.08 3.097 2.912t1.122 4.077q0 1.605-.582 3.139-.568 1.52-1.989 3.395-1.406 1.86-3.906 4.545l-6.534 6.989v.227h13.522V931zm25.128 0 13.011-25.739v-.227h-15v-3.125h18.637v3.296L187.797 931zM494.961 901.909V931h-3.522v-25.398h-.171l-7.102 4.716v-3.579l7.273-4.83zm17.628-.398q1.79.015 3.58.682 1.79.668 3.267 2.216 1.477 1.535 2.372 4.19.894 2.657.895 6.662 0 3.879-.739 6.89-.725 2.997-2.102 5.056-1.364 2.06-3.324 3.125-1.946 1.066-4.403 1.066-2.444 0-4.361-.966a8.56 8.56 0 0 1-3.125-2.713q-1.207-1.747-1.549-4.049h3.466q.47 2.004 1.861 3.31 1.406 1.293 3.708 1.293 3.366 0 5.312-2.941 1.96-2.94 1.96-8.309h-.227a8.9 8.9 0 0 1-1.889 2.059 8.3 8.3 0 0 1-2.429 1.336 8.5 8.5 0 0 1-2.841.468q-2.5 0-4.588-1.235-2.074-1.25-3.324-3.424-1.236-2.187-1.236-5 0-2.67 1.193-4.886a9.2 9.2 0 0 1 3.381-3.551q2.187-1.321 5.142-1.279m0 3.125q-1.79 0-3.224.895a6.44 6.44 0 0 0-2.259 2.387q-.824 1.491-.824 3.309t.796 3.31a6.35 6.35 0 0 0 2.201 2.358q1.407.866 3.196.866 1.35 0 2.515-.525a6.5 6.5 0 0 0 2.031-1.463 7.1 7.1 0 0 0 1.378-2.117 6.4 6.4 0 0 0 .497-2.486 6.5 6.5 0 0 0-.824-3.196 6.54 6.54 0 0 0-2.244-2.414q-1.42-.924-3.239-.924M450.572 210.034v-2.898l12.784-20.227h2.102v4.489h-1.42l-9.659 15.284v.227h17.215v3.125zM464.265 216v-29.091h3.352V216zm13.562 0 13.011-25.739v-.227h-15v-3.125h18.636v3.296L481.52 216zM350.572 569.034v-2.898l12.784-20.227h2.102v4.489h-1.42l-9.659 15.284v.227h17.215v3.125zM364.265 575v-29.091h3.352V575zm13.562 0 13.011-25.739v-.227h-15v-3.125h18.636v3.296L381.52 575zM861.332 545.909V575h-3.522v-25.398h-.171l-7.102 4.716v-3.579l7.273-4.83zM869.699 575v-2.557l9.602-10.511a67 67 0 0 0 2.784-3.21q1.093-1.378 1.62-2.586a6.3 6.3 0 0 0 .539-2.556q0-1.535-.738-2.657-.724-1.122-1.989-1.733-1.264-.61-2.841-.61-1.676 0-2.926.696a4.8 4.8 0 0 0-1.918 1.917q-.667 1.236-.667 2.898h-3.353q0-2.557 1.179-4.489a8.2 8.2 0 0 1 3.211-3.011q2.045-1.08 4.588-1.08 2.557 0 4.531 1.08 1.975 1.08 3.097 2.912t1.122 4.077q0 1.605-.583 3.139-.567 1.52-1.988 3.395-1.407 1.86-3.907 4.545l-6.534 6.989v.227h13.523V575zM277.572 925.034v-2.898l12.784-20.227h2.102v4.489h-1.42l-9.659 15.284v.227h17.215v3.125zM291.265 931v-29.091h3.352V931zm13.562 0 13.011-25.739v-.227h-15v-3.125h18.636v3.296L308.52 931zM933.332 901.909V931h-3.522v-25.398h-.171l-7.102 4.716v-3.579l7.273-4.83zM941.699 931v-2.557l9.602-10.511a67 67 0 0 0 2.784-3.21q1.093-1.378 1.62-2.586a6.3 6.3 0 0 0 .539-2.556q0-1.535-.738-2.657-.724-1.122-1.989-1.733-1.264-.61-2.841-.61-1.676 0-2.926.696a4.8 4.8 0 0 0-1.918 1.917q-.667 1.236-.667 2.898h-3.353q0-2.557 1.179-4.489a8.2 8.2 0 0 1 3.211-3.011q2.045-1.08 4.588-1.08 2.557 0 4.531 1.08 1.975 1.08 3.097 2.912t1.122 4.077q0 1.605-.583 3.139-.567 1.52-1.988 3.395-1.407 1.86-3.907 4.545l-6.534 6.989v.227h13.523V931zM349.572 1280.03v-2.89l12.784-20.23h2.102v4.49h-1.42l-9.659 15.28v.23h17.215v3.12zm13.693 5.97v-29.09h3.352V1286zm13.562 0 13.011-25.74v-.23h-15v-3.12h18.636v3.29L380.52 1286zM583.961 186.909V216h-3.522v-25.398h-.171l-7.102 4.716v-3.579l7.273-4.83zm17.628-.398q1.79.015 3.58.682 1.79.668 3.267 2.216 1.477 1.535 2.372 4.19.894 2.657.895 6.662 0 3.879-.739 6.89-.725 2.997-2.102 5.056-1.364 2.06-3.324 3.125-1.946 1.066-4.403 1.066-2.444 0-4.361-.966a8.56 8.56 0 0 1-3.125-2.713q-1.207-1.747-1.549-4.049h3.466q.47 2.004 1.861 3.31 1.406 1.293 3.708 1.293 3.366 0 5.312-2.941 1.96-2.94 1.96-8.309h-.227a8.9 8.9 0 0 1-1.889 2.059 8.3 8.3 0 0 1-2.429 1.336 8.5 8.5 0 0 1-2.841.468q-2.5 0-4.588-1.235-2.074-1.25-3.324-3.424-1.236-2.187-1.236-5 0-2.67 1.193-4.886a9.2 9.2 0 0 1 3.381-3.551q2.187-1.321 5.142-1.279m0 3.125q-1.79 0-3.224.895a6.44 6.44 0 0 0-2.259 2.387q-.824 1.491-.824 3.309t.796 3.31a6.35 6.35 0 0 0 2.201 2.358q1.407.867 3.196.866 1.35 0 2.515-.525a6.5 6.5 0 0 0 2.031-1.463 7.1 7.1 0 0 0 1.378-2.117 6.4 6.4 0 0 0 .497-2.486 6.5 6.5 0 0 0-.824-3.196 6.54 6.54 0 0 0-2.244-2.414q-1.42-.924-3.239-.924M483.961 545.909V575h-3.522v-25.398h-.171l-7.102 4.716v-3.579l7.273-4.83zm17.628-.398q1.79.015 3.58.682 1.79.668 3.267 2.216 1.477 1.535 2.372 4.19.894 2.657.895 6.662 0 3.879-.739 6.89-.725 2.997-2.102 5.056-1.363 2.06-3.324 3.125-1.946 1.066-4.403 1.066-2.444 0-4.361-.966a8.56 8.56 0 0 1-3.125-2.713q-1.207-1.747-1.549-4.049h3.466q.47 2.004 1.861 3.31 1.406 1.293 3.708 1.293 3.366 0 5.312-2.941 1.96-2.94 1.96-8.309h-.227a8.9 8.9 0 0 1-1.889 2.059 8.3 8.3 0 0 1-2.429 1.336 8.5 8.5 0 0 1-2.841.468q-2.5 0-4.588-1.235-2.074-1.25-3.324-3.424-1.236-2.187-1.236-5 0-2.67 1.193-4.886a9.2 9.2 0 0 1 3.381-3.551q2.187-1.321 5.142-1.279m0 3.125q-1.79 0-3.224.895a6.44 6.44 0 0 0-2.259 2.387q-.824 1.491-.824 3.309t.796 3.31a6.35 6.35 0 0 0 2.201 2.358q1.407.866 3.196.866 1.35 0 2.515-.525a6.5 6.5 0 0 0 2.031-1.463 7.1 7.1 0 0 0 1.378-2.117 6.4 6.4 0 0 0 .497-2.486 6.5 6.5 0 0 0-.824-3.196 6.54 6.54 0 0 0-2.244-2.414q-1.42-.924-3.239-.924M434.454 74.276q-.17-1.719-1.463-2.67-1.293-.953-3.508-.953-1.506 0-2.543.426-1.037.413-1.591 1.151a2.77 2.77 0 0 0-.54 1.676q-.028.782.327 1.364a3.4 3.4 0 0 0 1.009 1.008q.639.412 1.477.725.838.299 1.79.511l2.613.625a18.5 18.5 0 0 1 3.495 1.137q1.59.71 2.755 1.747a7.25 7.25 0 0 1 1.804 2.443q.654 1.406.668 3.224-.014 2.67-1.364 4.631-1.335 1.946-3.863 3.026-2.515 1.065-6.066 1.065-3.522 0-6.136-1.08-2.6-1.08-4.063-3.196-1.448-2.13-1.52-5.27h5.952q.1 1.464.838 2.444.753.966 2.003 1.463 1.265.483 2.855.483 1.563 0 2.713-.455 1.165-.454 1.804-1.264a2.92 2.92 0 0 0 .639-1.86q0-.981-.582-1.649-.568-.668-1.676-1.136-1.094-.468-2.685-.852l-3.167-.796q-3.68-.894-5.81-2.798t-2.117-5.128q-.013-2.642 1.407-4.616 1.434-1.975 3.934-3.083t5.682-1.108q3.239 0 5.654 1.108 2.428 1.108 3.778 3.083 1.35 1.974 1.392 4.574zm10.316 28.906v-30h5.966v3.665h.27q.398-.88 1.151-1.79.767-.924 1.988-1.534 1.236-.625 3.068-.625 2.387 0 4.404 1.25 2.017 1.236 3.224 3.736 1.208 2.485 1.208 6.235 0 3.651-1.179 6.165-1.165 2.5-3.182 3.793-2.003 1.278-4.489 1.278-1.761 0-2.997-.582-1.221-.582-2.003-1.463-.781-.895-1.193-1.804h-.185v11.676zm5.924-19.091q0 1.946.539 3.395.54 1.449 1.563 2.258 1.022.796 2.486.796 1.476 0 2.5-.81 1.022-.825 1.548-2.273.54-1.462.54-3.366 0-1.89-.526-3.324-.525-1.434-1.548-2.244t-2.514-.81q-1.478 0-2.5.781-1.01.782-1.549 2.216-.54 1.436-.539 3.38m25.44-18.182V95h-6.051V65.91zM480.981 95V73.182h6.051V95zm3.04-24.63q-1.35 0-2.315-.896-.952-.909-.952-2.173 0-1.25.952-2.145.966-.909 2.315-.909 1.35 0 2.301.91.966.893.966 2.144 0 1.264-.966 2.173-.951.895-2.301.895m19.464 2.812v4.545h-13.139v-4.545zm-10.157-5.228h6.052v20.342q0 .838.255 1.306.256.454.711.64.468.184 1.079.184.426 0 .852-.07.426-.086.654-.129l.951 4.503q-.454.142-1.278.327-.824.198-2.003.241-2.188.086-3.835-.582-1.634-.667-2.543-2.074t-.895-3.551zm25.704 5.228v4.545h-13.14v-4.545zm-10.157-5.228h6.051v20.342q0 .838.256 1.306.256.454.71.64.47.184 1.08.184.426 0 .852-.07.426-.086.654-.129l.951 4.503q-.454.142-1.278.327-.824.198-2.003.241-2.187.086-3.835-.582-1.634-.667-2.543-2.074t-.895-3.551zM522.973 95V73.182h6.052V95zm3.04-24.63q-1.349 0-2.315-.896-.952-.909-.952-2.173 0-1.25.952-2.145.966-.909 2.315-.909 1.35 0 2.301.91.966.893.966 2.144 0 1.264-.966 2.173-.951.895-2.301.895m13.91 12.016V95h-6.051V73.182h5.767v3.85h.256a6.08 6.08 0 0 1 2.429-3.012q1.704-1.122 4.133-1.122 2.272 0 3.963.994 1.69.994 2.628 2.841.937 1.832.937 4.375V95h-6.051V82.188q.015-2.003-1.022-3.126-1.037-1.136-2.856-1.136-1.221 0-2.159.526-.923.525-1.448 1.534-.512.994-.526 2.4m28.661 21.25q-2.94 0-5.042-.809-2.088-.796-3.324-2.174t-1.605-3.096l5.596-.753q.257.654.81 1.222.554.567 1.463.909.923.354 2.244.355 1.974 0 3.253-.966 1.293-.952 1.293-3.196v-3.992h-.256q-.398.91-1.193 1.72-.796.81-2.046 1.32-1.25.511-2.983.511-2.457 0-4.474-1.136-2.003-1.15-3.196-3.508-1.179-2.373-1.179-5.995 0-3.707 1.207-6.193t3.211-3.722a8.3 8.3 0 0 1 4.417-1.235q1.833 0 3.068.625 1.236.61 1.989 1.534.766.91 1.179 1.79h.227v-3.665h6.009v22.031q0 2.784-1.364 4.66-1.363 1.874-3.778 2.812-2.402.951-5.526.951m.128-13.494q1.463 0 2.472-.724 1.022-.74 1.562-2.103.554-1.377.554-3.295t-.54-3.324q-.54-1.42-1.562-2.202-1.023-.78-2.486-.78-1.491 0-2.514.809-1.023.795-1.548 2.216-.526 1.42-.526 3.28 0 1.89.526 3.268.538 1.363 1.548 2.116 1.023.74 2.514.739m49.059-24.233V95h-5.313l-12.656-18.31h-.213V95h-6.15V65.91h5.397l12.557 18.295h.256V65.909zM636.73 85.71V73.182h6.052V95h-5.81v-3.963h-.227a6.45 6.45 0 0 1-2.458 3.082q-1.704 1.165-4.162 1.165-2.187 0-3.849-.994t-2.6-2.827q-.923-1.832-.937-4.39V73.183h6.051v12.812q.014 1.932 1.037 3.054 1.023 1.123 2.742 1.123a4.35 4.35 0 0 0 2.045-.498 3.9 3.9 0 0 0 1.534-1.505q.597-.994.582-2.458M647.622 95V73.182h5.767v3.85h.256q.681-1.92 2.272-3.026 1.592-1.108 3.807-1.108 2.244 0 3.821 1.122 1.577 1.108 2.102 3.011h.228q.668-1.875 2.414-2.997 1.762-1.136 4.162-1.136 3.054 0 4.958 1.946 1.917 1.931 1.917 5.483V95h-6.037V81.52q0-1.818-.965-2.727-.966-.91-2.415-.91-1.649 0-2.571 1.052-.924 1.036-.924 2.741V95h-5.866V81.392q0-1.605-.923-2.557-.91-.951-2.401-.951-1.008 0-1.818.51-.795.498-1.264 1.407-.47.895-.469 2.102V95zm36.598 0V65.91h6.051v10.937h.185q.397-.88 1.15-1.79.767-.924 1.989-1.534 1.236-.625 3.068-.625 2.387 0 4.403 1.25 2.017 1.236 3.225 3.736 1.207 2.485 1.207 6.235 0 3.651-1.179 6.165-1.164 2.5-3.182 3.793-2.003 1.278-4.488 1.278-1.762 0-2.997-.582-1.222-.582-2.003-1.463-.782-.895-1.193-1.804h-.27V95zm5.923-10.91q0 1.947.54 3.396t1.562 2.258q1.023.796 2.486.796 1.477 0 2.5-.81 1.023-.825 1.548-2.273.54-1.462.54-3.366 0-1.89-.525-3.324-.526-1.434-1.549-2.244t-2.514-.81q-1.477 0-2.5.781-1.008.782-1.548 2.216-.54 1.436-.54 3.38m29.336 11.336q-3.366 0-5.795-1.364-2.415-1.377-3.722-3.891-1.307-2.53-1.307-5.98 0-3.368 1.307-5.91t3.679-3.963q2.386-1.42 5.597-1.42 2.159 0 4.019.696a8.9 8.9 0 0 1 3.268 2.06q1.406 1.377 2.187 3.465.781 2.074.781 4.858v1.662H711.07v-3.75h12.727q0-1.307-.568-2.315a4.07 4.07 0 0 0-1.577-1.577q-.994-.582-2.315-.582-1.378 0-2.443.639-1.051.625-1.648 1.69-.596 1.051-.611 2.344v3.565q0 1.62.597 2.799.61 1.179 1.719 1.818 1.107.64 2.627.64 1.009 0 1.847-.285a3.8 3.8 0 0 0 1.435-.852q.596-.57.909-1.392l5.596.369a7.64 7.64 0 0 1-1.747 3.523q-1.307 1.49-3.38 2.33-2.06.823-4.759.823M733.442 95V73.182h5.867v3.807h.227q.596-2.032 2.003-3.068 1.406-1.052 3.238-1.052.455 0 .98.057.526.057.924.156v5.37a8 8 0 0 0-1.179-.228q-.753-.099-1.378-.099-1.336 0-2.386.582a4.3 4.3 0 0 0-1.648 1.591q-.597 1.023-.597 2.358V95zm34.521-15.597-5.54.341a2.86 2.86 0 0 0-.611-1.278 3.24 3.24 0 0 0-1.236-.923q-.753-.356-1.804-.356-1.406 0-2.372.597-.966.583-.966 1.563 0 .78.625 1.32t2.145.867l3.949.795q3.182.654 4.744 2.103 1.563 1.449 1.563 3.807 0 2.145-1.264 3.764-1.25 1.62-3.438 2.528-2.173.895-5.014.895-4.332 0-6.903-1.804-2.557-1.818-2.998-4.943l5.952-.312q.27 1.32 1.307 2.016 1.037.682 2.656.682 1.591 0 2.557-.61.98-.625.994-1.606-.014-.824-.696-1.349-.681-.54-2.102-.824l-3.778-.753q-3.196-.64-4.759-2.216-1.548-1.575-1.548-4.02 0-2.101 1.136-3.622 1.15-1.52 3.225-2.343 2.088-.825 4.886-.824 4.133 0 6.506 1.747 2.386 1.747 2.784 4.758M701.497 216.398q-2.812 0-5.014-.966-2.187-.966-3.48-2.685-1.278-1.732-1.392-4.02h3.579q.114 1.407.966 2.429.852 1.009 2.23 1.563t3.054.554q1.875 0 3.324-.654 1.45-.653 2.273-1.818.824-1.164.824-2.699 0-1.605-.796-2.826-.795-1.236-2.329-1.932t-3.75-.696h-2.33v-3.125h2.33q1.732 0 3.04-.625 1.32-.625 2.059-1.762.753-1.136.753-2.67 0-1.478-.653-2.571-.654-1.093-1.847-1.705-1.179-.61-2.784-.61a7.3 7.3 0 0 0-2.841.554q-1.321.539-2.159 1.576-.838 1.023-.909 2.472h-3.409q.085-2.287 1.378-4.006 1.292-1.733 3.38-2.699 2.103-.966 4.617-.966 2.699 0 4.63 1.094 1.932 1.08 2.969 2.855a7.47 7.47 0 0 1 1.037 3.835q0 2.458-1.292 4.191-1.28 1.733-3.481 2.4v.228q2.757.454 4.304 2.343 1.55 1.876 1.549 4.645 0 2.373-1.293 4.262-1.278 1.875-3.494 2.954t-5.043 1.08m15.639-.398v-2.557l9.603-10.511a67 67 0 0 0 2.784-3.21q1.094-1.379 1.619-2.586.54-1.221.54-2.556 0-1.535-.739-2.657-.725-1.121-1.988-1.733-1.264-.61-2.841-.61-1.677 0-2.926.696a4.8 4.8 0 0 0-1.918 1.917q-.668 1.236-.668 2.898h-3.352q0-2.557 1.179-4.489a8.2 8.2 0 0 1 3.21-3.011q2.046-1.08 4.588-1.08 2.557 0 4.532 1.08 1.974 1.08 3.096 2.912t1.122 4.077q0 1.605-.582 3.139-.569 1.52-1.989 3.395-1.406 1.86-3.906 4.545l-6.534 6.989v.227h13.523V216zM825.332 186.909V216h-3.522v-25.398h-.171l-7.102 4.716v-3.579l7.273-4.83zM833.699 216v-2.557l9.602-10.511a67 67 0 0 0 2.784-3.21q1.093-1.379 1.62-2.586a6.3 6.3 0 0 0 .539-2.556q0-1.535-.738-2.657-.724-1.121-1.989-1.733-1.264-.61-2.841-.61-1.676 0-2.926.696a4.8 4.8 0 0 0-1.918 1.917q-.667 1.236-.667 2.898h-3.353q0-2.557 1.179-4.489a8.2 8.2 0 0 1 3.211-3.011q2.045-1.08 4.588-1.08 2.557 0 4.531 1.08 1.975 1.08 3.097 2.912t1.122 4.077q0 1.605-.583 3.139-.567 1.52-1.988 3.395-1.407 1.86-3.907 4.545l-6.534 6.989v.227h13.523V216z"/><path stroke="#fff" stroke-width="2" d="M593 301v67M373 674v67M811 674v67M241 1029v67"/><path stroke="#fff" stroke-width="2" d="M0-1h67" transform="matrix(0 1 1 0 810 366)"/><path stroke="#fff" stroke-width="2" d="M0-1h67" transform="matrix(0 1 1 0 503 739)"/><path stroke="#fff" stroke-width="2" d="M0-1h67" transform="matrix(0 1 1 0 941 739)"/><path stroke="#fff" stroke-width="2" d="M0-1h67" transform="matrix(0 1 1 0 371 1094)"/><path stroke="#fff" stroke-width="2" d="M0-1h67" transform="matrix(0 1 1 0 373 366)"/><path stroke="#fff" stroke-width="2" d="M0-1h67" transform="matrix(0 1 1 0 240 739)"/><path stroke="#fff" stroke-width="2" d="M0-1h67" transform="matrix(0 1 1 0 678 739)"/><path stroke="#fff" stroke-width="2" d="M0-1h67" transform="matrix(0 1 1 0 108 1094)"/><path stroke="#fff" stroke-width="2" d="M811 367H373M504 740H240M942 740H678M372 1095H108"/></svg>