<svg xmlns="http://www.w3.org/2000/svg" width="1467" height="691" fill="none" viewBox="0 0 1467 691"><path fill="#fff" d="M135.932 43V11h11.187q3.344 0 5.516 1.156 2.172 1.14 3.234 3.078 1.062 1.923 1.063 4.266 0 2.062-.735 3.406-.718 1.344-1.906 2.125-1.171.782-2.547 1.157v.312q1.469.094 2.953 1.031 1.485.938 2.485 2.688 1 1.749 1 4.281 0 2.406-1.094 4.328t-3.453 3.047Q151.275 43 147.494 43zm3.875-3.437h7.687q3.797 0 5.391-1.47 1.61-1.484 1.609-3.593a5.7 5.7 0 0 0-.828-3q-.829-1.39-2.359-2.219-1.532-.843-3.625-.843h-7.875zm0-14.5h7.187q1.75 0 3.156-.688 1.422-.687 2.25-1.937.844-1.25.844-2.938 0-2.11-1.469-3.578-1.469-1.485-4.656-1.485h-7.312zm39.367 8.125V19h3.687v24h-3.687v-4.062h-.25q-.844 1.828-2.625 3.109-1.782 1.266-4.5 1.266-2.25 0-4-.985-1.75-1-2.75-3-1-2.016-1-5.078V19h3.687v15q0 2.625 1.469 4.188 1.485 1.562 3.781 1.562 1.375 0 2.797-.703 1.439-.704 2.406-2.156.985-1.454.985-3.703M199.365 43.5q-3.375 0-5.812-1.594-2.437-1.593-3.75-4.39t-1.313-6.391q0-3.656 1.344-6.453 1.36-2.813 3.781-4.39 2.438-1.594 5.688-1.594 2.53 0 4.562.937t3.328 2.625q1.297 1.688 1.61 3.938h-3.688q-.422-1.641-1.875-2.907Q201.803 22 199.365 22q-2.156 0-3.781 1.125-1.609 1.11-2.516 3.14-.89 2.016-.89 4.735 0 2.781.875 4.844.89 2.062 2.5 3.203 1.625 1.14 3.812 1.14 1.438 0 2.61-.5a5.4 5.4 0 0 0 1.984-1.437q.813-.937 1.156-2.25h3.688a8.55 8.55 0 0 1-1.547 3.828q-1.22 1.688-3.235 2.688-2 .984-4.656.984m18.266-9.25-.063-4.562h.75L228.818 19h4.563l-11.188 11.313h-.312zM214.193 43V11h3.688v32zm15.25 0-9.375-11.875 2.625-2.562L234.131 43zm17.758.5q-3.468 0-5.984-1.531-2.5-1.547-3.86-4.313-1.343-2.781-1.343-6.468 0-3.688 1.343-6.5 1.36-2.829 3.782-4.407 2.438-1.593 5.687-1.593 1.875 0 3.703.625 1.828.624 3.328 2.03 1.5 1.392 2.391 3.688.891 2.298.891 5.657v1.562h-18.5v-3.187h14.75q0-2.032-.813-3.625a6.1 6.1 0 0 0-2.281-2.516Q248.827 22 246.826 22q-2.203 0-3.812 1.094a7.2 7.2 0 0 0-2.453 2.812 8.26 8.26 0 0 0-.86 3.719v2.125q0 2.719.938 4.61.952 1.875 2.64 2.859 1.688.969 3.922.968 1.453 0 2.625-.406a5.6 5.6 0 0 0 2.047-1.25q.86-.843 1.328-2.093l3.563 1a7.9 7.9 0 0 1-1.891 3.187q-1.328 1.36-3.281 2.125-1.953.75-4.391.75M273.186 19v3.125h-12.438V19zm-8.813-5.75h3.688v22.875q0 1.563.453 2.344.468.765 1.187 1.031.735.25 1.547.25.61 0 1-.062l.625-.126.75 3.313q-.375.141-1.047.281-.671.156-1.703.157a7.4 7.4 0 0 1-3.062-.672 6.1 6.1 0 0 1-2.469-2.047q-.969-1.375-.969-3.469zM303.045 43l5.25-32h3.125l-5.25 32zm-14.563-8.875.5-3.125h23.875l-.5 3.125zM291.795 43l5.25-32h3.125l-5.25 32zm-1.438-20 .5-3.125h23.875l-.5 3.125zm39.696-12v32h-3.875V15.063h-.188l-7.812 5.187v-3.937l8-5.313zM632.338 43V11h11.187q3.345 0 5.516 1.156 2.172 1.14 3.234 3.078 1.063 1.923 1.063 4.266 0 2.062-.734 3.406-.72 1.344-1.907 2.125-1.172.782-2.547 1.157v.312q1.47.094 2.954 1.031 1.484.938 2.484 2.688 1 1.749 1 4.281 0 2.406-1.094 4.328t-3.453 3.047T643.9 43zm3.875-3.437h7.687q3.798 0 5.391-1.47 1.61-1.484 1.609-3.593a5.7 5.7 0 0 0-.828-3q-.828-1.39-2.359-2.219-1.531-.843-3.625-.843h-7.875zm0-14.5h7.187q1.75 0 3.157-.688 1.422-.687 2.25-1.937.843-1.25.843-2.938 0-2.11-1.468-3.578-1.47-1.485-4.657-1.485h-7.312zm39.367 8.125V19h3.688v24h-3.688v-4.062h-.25q-.843 1.828-2.625 3.109-1.78 1.266-4.5 1.266-2.25 0-4-.985-1.75-1-2.75-3-1-2.016-1-5.078V19h3.688v15q0 2.625 1.468 4.188 1.485 1.562 3.782 1.562 1.375 0 2.796-.703 1.438-.704 2.407-2.156.984-1.454.984-3.703M695.771 43.5q-3.375 0-5.812-1.594-2.437-1.593-3.75-4.39t-1.313-6.391q0-3.656 1.344-6.453 1.36-2.813 3.781-4.39 2.438-1.594 5.688-1.594 2.53 0 4.562.937t3.329 2.625 1.609 3.938h-3.688q-.421-1.641-1.875-2.907Q698.209 22 695.771 22q-2.155 0-3.781 1.125-1.61 1.11-2.515 3.14-.891 2.016-.891 4.735 0 2.781.875 4.844.89 2.062 2.5 3.203 1.625 1.14 3.812 1.14 1.438 0 2.61-.5a5.4 5.4 0 0 0 1.984-1.437q.813-.937 1.156-2.25h3.688a8.54 8.54 0 0 1-1.547 3.828q-1.219 1.688-3.234 2.688-2 .984-4.657.984m18.266-9.25-.062-4.562h.75L725.225 19h4.562L718.6 30.313h-.313zM710.6 43V11h3.687v32zm15.25 0-9.375-11.875 2.625-2.562L730.537 43zm17.757.5q-3.468 0-5.984-1.531-2.5-1.547-3.859-4.313-1.344-2.781-1.344-6.468 0-3.688 1.344-6.5 1.359-2.829 3.781-4.407 2.438-1.593 5.687-1.593 1.875 0 3.704.625 1.827.624 3.328 2.03 1.5 1.392 2.39 3.688.891 2.298.891 5.657v1.562h-18.5v-3.187h14.75q0-2.032-.813-3.625a6.1 6.1 0 0 0-2.281-2.516Q745.233 22 743.232 22q-2.202 0-3.812 1.094a7.2 7.2 0 0 0-2.453 2.812 8.26 8.26 0 0 0-.86 3.719v2.125q0 2.719.938 4.61.953 1.875 2.641 2.859 1.688.969 3.921.968 1.454 0 2.625-.406a5.6 5.6 0 0 0 2.047-1.25q.86-.843 1.328-2.093l3.563 1a7.9 7.9 0 0 1-1.891 3.187q-1.328 1.36-3.281 2.125-1.953.75-4.391.75M769.592 19v3.125h-12.438V19zm-8.813-5.75h3.688v22.875q0 1.563.453 2.344.468.765 1.187 1.031.735.25 1.547.25.61 0 1-.062l.625-.126.75 3.313q-.375.141-1.047.281-.67.156-1.703.157a7.4 7.4 0 0 1-3.062-.672 6.1 6.1 0 0 1-2.469-2.047q-.969-1.375-.969-3.469zM799.451 43l5.25-32h3.125l-5.25 32zm-14.562-8.875.5-3.125h23.875l-.5 3.125zM788.201 43l5.25-32h3.125l-5.25 32zm-1.437-20 .5-3.125h23.875l-.5 3.125zm28.445 20v-2.812l10.562-11.563q1.86-2.031 3.063-3.531 1.203-1.516 1.781-2.844a6.9 6.9 0 0 0 .594-2.812q0-1.688-.813-2.922-.796-1.235-2.187-1.907-1.39-.67-3.125-.671-1.844 0-3.219.765a5.27 5.27 0 0 0-2.109 2.11q-.735 1.359-.735 3.187h-3.687q0-2.812 1.297-4.937a9 9 0 0 1 3.531-3.313q2.25-1.187 5.047-1.187 2.812 0 4.984 1.187t3.407 3.203 1.234 4.485a9.7 9.7 0 0 1-.641 3.453q-.624 1.671-2.187 3.734-1.547 2.047-4.297 5l-7.188 7.688v.25h14.875V43zM1130.15 43V11h11.19c2.23 0 4.07.385 5.51 1.156q2.175 1.14 3.24 3.078c.71 1.282 1.06 2.704 1.06 4.266 0 1.375-.24 2.51-.73 3.406-.48.896-1.12 1.604-1.91 2.125q-1.17.782-2.55 1.157v.312c.98.063 1.97.406 2.96 1.031s1.81 1.521 2.48 2.688c.67 1.166 1 2.593 1 4.281 0 1.604-.36 3.047-1.09 4.328s-1.88 2.297-3.46 3.047c-1.57.75-3.62 1.125-6.14 1.125zm3.88-3.437h7.68c2.53 0 4.33-.49 5.39-1.47 1.08-.989 1.61-2.187 1.61-3.593 0-1.083-.27-2.083-.83-3-.55-.927-1.33-1.667-2.35-2.219-1.03-.562-2.23-.843-3.63-.843h-7.87zm0-14.5h7.18c1.17 0 2.22-.23 3.16-.688q1.425-.687 2.25-1.937.84-1.25.84-2.938 0-2.11-1.47-3.578-1.47-1.485-4.65-1.485h-7.31zm39.36 8.125V19h3.69v24h-3.69v-4.062h-.25c-.56 1.218-1.43 2.255-2.62 3.109q-1.785 1.266-4.5 1.266c-1.5 0-2.84-.329-4-.985-1.17-.667-2.09-1.667-2.75-3-.67-1.344-1-3.036-1-5.078V19h3.69v15c0 1.75.48 3.146 1.46 4.188.99 1.041 2.25 1.562 3.79 1.562q1.365 0 2.79-.703c.96-.469 1.76-1.188 2.41-2.156.65-.97.98-2.203.98-3.703m20.19 10.312c-2.25 0-4.18-.531-5.81-1.594q-2.43-1.593-3.75-4.39c-.87-1.865-1.31-3.995-1.31-6.391 0-2.437.45-4.588 1.34-6.453q1.365-2.813 3.78-4.39c1.63-1.063 3.52-1.594 5.69-1.594q2.535 0 4.56.937 2.04.938 3.33 2.625c.87 1.125 1.4 2.438 1.61 3.938h-3.69c-.28-1.094-.9-2.063-1.87-2.907-.96-.854-2.25-1.281-3.88-1.281q-2.145 0-3.78 1.125c-1.07.74-1.91 1.787-2.51 3.14-.6 1.344-.89 2.922-.89 4.735q0 2.781.87 4.844c.6 1.375 1.43 2.442 2.5 3.203 1.08.76 2.36 1.14 3.81 1.14q1.44 0 2.61-.5a5.4 5.4 0 0 0 1.99-1.437c.54-.625.92-1.375 1.15-2.25h3.69c-.21 1.417-.72 2.693-1.55 3.828-.81 1.125-1.89 2.021-3.23 2.688-1.33.656-2.89.984-4.66.984m18.27-9.25-.06-4.562h.75L1223.04 19h4.56l-11.19 11.313h-.31zm-3.44 8.75V11h3.69v32zm15.25 0-9.37-11.875 2.62-2.562L1228.35 43zm17.76.5c-2.31 0-4.31-.51-5.98-1.531-1.67-1.032-2.96-2.469-3.86-4.313q-1.35-2.781-1.35-6.468 0-3.688 1.35-6.5 1.35-2.829 3.78-4.407c1.62-1.062 3.52-1.593 5.68-1.593 1.25 0 2.49.208 3.71.625q1.83.624 3.33 2.03c1 .928 1.79 2.157 2.39 3.688.59 1.532.89 3.417.89 5.657v1.562h-18.5v-3.187h14.75c0-1.355-.27-2.563-.82-3.625a6.1 6.1 0 0 0-2.28-2.516c-.98-.615-2.13-.922-3.47-.922q-2.19 0-3.81 1.094a7.2 7.2 0 0 0-2.45 2.812 8.3 8.3 0 0 0-.86 3.719v2.125c0 1.813.31 3.349.94 4.61q.945 1.875 2.64 2.859c1.12.646 2.43.968 3.92.968.97 0 1.84-.135 2.62-.406.8-.281 1.48-.698 2.05-1.25a5.7 5.7 0 0 0 1.33-2.093l3.56 1q-.555 1.812-1.89 3.187c-.88.906-1.98 1.615-3.28 2.125-1.3.5-2.77.75-4.39.75M1267.4 19v3.125h-12.43V19zm-8.81-5.75h3.69v22.875q0 1.563.45 2.344c.31.51.71.854 1.19 1.031.49.167 1.01.25 1.55.25.4 0 .74-.02 1-.062.26-.053.47-.094.62-.126l.75 3.313a7.5 7.5 0 0 1-1.05.281c-.44.104-1.01.157-1.7.157q-1.56 0-3.06-.672c-.99-.448-1.81-1.13-2.47-2.047-.65-.917-.97-2.073-.97-3.469zM1297.26 43l5.25-32h3.13l-5.25 32zm-14.56-8.875.5-3.125h23.88l-.5 3.125zm3.31 8.875 5.25-32h3.13l-5.25 32zm-1.43-20 .5-3.125h23.87l-.5 3.125zm39.25 20.438c-2.06 0-3.9-.355-5.51-1.063s-2.88-1.693-3.83-2.953q-1.41-1.907-1.53-4.422h3.94c.08 1.031.43 1.922 1.06 2.672.62.74 1.44 1.312 2.45 1.719q1.515.609 3.36.609 2.07 0 3.66-.719c1.06-.479 1.89-1.146 2.5-2q.9-1.28.9-2.968 0-1.766-.87-3.11c-.58-.906-1.44-1.614-2.56-2.125-1.13-.51-2.5-.765-4.13-.765h-2.56v-3.438h2.56c1.27 0 2.39-.23 3.35-.687.96-.459 1.72-1.105 2.26-1.938.55-.833.83-1.812.83-2.937q0-1.625-.72-2.829c-.48-.802-1.16-1.427-2.03-1.875q-1.305-.67-3.06-.671c-1.11 0-2.15.203-3.13.609q-1.455.594-2.37 1.734c-.62.75-.95 1.657-1 2.719h-3.75c.06-1.677.56-3.146 1.51-4.406q1.425-1.906 3.72-2.969c1.54-.708 3.24-1.062 5.08-1.062 1.98 0 3.68.4 5.09 1.203q2.13 1.187 3.27 3.14a8.2 8.2 0 0 1 1.14 4.219c0 1.802-.47 3.339-1.42 4.61-.94 1.27-2.22 2.15-3.83 2.64v.25c2.02.333 3.6 1.193 4.73 2.578q1.71 2.062 1.71 5.11c0 1.74-.48 3.302-1.43 4.687q-1.395 2.062-3.84 3.25-2.43 1.188-5.55 1.188"/><rect width="467" height="451" x="1" y="101" stroke="#d4d4d4" stroke-dasharray="20 20" stroke-width="2" rx="26"/><rect width="467" height="315" x="500" y="101" stroke="#d4d4d4" stroke-dasharray="20 20" stroke-width="2" rx="26"/><rect width="467" height="589" x="999" y="101" stroke="#d4d4d4" stroke-dasharray="20 20" stroke-width="2" rx="26"/><rect width="393" height="104" x="38" y="138" fill="#272727" rx="20"/><rect width="393" height="104" x="537" y="138" fill="#272727" rx="20"/><rect width="393" height="104" x="1036" y="138" fill="#272727" rx="20"/><rect width="393" height="104" x="38" y="275" fill="#272727" rx="20"/><rect width="393" height="104" x="1036" y="275" fill="#272727" rx="20"/><rect width="393" height="104" x="38" y="412" fill="#272727" rx="20"/><rect width="393" height="104" x="537" y="275" fill="#272727" rx="20"/><rect width="393" height="104" x="1036" y="412" fill="#272727" rx="20"/><rect width="393" height="104" x="1036" y="549" fill="#272727" rx="20"/><path fill="#fff" d="M224.492 206v-2.812l10.563-11.563q1.859-2.031 3.062-3.531 1.203-1.517 1.781-2.844a6.9 6.9 0 0 0 .594-2.813q0-1.686-.812-2.921-.798-1.235-2.188-1.907t-3.125-.672q-1.844 0-3.219.766a5.27 5.27 0 0 0-2.109 2.109q-.734 1.36-.734 3.188h-3.688q0-2.812 1.297-4.938a9 9 0 0 1 3.531-3.312q2.25-1.188 5.047-1.188 2.813 0 4.985 1.188 2.171 1.188 3.406 3.203 1.234 2.016 1.234 4.484a9.7 9.7 0 0 1-.64 3.454q-.625 1.671-2.188 3.734-1.546 2.047-4.297 5l-7.187 7.687v.25h14.875V206zM733.428 206.437q-2.751 0-4.953-1.093-2.203-1.094-3.532-3-1.327-1.906-1.453-4.344h3.75q.219 2.172 1.969 3.594 1.765 1.406 4.219 1.406 1.968 0 3.5-.922a6.5 6.5 0 0 0 2.422-2.531q.89-1.624.89-3.672 0-2.094-.922-3.734a6.76 6.76 0 0 0-2.5-2.61q-1.593-.952-3.64-.969-1.469-.015-3.016.454-1.547.453-2.547 1.172l-3.625-.438 1.938-15.75h16.625v3.437h-13.375l-1.125 9.438h.187q.984-.781 2.469-1.297a9.4 9.4 0 0 1 3.094-.516q2.937 0 5.234 1.407 2.313 1.39 3.625 3.812 1.329 2.423 1.328 5.531 0 3.063-1.375 5.469a10.05 10.05 0 0 1-3.75 3.781q-2.39 1.375-5.437 1.375M1231.01 206.437c-2.15 0-4.05-.38-5.69-1.14-1.64-.771-2.91-1.828-3.83-3.172-.92-1.354-1.37-2.896-1.36-4.625-.01-1.354.26-2.604.8-3.75a8.1 8.1 0 0 1 2.22-2.891 6.74 6.74 0 0 1 3.17-1.484v-.188q-2.295-.593-3.66-2.578c-.9-1.333-1.35-2.849-1.34-4.547q-.015-2.437 1.23-4.359c.84-1.281 1.98-2.292 3.44-3.031 1.47-.74 3.14-1.11 5.02-1.11 1.85 0 3.51.37 4.96 1.11 1.46.739 2.61 1.75 3.44 3.031.85 1.281 1.27 2.734 1.28 4.359-.01 1.698-.47 3.214-1.39 4.547-.9 1.323-2.11 2.183-3.61 2.578v.188c1.16.208 2.2.703 3.13 1.484q1.395 1.157 2.22 2.891.825 1.719.84 3.75-.015 2.594-1.41 4.625c-.91 1.344-2.19 2.401-3.82 3.172q-2.445 1.14-5.64 1.14m0-3.437q2.16 0 3.75-.703 1.575-.703 2.43-1.985c.58-.854.87-1.854.88-3-.01-1.208-.32-2.276-.94-3.203-.61-.927-1.45-1.656-2.51-2.187s-2.26-.797-3.61-.797q-2.055 0-3.66.797-1.59.796-2.52 2.187c-.6.927-.9 1.995-.89 3.203-.01 1.146.27 2.146.83 3 .57.855 1.39 1.516 2.45 1.985 1.07.469 2.33.703 3.79.703m0-15.188c1.14 0 2.16-.229 3.04-.687.9-.458 1.6-1.099 2.11-1.922q.765-1.234.78-2.891c-.01-1.083-.26-2.026-.76-2.828a4.95 4.95 0 0 0-2.08-1.875q-1.335-.672-3.09-.672c-1.2 0-2.25.224-3.14.672-.9.438-1.59 1.063-2.08 1.875q-.735 1.203-.72 2.828c-.01 1.105.23 2.068.73 2.891.51.823 1.22 1.464 2.11 1.922.9.458 1.93.687 3.1.687M234 343.437q-3.53 0-6.016-1.921-2.484-1.938-3.796-5.61-1.313-3.687-1.313-8.906 0-5.187 1.313-8.859 1.328-3.689 3.812-5.625 2.5-1.954 6-1.954t5.984 1.954q2.5 1.936 3.813 5.625 1.328 3.672 1.328 8.859 0 5.219-1.312 8.906-1.313 3.672-3.797 5.61-2.485 1.921-6.016 1.921m0-3.437q3.5 0 5.438-3.375t1.937-9.625q0-4.156-.891-7.078-.875-2.922-2.531-4.453-1.64-1.532-3.953-1.532-3.469 0-5.422 3.422-1.953 3.407-1.953 9.641 0 4.157.875 7.062.875 2.907 2.516 4.422Q231.672 340 234 340M721.947 336.437v-3.187L736.01 311h2.312v4.938h-1.562l-10.625 16.812v.25h18.937v3.437zM737.01 343v-32h3.687v32zM1222.74 343l14.32-28.313v-.25h-16.5V311h20.5v3.625L1226.81 343zM238.836 448v32h-3.875v-27.938h-.188l-7.812 5.188v-3.938l8-5.312zM1231.21 480.437c-1.31-.02-2.63-.27-3.94-.75-1.31-.479-2.51-1.286-3.59-2.421q-1.635-1.719-2.61-4.641-.99-2.937-.99-7.375c0-2.833.27-5.344.8-7.531q.795-3.297 2.31-5.547 1.515-2.266 3.66-3.438 2.16-1.172 4.86-1.172c1.79 0 3.38.36 4.78 1.079a9.14 9.14 0 0 1 3.44 2.968c.88 1.271 1.46 2.735 1.72 4.391h-3.82c-.35-1.438-1.04-2.63-2.06-3.578s-2.37-1.422-4.06-1.422c-2.48 0-4.43 1.078-5.86 3.234-1.42 2.157-2.13 5.183-2.14 9.078h.25a9.413 9.413 0 0 1 4.76-3.734 9.3 9.3 0 0 1 3.11-.516c1.84 0 3.51.459 5.04 1.375 1.52.907 2.73 2.162 3.65 3.766q1.38 2.39 1.38 5.485c0 1.979-.45 3.791-1.33 5.437a10.1 10.1 0 0 1-3.74 3.906c-1.59.959-3.46 1.427-5.62 1.406m0-3.437c1.31 0 2.49-.328 3.53-.984a7 7 0 0 0 2.48-2.641q.93-1.656.93-3.687c0-1.323-.3-2.527-.89-3.61-.59-1.094-1.39-1.963-2.43-2.609-1.02-.646-2.18-.969-3.5-.969q-1.485 0-2.76.594a7 7 0 0 0-2.25 1.593 7.5 7.5 0 0 0-1.5 2.329 6.9 6.9 0 0 0-.55 2.734c0 1.271.3 2.458.89 3.562a7.4 7.4 0 0 0 2.47 2.672c1.05.677 2.25 1.016 3.58 1.016M1230.77 584.562c1.31.011 2.63.261 3.94.75 1.31.49 2.51 1.303 3.59 2.438q1.635 1.687 2.61 4.609.99 2.922.99 7.329c0 2.843-.27 5.369-.82 7.578q-.795 3.297-2.31 5.562c-1 1.511-2.22 2.656-3.65 3.438-1.43.781-3.05 1.171-4.85 1.171q-2.685 0-4.8-1.062a9.4 9.4 0 0 1-3.43-2.984q-1.335-1.923-1.71-4.454h3.82q.51 2.204 2.04 3.641 1.545 1.422 4.08 1.422 3.705 0 5.85-3.234c1.43-2.157 2.15-5.204 2.15-9.141h-.25a9.6 9.6 0 0 1-2.08 2.266 9.1 9.1 0 0 1-2.67 1.468q-1.47.516-3.12.516c-1.84 0-3.52-.453-5.05-1.359q-2.28-1.375-3.66-3.766c-.9-1.604-1.36-3.438-1.36-5.5q0-2.937 1.32-5.375a10.07 10.07 0 0 1 3.72-3.906c1.6-.969 3.48-1.438 5.65-1.407m0 3.438c-1.31 0-2.49.328-3.55.984a7.05 7.05 0 0 0-2.48 2.625c-.6 1.094-.91 2.308-.91 3.641s.3 2.547.88 3.641a6.95 6.95 0 0 0 2.42 2.593c1.03.636 2.2.954 3.52.954q1.485 0 2.76-.579c.86-.395 1.6-.932 2.24-1.609a7.8 7.8 0 0 0 1.51-2.328 6.95 6.95 0 0 0 .55-2.735c0-1.25-.3-2.421-.91-3.515a7.1 7.1 0 0 0-2.47-2.656c-1.04-.677-2.23-1.016-3.56-1.016"/></svg>