<svg xmlns="http://www.w3.org/2000/svg" width="1279" height="964" fill="none" viewBox="0 0 1279 964"><path fill="#fbbb63" d="M393 7c5.523 0 10 4.477 10 10v24.728c0 5.204-4.077 9.39-8.983 11.125-12.458 4.404-21.293 15.456-21.293 28.396s8.835 23.992 21.293 28.396c4.906 1.734 8.983 5.921 8.983 11.126V145.5c0 5.523-4.477 10-10 10H136.679a7 7 0 0 0 7-7v-11.208a7 7 0 1 0-14 0V148.5a7 7 0 0 0 7 7H30c-5.523 0-10-4.477-10-10v-24.729c0-5.204 4.077-9.391 8.984-11.125 12.459-4.404 21.294-15.457 21.294-28.397s-8.835-23.993-21.294-28.396C24.077 51.118 20 46.93 20 41.727V17c0-5.523 4.477-10 10-10zM136.679 85.458a7 7 0 0 0-7 7v22.417a7 7 0 1 0 14 0V92.458a7 7 0 0 0-7-7m0-44.833a7 7 0 0 0-7 7v22.417a7 7 0 0 0 14 0V47.625a7 7 0 0 0-7-7m0-33.625a7 7 0 0 0-7 7v11.208a7 7 0 1 0 14 0V14a7 7 0 0 0-7-7"/><path fill="#000" d="m182.391 94.513.712-.597 4.36.597h18.107l4.36-.597.712.597v9.501h-.941l-2.869-7-7.986-.32v29.076l4.222 1.652v.941H190.63v-.941l3.993-1.652V96.693l-8.285.368-3.006 6.953h-.941zm39.794 2.593v28.664l4.223 1.652v.941h-12.691v-.941l3.993-1.652V97.106l-4.223-1.652v-.94h12.691v.94zm35.594 30.408a24.4 24.4 0 0 1-8.216 1.423q-2.846 0-5.438-.62a17.5 17.5 0 0 1-4.843-2.019 16.2 16.2 0 0 1-3.924-3.351q-1.653-1.973-2.616-4.819-.941-2.869-.941-6.311 0-4.314 1.4-7.78 1.4-3.488 3.809-5.691 2.433-2.226 5.646-3.397t6.907-1.17q3.902 0 7.895 1.262l-.046 8.744h-.941l-2.868-6.54q-1.928-.85-5.072-.85-1.836 0-3.466.482-1.629.482-3.144 1.606-1.492 1.125-2.593 2.846-1.079 1.698-1.721 4.315-.642 2.616-.643 5.898 0 3.488 1.01 6.356 1.033 2.847 2.8 4.705a12.6 12.6 0 0 0 4.085 2.846q2.34.987 4.98.987 2.34 0 4.429-.666l2.524-7.55h.941zm34.332-33v1.1l-4.521 1.676-10.189 12.783 10.763 15.468 4.315 1.744v1.078h-7.849l-10.901-16.225h-2.777v13.632l4.246 1.652v.941h-12.462v-.941l3.993-1.652V97.106l-4.222-1.652v-.94h12.438v.94l-3.993 1.652v12.921l3.488-.643 9.685-12.415-3.534-1.354v-1.102zm3.213 33.849v-.941l4.223-1.652V97.106l-4.223-1.652v-.94h18.658l4.36-.597.712.596v9.226h-.941l-2.915-6.77h-11.176v12.92l9.524-.459.895.321-.459 3.053-9.96-.367v13.494h11.635l2.915-6.77h.941v9.202zm27.011-33.85.712-.597 4.36.597h18.107l4.361-.597.711.597v9.501h-.941l-2.869-7-7.986-.32v29.076l4.223 1.652v.941h-12.439v-.941l3.993-1.652V96.693l-8.284.368-3.007 6.953h-.941zM186.224 71.363h-24.441v-.94l4.222-1.653V40.106l-4.222-1.652v-.94h12.92v.94l-3.993 1.652v28.572h11.658l2.915-6.77h.941zm19.851.941q-4.43 0-7.918-2.134-3.465-2.157-5.462-6.22-1.996-4.061-1.996-9.409 0-3.993 1.239-7.39 1.262-3.418 3.419-5.736a15.8 15.8 0 0 1 5.095-3.626q2.915-1.31 6.219-1.309 3.282 0 6.082 1.309a14.1 14.1 0 0 1 4.842 3.603q2.02 2.318 3.167 5.714 1.148 3.373 1.148 7.39 0 3.993-1.263 7.366-1.239 3.374-3.373 5.646a15.1 15.1 0 0 1-5.049 3.534q-2.892 1.262-6.15 1.262m.275-33.23q-3.213 0-5.668 1.996-2.433 1.974-3.741 5.485-1.308 3.489-1.308 7.986 0 6.84 2.937 11.062 2.938 4.2 7.78 4.2 4.773 0 7.688-4.246 2.938-4.245 2.938-11.061 0-6.84-2.938-11.13-2.937-4.293-7.688-4.292m18.612-1.56.711-.598 4.361.597h18.107l4.36-.596.711.596v9.501h-.941l-2.868-7-7.986-.32V68.77l4.222 1.652v.941h-12.438v-.94l3.993-1.653V39.693l-8.285.367-3.006 6.954h-.941zm28.732 0 .712-.598 4.36.597h18.107l4.36-.596.712.596v9.501h-.941l-2.869-7-7.986-.32V68.77l4.223 1.652v.941h-12.439v-.94l3.993-1.653V39.693l-8.284.367-3.007 6.954h-.941zm31.097 33.85v-.942l4.222-1.652V40.106l-4.222-1.652v-.94h18.657l4.361-.598.711.597v9.226h-.941l-2.914-6.77h-11.177v12.92l9.524-.459.895.322-.459 3.052-9.96-.367V68.93h11.636l2.914-6.77h.941v9.202zm51.406 0-7.229-14.183q-.666.091-1.377.137-.688.046-1.423.046a23 23 0 0 1-1.744-.069 43 43 0 0 1-1.813-.183V68.77l5.186 1.652v.941h-13.631v-.94l4.222-1.653V40.106l-4.222-1.652v-.94h12.92q2.983 0 5.301.688 2.318.665 3.902 1.904 1.606 1.24 2.432 2.984.826 1.721.826 3.832 0 3.099-1.606 5.508-1.584 2.387-4.705 3.65l6.679 13.034 3.373 1.308v.941zm-8.446-31.441h-5.14v14.756a47 47 0 0 0 1.767.184q.85.046 1.652.046 8.859 0 8.859-7.62 0-3.694-1.836-5.53t-5.302-1.836m27.195-2.41v.941l-3.006 1.194 7.894 15.605h.207l8.399-15.56-3.098-1.239v-.94h9.639v.94l-3.534 1.652-10.006 18.291V68.77l4.223 1.652v.941h-12.439v-.94l3.993-1.653V58.443l-9.914-18.337-3.763-1.652v-.94zM101.143 58.424q0-1.505-.559-2.6a5.4 5.4 0 0 0-1.525-1.847q-.967-.774-2.32-1.268a18 18 0 0 0-2.944-.752 34 34 0 0 0-3.395-.365 76 76 0 0 0-3.652-.086q-1.848 0-3.63.086a34 34 0 0 0-3.352.365q-1.569.28-2.922.752-1.333.495-2.32 1.268a5.7 5.7 0 0 0-1.526 1.869q-.537 1.096-.537 2.578 0 1.461.537 2.535.538 1.074 1.504 1.826.966.753 2.299 1.225 1.353.495 2.943.752 1.59.28 3.373.365a62 62 0 0 0 7.305 0 27 27 0 0 0 3.373-.365 16.7 16.7 0 0 0 2.943-.73q1.354-.474 2.32-1.247a5.2 5.2 0 0 0 1.526-1.826q.558-1.074.559-2.535m-31.024-.258q0-2.944 1.246-5.113 1.246-2.149 3.524-3.416 2.298-1.267 5.242-1.87 2.943-.6 6.617-.601 3.653 0 6.66.688t5.307 2.062q2.298 1.375 3.566 3.61 1.29 2.255 1.289 5.199 0 2.34-.838 4.19-.837 1.846-2.32 3.071-1.482 1.247-3.61 2.063-2.126.837-4.597 1.181-2.47.366-5.414.366-3.63 0-6.617-.688-2.987-.666-5.264-2.04-2.277-1.355-3.545-3.589-1.245-2.213-1.246-5.113m31.024 27.93q0-1.505-.559-2.6a5.4 5.4 0 0 0-1.525-1.848q-.967-.773-2.32-1.267a18 18 0 0 0-2.944-.752 34 34 0 0 0-3.395-.365 76 76 0 0 0-3.652-.086 75 75 0 0 0-3.63.086 34 34 0 0 0-3.352.365q-1.569.28-2.922.752-1.333.495-2.32 1.267a5.7 5.7 0 0 0-1.526 1.87q-.537 1.096-.537 2.578 0 1.461.537 2.535.538 1.074 1.504 1.826t2.299 1.225q1.353.495 2.943.752 1.59.28 3.373.365a62 62 0 0 0 7.305 0 27 27 0 0 0 3.373-.365 16.7 16.7 0 0 0 2.943-.73q1.354-.474 2.32-1.247a5.2 5.2 0 0 0 1.526-1.826q.558-1.074.559-2.535m-31.024-.258q0-2.943 1.246-5.113 1.246-2.149 3.524-3.416 2.298-1.268 5.242-1.87 2.943-.6 6.617-.601 3.653 0 6.66.687t5.307 2.063q2.298 1.375 3.566 3.61 1.29 2.254 1.289 5.199 0 2.34-.838 4.189-.837 1.848-2.32 3.072-1.482 1.245-3.61 2.063-2.126.837-4.597 1.181-2.47.366-5.414.366-3.63 0-6.617-.688-2.987-.666-5.264-2.04-2.277-1.355-3.545-3.589-1.245-2.213-1.246-5.113m27.113 16.264 1.891-.473 4.082 8.83v1.676H73.557l-.881 4.404H71v-14.18h1.676l.88 5.737H98.63z"/><g filter="url(#a)"><path fill="#fbbb63" d="M393 180c5.523 0 10 4.477 10 10v24.728c0 5.204-4.077 9.391-8.983 11.126-12.458 4.403-21.293 15.455-21.293 28.395s8.835 23.992 21.293 28.396c4.906 1.734 8.983 5.921 8.983 11.126V318.5c0 5.523-4.477 10-10 10H136.679a7 7 0 0 0 7-7v-11.208a7 7 0 1 0-14 0V321.5a7 7 0 0 0 7 7H30c-5.523 0-10-4.477-10-10v-24.729c0-5.204 4.077-9.391 8.984-11.125 12.459-4.404 21.294-15.457 21.294-28.397s-8.835-23.993-21.294-28.396C24.077 224.118 20 219.931 20 214.727V190c0-5.523 4.477-10 10-10zm-256.321 78.458a7 7 0 0 0-7 7v22.417a7 7 0 1 0 14 0v-22.417a7 7 0 0 0-7-7m0-44.833a7 7 0 0 0-7 7v22.417a7 7 0 1 0 14 0v-22.417a7 7 0 0 0-7-7m0-33.625a7 7 0 0 0-7 7v11.208a7 7 0 1 0 14 0V187a7 7 0 0 0-7-7"/><path fill="#000" d="m182.391 267.513.712-.596 4.36.596h18.107l4.36-.596.712.596v9.501h-.941l-2.869-6.999-7.986-.322v29.077l4.222 1.652v.941H190.63v-.941l3.993-1.652v-29.077l-8.285.368-3.006 6.953h-.941zm39.794 2.593v28.664l4.223 1.652v.941h-12.691v-.941l3.993-1.652v-28.664l-4.223-1.652v-.941h12.691v.941zm35.594 30.408a24.4 24.4 0 0 1-8.216 1.423q-2.846 0-5.438-.62a17.5 17.5 0 0 1-4.843-2.019 16.2 16.2 0 0 1-3.924-3.351q-1.653-1.973-2.616-4.819-.941-2.869-.941-6.311 0-4.315 1.4-7.78 1.4-3.488 3.809-5.691 2.433-2.227 5.646-3.397t6.907-1.17q3.902 0 7.895 1.262l-.046 8.744h-.941l-2.868-6.541q-1.928-.849-5.072-.849-1.836 0-3.466.482-1.629.482-3.144 1.606-1.492 1.125-2.593 2.846-1.079 1.698-1.721 4.315-.642 2.616-.643 5.898 0 3.488 1.01 6.356 1.033 2.847 2.8 4.705a12.6 12.6 0 0 0 4.085 2.846q2.34.987 4.98.987 2.34 0 4.429-.666l2.524-7.55h.941zm34.332-33.001v1.102l-4.521 1.675-10.189 12.783 10.763 15.468 4.315 1.744v1.078h-7.849l-10.901-16.225h-2.777v13.632l4.246 1.652v.941h-12.462v-.941l3.993-1.652v-28.664l-4.222-1.652v-.941h12.438v.941l-3.993 1.652v12.921l3.488-.643 9.685-12.415-3.534-1.354v-1.102zm3.213 33.85v-.941l4.223-1.652v-28.664l-4.223-1.652v-.941h18.658l4.36-.596.712.596v9.226h-.941l-2.915-6.77h-11.176v12.92l9.524-.459.895.321-.459 3.053-9.96-.367v13.494h11.635l2.915-6.77h.941v9.202zm27.011-33.85.712-.596 4.36.596h18.107l4.361-.596.711.596v9.501h-.941l-2.869-6.999-7.986-.322v29.077l4.223 1.652v.941h-12.439v-.941l3.993-1.652v-29.077l-8.284.368-3.007 6.953h-.941zM186.224 244.363h-24.441v-.941l4.222-1.652v-28.664l-4.222-1.652v-.941h12.92v.941l-3.993 1.652v28.572h11.658l2.915-6.77h.941zm19.851.941q-4.43 0-7.918-2.134-3.465-2.157-5.462-6.219t-1.996-9.409q0-3.994 1.239-7.39 1.262-3.42 3.419-5.737a15.8 15.8 0 0 1 5.095-3.626q2.915-1.309 6.219-1.309 3.282 0 6.082 1.309a14.1 14.1 0 0 1 4.842 3.603q2.02 2.318 3.167 5.714 1.148 3.373 1.148 7.39 0 3.993-1.263 7.366-1.239 3.374-3.373 5.646a15.1 15.1 0 0 1-5.049 3.534q-2.892 1.262-6.15 1.262m.275-33.23q-3.213 0-5.668 1.996-2.433 1.974-3.741 5.485-1.308 3.489-1.308 7.987 0 6.838 2.937 11.061 2.938 4.2 7.78 4.2 4.773 0 7.688-4.246 2.938-4.245 2.938-11.061 0-6.84-2.938-11.131-2.937-4.291-7.688-4.291m18.612-1.561.711-.596 4.361.596h18.107l4.36-.596.711.596v9.501h-.941l-2.868-6.999-7.986-.322v29.077l4.222 1.652v.941h-12.438v-.941l3.993-1.652v-29.077l-8.285.368-3.006 6.953h-.941zm28.732 0 .712-.596 4.36.596h18.107l4.36-.596.712.596v9.501h-.941l-2.869-6.999-7.986-.322v29.077l4.223 1.652v.941h-12.439v-.941l3.993-1.652v-29.077l-8.284.368-3.007 6.953h-.941zm31.097 33.85v-.941l4.222-1.652v-28.664l-4.222-1.652v-.941h18.657l4.361-.596.711.596v9.226h-.941l-2.914-6.77h-11.177v12.92l9.524-.459.895.321-.459 3.053-9.96-.367v13.494h11.636l2.914-6.77h.941v9.202zm51.406 0-7.229-14.182q-.666.092-1.377.137-.688.046-1.423.046a23 23 0 0 1-1.744-.069 42 42 0 0 1-1.813-.183v11.658l5.186 1.652v.941h-13.631v-.941l4.222-1.652v-28.664l-4.222-1.652v-.941h12.92q2.983 0 5.301.689 2.318.665 3.902 1.904 1.606 1.24 2.432 2.984.826 1.721.826 3.832 0 3.099-1.606 5.508-1.584 2.387-4.705 3.649l6.679 13.035 3.373 1.308v.941zm-8.446-31.44h-5.14v14.756a46 46 0 0 0 1.767.184q.85.046 1.652.046 8.859 0 8.859-7.619 0-3.695-1.836-5.531t-5.302-1.836m27.195-2.41v.941l-3.006 1.193 7.894 15.606h.207l8.399-15.56-3.098-1.239v-.941h9.639v.941l-3.534 1.652-10.006 18.291v10.373l4.223 1.652v.941h-12.439v-.941l3.993-1.652v-10.327l-9.914-18.337-3.763-1.652v-.941zM101.143 228.438q0-1.505-.559-2.6a5.4 5.4 0 0 0-1.525-1.848q-.967-.773-2.32-1.267a18 18 0 0 0-2.944-.752 34 34 0 0 0-3.395-.366 76 76 0 0 0-3.652-.085q-1.848 0-3.63.085a34 34 0 0 0-3.352.366q-1.569.28-2.922.752a8.6 8.6 0 0 0-2.32 1.267 5.7 5.7 0 0 0-1.526 1.869q-.537 1.096-.537 2.579 0 1.46.537 2.535a5.3 5.3 0 0 0 1.504 1.826q.966.752 2.299 1.224 1.353.495 2.943.752 1.59.28 3.373.366a62 62 0 0 0 7.305 0 27 27 0 0 0 3.373-.366 16.6 16.6 0 0 0 2.943-.73q1.354-.473 2.32-1.246a5.2 5.2 0 0 0 1.526-1.826q.558-1.075.559-2.535m-31.024-.258q0-2.944 1.246-5.114 1.246-2.148 3.524-3.416 2.298-1.268 5.242-1.869t6.617-.601q3.653 0 6.66.687t5.307 2.063q2.298 1.374 3.566 3.609 1.29 2.256 1.289 5.199 0 2.342-.838 4.19-.837 1.848-2.32 3.072-1.482 1.246-3.61 2.062-2.126.839-4.597 1.182-2.47.365-5.414.365-3.63 0-6.617-.687-2.987-.666-5.264-2.041-2.277-1.353-3.545-3.588-1.245-2.213-1.246-5.113m31.024 27.929q0-1.504-.559-2.599a5.4 5.4 0 0 0-1.525-1.848q-.967-.774-2.32-1.267a18 18 0 0 0-2.944-.752 34 34 0 0 0-3.395-.366 76 76 0 0 0-7.283 0 34 34 0 0 0-3.351.366q-1.569.279-2.922.752-1.333.493-2.32 1.267a5.7 5.7 0 0 0-1.526 1.869q-.537 1.096-.537 2.578 0 1.46.537 2.536a5.3 5.3 0 0 0 1.504 1.826q.966.751 2.299 1.224 1.353.494 2.943.752 1.59.28 3.373.365a62 62 0 0 0 7.305 0 27 27 0 0 0 3.373-.365 16.7 16.7 0 0 0 2.943-.73q1.354-.473 2.32-1.246a5.2 5.2 0 0 0 1.526-1.826q.558-1.075.559-2.536m-31.024-.257q0-2.944 1.246-5.114 1.246-2.148 3.524-3.416 2.298-1.267 5.242-1.869 2.943-.601 6.617-.601 3.653 0 6.66.687t5.307 2.063q2.298 1.374 3.566 3.609 1.29 2.256 1.289 5.199 0 2.342-.838 4.19-.837 1.846-2.32 3.072-1.482 1.246-3.61 2.062-2.126.839-4.597 1.182-2.47.366-5.414.365-3.63 0-6.617-.687-2.987-.666-5.264-2.041-2.277-1.354-3.545-3.588-1.245-2.213-1.246-5.113m9.324 36.63H71v-20.41h2.814l8.938 8.809q5.93 5.844 12.01 5.844 3.05 0 4.705-1.698 1.676-1.676 1.676-4.898 0-1.611-.452-3.652l-6.38-2.299v-1.311h7.927q1.332 3.417 1.332 7.735 0 2.19-.429 4.039a11.4 11.4 0 0 1-1.332 3.394q-.903 1.547-2.536 2.428-1.632.88-3.845.881-1.44 0-2.364-.108-.923-.086-2.212-.494a10.2 10.2 0 0 1-2.536-1.181q-1.224-.774-2.9-2.17-1.675-1.375-3.717-3.438l-7.218-7.219v12.762l4.962 1.461z"/></g><g filter="url(#b)"><path fill="#fbbb63" d="M393 353c5.523 0 10 4.477 10 10v24.728c0 5.204-4.077 9.391-8.983 11.126-12.458 4.403-21.293 15.455-21.293 28.395s8.835 23.992 21.293 28.396c4.906 1.734 8.983 5.921 8.983 11.126V491.5c0 5.523-4.477 10-10 10H136.679a7 7 0 0 0 7-7v-11.208a7 7 0 1 0-14 0V494.5a7 7 0 0 0 7 7H30c-5.523 0-10-4.477-10-10v-24.729c0-5.204 4.077-9.391 8.984-11.125 12.459-4.404 21.294-15.457 21.294-28.397s-8.835-23.993-21.294-28.396C24.077 397.118 20 392.931 20 387.727V363c0-5.523 4.477-10 10-10zm-256.321 78.458a7 7 0 0 0-7 7v22.417a7 7 0 1 0 14 0v-22.417a7 7 0 0 0-7-7m0-44.833a7 7 0 0 0-7 7v22.417a7 7 0 1 0 14 0v-22.417a7 7 0 0 0-7-7m0-33.625a7 7 0 0 0-7 7v11.208a7 7 0 1 0 14 0V360a7 7 0 0 0-7-7"/><path fill="#000" d="m182.391 440.513.712-.596 4.36.596h18.107l4.36-.596.712.596v9.501h-.941l-2.869-6.999-7.986-.322v29.077l4.222 1.652v.941H190.63v-.941l3.993-1.652v-29.077l-8.285.368-3.006 6.953h-.941zm39.794 2.593v28.664l4.223 1.652v.941h-12.691v-.941l3.993-1.652v-28.664l-4.223-1.652v-.941h12.691v.941zm35.594 30.408a24.4 24.4 0 0 1-8.216 1.423q-2.846 0-5.438-.62a17.5 17.5 0 0 1-4.843-2.019 16.2 16.2 0 0 1-3.924-3.351q-1.653-1.973-2.616-4.819-.941-2.869-.941-6.311 0-4.315 1.4-7.78 1.4-3.488 3.809-5.691 2.433-2.227 5.646-3.397t6.907-1.17q3.902 0 7.895 1.262l-.046 8.744h-.941l-2.868-6.541q-1.928-.849-5.072-.849-1.836 0-3.466.482-1.629.482-3.144 1.606-1.492 1.125-2.593 2.846-1.079 1.698-1.721 4.315-.642 2.616-.643 5.898 0 3.488 1.01 6.356 1.033 2.847 2.8 4.705a12.6 12.6 0 0 0 4.085 2.846q2.34.987 4.98.987 2.34 0 4.429-.666l2.524-7.55h.941zm34.332-33.001v1.102l-4.521 1.675-10.189 12.783 10.763 15.468 4.315 1.744v1.078h-7.849l-10.901-16.225h-2.777v13.632l4.246 1.652v.941h-12.462v-.941l3.993-1.652v-28.664l-4.222-1.652v-.941h12.438v.941l-3.993 1.652v12.921l3.488-.643 9.685-12.415-3.534-1.354v-1.102zm3.213 33.85v-.941l4.223-1.652v-28.664l-4.223-1.652v-.941h18.658l4.36-.596.712.596v9.226h-.941l-2.915-6.77h-11.176v12.92l9.524-.459.895.321-.459 3.053-9.96-.367v13.494h11.635l2.915-6.77h.941v9.202zm27.011-33.85.712-.596 4.36.596h18.107l4.361-.596.711.596v9.501h-.941l-2.869-6.999-7.986-.322v29.077l4.223 1.652v.941h-12.439v-.941l3.993-1.652v-29.077l-8.284.368-3.007 6.953h-.941zM186.224 417.363h-24.441v-.941l4.222-1.652v-28.664l-4.222-1.652v-.941h12.92v.941l-3.993 1.652v28.572h11.658l2.915-6.77h.941zm19.851.941q-4.43 0-7.918-2.134-3.465-2.157-5.462-6.219t-1.996-9.409q0-3.994 1.239-7.39 1.262-3.42 3.419-5.737a15.8 15.8 0 0 1 5.095-3.626q2.915-1.309 6.219-1.309 3.282 0 6.082 1.309a14.1 14.1 0 0 1 4.842 3.603q2.02 2.318 3.167 5.714 1.148 3.373 1.148 7.39 0 3.993-1.263 7.366-1.239 3.374-3.373 5.646a15.1 15.1 0 0 1-5.049 3.534q-2.892 1.262-6.15 1.262m.275-33.23q-3.213 0-5.668 1.996-2.433 1.974-3.741 5.485-1.308 3.489-1.308 7.987 0 6.839 2.937 11.061 2.938 4.2 7.78 4.2 4.773 0 7.688-4.246 2.938-4.245 2.938-11.061 0-6.84-2.938-11.131-2.937-4.291-7.688-4.291m18.612-1.561.711-.596 4.361.596h18.107l4.36-.596.711.596v9.501h-.941l-2.868-6.999-7.986-.322v29.077l4.222 1.652v.941h-12.438v-.941l3.993-1.652v-29.077l-8.285.368-3.006 6.953h-.941zm28.732 0 .712-.596 4.36.596h18.107l4.36-.596.712.596v9.501h-.941l-2.869-6.999-7.986-.322v29.077l4.223 1.652v.941h-12.439v-.941l3.993-1.652v-29.077l-8.284.368-3.007 6.953h-.941zm31.097 33.85v-.941l4.222-1.652v-28.664l-4.222-1.652v-.941h18.657l4.361-.596.711.596v9.226h-.941l-2.914-6.77h-11.177v12.92l9.524-.459.895.321-.459 3.053-9.96-.367v13.494h11.636l2.914-6.77h.941v9.202zm51.406 0-7.229-14.182q-.666.092-1.377.137-.688.046-1.423.046a23 23 0 0 1-1.744-.069 42 42 0 0 1-1.813-.183v11.658l5.186 1.652v.941h-13.631v-.941l4.222-1.652v-28.664l-4.222-1.652v-.941h12.92q2.983 0 5.301.689 2.318.665 3.902 1.904 1.606 1.24 2.432 2.984.826 1.721.826 3.832 0 3.099-1.606 5.508-1.584 2.387-4.705 3.649l6.679 13.035 3.373 1.308v.941zm-8.446-31.44h-5.14v14.756a46 46 0 0 0 1.767.184q.85.045 1.652.046 8.859 0 8.859-7.619 0-3.695-1.836-5.531t-5.302-1.836m27.195-2.41v.941l-3.006 1.193 7.894 15.606h.207l8.399-15.56-3.098-1.239v-.941h9.639v.941l-3.534 1.652-10.006 18.291v10.373l4.223 1.652v.941h-12.439v-.941l3.993-1.652v-10.327l-9.914-18.337-3.763-1.652v-.941zM101.143 402.254q0-1.504-.559-2.6a5.4 5.4 0 0 0-1.525-1.847q-.967-.774-2.32-1.268a18 18 0 0 0-2.944-.752 34 34 0 0 0-3.395-.365 76 76 0 0 0-7.283 0 34 34 0 0 0-3.351.365q-1.569.28-2.922.752-1.333.494-2.32 1.268a5.65 5.65 0 0 0-1.526 1.869q-.537 1.096-.537 2.578 0 1.461.537 2.535a5.3 5.3 0 0 0 1.504 1.826q.966.753 2.299 1.225 1.353.494 2.943.752 1.59.28 3.373.365 1.805.107 3.674.107 1.848 0 3.63-.107a27 27 0 0 0 3.374-.365 16.7 16.7 0 0 0 2.943-.731q1.354-.472 2.32-1.246a5.2 5.2 0 0 0 1.526-1.826q.558-1.074.559-2.535m-31.024-.258q0-2.943 1.246-5.113 1.246-2.148 3.524-3.416 2.298-1.268 5.242-1.869 2.943-.602 6.617-.602 3.653 0 6.66.688t5.307 2.062q2.298 1.375 3.566 3.609 1.29 2.256 1.289 5.2 0 2.341-.838 4.189-.837 1.848-2.32 3.072-1.482 1.247-3.61 2.063-2.126.838-4.597 1.182-2.47.365-5.414.365-3.63 0-6.617-.688-2.987-.666-5.264-2.041-2.277-1.353-3.545-3.588-1.245-2.212-1.246-5.113m31.024 27.93q0-1.504-.559-2.6a5.4 5.4 0 0 0-1.525-1.847q-.967-.774-2.32-1.268a18 18 0 0 0-2.944-.752 34 34 0 0 0-3.395-.365 75 75 0 0 0-3.652-.086q-1.848 0-3.63.086a34 34 0 0 0-3.352.365q-1.569.28-2.922.752-1.333.494-2.32 1.268a5.65 5.65 0 0 0-1.526 1.869q-.537 1.096-.537 2.578 0 1.461.537 2.535a5.3 5.3 0 0 0 1.504 1.826q.966.752 2.299 1.225 1.353.494 2.943.752 1.59.28 3.373.365 1.805.107 3.674.107 1.848 0 3.63-.107a27 27 0 0 0 3.374-.365 16.7 16.7 0 0 0 2.943-.731q1.354-.472 2.32-1.246a5.2 5.2 0 0 0 1.526-1.826q.558-1.074.559-2.535m-31.024-.258q0-2.943 1.246-5.113 1.246-2.149 3.524-3.416 2.298-1.268 5.242-1.869 2.943-.602 6.617-.602 3.653 0 6.66.687t5.307 2.063q2.298 1.375 3.566 3.609 1.29 2.256 1.289 5.2 0 2.341-.838 4.189-.837 1.848-2.32 3.072-1.482 1.247-3.61 2.063-2.126.837-4.597 1.181-2.47.366-5.414.366-3.63 0-6.617-.688-2.987-.666-5.264-2.041-2.277-1.353-3.545-3.588-1.245-2.212-1.246-5.113m1.461 16.672h8.186v1.096l-6.381 2.32q-.924 2.106-.924 4.017 0 3.095 1.568 4.877 1.569 1.806 4.985 1.805 3.072 0 4.984-1.805t1.912-4.576v-2.234h2.944v2.191q0 1.59 1.01 2.772a5.8 5.8 0 0 0 2.427 1.74 8 8 0 0 0 2.943.559q5.865 0 5.866-5.866 0-1.396-.366-3.158l-6.38-2.299v-1.31h7.927a20.4 20.4 0 0 1 1.289 7.176 17 17 0 0 1-.236 2.9q-.237 1.353-.816 2.621a7.4 7.4 0 0 1-1.483 2.17q-.88.902-2.299 1.439-1.395.537-3.18.537-2.34 0-4.554-1.46-2.191-1.461-3.244-3.954h-.172q-.559 1.697-1.203 2.858a8.9 8.9 0 0 1-1.633 2.105q-.988.946-2.406 1.397-1.419.472-3.33.472-2.9 0-4.942-1.503-2.019-1.483-2.986-3.997-.967-2.491-.967-5.779 0-3.673 1.461-7.111"/></g><g filter="url(#c)"><path fill="#fbbb63" d="M393 526c5.523 0 10 4.477 10 10v24.728c0 5.204-4.077 9.391-8.983 11.126-12.458 4.403-21.293 15.455-21.293 28.395s8.835 23.992 21.293 28.396c4.906 1.734 8.983 5.921 8.983 11.126V664.5c0 5.523-4.477 10-10 10H136.679a7 7 0 0 0 7-7v-11.208a7 7 0 1 0-14 0V667.5a7 7 0 0 0 7 7H30c-5.523 0-10-4.477-10-10v-24.729c0-5.204 4.077-9.391 8.984-11.125 12.459-4.404 21.294-15.457 21.294-28.397s-8.835-23.993-21.294-28.396C24.077 570.118 20 565.931 20 560.727V536c0-5.523 4.477-10 10-10zm-256.321 78.458a7 7 0 0 0-7 7v22.417a7 7 0 1 0 14 0v-22.417a7 7 0 0 0-7-7m0-44.833a7 7 0 0 0-7 7v22.417a7 7 0 1 0 14 0v-22.417a7 7 0 0 0-7-7m0-33.625a7 7 0 0 0-7 7v11.208a7 7 0 1 0 14 0V533a7 7 0 0 0-7-7"/><path fill="#000" d="m182.391 613.513.712-.596 4.36.596h18.107l4.36-.596.712.596v9.501h-.941l-2.869-6.999-7.986-.322v29.077l4.222 1.652v.941H190.63v-.941l3.993-1.652v-29.077l-8.285.368-3.006 6.953h-.941zm39.794 2.593v28.664l4.223 1.652v.941h-12.691v-.941l3.993-1.652v-28.664l-4.223-1.652v-.941h12.691v.941zm35.594 30.408a24.4 24.4 0 0 1-8.216 1.423q-2.846 0-5.438-.62a17.5 17.5 0 0 1-4.843-2.019 16.2 16.2 0 0 1-3.924-3.351q-1.653-1.973-2.616-4.819-.941-2.869-.941-6.311 0-4.314 1.4-7.78 1.4-3.488 3.809-5.691 2.433-2.226 5.646-3.397t6.907-1.17q3.902 0 7.895 1.262l-.046 8.744h-.941l-2.868-6.541q-1.928-.849-5.072-.849-1.836 0-3.466.482-1.629.482-3.144 1.606-1.492 1.125-2.593 2.846-1.079 1.698-1.721 4.315-.642 2.616-.643 5.898 0 3.488 1.01 6.356 1.033 2.847 2.8 4.705a12.6 12.6 0 0 0 4.085 2.846q2.34.987 4.98.987 2.34 0 4.429-.666l2.524-7.55h.941zm34.332-33.001v1.102l-4.521 1.675-10.189 12.783 10.763 15.468 4.315 1.744v1.078h-7.849l-10.901-16.225h-2.777v13.632l4.246 1.652v.941h-12.462v-.941l3.993-1.652v-28.664l-4.222-1.652v-.941h12.438v.941l-3.993 1.652v12.921l3.488-.643 9.685-12.415-3.534-1.354v-1.102zm3.213 33.85v-.941l4.223-1.652v-28.664l-4.223-1.652v-.941h18.658l4.36-.596.712.596v9.226h-.941l-2.915-6.77h-11.176v12.92l9.524-.459.895.321-.459 3.053-9.96-.367v13.494h11.635l2.915-6.77h.941v9.202zm27.011-33.85.712-.596 4.36.596h18.107l4.361-.596.711.596v9.501h-.941l-2.869-6.999-7.986-.322v29.077l4.223 1.652v.941h-12.439v-.941l3.993-1.652v-29.077l-8.284.368-3.007 6.953h-.941zM186.224 590.363h-24.441v-.941l4.222-1.652v-28.664l-4.222-1.652v-.941h12.92v.941l-3.993 1.652v28.572h11.658l2.915-6.77h.941zm19.851.941q-4.43 0-7.918-2.134-3.465-2.157-5.462-6.219t-1.996-9.409q0-3.994 1.239-7.39 1.262-3.42 3.419-5.737a15.8 15.8 0 0 1 5.095-3.626q2.915-1.308 6.219-1.309 3.282 0 6.082 1.309a14.1 14.1 0 0 1 4.842 3.603q2.02 2.318 3.167 5.714 1.148 3.373 1.148 7.39 0 3.993-1.263 7.366-1.239 3.374-3.373 5.646a15.1 15.1 0 0 1-5.049 3.534q-2.892 1.262-6.15 1.262m.275-33.23q-3.213 0-5.668 1.996-2.433 1.974-3.741 5.485-1.308 3.489-1.308 7.987 0 6.838 2.937 11.061 2.938 4.2 7.78 4.2 4.773 0 7.688-4.246 2.938-4.245 2.938-11.061 0-6.84-2.938-11.131-2.937-4.291-7.688-4.291m18.612-1.561.711-.596 4.361.596h18.107l4.36-.596.711.596v9.501h-.941l-2.868-6.999-7.986-.322v29.077l4.222 1.652v.941h-12.438v-.941l3.993-1.652v-29.077l-8.285.368-3.006 6.953h-.941zm28.732 0 .712-.596 4.36.596h18.107l4.36-.596.712.596v9.501h-.941l-2.869-6.999-7.986-.322v29.077l4.223 1.652v.941h-12.439v-.941l3.993-1.652v-29.077l-8.284.368-3.007 6.953h-.941zm31.097 33.85v-.941l4.222-1.652v-28.664l-4.222-1.652v-.941h18.657l4.361-.596.711.596v9.226h-.941l-2.914-6.77h-11.177v12.92l9.524-.459.895.321-.459 3.053-9.96-.367v13.494h11.636l2.914-6.77h.941v9.202zm51.406 0-7.229-14.182q-.666.092-1.377.137-.688.046-1.423.046a23 23 0 0 1-1.744-.069 42 42 0 0 1-1.813-.183v11.658l5.186 1.652v.941h-13.631v-.941l4.222-1.652v-28.664l-4.222-1.652v-.941h12.92q2.983 0 5.301.689 2.318.665 3.902 1.904 1.606 1.24 2.432 2.984.826 1.721.826 3.832 0 3.099-1.606 5.508-1.584 2.387-4.705 3.649l6.679 13.035 3.373 1.308v.941zm-8.446-31.44h-5.14v14.756a46 46 0 0 0 1.767.184q.85.045 1.652.046 8.859 0 8.859-7.619 0-3.696-1.836-5.531-1.836-1.836-5.302-1.836m27.195-2.41v.941l-3.006 1.193 7.894 15.606h.207l8.399-15.56-3.098-1.239v-.941h9.639v.941l-3.534 1.652-10.006 18.291v10.373l4.223 1.652v.941h-12.439v-.941l3.993-1.652v-10.327l-9.914-18.337-3.763-1.652v-.941zM101.143 574.523q0-1.504-.559-2.599a5.4 5.4 0 0 0-1.525-1.848q-.967-.773-2.32-1.267a18 18 0 0 0-2.944-.752 34 34 0 0 0-3.395-.366 76 76 0 0 0-7.283 0 34 34 0 0 0-3.351.366q-1.569.279-2.922.752a8.6 8.6 0 0 0-2.32 1.267 5.7 5.7 0 0 0-1.526 1.869q-.537 1.096-.537 2.578 0 1.46.537 2.536a5.3 5.3 0 0 0 1.504 1.826q.966.752 2.299 1.224 1.353.495 2.943.752 1.59.28 3.373.366a62 62 0 0 0 7.305 0 27 27 0 0 0 3.373-.366 16.7 16.7 0 0 0 2.943-.73q1.354-.473 2.32-1.246a5.2 5.2 0 0 0 1.526-1.826q.558-1.075.559-2.536m-31.024-.257q0-2.944 1.246-5.114 1.246-2.148 3.524-3.416 2.298-1.268 5.242-1.869t6.617-.601q3.653 0 6.66.687t5.307 2.063q2.298 1.374 3.566 3.609 1.29 2.256 1.289 5.199 0 2.342-.838 4.19-.837 1.847-2.32 3.072-1.482 1.246-3.61 2.062-2.126.838-4.597 1.182-2.47.365-5.414.365-3.63 0-6.617-.687-2.987-.666-5.264-2.041-2.277-1.355-3.545-3.588-1.245-2.213-1.246-5.113m31.024 27.929q0-1.504-.559-2.599a5.4 5.4 0 0 0-1.525-1.848q-.967-.773-2.32-1.268a18 18 0 0 0-2.944-.751 34 34 0 0 0-3.395-.366 76 76 0 0 0-7.283 0 34 34 0 0 0-3.351.366q-1.569.279-2.922.751-1.333.495-2.32 1.268a5.7 5.7 0 0 0-1.526 1.869q-.537 1.096-.537 2.578 0 1.461.537 2.535.538 1.075 1.504 1.827t2.299 1.224q1.353.495 2.943.752 1.59.28 3.373.365a62 62 0 0 0 7.305 0 27 27 0 0 0 3.373-.365 16.7 16.7 0 0 0 2.943-.73q1.354-.473 2.32-1.246a5.2 5.2 0 0 0 1.526-1.827q.558-1.074.559-2.535m-31.024-.257q0-2.944 1.246-5.114 1.246-2.148 3.524-3.416 2.298-1.268 5.242-1.869t6.617-.601q3.653 0 6.66.687t5.307 2.063q2.298 1.374 3.566 3.609 1.29 2.256 1.289 5.199 0 2.342-.838 4.19-.837 1.846-2.32 3.072-1.482 1.246-3.61 2.062-2.126.838-4.597 1.182-2.47.365-5.414.365-3.63 0-6.617-.687-2.987-.666-5.264-2.041-2.277-1.355-3.545-3.588-1.245-2.213-1.246-5.113m33.451 29.734v2.986H81.12v4.233h-3.395v-4.233H71v-3.953h6.725v-14.309h3.48zm-22.45-11.967v11h16.37z"/></g><g filter="url(#d)"><path fill="#fbbb63" d="M393 699c5.523 0 10 4.477 10 10v24.728c0 5.204-4.077 9.391-8.983 11.126-12.458 4.403-21.293 15.455-21.293 28.395s8.835 23.992 21.293 28.396c4.906 1.734 8.983 5.921 8.983 11.126V837.5c0 5.523-4.477 10-10 10H136.679a7 7 0 0 0 7-7v-11.208a7 7 0 1 0-14 0V840.5a7 7 0 0 0 7 7H30c-5.523 0-10-4.477-10-10v-24.729c0-5.204 4.077-9.391 8.984-11.125 12.459-4.404 21.294-15.457 21.294-28.397s-8.835-23.993-21.294-28.396C24.077 743.118 20 738.931 20 733.727V709c0-5.523 4.477-10 10-10zm-256.321 78.458a7 7 0 0 0-7 7v22.417a7 7 0 1 0 14 0v-22.417a7 7 0 0 0-7-7m0-44.833a7 7 0 0 0-7 7v22.417a7 7 0 1 0 14 0v-22.417a7 7 0 0 0-7-7m0-33.625a7 7 0 0 0-7 7v11.208a7 7 0 1 0 14 0V706a7 7 0 0 0-7-7"/><path fill="#000" d="m182.391 786.513.712-.596 4.36.596h18.107l4.36-.596.712.596v9.501h-.941l-2.869-6.999-7.986-.322v29.077l4.222 1.652v.941H190.63v-.941l3.993-1.652v-29.077l-8.285.368-3.006 6.953h-.941zm39.794 2.593v28.664l4.223 1.652v.941h-12.691v-.941l3.993-1.652v-28.664l-4.223-1.652v-.941h12.691v.941zm35.594 30.408a24.4 24.4 0 0 1-8.216 1.423q-2.846 0-5.438-.62a17.5 17.5 0 0 1-4.843-2.019 16.2 16.2 0 0 1-3.924-3.351q-1.653-1.973-2.616-4.819-.941-2.869-.941-6.311 0-4.314 1.4-7.78 1.4-3.488 3.809-5.691 2.433-2.227 5.646-3.397t6.907-1.17q3.902 0 7.895 1.262l-.046 8.744h-.941l-2.868-6.541q-1.928-.849-5.072-.849-1.836 0-3.466.482-1.629.482-3.144 1.606-1.492 1.125-2.593 2.846-1.079 1.698-1.721 4.315-.642 2.616-.643 5.898 0 3.488 1.01 6.356 1.033 2.847 2.8 4.705a12.6 12.6 0 0 0 4.085 2.846q2.34.987 4.98.987 2.34 0 4.429-.666l2.524-7.55h.941zm34.332-33.001v1.102l-4.521 1.675-10.189 12.783 10.763 15.468 4.315 1.744v1.078h-7.849l-10.901-16.225h-2.777v13.632l4.246 1.652v.941h-12.462v-.941l3.993-1.652v-28.664l-4.222-1.652v-.941h12.438v.941l-3.993 1.652v12.921l3.488-.643 9.685-12.415-3.534-1.354v-1.102zm3.213 33.85v-.941l4.223-1.652v-28.664l-4.223-1.652v-.941h18.658l4.36-.596.712.596v9.226h-.941l-2.915-6.77h-11.176v12.92l9.524-.459.895.321-.459 3.053-9.96-.367v13.494h11.635l2.915-6.77h.941v9.202zm27.011-33.85.712-.596 4.36.596h18.107l4.361-.596.711.596v9.501h-.941l-2.869-6.999-7.986-.322v29.077l4.223 1.652v.941h-12.439v-.941l3.993-1.652v-29.077l-8.284.368-3.007 6.953h-.941zM186.224 763.363h-24.441v-.941l4.222-1.652v-28.664l-4.222-1.652v-.941h12.92v.941l-3.993 1.652v28.572h11.658l2.915-6.77h.941zm19.851.941q-4.43 0-7.918-2.134-3.465-2.157-5.462-6.219t-1.996-9.409q0-3.994 1.239-7.39 1.262-3.42 3.419-5.737a15.8 15.8 0 0 1 5.095-3.626q2.915-1.308 6.219-1.309 3.282 0 6.082 1.309a14.1 14.1 0 0 1 4.842 3.603q2.02 2.318 3.167 5.714 1.148 3.373 1.148 7.39 0 3.993-1.263 7.366-1.239 3.374-3.373 5.646a15.1 15.1 0 0 1-5.049 3.534q-2.892 1.262-6.15 1.262m.275-33.23q-3.213 0-5.668 1.996-2.433 1.974-3.741 5.485-1.308 3.489-1.308 7.987 0 6.838 2.937 11.061 2.938 4.2 7.78 4.2 4.773 0 7.688-4.246 2.938-4.245 2.938-11.061 0-6.84-2.938-11.131-2.937-4.291-7.688-4.291m18.612-1.561.711-.596 4.361.596h18.107l4.36-.596.711.596v9.501h-.941l-2.868-6.999-7.986-.322v29.077l4.222 1.652v.941h-12.438v-.941l3.993-1.652v-29.077l-8.285.368-3.006 6.953h-.941zm28.732 0 .712-.596 4.36.596h18.107l4.36-.596.712.596v9.501h-.941l-2.869-6.999-7.986-.322v29.077l4.223 1.652v.941h-12.439v-.941l3.993-1.652v-29.077l-8.284.368-3.007 6.953h-.941zm31.097 33.85v-.941l4.222-1.652v-28.664l-4.222-1.652v-.941h18.657l4.361-.596.711.596v9.226h-.941l-2.914-6.77h-11.177v12.92l9.524-.459.895.321-.459 3.053-9.96-.367v13.494h11.636l2.914-6.77h.941v9.202zm51.406 0-7.229-14.182q-.666.092-1.377.137-.688.046-1.423.046a23 23 0 0 1-1.744-.069 42 42 0 0 1-1.813-.183v11.658l5.186 1.652v.941h-13.631v-.941l4.222-1.652v-28.664l-4.222-1.652v-.941h12.92q2.983 0 5.301.689 2.318.665 3.902 1.904 1.606 1.24 2.432 2.984.826 1.721.826 3.832 0 3.099-1.606 5.508-1.584 2.387-4.705 3.649l6.679 13.035 3.373 1.308v.941zm-8.446-31.44h-5.14v14.756a46 46 0 0 0 1.767.184q.85.045 1.652.046 8.859 0 8.859-7.619 0-3.696-1.836-5.531-1.836-1.836-5.302-1.836m27.195-2.41v.941l-3.006 1.193 7.894 15.606h.207l8.399-15.56-3.098-1.239v-.941h9.639v.941l-3.534 1.652-10.006 18.291v10.373l4.223 1.652v.941h-12.439v-.941l3.993-1.652v-10.327l-9.914-18.337-3.763-1.652v-.941zM101.143 748.055q0-1.504-.559-2.6a5.4 5.4 0 0 0-1.525-1.848q-.967-.773-2.32-1.267a18 18 0 0 0-2.944-.752 34 34 0 0 0-3.395-.365 75 75 0 0 0-3.652-.086q-1.848 0-3.63.086a34 34 0 0 0-3.352.365q-1.569.28-2.922.752a8.6 8.6 0 0 0-2.32 1.267 5.7 5.7 0 0 0-1.526 1.87q-.537 1.095-.537 2.578 0 1.461.537 2.535a5.3 5.3 0 0 0 1.504 1.826q.966.752 2.299 1.225 1.353.494 2.943.752 1.59.28 3.373.365a62 62 0 0 0 7.305 0 27 27 0 0 0 3.373-.365 16.7 16.7 0 0 0 2.943-.731q1.354-.472 2.32-1.246a5.2 5.2 0 0 0 1.526-1.826q.558-1.074.559-2.535m-31.024-.258q0-2.944 1.246-5.113 1.246-2.149 3.524-3.416 2.298-1.268 5.242-1.87 2.943-.601 6.617-.601 3.653 0 6.66.687t5.307 2.063q2.298 1.376 3.566 3.609 1.29 2.256 1.289 5.199 0 2.342-.838 4.19-.837 1.848-2.32 3.072-1.482 1.246-3.61 2.063-2.126.837-4.597 1.181-2.47.366-5.414.366-3.63 0-6.617-.688-2.987-.666-5.264-2.041-2.277-1.353-3.545-3.588-1.245-2.213-1.246-5.113m31.024 27.93q0-1.505-.559-2.6a5.4 5.4 0 0 0-1.525-1.848q-.967-.773-2.32-1.267a18 18 0 0 0-2.944-.752 34 34 0 0 0-3.395-.365 75 75 0 0 0-3.652-.086q-1.848 0-3.63.086a34 34 0 0 0-3.352.365q-1.569.28-2.922.752a8.6 8.6 0 0 0-2.32 1.267 5.7 5.7 0 0 0-1.526 1.869q-.537 1.096-.537 2.579 0 1.461.537 2.535a5.3 5.3 0 0 0 1.504 1.826q.966.752 2.299 1.224 1.353.495 2.943.752 1.59.28 3.373.366a62 62 0 0 0 7.305 0 27 27 0 0 0 3.373-.366 16.6 16.6 0 0 0 2.943-.73q1.354-.472 2.32-1.246a5.2 5.2 0 0 0 1.526-1.826q.558-1.074.559-2.535m-31.024-.258q0-2.943 1.246-5.114 1.246-2.147 3.524-3.416 2.298-1.268 5.242-1.869t6.617-.601q3.653 0 6.66.687t5.307 2.063q2.298 1.375 3.566 3.609 1.29 2.256 1.289 5.199 0 2.342-.838 4.19-.837 1.848-2.32 3.072-1.482 1.246-3.61 2.063-2.126.837-4.597 1.181-2.47.365-5.414.365-3.63 0-6.617-.687-2.987-.666-5.264-2.041-2.277-1.353-3.545-3.588-1.245-2.213-1.246-5.113m1.461 16.22h8.186v1.096l-6.381 2.342q-.924 2.063-.924 3.996 0 1.461.408 2.75a7.5 7.5 0 0 0 1.203 2.32q.816 1.053 2.149 1.655 1.353.623 3.093.623 1.333 0 2.471-.194a9 9 0 0 0 2.32-.752 6.45 6.45 0 0 0 2.041-1.461q.839-.88 1.354-2.427.537-1.526.537-3.524 0-2.32-.709-5.543h15.361v16.951h-3.394v-13.964H90.4q.537 2.706.537 4.898 0 2.342-.644 4.168-.623 1.848-1.633 2.965a8.3 8.3 0 0 1-2.342 1.869q-1.353.752-2.685 1.031a12.3 12.3 0 0 1-2.729.301q-2.492 0-4.554-1.01t-3.416-2.707q-1.332-1.697-2.063-3.931a14.4 14.4 0 0 1-.752-4.662q0-3.438 1.461-6.79"/></g><path fill="#fbbb63" d="M821 7c5.523 0 10 4.477 10 10v24.728c0 5.204-4.077 9.39-8.983 11.125-12.458 4.404-21.293 15.456-21.293 28.396s8.835 23.992 21.293 28.396c4.906 1.734 8.983 5.921 8.983 11.126V145.5c0 5.523-4.477 10-10 10H564.679a7 7 0 0 0 7-7v-11.208a7 7 0 1 0-14 0V148.5a7 7 0 0 0 7 7H458c-5.523 0-10-4.477-10-10v-24.729c0-5.204 4.077-9.391 8.984-11.125 12.459-4.404 21.294-15.457 21.294-28.397s-8.836-23.993-21.294-28.396C452.077 51.118 448 46.93 448 41.727V17c0-5.523 4.477-10 10-10zM564.679 85.458a7 7 0 0 0-7 7v22.417a7 7 0 1 0 14 0V92.458a7 7 0 0 0-7-7m0-44.833a7 7 0 0 0-7 7v22.417a7 7 0 0 0 14 0V47.625a7 7 0 0 0-7-7m0-33.625a7 7 0 0 0-7 7v11.208a7 7 0 1 0 14 0V14a7 7 0 0 0-7-7"/><path fill="#000" d="m610.391 94.513.712-.597 4.36.597h18.107l4.36-.597.712.597v9.501h-.941l-2.869-7-7.986-.32v29.076l4.222 1.652v.941H618.63v-.941l3.993-1.652V96.693l-8.285.368-3.006 6.953h-.941zm39.794 2.593v28.664l4.223 1.652v.941h-12.691v-.941l3.993-1.652V97.106l-4.223-1.652v-.94h12.691v.94zm35.594 30.408a24.4 24.4 0 0 1-8.216 1.423q-2.846 0-5.438-.62a17.5 17.5 0 0 1-4.843-2.019 16.2 16.2 0 0 1-3.924-3.351q-1.653-1.973-2.616-4.819-.942-2.869-.941-6.311 0-4.314 1.4-7.78 1.4-3.488 3.809-5.691 2.433-2.226 5.646-3.397t6.907-1.17q3.902 0 7.895 1.262l-.046 8.744h-.941l-2.868-6.54q-1.928-.85-5.072-.85-1.836 0-3.466.482-1.629.482-3.144 1.606-1.492 1.125-2.593 2.846-1.079 1.698-1.721 4.315-.643 2.616-.643 5.898 0 3.488 1.01 6.356 1.033 2.847 2.8 4.705a12.6 12.6 0 0 0 4.085 2.846q2.34.987 4.98.987 2.34 0 4.429-.666l2.524-7.55h.941zm34.332-33v1.1l-4.521 1.676-10.189 12.783 10.763 15.468 4.315 1.744v1.078h-7.849l-10.901-16.225h-2.777v13.632l4.246 1.652v.941h-12.462v-.941l3.993-1.652V97.106l-4.222-1.652v-.94h12.438v.94l-3.993 1.652v12.921l3.488-.643 9.685-12.415-3.534-1.354v-1.102zm3.213 33.849v-.941l4.223-1.652V97.106l-4.223-1.652v-.94h18.658l4.36-.597.712.596v9.226h-.941l-2.915-6.77h-11.176v12.92l9.524-.459.895.321-.459 3.053-9.96-.367v13.494h11.635l2.915-6.77h.941v9.202zm27.011-33.85.712-.597 4.36.597h18.107l4.361-.597.711.597v9.501h-.941l-2.869-7-7.986-.32v29.076l4.223 1.652v.941h-12.439v-.941l3.993-1.652V96.693l-8.284.368-3.007 6.953h-.941zM614.224 71.363h-24.441v-.94l4.222-1.653V40.106l-4.222-1.652v-.94h12.92v.94l-3.993 1.652v28.572h11.658l2.915-6.77h.941zm19.851.941q-4.43 0-7.918-2.134-3.465-2.157-5.462-6.22-1.996-4.061-1.996-9.409 0-3.993 1.239-7.39 1.262-3.418 3.419-5.736a15.8 15.8 0 0 1 5.095-3.626q2.914-1.31 6.219-1.309 3.282 0 6.082 1.309a14.1 14.1 0 0 1 4.842 3.603q2.02 2.318 3.167 5.714 1.148 3.373 1.148 7.39 0 3.993-1.263 7.366-1.239 3.374-3.373 5.646a15.1 15.1 0 0 1-5.049 3.534q-2.892 1.262-6.15 1.262m.275-33.23q-3.213 0-5.668 1.996-2.433 1.974-3.741 5.485-1.308 3.489-1.308 7.986 0 6.84 2.937 11.062 2.938 4.2 7.78 4.2 4.773 0 7.688-4.246 2.937-4.245 2.938-11.061 0-6.84-2.938-11.13-2.937-4.293-7.688-4.292m18.612-1.56.711-.598 4.361.597h18.107l4.36-.596.711.596v9.501h-.941l-2.868-7-7.986-.32V68.77l4.222 1.652v.941h-12.438v-.94l3.993-1.653V39.693l-8.285.367-3.006 6.954h-.941zm28.732 0 .712-.598 4.36.597h18.107l4.36-.596.712.596v9.501h-.941l-2.869-7-7.986-.32V68.77l4.223 1.652v.941h-12.439v-.94l3.993-1.653V39.693l-8.284.367-3.007 6.954h-.941zm31.097 33.85v-.942l4.222-1.652V40.106l-4.222-1.652v-.94h18.657l4.361-.598.711.597v9.226h-.941l-2.914-6.77h-11.177v12.92l9.524-.459.895.322-.459 3.052-9.96-.367V68.93h11.636l2.914-6.77h.941v9.202zm51.406 0-7.229-14.183q-.666.091-1.377.137-.688.046-1.423.046a23 23 0 0 1-1.744-.069 43 43 0 0 1-1.813-.183V68.77l5.186 1.652v.941h-13.631v-.94l4.222-1.653V40.106l-4.222-1.652v-.94h12.92q2.984 0 5.301.688 2.318.665 3.902 1.904 1.606 1.24 2.432 2.984.826 1.721.826 3.832 0 3.099-1.606 5.508-1.584 2.387-4.705 3.65l6.679 13.034 3.373 1.308v.941zm-8.446-31.441h-5.14v14.756a47 47 0 0 0 1.767.184q.85.046 1.652.046 8.859 0 8.859-7.62 0-3.694-1.836-5.53t-5.302-1.836m27.195-2.41v.941l-3.006 1.194 7.894 15.605h.207l8.399-15.56-3.098-1.239v-.94h9.639v.94l-3.534 1.652-10.006 18.291V68.77l4.223 1.652v.941h-12.439v-.94l3.993-1.653V58.443l-9.914-18.337-3.763-1.652v-.94zM529.143 54.357q0-1.503-.559-2.6a5.4 5.4 0 0 0-1.525-1.847q-.967-.773-2.321-1.267a18 18 0 0 0-2.943-.752 34 34 0 0 0-3.395-.366 76 76 0 0 0-3.652-.085q-1.848 0-3.631.085a34 34 0 0 0-3.351.366q-1.569.28-2.922.752-1.332.494-2.321 1.267a5.7 5.7 0 0 0-1.525 1.87q-.537 1.096-.537 2.577 0 1.461.537 2.536a5.3 5.3 0 0 0 1.504 1.826q.967.752 2.299 1.224 1.353.495 2.943.752 1.59.28 3.373.365a62 62 0 0 0 7.305 0 27 27 0 0 0 3.373-.365 16.7 16.7 0 0 0 2.943-.73q1.354-.472 2.321-1.246a5.2 5.2 0 0 0 1.525-1.826q.558-1.075.559-2.536m-31.024-.257q0-2.944 1.246-5.114 1.246-2.148 3.524-3.416 2.298-1.268 5.242-1.869 2.943-.6 6.617-.601 3.652 0 6.66.687t5.307 2.063q2.298 1.375 3.566 3.609 1.29 2.256 1.289 5.2 0 2.34-.838 4.189-.837 1.847-2.32 3.072-1.482 1.245-3.609 2.062a20 20 0 0 1-4.598 1.182q-2.47.365-5.414.365-3.631 0-6.617-.687-2.987-.667-5.264-2.041-2.277-1.354-3.545-3.588Q498.12 57 498.119 54.1m31.024 27.93q0-1.505-.559-2.6a5.4 5.4 0 0 0-1.525-1.848q-.967-.774-2.321-1.267a18 18 0 0 0-2.943-.752 34 34 0 0 0-3.395-.366 76 76 0 0 0-3.652-.086q-1.848 0-3.631.086a34 34 0 0 0-3.351.365q-1.569.28-2.922.752-1.332.494-2.321 1.268a5.7 5.7 0 0 0-1.525 1.87q-.537 1.095-.537 2.577 0 1.462.537 2.535a5.3 5.3 0 0 0 1.504 1.827q.967.751 2.299 1.224 1.353.495 2.943.752 1.59.28 3.373.365a62 62 0 0 0 7.305 0 27 27 0 0 0 3.373-.365 16.7 16.7 0 0 0 2.943-.73q1.354-.472 2.321-1.246a5.2 5.2 0 0 0 1.525-1.827q.558-1.073.559-2.535m-31.024-.258q0-2.944 1.246-5.114 1.246-2.148 3.524-3.416 2.298-1.268 5.242-1.869 2.943-.602 6.617-.602 3.652 0 6.66.688t5.307 2.063q2.298 1.375 3.566 3.609 1.29 2.256 1.289 5.2 0 2.34-.838 4.188-.837 1.848-2.32 3.073-1.482 1.245-3.609 2.062a20 20 0 0 1-4.598 1.182q-2.47.365-5.414.365-3.631 0-6.617-.687-2.987-.666-5.264-2.041-2.277-1.355-3.545-3.588-1.245-2.213-1.246-5.114m2.342 27.757q0 1.29.516 2.492a5.9 5.9 0 0 0 1.568 2.127q1.053.924 2.643 1.461 1.589.56 3.716.559 2.192 0 3.717-.58 1.547-.58 2.492-1.547a5.7 5.7 0 0 0 1.397-2.256 8.1 8.1 0 0 0 .451-2.707q0-2.793-1.547-6.101a21 21 0 0 0-.945-.086 33 33 0 0 0-1.311-.022q-2.878 0-5.22.344-2.343.343-4.018 1.117-1.654.774-2.557 2.041-.902 1.289-.902 3.158m29.025 5.973q0-4.92-3.287-8.229-3.287-3.307-9.238-4.125 2.771 4.018 2.771 7.391 0 4.275-2.9 7.133-2.879 2.857-7.67 2.857-3.309 0-5.865-1.504-2.535-1.482-3.867-3.974-1.311-2.47-1.311-5.522 0-5.5 3.889-8.293 3.91-2.793 11.344-2.793 2.814 0 5.478.623 2.664.645 4.963 1.913a18.4 18.4 0 0 1 4.039 3.029q1.74 1.762 2.729 4.168 1.01 2.406 1.009 5.135a21 21 0 0 1-.58 4.877l-1.676-.215q.172-1.053.172-2.471"/><g filter="url(#e)"><path fill="#fbbb63" d="M821 180c5.523 0 10 4.477 10 10v24.728c0 5.204-4.077 9.391-8.983 11.126-12.458 4.403-21.293 15.455-21.293 28.395s8.835 23.992 21.293 28.396c4.906 1.734 8.983 5.921 8.983 11.126V318.5c0 5.523-4.477 10-10 10H564.679a7 7 0 0 0 7-7v-11.208a7 7 0 1 0-14 0V321.5a7 7 0 0 0 7 7H458c-5.523 0-10-4.477-10-10v-24.729c0-5.204 4.077-9.391 8.984-11.125 12.459-4.404 21.294-15.457 21.294-28.397s-8.836-23.993-21.294-28.396c-4.907-1.735-8.984-5.922-8.984-11.126V190c0-5.523 4.477-10 10-10zm-256.321 78.458a7 7 0 0 0-7 7v22.417a7 7 0 1 0 14 0v-22.417a7 7 0 0 0-7-7m0-44.833a7 7 0 0 0-7 7v22.417a7 7 0 1 0 14 0v-22.417a7 7 0 0 0-7-7m0-33.625a7 7 0 0 0-7 7v11.208a7 7 0 1 0 14 0V187a7 7 0 0 0-7-7"/><path fill="#000" d="m610.391 267.513.712-.596 4.36.596h18.107l4.36-.596.712.596v9.501h-.941l-2.869-6.999-7.986-.322v29.077l4.222 1.652v.941H618.63v-.941l3.993-1.652v-29.077l-8.285.368-3.006 6.953h-.941zm39.794 2.593v28.664l4.223 1.652v.941h-12.691v-.941l3.993-1.652v-28.664l-4.223-1.652v-.941h12.691v.941zm35.594 30.408a24.4 24.4 0 0 1-8.216 1.423q-2.846 0-5.438-.62a17.5 17.5 0 0 1-4.843-2.019 16.2 16.2 0 0 1-3.924-3.351q-1.653-1.973-2.616-4.819-.942-2.869-.941-6.311 0-4.315 1.4-7.78 1.4-3.488 3.809-5.691 2.433-2.227 5.646-3.397t6.907-1.17q3.902 0 7.895 1.262l-.046 8.744h-.941l-2.868-6.541q-1.928-.849-5.072-.849-1.836 0-3.466.482-1.629.482-3.144 1.606-1.492 1.125-2.593 2.846-1.079 1.698-1.721 4.315-.643 2.616-.643 5.898 0 3.488 1.01 6.356 1.033 2.847 2.8 4.705a12.6 12.6 0 0 0 4.085 2.846q2.34.987 4.98.987 2.34 0 4.429-.666l2.524-7.55h.941zm34.332-33.001v1.102l-4.521 1.675-10.189 12.783 10.763 15.468 4.315 1.744v1.078h-7.849l-10.901-16.225h-2.777v13.632l4.246 1.652v.941h-12.462v-.941l3.993-1.652v-28.664l-4.222-1.652v-.941h12.438v.941l-3.993 1.652v12.921l3.488-.643 9.685-12.415-3.534-1.354v-1.102zm3.213 33.85v-.941l4.223-1.652v-28.664l-4.223-1.652v-.941h18.658l4.36-.596.712.596v9.226h-.941l-2.915-6.77h-11.176v12.92l9.524-.459.895.321-.459 3.053-9.96-.367v13.494h11.635l2.915-6.77h.941v9.202zm27.011-33.85.712-.596 4.36.596h18.107l4.361-.596.711.596v9.501h-.941l-2.869-6.999-7.986-.322v29.077l4.223 1.652v.941h-12.439v-.941l3.993-1.652v-29.077l-8.284.368-3.007 6.953h-.941zM614.224 244.363h-24.441v-.941l4.222-1.652v-28.664l-4.222-1.652v-.941h12.92v.941l-3.993 1.652v28.572h11.658l2.915-6.77h.941zm19.851.941q-4.43 0-7.918-2.134-3.465-2.157-5.462-6.219t-1.996-9.409q0-3.994 1.239-7.39 1.262-3.42 3.419-5.737a15.8 15.8 0 0 1 5.095-3.626q2.914-1.309 6.219-1.309 3.282 0 6.082 1.309a14.1 14.1 0 0 1 4.842 3.603q2.02 2.318 3.167 5.714 1.148 3.373 1.148 7.39 0 3.993-1.263 7.366-1.239 3.374-3.373 5.646a15.1 15.1 0 0 1-5.049 3.534q-2.892 1.262-6.15 1.262m.275-33.23q-3.213 0-5.668 1.996-2.433 1.974-3.741 5.485-1.308 3.489-1.308 7.987 0 6.838 2.937 11.061 2.938 4.2 7.78 4.2 4.773 0 7.688-4.246 2.937-4.245 2.938-11.061 0-6.84-2.938-11.131-2.937-4.291-7.688-4.291m18.612-1.561.711-.596 4.361.596h18.107l4.36-.596.711.596v9.501h-.941l-2.868-6.999-7.986-.322v29.077l4.222 1.652v.941h-12.438v-.941l3.993-1.652v-29.077l-8.285.368-3.006 6.953h-.941zm28.732 0 .712-.596 4.36.596h18.107l4.36-.596.712.596v9.501h-.941l-2.869-6.999-7.986-.322v29.077l4.223 1.652v.941h-12.439v-.941l3.993-1.652v-29.077l-8.284.368-3.007 6.953h-.941zm31.097 33.85v-.941l4.222-1.652v-28.664l-4.222-1.652v-.941h18.657l4.361-.596.711.596v9.226h-.941l-2.914-6.77h-11.177v12.92l9.524-.459.895.321-.459 3.053-9.96-.367v13.494h11.636l2.914-6.77h.941v9.202zm51.406 0-7.229-14.182q-.666.092-1.377.137-.688.046-1.423.046a23 23 0 0 1-1.744-.069 42 42 0 0 1-1.813-.183v11.658l5.186 1.652v.941h-13.631v-.941l4.222-1.652v-28.664l-4.222-1.652v-.941h12.92q2.984 0 5.301.689 2.318.665 3.902 1.904 1.606 1.24 2.432 2.984.826 1.721.826 3.832 0 3.099-1.606 5.508-1.584 2.387-4.705 3.649l6.679 13.035 3.373 1.308v.941zm-8.446-31.44h-5.14v14.756a46 46 0 0 0 1.767.184q.85.046 1.652.046 8.859 0 8.859-7.619 0-3.695-1.836-5.531t-5.302-1.836m27.195-2.41v.941l-3.006 1.193 7.894 15.606h.207l8.399-15.56-3.098-1.239v-.941h9.639v.941l-3.534 1.652-10.006 18.291v10.373l4.223 1.652v.941h-12.439v-.941l3.993-1.652v-10.327l-9.914-18.337-3.763-1.652v-.941zM529.143 229.232q0-1.504-.559-2.599a5.4 5.4 0 0 0-1.525-1.848q-.967-.773-2.321-1.267a18 18 0 0 0-2.943-.752 34 34 0 0 0-3.395-.366 76 76 0 0 0-7.283 0 34 34 0 0 0-3.351.366q-1.569.279-2.922.752a8.6 8.6 0 0 0-2.321 1.267 5.7 5.7 0 0 0-1.525 1.869q-.537 1.096-.537 2.578 0 1.46.537 2.536a5.3 5.3 0 0 0 1.504 1.826q.967.752 2.299 1.224 1.353.495 2.943.752a27 27 0 0 0 3.373.366 62 62 0 0 0 7.305 0 27 27 0 0 0 3.373-.366 16.7 16.7 0 0 0 2.943-.73q1.354-.473 2.321-1.246a5.2 5.2 0 0 0 1.525-1.826q.558-1.075.559-2.536m-31.024-.257q0-2.944 1.246-5.114 1.246-2.148 3.524-3.416 2.298-1.267 5.242-1.869 2.943-.601 6.617-.601 3.652 0 6.66.687t5.307 2.063q2.298 1.374 3.566 3.609 1.29 2.256 1.289 5.199 0 2.342-.838 4.19-.837 1.847-2.32 3.072-1.482 1.246-3.609 2.062a20 20 0 0 1-4.598 1.182q-2.47.365-5.414.365-3.631 0-6.617-.687-2.987-.666-5.264-2.041-2.277-1.354-3.545-3.588-1.245-2.213-1.246-5.113m31.024 27.929q0-1.504-.559-2.599a5.4 5.4 0 0 0-1.525-1.848q-.967-.773-2.321-1.268a18 18 0 0 0-2.943-.751 34 34 0 0 0-3.395-.366 76 76 0 0 0-7.283 0 34 34 0 0 0-3.351.366q-1.569.279-2.922.751-1.332.495-2.321 1.268a5.7 5.7 0 0 0-1.525 1.869q-.537 1.096-.537 2.578 0 1.461.537 2.535a5.3 5.3 0 0 0 1.504 1.827q.967.751 2.299 1.224 1.353.495 2.943.752 1.59.28 3.373.365a62 62 0 0 0 7.305 0 27 27 0 0 0 3.373-.365 16.7 16.7 0 0 0 2.943-.73q1.354-.473 2.321-1.246a5.2 5.2 0 0 0 1.525-1.827q.558-1.074.559-2.535m-31.024-.258q0-2.943 1.246-5.113 1.246-2.148 3.524-3.416 2.298-1.267 5.242-1.869t6.617-.602q3.652 0 6.66.688t5.307 2.062q2.298 1.375 3.566 3.61 1.29 2.256 1.289 5.199 0 2.342-.838 4.19-.837 1.846-2.32 3.072-1.482 1.246-3.609 2.062a20 20 0 0 1-4.598 1.182q-2.47.365-5.414.365-3.631 0-6.617-.687-2.987-.667-5.264-2.041-2.277-1.354-3.545-3.588-1.245-2.213-1.246-5.114m30.981 35.106L499 281.268v-4.534l28.252 11.323v-13.299l-4.533-.924v-2.277h7.97v20.195z"/></g><g filter="url(#f)"><path fill="#fbbb63" d="M821 353c5.523 0 10 4.477 10 10v24.728c0 5.204-4.077 9.391-8.983 11.126-12.458 4.403-21.293 15.455-21.293 28.395s8.835 23.992 21.293 28.396c4.906 1.734 8.983 5.921 8.983 11.126V491.5c0 5.523-4.477 10-10 10H564.679a7 7 0 0 0 7-7v-11.208a7 7 0 1 0-14 0V494.5a7 7 0 0 0 7 7H458c-5.523 0-10-4.477-10-10v-24.729c0-5.204 4.077-9.391 8.984-11.125 12.459-4.404 21.294-15.457 21.294-28.397s-8.836-23.993-21.294-28.396c-4.907-1.735-8.984-5.922-8.984-11.126V363c0-5.523 4.477-10 10-10zm-256.321 78.458a7 7 0 0 0-7 7v22.417a7 7 0 1 0 14 0v-22.417a7 7 0 0 0-7-7m0-44.833a7 7 0 0 0-7 7v22.417a7 7 0 1 0 14 0v-22.417a7 7 0 0 0-7-7m0-33.625a7 7 0 0 0-7 7v11.208a7 7 0 1 0 14 0V360a7 7 0 0 0-7-7"/><path fill="#000" d="m610.391 440.513.712-.596 4.36.596h18.107l4.36-.596.712.596v9.501h-.941l-2.869-6.999-7.986-.322v29.077l4.222 1.652v.941H618.63v-.941l3.993-1.652v-29.077l-8.285.368-3.006 6.953h-.941zm39.794 2.593v28.664l4.223 1.652v.941h-12.691v-.941l3.993-1.652v-28.664l-4.223-1.652v-.941h12.691v.941zm35.594 30.408a24.4 24.4 0 0 1-8.216 1.423q-2.846 0-5.438-.62a17.5 17.5 0 0 1-4.843-2.019 16.2 16.2 0 0 1-3.924-3.351q-1.653-1.973-2.616-4.819-.942-2.869-.941-6.311 0-4.315 1.4-7.78 1.4-3.488 3.809-5.691 2.433-2.227 5.646-3.397t6.907-1.17q3.902 0 7.895 1.262l-.046 8.744h-.941l-2.868-6.541q-1.928-.849-5.072-.849-1.836 0-3.466.482-1.629.482-3.144 1.606-1.492 1.125-2.593 2.846-1.079 1.698-1.721 4.315-.643 2.616-.643 5.898 0 3.488 1.01 6.356 1.033 2.847 2.8 4.705a12.6 12.6 0 0 0 4.085 2.846q2.34.987 4.98.987 2.34 0 4.429-.666l2.524-7.55h.941zm34.332-33.001v1.102l-4.521 1.675-10.189 12.783 10.763 15.468 4.315 1.744v1.078h-7.849l-10.901-16.225h-2.777v13.632l4.246 1.652v.941h-12.462v-.941l3.993-1.652v-28.664l-4.222-1.652v-.941h12.438v.941l-3.993 1.652v12.921l3.488-.643 9.685-12.415-3.534-1.354v-1.102zm3.213 33.85v-.941l4.223-1.652v-28.664l-4.223-1.652v-.941h18.658l4.36-.596.712.596v9.226h-.941l-2.915-6.77h-11.176v12.92l9.524-.459.895.321-.459 3.053-9.96-.367v13.494h11.635l2.915-6.77h.941v9.202zm27.011-33.85.712-.596 4.36.596h18.107l4.361-.596.711.596v9.501h-.941l-2.869-6.999-7.986-.322v29.077l4.223 1.652v.941h-12.439v-.941l3.993-1.652v-29.077l-8.284.368-3.007 6.953h-.941zM614.224 417.363h-24.441v-.941l4.222-1.652v-28.664l-4.222-1.652v-.941h12.92v.941l-3.993 1.652v28.572h11.658l2.915-6.77h.941zm19.851.941q-4.43 0-7.918-2.134-3.465-2.157-5.462-6.219t-1.996-9.409q0-3.994 1.239-7.39 1.262-3.42 3.419-5.737a15.8 15.8 0 0 1 5.095-3.626q2.914-1.309 6.219-1.309 3.282 0 6.082 1.309a14.1 14.1 0 0 1 4.842 3.603q2.02 2.318 3.167 5.714 1.148 3.373 1.148 7.39 0 3.993-1.263 7.366-1.239 3.374-3.373 5.646a15.1 15.1 0 0 1-5.049 3.534q-2.892 1.262-6.15 1.262m.275-33.23q-3.213 0-5.668 1.996-2.433 1.974-3.741 5.485-1.308 3.489-1.308 7.987 0 6.839 2.937 11.061 2.938 4.2 7.78 4.2 4.773 0 7.688-4.246 2.937-4.245 2.938-11.061 0-6.84-2.938-11.131-2.937-4.291-7.688-4.291m18.612-1.561.711-.596 4.361.596h18.107l4.36-.596.711.596v9.501h-.941l-2.868-6.999-7.986-.322v29.077l4.222 1.652v.941h-12.438v-.941l3.993-1.652v-29.077l-8.285.368-3.006 6.953h-.941zm28.732 0 .712-.596 4.36.596h18.107l4.36-.596.712.596v9.501h-.941l-2.869-6.999-7.986-.322v29.077l4.223 1.652v.941h-12.439v-.941l3.993-1.652v-29.077l-8.284.368-3.007 6.953h-.941zm31.097 33.85v-.941l4.222-1.652v-28.664l-4.222-1.652v-.941h18.657l4.361-.596.711.596v9.226h-.941l-2.914-6.77h-11.177v12.92l9.524-.459.895.321-.459 3.053-9.96-.367v13.494h11.636l2.914-6.77h.941v9.202zm51.406 0-7.229-14.182q-.666.092-1.377.137-.688.046-1.423.046a23 23 0 0 1-1.744-.069 42 42 0 0 1-1.813-.183v11.658l5.186 1.652v.941h-13.631v-.941l4.222-1.652v-28.664l-4.222-1.652v-.941h12.92q2.984 0 5.301.689 2.318.665 3.902 1.904 1.606 1.24 2.432 2.984.826 1.721.826 3.832 0 3.099-1.606 5.508-1.584 2.387-4.705 3.649l6.679 13.035 3.373 1.308v.941zm-8.446-31.44h-5.14v14.756a46 46 0 0 0 1.767.184q.85.045 1.652.046 8.859 0 8.859-7.619 0-3.695-1.836-5.531t-5.302-1.836m27.195-2.41v.941l-3.006 1.193 7.894 15.606h.207l8.399-15.56-3.098-1.239v-.941h9.639v.941l-3.534 1.652-10.006 18.291v10.373l4.223 1.652v.941h-12.439v-.941l3.993-1.652v-10.327l-9.914-18.337-3.763-1.652v-.941zM529.143 401.523q0-1.504-.559-2.599a5.4 5.4 0 0 0-1.525-1.848q-.967-.773-2.321-1.267a18 18 0 0 0-2.943-.752 34 34 0 0 0-3.395-.366 76 76 0 0 0-7.283 0 34 34 0 0 0-3.351.366q-1.569.279-2.922.752a8.6 8.6 0 0 0-2.321 1.267 5.7 5.7 0 0 0-1.525 1.869q-.537 1.096-.537 2.578 0 1.46.537 2.536a5.3 5.3 0 0 0 1.504 1.826q.967.752 2.299 1.224 1.353.495 2.943.752a27 27 0 0 0 3.373.366 62 62 0 0 0 7.305 0 27 27 0 0 0 3.373-.366 16.7 16.7 0 0 0 2.943-.73q1.354-.473 2.321-1.246a5.2 5.2 0 0 0 1.525-1.826q.558-1.075.559-2.536m-31.024-.257q0-2.944 1.246-5.114 1.246-2.148 3.524-3.416 2.298-1.268 5.242-1.869t6.617-.601q3.652 0 6.66.687t5.307 2.063q2.298 1.374 3.566 3.609 1.29 2.256 1.289 5.199 0 2.342-.838 4.19-.837 1.847-2.32 3.072-1.482 1.246-3.609 2.062a20 20 0 0 1-4.598 1.182q-2.47.366-5.414.365-3.631 0-6.617-.687-2.987-.666-5.264-2.041-2.277-1.354-3.545-3.588-1.245-2.213-1.246-5.113m31.024 27.929q0-1.504-.559-2.599a5.4 5.4 0 0 0-1.525-1.848q-.967-.774-2.321-1.268a18 18 0 0 0-2.943-.751 34 34 0 0 0-3.395-.366 76 76 0 0 0-7.283 0 34 34 0 0 0-3.351.366q-1.569.279-2.922.751-1.332.495-2.321 1.268a5.7 5.7 0 0 0-1.525 1.869q-.537 1.096-.537 2.578 0 1.461.537 2.535a5.3 5.3 0 0 0 1.504 1.827q.967.752 2.299 1.224 1.353.495 2.943.752 1.59.28 3.373.365a62 62 0 0 0 7.305 0 27 27 0 0 0 3.373-.365 16.7 16.7 0 0 0 2.943-.73q1.354-.473 2.321-1.246a5.2 5.2 0 0 0 1.525-1.827q.558-1.074.559-2.535m-31.024-.257q0-2.944 1.246-5.114 1.246-2.148 3.524-3.416 2.298-1.268 5.242-1.869t6.617-.601q3.652 0 6.66.687t5.307 2.063q2.298 1.374 3.566 3.609 1.29 2.256 1.289 5.199 0 2.342-.838 4.19-.837 1.846-2.32 3.072-1.482 1.246-3.609 2.062a20 20 0 0 1-4.598 1.182q-2.47.365-5.414.365-3.631 0-6.617-.687-2.987-.666-5.264-2.041-2.277-1.354-3.545-3.588-1.245-2.213-1.246-5.113m25.309 35.578q-2.041 0-3.975-1.526-1.913-1.503-3.459-4.103a41 41 0 0 1-1.267 2.342 14.6 14.6 0 0 1-1.332 1.89q-.774.988-1.569 1.526-.795.558-1.912.902t-2.471.344a8.1 8.1 0 0 1-3.373-.752 10 10 0 0 1-2.986-2.041q-1.332-1.311-2.148-3.33-.817-1.998-.817-4.362 0-2.341.795-4.318.774-1.977 2.063-3.244a9.8 9.8 0 0 1 2.964-1.977 8.6 8.6 0 0 1 3.416-.709q2.622 0 4.877 1.569 2.278 1.589 3.567 4.726 1.439-2.814 3.287-3.974 1.848-1.14 4.189-1.139 1.956 0 3.567.773 1.611.795 2.621 2.084a9.6 9.6 0 0 1 1.547 2.879q.558 1.611.558 3.33 0 4.319-2.234 6.703-2.213 2.407-5.908 2.407m-9.518-9.454.924-1.804q-1.16-2.127-2.857-3.072-1.698-.924-4.491-.924-3.093 0-5.07 1.697-1.955 1.697-1.955 4.447 0 2.728 1.912 4.405 1.933 1.675 4.404 1.675a5.4 5.4 0 0 0 1.698-.257q.794-.237 1.718-.903.924-.644 1.848-1.976.945-1.311 1.869-3.288m9.904-4.447q-2.04 0-3.502 1.268-1.439 1.267-3.179 4.726l-.322.602a9.3 9.3 0 0 0 2.921 2.428q1.677.88 3.202.881 2.814 0 4.533-1.311 1.719-1.289 1.719-3.803 0-2.17-1.461-3.48-1.44-1.311-3.911-1.311"/></g><g filter="url(#g)"><path fill="#fbbb63" d="M821 526c5.523 0 10 4.477 10 10v24.728c0 5.204-4.077 9.391-8.983 11.126-12.458 4.403-21.293 15.455-21.293 28.395s8.835 23.992 21.293 28.396c4.906 1.734 8.983 5.921 8.983 11.126V664.5c0 5.523-4.477 10-10 10H564.679a7 7 0 0 0 7-7v-11.208a7 7 0 1 0-14 0V667.5a7 7 0 0 0 7 7H458c-5.523 0-10-4.477-10-10v-24.729c0-5.204 4.077-9.391 8.984-11.125 12.459-4.404 21.294-15.457 21.294-28.397s-8.836-23.993-21.294-28.396c-4.907-1.735-8.984-5.922-8.984-11.126V536c0-5.523 4.477-10 10-10zm-256.321 78.458a7 7 0 0 0-7 7v22.417a7 7 0 1 0 14 0v-22.417a7 7 0 0 0-7-7m0-44.833a7 7 0 0 0-7 7v22.417a7 7 0 1 0 14 0v-22.417a7 7 0 0 0-7-7m0-33.625a7 7 0 0 0-7 7v11.208a7 7 0 1 0 14 0V533a7 7 0 0 0-7-7"/><path fill="#000" d="m610.391 613.513.712-.596 4.36.596h18.107l4.36-.596.712.596v9.501h-.941l-2.869-6.999-7.986-.322v29.077l4.222 1.652v.941H618.63v-.941l3.993-1.652v-29.077l-8.285.368-3.006 6.953h-.941zm39.794 2.593v28.664l4.223 1.652v.941h-12.691v-.941l3.993-1.652v-28.664l-4.223-1.652v-.941h12.691v.941zm35.594 30.408a24.4 24.4 0 0 1-8.216 1.423q-2.846 0-5.438-.62a17.5 17.5 0 0 1-4.843-2.019 16.2 16.2 0 0 1-3.924-3.351q-1.653-1.973-2.616-4.819-.942-2.869-.941-6.311 0-4.314 1.4-7.78 1.4-3.488 3.809-5.691 2.433-2.226 5.646-3.397t6.907-1.17q3.902 0 7.895 1.262l-.046 8.744h-.941l-2.868-6.541q-1.928-.849-5.072-.849-1.836 0-3.466.482-1.629.482-3.144 1.606-1.492 1.125-2.593 2.846-1.079 1.698-1.721 4.315-.643 2.616-.643 5.898 0 3.488 1.01 6.356 1.033 2.847 2.8 4.705a12.6 12.6 0 0 0 4.085 2.846q2.34.987 4.98.987 2.34 0 4.429-.666l2.524-7.55h.941zm34.332-33.001v1.102l-4.521 1.675-10.189 12.783 10.763 15.468 4.315 1.744v1.078h-7.849l-10.901-16.225h-2.777v13.632l4.246 1.652v.941h-12.462v-.941l3.993-1.652v-28.664l-4.222-1.652v-.941h12.438v.941l-3.993 1.652v12.921l3.488-.643 9.685-12.415-3.534-1.354v-1.102zm3.213 33.85v-.941l4.223-1.652v-28.664l-4.223-1.652v-.941h18.658l4.36-.596.712.596v9.226h-.941l-2.915-6.77h-11.176v12.92l9.524-.459.895.321-.459 3.053-9.96-.367v13.494h11.635l2.915-6.77h.941v9.202zm27.011-33.85.712-.596 4.36.596h18.107l4.361-.596.711.596v9.501h-.941l-2.869-6.999-7.986-.322v29.077l4.223 1.652v.941h-12.439v-.941l3.993-1.652v-29.077l-8.284.368-3.007 6.953h-.941zM614.224 590.363h-24.441v-.941l4.222-1.652v-28.664l-4.222-1.652v-.941h12.92v.941l-3.993 1.652v28.572h11.658l2.915-6.77h.941zm19.851.941q-4.43 0-7.918-2.134-3.465-2.157-5.462-6.219t-1.996-9.409q0-3.994 1.239-7.39 1.262-3.42 3.419-5.737a15.8 15.8 0 0 1 5.095-3.626q2.914-1.308 6.219-1.309 3.282 0 6.082 1.309a14.1 14.1 0 0 1 4.842 3.603q2.02 2.318 3.167 5.714 1.148 3.373 1.148 7.39 0 3.993-1.263 7.366-1.239 3.374-3.373 5.646a15.1 15.1 0 0 1-5.049 3.534q-2.892 1.262-6.15 1.262m.275-33.23q-3.213 0-5.668 1.996-2.433 1.974-3.741 5.485-1.308 3.489-1.308 7.987 0 6.838 2.937 11.061 2.938 4.2 7.78 4.2 4.773 0 7.688-4.246 2.937-4.245 2.938-11.061 0-6.84-2.938-11.131-2.937-4.291-7.688-4.291m18.612-1.561.711-.596 4.361.596h18.107l4.36-.596.711.596v9.501h-.941l-2.868-6.999-7.986-.322v29.077l4.222 1.652v.941h-12.438v-.941l3.993-1.652v-29.077l-8.285.368-3.006 6.953h-.941zm28.732 0 .712-.596 4.36.596h18.107l4.36-.596.712.596v9.501h-.941l-2.869-6.999-7.986-.322v29.077l4.223 1.652v.941h-12.439v-.941l3.993-1.652v-29.077l-8.284.368-3.007 6.953h-.941zm31.097 33.85v-.941l4.222-1.652v-28.664l-4.222-1.652v-.941h18.657l4.361-.596.711.596v9.226h-.941l-2.914-6.77h-11.177v12.92l9.524-.459.895.321-.459 3.053-9.96-.367v13.494h11.636l2.914-6.77h.941v9.202zm51.406 0-7.229-14.182q-.666.092-1.377.137-.688.046-1.423.046a23 23 0 0 1-1.744-.069 42 42 0 0 1-1.813-.183v11.658l5.186 1.652v.941h-13.631v-.941l4.222-1.652v-28.664l-4.222-1.652v-.941h12.92q2.984 0 5.301.689 2.318.665 3.902 1.904 1.606 1.24 2.432 2.984.826 1.721.826 3.832 0 3.099-1.606 5.508-1.584 2.387-4.705 3.649l6.679 13.035 3.373 1.308v.941zm-8.446-31.44h-5.14v14.756a46 46 0 0 0 1.767.184q.85.045 1.652.046 8.859 0 8.859-7.619 0-3.696-1.836-5.531-1.836-1.836-5.302-1.836m27.195-2.41v.941l-3.006 1.193 7.894 15.606h.207l8.399-15.56-3.098-1.239v-.941h9.639v.941l-3.534 1.652-10.006 18.291v10.373l4.223 1.652v.941h-12.439v-.941l3.993-1.652v-10.327l-9.914-18.337-3.763-1.652v-.941zM529.143 573.357q0-1.503-.559-2.599a5.4 5.4 0 0 0-1.525-1.848q-.967-.773-2.321-1.267a18 18 0 0 0-2.943-.752 34 34 0 0 0-3.395-.366 76 76 0 0 0-7.283 0 34 34 0 0 0-3.351.366q-1.569.279-2.922.752a8.6 8.6 0 0 0-2.321 1.267 5.7 5.7 0 0 0-1.525 1.869q-.537 1.096-.537 2.578 0 1.46.537 2.536a5.3 5.3 0 0 0 1.504 1.826q.967.751 2.299 1.224 1.353.495 2.943.752a27 27 0 0 0 3.373.366 62 62 0 0 0 7.305 0 27 27 0 0 0 3.373-.366 16.7 16.7 0 0 0 2.943-.73q1.354-.473 2.321-1.246a5.2 5.2 0 0 0 1.525-1.826q.558-1.075.559-2.536m-31.024-.257q0-2.944 1.246-5.114 1.246-2.148 3.524-3.416 2.298-1.268 5.242-1.869t6.617-.601q3.652 0 6.66.687t5.307 2.063q2.298 1.374 3.566 3.609 1.29 2.256 1.289 5.199 0 2.342-.838 4.19-.837 1.847-2.32 3.072-1.482 1.246-3.609 2.062a20 20 0 0 1-4.598 1.182q-2.47.366-5.414.365-3.631 0-6.617-.687-2.987-.667-5.264-2.041-2.277-1.355-3.545-3.588-1.245-2.213-1.246-5.113m31.024 27.929q0-1.503-.559-2.599a5.4 5.4 0 0 0-1.525-1.848q-.967-.774-2.321-1.268a18 18 0 0 0-2.943-.752 34 34 0 0 0-3.395-.365 76 76 0 0 0-7.283 0 34 34 0 0 0-3.351.365 19 19 0 0 0-2.922.752q-1.332.495-2.321 1.268a5.7 5.7 0 0 0-1.525 1.869q-.537 1.096-.537 2.578 0 1.461.537 2.535a5.3 5.3 0 0 0 1.504 1.827q.967.751 2.299 1.224 1.353.495 2.943.752 1.59.28 3.373.365a62 62 0 0 0 7.305 0 27 27 0 0 0 3.373-.365 16.7 16.7 0 0 0 2.943-.73q1.354-.473 2.321-1.246a5.2 5.2 0 0 0 1.525-1.827q.558-1.074.559-2.535m-31.024-.258q0-2.943 1.246-5.113 1.246-2.148 3.524-3.416 2.298-1.267 5.242-1.869t6.617-.602q3.652 0 6.66.688t5.307 2.062q2.298 1.375 3.566 3.61 1.29 2.256 1.289 5.199 0 2.342-.838 4.19-.837 1.846-2.32 3.072-1.482 1.246-3.609 2.062a20 20 0 0 1-4.598 1.182q-2.47.365-5.414.365-3.631 0-6.617-.687-2.987-.667-5.264-2.041-2.277-1.355-3.545-3.588-1.245-2.213-1.246-5.114m2.063 20.797q0 4.92 3.287 8.229t9.26 4.146q-2.772-3.996-2.772-7.39 0-4.276 2.879-7.133t7.67-2.858q3.33 0 5.865 1.483 2.558 1.482 3.867 3.975 1.332 2.492 1.332 5.542 0 5.5-3.91 8.293-3.888 2.793-11.322 2.793-2.814 0-5.479-.644a18.9 18.9 0 0 1-4.963-1.912 17.6 17.6 0 0 1-4.039-3.03q-1.74-1.74-2.75-4.146-.988-2.406-.988-5.135 0-2.578.58-4.898l1.655.215q-.172 1.052-.172 2.47m29.047 5.994q0-1.288-.516-2.47a6.9 6.9 0 0 0-1.504-2.127q-.989-.945-2.664-1.504-1.654-.558-3.76-.559-2.127 0-3.717.559-1.59.58-2.513 1.568a6.7 6.7 0 0 0-1.375 2.235q-.451 1.246-.451 2.728 0 2.815 1.546 6.123.73.087 2.235.086 2.943 0 5.199-.344t3.975-1.095q1.74-.752 2.642-2.063.903-1.31.903-3.137"/></g><g filter="url(#h)"><path fill="#fbbb63" d="M821 699c5.523 0 10 4.477 10 10v24.728c0 5.204-4.077 9.391-8.983 11.126-12.458 4.403-21.293 15.455-21.293 28.395s8.835 23.992 21.293 28.396c4.906 1.734 8.983 5.921 8.983 11.126V837.5c0 5.523-4.477 10-10 10H564.679a7 7 0 0 0 7-7v-11.208a7 7 0 1 0-14 0V840.5a7 7 0 0 0 7 7H458c-5.523 0-10-4.477-10-10v-24.729c0-5.204 4.077-9.391 8.984-11.125 12.459-4.404 21.294-15.457 21.294-28.397s-8.836-23.993-21.294-28.396c-4.907-1.735-8.984-5.922-8.984-11.126V709c0-5.523 4.477-10 10-10zm-256.321 78.458a7 7 0 0 0-7 7v22.417a7 7 0 1 0 14 0v-22.417a7 7 0 0 0-7-7m0-44.833a7 7 0 0 0-7 7v22.417a7 7 0 1 0 14 0v-22.417a7 7 0 0 0-7-7m0-33.625a7 7 0 0 0-7 7v11.208a7 7 0 1 0 14 0V706a7 7 0 0 0-7-7"/><path fill="#000" d="m610.391 786.513.712-.596 4.36.596h18.107l4.36-.596.712.596v9.501h-.941l-2.869-6.999-7.986-.322v29.077l4.222 1.652v.941H618.63v-.941l3.993-1.652v-29.077l-8.285.368-3.006 6.953h-.941zm39.794 2.593v28.664l4.223 1.652v.941h-12.691v-.941l3.993-1.652v-28.664l-4.223-1.652v-.941h12.691v.941zm35.594 30.408a24.4 24.4 0 0 1-8.216 1.423q-2.846 0-5.438-.62a17.5 17.5 0 0 1-4.843-2.019 16.2 16.2 0 0 1-3.924-3.351q-1.653-1.973-2.616-4.819-.942-2.869-.941-6.311 0-4.314 1.4-7.78 1.4-3.488 3.809-5.691 2.433-2.227 5.646-3.397t6.907-1.17q3.902 0 7.895 1.262l-.046 8.744h-.941l-2.868-6.541q-1.928-.849-5.072-.849-1.836 0-3.466.482-1.629.482-3.144 1.606-1.492 1.125-2.593 2.846-1.079 1.698-1.721 4.315-.643 2.616-.643 5.898 0 3.488 1.01 6.356 1.033 2.847 2.8 4.705a12.6 12.6 0 0 0 4.085 2.846q2.34.987 4.98.987 2.34 0 4.429-.666l2.524-7.55h.941zm34.332-33.001v1.102l-4.521 1.675-10.189 12.783 10.763 15.468 4.315 1.744v1.078h-7.849l-10.901-16.225h-2.777v13.632l4.246 1.652v.941h-12.462v-.941l3.993-1.652v-28.664l-4.222-1.652v-.941h12.438v.941l-3.993 1.652v12.921l3.488-.643 9.685-12.415-3.534-1.354v-1.102zm3.213 33.85v-.941l4.223-1.652v-28.664l-4.223-1.652v-.941h18.658l4.36-.596.712.596v9.226h-.941l-2.915-6.77h-11.176v12.92l9.524-.459.895.321-.459 3.053-9.96-.367v13.494h11.635l2.915-6.77h.941v9.202zm27.011-33.85.712-.596 4.36.596h18.107l4.361-.596.711.596v9.501h-.941l-2.869-6.999-7.986-.322v29.077l4.223 1.652v.941h-12.439v-.941l3.993-1.652v-29.077l-8.284.368-3.007 6.953h-.941zM614.224 763.363h-24.441v-.941l4.222-1.652v-28.664l-4.222-1.652v-.941h12.92v.941l-3.993 1.652v28.572h11.658l2.915-6.77h.941zm19.851.941q-4.43 0-7.918-2.134-3.465-2.157-5.462-6.219t-1.996-9.409q0-3.994 1.239-7.39 1.262-3.42 3.419-5.737a15.8 15.8 0 0 1 5.095-3.626q2.914-1.308 6.219-1.309 3.282 0 6.082 1.309a14.1 14.1 0 0 1 4.842 3.603q2.02 2.318 3.167 5.714 1.148 3.373 1.148 7.39 0 3.993-1.263 7.366-1.239 3.374-3.373 5.646a15.1 15.1 0 0 1-5.049 3.534q-2.892 1.262-6.15 1.262m.275-33.23q-3.213 0-5.668 1.996-2.433 1.974-3.741 5.485-1.308 3.489-1.308 7.987 0 6.838 2.937 11.061 2.938 4.2 7.78 4.2 4.773 0 7.688-4.246 2.937-4.245 2.938-11.061 0-6.84-2.938-11.131-2.937-4.291-7.688-4.291m18.612-1.561.711-.596 4.361.596h18.107l4.36-.596.711.596v9.501h-.941l-2.868-6.999-7.986-.322v29.077l4.222 1.652v.941h-12.438v-.941l3.993-1.652v-29.077l-8.285.368-3.006 6.953h-.941zm28.732 0 .712-.596 4.36.596h18.107l4.36-.596.712.596v9.501h-.941l-2.869-6.999-7.986-.322v29.077l4.223 1.652v.941h-12.439v-.941l3.993-1.652v-29.077l-8.284.368-3.007 6.953h-.941zm31.097 33.85v-.941l4.222-1.652v-28.664l-4.222-1.652v-.941h18.657l4.361-.596.711.596v9.226h-.941l-2.914-6.77h-11.177v12.92l9.524-.459.895.321-.459 3.053-9.96-.367v13.494h11.636l2.914-6.77h.941v9.202zm51.406 0-7.229-14.182q-.666.092-1.377.137-.688.046-1.423.046a23 23 0 0 1-1.744-.069 42 42 0 0 1-1.813-.183v11.658l5.186 1.652v.941h-13.631v-.941l4.222-1.652v-28.664l-4.222-1.652v-.941h12.92q2.984 0 5.301.689 2.318.665 3.902 1.904 1.606 1.24 2.432 2.984.826 1.721.826 3.832 0 3.099-1.606 5.508-1.584 2.387-4.705 3.649l6.679 13.035 3.373 1.308v.941zm-8.446-31.44h-5.14v14.756a46 46 0 0 0 1.767.184q.85.045 1.652.046 8.859 0 8.859-7.619 0-3.696-1.836-5.531-1.836-1.836-5.302-1.836m27.195-2.41v.941l-3.006 1.193 7.894 15.606h.207l8.399-15.56-3.098-1.239v-.941h9.639v.941l-3.534 1.652-10.006 18.291v10.373l4.223 1.652v.941h-12.439v-.941l3.993-1.652v-10.327l-9.914-18.337-3.763-1.652v-.941zM529.143 750.424q0-1.504-.559-2.6a5.4 5.4 0 0 0-1.525-1.847q-.967-.774-2.321-1.268a18 18 0 0 0-2.943-.752 34 34 0 0 0-3.395-.365 76 76 0 0 0-7.283 0 34 34 0 0 0-3.351.365q-1.569.28-2.922.752-1.332.494-2.321 1.268a5.65 5.65 0 0 0-1.525 1.869q-.537 1.096-.537 2.578 0 1.461.537 2.535a5.3 5.3 0 0 0 1.504 1.826q.967.752 2.299 1.225 1.353.494 2.943.752 1.59.28 3.373.365 1.805.107 3.674.107a60 60 0 0 0 3.631-.107 27 27 0 0 0 3.373-.365 16.7 16.7 0 0 0 2.943-.731q1.354-.472 2.321-1.246a5.2 5.2 0 0 0 1.525-1.826q.558-1.074.559-2.535m-31.024-.258q0-2.943 1.246-5.113 1.246-2.149 3.524-3.416 2.298-1.267 5.242-1.869t6.617-.602q3.652 0 6.66.688t5.307 2.062q2.298 1.375 3.566 3.609 1.29 2.256 1.289 5.2 0 2.341-.838 4.189-.837 1.848-2.32 3.072-1.482 1.247-3.609 2.063a20 20 0 0 1-4.598 1.181q-2.47.366-5.414.366-3.631 0-6.617-.688-2.987-.666-5.264-2.041-2.277-1.353-3.545-3.588-1.245-2.212-1.246-5.113m27.113 16.264 1.891-.473 4.082 8.83v1.676h-29.648l-.881 4.404H499v-14.179h1.676l.881 5.736h25.072zm3.911 30.572q0-1.504-.559-2.6a5.4 5.4 0 0 0-1.525-1.847q-.967-.773-2.321-1.268a18 18 0 0 0-2.943-.752 34 34 0 0 0-3.395-.365 76 76 0 0 0-7.283 0 34 34 0 0 0-3.351.365q-1.569.28-2.922.752-1.332.495-2.321 1.268a5.65 5.65 0 0 0-1.525 1.869q-.537 1.096-.537 2.578 0 1.461.537 2.535a5.3 5.3 0 0 0 1.504 1.826q.967.753 2.299 1.225 1.353.494 2.943.752 1.59.28 3.373.365 1.805.108 3.674.107a60 60 0 0 0 3.631-.107 27 27 0 0 0 3.373-.365 16.7 16.7 0 0 0 2.943-.731q1.354-.472 2.321-1.246a5.2 5.2 0 0 0 1.525-1.826q.558-1.074.559-2.535m-31.024-.258q0-2.944 1.246-5.113 1.246-2.148 3.524-3.416 2.298-1.268 5.242-1.869 2.943-.602 6.617-.602 3.652 0 6.66.688t5.307 2.062q2.298 1.375 3.566 3.61 1.29 2.255 1.289 5.199 0 2.341-.838 4.189-.837 1.848-2.32 3.072-1.482 1.247-3.609 2.063-2.127.838-4.598 1.182-2.47.365-5.414.365-3.631 0-6.617-.688-2.987-.666-5.264-2.041-2.277-1.353-3.545-3.588-1.245-2.212-1.246-5.113"/></g><circle cx="606" cy="956" r="8" fill="#d9d9d9"/><circle cx="606" cy="956" r="8" fill="#d9d9d9"/><circle cx="640" cy="956" r="8" fill="#d9d9d9"/><circle cx="674" cy="956" r="8" fill="#d9d9d9"/><path fill="#fbbb63" d="M1249 0c5.52 0 10 4.477 10 10v24.728c0 5.204-4.08 9.39-8.98 11.125-12.46 4.404-21.3 15.456-21.3 28.396s8.84 23.992 21.3 28.396c4.9 1.734 8.98 5.921 8.98 11.126V138.5c0 5.523-4.48 10-10 10H992.679a7 7 0 0 0 7-7v-11.208a7 7 0 1 0-14 0V141.5a7 7 0 0 0 7 7H886c-5.523 0-10-4.477-10-10v-24.729c0-5.204 4.077-9.391 8.984-11.125 12.459-4.404 21.294-15.457 21.294-28.397s-8.836-23.993-21.294-28.396C880.077 44.118 876 39.93 876 34.727V10c0-5.523 4.477-10 10-10zM992.679 78.458a7 7 0 0 0-7 7v22.417a7 7 0 1 0 14 0V85.458a7 7 0 0 0-7-7m0-44.833a7 7 0 0 0-7 7v22.417a7 7 0 0 0 14 0V40.625a7 7 0 0 0-7-7m0-33.625a7 7 0 0 0-7 7v11.208a7 7 0 1 0 14 0V7a7 7 0 0 0-7-7"/><path fill="#000" d="m1038.39 87.513.71-.597 4.36.597h18.11l4.36-.597.71.597v9.501h-.94l-2.87-7-7.98-.32v29.076l4.22 1.652v.941h-12.44v-.941l3.99-1.652V89.693l-8.28.368-3.01 6.953h-.94zm39.8 2.593v28.664l4.22 1.652v.941h-12.69v-.941l3.99-1.652V90.106l-4.22-1.652v-.94h12.69v.94zm35.59 30.408a24.5 24.5 0 0 1-8.22 1.423c-1.89 0-3.71-.207-5.44-.62a17.6 17.6 0 0 1-4.84-2.019 16 16 0 0 1-3.92-3.351c-1.1-1.315-1.98-2.922-2.62-4.819-.63-1.913-.94-4.016-.94-6.311 0-2.876.47-5.47 1.4-7.78q1.395-3.488 3.81-5.691c1.62-1.484 3.5-2.617 5.65-3.397q3.21-1.17 6.9-1.17c2.6 0 5.24.42 7.9 1.262l-.05 8.744h-.94l-2.87-6.54q-1.92-.85-5.07-.85c-1.22 0-2.38.16-3.46.482q-1.635.482-3.15 1.606c-.99.75-1.86 1.699-2.59 2.846-.72 1.132-1.29 2.57-1.72 4.315-.43 1.744-.65 3.71-.65 5.898 0 2.325.34 4.444 1.01 6.356.69 1.898 1.63 3.466 2.8 4.705a12.6 12.6 0 0 0 4.09 2.846q2.34.987 4.98.987c1.56 0 3.04-.222 4.43-.666l2.52-7.55h.94zm34.33-33v1.1l-4.52 1.676-10.19 12.783 10.76 15.468 4.32 1.744v1.078h-7.85l-10.9-16.225h-2.78v13.632l4.25 1.652v.941h-12.46v-.941l3.99-1.652V90.106l-4.22-1.652v-.94h12.44v.94l-4 1.652v12.921l3.49-.643 9.68-12.415-3.53-1.354v-1.102zm3.21 33.849v-.941l4.23-1.652V90.106l-4.23-1.652v-.94h18.66l4.36-.597.71.596v9.226h-.94l-2.91-6.77h-11.18v12.92l9.53-.459.89.321-.46 3.053-9.96-.367v13.494h11.64l2.91-6.77h.94v9.202zm27.02-33.85.71-.597 4.36.597h18.1l4.36-.597.72.597v9.501h-.94l-2.87-7-7.99-.32v29.076l4.22 1.652v.941h-12.44v-.941l4-1.652V89.693l-8.29.368-3 6.953h-.94zM1042.22 64.363h-24.44v-.94l4.23-1.653V33.106l-4.23-1.652v-.94h12.92v.94l-3.99 1.652v28.572h11.66l2.91-6.77h.94zm19.85.941c-2.95 0-5.59-.711-7.91-2.134q-3.465-2.157-5.46-6.22c-1.34-2.707-2-5.844-2-9.409 0-2.662.41-5.125 1.24-7.39q1.26-3.419 3.42-5.736a15.8 15.8 0 0 1 5.09-3.626c1.95-.873 4.02-1.309 6.22-1.309 2.19 0 4.22.436 6.08 1.309a14.2 14.2 0 0 1 4.85 3.603c1.34 1.545 2.4 3.45 3.16 5.714.77 2.249 1.15 4.712 1.15 7.39q0 3.993-1.26 7.366c-.83 2.25-1.95 4.131-3.38 5.646a15 15 0 0 1-5.04 3.534c-1.93.841-3.98 1.262-6.16 1.262m.28-33.23q-3.21 0-5.67 1.996c-1.62 1.316-2.87 3.144-3.74 5.485-.87 2.326-1.31 4.988-1.31 7.986q0 6.84 2.94 11.062c1.96 2.8 4.55 4.2 7.78 4.2 3.18 0 5.75-1.415 7.69-4.246q2.94-4.245 2.94-11.061 0-6.84-2.94-11.13c-1.96-2.862-4.52-4.292-7.69-4.292m18.61-1.56.71-.598 4.36.597h18.11l4.36-.597.71.597v9.501h-.94l-2.87-7-7.98-.32V61.77l4.22 1.652v.941h-12.44v-.94l3.99-1.653V32.693l-8.28.367-3.01 6.954h-.94zm28.73 0 .72-.598 4.36.597h18.1l4.36-.597.71.597v9.501h-.94l-2.86-7-7.99-.32V61.77l4.22 1.652v.941h-12.44v-.94l4-1.653V32.693l-8.29.367-3 6.954h-.95zm31.1 33.85v-.942l4.22-1.652V33.106l-4.22-1.652v-.94h18.66l4.36-.598.71.597v9.226h-.94l-2.92-6.77h-11.17v12.92l9.52-.459.9.322-.46 3.052-9.96-.367V61.93h11.63l2.92-6.77h.94v9.202zm51.41 0-7.23-14.183a21.325 21.325 0 0 1-2.8.184c-.57 0-1.15-.024-1.75-.07-.58-.046-1.18-.107-1.81-.183V61.77l5.19 1.652v.941h-13.63v-.94l4.22-1.653V33.106l-4.22-1.652v-.94h12.92c1.98 0 3.75.229 5.3.688q2.31.665 3.9 1.904 1.605 1.24 2.43 2.984c.55 1.147.83 2.425.83 3.832 0 2.066-.54 3.902-1.61 5.508-1.05 1.591-2.62 2.808-4.7 3.65l6.67 13.034 3.38 1.308v.941zm-8.45-31.441h-5.14v14.756q.945.115 1.77.184.84.046 1.65.046c5.91 0 8.86-2.54 8.86-7.62 0-2.463-.61-4.306-1.84-5.53-1.22-1.224-2.99-1.836-5.3-1.836m27.2-2.41v.941l-3.01 1.194 7.89 15.605h.21l8.4-15.56-3.1-1.239v-.94h9.64v.94l-3.53 1.652-10.01 18.291V61.77l4.22 1.652v.941h-12.43v-.94l3.99-1.653V51.443l-9.92-18.337-3.76-1.652v-.94zM957.143 55.307q0-1.505-.559-2.6a5.4 5.4 0 0 0-1.525-1.848q-.967-.773-2.321-1.267a18 18 0 0 0-2.943-.752 34 34 0 0 0-3.395-.365 76 76 0 0 0-3.652-.086q-1.848 0-3.631.086a34 34 0 0 0-3.351.365q-1.569.28-2.922.752-1.332.495-2.321 1.267a5.7 5.7 0 0 0-1.525 1.87q-.537 1.096-.537 2.578 0 1.461.537 2.535a5.3 5.3 0 0 0 1.504 1.826q.966.752 2.299 1.225 1.353.494 2.943.752 1.59.279 3.373.365a62 62 0 0 0 7.305 0 27 27 0 0 0 3.373-.365 16.7 16.7 0 0 0 2.943-.73q1.354-.474 2.321-1.247a5.2 5.2 0 0 0 1.525-1.826q.558-1.074.559-2.535m-31.024-.258q0-2.943 1.246-5.114 1.246-2.148 3.524-3.416 2.298-1.267 5.242-1.869 2.943-.6 6.617-.601 3.652 0 6.66.687t5.307 2.063q2.298 1.374 3.566 3.61 1.29 2.255 1.289 5.198 0 2.342-.838 4.19-.837 1.848-2.32 3.072-1.482 1.245-3.609 2.063a20 20 0 0 1-4.598 1.181q-2.47.365-5.414.365-3.631 0-6.617-.687-2.987-.666-5.264-2.041-2.277-1.353-3.545-3.588-1.245-2.213-1.246-5.113m27.113 16.264 1.891-.473 4.082 8.83v1.676h-29.648l-.881 4.404H927V71.57h1.676l.881 5.737h25.072zm0 18.906 1.891-.473 4.082 8.83v1.676h-29.648l-.881 4.404H927v-14.18h1.676l.881 5.737h25.072z"/><g filter="url(#i)"><path fill="#fbbb63" d="M1249 173c5.52 0 10 4.477 10 10v24.728c0 5.204-4.08 9.391-8.98 11.126-12.46 4.403-21.3 15.455-21.3 28.395s8.84 23.992 21.3 28.396c4.9 1.734 8.98 5.921 8.98 11.126V311.5c0 5.523-4.48 10-10 10H992.679a7 7 0 0 0 7-7v-11.208a7 7 0 1 0-14 0V314.5a7 7 0 0 0 7 7H886c-5.523 0-10-4.477-10-10v-24.729c0-5.204 4.077-9.391 8.984-11.125 12.459-4.404 21.294-15.457 21.294-28.397s-8.836-23.993-21.294-28.396c-4.907-1.735-8.984-5.922-8.984-11.126V183c0-5.523 4.477-10 10-10zm-256.321 78.458a7 7 0 0 0-7 7v22.417a7 7 0 1 0 14 0v-22.417a7 7 0 0 0-7-7m0-44.833a7 7 0 0 0-7 7v22.417a7 7 0 1 0 14 0v-22.417a7 7 0 0 0-7-7m0-33.625a7 7 0 0 0-7 7v11.208a7 7 0 1 0 14 0V180a7 7 0 0 0-7-7"/><path fill="#000" d="m1038.39 260.513.71-.596 4.36.596h18.11l4.36-.596.71.596v9.501h-.94l-2.87-6.999-7.98-.322v29.077l4.22 1.652v.941h-12.44v-.941l3.99-1.652v-29.077l-8.28.368-3.01 6.953h-.94zm39.8 2.593v28.664l4.22 1.652v.941h-12.69v-.941l3.99-1.652v-28.664l-4.22-1.652v-.941h12.69v.941zm35.59 30.408a24.5 24.5 0 0 1-8.22 1.423c-1.89 0-3.71-.207-5.44-.62a17.6 17.6 0 0 1-4.84-2.019 16 16 0 0 1-3.92-3.351c-1.1-1.315-1.98-2.922-2.62-4.819-.63-1.913-.94-4.016-.94-6.311 0-2.876.47-5.47 1.4-7.78q1.395-3.488 3.81-5.691c1.62-1.484 3.5-2.617 5.65-3.397q3.21-1.17 6.9-1.17c2.6 0 5.24.421 7.9 1.262l-.05 8.744h-.94l-2.87-6.541q-1.92-.849-5.07-.849c-1.22 0-2.38.161-3.46.482q-1.635.482-3.15 1.606c-.99.75-1.86 1.699-2.59 2.846-.72 1.132-1.29 2.57-1.72 4.315-.43 1.744-.65 3.71-.65 5.898 0 2.325.34 4.444 1.01 6.356.69 1.898 1.63 3.466 2.8 4.705a12.6 12.6 0 0 0 4.09 2.846q2.34.987 4.98.987c1.56 0 3.04-.222 4.43-.666l2.52-7.55h.94zm34.33-33.001v1.102l-4.52 1.675-10.19 12.783 10.76 15.468 4.32 1.744v1.078h-7.85l-10.9-16.225h-2.78v13.632l4.25 1.652v.941h-12.46v-.941l3.99-1.652v-28.664l-4.22-1.652v-.941h12.44v.941l-4 1.652v12.921l3.49-.643 9.68-12.415-3.53-1.354v-1.102zm3.21 33.85v-.941l4.23-1.652v-28.664l-4.23-1.652v-.941h18.66l4.36-.596.71.596v9.226h-.94l-2.91-6.77h-11.18v12.92l9.53-.459.89.321-.46 3.053-9.96-.367v13.494h11.64l2.91-6.77h.94v9.202zm27.02-33.85.71-.596 4.36.596h18.1l4.36-.596.72.596v9.501h-.94l-2.87-6.999-7.99-.322v29.077l4.22 1.652v.941h-12.44v-.941l4-1.652v-29.077l-8.29.368-3 6.953h-.94zM1042.22 237.363h-24.44v-.941l4.23-1.652v-28.664l-4.23-1.652v-.941h12.92v.941l-3.99 1.652v28.572h11.66l2.91-6.77h.94zm19.85.941c-2.95 0-5.59-.711-7.91-2.134q-3.465-2.157-5.46-6.219c-1.34-2.708-2-5.845-2-9.409 0-2.663.41-5.126 1.24-7.39q1.26-3.42 3.42-5.737a15.8 15.8 0 0 1 5.09-3.626c1.95-.872 4.02-1.309 6.22-1.309 2.19 0 4.22.437 6.08 1.309a14.15 14.15 0 0 1 4.85 3.603c1.34 1.545 2.4 3.45 3.16 5.714.77 2.249 1.15 4.712 1.15 7.39q0 3.993-1.26 7.366c-.83 2.249-1.95 4.131-3.38 5.646a15 15 0 0 1-5.04 3.534c-1.93.841-3.98 1.262-6.16 1.262m.28-33.23q-3.21 0-5.67 1.996c-1.62 1.316-2.87 3.144-3.74 5.485-.87 2.326-1.31 4.988-1.31 7.987q0 6.838 2.94 11.061c1.96 2.8 4.55 4.2 7.78 4.2 3.18 0 5.75-1.415 7.69-4.246q2.94-4.245 2.94-11.061 0-6.84-2.94-11.131c-1.96-2.861-4.52-4.291-7.69-4.291m18.61-1.561.71-.596 4.36.596h18.11l4.36-.596.71.596v9.501h-.94l-2.87-6.999-7.98-.322v29.077l4.22 1.652v.941h-12.44v-.941l3.99-1.652v-29.077l-8.28.368-3.01 6.953h-.94zm28.73 0 .72-.596 4.36.596h18.1l4.36-.596.71.596v9.501h-.94l-2.86-6.999-7.99-.322v29.077l4.22 1.652v.941h-12.44v-.941l4-1.652v-29.077l-8.29.368-3 6.953h-.95zm31.1 33.85v-.941l4.22-1.652v-28.664l-4.22-1.652v-.941h18.66l4.36-.596.71.596v9.226h-.94l-2.92-6.77h-11.17v12.92l9.52-.459.9.321-.46 3.053-9.96-.367v13.494h11.63l2.92-6.77h.94v9.202zm51.41 0-7.23-14.182a21.057 21.057 0 0 1-2.8.183c-.57 0-1.15-.023-1.75-.069-.58-.045-1.18-.107-1.81-.183v11.658l5.19 1.652v.941h-13.63v-.941l4.22-1.652v-28.664l-4.22-1.652v-.941h12.92c1.98 0 3.75.23 5.3.689q2.31.665 3.9 1.904 1.605 1.24 2.43 2.984c.55 1.147.83 2.425.83 3.832 0 2.066-.54 3.902-1.61 5.508-1.05 1.591-2.62 2.808-4.7 3.649l6.67 13.035 3.38 1.308v.941zm-8.45-31.44h-5.14v14.756q.945.115 1.77.184.84.046 1.65.046c5.91 0 8.86-2.54 8.86-7.619 0-2.464-.61-4.307-1.84-5.531-1.22-1.224-2.99-1.836-5.3-1.836m27.2-2.41v.941l-3.01 1.193 7.89 15.606h.21l8.4-15.56-3.1-1.239v-.941h9.64v.941l-3.53 1.652-10.01 18.291v10.373l4.22 1.652v.941h-12.43v-.941l3.99-1.652v-10.327l-9.92-18.337-3.76-1.652v-.941zM957.143 225.32q0-1.504-.559-2.599a5.4 5.4 0 0 0-1.525-1.848q-.967-.773-2.321-1.268a18 18 0 0 0-2.943-.751 34 34 0 0 0-3.395-.366 76 76 0 0 0-7.283 0 34 34 0 0 0-3.351.366q-1.569.279-2.922.751-1.332.495-2.321 1.268a5.7 5.7 0 0 0-1.525 1.869q-.537 1.096-.537 2.578 0 1.461.537 2.535a5.3 5.3 0 0 0 1.504 1.827q.966.751 2.299 1.224 1.353.495 2.943.752 1.59.28 3.373.365a62 62 0 0 0 7.305 0 27 27 0 0 0 3.373-.365 16.7 16.7 0 0 0 2.943-.73q1.354-.473 2.321-1.246a5.2 5.2 0 0 0 1.525-1.827q.558-1.074.559-2.535m-31.024-.258q0-2.943 1.246-5.113 1.246-2.148 3.524-3.416 2.298-1.268 5.242-1.869 2.943-.602 6.617-.602 3.652 0 6.66.688t5.307 2.062q2.298 1.375 3.566 3.61 1.29 2.256 1.289 5.199 0 2.342-.838 4.19-.837 1.846-2.32 3.072-1.482 1.246-3.609 2.062a20 20 0 0 1-4.598 1.182q-2.47.365-5.414.365-3.631 0-6.617-.687-2.987-.666-5.264-2.041-2.277-1.354-3.545-3.588-1.245-2.213-1.246-5.114m27.113 16.264 1.891-.472 4.082 8.83v1.675h-29.648l-.881 4.405H927v-14.18h1.676l.881 5.736h25.072zM935.443 280.6H927v-20.411h2.814l8.938 8.809q5.93 5.844 12.01 5.844 3.05 0 4.705-1.697 1.676-1.676 1.676-4.899 0-1.611-.452-3.652l-6.38-2.299v-1.311h7.927q1.332 3.417 1.332 7.735 0 2.191-.429 4.039a11.4 11.4 0 0 1-1.332 3.394q-.903 1.548-2.536 2.428-1.632.88-3.845.881-1.44 0-2.364-.107-.923-.086-2.212-.495a10 10 0 0 1-2.536-1.181q-1.224-.774-2.9-2.17-1.675-1.375-3.717-3.438l-7.219-7.218v12.761l4.963 1.461z"/></g><g filter="url(#j)"><path fill="#fbbb63" d="M1249 346c5.52 0 10 4.477 10 10v24.728c0 5.204-4.08 9.391-8.98 11.126-12.46 4.403-21.3 15.455-21.3 28.395s8.84 23.992 21.3 28.396c4.9 1.734 8.98 5.921 8.98 11.126V484.5c0 5.523-4.48 10-10 10H992.679a7 7 0 0 0 7-7v-11.208a7 7 0 1 0-14 0V487.5a7 7 0 0 0 7 7H886c-5.523 0-10-4.477-10-10v-24.729c0-5.204 4.077-9.391 8.984-11.125 12.459-4.404 21.294-15.457 21.294-28.397s-8.836-23.993-21.294-28.396c-4.907-1.735-8.984-5.922-8.984-11.126V356c0-5.523 4.477-10 10-10zm-256.321 78.458a7 7 0 0 0-7 7v22.417a7 7 0 1 0 14 0v-22.417a7 7 0 0 0-7-7m0-44.833a7 7 0 0 0-7 7v22.417a7 7 0 1 0 14 0v-22.417a7 7 0 0 0-7-7m0-33.625a7 7 0 0 0-7 7v11.208a7 7 0 1 0 14 0V353a7 7 0 0 0-7-7"/><path fill="#000" d="m1038.39 433.513.71-.596 4.36.596h18.11l4.36-.596.71.596v9.501h-.94l-2.87-6.999-7.98-.322v29.077l4.22 1.652v.941h-12.44v-.941l3.99-1.652v-29.077l-8.28.368-3.01 6.953h-.94zm39.8 2.593v28.664l4.22 1.652v.941h-12.69v-.941l3.99-1.652v-28.664l-4.22-1.652v-.941h12.69v.941zm35.59 30.408a24.5 24.5 0 0 1-8.22 1.423c-1.89 0-3.71-.207-5.44-.62a17.6 17.6 0 0 1-4.84-2.019 16 16 0 0 1-3.92-3.351c-1.1-1.315-1.98-2.922-2.62-4.819-.63-1.913-.94-4.016-.94-6.311 0-2.876.47-5.47 1.4-7.78q1.395-3.488 3.81-5.691c1.62-1.484 3.5-2.617 5.65-3.397q3.21-1.17 6.9-1.17c2.6 0 5.24.421 7.9 1.262l-.05 8.744h-.94l-2.87-6.541q-1.92-.849-5.07-.849c-1.22 0-2.38.161-3.46.482q-1.635.482-3.15 1.606c-.99.75-1.86 1.699-2.59 2.846-.72 1.132-1.29 2.57-1.72 4.315-.43 1.744-.65 3.71-.65 5.898 0 2.325.34 4.444 1.01 6.356.69 1.898 1.63 3.466 2.8 4.705a12.6 12.6 0 0 0 4.09 2.846q2.34.987 4.98.987c1.56 0 3.04-.222 4.43-.666l2.52-7.55h.94zm34.33-33.001v1.102l-4.52 1.675-10.19 12.783 10.76 15.468 4.32 1.744v1.078h-7.85l-10.9-16.225h-2.78v13.632l4.25 1.652v.941h-12.46v-.941l3.99-1.652v-28.664l-4.22-1.652v-.941h12.44v.941l-4 1.652v12.921l3.49-.643 9.68-12.415-3.53-1.354v-1.102zm3.21 33.85v-.941l4.23-1.652v-28.664l-4.23-1.652v-.941h18.66l4.36-.596.71.596v9.226h-.94l-2.91-6.77h-11.18v12.92l9.53-.459.89.321-.46 3.053-9.96-.367v13.494h11.64l2.91-6.77h.94v9.202zm27.02-33.85.71-.596 4.36.596h18.1l4.36-.596.72.596v9.501h-.94l-2.87-6.999-7.99-.322v29.077l4.22 1.652v.941h-12.44v-.941l4-1.652v-29.077l-8.29.368-3 6.953h-.94zM1042.22 410.363h-24.44v-.941l4.23-1.652v-28.664l-4.23-1.652v-.941h12.92v.941l-3.99 1.652v28.572h11.66l2.91-6.77h.94zm19.85.941c-2.95 0-5.59-.711-7.91-2.134q-3.465-2.157-5.46-6.219c-1.34-2.708-2-5.845-2-9.409 0-2.663.41-5.126 1.24-7.39q1.26-3.42 3.42-5.737a15.8 15.8 0 0 1 5.09-3.626c1.95-.872 4.02-1.309 6.22-1.309 2.19 0 4.22.437 6.08 1.309a14.15 14.15 0 0 1 4.85 3.603c1.34 1.545 2.4 3.45 3.16 5.714.77 2.249 1.15 4.712 1.15 7.39q0 3.993-1.26 7.366c-.83 2.249-1.95 4.131-3.38 5.646a15 15 0 0 1-5.04 3.534c-1.93.841-3.98 1.262-6.16 1.262m.28-33.23q-3.21 0-5.67 1.996c-1.62 1.316-2.87 3.144-3.74 5.485-.87 2.326-1.31 4.988-1.31 7.987q0 6.839 2.94 11.061c1.96 2.8 4.55 4.2 7.78 4.2 3.18 0 5.75-1.415 7.69-4.246q2.94-4.245 2.94-11.061 0-6.84-2.94-11.131c-1.96-2.861-4.52-4.291-7.69-4.291m18.61-1.561.71-.596 4.36.596h18.11l4.36-.596.71.596v9.501h-.94l-2.87-6.999-7.98-.322v29.077l4.22 1.652v.941h-12.44v-.941l3.99-1.652v-29.077l-8.28.368-3.01 6.953h-.94zm28.73 0 .72-.596 4.36.596h18.1l4.36-.596.71.596v9.501h-.94l-2.86-6.999-7.99-.322v29.077l4.22 1.652v.941h-12.44v-.941l4-1.652v-29.077l-8.29.368-3 6.953h-.95zm31.1 33.85v-.941l4.22-1.652v-28.664l-4.22-1.652v-.941h18.66l4.36-.596.71.596v9.226h-.94l-2.92-6.77h-11.17v12.92l9.52-.459.9.321-.46 3.053-9.96-.367v13.494h11.63l2.92-6.77h.94v9.202zm51.41 0-7.23-14.182a21.057 21.057 0 0 1-2.8.183c-.57 0-1.15-.023-1.75-.069-.58-.045-1.18-.107-1.81-.183v11.658l5.19 1.652v.941h-13.63v-.941l4.22-1.652v-28.664l-4.22-1.652v-.941h12.92c1.98 0 3.75.23 5.3.689q2.31.665 3.9 1.904 1.605 1.24 2.43 2.984c.55 1.147.83 2.425.83 3.832 0 2.066-.54 3.902-1.61 5.508-1.05 1.591-2.62 2.808-4.7 3.649l6.67 13.035 3.38 1.308v.941zm-8.45-31.44h-5.14v14.756q.945.115 1.77.184.84.045 1.65.046c5.91 0 8.86-2.54 8.86-7.619 0-2.464-.61-4.307-1.84-5.531-1.22-1.224-2.99-1.836-5.3-1.836m27.2-2.41v.941l-3.01 1.193 7.89 15.606h.21l8.4-15.56-3.1-1.239v-.941h9.64v.941l-3.53 1.652-10.01 18.291v10.373l4.22 1.652v.941h-12.43v-.941l3.99-1.652v-10.327l-9.92-18.337-3.76-1.652v-.941zM957.143 399.137q0-1.504-.559-2.6a5.4 5.4 0 0 0-1.525-1.848q-.967-.773-2.321-1.267a18 18 0 0 0-2.943-.752 34 34 0 0 0-3.395-.365 75 75 0 0 0-3.652-.086q-1.848 0-3.631.086a34 34 0 0 0-3.351.365q-1.569.28-2.922.752a8.6 8.6 0 0 0-2.321 1.267 5.7 5.7 0 0 0-1.525 1.87q-.537 1.095-.537 2.578 0 1.461.537 2.535a5.3 5.3 0 0 0 1.504 1.826q.966.752 2.299 1.225 1.353.494 2.943.752 1.59.28 3.373.365a62 62 0 0 0 7.305 0 27 27 0 0 0 3.373-.365 16.7 16.7 0 0 0 2.943-.731q1.354-.472 2.321-1.246a5.2 5.2 0 0 0 1.525-1.826q.558-1.074.559-2.535m-31.024-.258q0-2.943 1.246-5.113 1.246-2.149 3.524-3.416 2.298-1.267 5.242-1.87 2.943-.601 6.617-.601 3.652 0 6.66.687t5.307 2.063q2.298 1.375 3.566 3.609 1.29 2.256 1.289 5.2 0 2.341-.838 4.189-.837 1.848-2.32 3.072-1.482 1.246-3.609 2.063a20 20 0 0 1-4.598 1.181q-2.47.366-5.414.366-3.631 0-6.617-.688-2.987-.666-5.264-2.041-2.277-1.353-3.545-3.588-1.245-2.213-1.246-5.113m27.113 16.264 1.891-.473 4.082 8.83v1.676h-29.648l-.881 4.404H927V415.4h1.676l.881 5.737h25.072zm-25.652 19.314h8.186v1.096l-6.381 2.32q-.924 2.106-.924 4.018 0 3.093 1.568 4.877 1.569 1.804 4.985 1.804 3.072 0 4.984-1.804t1.912-4.577v-2.234h2.944v2.191q0 1.59 1.009 2.772a5.8 5.8 0 0 0 2.428 1.74 8 8 0 0 0 2.943.559q5.866 0 5.866-5.865 0-1.396-.366-3.159l-6.38-2.299v-1.31h7.927a20.4 20.4 0 0 1 1.289 7.176 17 17 0 0 1-.236 2.9q-.237 1.353-.816 2.621a7.4 7.4 0 0 1-1.483 2.17q-.88.903-2.299 1.44-1.397.537-3.179.537-2.343 0-4.555-1.461-2.191-1.461-3.244-3.953h-.172q-.559 1.697-1.203 2.857a8.9 8.9 0 0 1-1.633 2.106q-.988.945-2.406 1.396-1.419.473-3.33.473-2.9 0-4.942-1.504-2.02-1.483-2.986-3.996-.967-2.493-.967-5.78 0-3.673 1.461-7.111"/></g><g filter="url(#k)"><path fill="#fbbb63" d="M1249 519c5.52 0 10 4.477 10 10v24.728c0 5.204-4.08 9.391-8.98 11.126-12.46 4.403-21.3 15.455-21.3 28.395s8.84 23.992 21.3 28.396c4.9 1.734 8.98 5.921 8.98 11.126V657.5c0 5.523-4.48 10-10 10H992.679a7 7 0 0 0 7-7v-11.208a7 7 0 1 0-14 0V660.5a7 7 0 0 0 7 7H886c-5.523 0-10-4.477-10-10v-24.729c0-5.204 4.077-9.391 8.984-11.125 12.459-4.404 21.294-15.457 21.294-28.397s-8.836-23.993-21.294-28.396c-4.907-1.735-8.984-5.922-8.984-11.126V529c0-5.523 4.477-10 10-10zm-256.321 78.458a7 7 0 0 0-7 7v22.417a7 7 0 1 0 14 0v-22.417a7 7 0 0 0-7-7m0-44.833a7 7 0 0 0-7 7v22.417a7 7 0 1 0 14 0v-22.417a7 7 0 0 0-7-7m0-33.625a7 7 0 0 0-7 7v11.208a7 7 0 1 0 14 0V526a7 7 0 0 0-7-7"/><path fill="#000" d="m1038.39 606.513.71-.596 4.36.596h18.11l4.36-.596.71.596v9.501h-.94l-2.87-6.999-7.98-.322v29.077l4.22 1.652v.941h-12.44v-.941l3.99-1.652v-29.077l-8.28.368-3.01 6.953h-.94zm39.8 2.593v28.664l4.22 1.652v.941h-12.69v-.941l3.99-1.652v-28.664l-4.22-1.652v-.941h12.69v.941zm35.59 30.408a24.5 24.5 0 0 1-8.22 1.423c-1.89 0-3.71-.207-5.44-.62a17.6 17.6 0 0 1-4.84-2.019 16 16 0 0 1-3.92-3.351c-1.1-1.315-1.98-2.922-2.62-4.819-.63-1.913-.94-4.016-.94-6.311 0-2.876.47-5.47 1.4-7.78q1.395-3.488 3.81-5.691c1.62-1.484 3.5-2.617 5.65-3.397q3.21-1.17 6.9-1.17c2.6 0 5.24.421 7.9 1.262l-.05 8.744h-.94l-2.87-6.541q-1.92-.849-5.07-.849c-1.22 0-2.38.161-3.46.482q-1.635.482-3.15 1.606c-.99.75-1.86 1.699-2.59 2.846-.72 1.132-1.29 2.57-1.72 4.315-.43 1.744-.65 3.71-.65 5.898 0 2.325.34 4.444 1.01 6.356.69 1.898 1.63 3.466 2.8 4.705a12.6 12.6 0 0 0 4.09 2.846q2.34.987 4.98.987c1.56 0 3.04-.222 4.43-.666l2.52-7.55h.94zm34.33-33.001v1.102l-4.52 1.675-10.19 12.783 10.76 15.468 4.32 1.744v1.078h-7.85l-10.9-16.225h-2.78v13.632l4.25 1.652v.941h-12.46v-.941l3.99-1.652v-28.664l-4.22-1.652v-.941h12.44v.941l-4 1.652v12.921l3.49-.643 9.68-12.415-3.53-1.354v-1.102zm3.21 33.85v-.941l4.23-1.652v-28.664l-4.23-1.652v-.941h18.66l4.36-.596.71.596v9.226h-.94l-2.91-6.77h-11.18v12.92l9.53-.459.89.321-.46 3.053-9.96-.367v13.494h11.64l2.91-6.77h.94v9.202zm27.02-33.85.71-.596 4.36.596h18.1l4.36-.596.72.596v9.501h-.94l-2.87-6.999-7.99-.322v29.077l4.22 1.652v.941h-12.44v-.941l4-1.652v-29.077l-8.29.368-3 6.953h-.94zM1042.22 583.363h-24.44v-.941l4.23-1.652v-28.664l-4.23-1.652v-.941h12.92v.941l-3.99 1.652v28.572h11.66l2.91-6.77h.94zm19.85.941c-2.95 0-5.59-.711-7.91-2.134q-3.465-2.157-5.46-6.219c-1.34-2.708-2-5.845-2-9.409 0-2.663.41-5.126 1.24-7.39q1.26-3.42 3.42-5.737a15.8 15.8 0 0 1 5.09-3.626c1.95-.872 4.02-1.309 6.22-1.309 2.19 0 4.22.437 6.08 1.309a14.15 14.15 0 0 1 4.85 3.603c1.34 1.545 2.4 3.45 3.16 5.714.77 2.249 1.15 4.712 1.15 7.39q0 3.993-1.26 7.366c-.83 2.249-1.95 4.131-3.38 5.646a15 15 0 0 1-5.04 3.534c-1.93.841-3.98 1.262-6.16 1.262m.28-33.23q-3.21 0-5.67 1.996c-1.62 1.316-2.87 3.144-3.74 5.485-.87 2.326-1.31 4.988-1.31 7.987q0 6.838 2.94 11.061c1.96 2.8 4.55 4.2 7.78 4.2 3.18 0 5.75-1.415 7.69-4.246q2.94-4.245 2.94-11.061 0-6.84-2.94-11.131c-1.96-2.861-4.52-4.291-7.69-4.291m18.61-1.561.71-.596 4.36.596h18.11l4.36-.596.71.596v9.501h-.94l-2.87-6.999-7.98-.322v29.077l4.22 1.652v.941h-12.44v-.941l3.99-1.652v-29.077l-8.28.368-3.01 6.953h-.94zm28.73 0 .72-.596 4.36.596h18.1l4.36-.596.71.596v9.501h-.94l-2.86-6.999-7.99-.322v29.077l4.22 1.652v.941h-12.44v-.941l4-1.652v-29.077l-8.29.368-3 6.953h-.95zm31.1 33.85v-.941l4.22-1.652v-28.664l-4.22-1.652v-.941h18.66l4.36-.596.71.596v9.226h-.94l-2.92-6.77h-11.17v12.92l9.52-.459.9.321-.46 3.053-9.96-.367v13.494h11.63l2.92-6.77h.94v9.202zm51.41 0-7.23-14.182a21.057 21.057 0 0 1-2.8.183c-.57 0-1.15-.023-1.75-.069-.58-.045-1.18-.107-1.81-.183v11.658l5.19 1.652v.941h-13.63v-.941l4.22-1.652v-28.664l-4.22-1.652v-.941h12.92c1.98 0 3.75.23 5.3.689q2.31.665 3.9 1.904 1.605 1.24 2.43 2.984c.55 1.147.83 2.425.83 3.832 0 2.066-.54 3.902-1.61 5.508-1.05 1.591-2.62 2.808-4.7 3.649l6.67 13.035 3.38 1.308v.941zm-8.45-31.44h-5.14v14.756q.945.115 1.77.184.84.045 1.65.046c5.91 0 8.86-2.54 8.86-7.619 0-2.464-.61-4.307-1.84-5.531-1.22-1.224-2.99-1.836-5.3-1.836m27.2-2.41v.941l-3.01 1.193 7.89 15.606h.21l8.4-15.56-3.1-1.239v-.941h9.64v.941l-3.53 1.652-10.01 18.291v10.373l4.22 1.652v.941h-12.43v-.941l3.99-1.652v-10.327l-9.92-18.337-3.76-1.652v-.941zM957.143 571.406q0-1.503-.559-2.599a5.4 5.4 0 0 0-1.525-1.848q-.967-.774-2.321-1.268a18 18 0 0 0-2.943-.752 34 34 0 0 0-3.395-.365 76 76 0 0 0-7.283 0 34 34 0 0 0-3.351.365 19 19 0 0 0-2.922.752q-1.332.495-2.321 1.268a5.7 5.7 0 0 0-1.525 1.869q-.537 1.096-.537 2.578 0 1.461.537 2.535a5.3 5.3 0 0 0 1.504 1.827q.966.751 2.299 1.224 1.353.495 2.943.752 1.59.28 3.373.365a62 62 0 0 0 7.305 0 27 27 0 0 0 3.373-.365 16.7 16.7 0 0 0 2.943-.73q1.354-.473 2.321-1.246a5.2 5.2 0 0 0 1.525-1.827q.558-1.074.559-2.535m-31.024-.258q0-2.943 1.246-5.113 1.246-2.148 3.524-3.416 2.298-1.268 5.242-1.869 2.943-.602 6.617-.602 3.652 0 6.66.688t5.307 2.062q2.298 1.375 3.566 3.61 1.29 2.256 1.289 5.199 0 2.342-.838 4.189-.837 1.848-2.32 3.073-1.482 1.246-3.609 2.062a20 20 0 0 1-4.598 1.182q-2.47.365-5.414.365-3.631 0-6.617-.687-2.987-.667-5.264-2.041-2.277-1.355-3.545-3.588-1.245-2.213-1.246-5.114m27.113 16.264 1.891-.473 4.082 8.831v1.675h-29.648l-.881 4.405H927v-14.18h1.676l.881 5.736h25.072zm6.338 32.377v2.986h-22.451v4.233h-3.394v-4.233H927v-3.953h6.725v-14.308h3.48zm-22.451-11.967v11h16.371z"/></g><g filter="url(#l)"><path fill="#fbbb63" d="M1249 692c5.52 0 10 4.477 10 10v24.728c0 5.204-4.08 9.391-8.98 11.126-12.46 4.403-21.3 15.455-21.3 28.395s8.84 23.992 21.3 28.396c4.9 1.734 8.98 5.921 8.98 11.126V830.5c0 5.523-4.48 10-10 10H992.679a7 7 0 0 0 7-7v-11.208a7 7 0 1 0-14 0V833.5a7 7 0 0 0 7 7H886c-5.523 0-10-4.477-10-10v-24.729c0-5.204 4.077-9.391 8.984-11.125 12.459-4.404 21.294-15.457 21.294-28.397s-8.836-23.993-21.294-28.396c-4.907-1.735-8.984-5.922-8.984-11.126V702c0-5.523 4.477-10 10-10zm-256.321 78.458a7 7 0 0 0-7 7v22.417a7 7 0 1 0 14 0v-22.417a7 7 0 0 0-7-7m0-44.833a7 7 0 0 0-7 7v22.417a7 7 0 1 0 14 0v-22.417a7 7 0 0 0-7-7m0-33.625a7 7 0 0 0-7 7v11.208a7 7 0 1 0 14 0V699a7 7 0 0 0-7-7"/><path fill="#000" d="m1038.39 779.513.71-.596 4.36.596h18.11l4.36-.596.71.596v9.501h-.94l-2.87-6.999-7.98-.322v29.077l4.22 1.652v.941h-12.44v-.941l3.99-1.652v-29.077l-8.28.368-3.01 6.953h-.94zm39.8 2.593v28.664l4.22 1.652v.941h-12.69v-.941l3.99-1.652v-28.664l-4.22-1.652v-.941h12.69v.941zm35.59 30.408a24.5 24.5 0 0 1-8.22 1.423c-1.89 0-3.71-.207-5.44-.62a17.6 17.6 0 0 1-4.84-2.019 16 16 0 0 1-3.92-3.351c-1.1-1.315-1.98-2.922-2.62-4.819-.63-1.913-.94-4.016-.94-6.311 0-2.876.47-5.47 1.4-7.78q1.395-3.488 3.81-5.691c1.62-1.484 3.5-2.617 5.65-3.397q3.21-1.17 6.9-1.17c2.6 0 5.24.421 7.9 1.262l-.05 8.744h-.94l-2.87-6.541q-1.92-.849-5.07-.849c-1.22 0-2.38.161-3.46.482q-1.635.482-3.15 1.606c-.99.75-1.86 1.699-2.59 2.846-.72 1.132-1.29 2.57-1.72 4.315-.43 1.744-.65 3.71-.65 5.898 0 2.325.34 4.444 1.01 6.356.69 1.898 1.63 3.466 2.8 4.705a12.6 12.6 0 0 0 4.09 2.846q2.34.987 4.98.987c1.56 0 3.04-.222 4.43-.666l2.52-7.55h.94zm34.33-33.001v1.102l-4.52 1.675-10.19 12.783 10.76 15.468 4.32 1.744v1.078h-7.85l-10.9-16.225h-2.78v13.632l4.25 1.652v.941h-12.46v-.941l3.99-1.652v-28.664l-4.22-1.652v-.941h12.44v.941l-4 1.652v12.921l3.49-.643 9.68-12.415-3.53-1.354v-1.102zm3.21 33.85v-.941l4.23-1.652v-28.664l-4.23-1.652v-.941h18.66l4.36-.596.71.596v9.226h-.94l-2.91-6.77h-11.18v12.92l9.53-.459.89.321-.46 3.053-9.96-.367v13.494h11.64l2.91-6.77h.94v9.202zm27.02-33.85.71-.596 4.36.596h18.1l4.36-.596.72.596v9.501h-.94l-2.87-6.999-7.99-.322v29.077l4.22 1.652v.941h-12.44v-.941l4-1.652v-29.077l-8.29.368-3 6.953h-.94zM1042.22 756.363h-24.44v-.941l4.23-1.652v-28.664l-4.23-1.652v-.941h12.92v.941l-3.99 1.652v28.572h11.66l2.91-6.77h.94zm19.85.941c-2.95 0-5.59-.711-7.91-2.134q-3.465-2.157-5.46-6.219c-1.34-2.708-2-5.845-2-9.409 0-2.663.41-5.126 1.24-7.39q1.26-3.42 3.42-5.737a15.8 15.8 0 0 1 5.09-3.626c1.95-.872 4.02-1.309 6.22-1.309 2.19 0 4.22.437 6.08 1.309a14.15 14.15 0 0 1 4.85 3.603c1.34 1.545 2.4 3.45 3.16 5.714.77 2.249 1.15 4.712 1.15 7.39q0 3.993-1.26 7.366c-.83 2.249-1.95 4.131-3.38 5.646a15 15 0 0 1-5.04 3.534c-1.93.841-3.98 1.262-6.16 1.262m.28-33.23q-3.21 0-5.67 1.996c-1.62 1.316-2.87 3.144-3.74 5.485-.87 2.326-1.31 4.988-1.31 7.987q0 6.838 2.94 11.061c1.96 2.8 4.55 4.2 7.78 4.2 3.18 0 5.75-1.415 7.69-4.246q2.94-4.245 2.94-11.061 0-6.84-2.94-11.131c-1.96-2.861-4.52-4.291-7.69-4.291m18.61-1.561.71-.596 4.36.596h18.11l4.36-.596.71.596v9.501h-.94l-2.87-6.999-7.98-.322v29.077l4.22 1.652v.941h-12.44v-.941l3.99-1.652v-29.077l-8.28.368-3.01 6.953h-.94zm28.73 0 .72-.596 4.36.596h18.1l4.36-.596.71.596v9.501h-.94l-2.86-6.999-7.99-.322v29.077l4.22 1.652v.941h-12.44v-.941l4-1.652v-29.077l-8.29.368-3 6.953h-.95zm31.1 33.85v-.941l4.22-1.652v-28.664l-4.22-1.652v-.941h18.66l4.36-.596.71.596v9.226h-.94l-2.92-6.77h-11.17v12.92l9.52-.459.9.321-.46 3.053-9.96-.367v13.494h11.63l2.92-6.77h.94v9.202zm51.41 0-7.23-14.182a21.057 21.057 0 0 1-2.8.183c-.57 0-1.15-.023-1.75-.069-.58-.045-1.18-.107-1.81-.183v11.658l5.19 1.652v.941h-13.63v-.941l4.22-1.652v-28.664l-4.22-1.652v-.941h12.92c1.98 0 3.75.23 5.3.689q2.31.665 3.9 1.904 1.605 1.24 2.43 2.984c.55 1.147.83 2.425.83 3.832 0 2.066-.54 3.902-1.61 5.508-1.05 1.591-2.62 2.808-4.7 3.649l6.67 13.035 3.38 1.308v.941zm-8.45-31.44h-5.14v14.756q.945.115 1.77.184.84.045 1.65.046c5.91 0 8.86-2.54 8.86-7.619 0-2.464-.61-4.307-1.84-5.531-1.22-1.224-2.99-1.836-5.3-1.836m27.2-2.41v.941l-3.01 1.193 7.89 15.606h.21l8.4-15.56-3.1-1.239v-.941h9.64v.941l-3.53 1.652-10.01 18.291v10.373l4.22 1.652v.941h-12.43v-.941l3.99-1.652v-10.327l-9.92-18.337-3.76-1.652v-.941zM957.143 745.438q0-1.505-.559-2.6a5.4 5.4 0 0 0-1.525-1.848q-.967-.773-2.321-1.267a18 18 0 0 0-2.943-.752 34 34 0 0 0-3.395-.366 76 76 0 0 0-3.652-.085 76 76 0 0 0-3.631.085 34 34 0 0 0-3.351.366q-1.569.28-2.922.752a8.6 8.6 0 0 0-2.321 1.267 5.7 5.7 0 0 0-1.525 1.869q-.537 1.096-.537 2.579 0 1.46.537 2.535a5.3 5.3 0 0 0 1.504 1.826q.966.751 2.299 1.224 1.353.495 2.943.752a27 27 0 0 0 3.373.366 62 62 0 0 0 7.305 0 27 27 0 0 0 3.373-.366 16.6 16.6 0 0 0 2.943-.73q1.354-.473 2.321-1.246a5.2 5.2 0 0 0 1.525-1.826q.558-1.075.559-2.535m-31.024-.258q0-2.944 1.246-5.114 1.246-2.148 3.524-3.416 2.298-1.267 5.242-1.869 2.943-.601 6.617-.601 3.652 0 6.66.687t5.307 2.063q2.298 1.374 3.566 3.609 1.29 2.256 1.289 5.199 0 2.342-.838 4.19-.837 1.848-2.32 3.072-1.482 1.246-3.609 2.062a20 20 0 0 1-4.598 1.182q-2.47.365-5.414.365-3.631 0-6.617-.687-2.987-.666-5.264-2.041-2.277-1.353-3.545-3.588-1.245-2.213-1.246-5.113m27.113 16.263 1.891-.472 4.082 8.83v1.676h-29.648l-.881 4.404H927v-14.18h1.676l.881 5.737h25.072zm-25.652 18.864h8.186v1.095l-6.381 2.342q-.924 2.062-.924 3.996 0 1.461.408 2.75.408 1.29 1.203 2.321.817 1.052 2.149 1.654 1.353.623 3.093.623 1.332 0 2.471-.193a9 9 0 0 0 2.32-.752 6.5 6.5 0 0 0 2.041-1.461q.838-.882 1.354-2.428.537-1.526.537-3.524 0-2.32-.709-5.542h15.361v16.951h-3.394v-13.965H946.4q.537 2.707.538 4.898 0 2.342-.645 4.168-.623 1.848-1.633 2.965a8.3 8.3 0 0 1-2.342 1.869q-1.353.752-2.685 1.031-1.332.301-2.729.301-2.491 0-4.554-1.01t-3.416-2.707q-1.332-1.697-2.063-3.931a14.4 14.4 0 0 1-.752-4.662q0-3.438 1.461-6.789"/></g><defs><filter id="a" width="423" height="188.5" x="0" y="164" color-interpolation-filters="sRGB" filterUnits="userSpaceOnUse"><feFlood flood-opacity="0" result="BackgroundImageFix"/><feColorMatrix in="SourceAlpha" result="hardAlpha" values="0 0 0 0 0 0 0 0 0 0 0 0 0 0 0 0 0 0 127 0"/><feOffset dy="4"/><feGaussianBlur stdDeviation="10"/><feComposite in2="hardAlpha" operator="out"/><feColorMatrix values="0 0 0 0 0 0 0 0 0 0 0 0 0 0 0 0 0 0 1 0"/><feBlend in2="BackgroundImageFix" result="effect1_dropShadow_678_257"/><feBlend in="SourceGraphic" in2="effect1_dropShadow_678_257" result="shape"/></filter><filter id="b" width="423" height="188.5" x="0" y="337" color-interpolation-filters="sRGB" filterUnits="userSpaceOnUse"><feFlood flood-opacity="0" result="BackgroundImageFix"/><feColorMatrix in="SourceAlpha" result="hardAlpha" values="0 0 0 0 0 0 0 0 0 0 0 0 0 0 0 0 0 0 127 0"/><feOffset dy="4"/><feGaussianBlur stdDeviation="10"/><feComposite in2="hardAlpha" operator="out"/><feColorMatrix values="0 0 0 0 0 0 0 0 0 0 0 0 0 0 0 0 0 0 1 0"/><feBlend in2="BackgroundImageFix" result="effect1_dropShadow_678_257"/><feBlend in="SourceGraphic" in2="effect1_dropShadow_678_257" result="shape"/></filter><filter id="c" width="423" height="188.5" x="0" y="510" color-interpolation-filters="sRGB" filterUnits="userSpaceOnUse"><feFlood flood-opacity="0" result="BackgroundImageFix"/><feColorMatrix in="SourceAlpha" result="hardAlpha" values="0 0 0 0 0 0 0 0 0 0 0 0 0 0 0 0 0 0 127 0"/><feOffset dy="4"/><feGaussianBlur stdDeviation="10"/><feComposite in2="hardAlpha" operator="out"/><feColorMatrix values="0 0 0 0 0 0 0 0 0 0 0 0 0 0 0 0 0 0 1 0"/><feBlend in2="BackgroundImageFix" result="effect1_dropShadow_678_257"/><feBlend in="SourceGraphic" in2="effect1_dropShadow_678_257" result="shape"/></filter><filter id="d" width="423" height="188.5" x="0" y="683" color-interpolation-filters="sRGB" filterUnits="userSpaceOnUse"><feFlood flood-opacity="0" result="BackgroundImageFix"/><feColorMatrix in="SourceAlpha" result="hardAlpha" values="0 0 0 0 0 0 0 0 0 0 0 0 0 0 0 0 0 0 127 0"/><feOffset dy="4"/><feGaussianBlur stdDeviation="10"/><feComposite in2="hardAlpha" operator="out"/><feColorMatrix values="0 0 0 0 0 0 0 0 0 0 0 0 0 0 0 0 0 0 1 0"/><feBlend in2="BackgroundImageFix" result="effect1_dropShadow_678_257"/><feBlend in="SourceGraphic" in2="effect1_dropShadow_678_257" result="shape"/></filter><filter id="e" width="423" height="188.5" x="428" y="164" color-interpolation-filters="sRGB" filterUnits="userSpaceOnUse"><feFlood flood-opacity="0" result="BackgroundImageFix"/><feColorMatrix in="SourceAlpha" result="hardAlpha" values="0 0 0 0 0 0 0 0 0 0 0 0 0 0 0 0 0 0 127 0"/><feOffset dy="4"/><feGaussianBlur stdDeviation="10"/><feComposite in2="hardAlpha" operator="out"/><feColorMatrix values="0 0 0 0 0 0 0 0 0 0 0 0 0 0 0 0 0 0 1 0"/><feBlend in2="BackgroundImageFix" result="effect1_dropShadow_678_257"/><feBlend in="SourceGraphic" in2="effect1_dropShadow_678_257" result="shape"/></filter><filter id="f" width="423" height="188.5" x="428" y="337" color-interpolation-filters="sRGB" filterUnits="userSpaceOnUse"><feFlood flood-opacity="0" result="BackgroundImageFix"/><feColorMatrix in="SourceAlpha" result="hardAlpha" values="0 0 0 0 0 0 0 0 0 0 0 0 0 0 0 0 0 0 127 0"/><feOffset dy="4"/><feGaussianBlur stdDeviation="10"/><feComposite in2="hardAlpha" operator="out"/><feColorMatrix values="0 0 0 0 0 0 0 0 0 0 0 0 0 0 0 0 0 0 1 0"/><feBlend in2="BackgroundImageFix" result="effect1_dropShadow_678_257"/><feBlend in="SourceGraphic" in2="effect1_dropShadow_678_257" result="shape"/></filter><filter id="g" width="423" height="188.5" x="428" y="510" color-interpolation-filters="sRGB" filterUnits="userSpaceOnUse"><feFlood flood-opacity="0" result="BackgroundImageFix"/><feColorMatrix in="SourceAlpha" result="hardAlpha" values="0 0 0 0 0 0 0 0 0 0 0 0 0 0 0 0 0 0 127 0"/><feOffset dy="4"/><feGaussianBlur stdDeviation="10"/><feComposite in2="hardAlpha" operator="out"/><feColorMatrix values="0 0 0 0 0 0 0 0 0 0 0 0 0 0 0 0 0 0 1 0"/><feBlend in2="BackgroundImageFix" result="effect1_dropShadow_678_257"/><feBlend in="SourceGraphic" in2="effect1_dropShadow_678_257" result="shape"/></filter><filter id="h" width="423" height="188.5" x="428" y="683" color-interpolation-filters="sRGB" filterUnits="userSpaceOnUse"><feFlood flood-opacity="0" result="BackgroundImageFix"/><feColorMatrix in="SourceAlpha" result="hardAlpha" values="0 0 0 0 0 0 0 0 0 0 0 0 0 0 0 0 0 0 127 0"/><feOffset dy="4"/><feGaussianBlur stdDeviation="10"/><feComposite in2="hardAlpha" operator="out"/><feColorMatrix values="0 0 0 0 0 0 0 0 0 0 0 0 0 0 0 0 0 0 1 0"/><feBlend in2="BackgroundImageFix" result="effect1_dropShadow_678_257"/><feBlend in="SourceGraphic" in2="effect1_dropShadow_678_257" result="shape"/></filter><filter id="i" width="423" height="188.5" x="856" y="157" color-interpolation-filters="sRGB" filterUnits="userSpaceOnUse"><feFlood flood-opacity="0" result="BackgroundImageFix"/><feColorMatrix in="SourceAlpha" result="hardAlpha" values="0 0 0 0 0 0 0 0 0 0 0 0 0 0 0 0 0 0 127 0"/><feOffset dy="4"/><feGaussianBlur stdDeviation="10"/><feComposite in2="hardAlpha" operator="out"/><feColorMatrix values="0 0 0 0 0 0 0 0 0 0 0 0 0 0 0 0 0 0 1 0"/><feBlend in2="BackgroundImageFix" result="effect1_dropShadow_678_257"/><feBlend in="SourceGraphic" in2="effect1_dropShadow_678_257" result="shape"/></filter><filter id="j" width="423" height="188.5" x="856" y="330" color-interpolation-filters="sRGB" filterUnits="userSpaceOnUse"><feFlood flood-opacity="0" result="BackgroundImageFix"/><feColorMatrix in="SourceAlpha" result="hardAlpha" values="0 0 0 0 0 0 0 0 0 0 0 0 0 0 0 0 0 0 127 0"/><feOffset dy="4"/><feGaussianBlur stdDeviation="10"/><feComposite in2="hardAlpha" operator="out"/><feColorMatrix values="0 0 0 0 0 0 0 0 0 0 0 0 0 0 0 0 0 0 1 0"/><feBlend in2="BackgroundImageFix" result="effect1_dropShadow_678_257"/><feBlend in="SourceGraphic" in2="effect1_dropShadow_678_257" result="shape"/></filter><filter id="k" width="423" height="188.5" x="856" y="503" color-interpolation-filters="sRGB" filterUnits="userSpaceOnUse"><feFlood flood-opacity="0" result="BackgroundImageFix"/><feColorMatrix in="SourceAlpha" result="hardAlpha" values="0 0 0 0 0 0 0 0 0 0 0 0 0 0 0 0 0 0 127 0"/><feOffset dy="4"/><feGaussianBlur stdDeviation="10"/><feComposite in2="hardAlpha" operator="out"/><feColorMatrix values="0 0 0 0 0 0 0 0 0 0 0 0 0 0 0 0 0 0 1 0"/><feBlend in2="BackgroundImageFix" result="effect1_dropShadow_678_257"/><feBlend in="SourceGraphic" in2="effect1_dropShadow_678_257" result="shape"/></filter><filter id="l" width="423" height="188.5" x="856" y="676" color-interpolation-filters="sRGB" filterUnits="userSpaceOnUse"><feFlood flood-opacity="0" result="BackgroundImageFix"/><feColorMatrix in="SourceAlpha" result="hardAlpha" values="0 0 0 0 0 0 0 0 0 0 0 0 0 0 0 0 0 0 127 0"/><feOffset dy="4"/><feGaussianBlur stdDeviation="10"/><feComposite in2="hardAlpha" operator="out"/><feColorMatrix values="0 0 0 0 0 0 0 0 0 0 0 0 0 0 0 0 0 0 1 0"/><feBlend in2="BackgroundImageFix" result="effect1_dropShadow_678_257"/><feBlend in="SourceGraphic" in2="effect1_dropShadow_678_257" result="shape"/></filter></defs></svg>