<svg xmlns="http://www.w3.org/2000/svg" width="1467" height="691" fill="none" viewBox="0 0 1467 691"><path fill="#fff" d="M76.818 19q-.281-2.375-2.28-3.687Q72.536 14 69.63 14q-2.125 0-3.719.688-1.578.687-2.469 1.89a4.53 4.53 0 0 0-.875 2.735q0 1.28.61 2.203.624.906 1.594 1.515.968.594 2.03.985 1.064.375 1.954.609l3.25.875q1.25.328 2.781.906 1.547.579 2.953 1.578 1.422.985 2.344 2.532.922 1.546.922 3.797 0 2.593-1.36 4.687-1.343 2.094-3.937 3.328-2.578 1.234-6.266 1.234-3.437 0-5.953-1.109-2.5-1.109-3.937-3.094-1.422-1.984-1.61-4.609h4q.156 1.812 1.22 3 1.077 1.172 2.718 1.75 1.656.563 3.562.563 2.22 0 3.985-.72 1.766-.734 2.797-2.03 1.03-1.313 1.03-3.063 0-1.593-.89-2.594t-2.343-1.625a25 25 0 0 0-3.141-1.093l-3.938-1.125q-3.75-1.079-5.937-3.079T58.818 19.5q0-2.688 1.454-4.687 1.468-2.016 3.937-3.126 2.484-1.124 5.547-1.124 3.093 0 5.5 1.109 2.406 1.093 3.812 3 1.422 1.905 1.5 4.328zm19.809 24.5q-3.25 0-5.703-1.547-2.437-1.547-3.813-4.328-1.359-2.78-1.359-6.5 0-3.75 1.36-6.547 1.374-2.796 3.812-4.344 2.453-1.546 5.703-1.547t5.687 1.547q2.454 1.548 3.813 4.344 1.375 2.797 1.375 6.547 0 3.72-1.375 6.5-1.359 2.781-3.813 4.328-2.437 1.547-5.687 1.547m0-3.312q2.469 0 4.062-1.266t2.36-3.328q.765-2.063.765-4.469t-.765-4.484q-.766-2.079-2.36-3.36T96.627 22q-2.469 0-4.062 1.281-1.595 1.281-2.36 3.36-.766 2.078-.766 4.484t.766 4.469 2.36 3.328q1.593 1.266 4.062 1.266M113.131 43V19h3.562v3.625h.25q.657-1.781 2.375-2.89 1.72-1.11 3.875-1.11.407 0 1.016.016.61.015.922.047v3.75a11 11 0 0 0-.86-.141 8.5 8.5 0 0 0-1.39-.11q-1.75 0-3.125.735a5.54 5.54 0 0 0-2.156 2q-.782 1.266-.782 2.89V43zm28.312-24v3.125h-12.437V19zm-8.812-5.75h3.687v22.875q0 1.563.453 2.344.47.765 1.188 1.031.734.25 1.547.25.609 0 1-.062l.625-.126.75 3.313q-.375.141-1.047.281-.672.156-1.703.157a7.4 7.4 0 0 1-3.063-.672 6.1 6.1 0 0 1-2.468-2.047q-.969-1.375-.969-3.469zm24.164 30.25q-3.469 0-5.984-1.531-2.5-1.547-3.86-4.313-1.344-2.781-1.344-6.468 0-3.688 1.344-6.5 1.36-2.829 3.781-4.407 2.438-1.593 5.688-1.593 1.875 0 3.703.625 1.828.624 3.328 2.03 1.5 1.392 2.391 3.688.89 2.298.89 5.657v1.562h-18.5v-3.187h14.75q0-2.032-.812-3.625a6.1 6.1 0 0 0-2.281-2.516Q158.42 22 156.42 22q-2.203 0-3.813 1.094a7.2 7.2 0 0 0-2.453 2.812 8.26 8.26 0 0 0-.859 3.719v2.125q0 2.719.937 4.61.954 1.875 2.641 2.859 1.687.969 3.922.968 1.453 0 2.625-.406a5.6 5.6 0 0 0 2.047-1.25q.859-.843 1.328-2.093l3.562 1a7.9 7.9 0 0 1-1.89 3.187q-1.328 1.36-3.281 2.125-1.954.75-4.391.75m24.609 0q-3 0-5.297-1.516-2.297-1.53-3.593-4.312-1.297-2.797-1.297-6.61 0-3.78 1.297-6.562 1.296-2.78 3.609-4.297 2.313-1.515 5.344-1.515 2.344 0 3.703.78 1.376.767 2.094 1.75a29 29 0 0 1 1.14 1.595h.313V11h3.687v32h-3.562v-3.687h-.438q-.406.656-1.156 1.656-.75.984-2.141 1.765-1.39.765-3.703.766m.5-3.312q2.219 0 3.75-1.157 1.531-1.172 2.328-3.234.798-2.078.797-4.797 0-2.688-.781-4.703-.782-2.031-2.312-3.156Q184.154 22 181.904 22q-2.343 0-3.906 1.203-1.546 1.188-2.328 3.235-.765 2.031-.766 4.562 0 2.562.782 4.656.797 2.079 2.343 3.313 1.563 1.218 3.875 1.218M212.545 43V11h11.187q3.345 0 5.516 1.156 2.172 1.14 3.234 3.078 1.063 1.923 1.063 4.266 0 2.062-.734 3.406-.72 1.344-1.907 2.125-1.172.782-2.547 1.157v.312q1.47.094 2.954 1.031 1.484.938 2.484 2.688 1 1.749 1 4.281 0 2.406-1.094 4.328t-3.453 3.047Q227.888 43 224.107 43zm3.875-3.437h7.687q3.798 0 5.391-1.47 1.61-1.484 1.609-3.593a5.7 5.7 0 0 0-.828-3q-.828-1.39-2.359-2.219-1.531-.843-3.625-.843h-7.875zm0-14.5h7.187q1.75 0 3.157-.688 1.422-.687 2.25-1.937.843-1.25.843-2.938 0-2.11-1.468-3.578-1.469-1.485-4.657-1.485h-7.312zm39.367 8.125V19h3.688v24h-3.688v-4.062h-.25q-.843 1.828-2.625 3.109-1.78 1.266-4.5 1.266-2.25 0-4-.985-1.75-1-2.75-3-1-2.016-1-5.078V19h3.688v15q0 2.625 1.468 4.188 1.485 1.562 3.782 1.562 1.375 0 2.796-.703 1.438-.704 2.407-2.156.984-1.454.984-3.703M275.979 43.5q-3.375 0-5.813-1.594-2.437-1.593-3.75-4.39-1.312-2.797-1.312-6.391 0-3.656 1.343-6.453 1.36-2.813 3.782-4.39 2.437-1.594 5.687-1.594 2.531 0 4.563.937 2.03.938 3.328 2.625 1.296 1.688 1.609 3.938h-3.687q-.423-1.641-1.875-2.907Q278.416 22 275.979 22q-2.156 0-3.782 1.125-1.61 1.11-2.515 3.14-.891 2.016-.891 4.735 0 2.781.875 4.844.89 2.062 2.5 3.203 1.625 1.14 3.813 1.14 1.437 0 2.609-.5a5.4 5.4 0 0 0 1.984-1.437q.813-.937 1.157-2.25h3.687a8.54 8.54 0 0 1-1.547 3.828q-1.218 1.688-3.234 2.688-2.001.984-4.656.984m18.265-9.25-.062-4.562h.75L305.432 19h4.562l-11.187 11.313h-.313zM290.807 43V11h3.687v32zm15.25 0-9.375-11.875 2.625-2.562L310.744 43zm17.757.5q-3.468 0-5.984-1.531-2.5-1.547-3.859-4.313-1.344-2.781-1.344-6.468 0-3.688 1.344-6.5 1.359-2.829 3.781-4.407 2.438-1.593 5.687-1.593 1.875 0 3.704.625 1.827.624 3.328 2.03 1.5 1.392 2.39 3.688.891 2.298.891 5.657v1.562h-18.5v-3.187h14.75q0-2.032-.813-3.625a6.1 6.1 0 0 0-2.281-2.516Q325.44 22 323.439 22q-2.202 0-3.812 1.094a7.2 7.2 0 0 0-2.453 2.812 8.26 8.26 0 0 0-.86 3.719v2.125q0 2.719.938 4.61.953 1.875 2.641 2.859 1.687.969 3.921.968 1.454 0 2.625-.406a5.6 5.6 0 0 0 2.047-1.25q.86-.843 1.328-2.093l3.563 1a7.9 7.9 0 0 1-1.891 3.187q-1.328 1.36-3.281 2.125-1.953.75-4.391.75M349.799 19v3.125h-12.438V19zm-8.813-5.75h3.688v22.875q0 1.563.453 2.344.468.765 1.187 1.031.735.25 1.547.25.61 0 1-.062l.625-.126.75 3.313q-.375.141-1.047.281-.67.156-1.703.157a7.4 7.4 0 0 1-3.062-.672 6.1 6.1 0 0 1-2.469-2.047q-.969-1.375-.969-3.469zM379.658 43l5.25-32h3.125l-5.25 32zm-14.562-8.875.5-3.125h23.875l-.5 3.125zM368.408 43l5.25-32h3.125l-5.25 32zm-1.437-20 .5-3.125h23.875l-.5 3.125zm39.695-12v32h-3.875V15.063h-.187l-7.813 5.187v-3.937l8-5.313zM572.725 19q-.281-2.375-2.282-3.687-2-1.313-4.906-1.313-2.125 0-3.719.688-1.578.687-2.468 1.89-.875 1.203-.875 2.735 0 1.28.609 2.203.625.906 1.594 1.515.969.594 2.031.985 1.062.375 1.953.609l3.25.875q1.25.328 2.781.906 1.548.579 2.953 1.578a8 8 0 0 1 2.344 2.532q.922 1.546.922 3.797 0 2.593-1.359 4.687-1.344 2.094-3.938 3.328-2.578 1.234-6.265 1.234-3.437 0-5.954-1.109-2.5-1.109-3.937-3.094-1.422-1.984-1.609-4.609h4q.156 1.812 1.218 3 1.078 1.172 2.719 1.75 1.656.563 3.563.563 2.219 0 3.984-.72 1.765-.734 2.797-2.03 1.03-1.313 1.031-3.063 0-1.593-.891-2.594-.89-1-2.343-1.625a25 25 0 0 0-3.141-1.093l-3.937-1.125q-3.75-1.079-5.938-3.079t-2.187-5.234q0-2.688 1.453-4.687 1.468-2.016 3.937-3.126 2.484-1.124 5.547-1.124 3.094 0 5.5 1.109 2.406 1.093 3.813 3 1.422 1.905 1.5 4.328zm19.808 24.5q-3.25 0-5.703-1.547-2.438-1.547-3.812-4.328-1.36-2.78-1.36-6.5 0-3.75 1.36-6.547 1.374-2.796 3.812-4.344 2.453-1.546 5.703-1.547t5.688 1.547q2.453 1.548 3.812 4.344 1.375 2.797 1.375 6.547 0 3.72-1.375 6.5-1.36 2.781-3.812 4.328-2.437 1.547-5.688 1.547m0-3.312q2.469 0 4.063-1.266t2.359-3.328.766-4.469-.766-4.484q-.765-2.079-2.359-3.36T592.533 22t-4.062 1.281-2.36 3.36q-.765 2.078-.765 4.484t.765 4.469 2.36 3.328q1.593 1.266 4.062 1.266M609.037 43V19h3.563v3.625h.25q.656-1.781 2.375-2.89t3.875-1.11q.406 0 1.015.016.61.015.922.047v3.75a11 11 0 0 0-.859-.141 8.5 8.5 0 0 0-1.391-.11q-1.75 0-3.125.735a5.54 5.54 0 0 0-2.156 2q-.781 1.266-.781 2.89V43zm28.313-24v3.125h-12.438V19zm-8.813-5.75h3.688v22.875q0 1.563.453 2.344.468.765 1.187 1.031.735.25 1.547.25.61 0 1-.062l.625-.126.75 3.313q-.375.141-1.047.281-.671.156-1.703.157a7.4 7.4 0 0 1-3.062-.672 6.1 6.1 0 0 1-2.469-2.047q-.969-1.375-.969-3.469zm24.164 30.25q-3.468 0-5.984-1.531-2.5-1.547-3.86-4.313-1.343-2.781-1.343-6.468 0-3.688 1.343-6.5 1.36-2.829 3.782-4.407 2.438-1.593 5.687-1.593 1.875 0 3.703.625 1.828.624 3.328 2.03 1.5 1.392 2.391 3.688.891 2.298.891 5.657v1.562h-18.5v-3.187h14.75q0-2.032-.813-3.625a6.1 6.1 0 0 0-2.281-2.516Q654.327 22 652.326 22q-2.203 0-3.812 1.094a7.2 7.2 0 0 0-2.453 2.812 8.26 8.26 0 0 0-.86 3.719v2.125q0 2.719.938 4.61.952 1.875 2.64 2.859 1.688.969 3.922.968 1.454 0 2.625-.406a5.6 5.6 0 0 0 2.047-1.25q.86-.843 1.328-2.093l3.563 1a7.9 7.9 0 0 1-1.891 3.187q-1.328 1.36-3.281 2.125-1.953.75-4.391.75m24.61 0q-3 0-5.297-1.516-2.297-1.53-3.594-4.312-1.297-2.797-1.297-6.61 0-3.78 1.297-6.562 1.298-2.78 3.609-4.297 2.313-1.515 5.344-1.515 2.344 0 3.703.78 1.376.767 2.094 1.75.735.97 1.141 1.595h.312V11h3.688v32h-3.563v-3.687h-.437q-.407.656-1.157 1.656-.75.984-2.14 1.765-1.391.765-3.703.766m.5-3.312q2.219 0 3.75-1.157 1.53-1.172 2.328-3.234.797-2.078.797-4.797 0-2.688-.782-4.703-.781-2.031-2.312-3.156Q680.061 22 677.811 22q-2.344 0-3.907 1.203-1.546 1.188-2.328 3.235-.765 2.031-.765 4.562 0 2.562.781 4.656.796 2.079 2.344 3.313 1.562 1.218 3.875 1.218M708.451 43V11h11.188q3.343 0 5.515 1.156 2.172 1.14 3.235 3.078 1.062 1.923 1.062 4.266 0 2.062-.734 3.406-.719 1.344-1.906 2.125a8.7 8.7 0 0 1-2.547 1.157v.312q1.468.094 2.953 1.031 1.484.938 2.484 2.688 1 1.749 1 4.281 0 2.406-1.094 4.328-1.093 1.922-3.453 3.047T720.014 43zm3.875-3.437h7.688q3.797 0 5.39-1.47 1.61-1.484 1.61-3.593a5.7 5.7 0 0 0-.828-3q-.829-1.39-2.36-2.219-1.531-.843-3.625-.843h-7.875zm0-14.5h7.188q1.749 0 3.156-.688 1.422-.687 2.25-1.937.843-1.25.844-2.938 0-2.11-1.469-3.578-1.469-1.485-4.656-1.485h-7.313zm39.367 8.125V19h3.688v24h-3.688v-4.062h-.25q-.843 1.828-2.625 3.109-1.78 1.266-4.5 1.266-2.25 0-4-.985-1.75-1-2.75-3-1-2.016-1-5.078V19h3.688v15q0 2.625 1.469 4.188 1.484 1.562 3.781 1.562 1.375 0 2.797-.703 1.437-.704 2.406-2.156.984-1.454.984-3.703M771.885 43.5q-3.375 0-5.813-1.594-2.438-1.593-3.75-4.39t-1.312-6.391q0-3.656 1.344-6.453 1.359-2.813 3.781-4.39 2.438-1.594 5.687-1.594 2.532 0 4.563.937t3.328 2.625 1.609 3.938h-3.687q-.422-1.641-1.875-2.907Q774.322 22 771.885 22q-2.157 0-3.781 1.125-1.61 1.11-2.516 3.14-.891 2.016-.891 4.735 0 2.781.875 4.844.89 2.062 2.5 3.203 1.625 1.14 3.813 1.14 1.437 0 2.609-.5a5.4 5.4 0 0 0 1.985-1.437q.812-.937 1.156-2.25h3.687a8.54 8.54 0 0 1-1.547 3.828q-1.218 1.688-3.234 2.688-2 .984-4.656.984m18.265-9.25-.062-4.562h.75L801.338 19h4.562l-11.187 11.313h-.313zM786.713 43V11h3.687v32zm15.25 0-9.375-11.875 2.625-2.562L806.65 43zm17.758.5q-3.47 0-5.985-1.531-2.5-1.547-3.859-4.313-1.344-2.781-1.344-6.468 0-3.688 1.344-6.5 1.36-2.829 3.781-4.407 2.438-1.593 5.688-1.593 1.875 0 3.703.625 1.828.624 3.328 2.03 1.5 1.392 2.391 3.688.89 2.298.89 5.657v1.562h-18.5v-3.187h14.75q0-2.032-.812-3.625a6.13 6.13 0 0 0-2.282-2.516Q821.345 22 819.346 22q-2.203 0-3.813 1.094a7.2 7.2 0 0 0-2.453 2.812 8.26 8.26 0 0 0-.859 3.719v2.125q0 2.719.937 4.61.954 1.875 2.641 2.859 1.687.969 3.922.968 1.452 0 2.625-.406a5.6 5.6 0 0 0 2.047-1.25q.858-.843 1.328-2.093l3.562 1a7.9 7.9 0 0 1-1.89 3.187q-1.329 1.36-3.282 2.125-1.953.75-4.39.75M845.705 19v3.125h-12.437V19zm-8.812-5.75h3.687v22.875q0 1.563.453 2.344.47.765 1.188 1.031.734.25 1.547.25.609 0 1-.062l.625-.126.75 3.313q-.375.141-1.047.281-.672.156-1.703.157a7.4 7.4 0 0 1-3.063-.672 6.1 6.1 0 0 1-2.469-2.047q-.968-1.375-.968-3.469zM875.564 43l5.25-32h3.125l-5.25 32zm-14.562-8.875.5-3.125h23.875l-.5 3.125zM864.314 43l5.25-32h3.125l-5.25 32zm-1.437-20 .5-3.125h23.875l-.5 3.125zm28.445 20v-2.812l10.563-11.563q1.859-2.031 3.062-3.531 1.203-1.516 1.782-2.844a6.9 6.9 0 0 0 .593-2.812q0-1.688-.812-2.922-.797-1.235-2.188-1.907-1.39-.67-3.125-.671-1.844 0-3.218.765a5.27 5.27 0 0 0-2.11 2.11q-.734 1.359-.734 3.187h-3.688q0-2.812 1.297-4.937a9 9 0 0 1 3.531-3.313q2.25-1.187 5.047-1.187 2.813 0 4.985 1.187t3.406 3.203 1.234 4.485a9.7 9.7 0 0 1-.64 3.453q-.625 1.671-2.188 3.734-1.546 2.047-4.297 5l-7.187 7.688v.25h14.875V43zM1071.54 19q-.285-2.375-2.28-3.687c-1.34-.876-2.97-1.313-4.91-1.313q-2.13 0-3.72.688c-1.05.458-1.87 1.088-2.47 1.89q-.87 1.203-.87 2.735c0 .854.2 1.588.61 2.203q.615.906 1.59 1.515c.65.396 1.32.724 2.03.985q1.065.375 1.95.609l3.25.875q1.26.328 2.79.906a13 13 0 0 1 2.95 1.578 7.95 7.95 0 0 1 2.34 2.532c.62 1.03.92 2.297.92 3.797q0 2.593-1.35 4.687c-.9 1.396-2.21 2.505-3.94 3.328q-2.58 1.234-6.27 1.234c-2.29 0-4.27-.37-5.95-1.109-1.67-.74-2.98-1.77-3.94-3.094-.95-1.323-1.48-2.859-1.61-4.609h4c.11 1.208.51 2.208 1.22 3 .72.781 1.63 1.365 2.72 1.75 1.1.375 2.29.563 3.56.563q2.22 0 3.99-.72c1.17-.489 2.11-1.166 2.79-2.03.69-.876 1.03-1.896 1.03-3.063 0-1.062-.29-1.927-.89-2.594q-.885-1-2.34-1.625c-.97-.416-2.02-.781-3.14-1.093l-3.94-1.125q-3.75-1.079-5.94-3.079c-1.45-1.333-2.18-3.078-2.18-5.234 0-1.792.48-3.354 1.45-4.687.98-1.344 2.29-2.386 3.94-3.126 1.65-.75 3.5-1.124 5.54-1.124 2.07 0 3.9.37 5.5 1.109 1.61.729 2.88 1.729 3.82 3q1.425 1.905 1.5 4.328zm19.81 24.5c-2.17 0-4.07-.516-5.71-1.547q-2.43-1.547-3.81-4.328c-.91-1.854-1.36-4.02-1.36-6.5 0-2.5.45-4.682 1.36-6.547q1.38-2.796 3.81-4.344c1.64-1.03 3.54-1.547 5.71-1.547 2.16 0 4.06.516 5.68 1.547 1.64 1.032 2.91 2.48 3.82 4.344s1.37 4.047 1.37 6.547c0 2.48-.46 4.646-1.37 6.5s-2.18 3.297-3.82 4.328c-1.62 1.031-3.52 1.547-5.68 1.547m0-3.312c1.64 0 3-.422 4.06-1.266s1.85-1.953 2.36-3.328.76-2.865.76-4.469-.25-3.099-.76-4.484c-.51-1.386-1.3-2.506-2.36-3.36S1092.99 22 1091.35 22c-1.65 0-3 .427-4.07 1.281-1.06.854-1.85 1.974-2.36 3.36s-.76 2.88-.76 4.484.25 3.094.76 4.469 1.3 2.484 2.36 3.328c1.07.844 2.42 1.266 4.07 1.266m16.5 2.812V19h3.56v3.625h.25c.44-1.187 1.23-2.151 2.38-2.89q1.71-1.11 3.87-1.11.405 0 1.02.016c.4.01.71.026.92.047v3.75c-.13-.032-.41-.079-.86-.141a8.5 8.5 0 0 0-1.39-.11c-1.17 0-2.21.245-3.13.735-.9.479-1.62 1.146-2.15 2q-.78 1.266-.78 2.89V43zm28.31-24v3.125h-12.44V19zm-8.81-5.75h3.69v22.875q0 1.563.45 2.344c.31.51.71.854 1.19 1.031.49.167 1 .25 1.54.25.41 0 .74-.02 1-.062l.63-.126.75 3.313a7.5 7.5 0 0 1-1.05.281c-.45.104-1.01.157-1.7.157q-1.56 0-3.06-.672a6.04 6.04 0 0 1-2.47-2.047c-.65-.917-.97-2.073-.97-3.469zm24.16 30.25c-2.31 0-4.3-.51-5.98-1.531-1.67-1.032-2.95-2.469-3.86-4.313-.9-1.854-1.34-4.01-1.34-6.468s.44-4.625 1.34-6.5q1.365-2.829 3.78-4.407c1.63-1.062 3.52-1.593 5.69-1.593 1.25 0 2.48.208 3.7.625q1.83.624 3.33 2.03c1 .928 1.8 2.157 2.39 3.688s.89 3.417.89 5.657v1.562h-18.5v-3.187h14.75q0-2.032-.81-3.625a6.1 6.1 0 0 0-2.28-2.516c-.98-.615-2.14-.922-3.47-.922q-2.205 0-3.81 1.094a7.2 7.2 0 0 0-2.46 2.812 8.3 8.3 0 0 0-.86 3.719v2.125c0 1.813.32 3.349.94 4.61q.96 1.875 2.64 2.859c1.13.646 2.43.968 3.92.968.97 0 1.85-.135 2.63-.406a5.7 5.7 0 0 0 2.05-1.25q.855-.843 1.32-2.093l3.57 1a8 8 0 0 1-1.89 3.187c-.89.906-1.98 1.615-3.29 2.125-1.3.5-2.76.75-4.39.75m24.61 0c-2 0-3.76-.505-5.29-1.516-1.54-1.02-2.73-2.458-3.6-4.312q-1.29-2.797-1.29-6.61 0-3.78 1.29-6.562c.87-1.854 2.07-3.286 3.61-4.297s3.32-1.515 5.35-1.515c1.56 0 2.79.26 3.7.78.92.511 1.61 1.095 2.09 1.75q.735.97 1.14 1.595h.32V11h3.68v32h-3.56v-3.687h-.44c-.27.437-.65.99-1.15 1.656-.5.656-1.22 1.245-2.14 1.765-.93.51-2.17.766-3.71.766m.5-3.312q2.22 0 3.75-1.157c1.02-.781 1.8-1.86 2.33-3.234.53-1.386.8-2.984.8-4.797q0-2.688-.78-4.703c-.52-1.354-1.29-2.406-2.32-3.156q-1.53-1.14-3.78-1.141-2.34 0-3.9 1.203c-1.03.792-1.81 1.87-2.33 3.235-.51 1.354-.77 2.875-.77 4.562q0 2.562.78 4.656c.54 1.386 1.32 2.49 2.35 3.313q1.56 1.218 3.87 1.218M1207.26 43V11h11.19q3.345 0 5.52 1.156c1.44.76 2.52 1.787 3.23 3.078.71 1.282 1.06 2.704 1.06 4.266 0 1.375-.24 2.51-.73 3.406-.48.896-1.12 1.604-1.91 2.125-.78.521-1.63.907-2.54 1.157v.312c.98.063 1.96.406 2.95 1.031s1.82 1.521 2.48 2.688c.67 1.166 1 2.593 1 4.281 0 1.604-.36 3.047-1.09 4.328q-1.095 1.922-3.45 3.047c-1.58.75-3.62 1.125-6.14 1.125zm3.88-3.437h7.69c2.53 0 4.32-.49 5.39-1.47 1.07-.989 1.61-2.187 1.61-3.593a5.73 5.73 0 0 0-.83-3c-.55-.927-1.34-1.667-2.36-2.219q-1.53-.843-3.63-.843h-7.87zm0-14.5h7.19q1.74 0 3.15-.688 1.425-.687 2.25-1.937c.56-.834.85-1.813.85-2.938q0-2.11-1.47-3.578c-.98-.99-2.53-1.485-4.66-1.485h-7.31zm39.37 8.125V19h3.68v24h-3.68v-4.062h-.25c-.57 1.218-1.44 2.255-2.63 3.109q-1.785 1.266-4.5 1.266c-1.5 0-2.83-.329-4-.985-1.17-.667-2.08-1.667-2.75-3-.67-1.344-1-3.036-1-5.078V19h3.69v15q0 2.625 1.47 4.188 1.485 1.562 3.78 1.562c.92 0 1.85-.234 2.8-.703s1.76-1.188 2.4-2.156q.99-1.454.99-3.703M1270.7 43.5q-3.375 0-5.82-1.594-2.43-1.593-3.75-4.39c-.87-1.865-1.31-3.995-1.31-6.391q0-3.656 1.35-6.453 1.35-2.813 3.78-4.39c1.62-1.063 3.52-1.594 5.68-1.594 1.69 0 3.21.312 4.57.937q2.025.938 3.33 2.625c.86 1.125 1.4 2.438 1.6 3.938h-3.68c-.28-1.094-.91-2.063-1.88-2.907Q1273.13 22 1270.7 22q-2.16 0-3.78 1.125-1.62 1.11-2.52 3.14c-.59 1.344-.89 2.922-.89 4.735q0 2.781.87 4.844c.6 1.375 1.43 2.442 2.5 3.203 1.09.76 2.36 1.14 3.82 1.14q1.44 0 2.61-.5a5.4 5.4 0 0 0 1.98-1.437c.54-.625.93-1.375 1.16-2.25h3.68a8.5 8.5 0 0 1-1.54 3.828q-1.215 1.688-3.24 2.688-1.995.984-4.65.984m18.26-9.25-.06-4.562h.75L1300.15 19h4.56l-11.18 11.313h-.32zm-3.43 8.75V11h3.68v32zm15.25 0-9.38-11.875 2.63-2.562L1305.46 43zm17.75.5c-2.31 0-4.3-.51-5.98-1.531-1.67-1.032-2.95-2.469-3.86-4.313-.9-1.854-1.34-4.01-1.34-6.468s.44-4.625 1.34-6.5q1.365-2.829 3.78-4.407c1.63-1.062 3.52-1.593 5.69-1.593 1.25 0 2.48.208 3.7.625q1.83.624 3.33 2.03c1 .928 1.8 2.157 2.39 3.688s.89 3.417.89 5.657v1.562h-18.5v-3.187h14.75q0-2.032-.81-3.625a6.1 6.1 0 0 0-2.28-2.516c-.98-.615-2.14-.922-3.47-.922q-2.205 0-3.81 1.094a7.2 7.2 0 0 0-2.46 2.812 8.3 8.3 0 0 0-.86 3.719v2.125c0 1.813.32 3.349.94 4.61q.96 1.875 2.64 2.859c1.13.646 2.43.968 3.92.968.97 0 1.85-.135 2.63-.406a5.7 5.7 0 0 0 2.05-1.25q.855-.843 1.32-2.093l3.57 1a8 8 0 0 1-1.89 3.187c-.89.906-1.98 1.615-3.29 2.125-1.3.5-2.76.75-4.39.75m25.99-24.5v3.125h-12.44V19zm-8.81-5.75h3.68v22.875c0 1.042.15 1.823.46 2.344.31.51.7.854 1.18 1.031.49.167 1.01.25 1.55.25.41 0 .74-.02 1-.062l.63-.126.75 3.313a7.5 7.5 0 0 1-1.05.281c-.45.104-1.02.157-1.7.157-1.05 0-2.07-.224-3.07-.672-.99-.448-1.81-1.13-2.47-2.047q-.96-1.375-.96-3.469zM1374.38 43l5.25-32h3.12l-5.25 32zm-14.57-8.875.5-3.125h23.88l-.5 3.125zm3.32 8.875 5.25-32h3.12l-5.25 32zm-1.44-20 .5-3.125h23.87l-.5 3.125zm39.26 20.438c-2.07 0-3.9-.355-5.52-1.063-1.6-.708-2.88-1.693-3.83-2.953q-1.395-1.907-1.53-4.422h3.94c.08 1.031.44 1.922 1.06 2.672.63.74 1.44 1.312 2.46 1.719 1.01.406 2.13.609 3.35.609q2.07 0 3.66-.719c1.06-.479 1.9-1.146 2.5-2 .61-.854.91-1.843.91-2.968 0-1.178-.29-2.214-.88-3.11-.58-.906-1.44-1.614-2.56-2.125-1.13-.51-2.5-.765-4.13-.765h-2.56v-3.438h2.56c1.28 0 2.39-.23 3.35-.687.97-.459 1.72-1.105 2.26-1.938.56-.833.83-1.812.83-2.937q0-1.625-.72-2.829a4.9 4.9 0 0 0-2.03-1.875q-1.29-.67-3.06-.671c-1.1 0-2.15.203-3.13.609-.96.396-1.76.974-2.37 1.734-.61.75-.95 1.657-1 2.719h-3.75c.06-1.677.57-3.146 1.52-4.406.94-1.271 2.18-2.26 3.71-2.969 1.55-.708 3.24-1.062 5.08-1.062q2.97 0 5.1 1.203c1.41.791 2.5 1.838 3.26 3.14a8.2 8.2 0 0 1 1.14 4.219c0 1.802-.47 3.339-1.42 4.61-.94 1.27-2.21 2.15-3.83 2.64v.25q3.03.5 4.74 2.578c1.13 1.375 1.7 3.078 1.7 5.11 0 1.74-.47 3.302-1.42 4.687-.94 1.375-2.22 2.458-3.85 3.25-1.62.792-3.47 1.188-5.54 1.188"/><rect width="467" height="451" x="1" y="101" stroke="#d4d4d4" stroke-dasharray="20 20" stroke-width="2" rx="26"/><rect width="467" height="315" x="500" y="101" stroke="#d4d4d4" stroke-dasharray="20 20" stroke-width="2" rx="26"/><rect width="467" height="589" x="999" y="101" stroke="#d4d4d4" stroke-dasharray="20 20" stroke-width="2" rx="26"/><rect width="393" height="104" x="38" y="138" fill="#272727" rx="20"/><rect width="393" height="104" x="537" y="138" fill="#272727" rx="20"/><rect width="393" height="104" x="1036" y="138" fill="#272727" rx="20"/><rect width="393" height="104" x="38" y="275" fill="#272727" rx="20"/><rect width="393" height="104" x="1036" y="275" fill="#272727" rx="20"/><rect width="393" height="104" x="38" y="412" fill="#272727" rx="20"/><rect width="393" height="104" x="537" y="275" fill="#272727" rx="20"/><rect width="393" height="104" x="1036" y="412" fill="#272727" rx="20"/><rect width="393" height="104" x="1036" y="549" fill="#272727" rx="20"/><path fill="#fff" d="M234 206.437q-3.53 0-6.016-1.921-2.484-1.938-3.796-5.61-1.313-3.687-1.313-8.906 0-5.187 1.313-8.859 1.328-3.689 3.812-5.625 2.5-1.953 6-1.954t5.984 1.954q2.5 1.936 3.813 5.625 1.328 3.672 1.328 8.859 0 5.219-1.312 8.906-1.313 3.672-3.797 5.61-2.485 1.921-6.016 1.921m0-3.437q3.5 0 5.438-3.375t1.937-9.625q0-4.156-.891-7.078-.875-2.922-2.531-4.453-1.64-1.532-3.953-1.532-3.469 0-5.422 3.422-1.953 3.407-1.953 9.641 0 4.156.875 7.062t2.516 4.422Q231.672 203 234 203M721.947 199.437v-3.187L736.01 174h2.312v4.938h-1.562l-10.625 16.812v.25h18.937v3.437zM737.01 206v-32h3.687v32zM1231.21 206.437c-1.31-.02-2.63-.27-3.94-.75-1.31-.479-2.51-1.286-3.59-2.421q-1.635-1.719-2.61-4.641-.99-2.937-.99-7.375c0-2.833.27-5.344.8-7.531q.795-3.297 2.31-5.547 1.515-2.266 3.66-3.438 2.16-1.172 4.86-1.172c1.79 0 3.38.36 4.78 1.079a9.14 9.14 0 0 1 3.44 2.968c.88 1.271 1.46 2.735 1.72 4.391h-3.82c-.35-1.438-1.04-2.63-2.06-3.578s-2.37-1.422-4.06-1.422c-2.48 0-4.43 1.078-5.86 3.234-1.42 2.157-2.13 5.183-2.14 9.078h.25a9.413 9.413 0 0 1 4.76-3.734 9.3 9.3 0 0 1 3.11-.516c1.84 0 3.51.459 5.04 1.375 1.52.907 2.73 2.162 3.65 3.766q1.38 2.39 1.38 5.485c0 1.979-.45 3.791-1.33 5.437a10.1 10.1 0 0 1-3.74 3.906c-1.59.959-3.46 1.427-5.62 1.406m0-3.437c1.31 0 2.49-.328 3.53-.984a7 7 0 0 0 2.48-2.641q.93-1.656.93-3.687c0-1.323-.3-2.527-.89-3.61-.59-1.094-1.39-1.963-2.43-2.609-1.02-.646-2.18-.969-3.5-.969q-1.485 0-2.76.594a7 7 0 0 0-2.25 1.593 7.5 7.5 0 0 0-1.5 2.329 6.9 6.9 0 0 0-.55 2.734c0 1.271.3 2.458.89 3.562a7.4 7.4 0 0 0 2.47 2.672c1.05.677 2.25 1.016 3.58 1.016M238.836 311v32h-3.875v-27.938h-.188l-7.812 5.188v-3.938l8-5.312zM733.428 343.437q-2.751 0-4.953-1.093-2.203-1.094-3.532-3-1.327-1.906-1.453-4.344h3.75q.219 2.172 1.969 3.594 1.765 1.406 4.219 1.406 1.968 0 3.5-.922a6.5 6.5 0 0 0 2.422-2.531q.89-1.625.89-3.672 0-2.094-.922-3.734a6.76 6.76 0 0 0-2.5-2.61q-1.593-.952-3.64-.969-1.469-.015-3.016.454-1.547.452-2.547 1.172l-3.625-.438 1.938-15.75h16.625v3.437h-13.375l-1.125 9.438h.187q.984-.781 2.469-1.297a9.4 9.4 0 0 1 3.094-.516q2.937 0 5.234 1.407 2.313 1.39 3.625 3.812 1.329 2.423 1.328 5.531 0 3.063-1.375 5.469a10.05 10.05 0 0 1-3.75 3.781q-2.39 1.375-5.437 1.375M1222.74 343l14.32-28.313v-.25h-16.5V311h20.5v3.625L1226.81 343zM224.492 480v-2.812l10.563-11.563q1.859-2.031 3.062-3.531 1.203-1.517 1.781-2.844a6.9 6.9 0 0 0 .594-2.813q0-1.686-.812-2.921-.798-1.235-2.188-1.907t-3.125-.672q-1.844 0-3.219.766a5.27 5.27 0 0 0-2.109 2.109q-.734 1.36-.734 3.188h-3.688q0-2.812 1.297-4.938a9 9 0 0 1 3.531-3.312q2.25-1.188 5.047-1.188 2.813 0 4.985 1.188 2.171 1.188 3.406 3.203 1.234 2.016 1.234 4.484a9.7 9.7 0 0 1-.64 3.454q-.625 1.671-2.188 3.734-1.546 2.047-4.297 5l-7.187 7.687v.25h14.875V480zM1231.01 480.437c-2.15 0-4.05-.38-5.69-1.14-1.64-.771-2.91-1.828-3.83-3.172-.92-1.354-1.37-2.896-1.36-4.625-.01-1.354.26-2.604.8-3.75a8.1 8.1 0 0 1 2.22-2.891 6.74 6.74 0 0 1 3.17-1.484v-.188q-2.295-.593-3.66-2.578c-.9-1.333-1.35-2.849-1.34-4.547q-.015-2.437 1.23-4.359c.84-1.281 1.98-2.292 3.44-3.031 1.47-.74 3.14-1.11 5.02-1.11 1.85 0 3.51.37 4.96 1.11 1.46.739 2.61 1.75 3.44 3.031.85 1.281 1.27 2.734 1.28 4.359-.01 1.698-.47 3.214-1.39 4.547-.9 1.323-2.11 2.183-3.61 2.578v.188c1.16.208 2.2.703 3.13 1.484q1.395 1.157 2.22 2.891.825 1.719.84 3.75-.015 2.594-1.41 4.625c-.91 1.344-2.19 2.401-3.82 3.172q-2.445 1.14-5.64 1.14m0-3.437q2.16 0 3.75-.703 1.575-.703 2.43-1.985c.58-.854.87-1.854.88-3-.01-1.208-.32-2.276-.94-3.203-.61-.927-1.45-1.656-2.51-2.187s-2.26-.797-3.61-.797q-2.055 0-3.66.797-1.59.797-2.52 2.187c-.6.927-.9 1.995-.89 3.203-.01 1.146.27 2.146.83 3 .57.855 1.39 1.516 2.45 1.985 1.07.469 2.33.703 3.79.703m0-15.188c1.14 0 2.16-.229 3.04-.687.9-.458 1.6-1.099 2.11-1.922q.765-1.234.78-2.891c-.01-1.083-.26-2.026-.76-2.828a4.95 4.95 0 0 0-2.08-1.875q-1.335-.672-3.09-.672c-1.2 0-2.25.224-3.14.672-.9.438-1.59 1.063-2.08 1.875q-.735 1.203-.72 2.828c-.01 1.105.23 2.068.73 2.891.51.823 1.22 1.464 2.11 1.922.9.458 1.93.687 3.1.687M1230.77 584.562c1.31.011 2.63.261 3.94.75 1.31.49 2.51 1.303 3.59 2.438q1.635 1.687 2.61 4.609.99 2.922.99 7.329c0 2.843-.27 5.369-.82 7.578q-.795 3.297-2.31 5.562c-1 1.511-2.22 2.656-3.65 3.438-1.43.781-3.05 1.171-4.85 1.171q-2.685 0-4.8-1.062a9.4 9.4 0 0 1-3.43-2.984q-1.335-1.923-1.71-4.454h3.82q.51 2.204 2.04 3.641 1.545 1.422 4.08 1.422 3.705 0 5.85-3.234c1.43-2.157 2.15-5.204 2.15-9.141h-.25a9.6 9.6 0 0 1-2.08 2.266 9.1 9.1 0 0 1-2.67 1.468q-1.47.516-3.12.516c-1.84 0-3.52-.453-5.05-1.359q-2.28-1.375-3.66-3.766c-.9-1.604-1.36-3.438-1.36-5.5q0-2.937 1.32-5.375a10.07 10.07 0 0 1 3.72-3.906c1.6-.969 3.48-1.438 5.65-1.407m0 3.438c-1.31 0-2.49.328-3.55.984a7.05 7.05 0 0 0-2.48 2.625c-.6 1.094-.91 2.308-.91 3.641s.3 2.547.88 3.641a6.95 6.95 0 0 0 2.42 2.593c1.03.636 2.2.954 3.52.954q1.485 0 2.76-.579c.86-.395 1.6-.932 2.24-1.609a7.8 7.8 0 0 0 1.51-2.328 6.95 6.95 0 0 0 .55-2.735c0-1.25-.3-2.421-.91-3.515a7.1 7.1 0 0 0-2.47-2.656c-1.04-.677-2.23-1.016-3.56-1.016"/></svg>