<svg xmlns="http://www.w3.org/2000/svg" width="1320" height="629" fill="none" viewBox="0 0 1320 629"><path fill="#fff" d="M979.706 189v-29.091h17.557v3.125h-14.034v9.83h13.125v3.125h-13.125v9.886h14.261V189zM1021 167.182 1012.93 189h-3.41l-8.07-21.818h3.64l6.02 17.386h.23l6.02-17.386zm12.79 22.273c-2.1 0-3.92-.464-5.44-1.393-1.52-.937-2.68-2.244-3.51-3.92-.81-1.686-1.22-3.646-1.22-5.881 0-2.234.41-4.204 1.22-5.909.83-1.714 1.97-3.049 3.44-4.005 1.48-.966 3.2-1.449 5.17-1.449 1.14 0 2.26.189 3.37.568 1.1.379 2.11.994 3.02 1.846.91.843 1.63 1.961 2.17 3.353q.81 2.088.81 5.142v1.42h-16.81v-2.897h13.41c0-1.232-.25-2.33-.74-3.296a5.63 5.63 0 0 0-2.08-2.287q-1.335-.838-3.15-.838c-1.34 0-2.49.332-3.47.994a6.6 6.6 0 0 0-2.23 2.557 7.5 7.5 0 0 0-.78 3.381v1.932c0 1.647.29 3.044.85 4.19q.87 1.705 2.4 2.599 1.545.882 3.57.881c.88 0 1.68-.123 2.39-.369a5.1 5.1 0 0 0 1.86-1.136q.78-.767 1.2-1.904l3.24.909a7.1 7.1 0 0 1-1.72 2.898c-.8.824-1.79 1.468-2.98 1.932q-1.77.681-3.99.682m17.49-13.58V189h-3.36v-21.818h3.24v3.409h.29a6.17 6.17 0 0 1 2.33-2.671c1.04-.681 2.38-1.022 4.03-1.022 1.48 0 2.77.303 3.88.909q1.665.894 2.58 2.727.93 1.818.93 4.602V189h-3.36v-13.636c0-1.714-.44-3.05-1.33-4.006-.89-.966-2.11-1.449-3.67-1.449-1.07 0-2.02.232-2.87.696-.83.464-1.49 1.141-1.97 2.031q-.72 1.336-.72 3.239m23.39-15.966V189h-3.35v-29.091zm8.3 37.273c-.56 0-1.07-.048-1.52-.142-.44-.085-.75-.171-.92-.256l.85-2.954q1.23.312 2.16.227c.63-.057 1.18-.336 1.66-.838q.75-.74 1.35-2.401l.63-1.704-8.07-21.932h3.64l6.02 17.386h.23l6.02-17.386h3.64l-9.27 25c-.41 1.127-.93 2.059-1.54 2.798-.62.748-1.33 1.302-2.15 1.662q-1.2.54-2.73.54m40.79-8.182h-8.98v-29.091h9.38c2.82 0 5.24.582 7.24 1.747q3.015 1.733 4.62 4.986c1.07 2.159 1.61 4.744 1.61 7.756q0 4.545-1.62 7.826c-1.08 2.178-2.66 3.855-4.72 5.029q-3.09 1.747-7.53 1.747m-5.45-3.125h5.22c2.41 0 4.4-.464 5.98-1.392 1.59-.928 2.76-2.249 3.54-3.963q1.17-2.571 1.17-6.122c0-2.349-.39-4.371-1.15-6.066-.77-1.704-1.92-3.011-3.44-3.92q-2.295-1.378-5.7-1.378h-5.62zm24.77 3.125v-21.818h3.35V189zm1.7-25.455a2.4 2.4 0 0 1-1.69-.667q-.69-.668-.69-1.605 0-.938.69-1.605a2.4 2.4 0 0 1 1.69-.668q.99 0 1.68.668c.47.445.71.98.71 1.605s-.24 1.16-.71 1.605q-.69.667-1.68.667m23.25 8.523-3.01.852a5.6 5.6 0 0 0-.84-1.463c-.36-.483-.86-.88-1.48-1.193q-.945-.469-2.4-.469c-1.34 0-2.45.308-3.34.924q-1.32.91-1.32 2.315c0 .833.3 1.492.91 1.975.61.482 1.55.885 2.84 1.207l3.24.795c1.95.474 3.4 1.198 4.36 2.174.96.966 1.43 2.211 1.43 3.735q0 1.875-1.08 3.353c-.71.985-1.7 1.761-2.98 2.329s-2.76.853-4.46.853c-2.22 0-4.07-.483-5.52-1.449-1.46-.966-2.39-2.377-2.77-4.233l3.18-.796c.3 1.175.87 2.055 1.72 2.642q1.275.88 3.33.881c1.57 0 2.81-.331 3.73-.994.92-.673 1.39-1.478 1.39-2.415 0-.758-.27-1.392-.8-1.903-.53-.521-1.34-.91-2.44-1.165l-3.64-.853c-1.99-.473-3.46-1.207-4.4-2.201-.93-1.004-1.39-2.259-1.39-3.764 0-1.232.34-2.321 1.03-3.267.71-.947 1.66-1.691 2.86-2.231 1.21-.539 2.59-.809 4.12-.809 2.16 0 3.85.473 5.08 1.42 1.25.947 2.13 2.197 2.65 3.75m14.93-4.886v2.841h-11.31v-2.841zm-8.01-5.227h3.35v20.795c0 .947.14 1.657.41 2.131q.435.696 1.08.937.675.227 1.41.227c.37 0 .67-.018.91-.056q.345-.072.57-.114l.68 3.011c-.23.086-.55.171-.95.256-.41.095-.93.142-1.55.142a6.8 6.8 0 0 1-2.79-.611c-.9-.407-1.64-1.027-2.24-1.861-.59-.833-.88-1.884-.88-3.153zM1188 189v-21.818h3.24v3.295h.23q.6-1.619 2.16-2.628c1.04-.672 2.21-1.008 3.52-1.008.25 0 .55.005.92.014q.555.015.84.043v3.409a9 9 0 0 0-.78-.128q-.6-.099-1.26-.099c-1.07 0-2.01.222-2.85.667a5.1 5.1 0 0 0-1.96 1.818c-.47.767-.71 1.643-.71 2.628V189zm14.88 0v-21.818h3.36V189zm1.71-25.455c-.65 0-1.22-.222-1.69-.667s-.7-.98-.7-1.605.23-1.16.7-1.605a2.38 2.38 0 0 1 1.69-.668q.975 0 1.68.668c.47.445.71.98.71 1.605s-.24 1.16-.71 1.605q-.705.667-1.68.667m8.24 25.455v-29.091h3.35v10.739h.29q.36-.569 1.02-1.449c.45-.597 1.08-1.127 1.9-1.591.84-.474 1.96-.71 3.38-.71q2.76 0 4.86 1.378c1.4.918 2.5 2.22 3.28 3.906.79 1.685 1.18 3.674 1.18 5.966 0 2.31-.39 4.313-1.18 6.008-.78 1.686-1.87 2.993-3.26 3.921-1.4.918-3 1.378-4.82 1.378-1.4 0-2.52-.232-3.37-.696-.84-.474-1.49-1.009-1.94-1.606q-.69-.91-1.05-1.505h-.4V189zm3.3-10.909q0 2.471.72 4.361c.48 1.25 1.19 2.23 2.12 2.94.93.701 2.06 1.051 3.41 1.051q2.1 0 3.51-1.108 1.41-1.122 2.13-3.011.72-1.904.72-4.233c0-1.534-.24-2.917-.71-4.148-.46-1.24-1.17-2.22-2.12-2.94-.93-.729-2.11-1.094-3.53-1.094-1.37 0-2.51.346-3.44 1.037q-1.395 1.023-2.1 2.869c-.48 1.222-.71 2.647-.71 4.276m34.84 1.989v-12.898h3.35V189h-3.35v-3.693h-.23c-.51 1.108-1.3 2.05-2.38 2.827-1.08.767-2.45 1.15-4.09 1.15-1.37 0-2.58-.298-3.64-.895-1.06-.606-1.89-1.515-2.5-2.727-.61-1.222-.91-2.76-.91-4.617v-13.863h3.35v13.636c0 1.591.45 2.86 1.34 3.807.9.947 2.04 1.42 3.44 1.42.83 0 1.68-.213 2.54-.639q1.305-.639 2.19-1.96c.59-.881.89-2.003.89-3.366m18.98-12.898v2.841h-11.31v-2.841zm-8.01-5.227h3.35v20.795c0 .947.14 1.657.41 2.131q.435.696 1.08.937.675.227 1.41.227c.37 0 .67-.018.91-.056l.57-.114.68 3.011c-.23.086-.55.171-.95.256-.41.095-.93.142-1.55.142a6.8 6.8 0 0 1-2.79-.611 5.6 5.6 0 0 1-2.24-1.861c-.59-.833-.88-1.884-.88-3.153zm21.97 27.5c-2.1 0-3.92-.464-5.44-1.393q-2.28-1.406-3.51-3.92c-.82-1.686-1.22-3.646-1.22-5.881 0-2.234.4-4.204 1.22-5.909.82-1.714 1.97-3.049 3.44-4.005 1.47-.966 3.2-1.449 5.17-1.449q1.695 0 3.36.568t3.03 1.846c.91.843 1.63 1.961 2.17 3.353q.81 2.088.81 5.142v1.42h-16.82v-2.897h13.41c0-1.232-.24-2.33-.74-3.296a5.54 5.54 0 0 0-2.07-2.287q-1.335-.838-3.15-.838c-1.34 0-2.49.332-3.47.994a6.5 6.5 0 0 0-2.23 2.557 7.5 7.5 0 0 0-.78 3.381v1.932c0 1.647.28 3.044.85 4.19q.87 1.705 2.4 2.599 1.53.882 3.57.881c.88 0 1.67-.123 2.38-.369a5.1 5.1 0 0 0 1.86-1.136c.53-.512.93-1.146 1.21-1.904l3.24.909a7.1 7.1 0 0 1-1.72 2.898c-.8.824-1.8 1.468-2.98 1.932-1.18.454-2.52.682-3.99.682m22.37 0c-1.82 0-3.42-.46-4.82-1.378-1.39-.928-2.48-2.235-3.26-3.921-.79-1.695-1.18-3.698-1.18-6.008 0-2.292.39-4.281 1.18-5.966.78-1.686 1.88-2.988 3.28-3.906q2.1-1.378 4.86-1.378 2.13 0 3.36.71c.84.464 1.47.994 1.91 1.591.44.587.79 1.07 1.03 1.449h.29v-10.739h3.35V189h-3.24v-3.352h-.4q-.36.596-1.05 1.505c-.45.597-1.1 1.132-1.94 1.606-.85.464-1.97.696-3.37.696m.45-3.012c1.35 0 2.49-.35 3.41-1.051.93-.71 1.64-1.69 2.12-2.94q.72-1.89.72-4.361c0-1.629-.23-3.054-.71-4.276q-.705-1.846-2.1-2.869c-.93-.691-2.07-1.037-3.44-1.037-1.42 0-2.6.365-3.55 1.094-.93.72-1.64 1.7-2.11 2.94-.47 1.231-.7 2.614-.7 4.148 0 1.553.24 2.964.71 4.233q.72 1.889 2.13 3.011c.95.739 2.12 1.108 3.52 1.108M1021.55 387v-29.091h3.52v14.432h.34l13.07-14.432h4.6l-12.21 13.125L1043.08 387h-4.26l-10.11-13.523-3.64 4.091V387zm28.99-13.125V387h-3.35v-21.818h3.24v3.409h.28a6.24 6.24 0 0 1 2.33-2.671c1.04-.681 2.39-1.022 4.04-1.022 1.47 0 2.77.303 3.87.909 1.11.596 1.97 1.505 2.59 2.727.61 1.212.92 2.746.92 4.602V387h-3.35v-13.636c0-1.714-.45-3.05-1.34-4.006q-1.335-1.449-3.66-1.449c-1.07 0-2.03.232-2.87.696-.83.464-1.49 1.141-1.97 2.031-.49.891-.73 1.97-.73 3.239m28.91 13.58c-1.97 0-3.7-.469-5.18-1.407-1.48-.937-2.64-2.249-3.47-3.934-.82-1.686-1.24-3.656-1.24-5.909 0-2.273.42-4.257 1.24-5.952.83-1.695 1.99-3.012 3.47-3.949 1.48-.938 3.21-1.406 5.18-1.406s3.69.468 5.17 1.406c1.49.937 2.64 2.254 3.47 3.949s1.25 3.679 1.25 5.952c0 2.253-.42 4.223-1.25 5.909s-1.98 2.997-3.47 3.934c-1.48.938-3.2 1.407-5.17 1.407m0-3.012q2.25 0 3.69-1.15c.97-.767 1.69-1.776 2.15-3.026s.7-2.604.7-4.062-.24-2.818-.7-4.077c-.46-1.26-1.18-2.278-2.15-3.054q-1.44-1.165-3.69-1.165c-1.49 0-2.73.388-3.69 1.165-.97.776-1.68 1.794-2.15 3.054q-.69 1.889-.69 4.077t.69 4.062c.47 1.25 1.18 2.259 2.15 3.026.96.767 2.2 1.15 3.69 1.15m19.21 2.557-6.65-21.818h3.52l4.72 16.704h.22l4.66-16.704h3.58l4.6 16.648h.23l4.72-16.648h3.52L1115.13 387h-3.29l-4.78-16.761h-.34L1101.95 387zm30.9-13.125V387h-3.35v-21.818h3.24v3.409h.29a6.2 6.2 0 0 1 2.32-2.671c1.05-.681 2.39-1.022 4.04-1.022 1.48 0 2.77.303 3.88.909 1.1.596 1.97 1.505 2.58 2.727q.93 1.818.93 4.602V387h-3.36v-13.636c0-1.714-.44-3.05-1.33-4.006-.89-.966-2.11-1.449-3.67-1.449-1.07 0-2.02.232-2.87.696-.83.464-1.49 1.141-1.97 2.031s-.73 1.97-.73 3.239M1161.32 387v-29.091h9.83c2.27 0 4.13.388 5.59 1.165q2.19 1.15 3.24 3.167t1.05 4.589q0 2.57-1.05 4.559c-.7 1.326-1.78 2.368-3.22 3.125-1.45.748-3.3 1.122-5.56 1.122h-7.95v-3.181h7.84q2.325 0 3.75-.682c.95-.455 1.65-1.099 2.07-1.932q.66-1.265.66-3.011 0-1.748-.66-3.054c-.43-.872-1.13-1.544-2.09-2.017-.95-.483-2.22-.725-3.79-.725h-6.19V387zm13.69-13.068 7.16 13.068h-4.09l-7.05-13.068zm17.86 13.579c-1.39 0-2.64-.26-3.77-.781-1.12-.53-2.02-1.292-2.68-2.287-.66-1.004-1-2.216-1-3.636 0-1.25.25-2.263.74-3.04a5.25 5.25 0 0 1 1.98-1.847 10.3 10.3 0 0 1 2.72-.994q1.515-.34 3.03-.54c1.33-.17 2.4-.298 3.22-.383.84-.095 1.44-.251 1.82-.469.39-.218.59-.597.59-1.136v-.114c0-1.401-.39-2.49-1.16-3.267q-1.125-1.165-3.45-1.165c-1.6 0-2.85.351-3.76 1.051q-1.365 1.051-1.92 2.245l-3.18-1.137c.57-1.325 1.33-2.358 2.27-3.096.96-.748 2-1.269 3.13-1.563 1.13-.303 2.25-.454 3.35-.454.7 0 1.51.085 2.41.255.92.161 1.81.498 2.66 1.009.86.511 1.58 1.283 2.15 2.315.56 1.032.85 2.415.85 4.148V387h-3.35v-2.955h-.18c-.22.474-.6.981-1.13 1.52-.53.54-1.24.999-2.12 1.378s-1.95.568-3.22.568m.51-3.011c1.32 0 2.44-.26 3.35-.781.92-.521 1.61-1.193 2.08-2.017s.71-1.691.71-2.6v-3.068c-.15.171-.46.327-.94.469-.48.132-1.02.251-1.65.355q-.93.142-1.8.256-.87.1-1.41.17c-.87.114-1.69.298-2.44.554-.75.246-1.36.62-1.82 1.122-.46.493-.68 1.165-.68 2.017q0 1.748 1.29 2.642c.87.587 1.97.881 3.31.881m18.96-10.625V387h-3.35v-21.818h3.23v3.409h.29a6.24 6.24 0 0 1 2.33-2.671c1.04-.681 2.38-1.022 4.03-1.022 1.48 0 2.77.303 3.88.909 1.11.596 1.97 1.505 2.59 2.727.61 1.212.92 2.746.92 4.602V387h-3.35v-13.636c0-1.714-.45-3.05-1.34-4.006q-1.335-1.449-3.66-1.449c-1.07 0-2.03.232-2.87.696s-1.49 1.141-1.98 2.031q-.72 1.336-.72 3.239m28.85 21.761q-2.43 0-4.17-.625c-1.17-.407-2.14-.947-2.92-1.619q-1.14-.994-1.83-2.131l2.67-1.875c.3.398.69.853 1.15 1.364.47.521 1.1.971 1.91 1.349.81.389 1.88.583 3.19.583 1.76 0 3.22-.426 4.36-1.279 1.15-.852 1.72-2.187 1.72-4.005v-4.432h-.28q-.375.597-1.05 1.477c-.45.578-1.09 1.094-1.94 1.548-.83.446-1.96.668-3.38.668q-2.64 0-4.74-1.25c-1.39-.833-2.5-2.045-3.31-3.636s-1.21-3.523-1.21-5.796c0-2.235.39-4.181 1.18-5.838.79-1.666 1.88-2.954 3.28-3.863q2.1-1.378 4.86-1.378c1.42 0 2.55.236 3.38.71.84.464 1.49.994 1.93 1.591q.69.88 1.05 1.449h.34v-3.466h3.24v22.443c0 1.875-.42 3.4-1.28 4.574-.84 1.184-1.97 2.05-3.4 2.599-1.42.559-3.01.838-4.75.838m-.11-11.988c1.34 0 2.48-.308 3.41-.924.92-.615 1.63-1.501 2.11-2.656.49-1.155.73-2.538.73-4.148 0-1.572-.24-2.959-.71-4.161q-.72-1.804-2.1-2.827c-.93-.682-2.08-1.023-3.44-1.023-1.42 0-2.61.36-3.55 1.08-.94.719-1.65 1.685-2.12 2.897-.46 1.212-.7 2.557-.7 4.034 0 1.516.24 2.856.71 4.02.49 1.156 1.2 2.065 2.14 2.728.94.653 2.12.98 3.52.98m24.83 3.807c-2.1 0-3.92-.464-5.44-1.393q-2.28-1.406-3.51-3.92c-.82-1.686-1.22-3.646-1.22-5.881 0-2.234.4-4.204 1.22-5.909.82-1.714 1.97-3.049 3.44-4.005 1.47-.966 3.2-1.449 5.17-1.449q1.695 0 3.36.568t3.03 1.846c.91.843 1.63 1.961 2.17 3.353q.81 2.088.81 5.142v1.42h-16.82v-2.897h13.41c0-1.232-.24-2.33-.74-3.296a5.54 5.54 0 0 0-2.07-2.287q-1.335-.838-3.15-.838c-1.34 0-2.49.332-3.47.994a6.5 6.5 0 0 0-2.23 2.557 7.5 7.5 0 0 0-.78 3.381v1.932c0 1.647.28 3.044.85 4.19q.87 1.704 2.4 2.599 1.53.881 3.57.881c.88 0 1.67-.123 2.38-.369a5.1 5.1 0 0 0 1.86-1.136c.53-.512.93-1.146 1.21-1.904l3.24.909a7.1 7.1 0 0 1-1.72 2.898c-.8.824-1.8 1.468-2.98 1.932-1.18.454-2.52.682-3.99.682m-217.68 33c0-3.58.46-6.871 1.39-9.873.94-3.011 2.27-5.781 4-8.309h2.96q-1.02 1.406-1.92 3.466c-.59 1.363-1.1 2.864-1.55 4.502a45 45 0 0 0-1.05 5.057 38 38 0 0 0-.37 5.157q0 3.38.66 6.86c.43 2.32 1.02 4.475 1.76 6.463s1.56 3.608 2.47 4.858h-2.96c-1.73-2.528-3.06-5.293-4-8.295-.93-3.011-1.39-6.307-1.39-9.886m22.73 14.943c-2.14 0-3.97-.583-5.47-1.747q-2.265-1.762-3.45-5.1-1.2-3.353-1.2-8.096 0-4.716 1.2-8.054c.8-2.235 1.96-3.94 3.46-5.114q2.28-1.776 5.46-1.776c2.12 0 3.93.592 5.44 1.776 1.51 1.174 2.67 2.879 3.46 5.114.81 2.225 1.21 4.91 1.21 8.054 0 3.162-.4 5.861-1.19 8.096q-1.2 3.338-3.45 5.1c-1.51 1.164-3.33 1.747-5.47 1.747m0-3.125c2.12 0 3.77-1.023 4.94-3.068s1.76-4.963 1.76-8.75q0-3.778-.81-6.435c-.53-1.771-1.3-3.12-2.3-4.048-.99-.928-2.19-1.392-3.59-1.392-2.11 0-3.75 1.036-4.93 3.11-1.19 2.065-1.78 4.986-1.78 8.765 0 2.518.27 4.659.8 6.42q.795 2.642 2.28 4.02 1.515 1.377 3.63 1.378m25 3.125c-2.14 0-3.97-.583-5.47-1.747q-2.265-1.762-3.45-5.1-1.2-3.353-1.2-8.096 0-4.716 1.2-8.054c.8-2.235 1.96-3.94 3.46-5.114q2.28-1.776 5.46-1.776c2.12 0 3.93.592 5.44 1.776 1.51 1.174 2.67 2.879 3.46 5.114.81 2.225 1.21 4.91 1.21 8.054 0 3.162-.4 5.861-1.19 8.096q-1.2 3.338-3.45 5.1c-1.51 1.164-3.33 1.747-5.47 1.747m0-3.125c2.12 0 3.77-1.023 4.94-3.068s1.76-4.963 1.76-8.75q0-3.778-.81-6.435c-.53-1.771-1.3-3.12-2.3-4.048-.99-.928-2.19-1.392-3.59-1.392-2.11 0-3.75 1.036-4.93 3.11-1.19 2.065-1.78 4.986-1.78 8.765 0 2.518.27 4.659.8 6.42q.795 2.642 2.28 4.02 1.515 1.377 3.63 1.378m25.74-26.364V435h-3.53v-25.398h-.17l-7.1 4.716v-3.579l7.27-4.83zm32.17 12.983v3.125h-12.73v-3.125zm27.32-12.983V435h-3.52v-25.398h-.18l-7.1 4.716v-3.579l7.28-4.83zm17.85 29.489c-2.14 0-3.96-.583-5.47-1.747q-2.25-1.762-3.45-5.1c-.79-2.235-1.19-4.934-1.19-8.096 0-3.144.4-5.829 1.19-8.054.81-2.235 1.96-3.94 3.47-5.114 1.51-1.184 3.33-1.776 5.45-1.776s3.94.592 5.44 1.776c1.52 1.174 2.67 2.879 3.47 5.114.8 2.225 1.21 4.91 1.21 8.054q0 4.743-1.2 8.096-1.185 3.338-3.45 5.1c-1.5 1.164-3.33 1.747-5.47 1.747m0-3.125q3.18 0 4.95-3.068c1.17-2.046 1.76-4.963 1.76-8.75q0-3.778-.81-6.435c-.53-1.771-1.3-3.12-2.3-4.048q-1.5-1.392-3.6-1.392c-2.1 0-3.74 1.036-4.93 3.11q-1.77 3.097-1.77 8.765c0 2.518.26 4.659.79 6.42s1.3 3.101 2.29 4.02c1 .918 2.21 1.378 3.62 1.378m25 3.125c-2.14 0-3.96-.583-5.47-1.747q-2.25-1.762-3.45-5.1c-.79-2.235-1.19-4.934-1.19-8.096 0-3.144.4-5.829 1.19-8.054.81-2.235 1.96-3.94 3.47-5.114 1.51-1.184 3.33-1.776 5.45-1.776s3.94.592 5.44 1.776c1.52 1.174 2.67 2.879 3.47 5.114.8 2.225 1.21 4.91 1.21 8.054q0 4.743-1.2 8.096-1.185 3.338-3.45 5.1c-1.5 1.164-3.33 1.747-5.47 1.747m0-3.125q3.18 0 4.95-3.068c1.17-2.046 1.76-4.963 1.76-8.75q0-3.778-.81-6.435c-.53-1.771-1.3-3.12-2.3-4.048q-1.5-1.392-3.6-1.392c-2.1 0-3.74 1.036-4.93 3.11q-1.77 3.097-1.77 8.765c0 2.518.26 4.659.79 6.42s1.3 3.101 2.29 4.02c1 .918 2.21 1.378 3.62 1.378m22.73-11.818q0 5.369-1.41 9.886a30 30 0 0 1-3.99 8.295h-2.95c.68-.937 1.31-2.092 1.9-3.466a31.6 31.6 0 0 0 1.56-4.488c.45-1.638.79-3.329 1.04-5.071.26-1.752.38-3.471.38-5.156 0-2.254-.21-4.541-.65-6.861-.43-2.32-1.02-4.475-1.76-6.463s-1.56-3.608-2.47-4.858h2.95a30 30 0 0 1 3.99 8.309q1.41 4.503 1.41 9.873M1109.77 288h-3.7l10.69-29.091h3.63L1131.07 288h-3.69l-8.69-24.489h-.23zm1.36-11.364h14.89v3.125h-14.89zm47.54-17.727V288h-3.41l-15.85-22.841h-.28V288h-3.53v-29.091h3.41l15.91 22.898h.29v-22.898zM1174.7 288h-8.98v-29.091h9.38c2.82 0 5.23.582 7.24 1.747q3.015 1.733 4.62 4.986c1.07 2.159 1.6 4.744 1.6 7.756q0 4.545-1.62 7.826-1.62 3.268-4.71 5.029-3.105 1.747-7.53 1.747m-5.46-3.125h5.23c2.41 0 4.4-.464 5.98-1.392q2.37-1.392 3.54-3.963c.78-1.714 1.16-3.755 1.16-6.122 0-2.349-.38-4.371-1.15-6.066-.76-1.704-1.91-3.011-3.43-3.92q-2.295-1.378-5.7-1.378h-5.63z"/><path fill="#fbbb63" d="M373 37.637c5.523 0 10 4.477 10 10v24.727c0 5.205-4.077 9.391-8.983 11.126-12.458 4.404-21.293 15.456-21.293 28.396 0 12.939 8.835 23.991 21.293 28.395 4.906 1.735 8.983 5.922 8.983 11.126v24.73c0 5.523-4.477 10-10 10H116.679a7 7 0 0 0 7-7v-11.208a7 7 0 1 0-14 0v11.208a7 7 0 0 0 7 7H10c-5.523 0-10-4.477-10-10v-24.729c0-5.205 4.077-9.391 8.984-11.126 12.459-4.403 21.294-15.456 21.294-28.396S21.443 87.893 8.984 83.489C4.077 81.755 0 77.568 0 72.363V47.637c0-5.523 4.477-10 10-10zm-256.321 78.458a7 7 0 0 0-7 7v22.417a7 7 0 1 0 14 0v-22.417a7 7 0 0 0-7-7m0-44.833a7 7 0 0 0-7 7v22.417a7 7 0 1 0 14 0V78.262a7 7 0 0 0-7-7m0-33.625a7 7 0 0 0-7 7v11.208a7 7 0 1 0 14 0V44.637a7 7 0 0 0-7-7M373 223c5.523 0 10 4.477 10 10v24.728c0 5.204-4.077 9.391-8.983 11.126-12.458 4.403-21.293 15.455-21.293 28.395s8.835 23.992 21.293 28.396c4.906 1.734 8.983 5.921 8.983 11.126V361.5c0 5.523-4.477 10-10 10H116.679a7 7 0 0 0 7-7v-11.208a7 7 0 1 0-14 0V364.5a7 7 0 0 0 7 7H10c-5.523 0-10-4.477-10-10v-24.729c0-5.204 4.077-9.391 8.984-11.125 12.459-4.404 21.294-15.457 21.294-28.397s-8.835-23.993-21.294-28.396C4.077 267.118 0 262.931 0 257.727V233c0-5.523 4.477-10 10-10zm-256.321 78.458a7 7 0 0 0-7 7v22.417a7 7 0 1 0 14 0v-22.417a7 7 0 0 0-7-7m0-44.833a7 7 0 0 0-7 7v22.417a7 7 0 1 0 14 0v-22.417a7 7 0 0 0-7-7m0-33.625a7 7 0 0 0-7 7v11.208a7 7 0 1 0 14 0V230a7 7 0 0 0-7-7M602 462c5.523 0 10 4.477 10 10v24.728c0 5.204-4.077 9.391-8.983 11.126-12.458 4.403-21.293 15.455-21.293 28.395s8.835 23.992 21.293 28.396c4.906 1.734 8.983 5.921 8.983 11.126V600.5c0 5.523-4.477 10-10 10H345.679a7 7 0 0 0 7-7v-11.208a7 7 0 1 0-14 0V603.5a7 7 0 0 0 7 7H239c-5.523 0-10-4.477-10-10v-24.729c0-5.204 4.077-9.391 8.984-11.125 12.459-4.404 21.294-15.457 21.294-28.397s-8.836-23.993-21.294-28.396c-4.907-1.735-8.984-5.922-8.984-11.126V472c0-5.523 4.477-10 10-10zm-256.321 78.458a7 7 0 0 0-7 7v22.417a7 7 0 1 0 14 0v-22.417a7 7 0 0 0-7-7m0-44.833a7 7 0 0 0-7 7v22.417a7 7 0 1 0 14 0v-22.417a7 7 0 0 0-7-7m0-33.625a7 7 0 0 0-7 7v11.208a7 7 0 1 0 14 0V469a7 7 0 0 0-7-7M831 38c5.523 0 10 4.477 10 10v24.728c0 5.204-4.077 9.39-8.983 11.126-12.458 4.403-21.293 15.455-21.293 28.395s8.835 23.992 21.293 28.396c4.906 1.734 8.983 5.921 8.983 11.126V176.5c0 5.523-4.477 10-10 10H574.679a7 7 0 0 0 7-7v-11.208a7 7 0 1 0-14 0V179.5a7 7 0 0 0 7 7H468c-5.523 0-10-4.477-10-10v-24.729c0-5.204 4.077-9.391 8.984-11.125 12.459-4.404 21.294-15.457 21.294-28.397s-8.836-23.993-21.294-28.396C462.077 82.118 458 77.93 458 72.727V48c0-5.523 4.477-10 10-10zm-256.321 78.458a7 7 0 0 0-7 7v22.417a7 7 0 1 0 14 0v-22.417a7 7 0 0 0-7-7m0-44.833a7 7 0 0 0-7 7v22.417a7 7 0 1 0 14 0V78.625a7 7 0 0 0-7-7m0-33.625a7 7 0 0 0-7 7v11.208a7 7 0 1 0 14 0V45a7 7 0 0 0-7-7M831 223c5.523 0 10 4.477 10 10v24.728c0 5.204-4.077 9.391-8.983 11.126-12.458 4.403-21.293 15.455-21.293 28.395s8.835 23.992 21.293 28.396c4.906 1.734 8.983 5.921 8.983 11.126V361.5c0 5.523-4.477 10-10 10H574.679a7 7 0 0 0 7-7v-11.208a7 7 0 1 0-14 0V364.5a7 7 0 0 0 7 7H468c-5.523 0-10-4.477-10-10v-24.729c0-5.204 4.077-9.391 8.984-11.125 12.459-4.404 21.294-15.457 21.294-28.397s-8.836-23.993-21.294-28.396c-4.907-1.735-8.984-5.922-8.984-11.126V233c0-5.523 4.477-10 10-10zm-256.321 78.458a7 7 0 0 0-7 7v22.417a7 7 0 1 0 14 0v-22.417a7 7 0 0 0-7-7m0-44.833a7 7 0 0 0-7 7v22.417a7 7 0 1 0 14 0v-22.417a7 7 0 0 0-7-7m0-33.625a7 7 0 0 0-7 7v11.208a7 7 0 1 0 14 0V230a7 7 0 0 0-7-7"/><path fill="#000" d="m162.391 125.15.712-.597 4.36.597h18.107l4.36-.597.712.597v9.501h-.941l-2.869-7-7.986-.321v29.077l4.222 1.652V159H170.63v-.941l3.993-1.652V127.33l-8.285.367-3.006 6.954h-.941zm39.794 2.593v28.664l4.223 1.652V159h-12.691v-.941l3.993-1.652v-28.664l-4.223-1.652v-.941h12.691v.941zm35.594 30.408a24.5 24.5 0 0 1-8.216 1.423q-2.846 0-5.438-.62a17.5 17.5 0 0 1-4.843-2.019 16.2 16.2 0 0 1-3.924-3.351q-1.653-1.974-2.616-4.819-.941-2.869-.941-6.311 0-4.315 1.4-7.78 1.4-3.489 3.809-5.692 2.433-2.226 5.646-3.396t6.907-1.17q3.902 0 7.895 1.262l-.046 8.743h-.941l-2.868-6.54q-1.928-.849-5.072-.849-1.836 0-3.466.482-1.629.481-3.144 1.606-1.492 1.125-2.593 2.846-1.079 1.698-1.721 4.314t-.643 5.898q0 3.489 1.01 6.357 1.033 2.845 2.8 4.705a12.6 12.6 0 0 0 4.085 2.845q2.34.987 4.98.987 2.34 0 4.429-.665l2.524-7.551h.941zm34.332-33.001v1.101l-4.521 1.676-10.189 12.782 10.763 15.468 4.315 1.744V159h-7.849l-10.901-16.225h-2.777v13.632l4.246 1.652V159h-12.462v-.941l3.993-1.652v-28.664l-4.222-1.652v-.941h12.438v.941l-3.993 1.652v12.921l3.488-.643 9.685-12.416-3.534-1.354v-1.101zm3.213 33.85v-.941l4.223-1.652v-28.664l-4.223-1.652v-.941h18.658l4.36-.597.712.597v9.225h-.941l-2.915-6.77h-11.176v12.921l9.524-.459.895.321-.459 3.052-9.96-.367v13.494h11.635l2.915-6.77h.941V159zm27.011-33.85.712-.597 4.36.597h18.107l4.361-.597.711.597v9.501h-.941l-2.869-7-7.986-.321v29.077l4.223 1.652V159h-12.439v-.941l3.993-1.652V127.33l-8.284.367-3.007 6.954h-.941zM162.391 310.513l.712-.596 4.36.596h18.107l4.36-.596.712.596v9.501h-.941l-2.869-6.999-7.986-.322v29.077l4.222 1.652v.941H170.63v-.941l3.993-1.652v-29.077l-8.285.368-3.006 6.953h-.941zm39.794 2.593v28.664l4.223 1.652v.941h-12.691v-.941l3.993-1.652v-28.664l-4.223-1.652v-.941h12.691v.941zm35.594 30.408a24.4 24.4 0 0 1-8.216 1.423q-2.846 0-5.438-.62a17.5 17.5 0 0 1-4.843-2.019 16.2 16.2 0 0 1-3.924-3.351q-1.653-1.973-2.616-4.819-.941-2.869-.941-6.311 0-4.315 1.4-7.78 1.4-3.488 3.809-5.691 2.433-2.227 5.646-3.397t6.907-1.17q3.902 0 7.895 1.262l-.046 8.744h-.941l-2.868-6.541q-1.928-.849-5.072-.849-1.836 0-3.466.482-1.629.482-3.144 1.606-1.492 1.125-2.593 2.846-1.079 1.698-1.721 4.315-.642 2.616-.643 5.898 0 3.488 1.01 6.356 1.033 2.847 2.8 4.705a12.6 12.6 0 0 0 4.085 2.846q2.34.987 4.98.987 2.34 0 4.429-.666l2.524-7.55h.941zm34.332-33.001v1.102l-4.521 1.675-10.189 12.783 10.763 15.468 4.315 1.744v1.078h-7.849l-10.901-16.225h-2.777v13.632l4.246 1.652v.941h-12.462v-.941l3.993-1.652v-28.664l-4.222-1.652v-.941h12.438v.941l-3.993 1.652v12.921l3.488-.643 9.685-12.415-3.534-1.354v-1.102zm3.213 33.85v-.941l4.223-1.652v-28.664l-4.223-1.652v-.941h18.658l4.36-.596.712.596v9.226h-.941l-2.915-6.77h-11.176v12.92l9.524-.459.895.321-.459 3.053-9.96-.367v13.494h11.635l2.915-6.77h.941v9.202zm27.011-33.85.712-.596 4.36.596h18.107l4.361-.596.711.596v9.501h-.941l-2.869-6.999-7.986-.322v29.077l4.223 1.652v.941h-12.439v-.941l3.993-1.652v-29.077l-8.284.368-3.007 6.953h-.941zM391.391 549.513l.712-.596 4.36.596h18.107l4.36-.596.712.596v9.501h-.941l-2.869-6.999-7.986-.322v29.077l4.222 1.652v.941H399.63v-.941l3.993-1.652v-29.077l-8.285.368-3.006 6.953h-.941zm39.794 2.593v28.664l4.223 1.652v.941h-12.691v-.941l3.993-1.652v-28.664l-4.223-1.652v-.941h12.691v.941zm35.594 30.408a24.4 24.4 0 0 1-8.216 1.423q-2.846 0-5.438-.62a17.5 17.5 0 0 1-4.843-2.019 16.2 16.2 0 0 1-3.924-3.351q-1.653-1.973-2.616-4.819-.941-2.869-.941-6.311 0-4.314 1.4-7.78 1.4-3.488 3.809-5.691 2.433-2.226 5.646-3.397t6.907-1.17q3.902 0 7.895 1.262l-.046 8.744h-.941l-2.868-6.541q-1.928-.849-5.072-.849-1.836 0-3.466.482-1.629.482-3.144 1.606-1.491 1.125-2.593 2.846-1.079 1.698-1.721 4.315-.642 2.616-.643 5.898 0 3.488 1.01 6.356 1.033 2.847 2.8 4.705a12.6 12.6 0 0 0 4.085 2.846q2.34.987 4.98.987 2.34 0 4.429-.666l2.524-7.55h.941zm34.332-33.001v1.102l-4.521 1.675-10.189 12.783 10.763 15.468 4.315 1.744v1.078h-7.849l-10.901-16.225h-2.777v13.632l4.246 1.652v.941h-12.462v-.941l3.993-1.652v-28.664l-4.222-1.652v-.941h12.438v.941l-3.993 1.652v12.921l3.488-.643 9.685-12.415-3.534-1.354v-1.102zm3.213 33.85v-.941l4.223-1.652v-28.664l-4.223-1.652v-.941h18.658l4.36-.596.712.596v9.226h-.941l-2.915-6.77h-11.176v12.92l9.524-.459.895.321-.459 3.053-9.96-.367v13.494h11.635l2.915-6.77h.941v9.202zm27.011-33.85.712-.596 4.36.596h18.107l4.361-.596.711.596v9.501h-.941l-2.869-6.999-7.986-.322v29.077l4.223 1.652v.941h-12.439v-.941l3.993-1.652v-29.077l-8.284.368-3.007 6.953h-.941zM620.391 125.513l.712-.596 4.36.596h18.107l4.36-.596.712.596v9.501h-.941l-2.869-6.999-7.986-.322v29.077l4.222 1.652v.941H628.63v-.941l3.993-1.652v-29.077l-8.285.368-3.006 6.953h-.941zm39.794 2.593v28.664l4.223 1.652v.941h-12.691v-.941l3.993-1.652v-28.664l-4.223-1.652v-.941h12.691v.941zm35.594 30.408a24.4 24.4 0 0 1-8.216 1.423q-2.846 0-5.438-.62a17.5 17.5 0 0 1-4.843-2.019 16.2 16.2 0 0 1-3.924-3.351q-1.653-1.973-2.616-4.819-.942-2.869-.941-6.311 0-4.315 1.4-7.78 1.4-3.488 3.809-5.691 2.433-2.227 5.646-3.397t6.907-1.17q3.902 0 7.895 1.262l-.046 8.744h-.941l-2.868-6.541q-1.928-.849-5.072-.849-1.836 0-3.466.482-1.629.482-3.144 1.606-1.492 1.125-2.593 2.846-1.079 1.698-1.721 4.315-.643 2.616-.643 5.898 0 3.488 1.01 6.356 1.033 2.847 2.8 4.705a12.6 12.6 0 0 0 4.085 2.846q2.34.987 4.98.987 2.34 0 4.429-.666l2.524-7.55h.941zm34.332-33.001v1.102l-4.521 1.675-10.189 12.783 10.763 15.468 4.315 1.744v1.078h-7.849l-10.901-16.225h-2.777v13.632l4.246 1.652v.941h-12.462v-.941l3.993-1.652v-28.664l-4.222-1.652v-.941h12.438v.941l-3.993 1.652v12.921l3.488-.643 9.685-12.415-3.534-1.354v-1.102zm3.213 33.85v-.941l4.223-1.652v-28.664l-4.223-1.652v-.941h18.658l4.36-.596.712.596v9.226h-.941l-2.915-6.77h-11.176v12.92l9.524-.459.895.321-.459 3.053-9.96-.367v13.494h11.635l2.915-6.77h.941v9.202zm27.011-33.85.712-.596 4.36.596h18.107l4.361-.596.711.596v9.501h-.941l-2.869-6.999-7.986-.322v29.077l4.223 1.652v.941h-12.439v-.941l3.993-1.652v-29.077l-8.284.368-3.007 6.953h-.941zM620.391 310.513l.712-.596 4.36.596h18.107l4.36-.596.712.596v9.501h-.941l-2.869-6.999-7.986-.322v29.077l4.222 1.652v.941H628.63v-.941l3.993-1.652v-29.077l-8.285.368-3.006 6.953h-.941zm39.794 2.593v28.664l4.223 1.652v.941h-12.691v-.941l3.993-1.652v-28.664l-4.223-1.652v-.941h12.691v.941zm35.594 30.408a24.4 24.4 0 0 1-8.216 1.423q-2.846 0-5.438-.62a17.5 17.5 0 0 1-4.843-2.019 16.2 16.2 0 0 1-3.924-3.351q-1.653-1.973-2.616-4.819-.942-2.869-.941-6.311 0-4.315 1.4-7.78 1.4-3.488 3.809-5.691 2.433-2.227 5.646-3.397t6.907-1.17q3.902 0 7.895 1.262l-.046 8.744h-.941l-2.868-6.541q-1.928-.849-5.072-.849-1.836 0-3.466.482-1.629.482-3.144 1.606-1.492 1.125-2.593 2.846-1.079 1.698-1.721 4.315-.643 2.616-.643 5.898 0 3.488 1.01 6.356 1.033 2.847 2.8 4.705a12.6 12.6 0 0 0 4.085 2.846q2.34.987 4.98.987 2.34 0 4.429-.666l2.524-7.55h.941zm34.332-33.001v1.102l-4.521 1.675-10.189 12.783 10.763 15.468 4.315 1.744v1.078h-7.849l-10.901-16.225h-2.777v13.632l4.246 1.652v.941h-12.462v-.941l3.993-1.652v-28.664l-4.222-1.652v-.941h12.438v.941l-3.993 1.652v12.921l3.488-.643 9.685-12.415-3.534-1.354v-1.102zm3.213 33.85v-.941l4.223-1.652v-28.664l-4.223-1.652v-.941h18.658l4.36-.596.712.596v9.226h-.941l-2.915-6.77h-11.176v12.92l9.524-.459.895.321-.459 3.053-9.96-.367v13.494h11.635l2.915-6.77h.941v9.202zm27.011-33.85.712-.596 4.36.596h18.107l4.361-.596.711.596v9.501h-.941l-2.869-6.999-7.986-.322v29.077l4.223 1.652v.941h-12.439v-.941l3.993-1.652v-29.077l-8.284.368-3.007 6.953h-.941zM166.224 102h-24.441v-.941l4.222-1.652V70.743l-4.222-1.652v-.941h12.92v.94l-3.993 1.653v28.572h11.658l2.915-6.77h.941zm19.851.941q-4.43 0-7.918-2.134-3.465-2.158-5.462-6.22t-1.996-9.409q0-3.993 1.239-7.39 1.262-3.418 3.419-5.737a15.8 15.8 0 0 1 5.095-3.626q2.915-1.308 6.219-1.308 3.282 0 6.082 1.308a14.1 14.1 0 0 1 4.842 3.603q2.02 2.318 3.167 5.715 1.148 3.373 1.148 7.39 0 3.992-1.263 7.366-1.239 3.373-3.373 5.645a15.1 15.1 0 0 1-5.049 3.535q-2.892 1.262-6.15 1.262m.275-33.23q-3.213 0-5.668 1.996-2.433 1.974-3.741 5.485-1.308 3.488-1.308 7.986 0 6.84 2.937 11.062 2.938 4.2 7.78 4.199 4.773 0 7.688-4.245 2.938-4.245 2.938-11.062 0-6.838-2.938-11.13-2.937-4.292-7.688-4.292m18.612-1.561.711-.597 4.361.597h18.107l4.36-.597.711.597v9.5h-.941l-2.868-6.999-7.986-.32v29.076l4.222 1.652V102h-12.438v-.941l3.993-1.652V70.33l-8.285.367-3.006 6.954h-.941zm28.732 0 .712-.597 4.36.597h18.107l4.36-.597.712.597v9.5h-.941l-2.869-6.999-7.986-.32v29.076l4.223 1.652V102h-12.439v-.941l3.993-1.652V70.33l-8.284.367-3.007 6.954h-.941zM264.791 102v-.941l4.222-1.652V70.743l-4.222-1.652v-.941h18.657l4.361-.597.711.597v9.225h-.941l-2.914-6.77h-11.177v12.92l9.524-.458.895.321-.459 3.052-9.96-.367v13.494h11.636l2.914-6.77h.941V102zm51.406 0-7.229-14.183q-.666.093-1.377.138-.688.046-1.423.046a23 23 0 0 1-1.744-.069 43 43 0 0 1-1.813-.183v11.658l5.186 1.652V102h-13.631v-.941l4.222-1.652V70.743l-4.222-1.652v-.941h12.92q2.983 0 5.301.688 2.318.666 3.902 1.905 1.606 1.238 2.432 2.984.826 1.72.826 3.832 0 3.098-1.606 5.508-1.584 2.386-4.705 3.649l6.679 13.035 3.373 1.308V102zm-8.446-31.44h-5.14v14.756a47 47 0 0 0 1.767.183q.85.046 1.652.046 8.859 0 8.859-7.619 0-3.694-1.836-5.53t-5.302-1.836m27.195-2.41v.94l-3.006 1.194 7.894 15.606h.207l8.399-15.56-3.098-1.24v-.94h9.639v.94l-3.534 1.653-10.006 18.29v10.374l4.223 1.652V102h-12.439v-.941l3.993-1.652V89.08l-9.914-18.337-3.763-1.652v-.941zM166.224 287.363h-24.441v-.941l4.222-1.652v-28.664l-4.222-1.652v-.941h12.92v.941l-3.993 1.652v28.572h11.658l2.915-6.77h.941zm19.851.941q-4.43 0-7.918-2.134-3.465-2.157-5.462-6.219t-1.996-9.409q0-3.994 1.239-7.39 1.262-3.42 3.419-5.737a15.8 15.8 0 0 1 5.095-3.626q2.915-1.309 6.219-1.309 3.282 0 6.082 1.309a14.1 14.1 0 0 1 4.842 3.603q2.02 2.318 3.167 5.714 1.148 3.373 1.148 7.39 0 3.993-1.263 7.366-1.239 3.373-3.373 5.646a15.1 15.1 0 0 1-5.049 3.534q-2.892 1.262-6.15 1.262m.275-33.23q-3.213 0-5.668 1.996-2.433 1.974-3.741 5.485-1.308 3.489-1.308 7.987 0 6.839 2.937 11.061 2.938 4.2 7.78 4.2 4.773 0 7.688-4.246 2.938-4.245 2.938-11.061 0-6.84-2.938-11.131-2.937-4.291-7.688-4.291m18.612-1.561.711-.596 4.361.596h18.107l4.36-.596.711.596v9.501h-.941l-2.868-6.999-7.986-.322v29.077l4.222 1.652v.941h-12.438v-.941l3.993-1.652v-29.077l-8.285.368-3.006 6.953h-.941zm28.732 0 .712-.596 4.36.596h18.107l4.36-.596.712.596v9.501h-.941l-2.869-6.999-7.986-.322v29.077l4.223 1.652v.941h-12.439v-.941l3.993-1.652v-29.077l-8.284.368-3.007 6.953h-.941zm31.097 33.85v-.941l4.222-1.652v-28.664l-4.222-1.652v-.941h18.657l4.361-.596.711.596v9.226h-.941l-2.914-6.77h-11.177v12.92l9.524-.459.895.321-.459 3.053-9.96-.367v13.494h11.636l2.914-6.77h.941v9.202zm51.406 0-7.229-14.182q-.666.092-1.377.137-.688.046-1.423.046a23 23 0 0 1-1.744-.069 42 42 0 0 1-1.813-.183v11.658l5.186 1.652v.941h-13.631v-.941l4.222-1.652v-28.664l-4.222-1.652v-.941h12.92q2.983 0 5.301.689 2.318.665 3.902 1.904 1.606 1.24 2.432 2.984.826 1.721.826 3.832 0 3.099-1.606 5.508-1.584 2.387-4.705 3.649l6.679 13.035 3.373 1.308v.941zm-8.446-31.44h-5.14v14.756a46 46 0 0 0 1.767.184q.85.045 1.652.046 8.859 0 8.859-7.619 0-3.695-1.836-5.531t-5.302-1.836m27.195-2.41v.941l-3.006 1.193 7.894 15.606h.207l8.399-15.56-3.098-1.239v-.941h9.639v.941l-3.534 1.652-10.006 18.291v10.373l4.223 1.652v.941h-12.439v-.941l3.993-1.652v-10.327l-9.914-18.337-3.763-1.652v-.941zM395.224 526.363h-24.441v-.941l4.222-1.652v-28.664l-4.222-1.652v-.941h12.92v.941l-3.993 1.652v28.572h11.658l2.915-6.77h.941zm19.851.941q-4.43 0-7.918-2.134-3.465-2.157-5.462-6.219t-1.996-9.409q0-3.994 1.239-7.39 1.262-3.42 3.419-5.737a15.8 15.8 0 0 1 5.095-3.626q2.914-1.309 6.219-1.309 3.282 0 6.082 1.309a14.1 14.1 0 0 1 4.842 3.603q2.02 2.318 3.167 5.714 1.148 3.373 1.148 7.39 0 3.993-1.263 7.366-1.239 3.374-3.373 5.646a15.1 15.1 0 0 1-5.049 3.534q-2.892 1.262-6.15 1.262m.275-33.23q-3.213 0-5.668 1.996-2.433 1.974-3.741 5.485-1.308 3.489-1.308 7.987 0 6.839 2.937 11.061 2.938 4.2 7.78 4.2 4.773 0 7.688-4.246 2.938-4.245 2.938-11.061 0-6.84-2.938-11.131-2.937-4.291-7.688-4.291m18.612-1.561.711-.596 4.361.596h18.107l4.36-.596.711.596v9.501h-.941l-2.868-6.999-7.986-.322v29.077l4.222 1.652v.941h-12.438v-.941l3.993-1.652v-29.077l-8.285.368-3.006 6.953h-.941zm28.732 0 .712-.596 4.36.596h18.107l4.36-.596.712.596v9.501h-.941l-2.869-6.999-7.986-.322v29.077l4.223 1.652v.941h-12.439v-.941l3.993-1.652v-29.077l-8.284.368-3.007 6.953h-.941zm31.097 33.85v-.941l4.222-1.652v-28.664l-4.222-1.652v-.941h18.657l4.361-.596.711.596v9.226h-.941l-2.914-6.77h-11.177v12.92l9.524-.459.895.321-.459 3.053-9.96-.367v13.494h11.636l2.914-6.77h.941v9.202zm51.406 0-7.229-14.182q-.666.092-1.377.137-.688.046-1.423.046a23 23 0 0 1-1.744-.069 42 42 0 0 1-1.813-.183v11.658l5.186 1.652v.941h-13.631v-.941l4.222-1.652v-28.664l-4.222-1.652v-.941h12.92q2.983 0 5.301.689 2.318.665 3.902 1.904 1.606 1.24 2.432 2.984.826 1.721.826 3.832 0 3.099-1.606 5.508-1.584 2.387-4.705 3.649l6.679 13.035 3.373 1.308v.941zm-8.446-31.44h-5.14v14.756a46 46 0 0 0 1.767.184q.85.045 1.652.046 8.859 0 8.859-7.619 0-3.695-1.836-5.531t-5.302-1.836m27.195-2.41v.941l-3.006 1.193 7.894 15.606h.207l8.399-15.56-3.098-1.239v-.941h9.639v.941l-3.534 1.652-10.006 18.291v10.373l4.223 1.652v.941h-12.439v-.941l3.993-1.652v-10.327l-9.914-18.337-3.763-1.652v-.941zM624.224 102.363h-24.441v-.941l4.222-1.652V71.106l-4.222-1.652v-.94h12.92v.94l-3.993 1.652v28.572h11.658l2.915-6.77h.941zm19.851.941q-4.43 0-7.918-2.134-3.465-2.157-5.462-6.22-1.996-4.061-1.996-9.409 0-3.993 1.239-7.39 1.262-3.419 3.419-5.736a15.8 15.8 0 0 1 5.095-3.626q2.914-1.309 6.219-1.308 3.282 0 6.082 1.308a14.1 14.1 0 0 1 4.842 3.603q2.02 2.318 3.167 5.714 1.148 3.373 1.148 7.39 0 3.993-1.263 7.366-1.239 3.374-3.373 5.646a15.1 15.1 0 0 1-5.049 3.534q-2.892 1.262-6.15 1.262m.275-33.23q-3.213 0-5.668 1.996-2.433 1.974-3.741 5.485-1.308 3.489-1.308 7.986 0 6.84 2.937 11.062 2.938 4.2 7.78 4.2 4.773 0 7.688-4.246 2.937-4.245 2.938-11.061 0-6.84-2.938-11.13-2.937-4.292-7.688-4.292m18.612-1.56.711-.597 4.361.596h18.107l4.36-.597.711.597v9.501h-.941l-2.868-7-7.986-.32V99.77l4.222 1.652v.941h-12.438v-.941l3.993-1.652V70.693l-8.285.368-3.006 6.953h-.941zm28.732 0 .712-.597 4.36.596h18.107l4.36-.597.712.597v9.501h-.941l-2.869-7-7.986-.32V99.77l4.223 1.652v.941h-12.439v-.941l3.993-1.652V70.693l-8.284.368-3.007 6.953h-.941zm31.097 33.849v-.941l4.222-1.652V71.106l-4.222-1.652v-.94h18.657l4.361-.597.711.596v9.226h-.941l-2.914-6.77h-11.177v12.92l9.524-.459.895.321-.459 3.053-9.96-.368v13.495h11.636l2.914-6.77h.941v9.202zm51.406 0-7.229-14.182q-.666.091-1.377.137-.688.046-1.423.046a23 23 0 0 1-1.744-.069 43 43 0 0 1-1.813-.183V99.77l5.186 1.652v.941h-13.631v-.941l4.222-1.652V71.106l-4.222-1.652v-.94h12.92q2.984 0 5.301.688 2.318.665 3.902 1.904 1.606 1.24 2.432 2.984.826 1.721.826 3.832 0 3.099-1.606 5.508-1.584 2.387-4.705 3.65l6.679 13.034 3.373 1.308v.941zm-8.446-31.44h-5.14v14.756a47 47 0 0 0 1.767.184q.85.046 1.652.046 8.859 0 8.859-7.62 0-3.694-1.836-5.53t-5.302-1.836m27.195-2.41v.941l-3.006 1.194 7.894 15.605h.207l8.399-15.56-3.098-1.239v-.94h9.639v.94l-3.534 1.652-10.006 18.291V99.77l4.223 1.652v.941h-12.439v-.941l3.993-1.652V89.443l-9.914-18.337-3.763-1.652v-.94zM624.224 287.363h-24.441v-.941l4.222-1.652v-28.664l-4.222-1.652v-.941h12.92v.941l-3.993 1.652v28.572h11.658l2.915-6.77h.941zm19.851.941q-4.43 0-7.918-2.134-3.465-2.157-5.462-6.219t-1.996-9.409q0-3.994 1.239-7.39 1.262-3.42 3.419-5.737a15.8 15.8 0 0 1 5.095-3.626q2.914-1.309 6.219-1.309 3.282 0 6.082 1.309a14.1 14.1 0 0 1 4.842 3.603q2.02 2.318 3.167 5.714 1.148 3.373 1.148 7.39 0 3.993-1.263 7.366-1.239 3.373-3.373 5.646a15.1 15.1 0 0 1-5.049 3.534q-2.892 1.262-6.15 1.262m.275-33.23q-3.213 0-5.668 1.996-2.433 1.974-3.741 5.485-1.308 3.489-1.308 7.987 0 6.839 2.937 11.061 2.938 4.2 7.78 4.2 4.773 0 7.688-4.246 2.937-4.245 2.938-11.061 0-6.84-2.938-11.131-2.937-4.291-7.688-4.291m18.612-1.561.711-.596 4.361.596h18.107l4.36-.596.711.596v9.501h-.941l-2.868-6.999-7.986-.322v29.077l4.222 1.652v.941h-12.438v-.941l3.993-1.652v-29.077l-8.285.368-3.006 6.953h-.941zm28.732 0 .712-.596 4.36.596h18.107l4.36-.596.712.596v9.501h-.941l-2.869-6.999-7.986-.322v29.077l4.223 1.652v.941h-12.439v-.941l3.993-1.652v-29.077l-8.284.368-3.007 6.953h-.941zm31.097 33.85v-.941l4.222-1.652v-28.664l-4.222-1.652v-.941h18.657l4.361-.596.711.596v9.226h-.941l-2.914-6.77h-11.177v12.92l9.524-.459.895.321-.459 3.053-9.96-.367v13.494h11.636l2.914-6.77h.941v9.202zm51.406 0-7.229-14.182q-.666.092-1.377.137-.688.046-1.423.046a23 23 0 0 1-1.744-.069 42 42 0 0 1-1.813-.183v11.658l5.186 1.652v.941h-13.631v-.941l4.222-1.652v-28.664l-4.222-1.652v-.941h12.92q2.984 0 5.301.689 2.318.665 3.902 1.904 1.606 1.24 2.432 2.984.826 1.721.826 3.832 0 3.099-1.606 5.508-1.584 2.387-4.705 3.649l6.679 13.035 3.373 1.308v.941zm-8.446-31.44h-5.14v14.756a46 46 0 0 0 1.767.184q.85.045 1.652.046 8.859 0 8.859-7.619 0-3.695-1.836-5.531t-5.302-1.836m27.195-2.41v.941l-3.006 1.193 7.894 15.606h.207l8.399-15.56-3.098-1.239v-.941h9.639v.941l-3.534 1.652-10.006 18.291v10.373l4.223 1.652v.941h-12.439v-.941l3.993-1.652v-10.327l-9.914-18.337-3.763-1.652v-.941zM81.143 86.87q0-1.506-.559-2.6a5.4 5.4 0 0 0-1.525-1.848q-.967-.774-2.32-1.268a18 18 0 0 0-2.944-.752 34 34 0 0 0-3.395-.365 76 76 0 0 0-3.652-.086q-1.848 0-3.63.086a34 34 0 0 0-3.352.365q-1.569.28-2.922.752-1.332.494-2.32 1.268a5.7 5.7 0 0 0-1.526 1.869q-.537 1.096-.537 2.578 0 1.462.537 2.535.538 1.074 1.504 1.827.967.75 2.299 1.224 1.353.495 2.943.752 1.59.28 3.373.365a62 62 0 0 0 7.305 0 27 27 0 0 0 3.373-.365 16.7 16.7 0 0 0 2.943-.73q1.354-.473 2.32-1.246a5.2 5.2 0 0 0 1.526-1.827q.558-1.073.559-2.535m-31.024-.259q0-2.943 1.246-5.113 1.246-2.147 3.524-3.416 2.298-1.267 5.242-1.87 2.943-.6 6.617-.6 3.653 0 6.66.687t5.307 2.062q2.298 1.375 3.566 3.61 1.29 2.256 1.29 5.199 0 2.342-.839 4.19-.837 1.846-2.32 3.072-1.482 1.245-3.61 2.062-2.126.839-4.597 1.182-2.47.365-5.414.365-3.63 0-6.617-.687-2.987-.667-5.264-2.041-2.277-1.355-3.545-3.588-1.246-2.214-1.246-5.114m31.024 27.93q0-1.504-.559-2.6a5.4 5.4 0 0 0-1.525-1.847q-.967-.774-2.32-1.268a18 18 0 0 0-2.944-.752 34 34 0 0 0-3.395-.365 76 76 0 0 0-7.283 0 34 34 0 0 0-3.351.365q-1.569.28-2.922.752-1.332.494-2.32 1.268a5.65 5.65 0 0 0-1.526 1.869q-.537 1.096-.537 2.578 0 1.461.537 2.535a5.3 5.3 0 0 0 1.504 1.826q.967.753 2.299 1.225 1.353.494 2.943.752 1.59.28 3.373.365a62 62 0 0 0 7.305 0 27 27 0 0 0 3.373-.365 16.6 16.6 0 0 0 2.943-.731q1.354-.472 2.32-1.246a5.2 5.2 0 0 0 1.526-1.826q.558-1.074.559-2.535m-31.024-.258q0-2.943 1.246-5.113 1.246-2.148 3.524-3.416 2.298-1.267 5.242-1.869t6.617-.602q3.653 0 6.66.688t5.307 2.062q2.298 1.375 3.566 3.61 1.29 2.255 1.29 5.199 0 2.341-.839 4.189-.837 1.848-2.32 3.073-1.482 1.246-3.61 2.062-2.126.838-4.597 1.182-2.47.365-5.414.365-3.63 0-6.617-.688-2.987-.666-5.264-2.041-2.277-1.353-3.545-3.588-1.246-2.212-1.246-5.113m30.98 35.106L51 138.904v-4.533l28.252 11.322v-13.298l-4.533-.924v-2.278h7.97v20.196zM81.143 273.07q0-1.504-.559-2.599a5.4 5.4 0 0 0-1.525-1.848q-.967-.774-2.32-1.268a18 18 0 0 0-2.944-.751 34 34 0 0 0-3.395-.366 76 76 0 0 0-7.283 0 34 34 0 0 0-3.351.366q-1.569.279-2.922.751-1.332.495-2.32 1.268a5.7 5.7 0 0 0-1.526 1.869q-.537 1.096-.537 2.578 0 1.461.537 2.535.538 1.075 1.504 1.827.967.751 2.299 1.224 1.353.494 2.943.752 1.59.28 3.373.365a62 62 0 0 0 7.305 0 27 27 0 0 0 3.373-.365 16.7 16.7 0 0 0 2.943-.73q1.354-.473 2.32-1.246a5.2 5.2 0 0 0 1.526-1.827q.558-1.074.559-2.535m-31.024-.258q0-2.943 1.246-5.113 1.246-2.148 3.524-3.416 2.298-1.268 5.242-1.869 2.943-.602 6.617-.602 3.653 0 6.66.688t5.307 2.062q2.298 1.375 3.566 3.61 1.29 2.256 1.29 5.199 0 2.342-.839 4.19-.837 1.846-2.32 3.072-1.482 1.246-3.61 2.062-2.126.839-4.597 1.182-2.47.365-5.414.365-3.63 0-6.617-.687-2.987-.666-5.264-2.041-2.277-1.354-3.545-3.588-1.246-2.213-1.246-5.114m2.063 20.797q0 4.92 3.287 8.229t9.26 4.146q-2.772-3.996-2.772-7.39 0-4.276 2.879-7.133t7.67-2.857q3.33 0 5.865 1.482 2.557 1.482 3.867 3.975 1.332 2.492 1.332 5.543 0 5.5-3.91 8.292-3.888 2.793-11.322 2.793-2.815 0-5.479-.644a18.9 18.9 0 0 1-4.962-1.912 17.6 17.6 0 0 1-4.04-3.029q-1.74-1.741-2.75-4.147-.987-2.406-.988-5.135 0-2.577.58-4.898l1.654.215q-.171 1.052-.171 2.47m29.046 5.995q0-1.29-.515-2.471a6.9 6.9 0 0 0-1.504-2.127q-.989-.946-2.664-1.504-1.654-.559-3.76-.559-2.127 0-3.717.559-1.59.58-2.513 1.568a6.7 6.7 0 0 0-1.375 2.235q-.452 1.245-.452 2.728 0 2.816 1.547 6.123.73.087 2.235.086 2.943 0 5.199-.344t3.975-1.095q1.74-.753 2.642-2.063.903-1.31.903-3.136M51.58 315.523h8.186v1.096l-6.381 2.32q-.924 2.106-.924 4.018 0 3.094 1.568 4.877 1.569 1.805 4.985 1.805 3.072 0 4.984-1.805t1.912-4.576v-2.235h2.944v2.192q0 1.59 1.01 2.771a5.83 5.83 0 0 0 2.427 1.741 8 8 0 0 0 2.943.558q5.865 0 5.866-5.865 0-1.397-.366-3.158l-6.38-2.299v-1.311h7.927a20.4 20.4 0 0 1 1.29 7.176q0 1.546-.237 2.901-.237 1.353-.816 2.621a7.4 7.4 0 0 1-1.483 2.17q-.88.902-2.299 1.439-1.395.537-3.18.537-2.34 0-4.554-1.461-2.191-1.461-3.244-3.953h-.172q-.559 1.698-1.203 2.857a8.8 8.8 0 0 1-1.633 2.106q-.988.945-2.406 1.396-1.419.474-3.33.473-2.9 0-4.942-1.504-2.02-1.482-2.986-3.996-.967-2.492-.967-5.779 0-3.674 1.461-7.112M306.232 501.758l1.891-.473 4.082 8.83v1.676h-29.648l-.881 4.404H280v-14.179h1.676l.881 5.736h25.072zm3.911 30.572q0-1.504-.559-2.6a5.4 5.4 0 0 0-1.525-1.847q-.967-.774-2.321-1.268a18 18 0 0 0-2.943-.752 34 34 0 0 0-3.395-.365 76 76 0 0 0-7.283 0 34 34 0 0 0-3.351.365q-1.569.28-2.922.752-1.332.495-2.321 1.268a5.65 5.65 0 0 0-1.525 1.869q-.537 1.096-.537 2.578 0 1.461.537 2.535a5.3 5.3 0 0 0 1.504 1.826q.967.753 2.299 1.225 1.353.494 2.943.752 1.59.28 3.373.365a62 62 0 0 0 7.305 0 27 27 0 0 0 3.373-.365 16.7 16.7 0 0 0 2.943-.73q1.354-.473 2.321-1.247a5.2 5.2 0 0 0 1.525-1.826q.559-1.074.559-2.535m-31.024-.258q0-2.943 1.246-5.113 1.246-2.148 3.524-3.416 2.298-1.268 5.242-1.869 2.943-.602 6.617-.602 3.652 0 6.66.688t5.307 2.062 3.566 3.61q1.29 2.256 1.289 5.199 0 2.342-.838 4.189-.837 1.848-2.32 3.073-1.482 1.246-3.609 2.062a20 20 0 0 1-4.598 1.182q-2.47.365-5.414.365-3.631 0-6.617-.688-2.987-.666-5.264-2.041-2.277-1.353-3.545-3.587-1.245-2.213-1.246-5.114m31.024 27.93q0-1.504-.559-2.6a5.4 5.4 0 0 0-1.525-1.847q-.967-.774-2.321-1.268a18 18 0 0 0-2.943-.752 34 34 0 0 0-3.395-.365 76 76 0 0 0-7.283 0 34 34 0 0 0-3.351.365q-1.569.28-2.922.752-1.332.495-2.321 1.268a5.65 5.65 0 0 0-1.525 1.869q-.537 1.096-.537 2.578 0 1.461.537 2.535a5.3 5.3 0 0 0 1.504 1.826q.967.753 2.299 1.225 1.353.494 2.943.752 1.59.28 3.373.365 1.805.108 3.674.107a60 60 0 0 0 3.631-.107 27 27 0 0 0 3.373-.365 16.7 16.7 0 0 0 2.943-.731q1.354-.472 2.321-1.246a5.2 5.2 0 0 0 1.525-1.826q.559-1.074.559-2.535m-31.024-.258q0-2.944 1.246-5.113 1.246-2.148 3.524-3.416 2.298-1.268 5.242-1.869 2.943-.602 6.617-.602 3.652 0 6.66.688t5.307 2.062 3.566 3.61q1.29 2.255 1.289 5.199 0 2.341-.838 4.189-.837 1.848-2.32 3.072-1.482 1.247-3.609 2.063-2.127.838-4.598 1.182-2.47.365-5.414.365-3.631 0-6.617-.688-2.987-.666-5.264-2.041-2.277-1.353-3.545-3.588-1.245-2.212-1.246-5.113M539.143 88.049q0-1.505-.559-2.6a5.4 5.4 0 0 0-1.525-1.847q-.967-.774-2.321-1.268a18 18 0 0 0-2.943-.752 34 34 0 0 0-3.395-.365 76 76 0 0 0-3.652-.086q-1.848 0-3.631.086a34 34 0 0 0-3.351.365q-1.569.28-2.922.752-1.332.494-2.321 1.268a5.7 5.7 0 0 0-1.525 1.869q-.537 1.096-.537 2.578 0 1.461.537 2.535a5.3 5.3 0 0 0 1.504 1.826q.966.753 2.299 1.225 1.353.495 2.943.752 1.59.28 3.373.365a62 62 0 0 0 7.305 0 27 27 0 0 0 3.373-.365 16.7 16.7 0 0 0 2.943-.73q1.354-.474 2.321-1.247a5.2 5.2 0 0 0 1.525-1.826q.558-1.074.559-2.535m-31.024-.258q0-2.943 1.246-5.113 1.246-2.149 3.524-3.416 2.299-1.267 5.242-1.87 2.943-.6 6.617-.601 3.652 0 6.66.688t5.307 2.062q2.298 1.375 3.566 3.61 1.29 2.255 1.289 5.199 0 2.34-.838 4.19-.837 1.846-2.32 3.071-1.482 1.247-3.609 2.063a20 20 0 0 1-4.598 1.181q-2.47.366-5.414.366-3.631 0-6.617-.688-2.987-.666-5.264-2.04-2.277-1.355-3.545-3.589-1.245-2.213-1.246-5.113m2.342 27.758q0 1.289.516 2.492a5.9 5.9 0 0 0 1.568 2.127q1.053.924 2.643 1.461 1.589.559 3.716.559 2.192 0 3.717-.581 1.547-.58 2.492-1.546a5.7 5.7 0 0 0 1.397-2.256q.451-1.29.451-2.707 0-2.793-1.547-6.102a23 23 0 0 0-.945-.086 36 36 0 0 0-1.311-.021q-2.878 0-5.22.343-2.343.345-4.018 1.118-1.654.773-2.557 2.041-.902 1.289-.902 3.158m29.025 5.972q0-4.919-3.287-8.228t-9.238-4.125q2.771 4.017 2.771 7.391 0 4.275-2.9 7.132-2.879 2.858-7.67 2.858-3.309 0-5.865-1.504-2.535-1.482-3.867-3.975-1.311-2.47-1.311-5.521 0-5.5 3.889-8.293 3.91-2.793 11.344-2.793 2.814 0 5.478.623 2.664.645 4.963 1.912a18.4 18.4 0 0 1 4.039 3.029q1.74 1.762 2.729 4.168 1.01 2.406 1.009 5.135 0 2.428-.58 4.877l-1.676-.215q.172-1.053.172-2.471m-.386 27.415L509 138.451v-4.533l28.252 11.322v-13.299l-4.533-.923v-2.278h7.97v20.196zM539.143 273.15q0-1.504-.559-2.599a5.4 5.4 0 0 0-1.525-1.848q-.967-.773-2.321-1.267a18 18 0 0 0-2.943-.752 34 34 0 0 0-3.395-.366 76 76 0 0 0-7.283 0 34 34 0 0 0-3.351.366q-1.569.278-2.922.752a8.6 8.6 0 0 0-2.321 1.267 5.7 5.7 0 0 0-1.525 1.869q-.537 1.096-.537 2.578 0 1.46.537 2.536a5.3 5.3 0 0 0 1.504 1.826q.966.752 2.299 1.224 1.353.494 2.943.752a27 27 0 0 0 3.373.366 62 62 0 0 0 7.305 0 27 27 0 0 0 3.373-.366 16.7 16.7 0 0 0 2.943-.73q1.354-.473 2.321-1.246a5.2 5.2 0 0 0 1.525-1.826q.558-1.075.559-2.536m-31.024-.257q0-2.944 1.246-5.114 1.246-2.148 3.524-3.416 2.299-1.268 5.242-1.869t6.617-.601q3.652 0 6.66.687t5.307 2.063q2.298 1.374 3.566 3.609 1.29 2.256 1.289 5.199 0 2.342-.838 4.19-.837 1.846-2.32 3.072-1.482 1.246-3.609 2.062a20 20 0 0 1-4.598 1.182q-2.47.365-5.414.365-3.631 0-6.617-.687-2.987-.667-5.264-2.041-2.277-1.355-3.545-3.588-1.245-2.213-1.246-5.113m1.461 16.671h8.186v1.096l-6.381 2.32q-.924 2.106-.924 4.018 0 3.094 1.568 4.877 1.569 1.805 4.985 1.805 3.072 0 4.984-1.805t1.912-4.576v-2.235h2.944v2.192q0 1.59 1.009 2.771a5.8 5.8 0 0 0 2.428 1.741 8 8 0 0 0 2.943.558q5.866 0 5.866-5.865 0-1.397-.366-3.158l-6.38-2.299v-1.311h7.927a20.4 20.4 0 0 1 1.289 7.176 17 17 0 0 1-.236 2.901q-.237 1.353-.816 2.621a7.4 7.4 0 0 1-1.483 2.17q-.88.902-2.299 1.439-1.397.537-3.179.537-2.343 0-4.555-1.461-2.191-1.46-3.244-3.953h-.172q-.559 1.698-1.203 2.857a8.8 8.8 0 0 1-1.633 2.106q-.988.946-2.406 1.396-1.419.474-3.33.473-2.9 0-4.942-1.504-2.02-1.482-2.986-3.996-.967-2.492-.967-5.779 0-3.674 1.461-7.112m7.863 43.206H509v-20.411h2.814l8.938 8.809q5.93 5.844 12.01 5.844 3.05 0 4.705-1.698 1.676-1.676 1.676-4.898 0-1.612-.452-3.652l-6.38-2.299v-1.311h7.927q1.332 3.417 1.332 7.735 0 2.191-.429 4.039a11.4 11.4 0 0 1-1.332 3.394q-.903 1.548-2.536 2.428-1.632.88-3.845.881-1.44 0-2.364-.108-.923-.086-2.212-.494a10.1 10.1 0 0 1-2.536-1.181q-1.224-.774-2.9-2.17-1.675-1.375-3.717-3.438l-7.219-7.219v12.762l4.963 1.461z"/><path stroke="#727272" stroke-width="2" d="M33 424h776"/><path stroke="#fff" d="M942.5 0v629M885 .5h57M885 628.5h57"/></svg>