<svg width="1193" height="609" viewBox="0 0 1193 609" fill="none" xmlns="http://www.w3.org/2000/svg">
<rect x="1" y="129" width="213" height="77" rx="27" stroke="#DBDBDB" stroke-width="2"/>
<path d="M83.6097 153.909V183H80.087V157.602H79.9165L72.8143 162.318V158.739L80.087 153.909H83.6097ZM92.033 183V161.182H95.2717V164.591H95.5558C96.0103 163.426 96.7442 162.522 97.7575 161.878C98.7707 161.224 99.9876 160.898 101.408 160.898C102.847 160.898 104.045 161.224 105.002 161.878C105.968 162.522 106.721 163.426 107.26 164.591H107.488C108.046 163.464 108.884 162.569 110.002 161.906C111.119 161.234 112.459 160.898 114.022 160.898C115.972 160.898 117.568 161.509 118.809 162.73C120.049 163.942 120.669 165.831 120.669 168.398V183H117.317V168.398C117.317 166.788 116.877 165.637 115.996 164.946C115.115 164.255 114.078 163.909 112.885 163.909C111.351 163.909 110.163 164.373 109.32 165.301C108.477 166.22 108.056 167.384 108.056 168.795V183H104.647V168.057C104.647 166.816 104.244 165.817 103.439 165.06C102.634 164.293 101.597 163.909 100.328 163.909C99.4573 163.909 98.6429 164.141 97.8853 164.605C97.1372 165.069 96.5311 165.713 96.0671 166.537C95.6126 167.351 95.3853 168.294 95.3853 169.364V183H92.033ZM142.253 166.068L139.242 166.92C139.052 166.419 138.773 165.931 138.404 165.457C138.044 164.974 137.551 164.577 136.926 164.264C136.301 163.952 135.501 163.795 134.526 163.795C133.191 163.795 132.078 164.103 131.188 164.719C130.307 165.325 129.867 166.097 129.867 167.034C129.867 167.867 130.17 168.526 130.776 169.009C131.382 169.491 132.329 169.894 133.617 170.216L136.855 171.011C138.806 171.485 140.26 172.209 141.216 173.185C142.173 174.151 142.651 175.396 142.651 176.92C142.651 178.17 142.291 179.288 141.571 180.273C140.861 181.258 139.867 182.034 138.588 182.602C137.31 183.17 135.823 183.455 134.128 183.455C131.903 183.455 130.061 182.972 128.603 182.006C127.144 181.04 126.221 179.629 125.833 177.773L129.015 176.977C129.318 178.152 129.891 179.032 130.733 179.619C131.586 180.206 132.698 180.5 134.071 180.5C135.634 180.5 136.874 180.169 137.793 179.506C138.721 178.833 139.185 178.028 139.185 177.091C139.185 176.333 138.92 175.699 138.39 175.188C137.859 174.667 137.045 174.278 135.946 174.023L132.31 173.17C130.312 172.697 128.844 171.963 127.907 170.969C126.979 169.965 126.515 168.71 126.515 167.205C126.515 165.973 126.86 164.884 127.551 163.938C128.252 162.991 129.204 162.247 130.407 161.707C131.619 161.168 132.992 160.898 134.526 160.898C136.685 160.898 138.38 161.371 139.611 162.318C140.852 163.265 141.732 164.515 142.253 166.068Z" fill="white"/>
<path d="M63.1037 19H59.581C59.3726 17.9867 59.0081 17.0966 58.4872 16.3295C57.9759 15.5625 57.3509 14.9186 56.6122 14.3977C55.883 13.8674 55.0734 13.4697 54.1832 13.2045C53.2931 12.9394 52.3651 12.8068 51.3991 12.8068C49.6378 12.8068 48.0421 13.2519 46.6122 14.142C45.1918 15.0322 44.0601 16.3438 43.2173 18.0767C42.384 19.8097 41.9673 21.9356 41.9673 24.4545C41.9673 26.9735 42.384 29.0994 43.2173 30.8324C44.0601 32.5653 45.1918 33.8769 46.6122 34.767C48.0421 35.6572 49.6378 36.1023 51.3991 36.1023C52.3651 36.1023 53.2931 35.9697 54.1832 35.7045C55.0734 35.4394 55.883 35.0464 56.6122 34.5256C57.3509 33.9953 57.9759 33.3466 58.4872 32.5795C59.0081 31.803 59.3726 30.9129 59.581 29.9091H63.1037C62.8385 31.3958 62.3556 32.7263 61.6548 33.9006C60.9541 35.0748 60.0829 36.0739 59.0412 36.8977C57.9995 37.7121 56.83 38.3324 55.5327 38.7585C54.2448 39.1847 52.867 39.3977 51.3991 39.3977C48.9181 39.3977 46.7116 38.7917 44.7798 37.5795C42.848 36.3674 41.3281 34.6439 40.2202 32.4091C39.1122 30.1742 38.5582 27.5227 38.5582 24.4545C38.5582 21.3864 39.1122 18.7348 40.2202 16.5C41.3281 14.2652 42.848 12.5417 44.7798 11.3295C46.7116 10.1174 48.9181 9.51136 51.3991 9.51136C52.867 9.51136 54.2448 9.72443 55.5327 10.1506C56.83 10.5767 57.9995 11.2017 59.0412 12.0256C60.0829 12.84 60.9541 13.8343 61.6548 15.0085C62.3556 16.1733 62.8385 17.5038 63.1037 19ZM82.0916 30.0795V17.1818H85.4439V39H82.0916V35.3068H81.8643C81.353 36.4148 80.5575 37.357 79.478 38.1335C78.3984 38.9006 77.0348 39.2841 75.3871 39.2841C74.0234 39.2841 72.8113 38.9858 71.7507 38.3892C70.6901 37.7831 69.8568 36.8741 69.2507 35.6619C68.6446 34.4403 68.3416 32.9015 68.3416 31.0455V17.1818H71.6939V30.8182C71.6939 32.4091 72.139 33.678 73.0291 34.625C73.9287 35.572 75.0746 36.0455 76.4666 36.0455C77.3 36.0455 78.1475 35.8324 79.0092 35.4062C79.8804 34.9801 80.6096 34.3267 81.1967 33.446C81.7933 32.5653 82.0916 31.4432 82.0916 30.0795ZM91.5838 39V17.1818H94.8224V20.4773H95.0497C95.4474 19.3977 96.1671 18.5218 97.2088 17.8494C98.2505 17.1771 99.4247 16.8409 100.732 16.8409C100.978 16.8409 101.286 16.8456 101.655 16.8551C102.024 16.8646 102.304 16.8788 102.493 16.8977V20.3068C102.379 20.2784 102.119 20.2358 101.712 20.179C101.314 20.1127 100.893 20.0795 100.447 20.0795C99.3868 20.0795 98.4399 20.3021 97.6065 20.7472C96.7827 21.1828 96.1293 21.7888 95.6463 22.5653C95.1728 23.3324 94.9361 24.2083 94.9361 25.1932V39H91.5838ZM106.467 39V17.1818H109.705V20.4773H109.933C110.33 19.3977 111.05 18.5218 112.092 17.8494C113.133 17.1771 114.308 16.8409 115.614 16.8409C115.861 16.8409 116.168 16.8456 116.538 16.8551C116.907 16.8646 117.186 16.8788 117.376 16.8977V20.3068C117.262 20.2784 117.002 20.2358 116.594 20.179C116.197 20.1127 115.775 20.0795 115.33 20.0795C114.27 20.0795 113.323 20.3021 112.489 20.7472C111.665 21.1828 111.012 21.7888 110.529 22.5653C110.056 23.3324 109.819 24.2083 109.819 25.1932V39H106.467ZM129.833 39.4545C127.731 39.4545 125.917 38.9905 124.393 38.0625C122.878 37.125 121.708 35.8182 120.884 34.142C120.07 32.4564 119.663 30.4962 119.663 28.2614C119.663 26.0265 120.07 24.0568 120.884 22.3523C121.708 20.6383 122.854 19.303 124.322 18.3466C125.799 17.3807 127.522 16.8977 129.492 16.8977C130.629 16.8977 131.751 17.0871 132.859 17.4659C133.967 17.8447 134.975 18.4602 135.884 19.3125C136.793 20.1553 137.518 21.2727 138.058 22.6648C138.597 24.0568 138.867 25.7708 138.867 27.8068V29.2273H122.049V26.3295H135.458C135.458 25.0985 135.212 24 134.719 23.0341C134.237 22.0682 133.545 21.3059 132.646 20.7472C131.755 20.1884 130.704 19.9091 129.492 19.9091C128.157 19.9091 127.002 20.2405 126.026 20.9034C125.06 21.5568 124.317 22.4091 123.796 23.4602C123.275 24.5114 123.015 25.6383 123.015 26.8409V28.7727C123.015 30.4205 123.299 31.8172 123.867 32.9631C124.445 34.0994 125.245 34.9659 126.268 35.5625C127.29 36.1496 128.479 36.4432 129.833 36.4432C130.714 36.4432 131.509 36.3201 132.219 36.0739C132.939 35.8182 133.559 35.4394 134.08 34.9375C134.601 34.4261 135.004 33.7917 135.288 33.0341L138.526 33.9432C138.185 35.0417 137.612 36.0076 136.808 36.8409C136.003 37.6648 135.008 38.3087 133.825 38.7727C132.641 39.2273 131.31 39.4545 129.833 39.4545ZM147.319 25.875V39H143.967V17.1818H147.205V20.5909H147.489C148.001 19.483 148.777 18.5928 149.819 17.9205C150.861 17.2386 152.205 16.8977 153.853 16.8977C155.33 16.8977 156.623 17.2008 157.731 17.8068C158.839 18.4034 159.701 19.3125 160.316 20.5341C160.932 21.7462 161.239 23.2803 161.239 25.1364V39H157.887V25.3636C157.887 23.6496 157.442 22.3144 156.552 21.358C155.662 20.392 154.44 19.9091 152.887 19.9091C151.817 19.9091 150.861 20.1411 150.018 20.6051C149.184 21.0691 148.526 21.7462 148.043 22.6364C147.56 23.5265 147.319 24.6061 147.319 25.875ZM176.854 17.1818V20.0227H165.547V17.1818H176.854ZM168.842 11.9545H172.195V32.75C172.195 33.697 172.332 34.4072 172.607 34.8807C172.891 35.3447 173.25 35.6572 173.686 35.8182C174.131 35.9697 174.6 36.0455 175.092 36.0455C175.462 36.0455 175.765 36.0265 176.001 35.9886C176.238 35.9413 176.428 35.9034 176.57 35.875L177.251 38.8864C177.024 38.9716 176.707 39.0568 176.3 39.142C175.893 39.2367 175.376 39.2841 174.751 39.2841C173.804 39.2841 172.876 39.0805 171.967 38.6733C171.068 38.2661 170.32 37.6458 169.723 36.8125C169.136 35.9792 168.842 34.928 168.842 33.6591V11.9545ZM57.3224 61.0341V57.9091H79.1406V61.0341H69.9929V87H66.4702V61.0341H57.3224ZM84.1229 87V65.1818H87.4751V87H84.1229ZM85.8274 61.5455C85.174 61.5455 84.6106 61.3229 84.1371 60.8778C83.6731 60.4328 83.4411 59.8977 83.4411 59.2727C83.4411 58.6477 83.6731 58.1127 84.1371 57.6676C84.6106 57.2225 85.174 57 85.8274 57C86.4808 57 87.0395 57.2225 87.5036 57.6676C87.977 58.1127 88.2138 58.6477 88.2138 59.2727C88.2138 59.8977 87.977 60.4328 87.5036 60.8778C87.0395 61.3229 86.4808 61.5455 85.8274 61.5455ZM93.6151 87V65.1818H96.8537V68.5909H97.1378C97.5923 67.4261 98.3262 66.5218 99.3395 65.8778C100.353 65.2244 101.57 64.8977 102.99 64.8977C104.429 64.8977 105.627 65.2244 106.584 65.8778C107.55 66.5218 108.303 67.4261 108.842 68.5909H109.07C109.628 67.464 110.466 66.5691 111.584 65.9062C112.701 65.2339 114.041 64.8977 115.604 64.8977C117.554 64.8977 119.15 65.5085 120.391 66.7301C121.631 67.9422 122.251 69.8314 122.251 72.3977V87H118.899V72.3977C118.899 70.7879 118.459 69.6373 117.578 68.946C116.697 68.2547 115.661 67.9091 114.467 67.9091C112.933 67.9091 111.745 68.3731 110.902 69.3011C110.059 70.2197 109.638 71.3845 109.638 72.7955V87H106.229V72.0568C106.229 70.8163 105.826 69.8172 105.021 69.0597C104.216 68.2926 103.179 67.9091 101.911 67.9091C101.039 67.9091 100.225 68.1411 99.4673 68.6051C98.7192 69.0691 98.1132 69.7131 97.6491 70.5369C97.1946 71.3513 96.9673 72.2936 96.9673 73.3636V87H93.6151ZM137.528 87.4545C135.426 87.4545 133.613 86.9905 132.088 86.0625C130.573 85.125 129.403 83.8182 128.58 82.142C127.765 80.4564 127.358 78.4962 127.358 76.2614C127.358 74.0265 127.765 72.0568 128.58 70.3523C129.403 68.6383 130.549 67.303 132.017 66.3466C133.494 65.3807 135.218 64.8977 137.188 64.8977C138.324 64.8977 139.446 65.0871 140.554 65.4659C141.662 65.8447 142.67 66.4602 143.58 67.3125C144.489 68.1553 145.213 69.2727 145.753 70.6648C146.293 72.0568 146.562 73.7708 146.562 75.8068V77.2273H129.744V74.3295H143.153C143.153 73.0985 142.907 72 142.415 71.0341C141.932 70.0682 141.241 69.3059 140.341 68.7472C139.451 68.1884 138.4 67.9091 137.188 67.9091C135.852 67.9091 134.697 68.2405 133.722 68.9034C132.756 69.5568 132.012 70.4091 131.491 71.4602C130.971 72.5114 130.71 73.6383 130.71 74.8409V76.7727C130.71 78.4205 130.994 79.8172 131.562 80.9631C132.14 82.0994 132.94 82.9659 133.963 83.5625C134.986 84.1496 136.174 84.4432 137.528 84.4432C138.409 84.4432 139.205 84.3201 139.915 84.0739C140.634 83.8182 141.255 83.4394 141.776 82.9375C142.296 82.4261 142.699 81.7917 142.983 81.0341L146.222 81.9432C145.881 83.0417 145.308 84.0076 144.503 84.8409C143.698 85.6648 142.704 86.3087 141.52 86.7727C140.336 87.2273 139.006 87.4545 137.528 87.4545ZM154.105 87.2273C153.404 87.2273 152.803 86.9763 152.301 86.4744C151.799 85.9725 151.548 85.3712 151.548 84.6705C151.548 83.9697 151.799 83.3684 152.301 82.8665C152.803 82.3646 153.404 82.1136 154.105 82.1136C154.806 82.1136 155.407 82.3646 155.909 82.8665C156.411 83.3684 156.662 83.9697 156.662 84.6705C156.662 85.1345 156.544 85.5606 156.307 85.9489C156.08 86.3371 155.772 86.6496 155.384 86.8864C155.005 87.1136 154.579 87.2273 154.105 87.2273ZM154.105 71.0341C153.404 71.0341 152.803 70.7831 152.301 70.2812C151.799 69.7794 151.548 69.178 151.548 68.4773C151.548 67.7765 151.799 67.1752 152.301 66.6733C152.803 66.1714 153.404 65.9205 154.105 65.9205C154.806 65.9205 155.407 66.1714 155.909 66.6733C156.411 67.1752 156.662 67.7765 156.662 68.4773C156.662 68.9413 156.544 69.3674 156.307 69.7557C156.08 70.1439 155.772 70.4564 155.384 70.6932C155.005 70.9205 154.579 71.0341 154.105 71.0341Z" fill="white"/>
<rect x="366" y="365" width="136" height="136" rx="27" stroke="#DBDBDB" stroke-width="2"/>
<rect x="210" y="365" width="136" height="136" rx="27" stroke="#DBDBDB" stroke-width="2" stroke-dasharray="20 20"/>
<rect x="54" y="365" width="136" height="136" rx="27" stroke="#DBDBDB" stroke-width="2" stroke-dasharray="20 20"/>
<rect x="1" y="335" width="555" height="197" rx="27" stroke="#DBDBDB" stroke-width="2"/>
<path d="M415.718 449V419.909H425.548C427.83 419.909 429.695 420.321 431.144 421.145C432.603 421.959 433.682 423.062 434.383 424.455C435.084 425.847 435.434 427.4 435.434 429.114C435.434 430.828 435.084 432.385 434.383 433.787C433.692 435.188 432.621 436.306 431.173 437.139C429.724 437.963 427.868 438.375 425.604 438.375H418.559V435.25H425.491C427.053 435.25 428.308 434.98 429.255 434.44C430.202 433.901 430.888 433.171 431.315 432.253C431.75 431.325 431.968 430.278 431.968 429.114C431.968 427.949 431.75 426.907 431.315 425.989C430.888 425.07 430.197 424.35 429.241 423.83C428.284 423.299 427.015 423.034 425.434 423.034H419.241V449H415.718ZM440.597 449V446.443L450.2 435.932C451.326 434.701 452.254 433.631 452.984 432.722C453.713 431.803 454.253 430.941 454.603 430.136C454.963 429.322 455.143 428.47 455.143 427.58C455.143 426.557 454.897 425.671 454.404 424.923C453.921 424.175 453.258 423.598 452.415 423.19C451.573 422.783 450.626 422.58 449.575 422.58C448.457 422.58 447.482 422.812 446.648 423.276C445.825 423.73 445.185 424.369 444.731 425.193C444.286 426.017 444.063 426.983 444.063 428.091H440.711C440.711 426.386 441.104 424.89 441.89 423.602C442.676 422.314 443.746 421.311 445.1 420.591C446.464 419.871 447.993 419.511 449.688 419.511C451.393 419.511 452.903 419.871 454.219 420.591C455.536 421.311 456.568 422.281 457.316 423.503C458.064 424.724 458.438 426.083 458.438 427.58C458.438 428.65 458.244 429.696 457.856 430.719C457.477 431.732 456.814 432.864 455.867 434.114C454.93 435.354 453.628 436.869 451.961 438.659L445.427 445.648V445.875H458.95V449H440.597Z" fill="white"/>
<path d="M284.869 434.966V438.091H272.142V434.966H284.869Z" fill="white"/>
<path d="M129.869 434.966V438.091H117.142V434.966H129.869Z" fill="white"/>
<path d="M230.833 282.909H234.697L237.935 287.17L238.788 288.307L243.617 294.727H239.754L236.572 290.466L235.776 289.386L230.833 282.909ZM244.81 277.455C244.81 280.523 244.256 283.174 243.148 285.409C242.04 287.644 240.521 289.367 238.589 290.58C236.657 291.792 234.451 292.398 231.969 292.398C229.488 292.398 227.282 291.792 225.35 290.58C223.418 289.367 221.898 287.644 220.79 285.409C219.683 283.174 219.129 280.523 219.129 277.455C219.129 274.386 219.683 271.735 220.79 269.5C221.898 267.265 223.418 265.542 225.35 264.33C227.282 263.117 229.488 262.511 231.969 262.511C234.451 262.511 236.657 263.117 238.589 264.33C240.521 265.542 242.04 267.265 243.148 269.5C244.256 271.735 244.81 274.386 244.81 277.455ZM241.401 277.455C241.401 274.936 240.98 272.81 240.137 271.077C239.304 269.344 238.172 268.032 236.742 267.142C235.322 266.252 233.731 265.807 231.969 265.807C230.208 265.807 228.612 266.252 227.183 267.142C225.762 268.032 224.63 269.344 223.788 271.077C222.954 272.81 222.538 274.936 222.538 277.455C222.538 279.973 222.954 282.099 223.788 283.832C224.63 285.565 225.762 286.877 227.183 287.767C228.612 288.657 230.208 289.102 231.969 289.102C233.731 289.102 235.322 288.657 236.742 287.767C238.172 286.877 239.304 285.565 240.137 283.832C240.98 282.099 241.401 279.973 241.401 277.455ZM264.029 283.08V270.182H267.381V292H264.029V288.307H263.802C263.29 289.415 262.495 290.357 261.415 291.134C260.336 291.901 258.972 292.284 257.325 292.284C255.961 292.284 254.749 291.986 253.688 291.389C252.628 290.783 251.794 289.874 251.188 288.662C250.582 287.44 250.279 285.902 250.279 284.045V270.182H253.631V283.818C253.631 285.409 254.076 286.678 254.967 287.625C255.866 288.572 257.012 289.045 258.404 289.045C259.237 289.045 260.085 288.832 260.947 288.406C261.818 287.98 262.547 287.327 263.134 286.446C263.731 285.565 264.029 284.443 264.029 283.08ZM282.669 292.455C280.567 292.455 278.753 291.991 277.229 291.062C275.714 290.125 274.544 288.818 273.72 287.142C272.906 285.456 272.499 283.496 272.499 281.261C272.499 279.027 272.906 277.057 273.72 275.352C274.544 273.638 275.69 272.303 277.158 271.347C278.635 270.381 280.358 269.898 282.328 269.898C283.464 269.898 284.587 270.087 285.695 270.466C286.803 270.845 287.811 271.46 288.72 272.312C289.629 273.155 290.354 274.273 290.893 275.665C291.433 277.057 291.703 278.771 291.703 280.807V282.227H274.885V279.33H288.294C288.294 278.098 288.048 277 287.555 276.034C287.072 275.068 286.381 274.306 285.482 273.747C284.591 273.188 283.54 272.909 282.328 272.909C280.993 272.909 279.838 273.241 278.862 273.903C277.896 274.557 277.153 275.409 276.632 276.46C276.111 277.511 275.851 278.638 275.851 279.841V281.773C275.851 283.42 276.135 284.817 276.703 285.963C277.281 287.099 278.081 287.966 279.104 288.562C280.126 289.15 281.315 289.443 282.669 289.443C283.55 289.443 284.345 289.32 285.055 289.074C285.775 288.818 286.395 288.439 286.916 287.938C287.437 287.426 287.839 286.792 288.124 286.034L291.362 286.943C291.021 288.042 290.448 289.008 289.643 289.841C288.839 290.665 287.844 291.309 286.661 291.773C285.477 292.227 284.146 292.455 282.669 292.455ZM310.553 283.08V270.182H313.905V292H310.553V288.307H310.325C309.814 289.415 309.018 290.357 307.939 291.134C306.859 291.901 305.496 292.284 303.848 292.284C302.484 292.284 301.272 291.986 300.212 291.389C299.151 290.783 298.318 289.874 297.712 288.662C297.106 287.44 296.803 285.902 296.803 284.045V270.182H300.155V283.818C300.155 285.409 300.6 286.678 301.49 287.625C302.39 288.572 303.536 289.045 304.928 289.045C305.761 289.045 306.608 288.832 307.47 288.406C308.341 287.98 309.071 287.327 309.658 286.446C310.254 285.565 310.553 284.443 310.553 283.08ZM329.192 292.455C327.09 292.455 325.277 291.991 323.752 291.062C322.237 290.125 321.067 288.818 320.244 287.142C319.429 285.456 319.022 283.496 319.022 281.261C319.022 279.027 319.429 277.057 320.244 275.352C321.067 273.638 322.213 272.303 323.681 271.347C325.158 270.381 326.882 269.898 328.852 269.898C329.988 269.898 331.11 270.087 332.218 270.466C333.326 270.845 334.335 271.46 335.244 272.312C336.153 273.155 336.877 274.273 337.417 275.665C337.957 277.057 338.227 278.771 338.227 280.807V282.227H321.408V279.33H334.817C334.817 278.098 334.571 277 334.079 276.034C333.596 275.068 332.905 274.306 332.005 273.747C331.115 273.188 330.064 272.909 328.852 272.909C327.516 272.909 326.361 273.241 325.386 273.903C324.42 274.557 323.676 275.409 323.156 276.46C322.635 277.511 322.374 278.638 322.374 279.841V281.773C322.374 283.42 322.658 284.817 323.227 285.963C323.804 287.099 324.604 287.966 325.627 288.562C326.65 289.15 327.838 289.443 329.192 289.443C330.073 289.443 330.869 289.32 331.579 289.074C332.299 288.818 332.919 288.439 333.44 287.938C333.96 287.426 334.363 286.792 334.647 286.034L337.886 286.943C337.545 288.042 336.972 289.008 336.167 289.841C335.362 290.665 334.368 291.309 333.184 291.773C332 292.227 330.67 292.455 329.192 292.455Z" fill="white"/>
<path d="M1043.36 226H1039.84C1039.63 224.987 1039.27 224.097 1038.75 223.33C1038.23 222.562 1037.61 221.919 1036.87 221.398C1036.14 220.867 1035.33 220.47 1034.44 220.205C1033.55 219.939 1032.62 219.807 1031.66 219.807C1029.9 219.807 1028.3 220.252 1026.87 221.142C1025.45 222.032 1024.32 223.344 1023.48 225.077C1022.64 226.81 1022.23 228.936 1022.23 231.455C1022.23 233.973 1022.64 236.099 1023.48 237.832C1024.32 239.565 1025.45 240.877 1026.87 241.767C1028.3 242.657 1029.9 243.102 1031.66 243.102C1032.62 243.102 1033.55 242.97 1034.44 242.705C1035.33 242.439 1036.14 242.046 1036.87 241.526C1037.61 240.995 1038.23 240.347 1038.75 239.58C1039.27 238.803 1039.63 237.913 1039.84 236.909H1043.36C1043.1 238.396 1042.61 239.726 1041.91 240.901C1041.21 242.075 1040.34 243.074 1039.3 243.898C1038.26 244.712 1037.09 245.332 1035.79 245.759C1034.5 246.185 1033.12 246.398 1031.66 246.398C1029.18 246.398 1026.97 245.792 1025.04 244.58C1023.11 243.367 1021.59 241.644 1020.48 239.409C1019.37 237.174 1018.82 234.523 1018.82 231.455C1018.82 228.386 1019.37 225.735 1020.48 223.5C1021.59 221.265 1023.11 219.542 1025.04 218.33C1026.97 217.117 1029.18 216.511 1031.66 216.511C1033.12 216.511 1034.5 216.724 1035.79 217.151C1037.09 217.577 1038.26 218.202 1039.3 219.026C1040.34 219.84 1041.21 220.834 1041.91 222.009C1042.61 223.173 1043.1 224.504 1043.36 226ZM1049.05 246V216.909H1058.88C1061.17 216.909 1063.03 217.321 1064.48 218.145C1065.94 218.959 1067.02 220.062 1067.72 221.455C1068.42 222.847 1068.77 224.4 1068.77 226.114C1068.77 227.828 1068.42 229.385 1067.72 230.787C1067.03 232.188 1065.96 233.306 1064.51 234.139C1063.06 234.963 1061.2 235.375 1058.94 235.375H1051.89V232.25H1058.83C1060.39 232.25 1061.64 231.98 1062.59 231.44C1063.54 230.901 1064.22 230.171 1064.65 229.253C1065.09 228.325 1065.3 227.278 1065.3 226.114C1065.3 224.949 1065.09 223.907 1064.65 222.989C1064.22 222.07 1063.53 221.35 1062.58 220.83C1061.62 220.299 1060.35 220.034 1058.77 220.034H1052.58V246H1049.05ZM1093.54 216.909H1097.06V236.17C1097.06 238.159 1096.59 239.935 1095.65 241.497C1094.72 243.05 1093.41 244.277 1091.72 245.176C1090.02 246.066 1088.03 246.511 1085.75 246.511C1083.47 246.511 1081.48 246.066 1079.79 245.176C1078.09 244.277 1076.77 243.05 1075.84 241.497C1074.91 239.935 1074.44 238.159 1074.44 236.17V216.909H1077.97V235.886C1077.97 237.307 1078.28 238.571 1078.9 239.679C1079.53 240.777 1080.42 241.644 1081.58 242.278C1082.74 242.903 1084.13 243.216 1085.75 243.216C1087.37 243.216 1088.76 242.903 1089.93 242.278C1091.09 241.644 1091.98 240.777 1092.6 239.679C1093.22 238.571 1093.54 237.307 1093.54 235.886V216.909Z" fill="white"/>
<path d="M472.375 560.25L488.625 576.5L472.375 592.75" stroke="#DBDBDB" stroke-width="4" stroke-linecap="round" stroke-linejoin="round"/>
<line x1="67" y1="576.5" x2="486" y2="576.5" stroke="#DBDBDB" stroke-width="5"/>
<line x1="924" y1="409" x2="1193" y2="409" stroke="white" stroke-width="2"/>
<line x1="1083.5" y1="299.5" x2="1083.5" y2="568.5" stroke="white" stroke-width="2"/>
<line x1="924" y1="433" x2="1193" y2="433" stroke="white" stroke-width="2"/>
<line x1="1059.5" y1="299.5" x2="1059.5" y2="568.5" stroke="white" stroke-width="2"/>
<line x1="924" y1="457" x2="1193" y2="457" stroke="white" stroke-width="2"/>
<line x1="1035.5" y1="299.5" x2="1035.5" y2="568.5" stroke="white" stroke-width="2"/>
<rect x="961" y="336" width="196" height="196" rx="27" fill="#18181B" stroke="#DBDBDB" stroke-width="2"/>
<rect x="991" y="365" width="136" height="136" rx="27" stroke="#DBDBDB" stroke-width="2"/>
<path d="M1040.52 449V419.909H1050.35C1052.63 419.909 1054.5 420.321 1055.95 421.145C1057.41 421.959 1058.49 423.062 1059.19 424.455C1059.89 425.847 1060.24 427.4 1060.24 429.114C1060.24 430.828 1059.89 432.385 1059.19 433.787C1058.5 435.188 1057.43 436.306 1055.98 437.139C1054.53 437.963 1052.67 438.375 1050.41 438.375H1043.36V435.25H1050.3C1051.86 435.25 1053.11 434.98 1054.06 434.44C1055.01 433.901 1055.69 433.171 1056.12 432.253C1056.55 431.325 1056.77 430.278 1056.77 429.114C1056.77 427.949 1056.55 426.907 1056.12 425.989C1055.69 425.07 1055 424.35 1054.05 423.83C1053.09 423.299 1051.82 423.034 1050.24 423.034H1044.05V449H1040.52ZM1075.63 419.909V449H1072.11V423.602H1071.94L1064.83 428.318V424.739L1072.11 419.909H1075.63Z" fill="white"/>
</svg>
