<svg xmlns="http://www.w3.org/2000/svg" width="1199" height="1672" fill="none" viewBox="0 0 1199 1672"><rect width="213" height="77" x="1" y="129" stroke="#dbdbdb" stroke-width="2" rx="27"/><rect width="213" height="77" x="1" y="1192" stroke="#dbdbdb" stroke-width="2" rx="27"/><path fill="#fff" d="M68.666 177.034v-2.898l12.784-20.227h2.102v4.489h-1.42l-9.66 15.284v.227h17.216v3.125zM82.358 183v-29.091h3.352V183zm12.71 0v-21.818h3.238v3.409h.284q.682-1.747 2.202-2.713 1.52-.98 3.65-.98 2.16 0 3.594.98 1.45.966 2.258 2.713h.228q.838-1.69 2.514-2.685 1.675-1.008 4.02-1.008 2.926 0 4.787 1.832 1.86 1.818 1.861 5.668V183h-3.353v-14.602q0-2.415-1.321-3.452t-3.111-1.037q-2.3 0-3.565 1.392-1.264 1.378-1.264 3.494V183h-3.409v-14.943q0-1.862-1.208-2.997-1.206-1.15-3.11-1.151-1.308 0-2.444.696-1.122.696-1.818 1.932-.681 1.221-.681 2.827V183zm50.219-16.932-3.011.852a5.6 5.6 0 0 0-.838-1.463q-.54-.724-1.477-1.193t-2.401-.469q-2.003 0-3.338.924-1.321.91-1.321 2.315 0 1.25.909 1.975.909.723 2.841 1.207l3.239.795q2.925.71 4.36 2.174 1.435 1.449 1.435 3.735 0 1.875-1.079 3.353-1.066 1.477-2.983 2.329t-4.461.853q-3.338 0-5.525-1.449t-2.77-4.233l3.182-.796q.455 1.762 1.718 2.642 1.279.88 3.339.881 2.344 0 3.721-.994 1.392-1.01 1.392-2.415 0-1.137-.795-1.903-.796-.782-2.443-1.165l-3.637-.853q-2.997-.71-4.403-2.201-1.392-1.506-1.392-3.764 0-1.848 1.037-3.267 1.05-1.42 2.855-2.231 1.818-.809 4.119-.809 3.238 0 5.085 1.42 1.862 1.42 2.642 3.75M68.666 1240.03v-2.89l12.784-20.23h2.102v4.49h-1.42l-9.66 15.28v.23h17.216v3.12zm13.693 5.97v-29.09h3.352V1246zm12.71 0v-21.82h3.238v3.41h.284c.455-1.16 1.188-2.07 2.202-2.71 1.013-.66 2.23-.98 3.65-.98 1.44 0 2.637.32 3.594.98.966.64 1.719 1.55 2.258 2.71h.228c.558-1.13 1.397-2.02 2.514-2.68 1.117-.68 2.457-1.01 4.02-1.01q2.926 0 4.787 1.83 1.86 1.815 1.861 5.67v14.6h-3.353v-14.6q0-2.415-1.321-3.45c-.88-.7-1.917-1.04-3.111-1.04-1.534 0-2.722.46-3.565 1.39-.843.92-1.264 2.08-1.264 3.5v14.2h-3.409v-14.94q0-1.86-1.208-3c-.804-.77-1.841-1.15-3.11-1.15-.872 0-1.686.23-2.444.7-.748.46-1.354 1.1-1.818 1.93q-.681 1.215-.681 2.82V1246zm50.219-16.93-3.011.85a5.6 5.6 0 0 0-.838-1.46c-.36-.49-.852-.88-1.477-1.2-.625-.31-1.426-.46-2.401-.46-1.335 0-2.448.3-3.338.92-.881.6-1.321 1.38-1.321 2.31q0 1.26.909 1.98c.606.48 1.553.88 2.841 1.21l3.239.79c1.95.47 3.404 1.2 4.36 2.17s1.435 2.22 1.435 3.74c0 1.25-.36 2.37-1.079 3.35-.711.99-1.705 1.76-2.983 2.33s-2.766.85-4.461.85q-3.338 0-5.525-1.44c-1.459-.97-2.382-2.38-2.77-4.24l3.182-.79q.455 1.755 1.718 2.64c.853.59 1.965.88 3.339.88q2.344 0 3.721-.99c.928-.68 1.392-1.48 1.392-2.42 0-.76-.265-1.39-.795-1.9q-.796-.78-2.443-1.17l-3.637-.85c-1.998-.47-3.466-1.21-4.403-2.2-.928-1.01-1.392-2.26-1.392-3.77 0-1.23.345-2.32 1.037-3.26.7-.95 1.652-1.69 2.855-2.23q1.818-.81 4.119-.81c2.159 0 3.854.47 5.085 1.42q1.862 1.425 2.642 3.75M63.104 19H59.58q-.312-1.52-1.094-2.67a7.3 7.3 0 0 0-1.875-1.932 8 8 0 0 0-2.429-1.194 9.7 9.7 0 0 0-2.784-.397q-2.642 0-4.787 1.335-2.13 1.335-3.395 3.935-1.25 2.6-1.25 6.377 0 3.78 1.25 6.378 1.265 2.6 3.395 3.935 2.145 1.335 4.787 1.335 1.449 0 2.784-.397 1.335-.399 2.43-1.18a7.5 7.5 0 0 0 1.874-1.945q.782-1.166 1.094-2.67h3.523q-.397 2.229-1.45 3.99a10.9 10.9 0 0 1-2.613 2.998 11.5 11.5 0 0 1-3.508 1.86q-1.932.64-4.134.64-3.72 0-6.62-1.819-2.896-1.818-4.559-5.17-1.662-3.352-1.662-7.954T40.22 16.5t4.56-5.17q2.898-1.82 6.62-1.819 2.2 0 4.133.64a11.3 11.3 0 0 1 3.508 1.875 10.7 10.7 0 0 1 2.614 2.983q1.05 1.746 1.449 3.991m18.988 11.08V17.182h3.352V39h-3.352v-3.693h-.228q-.766 1.662-2.386 2.826-1.62 1.151-4.09 1.151-2.047 0-3.637-.895-1.59-.909-2.5-2.727-.91-1.832-.91-4.616V17.182h3.353v13.636q0 2.387 1.335 3.807 1.35 1.42 3.438 1.42 1.25 0 2.542-.639 1.306-.64 2.188-1.96.894-1.32.895-3.366M91.584 39V17.182h3.238v3.295h.228q.596-1.62 2.159-2.628t3.523-1.008q.37 0 .923.014.554.015.838.043v3.409a10 10 0 0 0-.781-.128 7.7 7.7 0 0 0-1.265-.1q-1.59 0-2.84.668a5.04 5.04 0 0 0-1.96 1.818q-.71 1.15-.71 2.628V39zm14.883 0V17.182h3.238v3.295h.228q.596-1.62 2.159-2.628t3.522-1.008q.37 0 .924.014.553.015.838.043v3.409a10 10 0 0 0-.782-.128 7.7 7.7 0 0 0-1.264-.1q-1.59 0-2.841.668a5.04 5.04 0 0 0-1.96 1.818q-.71 1.15-.71 2.628V39zm23.366.455q-3.154 0-5.44-1.392-2.273-1.407-3.509-3.921-1.221-2.529-1.221-5.88 0-3.353 1.221-5.91 1.236-2.571 3.438-4.005 2.215-1.45 5.17-1.45 1.705 0 3.367.569 1.662.568 3.025 1.846 1.364 1.264 2.174 3.353.809 2.088.809 5.142v1.42h-16.818V26.33h13.409q0-1.846-.739-3.295a5.56 5.56 0 0 0-2.073-2.287q-1.336-.838-3.154-.838-2.002 0-3.466.994a6.54 6.54 0 0 0-2.23 2.557 7.5 7.5 0 0 0-.781 3.38v1.933q0 2.472.852 4.19.867 1.704 2.401 2.6 1.534.88 3.565.88 1.321 0 2.386-.37a5.1 5.1 0 0 0 1.861-1.136q.782-.766 1.208-1.903l3.238.91a7.2 7.2 0 0 1-1.718 2.897q-1.208 1.236-2.983 1.932-1.776.681-3.992.681m17.486-13.58V39h-3.352V17.182h3.238v3.409h.284a6.23 6.23 0 0 1 2.33-2.67q1.563-1.023 4.034-1.023 2.216 0 3.878.909 1.662.895 2.585 2.727.923 1.818.923 4.602V39h-3.352V25.364q0-2.572-1.335-4.006-1.335-1.449-3.665-1.449-1.605 0-2.869.696-1.25.696-1.975 2.031-.724 1.335-.724 3.239m29.535-8.693v2.84h-11.307v-2.84zm-8.012-5.227h3.353V32.75q0 1.42.412 2.13.425.697 1.079.938.668.227 1.406.227.555 0 .909-.056l.569-.114.681 3.011q-.34.128-.951.256-.611.142-1.549.142a6.75 6.75 0 0 1-2.784-.61 5.54 5.54 0 0 1-2.244-1.861q-.88-1.25-.881-3.154zm-111.52 49.08v-3.126h21.819v3.125h-9.148V87H66.47V61.034zM84.122 87V65.182h3.353V87zm1.705-25.455a2.38 2.38 0 0 1-1.69-.667q-.696-.667-.696-1.605t.696-1.605a2.38 2.38 0 0 1 1.69-.668q.981 0 1.677.668.71.667.71 1.605t-.71 1.605a2.34 2.34 0 0 1-1.677.667M93.615 87V65.182h3.239v3.409h.284q.681-1.748 2.201-2.713 1.521-.98 3.651-.98 2.159 0 3.594.98 1.45.966 2.258 2.713h.228q.837-1.69 2.514-2.685 1.675-1.008 4.02-1.008 2.925 0 4.787 1.832 1.86 1.818 1.86 5.668V87h-3.352V72.398q0-2.415-1.321-3.452t-3.111-1.037q-2.3 0-3.565 1.392-1.264 1.378-1.264 3.495V87h-3.409V72.057q0-1.86-1.208-2.997-1.208-1.15-3.11-1.15-1.308 0-2.444.695-1.122.696-1.818 1.932-.681 1.221-.682 2.827V87zm43.913.454q-3.153 0-5.44-1.391-2.273-1.407-3.508-3.921-1.222-2.529-1.222-5.88 0-3.353 1.222-5.91 1.235-2.571 3.437-4.005 2.216-1.45 5.171-1.45 1.704 0 3.366.569 1.662.568 3.026 1.847 1.363 1.263 2.173 3.352t.809 5.142v1.42h-16.818V74.33h13.409q0-1.845-.738-3.295a5.56 5.56 0 0 0-2.074-2.287q-1.335-.838-3.153-.838-2.004 0-3.466.994a6.54 6.54 0 0 0-2.231 2.557 7.5 7.5 0 0 0-.781 3.38v1.933q0 2.471.852 4.19.867 1.704 2.401 2.6 1.534.88 3.565.88 1.322 0 2.387-.37a5.1 5.1 0 0 0 1.861-1.135q.78-.767 1.207-1.904l3.239.91a7.2 7.2 0 0 1-1.719 2.897q-1.207 1.236-2.983 1.932-1.775.681-3.992.681m16.577-.227a2.46 2.46 0 0 1-1.804-.753 2.46 2.46 0 0 1-.753-1.803q0-1.052.753-1.805a2.46 2.46 0 0 1 1.804-.752 2.46 2.46 0 0 1 1.804.752 2.46 2.46 0 0 1 .753 1.805q0 .695-.355 1.278-.34.582-.923.937-.568.341-1.279.341m0-16.193a2.46 2.46 0 0 1-1.804-.753 2.46 2.46 0 0 1-.753-1.804q0-1.05.753-1.804a2.46 2.46 0 0 1 1.804-.752q1.051 0 1.804.752a2.46 2.46 0 0 1 .753 1.804q0 .696-.355 1.279-.34.582-.923.937-.568.341-1.279.341M63.104 1082H59.58q-.312-1.515-1.094-2.67a7.2 7.2 0 0 0-1.875-1.93 8.1 8.1 0 0 0-2.429-1.2 9.9 9.9 0 0 0-2.784-.39c-1.761 0-3.357.44-4.787 1.33-1.42.89-2.552 2.2-3.395 3.94-.833 1.73-1.25 3.86-1.25 6.37 0 2.52.417 4.65 1.25 6.38.843 1.74 1.975 3.05 3.395 3.94 1.43.89 3.026 1.33 4.787 1.33.966 0 1.894-.13 2.784-.4q1.335-.39 2.43-1.17a7.45 7.45 0 0 0 2.968-4.62h3.523q-.397 2.235-1.45 3.99-1.05 1.755-2.613 3a11.6 11.6 0 0 1-3.508 1.86c-1.288.42-2.666.64-4.134.64-2.48 0-4.687-.61-6.62-1.82-1.931-1.21-3.45-2.94-4.559-5.17-1.108-2.24-1.662-4.89-1.662-7.96 0-3.06.554-5.72 1.662-7.95s2.628-3.96 4.56-5.17 4.138-1.82 6.62-1.82c1.467 0 2.845.21 4.133.64 1.297.43 2.466 1.05 3.508 1.88a10.6 10.6 0 0 1 2.614 2.98q1.05 1.74 1.449 3.99m18.988 11.08v-12.9h3.352V1102h-3.352v-3.69h-.228c-.511 1.1-1.306 2.05-2.386 2.82s-2.443 1.15-4.09 1.15c-1.365 0-2.577-.29-3.637-.89q-1.59-.915-2.5-2.73c-.606-1.22-.91-2.76-.91-4.61v-13.87h3.353v13.64c0 1.59.445 2.86 1.335 3.8.9.95 2.046 1.43 3.438 1.43.833 0 1.68-.22 2.542-.64.871-.43 1.6-1.08 2.188-1.96.596-.88.895-2.01.895-3.37m9.492 8.92v-21.82h3.238v3.3h.228c.397-1.08 1.117-1.96 2.159-2.63s2.216-1.01 3.523-1.01c.246 0 .554.01.923.02.369 0 .649.02.838.04v3.41c-.114-.03-.374-.07-.781-.13-.398-.07-.819-.1-1.265-.1-1.06 0-2.007.22-2.84.67a5 5 0 0 0-1.96 1.82c-.474.76-.71 1.64-.71 2.62V1102zm14.883 0v-21.82h3.238v3.3h.228c.397-1.08 1.117-1.96 2.159-2.63s2.216-1.01 3.522-1.01c.247 0 .554.01.924.02.369 0 .648.02.838.04v3.41c-.114-.03-.374-.07-.782-.13-.397-.07-.819-.1-1.264-.1-1.06 0-2.007.22-2.841.67a4.97 4.97 0 0 0-1.96 1.82c-.473.76-.71 1.64-.71 2.62V1102zm23.366.45c-2.102 0-3.916-.46-5.44-1.39-1.515-.94-2.685-2.24-3.509-3.92q-1.221-2.52-1.221-5.88 0-3.345 1.221-5.91c.824-1.71 1.97-3.05 3.438-4 1.477-.97 3.2-1.45 5.17-1.45q1.705 0 3.367.57c1.108.37 2.116.99 3.025 1.84s1.634 1.96 2.174 3.35c.539 1.4.809 3.11.809 5.15v1.42h-16.818v-2.9h13.409q0-1.845-.739-3.3a5.6 5.6 0 0 0-2.073-2.28q-1.336-.84-3.154-.84-2.002 0-3.466.99a6.6 6.6 0 0 0-2.23 2.56 7.5 7.5 0 0 0-.781 3.38v1.93c0 1.65.284 3.05.852 4.19.578 1.14 1.378 2.01 2.401 2.6s2.211.88 3.565.88c.881 0 1.676-.12 2.386-.37.72-.25 1.34-.63 1.861-1.13.521-.51.924-1.15 1.208-1.91l3.238.91a7.2 7.2 0 0 1-1.718 2.9c-.805.82-1.8 1.47-2.983 1.93s-2.515.68-3.992.68m17.486-13.57V1102h-3.352v-21.82h3.238v3.41h.284q.768-1.665 2.33-2.67 1.563-1.02 4.034-1.02c1.477 0 2.77.3 3.878.91 1.108.59 1.97 1.5 2.585 2.72.616 1.22.923 2.75.923 4.61V1102h-3.352v-13.64c0-1.71-.445-3.05-1.335-4-.89-.97-2.112-1.45-3.665-1.45-1.07 0-2.026.23-2.869.7-.834.46-1.492 1.14-1.975 2.03q-.724 1.335-.724 3.24m29.535-8.7v2.84h-11.307v-2.84zm-8.012-5.23h3.353v20.8q0 1.425.412 2.13c.284.46.643.78 1.079.94.445.15.914.23 1.406.23q.555 0 .909-.06c.237-.05.427-.09.569-.11l.681 3.01c-.227.08-.544.17-.951.25-.407.1-.924.14-1.549.14-.947 0-1.875-.2-2.784-.61q-1.348-.6-2.244-1.86-.88-1.245-.881-3.15zm-111.52 49.08v-3.12h21.819v3.12h-9.148V1150H66.47v-25.97zm26.8 25.97v-21.82h3.353V1150zm1.705-25.45c-.653 0-1.216-.23-1.69-.67-.464-.45-.696-.98-.696-1.61 0-.62.232-1.16.696-1.6a2.37 2.37 0 0 1 1.69-.67c.654 0 1.213.22 1.677.67.473.44.71.98.71 1.6 0 .63-.237 1.16-.71 1.61-.465.44-1.023.67-1.677.67m7.788 25.45v-21.82h3.239v3.41h.284c.454-1.16 1.188-2.07 2.201-2.71 1.014-.66 2.231-.98 3.651-.98 1.439 0 2.637.32 3.594.98.966.64 1.719 1.55 2.258 2.71h.228c.558-1.13 1.396-2.02 2.514-2.68 1.117-.68 2.457-1.01 4.02-1.01q2.925 0 4.787 1.83 1.86 1.815 1.86 5.67v14.6h-3.352v-14.6q0-2.415-1.321-3.45c-.881-.7-1.917-1.04-3.111-1.04-1.534 0-2.722.46-3.565 1.39-.843.92-1.264 2.08-1.264 3.5v14.2h-3.409v-14.94q0-1.86-1.208-3c-.805-.77-1.842-1.15-3.11-1.15-.872 0-1.686.23-2.444.7-.748.46-1.354 1.1-1.818 1.93q-.681 1.215-.682 2.82V1150zm43.913.45c-2.102 0-3.915-.46-5.44-1.39-1.515-.94-2.685-2.24-3.508-3.92q-1.222-2.52-1.222-5.88 0-3.345 1.222-5.91c.823-1.71 1.969-3.05 3.437-4 1.477-.97 3.201-1.45 5.171-1.45q1.704 0 3.366.57c1.108.37 2.116.99 3.026 1.84s1.633 1.96 2.173 3.35c.54 1.4.809 3.11.809 5.15v1.42h-16.818v-2.9h13.409q0-1.845-.738-3.3a5.6 5.6 0 0 0-2.074-2.28q-1.335-.84-3.153-.84-2.004 0-3.466.99a6.6 6.6 0 0 0-2.231 2.56 7.5 7.5 0 0 0-.781 3.38v1.93c0 1.65.284 3.05.852 4.19.578 1.14 1.378 2.01 2.401 2.6s2.211.88 3.565.88c.881 0 1.677-.12 2.387-.37.719-.25 1.34-.63 1.861-1.13.52-.51.923-1.15 1.207-1.91l3.239.91a7.16 7.16 0 0 1-1.719 2.9c-.805.82-1.799 1.47-2.983 1.93s-2.514.68-3.992.68m16.577-.22c-.701 0-1.302-.25-1.804-.76a2.45 2.45 0 0 1-.753-1.8q0-1.05.753-1.8a2.44 2.44 0 0 1 1.804-.76c.701 0 1.302.25 1.804.76q.753.75.753 1.8c0 .46-.118.89-.355 1.28-.227.39-.535.7-.923.94-.379.22-.805.34-1.279.34m0-16.2q-1.051 0-1.804-.75a2.45 2.45 0 0 1-.753-1.8c0-.7.251-1.3.753-1.81q.753-.75 1.804-.75t1.804.75c.502.51.753 1.11.753 1.81 0 .46-.118.89-.355 1.28-.227.38-.535.7-.923.93-.379.23-.805.34-1.279.34"/><rect width="136" height="136" x="367" y="365" stroke="#dbdbdb" stroke-width="2" rx="27"/><rect width="136" height="136" x="367" y="1428" stroke="#dbdbdb" stroke-width="2" rx="27"/><rect width="136" height="136" x="211" y="365" stroke="#dbdbdb" stroke-width="2" rx="27"/><rect width="136" height="136" x="211" y="1428" stroke="#dbdbdb" stroke-dasharray="20 20" stroke-width="2" rx="27"/><rect width="136" height="136" x="55" y="365" stroke="#dbdbdb" stroke-dasharray="20 20" stroke-width="2" rx="27"/><rect width="136" height="136" x="55" y="1428" stroke="#dbdbdb" stroke-dasharray="20 20" stroke-width="2" rx="27"/><rect width="556" height="197" x="1" y="335" stroke="#dbdbdb" stroke-width="2" rx="27"/><rect width="556" height="197" x="1" y="1398" stroke="#dbdbdb" stroke-width="2" rx="27"/><path fill="#fff" d="M416.523 449v-29.091h9.829q3.423 0 5.597 1.236 2.187 1.22 3.239 3.31 1.05 2.088 1.051 4.659t-1.051 4.673q-1.038 2.102-3.211 3.352-2.174 1.236-5.568 1.236h-7.045v-3.125h6.931q2.344 0 3.765-.81 1.42-.81 2.059-2.187.654-1.393.654-3.139 0-1.748-.654-3.125-.639-1.379-2.074-2.159-1.434-.796-3.806-.796h-6.194V449zm24.879 0v-2.557l9.602-10.511a67 67 0 0 0 2.784-3.21q1.094-1.378 1.62-2.586a6.25 6.25 0 0 0 .539-2.556q0-1.535-.738-2.657-.725-1.121-1.989-1.733-1.264-.61-2.841-.61-1.676 0-2.926.696a4.8 4.8 0 0 0-1.917 1.917q-.668 1.236-.668 2.898h-3.352q0-2.557 1.179-4.489a8.2 8.2 0 0 1 3.21-3.011q2.045-1.08 4.588-1.08 2.556 0 4.531 1.08t3.097 2.912 1.122 4.077q0 1.605-.582 3.139-.569 1.52-1.989 3.395-1.407 1.86-3.906 4.545l-6.534 6.989v.227h13.522V449zM412.523 1512v-29.09h9.829q3.423 0 5.597 1.23c1.458.82 2.538 1.92 3.239 3.31.7 1.4 1.051 2.95 1.051 4.66q0 2.58-1.051 4.68c-.692 1.4-1.762 2.52-3.211 3.35-1.449.82-3.305 1.24-5.568 1.24h-7.045v-3.13h6.931q2.344 0 3.765-.81 1.42-.81 2.059-2.19c.436-.93.654-1.97.654-3.14q0-1.74-.654-3.12-.639-1.38-2.074-2.16c-.956-.53-2.225-.8-3.806-.8h-6.194V1512zm34.709.4c-1.875 0-3.547-.32-5.015-.97-1.458-.64-2.618-1.54-3.48-2.68q-1.278-1.74-1.392-4.02h3.58q.112 1.395.966 2.43.852 1.005 2.23 1.56c.918.37 1.936.55 3.054.55 1.25 0 2.358-.22 3.324-.65.965-.44 1.723-1.04 2.272-1.82q.825-1.17.824-2.7 0-1.605-.795-2.82c-.531-.83-1.307-1.47-2.33-1.94q-1.535-.69-3.75-.69h-2.329v-3.13h2.329c1.155 0 2.169-.21 3.04-.62.881-.42 1.567-1.01 2.06-1.76q.752-1.14.752-2.67 0-1.485-.653-2.58a4.54 4.54 0 0 0-1.847-1.7c-.786-.41-1.714-.61-2.784-.61a7.3 7.3 0 0 0-2.841.55c-.88.36-1.6.89-2.159 1.58-.558.68-.861 1.51-.909 2.47h-3.409c.057-1.52.516-2.86 1.378-4q1.293-1.74 3.381-2.7c1.401-.65 2.94-.97 4.616-.97 1.799 0 3.343.37 4.631 1.1 1.288.71 2.277 1.67 2.969 2.85a7.47 7.47 0 0 1 1.037 3.84c0 1.63-.431 3.03-1.293 4.19q-1.278 1.725-3.48 2.4v.22c1.837.31 3.272 1.09 4.304 2.35 1.032 1.25 1.548 2.8 1.548 4.64q0 2.37-1.293 4.26c-.852 1.25-2.017 2.24-3.494 2.96q-2.216 1.08-5.042 1.08M257.523 449v-29.091h9.829q3.423 0 5.597 1.236 2.187 1.22 3.239 3.31 1.05 2.088 1.051 4.659t-1.051 4.673q-1.038 2.102-3.211 3.352-2.174 1.236-5.568 1.236h-7.045v-3.125h6.931q2.344 0 3.765-.81 1.42-.81 2.059-2.187.654-1.393.654-3.139 0-1.748-.654-3.125-.639-1.379-2.074-2.159-1.434-.796-3.806-.796h-6.194V449zm34.709.398q-2.813 0-5.015-.966-2.187-.966-3.48-2.685-1.278-1.733-1.392-4.02h3.58q.113 1.407.966 2.429.852 1.009 2.23 1.563 1.377.554 3.054.554 1.875 0 3.324-.654 1.448-.652 2.272-1.818.825-1.164.824-2.699 0-1.605-.795-2.826-.796-1.236-2.33-1.932t-3.75-.696h-2.329v-3.125h2.329q1.733 0 3.04-.625 1.321-.625 2.06-1.762.752-1.135.752-2.67 0-1.477-.653-2.571-.653-1.093-1.847-1.705-1.179-.61-2.784-.61-1.505 0-2.841.554-1.32.539-2.159 1.576-.837 1.023-.909 2.472h-3.409q.085-2.287 1.378-4.006 1.293-1.733 3.381-2.699 2.102-.966 4.616-.966 2.699 0 4.631 1.094 1.932 1.08 2.969 2.855a7.5 7.5 0 0 1 1.037 3.835q0 2.458-1.293 4.191-1.278 1.732-3.48 2.4v.228q2.756.454 4.304 2.343 1.548 1.876 1.548 4.645 0 2.372-1.293 4.262-1.278 1.874-3.494 2.954t-5.042 1.08M285.869 1497.97v3.12h-12.727v-3.12zM126.869 434.966v3.125h-12.727v-3.125zM126.869 1497.97v3.12h-12.727v-3.12zM230.833 282.909h3.864l3.238 4.261.853 1.137 4.829 6.42h-3.863l-3.182-4.261-.796-1.08zm13.977-5.454q0 4.602-1.662 7.954t-4.559 5.171q-2.898 1.818-6.62 1.818t-6.619-1.818q-2.898-1.819-4.56-5.171-1.66-3.352-1.661-7.954 0-4.603 1.661-7.955t4.56-5.17q2.898-1.82 6.619-1.819 3.722 0 6.62 1.819 2.897 1.818 4.559 5.17t1.662 7.955m-3.409 0q0-3.778-1.264-6.378-1.25-2.6-3.395-3.935-2.13-1.335-4.773-1.335t-4.786 1.335q-2.132 1.335-3.395 3.935-1.25 2.6-1.25 6.378t1.25 6.377q1.263 2.6 3.395 3.935 2.144 1.335 4.786 1.335 2.643 0 4.773-1.335 2.145-1.335 3.395-3.935 1.264-2.6 1.264-6.377m22.628 5.625v-12.898h3.352V292h-3.352v-3.693h-.227q-.768 1.662-2.387 2.827-1.619 1.15-4.09 1.15-2.046 0-3.637-.895-1.59-.909-2.5-2.727-.909-1.832-.909-4.617v-13.863h3.352v13.636q0 2.387 1.336 3.807 1.349 1.42 3.437 1.42 1.25 0 2.543-.639 1.307-.639 2.187-1.96.895-1.321.895-3.366m18.64 9.375q-3.154 0-5.44-1.393-2.273-1.406-3.509-3.92-1.221-2.529-1.221-5.881 0-3.351 1.221-5.909 1.236-2.571 3.438-4.005 2.215-1.449 5.17-1.449 1.705 0 3.367.568t3.025 1.846q1.364 1.265 2.173 3.353.81 2.088.81 5.142v1.42h-16.818v-2.897h13.409q0-1.848-.739-3.296a5.57 5.57 0 0 0-2.073-2.287q-1.336-.838-3.154-.838-2.002 0-3.466.994a6.55 6.55 0 0 0-2.23 2.557 7.5 7.5 0 0 0-.781 3.381v1.932q0 2.47.852 4.19.867 1.704 2.401 2.599 1.533.881 3.565.881 1.321 0 2.386-.369a5.1 5.1 0 0 0 1.861-1.136q.781-.767 1.208-1.904l3.238.909a7.2 7.2 0 0 1-1.719 2.898q-1.207 1.236-2.982 1.932-1.776.682-3.992.682m27.884-9.375v-12.898h3.352V292h-3.352v-3.693h-.228q-.767 1.662-2.386 2.827-1.62 1.15-4.091 1.15-2.046 0-3.636-.895-1.591-.909-2.5-2.727-.909-1.832-.909-4.617v-13.863h3.352v13.636q0 2.387 1.335 3.807 1.35 1.42 3.438 1.42 1.25 0 2.542-.639 1.307-.639 2.188-1.96.894-1.321.895-3.366m18.639 9.375q-3.153 0-5.44-1.393-2.273-1.406-3.508-3.92-1.222-2.529-1.222-5.881 0-3.351 1.222-5.909 1.235-2.571 3.437-4.005 2.216-1.449 5.171-1.449 1.704 0 3.366.568t3.026 1.846q1.363 1.265 2.173 3.353t.81 5.142v1.42h-16.819v-2.897h13.409q0-1.848-.738-3.296a5.57 5.57 0 0 0-2.074-2.287q-1.335-.838-3.153-.838-2.004 0-3.466.994a6.54 6.54 0 0 0-2.23 2.557 7.5 7.5 0 0 0-.782 3.381v1.932q0 2.47.853 4.19.865 1.704 2.4 2.599 1.534.881 3.565.881 1.322 0 2.387-.369a5.1 5.1 0 0 0 1.861-1.136q.78-.767 1.207-1.904l3.239.909a7.2 7.2 0 0 1-1.719 2.898q-1.207 1.236-2.983 1.932-1.776.682-3.992.682M230.833 1345.91h3.864l3.238 4.26.853 1.14 4.829 6.42h-3.863l-3.182-4.26-.796-1.08zm13.977-5.46c0 3.07-.554 5.72-1.662 7.96-1.108 2.23-2.627 3.96-4.559 5.17s-4.138 1.82-6.62 1.82c-2.481 0-4.687-.61-6.619-1.82s-3.452-2.94-4.56-5.17c-1.107-2.24-1.661-4.89-1.661-7.96 0-3.06.554-5.72 1.661-7.95 1.108-2.23 2.628-3.96 4.56-5.17s4.138-1.82 6.619-1.82c2.482 0 4.688.61 6.62 1.82s3.451 2.94 4.559 5.17 1.662 4.89 1.662 7.95m-3.409 0c0-2.51-.421-4.64-1.264-6.37-.833-1.74-1.965-3.05-3.395-3.94-1.42-.89-3.011-1.33-4.773-1.33s-3.357.44-4.786 1.33c-1.421.89-2.553 2.2-3.395 3.94-.834 1.73-1.25 3.86-1.25 6.37 0 2.52.416 4.65 1.25 6.38.842 1.74 1.974 3.05 3.395 3.94 1.429.89 3.025 1.33 4.786 1.33 1.762 0 3.353-.44 4.773-1.33 1.43-.89 2.562-2.2 3.395-3.94.843-1.73 1.264-3.86 1.264-6.38m22.628 5.63v-12.9h3.352V1355h-3.352v-3.69h-.227c-.512 1.1-1.307 2.05-2.387 2.82-1.079.77-2.443 1.15-4.09 1.15-1.364 0-2.576-.29-3.637-.89q-1.59-.915-2.5-2.73c-.606-1.22-.909-2.76-.909-4.61v-13.87h3.352v13.64c0 1.59.445 2.86 1.336 3.8.899.95 2.045 1.43 3.437 1.43.833 0 1.681-.22 2.543-.64.871-.43 1.6-1.08 2.187-1.96.597-.88.895-2.01.895-3.37m18.64 9.37c-2.102 0-3.916-.46-5.44-1.39-1.515-.94-2.685-2.24-3.509-3.92q-1.221-2.52-1.221-5.88 0-3.345 1.221-5.91c.824-1.71 1.97-3.05 3.438-4 1.477-.97 3.2-1.45 5.17-1.45q1.705 0 3.367.57c1.108.37 2.116.99 3.025 1.84s1.634 1.96 2.173 3.35c.54 1.4.81 3.11.81 5.15v1.42h-16.818v-2.9h13.409q0-1.845-.739-3.3a5.6 5.6 0 0 0-2.073-2.28q-1.336-.84-3.154-.84-2.002 0-3.466.99a6.6 6.6 0 0 0-2.23 2.56 7.5 7.5 0 0 0-.781 3.38v1.93c0 1.65.284 3.05.852 4.19.578 1.14 1.378 2.01 2.401 2.6s2.211.88 3.565.88c.881 0 1.676-.12 2.386-.37.72-.25 1.34-.63 1.861-1.13.521-.51.923-1.15 1.208-1.91l3.238.91a7.16 7.16 0 0 1-1.719 2.9c-.804.82-1.799 1.47-2.982 1.93s-2.515.68-3.992.68m27.884-9.37v-12.9h3.352V1355h-3.352v-3.69h-.228c-.511 1.1-1.307 2.05-2.386 2.82s-2.443 1.15-4.091 1.15c-1.364 0-2.576-.29-3.636-.89q-1.591-.915-2.5-2.73c-.606-1.22-.909-2.76-.909-4.61v-13.87h3.352v13.64c0 1.59.445 2.86 1.335 3.8.9.95 2.046 1.43 3.438 1.43.833 0 1.68-.22 2.542-.64.871-.43 1.601-1.08 2.188-1.96.596-.88.895-2.01.895-3.37m18.639 9.37c-2.102 0-3.915-.46-5.44-1.39-1.515-.94-2.685-2.24-3.508-3.92q-1.222-2.52-1.222-5.88 0-3.345 1.222-5.91c.823-1.71 1.969-3.05 3.437-4 1.477-.97 3.201-1.45 5.171-1.45q1.704 0 3.366.57c1.108.37 2.117.99 3.026 1.84s1.633 1.96 2.173 3.35c.54 1.4.81 3.11.81 5.15v1.42h-16.819v-2.9h13.409q0-1.845-.738-3.3a5.6 5.6 0 0 0-2.074-2.28q-1.335-.84-3.153-.84-2.004 0-3.466.99a6.6 6.6 0 0 0-2.23 2.56 7.5 7.5 0 0 0-.782 3.38v1.93c0 1.65.284 3.05.853 4.19.577 1.14 1.377 2.01 2.4 2.6s2.211.88 3.565.88c.881 0 1.677-.12 2.387-.37.72-.25 1.34-.63 1.861-1.13.52-.51.923-1.15 1.207-1.91l3.239.91a7.16 7.16 0 0 1-1.719 2.9c-.805.82-1.799 1.47-2.983 1.93s-2.514.68-3.992.68M1049.36 226h-3.52c-.21-1.013-.57-1.903-1.09-2.67a7.4 7.4 0 0 0-1.88-1.932 8 8 0 0 0-2.43-1.193 9.7 9.7 0 0 0-2.78-.398c-1.76 0-3.36.445-4.79 1.335q-2.13 1.335-3.39 3.935c-.84 1.733-1.25 3.859-1.25 6.378 0 2.518.41 4.644 1.25 6.377q1.26 2.6 3.39 3.935c1.43.89 3.03 1.335 4.79 1.335.96 0 1.89-.132 2.78-.397q1.335-.399 2.43-1.179a7.6 7.6 0 0 0 1.88-1.946c.52-.777.88-1.667 1.09-2.671h3.52c-.26 1.487-.75 2.817-1.45 3.992a10.9 10.9 0 0 1-2.61 2.997 11.4 11.4 0 0 1-3.51 1.861c-1.29.426-2.67.639-4.13.639-2.48 0-4.69-.606-6.62-1.818q-2.895-1.819-4.56-5.171c-1.11-2.235-1.66-4.886-1.66-7.954 0-3.069.55-5.72 1.66-7.955q1.665-3.352 4.56-5.17c1.93-1.213 4.14-1.819 6.62-1.819 1.46 0 2.84.213 4.13.64q1.95.639 3.51 1.875 1.56 1.22 2.61 2.983c.7 1.164 1.19 2.495 1.45 3.991m5.69 20v-29.091h9.83c2.29 0 4.15.412 5.6 1.236q2.19 1.22 3.24 3.31 1.05 2.088 1.05 4.659t-1.05 4.673q-1.035 2.102-3.21 3.352c-1.45.824-3.31 1.236-5.57 1.236h-7.05v-3.125h6.94c1.56 0 2.81-.27 3.76-.81.95-.539 1.63-1.269 2.06-2.187.44-.928.65-1.975.65-3.139 0-1.165-.21-2.207-.65-3.125q-.645-1.379-2.07-2.159-1.44-.796-3.81-.796h-6.19V246zm44.49-29.091h3.52v19.261q0 2.984-1.41 5.327-1.395 2.33-3.93 3.679-2.55 1.335-5.97 1.335c-2.28 0-4.27-.445-5.96-1.335-1.7-.899-3.02-2.126-3.95-3.679-.93-1.562-1.4-3.338-1.4-5.327v-19.261h3.53v18.977q0 2.131.93 3.793c.63 1.098 1.52 1.965 2.68 2.599q1.74.938 4.17.938c1.62 0 3.01-.313 4.18-.938q1.74-.952 2.67-2.599c.62-1.108.94-2.372.94-3.793zM1049.36 1289h-3.52c-.21-1.01-.57-1.9-1.09-2.67a7.4 7.4 0 0 0-1.88-1.93q-1.095-.795-2.43-1.2a9.9 9.9 0 0 0-2.78-.39c-1.76 0-3.36.44-4.79 1.33-1.42.89-2.55 2.2-3.39 3.94-.84 1.73-1.25 3.86-1.25 6.37 0 2.52.41 4.65 1.25 6.38.84 1.74 1.97 3.05 3.39 3.94 1.43.89 3.03 1.33 4.79 1.33.96 0 1.89-.13 2.78-.4q1.335-.39 2.43-1.17c.74-.53 1.36-1.18 1.88-1.95.52-.78.88-1.67 1.09-2.67h3.52c-.26 1.49-.75 2.82-1.45 3.99q-1.05 1.755-2.61 3-1.56 1.215-3.51 1.86c-1.29.42-2.67.64-4.13.64-2.48 0-4.69-.61-6.62-1.82s-3.45-2.94-4.56-5.17c-1.11-2.24-1.66-4.89-1.66-7.96 0-3.06.55-5.72 1.66-7.95s2.63-3.96 4.56-5.17 4.14-1.82 6.62-1.82c1.46 0 2.84.21 4.13.64 1.3.43 2.47 1.05 3.51 1.88 1.04.81 1.91 1.8 2.61 2.98.7 1.16 1.19 2.49 1.45 3.99m5.69 20v-29.09h9.83c2.29 0 4.15.41 5.6 1.23 1.46.82 2.54 1.92 3.24 3.31.7 1.4 1.05 2.95 1.05 4.66q0 2.58-1.05 4.68c-.69 1.4-1.76 2.52-3.21 3.35-1.45.82-3.31 1.24-5.57 1.24h-7.05v-3.13h6.94c1.56 0 2.81-.27 3.76-.81s1.63-1.27 2.06-2.19c.44-.93.65-1.97.65-3.14 0-1.16-.21-2.2-.65-3.12q-.645-1.38-2.07-2.16c-.96-.53-2.23-.8-3.81-.8h-6.19V1309zm44.49-29.09h3.52v19.26c0 1.99-.47 3.76-1.41 5.33-.93 1.55-2.24 2.78-3.93 3.68-1.7.89-3.69 1.33-5.97 1.33s-4.27-.44-5.96-1.33c-1.7-.9-3.02-2.13-3.95-3.68-.93-1.57-1.4-3.34-1.4-5.33v-19.26h3.53v18.98c0 1.42.31 2.68.93 3.79.63 1.1 1.52 1.96 2.68 2.6 1.16.62 2.55.94 4.17.94s3.01-.32 4.18-.94c1.16-.64 2.05-1.5 2.67-2.6.62-1.11.94-2.37.94-3.79z"/><path stroke="#dbdbdb" stroke-linecap="round" stroke-linejoin="round" stroke-width="4" d="m473.375 560.25 16.25 16.25-16.25 16.25M473.375 1623.25l16.25 16.25-16.25 16.25"/><path stroke="#dbdbdb" stroke-width="5" d="M76 576.5h411"/><path fill="#dbdbdb" d="M985.232 711.232a2.5 2.5 0 0 0 0 3.536l15.908 15.91c.98.976 2.56.976 3.54 0 .97-.977.97-2.56 0-3.536L990.536 713l14.144-14.142c.97-.976.97-2.559 0-3.536a2.506 2.506 0 0 0-3.54 0zM1067.5 713v2.5h2.5V713zm0-104h-2.5v104h5V609zm0 104v-2.5H987v5h80.5z"/><path stroke="#dbdbdb" stroke-width="5" d="M76 1639.5h411"/><path stroke="#fff" stroke-width="2" d="M930 409h269M930 1472h269M1089.5 299.5v269M1089.5 1362.5v269M930 433h269M930 1496h269M1065.5 299.5v269M1065.5 1362.5v269M930 457h269M930 1520h269M1041.5 299.5v269M1041.5 1362.5v269"/><rect width="196" height="196" x="967" y="336" fill="#18181b" stroke="#dbdbdb" stroke-width="2" rx="27"/><rect width="196" height="196" x="967" y="1399" fill="#18181b" stroke="#dbdbdb" stroke-width="2" rx="27"/><path fill="#fff" d="M1008.6 449v-29.091h17.56v3.125h-14.04v9.83h13.13v3.125h-13.13v9.886h14.26V449zm23.45 0v-21.818h3.24v3.409h.29c.45-1.165 1.18-2.069 2.2-2.713 1.01-.654 2.23-.98 3.65-.98 1.44 0 2.63.326 3.59.98.97.644 1.72 1.548 2.26 2.713h.23a6.34 6.34 0 0 1 2.51-2.685q1.68-1.008 4.02-1.008c1.95 0 3.55.611 4.79 1.832q1.86 1.818 1.86 5.668V449h-3.35v-14.602q0-2.415-1.32-3.452c-.89-.691-1.92-1.037-3.12-1.037-1.53 0-2.72.464-3.56 1.392q-1.26 1.378-1.26 3.494V449h-3.41v-14.943c0-1.241-.41-2.24-1.21-2.997-.81-.767-1.84-1.151-3.11-1.151-.87 0-1.69.232-2.45.696a5.27 5.27 0 0 0-1.81 1.932q-.69 1.221-.69 2.827V449zm34.77 8.182v-30h3.24v3.466h.39c.25-.379.59-.862 1.03-1.449.44-.597 1.08-1.127 1.9-1.591.83-.474 1.96-.71 3.38-.71q2.76 0 4.86 1.378c1.4.918 2.49 2.22 3.28 3.906s1.18 3.674 1.18 5.966c0 2.31-.39 4.313-1.18 6.008-.79 1.686-1.87 2.993-3.27 3.921-1.39.918-2.99 1.378-4.81 1.378-1.4 0-2.53-.232-3.37-.696-.84-.474-1.49-1.009-1.94-1.606a22 22 0 0 1-1.06-1.505h-.28v11.534zm3.29-19.091c0 1.648.25 3.101.73 4.361.48 1.25 1.19 2.23 2.11 2.94.93.701 2.07 1.051 3.41 1.051 1.41 0 2.57-.369 3.51-1.108q1.425-1.122 2.13-3.011c.49-1.269.73-2.68.73-4.233 0-1.534-.24-2.917-.71-4.148-.47-1.24-1.17-2.22-2.12-2.94q-1.41-1.094-3.54-1.094c-1.36 0-2.51.346-3.43 1.037-.93.682-1.63 1.638-2.11 2.869-.47 1.222-.71 2.647-.71 4.276m30.57-10.909v2.841h-11.3v-2.841zm-8.01-5.227h3.35v20.795c0 .947.14 1.657.41 2.131q.435.696 1.08.937.675.227 1.41.227c.37 0 .67-.018.91-.056l.57-.114.68 3.011c-.23.086-.54.171-.95.256-.41.095-.93.142-1.55.142-.95 0-1.88-.204-2.78-.611a5.56 5.56 0 0 1-2.25-1.861c-.59-.833-.88-1.884-.88-3.153zm15.21 35.227c-.56 0-1.07-.048-1.52-.142-.44-.085-.75-.171-.92-.256l.85-2.954q1.23.312 2.16.227c.63-.057 1.18-.336 1.66-.838q.75-.74 1.35-2.401l.63-1.704-8.07-21.932h3.64l6.02 17.386h.23l6.02-17.386h3.64l-9.27 25c-.41 1.127-.93 2.059-1.54 2.798-.62.748-1.33 1.302-2.15 1.662q-1.2.54-2.73.54M1043.72 1512v-29.09h9.83c2.28 0 4.15.41 5.59 1.23 1.46.82 2.54 1.92 3.24 3.31.7 1.4 1.05 2.95 1.05 4.66q0 2.58-1.05 4.68c-.69 1.4-1.76 2.52-3.21 3.35-1.45.82-3.3 1.24-5.57 1.24h-7.04v-3.13h6.93c1.56 0 2.82-.27 3.76-.81.95-.54 1.64-1.27 2.06-2.19.44-.93.66-1.97.66-3.14q0-1.74-.66-3.12-.63-1.38-2.07-2.16c-.96-.53-2.22-.8-3.81-.8h-6.19V1512zm24.88 0v-2.56l9.6-10.51c1.13-1.23 2.05-2.3 2.78-3.21q1.095-1.38 1.62-2.58c.36-.82.54-1.67.54-2.56 0-1.02-.24-1.91-.74-2.66a4.84 4.84 0 0 0-1.98-1.73c-.85-.41-1.79-.61-2.85-.61-1.11 0-2.09.23-2.92.7a4.77 4.77 0 0 0-1.92 1.91c-.44.83-.67 1.79-.67 2.9h-3.35c0-1.7.39-3.2 1.18-4.49a8.23 8.23 0 0 1 3.21-3.01q2.04-1.08 4.59-1.08t4.53 1.08c1.32.72 2.35 1.69 3.1 2.91.74 1.22 1.12 2.58 1.12 4.08 0 1.07-.2 2.12-.58 3.14-.38 1.01-1.05 2.14-1.99 3.39-.94 1.24-2.24 2.76-3.91 4.55l-6.53 6.99v.23h13.52v3.12zM870.531 725v-29.091h9.829q3.423 0 5.597 1.236 2.188 1.22 3.238 3.31 1.051 2.088 1.051 4.659t-1.051 4.673q-1.037 2.102-3.21 3.352-2.173 1.236-5.568 1.236h-7.046v-3.125h6.932q2.345 0 3.764-.81 1.42-.81 2.06-2.187.654-1.393.654-3.139 0-1.748-.654-3.125-.639-1.379-2.074-2.159-1.434-.796-3.807-.796h-6.193V725zm35.106-29.091V725h-3.523v-25.398h-.17l-7.102 4.716v-3.579l7.272-4.83zM642.952 828v-29.091h9.83q3.423 0 5.597 1.236 2.187 1.22 3.238 3.31 1.051 2.088 1.051 4.659t-1.051 4.673q-1.036 2.102-3.21 3.352-2.173 1.236-5.568 1.236h-7.046v-3.125h6.932q2.344 0 3.764-.81t2.06-2.187q.654-1.393.653-3.139 0-1.748-.653-3.125-.639-1.379-2.074-2.159-1.434-.796-3.807-.796h-6.193V828zm35.107-29.091V828h-3.523v-25.398h-.17l-7.103 4.716v-3.579l7.273-4.83zm29.389 7.273v2.841h-11.761v-2.841zM699.21 828v-24.83q0-1.875.88-3.125a5.47 5.47 0 0 1 2.287-1.875 7.2 7.2 0 0 1 2.969-.625q1.236 0 2.017.199.781.2 1.165.37l-.966 2.897a20 20 0 0 0-.71-.213q-.44-.128-1.165-.128-1.662 0-2.401.839-.724.837-.724 2.457V828zm12.936 0v-21.818h3.353V828zm1.705-25.455a2.38 2.38 0 0 1-1.69-.667q-.697-.668-.697-1.605 0-.938.697-1.605a2.38 2.38 0 0 1 1.69-.668q.98 0 1.676.668.71.667.71 1.605t-.71 1.605a2.34 2.34 0 0 1-1.676.667m11.14 12.33V828h-3.353v-21.818h3.239v3.409h.284a6.24 6.24 0 0 1 2.33-2.671q1.562-1.022 4.034-1.022 2.216 0 3.878.909 1.661.894 2.585 2.727.923 1.818.923 4.602V828h-3.352v-13.636q0-2.572-1.335-4.006-1.335-1.449-3.665-1.449-1.606 0-2.869.696-1.25.696-1.975 2.031-.724 1.336-.724 3.239M745.037 828v-21.818h3.352V828zm1.704-25.455a2.38 2.38 0 0 1-1.69-.667q-.696-.668-.696-1.605 0-.938.696-1.605a2.38 2.38 0 0 1 1.69-.668q.981 0 1.677.668.71.667.71 1.605t-.71 1.605a2.34 2.34 0 0 1-1.677.667m23.243 8.523-3.012.852a5.6 5.6 0 0 0-.838-1.463q-.54-.724-1.477-1.193t-2.401-.469q-2.003 0-3.338.924-1.32.91-1.321 2.315 0 1.25.909 1.975.909.723 2.841 1.207l3.239.795q2.926.71 4.361 2.174 1.434 1.449 1.434 3.735 0 1.875-1.079 3.353-1.066 1.477-2.983 2.329t-4.46.853q-3.339 0-5.526-1.449t-2.77-4.233l3.182-.796q.455 1.762 1.719 2.642 1.278.88 3.338.881 2.343 0 3.721-.994 1.392-1.01 1.392-2.415 0-1.137-.795-1.903-.796-.782-2.443-1.165l-3.637-.853q-2.996-.71-4.403-2.201-1.392-1.506-1.392-3.764 0-1.848 1.037-3.267 1.051-1.42 2.855-2.231 1.818-.809 4.119-.809 3.239 0 5.086 1.42 1.86 1.42 2.642 3.75m8.796 3.807V828h-3.352v-29.091h3.352v10.682h.284a6.16 6.16 0 0 1 2.301-2.685q1.548-1.008 4.119-1.008 2.23 0 3.907.895 1.676.88 2.599 2.713.938 1.818.938 4.63V828h-3.353v-13.636q0-2.6-1.349-4.02-1.335-1.435-3.708-1.435-1.647 0-2.954.696-1.293.696-2.046 2.031-.738 1.336-.738 3.239m29.428 13.58q-3.154 0-5.44-1.393-2.273-1.406-3.509-3.92-1.221-2.529-1.221-5.881 0-3.351 1.221-5.909 1.236-2.571 3.438-4.005 2.215-1.449 5.17-1.449 1.705 0 3.367.568t3.025 1.846q1.364 1.265 2.174 3.353t.809 5.142v1.42h-16.818v-2.897h13.409q0-1.847-.739-3.296a5.56 5.56 0 0 0-2.073-2.287q-1.336-.838-3.154-.838-2.002 0-3.466.994a6.55 6.55 0 0 0-2.23 2.557 7.5 7.5 0 0 0-.781 3.381v1.932q0 2.47.852 4.19.867 1.705 2.401 2.599 1.534.881 3.565.881 1.321 0 2.386-.369a5.1 5.1 0 0 0 1.861-1.136q.782-.767 1.208-1.904l3.238.909a7.2 7.2 0 0 1-1.718 2.898q-1.208 1.236-2.983 1.932-1.776.682-3.992.682m29.588-17.387-3.011.852a5.6 5.6 0 0 0-.838-1.463q-.54-.724-1.478-1.193t-2.4-.469q-2.003 0-3.338.924-1.321.91-1.321 2.315 0 1.25.909 1.975.909.723 2.841 1.207l3.238.795q2.927.71 4.361 2.174 1.435 1.449 1.435 3.735 0 1.875-1.08 3.353-1.065 1.477-2.983 2.329-1.917.852-4.46.853-3.338 0-5.525-1.449t-2.77-4.233l3.182-.796q.454 1.762 1.718 2.642 1.279.88 3.338.881 2.344 0 3.722-.994 1.392-1.01 1.392-2.415 0-1.137-.795-1.903-.796-.782-2.444-1.165l-3.636-.853q-2.997-.71-4.403-2.201-1.392-1.506-1.392-3.764 0-1.848 1.036-3.267 1.052-1.42 2.856-2.231 1.818-.809 4.119-.809 3.239 0 5.085 1.42 1.861 1.42 2.642 3.75m25.842 17.387q-3.153 0-5.441-1.393-2.272-1.406-3.508-3.92-1.221-2.529-1.222-5.881 0-3.351 1.222-5.909 1.236-2.571 3.437-4.005 2.216-1.449 5.171-1.449 1.704 0 3.366.568t3.026 1.846q1.363 1.265 2.173 3.353t.81 5.142v1.42h-16.818v-2.897h13.409q0-1.847-.739-3.296a5.57 5.57 0 0 0-2.074-2.287q-1.335-.838-3.153-.838-2.003 0-3.466.994a6.55 6.55 0 0 0-2.23 2.557 7.5 7.5 0 0 0-.781 3.381v1.932q0 2.47.852 4.19.867 1.705 2.4 2.599 1.535.881 3.566.881 1.32 0 2.386-.369a5.1 5.1 0 0 0 1.861-1.136q.781-.767 1.207-1.904l3.239.909a7.2 7.2 0 0 1-1.719 2.898q-1.207 1.236-2.983 1.932-1.775.682-3.991.682m16.047-22.273 5.228 8.92 5.227-8.92h3.864l-7.046 10.909L894.004 828h-3.864l-5.227-8.466-5.228 8.466h-3.863l6.932-10.909-6.932-10.909zm27.351 22.273q-3.153 0-5.44-1.393-2.273-1.406-3.509-3.92-1.221-2.529-1.221-5.881 0-3.351 1.221-5.909 1.236-2.571 3.438-4.005 2.216-1.449 5.17-1.449 1.705 0 3.367.568t3.025 1.846q1.364 1.265 2.174 3.353t.809 5.142v1.42h-16.818v-2.897h13.409q0-1.847-.738-3.296a5.57 5.57 0 0 0-2.074-2.287q-1.336-.838-3.154-.838-2.002 0-3.466.994a6.55 6.55 0 0 0-2.23 2.557 7.5 7.5 0 0 0-.781 3.381v1.932q0 2.47.852 4.19.867 1.705 2.401 2.599 1.534.881 3.565.881 1.321 0 2.387-.369a5.1 5.1 0 0 0 1.86-1.136q.782-.767 1.208-1.904l3.238.909a7.2 7.2 0 0 1-1.718 2.898q-1.208 1.236-2.983 1.932-1.776.682-3.992.682m22.997 0q-3.067 0-5.284-1.449-2.215-1.45-3.409-3.992t-1.193-5.809q0-3.324 1.222-5.867 1.235-2.556 3.437-3.991 2.216-1.449 5.171-1.449 2.3 0 4.147.852t3.026 2.386q1.18 1.534 1.463 3.58h-3.352q-.384-1.491-1.705-2.642-1.306-1.165-3.523-1.165-1.96 0-3.437 1.023-1.463 1.008-2.287 2.855-.81 1.832-.81 4.304 0 2.529.796 4.403.81 1.875 2.272 2.912 1.478 1.037 3.466 1.037 1.307 0 2.373-.454a4.9 4.9 0 0 0 1.804-1.307q.738-.852 1.051-2.046h3.352a7.76 7.76 0 0 1-1.406 3.48q-1.108 1.535-2.941 2.444-1.818.894-4.233.895m27.23-9.375v-12.898h3.353V828h-3.353v-3.693h-.227q-.767 1.662-2.386 2.827-1.62 1.15-4.091 1.15-2.046 0-3.636-.895-1.591-.909-2.5-2.727-.91-1.832-.91-4.617v-13.863h3.353v13.636q0 2.387 1.335 3.807 1.35 1.42 3.437 1.42 1.25 0 2.543-.639 1.306-.639 2.188-1.96.894-1.322.894-3.366m18.981-12.898v2.841h-11.306v-2.841zm-8.011-5.227h3.352v20.795q0 1.42.412 2.131.426.696 1.08.937a4.3 4.3 0 0 0 1.406.227q.554 0 .909-.056l.568-.114.682 3.011a7 7 0 0 1-.952.256q-.61.142-1.548.142a6.75 6.75 0 0 1-2.784-.611 5.5 5.5 0 0 1-2.244-1.861q-.88-1.25-.881-3.153zM981.287 828v-21.818h3.352V828zm1.704-25.455a2.38 2.38 0 0 1-1.69-.667q-.696-.668-.696-1.605 0-.938.696-1.605a2.38 2.38 0 0 1 1.69-.668q.981 0 1.677.668.71.667.71 1.605t-.71 1.605a2.34 2.34 0 0 1-1.677.667m11.14 12.33V828h-3.352v-21.818h3.239v3.409h.284a6.24 6.24 0 0 1 2.329-2.671q1.562-1.022 4.039-1.022c1.47 0 2.77.303 3.87.909 1.11.596 1.97 1.505 2.59 2.727.61 1.212.92 2.746.92 4.602V828h-3.35v-13.636c0-1.714-.45-3.05-1.34-4.006q-1.335-1.449-3.66-1.449-1.606 0-2.87.696-1.25.696-1.974 2.031-.725 1.336-.725 3.239m28.849 21.761c-1.61 0-3.01-.208-4.17-.625q-1.755-.61-2.91-1.619c-.77-.663-1.38-1.373-1.84-2.131l2.67-1.875c.31.398.69.853 1.15 1.364.47.521 1.1.971 1.91 1.349.81.389 1.88.583 3.19.583 1.77 0 3.22-.426 4.37-1.279q1.71-1.278 1.71-4.005v-4.432h-.28q-.375.597-1.05 1.477c-.45.578-1.09 1.094-1.93 1.548-.84.446-1.96.668-3.38.668-1.77 0-3.35-.417-4.75-1.25-1.39-.833-2.49-2.045-3.31-3.636-.8-1.591-1.21-3.523-1.21-5.796 0-2.235.4-4.181 1.18-5.838.79-1.666 1.88-2.954 3.29-3.863 1.4-.919 3.02-1.378 4.85-1.378 1.42 0 2.55.236 3.38.71.85.464 1.49.994 1.94 1.591q.675.88 1.05 1.449h.34v-3.466h3.24v22.443c0 1.875-.43 3.4-1.28 4.574-.85 1.184-1.98 2.05-3.41 2.599-1.42.559-3 .838-4.75.838m-.11-11.988c1.35 0 2.48-.308 3.41-.924.93-.615 1.63-1.501 2.12-2.656q.72-1.733.72-4.148c0-1.572-.24-2.959-.71-4.161q-.705-1.804-2.1-2.827c-.93-.682-2.08-1.023-3.44-1.023-1.42 0-2.6.36-3.55 1.08-.94.719-1.64 1.685-2.12 2.897q-.69 1.818-.69 4.034c0 1.516.23 2.856.71 4.02q.72 1.734 2.13 2.728c.94.653 2.12.98 3.52.98m20.68-.625-.22 1.534a34 34 0 0 1-.74 3.466 74 74 0 0 1-1.01 3.48 90 90 0 0 1-.87 2.599h-2.56c.13-.606.29-1.406.49-2.4.2-.995.4-2.107.59-3.338.21-1.222.38-2.472.52-3.75l.17-1.591zm22.41 3.977-6.65-21.818h3.52l4.72 16.704h.22l4.66-16.704h3.58l4.61 16.648h.22l4.72-16.648h3.52L1082.43 828h-3.29l-4.77-16.761h-.35L1069.25 828zm27.55 0v-21.818h3.36V828zm1.71-25.455c-.66 0-1.22-.222-1.69-.667s-.7-.98-.7-1.605.23-1.16.7-1.605a2.37 2.37 0 0 1 1.69-.668c.65 0 1.21.223 1.67.668.48.445.71.98.71 1.605s-.23 1.16-.71 1.605c-.46.445-1.02.667-1.67.667m17.27 3.637v2.841h-11.3v-2.841zm-8.01-5.227h3.36v20.795c0 .947.13 1.657.41 2.131q.42.696 1.08.937c.44.152.91.227 1.4.227.37 0 .68-.018.91-.056l.57-.114.68 3.011c-.23.086-.54.171-.95.256-.41.095-.92.142-1.55.142a6.8 6.8 0 0 1-2.78-.611 5.56 5.56 0 0 1-2.25-1.861c-.58-.833-.88-1.884-.88-3.153zm16.88 13.92V828h-3.35v-29.091h3.35v10.682h.28a6.18 6.18 0 0 1 2.3-2.685c1.04-.672 2.41-1.008 4.12-1.008 1.49 0 2.79.298 3.91.895 1.12.587 1.98 1.491 2.6 2.713.62 1.212.94 2.755.94 4.63V828h-3.36v-13.636q0-2.6-1.35-4.02c-.89-.957-2.12-1.435-3.7-1.435-1.1 0-2.09.232-2.96.696q-1.29.696-2.04 2.031c-.5.891-.74 1.97-.74 3.239m-449.162 48V876h-3.352v-21.818h3.238v3.409h.284a6.24 6.24 0 0 1 2.33-2.671q1.562-1.022 4.034-1.022 2.216 0 3.878.909 1.661.894 2.585 2.727.923 1.818.923 4.602V876h-3.352v-13.636q0-2.572-1.335-4.006-1.335-1.449-3.665-1.449-1.606 0-2.869.696-1.25.696-1.975 2.031-.724 1.336-.724 3.239m28.91 13.58q-2.955 0-5.185-1.407-2.216-1.406-3.466-3.934-1.236-2.53-1.236-5.909 0-3.41 1.236-5.952 1.25-2.543 3.466-3.949 2.23-1.407 5.185-1.406 2.954 0 5.17 1.406 2.23 1.406 3.466 3.949 1.25 2.543 1.25 5.952 0 3.38-1.25 5.909-1.236 2.528-3.466 3.934-2.216 1.407-5.17 1.407m0-3.012q2.244 0 3.693-1.15t2.145-3.026.696-4.062q0-2.188-.696-4.077-.696-1.89-2.145-3.054-1.449-1.165-3.693-1.165-2.245 0-3.694 1.165-1.448 1.164-2.144 3.054t-.696 4.077.696 4.062 2.144 3.026 3.694 1.15M727.361 876v-21.818h3.239v3.295h.227q.597-1.618 2.159-2.628 1.563-1.008 3.523-1.008.37 0 .923.014.554.015.838.043v3.409a10 10 0 0 0-.781-.128 8 8 0 0 0-1.264-.099q-1.591 0-2.841.667a5.04 5.04 0 0 0-1.96 1.818q-.711 1.15-.711 2.628V876zm23.367.455q-3.154 0-5.441-1.393-2.272-1.406-3.508-3.92-1.222-2.529-1.222-5.881 0-3.351 1.222-5.909 1.236-2.571 3.437-4.005 2.216-1.449 5.171-1.449 1.704 0 3.366.568t3.026 1.846q1.363 1.265 2.173 3.353t.81 5.142v1.42h-16.818v-2.897h13.409q0-1.847-.739-3.296a5.57 5.57 0 0 0-2.074-2.287q-1.335-.838-3.153-.838-2.004 0-3.466.994a6.55 6.55 0 0 0-2.23 2.557 7.5 7.5 0 0 0-.782 3.381v1.932q0 2.47.853 4.19.866 1.705 2.4 2.599 1.534.881 3.566.881 1.32 0 2.386-.369a5.1 5.1 0 0 0 1.861-1.136q.781-.767 1.207-1.904l3.239.909a7.2 7.2 0 0 1-1.719 2.898q-1.207 1.236-2.983 1.932-1.776.682-3.991.682m14.133-.455v-21.818h3.239v3.409h.284q.681-1.747 2.202-2.713 1.52-.98 3.65-.98 2.16 0 3.594.98 1.45.966 2.258 2.713h.228q.837-1.69 2.514-2.685 1.675-1.008 4.02-1.008 2.926 0 4.787 1.832 1.86 1.818 1.861 5.668V876h-3.353v-14.602q0-2.415-1.321-3.452t-3.111-1.037q-2.3 0-3.565 1.392-1.264 1.378-1.264 3.494V876h-3.409v-14.943q0-1.861-1.208-2.997-1.207-1.15-3.11-1.151-1.308 0-2.444.696-1.122.696-1.818 1.932-.681 1.221-.682 2.827V876zm41.186.511q-2.073 0-3.764-.781-1.69-.795-2.685-2.287-.994-1.506-.994-3.636 0-1.875.739-3.04a5.2 5.2 0 0 1 1.974-1.847 10.4 10.4 0 0 1 2.727-.994 34 34 0 0 1 3.026-.54 138 138 0 0 1 3.224-.383q1.25-.142 1.819-.469.582-.327.582-1.136v-.114q0-2.101-1.151-3.267-1.136-1.164-3.451-1.165-2.4 0-3.765 1.051-1.363 1.051-1.917 2.245l-3.182-1.137q.852-1.988 2.273-3.096a8.5 8.5 0 0 1 3.125-1.563 13 13 0 0 1 3.352-.454q1.051 0 2.415.255a7.7 7.7 0 0 1 2.656 1.009q1.293.767 2.145 2.315t.852 4.148V876h-3.352v-2.955h-.17q-.342.711-1.137 1.52-.795.81-2.116 1.378t-3.225.568m.512-3.011q1.988 0 3.352-.781 1.378-.781 2.074-2.017.71-1.236.71-2.6v-3.068q-.213.256-.938.469-.71.198-1.647.355-.924.142-1.804.256-.867.1-1.406.17-1.308.17-2.444.554-1.122.369-1.818 1.122-.682.74-.682 2.017 0 1.748 1.293 2.642 1.306.88 3.31.881m15.607 2.5v-21.818h3.352V876zm1.704-25.455a2.38 2.38 0 0 1-1.69-.667q-.696-.668-.696-1.605 0-.938.696-1.605a2.38 2.38 0 0 1 1.69-.668q.981 0 1.677.668.71.667.71 1.605t-.71 1.605a2.34 2.34 0 0 1-1.677.667m11.14 12.33V876h-3.352v-21.818h3.239v3.409h.284a6.24 6.24 0 0 1 2.329-2.671q1.563-1.022 4.034-1.022 2.216 0 3.878.909 1.662.894 2.585 2.727.924 1.818.924 4.602V876h-3.353v-13.636q0-2.572-1.335-4.006-1.334-1.449-3.665-1.449-1.605 0-2.869.696-1.25.696-1.974 2.031-.725 1.336-.725 3.239M855.056 876v-21.818h3.353V876zm1.705-25.455a2.38 2.38 0 0 1-1.69-.667q-.696-.668-.696-1.605 0-.938.696-1.605a2.38 2.38 0 0 1 1.69-.668q.98 0 1.676.668.71.667.71 1.605t-.71 1.605a2.34 2.34 0 0 1-1.676.667m11.14 12.33V876h-3.352v-21.818h3.238v3.409h.284a6.24 6.24 0 0 1 2.33-2.671q1.563-1.022 4.034-1.022 2.216 0 3.878.909 1.662.894 2.585 2.727.923 1.818.923 4.602V876h-3.352v-13.636q0-2.572-1.335-4.006-1.335-1.449-3.665-1.449-1.605 0-2.869.696-1.25.696-1.975 2.031-.724 1.336-.724 3.239m28.853 21.761q-2.428 0-4.176-.625-1.748-.61-2.912-1.619-1.15-.994-1.833-2.131l2.671-1.875q.454.597 1.15 1.364.696.782 1.904 1.349 1.221.583 3.196.583 2.642 0 4.361-1.279t1.718-4.005v-4.432h-.284q-.369.597-1.051 1.477-.668.867-1.932 1.548-1.25.668-3.38.668-2.642 0-4.745-1.25-2.088-1.25-3.309-3.636-1.208-2.386-1.208-5.796 0-3.353 1.179-5.838 1.179-2.5 3.282-3.863 2.101-1.378 4.858-1.378 2.13 0 3.38.71 1.264.696 1.932 1.591.682.88 1.051 1.449h.341v-3.466h3.239v22.443q0 2.813-1.279 4.574-1.264 1.776-3.409 2.599-2.13.838-4.744.838m-.114-11.988q2.017 0 3.409-.924 1.392-.923 2.117-2.656.724-1.733.724-4.148 0-2.358-.71-4.161-.71-1.804-2.102-2.827t-3.438-1.023q-2.13 0-3.551 1.08-1.406 1.079-2.116 2.897-.696 1.818-.696 4.034 0 2.274.71 4.02.724 1.734 2.131 2.728 1.42.98 3.522.98M924.027 876v-29.091h3.352v10.739h.284q.369-.569 1.023-1.449.667-.895 1.903-1.591 1.25-.71 3.381-.71 2.755 0 4.858 1.378t3.281 3.906 1.179 5.966q0 3.465-1.179 6.008-1.179 2.529-3.267 3.921-2.088 1.378-4.815 1.378-2.103 0-3.367-.696-1.264-.71-1.946-1.606a22 22 0 0 1-1.051-1.505h-.398V876zm3.295-10.909q0 2.471.725 4.361.723 1.875 2.116 2.94 1.392 1.051 3.409 1.051 2.102 0 3.509-1.108 1.42-1.122 2.13-3.011.725-1.904.725-4.233 0-2.301-.711-4.148-.696-1.86-2.116-2.94-1.405-1.094-3.537-1.094-2.046 0-3.437 1.037-1.392 1.023-2.103 2.869-.71 1.833-.71 4.276m34.844 1.989v-12.898h3.352V876h-3.352v-3.693h-.227q-.768 1.662-2.387 2.827-1.619 1.15-4.091 1.15-2.045 0-3.636-.895-1.591-.909-2.5-2.727-.909-1.832-.909-4.617v-13.863h3.352v13.636q0 2.387 1.335 3.807 1.35 1.42 3.438 1.42 1.25 0 2.542-.639 1.308-.639 2.188-1.96.895-1.322.895-3.366m9.492 8.92v-21.818h3.239v3.295h.227q.597-1.618 2.159-2.628 1.563-1.008 3.523-1.008.37 0 .923.014.554.015.838.043v3.409a10 10 0 0 0-.781-.128 8 8 0 0 0-1.264-.099q-1.592 0-2.841.667a5.03 5.03 0 0 0-1.96 1.818q-.711 1.15-.711 2.628V876zM1002 859.068l-3.016.852a5.6 5.6 0 0 0-.838-1.463q-.54-.724-1.477-1.193t-2.401-.469q-2.003 0-3.338.924-1.321.91-1.321 2.315 0 1.25.909 1.975.909.723 2.841 1.207l3.239.795q2.924.71 4.362 2.174c.95.966 1.43 2.211 1.43 3.735q0 1.875-1.08 3.353-1.063 1.477-2.979 2.329-1.918.852-4.461.853-3.338 0-5.525-1.449t-2.77-4.233l3.182-.796q.455 1.762 1.718 2.642 1.279.88 3.339.881 2.343 0 3.721-.994 1.392-1.01 1.392-2.415 0-1.137-.795-1.903-.796-.782-2.443-1.165l-3.637-.853q-2.997-.71-4.403-2.201-1.392-1.506-1.392-3.764 0-1.848 1.037-3.267 1.05-1.42 2.855-2.231 1.818-.809 4.119-.809 3.238 0 5.085 1.42 1.854 1.42 2.647 3.75m14.93-4.886v2.841h-11.31v-2.841zm-8.01-5.227h3.35v20.795c0 .947.14 1.657.41 2.131q.42.696 1.08.937c.45.152.91.227 1.41.227.37 0 .67-.018.91-.056.23-.048.42-.086.56-.114l.69 3.011a7 7 0 0 1-.96.256c-.4.095-.92.142-1.54.142a6.8 6.8 0 0 1-2.79-.611 5.47 5.47 0 0 1-2.24-1.861c-.59-.833-.88-1.884-.88-3.153zm33.79 5.227v2.841h-11.31v-2.841zm-8.01-5.227h3.35v20.795c0 .947.14 1.657.41 2.131q.435.696 1.08.937.675.227 1.41.227c.37 0 .67-.018.91-.056q.345-.072.57-.114l.68 3.011c-.23.086-.55.171-.95.256-.41.095-.93.142-1.55.142a6.8 6.8 0 0 1-2.79-.611c-.9-.407-1.64-1.027-2.24-1.861-.59-.833-.88-1.884-.88-3.153zM1047.75 876v-21.818h3.35V876zm1.71-25.455c-.66 0-1.22-.222-1.69-.667s-.7-.98-.7-1.605.23-1.16.7-1.605a2.37 2.37 0 0 1 1.69-.668c.65 0 1.21.223 1.67.668.48.445.71.98.71 1.605s-.23 1.16-.71 1.605c-.46.445-1.02.667-1.67.667m7.78 25.455v-21.818h3.24v3.409h.29c.45-1.165 1.19-2.069 2.2-2.713 1.01-.654 2.23-.98 3.65-.98 1.44 0 2.64.326 3.59.98.97.644 1.72 1.548 2.26 2.713h.23c.56-1.127 1.4-2.022 2.51-2.685q1.68-1.008 4.02-1.008c1.95 0 3.55.611 4.79 1.832q1.86 1.818 1.86 5.668V876h-3.35v-14.602q0-2.415-1.32-3.452c-.88-.691-1.92-1.037-3.11-1.037q-2.31 0-3.57 1.392-1.26 1.378-1.26 3.494V876h-3.41v-14.943c0-1.241-.4-2.24-1.21-2.997-.8-.767-1.84-1.151-3.11-1.151-.87 0-1.69.232-2.44.696a5.2 5.2 0 0 0-1.82 1.932c-.46.814-.68 1.757-.68 2.827V876zm43.92.455c-2.1 0-3.92-.464-5.44-1.393q-2.28-1.406-3.51-3.92c-.82-1.686-1.22-3.646-1.22-5.881 0-2.234.4-4.204 1.22-5.909.82-1.714 1.97-3.049 3.44-4.005 1.47-.966 3.2-1.449 5.17-1.449q1.695 0 3.36.568t3.03 1.846c.91.843 1.63 1.961 2.17 3.353q.81 2.088.81 5.142v1.42h-16.82v-2.897h13.41c0-1.232-.24-2.33-.74-3.296a5.54 5.54 0 0 0-2.07-2.287q-1.335-.838-3.15-.838c-1.34 0-2.49.332-3.47.994a6.5 6.5 0 0 0-2.23 2.557 7.5 7.5 0 0 0-.78 3.381v1.932c0 1.647.28 3.044.85 4.19q.87 1.705 2.4 2.599 1.53.881 3.57.881c.88 0 1.67-.123 2.38-.369a5.1 5.1 0 0 0 1.86-1.136c.53-.512.93-1.146 1.21-1.904l3.24.909a7.1 7.1 0 0 1-1.72 2.898c-.8.824-1.8 1.468-2.98 1.932-1.18.454-2.52.682-3.99.682"/><path stroke="#dbdbdb" stroke-linecap="round" stroke-linejoin="round" stroke-width="4" d="m855.276 1489.15 22.36 5.31-5.308 22.36"/><path stroke="#dbdbdb" stroke-width="4" d="M600 1497c115.08 52.37 175.748 54.8 275.5 0"/><path fill="#fff" d="M653.523 1490v-29.09h9.829q3.423 0 5.597 1.23c1.458.82 2.538 1.92 3.239 3.31.7 1.4 1.051 2.95 1.051 4.66q0 2.58-1.051 4.68c-.692 1.4-1.762 2.52-3.211 3.35-1.449.82-3.305 1.24-5.568 1.24h-7.045v-3.13h6.931q2.345 0 3.765-.81t2.059-2.19c.436-.93.654-1.97.654-3.14q0-1.74-.654-3.12-.639-1.38-2.074-2.16c-.956-.53-2.225-.8-3.806-.8h-6.194V1490zm24.879 0v-2.56l9.602-10.51a66 66 0 0 0 2.784-3.21q1.094-1.38 1.62-2.58c.36-.82.539-1.67.539-2.56 0-1.02-.246-1.91-.738-2.66a4.86 4.86 0 0 0-1.989-1.73c-.843-.41-1.79-.61-2.841-.61-1.117 0-2.093.23-2.926.7a4.76 4.76 0 0 0-1.917 1.91c-.446.83-.668 1.79-.668 2.9h-3.352c0-1.7.393-3.2 1.179-4.49a8.2 8.2 0 0 1 3.21-3.01q2.045-1.08 4.588-1.08 2.557 0 4.531 1.08 1.975 1.08 3.097 2.91t1.122 4.08c0 1.07-.194 2.12-.582 3.14q-.569 1.515-1.989 3.39c-.938 1.24-2.24 2.76-3.906 4.55l-6.534 6.99v.23h13.522v3.12zm44.673.45c-2.102 0-3.915-.46-5.44-1.39-1.515-.94-2.685-2.24-3.509-3.92q-1.221-2.52-1.221-5.88 0-3.345 1.221-5.91c.824-1.71 1.97-3.05 3.438-4 1.477-.97 3.201-1.45 5.17-1.45q1.705 0 3.367.57c1.108.37 2.116.99 3.025 1.84.91.85 1.634 1.96 2.174 3.35.539 1.4.809 3.11.809 5.15v1.42h-16.818v-2.9H728.7q0-1.845-.738-3.3a5.6 5.6 0 0 0-2.074-2.28q-1.335-.84-3.154-.84-2.002 0-3.466.99a6.6 6.6 0 0 0-2.23 2.56 7.5 7.5 0 0 0-.781 3.38v1.93c0 1.65.284 3.05.852 4.19.578 1.14 1.378 2.01 2.401 2.6s2.211.88 3.565.88c.881 0 1.676-.12 2.387-.37a5 5 0 0 0 1.86-1.13c.521-.51.924-1.15 1.208-1.91l3.238.91a7.14 7.14 0 0 1-1.718 2.9c-.805.82-1.8 1.47-2.983 1.93s-2.514.68-3.992.68m17.486-13.57V1490h-3.352v-21.82h3.238v3.41h.285q.766-1.665 2.329-2.67 1.562-1.02 4.034-1.02c1.477 0 2.77.3 3.878.91 1.108.59 1.97 1.5 2.585 2.72.616 1.22.924 2.75.924 4.61V1490h-3.353v-13.64c0-1.71-.445-3.05-1.335-4-.89-.97-2.112-1.45-3.665-1.45-1.07 0-2.026.23-2.869.7-.833.46-1.492 1.14-1.974 2.03q-.725 1.335-.725 3.24m29.535-8.7v2.84h-11.307v-2.84zm-8.011-5.23h3.352v20.8q0 1.425.412 2.13c.284.46.644.78 1.079.94.445.15.914.23 1.407.23q.553 0 .909-.06c.236-.05.426-.09.568-.11l.682 3.01c-.228.08-.545.17-.952.25-.407.1-.923.14-1.548.14-.947 0-1.875-.2-2.784-.61q-1.35-.6-2.245-1.86-.88-1.245-.88-3.15zm21.967 27.5c-2.102 0-3.916-.46-5.44-1.39-1.516-.94-2.685-2.24-3.509-3.92q-1.221-2.52-1.222-5.88 0-3.345 1.222-5.91c.824-1.71 1.97-3.05 3.437-4 1.478-.97 3.201-1.45 5.171-1.45q1.704 0 3.366.57c1.108.37 2.117.99 3.026 1.84s1.634 1.96 2.173 3.35c.54 1.4.81 3.11.81 5.15v1.42h-16.818v-2.9h13.409q0-1.845-.739-3.3a5.6 5.6 0 0 0-2.074-2.28q-1.335-.84-3.153-.84-2.003 0-3.466.99a6.6 6.6 0 0 0-2.23 2.56 7.5 7.5 0 0 0-.781 3.38v1.93c0 1.65.284 3.05.852 4.19.578 1.14 1.378 2.01 2.401 2.6s2.211.88 3.565.88c.881 0 1.676-.12 2.386-.37.72-.25 1.34-.63 1.861-1.13.521-.51.923-1.15 1.207-1.91l3.239.91a7.16 7.16 0 0 1-1.719 2.9c-.805.82-1.799 1.47-2.983 1.93-1.183.46-2.514.68-3.991.68m14.133-.45v-21.82h3.239v3.3h.227c.398-1.08 1.118-1.96 2.159-2.63 1.042-.67 2.216-1.01 3.523-1.01.246 0 .554.01.923.02.37 0 .649.02.838.04v3.41c-.113-.03-.374-.07-.781-.13-.398-.07-.819-.1-1.264-.1-1.061 0-2.008.22-2.841.67a4.97 4.97 0 0 0-1.96 1.82c-.474.76-.71 1.64-.71 2.62V1490zm30.338-16.93-3.012.85c-.189-.5-.468-.99-.838-1.46-.36-.49-.852-.88-1.477-1.2-.625-.31-1.425-.46-2.401-.46-1.335 0-2.447.3-3.338.92-.88.6-1.321 1.38-1.321 2.31q0 1.26.909 1.98c.607.48 1.553.88 2.841 1.21l3.239.79c1.951.47 3.404 1.2 4.361 2.17s1.434 2.22 1.434 3.74c0 1.25-.359 2.37-1.079 3.35-.71.99-1.705 1.76-2.983 2.33s-2.765.85-4.46.85q-3.339 0-5.526-1.44c-1.458-.97-2.381-2.38-2.77-4.24l3.182-.79q.454 1.755 1.719 2.64c.852.59 1.965.88 3.338.88q2.343 0 3.721-.99c.929-.68 1.393-1.48 1.393-2.42 0-.76-.266-1.39-.796-1.9q-.795-.78-2.443-1.17l-3.636-.85c-1.999-.47-3.466-1.21-4.404-2.2-.928-1.01-1.392-2.26-1.392-3.77 0-1.23.346-2.32 1.037-3.26.701-.95 1.652-1.69 2.855-2.23q1.818-.81 4.119-.81c2.16 0 3.855.47 5.086 1.42q1.86 1.425 2.642 3.75M667.557 1576.18v2.84H656.25v-2.84zm-8.012-5.23h3.353v20.8q0 1.425.412 2.13c.284.46.644.78 1.079.94.445.15.914.23 1.406.23q.555 0 .91-.06c.236-.05.426-.09.568-.11l.682 3.01c-.228.08-.545.17-.952.25-.407.1-.923.14-1.548.14a6.7 6.7 0 0 1-2.785-.61q-1.348-.6-2.244-1.86-.88-1.245-.881-3.15zm16.875 13.93V1598h-3.352v-29.09h3.352v10.68h.285a6.1 6.1 0 0 1 2.301-2.68c1.032-.68 2.405-1.01 4.119-1.01 1.487 0 2.789.3 3.906.89 1.118.59 1.984 1.49 2.6 2.72.625 1.21.937 2.75.937 4.63V1598h-3.352v-13.64q0-2.595-1.35-4.02c-.89-.95-2.125-1.43-3.707-1.43-1.098 0-2.083.23-2.954.7-.862.46-1.544 1.14-2.046 2.03q-.739 1.335-.739 3.24m29.429 13.57c-2.103 0-3.916-.46-5.441-1.39-1.515-.94-2.684-2.24-3.508-3.92q-1.222-2.52-1.222-5.88 0-3.345 1.222-5.91c.824-1.71 1.97-3.05 3.437-4 1.478-.97 3.201-1.45 5.171-1.45q1.704 0 3.366.57c1.108.37 2.117.99 3.026 1.84s1.633 1.96 2.173 3.35c.54 1.4.81 3.11.81 5.15v1.42h-16.818v-2.9h13.409q0-1.845-.739-3.3a5.6 5.6 0 0 0-2.074-2.28q-1.335-.84-3.153-.84-2.003 0-3.466.99a6.6 6.6 0 0 0-2.23 2.56 7.5 7.5 0 0 0-.781 3.38v1.93c0 1.65.284 3.05.852 4.19.577 1.14 1.378 2.01 2.4 2.6s2.212.88 3.566.88c.88 0 1.676-.12 2.386-.37.72-.25 1.34-.63 1.861-1.13.521-.51.923-1.15 1.207-1.91l3.239.91a7.16 7.16 0 0 1-1.719 2.9c-.805.82-1.799 1.47-2.983 1.93s-2.514.68-3.991.68m49.247-20.45h-3.523q-.312-1.515-1.094-2.67a7.2 7.2 0 0 0-1.875-1.93 8.1 8.1 0 0 0-2.429-1.2 9.9 9.9 0 0 0-2.784-.39c-1.761 0-3.357.44-4.787 1.33-1.42.89-2.552 2.2-3.394 3.94-.834 1.73-1.25 3.86-1.25 6.37 0 2.52.416 4.65 1.25 6.38.842 1.74 1.974 3.05 3.394 3.94 1.43.89 3.026 1.33 4.787 1.33.966 0 1.894-.13 2.784-.4q1.336-.39 2.429-1.17a7.4 7.4 0 0 0 1.875-1.95q.782-1.17 1.094-2.67h3.523q-.398 2.235-1.449 3.99a11.1 11.1 0 0 1-2.614 3 11.6 11.6 0 0 1-3.508 1.86c-1.288.42-2.666.64-4.134.64-2.481 0-4.687-.61-6.619-1.82s-3.452-2.94-4.56-5.17c-1.108-2.24-1.662-4.89-1.662-7.96 0-3.06.554-5.72 1.662-7.95s2.628-3.96 4.56-5.17 4.138-1.82 6.619-1.82c1.468 0 2.846.21 4.134.64a11.2 11.2 0 0 1 3.508 1.88c1.042.81 1.913 1.8 2.614 2.98q1.052 1.74 1.449 3.99m5.692 20v-29.09h9.83q3.424 0 5.596 1.23c1.459.82 2.538 1.92 3.239 3.31.701 1.4 1.051 2.95 1.051 4.66q0 2.58-1.051 4.68c-.691 1.4-1.761 2.52-3.21 3.35-1.449.82-3.305 1.24-5.568 1.24h-7.046v-3.13h6.932q2.344 0 3.764-.81t2.06-2.19c.436-.93.653-1.97.653-3.14q0-1.74-.653-3.12-.639-1.38-2.074-2.16c-.956-.53-2.225-.8-3.807-.8h-6.193V1598zm44.482-29.09h3.523v19.26c0 1.99-.469 3.76-1.407 5.33-.928 1.55-2.239 2.78-3.934 3.68-1.695.89-3.684 1.33-5.966 1.33s-4.271-.44-5.966-1.33c-1.695-.9-3.011-2.13-3.949-3.68-.928-1.57-1.392-3.34-1.392-5.33v-19.26h3.523v18.98c0 1.42.312 2.68.937 3.79.625 1.1 1.515 1.96 2.671 2.6 1.164.62 2.556.94 4.176.94 1.619 0 3.011-.32 4.176-.94 1.165-.64 2.055-1.5 2.67-2.6.625-1.11.938-2.37.938-3.79z"/><rect width="136" height="136" x="997" y="1429" stroke="#dbdbdb" stroke-width="2" rx="27"/><rect width="136" height="136" x="821" y="642" stroke="#dbdbdb" stroke-width="2" rx="27"/></svg>