<svg xmlns="http://www.w3.org/2000/svg" width="1166" height="496" fill="none" viewBox="0 0 1166 496"><rect width="453" height="494" x="1" y="1" stroke="#dbdbdb" stroke-width="2" rx="27"/><rect width="453" height="313" x="712" y="1" stroke="#dbdbdb" stroke-width="2" rx="27"/><path fill="#fff" d="m83.253 55.91 7.031 22.101h.27l7.045-22.102h6.819L94.389 85h-7.926L76.421 55.91zM107.805 85V63.182h6.052V85zm3.04-24.63q-1.349 0-2.315-.896-.952-.909-.952-2.173 0-1.25.952-2.145.966-.909 2.315-.909 1.35 0 2.301.91.966.894.966 2.144 0 1.264-.966 2.173-.951.895-2.301.895M118.704 85V63.182h5.866v3.807h.228q.596-2.032 2.002-3.069 1.407-1.05 3.239-1.05.455 0 .98.056.526.057.923.156v5.37a8 8 0 0 0-1.179-.228q-.752-.099-1.377-.099-1.335 0-2.387.582-1.036.57-1.647 1.591-.597 1.023-.597 2.358V85zm29.066-21.818v4.545h-13.139v-4.545zm-10.156-5.227h6.051v20.34q0 .84.255 1.307.256.454.711.64.468.184 1.079.184.426 0 .852-.07.427-.086.654-.129l.952 4.503q-.455.142-1.279.327-.824.198-2.003.241-2.187.086-3.835-.582-1.633-.667-2.542-2.074-.91-1.406-.895-3.551zm28.089 17.755V63.182h6.051V85h-5.809v-3.963h-.228a6.44 6.44 0 0 1-2.457 3.082q-1.704 1.165-4.162 1.165-2.187 0-3.849-.994t-2.6-2.827q-.923-1.832-.937-4.39V63.183h6.051v12.812q.014 1.932 1.037 3.054 1.022 1.123 2.741 1.123 1.094 0 2.046-.498.95-.511 1.534-1.505.596-.994.582-2.458m17.113 9.702q-2.088 0-3.722-.725-1.633-.738-2.585-2.173-.937-1.449-.937-3.608 0-1.818.667-3.054a5.4 5.4 0 0 1 1.819-1.988 8.8 8.8 0 0 1 2.613-1.137 20 20 0 0 1 3.097-.54 79 79 0 0 0 3.068-.369q1.164-.184 1.69-.54.526-.355.526-1.05v-.086q0-1.35-.852-2.088-.839-.739-2.387-.739-1.633 0-2.599.725-.966.71-1.279 1.79l-5.596-.455q.426-1.99 1.676-3.437 1.25-1.464 3.224-2.245 1.989-.795 4.603-.795 1.818 0 3.48.426 1.676.426 2.968 1.32a6.4 6.4 0 0 1 2.06 2.302q.753 1.392.753 3.338V85h-5.739v-3.026h-.17a6.2 6.2 0 0 1-1.406 1.804q-.88.767-2.117 1.208-1.236.426-2.855.426m1.733-4.176q1.335 0 2.358-.526a4.2 4.2 0 0 0 1.605-1.449q.582-.908.582-2.06v-2.315a3.2 3.2 0 0 1-.781.341q-.483.142-1.094.27a55 55 0 0 1-1.221.213l-1.108.157q-1.065.156-1.861.497-.795.34-1.236.923-.44.568-.44 1.42 0 1.236.895 1.89.909.639 2.301.639m21.3-25.327V85h-6.051V55.91zm14.218 0h7.586l8.011 19.545h.341l8.011-19.545h7.586V85h-5.966V66.065h-.242l-7.528 18.793h-4.063l-7.528-18.864h-.242V85h-5.966zm46.432 29.517q-3.368 0-5.796-1.364-2.415-1.377-3.721-3.891-1.308-2.53-1.307-5.98 0-3.368 1.307-5.91t3.679-3.963q2.385-1.42 5.596-1.42 2.159 0 4.02.696a8.9 8.9 0 0 1 3.267 2.06q1.407 1.377 2.188 3.465.78 2.074.781 4.858v1.662h-18.424v-3.75h12.728q0-1.307-.568-2.315a4.07 4.07 0 0 0-1.577-1.577q-.995-.582-2.315-.582-1.378 0-2.444.639-1.05.625-1.647 1.69-.597 1.051-.611 2.344v3.565q0 1.62.596 2.799a4.38 4.38 0 0 0 1.719 1.818q1.108.64 2.628.64 1.008 0 1.847-.285a3.8 3.8 0 0 0 1.434-.852q.597-.57.909-1.392l5.597.369a7.65 7.65 0 0 1-1.747 3.523q-1.306 1.49-3.381 2.33-2.06.823-4.758.823M280.462 85V63.182h5.767v3.85h.255q.682-1.92 2.273-3.026 1.591-1.108 3.807-1.108 2.244 0 3.821 1.122 1.577 1.108 2.102 3.011h.227q.668-1.875 2.415-2.997 1.762-1.137 4.162-1.136 3.054 0 4.958 1.946 1.917 1.931 1.917 5.483V85h-6.037V71.52q0-1.818-.966-2.727-.966-.91-2.414-.91-1.649 0-2.571 1.052-.924 1.036-.924 2.741V85h-5.866V71.392q0-1.605-.924-2.557-.909-.951-2.4-.951-1.008 0-1.818.51-.796.498-1.264 1.407-.47.895-.469 2.102V85zm46.342.426q-3.31 0-5.724-1.406-2.401-1.42-3.708-3.949-1.307-2.542-1.307-5.895 0-3.38 1.307-5.909 1.306-2.542 3.708-3.949 2.414-1.42 5.724-1.42t5.71 1.42q2.415 1.407 3.722 3.949 1.307 2.528 1.307 5.91 0 3.351-1.307 5.894-1.307 2.529-3.722 3.949-2.4 1.406-5.71 1.406m.028-4.687q1.506 0 2.515-.853 1.009-.865 1.519-2.358.526-1.491.526-3.395t-.526-3.394q-.51-1.492-1.519-2.358-1.01-.867-2.515-.867-1.52 0-2.556.867-1.023.866-1.549 2.358-.511 1.492-.511 3.394 0 1.904.511 3.395.526 1.492 1.549 2.358 1.036.853 2.556.853M341.477 85V63.182h5.867v3.807h.227q.596-2.032 2.003-3.069 1.406-1.05 3.238-1.05.455 0 .981.056.525.057.923.156v5.37a8 8 0 0 0-1.179-.228q-.753-.099-1.378-.099-1.335 0-2.386.582a4.3 4.3 0 0 0-1.648 1.591q-.597 1.023-.597 2.358V85zm20.767 8.182q-1.15 0-2.159-.185-.995-.17-1.647-.44l1.363-4.517q1.065.327 1.918.355.866.028 1.491-.398.64-.426 1.037-1.449l.355-.923-7.826-22.443h6.363l4.517 16.022h.228l4.559-16.022h6.406l-8.48 24.176q-.61 1.761-1.662 3.068a6.8 6.8 0 0 1-2.627 2.031q-1.591.725-3.836.725M773.177 60V30.91h11.477q3.31 0 5.639 1.263 2.33 1.251 3.551 3.48 1.236 2.217 1.236 5.114 0 2.898-1.25 5.114t-3.622 3.451q-2.358 1.236-5.71 1.236h-7.315V45.64h6.321q1.775 0 2.926-.61 1.164-.625 1.733-1.72.582-1.107.582-2.542 0-1.45-.582-2.528-.569-1.095-1.733-1.69-1.165-.611-2.955-.611h-4.148V60zm31.836-12.614V60h-6.051V30.91h5.88V42.03h.256q.738-1.932 2.386-3.025 1.649-1.108 4.134-1.108 2.273 0 3.963.994 1.704.98 2.642 2.827.951 1.832.938 4.389V60h-6.052V47.188q.015-2.018-1.022-3.14-1.023-1.122-2.87-1.122-1.236 0-2.187.526a3.7 3.7 0 0 0-1.477 1.534q-.526.995-.54 2.4m21.864 20.796q-1.15 0-2.159-.185-.994-.17-1.648-.44l1.364-4.517q1.065.327 1.918.355.865.028 1.491-.398.64-.426 1.037-1.449l.355-.923-7.827-22.443h6.364l4.517 16.023h.227l4.56-16.023h6.406l-8.48 24.176q-.61 1.761-1.662 3.068a6.8 6.8 0 0 1-2.628 2.031q-1.59.725-3.835.725m37.855-23.779-5.54.341a2.86 2.86 0 0 0-.61-1.278 3.25 3.25 0 0 0-1.236-.923q-.753-.355-1.804-.355-1.407 0-2.372.596-.966.583-.966 1.563 0 .78.625 1.32t2.145.867l3.949.796q3.181.653 4.744 2.102t1.562 3.807q0 2.145-1.264 3.764-1.25 1.62-3.437 2.528-2.174.895-5.015.895-4.332 0-6.903-1.804-2.557-1.818-2.997-4.943l5.952-.312q.27 1.32 1.306 2.017 1.038.681 2.657.681 1.59 0 2.557-.61.98-.625.994-1.606-.015-.824-.696-1.349-.682-.54-2.102-.824l-3.779-.753q-3.197-.64-4.758-2.216-1.55-1.575-1.549-4.02 0-2.101 1.137-3.622 1.15-1.52 3.224-2.343 2.088-.825 4.886-.824 4.134 0 6.506 1.747 2.387 1.747 2.784 4.758M869.04 60V38.182h6.051V60zm3.04-24.63q-1.35 0-2.316-.896-.952-.909-.952-2.173 0-1.25.952-2.145.966-.909 2.316-.909 1.348 0 2.301.91.966.893.966 2.144 0 1.264-.966 2.173-.952.895-2.301.895m17.716 25.056q-3.352 0-5.767-1.42-2.4-1.435-3.693-3.978-1.278-2.542-1.278-5.852 0-3.352 1.292-5.88 1.307-2.544 3.708-3.964 2.4-1.434 5.71-1.434 2.855 0 5 1.037t3.395 2.912 1.377 4.403h-5.71q-.241-1.633-1.278-2.628-1.023-1.008-2.685-1.008-1.405 0-2.457.767-1.037.753-1.62 2.201-.582 1.45-.582 3.509 0 2.088.568 3.551.583 1.463 1.634 2.23 1.052.767 2.457.767 1.037 0 1.861-.426a3.6 3.6 0 0 0 1.378-1.236q.554-.823.724-1.974h5.71q-.141 2.5-1.363 4.403-1.208 1.89-3.338 2.955-2.132 1.065-5.043 1.065m19.84-.014q-2.088 0-3.721-.724-1.634-.739-2.585-2.174-.938-1.449-.938-3.608 0-1.818.668-3.054a5.4 5.4 0 0 1 1.818-1.988 8.8 8.8 0 0 1 2.613-1.137 20 20 0 0 1 3.097-.54 78 78 0 0 0 3.068-.369q1.165-.184 1.691-.54.525-.355.525-1.05v-.086q0-1.35-.852-2.088-.838-.738-2.386-.739-1.634 0-2.6.725-.966.71-1.278 1.79l-5.597-.455q.426-1.99 1.676-3.437 1.25-1.464 3.225-2.245 1.988-.795 4.602-.795 1.818 0 3.48.426 1.676.426 2.969 1.32a6.4 6.4 0 0 1 2.059 2.302q.753 1.392.753 3.338V60h-5.738v-3.026h-.171a6.2 6.2 0 0 1-1.406 1.804q-.88.767-2.117 1.208-1.235.426-2.855.426m1.733-4.176q1.335 0 2.358-.526a4.2 4.2 0 0 0 1.605-1.449q.583-.909.583-2.06v-2.315a3.3 3.3 0 0 1-.781.341q-.483.142-1.094.27-.611.114-1.222.213l-1.108.157q-1.065.156-1.861.497-.795.34-1.235.923-.441.568-.441 1.42 0 1.236.895 1.89.909.639 2.301.639m21.3-25.327V60h-6.051V30.91zm14.219 0h7.585l8.011 19.546h.341l8.012-19.546h7.585V60h-5.966V41.065h-.242l-7.528 18.793h-4.062l-7.529-18.864h-.241V60h-5.966zm46.431 29.517q-3.366 0-5.796-1.364-2.414-1.377-3.721-3.892-1.307-2.527-1.307-5.98 0-3.366 1.307-5.909t3.679-3.963q2.386-1.42 5.596-1.42 2.16 0 4.02.696a8.9 8.9 0 0 1 3.263 2.06q1.41 1.377 2.19 3.465.78 2.074.78 4.858v1.662h-18.42v-3.75h12.727q0-1.307-.568-2.315a4.07 4.07 0 0 0-1.577-1.577q-.994-.582-2.315-.582-1.378 0-2.443.639-1.051.625-1.648 1.69-.597 1.051-.611 2.344v3.565q0 1.62.597 2.799.61 1.179 1.718 1.818 1.109.64 2.628.64 1.009 0 1.847-.285a3.8 3.8 0 0 0 1.435-.852q.596-.57.909-1.392l5.601.369c-.29 1.345-.87 2.519-1.75 3.523q-1.307 1.49-3.383 2.33-2.06.823-4.758.823M1007.28 60V38.182h5.77v3.85h.25q.69-1.92 2.28-3.026c1.06-.739 2.33-1.108 3.8-1.108 1.5 0 2.77.374 3.83 1.122q1.575 1.107 2.1 3.011h.22c.45-1.25 1.25-2.249 2.42-2.997 1.17-.758 2.56-1.136 4.16-1.136 2.04 0 3.69.648 4.96 1.946q1.92 1.931 1.92 5.483V60h-6.04V46.52c0-1.212-.32-2.121-.97-2.727-.64-.606-1.45-.91-2.41-.91-1.1 0-1.96.35-2.57 1.052q-.93 1.036-.93 2.741V60h-5.86V46.392q0-1.605-.93-2.557-.9-.951-2.4-.952c-.67 0-1.27.171-1.81.512-.53.331-.96.8-1.27 1.406-.31.597-.47 1.297-.47 2.102V60zm46.34.426c-2.2 0-4.11-.469-5.72-1.406-1.6-.947-2.84-2.263-3.71-3.949-.87-1.695-1.3-3.66-1.3-5.895 0-2.254.43-4.223 1.3-5.909.87-1.695 2.11-3.011 3.71-3.949 1.61-.947 3.52-1.42 5.72-1.42 2.21 0 4.11.473 5.71 1.42 1.61.938 2.85 2.254 3.73 3.949.87 1.686 1.3 3.655 1.3 5.91 0 2.234-.43 4.199-1.3 5.894-.88 1.686-2.12 3.002-3.73 3.949-1.6.937-3.5 1.406-5.71 1.406m.03-4.687c1.01 0 1.84-.284 2.52-.853.67-.577 1.18-1.363 1.52-2.358.35-.994.52-2.125.52-3.395 0-1.268-.17-2.4-.52-3.394-.34-.995-.85-1.78-1.52-2.358-.68-.578-1.51-.867-2.52-.867q-1.515 0-2.55.867c-.69.577-1.2 1.363-1.55 2.358q-.51 1.491-.51 3.395t.51 3.394c.35.995.86 1.78 1.55 2.358q1.035.853 2.55.853M1068.3 60V38.182h5.86v3.807h.23c.4-1.354 1.07-2.377 2-3.068q1.41-1.052 3.24-1.052a9 9 0 0 1 1.91.213v5.37a8 8 0 0 0-1.18-.228q-.75-.099-1.38-.099c-.89 0-1.69.194-2.39.582-.69.38-1.24.91-1.64 1.591q-.6 1.023-.6 2.358V60zm20.76 8.182c-.76 0-1.48-.062-2.15-.185q-1.005-.17-1.65-.44l1.36-4.517q1.065.327 1.92.355c.58.019 1.07-.114 1.49-.398.43-.284.77-.767 1.04-1.449l.35-.923-7.82-22.443h6.36l4.52 16.023h.22l4.56-16.023h6.41l-8.48 24.176c-.41 1.174-.96 2.197-1.66 3.068a6.8 6.8 0 0 1-2.63 2.031q-1.59.725-3.84.725M879.496 93.454q0-5.284 1.406-9.73a26.9 26.9 0 0 1 4.333-8.238h5.781q-1.108 1.406-2.06 3.437a31 31 0 0 0-1.662 4.432 39 39 0 0 0-1.108 5 33 33 0 0 0-.397 5.1q0 3.366.682 6.804.696 3.423 1.875 6.363 1.192 2.94 2.67 4.816h-5.781a26.9 26.9 0 0 1-4.333-8.239q-1.406-4.446-1.406-9.745M894.642 108V78.91h11.477q3.296 0 5.625 1.178 2.343 1.165 3.565 3.31 1.236 2.13 1.236 5.014 0 2.898-1.25 4.986-1.25 2.073-3.622 3.182-2.358 1.108-5.71 1.108h-7.685v-4.944h6.69q1.762 0 2.927-.483t1.732-1.448q.583-.966.583-2.401 0-1.449-.583-2.443-.568-.995-1.747-1.506-1.164-.525-2.94-.525h-4.148V108zm15.71-13.239 7.23 13.239h-6.79l-7.074-13.239zM925.906 108h-6.591l10.043-29.09h7.926L947.312 108h-6.591l-7.287-22.443h-.227zm-.412-11.435h15.568v4.801h-15.568zm25.32-17.656h7.585l8.011 19.545h.341l8.011-19.545h7.586V108h-5.966V89.065h-.242l-7.528 18.793h-4.063l-7.528-18.864h-.242V108h-5.965zM997.5 93.454q0 5.3-1.42 9.745-1.407 4.446-4.318 8.239h-5.782q1.109-1.407 2.06-3.438a31.4 31.4 0 0 0 1.662-4.432q.71-2.414 1.108-5t.398-5.114q0-3.366-.696-6.79-.683-3.436-1.875-6.363-1.18-2.94-2.657-4.815h5.782q2.911 3.792 4.318 8.238 1.42 4.446 1.42 9.73M169.788 197v-28.364h9.583q3.339 0 5.457 1.205 2.133 1.191 3.158 3.227t1.025 4.543-1.025 4.556q-1.01 2.05-3.13 3.269-2.119 1.205-5.429 1.205h-6.869v-3.047h6.758q2.286 0 3.67-.79 1.385-.79 2.008-2.132.637-1.358.637-3.061 0-1.704-.637-3.047-.622-1.343-2.022-2.105-1.398-.776-3.711-.776h-6.039V197zm30.572.499q-2.022 0-3.67-.762-1.648-.775-2.617-2.23-.97-1.468-.97-3.545 0-1.828.72-2.964a5.1 5.1 0 0 1 1.925-1.801 10.1 10.1 0 0 1 2.66-.969 32 32 0 0 1 2.949-.526 134 134 0 0 1 3.144-.374q1.22-.14 1.773-.457.568-.32.568-1.108v-.111q0-2.05-1.122-3.185-1.108-1.136-3.365-1.136-2.341 0-3.67 1.025-1.33 1.024-1.87 2.188l-3.102-1.108q.83-1.94 2.215-3.019a8.3 8.3 0 0 1 3.047-1.524 12.7 12.7 0 0 1 3.269-.443q1.025 0 2.354.25a7.5 7.5 0 0 1 2.59.983q1.26.748 2.091 2.257t.831 4.044V197h-3.268v-2.881h-.166q-.333.693-1.108 1.482t-2.064 1.344q-1.288.554-3.144.554m.499-2.937q1.94 0 3.268-.761 1.344-.762 2.022-1.967a5 5 0 0 0 .693-2.534v-2.992q-.208.25-.914.457-.693.195-1.607.347-.9.138-1.759.249-.845.096-1.371.166-1.273.166-2.382.54-1.093.36-1.773 1.094-.664.72-.664 1.967 0 1.703 1.26 2.576 1.274.858 3.227.858m23.804 10.858q-2.368 0-4.072-.609-1.704-.595-2.839-1.579-1.122-.97-1.787-2.077l2.604-1.828q.442.581 1.122 1.329.679.762 1.855 1.316 1.192.568 3.117.568 2.576 0 4.251-1.247 1.677-1.246 1.676-3.905v-4.321h-.277q-.36.582-1.025 1.44-.65.845-1.883 1.51-1.219.651-3.296.651-2.577 0-4.626-1.219-2.036-1.219-3.227-3.546-1.177-2.326-1.177-5.65 0-3.269 1.149-5.692 1.15-2.438 3.2-3.767 2.05-1.344 4.736-1.344 2.078 0 3.296.693 1.233.678 1.884 1.551.665.858 1.025 1.413h.332v-3.38h3.158v21.882q0 2.743-1.247 4.46-1.233 1.731-3.324 2.534-2.078.817-4.625.817m-.111-11.688q1.966 0 3.324-.901 1.356-.9 2.063-2.59t.707-4.044q0-2.298-.693-4.057t-2.05-2.756q-1.357-.998-3.351-.998-2.077 0-3.463 1.053-1.37 1.053-2.063 2.825-.68 1.773-.679 3.933 0 2.217.693 3.92.706 1.69 2.077 2.659 1.385.956 3.435.956m24.209 3.711q-3.075 0-5.305-1.357-2.215-1.37-3.421-3.823-1.191-2.465-1.191-5.733 0-3.269 1.191-5.762 1.206-2.507 3.352-3.905 2.16-1.413 5.041-1.413a10.1 10.1 0 0 1 3.283.554q1.62.555 2.949 1.801 1.33 1.232 2.119 3.268t.79 5.014v1.385h-16.398v-2.826h13.074q0-1.8-.72-3.213a5.43 5.43 0 0 0-2.022-2.23q-1.302-.816-3.075-.817-1.953 0-3.379.97a6.37 6.37 0 0 0-2.174 2.493 7.3 7.3 0 0 0-.762 3.296v1.883q0 2.41.831 4.086.844 1.662 2.34 2.534 1.496.86 3.477.859 1.287 0 2.326-.36a5 5 0 0 0 1.815-1.108q.761-.748 1.177-1.856l3.157.887a7 7 0 0 1-1.675 2.825q-1.178 1.205-2.909 1.883-1.731.665-3.891.665m34.665-28.807V197h-3.435v-24.763h-.166l-6.925 4.598v-3.49l7.091-4.709zM865.401 197v-28.364h17.007v3.047h-13.572v9.584h12.298v3.047h-12.298V197zm22.218 0v-21.273h3.158v3.213h.221q.582-1.578 2.105-2.562t3.435-.983q.36 0 .9.014t.817.041v3.324a10 10 0 0 0-.761-.124 7.5 7.5 0 0 0-1.233-.097q-1.55 0-2.77.65a4.9 4.9 0 0 0-1.911 1.773q-.693 1.122-.693 2.562V197zm20.771.499q-2.022 0-3.67-.762-1.649-.775-2.618-2.23-.969-1.468-.969-3.545 0-1.828.72-2.964a5.1 5.1 0 0 1 1.925-1.801 10 10 0 0 1 2.659-.969 32 32 0 0 1 2.95-.526q1.938-.25 3.144-.374 1.218-.14 1.772-.457.568-.32.568-1.108v-.111q0-2.05-1.122-3.185-1.107-1.136-3.365-1.136-2.34 0-3.67 1.025t-1.87 2.188l-3.102-1.108q.83-1.94 2.216-3.019a8.3 8.3 0 0 1 3.047-1.524 12.7 12.7 0 0 1 3.268-.443q1.024 0 2.355.25a7.5 7.5 0 0 1 2.589.983q1.261.748 2.092 2.257t.831 4.044V197h-3.269v-2.881h-.166q-.333.693-1.108 1.482t-2.064 1.344q-1.287.554-3.143.554m.498-2.937q1.939 0 3.269-.761 1.342-.762 2.022-1.967a5 5 0 0 0 .692-2.534v-2.992q-.207.25-.914.457-.693.195-1.606.347-.901.138-1.759.249a80 80 0 0 0-1.371.166 12.5 12.5 0 0 0-2.383.54q-1.094.36-1.772 1.094-.665.72-.665 1.967 0 1.703 1.26 2.576 1.274.858 3.227.858M924.105 197v-21.273h3.158v3.324h.277q.665-1.703 2.147-2.645 1.481-.956 3.559-.956 2.105 0 3.504.956 1.413.941 2.202 2.645h.221q.817-1.648 2.452-2.617 1.634-.984 3.919-.984 2.853 0 4.667 1.787 1.815 1.773 1.815 5.526V197h-3.269v-14.237q0-2.355-1.288-3.366-1.287-1.011-3.033-1.011-2.244 0-3.476 1.358-1.233 1.343-1.233 3.407V197h-3.323v-14.57q0-1.814-1.178-2.922-1.176-1.122-3.033-1.122-1.274 0-2.382.679-1.094.678-1.773 1.884-.664 1.19-.664 2.756V197zm42.816.443q-3.075 0-5.305-1.357-2.215-1.37-3.42-3.823-1.191-2.465-1.191-5.733 0-3.269 1.191-5.762 1.205-2.507 3.351-3.905 2.161-1.413 5.041-1.413a10.1 10.1 0 0 1 3.283.554q1.62.555 2.95 1.801 1.329 1.232 2.119 3.268.789 2.036.789 5.014v1.385h-16.398v-2.826h13.074q0-1.8-.72-3.213a5.43 5.43 0 0 0-2.022-2.23q-1.302-.816-3.075-.817-1.952 0-3.379.97a6.4 6.4 0 0 0-2.174 2.493 7.3 7.3 0 0 0-.762 3.296v1.883q0 2.41.831 4.086.844 1.662 2.341 2.534 1.495.86 3.476.859 1.287 0 2.326-.36a5 5 0 0 0 1.815-1.108q.762-.748 1.177-1.856l3.158.887a7 7 0 0 1-1.676 2.825q-1.177 1.205-2.909 1.883-1.731.665-3.891.665m26.355-.443h-3.601l10.415-28.364h3.55L1014.05 197h-3.6l-8.48-23.876h-.22zm1.33-11.08h14.514v3.047h-14.514zM167.045 285v-28.364h9.584q3.337 0 5.457 1.205 2.132 1.191 3.158 3.227t1.025 4.543-1.025 4.556q-1.012 2.05-3.13 3.269-2.12 1.205-5.429 1.205h-6.87v-3.047h6.759q2.285 0 3.67-.79t2.008-2.132q.637-1.358.637-3.061 0-1.704-.637-3.047-.623-1.344-2.022-2.105-1.399-.776-3.711-.776h-6.039V285zm30.573.499q-2.022 0-3.67-.762-1.648-.775-2.618-2.23-.969-1.468-.969-3.545 0-1.828.72-2.964a5.1 5.1 0 0 1 1.925-1.801q1.206-.651 2.659-.969a32 32 0 0 1 2.95-.526 134 134 0 0 1 3.144-.374q1.22-.14 1.773-.457.567-.32.568-1.108v-.111q0-2.05-1.122-3.185-1.108-1.136-3.366-1.136-2.34 0-3.67 1.025-1.329 1.024-1.869 2.188l-3.103-1.108q.831-1.94 2.216-3.019a8.3 8.3 0 0 1 3.047-1.524 12.7 12.7 0 0 1 3.269-.443q1.025 0 2.354.25a7.5 7.5 0 0 1 2.59.983q1.26.747 2.091 2.257t.831 4.044V285H204.1v-2.881h-.167q-.332.693-1.107 1.482-.776.789-2.064 1.344-1.289.554-3.144.554m.499-2.937q1.939 0 3.268-.761 1.344-.762 2.022-1.967a5 5 0 0 0 .693-2.534v-2.992q-.209.25-.914.457-.693.195-1.607.347-.9.138-1.759.249-.844.096-1.371.166-1.274.166-2.382.54-1.094.36-1.773 1.094-.665.72-.665 1.967 0 1.703 1.261 2.576 1.274.858 3.227.858m23.803 10.858q-2.368 0-4.071-.609-1.704-.595-2.839-1.579-1.122-.97-1.787-2.077l2.604-1.828q.443.581 1.121 1.329.679.762 1.856 1.316 1.191.567 3.116.568 2.577 0 4.252-1.247 1.676-1.246 1.676-3.905v-4.321h-.277q-.36.582-1.025 1.44-.651.845-1.883 1.51-1.22.651-3.297.651-2.576 0-4.625-1.219-2.036-1.219-3.227-3.546-1.177-2.326-1.177-5.65 0-3.269 1.149-5.692 1.15-2.438 3.199-3.767 2.05-1.344 4.737-1.344 2.077 0 3.296.693 1.233.678 1.884 1.551.664.858 1.024 1.413h.333v-3.38h3.157v21.882q0 2.743-1.246 4.46-1.233 1.731-3.324 2.534-2.077.817-4.626.817m-.11-11.688q1.967 0 3.323-.901 1.357-.9 2.064-2.59.706-1.689.706-4.044 0-2.298-.692-4.057-.693-1.76-2.05-2.756-1.357-.998-3.351-.998-2.077 0-3.463 1.053-1.371 1.052-2.063 2.825-.68 1.773-.679 3.933 0 2.216.693 3.92.706 1.69 2.077 2.659 1.385.956 3.435.956m24.208 3.711q-3.074 0-5.304-1.357-2.215-1.37-3.421-3.823-1.191-2.464-1.191-5.733t1.191-5.762q1.206-2.507 3.352-3.905 2.16-1.413 5.041-1.413 1.662 0 3.282.554 1.621.555 2.95 1.801 1.33 1.232 2.119 3.268t.79 5.014v1.385h-16.398v-2.826h13.074q0-1.8-.72-3.213a5.43 5.43 0 0 0-2.022-2.23q-1.302-.817-3.075-.817-1.953 0-3.379.97a6.4 6.4 0 0 0-2.175 2.493 7.3 7.3 0 0 0-.761 3.296v1.883q0 2.41.831 4.086.844 1.662 2.34 2.534 1.496.86 3.476.859 1.289 0 2.327-.36a5 5 0 0 0 1.814-1.108q.762-.748 1.178-1.856l3.157.887a7 7 0 0 1-1.676 2.825q-1.177 1.205-2.908 1.883-1.73.666-3.892.665m24.694-.443v-2.493l9.362-10.248a66 66 0 0 0 2.715-3.13q1.067-1.344 1.578-2.521a6.1 6.1 0 0 0 .527-2.493q0-1.495-.72-2.59a4.7 4.7 0 0 0-1.939-1.689q-1.233-.596-2.77-.596-1.635 0-2.853.679a4.67 4.67 0 0 0-1.87 1.869q-.651 1.205-.651 2.826h-3.268q0-2.493 1.149-4.377a8 8 0 0 1 3.13-2.936q1.995-1.053 4.474-1.052 2.492 0 4.418 1.052 1.924 1.053 3.019 2.839 1.094 1.787 1.094 3.975a8.6 8.6 0 0 1-.568 3.061q-.554 1.482-1.939 3.31-1.37 1.814-3.808 4.432l-6.371 6.814v.221h13.184V285zM865.896 285v-28.364h17.007v3.047h-13.572v9.584h12.298v3.047h-12.298V285zm22.218 0v-21.273h3.158v3.213h.221q.582-1.578 2.105-2.562t3.435-.983q.36 0 .9.014t.817.041v3.324a9 9 0 0 0-.761-.124 7.5 7.5 0 0 0-1.233-.097q-1.55 0-2.77.65a4.9 4.9 0 0 0-1.911 1.773q-.692 1.122-.692 2.562V285zm20.771.499q-2.023 0-3.67-.762-1.649-.775-2.618-2.23-.969-1.468-.969-3.545 0-1.828.72-2.964a5.1 5.1 0 0 1 1.925-1.801 10 10 0 0 1 2.659-.969 32 32 0 0 1 2.95-.526q1.938-.25 3.144-.374 1.218-.14 1.772-.457.568-.32.568-1.108v-.111q0-2.05-1.122-3.185-1.107-1.136-3.365-1.136-2.34 0-3.67 1.025t-1.87 2.188l-3.102-1.108q.831-1.94 2.216-3.019a8.3 8.3 0 0 1 3.047-1.524 12.7 12.7 0 0 1 3.268-.443q1.024 0 2.355.25a7.5 7.5 0 0 1 2.589.983q1.261.747 2.092 2.257t.831 4.044V285h-3.269v-2.881h-.166q-.333.693-1.108 1.482t-2.063 1.344q-1.289.554-3.144.554m.498-2.937q1.939 0 3.269-.761 1.342-.762 2.022-1.967a5 5 0 0 0 .692-2.534v-2.992q-.207.25-.914.457a15 15 0 0 1-1.606.347q-.9.138-1.759.249-.844.096-1.371.166-1.275.166-2.382.54-1.095.36-1.773 1.094-.665.72-.665 1.967 0 1.703 1.26 2.576 1.274.858 3.227.858M924.6 285v-21.273h3.158v3.324h.277q.665-1.704 2.147-2.645 1.482-.956 3.559-.956 2.105 0 3.504.956 1.413.942 2.202 2.645h.222q.816-1.648 2.451-2.617 1.634-.984 3.919-.984 2.853 0 4.668 1.787 1.814 1.773 1.814 5.526V285h-3.269v-14.237q0-2.355-1.288-3.366-1.287-1.011-3.033-1.011-2.243 0-3.476 1.358-1.232 1.343-1.232 3.407V285h-3.324v-14.57q0-1.814-1.178-2.922-1.176-1.122-3.033-1.122-1.274 0-2.382.679-1.094.678-1.772 1.884-.666 1.19-.665 2.756V285zm42.816.443q-3.075 0-5.304-1.357-2.217-1.37-3.421-3.823-1.191-2.464-1.191-5.733t1.191-5.762q1.205-2.507 3.351-3.905 2.161-1.413 5.041-1.413 1.662 0 3.283.554 1.62.555 2.95 1.801 1.329 1.232 2.119 3.268.789 2.036.789 5.014v1.385h-16.398v-2.826H972.9q0-1.8-.72-3.213a5.43 5.43 0 0 0-2.022-2.23q-1.302-.817-3.075-.817-1.952 0-3.379.97a6.4 6.4 0 0 0-2.174 2.493 7.3 7.3 0 0 0-.762 3.296v1.883q0 2.41.831 4.086.845 1.662 2.341 2.534 1.496.86 3.476.859 1.288 0 2.327-.36a5 5 0 0 0 1.814-1.108q.762-.748 1.177-1.856l3.158.887a7 7 0 0 1-1.676 2.825q-1.177 1.205-2.908 1.883-1.732.666-3.892.665m25.192-.443v-28.364h9.912q2.97 0 4.89 1.025c1.29.674 2.24 1.584 2.87 2.729.63 1.135.94 2.396.94 3.78 0 1.219-.22 2.226-.65 3.02a5.03 5.03 0 0 1-1.69 1.883 7.6 7.6 0 0 1-2.26 1.025v.277c.87.055 1.74.36 2.62.914s1.61 1.348 2.2 2.382.89 2.299.89 3.795c0 1.422-.32 2.701-.97 3.836q-.975 1.704-3.06 2.701c-1.39.665-3.21.997-5.44.997zm3.435-3.047h6.817q3.36 0 4.77-1.302c.96-.877 1.43-1.939 1.43-3.185 0-.96-.24-1.847-.73-2.659-.49-.822-1.19-1.477-2.09-1.967-.91-.498-1.98-.748-3.22-.748h-6.977zm0-12.852h6.367c1.04 0 1.97-.203 2.8-.61.84-.406 1.51-.978 2-1.717.49-.738.74-1.606.74-2.604 0-1.246-.43-2.303-1.3-3.171-.87-.877-2.24-1.316-4.13-1.316h-6.477zM166.436 375v-28.364h9.584q3.338 0 5.457 1.205 2.132 1.191 3.157 3.227t1.025 4.543-1.025 4.556q-1.01 2.05-3.13 3.269-2.118 1.205-5.429 1.205h-6.869v-3.047h6.759q2.284 0 3.67-.79 1.384-.79 2.008-2.132.637-1.358.637-3.061 0-1.704-.637-3.047-.624-1.344-2.022-2.105-1.4-.776-3.712-.776h-6.038V375zm30.573.499q-2.023 0-3.67-.762-1.649-.775-2.618-2.23-.969-1.468-.969-3.545 0-1.829.72-2.964a5.1 5.1 0 0 1 1.925-1.801q1.205-.651 2.659-.969a32 32 0 0 1 2.95-.526q1.939-.25 3.144-.374 1.218-.14 1.772-.457.568-.32.568-1.108v-.111q0-2.05-1.122-3.185-1.107-1.136-3.365-1.136-2.34 0-3.67 1.025t-1.87 2.188l-3.102-1.108q.831-1.94 2.216-3.019a8.3 8.3 0 0 1 3.047-1.524 12.7 12.7 0 0 1 3.268-.443q1.025 0 2.355.25a7.5 7.5 0 0 1 2.59.983q1.26.747 2.091 2.257t.831 4.044V375h-3.269v-2.881h-.166q-.333.693-1.108 1.482t-2.063 1.344q-1.289.554-3.144.554m.498-2.937q1.939 0 3.269-.761 1.342-.762 2.022-1.967a5 5 0 0 0 .692-2.534v-2.992q-.207.25-.914.457a15 15 0 0 1-1.606.347q-.9.138-1.759.249-.845.096-1.371.166-1.275.166-2.382.54-1.095.36-1.773 1.094-.665.72-.665 1.967 0 1.703 1.26 2.576 1.275.858 3.227.858m23.804 10.858q-2.368 0-4.072-.609-1.703-.595-2.839-1.579-1.122-.97-1.786-2.077l2.603-1.828q.444.581 1.122 1.329.679.762 1.856 1.316 1.191.567 3.116.568 2.576 0 4.252-1.247 1.676-1.246 1.676-3.905v-4.321h-.277q-.36.582-1.025 1.44-.651.845-1.884 1.51-1.218.651-3.296.651-2.575 0-4.626-1.219-2.036-1.219-3.227-3.546-1.176-2.326-1.177-5.65 0-3.269 1.15-5.692 1.149-2.438 3.199-3.767 2.05-1.344 4.736-1.344 2.077 0 3.297.693 1.232.678 1.883 1.551.665.858 1.025 1.413h.332v-3.38h3.158v21.882q0 2.743-1.246 4.46-1.233 1.731-3.324 2.534-2.077.817-4.626.817m-.111-11.688q1.966 0 3.324-.901 1.358-.9 2.064-2.59t.706-4.044q0-2.298-.692-4.057-.693-1.76-2.05-2.756-1.357-.998-3.352-.998-2.078 0-3.462 1.053-1.371 1.052-2.064 2.825-.678 1.773-.678 3.933 0 2.216.692 3.92.707 1.69 2.078 2.659 1.385.956 3.434.956m24.209 3.711q-3.075 0-5.304-1.357-2.217-1.37-3.421-3.823-1.191-2.464-1.191-5.733t1.191-5.762q1.204-2.507 3.351-3.905 2.161-1.413 5.042-1.413 1.662 0 3.282.554 1.62.555 2.95 1.801 1.33 1.232 2.119 3.268t.789 5.014v1.385H237.82v-2.826h13.073q0-1.8-.72-3.213a5.43 5.43 0 0 0-2.022-2.23q-1.302-.817-3.074-.817-1.953 0-3.38.97a6.4 6.4 0 0 0-2.174 2.493 7.3 7.3 0 0 0-.762 3.296v1.883q0 2.41.831 4.086.845 1.662 2.341 2.534 1.496.86 3.476.859 1.288 0 2.327-.36a5 5 0 0 0 1.814-1.108q.762-.748 1.177-1.856l3.158.887a7 7 0 0 1-1.676 2.825q-1.177 1.205-2.908 1.883-1.731.666-3.892.665m34.277-.055q-2.742 0-4.888-.942-2.133-.941-3.394-2.618-1.246-1.689-1.357-3.919h3.49q.111 1.371.942 2.368.831.984 2.174 1.524 1.344.54 2.978.54 1.828 0 3.241-.637 1.412-.638 2.216-1.773.803-1.136.803-2.631 0-1.565-.776-2.756-.775-1.205-2.271-1.884t-3.656-.678h-2.271v-3.047h2.271q1.689 0 2.964-.61 1.287-.609 2.008-1.717.734-1.108.734-2.604 0-1.44-.637-2.506a4.36 4.36 0 0 0-1.801-1.662q-1.15-.596-2.714-.596-1.468 0-2.77.54-1.288.526-2.105 1.537-.817.998-.887 2.41h-3.323q.083-2.23 1.343-3.905 1.26-1.69 3.296-2.632 2.05-.941 4.501-.941 2.631 0 4.515 1.066 1.884 1.053 2.895 2.784a7.3 7.3 0 0 1 1.011 3.739q0 2.396-1.261 4.086-1.246 1.689-3.393 2.34v.222q2.686.443 4.197 2.285 1.509 1.828 1.509 4.529 0 2.313-1.26 4.155-1.247 1.828-3.407 2.88-2.16 1.053-4.917 1.053M166.341 463v-28.364h9.584q3.338 0 5.456 1.205 2.133 1.191 3.158 3.227t1.025 4.543-1.025 4.556q-1.01 2.05-3.13 3.269-2.119 1.205-5.429 1.205h-6.869v-3.047h6.758q2.286 0 3.67-.79 1.386-.79 2.009-2.132.637-1.358.637-3.061 0-1.704-.637-3.047-.624-1.344-2.022-2.105-1.4-.776-3.712-.776h-6.038V463zm30.573.499q-2.022 0-3.671-.762-1.647-.775-2.617-2.23-.97-1.468-.97-3.545 0-1.829.721-2.964a5.1 5.1 0 0 1 1.925-1.801 10 10 0 0 1 2.659-.969 32 32 0 0 1 2.95-.526q1.938-.25 3.144-.374 1.218-.14 1.772-.457.568-.32.568-1.108v-.111q0-2.05-1.122-3.185-1.107-1.136-3.365-1.136-2.341 0-3.67 1.025-1.33 1.024-1.87 2.188l-3.102-1.108q.83-1.94 2.216-3.019a8.3 8.3 0 0 1 3.047-1.524 12.7 12.7 0 0 1 3.268-.443q1.025 0 2.354.25a7.5 7.5 0 0 1 2.59.983q1.26.747 2.092 2.257.831 1.51.831 4.044V463h-3.269v-2.881h-.166q-.333.693-1.108 1.482t-2.064 1.344q-1.287.554-3.143.554m.498-2.937q1.939 0 3.269-.761 1.343-.762 2.022-1.967a5 5 0 0 0 .692-2.534v-2.992q-.207.25-.914.457-.692.195-1.607.347-.9.138-1.758.249-.846.096-1.372.166-1.273.166-2.382.54-1.094.36-1.772 1.094-.665.72-.665 1.967 0 1.703 1.26 2.576 1.274.858 3.227.858m23.804 10.858q-2.368 0-4.072-.609-1.704-.595-2.839-1.579-1.121-.97-1.787-2.077l2.604-1.828q.443.581 1.122 1.329.678.762 1.856 1.316 1.19.567 3.116.568 2.575 0 4.252-1.247 1.675-1.246 1.675-3.905v-4.321h-.277q-.36.582-1.024 1.44-.651.845-1.884 1.51-1.218.651-3.296.651-2.576 0-4.626-1.219-2.036-1.219-3.227-3.546-1.177-2.326-1.177-5.65 0-3.269 1.15-5.692 1.149-2.438 3.199-3.767 2.05-1.344 4.736-1.344 2.078 0 3.296.693 1.233.678 1.884 1.551.665.858 1.025 1.413h.332v-3.38h3.158v21.882q0 2.743-1.247 4.46-1.232 1.731-3.323 2.534-2.077.817-4.626.817m-.111-11.688q1.967 0 3.324-.901 1.358-.9 2.063-2.59.707-1.689.707-4.044 0-2.298-.693-4.057-.692-1.76-2.049-2.756-1.357-.998-3.352-.998-2.078 0-3.462 1.053-1.371 1.052-2.064 2.825-.678 1.773-.679 3.933 0 2.216.693 3.92.706 1.69 2.077 2.659 1.386.956 3.435.956m24.209 3.711q-3.075 0-5.305-1.357-2.215-1.37-3.42-3.823-1.191-2.464-1.191-5.733t1.191-5.762q1.204-2.507 3.351-3.905 2.161-1.413 5.041-1.413 1.663 0 3.283.554 1.62.555 2.95 1.801 1.329 1.232 2.119 3.268.789 2.036.789 5.014v1.385h-16.398v-2.826h13.074q0-1.8-.72-3.213a5.43 5.43 0 0 0-2.022-2.23q-1.302-.817-3.075-.817-1.952 0-3.379.97a6.4 6.4 0 0 0-2.174 2.493 7.3 7.3 0 0 0-.762 3.296v1.883q0 2.41.831 4.086.844 1.662 2.341 2.534 1.496.86 3.476.859 1.287 0 2.327-.36a5 5 0 0 0 1.814-1.108q.762-.748 1.177-1.856l3.158.887a7 7 0 0 1-1.676 2.825q-1.177 1.205-2.908 1.883-1.732.666-3.892.665m24.029-6.26v-2.825l12.464-19.722h2.05v4.377h-1.385l-9.418 14.902v.221h16.786v3.047zm13.35 5.817v-28.364h3.269V463zM714.212 384v-25.455h10.043q2.896 0 4.934 1.107 2.039 1.094 3.108 3.045 1.08 1.938 1.081 4.474t-1.094 4.475q-1.094 1.938-3.169 3.02-2.063 1.081-4.997 1.081h-6.401v-4.313h5.531q1.553 0 2.561-.534 1.018-.547 1.516-1.504.51-.97.51-2.225 0-1.267-.51-2.212-.498-.957-1.516-1.479-1.02-.535-2.586-.535h-3.629V384zm27.493.36q-1.827 0-3.256-.633-1.43-.647-2.262-1.902-.82-1.268-.821-3.157 0-1.591.585-2.672a4.7 4.7 0 0 1 1.591-1.74 7.7 7.7 0 0 1 2.286-.995 17.5 17.5 0 0 1 2.71-.472 70 70 0 0 0 2.685-.323q1.018-.162 1.479-.472.46-.312.46-.92v-.075q0-1.18-.746-1.827-.734-.646-2.088-.646-1.43 0-2.275.634-.845.621-1.118 1.566l-4.897-.398q.372-1.74 1.466-3.008 1.094-1.28 2.822-1.963 1.74-.696 4.027-.696 1.59 0 3.045.372 1.466.373 2.597 1.156a5.6 5.6 0 0 1 1.803 2.014q.658 1.218.658 2.921V384h-5.021v-2.647h-.149a5.4 5.4 0 0 1-1.231 1.578q-.77.672-1.852 1.057-1.08.372-2.498.372m1.517-3.654q1.167 0 2.063-.46a3.65 3.65 0 0 0 1.404-1.267 3.27 3.27 0 0 0 .51-1.803v-2.025a2.9 2.9 0 0 1-.684.298q-.421.124-.957.236-.534.099-1.069.186l-.969.137a6.5 6.5 0 0 0-1.628.435q-.696.298-1.082.808-.385.498-.385 1.243 0 1.081.783 1.653.796.56 2.014.559m21.943 10.851q-2.573 0-4.412-.709-1.827-.696-2.909-1.901t-1.404-2.71l4.897-.659q.224.573.708 1.069.485.498 1.28.796.809.31 1.964.311 1.728 0 2.846-.846 1.132-.833 1.132-2.796v-3.493h-.224a5 5 0 0 1-1.044 1.504q-.696.71-1.79 1.156-1.094.447-2.61.448-2.151 0-3.915-.995-1.753-1.006-2.797-3.07-1.03-2.075-1.031-5.245 0-3.243 1.056-5.419t2.809-3.256a7.26 7.26 0 0 1 3.865-1.081q1.604 0 2.685.546 1.082.535 1.74 1.343a7.2 7.2 0 0 1 1.032 1.566h.199v-3.207h5.257v19.277q0 2.436-1.193 4.077-1.194 1.64-3.306 2.461-2.101.833-4.835.833m.112-11.808q1.28 0 2.162-.634.895-.646 1.368-1.839.484-1.206.484-2.884t-.472-2.908q-.473-1.243-1.367-1.926-.896-.684-2.175-.684-1.305 0-2.2.708-.895.697-1.355 1.939-.46 1.244-.46 2.871 0 1.653.46 2.859.473 1.194 1.355 1.852.895.646 2.2.646m22.136 4.624q-2.946 0-5.071-1.193-2.113-1.206-3.257-3.406-1.143-2.212-1.143-5.232 0-2.946 1.143-5.171t3.22-3.468q2.088-1.242 4.897-1.242 1.888 0 3.517.609a7.8 7.8 0 0 1 2.859 1.802q1.23 1.205 1.914 3.032.683 1.815.683 4.251v1.454h-16.12v-3.281h11.136q0-1.144-.497-2.026a3.55 3.55 0 0 0-1.38-1.379q-.87-.51-2.025-.51-1.206 0-2.138.559a3.93 3.93 0 0 0-1.442 1.479 4.2 4.2 0 0 0-.534 2.051v3.12q0 1.417.522 2.448a3.8 3.8 0 0 0 1.503 1.591q.97.56 2.3.559.882 0 1.616-.248a3.36 3.36 0 0 0 1.255-.746q.522-.497.795-1.218l4.897.323a6.7 6.7 0 0 1-1.528 3.083q-1.144 1.305-2.958 2.038-1.803.721-4.164.721m29.677-.025q-2.784 0-4.959-.957-2.163-.97-3.418-2.66-1.243-1.702-1.28-3.927h5.419q.05.932.609 1.64.571.696 1.516 1.082.944.384 2.126.385 1.23 0 2.175-.435.943-.435 1.479-1.206.534-.77.534-1.777 0-1.02-.572-1.802-.558-.796-1.615-1.243-1.044-.447-2.486-.448h-2.374v-3.952h2.374q1.218 0 2.15-.423.945-.422 1.467-1.168.522-.758.522-1.765 0-.957-.46-1.678a3.04 3.04 0 0 0-1.268-1.143q-.808-.41-1.889-.41-1.094 0-2.001.397a3.5 3.5 0 0 0-1.454 1.106q-.547.722-.585 1.691h-5.158q.038-2.2 1.256-3.878t3.281-2.623q2.076-.957 4.686-.957 2.634 0 4.611.957t3.07 2.586q1.106 1.616 1.094 3.629.012 2.137-1.33 3.567-1.33 1.43-3.468 1.815v.199q2.81.36 4.276 1.951 1.479 1.579 1.466 3.952.012 2.175-1.255 3.866-1.255 1.69-3.468 2.66-2.212.969-5.071.969m29.746.099q-1.815 0-3.294-.683-1.479-.696-2.349-2.001-.87-1.318-.87-3.182 0-1.64.646-2.66a4.57 4.57 0 0 1 1.728-1.616 9.1 9.1 0 0 1 2.386-.87 29 29 0 0 1 2.648-.472q1.74-.224 2.821-.336 1.093-.123 1.591-.41.51-.285.51-.994v-.099q0-1.84-1.007-2.859-.995-1.02-3.02-1.019-2.101 0-3.294.919-1.194.92-1.678 1.964l-2.784-.994q.746-1.74 1.988-2.71a7.5 7.5 0 0 1 2.735-1.367 11.4 11.4 0 0 1 2.933-.397q.92 0 2.113.223a6.8 6.8 0 0 1 2.324.883q1.131.67 1.877 2.026t.746 3.629V384h-2.933v-2.585h-.15q-.298.62-.994 1.33-.696.708-1.852 1.205-1.155.498-2.821.497m.447-2.635q1.74 0 2.933-.683 1.206-.684 1.815-1.765a4.5 4.5 0 0 0 .622-2.275v-2.684q-.187.224-.821.41-.621.174-1.442.311-.807.124-1.578.223-.758.087-1.231.15-1.143.149-2.137.484-.982.324-1.591.982-.597.646-.597 1.765 0 1.529 1.131 2.312 1.144.77 2.896.77m16.59-9.296V384h-2.933v-19.091h2.833v2.983h.249a5.46 5.46 0 0 1 2.038-2.337q1.368-.894 3.53-.894 1.94 0 3.393.795 1.455.783 2.262 2.386.808 1.591.808 4.027V384h-2.933v-11.932q0-2.25-1.168-3.505-1.168-1.268-3.207-1.268-1.404 0-2.511.609-1.094.61-1.727 1.778-.634 1.168-.634 2.834m24.749 11.882q-2.386 0-4.213-1.206-1.827-1.218-2.859-3.43-1.032-2.225-1.032-5.258 0-3.007 1.032-5.22t2.871-3.418 4.251-1.205q1.864 0 2.945.621 1.095.609 1.666 1.392.584.77.907 1.268h.249v-9.397h2.933V384h-2.834v-2.933h-.348a19 19 0 0 1-.92 1.317q-.596.783-1.702 1.405-1.107.609-2.946.609m.398-2.635q1.765 0 2.983-.92 1.218-.932 1.852-2.573.633-1.653.633-3.815 0-2.139-.621-3.742-.621-1.616-1.839-2.51-1.219-.908-3.008-.908-1.865 0-3.108.957-1.23.945-1.851 2.573-.609 1.615-.609 3.63 0 2.038.621 3.703.634 1.653 1.864 2.635 1.243.97 3.083.97m23.403 9.396v-26.25h5.221v3.207h.236a7 7 0 0 1 1.007-1.566q.67-.808 1.74-1.343 1.08-.546 2.684-.546 2.088 0 3.853 1.093 1.765 1.082 2.822 3.269 1.056 2.175 1.056 5.456 0 3.195-1.032 5.395-1.019 2.187-2.784 3.318-1.752 1.119-3.927 1.119-1.542 0-2.623-.51-1.068-.51-1.752-1.28a6.5 6.5 0 0 1-1.044-1.579h-.162v10.217zm5.183-16.704q0 1.703.473 2.97.472 1.268 1.367 1.976.894.696 2.175.696 1.293 0 2.187-.708.896-.721 1.355-1.989.472-1.28.472-2.945 0-1.653-.459-2.909-.46-1.255-1.355-1.964-.895-.708-2.2-.708-1.293 0-2.188.684-.882.683-1.354 1.938t-.473 2.959m22.41 9.905q-1.827 0-3.257-.633-1.429-.647-2.262-1.902-.82-1.268-.82-3.157 0-1.591.584-2.672.585-1.082 1.591-1.74a7.7 7.7 0 0 1 2.287-.995 17.5 17.5 0 0 1 2.71-.472 69 69 0 0 0 2.684-.323q1.02-.162 1.479-.472.46-.312.46-.92v-.075q0-1.18-.746-1.827-.733-.646-2.088-.646-1.43 0-2.274.634-.846.621-1.119 1.566l-4.897-.398q.374-1.74 1.467-3.008 1.093-1.28 2.821-1.963 1.74-.696 4.027-.696 1.591 0 3.045.372 1.467.373 2.598 1.156a5.6 5.6 0 0 1 1.802 2.014q.659 1.218.659 2.921V384h-5.021v-2.647h-.15a5.4 5.4 0 0 1-1.23 1.578 5.7 5.7 0 0 1-1.852 1.057q-1.082.372-2.498.372m1.516-3.654q1.169 0 2.063-.46a3.65 3.65 0 0 0 1.405-1.267q.51-.796.509-1.803v-2.025a2.8 2.8 0 0 1-.683.298q-.423.124-.957.236-.535.099-1.069.186l-.97.137a6.5 6.5 0 0 0-1.628.435q-.696.298-1.081.808-.385.498-.385 1.243 0 1.081.783 1.653.795.56 2.013.559m21.943 10.851q-2.572 0-4.412-.709-1.827-.696-2.908-1.901t-1.405-2.71l4.897-.659q.225.573.709 1.069.485.498 1.28.796.808.31 1.964.311 1.728 0 2.846-.846 1.131-.833 1.131-2.796v-3.493h-.224a5 5 0 0 1-1.044 1.504q-.696.71-1.789 1.156-1.095.447-2.611.448-2.15 0-3.915-.995-1.752-1.006-2.796-3.07-1.032-2.075-1.032-5.245 0-3.243 1.057-5.419t2.809-3.256a7.26 7.26 0 0 1 3.865-1.081q1.604 0 2.685.546 1.082.535 1.74 1.343.67.795 1.031 1.566h.199v-3.207h5.258v19.277q0 2.436-1.194 4.077-1.192 1.64-3.306 2.461-2.1.833-4.835.833m.112-11.808q1.281 0 2.163-.634.895-.646 1.367-1.839.485-1.206.485-2.884t-.472-2.908q-.472-1.243-1.368-1.926-.894-.684-2.175-.684-1.305 0-2.2.708-.895.697-1.354 1.939-.46 1.244-.46 2.871 0 1.653.46 2.859.472 1.194 1.354 1.852.895.646 2.2.646m22.136 4.624q-2.945 0-5.071-1.193-2.113-1.206-3.256-3.406-1.143-2.212-1.144-5.232 0-2.946 1.144-5.171t3.219-3.468q2.088-1.242 4.897-1.242 1.89 0 3.517.609a7.8 7.8 0 0 1 2.859 1.802q1.23 1.205 1.914 3.032.684 1.815.684 4.251v1.454h-16.121v-3.281h11.137q0-1.144-.497-2.026a3.57 3.57 0 0 0-1.38-1.379q-.87-.51-2.026-.51-1.205 0-2.138.559a3.9 3.9 0 0 0-1.441 1.479 4.2 4.2 0 0 0-.535 2.051v3.12q0 1.417.522 2.448a3.8 3.8 0 0 0 1.504 1.591q.97.56 2.299.559.883 0 1.616-.248a3.35 3.35 0 0 0 1.255-.746q.523-.497.796-1.218l4.897.323a6.7 6.7 0 0 1-1.529 3.083q-1.143 1.305-2.958 2.038-1.802.721-4.164.721m19.887-4.847v-4.239l10.62-16.742h3.66v5.867h-2.17l-6.69 10.602v.199h15.1v4.313zm12.21 4.474v-5.767l.1-1.877v-17.811h5.05V384zm27.98.447q-1.815 0-3.3-.683c-.98-.464-1.77-1.131-2.35-2.001q-.87-1.318-.87-3.182c0-1.094.22-1.98.65-2.66a4.6 4.6 0 0 1 1.73-1.616 9 9 0 0 1 2.38-.87c.88-.198 1.76-.356 2.65-.472q1.74-.224 2.82-.336 1.095-.123 1.59-.41.51-.285.51-.994v-.099c0-1.227-.33-2.18-1-2.859-.67-.68-1.67-1.019-3.02-1.019q-2.1 0-3.3.919-1.185.92-1.68 1.964l-2.78-.994c.5-1.16 1.16-2.063 1.99-2.71a7.5 7.5 0 0 1 2.73-1.367c1-.265 1.97-.397 2.94-.397.61 0 1.31.074 2.11.223.8.141 1.58.435 2.32.883.76.447 1.38 1.122 1.88 2.026q.75 1.355.75 3.629V384h-2.94v-2.585h-.15q-.3.62-.99 1.33c-.46.472-1.08.874-1.85 1.205q-1.155.498-2.82.497m.44-2.635q1.74 0 2.94-.683c.8-.456 1.41-1.044 1.81-1.765a4.44 4.44 0 0 0 .62-2.275v-2.684c-.12.149-.4.286-.82.41q-.615.174-1.44.311c-.54.083-1.06.157-1.58.223q-.75.087-1.23.15c-.76.099-1.47.261-2.14.484q-.975.324-1.59.982c-.39.431-.59 1.019-.59 1.765 0 1.019.37 1.79 1.13 2.312.76.514 1.72.77 2.89.77M1059.9 384v-19.091h2.83v2.884h.2q.525-1.417 1.89-2.3c.91-.588 1.94-.882 3.08-.882q.33 0 .81.012c.32.009.57.021.73.038v2.982a8 8 0 0 0-.68-.111 7 7 0 0 0-1.1-.087q-1.395 0-2.49.584c-.72.381-1.29.911-1.72 1.591-.41.671-.62 1.437-.62 2.299V384zm20.45.398q-2.76 0-4.77-1.218c-1.32-.821-2.34-1.964-3.07-3.431-.71-1.475-1.06-3.19-1.06-5.145 0-1.956.35-3.679 1.06-5.171.73-1.5 1.73-2.668 3.01-3.505 1.3-.845 2.8-1.267 4.53-1.267q1.485 0 2.94.497c.97.331 1.85.87 2.65 1.615.8.738 1.43 1.716 1.9 2.934s.71 2.717.71 4.499v1.243h-14.72v-2.536h11.74c0-1.077-.22-2.038-.65-2.883a4.9 4.9 0 0 0-1.81-2.001q-1.17-.734-2.76-.734c-1.17 0-2.18.29-3.04.87a5.8 5.8 0 0 0-1.95 2.238 6.64 6.64 0 0 0-.68 2.958v1.69c0 1.442.25 2.664.74 3.667.51.994 1.21 1.752 2.11 2.274q1.335.771 3.12.771c.77 0 1.46-.108 2.08-.323a4.4 4.4 0 0 0 1.63-.995c.46-.447.81-1.002 1.06-1.665l2.83.795q-.45 1.442-1.5 2.536-1.065 1.081-2.61 1.69c-1.04.398-2.2.597-3.49.597m-352.143 26.787-2.635.745a4.9 4.9 0 0 0-.733-1.28q-.473-.633-1.292-1.044-.821-.41-2.101-.41-1.752 0-2.921.808-1.156.795-1.156 2.026 0 1.094.796 1.727.795.634 2.486 1.057l2.833.696q2.56.621 3.816 1.902 1.255 1.267 1.255 3.268 0 1.641-.944 2.934-.933 1.292-2.61 2.038-1.678.746-3.903.746-2.92 0-4.835-1.268-1.914-1.268-2.424-3.704l2.785-.696q.398 1.542 1.503 2.312 1.12.77 2.921.77 2.05 0 3.257-.87 1.218-.882 1.218-2.112 0-.994-.696-1.666-.696-.684-2.138-1.019l-3.182-.746q-2.623-.621-3.853-1.926-1.218-1.319-1.218-3.294 0-1.615.907-2.859.92-1.242 2.499-1.951 1.59-.708 3.604-.708 2.833 0 4.45 1.242 1.628 1.244 2.311 3.282m13.066-4.276v2.486h-9.893v-2.486zm-7.01-4.574h2.934v18.196q0 1.243.36 1.865.373.609.945.82.583.199 1.23.199.484 0 .796-.05l.497-.099.596 2.635a6 6 0 0 1-.832.223q-.535.125-1.355.125a5.9 5.9 0 0 1-2.436-.535 4.84 4.84 0 0 1-1.964-1.628q-.771-1.094-.771-2.759zm18.973 24.063q-2.585 0-4.536-1.231-1.94-1.23-3.033-3.443-1.081-2.211-1.081-5.17 0-2.984 1.081-5.208 1.094-2.225 3.033-3.455 1.952-1.23 4.536-1.23 2.586 0 4.524 1.23 1.951 1.23 3.033 3.455 1.094 2.224 1.094 5.208 0 2.959-1.094 5.17-1.082 2.213-3.033 3.443-1.938 1.231-4.524 1.231m0-2.635q1.964 0 3.232-1.007t1.877-2.647q.609-1.641.609-3.555t-.609-3.567q-.61-1.653-1.877-2.672-1.268-1.02-3.232-1.02-1.963 0-3.231 1.02-1.268 1.019-1.877 2.672t-.609 3.567.609 3.555q.61 1.64 1.877 2.647 1.268 1.007 3.231 1.007M766.364 426v-19.091h2.834v2.884h.199q.522-1.417 1.889-2.3t3.083-.882q.323 0 .807.012t.734.038v2.982a9 9 0 0 0-.684-.111 7 7 0 0 0-1.106-.087q-1.392 0-2.486.584a4.4 4.4 0 0 0-1.715 1.591q-.621 1.006-.621 2.299V426zm20.446.398q-2.759 0-4.76-1.218-1.989-1.231-3.07-3.431-1.07-2.212-1.069-5.145 0-2.933 1.069-5.171 1.081-2.25 3.008-3.505 1.938-1.267 4.524-1.267a9 9 0 0 1 2.945.497q1.454.497 2.648 1.615 1.193 1.107 1.901 2.934.71 1.827.709 4.499v1.243h-14.716v-2.536h11.733q0-1.615-.646-2.883a4.9 4.9 0 0 0-1.815-2.001q-1.169-.734-2.759-.734-1.753 0-3.033.87a5.7 5.7 0 0 0-1.951 2.238 6.6 6.6 0 0 0-.684 2.958v1.69q0 2.163.746 3.667.757 1.491 2.1 2.274 1.342.771 3.12.771 1.156 0 2.088-.323a4.5 4.5 0 0 0 1.628-.995 4.5 4.5 0 0 0 1.057-1.665l2.834.795a6.3 6.3 0 0 1-1.504 2.536q-1.058 1.081-2.61 1.69-1.554.597-3.493.597m19.576 0q-2.387 0-4.214-1.206-1.827-1.218-2.858-3.43-1.032-2.225-1.032-5.258 0-3.007 1.032-5.22 1.03-2.212 2.871-3.418t4.25-1.205q1.865 0 2.946.621 1.093.609 1.666 1.392.583.77.907 1.268h.248v-9.397h2.934V426h-2.834v-2.933h-.348q-.323.522-.92 1.317-.597.783-1.703 1.405-1.106.609-2.945.609m.397-2.635q1.765 0 2.983-.92 1.218-.932 1.852-2.573.634-1.653.634-3.815 0-2.139-.621-3.742-.622-1.616-1.84-2.51-1.217-.908-3.008-.908-1.864 0-3.107.957-1.23.945-1.852 2.573-.609 1.615-.609 3.63 0 2.038.622 3.703.634 1.653 1.864 2.635 1.243.97 3.082.97M830.759 426v-19.091h2.933V426zm1.491-22.273a2.09 2.09 0 0 1-1.479-.584 1.88 1.88 0 0 1-.609-1.404q0-.82.609-1.405a2.1 2.1 0 0 1 1.479-.584q.858 0 1.467.584.621.585.621 1.405t-.621 1.404a2.04 2.04 0 0 1-1.467.584m9.748 10.789V426h-2.933v-19.091h2.833v2.983h.249a5.46 5.46 0 0 1 2.038-2.337q1.368-.894 3.53-.894 1.94 0 3.393.795 1.455.783 2.262 2.386.808 1.591.808 4.027V426h-2.933v-11.932q0-2.25-1.168-3.505-1.168-1.268-3.207-1.268-1.404 0-2.511.609-1.094.61-1.727 1.778-.634 1.168-.634 2.834m35.686-7.607v2.486h-9.893v-2.486zm-7.009-4.574h2.933v18.196q0 1.243.36 1.865.373.609.945.82.583.199 1.23.199.485 0 .796-.05l.497-.099.596 2.635a6 6 0 0 1-.832.223q-.535.125-1.355.125a5.9 5.9 0 0 1-2.436-.535 4.84 4.84 0 0 1-1.964-1.628q-.77-1.094-.77-2.759zm14.765 12.181V426h-2.933v-25.455h2.933v9.347h.249a5.4 5.4 0 0 1 2.013-2.349q1.355-.882 3.605-.882 1.951 0 3.418.783 1.466.77 2.274 2.373.82 1.592.82 4.052V426h-2.933v-11.932q0-2.274-1.181-3.517-1.168-1.256-3.244-1.256-1.441 0-2.585.609a4.46 4.46 0 0 0-1.79 1.778q-.645 1.168-.646 2.834m25.75 11.882q-2.76 0-4.76-1.218-1.989-1.231-3.07-3.431-1.07-2.212-1.069-5.145 0-2.933 1.069-5.171 1.081-2.25 3.007-3.505 1.94-1.267 4.525-1.267a9 9 0 0 1 2.945.497q1.455.497 2.648 1.615 1.193 1.107 1.901 2.934.71 1.827.709 4.499v1.243h-14.716v-2.536h11.733q0-1.615-.647-2.883a4.87 4.87 0 0 0-1.814-2.001q-1.169-.734-2.759-.734-1.753 0-3.033.87a5.7 5.7 0 0 0-1.951 2.238 6.6 6.6 0 0 0-.684 2.958v1.69q0 2.163.746 3.667.757 1.491 2.1 2.274 1.342.771 3.12.771 1.156 0 2.088-.323a4.5 4.5 0 0 0 1.628-.995 4.5 4.5 0 0 0 1.057-1.665l2.833.795a6.3 6.3 0 0 1-1.503 2.536q-1.057 1.081-2.611 1.69-1.553.597-3.492.597m35.733-15.213-2.635.745a4.9 4.9 0 0 0-.733-1.28q-.472-.633-1.293-1.044-.82-.41-2.1-.41-1.752 0-2.921.808-1.156.795-1.156 2.026 0 1.094.796 1.727.795.634 2.485 1.057l2.834.696q2.56.621 3.816 1.902 1.255 1.267 1.255 3.268a4.85 4.85 0 0 1-.944 2.934q-.933 1.292-2.61 2.038-1.678.746-3.903.746-2.92 0-4.835-1.268-1.914-1.268-2.424-3.704l2.784-.696q.399 1.542 1.504 2.312 1.12.77 2.921.77 2.05 0 3.257-.87 1.218-.882 1.218-2.112 0-.994-.696-1.666-.696-.684-2.138-1.019l-3.182-.746q-2.623-.621-3.853-1.926-1.218-1.319-1.218-3.294 0-1.615.907-2.859.92-1.242 2.498-1.951 1.592-.708 3.605-.708 2.833 0 4.449 1.242 1.628 1.244 2.312 3.282M956.012 426l-5.817-19.091h3.083l4.126 14.617h.199l4.077-14.617h3.132l4.027 14.567h.198l4.127-14.567h3.082L970.43 426h-2.884l-4.176-14.666h-.298L958.895 426zm29.73.447q-1.815 0-3.294-.683-1.479-.696-2.349-2.001-.87-1.318-.87-3.182 0-1.64.647-2.66a4.56 4.56 0 0 1 1.727-1.616 9.1 9.1 0 0 1 2.387-.87q1.317-.297 2.647-.472 1.74-.224 2.821-.336 1.094-.123 1.591-.41.51-.285.51-.994v-.099q0-1.84-1.007-2.859-.995-1.02-3.02-1.019-2.1 0-3.294.919-1.193.92-1.678 1.964l-2.784-.994q.745-1.74 1.989-2.71a7.5 7.5 0 0 1 2.734-1.367 11.4 11.4 0 0 1 2.933-.397q.92 0 2.113.223a6.8 6.8 0 0 1 2.324.883q1.132.67 1.877 2.026t.746 3.629V426h-2.933v-2.585h-.149q-.299.62-.995 1.33-.696.708-1.852 1.205-1.155.498-2.821.497m.447-2.635q1.74 0 2.934-.683 1.205-.684 1.814-1.765a4.5 4.5 0 0 0 .622-2.275v-2.684q-.187.224-.821.41-.62.174-1.441.311a64 64 0 0 1-1.579.223q-.757.087-1.23.15a11.2 11.2 0 0 0-2.138.484q-.982.324-1.591.982-.597.646-.597 1.765 0 1.529 1.132 2.312 1.143.77 2.895.77m13.657 9.347v-26.25h2.834v3.033h.35c.21-.332.51-.754.89-1.268.39-.522.95-.986 1.67-1.392.73-.414 1.71-.621 2.96-.621 1.6 0 3.02.401 4.25 1.205 1.22.804 2.18 1.943 2.87 3.418s1.03 3.215 1.03 5.22c0 2.022-.34 3.775-1.03 5.258-.69 1.475-1.64 2.618-2.86 3.43-1.22.804-2.62 1.206-4.21 1.206-1.23 0-2.21-.203-2.95-.609-.74-.415-1.3-.883-1.7-1.405-.4-.53-.71-.969-.92-1.317h-.25v10.092zm2.884-16.704q0 2.162.63 3.815c.43 1.094 1.04 1.952 1.86 2.573.81.613 1.8.92 2.98.92 1.22 0 2.25-.323 3.07-.97q1.245-.982 1.86-2.635c.42-1.11.64-2.345.64-3.703q0-2.015-.63-3.63c-.4-1.085-1.02-1.943-1.85-2.573q-1.23-.957-3.09-.957c-1.2 0-2.2.303-3.01.908-.81.596-1.42 1.433-1.84 2.51-.41 1.069-.62 2.316-.62 3.742m41.81-5.27-2.63.745a4.9 4.9 0 0 0-.74-1.28q-.465-.633-1.29-1.044-.825-.41-2.1-.41c-1.17 0-2.14.269-2.92.808-.77.53-1.16 1.206-1.16 2.026 0 .729.27 1.305.8 1.727s1.36.775 2.48 1.057l2.84.696c1.7.414 2.98 1.048 3.81 1.902q1.26 1.267 1.26 3.268c0 1.094-.32 2.072-.95 2.934q-.93 1.292-2.61 2.038c-1.11.497-2.42.746-3.9.746q-2.925 0-4.83-1.268-1.92-1.268-2.43-3.704l2.79-.696q.39 1.542 1.5 2.312c.75.514 1.72.77 2.92.77 1.37 0 2.45-.29 3.26-.87.81-.588 1.22-1.292 1.22-2.112a2.24 2.24 0 0 0-.7-1.666c-.46-.456-1.18-.795-2.14-1.019l-3.18-.746c-1.75-.414-3.03-1.056-3.85-1.926-.81-.879-1.22-1.977-1.22-3.294 0-1.077.3-2.03.91-2.859q.915-1.242 2.49-1.951c1.07-.472 2.27-.708 3.61-.708 1.89 0 3.37.414 4.45 1.242q1.62 1.244 2.31 3.282m4.76 21.974v-26.25h2.84v3.033h.35c.21-.332.51-.754.89-1.268.39-.522.95-.986 1.67-1.392.73-.414 1.71-.621 2.95-.621 1.61 0 3.03.401 4.25 1.205q1.845 1.206 2.88 3.418c.68 1.475 1.03 3.215 1.03 5.22 0 2.022-.35 3.775-1.03 5.258-.69 1.475-1.64 2.618-2.86 3.43-1.22.804-2.63 1.206-4.22 1.206q-1.83 0-2.94-.609c-.74-.415-1.31-.883-1.7-1.405-.4-.53-.71-.969-.92-1.317h-.25v10.092zm2.89-16.704q0 2.162.63 3.815c.42 1.094 1.04 1.952 1.85 2.573.82.613 1.81.92 2.99.92 1.22 0 2.25-.323 3.07-.97.82-.654 1.45-1.533 1.86-2.635q.63-1.666.63-3.703c0-1.343-.2-2.553-.62-3.63-.4-1.085-1.02-1.943-1.85-2.573q-1.23-.957-3.09-.957c-1.2 0-2.2.303-3.01.908-.81.596-1.43 1.433-1.84 2.51-.42 1.069-.62 2.316-.62 3.742m24.06 9.992c-1.21 0-2.31-.227-3.29-.683a5.63 5.63 0 0 1-2.35-2.001q-.87-1.318-.87-3.182c0-1.094.21-1.98.64-2.66a4.6 4.6 0 0 1 1.73-1.616 9.1 9.1 0 0 1 2.39-.87q1.32-.297 2.64-.472c1.16-.149 2.11-.261 2.83-.336q1.095-.123 1.59-.41.51-.285.51-.994v-.099c0-1.227-.34-2.18-1.01-2.859-.66-.68-1.67-1.019-3.02-1.019-1.4 0-2.5.306-3.29.919q-1.2.92-1.68 1.964l-2.79-.994c.5-1.16 1.16-2.063 1.99-2.71a7.5 7.5 0 0 1 2.74-1.367c.99-.265 1.97-.397 2.93-.397.61 0 1.32.074 2.11.223.81.141 1.58.435 2.33.883.75.447 1.38 1.122 1.87 2.026q.75 1.355.75 3.629V426h-2.93v-2.585h-.15c-.2.414-.53.857-1 1.33-.46.472-1.08.874-1.85 1.205q-1.155.498-2.82.497m.45-2.635c1.16 0 2.14-.227 2.93-.683.8-.456 1.41-1.044 1.82-1.765a4.54 4.54 0 0 0 .62-2.275v-2.684c-.13.149-.4.286-.82.41-.42.116-.9.22-1.45.311-.53.083-1.06.157-1.57.223q-.765.087-1.23.15c-.77.099-1.48.261-2.14.484q-.99.324-1.59.982-.6.646-.6 1.765c0 1.019.38 1.79 1.13 2.312.76.514 1.73.77 2.9.77m21.41 2.586q-2.685 0-4.62-1.268c-1.3-.845-2.29-2.009-2.99-3.493-.69-1.483-1.04-3.177-1.04-5.083 0-1.939.36-3.65 1.07-5.133.72-1.492 1.72-2.656 3.01-3.493 1.29-.845 2.8-1.267 4.52-1.267q2.01 0 3.63.745a6.95 6.95 0 0 1 2.65 2.088c.68.895 1.11 1.939 1.28 3.132h-2.94c-.22-.87-.72-1.64-1.49-2.311-.76-.68-1.79-1.02-3.08-1.02-1.14 0-2.15.299-3.01.895-.85.589-1.52 1.421-2 2.499-.47 1.068-.71 2.324-.71 3.766 0 1.474.23 2.759.7 3.853.47 1.093 1.13 1.943 1.99 2.547q1.29.908 3.03.908 1.14 0 2.07-.398a4.2 4.2 0 0 0 1.58-1.143c.43-.498.74-1.094.92-1.79h2.94a6.9 6.9 0 0 1-1.23 3.045q-.975 1.342-2.58 2.138c-1.06.522-2.29.783-3.7.783m19.8 0c-1.84 0-3.43-.406-4.76-1.218-1.33-.821-2.35-1.964-3.07-3.431-.71-1.475-1.07-3.19-1.07-5.145 0-1.956.36-3.679 1.07-5.171.72-1.5 1.72-2.668 3.01-3.505 1.29-.845 2.8-1.267 4.52-1.267.99 0 1.98.165 2.95.497q1.455.497 2.64 1.615c.8.738 1.43 1.716 1.91 2.934.47 1.218.7 2.717.7 4.499v1.243h-14.71v-2.536h11.73c0-1.077-.21-2.038-.65-2.883a4.83 4.83 0 0 0-1.81-2.001q-1.17-.734-2.76-.734-1.755 0-3.03.87a5.64 5.64 0 0 0-1.95 2.238 6.5 6.5 0 0 0-.69 2.958v1.69q0 2.163.75 3.667.75 1.491 2.1 2.274 1.335.771 3.12.771c.77 0 1.47-.108 2.09-.323a4.4 4.4 0 0 0 1.62-.995c.46-.447.81-1.002 1.06-1.665l2.84.795c-.3.961-.8 1.807-1.51 2.536q-1.05 1.081-2.61 1.69c-1.03.398-2.2.597-3.49.597m-395.47 42q-2.584 0-4.536-1.231-1.94-1.23-3.033-3.443-1.081-2.211-1.081-5.17 0-2.984 1.081-5.208 1.094-2.225 3.033-3.455 1.952-1.23 4.536-1.23 2.586 0 4.524 1.23 1.952 1.23 3.033 3.455 1.094 2.224 1.094 5.208 0 2.959-1.094 5.17-1.081 2.213-3.033 3.443-1.938 1.231-4.524 1.231m0-2.635q1.965 0 3.232-1.007t1.877-2.647q.609-1.641.609-3.555t-.609-3.567-1.877-2.672-3.232-1.02-3.231 1.02q-1.268 1.019-1.877 2.672t-.609 3.567.609 3.555q.61 1.64 1.877 2.647 1.268 1.007 3.231 1.007m16.062-9.247V468h-2.934v-19.091h2.834v2.983h.249a5.46 5.46 0 0 1 2.038-2.337q1.367-.894 3.53-.894 1.94 0 3.393.795 1.455.783 2.262 2.386.808 1.591.808 4.027V468h-2.933v-11.932q0-2.25-1.168-3.505-1.169-1.268-3.207-1.268-1.404 0-2.511.609-1.094.61-1.727 1.778-.634 1.168-.634 2.834m35.686-7.607v2.486h-9.893v-2.486zm-7.01-4.574h2.934v18.196q0 1.243.36 1.865.373.609.945.82.584.199 1.23.199.485 0 .796-.05l.497-.099.596 2.635a6 6 0 0 1-.832.223q-.535.125-1.355.125a5.9 5.9 0 0 1-2.436-.535 4.84 4.84 0 0 1-1.964-1.628q-.771-1.094-.771-2.759zm14.766 12.181V468h-2.933v-25.455h2.933v9.347h.249a5.4 5.4 0 0 1 2.013-2.349q1.355-.882 3.605-.882 1.95 0 3.418.783 1.466.77 2.274 2.373.82 1.592.82 4.052V468h-2.933v-11.932q0-2.274-1.181-3.517-1.168-1.256-3.244-1.256-1.442 0-2.585.609a4.46 4.46 0 0 0-1.79 1.778q-.645 1.168-.646 2.834m25.75 11.882q-2.76 0-4.76-1.218-1.99-1.231-3.07-3.431-1.07-2.212-1.069-5.145 0-2.933 1.069-5.171 1.08-2.25 3.007-3.505 1.94-1.267 4.525-1.267a9 9 0 0 1 2.945.497q1.454.497 2.648 1.615 1.193 1.107 1.901 2.934t.709 4.499v1.243h-14.716v-2.536h11.733q0-1.615-.647-2.883a4.87 4.87 0 0 0-1.814-2.001q-1.169-.734-2.759-.734-1.753 0-3.033.87a5.73 5.73 0 0 0-1.952 2.238 6.6 6.6 0 0 0-.683 2.958v1.69q0 2.163.746 3.667.757 1.491 2.1 2.274 1.342.771 3.12.771 1.155 0 2.088-.323a4.5 4.5 0 0 0 1.628-.995 4.5 4.5 0 0 0 1.057-1.665l2.833.795a6.3 6.3 0 0 1-1.504 2.536q-1.056 1.081-2.61 1.69-1.553.597-3.492.597m29.419 0q-2.386 0-4.213-1.206-1.827-1.218-2.859-3.43-1.032-2.225-1.032-5.258 0-3.007 1.032-5.22t2.871-3.418q1.84-1.205 4.251-1.205 1.865 0 2.946.621 1.094.609 1.665 1.392.585.77.907 1.268h.249v-9.397h2.933V468h-2.834v-2.933h-.348q-.323.522-.919 1.317-.597.783-1.703 1.405-1.106.609-2.946.609m.398-2.635q1.765 0 2.983-.92 1.218-.932 1.852-2.573.634-1.653.634-3.815 0-2.139-.622-3.742-.621-1.616-1.839-2.51-1.218-.908-3.008-.908-1.865 0-3.107.957-1.231.945-1.852 2.573-.609 1.615-.609 3.63 0 2.038.621 3.703.634 1.653 1.865 2.635 1.242.97 3.082.97M851.643 468v-19.091h2.933V468zm1.491-22.273a2.08 2.08 0 0 1-1.479-.584 1.88 1.88 0 0 1-.609-1.404q0-.82.609-1.405a2.09 2.09 0 0 1 1.479-.584q.858 0 1.467.584.621.585.621 1.405t-.621 1.404a2.04 2.04 0 0 1-1.467.584m20.337 7.458-2.635.745a5 5 0 0 0-.733-1.28q-.473-.633-1.293-1.044-.82-.41-2.1-.41-1.753 0-2.921.808-1.156.795-1.156 2.026 0 1.094.795 1.727.796.634 2.486 1.057l2.834.696q2.56.621 3.816 1.902 1.255 1.267 1.255 3.268a4.85 4.85 0 0 1-.945 2.934q-.931 1.292-2.61 2.038-1.677.746-3.902.746-2.921 0-4.835-1.268t-2.424-3.704l2.784-.696q.398 1.542 1.504 2.312 1.119.77 2.921.77 2.051 0 3.256-.87 1.218-.882 1.218-2.112 0-.994-.696-1.666-.696-.684-2.137-1.019l-3.182-.746q-2.623-.621-3.853-1.926-1.218-1.319-1.218-3.294 0-1.615.907-2.859.92-1.242 2.498-1.951 1.591-.708 3.605-.708 2.833 0 4.449 1.242 1.629 1.244 2.312 3.282m7.498 7.855-.05-3.629h.597l8.352-8.502h3.629l-8.899 8.999h-.248zm-2.735 6.96v-25.455h2.934V468zm12.131 0-7.457-9.446 2.088-2.038L894.094 468zm11.283-3.48-.199 1.342a27 27 0 0 1-.647 3.033 56 56 0 0 1-.882 3.045 90 90 0 0 1-.758 2.274h-2.237l.422-2.1q.261-1.305.522-2.921.274-1.603.448-3.281l.149-1.392zm23.034 3.878q-2.685 0-4.624-1.268-1.94-1.267-2.983-3.493-1.044-2.224-1.044-5.083 0-2.909 1.069-5.133 1.081-2.238 3.008-3.493 1.938-1.267 4.524-1.267 2.013 0 3.629.745 1.616.746 2.647 2.088 1.032 1.342 1.281 3.132h-2.934q-.335-1.305-1.491-2.311-1.144-1.02-3.082-1.02-1.716 0-3.008.895-1.281.883-2.001 2.499-.71 1.603-.709 3.766 0 2.212.696 3.853.709 1.64 1.989 2.547 1.293.908 3.033.908 1.143 0 2.075-.398a4.3 4.3 0 0 0 1.579-1.143 4.4 4.4 0 0 0 .919-1.79h2.934a6.8 6.8 0 0 1-1.231 3.045q-.97 1.342-2.573 2.138-1.59.783-3.703.783m17.413.049q-1.815 0-3.294-.683-1.479-.696-2.349-2.001-.87-1.318-.87-3.182 0-1.64.646-2.66a4.57 4.57 0 0 1 1.728-1.616 9.1 9.1 0 0 1 2.386-.87 29 29 0 0 1 2.647-.472 123 123 0 0 1 2.822-.336q1.093-.123 1.591-.41.509-.285.509-.994v-.099q0-1.84-1.006-2.859-.995-1.02-3.021-1.019-2.1 0-3.293.919-1.194.92-1.678 1.964l-2.784-.994q.746-1.74 1.988-2.71a7.5 7.5 0 0 1 2.735-1.367 11.4 11.4 0 0 1 2.933-.397q.92 0 2.113.223a6.8 6.8 0 0 1 2.324.883q1.131.67 1.877 2.026t.746 3.629V468h-2.934v-2.585h-.149q-.298.62-.994 1.33-.696.708-1.852 1.205t-2.821.497m.447-2.635q1.74 0 2.933-.683 1.206-.684 1.815-1.765a4.5 4.5 0 0 0 .621-2.275v-2.684q-.186.224-.82.41-.621.174-1.442.311-.808.124-1.578.223-.759.087-1.231.15a11.2 11.2 0 0 0-2.137.484q-.982.324-1.591.982-.597.646-.597 1.765 0 1.529 1.131 2.312 1.143.77 2.896.77m16.59-9.296V468h-2.934v-19.091h2.834v2.983h.249a5.46 5.46 0 0 1 2.038-2.337q1.368-.894 3.53-.894 1.94 0 3.393.795 1.453.783 2.262 2.386.808 1.591.808 4.027V468h-2.933v-11.932q0-2.25-1.169-3.505-1.167-1.268-3.206-1.268-1.405 0-2.511.609-1.094.61-1.728 1.778t-.633 2.834m20.125-13.971v2.238q0 1.019-.373 2.175a9 9 0 0 1-1.069 2.225 7.9 7.9 0 0 1-1.69 1.864l-1.591-1.293q.783-1.118 1.355-2.324a5.9 5.9 0 0 0 .584-2.598v-2.287zm12.69 6.364v2.486h-9.893v-2.486zm-7.01-4.574h2.933v18.196q0 1.243.361 1.865.372.609.945.82.584.199 1.23.199.485 0 .795-.05l.498-.099.596 2.635a6 6 0 0 1-.833.223q-.534.125-1.354.125a5.9 5.9 0 0 1-2.436-.535 4.83 4.83 0 0 1-1.964-1.628q-.771-1.094-.771-2.759zm29.763 4.574v2.486h-10.29v-2.486zM1007.5 468v-21.726c0-1.094.25-2.005.77-2.734a4.76 4.76 0 0 1 2-1.641 6.3 6.3 0 0 1 2.6-.547c.72 0 1.3.058 1.76.174q.69.174 1.02.323l-.85 2.536c-.15-.05-.35-.112-.62-.186q-.375-.112-1.02-.112-1.455 0-2.1.733-.63.734-.63 2.15V468zm11.32 0v-19.091h2.93V468zm1.49-22.273a2.08 2.08 0 0 1-1.48-.584 1.86 1.86 0 0 1-.61-1.404c0-.547.2-1.015.61-1.405.41-.389.91-.584 1.48-.584s1.06.195 1.46.584q.63.585.63 1.405t-.63 1.404c-.4.39-.89.584-1.46.584m15.11 3.182v2.486h-9.89v-2.486zm-7.01-4.574h2.94v18.196q0 1.243.36 1.865c.25.406.56.679.94.82q.585.199 1.23.199c.33 0 .59-.017.8-.05.21-.041.37-.075.5-.099l.59 2.635c-.2.074-.47.149-.83.223-.36.083-.81.125-1.36.125-.82 0-1.64-.179-2.43-.535s-1.44-.899-1.97-1.628c-.51-.729-.77-1.649-.77-2.759zM1049.68 468v-19.091h2.93V468zm1.49-22.273c-.57 0-1.06-.194-1.48-.584-.4-.389-.61-.857-.61-1.404s.21-1.015.61-1.405c.42-.389.91-.584 1.48-.584q.855 0 1.47.584c.41.39.62.858.62 1.405s-.21 1.015-.62 1.404q-.615.584-1.47.584m9.75 10.789V468h-2.93v-19.091h2.83v2.983h.25a5.42 5.42 0 0 1 2.04-2.337c.91-.596 2.08-.894 3.53-.894q1.935 0 3.39.795c.97.522 1.72 1.317 2.26 2.386q.81 1.591.81 4.027V468h-2.93v-11.932q0-2.25-1.17-3.505-1.17-1.268-3.21-1.268c-.94 0-1.77.203-2.51.609-.73.406-1.3.999-1.73 1.778q-.63 1.168-.63 2.834M1088.7 468v-25.455h8.6c1.99 0 3.62.34 4.9 1.02 1.27.671 2.22 1.595 2.83 2.771.62 1.177.92 2.515.92 4.015s-.3 2.83-.92 3.99q-.915 1.74-2.82 2.734-1.905.982-4.86.982h-6.96v-2.784h6.86c1.36 0 2.45-.199 3.28-.597.84-.398 1.44-.961 1.82-1.69q.57-1.107.57-2.635 0-1.529-.57-2.672t-1.83-1.765c-.84-.423-1.94-.634-3.32-.634h-5.42V468zm11.98-11.435 6.27 11.435h-3.58l-6.17-11.435zM1112.13 468h-3.23l9.35-25.455h3.18l9.35 25.455h-3.24l-7.6-21.428h-.2zm1.2-9.943h13.02v2.734h-13.02zm21.41-15.512h3.68l8.65 21.13h.3l8.65-21.13h3.68V468h-2.89v-19.339h-.24L1148.61 468h-2.78l-7.96-19.339h-.25V468h-2.88zM506.52 141.455h3.258l7.662 18.714h.264l7.662-18.714h3.259V164h-2.554v-17.129h-.22L518.805 164h-2.466l-7.045-17.129h-.22V164h-2.554zm32.202 22.941q-1.607 0-2.917-.605a5 5 0 0 1-2.081-1.773q-.77-1.166-.77-2.818 0-1.452.572-2.356a4.04 4.04 0 0 1 1.531-1.431 8 8 0 0 1 2.113-.77q1.167-.264 2.345-.419 1.54-.198 2.499-.297.969-.11 1.409-.363.451-.253.451-.881v-.088q0-1.629-.891-2.532-.88-.903-2.675-.902-1.861 0-2.918.814-1.057.815-1.486 1.739l-2.466-.88q.661-1.542 1.762-2.4a6.6 6.6 0 0 1 2.421-1.211 10 10 0 0 1 2.599-.352q.814 0 1.871.198a6 6 0 0 1 2.059.781q1 .595 1.662 1.795.66 1.2.66 3.214V164h-2.598v-2.29h-.132q-.264.55-.88 1.178t-1.641 1.068q-1.023.44-2.499.44m.397-2.334q1.54 0 2.598-.605 1.067-.606 1.607-1.563.55-.958.55-2.015v-2.378q-.165.2-.726.364-.55.153-1.277.275-.715.11-1.398.198-.672.076-1.09.132a10 10 0 0 0-1.894.43q-.869.285-1.409.869-.528.573-.528 1.563 0 1.355 1.002 2.048 1.012.682 2.565.682m12.095 8.279v-23.25h2.51v2.686h.308q.286-.44.793-1.123.518-.693 1.475-1.233.969-.55 2.62-.55 2.136 0 3.765 1.068 1.63 1.067 2.543 3.027.914 1.959.914 4.623 0 2.686-.914 4.657-.913 1.96-2.532 3.038-1.618 1.068-3.732 1.068-1.63 0-2.609-.539-.98-.55-1.508-1.244-.528-.705-.815-1.167h-.22v8.939zm2.554-14.796q0 1.916.562 3.38.561 1.453 1.64 2.279 1.079.814 2.642.814 1.63 0 2.719-.858 1.1-.87 1.651-2.334.562-1.475.562-3.281 0-1.782-.551-3.214-.539-1.442-1.64-2.279-1.09-.847-2.741-.847-1.586 0-2.664.803-1.078.793-1.629 2.224-.55 1.42-.551 3.313m16.337 14.796v-23.25h2.51v2.686h.308q.286-.44.793-1.123.517-.693 1.475-1.233.969-.55 2.62-.55 2.136 0 3.765 1.068 1.63 1.067 2.543 3.027.913 1.959.913 4.623 0 2.686-.913 4.657-.913 1.96-2.532 3.038-1.619 1.068-3.732 1.068-1.63 0-2.609-.539-.98-.55-1.508-1.244-.529-.705-.815-1.167h-.22v8.939zm2.554-14.796q0 1.916.561 3.38.562 1.453 1.641 2.279 1.078.814 2.642.814 1.629 0 2.719-.858 1.1-.87 1.651-2.334.561-1.475.561-3.281 0-1.782-.55-3.214-.54-1.442-1.64-2.279-1.09-.847-2.741-.847-1.586 0-2.664.803-1.08.793-1.63 2.224-.55 1.42-.55 3.313m23.426 8.807q-2.444 0-4.216-1.079-1.762-1.09-2.719-3.038-.947-1.959-.947-4.557t.947-4.58q.957-1.992 2.664-3.104 1.717-1.123 4.007-1.123 1.32 0 2.609.44 1.287.441 2.345 1.431 1.056.98 1.684 2.598t.627 3.985v1.101h-13.034v-2.246h10.392q0-1.43-.572-2.554a4.3 4.3 0 0 0-1.607-1.772q-1.035-.65-2.444-.649-1.552 0-2.686.77a5.1 5.1 0 0 0-1.729 1.982 5.8 5.8 0 0 0-.605 2.62v1.497q0 1.915.66 3.247.672 1.322 1.861 2.015 1.189.682 2.763.682 1.024 0 1.849-.286a4 4 0 0 0 1.443-.88q.605-.595.935-1.476l2.51.705a5.6 5.6 0 0 1-1.332 2.246q-.936.957-2.312 1.497-1.375.528-3.093.528m17.338 0q-2.114 0-3.731-1.068-1.619-1.079-2.532-3.038-.915-1.97-.914-4.657 0-2.664.914-4.623.913-1.96 2.543-3.027t3.764-1.068q1.652 0 2.609.55.969.54 1.476 1.233.517.682.803 1.123h.22v-8.322h2.598V164h-2.51v-2.598h-.308q-.286.462-.814 1.167-.529.693-1.509 1.244-.979.539-2.609.539m.353-2.334q1.563 0 2.642-.814 1.079-.826 1.64-2.279.561-1.464.561-3.38 0-1.893-.55-3.313-.55-1.43-1.629-2.224-1.079-.804-2.664-.803-1.652 0-2.752.847-1.09.837-1.641 2.279-.539 1.432-.539 3.214 0 1.806.55 3.281.562 1.464 1.652 2.334 1.1.858 2.73.858m28.589-14.927v2.202h-8.763v-2.202zm-6.209-4.051h2.598v16.116q0 1.101.319 1.652.33.538.837.726.517.176 1.09.176.43 0 .704-.044l.441-.088.528 2.334a5 5 0 0 1-.737.198q-.474.11-1.2.11a5.2 5.2 0 0 1-2.158-.473 4.3 4.3 0 0 1-1.739-1.442q-.683-.97-.683-2.444zm16.805 21.312q-2.29 0-4.019-1.09-1.716-1.09-2.686-3.049-.957-1.96-.957-4.579 0-2.643.957-4.613.97-1.971 2.686-3.06 1.729-1.09 4.019-1.09t4.007 1.09q1.728 1.089 2.686 3.06.968 1.97.968 4.613 0 2.62-.968 4.579-.958 1.96-2.686 3.049-1.718 1.09-4.007 1.09m0-2.334q1.739 0 2.862-.891 1.122-.892 1.662-2.345t.539-3.148q0-1.696-.539-3.16-.54-1.464-1.662-2.367-1.124-.903-2.862-.902-1.74 0-2.863.902-1.122.903-1.662 2.367t-.539 3.16q0 1.695.539 3.148.54 1.453 1.662 2.345 1.123.891 2.863.891M507.52 228.455h3.258l7.662 18.714h.264l7.662-18.714h3.259V251h-2.554v-17.129h-.22L519.805 251h-2.466l-7.045-17.129h-.22V251h-2.554zm32.202 22.941q-1.607 0-2.917-.605a5 5 0 0 1-2.081-1.773q-.77-1.166-.77-2.818 0-1.452.572-2.356a4.04 4.04 0 0 1 1.531-1.431 8 8 0 0 1 2.113-.77q1.167-.264 2.345-.419 1.54-.198 2.499-.297.969-.11 1.409-.363.451-.253.451-.881v-.088q0-1.629-.891-2.532-.88-.903-2.675-.902-1.861 0-2.918.814-1.057.815-1.486 1.739l-2.466-.88q.661-1.542 1.762-2.4a6.6 6.6 0 0 1 2.421-1.211 10 10 0 0 1 2.599-.352q.814 0 1.871.198a6 6 0 0 1 2.059.781q1 .595 1.662 1.795.66 1.2.66 3.214V251h-2.598v-2.29h-.132q-.264.55-.88 1.178t-1.641 1.068q-1.023.44-2.499.44m.397-2.334q1.54 0 2.598-.605 1.067-.606 1.607-1.563.55-.958.55-2.015v-2.378q-.165.2-.726.364-.55.153-1.277.275-.715.11-1.398.198-.672.076-1.09.132a10 10 0 0 0-1.894.43q-.869.285-1.409.869-.528.573-.528 1.563 0 1.355 1.002 2.048 1.012.682 2.565.682m12.095 8.279v-23.25h2.51v2.686h.308q.286-.44.793-1.123.518-.693 1.475-1.233.969-.55 2.62-.55 2.136 0 3.765 1.068 1.63 1.067 2.543 3.027.914 1.959.914 4.623 0 2.686-.914 4.657-.913 1.96-2.532 3.038-1.618 1.068-3.732 1.068-1.63 0-2.609-.539-.98-.55-1.508-1.244-.528-.705-.815-1.167h-.22v8.939zm2.554-14.796q0 1.916.562 3.38.561 1.453 1.64 2.279 1.079.814 2.642.814 1.63 0 2.719-.858 1.1-.87 1.651-2.334.562-1.475.562-3.281 0-1.782-.551-3.214-.539-1.442-1.64-2.279-1.09-.847-2.741-.847-1.586 0-2.664.803-1.078.793-1.629 2.224-.55 1.42-.551 3.313m16.337 14.796v-23.25h2.51v2.686h.308q.286-.44.793-1.123.517-.693 1.475-1.233.969-.55 2.62-.55 2.136 0 3.765 1.068 1.63 1.067 2.543 3.027.913 1.959.913 4.623 0 2.686-.913 4.657-.913 1.96-2.532 3.038-1.619 1.068-3.732 1.068-1.63 0-2.609-.539-.98-.55-1.508-1.244-.529-.705-.815-1.167h-.22v8.939zm2.554-14.796q0 1.916.561 3.38.562 1.453 1.641 2.279 1.078.814 2.642.814 1.629 0 2.719-.858 1.1-.87 1.651-2.334.561-1.475.561-3.281 0-1.782-.55-3.214-.54-1.442-1.64-2.279-1.09-.847-2.741-.847-1.586 0-2.664.803-1.08.793-1.63 2.224-.55 1.42-.55 3.313m23.426 8.807q-2.444 0-4.216-1.079-1.762-1.09-2.719-3.038-.947-1.959-.947-4.557t.947-4.58q.957-1.992 2.664-3.104 1.717-1.123 4.007-1.123 1.32 0 2.609.44 1.287.441 2.345 1.431 1.056.98 1.684 2.598t.627 3.985v1.101h-13.034v-2.246h10.392q0-1.43-.572-2.554a4.3 4.3 0 0 0-1.607-1.772q-1.035-.65-2.444-.649-1.552 0-2.686.77a5.1 5.1 0 0 0-1.729 1.982 5.8 5.8 0 0 0-.605 2.62v1.497q0 1.915.66 3.247.672 1.322 1.861 2.015 1.189.682 2.763.682 1.024 0 1.849-.286a4 4 0 0 0 1.443-.88q.605-.595.935-1.476l2.51.705a5.6 5.6 0 0 1-1.332 2.246q-.936.957-2.312 1.497-1.375.528-3.093.528m17.338 0q-2.114 0-3.731-1.068-1.619-1.079-2.532-3.038-.915-1.97-.914-4.657 0-2.664.914-4.623.913-1.96 2.543-3.027t3.764-1.068q1.652 0 2.609.55.969.54 1.476 1.233.517.682.803 1.123h.22v-8.322h2.598V251h-2.51v-2.598h-.308q-.286.462-.814 1.167-.529.693-1.509 1.244-.979.539-2.609.539m.353-2.334q1.563 0 2.642-.814 1.079-.826 1.64-2.279.561-1.464.561-3.38 0-1.893-.55-3.313-.55-1.43-1.629-2.224-1.079-.804-2.664-.803-1.652 0-2.752.847-1.09.837-1.641 2.279-.539 1.432-.539 3.214 0 1.806.55 3.281.562 1.464 1.652 2.334 1.1.858 2.73.858m28.589-14.927v2.202h-8.763v-2.202zm-6.209-4.051h2.598v16.116q0 1.101.319 1.652.33.538.837.726.517.176 1.09.176.43 0 .704-.044l.441-.088.528 2.334a5 5 0 0 1-.737.198q-.474.11-1.2.11a5.2 5.2 0 0 1-2.158-.473 4.3 4.3 0 0 1-1.739-1.442q-.683-.97-.683-2.444zm16.805 21.312q-2.29 0-4.019-1.09-1.716-1.09-2.686-3.049-.957-1.96-.957-4.579 0-2.643.957-4.613.97-1.971 2.686-3.06 1.729-1.09 4.019-1.09t4.007 1.09q1.728 1.089 2.686 3.06.968 1.97.968 4.613 0 2.62-.968 4.579-.958 1.96-2.686 3.049-1.718 1.09-4.007 1.09m0-2.334q1.739 0 2.862-.891 1.122-.892 1.662-2.345t.539-3.148q0-1.696-.539-3.16-.54-1.464-1.662-2.367-1.124-.903-2.862-.902-1.74 0-2.863.902-1.122.903-1.662 2.367t-.539 3.16q0 1.695.539 3.148.54 1.453 1.662 2.345 1.123.891 2.863.891"/><path fill="#dbdbdb" d="M609.688 403.909v3.864q-10.443.06-14.186 3.803-3.683 3.683-3.683 14.066v31.634q0 6.58-1.328 11.409-1.328 4.89-4.045 8.09t-6.882 4.769q-4.105 1.57-9.719 1.57v-3.864q6.339 0 10.323-2.294 3.984-2.234 5.856-7.124 1.932-4.829 1.932-12.556v-31.634q0-5.976 1.147-10.082 1.147-4.165 3.682-6.701 2.535-2.595 6.701-3.743 4.166-1.207 10.202-1.207m-39.843-75.341q5.614 0 9.719 1.57 4.166 1.57 6.882 4.769 2.717 3.2 4.045 8.089 1.328 4.83 1.328 11.41v31.634q0 10.383 3.683 14.126 3.743 3.683 14.186 3.743v3.864q-6.036-.061-10.202-1.208-4.166-1.207-6.701-3.743t-3.682-6.64q-1.147-4.166-1.147-10.142v-31.634q0-7.727-1.932-12.557-1.872-4.89-5.856-7.184-3.984-2.293-10.323-2.233zm39.843 75.341v3.864h-13.039v-3.864z"/><path stroke="#dbdbdb" stroke-width="2" d="M1 136h453M712 136h453M1 225h453M712 225h453M1 313h453M1 401h453"/><path stroke="#dbdbdb" stroke-linecap="round" stroke-linejoin="round" stroke-width="4" d="m670.375 164.25 16.25 16.25-16.25 16.25M670.375 253.25l16.25 16.25-16.25 16.25"/><path stroke="#dbdbdb" stroke-width="5" d="M484 180.5h200M484 269.5h200"/></svg>