<svg xmlns="http://www.w3.org/2000/svg" width="1299" height="817" fill="none" viewBox="0 0 1299 817"><rect width="1090" height="142" x="206" y="451" fill="url(#a)" stroke="#dbdbdb" stroke-width="2" rx="27"/><rect width="1090" height="142" x="208" y="1" fill="url(#b)" stroke="#dbdbdb" stroke-width="2" rx="27"/><path fill="#fff" d="M2.528 87V57.91h11.478q3.296 0 5.625 1.178 2.343 1.165 3.565 3.31 1.236 2.13 1.236 5.014 0 2.898-1.25 4.986-1.25 2.073-3.622 3.182-2.358 1.108-5.71 1.108H6.164v-4.944h6.69q1.761 0 2.926-.483t1.733-1.448q.583-.966.583-2.401 0-1.449-.583-2.443-.568-.994-1.747-1.506-1.165-.526-2.94-.526H8.679V87zm15.71-13.239L25.469 87H18.68l-7.074-13.239zM33.794 87h-6.591l10.042-29.09h7.926L55.2 87h-6.591l-7.287-22.443h-.227zm-.412-11.435h15.568v4.802H33.38zM58.7 57.91h7.584l8.012 19.545h.34L82.65 57.91h7.585V87H84.27V68.065h-.242l-7.528 18.793h-4.063l-7.528-18.864h-.242V87H58.7zm40.024 25.71a3.32 3.32 0 0 1-2.415-.994q-.994-.994-.994-2.415 0-1.392.994-2.386a3.32 3.32 0 0 1 2.415-.995q1.365 0 2.387.995 1.022.994 1.022 2.386 0 .938-.483 1.719a3.66 3.66 0 0 1-1.236 1.236 3.25 3.25 0 0 1-1.69.454m0-14.275a3.32 3.32 0 0 1-2.415-.995q-.994-.993-.994-2.414 0-1.393.994-2.373a3.32 3.32 0 0 1 2.415-.994q1.365 0 2.387.995 1.022.98 1.022 2.372a3.23 3.23 0 0 1-.483 1.733 3.54 3.54 0 0 1-1.236 1.221 3.25 3.25 0 0 1-1.69.455M711.46 57.91V87h-6.151V63.747h-.171l-6.661 4.176V62.47l7.201-4.56zm18.078 29.488q-2.244-.014-4.332-.753-2.074-.739-3.722-2.4-1.647-1.663-2.613-4.404-.952-2.742-.952-6.733.015-3.665.838-6.548.838-2.898 2.386-4.915 1.563-2.017 3.736-3.068 2.173-1.065 4.872-1.066 2.913 0 5.142 1.137 2.23 1.122 3.58 3.054a9.3 9.3 0 0 1 1.648 4.332h-6.066q-.355-1.52-1.491-2.386t-2.813-.867q-2.84 0-4.318 2.472-1.463 2.472-1.491 6.719h.199a6.75 6.75 0 0 1 1.761-2.202 8 8 0 0 1 2.543-1.406 9.2 9.2 0 0 1 3.025-.498q2.586 0 4.602 1.222 2.018 1.207 3.182 3.324 1.165 2.115 1.165 4.844 0 2.955-1.378 5.255-1.364 2.302-3.821 3.608-2.444 1.293-5.682 1.279m-.028-4.83q1.42 0 2.543-.682a4.85 4.85 0 0 0 1.761-1.846q.639-1.165.639-2.614t-.639-2.6a4.8 4.8 0 0 0-1.733-1.832q-1.108-.681-2.528-.681-1.066 0-1.975.397a5 5 0 0 0-1.577 1.108 5.3 5.3 0 0 0-1.051 1.648 5.1 5.1 0 0 0-.383 1.974q0 1.407.639 2.571a5.1 5.1 0 0 0 1.761 1.861q1.122.696 2.543.696m43.988-15.255a6.4 6.4 0 0 0-.838-1.833q-.54-.81-1.321-1.364a5.7 5.7 0 0 0-1.762-.866 7.4 7.4 0 0 0-2.173-.298q-2.23 0-3.92 1.108-1.677 1.107-2.614 3.224-.937 2.103-.937 5.142t.923 5.17 2.613 3.253q1.69 1.109 3.992 1.108 2.088 0 3.565-.738 1.492-.753 2.273-2.117.795-1.364.795-3.224l1.25.184h-7.5v-4.63h12.174v3.665q0 3.834-1.62 6.59a11.03 11.03 0 0 1-4.46 4.234q-2.84 1.476-6.505 1.477-4.092 0-7.188-1.804-3.096-1.818-4.83-5.156-1.718-3.353-1.718-7.955 0-3.537 1.022-6.307 1.038-2.784 2.898-4.716a12.5 12.5 0 0 1 4.333-2.94q2.47-1.01 5.355-1.009 2.471 0 4.602.725 2.13.71 3.778 2.017a10.9 10.9 0 0 1 2.713 3.11 10.6 10.6 0 0 1 1.35 3.95zM784.638 87V57.91h11.648q3.21 0 5.355.95 2.144.952 3.224 2.643 1.08 1.675 1.08 3.864 0 1.704-.682 2.997a5.9 5.9 0 0 1-1.875 2.102q-1.18.81-2.699 1.15v.285a6.5 6.5 0 0 1 3.111.937q1.463.867 2.372 2.429.909 1.548.909 3.693 0 2.316-1.151 4.134-1.135 1.803-3.366 2.855-2.23 1.05-5.497 1.051zm6.15-5.028h5.015q2.571 0 3.75-.98 1.179-.994 1.179-2.643 0-1.208-.583-2.13-.582-.924-1.662-1.45-1.066-.525-2.542-.525h-5.157zm0-11.89h4.56q1.264 0 2.244-.44.994-.455 1.563-1.278.582-.825.582-1.975 0-1.575-1.122-2.542-1.109-.966-3.153-.966h-4.674zM18.31 516.276q-.171-1.719-1.463-2.671t-3.509-.952q-1.506 0-2.542.427-1.038.412-1.591 1.15a2.77 2.77 0 0 0-.54 1.676q-.029.782.326 1.364A3.4 3.4 0 0 0 10 518.278q.64.413 1.477.725.839.298 1.79.511l2.614.625q1.903.426 3.494 1.137 1.591.71 2.756 1.747a7.25 7.25 0 0 1 1.804 2.443q.653 1.406.667 3.224-.015 2.671-1.363 4.631-1.335 1.946-3.864 3.026-2.514 1.065-6.065 1.065-3.523 0-6.137-1.08-2.6-1.079-4.062-3.196-1.45-2.13-1.52-5.27h5.952q.099 1.463.838 2.444.754.966 2.002 1.463 1.265.483 2.856.483 1.562 0 2.713-.455 1.164-.454 1.804-1.264.639-.81.639-1.861 0-.98-.582-1.648-.57-.667-1.677-1.136-1.094-.469-2.684-.852l-3.168-.796q-3.68-.894-5.81-2.798t-2.116-5.128q-.014-2.642 1.406-4.616 1.435-1.975 3.935-3.083 2.5-1.107 5.682-1.108 3.238 0 5.653 1.108 2.43 1.108 3.779 3.083 1.35 1.974 1.392 4.574zm26.21 0q-.169-1.719-1.463-2.671-1.291-.952-3.508-.952-1.505 0-2.543.427-1.036.412-1.59 1.15a2.77 2.77 0 0 0-.54 1.676q-.029.782.326 1.364.37.582 1.009 1.008.64.413 1.477.725.838.298 1.79.511l2.614.625a18.4 18.4 0 0 1 3.494 1.137q1.591.71 2.756 1.747a7.25 7.25 0 0 1 1.804 2.443q.653 1.406.667 3.224-.015 2.671-1.363 4.631-1.335 1.946-3.864 3.026-2.514 1.065-6.065 1.065-3.523 0-6.137-1.08-2.6-1.079-4.062-3.196-1.45-2.13-1.52-5.27h5.952q.099 1.463.838 2.444.754.966 2.002 1.463 1.264.483 2.856.483 1.562 0 2.713-.455 1.165-.454 1.804-1.264t.639-1.861q0-.98-.583-1.648-.567-.667-1.676-1.136-1.094-.469-2.684-.852l-3.168-.796q-3.68-.894-5.81-2.798t-2.116-5.128q-.014-2.642 1.406-4.616 1.435-1.975 3.935-3.083 2.5-1.107 5.682-1.108 3.238 0 5.653 1.108 2.43 1.108 3.778 3.083 1.35 1.974 1.392 4.574zM65.264 537H54.95v-29.091h10.398q4.389 0 7.557 1.747 3.168 1.733 4.872 4.986 1.719 3.253 1.719 7.784 0 4.545-1.719 7.813-1.704 3.267-4.9 5.014Q69.693 537 65.262 537m-4.162-5.27h3.906q2.727 0 4.588-.966 1.875-.98 2.813-3.025.951-2.06.951-5.313 0-3.224-.951-5.27-.937-2.045-2.799-3.011-1.86-.966-4.588-.966h-3.92zm26.374 1.889a3.32 3.32 0 0 1-2.415-.994q-.994-.995-.994-2.415 0-1.392.994-2.386a3.32 3.32 0 0 1 2.415-.994q1.365 0 2.387.994t1.022 2.386q0 .938-.483 1.719a3.7 3.7 0 0 1-1.236 1.236 3.25 3.25 0 0 1-1.69.454m0-14.275a3.32 3.32 0 0 1-2.415-.995q-.994-.993-.994-2.414 0-1.392.994-2.373a3.32 3.32 0 0 1 2.415-.994q1.365 0 2.387.994 1.022.981 1.022 2.373 0 .951-.483 1.733a3.55 3.55 0 0 1-1.236 1.221 3.26 3.26 0 0 1-1.69.455M160.26 256.818q-.237-1.997-1.919-3.101t-4.125-1.103q-1.788 0-3.128.578-1.326.577-2.076 1.59a3.8 3.8 0 0 0-.735 2.299q0 1.077.512 1.853.525.762 1.34 1.274a9.6 9.6 0 0 0 1.708.828q.893.315 1.643.512l2.733.736q1.05.276 2.338.762 1.301.487 2.484 1.327a6.8 6.8 0 0 1 1.971 2.129q.774 1.3.775 3.193 0 2.181-1.143 3.941-1.13 1.761-3.311 2.799-2.169 1.038-5.269 1.038-2.89 0-5.006-.933-2.102-.933-3.311-2.601-1.195-1.67-1.354-3.877h3.364q.131 1.525 1.025 2.523.906.986 2.286 1.472a9.3 9.3 0 0 0 2.996.473q1.866 0 3.35-.605 1.485-.617 2.352-1.708.867-1.103.867-2.575 0-1.34-.748-2.181-.75-.841-1.971-1.367a21 21 0 0 0-2.641-.919l-3.311-.946q-3.154-.908-4.993-2.589t-1.84-4.401q0-2.26 1.222-3.942 1.236-1.695 3.311-2.628 2.09-.946 4.665-.946 2.601 0 4.625.933 2.023.92 3.206 2.523 1.195 1.602 1.261 3.639zm8.458 27.75v-27.75h2.996v3.206h.368q.341-.525.946-1.34.617-.827 1.76-1.472 1.156-.657 3.127-.657 2.55 0 4.494 1.275t3.035 3.613q1.09 2.339 1.091 5.519 0 3.206-1.091 5.558-1.09 2.339-3.022 3.626-1.931 1.274-4.454 1.274-1.944 0-3.114-.643-1.17-.657-1.8-1.485a20 20 0 0 1-.972-1.393h-.263v10.669zm3.048-17.659q0 2.286.67 4.034.67 1.734 1.958 2.72 1.288.972 3.153.972 1.945 0 3.246-1.025 1.314-1.038 1.971-2.785.67-1.76.67-3.916 0-2.128-.657-3.837-.644-1.721-1.958-2.719-1.3-1.012-3.272-1.012-1.892 0-3.179.959-1.288.946-1.945 2.654-.657 1.695-.657 3.955m25.438 10.564q-1.919 0-3.482-.723-1.564-.735-2.483-2.115-.92-1.393-.92-3.364 0-1.734.683-2.811a4.8 4.8 0 0 1 1.826-1.709 9.6 9.6 0 0 1 2.523-.919 31 31 0 0 1 2.799-.5 125 125 0 0 1 2.982-.354q1.157-.132 1.682-.434.539-.302.539-1.051v-.105q0-1.945-1.064-3.022-1.051-1.078-3.193-1.078-2.221 0-3.482.973-1.261.972-1.774 2.076l-2.943-1.051q.788-1.84 2.102-2.865a7.9 7.9 0 0 1 2.891-1.445 12 12 0 0 1 3.101-.421q.972 0 2.233.237 1.275.224 2.457.933 1.196.71 1.984 2.141.789 1.433.789 3.837V277h-3.101v-2.733h-.158q-.315.657-1.051 1.406-.735.749-1.958 1.274-1.221.526-2.982.526m.473-2.785q1.84 0 3.101-.723 1.274-.723 1.918-1.866a4.75 4.75 0 0 0 .657-2.404v-2.838q-.197.236-.867.433-.657.184-1.524.329-.855.13-1.669.236-.801.092-1.301.158-1.209.158-2.26.512-1.037.342-1.682 1.038-.63.684-.63 1.866 0 1.616 1.195 2.444 1.21.815 3.062.815m22.635 2.732q-2.838 0-4.887-1.34-2.05-1.34-3.154-3.692t-1.104-5.374q0-3.074 1.13-5.426 1.143-2.366 3.18-3.692 2.05-1.341 4.783-1.341 2.129 0 3.836.789 1.709.788 2.799 2.207 1.09 1.42 1.353 3.311h-3.1q-.356-1.38-1.577-2.444-1.209-1.077-3.259-1.077-1.812 0-3.179.946-1.354.933-2.116 2.641-.749 1.695-.749 3.981 0 2.339.736 4.073.749 1.734 2.102 2.694 1.367.959 3.206.959 1.21 0 2.195-.421a4.5 4.5 0 0 0 1.668-1.208q.684-.79.973-1.892h3.1a7.2 7.2 0 0 1-1.3 3.219q-1.025 1.419-2.72 2.26-1.682.827-3.916.827m20.931 0q-2.917 0-5.032-1.287-2.103-1.3-3.246-3.627-1.13-2.339-1.13-5.439t1.13-5.466q1.143-2.379 3.18-3.705 2.05-1.341 4.783-1.341 1.576 0 3.114.526t2.798 1.708q1.261 1.17 2.011 3.101.749 1.932.749 4.756v1.314h-15.557v-2.68h12.403q0-1.708-.683-3.048a5.15 5.15 0 0 0-1.918-2.116q-1.236-.775-2.917-.775-1.853 0-3.206.92a6.04 6.04 0 0 0-2.063 2.365 6.94 6.94 0 0 0-.723 3.127v1.787q0 2.286.789 3.876.801 1.576 2.22 2.404 1.419.815 3.298.815 1.223 0 2.207-.342a4.7 4.7 0 0 0 1.722-1.051 4.8 4.8 0 0 0 1.117-1.76l2.995.84a6.6 6.6 0 0 1-1.59 2.681q-1.116 1.143-2.759 1.787-1.642.63-3.692.63m36.199-8.671v-11.931h3.1V277h-3.1v-3.416h-.211q-.709 1.537-2.207 2.615-1.498 1.064-3.784 1.064-1.892 0-3.364-.828-1.472-.841-2.312-2.523-.841-1.695-.841-4.27v-12.824h3.101v12.614q0 2.207 1.235 3.521 1.248 1.314 3.179 1.314 1.156 0 2.352-.591 1.21-.591 2.024-1.813.828-1.223.828-3.114m23.075-7.411-2.785.788a5.2 5.2 0 0 0-.775-1.353q-.5-.67-1.367-1.104-.867-.433-2.22-.433-1.854 0-3.088.854-1.222.84-1.222 2.142 0 1.155.841 1.826.84.67 2.628 1.117l2.995.736q2.707.656 4.034 2.01 1.327 1.34 1.327 3.455 0 1.735-.998 3.101-.985 1.367-2.76 2.155-1.773.788-4.125.788-3.089 0-5.111-1.34-2.023-1.34-2.563-3.915l2.944-.736q.42 1.63 1.589 2.444 1.183.815 3.088.815 2.168 0 3.443-.92 1.287-.933 1.287-2.234 0-1.052-.736-1.761-.735-.721-2.259-1.077l-3.364-.788q-2.772-.657-4.073-2.037-1.288-1.392-1.288-3.482 0-1.708.959-3.022.972-1.313 2.641-2.063 1.682-.749 3.811-.749 2.996 0 4.703 1.314 1.722 1.315 2.444 3.469m13.498 16.082q-2.917 0-5.033-1.287-2.102-1.3-3.245-3.627-1.13-2.339-1.13-5.439t1.13-5.466q1.143-2.379 3.18-3.705 2.049-1.341 4.782-1.341 1.576 0 3.114.526t2.799 1.708q1.262 1.17 2.01 3.101.749 1.932.749 4.756v1.314h-15.557v-2.68h12.404q0-1.708-.684-3.048a5.14 5.14 0 0 0-1.918-2.116q-1.235-.775-2.917-.775-1.853 0-3.206.92a6.05 6.05 0 0 0-2.063 2.365 6.95 6.95 0 0 0-.722 3.127v1.787q0 2.286.788 3.876.801 1.576 2.221 2.404 1.419.815 3.298.815 1.221 0 2.207-.342a4.7 4.7 0 0 0 1.721-1.051q.723-.71 1.117-1.76l2.996.84a6.65 6.65 0 0 1-1.59 2.681q-1.117 1.143-2.759 1.787-1.643.63-3.692.63m20.694 0q-2.523 0-4.454-1.274-1.932-1.287-3.022-3.626-1.09-2.352-1.091-5.558 0-3.18 1.091-5.519t3.035-3.613 4.493-1.275q1.971 0 3.114.657 1.157.644 1.761 1.472.618.815.959 1.34h.263v-9.933h3.101V277h-2.996v-3.101h-.368q-.342.552-.972 1.393-.632.828-1.8 1.485-1.17.643-3.114.643m.42-2.785q1.866 0 3.154-.972 1.288-.986 1.957-2.72.67-1.748.671-4.034 0-2.26-.657-3.955-.658-1.708-1.945-2.654-1.287-.959-3.18-.959-1.971 0-3.285 1.012-1.3.998-1.957 2.719-.644 1.709-.644 3.837 0 2.155.657 3.916.67 1.747 1.971 2.785 1.314 1.025 3.258 1.025m31.285 2.838q-1.919 0-3.482-.723-1.564-.735-2.483-2.115-.92-1.393-.92-3.364 0-1.734.683-2.811a4.8 4.8 0 0 1 1.826-1.709 9.6 9.6 0 0 1 2.523-.919 31 31 0 0 1 2.799-.5 125 125 0 0 1 2.982-.354q1.157-.132 1.682-.434.539-.302.539-1.051v-.105q0-1.945-1.064-3.022-1.051-1.078-3.193-1.078-2.221 0-3.482.973-1.261.972-1.774 2.076l-2.943-1.051q.788-1.84 2.102-2.865a7.9 7.9 0 0 1 2.891-1.445 12 12 0 0 1 3.101-.421q.972 0 2.233.237 1.275.224 2.457.933 1.196.71 1.984 2.141.789 1.433.789 3.837V277h-3.101v-2.733h-.158q-.315.657-1.051 1.406-.735.749-1.958 1.274-1.222.526-2.982.526m.473-2.785q1.84 0 3.101-.723 1.274-.723 1.918-1.866a4.75 4.75 0 0 0 .657-2.404v-2.838q-.198.236-.867.433-.657.184-1.524.329-.855.13-1.669.236-.801.092-1.301.158-1.209.158-2.26.512-1.038.342-1.682 1.038-.63.684-.63 1.866 0 1.616 1.195 2.444 1.21.815 3.062.815m28.732-13.35-2.786.788a5.2 5.2 0 0 0-.775-1.353q-.5-.67-1.366-1.104-.868-.433-2.221-.433-1.852 0-3.088.854-1.222.84-1.222 2.142 0 1.155.841 1.826.841.67 2.628 1.117l2.996.736q2.706.656 4.034 2.01 1.326 1.34 1.327 3.455 0 1.735-.999 3.101-.986 1.367-2.759 2.155-1.774.788-4.126.788-3.087 0-5.111-1.34t-2.562-3.915l2.943-.736q.42 1.63 1.59 2.444 1.183.815 3.088.815 2.167 0 3.442-.92 1.288-.933 1.288-2.234 0-1.052-.736-1.761-.736-.721-2.26-1.077l-3.364-.788q-2.772-.657-4.073-2.037-1.287-1.392-1.287-3.482 0-1.708.959-3.022.972-1.313 2.641-2.063 1.681-.749 3.81-.749 2.995 0 4.704 1.314 1.72 1.315 2.444 3.469M417 277.473q-1.919 0-3.482-.723-1.564-.735-2.484-2.115-.92-1.393-.919-3.364 0-1.734.683-2.811a4.8 4.8 0 0 1 1.826-1.709 9.6 9.6 0 0 1 2.523-.919 31 31 0 0 1 2.799-.5 125 125 0 0 1 2.982-.354q1.157-.132 1.682-.434.539-.302.539-1.051v-.105q0-1.945-1.064-3.022-1.052-1.078-3.193-1.078-2.221 0-3.482.973-1.261.972-1.774 2.076l-2.943-1.051q.788-1.84 2.102-2.865a7.9 7.9 0 0 1 2.891-1.445 12 12 0 0 1 3.101-.421q.972 0 2.233.237 1.275.224 2.457.933 1.196.71 1.984 2.141.789 1.433.789 3.837V277h-3.101v-2.733h-.158q-.315.657-1.051 1.406t-1.958 1.274q-1.222.526-2.982.526m.473-2.785q1.84 0 3.101-.723 1.274-.723 1.918-1.866a4.75 4.75 0 0 0 .657-2.404v-2.838q-.198.236-.867.433-.657.184-1.525.329a72 72 0 0 1-1.668.236q-.802.092-1.301.158-1.209.158-2.26.512-1.038.342-1.682 1.038-.63.684-.63 1.866 0 1.616 1.195 2.444 1.21.815 3.062.815m17.537-9.829V277h-3.101v-20.182h2.996v3.154h.263a5.76 5.76 0 0 1 2.155-2.471q1.445-.946 3.731-.946 2.05 0 3.587.841 1.537.828 2.392 2.523.854 1.682.854 4.257V277h-3.101v-12.614q0-2.377-1.235-3.705-1.236-1.34-3.39-1.34-1.485 0-2.654.644-1.156.643-1.827 1.879-.67 1.235-.67 2.995M154.289 322.42q-2.917 0-5.032-1.287-2.102-1.3-3.245-3.627-1.13-2.339-1.13-5.439t1.13-5.466q1.143-2.379 3.179-3.705 2.05-1.341 4.783-1.341 1.577 0 3.114.526t2.799 1.708q1.262 1.17 2.01 3.101.749 1.932.749 4.756v1.314h-15.557v-2.68h12.404q0-1.708-.684-3.048a5.14 5.14 0 0 0-1.918-2.116q-1.235-.775-2.917-.775-1.853 0-3.206.92a6.05 6.05 0 0 0-2.063 2.365 6.95 6.95 0 0 0-.722 3.127v1.787q0 2.286.788 3.876.8 1.576 2.221 2.404 1.419.815 3.297.815 1.222 0 2.208-.342a4.7 4.7 0 0 0 1.721-1.051q.723-.71 1.117-1.76l2.996.84a6.65 6.65 0 0 1-1.59 2.681q-1.117 1.143-2.759 1.787-1.643.63-3.693.63m14.844-20.602 4.836 8.252 4.835-8.252h3.574l-6.517 10.091L182.378 322h-3.574l-4.835-7.831-4.836 7.831h-3.573l6.412-10.091-6.412-10.091zm26.446 0v2.628h-10.458v-2.628zm-7.41-4.835h3.101v19.236q0 1.314.381 1.971.394.643.998.867.618.21 1.301.21.513 0 .841-.053l.526-.105.63 2.786q-.315.119-.88.236-.565.132-1.432.132a6.25 6.25 0 0 1-2.575-.565 5.1 5.1 0 0 1-2.076-1.721q-.816-1.157-.815-2.917zm20.32 25.437q-2.917 0-5.033-1.287-2.102-1.3-3.245-3.627-1.13-2.339-1.13-5.439t1.13-5.466q1.143-2.379 3.18-3.705 2.049-1.341 4.782-1.341 1.577 0 3.114.526t2.799 1.708q1.262 1.17 2.01 3.101.75 1.932.749 4.756v1.314h-15.557v-2.68h12.404q0-1.708-.683-3.048a5.15 5.15 0 0 0-1.919-2.116q-1.234-.775-2.917-.775-1.852 0-3.206.92a6.04 6.04 0 0 0-2.062 2.365 6.94 6.94 0 0 0-.723 3.127v1.787q0 2.286.788 3.876.802 1.576 2.221 2.404 1.419.815 3.298.815 1.221 0 2.207-.342a4.7 4.7 0 0 0 1.721-1.051q.723-.71 1.117-1.76l2.996.84a6.6 6.6 0 0 1-1.59 2.681q-1.117 1.143-2.759 1.787-1.643.63-3.692.63m16.174-12.561V322h-3.101v-20.182h2.996v3.154h.263a5.76 5.76 0 0 1 2.155-2.471q1.445-.946 3.731-.946 2.05 0 3.587.841 1.538.828 2.391 2.523.855 1.682.854 4.257V322h-3.1v-12.614q0-2.377-1.235-3.705-1.236-1.34-3.39-1.34-1.485 0-2.655.644-1.155.643-1.826 1.879-.67 1.235-.67 2.995m32.838-3.521-2.785.788a5.2 5.2 0 0 0-.776-1.353q-.498-.67-1.366-1.104-.867-.433-2.221-.433-1.852 0-3.087.854-1.222.84-1.222 2.142 0 1.155.841 1.826.84.67 2.628 1.117l2.995.736q2.707.656 4.034 2.01 1.327 1.34 1.327 3.455 0 1.735-.998 3.101-.985 1.367-2.76 2.155-1.773.788-4.125.788-3.089 0-5.112-1.34t-2.562-3.915l2.943-.736q.421 1.63 1.59 2.444 1.183.815 3.088.815 2.168 0 3.442-.92 1.288-.933 1.288-2.234 0-1.052-.736-1.761-.736-.721-2.26-1.077l-3.363-.788q-2.772-.657-4.073-2.037-1.288-1.392-1.288-3.482 0-1.708.959-3.022.972-1.313 2.641-2.063 1.682-.749 3.81-.749 2.997 0 4.704 1.314 1.722 1.315 2.444 3.469M262.537 322v-20.182h3.101V322zm1.577-23.545a2.2 2.2 0 0 1-1.564-.618 1.99 1.99 0 0 1-.644-1.485q0-.867.644-1.484a2.2 2.2 0 0 1 1.564-.618q.906 0 1.55.618.657.617.657 1.484t-.657 1.485a2.16 2.16 0 0 1-1.55.618m15.402 23.965q-2.733 0-4.796-1.3-2.05-1.302-3.206-3.64-1.143-2.339-1.143-5.466 0-3.153 1.143-5.505 1.157-2.352 3.206-3.653 2.063-1.3 4.796-1.301t4.783 1.301q2.062 1.3 3.206 3.653 1.155 2.352 1.156 5.505 0 3.127-1.156 5.466-1.144 2.338-3.206 3.64-2.05 1.3-4.783 1.3m0-2.785q2.076 0 3.416-1.064t1.984-2.799q.644-1.734.644-3.758t-.644-3.771q-.643-1.747-1.984-2.825-1.34-1.077-3.416-1.077t-3.416 1.077-1.984 2.825-.644 3.771.644 3.758 1.984 2.799 3.416 1.064m16.979-9.776V322h-3.101v-20.182h2.996v3.154h.263a5.76 5.76 0 0 1 2.155-2.471q1.445-.946 3.731-.946 2.05 0 3.587.841 1.538.828 2.391 2.523.854 1.682.854 4.257V322h-3.1v-12.614q0-2.377-1.235-3.705-1.236-1.34-3.39-1.34-1.485 0-2.654.644-1.156.643-1.827 1.879-.67 1.235-.67 2.995m37.148 12.561q-2.733 0-4.796-1.3-2.05-1.302-3.206-3.64-1.143-2.339-1.143-5.466 0-3.153 1.143-5.505 1.157-2.352 3.206-3.653 2.063-1.3 4.796-1.301t4.783 1.301q2.062 1.3 3.206 3.653 1.155 2.352 1.156 5.505 0 3.127-1.156 5.466-1.144 2.338-3.206 3.64-2.05 1.3-4.783 1.3m0-2.785q2.076 0 3.416-1.064t1.984-2.799q.644-1.734.644-3.758t-.644-3.771q-.643-1.747-1.984-2.825-1.34-1.077-3.416-1.077t-3.416 1.077-1.984 2.825-.644 3.771.644 3.758 1.984 2.799 3.416 1.064m22.865-17.817v2.628h-10.879v-2.628zM348.888 322v-22.967q0-1.735.814-2.891a5.05 5.05 0 0 1 2.116-1.734 6.7 6.7 0 0 1 2.746-.578q1.143 0 1.866.183.721.185 1.077.342l-.893 2.681a15 15 0 0 0-.657-.198q-.408-.117-1.078-.118-1.537 0-2.22.775-.67.776-.67 2.273V322zm22.793 0v-26.909h9.092q3.153 0 5.177 1.077 2.024 1.065 2.996 2.93t.972 4.244-.972 4.218-2.983 2.891q-2.01 1.038-5.137 1.038h-7.358v-2.944h7.253q2.154 0 3.468-.63 1.328-.631 1.919-1.787.604-1.17.604-2.786t-.604-2.825-1.932-1.865q-1.326-.67-3.508-.67h-5.729V322zm12.666-12.088L390.969 322h-3.784l-6.517-12.088zM396.452 322h-3.417l9.881-26.909h3.364L416.16 322h-3.416l-8.041-22.652h-.21zm1.261-10.511h13.77v2.89h-13.77zm22.639-16.398h3.889l9.145 22.337h.315l9.145-22.337h3.889V322h-3.048v-20.445h-.263L435.015 322h-2.943l-8.409-20.445h-.263V322h-3.048zM748.23 778v-26.909h16.135v2.891h-12.877v9.092h11.668v2.89h-11.668V778zm21.078 0v-20.182h2.996v3.048h.21q.552-1.497 1.997-2.43t3.259-.933q.341 0 .854.013.513.014.775.039v3.154a9 9 0 0 0-.722-.118 7 7 0 0 0-1.17-.092q-1.471 0-2.628.617a4.66 4.66 0 0 0-1.813 1.682q-.657 1.064-.657 2.431V778zm21.614.42q-2.916 0-5.032-1.287-2.102-1.3-3.245-3.627-1.13-2.338-1.13-5.439t1.13-5.466q1.143-2.379 3.179-3.705 2.05-1.341 4.783-1.341 1.577 0 3.114.526 1.537.525 2.799 1.708 1.26 1.17 2.01 3.101t.749 4.756v1.314h-15.557v-2.68h12.403q0-1.708-.683-3.048a5.15 5.15 0 0 0-1.918-2.116q-1.236-.775-2.917-.775-1.853 0-3.206.92a6.05 6.05 0 0 0-2.063 2.365 6.94 6.94 0 0 0-.723 3.127v1.787q0 2.286.789 3.876.801 1.576 2.22 2.404 1.42.815 3.298.815 1.223 0 2.208-.342a4.7 4.7 0 0 0 1.721-1.051q.723-.71 1.117-1.76l2.995.84a6.64 6.64 0 0 1-1.589 2.681q-1.117 1.143-2.76 1.787-1.642.63-3.692.63m21.535 0q-2.916 0-5.032-1.287-2.102-1.3-3.245-3.627-1.13-2.338-1.13-5.439t1.13-5.466q1.143-2.379 3.179-3.705 2.05-1.341 4.783-1.341 1.577 0 3.114.526 1.538.525 2.799 1.708 1.262 1.17 2.01 3.101.749 1.932.749 4.756v1.314h-15.557v-2.68h12.404q0-1.708-.684-3.048a5.14 5.14 0 0 0-1.918-2.116q-1.235-.775-2.917-.775-1.853 0-3.206.92a6.05 6.05 0 0 0-2.063 2.365 6.94 6.94 0 0 0-.722 3.127v1.787q0 2.286.788 3.876.801 1.576 2.22 2.404 1.42.815 3.298.815 1.223 0 2.208-.342a4.7 4.7 0 0 0 1.721-1.051q.723-.71 1.117-1.76l2.996.84a6.65 6.65 0 0 1-1.59 2.681q-1.118 1.143-2.759 1.787-1.643.63-3.693.63m37.776-16.082-2.786.788a5.2 5.2 0 0 0-.775-1.353q-.499-.67-1.367-1.104-.867-.433-2.22-.433-1.852 0-3.088.854-1.221.84-1.222 2.142 0 1.155.841 1.826.841.67 2.628 1.117l2.996.736q2.707.656 4.033 2.01 1.328 1.34 1.328 3.455 0 1.735-.999 3.101-.986 1.367-2.759 2.155-1.774.788-4.126.788-3.087 0-5.111-1.34t-2.562-3.915l2.943-.736q.42 1.63 1.59 2.444 1.182.815 3.087.815 2.168 0 3.443-.92 1.287-.933 1.288-2.234 0-1.052-.736-1.761-.736-.721-2.26-1.077l-3.364-.788q-2.772-.657-4.073-2.037-1.288-1.392-1.288-3.482 0-1.708.96-3.022.972-1.313 2.641-2.063 1.681-.749 3.81-.749 2.995 0 4.704 1.314 1.72 1.314 2.444 3.469m5.035 23.23v-27.75h2.996v3.206h.368q.342-.525.946-1.34.617-.828 1.761-1.472 1.156-.657 3.127-.657 2.549 0 4.493 1.275t3.035 3.613q1.09 2.339 1.091 5.519 0 3.206-1.091 5.558-1.09 2.339-3.022 3.626-1.93 1.274-4.454 1.274-1.944 0-3.114-.643-1.168-.657-1.8-1.485a20 20 0 0 1-.972-1.393h-.263v10.669zm3.049-17.659q0 2.286.67 4.034.67 1.734 1.957 2.72 1.288.972 3.154.972 1.944 0 3.245-1.025 1.314-1.038 1.971-2.785.67-1.76.67-3.916 0-2.129-.657-3.837-.644-1.721-1.958-2.719-1.3-1.012-3.271-1.012-1.892 0-3.18.959-1.287.946-1.945 2.654-.656 1.695-.656 3.955m25.437 10.564q-1.918 0-3.482-.723-1.563-.735-2.483-2.115-.92-1.393-.92-3.364 0-1.734.683-2.811a4.8 4.8 0 0 1 1.827-1.709 9.6 9.6 0 0 1 2.522-.919 31 31 0 0 1 2.799-.5q1.84-.236 2.983-.354 1.155-.131 1.681-.434.54-.302.539-1.051v-.105q0-1.945-1.064-3.022-1.051-1.078-3.193-1.078-2.22 0-3.482.973-1.261.972-1.774 2.076l-2.943-1.051q.79-1.84 2.102-2.865a7.9 7.9 0 0 1 2.891-1.445 12 12 0 0 1 3.101-.421q.972 0 2.234.237a7.2 7.2 0 0 1 2.457.933q1.195.71 1.984 2.141.788 1.433.788 3.837V778h-3.101v-2.733h-.157q-.316.657-1.052 1.406t-1.957 1.274-2.983.526m.473-2.785q1.84 0 3.101-.723 1.275-.723 1.918-1.866a4.75 4.75 0 0 0 .657-2.404v-2.838q-.197.236-.867.433-.657.184-1.524.329-.855.13-1.669.236-.801.092-1.301.158-1.208.158-2.26.512-1.038.342-1.681 1.038-.631.684-.631 1.866 0 1.616 1.196 2.444 1.208.815 3.061.815m22.636 2.732q-2.839 0-4.888-1.34t-3.154-3.692q-1.103-2.352-1.103-5.374 0-3.074 1.13-5.426 1.143-2.366 3.179-3.692 2.05-1.341 4.783-1.341 2.129 0 3.837.789 1.707.788 2.798 2.207 1.091 1.42 1.354 3.311h-3.101q-.355-1.38-1.577-2.444-1.209-1.077-3.258-1.077-1.813 0-3.18.946-1.353.933-2.115 2.641-.75 1.695-.749 3.981 0 2.339.735 4.073.75 1.734 2.103 2.694 1.366.959 3.206.959 1.208 0 2.194-.421a4.5 4.5 0 0 0 1.669-1.208 4.65 4.65 0 0 0 .972-1.892h3.101a7.2 7.2 0 0 1-1.301 3.219q-1.025 1.419-2.72 2.26-1.682.827-3.915.827m20.93 0q-2.917 0-5.032-1.287-2.102-1.3-3.245-3.627-1.13-2.338-1.13-5.439t1.13-5.466q1.143-2.379 3.179-3.705 2.05-1.341 4.783-1.341 1.577 0 3.114.526 1.537.525 2.799 1.708 1.261 1.17 2.01 3.101t.749 4.756v1.314h-15.557v-2.68h12.403q0-1.708-.683-3.048a5.14 5.14 0 0 0-1.918-2.116q-1.235-.775-2.917-.775-1.853 0-3.206.92a6.05 6.05 0 0 0-2.063 2.365 6.94 6.94 0 0 0-.722 3.127v1.787q0 2.286.788 3.876.801 1.576 2.22 2.404 1.42.815 3.298.815 1.222 0 2.208-.342a4.7 4.7 0 0 0 1.721-1.051q.723-.71 1.117-1.76l2.996.84a6.65 6.65 0 0 1-1.59 2.681q-1.117 1.143-2.76 1.787-1.641.63-3.692.63M770.729 537v-4.432l10.355-9.588a39 39 0 0 0 2.216-2.301q.909-1.023 1.378-2.003a5 5 0 0 0 .469-2.145q0-1.278-.583-2.201a3.8 3.8 0 0 0-1.591-1.435q-1.008-.511-2.287-.511-1.335 0-2.329.539a3.7 3.7 0 0 0-1.534 1.549q-.54 1.008-.54 2.4h-5.838q0-2.855 1.293-4.957 1.292-2.103 3.622-3.253t5.369-1.151q3.125 0 5.44 1.108 2.33 1.094 3.623 3.04 1.292 1.946 1.292 4.46a8.6 8.6 0 0 1-.653 3.253q-.64 1.605-2.287 3.566-1.648 1.946-4.645 4.673l-4.247 4.162v.199h12.216V537zm24.13-5.114v-4.843l12.145-19.134h4.176v6.705h-2.472l-7.656 12.116v.227h17.259v4.929zM808.822 537v-6.591l.114-2.145v-20.355h5.767V537zm24.439.398q-3.281 0-5.838-1.066-2.543-1.078-3.992-2.94a6.7 6.7 0 0 1-1.448-4.219q0-1.818.823-3.338a7.4 7.4 0 0 1 2.273-2.542 7.5 7.5 0 0 1 3.21-1.307v-.199q-2.33-.469-3.778-2.259-1.449-1.803-1.449-4.19 0-2.259 1.321-4.02 1.321-1.776 3.622-2.784 2.316-1.023 5.256-1.023t5.241 1.023q2.316 1.023 3.637 2.798 1.321 1.762 1.335 4.006-.014 2.4-1.477 4.19t-3.75 2.259v.199a7.36 7.36 0 0 1 3.167 1.307 7.4 7.4 0 0 1 2.273 2.542q.852 1.52.867 3.338a6.76 6.76 0 0 1-1.463 4.219q-1.45 1.861-4.006 2.94-2.542 1.066-5.824 1.066m0-4.517q1.463 0 2.557-.526 1.094-.54 1.704-1.477.625-.952.625-2.188 0-1.264-.639-2.23a4.4 4.4 0 0 0-1.733-1.534q-1.094-.568-2.514-.568-1.406 0-2.514.568A4.37 4.37 0 0 0 829 526.46q-.625.966-.625 2.23 0 1.236.61 2.188.612.937 1.719 1.477 1.108.526 2.557.526m0-12.997q1.221 0 2.173-.498a3.74 3.74 0 0 0 1.492-1.377q.54-.882.54-2.032 0-1.136-.54-1.988a3.7 3.7 0 0 0-1.477-1.35q-.938-.497-2.188-.497-1.236 0-2.187.497a3.7 3.7 0 0 0-1.492 1.35q-.525.852-.526 1.988 0 1.15.54 2.032.54.88 1.492 1.377.952.498 2.173.498m44.311-2.572a6.4 6.4 0 0 0-.838-1.832q-.54-.81-1.321-1.364a5.7 5.7 0 0 0-1.761-.866q-.98-.298-2.174-.298-2.23 0-3.92 1.108-1.677 1.107-2.614 3.224-.937 2.103-.937 5.142t.923 5.171q.924 2.13 2.614 3.252 1.69 1.108 3.991 1.108 2.089 0 3.565-.738 1.492-.753 2.273-2.117.796-1.364.796-3.224l1.25.184h-7.5v-4.63h12.173v3.665q0 3.834-1.619 6.591a11.04 11.04 0 0 1-4.461 4.232q-2.84 1.478-6.505 1.478-4.091 0-7.188-1.804-3.096-1.818-4.829-5.156-1.719-3.353-1.719-7.955 0-3.537 1.023-6.307 1.037-2.784 2.897-4.716a12.5 12.5 0 0 1 4.333-2.94q2.472-1.009 5.355-1.009 2.472 0 4.602.725 2.131.71 3.779 2.017a10.9 10.9 0 0 1 2.713 3.111q1.05 1.79 1.349 3.948zM888.712 537v-29.091h11.648q3.21 0 5.355.952 2.145.951 3.224 2.642 1.08 1.676 1.08 3.863 0 1.705-.682 2.998a5.9 5.9 0 0 1-1.875 2.102q-1.18.81-2.699 1.15v.285a6.5 6.5 0 0 1 3.111.937q1.463.866 2.372 2.429.909 1.548.909 3.693 0 2.316-1.15 4.134-1.137 1.803-3.367 2.855-2.23 1.051-5.497 1.051zm6.151-5.028h5.014q2.571 0 3.75-.981 1.179-.993 1.179-2.642 0-1.207-.583-2.13-.582-.924-1.662-1.449-1.065-.526-2.542-.526h-5.156zm0-11.89h4.559q1.264 0 2.245-.44.993-.455 1.562-1.278.582-.825.582-1.975 0-1.576-1.122-2.542-1.107-.966-3.153-.966h-4.673zM262.421 537.398q-3.28 0-5.838-1.066-2.542-1.078-3.991-2.94a6.7 6.7 0 0 1-1.449-4.219q0-1.818.824-3.338a7.4 7.4 0 0 1 2.272-2.542 7.5 7.5 0 0 1 3.211-1.307v-.199q-2.33-.469-3.779-2.259-1.449-1.803-1.449-4.19 0-2.259 1.321-4.02 1.321-1.776 3.622-2.784 2.316-1.023 5.256-1.023t5.242 1.023q2.314 1.023 3.636 2.798 1.322 1.762 1.335 4.006-.014 2.4-1.477 4.19t-3.75 2.259v.199a7.4 7.4 0 0 1 3.168 1.307 7.4 7.4 0 0 1 2.272 2.542q.852 1.52.867 3.338a6.76 6.76 0 0 1-1.463 4.219q-1.449 1.861-4.006 2.94-2.542 1.066-5.824 1.066m0-4.517q1.464 0 2.557-.526 1.093-.54 1.705-1.477.625-.952.625-2.188 0-1.264-.64-2.23a4.4 4.4 0 0 0-1.733-1.534q-1.094-.568-2.514-.568-1.405 0-2.514.568a4.37 4.37 0 0 0-1.747 1.534q-.625.966-.625 2.23 0 1.236.611 2.188.61.937 1.718 1.477 1.108.526 2.557.526m0-12.997q1.222 0 2.173-.498a3.74 3.74 0 0 0 1.492-1.377q.54-.882.54-2.032 0-1.136-.54-1.988a3.7 3.7 0 0 0-1.477-1.35q-.938-.497-2.188-.497-1.236 0-2.187.497a3.7 3.7 0 0 0-1.492 1.35q-.525.852-.525 1.988 0 1.15.539 2.032.54.88 1.492 1.377.951.498 2.173.498m44.311-2.572a6.4 6.4 0 0 0-.838-1.832q-.54-.81-1.321-1.364a5.7 5.7 0 0 0-1.761-.866q-.98-.298-2.174-.298-2.23 0-3.92 1.108-1.676 1.107-2.614 3.224-.937 2.103-.937 5.142t.923 5.171q.924 2.13 2.614 3.252 1.69 1.108 3.991 1.108 2.088 0 3.566-.738 1.492-.753 2.272-2.117.796-1.364.796-3.224l1.25.184h-7.5v-4.63h12.173v3.665q0 3.834-1.619 6.591a11.04 11.04 0 0 1-4.46 4.232q-2.841 1.478-6.506 1.478-4.09 0-7.188-1.804-3.096-1.818-4.829-5.156-1.719-3.353-1.719-7.955 0-3.537 1.023-6.307 1.036-2.784 2.898-4.716a12.5 12.5 0 0 1 4.332-2.94q2.472-1.009 5.355-1.009 2.472 0 4.602.725 2.131.71 3.779 2.017a10.9 10.9 0 0 1 2.713 3.111 10.6 10.6 0 0 1 1.349 3.948zM317.872 537v-29.091h11.648q3.21 0 5.355.952 2.145.951 3.224 2.642 1.08 1.676 1.08 3.863 0 1.705-.682 2.998a5.9 5.9 0 0 1-1.875 2.102q-1.179.81-2.699 1.15v.285a6.5 6.5 0 0 1 3.111.937q1.463.866 2.372 2.429.909 1.548.909 3.693 0 2.316-1.15 4.134-1.137 1.803-3.367 2.855-2.23 1.051-5.497 1.051zm6.151-5.028h5.014q2.571 0 3.75-.981 1.179-.993 1.179-2.642 0-1.207-.582-2.13-.583-.924-1.662-1.449-1.066-.526-2.543-.526h-5.156zm0-11.89h4.559q1.264 0 2.245-.44.994-.455 1.562-1.278.582-.825.583-1.975 0-1.576-1.123-2.542-1.107-.966-3.153-.966h-4.673z"/><path stroke="#dbdbdb" stroke-width="2" d="M386 451v142"/><path stroke="#fff" stroke-width="2" d="M386 630v49M386 365v49M209 365v49M1297 630v49M385 679h913M385 366H208"/><defs><linearGradient id="a" x1="206" x2="1296" y1="522" y2="522" gradientUnits="userSpaceOnUse"><stop stop-color="#636363" stop-opacity=".1"/><stop offset="1" stop-color="#a2a2a2" stop-opacity=".1"/></linearGradient><linearGradient id="b" x1="208" x2="1298" y1="72" y2="72" gradientUnits="userSpaceOnUse"><stop stop-color="#636363" stop-opacity=".1"/><stop offset="1" stop-color="#a2a2a2" stop-opacity=".1"/></linearGradient></defs></svg>