<svg xmlns="http://www.w3.org/2000/svg" width="698" height="256" fill="none" viewBox="0 0 698 256"><rect width="659" height="97" x="17" y="89" stroke="#dbdbdb" stroke-width="2" rx="27"/><path fill="#fff" d="M242.525 49V19.91h6.15v24.019h12.472V49zm22.695 0V19.91h11.477q3.296 0 5.625 1.178 2.344 1.165 3.565 3.31 1.236 2.13 1.236 5.014 0 2.898-1.25 4.986-1.25 2.073-3.622 3.182-2.358 1.108-5.71 1.108h-7.685v-4.944h6.691q1.76 0 2.926-.483 1.164-.483 1.733-1.449.582-.965.582-2.4 0-1.449-.582-2.443-.569-.994-1.748-1.506-1.164-.526-2.94-.526h-4.148V49zm15.71-13.239L288.16 49h-6.79l-7.073-13.239zm28.509-15.852h6.15v18.892q0 3.182-1.52 5.568-1.506 2.387-4.219 3.722-2.712 1.32-6.321 1.32-3.621 0-6.335-1.32-2.712-1.334-4.219-3.722-1.505-2.386-1.505-5.568V19.91h6.15v18.367q0 1.66.725 2.954a5.3 5.3 0 0 0 2.074 2.031q1.335.74 3.11.739 1.791 0 3.111-.739a5.2 5.2 0 0 0 2.06-2.03q.738-1.294.739-2.955zm46.136 10.185h-6.222q-.17-1.208-.696-2.145a5.5 5.5 0 0 0-1.349-1.62 5.9 5.9 0 0 0-1.904-1.022 7.3 7.3 0 0 0-2.315-.355q-2.258 0-3.935 1.122-1.675 1.108-2.599 3.238-.923 2.117-.923 5.143 0 3.11.923 5.227.937 2.115 2.614 3.196t3.878 1.08q1.235 0 2.286-.327a6 6 0 0 0 1.89-.952 5.5 5.5 0 0 0 1.363-1.548q.554-.91.767-2.074l6.222.028a11.3 11.3 0 0 1-1.207 3.864 11.6 11.6 0 0 1-2.571 3.31q-1.606 1.448-3.836 2.3-2.215.84-5.014.839-3.893 0-6.96-1.762-3.054-1.761-4.83-5.1-1.761-3.337-1.761-8.081 0-4.76 1.79-8.097t4.858-5.085q3.067-1.761 6.903-1.762 2.529 0 4.688.71 2.173.71 3.849 2.075 1.676 1.349 2.727 3.31 1.066 1.959 1.364 4.488m10.518 19.318q-2.088 0-3.721-.724-1.634-.739-2.585-2.174-.938-1.449-.938-3.608 0-1.818.668-3.054a5.4 5.4 0 0 1 1.818-1.988 8.8 8.8 0 0 1 2.614-1.137 20 20 0 0 1 3.096-.54 78 78 0 0 0 3.068-.369q1.165-.184 1.691-.54.525-.355.525-1.05v-.086q0-1.35-.852-2.088-.838-.738-2.386-.739-1.634 0-2.6.725-.966.71-1.278 1.79l-5.597-.455q.426-1.99 1.676-3.437 1.25-1.464 3.225-2.245 1.988-.795 4.602-.795 1.818 0 3.48.426 1.676.426 2.969 1.32a6.4 6.4 0 0 1 2.059 2.302q.753 1.392.753 3.338V49h-5.738v-3.026h-.171a6.2 6.2 0 0 1-1.406 1.804q-.881.767-2.116 1.208-1.236.426-2.856.426m1.733-4.176q1.336 0 2.358-.526a4.2 4.2 0 0 0 1.605-1.449q.583-.909.583-2.06v-2.315a3.3 3.3 0 0 1-.781.341q-.483.142-1.094.27-.611.114-1.222.213l-1.108.157q-1.065.156-1.861.497-.795.34-1.235.923-.441.568-.441 1.42 0 1.236.895 1.89.909.639 2.301.639m25.107 4.19q-3.352 0-5.767-1.42-2.401-1.435-3.693-3.978-1.28-2.542-1.279-5.852 0-3.352 1.293-5.88 1.307-2.544 3.707-3.964 2.401-1.434 5.71-1.434 2.856 0 5 1.037t3.395 2.912 1.378 4.403h-5.71q-.242-1.633-1.278-2.628-1.023-1.008-2.685-1.008-1.407 0-2.457.767-1.038.753-1.62 2.201-.582 1.45-.582 3.509 0 2.088.568 3.551.582 1.463 1.634 2.23 1.05.767 2.457.767 1.036 0 1.861-.426a3.6 3.6 0 0 0 1.378-1.236q.553-.823.724-1.974h5.71q-.142 2.5-1.363 4.403-1.208 1.89-3.339 2.955-2.13 1.065-5.042 1.065m19.67-13.04V49h-6.052V19.91h5.881V31.03h.256q.738-1.932 2.386-3.025 1.648-1.108 4.134-1.108 2.272 0 3.963.994 1.704.98 2.642 2.827.952 1.831.937 4.389V49h-6.051V36.188q.015-2.018-1.023-3.14-1.022-1.122-2.869-1.122-1.236 0-2.187.526-.938.525-1.478 1.534-.525.995-.539 2.4m28.853 13.04q-3.368 0-5.796-1.364-2.415-1.377-3.721-3.892-1.308-2.527-1.307-5.98 0-3.366 1.307-5.909t3.679-3.963q2.385-1.42 5.596-1.42 2.16 0 4.02.696a8.9 8.9 0 0 1 3.267 2.06q1.407 1.377 2.188 3.465.78 2.074.781 4.858v1.662h-18.423v-3.75h12.727q0-1.307-.568-2.315a4.07 4.07 0 0 0-1.577-1.577q-.995-.582-2.315-.582-1.378 0-2.444.639-1.05.625-1.647 1.69-.597 1.051-.611 2.344v3.565q0 1.62.596 2.799a4.38 4.38 0 0 0 1.719 1.818q1.109.64 2.628.64 1.008 0 1.847-.285a3.8 3.8 0 0 0 1.434-.852q.597-.57.909-1.392l5.597.369a7.65 7.65 0 0 1-1.747 3.523q-1.307 1.49-3.381 2.33-2.06.823-4.758.823"/><path fill="#717171" d="M616.224 234v-23.273h2.819V231.5h10.818v2.5zm18 0v-23.273h7.864q2.727 0 4.477.932 1.75.92 2.591 2.534t.841 3.671-.841 3.647q-.84 1.591-2.579 2.5-1.738.898-4.443.898h-6.364v-2.545h6.273q1.863 0 3-.546 1.147-.545 1.659-1.545.522-1.013.522-2.409 0-1.398-.522-2.444-.524-1.045-1.671-1.613-1.147-.58-3.034-.58h-4.954V234zm10.955-10.455L650.906 234h-3.272l-5.637-10.455zm24.787-12.818h2.818v15.409q0 2.387-1.125 4.262-1.114 1.863-3.148 2.943-2.034 1.068-4.772 1.068t-4.773-1.068q-2.034-1.08-3.159-2.943-1.114-1.875-1.114-4.262v-15.409h2.818v15.182q0 1.704.75 3.034.75 1.318 2.137 2.08 1.397.75 3.341.75 1.943 0 3.341-.75 1.397-.762 2.136-2.08.75-1.33.75-3.034zM19.99 210.727h3.364l7.909 19.318h.272l7.91-19.318h3.363V234h-2.636v-17.682h-.227L32.672 234h-2.546l-7.272-17.682h-.228V234H19.99zM48.46 234v-23.273h7.863q2.728 0 4.478.932 1.75.92 2.59 2.534.841 1.614.841 3.671t-.84 3.647q-.84 1.591-2.58 2.5-1.739.898-4.443.898h-6.364v-2.545h6.273q1.863 0 3-.546 1.147-.545 1.66-1.545.522-1.013.522-2.409 0-1.398-.523-2.444-.522-1.045-1.67-1.613-1.148-.58-3.035-.58h-4.954V234zm10.954-10.455L65.141 234h-3.273l-5.637-10.455zM84.2 210.727h2.819v15.409q0 2.387-1.126 4.262-1.113 1.863-3.147 2.943-2.034 1.068-4.773 1.068t-4.773-1.068q-2.034-1.08-3.159-2.943-1.113-1.875-1.113-4.262v-15.409h2.818v15.182q0 1.704.75 3.034.75 1.318 2.136 2.08 1.398.75 3.341.75 1.945 0 3.34-.75 1.4-.762 2.137-2.08.75-1.33.75-3.034z"/><path fill="#fff" d="M76.876 138.773v2.5H66.695v-2.5zm14.72 0v2.5H81.412v-2.5zm14.718 0v2.5H96.132v-2.5zM207.876 138.773v2.5h-10.181v-2.5zm14.719 0v2.5h-10.182v-2.5zm14.719 0v2.5h-10.182v-2.5zM338.876 138.773v2.5h-10.181v-2.5zm14.719 0v2.5h-10.182v-2.5zm14.719 0v2.5h-10.182v-2.5zM469.876 138.773v2.5h-10.181v-2.5zm14.719 0v2.5h-10.182v-2.5zm14.719 0v2.5h-10.182v-2.5zM600.876 138.773v2.5h-10.181v-2.5zm14.719 0v2.5h-10.182v-2.5zm14.719 0v2.5h-10.182v-2.5z"/><path stroke="#dbdbdb" stroke-width="2" d="M151 89v97M282 89v97M413 89v97M544 89v97"/></svg>