<svg xmlns="http://www.w3.org/2000/svg" width="977" height="512" fill="none" viewBox="0 0 977 512"><rect width="659" height="97" x="296" y="89" stroke="#dbdbdb" stroke-width="2" rx="27"/><rect width="659" height="97" x="296" y="345" stroke="#dbdbdb" stroke-width="2" rx="27"/><path fill="#fff" d="M521.525 49V19.91h6.15v24.019h12.472V49zm22.695 0V19.91h11.477q3.296 0 5.625 1.178 2.344 1.165 3.565 3.31 1.236 2.13 1.236 5.014 0 2.898-1.25 4.986-1.25 2.073-3.622 3.182-2.358 1.108-5.71 1.108h-7.685v-4.944h6.691q1.76 0 2.926-.483 1.164-.483 1.733-1.449.582-.965.582-2.4 0-1.449-.582-2.443-.569-.994-1.748-1.506-1.164-.526-2.94-.526h-4.148V49zm15.71-13.239L567.16 49h-6.79l-7.073-13.239zm28.509-15.852h6.15v18.892q0 3.182-1.52 5.568-1.506 2.387-4.219 3.722-2.712 1.32-6.321 1.32-3.621 0-6.335-1.32-2.712-1.334-4.219-3.722-1.505-2.386-1.505-5.568V19.91h6.15v18.367q0 1.66.725 2.954a5.3 5.3 0 0 0 2.074 2.031q1.335.74 3.11.739 1.791 0 3.111-.739a5.2 5.2 0 0 0 2.06-2.03q.738-1.294.739-2.955zm46.136 10.185h-6.222q-.17-1.208-.696-2.145a5.5 5.5 0 0 0-1.349-1.62 5.9 5.9 0 0 0-1.904-1.022 7.3 7.3 0 0 0-2.315-.355q-2.258 0-3.935 1.122-1.675 1.108-2.599 3.238-.923 2.117-.923 5.143 0 3.11.923 5.227.937 2.115 2.614 3.196t3.878 1.08q1.235 0 2.286-.327a6 6 0 0 0 1.89-.952 5.5 5.5 0 0 0 1.363-1.548q.554-.91.767-2.074l6.222.028a11.3 11.3 0 0 1-1.207 3.864 11.6 11.6 0 0 1-2.571 3.31q-1.606 1.448-3.836 2.3-2.215.84-5.014.839-3.893 0-6.96-1.762-3.054-1.761-4.83-5.1-1.761-3.337-1.761-8.081 0-4.76 1.79-8.097t4.858-5.085q3.067-1.761 6.903-1.762 2.529 0 4.688.71 2.173.71 3.849 2.075 1.676 1.349 2.727 3.31 1.066 1.959 1.364 4.488m10.518 19.318q-2.088 0-3.721-.724-1.634-.739-2.585-2.174-.938-1.449-.938-3.608 0-1.818.668-3.054a5.4 5.4 0 0 1 1.818-1.988 8.8 8.8 0 0 1 2.614-1.137 20 20 0 0 1 3.096-.54 78 78 0 0 0 3.068-.369q1.165-.184 1.691-.54.525-.355.525-1.05v-.086q0-1.35-.852-2.088-.838-.738-2.386-.739-1.634 0-2.6.725-.966.71-1.278 1.79l-5.597-.455q.426-1.99 1.676-3.437 1.25-1.464 3.225-2.245 1.988-.795 4.602-.795 1.818 0 3.48.426 1.676.426 2.969 1.32a6.4 6.4 0 0 1 2.059 2.302q.753 1.392.753 3.338V49h-5.738v-3.026h-.171a6.2 6.2 0 0 1-1.406 1.804q-.881.767-2.116 1.208-1.236.426-2.856.426m1.733-4.176q1.336 0 2.358-.526a4.2 4.2 0 0 0 1.605-1.449q.583-.909.583-2.06v-2.315a3.3 3.3 0 0 1-.781.341q-.483.142-1.094.27-.611.114-1.222.213l-1.108.157q-1.065.156-1.861.497-.795.34-1.235.923-.441.568-.441 1.42 0 1.236.895 1.89.909.639 2.301.639m25.107 4.19q-3.352 0-5.767-1.42-2.402-1.435-3.693-3.978-1.28-2.542-1.279-5.852 0-3.352 1.293-5.88 1.307-2.544 3.707-3.964 2.401-1.434 5.71-1.434 2.856 0 5 1.037t3.395 2.912 1.378 4.403h-5.71q-.241-1.633-1.278-2.628-1.023-1.008-2.685-1.008-1.407 0-2.457.767-1.038.753-1.62 2.201-.582 1.45-.582 3.509 0 2.088.568 3.551.582 1.463 1.634 2.23 1.05.767 2.457.767 1.036 0 1.861-.426a3.6 3.6 0 0 0 1.378-1.236q.553-.823.724-1.974h5.71q-.142 2.5-1.363 4.403-1.207 1.89-3.339 2.955-2.13 1.065-5.042 1.065m19.67-13.04V49h-6.052V19.91h5.881V31.03h.256q.738-1.932 2.386-3.025 1.649-1.108 4.134-1.108 2.273 0 3.963.994 1.704.98 2.642 2.827.951 1.831.937 4.389V49h-6.051V36.188q.015-2.018-1.023-3.14-1.022-1.122-2.869-1.122-1.236 0-2.187.526-.938.525-1.478 1.534-.525.995-.539 2.4m28.853 13.04q-3.368 0-5.796-1.364-2.415-1.377-3.721-3.892-1.308-2.527-1.307-5.98 0-3.366 1.307-5.909t3.679-3.963q2.386-1.42 5.596-1.42 2.16 0 4.02.696a8.9 8.9 0 0 1 3.267 2.06q1.407 1.377 2.188 3.465.78 2.074.781 4.858v1.662h-18.423v-3.75h12.727q0-1.307-.568-2.315a4.07 4.07 0 0 0-1.577-1.577q-.995-.582-2.315-.582-1.378 0-2.444.639-1.05.625-1.647 1.69-.597 1.051-.611 2.344v3.565q0 1.62.596 2.799a4.38 4.38 0 0 0 1.719 1.818q1.108.64 2.628.64 1.008 0 1.847-.285a3.8 3.8 0 0 0 1.434-.852q.597-.57.909-1.392l5.597.369a7.65 7.65 0 0 1-1.747 3.523q-1.306 1.49-3.381 2.33-2.06.823-4.758.823M521.525 305v-29.091h6.15v24.02h12.472V305zm22.695 0v-29.091h11.477q3.296 0 5.625 1.179 2.344 1.165 3.565 3.31 1.236 2.13 1.236 5.014 0 2.898-1.25 4.986-1.25 2.073-3.622 3.182-2.358 1.108-5.71 1.108h-7.685v-4.944h6.691q1.76 0 2.926-.483 1.164-.483 1.733-1.449.582-.965.582-2.4 0-1.449-.582-2.443-.569-.995-1.748-1.506-1.164-.525-2.94-.525h-4.148V305zm15.71-13.239L567.16 305h-6.79l-7.073-13.239zm28.509-15.852h6.15v18.892q0 3.181-1.52 5.568-1.506 2.387-4.219 3.722-2.712 1.321-6.321 1.321-3.621 0-6.335-1.321-2.712-1.335-4.219-3.722-1.505-2.387-1.505-5.568v-18.892h6.15v18.367q0 1.661.725 2.954a5.3 5.3 0 0 0 2.074 2.031q1.335.74 3.11.739 1.791 0 3.111-.739a5.2 5.2 0 0 0 2.06-2.031q.738-1.293.739-2.954zm46.136 10.185h-6.222q-.17-1.208-.696-2.145a5.4 5.4 0 0 0-1.349-1.619 5.9 5.9 0 0 0-1.904-1.023 7.3 7.3 0 0 0-2.315-.355q-2.258 0-3.935 1.122-1.675 1.108-2.599 3.238-.923 2.116-.923 5.143 0 3.11.923 5.227.937 2.116 2.614 3.196t3.878 1.079q1.235 0 2.286-.326a6 6 0 0 0 1.89-.952 5.5 5.5 0 0 0 1.363-1.548q.554-.91.767-2.074l6.222.028a11.3 11.3 0 0 1-1.207 3.864 11.6 11.6 0 0 1-2.571 3.31q-1.606 1.448-3.836 2.301-2.215.838-5.014.838-3.893 0-6.96-1.762-3.054-1.761-4.83-5.099-1.761-3.338-1.761-8.082 0-4.76 1.79-8.097 1.79-3.338 4.858-5.085 3.067-1.762 6.903-1.762 2.529 0 4.688.711 2.173.71 3.849 2.073 1.676 1.35 2.727 3.31 1.066 1.96 1.364 4.489m10.518 19.318q-2.088 0-3.721-.724-1.634-.739-2.585-2.174-.938-1.448-.938-3.608 0-1.818.668-3.054a5.4 5.4 0 0 1 1.818-1.988 8.8 8.8 0 0 1 2.614-1.137 20 20 0 0 1 3.096-.539 78 78 0 0 0 3.068-.37q1.165-.184 1.691-.54.525-.355.525-1.051v-.085q0-1.35-.852-2.088-.838-.739-2.386-.739-1.634 0-2.6.725-.966.71-1.278 1.79l-5.597-.455q.426-1.99 1.676-3.437 1.25-1.464 3.225-2.245 1.988-.795 4.602-.795 1.818 0 3.48.426 1.676.426 2.969 1.321a6.4 6.4 0 0 1 2.059 2.301q.753 1.392.753 3.338V305h-5.738v-3.026h-.171a6.1 6.1 0 0 1-1.406 1.804q-.881.767-2.116 1.208-1.236.426-2.856.426m1.733-4.176q1.336 0 2.358-.526a4.2 4.2 0 0 0 1.605-1.449q.583-.909.583-2.059v-2.316q-.285.185-.781.341-.483.143-1.094.27-.611.114-1.222.213l-1.108.156q-1.065.157-1.861.498-.795.34-1.235.923-.441.568-.441 1.42 0 1.236.895 1.89.909.639 2.301.639m25.107 4.19q-3.352 0-5.767-1.42-2.402-1.436-3.693-3.978-1.28-2.542-1.279-5.852 0-3.352 1.293-5.881 1.307-2.542 3.707-3.963 2.401-1.434 5.71-1.434 2.856 0 5 1.037t3.395 2.912 1.378 4.403h-5.71q-.241-1.634-1.278-2.628-1.023-1.008-2.685-1.008-1.407 0-2.457.767-1.038.752-1.62 2.201t-.582 3.509q0 2.088.568 3.551.582 1.463 1.634 2.23 1.05.767 2.457.767 1.036 0 1.861-.426a3.6 3.6 0 0 0 1.378-1.236q.553-.823.724-1.974h5.71q-.142 2.5-1.363 4.403-1.207 1.89-3.339 2.955-2.13 1.065-5.042 1.065m19.67-13.04V305h-6.052v-29.091h5.881v11.122h.256q.738-1.932 2.386-3.025 1.649-1.108 4.134-1.108 2.273 0 3.963.994 1.704.98 2.642 2.827.951 1.832.937 4.389V305h-6.051v-12.812q.015-2.018-1.023-3.14-1.022-1.122-2.869-1.122-1.236 0-2.187.526-.938.525-1.478 1.534-.525.995-.539 2.4m28.853 13.04q-3.368 0-5.796-1.364-2.415-1.377-3.721-3.892-1.308-2.528-1.307-5.98 0-3.366 1.307-5.909t3.679-3.963q2.386-1.42 5.596-1.42 2.16 0 4.02.696a8.9 8.9 0 0 1 3.267 2.059q1.407 1.378 2.188 3.466.78 2.074.781 4.858v1.662h-18.423v-3.75h12.727q0-1.307-.568-2.315a4.1 4.1 0 0 0-1.577-1.577q-.995-.582-2.315-.582-1.378 0-2.444.639-1.05.625-1.647 1.69a4.77 4.77 0 0 0-.611 2.344v3.565q0 1.62.596 2.799a4.38 4.38 0 0 0 1.719 1.818q1.108.639 2.628.639 1.008 0 1.847-.284a3.8 3.8 0 0 0 1.434-.852q.597-.569.909-1.392l5.597.369a7.65 7.65 0 0 1-1.747 3.523q-1.306 1.491-3.381 2.329-2.06.825-4.758.824"/><path fill="#717171" d="M895.224 234v-23.273h2.819V231.5h10.818v2.5zm18 0v-23.273h7.864q2.727 0 4.477.932 1.75.92 2.591 2.534t.841 3.671-.841 3.647q-.84 1.591-2.579 2.5-1.738.898-4.443.898h-6.364v-2.545h6.273q1.863 0 3-.546 1.147-.545 1.659-1.545.522-1.013.522-2.409 0-1.398-.522-2.444-.524-1.045-1.671-1.613-1.147-.58-3.034-.58h-4.954V234zm10.955-10.455L929.906 234h-3.272l-5.637-10.455zm24.787-12.818h2.818v15.409q0 2.387-1.125 4.262-1.114 1.863-3.148 2.943-2.034 1.068-4.772 1.068t-4.773-1.068q-2.034-1.08-3.159-2.943-1.114-1.875-1.114-4.262v-15.409h2.818v15.182q0 1.704.75 3.034.75 1.318 2.137 2.08 1.397.75 3.341.75 1.943 0 3.341-.75 1.397-.762 2.136-2.08.75-1.33.75-3.034zM895.224 490v-23.273h2.819V487.5h10.818v2.5zm18 0v-23.273h7.864q2.727 0 4.477.932 1.75.92 2.591 2.534t.841 3.671-.841 3.647q-.84 1.591-2.579 2.5-1.738.898-4.443.898h-6.364v-2.545h6.273q1.863 0 3-.546 1.147-.545 1.659-1.545.522-1.013.522-2.409 0-1.398-.522-2.444-.524-1.045-1.671-1.613-1.147-.58-3.034-.58h-4.954V490zm10.955-10.455L929.906 490h-3.272l-5.637-10.455zm24.787-12.818h2.818v15.409q0 2.387-1.125 4.262-1.114 1.863-3.148 2.943-2.034 1.068-4.772 1.068t-4.773-1.068q-2.034-1.08-3.159-2.943-1.114-1.875-1.114-4.262v-15.409h2.818v15.182q0 1.705.75 3.034.75 1.318 2.137 2.08 1.397.75 3.341.75 1.943 0 3.341-.75 1.397-.762 2.136-2.08.75-1.33.75-3.034zM298.99 210.727h3.364l7.909 19.318h.273l7.909-19.318h3.363V234h-2.636v-17.682h-.227L311.672 234h-2.546l-7.272-17.682h-.228V234h-2.636zM327.459 234v-23.273h7.863q2.728 0 4.478.932 1.75.92 2.591 2.534.84 1.614.841 3.671 0 2.057-.841 3.647-.841 1.591-2.58 2.5-1.738.898-4.443.898h-6.364v-2.545h6.273q1.863 0 3-.546 1.147-.545 1.659-1.545.523-1.013.523-2.409 0-1.398-.523-2.444-.522-1.045-1.67-1.613-1.149-.58-3.034-.58h-4.955V234zm10.954-10.455L344.141 234h-3.273l-5.636-10.455zm24.787-12.818h2.818v15.409q0 2.387-1.125 4.262-1.113 1.863-3.147 2.943-2.034 1.068-4.773 1.068t-4.773-1.068q-2.034-1.08-3.159-2.943-1.113-1.875-1.113-4.262v-15.409h2.818v15.182q0 1.704.75 3.034.75 1.318 2.136 2.08 1.398.75 3.341.75t3.341-.75q1.398-.762 2.136-2.08.75-1.33.75-3.034zM298.99 466.727h3.364l7.909 19.318h.273l7.909-19.318h3.363V490h-2.636v-17.682h-.227L311.672 490h-2.546l-7.272-17.682h-.228V490h-2.636zM327.459 490v-23.273h7.863q2.728 0 4.478.932 1.75.92 2.591 2.534.84 1.613.841 3.671 0 2.057-.841 3.647-.841 1.591-2.58 2.5-1.738.898-4.443.898h-6.364v-2.545h6.273q1.863 0 3-.546 1.147-.545 1.659-1.545.523-1.013.523-2.409 0-1.398-.523-2.444-.522-1.045-1.67-1.613-1.149-.58-3.034-.58h-4.955V490zm10.954-10.455L344.141 490h-3.273l-5.636-10.455zm24.787-12.818h2.818v15.409q0 2.387-1.125 4.262-1.113 1.863-3.147 2.943-2.034 1.068-4.773 1.068t-4.773-1.068q-2.034-1.08-3.159-2.943-1.113-1.875-1.113-4.262v-15.409h2.818v15.182q0 1.705.75 3.034.75 1.318 2.136 2.08 1.398.75 3.341.75t3.341-.75q1.398-.762 2.136-2.08.75-1.33.75-3.034z"/><path fill="#fff" d="M6.146 149v-23.273h7.864q2.739 0 4.477.989 1.75.977 2.591 2.648.84 1.67.841 3.727 0 2.056-.84 3.739-.83 1.682-2.57 2.681-1.737.989-4.454.989H8.42V138h5.545q1.875 0 3.012-.648 1.136-.648 1.648-1.75.522-1.113.522-2.511t-.522-2.5q-.511-1.103-1.66-1.727-1.147-.637-3.045-.637H8.964V149zm25.086.409q-1.66 0-3.012-.625a5.17 5.17 0 0 1-2.148-1.829q-.795-1.205-.795-2.91 0-1.5.59-2.431a4.17 4.17 0 0 1 1.58-1.478 8.3 8.3 0 0 1 2.182-.795q1.205-.273 2.42-.432 1.591-.204 2.58-.307 1-.112 1.455-.375.465-.261.466-.909v-.091q0-1.681-.92-2.613-.91-.933-2.762-.932-1.92 0-3.012.841-1.09.84-1.534 1.795l-2.545-.909q.681-1.591 1.818-2.477a6.8 6.8 0 0 1 2.5-1.25q1.364-.364 2.682-.364.84 0 1.932.205a6.2 6.2 0 0 1 2.125.807q1.034.613 1.716 1.852t.681 3.318V149H36.55v-2.364h-.137q-.271.568-.909 1.216-.636.648-1.693 1.103t-2.58.454M31.64 147q1.59 0 2.681-.625 1.102-.625 1.66-1.614a4.1 4.1 0 0 0 .568-2.079v-2.455q-.171.206-.75.375-.57.16-1.319.284-.738.114-1.443.205a70 70 0 0 0-1.125.136q-1.045.137-1.954.443-.898.296-1.455.898-.545.591-.545 1.614 0 1.398 1.034 2.113 1.046.705 2.648.705m19.53 8.909q-1.942 0-3.34-.5-1.397-.488-2.33-1.295-.92-.796-1.465-1.705l2.136-1.5q.364.477.92 1.091.558.625 1.523 1.08.978.465 2.557.465 2.114 0 3.489-1.022t1.374-3.205v-3.545h-.227q-.295.477-.84 1.182-.535.693-1.546 1.238-1 .534-2.705.534-2.113 0-3.795-1-1.67-1-2.648-2.909-.966-1.91-.966-4.636 0-2.682.943-4.671.944-2 2.625-3.091 1.683-1.102 3.887-1.102 1.705 0 2.704.568 1.012.558 1.546 1.273.545.705.84 1.159h.273v-2.773h2.591V149.5q0 2.25-1.022 3.659-1.012 1.42-2.728 2.08-1.704.67-3.795.67m-.09-9.591q1.614 0 2.727-.738 1.114-.74 1.693-2.125.58-1.387.58-3.319 0-1.886-.568-3.329-.569-1.443-1.682-2.262-1.114-.818-2.75-.818-1.704 0-2.84.864-1.125.863-1.694 2.318-.557 1.455-.557 3.227 0 1.818.568 3.216.58 1.387 1.705 2.182 1.136.784 2.818.784m19.864 3.046q-2.523 0-4.353-1.114-1.818-1.125-2.806-3.136-.978-2.023-.978-4.705t.977-4.727q.99-2.057 2.75-3.205 1.773-1.158 4.137-1.159 1.364 0 2.693.455a6.7 6.7 0 0 1 2.42 1.477q1.091 1.011 1.74 2.682.647 1.67.647 4.113v1.137H64.717v-2.318h10.728q0-1.478-.591-2.637a4.46 4.46 0 0 0-1.66-1.829q-1.068-.67-2.522-.671-1.602 0-2.773.796a5.2 5.2 0 0 0-1.784 2.045 6 6 0 0 0-.625 2.705v1.545q0 1.977.682 3.352.693 1.365 1.92 2.08 1.228.705 2.853.705 1.056 0 1.909-.296a4.1 4.1 0 0 0 1.488-.909 4.1 4.1 0 0 0 .966-1.523l2.591.728a5.75 5.75 0 0 1-1.375 2.318q-.966.988-2.386 1.545-1.421.546-3.193.546m28.443-23.637V149H96.57v-20.318h-.137l-5.682 3.773v-2.864l5.819-3.864zM355.876 138.773v2.5h-10.181v-2.5zm14.719 0v2.5h-10.182v-2.5zm14.719 0v2.5h-10.182v-2.5zM318.146 406v-23.273h7.864q2.739 0 4.477.989 1.75.977 2.591 2.648.841 1.67.841 3.727t-.841 3.739q-.83 1.682-2.568 2.681-1.739.989-4.455.989h-5.636V395h5.545q1.875 0 3.012-.648 1.136-.648 1.648-1.75.522-1.113.522-2.511t-.522-2.5q-.511-1.103-1.66-1.727-1.147-.637-3.045-.637h-4.955V406zm25.086.409q-1.66 0-3.012-.625a5.2 5.2 0 0 1-2.148-1.829q-.795-1.204-.795-2.91 0-1.5.591-2.431a4.17 4.17 0 0 1 1.579-1.478 8.3 8.3 0 0 1 2.182-.795q1.205-.273 2.421-.432 1.59-.204 2.579-.307 1-.113 1.455-.375.466-.261.466-.909v-.091q0-1.682-.921-2.613-.909-.933-2.761-.932-1.92 0-3.011.841-1.091.84-1.535 1.795l-2.545-.909q.682-1.591 1.818-2.477a6.8 6.8 0 0 1 2.5-1.25 10.4 10.4 0 0 1 2.682-.364q.841 0 1.932.205a6.2 6.2 0 0 1 2.125.807q1.034.613 1.716 1.852t.682 3.318V406h-2.682v-2.364h-.137q-.271.568-.909 1.216-.636.648-1.693 1.103t-2.579.454m.409-2.409q1.59 0 2.681-.625 1.102-.625 1.66-1.614a4.1 4.1 0 0 0 .568-2.079v-2.455q-.171.205-.75.375a13 13 0 0 1-1.318.284q-.74.114-1.444.205-.693.08-1.125.136-1.045.137-1.954.443-.899.296-1.455.898-.545.591-.545 1.614 0 1.398 1.034 2.113 1.045.705 2.648.705m19.531 8.909q-1.943 0-3.341-.5-1.398-.489-2.33-1.295-.92-.796-1.465-1.705l2.136-1.5q.363.477.92 1.091.558.625 1.523 1.08.978.465 2.557.465 2.113 0 3.489-1.022 1.374-1.023 1.375-3.205v-3.545h-.228q-.295.477-.841 1.182-.534.693-1.545 1.238-1 .534-2.705.534-2.114 0-3.795-1-1.67-1-2.648-2.909-.966-1.91-.966-4.636 0-2.682.943-4.671.943-2 2.625-3.091 1.683-1.101 3.887-1.102 1.705 0 2.704.568 1.012.558 1.546 1.273.545.705.841 1.159h.272v-2.773h2.591V406.5q0 2.25-1.022 3.659-1.012 1.42-2.728 2.08-1.704.67-3.795.67m-.091-9.591q1.614 0 2.727-.738 1.114-.74 1.693-2.125.58-1.387.58-3.319 0-1.886-.568-3.329-.569-1.443-1.682-2.262-1.113-.818-2.75-.818-1.704 0-2.841.864-1.125.864-1.693 2.318-.557 1.455-.557 3.227 0 1.818.568 3.216.58 1.387 1.705 2.182 1.136.784 2.818.784m19.864 3.046q-2.523 0-4.353-1.114-1.818-1.125-2.806-3.136-.978-2.023-.978-4.705t.978-4.727q.988-2.057 2.75-3.205 1.772-1.159 4.136-1.159 1.364 0 2.693.455a6.7 6.7 0 0 1 2.421 1.477q1.09 1.011 1.738 2.682.648 1.67.648 4.113v1.137h-13.455v-2.318h10.728q0-1.478-.591-2.637a4.47 4.47 0 0 0-1.659-1.829q-1.069-.67-2.523-.671-1.602 0-2.773.796a5.2 5.2 0 0 0-1.784 2.045 6 6 0 0 0-.625 2.705v1.545q0 1.977.682 3.352.693 1.365 1.92 2.08 1.228.705 2.853.705 1.057 0 1.909-.296a4.1 4.1 0 0 0 1.488-.909q.625-.614.966-1.523l2.591.728a5.75 5.75 0 0 1-1.375 2.318q-.966.988-2.386 1.545-1.421.546-3.193.546m28.443-23.637V406h-2.818v-20.318h-.137l-5.682 3.773v-2.864l5.819-3.864zM486.876 138.773v2.5h-10.181v-2.5zm14.719 0v2.5h-10.182v-2.5zm14.719 0v2.5h-10.182v-2.5zM486.876 394.773v2.5h-10.181v-2.5zm14.719 0v2.5h-10.182v-2.5zm14.719 0v2.5h-10.182v-2.5zM617.876 138.773v2.5h-10.181v-2.5zm14.719 0v2.5h-10.182v-2.5zm14.719 0v2.5h-10.182v-2.5zM617.876 394.773v2.5h-10.181v-2.5zm14.719 0v2.5h-10.182v-2.5zm14.719 0v2.5h-10.182v-2.5zM748.876 138.773v2.5h-10.181v-2.5zm14.719 0v2.5h-10.182v-2.5zm14.719 0v2.5h-10.182v-2.5zM748.876 394.773v2.5h-10.181v-2.5zm14.719 0v2.5h-10.182v-2.5zm14.719 0v2.5h-10.182v-2.5zM879.876 138.773v2.5h-10.181v-2.5zm14.719 0v2.5h-10.182v-2.5zm14.719 0v2.5h-10.182v-2.5zM879.876 394.773v2.5h-10.181v-2.5zm14.719 0v2.5h-10.182v-2.5zm14.719 0v2.5h-10.182v-2.5z"/><path stroke="#dbdbdb" stroke-width="2" d="M430 89v97M430 345v97M561 89v97M561 345v97M692 89v97M692 345v97M823 89v97M823 345v97"/><path stroke="#dbdbdb" stroke-linecap="round" stroke-linejoin="round" stroke-width="4" d="m245.875 122.25 16.25 16.25-16.25 16.25"/><path stroke="#dbdbdb" stroke-width="5" d="M140 137h119"/></svg>