<svg width="977" height="512" viewBox="0 0 977 512" fill="none" xmlns="http://www.w3.org/2000/svg">
<rect x="296" y="89" width="659" height="97" rx="27" stroke="#DBDBDB" stroke-width="2"/>
<rect x="296" y="345" width="659" height="97" rx="27" stroke="#DBDBDB" stroke-width="2"/>
<path d="M521.525 49V19.9091H527.675V43.929H540.147V49H521.525ZM544.22 49V19.9091H555.697C557.894 19.9091 559.769 20.3021 561.322 21.0881C562.885 21.8646 564.073 22.9678 564.887 24.3977C565.711 25.8182 566.123 27.4896 566.123 29.4119C566.123 31.3437 565.707 33.0057 564.873 34.3977C564.04 35.7803 562.833 36.8409 561.251 37.5795C559.679 38.3182 557.776 38.6875 555.541 38.6875H547.856V33.7443H554.547C555.721 33.7443 556.696 33.5833 557.473 33.2614C558.249 32.9394 558.827 32.4564 559.206 31.8125C559.594 31.1686 559.788 30.3684 559.788 29.4119C559.788 28.446 559.594 27.6316 559.206 26.9688C558.827 26.3059 558.244 25.804 557.458 25.4631C556.682 25.1127 555.702 24.9375 554.518 24.9375H550.37V49H544.22ZM559.93 35.7614L567.16 49H560.37L553.297 35.7614H559.93ZM588.439 19.9091H594.589V38.8011C594.589 40.9223 594.083 42.7784 593.069 44.3693C592.065 45.9602 590.659 47.2008 588.85 48.0909C587.042 48.9716 584.935 49.4119 582.529 49.4119C580.115 49.4119 578.003 48.9716 576.194 48.0909C574.386 47.2008 572.979 45.9602 571.975 44.3693C570.972 42.7784 570.47 40.9223 570.47 38.8011V19.9091H576.62V38.2756C576.62 39.3835 576.862 40.3684 577.345 41.2301C577.837 42.0919 578.529 42.7689 579.419 43.2614C580.309 43.7538 581.346 44 582.529 44C583.723 44 584.76 43.7538 585.64 43.2614C586.53 42.7689 587.217 42.0919 587.7 41.2301C588.192 40.3684 588.439 39.3835 588.439 38.2756V19.9091ZM634.575 30.0938H628.353C628.24 29.2888 628.008 28.5739 627.657 27.9489C627.307 27.3144 626.857 26.7746 626.308 26.3295C625.759 25.8845 625.124 25.5436 624.404 25.3068C623.694 25.0701 622.922 24.9517 622.089 24.9517C620.583 24.9517 619.272 25.3258 618.154 26.0739C617.037 26.8125 616.171 27.892 615.555 29.3125C614.94 30.7235 614.632 32.4375 614.632 34.4545C614.632 36.5284 614.94 38.2708 615.555 39.6818C616.18 41.0928 617.051 42.1581 618.169 42.8778C619.286 43.5975 620.579 43.9574 622.047 43.9574C622.87 43.9574 623.633 43.8485 624.333 43.6307C625.044 43.4129 625.673 43.0956 626.223 42.679C626.772 42.2528 627.226 41.7367 627.586 41.1307C627.956 40.5246 628.211 39.8333 628.353 39.0568L634.575 39.0852C634.414 40.4205 634.011 41.7083 633.368 42.9489C632.733 44.1799 631.876 45.2831 630.797 46.2585C629.726 47.2244 628.448 47.9915 626.961 48.5597C625.484 49.1184 623.813 49.3977 621.947 49.3977C619.352 49.3977 617.032 48.8106 614.987 47.6364C612.951 46.4621 611.341 44.7623 610.157 42.5369C608.983 40.3116 608.396 37.6174 608.396 34.4545C608.396 31.2822 608.993 28.5833 610.186 26.358C611.379 24.1326 612.998 22.4375 615.044 21.2727C617.089 20.0985 619.39 19.5114 621.947 19.5114C623.633 19.5114 625.195 19.7481 626.635 20.2216C628.083 20.6951 629.367 21.3864 630.484 22.2955C631.601 23.1951 632.511 24.2983 633.211 25.6051C633.922 26.9119 634.376 28.4081 634.575 30.0938ZM645.093 49.4119C643.701 49.4119 642.461 49.1705 641.372 48.6875C640.283 48.1951 639.421 47.4706 638.787 46.5142C638.162 45.5483 637.849 44.3456 637.849 42.9062C637.849 41.6941 638.072 40.6761 638.517 39.8523C638.962 39.0284 639.568 38.3655 640.335 37.8636C641.102 37.3617 641.973 36.983 642.949 36.7273C643.933 36.4716 644.966 36.2917 646.045 36.1875C647.314 36.0549 648.337 35.9318 649.113 35.8182C649.89 35.6951 650.453 35.5152 650.804 35.2784C651.154 35.0417 651.329 34.6913 651.329 34.2273V34.142C651.329 33.2424 651.045 32.5464 650.477 32.054C649.918 31.5616 649.123 31.3153 648.091 31.3153C647.002 31.3153 646.135 31.5568 645.491 32.0398C644.847 32.5133 644.421 33.1098 644.213 33.8295L638.616 33.375C638.9 32.0492 639.459 30.9034 640.292 29.9375C641.126 28.9621 642.2 28.214 643.517 27.6932C644.842 27.1629 646.377 26.8977 648.119 26.8977C649.331 26.8977 650.491 27.0398 651.599 27.3239C652.717 27.608 653.706 28.0483 654.568 28.6449C655.439 29.2415 656.126 30.0085 656.627 30.946C657.129 31.8741 657.38 32.9867 657.38 34.2841V49H651.642V45.9744H651.471C651.121 46.6562 650.652 47.2576 650.065 47.7784C649.478 48.2898 648.772 48.6922 647.949 48.9858C647.125 49.2699 646.173 49.4119 645.093 49.4119ZM646.826 45.2358C647.717 45.2358 648.502 45.0606 649.184 44.7102C649.866 44.3504 650.401 43.8674 650.789 43.2614C651.178 42.6553 651.372 41.9687 651.372 41.2017V38.8864C651.182 39.0095 650.922 39.1231 650.591 39.2273C650.269 39.322 649.904 39.4119 649.497 39.4972C649.09 39.5729 648.682 39.6439 648.275 39.7102C647.868 39.767 647.499 39.8191 647.167 39.8665C646.457 39.9706 645.837 40.1364 645.306 40.3636C644.776 40.5909 644.364 40.8987 644.071 41.2869C643.777 41.6657 643.63 42.1392 643.63 42.7074C643.63 43.5312 643.929 44.161 644.525 44.5966C645.131 45.0227 645.898 45.2358 646.826 45.2358ZM671.933 49.4261C669.698 49.4261 667.776 48.9527 666.166 48.0057C664.565 47.0492 663.334 45.7235 662.473 44.0284C661.62 42.3333 661.194 40.3826 661.194 38.1761C661.194 35.9413 661.625 33.9811 662.487 32.2955C663.358 30.6004 664.594 29.2794 666.194 28.3324C667.795 27.3759 669.698 26.8977 671.904 26.8977C673.808 26.8977 675.475 27.2434 676.904 27.9347C678.334 28.6259 679.466 29.5966 680.299 30.8466C681.133 32.0966 681.592 33.5644 681.677 35.25H675.967C675.806 34.161 675.38 33.285 674.689 32.6222C674.007 31.9498 673.112 31.6136 672.004 31.6136C671.066 31.6136 670.247 31.8693 669.547 32.3807C668.855 32.8826 668.315 33.6165 667.927 34.5824C667.539 35.5483 667.345 36.7178 667.345 38.0909C667.345 39.483 667.534 40.6667 667.913 41.642C668.301 42.6174 668.846 43.3608 669.547 43.8722C670.247 44.3835 671.066 44.6392 672.004 44.6392C672.695 44.6392 673.315 44.4972 673.865 44.2131C674.423 43.929 674.883 43.517 675.243 42.9773C675.612 42.428 675.853 41.7699 675.967 41.0028H681.677C681.583 42.6695 681.128 44.1373 680.314 45.4062C679.509 46.6657 678.396 47.6506 676.975 48.3608C675.555 49.071 673.874 49.4261 671.933 49.4261ZM691.603 36.3864V49H685.551V19.9091H691.432V31.0312H691.688C692.18 29.7434 692.976 28.7348 694.074 28.0057C695.173 27.267 696.551 26.8977 698.208 26.8977C699.723 26.8977 701.044 27.2292 702.171 27.892C703.307 28.5455 704.188 29.4877 704.813 30.7188C705.447 31.9403 705.76 33.4034 705.75 35.108V49H699.699V36.1875C699.709 34.8428 699.368 33.7964 698.676 33.0483C697.995 32.3002 697.038 31.9261 695.807 31.9261C694.983 31.9261 694.254 32.1013 693.62 32.4517C692.995 32.8021 692.502 33.3134 692.142 33.9858C691.792 34.6487 691.612 35.4489 691.603 36.3864ZM720.456 49.4261C718.211 49.4261 716.279 48.9716 714.66 48.0625C713.05 47.1439 711.81 45.8466 710.939 44.1705C710.067 42.4848 709.632 40.4915 709.632 38.1903C709.632 35.946 710.067 33.9763 710.939 32.2812C711.81 30.5862 713.036 29.2652 714.618 28.3182C716.208 27.3712 718.074 26.8977 720.214 26.8977C721.654 26.8977 722.993 27.1297 724.234 27.5938C725.484 28.0483 726.573 28.7348 727.501 29.6534C728.439 30.572 729.168 31.7273 729.689 33.1193C730.209 34.5019 730.47 36.1212 730.47 37.9773V39.6392H712.047V35.8892H724.774C724.774 35.018 724.584 34.2462 724.206 33.5739C723.827 32.9015 723.301 32.3759 722.629 31.9972C721.966 31.6089 721.194 31.4148 720.314 31.4148C719.395 31.4148 718.581 31.6278 717.87 32.054C717.17 32.4706 716.62 33.0341 716.223 33.7443C715.825 34.4451 715.621 35.2263 715.612 36.0881V39.6534C715.612 40.733 715.811 41.6657 716.208 42.4517C716.616 43.2377 717.189 43.8438 717.927 44.2699C718.666 44.696 719.542 44.9091 720.555 44.9091C721.227 44.9091 721.843 44.8144 722.402 44.625C722.96 44.4356 723.439 44.1515 723.836 43.7727C724.234 43.3939 724.537 42.9299 724.745 42.3807L730.342 42.75C730.058 44.0947 729.475 45.2689 728.595 46.2727C727.724 47.267 726.597 48.0436 725.214 48.6023C723.841 49.1515 722.255 49.4261 720.456 49.4261Z" fill="white"/>
<path d="M521.525 305V275.909H527.675V299.929H540.147V305H521.525ZM544.22 305V275.909H555.697C557.894 275.909 559.769 276.302 561.322 277.088C562.885 277.865 564.073 278.968 564.887 280.398C565.711 281.818 566.123 283.49 566.123 285.412C566.123 287.344 565.707 289.006 564.873 290.398C564.04 291.78 562.833 292.841 561.251 293.58C559.679 294.318 557.776 294.688 555.541 294.688H547.856V289.744H554.547C555.721 289.744 556.696 289.583 557.473 289.261C558.249 288.939 558.827 288.456 559.206 287.812C559.594 287.169 559.788 286.368 559.788 285.412C559.788 284.446 559.594 283.632 559.206 282.969C558.827 282.306 558.244 281.804 557.458 281.463C556.682 281.113 555.702 280.938 554.518 280.938H550.37V305H544.22ZM559.93 291.761L567.16 305H560.37L553.297 291.761H559.93ZM588.439 275.909H594.589V294.801C594.589 296.922 594.083 298.778 593.069 300.369C592.065 301.96 590.659 303.201 588.85 304.091C587.042 304.972 584.935 305.412 582.529 305.412C580.115 305.412 578.003 304.972 576.194 304.091C574.386 303.201 572.979 301.96 571.975 300.369C570.972 298.778 570.47 296.922 570.47 294.801V275.909H576.62V294.276C576.62 295.384 576.862 296.368 577.345 297.23C577.837 298.092 578.529 298.769 579.419 299.261C580.309 299.754 581.346 300 582.529 300C583.723 300 584.76 299.754 585.64 299.261C586.53 298.769 587.217 298.092 587.7 297.23C588.192 296.368 588.439 295.384 588.439 294.276V275.909ZM634.575 286.094H628.353C628.24 285.289 628.008 284.574 627.657 283.949C627.307 283.314 626.857 282.775 626.308 282.33C625.759 281.884 625.124 281.544 624.404 281.307C623.694 281.07 622.922 280.952 622.089 280.952C620.583 280.952 619.272 281.326 618.154 282.074C617.037 282.812 616.171 283.892 615.555 285.312C614.94 286.723 614.632 288.437 614.632 290.455C614.632 292.528 614.94 294.271 615.555 295.682C616.18 297.093 617.051 298.158 618.169 298.878C619.286 299.598 620.579 299.957 622.047 299.957C622.87 299.957 623.633 299.848 624.333 299.631C625.044 299.413 625.673 299.096 626.223 298.679C626.772 298.253 627.226 297.737 627.586 297.131C627.956 296.525 628.211 295.833 628.353 295.057L634.575 295.085C634.414 296.42 634.011 297.708 633.368 298.949C632.733 300.18 631.876 301.283 630.797 302.259C629.726 303.224 628.448 303.991 626.961 304.56C625.484 305.118 623.813 305.398 621.947 305.398C619.352 305.398 617.032 304.811 614.987 303.636C612.951 302.462 611.341 300.762 610.157 298.537C608.983 296.312 608.396 293.617 608.396 290.455C608.396 287.282 608.993 284.583 610.186 282.358C611.379 280.133 612.998 278.437 615.044 277.273C617.089 276.098 619.39 275.511 621.947 275.511C623.633 275.511 625.195 275.748 626.635 276.222C628.083 276.695 629.367 277.386 630.484 278.295C631.601 279.195 632.511 280.298 633.211 281.605C633.922 282.912 634.376 284.408 634.575 286.094ZM645.093 305.412C643.701 305.412 642.461 305.17 641.372 304.688C640.283 304.195 639.421 303.471 638.787 302.514C638.162 301.548 637.849 300.346 637.849 298.906C637.849 297.694 638.072 296.676 638.517 295.852C638.962 295.028 639.568 294.366 640.335 293.864C641.102 293.362 641.973 292.983 642.949 292.727C643.933 292.472 644.966 292.292 646.045 292.188C647.314 292.055 648.337 291.932 649.113 291.818C649.89 291.695 650.453 291.515 650.804 291.278C651.154 291.042 651.329 290.691 651.329 290.227V290.142C651.329 289.242 651.045 288.546 650.477 288.054C649.918 287.562 649.123 287.315 648.091 287.315C647.002 287.315 646.135 287.557 645.491 288.04C644.847 288.513 644.421 289.11 644.213 289.83L638.616 289.375C638.9 288.049 639.459 286.903 640.292 285.938C641.126 284.962 642.2 284.214 643.517 283.693C644.842 283.163 646.377 282.898 648.119 282.898C649.331 282.898 650.491 283.04 651.599 283.324C652.717 283.608 653.706 284.048 654.568 284.645C655.439 285.241 656.126 286.009 656.627 286.946C657.129 287.874 657.38 288.987 657.38 290.284V305H651.642V301.974H651.471C651.121 302.656 650.652 303.258 650.065 303.778C649.478 304.29 648.772 304.692 647.949 304.986C647.125 305.27 646.173 305.412 645.093 305.412ZM646.826 301.236C647.717 301.236 648.502 301.061 649.184 300.71C649.866 300.35 650.401 299.867 650.789 299.261C651.178 298.655 651.372 297.969 651.372 297.202V294.886C651.182 295.009 650.922 295.123 650.591 295.227C650.269 295.322 649.904 295.412 649.497 295.497C649.09 295.573 648.682 295.644 648.275 295.71C647.868 295.767 647.499 295.819 647.167 295.866C646.457 295.971 645.837 296.136 645.306 296.364C644.776 296.591 644.364 296.899 644.071 297.287C643.777 297.666 643.63 298.139 643.63 298.707C643.63 299.531 643.929 300.161 644.525 300.597C645.131 301.023 645.898 301.236 646.826 301.236ZM671.933 305.426C669.698 305.426 667.776 304.953 666.166 304.006C664.565 303.049 663.334 301.723 662.473 300.028C661.62 298.333 661.194 296.383 661.194 294.176C661.194 291.941 661.625 289.981 662.487 288.295C663.358 286.6 664.594 285.279 666.194 284.332C667.795 283.376 669.698 282.898 671.904 282.898C673.808 282.898 675.475 283.243 676.904 283.935C678.334 284.626 679.466 285.597 680.299 286.847C681.133 288.097 681.592 289.564 681.677 291.25H675.967C675.806 290.161 675.38 289.285 674.689 288.622C674.007 287.95 673.112 287.614 672.004 287.614C671.066 287.614 670.247 287.869 669.547 288.381C668.855 288.883 668.315 289.616 667.927 290.582C667.539 291.548 667.345 292.718 667.345 294.091C667.345 295.483 667.534 296.667 667.913 297.642C668.301 298.617 668.846 299.361 669.547 299.872C670.247 300.384 671.066 300.639 672.004 300.639C672.695 300.639 673.315 300.497 673.865 300.213C674.423 299.929 674.883 299.517 675.243 298.977C675.612 298.428 675.853 297.77 675.967 297.003H681.677C681.583 298.67 681.128 300.137 680.314 301.406C679.509 302.666 678.396 303.651 676.975 304.361C675.555 305.071 673.874 305.426 671.933 305.426ZM691.603 292.386V305H685.551V275.909H691.432V287.031H691.688C692.18 285.743 692.976 284.735 694.074 284.006C695.173 283.267 696.551 282.898 698.208 282.898C699.723 282.898 701.044 283.229 702.171 283.892C703.307 284.545 704.188 285.488 704.813 286.719C705.447 287.94 705.76 289.403 705.75 291.108V305H699.699V292.188C699.709 290.843 699.368 289.796 698.676 289.048C697.995 288.3 697.038 287.926 695.807 287.926C694.983 287.926 694.254 288.101 693.62 288.452C692.995 288.802 692.502 289.313 692.142 289.986C691.792 290.649 691.612 291.449 691.603 292.386ZM720.456 305.426C718.211 305.426 716.279 304.972 714.66 304.062C713.05 303.144 711.81 301.847 710.939 300.17C710.067 298.485 709.632 296.491 709.632 294.19C709.632 291.946 710.067 289.976 710.939 288.281C711.81 286.586 713.036 285.265 714.618 284.318C716.208 283.371 718.074 282.898 720.214 282.898C721.654 282.898 722.993 283.13 724.234 283.594C725.484 284.048 726.573 284.735 727.501 285.653C728.439 286.572 729.168 287.727 729.689 289.119C730.209 290.502 730.47 292.121 730.47 293.977V295.639H712.047V291.889H724.774C724.774 291.018 724.584 290.246 724.206 289.574C723.827 288.902 723.301 288.376 722.629 287.997C721.966 287.609 721.194 287.415 720.314 287.415C719.395 287.415 718.581 287.628 717.87 288.054C717.17 288.471 716.62 289.034 716.223 289.744C715.825 290.445 715.621 291.226 715.612 292.088V295.653C715.612 296.733 715.811 297.666 716.208 298.452C716.616 299.238 717.189 299.844 717.927 300.27C718.666 300.696 719.542 300.909 720.555 300.909C721.227 300.909 721.843 300.814 722.402 300.625C722.96 300.436 723.439 300.152 723.836 299.773C724.234 299.394 724.537 298.93 724.745 298.381L730.342 298.75C730.058 300.095 729.475 301.269 728.595 302.273C727.724 303.267 726.597 304.044 725.214 304.602C723.841 305.152 722.255 305.426 720.456 305.426Z" fill="white"/>
<path d="M895.224 234V210.727H898.043V231.5H908.861V234H895.224ZM913.224 234V210.727H921.088C922.906 210.727 924.399 211.038 925.565 211.659C926.732 212.273 927.596 213.117 928.156 214.193C928.717 215.269 928.997 216.492 928.997 217.864C928.997 219.235 928.717 220.451 928.156 221.511C927.596 222.572 926.736 223.405 925.577 224.011C924.418 224.61 922.937 224.909 921.134 224.909H914.77V222.364H921.043C922.285 222.364 923.285 222.182 924.043 221.818C924.808 221.455 925.361 220.939 925.702 220.273C926.05 219.598 926.224 218.795 926.224 217.864C926.224 216.932 926.05 216.117 925.702 215.42C925.353 214.723 924.796 214.186 924.031 213.807C923.266 213.42 922.255 213.227 920.997 213.227H916.043V234H913.224ZM924.179 223.545L929.906 234H926.634L920.997 223.545H924.179ZM948.966 210.727H951.784V226.136C951.784 227.727 951.409 229.148 950.659 230.398C949.917 231.64 948.867 232.621 947.511 233.341C946.155 234.053 944.564 234.409 942.739 234.409C940.913 234.409 939.322 234.053 937.966 233.341C936.61 232.621 935.557 231.64 934.807 230.398C934.064 229.148 933.693 227.727 933.693 226.136V210.727H936.511V225.909C936.511 227.045 936.761 228.057 937.261 228.943C937.761 229.822 938.473 230.515 939.398 231.023C940.33 231.523 941.443 231.773 942.739 231.773C944.034 231.773 945.148 231.523 946.08 231.023C947.011 230.515 947.723 229.822 948.216 228.943C948.716 228.057 948.966 227.045 948.966 225.909V210.727Z" fill="#717171"/>
<path d="M895.224 490V466.727H898.043V487.5H908.861V490H895.224ZM913.224 490V466.727H921.088C922.906 466.727 924.399 467.038 925.565 467.659C926.732 468.273 927.596 469.117 928.156 470.193C928.717 471.269 928.997 472.492 928.997 473.864C928.997 475.235 928.717 476.451 928.156 477.511C927.596 478.572 926.736 479.405 925.577 480.011C924.418 480.61 922.937 480.909 921.134 480.909H914.77V478.364H921.043C922.285 478.364 923.285 478.182 924.043 477.818C924.808 477.455 925.361 476.939 925.702 476.273C926.05 475.598 926.224 474.795 926.224 473.864C926.224 472.932 926.05 472.117 925.702 471.42C925.353 470.723 924.796 470.186 924.031 469.807C923.266 469.42 922.255 469.227 920.997 469.227H916.043V490H913.224ZM924.179 479.545L929.906 490H926.634L920.997 479.545H924.179ZM948.966 466.727H951.784V482.136C951.784 483.727 951.409 485.148 950.659 486.398C949.917 487.64 948.867 488.621 947.511 489.341C946.155 490.053 944.564 490.409 942.739 490.409C940.913 490.409 939.322 490.053 937.966 489.341C936.61 488.621 935.557 487.64 934.807 486.398C934.064 485.148 933.693 483.727 933.693 482.136V466.727H936.511V481.909C936.511 483.045 936.761 484.057 937.261 484.943C937.761 485.822 938.473 486.515 939.398 487.023C940.33 487.523 941.443 487.773 942.739 487.773C944.034 487.773 945.148 487.523 946.08 487.023C947.011 486.515 947.723 485.822 948.216 484.943C948.716 484.057 948.966 483.045 948.966 481.909V466.727Z" fill="#717171"/>
<path d="M298.99 210.727H302.354L310.263 230.045H310.536L318.445 210.727H321.808V234H319.172V216.318H318.945L311.672 234H309.126L301.854 216.318H301.626V234H298.99V210.727ZM327.459 234V210.727H335.322C337.141 210.727 338.633 211.038 339.8 211.659C340.966 212.273 341.83 213.117 342.391 214.193C342.951 215.269 343.232 216.492 343.232 217.864C343.232 219.235 342.951 220.451 342.391 221.511C341.83 222.572 340.97 223.405 339.811 224.011C338.652 224.61 337.171 224.909 335.368 224.909H329.004V222.364H335.277C336.519 222.364 337.519 222.182 338.277 221.818C339.042 221.455 339.595 220.939 339.936 220.273C340.285 219.598 340.459 218.795 340.459 217.864C340.459 216.932 340.285 216.117 339.936 215.42C339.588 214.723 339.031 214.186 338.266 213.807C337.5 213.42 336.489 213.227 335.232 213.227H330.277V234H327.459ZM338.413 223.545L344.141 234H340.868L335.232 223.545H338.413ZM363.2 210.727H366.018V226.136C366.018 227.727 365.643 229.148 364.893 230.398C364.151 231.64 363.102 232.621 361.746 233.341C360.39 234.053 358.799 234.409 356.973 234.409C355.147 234.409 353.556 234.053 352.2 233.341C350.844 232.621 349.791 231.64 349.041 230.398C348.299 229.148 347.928 227.727 347.928 226.136V210.727H350.746V225.909C350.746 227.045 350.996 228.057 351.496 228.943C351.996 229.822 352.708 230.515 353.632 231.023C354.564 231.523 355.678 231.773 356.973 231.773C358.268 231.773 359.382 231.523 360.314 231.023C361.246 230.515 361.958 229.822 362.45 228.943C362.95 228.057 363.2 227.045 363.2 225.909V210.727Z" fill="#717171"/>
<path d="M298.99 466.727H302.354L310.263 486.045H310.536L318.445 466.727H321.808V490H319.172V472.318H318.945L311.672 490H309.126L301.854 472.318H301.626V490H298.99V466.727ZM327.459 490V466.727H335.322C337.141 466.727 338.633 467.038 339.8 467.659C340.966 468.273 341.83 469.117 342.391 470.193C342.951 471.269 343.232 472.492 343.232 473.864C343.232 475.235 342.951 476.451 342.391 477.511C341.83 478.572 340.97 479.405 339.811 480.011C338.652 480.61 337.171 480.909 335.368 480.909H329.004V478.364H335.277C336.519 478.364 337.519 478.182 338.277 477.818C339.042 477.455 339.595 476.939 339.936 476.273C340.285 475.598 340.459 474.795 340.459 473.864C340.459 472.932 340.285 472.117 339.936 471.42C339.588 470.723 339.031 470.186 338.266 469.807C337.5 469.42 336.489 469.227 335.232 469.227H330.277V490H327.459ZM338.413 479.545L344.141 490H340.868L335.232 479.545H338.413ZM363.2 466.727H366.018V482.136C366.018 483.727 365.643 485.148 364.893 486.398C364.151 487.64 363.102 488.621 361.746 489.341C360.39 490.053 358.799 490.409 356.973 490.409C355.147 490.409 353.556 490.053 352.2 489.341C350.844 488.621 349.791 487.64 349.041 486.398C348.299 485.148 347.928 483.727 347.928 482.136V466.727H350.746V481.909C350.746 483.045 350.996 484.057 351.496 484.943C351.996 485.822 352.708 486.515 353.632 487.023C354.564 487.523 355.678 487.773 356.973 487.773C358.268 487.773 359.382 487.523 360.314 487.023C361.246 486.515 361.958 485.822 362.45 484.943C362.95 484.057 363.2 483.045 363.2 481.909V466.727Z" fill="#717171"/>
<path d="M6.14631 149V125.727H14.0099C15.8357 125.727 17.3281 126.057 18.4872 126.716C19.6539 127.367 20.5175 128.25 21.0781 129.364C21.6387 130.477 21.919 131.72 21.919 133.091C21.919 134.462 21.6387 135.708 21.0781 136.83C20.5251 137.951 19.669 138.845 18.5099 139.511C17.3509 140.17 15.866 140.5 14.0554 140.5H8.41903V138H13.9645C15.2145 138 16.2183 137.784 16.9759 137.352C17.7334 136.92 18.2827 136.337 18.6236 135.602C18.9721 134.86 19.1463 134.023 19.1463 133.091C19.1463 132.159 18.9721 131.326 18.6236 130.591C18.2827 129.856 17.7296 129.28 16.9645 128.864C16.1993 128.439 15.1842 128.227 13.919 128.227H8.96449V149H6.14631ZM31.2315 149.409C30.1255 149.409 29.1217 149.201 28.2202 148.784C27.3187 148.36 26.6027 147.75 26.0724 146.955C25.5421 146.152 25.277 145.182 25.277 144.045C25.277 143.045 25.474 142.235 25.8679 141.614C26.2618 140.985 26.7884 140.492 27.4474 140.136C28.1065 139.78 28.8338 139.515 29.6293 139.341C30.4323 139.159 31.2391 139.015 32.0497 138.909C33.1103 138.773 33.9702 138.67 34.6293 138.602C35.2959 138.527 35.7808 138.402 36.0838 138.227C36.3944 138.053 36.5497 137.75 36.5497 137.318V137.227C36.5497 136.106 36.2429 135.235 35.6293 134.614C35.0232 133.992 34.1027 133.682 32.8679 133.682C31.5876 133.682 30.5838 133.962 29.8565 134.523C29.1293 135.083 28.6179 135.682 28.3224 136.318L25.777 135.409C26.2315 134.348 26.8376 133.523 27.5952 132.932C28.3603 132.333 29.1937 131.917 30.0952 131.682C31.0043 131.439 31.8982 131.318 32.777 131.318C33.3376 131.318 33.9815 131.386 34.7088 131.523C35.4437 131.652 36.152 131.92 36.8338 132.33C37.5232 132.739 38.0952 133.356 38.5497 134.182C39.0043 135.008 39.2315 136.114 39.2315 137.5V149H36.5497V146.636H36.4134C36.2315 147.015 35.9285 147.42 35.5043 147.852C35.08 148.284 34.5156 148.652 33.8111 148.955C33.1065 149.258 32.2467 149.409 31.2315 149.409ZM31.6406 147C32.7012 147 33.5952 146.792 34.3224 146.375C35.0573 145.958 35.6103 145.42 35.9815 144.761C36.3603 144.102 36.5497 143.409 36.5497 142.682V140.227C36.4361 140.364 36.1861 140.489 35.7997 140.602C35.4209 140.708 34.9815 140.803 34.4815 140.886C33.9891 140.962 33.508 141.03 33.0384 141.091C32.5762 141.144 32.2012 141.189 31.9134 141.227C31.2164 141.318 30.5649 141.466 29.9588 141.67C29.3603 141.867 28.8755 142.167 28.5043 142.568C28.1406 142.962 27.9588 143.5 27.9588 144.182C27.9588 145.114 28.3035 145.818 28.9929 146.295C29.6899 146.765 30.5724 147 31.6406 147ZM51.1719 155.909C49.8764 155.909 48.7628 155.742 47.831 155.409C46.8991 155.083 46.1226 154.652 45.5014 154.114C44.8878 153.583 44.3991 153.015 44.0355 152.409L46.1719 150.909C46.4143 151.227 46.7211 151.591 47.0923 152C47.4635 152.417 47.9711 152.777 48.6151 153.08C49.2666 153.39 50.1188 153.545 51.1719 153.545C52.581 153.545 53.7438 153.205 54.6605 152.523C55.5772 151.841 56.0355 150.773 56.0355 149.318V145.773H55.8082C55.6113 146.091 55.331 146.485 54.9673 146.955C54.6113 147.417 54.0961 147.83 53.4219 148.193C52.7552 148.549 51.8537 148.727 50.7173 148.727C49.3082 148.727 48.0431 148.394 46.9219 147.727C45.8082 147.061 44.9257 146.091 44.2741 144.818C43.6302 143.545 43.3082 142 43.3082 140.182C43.3082 138.394 43.6226 136.837 44.2514 135.511C44.8802 134.178 45.7552 133.148 46.8764 132.42C47.9976 131.686 49.2931 131.318 50.7628 131.318C51.8991 131.318 52.8007 131.508 53.4673 131.886C54.1416 132.258 54.6567 132.682 55.0128 133.159C55.3764 133.629 55.6567 134.015 55.8537 134.318H56.1264V131.545H58.7173V149.5C58.7173 151 58.3764 152.22 57.6946 153.159C57.0204 154.106 56.1113 154.799 54.9673 155.239C53.831 155.686 52.5658 155.909 51.1719 155.909ZM51.081 146.318C52.1567 146.318 53.0658 146.072 53.8082 145.58C54.5507 145.087 55.1151 144.379 55.5014 143.455C55.8878 142.53 56.081 141.424 56.081 140.136C56.081 138.879 55.8916 137.769 55.5128 136.807C55.134 135.845 54.5734 135.091 53.831 134.545C53.0885 134 52.1719 133.727 51.081 133.727C49.9446 133.727 48.9976 134.015 48.2401 134.591C47.4901 135.167 46.9257 135.939 46.5469 136.909C46.1757 137.879 45.9901 138.955 45.9901 140.136C45.9901 141.348 46.1795 142.42 46.5582 143.352C46.9446 144.277 47.5128 145.004 48.2628 145.534C49.0204 146.057 49.9598 146.318 51.081 146.318ZM70.9446 149.364C69.2628 149.364 67.812 148.992 66.5923 148.25C65.3802 147.5 64.4446 146.455 63.7855 145.114C63.134 143.765 62.8082 142.197 62.8082 140.409C62.8082 138.621 63.134 137.045 63.7855 135.682C64.4446 134.311 65.3613 133.242 66.5355 132.477C67.7173 131.705 69.0961 131.318 70.6719 131.318C71.581 131.318 72.4787 131.47 73.3651 131.773C74.2514 132.076 75.0582 132.568 75.7855 133.25C76.5128 133.924 77.0923 134.818 77.5241 135.932C77.956 137.045 78.1719 138.417 78.1719 140.045V141.182H64.7173V138.864H75.4446C75.4446 137.879 75.2476 137 74.8537 136.227C74.4673 135.455 73.9143 134.845 73.1946 134.398C72.4825 133.951 71.6416 133.727 70.6719 133.727C69.6037 133.727 68.6795 133.992 67.8991 134.523C67.1264 135.045 66.5317 135.727 66.1151 136.568C65.6984 137.409 65.4901 138.311 65.4901 139.273V140.818C65.4901 142.136 65.7173 143.254 66.1719 144.17C66.634 145.08 67.2741 145.773 68.0923 146.25C68.9105 146.72 69.8613 146.955 70.9446 146.955C71.6491 146.955 72.2855 146.856 72.8537 146.659C73.4295 146.455 73.9257 146.152 74.3423 145.75C74.759 145.341 75.081 144.833 75.3082 144.227L77.8991 144.955C77.6264 145.833 77.1681 146.606 76.5241 147.273C75.8802 147.932 75.0848 148.447 74.1378 148.818C73.1908 149.182 72.1264 149.364 70.9446 149.364ZM99.3878 125.727V149H96.5696V128.682H96.4332L90.7514 132.455V129.591L96.5696 125.727H99.3878Z" fill="white"/>
<path d="M355.876 138.773V141.273H345.695V138.773H355.876ZM370.595 138.773V141.273H360.413V138.773H370.595ZM385.314 138.773V141.273H375.132V138.773H385.314Z" fill="white"/>
<path d="M318.146 406V382.727H326.01C327.836 382.727 329.328 383.057 330.487 383.716C331.654 384.367 332.518 385.25 333.078 386.364C333.639 387.477 333.919 388.72 333.919 390.091C333.919 391.462 333.639 392.708 333.078 393.83C332.525 394.951 331.669 395.845 330.51 396.511C329.351 397.17 327.866 397.5 326.055 397.5H320.419V395H325.964C327.214 395 328.218 394.784 328.976 394.352C329.733 393.92 330.283 393.337 330.624 392.602C330.972 391.86 331.146 391.023 331.146 390.091C331.146 389.159 330.972 388.326 330.624 387.591C330.283 386.856 329.73 386.28 328.964 385.864C328.199 385.439 327.184 385.227 325.919 385.227H320.964V406H318.146ZM343.232 406.409C342.125 406.409 341.122 406.201 340.22 405.784C339.319 405.36 338.603 404.75 338.072 403.955C337.542 403.152 337.277 402.182 337.277 401.045C337.277 400.045 337.474 399.235 337.868 398.614C338.262 397.985 338.788 397.492 339.447 397.136C340.107 396.78 340.834 396.515 341.629 396.341C342.432 396.159 343.239 396.015 344.05 395.909C345.11 395.773 345.97 395.67 346.629 395.602C347.296 395.527 347.781 395.402 348.084 395.227C348.394 395.053 348.55 394.75 348.55 394.318V394.227C348.55 393.106 348.243 392.235 347.629 391.614C347.023 390.992 346.103 390.682 344.868 390.682C343.588 390.682 342.584 390.962 341.857 391.523C341.129 392.083 340.618 392.682 340.322 393.318L337.777 392.409C338.232 391.348 338.838 390.523 339.595 389.932C340.36 389.333 341.194 388.917 342.095 388.682C343.004 388.439 343.898 388.318 344.777 388.318C345.338 388.318 345.982 388.386 346.709 388.523C347.444 388.652 348.152 388.92 348.834 389.33C349.523 389.739 350.095 390.356 350.55 391.182C351.004 392.008 351.232 393.114 351.232 394.5V406H348.55V403.636H348.413C348.232 404.015 347.929 404.42 347.504 404.852C347.08 405.284 346.516 405.652 345.811 405.955C345.107 406.258 344.247 406.409 343.232 406.409ZM343.641 404C344.701 404 345.595 403.792 346.322 403.375C347.057 402.958 347.61 402.42 347.982 401.761C348.36 401.102 348.55 400.409 348.55 399.682V397.227C348.436 397.364 348.186 397.489 347.8 397.602C347.421 397.708 346.982 397.803 346.482 397.886C345.989 397.962 345.508 398.03 345.038 398.091C344.576 398.144 344.201 398.189 343.913 398.227C343.216 398.318 342.565 398.466 341.959 398.67C341.36 398.867 340.875 399.167 340.504 399.568C340.141 399.962 339.959 400.5 339.959 401.182C339.959 402.114 340.304 402.818 340.993 403.295C341.69 403.765 342.572 404 343.641 404ZM363.172 412.909C361.876 412.909 360.763 412.742 359.831 412.409C358.899 412.083 358.123 411.652 357.501 411.114C356.888 410.583 356.399 410.015 356.036 409.409L358.172 407.909C358.414 408.227 358.721 408.591 359.092 409C359.464 409.417 359.971 409.777 360.615 410.08C361.267 410.39 362.119 410.545 363.172 410.545C364.581 410.545 365.744 410.205 366.661 409.523C367.577 408.841 368.036 407.773 368.036 406.318V402.773H367.808C367.611 403.091 367.331 403.485 366.967 403.955C366.611 404.417 366.096 404.83 365.422 405.193C364.755 405.549 363.854 405.727 362.717 405.727C361.308 405.727 360.043 405.394 358.922 404.727C357.808 404.061 356.926 403.091 356.274 401.818C355.63 400.545 355.308 399 355.308 397.182C355.308 395.394 355.623 393.837 356.251 392.511C356.88 391.178 357.755 390.148 358.876 389.42C359.998 388.686 361.293 388.318 362.763 388.318C363.899 388.318 364.801 388.508 365.467 388.886C366.142 389.258 366.657 389.682 367.013 390.159C367.376 390.629 367.657 391.015 367.854 391.318H368.126V388.545H370.717V406.5C370.717 408 370.376 409.22 369.695 410.159C369.02 411.106 368.111 411.799 366.967 412.239C365.831 412.686 364.566 412.909 363.172 412.909ZM363.081 403.318C364.157 403.318 365.066 403.072 365.808 402.58C366.551 402.087 367.115 401.379 367.501 400.455C367.888 399.53 368.081 398.424 368.081 397.136C368.081 395.879 367.892 394.769 367.513 393.807C367.134 392.845 366.573 392.091 365.831 391.545C365.089 391 364.172 390.727 363.081 390.727C361.945 390.727 360.998 391.015 360.24 391.591C359.49 392.167 358.926 392.939 358.547 393.909C358.176 394.879 357.99 395.955 357.99 397.136C357.99 398.348 358.179 399.42 358.558 400.352C358.945 401.277 359.513 402.004 360.263 402.534C361.02 403.057 361.96 403.318 363.081 403.318ZM382.945 406.364C381.263 406.364 379.812 405.992 378.592 405.25C377.38 404.5 376.445 403.455 375.786 402.114C375.134 400.765 374.808 399.197 374.808 397.409C374.808 395.621 375.134 394.045 375.786 392.682C376.445 391.311 377.361 390.242 378.536 389.477C379.717 388.705 381.096 388.318 382.672 388.318C383.581 388.318 384.479 388.47 385.365 388.773C386.251 389.076 387.058 389.568 387.786 390.25C388.513 390.924 389.092 391.818 389.524 392.932C389.956 394.045 390.172 395.417 390.172 397.045V398.182H376.717V395.864H387.445C387.445 394.879 387.248 394 386.854 393.227C386.467 392.455 385.914 391.845 385.195 391.398C384.482 390.951 383.642 390.727 382.672 390.727C381.604 390.727 380.679 390.992 379.899 391.523C379.126 392.045 378.532 392.727 378.115 393.568C377.698 394.409 377.49 395.311 377.49 396.273V397.818C377.49 399.136 377.717 400.254 378.172 401.17C378.634 402.08 379.274 402.773 380.092 403.25C380.911 403.72 381.861 403.955 382.945 403.955C383.649 403.955 384.286 403.856 384.854 403.659C385.429 403.455 385.926 403.152 386.342 402.75C386.759 402.341 387.081 401.833 387.308 401.227L389.899 401.955C389.626 402.833 389.168 403.606 388.524 404.273C387.88 404.932 387.085 405.447 386.138 405.818C385.191 406.182 384.126 406.364 382.945 406.364ZM411.388 382.727V406H408.57V385.682H408.433L402.751 389.455V386.591L408.57 382.727H411.388Z" fill="white"/>
<path d="M486.876 138.773V141.273H476.695V138.773H486.876ZM501.595 138.773V141.273H491.413V138.773H501.595ZM516.314 138.773V141.273H506.132V138.773H516.314Z" fill="white"/>
<path d="M486.876 394.773V397.273H476.695V394.773H486.876ZM501.595 394.773V397.273H491.413V394.773H501.595ZM516.314 394.773V397.273H506.132V394.773H516.314Z" fill="white"/>
<path d="M617.876 138.773V141.273H607.695V138.773H617.876ZM632.595 138.773V141.273H622.413V138.773H632.595ZM647.314 138.773V141.273H637.132V138.773H647.314Z" fill="white"/>
<path d="M617.876 394.773V397.273H607.695V394.773H617.876ZM632.595 394.773V397.273H622.413V394.773H632.595ZM647.314 394.773V397.273H637.132V394.773H647.314Z" fill="white"/>
<path d="M748.876 138.773V141.273H738.695V138.773H748.876ZM763.595 138.773V141.273H753.413V138.773H763.595ZM778.314 138.773V141.273H768.132V138.773H778.314Z" fill="white"/>
<path d="M748.876 394.773V397.273H738.695V394.773H748.876ZM763.595 394.773V397.273H753.413V394.773H763.595ZM778.314 394.773V397.273H768.132V394.773H778.314Z" fill="white"/>
<path d="M879.876 138.773V141.273H869.695V138.773H879.876ZM894.595 138.773V141.273H884.413V138.773H894.595ZM909.314 138.773V141.273H899.132V138.773H909.314Z" fill="white"/>
<path d="M879.876 394.773V397.273H869.695V394.773H879.876ZM894.595 394.773V397.273H884.413V394.773H894.595ZM909.314 394.773V397.273H899.132V394.773H909.314Z" fill="white"/>
<line x1="430" y1="89" x2="430" y2="186" stroke="#DBDBDB" stroke-width="2"/>
<line x1="430" y1="345" x2="430" y2="442" stroke="#DBDBDB" stroke-width="2"/>
<line x1="561" y1="89" x2="561" y2="186" stroke="#DBDBDB" stroke-width="2"/>
<line x1="561" y1="345" x2="561" y2="442" stroke="#DBDBDB" stroke-width="2"/>
<line x1="692" y1="89" x2="692" y2="186" stroke="#DBDBDB" stroke-width="2"/>
<line x1="692" y1="345" x2="692" y2="442" stroke="#DBDBDB" stroke-width="2"/>
<line x1="823" y1="89" x2="823" y2="186" stroke="#DBDBDB" stroke-width="2"/>
<line x1="823" y1="345" x2="823" y2="442" stroke="#DBDBDB" stroke-width="2"/>
<path d="M245.875 122.25L262.125 138.5L245.875 154.75" stroke="#DBDBDB" stroke-width="4" stroke-linecap="round" stroke-linejoin="round"/>
<line x1="140" y1="137" x2="259" y2="137" stroke="#DBDBDB" stroke-width="5"/>
</svg>
