<svg width="977" height="512" viewBox="0 0 977 512" fill="none" xmlns="http://www.w3.org/2000/svg">
<rect x="296" y="89" width="659" height="97" rx="27" stroke="#DBDBDB" stroke-width="2"/>
<rect x="296" y="345" width="659" height="97" rx="27" stroke="#DBDBDB" stroke-width="2"/>
<path d="M521.525 49V19.9091H527.675V43.929H540.147V49H521.525ZM544.22 49V19.9091H555.697C557.894 19.9091 559.769 20.3021 561.322 21.0881C562.885 21.8646 564.073 22.9678 564.887 24.3977C565.711 25.8182 566.123 27.4896 566.123 29.4119C566.123 31.3437 565.707 33.0057 564.873 34.3977C564.04 35.7803 562.833 36.8409 561.251 37.5795C559.679 38.3182 557.776 38.6875 555.541 38.6875H547.856V33.7443H554.547C555.721 33.7443 556.696 33.5833 557.473 33.2614C558.249 32.9394 558.827 32.4564 559.206 31.8125C559.594 31.1686 559.788 30.3684 559.788 29.4119C559.788 28.446 559.594 27.6316 559.206 26.9688C558.827 26.3059 558.244 25.804 557.458 25.4631C556.682 25.1127 555.702 24.9375 554.518 24.9375H550.37V49H544.22ZM559.93 35.7614L567.16 49H560.37L553.297 35.7614H559.93ZM588.439 19.9091H594.589V38.8011C594.589 40.9223 594.083 42.7784 593.069 44.3693C592.065 45.9602 590.659 47.2008 588.85 48.0909C587.042 48.9716 584.935 49.4119 582.529 49.4119C580.115 49.4119 578.003 48.9716 576.194 48.0909C574.386 47.2008 572.979 45.9602 571.975 44.3693C570.972 42.7784 570.47 40.9223 570.47 38.8011V19.9091H576.62V38.2756C576.62 39.3835 576.862 40.3684 577.345 41.2301C577.837 42.0919 578.529 42.7689 579.419 43.2614C580.309 43.7538 581.346 44 582.529 44C583.723 44 584.76 43.7538 585.64 43.2614C586.53 42.7689 587.217 42.0919 587.7 41.2301C588.192 40.3684 588.439 39.3835 588.439 38.2756V19.9091ZM634.575 30.0938H628.353C628.24 29.2888 628.008 28.5739 627.657 27.9489C627.307 27.3144 626.857 26.7746 626.308 26.3295C625.759 25.8845 625.124 25.5436 624.404 25.3068C623.694 25.0701 622.922 24.9517 622.089 24.9517C620.583 24.9517 619.272 25.3258 618.154 26.0739C617.037 26.8125 616.171 27.892 615.555 29.3125C614.94 30.7235 614.632 32.4375 614.632 34.4545C614.632 36.5284 614.94 38.2708 615.555 39.6818C616.18 41.0928 617.051 42.1581 618.169 42.8778C619.286 43.5975 620.579 43.9574 622.047 43.9574C622.87 43.9574 623.633 43.8485 624.333 43.6307C625.044 43.4129 625.673 43.0956 626.223 42.679C626.772 42.2528 627.226 41.7367 627.586 41.1307C627.956 40.5246 628.211 39.8333 628.353 39.0568L634.575 39.0852C634.414 40.4205 634.011 41.7083 633.368 42.9489C632.733 44.1799 631.876 45.2831 630.797 46.2585C629.726 47.2244 628.448 47.9915 626.961 48.5597C625.484 49.1184 623.813 49.3977 621.947 49.3977C619.352 49.3977 617.032 48.8106 614.987 47.6364C612.951 46.4621 611.341 44.7623 610.157 42.5369C608.983 40.3116 608.396 37.6174 608.396 34.4545C608.396 31.2822 608.993 28.5833 610.186 26.358C611.379 24.1326 612.998 22.4375 615.044 21.2727C617.089 20.0985 619.39 19.5114 621.947 19.5114C623.633 19.5114 625.195 19.7481 626.635 20.2216C628.083 20.6951 629.367 21.3864 630.484 22.2955C631.601 23.1951 632.511 24.2983 633.211 25.6051C633.922 26.9119 634.376 28.4081 634.575 30.0938ZM645.093 49.4119C643.701 49.4119 642.461 49.1705 641.372 48.6875C640.283 48.1951 639.421 47.4706 638.787 46.5142C638.162 45.5483 637.849 44.3456 637.849 42.9062C637.849 41.6941 638.072 40.6761 638.517 39.8523C638.962 39.0284 639.568 38.3655 640.335 37.8636C641.102 37.3617 641.973 36.983 642.949 36.7273C643.933 36.4716 644.966 36.2917 646.045 36.1875C647.314 36.0549 648.337 35.9318 649.113 35.8182C649.89 35.6951 650.453 35.5152 650.804 35.2784C651.154 35.0417 651.329 34.6913 651.329 34.2273V34.142C651.329 33.2424 651.045 32.5464 650.477 32.054C649.918 31.5616 649.123 31.3153 648.091 31.3153C647.002 31.3153 646.135 31.5568 645.491 32.0398C644.847 32.5133 644.421 33.1098 644.213 33.8295L638.616 33.375C638.9 32.0492 639.459 30.9034 640.292 29.9375C641.126 28.9621 642.2 28.214 643.517 27.6932C644.842 27.1629 646.377 26.8977 648.119 26.8977C649.331 26.8977 650.491 27.0398 651.599 27.3239C652.717 27.608 653.706 28.0483 654.568 28.6449C655.439 29.2415 656.126 30.0085 656.627 30.946C657.129 31.8741 657.38 32.9867 657.38 34.2841V49H651.642V45.9744H651.471C651.121 46.6562 650.652 47.2576 650.065 47.7784C649.478 48.2898 648.772 48.6922 647.949 48.9858C647.125 49.2699 646.173 49.4119 645.093 49.4119ZM646.826 45.2358C647.717 45.2358 648.502 45.0606 649.184 44.7102C649.866 44.3504 650.401 43.8674 650.789 43.2614C651.178 42.6553 651.372 41.9687 651.372 41.2017V38.8864C651.182 39.0095 650.922 39.1231 650.591 39.2273C650.269 39.322 649.904 39.4119 649.497 39.4972C649.09 39.5729 648.682 39.6439 648.275 39.7102C647.868 39.767 647.499 39.8191 647.167 39.8665C646.457 39.9706 645.837 40.1364 645.306 40.3636C644.776 40.5909 644.364 40.8987 644.071 41.2869C643.777 41.6657 643.63 42.1392 643.63 42.7074C643.63 43.5312 643.929 44.161 644.525 44.5966C645.131 45.0227 645.898 45.2358 646.826 45.2358ZM671.933 49.4261C669.698 49.4261 667.776 48.9527 666.166 48.0057C664.565 47.0492 663.334 45.7235 662.473 44.0284C661.62 42.3333 661.194 40.3826 661.194 38.1761C661.194 35.9413 661.625 33.9811 662.487 32.2955C663.358 30.6004 664.594 29.2794 666.194 28.3324C667.795 27.3759 669.698 26.8977 671.904 26.8977C673.808 26.8977 675.475 27.2434 676.904 27.9347C678.334 28.6259 679.466 29.5966 680.299 30.8466C681.133 32.0966 681.592 33.5644 681.677 35.25H675.967C675.806 34.161 675.38 33.285 674.689 32.6222C674.007 31.9498 673.112 31.6136 672.004 31.6136C671.066 31.6136 670.247 31.8693 669.547 32.3807C668.855 32.8826 668.315 33.6165 667.927 34.5824C667.539 35.5483 667.345 36.7178 667.345 38.0909C667.345 39.483 667.534 40.6667 667.913 41.642C668.301 42.6174 668.846 43.3608 669.547 43.8722C670.247 44.3835 671.066 44.6392 672.004 44.6392C672.695 44.6392 673.315 44.4972 673.865 44.2131C674.423 43.929 674.883 43.517 675.243 42.9773C675.612 42.428 675.853 41.7699 675.967 41.0028H681.677C681.583 42.6695 681.128 44.1373 680.314 45.4062C679.509 46.6657 678.396 47.6506 676.975 48.3608C675.555 49.071 673.874 49.4261 671.933 49.4261ZM691.603 36.3864V49H685.551V19.9091H691.432V31.0312H691.688C692.18 29.7434 692.976 28.7348 694.074 28.0057C695.173 27.267 696.551 26.8977 698.208 26.8977C699.723 26.8977 701.044 27.2292 702.171 27.892C703.307 28.5455 704.188 29.4877 704.813 30.7188C705.447 31.9403 705.76 33.4034 705.75 35.108V49H699.699V36.1875C699.709 34.8428 699.368 33.7964 698.676 33.0483C697.995 32.3002 697.038 31.9261 695.807 31.9261C694.983 31.9261 694.254 32.1013 693.62 32.4517C692.995 32.8021 692.502 33.3134 692.142 33.9858C691.792 34.6487 691.612 35.4489 691.603 36.3864ZM720.456 49.4261C718.211 49.4261 716.279 48.9716 714.66 48.0625C713.05 47.1439 711.81 45.8466 710.939 44.1705C710.067 42.4848 709.632 40.4915 709.632 38.1903C709.632 35.946 710.067 33.9763 710.939 32.2812C711.81 30.5862 713.036 29.2652 714.618 28.3182C716.208 27.3712 718.074 26.8977 720.214 26.8977C721.654 26.8977 722.993 27.1297 724.234 27.5938C725.484 28.0483 726.573 28.7348 727.501 29.6534C728.439 30.572 729.168 31.7273 729.689 33.1193C730.209 34.5019 730.47 36.1212 730.47 37.9773V39.6392H712.047V35.8892H724.774C724.774 35.018 724.584 34.2462 724.206 33.5739C723.827 32.9015 723.301 32.3759 722.629 31.9972C721.966 31.6089 721.194 31.4148 720.314 31.4148C719.395 31.4148 718.581 31.6278 717.87 32.054C717.17 32.4706 716.62 33.0341 716.223 33.7443C715.825 34.4451 715.621 35.2263 715.612 36.0881V39.6534C715.612 40.733 715.811 41.6657 716.208 42.4517C716.616 43.2377 717.189 43.8438 717.927 44.2699C718.666 44.696 719.542 44.9091 720.555 44.9091C721.227 44.9091 721.843 44.8144 722.402 44.625C722.96 44.4356 723.439 44.1515 723.836 43.7727C724.234 43.3939 724.537 42.9299 724.745 42.3807L730.342 42.75C730.058 44.0947 729.475 45.2689 728.595 46.2727C727.724 47.267 726.597 48.0436 725.214 48.6023C723.841 49.1515 722.255 49.4261 720.456 49.4261Z" fill="white"/>
<path d="M521.525 305V275.909H527.675V299.929H540.147V305H521.525ZM544.22 305V275.909H555.697C557.894 275.909 559.769 276.302 561.322 277.088C562.885 277.865 564.073 278.968 564.887 280.398C565.711 281.818 566.123 283.49 566.123 285.412C566.123 287.344 565.707 289.006 564.873 290.398C564.04 291.78 562.833 292.841 561.251 293.58C559.679 294.318 557.776 294.688 555.541 294.688H547.856V289.744H554.547C555.721 289.744 556.696 289.583 557.473 289.261C558.249 288.939 558.827 288.456 559.206 287.812C559.594 287.169 559.788 286.368 559.788 285.412C559.788 284.446 559.594 283.632 559.206 282.969C558.827 282.306 558.244 281.804 557.458 281.463C556.682 281.113 555.702 280.938 554.518 280.938H550.37V305H544.22ZM559.93 291.761L567.16 305H560.37L553.297 291.761H559.93ZM588.439 275.909H594.589V294.801C594.589 296.922 594.083 298.778 593.069 300.369C592.065 301.96 590.659 303.201 588.85 304.091C587.042 304.972 584.935 305.412 582.529 305.412C580.115 305.412 578.003 304.972 576.194 304.091C574.386 303.201 572.979 301.96 571.975 300.369C570.972 298.778 570.47 296.922 570.47 294.801V275.909H576.62V294.276C576.62 295.384 576.862 296.368 577.345 297.23C577.837 298.092 578.529 298.769 579.419 299.261C580.309 299.754 581.346 300 582.529 300C583.723 300 584.76 299.754 585.64 299.261C586.53 298.769 587.217 298.092 587.7 297.23C588.192 296.368 588.439 295.384 588.439 294.276V275.909ZM634.575 286.094H628.353C628.24 285.289 628.008 284.574 627.657 283.949C627.307 283.314 626.857 282.775 626.308 282.33C625.759 281.884 625.124 281.544 624.404 281.307C623.694 281.07 622.922 280.952 622.089 280.952C620.583 280.952 619.272 281.326 618.154 282.074C617.037 282.812 616.171 283.892 615.555 285.312C614.94 286.723 614.632 288.437 614.632 290.455C614.632 292.528 614.94 294.271 615.555 295.682C616.18 297.093 617.051 298.158 618.169 298.878C619.286 299.598 620.579 299.957 622.047 299.957C622.87 299.957 623.633 299.848 624.333 299.631C625.044 299.413 625.673 299.096 626.223 298.679C626.772 298.253 627.226 297.737 627.586 297.131C627.956 296.525 628.211 295.833 628.353 295.057L634.575 295.085C634.414 296.42 634.011 297.708 633.368 298.949C632.733 300.18 631.876 301.283 630.797 302.259C629.726 303.224 628.448 303.991 626.961 304.56C625.484 305.118 623.813 305.398 621.947 305.398C619.352 305.398 617.032 304.811 614.987 303.636C612.951 302.462 611.341 300.762 610.157 298.537C608.983 296.312 608.396 293.617 608.396 290.455C608.396 287.282 608.993 284.583 610.186 282.358C611.379 280.133 612.998 278.437 615.044 277.273C617.089 276.098 619.39 275.511 621.947 275.511C623.633 275.511 625.195 275.748 626.635 276.222C628.083 276.695 629.367 277.386 630.484 278.295C631.601 279.195 632.511 280.298 633.211 281.605C633.922 282.912 634.376 284.408 634.575 286.094ZM645.093 305.412C643.701 305.412 642.461 305.17 641.372 304.688C640.283 304.195 639.421 303.471 638.787 302.514C638.162 301.548 637.849 300.346 637.849 298.906C637.849 297.694 638.072 296.676 638.517 295.852C638.962 295.028 639.568 294.366 640.335 293.864C641.102 293.362 641.973 292.983 642.949 292.727C643.933 292.472 644.966 292.292 646.045 292.188C647.314 292.055 648.337 291.932 649.113 291.818C649.89 291.695 650.453 291.515 650.804 291.278C651.154 291.042 651.329 290.691 651.329 290.227V290.142C651.329 289.242 651.045 288.546 650.477 288.054C649.918 287.562 649.123 287.315 648.091 287.315C647.002 287.315 646.135 287.557 645.491 288.04C644.847 288.513 644.421 289.11 644.213 289.83L638.616 289.375C638.9 288.049 639.459 286.903 640.292 285.938C641.126 284.962 642.2 284.214 643.517 283.693C644.842 283.163 646.377 282.898 648.119 282.898C649.331 282.898 650.491 283.04 651.599 283.324C652.717 283.608 653.706 284.048 654.568 284.645C655.439 285.241 656.126 286.009 656.627 286.946C657.129 287.874 657.38 288.987 657.38 290.284V305H651.642V301.974H651.471C651.121 302.656 650.652 303.258 650.065 303.778C649.478 304.29 648.772 304.692 647.949 304.986C647.125 305.27 646.173 305.412 645.093 305.412ZM646.826 301.236C647.717 301.236 648.502 301.061 649.184 300.71C649.866 300.35 650.401 299.867 650.789 299.261C651.178 298.655 651.372 297.969 651.372 297.202V294.886C651.182 295.009 650.922 295.123 650.591 295.227C650.269 295.322 649.904 295.412 649.497 295.497C649.09 295.573 648.682 295.644 648.275 295.71C647.868 295.767 647.499 295.819 647.167 295.866C646.457 295.971 645.837 296.136 645.306 296.364C644.776 296.591 644.364 296.899 644.071 297.287C643.777 297.666 643.63 298.139 643.63 298.707C643.63 299.531 643.929 300.161 644.525 300.597C645.131 301.023 645.898 301.236 646.826 301.236ZM671.933 305.426C669.698 305.426 667.776 304.953 666.166 304.006C664.565 303.049 663.334 301.723 662.473 300.028C661.62 298.333 661.194 296.383 661.194 294.176C661.194 291.941 661.625 289.981 662.487 288.295C663.358 286.6 664.594 285.279 666.194 284.332C667.795 283.376 669.698 282.898 671.904 282.898C673.808 282.898 675.475 283.243 676.904 283.935C678.334 284.626 679.466 285.597 680.299 286.847C681.133 288.097 681.592 289.564 681.677 291.25H675.967C675.806 290.161 675.38 289.285 674.689 288.622C674.007 287.95 673.112 287.614 672.004 287.614C671.066 287.614 670.247 287.869 669.547 288.381C668.855 288.883 668.315 289.616 667.927 290.582C667.539 291.548 667.345 292.718 667.345 294.091C667.345 295.483 667.534 296.667 667.913 297.642C668.301 298.617 668.846 299.361 669.547 299.872C670.247 300.384 671.066 300.639 672.004 300.639C672.695 300.639 673.315 300.497 673.865 300.213C674.423 299.929 674.883 299.517 675.243 298.977C675.612 298.428 675.853 297.77 675.967 297.003H681.677C681.583 298.67 681.128 300.137 680.314 301.406C679.509 302.666 678.396 303.651 676.975 304.361C675.555 305.071 673.874 305.426 671.933 305.426ZM691.603 292.386V305H685.551V275.909H691.432V287.031H691.688C692.18 285.743 692.976 284.735 694.074 284.006C695.173 283.267 696.551 282.898 698.208 282.898C699.723 282.898 701.044 283.229 702.171 283.892C703.307 284.545 704.188 285.488 704.813 286.719C705.447 287.94 705.76 289.403 705.75 291.108V305H699.699V292.188C699.709 290.843 699.368 289.796 698.676 289.048C697.995 288.3 697.038 287.926 695.807 287.926C694.983 287.926 694.254 288.101 693.62 288.452C692.995 288.802 692.502 289.313 692.142 289.986C691.792 290.649 691.612 291.449 691.603 292.386ZM720.456 305.426C718.211 305.426 716.279 304.972 714.66 304.062C713.05 303.144 711.81 301.847 710.939 300.17C710.067 298.485 709.632 296.491 709.632 294.19C709.632 291.946 710.067 289.976 710.939 288.281C711.81 286.586 713.036 285.265 714.618 284.318C716.208 283.371 718.074 282.898 720.214 282.898C721.654 282.898 722.993 283.13 724.234 283.594C725.484 284.048 726.573 284.735 727.501 285.653C728.439 286.572 729.168 287.727 729.689 289.119C730.209 290.502 730.47 292.121 730.47 293.977V295.639H712.047V291.889H724.774C724.774 291.018 724.584 290.246 724.206 289.574C723.827 288.902 723.301 288.376 722.629 287.997C721.966 287.609 721.194 287.415 720.314 287.415C719.395 287.415 718.581 287.628 717.87 288.054C717.17 288.471 716.62 289.034 716.223 289.744C715.825 290.445 715.621 291.226 715.612 292.088V295.653C715.612 296.733 715.811 297.666 716.208 298.452C716.616 299.238 717.189 299.844 717.927 300.27C718.666 300.696 719.542 300.909 720.555 300.909C721.227 300.909 721.843 300.814 722.402 300.625C722.96 300.436 723.439 300.152 723.836 299.773C724.234 299.394 724.537 298.93 724.745 298.381L730.342 298.75C730.058 300.095 729.475 301.269 728.595 302.273C727.724 303.267 726.597 304.044 725.214 304.602C723.841 305.152 722.255 305.426 720.456 305.426Z" fill="white"/>
<path d="M895.224 234V210.727H898.043V231.5H908.861V234H895.224ZM913.224 234V210.727H921.088C922.906 210.727 924.399 211.038 925.565 211.659C926.732 212.273 927.596 213.117 928.156 214.193C928.717 215.269 928.997 216.492 928.997 217.864C928.997 219.235 928.717 220.451 928.156 221.511C927.596 222.572 926.736 223.405 925.577 224.011C924.418 224.61 922.937 224.909 921.134 224.909H914.77V222.364H921.043C922.285 222.364 923.285 222.182 924.043 221.818C924.808 221.455 925.361 220.939 925.702 220.273C926.05 219.598 926.224 218.795 926.224 217.864C926.224 216.932 926.05 216.117 925.702 215.42C925.353 214.723 924.796 214.186 924.031 213.807C923.266 213.42 922.255 213.227 920.997 213.227H916.043V234H913.224ZM924.179 223.545L929.906 234H926.634L920.997 223.545H924.179ZM948.966 210.727H951.784V226.136C951.784 227.727 951.409 229.148 950.659 230.398C949.917 231.64 948.867 232.621 947.511 233.341C946.155 234.053 944.564 234.409 942.739 234.409C940.913 234.409 939.322 234.053 937.966 233.341C936.61 232.621 935.557 231.64 934.807 230.398C934.064 229.148 933.693 227.727 933.693 226.136V210.727H936.511V225.909C936.511 227.045 936.761 228.057 937.261 228.943C937.761 229.822 938.473 230.515 939.398 231.023C940.33 231.523 941.443 231.773 942.739 231.773C944.034 231.773 945.148 231.523 946.08 231.023C947.011 230.515 947.723 229.822 948.216 228.943C948.716 228.057 948.966 227.045 948.966 225.909V210.727Z" fill="#717171"/>
<path d="M895.224 490V466.727H898.043V487.5H908.861V490H895.224ZM913.224 490V466.727H921.088C922.906 466.727 924.399 467.038 925.565 467.659C926.732 468.273 927.596 469.117 928.156 470.193C928.717 471.269 928.997 472.492 928.997 473.864C928.997 475.235 928.717 476.451 928.156 477.511C927.596 478.572 926.736 479.405 925.577 480.011C924.418 480.61 922.937 480.909 921.134 480.909H914.77V478.364H921.043C922.285 478.364 923.285 478.182 924.043 477.818C924.808 477.455 925.361 476.939 925.702 476.273C926.05 475.598 926.224 474.795 926.224 473.864C926.224 472.932 926.05 472.117 925.702 471.42C925.353 470.723 924.796 470.186 924.031 469.807C923.266 469.42 922.255 469.227 920.997 469.227H916.043V490H913.224ZM924.179 479.545L929.906 490H926.634L920.997 479.545H924.179ZM948.966 466.727H951.784V482.136C951.784 483.727 951.409 485.148 950.659 486.398C949.917 487.64 948.867 488.621 947.511 489.341C946.155 490.053 944.564 490.409 942.739 490.409C940.913 490.409 939.322 490.053 937.966 489.341C936.61 488.621 935.557 487.64 934.807 486.398C934.064 485.148 933.693 483.727 933.693 482.136V466.727H936.511V481.909C936.511 483.045 936.761 484.057 937.261 484.943C937.761 485.822 938.473 486.515 939.398 487.023C940.33 487.523 941.443 487.773 942.739 487.773C944.034 487.773 945.148 487.523 946.08 487.023C947.011 486.515 947.723 485.822 948.216 484.943C948.716 484.057 948.966 483.045 948.966 481.909V466.727Z" fill="#717171"/>
<path d="M298.99 210.727H302.354L310.263 230.045H310.536L318.445 210.727H321.808V234H319.172V216.318H318.945L311.672 234H309.126L301.854 216.318H301.626V234H298.99V210.727ZM327.459 234V210.727H335.322C337.141 210.727 338.633 211.038 339.8 211.659C340.966 212.273 341.83 213.117 342.391 214.193C342.951 215.269 343.232 216.492 343.232 217.864C343.232 219.235 342.951 220.451 342.391 221.511C341.83 222.572 340.97 223.405 339.811 224.011C338.652 224.61 337.171 224.909 335.368 224.909H329.004V222.364H335.277C336.519 222.364 337.519 222.182 338.277 221.818C339.042 221.455 339.595 220.939 339.936 220.273C340.285 219.598 340.459 218.795 340.459 217.864C340.459 216.932 340.285 216.117 339.936 215.42C339.588 214.723 339.031 214.186 338.266 213.807C337.5 213.42 336.489 213.227 335.232 213.227H330.277V234H327.459ZM338.413 223.545L344.141 234H340.868L335.232 223.545H338.413ZM363.2 210.727H366.018V226.136C366.018 227.727 365.643 229.148 364.893 230.398C364.151 231.64 363.102 232.621 361.746 233.341C360.39 234.053 358.799 234.409 356.973 234.409C355.147 234.409 353.556 234.053 352.2 233.341C350.844 232.621 349.791 231.64 349.041 230.398C348.299 229.148 347.928 227.727 347.928 226.136V210.727H350.746V225.909C350.746 227.045 350.996 228.057 351.496 228.943C351.996 229.822 352.708 230.515 353.632 231.023C354.564 231.523 355.678 231.773 356.973 231.773C358.268 231.773 359.382 231.523 360.314 231.023C361.246 230.515 361.958 229.822 362.45 228.943C362.95 228.057 363.2 227.045 363.2 225.909V210.727Z" fill="#717171"/>
<path d="M298.99 466.727H302.354L310.263 486.045H310.536L318.445 466.727H321.808V490H319.172V472.318H318.945L311.672 490H309.126L301.854 472.318H301.626V490H298.99V466.727ZM327.459 490V466.727H335.322C337.141 466.727 338.633 467.038 339.8 467.659C340.966 468.273 341.83 469.117 342.391 470.193C342.951 471.269 343.232 472.492 343.232 473.864C343.232 475.235 342.951 476.451 342.391 477.511C341.83 478.572 340.97 479.405 339.811 480.011C338.652 480.61 337.171 480.909 335.368 480.909H329.004V478.364H335.277C336.519 478.364 337.519 478.182 338.277 477.818C339.042 477.455 339.595 476.939 339.936 476.273C340.285 475.598 340.459 474.795 340.459 473.864C340.459 472.932 340.285 472.117 339.936 471.42C339.588 470.723 339.031 470.186 338.266 469.807C337.5 469.42 336.489 469.227 335.232 469.227H330.277V490H327.459ZM338.413 479.545L344.141 490H340.868L335.232 479.545H338.413ZM363.2 466.727H366.018V482.136C366.018 483.727 365.643 485.148 364.893 486.398C364.151 487.64 363.102 488.621 361.746 489.341C360.39 490.053 358.799 490.409 356.973 490.409C355.147 490.409 353.556 490.053 352.2 489.341C350.844 488.621 349.791 487.64 349.041 486.398C348.299 485.148 347.928 483.727 347.928 482.136V466.727H350.746V481.909C350.746 483.045 350.996 484.057 351.496 484.943C351.996 485.822 352.708 486.515 353.632 487.023C354.564 487.523 355.678 487.773 356.973 487.773C358.268 487.773 359.382 487.523 360.314 487.023C361.246 486.515 361.958 485.822 362.45 484.943C362.95 484.057 363.2 483.045 363.2 481.909V466.727Z" fill="#717171"/>
<path d="M3.89631 149V125.727H11.7599C13.5857 125.727 15.0781 126.057 16.2372 126.716C17.4039 127.367 18.2675 128.25 18.8281 129.364C19.3887 130.477 19.669 131.72 19.669 133.091C19.669 134.462 19.3887 135.708 18.8281 136.83C18.2751 137.951 17.419 138.845 16.2599 139.511C15.1009 140.17 13.616 140.5 11.8054 140.5H6.16903V138H11.7145C12.9645 138 13.9683 137.784 14.7259 137.352C15.4834 136.92 16.0327 136.337 16.3736 135.602C16.7221 134.86 16.8963 134.023 16.8963 133.091C16.8963 132.159 16.7221 131.326 16.3736 130.591C16.0327 129.856 15.4796 129.28 14.7145 128.864C13.9493 128.439 12.9342 128.227 11.669 128.227H6.71449V149H3.89631ZM28.9815 149.409C27.8755 149.409 26.8717 149.201 25.9702 148.784C25.0687 148.36 24.3527 147.75 23.8224 146.955C23.2921 146.152 23.027 145.182 23.027 144.045C23.027 143.045 23.224 142.235 23.6179 141.614C24.0118 140.985 24.5384 140.492 25.1974 140.136C25.8565 139.78 26.5838 139.515 27.3793 139.341C28.1823 139.159 28.9891 139.015 29.7997 138.909C30.8603 138.773 31.7202 138.67 32.3793 138.602C33.0459 138.527 33.5308 138.402 33.8338 138.227C34.1444 138.053 34.2997 137.75 34.2997 137.318V137.227C34.2997 136.106 33.9929 135.235 33.3793 134.614C32.7732 133.992 31.8527 133.682 30.6179 133.682C29.3376 133.682 28.3338 133.962 27.6065 134.523C26.8793 135.083 26.3679 135.682 26.0724 136.318L23.527 135.409C23.9815 134.348 24.5876 133.523 25.3452 132.932C26.1103 132.333 26.9437 131.917 27.8452 131.682C28.7543 131.439 29.6482 131.318 30.527 131.318C31.0876 131.318 31.7315 131.386 32.4588 131.523C33.1937 131.652 33.902 131.92 34.5838 132.33C35.2732 132.739 35.8452 133.356 36.2997 134.182C36.7543 135.008 36.9815 136.114 36.9815 137.5V149H34.2997V146.636H34.1634C33.9815 147.015 33.6785 147.42 33.2543 147.852C32.83 148.284 32.2656 148.652 31.5611 148.955C30.8565 149.258 29.9967 149.409 28.9815 149.409ZM29.3906 147C30.4512 147 31.3452 146.792 32.0724 146.375C32.8073 145.958 33.3603 145.42 33.7315 144.761C34.1103 144.102 34.2997 143.409 34.2997 142.682V140.227C34.1861 140.364 33.9361 140.489 33.5497 140.602C33.1709 140.708 32.7315 140.803 32.2315 140.886C31.7391 140.962 31.258 141.03 30.7884 141.091C30.3262 141.144 29.9512 141.189 29.6634 141.227C28.9664 141.318 28.3149 141.466 27.7088 141.67C27.1103 141.867 26.6255 142.167 26.2543 142.568C25.8906 142.962 25.7088 143.5 25.7088 144.182C25.7088 145.114 26.0535 145.818 26.7429 146.295C27.4399 146.765 28.3224 147 29.3906 147ZM48.9219 155.909C47.6264 155.909 46.5128 155.742 45.581 155.409C44.6491 155.083 43.8726 154.652 43.2514 154.114C42.6378 153.583 42.1491 153.015 41.7855 152.409L43.9219 150.909C44.1643 151.227 44.4711 151.591 44.8423 152C45.2135 152.417 45.7211 152.777 46.3651 153.08C47.0166 153.39 47.8688 153.545 48.9219 153.545C50.331 153.545 51.4938 153.205 52.4105 152.523C53.3272 151.841 53.7855 150.773 53.7855 149.318V145.773H53.5582C53.3613 146.091 53.081 146.485 52.7173 146.955C52.3613 147.417 51.8461 147.83 51.1719 148.193C50.5052 148.549 49.6037 148.727 48.4673 148.727C47.0582 148.727 45.7931 148.394 44.6719 147.727C43.5582 147.061 42.6757 146.091 42.0241 144.818C41.3802 143.545 41.0582 142 41.0582 140.182C41.0582 138.394 41.3726 136.837 42.0014 135.511C42.6302 134.178 43.5052 133.148 44.6264 132.42C45.7476 131.686 47.0431 131.318 48.5128 131.318C49.6491 131.318 50.5507 131.508 51.2173 131.886C51.8916 132.258 52.4067 132.682 52.7628 133.159C53.1264 133.629 53.4067 134.015 53.6037 134.318H53.8764V131.545H56.4673V149.5C56.4673 151 56.1264 152.22 55.4446 153.159C54.7704 154.106 53.8613 154.799 52.7173 155.239C51.581 155.686 50.3158 155.909 48.9219 155.909ZM48.831 146.318C49.9067 146.318 50.8158 146.072 51.5582 145.58C52.3007 145.087 52.8651 144.379 53.2514 143.455C53.6378 142.53 53.831 141.424 53.831 140.136C53.831 138.879 53.6416 137.769 53.2628 136.807C52.884 135.845 52.3234 135.091 51.581 134.545C50.8385 134 49.9219 133.727 48.831 133.727C47.6946 133.727 46.7476 134.015 45.9901 134.591C45.2401 135.167 44.6757 135.939 44.2969 136.909C43.9257 137.879 43.7401 138.955 43.7401 140.136C43.7401 141.348 43.9295 142.42 44.3082 143.352C44.6946 144.277 45.2628 145.004 46.0128 145.534C46.7704 146.057 47.7098 146.318 48.831 146.318ZM68.6946 149.364C67.0128 149.364 65.562 148.992 64.3423 148.25C63.1302 147.5 62.1946 146.455 61.5355 145.114C60.884 143.765 60.5582 142.197 60.5582 140.409C60.5582 138.621 60.884 137.045 61.5355 135.682C62.1946 134.311 63.1113 133.242 64.2855 132.477C65.4673 131.705 66.8461 131.318 68.4219 131.318C69.331 131.318 70.2287 131.47 71.1151 131.773C72.0014 132.076 72.8082 132.568 73.5355 133.25C74.2628 133.924 74.8423 134.818 75.2741 135.932C75.706 137.045 75.9219 138.417 75.9219 140.045V141.182H62.4673V138.864H73.1946C73.1946 137.879 72.9976 137 72.6037 136.227C72.2173 135.455 71.6643 134.845 70.9446 134.398C70.2325 133.951 69.3916 133.727 68.4219 133.727C67.3537 133.727 66.4295 133.992 65.6491 134.523C64.8764 135.045 64.2817 135.727 63.8651 136.568C63.4484 137.409 63.2401 138.311 63.2401 139.273V140.818C63.2401 142.136 63.4673 143.254 63.9219 144.17C64.384 145.08 65.0241 145.773 65.8423 146.25C66.6605 146.72 67.6113 146.955 68.6946 146.955C69.3991 146.955 70.0355 146.856 70.6037 146.659C71.1795 146.455 71.6757 146.152 72.0923 145.75C72.509 145.341 72.831 144.833 73.0582 144.227L75.6491 144.955C75.3764 145.833 74.9181 146.606 74.2741 147.273C73.6302 147.932 72.8348 148.447 71.8878 148.818C70.9408 149.182 69.8764 149.364 68.6946 149.364ZM88.956 149V146.955L96.6378 138.545C97.5393 137.561 98.2817 136.705 98.8651 135.977C99.4484 135.242 99.8802 134.553 100.161 133.909C100.448 133.258 100.592 132.576 100.592 131.864C100.592 131.045 100.395 130.337 100.001 129.739C99.6151 129.14 99.0848 128.678 98.4105 128.352C97.7363 128.027 96.9787 127.864 96.1378 127.864C95.2438 127.864 94.4635 128.049 93.7969 128.42C93.1378 128.784 92.6264 129.295 92.2628 129.955C91.9067 130.614 91.7287 131.386 91.7287 132.273H89.0469C89.0469 130.909 89.3613 129.712 89.9901 128.682C90.6188 127.652 91.4749 126.848 92.5582 126.273C93.6491 125.697 94.8726 125.409 96.2287 125.409C97.5923 125.409 98.8007 125.697 99.8537 126.273C100.907 126.848 101.732 127.625 102.331 128.602C102.929 129.58 103.229 130.667 103.229 131.864C103.229 132.72 103.073 133.557 102.763 134.375C102.46 135.186 101.929 136.091 101.172 137.091C100.422 138.083 99.3802 139.295 98.0469 140.727L92.8196 146.318V146.5H103.638V149H88.956Z" fill="white"/>
<path d="M318.146 150V126.727H326.01C327.836 126.727 329.328 127.057 330.487 127.716C331.654 128.367 332.518 129.25 333.078 130.364C333.639 131.477 333.919 132.72 333.919 134.091C333.919 135.462 333.639 136.708 333.078 137.83C332.525 138.951 331.669 139.845 330.51 140.511C329.351 141.17 327.866 141.5 326.055 141.5H320.419V139H325.964C327.214 139 328.218 138.784 328.976 138.352C329.733 137.92 330.283 137.337 330.624 136.602C330.972 135.86 331.146 135.023 331.146 134.091C331.146 133.159 330.972 132.326 330.624 131.591C330.283 130.856 329.73 130.28 328.964 129.864C328.199 129.439 327.184 129.227 325.919 129.227H320.964V150H318.146ZM343.232 150.409C342.125 150.409 341.122 150.201 340.22 149.784C339.319 149.36 338.603 148.75 338.072 147.955C337.542 147.152 337.277 146.182 337.277 145.045C337.277 144.045 337.474 143.235 337.868 142.614C338.262 141.985 338.788 141.492 339.447 141.136C340.107 140.78 340.834 140.515 341.629 140.341C342.432 140.159 343.239 140.015 344.05 139.909C345.11 139.773 345.97 139.67 346.629 139.602C347.296 139.527 347.781 139.402 348.084 139.227C348.394 139.053 348.55 138.75 348.55 138.318V138.227C348.55 137.106 348.243 136.235 347.629 135.614C347.023 134.992 346.103 134.682 344.868 134.682C343.588 134.682 342.584 134.962 341.857 135.523C341.129 136.083 340.618 136.682 340.322 137.318L337.777 136.409C338.232 135.348 338.838 134.523 339.595 133.932C340.36 133.333 341.194 132.917 342.095 132.682C343.004 132.439 343.898 132.318 344.777 132.318C345.338 132.318 345.982 132.386 346.709 132.523C347.444 132.652 348.152 132.92 348.834 133.33C349.523 133.739 350.095 134.356 350.55 135.182C351.004 136.008 351.232 137.114 351.232 138.5V150H348.55V147.636H348.413C348.232 148.015 347.929 148.42 347.504 148.852C347.08 149.284 346.516 149.652 345.811 149.955C345.107 150.258 344.247 150.409 343.232 150.409ZM343.641 148C344.701 148 345.595 147.792 346.322 147.375C347.057 146.958 347.61 146.42 347.982 145.761C348.36 145.102 348.55 144.409 348.55 143.682V141.227C348.436 141.364 348.186 141.489 347.8 141.602C347.421 141.708 346.982 141.803 346.482 141.886C345.989 141.962 345.508 142.03 345.038 142.091C344.576 142.144 344.201 142.189 343.913 142.227C343.216 142.318 342.565 142.466 341.959 142.67C341.36 142.867 340.875 143.167 340.504 143.568C340.141 143.962 339.959 144.5 339.959 145.182C339.959 146.114 340.304 146.818 340.993 147.295C341.69 147.765 342.572 148 343.641 148ZM363.172 156.909C361.876 156.909 360.763 156.742 359.831 156.409C358.899 156.083 358.123 155.652 357.501 155.114C356.888 154.583 356.399 154.015 356.036 153.409L358.172 151.909C358.414 152.227 358.721 152.591 359.092 153C359.464 153.417 359.971 153.777 360.615 154.08C361.267 154.39 362.119 154.545 363.172 154.545C364.581 154.545 365.744 154.205 366.661 153.523C367.577 152.841 368.036 151.773 368.036 150.318V146.773H367.808C367.611 147.091 367.331 147.485 366.967 147.955C366.611 148.417 366.096 148.83 365.422 149.193C364.755 149.549 363.854 149.727 362.717 149.727C361.308 149.727 360.043 149.394 358.922 148.727C357.808 148.061 356.926 147.091 356.274 145.818C355.63 144.545 355.308 143 355.308 141.182C355.308 139.394 355.623 137.837 356.251 136.511C356.88 135.178 357.755 134.148 358.876 133.42C359.998 132.686 361.293 132.318 362.763 132.318C363.899 132.318 364.801 132.508 365.467 132.886C366.142 133.258 366.657 133.682 367.013 134.159C367.376 134.629 367.657 135.015 367.854 135.318H368.126V132.545H370.717V150.5C370.717 152 370.376 153.22 369.695 154.159C369.02 155.106 368.111 155.799 366.967 156.239C365.831 156.686 364.566 156.909 363.172 156.909ZM363.081 147.318C364.157 147.318 365.066 147.072 365.808 146.58C366.551 146.087 367.115 145.379 367.501 144.455C367.888 143.53 368.081 142.424 368.081 141.136C368.081 139.879 367.892 138.769 367.513 137.807C367.134 136.845 366.573 136.091 365.831 135.545C365.089 135 364.172 134.727 363.081 134.727C361.945 134.727 360.998 135.015 360.24 135.591C359.49 136.167 358.926 136.939 358.547 137.909C358.176 138.879 357.99 139.955 357.99 141.136C357.99 142.348 358.179 143.42 358.558 144.352C358.945 145.277 359.513 146.004 360.263 146.534C361.02 147.057 361.96 147.318 363.081 147.318ZM382.945 150.364C381.263 150.364 379.812 149.992 378.592 149.25C377.38 148.5 376.445 147.455 375.786 146.114C375.134 144.765 374.808 143.197 374.808 141.409C374.808 139.621 375.134 138.045 375.786 136.682C376.445 135.311 377.361 134.242 378.536 133.477C379.717 132.705 381.096 132.318 382.672 132.318C383.581 132.318 384.479 132.47 385.365 132.773C386.251 133.076 387.058 133.568 387.786 134.25C388.513 134.924 389.092 135.818 389.524 136.932C389.956 138.045 390.172 139.417 390.172 141.045V142.182H376.717V139.864H387.445C387.445 138.879 387.248 138 386.854 137.227C386.467 136.455 385.914 135.845 385.195 135.398C384.482 134.951 383.642 134.727 382.672 134.727C381.604 134.727 380.679 134.992 379.899 135.523C379.126 136.045 378.532 136.727 378.115 137.568C377.698 138.409 377.49 139.311 377.49 140.273V141.818C377.49 143.136 377.717 144.254 378.172 145.17C378.634 146.08 379.274 146.773 380.092 147.25C380.911 147.72 381.861 147.955 382.945 147.955C383.649 147.955 384.286 147.856 384.854 147.659C385.429 147.455 385.926 147.152 386.342 146.75C386.759 146.341 387.081 145.833 387.308 145.227L389.899 145.955C389.626 146.833 389.168 147.606 388.524 148.273C387.88 148.932 387.085 149.447 386.138 149.818C385.191 150.182 384.126 150.364 382.945 150.364ZM411.388 126.727V150H408.57V129.682H408.433L402.751 133.455V130.591L408.57 126.727H411.388Z" fill="white"/>
<path d="M315.896 406V382.727H323.76C325.586 382.727 327.078 383.057 328.237 383.716C329.404 384.367 330.268 385.25 330.828 386.364C331.389 387.477 331.669 388.72 331.669 390.091C331.669 391.462 331.389 392.708 330.828 393.83C330.275 394.951 329.419 395.845 328.26 396.511C327.101 397.17 325.616 397.5 323.805 397.5H318.169V395H323.714C324.964 395 325.968 394.784 326.726 394.352C327.483 393.92 328.033 393.337 328.374 392.602C328.722 391.86 328.896 391.023 328.896 390.091C328.896 389.159 328.722 388.326 328.374 387.591C328.033 386.856 327.48 386.28 326.714 385.864C325.949 385.439 324.934 385.227 323.669 385.227H318.714V406H315.896ZM340.982 406.409C339.875 406.409 338.872 406.201 337.97 405.784C337.069 405.36 336.353 404.75 335.822 403.955C335.292 403.152 335.027 402.182 335.027 401.045C335.027 400.045 335.224 399.235 335.618 398.614C336.012 397.985 336.538 397.492 337.197 397.136C337.857 396.78 338.584 396.515 339.379 396.341C340.182 396.159 340.989 396.015 341.8 395.909C342.86 395.773 343.72 395.67 344.379 395.602C345.046 395.527 345.531 395.402 345.834 395.227C346.144 395.053 346.3 394.75 346.3 394.318V394.227C346.3 393.106 345.993 392.235 345.379 391.614C344.773 390.992 343.853 390.682 342.618 390.682C341.338 390.682 340.334 390.962 339.607 391.523C338.879 392.083 338.368 392.682 338.072 393.318L335.527 392.409C335.982 391.348 336.588 390.523 337.345 389.932C338.11 389.333 338.944 388.917 339.845 388.682C340.754 388.439 341.648 388.318 342.527 388.318C343.088 388.318 343.732 388.386 344.459 388.523C345.194 388.652 345.902 388.92 346.584 389.33C347.273 389.739 347.845 390.356 348.3 391.182C348.754 392.008 348.982 393.114 348.982 394.5V406H346.3V403.636H346.163C345.982 404.015 345.679 404.42 345.254 404.852C344.83 405.284 344.266 405.652 343.561 405.955C342.857 406.258 341.997 406.409 340.982 406.409ZM341.391 404C342.451 404 343.345 403.792 344.072 403.375C344.807 402.958 345.36 402.42 345.732 401.761C346.11 401.102 346.3 400.409 346.3 399.682V397.227C346.186 397.364 345.936 397.489 345.55 397.602C345.171 397.708 344.732 397.803 344.232 397.886C343.739 397.962 343.258 398.03 342.788 398.091C342.326 398.144 341.951 398.189 341.663 398.227C340.966 398.318 340.315 398.466 339.709 398.67C339.11 398.867 338.625 399.167 338.254 399.568C337.891 399.962 337.709 400.5 337.709 401.182C337.709 402.114 338.054 402.818 338.743 403.295C339.44 403.765 340.322 404 341.391 404ZM360.922 412.909C359.626 412.909 358.513 412.742 357.581 412.409C356.649 412.083 355.873 411.652 355.251 411.114C354.638 410.583 354.149 410.015 353.786 409.409L355.922 407.909C356.164 408.227 356.471 408.591 356.842 409C357.214 409.417 357.721 409.777 358.365 410.08C359.017 410.39 359.869 410.545 360.922 410.545C362.331 410.545 363.494 410.205 364.411 409.523C365.327 408.841 365.786 407.773 365.786 406.318V402.773H365.558C365.361 403.091 365.081 403.485 364.717 403.955C364.361 404.417 363.846 404.83 363.172 405.193C362.505 405.549 361.604 405.727 360.467 405.727C359.058 405.727 357.793 405.394 356.672 404.727C355.558 404.061 354.676 403.091 354.024 401.818C353.38 400.545 353.058 399 353.058 397.182C353.058 395.394 353.373 393.837 354.001 392.511C354.63 391.178 355.505 390.148 356.626 389.42C357.748 388.686 359.043 388.318 360.513 388.318C361.649 388.318 362.551 388.508 363.217 388.886C363.892 389.258 364.407 389.682 364.763 390.159C365.126 390.629 365.407 391.015 365.604 391.318H365.876V388.545H368.467V406.5C368.467 408 368.126 409.22 367.445 410.159C366.77 411.106 365.861 411.799 364.717 412.239C363.581 412.686 362.316 412.909 360.922 412.909ZM360.831 403.318C361.907 403.318 362.816 403.072 363.558 402.58C364.301 402.087 364.865 401.379 365.251 400.455C365.638 399.53 365.831 398.424 365.831 397.136C365.831 395.879 365.642 394.769 365.263 393.807C364.884 392.845 364.323 392.091 363.581 391.545C362.839 391 361.922 390.727 360.831 390.727C359.695 390.727 358.748 391.015 357.99 391.591C357.24 392.167 356.676 392.939 356.297 393.909C355.926 394.879 355.74 395.955 355.74 397.136C355.74 398.348 355.929 399.42 356.308 400.352C356.695 401.277 357.263 402.004 358.013 402.534C358.77 403.057 359.71 403.318 360.831 403.318ZM380.695 406.364C379.013 406.364 377.562 405.992 376.342 405.25C375.13 404.5 374.195 403.455 373.536 402.114C372.884 400.765 372.558 399.197 372.558 397.409C372.558 395.621 372.884 394.045 373.536 392.682C374.195 391.311 375.111 390.242 376.286 389.477C377.467 388.705 378.846 388.318 380.422 388.318C381.331 388.318 382.229 388.47 383.115 388.773C384.001 389.076 384.808 389.568 385.536 390.25C386.263 390.924 386.842 391.818 387.274 392.932C387.706 394.045 387.922 395.417 387.922 397.045V398.182H374.467V395.864H385.195C385.195 394.879 384.998 394 384.604 393.227C384.217 392.455 383.664 391.845 382.945 391.398C382.232 390.951 381.392 390.727 380.422 390.727C379.354 390.727 378.429 390.992 377.649 391.523C376.876 392.045 376.282 392.727 375.865 393.568C375.448 394.409 375.24 395.311 375.24 396.273V397.818C375.24 399.136 375.467 400.254 375.922 401.17C376.384 402.08 377.024 402.773 377.842 403.25C378.661 403.72 379.611 403.955 380.695 403.955C381.399 403.955 382.036 403.856 382.604 403.659C383.179 403.455 383.676 403.152 384.092 402.75C384.509 402.341 384.831 401.833 385.058 401.227L387.649 401.955C387.376 402.833 386.918 403.606 386.274 404.273C385.63 404.932 384.835 405.447 383.888 405.818C382.941 406.182 381.876 406.364 380.695 406.364ZM400.956 406V403.955L408.638 395.545C409.539 394.561 410.282 393.705 410.865 392.977C411.448 392.242 411.88 391.553 412.161 390.909C412.448 390.258 412.592 389.576 412.592 388.864C412.592 388.045 412.395 387.337 412.001 386.739C411.615 386.14 411.085 385.678 410.411 385.352C409.736 385.027 408.979 384.864 408.138 384.864C407.244 384.864 406.464 385.049 405.797 385.42C405.138 385.784 404.626 386.295 404.263 386.955C403.907 387.614 403.729 388.386 403.729 389.273H401.047C401.047 387.909 401.361 386.712 401.99 385.682C402.619 384.652 403.475 383.848 404.558 383.273C405.649 382.697 406.873 382.409 408.229 382.409C409.592 382.409 410.801 382.697 411.854 383.273C412.907 383.848 413.732 384.625 414.331 385.602C414.929 386.58 415.229 387.667 415.229 388.864C415.229 389.72 415.073 390.557 414.763 391.375C414.46 392.186 413.929 393.091 413.172 394.091C412.422 395.083 411.38 396.295 410.047 397.727L404.82 403.318V403.5H415.638V406H400.956Z" fill="white"/>
<path d="M486.876 138.773V141.273H476.695V138.773H486.876ZM501.595 138.773V141.273H491.413V138.773H501.595ZM516.314 138.773V141.273H506.132V138.773H516.314Z" fill="white"/>
<path d="M449.146 406V382.727H457.01C458.836 382.727 460.328 383.057 461.487 383.716C462.654 384.367 463.518 385.25 464.078 386.364C464.639 387.477 464.919 388.72 464.919 390.091C464.919 391.462 464.639 392.708 464.078 393.83C463.525 394.951 462.669 395.845 461.51 396.511C460.351 397.17 458.866 397.5 457.055 397.5H451.419V395H456.964C458.214 395 459.218 394.784 459.976 394.352C460.733 393.92 461.283 393.337 461.624 392.602C461.972 391.86 462.146 391.023 462.146 390.091C462.146 389.159 461.972 388.326 461.624 387.591C461.283 386.856 460.73 386.28 459.964 385.864C459.199 385.439 458.184 385.227 456.919 385.227H451.964V406H449.146ZM474.232 406.409C473.125 406.409 472.122 406.201 471.22 405.784C470.319 405.36 469.603 404.75 469.072 403.955C468.542 403.152 468.277 402.182 468.277 401.045C468.277 400.045 468.474 399.235 468.868 398.614C469.262 397.985 469.788 397.492 470.447 397.136C471.107 396.78 471.834 396.515 472.629 396.341C473.432 396.159 474.239 396.015 475.05 395.909C476.11 395.773 476.97 395.67 477.629 395.602C478.296 395.527 478.781 395.402 479.084 395.227C479.394 395.053 479.55 394.75 479.55 394.318V394.227C479.55 393.106 479.243 392.235 478.629 391.614C478.023 390.992 477.103 390.682 475.868 390.682C474.588 390.682 473.584 390.962 472.857 391.523C472.129 392.083 471.618 392.682 471.322 393.318L468.777 392.409C469.232 391.348 469.838 390.523 470.595 389.932C471.36 389.333 472.194 388.917 473.095 388.682C474.004 388.439 474.898 388.318 475.777 388.318C476.338 388.318 476.982 388.386 477.709 388.523C478.444 388.652 479.152 388.92 479.834 389.33C480.523 389.739 481.095 390.356 481.55 391.182C482.004 392.008 482.232 393.114 482.232 394.5V406H479.55V403.636H479.413C479.232 404.015 478.929 404.42 478.504 404.852C478.08 405.284 477.516 405.652 476.811 405.955C476.107 406.258 475.247 406.409 474.232 406.409ZM474.641 404C475.701 404 476.595 403.792 477.322 403.375C478.057 402.958 478.61 402.42 478.982 401.761C479.36 401.102 479.55 400.409 479.55 399.682V397.227C479.436 397.364 479.186 397.489 478.8 397.602C478.421 397.708 477.982 397.803 477.482 397.886C476.989 397.962 476.508 398.03 476.038 398.091C475.576 398.144 475.201 398.189 474.913 398.227C474.216 398.318 473.565 398.466 472.959 398.67C472.36 398.867 471.875 399.167 471.504 399.568C471.141 399.962 470.959 400.5 470.959 401.182C470.959 402.114 471.304 402.818 471.993 403.295C472.69 403.765 473.572 404 474.641 404ZM494.172 412.909C492.876 412.909 491.763 412.742 490.831 412.409C489.899 412.083 489.123 411.652 488.501 411.114C487.888 410.583 487.399 410.015 487.036 409.409L489.172 407.909C489.414 408.227 489.721 408.591 490.092 409C490.464 409.417 490.971 409.777 491.615 410.08C492.267 410.39 493.119 410.545 494.172 410.545C495.581 410.545 496.744 410.205 497.661 409.523C498.577 408.841 499.036 407.773 499.036 406.318V402.773H498.808C498.611 403.091 498.331 403.485 497.967 403.955C497.611 404.417 497.096 404.83 496.422 405.193C495.755 405.549 494.854 405.727 493.717 405.727C492.308 405.727 491.043 405.394 489.922 404.727C488.808 404.061 487.926 403.091 487.274 401.818C486.63 400.545 486.308 399 486.308 397.182C486.308 395.394 486.623 393.837 487.251 392.511C487.88 391.178 488.755 390.148 489.876 389.42C490.998 388.686 492.293 388.318 493.763 388.318C494.899 388.318 495.801 388.508 496.467 388.886C497.142 389.258 497.657 389.682 498.013 390.159C498.376 390.629 498.657 391.015 498.854 391.318H499.126V388.545H501.717V406.5C501.717 408 501.376 409.22 500.695 410.159C500.02 411.106 499.111 411.799 497.967 412.239C496.831 412.686 495.566 412.909 494.172 412.909ZM494.081 403.318C495.157 403.318 496.066 403.072 496.808 402.58C497.551 402.087 498.115 401.379 498.501 400.455C498.888 399.53 499.081 398.424 499.081 397.136C499.081 395.879 498.892 394.769 498.513 393.807C498.134 392.845 497.573 392.091 496.831 391.545C496.089 391 495.172 390.727 494.081 390.727C492.945 390.727 491.998 391.015 491.24 391.591C490.49 392.167 489.926 392.939 489.547 393.909C489.176 394.879 488.99 395.955 488.99 397.136C488.99 398.348 489.179 399.42 489.558 400.352C489.945 401.277 490.513 402.004 491.263 402.534C492.02 403.057 492.96 403.318 494.081 403.318ZM513.945 406.364C512.263 406.364 510.812 405.992 509.592 405.25C508.38 404.5 507.445 403.455 506.786 402.114C506.134 400.765 505.808 399.197 505.808 397.409C505.808 395.621 506.134 394.045 506.786 392.682C507.445 391.311 508.361 390.242 509.536 389.477C510.717 388.705 512.096 388.318 513.672 388.318C514.581 388.318 515.479 388.47 516.365 388.773C517.251 389.076 518.058 389.568 518.786 390.25C519.513 390.924 520.092 391.818 520.524 392.932C520.956 394.045 521.172 395.417 521.172 397.045V398.182H507.717V395.864H518.445C518.445 394.879 518.248 394 517.854 393.227C517.467 392.455 516.914 391.845 516.195 391.398C515.482 390.951 514.642 390.727 513.672 390.727C512.604 390.727 511.679 390.992 510.899 391.523C510.126 392.045 509.532 392.727 509.115 393.568C508.698 394.409 508.49 395.311 508.49 396.273V397.818C508.49 399.136 508.717 400.254 509.172 401.17C509.634 402.08 510.274 402.773 511.092 403.25C511.911 403.72 512.861 403.955 513.945 403.955C514.649 403.955 515.286 403.856 515.854 403.659C516.429 403.455 516.926 403.152 517.342 402.75C517.759 402.341 518.081 401.833 518.308 401.227L520.899 401.955C520.626 402.833 520.168 403.606 519.524 404.273C518.88 404.932 518.085 405.447 517.138 405.818C516.191 406.182 515.126 406.364 513.945 406.364ZM542.388 382.727V406H539.57V385.682H539.433L533.751 389.455V386.591L539.57 382.727H542.388Z" fill="white"/>
<path d="M617.876 138.773V141.273H607.695V138.773H617.876ZM632.595 138.773V141.273H622.413V138.773H632.595ZM647.314 138.773V141.273H637.132V138.773H647.314Z" fill="white"/>
<path d="M617.876 394.773V397.273H607.695V394.773H617.876ZM632.595 394.773V397.273H622.413V394.773H632.595ZM647.314 394.773V397.273H637.132V394.773H647.314Z" fill="white"/>
<path d="M748.876 138.773V141.273H738.695V138.773H748.876ZM763.595 138.773V141.273H753.413V138.773H763.595ZM778.314 138.773V141.273H768.132V138.773H778.314Z" fill="white"/>
<path d="M748.876 394.773V397.273H738.695V394.773H748.876ZM763.595 394.773V397.273H753.413V394.773H763.595ZM778.314 394.773V397.273H768.132V394.773H778.314Z" fill="white"/>
<path d="M879.876 138.773V141.273H869.695V138.773H879.876ZM894.595 138.773V141.273H884.413V138.773H894.595ZM909.314 138.773V141.273H899.132V138.773H909.314Z" fill="white"/>
<path d="M879.876 394.773V397.273H869.695V394.773H879.876ZM894.595 394.773V397.273H884.413V394.773H894.595ZM909.314 394.773V397.273H899.132V394.773H909.314Z" fill="white"/>
<line x1="430" y1="89" x2="430" y2="186" stroke="#DBDBDB" stroke-width="2"/>
<line x1="430" y1="345" x2="430" y2="442" stroke="#DBDBDB" stroke-width="2"/>
<line x1="561" y1="89" x2="561" y2="186" stroke="#DBDBDB" stroke-width="2"/>
<line x1="561" y1="345" x2="561" y2="442" stroke="#DBDBDB" stroke-width="2"/>
<line x1="692" y1="89" x2="692" y2="186" stroke="#DBDBDB" stroke-width="2"/>
<line x1="692" y1="345" x2="692" y2="442" stroke="#DBDBDB" stroke-width="2"/>
<line x1="823" y1="89" x2="823" y2="186" stroke="#DBDBDB" stroke-width="2"/>
<line x1="823" y1="345" x2="823" y2="442" stroke="#DBDBDB" stroke-width="2"/>
<path d="M245.875 122.25L262.125 138.5L245.875 154.75" stroke="#DBDBDB" stroke-width="4" stroke-linecap="round" stroke-linejoin="round"/>
<line x1="140" y1="137" x2="259" y2="137" stroke="#DBDBDB" stroke-width="5"/>
</svg>
