<svg xmlns="http://www.w3.org/2000/svg" width="1021" height="1034" fill="none" viewBox="0 0 1021 1034"><rect width="659" height="97" x="296" y="89" stroke="#dbdbdb" stroke-width="2" rx="27"/><rect width="659" height="97" x="296" y="345" stroke="#dbdbdb" stroke-width="2" rx="27"/><rect width="659" height="97" x="296" y="601" stroke="#dbdbdb" stroke-width="2" rx="27"/><rect width="133" height="62" x="783" y="851" stroke="#dbdbdb" stroke-dasharray="8 8" stroke-width="2" rx="10"/><path fill="#fff" d="M521.525 49V19.91h6.15v24.019h12.472V49zm22.695 0V19.91h11.477q3.296 0 5.625 1.178 2.344 1.165 3.565 3.31 1.236 2.13 1.236 5.014 0 2.898-1.25 4.986-1.25 2.073-3.622 3.182-2.358 1.108-5.71 1.108h-7.685v-4.944h6.691q1.76 0 2.926-.483 1.164-.483 1.733-1.449.582-.965.582-2.4 0-1.449-.582-2.443-.569-.994-1.748-1.506-1.164-.526-2.94-.526h-4.148V49zm15.71-13.239L567.16 49h-6.79l-7.073-13.239zm28.509-15.852h6.15v18.892q0 3.182-1.52 5.568-1.506 2.387-4.219 3.722-2.712 1.32-6.321 1.32-3.621 0-6.335-1.32-2.712-1.334-4.219-3.722-1.505-2.386-1.505-5.568V19.91h6.15v18.367q0 1.66.725 2.954a5.3 5.3 0 0 0 2.074 2.031q1.335.74 3.11.739 1.791 0 3.111-.739a5.2 5.2 0 0 0 2.06-2.03q.738-1.294.739-2.955zm46.136 10.185h-6.222q-.17-1.208-.696-2.145a5.5 5.5 0 0 0-1.349-1.62 5.9 5.9 0 0 0-1.904-1.022 7.3 7.3 0 0 0-2.315-.355q-2.258 0-3.935 1.122-1.675 1.108-2.599 3.238-.923 2.117-.923 5.143 0 3.11.923 5.227.937 2.115 2.614 3.196t3.878 1.08q1.235 0 2.286-.327a6 6 0 0 0 1.89-.952 5.5 5.5 0 0 0 1.363-1.548q.554-.91.767-2.074l6.222.028a11.3 11.3 0 0 1-1.207 3.864 11.6 11.6 0 0 1-2.571 3.31q-1.606 1.448-3.836 2.3-2.215.84-5.014.839-3.893 0-6.96-1.762-3.054-1.761-4.83-5.1-1.761-3.337-1.761-8.081 0-4.76 1.79-8.097t4.858-5.085q3.067-1.761 6.903-1.762 2.529 0 4.688.71 2.173.71 3.849 2.075 1.676 1.349 2.727 3.31 1.066 1.959 1.364 4.488m10.518 19.318q-2.088 0-3.721-.724-1.634-.739-2.585-2.174-.938-1.449-.938-3.608 0-1.818.668-3.054a5.4 5.4 0 0 1 1.818-1.988 8.8 8.8 0 0 1 2.614-1.137 20 20 0 0 1 3.096-.54 78 78 0 0 0 3.068-.369q1.165-.184 1.691-.54.525-.355.525-1.05v-.086q0-1.35-.852-2.088-.838-.738-2.386-.739-1.634 0-2.6.725-.966.71-1.278 1.79l-5.597-.455q.426-1.99 1.676-3.437 1.25-1.464 3.225-2.245 1.988-.795 4.602-.795 1.818 0 3.48.426 1.676.426 2.969 1.32a6.4 6.4 0 0 1 2.059 2.302q.753 1.392.753 3.338V49h-5.738v-3.026h-.171a6.2 6.2 0 0 1-1.406 1.804q-.881.767-2.116 1.208-1.236.426-2.856.426m1.733-4.176q1.336 0 2.358-.526a4.2 4.2 0 0 0 1.605-1.449q.583-.909.583-2.06v-2.315a3.3 3.3 0 0 1-.781.341q-.483.142-1.094.27-.611.114-1.222.213l-1.108.157q-1.065.156-1.861.497-.795.34-1.235.923-.441.568-.441 1.42 0 1.236.895 1.89.909.639 2.301.639m25.107 4.19q-3.352 0-5.767-1.42-2.402-1.435-3.693-3.978-1.28-2.542-1.279-5.852 0-3.352 1.293-5.88 1.307-2.544 3.707-3.964 2.401-1.434 5.71-1.434 2.856 0 5 1.037t3.395 2.912 1.378 4.403h-5.71q-.241-1.633-1.278-2.628-1.023-1.008-2.685-1.008-1.407 0-2.457.767-1.038.753-1.62 2.201-.582 1.45-.582 3.509 0 2.088.568 3.551.582 1.463 1.634 2.23 1.05.767 2.457.767 1.036 0 1.861-.426a3.6 3.6 0 0 0 1.378-1.236q.553-.823.724-1.974h5.71q-.142 2.5-1.363 4.403-1.207 1.89-3.339 2.955-2.13 1.065-5.042 1.065m19.67-13.04V49h-6.052V19.91h5.881V31.03h.256q.738-1.932 2.386-3.025 1.649-1.108 4.134-1.108 2.273 0 3.963.994 1.704.98 2.642 2.827.951 1.831.937 4.389V49h-6.051V36.188q.015-2.018-1.023-3.14-1.022-1.122-2.869-1.122-1.236 0-2.187.526-.938.525-1.478 1.534-.525.995-.539 2.4m28.853 13.04q-3.368 0-5.796-1.364-2.415-1.377-3.721-3.892-1.308-2.527-1.307-5.98 0-3.366 1.307-5.909t3.679-3.963q2.386-1.42 5.596-1.42 2.16 0 4.02.696a8.9 8.9 0 0 1 3.267 2.06q1.407 1.377 2.188 3.465.78 2.074.781 4.858v1.662h-18.423v-3.75h12.727q0-1.307-.568-2.315a4.07 4.07 0 0 0-1.577-1.577q-.995-.582-2.315-.582-1.378 0-2.444.639-1.05.625-1.647 1.69-.597 1.051-.611 2.344v3.565q0 1.62.596 2.799a4.38 4.38 0 0 0 1.719 1.818q1.108.64 2.628.64 1.008 0 1.847-.285a3.8 3.8 0 0 0 1.434-.852q.597-.57.909-1.392l5.597.369a7.65 7.65 0 0 1-1.747 3.523q-1.306 1.49-3.381 2.33-2.06.823-4.758.823M521.525 305v-29.091h6.15v24.02h12.472V305zm22.695 0v-29.091h11.477q3.296 0 5.625 1.179 2.344 1.165 3.565 3.31 1.236 2.13 1.236 5.014 0 2.898-1.25 4.986-1.25 2.073-3.622 3.182-2.358 1.108-5.71 1.108h-7.685v-4.944h6.691q1.76 0 2.926-.483 1.164-.483 1.733-1.449.582-.965.582-2.4 0-1.449-.582-2.443-.569-.995-1.748-1.506-1.164-.525-2.94-.525h-4.148V305zm15.71-13.239L567.16 305h-6.79l-7.073-13.239zm28.509-15.852h6.15v18.892q0 3.181-1.52 5.568-1.506 2.387-4.219 3.722-2.712 1.321-6.321 1.321-3.621 0-6.335-1.321-2.712-1.335-4.219-3.722-1.505-2.387-1.505-5.568v-18.892h6.15v18.367q0 1.661.725 2.954a5.3 5.3 0 0 0 2.074 2.031q1.335.74 3.11.739 1.791 0 3.111-.739a5.2 5.2 0 0 0 2.06-2.031q.738-1.293.739-2.954zm46.136 10.185h-6.222q-.17-1.208-.696-2.145a5.4 5.4 0 0 0-1.349-1.619 5.9 5.9 0 0 0-1.904-1.023 7.3 7.3 0 0 0-2.315-.355q-2.258 0-3.935 1.122-1.675 1.108-2.599 3.238-.923 2.116-.923 5.143 0 3.11.923 5.227.937 2.116 2.614 3.196t3.878 1.079q1.235 0 2.286-.326a6 6 0 0 0 1.89-.952 5.5 5.5 0 0 0 1.363-1.548q.554-.91.767-2.074l6.222.028a11.3 11.3 0 0 1-1.207 3.864 11.6 11.6 0 0 1-2.571 3.31q-1.606 1.448-3.836 2.301-2.215.838-5.014.838-3.893 0-6.96-1.762-3.054-1.761-4.83-5.099-1.761-3.338-1.761-8.082 0-4.76 1.79-8.097 1.79-3.338 4.858-5.085 3.067-1.762 6.903-1.762 2.529 0 4.688.711 2.173.71 3.849 2.073 1.676 1.35 2.727 3.31 1.066 1.96 1.364 4.489m10.518 19.318q-2.088 0-3.721-.724-1.634-.739-2.585-2.174-.938-1.448-.938-3.608 0-1.818.668-3.054a5.4 5.4 0 0 1 1.818-1.988 8.8 8.8 0 0 1 2.614-1.137 20 20 0 0 1 3.096-.539 78 78 0 0 0 3.068-.37q1.165-.184 1.691-.54.525-.355.525-1.051v-.085q0-1.35-.852-2.088-.838-.739-2.386-.739-1.634 0-2.6.725-.966.71-1.278 1.79l-5.597-.455q.426-1.99 1.676-3.437 1.25-1.464 3.225-2.245 1.988-.795 4.602-.795 1.818 0 3.48.426 1.676.426 2.969 1.321a6.4 6.4 0 0 1 2.059 2.301q.753 1.392.753 3.338V305h-5.738v-3.026h-.171a6.1 6.1 0 0 1-1.406 1.804q-.881.767-2.116 1.208-1.236.426-2.856.426m1.733-4.176q1.336 0 2.358-.526a4.2 4.2 0 0 0 1.605-1.449q.583-.909.583-2.059v-2.316q-.285.185-.781.341-.483.143-1.094.27-.611.114-1.222.213l-1.108.156q-1.065.157-1.861.498-.795.34-1.235.923-.441.568-.441 1.42 0 1.236.895 1.89.909.639 2.301.639m25.107 4.19q-3.352 0-5.767-1.42-2.402-1.436-3.693-3.978-1.28-2.542-1.279-5.852 0-3.352 1.293-5.881 1.307-2.542 3.707-3.963 2.401-1.434 5.71-1.434 2.856 0 5 1.037t3.395 2.912 1.378 4.403h-5.71q-.241-1.634-1.278-2.628-1.023-1.008-2.685-1.008-1.407 0-2.457.767-1.038.752-1.62 2.201t-.582 3.509q0 2.088.568 3.551.582 1.463 1.634 2.23 1.05.767 2.457.767 1.036 0 1.861-.426a3.6 3.6 0 0 0 1.378-1.236q.553-.823.724-1.974h5.71q-.142 2.5-1.363 4.403-1.207 1.89-3.339 2.955-2.13 1.065-5.042 1.065m19.67-13.04V305h-6.052v-29.091h5.881v11.122h.256q.738-1.932 2.386-3.025 1.649-1.108 4.134-1.108 2.273 0 3.963.994 1.704.98 2.642 2.827.951 1.832.937 4.389V305h-6.051v-12.812q.015-2.018-1.023-3.14-1.022-1.122-2.869-1.122-1.236 0-2.187.526-.938.525-1.478 1.534-.525.995-.539 2.4m28.853 13.04q-3.368 0-5.796-1.364-2.415-1.377-3.721-3.892-1.308-2.528-1.307-5.98 0-3.366 1.307-5.909t3.679-3.963q2.386-1.42 5.596-1.42 2.16 0 4.02.696a8.9 8.9 0 0 1 3.267 2.059q1.407 1.378 2.188 3.466.78 2.074.781 4.858v1.662h-18.423v-3.75h12.727q0-1.307-.568-2.315a4.1 4.1 0 0 0-1.577-1.577q-.995-.582-2.315-.582-1.378 0-2.444.639-1.05.625-1.647 1.69a4.77 4.77 0 0 0-.611 2.344v3.565q0 1.62.596 2.799a4.38 4.38 0 0 0 1.719 1.818q1.108.639 2.628.639 1.008 0 1.847-.284a3.8 3.8 0 0 0 1.434-.852q.597-.569.909-1.392l5.597.369a7.65 7.65 0 0 1-1.747 3.523q-1.306 1.491-3.381 2.329-2.06.825-4.758.824M521.525 561v-29.091h6.15v24.02h12.472V561zm22.695 0v-29.091h11.477q3.296 0 5.625 1.179 2.344 1.165 3.565 3.31 1.236 2.13 1.236 5.014 0 2.898-1.25 4.986-1.25 2.073-3.622 3.182-2.358 1.107-5.71 1.108h-7.685v-4.944h6.691q1.76 0 2.926-.483 1.164-.483 1.733-1.449.582-.965.582-2.4 0-1.449-.582-2.443-.569-.995-1.748-1.506-1.164-.525-2.94-.525h-4.148V561zm15.71-13.239L567.16 561h-6.79l-7.073-13.239zm28.509-15.852h6.15v18.892q0 3.182-1.52 5.568-1.506 2.387-4.219 3.722-2.712 1.321-6.321 1.321-3.621 0-6.335-1.321-2.712-1.335-4.219-3.722-1.505-2.386-1.505-5.568v-18.892h6.15v18.367q0 1.661.725 2.954a5.3 5.3 0 0 0 2.074 2.031q1.335.74 3.11.739 1.791 0 3.111-.739a5.2 5.2 0 0 0 2.06-2.031q.738-1.293.739-2.954zm46.136 10.185h-6.222q-.17-1.207-.696-2.145a5.4 5.4 0 0 0-1.349-1.619 5.9 5.9 0 0 0-1.904-1.023 7.3 7.3 0 0 0-2.315-.355q-2.258 0-3.935 1.122-1.675 1.108-2.599 3.238-.923 2.116-.923 5.143 0 3.11.923 5.227.937 2.116 2.614 3.196t3.878 1.079q1.235 0 2.286-.326a6 6 0 0 0 1.89-.952 5.5 5.5 0 0 0 1.363-1.548q.554-.91.767-2.074l6.222.028a11.3 11.3 0 0 1-1.207 3.864 11.6 11.6 0 0 1-2.571 3.31q-1.606 1.447-3.836 2.301-2.215.837-5.014.838-3.893 0-6.96-1.762-3.054-1.761-4.83-5.099-1.761-3.338-1.761-8.082 0-4.76 1.79-8.097 1.79-3.338 4.858-5.085 3.067-1.762 6.903-1.762 2.529 0 4.688.711 2.173.71 3.849 2.073 1.676 1.35 2.727 3.31 1.066 1.96 1.364 4.489m10.518 19.318q-2.088 0-3.721-.724-1.634-.739-2.585-2.174-.938-1.448-.938-3.608 0-1.818.668-3.054a5.4 5.4 0 0 1 1.818-1.988 8.8 8.8 0 0 1 2.614-1.137 20 20 0 0 1 3.096-.539 78 78 0 0 0 3.068-.37q1.165-.185 1.691-.54.525-.354.525-1.051v-.085q0-1.35-.852-2.088-.838-.739-2.386-.739-1.634 0-2.6.725-.966.71-1.278 1.79l-5.597-.455q.426-1.99 1.676-3.437 1.25-1.464 3.225-2.245 1.988-.795 4.602-.795 1.818 0 3.48.426 1.676.426 2.969 1.321a6.4 6.4 0 0 1 2.059 2.301q.753 1.392.753 3.338V561h-5.738v-3.026h-.171a6.1 6.1 0 0 1-1.406 1.804q-.881.767-2.116 1.208-1.236.426-2.856.426m1.733-4.176q1.336 0 2.358-.526a4.2 4.2 0 0 0 1.605-1.449q.583-.909.583-2.059v-2.316q-.285.185-.781.341-.483.143-1.094.27-.611.114-1.222.213l-1.108.156q-1.065.157-1.861.498-.795.34-1.235.923-.441.568-.441 1.42 0 1.236.895 1.89.909.639 2.301.639m25.107 4.19q-3.352 0-5.767-1.42-2.402-1.435-3.693-3.978-1.28-2.542-1.279-5.852 0-3.352 1.293-5.881 1.307-2.543 3.707-3.963 2.401-1.434 5.71-1.434 2.856 0 5 1.037t3.395 2.912 1.378 4.403h-5.71q-.241-1.634-1.278-2.628-1.023-1.008-2.685-1.008-1.407 0-2.457.767-1.038.753-1.62 2.201-.582 1.45-.582 3.509 0 2.088.568 3.551.582 1.463 1.634 2.23 1.05.767 2.457.767 1.036 0 1.861-.426a3.6 3.6 0 0 0 1.378-1.236q.553-.823.724-1.974h5.71q-.142 2.5-1.363 4.403-1.207 1.89-3.339 2.955-2.13 1.065-5.042 1.065m19.67-13.04V561h-6.052v-29.091h5.881v11.122h.256q.738-1.932 2.386-3.025 1.649-1.108 4.134-1.108 2.273 0 3.963.994 1.704.98 2.642 2.827.951 1.832.937 4.389V561h-6.051v-12.812q.015-2.018-1.023-3.14-1.022-1.122-2.869-1.122-1.236 0-2.187.526-.938.525-1.478 1.534-.525.995-.539 2.4m28.853 13.04q-3.368 0-5.796-1.364-2.415-1.377-3.721-3.892-1.308-2.528-1.307-5.98 0-3.366 1.307-5.909t3.679-3.963q2.386-1.42 5.596-1.42 2.16 0 4.02.696a8.9 8.9 0 0 1 3.267 2.059q1.407 1.378 2.188 3.466.78 2.074.781 4.858v1.662h-18.423v-3.75h12.727q0-1.307-.568-2.315a4.1 4.1 0 0 0-1.577-1.577q-.995-.582-2.315-.582-1.378 0-2.444.639-1.05.625-1.647 1.69a4.77 4.77 0 0 0-.611 2.344v3.565q0 1.62.596 2.799a4.38 4.38 0 0 0 1.719 1.818q1.108.639 2.628.639 1.008 0 1.847-.284a3.8 3.8 0 0 0 1.434-.852q.597-.568.909-1.392l5.597.369a7.65 7.65 0 0 1-1.747 3.523q-1.306 1.492-3.381 2.329-2.06.824-4.758.824"/><path fill="#717171" d="M895.224 234v-23.273h2.819V231.5h10.818v2.5zm18 0v-23.273h7.864q2.727 0 4.477.932 1.75.92 2.591 2.534t.841 3.671-.841 3.647q-.84 1.591-2.579 2.5-1.738.898-4.443.898h-6.364v-2.545h6.273q1.863 0 3-.546 1.147-.545 1.659-1.545.522-1.013.522-2.409 0-1.398-.522-2.444-.524-1.045-1.671-1.613-1.147-.58-3.034-.58h-4.954V234zm10.955-10.455L929.906 234h-3.272l-5.637-10.455zm24.787-12.818h2.818v15.409q0 2.387-1.125 4.262-1.114 1.863-3.148 2.943-2.034 1.068-4.772 1.068t-4.773-1.068q-2.034-1.08-3.159-2.943-1.114-1.875-1.114-4.262v-15.409h2.818v15.182q0 1.704.75 3.034.75 1.318 2.137 2.08 1.397.75 3.341.75 1.943 0 3.341-.75 1.397-.762 2.136-2.08.75-1.33.75-3.034zM895.224 490v-23.273h2.819V487.5h10.818v2.5zm18 0v-23.273h7.864q2.727 0 4.477.932 1.75.92 2.591 2.534t.841 3.671-.841 3.647q-.84 1.591-2.579 2.5-1.738.898-4.443.898h-6.364v-2.545h6.273q1.863 0 3-.546 1.147-.545 1.659-1.545.522-1.013.522-2.409 0-1.398-.522-2.444-.524-1.045-1.671-1.613-1.147-.58-3.034-.58h-4.954V490zm10.955-10.455L929.906 490h-3.272l-5.637-10.455zm24.787-12.818h2.818v15.409q0 2.387-1.125 4.262-1.114 1.863-3.148 2.943-2.034 1.068-4.772 1.068t-4.773-1.068q-2.034-1.08-3.159-2.943-1.114-1.875-1.114-4.262v-15.409h2.818v15.182q0 1.705.75 3.034.75 1.318 2.137 2.08 1.397.75 3.341.75 1.943 0 3.341-.75 1.397-.762 2.136-2.08.75-1.33.75-3.034zM895.224 746v-23.273h2.819V743.5h10.818v2.5zm18 0v-23.273h7.864q2.727 0 4.477.932 1.75.92 2.591 2.534t.841 3.671-.841 3.647q-.84 1.591-2.579 2.5-1.738.898-4.443.898h-6.364v-2.545h6.273q1.863 0 3-.546 1.147-.545 1.659-1.545.522-1.012.522-2.409 0-1.398-.522-2.444-.524-1.045-1.671-1.613-1.147-.58-3.034-.58h-4.954V746zm10.955-10.455L929.906 746h-3.272l-5.637-10.455zm24.787-12.818h2.818v15.409q0 2.387-1.125 4.262-1.114 1.863-3.148 2.943-2.034 1.068-4.772 1.068t-4.773-1.068q-2.034-1.08-3.159-2.943-1.114-1.875-1.114-4.262v-15.409h2.818v15.182q0 1.704.75 3.034.75 1.318 2.137 2.08 1.397.75 3.341.75 1.943 0 3.341-.75 1.397-.762 2.136-2.08.75-1.33.75-3.034zM298.99 466.727h3.364l7.909 19.318h.273l7.909-19.318h3.363V490h-2.636v-17.682h-.227L311.672 490h-2.546l-7.272-17.682h-.228V490h-2.636zM327.459 490v-23.273h7.863q2.728 0 4.478.932 1.75.92 2.591 2.534.84 1.613.841 3.671 0 2.057-.841 3.647-.841 1.591-2.58 2.5-1.738.898-4.443.898h-6.364v-2.545h6.273q1.863 0 3-.546 1.147-.545 1.659-1.545.523-1.013.523-2.409 0-1.398-.523-2.444-.522-1.045-1.67-1.613-1.149-.58-3.034-.58h-4.955V490zm10.954-10.455L344.141 490h-3.273l-5.636-10.455zm24.787-12.818h2.818v15.409q0 2.387-1.125 4.262-1.113 1.863-3.147 2.943-2.034 1.068-4.773 1.068t-4.773-1.068q-2.034-1.08-3.159-2.943-1.113-1.875-1.113-4.262v-15.409h2.818v15.182q0 1.705.75 3.034.75 1.318 2.136 2.08 1.398.75 3.341.75t3.341-.75q1.398-.762 2.136-2.08.75-1.33.75-3.034zM298.99 210.727h3.364l7.909 19.318h.273l7.909-19.318h3.363V234h-2.636v-17.682h-.227L311.672 234h-2.546l-7.272-17.682h-.228V234h-2.636zM327.459 234v-23.273h7.863q2.728 0 4.478.932 1.75.92 2.591 2.534.84 1.614.841 3.671 0 2.057-.841 3.647-.841 1.591-2.58 2.5-1.738.898-4.443.898h-6.364v-2.545h6.273q1.863 0 3-.546 1.147-.545 1.659-1.545.523-1.013.523-2.409 0-1.398-.523-2.444-.522-1.045-1.67-1.613-1.149-.58-3.034-.58h-4.955V234zm10.954-10.455L344.141 234h-3.273l-5.636-10.455zm24.787-12.818h2.818v15.409q0 2.387-1.125 4.262-1.113 1.863-3.147 2.943-2.034 1.068-4.773 1.068t-4.773-1.068q-2.034-1.08-3.159-2.943-1.113-1.875-1.113-4.262v-15.409h2.818v15.182q0 1.704.75 3.034.75 1.318 2.136 2.08 1.398.75 3.341.75t3.341-.75q1.398-.762 2.136-2.08.75-1.33.75-3.034z"/><path fill="#fff" d="M3.6 406v-23.273h7.863q2.739 0 4.477.989 1.75.977 2.591 2.648.84 1.67.841 3.727 0 2.056-.84 3.739-.83 1.682-2.569 2.681-1.739.989-4.454.989H5.872V395h5.546q1.875 0 3.011-.648t1.648-1.75q.522-1.113.522-2.511t-.522-2.5q-.511-1.103-1.66-1.727-1.147-.637-3.045-.637H6.418V406zm25.085.409q-1.659 0-3.012-.625a5.17 5.17 0 0 1-2.147-1.829q-.796-1.204-.796-2.91 0-1.5.591-2.431a4.17 4.17 0 0 1 1.58-1.478 8.3 8.3 0 0 1 2.181-.795q1.205-.273 2.42-.432 1.592-.204 2.58-.307 1-.113 1.455-.375.465-.261.466-.909v-.091q0-1.682-.92-2.613-.91-.933-2.762-.932-1.92 0-3.011.841-1.092.84-1.534 1.795l-2.546-.909q.682-1.591 1.818-2.477a6.8 6.8 0 0 1 2.5-1.25q1.364-.364 2.682-.364.84 0 1.932.205a6.2 6.2 0 0 1 2.125.807q1.034.613 1.716 1.852t.682 3.318V406h-2.682v-2.364h-.136q-.273.568-.91 1.216-.636.648-1.693 1.103t-2.58.454m.409-2.409q1.59 0 2.682-.625 1.101-.625 1.659-1.614a4.1 4.1 0 0 0 .568-2.079v-2.455q-.171.205-.75.375-.568.16-1.318.284-.74.114-1.444.205a70 70 0 0 0-1.125.136q-1.045.137-1.954.443-.898.296-1.455.898-.545.591-.545 1.614 0 1.398 1.034 2.113 1.046.705 2.648.705m19.531 8.909q-1.944 0-3.34-.5-1.4-.489-2.33-1.295-.921-.796-1.466-1.705l2.136-1.5q.364.477.92 1.091.558.625 1.523 1.08.978.465 2.557.465 2.114 0 3.489-1.022t1.375-3.205v-3.545h-.228q-.296.477-.84 1.182-.535.693-1.546 1.238-1 .534-2.705.534-2.114 0-3.795-1-1.67-1-2.648-2.909-.966-1.91-.966-4.636 0-2.682.944-4.671.942-2 2.625-3.091 1.68-1.101 3.886-1.102 1.705 0 2.704.568 1.012.558 1.546 1.273.546.705.84 1.159h.274v-2.773h2.59V406.5q0 2.25-1.022 3.659-1.012 1.42-2.728 2.08-1.704.67-3.795.67m-.09-9.591q1.613 0 2.726-.738 1.114-.74 1.694-2.125.58-1.387.58-3.319 0-1.886-.57-3.329-.568-1.443-1.68-2.262-1.115-.818-2.75-.818-1.705 0-2.842.864-1.125.864-1.693 2.318-.557 1.455-.557 3.227 0 1.818.568 3.216.58 1.387 1.705 2.182 1.137.784 2.818.784m19.863 3.046q-2.523 0-4.352-1.114-1.819-1.125-2.807-3.136-.978-2.023-.978-4.705t.978-4.727q.988-2.057 2.75-3.205 1.773-1.159 4.136-1.159 1.364 0 2.693.455a6.7 6.7 0 0 1 2.42 1.477q1.092 1.011 1.74 2.682.647 1.67.647 4.113v1.137H62.17v-2.318h10.728q0-1.478-.591-2.637a4.46 4.46 0 0 0-1.66-1.829q-1.067-.67-2.522-.671-1.602 0-2.773.796a5.2 5.2 0 0 0-1.784 2.045 6 6 0 0 0-.625 2.705v1.545q0 1.977.682 3.352.693 1.365 1.92 2.08 1.228.705 2.853.705 1.056 0 1.909-.296a4.1 4.1 0 0 0 1.489-.909q.624-.614.965-1.523l2.591.728a5.75 5.75 0 0 1-1.375 2.318q-.967.988-2.386 1.545-1.42.546-3.193.546m27.988-.046a8.7 8.7 0 0 1-2.863-.545q-1.432-.523-2.614-1.762-1.181-1.25-1.898-3.375-.715-2.136-.715-5.363 0-3.091.579-5.478.58-2.397 1.682-4.034 1.102-1.647 2.659-2.5 1.567-.852 3.534-.852 1.954 0 3.477.784a6.63 6.63 0 0 1 2.5 2.159q.966 1.387 1.25 3.193h-2.772q-.387-1.567-1.5-2.602-1.114-1.034-2.955-1.034-2.705 0-4.261 2.352-1.546 2.353-1.557 6.603h.182a6.83 6.83 0 0 1 3.465-2.716 6.8 6.8 0 0 1 2.262-.375q2 0 3.659 1 1.659.989 2.659 2.738 1 1.739 1 3.989 0 2.159-.966 3.955a7.35 7.35 0 0 1-2.716 2.84q-1.739 1.046-4.09 1.023m0-2.5q1.432 0 2.569-.716a5.1 5.1 0 0 0 1.806-1.92q.67-1.204.671-2.682 0-1.443-.648-2.625a4.94 4.94 0 0 0-1.761-1.898q-1.114-.704-2.546-.704-1.08 0-2.011.432a5.2 5.2 0 0 0-1.636 1.159 5.6 5.6 0 0 0-1.091 1.693 5.1 5.1 0 0 0-.398 1.988q0 1.387.648 2.591a5.34 5.34 0 0 0 1.795 1.944q1.148.738 2.602.738"/><path fill="#717171" d="M298.99 722.727h3.364l7.909 19.318h.273l7.909-19.318h3.363V746h-2.636v-17.682h-.227L311.672 746h-2.546l-7.272-17.682h-.228V746h-2.636zM327.459 746v-23.273h7.863q2.728 0 4.478.932 1.75.92 2.591 2.534.84 1.613.841 3.671 0 2.057-.841 3.647-.841 1.591-2.58 2.5-1.738.898-4.443.898h-6.364v-2.545h6.273q1.863 0 3-.546 1.147-.545 1.659-1.545.523-1.012.523-2.409 0-1.398-.523-2.444-.522-1.045-1.67-1.613-1.149-.58-3.034-.58h-4.955V746zm10.954-10.455L344.141 746h-3.273l-5.636-10.455zm24.787-12.818h2.818v15.409q0 2.387-1.125 4.262-1.113 1.863-3.147 2.943-2.034 1.068-4.773 1.068t-4.773-1.068q-2.034-1.08-3.159-2.943-1.113-1.875-1.113-4.262v-15.409h2.818v15.182q0 1.704.75 3.034.75 1.318 2.136 2.08 1.398.75 3.341.75t3.341-.75q1.398-.762 2.136-2.08.75-1.33.75-3.034z"/><path fill="#fff" d="M315.849 150v-23.273h7.864q2.739 0 4.477.989 1.75.977 2.591 2.648.841 1.67.841 3.727t-.841 3.739q-.83 1.682-2.568 2.681-1.739.989-4.454.989h-5.637V139h5.546q1.874 0 3.011-.648t1.648-1.75q.522-1.113.522-2.511t-.522-2.5q-.512-1.103-1.659-1.727-1.149-.637-3.046-.637h-4.954V150zm25.086.409q-1.659 0-3.012-.625a5.17 5.17 0 0 1-2.147-1.829q-.796-1.205-.796-2.91 0-1.5.591-2.431a4.17 4.17 0 0 1 1.58-1.478 8.3 8.3 0 0 1 2.181-.795q1.205-.273 2.421-.432 1.59-.204 2.579-.307 1-.112 1.455-.375.466-.261.466-.909v-.091q0-1.681-.921-2.613-.909-.933-2.761-.932-1.92 0-3.011.841-1.092.84-1.534 1.795l-2.546-.909q.683-1.591 1.818-2.477a6.8 6.8 0 0 1 2.5-1.25 10.4 10.4 0 0 1 2.682-.364q.841 0 1.932.205a6.2 6.2 0 0 1 2.125.807q1.034.613 1.716 1.852t.682 3.318V150h-2.682v-2.364h-.137q-.271.568-.909 1.216-.636.648-1.693 1.103t-2.579.454m.409-2.409q1.59 0 2.682-.625 1.101-.625 1.659-1.614a4.1 4.1 0 0 0 .568-2.079v-2.455q-.171.206-.75.375a13 13 0 0 1-1.318.284q-.74.114-1.444.205-.693.08-1.125.136-1.045.137-1.954.443-.898.296-1.455.898-.545.591-.545 1.614 0 1.398 1.034 2.113 1.046.705 2.648.705m19.531 8.909q-1.943 0-3.341-.5-1.398-.488-2.329-1.295-.921-.796-1.466-1.705l2.136-1.5q.363.477.92 1.091.558.625 1.523 1.08.978.465 2.557.465 2.113 0 3.489-1.022 1.374-1.023 1.375-3.205v-3.545h-.228q-.295.477-.841 1.182-.534.693-1.545 1.238-1 .534-2.705.534-2.113 0-3.795-1-1.67-1-2.648-2.909-.966-1.91-.966-4.636 0-2.682.944-4.671.942-2 2.625-3.091 1.681-1.102 3.886-1.102 1.705 0 2.704.568 1.012.558 1.546 1.273.546.705.841 1.159h.273v-2.773h2.59V150.5q0 2.25-1.022 3.659-1.012 1.42-2.728 2.08-1.704.67-3.795.67m-.091-9.591q1.614 0 2.727-.738 1.114-.74 1.694-2.125.579-1.387.579-3.319 0-1.886-.568-3.329t-1.682-2.262q-1.113-.818-2.75-.818-1.704 0-2.841.864-1.125.863-1.693 2.318-.557 1.455-.557 3.227 0 1.818.568 3.216.58 1.387 1.705 2.182 1.136.784 2.818.784m19.864 3.046q-2.523 0-4.353-1.114-1.818-1.125-2.806-3.136-.978-2.023-.978-4.705t.978-4.727q.988-2.057 2.75-3.205 1.772-1.158 4.136-1.159 1.364 0 2.693.455a6.7 6.7 0 0 1 2.421 1.477q1.09 1.011 1.738 2.682.648 1.67.648 4.113v1.137H374.42v-2.318h10.728q0-1.478-.591-2.637a4.47 4.47 0 0 0-1.659-1.829q-1.068-.67-2.523-.671-1.602 0-2.773.796a5.23 5.23 0 0 0-1.784 2.045 6 6 0 0 0-.625 2.705v1.545q0 1.977.682 3.352.693 1.365 1.92 2.08 1.228.705 2.853.705 1.057 0 1.909-.296a4.1 4.1 0 0 0 1.488-.909q.625-.614.966-1.523l2.591.728a5.74 5.74 0 0 1-1.375 2.318q-.966.988-2.386 1.545-1.42.546-3.193.546m27.534-.046q-2 0-3.602-.795-1.603-.796-2.569-2.182t-1.056-3.159h2.727q.159 1.58 1.432 2.613 1.283 1.023 3.068 1.023 1.431 0 2.545-.67a4.74 4.74 0 0 0 1.762-1.841q.647-1.182.647-2.671 0-1.522-.67-2.716a4.9 4.9 0 0 0-1.818-1.897q-1.16-.693-2.648-.705a7.3 7.3 0 0 0-2.193.33q-1.125.33-1.852.852l-2.637-.318 1.409-11.455h12.091v2.5h-9.727l-.818 6.864h.136q.716-.568 1.796-.943a6.8 6.8 0 0 1 2.25-.375q2.136 0 3.806 1.022a7.15 7.15 0 0 1 2.637 2.773q.966 1.761.966 4.023 0 2.228-1 3.977a7.3 7.3 0 0 1-2.728 2.75q-1.738 1-3.954 1M446.318 150v-23.273h7.864q2.739 0 4.477.989 1.75.977 2.591 2.648.841 1.67.841 3.727t-.841 3.739q-.83 1.682-2.568 2.681-1.739.989-4.455.989h-5.636V139h5.545q1.875 0 3.012-.648 1.136-.648 1.647-1.75.523-1.113.523-2.511t-.523-2.5q-.51-1.103-1.659-1.727-1.147-.637-3.045-.637h-4.955V150zm25.085.409q-1.659 0-3.011-.625a5.2 5.2 0 0 1-2.148-1.829q-.795-1.205-.795-2.91 0-1.5.591-2.431a4.17 4.17 0 0 1 1.579-1.478 8.3 8.3 0 0 1 2.182-.795q1.204-.273 2.421-.432 1.59-.204 2.579-.307 1-.112 1.455-.375.466-.261.466-.909v-.091q0-1.681-.921-2.613-.909-.933-2.761-.932-1.92 0-3.012.841-1.09.84-1.534 1.795l-2.545-.909q.681-1.591 1.818-2.477a6.8 6.8 0 0 1 2.5-1.25 10.4 10.4 0 0 1 2.682-.364q.84 0 1.932.205a6.2 6.2 0 0 1 2.125.807q1.034.613 1.716 1.852t.681 3.318V150h-2.681v-2.364h-.137q-.273.568-.909 1.216t-1.693 1.103q-1.057.454-2.58.454m.409-2.409q1.591 0 2.682-.625 1.102-.625 1.659-1.614a4.1 4.1 0 0 0 .569-2.079v-2.455q-.171.206-.75.375-.569.16-1.319.284-.738.114-1.443.205-.693.08-1.125.136-1.045.137-1.954.443-.899.296-1.455.898-.545.591-.545 1.614 0 1.398 1.034 2.113 1.045.705 2.647.705m19.532 8.909q-1.943 0-3.341-.5-1.398-.488-2.33-1.295-.92-.796-1.466-1.705l2.137-1.5q.363.477.92 1.091.557.625 1.523 1.08.977.465 2.557.465 2.114 0 3.488-1.022t1.375-3.205v-3.545h-.227q-.295.477-.841 1.182-.534.693-1.545 1.238-1 .534-2.705.534-2.114 0-3.795-1-1.67-1-2.648-2.909-.966-1.91-.966-4.636 0-2.682.943-4.671.943-2 2.625-3.091 1.683-1.102 3.887-1.102 1.705 0 2.704.568 1.011.558 1.546 1.273.545.705.841 1.159h.272v-2.773h2.591V150.5q0 2.25-1.023 3.659-1.011 1.42-2.727 2.08-1.704.67-3.795.67m-.091-9.591q1.614 0 2.727-.738 1.114-.74 1.693-2.125.58-1.387.58-3.319 0-1.886-.568-3.329-.569-1.443-1.682-2.262-1.114-.818-2.75-.818-1.705 0-2.841.864-1.125.863-1.693 2.318-.557 1.455-.557 3.227 0 1.818.568 3.216.58 1.387 1.705 2.182 1.136.784 2.818.784m19.863 3.046q-2.522 0-4.352-1.114-1.818-1.125-2.807-3.136-.977-2.023-.977-4.705t.977-4.727q.989-2.057 2.75-3.205 1.773-1.158 4.137-1.159 1.364 0 2.693.455a6.7 6.7 0 0 1 2.42 1.477q1.091 1.011 1.739 2.682.648 1.67.648 4.113v1.137h-13.455v-2.318h10.727q0-1.478-.59-2.637a4.46 4.46 0 0 0-1.66-1.829q-1.068-.67-2.522-.671-1.603 0-2.773.796a5.2 5.2 0 0 0-1.784 2.045 6 6 0 0 0-.625 2.705v1.545q0 1.977.682 3.352.693 1.365 1.92 2.08 1.227.705 2.852.705 1.057 0 1.91-.296a4.1 4.1 0 0 0 1.488-.909q.625-.614.966-1.523l2.591.728a5.75 5.75 0 0 1-1.375 2.318q-.966.988-2.386 1.545-1.42.546-3.194.546m19.716-5.137v-2.318l10.228-16.182h1.681v3.591h-1.136l-7.727 12.227v.182h13.773v2.5zM541.787 150v-23.273h2.682V150zM577.396 150v-23.273h7.864q2.739 0 4.477.989 1.75.977 2.591 2.648.841 1.67.841 3.727t-.841 3.739q-.83 1.682-2.568 2.681-1.738.989-4.455.989h-5.636V139h5.545q1.875 0 3.012-.648 1.136-.648 1.648-1.75.522-1.113.522-2.511t-.522-2.5q-.511-1.103-1.66-1.727-1.147-.637-3.045-.637h-4.955V150zm25.086.409q-1.66 0-3.012-.625a5.2 5.2 0 0 1-2.148-1.829q-.795-1.205-.795-2.91 0-1.5.591-2.431a4.17 4.17 0 0 1 1.579-1.478 8.3 8.3 0 0 1 2.182-.795q1.204-.273 2.421-.432 1.59-.204 2.579-.307 1-.112 1.455-.375.466-.261.466-.909v-.091q0-1.681-.921-2.613-.909-.933-2.761-.932-1.92 0-3.011.841-1.091.84-1.535 1.795l-2.545-.909q.683-1.591 1.818-2.477a6.8 6.8 0 0 1 2.5-1.25 10.4 10.4 0 0 1 2.682-.364q.841 0 1.932.205a6.2 6.2 0 0 1 2.125.807q1.033.613 1.716 1.852.681 1.239.682 3.318V150H607.8v-2.364h-.137q-.272.568-.909 1.216-.636.648-1.693 1.103t-2.579.454m.409-2.409q1.59 0 2.681-.625 1.102-.625 1.66-1.614a4.1 4.1 0 0 0 .568-2.079v-2.455q-.171.206-.75.375a13 13 0 0 1-1.318.284q-.74.114-1.444.205-.693.08-1.125.136-1.045.137-1.954.443-.899.296-1.455.898-.545.591-.545 1.614 0 1.398 1.034 2.113 1.045.705 2.648.705m19.531 8.909q-1.944 0-3.341-.5-1.397-.488-2.33-1.295-.92-.796-1.465-1.705l2.136-1.5q.363.477.92 1.091.558.625 1.523 1.08.978.465 2.557.465 2.113 0 3.489-1.022t1.375-3.205v-3.545h-.228q-.295.477-.841 1.182-.534.693-1.545 1.238-1 .534-2.705.534-2.114 0-3.795-1-1.67-1-2.648-2.909-.966-1.91-.966-4.636 0-2.682.943-4.671.943-2 2.625-3.091 1.682-1.102 3.887-1.102 1.705 0 2.704.568 1.012.558 1.546 1.273.545.705.841 1.159h.272v-2.773h2.591V150.5q0 2.25-1.022 3.659-1.012 1.42-2.728 2.08-1.704.67-3.795.67m-.091-9.591q1.614 0 2.727-.738 1.114-.74 1.693-2.125.58-1.387.58-3.319 0-1.886-.568-3.329-.569-1.443-1.682-2.262-1.113-.818-2.75-.818-1.704 0-2.841.864-1.125.863-1.693 2.318-.557 1.455-.557 3.227 0 1.818.568 3.216.58 1.387 1.705 2.182 1.136.784 2.818.784m19.864 3.046q-2.523 0-4.353-1.114-1.818-1.125-2.806-3.136-.978-2.023-.978-4.705t.978-4.727q.988-2.057 2.75-3.205 1.772-1.158 4.136-1.159 1.364 0 2.693.455a6.7 6.7 0 0 1 2.421 1.477q1.09 1.011 1.738 2.682.648 1.67.648 4.113v1.137h-13.455v-2.318h10.728q0-1.478-.591-2.637a4.47 4.47 0 0 0-1.659-1.829q-1.069-.67-2.523-.671-1.602 0-2.773.796a5.2 5.2 0 0 0-1.784 2.045 6 6 0 0 0-.625 2.705v1.545q0 1.977.682 3.352.693 1.365 1.92 2.08 1.228.705 2.853.705 1.057 0 1.909-.296a4.1 4.1 0 0 0 1.488-.909q.625-.614.966-1.523l2.591.728a5.75 5.75 0 0 1-1.375 2.318q-.966.988-2.386 1.545-1.421.546-3.193.546m28.125-.046q-2.25 0-4.012-.773-1.749-.773-2.784-2.147-1.023-1.387-1.113-3.216h2.863q.091 1.125.773 1.943.681.807 1.784 1.25t2.443.443q1.5 0 2.659-.523 1.16-.522 1.818-1.454.66-.932.66-2.159 0-1.284-.637-2.262-.636-.988-1.863-1.545-1.229-.557-3-.557h-1.864v-2.5h1.864q1.386 0 2.431-.5 1.057-.5 1.648-1.409.602-.909.602-2.136 0-1.182-.522-2.057a3.6 3.6 0 0 0-1.478-1.364q-.942-.488-2.227-.488-1.205 0-2.273.443a4.24 4.24 0 0 0-1.727 1.261q-.67.819-.727 1.977h-2.727q.067-1.828 1.102-3.204 1.034-1.386 2.704-2.159 1.683-.773 3.694-.773 2.159 0 3.704.875 1.545.864 2.375 2.284t.83 3.068q0 1.966-1.034 3.353-1.023 1.386-2.785 1.92v.182q2.205.363 3.444 1.875 1.238 1.5 1.238 3.716 0 1.897-1.034 3.409-1.023 1.5-2.795 2.364t-4.034.863M708.896 150v-23.273h7.864q2.739 0 4.477.989 1.75.977 2.591 2.648.841 1.67.841 3.727t-.841 3.739q-.83 1.682-2.568 2.681-1.738.989-4.455.989h-5.636V139h5.545q1.875 0 3.012-.648 1.136-.648 1.648-1.75.522-1.113.522-2.511t-.522-2.5q-.511-1.103-1.66-1.727-1.147-.637-3.045-.637h-4.955V150zm25.086.409q-1.66 0-3.012-.625a5.2 5.2 0 0 1-2.148-1.829q-.795-1.205-.795-2.91 0-1.5.591-2.431a4.17 4.17 0 0 1 1.579-1.478 8.3 8.3 0 0 1 2.182-.795q1.205-.273 2.421-.432 1.59-.204 2.579-.307 1-.112 1.455-.375.465-.261.466-.909v-.091q0-1.681-.921-2.613-.909-.933-2.761-.932-1.92 0-3.011.841-1.091.84-1.535 1.795l-2.545-.909q.683-1.591 1.818-2.477a6.8 6.8 0 0 1 2.5-1.25 10.4 10.4 0 0 1 2.682-.364q.841 0 1.932.205a6.2 6.2 0 0 1 2.125.807q1.033.613 1.716 1.852.681 1.239.682 3.318V150H739.3v-2.364h-.137q-.272.568-.909 1.216-.636.648-1.693 1.103t-2.579.454m.409-2.409q1.59 0 2.681-.625 1.102-.625 1.66-1.614a4.1 4.1 0 0 0 .568-2.079v-2.455q-.171.206-.75.375a13 13 0 0 1-1.318.284q-.74.114-1.444.205-.693.08-1.125.136-1.045.137-1.954.443-.898.296-1.455.898-.545.591-.545 1.614 0 1.398 1.034 2.113 1.045.705 2.648.705m19.531 8.909q-1.944 0-3.341-.5-1.397-.488-2.33-1.295-.92-.796-1.465-1.705l2.136-1.5q.363.477.92 1.091.558.625 1.523 1.08.978.465 2.557.465 2.113 0 3.489-1.022 1.374-1.023 1.375-3.205v-3.545h-.228q-.295.477-.841 1.182-.534.693-1.545 1.238-1 .534-2.705.534-2.114 0-3.795-1-1.67-1-2.648-2.909-.966-1.91-.966-4.636 0-2.682.943-4.671.943-2 2.625-3.091 1.682-1.102 3.887-1.102 1.705 0 2.704.568 1.012.558 1.546 1.273.545.705.841 1.159h.272v-2.773h2.591V150.5q0 2.25-1.022 3.659-1.012 1.42-2.728 2.08-1.704.67-3.795.67m-.091-9.591q1.614 0 2.727-.738 1.114-.74 1.693-2.125.58-1.387.58-3.319 0-1.886-.568-3.329-.569-1.443-1.682-2.262-1.113-.818-2.75-.818-1.704 0-2.841.864-1.125.863-1.693 2.318-.557 1.455-.557 3.227 0 1.818.568 3.216.58 1.387 1.705 2.182 1.136.784 2.818.784m19.864 3.046q-2.523 0-4.353-1.114-1.818-1.125-2.806-3.136-.978-2.023-.978-4.705t.978-4.727q.988-2.057 2.75-3.205 1.772-1.158 4.136-1.159 1.364 0 2.693.455a6.7 6.7 0 0 1 2.421 1.477q1.09 1.011 1.738 2.682.648 1.67.648 4.113v1.137h-13.455v-2.318h10.728q0-1.478-.591-2.637a4.47 4.47 0 0 0-1.659-1.829q-1.069-.67-2.523-.671-1.603 0-2.773.796a5.2 5.2 0 0 0-1.784 2.045 6 6 0 0 0-.625 2.705v1.545q0 1.977.682 3.352.693 1.365 1.92 2.08 1.228.705 2.853.705 1.057 0 1.909-.296a4.1 4.1 0 0 0 1.488-.909q.625-.614.966-1.523l2.591.728a5.75 5.75 0 0 1-1.375 2.318q-.966.988-2.386 1.545-1.421.546-3.193.546m20.261-.364v-2.045l7.682-8.41a53 53 0 0 0 2.227-2.568q.874-1.102 1.296-2.068a5 5 0 0 0 .431-2.045q0-1.228-.591-2.125a3.83 3.83 0 0 0-1.59-1.387q-1.012-.488-2.273-.488-1.34 0-2.341.556a3.83 3.83 0 0 0-1.534 1.535q-.534.988-.534 2.318h-2.682q0-2.046.943-3.591a6.55 6.55 0 0 1 2.568-2.409q1.637-.864 3.671-.864 2.045 0 3.625.864 1.579.863 2.477 2.329t.898 3.262q0 1.284-.466 2.511-.455 1.216-1.591 2.716-1.125 1.488-3.125 3.636l-5.227 5.591v.182h10.818v2.5zM315.849 407v-23.273h7.864q2.739 0 4.477.989 1.75.977 2.591 2.648.841 1.67.841 3.727t-.841 3.739q-.83 1.682-2.568 2.681-1.739.989-4.454.989h-5.637V396h5.546q1.874 0 3.011-.648t1.648-1.75q.522-1.113.522-2.511t-.522-2.5q-.512-1.103-1.659-1.727-1.149-.637-3.046-.637h-4.954V407zm25.086.409q-1.659 0-3.012-.625a5.17 5.17 0 0 1-2.147-1.829q-.796-1.204-.796-2.91 0-1.5.591-2.431a4.17 4.17 0 0 1 1.58-1.478 8.3 8.3 0 0 1 2.181-.795q1.205-.273 2.421-.432 1.59-.204 2.579-.307 1-.113 1.455-.375.466-.261.466-.909v-.091q0-1.682-.921-2.613-.909-.933-2.761-.932-1.92 0-3.011.841-1.092.84-1.534 1.795l-2.546-.909q.683-1.591 1.818-2.477a6.8 6.8 0 0 1 2.5-1.25 10.4 10.4 0 0 1 2.682-.364q.841 0 1.932.205a6.2 6.2 0 0 1 2.125.807q1.034.613 1.716 1.852t.682 3.318V407h-2.682v-2.364h-.137q-.271.568-.909 1.216-.636.648-1.693 1.103t-2.579.454m.409-2.409q1.59 0 2.682-.625 1.101-.625 1.659-1.614a4.1 4.1 0 0 0 .568-2.079v-2.455q-.171.205-.75.375a13 13 0 0 1-1.318.284q-.74.114-1.444.205-.693.08-1.125.136-1.045.137-1.954.443-.898.296-1.455.898-.545.591-.545 1.614 0 1.398 1.034 2.113 1.046.705 2.648.705m19.531 8.909q-1.943 0-3.341-.5-1.398-.489-2.329-1.295-.921-.796-1.466-1.705l2.136-1.5q.363.477.92 1.091.558.625 1.523 1.08.978.465 2.557.465 2.113 0 3.489-1.022 1.374-1.023 1.375-3.205v-3.545h-.228q-.295.477-.841 1.182-.534.693-1.545 1.238-1 .534-2.705.534-2.113 0-3.795-1-1.67-1-2.648-2.909-.966-1.91-.966-4.636 0-2.682.944-4.671.942-2 2.625-3.091 1.681-1.101 3.886-1.102 1.705 0 2.704.568 1.012.558 1.546 1.273.546.705.841 1.159h.273v-2.773h2.59V407.5q0 2.25-1.022 3.659-1.012 1.42-2.728 2.08-1.704.67-3.795.67m-.091-9.591q1.614 0 2.727-.738 1.114-.74 1.694-2.125.579-1.387.579-3.319 0-1.886-.568-3.329t-1.682-2.262q-1.113-.818-2.75-.818-1.704 0-2.841.864-1.125.864-1.693 2.318-.557 1.455-.557 3.227 0 1.818.568 3.216.58 1.387 1.705 2.182 1.136.784 2.818.784m19.864 3.046q-2.523 0-4.353-1.114-1.818-1.125-2.806-3.136-.978-2.023-.978-4.705t.978-4.727q.988-2.057 2.75-3.205 1.772-1.159 4.136-1.159 1.364 0 2.693.455a6.7 6.7 0 0 1 2.421 1.477q1.09 1.011 1.738 2.682.648 1.67.648 4.113v1.137H374.42v-2.318h10.728q0-1.478-.591-2.637a4.47 4.47 0 0 0-1.659-1.829q-1.068-.67-2.523-.671-1.602 0-2.773.796a5.23 5.23 0 0 0-1.784 2.045 6 6 0 0 0-.625 2.705v1.545q0 1.977.682 3.352.693 1.365 1.92 2.08 1.228.705 2.853.705 1.057 0 1.909-.296a4.1 4.1 0 0 0 1.488-.909q.625-.614.966-1.523l2.591.728a5.74 5.74 0 0 1-1.375 2.318q-.966.988-2.386 1.545-1.42.546-3.193.546m27.534-.046q-2 0-3.602-.795-1.603-.796-2.569-2.182t-1.056-3.159h2.727q.159 1.58 1.432 2.613 1.283 1.023 3.068 1.023 1.431 0 2.545-.67a4.74 4.74 0 0 0 1.762-1.841q.647-1.182.647-2.671 0-1.522-.67-2.716a4.9 4.9 0 0 0-1.818-1.897q-1.16-.693-2.648-.705a7.3 7.3 0 0 0-2.193.33q-1.125.33-1.852.852l-2.637-.318 1.409-11.455h12.091v2.5h-9.727l-.818 6.864h.136q.716-.568 1.796-.943a6.8 6.8 0 0 1 2.25-.375q2.136 0 3.806 1.022a7.15 7.15 0 0 1 2.637 2.773q.966 1.761.966 4.023 0 2.228-1 3.977a7.3 7.3 0 0 1-2.728 2.75q-1.738 1-3.954 1M446.318 407v-23.273h7.864q2.739 0 4.477.989 1.75.977 2.591 2.648.841 1.67.841 3.727t-.841 3.739q-.83 1.682-2.568 2.681-1.739.989-4.455.989h-5.636V396h5.545q1.875 0 3.012-.648 1.136-.648 1.647-1.75.523-1.113.523-2.511t-.523-2.5q-.51-1.103-1.659-1.727-1.147-.637-3.045-.637h-4.955V407zm25.085.409q-1.659 0-3.011-.625a5.2 5.2 0 0 1-2.148-1.829q-.795-1.204-.795-2.91 0-1.5.591-2.431a4.17 4.17 0 0 1 1.579-1.478 8.3 8.3 0 0 1 2.182-.795q1.204-.273 2.421-.432 1.59-.204 2.579-.307 1-.113 1.455-.375.466-.261.466-.909v-.091q0-1.682-.921-2.613-.909-.933-2.761-.932-1.92 0-3.012.841-1.09.84-1.534 1.795l-2.545-.909q.681-1.591 1.818-2.477a6.8 6.8 0 0 1 2.5-1.25 10.4 10.4 0 0 1 2.682-.364q.84 0 1.932.205a6.2 6.2 0 0 1 2.125.807q1.034.613 1.716 1.852t.681 3.318V407h-2.681v-2.364h-.137q-.273.568-.909 1.216t-1.693 1.103q-1.057.454-2.58.454m.409-2.409q1.591 0 2.682-.625 1.102-.625 1.659-1.614a4.1 4.1 0 0 0 .569-2.079v-2.455q-.171.205-.75.375-.569.16-1.319.284-.738.114-1.443.205-.693.08-1.125.136-1.045.137-1.954.443-.899.296-1.455.898-.545.591-.545 1.614 0 1.398 1.034 2.113 1.045.705 2.647.705m19.532 8.909q-1.943 0-3.341-.5-1.398-.489-2.33-1.295-.92-.796-1.466-1.705l2.137-1.5q.363.477.92 1.091.557.625 1.523 1.08.977.465 2.557.465 2.114 0 3.488-1.022t1.375-3.205v-3.545h-.227q-.295.477-.841 1.182-.534.693-1.545 1.238-1 .534-2.705.534-2.114 0-3.795-1-1.67-1-2.648-2.909-.966-1.91-.966-4.636 0-2.682.943-4.671.943-2 2.625-3.091 1.683-1.101 3.887-1.102 1.705 0 2.704.568 1.011.558 1.546 1.273.545.705.841 1.159h.272v-2.773h2.591V407.5q0 2.25-1.023 3.659-1.011 1.42-2.727 2.08-1.704.67-3.795.67m-.091-9.591q1.614 0 2.727-.738 1.114-.74 1.693-2.125.58-1.387.58-3.319 0-1.886-.568-3.329-.569-1.443-1.682-2.262-1.114-.818-2.75-.818-1.705 0-2.841.864-1.125.864-1.693 2.318-.557 1.455-.557 3.227 0 1.818.568 3.216.58 1.387 1.705 2.182 1.136.784 2.818.784m19.863 3.046q-2.522 0-4.352-1.114-1.818-1.125-2.807-3.136-.977-2.023-.977-4.705t.977-4.727q.989-2.057 2.75-3.205 1.773-1.159 4.137-1.159 1.364 0 2.693.455a6.7 6.7 0 0 1 2.42 1.477q1.091 1.011 1.739 2.682.648 1.67.648 4.113v1.137h-13.455v-2.318h10.727q0-1.478-.59-2.637a4.46 4.46 0 0 0-1.66-1.829q-1.068-.67-2.522-.671-1.603 0-2.773.796a5.2 5.2 0 0 0-1.784 2.045 6 6 0 0 0-.625 2.705v1.545q0 1.977.682 3.352.693 1.365 1.92 2.08 1.227.705 2.852.705 1.057 0 1.91-.296a4.1 4.1 0 0 0 1.488-.909q.625-.614.966-1.523l2.591.728a5.75 5.75 0 0 1-1.375 2.318q-.966.988-2.386 1.545-1.42.546-3.194.546m19.716-5.137v-2.318l10.228-16.182h1.681v3.591h-1.136l-7.727 12.227v.182h13.773v2.5zM541.787 407v-23.273h2.682V407zM577.396 407v-23.273h7.864q2.739 0 4.477.989 1.75.977 2.591 2.648.841 1.67.841 3.727t-.841 3.739q-.83 1.682-2.568 2.681-1.738.989-4.455.989h-5.636V396h5.545q1.875 0 3.012-.648 1.136-.648 1.648-1.75.522-1.113.522-2.511t-.522-2.5q-.511-1.103-1.66-1.727-1.147-.637-3.045-.637h-4.955V407zm25.086.409q-1.66 0-3.012-.625a5.2 5.2 0 0 1-2.148-1.829q-.795-1.204-.795-2.91 0-1.5.591-2.431a4.17 4.17 0 0 1 1.579-1.478 8.3 8.3 0 0 1 2.182-.795q1.204-.273 2.421-.432 1.59-.204 2.579-.307 1-.113 1.455-.375.466-.261.466-.909v-.091q0-1.682-.921-2.613-.909-.933-2.761-.932-1.92 0-3.011.841-1.091.84-1.535 1.795l-2.545-.909q.683-1.591 1.818-2.477a6.8 6.8 0 0 1 2.5-1.25 10.4 10.4 0 0 1 2.682-.364q.841 0 1.932.205a6.2 6.2 0 0 1 2.125.807q1.033.613 1.716 1.852.681 1.239.682 3.318V407H607.8v-2.364h-.137q-.272.568-.909 1.216-.636.648-1.693 1.103t-2.579.454m.409-2.409q1.59 0 2.681-.625 1.102-.625 1.66-1.614a4.1 4.1 0 0 0 .568-2.079v-2.455q-.171.205-.75.375a13 13 0 0 1-1.318.284q-.74.114-1.444.205-.693.08-1.125.136-1.045.137-1.954.443-.899.296-1.455.898-.545.591-.545 1.614 0 1.398 1.034 2.113 1.045.705 2.648.705m19.531 8.909q-1.944 0-3.341-.5-1.397-.489-2.33-1.295-.92-.796-1.465-1.705l2.136-1.5q.363.477.92 1.091.558.625 1.523 1.08.978.465 2.557.465 2.113 0 3.489-1.022t1.375-3.205v-3.545h-.228q-.295.477-.841 1.182-.534.693-1.545 1.238-1 .534-2.705.534-2.114 0-3.795-1-1.67-1-2.648-2.909-.966-1.91-.966-4.636 0-2.682.943-4.671.943-2 2.625-3.091 1.682-1.101 3.887-1.102 1.705 0 2.704.568 1.012.558 1.546 1.273.545.705.841 1.159h.272v-2.773h2.591V407.5q0 2.25-1.022 3.659-1.012 1.42-2.728 2.08-1.704.67-3.795.67m-.091-9.591q1.614 0 2.727-.738 1.114-.74 1.693-2.125.58-1.387.58-3.319 0-1.886-.568-3.329-.569-1.443-1.682-2.262-1.113-.818-2.75-.818-1.704 0-2.841.864-1.125.864-1.693 2.318-.557 1.455-.557 3.227 0 1.818.568 3.216.58 1.387 1.705 2.182 1.136.784 2.818.784m19.864 3.046q-2.523 0-4.353-1.114-1.818-1.125-2.806-3.136-.978-2.023-.978-4.705t.978-4.727q.988-2.057 2.75-3.205 1.772-1.159 4.136-1.159 1.364 0 2.693.455a6.7 6.7 0 0 1 2.421 1.477q1.09 1.011 1.738 2.682.648 1.67.648 4.113v1.137h-13.455v-2.318h10.728q0-1.478-.591-2.637a4.47 4.47 0 0 0-1.659-1.829q-1.069-.67-2.523-.671-1.602 0-2.773.796a5.2 5.2 0 0 0-1.784 2.045 6 6 0 0 0-.625 2.705v1.545q0 1.977.682 3.352.693 1.365 1.92 2.08 1.228.705 2.853.705 1.057 0 1.909-.296a4.1 4.1 0 0 0 1.488-.909q.625-.614.966-1.523l2.591.728a5.75 5.75 0 0 1-1.375 2.318q-.966.988-2.386 1.545-1.421.546-3.193.546m28.125-.046q-2.25 0-4.012-.773-1.749-.773-2.784-2.147-1.023-1.387-1.113-3.216h2.863q.091 1.125.773 1.943.681.807 1.784 1.25t2.443.443q1.5 0 2.659-.523 1.16-.522 1.818-1.454.66-.932.66-2.159 0-1.284-.637-2.262-.636-.988-1.863-1.545-1.229-.557-3-.557h-1.864v-2.5h1.864q1.386 0 2.431-.5 1.057-.5 1.648-1.409.602-.909.602-2.136 0-1.182-.522-2.057a3.6 3.6 0 0 0-1.478-1.364q-.942-.488-2.227-.488-1.205 0-2.273.443a4.24 4.24 0 0 0-1.727 1.261q-.67.819-.727 1.977h-2.727q.067-1.829 1.102-3.204 1.034-1.386 2.704-2.159 1.683-.773 3.694-.773 2.159 0 3.704.875 1.545.864 2.375 2.284t.83 3.068q0 1.966-1.034 3.353-1.023 1.386-2.785 1.92v.182q2.205.363 3.444 1.875 1.238 1.5 1.238 3.716 0 1.897-1.034 3.409-1.023 1.5-2.795 2.364t-4.034.863M708.896 407v-23.273h7.864q2.739 0 4.477.989 1.75.977 2.591 2.648.841 1.67.841 3.727t-.841 3.739q-.83 1.682-2.568 2.681-1.738.989-4.455.989h-5.636V396h5.545q1.875 0 3.012-.648 1.136-.648 1.648-1.75.522-1.113.522-2.511t-.522-2.5q-.511-1.103-1.66-1.727-1.147-.637-3.045-.637h-4.955V407zm25.086.409q-1.66 0-3.012-.625a5.2 5.2 0 0 1-2.148-1.829q-.795-1.204-.795-2.91 0-1.5.591-2.431a4.17 4.17 0 0 1 1.579-1.478 8.3 8.3 0 0 1 2.182-.795q1.205-.273 2.421-.432 1.59-.204 2.579-.307 1-.113 1.455-.375.465-.261.466-.909v-.091q0-1.682-.921-2.613-.909-.933-2.761-.932-1.92 0-3.011.841-1.091.84-1.535 1.795l-2.545-.909q.683-1.591 1.818-2.477a6.8 6.8 0 0 1 2.5-1.25 10.4 10.4 0 0 1 2.682-.364q.841 0 1.932.205a6.2 6.2 0 0 1 2.125.807q1.033.613 1.716 1.852.681 1.239.682 3.318V407H739.3v-2.364h-.137q-.272.568-.909 1.216-.636.648-1.693 1.103t-2.579.454m.409-2.409q1.59 0 2.681-.625 1.102-.625 1.66-1.614a4.1 4.1 0 0 0 .568-2.079v-2.455q-.171.205-.75.375a13 13 0 0 1-1.318.284q-.74.114-1.444.205-.693.08-1.125.136-1.045.137-1.954.443-.898.296-1.455.898-.545.591-.545 1.614 0 1.398 1.034 2.113 1.045.705 2.648.705m19.531 8.909q-1.944 0-3.341-.5-1.397-.489-2.33-1.295-.92-.796-1.465-1.705l2.136-1.5q.363.477.92 1.091.558.625 1.523 1.08.978.465 2.557.465 2.113 0 3.489-1.022 1.374-1.023 1.375-3.205v-3.545h-.228q-.295.477-.841 1.182-.534.693-1.545 1.238-1 .534-2.705.534-2.114 0-3.795-1-1.67-1-2.648-2.909-.966-1.91-.966-4.636 0-2.682.943-4.671.943-2 2.625-3.091 1.682-1.101 3.887-1.102 1.705 0 2.704.568 1.012.558 1.546 1.273.545.705.841 1.159h.272v-2.773h2.591V407.5q0 2.25-1.022 3.659-1.012 1.42-2.728 2.08-1.704.67-3.795.67m-.091-9.591q1.614 0 2.727-.738 1.114-.74 1.693-2.125.58-1.387.58-3.319 0-1.886-.568-3.329-.569-1.443-1.682-2.262-1.113-.818-2.75-.818-1.704 0-2.841.864-1.125.864-1.693 2.318-.557 1.455-.557 3.227 0 1.818.568 3.216.58 1.387 1.705 2.182 1.136.784 2.818.784m19.864 3.046q-2.523 0-4.353-1.114-1.818-1.125-2.806-3.136-.978-2.023-.978-4.705t.978-4.727q.988-2.057 2.75-3.205 1.772-1.159 4.136-1.159 1.364 0 2.693.455a6.7 6.7 0 0 1 2.421 1.477q1.09 1.011 1.738 2.682.648 1.67.648 4.113v1.137h-13.455v-2.318h10.728q0-1.478-.591-2.637a4.47 4.47 0 0 0-1.659-1.829q-1.069-.67-2.523-.671-1.603 0-2.773.796a5.2 5.2 0 0 0-1.784 2.045 6 6 0 0 0-.625 2.705v1.545q0 1.977.682 3.352.693 1.365 1.92 2.08 1.228.705 2.853.705 1.057 0 1.909-.296a4.1 4.1 0 0 0 1.488-.909q.625-.614.966-1.523l2.591.728a5.75 5.75 0 0 1-1.375 2.318q-.966.988-2.386 1.545-1.421.546-3.193.546m20.261-.364v-2.045l7.682-8.41a53 53 0 0 0 2.227-2.568q.874-1.102 1.296-2.068a5 5 0 0 0 .431-2.045q0-1.228-.591-2.125a3.83 3.83 0 0 0-1.59-1.387q-1.012-.488-2.273-.488-1.34 0-2.341.556a3.83 3.83 0 0 0-1.534 1.535q-.534.988-.534 2.318h-2.682q0-2.046.943-3.591a6.55 6.55 0 0 1 2.568-2.409q1.637-.864 3.671-.864 2.045 0 3.625.864 1.579.863 2.477 2.329t.898 3.262q0 1.284-.466 2.511-.455 1.216-1.591 2.716-1.125 1.488-3.125 3.636l-5.227 5.591v.182h10.818v2.5zM842.146 407v-23.273h7.864q2.739 0 4.477.989 1.75.977 2.591 2.648.841 1.67.841 3.727t-.841 3.739q-.83 1.682-2.568 2.681-1.738.989-4.455.989h-5.636V396h5.545q1.875 0 3.012-.648 1.136-.648 1.648-1.75.522-1.113.522-2.511t-.522-2.5q-.511-1.103-1.66-1.727-1.147-.637-3.045-.637h-4.955V407zm25.086.409q-1.66 0-3.012-.625a5.2 5.2 0 0 1-2.148-1.829q-.795-1.204-.795-2.91 0-1.5.591-2.431a4.17 4.17 0 0 1 1.579-1.478 8.3 8.3 0 0 1 2.182-.795q1.205-.273 2.421-.432 1.59-.204 2.579-.307 1-.113 1.455-.375.465-.261.466-.909v-.091q0-1.682-.921-2.613-.909-.933-2.761-.932-1.92 0-3.011.841-1.091.84-1.535 1.795l-2.545-.909q.683-1.591 1.818-2.477a6.8 6.8 0 0 1 2.5-1.25 10.4 10.4 0 0 1 2.682-.364q.841 0 1.932.205a6.2 6.2 0 0 1 2.125.807q1.033.613 1.716 1.852.681 1.239.682 3.318V407h-2.682v-2.364h-.137q-.272.568-.909 1.216-.636.648-1.693 1.103t-2.579.454m.409-2.409q1.59 0 2.681-.625 1.102-.625 1.66-1.614a4.1 4.1 0 0 0 .568-2.079v-2.455q-.171.205-.75.375a13 13 0 0 1-1.318.284q-.74.114-1.444.205-.693.08-1.125.136-1.045.137-1.954.443-.898.296-1.455.898-.545.591-.545 1.614 0 1.398 1.034 2.113 1.045.705 2.648.705m19.531 8.909q-1.944 0-3.341-.5-1.397-.489-2.33-1.295-.92-.796-1.465-1.705l2.136-1.5q.363.477.92 1.091.558.625 1.523 1.08.978.465 2.557.465 2.113 0 3.489-1.022 1.374-1.023 1.375-3.205v-3.545h-.228q-.295.477-.841 1.182-.534.693-1.545 1.238-1 .534-2.705.534-2.114 0-3.795-1-1.67-1-2.648-2.909-.966-1.91-.966-4.636 0-2.682.943-4.671.943-2 2.625-3.091 1.682-1.101 3.887-1.102 1.705 0 2.704.568 1.012.558 1.546 1.273.545.705.841 1.159h.272v-2.773h2.591V407.5q0 2.25-1.022 3.659-1.012 1.42-2.728 2.08-1.704.67-3.795.67m-.091-9.591q1.614 0 2.727-.738 1.114-.74 1.693-2.125.58-1.387.58-3.319 0-1.886-.568-3.329-.569-1.443-1.682-2.262-1.113-.818-2.75-.818-1.704 0-2.841.864-1.125.864-1.693 2.318-.557 1.455-.557 3.227 0 1.818.568 3.216.58 1.387 1.705 2.182 1.136.784 2.818.784m19.864 3.046q-2.523 0-4.353-1.114-1.818-1.125-2.806-3.136-.978-2.023-.978-4.705t.978-4.727q.988-2.057 2.75-3.205 1.772-1.159 4.136-1.159 1.364 0 2.693.455a6.7 6.7 0 0 1 2.421 1.477q1.09 1.011 1.738 2.682.648 1.67.648 4.113v1.137h-13.455v-2.318h10.728q0-1.478-.591-2.637a4.47 4.47 0 0 0-1.659-1.829q-1.069-.67-2.523-.671-1.603 0-2.773.796a5.2 5.2 0 0 0-1.784 2.045 6 6 0 0 0-.625 2.705v1.545q0 1.977.682 3.352.693 1.365 1.92 2.08 1.228.705 2.853.705 1.057 0 1.909-.296a4.1 4.1 0 0 0 1.488-.909q.625-.614.966-1.523l2.591.728a5.75 5.75 0 0 1-1.375 2.318q-.966.988-2.386 1.545-1.421.546-3.193.546m28.443-23.637V407h-2.818v-20.318h-.137l-5.682 3.773v-2.864l5.819-3.864zM842.146 150v-23.273h7.864q2.739 0 4.477.989 1.75.977 2.591 2.648.841 1.67.841 3.727t-.841 3.739q-.83 1.682-2.568 2.681-1.738.989-4.455.989h-5.636V139h5.545q1.875 0 3.012-.648 1.136-.648 1.648-1.75.522-1.113.522-2.511t-.522-2.5q-.511-1.103-1.66-1.727-1.147-.637-3.045-.637h-4.955V150zm25.086.409q-1.66 0-3.012-.625a5.2 5.2 0 0 1-2.148-1.829q-.795-1.205-.795-2.91 0-1.5.591-2.431a4.17 4.17 0 0 1 1.579-1.478 8.3 8.3 0 0 1 2.182-.795q1.205-.273 2.421-.432 1.59-.204 2.579-.307 1-.112 1.455-.375.465-.261.466-.909v-.091q0-1.681-.921-2.613-.909-.933-2.761-.932-1.92 0-3.011.841-1.091.84-1.535 1.795l-2.545-.909q.683-1.591 1.818-2.477a6.8 6.8 0 0 1 2.5-1.25 10.4 10.4 0 0 1 2.682-.364q.841 0 1.932.205a6.2 6.2 0 0 1 2.125.807q1.033.613 1.716 1.852.681 1.239.682 3.318V150h-2.682v-2.364h-.137q-.272.568-.909 1.216-.636.648-1.693 1.103t-2.579.454m.409-2.409q1.59 0 2.681-.625 1.102-.625 1.66-1.614a4.1 4.1 0 0 0 .568-2.079v-2.455q-.171.206-.75.375a13 13 0 0 1-1.318.284q-.74.114-1.444.205-.693.08-1.125.136-1.045.137-1.954.443-.898.296-1.455.898-.545.591-.545 1.614 0 1.398 1.034 2.113 1.045.705 2.648.705m19.531 8.909q-1.944 0-3.341-.5-1.397-.488-2.33-1.295-.92-.796-1.465-1.705l2.136-1.5q.363.477.92 1.091.558.625 1.523 1.08.978.465 2.557.465 2.113 0 3.489-1.022 1.374-1.023 1.375-3.205v-3.545h-.228q-.295.477-.841 1.182-.534.693-1.545 1.238-1 .534-2.705.534-2.114 0-3.795-1-1.67-1-2.648-2.909-.966-1.91-.966-4.636 0-2.682.943-4.671.943-2 2.625-3.091 1.682-1.102 3.887-1.102 1.705 0 2.704.568 1.012.558 1.546 1.273.545.705.841 1.159h.272v-2.773h2.591V150.5q0 2.25-1.022 3.659-1.012 1.42-2.728 2.08-1.704.67-3.795.67m-.091-9.591q1.614 0 2.727-.738 1.114-.74 1.693-2.125.58-1.387.58-3.319 0-1.886-.568-3.329-.569-1.443-1.682-2.262-1.113-.818-2.75-.818-1.704 0-2.841.864-1.125.863-1.693 2.318-.557 1.455-.557 3.227 0 1.818.568 3.216.58 1.387 1.705 2.182 1.136.784 2.818.784m19.864 3.046q-2.523 0-4.353-1.114-1.818-1.125-2.806-3.136-.978-2.023-.978-4.705t.978-4.727q.988-2.057 2.75-3.205 1.772-1.158 4.136-1.159 1.364 0 2.693.455a6.7 6.7 0 0 1 2.421 1.477q1.09 1.011 1.738 2.682.648 1.67.648 4.113v1.137h-13.455v-2.318h10.728q0-1.478-.591-2.637a4.47 4.47 0 0 0-1.659-1.829q-1.069-.67-2.523-.671-1.603 0-2.773.796a5.2 5.2 0 0 0-1.784 2.045 6 6 0 0 0-.625 2.705v1.545q0 1.977.682 3.352.693 1.365 1.92 2.08 1.228.705 2.853.705 1.057 0 1.909-.296a4.1 4.1 0 0 0 1.488-.909q.625-.614.966-1.523l2.591.728a5.75 5.75 0 0 1-1.375 2.318q-.966.988-2.386 1.545-1.421.546-3.193.546m28.443-23.637V150h-2.818v-20.318h-.137l-5.682 3.773v-2.864l5.819-3.864zM315.599 663v-23.273h7.864q2.739 0 4.477.989 1.75.977 2.591 2.648.841 1.67.841 3.727t-.841 3.739q-.83 1.682-2.568 2.681-1.739.989-4.454.989h-5.637V652h5.546q1.874 0 3.011-.648t1.648-1.75q.522-1.113.522-2.511t-.522-2.5q-.512-1.103-1.659-1.727-1.149-.637-3.046-.637h-4.954V663zm25.086.409q-1.659 0-3.012-.625a5.17 5.17 0 0 1-2.147-1.829q-.796-1.204-.796-2.91 0-1.5.591-2.431a4.17 4.17 0 0 1 1.58-1.478 8.3 8.3 0 0 1 2.181-.795q1.205-.273 2.421-.432 1.59-.205 2.579-.307 1-.113 1.455-.375.466-.261.466-.909v-.091q0-1.682-.921-2.613-.909-.933-2.761-.932-1.92 0-3.011.841-1.092.84-1.534 1.795l-2.546-.909q.683-1.591 1.818-2.477a6.8 6.8 0 0 1 2.5-1.25 10.4 10.4 0 0 1 2.682-.364q.841 0 1.932.205a6.2 6.2 0 0 1 2.125.807q1.034.613 1.716 1.852t.682 3.318V663h-2.682v-2.364h-.137q-.271.568-.909 1.216-.636.648-1.693 1.103t-2.579.454m.409-2.409q1.59 0 2.682-.625 1.101-.626 1.659-1.614a4.1 4.1 0 0 0 .568-2.079v-2.455q-.171.205-.75.375a13 13 0 0 1-1.318.284q-.74.114-1.444.205-.693.08-1.125.136-1.045.137-1.954.443-.898.296-1.455.898-.545.591-.545 1.614 0 1.398 1.034 2.113 1.046.705 2.648.705m19.531 8.909q-1.943 0-3.341-.5-1.398-.489-2.329-1.295-.921-.796-1.466-1.705l2.136-1.5q.363.477.92 1.091.558.626 1.523 1.08.978.465 2.557.465 2.113 0 3.489-1.022 1.374-1.023 1.375-3.205v-3.545h-.228q-.295.477-.841 1.182-.534.693-1.545 1.238-1 .534-2.705.534-2.113 0-3.795-1-1.67-1-2.648-2.909-.966-1.91-.966-4.636 0-2.682.944-4.671.942-2 2.625-3.091 1.681-1.101 3.886-1.102 1.705 0 2.704.568 1.012.558 1.546 1.273.546.705.841 1.159h.273v-2.773h2.59V663.5q0 2.25-1.022 3.659-1.012 1.42-2.728 2.08-1.704.67-3.795.67m-.091-9.591q1.614 0 2.727-.738 1.114-.74 1.694-2.125.579-1.387.579-3.319 0-1.886-.568-3.329t-1.682-2.262q-1.113-.818-2.75-.818-1.704 0-2.841.864-1.125.864-1.693 2.318-.557 1.455-.557 3.227 0 1.818.568 3.216.58 1.387 1.705 2.182 1.136.784 2.818.784m19.864 3.046q-2.523 0-4.353-1.114-1.818-1.125-2.806-3.136-.978-2.023-.978-4.705t.978-4.727q.988-2.057 2.75-3.205 1.772-1.159 4.136-1.159 1.364 0 2.693.455a6.7 6.7 0 0 1 2.421 1.477q1.09 1.011 1.738 2.682.648 1.67.648 4.113v1.137H374.17v-2.318h10.728q0-1.477-.591-2.637a4.47 4.47 0 0 0-1.659-1.829q-1.068-.67-2.523-.671-1.602 0-2.773.796a5.23 5.23 0 0 0-1.784 2.045 6 6 0 0 0-.625 2.705v1.545q0 1.977.682 3.352.693 1.365 1.92 2.08 1.228.705 2.853.705 1.057 0 1.909-.296a4.1 4.1 0 0 0 1.488-.909q.625-.614.966-1.523l2.591.728a5.74 5.74 0 0 1-1.375 2.318q-.966.989-2.386 1.545-1.42.546-3.193.546m27.988-.046a8.7 8.7 0 0 1-2.863-.545q-1.432-.523-2.614-1.762-1.182-1.25-1.898-3.375-.716-2.136-.716-5.363 0-3.091.58-5.478.58-2.397 1.682-4.034 1.102-1.647 2.659-2.5 1.567-.852 3.534-.852 1.955 0 3.477.784a6.63 6.63 0 0 1 2.5 2.159q.966 1.387 1.25 3.193h-2.772q-.387-1.567-1.5-2.602-1.114-1.034-2.955-1.034-2.704 0-4.261 2.352-1.547 2.353-1.557 6.603h.182a6.83 6.83 0 0 1 3.466-2.716 6.8 6.8 0 0 1 2.261-.375q2 0 3.659 1 1.659.989 2.659 2.738 1 1.739 1 3.989 0 2.159-.966 3.955a7.35 7.35 0 0 1-2.716 2.84q-1.738 1.046-4.091 1.023m0-2.5q1.432 0 2.569-.716a5.1 5.1 0 0 0 1.806-1.92q.67-1.205.671-2.682 0-1.443-.648-2.625a4.94 4.94 0 0 0-1.761-1.898q-1.114-.704-2.546-.704-1.079 0-2.011.432a5.2 5.2 0 0 0-1.636 1.159 5.6 5.6 0 0 0-1.091 1.693 5.05 5.05 0 0 0-.398 1.988q0 1.387.648 2.591a5.34 5.34 0 0 0 1.795 1.944q1.148.738 2.602.738M446.849 663v-23.273h7.864q2.739 0 4.477.989 1.75.977 2.591 2.648.841 1.67.841 3.727t-.841 3.739q-.83 1.682-2.568 2.681-1.739.989-4.454.989h-5.637V652h5.546q1.874 0 3.011-.648t1.648-1.75q.522-1.113.522-2.511t-.522-2.5q-.511-1.103-1.659-1.727-1.149-.637-3.046-.637h-4.954V663zm25.086.409q-1.659 0-3.012-.625a5.17 5.17 0 0 1-2.147-1.829q-.796-1.204-.796-2.91 0-1.5.591-2.431a4.17 4.17 0 0 1 1.58-1.478 8.3 8.3 0 0 1 2.181-.795q1.205-.273 2.421-.432 1.59-.205 2.579-.307 1-.113 1.455-.375.466-.261.466-.909v-.091q0-1.682-.921-2.613-.909-.933-2.761-.932-1.92 0-3.011.841-1.092.84-1.534 1.795l-2.546-.909q.683-1.591 1.818-2.477a6.8 6.8 0 0 1 2.5-1.25 10.4 10.4 0 0 1 2.682-.364q.841 0 1.932.205a6.2 6.2 0 0 1 2.125.807q1.034.613 1.716 1.852t.682 3.318V663h-2.682v-2.364h-.137q-.271.568-.909 1.216-.636.648-1.693 1.103t-2.579.454m.409-2.409q1.59 0 2.682-.625 1.101-.626 1.659-1.614a4.1 4.1 0 0 0 .568-2.079v-2.455q-.171.205-.75.375a13 13 0 0 1-1.318.284q-.74.114-1.444.205-.693.08-1.125.136-1.045.137-1.954.443-.898.296-1.455.898-.545.591-.545 1.614 0 1.398 1.034 2.113 1.046.705 2.648.705m19.531 8.909q-1.943 0-3.341-.5-1.398-.489-2.329-1.295-.921-.796-1.466-1.705l2.136-1.5q.363.477.92 1.091.558.626 1.523 1.08.978.465 2.557.465 2.113 0 3.489-1.022 1.374-1.023 1.375-3.205v-3.545h-.228q-.295.477-.841 1.182-.534.693-1.545 1.238-1 .534-2.705.534-2.113 0-3.795-1-1.67-1-2.648-2.909-.966-1.91-.966-4.636 0-2.682.944-4.671.942-2 2.625-3.091 1.681-1.101 3.886-1.102 1.705 0 2.704.568 1.012.558 1.546 1.273.546.705.841 1.159h.273v-2.773h2.59V663.5q0 2.25-1.022 3.659-1.012 1.42-2.728 2.08-1.704.67-3.795.67m-.091-9.591q1.614 0 2.727-.738 1.114-.74 1.694-2.125.579-1.387.579-3.319 0-1.886-.568-3.329t-1.682-2.262q-1.113-.818-2.75-.818-1.704 0-2.841.864-1.125.864-1.693 2.318-.557 1.455-.557 3.227 0 1.818.568 3.216.58 1.387 1.705 2.182 1.136.784 2.818.784m19.864 3.046q-2.523 0-4.353-1.114-1.818-1.125-2.806-3.136-.978-2.023-.978-4.705t.978-4.727q.988-2.057 2.75-3.205 1.772-1.159 4.136-1.159 1.364 0 2.693.455a6.7 6.7 0 0 1 2.421 1.477q1.09 1.011 1.738 2.682.648 1.67.648 4.113v1.137H505.42v-2.318h10.728q0-1.477-.591-2.637a4.47 4.47 0 0 0-1.659-1.829q-1.068-.67-2.523-.671-1.602 0-2.773.796a5.23 5.23 0 0 0-1.784 2.045 6 6 0 0 0-.625 2.705v1.545q0 1.977.682 3.352.693 1.365 1.92 2.08 1.228.705 2.853.705 1.057 0 1.909-.296a4.1 4.1 0 0 0 1.488-.909q.625-.614.966-1.523l2.591.728a5.74 5.74 0 0 1-1.375 2.318q-.966.989-2.386 1.545-1.42.546-3.193.546m27.534-.046q-2 0-3.602-.795-1.603-.796-2.569-2.182t-1.056-3.159h2.727q.159 1.58 1.432 2.613 1.284 1.023 3.068 1.023 1.431 0 2.545-.67a4.74 4.74 0 0 0 1.762-1.841q.647-1.182.647-2.671 0-1.522-.67-2.716a4.9 4.9 0 0 0-1.818-1.897q-1.16-.693-2.648-.705a7.3 7.3 0 0 0-2.193.33q-1.125.33-1.852.852l-2.637-.318 1.409-11.455h12.091v2.5h-9.727l-.818 6.864h.136q.716-.568 1.796-.943a6.8 6.8 0 0 1 2.25-.375q2.136 0 3.806 1.022a7.15 7.15 0 0 1 2.637 2.773q.966 1.761.966 4.023 0 2.228-1 3.977a7.3 7.3 0 0 1-2.728 2.75q-1.738 1-3.954 1M577.318 663v-23.273h7.864q2.739 0 4.477.989 1.75.977 2.591 2.648.841 1.67.841 3.727t-.841 3.739q-.83 1.682-2.568 2.681-1.738.989-4.455.989h-5.636V652h5.545q1.875 0 3.012-.648 1.136-.648 1.647-1.75.523-1.113.523-2.511t-.523-2.5q-.51-1.103-1.659-1.727-1.148-.637-3.045-.637h-4.955V663zm25.085.409q-1.659 0-3.011-.625a5.2 5.2 0 0 1-2.148-1.829q-.795-1.204-.795-2.91 0-1.5.591-2.431a4.17 4.17 0 0 1 1.579-1.478 8.3 8.3 0 0 1 2.182-.795q1.204-.273 2.421-.432 1.59-.205 2.579-.307 1-.113 1.455-.375.466-.261.466-.909v-.091q0-1.682-.921-2.613-.909-.933-2.761-.932-1.92 0-3.012.841-1.09.84-1.534 1.795l-2.545-.909q.681-1.591 1.818-2.477a6.8 6.8 0 0 1 2.5-1.25 10.4 10.4 0 0 1 2.682-.364q.84 0 1.932.205a6.2 6.2 0 0 1 2.125.807q1.033.613 1.716 1.852.681 1.239.681 3.318V663h-2.681v-2.364h-.137q-.273.568-.909 1.216t-1.693 1.103q-1.057.454-2.58.454m.409-2.409q1.592 0 2.682-.625 1.103-.626 1.659-1.614a4.1 4.1 0 0 0 .569-2.079v-2.455q-.171.205-.75.375-.569.16-1.319.284-.738.114-1.443.205-.693.08-1.125.136-1.045.137-1.954.443-.899.296-1.455.898-.545.591-.545 1.614 0 1.398 1.034 2.113 1.045.705 2.647.705m19.532 8.909q-1.944 0-3.341-.5-1.397-.489-2.33-1.295-.92-.796-1.466-1.705l2.137-1.5q.363.477.92 1.091.557.626 1.523 1.08.977.465 2.557.465 2.114 0 3.488-1.022t1.375-3.205v-3.545h-.227q-.295.477-.841 1.182-.534.693-1.545 1.238-1 .534-2.705.534-2.114 0-3.795-1-1.67-1-2.648-2.909-.966-1.91-.966-4.636 0-2.682.943-4.671.943-2 2.625-3.091 1.682-1.101 3.887-1.102 1.705 0 2.704.568 1.011.558 1.546 1.273.545.705.841 1.159h.272v-2.773h2.591V663.5q0 2.25-1.023 3.659-1.011 1.42-2.727 2.08-1.704.67-3.795.67m-.091-9.591q1.614 0 2.727-.738 1.114-.74 1.693-2.125.58-1.387.58-3.319 0-1.886-.568-3.329-.569-1.443-1.682-2.262-1.114-.818-2.75-.818-1.705 0-2.841.864-1.125.864-1.693 2.318-.557 1.455-.557 3.227 0 1.818.568 3.216.58 1.387 1.705 2.182 1.136.784 2.818.784m19.863 3.046q-2.522 0-4.352-1.114-1.818-1.125-2.807-3.136-.977-2.023-.977-4.705t.977-4.727q.989-2.057 2.75-3.205 1.773-1.159 4.137-1.159 1.364 0 2.693.455a6.7 6.7 0 0 1 2.42 1.477q1.091 1.011 1.739 2.682.648 1.67.648 4.113v1.137h-13.455v-2.318h10.727q0-1.477-.59-2.637a4.46 4.46 0 0 0-1.66-1.829q-1.068-.67-2.522-.671-1.602 0-2.773.796a5.2 5.2 0 0 0-1.784 2.045 6 6 0 0 0-.625 2.705v1.545q0 1.977.682 3.352.693 1.365 1.92 2.08 1.227.705 2.852.705 1.057 0 1.91-.296a4.1 4.1 0 0 0 1.488-.909q.625-.614.966-1.523l2.591.728a5.75 5.75 0 0 1-1.375 2.318q-.966.989-2.386 1.545-1.42.546-3.194.546m19.716-5.137v-2.318l10.228-16.182h1.681v3.591h-1.136l-7.727 12.227v.182h13.773v2.5zM672.787 663v-23.273h2.682V663z"/><path stroke="#dbdbdb" stroke-width="2" d="M430 345v97"/><path fill="#fff" d="M708.396 663v-23.273h7.864q2.739 0 4.477.989 1.75.977 2.591 2.648.841 1.67.841 3.727t-.841 3.739q-.83 1.682-2.568 2.681-1.738.989-4.455.989h-5.636V652h5.545q1.875 0 3.012-.648 1.136-.648 1.648-1.75.522-1.113.522-2.511t-.522-2.5q-.511-1.103-1.66-1.727-1.147-.637-3.045-.637h-4.955V663zm25.086.409q-1.66 0-3.012-.625a5.2 5.2 0 0 1-2.148-1.829q-.795-1.204-.795-2.91 0-1.5.591-2.431a4.17 4.17 0 0 1 1.579-1.478 8.3 8.3 0 0 1 2.182-.795q1.205-.273 2.421-.432 1.59-.205 2.579-.307 1-.113 1.455-.375.465-.261.466-.909v-.091q0-1.682-.921-2.613-.909-.933-2.761-.932-1.92 0-3.011.841-1.091.84-1.535 1.795l-2.545-.909q.683-1.591 1.818-2.477a6.8 6.8 0 0 1 2.5-1.25 10.4 10.4 0 0 1 2.682-.364q.841 0 1.932.205a6.2 6.2 0 0 1 2.125.807q1.033.613 1.716 1.852.681 1.239.682 3.318V663H738.8v-2.364h-.137q-.272.568-.909 1.216-.636.648-1.693 1.103t-2.579.454m.409-2.409q1.59 0 2.681-.625 1.102-.626 1.66-1.614a4.1 4.1 0 0 0 .568-2.079v-2.455q-.171.205-.75.375a13 13 0 0 1-1.318.284q-.74.114-1.444.205-.693.08-1.125.136-1.045.137-1.954.443-.898.296-1.455.898-.545.591-.545 1.614 0 1.398 1.034 2.113 1.045.705 2.648.705m19.531 8.909q-1.944 0-3.341-.5-1.397-.489-2.33-1.295-.92-.796-1.465-1.705l2.136-1.5q.363.477.92 1.091.558.626 1.523 1.08.978.465 2.557.465 2.113 0 3.489-1.022 1.374-1.023 1.375-3.205v-3.545h-.228q-.295.477-.841 1.182-.534.693-1.545 1.238-1 .534-2.705.534-2.114 0-3.795-1-1.67-1-2.648-2.909-.966-1.91-.966-4.636 0-2.682.943-4.671.943-2 2.625-3.091 1.682-1.101 3.887-1.102 1.705 0 2.704.568 1.012.558 1.546 1.273.545.705.841 1.159h.272v-2.773h2.591V663.5q0 2.25-1.022 3.659-1.012 1.42-2.728 2.08-1.704.67-3.795.67m-.091-9.591q1.614 0 2.727-.738 1.114-.74 1.693-2.125.58-1.387.58-3.319 0-1.886-.568-3.329-.569-1.443-1.682-2.262-1.113-.818-2.75-.818-1.704 0-2.841.864-1.125.864-1.693 2.318-.557 1.455-.557 3.227 0 1.818.568 3.216.58 1.387 1.705 2.182 1.136.784 2.818.784m19.864 3.046q-2.523 0-4.353-1.114-1.818-1.125-2.806-3.136-.978-2.023-.978-4.705t.978-4.727q.988-2.057 2.75-3.205 1.772-1.159 4.136-1.159 1.364 0 2.693.455a6.7 6.7 0 0 1 2.421 1.477q1.09 1.011 1.738 2.682.648 1.67.648 4.113v1.137h-13.455v-2.318h10.728q0-1.477-.591-2.637a4.47 4.47 0 0 0-1.659-1.829q-1.069-.67-2.523-.671-1.603 0-2.773.796a5.2 5.2 0 0 0-1.784 2.045 6 6 0 0 0-.625 2.705v1.545q0 1.977.682 3.352.693 1.365 1.92 2.08 1.228.705 2.853.705 1.057 0 1.909-.296a4.1 4.1 0 0 0 1.488-.909q.625-.614.966-1.523l2.591.728a5.75 5.75 0 0 1-1.375 2.318q-.966.989-2.386 1.545-1.421.546-3.193.546m28.125-.046q-2.25 0-4.012-.773-1.749-.773-2.784-2.147-1.023-1.387-1.113-3.216h2.863q.091 1.125.773 1.943.681.807 1.784 1.25t2.443.443q1.5 0 2.659-.523 1.16-.522 1.818-1.454.66-.932.66-2.159 0-1.284-.637-2.262-.636-.989-1.863-1.545-1.229-.557-3-.557h-1.864v-2.5h1.864q1.386 0 2.431-.5 1.057-.5 1.648-1.409.602-.909.602-2.136 0-1.182-.522-2.057a3.6 3.6 0 0 0-1.478-1.364q-.942-.488-2.227-.488-1.205 0-2.273.443a4.24 4.24 0 0 0-1.727 1.261q-.67.819-.727 1.977h-2.727q.067-1.829 1.102-3.204 1.034-1.386 2.704-2.159 1.683-.773 3.694-.773 2.159 0 3.704.875 1.545.864 2.375 2.284t.83 3.068q0 1.966-1.034 3.353-1.023 1.386-2.785 1.92v.182q2.205.363 3.444 1.875 1.238 1.5 1.238 3.716 0 1.897-1.034 3.409-1.023 1.5-2.795 2.364t-4.034.863M839.896 663v-23.273h7.864q2.739 0 4.477.989 1.75.977 2.591 2.648.841 1.67.841 3.727t-.841 3.739q-.83 1.682-2.568 2.681-1.738.989-4.455.989h-5.636V652h5.545q1.875 0 3.012-.648 1.136-.648 1.648-1.75.522-1.113.522-2.511t-.522-2.5q-.511-1.103-1.66-1.727-1.147-.637-3.045-.637h-4.955V663zm25.086.409q-1.66 0-3.012-.625a5.2 5.2 0 0 1-2.148-1.829q-.795-1.204-.795-2.91 0-1.5.591-2.431a4.17 4.17 0 0 1 1.579-1.478 8.3 8.3 0 0 1 2.182-.795q1.205-.273 2.421-.432 1.59-.205 2.579-.307 1-.113 1.455-.375.465-.261.466-.909v-.091q0-1.682-.921-2.613-.909-.933-2.761-.932-1.92 0-3.011.841-1.091.84-1.535 1.795l-2.545-.909q.683-1.591 1.818-2.477a6.8 6.8 0 0 1 2.5-1.25 10.4 10.4 0 0 1 2.682-.364q.841 0 1.932.205a6.2 6.2 0 0 1 2.125.807q1.033.613 1.716 1.852.681 1.239.682 3.318V663H870.3v-2.364h-.137q-.272.568-.909 1.216-.636.648-1.693 1.103t-2.579.454m.409-2.409q1.59 0 2.681-.625 1.102-.626 1.66-1.614a4.1 4.1 0 0 0 .568-2.079v-2.455q-.171.205-.75.375a13 13 0 0 1-1.318.284q-.74.114-1.444.205-.693.08-1.125.136-1.045.137-1.954.443-.898.296-1.455.898-.545.591-.545 1.614 0 1.398 1.034 2.113 1.045.705 2.648.705m19.531 8.909q-1.944 0-3.341-.5-1.397-.489-2.33-1.295-.92-.796-1.465-1.705l2.136-1.5q.363.477.92 1.091.558.626 1.523 1.08.978.465 2.557.465 2.113 0 3.489-1.022 1.374-1.023 1.375-3.205v-3.545h-.228q-.295.477-.841 1.182-.534.693-1.545 1.238-1 .534-2.705.534-2.114 0-3.795-1-1.67-1-2.648-2.909-.966-1.91-.966-4.636 0-2.682.943-4.671.943-2 2.625-3.091 1.682-1.101 3.887-1.102 1.705 0 2.704.568 1.012.558 1.546 1.273.545.705.841 1.159h.272v-2.773h2.591V663.5q0 2.25-1.022 3.659-1.012 1.42-2.728 2.08-1.704.67-3.795.67m-.091-9.591q1.614 0 2.727-.738 1.114-.74 1.693-2.125.58-1.387.58-3.319 0-1.886-.568-3.329-.569-1.443-1.682-2.262-1.113-.818-2.75-.818-1.704 0-2.841.864-1.125.864-1.693 2.318-.557 1.455-.557 3.227 0 1.818.568 3.216.58 1.387 1.705 2.182 1.136.784 2.818.784m19.864 3.046q-2.523 0-4.353-1.114-1.818-1.125-2.806-3.136-.978-2.023-.978-4.705t.978-4.727q.988-2.057 2.75-3.205 1.772-1.159 4.136-1.159 1.364 0 2.693.455a6.7 6.7 0 0 1 2.421 1.477q1.09 1.011 1.738 2.682.648 1.67.648 4.113v1.137h-13.455v-2.318h10.728q0-1.477-.591-2.637a4.47 4.47 0 0 0-1.659-1.829q-1.069-.67-2.523-.671-1.603 0-2.773.796a5.2 5.2 0 0 0-1.784 2.045 6 6 0 0 0-.625 2.705v1.545q0 1.977.682 3.352.693 1.365 1.92 2.08 1.228.705 2.853.705 1.057 0 1.909-.296a4.1 4.1 0 0 0 1.488-.909q.625-.614.966-1.523l2.591.728a5.75 5.75 0 0 1-1.375 2.318q-.966.989-2.386 1.545-1.421.546-3.193.546m20.261-.364v-2.045l7.682-8.41a53 53 0 0 0 2.227-2.568q.874-1.102 1.296-2.068a5 5 0 0 0 .431-2.045q0-1.228-.591-2.125a3.83 3.83 0 0 0-1.59-1.387q-1.012-.488-2.273-.488-1.34 0-2.341.556a3.83 3.83 0 0 0-1.534 1.535q-.534.988-.534 2.318h-2.682q0-2.046.943-3.591a6.55 6.55 0 0 1 2.568-2.409q1.637-.864 3.671-.864 2.045 0 3.625.864 1.579.863 2.477 2.329t.898 3.262q0 1.284-.466 2.511-.455 1.216-1.591 2.716-1.125 1.488-3.125 3.636l-5.227 5.591v.182h10.818v2.5zM802.146 891v-23.273h7.864q2.739 0 4.477.989 1.75.977 2.591 2.648.841 1.67.841 3.727t-.841 3.739q-.83 1.682-2.568 2.681-1.738.989-4.455.989h-5.636V880h5.545q1.875 0 3.012-.648 1.136-.648 1.648-1.75.522-1.113.522-2.511t-.522-2.5q-.511-1.103-1.66-1.727-1.147-.637-3.045-.637h-4.955V891zm25.086.409q-1.66 0-3.012-.625a5.2 5.2 0 0 1-2.148-1.829q-.795-1.204-.795-2.91 0-1.5.591-2.431a4.17 4.17 0 0 1 1.579-1.478 8.3 8.3 0 0 1 2.182-.795q1.205-.273 2.421-.432 1.59-.205 2.579-.307 1-.113 1.455-.375.465-.261.466-.909v-.091q0-1.681-.921-2.613-.909-.932-2.761-.932-1.92 0-3.011.841-1.091.84-1.535 1.795l-2.545-.909q.683-1.591 1.818-2.477a6.8 6.8 0 0 1 2.5-1.25 10.4 10.4 0 0 1 2.682-.364q.841 0 1.932.205a6.2 6.2 0 0 1 2.125.807q1.033.613 1.716 1.852.681 1.239.682 3.318V891h-2.682v-2.364h-.137q-.272.568-.909 1.216-.636.648-1.693 1.103t-2.579.454m.409-2.409q1.59 0 2.681-.625 1.102-.626 1.66-1.614a4.1 4.1 0 0 0 .568-2.079v-2.455q-.171.205-.75.375a13 13 0 0 1-1.318.284q-.74.114-1.444.205-.693.08-1.125.136-1.045.137-1.954.443-.898.296-1.455.898-.545.591-.545 1.614 0 1.398 1.034 2.113 1.045.705 2.648.705m19.531 8.909q-1.944 0-3.341-.5-1.397-.489-2.33-1.295-.92-.796-1.465-1.705l2.136-1.5q.363.477.92 1.091.558.626 1.523 1.08.978.465 2.557.465 2.113 0 3.489-1.022 1.374-1.023 1.375-3.205v-3.545h-.228q-.295.477-.841 1.182-.534.693-1.545 1.238-1 .534-2.705.534-2.114 0-3.795-1-1.67-1-2.648-2.909-.966-1.91-.966-4.636 0-2.682.943-4.671.943-2 2.625-3.091 1.682-1.102 3.887-1.102 1.705 0 2.704.568 1.012.558 1.546 1.273.545.705.841 1.159h.272v-2.773h2.591V891.5q0 2.25-1.022 3.659-1.012 1.42-2.728 2.08-1.704.67-3.795.67m-.091-9.591q1.614 0 2.727-.738 1.114-.74 1.693-2.125.58-1.387.58-3.319 0-1.886-.568-3.329-.569-1.443-1.682-2.262-1.113-.818-2.75-.818-1.704 0-2.841.864-1.125.864-1.693 2.318-.557 1.455-.557 3.227 0 1.818.568 3.216.58 1.387 1.705 2.182 1.136.784 2.818.784m19.864 3.046q-2.523 0-4.353-1.114-1.818-1.125-2.806-3.136-.978-2.023-.978-4.705t.978-4.727q.988-2.057 2.75-3.205 1.772-1.159 4.136-1.159 1.364 0 2.693.455a6.7 6.7 0 0 1 2.421 1.477q1.09 1.011 1.738 2.682.648 1.67.648 4.113v1.137h-13.455v-2.318h10.728q0-1.477-.591-2.637a4.47 4.47 0 0 0-1.659-1.829q-1.069-.67-2.523-.671-1.603 0-2.773.796a5.2 5.2 0 0 0-1.784 2.045 6 6 0 0 0-.625 2.705v1.545q0 1.977.682 3.352.693 1.365 1.92 2.08 1.228.705 2.853.705 1.057 0 1.909-.296a4.1 4.1 0 0 0 1.488-.909q.625-.614.966-1.523l2.591.728a5.75 5.75 0 0 1-1.375 2.318q-.966.989-2.386 1.545-1.421.546-3.193.546m28.443-23.637V891h-2.818v-20.318h-.137l-5.682 3.773v-2.864l5.819-3.864z"/><path fill="#717171" d="M713.209 968v-23.273h7.863q2.728 0 4.478.932 1.75.92 2.591 2.534.84 1.613.841 3.671 0 2.057-.841 3.647-.842 1.591-2.58 2.5-1.739.898-4.443.898h-6.364v-2.545h6.273q1.863 0 3-.546 1.147-.545 1.659-1.545.523-1.012.523-2.409 0-1.398-.523-2.444-.522-1.045-1.67-1.613-1.149-.58-3.034-.58h-4.955V968zm10.954-10.455L729.891 968h-3.273l-5.636-10.455zm16.282 10.819q-2.523 0-4.353-1.114-1.818-1.125-2.806-3.136-.978-2.023-.978-4.705t.978-4.727q.988-2.057 2.75-3.205 1.772-1.159 4.136-1.159 1.364 0 2.693.455a6.7 6.7 0 0 1 2.421 1.477q1.09 1.011 1.738 2.682.648 1.67.648 4.113v1.137h-13.455v-2.318h10.728q0-1.477-.591-2.637a4.47 4.47 0 0 0-1.659-1.829q-1.069-.67-2.523-.671-1.603 0-2.773.796a5.2 5.2 0 0 0-1.784 2.045 6 6 0 0 0-.625 2.705v1.545q0 1.977.682 3.352.693 1.365 1.92 2.08 1.228.705 2.853.705 1.057 0 1.909-.296a4.1 4.1 0 0 0 1.488-.909q.625-.614.966-1.523l2.591.728a5.75 5.75 0 0 1-1.375 2.318q-.966.989-2.386 1.545-1.421.546-3.193.546m11.306-.364v-17.455h2.591v2.728h.228q.545-1.398 1.761-2.171 1.216-.784 2.92-.784 1.728 0 2.875.784 1.16.773 1.807 2.171h.182a5.1 5.1 0 0 1 2.011-2.148q1.341-.807 3.216-.807 2.341 0 3.83 1.466 1.489 1.455 1.489 4.534V968h-2.682v-11.682q0-1.932-1.057-2.761t-2.489-.83q-1.84 0-2.852 1.114-1.011 1.103-1.011 2.795V968h-2.728v-11.955q0-1.488-.966-2.397-.966-.921-2.488-.921a3.7 3.7 0 0 0-1.955.557 4.2 4.2 0 0 0-1.454 1.546q-.546.977-.546 2.261V968zm34.904.364q-2.364 0-4.148-1.125-1.773-1.125-2.773-3.148-.988-2.023-.988-4.727 0-2.728.988-4.762 1-2.034 2.773-3.159 1.784-1.125 4.148-1.125t4.136 1.125q1.785 1.125 2.773 3.159 1 2.034 1 4.762 0 2.704-1 4.727-.988 2.023-2.773 3.148-1.773 1.125-4.136 1.125m0-2.409q1.796 0 2.954-.921 1.16-.92 1.716-2.42.557-1.5.557-3.25t-.557-3.262q-.556-1.511-1.716-2.443-1.158-.932-2.954-.932-1.795 0-2.955.932-1.158.932-1.716 2.443-.556 1.512-.556 3.262t.556 3.25q.558 1.5 1.716 2.42 1.16.921 2.955.921m25.65-15.41L805.851 968h-2.727l-6.455-17.455h2.909l4.818 13.91h.182l4.818-13.91zm10.233 17.819q-2.522 0-4.352-1.114-1.818-1.125-2.807-3.136-.977-2.023-.977-4.705t.977-4.727q.989-2.057 2.75-3.205 1.773-1.159 4.137-1.159 1.363 0 2.693.455a6.7 6.7 0 0 1 2.42 1.477q1.091 1.011 1.739 2.682.648 1.67.648 4.113v1.137h-13.455v-2.318h10.727q0-1.477-.591-2.637a4.45 4.45 0 0 0-1.659-1.829q-1.068-.67-2.522-.671-1.603 0-2.773.796a5.2 5.2 0 0 0-1.784 2.045 6 6 0 0 0-.625 2.705v1.545q0 1.977.682 3.352.693 1.365 1.92 2.08 1.227.705 2.852.705 1.057 0 1.909-.296a4.1 4.1 0 0 0 1.489-.909q.625-.614.966-1.523l2.591.728a5.75 5.75 0 0 1-1.375 2.318q-.966.989-2.386 1.545-1.42.546-3.194.546m17.898 0q-2.182 0-3.852-1.103-1.67-1.114-2.614-3.136-.943-2.034-.943-4.807 0-2.75.943-4.773t2.625-3.125 3.887-1.102q1.704 0 2.693.568 1 .558 1.522 1.273.535.705.83 1.159h.227v-8.591h2.682V968h-2.591v-2.682h-.318q-.295.477-.841 1.205-.545.715-1.557 1.284-1.011.557-2.693.557m.364-2.409q1.613 0 2.727-.841 1.113-.853 1.693-2.353.58-1.51.58-3.488 0-1.954-.568-3.421-.569-1.478-1.682-2.295-1.114-.83-2.75-.83-1.705 0-2.841.875-1.125.864-1.693 2.353-.558 1.476-.557 3.318 0 1.863.568 3.386.58 1.512 1.705 2.409 1.136.887 2.818.887m29.693-15.41v2.273h-9.409v-2.273zM863.902 968v-19.864q0-1.5.705-2.5a4.37 4.37 0 0 1 1.829-1.5 5.8 5.8 0 0 1 2.375-.5q.988 0 1.614.159.624.16.932.296l-.773 2.318a14 14 0 0 0-.568-.17q-.353-.103-.932-.103-1.33 0-1.921.671-.579.67-.579 1.966V968zm10.349 0v-17.455h2.591v2.637h.182q.477-1.296 1.727-2.102 1.25-.807 2.819-.807.296 0 .738.011.443.012.671.034v2.727a9 9 0 0 0-.625-.102 6 6 0 0 0-1.012-.079q-1.272 0-2.272.534a4.03 4.03 0 0 0-1.569 1.454q-.568.921-.568 2.103V968zm18.466.364q-2.363 0-4.147-1.125-1.773-1.125-2.773-3.148-.989-2.023-.989-4.727 0-2.728.989-4.762 1-2.034 2.773-3.159 1.784-1.125 4.147-1.125t4.137 1.125q1.784 1.125 2.772 3.159 1 2.034 1 4.762 0 2.704-1 4.727-.988 2.023-2.772 3.148-1.773 1.125-4.137 1.125m0-2.409q1.796 0 2.955-.921 1.16-.92 1.716-2.42.557-1.5.557-3.25t-.557-3.262q-.556-1.511-1.716-2.443t-2.955-.932-2.954.932q-1.16.932-1.716 2.443-.557 1.512-.557 3.262t.557 3.25 1.716 2.42 2.954.921M904.72 968v-17.455h2.591v2.728h.227q.546-1.398 1.762-2.171 1.216-.784 2.92-.784 1.728 0 2.875.784 1.16.773 1.807 2.171h.182a5.1 5.1 0 0 1 2.011-2.148q1.341-.807 3.216-.807 2.341 0 3.83 1.466 1.488 1.455 1.488 4.534V968h-2.682v-11.682q0-1.932-1.056-2.761t-2.489-.83q-1.84 0-2.852 1.114-1.012 1.103-1.012 2.795V968h-2.727v-11.955q0-1.488-.966-2.397-.966-.921-2.488-.921a3.7 3.7 0 0 0-1.955.557 4.2 4.2 0 0 0-1.455 1.546q-.545.977-.545 2.261V968zm44.404-17.455v2.273h-9.046v-2.273zm-6.41-4.181h2.682V963q0 1.137.33 1.705.34.557.863.75a3.5 3.5 0 0 0 1.125.181q.444 0 .728-.045l.454-.091.546 2.409a6 6 0 0 1-.762.205q-.488.113-1.238.113-1.137 0-2.228-.488a4.4 4.4 0 0 1-1.795-1.489q-.705-1-.705-2.523zm13.5 11.136V968h-2.681v-23.273h2.681v8.546h.228a4.92 4.92 0 0 1 1.841-2.148q1.238-.807 3.295-.807 1.784 0 3.125.716 1.34.705 2.08 2.171.75 1.454.75 3.704V968h-2.682v-10.909q0-2.079-1.08-3.216-1.068-1.148-2.966-1.148-1.317 0-2.363.557a4.07 4.07 0 0 0-1.637 1.625q-.591 1.068-.591 2.591m23.543 10.864q-2.522 0-4.352-1.114-1.818-1.125-2.807-3.136-.978-2.023-.977-4.705 0-2.682.977-4.727.989-2.057 2.75-3.205 1.773-1.159 4.136-1.159 1.364 0 2.694.455a6.7 6.7 0 0 1 2.42 1.477q1.09 1.011 1.739 2.682.647 1.67.647 4.113v1.137H973.53v-2.318h10.727q0-1.477-.591-2.637a4.45 4.45 0 0 0-1.659-1.829q-1.068-.67-2.523-.671-1.602 0-2.772.796a5.2 5.2 0 0 0-1.784 2.045 6 6 0 0 0-.625 2.705v1.545q0 1.977.681 3.352.693 1.365 1.921 2.08 1.227.705 2.852.705 1.057 0 1.909-.296a4.1 4.1 0 0 0 1.489-.909 4.15 4.15 0 0 0 .966-1.523l2.591.728a5.75 5.75 0 0 1-1.375 2.318q-.966.989-2.387 1.545-1.42.546-3.193.546M698.67 1007.36c-1.636 0-3.045-.38-4.227-1.16-1.182-.77-2.091-1.83-2.727-3.19q-.954-2.026-.955-4.646 0-2.659.978-4.694.988-2.045 2.75-3.193 1.772-1.159 4.136-1.159 1.84 0 3.318.682a6.36 6.36 0 0 1 2.421 1.909q.943 1.227 1.17 2.864h-2.682q-.307-1.194-1.363-2.114-1.046-.932-2.819-.932-1.568 0-2.75.818-1.17.807-1.829 2.285-.648 1.466-.648 3.443c0 1.348.212 2.527.637 3.527.431 1 1.037 1.77 1.818 2.32.788.56 1.712.83 2.772.83q1.046 0 1.898-.36a3.9 3.9 0 0 0 1.443-1.04c.394-.46.675-1 .841-1.64h2.682a6.16 6.16 0 0 1-1.125 2.78c-.591.82-1.375 1.47-2.352 1.96-.97.47-2.099.71-3.387.71m15.921.05q-1.66 0-3.011-.63a5.1 5.1 0 0 1-2.148-1.83c-.53-.8-.796-1.77-.796-2.9 0-1 .197-1.82.591-2.436a4.2 4.2 0 0 1 1.58-1.478 8.3 8.3 0 0 1 2.182-.795 26 26 0 0 1 2.42-.432q1.591-.205 2.58-.307 1-.113 1.454-.375.466-.261.466-.909v-.091q0-1.681-.92-2.613-.91-.932-2.762-.932-1.92 0-3.011.841-1.091.84-1.534 1.795l-2.546-.909q.682-1.591 1.819-2.477a6.8 6.8 0 0 1 2.5-1.25 10.4 10.4 0 0 1 2.681-.364q.841 0 1.932.205a6.2 6.2 0 0 1 2.125.807q1.035.613 1.716 1.852.682 1.239.682 3.318v11.5h-2.682v-2.36h-.136c-.182.38-.485.78-.909 1.21s-.989.8-1.694 1.1c-.704.31-1.564.46-2.579.46M715 1005c1.061 0 1.955-.21 2.682-.62q1.102-.63 1.659-1.62c.379-.66.568-1.35.568-2.08v-2.453q-.171.205-.75.375a13 13 0 0 1-1.318.284q-.74.114-1.443.205-.693.08-1.125.136-1.046.137-1.955.443c-.598.197-1.083.5-1.454.9-.364.39-.546.93-.546 1.61 0 .93.345 1.64 1.034 2.12.697.47 1.58.7 2.648.7m19.577 2.36c-1.637 0-3.046-.38-4.228-1.16-1.181-.77-2.09-1.83-2.727-3.19q-.954-2.026-.954-4.646 0-2.659.977-4.694.989-2.045 2.75-3.193 1.772-1.159 4.136-1.159 1.842 0 3.318.682a6.36 6.36 0 0 1 2.421 1.909q.944 1.227 1.17 2.864h-2.681q-.308-1.194-1.364-2.114-1.045-.932-2.818-.932-1.568 0-2.75.818-1.17.807-1.83 2.285-.648 1.466-.648 3.443c0 1.348.213 2.527.637 3.527.432 1 1.038 1.77 1.818 2.32.788.56 1.712.83 2.773.83q1.045 0 1.897-.36c.569-.24 1.05-.59 1.444-1.04.394-.46.674-1 .841-1.64h2.681a6.16 6.16 0 0 1-1.125 2.78c-.591.82-1.375 1.47-2.352 1.96-.97.47-2.098.71-3.386.71m13.466-10.86v10.5h-2.682v-23.273h2.682v8.546h.227a4.93 4.93 0 0 1 1.841-2.148q1.239-.807 3.295-.807 1.785 0 3.125.716 1.34.705 2.08 2.171.75 1.454.75 3.704V1007h-2.682v-10.909q0-2.079-1.08-3.216-1.068-1.148-2.965-1.148-1.319 0-2.364.557a4.06 4.06 0 0 0-1.636 1.625q-.591 1.068-.591 2.591m23.542 10.86q-2.523 0-4.352-1.11c-1.212-.75-2.148-1.8-2.807-3.14-.651-1.34-.977-2.91-.977-4.701q0-2.682.977-4.727.989-2.057 2.75-3.205 1.773-1.159 4.136-1.159 1.364 0 2.694.455a6.7 6.7 0 0 1 2.42 1.477q1.09 1.011 1.739 2.682.648 1.67.647 4.113v1.137h-13.454v-2.318h10.727q0-1.477-.591-2.637a4.45 4.45 0 0 0-1.659-1.829q-1.068-.67-2.523-.671-1.602 0-2.772.796a5.2 5.2 0 0 0-1.784 2.045 6 6 0 0 0-.625 2.705v1.545c0 1.322.227 2.432.681 3.352.463.91 1.103 1.6 1.921 2.08.818.47 1.769.7 2.852.7.705 0 1.341-.09 1.909-.29a4.2 4.2 0 0 0 1.489-.91c.417-.41.739-.92.966-1.52l2.591.72a5.7 5.7 0 0 1-1.375 2.32c-.644.66-1.44 1.18-2.387 1.55q-1.42.54-3.193.54m27.898-17.815v2.273h-9.045v-2.273zm-6.409-4.181h2.682V1002c0 .76.11 1.33.329 1.7q.341.57.864.75c.356.13.731.19 1.125.19.295 0 .538-.02.727-.05q.285-.06.455-.09l.545 2.41c-.182.07-.435.14-.761.2q-.489.12-1.239.12c-.757 0-1.5-.17-2.227-.49a4.44 4.44 0 0 1-1.796-1.49q-.704-1.005-.704-2.52zm17.346 21.996c-1.575 0-2.958-.37-4.147-1.12q-1.773-1.125-2.773-3.15c-.659-1.35-.989-2.92-.989-4.726q0-2.728.989-4.762 1-2.034 2.773-3.159 1.784-1.125 4.147-1.125t4.137 1.125q1.783 1.125 2.773 3.159 1 2.034 1 4.762c0 1.806-.334 3.376-1 4.726q-.99 2.025-2.773 3.15c-1.182.75-2.561 1.12-4.137 1.12m0-2.41c1.197 0 2.182-.3 2.955-.92.773-.61 1.345-1.42 1.716-2.42q.557-1.499.557-3.246 0-1.75-.557-3.262-.557-1.511-1.716-2.443-1.16-.932-2.955-.932t-2.954.932q-1.16.932-1.716 2.443-.557 1.512-.557 3.262 0 1.747.557 3.246c.371 1 .943 1.81 1.716 2.42.773.62 1.757.92 2.954.92m21.003 2.05v-17.455h2.591v2.728h.227q.546-1.398 1.762-2.171 1.215-.784 2.92-.784 1.728 0 2.875.784 1.16.773 1.807 2.171h.182a5.1 5.1 0 0 1 2.011-2.148q1.341-.807 3.216-.807 2.341 0 3.83 1.466 1.488 1.455 1.488 4.534V1007h-2.681v-11.682q0-1.932-1.057-2.761t-2.489-.83q-1.84 0-2.852 1.114-1.011 1.103-1.012 2.795V1007h-2.727v-11.955q0-1.488-.966-2.397-.966-.921-2.488-.921a3.7 3.7 0 0 0-1.955.557 4.2 4.2 0 0 0-1.454 1.546q-.546.977-.546 2.261V1007zm32.949.41q-1.66 0-3.011-.63a5.1 5.1 0 0 1-2.148-1.83c-.53-.8-.795-1.77-.795-2.9 0-1 .197-1.82.591-2.436a4.16 4.16 0 0 1 1.579-1.478 8.3 8.3 0 0 1 2.182-.795q1.205-.273 2.42-.432 1.592-.205 2.58-.307 1-.113 1.454-.375.466-.261.466-.909v-.091q0-1.681-.92-2.613-.91-.932-2.761-.932-1.921 0-3.012.841-1.09.84-1.534 1.795l-2.545-.909q.681-1.591 1.818-2.477a6.8 6.8 0 0 1 2.5-1.25 10.4 10.4 0 0 1 2.682-.364q.84 0 1.931.205a6.2 6.2 0 0 1 2.125.807q1.035.613 1.716 1.852.682 1.239.682 3.318v11.5h-2.682v-2.36h-.136c-.182.38-.485.78-.909 1.21s-.989.8-1.693 1.1c-.705.31-1.565.46-2.58.46m.409-2.41c1.061 0 1.955-.21 2.682-.62q1.102-.63 1.659-1.62c.379-.66.568-1.35.568-2.08v-2.453q-.17.205-.75.375-.568.16-1.318.284-.738.114-1.443.205-.693.08-1.125.136-1.046.137-1.955.443c-.598.197-1.083.5-1.454.9-.364.39-.546.93-.546 1.61 0 .93.345 1.64 1.035 2.12.696.47 1.579.7 2.647.7m14.986-4.36-.045-3.322h.545l7.636-7.773h3.319l-8.137 8.228h-.227zm-2.5 6.36v-23.273h2.682V1007zm11.091 0-6.818-8.636 1.909-1.864 8.318 10.5zm12.915.36q-2.523 0-4.353-1.11c-1.212-.75-2.147-1.8-2.806-3.14-.652-1.34-.978-2.91-.978-4.701q0-2.682.978-4.727.988-2.057 2.75-3.205 1.772-1.159 4.136-1.159 1.364 0 2.693.455a6.7 6.7 0 0 1 2.421 1.477q1.09 1.011 1.738 2.682.648 1.67.648 4.113v1.137h-13.455v-2.318h10.728q0-1.477-.591-2.637a4.47 4.47 0 0 0-1.659-1.829q-1.068-.67-2.523-.671-1.602 0-2.773.796a5.23 5.23 0 0 0-1.784 2.045 6 6 0 0 0-.625 2.705v1.545c0 1.322.227 2.432.682 3.352.462.91 1.102 1.6 1.92 2.08.819.47 1.769.7 2.853.7.704 0 1.341-.09 1.909-.29a4.2 4.2 0 0 0 1.488-.91c.417-.41.739-.92.966-1.52l2.591.72a5.7 5.7 0 0 1-1.375 2.32c-.644.66-1.439 1.18-2.386 1.55q-1.42.54-3.193.54m32.67-13.905-2.409.681a4.5 4.5 0 0 0-.67-1.17q-.432-.58-1.182-.955t-1.921-.375q-1.602 0-2.67.739-1.057.727-1.057 1.852 0 1 .727 1.58.728.579 2.273.966l2.591.636q2.34.568 3.489 1.739c.765.772 1.147 1.772 1.147 2.992 0 1-.288 1.89-.863 2.68q-.852 1.185-2.387 1.86c-1.022.46-2.212.68-3.568.68-1.78 0-3.254-.38-4.42-1.16-1.167-.77-1.906-1.9-2.216-3.38l2.545-.64c.243.94.701 1.65 1.375 2.12.682.47 1.572.7 2.671.7 1.25 0 2.242-.27 2.977-.8.742-.53 1.114-1.18 1.114-1.93 0-.6-.212-1.11-.637-1.52q-.636-.63-1.954-.932l-2.909-.682q-2.398-.568-3.523-1.761-1.114-1.205-1.114-3.011 0-1.477.83-2.614.84-1.137 2.284-1.784 1.455-.648 3.295-.648 2.592 0 4.069 1.137 1.488 1.135 2.113 3m4.355 20.095v-24.005h2.591v2.773h.318q.296-.454.819-1.159.534-.715 1.522-1.273 1-.568 2.705-.568 2.205 0 3.886 1.102t2.625 3.125q.943 2.023.943 4.773 0 2.777-.943 4.802c-.629 1.35-1.5 2.4-2.613 3.14-1.114.74-2.398 1.1-3.853 1.1-1.121 0-2.019-.18-2.693-.55q-1.011-.57-1.557-1.29-.545-.72-.841-1.2h-.227v9.23zm2.637-15.277c0 1.318.193 2.477.579 3.487.387 1 .951 1.79 1.693 2.35q1.114.84 2.728.84c1.121 0 2.056-.29 2.806-.88.758-.6 1.326-1.4 1.705-2.41.386-1.02.58-2.145.58-3.387q0-1.842-.569-3.318-.556-1.49-1.693-2.353-1.125-.875-2.829-.875-1.637 0-2.75.83-1.114.817-1.682 2.295-.568 1.467-.568 3.421m22 9.137q-1.659 0-3.012-.63a5.1 5.1 0 0 1-2.147-1.83c-.531-.8-.796-1.77-.796-2.9 0-1 .197-1.82.591-2.436a4.17 4.17 0 0 1 1.58-1.478 8.3 8.3 0 0 1 2.181-.795q1.204-.273 2.421-.432 1.59-.205 2.579-.307 1-.113 1.455-.375.466-.261.466-.909v-.091q0-1.681-.921-2.613-.909-.932-2.761-.932-1.92 0-3.011.841-1.092.84-1.534 1.795l-2.546-.909q.683-1.591 1.818-2.477a6.8 6.8 0 0 1 2.5-1.25 10.4 10.4 0 0 1 2.682-.364q.841 0 1.932.205a6.2 6.2 0 0 1 2.125.807q1.034.613 1.716 1.852t.682 3.318v11.5h-2.682v-2.36h-.137c-.181.38-.484.78-.909 1.21-.424.43-.988.8-1.693 1.1-.704.31-1.564.46-2.579.46m.409-2.41c1.06 0 1.954-.21 2.682-.62q1.101-.63 1.659-1.62c.378-.66.568-1.35.568-2.08v-2.453q-.171.205-.75.375a13 13 0 0 1-1.318.284q-.74.114-1.444.205-.693.08-1.125.136-1.044.137-1.954.443c-.599.197-1.083.5-1.455.9-.363.39-.545.93-.545 1.61 0 .93.345 1.64 1.034 2.12.697.47 1.58.7 2.648.7m19.576 2.36c-1.636 0-3.045-.38-4.227-1.16-1.182-.77-2.091-1.83-2.727-3.19q-.954-2.026-.955-4.646 0-2.659.978-4.694.988-2.045 2.75-3.193 1.772-1.159 4.136-1.159 1.84 0 3.318.682a6.36 6.36 0 0 1 2.421 1.909q.943 1.227 1.17 2.864h-2.682q-.307-1.194-1.363-2.114-1.046-.932-2.819-.932-1.568 0-2.75.818-1.17.807-1.829 2.285-.648 1.466-.648 3.443c0 1.348.212 2.527.637 3.527.431 1 1.037 1.77 1.818 2.32.788.56 1.712.83 2.772.83q1.046 0 1.898-.36a3.9 3.9 0 0 0 1.443-1.04c.394-.46.675-1 .841-1.64h2.682a6.16 6.16 0 0 1-1.125 2.78c-.591.82-1.375 1.47-2.352 1.96-.97.47-2.099.71-3.387.71m18.1 0q-2.52 0-4.35-1.11c-1.212-.75-2.147-1.8-2.806-3.14-.652-1.34-.978-2.91-.978-4.701q0-2.682.978-4.727.988-2.057 2.75-3.205 1.772-1.159 4.136-1.159c.91 0 1.81.152 2.69.455.89.303 1.7.795 2.42 1.477q1.095 1.011 1.74 2.682c.43 1.113.65 2.485.65 4.113v1.137h-13.455v-2.318h10.725c0-.985-.19-1.864-.59-2.637a4.4 4.4 0 0 0-1.66-1.829q-1.065-.67-2.52-.671-1.602 0-2.773.796a5.23 5.23 0 0 0-1.784 2.045 6 6 0 0 0-.625 2.705v1.545c0 1.322.227 2.432.682 3.352.462.91 1.102 1.6 1.92 2.08.819.47 1.769.7 2.85.7.71 0 1.34-.09 1.91-.29.58-.21 1.07-.51 1.49-.91.42-.41.74-.92.97-1.52l2.59.72c-.28.88-.73 1.66-1.38 2.32-.64.66-1.44 1.18-2.38 1.55-.95.36-2.02.54-3.2.54"/><path stroke="#dbdbdb" stroke-width="2" d="M561 345v97M430 89v97M430 601v97M692 345v97M561 89v97M561 601v97M823 345v97"/><path stroke="#dbdbdb" stroke-linecap="round" stroke-linejoin="round" stroke-width="4" d="m942.763 828.984-22.97-.705.705-22.97M245.874 379.25l16.25 16.25-16.25 16.25"/><path stroke="#dbdbdb" stroke-width="5" d="M140 394h119"/><path stroke="#dbdbdb" stroke-width="2" d="M692 89v97M692 601v97M823 89v97M823 601v97"/><path stroke="#dbdbdb" stroke-width="4" d="M976.5 667.5C1066 711 995.583 780.515 920 827"/></svg>