<svg xmlns="http://www.w3.org/2000/svg" width="654" height="220" fill="none" viewBox="0 0 654 220"><rect width="118" height="118" x="1" y="90" stroke="#dbdbdb" stroke-width="2" rx="26"/><rect width="118" height="118" x="203" y="90" stroke="#dbdbdb" stroke-width="2" rx="26"/><path fill="#fff" d="M37.902 164v-2.557l9.602-10.511a67 67 0 0 0 2.784-3.21q1.095-1.379 1.62-2.586.54-1.221.54-2.556 0-1.535-.74-2.657-.723-1.121-1.988-1.733-1.265-.61-2.84-.61-1.677 0-2.927.696a4.8 4.8 0 0 0-1.918 1.917q-.667 1.236-.667 2.898h-3.352q0-2.557 1.179-4.489a8.2 8.2 0 0 1 3.21-3.011q2.046-1.08 4.588-1.08 2.557 0 4.531 1.08t3.097 2.912 1.122 4.077q0 1.605-.583 3.139-.567 1.52-1.988 3.395-1.407 1.86-3.906 4.545l-6.535 6.989v.227h13.523V164zm33.707.398q-3.21 0-5.468-1.747-2.26-1.762-3.452-5.1-1.193-3.353-1.193-8.096 0-4.716 1.193-8.054 1.207-3.353 3.466-5.114 2.273-1.776 5.454-1.776 3.183 0 5.44 1.776 2.274 1.761 3.467 5.114 1.207 3.338 1.207 8.054 0 4.743-1.193 8.096-1.194 3.338-3.452 5.1-2.259 1.746-5.469 1.747m0-3.125q3.183 0 4.944-3.068 1.76-3.07 1.76-8.75 0-3.779-.809-6.435-.795-2.656-2.3-4.048-1.492-1.392-3.595-1.392-3.153 0-4.929 3.11-1.775 3.097-1.775 8.765 0 3.778.795 6.42.796 2.642 2.287 4.02 1.506 1.377 3.622 1.378M250.998 158.034v-2.898l12.784-20.227h2.102v4.489h-1.421l-9.659 15.284v.227h17.216v3.125zM264.691 164v-29.091h3.352V164zM12.553 14.98V9.91h23.892v5.07H27.54V39h-6.08V14.98zM46.96 39.426q-3.309 0-5.724-1.406-2.4-1.42-3.708-3.949-1.305-2.543-1.306-5.895 0-3.38 1.306-5.909 1.307-2.542 3.708-3.949 2.415-1.42 5.724-1.42t5.71 1.42q2.414 1.407 3.722 3.949 1.307 2.528 1.307 5.91 0 3.351-1.307 5.894-1.307 2.529-3.722 3.949-2.4 1.406-5.71 1.406m.029-4.687q1.505 0 2.514-.853 1.008-.866 1.52-2.358.525-1.49.525-3.394t-.525-3.395q-.512-1.492-1.52-2.358t-2.514-.867q-1.52 0-2.557.867-1.023.866-1.549 2.358-.51 1.491-.51 3.395 0 1.902.51 3.394.526 1.492 1.549 2.358 1.036.853 2.557.853m26.25-17.557v4.545h-13.14v-4.545zm-10.157-5.227h6.051v20.34q0 .84.256 1.307.255.454.71.64.47.184 1.08.184.426 0 .852-.07.426-.086.654-.129l.951 4.503q-.454.143-1.278.327-.825.199-2.003.241-2.187.085-3.835-.582-1.635-.667-2.543-2.074t-.895-3.551zm20.32 27.457q-2.088 0-3.722-.724-1.633-.739-2.585-2.174-.937-1.449-.937-3.608 0-1.818.667-3.054a5.4 5.4 0 0 1 1.819-1.988 8.8 8.8 0 0 1 2.613-1.137 20 20 0 0 1 3.097-.54 79 79 0 0 0 3.068-.369q1.165-.184 1.69-.54.525-.355.526-1.05v-.086q0-1.35-.853-2.088-.838-.739-2.386-.739-1.633 0-2.6.725-.965.71-1.278 1.79l-5.596-.455q.426-1.99 1.676-3.437 1.25-1.464 3.224-2.245 1.989-.795 4.603-.795 1.818 0 3.48.426 1.676.426 2.968 1.32a6.4 6.4 0 0 1 2.06 2.302q.753 1.392.753 3.338V39H89.95v-3.026h-.17a6.2 6.2 0 0 1-1.406 1.804q-.88.767-2.117 1.208-1.236.426-2.855.426m1.733-4.176q1.335 0 2.358-.526a4.2 4.2 0 0 0 1.605-1.449q.582-.909.582-2.06v-2.315q-.284.185-.78.341-.484.142-1.095.27-.61.114-1.221.213l-1.108.156q-1.065.157-1.86.498t-1.237.923q-.44.568-.44 1.42 0 1.236.895 1.89.91.639 2.3.639m21.3-25.327V39h-6.051V9.91zM216.767 39V9.91h6.15v24.019h12.472V39zm22.581 0V17.182h6.052V39zm3.04-24.63q-1.349 0-2.315-.896-.952-.909-.952-2.173 0-1.25.952-2.145.966-.909 2.315-.909 1.35 0 2.301.91.966.893.966 2.144 0 1.264-.966 2.173-.951.895-2.301.895M250.247 39V17.182h5.767v3.85h.256q.682-1.92 2.272-3.026 1.591-1.108 3.807-1.108 2.244 0 3.821 1.122 1.577 1.108 2.102 3.011h.228q.668-1.875 2.414-2.997 1.762-1.136 4.162-1.136 3.054 0 4.958 1.946 1.917 1.932 1.917 5.483V39h-6.037V25.52q0-1.818-.965-2.727-.966-.91-2.415-.91-1.649 0-2.571 1.052-.924 1.036-.924 2.741V39h-5.866V25.392q0-1.605-.923-2.557-.91-.951-2.401-.951-1.008 0-1.818.51-.795.498-1.264 1.407-.47.896-.469 2.102V39zm36.484 0V17.182h6.051V39zm3.04-24.63q-1.35 0-2.315-.896-.952-.909-.952-2.173 0-1.25.952-2.145.966-.909 2.315-.909 1.35 0 2.301.91.966.893.966 2.144 0 1.264-.966 2.173-.951.895-2.301.895m19.464 2.812v4.545h-13.139v-4.545zm-10.157-5.227h6.052v20.34q0 .84.255 1.307.256.454.711.64.468.184 1.079.184.426 0 .852-.07.426-.086.654-.129l.951 4.503q-.454.143-1.278.327-.824.199-2.003.241-2.188.085-3.835-.582-1.634-.667-2.543-2.074t-.895-3.551zM392.751 39V9.91h6.151v24.019h12.471V39zm22.582 0V17.182h6.051V39zm3.04-24.63q-1.35 0-2.316-.896-.952-.909-.952-2.173 0-1.25.952-2.145.966-.909 2.316-.909t2.301.91q.966.893.966 2.144 0 1.264-.966 2.173-.952.895-2.301.895M426.231 39V17.182h5.767v3.85h.256q.681-1.92 2.273-3.026 1.59-1.108 3.806-1.108 2.245 0 3.821 1.122 1.577 1.108 2.103 3.011h.227q.667-1.875 2.415-2.997 1.76-1.136 4.162-1.136 3.054 0 4.957 1.946 1.918 1.932 1.918 5.483V39h-6.037V25.52q0-1.818-.966-2.727-.966-.91-2.415-.91-1.647 0-2.571 1.052-.923 1.036-.923 2.741V39h-5.867V25.392q0-1.605-.923-2.557-.909-.951-2.401-.951-1.008 0-1.818.51-.795.498-1.264 1.407-.468.896-.469 2.102V39zm36.485 0V17.182h6.051V39zm3.039-24.63q-1.349 0-2.315-.896-.952-.909-.952-2.173 0-1.25.952-2.145.966-.909 2.315-.909 1.35 0 2.301.91.966.893.966 2.144 0 1.264-.966 2.173-.951.895-2.301.895m19.464 2.812v4.545H472.08v-4.545zm-10.156-5.227h6.051v20.34q0 .84.256 1.307.255.454.71.64.468.184 1.079.184.427 0 .853-.07.426-.086.653-.129l.952 4.503q-.454.143-1.279.327-.823.199-2.002.241-2.188.085-3.836-.582-1.633-.667-2.542-2.074-.91-1.406-.895-3.551zm27.365 13.01v-3.067h17.5v3.068zm0 8.41v-3.068h17.5v3.068zm44.208.795 8.977-24.26h4.006L548.625 39h-2.557zm-3.068-10.568 3.92 10.568.739 4.83h-2.557l-6.079-15.398zm-6.477 3.125v-3.125h6.363v3.125zm25.688-13.693V9.91h21.819v3.125h-9.148V39h-3.523V13.034zm32.5 26.42q-2.954 0-5.184-1.406-2.216-1.406-3.466-3.934-1.236-2.529-1.236-5.91 0-3.408 1.236-5.951 1.25-2.543 3.466-3.949 2.23-1.406 5.184-1.406t5.171 1.406q2.23 1.407 3.466 3.949 1.25 2.543 1.25 5.951 0 3.381-1.25 5.91-1.236 2.528-3.466 3.934-2.216 1.407-5.171 1.407m0-3.01q2.245 0 3.694-1.151 1.449-1.15 2.145-3.026t.696-4.063-.696-4.076-2.145-3.054-3.694-1.165-3.693 1.165q-1.449 1.164-2.145 3.054t-.696 4.076q0 2.188.696 4.063t2.145 3.026q1.449 1.15 3.693 1.15m24.493-19.262v2.84h-11.307v-2.84zm-8.012-5.227h3.353V32.75q0 1.42.412 2.13.426.697 1.079.938.668.227 1.406.227.555 0 .909-.056l.569-.114.681 3.011q-.34.128-.951.256-.612.142-1.549.142a6.75 6.75 0 0 1-2.784-.61 5.54 5.54 0 0 1-2.244-1.861q-.88-1.25-.881-3.154zm19.475 27.556q-2.075 0-3.764-.78-1.69-.797-2.685-2.288-.994-1.506-.994-3.636 0-1.875.738-3.04a5.2 5.2 0 0 1 1.975-1.846 10.4 10.4 0 0 1 2.727-.995 33 33 0 0 1 3.025-.54q1.989-.255 3.225-.383 1.25-.142 1.818-.469.582-.326.582-1.136v-.114q0-2.101-1.15-3.267-1.137-1.165-3.452-1.165-2.4 0-3.764 1.051-1.363 1.052-1.918 2.245l-3.181-1.137q.852-1.988 2.272-3.096a8.5 8.5 0 0 1 3.125-1.563 13 13 0 0 1 3.353-.454q1.05 0 2.414.255a7.7 7.7 0 0 1 2.657 1.009q1.292.767 2.144 2.315t.853 4.148V39h-3.353v-2.955h-.17q-.34.71-1.136 1.52t-2.117 1.378-3.224.568m.511-3.011q1.989 0 3.352-.781 1.378-.781 2.074-2.017.71-1.236.71-2.6v-3.068q-.213.256-.937.469a16 16 0 0 1-1.648.355q-.923.142-1.804.256-.866.1-1.406.17-1.307.17-2.443.554-1.122.369-1.818 1.122-.682.74-.682 2.017 0 1.748 1.292 2.642 1.308.88 3.31.881m18.96-26.59V39h-3.353V9.91zM392.607 125V95.91h6.15v24.019h12.472V125zm22.581 0v-21.818h6.051V125zm3.04-24.631q-1.35 0-2.315-.895-.952-.909-.952-2.173 0-1.25.952-2.145.966-.909 2.315-.909 1.35 0 2.301.91.966.893.966 2.144 0 1.264-.966 2.173-.951.895-2.301.895M426.087 125v-21.818h5.767v3.849h.255q.682-1.918 2.273-3.025 1.591-1.108 3.807-1.108 2.244 0 3.821 1.122 1.577 1.108 2.102 3.011h.227q.668-1.875 2.415-2.997 1.762-1.136 4.162-1.136 3.054 0 4.958 1.946 1.917 1.931 1.917 5.483V125h-6.037v-13.48q0-1.818-.966-2.727t-2.414-.909q-1.649 0-2.571 1.051-.924 1.037-.924 2.741V125h-5.866v-13.608q0-1.605-.924-2.557-.909-.951-2.4-.951-1.008 0-1.818.511-.796.497-1.264 1.406-.47.895-.469 2.102V125zm36.484 0v-21.818h6.051V125zm3.04-24.631q-1.35 0-2.316-.895-.951-.909-.951-2.173 0-1.25.951-2.145.966-.909 2.316-.909 1.348 0 2.301.91.966.893.966 2.144 0 1.264-.966 2.173-.953.895-2.301.895m19.464 2.813v4.545h-13.14v-4.545zm-10.157-5.228h6.051v20.341q0 .839.256 1.307.256.455.71.639.47.186 1.08.185.426 0 .852-.071.426-.085.654-.128l.951 4.503q-.454.142-1.278.327-.824.198-2.003.241-2.188.085-3.835-.582-1.634-.667-2.543-2.074t-.895-3.551zm27.365 13.012v-3.068h17.5v3.068zm0 8.409v-3.068h17.5v3.068zm44.208.795 8.978-24.26h4.005L548.48 125h-2.557zm-3.068-10.568 3.921 10.568.738 4.83h-2.556l-6.08-15.398zm-6.477 3.125v-3.125h6.364v3.125zM563.714 125v-2.557l9.603-10.511a67 67 0 0 0 2.784-3.21q1.094-1.378 1.619-2.586.54-1.221.54-2.556 0-1.535-.739-2.657-.725-1.122-1.988-1.733-1.264-.61-2.841-.61-1.677 0-2.926.696a4.8 4.8 0 0 0-1.918 1.917q-.668 1.236-.668 2.898h-3.352q0-2.557 1.179-4.489a8.2 8.2 0 0 1 3.21-3.011q2.046-1.08 4.588-1.08 2.557 0 4.532 1.08 1.974 1.08 3.096 2.912t1.122 4.077q0 1.605-.582 3.139-.569 1.52-1.989 3.395-1.405 1.86-3.906 4.545l-6.534 6.989v.227h13.523V125zm33.708.398q-3.21 0-5.469-1.747-2.258-1.762-3.452-5.1-1.193-3.353-1.193-8.096 0-4.716 1.193-8.054 1.208-3.353 3.466-5.114 2.273-1.776 5.455-1.776t5.44 1.776q2.273 1.761 3.466 5.114 1.208 3.338 1.208 8.054 0 4.743-1.194 8.096-1.193 3.338-3.451 5.1-2.259 1.746-5.469 1.747m0-3.125q3.182 0 4.943-3.068 1.761-3.07 1.761-8.75 0-3.778-.809-6.435-.796-2.656-2.301-4.048-1.492-1.392-3.594-1.392-3.153 0-4.929 3.11-1.776 3.097-1.776 8.765 0 3.778.796 6.42.795 2.642 2.287 4.02 1.506 1.378 3.622 1.378M393.001 211v-29.091h6.151v24.02h12.471V211zm22.582 0v-21.818h6.051V211zm3.04-24.631q-1.35 0-2.316-.895-.952-.909-.952-2.173 0-1.25.952-2.145.966-.909 2.316-.909t2.301.909q.966.895.966 2.145 0 1.264-.966 2.173-.952.895-2.301.895M426.481 211v-21.818h5.767v3.849h.256q.681-1.918 2.273-3.025 1.59-1.108 3.806-1.108 2.245 0 3.821 1.122 1.577 1.108 2.103 3.011h.227q.667-1.875 2.415-2.997 1.76-1.136 4.162-1.136 3.054 0 4.957 1.946 1.918 1.931 1.918 5.483V211h-6.037v-13.48q0-1.818-.966-2.727t-2.415-.909q-1.647 0-2.571 1.051-.923 1.037-.923 2.741V211h-5.867v-13.608q0-1.605-.923-2.557-.909-.951-2.401-.951-1.008 0-1.818.511-.795.497-1.264 1.406-.468.895-.469 2.102V211zm36.485 0v-21.818h6.051V211zm3.039-24.631q-1.349 0-2.315-.895-.952-.909-.952-2.173 0-1.25.952-2.145.966-.909 2.315-.909 1.35 0 2.301.909.966.895.966 2.145 0 1.264-.966 2.173-.951.895-2.301.895m19.464 2.813v4.545H472.33v-4.545zm-10.156-5.227h6.051v20.34q0 .839.256 1.307.255.455.71.639.468.185 1.079.185.427 0 .853-.071.426-.085.653-.128l.952 4.503q-.454.142-1.279.327-.823.198-2.002.241-2.188.085-3.836-.582-1.633-.667-2.542-2.074-.91-1.406-.895-3.551zm26.229 11.079q-.029-2.358.767-3.793.809-1.434 2.102-2.088a6.1 6.1 0 0 1 2.756-.653q1.448 0 2.627.653 1.194.64 2.77 1.961 1.066.894 1.676 1.278.625.369 1.392.369 1.236 0 1.946-.88.711-.88.668-2.586h3.068q.057 2.359-.753 3.793-.809 1.436-2.116 2.088a6.1 6.1 0 0 1-2.756.654q-1.448 0-2.642-.611-1.193-.626-2.755-2.003-1.023-.895-1.662-1.264a2.7 2.7 0 0 0-1.407-.384q-1.15 0-1.903.796-.753.795-.71 2.67zm0 8.58q-.029-2.359.767-3.793.809-1.434 2.102-2.088a6.1 6.1 0 0 1 2.756-.653q1.448 0 2.627.653 1.194.639 2.77 1.96 1.066.895 1.676 1.279.625.369 1.392.369 1.236 0 1.946-.881.711-.88.668-2.585h3.068q.057 2.358-.753 3.793-.809 1.434-2.116 2.088a6.1 6.1 0 0 1-2.756.653q-1.448 0-2.642-.611-1.193-.624-2.755-2.003-1.023-.894-1.662-1.264a2.7 2.7 0 0 0-1.407-.383q-1.15 0-1.903.795-.753.796-.71 2.671zm36.651 1.42v-2.898l12.784-20.227h2.102v4.489h-1.42L542 201.682v.227h17.216v3.125zM551.886 211v-29.091h3.352V211z"/></svg>