<svg xmlns="http://www.w3.org/2000/svg" width="1101" height="488" fill="none" viewBox="0 0 1101 488"><mask id="a" fill="#fff"><path d="M48 151h1005v222H48z"/></mask><path fill="#292929" d="M48 151h1005v222H48z"/><path fill="#717171" d="M1053 373v1h1v-1zM48 373h-1v1h1zm1005-222h-1v222h2V151zm0 222v-1H48v2h1005zM48 373h1V151h-2v222z" mask="url(#a)"/><path stroke="#3e3e3e" d="M144.5 151v222M245.5 151v222M346.5 151v222M447.5 151v222M548.5 151v222M649.5 151v222M750.5 151v222M851.5 151v222M952.5 151v222"/><path fill="#fff" d="M48 91.318q-2.568 0-4.375-1.397-1.807-1.41-2.761-4.08-.955-2.682-.955-6.477 0-3.773.955-6.443.966-2.682 2.772-4.092 1.818-1.42 4.364-1.42t4.352 1.42q1.819 1.41 2.773 4.092.966 2.67.966 6.443 0 3.795-.955 6.477-.954 2.67-2.761 4.08-1.807 1.397-4.375 1.397m0-2.5q2.545 0 3.955-2.454 1.409-2.455 1.409-7 0-3.023-.648-5.148-.636-2.125-1.841-3.239-1.193-1.113-2.875-1.113-2.523 0-3.943 2.488-1.42 2.478-1.42 7.012 0 3.023.636 5.136t1.83 3.216q1.203 1.102 2.897 1.102M249.02 88V70.546h2.114v7.772h9.306v-7.772h2.114V88h-2.114v-7.807h-9.306V88zm22.981.273q-1.892 0-3.264-.835-1.364-.844-2.105-2.353-.733-1.516-.733-3.528t.733-3.546q.741-1.543 2.063-2.403 1.329-.87 3.102-.87 1.023 0 2.02.341t1.815 1.109q.819.758 1.304 2.01.486 1.254.486 3.086v.852h-10.091v-1.738h8.045q0-1.109-.443-1.977a3.34 3.34 0 0 0-1.244-1.373q-.801-.502-1.892-.502-1.201 0-2.08.596a3.93 3.93 0 0 0-1.338 1.534 4.5 4.5 0 0 0-.468 2.028v1.16q0 1.482.511 2.514.52 1.022 1.44 1.56.921.528 2.139.528.793 0 1.432-.222a3.1 3.1 0 0 0 1.117-.681q.469-.46.724-1.142l1.943.545a4.3 4.3 0 0 1-1.031 1.739 5 5 0 0 1-1.79 1.159q-1.065.409-2.395.409m12.333.034q-1.245 0-2.259-.469a3.9 3.9 0 0 1-1.611-1.372q-.596-.904-.596-2.182 0-1.125.443-1.824.443-.706 1.185-1.108a6.2 6.2 0 0 1 1.636-.596 20 20 0 0 1 1.815-.324 82 82 0 0 1 1.935-.23q.75-.085 1.091-.281.35-.197.349-.682v-.069q0-1.26-.69-1.96-.681-.699-2.071-.699-1.44 0-2.258.631-.818.63-1.151 1.347l-1.909-.682q.511-1.194 1.364-1.858a5.1 5.1 0 0 1 1.875-.938 7.8 7.8 0 0 1 2.011-.272q.63 0 1.449.153a4.6 4.6 0 0 1 1.594.605q.776.46 1.286 1.39.512.928.512 2.488V88h-2.012v-1.773h-.102q-.204.426-.682.912-.477.486-1.27.827-.792.34-1.934.34m.307-1.807q1.193 0 2.011-.469.827-.468 1.244-1.21a3.1 3.1 0 0 0 .426-1.56v-1.84q-.127.153-.562.28-.426.12-.989.214-.554.086-1.082.153-.52.06-.844.103a7.7 7.7 0 0 0-1.466.332q-.673.222-1.091.673-.409.444-.409 1.21 0 1.05.776 1.586.784.528 1.986.528m14.307 1.773q-1.636 0-2.889-.827-1.253-.835-1.96-2.352-.708-1.526-.708-3.605 0-2.062.708-3.58.707-1.517 1.968-2.344 1.262-.826 2.915-.826 1.28 0 2.02.426.75.417 1.142.954.401.529.622.87h.171v-6.443h2.011V88h-1.943v-2.011h-.239q-.221.358-.63.903-.41.537-1.168.963-.759.418-2.02.418m.273-1.807q1.21 0 2.045-.63.835-.64 1.27-1.765.435-1.134.435-2.617 0-1.465-.426-2.565-.426-1.107-1.262-1.721-.835-.623-2.062-.623-1.279 0-2.131.657-.844.647-1.27 1.764-.417 1.108-.417 2.489 0 1.397.426 2.54.435 1.132 1.278 1.806.852.665 2.114.665m17.156-7.193q0-3.221.835-5.924a18.5 18.5 0 0 1 2.404-4.985h1.772q-.613.843-1.15 2.08a20 20 0 0 0-.929 2.7 26 26 0 0 0-.631 3.035 22 22 0 0 0-.221 3.094q0 2.028.392 4.116a23.6 23.6 0 0 0 1.057 3.878q.665 1.79 1.482 2.915h-1.772a18.5 18.5 0 0 1-2.404-4.978q-.834-2.709-.835-5.931m13.4 8.966q-1.5 0-2.702-.597a5 5 0 0 1-1.926-1.636 4.45 4.45 0 0 1-.792-2.37h2.045q.12 1.186 1.074 1.96.963.768 2.301.768 1.074 0 1.909-.503a3.54 3.54 0 0 0 1.321-1.38q.486-.888.486-2.004 0-1.141-.503-2.037a3.7 3.7 0 0 0-1.364-1.423q-.869-.52-1.985-.528a5.5 5.5 0 0 0-1.645.247q-.845.248-1.389.639l-1.978-.239 1.057-8.59h9.068v1.874h-7.295l-.614 5.148h.102q.537-.426 1.347-.707a5.1 5.1 0 0 1 1.688-.282q1.602 0 2.855.768a5.35 5.35 0 0 1 1.977 2.08q.724 1.32.724 3.016 0 1.67-.75 2.983a5.5 5.5 0 0 1-2.045 2.063q-1.304.75-2.966.75m15.045 0q-1.687 0-3.009-.58-1.312-.58-2.088-1.61-.767-1.04-.835-2.413h2.148q.067.844.579 1.458.512.605 1.338.937a4.9 4.9 0 0 0 1.833.333q1.125 0 1.994-.392.87-.393 1.364-1.091.494-.699.494-1.62 0-.963-.477-1.696-.478-.74-1.398-1.159-.921-.417-2.25-.417h-1.398v-1.875h1.398q1.04 0 1.824-.375.792-.376 1.236-1.057.451-.682.451-1.603 0-.886-.392-1.542a2.68 2.68 0 0 0-1.108-1.023q-.707-.366-1.67-.366-.903 0-1.705.332-.792.324-1.295.946-.502.614-.546 1.483h-2.045q.051-1.373.827-2.403a5.2 5.2 0 0 1 2.028-1.62q1.261-.58 2.77-.58 1.62 0 2.778.657 1.16.648 1.782 1.713.621 1.065.622 2.301 0 1.474-.776 2.514-.767 1.041-2.088 1.44v.137q1.653.273 2.582 1.406.93 1.126.929 2.787 0 1.425-.775 2.557-.766 1.125-2.097 1.773t-3.025.648m13.713-8.966q0 3.222-.844 5.932a18.3 18.3 0 0 1-2.395 4.977h-1.773q.615-.844 1.142-2.08.537-1.227.938-2.693.4-1.474.622-3.043.23-1.576.23-3.093 0-2.028-.392-4.117a23.6 23.6 0 0 0-1.057-3.878q-.664-1.79-1.483-2.914h1.773a18.3 18.3 0 0 1 2.395 4.985q.844 2.702.844 5.924M1036.18 67.727V91h-2.81V70.682h-.14l-5.68 3.772v-2.863l5.82-3.864zm14.11-.318c.95.008 1.91.19 2.86.545q1.44.535 2.61 1.773c.79.819 1.42 1.936 1.9 3.352q.72 2.126.72 5.33c0 2.068-.2 3.905-.59 5.511q-.585 2.398-1.68 4.046c-.73 1.098-1.62 1.932-2.66 2.5s-2.22.852-3.53.852c-1.3 0-2.46-.257-3.49-.772a6.96 6.96 0 0 1-2.5-2.171q-.96-1.398-1.23-3.239h2.77c.25 1.069.74 1.951 1.49 2.648.75.69 1.74 1.034 2.96 1.034 1.8 0 3.22-.784 4.25-2.352 1.05-1.568 1.57-3.784 1.57-6.648h-.18a7.1 7.1 0 0 1-1.51 1.648c-.59.462-1.23.818-1.94 1.068-.72.25-1.47.375-2.28.375-1.33 0-2.55-.33-3.67-.989a7.6 7.6 0 0 1-2.66-2.738q-.99-1.75-.99-4 0-2.136.96-3.91a7.34 7.34 0 0 1 2.7-2.84c1.17-.705 2.54-1.046 4.12-1.023m0 2.5q-1.44 0-2.58.716a5.16 5.16 0 0 0-1.81 1.91q-.66 1.191-.66 2.647c0 .97.21 1.852.64 2.647a5.1 5.1 0 0 0 1.76 1.887c.75.462 1.6.693 2.56.693q1.08 0 2.01-.42a5.2 5.2 0 0 0 1.62-1.17c.47-.5.84-1.065 1.1-1.694.27-.636.4-1.3.4-1.989a5.2 5.2 0 0 0-.66-2.556 5.25 5.25 0 0 0-1.79-1.932c-.76-.493-1.62-.739-2.59-.739m19.97-2.5c.95.008 1.9.19 2.86.545.95.357 1.83.948 2.61 1.773.79.819 1.42 1.936 1.9 3.352q.72 2.126.72 5.33c0 2.068-.2 3.905-.59 5.511-.39 1.599-.95 2.947-1.69 4.046-.72 1.098-1.61 1.932-2.66 2.5-1.03.568-2.21.852-3.52.852-1.3 0-2.46-.257-3.49-.772a6.9 6.9 0 0 1-2.5-2.171c-.64-.932-1.05-2.011-1.24-3.239h2.78c.25 1.069.74 1.951 1.49 2.648.75.69 1.73 1.034 2.96 1.034 1.8 0 3.21-.784 4.25-2.352 1.05-1.568 1.57-3.784 1.57-6.648h-.18a7.3 7.3 0 0 1-1.51 1.648c-.59.462-1.23.818-1.95 1.068a6.8 6.8 0 0 1-2.27.375c-1.33 0-2.56-.33-3.67-.989-1.11-.666-1.99-1.58-2.66-2.738q-.99-1.75-.99-4 0-2.136.96-3.91a7.34 7.34 0 0 1 2.7-2.84c1.17-.705 2.54-1.046 4.12-1.023m0 2.5q-1.44 0-2.58.716a5.16 5.16 0 0 0-1.81 1.91q-.66 1.191-.66 2.647c0 .97.21 1.852.64 2.647a5.1 5.1 0 0 0 1.76 1.887q1.125.693 2.55.693c.72 0 1.39-.14 2.02-.42a5.2 5.2 0 0 0 1.62-1.17c.47-.5.84-1.065 1.1-1.694.27-.636.4-1.3.4-1.989a5.2 5.2 0 0 0-.66-2.556 5.25 5.25 0 0 0-1.79-1.932c-.76-.493-1.62-.739-2.59-.739"/><path stroke="#fff" d="M48 150.5h1005M48.5 117v68M94.5 133v36M209.5 133v36M373.5 133v36M384.5 133v36M303.5 117v68M535.5 133v36M661.5 133v36M668.5 133v36M970.5 133v36M1053.5 117v68"/><path fill="#717171" d="M451.017 16.586v-3.677h17.321v3.677h-6.457V34h-4.407V16.586zM469.466 34V18.182h4.253v2.76h.165q.432-1.473 1.452-2.225 1.02-.762 2.348-.762.33 0 .711.041.381.042.669.114v3.893a6 6 0 0 0-.855-.165 8 8 0 0 0-.999-.072q-.968 0-1.73.422a3.1 3.1 0 0 0-1.194 1.153q-.433.742-.433 1.71V34zm15.924.299q-1.514 0-2.698-.526a4.34 4.34 0 0 1-1.875-1.575q-.68-1.05-.679-2.616 0-1.319.484-2.214a3.9 3.9 0 0 1 1.318-1.442 6.4 6.4 0 0 1 1.895-.824 14.4 14.4 0 0 1 2.245-.391q1.38-.144 2.224-.268.845-.135 1.226-.391.381-.258.381-.762v-.062q0-.978-.618-1.514-.608-.535-1.73-.535-1.185 0-1.885.525-.7.515-.927 1.297l-4.057-.33q.309-1.44 1.215-2.491.906-1.061 2.338-1.627 1.441-.577 3.336-.577 1.319 0 2.523.309a6.6 6.6 0 0 1 2.153.957 4.66 4.66 0 0 1 1.493 1.669q.546 1.01.546 2.42V34h-4.161v-2.193h-.123a4.5 4.5 0 0 1-1.02 1.307q-.638.556-1.534.876-.897.309-2.07.309m1.256-3.028q.968 0 1.71-.381.741-.391 1.163-1.05.423-.66.423-1.494v-1.678q-.206.133-.567.247-.35.103-.793.195-.442.083-.885.155l-.804.113a5.4 5.4 0 0 0-1.349.36q-.576.248-.896.67-.32.412-.319 1.03 0 .896.649 1.37.659.463 1.668.463m18.202 3.038q-2.43 0-4.181-1.03a6.96 6.96 0 0 1-2.677-2.883q-.927-1.845-.927-4.243 0-2.43.937-4.264a6.97 6.97 0 0 1 2.688-2.873q1.74-1.04 4.14-1.04 2.07 0 3.625.752 1.555.75 2.461 2.11t.999 3.193h-4.14q-.175-1.184-.927-1.905-.741-.73-1.946-.731-1.02 0-1.782.556-.751.546-1.174 1.596t-.422 2.544q0 1.514.412 2.575.422 1.06 1.184 1.616t1.782.556q.752 0 1.349-.309.607-.309.999-.895.402-.598.525-1.432h4.14q-.103 1.813-.989 3.192-.875 1.37-2.42 2.143t-3.656.772m13.849-4.86.01-5.263h.639l5.067-6.004h5.035l-6.807 7.95h-1.04zM514.722 34V12.91h4.387V34zm9.886 0-4.655-6.89 2.925-3.1 6.869 9.99zm31.428-21.09V34h-3.851l-9.176-13.274h-.155V34h-4.459V12.91h3.913l9.104 13.263h.186V12.91zm13.746 14.355v-9.083h4.387V34h-4.212v-2.873h-.165a4.67 4.67 0 0 1-1.782 2.235q-1.235.844-3.017.844-1.586 0-2.791-.72-1.205-.722-1.884-2.05-.67-1.33-.68-3.182V18.182h4.387v9.289q.01 1.401.752 2.214.741.814 1.987.814.793 0 1.483-.36.69-.372 1.113-1.092.432-.721.422-1.782M577.678 34V18.182h4.181v2.79h.185q.495-1.389 1.648-2.193 1.154-.803 2.76-.803 1.627 0 2.77.813 1.143.804 1.524 2.184h.165q.485-1.36 1.751-2.173 1.277-.825 3.017-.824 2.215 0 3.594 1.41 1.39 1.401 1.391 3.976V34h-4.377v-9.773q0-1.319-.7-1.977-.7-.66-1.751-.66-1.195 0-1.864.763-.669.75-.669 1.987V34h-4.254v-9.866q0-1.163-.669-1.854-.66-.69-1.74-.69a2.4 2.4 0 0 0-1.319.371q-.577.36-.916 1.02-.34.648-.34 1.524V34zm26.534 0V12.91h4.387v7.929h.133a5.8 5.8 0 0 1 .835-1.298q.555-.67 1.441-1.112.896-.453 2.225-.453 1.73 0 3.192.906 1.462.895 2.338 2.709.875 1.802.875 4.52 0 2.648-.854 4.47-.845 1.812-2.307 2.75-1.452.926-3.254.926-1.278 0-2.173-.422-.887-.422-1.452-1.06a5.4 5.4 0 0 1-.866-1.308h-.195V34zm4.294-7.91q0 1.412.391 2.462.392 1.05 1.133 1.638.741.576 1.802.576 1.07 0 1.813-.587.741-.597 1.122-1.647.392-1.06.392-2.441 0-1.37-.381-2.41t-1.123-1.627q-.741-.587-1.823-.587-1.071 0-1.812.566-.732.567-1.123 1.607t-.391 2.45m21.268 8.219q-2.44 0-4.201-.989a6.77 6.77 0 0 1-2.698-2.821q-.948-1.834-.948-4.336 0-2.44.948-4.284.947-1.844 2.667-2.873 1.73-1.03 4.057-1.03 1.565 0 2.915.505 1.36.494 2.368 1.493 1.02.999 1.586 2.512.567 1.504.567 3.523v1.204h-13.357v-2.718h9.227q0-.948-.412-1.679a2.94 2.94 0 0 0-1.143-1.143q-.72-.422-1.679-.422-.998 0-1.771.463-.762.453-1.194 1.226a3.46 3.46 0 0 0-.443 1.699v2.585q0 1.173.432 2.029.443.855 1.246 1.318.804.463 1.906.463.73 0 1.338-.206a2.8 2.8 0 0 0 1.04-.618 2.7 2.7 0 0 0 .66-1.009l4.057.268a5.54 5.54 0 0 1-1.267 2.554q-.946 1.08-2.451 1.689-1.492.597-3.45.597M639.898 34V18.182h4.253v2.76h.165q.432-1.473 1.452-2.225 1.019-.762 2.348-.762.329 0 .71.041.38.042.67.114v3.893a6 6 0 0 0-.855-.165 8 8 0 0 0-.999-.072q-.968 0-1.73.422a3.1 3.1 0 0 0-1.195 1.153q-.432.742-.432 1.71V34zM449.987 39.767H650v1.977H449.987z"/><path stroke="red" stroke-linecap="round" stroke-linejoin="round" stroke-width="2" d="m311.25 271.75-15.5 15.5M295.75 271.75l15.5 15.5"/><path fill="#fff" d="M552.481 246.307a6.2 6.2 0 0 1 2.148.409q1.073.4 1.96 1.329.886.92 1.423 2.515.537 1.594.537 3.997 0 2.327-.443 4.133-.435 1.799-1.262 3.034-.818 1.236-1.994 1.875-1.167.64-2.642.64-1.466 0-2.616-.58a5.1 5.1 0 0 1-1.875-1.628q-.725-1.048-.929-2.429h2.079q.282 1.202 1.117 1.986.843.776 2.224.776 2.02 0 3.188-1.765 1.176-1.764 1.176-4.985h-.137a5.4 5.4 0 0 1-1.133 1.235 5 5 0 0 1-1.458.802 5.1 5.1 0 0 1-1.704.281 5.3 5.3 0 0 1-2.753-.742 5.6 5.6 0 0 1-1.994-2.054q-.742-1.312-.742-3 0-1.602.716-2.931a5.5 5.5 0 0 1 2.029-2.131q1.312-.793 3.085-.767m0 1.875q-1.074 0-1.935.537a3.86 3.86 0 0 0-1.355 1.432 4.04 4.04 0 0 0-.494 1.985q0 1.092.477 1.986a3.8 3.8 0 0 0 1.321 1.415q.844.52 1.918.52.809 0 1.508-.316a3.9 3.9 0 0 0 1.219-.877q.528-.563.827-1.27.298-.717.298-1.492 0-1.023-.494-1.917a3.9 3.9 0 0 0-1.347-1.449q-.852-.555-1.943-.554m15.01 16.057q-1.755 0-3.102-.623-1.338-.63-2.088-1.73-.75-1.107-.741-2.522a4.64 4.64 0 0 1 .434-2.046 4.46 4.46 0 0 1 1.211-1.577 3.7 3.7 0 0 1 1.73-.809v-.102a3.37 3.37 0 0 1-1.995-1.407q-.74-1.09-.733-2.48-.008-1.33.674-2.378.681-1.049 1.875-1.653 1.202-.605 2.735-.605 1.517 0 2.711.605 1.192.605 1.875 1.653.69 1.049.699 2.378-.009 1.39-.759 2.48-.741 1.083-1.969 1.407v.102a3.6 3.6 0 0 1 1.705.809q.759.631 1.21 1.577a4.7 4.7 0 0 1 .46 2.046q-.008 1.415-.767 2.522-.75 1.1-2.088 1.73-1.33.623-3.077.623m0-1.875q1.185 0 2.046-.384.861-.383 1.329-1.082.47-.7.478-1.637-.009-.988-.512-1.747a3.47 3.47 0 0 0-1.372-1.193q-.86-.435-1.969-.435-1.116 0-1.994.435a3.5 3.5 0 0 0-1.372 1.193q-.494.759-.486 1.747-.008.938.452 1.637.468.699 1.338 1.082t2.062.384m0-8.284q.938 0 1.662-.375.734-.375 1.151-1.049t.426-1.576q-.009-.887-.418-1.543a2.7 2.7 0 0 0-1.133-1.023q-.724-.366-1.688-.366-.98 0-1.713.366-.732.358-1.133 1.023-.4.656-.392 1.543-.008.903.4 1.576.418.674 1.151 1.049t1.687.375M981.33 246.545V264h-2.114v-15.239h-.102l-4.261 2.83v-2.148l4.363-2.898zm10.611 17.694q-1.756 0-3.103-.623-1.338-.63-2.088-1.73-.75-1.107-.741-2.522a4.6 4.6 0 0 1 .435-2.046 4.45 4.45 0 0 1 1.21-1.577 3.7 3.7 0 0 1 1.73-.809v-.102a3.37 3.37 0 0 1-1.994-1.407q-.742-1.09-.733-2.48-.01-1.33.673-2.378.681-1.049 1.875-1.653 1.202-.605 2.736-.605 1.516 0 2.71.605 1.192.605 1.875 1.653.69 1.049.699 2.378-.009 1.39-.759 2.48-.741 1.083-1.968 1.407v.102q.945.17 1.704.809.759.631 1.21 1.577.452.938.461 2.046-.009 1.415-.768 2.522-.75 1.1-2.088 1.73-1.33.623-3.076.623m0-1.875q1.184 0 2.045-.384.86-.383 1.33-1.082.468-.7.477-1.637-.009-.988-.511-1.747a3.5 3.5 0 0 0-1.373-1.193q-.86-.435-1.968-.435-1.117 0-1.995.435a3.5 3.5 0 0 0-1.372 1.193q-.493.759-.486 1.747-.008.938.452 1.637.47.699 1.338 1.082.87.384 2.063.384m0-8.284q.938 0 1.662-.375.732-.375 1.15-1.049t.426-1.576q-.008-.887-.417-1.543a2.7 2.7 0 0 0-1.134-1.023q-.724-.366-1.687-.366-.981 0-1.713.366-.734.358-1.134 1.023-.4.656-.392 1.543-.009.903.401 1.576.418.674 1.15 1.049.733.375 1.688.375m15.099 10.159c-1.13 0-2.13-.194-3.01-.58s-1.57-.923-2.09-1.611q-.765-1.04-.84-2.412h2.15c.05.563.24 1.049.58 1.458.34.403.79.716 1.34.937q.825.333 1.83.333c.75 0 1.42-.131 2-.392.58-.262 1.03-.625 1.36-1.091s.49-1.006.49-1.62c0-.642-.15-1.207-.47-1.696-.32-.494-.79-.88-1.4-1.159q-.915-.417-2.25-.417h-1.4v-1.875h1.4c.69 0 1.3-.125 1.82-.375.53-.25.94-.603 1.24-1.057q.45-.683.45-1.602 0-.887-.39-1.543a2.66 2.66 0 0 0-1.11-1.023c-.47-.244-1.03-.366-1.67-.366-.6 0-1.17.111-1.7.332a3.2 3.2 0 0 0-1.3.946 2.44 2.44 0 0 0-.54 1.483h-2.05c.03-.915.31-1.716.83-2.403.51-.694 1.19-1.233 2.02-1.62a6.6 6.6 0 0 1 2.77-.579c1.08 0 2.01.219 2.78.656.78.432 1.37 1.003 1.78 1.713q.63 1.065.63 2.301 0 1.475-.78 2.514c-.51.694-1.21 1.174-2.09 1.441v.136c1.11.182 1.97.651 2.59 1.406.61.75.92 1.679.92 2.787 0 .949-.25 1.801-.77 2.557q-.765 1.125-2.1 1.773c-.88.432-1.89.648-3.02.648M221.208 265.239q-1.687 0-3.008-.58-1.312-.579-2.088-1.611-.768-1.04-.835-2.412h2.147a2.54 2.54 0 0 0 .58 1.458q.512.605 1.338.937a4.9 4.9 0 0 0 1.832.333q1.125 0 1.995-.392.869-.393 1.363-1.091.495-.699.495-1.62 0-.963-.478-1.696-.477-.74-1.397-1.159-.921-.417-2.25-.417h-1.398v-1.875h1.398q1.04 0 1.823-.375.793-.376 1.236-1.057.452-.683.452-1.602 0-.887-.392-1.543a2.7 2.7 0 0 0-1.108-1.023q-.708-.366-1.67-.366-.904 0-1.705.332-.792.324-1.295.946-.504.614-.546 1.483h-2.045q.05-1.373.826-2.403.776-1.04 2.029-1.62 1.261-.579 2.77-.579 1.619 0 2.778.656 1.16.648 1.781 1.713.622 1.065.622 2.301 0 1.475-.775 2.514-.767 1.04-2.088 1.441v.136q1.653.273 2.582 1.406.93 1.125.929 2.787 0 1.423-.775 2.557-.768 1.125-2.097 1.773-1.33.648-3.026.648m9.929-.239 7.807-15.443v-.137h-9v-1.875h11.182v1.978L233.353 265zM615.834 246.545V264h-2.114v-15.239h-.102l-4.261 2.83v-2.148l4.363-2.898zm5.02 17.455v-1.534l5.761-6.307a41 41 0 0 0 1.671-1.926q.656-.827.971-1.551.324-.733.324-1.534 0-.92-.443-1.594a2.9 2.9 0 0 0-1.193-1.04 3.9 3.9 0 0 0-1.705-.366q-1.005 0-1.756.417a2.9 2.9 0 0 0-1.15 1.151q-.4.741-.401 1.739h-2.011q0-1.535.707-2.694a4.9 4.9 0 0 1 1.926-1.806q1.228-.648 2.753-.648 1.534 0 2.719.648a4.86 4.86 0 0 1 1.858 1.747 4.6 4.6 0 0 1 .673 2.446 5.3 5.3 0 0 1-.349 1.883q-.34.912-1.193 2.037-.844 1.117-2.344 2.727l-3.921 4.194v.136h8.114V264zm14.531 0v-1.534l5.761-6.307a41 41 0 0 0 1.671-1.926q.656-.827.971-1.551.324-.733.324-1.534 0-.92-.443-1.594a2.9 2.9 0 0 0-1.193-1.04 3.9 3.9 0 0 0-1.705-.366q-1.005 0-1.755.417a2.9 2.9 0 0 0-1.151 1.151q-.4.741-.401 1.739h-2.011q0-1.535.708-2.694a4.9 4.9 0 0 1 1.926-1.806q1.227-.648 2.752-.648 1.534 0 2.719.648a4.86 4.86 0 0 1 1.858 1.747 4.6 4.6 0 0 1 .673 2.446 5.3 5.3 0 0 1-.349 1.883q-.34.912-1.193 2.037-.844 1.117-2.344 2.727l-3.92 4.194v.136h8.113V264zM102.666 247.545V265h-2.114v-15.239h-.102l-4.261 2.83v-2.148l4.363-2.898zm4.611 13.875v-1.738l7.67-12.137h1.261v2.694h-.852l-5.795 9.17v.136h10.329v1.875zm8.216 3.58v-17.455h2.011V265zM692.588 246.545V264h-2.114v-15.239h-.102l-4.262 2.83v-2.148l4.364-2.898zm5.02 17.455v-1.534l5.761-6.307a40 40 0 0 0 1.67-1.926q.657-.827.972-1.551.324-.733.324-1.534 0-.92-.443-1.594a2.9 2.9 0 0 0-1.193-1.04 3.9 3.9 0 0 0-1.705-.366q-1.006 0-1.756.417a2.88 2.88 0 0 0-1.15 1.151q-.4.741-.401 1.739h-2.011q0-1.535.707-2.694a4.9 4.9 0 0 1 1.926-1.806q1.227-.648 2.753-.648 1.534 0 2.719.648a4.86 4.86 0 0 1 1.858 1.747 4.6 4.6 0 0 1 .673 2.446 5.3 5.3 0 0 1-.349 1.883q-.341.912-1.193 2.037-.844 1.117-2.344 2.727l-3.921 4.194v.136h8.114V264zm13.747-3.58v-1.738l7.67-12.137h1.262v2.694h-.853l-5.795 9.17v.136h10.329v1.875zm8.216 3.58v-17.455h2.011V264zM340.813 265.239a6.6 6.6 0 0 1-2.148-.409q-1.073-.393-1.96-1.321-.886-.937-1.423-2.532-.537-1.602-.537-4.022 0-2.319.435-4.108.434-1.799 1.261-3.026.827-1.236 1.994-1.875 1.176-.639 2.651-.639 1.466 0 2.608.588a5 5 0 0 1 1.875 1.619q.724 1.04.937 2.395h-2.079q-.29-1.176-1.125-1.952-.836-.775-2.216-.775-2.029 0-3.196 1.764-1.16 1.764-1.168 4.952h.137a5.14 5.14 0 0 1 2.599-2.037 5.1 5.1 0 0 1 1.696-.281q1.5 0 2.744.75a5.54 5.54 0 0 1 1.995 2.054q.75 1.303.75 2.991 0 1.62-.725 2.966a5.5 5.5 0 0 1-2.037 2.131q-1.304.783-3.068.767m0-1.875q1.074 0 1.926-.537a3.83 3.83 0 0 0 1.355-1.441 4.05 4.05 0 0 0 .503-2.011q0-1.083-.485-1.969a3.7 3.7 0 0 0-1.322-1.423q-.834-.528-1.909-.528-.809 0-1.508.323-.699.316-1.227.87-.52.553-.819 1.27a3.8 3.8 0 0 0-.298 1.491q0 1.04.486 1.943a4 4 0 0 0 1.347 1.458 3.53 3.53 0 0 0 1.951.554m14.636 1.875q-1.5 0-2.702-.597a5 5 0 0 1-1.926-1.636 4.47 4.47 0 0 1-.793-2.37h2.046q.118 1.185 1.074 1.961.963.767 2.301.767 1.074 0 1.909-.503a3.55 3.55 0 0 0 1.321-1.381q.486-.886.486-2.003 0-1.142-.503-2.037a3.7 3.7 0 0 0-1.364-1.423q-.869-.52-1.986-.528a5.4 5.4 0 0 0-1.644.247q-.844.247-1.39.639l-1.977-.239 1.057-8.591h9.068v1.875h-7.295l-.614 5.148h.102q.537-.426 1.347-.707a5.1 5.1 0 0 1 1.687-.281q1.603 0 2.856.767 1.26.758 1.977 2.079.724 1.321.724 3.017 0 1.67-.75 2.983a5.5 5.5 0 0 1-2.045 2.063q-1.305.75-2.966.75M400.259 264.239a6.6 6.6 0 0 1-2.148-.409q-1.075-.393-1.96-1.321-.887-.937-1.424-2.532-.537-1.602-.537-4.022 0-2.319.435-4.108.435-1.799 1.261-3.026.827-1.236 1.995-1.875 1.176-.639 2.65-.639 1.467 0 2.608.588a5 5 0 0 1 1.875 1.619q.725 1.04.938 2.395h-2.08q-.29-1.176-1.125-1.952-.835-.775-2.216-.775-2.028 0-3.196 1.764-1.159 1.764-1.167 4.952h.136a5.12 5.12 0 0 1 2.599-2.037 5.1 5.1 0 0 1 1.696-.281q1.5 0 2.745.75a5.54 5.54 0 0 1 1.994 2.054q.75 1.304.75 2.991 0 1.62-.724 2.966a5.5 5.5 0 0 1-2.037 2.131q-1.304.783-3.068.767m0-1.875a3.54 3.54 0 0 0 1.926-.537 3.84 3.84 0 0 0 1.355-1.441 4.06 4.06 0 0 0 .503-2.011q0-1.083-.486-1.969a3.7 3.7 0 0 0-1.321-1.423q-.835-.528-1.909-.528-.81 0-1.509.323-.699.316-1.227.87a4.2 4.2 0 0 0-.818 1.27 3.8 3.8 0 0 0-.299 1.491q0 1.04.486 1.943.495.904 1.347 1.458a3.53 3.53 0 0 0 1.952.554m9.726 1.636 7.807-15.443v-.137h-9v-1.875h11.182v1.978L412.201 264zM347.871 453v-17.455h5.898q2.046 0 3.358.699 1.313.691 1.943 1.901t.631 2.753q0 1.542-.631 2.736-.63 1.192-1.934 1.875-1.304.673-3.333.673h-4.772v-1.909h4.704q1.398 0 2.25-.409.861-.41 1.244-1.159.392-.759.392-1.807t-.392-1.833q-.392-.784-1.252-1.21-.861-.435-2.276-.435h-3.716V453zm8.216-7.841 4.296 7.841h-2.455l-4.227-7.841zM362.95 453v-13.091h2.012V453zm1.023-15.273a1.43 1.43 0 0 1-1.014-.4 1.29 1.29 0 0 1-.418-.963q0-.563.418-.963a1.43 1.43 0 0 1 1.014-.401q.588 0 1.006.401.426.4.426.963t-.426.963q-.418.4-1.006.4m9.957 20.455q-1.458 0-2.506-.375-1.048-.367-1.747-.972a5.3 5.3 0 0 1-1.1-1.278l1.603-1.125q.273.357.69.818.417.468 1.142.81.733.35 1.918.349 1.585 0 2.616-.767t1.031-2.403v-2.659h-.17q-.222.358-.631.886-.4.52-1.159.929-.75.4-2.028.4-1.585 0-2.847-.75-1.252-.75-1.986-2.181-.724-1.432-.724-3.478 0-2.011.707-3.502.708-1.5 1.969-2.319 1.262-.826 2.915-.826 1.278 0 2.028.426.759.417 1.159.954.41.529.631.87h.205v-2.08h1.943v13.466q0 1.688-.767 2.744-.759 1.066-2.046 1.56-1.278.503-2.846.503m-.068-7.193q1.21 0 2.045-.554.835-.555 1.27-1.594t.435-2.489q0-1.414-.427-2.497-.426-1.082-1.261-1.696t-2.062-.614q-1.28 0-2.131.648-.844.648-1.27 1.739-.418 1.09-.418 2.42 0 1.364.426 2.412.435 1.04 1.279 1.637.852.588 2.114.588m11.42-5.864V453h-2.011v-17.455h2.011v6.41h.17a3.7 3.7 0 0 1 1.381-1.611q.928-.606 2.472-.605 1.338 0 2.343.537 1.006.528 1.56 1.627.563 1.092.563 2.779V453h-2.012v-8.182q0-1.56-.809-2.412-.802-.861-2.225-.861-.988 0-1.773.418a3.05 3.05 0 0 0-1.227 1.219q-.443.801-.443 1.943m17.861-5.216v1.705h-6.784v-1.705zm-4.806-3.136h2.011v12.477q0 .852.247 1.278.256.418.648.563.4.136.844.136.332 0 .545-.034l.341-.068.409 1.807a4 4 0 0 1-.571.153 4.2 4.2 0 0 1-.929.085 4.05 4.05 0 0 1-1.67-.366 3.3 3.3 0 0 1-1.347-1.116q-.528-.75-.528-1.893zM413.192 453v-17.455h2.113v7.773h9.307v-7.773h2.114V453h-2.114v-7.807h-9.307V453zm22.981.273q-1.892 0-3.264-.835-1.364-.844-2.105-2.353-.733-1.517-.733-3.528t.733-3.546q.742-1.542 2.062-2.403 1.33-.87 3.103-.869 1.023 0 2.02.341.997.34 1.815 1.108.818.758 1.304 2.011.486 1.252.486 3.085v.852h-10.091v-1.738h8.045q0-1.108-.443-1.978a3.35 3.35 0 0 0-1.244-1.372q-.801-.503-1.892-.503-1.202 0-2.08.597a3.93 3.93 0 0 0-1.338 1.534 4.5 4.5 0 0 0-.469 2.029v1.159q0 1.482.512 2.514.519 1.023 1.44 1.56.921.528 2.139.528.793 0 1.432-.222.648-.23 1.117-.682.469-.46.724-1.142l1.943.546a4.3 4.3 0 0 1-1.031 1.739q-.725.74-1.79 1.159-1.065.409-2.395.409m12.333.034q-1.245 0-2.259-.469a3.9 3.9 0 0 1-1.611-1.372q-.596-.903-.596-2.182 0-1.125.443-1.824.443-.707 1.185-1.108a6.2 6.2 0 0 1 1.636-.596 20 20 0 0 1 1.815-.324 83 83 0 0 1 1.935-.23q.75-.086 1.091-.282.35-.196.349-.681v-.069q0-1.26-.69-1.96-.682-.699-2.071-.699-1.44 0-2.259.631-.818.63-1.15 1.347l-1.909-.682q.511-1.194 1.363-1.858a5.1 5.1 0 0 1 1.875-.938 7.8 7.8 0 0 1 2.012-.272 8 8 0 0 1 1.449.153 4.6 4.6 0 0 1 1.593.605q.776.46 1.287 1.389.512.93.512 2.489V453h-2.012v-1.773h-.102q-.204.426-.682.912-.477.486-1.27.827-.792.34-1.934.341m.306-1.807q1.193 0 2.012-.469.827-.469 1.244-1.21a3.1 3.1 0 0 0 .426-1.56v-1.841q-.127.154-.562.282a10 10 0 0 1-.989.213q-.554.086-1.082.153-.52.06-.844.102a7.7 7.7 0 0 0-1.466.333q-.673.222-1.091.673-.409.444-.409 1.21 0 1.049.776 1.586.783.528 1.985.528m14.308 1.773q-1.636 0-2.889-.827-1.253-.836-1.96-2.352-.708-1.526-.708-3.605 0-2.063.708-3.58.707-1.517 1.968-2.344 1.262-.826 2.915-.826 1.279 0 2.02.426.75.417 1.142.954.4.529.622.87h.171v-6.444h2.011V453h-1.943v-2.011h-.239q-.222.357-.63.903-.41.537-1.168.963-.759.418-2.02.418m.273-1.807q1.21 0 2.045-.631.835-.639 1.27-1.764.435-1.134.435-2.616 0-1.467-.426-2.566-.426-1.107-1.262-1.721-.835-.623-2.062-.623-1.28 0-2.131.657-.844.648-1.27 1.764-.417 1.108-.417 2.489 0 1.397.426 2.539.434 1.134 1.278 1.807.852.665 2.114.665M368.105 482h-5.386v-17.455h5.625q2.54 0 4.347 1.049 1.806 1.04 2.77 2.991.963 1.944.963 4.654 0 2.727-.972 4.696-.972 1.96-2.829 3.017-1.858 1.048-4.518 1.048m-3.272-1.875h3.136q2.164 0 3.588-.835 1.423-.836 2.122-2.378t.699-3.673q0-2.114-.69-3.64-.69-1.533-2.063-2.352-1.372-.827-3.417-.827h-3.375zM379.696 482v-13.091h2.012V482zm1.023-15.273a1.43 1.43 0 0 1-1.014-.4 1.29 1.29 0 0 1-.418-.963q0-.563.418-.963a1.43 1.43 0 0 1 1.014-.401q.588 0 1.006.401.426.4.426.963t-.426.963q-.418.4-1.006.4M385.392 482v-13.091h1.943v1.977h.136q.358-.971 1.296-1.576a3.8 3.8 0 0 1 2.113-.605q.222 0 .554.008t.503.026v2.045a6 6 0 0 0-.469-.077 5 5 0 0 0-.758-.059q-.955 0-1.705.4a3.03 3.03 0 0 0-1.176 1.091 2.94 2.94 0 0 0-.426 1.577V482zm14.02.273q-1.893 0-3.265-.835-1.363-.844-2.105-2.353-.733-1.517-.733-3.528t.733-3.546q.742-1.542 2.063-2.403 1.329-.87 3.102-.869 1.023 0 2.02.341.998.34 1.815 1.108.819.758 1.304 2.011.486 1.252.486 3.085v.852h-10.091v-1.738h8.046q0-1.108-.444-1.978a3.34 3.34 0 0 0-1.244-1.372q-.801-.503-1.892-.503-1.201 0-2.08.597a3.93 3.93 0 0 0-1.338 1.534 4.5 4.5 0 0 0-.468 2.029v1.159q0 1.482.511 2.514.52 1.023 1.44 1.56.92.528 2.14.528.792 0 1.431-.222.648-.23 1.117-.682.469-.46.724-1.142l1.943.546a4.3 4.3 0 0 1-1.031 1.739 5 5 0 0 1-1.79 1.159q-1.065.409-2.394.409m13.798 0q-1.84 0-3.171-.87-1.33-.869-2.045-2.394-.716-1.526-.716-3.486 0-1.995.733-3.52.741-1.534 2.063-2.395 1.329-.87 3.102-.869 1.38 0 2.488.511a4.77 4.77 0 0 1 1.816 1.432 4.47 4.47 0 0 1 .878 2.148h-2.012q-.23-.895-1.022-1.586-.785-.699-2.114-.699-1.176 0-2.063.614-.877.605-1.372 1.713-.486 1.1-.486 2.583 0 1.517.478 2.642.486 1.125 1.363 1.747.886.622 2.08.622.784 0 1.423-.273a2.95 2.95 0 0 0 1.083-.784 3 3 0 0 0 .63-1.227h2.012a4.66 4.66 0 0 1-.844 2.088q-.664.92-1.764 1.466-1.091.537-2.54.537m13.781-13.364v1.705h-6.784v-1.705zm-4.807-3.136h2.012v12.477q0 .852.247 1.278.255.418.648.563.4.136.843.136.333 0 .546-.034l.341-.068.409 1.807a4 4 0 0 1-.571.153 4.2 4.2 0 0 1-.929.085 4.1 4.1 0 0 1-1.671-.366 3.3 3.3 0 0 1-1.346-1.116q-.53-.75-.529-1.893zm13.01 16.5q-1.773 0-3.111-.844-1.329-.844-2.079-2.361-.741-1.517-.742-3.545 0-2.046.742-3.571.75-1.525 2.079-2.37 1.338-.843 3.111-.843t3.103.843q1.338.845 2.079 2.37.75 1.525.75 3.571 0 2.028-.75 3.545-.741 1.517-2.079 2.361-1.33.844-3.103.844m0-1.807q1.347 0 2.216-.69.87-.691 1.287-1.816.418-1.125.418-2.437 0-1.313-.418-2.446-.417-1.134-1.287-1.833t-2.216-.699-2.216.699q-.868.699-1.287 1.833a7 7 0 0 0-.417 2.446q0 1.312.417 2.437.419 1.125 1.287 1.816.87.69 2.216.69m11.014-6.341V482h-2.012v-13.091h1.944v2.046h.17a3.74 3.74 0 0 1 1.398-1.603q.938-.613 2.42-.613 1.33 0 2.327.545.998.537 1.551 1.636.554 1.091.554 2.762V482h-2.011v-8.182q0-1.542-.801-2.403-.803-.87-2.199-.87-.963 0-1.722.418-.75.418-1.185 1.219-.434.801-.434 1.943M144.739 453v-17.455h2.113v15.58h8.114V453zm18.716.273q-1.893 0-3.265-.835-1.363-.844-2.105-2.353-.732-1.517-.733-3.528 0-2.012.733-3.546.742-1.542 2.063-2.403 1.329-.87 3.102-.869 1.023 0 2.02.341.998.34 1.815 1.108.819.758 1.304 2.011.486 1.252.486 3.085v.852h-10.091v-1.738h8.046q0-1.108-.444-1.978a3.34 3.34 0 0 0-1.244-1.372q-.801-.503-1.892-.503-1.201 0-2.08.597a3.93 3.93 0 0 0-1.338 1.534 4.5 4.5 0 0 0-.468 2.029v1.159q0 1.482.511 2.514.52 1.023 1.44 1.56.92.528 2.14.528.792 0 1.431-.222.648-.23 1.117-.682.469-.46.724-1.142l1.943.546a4.3 4.3 0 0 1-1.031 1.739 5 5 0 0 1-1.79 1.159q-1.065.409-2.394.409m14.309-13.364v1.705h-7.057v-1.705zM172.821 453v-14.898q0-1.125.528-1.875.529-.75 1.373-1.125a4.3 4.3 0 0 1 1.781-.375q.742 0 1.21.12.47.119.699.221l-.58 1.739a10 10 0 0 0-.426-.128 2.6 2.6 0 0 0-.699-.077q-.996 0-1.44.503-.435.503-.435 1.475V453zm13.455-13.091v1.705h-6.784v-1.705zm-4.807-3.136h2.012v12.477q0 .852.247 1.278.255.418.648.563.4.136.843.136.333 0 .546-.034l.341-.068.409 1.807a4 4 0 0 1-.571.153 4.2 4.2 0 0 1-.929.085 4.1 4.1 0 0 1-1.671-.366 3.3 3.3 0 0 1-1.346-1.116q-.529-.75-.529-1.893zM196.325 453v-17.455h2.113v7.773h9.307v-7.773h2.114V453h-2.114v-7.807h-9.307V453zm22.981.273q-1.892 0-3.264-.835-1.364-.844-2.105-2.353-.733-1.517-.733-3.528t.733-3.546q.741-1.542 2.062-2.403 1.33-.87 3.103-.869 1.022 0 2.019.341.997.34 1.816 1.108.818.758 1.304 2.011.486 1.252.486 3.085v.852h-10.091v-1.738h8.045q0-1.108-.443-1.978a3.35 3.35 0 0 0-1.244-1.372q-.801-.503-1.892-.503-1.203 0-2.08.597a3.9 3.9 0 0 0-1.338 1.534 4.5 4.5 0 0 0-.469 2.029v1.159q0 1.482.512 2.514.519 1.023 1.44 1.56.921.528 2.139.528.793 0 1.432-.222a3 3 0 0 0 1.116-.682q.469-.46.725-1.142l1.943.546a4.3 4.3 0 0 1-1.031 1.739q-.725.74-1.79 1.159-1.066.409-2.395.409m12.332.034q-1.244 0-2.258-.469a3.9 3.9 0 0 1-1.611-1.372q-.596-.903-.596-2.182 0-1.125.443-1.824a3.13 3.13 0 0 1 1.184-1.108 6.2 6.2 0 0 1 1.637-.596 20 20 0 0 1 1.815-.324q1.193-.153 1.935-.23.75-.086 1.091-.282.35-.196.349-.681v-.069q0-1.26-.69-1.96-.682-.699-2.071-.699-1.44 0-2.259.631-.818.63-1.15 1.347l-1.909-.682q.51-1.194 1.363-1.858a5.1 5.1 0 0 1 1.875-.938 7.8 7.8 0 0 1 2.012-.272q.63 0 1.448.153a4.6 4.6 0 0 1 1.594.605q.775.46 1.287 1.389.511.93.511 2.489V453h-2.011v-1.773h-.102q-.205.426-.682.912t-1.27.827-1.935.341m.307-1.807q1.193 0 2.012-.469.827-.469 1.244-1.21a3.1 3.1 0 0 0 .426-1.56v-1.841q-.128.154-.562.282a10 10 0 0 1-.989.213q-.554.086-1.082.153-.52.06-.844.102a7.7 7.7 0 0 0-1.466.333q-.674.222-1.091.673-.41.444-.409 1.21 0 1.049.776 1.586.783.528 1.985.528m14.308 1.773q-1.637 0-2.889-.827-1.254-.836-1.961-2.352-.707-1.526-.707-3.605 0-2.063.707-3.58.708-1.517 1.969-2.344 1.262-.826 2.915-.826 1.279 0 2.02.426.75.417 1.142.954.4.529.622.87h.17v-6.444h2.012V453h-1.943v-2.011h-.239q-.222.357-.631.903-.409.537-1.167.963-.759.418-2.02.418m.273-1.807q1.21 0 2.045-.631.835-.639 1.27-1.764.435-1.134.435-2.616 0-1.467-.427-2.566-.426-1.107-1.261-1.721-.835-.623-2.062-.623-1.28 0-2.131.657-.844.648-1.27 1.764-.417 1.108-.418 2.489 0 1.397.427 2.539.434 1.134 1.278 1.807.852.665 2.114.665M155.188 482h-5.387v-17.455h5.625q2.54 0 4.347 1.049 1.806 1.04 2.77 2.991.963 1.944.963 4.654 0 2.727-.972 4.696-.972 1.96-2.829 3.017-1.859 1.048-4.517 1.048m-3.273-1.875h3.136q2.165 0 3.588-.835 1.423-.836 2.122-2.378t.699-3.673q0-2.114-.69-3.64-.69-1.533-2.063-2.352-1.372-.827-3.417-.827h-3.375zM166.778 482v-13.091h2.012V482zm1.023-15.273a1.43 1.43 0 0 1-1.014-.4 1.29 1.29 0 0 1-.418-.963q0-.563.418-.963a1.43 1.43 0 0 1 1.014-.401q.588 0 1.006.401.426.4.426.963t-.426.963q-.418.4-1.006.4M172.474 482v-13.091h1.943v1.977h.136q.358-.971 1.296-1.576a3.8 3.8 0 0 1 2.113-.605q.222 0 .554.008t.503.026v2.045a6 6 0 0 0-.469-.077 5 5 0 0 0-.758-.059q-.954 0-1.705.4a3.03 3.03 0 0 0-1.176 1.091 2.94 2.94 0 0 0-.426 1.577V482zm14.02.273q-1.893 0-3.265-.835-1.363-.844-2.105-2.353-.732-1.517-.733-3.528 0-2.012.733-3.546.742-1.542 2.063-2.403 1.329-.87 3.102-.869 1.023 0 2.02.341.998.34 1.815 1.108.818.758 1.304 2.011.486 1.252.486 3.085v.852h-10.091v-1.738h8.046q0-1.108-.444-1.978a3.34 3.34 0 0 0-1.244-1.372q-.801-.503-1.892-.503-1.202 0-2.079.597a3.9 3.9 0 0 0-1.339 1.534 4.5 4.5 0 0 0-.468 2.029v1.159q0 1.482.511 2.514.52 1.023 1.44 1.56.92.528 2.14.528.792 0 1.431-.222.648-.23 1.117-.682.469-.46.724-1.142l1.944.546a4.3 4.3 0 0 1-1.032 1.739 5 5 0 0 1-1.79 1.159q-1.065.409-2.394.409m13.798 0q-1.84 0-3.171-.87-1.33-.869-2.045-2.394-.716-1.526-.716-3.486 0-1.995.733-3.52.741-1.534 2.063-2.395 1.329-.87 3.102-.869 1.38 0 2.488.511a4.77 4.77 0 0 1 1.816 1.432 4.47 4.47 0 0 1 .878 2.148h-2.012q-.23-.895-1.022-1.586-.785-.699-2.114-.699-1.176 0-2.063.614-.877.605-1.372 1.713-.486 1.1-.486 2.583 0 1.517.478 2.642.486 1.125 1.363 1.747.886.622 2.08.622.784 0 1.423-.273a2.95 2.95 0 0 0 1.083-.784 3 3 0 0 0 .63-1.227h2.012a4.66 4.66 0 0 1-.844 2.088q-.665.92-1.764 1.466-1.092.537-2.54.537m13.781-13.364v1.705h-6.784v-1.705zm-4.807-3.136h2.012v12.477q0 .852.247 1.278.255.418.648.563.4.136.843.136.333 0 .546-.034l.341-.068.409 1.807a4 4 0 0 1-.571.153 4.2 4.2 0 0 1-.929.085 4.1 4.1 0 0 1-1.671-.366 3.3 3.3 0 0 1-1.346-1.116q-.53-.75-.529-1.893zM217.099 482v-13.091h2.011V482zm1.022-15.273a1.43 1.43 0 0 1-1.014-.4 1.29 1.29 0 0 1-.417-.963q0-.563.417-.963a1.43 1.43 0 0 1 1.014-.401q.588 0 1.006.401.426.4.426.963t-.426.963a1.4 1.4 0 0 1-1.006.4m9.991 15.546q-1.773 0-3.111-.844-1.329-.844-2.079-2.361-.742-1.517-.742-3.545 0-2.046.742-3.571.75-1.525 2.079-2.37 1.338-.843 3.111-.843t3.102.843q1.34.845 2.08 2.37.75 1.525.75 3.571 0 2.028-.75 3.545-.74 1.517-2.08 2.361-1.329.844-3.102.844m0-1.807q1.347 0 2.216-.69.87-.691 1.287-1.816t.418-2.437q0-1.313-.418-2.446-.417-1.134-1.287-1.833t-2.216-.699-2.216.699q-.869.699-1.287 1.833a7 7 0 0 0-.417 2.446q0 1.312.417 2.437.418 1.125 1.287 1.816.87.69 2.216.69m11.014-6.341V482h-2.012v-13.091h1.944v2.046h.17a3.74 3.74 0 0 1 1.398-1.603q.938-.613 2.42-.613 1.33 0 2.327.545.998.537 1.551 1.636.554 1.091.554 2.762V482h-2.011v-8.182q0-1.542-.802-2.403-.801-.87-2.198-.87-.963 0-1.722.418-.75.418-1.185 1.219-.434.801-.434 1.943"/><circle cx="534.5" cy="279.5" r="6" fill="#a80000" stroke="#690000"/><circle cx="969.5" cy="279.5" r="6" fill="#a80000" stroke="#690000"/><circle cx="208.5" cy="279.5" r="6" fill="#a80000" stroke="#690000"/><circle cx="660.5" cy="279.5" r="6" fill="#a80000" stroke="#690000"/><circle cx="667.5" cy="279.5" r="6" fill="#a80000" stroke="#690000"/><circle cx="373.5" cy="279.5" r="6" fill="#a80000" stroke="#690000"/><circle cx="383.5" cy="279.5" r="6" fill="#a80000" stroke="#690000"/><circle cx="93.5" cy="279.5" r="6" fill="#a80000" stroke="#690000"/><path stroke="#a80000" stroke-width="3" d="M303.5 151v222"/><path fill="#fff" d="M459.061 411.561a1.5 1.5 0 0 0 0-2.122l-9.546-9.546a1.5 1.5 0 0 0-2.122 0 1.5 1.5 0 0 0 0 2.122l8.486 8.485-8.486 8.485a1.5 1.5 0 0 0 0 2.122 1.5 1.5 0 0 0 2.122 0zM337 410.5v1.5h121v-3H337zM144.939 409.939a1.5 1.5 0 0 0 0 2.122l9.546 9.546a1.5 1.5 0 0 0 2.122 0 1.5 1.5 0 0 0 0-2.122L148.121 411l8.486-8.485a1.5 1.5 0 0 0 0-2.122 1.5 1.5 0 0 0-2.122 0zM267 411v-1.5H146v3h121z"/></svg>