<svg width="1101" height="488" viewBox="0 0 1101 488" fill="none" xmlns="http://www.w3.org/2000/svg">
<mask id="path-1-inside-1_266_190" fill="white">
<path d="M48 151H1053V373H48V151Z"/>
</mask>
<path d="M48 151H1053V373H48V151Z" fill="#292929"/>
<path d="M1053 373V374H1054V373H1053ZM48 373H47V374H48V373ZM1053 151H1052V373H1053H1054V151H1053ZM1053 373V372H48V373V374H1053V373ZM48 373H49V151H48H47V373H48Z" fill="#717171" mask="url(#path-1-inside-1_266_190)"/>
<line x1="144.5" y1="151" x2="144.5" y2="373" stroke="#3E3E3E"/>
<line x1="245.5" y1="151" x2="245.5" y2="373" stroke="#3E3E3E"/>
<line x1="346.5" y1="151" x2="346.5" y2="373" stroke="#3E3E3E"/>
<line x1="447.5" y1="151" x2="447.5" y2="373" stroke="#3E3E3E"/>
<line x1="548.5" y1="151" x2="548.5" y2="373" stroke="#3E3E3E"/>
<line x1="649.5" y1="151" x2="649.5" y2="373" stroke="#3E3E3E"/>
<line x1="750.5" y1="151" x2="750.5" y2="373" stroke="#3E3E3E"/>
<line x1="851.5" y1="151" x2="851.5" y2="373" stroke="#3E3E3E"/>
<line x1="952.5" y1="151" x2="952.5" y2="373" stroke="#3E3E3E"/>
<path d="M48 91.3182C46.2879 91.3182 44.8295 90.8523 43.625 89.9205C42.4205 88.9811 41.5 87.6212 40.8636 85.8409C40.2273 84.053 39.9091 81.8939 39.9091 79.3636C39.9091 76.8485 40.2273 74.7008 40.8636 72.9205C41.5076 71.1326 42.4318 69.7689 43.6364 68.8295C44.8485 67.8826 46.303 67.4091 48 67.4091C49.697 67.4091 51.1477 67.8826 52.3523 68.8295C53.5644 69.7689 54.4886 71.1326 55.125 72.9205C55.7689 74.7008 56.0909 76.8485 56.0909 79.3636C56.0909 81.8939 55.7727 84.053 55.1364 85.8409C54.5 87.6212 53.5795 88.9811 52.375 89.9205C51.1705 90.8523 49.7121 91.3182 48 91.3182ZM48 88.8182C49.697 88.8182 51.0152 88 51.9545 86.3636C52.8939 84.7273 53.3636 82.3939 53.3636 79.3636C53.3636 77.3485 53.1477 75.6326 52.7159 74.2159C52.2917 72.7992 51.678 71.7197 50.875 70.9773C50.0795 70.2348 49.1212 69.8636 48 69.8636C46.3182 69.8636 45.0038 70.6932 44.0568 72.3523C43.1098 74.0038 42.6364 76.3409 42.6364 79.3636C42.6364 81.3788 42.8485 83.0909 43.2727 84.5C43.697 85.9091 44.3068 86.9811 45.1023 87.7159C45.9053 88.4508 46.8712 88.8182 48 88.8182Z" fill="white"/>
<path d="M249.02 88V70.5455H251.134V78.3182H260.44V70.5455H262.554V88H260.44V80.1932H251.134V88H249.02ZM272.001 88.2727C270.74 88.2727 269.652 87.9943 268.737 87.4375C267.828 86.875 267.126 86.0909 266.632 85.0852C266.143 84.0739 265.899 82.8977 265.899 81.5568C265.899 80.2159 266.143 79.0341 266.632 78.0114C267.126 76.983 267.814 76.1818 268.695 75.608C269.581 75.0284 270.615 74.7386 271.797 74.7386C272.479 74.7386 273.152 74.8523 273.817 75.0795C274.482 75.3068 275.087 75.6761 275.632 76.1875C276.178 76.6932 276.612 77.3636 276.936 78.1989C277.26 79.0341 277.422 80.0625 277.422 81.2841V82.1364H267.331V80.3977H275.376C275.376 79.6591 275.229 79 274.933 78.4205C274.643 77.8409 274.229 77.3835 273.689 77.0483C273.155 76.7131 272.524 76.5455 271.797 76.5455C270.996 76.5455 270.303 76.7443 269.717 77.142C269.138 77.5341 268.692 78.0455 268.379 78.6761C268.067 79.3068 267.911 79.983 267.911 80.7045V81.8636C267.911 82.8523 268.081 83.6903 268.422 84.3778C268.768 85.0597 269.249 85.5795 269.862 85.9375C270.476 86.2898 271.189 86.4659 272.001 86.4659C272.53 86.4659 273.007 86.392 273.433 86.2443C273.865 86.0909 274.237 85.8636 274.55 85.5625C274.862 85.2557 275.104 84.875 275.274 84.4205L277.217 84.9659C277.013 85.625 276.669 86.2045 276.186 86.7045C275.703 87.1989 275.107 87.5852 274.396 87.8636C273.686 88.1364 272.888 88.2727 272.001 88.2727ZM284.334 88.3068C283.504 88.3068 282.751 88.1506 282.075 87.8381C281.399 87.5199 280.862 87.0625 280.464 86.4659C280.067 85.8636 279.868 85.1364 279.868 84.2841C279.868 83.5341 280.016 82.9261 280.311 82.4602C280.607 81.9886 281.001 81.6193 281.496 81.3523C281.99 81.0852 282.536 80.8864 283.132 80.7557C283.734 80.6193 284.339 80.5114 284.947 80.4318C285.743 80.3295 286.388 80.2528 286.882 80.2017C287.382 80.1449 287.746 80.0511 287.973 79.9205C288.206 79.7898 288.322 79.5625 288.322 79.2386V79.1705C288.322 78.3295 288.092 77.6761 287.632 77.2102C287.178 76.7443 286.487 76.5114 285.561 76.5114C284.601 76.5114 283.848 76.7216 283.303 77.142C282.757 77.5625 282.374 78.0114 282.152 78.4886L280.243 77.8068C280.584 77.0114 281.038 76.392 281.607 75.9489C282.18 75.5 282.805 75.1875 283.482 75.0114C284.163 74.8295 284.834 74.7386 285.493 74.7386C285.913 74.7386 286.396 74.7898 286.942 74.892C287.493 74.9886 288.024 75.1903 288.536 75.4972C289.053 75.804 289.482 76.267 289.822 76.8864C290.163 77.5057 290.334 78.3352 290.334 79.375V88H288.322V86.2273H288.22C288.084 86.5114 287.857 86.8153 287.538 87.1392C287.22 87.4631 286.797 87.7386 286.268 87.9659C285.74 88.1932 285.095 88.3068 284.334 88.3068ZM284.641 86.5C285.436 86.5 286.107 86.3438 286.652 86.0312C287.203 85.7188 287.618 85.3153 287.896 84.821C288.18 84.3267 288.322 83.8068 288.322 83.2614V81.4205C288.237 81.5227 288.05 81.6165 287.76 81.7017C287.476 81.7812 287.146 81.8523 286.771 81.9148C286.402 81.9716 286.041 82.0227 285.689 82.0682C285.342 82.108 285.061 82.142 284.845 82.1705C284.322 82.2386 283.834 82.3494 283.379 82.5028C282.93 82.6506 282.567 82.875 282.288 83.1761C282.016 83.4716 281.879 83.875 281.879 84.3864C281.879 85.0852 282.138 85.6136 282.655 85.9716C283.178 86.3239 283.839 86.5 284.641 86.5ZM298.948 88.2727C297.857 88.2727 296.894 87.9972 296.059 87.446C295.224 86.8892 294.57 86.1051 294.099 85.0938C293.627 84.0767 293.391 82.875 293.391 81.4886C293.391 80.1136 293.627 78.9205 294.099 77.9091C294.57 76.8977 295.227 76.1165 296.067 75.5653C296.908 75.0142 297.88 74.7386 298.982 74.7386C299.835 74.7386 300.508 74.8807 301.002 75.1648C301.502 75.4432 301.883 75.7614 302.144 76.1193C302.411 76.4716 302.619 76.7614 302.766 76.9886H302.937V70.5455H304.948V88H303.005V85.9886H302.766C302.619 86.2273 302.408 86.5284 302.136 86.892C301.863 87.25 301.474 87.571 300.968 87.8551C300.462 88.1335 299.789 88.2727 298.948 88.2727ZM299.221 86.4659C300.028 86.4659 300.71 86.2557 301.266 85.8352C301.823 85.4091 302.246 84.821 302.536 84.071C302.826 83.3153 302.971 82.4432 302.971 81.4545C302.971 80.4773 302.829 79.6222 302.545 78.8892C302.261 78.1506 301.84 77.5767 301.283 77.1676C300.727 76.7528 300.039 76.5455 299.221 76.5455C298.369 76.5455 297.658 76.7642 297.09 77.2017C296.528 77.6335 296.104 78.2216 295.82 78.9659C295.542 79.7045 295.403 80.5341 295.403 81.4545C295.403 82.3864 295.545 83.233 295.829 83.9943C296.119 84.75 296.545 85.3523 297.107 85.8011C297.675 86.2443 298.38 86.4659 299.221 86.4659ZM316.377 79.2727C316.377 77.125 316.656 75.1506 317.212 73.3494C317.775 71.5426 318.576 69.8807 319.616 68.3636H321.388C320.979 68.9261 320.596 69.6193 320.238 70.4432C319.886 71.2614 319.576 72.1619 319.309 73.1449C319.042 74.1222 318.832 75.1335 318.678 76.179C318.531 77.2244 318.457 78.2557 318.457 79.2727C318.457 80.625 318.587 81.9972 318.849 83.3892C319.11 84.7812 319.462 86.0739 319.906 87.267C320.349 88.4602 320.843 89.4318 321.388 90.1818H319.616C318.576 88.6648 317.775 87.0057 317.212 85.2045C316.656 83.3977 316.377 81.4205 316.377 79.2727ZM329.777 88.2386C328.777 88.2386 327.876 88.0398 327.075 87.642C326.274 87.2443 325.632 86.6989 325.149 86.0057C324.666 85.3125 324.402 84.5227 324.357 83.6364H326.402C326.482 84.4261 326.839 85.0795 327.476 85.5966C328.118 86.108 328.885 86.3636 329.777 86.3636C330.493 86.3636 331.129 86.196 331.686 85.8608C332.249 85.5256 332.689 85.0653 333.007 84.4801C333.331 83.8892 333.493 83.2216 333.493 82.4773C333.493 81.7159 333.325 81.0369 332.99 80.4403C332.661 79.8381 332.206 79.3636 331.626 79.017C331.047 78.6705 330.385 78.4943 329.641 78.4886C329.107 78.483 328.558 78.5653 327.996 78.7358C327.433 78.9006 326.97 79.1136 326.607 79.375L324.629 79.1364L325.686 70.5455H334.754V72.4205H327.459L326.845 77.5682H326.947C327.305 77.2841 327.754 77.0483 328.294 76.8608C328.834 76.6733 329.396 76.5795 329.982 76.5795C331.05 76.5795 332.001 76.8352 332.837 77.3466C333.678 77.8523 334.337 78.5455 334.814 79.4261C335.297 80.3068 335.538 81.3125 335.538 82.4432C335.538 83.5568 335.288 84.5511 334.788 85.4261C334.294 86.2955 333.612 86.983 332.743 87.4886C331.874 87.9886 330.885 88.2386 329.777 88.2386ZM344.822 88.2386C343.697 88.2386 342.694 88.0455 341.813 87.6591C340.938 87.2727 340.242 86.7358 339.725 86.0483C339.214 85.3551 338.935 84.5511 338.89 83.6364H341.038C341.083 84.1989 341.276 84.6847 341.617 85.0938C341.958 85.4972 342.404 85.8097 342.955 86.0312C343.506 86.2528 344.117 86.3636 344.788 86.3636C345.538 86.3636 346.202 86.233 346.782 85.9716C347.362 85.7102 347.816 85.3466 348.146 84.8807C348.475 84.4148 348.64 83.875 348.64 83.2614C348.64 82.6193 348.481 82.054 348.163 81.5653C347.844 81.071 347.379 80.6847 346.765 80.4062C346.151 80.1278 345.401 79.9886 344.515 79.9886H343.117V78.1136H344.515C345.208 78.1136 345.816 77.9886 346.339 77.7386C346.867 77.4886 347.279 77.1364 347.575 76.6818C347.876 76.2273 348.026 75.6932 348.026 75.0795C348.026 74.4886 347.896 73.9744 347.634 73.5369C347.373 73.0994 347.004 72.7585 346.526 72.5142C346.055 72.2699 345.498 72.1477 344.856 72.1477C344.254 72.1477 343.685 72.2585 343.151 72.4801C342.623 72.696 342.191 73.0114 341.856 73.4261C341.521 73.8352 341.339 74.3295 341.31 74.9091H339.265C339.299 73.9943 339.575 73.1932 340.092 72.5057C340.609 71.8125 341.285 71.2727 342.12 70.8864C342.961 70.5 343.884 70.3068 344.89 70.3068C345.969 70.3068 346.896 70.5256 347.668 70.9631C348.441 71.3949 349.035 71.9659 349.45 72.6761C349.864 73.3864 350.072 74.1534 350.072 74.9773C350.072 75.9602 349.813 76.7983 349.296 77.4915C348.785 78.1847 348.089 78.6648 347.208 78.9318V79.0682C348.31 79.25 349.171 79.7187 349.79 80.4744C350.41 81.2244 350.719 82.1534 350.719 83.2614C350.719 84.2102 350.461 85.0625 349.944 85.8182C349.433 86.5682 348.734 87.1591 347.847 87.5909C346.961 88.0227 345.952 88.2386 344.822 88.2386ZM358.535 79.2727C358.535 81.4205 358.254 83.3977 357.691 85.2045C357.134 87.0057 356.336 88.6648 355.296 90.1818H353.523C353.933 89.6193 354.313 88.9261 354.665 88.1023C355.023 87.2841 355.336 86.3864 355.603 85.4091C355.87 84.4261 356.077 83.4119 356.225 82.3665C356.379 81.3153 356.455 80.2841 356.455 79.2727C356.455 77.9205 356.325 76.5483 356.063 75.1562C355.802 73.7642 355.45 72.4716 355.006 71.2784C354.563 70.0852 354.069 69.1136 353.523 68.3636H355.296C356.336 69.8807 357.134 71.5426 357.691 73.3494C358.254 75.1506 358.535 77.125 358.535 79.2727Z" fill="white"/>
<path d="M1036.18 67.7273V91H1033.37V70.6818H1033.23L1027.55 74.4545V71.5909L1033.37 67.7273H1036.18ZM1050.29 67.4091C1051.24 67.4167 1052.2 67.5985 1053.15 67.9545C1054.11 68.3106 1054.98 68.9015 1055.76 69.7273C1056.55 70.5455 1057.18 71.6629 1057.66 73.0795C1058.14 74.4962 1058.38 76.2727 1058.38 78.4091C1058.38 80.4773 1058.18 82.3144 1057.79 83.9205C1057.4 85.5189 1056.84 86.8674 1056.11 87.9659C1055.38 89.0644 1054.49 89.8977 1053.45 90.4659C1052.41 91.0341 1051.23 91.3182 1049.92 91.3182C1048.62 91.3182 1047.46 91.0606 1046.43 90.5455C1045.42 90.0227 1044.59 89.2992 1043.93 88.375C1043.29 87.4432 1042.88 86.3636 1042.7 85.1364H1045.47C1045.72 86.2045 1046.21 87.0871 1046.96 87.7841C1047.71 88.4735 1048.7 88.8182 1049.92 88.8182C1051.72 88.8182 1053.14 88.0341 1054.17 86.4659C1055.22 84.8977 1055.74 82.6818 1055.74 79.8182H1055.56C1055.14 80.4545 1054.63 81.0038 1054.05 81.4659C1053.46 81.928 1052.82 82.2841 1052.11 82.5341C1051.39 82.7841 1050.64 82.9091 1049.83 82.9091C1048.5 82.9091 1047.28 82.5795 1046.16 81.9205C1045.06 81.2538 1044.17 80.3409 1043.5 79.1818C1042.84 78.0152 1042.51 76.6818 1042.51 75.1818C1042.51 73.7576 1042.83 72.4545 1043.47 71.2727C1044.11 70.0833 1045.01 69.1364 1046.17 68.4318C1047.34 67.7273 1048.71 67.3864 1050.29 67.4091ZM1050.29 69.9091C1049.33 69.9091 1048.47 70.1477 1047.71 70.625C1046.95 71.0947 1046.35 71.7311 1045.9 72.5341C1045.46 73.3295 1045.24 74.2121 1045.24 75.1818C1045.24 76.1515 1045.45 77.0341 1045.88 77.8295C1046.31 78.6174 1046.9 79.2462 1047.64 79.7159C1048.39 80.178 1049.24 80.4091 1050.2 80.4091C1050.92 80.4091 1051.59 80.2689 1052.21 79.9886C1052.83 79.7008 1053.37 79.3106 1053.83 78.8182C1054.3 78.3182 1054.67 77.7538 1054.93 77.125C1055.2 76.4886 1055.33 75.8258 1055.33 75.1364C1055.33 74.2273 1055.11 73.375 1054.67 72.5795C1054.24 71.7841 1053.64 71.1402 1052.88 70.6477C1052.12 70.1553 1051.26 69.9091 1050.29 69.9091ZM1070.26 67.4091C1071.21 67.4167 1072.16 67.5985 1073.12 67.9545C1074.07 68.3106 1074.95 68.9015 1075.73 69.7273C1076.52 70.5455 1077.15 71.6629 1077.63 73.0795C1078.11 74.4962 1078.35 76.2727 1078.35 78.4091C1078.35 80.4773 1078.15 82.3144 1077.76 83.9205C1077.37 85.5189 1076.81 86.8674 1076.07 87.9659C1075.35 89.0644 1074.46 89.8977 1073.41 90.4659C1072.38 91.0341 1071.2 91.3182 1069.89 91.3182C1068.59 91.3182 1067.43 91.0606 1066.4 90.5455C1065.39 90.0227 1064.55 89.2992 1063.9 88.375C1063.26 87.4432 1062.85 86.3636 1062.66 85.1364H1065.44C1065.69 86.2045 1066.18 87.0871 1066.93 87.7841C1067.68 88.4735 1068.66 88.8182 1069.89 88.8182C1071.69 88.8182 1073.1 88.0341 1074.14 86.4659C1075.19 84.8977 1075.71 82.6818 1075.71 79.8182H1075.53C1075.1 80.4545 1074.6 81.0038 1074.02 81.4659C1073.43 81.928 1072.79 82.2841 1072.07 82.5341C1071.36 82.7841 1070.6 82.9091 1069.8 82.9091C1068.47 82.9091 1067.24 82.5795 1066.13 81.9205C1065.02 81.2538 1064.14 80.3409 1063.47 79.1818C1062.81 78.0152 1062.48 76.6818 1062.48 75.1818C1062.48 73.7576 1062.8 72.4545 1063.44 71.2727C1064.08 70.0833 1064.98 69.1364 1066.14 68.4318C1067.31 67.7273 1068.68 67.3864 1070.26 67.4091ZM1070.26 69.9091C1069.3 69.9091 1068.44 70.1477 1067.68 70.625C1066.92 71.0947 1066.32 71.7311 1065.87 72.5341C1065.43 73.3295 1065.21 74.2121 1065.21 75.1818C1065.21 76.1515 1065.42 77.0341 1065.85 77.8295C1066.28 78.6174 1066.87 79.2462 1067.61 79.7159C1068.36 80.178 1069.21 80.4091 1070.16 80.4091C1070.88 80.4091 1071.55 80.2689 1072.18 79.9886C1072.8 79.7008 1073.34 79.3106 1073.8 78.8182C1074.27 78.3182 1074.64 77.7538 1074.9 77.125C1075.17 76.4886 1075.3 75.8258 1075.3 75.1364C1075.3 74.2273 1075.08 73.375 1074.64 72.5795C1074.21 71.7841 1073.61 71.1402 1072.85 70.6477C1072.09 70.1553 1071.23 69.9091 1070.26 69.9091Z" fill="white"/>
<line x1="48" y1="150.5" x2="1053" y2="150.5" stroke="white"/>
<line x1="48.5" y1="117" x2="48.5" y2="185" stroke="white"/>
<line x1="94.5" y1="133" x2="94.5" y2="169" stroke="white"/>
<line x1="209.5" y1="133" x2="209.5" y2="169" stroke="white"/>
<line x1="373.5" y1="133" x2="373.5" y2="169" stroke="white"/>
<line x1="384.5" y1="133" x2="384.5" y2="169" stroke="white"/>
<line x1="303.5" y1="117" x2="303.5" y2="185" stroke="white"/>
<line x1="535.5" y1="133" x2="535.5" y2="169" stroke="white"/>
<line x1="661.5" y1="133" x2="661.5" y2="169" stroke="white"/>
<line x1="668.5" y1="133" x2="668.5" y2="169" stroke="white"/>
<line x1="970.5" y1="133" x2="970.5" y2="169" stroke="white"/>
<line x1="1053.5" y1="117" x2="1053.5" y2="185" stroke="white"/>
<path d="M451.017 16.5856V12.9091H468.338V16.5856H461.881V34H457.474V16.5856H451.017ZM469.466 34V18.1818H473.719V20.9418H473.884C474.172 19.96 474.656 19.2185 475.336 18.7173C476.016 18.2093 476.798 17.9553 477.684 17.9553C477.904 17.9553 478.141 17.969 478.395 17.9964C478.649 18.0239 478.872 18.0617 479.064 18.1097V22.0025C478.858 21.9407 478.573 21.8858 478.209 21.8377C477.845 21.7897 477.512 21.7656 477.21 21.7656C476.565 21.7656 475.988 21.9064 475.48 22.1879C474.979 22.4625 474.581 22.8469 474.286 23.3413C473.997 23.8356 473.853 24.4054 473.853 25.0508V34H469.466ZM485.39 34.2987C484.381 34.2987 483.481 34.1236 482.692 33.7734C481.902 33.4164 481.277 32.8912 480.817 32.1978C480.364 31.4975 480.138 30.6256 480.138 29.582C480.138 28.7032 480.299 27.9652 480.622 27.3679C480.944 26.7706 481.384 26.29 481.94 25.9261C482.496 25.5623 483.128 25.2876 483.835 25.1023C484.549 24.9169 485.297 24.7865 486.08 24.7109C487 24.6148 487.741 24.5256 488.304 24.4432C488.867 24.3539 489.276 24.2235 489.53 24.0518C489.784 23.8802 489.911 23.6262 489.911 23.2898V23.228C489.911 22.5758 489.705 22.0711 489.293 21.7141C488.888 21.3571 488.311 21.1786 487.563 21.1786C486.773 21.1786 486.145 21.3537 485.678 21.7038C485.211 22.0471 484.902 22.4796 484.751 23.0014L480.694 22.6719C480.9 21.7107 481.305 20.88 481.909 20.1797C482.513 19.4725 483.292 18.9302 484.247 18.5526C485.208 18.1681 486.32 17.9759 487.583 17.9759C488.462 17.9759 489.303 18.0788 490.106 18.2848C490.917 18.4908 491.634 18.81 492.259 19.2425C492.89 19.6751 493.388 20.2312 493.752 20.9109C494.116 21.5837 494.298 22.3904 494.298 23.331V34H490.137V31.8065H490.014C489.76 32.3008 489.42 32.7367 488.994 33.1143C488.569 33.4851 488.057 33.7769 487.46 33.9897C486.862 34.1957 486.172 34.2987 485.39 34.2987ZM486.646 31.271C487.292 31.271 487.861 31.1439 488.356 30.8899C488.85 30.629 489.238 30.2789 489.519 29.8395C489.801 29.4001 489.942 28.9023 489.942 28.3462V26.6676C489.804 26.7569 489.616 26.8393 489.375 26.9148C489.142 26.9834 488.877 27.0487 488.582 27.1104C488.287 27.1654 487.992 27.2169 487.697 27.2649C487.401 27.3061 487.134 27.3439 486.893 27.3782C486.378 27.4537 485.929 27.5739 485.544 27.7386C485.16 27.9034 484.861 28.1265 484.648 28.408C484.435 28.6826 484.329 29.0259 484.329 29.4379C484.329 30.0352 484.545 30.4917 484.978 30.8075C485.417 31.1165 485.973 31.271 486.646 31.271ZM504.848 34.3089C503.228 34.3089 501.834 33.9657 500.667 33.2791C499.507 32.5857 498.615 31.6245 497.99 30.3956C497.372 29.1667 497.063 27.7524 497.063 26.1527C497.063 24.5324 497.375 23.1113 498 21.8892C498.632 20.6603 499.528 19.7025 500.688 19.016C501.848 18.3226 503.228 17.9759 504.828 17.9759C506.208 17.9759 507.416 18.2264 508.453 18.7276C509.49 19.2288 510.31 19.9325 510.914 20.8388C511.518 21.745 511.851 22.8092 511.913 24.0312H507.773C507.656 23.2417 507.347 22.6067 506.846 22.1261C506.352 21.6386 505.703 21.3949 504.9 21.3949C504.22 21.3949 503.626 21.5803 503.118 21.951C502.617 22.3149 502.226 22.8469 501.944 23.5472C501.663 24.2475 501.522 25.0954 501.522 26.0909C501.522 27.1001 501.659 27.9583 501.934 28.6655C502.215 29.3726 502.61 29.9116 503.118 30.2823C503.626 30.6531 504.22 30.8384 504.9 30.8384C505.401 30.8384 505.851 30.7354 506.249 30.5295C506.654 30.3235 506.987 30.0249 507.248 29.6335C507.516 29.2353 507.691 28.7582 507.773 28.2021H511.913C511.844 29.4104 511.515 30.4746 510.924 31.3945C510.341 32.3076 509.534 33.0217 508.504 33.5366C507.474 34.0515 506.256 34.3089 504.848 34.3089ZM518.697 29.4482L518.707 24.1857H519.346L524.413 18.1818H529.448L522.641 26.1321H521.601L518.697 29.4482ZM514.722 34V12.9091H519.109V34H514.722ZM524.608 34L519.953 27.1104L522.878 24.0107L529.747 34H524.608ZM556.036 12.9091V34H552.185L543.009 20.7255H542.854V34H538.395V12.9091H542.308L551.412 26.1733H551.598V12.9091H556.036ZM569.782 27.2649V18.1818H574.169V34H569.957V31.1268H569.792C569.435 32.0536 568.841 32.7985 568.01 33.3615C567.187 33.9245 566.181 34.206 564.993 34.206C563.936 34.206 563.005 33.9657 562.202 33.4851C561.399 33.0045 560.771 32.3214 560.318 31.4357C559.871 30.5501 559.645 29.4893 559.638 28.2536V18.1818H564.025V27.4709C564.032 28.4046 564.282 29.1426 564.777 29.685C565.271 30.2274 565.934 30.4986 566.764 30.4986C567.293 30.4986 567.787 30.3784 568.247 30.1381C568.707 29.891 569.078 29.5271 569.36 29.0465C569.648 28.5659 569.789 27.9721 569.782 27.2649ZM577.678 34V18.1818H581.859V20.9727H582.044C582.374 20.0458 582.923 19.3146 583.692 18.7791C584.461 18.2436 585.381 17.9759 586.452 17.9759C587.537 17.9759 588.46 18.247 589.222 18.7894C589.984 19.3249 590.492 20.0527 590.746 20.9727H590.911C591.234 20.0664 591.818 19.3421 592.662 18.7997C593.513 18.2505 594.519 17.9759 595.679 17.9759C597.155 17.9759 598.354 18.4461 599.273 19.3867C600.2 20.3204 600.664 21.6455 600.664 23.3619V34H596.287V24.2269C596.287 23.3481 596.054 22.689 595.587 22.2496C595.12 21.8103 594.536 21.5906 593.836 21.5906C593.04 21.5906 592.418 21.8446 591.972 22.3526C591.526 22.8538 591.303 23.5163 591.303 24.3402V34H587.049V24.1342C587.049 23.3584 586.826 22.7405 586.38 22.2805C585.941 21.8205 585.36 21.5906 584.64 21.5906C584.152 21.5906 583.713 21.7141 583.321 21.9613C582.937 22.2016 582.631 22.5414 582.405 22.9808C582.178 23.4134 582.065 23.9214 582.065 24.505V34H577.678ZM604.212 34V12.9091H608.599V20.8388H608.732C608.925 20.4131 609.203 19.9806 609.567 19.5412C609.937 19.0949 610.418 18.7242 611.008 18.429C611.606 18.1269 612.347 17.9759 613.233 17.9759C614.386 17.9759 615.45 18.2779 616.425 18.8821C617.4 19.4794 618.179 20.3822 618.763 21.5906C619.347 22.792 619.638 24.299 619.638 26.1115C619.638 27.8759 619.353 29.3658 618.784 30.581C618.221 31.7893 617.452 32.7058 616.477 33.3306C615.509 33.9485 614.424 34.2575 613.223 34.2575C612.371 34.2575 611.647 34.1167 611.05 33.8352C610.459 33.5537 609.975 33.2002 609.598 32.7745C609.22 32.342 608.932 31.906 608.732 31.4666H608.537V34H604.212ZM608.506 26.0909C608.506 27.0315 608.636 27.8519 608.897 28.5522C609.158 29.2525 609.536 29.7983 610.03 30.1896C610.524 30.5741 611.125 30.7663 611.832 30.7663C612.546 30.7663 613.15 30.5707 613.645 30.1793C614.139 29.7811 614.513 29.2319 614.767 28.5316C615.028 27.8245 615.159 27.0109 615.159 26.0909C615.159 25.1778 615.032 24.3745 614.778 23.6811C614.524 22.9877 614.149 22.4453 613.655 22.054C613.161 21.6626 612.553 21.467 611.832 21.467C611.118 21.467 610.514 21.6558 610.02 22.0334C609.532 22.411 609.158 22.9465 608.897 23.6399C608.636 24.3333 608.506 25.1503 608.506 26.0909ZM629.774 34.3089C628.147 34.3089 626.747 33.9794 625.573 33.3203C624.406 32.6544 623.506 31.7138 622.875 30.4986C622.243 29.2765 621.927 27.8313 621.927 26.163C621.927 24.5359 622.243 23.1078 622.875 21.8789C623.506 20.65 624.395 19.6922 625.542 19.0057C626.695 18.3191 628.048 17.9759 629.599 17.9759C630.643 17.9759 631.614 18.1441 632.514 18.4805C633.42 18.81 634.21 19.3078 634.882 19.9737C635.562 20.6397 636.091 21.4773 636.468 22.4865C636.846 23.4889 637.035 24.6629 637.035 26.0085V27.2134H623.678V24.4947H632.905C632.905 23.863 632.768 23.3035 632.493 22.8161C632.219 22.3286 631.838 21.9476 631.35 21.6729C630.87 21.3915 630.31 21.2507 629.671 21.2507C629.006 21.2507 628.415 21.4052 627.9 21.7141C627.392 22.0162 626.994 22.4247 626.706 22.9396C626.417 23.4477 626.27 24.0141 626.263 24.6388V27.2237C626.263 28.0064 626.407 28.6826 626.695 29.2525C626.99 29.8223 627.406 30.2617 627.941 30.5707C628.477 30.8796 629.112 31.0341 629.847 31.0341C630.334 31.0341 630.78 30.9654 631.185 30.8281C631.59 30.6908 631.937 30.4848 632.225 30.2102C632.514 29.9356 632.734 29.5992 632.885 29.201L636.942 29.4688C636.736 30.4437 636.314 31.295 635.675 32.0227C635.044 32.7436 634.227 33.3066 633.224 33.7116C632.229 34.1098 631.079 34.3089 629.774 34.3089ZM639.898 34V18.1818H644.151V20.9418H644.316C644.604 19.96 645.088 19.2185 645.768 18.7173C646.447 18.2093 647.23 17.9553 648.116 17.9553C648.335 17.9553 648.572 17.969 648.826 17.9964C649.08 18.0239 649.303 18.0617 649.496 18.1097V22.0025C649.29 21.9407 649.005 21.8858 648.641 21.8377C648.277 21.7897 647.944 21.7656 647.642 21.7656C646.997 21.7656 646.42 21.9064 645.912 22.1879C645.411 22.4625 645.013 22.8469 644.717 23.3413C644.429 23.8356 644.285 24.4054 644.285 25.0508V34H639.898Z" fill="#717171"/>
<path d="M449.987 39.767H650V41.7443H449.987V39.767Z" fill="#717171"/>
<path d="M311.25 271.75L295.75 287.25" stroke="#FF0000" stroke-width="2" stroke-linecap="round" stroke-linejoin="round"/>
<path d="M295.75 271.75L311.25 287.25" stroke="#FF0000" stroke-width="2" stroke-linecap="round" stroke-linejoin="round"/>
<path d="M552.481 246.307C553.197 246.312 553.913 246.449 554.629 246.716C555.344 246.983 555.998 247.426 556.589 248.045C557.18 248.659 557.654 249.497 558.012 250.56C558.37 251.622 558.549 252.955 558.549 254.557C558.549 256.108 558.401 257.486 558.106 258.69C557.816 259.889 557.396 260.901 556.844 261.724C556.299 262.548 555.634 263.173 554.85 263.599C554.072 264.026 553.191 264.239 552.208 264.239C551.231 264.239 550.359 264.045 549.592 263.659C548.83 263.267 548.205 262.724 547.717 262.031C547.234 261.332 546.924 260.523 546.788 259.602H548.867C549.055 260.403 549.427 261.065 549.984 261.588C550.546 262.105 551.288 262.364 552.208 262.364C553.555 262.364 554.617 261.776 555.396 260.599C556.18 259.423 556.572 257.761 556.572 255.614H556.435C556.117 256.091 555.739 256.503 555.302 256.849C554.864 257.196 554.379 257.463 553.844 257.651C553.31 257.838 552.742 257.932 552.14 257.932C551.14 257.932 550.222 257.685 549.387 257.19C548.558 256.69 547.893 256.006 547.393 255.136C546.898 254.261 546.651 253.261 546.651 252.136C546.651 251.068 546.89 250.091 547.367 249.205C547.85 248.312 548.526 247.602 549.396 247.074C550.271 246.545 551.299 246.29 552.481 246.307ZM552.481 248.182C551.765 248.182 551.12 248.361 550.546 248.719C549.978 249.071 549.526 249.548 549.191 250.151C548.862 250.747 548.697 251.409 548.697 252.136C548.697 252.864 548.856 253.526 549.174 254.122C549.498 254.713 549.938 255.185 550.495 255.537C551.058 255.884 551.697 256.057 552.413 256.057C552.952 256.057 553.455 255.952 553.921 255.741C554.387 255.526 554.793 255.233 555.14 254.864C555.492 254.489 555.768 254.065 555.967 253.594C556.165 253.116 556.265 252.619 556.265 252.102C556.265 251.42 556.1 250.781 555.771 250.185C555.447 249.588 554.998 249.105 554.424 248.736C553.856 248.366 553.208 248.182 552.481 248.182ZM567.491 264.239C566.321 264.239 565.287 264.031 564.389 263.616C563.497 263.196 562.801 262.619 562.301 261.886C561.801 261.148 561.554 260.307 561.56 259.364C561.554 258.625 561.699 257.943 561.994 257.318C562.29 256.687 562.693 256.162 563.205 255.741C563.722 255.315 564.298 255.045 564.935 254.932V254.83C564.099 254.614 563.435 254.145 562.94 253.423C562.446 252.696 562.202 251.869 562.207 250.943C562.202 250.057 562.426 249.264 562.881 248.565C563.335 247.866 563.96 247.315 564.756 246.912C565.557 246.509 566.469 246.307 567.491 246.307C568.503 246.307 569.406 246.509 570.202 246.912C570.997 247.315 571.622 247.866 572.077 248.565C572.537 249.264 572.77 250.057 572.776 250.943C572.77 251.869 572.517 252.696 572.017 253.423C571.523 254.145 570.866 254.614 570.048 254.83V254.932C570.679 255.045 571.247 255.315 571.753 255.741C572.259 256.162 572.662 256.687 572.963 257.318C573.264 257.943 573.418 258.625 573.423 259.364C573.418 260.307 573.162 261.148 572.656 261.886C572.156 262.619 571.46 263.196 570.568 263.616C569.682 264.031 568.656 264.239 567.491 264.239ZM567.491 262.364C568.281 262.364 568.963 262.236 569.537 261.98C570.111 261.724 570.554 261.364 570.866 260.898C571.179 260.432 571.338 259.886 571.344 259.261C571.338 258.602 571.168 258.02 570.832 257.514C570.497 257.009 570.04 256.611 569.46 256.321C568.886 256.031 568.23 255.886 567.491 255.886C566.747 255.886 566.082 256.031 565.497 256.321C564.918 256.611 564.46 257.009 564.125 257.514C563.795 258.02 563.634 258.602 563.639 259.261C563.634 259.886 563.784 260.432 564.091 260.898C564.403 261.364 564.849 261.724 565.429 261.98C566.009 262.236 566.696 262.364 567.491 262.364ZM567.491 254.08C568.116 254.08 568.67 253.955 569.153 253.705C569.642 253.455 570.026 253.105 570.304 252.656C570.582 252.207 570.724 251.682 570.73 251.08C570.724 250.489 570.585 249.974 570.312 249.537C570.04 249.094 569.662 248.753 569.179 248.514C568.696 248.27 568.134 248.148 567.491 248.148C566.838 248.148 566.267 248.27 565.778 248.514C565.29 248.753 564.912 249.094 564.645 249.537C564.378 249.974 564.247 250.489 564.253 251.08C564.247 251.682 564.381 252.207 564.653 252.656C564.932 253.105 565.315 253.455 565.804 253.705C566.293 253.955 566.855 254.08 567.491 254.08Z" fill="white"/>
<path d="M981.33 246.545V264H979.216V248.761H979.114L974.853 251.591V249.443L979.216 246.545H981.33ZM991.941 264.239C990.77 264.239 989.736 264.031 988.838 263.616C987.946 263.196 987.25 262.619 986.75 261.886C986.25 261.148 986.003 260.307 986.009 259.364C986.003 258.625 986.148 257.943 986.444 257.318C986.739 256.687 987.142 256.162 987.654 255.741C988.171 255.315 988.748 255.045 989.384 254.932V254.83C988.549 254.614 987.884 254.145 987.39 253.423C986.895 252.696 986.651 251.869 986.657 250.943C986.651 250.057 986.875 249.264 987.33 248.565C987.784 247.866 988.409 247.315 989.205 246.912C990.006 246.509 990.918 246.307 991.941 246.307C992.952 246.307 993.855 246.509 994.651 246.912C995.446 247.315 996.071 247.866 996.526 248.565C996.986 249.264 997.219 250.057 997.225 250.943C997.219 251.869 996.966 252.696 996.466 253.423C995.972 254.145 995.316 254.614 994.498 254.83V254.932C995.128 255.045 995.696 255.315 996.202 255.741C996.708 256.162 997.111 256.687 997.412 257.318C997.713 257.943 997.867 258.625 997.873 259.364C997.867 260.307 997.611 261.148 997.105 261.886C996.605 262.619 995.909 263.196 995.017 263.616C994.131 264.031 993.105 264.239 991.941 264.239ZM991.941 262.364C992.73 262.364 993.412 262.236 993.986 261.98C994.56 261.724 995.003 261.364 995.316 260.898C995.628 260.432 995.787 259.886 995.793 259.261C995.787 258.602 995.617 258.02 995.282 257.514C994.946 257.009 994.489 256.611 993.909 256.321C993.336 256.031 992.679 255.886 991.941 255.886C991.196 255.886 990.532 256.031 989.946 256.321C989.367 256.611 988.909 257.009 988.574 257.514C988.245 258.02 988.083 258.602 988.088 259.261C988.083 259.886 988.233 260.432 988.54 260.898C988.853 261.364 989.299 261.724 989.878 261.98C990.458 262.236 991.145 262.364 991.941 262.364ZM991.941 254.08C992.566 254.08 993.12 253.955 993.603 253.705C994.091 253.455 994.475 253.105 994.753 252.656C995.032 252.207 995.174 251.682 995.179 251.08C995.174 250.489 995.034 249.974 994.762 249.537C994.489 249.094 994.111 248.753 993.628 248.514C993.145 248.27 992.583 248.148 991.941 248.148C991.287 248.148 990.716 248.27 990.228 248.514C989.739 248.753 989.361 249.094 989.094 249.537C988.827 249.974 988.696 250.489 988.702 251.08C988.696 251.682 988.83 252.207 989.103 252.656C989.381 253.105 989.765 253.455 990.253 253.705C990.742 253.955 991.304 254.08 991.941 254.08ZM1007.04 264.239C1005.91 264.239 1004.91 264.045 1004.03 263.659C1003.15 263.273 1002.46 262.736 1001.94 262.048C1001.43 261.355 1001.15 260.551 1001.1 259.636H1003.25C1003.3 260.199 1003.49 260.685 1003.83 261.094C1004.17 261.497 1004.62 261.81 1005.17 262.031C1005.72 262.253 1006.33 262.364 1007 262.364C1007.75 262.364 1008.42 262.233 1009 261.972C1009.58 261.71 1010.03 261.347 1010.36 260.881C1010.69 260.415 1010.85 259.875 1010.85 259.261C1010.85 258.619 1010.7 258.054 1010.38 257.565C1010.06 257.071 1009.59 256.685 1008.98 256.406C1008.37 256.128 1007.62 255.989 1006.73 255.989H1005.33V254.114H1006.73C1007.42 254.114 1008.03 253.989 1008.55 253.739C1009.08 253.489 1009.49 253.136 1009.79 252.682C1010.09 252.227 1010.24 251.693 1010.24 251.08C1010.24 250.489 1010.11 249.974 1009.85 249.537C1009.59 249.099 1009.22 248.759 1008.74 248.514C1008.27 248.27 1007.71 248.148 1007.07 248.148C1006.47 248.148 1005.9 248.259 1005.37 248.48C1004.84 248.696 1004.41 249.011 1004.07 249.426C1003.74 249.835 1003.55 250.33 1003.53 250.909H1001.48C1001.51 249.994 1001.79 249.193 1002.31 248.506C1002.82 247.812 1003.5 247.273 1004.33 246.886C1005.18 246.5 1006.1 246.307 1007.1 246.307C1008.18 246.307 1009.11 246.526 1009.88 246.963C1010.66 247.395 1011.25 247.966 1011.66 248.676C1012.08 249.386 1012.29 250.153 1012.29 250.977C1012.29 251.96 1012.03 252.798 1011.51 253.491C1011 254.185 1010.3 254.665 1009.42 254.932V255.068C1010.53 255.25 1011.39 255.719 1012.01 256.474C1012.62 257.224 1012.93 258.153 1012.93 259.261C1012.93 260.21 1012.68 261.062 1012.16 261.818C1011.65 262.568 1010.95 263.159 1010.06 263.591C1009.18 264.023 1008.17 264.239 1007.04 264.239Z" fill="white"/>
<path d="M221.208 265.239C220.083 265.239 219.081 265.045 218.2 264.659C217.325 264.273 216.629 263.736 216.112 263.048C215.6 262.355 215.322 261.551 215.277 260.636H217.424C217.47 261.199 217.663 261.685 218.004 262.094C218.345 262.497 218.791 262.81 219.342 263.031C219.893 263.253 220.504 263.364 221.174 263.364C221.924 263.364 222.589 263.233 223.169 262.972C223.748 262.71 224.203 262.347 224.532 261.881C224.862 261.415 225.027 260.875 225.027 260.261C225.027 259.619 224.868 259.054 224.549 258.565C224.231 258.071 223.765 257.685 223.152 257.406C222.538 257.128 221.788 256.989 220.902 256.989H219.504V255.114H220.902C221.595 255.114 222.203 254.989 222.725 254.739C223.254 254.489 223.666 254.136 223.961 253.682C224.262 253.227 224.413 252.693 224.413 252.08C224.413 251.489 224.282 250.974 224.021 250.537C223.76 250.099 223.39 249.759 222.913 249.514C222.441 249.27 221.885 249.148 221.243 249.148C220.64 249.148 220.072 249.259 219.538 249.48C219.01 249.696 218.578 250.011 218.243 250.426C217.907 250.835 217.725 251.33 217.697 251.909H215.652C215.686 250.994 215.961 250.193 216.478 249.506C216.995 248.812 217.672 248.273 218.507 247.886C219.348 247.5 220.271 247.307 221.277 247.307C222.356 247.307 223.282 247.526 224.055 247.963C224.828 248.395 225.422 248.966 225.836 249.676C226.251 250.386 226.458 251.153 226.458 251.977C226.458 252.96 226.2 253.798 225.683 254.491C225.172 255.185 224.475 255.665 223.595 255.932V256.068C224.697 256.25 225.558 256.719 226.177 257.474C226.797 258.224 227.106 259.153 227.106 260.261C227.106 261.21 226.848 262.062 226.331 262.818C225.819 263.568 225.12 264.159 224.234 264.591C223.348 265.023 222.339 265.239 221.208 265.239ZM231.137 265L238.944 249.557V249.42H229.944V247.545H241.126V249.523L233.353 265H231.137Z" fill="white"/>
<path d="M615.834 246.545V264H613.72V248.761H613.618L609.357 251.591V249.443L613.72 246.545H615.834ZM620.854 264V262.466L626.615 256.159C627.291 255.42 627.848 254.778 628.286 254.233C628.723 253.682 629.047 253.165 629.257 252.682C629.473 252.193 629.581 251.682 629.581 251.148C629.581 250.534 629.433 250.003 629.138 249.554C628.848 249.105 628.45 248.759 627.945 248.514C627.439 248.27 626.871 248.148 626.24 248.148C625.57 248.148 624.984 248.287 624.484 248.565C623.99 248.838 623.607 249.222 623.334 249.716C623.067 250.21 622.933 250.79 622.933 251.455H620.922C620.922 250.432 621.158 249.534 621.629 248.761C622.101 247.989 622.743 247.386 623.555 246.955C624.374 246.523 625.291 246.307 626.308 246.307C627.331 246.307 628.237 246.523 629.027 246.955C629.817 247.386 630.436 247.969 630.885 248.702C631.334 249.435 631.558 250.25 631.558 251.148C631.558 251.79 631.442 252.418 631.209 253.031C630.982 253.639 630.584 254.318 630.016 255.068C629.453 255.812 628.672 256.722 627.672 257.795L623.751 261.989V262.125H631.865V264H620.854ZM635.385 264V262.466L641.146 256.159C641.822 255.42 642.379 254.778 642.817 254.233C643.254 253.682 643.578 253.165 643.788 252.682C644.004 252.193 644.112 251.682 644.112 251.148C644.112 250.534 643.964 250.003 643.669 249.554C643.379 249.105 642.982 248.759 642.476 248.514C641.97 248.27 641.402 248.148 640.771 248.148C640.101 248.148 639.516 248.287 639.016 248.565C638.521 248.838 638.138 249.222 637.865 249.716C637.598 250.21 637.464 250.79 637.464 251.455H635.453C635.453 250.432 635.689 249.534 636.161 248.761C636.632 247.989 637.274 247.386 638.087 246.955C638.905 246.523 639.822 246.307 640.839 246.307C641.862 246.307 642.768 246.523 643.558 246.955C644.348 247.386 644.967 247.969 645.416 248.702C645.865 249.435 646.089 250.25 646.089 251.148C646.089 251.79 645.973 252.418 645.74 253.031C645.513 253.639 645.115 254.318 644.547 255.068C643.984 255.812 643.203 256.722 642.203 257.795L638.283 261.989V262.125H646.396V264H635.385Z" fill="white"/>
<path d="M102.666 247.545V265H100.552V249.761H100.45L96.1886 252.591V250.443L100.552 247.545H102.666ZM107.277 261.42V259.682L114.947 247.545H116.208V250.239H115.356L109.561 259.409V259.545H119.89V261.42H107.277ZM115.493 265V260.892V260.082V247.545H117.504V265H115.493Z" fill="white"/>
<path d="M692.588 246.545V264H690.474V248.761H690.372L686.11 251.591V249.443L690.474 246.545H692.588ZM697.608 264V262.466L703.369 256.159C704.045 255.42 704.602 254.778 705.039 254.233C705.477 253.682 705.801 253.165 706.011 252.682C706.227 252.193 706.335 251.682 706.335 251.148C706.335 250.534 706.187 250.003 705.892 249.554C705.602 249.105 705.204 248.759 704.699 248.514C704.193 248.27 703.625 248.148 702.994 248.148C702.324 248.148 701.738 248.287 701.238 248.565C700.744 248.838 700.36 249.222 700.088 249.716C699.821 250.21 699.687 250.79 699.687 251.455H697.676C697.676 250.432 697.912 249.534 698.383 248.761C698.855 247.989 699.497 247.386 700.309 246.955C701.127 246.523 702.045 246.307 703.062 246.307C704.085 246.307 704.991 246.523 705.781 246.955C706.571 247.386 707.19 247.969 707.639 248.702C708.088 249.435 708.312 250.25 708.312 251.148C708.312 251.79 708.196 252.418 707.963 253.031C707.735 253.639 707.338 254.318 706.77 255.068C706.207 255.812 705.426 256.722 704.426 257.795L700.505 261.989V262.125H708.619V264H697.608ZM711.355 260.42V258.682L719.025 246.545H720.287V249.239H719.434L713.639 258.409V258.545H723.968V260.42H711.355ZM719.571 264V259.892V259.082V246.545H721.582V264H719.571Z" fill="white"/>
<path d="M340.813 265.239C340.097 265.227 339.381 265.091 338.665 264.83C337.95 264.568 337.296 264.128 336.705 263.509C336.114 262.884 335.64 262.04 335.282 260.977C334.924 259.909 334.745 258.568 334.745 256.955C334.745 255.409 334.89 254.04 335.18 252.847C335.469 251.648 335.89 250.639 336.441 249.821C336.992 248.997 337.657 248.372 338.435 247.946C339.219 247.52 340.103 247.307 341.086 247.307C342.063 247.307 342.933 247.503 343.694 247.895C344.461 248.281 345.086 248.821 345.569 249.514C346.052 250.207 346.364 251.006 346.506 251.909H344.427C344.234 251.125 343.859 250.474 343.302 249.957C342.745 249.44 342.006 249.182 341.086 249.182C339.734 249.182 338.668 249.77 337.89 250.946C337.117 252.122 336.728 253.773 336.722 255.898H336.859C337.177 255.415 337.555 255.003 337.992 254.662C338.435 254.315 338.924 254.048 339.458 253.861C339.992 253.673 340.558 253.58 341.154 253.58C342.154 253.58 343.069 253.83 343.898 254.33C344.728 254.824 345.393 255.509 345.893 256.384C346.393 257.253 346.643 258.25 346.643 259.375C346.643 260.455 346.401 261.443 345.918 262.341C345.435 263.233 344.756 263.943 343.881 264.472C343.012 264.994 341.989 265.25 340.813 265.239ZM340.813 263.364C341.529 263.364 342.171 263.185 342.739 262.827C343.313 262.469 343.765 261.989 344.094 261.386C344.43 260.784 344.597 260.114 344.597 259.375C344.597 258.653 344.435 257.997 344.112 257.406C343.793 256.81 343.353 256.335 342.79 255.983C342.234 255.631 341.597 255.455 340.881 255.455C340.342 255.455 339.839 255.562 339.373 255.778C338.907 255.989 338.498 256.278 338.146 256.648C337.799 257.017 337.526 257.44 337.327 257.918C337.129 258.389 337.029 258.886 337.029 259.409C337.029 260.102 337.191 260.75 337.515 261.352C337.844 261.955 338.293 262.44 338.862 262.81C339.435 263.179 340.086 263.364 340.813 263.364ZM355.449 265.239C354.449 265.239 353.548 265.04 352.747 264.642C351.946 264.244 351.304 263.699 350.821 263.006C350.338 262.312 350.074 261.523 350.028 260.636H352.074C352.153 261.426 352.511 262.08 353.148 262.597C353.79 263.108 354.557 263.364 355.449 263.364C356.165 263.364 356.801 263.196 357.358 262.861C357.92 262.526 358.361 262.065 358.679 261.48C359.003 260.889 359.165 260.222 359.165 259.477C359.165 258.716 358.997 258.037 358.662 257.44C358.332 256.838 357.878 256.364 357.298 256.017C356.719 255.67 356.057 255.494 355.312 255.489C354.778 255.483 354.23 255.565 353.668 255.736C353.105 255.901 352.642 256.114 352.278 256.375L350.301 256.136L351.358 247.545H360.426V249.42H353.131L352.517 254.568H352.619C352.977 254.284 353.426 254.048 353.966 253.861C354.506 253.673 355.068 253.58 355.653 253.58C356.722 253.58 357.673 253.835 358.509 254.347C359.349 254.852 360.009 255.545 360.486 256.426C360.969 257.307 361.21 258.312 361.21 259.443C361.21 260.557 360.96 261.551 360.46 262.426C359.966 263.295 359.284 263.983 358.415 264.489C357.545 264.989 356.557 265.239 355.449 265.239Z" fill="white"/>
<path d="M400.259 264.239C399.543 264.227 398.827 264.091 398.111 263.83C397.395 263.568 396.741 263.128 396.151 262.509C395.56 261.884 395.085 261.04 394.727 259.977C394.369 258.909 394.19 257.568 394.19 255.955C394.19 254.409 394.335 253.04 394.625 251.847C394.915 250.648 395.335 249.639 395.886 248.821C396.438 247.997 397.102 247.372 397.881 246.946C398.665 246.52 399.548 246.307 400.531 246.307C401.509 246.307 402.378 246.503 403.139 246.895C403.906 247.281 404.531 247.821 405.014 248.514C405.497 249.207 405.81 250.006 405.952 250.909H403.872C403.679 250.125 403.304 249.474 402.747 248.957C402.19 248.44 401.452 248.182 400.531 248.182C399.179 248.182 398.114 248.77 397.335 249.946C396.563 251.122 396.173 252.773 396.168 254.898H396.304C396.622 254.415 397 254.003 397.438 253.662C397.881 253.315 398.369 253.048 398.903 252.861C399.438 252.673 400.003 252.58 400.599 252.58C401.599 252.58 402.514 252.83 403.344 253.33C404.173 253.824 404.838 254.509 405.338 255.384C405.838 256.253 406.088 257.25 406.088 258.375C406.088 259.455 405.847 260.443 405.364 261.341C404.881 262.233 404.202 262.943 403.327 263.472C402.457 263.994 401.435 264.25 400.259 264.239ZM400.259 262.364C400.974 262.364 401.616 262.185 402.185 261.827C402.759 261.469 403.21 260.989 403.54 260.386C403.875 259.784 404.043 259.114 404.043 258.375C404.043 257.653 403.881 256.997 403.557 256.406C403.239 255.81 402.798 255.335 402.236 254.983C401.679 254.631 401.043 254.455 400.327 254.455C399.787 254.455 399.284 254.562 398.818 254.778C398.352 254.989 397.943 255.278 397.591 255.648C397.244 256.017 396.972 256.44 396.773 256.918C396.574 257.389 396.474 257.886 396.474 258.409C396.474 259.102 396.636 259.75 396.96 260.352C397.29 260.955 397.739 261.44 398.307 261.81C398.881 262.179 399.531 262.364 400.259 262.364ZM409.985 264L417.792 248.557V248.42H408.792V246.545H419.974V248.523L412.201 264H409.985Z" fill="white"/>
<path d="M347.871 453V435.545H353.769C355.133 435.545 356.252 435.778 357.127 436.244C358.002 436.705 358.65 437.338 359.07 438.145C359.491 438.952 359.701 439.869 359.701 440.898C359.701 441.926 359.491 442.838 359.07 443.634C358.65 444.429 358.005 445.054 357.136 445.509C356.266 445.957 355.156 446.182 353.803 446.182H349.031V444.273H353.735C354.667 444.273 355.417 444.136 355.985 443.864C356.559 443.591 356.974 443.205 357.229 442.705C357.491 442.199 357.621 441.597 357.621 440.898C357.621 440.199 357.491 439.588 357.229 439.065C356.968 438.543 356.55 438.139 355.977 437.855C355.403 437.565 354.644 437.42 353.701 437.42H349.985V453H347.871ZM356.087 445.159L360.383 453H357.928L353.701 445.159H356.087ZM362.95 453V439.909H364.962V453H362.95ZM363.973 437.727C363.581 437.727 363.243 437.594 362.959 437.327C362.68 437.06 362.541 436.739 362.541 436.364C362.541 435.989 362.68 435.668 362.959 435.401C363.243 435.134 363.581 435 363.973 435C364.365 435 364.7 435.134 364.979 435.401C365.263 435.668 365.405 435.989 365.405 436.364C365.405 436.739 365.263 437.06 364.979 437.327C364.7 437.594 364.365 437.727 363.973 437.727ZM373.93 458.182C372.958 458.182 372.123 458.057 371.424 457.807C370.725 457.562 370.143 457.239 369.677 456.835C369.217 456.438 368.85 456.011 368.577 455.557L370.18 454.432C370.362 454.67 370.592 454.943 370.87 455.25C371.148 455.562 371.529 455.832 372.012 456.06C372.501 456.293 373.14 456.409 373.93 456.409C374.987 456.409 375.859 456.153 376.546 455.642C377.234 455.131 377.577 454.33 377.577 453.239V450.58H377.407C377.259 450.818 377.049 451.114 376.776 451.466C376.509 451.812 376.123 452.122 375.617 452.395C375.117 452.662 374.441 452.795 373.589 452.795C372.532 452.795 371.583 452.545 370.742 452.045C369.907 451.545 369.245 450.818 368.756 449.864C368.273 448.909 368.032 447.75 368.032 446.386C368.032 445.045 368.268 443.878 368.739 442.884C369.211 441.884 369.867 441.111 370.708 440.565C371.549 440.014 372.521 439.739 373.623 439.739C374.475 439.739 375.151 439.881 375.651 440.165C376.157 440.443 376.543 440.761 376.81 441.119C377.083 441.472 377.293 441.761 377.441 441.989H377.646V439.909H379.589V453.375C379.589 454.5 379.333 455.415 378.822 456.119C378.316 456.83 377.634 457.349 376.776 457.679C375.924 458.014 374.975 458.182 373.93 458.182ZM373.862 450.989C374.668 450.989 375.35 450.804 375.907 450.435C376.464 450.065 376.887 449.534 377.177 448.841C377.467 448.148 377.612 447.318 377.612 446.352C377.612 445.409 377.469 444.577 377.185 443.855C376.901 443.134 376.481 442.568 375.924 442.159C375.367 441.75 374.68 441.545 373.862 441.545C373.009 441.545 372.299 441.761 371.731 442.193C371.168 442.625 370.745 443.205 370.461 443.932C370.183 444.659 370.043 445.466 370.043 446.352C370.043 447.261 370.185 448.065 370.469 448.764C370.759 449.457 371.185 450.003 371.748 450.401C372.316 450.793 373.021 450.989 373.862 450.989ZM385.282 445.125V453H383.271V435.545H385.282V441.955H385.452C385.759 441.278 386.219 440.741 386.833 440.344C387.452 439.94 388.276 439.739 389.305 439.739C390.197 439.739 390.978 439.918 391.648 440.276C392.319 440.628 392.839 441.17 393.208 441.903C393.583 442.631 393.771 443.557 393.771 444.682V453H391.759V444.818C391.759 443.778 391.489 442.974 390.95 442.406C390.415 441.832 389.674 441.545 388.725 441.545C388.066 441.545 387.475 441.685 386.952 441.963C386.435 442.241 386.026 442.648 385.725 443.182C385.43 443.716 385.282 444.364 385.282 445.125ZM403.143 439.909V441.614H396.359V439.909H403.143ZM398.337 436.773H400.348V449.25C400.348 449.818 400.43 450.244 400.595 450.528C400.766 450.807 400.982 450.994 401.243 451.091C401.51 451.182 401.791 451.227 402.087 451.227C402.308 451.227 402.49 451.216 402.632 451.193C402.774 451.165 402.888 451.142 402.973 451.125L403.382 452.932C403.246 452.983 403.055 453.034 402.811 453.085C402.567 453.142 402.257 453.17 401.882 453.17C401.314 453.17 400.757 453.048 400.212 452.804C399.672 452.56 399.223 452.188 398.865 451.688C398.513 451.188 398.337 450.557 398.337 449.795V436.773ZM413.192 453V435.545H415.305V443.318H424.612V435.545H426.726V453H424.612V445.193H415.305V453H413.192ZM436.173 453.273C434.912 453.273 433.824 452.994 432.909 452.438C432 451.875 431.298 451.091 430.804 450.085C430.315 449.074 430.071 447.898 430.071 446.557C430.071 445.216 430.315 444.034 430.804 443.011C431.298 441.983 431.986 441.182 432.866 440.608C433.753 440.028 434.787 439.739 435.969 439.739C436.651 439.739 437.324 439.852 437.989 440.08C438.653 440.307 439.259 440.676 439.804 441.188C440.349 441.693 440.784 442.364 441.108 443.199C441.432 444.034 441.594 445.062 441.594 446.284V447.136H431.503V445.398H439.548C439.548 444.659 439.401 444 439.105 443.42C438.815 442.841 438.401 442.384 437.861 442.048C437.327 441.713 436.696 441.545 435.969 441.545C435.168 441.545 434.474 441.744 433.889 442.142C433.31 442.534 432.864 443.045 432.551 443.676C432.239 444.307 432.082 444.983 432.082 445.705V446.864C432.082 447.852 432.253 448.69 432.594 449.378C432.94 450.06 433.42 450.58 434.034 450.938C434.648 451.29 435.361 451.466 436.173 451.466C436.702 451.466 437.179 451.392 437.605 451.244C438.037 451.091 438.409 450.864 438.722 450.562C439.034 450.256 439.276 449.875 439.446 449.42L441.389 449.966C441.185 450.625 440.841 451.205 440.358 451.705C439.875 452.199 439.278 452.585 438.568 452.864C437.858 453.136 437.06 453.273 436.173 453.273ZM448.506 453.307C447.676 453.307 446.923 453.151 446.247 452.838C445.571 452.52 445.034 452.062 444.636 451.466C444.239 450.864 444.04 450.136 444.04 449.284C444.04 448.534 444.188 447.926 444.483 447.46C444.778 446.989 445.173 446.619 445.668 446.352C446.162 446.085 446.707 445.886 447.304 445.756C447.906 445.619 448.511 445.511 449.119 445.432C449.915 445.33 450.56 445.253 451.054 445.202C451.554 445.145 451.918 445.051 452.145 444.92C452.378 444.79 452.494 444.562 452.494 444.239V444.17C452.494 443.33 452.264 442.676 451.804 442.21C451.349 441.744 450.659 441.511 449.733 441.511C448.773 441.511 448.02 441.722 447.474 442.142C446.929 442.562 446.545 443.011 446.324 443.489L444.415 442.807C444.756 442.011 445.21 441.392 445.778 440.949C446.352 440.5 446.977 440.187 447.653 440.011C448.335 439.83 449.006 439.739 449.665 439.739C450.085 439.739 450.568 439.79 451.114 439.892C451.665 439.989 452.196 440.19 452.707 440.497C453.224 440.804 453.653 441.267 453.994 441.886C454.335 442.506 454.506 443.335 454.506 444.375V453H452.494V451.227H452.392C452.256 451.511 452.028 451.815 451.71 452.139C451.392 452.463 450.969 452.739 450.44 452.966C449.912 453.193 449.267 453.307 448.506 453.307ZM448.812 451.5C449.608 451.5 450.278 451.344 450.824 451.031C451.375 450.719 451.79 450.315 452.068 449.821C452.352 449.327 452.494 448.807 452.494 448.261V446.42C452.409 446.523 452.222 446.616 451.932 446.702C451.648 446.781 451.318 446.852 450.943 446.915C450.574 446.972 450.213 447.023 449.861 447.068C449.514 447.108 449.233 447.142 449.017 447.17C448.494 447.239 448.006 447.349 447.551 447.503C447.102 447.651 446.739 447.875 446.46 448.176C446.188 448.472 446.051 448.875 446.051 449.386C446.051 450.085 446.31 450.614 446.827 450.972C447.349 451.324 448.011 451.5 448.812 451.5ZM463.12 453.273C462.029 453.273 461.066 452.997 460.231 452.446C459.396 451.889 458.742 451.105 458.271 450.094C457.799 449.077 457.563 447.875 457.563 446.489C457.563 445.114 457.799 443.92 458.271 442.909C458.742 441.898 459.398 441.116 460.239 440.565C461.08 440.014 462.052 439.739 463.154 439.739C464.006 439.739 464.68 439.881 465.174 440.165C465.674 440.443 466.055 440.761 466.316 441.119C466.583 441.472 466.79 441.761 466.938 441.989H467.109V435.545H469.12V453H467.177V450.989H466.938C466.79 451.227 466.58 451.528 466.308 451.892C466.035 452.25 465.646 452.571 465.14 452.855C464.634 453.134 463.961 453.273 463.12 453.273ZM463.393 451.466C464.2 451.466 464.881 451.256 465.438 450.835C465.995 450.409 466.418 449.821 466.708 449.071C466.998 448.315 467.143 447.443 467.143 446.455C467.143 445.477 467.001 444.622 466.717 443.889C466.433 443.151 466.012 442.577 465.455 442.168C464.898 441.753 464.211 441.545 463.393 441.545C462.54 441.545 461.83 441.764 461.262 442.202C460.7 442.634 460.276 443.222 459.992 443.966C459.714 444.705 459.575 445.534 459.575 446.455C459.575 447.386 459.717 448.233 460.001 448.994C460.29 449.75 460.717 450.352 461.279 450.801C461.847 451.244 462.552 451.466 463.393 451.466ZM368.105 482H362.719V464.545H368.344C370.037 464.545 371.486 464.895 372.691 465.594C373.895 466.287 374.819 467.284 375.461 468.585C376.103 469.881 376.424 471.432 376.424 473.239C376.424 475.057 376.1 476.622 375.452 477.935C374.804 479.241 373.861 480.247 372.623 480.952C371.384 481.651 369.878 482 368.105 482ZM364.833 480.125H367.969C369.412 480.125 370.608 479.847 371.557 479.29C372.506 478.733 373.213 477.94 373.679 476.912C374.145 475.884 374.378 474.659 374.378 473.239C374.378 471.83 374.148 470.616 373.688 469.599C373.228 468.577 372.54 467.793 371.625 467.247C370.711 466.696 369.571 466.42 368.208 466.42H364.833V480.125ZM379.696 482V468.909H381.708V482H379.696ZM380.719 466.727C380.327 466.727 379.989 466.594 379.705 466.327C379.426 466.06 379.287 465.739 379.287 465.364C379.287 464.989 379.426 464.668 379.705 464.401C379.989 464.134 380.327 464 380.719 464C381.111 464 381.446 464.134 381.725 464.401C382.009 464.668 382.151 464.989 382.151 465.364C382.151 465.739 382.009 466.06 381.725 466.327C381.446 466.594 381.111 466.727 380.719 466.727ZM385.392 482V468.909H387.335V470.886H387.471C387.71 470.239 388.142 469.713 388.767 469.31C389.392 468.906 390.096 468.705 390.88 468.705C391.028 468.705 391.213 468.707 391.434 468.713C391.656 468.719 391.824 468.727 391.937 468.739V470.784C391.869 470.767 391.713 470.741 391.468 470.707C391.23 470.668 390.977 470.648 390.71 470.648C390.074 470.648 389.505 470.781 389.005 471.048C388.511 471.31 388.119 471.673 387.829 472.139C387.545 472.599 387.403 473.125 387.403 473.716V482H385.392ZM399.412 482.273C398.15 482.273 397.062 481.994 396.147 481.438C395.238 480.875 394.537 480.091 394.042 479.085C393.554 478.074 393.309 476.898 393.309 475.557C393.309 474.216 393.554 473.034 394.042 472.011C394.537 470.983 395.224 470.182 396.105 469.608C396.991 469.028 398.025 468.739 399.207 468.739C399.889 468.739 400.562 468.852 401.227 469.08C401.892 469.307 402.497 469.676 403.042 470.188C403.588 470.693 404.022 471.364 404.346 472.199C404.67 473.034 404.832 474.062 404.832 475.284V476.136H394.741V474.398H402.787C402.787 473.659 402.639 473 402.343 472.42C402.054 471.841 401.639 471.384 401.099 471.048C400.565 470.713 399.934 470.545 399.207 470.545C398.406 470.545 397.713 470.744 397.127 471.142C396.548 471.534 396.102 472.045 395.789 472.676C395.477 473.307 395.321 473.983 395.321 474.705V475.864C395.321 476.852 395.491 477.69 395.832 478.378C396.179 479.06 396.659 479.58 397.272 479.938C397.886 480.29 398.599 480.466 399.412 480.466C399.94 480.466 400.417 480.392 400.843 480.244C401.275 480.091 401.647 479.864 401.96 479.562C402.272 479.256 402.514 478.875 402.684 478.42L404.627 478.966C404.423 479.625 404.079 480.205 403.596 480.705C403.113 481.199 402.517 481.585 401.806 481.864C401.096 482.136 400.298 482.273 399.412 482.273ZM413.21 482.273C411.983 482.273 410.926 481.983 410.039 481.403C409.153 480.824 408.471 480.026 407.994 479.009C407.517 477.991 407.278 476.83 407.278 475.523C407.278 474.193 407.522 473.02 408.011 472.003C408.505 470.98 409.193 470.182 410.074 469.608C410.96 469.028 411.994 468.739 413.176 468.739C414.096 468.739 414.926 468.909 415.664 469.25C416.403 469.591 417.008 470.068 417.48 470.682C417.951 471.295 418.244 472.011 418.358 472.83H416.346C416.193 472.233 415.852 471.705 415.324 471.244C414.801 470.778 414.096 470.545 413.21 470.545C412.426 470.545 411.738 470.75 411.147 471.159C410.562 471.562 410.105 472.134 409.775 472.872C409.451 473.605 409.289 474.466 409.289 475.455C409.289 476.466 409.449 477.347 409.767 478.097C410.091 478.847 410.545 479.429 411.13 479.844C411.721 480.259 412.414 480.466 413.21 480.466C413.733 480.466 414.207 480.375 414.633 480.193C415.059 480.011 415.42 479.75 415.716 479.409C416.011 479.068 416.221 478.659 416.346 478.182H418.358C418.244 478.955 417.963 479.651 417.514 480.27C417.071 480.884 416.483 481.372 415.75 481.736C415.022 482.094 414.176 482.273 413.21 482.273ZM426.991 468.909V470.614H420.207V468.909H426.991ZM422.184 465.773H424.196V478.25C424.196 478.818 424.278 479.244 424.443 479.528C424.613 479.807 424.829 479.994 425.091 480.091C425.358 480.182 425.639 480.227 425.934 480.227C426.156 480.227 426.338 480.216 426.48 480.193C426.622 480.165 426.735 480.142 426.821 480.125L427.23 481.932C427.093 481.983 426.903 482.034 426.659 482.085C426.414 482.142 426.105 482.17 425.73 482.17C425.162 482.17 424.605 482.048 424.059 481.804C423.52 481.56 423.071 481.188 422.713 480.688C422.36 480.188 422.184 479.557 422.184 478.795V465.773ZM435.194 482.273C434.012 482.273 432.975 481.991 432.083 481.429C431.197 480.866 430.504 480.08 430.004 479.068C429.51 478.057 429.262 476.875 429.262 475.523C429.262 474.159 429.51 472.969 430.004 471.952C430.504 470.935 431.197 470.145 432.083 469.582C432.975 469.02 434.012 468.739 435.194 468.739C436.376 468.739 437.41 469.02 438.297 469.582C439.189 470.145 439.882 470.935 440.376 471.952C440.876 472.969 441.126 474.159 441.126 475.523C441.126 476.875 440.876 478.057 440.376 479.068C439.882 480.08 439.189 480.866 438.297 481.429C437.41 481.991 436.376 482.273 435.194 482.273ZM435.194 480.466C436.092 480.466 436.831 480.236 437.41 479.776C437.99 479.315 438.419 478.71 438.697 477.96C438.975 477.21 439.115 476.398 439.115 475.523C439.115 474.648 438.975 473.832 438.697 473.077C438.419 472.321 437.99 471.71 437.41 471.244C436.831 470.778 436.092 470.545 435.194 470.545C434.297 470.545 433.558 470.778 432.978 471.244C432.399 471.71 431.97 472.321 431.691 473.077C431.413 473.832 431.274 474.648 431.274 475.523C431.274 476.398 431.413 477.21 431.691 477.96C431.97 478.71 432.399 479.315 432.978 479.776C433.558 480.236 434.297 480.466 435.194 480.466ZM446.208 474.125V482H444.196V468.909H446.14V470.955H446.31C446.617 470.29 447.083 469.756 447.708 469.352C448.333 468.943 449.14 468.739 450.128 468.739C451.015 468.739 451.79 468.92 452.455 469.284C453.12 469.642 453.637 470.188 454.006 470.92C454.375 471.648 454.56 472.568 454.56 473.682V482H452.549V473.818C452.549 472.79 452.282 471.989 451.748 471.415C451.213 470.835 450.48 470.545 449.549 470.545C448.907 470.545 448.333 470.685 447.827 470.963C447.327 471.241 446.932 471.648 446.642 472.182C446.353 472.716 446.208 473.364 446.208 474.125Z" fill="white"/>
<path d="M144.739 453V435.545H146.852V451.125H154.966V453H144.739ZM163.455 453.273C162.193 453.273 161.105 452.994 160.19 452.438C159.281 451.875 158.58 451.091 158.085 450.085C157.597 449.074 157.352 447.898 157.352 446.557C157.352 445.216 157.597 444.034 158.085 443.011C158.58 441.983 159.267 441.182 160.148 440.608C161.034 440.028 162.068 439.739 163.25 439.739C163.932 439.739 164.605 439.852 165.27 440.08C165.935 440.307 166.54 440.676 167.085 441.188C167.631 441.693 168.065 442.364 168.389 443.199C168.713 444.034 168.875 445.062 168.875 446.284V447.136H158.784V445.398H166.83C166.83 444.659 166.682 444 166.386 443.42C166.097 442.841 165.682 442.384 165.142 442.048C164.608 441.713 163.977 441.545 163.25 441.545C162.449 441.545 161.756 441.744 161.17 442.142C160.591 442.534 160.145 443.045 159.832 443.676C159.52 444.307 159.364 444.983 159.364 445.705V446.864C159.364 447.852 159.534 448.69 159.875 449.378C160.222 450.06 160.702 450.58 161.315 450.938C161.929 451.29 162.642 451.466 163.455 451.466C163.983 451.466 164.46 451.392 164.886 451.244C165.318 451.091 165.69 450.864 166.003 450.562C166.315 450.256 166.557 449.875 166.727 449.42L168.67 449.966C168.466 450.625 168.122 451.205 167.639 451.705C167.156 452.199 166.56 452.585 165.849 452.864C165.139 453.136 164.341 453.273 163.455 453.273ZM177.764 439.909V441.614H170.707V439.909H177.764ZM172.821 453V438.102C172.821 437.352 172.997 436.727 173.349 436.227C173.702 435.727 174.159 435.352 174.722 435.102C175.284 434.852 175.878 434.727 176.503 434.727C176.997 434.727 177.401 434.767 177.713 434.847C178.026 434.926 178.259 435 178.412 435.068L177.832 436.807C177.73 436.773 177.588 436.73 177.406 436.679C177.23 436.628 176.997 436.602 176.707 436.602C176.043 436.602 175.563 436.77 175.267 437.105C174.977 437.44 174.832 437.932 174.832 438.58V453H172.821ZM186.276 439.909V441.614H179.492V439.909H186.276ZM181.469 436.773H183.481V449.25C183.481 449.818 183.563 450.244 183.728 450.528C183.898 450.807 184.114 450.994 184.376 451.091C184.643 451.182 184.924 451.227 185.219 451.227C185.441 451.227 185.623 451.216 185.765 451.193C185.907 451.165 186.021 451.142 186.106 451.125L186.515 452.932C186.379 452.983 186.188 453.034 185.944 453.085C185.7 453.142 185.39 453.17 185.015 453.17C184.447 453.17 183.89 453.048 183.344 452.804C182.805 452.56 182.356 452.188 181.998 451.688C181.646 451.188 181.469 450.557 181.469 449.795V436.773ZM196.325 453V435.545H198.438V443.318H207.745V435.545H209.859V453H207.745V445.193H198.438V453H196.325ZM219.306 453.273C218.045 453.273 216.957 452.994 216.042 452.438C215.133 451.875 214.431 451.091 213.937 450.085C213.448 449.074 213.204 447.898 213.204 446.557C213.204 445.216 213.448 444.034 213.937 443.011C214.431 441.983 215.119 441.182 215.999 440.608C216.886 440.028 217.92 439.739 219.102 439.739C219.783 439.739 220.457 439.852 221.121 440.08C221.786 440.307 222.391 440.676 222.937 441.188C223.482 441.693 223.917 442.364 224.241 443.199C224.565 444.034 224.727 445.062 224.727 446.284V447.136H214.636V445.398H222.681C222.681 444.659 222.533 444 222.238 443.42C221.948 442.841 221.533 442.384 220.994 442.048C220.46 441.713 219.829 441.545 219.102 441.545C218.3 441.545 217.607 441.744 217.022 442.142C216.442 442.534 215.996 443.045 215.684 443.676C215.371 444.307 215.215 444.983 215.215 445.705V446.864C215.215 447.852 215.386 448.69 215.727 449.378C216.073 450.06 216.553 450.58 217.167 450.938C217.781 451.29 218.494 451.466 219.306 451.466C219.835 451.466 220.312 451.392 220.738 451.244C221.17 451.091 221.542 450.864 221.854 450.562C222.167 450.256 222.408 449.875 222.579 449.42L224.522 449.966C224.317 450.625 223.974 451.205 223.491 451.705C223.008 452.199 222.411 452.585 221.701 452.864C220.991 453.136 220.192 453.273 219.306 453.273ZM231.638 453.307C230.809 453.307 230.056 453.151 229.38 452.838C228.704 452.52 228.167 452.062 227.769 451.466C227.371 450.864 227.173 450.136 227.173 449.284C227.173 448.534 227.32 447.926 227.616 447.46C227.911 446.989 228.306 446.619 228.8 446.352C229.295 446.085 229.84 445.886 230.437 445.756C231.039 445.619 231.644 445.511 232.252 445.432C233.048 445.33 233.692 445.253 234.187 445.202C234.687 445.145 235.05 445.051 235.278 444.92C235.511 444.79 235.627 444.562 235.627 444.239V444.17C235.627 443.33 235.397 442.676 234.937 442.21C234.482 441.744 233.792 441.511 232.866 441.511C231.906 441.511 231.153 441.722 230.607 442.142C230.062 442.562 229.678 443.011 229.457 443.489L227.548 442.807C227.888 442.011 228.343 441.392 228.911 440.949C229.485 440.5 230.11 440.187 230.786 440.011C231.468 439.83 232.138 439.739 232.798 439.739C233.218 439.739 233.701 439.79 234.246 439.892C234.798 439.989 235.329 440.19 235.84 440.497C236.357 440.804 236.786 441.267 237.127 441.886C237.468 442.506 237.638 443.335 237.638 444.375V453H235.627V451.227H235.525C235.388 451.511 235.161 451.815 234.843 452.139C234.525 452.463 234.102 452.739 233.573 452.966C233.045 453.193 232.4 453.307 231.638 453.307ZM231.945 451.5C232.741 451.5 233.411 451.344 233.957 451.031C234.508 450.719 234.923 450.315 235.201 449.821C235.485 449.327 235.627 448.807 235.627 448.261V446.42C235.542 446.523 235.354 446.616 235.065 446.702C234.781 446.781 234.451 446.852 234.076 446.915C233.707 446.972 233.346 447.023 232.994 447.068C232.647 447.108 232.366 447.142 232.15 447.17C231.627 447.239 231.138 447.349 230.684 447.503C230.235 447.651 229.871 447.875 229.593 448.176C229.32 448.472 229.184 448.875 229.184 449.386C229.184 450.085 229.442 450.614 229.96 450.972C230.482 451.324 231.144 451.5 231.945 451.5ZM246.253 453.273C245.162 453.273 244.199 452.997 243.364 452.446C242.528 451.889 241.875 451.105 241.403 450.094C240.932 449.077 240.696 447.875 240.696 446.489C240.696 445.114 240.932 443.92 241.403 442.909C241.875 441.898 242.531 441.116 243.372 440.565C244.213 440.014 245.185 439.739 246.287 439.739C247.139 439.739 247.813 439.881 248.307 440.165C248.807 440.443 249.188 440.761 249.449 441.119C249.716 441.472 249.923 441.761 250.071 441.989H250.241V435.545H252.253V453H250.31V450.989H250.071C249.923 451.227 249.713 451.528 249.44 451.892C249.168 452.25 248.778 452.571 248.273 452.855C247.767 453.134 247.094 453.273 246.253 453.273ZM246.526 451.466C247.332 451.466 248.014 451.256 248.571 450.835C249.128 450.409 249.551 449.821 249.841 449.071C250.131 448.315 250.276 447.443 250.276 446.455C250.276 445.477 250.134 444.622 249.849 443.889C249.565 443.151 249.145 442.577 248.588 442.168C248.031 441.753 247.344 441.545 246.526 441.545C245.673 441.545 244.963 441.764 244.395 442.202C243.832 442.634 243.409 443.222 243.125 443.966C242.847 444.705 242.707 445.534 242.707 446.455C242.707 447.386 242.849 448.233 243.134 448.994C243.423 449.75 243.849 450.352 244.412 450.801C244.98 451.244 245.685 451.466 246.526 451.466ZM155.188 482H149.801V464.545H155.426C157.119 464.545 158.568 464.895 159.773 465.594C160.977 466.287 161.901 467.284 162.543 468.585C163.185 469.881 163.506 471.432 163.506 473.239C163.506 475.057 163.182 476.622 162.534 477.935C161.886 479.241 160.943 480.247 159.705 480.952C158.466 481.651 156.96 482 155.188 482ZM151.915 480.125H155.051C156.494 480.125 157.69 479.847 158.639 479.29C159.588 478.733 160.295 477.94 160.761 476.912C161.227 475.884 161.46 474.659 161.46 473.239C161.46 471.83 161.23 470.616 160.77 469.599C160.31 468.577 159.622 467.793 158.707 467.247C157.793 466.696 156.653 466.42 155.29 466.42H151.915V480.125ZM166.778 482V468.909H168.79V482H166.778ZM167.801 466.727C167.409 466.727 167.071 466.594 166.787 466.327C166.509 466.06 166.369 465.739 166.369 465.364C166.369 464.989 166.509 464.668 166.787 464.401C167.071 464.134 167.409 464 167.801 464C168.193 464 168.528 464.134 168.807 464.401C169.091 464.668 169.233 464.989 169.233 465.364C169.233 465.739 169.091 466.06 168.807 466.327C168.528 466.594 168.193 466.727 167.801 466.727ZM172.474 482V468.909H174.417V470.886H174.553C174.792 470.239 175.224 469.713 175.849 469.31C176.474 468.906 177.178 468.705 177.962 468.705C178.11 468.705 178.295 468.707 178.516 468.713C178.738 468.719 178.906 468.727 179.019 468.739V470.784C178.951 470.767 178.795 470.741 178.55 470.707C178.312 470.668 178.059 470.648 177.792 470.648C177.156 470.648 176.587 470.781 176.087 471.048C175.593 471.31 175.201 471.673 174.911 472.139C174.627 472.599 174.485 473.125 174.485 473.716V482H172.474ZM186.494 482.273C185.232 482.273 184.144 481.994 183.229 481.438C182.32 480.875 181.619 480.091 181.124 479.085C180.636 478.074 180.391 476.898 180.391 475.557C180.391 474.216 180.636 473.034 181.124 472.011C181.619 470.983 182.306 470.182 183.187 469.608C184.073 469.028 185.107 468.739 186.289 468.739C186.971 468.739 187.644 468.852 188.309 469.08C188.974 469.307 189.579 469.676 190.124 470.188C190.67 470.693 191.104 471.364 191.428 472.199C191.752 473.034 191.914 474.062 191.914 475.284V476.136H181.823V474.398H189.869C189.869 473.659 189.721 473 189.425 472.42C189.136 471.841 188.721 471.384 188.181 471.048C187.647 470.713 187.016 470.545 186.289 470.545C185.488 470.545 184.795 470.744 184.21 471.142C183.63 471.534 183.184 472.045 182.871 472.676C182.559 473.307 182.403 473.983 182.403 474.705V475.864C182.403 476.852 182.573 477.69 182.914 478.378C183.261 479.06 183.741 479.58 184.354 479.938C184.968 480.29 185.681 480.466 186.494 480.466C187.022 480.466 187.499 480.392 187.925 480.244C188.357 480.091 188.729 479.864 189.042 479.562C189.354 479.256 189.596 478.875 189.766 478.42L191.71 478.966C191.505 479.625 191.161 480.205 190.678 480.705C190.195 481.199 189.599 481.585 188.888 481.864C188.178 482.136 187.38 482.273 186.494 482.273ZM200.292 482.273C199.065 482.273 198.008 481.983 197.121 481.403C196.235 480.824 195.553 480.026 195.076 479.009C194.599 477.991 194.36 476.83 194.36 475.523C194.36 474.193 194.604 473.02 195.093 472.003C195.587 470.98 196.275 470.182 197.156 469.608C198.042 469.028 199.076 468.739 200.258 468.739C201.178 468.739 202.008 468.909 202.746 469.25C203.485 469.591 204.09 470.068 204.562 470.682C205.033 471.295 205.326 472.011 205.44 472.83H203.428C203.275 472.233 202.934 471.705 202.406 471.244C201.883 470.778 201.178 470.545 200.292 470.545C199.508 470.545 198.82 470.75 198.229 471.159C197.644 471.562 197.187 472.134 196.857 472.872C196.533 473.605 196.371 474.466 196.371 475.455C196.371 476.466 196.531 477.347 196.849 478.097C197.173 478.847 197.627 479.429 198.212 479.844C198.803 480.259 199.496 480.466 200.292 480.466C200.815 480.466 201.289 480.375 201.715 480.193C202.141 480.011 202.502 479.75 202.798 479.409C203.093 479.068 203.303 478.659 203.428 478.182H205.44C205.326 478.955 205.045 479.651 204.596 480.27C204.153 480.884 203.565 481.372 202.832 481.736C202.104 482.094 201.258 482.273 200.292 482.273ZM214.073 468.909V470.614H207.289V468.909H214.073ZM209.266 465.773H211.278V478.25C211.278 478.818 211.36 479.244 211.525 479.528C211.695 479.807 211.911 479.994 212.173 480.091C212.44 480.182 212.721 480.227 213.016 480.227C213.238 480.227 213.42 480.216 213.562 480.193C213.704 480.165 213.817 480.142 213.903 480.125L214.312 481.932C214.175 481.983 213.985 482.034 213.741 482.085C213.496 482.142 213.187 482.17 212.812 482.17C212.244 482.17 211.687 482.048 211.141 481.804C210.602 481.56 210.153 481.188 209.795 480.688C209.442 480.188 209.266 479.557 209.266 478.795V465.773ZM217.099 482V468.909H219.11V482H217.099ZM218.121 466.727C217.729 466.727 217.391 466.594 217.107 466.327C216.829 466.06 216.69 465.739 216.69 465.364C216.69 464.989 216.829 464.668 217.107 464.401C217.391 464.134 217.729 464 218.121 464C218.513 464 218.849 464.134 219.127 464.401C219.411 464.668 219.553 464.989 219.553 465.364C219.553 465.739 219.411 466.06 219.127 466.327C218.849 466.594 218.513 466.727 218.121 466.727ZM228.112 482.273C226.93 482.273 225.893 481.991 225.001 481.429C224.115 480.866 223.422 480.08 222.922 479.068C222.428 478.057 222.18 476.875 222.18 475.523C222.18 474.159 222.428 472.969 222.922 471.952C223.422 470.935 224.115 470.145 225.001 469.582C225.893 469.02 226.93 468.739 228.112 468.739C229.294 468.739 230.328 469.02 231.214 469.582C232.107 470.145 232.8 470.935 233.294 471.952C233.794 472.969 234.044 474.159 234.044 475.523C234.044 476.875 233.794 478.057 233.294 479.068C232.8 480.08 232.107 480.866 231.214 481.429C230.328 481.991 229.294 482.273 228.112 482.273ZM228.112 480.466C229.01 480.466 229.749 480.236 230.328 479.776C230.908 479.315 231.337 478.71 231.615 477.96C231.893 477.21 232.033 476.398 232.033 475.523C232.033 474.648 231.893 473.832 231.615 473.077C231.337 472.321 230.908 471.71 230.328 471.244C229.749 470.778 229.01 470.545 228.112 470.545C227.214 470.545 226.476 470.778 225.896 471.244C225.317 471.71 224.888 472.321 224.609 473.077C224.331 473.832 224.192 474.648 224.192 475.523C224.192 476.398 224.331 477.21 224.609 477.96C224.888 478.71 225.317 479.315 225.896 479.776C226.476 480.236 227.214 480.466 228.112 480.466ZM239.126 474.125V482H237.114V468.909H239.058V470.955H239.228C239.535 470.29 240.001 469.756 240.626 469.352C241.251 468.943 242.058 468.739 243.046 468.739C243.933 468.739 244.708 468.92 245.373 469.284C246.038 469.642 246.555 470.188 246.924 470.92C247.293 471.648 247.478 472.568 247.478 473.682V482H245.467V473.818C245.467 472.79 245.2 471.989 244.665 471.415C244.131 470.835 243.398 470.545 242.467 470.545C241.825 470.545 241.251 470.685 240.745 470.963C240.245 471.241 239.85 471.648 239.56 472.182C239.271 472.716 239.126 473.364 239.126 474.125Z" fill="white"/>
<circle cx="534.5" cy="279.5" r="6" fill="#A80000" stroke="#690000"/>
<circle cx="969.5" cy="279.5" r="6" fill="#A80000" stroke="#690000"/>
<circle cx="208.5" cy="279.5" r="6" fill="#A80000" stroke="#690000"/>
<circle cx="660.5" cy="279.5" r="6" fill="#A80000" stroke="#690000"/>
<circle cx="667.5" cy="279.5" r="6" fill="#A80000" stroke="#690000"/>
<circle cx="373.5" cy="279.5" r="6" fill="#A80000" stroke="#690000"/>
<circle cx="383.5" cy="279.5" r="6" fill="#A80000" stroke="#690000"/>
<circle cx="93.5" cy="279.5" r="6" fill="#A80000" stroke="#690000"/>
<line x1="303.5" y1="151" x2="303.5" y2="373" stroke="#A80000" stroke-width="3"/>
<path d="M459.061 411.561C459.646 410.975 459.646 410.025 459.061 409.439L449.515 399.893C448.929 399.308 447.979 399.308 447.393 399.893C446.808 400.479 446.808 401.429 447.393 402.015L455.879 410.5L447.393 418.985C446.808 419.571 446.808 420.521 447.393 421.107C447.979 421.692 448.929 421.692 449.515 421.107L459.061 411.561ZM337 410.5V412H458V410.5V409H337V410.5Z" fill="white"/>
<path d="M144.939 409.939C144.354 410.525 144.354 411.475 144.939 412.061L154.485 421.607C155.071 422.192 156.021 422.192 156.607 421.607C157.192 421.021 157.192 420.071 156.607 419.485L148.121 411L156.607 402.515C157.192 401.929 157.192 400.979 156.607 400.393C156.021 399.808 155.071 399.808 154.485 400.393L144.939 409.939ZM267 411L267 409.5L146 409.5L146 411L146 412.5L267 412.5L267 411Z" fill="white"/>
</svg>
