<svg xmlns="http://www.w3.org/2000/svg" width="972" height="448" fill="none" viewBox="0 0 972 448"><path fill="#fff" stroke="#000" d="M87.334 200.814 7.948 295.423c-4.39 5.231-3.707 13.03 1.524 17.419l151.543 127.161c5.231 4.389 13.03 3.707 17.419-1.524l79.387-94.61c4.39-5.231 3.707-13.03-1.524-17.419L104.753 199.29c-5.23-4.39-13.03-3.707-17.419 1.524Z"/><path fill="#000" d="m16.498 304.184 13.426 16.117 1.328-1.582-3.49-4.191 2.206-2.63 4.734 2.709 1.327-1.581-18.204-10.424zm5.062 2.9 6.586 3.774-1.725 2.056zM247.946 336.689l-18.204-10.423 1.327-1.582 4.734 2.709 2.206-2.629-3.489-4.192 1.327-1.581 13.426 16.117zm-3.735-4.481-4.861-5.83-1.725 2.055zM137.691 320.984c1.53.745 5.755 2.134 7.613-.08 2.389-2.847.92-6.235-2.243-8.889-2.214-1.858-4.358-2.267-6.704-2.931-2.499-.707-5.128-.864-7.715-1.083-3.32-.282-9.991-.299-9.991-.299s1.174 6.567 2.028 9.788c.666 2.51 1.277 5.071 2.407 7.409 1.062 2.196 1.836 4.236 4.05 6.094 3.163 2.654 6.755 3.512 9.144.665 1.858-2.214-.244-6.133-1.243-7.511-.051-.582.265-.317.581-.051 2.265 2.439 2.898 2.97 4.53 4.879s4.316 5.777 4.316 5.777c.694-2.112 3.348-5.275 5.308-6.326 0 0-4.276-1.97-6.439-3.247s-2.796-1.807-5.591-3.614c-.317-.265-.633-.53-.051-.581M45.66 325.959c.765.372 2.877 1.067 3.806-.04 1.194-1.424.46-3.118-1.122-4.445-1.107-.929-2.178-1.133-3.352-1.465-1.25-.354-2.563-.432-3.857-.542-1.66-.141-4.996-.149-4.996-.149s.588 3.283 1.015 4.894c.332 1.255.638 2.535 1.203 3.704.53 1.098.918 2.118 2.025 3.047 1.582 1.327 3.378 1.756 4.572.333.929-1.107-.122-3.067-.622-3.756-.025-.291.133-.158.291-.025 1.133 1.22 1.449 1.485 2.265 2.439.816.955 2.158 2.889 2.158 2.889.347-1.056 1.674-2.638 2.654-3.163 0 0-2.138-.985-3.22-1.624-1.081-.638-1.397-.903-2.795-1.806-.158-.133-.317-.266-.026-.291M221.438 311.752c-.5-.689-1.551-2.649-.622-3.756 1.194-1.423 2.991-.994 4.572.333 1.107.929 1.494 1.949 2.025 3.047.565 1.169.871 2.45 1.203 3.705.427 1.61 1.015 4.893 1.015 4.893s-3.336-.008-4.996-.149c-1.293-.11-2.608-.188-3.857-.542-1.174-.332-2.245-.536-3.352-1.465-1.582-1.327-2.316-3.021-1.122-4.444.929-1.108 3.041-.413 3.807-.04.291-.026.132-.159-.026-.291-1.398-.904-1.714-1.169-2.796-1.807s-3.219-1.624-3.219-1.624c.98-.525 2.307-2.106 2.654-3.163 0 0 1.342 1.935 2.158 2.889s1.132 1.22 2.265 2.44c.158.132.316.265.291-.026"/><path fill="#fff" stroke="#000" d="M187.447 116.182 80.49 177.934c-5.914 3.414-7.94 10.976-4.526 16.89l98.914 171.323c3.414 5.913 10.976 7.94 16.889 4.525l106.958-61.752c5.914-3.414 7.94-10.976 4.526-16.889l-98.914-171.323c-3.414-5.914-10.976-7.94-16.89-4.526Z"/><path fill="#000" d="M86.42 188.575a4.12 4.12 0 0 0-1.51 5.64l1.032 1.788 1.787-1.032-1.032-1.788a2.06 2.06 0 0 1 .756-2.82 2.06 2.06 0 0 1 2.82.756l1.032 1.788c.233.403.499 1.173.448 1.601.283 4.177.218 8.04.382 12.223l1.032 1.788 3.576-2.065 3.576-2.064-1.032-1.788-1.033-1.788-1.787 1.032 1.032 1.788-1.788 1.032-1.61.929c-.028-3.757-.275-7.264-.402-11.019.103-.855-.14-1.895-.606-2.702l-1.032-1.788a4.12 4.12 0 0 0-5.64-1.511M292.793 298.28a4.12 4.12 0 0 0 1.511-5.641l-1.032-1.788-1.788 1.033 1.032 1.787a2.06 2.06 0 0 1-.755 2.821 2.06 2.06 0 0 1-2.82-.756l-1.033-1.788c-.233-.403-.498-1.174-.447-1.601-.284-4.177-.219-8.04-.383-12.223l-1.032-1.788-3.576 2.064-3.575 2.065 1.032 1.788 1.032 1.788 1.788-1.033-1.032-1.787 1.788-1.033 1.609-.929c.029 3.757.276 7.265.402 11.02-.102.855.141 1.895.606 2.701l1.033 1.788a4.12 4.12 0 0 0 5.64 1.512M105.482 219.525c.77.509 2.284 1.066 3.178.55 1.609-.929 1.498-2.773.466-4.561s-2.677-2.984-4.286-2.055c-.894.516-.914 1.72-1.141 2.566-.075.282-.357.207-.282-.075.227-.846.295-2.793-.428-4.044-.825-1.431-2.752-2.703-4.182-1.877s-1.292 3.13-.466 4.56c.723 1.252 2.442 2.166 3.288 2.393.282.075.207.357-.075.282-.846-.227-1.899-.811-2.793-.295-1.609.929-1.395 2.951-.363 4.739s2.573 2.805 4.183 1.876c.894-.516 1.168-2.105 1.113-3.026.075-.282.179-.104.282.075.647 1.534.853 1.891 1.294 3.067.44 1.176 1.04 3.453 1.04 3.453.687-.874 2.475-1.906 3.575-2.065 0 0-1.671-1.657-2.47-2.626-.798-.97-1.004-1.327-2.009-2.655-.103-.178-.206-.357.076-.282M275.518 266.296c-.055-.922.22-2.51 1.114-3.027 1.609-.929 3.15.089 4.182 1.877s1.246 3.81-.363 4.739c-.894.516-1.946-.068-2.793-.295-.282-.076-.357.206-.075.282.846.227 2.566 1.141 3.288 2.392.826 1.431.964 3.735-.466 4.561-1.43.825-3.356-.446-4.182-1.877-.723-1.251-.655-3.198-.428-4.044.076-.282-.206-.357-.282-.075-.227.846-.247 2.049-1.141 2.565-1.609.93-3.253-.267-4.286-2.055s-1.142-3.631.467-4.56c.894-.516 2.407.041 3.177.549.282.076.179-.103.076-.282-1.005-1.327-1.211-1.684-2.009-2.654-.798-.969-2.47-2.626-2.47-2.626 1.1-.159 2.888-1.191 3.576-2.065 0 0 .599 2.276 1.039 3.452.441 1.176.647 1.534 1.294 3.068.104.178.207.357.282.075M156.504 181.963c1.541 1.017 4.568 2.131 6.356 1.098 3.218-1.858 2.997-5.544.932-9.12s-5.352-5.968-8.571-4.11c-1.788 1.032-1.828 3.439-2.282 5.131-.151.564-.715.413-.564-.151.454-1.692.59-5.585-.855-8.088-1.652-2.861-5.504-5.404-8.365-3.752-2.86 1.651-2.584 6.259-.932 9.12 1.445 2.503 4.885 4.331 6.577 4.785.564.151.413.715-.152.564-1.692-.454-3.797-1.622-5.585-.59-3.218 1.858-2.79 5.902-.726 9.478s5.147 5.611 8.365 3.753c1.788-1.032 2.337-4.21 2.227-6.053.151-.565.357-.207.564.151 1.294 3.067 1.707 3.782 2.588 6.134s2.079 6.905 2.079 6.905c1.375-1.748 4.951-3.812 7.152-4.129 0 0-3.344-3.314-4.94-5.254s-2.009-2.654-4.019-5.308c-.206-.358-.413-.715.151-.564M226.285 302.827c-.111-1.844.438-5.021 2.226-6.054 3.219-1.858 6.301.177 8.365 3.753s2.492 7.62-.726 9.478c-1.788 1.032-3.893-.136-5.585-.59-.564-.151-.715.413-.151.564 1.692.454 5.132 2.282 6.577 4.785 1.651 2.861 1.928 7.469-.933 9.121-2.86 1.651-6.713-.892-8.365-3.753-1.445-2.503-1.308-6.396-.855-8.088.151-.564-.413-.715-.564-.151-.453 1.692-.494 4.099-2.282 5.131-3.218 1.858-6.507-.534-8.571-4.11s-2.286-7.262.932-9.12c1.788-1.033 4.815.081 6.356 1.098.564.151.358-.206.151-.564-2.009-2.654-2.422-3.369-4.018-5.308-1.597-1.939-4.94-5.254-4.94-5.254 2.201-.317 5.776-2.381 7.151-4.129 0 0 1.199 4.553 2.08 6.905s1.294 3.067 2.588 6.134c.206.358.413.716.564.152"/><path fill="#fff" stroke="#000" d="M358.837 112.477H235.333c-6.829 0-12.364 5.535-12.364 12.364v197.826c0 6.829 5.535 12.364 12.364 12.364h123.504c6.828 0 12.364-5.535 12.364-12.364V124.841c0-6.829-5.536-12.364-12.364-12.364Z"/><path fill="#000" d="M231.021 124.658v8.258h4.129a2.06 2.06 0 0 1 2.064 2.065v6.193a2.06 2.06 0 0 1-2.064 2.065 2.06 2.06 0 0 1-2.065-2.065v-2.064h-2.064v2.064a4.12 4.12 0 0 0 4.129 4.129 4.12 4.12 0 0 0 4.129-4.129v-6.193a4.12 4.12 0 0 0-4.129-4.129h-2.065v-4.129h6.194v-2.065h-8.258M363.149 322.851v-8.258h-4.129a2.06 2.06 0 0 1-2.065-2.064v-6.194a2.06 2.06 0 0 1 2.065-2.064 2.06 2.06 0 0 1 2.064 2.064v2.065h2.065v-2.065a4.12 4.12 0 0 0-4.129-4.129 4.12 4.12 0 0 0-4.129 4.129v6.194a4.12 4.12 0 0 0 4.129 4.129h2.064v4.129h-6.193v2.064h8.258M261.992 153.968c.41 1.653 2.063 5.793 4.945 5.793 3.716 0 5.369-3.306 5.369-7.432 0-2.897-1.053-4.799-2.062-7.023-1.068-2.37-2.634-4.491-4.126-6.613-1.917-2.721-6.189-7.841-6.189-7.841s-4.287 5.12-6.203 7.841c-1.493 2.122-3.058 4.243-4.126 6.613-.995 2.224-2.063 4.126-2.063 7.023 0 4.126 1.653 7.432 5.369 7.432 2.883 0 4.536-4.14 4.96-5.793.41-.41.41 0 .41.424-.41 3.292-.41 4.126-.834 6.598-.41 2.487-1.653 7.023-1.653 7.023 2.077-.819 6.203-.819 8.266 0 0 0-1.244-4.536-1.653-7.023-.41-2.472-.41-3.306-.82-6.598 0-.424 0-.834.41-.424M336.314 153.968c.41 1.653 2.063 5.793 4.945 5.793 3.716 0 5.37-3.306 5.37-7.432 0-2.897-1.054-4.799-2.063-7.023-1.068-2.37-2.634-4.491-4.126-6.613-1.917-2.721-6.189-7.841-6.189-7.841s-4.286 5.12-6.203 7.841c-1.492 2.122-3.058 4.243-4.126 6.613-.995 2.224-2.063 4.126-2.063 7.023 0 4.126 1.654 7.432 5.37 7.432 2.882 0 4.535-4.14 4.959-5.793.41-.41.41 0 .41.424-.41 3.292-.41 4.126-.834 6.598-.409 2.487-1.653 7.023-1.653 7.023 2.077-.819 6.203-.819 8.266 0 0 0-1.243-4.536-1.653-7.023-.41-2.472-.41-3.306-.819-6.598 0-.424 0-.834.409-.424M299.152 228.29c.41 1.653 2.063 5.794 4.945 5.794 3.716 0 5.37-3.307 5.37-7.433 0-2.897-1.054-4.798-2.063-7.022-1.068-2.37-2.634-4.492-4.126-6.613-1.917-2.722-6.189-7.842-6.189-7.842s-4.286 5.12-6.203 7.842c-1.492 2.121-3.058 4.243-4.126 6.613-.995 2.224-2.063 4.125-2.063 7.022 0 4.126 1.654 7.433 5.37 7.433 2.882 0 4.535-4.141 4.959-5.794.41-.41.41 0 .41.424-.41 3.292-.41 4.126-.834 6.599-.41 2.487-1.653 7.022-1.653 7.022 2.077-.819 6.203-.819 8.266 0 0 0-1.244-4.535-1.653-7.022-.41-2.473-.41-3.307-.82-6.599 0-.424 0-.834.41-.424M261.992 293.542c.41-1.653 2.063-5.794 4.945-5.794 3.716 0 5.369 3.307 5.369 7.433 0 2.897-1.053 4.799-2.062 7.022-1.068 2.37-2.634 4.492-4.126 6.613-1.917 2.722-6.189 7.842-6.189 7.842s-4.287-5.12-6.203-7.842c-1.493-2.121-3.058-4.243-4.126-6.613-.995-2.223-2.063-4.125-2.063-7.022 0-4.126 1.653-7.433 5.369-7.433 2.883 0 4.536 4.141 4.96 5.794.41.41.41 0 .41-.424-.41-3.292-.41-4.126-.834-6.598-.41-2.488-1.653-7.023-1.653-7.023 2.077.819 6.203.819 8.266 0 0 0-1.244 4.535-1.653 7.023-.41 2.472-.41 3.306-.82 6.598 0 .424 0 .834.41.424M336.314 293.542c.41-1.653 2.063-5.794 4.945-5.794 3.716 0 5.37 3.307 5.37 7.433 0 2.897-1.054 4.799-2.063 7.022-1.068 2.37-2.634 4.492-4.126 6.613-1.917 2.722-6.189 7.842-6.189 7.842s-4.286-5.12-6.203-7.842c-1.492-2.121-3.058-4.243-4.126-6.613-.995-2.223-2.063-4.125-2.063-7.022 0-4.126 1.654-7.433 5.37-7.433 2.882 0 4.535 4.141 4.959 5.794.41.41.41 0 .41-.424-.41-3.292-.41-4.126-.834-6.598-.409-2.488-1.653-7.023-1.653-7.023 2.077.819 6.203.819 8.266 0 0 0-1.243 4.535-1.653 7.023-.41 2.472-.41 3.306-.819 6.598 0 .424 0 .834.409.424M236.181 160.993c.206.826 1.032 2.89 2.477 2.89 1.858 0 2.684-1.651 2.684-3.716 0-1.445-.532-2.397-1.032-3.51-.532-1.184-1.317-2.241-2.065-3.303-.959-1.362-3.096-3.922-3.096-3.922s-2.138 2.56-3.097 3.922c-.748 1.062-1.532 2.119-2.065 3.303-.499 1.113-1.032 2.065-1.032 3.51 0 2.065.826 3.716 2.684 3.716 1.445 0 2.271-2.064 2.477-2.89.207-.207.207 0 .207.206-.207 1.652-.207 2.065-.413 3.304-.207 1.238-.826 3.509-.826 3.509 1.032-.413 3.097-.413 4.129 0 0 0-.619-2.271-.826-3.509-.206-1.239-.206-1.652-.413-3.304 0-.206 0-.413.207-.206M360.052 286.516c.206-.825 1.032-2.89 2.477-2.89 1.858 0 2.684 1.652 2.684 3.716 0 1.445-.532 2.398-1.032 3.51-.532 1.184-1.317 2.241-2.065 3.303-.959 1.362-3.096 3.923-3.096 3.923s-2.138-2.561-3.097-3.923c-.748-1.062-1.532-2.119-2.065-3.303-.499-1.112-1.032-2.065-1.032-3.51 0-2.064.826-3.716 2.684-3.716 1.445 0 2.271 2.065 2.477 2.89.207.207.207 0 .207-.206-.207-1.652-.207-2.065-.413-3.303-.206-1.239-.826-3.51-.826-3.51 1.032.413 3.097.413 4.129 0 0 0-.619 2.271-.826 3.51s-.206 1.651-.412 3.303c0 .206 0 .413.206.206"/><path fill="#fff" stroke="#000" d="M843.767 107.807H720.263c-6.829 0-12.365 5.535-12.365 12.364v197.826c0 6.829 5.536 12.365 12.365 12.365h123.504c6.828 0 12.364-5.536 12.364-12.365V120.171c0-6.829-5.536-12.364-12.364-12.364Z"/><path fill="#000" d="M720.078 119.986a4.12 4.12 0 0 0-4.129 4.129v2.065h2.065v-2.065a2.06 2.06 0 0 1 2.064-2.064 2.06 2.06 0 0 1 2.065 2.064v2.065a2.06 2.06 0 0 1-2.065 2.064h-2.064v2.065h2.064a2.06 2.06 0 0 1 2.065 2.064v4.129a2.06 2.06 0 0 1-2.065 2.065 2.06 2.06 0 0 1-2.064-2.065v-2.064h-2.065v2.064a4.12 4.12 0 0 0 4.129 4.129 4.12 4.12 0 0 0 4.129-4.129v-4.129c0-1.24-.546-2.341-1.406-3.096a4.1 4.1 0 0 0 1.406-3.097v-2.065a4.12 4.12 0 0 0-4.129-4.129M843.949 318.18a4.12 4.12 0 0 0 4.129-4.129v-2.064h-2.064v2.064a2.06 2.06 0 0 1-2.065 2.065 2.06 2.06 0 0 1-2.064-2.065v-2.064a2.06 2.06 0 0 1 2.064-2.065h2.065v-2.064h-2.065a2.06 2.06 0 0 1-2.064-2.065v-4.129a2.06 2.06 0 0 1 2.064-2.064 2.06 2.06 0 0 1 2.065 2.064v2.065h2.064v-2.065a4.12 4.12 0 0 0-4.129-4.129 4.12 4.12 0 0 0-4.129 4.129v4.129c0 1.24.547 2.341 1.407 3.097a4.1 4.1 0 0 0-1.407 3.097v2.064a4.12 4.12 0 0 0 4.129 4.129M784.079 149.303c.825 1.652 2.89 4.129 4.954 4.129 3.717 0 5.368-3.303 5.368-7.432s-1.651-7.845-5.368-7.845c-2.064 0-3.303 2.064-4.542 3.303-.412.413-.825 0-.412-.413 1.238-1.239 3.303-4.542 3.303-7.432 0-3.303-2.065-7.432-5.368-7.432s-5.368 4.129-5.368 7.432c0 2.89 2.065 6.193 3.304 7.432.412.413 0 .826-.413.413-1.239-1.239-2.478-3.303-4.542-3.303-3.716 0-5.368 3.716-5.368 7.845s1.652 7.432 5.368 7.432c2.064 0 4.129-2.477 4.955-4.129.412-.413.412 0 .412.413-.412 3.303-.412 4.129-.825 6.607-.413 2.477-1.652 7.019-1.652 7.019 2.065-.826 6.194-.826 8.258 0 0 0-1.239-4.542-1.652-7.019s-.412-3.304-.825-6.607c0-.413 0-.826.413-.413M784.079 223.626c.825 1.651 2.89 4.129 4.954 4.129 3.717 0 5.368-3.304 5.368-7.433s-1.651-7.845-5.368-7.845c-2.064 0-3.303 2.065-4.542 3.303-.412.413-.825 0-.412-.413 1.238-1.238 3.303-4.541 3.303-7.432 0-3.303-2.065-7.432-5.368-7.432s-5.368 4.129-5.368 7.432c0 2.891 2.065 6.194 3.304 7.432.412.413 0 .826-.413.413-1.239-1.238-2.478-3.303-4.542-3.303-3.716 0-5.368 3.716-5.368 7.845s1.652 7.433 5.368 7.433c2.064 0 4.129-2.478 4.955-4.129.412-.413.412 0 .412.412-.412 3.304-.412 4.129-.825 6.607-.413 2.477-1.652 7.019-1.652 7.019 2.065-.826 6.194-.826 8.258 0 0 0-1.239-4.542-1.652-7.019s-.412-3.303-.825-6.607c0-.412 0-.825.413-.412M784.079 288.865c.825-1.652 2.89-4.129 4.954-4.129 3.717 0 5.368 3.303 5.368 7.432s-1.651 7.845-5.368 7.845c-2.064 0-3.303-2.064-4.542-3.303-.412-.413-.825 0-.412.413 1.238 1.239 3.303 4.542 3.303 7.432 0 3.303-2.065 7.432-5.368 7.432s-5.368-4.129-5.368-7.432c0-2.89 2.065-6.193 3.304-7.432.412-.413 0-.826-.413-.413-1.239 1.239-2.478 3.303-4.542 3.303-3.716 0-5.368-3.716-5.368-7.845s1.652-7.432 5.368-7.432c2.064 0 4.129 2.477 4.955 4.129.412.413.412 0 .412-.413-.412-3.303-.412-4.129-.825-6.606s-1.652-7.02-1.652-7.02c2.065.826 6.194.826 8.258 0 0 0-1.239 4.542-1.652 7.02s-.412 3.303-.825 6.606c0 .413 0 .826.413.413M721.111 156.323c.412.826 1.445 2.065 2.477 2.065 1.858 0 2.684-1.652 2.684-3.717 0-2.064-.826-3.922-2.684-3.922-1.032 0-1.652 1.032-2.271 1.651-.206.207-.413 0-.206-.206.619-.619 1.651-2.271 1.651-3.716 0-1.652-1.032-3.716-2.684-3.716-1.651 0-2.684 2.064-2.684 3.716 0 1.445 1.033 3.097 1.652 3.716.207.206 0 .413-.206.206-.62-.619-1.239-1.651-2.271-1.651-1.858 0-2.684 1.858-2.684 3.922s.826 3.717 2.684 3.717c1.032 0 2.064-1.239 2.477-2.065.207-.206.207 0 .207.206-.207 1.652-.207 2.065-.413 3.304-.207 1.238-.826 3.509-.826 3.509 1.032-.413 3.097-.413 4.129 0 0 0-.62-2.271-.826-3.509-.206-1.239-.206-1.652-.413-3.304 0-.206 0-.412.207-.206M844.982 281.846c.413-.826 1.445-2.065 2.477-2.065 1.858 0 2.684 1.652 2.684 3.716s-.826 3.923-2.684 3.923c-1.032 0-1.652-1.033-2.271-1.652-.206-.206-.413 0-.206.207.619.619 1.651 2.271 1.651 3.716 0 1.651-1.032 3.716-2.684 3.716-1.651 0-2.683-2.065-2.683-3.716 0-1.445 1.032-3.097 1.651-3.716.207-.207 0-.413-.206-.207-.62.619-1.239 1.652-2.271 1.652-1.858 0-2.684-1.858-2.684-3.923s.826-3.716 2.684-3.716c1.032 0 2.064 1.239 2.477 2.065.207.206.207 0 .207-.207-.207-1.652-.207-2.064-.413-3.303-.207-1.239-.826-3.51-.826-3.51 1.032.413 3.097.413 4.129 0 0 0-.619 2.271-.826 3.51s-.206 1.651-.413 3.303c0 .207 0 .413.207.207"/><path fill="#fff" stroke="#000" d="m512.584 178.957-106.957-61.751c-5.914-3.415-13.476-1.389-16.89 4.525l-98.913 171.323c-3.415 5.914-1.388 13.475 4.525 16.89l106.958 61.752c5.913 3.414 13.475 1.388 16.89-4.526l98.913-171.323c3.414-5.913 1.388-13.475-4.526-16.89Z"/><path fill="#f55" d="M399.377 127.663a4.12 4.12 0 0 0-5.641 1.511l-1.032 1.788a4.1 4.1 0 0 0-.33 3.386 4.1 4.1 0 0 0-2.767 1.978l-2.064 3.576a4.12 4.12 0 0 0 1.511 5.64 4.12 4.12 0 0 0 5.64-1.511l2.065-3.576c.62-1.074.697-2.3.33-3.385a4.1 4.1 0 0 0 2.767-1.979l1.032-1.787a4.12 4.12 0 0 0-1.511-5.641m-1.033 1.788a2.06 2.06 0 0 1 .756 2.82l-1.032 1.788a2.06 2.06 0 0 1-2.82.756 2.06 2.06 0 0 1-.756-2.82l1.032-1.788a2.06 2.06 0 0 1 2.82-.756m-4.129 7.152a2.06 2.06 0 0 1 .756 2.82l-2.065 3.576a2.06 2.06 0 0 1-2.82.755 2.06 2.06 0 0 1-.755-2.82l2.064-3.576a2.06 2.06 0 0 1 2.82-.755M407.556 361.24a4.12 4.12 0 0 1-1.511-5.641l1.032-1.788a4.1 4.1 0 0 1 2.766-1.978 4.1 4.1 0 0 1 .331-3.385l2.064-3.576a4.12 4.12 0 0 1 5.641-1.512 4.12 4.12 0 0 1 1.511 5.641l-2.065 3.576a4.1 4.1 0 0 1-2.766 1.978 4.1 4.1 0 0 1-.33 3.385l-1.033 1.788a4.12 4.12 0 0 1-5.64 1.512m1.032-1.788a2.06 2.06 0 0 0 2.82-.756l1.033-1.788a2.06 2.06 0 0 0-.756-2.82 2.06 2.06 0 0 0-2.82.756l-1.032 1.788a2.06 2.06 0 0 0 .755 2.82m4.129-7.152a2.06 2.06 0 0 0 2.82-.756l2.065-3.575a2.06 2.06 0 0 0-.756-2.821 2.06 2.06 0 0 0-2.82.756l-2.064 3.576a2.06 2.06 0 0 0 .755 2.82M421.623 336.463c-1.14 1.975-2.88 2.629-4.361 1.773-1.481-.855-1.758-3.149-.618-5.124.105-.167.199-.336.291-.503.753-1.305 1.962-2.294 3.061-3.238 1.131-.971 2.363-1.683 3.569-2.439 1.869-1.172 5.669-3.239 5.669-3.239s.11 4.325.03 6.529c-.052 1.423-.052 2.846-.328 4.31-.268 1.424-.52 2.966-1.274 4.271q-.157.257-.29.503c-1.14 1.975-3.265 2.882-4.747 2.027s-1.785-2.688-.645-4.663c.207-.358-.151-.564-.357-.207M413.662 151.644c2.28-3.949 1.672-7.616-1.29-9.327-2.963-1.71-7.213.106-9.493 4.055-.185.349-.384.68-.581 1.006-1.507 2.61-2.011 5.694-2.547 8.542-.552 2.928-.553 5.774-.657 8.62-.16 4.408.061 13.057.061 13.057s7.6-4.133 11.337-6.476c2.413-1.513 4.877-2.936 7.138-4.879 2.198-1.888 4.616-3.867 6.123-6.477.191-.354.389-.688.581-1.006 2.28-3.949 1.727-8.538-1.235-10.248s-6.442-.404-8.722 3.546c-.413.715-1.128.302-.715-.413M478.027 188.805c2.28-3.949 1.672-7.616-1.29-9.326-2.963-1.711-7.213.105-9.493 4.055-.185.348-.384.68-.581 1.005-1.506 2.61-2.011 5.694-2.547 8.542-.552 2.928-.553 5.774-.656 8.62-.161 4.408.06 13.057.06 13.057s7.601-4.133 11.338-6.476c2.412-1.513 4.877-2.936 7.137-4.879 2.198-1.888 4.617-3.867 6.123-6.477.191-.354.389-.688.581-1.005 2.28-3.95 1.728-8.539-1.235-10.249s-6.442-.403-8.722 3.546c-.413.716-1.128.303-.715-.413M427.263 202.407c2.281-3.95 1.672-7.617-1.29-9.327s-7.212.105-9.493 4.055c-.184.349-.384.68-.58 1.006-1.507 2.61-2.011 5.693-2.548 8.541-.552 2.929-.552 5.775-.656 8.621-.16 4.408.06 13.057.06 13.057s7.601-4.134 11.338-6.477c2.413-1.512 4.877-2.936 7.137-4.878 2.198-1.889 4.617-3.867 6.124-6.477.191-.354.388-.689.58-1.006 2.281-3.95 1.728-8.538-1.234-10.248-2.963-1.711-6.442-.404-8.723 3.546-.413.715-1.128.302-.715-.413M376.501 216.01c2.28-3.95 1.672-7.617-1.291-9.327-2.962-1.711-7.212.105-9.492 4.055-.185.349-.384.68-.581 1.005-1.507 2.61-2.011 5.694-2.548 8.542-.551 2.929-.552 5.774-.656 8.62-.16 4.408.061 13.057.061 13.057s7.6-4.133 11.337-6.476c2.413-1.513 4.877-2.936 7.138-4.879 2.198-1.888 4.616-3.867 6.123-6.477.191-.354.389-.688.581-1.005 2.28-3.95 1.727-8.538-1.235-10.249-2.962-1.71-6.442-.403-8.722 3.546-.413.716-1.128.303-.715-.412M440.866 253.171c2.28-3.95 1.672-7.617-1.29-9.327-2.963-1.71-7.213.105-9.493 4.055-.185.349-.384.68-.581 1.005-1.507 2.61-2.011 5.694-2.547 8.542-.552 2.929-.553 5.775-.656 8.62-.161 4.408.06 13.057.06 13.057s7.6-4.133 11.338-6.476c2.412-1.513 4.876-2.936 7.137-4.878 2.198-1.889 4.617-3.868 6.123-6.477.191-.355.389-.689.581-1.006 2.28-3.95 1.728-8.538-1.235-10.249-2.962-1.71-6.442-.403-8.722 3.547-.413.715-1.128.302-.715-.413M378.954 286.082c-2.281 3.95-5.76 5.256-8.723 3.546-2.962-1.71-3.515-6.299-1.234-10.248.209-.335.397-.673.58-1.006 1.507-2.61 3.926-4.588 6.124-6.477 2.26-1.942 4.724-3.366 7.137-4.879 3.737-2.342 11.338-6.476 11.338-6.476s.22 8.649.06 13.057c-.103 2.846-.104 5.692-.656 8.62-.537 2.848-1.041 5.932-2.548 8.542q-.315.517-.58 1.006c-2.281 3.949-6.531 5.765-9.493 4.055-2.962-1.711-3.571-5.377-1.29-9.327.413-.715-.302-1.128-.715-.413M328.191 299.684c-2.28 3.95-5.76 5.257-8.722 3.547-2.963-1.711-3.515-6.299-1.235-10.249.21-.334.397-.672.581-1.006 1.506-2.609 3.925-4.588 6.123-6.477 2.26-1.942 4.725-3.365 7.137-4.878 3.738-2.343 11.338-6.476 11.338-6.476s.221 8.649.06 13.057c-.103 2.845-.104 5.691-.656 8.62-.536 2.848-1.041 5.932-2.547 8.541-.212.343-.402.681-.581 1.006-2.28 3.95-6.53 5.765-9.493 4.055s-3.57-5.377-1.29-9.327c.413-.715-.302-1.128-.715-.413M392.556 336.846c-2.28 3.949-5.76 5.256-8.722 3.546s-3.515-6.299-1.235-10.249c.21-.334.397-.672.581-1.005 1.507-2.61 3.925-4.589 6.123-6.477 2.261-1.943 4.725-3.366 7.138-4.879 3.737-2.343 11.337-6.476 11.337-6.476s.221 8.649.061 13.057c-.104 2.846-.105 5.691-.657 8.62-.536 2.848-1.04 5.932-2.547 8.542-.211.342-.402.68-.581 1.005-2.28 3.95-6.53 5.766-9.493 4.055-2.962-1.71-3.57-5.377-1.29-9.327.413-.715-.302-1.128-.715-.412M384.954 152.233c1.14-1.975.836-3.808-.645-4.663s-3.606.052-4.747 2.027c-.092.175-.192.34-.29.503-.753 1.305-1.005 2.847-1.274 4.271-.276 1.464-.276 2.887-.328 4.31-.08 2.204.03 6.529.03 6.529s3.801-2.067 5.669-3.239c1.207-.756 2.439-1.468 3.569-2.439 1.099-.944 2.308-1.933 3.062-3.238q.144-.266.29-.503c1.14-1.975.864-4.269-.617-5.124-1.482-.856-3.221-.202-4.362 1.773-.206.357-.564.151-.357-.207"/><path fill="#fff" stroke="#000" d="m590.106 295.163-79.387-94.609c-4.389-5.231-12.188-5.914-17.419-1.524L341.756 326.19c-5.231 4.389-5.913 12.188-1.524 17.419l79.387 94.61c4.389 5.231 12.188 5.913 17.419 1.524l151.544-127.161c5.231-4.389 5.913-12.188 1.524-17.419Z"/><path fill="#f55" d="m497.289 203.499-3.541.277-2.214 1.858 3.541-.277-13.601 11.413 1.327 1.581 15.815-13.27zM502.596 209.825a4.12 4.12 0 0 0-5.817-.509l-9.489 7.962a4.12 4.12 0 0 0-.509 5.818 4.12 4.12 0 0 0 5.817.509l9.49-7.963a4.12 4.12 0 0 0 .508-5.817m-1.581 1.327a2.06 2.06 0 0 1-.255 2.909l-9.489 7.962a2.06 2.06 0 0 1-2.908-.254 2.06 2.06 0 0 1 .254-2.909l9.489-7.962a2.06 2.06 0 0 1 2.909.254M433.048 435.276l3.541-.276 2.214-1.858-3.541.276 13.601-11.413-1.327-1.581-15.815 13.27zM427.74 428.948a4.12 4.12 0 0 0 5.818.509l9.489-7.962a4.12 4.12 0 0 0 .509-5.817 4.12 4.12 0 0 0-5.818-.509l-9.489 7.962a4.12 4.12 0 0 0-.509 5.817m1.582-1.327a2.06 2.06 0 0 1 .254-2.908l9.489-7.963a2.06 2.06 0 0 1 2.909.255 2.06 2.06 0 0 1-.254 2.908l-9.489 7.963a2.06 2.06 0 0 1-2.909-.255M512.451 231.203s-3.153 5.879-4.458 10.747-1.814 10.685-1.814 10.685-5.817-.509-10.838-.069-11.358 2.524-11.358 2.524 3.152-5.879 4.458-10.747c1.305-4.869 1.814-10.686 1.814-10.686s5.817.509 10.838.069 11.358-2.523 11.358-2.523M560.223 288.138s-3.152 5.878-4.457 10.747-1.814 10.685-1.814 10.685-5.817-.509-10.838-.069-11.358 2.523-11.358 2.523 3.152-5.879 4.457-10.747 1.814-10.685 1.814-10.685 5.817.509 10.838.069 11.358-2.523 11.358-2.523M517.358 275.595s-3.152 5.878-4.457 10.747c-1.306 4.868-1.815 10.685-1.815 10.685s-5.817-.509-10.838-.069-11.357 2.523-11.357 2.523 3.152-5.879 4.457-10.747 1.814-10.685 1.814-10.685 5.817.509 10.838.069 11.358-2.523 11.358-2.523M474.494 263.052s-3.153 5.879-4.458 10.747-1.814 10.685-1.814 10.685-5.817-.509-10.838-.069-11.358 2.523-11.358 2.523 3.152-5.879 4.458-10.747c1.305-4.868 1.814-10.685 1.814-10.685s5.817.509 10.838.069 11.358-2.523 11.358-2.523M522.267 319.986s-3.152 5.879-4.457 10.747-1.814 10.686-1.814 10.686-5.817-.509-10.838-.069-11.358 2.523-11.358 2.523 3.152-5.879 4.457-10.747 1.814-10.686 1.814-10.686 5.817.509 10.838.069 11.358-2.523 11.358-2.523M436.537 294.901s-3.152 5.879-4.457 10.747-1.814 10.686-1.814 10.686-5.817-.509-10.838-.069-11.358 2.523-11.358 2.523 3.152-5.879 4.458-10.747c1.305-4.868 1.814-10.685 1.814-10.685s5.817.508 10.838.068c5.02-.439 11.357-2.523 11.357-2.523M484.311 351.836s-3.152 5.879-4.457 10.747-1.814 10.685-1.814 10.685-5.818-.509-10.838-.069c-5.021.44-11.358 2.524-11.358 2.524s3.152-5.879 4.457-10.748 1.814-10.685 1.814-10.685 5.817.509 10.838.069 11.358-2.523 11.358-2.523M441.446 339.293s-3.152 5.879-4.458 10.747c-1.305 4.868-1.814 10.685-1.814 10.685s-5.817-.509-10.838-.069-11.358 2.524-11.358 2.524 3.153-5.879 4.458-10.748 1.814-10.685 1.814-10.685 5.817.509 10.838.069 11.358-2.523 11.358-2.523M398.581 326.75s-3.152 5.879-4.457 10.747-1.814 10.685-1.814 10.685-5.817-.509-10.838-.069-11.358 2.524-11.358 2.524 3.152-5.879 4.457-10.748c1.306-4.868 1.815-10.685 1.815-10.685s5.817.509 10.838.069 11.357-2.523 11.357-2.523M446.355 383.684s-3.152 5.879-4.457 10.748c-1.306 4.868-1.814 10.685-1.814 10.685s-5.818-.509-10.838-.069c-5.021.44-11.358 2.523-11.358 2.523s3.152-5.879 4.457-10.747 1.814-10.685 1.814-10.685 5.817.509 10.838.069 11.358-2.524 11.358-2.524M482.292 224.168s-1.576 2.94-2.229 5.374-.907 5.343-.907 5.343-2.909-.255-5.419-.035-5.679 1.262-5.679 1.262 1.576-2.94 2.229-5.374c.652-2.434.907-5.342.907-5.342s2.908.254 5.419.034 5.679-1.262 5.679-1.262M462.279 402.663s-1.576 2.939-2.229 5.373c-.652 2.434-.907 5.343-.907 5.343s-2.908-.255-5.419-.035-5.679 1.262-5.679 1.262 1.576-2.94 2.229-5.374.907-5.342.907-5.342 2.909.254 5.419.034 5.679-1.261 5.679-1.261"/><path fill="#fff" d="M183.349 45V15.91h6.15v12.002h12.486V15.909h6.136V45h-6.136V32.983h-12.486V45zm35.951.412q-2.088 0-3.721-.724-1.634-.739-2.585-2.174-.938-1.449-.938-3.608 0-1.818.668-3.054a5.4 5.4 0 0 1 1.818-1.988 8.8 8.8 0 0 1 2.614-1.137 20 20 0 0 1 3.096-.54 78 78 0 0 0 3.068-.369q1.165-.184 1.691-.54.525-.355.525-1.05v-.086q0-1.35-.852-2.088-.838-.739-2.386-.739-1.634 0-2.6.725-.966.71-1.278 1.79l-5.597-.455q.426-1.99 1.676-3.437 1.25-1.464 3.225-2.245 1.988-.795 4.602-.795 1.818 0 3.48.426 1.677.426 2.969 1.32a6.4 6.4 0 0 1 2.06 2.302q.752 1.392.752 3.338V45h-5.738v-3.026h-.171a6.2 6.2 0 0 1-1.406 1.804q-.881.767-2.116 1.208-1.236.426-2.856.426m1.733-4.176q1.336 0 2.358-.526a4.2 4.2 0 0 0 1.605-1.449q.583-.909.583-2.06v-2.315a3.3 3.3 0 0 1-.781.341q-.483.142-1.094.27-.611.114-1.222.213l-1.108.157q-1.065.156-1.861.497-.795.34-1.235.923-.441.568-.441 1.42 0 1.236.895 1.89.909.639 2.301.639m21.3-8.85V45h-6.051V23.182h5.767v3.85h.256a6.1 6.1 0 0 1 2.429-3.012q1.704-1.122 4.133-1.122 2.273 0 3.963.994t2.628 2.841q.938 1.832.938 4.375V45h-6.052V32.188q.015-2.003-1.022-3.126-1.037-1.136-2.855-1.136-1.222 0-2.159.526-.924.525-1.449 1.534-.511.995-.526 2.4m26.872 12.97q-2.487 0-4.503-1.28-2.004-1.291-3.182-3.792-1.165-2.514-1.165-6.165 0-3.75 1.207-6.235 1.208-2.5 3.211-3.736a8.2 8.2 0 0 1 4.417-1.25q1.833 0 3.054.625 1.236.61 1.989 1.534.767.91 1.165 1.79h.184V15.909h6.037V45h-5.966v-3.494h-.255q-.426.909-1.208 1.804-.767.88-2.002 1.463-1.222.582-2.983.582m1.917-4.816q1.463 0 2.472-.796 1.022-.81 1.562-2.258.554-1.45.554-3.395t-.54-3.38-1.562-2.217-2.486-.78q-1.491 0-2.514.809-1.023.81-1.548 2.244t-.526 3.324q0 1.904.526 3.366.54 1.45 1.548 2.273 1.023.81 2.514.81m34.588 4.886q-3.309 0-5.724-1.406-2.4-1.42-3.708-3.949-1.306-2.543-1.306-5.895 0-3.38 1.306-5.909 1.307-2.542 3.708-3.949 2.415-1.42 5.724-1.42t5.71 1.42q2.415 1.407 3.722 3.949 1.307 2.528 1.307 5.91 0 3.351-1.307 5.894-1.307 2.529-3.722 3.949-2.4 1.406-5.71 1.406m.029-4.687q1.505 0 2.514-.853 1.008-.866 1.52-2.358.525-1.49.525-3.395 0-1.902-.525-3.394-.512-1.492-1.52-2.358-1.01-.867-2.514-.867-1.52 0-2.557.867-1.023.866-1.548 2.358-.512 1.492-.512 3.394 0 1.904.512 3.395.525 1.492 1.548 2.358 1.036.853 2.557.853m26.377-17.557v4.545h-13.465v-4.545zM321.733 45V21.605q0-2.372.923-3.934a5.94 5.94 0 0 1 2.557-2.344q1.62-.781 3.679-.781 1.392 0 2.543.213 1.164.213 1.733.383l-1.08 4.546a8 8 0 0 0-.881-.214 5.5 5.5 0 0 0-1.051-.099q-1.335 0-1.861.625-.525.61-.525 1.719V45zm49.119-18.906h-6.221q-.171-1.208-.696-2.145a5.5 5.5 0 0 0-1.35-1.62 5.9 5.9 0 0 0-1.903-1.022 7.3 7.3 0 0 0-2.316-.355q-2.258 0-3.934 1.122-1.677 1.108-2.6 3.238-.923 2.117-.923 5.142 0 3.111.923 5.228.938 2.115 2.614 3.196t3.878 1.08q1.236 0 2.287-.327a6 6 0 0 0 1.889-.952 5.5 5.5 0 0 0 1.364-1.548 6 6 0 0 0 .767-2.074l6.221.028a11.3 11.3 0 0 1-1.207 3.864 11.6 11.6 0 0 1-2.571 3.31q-1.605 1.448-3.835 2.3-2.216.84-5.015.839-3.891 0-6.96-1.762-3.054-1.761-4.829-5.1-1.762-3.337-1.762-8.082 0-4.757 1.79-8.096 1.79-3.337 4.858-5.085 3.068-1.761 6.903-1.762 2.53 0 4.688.71 2.174.71 3.849 2.075 1.677 1.349 2.728 3.31 1.065 1.959 1.363 4.488m10.519 19.318q-2.088 0-3.722-.724-1.634-.739-2.585-2.174-.938-1.449-.938-3.608 0-1.818.668-3.054a5.4 5.4 0 0 1 1.818-1.988 8.8 8.8 0 0 1 2.614-1.137 20 20 0 0 1 3.096-.54 79 79 0 0 0 3.069-.369q1.165-.184 1.69-.54.526-.355.526-1.05v-.086q0-1.35-.853-2.088-.837-.739-2.386-.739-1.634 0-2.6.725-.965.71-1.278 1.79l-5.597-.455q.427-1.99 1.677-3.437 1.25-1.464 3.224-2.245 1.989-.795 4.602-.795 1.818 0 3.48.426 1.677.426 2.969 1.32a6.4 6.4 0 0 1 2.06 2.302q.753 1.392.753 3.338V45h-5.739v-3.026h-.17a6.2 6.2 0 0 1-1.407 1.804q-.88.767-2.116 1.208-1.236.426-2.855.426m1.733-4.176q1.335 0 2.358-.526a4.2 4.2 0 0 0 1.605-1.449q.582-.909.582-2.06v-2.315q-.284.185-.781.341-.483.142-1.094.27a55 55 0 0 1-1.221.213l-1.108.157q-1.066.156-1.861.497t-1.236.923q-.44.568-.44 1.42 0 1.236.895 1.89.909.639 2.301.639M398.352 45V23.182h5.867v3.807h.227q.596-2.032 2.003-3.068 1.406-1.052 3.239-1.052.454 0 .98.057.525.057.923.156v5.37a8 8 0 0 0-1.179-.228q-.753-.099-1.378-.099-1.335 0-2.386.582A4.3 4.3 0 0 0 405 30.298q-.597 1.023-.597 2.358V45zm23.392.355q-2.487 0-4.503-1.278-2.003-1.293-3.182-3.793-1.165-2.514-1.165-6.165 0-3.75 1.208-6.235 1.207-2.5 3.21-3.736a8.2 8.2 0 0 1 4.417-1.25q1.833 0 3.054.625 1.236.61 1.989 1.534.767.91 1.165 1.79h.184V15.909h6.037V45h-5.966v-3.494h-.255q-.426.909-1.208 1.804-.767.88-2.002 1.463-1.222.582-2.983.582m1.917-4.815q1.463 0 2.472-.796 1.022-.81 1.562-2.258.554-1.45.554-3.395t-.539-3.38-1.563-2.217q-1.022-.78-2.486-.78-1.491 0-2.514.809-1.023.81-1.548 2.244t-.526 3.324q0 1.904.526 3.366.54 1.45 1.548 2.273 1.023.81 2.514.81m33.626-11.137-5.54.341a2.86 2.86 0 0 0-.611-1.278 3.24 3.24 0 0 0-1.235-.923q-.753-.355-1.804-.355-1.407 0-2.373.596-.965.583-.965 1.563 0 .78.625 1.32.624.54 2.144.867l3.949.796q3.182.653 4.745 2.102 1.562 1.449 1.562 3.807 0 2.145-1.264 3.764-1.25 1.62-3.438 2.528-2.173.895-5.014.895-4.332 0-6.903-1.804-2.557-1.818-2.997-4.943l5.951-.312q.27 1.32 1.307 2.017 1.037.681 2.656.681 1.591 0 2.557-.61.98-.625.995-1.606-.015-.824-.696-1.349-.683-.54-2.103-.824l-3.778-.753q-3.196-.64-4.759-2.216-1.548-1.575-1.548-4.02 0-2.101 1.136-3.622 1.15-1.52 3.225-2.343 2.088-.825 4.886-.824 4.133 0 6.506 1.747 2.387 1.747 2.784 4.758M628.333 15.91V45h-5.312l-12.656-18.31h-.213V45h-6.151V15.91h5.398l12.557 18.295h.255V15.909zm14.912 29.516q-3.367 0-5.796-1.364-2.415-1.377-3.721-3.892-1.307-2.527-1.307-5.98 0-3.366 1.307-5.909t3.679-3.963q2.386-1.42 5.596-1.42 2.16 0 4.02.696a8.9 8.9 0 0 1 3.267 2.06q1.407 1.377 2.188 3.465.78 2.074.781 4.858v1.662h-18.423v-3.75h12.727q0-1.307-.568-2.315a4.07 4.07 0 0 0-1.577-1.577q-.995-.582-2.315-.582-1.378 0-2.444.639-1.05.625-1.647 1.69-.597 1.051-.611 2.344v3.565q0 1.62.597 2.799.61 1.179 1.718 1.818 1.109.64 2.628.64 1.008 0 1.847-.285a3.8 3.8 0 0 0 1.434-.852q.597-.57.909-1.392l5.597.369a7.64 7.64 0 0 1-1.747 3.523q-1.307 1.49-3.381 2.33-2.06.823-4.758.823m18.11-.426-5.937-21.818h6.122l3.381 14.659h.199l3.522-14.66h6.009l3.579 14.575h.185l3.324-14.574h6.108L681.924 45h-6.407l-3.75-13.722h-.269L667.748 45zm35.771-29.09V45h-6.051V15.91zm8.583 37.272q-1.15 0-2.159-.185-.994-.17-1.648-.44l1.364-4.517q1.065.327 1.918.355.865.028 1.491-.398.64-.426 1.037-1.449l.355-.923-7.827-22.443h6.364l4.517 16.023h.227l4.56-16.023h6.406l-8.48 24.176q-.61 1.761-1.662 3.068a6.8 6.8 0 0 1-2.628 2.031q-1.59.725-3.835.725M745.095 45h-10.313V15.91h10.398q4.389 0 7.557 1.746 3.168 1.734 4.872 4.986 1.719 3.253 1.719 7.784 0 4.545-1.719 7.813-1.704 3.268-4.901 5.014Q749.526 45 745.095 45m-4.162-5.27h3.906q2.727 0 4.588-.966 1.875-.98 2.813-3.025.951-2.06.951-5.313 0-3.224-.951-5.27-.937-2.045-2.799-3.011-1.86-.966-4.588-.966h-3.92zM763.77 45V23.182h5.867v3.807h.227q.596-2.032 2.003-3.068 1.406-1.052 3.238-1.052.455 0 .981.057.525.057.923.156v5.37a8 8 0 0 0-1.179-.228q-.753-.099-1.378-.099-1.336 0-2.386.582a4.3 4.3 0 0 0-1.648 1.591q-.597 1.023-.597 2.358V45zm21.964.412q-2.088 0-3.722-.724-1.633-.739-2.585-2.174-.937-1.449-.937-3.608 0-1.818.667-3.054a5.4 5.4 0 0 1 1.818-1.988 8.8 8.8 0 0 1 2.614-1.137 20 20 0 0 1 3.097-.54 79 79 0 0 0 3.068-.369q1.165-.184 1.69-.54.526-.355.526-1.05v-.086q0-1.35-.852-2.088-.839-.739-2.387-.739-1.633 0-2.599.725-.966.71-1.279 1.79l-5.596-.455q.426-1.99 1.676-3.437 1.25-1.464 3.224-2.245 1.989-.795 4.603-.795 1.818 0 3.48.426 1.676.426 2.968 1.32a6.4 6.4 0 0 1 2.06 2.302q.753 1.392.753 3.338V45h-5.739v-3.026h-.17a6.2 6.2 0 0 1-1.406 1.804q-.881.767-2.117 1.208-1.236.426-2.855.426m1.733-4.176q1.335 0 2.358-.526a4.2 4.2 0 0 0 1.605-1.449q.582-.909.582-2.06v-2.315a3.2 3.2 0 0 1-.781.341q-.483.142-1.094.27a55 55 0 0 1-1.221.213l-1.108.157q-1.066.156-1.861.497t-1.236.923q-.44.568-.44 1.42 0 1.236.895 1.89.909.639 2.301.639M807.02 45l-5.938-21.818h6.122l3.381 14.659h.199l3.522-14.66h6.009l3.58 14.575h.184l3.324-14.574h6.108L827.588 45h-6.407l-3.75-13.722h-.269L813.412 45zm35.77-12.614V45h-6.051V23.182h5.767v3.85h.256a6.1 6.1 0 0 1 2.429-3.012q1.704-1.122 4.133-1.122 2.273 0 3.963.994t2.628 2.841q.938 1.832.938 4.375V45h-6.052V32.188q.015-2.003-1.022-3.126-1.038-1.136-2.855-1.136-1.222 0-2.159.526-.924.525-1.449 1.534-.511.995-.526 2.4m53.871-6.292h-6.222q-.17-1.208-.696-2.145a5.5 5.5 0 0 0-1.349-1.62 5.9 5.9 0 0 0-1.904-1.022 7.3 7.3 0 0 0-2.315-.355q-2.259 0-3.935 1.122-1.675 1.108-2.599 3.238-.923 2.117-.923 5.142 0 3.111.923 5.228.937 2.115 2.614 3.196t3.877 1.08q1.236 0 2.287-.327a6 6 0 0 0 1.89-.952 5.5 5.5 0 0 0 1.363-1.548q.554-.91.767-2.074l6.222.028a11.3 11.3 0 0 1-1.208 3.864 11.6 11.6 0 0 1-2.571 3.31q-1.605 1.448-3.835 2.3-2.215.84-5.014.839-3.892 0-6.96-1.762-3.054-1.761-4.83-5.1-1.761-3.337-1.761-8.082 0-4.757 1.79-8.096 1.79-3.337 4.858-5.085 3.067-1.761 6.903-1.762 2.529 0 4.688.71 2.173.71 3.849 2.075 1.675 1.349 2.727 3.31 1.065 1.959 1.364 4.488m10.518 19.318q-2.088 0-3.721-.724-1.634-.739-2.585-2.174-.938-1.449-.938-3.608 0-1.818.668-3.054a5.4 5.4 0 0 1 1.818-1.988 8.8 8.8 0 0 1 2.613-1.137 20 20 0 0 1 3.097-.54 78 78 0 0 0 3.068-.369q1.165-.184 1.691-.54.525-.355.525-1.05v-.086q0-1.35-.852-2.088-.838-.739-2.387-.739-1.633 0-2.599.725-.966.71-1.278 1.79l-5.597-.455q.426-1.99 1.676-3.437 1.25-1.464 3.225-2.245 1.988-.795 4.602-.795 1.818 0 3.48.426 1.676.426 2.969 1.32a6.4 6.4 0 0 1 2.059 2.302q.753 1.392.753 3.338V45h-5.738v-3.026h-.171a6.2 6.2 0 0 1-1.406 1.804q-.88.767-2.117 1.208-1.235.426-2.855.426m1.733-4.176q1.335 0 2.358-.526a4.2 4.2 0 0 0 1.605-1.449q.583-.909.583-2.06v-2.315q-.285.185-.782.341-.482.142-1.093.27-.611.114-1.222.213l-1.108.157q-1.065.156-1.861.497-.795.34-1.235.923-.441.568-.441 1.42 0 1.236.895 1.89.909.639 2.301.639M924.161 45V23.182h5.866v3.807h.228q.596-2.032 2.002-3.068 1.407-1.052 3.239-1.052.455 0 .98.057.526.057.924.156v5.37a8 8 0 0 0-1.179-.228 11 11 0 0 0-1.378-.099q-1.335 0-2.387.582-1.037.57-1.647 1.591-.597 1.023-.597 2.358V45zm23.391.355q-2.486 0-4.503-1.278-2.002-1.293-3.181-3.793-1.165-2.514-1.165-6.165 0-3.75 1.207-6.235 1.207-2.5 3.21-3.736a8.23 8.23 0 0 1 4.418-1.25q1.833 0 3.054.625 1.236.61 1.989 1.534.766.91 1.164 1.79h.185V15.909h6.037V45h-5.966v-3.494h-.256a7.8 7.8 0 0 1-1.207 1.804q-.767.88-2.003 1.463-1.221.582-2.983.582m1.918-4.815q1.463 0 2.471-.796 1.023-.81 1.563-2.258.554-1.45.554-3.395t-.54-3.38-1.562-2.217-2.486-.78q-1.493 0-2.514.809-1.023.81-1.549 2.244-.525 1.435-.525 3.324 0 1.904.525 3.366.54 1.45 1.549 2.273 1.021.81 2.514.81"/></svg>