<svg width="648" height="1159" viewBox="0 0 648 1159" fill="none" xmlns="http://www.w3.org/2000/svg">
<rect x="386" y="528" width="120" height="120" fill="#272727"/>
<rect width="120" height="120" transform="matrix(-1 0 0 1 388 932)" fill="#272727"/>
<path d="M405.022 752C404.881 750.812 404.311 749.891 403.311 749.234C402.311 748.578 401.084 748.25 399.631 748.25C398.569 748.25 397.639 748.422 396.842 748.766C396.053 749.109 395.436 749.582 394.991 750.184C394.553 750.785 394.334 751.469 394.334 752.234C394.334 752.875 394.487 753.426 394.792 753.887C395.104 754.34 395.502 754.719 395.987 755.023C396.471 755.32 396.979 755.566 397.51 755.762C398.042 755.949 398.53 756.102 398.975 756.219L401.413 756.875C402.038 757.039 402.733 757.266 403.499 757.555C404.272 757.844 405.01 758.238 405.713 758.738C406.424 759.23 407.01 759.863 407.471 760.637C407.932 761.41 408.163 762.359 408.163 763.484C408.163 764.781 407.823 765.953 407.143 767C406.471 768.047 405.487 768.879 404.19 769.496C402.901 770.113 401.334 770.422 399.491 770.422C397.772 770.422 396.284 770.145 395.026 769.59C393.776 769.035 392.792 768.262 392.073 767.27C391.362 766.277 390.959 765.125 390.866 763.812H393.866C393.944 764.719 394.249 765.469 394.78 766.062C395.319 766.648 395.999 767.086 396.819 767.375C397.647 767.656 398.538 767.797 399.491 767.797C400.6 767.797 401.596 767.617 402.479 767.258C403.362 766.891 404.061 766.383 404.577 765.734C405.092 765.078 405.35 764.313 405.35 763.437C405.35 762.641 405.127 761.992 404.682 761.492C404.237 760.992 403.651 760.586 402.924 760.273C402.198 759.961 401.413 759.687 400.569 759.453L397.616 758.609C395.741 758.07 394.256 757.301 393.163 756.301C392.069 755.301 391.522 753.992 391.522 752.375C391.522 751.031 391.885 749.859 392.612 748.859C393.346 747.852 394.331 747.07 395.565 746.516C396.807 745.953 398.194 745.672 399.725 745.672C401.272 745.672 402.647 745.949 403.85 746.504C405.053 747.051 406.006 747.801 406.709 748.754C407.42 749.707 407.795 750.789 407.834 752H405.022ZM415.332 759.172V770H412.566V746H415.332V754.812H415.566C415.988 753.883 416.621 753.145 417.464 752.598C418.316 752.043 419.449 751.766 420.863 751.766C422.089 751.766 423.164 752.012 424.085 752.504C425.007 752.988 425.722 753.734 426.23 754.742C426.746 755.742 427.003 757.016 427.003 758.563V770H424.238V758.75C424.238 757.32 423.867 756.215 423.125 755.434C422.39 754.645 421.371 754.25 420.066 754.25C419.16 754.25 418.347 754.441 417.628 754.824C416.917 755.207 416.355 755.766 415.941 756.5C415.535 757.234 415.332 758.125 415.332 759.172ZM432.063 770V752H434.829V770H432.063ZM433.469 749C432.93 749 432.465 748.816 432.075 748.449C431.692 748.082 431.5 747.641 431.5 747.125C431.5 746.609 431.692 746.168 432.075 745.801C432.465 745.434 432.93 745.25 433.469 745.25C434.008 745.25 434.469 745.434 434.852 745.801C435.243 746.168 435.438 746.609 435.438 747.125C435.438 747.641 435.243 748.082 434.852 748.449C434.469 748.816 434.008 749 433.469 749ZM447.91 752V754.344H438.207V752H447.91ZM441.113 770V749.516C441.113 748.484 441.355 747.625 441.839 746.937C442.324 746.25 442.953 745.734 443.726 745.391C444.5 745.047 445.316 744.875 446.175 744.875C446.855 744.875 447.41 744.93 447.839 745.039C448.269 745.148 448.589 745.25 448.8 745.344L448.003 747.734C447.863 747.687 447.667 747.629 447.417 747.559C447.175 747.488 446.855 747.453 446.457 747.453C445.542 747.453 444.882 747.684 444.476 748.145C444.078 748.605 443.878 749.281 443.878 750.172V770H441.113ZM459.614 752V754.344H450.286V752H459.614ZM453.004 747.687H455.77V764.844C455.77 765.625 455.883 766.211 456.11 766.602C456.344 766.984 456.641 767.242 457 767.375C457.368 767.5 457.754 767.562 458.161 767.562C458.465 767.562 458.715 767.547 458.911 767.516C459.106 767.477 459.262 767.445 459.379 767.422L459.942 769.906C459.754 769.977 459.493 770.047 459.157 770.117C458.821 770.195 458.395 770.234 457.879 770.234C457.098 770.234 456.333 770.066 455.583 769.73C454.84 769.395 454.223 768.883 453.731 768.195C453.247 767.508 453.004 766.641 453.004 765.594V747.687ZM480.883 752V754.344H471.555V752H480.883ZM474.274 747.687H477.04V764.844C477.04 765.625 477.153 766.211 477.379 766.602C477.614 766.984 477.911 767.242 478.27 767.375C478.637 767.5 479.024 767.562 479.43 767.562C479.735 767.562 479.985 767.547 480.18 767.516C480.375 767.477 480.532 767.445 480.649 767.422L481.211 769.906C481.024 769.977 480.762 770.047 480.426 770.117C480.09 770.195 479.665 770.234 479.149 770.234C478.368 770.234 477.602 770.066 476.852 769.73C476.11 769.395 475.493 768.883 475 768.195C474.516 767.508 474.274 766.641 474.274 765.594V747.687ZM492.163 770.375C490.538 770.375 489.112 769.988 487.885 769.215C486.667 768.441 485.713 767.359 485.026 765.969C484.346 764.578 484.006 762.953 484.006 761.094C484.006 759.219 484.346 757.582 485.026 756.184C485.713 754.785 486.667 753.699 487.885 752.926C489.112 752.152 490.538 751.766 492.163 751.766C493.788 751.766 495.209 752.152 496.428 752.926C497.655 753.699 498.608 754.785 499.288 756.184C499.975 757.582 500.319 759.219 500.319 761.094C500.319 762.953 499.975 764.578 499.288 765.969C498.608 767.359 497.655 768.441 496.428 769.215C495.209 769.988 493.788 770.375 492.163 770.375ZM492.163 767.891C493.397 767.891 494.413 767.574 495.209 766.941C496.006 766.309 496.596 765.477 496.979 764.445C497.362 763.414 497.553 762.297 497.553 761.094C497.553 759.891 497.362 758.77 496.979 757.73C496.596 756.691 496.006 755.852 495.209 755.211C494.413 754.57 493.397 754.25 492.163 754.25C490.928 754.25 489.913 754.57 489.116 755.211C488.319 755.852 487.729 756.691 487.346 757.73C486.963 758.77 486.772 759.891 486.772 761.094C486.772 762.297 486.963 763.414 487.346 764.445C487.729 765.477 488.319 766.309 489.116 766.941C489.913 767.574 490.928 767.891 492.163 767.891ZM389.827 792V794.344H380.499V792H389.827ZM383.218 787.687H385.983V804.844C385.983 805.625 386.097 806.211 386.323 806.602C386.558 806.984 386.854 807.242 387.214 807.375C387.581 807.5 387.968 807.562 388.374 807.562C388.679 807.562 388.929 807.547 389.124 807.516C389.319 807.477 389.476 807.445 389.593 807.422L390.155 809.906C389.968 809.977 389.706 810.047 389.37 810.117C389.034 810.195 388.608 810.234 388.093 810.234C387.312 810.234 386.546 810.066 385.796 809.73C385.054 809.395 384.437 808.883 383.944 808.195C383.46 807.508 383.218 806.641 383.218 805.594V787.687ZM397.14 799.172V810H394.374V786H397.14V794.812H397.374C397.796 793.883 398.429 793.145 399.272 792.598C400.124 792.043 401.257 791.766 402.671 791.766C403.897 791.766 404.972 792.012 405.894 792.504C406.815 792.988 407.53 793.734 408.038 794.742C408.554 795.742 408.812 797.016 408.812 798.563V810H406.046V798.75C406.046 797.32 405.675 796.215 404.933 795.434C404.198 794.645 403.179 794.25 401.874 794.25C400.968 794.25 400.155 794.441 399.437 794.824C398.726 795.207 398.163 795.766 397.749 796.5C397.343 797.234 397.14 798.125 397.14 799.172ZM421.418 810.375C419.684 810.375 418.187 809.992 416.93 809.227C415.68 808.453 414.715 807.375 414.035 805.992C413.363 804.602 413.027 802.984 413.027 801.141C413.027 799.297 413.363 797.672 414.035 796.266C414.715 794.852 415.66 793.75 416.871 792.961C418.09 792.164 419.512 791.766 421.137 791.766C422.074 791.766 423 791.922 423.914 792.234C424.828 792.547 425.66 793.055 426.41 793.758C427.16 794.453 427.758 795.375 428.203 796.523C428.648 797.672 428.871 799.086 428.871 800.766V801.937H414.996V799.547H426.059C426.059 798.531 425.855 797.625 425.449 796.828C425.051 796.031 424.48 795.402 423.738 794.941C423.004 794.48 422.137 794.25 421.137 794.25C420.035 794.25 419.082 794.523 418.277 795.07C417.48 795.609 416.867 796.312 416.438 797.18C416.008 798.047 415.793 798.977 415.793 799.969V801.563C415.793 802.922 416.027 804.074 416.496 805.02C416.973 805.957 417.633 806.672 418.477 807.164C419.32 807.648 420.301 807.891 421.418 807.891C422.145 807.891 422.801 807.789 423.387 807.586C423.98 807.375 424.492 807.063 424.922 806.648C425.352 806.227 425.684 805.703 425.918 805.078L428.59 805.828C428.309 806.734 427.836 807.531 427.172 808.219C426.508 808.898 425.688 809.43 424.711 809.812C423.734 810.188 422.637 810.375 421.418 810.375ZM442.359 810V792H445.031V794.719H445.219C445.547 793.828 446.141 793.105 447 792.551C447.859 791.996 448.828 791.719 449.906 791.719C450.109 791.719 450.363 791.723 450.668 791.73C450.973 791.738 451.203 791.75 451.359 791.766V794.578C451.266 794.555 451.051 794.52 450.715 794.473C450.387 794.418 450.039 794.391 449.672 794.391C448.797 794.391 448.016 794.574 447.328 794.941C446.648 795.301 446.109 795.801 445.711 796.441C445.32 797.074 445.125 797.797 445.125 798.609V810H442.359ZM454.638 810V792H457.403V810H454.638ZM456.044 789C455.505 789 455.04 788.816 454.649 788.449C454.267 788.082 454.075 787.641 454.075 787.125C454.075 786.609 454.267 786.168 454.649 785.801C455.04 785.434 455.505 785.25 456.044 785.25C456.583 785.25 457.044 785.434 457.427 785.801C457.817 786.168 458.013 786.609 458.013 787.125C458.013 787.641 457.817 788.082 457.427 788.449C457.044 788.816 456.583 789 456.044 789ZM469.734 817.125C468.398 817.125 467.25 816.953 466.289 816.609C465.328 816.273 464.527 815.828 463.887 815.273C463.254 814.727 462.75 814.141 462.375 813.516L464.578 811.969C464.828 812.297 465.145 812.672 465.527 813.094C465.91 813.523 466.434 813.895 467.098 814.207C467.77 814.527 468.648 814.687 469.734 814.687C471.188 814.687 472.387 814.336 473.332 813.633C474.277 812.93 474.75 811.828 474.75 810.328V806.672H474.516C474.313 807 474.023 807.406 473.648 807.891C473.281 808.367 472.75 808.793 472.055 809.168C471.367 809.535 470.438 809.719 469.266 809.719C467.813 809.719 466.508 809.375 465.352 808.688C464.203 808 463.293 807 462.621 805.687C461.957 804.375 461.625 802.781 461.625 800.906C461.625 799.062 461.949 797.457 462.598 796.09C463.246 794.715 464.148 793.652 465.305 792.902C466.461 792.145 467.797 791.766 469.312 791.766C470.484 791.766 471.414 791.961 472.102 792.352C472.797 792.734 473.328 793.172 473.695 793.664C474.07 794.148 474.359 794.547 474.563 794.859H474.844V792H477.516V810.516C477.516 812.062 477.164 813.32 476.461 814.289C475.766 815.266 474.828 815.98 473.648 816.434C472.477 816.895 471.172 817.125 469.734 817.125ZM469.641 807.234C470.75 807.234 471.688 806.98 472.453 806.473C473.219 805.965 473.801 805.234 474.199 804.281C474.598 803.328 474.797 802.187 474.797 800.859C474.797 799.562 474.602 798.418 474.211 797.426C473.82 796.434 473.242 795.656 472.477 795.094C471.711 794.531 470.766 794.25 469.641 794.25C468.469 794.25 467.492 794.547 466.711 795.141C465.938 795.734 465.355 796.531 464.965 797.531C464.582 798.531 464.391 799.641 464.391 800.859C464.391 802.109 464.586 803.215 464.977 804.176C465.375 805.129 465.961 805.879 466.734 806.426C467.516 806.965 468.484 807.234 469.641 807.234ZM485.344 799.172V810H482.578V786H485.344V794.812H485.578C486 793.883 486.633 793.145 487.477 792.598C488.328 792.043 489.461 791.766 490.875 791.766C492.102 791.766 493.176 792.012 494.098 792.504C495.02 792.988 495.734 793.734 496.242 794.742C496.758 795.742 497.016 797.016 497.016 798.563V810H494.25V798.75C494.25 797.32 493.879 796.215 493.137 795.434C492.402 794.645 491.383 794.25 490.078 794.25C489.172 794.25 488.359 794.441 487.641 794.824C486.93 795.207 486.367 795.766 485.953 796.5C485.547 797.234 485.344 798.125 485.344 799.172ZM509.903 792V794.344H500.575V792H509.903ZM503.294 787.687H506.06V804.844C506.06 805.625 506.173 806.211 506.399 806.602C506.634 806.984 506.931 807.242 507.29 807.375C507.657 807.5 508.044 807.562 508.45 807.562C508.755 807.562 509.005 807.547 509.2 807.516C509.396 807.477 509.552 807.445 509.669 807.422L510.231 809.906C510.044 809.977 509.782 810.047 509.446 810.117C509.11 810.195 508.685 810.234 508.169 810.234C507.388 810.234 506.622 810.066 505.872 809.73C505.13 809.395 504.513 808.883 504.021 808.195C503.536 807.508 503.294 806.641 503.294 805.594V787.687Z" fill="white"/>
<path d="M158.529 1087V1111H155.623V1087H158.529ZM166.747 1100.17V1111H163.981V1093H166.653V1095.81H166.888C167.31 1094.9 167.95 1094.16 168.81 1093.61C169.669 1093.05 170.778 1092.77 172.138 1092.77C173.356 1092.77 174.423 1093.02 175.337 1093.52C176.251 1094.01 176.962 1094.76 177.47 1095.77C177.978 1096.77 178.231 1098.03 178.231 1099.56V1111H175.466V1099.75C175.466 1098.34 175.099 1097.23 174.364 1096.45C173.63 1095.65 172.622 1095.25 171.341 1095.25C170.458 1095.25 169.669 1095.44 168.974 1095.82C168.286 1096.21 167.743 1096.77 167.345 1097.5C166.946 1098.23 166.747 1099.12 166.747 1100.17ZM196.035 1097.03L193.551 1097.73C193.395 1097.32 193.164 1096.92 192.859 1096.53C192.563 1096.13 192.156 1095.8 191.641 1095.54C191.125 1095.29 190.465 1095.16 189.66 1095.16C188.559 1095.16 187.641 1095.41 186.906 1095.92C186.18 1096.42 185.816 1097.05 185.816 1097.83C185.816 1098.52 186.066 1099.06 186.566 1099.46C187.066 1099.86 187.848 1100.19 188.91 1100.45L191.582 1101.11C193.191 1101.5 194.391 1102.1 195.18 1102.9C195.969 1103.7 196.363 1104.73 196.363 1105.98C196.363 1107.02 196.066 1107.94 195.473 1108.75C194.887 1109.56 194.066 1110.2 193.012 1110.67C191.957 1111.14 190.73 1111.38 189.332 1111.38C187.496 1111.38 185.977 1110.98 184.773 1110.18C183.57 1109.38 182.809 1108.22 182.488 1106.69L185.113 1106.03C185.363 1107 185.836 1107.73 186.531 1108.21C187.234 1108.7 188.152 1108.94 189.285 1108.94C190.574 1108.94 191.598 1108.66 192.355 1108.12C193.121 1107.56 193.504 1106.9 193.504 1106.12C193.504 1105.5 193.285 1104.98 192.848 1104.55C192.41 1104.12 191.738 1103.8 190.832 1103.59L187.832 1102.89C186.184 1102.5 184.973 1101.89 184.199 1101.07C183.434 1100.25 183.051 1099.21 183.051 1097.97C183.051 1096.95 183.336 1096.05 183.906 1095.27C184.484 1094.49 185.27 1093.88 186.262 1093.43C187.262 1092.99 188.395 1092.77 189.66 1092.77C191.441 1092.77 192.84 1093.16 193.855 1093.94C194.879 1094.72 195.605 1095.75 196.035 1097.03ZM208.073 1111.38C206.339 1111.38 204.843 1110.99 203.585 1110.23C202.335 1109.45 201.37 1108.37 200.69 1106.99C200.019 1105.6 199.683 1103.98 199.683 1102.14C199.683 1100.3 200.019 1098.67 200.69 1097.27C201.37 1095.85 202.315 1094.75 203.526 1093.96C204.745 1093.16 206.167 1092.77 207.792 1092.77C208.729 1092.77 209.655 1092.92 210.569 1093.23C211.483 1093.55 212.315 1094.05 213.065 1094.76C213.815 1095.45 214.413 1096.37 214.858 1097.52C215.304 1098.67 215.526 1100.09 215.526 1101.77V1102.94H201.651V1100.55H212.714C212.714 1099.53 212.511 1098.62 212.104 1097.83C211.706 1097.03 211.136 1096.4 210.394 1095.94C209.659 1095.48 208.792 1095.25 207.792 1095.25C206.69 1095.25 205.737 1095.52 204.933 1096.07C204.136 1096.61 203.522 1097.31 203.093 1098.18C202.663 1099.05 202.448 1099.98 202.448 1100.97V1102.56C202.448 1103.92 202.683 1105.07 203.151 1106.02C203.628 1106.96 204.288 1107.67 205.132 1108.16C205.976 1108.65 206.956 1108.89 208.073 1108.89C208.8 1108.89 209.456 1108.79 210.042 1108.59C210.636 1108.37 211.147 1108.06 211.577 1107.65C212.007 1107.23 212.339 1106.7 212.573 1106.08L215.245 1106.83C214.964 1107.73 214.491 1108.53 213.827 1109.22C213.163 1109.9 212.343 1110.43 211.366 1110.81C210.39 1111.19 209.292 1111.38 208.073 1111.38ZM219.733 1111V1093H222.405V1095.72H222.593C222.921 1094.83 223.515 1094.11 224.374 1093.55C225.233 1093 226.202 1092.72 227.28 1092.72C227.483 1092.72 227.737 1092.72 228.042 1092.73C228.347 1092.74 228.577 1092.75 228.733 1092.77V1095.58C228.64 1095.55 228.425 1095.52 228.089 1095.47C227.761 1095.42 227.413 1095.39 227.046 1095.39C226.171 1095.39 225.39 1095.57 224.702 1095.94C224.022 1096.3 223.483 1096.8 223.085 1097.44C222.694 1098.07 222.499 1098.8 222.499 1099.61V1111H219.733ZM240.968 1093V1095.34H231.64V1093H240.968ZM234.358 1088.69H237.124V1105.84C237.124 1106.62 237.237 1107.21 237.464 1107.6C237.698 1107.98 237.995 1108.24 238.354 1108.38C238.722 1108.5 239.108 1108.56 239.515 1108.56C239.819 1108.56 240.069 1108.55 240.265 1108.52C240.46 1108.48 240.616 1108.45 240.733 1108.42L241.296 1110.91C241.108 1110.98 240.847 1111.05 240.511 1111.12C240.175 1111.2 239.749 1111.23 239.233 1111.23C238.452 1111.23 237.687 1111.07 236.937 1110.73C236.194 1110.39 235.577 1109.88 235.085 1109.2C234.601 1108.51 234.358 1107.64 234.358 1106.59V1088.69ZM262.472 1111.33C260.925 1111.33 259.546 1111.06 258.335 1110.53C257.132 1110 256.175 1109.26 255.464 1108.32C254.761 1107.36 254.378 1106.26 254.315 1105H257.269C257.331 1105.77 257.597 1106.44 258.065 1107C258.534 1107.56 259.147 1107.99 259.905 1108.29C260.663 1108.6 261.503 1108.75 262.425 1108.75C263.456 1108.75 264.37 1108.57 265.167 1108.21C265.964 1107.85 266.589 1107.35 267.042 1106.71C267.495 1106.07 267.722 1105.33 267.722 1104.48C267.722 1103.6 267.503 1102.82 267.065 1102.15C266.628 1101.47 265.987 1100.94 265.144 1100.56C264.3 1100.18 263.269 1099.98 262.05 1099.98H260.128V1097.41H262.05C263.003 1097.41 263.839 1097.23 264.558 1096.89C265.284 1096.55 265.851 1096.06 266.257 1095.44C266.671 1094.81 266.878 1094.08 266.878 1093.23C266.878 1092.42 266.698 1091.71 266.339 1091.11C265.979 1090.51 265.472 1090.04 264.815 1089.71C264.167 1089.37 263.401 1089.2 262.519 1089.2C261.69 1089.2 260.909 1089.36 260.175 1089.66C259.448 1089.96 258.854 1090.39 258.394 1090.96C257.933 1091.52 257.683 1092.2 257.644 1093H254.831C254.878 1091.74 255.257 1090.64 255.968 1089.7C256.679 1088.74 257.608 1088 258.757 1087.47C259.913 1086.94 261.183 1086.67 262.565 1086.67C264.05 1086.67 265.323 1086.97 266.386 1087.57C267.448 1088.17 268.265 1088.95 268.835 1089.93C269.405 1090.91 269.69 1091.96 269.69 1093.09C269.69 1094.45 269.335 1095.6 268.624 1096.55C267.921 1097.5 266.964 1098.16 265.753 1098.53V1098.72C267.269 1098.97 268.452 1099.61 269.304 1100.65C270.155 1101.68 270.581 1102.96 270.581 1104.48C270.581 1105.79 270.226 1106.96 269.515 1108C268.812 1109.03 267.851 1109.84 266.632 1110.44C265.413 1111.03 264.026 1111.33 262.472 1111.33ZM275.374 1111V1108.89L283.296 1100.22C284.226 1099.2 284.991 1098.32 285.593 1097.57C286.194 1096.81 286.64 1096.1 286.929 1095.44C287.226 1094.77 287.374 1094.06 287.374 1093.33C287.374 1092.48 287.171 1091.75 286.765 1091.14C286.366 1090.52 285.819 1090.04 285.124 1089.71C284.429 1089.37 283.647 1089.2 282.78 1089.2C281.858 1089.2 281.054 1089.39 280.366 1089.78C279.687 1090.15 279.159 1090.68 278.784 1091.36C278.417 1092.04 278.233 1092.84 278.233 1093.75H275.468C275.468 1092.34 275.792 1091.11 276.44 1090.05C277.089 1088.98 277.972 1088.16 279.089 1087.56C280.214 1086.97 281.476 1086.67 282.874 1086.67C284.28 1086.67 285.526 1086.97 286.612 1087.56C287.698 1088.16 288.55 1088.96 289.167 1089.96C289.784 1090.97 290.093 1092.09 290.093 1093.33C290.093 1094.21 289.933 1095.07 289.612 1095.92C289.3 1096.75 288.753 1097.69 287.972 1098.72C287.198 1099.74 286.124 1100.99 284.749 1102.47L279.358 1108.23V1108.42H290.515V1111H275.374ZM304.683 1111V1093H307.448V1111H304.683ZM306.089 1090C305.55 1090 305.085 1089.82 304.694 1089.45C304.312 1089.08 304.12 1088.64 304.12 1088.13C304.12 1087.61 304.312 1087.17 304.694 1086.8C305.085 1086.43 305.55 1086.25 306.089 1086.25C306.628 1086.25 307.089 1086.43 307.472 1086.8C307.862 1087.17 308.058 1087.61 308.058 1088.13C308.058 1088.64 307.862 1089.08 307.472 1089.45C307.089 1089.82 306.628 1090 306.089 1090ZM315.279 1100.17V1111H312.514V1093H315.186V1095.81H315.42C315.842 1094.9 316.482 1094.16 317.342 1093.61C318.201 1093.05 319.311 1092.77 320.67 1092.77C321.889 1092.77 322.955 1093.02 323.869 1093.52C324.783 1094.01 325.494 1094.76 326.002 1095.77C326.51 1096.77 326.764 1098.03 326.764 1099.56V1111H323.998V1099.75C323.998 1098.34 323.631 1097.23 322.896 1096.45C322.162 1095.65 321.154 1095.25 319.873 1095.25C318.99 1095.25 318.201 1095.44 317.506 1095.82C316.818 1096.21 316.275 1096.77 315.877 1097.5C315.479 1098.23 315.279 1099.12 315.279 1100.17ZM348.927 1093V1095.34H339.599V1093H348.927ZM342.317 1088.69H345.083V1105.84C345.083 1106.62 345.196 1107.21 345.423 1107.6C345.657 1107.98 345.954 1108.24 346.313 1108.38C346.681 1108.5 347.067 1108.56 347.474 1108.56C347.778 1108.56 348.028 1108.55 348.224 1108.52C348.419 1108.48 348.575 1108.45 348.692 1108.42L349.255 1110.91C349.067 1110.98 348.806 1111.05 348.47 1111.12C348.134 1111.2 347.708 1111.23 347.192 1111.23C346.411 1111.23 345.646 1111.07 344.896 1110.73C344.153 1110.39 343.536 1109.88 343.044 1109.2C342.56 1108.51 342.317 1107.64 342.317 1106.59V1088.69ZM356.239 1100.17V1111H353.474V1087H356.239V1095.81H356.474C356.896 1094.88 357.528 1094.14 358.372 1093.6C359.224 1093.04 360.356 1092.77 361.771 1092.77C362.997 1092.77 364.071 1093.01 364.993 1093.5C365.915 1093.99 366.63 1094.73 367.138 1095.74C367.653 1096.74 367.911 1098.02 367.911 1099.56V1111H365.146V1099.75C365.146 1098.32 364.774 1097.21 364.032 1096.43C363.298 1095.64 362.278 1095.25 360.974 1095.25C360.067 1095.25 359.255 1095.44 358.536 1095.82C357.825 1096.21 357.263 1096.77 356.849 1097.5C356.442 1098.23 356.239 1099.12 356.239 1100.17ZM380.518 1111.38C378.783 1111.38 377.287 1110.99 376.029 1110.23C374.779 1109.45 373.814 1108.37 373.135 1106.99C372.463 1105.6 372.127 1103.98 372.127 1102.14C372.127 1100.3 372.463 1098.67 373.135 1097.27C373.814 1095.85 374.76 1094.75 375.971 1093.96C377.189 1093.16 378.611 1092.77 380.236 1092.77C381.174 1092.77 382.1 1092.92 383.014 1093.23C383.928 1093.55 384.76 1094.05 385.51 1094.76C386.26 1095.45 386.857 1096.37 387.303 1097.52C387.748 1098.67 387.971 1100.09 387.971 1101.77V1102.94H374.096V1100.55H385.158C385.158 1099.53 384.955 1098.62 384.549 1097.83C384.15 1097.03 383.58 1096.4 382.838 1095.94C382.104 1095.48 381.236 1095.25 380.236 1095.25C379.135 1095.25 378.182 1095.52 377.377 1096.07C376.58 1096.61 375.967 1097.31 375.537 1098.18C375.107 1099.05 374.893 1099.98 374.893 1100.97V1102.56C374.893 1103.92 375.127 1105.07 375.596 1106.02C376.072 1106.96 376.732 1107.67 377.576 1108.16C378.42 1108.65 379.4 1108.89 380.518 1108.89C381.244 1108.89 381.9 1108.79 382.486 1108.59C383.08 1108.37 383.592 1108.06 384.021 1107.65C384.451 1107.23 384.783 1106.7 385.018 1106.08L387.689 1106.83C387.408 1107.73 386.936 1108.53 386.271 1109.22C385.607 1109.9 384.787 1110.43 383.811 1110.81C382.834 1111.19 381.736 1111.38 380.518 1111.38ZM409.006 1111.38C407.271 1111.38 405.775 1110.99 404.518 1110.23C403.268 1109.45 402.303 1108.37 401.623 1106.99C400.951 1105.6 400.615 1103.98 400.615 1102.14C400.615 1100.3 400.951 1098.67 401.623 1097.27C402.303 1095.85 403.248 1094.75 404.459 1093.96C405.678 1093.16 407.1 1092.77 408.725 1092.77C409.662 1092.77 410.588 1092.92 411.502 1093.23C412.416 1093.55 413.248 1094.05 413.998 1094.76C414.748 1095.45 415.346 1096.37 415.791 1097.52C416.236 1098.67 416.459 1100.09 416.459 1101.77V1102.94H402.584V1100.55H413.646C413.646 1099.53 413.443 1098.62 413.037 1097.83C412.639 1097.03 412.068 1096.4 411.326 1095.94C410.592 1095.48 409.725 1095.25 408.725 1095.25C407.623 1095.25 406.67 1095.52 405.865 1096.07C405.068 1096.61 404.455 1097.31 404.025 1098.18C403.596 1099.05 403.381 1099.98 403.381 1100.97V1102.56C403.381 1103.92 403.615 1105.07 404.084 1106.02C404.561 1106.96 405.221 1107.67 406.064 1108.16C406.908 1108.65 407.889 1108.89 409.006 1108.89C409.732 1108.89 410.389 1108.79 410.975 1108.59C411.568 1108.37 412.08 1108.06 412.51 1107.65C412.939 1107.23 413.271 1106.7 413.506 1106.08L416.178 1106.83C415.896 1107.73 415.424 1108.53 414.76 1109.22C414.096 1109.9 413.275 1110.43 412.299 1110.81C411.322 1111.19 410.225 1111.38 409.006 1111.38ZM420.666 1111V1093H423.338V1095.81H423.572C423.947 1094.85 424.553 1094.11 425.389 1093.57C426.225 1093.04 427.229 1092.77 428.4 1092.77C429.588 1092.77 430.576 1093.04 431.365 1093.57C432.162 1094.11 432.783 1094.85 433.229 1095.81H433.416C433.877 1094.88 434.568 1094.14 435.49 1093.6C436.412 1093.04 437.518 1092.77 438.807 1092.77C440.416 1092.77 441.732 1093.27 442.756 1094.28C443.779 1095.28 444.291 1096.84 444.291 1098.95V1111H441.525V1098.95C441.525 1097.62 441.162 1096.68 440.436 1096.11C439.709 1095.54 438.854 1095.25 437.869 1095.25C436.604 1095.25 435.623 1095.63 434.928 1096.4C434.232 1097.16 433.885 1098.12 433.885 1099.28V1111H431.072V1098.67C431.072 1097.65 430.74 1096.82 430.076 1096.2C429.412 1095.57 428.557 1095.25 427.51 1095.25C426.791 1095.25 426.119 1095.44 425.494 1095.82C424.877 1096.21 424.377 1096.74 423.994 1097.42C423.619 1098.09 423.432 1098.87 423.432 1099.75V1111H420.666ZM449.348 1117.75V1093H452.02V1095.86H452.348C452.551 1095.55 452.832 1095.15 453.191 1094.66C453.559 1094.17 454.082 1093.73 454.762 1093.35C455.449 1092.96 456.379 1092.77 457.551 1092.77C459.066 1092.77 460.402 1093.14 461.559 1093.9C462.715 1094.66 463.617 1095.73 464.266 1097.12C464.914 1098.52 465.238 1100.16 465.238 1102.05C465.238 1103.95 464.914 1105.61 464.266 1107C463.617 1108.39 462.719 1109.47 461.57 1110.24C460.422 1111 459.098 1111.38 457.598 1111.38C456.441 1111.38 455.516 1111.18 454.82 1110.8C454.125 1110.41 453.59 1109.97 453.215 1109.48C452.84 1108.98 452.551 1108.56 452.348 1108.23H452.113V1117.75H449.348ZM452.066 1102C452.066 1103.36 452.266 1104.56 452.664 1105.6C453.062 1106.63 453.645 1107.44 454.41 1108.02C455.176 1108.6 456.113 1108.89 457.223 1108.89C458.379 1108.89 459.344 1108.59 460.117 1107.98C460.898 1107.36 461.484 1106.53 461.875 1105.49C462.273 1104.45 462.473 1103.28 462.473 1102C462.473 1100.73 462.277 1099.59 461.887 1098.58C461.504 1097.55 460.922 1096.75 460.141 1096.15C459.367 1095.55 458.395 1095.25 457.223 1095.25C456.098 1095.25 455.152 1095.54 454.387 1096.11C453.621 1096.67 453.043 1097.46 452.652 1098.47C452.262 1099.48 452.066 1100.66 452.066 1102ZM477.285 1093V1095.34H467.957V1093H477.285ZM470.676 1088.69H473.441V1105.84C473.441 1106.62 473.555 1107.21 473.781 1107.6C474.016 1107.98 474.313 1108.24 474.672 1108.38C475.039 1108.5 475.426 1108.56 475.832 1108.56C476.137 1108.56 476.387 1108.55 476.582 1108.52C476.777 1108.48 476.934 1108.45 477.051 1108.42L477.613 1110.91C477.426 1110.98 477.164 1111.05 476.828 1111.12C476.492 1111.2 476.066 1111.23 475.551 1111.23C474.77 1111.23 474.004 1111.07 473.254 1110.73C472.512 1110.39 471.895 1109.88 471.402 1109.2C470.918 1108.51 470.676 1107.64 470.676 1106.59V1088.69ZM483.227 1117.75C482.758 1117.75 482.34 1117.71 481.973 1117.63C481.605 1117.56 481.352 1117.49 481.211 1117.42L481.914 1114.98C482.586 1115.16 483.18 1115.22 483.695 1115.17C484.211 1115.12 484.668 1114.89 485.066 1114.48C485.473 1114.07 485.844 1113.41 486.18 1112.5L486.695 1111.09L480.039 1093H483.039L488.008 1107.34H488.195L493.164 1093H496.164L488.523 1113.62C488.18 1114.55 487.754 1115.32 487.246 1115.93C486.738 1116.55 486.148 1117.01 485.477 1117.3C484.813 1117.6 484.063 1117.75 483.227 1117.75ZM311.906 1137.03L309.421 1137.73C309.265 1137.32 309.035 1136.92 308.73 1136.53C308.433 1136.13 308.027 1135.8 307.511 1135.54C306.996 1135.29 306.335 1135.16 305.531 1135.16C304.429 1135.16 303.511 1135.41 302.777 1135.92C302.05 1136.42 301.687 1137.05 301.687 1137.83C301.687 1138.52 301.937 1139.06 302.437 1139.46C302.937 1139.86 303.718 1140.19 304.781 1140.45L307.453 1141.11C309.062 1141.5 310.261 1142.1 311.05 1142.9C311.839 1143.7 312.234 1144.73 312.234 1145.98C312.234 1147.02 311.937 1147.94 311.343 1148.75C310.757 1149.56 309.937 1150.2 308.882 1150.67C307.828 1151.14 306.601 1151.38 305.203 1151.38C303.367 1151.38 301.847 1150.98 300.644 1150.18C299.441 1149.38 298.679 1148.22 298.359 1146.69L300.984 1146.03C301.234 1147 301.707 1147.73 302.402 1148.21C303.105 1148.7 304.023 1148.94 305.156 1148.94C306.445 1148.94 307.468 1148.66 308.226 1148.12C308.992 1147.56 309.375 1146.9 309.375 1146.12C309.375 1145.5 309.156 1144.98 308.718 1144.55C308.281 1144.12 307.609 1143.8 306.703 1143.59L303.703 1142.89C302.054 1142.5 300.843 1141.89 300.07 1141.07C299.304 1140.25 298.921 1139.21 298.921 1137.97C298.921 1136.95 299.207 1136.05 299.777 1135.27C300.355 1134.49 301.14 1133.88 302.132 1133.43C303.132 1132.99 304.265 1132.77 305.531 1132.77C307.312 1132.77 308.71 1133.16 309.726 1133.94C310.75 1134.72 311.476 1135.75 311.906 1137.03ZM319.163 1127V1151H316.397V1127H319.163ZM331.541 1151.38C329.916 1151.38 328.49 1150.99 327.263 1150.21C326.044 1149.44 325.091 1148.36 324.404 1146.97C323.724 1145.58 323.384 1143.95 323.384 1142.09C323.384 1140.22 323.724 1138.58 324.404 1137.18C325.091 1135.79 326.044 1134.7 327.263 1133.93C328.49 1133.15 329.916 1132.77 331.541 1132.77C333.166 1132.77 334.587 1133.15 335.806 1133.93C337.033 1134.7 337.986 1135.79 338.666 1137.18C339.353 1138.58 339.697 1140.22 339.697 1142.09C339.697 1143.95 339.353 1145.58 338.666 1146.97C337.986 1148.36 337.033 1149.44 335.806 1150.21C334.587 1150.99 333.166 1151.38 331.541 1151.38ZM331.541 1148.89C332.775 1148.89 333.791 1148.57 334.587 1147.94C335.384 1147.31 335.974 1146.48 336.357 1145.45C336.74 1144.41 336.931 1143.3 336.931 1142.09C336.931 1140.89 336.74 1139.77 336.357 1138.73C335.974 1137.69 335.384 1136.85 334.587 1136.21C333.791 1135.57 332.775 1135.25 331.541 1135.25C330.306 1135.25 329.291 1135.57 328.494 1136.21C327.697 1136.85 327.107 1137.69 326.724 1138.73C326.341 1139.77 326.15 1140.89 326.15 1142.09C326.15 1143.3 326.341 1144.41 326.724 1145.45C327.107 1146.48 327.697 1147.31 328.494 1147.94C329.291 1148.57 330.306 1148.89 331.541 1148.89ZM351.747 1133V1135.34H342.418V1133H351.747ZM345.137 1128.69H347.903V1145.84C347.903 1146.62 348.016 1147.21 348.243 1147.6C348.477 1147.98 348.774 1148.24 349.133 1148.38C349.5 1148.5 349.887 1148.56 350.293 1148.56C350.598 1148.56 350.848 1148.55 351.043 1148.52C351.239 1148.48 351.395 1148.45 351.512 1148.42L352.075 1150.91C351.887 1150.98 351.625 1151.05 351.29 1151.12C350.954 1151.2 350.528 1151.23 350.012 1151.23C349.231 1151.23 348.465 1151.07 347.715 1150.73C346.973 1150.39 346.356 1149.88 345.864 1149.2C345.379 1148.51 345.137 1147.64 345.137 1146.59V1128.69Z" fill="white"/>
<line y1="-0.5" x2="33" y2="-0.5" transform="matrix(0 1 1 0 506 683)" stroke="white"/>
<line x1="386" y1="715.5" x2="505" y2="715.5" stroke="white"/>
<line y1="-0.5" x2="33" y2="-0.5" transform="matrix(0 1 1 0 386 683)" stroke="white"/>
<rect x="265" y="92" width="120" height="120" fill="#00266C"/>
<rect x="385" y="92" width="120" height="120" fill="#009966"/>
<path d="M222.393 20.9801V15.9091H246.285V20.9801H237.379V45H231.299V20.9801H222.393ZM256.157 32.3864V45H250.106V15.9091H255.987V27.0312H256.243C256.735 25.7434 257.53 24.7348 258.629 24.0057C259.727 23.267 261.105 22.8977 262.762 22.8977C264.278 22.8977 265.599 23.2292 266.725 23.892C267.862 24.5455 268.743 25.4877 269.368 26.7188C270.002 27.9403 270.315 29.4034 270.305 31.108V45H264.254V32.1875C264.263 30.8428 263.922 29.7964 263.231 29.0483C262.549 28.3002 261.593 27.9261 260.362 27.9261C259.538 27.9261 258.809 28.1013 258.174 28.4517C257.549 28.8021 257.057 29.3134 256.697 29.9858C256.347 30.6487 256.167 31.4489 256.157 32.3864ZM275.067 45V23.1818H281.118V45H275.067ZM278.107 20.3693C277.207 20.3693 276.435 20.071 275.792 19.4744C275.157 18.8684 274.84 18.1439 274.84 17.3011C274.84 16.4678 275.157 15.7528 275.792 15.1562C276.435 14.5502 277.207 14.2472 278.107 14.2472C279.007 14.2472 279.774 14.5502 280.408 15.1562C281.052 15.7528 281.374 16.4678 281.374 17.3011C281.374 18.1439 281.052 18.8684 280.408 19.4744C279.774 20.071 279.007 20.3693 278.107 20.3693ZM285.966 45V23.1818H291.832V26.9886H292.059C292.457 25.6345 293.125 24.6117 294.062 23.9205C295 23.2197 296.079 22.8693 297.301 22.8693C297.604 22.8693 297.931 22.8883 298.281 22.9261C298.631 22.964 298.939 23.0161 299.204 23.0824V28.4517C298.92 28.3665 298.527 28.2907 298.025 28.2244C297.523 28.1581 297.064 28.125 296.647 28.125C295.757 28.125 294.962 28.3191 294.261 28.7074C293.57 29.0862 293.02 29.6165 292.613 30.2983C292.216 30.9801 292.017 31.7661 292.017 32.6562V45H285.966ZM309.357 45.3551C307.7 45.3551 306.199 44.929 304.854 44.0767C303.519 43.215 302.458 41.9508 301.672 40.2841C300.896 38.608 300.507 36.553 300.507 34.1193C300.507 31.6193 300.91 29.5407 301.715 27.8835C302.52 26.2169 303.59 24.9716 304.925 24.1477C306.27 23.3144 307.742 22.8977 309.343 22.8977C310.564 22.8977 311.582 23.1061 312.397 23.5227C313.221 23.9299 313.883 24.4413 314.385 25.0568C314.897 25.6629 315.285 26.2595 315.55 26.8466H315.735V15.9091H321.772V45H315.806V41.5057H315.55C315.266 42.1117 314.864 42.7131 314.343 43.3097C313.831 43.8968 313.164 44.3845 312.34 44.7727C311.525 45.161 310.531 45.3551 309.357 45.3551ZM311.275 40.5398C312.25 40.5398 313.074 40.2746 313.746 39.7443C314.428 39.2045 314.949 38.4517 315.309 37.4858C315.678 36.5199 315.863 35.3883 315.863 34.0909C315.863 32.7936 315.683 31.6667 315.323 30.7102C314.963 29.7538 314.442 29.0152 313.76 28.4943C313.078 27.9735 312.25 27.7131 311.275 27.7131C310.28 27.7131 309.442 27.983 308.76 28.5227C308.078 29.0625 307.562 29.8106 307.212 30.767C306.862 31.7235 306.686 32.8314 306.686 34.0909C306.686 35.3598 306.862 36.482 307.212 37.4574C307.572 38.4233 308.088 39.1809 308.76 39.7301C309.442 40.2699 310.28 40.5398 311.275 40.5398ZM336.118 45V15.9091H347.596C349.802 15.9091 351.682 16.3305 353.235 17.1733C354.788 18.0066 355.971 19.1667 356.786 20.6534C357.61 22.1307 358.022 23.8352 358.022 25.767C358.022 27.6989 357.605 29.4034 356.772 30.8807C355.938 32.358 354.731 33.5085 353.15 34.3324C351.578 35.1562 349.674 35.5682 347.439 35.5682H340.124V30.6392H346.445C347.629 30.6392 348.604 30.4356 349.371 30.0284C350.148 29.6117 350.725 29.0388 351.104 28.3097C351.492 27.571 351.686 26.7235 351.686 25.767C351.686 24.8011 351.492 23.9583 351.104 23.2386C350.725 22.5095 350.148 21.946 349.371 21.5483C348.595 21.1411 347.61 20.9375 346.417 20.9375H342.269V45H336.118ZM367.539 45.4119C366.147 45.4119 364.906 45.1705 363.817 44.6875C362.728 44.1951 361.866 43.4706 361.232 42.5142C360.607 41.5483 360.294 40.3456 360.294 38.9062C360.294 37.6941 360.517 36.6761 360.962 35.8523C361.407 35.0284 362.013 34.3655 362.78 33.8636C363.547 33.3617 364.418 32.983 365.394 32.7273C366.379 32.4716 367.411 32.2917 368.49 32.1875C369.759 32.0549 370.782 31.9318 371.559 31.8182C372.335 31.6951 372.899 31.5152 373.249 31.2784C373.599 31.0417 373.775 30.6913 373.775 30.2273V30.142C373.775 29.2424 373.49 28.5464 372.922 28.054C372.364 27.5616 371.568 27.3153 370.536 27.3153C369.447 27.3153 368.58 27.5568 367.936 28.0398C367.292 28.5133 366.866 29.1098 366.658 29.8295L361.061 29.375C361.346 28.0492 361.904 26.9034 362.738 25.9375C363.571 24.9621 364.646 24.214 365.962 23.6932C367.288 23.1629 368.822 22.8977 370.564 22.8977C371.776 22.8977 372.936 23.0398 374.044 23.3239C375.162 23.608 376.151 24.0483 377.013 24.6449C377.884 25.2415 378.571 26.0085 379.073 26.946C379.575 27.8741 379.826 28.9867 379.826 30.2841V45H374.087V41.9744H373.917C373.566 42.6562 373.097 43.2576 372.51 43.7784C371.923 44.2898 371.218 44.6922 370.394 44.9858C369.57 45.2699 368.618 45.4119 367.539 45.4119ZM369.272 41.2358C370.162 41.2358 370.948 41.0606 371.63 40.7102C372.311 40.3504 372.846 39.8674 373.235 39.2614C373.623 38.6553 373.817 37.9687 373.817 37.2017V34.8864C373.628 35.0095 373.367 35.1231 373.036 35.2273C372.714 35.322 372.349 35.4119 371.942 35.4972C371.535 35.5729 371.128 35.6439 370.721 35.7102C370.313 35.767 369.944 35.8191 369.613 35.8665C368.902 35.9706 368.282 36.1364 367.752 36.3636C367.221 36.5909 366.81 36.8987 366.516 37.2869C366.222 37.6657 366.076 38.1392 366.076 38.7074C366.076 39.5312 366.374 40.161 366.971 40.5966C367.577 41.0227 368.344 41.2358 369.272 41.2358ZM402.674 29.4034L397.134 29.7443C397.039 29.2708 396.836 28.8447 396.523 28.4659C396.211 28.0777 395.799 27.7699 395.287 27.5426C394.785 27.3059 394.184 27.1875 393.483 27.1875C392.546 27.1875 391.755 27.3864 391.111 27.7841C390.467 28.1723 390.145 28.6932 390.145 29.3466C390.145 29.8674 390.354 30.3078 390.77 30.6676C391.187 31.0275 391.902 31.3163 392.915 31.5341L396.864 32.3295C398.985 32.7652 400.567 33.4659 401.608 34.4318C402.65 35.3977 403.171 36.6667 403.171 38.2386C403.171 39.6686 402.749 40.9233 401.907 42.0028C401.073 43.0824 399.927 43.9252 398.469 44.5312C397.02 45.1278 395.349 45.4261 393.455 45.4261C390.567 45.4261 388.266 44.8248 386.551 43.6222C384.847 42.41 383.848 40.7623 383.554 38.679L389.506 38.3665C389.686 39.2472 390.122 39.9195 390.813 40.3835C391.504 40.8381 392.39 41.0653 393.469 41.0653C394.53 41.0653 395.382 40.8617 396.026 40.4545C396.679 40.0379 397.011 39.5028 397.02 38.8494C397.011 38.3002 396.779 37.8504 396.324 37.5C395.87 37.1402 395.169 36.8655 394.222 36.6761L390.444 35.9233C388.313 35.4972 386.727 34.7585 385.685 33.7074C384.653 32.6562 384.137 31.3163 384.137 29.6875C384.137 28.286 384.516 27.0786 385.273 26.0653C386.04 25.0521 387.115 24.2708 388.498 23.7216C389.89 23.1723 391.518 22.8977 393.384 22.8977C396.14 22.8977 398.308 23.4801 399.89 24.6449C401.48 25.8097 402.408 27.3958 402.674 29.4034ZM425.135 29.4034L419.595 29.7443C419.5 29.2708 419.297 28.8447 418.984 28.4659C418.672 28.0777 418.26 27.7699 417.748 27.5426C417.246 27.3059 416.645 27.1875 415.944 27.1875C415.007 27.1875 414.216 27.3864 413.572 27.7841C412.928 28.1723 412.606 28.6932 412.606 29.3466C412.606 29.8674 412.815 30.3078 413.231 30.6676C413.648 31.0275 414.363 31.3163 415.376 31.5341L419.325 32.3295C421.446 32.7652 423.028 33.4659 424.069 34.4318C425.111 35.3977 425.632 36.6667 425.632 38.2386C425.632 39.6686 425.21 40.9233 424.368 42.0028C423.534 43.0824 422.388 43.9252 420.93 44.5312C419.481 45.1278 417.81 45.4261 415.916 45.4261C413.028 45.4261 410.726 44.8248 409.012 43.6222C407.308 42.41 406.309 40.7623 406.015 38.679L411.967 38.3665C412.147 39.2472 412.583 39.9195 413.274 40.3835C413.965 40.8381 414.85 41.0653 415.93 41.0653C416.991 41.0653 417.843 40.8617 418.487 40.4545C419.14 40.0379 419.472 39.5028 419.481 38.8494C419.472 38.3002 419.24 37.8504 418.785 37.5C418.331 37.1402 417.63 36.8655 416.683 36.6761L412.904 35.9233C410.774 35.4972 409.188 34.7585 408.146 33.7074C407.114 32.6562 406.598 31.3163 406.598 29.6875C406.598 28.286 406.976 27.0786 407.734 26.0653C408.501 25.0521 409.576 24.2708 410.958 23.7216C412.35 23.1723 413.979 22.8977 415.845 22.8977C418.6 22.8977 420.769 23.4801 422.35 24.6449C423.941 25.8097 424.869 27.3958 425.135 29.4034Z" fill="white"/>
<rect x="25" y="92" width="599" height="120" rx="26" stroke="#DBDBDB" stroke-width="2"/>
<rect x="25" y="528" width="599" height="120" rx="26" stroke="#DBDBDB" stroke-width="2"/>
<rect x="26" y="932" width="599" height="120" rx="26" stroke="#DBDBDB" stroke-width="2"/>
<line x1="145" y1="91" x2="145" y2="213" stroke="#DBDBDB" stroke-width="2"/>
<line x1="145" y1="527" x2="145" y2="649" stroke="#DBDBDB" stroke-width="2"/>
<line x1="146" y1="931" x2="146" y2="1053" stroke="#DBDBDB" stroke-width="2"/>
<line x1="265" y1="91" x2="265" y2="213" stroke="#DBDBDB" stroke-width="2"/>
<line x1="265" y1="527" x2="265" y2="649" stroke="#DBDBDB" stroke-width="2"/>
<line x1="266" y1="931" x2="266" y2="1053" stroke="#DBDBDB" stroke-width="2"/>
<line x1="386" y1="91" x2="386" y2="213" stroke="#DBDBDB" stroke-width="2"/>
<line x1="386" y1="527" x2="386" y2="649" stroke="#DBDBDB" stroke-width="2"/>
<line x1="387" y1="931" x2="387" y2="1053" stroke="#DBDBDB" stroke-width="2"/>
<line x1="506" y1="91" x2="506" y2="213" stroke="#DBDBDB" stroke-width="2"/>
<line x1="506" y1="527" x2="506" y2="649" stroke="#DBDBDB" stroke-width="2"/>
<line x1="507" y1="931" x2="507" y2="1053" stroke="#DBDBDB" stroke-width="2"/>
<path d="M74.9613 136.909V166H71.4386V140.602H71.2681L64.1658 145.318V141.739L71.4386 136.909H74.9613ZM92.5891 136.511C93.7823 136.521 94.9755 136.748 96.1687 137.193C97.3619 137.638 98.4509 138.377 99.4357 139.409C100.421 140.432 101.211 141.829 101.808 143.599C102.404 145.37 102.703 147.591 102.703 150.261C102.703 152.847 102.457 155.143 101.964 157.151C101.481 159.149 100.78 160.834 99.8619 162.207C98.9528 163.58 97.8448 164.622 96.538 165.332C95.2406 166.043 93.7728 166.398 92.1346 166.398C90.5058 166.398 89.0522 166.076 87.7738 165.432C86.5049 164.778 85.4632 163.874 84.6488 162.719C83.8439 161.554 83.3278 160.205 83.1005 158.67H86.5664C86.8789 160.006 87.4992 161.109 88.4272 161.98C89.3647 162.842 90.6005 163.273 92.1346 163.273C94.3789 163.273 96.1497 162.293 97.4471 160.332C98.7539 158.372 99.4073 155.602 99.4073 152.023H99.18C98.6497 152.818 98.02 153.505 97.2908 154.082C96.5617 154.66 95.752 155.105 94.8619 155.418C93.9717 155.73 93.0247 155.886 92.021 155.886C90.3543 155.886 88.8249 155.474 87.4329 154.651C86.0503 153.817 84.9424 152.676 84.109 151.227C83.2852 149.769 82.8732 148.102 82.8732 146.227C82.8732 144.447 83.271 142.818 84.0664 141.341C84.8713 139.854 85.9982 138.67 87.4471 137.79C88.9054 136.909 90.6194 136.483 92.5891 136.511ZM92.5891 139.636C91.396 139.636 90.3211 139.935 89.3647 140.531C88.4177 141.118 87.6649 141.914 87.1062 142.918C86.5569 143.912 86.2823 145.015 86.2823 146.227C86.2823 147.439 86.5475 148.543 87.0778 149.537C87.6175 150.522 88.3514 151.308 89.2795 151.895C90.217 152.473 91.2823 152.761 92.4755 152.761C93.3751 152.761 94.2132 152.586 94.9897 152.236C95.7662 151.876 96.4433 151.388 97.021 150.773C97.6081 150.148 98.0674 149.442 98.3988 148.656C98.7302 147.861 98.896 147.032 98.896 146.17C98.896 145.034 98.6213 143.969 98.0721 142.974C97.5323 141.98 96.7842 141.175 95.8278 140.56C94.8808 139.944 93.8013 139.636 92.5891 139.636Z" fill="white"/>
<path d="M74.9613 572.909V602H71.4386V576.602H71.2681L64.1658 581.318V577.739L71.4386 572.909H74.9613ZM92.5891 572.511C93.7823 572.521 94.9755 572.748 96.1687 573.193C97.3619 573.638 98.4509 574.377 99.4357 575.409C100.421 576.432 101.211 577.829 101.808 579.599C102.404 581.37 102.703 583.591 102.703 586.261C102.703 588.847 102.457 591.143 101.964 593.151C101.481 595.149 100.78 596.834 99.8619 598.207C98.9528 599.58 97.8448 600.622 96.538 601.332C95.2406 602.043 93.7728 602.398 92.1346 602.398C90.5058 602.398 89.0522 602.076 87.7738 601.432C86.5049 600.778 85.4632 599.874 84.6488 598.719C83.8439 597.554 83.3278 596.205 83.1005 594.67H86.5664C86.8789 596.006 87.4992 597.109 88.4272 597.98C89.3647 598.842 90.6005 599.273 92.1346 599.273C94.3789 599.273 96.1497 598.293 97.4471 596.332C98.7539 594.372 99.4073 591.602 99.4073 588.023H99.18C98.6497 588.818 98.02 589.505 97.2908 590.082C96.5617 590.66 95.752 591.105 94.8619 591.418C93.9717 591.73 93.0247 591.886 92.021 591.886C90.3543 591.886 88.8249 591.474 87.4329 590.651C86.0503 589.817 84.9424 588.676 84.109 587.227C83.2852 585.769 82.8732 584.102 82.8732 582.227C82.8732 580.447 83.271 578.818 84.0664 577.341C84.8713 575.854 85.9982 574.67 87.4471 573.79C88.9054 572.909 90.6194 572.483 92.5891 572.511ZM92.5891 575.636C91.396 575.636 90.3211 575.935 89.3647 576.531C88.4177 577.118 87.6649 577.914 87.1062 578.918C86.5569 579.912 86.2823 581.015 86.2823 582.227C86.2823 583.439 86.5475 584.543 87.0778 585.537C87.6175 586.522 88.3514 587.308 89.2795 587.895C90.217 588.473 91.2823 588.761 92.4755 588.761C93.3751 588.761 94.2132 588.586 94.9897 588.236C95.7662 587.876 96.4433 587.388 97.021 586.773C97.6081 586.148 98.0674 585.442 98.3988 584.656C98.7302 583.861 98.896 583.032 98.896 582.17C98.896 581.034 98.6213 579.969 98.0721 578.974C97.5323 577.98 96.7842 577.175 95.8278 576.56C94.8808 575.944 93.8013 575.636 92.5891 575.636Z" fill="white"/>
<path d="M75.9613 976.909V1006H72.4386V980.602H72.2681L65.1658 985.318V981.739L72.4386 976.909H75.9613ZM93.5891 976.511C94.7823 976.521 95.9755 976.748 97.1687 977.193C98.3619 977.638 99.4509 978.377 100.436 979.409C101.421 980.432 102.211 981.829 102.808 983.599C103.404 985.37 103.703 987.591 103.703 990.261C103.703 992.847 103.457 995.143 102.964 997.151C102.481 999.149 101.78 1000.83 100.862 1002.21C99.9528 1003.58 98.8448 1004.62 97.538 1005.33C96.2406 1006.04 94.7728 1006.4 93.1346 1006.4C91.5058 1006.4 90.0522 1006.08 88.7738 1005.43C87.5049 1004.78 86.4632 1003.87 85.6488 1002.72C84.8439 1001.55 84.3278 1000.2 84.1005 998.67H87.5664C87.8789 1000.01 88.4992 1001.11 89.4272 1001.98C90.3647 1002.84 91.6005 1003.27 93.1346 1003.27C95.3789 1003.27 97.1497 1002.29 98.4471 1000.33C99.7539 998.372 100.407 995.602 100.407 992.023H100.18C99.6497 992.818 99.02 993.505 98.2908 994.082C97.5617 994.66 96.752 995.105 95.8619 995.418C94.9717 995.73 94.0247 995.886 93.021 995.886C91.3543 995.886 89.8249 995.474 88.4329 994.651C87.0503 993.817 85.9424 992.676 85.109 991.227C84.2852 989.769 83.8732 988.102 83.8732 986.227C83.8732 984.447 84.271 982.818 85.0664 981.341C85.8713 979.854 86.9982 978.67 88.4471 977.79C89.9054 976.909 91.6194 976.483 93.5891 976.511ZM93.5891 979.636C92.396 979.636 91.3211 979.935 90.3647 980.531C89.4177 981.118 88.6649 981.914 88.1062 982.918C87.5569 983.912 87.2823 985.015 87.2823 986.227C87.2823 987.439 87.5475 988.543 88.0778 989.537C88.6175 990.522 89.3514 991.308 90.2795 991.895C91.217 992.473 92.2823 992.761 93.4755 992.761C94.3751 992.761 95.2132 992.586 95.9897 992.236C96.7662 991.876 97.4433 991.388 98.021 990.773C98.6081 990.148 99.0674 989.442 99.3988 988.656C99.7302 987.861 99.896 987.032 99.896 986.17C99.896 985.034 99.6213 983.969 99.0721 982.974C98.5323 981.98 97.7842 981.175 96.8278 980.56C95.8808 979.944 94.8013 979.636 93.5891 979.636Z" fill="white"/>
<path d="M182.976 166V163.443L192.578 152.932C193.705 151.701 194.633 150.631 195.363 149.722C196.092 148.803 196.632 147.941 196.982 147.136C197.342 146.322 197.522 145.47 197.522 144.58C197.522 143.557 197.275 142.671 196.783 141.923C196.3 141.175 195.637 140.598 194.794 140.19C193.952 139.783 193.005 139.58 191.953 139.58C190.836 139.58 189.861 139.812 189.027 140.276C188.203 140.73 187.564 141.369 187.11 142.193C186.665 143.017 186.442 143.983 186.442 145.091H183.09C183.09 143.386 183.483 141.89 184.269 140.602C185.055 139.314 186.125 138.311 187.479 137.591C188.843 136.871 190.372 136.511 192.067 136.511C193.772 136.511 195.282 136.871 196.598 137.591C197.915 138.311 198.947 139.281 199.695 140.503C200.443 141.724 200.817 143.083 200.817 144.58C200.817 145.65 200.623 146.696 200.235 147.719C199.856 148.732 199.193 149.864 198.246 151.114C197.309 152.354 196.007 153.869 194.34 155.659L187.806 162.648V162.875H201.328V166H182.976ZM208.104 166L221.115 140.261V140.034H206.115V136.909H224.752V140.205L211.797 166H208.104Z" fill="white"/>
<path d="M182.976 602V599.443L192.578 588.932C193.705 587.701 194.633 586.631 195.363 585.722C196.092 584.803 196.632 583.941 196.982 583.136C197.342 582.322 197.522 581.47 197.522 580.58C197.522 579.557 197.275 578.671 196.783 577.923C196.3 577.175 195.637 576.598 194.794 576.19C193.952 575.783 193.005 575.58 191.953 575.58C190.836 575.58 189.861 575.812 189.027 576.276C188.203 576.73 187.564 577.369 187.11 578.193C186.665 579.017 186.442 579.983 186.442 581.091H183.09C183.09 579.386 183.483 577.89 184.269 576.602C185.055 575.314 186.125 574.311 187.479 573.591C188.843 572.871 190.372 572.511 192.067 572.511C193.772 572.511 195.282 572.871 196.598 573.591C197.915 574.311 198.947 575.281 199.695 576.503C200.443 577.724 200.817 579.083 200.817 580.58C200.817 581.65 200.623 582.696 200.235 583.719C199.856 584.732 199.193 585.864 198.246 587.114C197.309 588.354 196.007 589.869 194.34 591.659L187.806 598.648V598.875H201.328V602H182.976ZM208.104 602L221.115 576.261V576.034H206.115V572.909H224.752V576.205L211.797 602H208.104Z" fill="white"/>
<path d="M183.976 1006V1003.44L193.578 992.932C194.705 991.701 195.633 990.631 196.363 989.722C197.092 988.803 197.632 987.941 197.982 987.136C198.342 986.322 198.522 985.47 198.522 984.58C198.522 983.557 198.275 982.671 197.783 981.923C197.3 981.175 196.637 980.598 195.794 980.19C194.952 979.783 194.005 979.58 192.953 979.58C191.836 979.58 190.861 979.812 190.027 980.276C189.203 980.73 188.564 981.369 188.11 982.193C187.665 983.017 187.442 983.983 187.442 985.091H184.09C184.09 983.386 184.483 981.89 185.269 980.602C186.055 979.314 187.125 978.311 188.479 977.591C189.843 976.871 191.372 976.511 193.067 976.511C194.772 976.511 196.282 976.871 197.598 977.591C198.915 978.311 199.947 979.281 200.695 980.503C201.443 981.724 201.817 983.083 201.817 984.58C201.817 985.65 201.623 986.696 201.235 987.719C200.856 988.732 200.193 989.864 199.246 991.114C198.309 992.354 197.007 993.869 195.34 995.659L188.806 1002.65V1002.88H202.328V1006H183.976ZM209.104 1006L222.115 980.261V980.034H207.115V976.909H225.752V980.205L212.797 1006H209.104Z" fill="white"/>
<path d="M301.572 160.034V157.136L314.356 136.909H316.458V141.398H315.038L305.379 156.682V156.909H322.594V160.034H301.572ZM315.265 166V159.153V157.804V136.909H318.617V166H315.265ZM328.827 166L341.838 140.261V140.034H326.838V136.909H345.474V140.205L332.52 166H328.827Z" fill="white"/>
<path d="M312.497 1006.4C310.622 1006.4 308.951 1006.08 307.483 1005.43C306.025 1004.79 304.865 1003.89 304.003 1002.75C303.151 1001.59 302.687 1000.25 302.611 998.727H306.19C306.266 999.665 306.588 1000.47 307.156 1001.16C307.724 1001.83 308.468 1002.35 309.386 1002.72C310.305 1003.09 311.323 1003.27 312.44 1003.27C313.69 1003.27 314.798 1003.05 315.764 1002.62C316.73 1002.18 317.488 1001.58 318.037 1000.8C318.586 1000.02 318.861 999.125 318.861 998.102C318.861 997.032 318.596 996.09 318.065 995.276C317.535 994.452 316.759 993.808 315.736 993.344C314.713 992.88 313.463 992.648 311.986 992.648H309.656V989.523H311.986C313.141 989.523 314.154 989.314 315.026 988.898C315.906 988.481 316.593 987.894 317.085 987.136C317.587 986.379 317.838 985.489 317.838 984.466C317.838 983.481 317.62 982.624 317.185 981.895C316.749 981.166 316.134 980.598 315.338 980.19C314.552 979.783 313.624 979.58 312.554 979.58C311.55 979.58 310.603 979.764 309.713 980.134C308.832 980.493 308.113 981.019 307.554 981.71C306.995 982.392 306.692 983.216 306.645 984.182H303.236C303.293 982.657 303.752 981.322 304.614 980.176C305.475 979.021 306.602 978.121 307.994 977.477C309.396 976.833 310.935 976.511 312.611 976.511C314.41 976.511 315.954 976.876 317.241 977.605C318.529 978.325 319.519 979.277 320.21 980.46C320.902 981.644 321.247 982.922 321.247 984.295C321.247 985.934 320.816 987.33 319.955 988.486C319.102 989.641 317.942 990.441 316.474 990.886V991.114C318.312 991.417 319.746 992.198 320.778 993.457C321.811 994.707 322.327 996.256 322.327 998.102C322.327 999.684 321.896 1001.1 321.034 1002.36C320.182 1003.61 319.017 1004.6 317.54 1005.32C316.063 1006.04 314.382 1006.4 312.497 1006.4ZM328.136 1006V1003.44L337.739 992.932C338.866 991.701 339.794 990.631 340.523 989.722C341.252 988.803 341.792 987.941 342.142 987.136C342.502 986.322 342.682 985.47 342.682 984.58C342.682 983.557 342.436 982.671 341.943 981.923C341.46 981.175 340.797 980.598 339.955 980.19C339.112 979.783 338.165 979.58 337.114 979.58C335.996 979.58 335.021 979.812 334.188 980.276C333.364 980.73 332.724 981.369 332.27 982.193C331.825 983.017 331.602 983.983 331.602 985.091H328.25C328.25 983.386 328.643 981.89 329.429 980.602C330.215 979.314 331.285 978.311 332.639 977.591C334.003 976.871 335.532 976.511 337.227 976.511C338.932 976.511 340.442 976.871 341.759 977.591C343.075 978.311 344.107 979.281 344.855 980.503C345.603 981.724 345.977 983.083 345.977 984.58C345.977 985.65 345.783 986.696 345.395 987.719C345.016 988.732 344.353 989.864 343.406 991.114C342.469 992.354 341.167 993.869 339.5 995.659L332.966 1002.65V1002.88H346.489V1006H328.136Z" fill="white"/>
<path d="M260.353 323V305H263.025V307.719H263.212C263.541 306.828 264.134 306.105 264.994 305.551C265.853 304.996 266.822 304.719 267.9 304.719C268.103 304.719 268.357 304.723 268.662 304.73C268.966 304.738 269.197 304.75 269.353 304.766V307.578C269.259 307.555 269.044 307.52 268.708 307.473C268.38 307.418 268.033 307.391 267.666 307.391C266.791 307.391 266.009 307.574 265.322 307.941C264.642 308.301 264.103 308.801 263.705 309.441C263.314 310.074 263.119 310.797 263.119 311.609V323H260.353ZM277.928 323.422C276.788 323.422 275.752 323.207 274.823 322.777C273.893 322.34 273.155 321.711 272.608 320.891C272.061 320.063 271.788 319.062 271.788 317.891C271.788 316.859 271.991 316.023 272.397 315.383C272.803 314.734 273.346 314.227 274.026 313.859C274.706 313.492 275.456 313.219 276.276 313.039C277.104 312.852 277.936 312.703 278.772 312.594C279.866 312.453 280.752 312.348 281.432 312.277C282.12 312.199 282.62 312.07 282.932 311.891C283.252 311.711 283.413 311.398 283.413 310.953V310.859C283.413 309.703 283.096 308.805 282.463 308.164C281.838 307.523 280.889 307.203 279.616 307.203C278.295 307.203 277.26 307.492 276.51 308.07C275.76 308.648 275.233 309.266 274.928 309.922L272.303 308.984C272.772 307.891 273.397 307.039 274.178 306.43C274.967 305.812 275.827 305.383 276.756 305.141C277.694 304.891 278.616 304.766 279.522 304.766C280.1 304.766 280.764 304.836 281.514 304.977C282.272 305.109 283.002 305.387 283.706 305.809C284.417 306.23 285.006 306.867 285.475 307.719C285.944 308.57 286.178 309.711 286.178 311.141V323H283.413V320.562H283.272C283.084 320.953 282.772 321.371 282.334 321.816C281.897 322.262 281.315 322.641 280.588 322.953C279.862 323.266 278.975 323.422 277.928 323.422ZM278.35 320.938C279.444 320.938 280.366 320.723 281.116 320.293C281.874 319.863 282.444 319.309 282.827 318.629C283.217 317.949 283.413 317.234 283.413 316.484V313.953C283.295 314.094 283.038 314.223 282.639 314.34C282.249 314.449 281.795 314.547 281.28 314.633C280.772 314.711 280.276 314.781 279.792 314.844C279.315 314.898 278.928 314.945 278.631 314.984C277.913 315.078 277.241 315.23 276.616 315.441C275.999 315.645 275.499 315.953 275.116 316.367C274.741 316.773 274.553 317.328 274.553 318.031C274.553 318.992 274.909 319.719 275.62 320.211C276.338 320.695 277.249 320.938 278.35 320.938ZM293.992 312.172V323H291.226V305H293.898V307.812H294.132C294.554 306.898 295.195 306.164 296.054 305.609C296.914 305.047 298.023 304.766 299.382 304.766C300.601 304.766 301.667 305.016 302.582 305.516C303.496 306.008 304.207 306.758 304.714 307.766C305.222 308.766 305.476 310.031 305.476 311.563V323H302.71V311.75C302.71 310.336 302.343 309.234 301.609 308.445C300.875 307.648 299.867 307.25 298.585 307.25C297.703 307.25 296.914 307.441 296.218 307.824C295.531 308.207 294.988 308.766 294.589 309.5C294.191 310.234 293.992 311.125 293.992 312.172ZM317.795 330.125C316.459 330.125 315.311 329.953 314.35 329.609C313.389 329.273 312.588 328.828 311.948 328.273C311.315 327.727 310.811 327.141 310.436 326.516L312.639 324.969C312.889 325.297 313.206 325.672 313.588 326.094C313.971 326.523 314.495 326.895 315.159 327.207C315.831 327.527 316.709 327.687 317.795 327.687C319.249 327.687 320.448 327.336 321.393 326.633C322.338 325.93 322.811 324.828 322.811 323.328V319.672H322.577C322.374 320 322.084 320.406 321.709 320.891C321.342 321.367 320.811 321.793 320.116 322.168C319.428 322.535 318.499 322.719 317.327 322.719C315.874 322.719 314.569 322.375 313.413 321.688C312.264 321 311.354 320 310.682 318.687C310.018 317.375 309.686 315.781 309.686 313.906C309.686 312.062 310.01 310.457 310.659 309.09C311.307 307.715 312.209 306.652 313.366 305.902C314.522 305.145 315.858 304.766 317.374 304.766C318.545 304.766 319.475 304.961 320.163 305.352C320.858 305.734 321.389 306.172 321.756 306.664C322.131 307.148 322.42 307.547 322.624 307.859H322.905V305H325.577V323.516C325.577 325.062 325.225 326.32 324.522 327.289C323.827 328.266 322.889 328.98 321.709 329.434C320.538 329.895 319.233 330.125 317.795 330.125ZM317.702 320.234C318.811 320.234 319.749 319.98 320.514 319.473C321.28 318.965 321.862 318.234 322.26 317.281C322.659 316.328 322.858 315.187 322.858 313.859C322.858 312.562 322.663 311.418 322.272 310.426C321.881 309.434 321.303 308.656 320.538 308.094C319.772 307.531 318.827 307.25 317.702 307.25C316.53 307.25 315.553 307.547 314.772 308.141C313.999 308.734 313.417 309.531 313.026 310.531C312.643 311.531 312.452 312.641 312.452 313.859C312.452 315.109 312.647 316.215 313.038 317.176C313.436 318.129 314.022 318.879 314.795 319.426C315.577 319.965 316.545 320.234 317.702 320.234ZM338.186 323.375C336.452 323.375 334.956 322.992 333.698 322.227C332.448 321.453 331.483 320.375 330.803 318.992C330.131 317.602 329.795 315.984 329.795 314.141C329.795 312.297 330.131 310.672 330.803 309.266C331.483 307.852 332.428 306.75 333.639 305.961C334.858 305.164 336.28 304.766 337.905 304.766C338.842 304.766 339.768 304.922 340.682 305.234C341.596 305.547 342.428 306.055 343.178 306.758C343.928 307.453 344.526 308.375 344.971 309.523C345.417 310.672 345.639 312.086 345.639 313.766V314.937H331.764V312.547H342.827C342.827 311.531 342.624 310.625 342.217 309.828C341.819 309.031 341.249 308.402 340.506 307.941C339.772 307.48 338.905 307.25 337.905 307.25C336.803 307.25 335.85 307.523 335.045 308.07C334.249 308.609 333.635 309.312 333.206 310.18C332.776 311.047 332.561 311.977 332.561 312.969V314.563C332.561 315.922 332.795 317.074 333.264 318.02C333.741 318.957 334.401 319.672 335.245 320.164C336.088 320.648 337.069 320.891 338.186 320.891C338.913 320.891 339.569 320.789 340.155 320.586C340.749 320.375 341.26 320.063 341.69 319.648C342.12 319.227 342.452 318.703 342.686 318.078L345.358 318.828C345.077 319.734 344.604 320.531 343.94 321.219C343.276 321.898 342.456 322.43 341.479 322.812C340.502 323.188 339.405 323.375 338.186 323.375ZM366.44 323.375C364.815 323.375 363.389 322.988 362.163 322.215C360.944 321.441 359.991 320.359 359.303 318.969C358.624 317.578 358.284 315.953 358.284 314.094C358.284 312.219 358.624 310.582 359.303 309.184C359.991 307.785 360.944 306.699 362.163 305.926C363.389 305.152 364.815 304.766 366.44 304.766C368.065 304.766 369.487 305.152 370.706 305.926C371.932 306.699 372.885 307.785 373.565 309.184C374.252 310.582 374.596 312.219 374.596 314.094C374.596 315.953 374.252 317.578 373.565 318.969C372.885 320.359 371.932 321.441 370.706 322.215C369.487 322.988 368.065 323.375 366.44 323.375ZM366.44 320.891C367.674 320.891 368.69 320.574 369.487 319.941C370.284 319.309 370.874 318.477 371.256 317.445C371.639 316.414 371.831 315.297 371.831 314.094C371.831 312.891 371.639 311.77 371.256 310.73C370.874 309.691 370.284 308.852 369.487 308.211C368.69 307.57 367.674 307.25 366.44 307.25C365.206 307.25 364.19 307.57 363.393 308.211C362.596 308.852 362.006 309.691 361.624 310.73C361.241 311.77 361.049 312.891 361.049 314.094C361.049 315.297 361.241 316.414 361.624 317.445C362.006 318.477 362.596 319.309 363.393 319.941C364.19 320.574 365.206 320.891 366.44 320.891ZM386.833 305V307.344H377.13V305H386.833ZM380.037 323V302.516C380.037 301.484 380.279 300.625 380.763 299.937C381.248 299.25 381.876 298.734 382.65 298.391C383.423 298.047 384.24 297.875 385.099 297.875C385.779 297.875 386.333 297.93 386.763 298.039C387.193 298.148 387.513 298.25 387.724 298.344L386.927 300.734C386.787 300.687 386.591 300.629 386.341 300.559C386.099 300.488 385.779 300.453 385.38 300.453C384.466 300.453 383.806 300.684 383.4 301.145C383.001 301.605 382.802 302.281 382.802 303.172V323H380.037ZM224.237 352.172V363H221.472V345H224.144V347.812H224.378C224.8 346.898 225.44 346.164 226.3 345.609C227.159 345.047 228.269 344.766 229.628 344.766C230.847 344.766 231.913 345.016 232.827 345.516C233.741 346.008 234.452 346.758 234.96 347.766C235.468 348.766 235.722 350.031 235.722 351.563V363H232.956V351.75C232.956 350.336 232.589 349.234 231.854 348.445C231.12 347.648 230.112 347.25 228.831 347.25C227.948 347.25 227.159 347.441 226.464 347.824C225.776 348.207 225.233 348.766 224.835 349.5C224.437 350.234 224.237 351.125 224.237 352.172ZM252.119 355.641V345H254.885V363H252.119V359.953H251.932C251.51 360.867 250.854 361.645 249.963 362.285C249.072 362.918 247.947 363.234 246.588 363.234C245.463 363.234 244.463 362.988 243.588 362.496C242.713 361.996 242.025 361.246 241.525 360.246C241.025 359.238 240.775 357.969 240.775 356.437V345H243.541V356.25C243.541 357.562 243.908 358.609 244.643 359.391C245.385 360.172 246.33 360.562 247.479 360.562C248.166 360.562 248.865 360.387 249.576 360.035C250.295 359.684 250.896 359.145 251.381 358.418C251.873 357.691 252.119 356.766 252.119 355.641ZM259.95 363V345H262.622V347.812H262.856C263.231 346.852 263.837 346.105 264.673 345.574C265.509 345.035 266.513 344.766 267.685 344.766C268.872 344.766 269.86 345.035 270.649 345.574C271.446 346.105 272.067 346.852 272.513 347.812H272.7C273.161 346.883 273.853 346.145 274.774 345.598C275.696 345.043 276.802 344.766 278.091 344.766C279.7 344.766 281.017 345.27 282.04 346.277C283.063 347.277 283.575 348.836 283.575 350.953V363H280.81V350.953C280.81 349.625 280.446 348.676 279.72 348.105C278.993 347.535 278.138 347.25 277.153 347.25C275.888 347.25 274.907 347.633 274.212 348.398C273.517 349.156 273.169 350.117 273.169 351.281V363H270.356V350.672C270.356 349.648 270.024 348.824 269.36 348.199C268.696 347.566 267.841 347.25 266.794 347.25C266.075 347.25 265.403 347.441 264.778 347.824C264.161 348.207 263.661 348.738 263.278 349.418C262.903 350.09 262.716 350.867 262.716 351.75V363H259.95ZM289.007 363V339H291.772V347.859H292.007C292.21 347.547 292.491 347.148 292.851 346.664C293.218 346.172 293.741 345.734 294.421 345.352C295.108 344.961 296.038 344.766 297.21 344.766C298.726 344.766 300.062 345.145 301.218 345.902C302.374 346.66 303.276 347.734 303.925 349.125C304.573 350.516 304.897 352.156 304.897 354.047C304.897 355.953 304.573 357.605 303.925 359.004C303.276 360.395 302.378 361.473 301.229 362.238C300.081 362.996 298.757 363.375 297.257 363.375C296.101 363.375 295.175 363.184 294.479 362.801C293.784 362.41 293.249 361.969 292.874 361.477C292.499 360.977 292.21 360.562 292.007 360.234H291.679V363H289.007ZM291.726 354C291.726 355.359 291.925 356.559 292.323 357.598C292.722 358.629 293.304 359.437 294.069 360.023C294.835 360.602 295.772 360.891 296.882 360.891C298.038 360.891 299.003 360.586 299.776 359.977C300.558 359.359 301.144 358.531 301.534 357.492C301.933 356.445 302.132 355.281 302.132 354C302.132 352.734 301.937 351.594 301.546 350.578C301.163 349.555 300.581 348.746 299.8 348.152C299.026 347.551 298.054 347.25 296.882 347.25C295.757 347.25 294.812 347.535 294.046 348.105C293.28 348.668 292.702 349.457 292.312 350.473C291.921 351.48 291.726 352.656 291.726 354ZM316.675 363.375C314.94 363.375 313.444 362.992 312.187 362.227C310.937 361.453 309.972 360.375 309.292 358.992C308.62 357.602 308.284 355.984 308.284 354.141C308.284 352.297 308.62 350.672 309.292 349.266C309.972 347.852 310.917 346.75 312.128 345.961C313.347 345.164 314.769 344.766 316.394 344.766C317.331 344.766 318.257 344.922 319.171 345.234C320.085 345.547 320.917 346.055 321.667 346.758C322.417 347.453 323.015 348.375 323.46 349.523C323.905 350.672 324.128 352.086 324.128 353.766V354.937H310.253V352.547H321.315C321.315 351.531 321.112 350.625 320.706 349.828C320.308 349.031 319.737 348.402 318.995 347.941C318.261 347.48 317.394 347.25 316.394 347.25C315.292 347.25 314.339 347.523 313.534 348.07C312.737 348.609 312.124 349.312 311.694 350.18C311.265 351.047 311.05 351.977 311.05 352.969V354.563C311.05 355.922 311.284 357.074 311.753 358.02C312.229 358.957 312.89 359.672 313.733 360.164C314.577 360.648 315.558 360.891 316.675 360.891C317.401 360.891 318.058 360.789 318.644 360.586C319.237 360.375 319.749 360.063 320.179 359.648C320.608 359.227 320.94 358.703 321.175 358.078L323.847 358.828C323.565 359.734 323.093 360.531 322.429 361.219C321.765 361.898 320.944 362.43 319.968 362.812C318.991 363.188 317.894 363.375 316.675 363.375ZM328.335 363V345H331.007V347.719H331.194C331.522 346.828 332.116 346.105 332.976 345.551C333.835 344.996 334.804 344.719 335.882 344.719C336.085 344.719 336.339 344.723 336.644 344.73C336.948 344.738 337.179 344.75 337.335 344.766V347.578C337.241 347.555 337.026 347.52 336.69 347.473C336.362 347.418 336.015 347.391 335.647 347.391C334.772 347.391 333.991 347.574 333.304 347.941C332.624 348.301 332.085 348.801 331.687 349.441C331.296 350.074 331.101 350.797 331.101 351.609V363H328.335ZM353.363 349.031L350.879 349.734C350.723 349.32 350.492 348.918 350.188 348.527C349.891 348.129 349.484 347.801 348.969 347.543C348.453 347.285 347.793 347.156 346.988 347.156C345.887 347.156 344.969 347.41 344.234 347.918C343.508 348.418 343.145 349.055 343.145 349.828C343.145 350.516 343.395 351.059 343.895 351.457C344.395 351.855 345.176 352.187 346.238 352.453L348.91 353.109C350.52 353.5 351.719 354.098 352.508 354.902C353.297 355.699 353.691 356.727 353.691 357.984C353.691 359.016 353.395 359.937 352.801 360.75C352.215 361.562 351.395 362.203 350.34 362.672C349.285 363.141 348.059 363.375 346.66 363.375C344.824 363.375 343.305 362.977 342.102 362.18C340.898 361.383 340.137 360.219 339.816 358.687L342.441 358.031C342.691 359 343.164 359.727 343.859 360.211C344.563 360.695 345.48 360.938 346.613 360.938C347.902 360.938 348.926 360.664 349.684 360.117C350.449 359.562 350.832 358.898 350.832 358.125C350.832 357.5 350.613 356.977 350.176 356.555C349.738 356.125 349.066 355.805 348.16 355.594L345.16 354.891C343.512 354.5 342.301 353.895 341.527 353.074C340.762 352.246 340.379 351.211 340.379 349.969C340.379 348.953 340.664 348.055 341.234 347.273C341.813 346.492 342.598 345.879 343.59 345.434C344.59 344.988 345.723 344.766 346.988 344.766C348.77 344.766 350.168 345.156 351.184 345.937C352.207 346.719 352.934 347.75 353.363 349.031ZM374.964 345V347.344H365.636V345H374.964ZM368.354 340.687H371.12V357.844C371.12 358.625 371.233 359.211 371.46 359.602C371.694 359.984 371.991 360.242 372.351 360.375C372.718 360.5 373.104 360.562 373.511 360.562C373.815 360.562 374.065 360.547 374.261 360.516C374.456 360.477 374.612 360.445 374.729 360.422L375.292 362.906C375.104 362.977 374.843 363.047 374.507 363.117C374.171 363.195 373.745 363.234 373.229 363.234C372.448 363.234 371.683 363.066 370.933 362.73C370.19 362.395 369.573 361.883 369.081 361.195C368.597 360.508 368.354 359.641 368.354 358.594V340.687ZM382.276 352.172V363H379.511V339H382.276V347.812H382.511C382.933 346.883 383.565 346.145 384.409 345.598C385.261 345.043 386.394 344.766 387.808 344.766C389.034 344.766 390.108 345.012 391.03 345.504C391.952 345.988 392.667 346.734 393.175 347.742C393.69 348.742 393.948 350.016 393.948 351.563V363H391.183V351.75C391.183 350.32 390.812 349.215 390.069 348.434C389.335 347.645 388.315 347.25 387.011 347.25C386.104 347.25 385.292 347.441 384.573 347.824C383.862 348.207 383.3 348.766 382.886 349.5C382.479 350.234 382.276 351.125 382.276 352.172ZM404.305 363.422C403.164 363.422 402.129 363.207 401.199 362.777C400.27 362.34 399.531 361.711 398.984 360.891C398.438 360.063 398.164 359.062 398.164 357.891C398.164 356.859 398.367 356.023 398.773 355.383C399.18 354.734 399.723 354.227 400.402 353.859C401.082 353.492 401.832 353.219 402.652 353.039C403.48 352.852 404.313 352.703 405.148 352.594C406.242 352.453 407.129 352.348 407.809 352.277C408.496 352.199 408.996 352.07 409.309 351.891C409.629 351.711 409.789 351.398 409.789 350.953V350.859C409.789 349.703 409.473 348.805 408.84 348.164C408.215 347.523 407.266 347.203 405.992 347.203C404.672 347.203 403.637 347.492 402.887 348.07C402.137 348.648 401.609 349.266 401.305 349.922L398.68 348.984C399.148 347.891 399.773 347.039 400.555 346.43C401.344 345.812 402.203 345.383 403.133 345.141C404.07 344.891 404.992 344.766 405.898 344.766C406.477 344.766 407.141 344.836 407.891 344.977C408.648 345.109 409.379 345.387 410.082 345.809C410.793 346.23 411.383 346.867 411.852 347.719C412.32 348.57 412.555 349.711 412.555 351.141V363H409.789V360.562H409.648C409.461 360.953 409.148 361.371 408.711 361.816C408.273 362.262 407.691 362.641 406.965 362.953C406.238 363.266 405.352 363.422 404.305 363.422ZM404.727 360.938C405.82 360.938 406.742 360.723 407.492 360.293C408.25 359.863 408.82 359.309 409.203 358.629C409.594 357.949 409.789 357.234 409.789 356.484V353.953C409.672 354.094 409.414 354.223 409.016 354.34C408.625 354.449 408.172 354.547 407.656 354.633C407.148 354.711 406.652 354.781 406.168 354.844C405.691 354.898 405.305 354.945 405.008 354.984C404.289 355.078 403.617 355.23 402.992 355.441C402.375 355.645 401.875 355.953 401.492 356.367C401.117 356.773 400.93 357.328 400.93 358.031C400.93 358.992 401.285 359.719 401.996 360.211C402.715 360.695 403.625 360.938 404.727 360.938ZM425.431 345V347.344H416.103V345H425.431ZM418.821 340.687H421.587V357.844C421.587 358.625 421.7 359.211 421.927 359.602C422.161 359.984 422.458 360.242 422.817 360.375C423.185 360.5 423.571 360.562 423.978 360.562C424.282 360.562 424.532 360.547 424.728 360.516C424.923 360.477 425.079 360.445 425.196 360.422L425.759 362.906C425.571 362.977 425.31 363.047 424.974 363.117C424.638 363.195 424.212 363.234 423.696 363.234C422.915 363.234 422.149 363.066 421.399 362.73C420.657 362.395 420.04 361.883 419.548 361.195C419.063 360.508 418.821 359.641 418.821 358.594V340.687ZM220.994 403.328C219.447 403.328 218.068 403.062 216.857 402.531C215.654 402 214.697 401.262 213.986 400.316C213.283 399.363 212.9 398.258 212.838 397H215.791C215.854 397.773 216.119 398.441 216.588 399.004C217.057 399.559 217.67 399.988 218.428 400.293C219.186 400.598 220.025 400.75 220.947 400.75C221.979 400.75 222.893 400.57 223.689 400.211C224.486 399.852 225.111 399.352 225.564 398.711C226.018 398.07 226.244 397.328 226.244 396.484C226.244 395.602 226.025 394.824 225.588 394.152C225.15 393.473 224.51 392.941 223.666 392.559C222.822 392.176 221.791 391.984 220.572 391.984H218.65V389.406H220.572C221.525 389.406 222.361 389.234 223.08 388.891C223.807 388.547 224.373 388.062 224.779 387.437C225.193 386.812 225.4 386.078 225.4 385.234C225.4 384.422 225.221 383.715 224.861 383.113C224.502 382.512 223.994 382.043 223.338 381.707C222.689 381.371 221.924 381.203 221.041 381.203C220.213 381.203 219.432 381.355 218.697 381.66C217.971 381.957 217.377 382.391 216.916 382.961C216.455 383.523 216.205 384.203 216.166 385H213.354C213.4 383.742 213.779 382.641 214.49 381.695C215.201 380.742 216.131 380 217.279 379.469C218.436 378.937 219.705 378.672 221.088 378.672C222.572 378.672 223.846 378.973 224.908 379.574C225.971 380.168 226.787 380.953 227.357 381.93C227.928 382.906 228.213 383.961 228.213 385.094C228.213 386.445 227.857 387.598 227.146 388.551C226.443 389.504 225.486 390.164 224.275 390.531V390.719C225.791 390.969 226.975 391.613 227.826 392.652C228.678 393.684 229.104 394.961 229.104 396.484C229.104 397.789 228.748 398.961 228.037 400C227.334 401.031 226.373 401.844 225.154 402.437C223.936 403.031 222.549 403.328 220.994 403.328ZM233.896 403V400.891L241.818 392.219C242.748 391.203 243.514 390.32 244.115 389.57C244.717 388.812 245.162 388.102 245.451 387.437C245.748 386.766 245.896 386.062 245.896 385.328C245.896 384.484 245.693 383.754 245.287 383.137C244.889 382.52 244.342 382.043 243.646 381.707C242.951 381.371 242.17 381.203 241.303 381.203C240.381 381.203 239.576 381.395 238.889 381.777C238.209 382.152 237.682 382.68 237.307 383.359C236.939 384.039 236.756 384.836 236.756 385.75H233.99C233.99 384.344 234.314 383.109 234.963 382.047C235.611 380.984 236.494 380.156 237.611 379.562C238.736 378.969 239.998 378.672 241.396 378.672C242.803 378.672 244.049 378.969 245.135 379.562C246.221 380.156 247.072 380.957 247.689 381.965C248.307 382.973 248.615 384.094 248.615 385.328C248.615 386.211 248.455 387.074 248.135 387.918C247.822 388.754 247.275 389.687 246.494 390.719C245.721 391.742 244.646 392.992 243.271 394.469L237.881 400.234V400.422H249.037V403H233.896ZM263.205 403V385H265.971V403H263.205ZM264.611 382C264.072 382 263.607 381.816 263.217 381.449C262.834 381.082 262.643 380.641 262.643 380.125C262.643 379.609 262.834 379.168 263.217 378.801C263.607 378.434 264.072 378.25 264.611 378.25C265.15 378.25 265.611 378.434 265.994 378.801C266.385 379.168 266.58 379.609 266.58 380.125C266.58 380.641 266.385 381.082 265.994 381.449C265.611 381.816 265.15 382 264.611 382ZM283.786 389.031L281.302 389.734C281.146 389.32 280.915 388.918 280.61 388.527C280.313 388.129 279.907 387.801 279.392 387.543C278.876 387.285 278.216 387.156 277.411 387.156C276.31 387.156 275.392 387.41 274.657 387.918C273.931 388.418 273.567 389.055 273.567 389.828C273.567 390.516 273.817 391.059 274.317 391.457C274.817 391.855 275.599 392.187 276.661 392.453L279.333 393.109C280.942 393.5 282.142 394.098 282.931 394.902C283.72 395.699 284.114 396.727 284.114 397.984C284.114 399.016 283.817 399.937 283.224 400.75C282.638 401.562 281.817 402.203 280.763 402.672C279.708 403.141 278.481 403.375 277.083 403.375C275.247 403.375 273.728 402.977 272.524 402.18C271.321 401.383 270.56 400.219 270.239 398.687L272.864 398.031C273.114 399 273.587 399.727 274.282 400.211C274.985 400.695 275.903 400.938 277.036 400.938C278.325 400.938 279.349 400.664 280.106 400.117C280.872 399.562 281.255 398.898 281.255 398.125C281.255 397.5 281.036 396.977 280.599 396.555C280.161 396.125 279.489 395.805 278.583 395.594L275.583 394.891C273.935 394.5 272.724 393.895 271.95 393.074C271.185 392.246 270.802 391.211 270.802 389.969C270.802 388.953 271.087 388.055 271.657 387.273C272.235 386.492 273.021 385.879 274.013 385.434C275.013 384.988 276.146 384.766 277.411 384.766C279.192 384.766 280.591 385.156 281.606 385.937C282.63 386.719 283.356 387.75 283.786 389.031ZM300.324 379V403H297.559V379H300.324ZM312.937 403.375C311.202 403.375 309.706 402.992 308.448 402.227C307.198 401.453 306.233 400.375 305.554 398.992C304.882 397.602 304.546 395.984 304.546 394.141C304.546 392.297 304.882 390.672 305.554 389.266C306.233 387.852 307.179 386.75 308.39 385.961C309.608 385.164 311.03 384.766 312.655 384.766C313.593 384.766 314.519 384.922 315.433 385.234C316.347 385.547 317.179 386.055 317.929 386.758C318.679 387.453 319.276 388.375 319.722 389.523C320.167 390.672 320.39 392.086 320.39 393.766V394.937H306.515V392.547H317.577C317.577 391.531 317.374 390.625 316.968 389.828C316.569 389.031 315.999 388.402 315.257 387.941C314.522 387.48 313.655 387.25 312.655 387.25C311.554 387.25 310.601 387.523 309.796 388.07C308.999 388.609 308.386 389.312 307.956 390.18C307.526 391.047 307.312 391.977 307.312 392.969V394.563C307.312 395.922 307.546 397.074 308.015 398.02C308.491 398.957 309.151 399.672 309.995 400.164C310.839 400.648 311.819 400.891 312.937 400.891C313.663 400.891 314.319 400.789 314.905 400.586C315.499 400.375 316.011 400.063 316.44 399.648C316.87 399.227 317.202 398.703 317.437 398.078L320.108 398.828C319.827 399.734 319.354 400.531 318.69 401.219C318.026 401.898 317.206 402.43 316.229 402.812C315.253 403.188 314.155 403.375 312.937 403.375ZM337.347 389.031L334.862 389.734C334.706 389.32 334.476 388.918 334.171 388.527C333.874 388.129 333.468 387.801 332.952 387.543C332.437 387.285 331.776 387.156 330.972 387.156C329.87 387.156 328.952 387.41 328.218 387.918C327.491 388.418 327.128 389.055 327.128 389.828C327.128 390.516 327.378 391.059 327.878 391.457C328.378 391.855 329.159 392.187 330.222 392.453L332.894 393.109C334.503 393.5 335.702 394.098 336.491 394.902C337.28 395.699 337.675 396.727 337.675 397.984C337.675 399.016 337.378 399.937 336.784 400.75C336.198 401.562 335.378 402.203 334.323 402.672C333.269 403.141 332.042 403.375 330.644 403.375C328.808 403.375 327.288 402.977 326.085 402.18C324.882 401.383 324.12 400.219 323.8 398.687L326.425 398.031C326.675 399 327.147 399.727 327.843 400.211C328.546 400.695 329.464 400.938 330.597 400.938C331.886 400.938 332.909 400.664 333.667 400.117C334.433 399.562 334.815 398.898 334.815 398.125C334.815 397.5 334.597 396.977 334.159 396.555C333.722 396.125 333.05 395.805 332.144 395.594L329.144 394.891C327.495 394.5 326.284 393.895 325.511 393.074C324.745 392.246 324.362 391.211 324.362 389.969C324.362 388.953 324.647 388.055 325.218 387.273C325.796 386.492 326.581 385.879 327.573 385.434C328.573 384.988 329.706 384.766 330.972 384.766C332.753 384.766 334.151 385.156 335.167 385.937C336.19 386.719 336.917 387.75 337.347 389.031ZM354.588 389.031L352.104 389.734C351.947 389.32 351.717 388.918 351.412 388.527C351.115 388.129 350.709 387.801 350.193 387.543C349.678 387.285 349.018 387.156 348.213 387.156C347.111 387.156 346.193 387.41 345.459 387.918C344.732 388.418 344.369 389.055 344.369 389.828C344.369 390.516 344.619 391.059 345.119 391.457C345.619 391.855 346.4 392.187 347.463 392.453L350.135 393.109C351.744 393.5 352.943 394.098 353.732 394.902C354.521 395.699 354.916 396.727 354.916 397.984C354.916 399.016 354.619 399.937 354.025 400.75C353.439 401.562 352.619 402.203 351.564 402.672C350.51 403.141 349.283 403.375 347.885 403.375C346.049 403.375 344.529 402.977 343.326 402.18C342.123 401.383 341.361 400.219 341.041 398.687L343.666 398.031C343.916 399 344.389 399.727 345.084 400.211C345.787 400.695 346.705 400.938 347.838 400.938C349.127 400.938 350.15 400.664 350.908 400.117C351.674 399.562 352.057 398.898 352.057 398.125C352.057 397.5 351.838 396.977 351.4 396.555C350.963 396.125 350.291 395.805 349.385 395.594L346.385 394.891C344.736 394.5 343.525 393.895 342.752 393.074C341.986 392.246 341.604 391.211 341.604 389.969C341.604 388.953 341.889 388.055 342.459 387.273C343.037 386.492 343.822 385.879 344.814 385.434C345.814 384.988 346.947 384.766 348.213 384.766C349.994 384.766 351.393 385.156 352.408 385.937C353.432 386.719 354.158 387.75 354.588 389.031ZM376.188 385V387.344H366.86V385H376.188ZM369.579 380.687H372.345V397.844C372.345 398.625 372.458 399.211 372.685 399.602C372.919 399.984 373.216 400.242 373.575 400.375C373.942 400.5 374.329 400.562 374.735 400.562C375.04 400.562 375.29 400.547 375.485 400.516C375.681 400.477 375.837 400.445 375.954 400.422L376.517 402.906C376.329 402.977 376.067 403.047 375.731 403.117C375.396 403.195 374.97 403.234 374.454 403.234C373.673 403.234 372.907 403.066 372.157 402.73C371.415 402.395 370.798 401.883 370.306 401.195C369.821 400.508 369.579 399.641 369.579 398.594V380.687ZM383.501 392.172V403H380.735V379H383.501V387.812H383.735C384.157 386.883 384.79 386.145 385.634 385.598C386.485 385.043 387.618 384.766 389.032 384.766C390.259 384.766 391.333 385.012 392.255 385.504C393.177 385.988 393.892 386.734 394.399 387.742C394.915 388.742 395.173 390.016 395.173 391.563V403H392.407V391.75C392.407 390.32 392.036 389.215 391.294 388.434C390.56 387.645 389.54 387.25 388.235 387.25C387.329 387.25 386.517 387.441 385.798 387.824C385.087 388.207 384.524 388.766 384.11 389.5C383.704 390.234 383.501 391.125 383.501 392.172ZM405.529 403.422C404.389 403.422 403.354 403.207 402.424 402.777C401.494 402.34 400.756 401.711 400.209 400.891C399.662 400.063 399.389 399.062 399.389 397.891C399.389 396.859 399.592 396.023 399.998 395.383C400.404 394.734 400.947 394.227 401.627 393.859C402.307 393.492 403.057 393.219 403.877 393.039C404.705 392.852 405.537 392.703 406.373 392.594C407.467 392.453 408.354 392.348 409.033 392.277C409.721 392.199 410.221 392.07 410.533 391.891C410.854 391.711 411.014 391.398 411.014 390.953V390.859C411.014 389.703 410.697 388.805 410.064 388.164C409.439 387.523 408.49 387.203 407.217 387.203C405.896 387.203 404.861 387.492 404.111 388.07C403.361 388.648 402.834 389.266 402.529 389.922L399.904 388.984C400.373 387.891 400.998 387.039 401.779 386.43C402.568 385.812 403.428 385.383 404.357 385.141C405.295 384.891 406.217 384.766 407.123 384.766C407.701 384.766 408.365 384.836 409.115 384.977C409.873 385.109 410.604 385.387 411.307 385.809C412.018 386.23 412.607 386.867 413.076 387.719C413.545 388.57 413.779 389.711 413.779 391.141V403H411.014V400.562H410.873C410.686 400.953 410.373 401.371 409.936 401.816C409.498 402.262 408.916 402.641 408.189 402.953C407.463 403.266 406.576 403.422 405.529 403.422ZM405.951 400.938C407.045 400.938 407.967 400.723 408.717 400.293C409.475 399.863 410.045 399.309 410.428 398.629C410.818 397.949 411.014 397.234 411.014 396.484V393.953C410.896 394.094 410.639 394.223 410.24 394.34C409.85 394.449 409.396 394.547 408.881 394.633C408.373 394.711 407.877 394.781 407.393 394.844C406.916 394.898 406.529 394.945 406.232 394.984C405.514 395.078 404.842 395.23 404.217 395.441C403.6 395.645 403.1 395.953 402.717 396.367C402.342 396.773 402.154 397.328 402.154 398.031C402.154 398.992 402.51 399.719 403.221 400.211C403.939 400.695 404.85 400.938 405.951 400.938ZM421.593 392.172V403H418.827V385H421.499V387.812H421.733C422.155 386.898 422.796 386.164 423.655 385.609C424.515 385.047 425.624 384.766 426.983 384.766C428.202 384.766 429.269 385.016 430.183 385.516C431.097 386.008 431.808 386.758 432.315 387.766C432.823 388.766 433.077 390.031 433.077 391.563V403H430.312V391.75C430.312 390.336 429.944 389.234 429.21 388.445C428.476 387.648 427.468 387.25 426.187 387.25C425.304 387.25 424.515 387.441 423.819 387.824C423.132 388.207 422.589 388.766 422.19 389.5C421.792 390.234 421.593 391.125 421.593 392.172Z" fill="white"/>
<path d="M432.497 166.398C430.622 166.398 428.951 166.076 427.483 165.432C426.025 164.788 424.865 163.893 424.003 162.747C423.151 161.592 422.687 160.252 422.611 158.727H426.19C426.266 159.665 426.588 160.474 427.156 161.156C427.724 161.829 428.468 162.349 429.386 162.719C430.305 163.088 431.323 163.273 432.44 163.273C433.69 163.273 434.798 163.055 435.764 162.619C436.73 162.184 437.488 161.578 438.037 160.801C438.586 160.025 438.861 159.125 438.861 158.102C438.861 157.032 438.596 156.09 438.065 155.276C437.535 154.452 436.759 153.808 435.736 153.344C434.713 152.88 433.463 152.648 431.986 152.648H429.656V149.523H431.986C433.141 149.523 434.154 149.314 435.026 148.898C435.906 148.481 436.593 147.894 437.085 147.136C437.587 146.379 437.838 145.489 437.838 144.466C437.838 143.481 437.62 142.624 437.185 141.895C436.749 141.166 436.134 140.598 435.338 140.19C434.552 139.783 433.624 139.58 432.554 139.58C431.55 139.58 430.603 139.764 429.713 140.134C428.832 140.493 428.113 141.019 427.554 141.71C426.995 142.392 426.692 143.216 426.645 144.182H423.236C423.293 142.657 423.752 141.322 424.614 140.176C425.475 139.021 426.602 138.121 427.994 137.477C429.396 136.833 430.935 136.511 432.611 136.511C434.41 136.511 435.954 136.876 437.241 137.605C438.529 138.325 439.519 139.277 440.21 140.46C440.902 141.644 441.247 142.922 441.247 144.295C441.247 145.934 440.816 147.33 439.955 148.486C439.102 149.641 437.942 150.441 436.474 150.886V151.114C438.312 151.417 439.746 152.198 440.778 153.457C441.811 154.707 442.327 156.256 442.327 158.102C442.327 159.684 441.896 161.104 441.034 162.364C440.182 163.614 439.017 164.598 437.54 165.318C436.063 166.038 434.382 166.398 432.497 166.398ZM448.136 166V163.443L457.739 152.932C458.866 151.701 459.794 150.631 460.523 149.722C461.252 148.803 461.792 147.941 462.142 147.136C462.502 146.322 462.682 145.47 462.682 144.58C462.682 143.557 462.436 142.671 461.943 141.923C461.46 141.175 460.797 140.598 459.955 140.19C459.112 139.783 458.165 139.58 457.114 139.58C455.996 139.58 455.021 139.812 454.188 140.276C453.364 140.73 452.724 141.369 452.27 142.193C451.825 143.017 451.602 143.983 451.602 145.091H448.25C448.25 143.386 448.643 141.89 449.429 140.602C450.215 139.314 451.285 138.311 452.639 137.591C454.003 136.871 455.532 136.511 457.227 136.511C458.932 136.511 460.442 136.871 461.759 137.591C463.075 138.311 464.107 139.281 464.855 140.503C465.603 141.724 465.977 143.083 465.977 144.58C465.977 145.65 465.783 146.696 465.395 147.719C465.016 148.732 464.353 149.864 463.406 151.114C462.469 152.354 461.167 153.869 459.5 155.659L452.966 162.648V162.875H466.489V166H448.136Z" fill="white"/>
<path d="M422.572 596.034V593.136L435.356 572.909H437.458V577.398H436.038L426.379 592.682V592.909H443.594V596.034H422.572ZM436.265 602V595.153V593.804V572.909H439.617V602H436.265ZM449.827 602L462.838 576.261V576.034H447.838V572.909H466.474V576.205L453.52 602H449.827Z" fill="white"/>
<path d="M423.572 1000.03V997.136L436.356 976.909H438.458V981.398H437.038L427.379 996.682V996.909H444.594V1000.03H423.572ZM437.265 1006V999.153V997.804V976.909H440.617V1006H437.265ZM450.827 1006L463.838 980.261V980.034H448.838V976.909H467.474V980.205L454.52 1006H450.827Z" fill="white"/>
<path d="M556.332 136.909V166H552.81V140.602H552.639L545.537 145.318V141.739L552.81 136.909H556.332ZM564.699 166V163.443L574.301 152.932C575.428 151.701 576.356 150.631 577.085 149.722C577.814 148.803 578.354 147.941 578.705 147.136C579.064 146.322 579.244 145.47 579.244 144.58C579.244 143.557 578.998 142.671 578.506 141.923C578.023 141.175 577.36 140.598 576.517 140.19C575.674 139.783 574.727 139.58 573.676 139.58C572.559 139.58 571.583 139.812 570.75 140.276C569.926 140.73 569.287 141.369 568.832 142.193C568.387 143.017 568.165 143.983 568.165 145.091H564.812C564.812 143.386 565.205 141.89 565.991 140.602C566.777 139.314 567.848 138.311 569.202 137.591C570.565 136.871 572.095 136.511 573.79 136.511C575.494 136.511 577.005 136.871 578.321 137.591C579.637 138.311 580.67 139.281 581.418 140.503C582.166 141.724 582.54 143.083 582.54 144.58C582.54 145.65 582.346 146.696 581.957 147.719C581.579 148.732 580.916 149.864 579.969 151.114C579.031 152.354 577.729 153.869 576.062 155.659L569.528 162.648V162.875H583.051V166H564.699Z" fill="white"/>
<path d="M556.332 572.909V602H552.81V576.602H552.639L545.537 581.318V577.739L552.81 572.909H556.332ZM564.699 602V599.443L574.301 588.932C575.428 587.701 576.356 586.631 577.085 585.722C577.814 584.803 578.354 583.941 578.705 583.136C579.064 582.322 579.244 581.47 579.244 580.58C579.244 579.557 578.998 578.671 578.506 577.923C578.023 577.175 577.36 576.598 576.517 576.19C575.674 575.783 574.727 575.58 573.676 575.58C572.559 575.58 571.583 575.812 570.75 576.276C569.926 576.73 569.287 577.369 568.832 578.193C568.387 579.017 568.165 579.983 568.165 581.091H564.812C564.812 579.386 565.205 577.89 565.991 576.602C566.777 575.314 567.848 574.311 569.202 573.591C570.565 572.871 572.095 572.511 573.79 572.511C575.494 572.511 577.005 572.871 578.321 573.591C579.637 574.311 580.67 575.281 581.418 576.503C582.166 577.724 582.54 579.083 582.54 580.58C582.54 581.65 582.346 582.696 581.957 583.719C581.579 584.732 580.916 585.864 579.969 587.114C579.031 588.354 577.729 589.869 576.062 591.659L569.528 598.648V598.875H583.051V602H564.699Z" fill="white"/>
<path d="M557.332 976.909V1006H553.81V980.602H553.639L546.537 985.318V981.739L553.81 976.909H557.332ZM565.699 1006V1003.44L575.301 992.932C576.428 991.701 577.356 990.631 578.085 989.722C578.814 988.803 579.354 987.941 579.705 987.136C580.064 986.322 580.244 985.47 580.244 984.58C580.244 983.557 579.998 982.671 579.506 981.923C579.023 981.175 578.36 980.598 577.517 980.19C576.674 979.783 575.727 979.58 574.676 979.58C573.559 979.58 572.583 979.812 571.75 980.276C570.926 980.73 570.287 981.369 569.832 982.193C569.387 983.017 569.165 983.983 569.165 985.091H565.812C565.812 983.386 566.205 981.89 566.991 980.602C567.777 979.314 568.848 978.311 570.202 977.591C571.565 976.871 573.095 976.511 574.79 976.511C576.494 976.511 578.005 976.871 579.321 977.591C580.637 978.311 581.67 979.281 582.418 980.503C583.166 981.724 583.54 983.083 583.54 984.58C583.54 985.65 583.346 986.696 582.957 987.719C582.579 988.732 581.916 989.864 580.969 991.114C580.031 992.354 578.729 993.869 577.062 995.659L570.528 1002.65V1002.88H584.051V1006H565.699Z" fill="white"/>
<line y1="-0.5" x2="33" y2="-0.5" transform="matrix(0 1 1 0 385 235)" stroke="white"/>
<line x1="265" y1="267.5" x2="385" y2="267.5" stroke="white"/>
<line y1="-0.5" x2="33" y2="-0.5" transform="matrix(0 1 1 0 265 235)" stroke="white"/>
</svg>
