<svg xmlns="http://www.w3.org/2000/svg" width="648" height="648" fill="none" viewBox="0 0 648 648"><path fill="#096" d="M145 92h120v120H145z"/><path fill="#fff" d="M230.845 45V15.91h19.261v5.07h-13.111v6.932h11.833v5.071h-11.833V45zm23.285 0V23.182h6.051V45zm3.039-24.63q-1.349 0-2.315-.896-.952-.909-.952-2.173 0-1.25.952-2.145.966-.909 2.315-.909 1.35 0 2.302.91.965.894.965 2.144 0 1.264-.965 2.173-.952.895-2.302.895M265.028 45V23.182h5.867v3.807h.227q.597-2.032 2.003-3.068 1.406-1.052 3.238-1.052.455 0 .98.057.526.057.924.156v5.37a8 8 0 0 0-1.179-.228q-.753-.099-1.378-.099-1.335 0-2.386.582a4.3 4.3 0 0 0-1.648 1.591q-.597 1.023-.597 2.358V45zm34.521-15.597-5.54.341a2.86 2.86 0 0 0-.611-1.278 3.24 3.24 0 0 0-1.236-.923q-.753-.355-1.804-.355-1.406 0-2.372.596-.966.583-.966 1.563 0 .78.625 1.32t2.145.867l3.949.796q3.182.653 4.744 2.102 1.563 1.449 1.563 3.807 0 2.145-1.264 3.764-1.251 1.62-3.438 2.528-2.173.895-5.014.895-4.332 0-6.904-1.804-2.556-1.818-2.997-4.943l5.952-.312q.27 1.32 1.307 2.017 1.037.681 2.656.681 1.591 0 2.557-.61.98-.625.994-1.606-.014-.824-.696-1.349-.681-.54-2.102-.824l-3.778-.753q-3.196-.64-4.759-2.216-1.548-1.575-1.548-4.02 0-2.101 1.136-3.622 1.15-1.52 3.225-2.343 2.087-.825 4.886-.824 4.133 0 6.506 1.747 2.385 1.747 2.784 4.758m15.912-6.221v4.545h-13.139v-4.545zm-10.156-5.227h6.051v20.34q0 .84.256 1.307.255.454.71.64.469.184 1.08.184.426 0 .852-.07.426-.086.653-.129l.952 4.503q-.454.143-1.278.327-.824.198-2.003.241-2.188.086-3.835-.582-1.634-.667-2.543-2.074t-.895-3.551zM328.775 45V15.91h11.477q3.31 0 5.639 1.263 2.33 1.251 3.551 3.48 1.236 2.217 1.236 5.114 0 2.898-1.25 5.114t-3.622 3.451q-2.358 1.236-5.71 1.236h-7.316V30.64h6.321q1.776 0 2.926-.61 1.166-.625 1.733-1.72.583-1.107.583-2.542 0-1.45-.583-2.528-.567-1.095-1.733-1.69-1.164-.611-2.954-.611h-4.148V45zm31.42.412q-2.088 0-3.722-.724-1.633-.739-2.585-2.174-.937-1.449-.937-3.608 0-1.818.667-3.054a5.4 5.4 0 0 1 1.818-1.988 8.8 8.8 0 0 1 2.614-1.137 20 20 0 0 1 3.097-.54 79 79 0 0 0 3.068-.369q1.165-.184 1.69-.54.526-.355.526-1.05v-.086q0-1.35-.853-2.088-.837-.739-2.386-.739-1.633 0-2.599.725-.966.71-1.279 1.79l-5.596-.455q.425-1.99 1.676-3.437 1.25-1.464 3.224-2.245 1.989-.795 4.603-.795 1.818 0 3.48.426 1.676.426 2.968 1.32a6.4 6.4 0 0 1 2.06 2.302q.753 1.392.753 3.338V45h-5.739v-3.026h-.17a6.2 6.2 0 0 1-1.406 1.804q-.882.767-2.117 1.208-1.236.426-2.855.426m1.733-4.176q1.335 0 2.358-.526a4.2 4.2 0 0 0 1.605-1.449q.582-.909.582-2.06v-2.315a3.2 3.2 0 0 1-.781.341q-.482.142-1.094.27a55 55 0 0 1-1.221.213l-1.108.157q-1.066.156-1.861.497t-1.236.923q-.44.568-.44 1.42 0 1.236.895 1.89.909.639 2.301.639m33.402-11.833-5.54.341a2.86 2.86 0 0 0-.611-1.278 3.24 3.24 0 0 0-1.235-.923q-.754-.355-1.804-.355-1.407 0-2.373.596-.966.583-.966 1.563 0 .78.625 1.32.626.54 2.145.867l3.949.796q3.182.653 4.745 2.102 1.562 1.449 1.562 3.807 0 2.145-1.264 3.764-1.25 1.62-3.438 2.528-2.173.895-5.014.895-4.332 0-6.903-1.804-2.558-1.818-2.997-4.943l5.951-.312q.27 1.32 1.307 2.017 1.037.681 2.656.681 1.591 0 2.557-.61.98-.625.994-1.606-.013-.824-.696-1.349-.681-.54-2.102-.824l-3.778-.753q-3.196-.64-4.759-2.216-1.548-1.575-1.548-4.02 0-2.101 1.136-3.622 1.15-1.52 3.225-2.343 2.088-.825 4.886-.824 4.133 0 6.506 1.747 2.387 1.747 2.784 4.758m22.461 0-5.54.341a2.86 2.86 0 0 0-.611-1.278 3.24 3.24 0 0 0-1.236-.923q-.752-.355-1.804-.355-1.406 0-2.372.596-.966.583-.966 1.563 0 .78.625 1.32t2.145.867l3.949.796q3.182.653 4.744 2.102 1.563 1.449 1.563 3.807 0 2.145-1.264 3.764-1.25 1.62-3.438 2.528-2.173.895-5.014.895-4.332 0-6.903-1.804-2.558-1.818-2.997-4.943l5.951-.312q.27 1.32 1.307 2.017 1.037.681 2.656.681 1.591 0 2.557-.61.98-.625.994-1.606-.013-.824-.696-1.349-.681-.54-2.102-.824l-3.778-.753q-3.196-.64-4.759-2.216-1.548-1.575-1.548-4.02 0-2.101 1.136-3.622 1.15-1.52 3.225-2.343 2.088-.825 4.886-.824 4.133 0 6.506 1.747 2.387 1.747 2.784 4.758"/><rect width="599" height="120" x="25" y="92" stroke="#dbdbdb" stroke-width="2" rx="26"/><rect width="599" height="120" x="25" y="527" stroke="#dbdbdb" stroke-width="2" rx="26"/><path stroke="#dbdbdb" stroke-width="2" d="M145 91v122M145 526v122M265 91v122M265 526v122M386 91v122M386 526v122M506 91v122M506 526v122"/><path fill="#fff" d="M62.976 166v-2.557l9.603-10.511a67 67 0 0 0 2.784-3.21q1.094-1.379 1.619-2.586.54-1.221.54-2.556 0-1.535-.739-2.657-.725-1.121-1.989-1.733-1.264-.61-2.84-.61-1.677 0-2.927.696a4.8 4.8 0 0 0-1.917 1.917q-.668 1.236-.668 2.898H63.09q0-2.557 1.179-4.489a8.2 8.2 0 0 1 3.21-3.011q2.046-1.08 4.588-1.08 2.557 0 4.531 1.08 1.975 1.08 3.097 2.912t1.122 4.077q0 1.605-.582 3.139-.57 1.52-1.989 3.395-1.406 1.86-3.906 4.545l-6.534 6.989v.227h13.523V166zm25.128 0 13.011-25.739v-.227h-15v-3.125h18.637v3.296L91.797 166zM62.976 601v-2.557l9.603-10.511a67 67 0 0 0 2.784-3.21q1.094-1.378 1.619-2.586.54-1.221.54-2.556 0-1.535-.739-2.657-.725-1.122-1.989-1.733-1.264-.61-2.84-.61-1.677 0-2.927.696a4.8 4.8 0 0 0-1.917 1.917q-.668 1.236-.668 2.898H63.09q0-2.557 1.179-4.489a8.2 8.2 0 0 1 3.21-3.011q2.046-1.08 4.588-1.08 2.557 0 4.531 1.08 1.975 1.08 3.097 2.912t1.122 4.077q0 1.605-.582 3.139-.57 1.52-1.989 3.395-1.406 1.86-3.906 4.545l-6.534 6.989v.227h13.523V601zm25.128 0 13.011-25.739v-.227h-15v-3.125h18.637v3.296L91.797 601zM181.572 160.034v-2.898l12.784-20.227h2.102v4.489h-1.42l-9.659 15.284v.227h17.215v3.125zM195.265 166v-29.091h3.352V166zm13.562 0 13.011-25.739v-.227h-15v-3.125h18.636v3.296L212.52 166zM181.572 595.034v-2.898l12.784-20.227h2.102v4.489h-1.42l-9.659 15.284v.227h17.215v3.125zM195.265 601v-29.091h3.352V601zm13.562 0 13.011-25.739v-.227h-15v-3.125h18.636v3.296L212.52 601zM314.961 136.909V166h-3.522v-25.398h-.171l-7.102 4.716v-3.579l7.273-4.83zm17.628-.398q1.79.015 3.58.682 1.79.668 3.267 2.216 1.477 1.535 2.372 4.19.894 2.657.895 6.662 0 3.879-.739 6.89-.725 2.997-2.102 5.056-1.363 2.06-3.324 3.125-1.946 1.066-4.403 1.066-2.444 0-4.361-.966a8.56 8.56 0 0 1-3.125-2.713q-1.207-1.747-1.549-4.049h3.466q.47 2.004 1.861 3.31 1.406 1.293 3.708 1.293 3.366 0 5.312-2.941 1.96-2.94 1.96-8.309h-.227a8.9 8.9 0 0 1-1.889 2.059 8.3 8.3 0 0 1-2.429 1.336 8.5 8.5 0 0 1-2.841.468q-2.5 0-4.588-1.235-2.074-1.25-3.324-3.424-1.236-2.187-1.236-5 0-2.67 1.193-4.886a9.2 9.2 0 0 1 3.381-3.551q2.187-1.321 5.142-1.279m0 3.125q-1.79 0-3.224.895a6.44 6.44 0 0 0-2.259 2.387q-.824 1.491-.824 3.309t.796 3.31a6.35 6.35 0 0 0 2.201 2.358q1.407.867 3.196.866 1.35 0 2.515-.525a6.5 6.5 0 0 0 2.031-1.463 7.1 7.1 0 0 0 1.378-2.117 6.4 6.4 0 0 0 .497-2.486 6.5 6.5 0 0 0-.824-3.196 6.54 6.54 0 0 0-2.244-2.414q-1.42-.924-3.239-.924M314.961 571.909V601h-3.522v-25.398h-.171l-7.102 4.716v-3.579l7.273-4.83zm17.628-.398q1.79.015 3.58.682 1.79.668 3.267 2.216 1.477 1.535 2.372 4.19.894 2.657.895 6.662 0 3.879-.739 6.89-.725 2.997-2.102 5.056-1.363 2.06-3.324 3.125-1.946 1.066-4.403 1.066-2.444 0-4.361-.966a8.56 8.56 0 0 1-3.125-2.713q-1.207-1.747-1.549-4.049h3.466q.47 2.004 1.861 3.31 1.406 1.293 3.708 1.293 3.366 0 5.312-2.941 1.96-2.94 1.96-8.309h-.227a8.9 8.9 0 0 1-1.889 2.059 8.3 8.3 0 0 1-2.429 1.336 8.5 8.5 0 0 1-2.841.468q-2.5 0-4.588-1.235-2.074-1.25-3.324-3.424-1.236-2.187-1.236-5 0-2.67 1.193-4.886a9.2 9.2 0 0 1 3.381-3.551q2.187-1.321 5.142-1.279m0 3.125q-1.79 0-3.224.895a6.44 6.44 0 0 0-2.259 2.387q-.824 1.491-.824 3.309t.796 3.31a6.35 6.35 0 0 0 2.201 2.358q1.407.866 3.196.866 1.35 0 2.515-.525a6.5 6.5 0 0 0 2.031-1.463 7.1 7.1 0 0 0 1.378-2.117 6.4 6.4 0 0 0 .497-2.486 6.5 6.5 0 0 0-.824-3.196 6.54 6.54 0 0 0-2.244-2.414q-1.42-.924-3.239-.924M39.225 269.078v-2.391L49.772 250h1.734v3.703h-1.172l-7.969 12.609v.188h14.203v2.578zM50.522 274v-24h2.765v24zm11.188 0 10.734-21.234v-.188H60.07V250h15.375v2.719L64.757 274zm34.228.375q-2.25 0-3.973-1.137-1.723-1.147-2.696-3.234-.972-2.098-.972-4.957 0-2.836.972-4.922.973-2.086 2.708-3.223 1.734-1.136 4.007-1.136 1.758 0 2.778.586 1.03.573 1.57 1.312.55.726.856 1.195h.234V250h2.766v24h-2.672v-2.766h-.328q-.306.493-.868 1.243-.562.738-1.605 1.324-1.043.574-2.778.574m.374-2.484q1.664 0 2.813-.868 1.149-.879 1.746-2.425.598-1.559.598-3.598 0-2.016-.586-3.527-.586-1.524-1.735-2.368-1.147-.855-2.835-.855-1.758 0-2.93.902-1.161.891-1.746 2.426-.575 1.524-.575 3.422 0 1.922.586 3.492.599 1.558 1.758 2.485 1.172.914 2.906.914m20.637 2.484q-2.438 0-4.277-1.16-1.828-1.161-2.86-3.246-1.019-2.087-1.019-4.875 0-2.813 1.019-4.91 1.032-2.099 2.86-3.258 1.84-1.16 4.277-1.16t4.266 1.16q1.84 1.16 2.859 3.258 1.031 2.097 1.031 4.91 0 2.788-1.031 4.875-1.02 2.085-2.859 3.246-1.828 1.16-4.266 1.16m0-2.484q1.852 0 3.047-.95 1.195-.948 1.77-2.496.573-1.547.574-3.351 0-1.804-.574-3.364-.575-1.558-1.77-2.519t-3.047-.961-3.047.961-1.769 2.519q-.574 1.56-.574 3.364t.574 3.351 1.769 2.496q1.196.95 3.047.95m19.925 2.484q-2.601 0-4.488-1.148-1.875-1.16-2.895-3.235-1.008-2.086-1.008-4.851t1.008-4.875q1.02-2.121 2.836-3.305 1.829-1.195 4.266-1.195 1.406 0 2.777.468a6.9 6.9 0 0 1 2.496 1.524q1.125 1.043 1.793 2.765t.668 4.243v1.171h-13.875v-2.39h11.063q0-1.524-.61-2.719a4.6 4.6 0 0 0-1.711-1.887q-1.101-.691-2.601-.691-1.653 0-2.86.82a5.4 5.4 0 0 0-1.839 2.11 6.2 6.2 0 0 0-.645 2.789v1.594q0 2.038.703 3.457.715 1.406 1.981 2.144 1.265.726 2.941.727 1.09 0 1.969-.305a4.2 4.2 0 0 0 1.535-.938q.645-.632.996-1.57l2.672.75a5.9 5.9 0 0 1-1.418 2.391q-.996 1.02-2.461 1.593-1.465.563-3.293.563m24.41-14.344-2.484.703a4.6 4.6 0 0 0-.692-1.207q-.445-.597-1.218-.984-.774-.387-1.981-.387-1.651 0-2.754.762-1.09.75-1.09 1.91 0 1.032.75 1.629t2.344.996l2.672.656q2.414.587 3.598 1.793 1.183 1.196 1.183 3.082a4.57 4.57 0 0 1-.89 2.766q-.88 1.218-2.461 1.922-1.583.703-3.68.703-2.754 0-4.559-1.195-1.804-1.195-2.285-3.493l2.625-.656q.375 1.454 1.418 2.18 1.054.726 2.754.727 1.934 0 3.07-.821 1.149-.833 1.149-1.992 0-.937-.656-1.57-.657-.645-2.016-.961l-3-.703q-2.472-.586-3.633-1.817-1.148-1.242-1.148-3.105 0-1.524.855-2.696.868-1.172 2.356-1.839 1.5-.669 3.398-.668 2.672 0 4.195 1.171 1.535 1.173 2.18 3.094m16.538 3.141V274h-2.765v-18h2.672v2.812h.234a5.14 5.14 0 0 1 1.922-2.203q1.289-.843 3.328-.843 1.828 0 3.199.75 1.371.738 2.133 2.25.762 1.5.762 3.797V274h-2.766v-11.25q0-2.121-1.102-3.305-1.101-1.195-3.023-1.195-1.325 0-2.367.574-1.032.575-1.629 1.676-.598 1.101-.598 2.672m23.851 11.203q-2.438 0-4.277-1.16-1.828-1.161-2.86-3.246-1.02-2.087-1.019-4.875 0-2.813 1.019-4.91 1.032-2.099 2.86-3.258 1.84-1.16 4.277-1.16t4.265 1.16q1.84 1.16 2.86 3.258 1.03 2.097 1.031 4.91 0 2.788-1.031 4.875-1.02 2.085-2.86 3.246-1.827 1.16-4.265 1.16m0-2.484q1.851 0 3.047-.95 1.195-.948 1.769-2.496.574-1.547.574-3.351t-.574-3.364q-.574-1.558-1.769-2.519-1.196-.961-3.047-.961t-3.047.961q-1.195.961-1.77 2.519-.573 1.56-.574 3.364 0 1.804.574 3.351.575 1.548 1.77 2.496 1.195.95 3.047.95M221.879 256v2.344h-9.328V256zm-6.609-4.313h2.765v17.157q0 1.171.34 1.758.351.573.891.773.55.187 1.16.187.456 0 .75-.046l.469-.094.562 2.484a5.5 5.5 0 0 1-.785.211q-.504.117-1.277.117a5.6 5.6 0 0 1-2.297-.504 4.55 4.55 0 0 1-1.852-1.535q-.726-1.03-.726-2.601zM235.32 274v-18h2.672v2.812h.235q.562-1.44 1.816-2.238 1.254-.808 3.012-.808 1.78 0 2.965.808 1.195.797 1.863 2.238h.187a5.25 5.25 0 0 1 2.075-2.214q1.382-.832 3.316-.832 2.414 0 3.949 1.511 1.536 1.5 1.535 4.676V274h-2.765v-12.047q0-1.992-1.09-2.848t-2.567-.855q-1.898 0-2.941 1.148-1.043 1.137-1.043 2.883V274h-2.812v-12.328q0-1.536-.997-2.473-.996-.95-2.566-.949a3.8 3.8 0 0 0-2.016.574 4.34 4.34 0 0 0-1.5 1.594q-.562 1.008-.562 2.332V274zm35.994.375q-2.437 0-4.277-1.16-1.829-1.161-2.859-3.246-1.02-2.087-1.02-4.875 0-2.813 1.02-4.91 1.03-2.099 2.859-3.258 1.84-1.16 4.277-1.16t4.266 1.16q1.84 1.16 2.859 3.258 1.032 2.097 1.032 4.91 0 2.788-1.032 4.875-1.018 2.085-2.859 3.246-1.829 1.16-4.266 1.16m0-2.484q1.852 0 3.047-.95 1.196-.948 1.77-2.496.574-1.547.574-3.351t-.574-3.364q-.575-1.558-1.77-2.519t-3.047-.961-3.046.961q-1.196.961-1.77 2.519-.574 1.56-.574 3.364t.574 3.351 1.77 2.496q1.195.95 3.046.95M297.767 256l-6.657 18h-2.812l-6.656-18h3l4.968 14.344h.188L294.767 256zm10.552 18.375q-2.601 0-4.488-1.148-1.875-1.16-2.894-3.235-1.008-2.086-1.008-4.851t1.008-4.875q1.02-2.121 2.835-3.305 1.829-1.195 4.266-1.195a8.5 8.5 0 0 1 2.777.468 6.9 6.9 0 0 1 2.497 1.524q1.125 1.043 1.792 2.765.669 1.723.668 4.243v1.171h-13.875v-2.39h11.063q0-1.524-.609-2.719a4.6 4.6 0 0 0-1.711-1.887q-1.102-.691-2.602-.691-1.652 0-2.859.82a5.4 5.4 0 0 0-1.84 2.11 6.2 6.2 0 0 0-.645 2.789v1.594q0 2.038.703 3.457.715 1.406 1.981 2.144 1.266.726 2.941.727 1.09 0 1.969-.305a4.2 4.2 0 0 0 1.535-.938q.645-.632.996-1.57l2.672.75a5.9 5.9 0 0 1-1.418 2.391q-.996 1.02-2.461 1.593-1.464.563-3.293.563m15.785-3.656-.187 1.265a26 26 0 0 1-.609 2.86 55 55 0 0 1-.832 2.871 87 87 0 0 1-.715 2.144h-2.11q.153-.75.399-1.98t.492-2.754a48 48 0 0 0 .422-3.094l.14-1.312zM41.981 300.031l-2.484.703a4.6 4.6 0 0 0-.691-1.207q-.445-.597-1.22-.984-.772-.387-1.98-.387-1.652 0-2.754.762-1.09.75-1.09 1.91 0 1.032.75 1.629t2.344.996l2.672.656q2.415.587 3.598 1.793 1.184 1.196 1.184 3.082a4.57 4.57 0 0 1-.891 2.766q-.879 1.218-2.461 1.922-1.582.703-3.68.703-2.754 0-4.558-1.195-1.805-1.195-2.285-3.493l2.625-.656q.375 1.454 1.418 2.18 1.054.726 2.753.727 1.935 0 3.07-.821 1.15-.833 1.15-1.992 0-.937-.657-1.57-.657-.645-2.016-.961l-3-.703q-2.473-.586-3.633-1.817-1.148-1.242-1.148-3.105 0-1.524.855-2.696.868-1.172 2.356-1.839 1.5-.669 3.398-.668 2.673 0 4.196 1.171 1.535 1.173 2.18 3.094M46.473 314v-18h2.765v18zm1.406-21q-.81 0-1.395-.551a1.77 1.77 0 0 1-.574-1.324q0-.774.574-1.324.587-.55 1.395-.551.809 0 1.383.551.585.55.586 1.324 0 .774-.586 1.324a1.93 1.93 0 0 1-1.383.551m9.19 10.172V314h-2.765v-18h2.672v2.812h.234a5.14 5.14 0 0 1 1.922-2.203q1.29-.843 3.328-.843 1.828 0 3.2.75 1.37.738 2.132 2.25.762 1.5.762 3.797V314h-2.766v-11.25q0-2.121-1.102-3.305-1.101-1.195-3.023-1.195-1.325 0-2.367.574-1.031.575-1.629 1.676t-.598 2.672m23.85 11.203q-2.53 0-4.358-1.195-1.83-1.196-2.813-3.293t-.984-4.793q0-2.743 1.008-4.84 1.02-2.11 2.835-3.293 1.83-1.195 4.266-1.195 1.899 0 3.422.703a6.55 6.55 0 0 1 2.496 1.968q.972 1.266 1.207 2.954h-2.766q-.316-1.231-1.406-2.18-1.078-.961-2.906-.961-1.617 0-2.836.844-1.208.832-1.887 2.355-.668 1.512-.668 3.551 0 2.087.657 3.633.668 1.547 1.874 2.402 1.22.855 2.86.856 1.078 0 1.957-.375a4 4 0 0 0 1.488-1.079 4.1 4.1 0 0 0 .867-1.687h2.766a6.4 6.4 0 0 1-1.16 2.871q-.914 1.266-2.426 2.016-1.5.738-3.492.738m18.669 0q-2.601 0-4.488-1.148-1.875-1.16-2.895-3.235-1.008-2.086-1.008-4.851t1.008-4.875q1.02-2.121 2.836-3.305 1.828-1.195 4.266-1.195 1.406 0 2.777.468a6.9 6.9 0 0 1 2.496 1.524q1.125 1.043 1.793 2.765t.668 4.243v1.171H93.166v-2.39h11.063q0-1.524-.61-2.719a4.6 4.6 0 0 0-1.711-1.887q-1.101-.691-2.601-.691-1.653 0-2.86.82a5.4 5.4 0 0 0-1.84 2.11 6.2 6.2 0 0 0-.644 2.789v1.594q0 2.038.703 3.457.715 1.406 1.98 2.144 1.266.726 2.942.727 1.09 0 1.969-.305a4.2 4.2 0 0 0 1.535-.938q.644-.632.996-1.57l2.672.75a5.9 5.9 0 0 1-1.418 2.391q-.996 1.02-2.461 1.593-1.465.563-3.293.563m20.941-.375v-18h2.766v18zm1.407-21q-.81 0-1.395-.551a1.77 1.77 0 0 1-.574-1.324q0-.774.574-1.324a1.97 1.97 0 0 1 1.395-.551q.809 0 1.382.551.586.55.586 1.324t-.586 1.324a1.92 1.92 0 0 1-1.382.551m14.252 3v2.344h-9.328V296zm-6.609-4.313h2.766v17.157q0 1.171.34 1.758.351.573.89.773.55.187 1.16.187.458 0 .75-.046l.469-.094.563 2.484q-.282.106-.786.211-.503.117-1.277.117a5.6 5.6 0 0 1-2.297-.504 4.55 4.55 0 0 1-1.851-1.535q-.727-1.03-.727-2.601zm23.197 8.344-2.484.703a4.6 4.6 0 0 0-.691-1.207q-.446-.597-1.219-.984t-1.981-.387q-1.651 0-2.754.762-1.089.75-1.089 1.91 0 1.032.75 1.629t2.343.996l2.672.656q2.415.587 3.598 1.793 1.183 1.196 1.183 3.082a4.57 4.57 0 0 1-.89 2.766q-.879 1.218-2.461 1.922-1.582.703-3.68.703-2.754 0-4.558-1.195-1.805-1.195-2.286-3.493l2.625-.656q.375 1.454 1.418 2.18 1.056.726 2.754.727 1.934 0 3.071-.821 1.148-.833 1.148-1.992 0-.937-.656-1.57-.657-.645-2.016-.961l-3-.703q-2.472-.586-3.633-1.817-1.148-1.242-1.148-3.105 0-1.524.855-2.696.868-1.172 2.356-1.839 1.5-.669 3.398-.668 2.673 0 4.196 1.171 1.535 1.173 2.179 3.094m21.038 21.094q-2.003 0-3.445-.516-1.442-.504-2.402-1.336-.95-.82-1.512-1.757l2.203-1.547q.375.492.949 1.125.575.644 1.571 1.113 1.008.48 2.636.48 2.18 0 3.598-1.054t1.418-3.305v-3.656h-.234q-.305.492-.867 1.219-.552.714-1.594 1.277-1.031.55-2.789.551-2.18 0-3.914-1.031-1.723-1.032-2.731-3.001-.996-1.968-.996-4.781 0-2.766.973-4.816.972-2.063 2.707-3.188 1.734-1.136 4.008-1.136 1.757 0 2.789.586 1.042.573 1.593 1.312.562.726.868 1.195h.281V296h2.672v18.516q0 2.32-1.055 3.773-1.043 1.465-2.812 2.145-1.758.691-3.915.691m-.093-9.891q1.664 0 2.812-.761 1.149-.762 1.746-2.192.598-1.43.598-3.422 0-1.945-.586-3.433-.587-1.488-1.734-2.332-1.149-.844-2.836-.844-1.758 0-2.93.891-1.16.89-1.746 2.39-.574 1.5-.574 3.328 0 1.875.586 3.317.597 1.43 1.757 2.25 1.172.808 2.907.808M186.658 314v-18h2.672v2.719h.188q.492-1.337 1.781-2.168t2.906-.832q.304 0 .762.011.457.012.691.036v2.812a9 9 0 0 0-.644-.105 6.3 6.3 0 0 0-1.043-.082q-1.313 0-2.344.55-1.02.54-1.617 1.5-.586.95-.586 2.168V314zm19.278.375q-2.602 0-4.489-1.148-1.875-1.16-2.894-3.235-1.008-2.086-1.008-4.851t1.008-4.875q1.019-2.121 2.836-3.305 1.827-1.195 4.265-1.195 1.407 0 2.778.468a6.9 6.9 0 0 1 2.496 1.524q1.125 1.043 1.793 2.765t.668 4.243v1.171h-13.875v-2.39h11.062q0-1.524-.609-2.719a4.6 4.6 0 0 0-1.711-1.887q-1.102-.691-2.602-.691-1.651 0-2.859.82a5.4 5.4 0 0 0-1.84 2.11 6.2 6.2 0 0 0-.644 2.789v1.594q0 2.038.703 3.457.714 1.406 1.98 2.144 1.266.726 2.942.727 1.089 0 1.968-.305a4.2 4.2 0 0 0 1.535-.938q.645-.632.997-1.57l2.671.75a5.9 5.9 0 0 1-1.418 2.391q-.996 1.02-2.46 1.593-1.466.563-3.293.563m16.957.047q-1.711 0-3.106-.645a5.33 5.33 0 0 1-2.215-1.886q-.82-1.243-.82-3 0-1.548.609-2.508a4.3 4.3 0 0 1 1.629-1.524q1.02-.55 2.25-.82 1.242-.281 2.496-.445 1.641-.211 2.66-.317 1.032-.117 1.5-.386.481-.27.481-.938v-.094q0-1.734-.949-2.695-.937-.961-2.848-.961-1.98 0-3.105.867-1.126.868-1.582 1.852l-2.625-.938q.702-1.64 1.875-2.554a7 7 0 0 1 2.578-1.289q1.406-.375 2.765-.375.868 0 1.993.211a6.4 6.4 0 0 1 2.191.832q1.067.632 1.769 1.91.704 1.277.704 3.422V314h-2.766v-2.438h-.141q-.281.587-.937 1.254-.657.669-1.746 1.137-1.09.47-2.66.469m.421-2.484q1.641 0 2.766-.645 1.137-.644 1.711-1.664a4.24 4.24 0 0 0 .586-2.145v-2.531q-.176.212-.773.387-.586.164-1.36.293-.762.117-1.488.211-.715.081-1.16.14a10.6 10.6 0 0 0-2.016.457q-.925.305-1.5.926-.562.61-.562 1.664 0 1.442 1.066 2.18 1.079.726 2.73.727M244.019 296v2.344h-9.329V296zm-6.61-4.313h2.766v17.157q0 1.171.34 1.758.351.573.89.773.55.187 1.16.187.458 0 .75-.046l.469-.094.563 2.484a5.5 5.5 0 0 1-.785.211q-.504.117-1.278.117a5.6 5.6 0 0 1-2.297-.504 4.55 4.55 0 0 1-1.851-1.535q-.727-1.03-.727-2.601zm18.123 22.688q-2.601 0-4.488-1.148-1.875-1.16-2.895-3.235-1.007-2.086-1.007-4.851t1.007-4.875q1.02-2.121 2.836-3.305 1.829-1.195 4.266-1.195 1.406 0 2.777.468a6.9 6.9 0 0 1 2.496 1.524q1.125 1.043 1.793 2.765t.668 4.243v1.171H249.11v-2.39h11.063q0-1.524-.61-2.719a4.6 4.6 0 0 0-1.71-1.887q-1.102-.691-2.602-.691-1.653 0-2.859.82a5.4 5.4 0 0 0-1.84 2.11 6.2 6.2 0 0 0-.645 2.789v1.594q0 2.038.703 3.457.715 1.406 1.981 2.144 1.266.726 2.941.727 1.09 0 1.969-.305a4.2 4.2 0 0 0 1.535-.938q.645-.632.996-1.57l2.672.75a5.9 5.9 0 0 1-1.418 2.391q-.996 1.02-2.461 1.593-1.464.563-3.293.563m11.66-.375v-18h2.672v2.719h.188q.492-1.337 1.781-2.168t2.906-.832q.304 0 .762.011.457.012.691.036v2.812a9 9 0 0 0-.644-.105 6.3 6.3 0 0 0-1.043-.082q-1.312 0-2.344.55-1.02.54-1.617 1.5-.586.95-.586 2.168V314zm29.388-18v2.344h-9.328V296zm-6.609-4.313h2.765v17.157q0 1.171.34 1.758.352.573.891.773.55.187 1.16.187.458 0 .75-.046l.469-.094.562 2.484a5.5 5.5 0 0 1-.785.211q-.504.117-1.277.117a5.6 5.6 0 0 1-2.297-.504 4.55 4.55 0 0 1-1.852-1.535q-.726-1.03-.726-2.601zm13.922 11.485V314h-2.766v-24h2.766v8.812h.234a5.1 5.1 0 0 1 1.898-2.214q1.278-.832 3.399-.832 1.84 0 3.222.738 1.383.726 2.145 2.238.774 1.5.773 3.821V314h-2.765v-11.25q0-2.145-1.113-3.316-1.102-1.184-3.059-1.184-1.36 0-2.438.574a4.2 4.2 0 0 0-1.687 1.676q-.609 1.101-.609 2.672m24.278 11.203q-2.602 0-4.488-1.148-1.875-1.16-2.895-3.235-1.008-2.086-1.008-4.851t1.008-4.875q1.02-2.121 2.836-3.305 1.828-1.195 4.266-1.195 1.406 0 2.777.468a6.9 6.9 0 0 1 2.496 1.524q1.125 1.043 1.793 2.765t.668 4.243v1.171h-13.875v-2.39h11.063q0-1.524-.61-2.719a4.6 4.6 0 0 0-1.711-1.887q-1.101-.691-2.601-.691-1.653 0-2.86.82a5.4 5.4 0 0 0-1.84 2.11 6.2 6.2 0 0 0-.644 2.789v1.594q0 2.038.703 3.457.716 1.406 1.98 2.144 1.266.726 2.942.727 1.09 0 1.969-.305a4.2 4.2 0 0 0 1.535-.938q.644-.632.996-1.57l2.672.75a5.9 5.9 0 0 1-1.418 2.391q-.996 1.02-2.461 1.593-1.465.563-3.293.563M53.917 360.75V336h2.672v2.859h.328q.304-.469.844-1.195.55-.739 1.57-1.312 1.031-.586 2.79-.586 2.272 0 4.007 1.136 1.734 1.137 2.707 3.223t.973 4.922q0 2.859-.973 4.957-.972 2.087-2.695 3.234-1.723 1.137-3.973 1.137-1.734 0-2.777-.574-1.043-.586-1.606-1.324-.563-.75-.867-1.243h-.234v9.516zM56.636 345q0 2.039.597 3.598.597 1.546 1.747 2.425 1.148.868 2.812.868 1.734 0 2.894-.914 1.173-.927 1.758-2.485.598-1.57.598-3.492 0-1.899-.586-3.422-.575-1.535-1.746-2.426-1.16-.902-2.918-.902-1.687 0-2.836.855-1.149.844-1.734 2.368-.585 1.51-.586 3.527m17.39 9v-18h2.672v2.719h.188q.492-1.337 1.781-2.168 1.29-.832 2.906-.832.305 0 .762.011.457.012.691.036v2.812a9 9 0 0 0-.644-.105 6.3 6.3 0 0 0-1.043-.082q-1.312 0-2.344.55-1.02.54-1.617 1.5-.585.95-.586 2.168V354zm19.278.375q-2.602 0-4.489-1.148-1.875-1.16-2.894-3.235-1.008-2.086-1.008-4.851t1.008-4.875q1.02-2.121 2.836-3.305 1.828-1.195 4.265-1.195 1.407 0 2.778.468a6.9 6.9 0 0 1 2.496 1.524q1.125 1.043 1.793 2.765t.668 4.243v1.171H86.882v-2.39h11.062q0-1.524-.609-2.719a4.6 4.6 0 0 0-1.711-1.887q-1.101-.691-2.602-.691-1.651 0-2.859.82a5.4 5.4 0 0 0-1.84 2.11 6.2 6.2 0 0 0-.644 2.789v1.594q0 2.038.703 3.457.715 1.406 1.98 2.144 1.266.726 2.942.727 1.089 0 1.968-.305a4.2 4.2 0 0 0 1.536-.938q.644-.632.996-1.57l2.672.75a5.94 5.94 0 0 1-1.418 2.391q-.996 1.02-2.461 1.593-1.466.563-3.293.563M119.135 336l-6.656 18h-2.813l-6.656-18h3l4.969 14.344h.187L116.135 336zm3.65 18v-18h2.766v18zm1.406-21a1.97 1.97 0 0 1-1.394-.551 1.77 1.77 0 0 1-.574-1.324q0-.774.574-1.324a1.97 1.97 0 0 1 1.394-.551q.808 0 1.383.551.586.55.586 1.324t-.586 1.324a1.93 1.93 0 0 1-1.383.551m13.738 21.375q-2.437 0-4.278-1.16-1.828-1.161-2.859-3.246-1.02-2.087-1.02-4.875 0-2.813 1.02-4.91 1.031-2.099 2.859-3.258 1.84-1.16 4.278-1.16t4.265 1.16q1.84 1.16 2.86 3.258 1.03 2.097 1.031 4.91 0 2.788-1.031 4.875-1.02 2.085-2.86 3.246-1.827 1.16-4.265 1.16m0-2.484q1.851 0 3.047-.95 1.194-.948 1.769-2.496.574-1.547.574-3.351t-.574-3.364q-.575-1.558-1.769-2.519-1.196-.961-3.047-.961t-3.047.961q-1.195.961-1.77 2.519-.574 1.56-.574 3.364t.574 3.351q.575 1.548 1.77 2.496 1.195.95 3.047.95m23.721-5.25V336h2.766v18h-2.766v-3.047h-.187q-.633 1.371-1.969 2.332-1.335.95-3.375.949-1.688 0-3-.738-1.312-.75-2.062-2.25-.75-1.511-.75-3.809V336h2.765v11.25q0 1.968 1.102 3.141 1.113 1.171 2.836 1.171 1.03 0 2.097-.527 1.079-.526 1.805-1.617.738-1.09.738-2.777m20.581-6.61-2.484.703a4.6 4.6 0 0 0-.691-1.207q-.445-.597-1.219-.984t-1.981-.387q-1.652 0-2.753.762-1.09.75-1.09 1.91 0 1.032.75 1.629t2.343.996l2.672.656q2.415.587 3.598 1.793 1.184 1.196 1.184 3.082a4.57 4.57 0 0 1-.891 2.766q-.879 1.218-2.461 1.922-1.582.703-3.68.703-2.754 0-4.558-1.195-1.805-1.195-2.285-3.493l2.625-.656q.375 1.454 1.418 2.18 1.055.726 2.753.727 1.934 0 3.071-.821 1.148-.832 1.148-1.992 0-.937-.656-1.57-.656-.645-2.016-.961l-3-.703q-2.472-.586-3.632-1.817-1.149-1.242-1.149-3.105 0-1.524.856-2.696.867-1.172 2.355-1.839 1.5-.669 3.398-.668 2.672 0 4.196 1.171 1.535 1.173 2.179 3.094m16.539 3.141V354h-2.766v-18h2.672v2.812h.234a5.15 5.15 0 0 1 1.922-2.203q1.289-.843 3.328-.843 1.828 0 3.199.75 1.371.738 2.133 2.25.762 1.5.762 3.797V354h-2.766v-11.25q0-2.121-1.101-3.305-1.102-1.195-3.024-1.195-1.325 0-2.367.574-1.03.575-1.629 1.676-.597 1.101-.597 2.672m27.881 3.469V336h2.766v18h-2.766v-3.047h-.187q-.633 1.371-1.969 2.332-1.337.95-3.375.949-1.687 0-3-.738-1.312-.75-2.062-2.25-.75-1.511-.75-3.809V336h2.765v11.25q0 1.968 1.102 3.141 1.113 1.171 2.836 1.171 1.03 0 2.097-.527 1.079-.526 1.805-1.617.738-1.09.738-2.777m7.831 7.359v-18h2.672v2.812h.235q.562-1.44 1.816-2.238 1.254-.808 3.012-.808 1.781 0 2.965.808 1.195.797 1.863 2.238h.187a5.25 5.25 0 0 1 2.075-2.214q1.383-.832 3.316-.832 2.414 0 3.949 1.511 1.536 1.5 1.535 4.676V354h-2.765v-12.047q0-1.992-1.09-2.848t-2.566-.855q-1.9 0-2.942 1.148-1.043 1.137-1.043 2.883V354h-2.812v-12.328q0-1.536-.996-2.473-.996-.95-2.567-.949-1.078 0-2.015.574a4.3 4.3 0 0 0-1.5 1.594q-.563 1.008-.563 2.332V354zm29.057 0v-24h2.766v8.859h.234q.304-.469.844-1.195.55-.739 1.57-1.312 1.032-.586 2.789-.586 2.274 0 4.008 1.136 1.735 1.137 2.707 3.223t.973 4.922q0 2.859-.973 4.957-.973 2.087-2.695 3.234-1.723 1.137-3.973 1.137-1.734 0-2.777-.574-1.044-.586-1.606-1.324-.562-.75-.867-1.243h-.328V354zm2.719-9q0 2.039.597 3.598.598 1.546 1.747 2.425 1.148.868 2.812.868 1.734 0 2.895-.914 1.172-.927 1.757-2.485.598-1.57.598-3.492 0-1.899-.586-3.422-.574-1.535-1.746-2.426-1.16-.902-2.918-.902-1.687 0-2.836.855-1.148.844-1.734 2.368-.586 1.51-.586 3.527m24.949 9.375q-2.601 0-4.488-1.148-1.875-1.16-2.895-3.235-1.008-2.086-1.008-4.851t1.008-4.875q1.02-2.121 2.836-3.305 1.829-1.195 4.266-1.195 1.406 0 2.777.468a6.9 6.9 0 0 1 2.496 1.524q1.125 1.043 1.793 2.765t.668 4.243v1.171h-13.875v-2.39h11.063q0-1.524-.61-2.719a4.6 4.6 0 0 0-1.711-1.887q-1.101-.691-2.601-.691-1.653 0-2.86.82a5.4 5.4 0 0 0-1.839 2.11 6.2 6.2 0 0 0-.645 2.789v1.594q0 2.038.703 3.457.715 1.406 1.981 2.144 1.265.726 2.941.727 1.09 0 1.969-.305a4.2 4.2 0 0 0 1.535-.938q.645-.632.996-1.57l2.672.75a5.9 5.9 0 0 1-1.418 2.391q-.996 1.02-2.461 1.593-1.465.563-3.293.563m11.66-.375v-18h2.672v2.719h.188q.491-1.337 1.781-2.168 1.289-.832 2.906-.832.304 0 .762.011.457.012.691.036v2.812a9 9 0 0 0-.644-.105 6.3 6.3 0 0 0-1.043-.082q-1.313 0-2.344.55-1.02.54-1.617 1.5-.586.95-.586 2.168V354zM432.497 166.398q-2.812 0-5.014-.966-2.187-.966-3.48-2.685-1.278-1.733-1.392-4.02h3.579q.114 1.407.966 2.429.853 1.009 2.23 1.563t3.054.554q1.875 0 3.324-.654 1.45-.653 2.273-1.818.824-1.164.824-2.699 0-1.605-.796-2.826-.795-1.236-2.329-1.932t-3.75-.696h-2.33v-3.125h2.33q1.732 0 3.04-.625 1.32-.625 2.059-1.762.753-1.136.753-2.67 0-1.478-.653-2.571t-1.847-1.705q-1.179-.61-2.784-.61a7.3 7.3 0 0 0-2.841.554q-1.321.539-2.159 1.576-.839 1.023-.909 2.472h-3.409q.085-2.287 1.378-4.006 1.292-1.733 3.38-2.699 2.103-.966 4.617-.966 2.699 0 4.63 1.094 1.932 1.08 2.969 2.855a7.47 7.47 0 0 1 1.037 3.835q0 2.458-1.292 4.191-1.28 1.733-3.481 2.4v.228q2.757.454 4.304 2.343 1.55 1.876 1.549 4.645 0 2.373-1.293 4.262-1.278 1.874-3.494 2.954t-5.043 1.08m15.639-.398v-2.557l9.603-10.511a67 67 0 0 0 2.784-3.21q1.094-1.379 1.619-2.586.54-1.221.54-2.556 0-1.535-.739-2.657-.725-1.121-1.988-1.733-1.265-.61-2.841-.61-1.677 0-2.926.696a4.8 4.8 0 0 0-1.918 1.917q-.668 1.236-.668 2.898h-3.352q0-2.557 1.179-4.489a8.2 8.2 0 0 1 3.21-3.011q2.046-1.08 4.588-1.08 2.557 0 4.532 1.08 1.974 1.08 3.096 2.912t1.122 4.077q0 1.605-.582 3.139-.569 1.52-1.989 3.395-1.405 1.86-3.906 4.545l-6.534 6.989v.227h13.523V166zM432.497 601.398q-2.812 0-5.014-.966-2.187-.966-3.48-2.685-1.278-1.732-1.392-4.02h3.579q.114 1.406.966 2.429.853 1.009 2.23 1.563t3.054.554q1.875 0 3.324-.654 1.45-.653 2.273-1.818.824-1.164.824-2.699 0-1.605-.796-2.826-.795-1.236-2.329-1.932t-3.75-.696h-2.33v-3.125h2.33q1.732 0 3.04-.625 1.32-.625 2.059-1.762.753-1.135.753-2.67 0-1.478-.653-2.571t-1.847-1.705q-1.179-.61-2.784-.61a7.3 7.3 0 0 0-2.841.554q-1.321.539-2.159 1.576-.839 1.023-.909 2.472h-3.409q.085-2.287 1.378-4.006 1.292-1.733 3.38-2.699 2.103-.966 4.617-.966 2.699 0 4.63 1.094 1.932 1.08 2.969 2.855a7.47 7.47 0 0 1 1.037 3.835q0 2.458-1.292 4.191-1.28 1.732-3.481 2.4v.228q2.757.455 4.304 2.343 1.55 1.876 1.549 4.645 0 2.372-1.293 4.262-1.278 1.875-3.494 2.954t-5.043 1.08m15.639-.398v-2.557l9.603-10.511a67 67 0 0 0 2.784-3.21q1.094-1.378 1.619-2.586.54-1.221.54-2.556 0-1.535-.739-2.657-.725-1.122-1.988-1.733-1.265-.61-2.841-.61-1.677 0-2.926.696a4.8 4.8 0 0 0-1.918 1.917q-.668 1.236-.668 2.898h-3.352q0-2.557 1.179-4.489a8.2 8.2 0 0 1 3.21-3.011q2.046-1.08 4.588-1.08 2.557 0 4.532 1.08 1.974 1.08 3.096 2.912t1.122 4.077q0 1.605-.582 3.139-.569 1.52-1.989 3.395-1.405 1.86-3.906 4.545l-6.534 6.989v.227h13.523V601zM556.332 136.909V166h-3.522v-25.398h-.171l-7.102 4.716v-3.579l7.273-4.83zM564.699 166v-2.557l9.602-10.511a67 67 0 0 0 2.784-3.21q1.093-1.379 1.62-2.586a6.3 6.3 0 0 0 .539-2.556q0-1.535-.738-2.657-.724-1.121-1.989-1.733-1.264-.61-2.841-.61-1.676 0-2.926.696a4.8 4.8 0 0 0-1.918 1.917q-.667 1.236-.667 2.898h-3.353q0-2.557 1.179-4.489a8.2 8.2 0 0 1 3.211-3.011q2.045-1.08 4.588-1.08 2.556 0 4.531 1.08t3.097 2.912 1.122 4.077q0 1.605-.583 3.139-.567 1.52-1.988 3.395-1.407 1.86-3.907 4.545l-6.534 6.989v.227h13.523V166zM556.332 571.909V601h-3.522v-25.398h-.171l-7.102 4.716v-3.579l7.273-4.83zM564.699 601v-2.557l9.602-10.511a67 67 0 0 0 2.784-3.21q1.093-1.378 1.62-2.586a6.3 6.3 0 0 0 .539-2.556q0-1.535-.738-2.657-.724-1.122-1.989-1.733-1.264-.61-2.841-.61-1.676 0-2.926.696a4.8 4.8 0 0 0-1.918 1.917q-.667 1.236-.667 2.898h-3.353q0-2.557 1.179-4.489a8.2 8.2 0 0 1 3.211-3.011q2.045-1.08 4.588-1.08 2.556 0 4.531 1.08t3.097 2.912 1.122 4.077q0 1.605-.583 3.139-.567 1.52-1.988 3.395-1.407 1.86-3.907 4.545l-6.534 6.989v.227h13.523V601z"/></svg>