<svg xmlns="http://www.w3.org/2000/svg" width="601" height="332" fill="none" viewBox="0 0 601 332"><path fill="#540099" d="M1 131c0-14.912 12.088-27 27-27h93v120H28c-14.912 0-27-12.088-27-27z"/><path fill="#995e00" d="M121 104h120v120H121z"/><rect width="599" height="120" x="1" y="104" stroke="#dbdbdb" stroke-width="2" rx="26"/><path stroke="#dbdbdb" stroke-width="2" d="M121 103v122M241 103v122M362 103v122M482 103v122"/><path fill="#fff" d="M38.976 178v-2.557l9.603-10.511a67 67 0 0 0 2.784-3.21q1.094-1.379 1.619-2.586.54-1.221.54-2.556 0-1.535-.739-2.657-.725-1.121-1.989-1.733-1.264-.61-2.84-.61-1.676 0-2.927.696a4.8 4.8 0 0 0-1.917 1.917q-.668 1.236-.668 2.898H39.09q0-2.557 1.179-4.489a8.2 8.2 0 0 1 3.21-3.011q2.046-1.08 4.588-1.08 2.557 0 4.531 1.08 1.975 1.08 3.097 2.912t1.122 4.077q0 1.605-.582 3.139-.57 1.52-1.989 3.395-1.406 1.86-3.906 4.545l-6.534 6.989v.227h13.523V178zm25.128 0 13.011-25.739v-.227h-15v-3.125h18.637v3.296L67.797 178zM157.572 172.034v-2.898l12.784-20.227h2.102v4.489h-1.42l-9.659 15.284v.227h17.215v3.125zM171.265 178v-29.091h3.352V178zm13.562 0 13.011-25.739v-.227h-15v-3.125h18.636v3.296L188.52 178zM290.961 148.909V178h-3.522v-25.398h-.171l-7.102 4.716v-3.579l7.273-4.83zm17.628-.398q1.79.015 3.58.682 1.79.668 3.267 2.216 1.477 1.535 2.372 4.19.894 2.657.895 6.662 0 3.879-.739 6.89-.725 2.997-2.102 5.056-1.363 2.06-3.324 3.125-1.946 1.066-4.403 1.066-2.444 0-4.361-.966a8.56 8.56 0 0 1-3.125-2.713q-1.207-1.747-1.549-4.049h3.466q.47 2.004 1.861 3.31 1.406 1.293 3.708 1.293 3.366 0 5.312-2.941 1.96-2.94 1.96-8.309h-.227a8.9 8.9 0 0 1-1.889 2.059 8.3 8.3 0 0 1-2.429 1.336 8.5 8.5 0 0 1-2.841.468q-2.5 0-4.588-1.235-2.074-1.25-3.324-3.424-1.236-2.187-1.236-5 0-2.67 1.193-4.886a9.2 9.2 0 0 1 3.381-3.551q2.187-1.321 5.142-1.279m0 3.125q-1.79 0-3.224.895a6.44 6.44 0 0 0-2.259 2.387q-.824 1.491-.824 3.309t.796 3.31a6.35 6.35 0 0 0 2.201 2.358q1.407.867 3.196.866 1.35 0 2.515-.525a6.5 6.5 0 0 0 2.031-1.463 7.1 7.1 0 0 0 1.378-2.117 6.4 6.4 0 0 0 .497-2.486 6.5 6.5 0 0 0-.824-3.196 6.54 6.54 0 0 0-2.244-2.414q-1.42-.924-3.239-.924"/><path fill="#717171" d="M277.197 8v24h-2.906V8zm8.218 13.172V32h-2.766V14h2.672v2.813h.235a5.14 5.14 0 0 1 1.922-2.204q1.288-.843 3.328-.843 1.828 0 3.199.75 1.371.738 2.133 2.25.762 1.5.761 3.797V32h-2.765V20.75q0-2.121-1.102-3.305-1.101-1.195-3.023-1.195-1.325 0-2.367.574-1.032.575-1.629 1.676-.598 1.101-.598 2.672M301.953 32V14h2.766v18zm1.406-21a1.96 1.96 0 0 1-1.394-.55 1.77 1.77 0 0 1-.574-1.325q0-.774.574-1.324.585-.55 1.394-.551.809 0 1.383.55.586.552.586 1.325 0 .774-.586 1.324-.575.55-1.383.551m14.253 3v2.344h-9.328V14zm-6.609-4.312h2.766v17.156q0 1.172.339 1.758.353.573.891.773.55.188 1.16.188.458 0 .75-.047l.469-.094.562 2.484q-.28.105-.785.211-.504.117-1.277.117a5.6 5.6 0 0 1-2.297-.504 4.57 4.57 0 0 1-1.852-1.535q-.726-1.03-.726-2.601zM321.772 32V14h2.766v18zm1.407-21a1.97 1.97 0 0 1-1.395-.55 1.77 1.77 0 0 1-.574-1.325q0-.774.574-1.324.587-.55 1.395-.551.808 0 1.383.55.585.552.585 1.325 0 .774-.585 1.324-.575.55-1.383.551M334.9 32.422q-1.71 0-3.105-.645a5.33 5.33 0 0 1-2.215-1.886q-.82-1.242-.82-3 0-1.548.609-2.508a4.3 4.3 0 0 1 1.629-1.524q1.02-.55 2.25-.82a27 27 0 0 1 2.496-.445q1.641-.21 2.66-.317 1.032-.117 1.5-.386.481-.27.481-.938v-.094q0-1.734-.949-2.695-.938-.96-2.848-.96-1.98 0-3.106.866-1.125.868-1.582 1.852l-2.625-.938q.704-1.64 1.875-2.554a7 7 0 0 1 2.579-1.29q1.406-.374 2.765-.374.867 0 1.992.21 1.137.199 2.192.833 1.067.633 1.769 1.91.703 1.277.703 3.422V32h-2.765v-2.437h-.141q-.281.585-.937 1.253-.657.669-1.746 1.137-1.09.47-2.661.469m.422-2.484q1.641 0 2.766-.645 1.137-.645 1.711-1.664.586-1.02.586-2.145v-2.53q-.176.21-.774.386-.585.165-1.359.293-.762.117-1.488.21-.716.083-1.16.141-1.079.14-2.016.457-.925.306-1.5.926-.563.61-.563 1.664 0 1.442 1.067 2.18 1.079.727 2.73.727M350.964 8v24h-2.766V8zm27.097 10.031-2.485.703a4.6 4.6 0 0 0-.691-1.207q-.445-.597-1.219-.984t-1.98-.387q-1.653 0-2.754.762-1.09.75-1.09 1.91 0 1.031.75 1.629.75.597 2.344.996l2.671.656q2.415.587 3.598 1.793 1.184 1.196 1.184 3.082a4.57 4.57 0 0 1-.891 2.766q-.879 1.219-2.461 1.922t-3.68.703q-2.754 0-4.558-1.195-1.805-1.195-2.285-3.492l2.625-.657q.375 1.454 1.418 2.18 1.054.727 2.754.727 1.933 0 3.07-.82 1.148-.833 1.148-1.993 0-.937-.656-1.57-.656-.645-2.016-.961l-3-.703q-2.472-.586-3.632-1.817-1.149-1.242-1.149-3.105 0-1.523.856-2.696.867-1.17 2.355-1.84 1.5-.667 3.399-.667 2.671 0 4.195 1.172 1.535 1.17 2.18 3.093m11.803 14.344q-2.438 0-4.277-1.16-1.829-1.161-2.859-3.246-1.02-2.086-1.02-4.875 0-2.813 1.02-4.91 1.03-2.099 2.859-3.258 1.84-1.16 4.277-1.16t4.266 1.16q1.84 1.16 2.859 3.258 1.032 2.097 1.032 4.91 0 2.79-1.032 4.875-1.02 2.085-2.859 3.246-1.829 1.16-4.266 1.16m0-2.484q1.852 0 3.047-.95 1.195-.948 1.77-2.496.573-1.546.574-3.351 0-1.805-.574-3.364-.575-1.558-1.77-2.52-1.195-.96-3.047-.96-1.851 0-3.047.96-1.194.962-1.769 2.52-.574 1.559-.574 3.364t.574 3.351 1.769 2.496q1.196.95 3.047.95M402.242 32V14h2.672v2.719h.188q.491-1.336 1.781-2.168 1.289-.832 2.906-.832.304 0 .762.011.457.012.691.036v2.812a8 8 0 0 0-.644-.105 6.3 6.3 0 0 0-1.043-.082q-1.313 0-2.344.55a4.15 4.15 0 0 0-1.617 1.5q-.586.95-.586 2.168V32zm21.235-18v2.344h-9.329V14zm-6.61-4.312h2.766v17.156q0 1.172.34 1.758.351.573.89.773.55.188 1.16.188.458 0 .75-.047l.469-.094.563 2.484q-.282.105-.785.211-.504.117-1.278.117a5.6 5.6 0 0 1-2.297-.504 4.56 4.56 0 0 1-1.851-1.535q-.727-1.03-.727-2.601zm18.123 22.687q-2.601 0-4.488-1.148-1.875-1.16-2.895-3.235-1.007-2.086-1.007-4.851 0-2.767 1.007-4.875 1.02-2.121 2.836-3.305 1.828-1.195 4.266-1.195 1.406 0 2.777.468t2.496 1.524q1.125 1.043 1.793 2.765t.668 4.243v1.172h-13.875v-2.391h11.063q0-1.524-.61-2.719a4.6 4.6 0 0 0-1.71-1.887q-1.102-.69-2.602-.691-1.653 0-2.859.82a5.4 5.4 0 0 0-1.84 2.11 6.2 6.2 0 0 0-.645 2.789v1.593q0 2.04.703 3.457.715 1.407 1.981 2.145 1.266.726 2.941.727 1.09 0 1.969-.305a4.2 4.2 0 0 0 1.535-.938 4.25 4.25 0 0 0 .996-1.57l2.672.75a5.9 5.9 0 0 1-1.418 2.39q-.996 1.02-2.461 1.595-1.464.562-3.293.562m18.457 0q-2.25 0-3.972-1.137-1.723-1.147-2.696-3.234-.972-2.098-.972-4.957 0-2.835.972-4.922.973-2.085 2.707-3.223 1.736-1.136 4.008-1.136 1.758 0 2.777.586 1.031.574 1.571 1.312.55.726.855 1.195h.235V8h2.765v24h-2.672v-2.766h-.328q-.304.492-.867 1.243-.562.738-1.605 1.324-1.043.574-2.778.574m.375-2.484q1.664 0 2.813-.868 1.147-.878 1.746-2.425.597-1.56.598-3.598 0-2.016-.586-3.527-.586-1.524-1.735-2.367-1.148-.855-2.836-.856-1.758 0-2.929.902-1.16.891-1.747 2.426-.574 1.523-.574 3.422 0 1.921.586 3.492.599 1.559 1.758 2.485 1.172.914 2.906.914M339.604 48v24h-2.906V48zm13.28 6v2.344h-9.328V54zm-6.609-4.312h2.766v17.156q0 1.172.339 1.758.352.573.891.773.55.188 1.16.188.458 0 .75-.047l.469-.094.562 2.484q-.28.105-.785.211-.504.117-1.277.117a5.6 5.6 0 0 1-2.297-.503 4.57 4.57 0 0 1-1.852-1.536q-.726-1.03-.726-2.601zm18.123 22.687q-2.602 0-4.488-1.148-1.875-1.16-2.895-3.235-1.008-2.086-1.008-4.851 0-2.767 1.008-4.875 1.02-2.121 2.836-3.305 1.829-1.195 4.266-1.195 1.406 0 2.777.468t2.496 1.524q1.125 1.043 1.793 2.765t.668 4.243v1.172h-13.875v-2.391h11.063q0-1.524-.61-2.719a4.6 4.6 0 0 0-1.711-1.887q-1.101-.69-2.601-.691-1.653 0-2.86.82a5.4 5.4 0 0 0-1.84 2.11 6.2 6.2 0 0 0-.644 2.789v1.593q0 2.04.703 3.457.715 1.407 1.981 2.145 1.265.727 2.941.727 1.09 0 1.969-.305a4.2 4.2 0 0 0 1.535-.938 4.25 4.25 0 0 0 .996-1.57l2.672.75a5.9 5.9 0 0 1-1.418 2.39q-.997 1.02-2.461 1.594-1.465.564-3.293.563m11.66-.375V54h2.672v2.813h.234q.563-1.442 1.817-2.239 1.254-.808 3.011-.808 1.782 0 2.965.808 1.195.798 1.864 2.239h.187a5.24 5.24 0 0 1 2.074-2.215q1.383-.832 3.317-.832 2.414 0 3.949 1.511 1.535 1.5 1.535 4.676V72h-2.766V59.953q0-1.992-1.089-2.848-1.09-.855-2.567-.855-1.898 0-2.941 1.148-1.043 1.138-1.043 2.883V72h-2.813V59.672q0-1.536-.996-2.473-.996-.95-2.566-.949-1.079 0-2.016.574a4.34 4.34 0 0 0-1.5 1.594q-.562 1.008-.562 2.332V72zM403.155 284v-24h14.39v2.578h-11.484v8.109h10.406v2.579h-10.406V284zm18.993 0v-18h2.766v18zm1.406-21a1.97 1.97 0 0 1-1.394-.551 1.77 1.77 0 0 1-.575-1.324q0-.774.575-1.324.585-.55 1.394-.551.808 0 1.383.551.586.55.586 1.324t-.586 1.324a1.93 1.93 0 0 1-1.383.551m6.425 21v-18h2.672v2.719h.187q.493-1.337 1.782-2.168t2.906-.832q.304 0 .762.011.456.012.691.036v2.812a9 9 0 0 0-.645-.105 6.3 6.3 0 0 0-1.042-.082q-1.313 0-2.344.55-1.02.54-1.617 1.5-.586.95-.586 2.168V284zm25.028-13.969-2.484.703a4.6 4.6 0 0 0-.691-1.207q-.446-.597-1.219-.984t-1.981-.387q-1.651 0-2.754.762-1.089.75-1.089 1.91 0 1.032.75 1.629t2.343.996l2.672.656q2.415.587 3.598 1.793 1.183 1.196 1.183 3.082a4.57 4.57 0 0 1-.89 2.766q-.879 1.218-2.461 1.922-1.582.703-3.68.703-2.754 0-4.558-1.195-1.805-1.195-2.286-3.493l2.625-.656q.375 1.454 1.418 2.18 1.056.726 2.754.727 1.934 0 3.071-.821 1.148-.833 1.148-1.992 0-.937-.656-1.57-.657-.645-2.016-.961l-3-.703q-2.472-.586-3.633-1.817-1.148-1.242-1.148-3.105 0-1.524.855-2.696.868-1.172 2.356-1.839 1.5-.669 3.398-.668 2.673 0 4.196 1.171 1.535 1.173 2.179 3.094m12.32-4.031v2.344h-9.328V266zm-6.61-4.313h2.766v17.157q0 1.171.34 1.758.351.573.89.773a3.6 3.6 0 0 0 1.161.187q.456 0 .75-.046l.468-.094.563 2.484a5.5 5.5 0 0 1-.785.211q-.504.117-1.278.117a5.6 5.6 0 0 1-2.297-.504 4.55 4.55 0 0 1-1.851-1.535q-.727-1.03-.727-2.601zM480.768 284v-18h2.766v18zm1.406-21a1.97 1.97 0 0 1-1.394-.551 1.77 1.77 0 0 1-.574-1.324q0-.774.574-1.324.585-.55 1.394-.551.808 0 1.383.551.586.55.586 1.324t-.586 1.324a1.93 1.93 0 0 1-1.383.551m14.253 3v2.344h-9.328V266zm-6.609-4.313h2.765v17.157q0 1.171.34 1.758.353.573.891.773.55.187 1.16.187.458 0 .75-.046l.469-.094.562 2.484a5.5 5.5 0 0 1-.785.211q-.504.117-1.277.117a5.6 5.6 0 0 1-2.297-.504 4.56 4.56 0 0 1-1.852-1.535q-.726-1.03-.726-2.601zm18.123 22.688q-2.602 0-4.488-1.148-1.875-1.16-2.895-3.235-1.008-2.086-1.008-4.851t1.008-4.875q1.02-2.121 2.836-3.305 1.828-1.195 4.266-1.195 1.406 0 2.777.468a6.9 6.9 0 0 1 2.496 1.524q1.125 1.043 1.793 2.765t.668 4.243v1.171h-13.875v-2.39h11.063q0-1.524-.61-2.719a4.6 4.6 0 0 0-1.711-1.887q-1.101-.691-2.601-.691-1.653 0-2.86.82a5.4 5.4 0 0 0-1.84 2.11 6.2 6.2 0 0 0-.644 2.789v1.594q0 2.038.703 3.457.715 1.406 1.981 2.144 1.265.726 2.941.727 1.09 0 1.969-.305a4.2 4.2 0 0 0 1.535-.938q.645-.632.996-1.57l2.672.75a5.9 5.9 0 0 1-1.418 2.391q-.996 1.02-2.461 1.593-1.465.563-3.293.563m11.66-.375v-18h2.672v2.812h.234q.563-1.44 1.817-2.238 1.254-.808 3.011-.808 1.782 0 2.965.808 1.195.797 1.864 2.238h.187a5.25 5.25 0 0 1 2.074-2.214q1.383-.832 3.317-.832 2.413 0 3.949 1.511 1.535 1.5 1.535 4.676V284h-2.766v-12.047q0-1.992-1.089-2.848-1.09-.855-2.567-.855-1.898 0-2.941 1.148-1.043 1.137-1.043 2.883V284h-2.813v-12.328q0-1.536-.996-2.473-.996-.95-2.566-.949a3.8 3.8 0 0 0-2.016.574 4.34 4.34 0 0 0-1.5 1.594q-.562 1.008-.562 2.332V284zm-87.788 22v2.344h-9.328V306zm-6.609-4.313h2.765v17.157q0 1.171.34 1.758.351.573.891.773.55.187 1.16.187.458 0 .75-.046l.469-.094.562 2.484a5.5 5.5 0 0 1-.785.211q-.504.117-1.277.117a5.6 5.6 0 0 1-2.297-.504 4.55 4.55 0 0 1-1.852-1.535q-.726-1.03-.726-2.601zm17.888 22.688q-2.437 0-4.277-1.16-1.829-1.161-2.859-3.246-1.02-2.087-1.02-4.875 0-2.813 1.02-4.91 1.03-2.099 2.859-3.258 1.84-1.16 4.277-1.16t4.266 1.16q1.84 1.16 2.859 3.258 1.032 2.097 1.032 4.91 0 2.788-1.032 4.875-1.02 2.085-2.859 3.246-1.829 1.16-4.266 1.16m0-2.484q1.852 0 3.047-.95 1.195-.948 1.77-2.496.574-1.547.574-3.351t-.574-3.364q-.575-1.558-1.77-2.519t-3.047-.961q-1.851 0-3.047.961-1.194.961-1.769 2.519-.574 1.56-.574 3.364t.574 3.351 1.769 2.496q1.196.95 3.047.95m34.409-11.86-2.484.703a4.6 4.6 0 0 0-.691-1.207q-.445-.597-1.219-.984t-1.981-.387q-1.652 0-2.753.762-1.09.75-1.09 1.91 0 1.032.75 1.629t2.343.996l2.672.656q2.415.587 3.598 1.793 1.184 1.196 1.184 3.082a4.57 4.57 0 0 1-.891 2.766q-.879 1.218-2.461 1.922-1.582.703-3.68.703-2.754 0-4.558-1.195-1.805-1.195-2.285-3.493l2.625-.656q.375 1.454 1.418 2.18 1.055.726 2.753.727 1.935 0 3.071-.821 1.148-.833 1.148-1.992 0-.937-.656-1.57-.656-.645-2.016-.961l-3-.703q-2.472-.586-3.632-1.817-1.149-1.242-1.149-3.105 0-1.524.856-2.696.867-1.172 2.355-1.839 1.5-.669 3.398-.668 2.673 0 4.196 1.171 1.535 1.173 2.179 3.094m11.804 14.344q-2.438 0-4.277-1.16-1.828-1.161-2.86-3.246-1.019-2.087-1.019-4.875 0-2.813 1.019-4.91 1.032-2.099 2.86-3.258 1.84-1.16 4.277-1.16t4.266 1.16q1.839 1.16 2.859 3.258 1.031 2.097 1.031 4.91 0 2.788-1.031 4.875-1.02 2.085-2.859 3.246-1.829 1.16-4.266 1.16m0-2.484q1.852 0 3.047-.95 1.196-.948 1.77-2.496.574-1.547.574-3.351t-.574-3.364q-.575-1.558-1.77-2.519t-3.047-.961-3.047.961-1.769 2.519q-.574 1.56-.574 3.364t.574 3.351 1.769 2.496q1.196.95 3.047.95M501.683 324v-18h2.672v2.719h.187q.493-1.337 1.782-2.168t2.906-.832q.305 0 .762.011.457.012.691.036v2.812a9 9 0 0 0-.644-.105 6.3 6.3 0 0 0-1.043-.082q-1.313 0-2.344.55-1.02.54-1.617 1.5-.586.95-.586 2.168V324zm21.234-18v2.344h-9.328V306zm-6.609-4.313h2.766v17.157q0 1.171.34 1.758.351.573.89.773.55.187 1.16.187.457 0 .75-.046l.469-.094.563 2.484q-.282.106-.786.211-.503.117-1.277.117a5.6 5.6 0 0 1-2.297-.504 4.55 4.55 0 0 1-1.851-1.535q-.727-1.03-.727-2.601z"/><path fill="#fff" d="M408.497 178.398q-2.812 0-5.014-.966-2.187-.966-3.48-2.685-1.278-1.732-1.392-4.02h3.579q.114 1.407.966 2.429.853 1.009 2.23 1.563t3.054.554q1.875 0 3.324-.654 1.45-.653 2.273-1.818.824-1.164.824-2.699 0-1.605-.796-2.826-.795-1.236-2.329-1.932t-3.75-.696h-2.33v-3.125h2.33q1.732 0 3.04-.625 1.32-.625 2.059-1.762.753-1.136.753-2.67 0-1.478-.653-2.571t-1.847-1.705q-1.179-.61-2.784-.61a7.3 7.3 0 0 0-2.841.554q-1.321.539-2.159 1.576-.839 1.023-.909 2.472h-3.409q.085-2.287 1.378-4.006 1.292-1.733 3.38-2.699 2.103-.966 4.617-.966 2.699 0 4.63 1.094 1.932 1.08 2.969 2.855a7.47 7.47 0 0 1 1.037 3.835q0 2.458-1.292 4.191-1.28 1.733-3.481 2.4v.228q2.757.454 4.304 2.343 1.55 1.876 1.549 4.645 0 2.373-1.293 4.262-1.278 1.875-3.494 2.954t-5.043 1.08m15.639-.398v-2.557l9.603-10.511a67 67 0 0 0 2.784-3.21q1.094-1.379 1.619-2.586.54-1.221.54-2.556 0-1.535-.739-2.657-.725-1.121-1.988-1.733-1.265-.61-2.841-.61-1.677 0-2.926.696a4.8 4.8 0 0 0-1.918 1.917q-.668 1.236-.668 2.898h-3.352q0-2.557 1.179-4.489a8.2 8.2 0 0 1 3.21-3.011q2.046-1.08 4.588-1.08 2.557 0 4.532 1.08 1.974 1.08 3.096 2.912t1.122 4.077q0 1.605-.582 3.139-.569 1.52-1.989 3.395-1.405 1.86-3.906 4.545l-6.534 6.989v.227h13.523V178zM532.332 148.909V178h-3.522v-25.398h-.171l-7.102 4.716v-3.579l7.273-4.83zM540.699 178v-2.557l9.602-10.511a67 67 0 0 0 2.784-3.21q1.093-1.379 1.62-2.586a6.3 6.3 0 0 0 .539-2.556q0-1.535-.738-2.657-.724-1.121-1.989-1.733-1.264-.61-2.841-.61-1.676 0-2.926.696a4.8 4.8 0 0 0-1.918 1.917q-.667 1.236-.667 2.898h-3.353q0-2.557 1.179-4.489a8.2 8.2 0 0 1 3.211-3.011q2.045-1.08 4.588-1.08 2.556 0 4.531 1.08t3.097 2.912 1.122 4.077q0 1.605-.583 3.139-.567 1.52-1.988 3.395-1.407 1.86-3.907 4.545l-6.534 6.989v.227h13.523V178z"/><path fill="#717171" d="M244.561 35.45a1.5 1.5 0 0 1 0 2.122l-9.546 9.546a1.5 1.5 0 0 1-2.122-2.121l8.486-8.486-8.486-8.485a1.501 1.501 0 0 1 2.122-2.121zM64.5 36.512H63v-1.5h1.5zm179 0v1.5h-179v-3h179zm-179 0H66v43.512h-3V36.512zM366.061 296.561a1.5 1.5 0 0 0 0-2.122l-9.546-9.546a1.5 1.5 0 0 0-2.122 0 1.5 1.5 0 0 0 0 2.122l8.486 8.485-8.486 8.485a1.5 1.5 0 0 0 0 2.122 1.5 1.5 0 0 0 2.122 0zM182.5 295.5H181v1.5h1.5zm182.5 0V294H182.5v3H365zm-182.5 0h1.5v-43.511h-3V295.5z"/></svg>