<svg xmlns="http://www.w3.org/2000/svg" width="837" height="250" fill="none" viewBox="0 0 837 250"><path fill="#fff" stroke="#000" d="M152.202 1H14.76C7.16 1 1 7.16 1 14.76v220.152c0 7.599 6.16 13.759 13.76 13.759h137.442c7.599 0 13.759-6.16 13.759-13.759V14.76c0-7.6-6.16-13.76-13.759-13.76Z"/><path fill="#000" d="M13.407 14.556 9.271 37.53h2.298l1.077-5.974h3.82l1.076 5.974h2.298l-4.135-22.975zm1.149 6.39 1.493 8.314h-2.987zM151.258 235.117l-4.136-22.975h2.298l1.077 5.973h3.819l1.077-5.973h2.298l-4.136 22.975zm1.148-6.39 1.494-8.314h-2.987zM85.778 129.889c.46 1.838 2.297 6.433 5.514 6.433 4.135 0 5.973-3.676 5.973-8.271 0-3.216-1.185-5.336-2.297-7.811-1.185-2.636-2.931-4.989-4.595-7.352-2.135-3.032-6.893-8.731-6.893-8.731s-4.758 5.699-6.892 8.731c-1.664 2.363-3.41 4.716-4.595 7.352-1.113 2.475-2.298 4.595-2.298 7.811 0 4.595 1.838 8.271 5.974 8.271 3.216 0 5.054-4.595 5.514-6.433.46-.459.46 0 .46.46-.46 3.676-.46 4.595-.92 7.352s-1.838 7.811-1.838 7.811c2.298-.919 6.893-.919 9.19 0 0 0-1.378-5.054-1.838-7.811s-.46-3.676-.919-7.352c0-.46 0-.919.46-.46M15.704 54.99c.23.92 1.15 3.217 2.757 3.217 2.068 0 2.987-1.838 2.987-4.136 0-1.608-.592-2.668-1.149-3.906-.592-1.318-1.465-2.494-2.297-3.676-1.067-1.516-3.446-4.365-3.446-4.365s-2.38 2.85-3.447 4.365c-.832 1.182-1.705 2.358-2.297 3.676-.556 1.238-1.149 2.298-1.149 3.906 0 2.298.92 4.136 2.987 4.136 1.608 0 2.527-2.298 2.757-3.217.23-.23.23 0 .23.23-.23 1.838-.23 2.297-.46 3.676-.23 1.378-.919 3.906-.919 3.906 1.149-.46 3.446-.46 4.595 0 0 0-.69-2.528-.919-3.906s-.23-1.838-.46-3.676c0-.23 0-.46.23-.23M153.555 194.68c.23-.919 1.149-3.217 2.757-3.217 2.068 0 2.987 1.838 2.987 4.136 0 1.608-.593 2.668-1.149 3.905-.592 1.318-1.466 2.495-2.298 3.676-1.067 1.516-3.446 4.366-3.446 4.366s-2.379-2.85-3.446-4.366c-.832-1.181-1.705-2.358-2.298-3.676-.556-1.237-1.148-2.297-1.148-3.905 0-2.298.919-4.136 2.986-4.136 1.609 0 2.528 2.298 2.757 3.217.23.229.23 0 .23-.23-.23-1.838-.23-2.298-.459-3.676-.23-1.379-.919-3.906-.919-3.906 1.148.46 3.446.46 4.595 0 0 0-.69 2.527-.919 3.906-.23 1.378-.23 1.838-.46 3.676 0 .23 0 .459.23.23"/><path fill="#fff" stroke="#000" d="M152.202 1H14.76C7.16 1 1 7.16 1 14.76v220.152c0 7.599 6.16 13.759 13.76 13.759h137.442c7.599 0 13.759-6.16 13.759-13.759V14.76c0-7.6-6.16-13.76-13.759-13.76Z"/><path fill="#000" d="M13.407 14.556 9.271 37.53h2.298l1.077-5.974h3.82l1.076 5.974h2.298l-4.135-22.975zm1.149 6.39 1.493 8.314h-2.987zM151.258 235.117l-4.136-22.975h2.298l1.077 5.973h3.819l1.077-5.973h2.298l-4.136 22.975zm1.148-6.39 1.494-8.314h-2.987zM85.778 129.889c.46 1.838 2.297 6.433 5.514 6.433 4.135 0 5.973-3.676 5.973-8.271 0-3.216-1.185-5.336-2.297-7.811-1.185-2.636-2.931-4.989-4.595-7.352-2.135-3.032-6.893-8.731-6.893-8.731s-4.758 5.699-6.892 8.731c-1.664 2.363-3.41 4.716-4.595 7.352-1.113 2.475-2.298 4.595-2.298 7.811 0 4.595 1.838 8.271 5.974 8.271 3.216 0 5.054-4.595 5.514-6.433.46-.459.46 0 .46.46-.46 3.676-.46 4.595-.92 7.352s-1.838 7.811-1.838 7.811c2.298-.919 6.893-.919 9.19 0 0 0-1.378-5.054-1.838-7.811s-.46-3.676-.919-7.352c0-.46 0-.919.46-.46M15.704 54.99c.23.92 1.15 3.217 2.757 3.217 2.068 0 2.987-1.838 2.987-4.136 0-1.608-.592-2.668-1.149-3.906-.592-1.318-1.465-2.494-2.297-3.676-1.067-1.516-3.446-4.365-3.446-4.365s-2.38 2.85-3.447 4.365c-.832 1.182-1.705 2.358-2.297 3.676-.556 1.238-1.149 2.298-1.149 3.906 0 2.298.92 4.136 2.987 4.136 1.608 0 2.527-2.298 2.757-3.217.23-.23.23 0 .23.23-.23 1.838-.23 2.297-.46 3.676-.23 1.378-.919 3.906-.919 3.906 1.149-.46 3.446-.46 4.595 0 0 0-.69-2.528-.919-3.906s-.23-1.838-.46-3.676c0-.23 0-.46.23-.23M153.555 194.68c.23-.919 1.149-3.217 2.757-3.217 2.068 0 2.987 1.838 2.987 4.136 0 1.608-.593 2.668-1.149 3.905-.592 1.318-1.466 2.495-2.298 3.676-1.067 1.516-3.446 4.366-3.446 4.366s-2.379-2.85-3.446-4.366c-.832-1.181-1.705-2.358-2.298-3.676-.556-1.237-1.148-2.297-1.148-3.905 0-2.298.919-4.136 2.986-4.136 1.609 0 2.528 2.298 2.757 3.217.23.229.23 0 .23-.23-.23-1.838-.23-2.298-.459-3.676-.23-1.379-.919-3.906-.919-3.906 1.148.46 3.446.46 4.595 0 0 0-.69 2.527-.919 3.906-.23 1.378-.23 1.838-.46 3.676 0 .23 0 .459.23.23"/><path fill="#fff" stroke="#000" d="M284.997 1H147.555c-7.599 0-13.759 6.16-13.759 13.76v220.152c0 7.599 6.16 13.759 13.759 13.759h137.442c7.6 0 13.76-6.16 13.76-13.759V14.76c0-7.6-6.16-13.76-13.76-13.76Z"/><path fill="#000" d="M147.352 14.556a4.585 4.585 0 0 0-4.595 4.595v2.297h2.297v-2.297a2.293 2.293 0 0 1 2.298-2.298 2.29 2.29 0 0 1 2.297 2.298v2.297c0 .518-.172 1.409-.459 1.792-2.051 4.184-4.264 7.87-6.433 11.993v2.298h9.19v-4.595h-2.298v2.297h-4.365c2.063-3.637 3.776-7.155 5.744-10.844.574-.767.919-1.904.919-2.94V19.15a4.585 4.585 0 0 0-4.595-4.595M285.202 235.117a4.585 4.585 0 0 0 4.595-4.595v-2.298H287.5v2.298a2.293 2.293 0 0 1-2.298 2.297 2.293 2.293 0 0 1-2.297-2.297v-2.298c0-.518.172-1.408.459-1.792 2.051-4.183 4.264-7.871 6.433-11.993v-2.297h-9.19v4.595h2.298v-2.298h4.365c-2.062 3.637-3.776 7.155-5.744 10.844-.574.767-.919 1.905-.919 2.941v2.298a4.586 4.586 0 0 0 4.595 4.595M148.5 54.99c.46.92 1.609 2.298 2.757 2.298 2.068 0 2.987-1.838 2.987-4.136s-.919-4.365-2.987-4.365c-1.148 0-1.838 1.149-2.527 1.838-.23.23-.459 0-.23-.23.69-.69 1.838-2.527 1.838-4.135 0-1.838-1.148-4.136-2.986-4.136s-2.987 2.297-2.987 4.136c0 1.608 1.149 3.446 1.838 4.135.23.23 0 .46-.23.23-.689-.69-1.379-1.838-2.527-1.838-2.068 0-2.987 2.068-2.987 4.365s.919 4.136 2.987 4.136c1.148 0 2.297-1.379 2.757-2.298.23-.23.23 0 .23.23-.23 1.838-.23 2.297-.46 3.676-.23 1.378-.919 3.906-.919 3.906 1.149-.46 3.446-.46 4.595 0 0 0-.689-2.528-.919-3.906s-.23-1.838-.459-3.676c0-.23 0-.46.229-.23M286.351 194.68c.459-.919 1.608-2.298 2.757-2.298 2.068 0 2.987 1.838 2.987 4.136s-.919 4.365-2.987 4.365c-1.149 0-1.838-1.149-2.527-1.838-.23-.23-.46 0-.23.23.689.689 1.838 2.527 1.838 4.135 0 1.838-1.149 4.136-2.987 4.136s-2.987-2.298-2.987-4.136c0-1.608 1.149-3.446 1.838-4.135.23-.23 0-.46-.229-.23-.69.689-1.379 1.838-2.528 1.838-2.067 0-2.986-2.068-2.986-4.365s.919-4.136 2.986-4.136c1.149 0 2.298 1.379 2.757 2.298.23.229.23 0 .23-.23-.23-1.838-.23-2.298-.459-3.676-.23-1.379-.919-3.906-.919-3.906 1.148.46 3.446.46 4.595 0 0 0-.69 2.527-.919 3.906-.23 1.378-.23 1.838-.46 3.676 0 .23 0 .459.23.23M218.575 47.18c.919 1.837 3.216 4.594 5.514 4.594 4.135 0 5.973-3.676 5.973-8.27 0-4.596-1.838-8.731-5.973-8.731-2.298 0-3.676 2.297-5.055 3.676-.459.46-.919 0-.459-.46 1.378-1.378 3.676-5.054 3.676-8.27 0-3.677-2.298-8.272-5.974-8.272s-5.973 4.595-5.973 8.271c0 3.217 2.297 6.893 3.676 8.271.459.46 0 .92-.46.46-1.378-1.379-2.757-3.676-5.054-3.676-4.136 0-5.974 4.135-5.974 8.73s1.838 8.271 5.974 8.271c2.297 0 4.595-2.757 5.514-4.595.459-.46.459 0 .459.46-.459 3.676-.459 4.595-.919 7.352-.459 2.757-1.838 7.811-1.838 7.811 2.298-.919 6.893-.919 9.19 0 0 0-1.378-5.054-1.838-7.811-.459-2.757-.459-3.676-.919-7.352 0-.46 0-.92.46-.46M218.575 202.491c.919-1.838 3.216-4.595 5.514-4.595 4.135 0 5.973 3.676 5.973 8.271s-1.838 8.731-5.973 8.731c-2.298 0-3.676-2.298-5.055-3.676-.459-.46-.919 0-.459.459 1.378 1.379 3.676 5.055 3.676 8.271 0 3.676-2.298 8.271-5.974 8.271s-5.973-4.595-5.973-8.271c0-3.216 2.297-6.892 3.676-8.271.459-.459 0-.919-.46-.459-1.378 1.378-2.757 3.676-5.054 3.676-4.136 0-5.974-4.136-5.974-8.731s1.838-8.271 5.974-8.271c2.297 0 4.595 2.757 5.514 4.595.459.46.459 0 .459-.459-.459-3.676-.459-4.595-.919-7.352-.459-2.757-1.838-7.812-1.838-7.812 2.298.919 6.893.919 9.19 0 0 0-1.378 5.055-1.838 7.812-.459 2.757-.459 3.676-.919 7.352 0 .459 0 .919.46.459"/><path fill="#fff" stroke="#000" d="M428.402 1H290.778C283.169 1 277 7.169 277 14.778v220.444c0 7.609 6.169 13.778 13.778 13.778h137.624c7.609 0 13.778-6.169 13.778-13.778V14.778C442.18 7.168 436.011 1 428.402 1Z"/><path fill="#000" d="M290.572 14.572a4.59 4.59 0 0 0-4.601 4.601v2.3h2.3v-2.3c0-1.274 1.026-2.3 2.301-2.3 1.274 0 2.3 1.026 2.3 2.3v2.3c0 1.275-1.026 2.302-2.3 2.302h-2.301v2.3h2.301c1.274 0 2.3 1.026 2.3 2.3v4.602c0 1.274-1.026 2.3-2.3 2.3a2.296 2.296 0 0 1-2.301-2.3v-2.3h-2.3v2.3a4.59 4.59 0 0 0 4.601 4.6 4.59 4.59 0 0 0 4.601-4.6v-4.601a4.57 4.57 0 0 0-1.567-3.451 4.57 4.57 0 0 0 1.567-3.451v-2.3a4.59 4.59 0 0 0-4.601-4.602M428.605 235.426a4.59 4.59 0 0 0 4.601-4.601v-2.3h-2.3v2.3a2.296 2.296 0 0 1-2.301 2.301 2.296 2.296 0 0 1-2.301-2.301v-2.3a2.296 2.296 0 0 1 2.301-2.301h2.301v-2.3h-2.301a2.296 2.296 0 0 1-2.301-2.301v-4.601a2.297 2.297 0 0 1 2.301-2.301 2.296 2.296 0 0 1 2.301 2.301v2.301h2.3v-2.301a4.59 4.59 0 0 0-4.601-4.601 4.59 4.59 0 0 0-4.601 4.601v4.601c0 1.382.609 2.609 1.567 3.451a4.58 4.58 0 0 0-1.567 3.451v2.3a4.59 4.59 0 0 0 4.601 4.601M361.889 47.24c.92 1.841 3.221 4.602 5.521 4.602 4.141 0 5.982-3.68 5.982-8.282 0-4.601-1.841-8.742-5.982-8.742-2.3 0-3.681 2.3-5.061 3.68-.46.46-.92 0-.46-.46 1.38-1.38 3.681-5.06 3.681-8.281 0-3.681-2.301-8.282-5.982-8.282s-5.981 4.6-5.981 8.282c0 3.22 2.301 6.901 3.681 8.282.46.46 0 .92-.46.46-1.381-1.38-2.761-3.681-5.061-3.681-4.141 0-5.982 4.14-5.982 8.742 0 4.601 1.841 8.282 5.982 8.282 2.3 0 4.601-2.76 5.521-4.601.46-.46.46 0 .46.46-.46 3.68-.46 4.601-.92 7.362-.46 2.76-1.841 7.822-1.841 7.822 2.301-.92 6.902-.92 9.203 0 0 0-1.381-5.062-1.841-7.822s-.46-3.681-.92-7.362c0-.46 0-.92.46-.46M361.889 130.061c.92 1.841 3.221 4.601 5.521 4.601 4.141 0 5.982-3.681 5.982-8.282s-1.841-8.742-5.982-8.742c-2.3 0-3.681 2.301-5.061 3.681-.46.46-.92 0-.46-.46 1.38-1.38 3.681-5.061 3.681-8.282 0-3.681-2.301-8.282-5.982-8.282s-5.981 4.601-5.981 8.282c0 3.221 2.301 6.902 3.681 8.282.46.46 0 .92-.46.46-1.381-1.38-2.761-3.681-5.061-3.681-4.141 0-5.982 4.141-5.982 8.742s1.841 8.282 5.982 8.282c2.3 0 4.601-2.76 5.521-4.601.46-.46.46 0 .46.46-.46 3.681-.46 4.601-.92 7.362s-1.841 7.822-1.841 7.822c2.301-.92 6.902-.92 9.203 0 0 0-1.381-5.061-1.841-7.822s-.46-3.681-.92-7.362c0-.46 0-.92.46-.46M361.889 202.759c.92-1.84 3.221-4.601 5.521-4.601 4.141 0 5.982 3.681 5.982 8.282s-1.841 8.742-5.982 8.742c-2.3 0-3.681-2.301-5.061-3.681-.46-.46-.92 0-.46.46 1.38 1.381 3.681 5.061 3.681 8.282 0 3.681-2.301 8.282-5.982 8.282s-5.981-4.601-5.981-8.282c0-3.221 2.301-6.901 3.681-8.282.46-.46 0-.92-.46-.46-1.381 1.38-2.761 3.681-5.061 3.681-4.141 0-5.982-4.141-5.982-8.742s1.841-8.282 5.982-8.282c2.3 0 4.601 2.761 5.521 4.601.46.46.46 0 .46-.46-.46-3.681-.46-4.601-.92-7.362s-1.841-7.822-1.841-7.822c2.301.92 6.902.92 9.203 0 0 0-1.381 5.061-1.841 7.822s-.46 3.681-.92 7.362c0 .46 0 .92.46.46M291.722 55.064c.46.92 1.61 2.3 2.761 2.3 2.07 0 2.99-1.84 2.99-4.14 0-2.301-.92-4.372-2.99-4.372-1.151 0-1.841 1.15-2.531 1.84-.23.23-.46 0-.23-.23.69-.69 1.84-2.53 1.84-4.14 0-1.84-1.15-4.141-2.99-4.141s-2.991 2.3-2.991 4.14c0 1.611 1.15 3.452 1.84 4.142.23.23 0 .46-.23.23-.69-.69-1.38-1.84-2.53-1.84-2.071 0-2.991 2.07-2.991 4.37s.92 4.141 2.991 4.141c1.15 0 2.3-1.38 2.76-2.3.23-.23.23 0 .23.23-.23 1.84-.23 2.3-.46 3.68s-.92 3.912-.92 3.912c1.15-.46 3.451-.46 4.601 0 0 0-.69-2.53-.92-3.911-.23-1.38-.23-1.84-.46-3.681 0-.23 0-.46.23-.23M429.756 194.937c.46-.92 1.61-2.3 2.761-2.3 2.07 0 2.99 1.84 2.99 4.141 0 2.3-.92 4.371-2.99 4.371-1.151 0-1.841-1.151-2.531-1.841-.23-.23-.46 0-.23.23.69.69 1.84 2.531 1.84 4.141 0 1.841-1.15 4.141-2.99 4.141s-2.991-2.3-2.991-4.141c0-1.61 1.15-3.451 1.84-4.141.231-.23 0-.46-.23-.23-.69.69-1.38 1.841-2.53 1.841-2.071 0-2.991-2.071-2.991-4.371s.92-4.141 2.991-4.141c1.15 0 2.3 1.38 2.76 2.3.231.23.231 0 .231-.23-.231-1.84-.231-2.3-.461-3.681-.23-1.38-.92-3.911-.92-3.911 1.15.46 3.451.46 4.601 0 0 0-.69 2.531-.92 3.911-.23 1.381-.23 1.841-.46 3.681 0 .23 0 .46.23.23"/><path fill="#fff" stroke="#000" d="M566.298 1H428.856c-7.599 0-13.759 6.16-13.759 13.76v220.152c0 7.599 6.16 13.759 13.759 13.759h137.442c7.599 0 13.76-6.16 13.76-13.759V14.76c0-7.6-6.161-13.76-13.76-13.76Z"/><path fill="#000" d="M424.057 14.556v9.19h4.595a2.293 2.293 0 0 1 2.297 2.297v6.893a2.293 2.293 0 0 1-2.297 2.297 2.293 2.293 0 0 1-2.298-2.297v-2.298h-2.297v2.298a4.585 4.585 0 0 0 4.595 4.595 4.585 4.585 0 0 0 4.595-4.595v-6.893a4.585 4.585 0 0 0-4.595-4.595h-2.298v-4.595h6.893v-2.297h-9.19M571.096 235.117v-9.19h-4.595a2.29 2.29 0 0 1-2.297-2.298v-6.892a2.29 2.29 0 0 1 2.297-2.298 2.293 2.293 0 0 1 2.298 2.298v2.297h2.297v-2.297a4.584 4.584 0 0 0-4.595-4.595 4.585 4.585 0 0 0-4.595 4.595v6.892a4.585 4.585 0 0 0 4.595 4.595h2.298v4.595h-6.893v2.298h9.19M458.524 47.172c.456 1.84 2.295 6.448 5.503 6.448 4.135 0 5.975-3.68 5.975-8.271 0-3.224-1.172-5.34-2.296-7.816-1.188-2.637-2.93-4.998-4.591-7.359-2.133-3.028-6.887-8.727-6.887-8.727s-4.771 5.699-6.903 8.727c-1.661 2.361-3.403 4.722-4.592 7.36-1.107 2.474-2.295 4.59-2.295 7.815 0 4.591 1.839 8.27 5.975 8.27 3.207 0 5.047-4.607 5.519-6.447.456-.456.456 0 .456.472-.456 3.664-.456 4.592-.928 7.343-.456 2.768-1.84 7.815-1.84 7.815 2.312-.911 6.904-.911 9.199 0 0 0-1.384-5.047-1.839-7.815-.456-2.751-.456-3.68-.912-7.343 0-.472 0-.928.456-.472M541.234 47.172c.456 1.84 2.295 6.448 5.503 6.448 4.135 0 5.975-3.68 5.975-8.271 0-3.224-1.172-5.34-2.296-7.816-1.188-2.637-2.93-4.998-4.591-7.359-2.133-3.028-6.887-8.727-6.887-8.727s-4.771 5.699-6.903 8.727c-1.661 2.361-3.403 4.722-4.592 7.36-1.107 2.474-2.296 4.59-2.296 7.815 0 4.591 1.84 8.27 5.976 8.27 3.207 0 5.047-4.607 5.519-6.447.456-.456.456 0 .456.472-.456 3.664-.456 4.592-.928 7.343-.456 2.768-1.84 7.815-1.84 7.815 2.312-.911 6.904-.911 9.199 0 0 0-1.384-5.047-1.839-7.815-.456-2.751-.456-3.68-.912-7.343 0-.472 0-.928.456-.472M499.878 129.882c.456 1.84 2.296 6.448 5.503 6.448 4.136 0 5.976-3.68 5.976-8.271 0-3.224-1.173-5.341-2.296-7.816-1.189-2.637-2.931-4.998-4.591-7.359-2.133-3.028-6.888-8.727-6.888-8.727s-4.77 5.699-6.903 8.727c-1.661 2.361-3.403 4.722-4.591 7.359-1.107 2.475-2.296 4.592-2.296 7.816 0 4.591 1.84 8.271 5.975 8.271 3.208 0 5.048-4.608 5.52-6.448.456-.456.456 0 .456.472-.456 3.664-.456 4.592-.928 7.343-.456 2.768-1.84 7.815-1.84 7.815 2.312-.911 6.903-.911 9.199 0 0 0-1.384-5.047-1.84-7.815-.456-2.751-.456-3.679-.912-7.343 0-.472 0-.928.456-.472M458.524 202.499c.456-1.84 2.295-6.448 5.503-6.448 4.135 0 5.975 3.68 5.975 8.271 0 3.224-1.172 5.341-2.296 7.815-1.188 2.638-2.93 4.999-4.591 7.36-2.133 3.028-6.887 8.727-6.887 8.727s-4.771-5.699-6.903-8.727c-1.661-2.361-3.403-4.722-4.592-7.36-1.107-2.474-2.295-4.591-2.295-7.815 0-4.591 1.839-8.271 5.975-8.271 3.207 0 5.047 4.608 5.519 6.448.456.456.456 0 .456-.472-.456-3.664-.456-4.592-.928-7.343-.456-2.768-1.84-7.816-1.84-7.816 2.312.912 6.904.912 9.199 0 0 0-1.384 5.048-1.839 7.816-.456 2.751-.456 3.679-.912 7.343 0 .472 0 .928.456.472M541.234 202.499c.456-1.84 2.295-6.448 5.503-6.448 4.135 0 5.975 3.68 5.975 8.271 0 3.224-1.172 5.341-2.296 7.815-1.188 2.638-2.93 4.999-4.591 7.36-2.133 3.028-6.887 8.727-6.887 8.727s-4.771-5.699-6.903-8.727c-1.661-2.361-3.403-4.722-4.592-7.36-1.107-2.474-2.296-4.591-2.296-7.815 0-4.591 1.84-8.271 5.976-8.271 3.207 0 5.047 4.608 5.519 6.448.456.456.456 0 .456-.472-.456-3.664-.456-4.592-.928-7.343-.456-2.768-1.84-7.816-1.84-7.816 2.312.912 6.904.912 9.199 0 0 0-1.384 5.048-1.839 7.816-.456 2.751-.456 3.679-.912 7.343 0 .472 0 .928.456.472M429.8 54.99c.23.92 1.149 3.217 2.757 3.217 2.068 0 2.987-1.838 2.987-4.136 0-1.608-.593-2.668-1.149-3.906-.592-1.318-1.466-2.494-2.297-3.676-1.068-1.516-3.447-4.365-3.447-4.365s-2.379 2.85-3.446 4.365c-.832 1.182-1.705 2.358-2.297 3.676-.557 1.238-1.149 2.298-1.149 3.906 0 2.298.919 4.136 2.987 4.136 1.608 0 2.527-2.298 2.757-3.217.229-.23.229 0 .229.23-.229 1.838-.229 2.297-.459 3.676-.23 1.378-.919 3.906-.919 3.906 1.149-.46 3.446-.46 4.595 0 0 0-.689-2.528-.919-3.906s-.23-1.838-.46-3.676c0-.23 0-.46.23-.23M567.652 194.68c.229-.919 1.148-3.217 2.757-3.217 2.067 0 2.986 1.838 2.986 4.136 0 1.608-.592 2.668-1.148 3.905-.593 1.318-1.466 2.495-2.298 3.676-1.067 1.516-3.446 4.366-3.446 4.366s-2.379-2.85-3.446-4.366c-.832-1.181-1.706-2.358-2.298-3.676-.556-1.237-1.149-2.297-1.149-3.905 0-2.298.919-4.136 2.987-4.136 1.608 0 2.527 2.298 2.757 3.217.23.229.23 0 .23-.23-.23-1.838-.23-2.298-.46-3.676-.229-1.379-.919-3.906-.919-3.906 1.149.46 3.447.46 4.595 0 0 0-.689 2.527-.919 3.906-.229 1.378-.229 1.838-.459 3.676 0 .23 0 .459.23.23"/><path fill="#fff" stroke="#000" d="M700.932 1H563.49c-7.599 0-13.76 6.16-13.76 13.76v220.152c0 7.599 6.161 13.759 13.76 13.759h137.442c7.599 0 13.76-6.16 13.76-13.759V14.76c0-7.6-6.161-13.76-13.76-13.76Z"/><path fill="#f55" d="M563.285 14.556a4.585 4.585 0 0 0-4.595 4.595v2.297c0 1.38.608 2.606 1.566 3.447a4.57 4.57 0 0 0-1.566 3.446v4.595a4.585 4.585 0 0 0 4.595 4.595 4.585 4.585 0 0 0 4.595-4.595V28.34c0-1.38-.607-2.606-1.565-3.447a4.56 4.56 0 0 0 1.565-3.446v-2.297a4.585 4.585 0 0 0-4.595-4.595m0 2.297a2.293 2.293 0 0 1 2.298 2.298v2.297a2.293 2.293 0 0 1-2.298 2.298 2.293 2.293 0 0 1-2.297-2.298v-2.297a2.293 2.293 0 0 1 2.297-2.298m0 9.19a2.293 2.293 0 0 1 2.298 2.298v4.595a2.293 2.293 0 0 1-2.298 2.297 2.293 2.293 0 0 1-2.297-2.297V28.34a2.293 2.293 0 0 1 2.297-2.298M701.136 235.117a4.585 4.585 0 0 1-4.595-4.595v-2.298c0-1.38.608-2.605 1.565-3.446a4.57 4.57 0 0 1-1.565-3.446v-4.595a4.584 4.584 0 0 1 4.595-4.595 4.584 4.584 0 0 1 4.595 4.595v4.595c0 1.38-.608 2.605-1.565 3.446a4.57 4.57 0 0 1 1.565 3.446v2.298a4.585 4.585 0 0 1-4.595 4.595m0-2.298a2.29 2.29 0 0 0 2.298-2.297v-2.298a2.29 2.29 0 0 0-2.298-2.297 2.29 2.29 0 0 0-2.297 2.297v2.298a2.29 2.29 0 0 0 2.297 2.297m0-9.19a2.293 2.293 0 0 0 2.298-2.297v-4.595a2.293 2.293 0 0 0-2.298-2.298 2.29 2.29 0 0 0-2.297 2.298v4.595a2.29 2.29 0 0 0 2.297 2.297M700.907 203.41c0 2.538-1.313 4.136-3.217 4.136-1.903 0-3.446-2.058-3.446-4.595.008-.22.004-.435 0-.646 0-1.677.615-3.304 1.149-4.825.549-1.565 1.34-2.937 2.082-4.337 1.149-2.168 3.662-6.275 3.662-6.275s2.512 4.107 3.661 6.275c.742 1.4 1.534 2.772 2.082 4.337.534 1.521 1.149 3.148 1.149 4.825q-.008.335 0 .646c0 2.537-1.543 4.595-3.446 4.595s-3.217-1.598-3.217-4.136c0-.459-.459-.459-.459 0M590.397 29.718c0-5.075-2.627-8.27-6.433-8.27s-6.893 4.114-6.893 9.19c.016.438.009.868 0 1.292 0 3.353 1.23 6.606 2.298 9.65 1.098 3.129 2.68 5.872 4.164 8.672 2.298 4.338 7.323 12.55 7.323 12.55s5.026-8.212 7.324-12.55c1.483-2.8 3.066-5.543 4.164-8.673 1.067-3.043 2.297-6.296 2.297-9.65-.013-.447-.008-.88 0-1.292 0-5.075-3.086-9.19-6.892-9.19s-6.433 3.196-6.433 8.271c0 .92-.919.92-.919 0M673.108 29.718c0-5.075-2.627-8.27-6.433-8.27s-6.893 4.114-6.893 9.19c.016.438.009.868 0 1.292 0 3.353 1.23 6.606 2.298 9.65 1.097 3.129 2.68 5.872 4.164 8.672 2.298 4.338 7.323 12.55 7.323 12.55s5.026-8.212 7.324-12.55c1.483-2.8 3.066-5.543 4.164-8.673 1.067-3.043 2.297-6.296 2.297-9.65-.013-.447-.008-.88 0-1.292 0-5.075-3.086-9.19-6.892-9.19s-6.433 3.196-6.433 8.271c0 .92-.919.92-.919 0M631.751 71.075c0-5.076-2.626-8.271-6.433-8.271s-6.892 4.114-6.892 9.19c.016.439.008.869 0 1.292 0 3.354 1.23 6.606 2.297 9.65 1.098 3.13 2.681 5.872 4.165 8.673 2.298 4.337 7.323 12.55 7.323 12.55s5.025-8.213 7.323-12.55c1.484-2.8 3.067-5.544 4.164-8.673 1.068-3.044 2.298-6.296 2.298-9.65-.013-.448-.009-.88 0-1.292 0-5.076-3.086-9.19-6.893-9.19s-6.433 3.195-6.433 8.27c0 .92-.919.92-.919 0M590.397 112.428c0-5.075-2.627-8.271-6.433-8.271s-6.893 4.115-6.893 9.19c.016.439.009.869 0 1.293 0 3.353 1.23 6.606 2.298 9.649 1.098 3.13 2.68 5.873 4.164 8.673 2.298 4.338 7.323 12.55 7.323 12.55s5.026-8.212 7.324-12.55c1.483-2.8 3.066-5.543 4.164-8.673 1.067-3.043 2.297-6.296 2.297-9.649a27 27 0 0 1 0-1.293c0-5.075-3.086-9.19-6.892-9.19s-6.433 3.196-6.433 8.271c0 .919-.919.919-.919 0M673.108 112.428c0-5.075-2.627-8.271-6.433-8.271s-6.893 4.115-6.893 9.19c.016.439.009.869 0 1.293 0 3.353 1.23 6.606 2.298 9.649 1.097 3.13 2.68 5.873 4.164 8.673 2.298 4.338 7.323 12.55 7.323 12.55s5.026-8.212 7.324-12.55c1.483-2.8 3.066-5.543 4.164-8.673 1.067-3.043 2.297-6.296 2.297-9.649a27 27 0 0 1 0-1.293c0-5.075-3.086-9.19-6.892-9.19s-6.433 3.196-6.433 8.271c0 .919-.919.919-.919 0M631.751 178.598c0 5.075-2.626 8.271-6.433 8.271s-6.892-4.115-6.892-9.19c.016-.439.008-.869 0-1.293 0-3.353 1.23-6.606 2.297-9.649 1.098-3.13 2.681-5.873 4.165-8.673 2.298-4.338 7.323-12.55 7.323-12.55s5.025 8.212 7.323 12.55c1.484 2.8 3.067 5.543 4.164 8.673 1.068 3.043 2.298 6.296 2.298 9.649-.013.448-.009.88 0 1.293 0 5.075-3.086 9.19-6.893 9.19s-6.433-3.196-6.433-8.271c0-.919-.919-.919-.919 0M590.397 219.952c0 5.076-2.627 8.271-6.433 8.271s-6.893-4.114-6.893-9.19a22 22 0 0 0 0-1.292c0-3.354 1.23-6.606 2.298-9.65 1.098-3.129 2.68-5.872 4.164-8.673 2.298-4.337 7.323-12.55 7.323-12.55s5.026 8.213 7.324 12.55c1.483 2.801 3.066 5.544 4.164 8.673 1.067 3.044 2.297 6.296 2.297 9.65-.013.448-.008.88 0 1.292 0 5.076-3.086 9.19-6.892 9.19s-6.433-3.195-6.433-8.271c0-.919-.919-.919-.919 0M673.108 219.952c0 5.076-2.627 8.271-6.433 8.271s-6.893-4.114-6.893-9.19a22 22 0 0 0 0-1.292c0-3.354 1.23-6.606 2.298-9.65 1.097-3.129 2.68-5.872 4.164-8.673 2.298-4.337 7.323-12.55 7.323-12.55s5.026 8.213 7.324 12.55c1.483 2.801 3.066 5.544 4.164 8.673 1.067 3.044 2.297 6.296 2.297 9.65-.013.448-.008.88 0 1.292 0 5.076-3.086 9.19-6.892 9.19s-6.433-3.195-6.433-8.271c0-.919-.919-.919-.919 0M563.056 46.26c0-2.538-1.313-4.136-3.216-4.136s-3.446 2.057-3.446 4.595c.008.22.004.434 0 .646 0 1.677.615 3.303 1.148 4.825.549 1.565 1.341 2.936 2.082 4.337 1.149 2.168 3.662 6.275 3.662 6.275s2.513-4.107 3.662-6.276c.742-1.4 1.533-2.771 2.082-4.336.534-1.522 1.149-3.148 1.149-4.825q-.009-.337 0-.646c0-2.538-1.543-4.595-3.447-4.595-1.903 0-3.216 1.598-3.216 4.136 0 .459-.46.459-.46 0"/><path fill="#fff" stroke="#000" d="M822.241 1H684.799c-7.6 0-13.76 6.16-13.76 13.76v220.152c0 7.599 6.16 13.759 13.76 13.759h137.442c7.599 0 13.759-6.16 13.759-13.759V14.76C836 7.16 829.84 1 822.241 1Z"/><path fill="#f55" d="m677.701 14.556-2.298 3.216v3.217l2.298-3.217v19.759h2.297V14.556zM686.892 14.556a4.585 4.585 0 0 0-4.595 4.595v13.785a4.585 4.585 0 0 0 4.595 4.595 4.585 4.585 0 0 0 4.595-4.595V19.15a4.585 4.585 0 0 0-4.595-4.595m0 2.297a2.29 2.29 0 0 1 2.297 2.298v13.785a2.29 2.29 0 0 1-2.297 2.297 2.293 2.293 0 0 1-2.298-2.297V19.15a2.293 2.293 0 0 1 2.298-2.298M829.337 235.116l2.298-3.216v-3.217l-2.298 3.217v-19.759h-2.297v22.975zM820.147 235.116a4.584 4.584 0 0 0 4.595-4.595v-13.785a4.585 4.585 0 0 0-4.595-4.595 4.586 4.586 0 0 0-4.595 4.595v13.785a4.585 4.585 0 0 0 4.595 4.595m0-2.297a2.29 2.29 0 0 1-2.297-2.298v-13.785a2.29 2.29 0 0 1 2.297-2.297 2.29 2.29 0 0 1 2.298 2.297v13.785a2.293 2.293 0 0 1-2.298 2.298M712.164 21.447s2.757 6.893 5.973 11.488c3.217 4.595 7.812 9.19 7.812 9.19s-4.595 4.595-7.812 9.19c-3.216 4.595-5.973 11.487-5.973 11.487s-2.757-6.892-5.974-11.487-7.811-9.19-7.811-9.19 4.595-4.595 7.811-9.19 5.974-11.488 5.974-11.488M794.876 21.447s2.757 6.893 5.973 11.488c3.217 4.595 7.812 9.19 7.812 9.19s-4.595 4.595-7.812 9.19c-3.216 4.595-5.973 11.487-5.973 11.487s-2.757-6.892-5.974-11.487-7.811-9.19-7.811-9.19 4.595-4.595 7.811-9.19 5.974-11.488 5.974-11.488M753.519 49.018s2.757 6.892 5.974 11.487 7.811 9.19 7.811 9.19-4.595 4.595-7.811 9.19-5.974 11.488-5.974 11.488-2.757-6.893-5.973-11.488c-3.217-4.595-7.812-9.19-7.812-9.19s4.595-4.595 7.812-9.19c3.216-4.595 5.973-11.487 5.973-11.487M712.164 76.587s2.757 6.892 5.973 11.487c3.217 4.596 7.812 9.19 7.812 9.19s-4.595 4.596-7.812 9.191c-3.216 4.595-5.973 11.487-5.973 11.487s-2.757-6.892-5.974-11.487-7.811-9.19-7.811-9.19 4.595-4.596 7.811-9.19c3.217-4.596 5.974-11.488 5.974-11.488M794.876 76.587s2.757 6.892 5.973 11.487c3.217 4.596 7.812 9.19 7.812 9.19s-4.595 4.596-7.812 9.191c-3.216 4.595-5.973 11.487-5.973 11.487s-2.757-6.892-5.974-11.487-7.811-9.19-7.811-9.19 4.595-4.596 7.811-9.19c3.217-4.596 5.974-11.488 5.974-11.488M712.164 131.728s2.757 6.892 5.973 11.487c3.217 4.595 7.812 9.19 7.812 9.19s-4.595 4.595-7.812 9.19c-3.216 4.595-5.973 11.488-5.973 11.488s-2.757-6.893-5.974-11.488-7.811-9.19-7.811-9.19 4.595-4.595 7.811-9.19 5.974-11.487 5.974-11.487M794.876 131.728s2.757 6.892 5.973 11.487c3.217 4.595 7.812 9.19 7.812 9.19s-4.595 4.595-7.812 9.19c-3.216 4.595-5.973 11.488-5.973 11.488s-2.757-6.893-5.974-11.488-7.811-9.19-7.811-9.19 4.595-4.595 7.811-9.19 5.974-11.487 5.974-11.487M753.519 159.298s2.757 6.892 5.974 11.487 7.811 9.19 7.811 9.19-4.595 4.595-7.811 9.19-5.974 11.488-5.974 11.488-2.757-6.893-5.973-11.488c-3.217-4.595-7.812-9.19-7.812-9.19s4.595-4.595 7.812-9.19c3.216-4.595 5.973-11.487 5.973-11.487M712.164 186.868s2.757 6.893 5.973 11.488c3.217 4.595 7.812 9.19 7.812 9.19s-4.595 4.595-7.812 9.19c-3.216 4.595-5.973 11.487-5.973 11.487s-2.757-6.892-5.974-11.487-7.811-9.19-7.811-9.19 4.595-4.595 7.811-9.19 5.974-11.488 5.974-11.488M794.876 186.868s2.757 6.893 5.973 11.488c3.217 4.595 7.812 9.19 7.812 9.19s-4.595 4.595-7.812 9.19c-3.216 4.595-5.973 11.487-5.973 11.487s-2.757-6.892-5.974-11.487-7.811-9.19-7.811-9.19 4.595-4.595 7.811-9.19 5.974-11.488 5.974-11.488M684.595 42.124s1.378 3.446 2.986 5.744 3.906 4.595 3.906 4.595-2.297 2.297-3.906 4.595-2.986 5.744-2.986 5.744-1.379-3.447-2.987-5.744c-1.608-2.298-3.906-4.595-3.906-4.595s2.298-2.298 3.906-4.595c1.608-2.298 2.987-5.744 2.987-5.744M822.445 186.868s1.379 3.446 2.987 5.744 3.906 4.595 3.906 4.595-2.298 2.297-3.906 4.595-2.987 5.744-2.987 5.744-1.378-3.447-2.987-5.744c-1.608-2.298-3.905-4.595-3.905-4.595s2.297-2.298 3.905-4.595c1.609-2.298 2.987-5.744 2.987-5.744"/></svg>