<svg width="837" height="250" viewBox="0 0 837 250" fill="none" xmlns="http://www.w3.org/2000/svg">
<path d="M152.202 1H14.7595C7.16035 1 1 7.16035 1 14.7595V234.912C1 242.511 7.16035 248.671 14.7595 248.671H152.202C159.801 248.671 165.961 242.511 165.961 234.912V14.7595C165.961 7.16035 159.801 1 152.202 1Z" fill="white" stroke="black"/>
<path d="M13.407 14.5557L9.27148 37.5307H11.569L12.6459 31.5572H16.4656L17.5425 37.5307H19.84L15.7045 14.5557H13.407ZM14.5558 20.9456L16.0491 29.2597H13.0624L14.5558 20.9456Z" fill="black"/>
<path d="M151.258 235.117L147.122 212.142H149.42L150.497 218.115H154.316L155.393 212.142H157.691L153.555 235.117H151.258ZM152.406 228.727L153.9 220.413H150.913L152.406 228.727Z" fill="black"/>
<path d="M85.7779 129.889C86.2374 131.727 88.0754 136.322 91.2919 136.322C95.4274 136.322 97.2654 132.646 97.2654 128.051C97.2654 124.835 96.0804 122.715 94.9679 120.24C93.7834 117.604 92.0366 115.251 90.3729 112.888C88.2384 109.856 83.4804 104.157 83.4804 104.157C83.4804 104.157 78.7224 109.856 76.5878 112.888C74.9241 115.251 73.1774 117.604 71.9928 120.24C70.8803 122.715 69.6953 124.835 69.6953 128.051C69.6953 132.646 71.5333 136.322 75.6688 136.322C78.8853 136.322 80.7234 131.727 81.1829 129.889C81.6424 129.43 81.6424 129.889 81.6424 130.349C81.1829 134.025 81.1829 134.944 80.7234 137.701C80.2639 140.458 78.8853 145.512 78.8853 145.512C81.1829 144.593 85.7779 144.593 88.0754 145.512C88.0754 145.512 86.6969 140.458 86.2374 137.701C85.7779 134.944 85.7779 134.025 85.3184 130.349C85.3184 129.889 85.3184 129.43 85.7779 129.889Z" fill="black"/>
<path d="M15.7044 54.9901C15.9341 55.9091 16.8531 58.2066 18.4614 58.2066C20.5291 58.2066 21.4481 56.3686 21.4481 54.0711C21.4481 52.4628 20.8556 51.4031 20.2994 50.1653C19.7071 48.8473 18.8337 47.6708 18.0019 46.4893C16.9346 44.9734 14.5556 42.124 14.5556 42.124C14.5556 42.124 12.1766 44.9734 11.1093 46.4893C10.2775 47.6708 9.40411 48.8473 8.81184 50.1653C8.2556 51.4031 7.66309 52.4628 7.66309 54.0711C7.66309 56.3686 8.58209 58.2066 10.6498 58.2066C12.2581 58.2066 13.1771 55.9091 13.4069 54.9901C13.6366 54.7603 13.6366 54.9901 13.6366 55.2198C13.4069 57.0578 13.4069 57.5173 13.1771 58.8958C12.9474 60.2743 12.2581 62.8016 12.2581 62.8016C13.4069 62.3421 15.7044 62.3421 16.8531 62.8016C16.8531 62.8016 16.1639 60.2743 15.9341 58.8958C15.7044 57.5173 15.7044 57.0578 15.4746 55.2198C15.4746 54.9901 15.4746 54.7603 15.7044 54.9901Z" fill="black"/>
<path d="M153.555 194.68C153.785 193.761 154.704 191.463 156.312 191.463C158.38 191.463 159.299 193.301 159.299 195.599C159.299 197.207 158.706 198.267 158.15 199.504C157.558 200.822 156.684 201.999 155.852 203.18C154.785 204.696 152.406 207.546 152.406 207.546C152.406 207.546 150.027 204.696 148.96 203.18C148.128 201.999 147.255 200.822 146.662 199.504C146.106 198.267 145.514 197.207 145.514 195.599C145.514 193.301 146.433 191.463 148.5 191.463C150.109 191.463 151.028 193.761 151.257 194.68C151.487 194.909 151.487 194.68 151.487 194.45C151.257 192.612 151.257 192.152 151.028 190.774C150.798 189.395 150.109 186.868 150.109 186.868C151.257 187.328 153.555 187.328 154.704 186.868C154.704 186.868 154.014 189.395 153.785 190.774C153.555 192.152 153.555 192.612 153.325 194.45C153.325 194.68 153.325 194.909 153.555 194.68Z" fill="black"/>
<path d="M152.202 1H14.7595C7.16035 1 1 7.16035 1 14.7595V234.912C1 242.511 7.16035 248.671 14.7595 248.671H152.202C159.801 248.671 165.961 242.511 165.961 234.912V14.7595C165.961 7.16035 159.801 1 152.202 1Z" fill="white" stroke="black"/>
<path d="M13.407 14.5557L9.27148 37.5307H11.569L12.6459 31.5572H16.4656L17.5425 37.5307H19.84L15.7045 14.5557H13.407ZM14.5558 20.9456L16.0491 29.2597H13.0624L14.5558 20.9456Z" fill="black"/>
<path d="M151.258 235.117L147.122 212.142H149.42L150.497 218.115H154.316L155.393 212.142H157.691L153.555 235.117H151.258ZM152.406 228.727L153.9 220.413H150.913L152.406 228.727Z" fill="black"/>
<path d="M85.7779 129.889C86.2374 131.727 88.0754 136.322 91.2919 136.322C95.4274 136.322 97.2654 132.646 97.2654 128.051C97.2654 124.835 96.0804 122.715 94.9679 120.24C93.7834 117.604 92.0366 115.251 90.3729 112.888C88.2384 109.856 83.4804 104.157 83.4804 104.157C83.4804 104.157 78.7224 109.856 76.5878 112.888C74.9241 115.251 73.1774 117.604 71.9928 120.24C70.8803 122.715 69.6953 124.835 69.6953 128.051C69.6953 132.646 71.5333 136.322 75.6688 136.322C78.8853 136.322 80.7234 131.727 81.1829 129.889C81.6424 129.43 81.6424 129.889 81.6424 130.349C81.1829 134.025 81.1829 134.944 80.7234 137.701C80.2639 140.458 78.8853 145.512 78.8853 145.512C81.1829 144.593 85.7779 144.593 88.0754 145.512C88.0754 145.512 86.6969 140.458 86.2374 137.701C85.7779 134.944 85.7779 134.025 85.3184 130.349C85.3184 129.889 85.3184 129.43 85.7779 129.889Z" fill="black"/>
<path d="M15.7044 54.9901C15.9341 55.9091 16.8531 58.2066 18.4614 58.2066C20.5291 58.2066 21.4481 56.3686 21.4481 54.0711C21.4481 52.4628 20.8556 51.4031 20.2994 50.1653C19.7071 48.8473 18.8337 47.6708 18.0019 46.4893C16.9346 44.9734 14.5556 42.124 14.5556 42.124C14.5556 42.124 12.1766 44.9734 11.1093 46.4893C10.2775 47.6708 9.40411 48.8473 8.81184 50.1653C8.2556 51.4031 7.66309 52.4628 7.66309 54.0711C7.66309 56.3686 8.58209 58.2066 10.6498 58.2066C12.2581 58.2066 13.1771 55.9091 13.4069 54.9901C13.6366 54.7603 13.6366 54.9901 13.6366 55.2198C13.4069 57.0578 13.4069 57.5173 13.1771 58.8958C12.9474 60.2743 12.2581 62.8016 12.2581 62.8016C13.4069 62.3421 15.7044 62.3421 16.8531 62.8016C16.8531 62.8016 16.1639 60.2743 15.9341 58.8958C15.7044 57.5173 15.7044 57.0578 15.4746 55.2198C15.4746 54.9901 15.4746 54.7603 15.7044 54.9901Z" fill="black"/>
<path d="M153.555 194.68C153.785 193.761 154.704 191.463 156.312 191.463C158.38 191.463 159.299 193.301 159.299 195.599C159.299 197.207 158.706 198.267 158.15 199.504C157.558 200.822 156.684 201.999 155.852 203.18C154.785 204.696 152.406 207.546 152.406 207.546C152.406 207.546 150.027 204.696 148.96 203.18C148.128 201.999 147.255 200.822 146.662 199.504C146.106 198.267 145.514 197.207 145.514 195.599C145.514 193.301 146.433 191.463 148.5 191.463C150.109 191.463 151.028 193.761 151.257 194.68C151.487 194.909 151.487 194.68 151.487 194.45C151.257 192.612 151.257 192.152 151.028 190.774C150.798 189.395 150.109 186.868 150.109 186.868C151.257 187.328 153.555 187.328 154.704 186.868C154.704 186.868 154.014 189.395 153.785 190.774C153.555 192.152 153.555 192.612 153.325 194.45C153.325 194.68 153.325 194.909 153.555 194.68Z" fill="black"/>
<path d="M284.997 1L147.555 1C139.956 1 133.796 7.16035 133.796 14.7595V234.912C133.796 242.511 139.956 248.671 147.555 248.671H284.997C292.597 248.671 298.757 242.511 298.757 234.912V14.7595C298.757 7.16035 292.597 1 284.997 1Z" fill="white" stroke="black"/>
<path d="M147.352 14.5557C144.806 14.5557 142.757 16.605 142.757 19.1507V21.4482H145.054V19.1507C145.054 17.8779 146.079 16.8532 147.352 16.8532C148.625 16.8532 149.649 17.8779 149.649 19.1507V21.4482C149.649 21.9663 149.477 22.8568 149.19 23.2403C147.139 27.4236 144.926 31.1109 142.757 35.2332V37.5307H147.352H151.947V35.2332V32.9357H149.649V35.2332H147.352H145.284C147.347 31.5961 149.06 28.078 151.028 24.389C151.602 23.622 151.947 22.4845 151.947 21.4482V19.1507C151.947 16.605 149.897 14.5557 147.352 14.5557Z" fill="black"/>
<path d="M285.202 235.117C287.748 235.117 289.797 233.067 289.797 230.522V228.224H287.5V230.522C287.5 231.794 286.475 232.819 285.202 232.819C283.93 232.819 282.905 231.794 282.905 230.522V228.224C282.905 227.706 283.077 226.816 283.364 226.432C285.415 222.249 287.628 218.561 289.797 214.439V212.142H285.202H280.607V214.439V216.737H282.905V214.439H285.202H287.27C285.208 218.076 283.494 221.594 281.526 225.283C280.952 226.05 280.607 227.188 280.607 228.224V230.522C280.607 233.067 282.657 235.117 285.202 235.117Z" fill="black"/>
<path d="M148.5 54.9901C148.96 55.9091 150.109 57.2876 151.257 57.2876C153.325 57.2876 154.244 55.4496 154.244 53.1521C154.244 50.8546 153.325 48.7868 151.257 48.7868C150.109 48.7868 149.419 49.9356 148.73 50.6248C148.5 50.8546 148.271 50.6248 148.5 50.3951C149.19 49.7058 150.338 47.8678 150.338 46.2595C150.338 44.4215 149.19 42.124 147.352 42.124C145.514 42.124 144.365 44.4215 144.365 46.2595C144.365 47.8678 145.514 49.7058 146.203 50.3951C146.433 50.6248 146.203 50.8546 145.973 50.6248C145.284 49.9356 144.594 48.7868 143.446 48.7868C141.378 48.7868 140.459 50.8546 140.459 53.1521C140.459 55.4496 141.378 57.2876 143.446 57.2876C144.594 57.2876 145.743 55.9091 146.203 54.9901C146.433 54.7603 146.433 54.9901 146.433 55.2198C146.203 57.0578 146.203 57.5173 145.973 58.8958C145.743 60.2743 145.054 62.8016 145.054 62.8016C146.203 62.3421 148.5 62.3421 149.649 62.8016C149.649 62.8016 148.96 60.2743 148.73 58.8958C148.5 57.5173 148.5 57.0578 148.271 55.2198C148.271 54.9901 148.271 54.7603 148.5 54.9901Z" fill="black"/>
<path d="M286.351 194.68C286.81 193.761 287.959 192.382 289.108 192.382C291.176 192.382 292.095 194.22 292.095 196.518C292.095 198.815 291.176 200.883 289.108 200.883C287.959 200.883 287.27 199.734 286.581 199.045C286.351 198.815 286.121 199.045 286.351 199.275C287.04 199.964 288.189 201.802 288.189 203.41C288.189 205.248 287.04 207.546 285.202 207.546C283.364 207.546 282.215 205.248 282.215 203.41C282.215 201.802 283.364 199.964 284.053 199.275C284.283 199.045 284.053 198.815 283.824 199.045C283.134 199.734 282.445 200.883 281.296 200.883C279.229 200.883 278.31 198.815 278.31 196.518C278.31 194.22 279.229 192.382 281.296 192.382C282.445 192.382 283.594 193.761 284.053 194.68C284.283 194.909 284.283 194.68 284.283 194.45C284.053 192.612 284.053 192.152 283.824 190.774C283.594 189.395 282.905 186.868 282.905 186.868C284.053 187.328 286.351 187.328 287.5 186.868C287.5 186.868 286.81 189.395 286.581 190.774C286.351 192.152 286.351 192.612 286.121 194.45C286.121 194.68 286.121 194.909 286.351 194.68Z" fill="black"/>
<path d="M218.575 47.1794C219.494 49.0174 221.791 51.7744 224.089 51.7744C228.224 51.7744 230.062 48.0984 230.062 43.5033C230.062 38.9083 228.224 34.7728 224.089 34.7728C221.791 34.7728 220.413 37.0703 219.034 38.4488C218.575 38.9083 218.115 38.4488 218.575 37.9893C219.953 36.6108 222.251 32.9348 222.251 29.7183C222.251 26.0423 219.953 21.4473 216.277 21.4473C212.601 21.4473 210.304 26.0423 210.304 29.7183C210.304 32.9348 212.601 36.6108 213.98 37.9893C214.439 38.4488 213.98 38.9083 213.52 38.4488C212.142 37.0703 210.763 34.7728 208.466 34.7728C204.33 34.7728 202.492 38.9083 202.492 43.5033C202.492 48.0984 204.33 51.7744 208.466 51.7744C210.763 51.7744 213.061 49.0174 213.98 47.1794C214.439 46.7199 214.439 47.1794 214.439 47.6389C213.98 51.3149 213.98 52.2339 213.52 54.9909C213.061 57.7479 211.682 62.8024 211.682 62.8024C213.98 61.8834 218.575 61.8834 220.872 62.8024C220.872 62.8024 219.494 57.7479 219.034 54.9909C218.575 52.2339 218.575 51.3149 218.115 47.6389C218.115 47.1794 218.115 46.7199 218.575 47.1794Z" fill="black"/>
<path d="M218.575 202.491C219.494 200.653 221.791 197.896 224.089 197.896C228.224 197.896 230.062 201.572 230.062 206.167C230.062 210.762 228.224 214.898 224.089 214.898C221.791 214.898 220.413 212.6 219.034 211.222C218.575 210.762 218.115 211.222 218.575 211.681C219.953 213.06 222.251 216.736 222.251 219.952C222.251 223.628 219.953 228.223 216.277 228.223C212.601 228.223 210.304 223.628 210.304 219.952C210.304 216.736 212.601 213.06 213.98 211.681C214.439 211.222 213.98 210.762 213.52 211.222C212.142 212.6 210.763 214.898 208.466 214.898C204.33 214.898 202.492 210.762 202.492 206.167C202.492 201.572 204.33 197.896 208.466 197.896C210.763 197.896 213.061 200.653 213.98 202.491C214.439 202.951 214.439 202.491 214.439 202.032C213.98 198.356 213.98 197.437 213.52 194.68C213.061 191.923 211.682 186.868 211.682 186.868C213.98 187.787 218.575 187.787 220.872 186.868C220.872 186.868 219.494 191.923 219.034 194.68C218.575 197.437 218.575 198.356 218.115 202.032C218.115 202.491 218.115 202.951 218.575 202.491Z" fill="black"/>
<path d="M428.402 1H290.778C283.169 1 277 7.16853 277 14.7778V235.222C277 242.831 283.169 249 290.778 249H428.402C436.011 249 442.18 242.831 442.18 235.222V14.7778C442.18 7.16853 436.011 1 428.402 1Z" fill="white" stroke="black"/>
<path d="M290.572 14.5723C288.023 14.5723 285.971 16.6244 285.971 19.1734V21.4739H288.271V19.1734C288.271 17.8989 289.297 16.8728 290.572 16.8728C291.846 16.8728 292.872 17.8989 292.872 19.1734V21.4739C292.872 22.7484 291.846 23.7745 290.572 23.7745H288.271V26.075H290.572C291.846 26.075 292.872 27.1011 292.872 28.3756V32.9767C292.872 34.2512 291.846 35.2773 290.572 35.2773C289.297 35.2773 288.271 34.2512 288.271 32.9767V30.6762H285.971V32.9767C285.971 35.5257 288.023 37.5778 290.572 37.5778C293.121 37.5778 295.173 35.5257 295.173 32.9767V28.3756C295.173 26.9936 294.564 25.7668 293.606 24.9248C294.564 24.0828 295.173 22.8559 295.173 21.4739V19.1734C295.173 16.6244 293.121 14.5723 290.572 14.5723Z" fill="black"/>
<path d="M428.605 235.426C431.154 235.426 433.206 233.374 433.206 230.825V228.525H430.906V230.825C430.906 232.1 429.88 233.126 428.605 233.126C427.331 233.126 426.304 232.1 426.304 230.825V228.525C426.304 227.25 427.331 226.224 428.605 226.224H430.906V223.924H428.605C427.331 223.924 426.304 222.898 426.304 221.623V217.022C426.304 215.748 427.331 214.721 428.605 214.721C429.88 214.721 430.906 215.748 430.906 217.022V219.323H433.206V217.022C433.206 214.473 431.154 212.421 428.605 212.421C426.056 212.421 424.004 214.473 424.004 217.022V221.623C424.004 223.005 424.613 224.232 425.571 225.074C424.613 225.916 424.004 227.143 424.004 228.525V230.825C424.004 233.374 426.056 235.426 428.605 235.426Z" fill="black"/>
<path d="M361.889 47.2408C362.809 49.0813 365.11 51.842 367.41 51.842C371.551 51.842 373.392 48.1611 373.392 43.56C373.392 38.9588 371.551 34.8178 367.41 34.8178C365.11 34.8178 363.729 37.1184 362.349 38.4987C361.889 38.9588 361.429 38.4987 361.889 38.0386C363.269 36.6583 365.57 32.9774 365.57 29.7566C365.57 26.0757 363.269 21.4746 359.588 21.4746C355.908 21.4746 353.607 26.0757 353.607 29.7566C353.607 32.9774 355.908 36.6583 357.288 38.0386C357.748 38.4987 357.288 38.9588 356.828 38.4987C355.447 37.1184 354.067 34.8178 351.767 34.8178C347.626 34.8178 345.785 38.9588 345.785 43.56C345.785 48.1611 347.626 51.842 351.767 51.842C354.067 51.842 356.368 49.0813 357.288 47.2408C357.748 46.7807 357.748 47.2408 357.748 47.701C357.288 51.3818 357.288 52.3021 356.828 55.0627C356.368 57.8234 354.987 62.8846 354.987 62.8846C357.288 61.9644 361.889 61.9644 364.19 62.8846C364.19 62.8846 362.809 57.8234 362.349 55.0627C361.889 52.3021 361.889 51.3818 361.429 47.701C361.429 47.2408 361.429 46.7807 361.889 47.2408Z" fill="black"/>
<path d="M361.889 130.061C362.809 131.902 365.11 134.662 367.41 134.662C371.551 134.662 373.392 130.981 373.392 126.38C373.392 121.779 371.551 117.638 367.41 117.638C365.11 117.638 363.729 119.939 362.349 121.319C361.889 121.779 361.429 121.319 361.889 120.859C363.269 119.479 365.57 115.798 365.57 112.577C365.57 108.896 363.269 104.295 359.588 104.295C355.908 104.295 353.607 108.896 353.607 112.577C353.607 115.798 355.908 119.479 357.288 120.859C357.748 121.319 357.288 121.779 356.828 121.319C355.447 119.939 354.067 117.638 351.767 117.638C347.626 117.638 345.785 121.779 345.785 126.38C345.785 130.981 347.626 134.662 351.767 134.662C354.067 134.662 356.368 131.902 357.288 130.061C357.748 129.601 357.748 130.061 357.748 130.521C357.288 134.202 357.288 135.122 356.828 137.883C356.368 140.644 354.987 145.705 354.987 145.705C357.288 144.785 361.889 144.785 364.19 145.705C364.19 145.705 362.809 140.644 362.349 137.883C361.889 135.122 361.889 134.202 361.429 130.521C361.429 130.061 361.429 129.601 361.889 130.061Z" fill="black"/>
<path d="M361.889 202.759C362.809 200.919 365.11 198.158 367.41 198.158C371.551 198.158 373.392 201.839 373.392 206.44C373.392 211.041 371.551 215.182 367.41 215.182C365.11 215.182 363.729 212.881 362.349 211.501C361.889 211.041 361.429 211.501 361.889 211.961C363.269 213.342 365.57 217.022 365.57 220.243C365.57 223.924 363.269 228.525 359.588 228.525C355.908 228.525 353.607 223.924 353.607 220.243C353.607 217.022 355.908 213.342 357.288 211.961C357.748 211.501 357.288 211.041 356.828 211.501C355.447 212.881 354.067 215.182 351.767 215.182C347.626 215.182 345.785 211.041 345.785 206.44C345.785 201.839 347.626 198.158 351.767 198.158C354.067 198.158 356.368 200.919 357.288 202.759C357.748 203.219 357.748 202.759 357.748 202.299C357.288 198.618 357.288 197.698 356.828 194.937C356.368 192.176 354.987 187.115 354.987 187.115C357.288 188.035 361.889 188.035 364.19 187.115C364.19 187.115 362.809 192.176 362.349 194.937C361.889 197.698 361.889 198.618 361.429 202.299C361.429 202.759 361.429 203.219 361.889 202.759Z" fill="black"/>
<path d="M291.722 55.0638C292.182 55.984 293.332 57.3643 294.483 57.3643C296.553 57.3643 297.473 55.5239 297.473 53.2233C297.473 50.9228 296.553 48.8523 294.483 48.8523C293.332 48.8523 292.642 50.0026 291.952 50.6927C291.722 50.9228 291.492 50.6927 291.722 50.4627C292.412 49.7725 293.562 47.9321 293.562 46.3217C293.562 44.4812 292.412 42.1807 290.572 42.1807C288.731 42.1807 287.581 44.4812 287.581 46.3217C287.581 47.9321 288.731 49.7725 289.421 50.4627C289.651 50.6927 289.421 50.9228 289.191 50.6927C288.501 50.0026 287.811 48.8523 286.661 48.8523C284.59 48.8523 283.67 50.9228 283.67 53.2233C283.67 55.5239 284.59 57.3643 286.661 57.3643C287.811 57.3643 288.961 55.984 289.421 55.0638C289.651 54.8337 289.651 55.0638 289.651 55.2938C289.421 57.1343 289.421 57.5944 289.191 58.9747C288.961 60.3551 288.271 62.8857 288.271 62.8857C289.421 62.4256 291.722 62.4256 292.872 62.8857C292.872 62.8857 292.182 60.3551 291.952 58.9747C291.722 57.5944 291.722 57.1343 291.492 55.2938C291.492 55.0638 291.492 54.8337 291.722 55.0638Z" fill="black"/>
<path d="M429.756 194.937C430.216 194.017 431.366 192.637 432.517 192.637C434.587 192.637 435.507 194.477 435.507 196.778C435.507 199.078 434.587 201.149 432.517 201.149C431.366 201.149 430.676 199.998 429.986 199.308C429.756 199.078 429.526 199.308 429.756 199.538C430.446 200.228 431.596 202.069 431.596 203.679C431.596 205.52 430.446 207.82 428.606 207.82C426.765 207.82 425.615 205.52 425.615 203.679C425.615 202.069 426.765 200.228 427.455 199.538C427.686 199.308 427.455 199.078 427.225 199.308C426.535 199.998 425.845 201.149 424.695 201.149C422.624 201.149 421.704 199.078 421.704 196.778C421.704 194.477 422.624 192.637 424.695 192.637C425.845 192.637 426.995 194.017 427.455 194.937C427.686 195.167 427.686 194.937 427.686 194.707C427.455 192.867 427.455 192.407 427.225 191.026C426.995 189.646 426.305 187.115 426.305 187.115C427.455 187.575 429.756 187.575 430.906 187.115C430.906 187.115 430.216 189.646 429.986 191.026C429.756 192.407 429.756 192.867 429.526 194.707C429.526 194.937 429.526 195.167 429.756 194.937Z" fill="black"/>
<path d="M566.298 1H428.856C421.257 1 415.097 7.16035 415.097 14.7595V234.912C415.097 242.511 421.257 248.671 428.856 248.671H566.298C573.897 248.671 580.058 242.511 580.058 234.912V14.7595C580.058 7.16035 573.897 1 566.298 1Z" fill="white" stroke="black"/>
<path d="M424.057 14.5557V21.4482V23.7457H428.652C429.924 23.7457 430.949 24.7704 430.949 26.0432V32.9357C430.949 34.2086 429.924 35.2332 428.652 35.2332C427.379 35.2332 426.354 34.2086 426.354 32.9357V30.6382H424.057V32.9357C424.057 35.4814 426.106 37.5307 428.652 37.5307C431.197 37.5307 433.247 35.4814 433.247 32.9357V26.0432C433.247 23.4976 431.197 21.4482 428.652 21.4482H426.354V16.8532H428.652H433.247V14.5557H428.652H426.354H424.057Z" fill="black"/>
<path d="M571.096 235.117V228.224V225.927H566.501C565.228 225.927 564.204 224.902 564.204 223.629V216.737C564.204 215.464 565.228 214.439 566.501 214.439C567.774 214.439 568.799 215.464 568.799 216.737V219.034H571.096V216.737C571.096 214.191 569.047 212.142 566.501 212.142C563.956 212.142 561.906 214.191 561.906 216.737V223.629C561.906 226.175 563.956 228.224 566.501 228.224H568.799V232.819H566.501H561.906V235.117H566.501H568.799H571.096Z" fill="black"/>
<path d="M458.524 47.1721C458.98 49.0119 460.819 53.6196 464.027 53.6196C468.162 53.6196 470.002 49.94 470.002 45.3486C470.002 42.1248 468.83 40.0082 467.706 37.5334C466.518 34.8958 464.776 32.535 463.115 30.1742C460.982 27.1458 456.228 21.4473 456.228 21.4473C456.228 21.4473 451.457 27.1458 449.325 30.1742C447.664 32.535 445.922 34.8958 444.733 37.5334C443.626 40.0082 442.438 42.1248 442.438 45.3486C442.438 49.94 444.277 53.6196 448.413 53.6196C451.62 53.6196 453.46 49.0119 453.932 47.1721C454.388 46.7162 454.388 47.1721 454.388 47.6443C453.932 51.3076 453.932 52.2357 453.46 54.9873C453.004 57.7551 451.62 62.8024 451.62 62.8024C453.932 61.8907 458.524 61.8907 460.819 62.8024C460.819 62.8024 459.435 57.7551 458.98 54.9873C458.524 52.2357 458.524 51.3076 458.068 47.6443C458.068 47.1721 458.068 46.7162 458.524 47.1721Z" fill="black"/>
<path d="M541.234 47.1721C541.69 49.0119 543.529 53.6196 546.737 53.6196C550.872 53.6196 552.712 49.94 552.712 45.3486C552.712 42.1248 551.54 40.0082 550.416 37.5334C549.228 34.8958 547.486 32.535 545.825 30.1742C543.692 27.1458 538.938 21.4473 538.938 21.4473C538.938 21.4473 534.167 27.1458 532.035 30.1742C530.374 32.535 528.632 34.8958 527.443 37.5334C526.336 40.0082 525.147 42.1248 525.147 45.3486C525.147 49.94 526.987 53.6196 531.123 53.6196C534.33 53.6196 536.17 49.0119 536.642 47.1721C537.098 46.7162 537.098 47.1721 537.098 47.6443C536.642 51.3076 536.642 52.2357 536.17 54.9873C535.714 57.7551 534.33 62.8024 534.33 62.8024C536.642 61.8907 541.234 61.8907 543.529 62.8024C543.529 62.8024 542.145 57.7551 541.69 54.9873C541.234 52.2357 541.234 51.3076 540.778 47.6443C540.778 47.1721 540.778 46.7162 541.234 47.1721Z" fill="black"/>
<path d="M499.878 129.882C500.334 131.722 502.174 136.33 505.381 136.33C509.517 136.33 511.357 132.65 511.357 128.059C511.357 124.835 510.184 122.718 509.061 120.243C507.872 117.606 506.13 115.245 504.47 112.884C502.337 109.856 497.582 104.157 497.582 104.157C497.582 104.157 492.812 109.856 490.679 112.884C489.018 115.245 487.276 117.606 486.088 120.243C484.981 122.718 483.792 124.835 483.792 128.059C483.792 132.65 485.632 136.33 489.767 136.33C492.975 136.33 494.815 131.722 495.287 129.882C495.743 129.426 495.743 129.882 495.743 130.354C495.287 134.018 495.287 134.946 494.815 137.697C494.359 140.465 492.975 145.512 492.975 145.512C495.287 144.601 499.878 144.601 502.174 145.512C502.174 145.512 500.79 140.465 500.334 137.697C499.878 134.946 499.878 134.018 499.422 130.354C499.422 129.882 499.422 129.426 499.878 129.882Z" fill="black"/>
<path d="M458.524 202.499C458.98 200.659 460.819 196.051 464.027 196.051C468.162 196.051 470.002 199.731 470.002 204.322C470.002 207.546 468.83 209.663 467.706 212.137C466.518 214.775 464.776 217.136 463.115 219.497C460.982 222.525 456.228 228.224 456.228 228.224C456.228 228.224 451.457 222.525 449.325 219.497C447.664 217.136 445.922 214.775 444.733 212.137C443.626 209.663 442.438 207.546 442.438 204.322C442.438 199.731 444.277 196.051 448.413 196.051C451.62 196.051 453.46 200.659 453.932 202.499C454.388 202.955 454.388 202.499 454.388 202.027C453.932 198.363 453.932 197.435 453.46 194.684C453.004 191.916 451.62 186.868 451.62 186.868C453.932 187.78 458.524 187.78 460.819 186.868C460.819 186.868 459.435 191.916 458.98 194.684C458.524 197.435 458.524 198.363 458.068 202.027C458.068 202.499 458.068 202.955 458.524 202.499Z" fill="black"/>
<path d="M541.234 202.499C541.69 200.659 543.529 196.051 546.737 196.051C550.872 196.051 552.712 199.731 552.712 204.322C552.712 207.546 551.54 209.663 550.416 212.137C549.228 214.775 547.486 217.136 545.825 219.497C543.692 222.525 538.938 228.224 538.938 228.224C538.938 228.224 534.167 222.525 532.035 219.497C530.374 217.136 528.632 214.775 527.443 212.137C526.336 209.663 525.147 207.546 525.147 204.322C525.147 199.731 526.987 196.051 531.123 196.051C534.33 196.051 536.17 200.659 536.642 202.499C537.098 202.955 537.098 202.499 537.098 202.027C536.642 198.363 536.642 197.435 536.17 194.684C535.714 191.916 534.33 186.868 534.33 186.868C536.642 187.78 541.234 187.78 543.529 186.868C543.529 186.868 542.145 191.916 541.69 194.684C541.234 197.435 541.234 198.363 540.778 202.027C540.778 202.499 540.778 202.955 541.234 202.499Z" fill="black"/>
<path d="M429.8 54.9901C430.03 55.9091 430.949 58.2066 432.557 58.2066C434.625 58.2066 435.544 56.3686 435.544 54.0711C435.544 52.4628 434.951 51.4031 434.395 50.1653C433.803 48.8473 432.929 47.6708 432.098 46.4893C431.03 44.9734 428.651 42.124 428.651 42.124C428.651 42.124 426.272 44.9734 425.205 46.4893C424.373 47.6708 423.5 48.8473 422.908 50.1653C422.351 51.4031 421.759 52.4628 421.759 54.0711C421.759 56.3686 422.678 58.2066 424.746 58.2066C426.354 58.2066 427.273 55.9091 427.503 54.9901C427.732 54.7603 427.732 54.9901 427.732 55.2198C427.503 57.0578 427.503 57.5173 427.273 58.8958C427.043 60.2743 426.354 62.8016 426.354 62.8016C427.503 62.3421 429.8 62.3421 430.949 62.8016C430.949 62.8016 430.26 60.2743 430.03 58.8958C429.8 57.5173 429.8 57.0578 429.57 55.2198C429.57 54.9901 429.57 54.7603 429.8 54.9901Z" fill="black"/>
<path d="M567.652 194.68C567.881 193.761 568.8 191.463 570.409 191.463C572.476 191.463 573.395 193.301 573.395 195.599C573.395 197.207 572.803 198.267 572.247 199.504C571.654 200.822 570.781 201.999 569.949 203.18C568.882 204.696 566.503 207.546 566.503 207.546C566.503 207.546 564.124 204.696 563.057 203.18C562.225 201.999 561.351 200.822 560.759 199.504C560.203 198.267 559.61 197.207 559.61 195.599C559.61 193.301 560.529 191.463 562.597 191.463C564.205 191.463 565.124 193.761 565.354 194.68C565.584 194.909 565.584 194.68 565.584 194.45C565.354 192.612 565.354 192.152 565.124 190.774C564.895 189.395 564.205 186.868 564.205 186.868C565.354 187.328 567.652 187.328 568.8 186.868C568.8 186.868 568.111 189.395 567.881 190.774C567.652 192.152 567.652 192.612 567.422 194.45C567.422 194.68 567.422 194.909 567.652 194.68Z" fill="black"/>
<path d="M700.932 1L563.49 1C555.891 1 549.73 7.16035 549.73 14.7595V234.912C549.73 242.511 555.891 248.671 563.49 248.671H700.932C708.531 248.671 714.692 242.511 714.692 234.912V14.7595C714.692 7.16035 708.531 1 700.932 1Z" fill="white" stroke="black"/>
<path d="M563.285 14.5557C560.74 14.5557 558.69 16.605 558.69 19.1507V21.4482C558.69 22.8283 559.298 24.0536 560.256 24.8945C559.298 25.7353 558.69 26.9606 558.69 28.3407V32.9357C558.69 35.4814 560.74 37.5307 563.285 37.5307C565.831 37.5307 567.88 35.4814 567.88 32.9357V28.3407C567.88 26.9606 567.273 25.7353 566.315 24.8945C567.273 24.0536 567.88 22.8283 567.88 21.4482V19.1507C567.88 16.605 565.831 14.5557 563.285 14.5557ZM563.285 16.8532C564.558 16.8532 565.583 17.8779 565.583 19.1507V21.4482C565.583 22.721 564.558 23.7457 563.285 23.7457C562.013 23.7457 560.988 22.721 560.988 21.4482V19.1507C560.988 17.8779 562.013 16.8532 563.285 16.8532ZM563.285 26.0432C564.558 26.0432 565.583 27.0679 565.583 28.3407V32.9357C565.583 34.2086 564.558 35.2332 563.285 35.2332C562.013 35.2332 560.988 34.2086 560.988 32.9357V28.3407C560.988 27.0679 562.013 26.0432 563.285 26.0432Z" fill="#FF5555"/>
<path d="M701.136 235.117C698.59 235.117 696.541 233.067 696.541 230.522V228.224C696.541 226.844 697.149 225.619 698.106 224.778C697.149 223.937 696.541 222.712 696.541 221.332V216.737C696.541 214.191 698.59 212.142 701.136 212.142C703.682 212.142 705.731 214.191 705.731 216.737V221.332C705.731 222.712 705.123 223.937 704.166 224.778C705.123 225.619 705.731 226.844 705.731 228.224V230.522C705.731 233.067 703.682 235.117 701.136 235.117ZM701.136 232.819C702.409 232.819 703.434 231.795 703.434 230.522V228.224C703.434 226.951 702.409 225.927 701.136 225.927C699.863 225.927 698.839 226.951 698.839 228.224V230.522C698.839 231.795 699.863 232.819 701.136 232.819ZM701.136 223.629C702.409 223.629 703.434 222.604 703.434 221.332V216.737C703.434 215.464 702.409 214.439 701.136 214.439C699.863 214.439 698.839 215.464 698.839 216.737V221.332C698.839 222.604 699.863 223.629 701.136 223.629Z" fill="#FF5555"/>
<path d="M700.907 203.41C700.907 205.948 699.594 207.546 697.69 207.546C695.787 207.546 694.244 205.488 694.244 202.951C694.252 202.731 694.248 202.516 694.244 202.305C694.244 200.628 694.859 199.001 695.393 197.48C695.942 195.915 696.733 194.543 697.475 193.143C698.624 190.975 701.137 186.868 701.137 186.868C701.137 186.868 703.649 190.975 704.798 193.143C705.54 194.543 706.332 195.915 706.88 197.48C707.414 199.001 708.029 200.628 708.029 202.305C708.023 202.528 708.025 202.744 708.029 202.951C708.029 205.488 706.486 207.546 704.583 207.546C702.68 207.546 701.366 205.948 701.366 203.41C701.366 202.951 700.907 202.951 700.907 203.41Z" fill="#FF5555"/>
<path d="M590.397 29.7183C590.397 24.6428 587.77 21.4473 583.964 21.4473C580.157 21.4473 577.071 25.5618 577.071 30.6373C577.087 31.0764 577.08 31.5063 577.071 31.9296C577.071 35.2833 578.301 38.5358 579.369 41.5792C580.467 44.7088 582.049 47.4519 583.533 50.2523C585.831 54.5897 590.856 62.8024 590.856 62.8024C590.856 62.8024 595.882 54.5897 598.18 50.2523C599.663 47.4519 601.246 44.7088 602.344 41.5792C603.411 38.5358 604.641 35.2833 604.641 31.9296C604.628 31.4819 604.633 31.0499 604.641 30.6373C604.641 25.5618 601.555 21.4473 597.749 21.4473C593.942 21.4473 591.316 24.6428 591.316 29.7183C591.316 30.6373 590.397 30.6373 590.397 29.7183Z" fill="#FF5555"/>
<path d="M673.108 29.7183C673.108 24.6428 670.481 21.4473 666.675 21.4473C662.868 21.4473 659.782 25.5618 659.782 30.6373C659.798 31.0764 659.791 31.5063 659.782 31.9296C659.782 35.2833 661.012 38.5358 662.08 41.5792C663.177 44.7088 664.76 47.4519 666.244 50.2523C668.542 54.5897 673.567 62.8024 673.567 62.8024C673.567 62.8024 678.593 54.5897 680.891 50.2523C682.374 47.4519 683.957 44.7088 685.055 41.5792C686.122 38.5358 687.352 35.2833 687.352 31.9296C687.339 31.4819 687.344 31.0499 687.352 30.6373C687.352 25.5618 684.266 21.4473 680.46 21.4473C676.653 21.4473 674.027 24.6428 674.027 29.7183C674.027 30.6373 673.108 30.6373 673.108 29.7183Z" fill="#FF5555"/>
<path d="M631.751 71.0747C631.751 65.9992 629.125 62.8037 625.318 62.8037C621.512 62.8037 618.426 66.9182 618.426 71.9937C618.442 72.4328 618.434 72.8627 618.426 73.2861C618.426 76.6398 619.656 79.8923 620.723 82.9356C621.821 86.0653 623.404 88.8084 624.888 91.6087C627.186 95.9461 632.211 104.159 632.211 104.159C632.211 104.159 637.236 95.9461 639.534 91.6087C641.018 88.8084 642.601 86.0653 643.698 82.9356C644.766 79.8923 645.996 76.6398 645.996 73.2861C645.983 72.8384 645.987 72.4063 645.996 71.9937C645.996 66.9182 642.91 62.8037 639.103 62.8037C635.297 62.8037 632.67 65.9992 632.67 71.0747C632.67 71.9937 631.751 71.9937 631.751 71.0747Z" fill="#FF5555"/>
<path d="M590.397 112.428C590.397 107.353 587.77 104.157 583.964 104.157C580.157 104.157 577.071 108.272 577.071 113.347C577.087 113.786 577.08 114.216 577.071 114.64C577.071 117.993 578.301 121.246 579.369 124.289C580.467 127.419 582.049 130.162 583.533 132.962C585.831 137.3 590.856 145.512 590.856 145.512C590.856 145.512 595.882 137.3 598.18 132.962C599.663 130.162 601.246 127.419 602.344 124.289C603.411 121.246 604.641 117.993 604.641 114.64C604.628 114.192 604.633 113.76 604.641 113.347C604.641 108.272 601.555 104.157 597.749 104.157C593.942 104.157 591.316 107.353 591.316 112.428C591.316 113.347 590.397 113.347 590.397 112.428Z" fill="#FF5555"/>
<path d="M673.108 112.428C673.108 107.353 670.481 104.157 666.675 104.157C662.868 104.157 659.782 108.272 659.782 113.347C659.798 113.786 659.791 114.216 659.782 114.64C659.782 117.993 661.012 121.246 662.08 124.289C663.177 127.419 664.76 130.162 666.244 132.962C668.542 137.3 673.567 145.512 673.567 145.512C673.567 145.512 678.593 137.3 680.891 132.962C682.374 130.162 683.957 127.419 685.055 124.289C686.122 121.246 687.352 117.993 687.352 114.64C687.339 114.192 687.344 113.76 687.352 113.347C687.352 108.272 684.266 104.157 680.46 104.157C676.653 104.157 674.027 107.353 674.027 112.428C674.027 113.347 673.108 113.347 673.108 112.428Z" fill="#FF5555"/>
<path d="M631.751 178.598C631.751 183.673 629.125 186.869 625.318 186.869C621.512 186.869 618.426 182.754 618.426 177.679C618.442 177.24 618.434 176.81 618.426 176.386C618.426 173.033 619.656 169.78 620.723 166.737C621.821 163.607 623.404 160.864 624.888 158.064C627.186 153.726 632.211 145.514 632.211 145.514C632.211 145.514 637.236 153.726 639.534 158.064C641.018 160.864 642.601 163.607 643.698 166.737C644.766 169.78 645.996 173.033 645.996 176.386C645.983 176.834 645.987 177.266 645.996 177.679C645.996 182.754 642.91 186.869 639.103 186.869C635.297 186.869 632.67 183.673 632.67 178.598C632.67 177.679 631.751 177.679 631.751 178.598Z" fill="#FF5555"/>
<path d="M590.397 219.952C590.397 225.028 587.77 228.223 583.964 228.223C580.157 228.223 577.071 224.109 577.071 219.033C577.087 218.594 577.08 218.164 577.071 217.741C577.071 214.387 578.301 211.135 579.369 208.091C580.467 204.962 582.049 202.219 583.533 199.418C585.831 195.081 590.856 186.868 590.856 186.868C590.856 186.868 595.882 195.081 598.18 199.418C599.663 202.219 601.246 204.962 602.344 208.091C603.411 211.135 604.641 214.387 604.641 217.741C604.628 218.189 604.633 218.621 604.641 219.033C604.641 224.109 601.555 228.223 597.749 228.223C593.942 228.223 591.316 225.028 591.316 219.952C591.316 219.033 590.397 219.033 590.397 219.952Z" fill="#FF5555"/>
<path d="M673.108 219.952C673.108 225.028 670.481 228.223 666.675 228.223C662.868 228.223 659.782 224.109 659.782 219.033C659.798 218.594 659.791 218.164 659.782 217.741C659.782 214.387 661.012 211.135 662.08 208.091C663.177 204.962 664.76 202.219 666.244 199.418C668.542 195.081 673.567 186.868 673.567 186.868C673.567 186.868 678.593 195.081 680.891 199.418C682.374 202.219 683.957 204.962 685.055 208.091C686.122 211.135 687.352 214.387 687.352 217.741C687.339 218.189 687.344 218.621 687.352 219.033C687.352 224.109 684.266 228.223 680.46 228.223C676.653 228.223 674.027 225.028 674.027 219.952C674.027 219.033 673.108 219.033 673.108 219.952Z" fill="#FF5555"/>
<path d="M563.056 46.2595C563.056 43.7218 561.743 42.124 559.84 42.124C557.936 42.124 556.394 44.1813 556.394 46.719C556.402 46.9386 556.398 47.1535 556.394 47.3652C556.394 49.042 557.009 50.6683 557.542 52.19C558.091 53.7548 558.883 55.1264 559.624 56.5265C560.773 58.6952 563.286 62.8016 563.286 62.8016C563.286 62.8016 565.799 58.6952 566.948 56.5265C567.69 55.1264 568.481 53.7548 569.03 52.19C569.564 50.6683 570.179 49.042 570.179 47.3652C570.172 47.1413 570.174 46.9253 570.179 46.719C570.179 44.1813 568.636 42.124 566.732 42.124C564.829 42.124 563.516 43.7218 563.516 46.2595C563.516 46.719 563.056 46.719 563.056 46.2595Z" fill="#FF5555"/>
<path d="M822.241 1H684.799C677.199 1 671.039 7.16035 671.039 14.7595V234.912C671.039 242.511 677.199 248.671 684.799 248.671H822.241C829.84 248.671 836 242.511 836 234.912V14.7595C836 7.16035 829.84 1 822.241 1Z" fill="white" stroke="black"/>
<path d="M677.701 14.5557L675.403 17.7722V20.9887L677.701 17.7722V37.5307H679.998V14.5557H677.701Z" fill="#FF5555"/>
<path d="M686.892 14.5557C684.346 14.5557 682.297 16.605 682.297 19.1507V32.9357C682.297 35.4814 684.346 37.5307 686.892 37.5307C689.438 37.5307 691.487 35.4814 691.487 32.9357V19.1507C691.487 16.605 689.438 14.5557 686.892 14.5557ZM686.892 16.8532C688.165 16.8532 689.189 17.8779 689.189 19.1507V32.9357C689.189 34.2086 688.165 35.2332 686.892 35.2332C685.619 35.2332 684.594 34.2086 684.594 32.9357V19.1507C684.594 17.8779 685.619 16.8532 686.892 16.8532Z" fill="#FF5555"/>
<path d="M829.337 235.116L831.635 231.9V228.683L829.337 231.9V212.141H827.04V235.116H829.337Z" fill="#FF5555"/>
<path d="M820.147 235.116C822.693 235.116 824.742 233.067 824.742 230.521V216.736C824.742 214.191 822.693 212.141 820.147 212.141C817.602 212.141 815.552 214.191 815.552 216.736V230.521C815.552 233.067 817.602 235.116 820.147 235.116ZM820.147 232.819C818.874 232.819 817.85 231.794 817.85 230.521V216.736C817.85 215.463 818.874 214.439 820.147 214.439C821.42 214.439 822.445 215.463 822.445 216.736V230.521C822.445 231.794 821.42 232.819 820.147 232.819Z" fill="#FF5555"/>
<path d="M712.164 21.4473C712.164 21.4473 714.921 28.3398 718.137 32.9348C721.354 37.5298 725.949 42.1248 725.949 42.1248C725.949 42.1248 721.354 46.7199 718.137 51.3149C714.921 55.9099 712.164 62.8024 712.164 62.8024C712.164 62.8024 709.407 55.9099 706.19 51.3149C702.974 46.7199 698.379 42.1248 698.379 42.1248C698.379 42.1248 702.974 37.5298 706.19 32.9348C709.407 28.3398 712.164 21.4473 712.164 21.4473Z" fill="#FF5555"/>
<path d="M794.876 21.4473C794.876 21.4473 797.633 28.3398 800.849 32.9348C804.066 37.5298 808.661 42.1248 808.661 42.1248C808.661 42.1248 804.066 46.7199 800.849 51.3149C797.633 55.9099 794.876 62.8024 794.876 62.8024C794.876 62.8024 792.119 55.9099 788.902 51.3149C785.686 46.7199 781.091 42.1248 781.091 42.1248C781.091 42.1248 785.686 37.5298 788.902 32.9348C792.119 28.3398 794.876 21.4473 794.876 21.4473Z" fill="#FF5555"/>
<path d="M753.519 49.0176C753.519 49.0176 756.276 55.9101 759.493 60.5051C762.709 65.1001 767.304 69.6952 767.304 69.6952C767.304 69.6952 762.709 74.2902 759.493 78.8852C756.276 83.4802 753.519 90.3727 753.519 90.3727C753.519 90.3727 750.762 83.4802 747.546 78.8852C744.329 74.2902 739.734 69.6952 739.734 69.6952C739.734 69.6952 744.329 65.1001 747.546 60.5051C750.762 55.9101 753.519 49.0176 753.519 49.0176Z" fill="#FF5555"/>
<path d="M712.164 76.5869C712.164 76.5869 714.921 83.4794 718.137 88.0745C721.354 92.6695 725.949 97.2645 725.949 97.2645C725.949 97.2645 721.354 101.86 718.137 106.455C714.921 111.05 712.164 117.942 712.164 117.942C712.164 117.942 709.407 111.05 706.19 106.455C702.974 101.86 698.379 97.2645 698.379 97.2645C698.379 97.2645 702.974 92.6695 706.19 88.0745C709.407 83.4794 712.164 76.5869 712.164 76.5869Z" fill="#FF5555"/>
<path d="M794.876 76.5869C794.876 76.5869 797.633 83.4794 800.849 88.0745C804.066 92.6695 808.661 97.2645 808.661 97.2645C808.661 97.2645 804.066 101.86 800.849 106.455C797.633 111.05 794.876 117.942 794.876 117.942C794.876 117.942 792.119 111.05 788.902 106.455C785.686 101.86 781.091 97.2645 781.091 97.2645C781.091 97.2645 785.686 92.6695 788.902 88.0745C792.119 83.4794 794.876 76.5869 794.876 76.5869Z" fill="#FF5555"/>
<path d="M712.164 131.728C712.164 131.728 714.921 138.62 718.137 143.215C721.354 147.81 725.949 152.405 725.949 152.405C725.949 152.405 721.354 157 718.137 161.595C714.921 166.19 712.164 173.083 712.164 173.083C712.164 173.083 709.407 166.19 706.19 161.595C702.974 157 698.379 152.405 698.379 152.405C698.379 152.405 702.974 147.81 706.19 143.215C709.407 138.62 712.164 131.728 712.164 131.728Z" fill="#FF5555"/>
<path d="M794.876 131.728C794.876 131.728 797.633 138.62 800.849 143.215C804.066 147.81 808.661 152.405 808.661 152.405C808.661 152.405 804.066 157 800.849 161.595C797.633 166.19 794.876 173.083 794.876 173.083C794.876 173.083 792.119 166.19 788.902 161.595C785.686 157 781.091 152.405 781.091 152.405C781.091 152.405 785.686 147.81 788.902 143.215C792.119 138.62 794.876 131.728 794.876 131.728Z" fill="#FF5555"/>
<path d="M753.519 159.298C753.519 159.298 756.276 166.19 759.493 170.785C762.709 175.38 767.304 179.975 767.304 179.975C767.304 179.975 762.709 184.57 759.493 189.165C756.276 193.76 753.519 200.653 753.519 200.653C753.519 200.653 750.762 193.76 747.546 189.165C744.329 184.57 739.734 179.975 739.734 179.975C739.734 179.975 744.329 175.38 747.546 170.785C750.762 166.19 753.519 159.298 753.519 159.298Z" fill="#FF5555"/>
<path d="M712.164 186.868C712.164 186.868 714.921 193.761 718.137 198.356C721.354 202.951 725.949 207.546 725.949 207.546C725.949 207.546 721.354 212.141 718.137 216.736C714.921 221.331 712.164 228.223 712.164 228.223C712.164 228.223 709.407 221.331 706.19 216.736C702.974 212.141 698.379 207.546 698.379 207.546C698.379 207.546 702.974 202.951 706.19 198.356C709.407 193.761 712.164 186.868 712.164 186.868Z" fill="#FF5555"/>
<path d="M794.876 186.868C794.876 186.868 797.633 193.761 800.849 198.356C804.066 202.951 808.661 207.546 808.661 207.546C808.661 207.546 804.066 212.141 800.849 216.736C797.633 221.331 794.876 228.223 794.876 228.223C794.876 228.223 792.119 221.331 788.902 216.736C785.686 212.141 781.091 207.546 781.091 207.546C781.091 207.546 785.686 202.951 788.902 198.356C792.119 193.761 794.876 186.868 794.876 186.868Z" fill="#FF5555"/>
<path d="M684.595 42.124C684.595 42.124 685.973 45.5703 687.581 47.8678C689.19 50.1653 691.487 52.4628 691.487 52.4628C691.487 52.4628 689.19 54.7603 687.581 57.0578C685.973 59.3553 684.595 62.8016 684.595 62.8016C684.595 62.8016 683.216 59.3553 681.608 57.0578C680 54.7603 677.702 52.4628 677.702 52.4628C677.702 52.4628 680 50.1653 681.608 47.8678C683.216 45.5703 684.595 42.124 684.595 42.124Z" fill="#FF5555"/>
<path d="M822.445 186.868C822.445 186.868 823.824 190.314 825.432 192.612C827.04 194.909 829.338 197.207 829.338 197.207C829.338 197.207 827.04 199.504 825.432 201.802C823.824 204.099 822.445 207.546 822.445 207.546C822.445 207.546 821.067 204.099 819.458 201.802C817.85 199.504 815.553 197.207 815.553 197.207C815.553 197.207 817.85 194.909 819.458 192.612C821.067 190.314 822.445 186.868 822.445 186.868Z" fill="#FF5555"/>
</svg>
