<svg xmlns="http://www.w3.org/2000/svg" width="919" height="380" fill="none" viewBox="0 0 919 380"><path fill="#fff" stroke="#000" d="M152.202 1H14.76C7.16 1 1 7.16 1 14.76v220.152c0 7.599 6.16 13.759 13.76 13.759h137.442c7.599 0 13.759-6.16 13.759-13.759V14.76c0-7.6-6.16-13.76-13.759-13.76Z"/><path fill="#000" d="M13.407 14.556 9.271 37.53h2.298l1.077-5.974h3.82l1.076 5.974h2.298l-4.135-22.975zm1.149 6.39 1.493 8.314h-2.987zM151.258 235.117l-4.136-22.975h2.298l1.077 5.973h3.819l1.077-5.973h2.298l-4.136 22.975zm1.148-6.39 1.494-8.314h-2.987zM85.778 129.889c.46 1.838 2.297 6.433 5.514 6.433 4.135 0 5.973-3.676 5.973-8.271 0-3.216-1.185-5.336-2.297-7.811-1.185-2.636-2.931-4.989-4.595-7.352-2.135-3.032-6.893-8.731-6.893-8.731s-4.758 5.699-6.892 8.731c-1.664 2.363-3.41 4.716-4.595 7.352-1.113 2.475-2.298 4.595-2.298 7.811 0 4.595 1.838 8.271 5.974 8.271 3.216 0 5.054-4.595 5.514-6.433.46-.459.46 0 .46.46-.46 3.676-.46 4.595-.92 7.352s-1.838 7.811-1.838 7.811c2.298-.919 6.893-.919 9.19 0 0 0-1.378-5.054-1.838-7.811s-.46-3.676-.919-7.352c0-.46 0-.919.46-.46M15.704 54.99c.23.92 1.15 3.217 2.757 3.217 2.068 0 2.987-1.838 2.987-4.136 0-1.608-.592-2.668-1.149-3.906-.592-1.318-1.465-2.494-2.297-3.676-1.067-1.516-3.446-4.365-3.446-4.365s-2.38 2.85-3.447 4.365c-.832 1.182-1.705 2.358-2.297 3.676-.556 1.238-1.149 2.298-1.149 3.906 0 2.298.92 4.136 2.987 4.136 1.608 0 2.527-2.298 2.757-3.217.23-.23.23 0 .23.23-.23 1.838-.23 2.297-.46 3.676-.23 1.378-.919 3.906-.919 3.906 1.149-.46 3.446-.46 4.595 0 0 0-.69-2.528-.919-3.906s-.23-1.838-.46-3.676c0-.23 0-.46.23-.23M153.555 194.68c.23-.919 1.149-3.217 2.757-3.217 2.068 0 2.987 1.838 2.987 4.136 0 1.608-.593 2.668-1.149 3.905-.592 1.318-1.466 2.495-2.298 3.676-1.067 1.516-3.446 4.366-3.446 4.366s-2.379-2.85-3.446-4.366c-.832-1.181-1.705-2.358-2.298-3.676-.556-1.237-1.148-2.297-1.148-3.905 0-2.298.919-4.136 2.986-4.136 1.609 0 2.528 2.298 2.757 3.217.23.229.23 0 .23-.23-.23-1.838-.23-2.298-.459-3.676-.23-1.379-.919-3.906-.919-3.906 1.148.46 3.446.46 4.595 0 0 0-.69 2.527-.919 3.906-.23 1.378-.23 1.838-.46 3.676 0 .23 0 .459.23.23"/><path fill="#fff" stroke="#000" d="M152.202 1H14.76C7.16 1 1 7.16 1 14.76v220.152c0 7.599 6.16 13.759 13.76 13.759h137.442c7.599 0 13.759-6.16 13.759-13.759V14.76c0-7.6-6.16-13.76-13.759-13.76Z"/><path fill="#000" d="M13.407 14.556 9.271 37.53h2.298l1.077-5.974h3.82l1.076 5.974h2.298l-4.135-22.975zm1.149 6.39 1.493 8.314h-2.987zM151.258 235.117l-4.136-22.975h2.298l1.077 5.973h3.819l1.077-5.973h2.298l-4.136 22.975zm1.148-6.39 1.494-8.314h-2.987zM85.778 129.889c.46 1.838 2.297 6.433 5.514 6.433 4.135 0 5.973-3.676 5.973-8.271 0-3.216-1.185-5.336-2.297-7.811-1.185-2.636-2.931-4.989-4.595-7.352-2.135-3.032-6.893-8.731-6.893-8.731s-4.758 5.699-6.892 8.731c-1.664 2.363-3.41 4.716-4.595 7.352-1.113 2.475-2.298 4.595-2.298 7.811 0 4.595 1.838 8.271 5.974 8.271 3.216 0 5.054-4.595 5.514-6.433.46-.459.46 0 .46.46-.46 3.676-.46 4.595-.92 7.352s-1.838 7.811-1.838 7.811c2.298-.919 6.893-.919 9.19 0 0 0-1.378-5.054-1.838-7.811s-.46-3.676-.919-7.352c0-.46 0-.919.46-.46M15.704 54.99c.23.92 1.15 3.217 2.757 3.217 2.068 0 2.987-1.838 2.987-4.136 0-1.608-.592-2.668-1.149-3.906-.592-1.318-1.465-2.494-2.297-3.676-1.067-1.516-3.446-4.365-3.446-4.365s-2.38 2.85-3.447 4.365c-.832 1.182-1.705 2.358-2.297 3.676-.556 1.238-1.149 2.298-1.149 3.906 0 2.298.92 4.136 2.987 4.136 1.608 0 2.527-2.298 2.757-3.217.23-.23.23 0 .23.23-.23 1.838-.23 2.297-.46 3.676-.23 1.378-.919 3.906-.919 3.906 1.149-.46 3.446-.46 4.595 0 0 0-.69-2.528-.919-3.906s-.23-1.838-.46-3.676c0-.23 0-.46.23-.23M153.555 194.68c.23-.919 1.149-3.217 2.757-3.217 2.068 0 2.987 1.838 2.987 4.136 0 1.608-.593 2.668-1.149 3.905-.592 1.318-1.466 2.495-2.298 3.676-1.067 1.516-3.446 4.366-3.446 4.366s-2.379-2.85-3.446-4.366c-.832-1.181-1.705-2.358-2.298-3.676-.556-1.237-1.148-2.297-1.148-3.905 0-2.298.919-4.136 2.986-4.136 1.609 0 2.528 2.298 2.757 3.217.23.229.23 0 .23-.23-.23-1.838-.23-2.298-.459-3.676-.23-1.379-.919-3.906-.919-3.906 1.148.46 3.446.46 4.595 0 0 0-.69 2.527-.919 3.906-.23 1.378-.23 1.838-.46 3.676 0 .23 0 .459.23.23"/><path stroke="#e3e3e3" stroke-dasharray="20 20" d="M467.139 1H329.697c-7.599 0-13.759 6.16-13.759 13.76v220.152c0 7.599 6.16 13.759 13.759 13.759h137.442c7.599 0 13.76-6.16 13.76-13.759V14.76c0-7.6-6.161-13.76-13.76-13.76Z"/><path fill="#fff" stroke="#000" d="M284.997 1H147.555c-7.599 0-13.759 6.16-13.759 13.76v220.152c0 7.599 6.16 13.759 13.759 13.759h137.442c7.6 0 13.76-6.16 13.76-13.759V14.76c0-7.6-6.16-13.76-13.76-13.76Z"/><path fill="#000" d="M147.352 14.556a4.585 4.585 0 0 0-4.595 4.595v2.297h2.297v-2.297a2.293 2.293 0 0 1 2.298-2.298 2.29 2.29 0 0 1 2.297 2.298v2.297c0 .518-.172 1.409-.459 1.792-2.051 4.184-4.264 7.87-6.433 11.993v2.298h9.19v-4.595h-2.298v2.297h-4.365c2.063-3.637 3.776-7.155 5.744-10.844.574-.767.919-1.904.919-2.94V19.15a4.585 4.585 0 0 0-4.595-4.595M285.202 235.117a4.585 4.585 0 0 0 4.595-4.595v-2.298H287.5v2.298a2.293 2.293 0 0 1-2.298 2.297 2.293 2.293 0 0 1-2.297-2.297v-2.298c0-.518.172-1.408.459-1.792 2.051-4.183 4.264-7.871 6.433-11.993v-2.297h-9.19v4.595h2.298v-2.298h4.365c-2.062 3.637-3.776 7.155-5.744 10.844-.574.767-.919 1.905-.919 2.941v2.298a4.586 4.586 0 0 0 4.595 4.595M148.5 54.99c.46.92 1.609 2.298 2.757 2.298 2.068 0 2.987-1.838 2.987-4.136s-.919-4.365-2.987-4.365c-1.148 0-1.838 1.149-2.527 1.838-.23.23-.459 0-.23-.23.69-.69 1.838-2.527 1.838-4.135 0-1.838-1.148-4.136-2.986-4.136s-2.987 2.297-2.987 4.136c0 1.608 1.149 3.446 1.838 4.135.23.23 0 .46-.23.23-.689-.69-1.379-1.838-2.527-1.838-2.068 0-2.987 2.068-2.987 4.365s.919 4.136 2.987 4.136c1.148 0 2.297-1.379 2.757-2.298.23-.23.23 0 .23.23-.23 1.838-.23 2.297-.46 3.676-.23 1.378-.919 3.906-.919 3.906 1.149-.46 3.446-.46 4.595 0 0 0-.689-2.528-.919-3.906s-.23-1.838-.459-3.676c0-.23 0-.46.229-.23M286.351 194.68c.459-.919 1.608-2.298 2.757-2.298 2.068 0 2.987 1.838 2.987 4.136s-.919 4.365-2.987 4.365c-1.149 0-1.838-1.149-2.527-1.838-.23-.23-.46 0-.23.23.689.689 1.838 2.527 1.838 4.135 0 1.838-1.149 4.136-2.987 4.136s-2.987-2.298-2.987-4.136c0-1.608 1.149-3.446 1.838-4.135.23-.23 0-.46-.229-.23-.69.689-1.379 1.838-2.528 1.838-2.067 0-2.986-2.068-2.986-4.365s.919-4.136 2.986-4.136c1.149 0 2.298 1.379 2.757 2.298.23.229.23 0 .23-.23-.23-1.838-.23-2.298-.459-3.676-.23-1.379-.919-3.906-.919-3.906 1.148.46 3.446.46 4.595 0 0 0-.69 2.527-.919 3.906-.23 1.378-.23 1.838-.46 3.676 0 .23 0 .459.23.23M218.575 47.18c.919 1.837 3.216 4.594 5.514 4.594 4.135 0 5.973-3.676 5.973-8.27 0-4.596-1.838-8.731-5.973-8.731-2.298 0-3.676 2.297-5.055 3.676-.459.46-.919 0-.459-.46 1.378-1.378 3.676-5.054 3.676-8.27 0-3.677-2.298-8.272-5.974-8.272s-5.973 4.595-5.973 8.271c0 3.217 2.297 6.893 3.676 8.271.459.46 0 .92-.46.46-1.378-1.379-2.757-3.676-5.054-3.676-4.136 0-5.974 4.135-5.974 8.73s1.838 8.271 5.974 8.271c2.297 0 4.595-2.757 5.514-4.595.459-.46.459 0 .459.46-.459 3.676-.459 4.595-.919 7.352-.459 2.757-1.838 7.811-1.838 7.811 2.298-.919 6.893-.919 9.19 0 0 0-1.378-5.054-1.838-7.811-.459-2.757-.459-3.676-.919-7.352 0-.46 0-.92.46-.46M218.575 202.491c.919-1.838 3.216-4.595 5.514-4.595 4.135 0 5.973 3.676 5.973 8.271s-1.838 8.731-5.973 8.731c-2.298 0-3.676-2.298-5.055-3.676-.459-.46-.919 0-.459.459 1.378 1.379 3.676 5.055 3.676 8.271 0 3.676-2.298 8.271-5.974 8.271s-5.973-4.595-5.973-8.271c0-3.216 2.297-6.892 3.676-8.271.459-.459 0-.919-.46-.459-1.378 1.378-2.757 3.676-5.054 3.676-4.136 0-5.974-4.136-5.974-8.731s1.838-8.271 5.974-8.271c2.297 0 4.595 2.757 5.514 4.595.459.46.459 0 .459-.459-.459-3.676-.459-4.595-.919-7.352-.459-2.757-1.838-7.812-1.838-7.812 2.298.919 6.893.919 9.19 0 0 0-1.378 5.055-1.838 7.812-.459 2.757-.459 3.676-.919 7.352 0 .459 0 .919.46.459"/><path fill="#fff" stroke="#000" d="M648.298 1H510.856c-7.599 0-13.759 6.16-13.759 13.76v220.152c0 7.599 6.16 13.759 13.759 13.759h137.442c7.599 0 13.76-6.16 13.76-13.759V14.76c0-7.6-6.161-13.76-13.76-13.76Z"/><path fill="#000" d="M506.057 14.556v9.19h4.595a2.293 2.293 0 0 1 2.297 2.297v6.893a2.293 2.293 0 0 1-2.297 2.297 2.293 2.293 0 0 1-2.298-2.297v-2.298h-2.297v2.298a4.585 4.585 0 0 0 4.595 4.595 4.585 4.585 0 0 0 4.595-4.595v-6.893a4.585 4.585 0 0 0-4.595-4.595h-2.298v-4.595h6.893v-2.297h-9.19M653.096 235.117v-9.19h-4.595a2.29 2.29 0 0 1-2.297-2.298v-6.892a2.29 2.29 0 0 1 2.297-2.298 2.293 2.293 0 0 1 2.298 2.298v2.297h2.297v-2.297a4.584 4.584 0 0 0-4.595-4.595 4.585 4.585 0 0 0-4.595 4.595v6.892a4.585 4.585 0 0 0 4.595 4.595h2.298v4.595h-6.893v2.298h9.19M540.524 47.172c.456 1.84 2.295 6.448 5.503 6.448 4.135 0 5.975-3.68 5.975-8.271 0-3.224-1.172-5.34-2.296-7.816-1.188-2.637-2.93-4.998-4.591-7.359-2.133-3.028-6.887-8.727-6.887-8.727s-4.771 5.699-6.903 8.727c-1.661 2.361-3.403 4.722-4.592 7.36-1.107 2.474-2.295 4.59-2.295 7.815 0 4.591 1.839 8.27 5.975 8.27 3.207 0 5.047-4.607 5.519-6.447.456-.456.456 0 .456.472-.456 3.664-.456 4.592-.928 7.343-.456 2.768-1.84 7.815-1.84 7.815 2.312-.911 6.904-.911 9.199 0 0 0-1.384-5.047-1.839-7.815-.456-2.751-.456-3.68-.912-7.343 0-.472 0-.928.456-.472M623.234 47.172c.456 1.84 2.295 6.448 5.503 6.448 4.135 0 5.975-3.68 5.975-8.271 0-3.224-1.172-5.34-2.296-7.816-1.188-2.637-2.93-4.998-4.591-7.359-2.133-3.028-6.887-8.727-6.887-8.727s-4.771 5.699-6.903 8.727c-1.661 2.361-3.403 4.722-4.592 7.36-1.107 2.474-2.296 4.59-2.296 7.815 0 4.591 1.84 8.27 5.976 8.27 3.207 0 5.047-4.607 5.519-6.447.456-.456.456 0 .456.472-.456 3.664-.456 4.592-.928 7.343-.456 2.768-1.84 7.815-1.84 7.815 2.312-.911 6.904-.911 9.199 0 0 0-1.384-5.047-1.839-7.815-.456-2.751-.456-3.68-.912-7.343 0-.472 0-.928.456-.472M581.878 129.882c.456 1.84 2.296 6.448 5.503 6.448 4.136 0 5.976-3.68 5.976-8.271 0-3.224-1.173-5.341-2.296-7.816-1.189-2.637-2.931-4.998-4.591-7.359-2.133-3.028-6.888-8.727-6.888-8.727s-4.77 5.699-6.903 8.727c-1.661 2.361-3.403 4.722-4.591 7.359-1.107 2.475-2.296 4.592-2.296 7.816 0 4.591 1.84 8.271 5.975 8.271 3.208 0 5.048-4.608 5.52-6.448.456-.456.456 0 .456.472-.456 3.664-.456 4.592-.928 7.343-.456 2.768-1.84 7.815-1.84 7.815 2.312-.911 6.903-.911 9.199 0 0 0-1.384-5.047-1.84-7.815-.456-2.751-.456-3.679-.912-7.343 0-.472 0-.928.456-.472M540.524 202.499c.456-1.84 2.295-6.448 5.503-6.448 4.135 0 5.975 3.68 5.975 8.271 0 3.224-1.172 5.341-2.296 7.815-1.188 2.638-2.93 4.999-4.591 7.36-2.133 3.028-6.887 8.727-6.887 8.727s-4.771-5.699-6.903-8.727c-1.661-2.361-3.403-4.722-4.592-7.36-1.107-2.474-2.295-4.591-2.295-7.815 0-4.591 1.839-8.271 5.975-8.271 3.207 0 5.047 4.608 5.519 6.448.456.456.456 0 .456-.472-.456-3.664-.456-4.592-.928-7.343-.456-2.768-1.84-7.816-1.84-7.816 2.312.912 6.904.912 9.199 0 0 0-1.384 5.048-1.839 7.816-.456 2.751-.456 3.679-.912 7.343 0 .472 0 .928.456.472M623.234 202.499c.456-1.84 2.295-6.448 5.503-6.448 4.135 0 5.975 3.68 5.975 8.271 0 3.224-1.172 5.341-2.296 7.815-1.188 2.638-2.93 4.999-4.591 7.36-2.133 3.028-6.887 8.727-6.887 8.727s-4.771-5.699-6.903-8.727c-1.661-2.361-3.403-4.722-4.592-7.36-1.107-2.474-2.296-4.591-2.296-7.815 0-4.591 1.84-8.271 5.976-8.271 3.207 0 5.047 4.608 5.519 6.448.456.456.456 0 .456-.472-.456-3.664-.456-4.592-.928-7.343-.456-2.768-1.84-7.816-1.84-7.816 2.312.912 6.904.912 9.199 0 0 0-1.384 5.048-1.839 7.816-.456 2.751-.456 3.679-.912 7.343 0 .472 0 .928.456.472M511.8 54.99c.23.92 1.149 3.217 2.757 3.217 2.068 0 2.987-1.838 2.987-4.136 0-1.608-.593-2.668-1.149-3.906-.592-1.318-1.466-2.494-2.297-3.676-1.068-1.516-3.447-4.365-3.447-4.365s-2.379 2.85-3.446 4.365c-.832 1.182-1.705 2.358-2.297 3.676-.557 1.238-1.149 2.298-1.149 3.906 0 2.298.919 4.136 2.987 4.136 1.608 0 2.527-2.298 2.757-3.217.229-.23.229 0 .229.23-.229 1.838-.229 2.297-.459 3.676-.23 1.378-.919 3.906-.919 3.906 1.149-.46 3.446-.46 4.595 0 0 0-.689-2.528-.919-3.906s-.23-1.838-.46-3.676c0-.23 0-.46.23-.23M649.652 194.68c.229-.919 1.148-3.217 2.757-3.217 2.067 0 2.986 1.838 2.986 4.136 0 1.608-.592 2.668-1.148 3.905-.593 1.318-1.466 2.495-2.298 3.676-1.067 1.516-3.446 4.366-3.446 4.366s-2.379-2.85-3.446-4.366c-.832-1.181-1.706-2.358-2.298-3.676-.556-1.237-1.149-2.297-1.149-3.905 0-2.298.919-4.136 2.987-4.136 1.608 0 2.527 2.298 2.757 3.217.23.229.23 0 .23-.23-.23-1.838-.23-2.298-.46-3.676-.229-1.379-.919-3.906-.919-3.906 1.149.46 3.447.46 4.595 0 0 0-.689 2.527-.919 3.906-.229 1.378-.229 1.838-.459 3.676 0 .23 0 .459.23.23"/><path fill="#fff" stroke="#000" d="M782.932 1H645.49c-7.599 0-13.76 6.16-13.76 13.76v220.152c0 7.599 6.161 13.759 13.76 13.759h137.442c7.599 0 13.76-6.16 13.76-13.759V14.76c0-7.6-6.161-13.76-13.76-13.76Z"/><path fill="#f55" d="M645.285 14.556a4.585 4.585 0 0 0-4.595 4.595v2.297c0 1.38.608 2.606 1.566 3.447a4.57 4.57 0 0 0-1.566 3.446v4.595a4.585 4.585 0 0 0 4.595 4.595 4.585 4.585 0 0 0 4.595-4.595V28.34c0-1.38-.607-2.606-1.565-3.447a4.56 4.56 0 0 0 1.565-3.446v-2.297a4.585 4.585 0 0 0-4.595-4.595m0 2.297a2.293 2.293 0 0 1 2.298 2.298v2.297a2.293 2.293 0 0 1-2.298 2.298 2.293 2.293 0 0 1-2.297-2.298v-2.297a2.293 2.293 0 0 1 2.297-2.298m0 9.19a2.293 2.293 0 0 1 2.298 2.298v4.595a2.293 2.293 0 0 1-2.298 2.297 2.293 2.293 0 0 1-2.297-2.297V28.34a2.293 2.293 0 0 1 2.297-2.298M783.136 235.117a4.585 4.585 0 0 1-4.595-4.595v-2.298c0-1.38.608-2.605 1.565-3.446a4.57 4.57 0 0 1-1.565-3.446v-4.595a4.584 4.584 0 0 1 4.595-4.595 4.584 4.584 0 0 1 4.595 4.595v4.595c0 1.38-.608 2.605-1.565 3.446a4.57 4.57 0 0 1 1.565 3.446v2.298a4.585 4.585 0 0 1-4.595 4.595m0-2.298a2.29 2.29 0 0 0 2.298-2.297v-2.298a2.29 2.29 0 0 0-2.298-2.297 2.29 2.29 0 0 0-2.297 2.297v2.298a2.29 2.29 0 0 0 2.297 2.297m0-9.19a2.293 2.293 0 0 0 2.298-2.297v-4.595a2.293 2.293 0 0 0-2.298-2.298 2.29 2.29 0 0 0-2.297 2.298v4.595a2.29 2.29 0 0 0 2.297 2.297M782.907 203.41c0 2.538-1.313 4.136-3.217 4.136-1.903 0-3.446-2.058-3.446-4.595.008-.22.004-.435 0-.646 0-1.677.615-3.304 1.149-4.825.549-1.565 1.34-2.937 2.082-4.337 1.149-2.168 3.662-6.275 3.662-6.275s2.512 4.107 3.661 6.275c.742 1.4 1.534 2.772 2.082 4.337.534 1.521 1.149 3.148 1.149 4.825q-.008.335 0 .646c0 2.537-1.543 4.595-3.446 4.595s-3.217-1.598-3.217-4.136c0-.459-.459-.459-.459 0M672.397 29.718c0-5.075-2.627-8.27-6.433-8.27s-6.893 4.114-6.893 9.19c.016.438.009.868 0 1.292 0 3.353 1.23 6.606 2.298 9.65 1.098 3.129 2.68 5.872 4.164 8.672 2.298 4.338 7.323 12.55 7.323 12.55s5.026-8.212 7.324-12.55c1.483-2.8 3.066-5.543 4.164-8.673 1.067-3.043 2.297-6.296 2.297-9.65-.013-.447-.008-.88 0-1.292 0-5.075-3.086-9.19-6.892-9.19s-6.433 3.196-6.433 8.271c0 .92-.919.92-.919 0M755.108 29.718c0-5.075-2.627-8.27-6.433-8.27s-6.893 4.114-6.893 9.19c.016.438.009.868 0 1.292 0 3.353 1.23 6.606 2.298 9.65 1.097 3.129 2.68 5.872 4.164 8.672 2.298 4.338 7.323 12.55 7.323 12.55s5.026-8.212 7.324-12.55c1.483-2.8 3.066-5.543 4.164-8.673 1.067-3.043 2.297-6.296 2.297-9.65-.013-.447-.008-.88 0-1.292 0-5.075-3.086-9.19-6.892-9.19s-6.433 3.196-6.433 8.271c0 .92-.919.92-.919 0M713.751 71.075c0-5.076-2.626-8.271-6.433-8.271s-6.892 4.114-6.892 9.19c.016.439.008.869 0 1.292 0 3.354 1.23 6.606 2.297 9.65 1.098 3.13 2.681 5.872 4.165 8.673 2.298 4.337 7.323 12.55 7.323 12.55s5.025-8.213 7.323-12.55c1.484-2.8 3.067-5.544 4.164-8.673 1.068-3.044 2.298-6.296 2.298-9.65-.013-.448-.009-.88 0-1.292 0-5.076-3.086-9.19-6.893-9.19s-6.433 3.195-6.433 8.27c0 .92-.919.92-.919 0M672.397 112.428c0-5.075-2.627-8.271-6.433-8.271s-6.893 4.115-6.893 9.19c.016.439.009.869 0 1.293 0 3.353 1.23 6.606 2.298 9.649 1.098 3.13 2.68 5.873 4.164 8.673 2.298 4.338 7.323 12.55 7.323 12.55s5.026-8.212 7.324-12.55c1.483-2.8 3.066-5.543 4.164-8.673 1.067-3.043 2.297-6.296 2.297-9.649a27 27 0 0 1 0-1.293c0-5.075-3.086-9.19-6.892-9.19s-6.433 3.196-6.433 8.271c0 .919-.919.919-.919 0M755.108 112.428c0-5.075-2.627-8.271-6.433-8.271s-6.893 4.115-6.893 9.19c.016.439.009.869 0 1.293 0 3.353 1.23 6.606 2.298 9.649 1.097 3.13 2.68 5.873 4.164 8.673 2.298 4.338 7.323 12.55 7.323 12.55s5.026-8.212 7.324-12.55c1.483-2.8 3.066-5.543 4.164-8.673 1.067-3.043 2.297-6.296 2.297-9.649a27 27 0 0 1 0-1.293c0-5.075-3.086-9.19-6.892-9.19s-6.433 3.196-6.433 8.271c0 .919-.919.919-.919 0M713.751 178.598c0 5.075-2.626 8.271-6.433 8.271s-6.892-4.115-6.892-9.19c.016-.439.008-.869 0-1.293 0-3.353 1.23-6.606 2.297-9.649 1.098-3.13 2.681-5.873 4.165-8.673 2.298-4.338 7.323-12.55 7.323-12.55s5.025 8.212 7.323 12.55c1.484 2.8 3.067 5.543 4.164 8.673 1.068 3.043 2.298 6.296 2.298 9.649-.013.448-.009.88 0 1.293 0 5.075-3.086 9.19-6.893 9.19s-6.433-3.196-6.433-8.271c0-.919-.919-.919-.919 0M672.397 219.952c0 5.076-2.627 8.271-6.433 8.271s-6.893-4.114-6.893-9.19a22 22 0 0 0 0-1.292c0-3.354 1.23-6.606 2.298-9.65 1.098-3.129 2.68-5.872 4.164-8.673 2.298-4.337 7.323-12.55 7.323-12.55s5.026 8.213 7.324 12.55c1.483 2.801 3.066 5.544 4.164 8.673 1.067 3.044 2.297 6.296 2.297 9.65-.013.448-.008.88 0 1.292 0 5.076-3.086 9.19-6.892 9.19s-6.433-3.195-6.433-8.271c0-.919-.919-.919-.919 0M755.108 219.952c0 5.076-2.627 8.271-6.433 8.271s-6.893-4.114-6.893-9.19a22 22 0 0 0 0-1.292c0-3.354 1.23-6.606 2.298-9.65 1.097-3.129 2.68-5.872 4.164-8.673 2.298-4.337 7.323-12.55 7.323-12.55s5.026 8.213 7.324 12.55c1.483 2.801 3.066 5.544 4.164 8.673 1.067 3.044 2.297 6.296 2.297 9.65-.013.448-.008.88 0 1.292 0 5.076-3.086 9.19-6.892 9.19s-6.433-3.195-6.433-8.271c0-.919-.919-.919-.919 0M645.056 46.26c0-2.538-1.313-4.136-3.216-4.136s-3.446 2.057-3.446 4.595c.008.22.004.434 0 .646 0 1.677.615 3.303 1.148 4.825.549 1.565 1.341 2.936 2.082 4.337 1.149 2.168 3.662 6.275 3.662 6.275s2.513-4.107 3.662-6.276c.742-1.4 1.533-2.771 2.082-4.336.534-1.522 1.149-3.148 1.149-4.825q-.009-.337 0-.646c0-2.538-1.543-4.595-3.447-4.595-1.903 0-3.216 1.598-3.216 4.136 0 .459-.46.459-.46 0"/><path fill="#fff" stroke="#000" d="M904.241 1H766.799c-7.6 0-13.76 6.16-13.76 13.76v220.152c0 7.599 6.16 13.759 13.76 13.759h137.442c7.599 0 13.759-6.16 13.759-13.759V14.76C918 7.16 911.84 1 904.241 1Z"/><path fill="#f55" d="m759.701 14.556-2.298 3.216v3.217l2.298-3.217v19.759h2.297V14.556zM768.892 14.556a4.585 4.585 0 0 0-4.595 4.595v13.785a4.585 4.585 0 0 0 4.595 4.595 4.585 4.585 0 0 0 4.595-4.595V19.15a4.585 4.585 0 0 0-4.595-4.595m0 2.297a2.29 2.29 0 0 1 2.297 2.298v13.785a2.29 2.29 0 0 1-2.297 2.297 2.293 2.293 0 0 1-2.298-2.297V19.15a2.293 2.293 0 0 1 2.298-2.298M911.337 235.116l2.298-3.216v-3.217l-2.298 3.217v-19.759h-2.297v22.975zM902.147 235.116a4.584 4.584 0 0 0 4.595-4.595v-13.785a4.585 4.585 0 0 0-4.595-4.595 4.586 4.586 0 0 0-4.595 4.595v13.785a4.585 4.585 0 0 0 4.595 4.595m0-2.297a2.29 2.29 0 0 1-2.297-2.298v-13.785a2.29 2.29 0 0 1 2.297-2.297 2.29 2.29 0 0 1 2.298 2.297v13.785a2.293 2.293 0 0 1-2.298 2.298M794.164 21.447s2.757 6.893 5.973 11.488c3.217 4.595 7.812 9.19 7.812 9.19s-4.595 4.595-7.812 9.19c-3.216 4.595-5.973 11.487-5.973 11.487s-2.757-6.892-5.974-11.487-7.811-9.19-7.811-9.19 4.595-4.595 7.811-9.19 5.974-11.488 5.974-11.488M876.876 21.447s2.757 6.893 5.973 11.488c3.217 4.595 7.812 9.19 7.812 9.19s-4.595 4.595-7.812 9.19c-3.216 4.595-5.973 11.487-5.973 11.487s-2.757-6.892-5.974-11.487-7.811-9.19-7.811-9.19 4.595-4.595 7.811-9.19 5.974-11.488 5.974-11.488M835.519 49.018s2.757 6.892 5.974 11.487 7.811 9.19 7.811 9.19-4.595 4.595-7.811 9.19-5.974 11.488-5.974 11.488-2.757-6.893-5.973-11.488c-3.217-4.595-7.812-9.19-7.812-9.19s4.595-4.595 7.812-9.19c3.216-4.595 5.973-11.487 5.973-11.487M794.164 76.587s2.757 6.892 5.973 11.487c3.217 4.596 7.812 9.19 7.812 9.19s-4.595 4.596-7.812 9.191c-3.216 4.595-5.973 11.487-5.973 11.487s-2.757-6.892-5.974-11.487-7.811-9.19-7.811-9.19 4.595-4.596 7.811-9.19c3.217-4.596 5.974-11.488 5.974-11.488M876.876 76.587s2.757 6.892 5.973 11.487c3.217 4.596 7.812 9.19 7.812 9.19s-4.595 4.596-7.812 9.191c-3.216 4.595-5.973 11.487-5.973 11.487s-2.757-6.892-5.974-11.487-7.811-9.19-7.811-9.19 4.595-4.596 7.811-9.19c3.217-4.596 5.974-11.488 5.974-11.488M794.164 131.728s2.757 6.892 5.973 11.487c3.217 4.595 7.812 9.19 7.812 9.19s-4.595 4.595-7.812 9.19c-3.216 4.595-5.973 11.488-5.973 11.488s-2.757-6.893-5.974-11.488-7.811-9.19-7.811-9.19 4.595-4.595 7.811-9.19 5.974-11.487 5.974-11.487M876.876 131.728s2.757 6.892 5.973 11.487c3.217 4.595 7.812 9.19 7.812 9.19s-4.595 4.595-7.812 9.19c-3.216 4.595-5.973 11.488-5.973 11.488s-2.757-6.893-5.974-11.488-7.811-9.19-7.811-9.19 4.595-4.595 7.811-9.19 5.974-11.487 5.974-11.487M835.519 159.298s2.757 6.892 5.974 11.487 7.811 9.19 7.811 9.19-4.595 4.595-7.811 9.19-5.974 11.488-5.974 11.488-2.757-6.893-5.973-11.488c-3.217-4.595-7.812-9.19-7.812-9.19s4.595-4.595 7.812-9.19c3.216-4.595 5.973-11.487 5.973-11.487M794.164 186.868s2.757 6.893 5.973 11.488c3.217 4.595 7.812 9.19 7.812 9.19s-4.595 4.595-7.812 9.19c-3.216 4.595-5.973 11.487-5.973 11.487s-2.757-6.892-5.974-11.487-7.811-9.19-7.811-9.19 4.595-4.595 7.811-9.19 5.974-11.488 5.974-11.488M876.876 186.868s2.757 6.893 5.973 11.488c3.217 4.595 7.812 9.19 7.812 9.19s-4.595 4.595-7.812 9.19c-3.216 4.595-5.973 11.487-5.973 11.487s-2.757-6.892-5.974-11.487-7.811-9.19-7.811-9.19 4.595-4.595 7.811-9.19 5.974-11.488 5.974-11.488M766.595 42.124s1.378 3.446 2.986 5.744 3.906 4.595 3.906 4.595-2.297 2.297-3.906 4.595-2.986 5.744-2.986 5.744-1.379-3.447-2.987-5.744c-1.608-2.298-3.906-4.595-3.906-4.595s2.298-2.298 3.906-4.595c1.608-2.298 2.987-5.744 2.987-5.744M904.445 186.868s1.379 3.446 2.987 5.744 3.906 4.595 3.906 4.595-2.298 2.297-3.906 4.595-2.987 5.744-2.987 5.744-1.378-3.447-2.987-5.744c-1.608-2.298-3.905-4.595-3.905-4.595s2.297-2.298 3.905-4.595c1.609-2.298 2.987-5.744 2.987-5.744"/><path fill="#fff" d="M593.849 354q-.211-1.781-1.711-2.766-1.5-.984-3.68-.984-1.593 0-2.789.516-1.183.515-1.851 1.418a3.4 3.4 0 0 0-.656 2.05q0 .962.457 1.653.469.68 1.195 1.136.726.445 1.523.739.798.281 1.465.457l2.438.656q.937.246 2.086.68a9.7 9.7 0 0 1 2.215 1.183 6 6 0 0 1 1.757 1.899q.692 1.16.692 2.847 0 1.946-1.02 3.516-1.008 1.57-2.953 2.496-1.933.926-4.699.926-2.578 0-4.465-.832-1.875-.832-2.953-2.32-1.066-1.489-1.207-3.458h3q.117 1.36.914 2.25.809.88 2.039 1.313a8.3 8.3 0 0 0 2.672.422q1.663 0 2.988-.539 1.324-.55 2.098-1.524.773-.983.773-2.297 0-1.194-.668-1.945-.668-.75-1.758-1.219a18.4 18.4 0 0 0-2.355-.82l-2.953-.844q-2.813-.808-4.453-2.308t-1.641-3.926q0-2.016 1.09-3.516 1.102-1.511 2.953-2.343 1.863-.844 4.16-.844 2.32 0 4.125.832 1.804.82 2.86 2.25a5.6 5.6 0 0 1 1.125 3.246zm10.31 7.172V372h-2.766v-24h2.766v8.812h.234a5.1 5.1 0 0 1 1.899-2.214q1.277-.832 3.398-.832 1.84 0 3.223.738 1.382.726 2.144 2.238.774 1.5.774 3.821V372h-2.766v-11.25q0-2.145-1.113-3.316-1.102-1.184-3.059-1.184-1.36 0-2.437.574a4.2 4.2 0 0 0-1.688 1.676q-.609 1.101-.609 2.672M620.89 372v-18h2.766v18zm1.406-21a1.97 1.97 0 0 1-1.394-.551 1.77 1.77 0 0 1-.574-1.324q0-.774.574-1.324.585-.55 1.394-.551.808 0 1.383.551.586.55.586 1.324t-.586 1.324a1.93 1.93 0 0 1-1.383.551m14.441 3v2.344h-9.703V354zm-6.797 18v-20.484q0-1.547.727-2.579a4.5 4.5 0 0 1 1.886-1.546 6 6 0 0 1 2.449-.516q1.02 0 1.665.164.644.164.96.305l-.796 2.39a13 13 0 0 0-.586-.175q-.364-.106-.961-.106-1.371 0-1.981.692-.597.69-.597 2.027V372zm18.501-18v2.344h-9.328V354zm-6.609-4.313h2.765v17.157q0 1.171.34 1.758.351.573.891.773.55.187 1.16.187.456 0 .75-.046l.469-.094.562 2.484a5.5 5.5 0 0 1-.785.211q-.504.117-1.277.117a5.6 5.6 0 0 1-2.297-.504 4.55 4.55 0 0 1-1.852-1.535q-.726-1.03-.726-2.601zM669.71 354v2.344h-9.328V354zm-6.609-4.313h2.766v17.157q0 1.171.34 1.758.351.573.89.773.55.187 1.16.187.457 0 .75-.046l.469-.094.563 2.484q-.282.106-.786.211-.504.117-1.277.117a5.6 5.6 0 0 1-2.297-.504 4.55 4.55 0 0 1-1.851-1.535q-.727-1.03-.727-2.601zm17.889 22.688q-2.437 0-4.278-1.16-1.827-1.161-2.859-3.246-1.02-2.087-1.02-4.875 0-2.813 1.02-4.91 1.032-2.099 2.859-3.258 1.84-1.16 4.278-1.16t4.265 1.16q1.84 1.16 2.86 3.258 1.03 2.097 1.031 4.91 0 2.788-1.031 4.875-1.02 2.085-2.86 3.246-1.827 1.16-4.265 1.16m0-2.484q1.851 0 3.047-.95 1.194-.948 1.769-2.496.574-1.547.574-3.351t-.574-3.364q-.575-1.558-1.769-2.519-1.196-.961-3.047-.961t-3.047.961-1.77 2.519q-.573 1.56-.574 3.364 0 1.804.574 3.351.574 1.548 1.77 2.496 1.195.95 3.047.95M710.477 354v2.344h-9.328V354zm-6.609-4.313h2.765v17.157q0 1.171.34 1.758.352.573.891.773.55.187 1.16.187.458 0 .75-.046l.469-.094.562 2.484a5.5 5.5 0 0 1-.785.211q-.504.117-1.277.117a5.6 5.6 0 0 1-2.297-.504 4.55 4.55 0 0 1-1.852-1.535q-.726-1.03-.726-2.601zm13.922 11.485V372h-2.766v-24h2.766v8.812h.234a5.1 5.1 0 0 1 1.898-2.214q1.278-.832 3.399-.832 1.84 0 3.222.738 1.383.726 2.145 2.238.773 1.5.773 3.821V372h-2.765v-11.25q0-2.145-1.113-3.316-1.102-1.184-3.059-1.184-1.36 0-2.438.574a4.2 4.2 0 0 0-1.687 1.676q-.609 1.101-.609 2.672m24.278 11.203q-2.602 0-4.488-1.148-1.875-1.16-2.895-3.235-1.008-2.086-1.008-4.851t1.008-4.875q1.02-2.121 2.836-3.305 1.829-1.195 4.266-1.195 1.406 0 2.777.468a6.9 6.9 0 0 1 2.496 1.524q1.125 1.043 1.793 2.765t.668 4.243v1.171h-13.875v-2.39h11.062q0-1.524-.609-2.719a4.6 4.6 0 0 0-1.711-1.887q-1.101-.691-2.601-.691-1.653 0-2.86.82a5.4 5.4 0 0 0-1.84 2.11 6.2 6.2 0 0 0-.644 2.789v1.594q0 2.038.703 3.457.715 1.406 1.98 2.144 1.266.726 2.942.727 1.09 0 1.969-.305a4.2 4.2 0 0 0 1.535-.938q.643-.632.996-1.57l2.672.75a5.94 5.94 0 0 1-1.418 2.391q-.996 1.02-2.461 1.593-1.465.563-3.293.563m20.941-.375v-18h2.672v2.719h.188q.492-1.337 1.781-2.168t2.906-.832q.304 0 .762.011.457.012.691.036v2.812a9 9 0 0 0-.644-.105 6.3 6.3 0 0 0-1.043-.082q-1.312 0-2.344.55-1.02.54-1.617 1.5-.586.95-.586 2.168V372zm12.279 0v-18h2.765v18zm1.406-21a1.97 1.97 0 0 1-1.395-.551 1.77 1.77 0 0 1-.574-1.324q0-.774.574-1.324a1.97 1.97 0 0 1 1.395-.551q.808 0 1.383.551.585.55.586 1.324 0 .774-.586 1.324a1.93 1.93 0 0 1-1.383.551m13.69 28.125q-2.004 0-3.445-.516-1.442-.504-2.402-1.336-.95-.82-1.512-1.757l2.203-1.547q.375.492.949 1.125.574.644 1.571 1.113 1.007.48 2.636.48 2.18 0 3.598-1.054t1.418-3.305v-3.656h-.234q-.306.492-.868 1.219-.55.714-1.593 1.277-1.032.55-2.789.551-2.18 0-3.915-1.031-1.722-1.032-2.73-3.001-.996-1.968-.996-4.781 0-2.766.973-4.816.972-2.063 2.707-3.188 1.734-1.136 4.007-1.136 1.758 0 2.789.586 1.044.573 1.594 1.312.563.726.867 1.195h.282V354h2.672v18.516q0 2.32-1.055 3.773-1.043 1.465-2.813 2.145-1.758.691-3.914.691m-.093-9.891q1.663 0 2.812-.761 1.149-.762 1.746-2.192.598-1.43.598-3.422 0-1.945-.586-3.433t-1.735-2.332-2.835-.844q-1.758 0-2.93.891-1.161.89-1.746 2.39-.574 1.5-.574 3.328 0 1.875.585 3.317.599 1.43 1.758 2.25 1.172.808 2.907.808m15.703-8.062V372h-2.766v-24h2.766v8.812h.234a5.1 5.1 0 0 1 1.898-2.214q1.278-.832 3.399-.832 1.84 0 3.223.738 1.382.726 2.144 2.238.774 1.5.774 3.821V372H814.9v-11.25q0-2.145-1.113-3.316-1.102-1.184-3.059-1.184-1.36 0-2.437.574a4.2 4.2 0 0 0-1.688 1.676q-.609 1.101-.609 2.672M830.553 354v2.344h-9.328V354zm-6.609-4.313h2.765v17.157q0 1.171.34 1.758.352.573.891.773.55.187 1.16.187.458 0 .75-.046l.469-.094.562 2.484a5.5 5.5 0 0 1-.785.211q-.504.117-1.277.117a5.6 5.6 0 0 1-2.297-.504 4.56 4.56 0 0 1-1.852-1.535q-.726-1.03-.726-2.601zM365.837 79q-.211-1.781-1.711-2.766-1.5-.984-3.68-.984-1.593 0-2.789.516-1.183.515-1.851 1.418a3.4 3.4 0 0 0-.657 2.05q0 .961.457 1.653.469.68 1.196 1.136.726.445 1.523.739.797.281 1.465.457l2.438.656q.937.246 2.085.68a9.6 9.6 0 0 1 2.215 1.183 6 6 0 0 1 1.758 1.899q.692 1.16.692 2.847 0 1.946-1.02 3.516-1.008 1.57-2.953 2.496-1.934.926-4.699.926-2.578 0-4.465-.832-1.875-.832-2.953-2.32-1.067-1.49-1.207-3.457h3q.116 1.359.914 2.25.808.878 2.039 1.312a8.3 8.3 0 0 0 2.672.422q1.663 0 2.988-.54 1.324-.55 2.098-1.523.773-.984.773-2.296 0-1.196-.668-1.946t-1.758-1.219a18 18 0 0 0-2.355-.82l-2.953-.844q-2.813-.808-4.453-2.308t-1.641-3.926q0-2.016 1.09-3.516 1.101-1.511 2.953-2.343 1.863-.844 4.16-.844 2.32 0 4.125.832 1.805.82 2.859 2.25A5.6 5.6 0 0 1 368.649 79zm7.544 24.75V79h2.672v2.86h.328q.304-.47.844-1.196.55-.739 1.57-1.312 1.03-.586 2.789-.586 2.274 0 4.008 1.136 1.734 1.137 2.707 3.223t.972 4.922q0 2.86-.972 4.957-.973 2.086-2.695 3.234-1.723 1.137-3.973 1.137-1.734 0-2.777-.574-1.044-.585-1.606-1.324-.563-.75-.867-1.243h-.235v9.516zM376.1 88q0 2.04.597 3.598.599 1.546 1.746 2.425 1.149.868 2.813.868 1.734 0 2.894-.914 1.173-.927 1.758-2.485.598-1.57.598-3.492 0-1.899-.586-3.422-.574-1.535-1.746-2.426-1.16-.902-2.918-.902-1.687 0-2.836.856-1.149.843-1.734 2.367-.586 1.511-.586 3.527m22.687 9.422q-1.712 0-3.105-.645a5.33 5.33 0 0 1-2.215-1.886q-.82-1.243-.821-3 0-1.548.61-2.508a4.3 4.3 0 0 1 1.629-1.524 8.5 8.5 0 0 1 2.25-.82 27 27 0 0 1 2.496-.445q1.64-.21 2.66-.317 1.032-.117 1.5-.386.48-.27.48-.938v-.094q0-1.734-.949-2.695-.938-.96-2.847-.96-1.981 0-3.106.866-1.125.868-1.582 1.852l-2.625-.938q.704-1.64 1.875-2.554a7 7 0 0 1 2.578-1.29q1.407-.374 2.766-.374.867 0 1.992.21a6.4 6.4 0 0 1 2.191.833q1.066.633 1.77 1.91.703 1.277.703 3.422V97h-2.766v-2.437h-.14q-.281.585-.938 1.253-.655.669-1.746 1.137-1.09.47-2.66.469m.422-2.484q1.641 0 2.766-.645 1.136-.645 1.711-1.664.585-1.02.585-2.145v-2.53q-.176.21-.773.386-.587.165-1.359.293-.762.117-1.489.21-.714.082-1.16.141-1.078.141-2.015.457-.927.305-1.5.926-.563.61-.563 1.664 0 1.442 1.067 2.18 1.077.727 2.73.727m20.188 2.437q-2.53 0-4.359-1.195-1.828-1.196-2.812-3.293-.985-2.098-.985-4.793 0-2.742 1.008-4.84 1.02-2.11 2.836-3.293 1.828-1.195 4.266-1.195 1.898 0 3.421.703a6.56 6.56 0 0 1 2.497 1.969q.972 1.265 1.207 2.953h-2.766q-.317-1.23-1.406-2.18-1.078-.96-2.907-.961-1.617 0-2.835.844-1.207.832-1.887 2.355-.669 1.512-.668 3.551 0 2.086.656 3.633.668 1.547 1.875 2.402 1.22.855 2.859.856 1.079 0 1.957-.375a4.04 4.04 0 0 0 1.489-1.079 4.14 4.14 0 0 0 .867-1.687h2.766a6.4 6.4 0 0 1-1.161 2.871q-.914 1.266-2.425 2.016-1.5.738-3.493.738m18.668 0q-2.601 0-4.488-1.148-1.875-1.16-2.894-3.235-1.008-2.086-1.008-4.851 0-2.767 1.008-4.875 1.019-2.121 2.836-3.305 1.827-1.195 4.265-1.195 1.406 0 2.778.468 1.371.469 2.496 1.524 1.125 1.043 1.793 2.765t.668 4.243v1.171h-13.875v-2.39h11.062q0-1.524-.609-2.719a4.6 4.6 0 0 0-1.711-1.887q-1.102-.69-2.602-.691-1.652 0-2.859.82a5.4 5.4 0 0 0-1.84 2.11 6.2 6.2 0 0 0-.645 2.789v1.594q0 2.038.704 3.456.714 1.407 1.98 2.145 1.266.727 2.941.727 1.09 0 1.969-.305a4.2 4.2 0 0 0 1.535-.938 4.25 4.25 0 0 0 .996-1.57l2.672.75a5.9 5.9 0 0 1-1.418 2.39q-.996 1.02-2.461 1.594-1.464.564-3.293.563M350.185 119v2.344h-9.703V119zm-6.797 18v-20.484q0-1.548.727-2.579a4.5 4.5 0 0 1 1.886-1.546 6 6 0 0 1 2.45-.516q1.019 0 1.664.164.644.164.961.305l-.797 2.39a13 13 0 0 0-.586-.175q-.364-.106-.961-.106-1.37 0-1.981.692-.597.69-.597 2.027V137zm17.244.375q-2.437 0-4.277-1.16-1.829-1.161-2.859-3.246-1.02-2.086-1.02-4.875 0-2.813 1.02-4.91 1.03-2.099 2.859-3.258 1.84-1.16 4.277-1.16t4.266 1.16q1.84 1.16 2.859 3.258 1.032 2.097 1.032 4.91 0 2.789-1.032 4.875-1.018 2.085-2.859 3.246-1.829 1.16-4.266 1.16m0-2.484q1.852 0 3.047-.95 1.195-.948 1.77-2.496.574-1.547.574-3.351t-.574-3.364q-.575-1.558-1.77-2.519t-3.047-.961-3.047.961q-1.194.961-1.769 2.519-.574 1.56-.574 3.364t.574 3.351q.575 1.548 1.769 2.496 1.196.95 3.047.95M373.01 137v-18h2.672v2.719h.188q.492-1.337 1.781-2.168t2.906-.832q.304 0 .762.011.457.012.691.036v2.812a9 9 0 0 0-.644-.105 6.3 6.3 0 0 0-1.043-.082q-1.312 0-2.344.55-1.02.54-1.617 1.5-.586.95-.586 2.168V137zm24.325-10.828V137h-2.765v-18h2.672v2.812h.234a5.15 5.15 0 0 1 1.922-2.203q1.289-.843 3.328-.843 1.828 0 3.199.75 1.371.738 2.133 2.25.762 1.5.762 3.797V137h-2.766v-11.25q0-2.121-1.101-3.305-1.102-1.195-3.024-1.195-1.325 0-2.367.574-1.03.575-1.629 1.676-.598 1.101-.598 2.672m24.085 11.203q-2.601 0-4.488-1.148-1.875-1.16-2.894-3.235-1.008-2.086-1.008-4.851t1.008-4.875q1.019-2.121 2.836-3.305 1.827-1.195 4.265-1.195a8.6 8.6 0 0 1 2.778.468 6.9 6.9 0 0 1 2.496 1.524q1.125 1.043 1.793 2.765t.668 4.243v1.171h-13.875v-2.39h11.062q0-1.524-.609-2.719a4.6 4.6 0 0 0-1.711-1.887q-1.102-.691-2.602-.691-1.652 0-2.859.82a5.4 5.4 0 0 0-1.84 2.11 6.2 6.2 0 0 0-.645 2.789v1.594q0 2.038.704 3.457.714 1.406 1.98 2.144 1.266.727 2.941.727 1.09 0 1.969-.305a4.2 4.2 0 0 0 1.535-.938q.645-.632.996-1.57l2.672.75a5.9 5.9 0 0 1-1.418 2.391q-.996 1.02-2.461 1.593-1.464.564-3.293.563m15.739-.375-5.485-18h2.907l3.89 13.781h.188L442.502 119h2.954l3.796 13.734h.188L453.331 119h2.906l-5.485 18h-2.718l-3.938-13.828h-.281L439.877 137zm-63.443 40.375q-2.53 0-4.359-1.195-1.828-1.196-2.813-3.293-.984-2.098-.984-4.793 0-2.743 1.008-4.84 1.02-2.11 2.836-3.293 1.828-1.195 4.265-1.195 1.9 0 3.422.703a6.54 6.54 0 0 1 2.496 1.968q.973 1.266 1.207 2.954h-2.765q-.317-1.231-1.406-2.18-1.079-.961-2.907-.961-1.617 0-2.836.844-1.206.832-1.886 2.355-.668 1.512-.668 3.551 0 2.087.656 3.633.667 1.547 1.875 2.402 1.219.856 2.859.856 1.078 0 1.957-.375a4.04 4.04 0 0 0 1.489-1.079 4.1 4.1 0 0 0 .867-1.687h2.765a6.4 6.4 0 0 1-1.16 2.871q-.914 1.266-2.426 2.016-1.5.738-3.492.738m16.418.047q-1.71 0-3.105-.645a5.33 5.33 0 0 1-2.215-1.886q-.82-1.243-.82-3 0-1.548.609-2.508a4.3 4.3 0 0 1 1.629-1.524q1.02-.55 2.25-.82 1.242-.281 2.496-.445 1.64-.211 2.66-.317 1.032-.117 1.5-.386.48-.27.481-.938v-.094q0-1.734-.95-2.695-.937-.961-2.847-.961-1.981 0-3.106.867-1.125.868-1.582 1.852l-2.625-.938q.703-1.64 1.875-2.554a7 7 0 0 1 2.578-1.289q1.407-.375 2.766-.375.867 0 1.992.211 1.136.198 2.192.832 1.066.632 1.769 1.91.703 1.277.703 3.422V177h-2.765v-2.438h-.141q-.281.587-.937 1.254-.657.669-1.747 1.137-1.09.47-2.66.469m.422-2.484q1.641 0 2.766-.645 1.137-.645 1.711-1.664a4.25 4.25 0 0 0 .586-2.145v-2.531q-.176.212-.774.387-.586.164-1.359.293-.762.117-1.488.211-.715.081-1.161.14-1.077.14-2.015.457-.925.306-1.5.926-.563.61-.563 1.664 0 1.442 1.067 2.18 1.078.727 2.73.727M403.432 177v-18h2.672v2.719h.188q.492-1.337 1.781-2.168t2.906-.832q.304 0 .762.011.456.012.691.036v2.812a9 9 0 0 0-.644-.105 6.3 6.3 0 0 0-1.043-.082q-1.313 0-2.344.55-1.02.54-1.617 1.5-.586.95-.586 2.168V177zm18.527.375q-2.25 0-3.972-1.137-1.723-1.147-2.695-3.234-.973-2.098-.973-4.957 0-2.836.973-4.922.972-2.086 2.707-3.223 1.734-1.136 4.007-1.136 1.758 0 2.778.586 1.031.573 1.57 1.312.55.726.855 1.195h.235V153h2.765v24h-2.671v-2.766h-.329q-.305.493-.867 1.243-.563.738-1.605 1.324-1.042.574-2.778.574m.375-2.484q1.665 0 2.813-.868 1.149-.879 1.746-2.425.598-1.559.598-3.598 0-2.016-.586-3.527-.586-1.524-1.735-2.368-1.148-.855-2.836-.855-1.757 0-2.929.902-1.161.891-1.746 2.426-.575 1.523-.575 3.422 0 1.921.586 3.492.599 1.558 1.758 2.485 1.172.914 2.906.914"/><path stroke="#fff" d="M852.5 290v33M559 322.5h293M558.5 290v33"/></svg>