<svg width="919" height="380" viewBox="0 0 919 380" fill="none" xmlns="http://www.w3.org/2000/svg">
<path d="M152.202 1H14.7595C7.16035 1 1 7.16035 1 14.7595V234.912C1 242.511 7.16035 248.671 14.7595 248.671H152.202C159.801 248.671 165.961 242.511 165.961 234.912V14.7595C165.961 7.16035 159.801 1 152.202 1Z" fill="white" stroke="black"/>
<path d="M13.407 14.5557L9.27148 37.5307H11.569L12.6459 31.5572H16.4656L17.5425 37.5307H19.84L15.7045 14.5557H13.407ZM14.5558 20.9456L16.0491 29.2597H13.0624L14.5558 20.9456Z" fill="black"/>
<path d="M151.258 235.117L147.122 212.142H149.42L150.497 218.115H154.316L155.393 212.142H157.691L153.555 235.117H151.258ZM152.406 228.727L153.9 220.413H150.913L152.406 228.727Z" fill="black"/>
<path d="M85.7779 129.889C86.2374 131.727 88.0754 136.322 91.2919 136.322C95.4274 136.322 97.2654 132.646 97.2654 128.051C97.2654 124.835 96.0804 122.715 94.9679 120.24C93.7834 117.604 92.0366 115.251 90.3729 112.888C88.2384 109.856 83.4804 104.157 83.4804 104.157C83.4804 104.157 78.7224 109.856 76.5878 112.888C74.9241 115.251 73.1774 117.604 71.9928 120.24C70.8803 122.715 69.6953 124.835 69.6953 128.051C69.6953 132.646 71.5333 136.322 75.6688 136.322C78.8853 136.322 80.7234 131.727 81.1829 129.889C81.6424 129.43 81.6424 129.889 81.6424 130.349C81.1829 134.025 81.1829 134.944 80.7234 137.701C80.2639 140.458 78.8853 145.512 78.8853 145.512C81.1829 144.593 85.7779 144.593 88.0754 145.512C88.0754 145.512 86.6969 140.458 86.2374 137.701C85.7779 134.944 85.7779 134.025 85.3184 130.349C85.3184 129.889 85.3184 129.43 85.7779 129.889Z" fill="black"/>
<path d="M15.7044 54.9901C15.9341 55.9091 16.8531 58.2066 18.4614 58.2066C20.5291 58.2066 21.4481 56.3686 21.4481 54.0711C21.4481 52.4628 20.8556 51.4031 20.2994 50.1653C19.7071 48.8473 18.8337 47.6708 18.0019 46.4893C16.9346 44.9734 14.5556 42.124 14.5556 42.124C14.5556 42.124 12.1766 44.9734 11.1093 46.4893C10.2775 47.6708 9.40411 48.8473 8.81184 50.1653C8.2556 51.4031 7.66309 52.4628 7.66309 54.0711C7.66309 56.3686 8.58209 58.2066 10.6498 58.2066C12.2581 58.2066 13.1771 55.9091 13.4069 54.9901C13.6366 54.7603 13.6366 54.9901 13.6366 55.2198C13.4069 57.0578 13.4069 57.5173 13.1771 58.8958C12.9474 60.2743 12.2581 62.8016 12.2581 62.8016C13.4069 62.3421 15.7044 62.3421 16.8531 62.8016C16.8531 62.8016 16.1639 60.2743 15.9341 58.8958C15.7044 57.5173 15.7044 57.0578 15.4746 55.2198C15.4746 54.9901 15.4746 54.7603 15.7044 54.9901Z" fill="black"/>
<path d="M153.555 194.68C153.785 193.761 154.704 191.463 156.312 191.463C158.38 191.463 159.299 193.301 159.299 195.599C159.299 197.207 158.706 198.267 158.15 199.504C157.558 200.822 156.684 201.999 155.852 203.18C154.785 204.696 152.406 207.546 152.406 207.546C152.406 207.546 150.027 204.696 148.96 203.18C148.128 201.999 147.255 200.822 146.662 199.504C146.106 198.267 145.514 197.207 145.514 195.599C145.514 193.301 146.433 191.463 148.5 191.463C150.109 191.463 151.028 193.761 151.257 194.68C151.487 194.909 151.487 194.68 151.487 194.45C151.257 192.612 151.257 192.152 151.028 190.774C150.798 189.395 150.109 186.868 150.109 186.868C151.257 187.328 153.555 187.328 154.704 186.868C154.704 186.868 154.014 189.395 153.785 190.774C153.555 192.152 153.555 192.612 153.325 194.45C153.325 194.68 153.325 194.909 153.555 194.68Z" fill="black"/>
<path d="M152.202 1H14.7595C7.16035 1 1 7.16035 1 14.7595V234.912C1 242.511 7.16035 248.671 14.7595 248.671H152.202C159.801 248.671 165.961 242.511 165.961 234.912V14.7595C165.961 7.16035 159.801 1 152.202 1Z" fill="white" stroke="black"/>
<path d="M13.407 14.5557L9.27148 37.5307H11.569L12.6459 31.5572H16.4656L17.5425 37.5307H19.84L15.7045 14.5557H13.407ZM14.5558 20.9456L16.0491 29.2597H13.0624L14.5558 20.9456Z" fill="black"/>
<path d="M151.258 235.117L147.122 212.142H149.42L150.497 218.115H154.316L155.393 212.142H157.691L153.555 235.117H151.258ZM152.406 228.727L153.9 220.413H150.913L152.406 228.727Z" fill="black"/>
<path d="M85.7779 129.889C86.2374 131.727 88.0754 136.322 91.2919 136.322C95.4274 136.322 97.2654 132.646 97.2654 128.051C97.2654 124.835 96.0804 122.715 94.9679 120.24C93.7834 117.604 92.0366 115.251 90.3729 112.888C88.2384 109.856 83.4804 104.157 83.4804 104.157C83.4804 104.157 78.7224 109.856 76.5878 112.888C74.9241 115.251 73.1774 117.604 71.9928 120.24C70.8803 122.715 69.6953 124.835 69.6953 128.051C69.6953 132.646 71.5333 136.322 75.6688 136.322C78.8853 136.322 80.7234 131.727 81.1829 129.889C81.6424 129.43 81.6424 129.889 81.6424 130.349C81.1829 134.025 81.1829 134.944 80.7234 137.701C80.2639 140.458 78.8853 145.512 78.8853 145.512C81.1829 144.593 85.7779 144.593 88.0754 145.512C88.0754 145.512 86.6969 140.458 86.2374 137.701C85.7779 134.944 85.7779 134.025 85.3184 130.349C85.3184 129.889 85.3184 129.43 85.7779 129.889Z" fill="black"/>
<path d="M15.7044 54.9901C15.9341 55.9091 16.8531 58.2066 18.4614 58.2066C20.5291 58.2066 21.4481 56.3686 21.4481 54.0711C21.4481 52.4628 20.8556 51.4031 20.2994 50.1653C19.7071 48.8473 18.8337 47.6708 18.0019 46.4893C16.9346 44.9734 14.5556 42.124 14.5556 42.124C14.5556 42.124 12.1766 44.9734 11.1093 46.4893C10.2775 47.6708 9.40411 48.8473 8.81184 50.1653C8.2556 51.4031 7.66309 52.4628 7.66309 54.0711C7.66309 56.3686 8.58209 58.2066 10.6498 58.2066C12.2581 58.2066 13.1771 55.9091 13.4069 54.9901C13.6366 54.7603 13.6366 54.9901 13.6366 55.2198C13.4069 57.0578 13.4069 57.5173 13.1771 58.8958C12.9474 60.2743 12.2581 62.8016 12.2581 62.8016C13.4069 62.3421 15.7044 62.3421 16.8531 62.8016C16.8531 62.8016 16.1639 60.2743 15.9341 58.8958C15.7044 57.5173 15.7044 57.0578 15.4746 55.2198C15.4746 54.9901 15.4746 54.7603 15.7044 54.9901Z" fill="black"/>
<path d="M153.555 194.68C153.785 193.761 154.704 191.463 156.312 191.463C158.38 191.463 159.299 193.301 159.299 195.599C159.299 197.207 158.706 198.267 158.15 199.504C157.558 200.822 156.684 201.999 155.852 203.18C154.785 204.696 152.406 207.546 152.406 207.546C152.406 207.546 150.027 204.696 148.96 203.18C148.128 201.999 147.255 200.822 146.662 199.504C146.106 198.267 145.514 197.207 145.514 195.599C145.514 193.301 146.433 191.463 148.5 191.463C150.109 191.463 151.028 193.761 151.257 194.68C151.487 194.909 151.487 194.68 151.487 194.45C151.257 192.612 151.257 192.152 151.028 190.774C150.798 189.395 150.109 186.868 150.109 186.868C151.257 187.328 153.555 187.328 154.704 186.868C154.704 186.868 154.014 189.395 153.785 190.774C153.555 192.152 153.555 192.612 153.325 194.45C153.325 194.68 153.325 194.909 153.555 194.68Z" fill="black"/>
<path d="M467.139 1H329.697C322.098 1 315.938 7.16035 315.938 14.7595V234.912C315.938 242.511 322.098 248.671 329.697 248.671H467.139C474.738 248.671 480.899 242.511 480.899 234.912V14.7595C480.899 7.16035 474.738 1 467.139 1Z" stroke="#E3E3E3" stroke-dasharray="20 20"/>
<path d="M284.997 1L147.555 1C139.956 1 133.796 7.16035 133.796 14.7595V234.912C133.796 242.511 139.956 248.671 147.555 248.671H284.997C292.597 248.671 298.757 242.511 298.757 234.912V14.7595C298.757 7.16035 292.597 1 284.997 1Z" fill="white" stroke="black"/>
<path d="M147.352 14.5557C144.806 14.5557 142.757 16.605 142.757 19.1507V21.4482H145.054V19.1507C145.054 17.8779 146.079 16.8532 147.352 16.8532C148.625 16.8532 149.649 17.8779 149.649 19.1507V21.4482C149.649 21.9663 149.477 22.8568 149.19 23.2403C147.139 27.4236 144.926 31.1109 142.757 35.2332V37.5307H147.352H151.947V35.2332V32.9357H149.649V35.2332H147.352H145.284C147.347 31.5961 149.06 28.078 151.028 24.389C151.602 23.622 151.947 22.4845 151.947 21.4482V19.1507C151.947 16.605 149.897 14.5557 147.352 14.5557Z" fill="black"/>
<path d="M285.202 235.117C287.748 235.117 289.797 233.067 289.797 230.522V228.224H287.5V230.522C287.5 231.794 286.475 232.819 285.202 232.819C283.93 232.819 282.905 231.794 282.905 230.522V228.224C282.905 227.706 283.077 226.816 283.364 226.432C285.415 222.249 287.628 218.561 289.797 214.439V212.142H285.202H280.607V214.439V216.737H282.905V214.439H285.202H287.27C285.208 218.076 283.494 221.594 281.526 225.283C280.952 226.05 280.607 227.188 280.607 228.224V230.522C280.607 233.067 282.657 235.117 285.202 235.117Z" fill="black"/>
<path d="M148.5 54.9901C148.96 55.9091 150.109 57.2876 151.257 57.2876C153.325 57.2876 154.244 55.4496 154.244 53.1521C154.244 50.8546 153.325 48.7868 151.257 48.7868C150.109 48.7868 149.419 49.9356 148.73 50.6248C148.5 50.8546 148.271 50.6248 148.5 50.3951C149.19 49.7058 150.338 47.8678 150.338 46.2595C150.338 44.4215 149.19 42.124 147.352 42.124C145.514 42.124 144.365 44.4215 144.365 46.2595C144.365 47.8678 145.514 49.7058 146.203 50.3951C146.433 50.6248 146.203 50.8546 145.973 50.6248C145.284 49.9356 144.594 48.7868 143.446 48.7868C141.378 48.7868 140.459 50.8546 140.459 53.1521C140.459 55.4496 141.378 57.2876 143.446 57.2876C144.594 57.2876 145.743 55.9091 146.203 54.9901C146.433 54.7603 146.433 54.9901 146.433 55.2198C146.203 57.0578 146.203 57.5173 145.973 58.8958C145.743 60.2743 145.054 62.8016 145.054 62.8016C146.203 62.3421 148.5 62.3421 149.649 62.8016C149.649 62.8016 148.96 60.2743 148.73 58.8958C148.5 57.5173 148.5 57.0578 148.271 55.2198C148.271 54.9901 148.271 54.7603 148.5 54.9901Z" fill="black"/>
<path d="M286.351 194.68C286.81 193.761 287.959 192.382 289.108 192.382C291.176 192.382 292.095 194.22 292.095 196.518C292.095 198.815 291.176 200.883 289.108 200.883C287.959 200.883 287.27 199.734 286.581 199.045C286.351 198.815 286.121 199.045 286.351 199.275C287.04 199.964 288.189 201.802 288.189 203.41C288.189 205.248 287.04 207.546 285.202 207.546C283.364 207.546 282.215 205.248 282.215 203.41C282.215 201.802 283.364 199.964 284.053 199.275C284.283 199.045 284.053 198.815 283.824 199.045C283.134 199.734 282.445 200.883 281.296 200.883C279.229 200.883 278.31 198.815 278.31 196.518C278.31 194.22 279.229 192.382 281.296 192.382C282.445 192.382 283.594 193.761 284.053 194.68C284.283 194.909 284.283 194.68 284.283 194.45C284.053 192.612 284.053 192.152 283.824 190.774C283.594 189.395 282.905 186.868 282.905 186.868C284.053 187.328 286.351 187.328 287.5 186.868C287.5 186.868 286.81 189.395 286.581 190.774C286.351 192.152 286.351 192.612 286.121 194.45C286.121 194.68 286.121 194.909 286.351 194.68Z" fill="black"/>
<path d="M218.575 47.1794C219.494 49.0174 221.791 51.7744 224.089 51.7744C228.224 51.7744 230.062 48.0984 230.062 43.5033C230.062 38.9083 228.224 34.7728 224.089 34.7728C221.791 34.7728 220.413 37.0703 219.034 38.4488C218.575 38.9083 218.115 38.4488 218.575 37.9893C219.953 36.6108 222.251 32.9348 222.251 29.7183C222.251 26.0423 219.953 21.4473 216.277 21.4473C212.601 21.4473 210.304 26.0423 210.304 29.7183C210.304 32.9348 212.601 36.6108 213.98 37.9893C214.439 38.4488 213.98 38.9083 213.52 38.4488C212.142 37.0703 210.763 34.7728 208.466 34.7728C204.33 34.7728 202.492 38.9083 202.492 43.5033C202.492 48.0984 204.33 51.7744 208.466 51.7744C210.763 51.7744 213.061 49.0174 213.98 47.1794C214.439 46.7199 214.439 47.1794 214.439 47.6389C213.98 51.3149 213.98 52.2339 213.52 54.9909C213.061 57.7479 211.682 62.8024 211.682 62.8024C213.98 61.8834 218.575 61.8834 220.872 62.8024C220.872 62.8024 219.494 57.7479 219.034 54.9909C218.575 52.2339 218.575 51.3149 218.115 47.6389C218.115 47.1794 218.115 46.7199 218.575 47.1794Z" fill="black"/>
<path d="M218.575 202.491C219.494 200.653 221.791 197.896 224.089 197.896C228.224 197.896 230.062 201.572 230.062 206.167C230.062 210.762 228.224 214.898 224.089 214.898C221.791 214.898 220.413 212.6 219.034 211.222C218.575 210.762 218.115 211.222 218.575 211.681C219.953 213.06 222.251 216.736 222.251 219.952C222.251 223.628 219.953 228.223 216.277 228.223C212.601 228.223 210.304 223.628 210.304 219.952C210.304 216.736 212.601 213.06 213.98 211.681C214.439 211.222 213.98 210.762 213.52 211.222C212.142 212.6 210.763 214.898 208.466 214.898C204.33 214.898 202.492 210.762 202.492 206.167C202.492 201.572 204.33 197.896 208.466 197.896C210.763 197.896 213.061 200.653 213.98 202.491C214.439 202.951 214.439 202.491 214.439 202.032C213.98 198.356 213.98 197.437 213.52 194.68C213.061 191.923 211.682 186.868 211.682 186.868C213.98 187.787 218.575 187.787 220.872 186.868C220.872 186.868 219.494 191.923 219.034 194.68C218.575 197.437 218.575 198.356 218.115 202.032C218.115 202.491 218.115 202.951 218.575 202.491Z" fill="black"/>
<path d="M648.298 1H510.856C503.257 1 497.097 7.16035 497.097 14.7595V234.912C497.097 242.511 503.257 248.671 510.856 248.671H648.298C655.897 248.671 662.058 242.511 662.058 234.912V14.7595C662.058 7.16035 655.897 1 648.298 1Z" fill="white" stroke="black"/>
<path d="M506.057 14.5557V21.4482V23.7457H510.652C511.924 23.7457 512.949 24.7704 512.949 26.0432V32.9357C512.949 34.2086 511.924 35.2332 510.652 35.2332C509.379 35.2332 508.354 34.2086 508.354 32.9357V30.6382H506.057V32.9357C506.057 35.4814 508.106 37.5307 510.652 37.5307C513.197 37.5307 515.247 35.4814 515.247 32.9357V26.0432C515.247 23.4976 513.197 21.4482 510.652 21.4482H508.354V16.8532H510.652H515.247V14.5557H510.652H508.354H506.057Z" fill="black"/>
<path d="M653.096 235.117V228.224V225.927H648.501C647.228 225.927 646.204 224.902 646.204 223.629V216.737C646.204 215.464 647.228 214.439 648.501 214.439C649.774 214.439 650.799 215.464 650.799 216.737V219.034H653.096V216.737C653.096 214.191 651.047 212.142 648.501 212.142C645.956 212.142 643.906 214.191 643.906 216.737V223.629C643.906 226.175 645.956 228.224 648.501 228.224H650.799V232.819H648.501H643.906V235.117H648.501H650.799H653.096Z" fill="black"/>
<path d="M540.524 47.1721C540.98 49.0119 542.819 53.6196 546.027 53.6196C550.162 53.6196 552.002 49.94 552.002 45.3486C552.002 42.1248 550.83 40.0082 549.706 37.5334C548.518 34.8958 546.776 32.535 545.115 30.1742C542.982 27.1458 538.228 21.4473 538.228 21.4473C538.228 21.4473 533.457 27.1458 531.325 30.1742C529.664 32.535 527.922 34.8958 526.733 37.5334C525.626 40.0082 524.438 42.1248 524.438 45.3486C524.438 49.94 526.277 53.6196 530.413 53.6196C533.62 53.6196 535.46 49.0119 535.932 47.1721C536.388 46.7162 536.388 47.1721 536.388 47.6443C535.932 51.3076 535.932 52.2357 535.46 54.9873C535.004 57.7551 533.62 62.8024 533.62 62.8024C535.932 61.8907 540.524 61.8907 542.819 62.8024C542.819 62.8024 541.435 57.7551 540.98 54.9873C540.524 52.2357 540.524 51.3076 540.068 47.6443C540.068 47.1721 540.068 46.7162 540.524 47.1721Z" fill="black"/>
<path d="M623.234 47.1721C623.69 49.0119 625.529 53.6196 628.737 53.6196C632.872 53.6196 634.712 49.94 634.712 45.3486C634.712 42.1248 633.54 40.0082 632.416 37.5334C631.228 34.8958 629.486 32.535 627.825 30.1742C625.692 27.1458 620.938 21.4473 620.938 21.4473C620.938 21.4473 616.167 27.1458 614.035 30.1742C612.374 32.535 610.632 34.8958 609.443 37.5334C608.336 40.0082 607.147 42.1248 607.147 45.3486C607.147 49.94 608.987 53.6196 613.123 53.6196C616.33 53.6196 618.17 49.0119 618.642 47.1721C619.098 46.7162 619.098 47.1721 619.098 47.6443C618.642 51.3076 618.642 52.2357 618.17 54.9873C617.714 57.7551 616.33 62.8024 616.33 62.8024C618.642 61.8907 623.234 61.8907 625.529 62.8024C625.529 62.8024 624.145 57.7551 623.69 54.9873C623.234 52.2357 623.234 51.3076 622.778 47.6443C622.778 47.1721 622.778 46.7162 623.234 47.1721Z" fill="black"/>
<path d="M581.878 129.882C582.334 131.722 584.174 136.33 587.381 136.33C591.517 136.33 593.357 132.65 593.357 128.059C593.357 124.835 592.184 122.718 591.061 120.243C589.872 117.606 588.13 115.245 586.47 112.884C584.337 109.856 579.582 104.157 579.582 104.157C579.582 104.157 574.812 109.856 572.679 112.884C571.018 115.245 569.276 117.606 568.088 120.243C566.981 122.718 565.792 124.835 565.792 128.059C565.792 132.65 567.632 136.33 571.767 136.33C574.975 136.33 576.815 131.722 577.287 129.882C577.743 129.426 577.743 129.882 577.743 130.354C577.287 134.018 577.287 134.946 576.815 137.697C576.359 140.465 574.975 145.512 574.975 145.512C577.287 144.601 581.878 144.601 584.174 145.512C584.174 145.512 582.79 140.465 582.334 137.697C581.878 134.946 581.878 134.018 581.422 130.354C581.422 129.882 581.422 129.426 581.878 129.882Z" fill="black"/>
<path d="M540.524 202.499C540.98 200.659 542.819 196.051 546.027 196.051C550.162 196.051 552.002 199.731 552.002 204.322C552.002 207.546 550.83 209.663 549.706 212.137C548.518 214.775 546.776 217.136 545.115 219.497C542.982 222.525 538.228 228.224 538.228 228.224C538.228 228.224 533.457 222.525 531.325 219.497C529.664 217.136 527.922 214.775 526.733 212.137C525.626 209.663 524.438 207.546 524.438 204.322C524.438 199.731 526.277 196.051 530.413 196.051C533.62 196.051 535.46 200.659 535.932 202.499C536.388 202.955 536.388 202.499 536.388 202.027C535.932 198.363 535.932 197.435 535.46 194.684C535.004 191.916 533.62 186.868 533.62 186.868C535.932 187.78 540.524 187.78 542.819 186.868C542.819 186.868 541.435 191.916 540.98 194.684C540.524 197.435 540.524 198.363 540.068 202.027C540.068 202.499 540.068 202.955 540.524 202.499Z" fill="black"/>
<path d="M623.234 202.499C623.69 200.659 625.529 196.051 628.737 196.051C632.872 196.051 634.712 199.731 634.712 204.322C634.712 207.546 633.54 209.663 632.416 212.137C631.228 214.775 629.486 217.136 627.825 219.497C625.692 222.525 620.938 228.224 620.938 228.224C620.938 228.224 616.167 222.525 614.035 219.497C612.374 217.136 610.632 214.775 609.443 212.137C608.336 209.663 607.147 207.546 607.147 204.322C607.147 199.731 608.987 196.051 613.123 196.051C616.33 196.051 618.17 200.659 618.642 202.499C619.098 202.955 619.098 202.499 619.098 202.027C618.642 198.363 618.642 197.435 618.17 194.684C617.714 191.916 616.33 186.868 616.33 186.868C618.642 187.78 623.234 187.78 625.529 186.868C625.529 186.868 624.145 191.916 623.69 194.684C623.234 197.435 623.234 198.363 622.778 202.027C622.778 202.499 622.778 202.955 623.234 202.499Z" fill="black"/>
<path d="M511.8 54.9901C512.03 55.9091 512.949 58.2066 514.557 58.2066C516.625 58.2066 517.544 56.3686 517.544 54.0711C517.544 52.4628 516.951 51.4031 516.395 50.1653C515.803 48.8473 514.929 47.6708 514.098 46.4893C513.03 44.9734 510.651 42.124 510.651 42.124C510.651 42.124 508.272 44.9734 507.205 46.4893C506.373 47.6708 505.5 48.8473 504.908 50.1653C504.351 51.4031 503.759 52.4628 503.759 54.0711C503.759 56.3686 504.678 58.2066 506.746 58.2066C508.354 58.2066 509.273 55.9091 509.503 54.9901C509.732 54.7603 509.732 54.9901 509.732 55.2198C509.503 57.0578 509.503 57.5173 509.273 58.8958C509.043 60.2743 508.354 62.8016 508.354 62.8016C509.503 62.3421 511.8 62.3421 512.949 62.8016C512.949 62.8016 512.26 60.2743 512.03 58.8958C511.8 57.5173 511.8 57.0578 511.57 55.2198C511.57 54.9901 511.57 54.7603 511.8 54.9901Z" fill="black"/>
<path d="M649.652 194.68C649.881 193.761 650.8 191.463 652.409 191.463C654.476 191.463 655.395 193.301 655.395 195.599C655.395 197.207 654.803 198.267 654.247 199.504C653.654 200.822 652.781 201.999 651.949 203.18C650.882 204.696 648.503 207.546 648.503 207.546C648.503 207.546 646.124 204.696 645.057 203.18C644.225 201.999 643.351 200.822 642.759 199.504C642.203 198.267 641.61 197.207 641.61 195.599C641.61 193.301 642.529 191.463 644.597 191.463C646.205 191.463 647.124 193.761 647.354 194.68C647.584 194.909 647.584 194.68 647.584 194.45C647.354 192.612 647.354 192.152 647.124 190.774C646.895 189.395 646.205 186.868 646.205 186.868C647.354 187.328 649.652 187.328 650.8 186.868C650.8 186.868 650.111 189.395 649.881 190.774C649.652 192.152 649.652 192.612 649.422 194.45C649.422 194.68 649.422 194.909 649.652 194.68Z" fill="black"/>
<path d="M782.932 1L645.49 1C637.891 1 631.73 7.16035 631.73 14.7595V234.912C631.73 242.511 637.891 248.671 645.49 248.671H782.932C790.531 248.671 796.692 242.511 796.692 234.912V14.7595C796.692 7.16035 790.531 1 782.932 1Z" fill="white" stroke="black"/>
<path d="M645.285 14.5557C642.74 14.5557 640.69 16.605 640.69 19.1507V21.4482C640.69 22.8283 641.298 24.0536 642.256 24.8945C641.298 25.7353 640.69 26.9606 640.69 28.3407V32.9357C640.69 35.4814 642.74 37.5307 645.285 37.5307C647.831 37.5307 649.88 35.4814 649.88 32.9357V28.3407C649.88 26.9606 649.273 25.7353 648.315 24.8945C649.273 24.0536 649.88 22.8283 649.88 21.4482V19.1507C649.88 16.605 647.831 14.5557 645.285 14.5557ZM645.285 16.8532C646.558 16.8532 647.583 17.8779 647.583 19.1507V21.4482C647.583 22.721 646.558 23.7457 645.285 23.7457C644.013 23.7457 642.988 22.721 642.988 21.4482V19.1507C642.988 17.8779 644.013 16.8532 645.285 16.8532ZM645.285 26.0432C646.558 26.0432 647.583 27.0679 647.583 28.3407V32.9357C647.583 34.2086 646.558 35.2332 645.285 35.2332C644.013 35.2332 642.988 34.2086 642.988 32.9357V28.3407C642.988 27.0679 644.013 26.0432 645.285 26.0432Z" fill="#FF5555"/>
<path d="M783.136 235.117C780.59 235.117 778.541 233.067 778.541 230.522V228.224C778.541 226.844 779.149 225.619 780.106 224.778C779.149 223.937 778.541 222.712 778.541 221.332V216.737C778.541 214.191 780.59 212.142 783.136 212.142C785.682 212.142 787.731 214.191 787.731 216.737V221.332C787.731 222.712 787.123 223.937 786.166 224.778C787.123 225.619 787.731 226.844 787.731 228.224V230.522C787.731 233.067 785.682 235.117 783.136 235.117ZM783.136 232.819C784.409 232.819 785.434 231.795 785.434 230.522V228.224C785.434 226.951 784.409 225.927 783.136 225.927C781.863 225.927 780.839 226.951 780.839 228.224V230.522C780.839 231.795 781.863 232.819 783.136 232.819ZM783.136 223.629C784.409 223.629 785.434 222.604 785.434 221.332V216.737C785.434 215.464 784.409 214.439 783.136 214.439C781.863 214.439 780.839 215.464 780.839 216.737V221.332C780.839 222.604 781.863 223.629 783.136 223.629Z" fill="#FF5555"/>
<path d="M782.907 203.41C782.907 205.948 781.594 207.546 779.69 207.546C777.787 207.546 776.244 205.488 776.244 202.951C776.252 202.731 776.248 202.516 776.244 202.305C776.244 200.628 776.859 199.001 777.393 197.48C777.942 195.915 778.733 194.543 779.475 193.143C780.624 190.975 783.137 186.868 783.137 186.868C783.137 186.868 785.649 190.975 786.798 193.143C787.54 194.543 788.332 195.915 788.88 197.48C789.414 199.001 790.029 200.628 790.029 202.305C790.023 202.528 790.025 202.744 790.029 202.951C790.029 205.488 788.486 207.546 786.583 207.546C784.68 207.546 783.366 205.948 783.366 203.41C783.366 202.951 782.907 202.951 782.907 203.41Z" fill="#FF5555"/>
<path d="M672.397 29.7183C672.397 24.6428 669.77 21.4473 665.964 21.4473C662.157 21.4473 659.071 25.5618 659.071 30.6373C659.087 31.0764 659.08 31.5063 659.071 31.9296C659.071 35.2833 660.301 38.5358 661.369 41.5792C662.467 44.7088 664.049 47.4519 665.533 50.2523C667.831 54.5897 672.856 62.8024 672.856 62.8024C672.856 62.8024 677.882 54.5897 680.18 50.2523C681.663 47.4519 683.246 44.7088 684.344 41.5792C685.411 38.5358 686.641 35.2833 686.641 31.9296C686.628 31.4819 686.633 31.0499 686.641 30.6373C686.641 25.5618 683.555 21.4473 679.749 21.4473C675.942 21.4473 673.316 24.6428 673.316 29.7183C673.316 30.6373 672.397 30.6373 672.397 29.7183Z" fill="#FF5555"/>
<path d="M755.108 29.7183C755.108 24.6428 752.481 21.4473 748.675 21.4473C744.868 21.4473 741.782 25.5618 741.782 30.6373C741.798 31.0764 741.791 31.5063 741.782 31.9296C741.782 35.2833 743.012 38.5358 744.08 41.5792C745.177 44.7088 746.76 47.4519 748.244 50.2523C750.542 54.5897 755.567 62.8024 755.567 62.8024C755.567 62.8024 760.593 54.5897 762.891 50.2523C764.374 47.4519 765.957 44.7088 767.055 41.5792C768.122 38.5358 769.352 35.2833 769.352 31.9296C769.339 31.4819 769.344 31.0499 769.352 30.6373C769.352 25.5618 766.266 21.4473 762.46 21.4473C758.653 21.4473 756.027 24.6428 756.027 29.7183C756.027 30.6373 755.108 30.6373 755.108 29.7183Z" fill="#FF5555"/>
<path d="M713.751 71.0747C713.751 65.9992 711.125 62.8037 707.318 62.8037C703.512 62.8037 700.426 66.9182 700.426 71.9937C700.442 72.4328 700.434 72.8627 700.426 73.2861C700.426 76.6398 701.656 79.8923 702.723 82.9356C703.821 86.0653 705.404 88.8084 706.888 91.6087C709.186 95.9461 714.211 104.159 714.211 104.159C714.211 104.159 719.236 95.9461 721.534 91.6087C723.018 88.8084 724.601 86.0653 725.698 82.9356C726.766 79.8923 727.996 76.6398 727.996 73.2861C727.983 72.8384 727.987 72.4063 727.996 71.9937C727.996 66.9182 724.91 62.8037 721.103 62.8037C717.297 62.8037 714.67 65.9992 714.67 71.0747C714.67 71.9937 713.751 71.9937 713.751 71.0747Z" fill="#FF5555"/>
<path d="M672.397 112.428C672.397 107.353 669.77 104.157 665.964 104.157C662.157 104.157 659.071 108.272 659.071 113.347C659.087 113.786 659.08 114.216 659.071 114.64C659.071 117.993 660.301 121.246 661.369 124.289C662.467 127.419 664.049 130.162 665.533 132.962C667.831 137.3 672.856 145.512 672.856 145.512C672.856 145.512 677.882 137.3 680.18 132.962C681.663 130.162 683.246 127.419 684.344 124.289C685.411 121.246 686.641 117.993 686.641 114.64C686.628 114.192 686.633 113.76 686.641 113.347C686.641 108.272 683.555 104.157 679.749 104.157C675.942 104.157 673.316 107.353 673.316 112.428C673.316 113.347 672.397 113.347 672.397 112.428Z" fill="#FF5555"/>
<path d="M755.108 112.428C755.108 107.353 752.481 104.157 748.675 104.157C744.868 104.157 741.782 108.272 741.782 113.347C741.798 113.786 741.791 114.216 741.782 114.64C741.782 117.993 743.012 121.246 744.08 124.289C745.177 127.419 746.76 130.162 748.244 132.962C750.542 137.3 755.567 145.512 755.567 145.512C755.567 145.512 760.593 137.3 762.891 132.962C764.374 130.162 765.957 127.419 767.055 124.289C768.122 121.246 769.352 117.993 769.352 114.64C769.339 114.192 769.344 113.76 769.352 113.347C769.352 108.272 766.266 104.157 762.46 104.157C758.653 104.157 756.027 107.353 756.027 112.428C756.027 113.347 755.108 113.347 755.108 112.428Z" fill="#FF5555"/>
<path d="M713.751 178.598C713.751 183.673 711.125 186.869 707.318 186.869C703.512 186.869 700.426 182.754 700.426 177.679C700.442 177.24 700.434 176.81 700.426 176.386C700.426 173.033 701.656 169.78 702.723 166.737C703.821 163.607 705.404 160.864 706.888 158.064C709.186 153.726 714.211 145.514 714.211 145.514C714.211 145.514 719.236 153.726 721.534 158.064C723.018 160.864 724.601 163.607 725.698 166.737C726.766 169.78 727.996 173.033 727.996 176.386C727.983 176.834 727.987 177.266 727.996 177.679C727.996 182.754 724.91 186.869 721.103 186.869C717.297 186.869 714.67 183.673 714.67 178.598C714.67 177.679 713.751 177.679 713.751 178.598Z" fill="#FF5555"/>
<path d="M672.397 219.952C672.397 225.028 669.77 228.223 665.964 228.223C662.157 228.223 659.071 224.109 659.071 219.033C659.087 218.594 659.08 218.164 659.071 217.741C659.071 214.387 660.301 211.135 661.369 208.091C662.467 204.962 664.049 202.219 665.533 199.418C667.831 195.081 672.856 186.868 672.856 186.868C672.856 186.868 677.882 195.081 680.18 199.418C681.663 202.219 683.246 204.962 684.344 208.091C685.411 211.135 686.641 214.387 686.641 217.741C686.628 218.189 686.633 218.621 686.641 219.033C686.641 224.109 683.555 228.223 679.749 228.223C675.942 228.223 673.316 225.028 673.316 219.952C673.316 219.033 672.397 219.033 672.397 219.952Z" fill="#FF5555"/>
<path d="M755.108 219.952C755.108 225.028 752.481 228.223 748.675 228.223C744.868 228.223 741.782 224.109 741.782 219.033C741.798 218.594 741.791 218.164 741.782 217.741C741.782 214.387 743.012 211.135 744.08 208.091C745.177 204.962 746.76 202.219 748.244 199.418C750.542 195.081 755.567 186.868 755.567 186.868C755.567 186.868 760.593 195.081 762.891 199.418C764.374 202.219 765.957 204.962 767.055 208.091C768.122 211.135 769.352 214.387 769.352 217.741C769.339 218.189 769.344 218.621 769.352 219.033C769.352 224.109 766.266 228.223 762.46 228.223C758.653 228.223 756.027 225.028 756.027 219.952C756.027 219.033 755.108 219.033 755.108 219.952Z" fill="#FF5555"/>
<path d="M645.056 46.2595C645.056 43.7218 643.743 42.124 641.84 42.124C639.936 42.124 638.394 44.1813 638.394 46.719C638.402 46.9386 638.398 47.1535 638.394 47.3652C638.394 49.042 639.009 50.6683 639.542 52.19C640.091 53.7548 640.883 55.1264 641.624 56.5265C642.773 58.6952 645.286 62.8016 645.286 62.8016C645.286 62.8016 647.799 58.6952 648.948 56.5265C649.69 55.1264 650.481 53.7548 651.03 52.19C651.564 50.6683 652.179 49.042 652.179 47.3652C652.172 47.1413 652.174 46.9253 652.179 46.719C652.179 44.1813 650.636 42.124 648.732 42.124C646.829 42.124 645.516 43.7218 645.516 46.2595C645.516 46.719 645.056 46.719 645.056 46.2595Z" fill="#FF5555"/>
<path d="M904.241 1H766.799C759.199 1 753.039 7.16035 753.039 14.7595V234.912C753.039 242.511 759.199 248.671 766.799 248.671H904.241C911.84 248.671 918 242.511 918 234.912V14.7595C918 7.16035 911.84 1 904.241 1Z" fill="white" stroke="black"/>
<path d="M759.701 14.5557L757.403 17.7722V20.9887L759.701 17.7722V37.5307H761.998V14.5557H759.701Z" fill="#FF5555"/>
<path d="M768.892 14.5557C766.346 14.5557 764.297 16.605 764.297 19.1507V32.9357C764.297 35.4814 766.346 37.5307 768.892 37.5307C771.438 37.5307 773.487 35.4814 773.487 32.9357V19.1507C773.487 16.605 771.438 14.5557 768.892 14.5557ZM768.892 16.8532C770.165 16.8532 771.189 17.8779 771.189 19.1507V32.9357C771.189 34.2086 770.165 35.2332 768.892 35.2332C767.619 35.2332 766.594 34.2086 766.594 32.9357V19.1507C766.594 17.8779 767.619 16.8532 768.892 16.8532Z" fill="#FF5555"/>
<path d="M911.337 235.116L913.635 231.9V228.683L911.337 231.9V212.141H909.04V235.116H911.337Z" fill="#FF5555"/>
<path d="M902.147 235.116C904.693 235.116 906.742 233.067 906.742 230.521V216.736C906.742 214.191 904.693 212.141 902.147 212.141C899.602 212.141 897.552 214.191 897.552 216.736V230.521C897.552 233.067 899.602 235.116 902.147 235.116ZM902.147 232.819C900.874 232.819 899.85 231.794 899.85 230.521V216.736C899.85 215.463 900.874 214.439 902.147 214.439C903.42 214.439 904.445 215.463 904.445 216.736V230.521C904.445 231.794 903.42 232.819 902.147 232.819Z" fill="#FF5555"/>
<path d="M794.164 21.4473C794.164 21.4473 796.921 28.3398 800.137 32.9348C803.354 37.5298 807.949 42.1248 807.949 42.1248C807.949 42.1248 803.354 46.7199 800.137 51.3149C796.921 55.9099 794.164 62.8024 794.164 62.8024C794.164 62.8024 791.407 55.9099 788.19 51.3149C784.974 46.7199 780.379 42.1248 780.379 42.1248C780.379 42.1248 784.974 37.5298 788.19 32.9348C791.407 28.3398 794.164 21.4473 794.164 21.4473Z" fill="#FF5555"/>
<path d="M876.876 21.4473C876.876 21.4473 879.633 28.3398 882.849 32.9348C886.066 37.5298 890.661 42.1248 890.661 42.1248C890.661 42.1248 886.066 46.7199 882.849 51.3149C879.633 55.9099 876.876 62.8024 876.876 62.8024C876.876 62.8024 874.119 55.9099 870.902 51.3149C867.686 46.7199 863.091 42.1248 863.091 42.1248C863.091 42.1248 867.686 37.5298 870.902 32.9348C874.119 28.3398 876.876 21.4473 876.876 21.4473Z" fill="#FF5555"/>
<path d="M835.519 49.0176C835.519 49.0176 838.276 55.9101 841.493 60.5051C844.709 65.1001 849.304 69.6952 849.304 69.6952C849.304 69.6952 844.709 74.2902 841.493 78.8852C838.276 83.4802 835.519 90.3727 835.519 90.3727C835.519 90.3727 832.762 83.4802 829.546 78.8852C826.329 74.2902 821.734 69.6952 821.734 69.6952C821.734 69.6952 826.329 65.1001 829.546 60.5051C832.762 55.9101 835.519 49.0176 835.519 49.0176Z" fill="#FF5555"/>
<path d="M794.164 76.5869C794.164 76.5869 796.921 83.4794 800.137 88.0745C803.354 92.6695 807.949 97.2645 807.949 97.2645C807.949 97.2645 803.354 101.86 800.137 106.455C796.921 111.05 794.164 117.942 794.164 117.942C794.164 117.942 791.407 111.05 788.19 106.455C784.974 101.86 780.379 97.2645 780.379 97.2645C780.379 97.2645 784.974 92.6695 788.19 88.0745C791.407 83.4794 794.164 76.5869 794.164 76.5869Z" fill="#FF5555"/>
<path d="M876.876 76.5869C876.876 76.5869 879.633 83.4794 882.849 88.0745C886.066 92.6695 890.661 97.2645 890.661 97.2645C890.661 97.2645 886.066 101.86 882.849 106.455C879.633 111.05 876.876 117.942 876.876 117.942C876.876 117.942 874.119 111.05 870.902 106.455C867.686 101.86 863.091 97.2645 863.091 97.2645C863.091 97.2645 867.686 92.6695 870.902 88.0745C874.119 83.4794 876.876 76.5869 876.876 76.5869Z" fill="#FF5555"/>
<path d="M794.164 131.728C794.164 131.728 796.921 138.62 800.137 143.215C803.354 147.81 807.949 152.405 807.949 152.405C807.949 152.405 803.354 157 800.137 161.595C796.921 166.19 794.164 173.083 794.164 173.083C794.164 173.083 791.407 166.19 788.19 161.595C784.974 157 780.379 152.405 780.379 152.405C780.379 152.405 784.974 147.81 788.19 143.215C791.407 138.62 794.164 131.728 794.164 131.728Z" fill="#FF5555"/>
<path d="M876.876 131.728C876.876 131.728 879.633 138.62 882.849 143.215C886.066 147.81 890.661 152.405 890.661 152.405C890.661 152.405 886.066 157 882.849 161.595C879.633 166.19 876.876 173.083 876.876 173.083C876.876 173.083 874.119 166.19 870.902 161.595C867.686 157 863.091 152.405 863.091 152.405C863.091 152.405 867.686 147.81 870.902 143.215C874.119 138.62 876.876 131.728 876.876 131.728Z" fill="#FF5555"/>
<path d="M835.519 159.298C835.519 159.298 838.276 166.19 841.493 170.785C844.709 175.38 849.304 179.975 849.304 179.975C849.304 179.975 844.709 184.57 841.493 189.165C838.276 193.76 835.519 200.653 835.519 200.653C835.519 200.653 832.762 193.76 829.546 189.165C826.329 184.57 821.734 179.975 821.734 179.975C821.734 179.975 826.329 175.38 829.546 170.785C832.762 166.19 835.519 159.298 835.519 159.298Z" fill="#FF5555"/>
<path d="M794.164 186.868C794.164 186.868 796.921 193.761 800.137 198.356C803.354 202.951 807.949 207.546 807.949 207.546C807.949 207.546 803.354 212.141 800.137 216.736C796.921 221.331 794.164 228.223 794.164 228.223C794.164 228.223 791.407 221.331 788.19 216.736C784.974 212.141 780.379 207.546 780.379 207.546C780.379 207.546 784.974 202.951 788.19 198.356C791.407 193.761 794.164 186.868 794.164 186.868Z" fill="#FF5555"/>
<path d="M876.876 186.868C876.876 186.868 879.633 193.761 882.849 198.356C886.066 202.951 890.661 207.546 890.661 207.546C890.661 207.546 886.066 212.141 882.849 216.736C879.633 221.331 876.876 228.223 876.876 228.223C876.876 228.223 874.119 221.331 870.902 216.736C867.686 212.141 863.091 207.546 863.091 207.546C863.091 207.546 867.686 202.951 870.902 198.356C874.119 193.761 876.876 186.868 876.876 186.868Z" fill="#FF5555"/>
<path d="M766.595 42.124C766.595 42.124 767.973 45.5703 769.581 47.8678C771.19 50.1653 773.487 52.4628 773.487 52.4628C773.487 52.4628 771.19 54.7603 769.581 57.0578C767.973 59.3553 766.595 62.8016 766.595 62.8016C766.595 62.8016 765.216 59.3553 763.608 57.0578C762 54.7603 759.702 52.4628 759.702 52.4628C759.702 52.4628 762 50.1653 763.608 47.8678C765.216 45.5703 766.595 42.124 766.595 42.124Z" fill="#FF5555"/>
<path d="M904.445 186.868C904.445 186.868 905.824 190.314 907.432 192.612C909.04 194.909 911.338 197.207 911.338 197.207C911.338 197.207 909.04 199.504 907.432 201.802C905.824 204.099 904.445 207.546 904.445 207.546C904.445 207.546 903.067 204.099 901.458 201.802C899.85 199.504 897.553 197.207 897.553 197.207C897.553 197.207 899.85 194.909 901.458 192.612C903.067 190.314 904.445 186.868 904.445 186.868Z" fill="#FF5555"/>
<path d="M593.849 354C593.708 352.812 593.138 351.891 592.138 351.234C591.138 350.578 589.912 350.25 588.458 350.25C587.396 350.25 586.466 350.422 585.669 350.766C584.88 351.109 584.263 351.582 583.818 352.184C583.38 352.785 583.162 353.469 583.162 354.234C583.162 354.875 583.314 355.426 583.619 355.887C583.931 356.34 584.33 356.719 584.814 357.023C585.298 357.32 585.806 357.566 586.337 357.762C586.869 357.949 587.357 358.102 587.802 358.219L590.24 358.875C590.865 359.039 591.56 359.266 592.326 359.555C593.099 359.844 593.837 360.238 594.541 360.738C595.251 361.23 595.837 361.863 596.298 362.637C596.759 363.41 596.99 364.359 596.99 365.484C596.99 366.781 596.65 367.953 595.97 369C595.298 370.047 594.314 370.879 593.017 371.496C591.728 372.113 590.162 372.422 588.318 372.422C586.599 372.422 585.111 372.145 583.853 371.59C582.603 371.035 581.619 370.262 580.9 369.27C580.189 368.277 579.787 367.125 579.693 365.812H582.693C582.771 366.719 583.076 367.469 583.607 368.062C584.146 368.648 584.826 369.086 585.646 369.375C586.474 369.656 587.365 369.797 588.318 369.797C589.427 369.797 590.423 369.617 591.306 369.258C592.189 368.891 592.888 368.383 593.404 367.734C593.919 367.078 594.177 366.313 594.177 365.437C594.177 364.641 593.955 363.992 593.509 363.492C593.064 362.992 592.478 362.586 591.751 362.273C591.025 361.961 590.24 361.687 589.396 361.453L586.443 360.609C584.568 360.07 583.083 359.301 581.99 358.301C580.896 357.301 580.349 355.992 580.349 354.375C580.349 353.031 580.712 351.859 581.439 350.859C582.173 349.852 583.158 349.07 584.392 348.516C585.634 347.953 587.021 347.672 588.552 347.672C590.099 347.672 591.474 347.949 592.677 348.504C593.88 349.051 594.833 349.801 595.537 350.754C596.248 351.707 596.623 352.789 596.662 354H593.849ZM604.159 361.172V372H601.393V348H604.159V356.812H604.393C604.815 355.883 605.448 355.145 606.292 354.598C607.143 354.043 608.276 353.766 609.69 353.766C610.917 353.766 611.991 354.012 612.913 354.504C613.834 354.988 614.549 355.734 615.057 356.742C615.573 357.742 615.831 359.016 615.831 360.563V372H613.065V360.75C613.065 359.32 612.694 358.215 611.952 357.434C611.217 356.645 610.198 356.25 608.893 356.25C607.987 356.25 607.174 356.441 606.456 356.824C605.745 357.207 605.182 357.766 604.768 358.5C604.362 359.234 604.159 360.125 604.159 361.172ZM620.89 372V354H623.656V372H620.89ZM622.296 351C621.757 351 621.292 350.816 620.902 350.449C620.519 350.082 620.328 349.641 620.328 349.125C620.328 348.609 620.519 348.168 620.902 347.801C621.292 347.434 621.757 347.25 622.296 347.25C622.835 347.25 623.296 347.434 623.679 347.801C624.07 348.168 624.265 348.609 624.265 349.125C624.265 349.641 624.07 350.082 623.679 350.449C623.296 350.816 622.835 351 622.296 351ZM636.737 354V356.344H627.034V354H636.737ZM629.94 372V351.516C629.94 350.484 630.182 349.625 630.667 348.937C631.151 348.25 631.78 347.734 632.553 347.391C633.327 347.047 634.143 346.875 635.002 346.875C635.682 346.875 636.237 346.93 636.667 347.039C637.096 347.148 637.417 347.25 637.627 347.344L636.831 349.734C636.69 349.687 636.495 349.629 636.245 349.559C636.002 349.488 635.682 349.453 635.284 349.453C634.37 349.453 633.709 349.684 633.303 350.145C632.905 350.605 632.706 351.281 632.706 352.172V372H629.94ZM648.441 354V356.344H639.113V354H648.441ZM641.832 349.687H644.597V366.844C644.597 367.625 644.71 368.211 644.937 368.602C645.171 368.984 645.468 369.242 645.828 369.375C646.195 369.5 646.582 369.562 646.988 369.562C647.292 369.562 647.542 369.547 647.738 369.516C647.933 369.477 648.089 369.445 648.207 369.422L648.769 371.906C648.582 371.977 648.32 372.047 647.984 372.117C647.648 372.195 647.222 372.234 646.707 372.234C645.925 372.234 645.16 372.066 644.41 371.73C643.667 371.395 643.05 370.883 642.558 370.195C642.074 369.508 641.832 368.641 641.832 367.594V349.687ZM669.71 354V356.344H660.382V354H669.71ZM663.101 349.687H665.867V366.844C665.867 367.625 665.98 368.211 666.207 368.602C666.441 368.984 666.738 369.242 667.097 369.375C667.464 369.5 667.851 369.562 668.257 369.562C668.562 369.562 668.812 369.547 669.007 369.516C669.203 369.477 669.359 369.445 669.476 369.422L670.039 371.906C669.851 371.977 669.589 372.047 669.253 372.117C668.917 372.195 668.492 372.234 667.976 372.234C667.195 372.234 666.429 372.066 665.679 371.73C664.937 371.395 664.32 370.883 663.828 370.195C663.343 369.508 663.101 368.641 663.101 367.594V349.687ZM680.99 372.375C679.365 372.375 677.939 371.988 676.712 371.215C675.494 370.441 674.541 369.359 673.853 367.969C673.173 366.578 672.833 364.953 672.833 363.094C672.833 361.219 673.173 359.582 673.853 358.184C674.541 356.785 675.494 355.699 676.712 354.926C677.939 354.152 679.365 353.766 680.99 353.766C682.615 353.766 684.037 354.152 685.255 354.926C686.482 355.699 687.435 356.785 688.115 358.184C688.802 359.582 689.146 361.219 689.146 363.094C689.146 364.953 688.802 366.578 688.115 367.969C687.435 369.359 686.482 370.441 685.255 371.215C684.037 371.988 682.615 372.375 680.99 372.375ZM680.99 369.891C682.224 369.891 683.24 369.574 684.037 368.941C684.833 368.309 685.423 367.477 685.806 366.445C686.189 365.414 686.38 364.297 686.38 363.094C686.38 361.891 686.189 360.77 685.806 359.73C685.423 358.691 684.833 357.852 684.037 357.211C683.24 356.57 682.224 356.25 680.99 356.25C679.755 356.25 678.74 356.57 677.943 357.211C677.146 357.852 676.556 358.691 676.173 359.73C675.791 360.77 675.599 361.891 675.599 363.094C675.599 364.297 675.791 365.414 676.173 366.445C676.556 367.477 677.146 368.309 677.943 368.941C678.74 369.574 679.755 369.891 680.99 369.891ZM710.477 354V356.344H701.149V354H710.477ZM703.868 349.687H706.633V366.844C706.633 367.625 706.747 368.211 706.973 368.602C707.208 368.984 707.504 369.242 707.864 369.375C708.231 369.5 708.618 369.562 709.024 369.562C709.329 369.562 709.579 369.547 709.774 369.516C709.969 369.477 710.125 369.445 710.243 369.422L710.805 371.906C710.618 371.977 710.356 372.047 710.02 372.117C709.684 372.195 709.258 372.234 708.743 372.234C707.961 372.234 707.196 372.066 706.446 371.73C705.704 371.395 705.086 370.883 704.594 370.195C704.11 369.508 703.868 368.641 703.868 367.594V349.687ZM717.79 361.172V372H715.024V348H717.79V356.812H718.024C718.446 355.883 719.079 355.145 719.922 354.598C720.774 354.043 721.907 353.766 723.321 353.766C724.547 353.766 725.622 354.012 726.543 354.504C727.465 354.988 728.18 355.734 728.688 356.742C729.204 357.742 729.461 359.016 729.461 360.563V372H726.696V360.75C726.696 359.32 726.325 358.215 725.583 357.434C724.848 356.645 723.829 356.25 722.524 356.25C721.618 356.25 720.805 356.441 720.086 356.824C719.375 357.207 718.813 357.766 718.399 358.5C717.993 359.234 717.79 360.125 717.79 361.172ZM742.068 372.375C740.333 372.375 738.837 371.992 737.58 371.227C736.33 370.453 735.365 369.375 734.685 367.992C734.013 366.602 733.677 364.984 733.677 363.141C733.677 361.297 734.013 359.672 734.685 358.266C735.365 356.852 736.31 355.75 737.521 354.961C738.74 354.164 740.162 353.766 741.787 353.766C742.724 353.766 743.65 353.922 744.564 354.234C745.478 354.547 746.31 355.055 747.06 355.758C747.81 356.453 748.408 357.375 748.853 358.523C749.298 359.672 749.521 361.086 749.521 362.766V363.937H735.646V361.547H746.708C746.708 360.531 746.505 359.625 746.099 358.828C745.701 358.031 745.13 357.402 744.388 356.941C743.654 356.48 742.787 356.25 741.787 356.25C740.685 356.25 739.732 356.523 738.927 357.07C738.13 357.609 737.517 358.312 737.087 359.18C736.658 360.047 736.443 360.977 736.443 361.969V363.563C736.443 364.922 736.677 366.074 737.146 367.02C737.623 367.957 738.283 368.672 739.126 369.164C739.97 369.648 740.951 369.891 742.068 369.891C742.794 369.891 743.451 369.789 744.037 369.586C744.63 369.375 745.142 369.063 745.572 368.648C746.001 368.227 746.333 367.703 746.568 367.078L749.24 367.828C748.958 368.734 748.486 369.531 747.822 370.219C747.158 370.898 746.337 371.43 745.361 371.812C744.384 372.188 743.287 372.375 742.068 372.375ZM763.009 372V354H765.681V356.719H765.869C766.197 355.828 766.791 355.105 767.65 354.551C768.509 353.996 769.478 353.719 770.556 353.719C770.759 353.719 771.013 353.723 771.318 353.73C771.623 353.738 771.853 353.75 772.009 353.766V356.578C771.916 356.555 771.701 356.52 771.365 356.473C771.037 356.418 770.689 356.391 770.322 356.391C769.447 356.391 768.666 356.574 767.978 356.941C767.298 357.301 766.759 357.801 766.361 358.441C765.97 359.074 765.775 359.797 765.775 360.609V372H763.009ZM775.288 372V354H778.053V372H775.288ZM776.694 351C776.155 351 775.69 350.816 775.299 350.449C774.917 350.082 774.725 349.641 774.725 349.125C774.725 348.609 774.917 348.168 775.299 347.801C775.69 347.434 776.155 347.25 776.694 347.25C777.233 347.25 777.694 347.434 778.077 347.801C778.467 348.168 778.663 348.609 778.663 349.125C778.663 349.641 778.467 350.082 778.077 350.449C777.694 350.816 777.233 351 776.694 351ZM790.384 379.125C789.048 379.125 787.9 378.953 786.939 378.609C785.978 378.273 785.177 377.828 784.537 377.273C783.904 376.727 783.4 376.141 783.025 375.516L785.228 373.969C785.478 374.297 785.794 374.672 786.177 375.094C786.56 375.523 787.083 375.895 787.748 376.207C788.419 376.527 789.298 376.687 790.384 376.687C791.837 376.687 793.037 376.336 793.982 375.633C794.927 374.93 795.4 373.828 795.4 372.328V368.672H795.166C794.962 369 794.673 369.406 794.298 369.891C793.931 370.367 793.4 370.793 792.705 371.168C792.017 371.535 791.087 371.719 789.916 371.719C788.462 371.719 787.158 371.375 786.001 370.688C784.853 370 783.943 369 783.271 367.687C782.607 366.375 782.275 364.781 782.275 362.906C782.275 361.062 782.599 359.457 783.248 358.09C783.896 356.715 784.798 355.652 785.955 354.902C787.111 354.145 788.447 353.766 789.962 353.766C791.134 353.766 792.064 353.961 792.751 354.352C793.447 354.734 793.978 355.172 794.345 355.664C794.72 356.148 795.009 356.547 795.212 356.859H795.494V354H798.166V372.516C798.166 374.062 797.814 375.32 797.111 376.289C796.416 377.266 795.478 377.98 794.298 378.434C793.126 378.895 791.822 379.125 790.384 379.125ZM790.291 369.234C791.4 369.234 792.337 368.98 793.103 368.473C793.869 367.965 794.451 367.234 794.849 366.281C795.248 365.328 795.447 364.187 795.447 362.859C795.447 361.562 795.251 360.418 794.861 359.426C794.47 358.434 793.892 357.656 793.126 357.094C792.361 356.531 791.416 356.25 790.291 356.25C789.119 356.25 788.142 356.547 787.361 357.141C786.587 357.734 786.005 358.531 785.615 359.531C785.232 360.531 785.041 361.641 785.041 362.859C785.041 364.109 785.236 365.215 785.626 366.176C786.025 367.129 786.611 367.879 787.384 368.426C788.166 368.965 789.134 369.234 790.291 369.234ZM805.994 361.172V372H803.228V348H805.994V356.812H806.228C806.65 355.883 807.283 355.145 808.126 354.598C808.978 354.043 810.111 353.766 811.525 353.766C812.751 353.766 813.826 354.012 814.748 354.504C815.669 354.988 816.384 355.734 816.892 356.742C817.408 357.742 817.666 359.016 817.666 360.563V372H814.9V360.75C814.9 359.32 814.529 358.215 813.787 357.434C813.052 356.645 812.033 356.25 810.728 356.25C809.822 356.25 809.009 356.441 808.291 356.824C807.58 357.207 807.017 357.766 806.603 358.5C806.197 359.234 805.994 360.125 805.994 361.172ZM830.553 354V356.344H821.225V354H830.553ZM823.944 349.687H826.709V366.844C826.709 367.625 826.823 368.211 827.049 368.602C827.284 368.984 827.581 369.242 827.94 369.375C828.307 369.5 828.694 369.562 829.1 369.562C829.405 369.562 829.655 369.547 829.85 369.516C830.045 369.477 830.202 369.445 830.319 369.422L830.881 371.906C830.694 371.977 830.432 372.047 830.096 372.117C829.76 372.195 829.334 372.234 828.819 372.234C828.038 372.234 827.272 372.066 826.522 371.73C825.78 371.395 825.163 370.883 824.67 370.195C824.186 369.508 823.944 368.641 823.944 367.594V349.687Z" fill="white"/>
<path d="M365.837 79C365.696 77.8125 365.126 76.8906 364.126 76.2344C363.126 75.5781 361.899 75.25 360.446 75.25C359.384 75.25 358.454 75.4219 357.657 75.7656C356.868 76.1094 356.251 76.582 355.806 77.1836C355.368 77.7852 355.149 78.4687 355.149 79.2344C355.149 79.875 355.302 80.4258 355.606 80.8867C355.919 81.3398 356.317 81.7187 356.802 82.0234C357.286 82.3203 357.794 82.5664 358.325 82.7617C358.856 82.9492 359.345 83.1016 359.79 83.2187L362.228 83.875C362.853 84.0391 363.548 84.2656 364.313 84.5547C365.087 84.8437 365.825 85.2383 366.528 85.7383C367.239 86.2305 367.825 86.8633 368.286 87.6367C368.747 88.4102 368.978 89.3594 368.978 90.4844C368.978 91.7812 368.638 92.9531 367.958 94C367.286 95.0469 366.302 95.8789 365.005 96.4961C363.716 97.1133 362.149 97.4219 360.306 97.4219C358.587 97.4219 357.099 97.1445 355.841 96.5898C354.591 96.0352 353.606 95.2617 352.888 94.2695C352.177 93.2773 351.774 92.125 351.681 90.8125H354.681C354.759 91.7187 355.063 92.4687 355.595 93.0625C356.134 93.6484 356.813 94.0859 357.634 94.375C358.462 94.6562 359.353 94.7969 360.306 94.7969C361.415 94.7969 362.411 94.6172 363.294 94.2578C364.177 93.8906 364.876 93.3828 365.392 92.7344C365.907 92.0781 366.165 91.3125 366.165 90.4375C366.165 89.6406 365.942 88.9922 365.497 88.4922C365.052 87.9922 364.466 87.5859 363.739 87.2734C363.013 86.9609 362.228 86.6875 361.384 86.4531L358.431 85.6094C356.556 85.0703 355.071 84.3008 353.978 83.3008C352.884 82.3008 352.337 80.9922 352.337 79.375C352.337 78.0312 352.7 76.8594 353.427 75.8594C354.161 74.8516 355.146 74.0703 356.38 73.5156C357.622 72.9531 359.009 72.6719 360.54 72.6719C362.087 72.6719 363.462 72.9492 364.665 73.5039C365.868 74.0508 366.821 74.8008 367.524 75.7539C368.235 76.707 368.61 77.7891 368.649 79H365.837ZM373.381 103.75V79H376.053V81.8594H376.381C376.584 81.5469 376.865 81.1484 377.225 80.6641C377.592 80.1719 378.115 79.7344 378.795 79.3516C379.482 78.9609 380.412 78.7656 381.584 78.7656C383.1 78.7656 384.436 79.1445 385.592 79.9023C386.748 80.6602 387.65 81.7344 388.299 83.125C388.947 84.5156 389.271 86.1562 389.271 88.0469C389.271 89.9531 388.947 91.6055 388.299 93.0039C387.65 94.3945 386.752 95.4727 385.604 96.2383C384.455 96.9961 383.131 97.375 381.631 97.375C380.475 97.375 379.549 97.1836 378.854 96.8008C378.158 96.4102 377.623 95.9687 377.248 95.4766C376.873 94.9766 376.584 94.5625 376.381 94.2344H376.146V103.75H373.381ZM376.1 88C376.1 89.3594 376.299 90.5586 376.697 91.5977C377.096 92.6289 377.678 93.4375 378.443 94.0234C379.209 94.6016 380.146 94.8906 381.256 94.8906C382.412 94.8906 383.377 94.5859 384.15 93.9766C384.932 93.3594 385.518 92.5312 385.908 91.4922C386.307 90.4453 386.506 89.2812 386.506 88C386.506 86.7344 386.311 85.5937 385.92 84.5781C385.537 83.5547 384.955 82.7461 384.174 82.1523C383.4 81.5508 382.428 81.25 381.256 81.25C380.131 81.25 379.186 81.5352 378.42 82.1055C377.654 82.668 377.076 83.457 376.686 84.4727C376.295 85.4805 376.1 86.6562 376.1 88ZM398.787 97.4219C397.646 97.4219 396.611 97.207 395.682 96.7773C394.752 96.3398 394.014 95.7109 393.467 94.8906C392.92 94.0625 392.646 93.0625 392.646 91.8906C392.646 90.8594 392.85 90.0234 393.256 89.3828C393.662 88.7344 394.205 88.2266 394.885 87.8594C395.564 87.4922 396.314 87.2187 397.135 87.0391C397.963 86.8516 398.795 86.7031 399.631 86.5938C400.725 86.4531 401.611 86.3477 402.291 86.2773C402.979 86.1992 403.479 86.0703 403.791 85.8906C404.111 85.7109 404.271 85.3984 404.271 84.9531V84.8594C404.271 83.7031 403.955 82.8047 403.322 82.1641C402.697 81.5234 401.748 81.2031 400.475 81.2031C399.154 81.2031 398.119 81.4922 397.369 82.0703C396.619 82.6484 396.092 83.2656 395.787 83.9219L393.162 82.9844C393.631 81.8906 394.256 81.0391 395.037 80.4297C395.826 79.8125 396.686 79.3828 397.615 79.1406C398.553 78.8906 399.475 78.7656 400.381 78.7656C400.959 78.7656 401.623 78.8359 402.373 78.9766C403.131 79.1094 403.861 79.3867 404.564 79.8086C405.275 80.2305 405.865 80.8672 406.334 81.7187C406.803 82.5703 407.037 83.7109 407.037 85.1406V97H404.271V94.5625H404.131C403.943 94.9531 403.631 95.3711 403.193 95.8164C402.756 96.2617 402.174 96.6406 401.447 96.9531C400.721 97.2656 399.834 97.4219 398.787 97.4219ZM399.209 94.9375C400.303 94.9375 401.225 94.7227 401.975 94.293C402.732 93.8633 403.303 93.3086 403.686 92.6289C404.076 91.9492 404.271 91.2344 404.271 90.4844V87.9531C404.154 88.0937 403.896 88.2227 403.498 88.3398C403.107 88.4492 402.654 88.5469 402.139 88.6328C401.631 88.7109 401.135 88.7812 400.65 88.8437C400.174 88.8984 399.787 88.9453 399.49 88.9844C398.771 89.0781 398.1 89.2305 397.475 89.4414C396.857 89.6445 396.357 89.9531 395.975 90.3672C395.6 90.7734 395.412 91.3281 395.412 92.0312C395.412 92.9922 395.768 93.7187 396.479 94.2109C397.197 94.6953 398.107 94.9375 399.209 94.9375ZM419.397 97.375C417.71 97.375 416.257 96.9766 415.038 96.1797C413.819 95.3828 412.882 94.2852 412.226 92.8867C411.569 91.4883 411.241 89.8906 411.241 88.0937C411.241 86.2656 411.577 84.6523 412.249 83.2539C412.929 81.8477 413.874 80.75 415.085 79.9609C416.304 79.1641 417.726 78.7656 419.351 78.7656C420.616 78.7656 421.757 79 422.772 79.4688C423.788 79.9375 424.62 80.5937 425.269 81.4375C425.917 82.2812 426.319 83.2656 426.476 84.3906H423.71C423.499 83.5703 423.03 82.8437 422.304 82.2109C421.585 81.5703 420.616 81.25 419.397 81.25C418.319 81.25 417.374 81.5312 416.562 82.0937C415.757 82.6484 415.128 83.4336 414.675 84.4492C414.229 85.457 414.007 86.6406 414.007 88C414.007 89.3906 414.226 90.6016 414.663 91.6328C415.108 92.6641 415.733 93.4648 416.538 94.0352C417.351 94.6055 418.304 94.8906 419.397 94.8906C420.116 94.8906 420.769 94.7656 421.354 94.5156C421.94 94.2656 422.437 93.9062 422.843 93.4375C423.249 92.9687 423.538 92.4062 423.71 91.75H426.476C426.319 92.8125 425.933 93.7695 425.315 94.6211C424.706 95.4648 423.897 96.1367 422.89 96.6367C421.89 97.1289 420.726 97.375 419.397 97.375ZM438.065 97.375C436.331 97.375 434.835 96.9922 433.577 96.2266C432.327 95.4531 431.362 94.375 430.683 92.9922C430.011 91.6016 429.675 89.9844 429.675 88.1406C429.675 86.2969 430.011 84.6719 430.683 83.2656C431.362 81.8516 432.308 80.75 433.519 79.9609C434.737 79.1641 436.159 78.7656 437.784 78.7656C438.722 78.7656 439.647 78.9219 440.562 79.2344C441.476 79.5469 442.308 80.0547 443.058 80.7578C443.808 81.4531 444.405 82.375 444.851 83.5234C445.296 84.6719 445.519 86.0859 445.519 87.7656V88.9375H431.644V86.5469H442.706C442.706 85.5312 442.503 84.625 442.097 83.8281C441.698 83.0312 441.128 82.4023 440.386 81.9414C439.651 81.4805 438.784 81.25 437.784 81.25C436.683 81.25 435.729 81.5234 434.925 82.0703C434.128 82.6094 433.515 83.3125 433.085 84.1797C432.655 85.0469 432.44 85.9766 432.44 86.9687V88.5625C432.44 89.9219 432.675 91.0742 433.144 92.0195C433.62 92.957 434.28 93.6719 435.124 94.1641C435.968 94.6484 436.948 94.8906 438.065 94.8906C438.792 94.8906 439.448 94.7891 440.034 94.5859C440.628 94.375 441.14 94.0625 441.569 93.6484C441.999 93.2266 442.331 92.7031 442.565 92.0781L445.237 92.8281C444.956 93.7344 444.483 94.5312 443.819 95.2187C443.155 95.8984 442.335 96.4297 441.358 96.8125C440.382 97.1875 439.284 97.375 438.065 97.375ZM350.185 119V121.344H340.482V119H350.185ZM343.388 137V116.516C343.388 115.484 343.63 114.625 344.115 113.937C344.599 113.25 345.228 112.734 346.001 112.391C346.775 112.047 347.591 111.875 348.451 111.875C349.13 111.875 349.685 111.93 350.115 112.039C350.544 112.148 350.865 112.25 351.076 112.344L350.279 114.734C350.138 114.687 349.943 114.629 349.693 114.559C349.451 114.488 349.13 114.453 348.732 114.453C347.818 114.453 347.158 114.684 346.751 115.145C346.353 115.605 346.154 116.281 346.154 117.172V137H343.388ZM360.632 137.375C359.007 137.375 357.582 136.988 356.355 136.215C355.136 135.441 354.183 134.359 353.496 132.969C352.816 131.578 352.476 129.953 352.476 128.094C352.476 126.219 352.816 124.582 353.496 123.184C354.183 121.785 355.136 120.699 356.355 119.926C357.582 119.152 359.007 118.766 360.632 118.766C362.257 118.766 363.679 119.152 364.898 119.926C366.125 120.699 367.078 121.785 367.757 123.184C368.445 124.582 368.789 126.219 368.789 128.094C368.789 129.953 368.445 131.578 367.757 132.969C367.078 134.359 366.125 135.441 364.898 136.215C363.679 136.988 362.257 137.375 360.632 137.375ZM360.632 134.891C361.867 134.891 362.882 134.574 363.679 133.941C364.476 133.309 365.066 132.477 365.449 131.445C365.832 130.414 366.023 129.297 366.023 128.094C366.023 126.891 365.832 125.77 365.449 124.73C365.066 123.691 364.476 122.852 363.679 122.211C362.882 121.57 361.867 121.25 360.632 121.25C359.398 121.25 358.382 121.57 357.585 122.211C356.789 122.852 356.199 123.691 355.816 124.73C355.433 125.77 355.242 126.891 355.242 128.094C355.242 129.297 355.433 130.414 355.816 131.445C356.199 132.477 356.789 133.309 357.585 133.941C358.382 134.574 359.398 134.891 360.632 134.891ZM373.01 137V119H375.682V121.719H375.87C376.198 120.828 376.792 120.105 377.651 119.551C378.51 118.996 379.479 118.719 380.557 118.719C380.76 118.719 381.014 118.723 381.319 118.73C381.624 118.738 381.854 118.75 382.01 118.766V121.578C381.917 121.555 381.702 121.52 381.366 121.473C381.038 121.418 380.69 121.391 380.323 121.391C379.448 121.391 378.667 121.574 377.979 121.941C377.299 122.301 376.76 122.801 376.362 123.441C375.971 124.074 375.776 124.797 375.776 125.609V137H373.01ZM397.335 126.172V137H394.57V119H397.242V121.812H397.476C397.898 120.898 398.539 120.164 399.398 119.609C400.257 119.047 401.367 118.766 402.726 118.766C403.945 118.766 405.011 119.016 405.925 119.516C406.839 120.008 407.55 120.758 408.058 121.766C408.566 122.766 408.82 124.031 408.82 125.563V137H406.054V125.75C406.054 124.336 405.687 123.234 404.953 122.445C404.218 121.648 403.21 121.25 401.929 121.25C401.046 121.25 400.257 121.441 399.562 121.824C398.875 122.207 398.332 122.766 397.933 123.5C397.535 124.234 397.335 125.125 397.335 126.172ZM421.42 137.375C419.686 137.375 418.19 136.992 416.932 136.227C415.682 135.453 414.717 134.375 414.038 132.992C413.366 131.602 413.03 129.984 413.03 128.141C413.03 126.297 413.366 124.672 414.038 123.266C414.717 121.852 415.663 120.75 416.874 119.961C418.092 119.164 419.514 118.766 421.139 118.766C422.077 118.766 423.002 118.922 423.917 119.234C424.831 119.547 425.663 120.055 426.413 120.758C427.163 121.453 427.76 122.375 428.206 123.523C428.651 124.672 428.874 126.086 428.874 127.766V128.937H414.999V126.547H426.061C426.061 125.531 425.858 124.625 425.452 123.828C425.053 123.031 424.483 122.402 423.741 121.941C423.006 121.48 422.139 121.25 421.139 121.25C420.038 121.25 419.084 121.523 418.28 122.07C417.483 122.609 416.87 123.312 416.44 124.18C416.01 125.047 415.795 125.977 415.795 126.969V128.563C415.795 129.922 416.03 131.074 416.499 132.02C416.975 132.957 417.635 133.672 418.479 134.164C419.323 134.648 420.303 134.891 421.42 134.891C422.147 134.891 422.803 134.789 423.389 134.586C423.983 134.375 424.495 134.063 424.924 133.648C425.354 133.227 425.686 132.703 425.92 132.078L428.592 132.828C428.311 133.734 427.838 134.531 427.174 135.219C426.51 135.898 425.69 136.43 424.713 136.812C423.737 137.188 422.639 137.375 421.42 137.375ZM437.159 137L431.674 119H434.581L438.471 132.781H438.659L442.502 119H445.456L449.252 132.734H449.44L453.331 119H456.237L450.752 137H448.034L444.096 123.172H443.815L439.877 137H437.159ZM373.716 177.375C372.029 177.375 370.576 176.977 369.357 176.18C368.138 175.383 367.201 174.285 366.544 172.887C365.888 171.488 365.56 169.891 365.56 168.094C365.56 166.266 365.896 164.652 366.568 163.254C367.248 161.848 368.193 160.75 369.404 159.961C370.623 159.164 372.044 158.766 373.669 158.766C374.935 158.766 376.076 159 377.091 159.469C378.107 159.937 378.939 160.594 379.587 161.437C380.236 162.281 380.638 163.266 380.794 164.391H378.029C377.818 163.57 377.349 162.844 376.623 162.211C375.904 161.57 374.935 161.25 373.716 161.25C372.638 161.25 371.693 161.531 370.88 162.094C370.076 162.648 369.447 163.434 368.994 164.449C368.548 165.457 368.326 166.641 368.326 168C368.326 169.391 368.544 170.602 368.982 171.633C369.427 172.664 370.052 173.465 370.857 174.035C371.669 174.605 372.623 174.891 373.716 174.891C374.435 174.891 375.087 174.766 375.673 174.516C376.259 174.266 376.755 173.906 377.162 173.437C377.568 172.969 377.857 172.406 378.029 171.75H380.794C380.638 172.812 380.251 173.77 379.634 174.621C379.025 175.465 378.216 176.137 377.208 176.637C376.208 177.129 375.044 177.375 373.716 177.375ZM390.134 177.422C388.994 177.422 387.958 177.207 387.029 176.777C386.099 176.34 385.361 175.711 384.814 174.891C384.267 174.063 383.994 173.062 383.994 171.891C383.994 170.859 384.197 170.023 384.603 169.383C385.009 168.734 385.552 168.227 386.232 167.859C386.912 167.492 387.662 167.219 388.482 167.039C389.31 166.852 390.142 166.703 390.978 166.594C392.072 166.453 392.958 166.348 393.638 166.277C394.326 166.199 394.826 166.07 395.138 165.891C395.458 165.711 395.619 165.398 395.619 164.953V164.859C395.619 163.703 395.302 162.805 394.669 162.164C394.044 161.523 393.095 161.203 391.822 161.203C390.501 161.203 389.466 161.492 388.716 162.07C387.966 162.648 387.439 163.266 387.134 163.922L384.509 162.984C384.978 161.891 385.603 161.039 386.384 160.43C387.173 159.812 388.033 159.383 388.962 159.141C389.9 158.891 390.822 158.766 391.728 158.766C392.306 158.766 392.97 158.836 393.72 158.977C394.478 159.109 395.208 159.387 395.912 159.809C396.623 160.23 397.212 160.867 397.681 161.719C398.15 162.57 398.384 163.711 398.384 165.141V177H395.619V174.562H395.478C395.291 174.953 394.978 175.371 394.541 175.816C394.103 176.262 393.521 176.641 392.794 176.953C392.068 177.266 391.181 177.422 390.134 177.422ZM390.556 174.938C391.65 174.938 392.572 174.723 393.322 174.293C394.08 173.863 394.65 173.309 395.033 172.629C395.423 171.949 395.619 171.234 395.619 170.484V167.953C395.501 168.094 395.244 168.223 394.845 168.34C394.455 168.449 394.001 168.547 393.486 168.633C392.978 168.711 392.482 168.781 391.998 168.844C391.521 168.898 391.134 168.945 390.837 168.984C390.119 169.078 389.447 169.23 388.822 169.441C388.205 169.645 387.705 169.953 387.322 170.367C386.947 170.773 386.759 171.328 386.759 172.031C386.759 172.992 387.115 173.719 387.826 174.211C388.544 174.695 389.455 174.938 390.556 174.938ZM403.432 177V159H406.104V161.719H406.292C406.62 160.828 407.213 160.105 408.073 159.551C408.932 158.996 409.901 158.719 410.979 158.719C411.182 158.719 411.436 158.723 411.741 158.73C412.045 158.738 412.276 158.75 412.432 158.766V161.578C412.338 161.555 412.124 161.52 411.788 161.473C411.459 161.418 411.112 161.391 410.745 161.391C409.87 161.391 409.088 161.574 408.401 161.941C407.721 162.301 407.182 162.801 406.784 163.441C406.393 164.074 406.198 164.797 406.198 165.609V177H403.432ZM421.959 177.375C420.459 177.375 419.135 176.996 417.987 176.238C416.838 175.473 415.94 174.395 415.292 173.004C414.643 171.605 414.319 169.953 414.319 168.047C414.319 166.156 414.643 164.516 415.292 163.125C415.94 161.734 416.842 160.66 417.999 159.902C419.155 159.145 420.491 158.766 422.006 158.766C423.178 158.766 424.104 158.961 424.784 159.352C425.471 159.734 425.995 160.172 426.354 160.664C426.721 161.148 427.006 161.547 427.209 161.859H427.444V153H430.209V177H427.538V174.234H427.209C427.006 174.562 426.717 174.977 426.342 175.477C425.967 175.969 425.432 176.41 424.737 176.801C424.042 177.184 423.116 177.375 421.959 177.375ZM422.334 174.891C423.444 174.891 424.381 174.602 425.147 174.023C425.913 173.437 426.495 172.629 426.893 171.598C427.292 170.559 427.491 169.359 427.491 168C427.491 166.656 427.295 165.48 426.905 164.473C426.514 163.457 425.936 162.668 425.17 162.105C424.405 161.535 423.459 161.25 422.334 161.25C421.163 161.25 420.186 161.551 419.405 162.152C418.631 162.746 418.049 163.555 417.659 164.578C417.276 165.594 417.084 166.734 417.084 168C417.084 169.281 417.28 170.445 417.67 171.492C418.069 172.531 418.655 173.359 419.428 173.977C420.209 174.586 421.178 174.891 422.334 174.891Z" fill="white"/>
<line y1="-0.5" x2="33" y2="-0.5" transform="matrix(0 1 1 0 853 290)" stroke="white"/>
<line x1="559" y1="322.5" x2="852" y2="322.5" stroke="white"/>
<line y1="-0.5" x2="33" y2="-0.5" transform="matrix(0 1 1 0 559 290)" stroke="white"/>
</svg>
