<svg xmlns="http://www.w3.org/2000/svg" width="645" height="344" fill="none" viewBox="0 0 645 344"><path stroke="#dbdbdb" stroke-width="2" d="M191 102h427c14.359 0 26 11.641 26 26v94H165v-94c0-14.359 11.641-26 26-26ZM644 223v94c0 14.359-11.641 26-26 26H191c-14.359 0-26-11.641-26-26v-94zM285 101v122M285 222v122M405 101v122M405 222v122M526 101v122M526 222v122"/><path fill="#fff" d="M227.442 146.909V176h-3.523v-25.398h-.17l-7.103 4.716v-3.579l7.273-4.83zM214.402 297v-2.557l9.602-10.511a67 67 0 0 0 2.784-3.21q1.094-1.379 1.62-2.586a6.25 6.25 0 0 0 .539-2.556q0-1.535-.738-2.657-.724-1.121-1.989-1.733-1.264-.61-2.841-.61-1.676 0-2.926.696a4.8 4.8 0 0 0-1.917 1.917q-.668 1.236-.668 2.898h-3.352q0-2.557 1.179-4.489a8.2 8.2 0 0 1 3.21-3.011q2.045-1.08 4.588-1.08 2.557 0 4.531 1.08t3.097 2.912 1.122 4.077q0 1.605-.582 3.139-.569 1.52-1.989 3.395-1.407 1.86-3.906 4.545l-6.534 6.989v.227h13.522V297zM334.402 176v-2.557l9.602-10.511a67 67 0 0 0 2.784-3.21q1.094-1.379 1.62-2.586a6.25 6.25 0 0 0 .539-2.556q0-1.535-.738-2.657-.725-1.121-1.989-1.733-1.264-.61-2.841-.61-1.676 0-2.926.696a4.8 4.8 0 0 0-1.917 1.917q-.668 1.236-.668 2.898h-3.352q0-2.557 1.179-4.489a8.2 8.2 0 0 1 3.21-3.011q2.045-1.08 4.588-1.08 2.556 0 4.531 1.08t3.097 2.912 1.122 4.077q0 1.605-.582 3.139-.569 1.52-1.989 3.395-1.407 1.86-3.906 4.545l-6.534 6.989v.227h13.522V176zM343.607 297.398q-2.813 0-5.015-.966-2.187-.966-3.48-2.685-1.278-1.733-1.392-4.02h3.58q.113 1.407.966 2.429.852 1.009 2.23 1.563 1.377.554 3.054.554 1.875 0 3.324-.654 1.448-.652 2.272-1.818.825-1.164.824-2.699 0-1.605-.795-2.826-.796-1.236-2.33-1.932t-3.75-.696h-2.329v-3.125h2.329q1.733 0 3.04-.625 1.321-.625 2.06-1.762.752-1.136.752-2.67 0-1.477-.653-2.571-.653-1.093-1.847-1.705-1.179-.61-2.784-.61-1.505 0-2.841.554-1.32.539-2.159 1.576-.837 1.023-.909 2.472h-3.409q.085-2.287 1.378-4.006 1.293-1.733 3.381-2.699 2.102-.966 4.616-.966 2.699 0 4.631 1.094 1.932 1.08 2.969 2.855a7.5 7.5 0 0 1 1.037 3.835q0 2.458-1.293 4.191-1.278 1.732-3.48 2.4v.228q2.756.454 4.304 2.343 1.548 1.875 1.548 4.645 0 2.372-1.293 4.262-1.278 1.874-3.494 2.954t-5.042 1.08M463.607 176.398q-2.813 0-5.015-.966-2.187-.966-3.48-2.685-1.278-1.733-1.392-4.02h3.58q.112 1.407.966 2.429.852 1.009 2.23 1.563 1.377.554 3.054.554 1.875 0 3.324-.654 1.448-.653 2.272-1.818.825-1.164.824-2.699 0-1.605-.795-2.826-.796-1.236-2.33-1.932t-3.75-.696h-2.329v-3.125h2.329q1.733 0 3.04-.625 1.321-.625 2.06-1.762.752-1.136.752-2.67 0-1.478-.653-2.571t-1.847-1.705q-1.179-.61-2.784-.61-1.505 0-2.841.554-1.32.539-2.159 1.576-.837 1.023-.909 2.472h-3.409q.085-2.287 1.378-4.006 1.293-1.733 3.381-2.699 2.102-.966 4.616-.966 2.699 0 4.631 1.094 1.932 1.08 2.969 2.855a7.5 7.5 0 0 1 1.037 3.835q0 2.458-1.293 4.191-1.278 1.733-3.48 2.4v.228q2.756.454 4.304 2.343 1.548 1.876 1.548 4.645 0 2.373-1.293 4.262-1.278 1.875-3.494 2.954t-5.042 1.08M467.442 267.909V297h-3.523v-25.398h-.17l-7.103 4.716v-3.579l7.273-4.83zM283.114 26.094h-6.222q-.17-1.208-.696-2.145a5.5 5.5 0 0 0-1.349-1.62 6 6 0 0 0-1.903-1.022 7.3 7.3 0 0 0-2.316-.355q-2.258 0-3.934 1.122-1.676 1.108-2.6 3.238-.923 2.117-.923 5.142 0 3.111.923 5.228.937 2.115 2.614 3.196t3.878 1.08q1.235 0 2.287-.327a6 6 0 0 0 1.889-.952 5.5 5.5 0 0 0 1.363-1.548q.554-.91.767-2.074l6.222.028a11.3 11.3 0 0 1-1.207 3.864 11.6 11.6 0 0 1-2.571 3.31q-1.605 1.448-3.836 2.3-2.215.84-5.014.839-3.893 0-6.96-1.762-3.054-1.761-4.83-5.1-1.761-3.337-1.761-8.082 0-4.757 1.79-8.096 1.79-3.337 4.858-5.085 3.067-1.761 6.903-1.762 2.529 0 4.688.71 2.174.71 3.849 2.075a10.65 10.65 0 0 1 2.727 3.31q1.066 1.959 1.364 4.488m14.155 19.332q-3.31 0-5.725-1.406-2.4-1.42-3.707-3.949-1.307-2.543-1.307-5.895 0-3.38 1.307-5.909 1.307-2.542 3.707-3.949 2.415-1.42 5.725-1.42t5.71 1.42q2.415 1.407 3.722 3.949 1.306 2.528 1.306 5.91 0 3.351-1.306 5.894-1.308 2.529-3.722 3.949-2.4 1.406-5.71 1.406m.028-4.687q1.506 0 2.514-.853 1.009-.866 1.52-2.358.526-1.49.526-3.395 0-1.902-.526-3.394-.511-1.492-1.52-2.358t-2.514-.867q-1.52 0-2.557.867-1.022.866-1.548 2.358-.511 1.492-.511 3.394 0 1.904.511 3.395.526 1.492 1.548 2.358 1.038.853 2.557.853m28.637-5.029V23.182h6.051V45h-5.81v-3.963h-.227a6.45 6.45 0 0 1-2.458 3.082q-1.704 1.165-4.162 1.165-2.187 0-3.849-.994t-2.599-2.827q-.923-1.832-.938-4.39V23.183h6.051v12.812q.015 1.932 1.037 3.054t2.742 1.122a4.35 4.35 0 0 0 2.045-.497q.952-.511 1.534-1.505.597-.994.583-2.458m16.942-3.324V45h-6.051V23.182h5.767v3.85h.256a6.1 6.1 0 0 1 2.429-3.012q1.704-1.122 4.133-1.122 2.272 0 3.963.994 1.69.994 2.628 2.841.938 1.832.938 4.375V45h-6.052V32.188q.015-2.003-1.022-3.126-1.037-1.136-2.855-1.136-1.222 0-2.16.526-.923.525-1.448 1.534-.511.995-.526 2.4m30.437-9.204v4.545h-13.139v-4.545zm-10.156-5.227h6.051v20.34q0 .84.255 1.307.257.454.711.64.468.184 1.079.184.426 0 .852-.07.427-.086.654-.129l.952 4.503q-.455.143-1.279.327-.824.198-2.003.241-2.187.086-3.835-.582-1.633-.667-2.543-2.074-.909-1.406-.894-3.551zM377.255 45V23.182h6.051V45zm3.039-24.63q-1.349 0-2.315-.896-.952-.909-.952-2.173 0-1.25.952-2.145.966-.909 2.315-.909 1.35 0 2.302.91.965.894.965 2.144 0 1.264-.965 2.173-.952.895-2.302.895m13.91 12.016V45h-6.051V23.182h5.767v3.85h.256a6.1 6.1 0 0 1 2.429-3.012q1.704-1.122 4.133-1.122 2.272 0 3.963.994 1.69.994 2.628 2.841.938 1.832.938 4.375V45h-6.051V32.188q.014-2.003-1.023-3.126-1.037-1.136-2.855-1.136-1.222 0-2.159.526-.924.525-1.449 1.534-.511.995-.526 2.4m28.661 21.25q-2.94 0-5.042-.81-2.088-.795-3.324-2.173-1.236-1.377-1.605-3.096l5.596-.753q.256.654.81 1.222.554.567 1.463.909.924.354 2.244.355 1.975 0 3.253-.966 1.293-.952 1.293-3.196v-3.992h-.256q-.398.91-1.193 1.72t-2.045 1.32q-1.25.511-2.983.511-2.458 0-4.475-1.136-2.002-1.15-3.196-3.508-1.179-2.373-1.179-5.995 0-3.707 1.208-6.193t3.21-3.721a8.3 8.3 0 0 1 4.417-1.236q1.833 0 3.069.625 1.235.61 1.988 1.534.768.91 1.179 1.79h.228v-3.665h6.008v22.031q0 2.785-1.364 4.66-1.363 1.875-3.778 2.812-2.4.951-5.526.951m.128-13.494q1.463 0 2.472-.724 1.023-.74 1.562-2.103.555-1.378.554-3.295 0-1.919-.539-3.324-.54-1.42-1.563-2.202-1.023-.78-2.486-.78-1.491 0-2.514.809-1.023.795-1.548 2.216-.526 1.42-.526 3.28 0 1.89.526 3.268.54 1.363 1.548 2.116 1.023.74 2.514.739M452.734 45h-6.591l10.043-29.09h7.926L474.14 45h-6.591l-7.287-22.443h-.227zm-.412-11.435h15.568v4.802h-15.568zM477.528 45V23.182h5.867v3.807h.227q.597-2.032 2.003-3.068 1.406-1.052 3.238-1.052.455 0 .98.057.526.057.924.156v5.37a8 8 0 0 0-1.179-.228q-.753-.099-1.378-.099-1.335 0-2.386.582a4.3 4.3 0 0 0-1.648 1.591q-.597 1.023-.597 2.358V45zm16.367 0V23.182h5.867v3.807h.227q.596-2.032 2.003-3.068 1.406-1.052 3.238-1.052.454 0 .981.057.525.057.923.156v5.37a8 8 0 0 0-1.179-.228q-.753-.099-1.378-.099-1.335 0-2.386.582a4.3 4.3 0 0 0-1.648 1.591q-.597 1.023-.597 2.358V45zm21.964.412q-2.088 0-3.722-.724-1.633-.739-2.585-2.174-.937-1.449-.937-3.608 0-1.818.667-3.054a5.4 5.4 0 0 1 1.818-1.988 8.8 8.8 0 0 1 2.614-1.137 20 20 0 0 1 3.097-.54 79 79 0 0 0 3.068-.369q1.164-.184 1.69-.54.526-.355.526-1.05v-.086q0-1.35-.852-2.088-.839-.739-2.387-.739-1.633 0-2.599.725-.966.71-1.279 1.79l-5.596-.455q.426-1.99 1.676-3.437 1.25-1.464 3.224-2.245 1.989-.795 4.603-.795 1.818 0 3.48.426 1.676.426 2.968 1.32a6.4 6.4 0 0 1 2.06 2.302q.753 1.392.753 3.338V45h-5.739v-3.026h-.17a6.2 6.2 0 0 1-1.406 1.804q-.881.767-2.117 1.208-1.236.426-2.855.426m1.733-4.176q1.335 0 2.358-.526a4.2 4.2 0 0 0 1.605-1.449q.582-.909.582-2.06v-2.315a3.2 3.2 0 0 1-.781.341q-.483.142-1.094.27a55 55 0 0 1-1.221.213l-1.108.157q-1.066.156-1.861.497t-1.236.923q-.44.568-.44 1.42 0 1.236.895 1.89.909.639 2.301.639m18.203 11.946q-1.15 0-2.159-.185-.994-.17-1.648-.44l1.364-4.517q1.065.327 1.918.355.865.028 1.491-.398.64-.426 1.037-1.449l.355-.923-7.827-22.443h6.364l4.517 16.023h.227l4.56-16.023h6.406l-8.48 24.176q-.61 1.761-1.662 3.068a6.8 6.8 0 0 1-2.628 2.031q-1.59.725-3.835.725M14.244 148.818l7.773 22.04h.307l7.773-22.04h3.323L23.807 175h-3.273l-9.613-26.182zM41.04 175.46q-1.867 0-3.388-.703-1.522-.716-2.416-2.058-.895-1.355-.895-3.273 0-1.687.665-2.736a4.7 4.7 0 0 1 1.777-1.662q1.112-.6 2.454-.894a30 30 0 0 1 2.723-.486q1.79-.231 2.902-.345 1.125-.129 1.637-.422.524-.294.524-1.023v-.102q0-1.893-1.036-2.941-1.023-1.048-3.106-1.048-2.16 0-3.388.946t-1.726 2.02l-2.864-1.023q.768-1.79 2.046-2.787a7.7 7.7 0 0 1 2.812-1.406 11.7 11.7 0 0 1 3.017-.409q.946 0 2.174.23a7 7 0 0 1 2.39.908q1.165.69 1.93 2.084.768 1.393.768 3.732V175h-3.017v-2.659h-.154q-.306.639-1.022 1.368-.717.729-1.905 1.24-1.19.511-2.902.511m.46-2.71q1.79 0 3.017-.703 1.24-.703 1.866-1.815a4.63 4.63 0 0 0 .64-2.34v-2.761q-.192.23-.844.422-.639.178-1.483.319-.83.128-1.624.23-.78.09-1.265.154-1.176.153-2.199.498-1.01.332-1.636 1.01-.614.664-.614 1.816 0 1.572 1.163 2.377 1.176.793 2.979.793m17.064-23.932V175h-3.017v-26.182zm17.9 18.154v-11.608h3.017V175h-3.016v-3.324h-.205q-.69 1.495-2.148 2.544-1.457 1.036-3.682 1.036-1.84 0-3.272-.806-1.432-.817-2.25-2.454-.819-1.65-.819-4.155v-12.477h3.017v12.272q0 2.148 1.202 3.426 1.215 1.28 3.094 1.279 1.125 0 2.288-.575 1.175-.576 1.97-1.765.805-1.188.805-3.029m16.776 8.437q-2.838 0-4.896-1.253-2.045-1.266-3.158-3.528-1.1-2.275-1.099-5.293 0-3.017 1.1-5.318 1.11-2.314 3.093-3.605 1.994-1.304 4.654-1.304 1.533 0 3.03.511a7.5 7.5 0 0 1 2.722 1.662q1.229 1.138 1.956 3.017.729 1.88.729 4.628v1.279H86.235v-2.608h12.068q0-1.662-.665-2.966a5 5 0 0 0-1.866-2.059q-1.203-.753-2.838-.754-1.803 0-3.12.895a5.9 5.9 0 0 0-2.007 2.301 6.76 6.76 0 0 0-.703 3.043v1.738q0 2.225.767 3.772.78 1.533 2.16 2.339 1.38.793 3.21.793 1.188 0 2.147-.333a4.6 4.6 0 0 0 1.675-1.022q.702-.69 1.087-1.713l2.914.818a6.46 6.46 0 0 1-1.547 2.608q-1.086 1.112-2.684 1.738-1.599.615-3.593.614m26.63-15.648-2.711.767a5 5 0 0 0-.754-1.316q-.486-.653-1.329-1.074-.844-.422-2.161-.422-1.803 0-3.004.831-1.19.818-1.189 2.084 0 1.125.818 1.777.819.652 2.557 1.086l2.915.716q2.633.639 3.924 1.956 1.292 1.305 1.292 3.362 0 1.688-.972 3.017-.959 1.33-2.685 2.097t-4.014.767q-3.004 0-4.973-1.304t-2.493-3.81l2.864-.715q.409 1.585 1.547 2.377 1.15.793 3.004.793 2.11 0 3.349-.895 1.253-.907 1.253-2.173 0-1.023-.716-1.713-.716-.703-2.198-1.049l-3.273-.767q-2.698-.639-3.963-1.981-1.253-1.356-1.253-3.388 0-1.662.933-2.94.946-1.28 2.57-2.007 1.636-.729 3.707-.729 2.915 0 4.577 1.278 1.674 1.28 2.378 3.375m7.098 15.444a2.22 2.22 0 0 1-1.624-.678 2.22 2.22 0 0 1-.677-1.624q0-.945.677-1.623a2.22 2.22 0 0 1 1.624-.678q.946 0 1.624.678.677.678.677 1.623 0 .627-.319 1.151a2.4 2.4 0 0 1-.831.844 2.2 2.2 0 0 1-1.151.307m0-14.574a2.22 2.22 0 0 1-1.624-.678 2.22 2.22 0 0 1-.677-1.623q0-.946.677-1.624a2.22 2.22 0 0 1 1.624-.678q.946 0 1.624.678.677.678.677 1.624 0 .626-.319 1.15a2.4 2.4 0 0 1-.831.844 2.2 2.2 0 0 1-1.151.307M24.239 278h-3.17q-.282-1.368-.985-2.403a6.6 6.6 0 0 0-1.688-1.739 7.2 7.2 0 0 0-2.186-1.074 8.7 8.7 0 0 0-2.506-.358q-2.377 0-4.308 1.202-1.918 1.201-3.055 3.541-1.125 2.34-1.125 5.74t1.125 5.74q1.137 2.34 3.055 3.541 1.93 1.202 4.308 1.202 1.305 0 2.506-.358a7.3 7.3 0 0 0 2.186-1.061 6.7 6.7 0 0 0 1.688-1.751q.704-1.048.984-2.404h3.17q-.357 2.007-1.303 3.593a9.8 9.8 0 0 1-2.353 2.697 10.3 10.3 0 0 1-3.157 1.675q-1.74.575-3.72.575-3.35 0-5.958-1.636t-4.104-4.654q-1.495-3.017-1.495-7.159t1.495-7.159 4.104-4.653 5.958-1.637q1.98 0 3.72.576a10.2 10.2 0 0 1 3.157 1.687 9.6 9.6 0 0 1 2.353 2.685q.945 1.572 1.304 3.592m12.691 18.409q-2.66 0-4.666-1.266-1.995-1.265-3.12-3.541-1.111-2.276-1.112-5.318 0-3.068 1.113-5.356 1.125-2.29 3.119-3.554 2.007-1.266 4.666-1.266t4.654 1.266q2.006 1.265 3.119 3.554 1.125 2.288 1.125 5.356 0 3.042-1.125 5.318-1.113 2.276-3.12 3.541-1.994 1.266-4.653 1.266m0-2.71q2.02 0 3.324-1.036 1.305-1.035 1.93-2.723.627-1.687.627-3.656 0-1.968-.627-3.669-.625-1.7-1.93-2.749-1.304-1.048-3.324-1.048t-3.324 1.048q-1.305 1.049-1.93 2.749-.627 1.701-.627 3.669 0 1.969.627 3.656.625 1.688 1.93 2.723 1.304 1.036 3.324 1.036m25.878-5.727v-11.608h3.017V296h-3.017v-3.324h-.204q-.69 1.496-2.148 2.544-1.458 1.036-3.682 1.036-1.84 0-3.273-.806-1.431-.818-2.25-2.454-.818-1.65-.818-4.155v-12.477h3.017v12.272q0 2.148 1.202 3.426 1.214 1.28 3.094 1.279 1.124 0 2.288-.575 1.176-.576 1.969-1.765.805-1.188.805-3.029m11.56-3.784V296h-3.017v-19.636h2.915v3.068h.256a5.6 5.6 0 0 1 2.096-2.404q1.407-.92 3.63-.92 1.995 0 3.491.818 1.496.805 2.327 2.455.83 1.636.83 4.142V296H83.88v-12.273q0-2.313-1.202-3.605-1.201-1.304-3.298-1.304-1.444 0-2.583.627-1.125.626-1.777 1.828t-.652 2.915m26.582-7.824v2.556H90.773v-2.556zm-7.21-4.705h3.016v18.716q0 1.278.371 1.918.384.625.972.843.6.205 1.265.205.499 0 .819-.051l.511-.102.614 2.71a6 6 0 0 1-.857.23q-.55.128-1.393.128a6.1 6.1 0 0 1-2.506-.55 5 5 0 0 1-2.02-1.675q-.793-1.125-.793-2.838zm25.305 9.102-2.71.767a5 5 0 0 0-.754-1.316q-.486-.653-1.33-1.074-.843-.422-2.16-.422-1.803 0-3.004.831-1.19.818-1.189 2.084 0 1.125.818 1.777t2.557 1.086l2.915.716q2.633.639 3.924 1.956 1.291 1.305 1.291 3.362 0 1.688-.971 3.017-.959 1.33-2.685 2.097t-4.014.767q-3.005 0-4.973-1.304-1.97-1.303-2.493-3.81l2.864-.715q.408 1.584 1.547 2.377 1.15.793 3.004.793 2.11 0 3.349-.895 1.253-.907 1.253-2.173 0-1.023-.716-1.713-.716-.703-2.199-1.049l-3.272-.767q-2.699-.639-3.963-1.981-1.253-1.356-1.253-3.388 0-1.662.933-2.94.946-1.28 2.57-2.007 1.635-.729 3.707-.729 2.915 0 4.577 1.278 1.675 1.28 2.377 3.375m7.099 15.444a2.22 2.22 0 0 1-1.624-.678 2.22 2.22 0 0 1-.677-1.624q0-.945.677-1.623a2.22 2.22 0 0 1 1.624-.678q.947 0 1.623.678.678.678.678 1.623 0 .627-.32 1.151a2.4 2.4 0 0 1-.831.844 2.2 2.2 0 0 1-1.15.307m0-14.574a2.22 2.22 0 0 1-1.624-.678 2.22 2.22 0 0 1-.677-1.623q0-.946.677-1.624a2.22 2.22 0 0 1 1.624-.678q.947 0 1.623.678.678.678.678 1.624 0 .626-.32 1.15-.306.525-.831.844a2.2 2.2 0 0 1-1.15.307M573.998 170.034v-2.898l12.784-20.227h2.102v4.489h-1.421l-9.659 15.284v.227h17.216v3.125zM587.691 176v-29.091h3.352V176zM575.402 297v-2.557l9.602-10.511a67 67 0 0 0 2.784-3.21q1.094-1.379 1.62-2.586a6.25 6.25 0 0 0 .539-2.556q0-1.535-.738-2.657-.724-1.121-1.989-1.733-1.264-.61-2.841-.61-1.676 0-2.926.696a4.8 4.8 0 0 0-1.917 1.917q-.668 1.236-.668 2.898h-3.352q0-2.557 1.179-4.489a8.2 8.2 0 0 1 3.21-3.011q2.045-1.08 4.588-1.08 2.557 0 4.531 1.08 1.975 1.08 3.097 2.912t1.122 4.077q0 1.605-.582 3.139-.568 1.52-1.989 3.395-1.407 1.86-3.906 4.545l-6.534 6.989v.227h13.522V297z"/></svg>