<svg xmlns="http://www.w3.org/2000/svg" width="841" height="213" fill="none" viewBox="0 0 841 213"><rect width="839" height="120" x="1" y="92" stroke="#dbdbdb" stroke-width="2" rx="26"/><path stroke="#dbdbdb" stroke-width="2" d="M121 91v122M241 91v122M362 91v122M482 91v122M602 91v122M722 91v122"/><path fill="#fff" d="M48.998 160.034v-2.898l12.784-20.227h2.102v4.489h-1.42l-9.66 15.284v.227H70.02v3.125zM62.69 166v-29.091h3.352V166zM170.402 166v-2.557l9.602-10.511a67 67 0 0 0 2.784-3.21q1.094-1.379 1.62-2.586a6.25 6.25 0 0 0 .539-2.556q0-1.535-.738-2.657-.724-1.121-1.989-1.733-1.264-.61-2.841-.61-1.676 0-2.926.696a4.8 4.8 0 0 0-1.917 1.917q-.668 1.236-.668 2.898h-3.352q0-2.557 1.179-4.489a8.2 8.2 0 0 1 3.21-3.011q2.045-1.08 4.588-1.08 2.557 0 4.531 1.08t3.097 2.912 1.122 4.077q0 1.605-.582 3.139-.569 1.52-1.989 3.395-1.407 1.86-3.906 4.545l-6.534 6.989v.227h13.522V166zM290.402 166v-2.557l9.602-10.511a67 67 0 0 0 2.784-3.21q1.094-1.379 1.62-2.586a6.25 6.25 0 0 0 .539-2.556q0-1.535-.738-2.657-.724-1.121-1.989-1.733-1.264-.61-2.841-.61-1.676 0-2.926.696a4.8 4.8 0 0 0-1.917 1.917q-.668 1.236-.668 2.898h-3.352q0-2.557 1.179-4.489a8.2 8.2 0 0 1 3.21-3.011q2.045-1.08 4.588-1.08 2.556 0 4.531 1.08t3.097 2.912 1.122 4.077q0 1.605-.582 3.139-.569 1.52-1.989 3.395-1.407 1.86-3.906 4.545l-6.534 6.989v.227h13.522V166zM255.814 15.91h6.15V34.8q0 3.182-1.52 5.568-1.506 2.387-4.219 3.722-2.712 1.32-6.321 1.32-3.621 0-6.335-1.32-2.713-1.334-4.219-3.722-1.505-2.386-1.505-5.568V15.91h6.15v18.367q0 1.66.725 2.954a5.3 5.3 0 0 0 2.074 2.031q1.335.74 3.11.739 1.791 0 3.111-.739a5.2 5.2 0 0 0 2.06-2.03q.738-1.294.739-2.955zm17.148 16.476V45h-6.051V23.182h5.767v3.85h.256a6.1 6.1 0 0 1 2.429-3.012q1.704-1.122 4.133-1.122 2.273 0 3.963.994t2.628 2.841q.938 1.832.938 4.375V45h-6.052V32.188q.015-2.003-1.022-3.126-1.037-1.136-2.855-1.136-1.222 0-2.16.526-.923.525-1.448 1.534-.512.995-.526 2.4m36.985-2.983-5.54.341a2.86 2.86 0 0 0-.61-1.278 3.25 3.25 0 0 0-1.236-.923q-.753-.355-1.804-.355-1.406 0-2.372.596-.966.583-.966 1.563 0 .78.625 1.32.624.54 2.145.867l3.948.796q3.183.653 4.745 2.102t1.562 3.807q0 2.145-1.264 3.764-1.25 1.62-3.437 2.528-2.174.895-5.015.895-4.332 0-6.903-1.804-2.557-1.818-2.997-4.943l5.951-.312q.27 1.32 1.307 2.017 1.038.681 2.657.681 1.59 0 2.556-.61.98-.625.995-1.606-.015-.824-.696-1.349-.682-.54-2.103-.824l-3.778-.753q-3.196-.64-4.759-2.216-1.548-1.575-1.548-4.02 0-2.101 1.137-3.622 1.15-1.52 3.224-2.343 2.088-.825 4.886-.824 4.134 0 6.506 1.747 2.387 1.747 2.784 4.758m14.166 16.023q-3.31 0-5.725-1.406-2.4-1.42-3.707-3.949-1.307-2.543-1.307-5.895 0-3.38 1.307-5.909 1.307-2.542 3.707-3.949 2.415-1.42 5.725-1.42t5.71 1.42q2.415 1.407 3.721 3.949 1.308 2.528 1.307 5.91 0 3.351-1.307 5.894-1.306 2.529-3.721 3.949-2.401 1.406-5.71 1.406m.028-4.687q1.506 0 2.514-.853 1.009-.866 1.52-2.358.526-1.49.526-3.395 0-1.902-.526-3.394-.511-1.492-1.52-2.358t-2.514-.867q-1.52 0-2.557.867-1.023.866-1.548 2.358-.511 1.492-.511 3.394 0 1.904.511 3.395.525 1.492 1.548 2.358 1.037.853 2.557.853M338.786 45V23.182h5.866v3.807h.228q.596-2.032 2.002-3.068 1.407-1.052 3.239-1.052.455 0 .98.057.526.057.924.156v5.37a8 8 0 0 0-1.179-.228 11 11 0 0 0-1.378-.099q-1.335 0-2.387.582-1.036.57-1.647 1.591-.597 1.023-.597 2.358V45zm29.066-21.818v4.545h-13.139v-4.545zm-10.156-5.227h6.051v20.34q0 .84.255 1.307.257.454.711.64.468.184 1.079.184.426 0 .853-.07.425-.086.653-.129l.952 4.503q-.455.143-1.279.327-.824.198-2.003.241-2.187.086-3.835-.582-1.633-.667-2.542-2.074-.91-1.406-.895-3.551zm23.806 27.471q-3.366 0-5.795-1.364-2.415-1.377-3.722-3.892-1.306-2.527-1.306-5.98 0-3.366 1.306-5.909 1.308-2.542 3.679-3.963 2.387-1.42 5.597-1.42 2.159 0 4.02.696a8.9 8.9 0 0 1 3.267 2.06q1.406 1.377 2.187 3.465.782 2.074.782 4.858v1.662h-18.424v-3.75h12.728q0-1.307-.569-2.315a4.06 4.06 0 0 0-1.576-1.577q-.994-.582-2.316-.582-1.377 0-2.443.639-1.05.625-1.647 1.69-.597 1.051-.611 2.344v3.565q0 1.62.596 2.799a4.37 4.37 0 0 0 1.719 1.818q1.108.64 2.628.64 1.008 0 1.847-.285a3.8 3.8 0 0 0 1.434-.852q.597-.57.909-1.392l5.597.369a7.65 7.65 0 0 1-1.747 3.523q-1.307 1.49-3.381 2.33-2.06.823-4.759.823m22.003-.07q-2.486 0-4.503-1.28-2.002-1.291-3.181-3.792-1.165-2.514-1.165-6.165 0-3.75 1.207-6.235 1.207-2.5 3.211-3.736a8.2 8.2 0 0 1 4.417-1.25q1.833 0 3.054.625 1.236.61 1.989 1.534.766.91 1.165 1.79h.184V15.909h6.037V45h-5.966v-3.494h-.255a7.8 7.8 0 0 1-1.208 1.804q-.767.88-2.003 1.463-1.22.582-2.983.582m1.918-4.816q1.462 0 2.472-.796 1.022-.81 1.562-2.258.554-1.45.554-3.395t-.54-3.38-1.562-2.217q-1.023-.78-2.486-.78-1.491 0-2.514.809-1.023.81-1.549 2.244-.525 1.435-.525 3.324 0 1.904.525 3.366.54 1.45 1.549 2.273 1.023.81 2.514.81m49.176-24.63V45h-5.312L436.63 26.69h-.213V45h-6.15V15.91h5.397l12.557 18.295h.256V15.909zm18.96 19.8V23.182h6.051V45h-5.81v-3.963h-.227a6.45 6.45 0 0 1-2.458 3.082q-1.704 1.165-4.162 1.165-2.187 0-3.849-.994t-2.599-2.827q-.923-1.832-.938-4.39V23.183h6.051v12.812q.015 1.932 1.037 3.054t2.742 1.122a4.35 4.35 0 0 0 2.045-.497q.952-.511 1.534-1.505.597-.994.583-2.458M484.45 45V23.182h5.767v3.85h.256q.681-1.92 2.272-3.026 1.591-1.108 3.807-1.108 2.244 0 3.821 1.122 1.577 1.108 2.102 3.011h.228q.668-1.875 2.415-2.997 1.761-1.136 4.161-1.136 3.054 0 4.958 1.946 1.917 1.932 1.917 5.483V45h-6.036V31.52q0-1.818-.966-2.727-.966-.91-2.415-.91-1.648 0-2.571 1.052-.923 1.036-.923 2.741V45h-5.867V31.392q0-1.605-.923-2.557-.909-.951-2.401-.951-1.008 0-1.818.51-.795.498-1.264 1.407-.47.896-.469 2.102V45zm36.598 0V15.91h6.051v10.937h.185q.397-.882 1.15-1.79.768-.924 1.989-1.534 1.236-.625 3.068-.625 2.387 0 4.404 1.25 2.016 1.236 3.224 3.736 1.207 2.485 1.207 6.235 0 3.651-1.179 6.165-1.164 2.5-3.181 3.793-2.004 1.278-4.489 1.278-1.761 0-2.997-.582-1.222-.583-2.003-1.463-.782-.895-1.193-1.804h-.27V45zm5.923-10.91q0 1.947.54 3.396.54 1.45 1.563 2.258 1.022.795 2.485.796 1.477 0 2.5-.81 1.023-.825 1.549-2.273.539-1.462.539-3.366 0-1.89-.525-3.324-.527-1.434-1.548-2.244-1.023-.81-2.515-.81-1.477 0-2.5.781-1.008.782-1.548 2.216-.54 1.436-.54 3.38m29.336 11.336q-3.366 0-5.795-1.364-2.415-1.377-3.722-3.892-1.307-2.527-1.307-5.98 0-3.366 1.307-5.909t3.679-3.963q2.387-1.42 5.597-1.42 2.159 0 4.02.696a8.9 8.9 0 0 1 3.267 2.06q1.405 1.377 2.187 3.465.781 2.074.781 4.858v1.662h-18.423v-3.75h12.727q0-1.307-.568-2.315a4.07 4.07 0 0 0-1.577-1.577q-.993-.582-2.315-.582-1.377 0-2.443.639-1.051.625-1.648 1.69-.596 1.051-.611 2.344v3.565q0 1.62.597 2.799.61 1.179 1.719 1.818 1.107.64 2.628.64 1.008 0 1.846-.285a3.8 3.8 0 0 0 1.435-.852q.597-.57.909-1.392l5.597.369a7.65 7.65 0 0 1-1.748 3.523q-1.307 1.49-3.38 2.33-2.06.823-4.759.823M570.27 45V23.182h5.867v3.807h.227q.596-2.032 2.003-3.068 1.406-1.052 3.238-1.052.455 0 .981.057.525.057.923.156v5.37a8 8 0 0 0-1.179-.228q-.753-.099-1.378-.099-1.336 0-2.386.582a4.3 4.3 0 0 0-1.648 1.591q-.597 1.023-.597 2.358V45zm34.521-15.597-5.54.341a2.86 2.86 0 0 0-.611-1.278 3.24 3.24 0 0 0-1.236-.923q-.752-.355-1.804-.355-1.406 0-2.372.596-.966.583-.966 1.563 0 .78.625 1.32t2.145.867l3.949.796q3.182.653 4.744 2.102 1.563 1.449 1.563 3.807 0 2.145-1.264 3.764-1.25 1.62-3.438 2.528-2.173.895-5.014.895-4.332 0-6.903-1.804-2.558-1.818-2.997-4.943l5.951-.312q.27 1.32 1.307 2.017 1.037.681 2.656.681 1.591 0 2.557-.61.98-.625.994-1.606-.014-.824-.696-1.349-.681-.54-2.102-.824l-3.778-.753q-3.196-.64-4.759-2.216-1.548-1.575-1.548-4.02 0-2.101 1.136-3.622 1.15-1.52 3.225-2.343 2.088-.825 4.886-.824 4.133 0 6.506 1.747 2.386 1.747 2.784 4.758M420.505 166.398q-2.926 0-5.17-1.037-2.23-1.051-3.48-2.884-1.251-1.846-1.236-4.204-.014-1.847.724-3.409a7.4 7.4 0 0 1 2.017-2.628 6.2 6.2 0 0 1 2.884-1.35v-.17q-2.088-.54-3.324-2.344-1.236-1.818-1.221-4.133-.015-2.217 1.122-3.963 1.136-1.748 3.125-2.756 2.003-1.008 4.559-1.009 2.53 0 4.517 1.009 1.99 1.008 3.125 2.756 1.151 1.746 1.165 3.963-.014 2.315-1.264 4.133-1.236 1.804-3.281 2.344v.17q1.577.285 2.841 1.35a7.66 7.66 0 0 1 2.017 2.628q.752 1.562.767 3.409-.015 2.358-1.279 4.204-1.25 1.833-3.48 2.884-2.215 1.037-5.128 1.037m0-3.125q1.975 0 3.409-.639 1.435-.64 2.216-1.804t.796-2.728q-.015-1.647-.852-2.912-.839-1.263-2.287-1.988-1.435-.725-3.282-.725-1.86 0-3.324.725-1.448.725-2.286 1.988-.825 1.265-.81 2.912-.015 1.563.753 2.728.781 1.164 2.23 1.804 1.45.639 3.437.639m0-13.807q1.563 0 2.77-.625a4.75 4.75 0 0 0 1.918-1.747q.696-1.122.71-2.628-.014-1.478-.696-2.571a4.5 4.5 0 0 0-1.889-1.705q-1.208-.61-2.813-.61-1.633 0-2.855.61-1.221.597-1.889 1.705-.668 1.094-.653 2.571-.014 1.506.667 2.628a4.75 4.75 0 0 0 1.918 1.747q1.221.625 2.812.625M540.607 166.398q-2.813 0-5.015-.966-2.187-.966-3.48-2.685-1.278-1.733-1.392-4.02h3.58q.112 1.407.966 2.429.852 1.009 2.23 1.563 1.377.554 3.054.554 1.875 0 3.324-.654 1.448-.653 2.272-1.818.824-1.164.824-2.699 0-1.605-.795-2.826-.796-1.236-2.33-1.932t-3.75-.696h-2.329v-3.125h2.329q1.733 0 3.04-.625 1.321-.625 2.06-1.762.752-1.136.752-2.67 0-1.478-.653-2.571-.654-1.093-1.847-1.705-1.179-.61-2.784-.61-1.505 0-2.841.554-1.32.539-2.159 1.576-.837 1.023-.909 2.472h-3.409q.085-2.287 1.378-4.006 1.293-1.733 3.381-2.699 2.102-.966 4.616-.966 2.699 0 4.631 1.094 1.931 1.08 2.969 2.855a7.5 7.5 0 0 1 1.037 3.835q0 2.458-1.293 4.191-1.278 1.733-3.48 2.4v.228q2.756.454 4.304 2.343 1.548 1.876 1.548 4.645 0 2.373-1.293 4.262-1.278 1.874-3.494 2.954t-5.042 1.08M660.607 166.398q-2.813 0-5.015-.966-2.187-.966-3.48-2.685-1.278-1.733-1.392-4.02h3.58q.112 1.407.966 2.429.852 1.009 2.23 1.563 1.377.554 3.054.554 1.875 0 3.324-.654 1.448-.653 2.272-1.818.824-1.164.824-2.699 0-1.605-.795-2.826-.796-1.236-2.33-1.932t-3.75-.696h-2.329v-3.125h2.329q1.733 0 3.04-.625 1.321-.625 2.06-1.762.752-1.136.752-2.67 0-1.478-.653-2.571-.654-1.093-1.847-1.705-1.179-.61-2.784-.61-1.505 0-2.841.554-1.32.539-2.159 1.576-.837 1.023-.909 2.472h-3.409q.085-2.287 1.378-4.006 1.293-1.733 3.381-2.699 2.102-.966 4.616-.966 2.699 0 4.631 1.094 1.931 1.08 2.969 2.855a7.5 7.5 0 0 1 1.037 3.835q0 2.458-1.293 4.191-1.278 1.733-3.48 2.4v.228q2.756.454 4.304 2.343 1.548 1.876 1.548 4.645 0 2.373-1.293 4.262-1.278 1.874-3.494 2.954t-5.042 1.08M784.442 136.909V166h-3.523v-25.398h-.17l-7.103 4.716v-3.579l7.273-4.83z"/></svg>