<svg xmlns="http://www.w3.org/2000/svg" width="1068" height="224" fill="none" viewBox="0 0 1068 224"><path fill="#fff" d="m340.3 15.91 7.031 22.101h.27l7.045-22.102h6.818L351.436 45h-7.926l-10.043-29.09zm28.352 29.502q-2.088 0-3.722-.724-1.633-.739-2.585-2.174-.937-1.449-.937-3.608 0-1.818.667-3.054a5.4 5.4 0 0 1 1.818-1.988 8.8 8.8 0 0 1 2.614-1.137 20 20 0 0 1 3.097-.54 79 79 0 0 0 3.068-.369q1.164-.184 1.69-.54.526-.355.526-1.05v-.086q0-1.35-.852-2.088-.839-.739-2.387-.739-1.633 0-2.599.725-.966.71-1.279 1.79l-5.596-.455q.426-1.99 1.676-3.437 1.25-1.464 3.224-2.245 1.989-.795 4.603-.795 1.818 0 3.48.426 1.676.426 2.968 1.32a6.4 6.4 0 0 1 2.06 2.302q.753 1.392.753 3.338V45H375.2v-3.026h-.17a6.2 6.2 0 0 1-1.406 1.804q-.882.767-2.117 1.208-1.236.426-2.855.426m1.733-4.176q1.335 0 2.358-.526a4.2 4.2 0 0 0 1.605-1.449q.582-.909.582-2.06v-2.315a3.2 3.2 0 0 1-.781.341q-.482.142-1.094.27a55 55 0 0 1-1.221.213l-1.108.157q-1.066.156-1.861.497t-1.236.923q-.44.568-.44 1.42 0 1.236.895 1.89.909.639 2.301.639m21.3-25.327V45h-6.051V15.91zm18.838 19.801V23.182h6.052V45h-5.81v-3.963h-.227a6.45 6.45 0 0 1-2.458 3.082q-1.704 1.165-4.162 1.165-2.187 0-3.849-.994t-2.6-2.827q-.923-1.832-.937-4.39V23.183h6.051v12.812q.014 1.932 1.037 3.054t2.742 1.122q1.093 0 2.045-.497a3.9 3.9 0 0 0 1.534-1.505q.597-.994.582-2.458m20.835 9.716q-3.366 0-5.796-1.364-2.414-1.377-3.721-3.892-1.307-2.527-1.307-5.98 0-3.366 1.307-5.909t3.679-3.963q2.386-1.42 5.596-1.42 2.16 0 4.02.696a8.9 8.9 0 0 1 3.267 2.06q1.407 1.377 2.188 3.465.781 2.074.781 4.858v1.662h-18.423v-3.75h12.727q0-1.307-.568-2.315a4.07 4.07 0 0 0-1.577-1.577q-.994-.582-2.315-.582-1.378 0-2.443.639-1.051.625-1.648 1.69-.596 1.051-.611 2.344v3.565q0 1.62.597 2.799.61 1.179 1.719 1.818 1.107.64 2.627.64 1.009 0 1.847-.285a3.8 3.8 0 0 0 1.435-.852q.596-.57.909-1.392l5.596.369a7.64 7.64 0 0 1-1.747 3.523q-1.306 1.49-3.381 2.33-2.06.823-4.758.823m22.003-.07q-2.486 0-4.503-1.28-2.003-1.291-3.182-3.792-1.165-2.514-1.165-6.165 0-3.75 1.208-6.235 1.208-2.5 3.21-3.736a8.23 8.23 0 0 1 4.418-1.25q1.832 0 3.054.625 1.235.61 1.988 1.534.768.91 1.165 1.79h.185V15.909h6.037V45h-5.966v-3.494h-.256q-.427.909-1.207 1.804-.768.88-2.003 1.463-1.222.582-2.983.582m1.917-4.816q1.464 0 2.472-.796 1.023-.81 1.562-2.258.554-1.45.554-3.395t-.539-3.38q-.54-1.436-1.563-2.217-1.022-.78-2.486-.78-1.491 0-2.514.809-1.023.81-1.548 2.244t-.526 3.324q0 1.904.526 3.366.54 1.45 1.548 2.273 1.023.81 2.514.81m50.512-14.446h-6.222q-.17-1.208-.696-2.145a5.5 5.5 0 0 0-1.349-1.62 6 6 0 0 0-1.904-1.022 7.3 7.3 0 0 0-2.315-.355q-2.259 0-3.935 1.122-1.676 1.108-2.599 3.238-.923 2.117-.923 5.142 0 3.111.923 5.228.937 2.115 2.614 3.196t3.877 1.08q1.237 0 2.287-.327a6 6 0 0 0 1.89-.952 5.5 5.5 0 0 0 1.363-1.548 6 6 0 0 0 .767-2.074l6.222.028a11.3 11.3 0 0 1-1.208 3.864 11.6 11.6 0 0 1-2.571 3.31q-1.605 1.448-3.835 2.3-2.216.84-5.014.839-3.893 0-6.96-1.762-3.054-1.761-4.83-5.1-1.761-3.337-1.761-8.082 0-4.757 1.79-8.096 1.79-3.337 4.858-5.085 3.067-1.761 6.903-1.762 2.529 0 4.687.71 2.173.71 3.85 2.075 1.676 1.349 2.727 3.31 1.065 1.959 1.364 4.488m14.155 19.332q-3.31 0-5.725-1.406-2.4-1.42-3.707-3.949-1.307-2.543-1.307-5.895 0-3.38 1.307-5.909 1.307-2.542 3.707-3.949 2.415-1.42 5.725-1.42t5.71 1.42q2.415 1.407 3.721 3.949 1.307 2.528 1.307 5.91 0 3.351-1.307 5.894-1.306 2.529-3.721 3.949-2.401 1.406-5.71 1.406m.028-4.687q1.506 0 2.514-.853 1.009-.866 1.52-2.358.525-1.49.526-3.395 0-1.902-.526-3.394-.511-1.492-1.52-2.358t-2.514-.867q-1.52 0-2.557.867-1.023.866-1.548 2.358-.511 1.492-.511 3.394 0 1.904.511 3.395.525 1.492 1.548 2.358 1.037.853 2.557.853m20.696-24.83V45h-6.051V15.91zm14.705 29.517q-3.309 0-5.724-1.406-2.4-1.42-3.708-3.949-1.306-2.543-1.306-5.895 0-3.38 1.306-5.909 1.307-2.542 3.708-3.949 2.415-1.42 5.724-1.42t5.711 1.42q2.414 1.407 3.721 3.949 1.307 2.528 1.307 5.91 0 3.351-1.307 5.894-1.307 2.529-3.721 3.949-2.401 1.406-5.711 1.406m.029-4.687q1.505 0 2.514-.853 1.008-.866 1.52-2.358.525-1.49.525-3.395 0-1.902-.525-3.394-.512-1.492-1.52-2.358t-2.514-.867q-1.52 0-2.557.867-1.023.866-1.548 2.358-.512 1.492-.512 3.394 0 1.904.512 3.395.525 1.492 1.548 2.358 1.036.853 2.557.853M570.048 45V23.182h5.866v3.807h.227q.597-2.032 2.003-3.068 1.407-1.052 3.239-1.052.455 0 .98.057t.923.156v5.37a8 8 0 0 0-1.179-.228q-.753-.099-1.378-.099-1.335 0-2.386.582-1.036.57-1.648 1.591-.596 1.023-.596 2.358V45zm25.294.426q-3.366 0-5.795-1.364-2.415-1.377-3.722-3.892-1.307-2.527-1.307-5.98 0-3.366 1.307-5.909t3.679-3.963q2.387-1.42 5.597-1.42 2.158 0 4.02.696a8.9 8.9 0 0 1 3.267 2.06q1.405 1.377 2.187 3.465.782 2.074.782 4.858v1.662h-18.424v-3.75h12.728q0-1.307-.569-2.315a4.06 4.06 0 0 0-1.576-1.577q-.995-.582-2.316-.582-1.378 0-2.443.639-1.051.625-1.648 1.69a4.8 4.8 0 0 0-.61 2.344v3.565q0 1.62.596 2.799.61 1.179 1.719 1.818 1.109.64 2.628.64 1.009 0 1.846-.285a3.8 3.8 0 0 0 1.435-.852q.597-.57.909-1.392l5.597.369a7.65 7.65 0 0 1-1.747 3.523q-1.308 1.49-3.381 2.33-2.06.823-4.759.823m22.003-.07q-2.486 0-4.503-1.28-2.003-1.291-3.181-3.792-1.165-2.514-1.165-6.165 0-3.75 1.207-6.235 1.207-2.5 3.21-3.736a8.23 8.23 0 0 1 4.418-1.25q1.833 0 3.054.625 1.236.61 1.989 1.534.766.91 1.164 1.79h.185V15.909h6.037V45h-5.966v-3.494h-.256a7.8 7.8 0 0 1-1.207 1.804q-.767.88-2.003 1.463-1.221.582-2.983.582m1.918-4.816q1.463 0 2.471-.796 1.023-.81 1.563-2.258.554-1.45.554-3.395t-.54-3.38-1.562-2.217-2.486-.78q-1.492 0-2.514.809-1.023.81-1.549 2.244-.525 1.435-.525 3.324 0 1.904.525 3.366.54 1.45 1.549 2.273 1.022.81 2.514.81M644.107 45V15.91h11.647q3.21 0 5.355.95 2.145.953 3.225 2.643 1.08 1.676 1.079 3.863 0 1.705-.681 2.998a5.9 5.9 0 0 1-1.875 2.102q-1.18.81-2.699 1.15v.285a6.5 6.5 0 0 1 3.11.937q1.464.866 2.373 2.429.909 1.548.909 3.693 0 2.316-1.151 4.134-1.136 1.803-3.366 2.855-2.23 1.05-5.497 1.051zm6.15-5.028h5.014q2.571 0 3.75-.98 1.179-.994 1.179-2.643 0-1.207-.582-2.13-.582-.924-1.662-1.45-1.065-.525-2.543-.525h-5.156zm0-11.89h4.56q1.264 0 2.244-.44.994-.455 1.563-1.278.582-.825.582-1.975 0-1.576-1.122-2.542-1.108-.966-3.154-.966h-4.673zm26.403 17.33q-2.088 0-3.722-.724-1.634-.739-2.585-2.174-.938-1.449-.938-3.608 0-1.818.668-3.054a5.4 5.4 0 0 1 1.818-1.988 8.8 8.8 0 0 1 2.614-1.137 20 20 0 0 1 3.097-.54 79 79 0 0 0 3.068-.369q1.164-.184 1.69-.54.526-.355.526-1.05v-.086q0-1.35-.853-2.088-.838-.739-2.386-.739-1.634 0-2.599.725-.966.71-1.279 1.79l-5.596-.455q.425-1.99 1.676-3.437 1.25-1.464 3.224-2.245 1.989-.795 4.602-.795 1.819 0 3.48.426 1.677.426 2.969 1.32a6.4 6.4 0 0 1 2.06 2.302q.753 1.392.753 3.338V45h-5.739v-3.026h-.17a6.2 6.2 0 0 1-1.407 1.804q-.88.767-2.116 1.208-1.236.426-2.855.426m1.733-4.176q1.335 0 2.358-.526a4.2 4.2 0 0 0 1.605-1.449q.582-.909.582-2.06v-2.315q-.284.185-.781.341-.483.142-1.094.27a55 55 0 0 1-1.221.213l-1.108.157q-1.066.156-1.861.497t-1.236.923q-.44.568-.44 1.42 0 1.236.895 1.89.909.639 2.301.639m21.299-25.327V45h-6.051V15.91zm10.899 0V45h-6.051V15.91zm23.001 13.494-5.54.341a2.86 2.86 0 0 0-.611-1.278 3.24 3.24 0 0 0-1.236-.923q-.753-.355-1.804-.355-1.406 0-2.372.596-.966.583-.966 1.563 0 .78.625 1.32t2.145.867l3.949.796q3.182.653 4.744 2.102 1.563 1.449 1.563 3.807 0 2.145-1.264 3.764-1.251 1.62-3.438 2.528-2.173.895-5.014.895-4.333 0-6.904-1.804-2.556-1.818-2.997-4.943l5.952-.312q.27 1.32 1.307 2.017 1.037.681 2.656.681 1.591 0 2.557-.61.98-.625.994-1.606-.014-.824-.696-1.349-.681-.54-2.102-.824l-3.778-.753q-3.196-.64-4.759-2.216-1.548-1.575-1.548-4.02 0-2.101 1.136-3.622 1.15-1.52 3.224-2.343 2.089-.825 4.887-.824 4.133 0 6.506 1.747 2.385 1.747 2.784 4.758"/><circle cx="194" cy="166" r="58" fill="#50b7eb"/><path fill="#000" d="M185.402 180v-2.557l9.602-10.511a67 67 0 0 0 2.784-3.21q1.094-1.379 1.62-2.586a6.25 6.25 0 0 0 .539-2.556q0-1.535-.738-2.657-.724-1.121-1.989-1.733-1.264-.61-2.841-.61-1.676 0-2.926.696a4.8 4.8 0 0 0-1.917 1.917q-.668 1.236-.668 2.898h-3.352q0-2.557 1.179-4.489a8.2 8.2 0 0 1 3.21-3.011q2.045-1.08 4.588-1.08 2.557 0 4.531 1.08t3.097 2.912 1.122 4.077q0 1.605-.582 3.139-.569 1.52-1.989 3.395-1.407 1.86-3.906 4.545l-6.534 6.989v.227h13.522V180z"/><circle cx="738" cy="166" r="58" fill="#50b7eb"/><path fill="#000" d="M728.402 180v-2.557l9.602-10.511a67 67 0 0 0 2.784-3.21q1.094-1.379 1.62-2.586a6.25 6.25 0 0 0 .539-2.556q0-1.535-.738-2.657-.724-1.121-1.989-1.733-1.264-.61-2.841-.61-1.676 0-2.926.696a4.8 4.8 0 0 0-1.917 1.917q-.669 1.236-.668 2.898h-3.352q0-2.557 1.179-4.489a8.2 8.2 0 0 1 3.21-3.011q2.045-1.08 4.588-1.08 2.557 0 4.531 1.08 1.975 1.08 3.097 2.912t1.122 4.077q0 1.605-.582 3.139-.569 1.52-1.989 3.395-1.407 1.86-3.906 4.545l-6.534 6.989v.227h13.522V180z"/><circle cx="466" cy="166" r="58" fill="#e350eb"/><path fill="#fff" d="M455.998 174.034v-2.898l12.784-20.227h2.102v4.489h-1.421l-9.659 15.284v.227h17.216v3.125zM469.691 180v-29.091h3.352V180z"/><circle cx="1010" cy="166" r="58" fill="#50b7eb"/><path fill="#000" d="M1001.4 180v-2.557l9.6-10.511a66 66 0 0 0 2.79-3.21q1.095-1.379 1.62-2.586.54-1.221.54-2.556c0-1.023-.25-1.909-.74-2.657-.48-.748-1.15-1.325-1.99-1.733-.84-.407-1.79-.61-2.84-.61-1.12 0-2.09.232-2.93.696a4.76 4.76 0 0 0-1.91 1.917c-.45.824-.67 1.79-.67 2.898h-3.35q0-2.557 1.17-4.489a8.25 8.25 0 0 1 3.21-3.011q2.055-1.08 4.59-1.08 2.565 0 4.53 1.08c1.32.72 2.35 1.69 3.1 2.912s1.12 2.58 1.12 4.077c0 1.07-.19 2.116-.58 3.139-.38 1.013-1.04 2.145-1.99 3.395q-1.41 1.86-3.9 4.545l-6.54 6.989v.227h13.52V180z"/><circle cx="58" cy="166" r="58" fill="#90eb50"/><path fill="#000" d="M61.442 150.909V180h-3.523v-25.398h-.17l-7.103 4.716v-3.579l7.273-4.83z"/><circle cx="602" cy="166" r="58" fill="#90eb50"/><path fill="#000" d="M605.442 150.909V180h-3.523v-25.398h-.17l-7.103 4.716v-3.579l7.273-4.83z"/><circle cx="874" cy="166" r="58" fill="#e350eb"/><path fill="#fff" d="M863.998 174.034v-2.898l12.784-20.227h2.102v4.489h-1.421l-9.659 15.284v.227h17.216v3.125zM877.691 180v-29.091h3.352V180z"/><circle cx="330" cy="166" r="58" fill="#eba650"/><path fill="#000" d="M329.607 180.398q-2.813 0-5.015-.966-2.187-.966-3.48-2.685-1.278-1.732-1.392-4.02h3.58q.113 1.407.966 2.429.852 1.009 2.23 1.563 1.377.554 3.054.554 1.875 0 3.324-.654 1.448-.653 2.272-1.818.825-1.164.824-2.699 0-1.605-.795-2.826-.796-1.236-2.33-1.932t-3.75-.696h-2.329v-3.125h2.329q1.733 0 3.04-.625 1.321-.625 2.06-1.762.752-1.136.752-2.67 0-1.478-.653-2.571t-1.847-1.705q-1.179-.61-2.784-.61-1.505 0-2.841.554-1.32.539-2.159 1.576-.837 1.023-.909 2.472h-3.409q.085-2.287 1.378-4.006 1.293-1.733 3.381-2.699 2.102-.966 4.616-.966 2.699 0 4.631 1.094 1.932 1.08 2.969 2.855a7.5 7.5 0 0 1 1.037 3.835q0 2.458-1.293 4.191-1.278 1.733-3.48 2.4v.228q2.756.454 4.304 2.343 1.548 1.876 1.548 4.645 0 2.373-1.293 4.262-1.278 1.875-3.494 2.954t-5.042 1.08"/></svg>