<svg width="648" height="1274" viewBox="0 0 648 1274" fill="none" xmlns="http://www.w3.org/2000/svg">
<path d="M210.415 45V15.9091H221.892C224.099 15.9091 225.979 16.3305 227.532 17.1733C229.085 18.0066 230.268 19.1667 231.083 20.6534C231.907 22.1307 232.319 23.8352 232.319 25.767C232.319 27.6989 231.902 29.4034 231.069 30.8807C230.235 32.358 229.028 33.5085 227.446 34.3324C225.874 35.1562 223.971 35.5682 221.736 35.5682H214.421V30.6392H220.742C221.926 30.6392 222.901 30.4356 223.668 30.0284C224.444 29.6117 225.022 29.0388 225.401 28.3097C225.789 27.571 225.983 26.7235 225.983 25.767C225.983 24.8011 225.789 23.9583 225.401 23.2386C225.022 22.5095 224.444 21.946 223.668 21.5483C222.891 21.1411 221.907 20.9375 220.713 20.9375H216.566V45H210.415ZM242.251 32.3864V45H236.2V15.9091H242.081V27.0312H242.336C242.829 25.7434 243.624 24.7348 244.723 24.0057C245.821 23.267 247.199 22.8977 248.856 22.8977C250.371 22.8977 251.692 23.2292 252.819 23.892C253.956 24.5455 254.836 25.4877 255.461 26.7188C256.096 27.9403 256.408 29.4034 256.399 31.108V45H250.348V32.1875C250.357 30.8428 250.016 29.7964 249.325 29.0483C248.643 28.3002 247.687 27.9261 246.456 27.9261C245.632 27.9261 244.903 28.1013 244.268 28.4517C243.643 28.8021 243.151 29.3134 242.791 29.9858C242.44 30.6487 242.261 31.4489 242.251 32.3864ZM271.019 45.4261C268.812 45.4261 266.904 44.9574 265.294 44.0199C263.694 43.0729 262.458 41.7566 261.587 40.071C260.716 38.3759 260.28 36.411 260.28 34.1761C260.28 31.9223 260.716 29.9527 261.587 28.267C262.458 26.572 263.694 25.2557 265.294 24.3182C266.904 23.3712 268.812 22.8977 271.019 22.8977C273.225 22.8977 275.129 23.3712 276.729 24.3182C278.339 25.2557 279.579 26.572 280.451 28.267C281.322 29.9527 281.757 31.9223 281.757 34.1761C281.757 36.411 281.322 38.3759 280.451 40.071C279.579 41.7566 278.339 43.0729 276.729 44.0199C275.129 44.9574 273.225 45.4261 271.019 45.4261ZM271.047 40.7386C272.051 40.7386 272.889 40.4545 273.561 39.8864C274.234 39.3087 274.74 38.5227 275.081 37.5284C275.432 36.5341 275.607 35.4025 275.607 34.1335C275.607 32.8646 275.432 31.733 275.081 30.7386C274.74 29.7443 274.234 28.9583 273.561 28.3807C272.889 27.803 272.051 27.5142 271.047 27.5142C270.034 27.5142 269.182 27.803 268.49 28.3807C267.809 28.9583 267.292 29.7443 266.942 30.7386C266.601 31.733 266.431 32.8646 266.431 34.1335C266.431 35.4025 266.601 36.5341 266.942 37.5284C267.292 38.5227 267.809 39.3087 268.49 39.8864C269.182 40.4545 270.034 40.7386 271.047 40.7386ZM291.743 32.3864V45H285.692V23.1818H291.459V27.0312H291.715C292.198 25.7623 293.007 24.7585 294.144 24.0199C295.28 23.2718 296.658 22.8977 298.277 22.8977C299.792 22.8977 301.114 23.2292 302.24 23.892C303.367 24.5549 304.243 25.5019 304.868 26.733C305.493 27.9545 305.806 29.4129 305.806 31.108V45H299.755V32.1875C299.764 30.8523 299.423 29.8106 298.732 29.0625C298.041 28.3049 297.089 27.9261 295.877 27.9261C295.062 27.9261 294.343 28.1013 293.718 28.4517C293.102 28.8021 292.619 29.3134 292.269 29.9858C291.928 30.6487 291.753 31.4489 291.743 32.3864ZM320.518 45.4261C318.274 45.4261 316.342 44.9716 314.723 44.0625C313.113 43.1439 311.872 41.8466 311.001 40.1705C310.13 38.4848 309.694 36.4915 309.694 34.1903C309.694 31.946 310.13 29.9763 311.001 28.2812C311.872 26.5862 313.099 25.2652 314.68 24.3182C316.271 23.3712 318.136 22.8977 320.277 22.8977C321.716 22.8977 323.056 23.1297 324.297 23.5938C325.547 24.0483 326.636 24.7348 327.564 25.6534C328.501 26.572 329.23 27.7273 329.751 29.1193C330.272 30.5019 330.532 32.1212 330.532 33.9773V35.6392H312.109V31.8892H324.836C324.836 31.018 324.647 30.2462 324.268 29.5739C323.889 28.9015 323.364 28.3759 322.691 27.9972C322.029 27.6089 321.257 27.4148 320.376 27.4148C319.458 27.4148 318.643 27.6278 317.933 28.054C317.232 28.4706 316.683 29.0341 316.285 29.7443C315.887 30.4451 315.684 31.2263 315.674 32.0881V35.6534C315.674 36.733 315.873 37.6657 316.271 38.4517C316.678 39.2377 317.251 39.8438 317.99 40.2699C318.728 40.696 319.604 40.9091 320.618 40.9091C321.29 40.9091 321.905 40.8144 322.464 40.625C323.023 40.4356 323.501 40.1515 323.899 39.7727C324.297 39.3939 324.6 38.9299 324.808 38.3807L330.404 38.75C330.12 40.0947 329.538 41.2689 328.657 42.2727C327.786 43.267 326.659 44.0436 325.277 44.6023C323.904 45.1515 322.317 45.4261 320.518 45.4261ZM343.853 45V15.9091H355.5C357.641 15.9091 359.426 16.2263 360.855 16.8608C362.285 17.4953 363.36 18.3759 364.08 19.5028C364.8 20.6203 365.159 21.9081 365.159 23.3665C365.159 24.5028 364.932 25.5019 364.478 26.3636C364.023 27.2159 363.398 27.9167 362.603 28.4659C361.817 29.0057 360.917 29.3892 359.904 29.6165V29.9006C361.012 29.9479 362.049 30.2604 363.015 30.8381C363.99 31.4157 364.781 32.2254 365.387 33.267C365.993 34.2992 366.296 35.5303 366.296 36.9602C366.296 38.5038 365.912 39.8816 365.145 41.0938C364.388 42.2964 363.266 43.2481 361.779 43.9489C360.292 44.6496 358.46 45 356.282 45H343.853ZM350.003 39.9716H355.017C356.731 39.9716 357.981 39.6449 358.767 38.9915C359.553 38.3286 359.946 37.4479 359.946 36.3494C359.946 35.5445 359.752 34.8343 359.364 34.2188C358.976 33.6032 358.422 33.1203 357.702 32.7699C356.992 32.4195 356.144 32.2443 355.159 32.2443H350.003V39.9716ZM350.003 28.0824H354.563C355.406 28.0824 356.154 27.9356 356.807 27.642C357.47 27.339 357.991 26.9129 358.37 26.3636C358.758 25.8144 358.952 25.1562 358.952 24.3892C358.952 23.3381 358.578 22.4905 357.83 21.8466C357.091 21.2027 356.04 20.8807 354.676 20.8807H350.003V28.0824ZM380.042 45.4261C377.836 45.4261 375.928 44.9574 374.318 44.0199C372.717 43.0729 371.482 41.7566 370.61 40.071C369.739 38.3759 369.304 36.411 369.304 34.1761C369.304 31.9223 369.739 29.9527 370.61 28.267C371.482 26.572 372.717 25.2557 374.318 24.3182C375.928 23.3712 377.836 22.8977 380.042 22.8977C382.249 22.8977 384.152 23.3712 385.752 24.3182C387.362 25.2557 388.603 26.572 389.474 28.267C390.345 29.9527 390.781 31.9223 390.781 34.1761C390.781 36.411 390.345 38.3759 389.474 40.071C388.603 41.7566 387.362 43.0729 385.752 44.0199C384.152 44.9574 382.249 45.4261 380.042 45.4261ZM380.071 40.7386C381.074 40.7386 381.913 40.4545 382.585 39.8864C383.257 39.3087 383.764 38.5227 384.105 37.5284C384.455 36.5341 384.63 35.4025 384.63 34.1335C384.63 32.8646 384.455 31.733 384.105 30.7386C383.764 29.7443 383.257 28.9583 382.585 28.3807C381.913 27.803 381.074 27.5142 380.071 27.5142C379.057 27.5142 378.205 27.803 377.514 28.3807C376.832 28.9583 376.316 29.7443 375.966 30.7386C375.625 31.733 375.454 32.8646 375.454 34.1335C375.454 35.4025 375.625 36.5341 375.966 37.5284C376.316 38.5227 376.832 39.3087 377.514 39.8864C378.205 40.4545 379.057 40.7386 380.071 40.7386ZM404.574 45.4261C402.367 45.4261 400.459 44.9574 398.849 44.0199C397.249 43.0729 396.013 41.7566 395.142 40.071C394.27 38.3759 393.835 36.411 393.835 34.1761C393.835 31.9223 394.27 29.9527 395.142 28.267C396.013 26.572 397.249 25.2557 398.849 24.3182C400.459 23.3712 402.367 22.8977 404.574 22.8977C406.78 22.8977 408.683 23.3712 410.284 24.3182C411.894 25.2557 413.134 26.572 414.005 28.267C414.877 29.9527 415.312 31.9223 415.312 34.1761C415.312 36.411 414.877 38.3759 414.005 40.071C413.134 41.7566 411.894 43.0729 410.284 44.0199C408.683 44.9574 406.78 45.4261 404.574 45.4261ZM404.602 40.7386C405.606 40.7386 406.444 40.4545 407.116 39.8864C407.788 39.3087 408.295 38.5227 408.636 37.5284C408.986 36.5341 409.162 35.4025 409.162 34.1335C409.162 32.8646 408.986 31.733 408.636 30.7386C408.295 29.7443 407.788 28.9583 407.116 28.3807C406.444 27.803 405.606 27.5142 404.602 27.5142C403.589 27.5142 402.736 27.803 402.045 28.3807C401.363 28.9583 400.847 29.7443 400.497 30.7386C400.156 31.733 399.985 32.8646 399.985 34.1335C399.985 35.4025 400.156 36.5341 400.497 37.5284C400.847 38.5227 401.363 39.3087 402.045 39.8864C402.736 40.4545 403.589 40.7386 404.602 40.7386ZM424.73 38.7216L424.744 31.4631H425.625L432.613 23.1818H439.559L430.17 34.1477H428.735L424.73 38.7216ZM419.247 45V15.9091H425.298V45H419.247ZM432.883 45L426.463 35.4972L430.497 31.2216L439.971 45H432.883Z" fill="white"/>
<path d="M266.431 545V515.909H277.908C280.114 515.909 281.994 516.33 283.547 517.173C285.1 518.007 286.284 519.167 287.098 520.653C287.922 522.131 288.334 523.835 288.334 525.767C288.334 527.699 287.917 529.403 287.084 530.881C286.251 532.358 285.043 533.509 283.462 534.332C281.89 535.156 279.987 535.568 277.752 535.568H270.436V530.639H276.757C277.941 530.639 278.917 530.436 279.684 530.028C280.46 529.612 281.038 529.039 281.417 528.31C281.805 527.571 281.999 526.723 281.999 525.767C281.999 524.801 281.805 523.958 281.417 523.239C281.038 522.509 280.46 521.946 279.684 521.548C278.907 521.141 277.922 520.938 276.729 520.938H272.581V545H266.431ZM297.851 545.412C296.459 545.412 295.219 545.17 294.13 544.688C293.041 544.195 292.179 543.471 291.544 542.514C290.919 541.548 290.607 540.346 290.607 538.906C290.607 537.694 290.829 536.676 291.275 535.852C291.72 535.028 292.326 534.366 293.093 533.864C293.86 533.362 294.731 532.983 295.706 532.727C296.691 532.472 297.723 532.292 298.803 532.188C300.072 532.055 301.095 531.932 301.871 531.818C302.648 531.695 303.211 531.515 303.561 531.278C303.912 531.042 304.087 530.691 304.087 530.227V530.142C304.087 529.242 303.803 528.546 303.235 528.054C302.676 527.562 301.881 527.315 300.848 527.315C299.759 527.315 298.893 527.557 298.249 528.04C297.605 528.513 297.179 529.11 296.971 529.83L291.374 529.375C291.658 528.049 292.217 526.903 293.05 525.938C293.883 524.962 294.958 524.214 296.275 523.693C297.6 523.163 299.134 522.898 300.877 522.898C302.089 522.898 303.249 523.04 304.357 523.324C305.474 523.608 306.464 524.048 307.326 524.645C308.197 525.241 308.883 526.009 309.385 526.946C309.887 527.874 310.138 528.987 310.138 530.284V545H304.4V541.974H304.229C303.879 542.656 303.41 543.258 302.823 543.778C302.236 544.29 301.53 544.692 300.706 544.986C299.882 545.27 298.931 545.412 297.851 545.412ZM299.584 541.236C300.474 541.236 301.26 541.061 301.942 540.71C302.624 540.35 303.159 539.867 303.547 539.261C303.935 538.655 304.13 537.969 304.13 537.202V534.886C303.94 535.009 303.68 535.123 303.348 535.227C303.026 535.322 302.662 535.412 302.255 535.497C301.847 535.573 301.44 535.644 301.033 535.71C300.626 535.767 300.257 535.819 299.925 535.866C299.215 535.971 298.595 536.136 298.064 536.364C297.534 536.591 297.122 536.899 296.828 537.287C296.535 537.666 296.388 538.139 296.388 538.707C296.388 539.531 296.686 540.161 297.283 540.597C297.889 541.023 298.656 541.236 299.584 541.236ZM324.662 553.636C322.702 553.636 321.021 553.366 319.62 552.827C318.228 552.296 317.12 551.572 316.296 550.653C315.472 549.735 314.937 548.703 314.691 547.557L320.287 546.804C320.458 547.24 320.728 547.647 321.097 548.026C321.466 548.404 321.954 548.707 322.56 548.935C323.176 549.171 323.924 549.29 324.804 549.29C326.121 549.29 327.205 548.968 328.057 548.324C328.919 547.689 329.35 546.624 329.35 545.128V541.136H329.094C328.829 541.742 328.431 542.315 327.901 542.855C327.371 543.395 326.689 543.835 325.855 544.176C325.022 544.517 324.028 544.688 322.873 544.688C321.234 544.688 319.743 544.309 318.398 543.551C317.063 542.784 315.998 541.615 315.202 540.043C314.416 538.461 314.023 536.463 314.023 534.048C314.023 531.577 314.426 529.512 315.23 527.855C316.035 526.198 317.105 524.957 318.441 524.134C319.785 523.31 321.258 522.898 322.858 522.898C324.08 522.898 325.103 523.106 325.926 523.523C326.75 523.93 327.413 524.441 327.915 525.057C328.426 525.663 328.819 526.259 329.094 526.847H329.321V523.182H335.33V545.213C335.33 547.069 334.875 548.622 333.966 549.872C333.057 551.122 331.798 552.06 330.188 552.685C328.587 553.319 326.746 553.636 324.662 553.636ZM324.79 540.142C325.766 540.142 326.589 539.901 327.262 539.418C327.944 538.925 328.464 538.224 328.824 537.315C329.194 536.397 329.378 535.298 329.378 534.02C329.378 532.741 329.198 531.634 328.838 530.696C328.479 529.749 327.958 529.015 327.276 528.494C326.594 527.973 325.766 527.713 324.79 527.713C323.796 527.713 322.958 527.983 322.276 528.523C321.594 529.053 321.078 529.792 320.728 530.739C320.377 531.686 320.202 532.779 320.202 534.02C320.202 535.279 320.377 536.368 320.728 537.287C321.087 538.196 321.604 538.902 322.276 539.403C322.958 539.896 323.796 540.142 324.79 540.142ZM350.088 545.426C347.844 545.426 345.912 544.972 344.293 544.062C342.683 543.144 341.443 541.847 340.571 540.17C339.7 538.485 339.265 536.491 339.265 534.19C339.265 531.946 339.7 529.976 340.571 528.281C341.443 526.586 342.669 525.265 344.25 524.318C345.841 523.371 347.707 522.898 349.847 522.898C351.286 522.898 352.626 523.13 353.867 523.594C355.117 524.048 356.206 524.735 357.134 525.653C358.071 526.572 358.801 527.727 359.321 529.119C359.842 530.502 360.103 532.121 360.103 533.977V535.639H341.679V531.889H354.407C354.407 531.018 354.217 530.246 353.838 529.574C353.46 528.902 352.934 528.376 352.262 527.997C351.599 527.609 350.827 527.415 349.946 527.415C349.028 527.415 348.213 527.628 347.503 528.054C346.802 528.471 346.253 529.034 345.855 529.744C345.458 530.445 345.254 531.226 345.245 532.088V535.653C345.245 536.733 345.444 537.666 345.841 538.452C346.248 539.238 346.821 539.844 347.56 540.27C348.299 540.696 349.175 540.909 350.188 540.909C350.86 540.909 351.476 540.814 352.034 540.625C352.593 540.436 353.071 540.152 353.469 539.773C353.867 539.394 354.17 538.93 354.378 538.381L359.975 538.75C359.691 540.095 359.108 541.269 358.228 542.273C357.356 543.267 356.23 544.044 354.847 544.602C353.474 545.152 351.888 545.426 350.088 545.426ZM382.205 529.403L376.665 529.744C376.57 529.271 376.367 528.845 376.054 528.466C375.742 528.078 375.33 527.77 374.819 527.543C374.317 527.306 373.715 527.188 373.015 527.188C372.077 527.188 371.286 527.386 370.642 527.784C369.998 528.172 369.676 528.693 369.676 529.347C369.676 529.867 369.885 530.308 370.301 530.668C370.718 531.027 371.433 531.316 372.446 531.534L376.395 532.33C378.516 532.765 380.098 533.466 381.14 534.432C382.181 535.398 382.702 536.667 382.702 538.239C382.702 539.669 382.281 540.923 381.438 542.003C380.605 543.082 379.459 543.925 378 544.531C376.551 545.128 374.88 545.426 372.986 545.426C370.098 545.426 367.797 544.825 366.083 543.622C364.378 542.41 363.379 540.762 363.086 538.679L369.037 538.366C369.217 539.247 369.653 539.92 370.344 540.384C371.035 540.838 371.921 541.065 373 541.065C374.061 541.065 374.913 540.862 375.557 540.455C376.211 540.038 376.542 539.503 376.551 538.849C376.542 538.3 376.31 537.85 375.855 537.5C375.401 537.14 374.7 536.866 373.753 536.676L369.975 535.923C367.844 535.497 366.258 534.759 365.216 533.707C364.184 532.656 363.668 531.316 363.668 529.688C363.668 528.286 364.047 527.079 364.804 526.065C365.571 525.052 366.646 524.271 368.029 523.722C369.421 523.172 371.05 522.898 372.915 522.898C375.671 522.898 377.839 523.48 379.421 524.645C381.012 525.81 381.94 527.396 382.205 529.403Z" fill="white"/>
<path d="M327.364 429.8H319.409C319.326 415.465 316.716 405.729 311.579 400.592C306.524 395.537 296.871 393.01 282.619 393.01H217.491C208.46 393.01 200.629 392.099 194.001 390.276C187.289 388.453 181.737 385.677 177.346 381.948C172.954 378.22 169.681 373.497 167.527 367.779C165.373 362.145 164.295 355.475 164.295 347.769H172.25C172.25 356.469 173.824 363.553 176.973 369.022C180.039 374.491 184.928 378.51 191.639 381.078C198.268 383.73 206.885 385.055 217.491 385.055H282.619C290.822 385.055 297.741 385.843 303.376 387.417C309.093 388.991 313.692 391.519 317.172 394.999C320.735 398.479 323.304 403.078 324.878 408.795C326.535 414.512 327.364 421.514 327.364 429.8ZM482.477 347.769C482.477 355.475 481.4 362.145 479.246 367.779C477.091 373.497 473.818 378.22 469.427 381.948C465.035 385.677 459.484 388.453 452.772 390.276C446.143 392.099 438.313 393.01 429.281 393.01H364.153C349.902 393.01 340.207 395.537 335.07 400.592C330.015 405.729 327.446 415.465 327.364 429.8H319.409C319.492 421.514 320.321 414.512 321.895 408.795C323.552 403.078 326.121 398.479 329.601 394.999C333.081 391.519 337.638 388.991 343.273 387.417C348.99 385.843 355.95 385.055 364.153 385.055H429.281C439.887 385.055 448.505 383.73 455.134 381.078C461.845 378.51 466.775 374.491 469.924 369.022C473.073 363.553 474.606 356.469 474.523 347.769H482.477ZM327.364 429.8H319.409V402.953H327.364V429.8Z" fill="white"/>
<path d="M327.364 915.8H319.409C319.326 901.465 316.716 891.729 311.579 886.592C306.524 881.537 296.871 879.01 282.619 879.01H217.491C208.46 879.01 200.629 878.099 194.001 876.276C187.289 874.453 181.737 871.677 177.346 867.948C172.954 864.22 169.681 859.497 167.527 853.779C165.373 848.145 164.295 841.475 164.295 833.769H172.25C172.25 842.469 173.824 849.553 176.973 855.022C180.039 860.491 184.928 864.51 191.639 867.078C198.268 869.73 206.885 871.055 217.491 871.055H282.619C290.822 871.055 297.741 871.843 303.376 873.417C309.093 874.991 313.692 877.519 317.172 880.999C320.735 884.479 323.304 889.078 324.878 894.795C326.535 900.512 327.364 907.514 327.364 915.8ZM482.477 833.769C482.477 841.475 481.4 848.145 479.246 853.779C477.091 859.497 473.818 864.22 469.427 867.948C465.035 871.677 459.484 874.453 452.772 876.276C446.143 878.099 438.313 879.01 429.281 879.01H364.153C349.902 879.01 340.207 881.537 335.07 886.592C330.015 891.729 327.446 901.465 327.364 915.8H319.409C319.492 907.514 320.321 900.512 321.895 894.795C323.552 889.078 326.121 884.479 329.601 880.999C333.081 877.519 337.638 874.991 343.273 873.417C348.99 871.843 355.95 871.055 364.153 871.055H429.281C439.887 871.055 448.505 869.73 455.134 867.078C461.845 864.51 466.775 860.491 469.924 855.022C473.073 849.553 474.606 842.469 474.523 833.769H482.477ZM327.364 915.8H319.409V888.953H327.364V915.8Z" fill="white"/>
<g clip-path="url(#clip0_572_713)">
<path d="M409.179 155.375C411.83 155.375 414 153.202 414 150.547V134.453C414 131.798 411.83 129.625 409.179 129.625H401.143V110.312C401.143 99.6504 392.504 91 381.857 91H253.286C242.638 91 234 99.6504 234 110.312V277.688C234 288.35 242.638 297 253.286 297H381.857C392.504 297 401.143 288.35 401.143 277.688V258.375H409.179C411.83 258.375 414 256.202 414 253.547V237.453C414 234.798 411.83 232.625 409.179 232.625H401.143V206.875H409.179C411.83 206.875 414 204.702 414 202.047V185.953C414 183.298 411.83 181.125 409.179 181.125H401.143V155.375H409.179ZM317.571 142.5C331.754 142.5 343.286 154.047 343.286 168.25C343.286 182.453 331.754 194 317.571 194C303.388 194 291.857 182.453 291.857 168.25C291.857 154.047 303.388 142.5 317.571 142.5ZM362.571 237.775C362.571 242.04 358.554 245.5 353.571 245.5H281.571C276.589 245.5 272.571 242.04 272.571 237.775V230.05C272.571 217.255 284.665 206.875 299.571 206.875H301.58C306.522 208.927 311.906 210.094 317.571 210.094C323.237 210.094 328.661 208.927 333.562 206.875H335.571C350.478 206.875 362.571 217.255 362.571 230.05V237.775Z" fill="#C4C4C4"/>
</g>
<path d="M178.271 584.904C183.355 584.904 188.249 586.833 191.965 590.302C195.681 593.771 197.941 598.522 198.289 603.594L198.334 604.967V743.157C198.332 748.239 196.402 753.131 192.933 756.845C189.464 760.559 184.714 762.818 179.644 763.166L178.271 763.211H75.7295C70.6459 763.212 65.7516 761.282 62.0357 757.813C58.3198 754.344 56.0595 749.593 55.7116 744.522L55.667 743.157V604.967C55.6664 599.883 57.5956 594.989 61.0649 591.273C64.5341 587.557 69.2846 585.297 74.3563 584.949L75.7295 584.904H178.271ZM89.1045 629.416C87.3309 629.416 85.6299 630.121 84.3757 631.375C83.1216 632.629 82.417 634.33 82.417 636.104C82.417 637.877 83.1216 639.578 84.3757 640.833C85.6299 642.087 87.3309 642.791 89.1045 642.791H164.896C166.67 642.791 168.371 642.087 169.625 640.833C170.879 639.578 171.584 637.877 171.584 636.104C171.584 634.33 170.879 632.629 169.625 631.375C168.371 630.121 166.67 629.416 164.896 629.416H89.1045ZM82.417 671.77C82.417 675.462 85.413 678.458 89.1045 678.458H164.896C166.67 678.458 168.371 677.753 169.625 676.499C170.879 675.245 171.584 673.544 171.584 671.77C171.584 669.997 170.879 668.296 169.625 667.042C168.371 665.788 166.67 665.083 164.896 665.083H89.1045C87.3309 665.083 85.6299 665.788 84.3757 667.042C83.1216 668.296 82.417 669.997 82.417 671.77ZM89.1045 700.75C87.3309 700.75 85.6299 701.454 84.3757 702.708C83.1216 703.963 82.417 705.664 82.417 707.437C82.417 709.211 83.1216 710.912 84.3757 712.166C85.6299 713.42 87.3309 714.125 89.1045 714.125H164.896C166.67 714.125 168.371 713.42 169.625 712.166C170.879 710.912 171.584 709.211 171.584 707.437C171.584 705.664 170.879 703.963 169.625 702.708C168.371 701.454 166.67 700.75 164.896 700.75H89.1045Z" fill="#C4C4C4"/>
<path d="M375.271 584.904C380.355 584.904 385.249 586.833 388.965 590.302C392.681 593.771 394.941 598.522 395.289 603.594L395.334 604.967V743.157C395.332 748.239 393.402 753.131 389.933 756.845C386.464 760.559 381.714 762.818 376.644 763.166L375.271 763.211H272.729C267.646 763.212 262.752 761.282 259.036 757.813C255.32 754.344 253.06 749.593 252.712 744.522L252.667 743.157V604.967C252.666 599.883 254.596 594.989 258.065 591.273C261.534 587.557 266.285 585.297 271.356 584.949L272.729 584.904H375.271ZM286.104 629.416C284.331 629.416 282.63 630.121 281.376 631.375C280.122 632.629 279.417 634.33 279.417 636.104C279.417 637.877 280.122 639.578 281.376 640.833C282.63 642.087 284.331 642.791 286.104 642.791H361.896C363.67 642.791 365.371 642.087 366.625 640.833C367.879 639.578 368.584 637.877 368.584 636.104C368.584 634.33 367.879 632.629 366.625 631.375C365.371 630.121 363.67 629.416 361.896 629.416H286.104ZM279.417 671.77C279.417 675.462 282.413 678.458 286.104 678.458H361.896C363.67 678.458 365.371 677.753 366.625 676.499C367.879 675.245 368.584 673.544 368.584 671.77C368.584 669.997 367.879 668.296 366.625 667.042C365.371 665.788 363.67 665.083 361.896 665.083H286.104C284.331 665.083 282.63 665.788 281.376 667.042C280.122 668.296 279.417 669.997 279.417 671.77ZM286.104 700.75C284.331 700.75 282.63 701.454 281.376 702.708C280.122 703.963 279.417 705.664 279.417 707.437C279.417 709.211 280.122 710.912 281.376 712.166C282.63 713.42 284.331 714.125 286.104 714.125H361.896C363.67 714.125 365.371 713.42 366.625 712.166C367.879 710.912 368.584 709.211 368.584 707.437C368.584 705.664 367.879 703.963 366.625 702.708C365.371 701.454 363.67 700.75 361.896 700.75H286.104Z" fill="#C4C4C4"/>
<path d="M572.271 584.904C577.355 584.904 582.249 586.833 585.965 590.302C589.681 593.771 591.941 598.522 592.289 603.594L592.334 604.967V743.157C592.332 748.239 590.402 753.131 586.933 756.845C583.464 760.559 578.714 762.818 573.644 763.166L572.271 763.211H469.729C464.646 763.212 459.752 761.282 456.036 757.813C452.32 754.344 450.06 749.593 449.712 744.522L449.667 743.157V604.967C449.666 599.883 451.596 594.989 455.065 591.273C458.534 587.557 463.285 585.297 468.356 584.949L469.729 584.904H572.271ZM483.104 629.416C481.331 629.416 479.63 630.121 478.376 631.375C477.122 632.629 476.417 634.33 476.417 636.104C476.417 637.877 477.122 639.578 478.376 640.833C479.63 642.087 481.331 642.791 483.104 642.791H558.896C560.67 642.791 562.371 642.087 563.625 640.833C564.879 639.578 565.584 637.877 565.584 636.104C565.584 634.33 564.879 632.629 563.625 631.375C562.371 630.121 560.67 629.416 558.896 629.416H483.104ZM476.417 671.77C476.417 675.462 479.413 678.458 483.104 678.458H558.896C560.67 678.458 562.371 677.753 563.625 676.499C564.879 675.245 565.584 673.544 565.584 671.77C565.584 669.997 564.879 668.296 563.625 667.042C562.371 665.788 560.67 665.083 558.896 665.083H483.104C481.331 665.083 479.63 665.788 478.376 667.042C477.122 668.296 476.417 669.997 476.417 671.77ZM483.104 700.75C481.331 700.75 479.63 701.454 478.376 702.708C477.122 703.963 476.417 705.664 476.417 707.437C476.417 709.211 477.122 710.912 478.376 712.166C479.63 713.42 481.331 714.125 483.104 714.125H558.896C560.67 714.125 562.371 713.42 563.625 712.166C564.879 710.912 565.584 709.211 565.584 707.437C565.584 705.664 564.879 703.963 563.625 702.708C562.371 701.454 560.67 700.75 558.896 700.75H483.104Z" fill="#C4C4C4"/>
<path d="M66 1105.73C65.0833 1105.73 64.2462 1105.5 63.4886 1105.06C62.7311 1104.6 62.125 1104 61.6705 1103.24C61.2235 1102.48 61 1101.64 61 1100.73C61 1099.8 61.2235 1098.97 61.6705 1098.22C62.125 1097.46 62.7311 1096.86 63.4886 1096.41C64.2462 1095.95 65.0833 1095.73 66 1095.73C66.9242 1095.73 67.7614 1095.95 68.5114 1096.41C69.2689 1096.86 69.8712 1097.46 70.3182 1098.22C70.7727 1098.97 71 1099.8 71 1100.73C71 1101.64 70.7727 1102.48 70.3182 1103.24C69.8712 1104 69.2689 1104.6 68.5114 1105.06C67.7614 1105.5 66.9242 1105.73 66 1105.73ZM99.6818 1110.32C98.3485 1110.32 97.1477 1110.05 96.0795 1109.52C95.0114 1108.99 94.1553 1108.27 93.5114 1107.34C92.8674 1106.42 92.5152 1105.36 92.4545 1104.18H95.1818C95.2879 1105.23 95.7652 1106.11 96.6136 1106.8C97.4697 1107.48 98.4924 1107.82 99.6818 1107.82C100.636 1107.82 101.485 1107.59 102.227 1107.15C102.977 1106.7 103.564 1106.09 103.989 1105.31C104.42 1104.52 104.636 1103.63 104.636 1102.64C104.636 1101.62 104.413 1100.72 103.966 1099.92C103.527 1099.12 102.92 1098.48 102.148 1098.02C101.375 1097.56 100.492 1097.33 99.5 1097.32C98.7879 1097.31 98.0568 1097.42 97.3068 1097.65C96.5568 1097.87 95.9394 1098.15 95.4545 1098.5L92.8182 1098.18L94.2273 1086.73H106.318V1089.23H96.5909L95.7727 1096.09H95.9091C96.3864 1095.71 96.9848 1095.4 97.7045 1095.15C98.4242 1094.9 99.1742 1094.77 99.9545 1094.77C101.379 1094.77 102.648 1095.11 103.761 1095.8C104.883 1096.47 105.761 1097.39 106.398 1098.57C107.042 1099.74 107.364 1101.08 107.364 1102.59C107.364 1104.08 107.03 1105.4 106.364 1106.57C105.705 1107.73 104.795 1108.64 103.636 1109.32C102.477 1109.98 101.159 1110.32 99.6818 1110.32ZM119.151 1110.32C117.817 1110.32 116.616 1110.05 115.548 1109.52C114.48 1108.99 113.624 1108.27 112.98 1107.34C112.336 1106.42 111.984 1105.36 111.923 1104.18H114.651C114.757 1105.23 115.234 1106.11 116.082 1106.8C116.938 1107.48 117.961 1107.82 119.151 1107.82C120.105 1107.82 120.954 1107.59 121.696 1107.15C122.446 1106.7 123.033 1106.09 123.457 1105.31C123.889 1104.52 124.105 1103.63 124.105 1102.64C124.105 1101.62 123.882 1100.72 123.435 1099.92C122.995 1099.12 122.389 1098.48 121.616 1098.02C120.844 1097.56 119.961 1097.33 118.969 1097.32C118.257 1097.31 117.526 1097.42 116.776 1097.65C116.026 1097.87 115.408 1098.15 114.923 1098.5L112.287 1098.18L113.696 1086.73H125.787V1089.23H116.06L115.241 1096.09H115.378C115.855 1095.71 116.454 1095.4 117.173 1095.15C117.893 1094.9 118.643 1094.77 119.423 1094.77C120.848 1094.77 122.116 1095.11 123.23 1095.8C124.351 1096.47 125.23 1097.39 125.866 1098.57C126.51 1099.74 126.832 1101.08 126.832 1102.59C126.832 1104.08 126.499 1105.4 125.832 1106.57C125.173 1107.73 124.264 1108.64 123.105 1109.32C121.946 1109.98 120.628 1110.32 119.151 1110.32ZM138.619 1110.32C137.286 1110.32 136.085 1110.05 135.017 1109.52C133.949 1108.99 133.093 1108.27 132.449 1107.34C131.805 1106.42 131.453 1105.36 131.392 1104.18H134.119C134.225 1105.23 134.703 1106.11 135.551 1106.8C136.407 1107.48 137.43 1107.82 138.619 1107.82C139.574 1107.82 140.422 1107.59 141.165 1107.15C141.915 1106.7 142.502 1106.09 142.926 1105.31C143.358 1104.52 143.574 1103.63 143.574 1102.64C143.574 1101.62 143.35 1100.72 142.903 1099.92C142.464 1099.12 141.858 1098.48 141.085 1098.02C140.313 1097.56 139.43 1097.33 138.438 1097.32C137.725 1097.31 136.994 1097.42 136.244 1097.65C135.494 1097.87 134.877 1098.15 134.392 1098.5L131.756 1098.18L133.165 1086.73H145.256V1089.23H135.528L134.71 1096.09H134.847C135.324 1095.71 135.922 1095.4 136.642 1095.15C137.362 1094.9 138.112 1094.77 138.892 1094.77C140.316 1094.77 141.585 1095.11 142.699 1095.8C143.82 1096.47 144.699 1097.39 145.335 1098.57C145.979 1099.74 146.301 1101.08 146.301 1102.59C146.301 1104.08 145.968 1105.4 145.301 1106.57C144.642 1107.73 143.733 1108.64 142.574 1109.32C141.415 1109.98 140.097 1110.32 138.619 1110.32ZM160.861 1097.11V1099.61H150.679V1097.11H160.861ZM173.716 1086.73V1110H170.898V1089.68H170.761L165.08 1093.45V1090.59L170.898 1086.73H173.716ZM180.409 1110V1107.95L188.091 1099.55C188.992 1098.56 189.735 1097.7 190.318 1096.98C190.902 1096.24 191.333 1095.55 191.614 1094.91C191.902 1094.26 192.045 1093.58 192.045 1092.86C192.045 1092.05 191.848 1091.34 191.455 1090.74C191.068 1090.14 190.538 1089.68 189.864 1089.35C189.189 1089.03 188.432 1088.86 187.591 1088.86C186.697 1088.86 185.917 1089.05 185.25 1089.42C184.591 1089.78 184.08 1090.3 183.716 1090.95C183.36 1091.61 183.182 1092.39 183.182 1093.27H180.5C180.5 1091.91 180.814 1090.71 181.443 1089.68C182.072 1088.65 182.928 1087.85 184.011 1087.27C185.102 1086.7 186.326 1086.41 187.682 1086.41C189.045 1086.41 190.254 1086.7 191.307 1087.27C192.36 1087.85 193.186 1088.62 193.784 1089.6C194.383 1090.58 194.682 1091.67 194.682 1092.86C194.682 1093.72 194.527 1094.56 194.216 1095.38C193.913 1096.19 193.383 1097.09 192.625 1098.09C191.875 1099.08 190.833 1100.3 189.5 1101.73L184.273 1107.32V1107.5H195.091V1110H180.409ZM207.648 1110.32C206.148 1110.32 204.811 1110.06 203.636 1109.55C202.47 1109.03 201.542 1108.31 200.852 1107.4C200.17 1106.47 199.799 1105.4 199.739 1104.18H202.602C202.663 1104.93 202.92 1105.58 203.375 1106.12C203.83 1106.66 204.424 1107.08 205.159 1107.38C205.894 1107.67 206.708 1107.82 207.602 1107.82C208.602 1107.82 209.489 1107.64 210.261 1107.3C211.034 1106.95 211.64 1106.46 212.08 1105.84C212.519 1105.22 212.739 1104.5 212.739 1103.68C212.739 1102.83 212.527 1102.07 212.102 1101.42C211.678 1100.76 211.057 1100.25 210.239 1099.88C209.42 1099.5 208.42 1099.32 207.239 1099.32H205.375V1096.82H207.239C208.163 1096.82 208.973 1096.65 209.67 1096.32C210.375 1095.98 210.924 1095.52 211.318 1094.91C211.72 1094.3 211.92 1093.59 211.92 1092.77C211.92 1091.98 211.746 1091.3 211.398 1090.72C211.049 1090.13 210.557 1089.68 209.92 1089.35C209.292 1089.03 208.549 1088.86 207.693 1088.86C206.89 1088.86 206.133 1089.01 205.42 1089.31C204.716 1089.59 204.14 1090.02 203.693 1090.57C203.246 1091.11 203.004 1091.77 202.966 1092.55H200.239C200.284 1091.33 200.652 1090.26 201.341 1089.34C202.03 1088.42 202.932 1087.7 204.045 1087.18C205.167 1086.67 206.398 1086.41 207.739 1086.41C209.178 1086.41 210.413 1086.7 211.443 1087.28C212.473 1087.86 213.265 1088.62 213.818 1089.57C214.371 1090.52 214.648 1091.54 214.648 1092.64C214.648 1093.95 214.303 1095.06 213.614 1095.99C212.932 1096.91 212.004 1097.55 210.83 1097.91V1098.09C212.299 1098.33 213.447 1098.96 214.273 1099.97C215.098 1100.97 215.511 1102.2 215.511 1103.68C215.511 1104.95 215.167 1106.08 214.477 1107.09C213.795 1108.09 212.864 1108.88 211.682 1109.45C210.5 1110.03 209.155 1110.32 207.648 1110.32ZM230.205 1097.11V1099.61H220.023V1097.11H230.205ZM234.332 1105.23V1102.91L244.56 1086.73H246.241V1090.32H245.105L237.378 1102.55V1102.73H251.151V1105.23H234.332ZM245.287 1110V1104.52V1103.44V1086.73H247.969V1110H245.287ZM262.682 1110.32C261.348 1110.32 260.148 1110.05 259.08 1109.52C258.011 1108.99 257.155 1108.27 256.511 1107.34C255.867 1106.42 255.515 1105.36 255.455 1104.18H258.182C258.288 1105.23 258.765 1106.11 259.614 1106.8C260.47 1107.48 261.492 1107.82 262.682 1107.82C263.636 1107.82 264.485 1107.59 265.227 1107.15C265.977 1106.7 266.564 1106.09 266.989 1105.31C267.42 1104.52 267.636 1103.63 267.636 1102.64C267.636 1101.62 267.413 1100.72 266.966 1099.92C266.527 1099.12 265.92 1098.48 265.148 1098.02C264.375 1097.56 263.492 1097.33 262.5 1097.32C261.788 1097.31 261.057 1097.42 260.307 1097.65C259.557 1097.87 258.939 1098.15 258.455 1098.5L255.818 1098.18L257.227 1086.73H269.318V1089.23H259.591L258.773 1096.09H258.909C259.386 1095.71 259.985 1095.4 260.705 1095.15C261.424 1094.9 262.174 1094.77 262.955 1094.77C264.379 1094.77 265.648 1095.11 266.761 1095.8C267.883 1096.47 268.761 1097.39 269.398 1098.57C270.042 1099.74 270.364 1101.08 270.364 1102.59C270.364 1104.08 270.03 1105.4 269.364 1106.57C268.705 1107.73 267.795 1108.64 266.636 1109.32C265.477 1109.98 264.159 1110.32 262.682 1110.32ZM282.605 1110.32C281.651 1110.3 280.696 1110.12 279.741 1109.77C278.787 1109.42 277.916 1108.84 277.128 1108.01C276.34 1107.18 275.707 1106.05 275.23 1104.64C274.753 1103.21 274.514 1101.42 274.514 1099.27C274.514 1097.21 274.707 1095.39 275.094 1093.8C275.48 1092.2 276.041 1090.85 276.776 1089.76C277.51 1088.66 278.397 1087.83 279.435 1087.26C280.48 1086.69 281.658 1086.41 282.969 1086.41C284.272 1086.41 285.431 1086.67 286.446 1087.19C287.469 1087.71 288.302 1088.43 288.946 1089.35C289.59 1090.28 290.007 1091.34 290.196 1092.55H287.423C287.166 1091.5 286.666 1090.63 285.923 1089.94C285.181 1089.25 284.196 1088.91 282.969 1088.91C281.166 1088.91 279.745 1089.69 278.707 1091.26C277.677 1092.83 277.158 1095.03 277.151 1097.86H277.332C277.757 1097.22 278.26 1096.67 278.844 1096.22C279.435 1095.75 280.086 1095.4 280.798 1095.15C281.51 1094.9 282.264 1094.77 283.06 1094.77C284.393 1094.77 285.613 1095.11 286.719 1095.77C287.825 1096.43 288.711 1097.34 289.378 1098.51C290.045 1099.67 290.378 1101 290.378 1102.5C290.378 1103.94 290.056 1105.26 289.412 1106.45C288.768 1107.64 287.863 1108.59 286.696 1109.3C285.537 1109.99 284.173 1110.33 282.605 1110.32ZM282.605 1107.82C283.56 1107.82 284.416 1107.58 285.173 1107.1C285.938 1106.62 286.541 1105.98 286.98 1105.18C287.427 1104.38 287.651 1103.48 287.651 1102.5C287.651 1101.54 287.435 1100.66 287.003 1099.88C286.579 1099.08 285.991 1098.45 285.241 1097.98C284.499 1097.51 283.651 1097.27 282.696 1097.27C281.976 1097.27 281.306 1097.42 280.685 1097.7C280.063 1097.98 279.518 1098.37 279.048 1098.86C278.586 1099.36 278.223 1099.92 277.957 1100.56C277.692 1101.19 277.56 1101.85 277.56 1102.55C277.56 1103.47 277.776 1104.33 278.207 1105.14C278.647 1105.94 279.245 1106.59 280.003 1107.08C280.768 1107.57 281.635 1107.82 282.605 1107.82ZM295.574 1110L305.983 1089.41V1089.23H293.983V1086.73H308.892V1089.36L298.528 1110H295.574ZM66 1183.73C65.0833 1183.73 64.2462 1183.5 63.4886 1183.06C62.7311 1182.6 62.125 1182 61.6705 1181.24C61.2235 1180.48 61 1179.64 61 1178.73C61 1177.8 61.2235 1176.97 61.6705 1176.22C62.125 1175.46 62.7311 1174.86 63.4886 1174.41C64.2462 1173.95 65.0833 1173.73 66 1173.73C66.9242 1173.73 67.7614 1173.95 68.5114 1174.41C69.2689 1174.86 69.8712 1175.46 70.3182 1176.22C70.7727 1176.97 71 1177.8 71 1178.73C71 1179.64 70.7727 1180.48 70.3182 1181.24C69.8712 1182 69.2689 1182.6 68.5114 1183.06C67.7614 1183.5 66.9242 1183.73 66 1183.73ZM99.6818 1188.32C98.3485 1188.32 97.1477 1188.05 96.0795 1187.52C95.0114 1186.99 94.1553 1186.27 93.5114 1185.34C92.8674 1184.42 92.5152 1183.36 92.4545 1182.18H95.1818C95.2879 1183.23 95.7652 1184.11 96.6136 1184.8C97.4697 1185.48 98.4924 1185.82 99.6818 1185.82C100.636 1185.82 101.485 1185.59 102.227 1185.15C102.977 1184.7 103.564 1184.09 103.989 1183.31C104.42 1182.52 104.636 1181.63 104.636 1180.64C104.636 1179.62 104.413 1178.72 103.966 1177.92C103.527 1177.12 102.92 1176.48 102.148 1176.02C101.375 1175.56 100.492 1175.33 99.5 1175.32C98.7879 1175.31 98.0568 1175.42 97.3068 1175.65C96.5568 1175.87 95.9394 1176.15 95.4545 1176.5L92.8182 1176.18L94.2273 1164.73H106.318V1167.23H96.5909L95.7727 1174.09H95.9091C96.3864 1173.71 96.9848 1173.4 97.7045 1173.15C98.4242 1172.9 99.1742 1172.77 99.9545 1172.77C101.379 1172.77 102.648 1173.11 103.761 1173.8C104.883 1174.47 105.761 1175.39 106.398 1176.57C107.042 1177.74 107.364 1179.08 107.364 1180.59C107.364 1182.08 107.03 1183.4 106.364 1184.57C105.705 1185.73 104.795 1186.64 103.636 1187.32C102.477 1187.98 101.159 1188.32 99.6818 1188.32ZM119.151 1188.32C117.817 1188.32 116.616 1188.05 115.548 1187.52C114.48 1186.99 113.624 1186.27 112.98 1185.34C112.336 1184.42 111.984 1183.36 111.923 1182.18H114.651C114.757 1183.23 115.234 1184.11 116.082 1184.8C116.938 1185.48 117.961 1185.82 119.151 1185.82C120.105 1185.82 120.954 1185.59 121.696 1185.15C122.446 1184.7 123.033 1184.09 123.457 1183.31C123.889 1182.52 124.105 1181.63 124.105 1180.64C124.105 1179.62 123.882 1178.72 123.435 1177.92C122.995 1177.12 122.389 1176.48 121.616 1176.02C120.844 1175.56 119.961 1175.33 118.969 1175.32C118.257 1175.31 117.526 1175.42 116.776 1175.65C116.026 1175.87 115.408 1176.15 114.923 1176.5L112.287 1176.18L113.696 1164.73H125.787V1167.23H116.06L115.241 1174.09H115.378C115.855 1173.71 116.454 1173.4 117.173 1173.15C117.893 1172.9 118.643 1172.77 119.423 1172.77C120.848 1172.77 122.116 1173.11 123.23 1173.8C124.351 1174.47 125.23 1175.39 125.866 1176.57C126.51 1177.74 126.832 1179.08 126.832 1180.59C126.832 1182.08 126.499 1183.4 125.832 1184.57C125.173 1185.73 124.264 1186.64 123.105 1187.32C121.946 1187.98 120.628 1188.32 119.151 1188.32ZM138.619 1188.32C137.286 1188.32 136.085 1188.05 135.017 1187.52C133.949 1186.99 133.093 1186.27 132.449 1185.34C131.805 1184.42 131.453 1183.36 131.392 1182.18H134.119C134.225 1183.23 134.703 1184.11 135.551 1184.8C136.407 1185.48 137.43 1185.82 138.619 1185.82C139.574 1185.82 140.422 1185.59 141.165 1185.15C141.915 1184.7 142.502 1184.09 142.926 1183.31C143.358 1182.52 143.574 1181.63 143.574 1180.64C143.574 1179.62 143.35 1178.72 142.903 1177.92C142.464 1177.12 141.858 1176.48 141.085 1176.02C140.313 1175.56 139.43 1175.33 138.438 1175.32C137.725 1175.31 136.994 1175.42 136.244 1175.65C135.494 1175.87 134.877 1176.15 134.392 1176.5L131.756 1176.18L133.165 1164.73H145.256V1167.23H135.528L134.71 1174.09H134.847C135.324 1173.71 135.922 1173.4 136.642 1173.15C137.362 1172.9 138.112 1172.77 138.892 1172.77C140.316 1172.77 141.585 1173.11 142.699 1173.8C143.82 1174.47 144.699 1175.39 145.335 1176.57C145.979 1177.74 146.301 1179.08 146.301 1180.59C146.301 1182.08 145.968 1183.4 145.301 1184.57C144.642 1185.73 143.733 1186.64 142.574 1187.32C141.415 1187.98 140.097 1188.32 138.619 1188.32ZM160.861 1175.11V1177.61H150.679V1175.11H160.861ZM172.943 1164.41C173.898 1164.42 174.852 1164.6 175.807 1164.95C176.761 1165.31 177.633 1165.9 178.42 1166.73C179.208 1167.55 179.841 1168.66 180.318 1170.08C180.795 1171.5 181.034 1173.27 181.034 1175.41C181.034 1177.48 180.837 1179.31 180.443 1180.92C180.057 1182.52 179.496 1183.87 178.761 1184.97C178.034 1186.06 177.148 1186.9 176.102 1187.47C175.064 1188.03 173.89 1188.32 172.58 1188.32C171.277 1188.32 170.114 1188.06 169.091 1187.55C168.076 1187.02 167.242 1186.3 166.591 1185.38C165.947 1184.44 165.534 1183.36 165.352 1182.14H168.125C168.375 1183.2 168.871 1184.09 169.614 1184.78C170.364 1185.47 171.352 1185.82 172.58 1185.82C174.375 1185.82 175.792 1185.03 176.83 1183.47C177.875 1181.9 178.398 1179.68 178.398 1176.82H178.216C177.792 1177.45 177.288 1178 176.705 1178.47C176.121 1178.93 175.473 1179.28 174.761 1179.53C174.049 1179.78 173.292 1179.91 172.489 1179.91C171.155 1179.91 169.932 1179.58 168.818 1178.92C167.712 1178.25 166.826 1177.34 166.159 1176.18C165.5 1175.02 165.17 1173.68 165.17 1172.18C165.17 1170.76 165.489 1169.45 166.125 1168.27C166.769 1167.08 167.67 1166.14 168.83 1165.43C169.996 1164.73 171.367 1164.39 172.943 1164.41ZM172.943 1166.91C171.989 1166.91 171.129 1167.15 170.364 1167.62C169.606 1168.09 169.004 1168.73 168.557 1169.53C168.117 1170.33 167.898 1171.21 167.898 1172.18C167.898 1173.15 168.11 1174.03 168.534 1174.83C168.966 1175.62 169.553 1176.25 170.295 1176.72C171.045 1177.18 171.898 1177.41 172.852 1177.41C173.572 1177.41 174.242 1177.27 174.864 1176.99C175.485 1176.7 176.027 1176.31 176.489 1175.82C176.958 1175.32 177.326 1174.75 177.591 1174.12C177.856 1173.49 177.989 1172.83 177.989 1172.14C177.989 1171.23 177.769 1170.37 177.33 1169.58C176.898 1168.78 176.299 1168.14 175.534 1167.65C174.777 1167.16 173.913 1166.91 172.943 1166.91ZM192.957 1188.32C191.397 1188.32 190.018 1188.04 188.821 1187.49C187.632 1186.93 186.704 1186.16 186.037 1185.18C185.37 1184.2 185.041 1183.08 185.048 1181.82C185.041 1180.83 185.234 1179.92 185.628 1179.09C186.022 1178.25 186.56 1177.55 187.241 1176.99C187.931 1176.42 188.7 1176.06 189.548 1175.91V1175.77C188.435 1175.48 187.548 1174.86 186.889 1173.9C186.23 1172.93 185.904 1171.83 185.912 1170.59C185.904 1169.41 186.204 1168.35 186.81 1167.42C187.416 1166.49 188.249 1165.75 189.31 1165.22C190.378 1164.68 191.594 1164.41 192.957 1164.41C194.306 1164.41 195.51 1164.68 196.571 1165.22C197.632 1165.75 198.465 1166.49 199.071 1167.42C199.685 1168.35 199.995 1169.41 200.003 1170.59C199.995 1171.83 199.658 1172.93 198.991 1173.9C198.332 1174.86 197.457 1175.48 196.366 1175.77V1175.91C197.207 1176.06 197.965 1176.42 198.639 1176.99C199.313 1177.55 199.851 1178.25 200.253 1179.09C200.654 1179.92 200.859 1180.83 200.866 1181.82C200.859 1183.08 200.518 1184.2 199.844 1185.18C199.177 1186.16 198.249 1186.93 197.06 1187.49C195.878 1188.04 194.51 1188.32 192.957 1188.32ZM192.957 1185.82C194.01 1185.82 194.92 1185.65 195.685 1185.31C196.45 1184.97 197.041 1184.48 197.457 1183.86C197.874 1183.24 198.086 1182.52 198.094 1181.68C198.086 1180.8 197.859 1180.03 197.412 1179.35C196.965 1178.68 196.355 1178.15 195.582 1177.76C194.817 1177.37 193.942 1177.18 192.957 1177.18C191.965 1177.18 191.079 1177.37 190.298 1177.76C189.526 1178.15 188.916 1178.68 188.469 1179.35C188.029 1180.03 187.813 1180.8 187.821 1181.68C187.813 1182.52 188.014 1183.24 188.423 1183.86C188.84 1184.48 189.435 1184.97 190.207 1185.31C190.98 1185.65 191.897 1185.82 192.957 1185.82ZM192.957 1174.77C193.791 1174.77 194.529 1174.61 195.173 1174.27C195.825 1173.94 196.336 1173.47 196.707 1172.88C197.079 1172.28 197.268 1171.58 197.276 1170.77C197.268 1169.98 197.082 1169.3 196.719 1168.72C196.355 1168.12 195.851 1167.67 195.207 1167.35C194.563 1167.03 193.813 1166.86 192.957 1166.86C192.086 1166.86 191.325 1167.03 190.673 1167.35C190.022 1167.67 189.518 1168.12 189.162 1168.72C188.806 1169.3 188.632 1169.98 188.639 1170.77C188.632 1171.58 188.81 1172.28 189.173 1172.88C189.545 1173.47 190.056 1173.94 190.707 1174.27C191.359 1174.61 192.109 1174.77 192.957 1174.77ZM205.949 1188L216.358 1167.41V1167.23H204.358V1164.73H219.267V1167.36L208.903 1188H205.949ZM233.548 1175.11V1177.61H223.366V1175.11H233.548ZM245.949 1188.32C244.994 1188.3 244.04 1188.12 243.085 1187.77C242.131 1187.42 241.259 1186.84 240.472 1186.01C239.684 1185.18 239.051 1184.05 238.574 1182.64C238.097 1181.21 237.858 1179.42 237.858 1177.27C237.858 1175.21 238.051 1173.39 238.438 1171.8C238.824 1170.2 239.384 1168.85 240.119 1167.76C240.854 1166.66 241.741 1165.83 242.778 1165.26C243.824 1164.69 245.002 1164.41 246.312 1164.41C247.616 1164.41 248.775 1164.67 249.79 1165.19C250.813 1165.71 251.646 1166.43 252.29 1167.35C252.934 1168.28 253.35 1169.34 253.54 1170.55H250.767C250.509 1169.5 250.009 1168.63 249.267 1167.94C248.525 1167.25 247.54 1166.91 246.312 1166.91C244.509 1166.91 243.089 1167.69 242.051 1169.26C241.021 1170.83 240.502 1173.03 240.494 1175.86H240.676C241.1 1175.22 241.604 1174.67 242.188 1174.22C242.778 1173.75 243.43 1173.4 244.142 1173.15C244.854 1172.9 245.608 1172.77 246.403 1172.77C247.737 1172.77 248.956 1173.11 250.062 1173.77C251.169 1174.43 252.055 1175.34 252.722 1176.51C253.388 1177.67 253.722 1179 253.722 1180.5C253.722 1181.94 253.4 1183.26 252.756 1184.45C252.112 1185.64 251.206 1186.59 250.04 1187.3C248.881 1187.99 247.517 1188.33 245.949 1188.32ZM245.949 1185.82C246.903 1185.82 247.759 1185.58 248.517 1185.1C249.282 1184.62 249.884 1183.98 250.324 1183.18C250.771 1182.38 250.994 1181.48 250.994 1180.5C250.994 1179.54 250.778 1178.66 250.347 1177.88C249.922 1177.08 249.335 1176.45 248.585 1175.98C247.843 1175.51 246.994 1175.27 246.04 1175.27C245.32 1175.27 244.65 1175.42 244.028 1175.7C243.407 1175.98 242.862 1176.37 242.392 1176.86C241.93 1177.36 241.566 1177.92 241.301 1178.56C241.036 1179.19 240.903 1179.85 240.903 1180.55C240.903 1181.47 241.119 1182.33 241.551 1183.14C241.991 1183.94 242.589 1184.59 243.347 1185.08C244.112 1185.57 244.979 1185.82 245.949 1185.82ZM265.463 1188.32C264.13 1188.32 262.929 1188.05 261.861 1187.52C260.793 1186.99 259.937 1186.27 259.293 1185.34C258.649 1184.42 258.296 1183.36 258.236 1182.18H260.963C261.069 1183.23 261.546 1184.11 262.395 1184.8C263.251 1185.48 264.274 1185.82 265.463 1185.82C266.418 1185.82 267.266 1185.59 268.009 1185.15C268.759 1184.7 269.346 1184.09 269.77 1183.31C270.202 1182.52 270.418 1181.63 270.418 1180.64C270.418 1179.62 270.194 1178.72 269.747 1177.92C269.308 1177.12 268.702 1176.48 267.929 1176.02C267.156 1175.56 266.274 1175.33 265.281 1175.32C264.569 1175.31 263.838 1175.42 263.088 1175.65C262.338 1175.87 261.721 1176.15 261.236 1176.5L258.599 1176.18L260.009 1164.73H272.099V1167.23H262.372L261.554 1174.09H261.69C262.168 1173.71 262.766 1173.4 263.486 1173.15C264.205 1172.9 264.955 1172.77 265.736 1172.77C267.16 1172.77 268.429 1173.11 269.543 1173.8C270.664 1174.47 271.543 1175.39 272.179 1176.57C272.823 1177.74 273.145 1179.08 273.145 1180.59C273.145 1182.08 272.812 1183.4 272.145 1184.57C271.486 1185.73 270.577 1186.64 269.418 1187.32C268.259 1187.98 266.94 1188.32 265.463 1188.32ZM277.114 1183.23V1180.91L287.341 1164.73H289.023V1168.32H287.886L280.159 1180.55V1180.73H293.932V1183.23H277.114ZM288.068 1188V1182.52V1181.44V1164.73H290.75V1188H288.068ZM306.054 1188.32C304.554 1188.32 303.217 1188.06 302.043 1187.55C300.876 1187.03 299.948 1186.31 299.259 1185.4C298.577 1184.47 298.205 1183.4 298.145 1182.18H301.009C301.069 1182.93 301.327 1183.58 301.781 1184.12C302.236 1184.66 302.83 1185.08 303.565 1185.38C304.3 1185.67 305.115 1185.82 306.009 1185.82C307.009 1185.82 307.895 1185.64 308.668 1185.3C309.44 1184.95 310.046 1184.46 310.486 1183.84C310.925 1183.22 311.145 1182.5 311.145 1181.68C311.145 1180.83 310.933 1180.07 310.509 1179.42C310.084 1178.76 309.463 1178.25 308.645 1177.88C307.827 1177.5 306.827 1177.32 305.645 1177.32H303.781V1174.82H305.645C306.569 1174.82 307.38 1174.65 308.077 1174.32C308.781 1173.98 309.33 1173.52 309.724 1172.91C310.126 1172.3 310.327 1171.59 310.327 1170.77C310.327 1169.98 310.152 1169.3 309.804 1168.72C309.455 1168.13 308.963 1167.68 308.327 1167.35C307.698 1167.03 306.955 1166.86 306.099 1166.86C305.296 1166.86 304.539 1167.01 303.827 1167.31C303.122 1167.59 302.546 1168.02 302.099 1168.57C301.652 1169.11 301.41 1169.77 301.372 1170.55H298.645C298.69 1169.33 299.058 1168.26 299.747 1167.34C300.437 1166.42 301.338 1165.7 302.452 1165.18C303.573 1164.67 304.804 1164.41 306.145 1164.41C307.584 1164.41 308.819 1164.7 309.849 1165.28C310.88 1165.86 311.671 1166.62 312.224 1167.57C312.777 1168.52 313.054 1169.54 313.054 1170.64C313.054 1171.95 312.709 1173.06 312.02 1173.99C311.338 1174.91 310.41 1175.55 309.236 1175.91V1176.09C310.705 1176.33 311.853 1176.96 312.679 1177.97C313.505 1178.97 313.918 1180.2 313.918 1181.68C313.918 1182.95 313.573 1184.08 312.884 1185.09C312.202 1186.09 311.27 1186.88 310.088 1187.45C308.906 1188.03 307.562 1188.32 306.054 1188.32ZM66 1261.73C65.0833 1261.73 64.2462 1261.5 63.4886 1261.06C62.7311 1260.6 62.125 1260 61.6705 1259.24C61.2235 1258.48 61 1257.64 61 1256.73C61 1255.8 61.2235 1254.97 61.6705 1254.22C62.125 1253.46 62.7311 1252.86 63.4886 1252.41C64.2462 1251.95 65.0833 1251.73 66 1251.73C66.9242 1251.73 67.7614 1251.95 68.5114 1252.41C69.2689 1252.86 69.8712 1253.46 70.3182 1254.22C70.7727 1254.97 71 1255.8 71 1256.73C71 1257.64 70.7727 1258.48 70.3182 1259.24C69.8712 1260 69.2689 1260.6 68.5114 1261.06C67.7614 1261.5 66.9242 1261.73 66 1261.73ZM99.6818 1266.32C98.3485 1266.32 97.1477 1266.05 96.0795 1265.52C95.0114 1264.99 94.1553 1264.27 93.5114 1263.34C92.8674 1262.42 92.5152 1261.36 92.4545 1260.18H95.1818C95.2879 1261.23 95.7652 1262.11 96.6136 1262.8C97.4697 1263.48 98.4924 1263.82 99.6818 1263.82C100.636 1263.82 101.485 1263.59 102.227 1263.15C102.977 1262.7 103.564 1262.09 103.989 1261.31C104.42 1260.52 104.636 1259.63 104.636 1258.64C104.636 1257.62 104.413 1256.72 103.966 1255.92C103.527 1255.12 102.92 1254.48 102.148 1254.02C101.375 1253.56 100.492 1253.33 99.5 1253.32C98.7879 1253.31 98.0568 1253.42 97.3068 1253.65C96.5568 1253.87 95.9394 1254.15 95.4545 1254.5L92.8182 1254.18L94.2273 1242.73H106.318V1245.23H96.5909L95.7727 1252.09H95.9091C96.3864 1251.71 96.9848 1251.4 97.7045 1251.15C98.4242 1250.9 99.1742 1250.77 99.9545 1250.77C101.379 1250.77 102.648 1251.11 103.761 1251.8C104.883 1252.47 105.761 1253.39 106.398 1254.57C107.042 1255.74 107.364 1257.08 107.364 1258.59C107.364 1260.08 107.03 1261.4 106.364 1262.57C105.705 1263.73 104.795 1264.64 103.636 1265.32C102.477 1265.98 101.159 1266.32 99.6818 1266.32ZM119.151 1266.32C117.817 1266.32 116.616 1266.05 115.548 1265.52C114.48 1264.99 113.624 1264.27 112.98 1263.34C112.336 1262.42 111.984 1261.36 111.923 1260.18H114.651C114.757 1261.23 115.234 1262.11 116.082 1262.8C116.938 1263.48 117.961 1263.82 119.151 1263.82C120.105 1263.82 120.954 1263.59 121.696 1263.15C122.446 1262.7 123.033 1262.09 123.457 1261.31C123.889 1260.52 124.105 1259.63 124.105 1258.64C124.105 1257.62 123.882 1256.72 123.435 1255.92C122.995 1255.12 122.389 1254.48 121.616 1254.02C120.844 1253.56 119.961 1253.33 118.969 1253.32C118.257 1253.31 117.526 1253.42 116.776 1253.65C116.026 1253.87 115.408 1254.15 114.923 1254.5L112.287 1254.18L113.696 1242.73H125.787V1245.23H116.06L115.241 1252.09H115.378C115.855 1251.71 116.454 1251.4 117.173 1251.15C117.893 1250.9 118.643 1250.77 119.423 1250.77C120.848 1250.77 122.116 1251.11 123.23 1251.8C124.351 1252.47 125.23 1253.39 125.866 1254.57C126.51 1255.74 126.832 1257.08 126.832 1258.59C126.832 1260.08 126.499 1261.4 125.832 1262.57C125.173 1263.73 124.264 1264.64 123.105 1265.32C121.946 1265.98 120.628 1266.32 119.151 1266.32ZM138.619 1266.32C137.286 1266.32 136.085 1266.05 135.017 1265.52C133.949 1264.99 133.093 1264.27 132.449 1263.34C131.805 1262.42 131.453 1261.36 131.392 1260.18H134.119C134.225 1261.23 134.703 1262.11 135.551 1262.8C136.407 1263.48 137.43 1263.82 138.619 1263.82C139.574 1263.82 140.422 1263.59 141.165 1263.15C141.915 1262.7 142.502 1262.09 142.926 1261.31C143.358 1260.52 143.574 1259.63 143.574 1258.64C143.574 1257.62 143.35 1256.72 142.903 1255.92C142.464 1255.12 141.858 1254.48 141.085 1254.02C140.313 1253.56 139.43 1253.33 138.438 1253.32C137.725 1253.31 136.994 1253.42 136.244 1253.65C135.494 1253.87 134.877 1254.15 134.392 1254.5L131.756 1254.18L133.165 1242.73H145.256V1245.23H135.528L134.71 1252.09H134.847C135.324 1251.71 135.922 1251.4 136.642 1251.15C137.362 1250.9 138.112 1250.77 138.892 1250.77C140.316 1250.77 141.585 1251.11 142.699 1251.8C143.82 1252.47 144.699 1253.39 145.335 1254.57C145.979 1255.74 146.301 1257.08 146.301 1258.59C146.301 1260.08 145.968 1261.4 145.301 1262.57C144.642 1263.73 143.733 1264.64 142.574 1265.32C141.415 1265.98 140.097 1266.32 138.619 1266.32ZM160.861 1253.11V1255.61H150.679V1253.11H160.861ZM164.44 1266V1263.95L172.122 1255.55C173.024 1254.56 173.766 1253.7 174.349 1252.98C174.933 1252.24 175.365 1251.55 175.645 1250.91C175.933 1250.26 176.077 1249.58 176.077 1248.86C176.077 1248.05 175.88 1247.34 175.486 1246.74C175.099 1246.14 174.569 1245.68 173.895 1245.35C173.221 1245.03 172.463 1244.86 171.622 1244.86C170.728 1244.86 169.948 1245.05 169.281 1245.42C168.622 1245.78 168.111 1246.3 167.747 1246.95C167.391 1247.61 167.213 1248.39 167.213 1249.27H164.531C164.531 1247.91 164.846 1246.71 165.474 1245.68C166.103 1244.65 166.959 1243.85 168.043 1243.27C169.134 1242.7 170.357 1242.41 171.713 1242.41C173.077 1242.41 174.285 1242.7 175.338 1243.27C176.391 1243.85 177.217 1244.62 177.815 1245.6C178.414 1246.58 178.713 1247.67 178.713 1248.86C178.713 1249.72 178.558 1250.56 178.247 1251.38C177.944 1252.19 177.414 1253.09 176.656 1254.09C175.906 1255.08 174.865 1256.3 173.531 1257.73L168.304 1263.32V1263.5H179.122V1266H164.44ZM182.77 1261.23V1258.91L192.997 1242.73H194.679V1246.32H193.543L185.815 1258.55V1258.73H199.588V1261.23H182.77ZM193.724 1266V1260.52V1259.44V1242.73H196.406V1266H193.724ZM211.574 1266.32C210.619 1266.3 209.665 1266.12 208.71 1265.77C207.756 1265.42 206.884 1264.84 206.097 1264.01C205.309 1263.18 204.676 1262.05 204.199 1260.64C203.722 1259.21 203.483 1257.42 203.483 1255.27C203.483 1253.21 203.676 1251.39 204.062 1249.8C204.449 1248.2 205.009 1246.85 205.744 1245.76C206.479 1244.66 207.366 1243.83 208.403 1243.26C209.449 1242.69 210.627 1242.41 211.938 1242.41C213.241 1242.41 214.4 1242.67 215.415 1243.19C216.438 1243.71 217.271 1244.43 217.915 1245.35C218.559 1246.28 218.975 1247.34 219.165 1248.55H216.392C216.134 1247.5 215.634 1246.63 214.892 1245.94C214.15 1245.25 213.165 1244.91 211.938 1244.91C210.134 1244.91 208.714 1245.69 207.676 1247.26C206.646 1248.83 206.127 1251.03 206.119 1253.86H206.301C206.725 1253.22 207.229 1252.67 207.812 1252.22C208.403 1251.75 209.055 1251.4 209.767 1251.15C210.479 1250.9 211.233 1250.77 212.028 1250.77C213.362 1250.77 214.581 1251.11 215.688 1251.77C216.794 1252.43 217.68 1253.34 218.347 1254.51C219.013 1255.67 219.347 1257 219.347 1258.5C219.347 1259.94 219.025 1261.26 218.381 1262.45C217.737 1263.64 216.831 1264.59 215.665 1265.3C214.506 1265.99 213.142 1266.33 211.574 1266.32ZM211.574 1263.82C212.528 1263.82 213.384 1263.58 214.142 1263.1C214.907 1262.62 215.509 1261.98 215.949 1261.18C216.396 1260.38 216.619 1259.48 216.619 1258.5C216.619 1257.54 216.403 1256.66 215.972 1255.88C215.547 1255.08 214.96 1254.45 214.21 1253.98C213.468 1253.51 212.619 1253.27 211.665 1253.27C210.945 1253.27 210.275 1253.42 209.653 1253.7C209.032 1253.98 208.487 1254.37 208.017 1254.86C207.555 1255.36 207.191 1255.92 206.926 1256.56C206.661 1257.19 206.528 1257.85 206.528 1258.55C206.528 1259.47 206.744 1260.33 207.176 1261.14C207.616 1261.94 208.214 1262.59 208.972 1263.08C209.737 1263.57 210.604 1263.82 211.574 1263.82ZM233.861 1253.11V1255.61H223.679V1253.11H233.861ZM245.989 1266.32C244.428 1266.32 243.049 1266.04 241.852 1265.49C240.663 1264.93 239.735 1264.16 239.068 1263.18C238.402 1262.2 238.072 1261.08 238.08 1259.82C238.072 1258.83 238.265 1257.92 238.659 1257.09C239.053 1256.25 239.591 1255.55 240.273 1254.99C240.962 1254.42 241.731 1254.06 242.58 1253.91V1253.77C241.466 1253.48 240.58 1252.86 239.92 1251.9C239.261 1250.93 238.936 1249.83 238.943 1248.59C238.936 1247.41 239.235 1246.35 239.841 1245.42C240.447 1244.49 241.28 1243.75 242.341 1243.22C243.409 1242.68 244.625 1242.41 245.989 1242.41C247.337 1242.41 248.542 1242.68 249.602 1243.22C250.663 1243.75 251.496 1244.49 252.102 1245.42C252.716 1246.35 253.027 1247.41 253.034 1248.59C253.027 1249.83 252.689 1250.93 252.023 1251.9C251.364 1252.86 250.489 1253.48 249.398 1253.77V1253.91C250.239 1254.06 250.996 1254.42 251.67 1254.99C252.345 1255.55 252.883 1256.25 253.284 1257.09C253.686 1257.92 253.89 1258.83 253.898 1259.82C253.89 1261.08 253.549 1262.2 252.875 1263.18C252.208 1264.16 251.28 1264.93 250.091 1265.49C248.909 1266.04 247.542 1266.32 245.989 1266.32ZM245.989 1263.82C247.042 1263.82 247.951 1263.65 248.716 1263.31C249.481 1262.97 250.072 1262.48 250.489 1261.86C250.905 1261.24 251.117 1260.52 251.125 1259.68C251.117 1258.8 250.89 1258.03 250.443 1257.35C249.996 1256.68 249.386 1256.15 248.614 1255.76C247.848 1255.37 246.973 1255.18 245.989 1255.18C244.996 1255.18 244.11 1255.37 243.33 1255.76C242.557 1256.15 241.947 1256.68 241.5 1257.35C241.061 1258.03 240.845 1258.8 240.852 1259.68C240.845 1260.52 241.045 1261.24 241.455 1261.86C241.871 1262.48 242.466 1262.97 243.239 1263.31C244.011 1263.65 244.928 1263.82 245.989 1263.82ZM245.989 1252.77C246.822 1252.77 247.561 1252.61 248.205 1252.27C248.856 1251.94 249.367 1251.47 249.739 1250.88C250.11 1250.28 250.299 1249.58 250.307 1248.77C250.299 1247.98 250.114 1247.3 249.75 1246.72C249.386 1246.12 248.883 1245.67 248.239 1245.35C247.595 1245.03 246.845 1244.86 245.989 1244.86C245.117 1244.86 244.356 1245.03 243.705 1245.35C243.053 1245.67 242.549 1246.12 242.193 1246.72C241.837 1247.3 241.663 1247.98 241.67 1248.77C241.663 1249.58 241.841 1250.28 242.205 1250.88C242.576 1251.47 243.087 1251.94 243.739 1252.27C244.39 1252.61 245.14 1252.77 245.989 1252.77ZM266.435 1242.73V1266H263.616V1245.68H263.48L257.798 1249.45V1246.59L263.616 1242.73H266.435ZM280.719 1266.32C279.007 1266.32 277.548 1265.85 276.344 1264.92C275.139 1263.98 274.219 1262.62 273.582 1260.84C272.946 1259.05 272.628 1256.89 272.628 1254.36C272.628 1251.85 272.946 1249.7 273.582 1247.92C274.226 1246.13 275.151 1244.77 276.355 1243.83C277.567 1242.88 279.022 1242.41 280.719 1242.41C282.416 1242.41 283.866 1242.88 285.071 1243.83C286.283 1244.77 287.207 1246.13 287.844 1247.92C288.488 1249.7 288.81 1251.85 288.81 1254.36C288.81 1256.89 288.491 1259.05 287.855 1260.84C287.219 1262.62 286.298 1263.98 285.094 1264.92C283.889 1265.85 282.431 1266.32 280.719 1266.32ZM280.719 1263.82C282.416 1263.82 283.734 1263 284.673 1261.36C285.613 1259.73 286.082 1257.39 286.082 1254.36C286.082 1252.35 285.866 1250.63 285.435 1249.22C285.01 1247.8 284.397 1246.72 283.594 1245.98C282.798 1245.23 281.84 1244.86 280.719 1244.86C279.037 1244.86 277.723 1245.69 276.776 1247.35C275.829 1249 275.355 1251.34 275.355 1254.36C275.355 1256.38 275.567 1258.09 275.991 1259.5C276.416 1260.91 277.026 1261.98 277.821 1262.72C278.624 1263.45 279.59 1263.82 280.719 1263.82ZM301.31 1242.73V1266H298.491V1245.68H298.355L292.673 1249.45V1246.59L298.491 1242.73H301.31Z" fill="white"/>
<path d="M170.837 1040V1010.91H182.314C184.521 1010.91 186.4 1011.33 187.953 1012.17C189.507 1013.01 190.69 1014.17 191.505 1015.65C192.328 1017.13 192.74 1018.84 192.74 1020.77C192.74 1022.7 192.324 1024.4 191.49 1025.88C190.657 1027.36 189.45 1028.51 187.868 1029.33C186.296 1030.16 184.393 1030.57 182.158 1030.57H174.843V1025.64H181.164C182.347 1025.64 183.323 1025.44 184.09 1025.03C184.866 1024.61 185.444 1024.04 185.823 1023.31C186.211 1022.57 186.405 1021.72 186.405 1020.77C186.405 1019.8 186.211 1018.96 185.823 1018.24C185.444 1017.51 184.866 1016.95 184.09 1016.55C183.313 1016.14 182.328 1015.94 181.135 1015.94H176.988V1040H170.837ZM202.673 1027.39V1040H196.622V1010.91H202.502V1022.03H202.758C203.251 1020.74 204.046 1019.73 205.145 1019.01C206.243 1018.27 207.621 1017.9 209.278 1017.9C210.793 1017.9 212.114 1018.23 213.241 1018.89C214.377 1019.55 215.258 1020.49 215.883 1021.72C216.518 1022.94 216.83 1024.4 216.821 1026.11V1040H210.77V1027.19C210.779 1025.84 210.438 1024.8 209.747 1024.05C209.065 1023.3 208.109 1022.93 206.877 1022.93C206.054 1022.93 205.324 1023.1 204.69 1023.45C204.065 1023.8 203.573 1024.31 203.213 1024.99C202.862 1025.65 202.682 1026.45 202.673 1027.39ZM231.441 1040.43C229.234 1040.43 227.326 1039.96 225.716 1039.02C224.116 1038.07 222.88 1036.76 222.009 1035.07C221.138 1033.38 220.702 1031.41 220.702 1029.18C220.702 1026.92 221.138 1024.95 222.009 1023.27C222.88 1021.57 224.116 1020.26 225.716 1019.32C227.326 1018.37 229.234 1017.9 231.441 1017.9C233.647 1017.9 235.551 1018.37 237.151 1019.32C238.761 1020.26 240.001 1021.57 240.873 1023.27C241.744 1024.95 242.179 1026.92 242.179 1029.18C242.179 1031.41 241.744 1033.38 240.873 1035.07C240.001 1036.76 238.761 1038.07 237.151 1039.02C235.551 1039.96 233.647 1040.43 231.441 1040.43ZM231.469 1035.74C232.473 1035.74 233.311 1035.45 233.983 1034.89C234.656 1034.31 235.162 1033.52 235.503 1032.53C235.854 1031.53 236.029 1030.4 236.029 1029.13C236.029 1027.86 235.854 1026.73 235.503 1025.74C235.162 1024.74 234.656 1023.96 233.983 1023.38C233.311 1022.8 232.473 1022.51 231.469 1022.51C230.456 1022.51 229.604 1022.8 228.912 1023.38C228.23 1023.96 227.714 1024.74 227.364 1025.74C227.023 1026.73 226.853 1027.86 226.853 1029.13C226.853 1030.4 227.023 1031.53 227.364 1032.53C227.714 1033.52 228.23 1034.31 228.912 1034.89C229.604 1035.45 230.456 1035.74 231.469 1035.74ZM252.165 1027.39V1040H246.114V1018.18H251.881V1022.03H252.137C252.62 1020.76 253.429 1019.76 254.566 1019.02C255.702 1018.27 257.08 1017.9 258.699 1017.9C260.214 1017.9 261.535 1018.23 262.662 1018.89C263.789 1019.55 264.665 1020.5 265.29 1021.73C265.915 1022.95 266.228 1024.41 266.228 1026.11V1040H260.176V1027.19C260.186 1025.85 259.845 1024.81 259.154 1024.06C258.462 1023.3 257.511 1022.93 256.299 1022.93C255.484 1022.93 254.765 1023.1 254.14 1023.45C253.524 1023.8 253.041 1024.31 252.691 1024.99C252.35 1025.65 252.175 1026.45 252.165 1027.39ZM280.94 1040.43C278.696 1040.43 276.764 1039.97 275.145 1039.06C273.535 1038.14 272.294 1036.85 271.423 1035.17C270.552 1033.48 270.116 1031.49 270.116 1029.19C270.116 1026.95 270.552 1024.98 271.423 1023.28C272.294 1021.59 273.52 1020.27 275.102 1019.32C276.693 1018.37 278.558 1017.9 280.699 1017.9C282.138 1017.9 283.478 1018.13 284.718 1018.59C285.968 1019.05 287.057 1019.73 287.985 1020.65C288.923 1021.57 289.652 1022.73 290.173 1024.12C290.694 1025.5 290.954 1027.12 290.954 1028.98V1030.64H272.531V1026.89H285.258C285.258 1026.02 285.069 1025.25 284.69 1024.57C284.311 1023.9 283.786 1023.38 283.113 1023C282.45 1022.61 281.679 1022.41 280.798 1022.41C279.879 1022.41 279.065 1022.63 278.355 1023.05C277.654 1023.47 277.105 1024.03 276.707 1024.74C276.309 1025.45 276.106 1026.23 276.096 1027.09V1030.65C276.096 1031.73 276.295 1032.67 276.693 1033.45C277.1 1034.24 277.673 1034.84 278.412 1035.27C279.15 1035.7 280.026 1035.91 281.039 1035.91C281.712 1035.91 282.327 1035.81 282.886 1035.62C283.445 1035.44 283.923 1035.15 284.321 1034.77C284.718 1034.39 285.021 1033.93 285.23 1033.38L290.826 1033.75C290.542 1035.09 289.96 1036.27 289.079 1037.27C288.208 1038.27 287.081 1039.04 285.699 1039.6C284.325 1040.15 282.739 1040.43 280.94 1040.43ZM328.607 1010.91V1040H323.294L310.638 1021.69H310.425V1040H304.275V1010.91H309.672L322.229 1029.2H322.485V1010.91H328.607ZM347.566 1030.71V1018.18H353.618V1040H347.808V1036.04H347.581C347.088 1037.32 346.269 1038.34 345.123 1039.12C343.987 1039.9 342.6 1040.28 340.961 1040.28C339.503 1040.28 338.22 1039.95 337.112 1039.29C336.004 1038.63 335.137 1037.68 334.512 1036.46C333.897 1035.24 333.584 1033.78 333.575 1032.07V1018.18H339.626V1030.99C339.636 1032.28 339.981 1033.3 340.663 1034.05C341.345 1034.8 342.259 1035.17 343.404 1035.17C344.134 1035.17 344.815 1035 345.45 1034.67C346.084 1034.33 346.596 1033.83 346.984 1033.17C347.382 1032.5 347.576 1031.69 347.566 1030.71ZM358.458 1040V1018.18H364.225V1022.03H364.48C364.935 1020.75 365.693 1019.74 366.753 1019.01C367.814 1018.27 369.083 1017.9 370.56 1017.9C372.056 1017.9 373.33 1018.27 374.381 1019.02C375.432 1019.76 376.133 1020.76 376.483 1022.03H376.711C377.156 1020.78 377.961 1019.78 379.125 1019.03C380.3 1018.28 381.687 1017.9 383.287 1017.9C385.323 1017.9 386.976 1018.55 388.245 1019.84C389.523 1021.13 390.162 1022.96 390.162 1025.33V1040H384.125V1026.52C384.125 1025.31 383.803 1024.4 383.159 1023.79C382.516 1023.19 381.711 1022.88 380.745 1022.88C379.646 1022.88 378.789 1023.23 378.174 1023.93C377.558 1024.63 377.25 1025.54 377.25 1026.68V1040H371.384V1026.39C371.384 1025.32 371.076 1024.47 370.461 1023.84C369.855 1023.2 369.054 1022.88 368.06 1022.88C367.388 1022.88 366.782 1023.05 366.242 1023.39C365.712 1023.73 365.29 1024.2 364.978 1024.8C364.665 1025.4 364.509 1026.1 364.509 1026.9V1040H358.458ZM395.056 1040V1010.91H401.107V1021.85H401.292C401.557 1021.26 401.94 1020.66 402.442 1020.06C402.953 1019.44 403.616 1018.93 404.431 1018.52C405.255 1018.11 406.277 1017.9 407.499 1017.9C409.09 1017.9 410.558 1018.31 411.902 1019.15C413.247 1019.97 414.322 1021.22 415.127 1022.88C415.932 1024.54 416.334 1026.62 416.334 1029.12C416.334 1031.55 415.941 1033.61 415.155 1035.28C414.379 1036.95 413.318 1038.21 411.973 1039.08C410.638 1039.93 409.142 1040.36 407.485 1040.36C406.31 1040.36 405.311 1040.16 404.488 1039.77C403.673 1039.38 403.006 1038.9 402.485 1038.31C401.964 1037.71 401.566 1037.11 401.292 1036.51H401.022V1040H395.056ZM400.979 1029.09C400.979 1030.39 401.159 1031.52 401.519 1032.49C401.879 1033.45 402.4 1034.2 403.081 1034.74C403.763 1035.27 404.592 1035.54 405.567 1035.54C406.552 1035.54 407.385 1035.27 408.067 1034.73C408.749 1034.18 409.265 1033.42 409.615 1032.46C409.975 1031.48 410.155 1030.36 410.155 1029.09C410.155 1027.83 409.98 1026.72 409.63 1025.77C409.279 1024.81 408.763 1024.06 408.081 1023.52C407.4 1022.98 406.561 1022.71 405.567 1022.71C404.582 1022.71 403.749 1022.97 403.067 1023.49C402.395 1024.02 401.879 1024.75 401.519 1025.71C401.159 1026.67 400.979 1027.79 400.979 1029.09ZM430.315 1040.43C428.071 1040.43 426.139 1039.97 424.52 1039.06C422.91 1038.14 421.669 1036.85 420.798 1035.17C419.927 1033.48 419.491 1031.49 419.491 1029.19C419.491 1026.95 419.927 1024.98 420.798 1023.28C421.669 1021.59 422.895 1020.27 424.477 1019.32C426.068 1018.37 427.933 1017.9 430.074 1017.9C431.513 1017.9 432.853 1018.13 434.093 1018.59C435.343 1019.05 436.432 1019.73 437.36 1020.65C438.298 1021.57 439.027 1022.73 439.548 1024.12C440.069 1025.5 440.329 1027.12 440.329 1028.98V1030.64H421.906V1026.89H434.633C434.633 1026.02 434.444 1025.25 434.065 1024.57C433.686 1023.9 433.161 1023.38 432.488 1023C431.825 1022.61 431.054 1022.41 430.173 1022.41C429.254 1022.41 428.44 1022.63 427.73 1023.05C427.029 1023.47 426.48 1024.03 426.082 1024.74C425.684 1025.45 425.481 1026.23 425.471 1027.09V1030.65C425.471 1031.73 425.67 1032.67 426.068 1033.45C426.475 1034.24 427.048 1034.84 427.787 1035.27C428.525 1035.7 429.401 1035.91 430.414 1035.91C431.087 1035.91 431.702 1035.81 432.261 1035.62C432.82 1035.44 433.298 1035.15 433.696 1034.77C434.093 1034.39 434.396 1033.93 434.605 1033.38L440.201 1033.75C439.917 1035.09 439.335 1036.27 438.454 1037.27C437.583 1038.27 436.456 1039.04 435.074 1039.6C433.7 1040.15 432.114 1040.43 430.315 1040.43ZM444.278 1040V1018.18H450.145V1021.99H450.372C450.77 1020.63 451.437 1019.61 452.375 1018.92C453.312 1018.22 454.392 1017.87 455.613 1017.87C455.916 1017.87 456.243 1017.89 456.593 1017.93C456.944 1017.96 457.252 1018.02 457.517 1018.08V1023.45C457.233 1023.37 456.84 1023.29 456.338 1023.22C455.836 1023.16 455.377 1023.12 454.96 1023.12C454.07 1023.12 453.274 1023.32 452.574 1023.71C451.882 1024.09 451.333 1024.62 450.926 1025.3C450.528 1025.98 450.329 1026.77 450.329 1027.66V1040H444.278ZM478.799 1024.4L473.259 1024.74C473.164 1024.27 472.961 1023.84 472.648 1023.47C472.336 1023.08 471.924 1022.77 471.412 1022.54C470.91 1022.31 470.309 1022.19 469.608 1022.19C468.671 1022.19 467.88 1022.39 467.236 1022.78C466.592 1023.17 466.27 1023.69 466.27 1024.35C466.27 1024.87 466.479 1025.31 466.895 1025.67C467.312 1026.03 468.027 1026.32 469.04 1026.53L472.989 1027.33C475.11 1027.77 476.692 1028.47 477.733 1029.43C478.775 1030.4 479.296 1031.67 479.296 1033.24C479.296 1034.67 478.874 1035.92 478.032 1037C477.198 1038.08 476.052 1038.93 474.594 1039.53C473.145 1040.13 471.474 1040.43 469.58 1040.43C466.692 1040.43 464.391 1039.82 462.676 1038.62C460.972 1037.41 459.973 1035.76 459.679 1033.68L465.631 1033.37C465.811 1034.25 466.247 1034.92 466.938 1035.38C467.629 1035.84 468.515 1036.07 469.594 1036.07C470.655 1036.07 471.507 1035.86 472.151 1035.45C472.804 1035.04 473.136 1034.5 473.145 1033.85C473.136 1033.3 472.904 1032.85 472.449 1032.5C471.995 1032.14 471.294 1031.87 470.347 1031.68L466.569 1030.92C464.438 1030.5 462.852 1029.76 461.81 1028.71C460.778 1027.66 460.262 1026.32 460.262 1024.69C460.262 1023.29 460.641 1022.08 461.398 1021.07C462.165 1020.05 463.24 1019.27 464.623 1018.72C466.015 1018.17 467.643 1017.9 469.509 1017.9C472.265 1017.9 474.433 1018.48 476.015 1019.64C477.605 1020.81 478.533 1022.4 478.799 1024.4Z" fill="white"/>
<path d="M361 1105.73C360.083 1105.73 359.246 1105.5 358.489 1105.06C357.731 1104.6 357.125 1104 356.67 1103.24C356.223 1102.48 356 1101.64 356 1100.73C356 1099.8 356.223 1098.97 356.67 1098.22C357.125 1097.46 357.731 1096.86 358.489 1096.41C359.246 1095.95 360.083 1095.73 361 1095.73C361.924 1095.73 362.761 1095.95 363.511 1096.41C364.269 1096.86 364.871 1097.46 365.318 1098.22C365.773 1098.97 366 1099.8 366 1100.73C366 1101.64 365.773 1102.48 365.318 1103.24C364.871 1104 364.269 1104.6 363.511 1105.06C362.761 1105.5 361.924 1105.73 361 1105.73ZM394.682 1110.32C393.348 1110.32 392.148 1110.05 391.08 1109.52C390.011 1108.99 389.155 1108.27 388.511 1107.34C387.867 1106.42 387.515 1105.36 387.455 1104.18H390.182C390.288 1105.23 390.765 1106.11 391.614 1106.8C392.47 1107.48 393.492 1107.82 394.682 1107.82C395.636 1107.82 396.485 1107.59 397.227 1107.15C397.977 1106.7 398.564 1106.09 398.989 1105.31C399.42 1104.52 399.636 1103.63 399.636 1102.64C399.636 1101.62 399.413 1100.72 398.966 1099.92C398.527 1099.12 397.92 1098.48 397.148 1098.02C396.375 1097.56 395.492 1097.33 394.5 1097.32C393.788 1097.31 393.057 1097.42 392.307 1097.65C391.557 1097.87 390.939 1098.15 390.455 1098.5L387.818 1098.18L389.227 1086.73H401.318V1089.23H391.591L390.773 1096.09H390.909C391.386 1095.71 391.985 1095.4 392.705 1095.15C393.424 1094.9 394.174 1094.77 394.955 1094.77C396.379 1094.77 397.648 1095.11 398.761 1095.8C399.883 1096.47 400.761 1097.39 401.398 1098.57C402.042 1099.74 402.364 1101.08 402.364 1102.59C402.364 1104.08 402.03 1105.4 401.364 1106.57C400.705 1107.73 399.795 1108.64 398.636 1109.32C397.477 1109.98 396.159 1110.32 394.682 1110.32ZM414.151 1110.32C412.817 1110.32 411.616 1110.05 410.548 1109.52C409.48 1108.99 408.624 1108.27 407.98 1107.34C407.336 1106.42 406.984 1105.36 406.923 1104.18H409.651C409.757 1105.23 410.234 1106.11 411.082 1106.8C411.938 1107.48 412.961 1107.82 414.151 1107.82C415.105 1107.82 415.954 1107.59 416.696 1107.15C417.446 1106.7 418.033 1106.09 418.457 1105.31C418.889 1104.52 419.105 1103.63 419.105 1102.64C419.105 1101.62 418.882 1100.72 418.435 1099.92C417.995 1099.12 417.389 1098.48 416.616 1098.02C415.844 1097.56 414.961 1097.33 413.969 1097.32C413.257 1097.31 412.526 1097.42 411.776 1097.65C411.026 1097.87 410.408 1098.15 409.923 1098.5L407.287 1098.18L408.696 1086.73H420.787V1089.23H411.06L410.241 1096.09H410.378C410.855 1095.71 411.454 1095.4 412.173 1095.15C412.893 1094.9 413.643 1094.77 414.423 1094.77C415.848 1094.77 417.116 1095.11 418.23 1095.8C419.351 1096.47 420.23 1097.39 420.866 1098.57C421.51 1099.74 421.832 1101.08 421.832 1102.59C421.832 1104.08 421.499 1105.4 420.832 1106.57C420.173 1107.73 419.264 1108.64 418.105 1109.32C416.946 1109.98 415.628 1110.32 414.151 1110.32ZM433.619 1110.32C432.286 1110.32 431.085 1110.05 430.017 1109.52C428.949 1108.99 428.093 1108.27 427.449 1107.34C426.805 1106.42 426.453 1105.36 426.392 1104.18H429.119C429.225 1105.23 429.703 1106.11 430.551 1106.8C431.407 1107.48 432.43 1107.82 433.619 1107.82C434.574 1107.82 435.422 1107.59 436.165 1107.15C436.915 1106.7 437.502 1106.09 437.926 1105.31C438.358 1104.52 438.574 1103.63 438.574 1102.64C438.574 1101.62 438.35 1100.72 437.903 1099.92C437.464 1099.12 436.858 1098.48 436.085 1098.02C435.313 1097.56 434.43 1097.33 433.438 1097.32C432.725 1097.31 431.994 1097.42 431.244 1097.65C430.494 1097.87 429.877 1098.15 429.392 1098.5L426.756 1098.18L428.165 1086.73H440.256V1089.23H430.528L429.71 1096.09H429.847C430.324 1095.71 430.922 1095.4 431.642 1095.15C432.362 1094.9 433.112 1094.77 433.892 1094.77C435.316 1094.77 436.585 1095.11 437.699 1095.8C438.82 1096.47 439.699 1097.39 440.335 1098.57C440.979 1099.74 441.301 1101.08 441.301 1102.59C441.301 1104.08 440.968 1105.4 440.301 1106.57C439.642 1107.73 438.733 1108.64 437.574 1109.32C436.415 1109.98 435.097 1110.32 433.619 1110.32ZM455.861 1097.11V1099.61H445.679V1097.11H455.861ZM468.023 1110.32C466.523 1110.32 465.186 1110.06 464.011 1109.55C462.845 1109.03 461.917 1108.31 461.227 1107.4C460.545 1106.47 460.174 1105.4 460.114 1104.18H462.977C463.038 1104.93 463.295 1105.58 463.75 1106.12C464.205 1106.66 464.799 1107.08 465.534 1107.38C466.269 1107.67 467.083 1107.82 467.977 1107.82C468.977 1107.82 469.864 1107.64 470.636 1107.3C471.409 1106.95 472.015 1106.46 472.455 1105.84C472.894 1105.22 473.114 1104.5 473.114 1103.68C473.114 1102.83 472.902 1102.07 472.477 1101.42C472.053 1100.76 471.432 1100.25 470.614 1099.88C469.795 1099.5 468.795 1099.32 467.614 1099.32H465.75V1096.82H467.614C468.538 1096.82 469.348 1096.65 470.045 1096.32C470.75 1095.98 471.299 1095.52 471.693 1094.91C472.095 1094.3 472.295 1093.59 472.295 1092.77C472.295 1091.98 472.121 1091.3 471.773 1090.72C471.424 1090.13 470.932 1089.68 470.295 1089.35C469.667 1089.03 468.924 1088.86 468.068 1088.86C467.265 1088.86 466.508 1089.01 465.795 1089.31C465.091 1089.59 464.515 1090.02 464.068 1090.57C463.621 1091.11 463.379 1091.77 463.341 1092.55H460.614C460.659 1091.33 461.027 1090.26 461.716 1089.34C462.405 1088.42 463.307 1087.7 464.42 1087.18C465.542 1086.67 466.773 1086.41 468.114 1086.41C469.553 1086.41 470.788 1086.7 471.818 1087.28C472.848 1087.86 473.64 1088.62 474.193 1089.57C474.746 1090.52 475.023 1091.54 475.023 1092.64C475.023 1093.95 474.678 1095.06 473.989 1095.99C473.307 1096.91 472.379 1097.55 471.205 1097.91V1098.09C472.674 1098.33 473.822 1098.96 474.648 1099.97C475.473 1100.97 475.886 1102.2 475.886 1103.68C475.886 1104.95 475.542 1106.08 474.852 1107.09C474.17 1108.09 473.239 1108.88 472.057 1109.45C470.875 1110.03 469.53 1110.32 468.023 1110.32ZM488.261 1110.32C487.307 1110.3 486.352 1110.12 485.398 1109.77C484.443 1109.42 483.572 1108.84 482.784 1108.01C481.996 1107.18 481.364 1106.05 480.886 1104.64C480.409 1103.21 480.17 1101.42 480.17 1099.27C480.17 1097.21 480.364 1095.39 480.75 1093.8C481.136 1092.2 481.697 1090.85 482.432 1089.76C483.167 1088.66 484.053 1087.83 485.091 1087.26C486.136 1086.69 487.314 1086.41 488.625 1086.41C489.928 1086.41 491.087 1086.67 492.102 1087.19C493.125 1087.71 493.958 1088.43 494.602 1089.35C495.246 1090.28 495.663 1091.34 495.852 1092.55H493.08C492.822 1091.5 492.322 1090.63 491.58 1089.94C490.837 1089.25 489.852 1088.91 488.625 1088.91C486.822 1088.91 485.402 1089.69 484.364 1091.26C483.333 1092.83 482.814 1095.03 482.807 1097.86H482.989C483.413 1097.22 483.917 1096.67 484.5 1096.22C485.091 1095.75 485.742 1095.4 486.455 1095.15C487.167 1094.9 487.92 1094.77 488.716 1094.77C490.049 1094.77 491.269 1095.11 492.375 1095.77C493.481 1096.43 494.367 1097.34 495.034 1098.51C495.701 1099.67 496.034 1101 496.034 1102.5C496.034 1103.94 495.712 1105.26 495.068 1106.45C494.424 1107.64 493.519 1108.59 492.352 1109.3C491.193 1109.99 489.83 1110.33 488.261 1110.32ZM488.261 1107.82C489.216 1107.82 490.072 1107.58 490.83 1107.1C491.595 1106.62 492.197 1105.98 492.636 1105.18C493.083 1104.38 493.307 1103.48 493.307 1102.5C493.307 1101.54 493.091 1100.66 492.659 1099.88C492.235 1099.08 491.648 1098.45 490.898 1097.98C490.155 1097.51 489.307 1097.27 488.352 1097.27C487.633 1097.27 486.962 1097.42 486.341 1097.7C485.72 1097.98 485.174 1098.37 484.705 1098.86C484.242 1099.36 483.879 1099.92 483.614 1100.56C483.348 1101.19 483.216 1101.85 483.216 1102.55C483.216 1103.47 483.432 1104.33 483.864 1105.14C484.303 1105.94 484.902 1106.59 485.659 1107.08C486.424 1107.57 487.292 1107.82 488.261 1107.82ZM507.912 1086.41C508.866 1086.42 509.821 1086.6 510.776 1086.95C511.73 1087.31 512.601 1087.9 513.389 1088.73C514.177 1089.55 514.81 1090.66 515.287 1092.08C515.764 1093.5 516.003 1095.27 516.003 1097.41C516.003 1099.48 515.806 1101.31 515.412 1102.92C515.026 1104.52 514.465 1105.87 513.73 1106.97C513.003 1108.06 512.116 1108.9 511.071 1109.47C510.033 1110.03 508.859 1110.32 507.548 1110.32C506.245 1110.32 505.082 1110.06 504.06 1109.55C503.045 1109.02 502.211 1108.3 501.56 1107.38C500.916 1106.44 500.503 1105.36 500.321 1104.14H503.094C503.344 1105.2 503.84 1106.09 504.582 1106.78C505.332 1107.47 506.321 1107.82 507.548 1107.82C509.344 1107.82 510.76 1107.03 511.798 1105.47C512.844 1103.9 513.366 1101.68 513.366 1098.82H513.185C512.76 1099.45 512.257 1100 511.673 1100.47C511.09 1100.93 510.442 1101.28 509.73 1101.53C509.018 1101.78 508.26 1101.91 507.457 1101.91C506.124 1101.91 504.901 1101.58 503.787 1100.92C502.681 1100.25 501.795 1099.34 501.128 1098.18C500.469 1097.02 500.139 1095.68 500.139 1094.18C500.139 1092.76 500.457 1091.45 501.094 1090.27C501.738 1089.08 502.639 1088.14 503.798 1087.43C504.965 1086.73 506.336 1086.39 507.912 1086.41ZM507.912 1088.91C506.957 1088.91 506.098 1089.15 505.332 1089.62C504.575 1090.09 503.973 1090.73 503.526 1091.53C503.086 1092.33 502.866 1093.21 502.866 1094.18C502.866 1095.15 503.079 1096.03 503.503 1096.83C503.935 1097.62 504.522 1098.25 505.264 1098.72C506.014 1099.18 506.866 1099.41 507.821 1099.41C508.541 1099.41 509.211 1099.27 509.832 1098.99C510.454 1098.7 510.995 1098.31 511.457 1097.82C511.927 1097.32 512.295 1096.75 512.56 1096.12C512.825 1095.49 512.957 1094.83 512.957 1094.14C512.957 1093.23 512.738 1092.37 512.298 1091.58C511.866 1090.78 511.268 1090.14 510.503 1089.65C509.745 1089.16 508.882 1088.91 507.912 1088.91ZM530.517 1097.11V1099.61H520.335V1097.11H530.517ZM543.372 1086.73V1110H540.554V1089.68H540.418L534.736 1093.45V1090.59L540.554 1086.73H543.372ZM549.52 1105.23V1102.91L559.747 1086.73H561.429V1090.32H560.293L552.565 1102.55V1102.73H566.338V1105.23H549.52ZM560.474 1110V1104.52V1103.44V1086.73H563.156V1110H560.474ZM571.324 1110L581.733 1089.41V1089.23H569.733V1086.73H584.642V1089.36L574.278 1110H571.324ZM595.969 1110.32C594.257 1110.32 592.798 1109.85 591.594 1108.92C590.389 1107.98 589.469 1106.62 588.832 1104.84C588.196 1103.05 587.878 1100.89 587.878 1098.36C587.878 1095.85 588.196 1093.7 588.832 1091.92C589.476 1090.13 590.401 1088.77 591.605 1087.83C592.817 1086.88 594.272 1086.41 595.969 1086.41C597.666 1086.41 599.116 1086.88 600.321 1087.83C601.533 1088.77 602.457 1090.13 603.094 1091.92C603.738 1093.7 604.06 1095.85 604.06 1098.36C604.06 1100.89 603.741 1103.05 603.105 1104.84C602.469 1106.62 601.548 1107.98 600.344 1108.92C599.139 1109.85 597.681 1110.32 595.969 1110.32ZM595.969 1107.82C597.666 1107.82 598.984 1107 599.923 1105.36C600.863 1103.73 601.332 1101.39 601.332 1098.36C601.332 1096.35 601.116 1094.63 600.685 1093.22C600.26 1091.8 599.647 1090.72 598.844 1089.98C598.048 1089.23 597.09 1088.86 595.969 1088.86C594.287 1088.86 592.973 1089.69 592.026 1091.35C591.079 1093 590.605 1095.34 590.605 1098.36C590.605 1100.38 590.817 1102.09 591.241 1103.5C591.666 1104.91 592.276 1105.98 593.071 1106.72C593.874 1107.45 594.84 1107.82 595.969 1107.82ZM361 1183.73C360.083 1183.73 359.246 1183.5 358.489 1183.06C357.731 1182.6 357.125 1182 356.67 1181.24C356.223 1180.48 356 1179.64 356 1178.73C356 1177.8 356.223 1176.97 356.67 1176.22C357.125 1175.46 357.731 1174.86 358.489 1174.41C359.246 1173.95 360.083 1173.73 361 1173.73C361.924 1173.73 362.761 1173.95 363.511 1174.41C364.269 1174.86 364.871 1175.46 365.318 1176.22C365.773 1176.97 366 1177.8 366 1178.73C366 1179.64 365.773 1180.48 365.318 1181.24C364.871 1182 364.269 1182.6 363.511 1183.06C362.761 1183.5 361.924 1183.73 361 1183.73ZM394.682 1188.32C393.348 1188.32 392.148 1188.05 391.08 1187.52C390.011 1186.99 389.155 1186.27 388.511 1185.34C387.867 1184.42 387.515 1183.36 387.455 1182.18H390.182C390.288 1183.23 390.765 1184.11 391.614 1184.8C392.47 1185.48 393.492 1185.82 394.682 1185.82C395.636 1185.82 396.485 1185.59 397.227 1185.15C397.977 1184.7 398.564 1184.09 398.989 1183.31C399.42 1182.52 399.636 1181.63 399.636 1180.64C399.636 1179.62 399.413 1178.72 398.966 1177.92C398.527 1177.12 397.92 1176.48 397.148 1176.02C396.375 1175.56 395.492 1175.33 394.5 1175.32C393.788 1175.31 393.057 1175.42 392.307 1175.65C391.557 1175.87 390.939 1176.15 390.455 1176.5L387.818 1176.18L389.227 1164.73H401.318V1167.23H391.591L390.773 1174.09H390.909C391.386 1173.71 391.985 1173.4 392.705 1173.15C393.424 1172.9 394.174 1172.77 394.955 1172.77C396.379 1172.77 397.648 1173.11 398.761 1173.8C399.883 1174.47 400.761 1175.39 401.398 1176.57C402.042 1177.74 402.364 1179.08 402.364 1180.59C402.364 1182.08 402.03 1183.4 401.364 1184.57C400.705 1185.73 399.795 1186.64 398.636 1187.32C397.477 1187.98 396.159 1188.32 394.682 1188.32ZM414.151 1188.32C412.817 1188.32 411.616 1188.05 410.548 1187.52C409.48 1186.99 408.624 1186.27 407.98 1185.34C407.336 1184.42 406.984 1183.36 406.923 1182.18H409.651C409.757 1183.23 410.234 1184.11 411.082 1184.8C411.938 1185.48 412.961 1185.82 414.151 1185.82C415.105 1185.82 415.954 1185.59 416.696 1185.15C417.446 1184.7 418.033 1184.09 418.457 1183.31C418.889 1182.52 419.105 1181.63 419.105 1180.64C419.105 1179.62 418.882 1178.72 418.435 1177.92C417.995 1177.12 417.389 1176.48 416.616 1176.02C415.844 1175.56 414.961 1175.33 413.969 1175.32C413.257 1175.31 412.526 1175.42 411.776 1175.65C411.026 1175.87 410.408 1176.15 409.923 1176.5L407.287 1176.18L408.696 1164.73H420.787V1167.23H411.06L410.241 1174.09H410.378C410.855 1173.71 411.454 1173.4 412.173 1173.15C412.893 1172.9 413.643 1172.77 414.423 1172.77C415.848 1172.77 417.116 1173.11 418.23 1173.8C419.351 1174.47 420.23 1175.39 420.866 1176.57C421.51 1177.74 421.832 1179.08 421.832 1180.59C421.832 1182.08 421.499 1183.4 420.832 1184.57C420.173 1185.73 419.264 1186.64 418.105 1187.32C416.946 1187.98 415.628 1188.32 414.151 1188.32ZM433.619 1188.32C432.286 1188.32 431.085 1188.05 430.017 1187.52C428.949 1186.99 428.093 1186.27 427.449 1185.34C426.805 1184.42 426.453 1183.36 426.392 1182.18H429.119C429.225 1183.23 429.703 1184.11 430.551 1184.8C431.407 1185.48 432.43 1185.82 433.619 1185.82C434.574 1185.82 435.422 1185.59 436.165 1185.15C436.915 1184.7 437.502 1184.09 437.926 1183.31C438.358 1182.52 438.574 1181.63 438.574 1180.64C438.574 1179.62 438.35 1178.72 437.903 1177.92C437.464 1177.12 436.858 1176.48 436.085 1176.02C435.313 1175.56 434.43 1175.33 433.438 1175.32C432.725 1175.31 431.994 1175.42 431.244 1175.65C430.494 1175.87 429.877 1176.15 429.392 1176.5L426.756 1176.18L428.165 1164.73H440.256V1167.23H430.528L429.71 1174.09H429.847C430.324 1173.71 430.922 1173.4 431.642 1173.15C432.362 1172.9 433.112 1172.77 433.892 1172.77C435.316 1172.77 436.585 1173.11 437.699 1173.8C438.82 1174.47 439.699 1175.39 440.335 1176.57C440.979 1177.74 441.301 1179.08 441.301 1180.59C441.301 1182.08 440.968 1183.4 440.301 1184.57C439.642 1185.73 438.733 1186.64 437.574 1187.32C436.415 1187.98 435.097 1188.32 433.619 1188.32ZM455.861 1175.11V1177.61H445.679V1175.11H455.861ZM468.125 1188.32C466.413 1188.32 464.955 1187.85 463.75 1186.92C462.545 1185.98 461.625 1184.62 460.989 1182.84C460.352 1181.05 460.034 1178.89 460.034 1176.36C460.034 1173.85 460.352 1171.7 460.989 1169.92C461.633 1168.13 462.557 1166.77 463.761 1165.83C464.973 1164.88 466.428 1164.41 468.125 1164.41C469.822 1164.41 471.273 1164.88 472.477 1165.83C473.689 1166.77 474.614 1168.13 475.25 1169.92C475.894 1171.7 476.216 1173.85 476.216 1176.36C476.216 1178.89 475.898 1181.05 475.261 1182.84C474.625 1184.62 473.705 1185.98 472.5 1186.92C471.295 1187.85 469.837 1188.32 468.125 1188.32ZM468.125 1185.82C469.822 1185.82 471.14 1185 472.08 1183.36C473.019 1181.73 473.489 1179.39 473.489 1176.36C473.489 1174.35 473.273 1172.63 472.841 1171.22C472.417 1169.8 471.803 1168.72 471 1167.98C470.205 1167.23 469.246 1166.86 468.125 1166.86C466.443 1166.86 465.129 1167.69 464.182 1169.35C463.235 1171 462.761 1173.34 462.761 1176.36C462.761 1178.38 462.973 1180.09 463.398 1181.5C463.822 1182.91 464.432 1183.98 465.227 1184.72C466.03 1185.45 466.996 1185.82 468.125 1185.82ZM488.125 1188.32C486.413 1188.32 484.955 1187.85 483.75 1186.92C482.545 1185.98 481.625 1184.62 480.989 1182.84C480.352 1181.05 480.034 1178.89 480.034 1176.36C480.034 1173.85 480.352 1171.7 480.989 1169.92C481.633 1168.13 482.557 1166.77 483.761 1165.83C484.973 1164.88 486.428 1164.41 488.125 1164.41C489.822 1164.41 491.273 1164.88 492.477 1165.83C493.689 1166.77 494.614 1168.13 495.25 1169.92C495.894 1171.7 496.216 1173.85 496.216 1176.36C496.216 1178.89 495.898 1181.05 495.261 1182.84C494.625 1184.62 493.705 1185.98 492.5 1186.92C491.295 1187.85 489.837 1188.32 488.125 1188.32ZM488.125 1185.82C489.822 1185.82 491.14 1185 492.08 1183.36C493.019 1181.73 493.489 1179.39 493.489 1176.36C493.489 1174.35 493.273 1172.63 492.841 1171.22C492.417 1169.8 491.803 1168.72 491 1167.98C490.205 1167.23 489.246 1166.86 488.125 1166.86C486.443 1166.86 485.129 1167.69 484.182 1169.35C483.235 1171 482.761 1173.34 482.761 1176.36C482.761 1178.38 482.973 1180.09 483.398 1181.5C483.822 1182.91 484.432 1183.98 485.227 1184.72C486.03 1185.45 486.996 1185.82 488.125 1185.82ZM508.125 1188.32C506.413 1188.32 504.955 1187.85 503.75 1186.92C502.545 1185.98 501.625 1184.62 500.989 1182.84C500.352 1181.05 500.034 1178.89 500.034 1176.36C500.034 1173.85 500.352 1171.7 500.989 1169.92C501.633 1168.13 502.557 1166.77 503.761 1165.83C504.973 1164.88 506.428 1164.41 508.125 1164.41C509.822 1164.41 511.273 1164.88 512.477 1165.83C513.689 1166.77 514.614 1168.13 515.25 1169.92C515.894 1171.7 516.216 1173.85 516.216 1176.36C516.216 1178.89 515.898 1181.05 515.261 1182.84C514.625 1184.62 513.705 1185.98 512.5 1186.92C511.295 1187.85 509.837 1188.32 508.125 1188.32ZM508.125 1185.82C509.822 1185.82 511.14 1185 512.08 1183.36C513.019 1181.73 513.489 1179.39 513.489 1176.36C513.489 1174.35 513.273 1172.63 512.841 1171.22C512.417 1169.8 511.803 1168.72 511 1167.98C510.205 1167.23 509.246 1166.86 508.125 1166.86C506.443 1166.86 505.129 1167.69 504.182 1169.35C503.235 1171 502.761 1173.34 502.761 1176.36C502.761 1178.38 502.973 1180.09 503.398 1181.5C503.822 1182.91 504.432 1183.98 505.227 1184.72C506.03 1185.45 506.996 1185.82 508.125 1185.82ZM530.58 1175.11V1177.61H520.398V1175.11H530.58ZM543.435 1164.73V1188H540.616V1167.68H540.48L534.798 1171.45V1168.59L540.616 1164.73H543.435ZM558.31 1164.73V1188H555.491V1167.68H555.355L549.673 1171.45V1168.59L555.491 1164.73H558.31ZM565.003 1188V1185.95L572.685 1177.55C573.586 1176.56 574.329 1175.7 574.912 1174.98C575.495 1174.24 575.927 1173.55 576.207 1172.91C576.495 1172.26 576.639 1171.58 576.639 1170.86C576.639 1170.05 576.442 1169.34 576.048 1168.74C575.662 1168.14 575.132 1167.68 574.457 1167.35C573.783 1167.03 573.026 1166.86 572.185 1166.86C571.291 1166.86 570.51 1167.05 569.844 1167.42C569.185 1167.78 568.673 1168.3 568.31 1168.95C567.954 1169.61 567.776 1170.39 567.776 1171.27H565.094C565.094 1169.91 565.408 1168.71 566.037 1167.68C566.666 1166.65 567.522 1165.85 568.605 1165.27C569.696 1164.7 570.92 1164.41 572.276 1164.41C573.639 1164.41 574.848 1164.7 575.901 1165.27C576.954 1165.85 577.779 1166.62 578.378 1167.6C578.976 1168.58 579.276 1169.67 579.276 1170.86C579.276 1171.72 579.12 1172.56 578.81 1173.38C578.507 1174.19 577.976 1175.09 577.219 1176.09C576.469 1177.08 575.427 1178.3 574.094 1179.73L568.866 1185.32V1185.5H579.685V1188H565.003ZM584.378 1188V1185.95L592.06 1177.55C592.961 1176.56 593.704 1175.7 594.287 1174.98C594.87 1174.24 595.302 1173.55 595.582 1172.91C595.87 1172.26 596.014 1171.58 596.014 1170.86C596.014 1170.05 595.817 1169.34 595.423 1168.74C595.037 1168.14 594.507 1167.68 593.832 1167.35C593.158 1167.03 592.401 1166.86 591.56 1166.86C590.666 1166.86 589.885 1167.05 589.219 1167.42C588.56 1167.78 588.048 1168.3 587.685 1168.95C587.329 1169.61 587.151 1170.39 587.151 1171.27H584.469C584.469 1169.91 584.783 1168.71 585.412 1167.68C586.041 1166.65 586.897 1165.85 587.98 1165.27C589.071 1164.7 590.295 1164.41 591.651 1164.41C593.014 1164.41 594.223 1164.7 595.276 1165.27C596.329 1165.85 597.154 1166.62 597.753 1167.6C598.351 1168.58 598.651 1169.67 598.651 1170.86C598.651 1171.72 598.495 1172.56 598.185 1173.38C597.882 1174.19 597.351 1175.09 596.594 1176.09C595.844 1177.08 594.802 1178.3 593.469 1179.73L588.241 1185.32V1185.5H599.06V1188H584.378ZM361 1261.73C360.083 1261.73 359.246 1261.5 358.489 1261.06C357.731 1260.6 357.125 1260 356.67 1259.24C356.223 1258.48 356 1257.64 356 1256.73C356 1255.8 356.223 1254.97 356.67 1254.22C357.125 1253.46 357.731 1252.86 358.489 1252.41C359.246 1251.95 360.083 1251.73 361 1251.73C361.924 1251.73 362.761 1251.95 363.511 1252.41C364.269 1252.86 364.871 1253.46 365.318 1254.22C365.773 1254.97 366 1255.8 366 1256.73C366 1257.64 365.773 1258.48 365.318 1259.24C364.871 1260 364.269 1260.6 363.511 1261.06C362.761 1261.5 361.924 1261.73 361 1261.73ZM394.682 1266.32C393.348 1266.32 392.148 1266.05 391.08 1265.52C390.011 1264.99 389.155 1264.27 388.511 1263.34C387.867 1262.42 387.515 1261.36 387.455 1260.18H390.182C390.288 1261.23 390.765 1262.11 391.614 1262.8C392.47 1263.48 393.492 1263.82 394.682 1263.82C395.636 1263.82 396.485 1263.59 397.227 1263.15C397.977 1262.7 398.564 1262.09 398.989 1261.31C399.42 1260.52 399.636 1259.63 399.636 1258.64C399.636 1257.62 399.413 1256.72 398.966 1255.92C398.527 1255.12 397.92 1254.48 397.148 1254.02C396.375 1253.56 395.492 1253.33 394.5 1253.32C393.788 1253.31 393.057 1253.42 392.307 1253.65C391.557 1253.87 390.939 1254.15 390.455 1254.5L387.818 1254.18L389.227 1242.73H401.318V1245.23H391.591L390.773 1252.09H390.909C391.386 1251.71 391.985 1251.4 392.705 1251.15C393.424 1250.9 394.174 1250.77 394.955 1250.77C396.379 1250.77 397.648 1251.11 398.761 1251.8C399.883 1252.47 400.761 1253.39 401.398 1254.57C402.042 1255.74 402.364 1257.08 402.364 1258.59C402.364 1260.08 402.03 1261.4 401.364 1262.57C400.705 1263.73 399.795 1264.64 398.636 1265.32C397.477 1265.98 396.159 1266.32 394.682 1266.32ZM414.151 1266.32C412.817 1266.32 411.616 1266.05 410.548 1265.52C409.48 1264.99 408.624 1264.27 407.98 1263.34C407.336 1262.42 406.984 1261.36 406.923 1260.18H409.651C409.757 1261.23 410.234 1262.11 411.082 1262.8C411.938 1263.48 412.961 1263.82 414.151 1263.82C415.105 1263.82 415.954 1263.59 416.696 1263.15C417.446 1262.7 418.033 1262.09 418.457 1261.31C418.889 1260.52 419.105 1259.63 419.105 1258.64C419.105 1257.62 418.882 1256.72 418.435 1255.92C417.995 1255.12 417.389 1254.48 416.616 1254.02C415.844 1253.56 414.961 1253.33 413.969 1253.32C413.257 1253.31 412.526 1253.42 411.776 1253.65C411.026 1253.87 410.408 1254.15 409.923 1254.5L407.287 1254.18L408.696 1242.73H420.787V1245.23H411.06L410.241 1252.09H410.378C410.855 1251.71 411.454 1251.4 412.173 1251.15C412.893 1250.9 413.643 1250.77 414.423 1250.77C415.848 1250.77 417.116 1251.11 418.23 1251.8C419.351 1252.47 420.23 1253.39 420.866 1254.57C421.51 1255.74 421.832 1257.08 421.832 1258.59C421.832 1260.08 421.499 1261.4 420.832 1262.57C420.173 1263.73 419.264 1264.64 418.105 1265.32C416.946 1265.98 415.628 1266.32 414.151 1266.32ZM433.619 1266.32C432.286 1266.32 431.085 1266.05 430.017 1265.52C428.949 1264.99 428.093 1264.27 427.449 1263.34C426.805 1262.42 426.453 1261.36 426.392 1260.18H429.119C429.225 1261.23 429.703 1262.11 430.551 1262.8C431.407 1263.48 432.43 1263.82 433.619 1263.82C434.574 1263.82 435.422 1263.59 436.165 1263.15C436.915 1262.7 437.502 1262.09 437.926 1261.31C438.358 1260.52 438.574 1259.63 438.574 1258.64C438.574 1257.62 438.35 1256.72 437.903 1255.92C437.464 1255.12 436.858 1254.48 436.085 1254.02C435.313 1253.56 434.43 1253.33 433.438 1253.32C432.725 1253.31 431.994 1253.42 431.244 1253.65C430.494 1253.87 429.877 1254.15 429.392 1254.5L426.756 1254.18L428.165 1242.73H440.256V1245.23H430.528L429.71 1252.09H429.847C430.324 1251.71 430.922 1251.4 431.642 1251.15C432.362 1250.9 433.112 1250.77 433.892 1250.77C435.316 1250.77 436.585 1251.11 437.699 1251.8C438.82 1252.47 439.699 1253.39 440.335 1254.57C440.979 1255.74 441.301 1257.08 441.301 1258.59C441.301 1260.08 440.968 1261.4 440.301 1262.57C439.642 1263.73 438.733 1264.64 437.574 1265.32C436.415 1265.98 435.097 1266.32 433.619 1266.32ZM455.861 1253.11V1255.61H445.679V1253.11H455.861ZM460.543 1266L470.952 1245.41V1245.23H458.952V1242.73H473.861V1245.36L463.497 1266H460.543ZM475.676 1261.23V1258.91L485.903 1242.73H487.585V1246.32H486.449L478.722 1258.55V1258.73H492.494V1261.23H475.676ZM486.631 1266V1260.52V1259.44V1242.73H489.312V1266H486.631ZM504.622 1242.73V1266H501.804V1245.68H501.668L495.986 1249.45V1246.59L501.804 1242.73H504.622ZM521.361 1253.11V1255.61H511.179V1253.11H521.361ZM524.94 1266V1263.95L532.622 1255.55C533.524 1254.56 534.266 1253.7 534.849 1252.98C535.433 1252.24 535.865 1251.55 536.145 1250.91C536.433 1250.26 536.577 1249.58 536.577 1248.86C536.577 1248.05 536.38 1247.34 535.986 1246.74C535.599 1246.14 535.069 1245.68 534.395 1245.35C533.721 1245.03 532.963 1244.86 532.122 1244.86C531.228 1244.86 530.448 1245.05 529.781 1245.42C529.122 1245.78 528.611 1246.3 528.247 1246.95C527.891 1247.61 527.713 1248.39 527.713 1249.27H525.031C525.031 1247.91 525.346 1246.71 525.974 1245.68C526.603 1244.65 527.459 1243.85 528.543 1243.27C529.634 1242.7 530.857 1242.41 532.213 1242.41C533.577 1242.41 534.785 1242.7 535.838 1243.27C536.891 1243.85 537.717 1244.62 538.315 1245.6C538.914 1246.58 539.213 1247.67 539.213 1248.86C539.213 1249.72 539.058 1250.56 538.747 1251.38C538.444 1252.19 537.914 1253.09 537.156 1254.09C536.406 1255.08 535.365 1256.3 534.031 1257.73L528.804 1263.32V1263.5H539.622V1266H524.94ZM551.588 1266.32C550.255 1266.32 549.054 1266.05 547.986 1265.52C546.918 1264.99 546.062 1264.27 545.418 1263.34C544.774 1262.42 544.421 1261.36 544.361 1260.18H547.088C547.194 1261.23 547.671 1262.11 548.52 1262.8C549.376 1263.48 550.399 1263.82 551.588 1263.82C552.543 1263.82 553.391 1263.59 554.134 1263.15C554.884 1262.7 555.471 1262.09 555.895 1261.31C556.327 1260.52 556.543 1259.63 556.543 1258.64C556.543 1257.62 556.319 1256.72 555.872 1255.92C555.433 1255.12 554.827 1254.48 554.054 1254.02C553.281 1253.56 552.399 1253.33 551.406 1253.32C550.694 1253.31 549.963 1253.42 549.213 1253.65C548.463 1253.87 547.846 1254.15 547.361 1254.5L544.724 1254.18L546.134 1242.73H558.224V1245.23H548.497L547.679 1252.09H547.815C548.293 1251.71 548.891 1251.4 549.611 1251.15C550.33 1250.9 551.08 1250.77 551.861 1250.77C553.285 1250.77 554.554 1251.11 555.668 1251.8C556.789 1252.47 557.668 1253.39 558.304 1254.57C558.948 1255.74 559.27 1257.08 559.27 1258.59C559.27 1260.08 558.937 1261.4 558.27 1262.57C557.611 1263.73 556.702 1264.64 555.543 1265.32C554.384 1265.98 553.065 1266.32 551.588 1266.32ZM571.239 1266.32C569.678 1266.32 568.299 1266.04 567.102 1265.49C565.913 1264.93 564.985 1264.16 564.318 1263.18C563.652 1262.2 563.322 1261.08 563.33 1259.82C563.322 1258.83 563.515 1257.92 563.909 1257.09C564.303 1256.25 564.841 1255.55 565.523 1254.99C566.212 1254.42 566.981 1254.06 567.83 1253.91V1253.77C566.716 1253.48 565.83 1252.86 565.17 1251.9C564.511 1250.93 564.186 1249.83 564.193 1248.59C564.186 1247.41 564.485 1246.35 565.091 1245.42C565.697 1244.49 566.53 1243.75 567.591 1243.22C568.659 1242.68 569.875 1242.41 571.239 1242.41C572.587 1242.41 573.792 1242.68 574.852 1243.22C575.913 1243.75 576.746 1244.49 577.352 1245.42C577.966 1246.35 578.277 1247.41 578.284 1248.59C578.277 1249.83 577.939 1250.93 577.273 1251.9C576.614 1252.86 575.739 1253.48 574.648 1253.77V1253.91C575.489 1254.06 576.246 1254.42 576.92 1254.99C577.595 1255.55 578.133 1256.25 578.534 1257.09C578.936 1257.92 579.14 1258.83 579.148 1259.82C579.14 1261.08 578.799 1262.2 578.125 1263.18C577.458 1264.16 576.53 1264.93 575.341 1265.49C574.159 1266.04 572.792 1266.32 571.239 1266.32ZM571.239 1263.82C572.292 1263.82 573.201 1263.65 573.966 1263.31C574.731 1262.97 575.322 1262.48 575.739 1261.86C576.155 1261.24 576.367 1260.52 576.375 1259.68C576.367 1258.8 576.14 1258.03 575.693 1257.35C575.246 1256.68 574.636 1256.15 573.864 1255.76C573.098 1255.37 572.223 1255.18 571.239 1255.18C570.246 1255.18 569.36 1255.37 568.58 1255.76C567.807 1256.15 567.197 1256.68 566.75 1257.35C566.311 1258.03 566.095 1258.8 566.102 1259.68C566.095 1260.52 566.295 1261.24 566.705 1261.86C567.121 1262.48 567.716 1262.97 568.489 1263.31C569.261 1263.65 570.178 1263.82 571.239 1263.82ZM571.239 1252.77C572.072 1252.77 572.811 1252.61 573.455 1252.27C574.106 1251.94 574.617 1251.47 574.989 1250.88C575.36 1250.28 575.549 1249.58 575.557 1248.77C575.549 1247.98 575.364 1247.3 575 1246.72C574.636 1246.12 574.133 1245.67 573.489 1245.35C572.845 1245.03 572.095 1244.86 571.239 1244.86C570.367 1244.86 569.606 1245.03 568.955 1245.35C568.303 1245.67 567.799 1246.12 567.443 1246.72C567.087 1247.3 566.913 1247.98 566.92 1248.77C566.913 1249.58 567.091 1250.28 567.455 1250.88C567.826 1251.47 568.337 1251.94 568.989 1252.27C569.64 1252.61 570.39 1252.77 571.239 1252.77ZM591.094 1266.32C589.382 1266.32 587.923 1265.85 586.719 1264.92C585.514 1263.98 584.594 1262.62 583.957 1260.84C583.321 1259.05 583.003 1256.89 583.003 1254.36C583.003 1251.85 583.321 1249.7 583.957 1247.92C584.601 1246.13 585.526 1244.77 586.73 1243.83C587.942 1242.88 589.397 1242.41 591.094 1242.41C592.791 1242.41 594.241 1242.88 595.446 1243.83C596.658 1244.77 597.582 1246.13 598.219 1247.92C598.863 1249.7 599.185 1251.85 599.185 1254.36C599.185 1256.89 598.866 1259.05 598.23 1260.84C597.594 1262.62 596.673 1263.98 595.469 1264.92C594.264 1265.85 592.806 1266.32 591.094 1266.32ZM591.094 1263.82C592.791 1263.82 594.109 1263 595.048 1261.36C595.988 1259.73 596.457 1257.39 596.457 1254.36C596.457 1252.35 596.241 1250.63 595.81 1249.22C595.385 1247.8 594.772 1246.72 593.969 1245.98C593.173 1245.23 592.215 1244.86 591.094 1244.86C589.412 1244.86 588.098 1245.69 587.151 1247.35C586.204 1249 585.73 1251.34 585.73 1254.36C585.73 1256.38 585.942 1258.09 586.366 1259.5C586.791 1260.91 587.401 1261.98 588.196 1262.72C588.999 1263.45 589.965 1263.82 591.094 1263.82Z" fill="white"/>
<defs>
<clipPath id="clip0_572_713">
<rect width="180" height="206" fill="white" transform="translate(234 91)"/>
</clipPath>
</defs>
</svg>
