<svg xmlns="http://www.w3.org/2000/svg" width="648" height="1274" fill="none" viewBox="0 0 648 1274"><path fill="#fff" d="M210.415 45V15.91h11.477q3.31 0 5.64 1.263 2.329 1.251 3.551 3.48 1.236 2.217 1.236 5.114 0 2.898-1.25 5.114t-3.623 3.451q-2.358 1.236-5.71 1.236h-7.315V30.64h6.321q1.776 0 2.926-.61 1.164-.625 1.733-1.72.582-1.107.582-2.542 0-1.45-.582-2.528-.569-1.095-1.733-1.69-1.165-.611-2.955-.611h-4.147V45zm31.836-12.614V45H236.2V15.91h5.881V27.03h.255q.739-1.932 2.387-3.025 1.647-1.108 4.133-1.108 2.273 0 3.963.994 1.705.98 2.642 2.827.952 1.832.938 4.389V45h-6.051V32.188q.013-2.018-1.023-3.14-1.023-1.122-2.869-1.122-1.236 0-2.188.526-.937.525-1.477 1.534-.526.995-.54 2.4m28.768 13.04q-3.31 0-5.725-1.406-2.4-1.42-3.707-3.949-1.307-2.543-1.307-5.895 0-3.38 1.307-5.909 1.307-2.542 3.707-3.949 2.415-1.42 5.725-1.42t5.71 1.42q2.415 1.407 3.722 3.949 1.306 2.528 1.306 5.91 0 3.351-1.306 5.894-1.308 2.529-3.722 3.949-2.4 1.406-5.71 1.406m.028-4.687q1.506 0 2.514-.853 1.009-.866 1.52-2.358.526-1.49.526-3.395 0-1.902-.526-3.394-.511-1.492-1.52-2.358t-2.514-.867q-1.52 0-2.557.867-1.022.866-1.548 2.358-.511 1.492-.511 3.394 0 1.904.511 3.395.526 1.492 1.548 2.358 1.038.853 2.557.853m20.696-8.353V45h-6.051V23.182h5.767v3.85h.256a6.1 6.1 0 0 1 2.429-3.012q1.704-1.122 4.133-1.122 2.273 0 3.963.994t2.628 2.841q.938 1.832.938 4.375V45h-6.051V32.188q.014-2.003-1.023-3.126-1.037-1.136-2.855-1.136-1.222 0-2.159.526-.924.525-1.449 1.534-.511.995-.526 2.4m28.775 13.04q-3.366 0-5.795-1.364-2.415-1.377-3.722-3.892-1.307-2.527-1.307-5.98 0-3.366 1.307-5.909t3.679-3.963q2.386-1.42 5.597-1.42 2.159 0 4.02.696a8.9 8.9 0 0 1 3.267 2.06q1.406 1.377 2.187 3.465.781 2.074.781 4.858v1.662h-18.423v-3.75h12.727q0-1.307-.568-2.315a4.07 4.07 0 0 0-1.577-1.577q-.993-.582-2.315-.582-1.378 0-2.443.639-1.051.625-1.648 1.69-.596 1.051-.611 2.344v3.565q0 1.62.597 2.799.61 1.179 1.719 1.818 1.107.64 2.628.64 1.008 0 1.846-.285a3.8 3.8 0 0 0 1.435-.852q.597-.57.909-1.392l5.596.369a7.64 7.64 0 0 1-1.747 3.523q-1.307 1.49-3.38 2.33-2.06.823-4.759.823M343.853 45V15.91H355.5q3.212 0 5.355.95 2.145.953 3.225 2.643 1.08 1.676 1.079 3.863 0 1.705-.681 2.998a5.9 5.9 0 0 1-1.875 2.102q-1.18.81-2.699 1.15v.285a6.5 6.5 0 0 1 3.111.937q1.463.866 2.372 2.429.909 1.548.909 3.693 0 2.316-1.151 4.134-1.136 1.803-3.366 2.855-2.23 1.05-5.497 1.051zm6.15-5.028h5.014q2.571 0 3.75-.98 1.179-.994 1.179-2.643 0-1.207-.582-2.13-.582-.924-1.662-1.45-1.065-.525-2.543-.525h-5.156zm0-11.89h4.56q1.264 0 2.244-.44.995-.455 1.563-1.278.582-.825.582-1.975 0-1.576-1.122-2.542-1.108-.966-3.154-.966h-4.673zm30.039 17.344q-3.309 0-5.724-1.406-2.4-1.42-3.708-3.949-1.306-2.543-1.306-5.895 0-3.38 1.306-5.909 1.307-2.542 3.708-3.949 2.415-1.42 5.724-1.42t5.71 1.42q2.415 1.407 3.722 3.949 1.307 2.528 1.307 5.91 0 3.351-1.307 5.894-1.307 2.529-3.722 3.949-2.4 1.406-5.71 1.406m.029-4.687q1.505 0 2.514-.853 1.008-.866 1.52-2.358.525-1.49.525-3.395 0-1.902-.525-3.394-.512-1.492-1.52-2.358t-2.514-.867q-1.52 0-2.557.867-1.023.866-1.548 2.358-.512 1.492-.512 3.394 0 1.904.512 3.395.525 1.492 1.548 2.358 1.036.853 2.557.853m24.503 4.687q-3.31 0-5.725-1.406-2.4-1.42-3.707-3.949-1.308-2.543-1.307-5.895 0-3.38 1.307-5.909 1.307-2.542 3.707-3.949 2.415-1.42 5.725-1.42t5.71 1.42q2.415 1.407 3.721 3.949 1.308 2.528 1.307 5.91 0 3.351-1.307 5.894-1.306 2.529-3.721 3.949-2.401 1.406-5.71 1.406m.028-4.687q1.506 0 2.514-.853 1.008-.866 1.52-2.358.526-1.49.526-3.395 0-1.902-.526-3.394-.512-1.492-1.52-2.358t-2.514-.867q-1.52 0-2.557.867-1.023.866-1.548 2.358-.512 1.492-.512 3.394 0 1.904.512 3.395.525 1.492 1.548 2.358 1.037.853 2.557.853m20.128-2.017.014-7.259h.881l6.988-8.281h6.946l-9.389 10.966h-1.435zM419.247 45V15.91h6.051V45zm13.636 0-6.42-9.503 4.034-4.275L439.971 45zM266.431 545v-29.091h11.477q3.31 0 5.639 1.264 2.33 1.251 3.551 3.48 1.236 2.216 1.236 5.114t-1.25 5.114-3.622 3.451q-2.358 1.236-5.71 1.236h-7.316v-4.929h6.321q1.776 0 2.927-.611 1.164-.624 1.733-1.718.582-1.109.582-2.543 0-1.45-.582-2.528-.569-1.094-1.733-1.691-1.166-.61-2.955-.61h-4.148V545zm31.42.412q-2.088 0-3.721-.724-1.634-.739-2.586-2.174-.937-1.448-.937-3.608 0-1.818.668-3.054a5.4 5.4 0 0 1 1.818-1.988 8.8 8.8 0 0 1 2.613-1.137 20 20 0 0 1 3.097-.539 78 78 0 0 0 3.068-.37q1.165-.185 1.69-.54.526-.354.526-1.051v-.085q0-1.35-.852-2.088-.838-.739-2.387-.739-1.633 0-2.599.725-.966.71-1.278 1.79l-5.597-.455q.426-1.99 1.676-3.437 1.25-1.464 3.225-2.245 1.987-.795 4.602-.795 1.818 0 3.48.426 1.676.426 2.969 1.321a6.4 6.4 0 0 1 2.059 2.301q.753 1.392.753 3.338V545H304.4v-3.026h-.171a6.1 6.1 0 0 1-1.406 1.804q-.88.767-2.117 1.208-1.236.426-2.855.426m1.733-4.176q1.335 0 2.358-.526a4.2 4.2 0 0 0 1.605-1.449q.582-.909.583-2.059v-2.316q-.284.185-.782.341-.483.143-1.093.27-.612.114-1.222.213l-1.108.156q-1.065.157-1.861.498-.795.34-1.236.923-.44.568-.44 1.42 0 1.236.895 1.89.909.639 2.301.639m25.078 12.4q-2.94 0-5.042-.809-2.088-.796-3.324-2.174t-1.605-3.096l5.596-.753q.257.654.81 1.222.554.567 1.463.909.924.355 2.244.355 1.975 0 3.253-.966 1.293-.952 1.293-3.196v-3.992h-.256q-.398.909-1.193 1.719t-2.046 1.321q-1.25.512-2.982.512-2.458 0-4.475-1.137-2.002-1.15-3.196-3.508-1.179-2.373-1.179-5.995 0-3.707 1.207-6.193t3.211-3.721a8.3 8.3 0 0 1 4.417-1.236q1.833 0 3.068.625 1.236.61 1.989 1.534.767.909 1.179 1.79h.227v-3.665h6.009v22.031q0 2.784-1.364 4.659-1.363 1.875-3.778 2.813-2.4.951-5.526.951m.128-13.494q1.463 0 2.472-.724 1.023-.74 1.562-2.103.555-1.378.554-3.295 0-1.918-.54-3.324-.539-1.42-1.562-2.202-1.023-.781-2.486-.781-1.491 0-2.514.81-1.023.795-1.548 2.216-.526 1.42-.526 3.281 0 1.889.526 3.267.54 1.364 1.548 2.116 1.023.74 2.514.739m25.298 5.284q-3.366 0-5.795-1.364-2.415-1.377-3.722-3.892-1.306-2.528-1.306-5.98 0-3.366 1.306-5.909 1.308-2.543 3.679-3.963 2.387-1.42 5.597-1.42 2.159 0 4.02.696a8.9 8.9 0 0 1 3.267 2.059q1.406 1.378 2.187 3.466.782 2.074.782 4.858v1.662h-18.424v-3.75h12.728q0-1.307-.569-2.315a4.07 4.07 0 0 0-1.576-1.577q-.994-.582-2.316-.582-1.377 0-2.443.639-1.051.625-1.648 1.69a4.8 4.8 0 0 0-.61 2.344v3.565q0 1.62.596 2.799.61 1.179 1.719 1.818t2.628.639q1.008 0 1.846-.284a3.8 3.8 0 0 0 1.435-.852q.597-.568.909-1.392l5.597.369a7.65 7.65 0 0 1-1.747 3.523q-1.307 1.492-3.381 2.329-2.06.824-4.759.824m32.117-16.023-5.54.341a2.86 2.86 0 0 0-.611-1.278 3.24 3.24 0 0 0-1.235-.923q-.754-.355-1.804-.355-1.407 0-2.373.596-.966.582-.966 1.563 0 .78.625 1.321.626.539 2.145.866l3.949.796q3.182.653 4.745 2.102 1.562 1.449 1.562 3.807 0 2.144-1.264 3.764-1.25 1.619-3.438 2.528-2.173.895-5.014.895-4.332 0-6.903-1.804-2.558-1.818-2.997-4.943l5.951-.313q.27 1.322 1.307 2.018 1.037.681 2.656.681 1.591 0 2.557-.61.98-.625.994-1.606-.013-.824-.696-1.349-.681-.54-2.102-.824l-3.778-.753q-3.196-.639-4.759-2.216-1.548-1.577-1.548-4.019 0-2.103 1.136-3.623 1.15-1.52 3.225-2.343 2.088-.824 4.886-.824 4.133 0 6.506 1.747 2.387 1.747 2.784 4.758M327.364 429.8h-7.955q-.125-21.502-7.83-29.208-7.582-7.582-28.96-7.582h-65.128q-13.547 0-23.49-2.734-10.068-2.735-16.655-8.328-6.588-5.592-9.819-14.169-3.231-8.451-3.232-20.01h7.955q0 13.05 4.723 21.253 4.6 8.204 14.666 12.056 9.943 3.977 25.852 3.977h65.128q12.305 0 20.757 2.362 8.576 2.361 13.796 7.582 5.345 5.22 7.706 13.796 2.486 8.576 2.486 21.005m155.113-82.031q0 11.559-3.231 20.01-3.232 8.577-9.819 14.169-6.587 5.594-16.655 8.328-9.943 2.734-23.491 2.734h-65.128q-21.377 0-29.083 7.582-7.583 7.706-7.706 29.208h-7.955q.125-12.43 2.486-21.005 2.486-8.576 7.706-13.796t13.672-7.582q8.576-2.361 20.88-2.362h65.128q15.91 0 25.853-3.977 10.067-3.852 14.79-12.056 4.724-8.203 4.599-21.253zM327.364 429.8h-7.955v-26.847h7.955zM327.364 915.8h-7.955q-.125-21.503-7.83-29.208-7.582-7.582-28.96-7.582h-65.128q-13.547 0-23.49-2.734-10.068-2.734-16.655-8.328-6.588-5.592-9.819-14.169-3.231-8.451-3.232-20.01h7.955q0 13.05 4.723 21.253 4.6 8.204 14.666 12.056 9.943 3.978 25.852 3.977h65.128q12.305 0 20.757 2.362 8.576 2.361 13.796 7.582 5.345 5.22 7.706 13.796 2.486 8.576 2.486 21.005m155.113-82.031q0 11.559-3.231 20.01-3.232 8.577-9.819 14.169-6.587 5.594-16.655 8.328-9.943 2.734-23.491 2.734h-65.128q-21.377 0-29.083 7.582-7.583 7.705-7.706 29.208h-7.955q.125-12.43 2.486-21.005 2.486-8.576 7.706-13.796t13.672-7.582q8.576-2.361 20.88-2.362h65.128q15.91 0 25.853-3.977 10.067-3.852 14.79-12.056 4.724-8.203 4.599-21.253zM327.364 915.8h-7.955v-26.847h7.955z"/><g clip-path="url(#a)"><path fill="#c4c4c4" d="M409.179 155.375c2.651 0 4.821-2.173 4.821-4.828v-16.094c0-2.655-2.17-4.828-4.821-4.828h-8.036v-19.313c0-10.662-8.639-19.312-19.286-19.312H253.286C242.638 91 234 99.65 234 110.312v167.376C234 288.35 242.638 297 253.286 297h128.571c10.647 0 19.286-8.65 19.286-19.312v-19.313h8.036c2.651 0 4.821-2.173 4.821-4.828v-16.094c0-2.655-2.17-4.828-4.821-4.828h-8.036v-25.75h8.036c2.651 0 4.821-2.173 4.821-4.828v-16.094c0-2.655-2.17-4.828-4.821-4.828h-8.036v-25.75zM317.571 142.5c14.183 0 25.715 11.547 25.715 25.75S331.754 194 317.571 194s-25.714-11.547-25.714-25.75 11.531-25.75 25.714-25.75m45 95.275c0 4.265-4.017 7.725-9 7.725h-72c-4.982 0-9-3.46-9-7.725v-7.725c0-12.795 12.094-23.175 27-23.175h2.009c4.942 2.052 10.326 3.219 15.991 3.219 5.666 0 11.09-1.167 15.991-3.219h2.009c14.907 0 27 10.38 27 23.175z"/></g><path fill="#c4c4c4" d="M178.271 584.904a20.067 20.067 0 0 1 20.018 18.69l.045 1.373v138.19a20.064 20.064 0 0 1-18.69 20.009l-1.373.045H75.73a20.06 20.06 0 0 1-20.018-18.689l-.045-1.365v-138.19a20.06 20.06 0 0 1 18.69-20.018l1.373-.045zm-89.166 44.512a6.689 6.689 0 0 0 0 13.375h75.791a6.687 6.687 0 1 0 0-13.375zm-6.688 42.354a6.69 6.69 0 0 0 6.688 6.688h75.791a6.688 6.688 0 0 0 0-13.375H89.105a6.69 6.69 0 0 0-6.688 6.687m6.688 28.98a6.688 6.688 0 1 0 0 13.375h75.791a6.688 6.688 0 0 0 0-13.375zM375.271 584.904a20.067 20.067 0 0 1 20.018 18.69l.045 1.373v138.19a20.064 20.064 0 0 1-18.69 20.009l-1.373.045H272.729a20.06 20.06 0 0 1-20.017-18.689l-.045-1.365v-138.19a20.06 20.06 0 0 1 18.689-20.018l1.373-.045zm-89.167 44.512a6.687 6.687 0 0 0 0 13.375h75.792a6.687 6.687 0 1 0 0-13.375zm-6.687 42.354a6.69 6.69 0 0 0 6.687 6.688h75.792a6.688 6.688 0 0 0 0-13.375h-75.792a6.687 6.687 0 0 0-6.687 6.687m6.687 28.98a6.686 6.686 0 1 0 0 13.375h75.792a6.688 6.688 0 0 0 0-13.375zM572.271 584.904a20.067 20.067 0 0 1 20.018 18.69l.045 1.373v138.19a20.064 20.064 0 0 1-18.69 20.009l-1.373.045H469.729a20.06 20.06 0 0 1-20.017-18.689l-.045-1.365v-138.19a20.06 20.06 0 0 1 18.689-20.018l1.373-.045zm-89.167 44.512a6.687 6.687 0 0 0 0 13.375h75.792a6.687 6.687 0 1 0 0-13.375zm-6.687 42.354a6.69 6.69 0 0 0 6.687 6.688h75.792a6.688 6.688 0 0 0 0-13.375h-75.792a6.687 6.687 0 0 0-6.687 6.687m6.687 28.98a6.686 6.686 0 1 0 0 13.375h75.792a6.688 6.688 0 0 0 0-13.375z"/><path fill="#fff" d="M66 1105.73c-.917 0-1.754-.23-2.511-.67a5.25 5.25 0 0 1-1.819-1.82 4.87 4.87 0 0 1-.67-2.51c0-.93.224-1.76.67-2.51a5.14 5.14 0 0 1 1.819-1.81c.757-.46 1.594-.68 2.511-.68.924 0 1.761.22 2.511.68.758.45 1.36 1.05 1.807 1.81.455.75.682 1.58.682 2.51 0 .91-.227 1.75-.682 2.51a5.16 5.16 0 0 1-1.807 1.82c-.75.44-1.587.67-2.511.67m33.682 4.59c-1.334 0-2.534-.27-3.603-.8-1.068-.53-1.924-1.25-2.568-2.18-.644-.92-.996-1.98-1.056-3.16h2.727c.106 1.05.583 1.93 1.432 2.62q1.283 1.02 3.068 1.02c.954 0 1.803-.23 2.545-.67a4.76 4.76 0 0 0 1.762-1.84q.647-1.185.647-2.67c0-1.02-.223-1.92-.67-2.72a4.93 4.93 0 0 0-1.818-1.9c-.773-.46-1.656-.69-2.648-.7q-1.068-.015-2.193.33c-.75.22-1.368.5-1.853.85l-2.636-.32 1.41-11.45h12.09v2.5h-9.727l-.818 6.86h.136c.477-.38 1.076-.69 1.795-.94.72-.25 1.47-.38 2.25-.38 1.425 0 2.694.34 3.807 1.03 1.122.67 2 1.59 2.637 2.77q.966 1.755.966 4.02c0 1.49-.334 2.81-1 3.98a7.35 7.35 0 0 1-2.728 2.75c-1.159.66-2.477 1-3.954 1m19.469 0c-1.334 0-2.535-.27-3.603-.8s-1.924-1.25-2.568-2.18c-.644-.92-.996-1.98-1.057-3.16h2.728c.106 1.05.583 1.93 1.431 2.62q1.284 1.02 3.069 1.02c.954 0 1.803-.23 2.545-.67a4.75 4.75 0 0 0 1.761-1.84q.648-1.185.648-2.67c0-1.02-.223-1.92-.67-2.72a4.94 4.94 0 0 0-1.819-1.9c-.772-.46-1.655-.69-2.647-.7q-1.068-.015-2.193.33c-.75.22-1.368.5-1.853.85l-2.636-.32 1.409-11.45h12.091v2.5h-9.727l-.819 6.86h.137c.477-.38 1.076-.69 1.795-.94.72-.25 1.47-.38 2.25-.38 1.425 0 2.693.34 3.807 1.03 1.121.67 2 1.59 2.636 2.77q.966 1.755.966 4.02c0 1.49-.333 2.81-1 3.98a7.34 7.34 0 0 1-2.727 2.75c-1.159.66-2.477 1-3.954 1m19.468 0c-1.333 0-2.534-.27-3.602-.8s-1.924-1.25-2.568-2.18c-.644-.92-.996-1.98-1.057-3.16h2.727c.106 1.05.584 1.93 1.432 2.62q1.284 1.02 3.068 1.02c.955 0 1.803-.23 2.546-.67a4.75 4.75 0 0 0 1.761-1.84q.648-1.185.648-2.67c0-1.02-.224-1.92-.671-2.72a4.93 4.93 0 0 0-1.818-1.9c-.772-.46-1.655-.69-2.647-.7q-1.07-.015-2.194.33c-.75.22-1.367.5-1.852.85l-2.636-.32 1.409-11.45h12.091v2.5h-9.728l-.818 6.86h.137c.477-.38 1.075-.69 1.795-.94s1.47-.38 2.25-.38c1.424 0 2.693.34 3.807 1.03 1.121.67 2 1.59 2.636 2.77q.966 1.755.966 4.02c0 1.49-.333 2.81-1 3.98a7.34 7.34 0 0 1-2.727 2.75c-1.159.66-2.477 1-3.955 1m22.242-13.21v2.5h-10.182v-2.5zm12.855-10.38V1110h-2.818v-20.32h-.137l-5.681 3.77v-2.86l5.818-3.86zm6.693 23.27v-2.05l7.682-8.4c.901-.99 1.644-1.85 2.227-2.57q.875-1.11 1.296-2.07c.288-.65.431-1.33.431-2.05 0-.81-.197-1.52-.59-2.12a3.87 3.87 0 0 0-1.591-1.39 5.24 5.24 0 0 0-2.273-.49c-.894 0-1.674.19-2.341.56a3.86 3.86 0 0 0-1.534 1.53c-.356.66-.534 1.44-.534 2.32H180.5c0-1.36.314-2.56.943-3.59a6.6 6.6 0 0 1 2.568-2.41c1.091-.57 2.315-.86 3.671-.86 1.363 0 2.572.29 3.625.86 1.053.58 1.879 1.35 2.477 2.33.599.98.898 2.07.898 3.26q0 1.29-.466 2.52c-.303.81-.833 1.71-1.591 2.71-.75.99-1.792 2.21-3.125 3.64l-5.227 5.59v.18h10.818v2.5zm27.239.32c-1.5 0-2.837-.26-4.012-.77-1.166-.52-2.094-1.24-2.784-2.15-.682-.93-1.053-2-1.113-3.22h2.863c.061.75.318 1.4.773 1.94q.682.81 1.784 1.26c.735.29 1.549.44 2.443.44 1 0 1.887-.18 2.659-.52.773-.35 1.379-.84 1.819-1.46q.659-.93.659-2.16c0-.85-.212-1.61-.637-2.26-.424-.66-1.045-1.17-1.863-1.54-.819-.38-1.819-.56-3-.56h-1.864v-2.5h1.864c.924 0 1.734-.17 2.431-.5.705-.34 1.254-.8 1.648-1.41.402-.61.602-1.32.602-2.14 0-.79-.174-1.47-.522-2.05-.349-.59-.841-1.04-1.478-1.37-.628-.32-1.371-.49-2.227-.49q-1.204 0-2.273.45a4.2 4.2 0 0 0-1.727 1.26q-.67.81-.727 1.98h-2.727q.068-1.83 1.102-3.21t2.704-2.16c1.122-.51 2.353-.77 3.694-.77q2.159 0 3.704.87c1.03.58 1.822 1.34 2.375 2.29s.83 1.97.83 3.07c0 1.31-.345 2.42-1.034 3.35q-1.023 1.38-2.784 1.92v.18c1.469.24 2.617.87 3.443 1.88.825 1 1.238 2.23 1.238 3.71 0 1.27-.344 2.4-1.034 3.41-.682 1-1.613 1.79-2.795 2.36q-1.773.87-4.034.87m22.557-13.21v2.5h-10.182v-2.5zm4.127 8.12v-2.32l10.228-16.18h1.681v3.59h-1.136l-7.727 12.23v.18h13.773v2.5zm10.955 4.77v-23.27h2.682V1110zm17.395.32c-1.334 0-2.534-.27-3.602-.8s-1.925-1.25-2.569-2.18c-.644-.92-.996-1.98-1.056-3.16h2.727c.106 1.05.583 1.93 1.432 2.62q1.283 1.02 3.068 1.02c.954 0 1.803-.23 2.545-.67a4.76 4.76 0 0 0 1.762-1.84q.647-1.185.647-2.67c0-1.02-.223-1.92-.67-2.72a4.93 4.93 0 0 0-1.818-1.9c-.773-.46-1.656-.69-2.648-.7q-1.068-.015-2.193.33c-.75.22-1.368.5-1.852.85l-2.637-.32 1.409-11.45h12.091v2.5h-9.727l-.818 6.86h.136c.477-.38 1.076-.69 1.796-.94a6.8 6.8 0 0 1 2.25-.38c1.424 0 2.693.34 3.806 1.03 1.122.67 2 1.59 2.637 2.77q.966 1.755.966 4.02c0 1.49-.334 2.81-1 3.98a7.35 7.35 0 0 1-2.728 2.75c-1.159.66-2.477 1-3.954 1m19.923 0a8.8 8.8 0 0 1-2.864-.55c-.954-.35-1.825-.93-2.613-1.76s-1.421-1.96-1.898-3.37q-.716-2.145-.716-5.37c0-2.06.193-3.88.58-5.47.386-1.6.947-2.95 1.682-4.04.734-1.1 1.621-1.93 2.659-2.5 1.045-.57 2.223-.85 3.534-.85q1.954 0 3.477.78a6.7 6.7 0 0 1 2.5 2.16c.644.93 1.061 1.99 1.25 3.2h-2.773q-.385-1.575-1.5-2.61c-.742-.69-1.727-1.03-2.954-1.03-1.803 0-3.224.78-4.262 2.35q-1.545 2.355-1.556 6.6h.181c.425-.64.928-1.19 1.512-1.64a6.6 6.6 0 0 1 1.954-1.07 6.8 6.8 0 0 1 2.262-.38c1.333 0 2.553.34 3.659 1s1.992 1.57 2.659 2.74q1 1.74 1 3.99c0 1.44-.322 2.76-.966 3.95a7.4 7.4 0 0 1-2.716 2.85q-1.739 1.035-4.091 1.02m0-2.5q1.433 0 2.568-.72a5.16 5.16 0 0 0 1.807-1.92c.447-.8.671-1.7.671-2.68 0-.96-.216-1.84-.648-2.62a4.9 4.9 0 0 0-1.762-1.9c-.742-.47-1.59-.71-2.545-.71-.72 0-1.39.15-2.011.43s-1.167.67-1.637 1.16c-.462.5-.825 1.06-1.091 1.7a5.1 5.1 0 0 0-.397 1.99c0 .92.216 1.78.647 2.59a5.3 5.3 0 0 0 1.796 1.94c.765.49 1.632.74 2.602.74m12.969 2.18 10.409-20.59v-.18h-12v-2.5h14.909v2.63L298.528 1110zM66 1183.73c-.917 0-1.754-.23-2.511-.67a5.25 5.25 0 0 1-1.819-1.82 4.87 4.87 0 0 1-.67-2.51c0-.93.224-1.76.67-2.51a5.14 5.14 0 0 1 1.819-1.81c.757-.46 1.594-.68 2.511-.68.924 0 1.761.22 2.511.68.758.45 1.36 1.05 1.807 1.81.455.75.682 1.58.682 2.51 0 .91-.227 1.75-.682 2.51a5.16 5.16 0 0 1-1.807 1.82c-.75.44-1.587.67-2.511.67m33.682 4.59c-1.334 0-2.534-.27-3.603-.8-1.068-.53-1.924-1.25-2.568-2.18-.644-.92-.996-1.98-1.056-3.16h2.727c.106 1.05.583 1.93 1.432 2.62q1.283 1.02 3.068 1.02c.954 0 1.803-.23 2.545-.67a4.76 4.76 0 0 0 1.762-1.84q.647-1.185.647-2.67c0-1.02-.223-1.92-.67-2.72a4.93 4.93 0 0 0-1.818-1.9c-.773-.46-1.656-.69-2.648-.7q-1.068-.015-2.193.33c-.75.22-1.368.5-1.853.85l-2.636-.32 1.41-11.45h12.09v2.5h-9.727l-.818 6.86h.136c.477-.38 1.076-.69 1.795-.94.72-.25 1.47-.38 2.25-.38 1.425 0 2.694.34 3.807 1.03 1.122.67 2 1.59 2.637 2.77q.966 1.755.966 4.02c0 1.49-.334 2.81-1 3.98a7.35 7.35 0 0 1-2.728 2.75c-1.159.66-2.477 1-3.954 1m19.469 0c-1.334 0-2.535-.27-3.603-.8s-1.924-1.25-2.568-2.18c-.644-.92-.996-1.98-1.057-3.16h2.728c.106 1.05.583 1.93 1.431 2.62q1.284 1.02 3.069 1.02c.954 0 1.803-.23 2.545-.67a4.75 4.75 0 0 0 1.761-1.84q.648-1.185.648-2.67c0-1.02-.223-1.92-.67-2.72a4.94 4.94 0 0 0-1.819-1.9c-.772-.46-1.655-.69-2.647-.7q-1.068-.015-2.193.33c-.75.22-1.368.5-1.853.85l-2.636-.32 1.409-11.45h12.091v2.5h-9.727l-.819 6.86h.137c.477-.38 1.076-.69 1.795-.94.72-.25 1.47-.38 2.25-.38 1.425 0 2.693.34 3.807 1.03 1.121.67 2 1.59 2.636 2.77q.966 1.755.966 4.02c0 1.49-.333 2.81-1 3.98a7.34 7.34 0 0 1-2.727 2.75c-1.159.66-2.477 1-3.954 1m19.468 0c-1.333 0-2.534-.27-3.602-.8s-1.924-1.25-2.568-2.18c-.644-.92-.996-1.98-1.057-3.16h2.727c.106 1.05.584 1.93 1.432 2.62q1.284 1.02 3.068 1.02c.955 0 1.803-.23 2.546-.67a4.75 4.75 0 0 0 1.761-1.84q.648-1.185.648-2.67c0-1.02-.224-1.92-.671-2.72a4.93 4.93 0 0 0-1.818-1.9c-.772-.46-1.655-.69-2.647-.7q-1.07-.015-2.194.33c-.75.22-1.367.5-1.852.85l-2.636-.32 1.409-11.45h12.091v2.5h-9.728l-.818 6.86h.137c.477-.38 1.075-.69 1.795-.94s1.47-.38 2.25-.38c1.424 0 2.693.34 3.807 1.03 1.121.67 2 1.59 2.636 2.77q.966 1.755.966 4.02c0 1.49-.333 2.81-1 3.98a7.34 7.34 0 0 1-2.727 2.75c-1.159.66-2.477 1-3.955 1m22.242-13.21v2.5h-10.182v-2.5zm12.082-10.7q1.432.015 2.864.54c.954.36 1.826.95 2.613 1.78.788.82 1.421 1.93 1.898 3.35s.716 3.19.716 5.33c0 2.07-.197 3.9-.591 5.51q-.58 2.4-1.682 4.05c-.727 1.09-1.613 1.93-2.659 2.5-1.038.56-2.212.85-3.522.85-1.303 0-2.466-.26-3.489-.77a6.95 6.95 0 0 1-2.5-2.17q-.966-1.41-1.239-3.24h2.773c.25 1.06.746 1.95 1.489 2.64.75.69 1.738 1.04 2.966 1.04 1.795 0 3.212-.79 4.25-2.35 1.045-1.57 1.568-3.79 1.568-6.65h-.182a7.5 7.5 0 0 1-1.511 1.65 6.81 6.81 0 0 1-4.216 1.44 7.07 7.07 0 0 1-3.671-.99 7.5 7.5 0 0 1-2.659-2.74c-.659-1.16-.989-2.5-.989-4 0-1.42.319-2.73.955-3.91a7.4 7.4 0 0 1 2.705-2.84q1.749-1.05 4.113-1.02m0 2.5c-.954 0-1.814.24-2.579.71a5.2 5.2 0 0 0-1.807 1.91c-.44.8-.659 1.68-.659 2.65s.212 1.85.636 2.65a5.1 5.1 0 0 0 1.761 1.89q1.126.69 2.557.69 1.08 0 2.012-.42a5.3 5.3 0 0 0 1.625-1.17c.469-.5.837-1.07 1.102-1.7q.398-.945.398-1.98c0-.91-.22-1.77-.659-2.56a5.2 5.2 0 0 0-1.796-1.93c-.757-.49-1.621-.74-2.591-.74m20.014 21.41c-1.56 0-2.939-.28-4.136-.83q-1.784-.84-2.784-2.31t-.989-3.36q-.01-1.485.58-2.73.591-1.26 1.613-2.1 1.035-.855 2.307-1.08v-.14c-1.113-.29-2-.91-2.659-1.87-.659-.97-.985-2.07-.977-3.31-.008-1.18.292-2.24.898-3.17s1.439-1.67 2.5-2.2q1.602-.81 3.647-.81 2.023 0 3.614.81c1.061.53 1.894 1.27 2.5 2.2.614.93.924 1.99.932 3.17-.008 1.24-.345 2.34-1.012 3.31-.659.96-1.534 1.58-2.625 1.87v.14q1.262.225 2.273 1.08a6.1 6.1 0 0 1 1.614 2.1q.602 1.245.613 2.73-.01 1.89-1.022 3.36-1 1.47-2.784 2.31c-1.182.55-2.55.83-4.103.83m0-2.5q1.58 0 2.728-.51c.765-.34 1.356-.83 1.772-1.45.417-.62.629-1.34.637-2.18-.008-.88-.235-1.65-.682-2.33q-.67-1.005-1.83-1.59c-.765-.39-1.64-.58-2.625-.58-.992 0-1.878.19-2.659.58q-1.158.585-1.829 1.59c-.44.68-.656 1.45-.648 2.33-.008.84.193 1.56.602 2.18.417.62 1.012 1.11 1.784 1.45q1.16.51 2.75.51m0-11.05c.834 0 1.572-.16 2.216-.5.652-.33 1.163-.8 1.534-1.39.372-.6.561-1.3.569-2.11-.008-.79-.194-1.47-.557-2.05a3.6 3.6 0 0 0-1.512-1.37c-.644-.32-1.394-.49-2.25-.49-.871 0-1.632.17-2.284.49s-1.155.77-1.511 1.37c-.356.58-.53 1.26-.523 2.05-.007.81.171 1.51.534 2.11a3.83 3.83 0 0 0 1.534 1.39c.652.34 1.402.5 2.25.5m12.992 13.23 10.409-20.59v-.18h-12v-2.5h14.909v2.63L208.903 1188zm27.599-12.89v2.5h-10.182v-2.5zm12.401 13.21a8.8 8.8 0 0 1-2.864-.55c-.954-.35-1.826-.93-2.613-1.76-.788-.83-1.421-1.96-1.898-3.37q-.716-2.145-.716-5.37c0-2.06.193-3.88.58-5.47.386-1.6.946-2.95 1.681-4.04.735-1.1 1.622-1.93 2.659-2.5 1.046-.57 2.224-.85 3.534-.85q1.956 0 3.478.78a6.7 6.7 0 0 1 2.5 2.16c.644.93 1.06 1.99 1.25 3.2h-2.773q-.387-1.575-1.5-2.61c-.742-.69-1.727-1.03-2.955-1.03-1.803 0-3.223.78-4.261 2.35q-1.545 2.355-1.557 6.6h.182c.424-.64.928-1.19 1.512-1.64.59-.47 1.242-.82 1.954-1.07a6.8 6.8 0 0 1 2.261-.38c1.334 0 2.553.34 3.659 1 1.107.66 1.993 1.57 2.66 2.74q1 1.74 1 3.99c0 1.44-.322 2.76-.966 3.95a7.4 7.4 0 0 1-2.716 2.85q-1.739 1.035-4.091 1.02m0-2.5q1.431 0 2.568-.72a5.17 5.17 0 0 0 1.807-1.92c.447-.8.67-1.7.67-2.68 0-.96-.216-1.84-.647-2.62a4.9 4.9 0 0 0-1.762-1.9c-.742-.47-1.591-.71-2.545-.71-.72 0-1.39.15-2.012.43-.621.28-1.166.67-1.636 1.16a5.7 5.7 0 0 0-1.091 1.7 5.1 5.1 0 0 0-.398 1.99c0 .92.216 1.78.648 2.59a5.3 5.3 0 0 0 1.796 1.94c.765.49 1.632.74 2.602.74m19.514 2.5c-1.333 0-2.534-.27-3.602-.8s-1.924-1.25-2.568-2.18c-.644-.92-.997-1.98-1.057-3.16h2.727c.106 1.05.583 1.93 1.432 2.62q1.284 1.02 3.068 1.02c.955 0 1.803-.23 2.546-.67a4.75 4.75 0 0 0 1.761-1.84q.648-1.185.648-2.67c0-1.02-.224-1.92-.671-2.72a4.93 4.93 0 0 0-1.818-1.9c-.773-.46-1.655-.69-2.648-.7q-1.068-.015-2.193.33c-.75.22-1.367.5-1.852.85l-2.637-.32 1.41-11.45h12.09v2.5h-9.727l-.818 6.86h.136c.478-.38 1.076-.69 1.796-.94a6.8 6.8 0 0 1 2.25-.38c1.424 0 2.693.34 3.807 1.03 1.121.67 2 1.59 2.636 2.77q.966 1.755.966 4.02c0 1.49-.333 2.81-1 3.98a7.34 7.34 0 0 1-2.727 2.75c-1.159.66-2.478 1-3.955 1m11.651-5.09v-2.32l10.227-16.18h1.682v3.59h-1.137l-7.727 12.23v.18h13.773v2.5zm10.954 4.77v-23.27h2.682V1188zm17.986.32c-1.5 0-2.837-.26-4.011-.77-1.167-.52-2.095-1.24-2.784-2.15-.682-.93-1.054-2-1.114-3.22h2.864c.06.75.318 1.4.772 1.94q.682.81 1.784 1.26c.735.29 1.55.44 2.444.44 1 0 1.886-.18 2.659-.52.772-.35 1.378-.84 1.818-1.46q.659-.93.659-2.16c0-.85-.212-1.61-.636-2.26-.425-.66-1.046-1.17-1.864-1.54-.818-.38-1.818-.56-3-.56h-1.864v-2.5h1.864c.924 0 1.735-.17 2.432-.5.704-.34 1.253-.8 1.647-1.41.402-.61.603-1.32.603-2.14 0-.79-.175-1.47-.523-2.05-.349-.59-.841-1.04-1.477-1.37-.629-.32-1.372-.49-2.228-.49q-1.204 0-2.272.45c-.705.28-1.281.71-1.728 1.26q-.67.81-.727 1.98h-2.727q.068-1.83 1.102-3.21t2.705-2.16c1.121-.51 2.352-.77 3.693-.77q2.159 0 3.704.87c1.031.58 1.822 1.34 2.375 2.29s.83 1.97.83 3.07c0 1.31-.345 2.42-1.034 3.35q-1.023 1.38-2.784 1.92v.18c1.469.24 2.617.87 3.443 1.88.826 1 1.239 2.23 1.239 3.71 0 1.27-.345 2.4-1.034 3.41-.682 1-1.614 1.79-2.796 2.36q-1.772.87-4.034.87M66 1261.73c-.917 0-1.754-.23-2.511-.67a5.25 5.25 0 0 1-1.819-1.82 4.87 4.87 0 0 1-.67-2.51c0-.93.224-1.76.67-2.51a5.14 5.14 0 0 1 1.819-1.81c.757-.46 1.594-.68 2.511-.68.924 0 1.761.22 2.511.68.758.45 1.36 1.05 1.807 1.81.455.75.682 1.58.682 2.51 0 .91-.227 1.75-.682 2.51a5.16 5.16 0 0 1-1.807 1.82c-.75.44-1.587.67-2.511.67m33.682 4.59c-1.334 0-2.534-.27-3.603-.8-1.068-.53-1.924-1.25-2.568-2.18-.644-.92-.996-1.98-1.056-3.16h2.727c.106 1.05.583 1.93 1.432 2.62q1.283 1.02 3.068 1.02c.954 0 1.803-.23 2.545-.67a4.76 4.76 0 0 0 1.762-1.84q.647-1.185.647-2.67c0-1.02-.223-1.92-.67-2.72a4.93 4.93 0 0 0-1.818-1.9c-.773-.46-1.656-.69-2.648-.7q-1.068-.015-2.193.33c-.75.22-1.368.5-1.853.85l-2.636-.32 1.41-11.45h12.09v2.5h-9.727l-.818 6.86h.136c.477-.38 1.076-.69 1.795-.94.72-.25 1.47-.38 2.25-.38 1.425 0 2.694.34 3.807 1.03 1.122.67 2 1.59 2.637 2.77q.966 1.755.966 4.02c0 1.49-.334 2.81-1 3.98a7.35 7.35 0 0 1-2.728 2.75c-1.159.66-2.477 1-3.954 1m19.469 0c-1.334 0-2.535-.27-3.603-.8s-1.924-1.25-2.568-2.18c-.644-.92-.996-1.98-1.057-3.16h2.728c.106 1.05.583 1.93 1.431 2.62q1.284 1.02 3.069 1.02c.954 0 1.803-.23 2.545-.67a4.75 4.75 0 0 0 1.761-1.84q.648-1.185.648-2.67c0-1.02-.223-1.92-.67-2.72a4.94 4.94 0 0 0-1.819-1.9c-.772-.46-1.655-.69-2.647-.7q-1.068-.015-2.193.33c-.75.22-1.368.5-1.853.85l-2.636-.32 1.409-11.45h12.091v2.5h-9.727l-.819 6.86h.137c.477-.38 1.076-.69 1.795-.94.72-.25 1.47-.38 2.25-.38 1.425 0 2.693.34 3.807 1.03 1.121.67 2 1.59 2.636 2.77q.966 1.755.966 4.02c0 1.49-.333 2.81-1 3.98a7.34 7.34 0 0 1-2.727 2.75c-1.159.66-2.477 1-3.954 1m19.468 0c-1.333 0-2.534-.27-3.602-.8s-1.924-1.25-2.568-2.18c-.644-.92-.996-1.98-1.057-3.16h2.727c.106 1.05.584 1.93 1.432 2.62q1.284 1.02 3.068 1.02c.955 0 1.803-.23 2.546-.67a4.75 4.75 0 0 0 1.761-1.84q.648-1.185.648-2.67c0-1.02-.224-1.92-.671-2.72a4.93 4.93 0 0 0-1.818-1.9c-.772-.46-1.655-.69-2.647-.7q-1.07-.015-2.194.33c-.75.22-1.367.5-1.852.85l-2.636-.32 1.409-11.45h12.091v2.5h-9.728l-.818 6.86h.137c.477-.38 1.075-.69 1.795-.94s1.47-.38 2.25-.38c1.424 0 2.693.34 3.807 1.03 1.121.67 2 1.59 2.636 2.77q.966 1.755.966 4.02c0 1.49-.333 2.81-1 3.98a7.34 7.34 0 0 1-2.727 2.75c-1.159.66-2.477 1-3.955 1m22.242-13.21v2.5h-10.182v-2.5zm3.579 12.89v-2.05l7.682-8.4c.902-.99 1.644-1.85 2.227-2.57q.876-1.11 1.296-2.07c.288-.65.432-1.33.432-2.05 0-.81-.197-1.52-.591-2.12a3.87 3.87 0 0 0-1.591-1.39 5.24 5.24 0 0 0-2.273-.49c-.894 0-1.674.19-2.341.56a3.86 3.86 0 0 0-1.534 1.53c-.356.66-.534 1.44-.534 2.32h-2.682c0-1.36.315-2.56.943-3.59a6.6 6.6 0 0 1 2.569-2.41c1.091-.57 2.314-.86 3.67-.86 1.364 0 2.572.29 3.625.86 1.053.58 1.879 1.35 2.477 2.33.599.98.898 2.07.898 3.26q0 1.29-.466 2.52c-.303.81-.833 1.71-1.591 2.71-.75.99-1.791 2.21-3.125 3.64l-5.227 5.59v.18h10.818v2.5zm18.33-4.77v-2.32l10.227-16.18h1.682v3.59h-1.136l-7.728 12.23v.18h13.773v2.5zm10.954 4.77v-23.27h2.682V1266zm17.85.32a8.8 8.8 0 0 1-2.864-.55c-.954-.35-1.826-.93-2.613-1.76-.788-.83-1.421-1.96-1.898-3.37q-.716-2.145-.716-5.37c0-2.06.193-3.88.579-5.47.387-1.6.947-2.95 1.682-4.04.735-1.1 1.622-1.93 2.659-2.5 1.046-.57 2.224-.85 3.535-.85q1.954 0 3.477.78a6.7 6.7 0 0 1 2.5 2.16c.644.93 1.06 1.99 1.25 3.2h-2.773q-.387-1.575-1.5-2.61c-.742-.69-1.727-1.03-2.954-1.03-1.804 0-3.224.78-4.262 2.35q-1.545 2.355-1.557 6.6h.182c.424-.64.928-1.19 1.511-1.64a6.6 6.6 0 0 1 1.955-1.07 6.8 6.8 0 0 1 2.261-.38 7 7 0 0 1 3.66 1c1.106.66 1.992 1.57 2.659 2.74q1 1.74 1 3.99c0 1.44-.322 2.76-.966 3.95a7.4 7.4 0 0 1-2.716 2.85q-1.739 1.035-4.091 1.02m0-2.5q1.431 0 2.568-.72a5.17 5.17 0 0 0 1.807-1.92c.447-.8.67-1.7.67-2.68 0-.96-.216-1.84-.647-2.62a4.9 4.9 0 0 0-1.762-1.9c-.742-.47-1.591-.71-2.545-.71-.72 0-1.39.15-2.012.43-.621.28-1.166.67-1.636 1.16a5.7 5.7 0 0 0-1.091 1.7 5.1 5.1 0 0 0-.398 1.99c0 .92.216 1.78.648 2.59a5.3 5.3 0 0 0 1.796 1.94c.765.49 1.632.74 2.602.74m22.287-10.71v2.5h-10.182v-2.5zm12.128 13.21c-1.561 0-2.94-.28-4.137-.83q-1.783-.84-2.784-2.31t-.988-3.36q-.012-1.485.579-2.73.591-1.26 1.614-2.1a4.9 4.9 0 0 1 2.307-1.08v-.14c-1.114-.29-2-.91-2.66-1.87-.659-.97-.984-2.07-.977-3.31-.007-1.18.292-2.24.898-3.17s1.439-1.67 2.5-2.2q1.602-.81 3.648-.81 2.023 0 3.613.81c1.061.53 1.894 1.27 2.5 2.2.614.93.925 1.99.932 3.17-.007 1.24-.345 2.34-1.011 3.31-.659.96-1.534 1.58-2.625 1.87v.14q1.261.225 2.272 1.08a6.1 6.1 0 0 1 1.614 2.1q.602 1.245.614 2.73-.012 1.89-1.023 3.36-1 1.47-2.784 2.31c-1.182.55-2.549.83-4.102.83m0-2.5q1.58 0 2.727-.51c.765-.34 1.356-.83 1.773-1.45s.628-1.34.636-2.18c-.008-.88-.235-1.65-.682-2.33q-.67-1.005-1.829-1.59c-.766-.39-1.641-.58-2.625-.58-.993 0-1.879.19-2.659.58q-1.16.585-1.83 1.59c-.439.68-.655 1.45-.648 2.33-.007.84.193 1.56.603 2.18.416.62 1.011 1.11 1.784 1.45q1.158.51 2.75.51m0-11.05c.833 0 1.572-.16 2.216-.5a3.83 3.83 0 0 0 1.534-1.39c.371-.6.56-1.3.568-2.11-.008-.79-.193-1.47-.557-2.05a3.6 3.6 0 0 0-1.511-1.37c-.644-.32-1.394-.49-2.25-.49-.872 0-1.633.17-2.284.49-.652.32-1.156.77-1.512 1.37-.356.58-.53 1.26-.523 2.05-.007.81.171 1.51.535 2.11.371.59.882 1.06 1.534 1.39.651.34 1.401.5 2.25.5m20.446-10.04V1266h-2.819v-20.32h-.136l-5.682 3.77v-2.86l5.818-3.86zm14.284 23.59c-1.712 0-3.171-.47-4.375-1.4q-1.807-1.41-2.762-4.08-.954-2.685-.954-6.48c0-2.51.318-4.66.954-6.44.644-1.79 1.569-3.15 2.773-4.09 1.212-.95 2.667-1.42 4.364-1.42s3.147.47 4.352 1.42c1.212.94 2.136 2.3 2.773 4.09.644 1.78.966 3.93.966 6.44q0 3.795-.955 6.48-.955 2.67-2.761 4.08c-1.205.93-2.663 1.4-4.375 1.4m0-2.5q2.546 0 3.954-2.46c.94-1.63 1.409-3.97 1.409-7 0-2.01-.216-3.73-.647-5.14q-.637-2.13-1.841-3.24c-.796-.75-1.754-1.12-2.875-1.12q-2.523 0-3.943 2.49c-.947 1.65-1.421 3.99-1.421 7.01 0 2.02.212 3.73.636 5.14s1.035 2.48 1.83 3.22c.803.73 1.769 1.1 2.898 1.1m20.591-21.09V1266h-2.819v-20.32h-.136l-5.682 3.77v-2.86l5.818-3.86zM170.837 1040v-29.09h11.477q3.31 0 5.639 1.26t3.552 3.48c.823 1.48 1.235 3.19 1.235 5.12s-.416 3.63-1.25 5.11q-1.25 2.22-3.622 3.45c-1.572.83-3.475 1.24-5.71 1.24h-7.315v-4.93h6.321c1.183 0 2.159-.2 2.926-.61.776-.42 1.354-.99 1.733-1.72.388-.74.582-1.59.582-2.54 0-.97-.194-1.81-.582-2.53-.379-.73-.957-1.29-1.733-1.69-.777-.41-1.762-.61-2.955-.61h-4.147V1040zm31.836-12.61V1040h-6.051v-29.09h5.88v11.12h.256c.493-1.29 1.288-2.3 2.387-3.02q1.647-1.11 4.133-1.11 2.272 0 3.963.99c1.136.66 2.017 1.6 2.642 2.83.635 1.22.947 2.68.938 4.39V1040h-6.051v-12.81c.009-1.35-.332-2.39-1.023-3.14-.682-.75-1.638-1.12-2.87-1.12-.823 0-1.553.17-2.187.52-.625.35-1.117.86-1.477 1.54q-.526.99-.54 2.4m28.768 13.04q-3.31 0-5.725-1.41c-1.6-.95-2.836-2.26-3.707-3.95s-1.307-3.66-1.307-5.89q0-3.39 1.307-5.91c.871-1.7 2.107-3.01 3.707-3.95 1.61-.95 3.518-1.42 5.725-1.42s4.11.47 5.71 1.42c1.61.94 2.85 2.25 3.722 3.95q1.306 2.52 1.306 5.91c0 2.23-.435 4.2-1.306 5.89a9.6 9.6 0 0 1-3.722 3.95q-2.4 1.41-5.71 1.41m.028-4.69c1.004 0 1.842-.29 2.514-.85.673-.58 1.179-1.37 1.52-2.36.351-1 .526-2.13.526-3.4q0-1.905-.526-3.39c-.341-1-.847-1.78-1.52-2.36q-1.008-.87-2.514-.87-1.52 0-2.557.87c-.682.58-1.198 1.36-1.548 2.36q-.511 1.485-.511 3.39c0 1.27.17 2.4.511 3.4.35.99.866 1.78 1.548 2.36.692.56 1.544.85 2.557.85m20.696-8.35V1040h-6.051v-21.82h5.767v3.85h.256a6.1 6.1 0 0 1 2.429-3.01c1.136-.75 2.514-1.12 4.133-1.12q2.272 0 3.963.99c1.127.66 2.003 1.61 2.628 2.84q.938 1.83.938 4.38V1040h-6.052v-12.81c.01-1.34-.331-2.38-1.022-3.13-.692-.76-1.643-1.13-2.855-1.13-.815 0-1.534.17-2.159.52-.616.35-1.099.86-1.449 1.54q-.511.99-.526 2.4m28.775 13.04c-2.244 0-4.176-.46-5.795-1.37-1.61-.92-2.851-2.21-3.722-3.89-.871-1.69-1.307-3.68-1.307-5.98q0-3.36 1.307-5.91 1.306-2.535 3.679-3.96c1.591-.95 3.456-1.42 5.597-1.42q2.159 0 4.019.69a9 9 0 0 1 3.267 2.06c.938.92 1.667 2.08 2.188 3.47q.781 2.07.781 4.86v1.66h-18.423v-3.75h12.727c0-.87-.189-1.64-.568-2.32a4.1 4.1 0 0 0-1.577-1.57c-.663-.39-1.434-.59-2.315-.59-.919 0-1.733.22-2.443.64-.701.42-1.25.98-1.648 1.69a4.83 4.83 0 0 0-.611 2.35v3.56c0 1.08.199 2.02.597 2.8.407.79.98 1.39 1.719 1.82.738.43 1.614.64 2.627.64.673 0 1.288-.1 1.847-.29a3.7 3.7 0 0 0 1.435-.85c.397-.38.7-.84.909-1.39l5.596.37c-.284 1.34-.866 2.52-1.747 3.52-.871 1-1.998 1.77-3.38 2.33-1.374.55-2.96.83-4.759.83m47.667-29.52V1040h-5.313l-12.656-18.31h-.213V1040h-6.15v-29.09h5.397l12.557 18.29h.256v-18.29zm18.959 19.8v-12.53h6.052V1040h-5.81v-3.96h-.227c-.493 1.28-1.312 2.3-2.458 3.08-1.136.78-2.523 1.16-4.162 1.16q-2.187 0-3.849-.99c-1.108-.66-1.975-1.61-2.6-2.83-.615-1.22-.928-2.68-.937-4.39v-13.89h6.051v12.81q.014 1.935 1.037 3.06c.682.75 1.596 1.12 2.741 1.12.73 0 1.411-.17 2.046-.5a3.9 3.9 0 0 0 1.534-1.5c.398-.67.592-1.48.582-2.46m10.892 9.29v-21.82h5.767v3.85h.255c.455-1.28 1.213-2.29 2.273-3.02q1.591-1.11 3.807-1.11c1.496 0 2.77.37 3.821 1.12 1.051.74 1.752 1.74 2.102 3.01h.228q.668-1.875 2.414-3c1.175-.75 2.562-1.13 4.162-1.13 2.036 0 3.689.65 4.958 1.94q1.917 1.935 1.917 5.49V1040h-6.037v-13.48q0-1.815-.966-2.73c-.643-.6-1.448-.91-2.414-.91q-1.649 0-2.571 1.05c-.616.7-.924 1.61-.924 2.75V1040h-5.866v-13.61q0-1.605-.923-2.55-.91-.96-2.401-.96-1.008 0-1.818.51-.795.51-1.264 1.41-.47.9-.469 2.1v13.1zm36.598 0v-29.09h6.051v10.94h.185c.265-.59.648-1.19 1.15-1.79.511-.62 1.174-1.13 1.989-1.54.824-.41 1.846-.62 3.068-.62 1.591 0 3.059.41 4.403 1.25 1.345.82 2.42 2.07 3.225 3.73q1.207 2.49 1.207 6.24c0 2.43-.393 4.49-1.179 6.16-.776 1.67-1.837 2.93-3.182 3.8-1.335.85-2.831 1.28-4.488 1.28-1.175 0-2.174-.2-2.997-.59-.815-.39-1.482-.87-2.003-1.46q-.782-.9-1.193-1.8h-.27v3.49zm5.923-10.91c0 1.3.18 2.43.54 3.4q.54 1.44 1.562 2.25c.682.53 1.511.8 2.486.8q1.477 0 2.5-.81c.682-.55 1.198-1.31 1.548-2.27.36-.98.54-2.1.54-3.37 0-1.26-.175-2.37-.525-3.32q-.526-1.44-1.549-2.25t-2.514-.81q-1.477 0-2.5.78c-.672.53-1.188 1.26-1.548 2.22s-.54 2.08-.54 3.38m29.336 11.34c-2.244 0-4.176-.46-5.795-1.37-1.61-.92-2.851-2.21-3.722-3.89-.871-1.69-1.307-3.68-1.307-5.98q0-3.36 1.307-5.91 1.306-2.535 3.679-3.96c1.591-.95 3.456-1.42 5.597-1.42q2.159 0 4.019.69a9 9 0 0 1 3.267 2.06c.938.92 1.667 2.08 2.188 3.47q.781 2.07.781 4.86v1.66h-18.423v-3.75h12.727c0-.87-.189-1.64-.568-2.32a4.1 4.1 0 0 0-1.577-1.57c-.663-.39-1.434-.59-2.315-.59-.919 0-1.733.22-2.443.64-.701.42-1.25.98-1.648 1.69a4.83 4.83 0 0 0-.611 2.35v3.56c0 1.08.199 2.02.597 2.8.407.79.98 1.39 1.719 1.82.738.43 1.614.64 2.627.64.673 0 1.288-.1 1.847-.29a3.7 3.7 0 0 0 1.435-.85c.397-.38.7-.84.909-1.39l5.596.37c-.284 1.34-.866 2.52-1.747 3.52-.871 1-1.998 1.77-3.38 2.33-1.374.55-2.96.83-4.759.83m13.963-.43v-21.82h5.867v3.81h.227c.398-1.36 1.065-2.38 2.003-3.07q1.406-1.05 3.238-1.05.455 0 .98.06c.351.03.659.09.924.15v5.37a9 9 0 0 0-1.179-.23c-.502-.06-.961-.1-1.378-.1-.89 0-1.686.2-2.386.59q-1.038.57-1.648 1.59c-.398.68-.597 1.47-.597 2.36V1040zm34.521-15.6-5.54.34c-.095-.47-.298-.9-.611-1.27q-.468-.585-1.236-.93c-.502-.23-1.103-.35-1.804-.35-.937 0-1.728.2-2.372.59s-.966.91-.966 1.57q0 .78.625 1.32c.417.36 1.132.65 2.145.86l3.949.8q3.182.66 4.744 2.1 1.563 1.455 1.563 3.81c0 1.43-.422 2.68-1.264 3.76-.834 1.08-1.98 1.93-3.438 2.53q-2.173.9-5.014.9c-2.888 0-5.189-.61-6.904-1.81-1.704-1.21-2.703-2.86-2.997-4.94l5.952-.31q.27 1.32 1.307 2.01t2.656.69c1.061 0 1.913-.21 2.557-.62.653-.41.985-.95.994-1.6q-.014-.825-.696-1.35c-.454-.36-1.155-.63-2.102-.82l-3.778-.76c-2.131-.42-3.717-1.16-4.759-2.21q-1.548-1.575-1.548-4.02c0-1.4.379-2.61 1.136-3.62.767-1.02 1.842-1.8 3.225-2.35 1.392-.55 3.02-.82 4.886-.82q4.134 0 6.506 1.74c1.59 1.17 2.518 2.76 2.784 4.76M361 1105.73c-.917 0-1.754-.23-2.511-.67a5.26 5.26 0 0 1-1.819-1.82c-.447-.76-.67-1.6-.67-2.51 0-.93.223-1.76.67-2.51a5.15 5.15 0 0 1 1.819-1.81c.757-.46 1.594-.68 2.511-.68.924 0 1.761.22 2.511.68.758.45 1.36 1.05 1.807 1.81.455.75.682 1.58.682 2.51 0 .91-.227 1.75-.682 2.51a5.16 5.16 0 0 1-1.807 1.82c-.75.44-1.587.67-2.511.67m33.682 4.59c-1.334 0-2.534-.27-3.602-.8s-1.925-1.25-2.569-2.18c-.644-.92-.996-1.98-1.056-3.16h2.727c.106 1.05.583 1.93 1.432 2.62q1.283 1.02 3.068 1.02c.954 0 1.803-.23 2.545-.67a4.76 4.76 0 0 0 1.762-1.84q.647-1.185.647-2.67c0-1.02-.223-1.92-.67-2.72a4.93 4.93 0 0 0-1.818-1.9c-.773-.46-1.656-.69-2.648-.7q-1.068-.015-2.193.33c-.75.22-1.368.5-1.852.85l-2.637-.32 1.409-11.45h12.091v2.5h-9.727l-.818 6.86h.136c.477-.38 1.076-.69 1.796-.94a6.8 6.8 0 0 1 2.25-.38c1.424 0 2.693.34 3.806 1.03 1.122.67 2 1.59 2.637 2.77q.966 1.755.966 4.02c0 1.49-.334 2.81-1 3.98a7.35 7.35 0 0 1-2.728 2.75c-1.159.66-2.477 1-3.954 1m19.469 0c-1.334 0-2.535-.27-3.603-.8s-1.924-1.25-2.568-2.18c-.644-.92-.996-1.98-1.057-3.16h2.728c.106 1.05.583 1.93 1.431 2.62q1.284 1.02 3.069 1.02c.954 0 1.803-.23 2.545-.67a4.75 4.75 0 0 0 1.761-1.84q.648-1.185.648-2.67c0-1.02-.223-1.92-.67-2.72a4.94 4.94 0 0 0-1.819-1.9c-.772-.46-1.655-.69-2.647-.7q-1.068-.015-2.193.33c-.75.22-1.368.5-1.853.85l-2.636-.32 1.409-11.45h12.091v2.5h-9.727l-.819 6.86h.137c.477-.38 1.076-.69 1.795-.94.72-.25 1.47-.38 2.25-.38 1.425 0 2.693.34 3.807 1.03 1.121.67 2 1.59 2.636 2.77q.966 1.755.966 4.02c0 1.49-.333 2.81-1 3.98a7.34 7.34 0 0 1-2.727 2.75c-1.159.66-2.477 1-3.954 1m19.468 0c-1.333 0-2.534-.27-3.602-.8s-1.924-1.25-2.568-2.18c-.644-.92-.996-1.98-1.057-3.16h2.727c.106 1.05.584 1.93 1.432 2.62q1.284 1.02 3.068 1.02c.955 0 1.803-.23 2.546-.67a4.75 4.75 0 0 0 1.761-1.84q.648-1.185.648-2.67c0-1.02-.224-1.92-.671-2.72a4.93 4.93 0 0 0-1.818-1.9c-.772-.46-1.655-.69-2.647-.7q-1.07-.015-2.194.33c-.75.22-1.367.5-1.852.85l-2.636-.32 1.409-11.45h12.091v2.5h-9.728l-.818 6.86h.137c.477-.38 1.075-.69 1.795-.94s1.47-.38 2.25-.38c1.424 0 2.693.34 3.807 1.03 1.121.67 2 1.59 2.636 2.77q.966 1.755.966 4.02c0 1.49-.333 2.81-1 3.98a7.34 7.34 0 0 1-2.727 2.75c-1.159.66-2.477 1-3.955 1m22.242-13.21v2.5h-10.182v-2.5zm12.162 13.21c-1.5 0-2.837-.26-4.012-.77-1.166-.52-2.094-1.24-2.784-2.15-.682-.93-1.053-2-1.113-3.22h2.863c.061.75.318 1.4.773 1.94q.682.81 1.784 1.26c.735.29 1.549.44 2.443.44 1 0 1.887-.18 2.659-.52.773-.35 1.379-.84 1.819-1.46q.659-.93.659-2.16c0-.85-.212-1.61-.637-2.26-.424-.66-1.045-1.17-1.863-1.54-.819-.38-1.819-.56-3-.56h-1.864v-2.5h1.864c.924 0 1.734-.17 2.431-.5.705-.34 1.254-.8 1.648-1.41.402-.61.602-1.32.602-2.14 0-.79-.174-1.47-.522-2.05-.349-.59-.841-1.04-1.478-1.37-.628-.32-1.371-.49-2.227-.49q-1.204 0-2.273.45a4.2 4.2 0 0 0-1.727 1.26q-.67.81-.727 1.98h-2.727q.068-1.83 1.102-3.21t2.704-2.16c1.122-.51 2.353-.77 3.694-.77q2.159 0 3.704.87c1.03.58 1.822 1.34 2.375 2.29s.83 1.97.83 3.07c0 1.31-.345 2.42-1.034 3.35q-1.023 1.38-2.784 1.92v.18c1.469.24 2.617.87 3.443 1.88.825 1 1.238 2.23 1.238 3.71 0 1.27-.344 2.4-1.034 3.41-.682 1-1.613 1.79-2.795 2.36q-1.773.87-4.034.87m20.238 0a8.8 8.8 0 0 1-2.863-.55c-.955-.35-1.826-.93-2.614-1.76s-1.42-1.96-1.898-3.37q-.716-2.145-.716-5.37c0-2.06.194-3.88.58-5.47.386-1.6.947-2.95 1.682-4.04.735-1.1 1.621-1.93 2.659-2.5 1.045-.57 2.223-.85 3.534-.85q1.955 0 3.477.78a6.7 6.7 0 0 1 2.5 2.16c.644.93 1.061 1.99 1.25 3.2h-2.772q-.387-1.575-1.5-2.61c-.743-.69-1.728-1.03-2.955-1.03-1.803 0-3.223.78-4.261 2.35q-1.547 2.355-1.557 6.6h.182c.424-.64.928-1.19 1.511-1.64a6.6 6.6 0 0 1 1.955-1.07 6.8 6.8 0 0 1 2.261-.38c1.333 0 2.553.34 3.659 1s1.992 1.57 2.659 2.74q1 1.74 1 3.99c0 1.44-.322 2.76-.966 3.95a7.4 7.4 0 0 1-2.716 2.85q-1.738 1.035-4.091 1.02m0-2.5q1.432 0 2.569-.72a5.16 5.16 0 0 0 1.806-1.92c.447-.8.671-1.7.671-2.68 0-.96-.216-1.84-.648-2.62a4.9 4.9 0 0 0-1.761-1.9c-.743-.47-1.591-.71-2.546-.71-.719 0-1.39.15-2.011.43a5.2 5.2 0 0 0-1.636 1.16 5.7 5.7 0 0 0-1.091 1.7 5.05 5.05 0 0 0-.398 1.99c0 .92.216 1.78.648 2.59.439.8 1.038 1.45 1.795 1.94.765.49 1.633.74 2.602.74m19.651-21.41a8.5 8.5 0 0 1 2.864.54c.954.36 1.825.95 2.613 1.78.788.82 1.421 1.93 1.898 3.35s.716 3.19.716 5.33c0 2.07-.197 3.9-.591 5.51q-.58 2.4-1.682 4.05c-.727 1.09-1.614 1.93-2.659 2.5-1.038.56-2.212.85-3.523.85-1.303 0-2.466-.26-3.488-.77a6.95 6.95 0 0 1-2.5-2.17q-.966-1.41-1.239-3.24h2.773c.25 1.06.746 1.95 1.488 2.64.75.69 1.739 1.04 2.966 1.04 1.796 0 3.212-.79 4.25-2.35 1.046-1.57 1.568-3.79 1.568-6.65h-.181a7.5 7.5 0 0 1-1.512 1.65 6.815 6.815 0 0 1-4.216 1.44 7.07 7.07 0 0 1-3.67-.99 7.5 7.5 0 0 1-2.659-2.74c-.659-1.16-.989-2.5-.989-4 0-1.42.318-2.73.955-3.91a7.4 7.4 0 0 1 2.704-2.84q1.75-1.05 4.114-1.02m0 2.5c-.955 0-1.814.24-2.58.71a5.2 5.2 0 0 0-1.806 1.91c-.44.8-.66 1.68-.66 2.65s.213 1.85.637 2.65a5.1 5.1 0 0 0 1.761 1.89q1.125.69 2.557.69 1.08 0 2.011-.42a5.3 5.3 0 0 0 1.625-1.17c.47-.5.838-1.07 1.103-1.7q.397-.945.397-1.98c0-.91-.219-1.77-.659-2.56a5.2 5.2 0 0 0-1.795-1.93c-.758-.49-1.621-.74-2.591-.74m22.605 8.2v2.5h-10.182v-2.5zm12.855-10.38V1110h-2.818v-20.32h-.136l-5.682 3.77v-2.86l5.818-3.86zm6.148 18.5v-2.32l10.227-16.18h1.682v3.59h-1.136l-7.728 12.23v.18h13.773v2.5zm10.954 4.77v-23.27h2.682V1110zm10.85 0 10.409-20.59v-.18h-12v-2.5h14.909v2.63L574.278 1110zm24.645.32c-1.712 0-3.171-.47-4.375-1.4q-1.807-1.41-2.762-4.08-.954-2.685-.954-6.48c0-2.51.318-4.66.954-6.44.644-1.79 1.569-3.15 2.773-4.09 1.212-.95 2.667-1.42 4.364-1.42s3.147.47 4.352 1.42c1.212.94 2.136 2.3 2.773 4.09.644 1.78.966 3.93.966 6.44q0 3.795-.955 6.48-.955 2.67-2.761 4.08c-1.205.93-2.663 1.4-4.375 1.4m0-2.5q2.545 0 3.954-2.46c.94-1.63 1.409-3.97 1.409-7 0-2.01-.216-3.73-.647-5.14q-.637-2.13-1.841-3.24c-.796-.75-1.754-1.12-2.875-1.12q-2.523 0-3.943 2.49c-.947 1.65-1.421 3.99-1.421 7.01 0 2.02.212 3.73.636 5.14s1.035 2.48 1.83 3.22c.803.73 1.769 1.1 2.898 1.1M361 1183.73c-.917 0-1.754-.23-2.511-.67a5.26 5.26 0 0 1-1.819-1.82c-.447-.76-.67-1.6-.67-2.51 0-.93.223-1.76.67-2.51a5.15 5.15 0 0 1 1.819-1.81c.757-.46 1.594-.68 2.511-.68.924 0 1.761.22 2.511.68.758.45 1.36 1.05 1.807 1.81.455.75.682 1.58.682 2.51 0 .91-.227 1.75-.682 2.51a5.16 5.16 0 0 1-1.807 1.82c-.75.44-1.587.67-2.511.67m33.682 4.59c-1.334 0-2.534-.27-3.602-.8s-1.925-1.25-2.569-2.18c-.644-.92-.996-1.98-1.056-3.16h2.727c.106 1.05.583 1.93 1.432 2.62q1.283 1.02 3.068 1.02c.954 0 1.803-.23 2.545-.67a4.76 4.76 0 0 0 1.762-1.84q.647-1.185.647-2.67c0-1.02-.223-1.92-.67-2.72a4.93 4.93 0 0 0-1.818-1.9c-.773-.46-1.656-.69-2.648-.7q-1.068-.015-2.193.33c-.75.22-1.368.5-1.852.85l-2.637-.32 1.409-11.45h12.091v2.5h-9.727l-.818 6.86h.136c.477-.38 1.076-.69 1.796-.94a6.8 6.8 0 0 1 2.25-.38c1.424 0 2.693.34 3.806 1.03 1.122.67 2 1.59 2.637 2.77q.966 1.755.966 4.02c0 1.49-.334 2.81-1 3.98a7.35 7.35 0 0 1-2.728 2.75c-1.159.66-2.477 1-3.954 1m19.469 0c-1.334 0-2.535-.27-3.603-.8s-1.924-1.25-2.568-2.18c-.644-.92-.996-1.98-1.057-3.16h2.728c.106 1.05.583 1.93 1.431 2.62q1.284 1.02 3.069 1.02c.954 0 1.803-.23 2.545-.67a4.75 4.75 0 0 0 1.761-1.84q.648-1.185.648-2.67c0-1.02-.223-1.92-.67-2.72a4.94 4.94 0 0 0-1.819-1.9c-.772-.46-1.655-.69-2.647-.7q-1.068-.015-2.193.33c-.75.22-1.368.5-1.853.85l-2.636-.32 1.409-11.45h12.091v2.5h-9.727l-.819 6.86h.137c.477-.38 1.076-.69 1.795-.94.72-.25 1.47-.38 2.25-.38 1.425 0 2.693.34 3.807 1.03 1.121.67 2 1.59 2.636 2.77q.966 1.755.966 4.02c0 1.49-.333 2.81-1 3.98a7.34 7.34 0 0 1-2.727 2.75c-1.159.66-2.477 1-3.954 1m19.468 0c-1.333 0-2.534-.27-3.602-.8s-1.924-1.25-2.568-2.18c-.644-.92-.996-1.98-1.057-3.16h2.727c.106 1.05.584 1.93 1.432 2.62q1.284 1.02 3.068 1.02c.955 0 1.803-.23 2.546-.67a4.75 4.75 0 0 0 1.761-1.84q.648-1.185.648-2.67c0-1.02-.224-1.92-.671-2.72a4.93 4.93 0 0 0-1.818-1.9c-.772-.46-1.655-.69-2.647-.7q-1.07-.015-2.194.33c-.75.22-1.367.5-1.852.85l-2.636-.32 1.409-11.45h12.091v2.5h-9.728l-.818 6.86h.137c.477-.38 1.075-.69 1.795-.94s1.47-.38 2.25-.38c1.424 0 2.693.34 3.807 1.03 1.121.67 2 1.59 2.636 2.77q.966 1.755.966 4.02c0 1.49-.333 2.81-1 3.98a7.34 7.34 0 0 1-2.727 2.75c-1.159.66-2.477 1-3.955 1m22.242-13.21v2.5h-10.182v-2.5zm12.264 13.21c-1.712 0-3.17-.47-4.375-1.4q-1.807-1.41-2.761-4.08-.955-2.685-.955-6.48c0-2.51.318-4.66.955-6.44.644-1.79 1.568-3.15 2.772-4.09 1.212-.95 2.667-1.42 4.364-1.42s3.148.47 4.352 1.42c1.212.94 2.137 2.3 2.773 4.09.644 1.78.966 3.93.966 6.44q0 3.795-.955 6.48-.954 2.67-2.761 4.08c-1.205.93-2.663 1.4-4.375 1.4m0-2.5q2.545 0 3.955-2.46c.939-1.63 1.409-3.97 1.409-7 0-2.01-.216-3.73-.648-5.14q-.636-2.13-1.841-3.24c-.795-.75-1.754-1.12-2.875-1.12q-2.523 0-3.943 2.49c-.947 1.65-1.421 3.99-1.421 7.01 0 2.02.212 3.73.637 5.14.424 1.41 1.034 2.48 1.829 3.22.803.73 1.769 1.1 2.898 1.1m20 2.5c-1.712 0-3.17-.47-4.375-1.4q-1.807-1.41-2.761-4.08-.955-2.685-.955-6.48c0-2.51.318-4.66.955-6.44.644-1.79 1.568-3.15 2.772-4.09 1.212-.95 2.667-1.42 4.364-1.42s3.148.47 4.352 1.42c1.212.94 2.137 2.3 2.773 4.09.644 1.78.966 3.93.966 6.44q0 3.795-.955 6.48-.954 2.67-2.761 4.08c-1.205.93-2.663 1.4-4.375 1.4m0-2.5q2.545 0 3.955-2.46c.939-1.63 1.409-3.97 1.409-7 0-2.01-.216-3.73-.648-5.14q-.636-2.13-1.841-3.24c-.795-.75-1.754-1.12-2.875-1.12q-2.523 0-3.943 2.49c-.947 1.65-1.421 3.99-1.421 7.01 0 2.02.212 3.73.637 5.14.424 1.41 1.034 2.48 1.829 3.22.803.73 1.769 1.1 2.898 1.1m20 2.5c-1.712 0-3.17-.47-4.375-1.4q-1.807-1.41-2.761-4.08-.955-2.685-.955-6.48c0-2.51.318-4.66.955-6.44.644-1.79 1.568-3.15 2.772-4.09 1.212-.95 2.667-1.42 4.364-1.42s3.148.47 4.352 1.42c1.212.94 2.137 2.3 2.773 4.09.644 1.78.966 3.93.966 6.44q0 3.795-.955 6.48-.954 2.67-2.761 4.08c-1.205.93-2.663 1.4-4.375 1.4m0-2.5q2.545 0 3.955-2.46c.939-1.63 1.409-3.97 1.409-7 0-2.01-.216-3.73-.648-5.14q-.636-2.13-1.841-3.24c-.795-.75-1.754-1.12-2.875-1.12q-2.523 0-3.943 2.49c-.947 1.65-1.421 3.99-1.421 7.01 0 2.02.212 3.73.637 5.14.424 1.41 1.034 2.48 1.829 3.22.803.73 1.769 1.1 2.898 1.1m22.455-10.71v2.5h-10.182v-2.5zm12.855-10.38V1188h-2.819v-20.32h-.136l-5.682 3.77v-2.86l5.818-3.86zm14.875 0V1188h-2.819v-20.32h-.136l-5.682 3.77v-2.86l5.818-3.86zm6.693 23.27v-2.05l7.682-8.4c.901-.99 1.644-1.85 2.227-2.57q.875-1.11 1.295-2.07c.288-.65.432-1.33.432-2.05 0-.81-.197-1.52-.591-2.12a3.85 3.85 0 0 0-1.591-1.39 5.2 5.2 0 0 0-2.272-.49c-.894 0-1.675.19-2.341.56-.659.36-1.171.88-1.534 1.53-.356.66-.534 1.44-.534 2.32h-2.682c0-1.36.314-2.56.943-3.59a6.6 6.6 0 0 1 2.568-2.41c1.091-.57 2.315-.86 3.671-.86 1.363 0 2.572.29 3.625.86 1.053.58 1.878 1.35 2.477 2.33.598.98.898 2.07.898 3.26q0 1.29-.466 2.52c-.303.81-.834 1.71-1.591 2.71-.75.99-1.792 2.21-3.125 3.64l-5.228 5.59v.18h10.819v2.5zm19.375 0v-2.05l7.682-8.4c.901-.99 1.644-1.85 2.227-2.57q.875-1.11 1.295-2.07c.288-.65.432-1.33.432-2.05 0-.81-.197-1.52-.591-2.12a3.85 3.85 0 0 0-1.591-1.39 5.2 5.2 0 0 0-2.272-.49c-.894 0-1.675.19-2.341.56-.659.36-1.171.88-1.534 1.53-.356.66-.534 1.44-.534 2.32h-2.682c0-1.36.314-2.56.943-3.59a6.6 6.6 0 0 1 2.568-2.41c1.091-.57 2.315-.86 3.671-.86 1.363 0 2.572.29 3.625.86 1.053.58 1.878 1.35 2.477 2.33.598.98.898 2.07.898 3.26q0 1.29-.466 2.52c-.303.81-.834 1.71-1.591 2.71-.75.99-1.792 2.21-3.125 3.64l-5.228 5.59v.18h10.819v2.5zM361 1261.73c-.917 0-1.754-.23-2.511-.67a5.26 5.26 0 0 1-1.819-1.82c-.447-.76-.67-1.6-.67-2.51 0-.93.223-1.76.67-2.51a5.15 5.15 0 0 1 1.819-1.81c.757-.46 1.594-.68 2.511-.68.924 0 1.761.22 2.511.68.758.45 1.36 1.05 1.807 1.81.455.75.682 1.58.682 2.51 0 .91-.227 1.75-.682 2.51a5.16 5.16 0 0 1-1.807 1.82c-.75.44-1.587.67-2.511.67m33.682 4.59c-1.334 0-2.534-.27-3.602-.8s-1.925-1.25-2.569-2.18c-.644-.92-.996-1.98-1.056-3.16h2.727c.106 1.05.583 1.93 1.432 2.62q1.283 1.02 3.068 1.02c.954 0 1.803-.23 2.545-.67a4.76 4.76 0 0 0 1.762-1.84q.647-1.185.647-2.67c0-1.02-.223-1.92-.67-2.72a4.93 4.93 0 0 0-1.818-1.9c-.773-.46-1.656-.69-2.648-.7q-1.068-.015-2.193.33c-.75.22-1.368.5-1.852.85l-2.637-.32 1.409-11.45h12.091v2.5h-9.727l-.818 6.86h.136c.477-.38 1.076-.69 1.796-.94a6.8 6.8 0 0 1 2.25-.38c1.424 0 2.693.34 3.806 1.03 1.122.67 2 1.59 2.637 2.77q.966 1.755.966 4.02c0 1.49-.334 2.81-1 3.98a7.35 7.35 0 0 1-2.728 2.75c-1.159.66-2.477 1-3.954 1m19.469 0c-1.334 0-2.535-.27-3.603-.8s-1.924-1.25-2.568-2.18c-.644-.92-.996-1.98-1.057-3.16h2.728c.106 1.05.583 1.93 1.431 2.62q1.284 1.02 3.069 1.02c.954 0 1.803-.23 2.545-.67a4.75 4.75 0 0 0 1.761-1.84q.648-1.185.648-2.67c0-1.02-.223-1.92-.67-2.72a4.94 4.94 0 0 0-1.819-1.9c-.772-.46-1.655-.69-2.647-.7q-1.068-.015-2.193.33c-.75.22-1.368.5-1.853.85l-2.636-.32 1.409-11.45h12.091v2.5h-9.727l-.819 6.86h.137c.477-.38 1.076-.69 1.795-.94.72-.25 1.47-.38 2.25-.38 1.425 0 2.693.34 3.807 1.03 1.121.67 2 1.59 2.636 2.77q.966 1.755.966 4.02c0 1.49-.333 2.81-1 3.98a7.34 7.34 0 0 1-2.727 2.75c-1.159.66-2.477 1-3.954 1m19.468 0c-1.333 0-2.534-.27-3.602-.8s-1.924-1.25-2.568-2.18c-.644-.92-.996-1.98-1.057-3.16h2.727c.106 1.05.584 1.93 1.432 2.62q1.284 1.02 3.068 1.02c.955 0 1.803-.23 2.546-.67a4.75 4.75 0 0 0 1.761-1.84q.648-1.185.648-2.67c0-1.02-.224-1.92-.671-2.72a4.93 4.93 0 0 0-1.818-1.9c-.772-.46-1.655-.69-2.647-.7q-1.07-.015-2.194.33c-.75.22-1.367.5-1.852.85l-2.636-.32 1.409-11.45h12.091v2.5h-9.728l-.818 6.86h.137c.477-.38 1.075-.69 1.795-.94s1.47-.38 2.25-.38c1.424 0 2.693.34 3.807 1.03 1.121.67 2 1.59 2.636 2.77q.966 1.755.966 4.02c0 1.49-.333 2.81-1 3.98a7.34 7.34 0 0 1-2.727 2.75c-1.159.66-2.477 1-3.955 1m22.242-13.21v2.5h-10.182v-2.5zm4.682 12.89 10.409-20.59v-.18h-12v-2.5h14.909v2.63L463.497 1266zm15.133-4.77v-2.32l10.227-16.18h1.682v3.59h-1.136l-7.727 12.23v.18h13.772v2.5zm10.955 4.77v-23.27h2.681V1266zm17.991-23.27V1266h-2.818v-20.32h-.136l-5.682 3.77v-2.86l5.818-3.86zm16.739 10.38v2.5h-10.182v-2.5zm3.579 12.89v-2.05l7.682-8.4c.902-.99 1.644-1.85 2.227-2.57q.876-1.11 1.296-2.07c.288-.65.432-1.33.432-2.05 0-.81-.197-1.52-.591-2.12a3.87 3.87 0 0 0-1.591-1.39 5.24 5.24 0 0 0-2.273-.49c-.894 0-1.674.19-2.341.56a3.86 3.86 0 0 0-1.534 1.53c-.356.66-.534 1.44-.534 2.32h-2.682c0-1.36.315-2.56.943-3.59a6.6 6.6 0 0 1 2.569-2.41c1.091-.57 2.314-.86 3.67-.86 1.364 0 2.572.29 3.625.86 1.053.58 1.879 1.35 2.477 2.33.599.98.898 2.07.898 3.26q0 1.29-.466 2.52c-.303.81-.833 1.71-1.591 2.71-.75.99-1.791 2.21-3.125 3.64l-5.227 5.59v.18h10.818v2.5zm26.648.32c-1.333 0-2.534-.27-3.602-.8s-1.924-1.25-2.568-2.18c-.644-.92-.997-1.98-1.057-3.16h2.727c.106 1.05.583 1.93 1.432 2.62q1.284 1.02 3.068 1.02c.955 0 1.803-.23 2.546-.67a4.75 4.75 0 0 0 1.761-1.84q.648-1.185.648-2.67c0-1.02-.224-1.92-.671-2.72a4.93 4.93 0 0 0-1.818-1.9c-.773-.46-1.655-.69-2.648-.7q-1.068-.015-2.193.33c-.75.22-1.367.5-1.852.85l-2.637-.32 1.41-11.45h12.09v2.5h-9.727l-.818 6.86h.136c.478-.38 1.076-.69 1.796-.94a6.8 6.8 0 0 1 2.25-.38c1.424 0 2.693.34 3.807 1.03 1.121.67 2 1.59 2.636 2.77q.966 1.755.966 4.02c0 1.49-.333 2.81-1 3.98a7.34 7.34 0 0 1-2.727 2.75c-1.159.66-2.478 1-3.955 1m19.651 0c-1.561 0-2.94-.28-4.137-.83q-1.783-.84-2.784-2.31t-.988-3.36q-.012-1.485.579-2.73.591-1.26 1.614-2.1a4.9 4.9 0 0 1 2.307-1.08v-.14c-1.114-.29-2-.91-2.66-1.87-.659-.97-.984-2.07-.977-3.31-.007-1.18.292-2.24.898-3.17s1.439-1.67 2.5-2.2q1.602-.81 3.648-.81 2.023 0 3.613.81c1.061.53 1.894 1.27 2.5 2.2.614.93.925 1.99.932 3.17-.007 1.24-.345 2.34-1.011 3.31-.659.96-1.534 1.58-2.625 1.87v.14q1.261.225 2.272 1.08a6.1 6.1 0 0 1 1.614 2.1q.602 1.245.614 2.73-.012 1.89-1.023 3.36-1 1.47-2.784 2.31c-1.182.55-2.549.83-4.102.83m0-2.5q1.58 0 2.727-.51c.765-.34 1.356-.83 1.773-1.45s.628-1.34.636-2.18c-.008-.88-.235-1.65-.682-2.33q-.67-1.005-1.829-1.59c-.766-.39-1.641-.58-2.625-.58-.993 0-1.879.19-2.659.58q-1.16.585-1.83 1.59c-.439.68-.655 1.45-.648 2.33-.007.84.193 1.56.603 2.18.416.62 1.011 1.11 1.784 1.45q1.158.51 2.75.51m0-11.05c.833 0 1.572-.16 2.216-.5a3.83 3.83 0 0 0 1.534-1.39c.371-.6.56-1.3.568-2.11-.008-.79-.193-1.47-.557-2.05a3.6 3.6 0 0 0-1.511-1.37c-.644-.32-1.394-.49-2.25-.49-.872 0-1.633.17-2.284.49-.652.32-1.156.77-1.512 1.37-.356.58-.53 1.26-.523 2.05-.007.81.171 1.51.535 2.11.371.59.882 1.06 1.534 1.39.651.34 1.401.5 2.25.5m19.855 13.55c-1.712 0-3.171-.47-4.375-1.4q-1.807-1.41-2.762-4.08-.954-2.685-.954-6.48c0-2.51.318-4.66.954-6.44.644-1.79 1.569-3.15 2.773-4.09 1.212-.95 2.667-1.42 4.364-1.42s3.147.47 4.352 1.42c1.212.94 2.136 2.3 2.773 4.09.644 1.78.966 3.93.966 6.44q0 3.795-.955 6.48-.955 2.67-2.761 4.08c-1.205.93-2.663 1.4-4.375 1.4m0-2.5q2.545 0 3.954-2.46c.94-1.63 1.409-3.97 1.409-7 0-2.01-.216-3.73-.647-5.14q-.637-2.13-1.841-3.24c-.796-.75-1.754-1.12-2.875-1.12q-2.523 0-3.943 2.49c-.947 1.65-1.421 3.99-1.421 7.01 0 2.02.212 3.73.636 5.14s1.035 2.48 1.83 3.22c.803.73 1.769 1.1 2.898 1.1"/><defs><clipPath id="a"><path fill="#fff" d="M234 91h180v206H234z"/></clipPath></defs></svg>