<svg width="841" height="484" viewBox="0 0 841 484" fill="none" xmlns="http://www.w3.org/2000/svg">
<rect x="1" y="92" width="839" height="120" rx="26" stroke="#DBDBDB" stroke-width="2"/>
<rect x="361" y="363" width="119" height="120" rx="26" stroke="#DBDBDB" stroke-width="2"/>
<line x1="121" y1="91" x2="121" y2="213" stroke="#DBDBDB" stroke-width="2"/>
<line x1="241" y1="91" x2="241" y2="213" stroke="#DBDBDB" stroke-width="2"/>
<line x1="362" y1="91" x2="362" y2="213" stroke="#DBDBDB" stroke-width="2"/>
<line x1="482" y1="91" x2="482" y2="213" stroke="#DBDBDB" stroke-width="2"/>
<line x1="602" y1="91" x2="602" y2="213" stroke="#DBDBDB" stroke-width="2"/>
<line x1="722" y1="91" x2="722" y2="213" stroke="#DBDBDB" stroke-width="2"/>
<path d="M50.6097 136.909V166H47.087V140.602H46.9165L39.8143 145.318V141.739L47.087 136.909H50.6097ZM58.2944 160.034V157.136L71.0785 136.909H73.1808V141.398H71.7603L62.1012 156.682V156.909H79.3171V160.034H58.2944ZM71.9876 166V159.153V157.804V136.909H75.3398V166H71.9876Z" fill="white"/>
<path d="M179.434 166.398C177.768 166.398 176.267 166.066 174.931 165.403C173.596 164.741 172.526 163.831 171.721 162.676C170.916 161.521 170.476 160.205 170.4 158.727H173.809C173.942 160.044 174.538 161.133 175.599 161.994C176.669 162.847 177.948 163.273 179.434 163.273C180.627 163.273 181.688 162.993 182.616 162.435C183.554 161.876 184.288 161.109 184.818 160.134C185.358 159.149 185.627 158.036 185.627 156.795C185.627 155.527 185.348 154.395 184.789 153.401C184.24 152.397 183.483 151.606 182.517 151.028C181.551 150.451 180.448 150.157 179.207 150.148C178.317 150.138 177.403 150.276 176.466 150.56C175.528 150.834 174.756 151.189 174.15 151.625L170.855 151.227L172.616 136.909H187.73V140.034H175.571L174.548 148.614H174.718C175.315 148.14 176.063 147.747 176.963 147.435C177.862 147.122 178.8 146.966 179.775 146.966C181.556 146.966 183.142 147.392 184.534 148.244C185.935 149.087 187.034 150.242 187.829 151.71C188.634 153.178 189.037 154.854 189.037 156.739C189.037 158.595 188.62 160.252 187.787 161.71C186.963 163.159 185.826 164.305 184.377 165.148C182.929 165.981 181.281 166.398 179.434 166.398Z" fill="white"/>
<path d="M286.771 166.398C284.82 166.398 283.097 166.052 281.6 165.361C280.114 164.66 278.954 163.699 278.12 162.477C277.287 161.246 276.875 159.845 276.885 158.273C276.875 157.042 277.117 155.905 277.609 154.864C278.101 153.812 278.774 152.937 279.626 152.236C280.488 151.526 281.449 151.076 282.51 150.886V150.716C281.118 150.356 280.01 149.575 279.186 148.372C278.362 147.16 277.955 145.782 277.964 144.239C277.955 142.761 278.329 141.44 279.086 140.276C279.844 139.111 280.886 138.192 282.211 137.52C283.547 136.848 285.066 136.511 286.771 136.511C288.457 136.511 289.962 136.848 291.288 137.52C292.614 138.192 293.655 139.111 294.413 140.276C295.18 141.44 295.568 142.761 295.578 144.239C295.568 145.782 295.147 147.16 294.314 148.372C293.49 149.575 292.396 150.356 291.032 150.716V150.886C292.083 151.076 293.03 151.526 293.873 152.236C294.716 152.937 295.388 153.812 295.89 154.864C296.392 155.905 296.648 157.042 296.657 158.273C296.648 159.845 296.222 161.246 295.379 162.477C294.546 163.699 293.386 164.66 291.899 165.361C290.422 166.052 288.712 166.398 286.771 166.398ZM286.771 163.273C288.087 163.273 289.224 163.06 290.18 162.634C291.136 162.207 291.875 161.606 292.396 160.83C292.917 160.053 293.182 159.144 293.191 158.102C293.182 157.004 292.898 156.033 292.339 155.19C291.78 154.348 291.018 153.685 290.052 153.202C289.096 152.719 288.002 152.477 286.771 152.477C285.53 152.477 284.422 152.719 283.447 153.202C282.481 153.685 281.719 154.348 281.16 155.19C280.611 156.033 280.341 157.004 280.35 158.102C280.341 159.144 280.592 160.053 281.103 160.83C281.624 161.606 282.368 162.207 283.333 162.634C284.299 163.06 285.445 163.273 286.771 163.273ZM286.771 149.466C287.813 149.466 288.736 149.258 289.541 148.841C290.355 148.424 290.994 147.842 291.458 147.094C291.922 146.346 292.159 145.47 292.169 144.466C292.159 143.481 291.927 142.624 291.473 141.895C291.018 141.156 290.388 140.588 289.583 140.19C288.779 139.783 287.841 139.58 286.771 139.58C285.682 139.58 284.73 139.783 283.916 140.19C283.101 140.588 282.472 141.156 282.027 141.895C281.582 142.624 281.364 143.481 281.373 144.466C281.364 145.47 281.586 146.346 282.041 147.094C282.505 147.842 283.144 148.424 283.958 148.841C284.773 149.258 285.71 149.466 286.771 149.466ZM311.931 166.398C310.056 166.398 308.384 166.076 306.917 165.432C305.458 164.788 304.298 163.893 303.436 162.747C302.584 161.592 302.12 160.252 302.044 158.727H305.624C305.7 159.665 306.022 160.474 306.59 161.156C307.158 161.829 307.901 162.349 308.82 162.719C309.739 163.088 310.757 163.273 311.874 163.273C313.124 163.273 314.232 163.055 315.198 162.619C316.164 162.184 316.921 161.578 317.471 160.801C318.02 160.025 318.294 159.125 318.294 158.102C318.294 157.032 318.029 156.09 317.499 155.276C316.969 154.452 316.192 153.808 315.169 153.344C314.147 152.88 312.897 152.648 311.419 152.648H309.09V149.523H311.419C312.575 149.523 313.588 149.314 314.459 148.898C315.34 148.481 316.026 147.894 316.519 147.136C317.021 146.379 317.272 145.489 317.272 144.466C317.272 143.481 317.054 142.624 316.618 141.895C316.183 141.166 315.567 140.598 314.772 140.19C313.986 139.783 313.058 139.58 311.988 139.58C310.984 139.58 310.037 139.764 309.147 140.134C308.266 140.493 307.546 141.019 306.988 141.71C306.429 142.392 306.126 143.216 306.078 144.182H302.669C302.726 142.657 303.185 141.322 304.047 140.176C304.909 139.021 306.036 138.121 307.428 137.477C308.829 136.833 310.368 136.511 312.044 136.511C313.844 136.511 315.387 136.876 316.675 137.605C317.963 138.325 318.953 139.277 319.644 140.46C320.335 141.644 320.681 142.922 320.681 144.295C320.681 145.934 320.25 147.33 319.388 148.486C318.536 149.641 317.376 150.441 315.908 150.886V151.114C317.745 151.417 319.18 152.198 320.212 153.457C321.244 154.707 321.76 156.256 321.76 158.102C321.76 159.684 321.329 161.104 320.468 162.364C319.615 163.614 318.451 164.598 316.973 165.318C315.496 166.038 313.815 166.398 311.931 166.398Z" fill="white"/>
<path d="M254.441 45H247.85L257.893 15.9091H265.819L275.847 45H269.256L261.969 22.5568H261.742L254.441 45ZM254.029 33.5653H269.597V38.3665H254.029V33.5653ZM288.607 45V15.9091H294.757V39.929H307.229V45H288.607ZM311.188 45V23.1818H317.239V45H311.188ZM314.228 20.3693C313.328 20.3693 312.557 20.071 311.913 19.4744C311.278 18.8684 310.961 18.1439 310.961 17.3011C310.961 16.4678 311.278 15.7528 311.913 15.1562C312.557 14.5502 313.328 14.2472 314.228 14.2472C315.128 14.2472 315.895 14.5502 316.529 15.1562C317.173 15.7528 317.495 16.4678 317.495 17.3011C317.495 18.1439 317.173 18.8684 316.529 19.4744C315.895 20.071 315.128 20.3693 314.228 20.3693ZM340.24 29.4034L334.7 29.7443C334.606 29.2708 334.402 28.8447 334.089 28.4659C333.777 28.0777 333.365 27.7699 332.854 27.5426C332.352 27.3059 331.75 27.1875 331.05 27.1875C330.112 27.1875 329.321 27.3864 328.678 27.7841C328.034 28.1723 327.712 28.6932 327.712 29.3466C327.712 29.8674 327.92 30.3078 328.337 30.6676C328.753 31.0275 329.468 31.3163 330.482 31.5341L334.43 32.3295C336.552 32.7652 338.133 33.4659 339.175 34.4318C340.216 35.3977 340.737 36.6667 340.737 38.2386C340.737 39.6686 340.316 40.9233 339.473 42.0028C338.64 43.0824 337.494 43.9252 336.036 44.5312C334.587 45.1278 332.915 45.4261 331.021 45.4261C328.133 45.4261 325.832 44.8248 324.118 43.6222C322.413 42.41 321.414 40.7623 321.121 38.679L327.072 38.3665C327.252 39.2472 327.688 39.9195 328.379 40.3835C329.071 40.8381 329.956 41.0653 331.036 41.0653C332.096 41.0653 332.948 40.8617 333.592 40.4545C334.246 40.0379 334.577 39.5028 334.587 38.8494C334.577 38.3002 334.345 37.8504 333.891 37.5C333.436 37.1402 332.735 36.8655 331.788 36.6761L328.01 35.9233C325.879 35.4972 324.293 34.7585 323.251 33.7074C322.219 32.6562 321.703 31.3163 321.703 29.6875C321.703 28.286 322.082 27.0786 322.839 26.0653C323.607 25.0521 324.681 24.2708 326.064 23.7216C327.456 23.1723 329.085 22.8977 330.95 22.8977C333.706 22.8977 335.875 23.4801 337.456 24.6449C339.047 25.8097 339.975 27.3958 340.24 29.4034ZM356.153 23.1818V27.7273H343.013V23.1818H356.153ZM345.996 17.9545H352.048V38.2955C352.048 38.8542 352.133 39.2898 352.303 39.6023C352.474 39.9053 352.71 40.1184 353.013 40.2415C353.326 40.3646 353.686 40.4261 354.093 40.4261C354.377 40.4261 354.661 40.4025 354.945 40.3551C355.229 40.2983 355.447 40.2557 355.599 40.2273L356.55 44.7301C356.247 44.8248 355.821 44.9337 355.272 45.0568C354.723 45.1894 354.055 45.2699 353.269 45.2983C351.811 45.3551 350.532 45.161 349.434 44.7159C348.345 44.2708 347.497 43.5795 346.891 42.642C346.285 41.7045 345.987 40.5208 345.996 39.0909V17.9545ZM379.21 45.4261C377.004 45.4261 375.096 44.9574 373.486 44.0199C371.885 43.0729 370.65 41.7566 369.778 40.071C368.907 38.3759 368.472 36.411 368.472 34.1761C368.472 31.9223 368.907 29.9527 369.778 28.267C370.65 26.572 371.885 25.2557 373.486 24.3182C375.096 23.3712 377.004 22.8977 379.21 22.8977C381.417 22.8977 383.32 23.3712 384.92 24.3182C386.53 25.2557 387.771 26.572 388.642 28.267C389.513 29.9527 389.949 31.9223 389.949 34.1761C389.949 36.411 389.513 38.3759 388.642 40.071C387.771 41.7566 386.53 43.0729 384.92 44.0199C383.32 44.9574 381.417 45.4261 379.21 45.4261ZM379.239 40.7386C380.242 40.7386 381.08 40.4545 381.753 39.8864C382.425 39.3087 382.932 38.5227 383.273 37.5284C383.623 36.5341 383.798 35.4025 383.798 34.1335C383.798 32.8646 383.623 31.733 383.273 30.7386C382.932 29.7443 382.425 28.9583 381.753 28.3807C381.08 27.803 380.242 27.5142 379.239 27.5142C378.225 27.5142 377.373 27.803 376.682 28.3807C376 28.9583 375.484 29.7443 375.134 30.7386C374.793 31.733 374.622 32.8646 374.622 34.1335C374.622 35.4025 374.793 36.5341 375.134 37.5284C375.484 38.5227 376 39.3087 376.682 39.8864C377.373 40.4545 378.225 40.7386 379.239 40.7386ZM405.616 23.1818V27.7273H392.151V23.1818H405.616ZM395.233 45V21.6051C395.233 20.0237 395.541 18.7121 396.156 17.6705C396.781 16.6288 397.634 15.8475 398.713 15.3267C399.793 14.8059 401.019 14.5455 402.392 14.5455C403.32 14.5455 404.168 14.6165 404.935 14.7585C405.711 14.9006 406.289 15.0284 406.668 15.142L405.588 19.6875C405.351 19.6117 405.058 19.5407 404.707 19.4744C404.366 19.4081 404.016 19.375 403.656 19.375C402.766 19.375 402.146 19.5833 401.795 20C401.445 20.4072 401.27 20.9801 401.27 21.7188V45H395.233ZM443.017 15.9091V45H437.705L425.048 26.6903H424.835V45H418.685V15.9091H424.082L436.639 34.2045H436.895V15.9091H443.017ZM461.977 35.7102V23.1818H468.028V45H462.218V41.0369H461.991C461.498 42.3153 460.679 43.3428 459.533 44.1193C458.397 44.8958 457.01 45.2841 455.371 45.2841C453.913 45.2841 452.63 44.9527 451.522 44.2898C450.414 43.6269 449.548 42.6847 448.923 41.4631C448.307 40.2415 447.995 38.7784 447.985 37.0739V23.1818H454.036V35.9943C454.046 37.2822 454.391 38.3002 455.073 39.0483C455.755 39.7964 456.669 40.1705 457.815 40.1705C458.544 40.1705 459.226 40.0047 459.86 39.6733C460.495 39.3324 461.006 38.8305 461.394 38.1676C461.792 37.5047 461.986 36.6856 461.977 35.7102ZM472.868 45V23.1818H478.635V27.0312H478.891C479.345 25.7528 480.103 24.7443 481.163 24.0057C482.224 23.267 483.493 22.8977 484.97 22.8977C486.466 22.8977 487.74 23.2718 488.791 24.0199C489.842 24.7585 490.543 25.7623 490.893 27.0312H491.121C491.566 25.7812 492.371 24.7822 493.536 24.0341C494.71 23.2765 496.097 22.8977 497.697 22.8977C499.733 22.8977 501.386 23.5464 502.655 24.8438C503.933 26.1316 504.572 27.9593 504.572 30.3267V45H498.536V31.5199C498.536 30.3078 498.214 29.3987 497.57 28.7926C496.926 28.1866 496.121 27.8835 495.155 27.8835C494.056 27.8835 493.199 28.2339 492.584 28.9347C491.968 29.6259 491.661 30.5398 491.661 31.6761V45H485.794V31.392C485.794 30.322 485.486 29.4697 484.871 28.8352C484.265 28.2008 483.464 27.8835 482.47 27.8835C481.798 27.8835 481.192 28.054 480.652 28.3949C480.122 28.7263 479.7 29.1951 479.388 29.8011C479.075 30.3977 478.919 31.0985 478.919 31.9034V45H472.868ZM509.466 45V15.9091H515.517V26.8466H515.702C515.967 26.2595 516.35 25.6629 516.852 25.0568C517.364 24.4413 518.027 23.9299 518.841 23.5227C519.665 23.1061 520.688 22.8977 521.909 22.8977C523.5 22.8977 524.968 23.3144 526.312 24.1477C527.657 24.9716 528.732 26.2169 529.537 27.8835C530.342 29.5407 530.744 31.6193 530.744 34.1193C530.744 36.553 530.351 38.608 529.565 40.2841C528.789 41.9508 527.728 43.215 526.384 44.0767C525.048 44.929 523.552 45.3551 521.895 45.3551C520.721 45.3551 519.722 45.161 518.898 44.7727C518.083 44.3845 517.416 43.8968 516.895 43.3097C516.374 42.7131 515.976 42.1117 515.702 41.5057H515.432V45H509.466ZM515.389 34.0909C515.389 35.3883 515.569 36.5199 515.929 37.4858C516.289 38.4517 516.81 39.2045 517.491 39.7443C518.173 40.2746 519.002 40.5398 519.977 40.5398C520.962 40.5398 521.795 40.2699 522.477 39.7301C523.159 39.1809 523.675 38.4233 524.026 37.4574C524.385 36.482 524.565 35.3598 524.565 34.0909C524.565 32.8314 524.39 31.7235 524.04 30.767C523.689 29.8106 523.173 29.0625 522.491 28.5227C521.81 27.983 520.972 27.7131 519.977 27.7131C518.992 27.7131 518.159 27.9735 517.477 28.4943C516.805 29.0152 516.289 29.7538 515.929 30.7102C515.569 31.6667 515.389 32.7936 515.389 34.0909ZM544.725 45.4261C542.481 45.4261 540.549 44.9716 538.93 44.0625C537.32 43.1439 536.079 41.8466 535.208 40.1705C534.337 38.4848 533.901 36.4915 533.901 34.1903C533.901 31.946 534.337 29.9763 535.208 28.2812C536.079 26.5862 537.306 25.2652 538.887 24.3182C540.478 23.3712 542.344 22.8977 544.484 22.8977C545.923 22.8977 547.263 23.1297 548.504 23.5938C549.754 24.0483 550.843 24.7348 551.771 25.6534C552.708 26.572 553.437 27.7273 553.958 29.1193C554.479 30.5019 554.739 32.1212 554.739 33.9773V35.6392H536.316V31.8892H549.043C549.043 31.018 548.854 30.2462 548.475 29.5739C548.096 28.9015 547.571 28.3759 546.898 27.9972C546.236 27.6089 545.464 27.4148 544.583 27.4148C543.665 27.4148 542.85 27.6278 542.14 28.054C541.439 28.4706 540.89 29.0341 540.492 29.7443C540.094 30.4451 539.891 31.2263 539.881 32.0881V35.6534C539.881 36.733 540.08 37.6657 540.478 38.4517C540.885 39.2377 541.458 39.8438 542.197 40.2699C542.935 40.696 543.811 40.9091 544.825 40.9091C545.497 40.9091 546.112 40.8144 546.671 40.625C547.23 40.4356 547.708 40.1515 548.106 39.7727C548.504 39.3939 548.807 38.9299 549.015 38.3807L554.612 38.75C554.327 40.0947 553.745 41.2689 552.864 42.2727C551.993 43.267 550.866 44.0436 549.484 44.6023C548.111 45.1515 546.524 45.4261 544.725 45.4261ZM558.688 45V23.1818H564.555V26.9886H564.782C565.18 25.6345 565.847 24.6117 566.785 23.9205C567.722 23.2197 568.802 22.8693 570.023 22.8693C570.326 22.8693 570.653 22.8883 571.004 22.9261C571.354 22.964 571.662 23.0161 571.927 23.0824V28.4517C571.643 28.3665 571.25 28.2907 570.748 28.2244C570.246 28.1581 569.787 28.125 569.37 28.125C568.48 28.125 567.684 28.3191 566.984 28.7074C566.292 29.0862 565.743 29.6165 565.336 30.2983C564.938 30.9801 564.739 31.7661 564.739 32.6562V45H558.688ZM593.209 29.4034L587.669 29.7443C587.574 29.2708 587.371 28.8447 587.058 28.4659C586.746 28.0777 586.334 27.7699 585.822 27.5426C585.321 27.3059 584.719 27.1875 584.018 27.1875C583.081 27.1875 582.29 27.3864 581.646 27.7841C581.002 28.1723 580.68 28.6932 580.68 29.3466C580.68 29.8674 580.889 30.3078 581.305 30.6676C581.722 31.0275 582.437 31.3163 583.45 31.5341L587.399 32.3295C589.52 32.7652 591.102 33.4659 592.143 34.4318C593.185 35.3977 593.706 36.6667 593.706 38.2386C593.706 39.6686 593.285 40.9233 592.442 42.0028C591.608 43.0824 590.463 43.9252 589.004 44.5312C587.555 45.1278 585.884 45.4261 583.99 45.4261C581.102 45.4261 578.801 44.8248 577.087 43.6222C575.382 42.41 574.383 40.7623 574.089 38.679L580.041 38.3665C580.221 39.2472 580.657 39.9195 581.348 40.3835C582.039 40.8381 582.925 41.0653 584.004 41.0653C585.065 41.0653 585.917 40.8617 586.561 40.4545C587.214 40.0379 587.546 39.5028 587.555 38.8494C587.546 38.3002 587.314 37.8504 586.859 37.5C586.405 37.1402 585.704 36.8655 584.757 36.6761L580.979 35.9233C578.848 35.4972 577.262 34.7585 576.22 33.7074C575.188 32.6562 574.672 31.3163 574.672 29.6875C574.672 28.286 575.051 27.0786 575.808 26.0653C576.575 25.0521 577.65 24.2708 579.033 23.7216C580.425 23.1723 582.054 22.8977 583.919 22.8977C586.675 22.8977 588.843 23.4801 590.425 24.6449C592.016 25.8097 592.944 27.3958 593.209 29.4034Z" fill="white"/>
<path d="M234.908 286.909V316H229.595L216.939 297.69H216.726V316H210.575V286.909H215.973L228.53 305.205H228.786V286.909H234.908ZM253.867 306.71V294.182H259.918V316H254.109V312.037H253.881C253.389 313.315 252.57 314.343 251.424 315.119C250.288 315.896 248.9 316.284 247.262 316.284C245.804 316.284 244.521 315.953 243.413 315.29C242.305 314.627 241.438 313.685 240.813 312.463C240.198 311.241 239.885 309.778 239.876 308.074V294.182H245.927V306.994C245.936 308.282 246.282 309.3 246.964 310.048C247.646 310.796 248.559 311.17 249.705 311.17C250.434 311.17 251.116 311.005 251.751 310.673C252.385 310.332 252.897 309.83 253.285 309.168C253.683 308.505 253.877 307.686 253.867 306.71ZM264.759 316V294.182H270.526V298.031H270.781C271.236 296.753 271.993 295.744 273.054 295.006C274.115 294.267 275.384 293.898 276.861 293.898C278.357 293.898 279.631 294.272 280.682 295.02C281.733 295.759 282.434 296.762 282.784 298.031H283.011C283.456 296.781 284.261 295.782 285.426 295.034C286.6 294.277 287.988 293.898 289.588 293.898C291.624 293.898 293.277 294.546 294.545 295.844C295.824 297.132 296.463 298.959 296.463 301.327V316H290.426V302.52C290.426 301.308 290.104 300.399 289.46 299.793C288.816 299.187 288.011 298.884 287.045 298.884C285.947 298.884 285.09 299.234 284.474 299.935C283.859 300.626 283.551 301.54 283.551 302.676V316H277.685V302.392C277.685 301.322 277.377 300.47 276.761 299.835C276.155 299.201 275.355 298.884 274.361 298.884C273.688 298.884 273.082 299.054 272.543 299.395C272.012 299.726 271.591 300.195 271.278 300.801C270.966 301.398 270.81 302.098 270.81 302.903V316H264.759ZM301.357 316V286.909H307.408V297.847H307.592C307.857 297.259 308.241 296.663 308.743 296.057C309.254 295.441 309.917 294.93 310.732 294.523C311.555 294.106 312.578 293.898 313.8 293.898C315.391 293.898 316.858 294.314 318.203 295.148C319.548 295.972 320.623 297.217 321.428 298.884C322.232 300.541 322.635 302.619 322.635 305.119C322.635 307.553 322.242 309.608 321.456 311.284C320.679 312.951 319.619 314.215 318.274 315.077C316.939 315.929 315.443 316.355 313.786 316.355C312.611 316.355 311.612 316.161 310.788 315.773C309.974 315.384 309.306 314.897 308.786 314.31C308.265 313.713 307.867 313.112 307.592 312.506H307.322V316H301.357ZM307.28 305.091C307.28 306.388 307.46 307.52 307.82 308.486C308.179 309.452 308.7 310.205 309.382 310.744C310.064 311.275 310.893 311.54 311.868 311.54C312.853 311.54 313.686 311.27 314.368 310.73C315.05 310.181 315.566 309.423 315.916 308.457C316.276 307.482 316.456 306.36 316.456 305.091C316.456 303.831 316.281 302.723 315.93 301.767C315.58 300.811 315.064 300.062 314.382 299.523C313.7 298.983 312.862 298.713 311.868 298.713C310.883 298.713 310.05 298.973 309.368 299.494C308.696 300.015 308.179 300.754 307.82 301.71C307.46 302.667 307.28 303.794 307.28 305.091ZM336.616 316.426C334.371 316.426 332.44 315.972 330.82 315.062C329.21 314.144 327.97 312.847 327.099 311.17C326.228 309.485 325.792 307.491 325.792 305.19C325.792 302.946 326.228 300.976 327.099 299.281C327.97 297.586 329.196 296.265 330.778 295.318C332.369 294.371 334.234 293.898 336.374 293.898C337.814 293.898 339.154 294.13 340.394 294.594C341.644 295.048 342.733 295.735 343.661 296.653C344.599 297.572 345.328 298.727 345.849 300.119C346.37 301.502 346.63 303.121 346.63 304.977V306.639H328.207V302.889H340.934C340.934 302.018 340.745 301.246 340.366 300.574C339.987 299.902 339.461 299.376 338.789 298.997C338.126 298.609 337.354 298.415 336.474 298.415C335.555 298.415 334.741 298.628 334.031 299.054C333.33 299.471 332.781 300.034 332.383 300.744C331.985 301.445 331.781 302.226 331.772 303.088V306.653C331.772 307.733 331.971 308.666 332.369 309.452C332.776 310.238 333.349 310.844 334.087 311.27C334.826 311.696 335.702 311.909 336.715 311.909C337.388 311.909 338.003 311.814 338.562 311.625C339.121 311.436 339.599 311.152 339.996 310.773C340.394 310.394 340.697 309.93 340.906 309.381L346.502 309.75C346.218 311.095 345.636 312.269 344.755 313.273C343.884 314.267 342.757 315.044 341.374 315.602C340.001 316.152 338.415 316.426 336.616 316.426ZM350.579 316V294.182H356.445V297.989H356.673C357.07 296.634 357.738 295.612 358.675 294.92C359.613 294.22 360.692 293.869 361.914 293.869C362.217 293.869 362.544 293.888 362.894 293.926C363.245 293.964 363.552 294.016 363.817 294.082V299.452C363.533 299.366 363.14 299.291 362.638 299.224C362.137 299.158 361.677 299.125 361.261 299.125C360.371 299.125 359.575 299.319 358.874 299.707C358.183 300.086 357.634 300.616 357.227 301.298C356.829 301.98 356.63 302.766 356.63 303.656V316H350.579ZM387.809 294.182V298.727H374.67V294.182H387.809ZM377.653 288.955H383.704V309.295C383.704 309.854 383.789 310.29 383.96 310.602C384.13 310.905 384.367 311.118 384.67 311.241C384.982 311.365 385.342 311.426 385.749 311.426C386.033 311.426 386.317 311.402 386.602 311.355C386.886 311.298 387.103 311.256 387.255 311.227L388.207 315.73C387.904 315.825 387.478 315.934 386.928 316.057C386.379 316.189 385.711 316.27 384.925 316.298C383.467 316.355 382.189 316.161 381.09 315.716C380.001 315.271 379.154 314.58 378.548 313.642C377.942 312.705 377.643 311.521 377.653 310.091V288.955ZM401.374 316.426C399.168 316.426 397.26 315.957 395.65 315.02C394.049 314.073 392.814 312.757 391.942 311.071C391.071 309.376 390.636 307.411 390.636 305.176C390.636 302.922 391.071 300.953 391.942 299.267C392.814 297.572 394.049 296.256 395.65 295.318C397.26 294.371 399.168 293.898 401.374 293.898C403.581 293.898 405.484 294.371 407.085 295.318C408.694 296.256 409.935 297.572 410.806 299.267C411.677 300.953 412.113 302.922 412.113 305.176C412.113 307.411 411.677 309.376 410.806 311.071C409.935 312.757 408.694 314.073 407.085 315.02C405.484 315.957 403.581 316.426 401.374 316.426ZM401.403 311.739C402.406 311.739 403.245 311.455 403.917 310.886C404.589 310.309 405.096 309.523 405.437 308.528C405.787 307.534 405.962 306.402 405.962 305.134C405.962 303.865 405.787 302.733 405.437 301.739C405.096 300.744 404.589 299.958 403.917 299.381C403.245 298.803 402.406 298.514 401.403 298.514C400.389 298.514 399.537 298.803 398.846 299.381C398.164 299.958 397.648 300.744 397.298 301.739C396.957 302.733 396.786 303.865 396.786 305.134C396.786 306.402 396.957 307.534 397.298 308.528C397.648 309.523 398.164 310.309 398.846 310.886C399.537 311.455 400.389 311.739 401.403 311.739ZM441.2 295.276C441.087 294.13 440.599 293.24 439.737 292.605C438.875 291.971 437.706 291.653 436.229 291.653C435.225 291.653 434.377 291.795 433.686 292.08C432.995 292.354 432.464 292.738 432.095 293.23C431.735 293.723 431.555 294.281 431.555 294.906C431.536 295.427 431.645 295.882 431.882 296.27C432.128 296.658 432.464 296.994 432.891 297.278C433.317 297.553 433.809 297.795 434.368 298.003C434.927 298.202 435.523 298.372 436.158 298.514L438.771 299.139C440.04 299.423 441.205 299.802 442.266 300.276C443.326 300.749 444.245 301.331 445.021 302.023C445.798 302.714 446.399 303.528 446.825 304.466C447.261 305.403 447.483 306.478 447.493 307.69C447.483 309.471 447.029 311.014 446.129 312.321C445.239 313.618 443.951 314.627 442.266 315.347C440.589 316.057 438.568 316.412 436.2 316.412C433.852 316.412 431.806 316.052 430.064 315.332C428.331 314.613 426.977 313.547 426.001 312.136C425.036 310.716 424.529 308.959 424.482 306.866H430.433C430.5 307.842 430.779 308.656 431.271 309.31C431.773 309.954 432.441 310.441 433.274 310.773C434.117 311.095 435.069 311.256 436.129 311.256C437.171 311.256 438.075 311.104 438.842 310.801C439.619 310.498 440.22 310.077 440.646 309.537C441.072 308.997 441.286 308.377 441.286 307.676C441.286 307.023 441.091 306.473 440.703 306.028C440.324 305.583 439.766 305.205 439.027 304.892C438.298 304.58 437.403 304.295 436.342 304.04L433.175 303.244C430.722 302.648 428.786 301.715 427.365 300.446C425.945 299.177 425.239 297.468 425.249 295.318C425.239 293.557 425.708 292.018 426.655 290.702C427.611 289.385 428.923 288.358 430.589 287.619C432.256 286.881 434.15 286.511 436.271 286.511C438.43 286.511 440.315 286.881 441.925 287.619C443.544 288.358 444.804 289.385 445.703 290.702C446.603 292.018 447.067 293.543 447.095 295.276H441.2ZM461.46 316.426C459.215 316.426 457.283 315.972 455.664 315.062C454.054 314.144 452.814 312.847 451.942 311.17C451.071 309.485 450.636 307.491 450.636 305.19C450.636 302.946 451.071 300.976 451.942 299.281C452.814 297.586 454.04 296.265 455.621 295.318C457.212 294.371 459.078 293.898 461.218 293.898C462.657 293.898 463.997 294.13 465.238 294.594C466.488 295.048 467.577 295.735 468.505 296.653C469.442 297.572 470.172 298.727 470.692 300.119C471.213 301.502 471.474 303.121 471.474 304.977V306.639H453.05V302.889H465.778C465.778 302.018 465.588 301.246 465.21 300.574C464.831 299.902 464.305 299.376 463.633 298.997C462.97 298.609 462.198 298.415 461.317 298.415C460.399 298.415 459.585 298.628 458.874 299.054C458.174 299.471 457.624 300.034 457.227 300.744C456.829 301.445 456.625 302.226 456.616 303.088V306.653C456.616 307.733 456.815 308.666 457.212 309.452C457.62 310.238 458.192 310.844 458.931 311.27C459.67 311.696 460.546 311.909 461.559 311.909C462.231 311.909 462.847 311.814 463.406 311.625C463.964 311.436 464.442 311.152 464.84 310.773C465.238 310.394 465.541 309.93 465.749 309.381L471.346 309.75C471.062 311.095 470.479 312.269 469.599 313.273C468.728 314.267 467.601 315.044 466.218 315.602C464.845 316.152 463.259 316.426 461.46 316.426ZM481.644 316.412C480.252 316.412 479.012 316.17 477.923 315.688C476.834 315.195 475.972 314.471 475.337 313.514C474.712 312.548 474.4 311.346 474.4 309.906C474.4 308.694 474.622 307.676 475.067 306.852C475.513 306.028 476.119 305.366 476.886 304.864C477.653 304.362 478.524 303.983 479.499 303.727C480.484 303.472 481.516 303.292 482.596 303.188C483.865 303.055 484.888 302.932 485.664 302.818C486.441 302.695 487.004 302.515 487.354 302.278C487.705 302.042 487.88 301.691 487.88 301.227V301.142C487.88 300.242 487.596 299.546 487.028 299.054C486.469 298.562 485.674 298.315 484.641 298.315C483.552 298.315 482.686 298.557 482.042 299.04C481.398 299.513 480.972 300.11 480.763 300.83L475.167 300.375C475.451 299.049 476.01 297.903 476.843 296.938C477.676 295.962 478.751 295.214 480.067 294.693C481.393 294.163 482.927 293.898 484.67 293.898C485.882 293.898 487.042 294.04 488.15 294.324C489.267 294.608 490.257 295.048 491.119 295.645C491.99 296.241 492.676 297.009 493.178 297.946C493.68 298.874 493.931 299.987 493.931 301.284V316H488.192V312.974H488.022C487.672 313.656 487.203 314.258 486.616 314.778C486.029 315.29 485.323 315.692 484.499 315.986C483.675 316.27 482.724 316.412 481.644 316.412ZM483.377 312.236C484.267 312.236 485.053 312.061 485.735 311.71C486.417 311.35 486.952 310.867 487.34 310.261C487.728 309.655 487.923 308.969 487.923 308.202V305.886C487.733 306.009 487.473 306.123 487.141 306.227C486.819 306.322 486.455 306.412 486.048 306.497C485.64 306.573 485.233 306.644 484.826 306.71C484.419 306.767 484.049 306.819 483.718 306.866C483.008 306.971 482.388 307.136 481.857 307.364C481.327 307.591 480.915 307.899 480.621 308.287C480.328 308.666 480.181 309.139 480.181 309.707C480.181 310.531 480.479 311.161 481.076 311.597C481.682 312.023 482.449 312.236 483.377 312.236ZM498.626 316V294.182H504.492V297.989H504.719C505.117 296.634 505.785 295.612 506.722 294.92C507.66 294.22 508.739 293.869 509.961 293.869C510.264 293.869 510.591 293.888 510.941 293.926C511.291 293.964 511.599 294.016 511.864 294.082V299.452C511.58 299.366 511.187 299.291 510.685 299.224C510.183 299.158 509.724 299.125 509.308 299.125C508.417 299.125 507.622 299.319 506.921 299.707C506.23 300.086 505.681 300.616 505.273 301.298C504.876 301.98 504.677 302.766 504.677 303.656V316H498.626ZM523.835 316.426C521.6 316.426 519.678 315.953 518.068 315.006C516.468 314.049 515.237 312.723 514.375 311.028C513.523 309.333 513.097 307.383 513.097 305.176C513.097 302.941 513.527 300.981 514.389 299.295C515.26 297.6 516.496 296.279 518.097 295.332C519.697 294.376 521.6 293.898 523.807 293.898C525.71 293.898 527.377 294.243 528.807 294.935C530.237 295.626 531.368 296.597 532.202 297.847C533.035 299.097 533.494 300.564 533.58 302.25H527.869C527.708 301.161 527.282 300.285 526.591 299.622C525.909 298.95 525.014 298.614 523.906 298.614C522.969 298.614 522.15 298.869 521.449 299.381C520.758 299.883 520.218 300.616 519.83 301.582C519.441 302.548 519.247 303.718 519.247 305.091C519.247 306.483 519.437 307.667 519.815 308.642C520.204 309.617 520.748 310.361 521.449 310.872C522.15 311.384 522.969 311.639 523.906 311.639C524.598 311.639 525.218 311.497 525.767 311.213C526.326 310.929 526.785 310.517 527.145 309.977C527.514 309.428 527.756 308.77 527.869 308.003H533.58C533.485 309.67 533.03 311.137 532.216 312.406C531.411 313.666 530.298 314.651 528.878 315.361C527.457 316.071 525.777 316.426 523.835 316.426ZM543.505 303.386V316H537.454V286.909H543.335V298.031H543.59C544.083 296.743 544.878 295.735 545.977 295.006C547.075 294.267 548.453 293.898 550.11 293.898C551.625 293.898 552.946 294.229 554.073 294.892C555.21 295.545 556.09 296.488 556.715 297.719C557.35 298.94 557.662 300.403 557.653 302.108V316H551.602V303.188C551.611 301.843 551.27 300.796 550.579 300.048C549.897 299.3 548.941 298.926 547.71 298.926C546.886 298.926 546.156 299.101 545.522 299.452C544.897 299.802 544.405 300.313 544.045 300.986C543.694 301.649 543.514 302.449 543.505 303.386ZM571.786 316V286.909H591.048V291.98H577.937V298.912H589.769V303.983H577.937V316H571.786ZM603.327 316.426C601.121 316.426 599.213 315.957 597.603 315.02C596.003 314.073 594.767 312.757 593.896 311.071C593.024 309.376 592.589 307.411 592.589 305.176C592.589 302.922 593.024 300.953 593.896 299.267C594.767 297.572 596.003 296.256 597.603 295.318C599.213 294.371 601.121 293.898 603.327 293.898C605.534 293.898 607.437 294.371 609.038 295.318C610.647 296.256 611.888 297.572 612.759 299.267C613.63 300.953 614.066 302.922 614.066 305.176C614.066 307.411 613.63 309.376 612.759 311.071C611.888 312.757 610.647 314.073 609.038 315.02C607.437 315.957 605.534 316.426 603.327 316.426ZM603.356 311.739C604.36 311.739 605.198 311.455 605.87 310.886C606.542 310.309 607.049 309.523 607.39 308.528C607.74 307.534 607.915 306.402 607.915 305.134C607.915 303.865 607.74 302.733 607.39 301.739C607.049 300.744 606.542 299.958 605.87 299.381C605.198 298.803 604.36 298.514 603.356 298.514C602.343 298.514 601.49 298.803 600.799 299.381C600.117 299.958 599.601 300.744 599.251 301.739C598.91 302.733 598.739 303.865 598.739 305.134C598.739 306.402 598.91 307.534 599.251 308.528C599.601 309.523 600.117 310.309 600.799 310.886C601.49 311.455 602.343 311.739 603.356 311.739ZM618.001 316V294.182H623.867V297.989H624.094C624.492 296.634 625.16 295.612 626.097 294.92C627.035 294.22 628.114 293.869 629.336 293.869C629.639 293.869 629.966 293.888 630.316 293.926C630.666 293.964 630.974 294.016 631.239 294.082V299.452C630.955 299.366 630.562 299.291 630.06 299.224C629.558 299.158 629.099 299.125 628.683 299.125C627.792 299.125 626.997 299.319 626.296 299.707C625.605 300.086 625.056 300.616 624.648 301.298C624.251 301.98 624.052 302.766 624.052 303.656V316H618.001Z" fill="white"/>
<path d="M420.607 166.398C418.732 166.398 417.06 166.076 415.592 165.432C414.134 164.788 412.974 163.893 412.112 162.747C411.26 161.592 410.796 160.252 410.72 158.727H414.3C414.375 159.665 414.697 160.474 415.266 161.156C415.834 161.829 416.577 162.349 417.496 162.719C418.414 163.088 419.432 163.273 420.55 163.273C421.8 163.273 422.908 163.055 423.874 162.619C424.839 162.184 425.597 161.578 426.146 160.801C426.696 160.025 426.97 159.125 426.97 158.102C426.97 157.032 426.705 156.09 426.175 155.276C425.644 154.452 424.868 153.808 423.845 153.344C422.822 152.88 421.572 152.648 420.095 152.648H417.766V149.523H420.095C421.25 149.523 422.264 149.314 423.135 148.898C424.016 148.481 424.702 147.894 425.195 147.136C425.696 146.379 425.947 145.489 425.947 144.466C425.947 143.481 425.73 142.624 425.294 141.895C424.858 141.166 424.243 140.598 423.447 140.19C422.661 139.783 421.733 139.58 420.663 139.58C419.66 139.58 418.713 139.764 417.822 140.134C416.942 140.493 416.222 141.019 415.663 141.71C415.105 142.392 414.802 143.216 414.754 144.182H411.345C411.402 142.657 411.861 141.322 412.723 140.176C413.585 139.021 414.712 138.121 416.104 137.477C417.505 136.833 419.044 136.511 420.72 136.511C422.519 136.511 424.063 136.876 425.351 137.605C426.639 138.325 427.628 139.277 428.32 140.46C429.011 141.644 429.357 142.922 429.357 144.295C429.357 145.934 428.926 147.33 428.064 148.486C427.212 149.641 426.052 150.441 424.584 150.886V151.114C426.421 151.417 427.856 152.198 428.888 153.457C429.92 154.707 430.436 156.256 430.436 158.102C430.436 159.684 430.005 161.104 429.143 162.364C428.291 163.614 427.126 164.598 425.649 165.318C424.172 166.038 422.491 166.398 420.607 166.398Z" fill="white"/>
<path d="M527.954 166.398C526.287 166.398 524.786 166.066 523.451 165.403C522.116 164.741 521.046 163.831 520.241 162.676C519.436 161.521 518.996 160.205 518.92 158.727H522.329C522.461 160.044 523.058 161.133 524.119 161.994C525.189 162.847 526.467 163.273 527.954 163.273C529.147 163.273 530.208 162.993 531.136 162.435C532.073 161.876 532.807 161.109 533.337 160.134C533.877 159.149 534.147 158.036 534.147 156.795C534.147 155.527 533.868 154.395 533.309 153.401C532.76 152.397 532.002 151.606 531.036 151.028C530.07 150.451 528.967 150.157 527.727 150.148C526.836 150.138 525.923 150.276 524.985 150.56C524.048 150.834 523.276 151.189 522.67 151.625L519.374 151.227L521.136 136.909H536.249V140.034H524.09L523.067 148.614H523.238C523.835 148.14 524.583 147.747 525.482 147.435C526.382 147.122 527.319 146.966 528.295 146.966C530.075 146.966 531.661 147.392 533.053 148.244C534.455 149.087 535.553 150.242 536.349 151.71C537.154 153.178 537.556 154.854 537.556 156.739C537.556 158.595 537.139 160.252 536.306 161.71C535.482 163.159 534.346 164.305 532.897 165.148C531.448 165.981 529.8 166.398 527.954 166.398ZM552.46 136.511C553.653 136.521 554.847 136.748 556.04 137.193C557.233 137.638 558.322 138.377 559.307 139.409C560.292 140.432 561.082 141.829 561.679 143.599C562.276 145.37 562.574 147.591 562.574 150.261C562.574 152.847 562.328 155.143 561.835 157.151C561.352 159.149 560.652 160.834 559.733 162.207C558.824 163.58 557.716 164.622 556.409 165.332C555.112 166.043 553.644 166.398 552.006 166.398C550.377 166.398 548.923 166.076 547.645 165.432C546.376 164.778 545.334 163.874 544.52 162.719C543.715 161.554 543.199 160.205 542.972 158.67H546.438C546.75 160.006 547.37 161.109 548.298 161.98C549.236 162.842 550.472 163.273 552.006 163.273C554.25 163.273 556.021 162.293 557.318 160.332C558.625 158.372 559.278 155.602 559.278 152.023H559.051C558.521 152.818 557.891 153.505 557.162 154.082C556.433 154.66 555.623 155.105 554.733 155.418C553.843 155.73 552.896 155.886 551.892 155.886C550.225 155.886 548.696 155.474 547.304 154.651C545.921 153.817 544.813 152.676 543.98 151.227C543.156 149.769 542.744 148.102 542.744 146.227C542.744 144.447 543.142 142.818 543.938 141.341C544.742 139.854 545.869 138.67 547.318 137.79C548.777 136.909 550.491 136.483 552.46 136.511ZM552.46 139.636C551.267 139.636 550.192 139.935 549.236 140.531C548.289 141.118 547.536 141.914 546.977 142.918C546.428 143.912 546.153 145.015 546.153 146.227C546.153 147.439 546.419 148.543 546.949 149.537C547.489 150.522 548.223 151.308 549.151 151.895C550.088 152.473 551.153 152.761 552.347 152.761C553.246 152.761 554.084 152.586 554.861 152.236C555.637 151.876 556.314 151.388 556.892 150.773C557.479 150.148 557.938 149.442 558.27 148.656C558.601 147.861 558.767 147.032 558.767 146.17C558.767 145.034 558.492 143.969 557.943 142.974C557.403 141.98 556.655 141.175 555.699 140.56C554.752 139.944 553.672 139.636 552.46 139.636Z" fill="white"/>
<path d="M407.954 437.398C406.287 437.398 404.786 437.066 403.451 436.403C402.116 435.741 401.046 434.831 400.241 433.676C399.436 432.521 398.996 431.205 398.92 429.727H402.329C402.461 431.044 403.058 432.133 404.119 432.994C405.189 433.847 406.467 434.273 407.954 434.273C409.147 434.273 410.208 433.993 411.136 433.435C412.073 432.876 412.807 432.109 413.337 431.134C413.877 430.149 414.147 429.036 414.147 427.795C414.147 426.527 413.868 425.395 413.309 424.401C412.76 423.397 412.002 422.606 411.036 422.028C410.07 421.451 408.967 421.157 407.727 421.148C406.836 421.138 405.923 421.276 404.985 421.56C404.048 421.834 403.276 422.189 402.67 422.625L399.374 422.227L401.136 407.909H416.249V411.034H404.09L403.067 419.614H403.238C403.835 419.14 404.583 418.747 405.482 418.435C406.382 418.122 407.319 417.966 408.295 417.966C410.075 417.966 411.661 418.392 413.053 419.244C414.455 420.087 415.553 421.242 416.349 422.71C417.154 424.178 417.556 425.854 417.556 427.739C417.556 429.595 417.139 431.252 416.306 432.71C415.482 434.159 414.346 435.305 412.897 436.148C411.448 436.981 409.8 437.398 407.954 437.398ZM432.46 407.511C433.653 407.521 434.847 407.748 436.04 408.193C437.233 408.638 438.322 409.377 439.307 410.409C440.292 411.432 441.082 412.829 441.679 414.599C442.276 416.37 442.574 418.591 442.574 421.261C442.574 423.847 442.328 426.143 441.835 428.151C441.352 430.149 440.652 431.834 439.733 433.207C438.824 434.58 437.716 435.622 436.409 436.332C435.112 437.043 433.644 437.398 432.006 437.398C430.377 437.398 428.923 437.076 427.645 436.432C426.376 435.778 425.334 434.874 424.52 433.719C423.715 432.554 423.199 431.205 422.972 429.67H426.438C426.75 431.006 427.37 432.109 428.298 432.98C429.236 433.842 430.472 434.273 432.006 434.273C434.25 434.273 436.021 433.293 437.318 431.332C438.625 429.372 439.278 426.602 439.278 423.023H439.051C438.521 423.818 437.891 424.505 437.162 425.082C436.433 425.66 435.623 426.105 434.733 426.418C433.843 426.73 432.896 426.886 431.892 426.886C430.225 426.886 428.696 426.474 427.304 425.651C425.921 424.817 424.813 423.676 423.98 422.227C423.156 420.769 422.744 419.102 422.744 417.227C422.744 415.447 423.142 413.818 423.938 412.341C424.742 410.854 425.869 409.67 427.318 408.79C428.777 407.909 430.491 407.483 432.46 407.511ZM432.46 410.636C431.267 410.636 430.192 410.935 429.236 411.531C428.289 412.118 427.536 412.914 426.977 413.918C426.428 414.912 426.153 416.015 426.153 417.227C426.153 418.439 426.419 419.543 426.949 420.537C427.489 421.522 428.223 422.308 429.151 422.895C430.088 423.473 431.153 423.761 432.347 423.761C433.246 423.761 434.084 423.586 434.861 423.236C435.637 422.876 436.314 422.388 436.892 421.773C437.479 421.148 437.938 420.442 438.27 419.656C438.601 418.861 438.767 418.032 438.767 417.17C438.767 416.034 438.492 414.969 437.943 413.974C437.403 412.98 436.655 412.175 435.699 411.56C434.752 410.944 433.672 410.636 432.46 410.636Z" fill="white"/>
<path d="M640.827 166L653.838 140.261V140.034H638.838V136.909H657.474V140.205L644.52 166H640.827ZM671.803 166.398C670.61 166.379 669.417 166.152 668.224 165.716C667.031 165.28 665.942 164.546 664.957 163.514C663.972 162.473 663.181 161.066 662.585 159.295C661.988 157.515 661.69 155.28 661.69 152.591C661.69 150.015 661.931 147.733 662.414 145.744C662.897 143.746 663.598 142.065 664.516 140.702C665.435 139.329 666.543 138.287 667.84 137.577C669.147 136.866 670.62 136.511 672.258 136.511C673.887 136.511 675.335 136.838 676.604 137.491C677.883 138.135 678.924 139.035 679.729 140.19C680.534 141.346 681.055 142.676 681.292 144.182H677.826C677.504 142.875 676.879 141.791 675.951 140.929C675.023 140.067 673.792 139.636 672.258 139.636C670.004 139.636 668.228 140.616 666.931 142.577C665.643 144.537 664.995 147.288 664.985 150.83H665.212C665.743 150.025 666.372 149.338 667.102 148.77C667.84 148.192 668.655 147.747 669.545 147.435C670.435 147.122 671.377 146.966 672.371 146.966C674.038 146.966 675.563 147.383 676.945 148.216C678.328 149.04 679.436 150.181 680.269 151.639C681.103 153.088 681.519 154.75 681.519 156.625C681.519 158.424 681.117 160.072 680.312 161.568C679.507 163.055 678.375 164.239 676.917 165.119C675.468 165.991 673.763 166.417 671.803 166.398ZM671.803 163.273C672.996 163.273 674.067 162.974 675.013 162.378C675.97 161.781 676.723 160.981 677.272 159.977C677.831 158.973 678.11 157.856 678.11 156.625C678.11 155.422 677.84 154.329 677.3 153.344C676.77 152.349 676.036 151.559 675.099 150.972C674.171 150.384 673.11 150.091 671.917 150.091C671.017 150.091 670.179 150.271 669.403 150.631C668.626 150.981 667.944 151.464 667.357 152.08C666.78 152.695 666.325 153.401 665.994 154.196C665.662 154.982 665.496 155.811 665.496 156.682C665.496 157.837 665.766 158.917 666.306 159.92C666.855 160.924 667.603 161.734 668.55 162.349C669.507 162.965 670.591 163.273 671.803 163.273Z" fill="white"/>
<path d="M757.888 160.034V157.136L770.672 136.909H772.775V141.398H771.354L761.695 156.682V156.909H778.911V160.034H757.888ZM771.581 166V159.153V157.804V136.909H774.934V166H771.581ZM784.234 166V163.443L793.836 152.932C794.963 151.701 795.891 150.631 796.62 149.722C797.35 148.803 797.889 147.941 798.24 147.136C798.6 146.322 798.779 145.47 798.779 144.58C798.779 143.557 798.533 142.671 798.041 141.923C797.558 141.175 796.895 140.598 796.052 140.19C795.209 139.783 794.262 139.58 793.211 139.58C792.094 139.58 791.118 139.812 790.285 140.276C789.461 140.73 788.822 141.369 788.368 142.193C787.922 143.017 787.7 143.983 787.7 145.091H784.348C784.348 143.386 784.741 141.89 785.527 140.602C786.313 139.314 787.383 138.311 788.737 137.591C790.1 136.871 791.63 136.511 793.325 136.511C795.029 136.511 796.54 136.871 797.856 137.591C799.172 138.311 800.205 139.281 800.953 140.503C801.701 141.724 802.075 143.083 802.075 144.58C802.075 145.65 801.881 146.696 801.493 147.719C801.114 148.732 800.451 149.864 799.504 151.114C798.566 152.354 797.264 153.869 795.598 155.659L789.064 162.648V162.875H802.586V166H784.234Z" fill="white"/>
</svg>
