<svg xmlns="http://www.w3.org/2000/svg" width="841" height="484" fill="none" viewBox="0 0 841 484"><rect width="839" height="120" x="1" y="92" stroke="#dbdbdb" stroke-width="2" rx="26"/><rect width="119" height="120" x="361" y="363" stroke="#dbdbdb" stroke-width="2" rx="26"/><path stroke="#dbdbdb" stroke-width="2" d="M121 91v122M241 91v122M362 91v122M482 91v122M602 91v122M722 91v122"/><path fill="#fff" d="M50.61 136.909V166h-3.523v-25.398h-.17l-7.103 4.716v-3.579l7.273-4.83zm7.684 23.125v-2.898l12.785-20.227h2.102v4.489h-1.42l-9.66 15.284v.227h17.216v3.125zM71.988 166v-29.091h3.352V166zM179.434 166.398q-2.499 0-4.503-.995-2.003-.994-3.21-2.727t-1.321-3.949h3.409q.199 1.976 1.79 3.267 1.606 1.28 3.835 1.279 1.79 0 3.182-.838a5.9 5.9 0 0 0 2.202-2.301q.81-1.478.809-3.339 0-1.903-.838-3.394a6.15 6.15 0 0 0-2.272-2.373q-1.449-.866-3.31-.88a9 9 0 0 0-2.741.412q-1.407.411-2.316 1.065l-3.295-.398 1.761-14.318h15.114v3.125h-12.159l-1.023 8.58h.17q.895-.711 2.245-1.179a8.5 8.5 0 0 1 2.812-.469q2.671 0 4.759 1.278a8.93 8.93 0 0 1 3.295 3.466q1.208 2.202 1.208 5.029 0 2.784-1.25 4.971a9.14 9.14 0 0 1-3.41 3.438q-2.172 1.25-4.943 1.25M286.771 166.398q-2.926 0-5.171-1.037-2.229-1.051-3.48-2.884-1.25-1.846-1.235-4.204-.014-1.847.724-3.409a7.4 7.4 0 0 1 2.017-2.628 6.2 6.2 0 0 1 2.884-1.35v-.17q-2.088-.54-3.324-2.344-1.236-1.818-1.222-4.133-.013-2.217 1.122-3.963 1.137-1.748 3.125-2.756 2.003-1.008 4.56-1.009 2.528 0 4.517 1.009t3.125 2.756q1.15 1.746 1.165 3.963-.015 2.315-1.264 4.133-1.236 1.804-3.282 2.344v.17q1.576.285 2.841 1.35 1.264 1.05 2.017 2.628.753 1.562.767 3.409-.013 2.358-1.278 4.204-1.25 1.833-3.48 2.884-2.216 1.037-5.128 1.037m0-3.125q1.974 0 3.409-.639 1.434-.64 2.216-1.804.781-1.165.795-2.728-.014-1.647-.852-2.912-.838-1.263-2.287-1.988-1.434-.725-3.281-.725-1.861 0-3.324.725-1.449.725-2.287 1.988-.824 1.265-.81 2.912-.014 1.563.753 2.728.782 1.164 2.23 1.804 1.449.639 3.438.639m0-13.807q1.563 0 2.77-.625a4.76 4.76 0 0 0 1.917-1.747q.696-1.122.711-2.628-.015-1.478-.696-2.571a4.5 4.5 0 0 0-1.89-1.705q-1.207-.61-2.812-.61-1.634 0-2.855.61-1.222.597-1.889 1.705-.668 1.094-.654 2.571-.014 1.506.668 2.628a4.76 4.76 0 0 0 1.917 1.747q1.222.625 2.813.625m25.16 16.932q-2.813 0-5.014-.966-2.188-.966-3.481-2.685-1.278-1.733-1.392-4.02h3.58q.114 1.407.966 2.429.852 1.009 2.23 1.563t3.054.554q1.875 0 3.324-.654 1.448-.653 2.273-1.818.823-1.164.823-2.699 0-1.605-.795-2.826-.795-1.236-2.33-1.932-1.533-.696-3.75-.696h-2.329v-3.125h2.329q1.734 0 3.04-.625 1.321-.625 2.06-1.762.753-1.136.753-2.67 0-1.478-.654-2.571-.653-1.093-1.846-1.705-1.179-.61-2.784-.61a7.3 7.3 0 0 0-2.841.554q-1.322.539-2.159 1.576-.838 1.023-.91 2.472h-3.409q.085-2.287 1.378-4.006 1.293-1.733 3.381-2.699 2.102-.966 4.616-.966 2.7 0 4.631 1.094 1.932 1.08 2.969 2.855a7.5 7.5 0 0 1 1.037 3.835q0 2.458-1.293 4.191-1.278 1.733-3.48 2.4v.228q2.756.454 4.304 2.343 1.548 1.876 1.548 4.645 0 2.373-1.292 4.262-1.279 1.874-3.495 2.954t-5.042 1.08M254.441 45h-6.591l10.043-29.09h7.926L275.847 45h-6.591l-7.287-22.443h-.227zm-.412-11.435h15.568v4.802h-15.568zM288.607 45V15.91h6.15v24.019h12.472V45zm22.581 0V23.182h6.051V45zm3.04-24.63q-1.35 0-2.315-.896-.952-.909-.952-2.173 0-1.25.952-2.145.966-.909 2.315-.909 1.35 0 2.301.91.966.894.966 2.144 0 1.264-.966 2.173-.951.895-2.301.895m26.012 9.033-5.54.341a2.85 2.85 0 0 0-.611-1.278 3.24 3.24 0 0 0-1.235-.923q-.753-.355-1.804-.355-1.407 0-2.372.596-.966.583-.966 1.563 0 .78.625 1.32.624.54 2.145.867l3.948.796q3.183.653 4.745 2.102t1.562 3.807q0 2.145-1.264 3.764-1.25 1.62-3.437 2.528-2.174.895-5.015.895-4.332 0-6.903-1.804-2.557-1.818-2.997-4.943l5.951-.312q.27 1.32 1.307 2.017 1.038.681 2.657.681 1.59 0 2.556-.61.98-.625.995-1.606-.015-.824-.696-1.349-.682-.54-2.103-.824l-3.778-.753q-3.196-.64-4.759-2.216-1.548-1.575-1.548-4.02 0-2.101 1.136-3.622 1.151-1.52 3.225-2.343 2.088-.825 4.886-.824 4.134 0 6.506 1.747 2.387 1.747 2.784 4.758m15.913-6.221v4.545h-13.14v-4.545zm-10.157-5.227h6.052v20.34q0 .84.255 1.307.256.454.71.64.47.184 1.08.184.426 0 .852-.07.426-.086.654-.129l.951 4.503q-.454.143-1.278.327-.824.198-2.003.241-2.187.086-3.835-.582-1.634-.667-2.543-2.074t-.895-3.551zm33.214 27.471q-3.309 0-5.724-1.406-2.4-1.42-3.708-3.949-1.306-2.543-1.306-5.895 0-3.38 1.306-5.909 1.307-2.542 3.708-3.949 2.415-1.42 5.724-1.42t5.71 1.42q2.415 1.407 3.722 3.949 1.307 2.528 1.307 5.91 0 3.351-1.307 5.894-1.307 2.529-3.722 3.949-2.4 1.406-5.71 1.406m.029-4.687q1.505 0 2.514-.853 1.008-.866 1.52-2.358.525-1.49.525-3.395 0-1.902-.525-3.394-.512-1.492-1.52-2.358-1.01-.867-2.514-.867-1.52 0-2.557.867-1.023.866-1.548 2.358-.512 1.492-.512 3.394 0 1.904.512 3.395.525 1.492 1.548 2.358 1.036.853 2.557.853m26.377-17.557v4.545h-13.465v-4.545zM395.233 45V21.605q0-2.372.923-3.934a5.94 5.94 0 0 1 2.557-2.344q1.62-.781 3.679-.781 1.392 0 2.543.213 1.164.213 1.733.383l-1.08 4.546a8 8 0 0 0-.881-.214 5.5 5.5 0 0 0-1.051-.099q-1.335 0-1.861.625-.525.61-.525 1.719V45zm47.784-29.09V45h-5.312l-12.657-18.31h-.213V45h-6.15V15.91h5.397l12.557 18.295h.256V15.909zm18.96 19.8V23.182h6.051V45h-5.81v-3.963h-.227a6.45 6.45 0 0 1-2.458 3.082q-1.704 1.165-4.162 1.165-2.187 0-3.849-.994t-2.599-2.827q-.923-1.832-.938-4.39V23.183h6.051v12.812q.014 1.932 1.037 3.054t2.742 1.122a4.35 4.35 0 0 0 2.045-.497q.952-.511 1.534-1.505.597-.994.583-2.458M472.868 45V23.182h5.767v3.85h.256q.681-1.92 2.272-3.026 1.591-1.108 3.807-1.108 2.244 0 3.821 1.122 1.577 1.108 2.102 3.011h.228q.667-1.875 2.415-2.997 1.761-1.136 4.161-1.136 3.054 0 4.958 1.946 1.917 1.932 1.917 5.483V45h-6.036V31.52q0-1.818-.966-2.727-.966-.91-2.415-.91-1.649 0-2.571 1.052-.924 1.036-.923 2.741V45h-5.867V31.392q0-1.605-.923-2.557-.91-.951-2.401-.951-1.008 0-1.818.51-.796.498-1.264 1.407-.47.896-.469 2.102V45zm36.598 0V15.91h6.051v10.937h.185q.397-.882 1.15-1.79.768-.924 1.989-1.534 1.236-.625 3.068-.625 2.387 0 4.403 1.25 2.018 1.236 3.225 3.736 1.207 2.485 1.207 6.235 0 3.651-1.179 6.165-1.164 2.5-3.181 3.793-2.004 1.278-4.489 1.278-1.761 0-2.997-.582-1.222-.583-2.003-1.463-.782-.895-1.193-1.804h-.27V45zm5.923-10.91q0 1.947.54 3.396.54 1.45 1.562 2.258 1.023.795 2.486.796 1.477 0 2.5-.81 1.023-.825 1.549-2.273.539-1.462.539-3.366 0-1.89-.525-3.324-.526-1.434-1.549-2.244t-2.514-.81q-1.477 0-2.5.781-1.008.782-1.548 2.216-.54 1.436-.54 3.38m29.336 11.336q-3.366 0-5.795-1.364-2.415-1.377-3.722-3.892-1.307-2.527-1.307-5.98 0-3.366 1.307-5.909t3.679-3.963q2.387-1.42 5.597-1.42 2.159 0 4.02.696a8.9 8.9 0 0 1 3.267 2.06q1.406 1.377 2.187 3.465.781 2.074.781 4.858v1.662h-18.423v-3.75h12.727q0-1.307-.568-2.315a4.07 4.07 0 0 0-1.577-1.577q-.993-.582-2.315-.582-1.377 0-2.443.639-1.051.625-1.648 1.69-.597 1.051-.611 2.344v3.565q0 1.62.597 2.799.61 1.179 1.719 1.818 1.107.64 2.628.64 1.008 0 1.846-.285a3.8 3.8 0 0 0 1.435-.852q.597-.57.909-1.392l5.597.369a7.65 7.65 0 0 1-1.748 3.523q-1.307 1.49-3.38 2.33-2.06.823-4.759.823M558.688 45V23.182h5.867v3.807h.227q.596-2.032 2.003-3.068 1.406-1.052 3.238-1.052.454 0 .981.057.525.057.923.156v5.37a8 8 0 0 0-1.179-.228q-.753-.099-1.378-.099-1.336 0-2.386.582a4.3 4.3 0 0 0-1.648 1.591q-.597 1.023-.597 2.358V45zm34.521-15.597-5.54.341a2.86 2.86 0 0 0-.611-1.278 3.24 3.24 0 0 0-1.236-.923q-.752-.355-1.804-.355-1.406 0-2.372.596-.966.583-.966 1.563 0 .78.625 1.32t2.145.867l3.949.796q3.182.653 4.744 2.102 1.563 1.449 1.563 3.807 0 2.145-1.264 3.764-1.25 1.62-3.438 2.528-2.173.895-5.014.895-4.332 0-6.903-1.804-2.557-1.818-2.998-4.943l5.952-.312q.27 1.32 1.307 2.017 1.037.681 2.656.681 1.591 0 2.557-.61.98-.625.994-1.606-.013-.824-.696-1.349-.681-.54-2.102-.824l-3.778-.753q-3.196-.64-4.759-2.216-1.548-1.575-1.548-4.02 0-2.101 1.136-3.622 1.15-1.52 3.225-2.343 2.088-.825 4.886-.824 4.134 0 6.506 1.747 2.387 1.747 2.784 4.758M234.908 286.909V316h-5.313l-12.656-18.31h-.213V316h-6.151v-29.091h5.398l12.557 18.296h.256v-18.296zm18.959 19.801v-12.528h6.051V316h-5.809v-3.963h-.228a6.44 6.44 0 0 1-2.457 3.082q-1.704 1.165-4.162 1.165-2.187 0-3.849-.994t-2.6-2.827q-.923-1.833-.937-4.389v-13.892h6.051v12.812q.014 1.932 1.037 3.054t2.741 1.122a4.35 4.35 0 0 0 2.046-.497 3.9 3.9 0 0 0 1.534-1.505q.597-.994.582-2.458m10.892 9.29v-21.818h5.767v3.849h.255q.682-1.917 2.273-3.025t3.807-1.108q2.244 0 3.821 1.122 1.577 1.108 2.102 3.011h.227q.667-1.875 2.415-2.997 1.762-1.136 4.162-1.136 3.055 0 4.957 1.946 1.918 1.931 1.918 5.483V316h-6.037v-13.48q0-1.818-.966-2.727t-2.415-.909q-1.647 0-2.571 1.051-.923 1.037-.923 2.741V316h-5.866v-13.608q0-1.605-.924-2.557-.909-.951-2.4-.951-1.01 0-1.818.511-.796.497-1.265 1.406-.468.895-.468 2.102V316zm36.598 0v-29.091h6.051v10.938h.184q.398-.882 1.151-1.79.767-.924 1.989-1.534 1.235-.625 3.068-.625 2.386 0 4.403 1.25 2.018 1.236 3.225 3.736 1.207 2.485 1.207 6.235 0 3.651-1.179 6.165-1.165 2.5-3.182 3.793-2.003 1.278-4.488 1.278-1.762 0-2.998-.582-1.222-.583-2.002-1.463-.781-.895-1.194-1.804h-.27V316zm5.923-10.909q0 1.946.54 3.395.539 1.45 1.562 2.258 1.023.796 2.486.796 1.477 0 2.5-.81 1.023-.824 1.548-2.273.54-1.462.54-3.366 0-1.89-.526-3.324-.525-1.435-1.548-2.244t-2.514-.81q-1.477 0-2.5.781-1.009.782-1.548 2.216t-.54 3.381m29.336 11.335q-3.367 0-5.796-1.364-2.415-1.377-3.721-3.892-1.307-2.528-1.307-5.98 0-3.366 1.307-5.909t3.679-3.963q2.386-1.42 5.596-1.42 2.16 0 4.02.696a8.9 8.9 0 0 1 3.267 2.059q1.407 1.378 2.188 3.466.781 2.074.781 4.858v1.662h-18.423v-3.75h12.727q0-1.307-.568-2.315a4.1 4.1 0 0 0-1.577-1.577q-.995-.582-2.315-.582-1.378 0-2.443.639-1.051.625-1.648 1.69a4.77 4.77 0 0 0-.611 2.344v3.565q0 1.62.597 2.799.61 1.179 1.718 1.818t2.628.639q1.009 0 1.847-.284a3.8 3.8 0 0 0 1.434-.852q.597-.569.91-1.392l5.596.369a7.64 7.64 0 0 1-1.747 3.523q-1.307 1.491-3.381 2.329-2.06.825-4.758.824m13.963-.426v-21.818h5.866v3.807h.228q.596-2.032 2.002-3.069 1.406-1.05 3.239-1.051.455 0 .98.057.526.057.923.156v5.37a8 8 0 0 0-1.179-.228 11 11 0 0 0-1.377-.099q-1.335 0-2.387.582a4.3 4.3 0 0 0-1.647 1.591q-.597 1.023-.597 2.358V316zm37.23-21.818v4.545H374.67v-4.545zm-10.156-5.227h6.051v20.34q0 .839.256 1.307.255.455.71.639.468.186 1.079.185.426 0 .853-.071.425-.085.653-.128l.952 4.503q-.454.143-1.279.327-.824.199-2.003.241-2.187.086-3.835-.582-1.633-.667-2.542-2.074-.91-1.406-.895-3.551zm23.721 27.471q-3.309 0-5.724-1.406-2.4-1.42-3.708-3.949-1.306-2.543-1.306-5.895 0-3.38 1.306-5.909 1.307-2.542 3.708-3.949 2.415-1.42 5.724-1.42t5.711 1.42q2.414 1.407 3.721 3.949 1.307 2.528 1.307 5.909 0 3.353-1.307 5.895-1.307 2.529-3.721 3.949-2.401 1.406-5.711 1.406m.029-4.687q1.505 0 2.514-.853 1.008-.865 1.52-2.358.525-1.491.525-3.394t-.525-3.395q-.512-1.493-1.52-2.358-1.009-.867-2.514-.867-1.52 0-2.557.867-1.023.865-1.548 2.358-.512 1.491-.512 3.395 0 1.902.512 3.394.525 1.493 1.548 2.358 1.036.853 2.557.853m39.797-16.463q-.17-1.719-1.463-2.671t-3.508-.952q-1.506 0-2.543.427-1.037.411-1.591 1.15a2.77 2.77 0 0 0-.54 1.676q-.029.782.327 1.364a3.4 3.4 0 0 0 1.009 1.008q.639.413 1.477.725a15 15 0 0 0 1.79.511l2.613.625q1.904.426 3.495 1.137 1.59.71 2.755 1.747a7.25 7.25 0 0 1 1.804 2.443q.654 1.406.668 3.224-.014 2.671-1.364 4.631-1.335 1.946-3.863 3.026-2.515 1.065-6.066 1.065-3.522 0-6.136-1.08-2.6-1.079-4.063-3.196-1.448-2.13-1.519-5.27h5.951q.1 1.464.838 2.444.753.965 2.003 1.463 1.265.483 2.855.483 1.563 0 2.713-.455 1.165-.454 1.804-1.264.64-.81.64-1.861 0-.98-.583-1.648-.568-.667-1.676-1.136-1.094-.469-2.685-.852l-3.167-.796q-3.679-.894-5.81-2.798t-2.116-5.128q-.015-2.642 1.406-4.616 1.435-1.975 3.934-3.083 2.5-1.107 5.682-1.108 3.239 0 5.654 1.108 2.429 1.108 3.778 3.083 1.35 1.974 1.392 4.574zm20.26 21.15q-3.368 0-5.796-1.364-2.415-1.377-3.722-3.892-1.306-2.528-1.306-5.98 0-3.366 1.306-5.909 1.308-2.542 3.679-3.963 2.387-1.42 5.597-1.42 2.158 0 4.02.696a8.9 8.9 0 0 1 3.267 2.059q1.406 1.378 2.187 3.466.782 2.074.782 4.858v1.662H453.05v-3.75h12.728q0-1.307-.568-2.315a4.1 4.1 0 0 0-1.577-1.577q-.995-.582-2.316-.582-1.377 0-2.443.639-1.05.625-1.647 1.69a4.77 4.77 0 0 0-.611 2.344v3.565q0 1.62.596 2.799.611 1.179 1.719 1.818t2.628.639q1.008 0 1.847-.284a3.8 3.8 0 0 0 1.434-.852q.597-.569.909-1.392l5.597.369a7.65 7.65 0 0 1-1.747 3.523q-1.307 1.491-3.381 2.329-2.06.825-4.758.824m20.184-.014q-2.088 0-3.721-.724-1.634-.739-2.586-2.174-.937-1.448-.937-3.608 0-1.818.667-3.054a5.4 5.4 0 0 1 1.819-1.988 8.8 8.8 0 0 1 2.613-1.137 20 20 0 0 1 3.097-.539 78 78 0 0 0 3.068-.37q1.165-.184 1.69-.54.526-.355.526-1.051v-.085q0-1.35-.852-2.088-.838-.739-2.387-.739-1.633 0-2.599.725-.966.71-1.279 1.79l-5.596-.455q.426-1.99 1.676-3.437 1.25-1.464 3.224-2.245 1.989-.795 4.603-.795 1.818 0 3.48.426 1.676.426 2.969 1.321a6.4 6.4 0 0 1 2.059 2.301q.753 1.392.753 3.338V316h-5.739v-3.026h-.17a6.1 6.1 0 0 1-1.406 1.804q-.88.767-2.117 1.208-1.236.426-2.855.426m1.733-4.176q1.335 0 2.358-.526a4.2 4.2 0 0 0 1.605-1.449q.582-.909.583-2.059v-2.316q-.284.185-.782.341-.483.143-1.093.27-.612.114-1.222.213l-1.108.156q-1.065.157-1.861.498-.795.34-1.236.923-.44.568-.44 1.42 0 1.236.895 1.89.909.639 2.301.639M498.626 316v-21.818h5.866v3.807h.227q.597-2.032 2.003-3.069 1.406-1.05 3.239-1.051.455 0 .98.057t.923.156v5.37a8 8 0 0 0-1.179-.228 11 11 0 0 0-1.377-.099q-1.336 0-2.387.582a4.3 4.3 0 0 0-1.648 1.591q-.596 1.023-.596 2.358V316zm25.209.426q-3.352 0-5.767-1.42-2.4-1.436-3.693-3.978-1.278-2.542-1.278-5.852 0-3.352 1.292-5.881 1.307-2.542 3.708-3.963 2.4-1.434 5.71-1.434 2.855 0 5 1.037t3.395 2.912 1.378 4.403h-5.711q-.241-1.634-1.278-2.628-1.023-1.008-2.685-1.008-1.406 0-2.457.767-1.037.752-1.619 2.201t-.583 3.509q0 2.088.568 3.551.583 1.463 1.634 2.23t2.457.767q1.038 0 1.861-.426a3.6 3.6 0 0 0 1.378-1.236q.554-.823.724-1.974h5.711q-.143 2.5-1.364 4.403-1.208 1.89-3.338 2.955t-5.043 1.065m19.67-13.04V316h-6.051v-29.091h5.881v11.122h.255q.739-1.932 2.387-3.025 1.647-1.108 4.133-1.108 2.273 0 3.963.994 1.705.98 2.642 2.827.952 1.832.938 4.389V316h-6.051v-12.812q.014-2.018-1.023-3.14-1.023-1.122-2.869-1.122-1.236 0-2.188.526-.937.525-1.477 1.534-.527.995-.54 2.4M571.786 316v-29.091h19.262v5.071h-13.111v6.932h11.832v5.071h-11.832V316zm31.541.426q-3.309 0-5.724-1.406-2.4-1.42-3.707-3.949-1.307-2.543-1.307-5.895 0-3.38 1.307-5.909 1.307-2.542 3.707-3.949 2.415-1.42 5.724-1.42t5.711 1.42q2.414 1.407 3.721 3.949 1.307 2.528 1.307 5.909 0 3.353-1.307 5.895-1.307 2.529-3.721 3.949-2.401 1.406-5.711 1.406m.029-4.687q1.506 0 2.514-.853 1.008-.865 1.52-2.358.525-1.491.525-3.394t-.525-3.395q-.512-1.493-1.52-2.358-1.008-.867-2.514-.867-1.52 0-2.557.867-1.023.865-1.548 2.358-.512 1.491-.512 3.395 0 1.902.512 3.394.525 1.493 1.548 2.358 1.037.853 2.557.853M618.001 316v-21.818h5.866v3.807h.227q.597-2.032 2.003-3.069 1.407-1.05 3.239-1.051.455 0 .98.057t.923.156v5.37a8 8 0 0 0-1.179-.228 11 11 0 0 0-1.377-.099q-1.336 0-2.387.582a4.3 4.3 0 0 0-1.648 1.591q-.596 1.023-.596 2.358V316zM420.607 166.398q-2.813 0-5.015-.966-2.187-.966-3.48-2.685-1.278-1.733-1.392-4.02h3.58q.112 1.407.966 2.429.852 1.009 2.23 1.563 1.377.554 3.054.554 1.875 0 3.324-.654 1.448-.653 2.272-1.818.825-1.164.824-2.699 0-1.605-.795-2.826-.796-1.236-2.33-1.932t-3.75-.696h-2.329v-3.125h2.329q1.733 0 3.04-.625 1.321-.625 2.06-1.762.752-1.136.752-2.67 0-1.478-.653-2.571t-1.847-1.705q-1.179-.61-2.784-.61-1.505 0-2.841.554-1.32.539-2.159 1.576-.837 1.023-.909 2.472h-3.409q.085-2.287 1.378-4.006 1.293-1.733 3.381-2.699 2.102-.966 4.616-.966 2.699 0 4.631 1.094 1.932 1.08 2.969 2.855a7.5 7.5 0 0 1 1.037 3.835q0 2.458-1.293 4.191-1.278 1.733-3.48 2.4v.228q2.756.454 4.304 2.343 1.548 1.876 1.548 4.645 0 2.373-1.293 4.262-1.278 1.874-3.494 2.954t-5.042 1.08M527.954 166.398q-2.5 0-4.503-.995-2.003-.994-3.21-2.727t-1.321-3.949h3.409q.198 1.976 1.79 3.267 1.605 1.28 3.835 1.279 1.79 0 3.182-.838a5.9 5.9 0 0 0 2.201-2.301q.81-1.478.81-3.339 0-1.903-.838-3.394a6.15 6.15 0 0 0-2.273-2.373q-1.449-.866-3.309-.88a9 9 0 0 0-2.742.412q-1.406.411-2.315 1.065l-3.296-.398 1.762-14.318h15.113v3.125H524.09l-1.023 8.58h.171q.896-.711 2.244-1.179a8.5 8.5 0 0 1 2.813-.469q2.67 0 4.758 1.278a8.93 8.93 0 0 1 3.296 3.466q1.207 2.202 1.207 5.029 0 2.784-1.25 4.971a9.14 9.14 0 0 1-3.409 3.438q-2.174 1.25-4.943 1.25m24.506-29.887q1.79.015 3.58.682 1.79.668 3.267 2.216 1.477 1.535 2.372 4.19.895 2.657.895 6.662 0 3.879-.739 6.89-.724 2.997-2.102 5.056-1.364 2.06-3.324 3.125-1.946 1.066-4.403 1.066-2.444 0-4.361-.966a8.56 8.56 0 0 1-3.125-2.713q-1.207-1.747-1.548-4.049h3.466q.468 2.004 1.86 3.31 1.407 1.293 3.708 1.293 3.366 0 5.312-2.941 1.96-2.94 1.96-8.309h-.227a8.9 8.9 0 0 1-1.889 2.059 8.3 8.3 0 0 1-2.429 1.336 8.5 8.5 0 0 1-2.841.468q-2.5 0-4.588-1.235-2.075-1.25-3.324-3.424-1.236-2.187-1.236-5 0-2.67 1.194-4.886a9.2 9.2 0 0 1 3.38-3.551q2.188-1.321 5.142-1.279m0 3.125q-1.79 0-3.224.895a6.44 6.44 0 0 0-2.259 2.387q-.824 1.491-.824 3.309t.796 3.31a6.35 6.35 0 0 0 2.202 2.358q1.405.867 3.196.866a6.05 6.05 0 0 0 2.514-.525 6.5 6.5 0 0 0 2.031-1.463 7.1 7.1 0 0 0 1.378-2.117 6.4 6.4 0 0 0 .497-2.486 6.5 6.5 0 0 0-.824-3.196 6.54 6.54 0 0 0-2.244-2.414q-1.42-.924-3.239-.924M407.954 437.398q-2.5 0-4.503-.995-2.002-.994-3.21-2.727-1.207-1.732-1.321-3.949h3.409q.198 1.976 1.79 3.267 1.605 1.28 3.835 1.279 1.79 0 3.182-.838a5.9 5.9 0 0 0 2.201-2.301q.81-1.478.81-3.339 0-1.902-.838-3.394a6.15 6.15 0 0 0-2.273-2.373q-1.449-.866-3.309-.88a9 9 0 0 0-2.742.412q-1.406.411-2.315 1.065l-3.296-.398 1.762-14.318h15.113v3.125H404.09l-1.023 8.58h.171q.895-.711 2.244-1.179a8.5 8.5 0 0 1 2.813-.469q2.67 0 4.758 1.278a8.93 8.93 0 0 1 3.296 3.466q1.207 2.202 1.207 5.029 0 2.784-1.25 4.971a9.14 9.14 0 0 1-3.409 3.438q-2.174 1.25-4.943 1.25m24.506-29.887q1.79.015 3.58.682 1.79.668 3.267 2.216 1.477 1.535 2.372 4.19.895 2.657.895 6.662 0 3.879-.739 6.89-.724 2.997-2.102 5.056-1.363 2.06-3.324 3.125-1.946 1.066-4.403 1.066-2.444 0-4.361-.966a8.56 8.56 0 0 1-3.125-2.713q-1.208-1.747-1.548-4.049h3.466q.468 2.004 1.86 3.31 1.407 1.293 3.708 1.293 3.366 0 5.312-2.941 1.96-2.94 1.96-8.309h-.227a8.9 8.9 0 0 1-1.889 2.059 8.3 8.3 0 0 1-2.429 1.336 8.5 8.5 0 0 1-2.841.468q-2.5 0-4.588-1.235-2.075-1.25-3.324-3.424-1.236-2.187-1.236-5 0-2.67 1.194-4.886a9.2 9.2 0 0 1 3.38-3.551q2.188-1.321 5.142-1.279m0 3.125q-1.79 0-3.224.895a6.44 6.44 0 0 0-2.259 2.387q-.824 1.491-.824 3.309t.796 3.31a6.35 6.35 0 0 0 2.202 2.358q1.405.866 3.196.866a6.05 6.05 0 0 0 2.514-.525 6.5 6.5 0 0 0 2.031-1.463 7.1 7.1 0 0 0 1.378-2.117 6.4 6.4 0 0 0 .497-2.486 6.5 6.5 0 0 0-.824-3.196 6.54 6.54 0 0 0-2.244-2.414q-1.42-.924-3.239-.924M640.827 166l13.011-25.739v-.227h-15v-3.125h18.636v3.296L644.52 166zm30.976.398a10.9 10.9 0 0 1-3.579-.682q-1.79-.654-3.267-2.202-1.478-1.562-2.372-4.219-.895-2.67-.895-6.704 0-3.864.724-6.847.725-2.997 2.102-5.042 1.378-2.06 3.324-3.125 1.96-1.066 4.418-1.066 2.443 0 4.346.98a8.3 8.3 0 0 1 3.125 2.699q1.207 1.733 1.563 3.992h-3.466q-.483-1.96-1.875-3.253t-3.693-1.293q-3.381 0-5.327 2.941-1.932 2.94-1.946 8.253h.227a8.55 8.55 0 0 1 4.333-3.395 8.5 8.5 0 0 1 2.826-.469q2.5 0 4.574 1.25 2.075 1.236 3.324 3.423 1.25 2.173 1.25 4.986 0 2.699-1.207 4.943a9.2 9.2 0 0 1-3.395 3.551q-2.174 1.308-5.114 1.279m0-3.125q1.79 0 3.21-.895a6.4 6.4 0 0 0 2.259-2.401q.838-1.506.838-3.352 0-1.804-.81-3.281a6.17 6.17 0 0 0-2.201-2.372q-1.392-.881-3.182-.881a5.9 5.9 0 0 0-2.514.54 6.5 6.5 0 0 0-2.046 1.449 7 7 0 0 0-1.363 2.116 6.3 6.3 0 0 0-.498 2.486q0 1.733.81 3.238a6.66 6.66 0 0 0 2.244 2.429q1.435.924 3.253.924M757.888 160.034v-2.898l12.784-20.227h2.103v4.489h-1.421l-9.659 15.284v.227h17.216v3.125zM771.581 166v-29.091h3.353V166zm12.653 0v-2.557l9.602-10.511a67 67 0 0 0 2.784-3.21q1.094-1.379 1.62-2.586a6.25 6.25 0 0 0 .539-2.556q0-1.535-.738-2.657-.724-1.121-1.989-1.733-1.264-.61-2.841-.61-1.676 0-2.926.696a4.8 4.8 0 0 0-1.917 1.917q-.668 1.236-.668 2.898h-3.352q0-2.557 1.179-4.489a8.2 8.2 0 0 1 3.21-3.011q2.045-1.08 4.588-1.08 2.557 0 4.531 1.08 1.975 1.08 3.097 2.912t1.122 4.077q0 1.605-.582 3.139-.568 1.52-1.989 3.395-1.407 1.86-3.906 4.545l-6.534 6.989v.227h13.522V166z"/></svg>