<svg xmlns="http://www.w3.org/2000/svg" width="1105" height="1339" fill="none" viewBox="0 0 1105 1339"><path fill="#500" d="M854 249h60c14.912 0 27 12.088 27 27v41c0 14.912-12.088 27-27 27h-60z"/><path fill="#553400" d="M676 249h87v95h-87z"/><path fill="#053" d="M501 249h87v95h-87z"/><path fill="#373737" d="M325 392h87v263h-87z"/><path fill="#fff" d="M5.521 1130v-23.27h13.955v2.5H8.339v7.86H18.43v2.5H8.34V1130zm18.23 0v-17.45h2.591v2.63h.182q.477-1.29 1.727-2.1t2.819-.81c.197 0 .443.01.738.01.296.01.52.02.67.04v2.73c-.09-.03-.299-.06-.624-.11a6.5 6.5 0 0 0-1.012-.08q-1.273 0-2.272.54c-.66.35-1.182.83-1.569 1.45q-.568.93-.568 2.1V1130zm17.043.41q-1.66 0-3.011-.63a5.1 5.1 0 0 1-2.148-1.83c-.53-.8-.795-1.77-.795-2.9 0-1 .196-1.82.59-2.44q.59-.945 1.58-1.47c.659-.36 1.386-.62 2.182-.8.803-.18 1.61-.32 2.42-.43 1.06-.14 1.92-.24 2.58-.31.666-.07 1.151-.2 1.454-.37.31-.18.466-.48.466-.91v-.09c0-1.12-.307-2-.92-2.62q-.91-.93-2.762-.93-1.92 0-3.011.84t-1.534 1.8l-2.545-.91c.454-1.06 1.06-1.89 1.818-2.48a6.9 6.9 0 0 1 2.5-1.25q1.363-.36 2.682-.36c.56 0 1.204.07 1.931.2q1.103.195 2.125.81c.69.41 1.262 1.03 1.716 1.85.455.83.682 1.93.682 3.32v11.5h-2.682v-2.36h-.136c-.182.38-.485.78-.91 1.21-.424.43-.988.8-1.692 1.1-.705.31-1.565.46-2.58.46m.41-2.41c1.06 0 1.954-.21 2.68-.62q1.104-.63 1.66-1.62c.379-.66.568-1.35.568-2.08v-2.45c-.113.13-.363.26-.75.37-.379.11-.818.2-1.318.29-.492.07-.973.14-1.443.2-.462.05-.837.1-1.125.14-.697.09-1.349.24-1.955.44q-.897.3-1.454.9c-.364.39-.546.93-.546 1.61 0 .93.345 1.64 1.034 2.12.697.47 1.58.7 2.648.7m12.485 2v-17.45h2.59v2.72h.228c.364-.93.95-1.65 1.762-2.17q1.215-.78 2.92-.78 1.727 0 2.875.78c.773.52 1.375 1.24 1.807 2.17h.182c.447-.9 1.117-1.61 2.01-2.15.895-.53 1.967-.8 3.217-.8 1.56 0 2.837.49 3.83 1.46s1.488 2.49 1.488 4.54V1130h-2.682v-11.68q0-1.935-1.057-2.76c-.704-.56-1.534-.83-2.488-.83q-1.84 0-2.852 1.11c-.675.74-1.012 1.67-1.012 2.8V1130H63.78v-11.95q0-1.5-.966-2.4c-.644-.62-1.474-.92-2.489-.92a3.7 3.7 0 0 0-1.954.55c-.599.38-1.084.89-1.455 1.55-.363.65-.545 1.4-.545 2.26V1130zm35.13.36q-2.522 0-4.352-1.11c-1.212-.75-2.147-1.8-2.806-3.14-.652-1.34-.978-2.91-.978-4.7s.326-3.36.977-4.73c.66-1.37 1.576-2.44 2.75-3.2 1.182-.78 2.561-1.16 4.137-1.16q1.364 0 2.693.45c.886.31 1.693.8 2.42 1.48.728.67 1.307 1.57 1.74 2.68.431 1.12.647 2.49.647 4.12v1.13H82.592v-2.32H93.32c0-.98-.197-1.86-.591-2.63a4.37 4.37 0 0 0-1.66-1.83c-.712-.45-1.552-.67-2.522-.67-1.068 0-1.992.26-2.773.79a5.3 5.3 0 0 0-1.784 2.05 6 6 0 0 0-.625 2.7v1.55c0 1.32.227 2.43.682 3.35.462.91 1.102 1.6 1.92 2.08.819.47 1.77.7 2.853.7.704 0 1.34-.09 1.909-.29a4.2 4.2 0 0 0 1.488-.91c.417-.41.739-.92.966-1.52l2.591.72a5.7 5.7 0 0 1-1.375 2.32c-.644.66-1.44 1.18-2.386 1.55q-1.421.54-3.193.54m21.626-.36h-2.955l8.546-23.27h2.909l8.545 23.27h-2.954l-6.955-19.59h-.182zm1.091-9.09h11.909v2.5h-11.909zM5.521 447v-23.273h13.955v2.5H8.339v7.864H18.43v2.5H8.34V447zm18.23 0v-17.455h2.591v2.637h.182q.477-1.296 1.727-2.102 1.25-.807 2.819-.807.296 0 .738.011.445.012.67.034v2.727q-.136-.033-.624-.102a6 6 0 0 0-1.012-.079q-1.273 0-2.272.534A4 4 0 0 0 27 433.852q-.568.921-.568 2.103V447zm17.043.409q-1.66 0-3.011-.625a5.17 5.17 0 0 1-2.148-1.829q-.795-1.204-.795-2.91 0-1.5.59-2.431a4.17 4.17 0 0 1 1.58-1.478 8.3 8.3 0 0 1 2.182-.795q1.205-.273 2.42-.432 1.59-.204 2.58-.307 1-.113 1.454-.375.465-.261.466-.909v-.091q0-1.682-.92-2.613-.91-.933-2.762-.932-1.92 0-3.011.841-1.091.84-1.534 1.795l-2.545-.909q.681-1.591 1.818-2.477a6.8 6.8 0 0 1 2.5-1.25q1.363-.364 2.682-.364.84 0 1.931.205a6.2 6.2 0 0 1 2.125.807q1.035.613 1.716 1.852.682 1.239.682 3.318V447h-2.682v-2.364h-.136q-.273.568-.91 1.216-.636.648-1.692 1.103t-2.58.454m.41-2.409q1.59 0 2.68-.625 1.104-.625 1.66-1.614a4.1 4.1 0 0 0 .568-2.079v-2.455q-.17.205-.75.375-.568.16-1.318.284-.738.114-1.443.205a70 70 0 0 0-1.125.136q-1.046.137-1.955.443-.897.296-1.454.898-.546.591-.546 1.614 0 1.398 1.034 2.113 1.046.705 2.648.705m12.485 2v-17.455h2.59v2.728h.228q.545-1.398 1.762-2.171 1.215-.784 2.92-.784 1.727 0 2.875.784 1.16.773 1.807 2.171h.182a5.1 5.1 0 0 1 2.01-2.148q1.342-.807 3.217-.807 2.34 0 3.83 1.466 1.488 1.455 1.488 4.534V447h-2.682v-11.682q0-1.932-1.057-2.761t-2.488-.83q-1.84 0-2.852 1.114-1.012 1.103-1.012 2.795V447H63.78v-11.955q0-1.488-.966-2.397-.966-.921-2.489-.921-1.045 0-1.954.557a4.2 4.2 0 0 0-1.455 1.546q-.545.977-.545 2.261V447zm35.13.364q-2.522 0-4.352-1.114-1.818-1.125-2.806-3.136-.978-2.023-.978-4.705t.977-4.727q.99-2.057 2.75-3.205 1.773-1.159 4.137-1.159 1.364 0 2.693.455a6.7 6.7 0 0 1 2.42 1.477q1.091 1.011 1.74 2.682.647 1.67.647 4.113v1.137H82.592v-2.318H93.32q0-1.478-.591-2.637a4.46 4.46 0 0 0-1.66-1.829q-1.068-.67-2.522-.671-1.602 0-2.773.796a5.2 5.2 0 0 0-1.784 2.045 6 6 0 0 0-.625 2.705v1.545q0 1.977.682 3.352.693 1.365 1.92 2.08 1.228.705 2.853.705 1.056 0 1.909-.296a4.1 4.1 0 0 0 1.488-.909 4.1 4.1 0 0 0 .966-1.523l2.591.728a5.75 5.75 0 0 1-1.375 2.318q-.966.988-2.386 1.545-1.421.546-3.193.546m21.626-.364h-2.955l8.546-23.273h2.909L127.49 447h-2.954l-6.955-19.591h-.182zm1.091-9.091h11.909v2.5h-11.909zM491.322 122v-1.726l6.481-7.095a45 45 0 0 0 1.88-2.167q.738-.93 1.093-1.745a4.2 4.2 0 0 0 .364-1.726q0-1.035-.499-1.793a3.23 3.23 0 0 0-1.342-1.17q-.853-.411-1.918-.412-1.13 0-1.975.47a3.24 3.24 0 0 0-1.294 1.294q-.451.835-.451 1.956h-2.263q0-1.725.796-3.029a5.53 5.53 0 0 1 2.167-2.033q1.381-.729 3.097-.729 1.726 0 3.059.729a5.5 5.5 0 0 1 2.09 1.965q.757 1.237.757 2.752 0 1.083-.393 2.119-.383 1.026-1.342 2.292-.95 1.256-2.637 3.068l-4.41 4.717v.154h9.128V122zm29.962.307q-2.07 0-3.566-.978t-2.301-2.694q-.806-1.717-.806-3.922 0-2.244.825-3.96.834-1.725 2.32-2.694 1.496-.978 3.49-.978 1.554 0 2.8.575a5.36 5.36 0 0 1 2.042 1.611q.796 1.035.988 2.416h-2.263q-.259-1.006-1.151-1.783-.881-.786-2.378-.786-1.323 0-2.32.69-.987.68-1.544 1.927-.546 1.237-.546 2.905 0 1.707.537 2.973.547 1.265 1.534 1.965.998.7 2.339.7.883 0 1.602-.307a3.3 3.3 0 0 0 1.217-.882q.499-.575.71-1.38h2.263a5.25 5.25 0 0 1-.95 2.349q-.747 1.035-1.984 1.649-1.227.603-2.858.604m15.082 0q-1.994 0-3.499-.949-1.495-.95-2.34-2.656-.834-1.707-.834-3.989 0-2.301.834-4.017.844-1.717 2.34-2.666 1.505-.95 3.499-.949 1.995 0 3.491.949 1.505.949 2.339 2.666.844 1.716.844 4.017 0 2.282-.844 3.989-.834 1.706-2.339 2.656-1.496.948-3.491.949m0-2.033q1.515 0 2.493-.776.978-.777 1.448-2.043.47-1.265.47-2.742 0-1.476-.47-2.752t-1.448-2.061q-.978-.786-2.493-.786t-2.492.786q-.978.786-1.448 2.061a7.9 7.9 0 0 0-.47 2.752q0 1.477.47 2.742.47 1.266 1.448 2.043.978.776 2.492.776M546.494 122v-14.727h2.186v2.301h.192q.46-1.18 1.486-1.831 1.026-.662 2.464-.662 1.457 0 2.426.662.978.651 1.524 1.831h.154a4.3 4.3 0 0 1 1.697-1.812q1.131-.681 2.713-.681 1.976 0 3.231 1.237 1.256 1.227 1.256 3.825V122h-2.262v-9.857q0-1.63-.892-2.329t-2.1-.7q-1.553 0-2.406.939-.854.93-.854 2.359V122h-2.301v-10.087q0-1.255-.815-2.023-.814-.776-2.1-.776-.881 0-1.649.469a3.55 3.55 0 0 0-1.227 1.304q-.46.825-.46 1.908V122zm29.641.307q-2.129 0-3.672-.94-1.534-.95-2.368-2.646-.825-1.707-.825-3.97t.825-3.988q.834-1.735 2.32-2.704 1.496-.978 3.49-.978 1.15 0 2.273.383a5.6 5.6 0 0 1 2.042 1.247q.921.853 1.467 2.263t.546 3.471v.958h-11.352v-1.956h9.051q0-1.246-.498-2.224a3.76 3.76 0 0 0-1.4-1.544q-.902-.565-2.129-.565-1.352 0-2.339.671a4.4 4.4 0 0 0-1.506 1.726 5.1 5.1 0 0 0-.527 2.282v1.304q0 1.668.575 2.828.585 1.15 1.621 1.755 1.035.594 2.406.594.892 0 1.611-.249a3.44 3.44 0 0 0 1.256-.767q.528-.518.815-1.285l2.186.614a4.86 4.86 0 0 1-1.16 1.956q-.815.833-2.013 1.304-1.198.46-2.695.46m19.972-11.736-2.032.575a3.8 3.8 0 0 0-.566-.987 2.75 2.75 0 0 0-.997-.806q-.633-.316-1.621-.316-1.351 0-2.253.623-.891.613-.891 1.563 0 .844.613 1.333.613.488 1.918.815l2.186.537q1.976.479 2.943 1.467.969.978.969 2.521 0 1.266-.729 2.263-.719.997-2.013 1.573-1.295.575-3.011.575-2.253 0-3.73-.978-1.476-.979-1.869-2.857l2.147-.537q.308 1.189 1.16 1.783.864.594 2.254.594 1.582 0 2.512-.671.939-.68.939-1.63 0-.766-.537-1.284-.536-.528-1.649-.787l-2.454-.575q-2.024-.48-2.973-1.486-.939-1.017-.939-2.541 0-1.246.7-2.205.71-.959 1.927-1.506 1.227-.546 2.78-.546 2.187 0 3.433.959 1.256.959 1.783 2.531m-69.027 29.702v1.917h-7.938v-1.917zM521.519 155v-16.76q0-1.266.595-2.109a3.7 3.7 0 0 1 1.543-1.266 4.9 4.9 0 0 1 2.004-.422q.835 0 1.362.134.527.135.786.25l-.652 1.956a10 10 0 0 0-.479-.144q-.297-.087-.786-.086-1.122 0-1.621.565-.489.566-.489 1.659V155zm8.733 0v-14.727h2.262V155zm1.15-17.182a1.6 1.6 0 0 1-1.141-.45 1.45 1.45 0 0 1-.47-1.084q0-.633.47-1.083.48-.451 1.141-.451t1.132.451q.479.45.479 1.083t-.479 1.084q-.47.45-1.132.45M536.659 155v-14.727h2.186v2.224h.153q.403-1.093 1.458-1.774 1.055-.68 2.378-.68.25 0 .623.009.374.01.566.029v2.301a7 7 0 0 0-.528-.086 5 5 0 0 0-.853-.067q-1.074 0-1.918.45a3.4 3.4 0 0 0-1.323 1.228q-.48.776-.479 1.773V155zm20.478-11.429-2.033.575a3.8 3.8 0 0 0-.566-.987 2.75 2.75 0 0 0-.997-.806q-.633-.316-1.62-.316-1.353 0-2.253.623-.892.614-.892 1.563 0 .844.613 1.333.615.489 1.918.815l2.186.537q1.975.478 2.944 1.467.968.978.968 2.521 0 1.266-.729 2.263-.719.997-2.013 1.573-1.295.575-3.011.575-2.253 0-3.73-.978t-1.869-2.857l2.148-.537q.306 1.189 1.16 1.783.863.594 2.253.594 1.582 0 2.512-.671.94-.68.94-1.63 0-.766-.537-1.284-.537-.528-1.649-.787l-2.455-.575q-2.024-.48-2.972-1.486-.94-1.017-.94-2.541 0-1.246.7-2.205.71-.959 1.927-1.506 1.227-.546 2.781-.546 2.186 0 3.432.959 1.257.959 1.784 2.531m10.079-3.298v1.917h-7.632v-1.917zm-5.408-3.529h2.263v14.037q0 .959.278 1.438.288.471.729.633.45.154.949.154.374 0 .614-.039l.383-.076.461 2.032a5 5 0 0 1-.643.173 4.7 4.7 0 0 1-1.045.096 4.55 4.55 0 0 1-1.879-.413 3.7 3.7 0 0 1-1.515-1.256q-.594-.844-.595-2.128zM676.124 102.364V122h-2.378v-17.143h-.115l-4.794 3.183v-2.416l4.909-3.26zm19.262 19.943q-2.072 0-3.567-.978t-2.301-2.694q-.805-1.717-.805-3.922 0-2.244.824-3.96.834-1.725 2.321-2.694 1.495-.978 3.49-.978 1.553 0 2.799.575a5.4 5.4 0 0 1 2.043 1.611q.795 1.035.987 2.416h-2.263q-.259-1.006-1.15-1.783-.882-.786-2.378-.786-1.323 0-2.32.69-.988.68-1.544 1.927-.546 1.237-.547 2.905 0 1.707.537 2.973.547 1.265 1.535 1.965.996.7 2.339.7a4 4 0 0 0 1.601-.307q.72-.306 1.218-.882.499-.575.709-1.38h2.263a5.25 5.25 0 0 1-.949 2.349q-.748 1.035-1.985 1.649-1.227.603-2.857.604m15.082 0q-1.994 0-3.5-.949-1.496-.95-2.339-2.656-.834-1.707-.834-3.989 0-2.301.834-4.017.843-1.717 2.339-2.666 1.506-.95 3.5-.949 1.995 0 3.49.949 1.505.949 2.34 2.666.843 1.716.843 4.017 0 2.282-.843 3.989-.835 1.706-2.34 2.656-1.495.948-3.49.949m0-2.033q1.515 0 2.493-.776.978-.777 1.448-2.043.47-1.265.47-2.742 0-1.476-.47-2.752t-1.448-2.061q-.978-.786-2.493-.786t-2.493.786-1.448 2.061a7.9 7.9 0 0 0-.469 2.752q0 1.477.469 2.742.47 1.266 1.448 2.043.978.776 2.493.776M720.595 122v-14.727h2.187v2.301h.191q.46-1.18 1.486-1.831 1.026-.662 2.465-.662 1.457 0 2.425.662.978.651 1.525 1.831h.153a4.3 4.3 0 0 1 1.697-1.812q1.132-.681 2.714-.681 1.976 0 3.231 1.237 1.256 1.227 1.256 3.825V122h-2.263v-9.857q0-1.63-.891-2.329-.892-.7-2.1-.7-1.554 0-2.407.939-.853.93-.853 2.359V122h-2.301v-10.087q0-1.255-.815-2.023-.816-.776-2.1-.776-.882 0-1.649.469a3.56 3.56 0 0 0-1.228 1.304q-.46.825-.46 1.908V122zm29.642.307q-2.129 0-3.672-.94-1.534-.95-2.369-2.646-.824-1.707-.824-3.97t.824-3.988q.835-1.735 2.321-2.704 1.495-.978 3.49-.978 1.15 0 2.272.383a5.6 5.6 0 0 1 2.042 1.247q.921.853 1.467 2.263.547 1.409.547 3.471v.958h-11.352v-1.956h9.051q0-1.246-.499-2.224a3.75 3.75 0 0 0-1.4-1.544q-.9-.565-2.128-.565-1.351 0-2.34.671a4.4 4.4 0 0 0-1.505 1.726 5.06 5.06 0 0 0-.527 2.282v1.304q0 1.668.575 2.828.585 1.15 1.62 1.755 1.036.594 2.407.594.891 0 1.611-.249a3.45 3.45 0 0 0 1.256-.767q.527-.518.815-1.285l2.186.614a4.86 4.86 0 0 1-1.16 1.956q-.816.833-2.014 1.304-1.198.46-2.694.46m19.972-11.736-2.033.575a3.8 3.8 0 0 0-.565-.987 2.75 2.75 0 0 0-.998-.806q-.633-.316-1.62-.316-1.351 0-2.253.623-.892.613-.892 1.563 0 .844.614 1.333.613.488 1.917.815l2.186.537q1.975.479 2.944 1.467.969.978.968 2.521 0 1.266-.728 2.263-.72.997-2.014 1.573-1.294.575-3.01.575-2.254 0-3.73-.978-1.477-.979-1.87-2.857l2.148-.537q.306 1.189 1.16 1.783.863.594 2.253.594 1.582 0 2.512-.671.94-.68.94-1.63 0-.766-.537-1.284-.537-.528-1.649-.787l-2.455-.575q-2.022-.48-2.972-1.486-.94-1.017-.94-2.541 0-1.246.7-2.205.71-.959 1.927-1.506 1.228-.546 2.781-.546 2.186 0 3.433.959 1.255.959 1.783 2.531m-84.995 33-2.032.575a3.8 3.8 0 0 0-.566-.987 2.75 2.75 0 0 0-.997-.806q-.633-.316-1.621-.316-1.351 0-2.253.623-.892.614-.892 1.563 0 .844.614 1.333.613.489 1.918.815l2.186.537q1.976.478 2.943 1.467.969.978.969 2.521 0 1.266-.729 2.263-.72.997-2.013 1.573-1.295.575-3.011.575-2.253 0-3.73-.978t-1.87-2.857l2.148-.537q.307 1.189 1.16 1.783.864.594 2.254.594 1.582 0 2.512-.671.939-.68.939-1.63 0-.766-.537-1.284-.536-.528-1.649-.787l-2.454-.575q-2.024-.48-2.973-1.486-.939-1.017-.939-2.541 0-1.246.7-2.205.71-.959 1.927-1.506 1.227-.546 2.78-.546 2.187 0 3.433.959 1.256.959 1.783 2.531m9.85 11.736q-2.129 0-3.673-.94-1.533-.95-2.368-2.646-.824-1.707-.824-3.97t.824-3.988q.835-1.735 2.32-2.704 1.497-.978 3.49-.978 1.151 0 2.273.383a5.6 5.6 0 0 1 2.042 1.247q.921.853 1.467 2.263t.547 3.471v.958h-11.353v-1.956h9.051q0-1.246-.498-2.224a3.76 3.76 0 0 0-1.4-1.544q-.901-.565-2.129-.565-1.352 0-2.339.671a4.4 4.4 0 0 0-1.505 1.726 5.06 5.06 0 0 0-.528 2.282v1.304q0 1.668.576 2.828.585 1.15 1.62 1.755 1.036.594 2.407.594.891 0 1.61-.249a3.44 3.44 0 0 0 1.256-.767q.528-.518.815-1.285l2.187.614a4.86 4.86 0 0 1-1.161 1.956q-.814.834-2.013 1.304-1.198.46-2.694.46m15.523 0q-2.072 0-3.567-.978t-2.301-2.694-.806-3.922q0-2.244.825-3.96.835-1.725 2.32-2.694 1.496-.978 3.49-.978 1.554 0 2.8.575a5.36 5.36 0 0 1 2.042 1.611q.796 1.036.988 2.416h-2.263q-.259-1.006-1.15-1.783-.883-.786-2.378-.786-1.323 0-2.321.69-.988.68-1.543 1.927-.547 1.237-.547 2.905 0 1.707.537 2.973.546 1.265 1.534 1.965.998.7 2.34.7.881 0 1.601-.307a3.3 3.3 0 0 0 1.218-.882q.498-.575.709-1.38h2.263a5.25 5.25 0 0 1-.949 2.349q-.748 1.035-1.985 1.649-1.227.603-2.857.604m15.082 0q-1.994 0-3.5-.949-1.496-.95-2.339-2.656-.835-1.707-.835-3.989 0-2.301.835-4.017.843-1.717 2.339-2.666 1.506-.95 3.5-.949 1.994 0 3.49.949 1.505.949 2.339 2.666.844 1.716.844 4.017 0 2.282-.844 3.989-.834 1.706-2.339 2.656-1.496.949-3.49.949m0-2.033q1.515 0 2.493-.776.978-.777 1.447-2.043.47-1.265.47-2.742t-.47-2.752-1.447-2.061-2.493-.786-2.493.786-1.448 2.061a7.9 7.9 0 0 0-.47 2.752q0 1.477.47 2.742.47 1.266 1.448 2.043.978.776 2.493.776m12.39-7.133V155h-2.263v-14.727h2.186v2.301h.192a4.2 4.2 0 0 1 1.572-1.803q1.055-.69 2.723-.69 1.497 0 2.618.614 1.122.603 1.745 1.841.623 1.227.623 3.106V155h-2.263v-9.205q0-1.736-.901-2.703-.901-.978-2.474-.978-1.083 0-1.936.469a3.37 3.37 0 0 0-1.333 1.372q-.489.9-.489 2.186m19.092 9.166q-1.841 0-3.25-.93-1.41-.94-2.205-2.647-.796-1.716-.796-4.055 0-2.32.796-4.027.795-1.707 2.214-2.637t3.279-.93q1.439 0 2.273.479.844.471 1.285 1.074.45.596.7.978h.191v-7.248h2.263V155h-2.186v-2.263h-.268q-.25.403-.71 1.017-.46.603-1.313 1.083-.854.47-2.273.47m.307-2.033q1.362 0 2.301-.709.94-.72 1.429-1.985.489-1.275.489-2.944 0-1.648-.48-2.886-.479-1.246-1.419-1.936-.94-.7-2.32-.7-1.438 0-2.397.738-.95.728-1.429 1.985-.47 1.246-.469 2.799 0 1.573.479 2.858.489 1.275 1.438 2.032.959.748 2.378.748M850.535 122.268q-1.899 0-3.385-.652-1.476-.651-2.349-1.812-.863-1.169-.939-2.713h2.416q.076.95.652 1.639.575.681 1.505 1.055t2.061.374q1.266 0 2.244-.441t1.534-1.227.556-1.822q0-1.083-.537-1.908-.537-.834-1.572-1.304t-2.531-.47h-1.573v-2.109h1.573q1.169 0 2.051-.422a3.3 3.3 0 0 0 1.391-1.189q.508-.766.508-1.803 0-.996-.441-1.735a3 3 0 0 0-1.247-1.151q-.795-.411-1.879-.412-1.016 0-1.917.374a3.6 3.6 0 0 0-1.458 1.064q-.566.691-.613 1.669h-2.302q.058-1.544.93-2.704.873-1.17 2.282-1.822 1.419-.652 3.117-.652 1.821 0 3.125.738 1.305.73 2.004 1.928.7 1.199.7 2.588 0 1.659-.872 2.829-.864 1.17-2.35 1.62v.154q1.861.306 2.906 1.582 1.044 1.265 1.045 3.135 0 1.602-.873 2.876-.862 1.266-2.358 1.995-1.496.728-3.404.728m24.171.039q-2.07 0-3.566-.978-1.497-.978-2.302-2.694-.805-1.717-.805-3.922 0-2.244.825-3.96.834-1.725 2.32-2.694 1.495-.978 3.49-.978 1.553 0 2.8.575a5.4 5.4 0 0 1 2.042 1.611q.795 1.035.988 2.416h-2.263q-.259-1.006-1.151-1.783-.882-.786-2.378-.786-1.323 0-2.32.69-.987.68-1.544 1.927-.546 1.237-.546 2.905 0 1.707.537 2.973.546 1.265 1.534 1.965.997.7 2.339.7.882 0 1.602-.307a3.3 3.3 0 0 0 1.217-.882q.499-.575.71-1.38h2.263a5.25 5.25 0 0 1-.95 2.349q-.747 1.035-1.984 1.649-1.228.603-2.858.604m15.082 0q-1.994 0-3.499-.949-1.495-.95-2.34-2.656-.834-1.707-.834-3.989 0-2.301.834-4.017.845-1.717 2.34-2.666 1.505-.95 3.499-.949 1.995 0 3.49.949 1.506.949 2.34 2.666.844 1.716.844 4.017 0 2.282-.844 3.989-.834 1.706-2.34 2.656-1.495.948-3.49.949m0-2.033q1.515 0 2.493-.776.978-.777 1.448-2.043.47-1.265.47-2.742 0-1.476-.47-2.752t-1.448-2.061q-.978-.786-2.493-.786t-2.493.786-1.447 2.061a7.9 7.9 0 0 0-.47 2.752q0 1.477.47 2.742.47 1.266 1.447 2.043.978.776 2.493.776M899.916 122v-14.727h2.186v2.301h.192a3.7 3.7 0 0 1 1.486-1.831q1.026-.662 2.464-.662 1.457 0 2.426.662.978.651 1.524 1.831h.154a4.3 4.3 0 0 1 1.697-1.812q1.13-.681 2.713-.681 1.976 0 3.231 1.237 1.256 1.227 1.256 3.825V122h-2.262v-9.857q0-1.63-.892-2.329-.893-.7-2.1-.7-1.553 0-2.407.939-.852.93-.853 2.359V122h-2.301v-10.087q0-1.255-.815-2.023-.814-.776-2.1-.776-.882 0-1.649.469a3.55 3.55 0 0 0-1.227 1.304q-.46.825-.46 1.908V122zm29.641.307q-2.128 0-3.672-.94-1.534-.95-2.368-2.646-.825-1.707-.825-3.97t.825-3.988q.834-1.735 2.32-2.704 1.496-.978 3.49-.978 1.15 0 2.273.383a5.65 5.65 0 0 1 2.042 1.247q.92.853 1.467 2.263.546 1.409.546 3.471v.958h-11.352v-1.956h9.051q0-1.246-.498-2.224a3.76 3.76 0 0 0-1.4-1.544q-.902-.565-2.129-.565-1.352 0-2.339.671a4.4 4.4 0 0 0-1.506 1.726 5.1 5.1 0 0 0-.527 2.282v1.304q0 1.668.575 2.828.585 1.15 1.621 1.755 1.035.594 2.406.594.892 0 1.611-.249a3.44 3.44 0 0 0 1.256-.767q.528-.518.815-1.285l2.186.614a4.86 4.86 0 0 1-1.16 1.956q-.814.833-2.013 1.304-1.199.46-2.695.46m19.972-11.736-2.032.575a3.8 3.8 0 0 0-.566-.987 2.75 2.75 0 0 0-.997-.806q-.633-.316-1.621-.316-1.352 0-2.253.623-.891.613-.892 1.563 0 .844.614 1.333.613.488 1.918.815l2.186.537q1.976.479 2.943 1.467.969.978.969 2.521 0 1.266-.729 2.263-.719.997-2.014 1.573-1.293.575-3.01.575-2.254 0-3.73-.978-1.477-.979-1.87-2.857l2.148-.537q.307 1.189 1.16 1.783.864.594 2.253.594 1.583 0 2.513-.671.939-.68.939-1.63 0-.766-.537-1.284-.536-.528-1.649-.787l-2.454-.575q-2.024-.48-2.973-1.486-.939-1.017-.939-2.541 0-1.246.7-2.205.71-.959 1.927-1.506 1.227-.546 2.78-.546 2.187 0 3.433.959 1.256.959 1.783 2.531m-71.463 24.793V155h-2.263v-19.636zm8.478 19.981q-1.4 0-2.541-.527a4.36 4.36 0 0 1-1.812-1.544q-.67-1.016-.671-2.454 0-1.266.498-2.052a3.5 3.5 0 0 1 1.333-1.247 7 7 0 0 1 1.841-.671 22 22 0 0 1 2.042-.364 90 90 0 0 1 2.177-.259q.843-.096 1.227-.316.393-.221.393-.768v-.076q0-1.419-.776-2.205-.768-.787-2.33-.787-1.621 0-2.541.71t-1.295 1.515l-2.147-.767q.575-1.343 1.534-2.091a5.7 5.7 0 0 1 2.109-1.054 8.7 8.7 0 0 1 2.263-.307 9 9 0 0 1 1.63.173q.93.162 1.793.68.872.518 1.448 1.563.575 1.045.575 2.8V155h-2.263v-1.994h-.115q-.23.478-.767 1.026-.537.546-1.429.93-.89.383-2.176.383m.345-2.033q1.342 0 2.263-.527.93-.527 1.4-1.361a3.5 3.5 0 0 0 .479-1.755v-2.071q-.144.173-.633.316-.479.135-1.112.24-.623.096-1.218.173-.584.067-.949.115a8.6 8.6 0 0 0-1.649.374q-.757.249-1.227.757-.46.499-.46 1.362 0 1.179.872 1.783.882.594 2.234.594m20.967-9.741-2.033.575a3.8 3.8 0 0 0-.565-.987 2.75 2.75 0 0 0-.998-.806q-.633-.316-1.62-.316-1.351 0-2.253.623-.892.614-.892 1.563 0 .844.614 1.333t1.917.815l2.186.537q1.975.478 2.944 1.467.969.978.968 2.521 0 1.266-.728 2.263-.72.997-2.014 1.573-1.294.575-3.011.575-2.253 0-3.729-.978-1.477-.978-1.87-2.857l2.148-.537q.306 1.189 1.16 1.783.863.594 2.253.594 1.582 0 2.512-.671.94-.68.94-1.63 0-.766-.537-1.284-.537-.528-1.649-.787l-2.455-.575q-2.023-.48-2.972-1.486-.94-1.017-.94-2.541 0-1.246.7-2.205.71-.959 1.927-1.506 1.228-.546 2.781-.546 2.186 0 3.432.959 1.257.959 1.784 2.531m10.079-3.298v1.917h-7.632v-1.917zm-5.407-3.529h2.262v14.037q0 .959.278 1.438.288.471.729.633.451.154.949.154.374 0 .614-.039l.384-.076.46 2.032a5 5 0 0 1-.643.173 4.7 4.7 0 0 1-1.045.096 4.55 4.55 0 0 1-1.879-.413 3.7 3.7 0 0 1-1.515-1.256q-.594-.844-.594-2.128zM5.928 1218v-23.27h13.954v2.5H8.746v7.86h10.09v2.5H8.747V1218zm18.23 0v-17.45h2.59v2.63h.182q.478-1.29 1.728-2.1t2.818-.81c.197 0 .443.01.739.01.295.01.518.02.67.04v2.73c-.091-.03-.3-.06-.625-.11a6.5 6.5 0 0 0-1.011-.08q-1.274 0-2.273.54c-.66.35-1.182.83-1.568 1.45q-.57.93-.569 2.1V1218zm17.042.41q-1.66 0-3.011-.63a5.1 5.1 0 0 1-2.148-1.83c-.53-.8-.795-1.77-.795-2.9 0-1 .197-1.82.59-2.44q.592-.945 1.58-1.47c.66-.36 1.387-.62 2.182-.8.803-.18 1.61-.32 2.42-.43 1.061-.14 1.92-.24 2.58-.31.667-.07 1.151-.2 1.455-.37.31-.18.466-.48.466-.91v-.09c0-1.12-.307-2-.921-2.62q-.909-.93-2.761-.93-1.92 0-3.012.84-1.09.84-1.534 1.8l-2.545-.91c.454-1.06 1.06-1.89 1.818-2.48a6.9 6.9 0 0 1 2.5-1.25q1.363-.36 2.682-.36c.56 0 1.204.07 1.932.2q1.102.195 2.125.81c.689.41 1.26 1.03 1.716 1.85.454.83.681 1.93.681 3.32v11.5H46.52v-2.36h-.137c-.182.38-.485.78-.909 1.21s-.989.8-1.693 1.1c-.705.31-1.565.46-2.58.46m.41-2.41c1.06 0 1.954-.21 2.681-.62q1.102-.63 1.66-1.62c.378-.66.568-1.35.568-2.08v-2.45c-.114.13-.364.26-.75.37-.38.11-.819.2-1.319.29-.492.07-.973.14-1.443.2-.462.05-.837.1-1.125.14-.697.09-1.348.24-1.954.44q-.898.3-1.455.9c-.364.39-.545.93-.545 1.61 0 .93.344 1.64 1.034 2.12.697.47 1.58.7 2.647.7m12.485 2v-17.45h2.591v2.72h.227c.364-.93.951-1.65 1.762-2.17q1.216-.78 2.92-.78 1.728 0 2.875.78c.773.52 1.375 1.24 1.807 2.17h.182c.447-.9 1.117-1.61 2.011-2.15.894-.53 1.966-.8 3.216-.8 1.56 0 2.837.49 3.83 1.46s1.488 2.49 1.488 4.54V1218h-2.682v-11.68q0-1.935-1.056-2.76c-.705-.56-1.535-.83-2.489-.83q-1.84 0-2.852 1.11c-.674.74-1.012 1.67-1.012 2.8V1218h-2.727v-11.95q0-1.5-.966-2.4c-.644-.62-1.473-.92-2.489-.92a3.7 3.7 0 0 0-1.954.55c-.599.38-1.083.89-1.455 1.55-.363.65-.545 1.4-.545 2.26V1218zm35.13.36q-2.522 0-4.351-1.11c-1.212-.75-2.148-1.8-2.807-3.14-.652-1.34-.977-2.91-.977-4.7s.325-3.36.977-4.73c.659-1.37 1.576-2.44 2.75-3.2 1.182-.78 2.56-1.16 4.136-1.16q1.364 0 2.693.45c.887.31 1.694.8 2.42 1.48.728.67 1.308 1.57 1.74 2.68.431 1.12.647 2.49.647 4.12v1.13H83v-2.32h10.727c0-.98-.197-1.86-.591-2.63a4.37 4.37 0 0 0-1.66-1.83c-.711-.45-1.552-.67-2.522-.67-1.068 0-1.992.26-2.773.79a5.3 5.3 0 0 0-1.784 2.05 6 6 0 0 0-.625 2.7v1.55c0 1.32.228 2.43.682 3.35.462.91 1.102 1.6 1.92 2.08.819.47 1.77.7 2.853.7.704 0 1.34-.09 1.909-.29a4.2 4.2 0 0 0 1.489-.91c.416-.41.738-.92.966-1.52l2.59.72a5.7 5.7 0 0 1-1.375 2.32c-.644.66-1.439 1.18-2.386 1.55q-1.42.54-3.193.54m20.671-.36v-23.27h8.137q2.432 0 4.011.84c1.053.55 1.837 1.3 2.352 2.24.515.93.773 1.96.773 3.1 0 1-.178 1.82-.534 2.48a4.2 4.2 0 0 1-1.386 1.54 6.2 6.2 0 0 1-1.853.84v.23q1.068.075 2.148.75c.72.45 1.322 1.11 1.807 1.95q.727 1.275.727 3.12 0 1.74-.795 3.15c-.531.93-1.368 1.67-2.512 2.21-1.144.55-2.632.82-4.466.82zm2.818-2.5h5.591c1.841 0 3.148-.36 3.921-1.07q1.17-1.08 1.17-2.61c0-.79-.2-1.52-.602-2.18q-.602-1.02-1.716-1.62c-.742-.41-1.621-.61-2.636-.61h-5.728zm0-10.55h5.228c.848 0 1.613-.16 2.295-.5.69-.33 1.235-.8 1.637-1.4.409-.61.613-1.32.613-2.14 0-1.02-.356-1.89-1.068-2.6q-1.068-1.08-3.386-1.08h-5.319zM5.928 535v-23.273h13.954v2.5H8.746v7.864h10.09v2.5H8.747V535zm18.23 0v-17.455h2.59v2.637h.182q.478-1.296 1.728-2.102 1.25-.807 2.818-.807.295 0 .739.011.442.012.67.034v2.727q-.137-.033-.625-.102a6 6 0 0 0-1.011-.079q-1.274 0-2.273.534a4 4 0 0 0-1.568 1.454q-.57.921-.569 2.103V535zm17.042.409q-1.66 0-3.011-.625a5.17 5.17 0 0 1-2.148-1.829q-.795-1.204-.795-2.91 0-1.5.59-2.431a4.17 4.17 0 0 1 1.58-1.478 8.3 8.3 0 0 1 2.182-.795q1.205-.273 2.42-.432 1.59-.205 2.58-.307 1-.113 1.455-.375.466-.261.466-.909v-.091q0-1.682-.921-2.613-.909-.933-2.761-.932-1.92 0-3.012.841-1.09.84-1.534 1.795l-2.545-.909q.681-1.591 1.818-2.477a6.8 6.8 0 0 1 2.5-1.25q1.363-.364 2.682-.364.84 0 1.932.205a6.2 6.2 0 0 1 2.125.807q1.033.613 1.716 1.852.681 1.239.681 3.318V535H46.52v-2.364h-.137q-.273.568-.909 1.216t-1.693 1.103q-1.057.454-2.58.454m.41-2.409q1.59 0 2.681-.625 1.102-.626 1.66-1.614a4.1 4.1 0 0 0 .568-2.079v-2.455q-.171.205-.75.375-.57.16-1.319.284-.738.114-1.443.205a70 70 0 0 0-1.125.136q-1.045.137-1.954.443-.898.296-1.455.898-.546.591-.545 1.614 0 1.398 1.034 2.113 1.046.705 2.647.705m12.485 2v-17.455h2.591v2.728h.227q.546-1.398 1.762-2.171 1.216-.784 2.92-.784 1.728 0 2.875.784 1.16.773 1.807 2.171h.182a5.1 5.1 0 0 1 2.011-2.148q1.341-.807 3.216-.807 2.34 0 3.83 1.466 1.488 1.455 1.488 4.534V535h-2.682v-11.682q0-1.932-1.056-2.761-1.058-.83-2.489-.83-1.84 0-2.852 1.114-1.012 1.103-1.012 2.795V535h-2.727v-11.955q0-1.488-.966-2.397-.965-.921-2.489-.921-1.044 0-1.954.557a4.2 4.2 0 0 0-1.455 1.546q-.545.977-.545 2.261V535zm35.13.364q-2.522 0-4.351-1.114-1.818-1.125-2.807-3.136-.978-2.023-.977-4.705 0-2.682.977-4.727.989-2.057 2.75-3.205 1.773-1.159 4.136-1.159 1.364 0 2.693.455a6.7 6.7 0 0 1 2.42 1.477q1.092 1.011 1.74 2.682.647 1.67.647 4.113v1.137H83v-2.318h10.727q0-1.477-.591-2.637a4.46 4.46 0 0 0-1.66-1.829q-1.067-.67-2.522-.671-1.602 0-2.773.796a5.2 5.2 0 0 0-1.784 2.045 6 6 0 0 0-.625 2.705v1.545q0 1.977.682 3.352.693 1.365 1.92 2.08 1.229.705 2.853.705 1.056 0 1.909-.296a4.1 4.1 0 0 0 1.489-.909q.624-.614.966-1.523l2.59.728a5.75 5.75 0 0 1-1.375 2.318q-.966.989-2.386 1.545-1.42.546-3.193.546m20.671-.364v-23.273h8.137q2.432 0 4.011.841 1.58.83 2.352 2.239.773 1.398.773 3.102 0 1.5-.534 2.477a4.16 4.16 0 0 1-1.386 1.546 6.3 6.3 0 0 1-1.853.841V523q1.068.067 2.148.75 1.08.682 1.807 1.955.727 1.272.727 3.113 0 1.75-.795 3.148-.796 1.397-2.512 2.216-1.716.818-4.466.818zm2.818-2.5h5.591q2.761 0 3.921-1.068 1.17-1.08 1.17-2.614 0-1.182-.602-2.182-.602-1.011-1.716-1.613-1.113-.614-2.636-.614h-5.728zm0-10.545h5.228q1.272 0 2.295-.5a4 4 0 0 0 1.637-1.41q.613-.909.613-2.136 0-1.534-1.068-2.602-1.068-1.08-3.386-1.08h-5.319zM4.693 1306v-23.27h13.955v2.5H7.51v7.86h10.091v2.5H7.512V1306zm18.23 0v-17.45h2.591v2.63h.182q.477-1.29 1.727-2.1t2.819-.81c.196 0 .443.01.738.01.296.01.52.02.67.04v2.73c-.09-.03-.299-.06-.624-.11a6.5 6.5 0 0 0-1.012-.08q-1.272 0-2.273.54c-.659.35-1.181.83-1.568 1.45q-.567.93-.568 2.1V1306zm17.043.41q-1.66 0-3.011-.63a5.1 5.1 0 0 1-2.148-1.83c-.53-.8-.796-1.77-.796-2.9 0-1 .197-1.82.591-2.44q.59-.945 1.58-1.47c.659-.36 1.386-.62 2.182-.8.803-.18 1.61-.32 2.42-.43 1.06-.14 1.92-.24 2.58-.31.666-.07 1.151-.2 1.454-.37.31-.18.466-.48.466-.91v-.09c0-1.12-.307-2-.92-2.62q-.91-.93-2.762-.93-1.92 0-3.011.84t-1.534 1.8l-2.546-.91c.455-1.06 1.061-1.89 1.819-2.48a6.9 6.9 0 0 1 2.5-1.25q1.364-.36 2.681-.36c.561 0 1.205.07 1.932.2q1.102.195 2.125.81c.69.41 1.262 1.03 1.716 1.85.455.83.682 1.93.682 3.32v11.5h-2.682v-2.36h-.136c-.182.38-.485.78-.91 1.21-.424.43-.988.8-1.693 1.1-.704.31-1.564.46-2.58.46m.409-2.41c1.06 0 1.955-.21 2.682-.62q1.102-.63 1.659-1.62c.379-.66.568-1.35.568-2.08v-2.45c-.114.13-.364.26-.75.37-.379.11-.818.2-1.318.29-.492.07-.974.14-1.443.2-.462.05-.837.1-1.125.14-.697.09-1.349.24-1.955.44q-.897.3-1.454.9c-.364.39-.546.93-.546 1.61 0 .93.345 1.64 1.034 2.12.697.47 1.58.7 2.648.7m12.486 2v-17.45h2.59v2.72h.228c.364-.93.95-1.65 1.761-2.17q1.215-.78 2.92-.78 1.728 0 2.876.78c.773.52 1.375 1.24 1.807 2.17h.181c.447-.9 1.118-1.61 2.012-2.15.894-.53 1.966-.8 3.216-.8 1.56 0 2.837.49 3.83 1.46s1.488 2.49 1.488 4.54V1306h-2.682v-11.68q0-1.935-1.057-2.76c-.704-.56-1.534-.83-2.488-.83q-1.841 0-2.853 1.11c-.674.74-1.011 1.67-1.011 2.8V1306h-2.727v-11.95q0-1.5-.966-2.4c-.644-.62-1.474-.92-2.489-.92a3.7 3.7 0 0 0-1.954.55 4.3 4.3 0 0 0-1.455 1.55c-.364.65-.545 1.4-.545 2.26V1306zm35.13.36q-2.522 0-4.352-1.11c-1.212-.75-2.147-1.8-2.807-3.14-.651-1.34-.977-2.91-.977-4.7s.326-3.36.977-4.73c.66-1.37 1.576-2.44 2.75-3.2 1.182-.78 2.561-1.16 4.137-1.16q1.364 0 2.693.45c.886.31 1.693.8 2.42 1.48.728.67 1.307 1.57 1.739 2.68.432 1.12.648 2.49.648 4.12v1.13H81.764v-2.32h10.728c0-.98-.198-1.86-.591-2.63a4.37 4.37 0 0 0-1.66-1.83c-.712-.45-1.553-.67-2.522-.67-1.068 0-1.993.26-2.773.79a5.3 5.3 0 0 0-1.784 2.05 6 6 0 0 0-.625 2.7v1.55c0 1.32.227 2.43.682 3.35.462.91 1.102 1.6 1.92 2.08.818.47 1.77.7 2.853.7.704 0 1.34-.09 1.909-.29a4.2 4.2 0 0 0 1.488-.91c.417-.41.739-.92.966-1.52l2.591.72a5.7 5.7 0 0 1-1.375 2.32c-.644.66-1.44 1.18-2.386 1.55q-1.421.54-3.193.54M127.39 1290h-2.818a5.9 5.9 0 0 0-.875-2.14 5.8 5.8 0 0 0-1.5-1.54 6.4 6.4 0 0 0-1.943-.96 7.8 7.8 0 0 0-2.227-.31c-1.41 0-2.686.35-3.83 1.06q-1.704 1.08-2.716 3.15-1 2.085-1 5.1c0 2.02.333 3.72 1 5.11.674 1.38 1.58 2.43 2.716 3.14 1.144.72 2.42 1.07 3.83 1.07.772 0 1.515-.1 2.227-.32.712-.21 1.36-.52 1.943-.94a5.8 5.8 0 0 0 1.5-1.56q.625-.93.875-2.13h2.818c-.212 1.19-.598 2.25-1.159 3.19a8.7 8.7 0 0 1-2.091 2.4 9.2 9.2 0 0 1-2.807 1.49q-1.545.51-3.306.51c-1.985 0-3.75-.49-5.296-1.46-1.545-.97-2.761-2.34-3.648-4.13-.886-1.79-1.329-3.91-1.329-6.37q0-3.675 1.329-6.36 1.33-2.685 3.648-4.14c1.546-.97 3.311-1.45 5.296-1.45q1.761 0 3.306.51 1.557.51 2.807 1.5a8.5 8.5 0 0 1 2.091 2.39c.561.93.947 1.99 1.159 3.19M4.693 623v-23.273h13.955v2.5H7.51v7.864h10.091v2.5H7.512V623zm18.23 0v-17.455h2.591v2.637h.182q.477-1.296 1.727-2.102 1.25-.807 2.819-.807.295 0 .738.011.444.012.67.034v2.727q-.136-.033-.624-.102a6 6 0 0 0-1.012-.079q-1.272 0-2.273.534a4 4 0 0 0-1.568 1.454q-.567.921-.568 2.103V623zm17.043.409q-1.66 0-3.011-.625a5.17 5.17 0 0 1-2.148-1.829q-.796-1.204-.796-2.91 0-1.5.591-2.431a4.17 4.17 0 0 1 1.58-1.478 8.3 8.3 0 0 1 2.182-.795q1.205-.273 2.42-.432 1.59-.205 2.58-.307 1-.113 1.454-.375.466-.261.466-.909v-.091q0-1.682-.92-2.613-.91-.933-2.762-.932-1.92 0-3.011.841-1.091.84-1.534 1.795l-2.546-.909q.682-1.591 1.819-2.477a6.8 6.8 0 0 1 2.5-1.25q1.364-.364 2.681-.364.842 0 1.932.205a6.2 6.2 0 0 1 2.125.807q1.035.613 1.716 1.852.682 1.239.682 3.318V623h-2.682v-2.364h-.136q-.273.568-.91 1.216-.636.648-1.693 1.103t-2.58.454m.409-2.409q1.59 0 2.682-.625 1.102-.626 1.659-1.614a4.1 4.1 0 0 0 .568-2.079v-2.455q-.171.205-.75.375-.568.16-1.318.284-.739.114-1.443.205a70 70 0 0 0-1.125.136q-1.046.137-1.955.443-.897.296-1.454.898-.546.591-.546 1.614 0 1.398 1.034 2.113 1.046.705 2.648.705m12.486 2v-17.455h2.59v2.728h.228q.545-1.398 1.761-2.171 1.215-.784 2.92-.784 1.728 0 2.876.784 1.16.773 1.807 2.171h.181a5.1 5.1 0 0 1 2.012-2.148q1.341-.807 3.216-.807 2.34 0 3.83 1.466 1.488 1.455 1.488 4.534V623h-2.682v-11.682q0-1.932-1.057-2.761t-2.488-.83q-1.841 0-2.853 1.114-1.011 1.103-1.011 2.795V623h-2.727v-11.955q0-1.488-.966-2.397-.966-.921-2.489-.921-1.045 0-1.954.557a4.2 4.2 0 0 0-1.455 1.546q-.545.977-.545 2.261V623zm35.13.364q-2.522 0-4.352-1.114-1.818-1.125-2.807-3.136-.977-2.023-.977-4.705t.977-4.727q.99-2.057 2.75-3.205 1.773-1.159 4.137-1.159 1.364 0 2.693.455a6.7 6.7 0 0 1 2.42 1.477q1.091 1.011 1.739 2.682.648 1.67.648 4.113v1.137H81.764v-2.318h10.728q0-1.477-.591-2.637a4.46 4.46 0 0 0-1.66-1.829q-1.068-.67-2.522-.671-1.602 0-2.773.796a5.2 5.2 0 0 0-1.784 2.045 6 6 0 0 0-.625 2.705v1.545q0 1.977.682 3.352.693 1.365 1.92 2.08 1.228.705 2.853.705 1.056 0 1.909-.296a4.1 4.1 0 0 0 1.488-.909q.626-.614.966-1.523l2.591.728a5.75 5.75 0 0 1-1.375 2.318q-.966.989-2.386 1.545-1.421.546-3.193.546M127.39 607h-2.818q-.25-1.216-.875-2.136a5.8 5.8 0 0 0-1.5-1.546 6.4 6.4 0 0 0-1.943-.954 7.8 7.8 0 0 0-2.227-.319q-2.115 0-3.83 1.069-1.704 1.068-2.716 3.147-1 2.08-1 5.103t1 5.102q1.011 2.08 2.716 3.148 1.715 1.068 3.83 1.068 1.159 0 2.227-.318a6.5 6.5 0 0 0 1.943-.944 6 6 0 0 0 1.5-1.556 6 6 0 0 0 .875-2.137h2.818q-.318 1.785-1.159 3.193a8.7 8.7 0 0 1-2.091 2.398 9.2 9.2 0 0 1-2.807 1.489q-1.545.511-3.306.511-2.977 0-5.296-1.454-2.317-1.455-3.648-4.137-1.329-2.682-1.329-6.363t1.329-6.364q1.33-2.682 3.648-4.136t5.296-1.455q1.761 0 3.306.511a9 9 0 0 1 2.807 1.5 8.6 8.6 0 0 1 2.091 2.387q.841 1.398 1.159 3.193"/><path fill="#717171" d="M280.999 785h-2.819q-.25-1.216-.875-2.136a5.8 5.8 0 0 0-1.5-1.546 6.4 6.4 0 0 0-1.943-.954 7.8 7.8 0 0 0-2.227-.319q-2.114 0-3.83 1.069-1.704 1.068-2.716 3.147-1 2.08-1 5.103t1 5.102q1.012 2.08 2.716 3.148 1.716 1.068 3.83 1.068a7.8 7.8 0 0 0 2.227-.318 6.5 6.5 0 0 0 1.943-.944 6 6 0 0 0 1.5-1.556 6 6 0 0 0 .875-2.137h2.819q-.319 1.785-1.16 3.193a8.7 8.7 0 0 1-2.09 2.398 9.2 9.2 0 0 1-2.807 1.489 10.5 10.5 0 0 1-3.307.511q-2.977 0-5.296-1.454-2.318-1.455-3.647-4.137-1.33-2.682-1.33-6.363t1.33-6.364q1.33-2.682 3.647-4.136 2.319-1.455 5.296-1.455 1.76 0 3.307.511a9 9 0 0 1 2.807 1.5 8.6 8.6 0 0 1 2.09 2.387q.841 1.398 1.16 3.193m15.19 8.864v-10.319h2.682V801h-2.682v-2.955h-.182q-.613 1.33-1.909 2.262-1.296.92-3.273.92-1.636 0-2.909-.716-1.272-.727-2-2.181-.727-1.467-.727-3.694v-11.091h2.682v10.91q0 1.908 1.068 3.045 1.08 1.137 2.75 1.136 1 0 2.034-.511 1.045-.512 1.75-1.568.716-1.057.716-2.693m7.594 7.136v-17.455h2.591v2.637h.181q.478-1.296 1.728-2.102 1.25-.807 2.818-.807.295 0 .738.011.444.012.671.034v2.727a9 9 0 0 0-.625-.102 6 6 0 0 0-1.011-.079q-1.273 0-2.273.534a4 4 0 0 0-1.568 1.454q-.569.921-.569 2.103V801zm11.906 0v-17.455h2.591v2.637h.182q.477-1.296 1.727-2.102 1.25-.807 2.818-.807.295 0 .739.011.443.012.67.034v2.727a9 9 0 0 0-.625-.102 6 6 0 0 0-1.011-.079q-1.273 0-2.273.534a4 4 0 0 0-1.568 1.454q-.568.921-.568 2.103V801zm18.693.364q-2.523 0-4.352-1.114-1.818-1.125-2.807-3.136-.978-2.023-.977-4.705 0-2.682.977-4.727.989-2.057 2.75-3.205 1.773-1.159 4.136-1.159 1.363 0 2.694.455a6.7 6.7 0 0 1 2.42 1.477q1.09 1.011 1.739 2.682.647 1.67.647 4.113v1.137h-13.454v-2.318h10.727q0-1.477-.591-2.637a4.45 4.45 0 0 0-1.659-1.829q-1.068-.67-2.523-.671-1.602 0-2.772.796a5.2 5.2 0 0 0-1.784 2.045 6 6 0 0 0-.625 2.705v1.545q0 1.977.681 3.352.694 1.365 1.921 2.08 1.227.705 2.852.705 1.057 0 1.909-.296a4.1 4.1 0 0 0 1.489-.909 4.15 4.15 0 0 0 .966-1.523l2.591.728a5.75 5.75 0 0 1-1.375 2.318q-.966.989-2.387 1.545-1.42.546-3.193.546m13.989-10.864V801h-2.682v-17.455h2.591v2.728h.227a5 5 0 0 1 1.864-2.137q1.25-.818 3.227-.818 1.773 0 3.102.727 1.33.717 2.068 2.182.74 1.455.739 3.682V801h-2.682v-10.909q0-2.056-1.068-3.205-1.068-1.159-2.932-1.159-1.284 0-2.295.557-1 .557-1.58 1.625-.579 1.068-.579 2.591m23.628-6.955v2.273h-9.046v-2.273zm-6.41-4.181h2.682V796q0 1.137.33 1.705.34.557.863.75a3.5 3.5 0 0 0 1.125.181q.444 0 .728-.045l.454-.091.546 2.409a6 6 0 0 1-.762.205q-.488.113-1.238.113-1.136 0-2.228-.488a4.4 4.4 0 0 1-1.795-1.489q-.705-1-.705-2.523zM385.396 801v-23.273h13.955v2.5h-11.137v7.864h10.091v2.5h-10.091V801zm18.23 0v-17.455h2.591v2.637h.182q.477-1.296 1.727-2.102 1.25-.807 2.819-.807.296 0 .738.011.443.012.671.034v2.727a9 9 0 0 0-.625-.102 6 6 0 0 0-1.012-.079q-1.272 0-2.272.534a4.03 4.03 0 0 0-1.569 1.454q-.567.921-.568 2.103V801zm17.043.409q-1.66 0-3.011-.625a5.16 5.16 0 0 1-2.148-1.829q-.795-1.204-.796-2.91 0-1.5.591-2.431a4.2 4.2 0 0 1 1.58-1.478 8.3 8.3 0 0 1 2.182-.795q1.205-.273 2.42-.432 1.591-.205 2.58-.307 1-.113 1.454-.375.466-.261.466-.909v-.091q0-1.681-.92-2.613-.91-.932-2.762-.932-1.92 0-3.011.841-1.091.84-1.534 1.795l-2.546-.909q.682-1.591 1.819-2.477a6.8 6.8 0 0 1 2.5-1.25 10.4 10.4 0 0 1 2.681-.364q.841 0 1.932.205a6.2 6.2 0 0 1 2.125.807q1.035.613 1.716 1.852.682 1.239.682 3.318V801h-2.682v-2.364h-.136q-.273.568-.909 1.216t-1.693 1.103q-1.058.454-2.58.454m.409-2.409q1.591 0 2.682-.625 1.103-.626 1.659-1.614a4.1 4.1 0 0 0 .568-2.079v-2.455q-.17.205-.75.375a13 13 0 0 1-1.318.284q-.738.114-1.443.205-.693.08-1.125.136-1.046.137-1.955.443-.897.296-1.454.898-.546.591-.546 1.614 0 1.398 1.034 2.113 1.046.705 2.648.705m12.486 2v-17.455h2.591v2.728h.227q.546-1.398 1.761-2.171 1.217-.784 2.921-.784 1.727 0 2.875.784 1.16.773 1.807 2.171h.182a5.1 5.1 0 0 1 2.011-2.148q1.341-.807 3.216-.807 2.34 0 3.829 1.466 1.49 1.455 1.489 4.534V801h-2.682v-11.682q0-1.932-1.057-2.761t-2.488-.83q-1.841 0-2.853 1.114-1.011 1.103-1.011 2.795V801h-2.727v-11.955q0-1.488-.966-2.397-.966-.921-2.489-.921-1.045 0-1.954.557a4.2 4.2 0 0 0-1.455 1.546q-.545.977-.545 2.261V801zm35.131.364q-2.523 0-4.353-1.114-1.818-1.125-2.806-3.136-.978-2.023-.978-4.705t.978-4.727q.988-2.057 2.75-3.205 1.772-1.159 4.136-1.159 1.364 0 2.693.455a6.7 6.7 0 0 1 2.421 1.477q1.09 1.011 1.738 2.682.648 1.67.648 4.113v1.137h-13.455v-2.318h10.728q0-1.477-.591-2.637a4.47 4.47 0 0 0-1.659-1.829q-1.069-.67-2.523-.671-1.602 0-2.773.796a5.2 5.2 0 0 0-1.784 2.045 6 6 0 0 0-.625 2.705v1.545q0 1.977.682 3.352.693 1.365 1.92 2.08 1.228.705 2.853.705 1.057 0 1.909-.296a4.1 4.1 0 0 0 1.488-.909q.625-.614.966-1.523l2.591.728a5.75 5.75 0 0 1-1.375 2.318q-.966.989-2.386 1.545-1.421.546-3.193.546"/><rect width="793" height="97" x="148" y="931" stroke="#dbdbdb" stroke-width="2" rx="27"/><rect width="793" height="97" x="148" y="248" stroke="#dbdbdb" stroke-width="2" rx="27"/><rect width="793" height="264" x="148" y="1074" stroke="#dbdbdb" stroke-width="2" rx="27"/><rect width="793" height="264" x="148" y="391" stroke="#dbdbdb" stroke-width="2" rx="27"/><path fill="#fff" d="M382.849 885v-29.091h11.477q3.295 0 5.625 1.179 2.344 1.165 3.565 3.31 1.236 2.13 1.236 5.014 0 2.898-1.25 4.986-1.25 2.073-3.622 3.182-2.358 1.107-5.71 1.108h-7.685v-4.944h6.69q1.762 0 2.927-.483 1.164-.483 1.733-1.449.582-.965.582-2.4 0-1.449-.582-2.443-.569-.995-1.748-1.506-1.164-.525-2.94-.525h-4.148V885zm15.71-13.239 7.23 13.239h-6.79l-7.074-13.239zm20.018 13.665q-3.367 0-5.796-1.364-2.415-1.377-3.721-3.892-1.308-2.528-1.307-5.98 0-3.366 1.307-5.909t3.679-3.963q2.386-1.42 5.596-1.42 2.16 0 4.02.696a8.9 8.9 0 0 1 3.267 2.059q1.407 1.378 2.188 3.466.78 2.074.781 4.858v1.662h-18.423v-3.75h12.727q0-1.307-.568-2.315a4.1 4.1 0 0 0-1.577-1.577q-.995-.582-2.315-.582-1.378 0-2.444.639-1.05.625-1.647 1.69a4.77 4.77 0 0 0-.611 2.344v3.565q0 1.62.597 2.799.61 1.179 1.718 1.818t2.628.639q1.008 0 1.847-.284a3.8 3.8 0 0 0 1.434-.852q.597-.569.909-1.392l5.597.369a7.64 7.64 0 0 1-1.747 3.523q-1.307 1.492-3.381 2.329-2.06.824-4.758.824m25.696-22.244v4.545h-13.466v-4.545zM433.889 885v-23.395q0-2.372.923-3.935a5.95 5.95 0 0 1 2.557-2.343q1.62-.782 3.679-.782 1.392 0 2.543.214 1.164.213 1.733.383l-1.08 4.546a8 8 0 0 0-.88-.214 5.5 5.5 0 0 0-1.052-.099q-1.335 0-1.86.625-.526.61-.526 1.719V885zm23.242.426q-3.366 0-5.795-1.364-2.415-1.377-3.722-3.892-1.306-2.528-1.306-5.98 0-3.366 1.306-5.909 1.308-2.543 3.679-3.963 2.387-1.42 5.597-1.42 2.159 0 4.02.696a8.9 8.9 0 0 1 3.267 2.059q1.406 1.378 2.187 3.466.782 2.074.782 4.858v1.662h-18.424v-3.75h12.728q0-1.307-.569-2.315a4.07 4.07 0 0 0-1.576-1.577q-.995-.582-2.316-.582-1.377 0-2.443.639-1.051.625-1.648 1.69a4.8 4.8 0 0 0-.61 2.344v3.565q0 1.62.596 2.799.61 1.179 1.719 1.818t2.628.639q1.009 0 1.846-.284a3.8 3.8 0 0 0 1.435-.852q.597-.569.909-1.392l5.597.369a7.65 7.65 0 0 1-1.747 3.523q-1.308 1.492-3.381 2.329-2.06.824-4.759.824m13.963-.426v-21.818h5.867v3.807h.227q.597-2.032 2.003-3.069 1.406-1.05 3.239-1.051.454 0 .98.057.525.057.923.156v5.37a8 8 0 0 0-1.179-.228 11 11 0 0 0-1.378-.099q-1.335 0-2.386.582a4.3 4.3 0 0 0-1.648 1.591q-.596 1.023-.596 2.358V885zm25.295.426q-3.366 0-5.795-1.364-2.415-1.377-3.722-3.892-1.307-2.528-1.307-5.98 0-3.366 1.307-5.909t3.679-3.963q2.387-1.42 5.597-1.42 2.159 0 4.02.696a8.9 8.9 0 0 1 3.267 2.059q1.405 1.378 2.187 3.466.781 2.074.781 4.858v1.662H487.98v-3.75h12.727q0-1.307-.568-2.315a4.07 4.07 0 0 0-1.577-1.577q-.993-.582-2.315-.582-1.378 0-2.443.639-1.051.625-1.648 1.69-.596 1.051-.611 2.344v3.565q0 1.62.597 2.799.61 1.179 1.719 1.818 1.107.639 2.628.639 1.008 0 1.846-.284a3.8 3.8 0 0 0 1.435-.852q.597-.569.909-1.392l5.597.369a7.65 7.65 0 0 1-1.748 3.523q-1.307 1.492-3.38 2.329-2.06.824-4.759.824m20.014-13.04V885h-6.051v-21.818h5.767v3.849h.256a6.1 6.1 0 0 1 2.429-3.011q1.704-1.122 4.134-1.122 2.273 0 3.963.994 1.69.995 2.627 2.841.938 1.833.938 4.375V885h-6.051v-12.812q.014-2.003-1.023-3.126-1.037-1.136-2.855-1.136-1.221 0-2.159.526-.924.525-1.449 1.534-.511.995-.526 2.4m28.69 13.04q-3.352 0-5.767-1.42-2.4-1.435-3.693-3.978-1.278-2.542-1.279-5.852 0-3.352 1.293-5.881 1.307-2.543 3.707-3.963 2.401-1.434 5.711-1.434 2.855 0 5 1.037t3.395 2.912 1.377 4.403h-5.71q-.241-1.634-1.278-2.628-1.023-1.008-2.685-1.008-1.406 0-2.457.767-1.037.753-1.62 2.201-.582 1.45-.582 3.509 0 2.088.568 3.551.582 1.463 1.634 2.23 1.05.767 2.457.767 1.037 0 1.861-.426a3.6 3.6 0 0 0 1.378-1.236q.553-.823.724-1.974h5.71q-.141 2.5-1.363 4.403-1.208 1.89-3.338 2.955t-5.043 1.065m23.562 0q-3.366 0-5.796-1.364-2.414-1.377-3.721-3.892-1.307-2.528-1.307-5.98 0-3.366 1.307-5.909t3.679-3.963q2.386-1.42 5.596-1.42 2.16 0 4.02.696a8.9 8.9 0 0 1 3.267 2.059q1.407 1.378 2.188 3.466.781 2.074.781 4.858v1.662h-18.423v-3.75h12.727q0-1.307-.568-2.315a4.1 4.1 0 0 0-1.577-1.577q-.995-.582-2.315-.582-1.378 0-2.443.639-1.051.625-1.648 1.69-.596 1.051-.611 2.344v3.565q0 1.62.597 2.799.61 1.179 1.718 1.818t2.628.639q1.009 0 1.847-.284a3.8 3.8 0 0 0 1.435-.852q.596-.569.909-1.392l5.596.369a7.64 7.64 0 0 1-1.747 3.523q-1.307 1.492-3.381 2.329-2.06.824-4.758.824m39.116-21.15q-.171-1.719-1.463-2.671t-3.509-.952q-1.505 0-2.543.427-1.036.411-1.591 1.15a2.78 2.78 0 0 0-.539 1.676q-.028.782.326 1.364.37.582 1.009 1.008.639.413 1.477.725.839.298 1.79.511l2.614.625q1.903.426 3.494 1.137 1.591.71 2.756 1.747a7.3 7.3 0 0 1 1.804 2.443q.653 1.406.667 3.224-.014 2.671-1.363 4.631-1.336 1.946-3.864 3.026-2.514 1.065-6.065 1.065-3.523 0-6.137-1.08-2.6-1.079-4.062-3.196-1.45-2.13-1.52-5.27h5.952q.099 1.463.838 2.444.753.966 2.002 1.463 1.264.483 2.856.483 1.562 0 2.713-.455 1.164-.454 1.804-1.264a2.92 2.92 0 0 0 .639-1.861q0-.98-.583-1.648-.567-.667-1.676-1.136-1.094-.469-2.684-.852l-3.168-.796q-3.679-.894-5.81-2.798t-2.116-5.128q-.015-2.642 1.406-4.616 1.435-1.975 3.935-3.083 2.499-1.107 5.682-1.108 3.238 0 5.653 1.108 2.429 1.108 3.778 3.083 1.35 1.974 1.392 4.574zm21.921-1.094v4.545h-13.139v-4.545zm-10.156-5.227h6.051v20.34q0 .839.255 1.307.257.455.711.639.468.186 1.079.185.426 0 .852-.071.426-.085.654-.128l.951 4.503q-.455.142-1.278.327-.824.198-2.003.241-2.187.086-3.835-.582-1.634-.667-2.543-2.074t-.894-3.551zM633.634 885v-21.818h5.866v3.807h.227q.597-2.032 2.003-3.069 1.407-1.05 3.239-1.051.454 0 .98.057.525.057.923.156v5.37a8 8 0 0 0-1.179-.228 11 11 0 0 0-1.378-.099q-1.335 0-2.386.582a4.3 4.3 0 0 0-1.648 1.591q-.596 1.023-.596 2.358V885zm16.367 0v-21.818h6.051V885zm3.039-24.631q-1.349 0-2.315-.895-.952-.909-.952-2.173 0-1.25.952-2.145.966-.909 2.315-.909 1.35 0 2.302.909.966.896.966 2.145 0 1.264-.966 2.173-.952.895-2.302.895m13.91 12.017V885h-6.051v-21.818h5.767v3.849h.256a6.1 6.1 0 0 1 2.429-3.011q1.704-1.122 4.133-1.122 2.274 0 3.963.994 1.69.995 2.628 2.841.938 1.833.938 4.375V885h-6.051v-12.812q.014-2.003-1.023-3.126-1.037-1.136-2.855-1.136-1.222 0-2.159.526-.924.525-1.449 1.534-.511.995-.526 2.4m28.662 21.25q-2.942 0-5.043-.809-2.088-.796-3.324-2.174t-1.605-3.096l5.597-.753q.255.654.809 1.222.554.567 1.463.909.924.355 2.245.355 1.974 0 3.252-.966 1.293-.952 1.293-3.196v-3.992h-.256q-.398.909-1.193 1.719t-2.045 1.321-2.983.512q-2.458 0-4.475-1.137-2.002-1.15-3.196-3.508-1.179-2.373-1.179-5.995 0-3.707 1.208-6.193t3.21-3.721a8.3 8.3 0 0 1 4.418-1.236q1.832 0 3.068.625 1.236.61 1.988 1.534.768.909 1.179 1.79h.228v-3.665h6.008v22.031q0 2.784-1.364 4.659-1.363 1.875-3.778 2.813-2.4.951-5.525.951m.127-13.494q1.464 0 2.472-.724 1.023-.74 1.562-2.103.554-1.377.554-3.295t-.539-3.324q-.54-1.42-1.563-2.202-1.023-.781-2.486-.781-1.491 0-2.514.81-1.023.795-1.548 2.216-.526 1.42-.526 3.281 0 1.889.526 3.267.54 1.364 1.548 2.116 1.023.74 2.514.739M382.849 49V19.91h11.477q3.295 0 5.625 1.178 2.344 1.165 3.565 3.31 1.236 2.13 1.236 5.014 0 2.898-1.25 4.986-1.25 2.073-3.622 3.182-2.358 1.108-5.71 1.108h-7.685v-4.944h6.69q1.762 0 2.927-.483 1.164-.483 1.733-1.449.582-.965.582-2.4 0-1.449-.582-2.443-.569-.994-1.748-1.506-1.164-.526-2.94-.526h-4.148V49zm15.71-13.239L405.789 49h-6.79l-7.074-13.239zm20.018 13.665q-3.367 0-5.796-1.364-2.415-1.377-3.721-3.892-1.308-2.527-1.307-5.98 0-3.366 1.307-5.909t3.679-3.963q2.386-1.42 5.596-1.42 2.16 0 4.02.696a8.9 8.9 0 0 1 3.267 2.06q1.407 1.377 2.188 3.465.78 2.074.781 4.858v1.662h-18.423v-3.75h12.727q0-1.307-.568-2.315a4.07 4.07 0 0 0-1.577-1.577q-.995-.582-2.315-.582-1.378 0-2.444.639-1.05.625-1.647 1.69-.597 1.051-.611 2.344v3.565q0 1.62.597 2.799.61 1.179 1.718 1.818 1.108.64 2.628.64 1.008 0 1.847-.285a3.8 3.8 0 0 0 1.434-.852q.597-.57.909-1.392l5.597.369a7.64 7.64 0 0 1-1.747 3.523q-1.307 1.49-3.381 2.33-2.06.823-4.758.823m25.696-22.244v4.545h-13.466v-4.545zM433.889 49V25.605q0-2.372.923-3.934a5.94 5.94 0 0 1 2.557-2.344q1.62-.782 3.679-.782 1.392 0 2.543.213 1.164.214 1.733.384l-1.08 4.546a8 8 0 0 0-.88-.214 5.5 5.5 0 0 0-1.052-.099q-1.335 0-1.86.625-.526.61-.526 1.719V49zm23.242.426q-3.366 0-5.795-1.364-2.415-1.377-3.722-3.892-1.306-2.527-1.306-5.98 0-3.366 1.306-5.909 1.308-2.542 3.679-3.963 2.387-1.42 5.597-1.42 2.159 0 4.02.696a8.9 8.9 0 0 1 3.267 2.06q1.406 1.377 2.187 3.465.782 2.074.782 4.858v1.662h-18.424v-3.75h12.728q0-1.307-.569-2.315a4.06 4.06 0 0 0-1.576-1.577q-.995-.582-2.316-.582-1.377 0-2.443.639-1.051.625-1.648 1.69a4.8 4.8 0 0 0-.61 2.344v3.565q0 1.62.596 2.799.61 1.179 1.719 1.818 1.108.64 2.628.64 1.009 0 1.846-.285a3.8 3.8 0 0 0 1.435-.852q.597-.57.909-1.392l5.597.369a7.65 7.65 0 0 1-1.747 3.523q-1.308 1.49-3.381 2.33-2.06.823-4.759.823M471.094 49V27.182h5.867v3.807h.227q.597-2.032 2.003-3.068 1.406-1.052 3.239-1.052.454 0 .98.057.525.057.923.156v5.37a8 8 0 0 0-1.179-.228q-.753-.099-1.378-.099-1.335 0-2.386.582a4.3 4.3 0 0 0-1.648 1.591q-.596 1.023-.596 2.358V49zm25.295.426q-3.366 0-5.795-1.364-2.415-1.377-3.722-3.892-1.307-2.527-1.307-5.98 0-3.366 1.307-5.909t3.679-3.963q2.387-1.42 5.597-1.42 2.159 0 4.02.696a8.9 8.9 0 0 1 3.267 2.06q1.405 1.377 2.187 3.465.781 2.074.781 4.858v1.662H487.98v-3.75h12.727q0-1.307-.568-2.315a4.07 4.07 0 0 0-1.577-1.577q-.993-.582-2.315-.582-1.378 0-2.443.639-1.051.625-1.648 1.69-.596 1.051-.611 2.344v3.565q0 1.62.597 2.799.61 1.179 1.719 1.818 1.107.64 2.628.64 1.008 0 1.846-.285a3.8 3.8 0 0 0 1.435-.852q.597-.57.909-1.392l5.597.369a7.65 7.65 0 0 1-1.748 3.523q-1.307 1.49-3.38 2.33-2.06.823-4.759.823m20.014-13.04V49h-6.051V27.182h5.767v3.85h.256a6.1 6.1 0 0 1 2.429-3.012q1.704-1.122 4.134-1.122 2.273 0 3.963.994t2.627 2.841q.938 1.832.938 4.375V49h-6.051V36.188q.014-2.003-1.023-3.126-1.037-1.136-2.855-1.136-1.221 0-2.159.526-.924.525-1.449 1.534-.511.995-.526 2.4m28.69 13.04q-3.352 0-5.767-1.42-2.4-1.435-3.693-3.978-1.278-2.542-1.279-5.852 0-3.352 1.293-5.88 1.307-2.544 3.707-3.964 2.401-1.434 5.711-1.434 2.855 0 5 1.037t3.395 2.912 1.377 4.403h-5.71q-.241-1.633-1.278-2.628-1.023-1.008-2.685-1.008-1.406 0-2.457.767-1.037.753-1.62 2.201-.582 1.45-.582 3.509 0 2.088.568 3.551.582 1.463 1.634 2.23 1.05.767 2.457.767 1.037 0 1.861-.426a3.6 3.6 0 0 0 1.378-1.236q.553-.823.724-1.974h5.71q-.141 2.5-1.363 4.403-1.208 1.89-3.338 2.955t-5.043 1.065m23.562 0q-3.366 0-5.796-1.364-2.414-1.377-3.721-3.892-1.307-2.527-1.307-5.98 0-3.366 1.307-5.909t3.679-3.963q2.386-1.42 5.596-1.42 2.16 0 4.02.696a8.9 8.9 0 0 1 3.267 2.06q1.407 1.377 2.188 3.465.781 2.074.781 4.858v1.662h-18.423v-3.75h12.727q0-1.307-.568-2.315a4.07 4.07 0 0 0-1.577-1.577q-.995-.582-2.315-.582-1.378 0-2.443.639-1.051.625-1.648 1.69-.596 1.051-.611 2.344v3.565q0 1.62.597 2.799.61 1.179 1.718 1.818 1.109.64 2.628.64 1.009 0 1.847-.285a3.8 3.8 0 0 0 1.435-.852q.596-.57.909-1.392l5.596.369a7.64 7.64 0 0 1-1.747 3.523q-1.307 1.49-3.381 2.33-2.06.823-4.758.823m39.116-21.15q-.171-1.719-1.463-2.67-1.293-.953-3.509-.953-1.505 0-2.543.427-1.036.412-1.591 1.15a2.77 2.77 0 0 0-.539 1.676q-.028.782.326 1.364.37.582 1.009 1.008.639.413 1.477.725.839.299 1.79.511l2.614.625a18.4 18.4 0 0 1 3.494 1.137q1.591.71 2.756 1.747a7.3 7.3 0 0 1 1.804 2.443q.653 1.406.667 3.224-.014 2.67-1.363 4.631-1.336 1.946-3.864 3.026-2.514 1.065-6.065 1.065-3.523 0-6.137-1.08-2.6-1.08-4.062-3.196-1.45-2.13-1.52-5.27h5.952q.099 1.463.838 2.444.753.965 2.002 1.463 1.264.483 2.856.483 1.562 0 2.713-.455 1.164-.454 1.804-1.264a2.92 2.92 0 0 0 .639-1.86q0-.98-.583-1.649-.567-.667-1.676-1.136-1.094-.469-2.684-.852l-3.168-.796q-3.679-.894-5.81-2.798t-2.116-5.128q-.015-2.642 1.406-4.616 1.435-1.975 3.935-3.083 2.499-1.107 5.682-1.108 3.238 0 5.653 1.108 2.429 1.108 3.778 3.083 1.35 1.974 1.392 4.574zm21.921-1.094v4.545h-13.139v-4.545zm-10.156-5.227h6.051v20.34q0 .84.255 1.307.257.454.711.64.468.184 1.079.184.426 0 .852-.07.426-.086.654-.129l.951 4.503q-.455.143-1.278.327-.824.198-2.003.241-2.187.086-3.835-.582-1.634-.667-2.543-2.074t-.894-3.551zM633.634 49V27.182h5.866v3.807h.227q.597-2.032 2.003-3.068 1.407-1.052 3.239-1.052.454 0 .98.057.525.057.923.156v5.37a8 8 0 0 0-1.179-.228q-.753-.099-1.378-.099-1.335 0-2.386.582a4.3 4.3 0 0 0-1.648 1.591q-.596 1.023-.596 2.358V49zm16.367 0V27.182h6.051V49zm3.039-24.63q-1.349 0-2.315-.896-.952-.909-.952-2.173 0-1.25.952-2.145.966-.909 2.315-.909 1.35 0 2.302.91.966.893.966 2.144 0 1.264-.966 2.173-.952.895-2.302.895m13.91 12.016V49h-6.051V27.182h5.767v3.85h.256a6.1 6.1 0 0 1 2.429-3.012q1.704-1.122 4.133-1.122 2.274 0 3.963.994t2.628 2.841q.938 1.832.938 4.375V49h-6.051V36.188q.014-2.003-1.023-3.126-1.037-1.136-2.855-1.136-1.222 0-2.159.526-.924.525-1.449 1.534-.511.995-.526 2.4m28.662 21.25q-2.942 0-5.043-.81-2.088-.795-3.324-2.173-1.236-1.377-1.605-3.096l5.597-.753q.255.654.809 1.222.554.567 1.463.909.924.354 2.245.355 1.974 0 3.252-.966 1.293-.952 1.293-3.196v-3.992h-.256q-.398.91-1.193 1.72t-2.045 1.32q-1.25.511-2.983.511-2.458 0-4.475-1.136-2.002-1.15-3.196-3.508-1.179-2.373-1.179-5.995 0-3.707 1.208-6.193t3.21-3.721a8.3 8.3 0 0 1 4.418-1.236q1.832 0 3.068.625 1.236.61 1.988 1.534.768.91 1.179 1.79h.228v-3.665h6.008v22.031q0 2.785-1.364 4.66-1.363 1.875-3.778 2.812-2.4.951-5.525.951m.127-13.494q1.464 0 2.472-.724 1.023-.74 1.562-2.103.554-1.378.554-3.295 0-1.919-.539-3.324-.54-1.42-1.563-2.202-1.023-.78-2.486-.78-1.491 0-2.514.809-1.023.795-1.548 2.216-.526 1.42-.526 3.28 0 1.89.526 3.268.54 1.363 1.548 2.116 1.023.74 2.514.739"/><path stroke="#dbdbdb" stroke-width="2" d="M237 931v97M237 248v97M237 1074v264M237 391v264M148 1161h793M148 478h793M148 1249h793M148 566h793M325 931v97M325 248v97M325 1074v264M325 391v264M413 931v97M413 248v97M545 177v49M721 177v49M898 177v49M897 197H456M413 1074v264M413 391v264M501 931v97M501 248v97M501 1074v264M501 391v264M589 931v97M589 248v97M589 1074v264M589 391v264M677 931v97M677 248v97M677 1074v264M677 391v264M765 931v97M765 248v97M765 1074v264M765 391v264M853 931v97M853 248v97M853 1074v264M853 391v264"/><path fill="#b1b1b1" d="M195.653 968.727V992h-2.818v-20.318h-.136l-5.682 3.773v-2.864l5.818-3.864zM195.653 285.727V309h-2.818v-20.318h-.136l-5.682 3.773v-2.864l5.818-3.864z"/><path fill="#fff" d="M195.653 1106.73V1130h-2.818v-20.32h-.136l-5.682 3.77v-2.86l5.818-3.86zM195.653 423.727V447h-2.818v-20.318h-.136l-5.682 3.773v-2.864l5.818-3.864zM368.585 1306.32c-1.5 0-2.837-.26-4.011-.77-1.167-.52-2.095-1.24-2.784-2.15-.682-.93-1.053-2-1.114-3.22h2.864c.06.75.318 1.4.772 1.94q.683.81 1.785 1.26c.734.29 1.549.44 2.443.44 1 0 1.886-.18 2.659-.52.773-.35 1.379-.84 1.818-1.46q.659-.93.659-2.16c0-.85-.212-1.61-.636-2.26-.424-.66-1.046-1.17-1.864-1.54-.818-.38-1.818-.56-3-.56h-1.864v-2.5h1.864c.924 0 1.735-.17 2.432-.5.705-.34 1.254-.8 1.648-1.41.401-.61.602-1.32.602-2.14 0-.79-.174-1.47-.523-2.05-.348-.59-.841-1.04-1.477-1.37-.629-.32-1.371-.49-2.227-.49q-1.205 0-2.273.45c-.705.28-1.28.71-1.727 1.26q-.67.81-.728 1.98h-2.727q.069-1.83 1.102-3.21t2.705-2.16c1.121-.51 2.352-.77 3.693-.77q2.16 0 3.705.87c1.03.58 1.822 1.34 2.375 2.29s.829 1.97.829 3.07c0 1.31-.344 2.42-1.034 3.35q-1.023 1.38-2.784 1.92v.18c1.47.24 2.617.87 3.443 1.88.826 1 1.239 2.23 1.239 3.71 0 1.27-.345 2.4-1.034 3.41-.682 1-1.614 1.79-2.796 2.36q-1.772.87-4.034.87M447.098 1301.23v-2.32l10.227-16.18h1.682v3.59h-1.136l-7.728 12.23v.18h13.773v2.5zm10.955 4.77v-23.27h2.681V1306zM368.585 623.318q-2.25 0-4.011-.773-1.75-.773-2.784-2.147-1.023-1.387-1.114-3.216h2.864q.09 1.125.772 1.943.683.807 1.785 1.25t2.443.443q1.5 0 2.659-.523 1.16-.522 1.818-1.454t.659-2.159q0-1.284-.636-2.262-.637-.989-1.864-1.545-1.227-.557-3-.557h-1.864v-2.5h1.864q1.386 0 2.432-.5 1.057-.5 1.648-1.409.602-.909.602-2.136 0-1.182-.523-2.057a3.6 3.6 0 0 0-1.477-1.364q-.943-.488-2.227-.488-1.205 0-2.273.443a4.23 4.23 0 0 0-1.727 1.261q-.67.819-.728 1.977h-2.727q.069-1.829 1.102-3.204 1.034-1.386 2.705-2.159 1.681-.773 3.693-.773 2.16 0 3.705.875 1.545.864 2.375 2.284a6 6 0 0 1 .829 3.068q0 1.966-1.034 3.353-1.023 1.386-2.784 1.92v.182q2.204.363 3.443 1.875 1.239 1.5 1.239 3.716 0 1.897-1.034 3.409-1.023 1.5-2.796 2.364t-4.034.863M273.222 1218v-2.05l7.681-8.4c.902-.99 1.644-1.85 2.228-2.57q.875-1.11 1.295-2.07c.288-.65.432-1.33.432-2.05 0-.81-.197-1.52-.591-2.12a3.86 3.86 0 0 0-1.591-1.39 5.24 5.24 0 0 0-2.273-.49c-.894 0-1.674.19-2.341.56a3.86 3.86 0 0 0-1.534 1.53c-.356.66-.534 1.44-.534 2.32h-2.682c0-1.36.315-2.56.944-3.59a6.6 6.6 0 0 1 2.568-2.41c1.091-.57 2.314-.86 3.67-.86 1.364 0 2.572.29 3.625.86 1.053.58 1.879 1.35 2.478 2.33.598.98.897 2.07.897 3.26q0 1.29-.466 2.52c-.303.81-.833 1.71-1.59 2.71-.75.99-1.792 2.21-3.126 3.64l-5.227 5.59v.18h10.818v2.5zM273.222 535v-2.045l7.681-8.41a53 53 0 0 0 2.228-2.568q.875-1.102 1.295-2.068a5 5 0 0 0 .432-2.045q0-1.228-.591-2.125a3.83 3.83 0 0 0-1.591-1.387q-1.011-.488-2.273-.488-1.34 0-2.341.556a3.84 3.84 0 0 0-1.534 1.535q-.534.988-.534 2.318h-2.682q0-2.046.944-3.591a6.55 6.55 0 0 1 2.568-2.409q1.636-.864 3.67-.864 2.046 0 3.625.864 1.58.863 2.478 2.329.897 1.467.897 3.262a7 7 0 0 1-.466 2.511q-.455 1.216-1.59 2.716-1.125 1.488-3.126 3.636l-5.227 5.591v.182h10.818v2.5zM361.222 1218v-2.05l7.681-8.4c.902-.99 1.644-1.85 2.228-2.57q.875-1.11 1.295-2.07c.288-.65.432-1.33.432-2.05 0-.81-.197-1.52-.591-2.12a3.86 3.86 0 0 0-1.591-1.39 5.24 5.24 0 0 0-2.273-.49c-.894 0-1.674.19-2.341.56a3.86 3.86 0 0 0-1.534 1.53c-.356.66-.534 1.44-.534 2.32h-2.682c0-1.36.315-2.56.944-3.59a6.6 6.6 0 0 1 2.568-2.41c1.091-.57 2.314-.86 3.67-.86 1.364 0 2.572.29 3.625.86 1.053.58 1.879 1.35 2.478 2.33.598.98.897 2.07.897 3.26q0 1.29-.466 2.52c-.303.81-.833 1.71-1.59 2.71-.75.99-1.792 2.21-3.126 3.64l-5.227 5.59v.18h10.818v2.5zM448.222 1218v-2.05l7.681-8.4c.902-.99 1.644-1.85 2.228-2.57q.875-1.11 1.295-2.07c.288-.65.432-1.33.432-2.05 0-.81-.197-1.52-.591-2.12a3.86 3.86 0 0 0-1.591-1.39 5.24 5.24 0 0 0-2.273-.49c-.894 0-1.674.19-2.341.56a3.86 3.86 0 0 0-1.534 1.53c-.356.66-.534 1.44-.534 2.32h-2.682c0-1.36.315-2.56.944-3.59a6.6 6.6 0 0 1 2.568-2.41c1.091-.57 2.314-.86 3.67-.86 1.364 0 2.572.29 3.625.86 1.053.58 1.879 1.35 2.478 2.33.598.98.897 2.07.897 3.26q0 1.29-.466 2.52c-.303.81-.833 1.71-1.59 2.71-.75.99-1.792 2.21-3.126 3.64l-5.227 5.59v.18h10.818v2.5zM361.222 535v-2.045l7.681-8.41a53 53 0 0 0 2.228-2.568q.875-1.102 1.295-2.068a5 5 0 0 0 .432-2.045q0-1.228-.591-2.125a3.83 3.83 0 0 0-1.591-1.387q-1.011-.488-2.273-.488-1.34 0-2.341.556a3.84 3.84 0 0 0-1.534 1.535q-.534.988-.534 2.318h-2.682q0-2.046.944-3.591a6.55 6.55 0 0 1 2.568-2.409q1.636-.864 3.67-.864 2.046 0 3.625.864 1.58.863 2.478 2.329.897 1.467.897 3.262a7 7 0 0 1-.466 2.511q-.454 1.216-1.59 2.716-1.125 1.488-3.126 3.636l-5.227 5.591v.182h10.818v2.5zM371.653 1106.73V1130h-2.818v-20.32h-.136l-5.682 3.77v-2.86l5.818-3.86zM458.653 1106.73V1130h-2.818v-20.32h-.136l-5.682 3.77v-2.86l5.818-3.86zM371.653 423.727V447h-2.818v-20.318h-.136l-5.682 3.773v-2.864l5.818-3.864zM283.653 1106.73V1130h-2.818v-20.32h-.136l-5.682 3.77v-2.86l5.818-3.86zM283.653 423.727V447h-2.818v-20.318h-.136l-5.682 3.773v-2.864l5.818-3.864z"/><path fill="#b1b1b1" d="M272.222 992v-2.045l7.681-8.41a53 53 0 0 0 2.228-2.568q.875-1.102 1.295-2.068a5 5 0 0 0 .432-2.045q0-1.228-.591-2.125a3.83 3.83 0 0 0-1.591-1.387q-1.011-.488-2.273-.488-1.34 0-2.341.556a3.84 3.84 0 0 0-1.534 1.535q-.534.988-.534 2.318h-2.682q0-2.046.944-3.591a6.55 6.55 0 0 1 2.568-2.409q1.636-.864 3.67-.864 2.046 0 3.625.864 1.58.863 2.478 2.329.897 1.467.897 3.262a7 7 0 0 1-.466 2.511q-.455 1.216-1.59 2.716-1.125 1.488-3.126 3.636l-5.227 5.591v.182h10.818v2.5zM272.222 309v-2.045l7.681-8.41a53 53 0 0 0 2.228-2.568q.875-1.102 1.295-2.068a5 5 0 0 0 .432-2.045q0-1.228-.591-2.125a3.83 3.83 0 0 0-1.591-1.387q-1.011-.488-2.273-.488-1.34 0-2.341.556a3.84 3.84 0 0 0-1.534 1.535q-.534.988-.534 2.318h-2.682q0-2.046.944-3.591a6.55 6.55 0 0 1 2.568-2.409q1.636-.864 3.67-.864 2.046 0 3.625.864 1.58.863 2.478 2.329.897 1.467.897 3.262a7 7 0 0 1-.466 2.511q-.455 1.216-1.59 2.716-1.125 1.488-3.126 3.636l-5.227 5.591v.182h10.818v2.5zM366.585 992.318q-2.25 0-4.011-.773-1.75-.773-2.784-2.147-1.023-1.387-1.114-3.216h2.864q.09 1.125.772 1.943.683.807 1.785 1.25t2.443.443q1.5 0 2.659-.523 1.16-.522 1.818-1.454t.659-2.159q0-1.284-.636-2.262-.637-.989-1.864-1.545-1.227-.557-3-.557h-1.864v-2.5h1.864q1.386 0 2.432-.5 1.057-.5 1.648-1.409.602-.909.602-2.136 0-1.182-.523-2.057a3.6 3.6 0 0 0-1.477-1.364q-.943-.488-2.227-.488-1.205 0-2.273.443a4.23 4.23 0 0 0-1.727 1.261q-.67.819-.728 1.977h-2.727q.069-1.829 1.102-3.204 1.034-1.386 2.705-2.159 1.681-.773 3.693-.773 2.16 0 3.705.875 1.545.864 2.375 2.284a6 6 0 0 1 .829 3.068q0 1.966-1.034 3.353-1.023 1.386-2.784 1.92v.182q2.204.363 3.443 1.875 1.239 1.5 1.239 3.716 0 1.897-1.034 3.409-1.023 1.5-2.796 2.364t-4.034.863M366.585 309.318q-2.25 0-4.011-.773-1.75-.773-2.784-2.147-1.023-1.387-1.114-3.216h2.864q.09 1.125.772 1.943.683.807 1.785 1.25t2.443.443q1.5 0 2.659-.523 1.16-.522 1.818-1.454t.659-2.159q0-1.284-.636-2.262-.637-.988-1.864-1.545t-3-.557h-1.864v-2.5h1.864q1.386 0 2.432-.5 1.057-.5 1.648-1.409.602-.909.602-2.136 0-1.182-.523-2.057a3.6 3.6 0 0 0-1.477-1.364q-.943-.488-2.227-.488-1.205 0-2.273.443a4.23 4.23 0 0 0-1.727 1.261q-.67.819-.728 1.977h-2.727q.069-1.829 1.102-3.204 1.034-1.386 2.705-2.159 1.681-.773 3.693-.773 2.16 0 3.705.875 1.545.864 2.375 2.284a6 6 0 0 1 .829 3.068q0 1.966-1.034 3.353-1.023 1.386-2.784 1.92v.182q2.204.363 3.443 1.875 1.239 1.5 1.239 3.716 0 1.897-1.034 3.409-1.023 1.5-2.796 2.364t-4.034.863M447.098 987.227v-2.318l10.227-16.182h1.682v3.591h-1.136l-7.728 12.227v.182h13.773v2.5zM458.053 992v-23.273h2.681V992z"/><path fill="#fff" d="M447.098 304.227v-2.318l10.227-16.182h1.682v3.591h-1.136l-7.728 12.227v.182h13.773v2.5zM458.053 309v-23.273h2.681V309zM543.652 992.318a8.7 8.7 0 0 1-2.864-.545q-1.431-.523-2.613-1.762-1.182-1.25-1.898-3.375-.716-2.136-.716-5.363 0-3.091.58-5.478.58-2.397 1.681-4.034 1.103-1.647 2.66-2.5 1.567-.852 3.534-.852 1.954 0 3.477.784a6.63 6.63 0 0 1 2.5 2.159q.966 1.387 1.25 3.193h-2.773q-.385-1.567-1.5-2.602-1.113-1.034-2.954-1.034-2.705 0-4.262 2.352-1.545 2.353-1.557 6.603h.182a6.83 6.83 0 0 1 3.466-2.716 6.8 6.8 0 0 1 2.262-.375q2 0 3.659 1 1.659.989 2.659 2.738 1 1.739 1 3.989 0 2.159-.966 3.955a7.35 7.35 0 0 1-2.716 2.84q-1.739 1.045-4.091 1.023m0-2.5q1.433 0 2.568-.716a5.1 5.1 0 0 0 1.807-1.92q.67-1.205.67-2.682 0-1.443-.647-2.625a4.95 4.95 0 0 0-1.762-1.898q-1.113-.704-2.545-.704-1.08 0-2.011.432a5.2 5.2 0 0 0-1.637 1.159 5.6 5.6 0 0 0-1.091 1.693 5.1 5.1 0 0 0-.397 1.988q0 1.387.647 2.591a5.34 5.34 0 0 0 1.796 1.944q1.147.738 2.602.738M536.222 309v-2.045l7.681-8.41a53 53 0 0 0 2.228-2.568q.875-1.102 1.295-2.068a5 5 0 0 0 .432-2.045q0-1.228-.591-2.125a3.83 3.83 0 0 0-1.591-1.387q-1.011-.488-2.273-.488-1.34 0-2.341.556a3.84 3.84 0 0 0-1.534 1.535q-.534.988-.534 2.318h-2.682q0-2.046.944-3.591a6.55 6.55 0 0 1 2.568-2.409q1.636-.864 3.67-.864 2.046 0 3.625.864 1.58.863 2.478 2.329.897 1.467.897 3.262a7 7 0 0 1-.466 2.511q-.455 1.216-1.59 2.716-1.125 1.488-3.126 3.636l-5.227 5.591v.182h10.818v2.5zM625.222 992v-2.045l7.681-8.41a53 53 0 0 0 2.228-2.568q.875-1.102 1.295-2.068a5 5 0 0 0 .432-2.045q0-1.228-.591-2.125a3.83 3.83 0 0 0-1.591-1.387q-1.011-.488-2.273-.488-1.34 0-2.341.556a3.84 3.84 0 0 0-1.534 1.535q-.534.988-.534 2.318h-2.682q0-2.046.944-3.591a6.55 6.55 0 0 1 2.568-2.409q1.636-.864 3.67-.864 2.046 0 3.625.864 1.58.863 2.478 2.329.897 1.467.897 3.262a7 7 0 0 1-.466 2.511q-.455 1.216-1.59 2.716-1.125 1.488-3.126 3.636l-5.227 5.591v.182h10.818v2.5zM632.652 309.318a8.7 8.7 0 0 1-2.864-.545q-1.431-.523-2.613-1.762-1.182-1.25-1.898-3.375-.716-2.136-.716-5.363 0-3.091.58-5.478.58-2.397 1.681-4.034 1.103-1.647 2.66-2.5 1.567-.852 3.534-.852 1.954 0 3.477.784a6.63 6.63 0 0 1 2.5 2.159q.966 1.387 1.25 3.193h-2.773q-.385-1.567-1.5-2.602-1.113-1.034-2.954-1.034-2.705 0-4.262 2.352-1.545 2.353-1.557 6.603h.182a6.83 6.83 0 0 1 3.466-2.716 6.8 6.8 0 0 1 2.262-.375q2 0 3.659 1 1.659.989 2.659 2.738 1 1.739 1 3.989 0 2.159-.966 3.955a7.35 7.35 0 0 1-2.716 2.84q-1.739 1.046-4.091 1.023m0-2.5q1.433 0 2.568-.716a5.1 5.1 0 0 0 1.807-1.92q.67-1.204.67-2.682 0-1.443-.647-2.625a4.95 4.95 0 0 0-1.762-1.898q-1.113-.704-2.545-.704-1.08 0-2.011.432a5.2 5.2 0 0 0-1.637 1.159 5.6 5.6 0 0 0-1.091 1.693 5.1 5.1 0 0 0-.397 1.988q0 1.387.647 2.591a5.34 5.34 0 0 0 1.796 1.944q1.147.738 2.602.738M719.447 992.318q-2 0-3.602-.795-1.602-.796-2.568-2.182t-1.057-3.159h2.727q.16 1.58 1.432 2.613 1.284 1.023 3.068 1.023 1.432 0 2.546-.67a4.73 4.73 0 0 0 1.761-1.841q.648-1.182.648-2.671 0-1.522-.67-2.716a4.9 4.9 0 0 0-1.819-1.897q-1.159-.693-2.647-.705a7.3 7.3 0 0 0-2.194.33q-1.125.33-1.852.852l-2.636-.318 1.409-11.455h12.091v2.5h-9.727l-.819 6.864h.137q.715-.568 1.795-.943a6.8 6.8 0 0 1 2.25-.375q2.136 0 3.807 1.022 1.682 1.012 2.636 2.773.966 1.761.966 4.023 0 2.228-1 3.977a7.3 7.3 0 0 1-2.727 2.75q-1.738 1-3.955 1M722.653 285.727V309h-2.818v-20.318h-.136l-5.682 3.773v-2.864l5.818-3.864zM811.653 968.727V992h-2.818v-20.318h-.136l-5.682 3.773v-2.864l5.818-3.864zM808.447 309.318q-2 0-3.602-.795-1.602-.796-2.568-2.182t-1.057-3.159h2.727q.16 1.58 1.432 2.613 1.284 1.023 3.068 1.023 1.432 0 2.546-.67a4.73 4.73 0 0 0 1.761-1.841q.648-1.182.648-2.671 0-1.522-.67-2.716a4.9 4.9 0 0 0-1.819-1.897q-1.159-.693-2.647-.705a7.3 7.3 0 0 0-2.194.33q-1.125.33-1.852.852l-2.636-.318 1.409-11.455h12.091v2.5h-9.727l-.819 6.864h.137q.715-.568 1.795-.943a6.8 6.8 0 0 1 2.25-.375q2.136 0 3.807 1.022 1.682 1.012 2.636 2.773.966 1.761.966 4.023 0 2.228-1 3.977a7.3 7.3 0 0 1-2.727 2.75q-1.738 1-3.955 1M896.585 992.318q-2.25 0-4.011-.773-1.75-.773-2.784-2.147-1.023-1.387-1.114-3.216h2.864q.09 1.125.772 1.943.683.807 1.785 1.25t2.443.443q1.5 0 2.659-.523 1.16-.522 1.818-1.454t.659-2.159q0-1.284-.636-2.262-.636-.989-1.864-1.545-1.227-.557-3-.557h-1.864v-2.5h1.864q1.386 0 2.432-.5 1.057-.5 1.648-1.409.602-.909.602-2.136 0-1.182-.523-2.057a3.6 3.6 0 0 0-1.477-1.364q-.943-.488-2.227-.488-1.205 0-2.273.443a4.23 4.23 0 0 0-1.727 1.261q-.67.819-.728 1.977h-2.727q.069-1.829 1.102-3.204 1.034-1.386 2.705-2.159 1.681-.773 3.693-.773 2.16 0 3.705.875 1.545.864 2.375 2.284a6 6 0 0 1 .829 3.068q0 1.966-1.034 3.353-1.023 1.386-2.784 1.92v.182q2.205.363 3.443 1.875 1.239 1.5 1.239 3.716 0 1.897-1.034 3.409-1.023 1.5-2.796 2.364t-4.034.863M896.585 309.318q-2.25 0-4.011-.773-1.75-.773-2.784-2.147-1.023-1.387-1.114-3.216h2.864q.09 1.125.772 1.943.683.807 1.785 1.25t2.443.443q1.5 0 2.659-.523 1.16-.522 1.818-1.454t.659-2.159q0-1.284-.636-2.262-.636-.988-1.864-1.545-1.227-.557-3-.557h-1.864v-2.5h1.864q1.386 0 2.432-.5 1.057-.5 1.648-1.409.602-.909.602-2.136 0-1.182-.523-2.057a3.6 3.6 0 0 0-1.477-1.364q-.943-.488-2.227-.488-1.205 0-2.273.443a4.23 4.23 0 0 0-1.727 1.261q-.67.819-.728 1.977h-2.727q.069-1.829 1.102-3.204 1.034-1.386 2.705-2.159 1.681-.773 3.693-.773 2.16 0 3.705.875 1.545.864 2.375 2.284a6 6 0 0 1 .829 3.068q0 1.966-1.034 3.353-1.023 1.386-2.784 1.92v.182q2.205.363 3.443 1.875 1.239 1.5 1.239 3.716 0 1.897-1.034 3.409-1.023 1.5-2.796 2.364t-4.034.863M983.396 535v-23.273h7.864q2.739 0 4.477.989 1.75.977 2.591 2.648.841 1.67.841 3.727t-.841 3.739q-.83 1.682-2.568 2.681-1.738.989-4.455.989h-5.636V524h5.545q1.875 0 3.012-.648 1.136-.648 1.648-1.75.522-1.113.522-2.511t-.522-2.5q-.511-1.103-1.66-1.727-1.147-.637-3.045-.637h-4.955V535zm25.084.409c-1.1 0-2.11-.208-3.01-.625a5.2 5.2 0 0 1-2.15-1.829c-.53-.803-.79-1.773-.79-2.91 0-1 .19-1.81.59-2.431.39-.629.92-1.122 1.58-1.478a8.2 8.2 0 0 1 2.18-.795c.8-.182 1.61-.326 2.42-.432q1.59-.205 2.58-.307c.67-.075 1.15-.2 1.45-.375.31-.174.47-.477.47-.909v-.091c0-1.121-.31-1.992-.92-2.613q-.915-.933-2.76-.932c-1.28 0-2.29.28-3.01.841-.73.56-1.24 1.159-1.54 1.795l-2.54-.909c.45-1.061 1.06-1.886 1.82-2.477a6.7 6.7 0 0 1 2.5-1.25c.9-.243 1.8-.364 2.68-.364.56 0 1.2.068 1.93.205.73.129 1.44.397 2.12.807.69.409 1.27 1.026 1.72 1.852s.68 1.932.68 3.318V535h-2.68v-2.364h-.14c-.18.379-.48.784-.91 1.216-.42.432-.98.8-1.69 1.103q-1.05.454-2.58.454m.41-2.409c1.06 0 1.96-.208 2.68-.625.74-.417 1.29-.955 1.66-1.614a4.1 4.1 0 0 0 .57-2.079v-2.455q-.165.205-.75.375-.57.16-1.32.284-.735.114-1.44.205c-.46.053-.84.098-1.13.136-.69.091-1.35.239-1.95.443-.6.197-1.08.497-1.46.898q-.54.591-.54 1.614c0 .932.34 1.636 1.03 2.113.7.47 1.58.705 2.65.705m19.53 8.909c-1.29 0-2.41-.167-3.34-.5-.93-.326-1.71-.757-2.33-1.295-.61-.531-1.1-1.099-1.46-1.705l2.13-1.5c.24.318.55.682.92 1.091q.555.626 1.53 1.08.975.465 2.55.465c1.41 0 2.57-.34 3.49-1.022q1.38-1.023 1.38-3.205v-3.545h-.23q-.3.477-.84 1.182c-.36.462-.87.875-1.55 1.238-.66.356-1.57.534-2.7.534-1.41 0-2.68-.333-3.8-1-1.11-.666-1.99-1.636-2.65-2.909q-.96-1.91-.96-4.636c0-1.788.31-3.345.94-4.671.63-1.333 1.51-2.363 2.63-3.091 1.12-.734 2.41-1.102 3.88-1.102 1.14 0 2.04.19 2.71.568.67.372 1.19.796 1.54 1.273q.555.705.84 1.159h.28v-2.773h2.59V535.5c0 1.5-.34 2.72-1.03 3.659-.67.947-1.58 1.64-2.72 2.08-1.14.447-2.4.67-3.8.67m-.09-9.591q1.62 0 2.73-.738c.74-.493 1.31-1.201 1.69-2.125.39-.925.58-2.031.58-3.319q0-1.886-.57-3.329t-1.68-2.262c-.74-.545-1.66-.818-2.75-.818-1.14 0-2.08.288-2.84.864-.75.576-1.31 1.348-1.69 2.318-.37.97-.56 2.046-.56 3.227q0 1.818.57 3.216c.38.925.95 1.652 1.7 2.182q1.14.784 2.82.784m19.86 3.046q-2.52 0-4.35-1.114c-1.21-.75-2.15-1.795-2.8-3.136-.66-1.349-.98-2.917-.98-4.705s.32-3.364.98-4.727c.65-1.371 1.57-2.44 2.75-3.205 1.18-.772 2.56-1.159 4.13-1.159q1.365 0 2.7.455c.88.303 1.69.795 2.42 1.477.72.674 1.3 1.568 1.73 2.682.44 1.113.65 2.485.65 4.113v1.137h-13.45v-2.318h10.72c0-.985-.19-1.864-.59-2.637a4.4 4.4 0 0 0-1.66-1.829q-1.065-.67-2.52-.671c-1.07 0-1.99.265-2.77.796a5.2 5.2 0 0 0-1.78 2.045 6 6 0 0 0-.63 2.705v1.545c0 1.318.23 2.436.68 3.352q.69 1.365 1.92 2.08 1.23.705 2.85.705c.71 0 1.35-.099 1.91-.296a4 4 0 0 0 1.49-.909c.42-.409.74-.917.97-1.523l2.59.728a5.67 5.67 0 0 1-1.38 2.318c-.64.659-1.44 1.174-2.38 1.545-.95.364-2.01.546-3.2.546m28.13-.046c-1.5 0-2.84-.257-4.01-.773q-1.755-.773-2.79-2.147-1.02-1.387-1.11-3.216h2.86q.09 1.125.78 1.943c.45.538 1.05.955 1.78 1.25.74.295 1.55.443 2.44.443 1 0 1.89-.174 2.66-.523.78-.348 1.38-.833 1.82-1.454q.66-.932.66-2.159c0-.856-.21-1.61-.64-2.262q-.63-.989-1.86-1.545-1.23-.557-3-.557h-1.86v-2.5h1.86c.92 0 1.74-.166 2.43-.5q1.065-.5 1.65-1.409.6-.909.6-2.136c0-.788-.17-1.474-.52-2.057a3.57 3.57 0 0 0-1.48-1.364q-.945-.488-2.22-.488-1.215 0-2.28.443c-.7.288-1.28.708-1.72 1.261-.45.546-.69 1.205-.73 1.977h-2.73c.05-1.219.41-2.287 1.1-3.204.69-.924 1.59-1.644 2.71-2.159q1.68-.773 3.69-.773c1.44 0 2.67.292 3.71.875q1.545.864 2.37 2.284c.55.947.83 1.97.83 3.068 0 1.311-.35 2.428-1.03 3.353-.69.924-1.61 1.564-2.79 1.92v.182c1.47.242 2.62.867 3.44 1.875.83 1 1.24 2.239 1.24 3.716 0 1.265-.34 2.401-1.03 3.409-.68 1-1.61 1.788-2.8 2.364-1.18.575-2.52.863-4.03.863m-102.26 39.091q-1.659 0-3.012-.625a5.17 5.17 0 0 1-2.147-1.829q-.796-1.204-.796-2.91 0-1.5.591-2.431a4.17 4.17 0 0 1 1.58-1.478 8.3 8.3 0 0 1 2.181-.795q1.204-.273 2.421-.432 1.59-.205 2.579-.307 1-.113 1.455-.375.466-.261.466-.909v-.091q0-1.682-.921-2.613-.909-.933-2.761-.932-1.92 0-3.011.841-1.092.84-1.534 1.795l-2.546-.909q.683-1.591 1.818-2.477a6.8 6.8 0 0 1 2.5-1.25 10.4 10.4 0 0 1 2.682-.364q.841 0 1.932.205a6.2 6.2 0 0 1 2.125.807q1.034.613 1.716 1.852t.682 3.318V574h-2.682v-2.364h-.137q-.272.568-.909 1.216-.636.648-1.693 1.103t-2.579.454m.409-2.409q1.59 0 2.682-.625 1.101-.626 1.659-1.614a4.1 4.1 0 0 0 .568-2.079v-2.455q-.171.205-.75.375a13 13 0 0 1-1.318.284q-.74.114-1.444.205-.693.08-1.125.136-1.044.137-1.954.443-.898.296-1.455.898-.545.591-.545 1.614 0 1.398 1.034 2.113 1.046.705 2.648.705m24.849-11.545-2.409.681a4.5 4.5 0 0 0-.67-1.17q-.432-.58-1.182-.955t-1.921-.375q-1.602 0-2.67.739-1.057.727-1.057 1.852 0 1 .727 1.58.728.579 2.273.966l2.591.636q2.34.568 3.489 1.739 1.147 1.159 1.147 2.988 0 1.5-.863 2.682-.852 1.182-2.387 1.864-1.534.681-3.568.682-2.67 0-4.42-1.159t-2.216-3.387l2.545-.636q.364 1.409 1.375 2.113 1.023.705 2.671.705 1.875 0 2.977-.795 1.113-.807 1.114-1.932 0-.91-.637-1.523-.636-.625-1.954-.932l-2.909-.682q-2.398-.568-3.523-1.761-1.114-1.205-1.114-3.011 0-1.477.83-2.614.84-1.137 2.284-1.784 1.455-.648 3.295-.648 2.592 0 4.069 1.137 1.488 1.135 2.113 3m27.632-3.91L1020.49 574h-2.73l-6.45-17.455h2.91l4.82 13.91h.18l4.82-13.91zm3.54 17.455v-17.455h2.68V574zm1.36-20.364q-.78 0-1.35-.534c-.37-.356-.56-.784-.56-1.284s.19-.928.56-1.284q.57-.534 1.35-.534c.52 0 .97.178 1.34.534q.57.534.57 1.284t-.57 1.284c-.37.356-.82.534-1.34.534m13.32 20.728c-1.64 0-3.04-.387-4.23-1.159-1.18-.773-2.09-1.838-2.72-3.194q-.96-2.034-.96-4.647c0-1.773.33-3.337.98-4.694.66-1.363 1.57-2.428 2.75-3.193 1.18-.772 2.56-1.159 4.13-1.159 1.23 0 2.34.227 3.32.682a6.3 6.3 0 0 1 2.42 1.909q.945 1.227 1.17 2.864h-2.68c-.2-.796-.66-1.5-1.36-2.114q-1.05-.932-2.82-.932c-1.04 0-1.96.273-2.75.818q-1.17.807-1.83 2.285c-.43.977-.65 2.125-.65 3.443 0 1.348.22 2.522.64 3.522.43 1 1.04 1.777 1.82 2.33.79.553 1.71.83 2.77.83.7 0 1.33-.122 1.9-.364a3.86 3.86 0 0 0 1.44-1.046q.6-.682.84-1.636h2.68a6.2 6.2 0 0 1-1.12 2.784c-.59.818-1.38 1.47-2.35 1.955q-1.455.716-3.39.716m18.38-17.819v2.273h-9.05v-2.273zm-6.41-4.181h2.68V569q0 1.137.33 1.705c.23.371.51.621.86.75.36.121.73.181 1.13.181q.435 0 .72-.045l.46-.091.54 2.409c-.18.068-.43.136-.76.205-.32.075-.74.113-1.24.113-.75 0-1.5-.163-2.22-.488a4.45 4.45 0 0 1-1.8-1.489c-.47-.667-.7-1.508-.7-2.523zM1067.58 574v-17.455h2.68V574zm1.36-20.364q-.78 0-1.35-.534c-.37-.356-.56-.784-.56-1.284s.19-.928.56-1.284q.57-.534 1.35-.534c.53 0 .97.178 1.34.534q.57.534.57 1.284t-.57 1.284c-.37.356-.81.534-1.34.534m6.23 20.364v-17.455h2.59v2.728h.23c.37-.932.95-1.656 1.76-2.171.81-.522 1.79-.784 2.92-.784q1.725 0 2.88.784c.77.515 1.37 1.239 1.81 2.171h.18q.66-1.353 2.01-2.148 1.335-.807 3.21-.807c1.56 0 2.84.489 3.83 1.466 1 .97 1.49 2.481 1.49 4.534V574h-2.68v-11.682c0-1.288-.35-2.208-1.06-2.761-.7-.553-1.53-.83-2.48-.83-1.23 0-2.18.371-2.86 1.114-.67.735-1.01 1.667-1.01 2.795V574h-2.73v-11.955q0-1.488-.96-2.397-.975-.921-2.49-.921-1.05 0-1.95.557a4.2 4.2 0 0 0-1.46 1.546q-.54.977-.54 2.261V574zm-77.044 45.545v-24h2.594v2.773h.32c.19-.303.47-.689.81-1.159q.54-.715 1.53-1.273.99-.567 2.7-.568c1.47 0 2.77.368 3.89 1.102s1.99 1.777 2.62 3.125.95 2.94.95 4.773c0 1.849-.32 3.451-.95 4.807q-.945 2.023-2.61 3.136c-1.11.735-2.4 1.103-3.85 1.103q-1.68 0-2.7-.557c-.67-.379-1.19-.807-1.55-1.284q-.555-.728-.84-1.205h-.23v9.227zm2.634-15.272c0 1.318.2 2.481.58 3.488.39 1 .95 1.784 1.7 2.353.74.56 1.65.841 2.72.841 1.12 0 2.06-.296 2.81-.887.76-.598 1.33-1.401 1.7-2.409.39-1.015.58-2.144.58-3.386 0-1.228-.19-2.334-.56-3.318-.38-.993-.94-1.777-1.7-2.353-.75-.583-1.69-.875-2.83-.875-1.09 0-2 .277-2.75.83q-1.11.817-1.68 2.295-.57 1.467-.57 3.421m22 9.136c-1.1 0-2.11-.208-3.01-.625a5.2 5.2 0 0 1-2.15-1.829c-.53-.803-.79-1.773-.79-2.91 0-1 .2-1.81.59-2.431.39-.629.92-1.122 1.58-1.478a8.4 8.4 0 0 1 2.18-.795c.8-.182 1.61-.326 2.42-.432q1.59-.205 2.58-.307c.67-.075 1.15-.2 1.46-.375.31-.174.46-.477.46-.909v-.091c0-1.121-.31-1.992-.92-2.613q-.915-.933-2.76-.932c-1.28 0-2.28.28-3.01.841s-1.24 1.159-1.54 1.795l-2.54-.909c.45-1.061 1.06-1.886 1.82-2.477a6.7 6.7 0 0 1 2.5-1.25c.91-.243 1.8-.364 2.68-.364.56 0 1.2.068 1.93.205q1.095.193 2.13.807c.68.409 1.26 1.026 1.71 1.852.46.826.68 1.932.68 3.318V613h-2.68v-2.364h-.14q-.27.568-.9 1.216c-.43.432-.99.8-1.7 1.103q-1.05.454-2.58.454m.41-2.409c1.06 0 1.96-.208 2.68-.625.74-.417 1.29-.955 1.66-1.614a4.1 4.1 0 0 0 .57-2.079v-2.455q-.165.205-.75.375-.57.16-1.32.284-.735.114-1.44.205c-.46.053-.84.098-1.13.136q-1.035.137-1.95.443c-.6.197-1.08.497-1.45.898-.37.394-.55.932-.55 1.614 0 .932.34 1.636 1.03 2.113.7.47 1.58.705 2.65.705m19.53 8.909c-1.29 0-2.41-.167-3.34-.5-.93-.326-1.71-.757-2.33-1.295-.61-.531-1.1-1.099-1.46-1.705l2.13-1.5c.25.318.55.682.92 1.091q.555.626 1.53 1.08.975.465 2.55.465c1.41 0 2.58-.34 3.49-1.022q1.38-1.023 1.38-3.205v-3.545h-.23q-.3.477-.84 1.182c-.36.462-.87.875-1.55 1.238-.66.356-1.57.534-2.7.534-1.41 0-2.68-.333-3.8-1q-1.665-1-2.64-2.909c-.65-1.273-.97-2.818-.97-4.636 0-1.788.31-3.345.94-4.671.63-1.333 1.51-2.363 2.63-3.091 1.12-.734 2.41-1.102 3.88-1.102 1.14 0 2.04.19 2.71.568.67.372 1.19.796 1.54 1.273q.555.705.84 1.159h.28v-2.773h2.59V613.5q0 2.25-1.02 3.659-1.02 1.42-2.73 2.08c-1.14.447-2.4.67-3.8.67m-.09-9.591q1.62 0 2.73-.738c.74-.493 1.31-1.201 1.69-2.125.39-.925.58-2.031.58-3.319q0-1.886-.57-3.329c-.37-.962-.94-1.716-1.68-2.262-.74-.545-1.66-.818-2.75-.818-1.13 0-2.08.288-2.84.864-.75.576-1.31 1.348-1.69 2.318-.37.97-.56 2.046-.56 3.227q0 1.818.57 3.216c.39.925.95 1.652 1.7 2.182q1.14.784 2.82.784m19.87 3.046c-1.69 0-3.14-.372-4.36-1.114-1.21-.75-2.14-1.795-2.8-3.136-.65-1.349-.98-2.917-.98-4.705s.33-3.364.98-4.727c.66-1.371 1.57-2.44 2.75-3.205 1.18-.772 2.56-1.159 4.13-1.159q1.365 0 2.7.455c.88.303 1.69.795 2.42 1.477q1.08 1.011 1.74 2.682c.43 1.113.64 2.485.64 4.113v1.137h-13.45v-2.318h10.73q0-1.477-.6-2.637a4.4 4.4 0 0 0-1.65-1.829c-.72-.447-1.56-.671-2.53-.671-1.07 0-1.99.265-2.77.796a5.2 5.2 0 0 0-1.78 2.045 6 6 0 0 0-.63 2.705v1.545c0 1.318.23 2.436.68 3.352q.705 1.365 1.92 2.08c.82.47 1.77.705 2.86.705.7 0 1.34-.099 1.9-.296a4 4 0 0 0 1.49-.909c.42-.409.74-.917.97-1.523l2.59.728a5.75 5.75 0 0 1-1.37 2.318c-.65.659-1.44 1.174-2.39 1.545-.95.364-2.01.546-3.19.546"/><path stroke="#717171" stroke-width="2" d="m178.826 958.436 28 41M178.826 275.436l28 41M266.826 958.436l28 41M266.826 275.436l28 41M354.826 958.436l28 41M442.826 958.436l28 41M354.826 275.436l28 41"/><path stroke="#717171" stroke-linecap="round" stroke-linejoin="round" stroke-width="4" d="m384.75 723.874-16.25 16.25-16.25-16.25"/><path stroke="#717171" stroke-width="5" d="M369.5 685v52"/><path stroke="#dbdbdb" stroke-linecap="round" stroke-linejoin="round" stroke-width="4" d="m1051.48 460-18.74 20-18.74-20"/><path stroke="#dbdbdb" stroke-width="4" d="M966 303.5c83 0 66.5 74.5 66.5 173.5"/></svg>