<svg xmlns="http://www.w3.org/2000/svg" width="1275" height="721" fill="none" viewBox="0 0 1275 721"><rect width="450" height="327" x="1" y="197" stroke="#dbdbdb" stroke-width="2" rx="27"/><rect width="450" height="327" x="824" y="197" stroke="#dbdbdb" stroke-width="2" rx="27"/><path fill="#fff" d="M123.188 273v-31.273h12.338q3.558 0 6.062 1.359 2.504 1.344 3.817 3.741 1.329 2.382 1.329 5.498t-1.344 5.497-3.894 3.71q-2.535 1.329-6.138 1.329h-7.864v-5.299h6.795q1.908 0 3.146-.656 1.251-.672 1.862-1.848.627-1.191.627-2.733 0-1.558-.627-2.718-.61-1.176-1.862-1.818-1.252-.656-3.177-.656H129.8V273zm27.718 0v-23.455h6.307v4.093h.244q.642-2.184 2.153-3.299 1.512-1.13 3.482-1.129.489 0 1.053.061.566.06.993.168v5.772q-.458-.138-1.267-.245a11.5 11.5 0 0 0-1.482-.107q-1.435 0-2.565.626a4.6 4.6 0 0 0-1.771 1.711q-.642 1.1-.642 2.534V273zm27.101.458q-3.559 0-6.154-1.512-2.581-1.527-3.986-4.245-1.404-2.733-1.404-6.337 0-3.634 1.404-6.352 1.405-2.733 3.986-4.245 2.596-1.527 6.154-1.527t6.138 1.527q2.596 1.512 4.001 4.245 1.405 2.719 1.405 6.352 0 3.604-1.405 6.337-1.405 2.718-4.001 4.245-2.58 1.512-6.138 1.512m.03-5.039q1.618 0 2.703-.916 1.084-.931 1.634-2.535.565-1.603.565-3.649t-.565-3.65q-.55-1.603-1.634-2.535-1.085-.931-2.703-.931-1.633 0-2.748.931-1.1.931-1.665 2.535-.55 1.603-.55 3.65t.55 3.649q.565 1.603 1.665 2.535 1.115.916 2.748.916m26.341 5.039q-3.604 0-6.2-1.527-2.58-1.542-3.97-4.275-1.374-2.734-1.374-6.292 0-3.603 1.389-6.321 1.405-2.734 3.986-4.261 2.58-1.542 6.138-1.542 3.07 0 5.375 1.115t3.65 3.13q1.344 2.016 1.481 4.734h-6.139q-.26-1.757-1.374-2.825-1.1-1.084-2.886-1.084-1.512 0-2.642.824-1.114.81-1.74 2.367-.627 1.558-.626 3.772 0 2.245.61 3.817.627 1.573 1.756 2.398 1.13.824 2.642.824 1.115 0 2-.458a3.86 3.86 0 0 0 1.482-1.328q.595-.886.778-2.123h6.139q-.153 2.688-1.466 4.734-1.298 2.03-3.588 3.176-2.29 1.145-5.421 1.145m25.329 0q-3.62 0-6.23-1.466-2.597-1.48-4.001-4.184-1.405-2.718-1.405-6.428 0-3.619 1.405-6.353 1.404-2.733 3.955-4.26 2.565-1.527 6.016-1.527 2.321 0 4.321.748a9.6 9.6 0 0 1 3.513 2.214q1.51 1.482 2.351 3.726.84 2.23.84 5.223v1.786h-19.805v-4.031h13.682q0-1.405-.611-2.489a4.37 4.37 0 0 0-1.695-1.695q-1.069-.626-2.489-.626-1.481 0-2.626.687a4.8 4.8 0 0 0-1.772 1.817q-.64 1.13-.656 2.52v3.832q0 1.741.641 3.009a4.7 4.7 0 0 0 1.848 1.954q1.19.687 2.825.687 1.083 0 1.985-.305a4.1 4.1 0 0 0 1.542-.916q.64-.611.977-1.497l6.017.397a8.2 8.2 0 0 1-1.879 3.787q-1.405 1.604-3.634 2.504-2.214.886-5.115.886m34.525-17.224-5.955.366a3.1 3.1 0 0 0-.657-1.374q-.504-.626-1.328-.993-.81-.381-1.94-.381-1.512 0-2.55.641-1.038.625-1.038 1.68 0 .839.672 1.42.672.58 2.305.931l4.246.855q3.42.703 5.1 2.26 1.679 1.558 1.679 4.093 0 2.306-1.359 4.046-1.344 1.741-3.695 2.718-2.337.962-5.39.962-4.658 0-7.421-1.939-2.75-1.955-3.222-5.314l6.398-.336q.29 1.42 1.405 2.168 1.114.733 2.855.733 1.71 0 2.749-.656 1.053-.672 1.068-1.726-.015-.885-.748-1.45-.733-.581-2.26-.886l-4.061-.809q-3.436-.688-5.116-2.383-1.665-1.695-1.664-4.321 0-2.26 1.221-3.894 1.237-1.634 3.467-2.519 2.244-.886 5.252-.886 4.444 0 6.994 1.878 2.565 1.879 2.993 5.116m24.145 0-5.955.366a3.1 3.1 0 0 0-.656-1.374q-.504-.626-1.329-.993-.809-.381-1.939-.381-1.512 0-2.55.641-1.04.625-1.039 1.68 0 .839.672 1.42.672.58 2.306.931l4.245.855q3.42.703 5.1 2.26 1.68 1.558 1.68 4.093 0 2.306-1.359 4.046-1.344 1.741-3.695 2.718-2.337.962-5.391.962-4.657 0-7.421-1.939-2.748-1.955-3.222-5.314l6.398-.336q.29 1.42 1.405 2.168 1.114.733 2.856.733 1.71 0 2.748-.656 1.054-.672 1.069-1.726-.015-.885-.748-1.45-.733-.581-2.26-.886l-4.062-.809q-3.436-.688-5.115-2.383-1.665-1.695-1.665-4.321 0-2.26 1.222-3.894 1.236-1.634 3.466-2.519 2.244-.886 5.253-.886 4.443 0 6.993 1.878 2.566 1.879 2.993 5.116M308.473 273h-7.086l10.796-31.273h8.521L331.484 273h-7.085l-7.833-24.126h-.245zm-.443-12.292h16.736v5.161H308.03zM120.47 281.551h212.053v2.932H120.47zM948.056 273v-31.273h12.338q3.558 0 6.063 1.359 2.504 1.344 3.817 3.741 1.329 2.382 1.329 5.498t-1.344 5.497-3.894 3.71q-2.535 1.329-6.138 1.329h-7.864v-5.299h6.795q1.909 0 3.145-.656 1.253-.672 1.863-1.848.627-1.191.626-2.733 0-1.558-.626-2.718-.61-1.176-1.863-1.818-1.252-.656-3.176-.656h-4.459V273zm27.719 0v-23.455h6.307v4.093h.244q.64-2.184 2.153-3.299 1.512-1.13 3.481-1.129.489 0 1.054.061.565.06.993.168v5.772q-.459-.138-1.268-.245a11 11 0 0 0-1.481-.107q-1.435 0-2.565.626a4.6 4.6 0 0 0-1.772 1.711q-.64 1.1-.641 2.534V273zm27.105.458c-2.38 0-4.428-.504-6.158-1.512q-2.581-1.527-3.986-4.245-1.405-2.733-1.405-6.337 0-3.634 1.405-6.352 1.405-2.733 3.986-4.245c1.73-1.018 3.778-1.527 6.158-1.527 2.37 0 4.41.509 6.13 1.527 1.73 1.008 3.07 2.423 4 4.245q1.41 2.719 1.41 6.352 0 3.604-1.41 6.337a10.28 10.28 0 0 1-4 4.245c-1.72 1.008-3.76 1.512-6.13 1.512m.03-5.039c1.07 0 1.98-.305 2.7-.916.72-.621 1.27-1.466 1.63-2.535q.57-1.603.57-3.649t-.57-3.65c-.36-1.069-.91-1.914-1.63-2.535s-1.63-.931-2.7-.931c-1.09 0-2.01.31-2.75.931q-1.103.931-1.667 2.535-.55 1.603-.55 3.65t.55 3.649q.564 1.603 1.667 2.535c.74.611 1.66.916 2.75.916m26.34 5.039c-2.41 0-4.47-.509-6.2-1.527a10.3 10.3 0 0 1-3.97-4.275q-1.38-2.734-1.38-6.292c0-2.402.47-4.509 1.39-6.321q1.41-2.734 3.99-4.261c1.72-1.028 3.76-1.542 6.14-1.542q3.06 0 5.37 1.115c1.54.743 2.75 1.786 3.65 3.13s1.39 2.922 1.48 4.734h-6.14c-.17-1.171-.63-2.113-1.37-2.825-.73-.723-1.7-1.084-2.89-1.084q-1.515 0-2.64.824-1.11.81-1.74 2.367-.63 1.558-.63 3.772c0 1.496.21 2.769.62 3.817s1 1.848 1.75 2.398q1.125.824 2.64.824c.75 0 1.41-.153 2-.458.6-.305 1.1-.748 1.48-1.328q.6-.886.78-2.123h6.14c-.1 1.792-.59 3.37-1.46 4.734-.87 1.354-2.07 2.412-3.59 3.176-1.53.763-3.34 1.145-5.42 1.145m25.33 0c-2.42 0-4.49-.489-6.23-1.466-1.74-.987-3.07-2.382-4.01-4.184-.93-1.812-1.4-3.955-1.4-6.428 0-2.413.47-4.53 1.4-6.353q1.41-2.733 3.96-4.26c1.71-1.018 3.72-1.527 6.02-1.527q2.31 0 4.32.748a9.6 9.6 0 0 1 3.51 2.214c1.01.988 1.79 2.23 2.35 3.726q.84 2.23.84 5.223v1.786h-19.8v-4.031h13.68c0-.937-.21-1.766-.61-2.489a4.4 4.4 0 0 0-1.7-1.695q-1.065-.626-2.49-.626c-.98 0-1.86.229-2.62.687a4.8 4.8 0 0 0-1.78 1.817 5.2 5.2 0 0 0-.65 2.52v3.832c0 1.161.21 2.164.64 3.009.44.845 1.05 1.496 1.85 1.954q1.185.687 2.82.687c.72 0 1.39-.102 1.99-.305s1.11-.509 1.54-.916.75-.906.98-1.497l6.01.397a8.13 8.13 0 0 1-1.88 3.787q-1.395 1.604-3.63 2.504c-1.48.591-3.18.886-5.11.886m34.52-17.224-5.95.366a3.24 3.24 0 0 0-.66-1.374 3.5 3.5 0 0 0-1.33-.993c-.54-.254-1.19-.381-1.94-.381q-1.515 0-2.55.641c-.69.417-1.04.977-1.04 1.68 0 .559.23 1.033.67 1.42q.675.58 2.31.931l4.25.855q3.42.703 5.1 2.26c1.12 1.039 1.67 2.403 1.67 4.093q0 2.306-1.35 4.046c-.9 1.161-2.13 2.067-3.7 2.718-1.56.641-3.35.962-5.39.962-3.1 0-5.58-.646-7.42-1.939-1.83-1.303-2.91-3.075-3.22-5.314l6.4-.336c.19.947.66 1.669 1.4 2.168.74.489 1.7.733 2.86.733 1.14 0 2.05-.219 2.74-.656.71-.448 1.06-1.023 1.07-1.726q-.015-.885-.75-1.45c-.48-.387-1.24-.683-2.26-.886l-4.06-.809c-2.29-.459-3.99-1.253-5.11-2.383-1.11-1.13-1.67-2.57-1.67-4.321 0-1.507.41-2.805 1.22-3.894.83-1.089 1.98-1.929 3.47-2.519q2.25-.886 5.25-.886c2.97 0 5.3.626 7 1.878 1.71 1.252 2.71 2.958 2.99 5.116m24.15 0-5.96.366q-.15-.764-.66-1.374-.495-.626-1.32-.993c-.54-.254-1.19-.381-1.94-.381q-1.515 0-2.55.641c-.7.417-1.04.977-1.04 1.68 0 .559.22 1.033.67 1.42q.675.58 2.31.931l4.24.855q3.42.703 5.1 2.26 1.68 1.558 1.68 4.093c0 1.537-.45 2.886-1.36 4.046-.89 1.161-2.13 2.067-3.69 2.718-1.56.641-3.36.962-5.39.962-3.11 0-5.58-.646-7.43-1.939-1.83-1.303-2.9-3.075-3.22-5.314l6.4-.336q.285 1.42 1.41 2.168 1.11.733 2.85.733c1.14 0 2.06-.219 2.75-.656.7-.448 1.06-1.023 1.07-1.726q-.015-.885-.75-1.45c-.49-.387-1.24-.683-2.26-.886l-4.06-.809c-2.29-.459-4-1.253-5.12-2.383-1.11-1.13-1.66-2.57-1.66-4.321 0-1.507.41-2.805 1.22-3.894.83-1.089 1.98-1.929 3.47-2.519q2.235-.886 5.25-.886 4.44 0 6.99 1.878 2.565 1.879 3 5.116m14.7 16.766v-31.273h12.52q3.45 0 5.76 1.023c1.54.682 2.69 1.629 3.47 2.841.77 1.201 1.16 2.585 1.16 4.153 0 1.222-.25 2.296-.74 3.222a6.4 6.4 0 0 1-2.01 2.26c-.85.58-1.81.992-2.9 1.237v.305c1.19.051 2.3.387 3.34 1.008q1.575.931 2.55 2.611c.65 1.11.98 2.433.98 3.97 0 1.66-.41 3.141-1.24 4.444-.81 1.293-2.02 2.316-3.62 3.069q-2.4 1.13-5.91 1.13zm6.61-5.406h5.39c1.85 0 3.19-.351 4.03-1.053.85-.713 1.27-1.659 1.27-2.84 0-.866-.21-1.629-.62-2.291-.42-.662-1.02-1.181-1.79-1.557-.76-.377-1.68-.565-2.73-.565h-5.55zm0-12.78h4.9c.91 0 1.71-.158 2.42-.474q1.065-.489 1.68-1.374c.41-.591.62-1.298.62-2.123q0-1.695-1.2-2.733t-3.39-1.038h-5.03zM945.338 281.551h208.312v2.932H945.338z"/><rect width="332" height="136" x="60" y="343" stroke="#dbdbdb" stroke-width="2" rx="27"/><rect width="332" height="136" x="883" y="343" stroke="#dbdbdb" stroke-width="2" rx="27"/><path fill="#fff" d="M152.64 426v-29.091h9.829q3.41 0 5.597 1.165 2.187 1.15 3.239 3.167 1.05 2.018 1.051 4.589 0 2.57-1.051 4.559-1.052 1.99-3.225 3.125-2.173 1.122-5.554 1.122h-7.954v-3.181h7.841q2.33 0 3.75-.682 1.434-.682 2.074-1.932.653-1.265.653-3.011 0-1.748-.653-3.054-.654-1.308-2.089-2.017-1.434-.725-3.792-.725h-6.193V426zm13.693-13.068L173.492 426h-4.091l-7.045-13.068zm20.352 13.523q-3.154 0-5.441-1.393-2.272-1.406-3.508-3.92-1.222-2.529-1.222-5.881 0-3.351 1.222-5.909 1.236-2.571 3.437-4.005 2.216-1.449 5.171-1.449 1.704 0 3.366.568t3.026 1.846q1.363 1.265 2.173 3.353t.81 5.142v1.42h-16.818v-2.897h13.409q0-1.848-.739-3.296a5.57 5.57 0 0 0-2.074-2.287q-1.335-.838-3.153-.838-2.003 0-3.466.994a6.55 6.55 0 0 0-2.23 2.557 7.5 7.5 0 0 0-.782 3.381v1.932q0 2.47.853 4.19.866 1.704 2.4 2.599 1.534.881 3.566.881 1.32 0 2.386-.369a5.1 5.1 0 0 0 1.861-1.136q.781-.767 1.207-1.904l3.239.909a7.2 7.2 0 0 1-1.719 2.898q-1.207 1.236-2.983 1.932-1.776.682-3.991.682m29.588-17.387-3.012.852a5.6 5.6 0 0 0-.838-1.463q-.54-.724-1.477-1.193t-2.401-.469q-2.002 0-3.338.924-1.32.91-1.321 2.315 0 1.25.909 1.975.91.724 2.841 1.207l3.239.795q2.926.71 4.361 2.174 1.434 1.449 1.434 3.735 0 1.875-1.079 3.353-1.065 1.477-2.983 2.329-1.917.852-4.46.853-3.339 0-5.526-1.449t-2.77-4.233l3.182-.796q.454 1.762 1.719 2.642 1.278.88 3.338.881 2.344 0 3.721-.994 1.393-1.01 1.393-2.415 0-1.137-.796-1.903-.796-.782-2.443-1.165l-3.636-.853q-2.998-.71-4.404-2.201-1.392-1.506-1.392-3.764 0-1.848 1.037-3.267 1.051-1.42 2.855-2.231 1.818-.809 4.119-.809 3.24 0 5.086 1.42 1.86 1.42 2.642 3.75m14.307 17.387q-2.954 0-5.184-1.407-2.217-1.406-3.466-3.934-1.236-2.53-1.236-5.909 0-3.41 1.236-5.952 1.25-2.543 3.466-3.949 2.23-1.406 5.184-1.406t5.171 1.406q2.23 1.406 3.466 3.949 1.25 2.543 1.25 5.952 0 3.38-1.25 5.909-1.237 2.528-3.466 3.934-2.216 1.407-5.171 1.407m0-3.012q2.245 0 3.693-1.15 1.449-1.15 2.145-3.026t.696-4.062q0-2.188-.696-4.077-.696-1.89-2.145-3.054-1.448-1.165-3.693-1.165t-3.693 1.165q-1.449 1.164-2.145 3.054t-.696 4.077.696 4.062 2.145 3.026q1.449 1.15 3.693 1.15m28.754-6.363v-12.898h3.352V426h-3.352v-3.693h-.227q-.767 1.662-2.387 2.827-1.619 1.15-4.091 1.15-2.044 0-3.636-.895-1.591-.909-2.5-2.727-.909-1.832-.909-4.617v-13.863h3.352v13.636q0 2.387 1.335 3.807 1.35 1.42 3.438 1.42 1.25 0 2.542-.639 1.308-.639 2.188-1.96.895-1.321.895-3.366m9.492 8.92v-21.818h3.239v3.295h.227q.597-1.618 2.159-2.628 1.563-1.008 3.523-1.008.37 0 .923.014.554.015.838.043v3.409a10 10 0 0 0-.781-.128 8 8 0 0 0-1.264-.099q-1.591 0-2.841.667a5.04 5.04 0 0 0-1.961 1.818q-.71 1.15-.71 2.628V426zm23.082.455q-3.067 0-5.284-1.449-2.215-1.45-3.409-3.992t-1.193-5.809q0-3.324 1.222-5.867 1.235-2.556 3.437-3.991 2.216-1.449 5.171-1.449 2.3 0 4.147.852t3.026 2.386q1.18 1.534 1.463 3.58h-3.352q-.384-1.491-1.705-2.642-1.306-1.165-3.523-1.165-1.96 0-3.437 1.023-1.463 1.008-2.287 2.855-.81 1.832-.81 4.304 0 2.528.796 4.403.81 1.875 2.272 2.912 1.478 1.038 3.466 1.037 1.307 0 2.373-.454a4.9 4.9 0 0 0 1.804-1.307q.738-.852 1.051-2.046h3.352a7.76 7.76 0 0 1-1.406 3.48q-1.108 1.535-2.941 2.444-1.818.895-4.233.895m22.628 0q-3.153 0-5.44-1.393-2.273-1.406-3.509-3.92-1.221-2.529-1.221-5.881 0-3.351 1.221-5.909 1.236-2.571 3.438-4.005 2.216-1.449 5.17-1.449 1.705 0 3.367.568t3.025 1.846q1.364 1.265 2.174 3.353t.809 5.142v1.42h-16.818v-2.897h13.409q0-1.848-.738-3.296a5.57 5.57 0 0 0-2.074-2.287q-1.335-.838-3.154-.838-2.002 0-3.466.994a6.55 6.55 0 0 0-2.23 2.557 7.5 7.5 0 0 0-.781 3.381v1.932q0 2.47.852 4.19.867 1.704 2.401 2.599 1.534.881 3.565.881 1.321 0 2.387-.369a5.1 5.1 0 0 0 1.86-1.136q.782-.767 1.208-1.904l3.238.909a7.2 7.2 0 0 1-1.718 2.898q-1.208 1.236-2.983 1.932-1.776.682-3.992.682m27.031-.455h-3.693l10.682-29.091h3.636L362.874 426h-3.693l-8.693-24.489h-.227zm1.364-11.364h14.886v3.125h-14.886zM312.1 33V8.273h9.756q2.813 0 4.793 1.074 1.98 1.064 3.019 2.958 1.05 1.884 1.05 4.347 0 2.462-1.062 4.347-1.063 1.882-3.079 2.934-2.004 1.05-4.854 1.05h-6.218v-4.19h5.373q1.509 0 2.487-.519.99-.531 1.473-1.46.495-.943.495-2.162 0-1.231-.495-2.15-.483-.929-1.473-1.436-.99-.52-2.511-.52h-3.526V33zm21.917 0V14.455h4.987v3.235h.193q.507-1.725 1.703-2.608 1.194-.893 2.752-.893.387 0 .833.048.447.048.785.133v4.564a7 7 0 0 0-1.002-.193 9 9 0 0 0-1.171-.085q-1.135 0-2.028.495a3.64 3.64 0 0 0-1.401 1.353q-.507.87-.507 2.004V33zm21.428.362q-2.813 0-4.865-1.195-2.041-1.207-3.152-3.357-1.11-2.16-1.11-5.01 0-2.874 1.11-5.023 1.111-2.16 3.152-3.357 2.052-1.207 4.865-1.207t4.854 1.208q2.053 1.194 3.164 3.356 1.11 2.15 1.11 5.023 0 2.85-1.11 5.01a8.16 8.16 0 0 1-3.164 3.357q-2.04 1.195-4.854 1.195m.025-3.984q1.28 0 2.137-.725.857-.736 1.292-2.004.446-1.268.446-2.886 0-1.617-.446-2.885-.435-1.267-1.292-2.004-.858-.737-2.137-.737-1.293 0-2.174.737-.869.736-1.316 2.004-.434 1.267-.434 2.886 0 1.617.434 2.885.447 1.267 1.316 2.004.882.725 2.174.725m20.827 3.984q-2.85 0-4.902-1.207-2.04-1.22-3.139-3.38-1.087-2.163-1.087-4.975 0-2.85 1.099-4.999 1.11-2.16 3.151-3.368 2.04-1.22 4.854-1.22 2.426 0 4.25.882 1.822.88 2.886 2.475 1.062 1.593 1.171 3.742h-4.854q-.205-1.388-1.087-2.233-.869-.857-2.282-.857-1.195 0-2.088.652-.882.64-1.377 1.871-.495 1.232-.495 2.982 0 1.775.483 3.019.495 1.243 1.389 1.895.893.652 2.088.652.882 0 1.582-.362a3.06 3.06 0 0 0 1.171-1.05q.47-.7.616-1.679h4.854q-.121 2.126-1.159 3.743-1.027 1.606-2.838 2.512-1.81.905-4.286.905m20.028 0q-2.862 0-4.927-1.159-2.052-1.17-3.163-3.308-1.11-2.15-1.111-5.083 0-2.862 1.111-5.023t3.127-3.369q2.028-1.207 4.757-1.207 1.836 0 3.417.592a7.6 7.6 0 0 1 2.777 1.75q1.195 1.171 1.86 2.946.663 1.764.664 4.13v1.412h-15.66v-3.187h10.818q0-1.11-.483-1.968a3.46 3.46 0 0 0-1.34-1.34q-.846-.495-1.968-.495-1.171 0-2.077.543a3.8 3.8 0 0 0-1.4 1.437 4.05 4.05 0 0 0-.52 1.992v3.03q0 1.376.507 2.379a3.7 3.7 0 0 0 1.461 1.545q.942.544 2.234.544.858 0 1.57-.242.712-.24 1.219-.724a3.15 3.15 0 0 0 .773-1.183l4.757.314a6.5 6.5 0 0 1-1.485 2.994q-1.11 1.267-2.874 1.98-1.75.7-4.044.7m27.299-13.62-4.709.29a2.45 2.45 0 0 0-.519-1.086 2.76 2.76 0 0 0-1.051-.785q-.64-.302-1.533-.302-1.195 0-2.017.507-.82.495-.821 1.329 0 .664.532 1.122.531.46 1.823.737l3.356.676q2.705.555 4.033 1.787t1.328 3.236q0 1.823-1.074 3.2-1.063 1.375-2.922 2.149-1.848.76-4.262.76-3.683 0-5.868-1.533-2.173-1.545-2.548-4.202l5.059-.265q.23 1.123 1.111 1.714.88.58 2.258.58 1.352 0 2.173-.52.833-.531.845-1.364-.012-.701-.591-1.147-.58-.46-1.787-.7l-3.212-.64q-2.716-.543-4.045-1.884-1.316-1.34-1.316-3.417 0-1.785.966-3.079.978-1.29 2.741-1.992 1.775-.7 4.153-.7 3.514 0 5.53 1.485 2.028 1.485 2.367 4.045m19.091 0-4.708.29a2.44 2.44 0 0 0-.52-1.086 2.75 2.75 0 0 0-1.05-.785q-.64-.302-1.533-.302-1.195 0-2.017.507-.82.495-.821 1.329 0 .664.531 1.122.532.46 1.824.737l3.356.676q2.704.555 4.033 1.787 1.328 1.232 1.328 3.236 0 1.823-1.075 3.2-1.062 1.375-2.921 2.149-1.848.76-4.263.76-3.683 0-5.867-1.533-2.174-1.545-2.548-4.202l5.059-.265q.23 1.123 1.111 1.714.88.58 2.258.58 1.351 0 2.173-.52.833-.531.845-1.364-.012-.701-.592-1.147-.58-.46-1.787-.7l-3.211-.64q-2.717-.543-4.045-1.884-1.316-1.34-1.316-3.417 0-1.785.966-3.079.978-1.29 2.741-1.992 1.774-.7 4.153-.7 3.513 0 5.53 1.485 2.028 1.485 2.366 4.045M458.605 33h-5.603l8.537-24.727h6.737L476.8 33h-5.602l-6.194-19.077h-.193zm-.351-9.72h13.233v4.081h-13.233zm34.438-1.002V33h-5.143V8.273h4.998v9.454h.218q.627-1.642 2.028-2.572 1.401-.942 3.513-.942 1.932 0 3.369.845 1.45.834 2.246 2.403.809 1.558.797 3.73V33h-5.144V22.11q.012-1.715-.869-2.669-.87-.954-2.439-.954-1.05 0-1.859.447-.797.447-1.256 1.304-.447.845-.459 2.04m21.362 11.072q-1.775 0-3.164-.616a5.1 5.1 0 0 1-2.197-1.847q-.797-1.23-.797-3.067 0-1.545.568-2.596a4.6 4.6 0 0 1 1.545-1.69 7.5 7.5 0 0 1 2.222-.966 17 17 0 0 1 2.632-.459 67 67 0 0 0 2.608-.314q.99-.156 1.436-.458.447-.303.447-.894v-.072q0-1.148-.724-1.775-.712-.628-2.029-.628-1.388 0-2.209.616-.821.604-1.087 1.521l-4.757-.386q.363-1.69 1.425-2.922 1.062-1.244 2.741-1.908 1.689-.675 3.912-.676 1.545 0 2.958.362 1.424.363 2.523 1.123a5.46 5.46 0 0 1 1.751 1.956q.64 1.184.64 2.837V33h-4.878v-2.572h-.145a5.2 5.2 0 0 1-1.195 1.534 5.5 5.5 0 0 1-1.799 1.026q-1.052.362-2.427.362m1.473-3.55q1.135 0 2.004-.446a3.55 3.55 0 0 0 1.364-1.232q.495-.773.495-1.75v-1.969a2.8 2.8 0 0 1-.664.29q-.41.12-.929.23-.52.096-1.039.18l-.941.133a6.4 6.4 0 0 0-1.582.423q-.676.29-1.051.785-.374.483-.374 1.207 0 1.05.761 1.606.772.543 1.956.543m28.392-10.057-4.709.29a2.45 2.45 0 0 0-.519-1.087 2.76 2.76 0 0 0-1.051-.785q-.64-.302-1.533-.302-1.195 0-2.017.507-.82.495-.821 1.329 0 .664.532 1.122.53.46 1.823.737l3.356.676q2.705.555 4.033 1.787t1.328 3.236q0 1.823-1.074 3.2-1.063 1.375-2.922 2.149-1.848.76-4.262.76-3.683 0-5.868-1.533-2.173-1.545-2.548-4.202l5.059-.265q.23 1.123 1.111 1.714.88.58 2.258.58 1.352 0 2.173-.52.833-.531.845-1.364-.012-.701-.592-1.147-.58-.46-1.786-.7l-3.212-.64q-2.716-.543-4.045-1.884-1.316-1.34-1.316-3.417 0-1.785.966-3.079.978-1.29 2.741-1.992 1.774-.7 4.153-.7 3.514 0 5.53 1.485 2.028 1.485 2.367 4.045M555.449 33V14.455h4.987v3.235h.193q.507-1.725 1.702-2.608 1.196-.893 2.753-.893.386 0 .833.048t.785.133v4.564a7 7 0 0 0-1.002-.193 9 9 0 0 0-1.171-.085q-1.135 0-2.029.495a3.65 3.65 0 0 0-1.4 1.353q-.507.87-.507 2.004V33zm21.501.362q-2.862 0-4.927-1.159-2.052-1.17-3.163-3.308-1.11-2.15-1.111-5.083 0-2.862 1.111-5.023t3.127-3.369q2.028-1.207 4.757-1.207 1.836 0 3.417.592a7.6 7.6 0 0 1 2.777 1.75q1.195 1.171 1.86 2.946.663 1.764.664 4.13v1.412h-15.66v-3.187h10.818q0-1.11-.483-1.968a3.46 3.46 0 0 0-1.34-1.34q-.846-.495-1.968-.495-1.171 0-2.077.543a3.8 3.8 0 0 0-1.4 1.437 4.05 4.05 0 0 0-.52 1.992v3.03q0 1.376.507 2.379a3.7 3.7 0 0 0 1.461 1.545q.942.544 2.234.544.858 0 1.57-.242.712-.24 1.219-.724a3.15 3.15 0 0 0 .773-1.183l4.757.314a6.5 6.5 0 0 1-1.485 2.994q-1.11 1.267-2.874 1.98-1.75.7-4.044.7m27.299-13.62-4.709.29a2.45 2.45 0 0 0-.519-1.086 2.76 2.76 0 0 0-1.051-.785q-.64-.302-1.533-.302-1.195 0-2.017.507-.82.495-.821 1.329 0 .664.532 1.122.531.46 1.823.737l3.356.676q2.705.555 4.033 1.787t1.328 3.236q0 1.823-1.074 3.2-1.063 1.375-2.922 2.149-1.848.76-4.262.76-3.683 0-5.868-1.533-2.173-1.545-2.548-4.202l5.059-.265q.23 1.123 1.111 1.714.88.58 2.258.58 1.352 0 2.173-.52.833-.531.845-1.364-.012-.701-.591-1.147-.58-.46-1.787-.7l-3.212-.64q-2.716-.543-4.045-1.884-1.316-1.34-1.316-3.417 0-1.785.966-3.079.978-1.29 2.741-1.992 1.775-.7 4.153-.7 3.514 0 5.53 1.485 2.028 1.485 2.367 4.045m12.04 13.62q-2.812 0-4.866-1.195-2.04-1.207-3.151-3.357-1.11-2.16-1.111-5.01 0-2.874 1.111-5.023 1.111-2.16 3.151-3.357 2.053-1.207 4.866-1.207 2.814 0 4.854 1.208 2.053 1.194 3.163 3.356 1.111 2.15 1.111 5.023 0 2.85-1.111 5.01a8.15 8.15 0 0 1-3.163 3.357q-2.04 1.195-4.854 1.195m.024-3.984q1.28 0 2.137-.725.858-.736 1.292-2.004.447-1.268.447-2.886 0-1.617-.447-2.885-.434-1.267-1.292-2.004-.856-.737-2.137-.737-1.291 0-2.173.737-.869.736-1.316 2.004-.435 1.267-.435 2.886 0 1.617.435 2.885.447 1.267 1.316 2.004.882.725 2.173.725m24.341-4.274v-10.65h5.144V33h-4.938v-3.369h-.194a5.47 5.47 0 0 1-2.088 2.62q-1.45.99-3.538.99-1.86 0-3.272-.845-1.413-.845-2.21-2.402-.784-1.558-.796-3.731V14.454h5.143v10.891q.012 1.642.881 2.596.87.954 2.331.954a3.7 3.7 0 0 0 1.738-.423q.81-.434 1.304-1.28.507-.845.495-2.088M649.912 33V14.455h4.986v3.235h.194q.507-1.725 1.702-2.608 1.196-.893 2.753-.893.386 0 .833.048t.785.133v4.564a7 7 0 0 0-1.002-.193 9 9 0 0 0-1.172-.085q-1.134 0-2.028.495a3.65 3.65 0 0 0-1.401 1.353q-.507.87-.507 2.004V33zm21.428.362q-2.85 0-4.902-1.207-2.04-1.22-3.139-3.38-1.087-2.163-1.087-4.975 0-2.85 1.099-4.999 1.11-2.16 3.151-3.368 2.04-1.22 4.854-1.22 2.427 0 4.25.882 1.823.88 2.886 2.475 1.062 1.593 1.171 3.742h-4.854q-.205-1.388-1.087-2.233-.869-.857-2.282-.857-1.195 0-2.088.652-.882.64-1.377 1.871-.495 1.232-.495 2.982 0 1.775.483 3.019.495 1.243 1.389 1.895.893.652 2.088.652.882 0 1.582-.362a3.06 3.06 0 0 0 1.171-1.05q.47-.7.616-1.679h4.854q-.121 2.126-1.159 3.743-1.027 1.606-2.838 2.512-1.81.905-4.286.905m20.028 0q-2.862 0-4.927-1.159-2.052-1.17-3.163-3.308-1.11-2.15-1.111-5.083 0-2.862 1.111-5.023t3.127-3.369q2.028-1.207 4.757-1.207 1.836 0 3.417.592a7.6 7.6 0 0 1 2.777 1.75q1.196 1.171 1.86 2.946.663 1.764.664 4.13v1.412h-15.66v-3.187h10.818q0-1.11-.483-1.968a3.46 3.46 0 0 0-1.34-1.34q-.846-.495-1.968-.495-1.171 0-2.077.543a3.8 3.8 0 0 0-1.4 1.437 4.05 4.05 0 0 0-.52 1.992v3.03q0 1.376.507 2.379a3.7 3.7 0 0 0 1.461 1.545q.942.544 2.234.544.858 0 1.57-.242.712-.24 1.219-.724a3.15 3.15 0 0 0 .773-1.183l4.757.314a6.5 6.5 0 0 1-1.485 2.994q-1.111 1.267-2.874 1.98-1.75.7-4.044.7M715.464 33h-5.602l8.536-24.727h6.737L733.659 33h-5.602l-6.194-19.077h-.193zm-.35-9.72h13.233v4.081h-13.233zm37 10.155q-1.763 0-3.199-.664-1.437-.677-2.282-1.944-.846-1.28-.846-3.091 0-1.594.628-2.584a4.43 4.43 0 0 1 1.679-1.57q1.05-.567 2.318-.845 1.28-.29 2.571-.459a117 117 0 0 1 2.741-.326q1.063-.12 1.546-.398.495-.277.495-.966v-.097q0-1.786-.978-2.776-.966-.99-2.934-.99-2.041 0-3.2.893t-1.63 1.908l-2.704-.966q.725-1.691 1.932-2.632a7.2 7.2 0 0 1 2.656-1.329 11 11 0 0 1 2.849-.386q.894 0 2.053.217a6.6 6.6 0 0 1 2.258.858q1.098.651 1.823 1.968t.724 3.525V33h-2.849v-2.511h-.145q-.29.603-.966 1.291-.676.69-1.799 1.172-1.123.483-2.741.483m.435-2.56q1.69 0 2.849-.664 1.172-.664 1.763-1.715.604-1.05.604-2.21V23.68q-.182.218-.797.398a14 14 0 0 1-1.401.302q-.784.12-1.533.218-.737.084-1.195.144-1.111.146-2.077.471-.954.315-1.546.954-.579.628-.579 1.715 0 1.485 1.099 2.245 1.11.75 2.813.749m16.115-9.031V33h-2.849V14.455h2.753v2.897h.241a5.3 5.3 0 0 1 1.98-2.27q1.329-.87 3.429-.869 1.884 0 3.297.773 1.412.76 2.197 2.318.785 1.545.785 3.912V33h-2.85V21.41q0-2.187-1.135-3.406-1.134-1.23-3.115-1.231-1.364 0-2.439.591-1.062.592-1.678 1.727-.615 1.134-.616 2.753m24.042 11.542q-2.317 0-4.093-1.17-1.774-1.184-2.777-3.333-1.002-2.161-1.002-5.107 0-2.922 1.002-5.071 1.003-2.15 2.79-3.32 1.786-1.172 4.129-1.172 1.81 0 2.861.604 1.063.591 1.618 1.352.568.75.882 1.232h.241V8.273h2.85V33h-2.753v-2.85h-.338q-.315.508-.894 1.28-.58.761-1.654 1.365-1.074.591-2.862.591m.387-2.56q1.715 0 2.898-.893 1.182-.906 1.799-2.5.615-1.605.615-3.706 0-2.076-.603-3.634-.604-1.57-1.787-2.439-1.183-.88-2.922-.881-1.812 0-3.019.93-1.194.917-1.799 2.499-.591 1.569-.591 3.525 0 1.98.603 3.598.616 1.605 1.812 2.56 1.207.942 2.994.942M816.383 33V14.455h2.85V33zm1.449-21.636q-.832 0-1.437-.568a1.82 1.82 0 0 1-.591-1.364q0-.796.591-1.365a2.03 2.03 0 0 1 1.437-.567q.834 0 1.425.567.604.569.604 1.365 0 .797-.604 1.364a1.98 1.98 0 0 1-1.425.568m19.756 7.244-2.56.724a4.8 4.8 0 0 0-.712-1.243q-.459-.616-1.256-1.014-.797-.399-2.04-.399-1.703 0-2.837.785-1.123.773-1.123 1.968 0 1.062.772 1.678.773.616 2.415 1.027l2.753.676q2.487.603 3.707 1.847 1.22 1.232 1.219 3.175a4.7 4.7 0 0 1-.917 2.85q-.906 1.256-2.536 1.98t-3.791.724q-2.838 0-4.697-1.231t-2.354-3.598l2.704-.676q.387 1.497 1.461 2.245 1.087.75 2.838.749 1.992 0 3.163-.845 1.183-.858 1.183-2.053 0-.966-.676-1.618-.676-.663-2.077-.99l-3.091-.724q-2.547-.604-3.743-1.872-1.183-1.28-1.183-3.2 0-1.569.882-2.776.893-1.207 2.426-1.896 1.546-.688 3.502-.688 2.753 0 4.322 1.208 1.582 1.207 2.246 3.187M855.98 33l-5.651-18.545h2.994l4.009 14.198h.193l3.96-14.198h3.043l3.912 14.15h.193l4.009-14.15h2.994L869.985 33h-2.801l-4.057-14.247h-.289L858.781 33zm28.88.435q-1.762 0-3.199-.664-1.437-.677-2.282-1.944-.846-1.28-.845-3.091 0-1.594.627-2.584a4.43 4.43 0 0 1 1.679-1.57q1.05-.567 2.318-.845 1.28-.29 2.572-.459 1.69-.216 2.74-.326 1.063-.12 1.546-.398.495-.277.495-.966v-.097q0-1.786-.978-2.776-.966-.99-2.934-.99-2.04 0-3.2.893-1.159.893-1.63 1.908l-2.704-.966q.725-1.691 1.932-2.632a7.2 7.2 0 0 1 2.656-1.329 11 11 0 0 1 2.849-.386q.894 0 2.053.217a6.6 6.6 0 0 1 2.258.858q1.098.651 1.823 1.968t.724 3.525V33h-2.849v-2.511h-.145q-.29.603-.966 1.291-.676.69-1.799 1.172-1.123.483-2.741.483m.435-2.56q1.69 0 2.849-.664 1.172-.664 1.763-1.715.604-1.05.604-2.21V23.68q-.182.218-.797.398a14 14 0 0 1-1.401.302q-.785.12-1.533.218-.736.084-1.195.144-1.111.146-2.077.471-.954.315-1.545.954-.58.628-.58 1.715 0 1.485 1.099 2.245 1.11.75 2.813.749M898.561 33V14.455h2.85V33zm1.449-21.636q-.832 0-1.437-.568a1.82 1.82 0 0 1-.591-1.364q0-.796.591-1.365a2.03 2.03 0 0 1 1.437-.567q.832 0 1.425.567.603.569.603 1.365 0 .797-.603 1.364-.592.568-1.425.568m14.685 3.09v2.415h-9.611v-2.415zm-6.81-4.443h2.85v17.676q0 1.208.35 1.812.362.591.917.797.568.192 1.196.193.47 0 .772-.049l.483-.096.58 2.56a6 6 0 0 1-.809.217q-.52.12-1.316.12a5.7 5.7 0 0 1-2.367-.519 4.7 4.7 0 0 1-1.907-1.581q-.749-1.063-.749-2.68zM918.981 33V14.455h2.849V33zm1.449-21.636q-.833 0-1.437-.568a1.83 1.83 0 0 1-.592-1.364q0-.796.592-1.365a2.03 2.03 0 0 1 1.437-.567q.832 0 1.425.567.603.569.603 1.365 0 .797-.603 1.364-.592.568-1.425.568m9.469 10.48V33h-2.85V14.455h2.753v2.897h.242a5.3 5.3 0 0 1 1.98-2.27q1.327-.87 3.429-.869 1.883 0 3.296.773 1.413.76 2.197 2.318.786 1.545.785 3.912V33h-2.849V21.41q0-2.187-1.135-3.406-1.135-1.23-3.115-1.231-1.365 0-2.439.591-1.063.592-1.678 1.727-.616 1.134-.616 2.753m24.525 18.497q-2.065 0-3.55-.531-1.485-.519-2.475-1.377-.978-.845-1.558-1.81l2.27-1.595q.387.508.978 1.16.592.664 1.618 1.146 1.038.495 2.717.495 2.246 0 3.707-1.086t1.46-3.405v-3.767h-.241q-.313.507-.894 1.256-.567.736-1.642 1.316-1.062.567-2.873.567-2.246 0-4.033-1.062-1.775-1.063-2.813-3.091-1.026-2.028-1.026-4.926 0-2.85 1.002-4.963 1.002-2.124 2.789-3.284 1.787-1.17 4.129-1.17 1.811 0 2.874.603 1.074.591 1.642 1.352.58.75.893 1.232h.29v-2.947h2.753v19.077q0 2.391-1.087 3.888-1.074 1.51-2.898 2.21-1.81.712-4.032.712m-.097-10.19q1.715 0 2.898-.785t1.799-2.258.616-3.526q0-2.004-.604-3.537-.603-1.534-1.787-2.403-1.183-.87-2.922-.87-1.81 0-3.018.918-1.196.918-1.799 2.463-.592 1.546-.592 3.43 0 1.93.604 3.416.615 1.473 1.811 2.319 1.207.833 2.994.833M436.995 55.455v2.414h-9.997v-2.414zM429.993 74V52.895q0-1.594.748-2.656a4.64 4.64 0 0 1 1.944-1.594 6.14 6.14 0 0 1 2.523-.531q1.051 0 1.715.169.665.168.99.314l-.821 2.463a14 14 0 0 0-.604-.181q-.374-.11-.99-.11-1.413 0-2.04.713-.616.712-.616 2.089V74zm17.766.386q-2.511 0-4.407-1.195-1.883-1.196-2.946-3.344-1.05-2.15-1.05-5.023 0-2.898 1.05-5.06 1.063-2.16 2.946-3.356 1.896-1.195 4.407-1.195t4.395 1.195q1.896 1.195 2.946 3.357 1.063 2.16 1.063 5.059 0 2.874-1.063 5.023-1.05 2.148-2.946 3.344-1.884 1.195-4.395 1.195m0-2.56q1.908 0 3.139-.977 1.231-.978 1.824-2.572.591-1.594.591-3.453 0-1.86-.591-3.465-.592-1.605-1.824-2.596-1.231-.99-3.139-.99t-3.139.99q-1.232.99-1.823 2.596-.592 1.605-.592 3.465t.592 3.453q.591 1.594 1.823 2.572t3.139.978M460.512 74V55.455h2.753v2.8h.193q.507-1.376 1.836-2.233 1.327-.857 2.994-.857.314 0 .785.012.47.012.712.036v2.898a9 9 0 0 0-.664-.109 6.5 6.5 0 0 0-1.075-.084q-1.352 0-2.414.567a4.3 4.3 0 0 0-1.667 1.546q-.603.977-.603 2.233V74zm22.6 0V49.273h8.355q2.897 0 4.757.99 1.859.978 2.753 2.692.893 1.715.893 3.9 0 2.186-.893 3.876-.894 1.69-2.741 2.656-1.848.954-4.721.954h-6.761v-2.705h6.664q1.98 0 3.188-.58 1.219-.579 1.763-1.641.555-1.075.555-2.56t-.555-2.596q-.556-1.11-1.775-1.714-1.22-.615-3.224-.616h-5.264V74zm11.639-11.108L500.836 74h-3.477l-5.989-11.108zm17.299 11.494q-2.68 0-4.625-1.183-1.932-1.195-2.982-3.332-1.038-2.15-1.038-4.999 0-2.85 1.038-5.023 1.05-2.184 2.922-3.404 1.884-1.232 4.395-1.232 1.45 0 2.861.483a7.1 7.1 0 0 1 2.572 1.57q1.159 1.074 1.847 2.85.689 1.774.689 4.37v1.207h-14.296V63.23h11.398q0-1.57-.628-2.801a4.73 4.73 0 0 0-1.763-1.944q-1.134-.712-2.68-.712-1.702 0-2.946.845a5.56 5.56 0 0 0-1.896 2.173 6.4 6.4 0 0 0-.664 2.874v1.642q0 2.1.725 3.562.736 1.448 2.04 2.21 1.303.748 3.031.748 1.122 0 2.028-.314a4.34 4.34 0 0 0 1.582-.966 4.4 4.4 0 0 0 1.026-1.618l2.753.773a6.1 6.1 0 0 1-1.461 2.463q-1.026 1.05-2.536 1.642-1.51.58-3.392.58m25.149-14.778-2.559.724a4.8 4.8 0 0 0-.713-1.243q-.458-.616-1.255-1.014-.798-.399-2.041-.399-1.703 0-2.837.785-1.123.773-1.123 1.968 0 1.063.773 1.678.773.616 2.414 1.026l2.753.677q2.487.603 3.707 1.847 1.22 1.232 1.219 3.175a4.7 4.7 0 0 1-.917 2.85q-.906 1.255-2.536 1.98-1.63.724-3.791.724-2.837 0-4.697-1.231t-2.354-3.598l2.705-.676q.386 1.497 1.46 2.245 1.088.75 2.838.749 1.992 0 3.163-.845 1.183-.858 1.183-2.053 0-.966-.676-1.618-.676-.663-2.076-.99l-3.091-.724q-2.548-.604-3.743-1.872-1.183-1.28-1.183-3.2 0-1.568.881-2.776.894-1.207 2.427-1.896 1.545-.688 3.501-.688 2.753 0 4.323 1.207 1.582 1.208 2.245 3.188m12.162 14.778q-2.511 0-4.407-1.195-1.884-1.196-2.946-3.344-1.05-2.15-1.051-5.023 0-2.898 1.051-5.06 1.062-2.16 2.946-3.356 1.896-1.195 4.407-1.195t4.395 1.195q1.894 1.195 2.946 3.357 1.062 2.16 1.062 5.059 0 2.874-1.062 5.023-1.052 2.148-2.946 3.344-1.884 1.195-4.395 1.195m0-2.56q1.908 0 3.139-.977 1.232-.978 1.823-2.572.592-1.594.592-3.453 0-1.86-.592-3.465-.591-1.605-1.823-2.596-1.231-.99-3.139-.99t-3.139.99-1.824 2.596q-.591 1.605-.591 3.465t.591 3.453q.592 1.594 1.824 2.572 1.231.978 3.139.978m24.44-5.408V55.454h2.85V74h-2.85v-3.14h-.193q-.652 1.414-2.028 2.403-1.377.978-3.478.978-1.739 0-3.09-.76-1.353-.773-2.125-2.318-.774-1.559-.773-3.924V55.454h2.849v11.592q0 2.028 1.135 3.235 1.148 1.208 2.922 1.208 1.062 0 2.161-.544 1.111-.543 1.86-1.666.76-1.122.76-2.861M581.87 74V55.455h2.753v2.8h.193q.507-1.376 1.835-2.233t2.994-.857q.315 0 .785.012t.712.036v2.898a8 8 0 0 0-.664-.109 6.5 6.5 0 0 0-1.074-.084q-1.353 0-2.415.567-1.05.555-1.666 1.546-.604.977-.604 2.233V74zm19.62.386q-2.608 0-4.492-1.231-1.882-1.231-2.898-3.393-1.014-2.16-1.014-4.938 0-2.826 1.039-4.987 1.05-2.174 2.922-3.392 1.883-1.232 4.394-1.232 1.957 0 3.526.724 1.57.725 2.572 2.029t1.243 3.042h-2.849q-.326-1.267-1.449-2.245-1.111-.99-2.994-.99-1.667 0-2.922.869-1.243.857-1.944 2.427-.688 1.558-.688 3.658 0 2.149.676 3.743.688 1.595 1.932 2.475 1.256.882 2.946.882 1.11 0 2.016-.387a4.15 4.15 0 0 0 1.533-1.11 4.25 4.25 0 0 0 .894-1.74h2.849a6.6 6.6 0 0 1-1.195 2.959q-.942 1.305-2.499 2.077-1.546.76-3.598.76m19.233 0q-2.68 0-4.624-1.183-1.932-1.195-2.982-3.332-1.038-2.15-1.039-4.999 0-2.85 1.039-5.023 1.05-2.184 2.922-3.404 1.883-1.232 4.395-1.232a8.8 8.8 0 0 1 2.861.483 7.1 7.1 0 0 1 2.572 1.57q1.159 1.074 1.847 2.85.688 1.774.688 4.37v1.207h-14.295V63.23h11.398q0-1.57-.628-2.801a4.73 4.73 0 0 0-1.763-1.944q-1.135-.712-2.68-.712-1.702 0-2.946.845a5.56 5.56 0 0 0-1.896 2.173 6.4 6.4 0 0 0-.664 2.874v1.642q0 2.1.724 3.562.737 1.448 2.041 2.21 1.303.748 3.03.748 1.123 0 2.029-.314a4.3 4.3 0 0 0 1.581-.966 4.4 4.4 0 0 0 1.027-1.618l2.753.773a6.1 6.1 0 0 1-1.461 2.463q-1.027 1.05-2.536 1.642-1.509.58-3.393.58M642.686 74V49.273h8.645q2.583 0 4.262.893 1.678.881 2.499 2.379.82 1.485.821 3.296 0 1.593-.567 2.632a4.4 4.4 0 0 1-1.473 1.642q-.906.603-1.969.893v.242q1.136.072 2.282.797 1.147.724 1.92 2.077t.773 3.308q0 1.86-.845 3.344-.846 1.485-2.669 2.355T651.62 74zm2.994-2.656h5.94q2.934 0 4.166-1.135 1.243-1.147 1.243-2.777 0-1.256-.639-2.318-.64-1.075-1.824-1.715-1.182-.651-2.801-.652h-6.085zm0-11.205h5.554q1.353 0 2.439-.531a4.27 4.27 0 0 0 1.739-1.497q.651-.966.652-2.27 0-1.63-1.135-2.765-1.135-1.147-3.598-1.147h-5.651zm36.36-4.684v2.414h-9.61v-2.414zm-6.809-4.444h2.849v17.676q0 1.208.35 1.812.363.591.918.797.567.193 1.195.193.471 0 .773-.049l.483-.096.58 2.56a6 6 0 0 1-.809.217q-.52.12-1.316.12a5.7 5.7 0 0 1-2.367-.519 4.7 4.7 0 0 1-1.908-1.581q-.748-1.063-.748-2.68zm18.431 23.375q-2.513 0-4.407-1.195-1.884-1.196-2.946-3.344-1.051-2.15-1.051-5.023 0-2.898 1.051-5.06 1.062-2.16 2.946-3.356 1.894-1.195 4.407-1.195 2.511 0 4.394 1.195 1.896 1.195 2.946 3.357 1.063 2.16 1.063 5.059 0 2.874-1.063 5.023-1.05 2.148-2.946 3.344-1.883 1.195-4.394 1.195m0-2.56q1.907 0 3.139-.977 1.232-.978 1.823-2.572t.592-3.453-.592-3.465q-.591-1.605-1.823-2.596-1.232-.99-3.139-.99-1.908 0-3.14.99-1.231.99-1.823 2.596-.591 1.605-.591 3.465t.591 3.453q.592 1.594 1.823 2.572 1.232.978 3.14.978M716.363 74V49.273h2.85V58.4h.241q.314-.483.87-1.232.567-.76 1.618-1.352 1.062-.604 2.873-.604 2.343 0 4.129 1.171 1.787 1.172 2.789 3.32 1.003 2.15 1.003 5.072 0 2.946-1.003 5.107-1.001 2.149-2.777 3.332-1.774 1.171-4.093 1.171-1.787 0-2.861-.591-1.075-.605-1.654-1.365a18 18 0 0 1-.894-1.28h-.338V74zm2.802-9.273q0 2.1.615 3.707.617 1.593 1.799 2.5 1.184.893 2.898.893 1.787 0 2.982-.942 1.208-.954 1.811-2.56.616-1.618.616-3.598 0-1.956-.604-3.525-.591-1.582-1.799-2.5-1.195-.93-3.006-.93-1.739 0-2.922.882-1.183.87-1.787 2.439-.603 1.557-.603 3.634m25.705 9.66q-2.681 0-4.624-1.184-1.932-1.195-2.983-3.332-1.038-2.15-1.038-4.999 0-2.85 1.038-5.023 1.052-2.184 2.922-3.404 1.884-1.232 4.395-1.232 1.449 0 2.862.483a7.1 7.1 0 0 1 2.571 1.57q1.16 1.074 1.848 2.85.688 1.774.688 4.37v1.207h-14.296V63.23h11.398q0-1.57-.628-2.801a4.73 4.73 0 0 0-1.763-1.944q-1.134-.712-2.68-.712-1.702 0-2.946.845a5.56 5.56 0 0 0-1.896 2.173 6.4 6.4 0 0 0-.664 2.874v1.642q0 2.1.725 3.562.736 1.448 2.04 2.21 1.305.748 3.031.748 1.123 0 2.028-.314a4.34 4.34 0 0 0 1.582-.966 4.4 4.4 0 0 0 1.026-1.618l2.753.773a6.1 6.1 0 0 1-1.461 2.463q-1.026 1.05-2.535 1.642-1.51.58-3.393.58m29.834-18.932v2.414h-9.997v-2.414zM767.702 74V52.895q0-1.594.748-2.656a4.64 4.64 0 0 1 1.944-1.594 6.14 6.14 0 0 1 2.523-.531q1.051 0 1.715.169.665.168.99.314l-.821 2.463a14 14 0 0 0-.604-.181q-.373-.11-.99-.11-1.413 0-2.04.713-.616.712-.616 2.089V74zm10.996 0V55.455h2.753v2.8h.193q.507-1.376 1.835-2.233t2.994-.857q.315 0 .785.012t.713.036v2.898a8 8 0 0 0-.665-.109 6.5 6.5 0 0 0-1.074-.084q-1.353 0-2.415.567-1.05.555-1.666 1.546-.604.977-.604 2.233V74zm19.861.386q-2.68 0-4.624-1.183-1.932-1.195-2.982-3.332-1.038-2.15-1.039-4.999 0-2.85 1.039-5.023 1.05-2.184 2.922-3.404 1.882-1.232 4.395-1.232 1.448 0 2.861.483a7.1 7.1 0 0 1 2.572 1.57q1.158 1.074 1.847 2.85.688 1.774.688 4.37v1.207h-14.295V63.23h11.398q0-1.57-.628-2.801a4.73 4.73 0 0 0-1.763-1.944q-1.135-.712-2.68-.712-1.703 0-2.946.845a5.56 5.56 0 0 0-1.896 2.173 6.4 6.4 0 0 0-.664 2.874v1.642q0 2.1.724 3.562.736 1.448 2.041 2.21 1.303.748 3.03.748 1.123 0 2.029-.314a4.3 4.3 0 0 0 1.581-.966 4.4 4.4 0 0 0 1.027-1.618l2.753.773a6.1 6.1 0 0 1-1.461 2.463q-1.027 1.05-2.536 1.642-1.509.58-3.393.58m19.789 0q-2.68 0-4.624-1.183-1.932-1.195-2.982-3.332-1.039-2.15-1.039-4.999 0-2.85 1.039-5.023 1.05-2.184 2.922-3.404 1.883-1.232 4.395-1.232a8.8 8.8 0 0 1 2.861.483 7.1 7.1 0 0 1 2.572 1.57q1.159 1.074 1.847 2.85.688 1.774.688 4.37v1.207h-14.295V63.23h11.398q0-1.57-.628-2.801a4.73 4.73 0 0 0-1.763-1.944q-1.135-.712-2.68-.712-1.702 0-2.946.845a5.56 5.56 0 0 0-1.896 2.173 6.4 6.4 0 0 0-.664 2.874v1.642q0 2.1.724 3.562.737 1.448 2.041 2.21 1.303.748 3.03.748 1.123 0 2.029-.314a4.3 4.3 0 0 0 1.581-.966 4.4 4.4 0 0 0 1.027-1.618l2.753.773a6.1 6.1 0 0 1-1.461 2.463q-1.027 1.05-2.536 1.642-1.509.58-3.393.58m19.017 0q-2.319 0-4.093-1.17-1.775-1.184-2.777-3.333-1.002-2.161-1.002-5.107 0-2.922 1.002-5.071 1.001-2.15 2.789-3.32 1.786-1.172 4.129-1.172 1.81 0 2.862.604 1.062.591 1.617 1.352.569.75.882 1.232h.241v-9.128h2.85V74h-2.753v-2.85h-.338q-.313.508-.894 1.28-.579.76-1.654 1.365-1.074.591-2.861.591m.386-2.56q1.715 0 2.898-.893 1.183-.906 1.799-2.5.615-1.605.616-3.706 0-2.077-.604-3.634-.604-1.57-1.787-2.439-1.183-.882-2.922-.881-1.81 0-3.018.93-1.196.916-1.799 2.499-.592 1.569-.592 3.525 0 1.98.604 3.598.615 1.606 1.811 2.56 1.207.942 2.994.942M314.555 672v-24.727h9.756q2.814 0 4.793 1.074 1.98 1.063 3.019 2.958 1.05 1.884 1.05 4.347t-1.062 4.347q-1.063 1.882-3.079 2.934-2.004 1.05-4.854 1.05h-6.218v-4.19h5.373q1.509 0 2.487-.519.99-.531 1.473-1.461.495-.942.495-2.161 0-1.231-.495-2.149-.483-.93-1.473-1.437-.99-.519-2.511-.519h-3.526V672zm21.917 0v-18.545h4.987v3.235h.193q.507-1.726 1.703-2.608 1.195-.893 2.752-.893.387 0 .834.048.446.049.784.133v4.564a7 7 0 0 0-1.002-.193 9 9 0 0 0-1.171-.085q-1.136 0-2.028.495a3.64 3.64 0 0 0-1.401 1.353q-.507.868-.507 2.004V672zm21.429.362q-2.814 0-4.866-1.195-2.041-1.207-3.151-3.357-1.111-2.16-1.111-5.01 0-2.874 1.111-5.023 1.11-2.161 3.151-3.357 2.052-1.207 4.866-1.207t4.853 1.207q2.053 1.196 3.164 3.357 1.11 2.15 1.11 5.023 0 2.85-1.11 5.01a8.16 8.16 0 0 1-3.164 3.357q-2.04 1.195-4.853 1.195m.024-3.984q1.28 0 2.137-.725.857-.736 1.292-2.004.447-1.268.446-2.886 0-1.617-.446-2.885-.435-1.268-1.292-2.004-.858-.737-2.137-.737-1.293 0-2.174.737-.869.736-1.316 2.004-.434 1.268-.434 2.885 0 1.619.434 2.886.447 1.268 1.316 2.004.882.725 2.174.725m20.827 3.984q-2.849 0-4.902-1.207-2.04-1.22-3.139-3.381-1.087-2.162-1.087-4.974 0-2.85 1.099-4.999 1.111-2.162 3.151-3.368 2.041-1.22 4.854-1.22 2.427 0 4.25.881 1.822.882 2.886 2.476 1.062 1.593 1.171 3.742h-4.854q-.205-1.388-1.087-2.233-.869-.858-2.282-.857-1.195 0-2.088.652-.882.64-1.377 1.871-.495 1.232-.495 2.982 0 1.776.483 3.019.495 1.244 1.389 1.895.893.652 2.088.652.882 0 1.582-.362a3.06 3.06 0 0 0 1.171-1.05q.471-.7.616-1.679h4.854q-.121 2.126-1.159 3.743-1.026 1.606-2.838 2.512-1.81.905-4.286.905m20.028 0q-2.862 0-4.926-1.159-2.053-1.171-3.164-3.308-1.11-2.15-1.111-5.083 0-2.862 1.111-5.023t3.127-3.369q2.029-1.207 4.757-1.207 1.836 0 3.417.592a7.6 7.6 0 0 1 2.777 1.75q1.195 1.172 1.86 2.946.664 1.764.664 4.13v1.412h-15.66v-3.187h10.818q0-1.111-.483-1.968a3.46 3.46 0 0 0-1.34-1.34q-.845-.495-1.968-.495-1.171 0-2.077.543a3.8 3.8 0 0 0-1.4 1.437 4.07 4.07 0 0 0-.52 1.992v3.03q0 1.377.508 2.379a3.7 3.7 0 0 0 1.461 1.545q.941.544 2.233.544.858 0 1.57-.242a3.25 3.25 0 0 0 1.219-.724q.507-.484.773-1.183l4.757.314a6.5 6.5 0 0 1-1.485 2.994q-1.11 1.268-2.874 1.98-1.75.7-4.044.7m27.299-13.619-4.709.29a2.44 2.44 0 0 0-.519-1.087 2.76 2.76 0 0 0-1.051-.785q-.639-.302-1.533-.302-1.196 0-2.016.507-.822.495-.821 1.329 0 .664.531 1.122.531.46 1.823.737l3.356.676q2.705.555 4.033 1.787t1.328 3.236q0 1.823-1.074 3.199-1.064 1.377-2.922 2.15-1.847.76-4.262.76-3.682 0-5.868-1.533-2.173-1.545-2.548-4.202l5.059-.265q.23 1.123 1.111 1.714.882.58 2.258.58 1.352 0 2.173-.52.833-.531.845-1.364-.012-.7-.591-1.147-.58-.459-1.787-.7l-3.212-.64q-2.716-.543-4.045-1.884-1.316-1.34-1.316-3.417 0-1.787.966-3.078.978-1.293 2.741-1.993 1.775-.7 4.153-.7 3.514 0 5.53 1.485 2.028 1.485 2.367 4.045m19.091 0-4.708.29a2.44 2.44 0 0 0-.52-1.087 2.75 2.75 0 0 0-1.05-.785q-.64-.302-1.533-.302-1.195 0-2.017.507-.82.495-.821 1.329 0 .664.532 1.122.53.46 1.823.737l3.356.676q2.704.555 4.033 1.787 1.328 1.232 1.328 3.236 0 1.823-1.075 3.199-1.062 1.377-2.921 2.15-1.848.76-4.262.76-3.683 0-5.868-1.533-2.173-1.545-2.548-4.202l5.059-.265q.23 1.123 1.111 1.714.88.58 2.258.58 1.352 0 2.173-.52.833-.531.845-1.364-.012-.7-.592-1.147-.58-.459-1.786-.7l-3.212-.64q-2.716-.543-4.045-1.884-1.316-1.34-1.316-3.417 0-1.787.966-3.078.978-1.293 2.741-1.993 1.774-.7 4.153-.7 3.513 0 5.53 1.485 2.028 1.485 2.366 4.045M456.798 672v-24.727h9.9q2.729 0 4.552.809t2.741 2.245q.918 1.425.917 3.285 0 1.448-.579 2.547a5 5 0 0 1-1.594 1.787 6.5 6.5 0 0 1-2.294.978v.241a5.55 5.55 0 0 1 2.644.797q1.243.737 2.017 2.065.772 1.316.772 3.139 0 1.968-.978 3.514-.965 1.533-2.861 2.427-1.896.893-4.673.893zm5.228-4.274h4.262q2.185 0 3.187-.833 1.002-.846 1.002-2.246 0-1.026-.495-1.811t-1.412-1.232q-.906-.446-2.162-.446h-4.382zm0-10.106h3.875q1.076 0 1.908-.374.845-.387 1.328-1.087.495-.7.495-1.678 0-1.34-.954-2.161-.942-.822-2.68-.821h-3.972zm30.166 3.658V672h-5.143v-24.727h4.998v9.454h.218q.627-1.642 2.028-2.572 1.401-.942 3.513-.942 1.932 0 3.369.845 1.45.834 2.246 2.403.809 1.557.797 3.731V672h-5.144v-10.891q.012-1.714-.869-2.668-.87-.954-2.439-.954-1.05 0-1.859.447-.797.447-1.256 1.304-.447.845-.459 2.04m21.362 11.072q-1.775 0-3.164-.616a5.1 5.1 0 0 1-2.197-1.847q-.797-1.231-.797-3.067 0-1.545.568-2.596.567-1.05 1.545-1.69a7.5 7.5 0 0 1 2.222-.966q1.255-.325 2.632-.459a65 65 0 0 0 2.608-.314q.99-.156 1.436-.458.447-.302.447-.894v-.072q0-1.148-.724-1.775-.712-.628-2.029-.628-1.388 0-2.209.616-.821.603-1.087 1.521l-4.757-.386q.363-1.69 1.425-2.922 1.062-1.244 2.741-1.908 1.689-.676 3.912-.676 1.545 0 2.958.362 1.424.363 2.523 1.123a5.46 5.46 0 0 1 1.751 1.956q.64 1.184.64 2.837V672h-4.878v-2.572h-.145a5.2 5.2 0 0 1-1.195 1.534 5.6 5.6 0 0 1-1.799 1.026q-1.052.362-2.427.362m1.473-3.55q1.135 0 2.004-.446a3.55 3.55 0 0 0 1.364-1.232q.495-.773.495-1.751v-1.968a2.7 2.7 0 0 1-.664.29q-.41.121-.929.23-.52.096-1.039.181-.52.072-.941.133a6.4 6.4 0 0 0-1.582.422q-.676.29-1.051.785-.374.483-.374 1.207 0 1.051.761 1.606.772.543 1.956.543m28.392-10.057-4.709.29a2.44 2.44 0 0 0-.519-1.087 2.76 2.76 0 0 0-1.051-.785q-.64-.302-1.533-.302-1.195 0-2.017.507-.82.495-.821 1.329 0 .664.532 1.122.53.46 1.823.737l3.356.676q2.705.555 4.033 1.787t1.328 3.236q0 1.823-1.074 3.199-1.063 1.377-2.922 2.15-1.848.76-4.262.76-3.683 0-5.868-1.533-2.173-1.545-2.548-4.202l5.059-.265q.23 1.123 1.111 1.714.88.58 2.258.58 1.352 0 2.173-.52.833-.531.845-1.364-.012-.7-.592-1.147-.58-.459-1.786-.7l-3.212-.64q-2.716-.543-4.045-1.884-1.316-1.34-1.316-3.417 0-1.787.966-3.078.978-1.293 2.741-1.993 1.774-.7 4.153-.7 3.514 0 5.53 1.485 2.028 1.485 2.367 4.045M554.949 672v-18.545h4.987v3.235h.193q.507-1.726 1.702-2.608 1.196-.893 2.753-.893.386 0 .833.048.447.049.785.133v4.564a7 7 0 0 0-1.002-.193 9 9 0 0 0-1.171-.085q-1.135 0-2.029.495a3.65 3.65 0 0 0-1.4 1.353q-.507.868-.507 2.004V672zm21.501.362q-2.862 0-4.927-1.159-2.052-1.171-3.163-3.308-1.11-2.15-1.111-5.083 0-2.862 1.111-5.023t3.127-3.369q2.028-1.207 4.757-1.207 1.836 0 3.417.592a7.6 7.6 0 0 1 2.777 1.75q1.195 1.172 1.86 2.946.663 1.764.664 4.13v1.412h-15.66v-3.187h10.818q0-1.111-.483-1.968a3.46 3.46 0 0 0-1.34-1.34q-.846-.495-1.968-.495-1.171 0-2.077.543a3.8 3.8 0 0 0-1.4 1.437 4.04 4.04 0 0 0-.52 1.992v3.03q0 1.377.507 2.379a3.7 3.7 0 0 0 1.461 1.545q.942.544 2.234.544.858 0 1.57-.242a3.25 3.25 0 0 0 1.219-.724q.507-.484.773-1.183l4.757.314a6.5 6.5 0 0 1-1.485 2.994q-1.11 1.268-2.874 1.98-1.75.7-4.044.7m27.299-13.619-4.709.29a2.44 2.44 0 0 0-.519-1.087 2.76 2.76 0 0 0-1.051-.785q-.64-.302-1.533-.302-1.195 0-2.017.507-.82.495-.821 1.329 0 .664.532 1.122.531.46 1.823.737l3.356.676q2.705.555 4.033 1.787t1.328 3.236q0 1.823-1.074 3.199-1.063 1.377-2.922 2.15-1.848.76-4.262.76-3.683 0-5.868-1.533-2.173-1.545-2.548-4.202l5.059-.265q.23 1.123 1.111 1.714.88.58 2.258.58 1.352 0 2.173-.52.833-.531.845-1.364-.012-.7-.591-1.147-.58-.459-1.787-.7l-3.212-.64q-2.716-.543-4.045-1.884-1.316-1.34-1.316-3.417 0-1.787.966-3.078.978-1.293 2.741-1.993 1.775-.7 4.153-.7 3.514 0 5.53 1.485 2.028 1.485 2.367 4.045m12.04 13.619q-2.812 0-4.866-1.195-2.04-1.207-3.151-3.357-1.11-2.16-1.111-5.01 0-2.874 1.111-5.023 1.111-2.161 3.151-3.357 2.053-1.207 4.866-1.207 2.814 0 4.854 1.207 2.053 1.196 3.163 3.357 1.111 2.15 1.111 5.023 0 2.85-1.111 5.01a8.15 8.15 0 0 1-3.163 3.357q-2.04 1.195-4.854 1.195m.024-3.984q1.28 0 2.137-.725.858-.736 1.292-2.004.447-1.268.447-2.886 0-1.617-.447-2.885-.434-1.268-1.292-2.004-.856-.737-2.137-.737-1.291 0-2.173.737-.869.736-1.316 2.004-.435 1.268-.435 2.885 0 1.619.435 2.886.447 1.268 1.316 2.004.882.725 2.173.725m24.341-4.274v-10.649h5.144V672h-4.938v-3.369h-.194a5.47 5.47 0 0 1-2.088 2.62q-1.45.99-3.538.99-1.86 0-3.272-.845-1.413-.845-2.21-2.402-.784-1.558-.796-3.731v-11.808h5.143v10.89q.012 1.642.881 2.596.87.954 2.331.954.929 0 1.738-.423.81-.434 1.304-1.28.507-.844.495-2.088m9.258 7.896v-18.545h4.986v3.235h.194q.507-1.726 1.702-2.608 1.196-.893 2.753-.893.386 0 .833.048.447.049.785.133v4.564a7 7 0 0 0-1.002-.193 9 9 0 0 0-1.172-.085q-1.134 0-2.028.495a3.65 3.65 0 0 0-1.401 1.353q-.507.868-.507 2.004V672zm21.428.362q-2.85 0-4.902-1.207-2.04-1.22-3.139-3.381-1.087-2.162-1.087-4.974 0-2.85 1.099-4.999 1.11-2.162 3.151-3.368 2.04-1.22 4.854-1.22 2.427 0 4.25.881 1.823.882 2.886 2.476 1.062 1.593 1.171 3.742h-4.854q-.205-1.388-1.087-2.233-.869-.858-2.282-.857-1.195 0-2.088.652-.882.64-1.377 1.871-.495 1.232-.495 2.982 0 1.776.483 3.019.495 1.244 1.389 1.895.893.652 2.088.652.882 0 1.582-.362a3.06 3.06 0 0 0 1.171-1.05q.47-.7.616-1.679h4.854q-.121 2.126-1.159 3.743-1.027 1.606-2.838 2.512-1.81.905-4.286.905m20.028 0q-2.862 0-4.927-1.159-2.052-1.171-3.163-3.308-1.11-2.15-1.111-5.083 0-2.862 1.111-5.023t3.127-3.369q2.028-1.207 4.757-1.207 1.836 0 3.417.592a7.6 7.6 0 0 1 2.777 1.75q1.196 1.172 1.86 2.946.663 1.764.664 4.13v1.412h-15.66v-3.187h10.818q0-1.111-.483-1.968a3.46 3.46 0 0 0-1.34-1.34q-.846-.495-1.968-.495-1.171 0-2.077.543a3.8 3.8 0 0 0-1.4 1.437 4.04 4.04 0 0 0-.52 1.992v3.03q0 1.377.507 2.379a3.7 3.7 0 0 0 1.461 1.545q.942.544 2.234.544.858 0 1.57-.242a3.25 3.25 0 0 0 1.219-.724q.507-.484.773-1.183l4.757.314a6.5 6.5 0 0 1-1.485 2.994q-1.111 1.268-2.874 1.98-1.75.7-4.044.7m19.834-.362v-24.727h9.9q2.73 0 4.552.809 1.824.809 2.741 2.245.918 1.425.918 3.285 0 1.448-.58 2.547a5 5 0 0 1-1.594 1.787 6.5 6.5 0 0 1-2.294.978v.241a5.55 5.55 0 0 1 2.645.797q1.244.737 2.016 2.065.773 1.316.773 3.139 0 1.968-.978 3.514-.966 1.533-2.862 2.427-1.896.893-4.672.893zm5.228-4.274h4.262q2.185 0 3.187-.833 1.003-.846 1.003-2.246 0-1.026-.495-1.811t-1.413-1.232q-.906-.446-2.161-.446h-4.383zm0-10.106h3.876q1.074 0 1.907-.374.845-.387 1.328-1.087.495-.7.495-1.678 0-1.34-.953-2.161-.942-.822-2.681-.821h-3.972zm32.729 14.815q-1.763 0-3.199-.664-1.437-.677-2.282-1.944-.846-1.28-.846-3.091 0-1.594.628-2.584a4.44 4.44 0 0 1 1.678-1.57 8.8 8.8 0 0 1 2.319-.845q1.28-.29 2.571-.459 1.69-.216 2.741-.326 1.063-.12 1.546-.398.495-.278.495-.966v-.097q0-1.786-.978-2.777-.966-.99-2.934-.99-2.041 0-3.2.894-1.16.893-1.63 1.908l-2.704-.966q.725-1.691 1.931-2.632a7.25 7.25 0 0 1 2.657-1.329 11 11 0 0 1 2.849-.386q.894 0 2.053.217 1.17.205 2.258.858 1.098.651 1.823 1.968t.724 3.525V672h-2.849v-2.511h-.145q-.29.603-.966 1.292-.677.688-1.799 1.171-1.123.483-2.741.483m.435-2.56q1.69 0 2.849-.664 1.172-.664 1.763-1.715a4.37 4.37 0 0 0 .604-2.209v-2.608q-.182.218-.797.398-.605.17-1.401.302-.785.121-1.533.218-.737.084-1.195.144-1.111.146-2.077.471-.954.315-1.546.954-.579.628-.579 1.715 0 1.485 1.099 2.245 1.11.749 2.813.749m16.115-9.031V672h-2.849v-18.545h2.753v2.897h.241a5.3 5.3 0 0 1 1.98-2.27q1.329-.869 3.429-.869 1.884 0 3.296.773 1.413.76 2.198 2.318.785 1.545.785 3.912V672h-2.85v-11.591q0-2.185-1.135-3.405-1.134-1.231-3.115-1.231-1.364 0-2.439.591-1.062.592-1.678 1.727t-.616 2.753m24.042 11.542q-2.317 0-4.093-1.171-1.775-1.183-2.777-3.332-1.002-2.161-1.002-5.107 0-2.923 1.002-5.071 1.002-2.15 2.789-3.321t4.13-1.171q1.81 0 2.861.604 1.063.591 1.618 1.352.567.749.882 1.232h.241v-9.128h2.849V672h-2.752v-2.849h-.338q-.315.507-.894 1.279-.58.76-1.654 1.365-1.074.591-2.862.591m.387-2.559q1.715 0 2.898-.894 1.182-.905 1.799-2.499.615-1.606.615-3.707 0-2.076-.603-3.634-.605-1.569-1.787-2.439-1.183-.88-2.922-.881-1.812 0-3.019.929-1.195.918-1.799 2.5-.591 1.569-.591 3.525 0 1.98.603 3.598.617 1.606 1.811 2.56 1.207.942 2.995.942m23.29 2.173v-18.545h2.85V672zm1.449-21.636a2.03 2.03 0 0 1-1.437-.568 1.82 1.82 0 0 1-.591-1.364q0-.796.591-1.365a2.03 2.03 0 0 1 1.437-.567q.833 0 1.425.567.604.569.604 1.365 0 .797-.604 1.364a1.99 1.99 0 0 1-1.425.568m19.756 7.244-2.56.724a4.8 4.8 0 0 0-.712-1.243q-.458-.616-1.256-1.014-.797-.399-2.04-.399-1.703 0-2.838.785-1.122.773-1.122 1.968 0 1.063.772 1.678.773.616 2.415 1.027l2.753.676q2.487.603 3.707 1.847 1.22 1.231 1.219 3.175a4.7 4.7 0 0 1-.918 2.85q-.904 1.255-2.535 1.98-1.63.724-3.791.724-2.837 0-4.697-1.231t-2.354-3.598l2.704-.676q.387 1.497 1.461 2.245 1.087.749 2.837.749 1.993 0 3.164-.845 1.183-.858 1.183-2.053 0-.966-.676-1.618-.676-.663-2.077-.99l-3.091-.724q-2.547-.604-3.743-1.872-1.183-1.28-1.183-3.199 0-1.57.882-2.777.893-1.207 2.426-1.896 1.546-.688 3.502-.688 2.753 0 4.322 1.207 1.582 1.208 2.246 3.188M852.525 672l-5.651-18.545h2.994l4.009 14.198h.193l3.96-14.198h3.043l3.912 14.15h.193l4.008-14.15h2.995L866.53 672h-2.801l-4.057-14.247h-.29L855.326 672zm28.88.435q-1.763 0-3.199-.664-1.437-.677-2.282-1.944-.846-1.28-.846-3.091 0-1.594.628-2.584a4.44 4.44 0 0 1 1.679-1.57q1.05-.567 2.318-.845 1.28-.29 2.572-.459 1.69-.216 2.74-.326 1.063-.12 1.546-.398.495-.278.495-.966v-.097q0-1.786-.978-2.777-.966-.99-2.934-.99-2.041 0-3.2.894-1.159.893-1.63 1.908l-2.704-.966q.724-1.691 1.932-2.632a7.25 7.25 0 0 1 2.656-1.329 11 11 0 0 1 2.849-.386q.894 0 2.053.217a6.6 6.6 0 0 1 2.258.858q1.098.651 1.823 1.968t.724 3.525V672h-2.849v-2.511h-.145q-.29.603-.966 1.292-.676.688-1.799 1.171t-2.741.483m.435-2.56q1.69 0 2.849-.664 1.172-.664 1.763-1.715a4.36 4.36 0 0 0 .604-2.209v-2.608q-.182.218-.797.398a13 13 0 0 1-1.401.302q-.784.121-1.533.218-.737.084-1.195.144-1.111.146-2.077.471-.954.315-1.546.954-.579.628-.579 1.715 0 1.485 1.099 2.245 1.11.749 2.813.749M895.106 672v-18.545h2.849V672zm1.449-21.636q-.833 0-1.437-.568a1.82 1.82 0 0 1-.592-1.364q0-.796.592-1.365a2.03 2.03 0 0 1 1.437-.567q.832 0 1.425.567.603.569.603 1.365 0 .797-.603 1.364-.592.568-1.425.568m14.685 3.091v2.414h-9.611v-2.414zm-6.81-4.444h2.849v17.677q0 1.206.351 1.811.362.591.917.796.568.194 1.196.194.47 0 .772-.049l.483-.096.58 2.559a6 6 0 0 1-.809.218q-.52.12-1.316.12a5.7 5.7 0 0 1-2.367-.519 4.7 4.7 0 0 1-1.907-1.581q-.749-1.063-.749-2.681zM915.526 672v-18.545h2.849V672zm1.449-21.636q-.834 0-1.437-.568a1.82 1.82 0 0 1-.592-1.364q0-.796.592-1.365a2.03 2.03 0 0 1 1.437-.567q.832 0 1.425.567.603.569.603 1.365 0 .797-.603 1.364-.592.568-1.425.568m9.469 10.48V672h-2.85v-18.545h2.753v2.897h.242a5.3 5.3 0 0 1 1.98-2.27q1.328-.869 3.429-.869 1.883 0 3.296.773 1.413.76 2.197 2.318.786 1.545.785 3.912V672h-2.849v-11.591q0-2.185-1.135-3.405-1.135-1.231-3.115-1.231-1.365 0-2.439.591-1.063.592-1.679 1.727-.615 1.135-.615 2.753m24.525 18.497q-2.065 0-3.55-.531-1.485-.519-2.475-1.377-.978-.845-1.558-1.811l2.27-1.594q.387.507.978 1.16.592.663 1.618 1.147 1.038.495 2.717.495 2.245 0 3.706-1.087t1.461-3.405v-3.767h-.241q-.313.507-.894 1.256-.567.736-1.642 1.316-1.062.567-2.873.567-2.246 0-4.033-1.062-1.775-1.063-2.813-3.091-1.026-2.029-1.026-4.926 0-2.85 1.002-4.963 1.002-2.124 2.789-3.284 1.787-1.171 4.129-1.171 1.81 0 2.874.604 1.074.591 1.642 1.352.58.749.893 1.232h.29v-2.946h2.753v19.076q0 2.391-1.087 3.888-1.074 1.51-2.898 2.21-1.81.712-4.032.712m-.097-10.19q1.715 0 2.898-.785t1.799-2.258.616-3.526q0-2.004-.604-3.537-.603-1.534-1.787-2.403-1.183-.87-2.922-.869-1.81 0-3.018.917-1.196.918-1.799 2.463-.592 1.546-.592 3.429 0 1.932.604 3.417.615 1.473 1.811 2.318 1.207.834 2.994.834m-514.808 25.304v2.414h-9.997v-2.414zM429.061 713v-21.105q0-1.594.748-2.656a4.64 4.64 0 0 1 1.944-1.594 6.15 6.15 0 0 1 2.524-.531q1.05 0 1.714.169.664.168.99.314l-.821 2.463a13 13 0 0 0-.603-.181q-.375-.11-.99-.109-1.413 0-2.041.712-.616.712-.616 2.089V713zm17.767.386q-2.513 0-4.407-1.195-1.884-1.196-2.946-3.344-1.051-2.15-1.051-5.023 0-2.898 1.051-5.059 1.062-2.161 2.946-3.357 1.894-1.194 4.407-1.195 2.511 0 4.394 1.195 1.896 1.196 2.947 3.357 1.062 2.161 1.062 5.059 0 2.874-1.062 5.023-1.051 2.148-2.947 3.344-1.883 1.195-4.394 1.195m0-2.559q1.907 0 3.139-.978 1.232-.979 1.823-2.572.591-1.595.592-3.453 0-1.86-.592-3.465-.591-1.606-1.823-2.596t-3.139-.99q-1.908 0-3.14.99-1.231.99-1.823 2.596-.591 1.605-.591 3.465 0 1.858.591 3.453.592 1.593 1.823 2.572 1.232.978 3.14.978M459.581 713v-18.545h2.752v2.801h.194q.507-1.376 1.835-2.234 1.327-.857 2.994-.857.314 0 .785.012.47.012.712.036v2.898a8 8 0 0 0-.664-.109 6.6 6.6 0 0 0-1.074-.084q-1.353 0-2.415.567-1.05.555-1.666 1.546-.604.978-.604 2.233V713zm22.599 0v-24.727h8.355q2.897 0 4.757.99 1.86.978 2.753 2.692t.893 3.9-.893 3.876q-.894 1.69-2.741 2.656-1.847.954-4.721.954h-6.761v-2.705h6.665q1.98 0 3.187-.579 1.22-.58 1.763-1.642.555-1.075.555-2.56t-.555-2.596q-.555-1.11-1.775-1.714-1.219-.616-3.224-.616h-5.264V713zm11.639-11.108L499.904 713h-3.477l-5.989-11.108zm17.299 11.494q-2.68 0-4.624-1.183-1.932-1.196-2.983-3.332-1.038-2.15-1.038-4.999t1.038-5.023q1.052-2.184 2.922-3.404 1.884-1.232 4.395-1.232 1.449 0 2.862.483a7.1 7.1 0 0 1 2.571 1.57q1.16 1.074 1.848 2.849.688 1.774.688 4.371v1.207h-14.296v-2.463h11.398q0-1.57-.628-2.801a4.73 4.73 0 0 0-1.762-1.944q-1.136-.712-2.681-.712-1.702 0-2.946.845a5.55 5.55 0 0 0-1.895 2.173 6.4 6.4 0 0 0-.665 2.874v1.642q0 2.1.725 3.562.736 1.449 2.04 2.209 1.305.749 3.031.749 1.123 0 2.028-.314a4.4 4.4 0 0 0 1.582-.966 4.4 4.4 0 0 0 1.026-1.618l2.753.773a6.1 6.1 0 0 1-1.461 2.463q-1.026 1.05-2.535 1.642-1.51.579-3.393.579m25.15-14.778-2.56.724a4.8 4.8 0 0 0-.712-1.243q-.46-.616-1.256-1.014-.796-.399-2.04-.399-1.703 0-2.838.785-1.123.773-1.123 1.968 0 1.063.773 1.678.773.616 2.415 1.027l2.753.676q2.487.603 3.706 1.847 1.22 1.231 1.22 3.175a4.7 4.7 0 0 1-.918 2.85q-.905 1.255-2.535 1.98-1.63.724-3.791.724-2.838 0-4.697-1.231-1.86-1.232-2.355-3.598l2.705-.676q.385 1.497 1.461 2.245 1.086.749 2.837.749 1.992 0 3.164-.845 1.183-.858 1.183-2.053 0-.966-.676-1.618-.676-.663-2.077-.99l-3.091-.724q-2.547-.604-3.743-1.872-1.183-1.28-1.183-3.199 0-1.57.881-2.777.894-1.207 2.427-1.896 1.545-.688 3.502-.688 2.753 0 4.322 1.207 1.581 1.208 2.246 3.188m12.161 14.778q-2.511 0-4.407-1.195-1.883-1.196-2.946-3.344-1.05-2.15-1.05-5.023 0-2.898 1.05-5.059 1.063-2.161 2.946-3.357 1.896-1.194 4.407-1.195 2.511 0 4.395 1.195 1.896 1.196 2.946 3.357 1.062 2.161 1.063 5.059 0 2.874-1.063 5.023-1.05 2.148-2.946 3.344-1.884 1.195-4.395 1.195m0-2.559q1.908 0 3.139-.978 1.232-.979 1.824-2.572.591-1.595.591-3.453 0-1.86-.591-3.465-.593-1.606-1.824-2.596t-3.139-.99-3.139.99-1.823 2.596-.592 3.465.592 3.453q.591 1.593 1.823 2.572 1.231.978 3.139.978m24.441-5.409v-10.963h2.849V713h-2.849v-3.139h-.194q-.651 1.413-2.028 2.402-1.377.978-3.477.978-1.739 0-3.091-.76-1.353-.773-2.125-2.318-.773-1.558-.773-3.924v-11.784h2.85v11.59q0 2.029 1.135 3.236 1.146 1.208 2.921 1.208 1.063 0 2.162-.544 1.11-.543 1.859-1.666.76-1.122.761-2.861m8.068 7.582v-18.545h2.753v2.801h.193q.507-1.376 1.835-2.234 1.329-.857 2.995-.857.313 0 .784.012t.713.036v2.898a8 8 0 0 0-.664-.109 6.6 6.6 0 0 0-1.075-.084q-1.351 0-2.415.567-1.05.555-1.666 1.546-.604.978-.604 2.233V713zm19.62.386q-2.609 0-4.491-1.231-1.884-1.231-2.898-3.393t-1.014-4.938q0-2.826 1.038-4.987 1.05-2.173 2.922-3.392 1.884-1.232 4.395-1.232 1.956 0 3.525.725a6.74 6.74 0 0 1 2.572 2.028q1.002 1.303 1.244 3.043h-2.85q-.326-1.269-1.449-2.246-1.11-.99-2.994-.99-1.667 0-2.922.869-1.244.857-1.944 2.427-.688 1.558-.688 3.658 0 2.15.676 3.743.688 1.594 1.932 2.475 1.255.882 2.946.882 1.111 0 2.016-.387a4.2 4.2 0 0 0 1.534-1.11 4.3 4.3 0 0 0 .893-1.739h2.85a6.6 6.6 0 0 1-1.196 2.958q-.941 1.304-2.499 2.077-1.545.76-3.598.76m19.234 0q-2.68 0-4.625-1.183-1.931-1.196-2.982-3.332-1.038-2.15-1.038-4.999t1.038-5.023q1.05-2.184 2.922-3.404 1.884-1.232 4.395-1.232 1.45 0 2.861.483a7.1 7.1 0 0 1 2.572 1.57q1.16 1.074 1.847 2.849.689 1.774.689 4.371v1.207h-14.296v-2.463h11.398q0-1.57-.628-2.801a4.73 4.73 0 0 0-1.763-1.944q-1.134-.712-2.68-.712-1.702 0-2.946.845a5.56 5.56 0 0 0-1.896 2.173 6.4 6.4 0 0 0-.664 2.874v1.642q0 2.1.725 3.562.736 1.449 2.04 2.209 1.305.749 3.031.749 1.122 0 2.028-.314a4.4 4.4 0 0 0 1.582-.966 4.4 4.4 0 0 0 1.026-1.618l2.753.773a6.1 6.1 0 0 1-1.461 2.463q-1.026 1.05-2.536 1.642-1.51.579-3.392.579m22.976-.386h-3.139l9.08-24.727h3.091L660.879 713h-3.139l-7.389-20.815h-.194zm1.159-9.659h12.654v2.656h-12.654zm38.045-8.886v2.414h-9.611v-2.414zm-6.81-4.444h2.85v17.677q0 1.206.35 1.811.362.591.918.796.567.194 1.195.194.47 0 .773-.049l.483-.096.579 2.559a6 6 0 0 1-.809.218q-.52.12-1.316.12a5.7 5.7 0 0 1-2.366-.519 4.7 4.7 0 0 1-1.908-1.581q-.749-1.063-.749-2.681zm18.431 23.375q-2.511 0-4.407-1.195-1.883-1.196-2.946-3.344-1.05-2.15-1.05-5.023 0-2.898 1.05-5.059 1.063-2.161 2.946-3.357 1.896-1.194 4.407-1.195 2.511 0 4.395 1.195 1.896 1.196 2.946 3.357 1.063 2.161 1.063 5.059 0 2.874-1.063 5.023-1.05 2.148-2.946 3.344-1.884 1.195-4.395 1.195m0-2.559q1.908 0 3.139-.978 1.231-.979 1.824-2.572.591-1.595.591-3.453 0-1.86-.591-3.465-.592-1.606-1.824-2.596-1.231-.99-3.139-.99t-3.139.99-1.823 2.596-.592 3.465.592 3.453q.591 1.593 1.823 2.572 1.231.978 3.139.978M716.295 713v-24.727h2.85v9.128h.241q.314-.483.869-1.232.568-.76 1.618-1.352 1.063-.604 2.874-.604 2.342 0 4.129 1.171t2.789 3.321 1.002 5.071q0 2.946-1.002 5.107-1.002 2.149-2.777 3.332-1.774 1.171-4.093 1.171-1.787 0-2.861-.591-1.075-.604-1.655-1.365a18 18 0 0 1-.893-1.279h-.338V713zm2.801-9.273q0 2.101.616 3.707.616 1.594 1.799 2.499 1.183.894 2.898.894 1.786 0 2.982-.942 1.208-.954 1.811-2.56.616-1.618.616-3.598 0-1.956-.604-3.525-.591-1.582-1.799-2.5-1.196-.929-3.006-.929-1.739 0-2.922.881-1.184.87-1.787 2.439-.604 1.558-.604 3.634m25.705 9.659q-2.68 0-4.624-1.183-1.932-1.196-2.982-3.332-1.038-2.15-1.038-4.999t1.038-5.023q1.05-2.184 2.922-3.404 1.883-1.232 4.395-1.232 1.448 0 2.861.483a7.1 7.1 0 0 1 2.572 1.57q1.159 1.074 1.847 2.849.688 1.774.688 4.371v1.207h-14.295v-2.463h11.398q0-1.57-.628-2.801a4.73 4.73 0 0 0-1.763-1.944q-1.135-.712-2.68-.712-1.702 0-2.946.845a5.56 5.56 0 0 0-1.896 2.173 6.4 6.4 0 0 0-.664 2.874v1.642q0 2.1.724 3.562.737 1.449 2.041 2.209 1.303.749 3.03.749 1.123 0 2.029-.314a4.4 4.4 0 0 0 1.582-.966 4.4 4.4 0 0 0 1.026-1.618l2.753.773a6.1 6.1 0 0 1-1.461 2.463q-1.026 1.05-2.536 1.642-1.509.579-3.393.579m29.835-18.931v2.414h-9.997v-2.414zM767.633 713v-21.105q0-1.594.749-2.656a4.63 4.63 0 0 1 1.944-1.594 6.15 6.15 0 0 1 2.523-.531q1.05 0 1.715.169.663.168.99.314l-.821 2.463a13 13 0 0 0-.604-.181q-.375-.11-.99-.109-1.413 0-2.041.712-.615.712-.615 2.089V713zm10.996 0v-18.545h2.753v2.801h.193q.508-1.376 1.836-2.234 1.327-.857 2.994-.857.314 0 .785.012.47.012.712.036v2.898a8 8 0 0 0-.664-.109 6.6 6.6 0 0 0-1.074-.084q-1.353 0-2.415.567a4.27 4.27 0 0 0-1.666 1.546q-.604.978-.604 2.233V713zm19.862.386q-2.68 0-4.624-1.183-1.932-1.196-2.983-3.332-1.038-2.15-1.038-4.999t1.038-5.023q1.051-2.184 2.922-3.404 1.884-1.232 4.395-1.232 1.449 0 2.862.483a7.1 7.1 0 0 1 2.571 1.57q1.16 1.074 1.848 2.849.688 1.774.688 4.371v1.207h-14.296v-2.463h11.398q0-1.57-.628-2.801a4.73 4.73 0 0 0-1.762-1.944q-1.136-.712-2.681-.712-1.702 0-2.946.845a5.55 5.55 0 0 0-1.895 2.173 6.4 6.4 0 0 0-.665 2.874v1.642q0 2.1.725 3.562.736 1.449 2.04 2.209 1.305.749 3.031.749 1.123 0 2.028-.314a4.4 4.4 0 0 0 1.582-.966 4.4 4.4 0 0 0 1.026-1.618l2.753.773a6.1 6.1 0 0 1-1.461 2.463q-1.026 1.05-2.535 1.642-1.509.579-3.393.579m19.789 0q-2.68 0-4.624-1.183-1.932-1.196-2.983-3.332-1.038-2.15-1.038-4.999t1.038-5.023q1.052-2.184 2.922-3.404 1.884-1.232 4.395-1.232 1.449 0 2.862.483a7.1 7.1 0 0 1 2.571 1.57q1.16 1.074 1.848 2.849.688 1.774.688 4.371v1.207h-14.295v-2.463h11.397q0-1.57-.628-2.801a4.73 4.73 0 0 0-1.762-1.944q-1.135-.712-2.681-.712-1.702 0-2.946.845a5.55 5.55 0 0 0-1.895 2.173 6.4 6.4 0 0 0-.664 2.874v1.642q0 2.1.724 3.562.737 1.449 2.04 2.209 1.305.749 3.031.749 1.123 0 2.028-.314a4.4 4.4 0 0 0 1.582-.966 4.4 4.4 0 0 0 1.026-1.618l2.753.773a6.1 6.1 0 0 1-1.461 2.463q-1.026 1.05-2.535 1.642-1.509.579-3.393.579m19.016 0q-2.317 0-4.093-1.171-1.775-1.183-2.777-3.332-1.002-2.161-1.002-5.107 0-2.922 1.002-5.071 1.002-2.15 2.789-3.321t4.13-1.171q1.81 0 2.861.604 1.063.591 1.618 1.352.567.749.881 1.232h.242v-9.128h2.849V713h-2.752v-2.849h-.339q-.314.507-.893 1.279-.58.76-1.654 1.365-1.075.591-2.862.591m.387-2.559q1.715 0 2.897-.894 1.184-.905 1.799-2.499.616-1.606.616-3.707 0-2.076-.603-3.634-.605-1.569-1.787-2.439-1.183-.88-2.922-.881-1.812 0-3.019.929-1.195.918-1.799 2.5-.591 1.569-.591 3.525 0 1.98.603 3.598.617 1.606 1.811 2.56 1.207.942 2.995.942M975.648 426v-29.091h9.829q3.41 0 5.597 1.165 2.187 1.15 3.238 3.167t1.052 4.589q0 2.57-1.052 4.559-1.05 1.99-3.224 3.125-2.173 1.122-5.554 1.122h-7.954v-3.181h7.84q2.33 0 3.75-.682 1.435-.682 2.074-1.932.654-1.265.654-3.011 0-1.748-.654-3.054-.653-1.308-2.088-2.017-1.434-.725-3.792-.725h-6.194V426zm13.693-13.068L996.5 426h-4.091l-7.045-13.068zm20.349 13.523c-2.1 0-3.91-.464-5.44-1.393q-2.265-1.406-3.51-3.92-1.217-2.529-1.218-5.881 0-3.351 1.218-5.909c.83-1.714 1.97-3.049 3.44-4.005 1.48-.966 3.2-1.449 5.17-1.449 1.14 0 2.26.189 3.37.568s2.11.994 3.02 1.846c.91.843 1.64 1.961 2.18 3.353q.81 2.088.81 5.142v1.42h-16.82v-2.897h13.41c0-1.232-.25-2.33-.74-3.296a5.56 5.56 0 0 0-2.08-2.287q-1.335-.838-3.15-.838c-1.33 0-2.49.332-3.46.994a6.5 6.5 0 0 0-2.23 2.557 7.4 7.4 0 0 0-.79 3.381v1.932c0 1.647.29 3.044.86 4.19q.855 1.704 2.4 2.599c1.02.588 2.21.881 3.56.881.88 0 1.68-.123 2.39-.369a5.1 5.1 0 0 0 1.86-1.136c.52-.512.92-1.146 1.21-1.904l3.24.909a7.34 7.34 0 0 1-1.72 2.898c-.81.824-1.8 1.468-2.99 1.932q-1.77.682-3.99.682m29.59-17.387-3.01.852a5.6 5.6 0 0 0-.84-1.463c-.36-.483-.85-.88-1.48-1.193q-.93-.469-2.4-.469-1.995 0-3.33.924c-.89.606-1.33 1.378-1.33 2.315 0 .833.31 1.492.91 1.975.61.482 1.56.885 2.84 1.207l3.24.795c1.95.474 3.41 1.198 4.36 2.174q1.44 1.449 1.44 3.735 0 1.875-1.08 3.353c-.71.985-1.71 1.761-2.98 2.329-1.28.568-2.77.853-4.46.853-2.23 0-4.07-.483-5.53-1.449s-2.38-2.377-2.77-4.233l3.18-.796c.3 1.175.88 2.055 1.72 2.642.85.587 1.97.881 3.34.881q2.34 0 3.72-.994c.93-.673 1.39-1.478 1.39-2.415 0-.758-.26-1.392-.79-1.903-.53-.521-1.35-.91-2.45-1.165l-3.63-.853q-3-.71-4.41-2.201c-.92-1.004-1.39-2.259-1.39-3.764 0-1.232.35-2.321 1.04-3.267q1.05-1.42 2.85-2.231c1.22-.539 2.59-.809 4.12-.809 2.16 0 3.86.473 5.09 1.42q1.86 1.42 2.64 3.75m14.31 17.387q-2.955 0-5.19-1.407c-1.47-.937-2.63-2.249-3.46-3.934s-1.24-3.656-1.24-5.909c0-2.273.41-4.257 1.24-5.952s1.99-3.012 3.46-3.949q2.235-1.406 5.19-1.406c1.97 0 3.69.468 5.17 1.406 1.49.937 2.64 2.254 3.46 3.949.84 1.695 1.25 3.679 1.25 5.952 0 2.253-.41 4.223-1.25 5.909-.82 1.685-1.97 2.997-3.46 3.934-1.48.938-3.2 1.407-5.17 1.407m0-3.012c1.49 0 2.73-.383 3.69-1.15.97-.767 1.68-1.776 2.15-3.026q.69-1.875.69-4.062t-.69-4.077c-.47-1.26-1.18-2.278-2.15-3.054-.96-.777-2.2-1.165-3.69-1.165-1.5 0-2.73.388-3.7 1.165-.96.776-1.68 1.794-2.14 3.054s-.7 2.618-.7 4.077c0 1.458.24 2.812.7 4.062s1.18 2.259 2.14 3.026c.97.767 2.2 1.15 3.7 1.15m28.75-6.363v-12.898h3.35V426h-3.35v-3.693h-.23c-.51 1.108-1.3 2.05-2.38 2.827-1.08.767-2.45 1.15-4.09 1.15-1.37 0-2.58-.298-3.64-.895-1.06-.606-1.89-1.515-2.5-2.727-.61-1.222-.91-2.76-.91-4.617v-13.863h3.35v13.636c0 1.591.45 2.86 1.34 3.807.9.947 2.04 1.42 3.44 1.42.83 0 1.68-.213 2.54-.639q1.305-.639 2.19-1.96c.59-.881.89-2.003.89-3.366m9.49 8.92v-21.818h3.24v3.295h.23q.6-1.618 2.16-2.628c1.04-.672 2.21-1.008 3.52-1.008.25 0 .56.005.92.014q.555.015.84.043v3.409a9 9 0 0 0-.78-.128q-.6-.099-1.26-.099c-1.06 0-2.01.222-2.84.667a5 5 0 0 0-1.96 1.818c-.48.767-.71 1.643-.71 2.628V426zm23.09.455c-2.05 0-3.81-.483-5.29-1.449s-2.61-2.297-3.41-3.992c-.79-1.695-1.19-3.631-1.19-5.809 0-2.216.41-4.172 1.22-5.867.83-1.704 1.97-3.035 3.44-3.991 1.48-.966 3.2-1.449 5.17-1.449 1.53 0 2.92.284 4.15.852s2.24 1.364 3.02 2.386q1.185 1.534 1.47 3.58h-3.36c-.25-.994-.82-1.875-1.7-2.642-.87-.777-2.05-1.165-3.52-1.165-1.31 0-2.46.341-3.44 1.023-.98.672-1.74 1.624-2.29 2.855q-.81 1.832-.81 4.304c0 1.686.27 3.153.8 4.403.54 1.25 1.29 2.221 2.27 2.912.99.692 2.14 1.037 3.47 1.037q1.305 0 2.37-.454a4.86 4.86 0 0 0 2.85-3.353h3.36a7.76 7.76 0 0 1-1.41 3.48q-1.11 1.535-2.94 2.444-1.815.895-4.23.895m22.62 0c-2.1 0-3.91-.464-5.44-1.393-1.51-.937-2.68-2.244-3.5-3.92q-1.23-2.529-1.23-5.881 0-3.351 1.23-5.909c.82-1.714 1.96-3.049 3.43-4.005 1.48-.966 3.2-1.449 5.17-1.449 1.14 0 2.26.189 3.37.568q1.665.568 3.03 1.846c.9.843 1.63 1.961 2.17 3.353q.81 2.088.81 5.142v1.42h-16.82v-2.897h13.41c0-1.232-.25-2.33-.74-3.296a5.54 5.54 0 0 0-2.07-2.287c-.89-.559-1.94-.838-3.16-.838-1.33 0-2.49.332-3.46.994a6.5 6.5 0 0 0-2.23 2.557 7.5 7.5 0 0 0-.78 3.381v1.932c0 1.647.28 3.044.85 4.19q.87 1.704 2.4 2.599c1.02.588 2.21.881 3.56.881.88 0 1.68-.123 2.39-.369a5.1 5.1 0 0 0 1.86-1.136c.52-.512.92-1.146 1.21-1.904l3.24.909a7.2 7.2 0 0 1-1.72 2.898c-.81.824-1.8 1.468-2.98 1.932-1.19.454-2.52.682-4 .682m25.84-.455v-29.091h10.17c2.03 0 3.7.35 5.02 1.051q1.965 1.037 2.94 2.799.96 1.747.96 3.877 0 1.876-.66 3.097t-1.74 1.932q-1.065.71-2.31 1.051V411c.89.057 1.78.369 2.68.938.9.568 1.65 1.382 2.26 2.443.61 1.06.91 2.358.91 3.892q0 2.188-.99 3.934c-.67 1.165-1.71 2.088-3.14 2.77s-3.29 1.023-5.59 1.023zm3.52-3.125h6.99c2.3 0 3.94-.445 4.9-1.335q1.47-1.35 1.47-3.267c0-.985-.25-1.894-.76-2.728-.5-.842-1.21-1.515-2.14-2.017q-1.395-.767-3.3-.767h-7.16zm0-13.182h6.54c1.06 0 2.02-.208 2.87-.625a5 5 0 0 0 2.04-1.761c.52-.758.77-1.648.77-2.671 0-1.278-.44-2.362-1.33-3.252-.89-.9-2.31-1.35-4.24-1.35h-6.65zM1052.94 172.061a1.5 1.5 0 0 0 2.12 0l9.55-9.546c.58-.586.58-1.536 0-2.122a1.5 1.5 0 0 0-2.12 0l-8.49 8.486-8.49-8.486a1.5 1.5 0 0 0-2.12 0 1.51 1.51 0 0 0 0 2.122zM220 101v-1.5h-1.5v1.5zm834 0h1.5v-1.5h-1.5zm-834 77h1.5v-77h-3v77zm0-77v1.5h834v-3H220zm834 0h-1.5v70h3v-70zM221.061 548.939a1.5 1.5 0 0 0-2.122 0l-9.546 9.546a1.5 1.5 0 0 0 0 2.122 1.5 1.5 0 0 0 2.122 0l8.485-8.486 8.485 8.486a1.5 1.5 0 0 0 2.122 0 1.5 1.5 0 0 0 0-2.122zM1054 620v1.5h1.5V620zm-834 0h-1.5v1.5h1.5zm834-77h-1.5v77h3v-77zm0 77v-1.5H220v3h834zm-834 0h1.5v-70h-3v70zM101.5 389.125a4.69 4.69 0 0 0-4.687 4.687v34.376a4.687 4.687 0 0 0 4.687 4.687h25a4.69 4.69 0 0 0 4.688-4.687v-25.269a4.7 4.7 0 0 0-1.374-3.313l-9.106-9.109a4.69 4.69 0 0 0-3.314-1.372zm-1.562 4.687a1.56 1.56 0 0 1 1.562-1.562h14.062v7.812a4.687 4.687 0 0 0 4.688 4.688h7.812v23.438a1.56 1.56 0 0 1-1.562 1.562h-25a1.564 1.564 0 0 1-1.562-1.562zm27.478 7.813h-7.166a1.564 1.564 0 0 1-1.562-1.563v-7.165zM924.5 389.125a4.69 4.69 0 0 0-4.688 4.687v34.376a4.687 4.687 0 0 0 4.688 4.687h25a4.69 4.69 0 0 0 4.688-4.687v-25.269a4.7 4.7 0 0 0-1.374-3.313l-9.106-9.109a4.69 4.69 0 0 0-3.314-1.372zm-1.562 4.687a1.56 1.56 0 0 1 1.562-1.562h14.062v7.812a4.687 4.687 0 0 0 4.688 4.688h7.812v23.438a1.56 1.56 0 0 1-1.562 1.562h-25a1.564 1.564 0 0 1-1.562-1.562zm27.478 7.813h-7.166a1.564 1.564 0 0 1-1.562-1.563v-7.165z"/></svg>