<svg width="1389" height="774" viewBox="0 0 1389 774" fill="none" xmlns="http://www.w3.org/2000/svg">
<path d="M690.5 473.5C704.834 473.5 716.5 485.339 716.5 500C716.5 514.661 704.834 526.5 690.5 526.5C676.166 526.5 664.5 514.661 664.5 500C664.5 485.339 676.166 473.5 690.5 473.5Z" stroke="#4ED400" stroke-width="3"/>
<path d="M1361.5 481.5C1375.83 481.5 1387.5 493.339 1387.5 508C1387.5 522.661 1375.83 534.5 1361.5 534.5C1347.17 534.5 1335.5 522.661 1335.5 508C1335.5 493.339 1347.17 481.5 1361.5 481.5Z" stroke="#0098D4" stroke-width="3"/>
<path d="M690.5 644.5C704.834 644.5 716.5 656.339 716.5 671C716.5 685.661 704.834 697.5 690.5 697.5C676.166 697.5 664.5 685.661 664.5 671C664.5 656.339 676.166 644.5 690.5 644.5Z" stroke="white" stroke-width="3"/>
<path d="M1280.99 483.969C1281.05 483.613 1281.44 483.441 1281.74 483.62L1281.8 483.661L1319.1 514.026C1319.4 514.269 1319.32 514.743 1318.96 514.881L1274.02 532.005C1273.66 532.142 1273.28 531.838 1273.34 531.459L1280.99 483.969Z" stroke="#0098D4" stroke-width="3"/>
<path d="M942.394 484.03C942.455 483.65 942.905 483.478 943.203 483.721L980.736 514.272C981.034 514.515 980.958 514.99 980.599 515.127L935.374 532.356C935.014 532.493 934.642 532.189 934.703 531.809L942.394 484.03Z" stroke="#0098D4" stroke-width="3"/>
<path d="M777.188 498.084C777.257 499.165 778.014 500.079 779.063 500.347L797.547 505.08L779.812 512.116C778.805 512.515 778.17 513.518 778.238 514.599L779.449 533.642L767.276 518.948L767.141 518.797C766.489 518.127 765.514 517.877 764.619 518.151L764.429 518.218L746.692 525.254L756.906 509.137C757.486 508.222 757.411 507.037 756.72 506.203L744.547 491.51L763.031 496.243C764.08 496.511 765.184 496.074 765.763 495.159L775.977 479.04L777.188 498.084Z" stroke="#0098D4" stroke-width="3"/>
<path d="M1039.19 498.084C1039.26 499.165 1040.01 500.079 1041.06 500.347L1059.55 505.08L1041.81 512.116C1040.81 512.515 1040.17 513.518 1040.24 514.599L1041.45 533.642L1029.28 518.948L1029.14 518.797C1028.49 518.127 1027.51 517.877 1026.62 518.151L1026.43 518.218L1008.69 525.254L1018.91 509.137C1019.49 508.222 1019.41 507.037 1018.72 506.203L1006.55 491.51L1025.03 496.243C1026.08 496.511 1027.18 496.074 1027.76 495.159L1037.98 479.04L1039.19 498.084Z" stroke="#4ED400" stroke-width="3"/>
<path d="M969.25 669.084C969.319 670.165 970.076 671.079 971.125 671.347L989.609 676.08L971.874 683.116C970.868 683.515 970.232 684.518 970.301 685.599L971.512 704.642L959.339 689.948L959.204 689.797C958.551 689.127 957.576 688.877 956.682 689.151L956.491 689.218L938.754 696.254L948.969 680.137C949.548 679.222 949.473 678.037 948.782 677.203L936.61 662.51L955.094 667.243C956.143 667.511 957.246 667.074 957.826 666.159L968.04 650.04L969.25 669.084Z" stroke="white" stroke-width="3"/>
<path d="M276.012 418.129C276.259 417.834 276.733 417.918 276.865 418.28L306.426 499.671C306.557 500.033 306.247 500.401 305.868 500.334L220.601 485.24C220.223 485.173 220.058 484.72 220.305 484.426L276.012 418.129Z" fill="#18181B" stroke="white" stroke-width="3"/>
<path d="M47.5188 10.7273H54.1307V31.0362C54.1307 33.3165 53.5861 35.3118 52.4968 37.022C51.4177 38.7322 49.906 40.0658 47.9616 41.0227C46.0173 41.9695 43.7522 42.4428 41.1665 42.4428C38.5707 42.4428 36.3005 41.9695 34.3562 41.0227C32.4118 40.0658 30.9001 38.7322 29.821 37.022C28.742 35.3118 28.2024 33.3165 28.2024 31.0362V10.7273H34.8143V30.4712C34.8143 31.6623 35.0739 32.721 35.593 33.6474C36.1224 34.5737 36.8655 35.3016 37.8224 35.831C38.7794 36.3603 39.8941 36.625 41.1665 36.625C42.4492 36.625 43.5639 36.3603 44.5107 35.831C45.4676 35.3016 46.2056 34.5737 46.7248 33.6474C47.2541 32.721 47.5188 31.6623 47.5188 30.4712V10.7273ZM59.4484 50.7955V18.5455H65.8618V22.4851H66.1519C66.4369 21.8539 66.8492 21.2126 67.3888 20.5611C67.9385 19.8994 68.6511 19.3497 69.5265 18.9119C70.4122 18.464 71.5116 18.2401 72.8248 18.2401C74.5351 18.2401 76.113 18.688 77.5585 19.5838C79.0041 20.4695 80.1595 21.8081 81.0248 23.5998C81.8901 25.3813 82.3227 27.6158 82.3227 30.3033C82.3227 32.9195 81.9002 35.1286 81.0553 36.9304C80.2206 38.7221 79.0804 40.0811 77.6349 41.0075C76.1995 41.9237 74.5911 42.3817 72.8096 42.3817C71.5473 42.3817 70.4733 42.1731 69.5876 41.7557C68.7122 41.3383 67.9945 40.814 67.4346 40.1829C66.8747 39.5415 66.4471 38.8951 66.1519 38.2436H65.9534V50.7955H59.4484ZM65.816 30.2727C65.816 31.6674 66.0094 32.8839 66.3962 33.9222C66.7831 34.9606 67.343 35.7699 68.0759 36.3501C68.8089 36.9202 69.6996 37.2053 70.7481 37.2053C71.8068 37.2053 72.7027 36.9151 73.4356 36.3349C74.1686 35.7444 74.7234 34.93 75.1001 33.8917C75.4869 32.8432 75.6803 31.6368 75.6803 30.2727C75.6803 28.9188 75.492 27.7277 75.1153 26.6996C74.7387 25.6714 74.1839 24.8672 73.4509 24.2869C72.718 23.7067 71.817 23.4165 70.7481 23.4165C69.6894 23.4165 68.7936 23.6965 68.0606 24.2564C67.3379 24.8163 66.7831 25.6103 66.3962 26.6385C66.0094 27.6667 65.816 28.8781 65.816 30.2727ZM95.3021 42.3817C93.5206 42.3817 91.9071 41.9237 90.4616 41.0075C89.0262 40.0811 87.886 38.7221 87.0411 36.9304C86.2064 35.1286 85.789 32.9195 85.789 30.3033C85.789 27.6158 86.2216 25.3813 87.0869 23.5998C87.9522 21.8081 89.1025 20.4695 90.5379 19.5838C91.9835 18.688 93.5664 18.2401 95.2868 18.2401C96.6001 18.2401 97.6944 18.464 98.5699 18.9119C99.4555 19.3497 100.168 19.8994 100.708 20.5611C101.257 21.2126 101.675 21.8539 101.96 22.4851H102.158V10.7273H108.648V42H102.235V38.2436H101.96C101.654 38.8951 101.222 39.5415 100.662 40.1829C100.112 40.814 99.3944 41.3383 98.5088 41.7557C97.6333 42.1731 96.5644 42.3817 95.3021 42.3817ZM97.3635 37.2053C98.4121 37.2053 99.2977 36.9202 100.021 36.3501C100.753 35.7699 101.313 34.9606 101.7 33.9222C102.097 32.8839 102.296 31.6674 102.296 30.2727C102.296 28.8781 102.102 27.6667 101.715 26.6385C101.329 25.6103 100.769 24.8163 100.036 24.2564C99.3028 23.6965 98.4121 23.4165 97.3635 23.4165C96.2947 23.4165 95.3937 23.7067 94.6608 24.2869C93.9278 24.8672 93.373 25.6714 92.9964 26.6996C92.6197 27.7277 92.4314 28.9188 92.4314 30.2727C92.4314 31.6368 92.6197 32.8432 92.9964 33.8917C93.3832 34.93 93.938 35.7444 94.6608 36.3349C95.3937 36.9151 96.2947 37.2053 97.3635 37.2053ZM120.684 42.4428C119.188 42.4428 117.854 42.1832 116.684 41.6641C115.513 41.1347 114.587 40.3559 113.905 39.3278C113.233 38.2894 112.897 36.9966 112.897 35.4492C112.897 34.1462 113.136 33.0518 113.615 32.1662C114.093 31.2805 114.744 30.5679 115.569 30.0284C116.394 29.4889 117.33 29.0817 118.379 28.8068C119.437 28.532 120.547 28.3385 121.708 28.2266C123.072 28.084 124.171 27.9517 125.006 27.8295C125.841 27.6972 126.446 27.5038 126.823 27.2493C127.2 26.9948 127.388 26.6181 127.388 26.1193V26.0277C127.388 25.0606 127.083 24.3124 126.472 23.783C125.871 23.2537 125.016 22.989 123.906 22.989C122.736 22.989 121.804 23.2486 121.112 23.7678C120.42 24.2768 119.962 24.9181 119.738 25.6918L113.721 25.2031C114.027 23.7779 114.627 22.5462 115.523 21.5078C116.419 20.4593 117.575 19.6551 118.99 19.0952C120.415 18.5251 122.064 18.2401 123.937 18.2401C125.24 18.2401 126.487 18.3928 127.678 18.6982C128.879 19.0036 129.943 19.4769 130.869 20.1183C131.806 20.7596 132.544 21.5842 133.084 22.592C133.623 23.5896 133.893 24.7857 133.893 26.1804V42H127.724V38.7475H127.541C127.164 39.4805 126.66 40.1269 126.029 40.6868C125.398 41.2365 124.639 41.6692 123.754 41.9847C122.868 42.2901 121.845 42.4428 120.684 42.4428ZM122.547 37.9535C123.504 37.9535 124.349 37.7652 125.082 37.3885C125.815 37.0017 126.39 36.4825 126.808 35.831C127.225 35.1795 127.434 34.4414 127.434 33.6168V31.1278C127.23 31.2602 126.95 31.3823 126.594 31.4943C126.248 31.5961 125.856 31.6928 125.418 31.7844C124.98 31.8659 124.543 31.9422 124.105 32.0135C123.667 32.0746 123.27 32.1306 122.914 32.1815C122.15 32.2934 121.484 32.4716 120.914 32.7159C120.343 32.9602 119.901 33.2911 119.585 33.7085C119.269 34.1156 119.112 34.6246 119.112 35.2354C119.112 36.1211 119.432 36.7981 120.074 37.2663C120.725 37.7244 121.55 37.9535 122.547 37.9535ZM151.415 18.5455V23.4318H137.29V18.5455H151.415ZM140.497 12.9261H147.002V34.7926C147.002 35.3932 147.094 35.8615 147.277 36.1974C147.46 36.5232 147.715 36.7522 148.04 36.8846C148.376 37.0169 148.763 37.0831 149.201 37.0831C149.506 37.0831 149.812 37.0576 150.117 37.0067C150.423 36.9457 150.657 36.8999 150.82 36.8693L151.843 41.7099C151.517 41.8117 151.059 41.9287 150.468 42.0611C149.878 42.2036 149.16 42.2901 148.315 42.3207C146.748 42.3817 145.373 42.1731 144.192 41.6946C143.022 41.2161 142.111 40.473 141.459 39.4652C140.808 38.4574 140.487 37.1849 140.497 35.6477V12.9261ZM166.089 42.4581C163.677 42.4581 161.6 41.9695 159.859 40.9922C158.129 40.0047 156.795 38.6101 155.859 36.8082C154.922 34.9962 154.454 32.8533 154.454 30.3796C154.454 27.967 154.922 25.8496 155.859 24.0273C156.795 22.2051 158.114 20.785 159.814 19.767C161.524 18.7491 163.529 18.2401 165.83 18.2401C167.377 18.2401 168.818 18.4895 170.151 18.9883C171.495 19.4769 172.666 20.215 173.663 21.2024C174.671 22.1899 175.455 23.4318 176.015 24.9283C176.575 26.4145 176.855 28.1553 176.855 30.1506V31.9371H157.05V27.9059H170.732C170.732 26.9693 170.528 26.1397 170.121 25.4169C169.714 24.6941 169.149 24.1291 168.426 23.7219C167.713 23.3046 166.884 23.0959 165.937 23.0959C164.949 23.0959 164.074 23.3249 163.31 23.783C162.557 24.2309 161.967 24.8366 161.539 25.6001C161.112 26.3535 160.893 27.1933 160.882 28.1197V31.9524C160.882 33.1129 161.096 34.1156 161.524 34.9606C161.962 35.8055 162.577 36.457 163.371 36.9151C164.165 37.3732 165.107 37.6023 166.196 37.6023C166.919 37.6023 167.581 37.5005 168.181 37.2969C168.782 37.0933 169.296 36.7879 169.724 36.3807C170.151 35.9735 170.477 35.4747 170.701 34.8842L176.717 35.2812C176.412 36.7268 175.786 37.9891 174.839 39.0682C173.903 40.1371 172.691 40.9718 171.205 41.5724C169.729 42.1629 168.024 42.4581 166.089 42.4581ZM189.743 42.3817C187.961 42.3817 186.348 41.9237 184.902 41.0075C183.467 40.0811 182.326 38.7221 181.482 36.9304C180.647 35.1286 180.229 32.9195 180.229 30.3033C180.229 27.6158 180.662 25.3813 181.527 23.5998C182.393 21.8081 183.543 20.4695 184.978 19.5838C186.424 18.688 188.007 18.2401 189.727 18.2401C191.04 18.2401 192.135 18.464 193.01 18.9119C193.896 19.3497 194.609 19.8994 195.148 20.5611C195.698 21.2126 196.115 21.8539 196.4 22.4851H196.599V10.7273H203.088V42H196.675V38.2436H196.4C196.095 38.8951 195.662 39.5415 195.102 40.1829C194.553 40.814 193.835 41.3383 192.949 41.7557C192.074 42.1731 191.005 42.3817 189.743 42.3817ZM191.804 37.2053C192.853 37.2053 193.738 36.9202 194.461 36.3501C195.194 35.7699 195.754 34.9606 196.141 33.9222C196.538 32.8839 196.736 31.6674 196.736 30.2727C196.736 28.8781 196.543 27.6667 196.156 26.6385C195.769 25.6103 195.209 24.8163 194.476 24.2564C193.743 23.6965 192.853 23.4165 191.804 23.4165C190.735 23.4165 189.834 23.7067 189.101 24.2869C188.368 24.8672 187.813 25.6714 187.437 26.6996C187.06 27.7277 186.872 28.9188 186.872 30.2727C186.872 31.6368 187.06 32.8432 187.437 33.8917C187.824 34.93 188.378 35.7444 189.101 36.3349C189.834 36.9151 190.735 37.2053 191.804 37.2053ZM218.511 42V10.7273H231.032C233.333 10.7273 235.252 11.0683 236.789 11.7504C238.326 12.4324 239.482 13.3791 240.255 14.5906C241.029 15.7918 241.416 17.1763 241.416 18.744C241.416 19.9656 241.172 21.0395 240.683 21.9659C240.194 22.8821 239.522 23.6354 238.667 24.2259C237.822 24.8061 236.855 25.2184 235.766 25.4627V25.7681C236.957 25.819 238.072 26.1549 239.11 26.7759C240.159 27.3969 241.009 28.2673 241.66 29.3871C242.312 30.4967 242.637 31.8201 242.637 33.3572C242.637 35.0166 242.225 36.4978 241.401 37.8008C240.586 39.0936 239.38 40.1167 237.782 40.87C236.183 41.6233 234.214 42 231.872 42H218.511ZM225.123 36.5945H230.513C232.356 36.5945 233.699 36.2433 234.544 35.5408C235.389 34.8282 235.812 33.8815 235.812 32.7006C235.812 31.8353 235.603 31.0719 235.186 30.4102C234.768 29.7485 234.173 29.2293 233.399 28.8526C232.636 28.476 231.725 28.2876 230.666 28.2876H225.123V36.5945ZM225.123 23.8136H230.025C230.931 23.8136 231.735 23.6558 232.437 23.3402C233.15 23.0144 233.71 22.5563 234.117 21.9659C234.534 21.3755 234.743 20.668 234.743 19.8434C234.743 18.7134 234.341 17.8023 233.537 17.1101C232.743 16.4178 231.613 16.0717 230.147 16.0717H225.123V23.8136ZM253.506 42.4428C252.009 42.4428 250.676 42.1832 249.505 41.6641C248.334 41.1347 247.408 40.3559 246.726 39.3278C246.054 38.2894 245.718 36.9966 245.718 35.4492C245.718 34.1462 245.957 33.0518 246.436 32.1662C246.914 31.2805 247.566 30.5679 248.39 30.0284C249.215 29.4889 250.151 29.0817 251.2 28.8068C252.259 28.532 253.368 28.3385 254.529 28.2266C255.893 28.084 256.992 27.9517 257.827 27.8295C258.662 27.6972 259.268 27.5038 259.644 27.2493C260.021 26.9948 260.209 26.6181 260.209 26.1193V26.0277C260.209 25.0606 259.904 24.3124 259.293 23.783C258.692 23.2537 257.837 22.989 256.728 22.989C255.557 22.989 254.626 23.2486 253.933 23.7678C253.241 24.2768 252.783 24.9181 252.559 25.6918L246.543 25.2031C246.848 23.7779 247.449 22.5462 248.345 21.5078C249.24 20.4593 250.396 19.6551 251.811 19.0952C253.236 18.5251 254.885 18.2401 256.758 18.2401C258.061 18.2401 259.308 18.3928 260.499 18.6982C261.701 19.0036 262.764 19.4769 263.691 20.1183C264.627 20.7596 265.365 21.5842 265.905 22.592C266.444 23.5896 266.714 24.7857 266.714 26.1804V42H260.545V38.7475H260.362C259.985 39.4805 259.481 40.1269 258.85 40.6868C258.219 41.2365 257.461 41.6692 256.575 41.9847C255.689 42.2901 254.666 42.4428 253.506 42.4428ZM255.369 37.9535C256.326 37.9535 257.171 37.7652 257.903 37.3885C258.636 37.0017 259.212 36.4825 259.629 35.831C260.046 35.1795 260.255 34.4414 260.255 33.6168V31.1278C260.051 31.2602 259.772 31.3823 259.415 31.4943C259.069 31.5961 258.677 31.6928 258.239 31.7844C257.802 31.8659 257.364 31.9422 256.926 32.0135C256.488 32.0746 256.091 32.1306 255.735 32.1815C254.972 32.2934 254.305 32.4716 253.735 32.7159C253.165 32.9602 252.722 33.2911 252.406 33.7085C252.091 34.1156 251.933 34.6246 251.933 35.2354C251.933 36.1211 252.254 36.7981 252.895 37.2663C253.546 37.7244 254.371 37.9535 255.369 37.9535ZM282.328 51.2841C280.22 51.2841 278.414 50.994 276.907 50.4137C275.41 49.8436 274.219 49.0649 273.334 48.0774C272.448 47.09 271.873 45.9804 271.608 44.7486L277.625 43.9393C277.808 44.4076 278.098 44.8453 278.495 45.2525C278.892 45.6597 279.416 45.9854 280.068 46.2298C280.729 46.4843 281.534 46.6115 282.48 46.6115C283.895 46.6115 285.061 46.2654 285.977 45.5732C286.904 44.8911 287.367 43.7459 287.367 42.1374V37.8466H287.092C286.807 38.4981 286.379 39.114 285.809 39.6942C285.239 40.2745 284.506 40.7479 283.61 41.1143C282.715 41.4808 281.646 41.6641 280.404 41.6641C278.643 41.6641 277.039 41.2569 275.594 40.4425C274.158 39.6179 273.013 38.3607 272.158 36.6708C271.313 34.9708 270.891 32.8228 270.891 30.2269C270.891 27.57 271.323 25.3507 272.188 23.5692C273.054 21.7878 274.204 20.4542 275.639 19.5685C277.085 18.6829 278.668 18.2401 280.388 18.2401C281.702 18.2401 282.801 18.464 283.687 18.9119C284.572 19.3497 285.285 19.8994 285.824 20.5611C286.374 21.2126 286.797 21.8539 287.092 22.4851H287.336V18.5455H293.795V42.229C293.795 44.2243 293.307 45.8938 292.329 47.2376C291.352 48.5813 289.998 49.5891 288.268 50.261C286.547 50.9431 284.567 51.2841 282.328 51.2841ZM282.465 36.7777C283.514 36.7777 284.399 36.5181 285.122 35.9989C285.855 35.4696 286.415 34.7163 286.802 33.739C287.199 32.7515 287.397 31.5707 287.397 30.1964C287.397 28.8221 287.204 27.631 286.817 26.6232C286.43 25.6052 285.87 24.8163 285.137 24.2564C284.404 23.6965 283.514 23.4165 282.465 23.4165C281.396 23.4165 280.495 23.7067 279.762 24.2869C279.029 24.857 278.475 25.651 278.098 26.669C277.721 27.687 277.533 28.8628 277.533 30.1964C277.533 31.5503 277.721 32.721 278.098 33.7085C278.485 34.6857 279.04 35.4441 279.762 35.9837C280.495 36.513 281.396 36.7777 282.465 36.7777ZM319.521 42.4581C317.149 42.4581 315.098 41.9542 313.368 40.9464C311.647 39.9284 310.319 38.5134 309.382 36.7013C308.446 34.8791 307.977 32.7668 307.977 30.3643C307.977 27.9415 308.446 25.8241 309.382 24.0121C310.319 22.1899 311.647 20.7749 313.368 19.767C315.098 18.7491 317.149 18.2401 319.521 18.2401C321.893 18.2401 323.939 18.7491 325.66 19.767C327.39 20.7749 328.724 22.1899 329.661 24.0121C330.597 25.8241 331.065 27.9415 331.065 30.3643C331.065 32.7668 330.597 34.8791 329.661 36.7013C328.724 38.5134 327.39 39.9284 325.66 40.9464C323.939 41.9542 321.893 42.4581 319.521 42.4581ZM319.552 37.419C320.631 37.419 321.532 37.1136 322.255 36.5028C322.977 35.8819 323.522 35.0369 323.888 33.968C324.265 32.8991 324.453 31.6826 324.453 30.3185C324.453 28.9544 324.265 27.7379 323.888 26.669C323.522 25.6001 322.977 24.7552 322.255 24.1342C321.532 23.5133 320.631 23.2028 319.552 23.2028C318.463 23.2028 317.546 23.5133 316.803 24.1342C316.07 24.7552 315.516 25.6001 315.139 26.669C314.772 27.7379 314.589 28.9544 314.589 30.3185C314.589 31.6826 314.772 32.8991 315.139 33.968C315.516 35.0369 316.07 35.8819 316.803 36.5028C317.546 37.1136 318.463 37.419 319.552 37.419ZM347.908 18.5455V23.4318H333.432V18.5455H347.908ZM336.746 42V16.8505C336.746 15.1504 337.077 13.7405 337.738 12.6207C338.41 11.5009 339.326 10.6611 340.487 10.1012C341.647 9.54131 342.966 9.26136 344.442 9.26136C345.439 9.26136 346.35 9.33771 347.175 9.49041C348.01 9.64311 348.631 9.78054 349.038 9.9027L347.877 14.7891C347.623 14.7076 347.307 14.6313 346.931 14.56C346.564 14.4888 346.188 14.4531 345.801 14.4531C344.844 14.4531 344.177 14.6771 343.8 15.125C343.424 15.5627 343.235 16.1786 343.235 16.9727V42H336.746ZM360.765 16.1786V10.7273H386.449V16.1786H376.875V42H370.339V16.1786H360.765ZM397.753 42.4581C395.381 42.4581 393.33 41.9542 391.599 40.9464C389.879 39.9284 388.55 38.5134 387.614 36.7013C386.677 34.8791 386.209 32.7668 386.209 30.3643C386.209 27.9415 386.677 25.8241 387.614 24.0121C388.55 22.1899 389.879 20.7749 391.599 19.767C393.33 18.7491 395.381 18.2401 397.753 18.2401C400.125 18.2401 402.171 18.7491 403.891 19.767C405.622 20.7749 406.955 22.1899 407.892 24.0121C408.829 25.8241 409.297 27.9415 409.297 30.3643C409.297 32.7668 408.829 34.8791 407.892 36.7013C406.955 38.5134 405.622 39.9284 403.891 40.9464C402.171 41.9542 400.125 42.4581 397.753 42.4581ZM397.783 37.419C398.862 37.419 399.763 37.1136 400.486 36.5028C401.209 35.8819 401.753 35.0369 402.12 33.968C402.497 32.8991 402.685 31.6826 402.685 30.3185C402.685 28.9544 402.497 27.7379 402.12 26.669C401.753 25.6001 401.209 24.7552 400.486 24.1342C399.763 23.5133 398.862 23.2028 397.783 23.2028C396.694 23.2028 395.778 23.5133 395.035 24.1342C394.302 24.7552 393.747 25.6001 393.37 26.669C393.004 27.7379 392.821 28.9544 392.821 30.3185C392.821 31.6826 393.004 32.8991 393.37 33.968C393.747 35.0369 394.302 35.8819 395.035 36.5028C395.778 37.1136 396.694 37.419 397.783 37.419ZM416.787 50.7955C415.962 50.7955 415.188 50.7293 414.466 50.5969C413.753 50.4748 413.163 50.317 412.694 50.1236L414.16 45.2678C414.924 45.5019 415.611 45.6291 416.222 45.6495C416.843 45.6699 417.377 45.5273 417.825 45.2219C418.283 44.9165 418.655 44.3974 418.94 43.6644L419.321 42.6719L410.908 18.5455H417.749L422.604 35.7699H422.849L427.75 18.5455H434.637L425.521 44.5348C425.083 45.7971 424.488 46.8965 423.734 47.8331C422.991 48.7798 422.05 49.5077 420.91 50.0167C419.769 50.5359 418.395 50.7955 416.787 50.7955ZM457.481 25.2337L451.526 25.6001C451.424 25.0911 451.205 24.633 450.869 24.2259C450.533 23.8085 450.09 23.4776 449.541 23.2333C449.001 22.9788 448.355 22.8516 447.601 22.8516C446.593 22.8516 445.743 23.0653 445.051 23.4929C444.359 23.9103 444.013 24.4702 444.013 25.1726C444.013 25.7325 444.237 26.2058 444.685 26.5927C445.133 26.9795 445.901 27.29 446.991 27.5241L451.236 28.3793C453.516 28.8475 455.216 29.6009 456.336 30.6392C457.455 31.6776 458.015 33.0417 458.015 34.7315C458.015 36.2687 457.562 37.6175 456.656 38.7781C455.761 39.9386 454.529 40.8446 452.961 41.4961C451.403 42.1374 449.607 42.4581 447.571 42.4581C444.466 42.4581 441.992 41.8117 440.15 40.5188C438.317 39.2158 437.243 37.4445 436.928 35.2049L443.326 34.869C443.519 35.8157 443.987 36.5385 444.731 37.0373C445.474 37.5259 446.426 37.7702 447.586 37.7702C448.726 37.7702 449.642 37.5514 450.335 37.1136C451.037 36.6657 451.393 36.0906 451.403 35.3881C451.393 34.7977 451.144 34.3142 450.655 33.9375C450.167 33.5507 449.413 33.2554 448.395 33.0518L444.334 32.2425C442.043 31.7844 440.338 30.9904 439.218 29.8604C438.109 28.7305 437.554 27.29 437.554 25.5391C437.554 24.0324 437.961 22.7345 438.775 21.6452C439.6 20.556 440.755 19.7161 442.242 19.1257C443.738 18.5353 445.489 18.2401 447.494 18.2401C450.457 18.2401 452.788 18.8661 454.488 20.1183C456.198 21.3704 457.196 23.0755 457.481 25.2337Z" fill="white"/>
<path d="M147.193 377V372.901L156.772 364.032C157.586 363.243 158.269 362.534 158.821 361.903C159.382 361.272 159.807 360.655 160.096 360.05C160.385 359.437 160.529 358.776 160.529 358.066C160.529 357.278 160.35 356.599 159.991 356.03C159.631 355.452 159.141 355.009 158.519 354.703C157.897 354.387 157.192 354.23 156.404 354.23C155.58 354.23 154.862 354.396 154.249 354.729C153.636 355.062 153.163 355.539 152.83 356.161C152.497 356.783 152.33 357.523 152.33 358.382H146.93C146.93 356.621 147.329 355.093 148.126 353.796C148.923 352.5 150.04 351.497 151.476 350.787C152.913 350.078 154.569 349.723 156.443 349.723C158.37 349.723 160.048 350.065 161.475 350.748C162.912 351.422 164.029 352.36 164.826 353.56C165.623 354.76 166.022 356.135 166.022 357.685C166.022 358.701 165.82 359.704 165.417 360.694C165.023 361.684 164.318 362.783 163.302 363.992C162.286 365.192 160.853 366.633 159.005 368.315L155.077 372.165V372.349H166.376V377H147.193ZM189.849 356.818V361.023H177.696V356.818H189.849ZM180.455 351.983H186.052V370.798C186.052 371.315 186.131 371.718 186.289 372.007C186.446 372.287 186.665 372.484 186.946 372.598C187.235 372.712 187.568 372.769 187.944 372.769C188.207 372.769 188.47 372.747 188.733 372.703C188.995 372.651 189.197 372.612 189.337 372.585L190.217 376.75C189.937 376.838 189.543 376.939 189.035 377.053C188.527 377.175 187.909 377.25 187.182 377.276C185.833 377.328 184.651 377.149 183.635 376.737C182.627 376.326 181.843 375.686 181.283 374.819C180.722 373.952 180.446 372.857 180.455 371.534V351.983ZM193.496 377V356.818H198.922V360.339H199.132C199.5 359.087 200.118 358.141 200.985 357.501C201.852 356.853 202.851 356.529 203.981 356.529C204.261 356.529 204.563 356.547 204.887 356.582C205.211 356.617 205.496 356.665 205.741 356.726V361.693C205.479 361.614 205.115 361.544 204.651 361.483C204.187 361.421 203.762 361.391 203.376 361.391C202.553 361.391 201.817 361.57 201.169 361.929C200.529 362.28 200.021 362.77 199.645 363.401C199.277 364.032 199.093 364.759 199.093 365.582V377H193.496ZM208.635 377V356.818H214.233V377H208.635ZM211.447 354.217C210.615 354.217 209.901 353.941 209.305 353.389C208.718 352.828 208.425 352.158 208.425 351.379C208.425 350.608 208.718 349.946 209.305 349.395C209.901 348.834 210.615 348.554 211.447 348.554C212.279 348.554 212.989 348.834 213.576 349.395C214.171 349.946 214.469 350.608 214.469 351.379C214.469 352.158 214.171 352.828 213.576 353.389C212.989 353.941 212.279 354.217 211.447 354.217ZM224.471 377.381C223.184 377.381 222.036 377.158 221.029 376.711C220.021 376.255 219.224 375.585 218.637 374.701C218.059 373.807 217.77 372.695 217.77 371.363C217.77 370.242 217.976 369.3 218.388 368.538C218.8 367.776 219.36 367.163 220.07 366.699C220.779 366.235 221.585 365.884 222.487 365.648C223.398 365.411 224.353 365.245 225.352 365.148C226.525 365.026 227.471 364.912 228.19 364.807C228.908 364.693 229.429 364.527 229.753 364.308C230.077 364.089 230.239 363.764 230.239 363.335V363.256C230.239 362.424 229.977 361.78 229.451 361.325C228.934 360.869 228.198 360.642 227.244 360.642C226.236 360.642 225.435 360.865 224.839 361.312C224.244 361.75 223.849 362.302 223.657 362.967L218.48 362.547C218.743 361.321 219.259 360.261 220.03 359.367C220.801 358.465 221.795 357.773 223.013 357.291C224.239 356.801 225.658 356.555 227.27 356.555C228.391 356.555 229.464 356.687 230.489 356.95C231.523 357.212 232.438 357.62 233.235 358.172C234.041 358.723 234.676 359.433 235.14 360.3C235.605 361.158 235.837 362.188 235.837 363.388V377H230.528V374.201H230.371C230.047 374.832 229.613 375.388 229.07 375.87C228.527 376.343 227.874 376.715 227.112 376.987C226.35 377.25 225.47 377.381 224.471 377.381ZM226.074 373.518C226.898 373.518 227.625 373.356 228.255 373.032C228.886 372.699 229.381 372.252 229.74 371.692C230.099 371.131 230.279 370.496 230.279 369.787V367.645C230.104 367.759 229.863 367.864 229.556 367.96C229.258 368.048 228.921 368.131 228.544 368.21C228.168 368.28 227.791 368.346 227.414 368.407C227.038 368.46 226.696 368.508 226.39 368.551C225.733 368.648 225.159 368.801 224.668 369.011C224.178 369.222 223.797 369.506 223.525 369.865C223.254 370.216 223.118 370.654 223.118 371.179C223.118 371.941 223.394 372.524 223.946 372.927C224.506 373.321 225.216 373.518 226.074 373.518ZM245.776 365.332V377H240.179V356.818H245.514V360.379H245.75C246.197 359.205 246.946 358.277 247.997 357.593C249.048 356.901 250.323 356.555 251.821 356.555C253.222 356.555 254.444 356.862 255.486 357.475C256.529 358.088 257.339 358.964 257.917 360.103C258.495 361.233 258.784 362.582 258.784 364.15V377H253.187V365.148C253.196 363.913 252.88 362.95 252.241 362.258C251.602 361.557 250.721 361.207 249.6 361.207C248.847 361.207 248.181 361.369 247.603 361.693C247.033 362.017 246.587 362.49 246.263 363.112C245.947 363.725 245.785 364.465 245.776 365.332ZM272.288 384.989C270.475 384.989 268.92 384.739 267.624 384.24C266.336 383.749 265.311 383.079 264.549 382.229C263.787 381.38 263.292 380.425 263.064 379.365L268.241 378.669C268.399 379.072 268.649 379.448 268.99 379.799C269.332 380.149 269.783 380.429 270.344 380.64C270.913 380.859 271.605 380.968 272.42 380.968C273.637 380.968 274.64 380.67 275.428 380.075C276.226 379.488 276.624 378.502 276.624 377.118V373.426H276.388C276.142 373.987 275.774 374.517 275.284 375.016C274.793 375.515 274.163 375.923 273.392 376.238C272.621 376.553 271.701 376.711 270.633 376.711C269.117 376.711 267.738 376.361 266.494 375.66C265.259 374.95 264.273 373.868 263.537 372.414C262.81 370.952 262.447 369.103 262.447 366.87C262.447 364.583 262.819 362.674 263.564 361.141C264.308 359.608 265.298 358.461 266.533 357.699C267.777 356.936 269.139 356.555 270.619 356.555C271.749 356.555 272.695 356.748 273.458 357.134C274.22 357.51 274.833 357.983 275.297 358.553C275.77 359.113 276.134 359.665 276.388 360.208H276.598V356.818H282.156V377.197C282.156 378.914 281.735 380.35 280.894 381.507C280.053 382.663 278.888 383.53 277.399 384.108C275.919 384.695 274.215 384.989 272.288 384.989ZM272.406 372.506C273.309 372.506 274.071 372.283 274.693 371.836C275.323 371.381 275.805 370.733 276.138 369.892C276.48 369.042 276.65 368.026 276.65 366.843C276.65 365.661 276.484 364.636 276.151 363.769C275.818 362.893 275.336 362.214 274.706 361.732C274.075 361.25 273.309 361.01 272.406 361.01C271.487 361.01 270.711 361.259 270.081 361.759C269.45 362.249 268.973 362.932 268.649 363.808C268.324 364.684 268.162 365.696 268.162 366.843C268.162 368.008 268.324 369.016 268.649 369.865C268.981 370.706 269.459 371.359 270.081 371.823C270.711 372.279 271.487 372.506 272.406 372.506ZM292.207 350.091V377H286.61V350.091H292.207ZM305.888 377.394C303.812 377.394 302.025 376.974 300.528 376.133C299.038 375.283 297.891 374.083 297.085 372.533C296.279 370.973 295.876 369.13 295.876 367.001C295.876 364.925 296.279 363.103 297.085 361.535C297.891 359.967 299.025 358.745 300.488 357.869C301.96 356.993 303.685 356.555 305.665 356.555C306.996 356.555 308.236 356.77 309.383 357.199C310.54 357.62 311.547 358.255 312.405 359.104C313.273 359.954 313.947 361.023 314.429 362.31C314.911 363.589 315.151 365.087 315.151 366.804V368.341H298.11V364.873H309.883C309.883 364.067 309.707 363.353 309.357 362.731C309.007 362.109 308.521 361.623 307.899 361.272C307.285 360.913 306.572 360.734 305.757 360.734C304.907 360.734 304.154 360.931 303.497 361.325C302.849 361.71 302.341 362.232 301.973 362.888C301.605 363.537 301.417 364.259 301.408 365.056V368.354C301.408 369.353 301.592 370.216 301.96 370.943C302.336 371.67 302.866 372.23 303.55 372.625C304.233 373.019 305.043 373.216 305.98 373.216C306.602 373.216 307.172 373.128 307.688 372.953C308.205 372.778 308.648 372.515 309.015 372.165C309.383 371.814 309.664 371.385 309.856 370.877L315.033 371.219C314.77 372.463 314.232 373.549 313.417 374.477C312.611 375.397 311.569 376.115 310.29 376.632C309.02 377.14 307.553 377.394 305.888 377.394ZM335.596 362.573L330.472 362.888C330.384 362.451 330.196 362.056 329.907 361.706C329.618 361.347 329.237 361.062 328.764 360.852C328.299 360.633 327.743 360.523 327.095 360.523C326.228 360.523 325.496 360.707 324.901 361.075C324.305 361.434 324.007 361.916 324.007 362.521C324.007 363.002 324.2 363.41 324.585 363.743C324.971 364.075 325.632 364.343 326.569 364.544L330.222 365.28C332.184 365.683 333.647 366.331 334.611 367.224C335.574 368.118 336.056 369.292 336.056 370.746C336.056 372.068 335.666 373.229 334.887 374.228C334.116 375.226 333.056 376.006 331.707 376.566C330.367 377.118 328.821 377.394 327.069 377.394C324.397 377.394 322.269 376.838 320.683 375.725C319.106 374.604 318.182 373.08 317.911 371.153L323.416 370.864C323.582 371.679 323.985 372.301 324.625 372.73C325.264 373.15 326.083 373.36 327.082 373.36C328.063 373.36 328.851 373.172 329.447 372.795C330.051 372.41 330.358 371.915 330.367 371.311C330.358 370.803 330.143 370.387 329.723 370.062C329.302 369.73 328.654 369.476 327.778 369.3L324.283 368.604C322.312 368.21 320.845 367.527 319.882 366.554C318.927 365.582 318.449 364.343 318.449 362.836C318.449 361.54 318.8 360.423 319.501 359.485C320.21 358.548 321.204 357.826 322.483 357.317C323.771 356.809 325.277 356.555 327.003 356.555C329.552 356.555 331.558 357.094 333.021 358.172C334.492 359.249 335.351 360.716 335.596 362.573Z" fill="white"/>
<path d="M188.563 567.091V594H182.874V572.491H182.716L176.554 576.354V571.309L183.216 567.091H188.563ZM220.367 579.573L215.243 579.888C215.155 579.451 214.967 579.056 214.678 578.706C214.389 578.347 214.008 578.062 213.534 577.852C213.07 577.633 212.514 577.523 211.866 577.523C210.999 577.523 210.267 577.707 209.672 578.075C209.076 578.434 208.778 578.916 208.778 579.521C208.778 580.002 208.971 580.41 209.356 580.743C209.742 581.075 210.403 581.343 211.34 581.544L214.993 582.28C216.955 582.683 218.418 583.331 219.381 584.224C220.345 585.118 220.827 586.292 220.827 587.746C220.827 589.068 220.437 590.229 219.657 591.228C218.887 592.226 217.827 593.006 216.478 593.566C215.137 594.118 213.591 594.394 211.84 594.394C209.168 594.394 207.039 593.838 205.454 592.725C203.877 591.604 202.953 590.08 202.682 588.153L208.187 587.864C208.353 588.679 208.756 589.301 209.396 589.73C210.035 590.15 210.854 590.36 211.853 590.36C212.834 590.36 213.622 590.172 214.218 589.795C214.822 589.41 215.129 588.915 215.137 588.311C215.129 587.803 214.914 587.387 214.494 587.062C214.073 586.73 213.425 586.476 212.549 586.3L209.054 585.604C207.083 585.21 205.616 584.527 204.652 583.554C203.698 582.582 203.22 581.343 203.22 579.836C203.22 578.54 203.571 577.423 204.271 576.485C204.981 575.548 205.975 574.826 207.254 574.317C208.542 573.809 210.048 573.555 211.774 573.555C214.323 573.555 216.329 574.094 217.792 575.172C219.263 576.249 220.122 577.716 220.367 579.573ZM237.688 601.568V590.768H237.517C237.254 591.328 236.882 591.885 236.4 592.436C235.927 592.98 235.309 593.431 234.547 593.79C233.794 594.149 232.874 594.328 231.788 594.328C230.255 594.328 228.867 593.934 227.623 593.146C226.388 592.349 225.407 591.179 224.68 589.638C223.962 588.087 223.602 586.187 223.602 583.935C223.602 581.623 223.975 579.7 224.719 578.167C225.464 576.626 226.454 575.474 227.689 574.712C228.933 573.941 230.295 573.555 231.775 573.555C232.905 573.555 233.847 573.748 234.6 574.134C235.362 574.51 235.975 574.983 236.439 575.553C236.912 576.113 237.272 576.665 237.517 577.208H237.753V573.818H243.272V601.568H237.688ZM233.562 589.874C234.464 589.874 235.226 589.629 235.848 589.138C236.479 588.639 236.961 587.943 237.293 587.049C237.635 586.156 237.806 585.109 237.806 583.909C237.806 582.709 237.639 581.667 237.307 580.782C236.974 579.897 236.492 579.214 235.861 578.732C235.231 578.25 234.464 578.01 233.562 578.01C232.642 578.01 231.867 578.259 231.236 578.759C230.606 579.258 230.128 579.95 229.804 580.835C229.48 581.719 229.318 582.744 229.318 583.909C229.318 585.083 229.48 586.121 229.804 587.023C230.137 587.917 230.614 588.617 231.236 589.125C231.867 589.625 232.642 589.874 233.562 589.874ZM260.708 585.407V573.818H266.305V594H260.931V590.334H260.721C260.265 591.517 259.507 592.467 258.448 593.185C257.396 593.904 256.113 594.263 254.598 594.263C253.249 594.263 252.062 593.956 251.037 593.343C250.012 592.73 249.211 591.858 248.633 590.728C248.063 589.598 247.774 588.245 247.765 586.668V573.818H253.363V585.67C253.371 586.861 253.691 587.803 254.322 588.495C254.953 589.187 255.798 589.533 256.858 589.533C257.532 589.533 258.163 589.379 258.75 589.073C259.337 588.757 259.81 588.293 260.169 587.68C260.537 587.067 260.716 586.309 260.708 585.407ZM276.537 594.381C275.249 594.381 274.102 594.158 273.095 593.711C272.087 593.255 271.29 592.585 270.703 591.701C270.125 590.807 269.836 589.695 269.836 588.363C269.836 587.242 270.042 586.3 270.454 585.538C270.865 584.776 271.426 584.163 272.135 583.699C272.845 583.235 273.651 582.884 274.553 582.648C275.464 582.411 276.419 582.245 277.417 582.148C278.591 582.026 279.537 581.912 280.255 581.807C280.974 581.693 281.495 581.527 281.819 581.308C282.143 581.089 282.305 580.764 282.305 580.335V580.256C282.305 579.424 282.042 578.78 281.517 578.325C281 577.869 280.264 577.642 279.309 577.642C278.302 577.642 277.501 577.865 276.905 578.312C276.309 578.75 275.915 579.302 275.722 579.967L270.545 579.547C270.808 578.321 271.325 577.261 272.096 576.367C272.867 575.465 273.861 574.773 275.079 574.291C276.305 573.801 277.724 573.555 279.336 573.555C280.457 573.555 281.53 573.687 282.555 573.95C283.588 574.212 284.504 574.62 285.301 575.172C286.107 575.723 286.742 576.433 287.206 577.3C287.67 578.158 287.902 579.188 287.902 580.388V594H282.594V591.201H282.436C282.112 591.832 281.679 592.388 281.136 592.87C280.593 593.343 279.94 593.715 279.178 593.987C278.416 594.25 277.536 594.381 276.537 594.381ZM278.14 590.518C278.963 590.518 279.69 590.356 280.321 590.032C280.952 589.699 281.447 589.252 281.806 588.692C282.165 588.131 282.345 587.496 282.345 586.787V584.645C282.169 584.759 281.928 584.864 281.622 584.96C281.324 585.048 280.987 585.131 280.61 585.21C280.233 585.28 279.857 585.346 279.48 585.407C279.104 585.46 278.762 585.508 278.455 585.551C277.798 585.648 277.225 585.801 276.734 586.011C276.244 586.222 275.862 586.506 275.591 586.865C275.319 587.216 275.184 587.654 275.184 588.179C275.184 588.941 275.46 589.524 276.011 589.927C276.572 590.321 277.282 590.518 278.14 590.518ZM292.245 594V573.818H297.671V577.339H297.882C298.25 576.087 298.867 575.141 299.734 574.501C300.601 573.853 301.6 573.529 302.73 573.529C303.01 573.529 303.312 573.547 303.637 573.582C303.961 573.617 304.245 573.665 304.491 573.726V578.693C304.228 578.614 303.864 578.544 303.4 578.483C302.936 578.421 302.511 578.391 302.126 578.391C301.302 578.391 300.566 578.57 299.918 578.929C299.279 579.28 298.771 579.77 298.394 580.401C298.026 581.032 297.842 581.759 297.842 582.582V594H292.245ZM315.643 594.394C313.567 594.394 311.78 593.974 310.282 593.133C308.793 592.283 307.645 591.083 306.839 589.533C306.033 587.973 305.63 586.13 305.63 584.001C305.63 581.925 306.033 580.103 306.839 578.535C307.645 576.967 308.779 575.745 310.242 574.869C311.714 573.993 313.44 573.555 315.419 573.555C316.751 573.555 317.99 573.77 319.138 574.199C320.294 574.62 321.301 575.255 322.16 576.104C323.027 576.954 323.701 578.023 324.183 579.31C324.665 580.589 324.906 582.087 324.906 583.804V585.341H307.864V581.873H319.637C319.637 581.067 319.462 580.353 319.111 579.731C318.761 579.109 318.275 578.623 317.653 578.272C317.04 577.913 316.326 577.734 315.511 577.734C314.661 577.734 313.908 577.931 313.251 578.325C312.603 578.71 312.095 579.232 311.727 579.888C311.359 580.537 311.171 581.259 311.162 582.056V585.354C311.162 586.353 311.346 587.216 311.714 587.943C312.091 588.67 312.621 589.23 313.304 589.625C313.987 590.019 314.797 590.216 315.735 590.216C316.356 590.216 316.926 590.128 317.443 589.953C317.959 589.778 318.402 589.515 318.77 589.165C319.138 588.814 319.418 588.385 319.611 587.877L324.787 588.219C324.525 589.463 323.986 590.549 323.171 591.477C322.365 592.397 321.323 593.115 320.044 593.632C318.774 594.14 317.307 594.394 315.643 594.394Z" fill="white"/>
<path d="M272.71 248.149C314.323 281.015 359.836 335.06 395.002 391.15C412.653 419.303 427.668 447.924 438.265 474.581C448.872 501.266 455 525.857 455 545.988C455 653.969 365.539 771.865 236.503 771.865C172.099 771.864 120.505 738.06 84.9453 692.812C49.3585 647.529 30 590.987 30 545.988C30 527.344 35.7234 503.686 45.6709 477.505C55.6059 451.357 69.7014 422.83 86.3174 394.49C119.41 338.048 162.393 282.539 202.191 248.149H272.71Z" stroke="white" stroke-width="4"/>
<path d="M179.303 244.861L239.271 244.861L295.547 244.861" stroke="white" stroke-width="12" stroke-linecap="round"/>
<path d="M267.872 253.529C267.872 253.529 268.226 267.782 277.097 283.974C285.077 298.54 293.703 307.039 293.703 307.039" stroke="white" stroke-width="10" stroke-linecap="round"/>
<path d="M246.651 253.53C246.651 253.53 242.851 273.108 242.038 285.82C241.371 296.247 242.039 312.575 242.039 312.575" stroke="white" stroke-width="8" stroke-linecap="round"/>
<path d="M327.839 123.445C321.979 113.297 152.548 116.56 150.703 123.445C148.858 130.329 214.366 247.995 214.366 247.995H239.269H267.869C267.869 247.995 333.698 133.594 327.839 123.445Z" stroke="white" stroke-width="4"/>
<path d="M222.387 408.881C222.448 408.501 222.898 408.33 223.197 408.573L290.355 463.237C290.653 463.481 290.576 463.956 290.217 464.093L209.298 494.921C208.938 495.058 208.565 494.754 208.625 494.374L222.387 408.881Z" fill="#18181B" stroke="white" stroke-width="3"/>
<rect x="190.713" y="621.775" width="71.6847" height="71.6847" rx="3.5" transform="rotate(-8.87647 190.713 621.775)" stroke="white" stroke-width="3"/>
<rect x="1199.71" y="492.919" width="40.945" height="40.945" rx="3.5" transform="rotate(-8.87647 1199.71 492.919)" stroke="#0098D4" stroke-width="3"/>
<rect x="1079.71" y="493.032" width="40.945" height="40.945" rx="3.5" transform="rotate(-8.87647 1079.71 493.032)" stroke="#0098D4" stroke-width="3"/>
<path d="M696.784 57.6758H690.096C689.974 56.8105 689.724 56.0419 689.347 55.37C688.971 54.688 688.487 54.1077 687.897 53.6293C687.306 53.1508 686.624 52.7843 685.851 52.5298C685.087 52.2753 684.257 52.1481 683.362 52.1481C681.743 52.1481 680.333 52.5502 679.132 53.3544C677.931 54.1484 676.999 55.3089 676.337 56.8359C675.676 58.3527 675.345 60.1953 675.345 62.3636C675.345 64.593 675.676 66.4661 676.337 67.983C677.009 69.4998 677.946 70.645 679.147 71.4187C680.348 72.1924 681.738 72.5792 683.316 72.5792C684.201 72.5792 685.021 72.4621 685.774 72.228C686.538 71.9938 687.215 71.6528 687.805 71.2049C688.396 70.7468 688.884 70.192 689.271 69.5405C689.668 68.889 689.943 68.1458 690.096 67.3111L696.784 67.3416C696.611 68.777 696.178 70.1615 695.486 71.495C694.804 72.8184 693.883 74.0044 692.722 75.0529C691.572 76.0913 690.197 76.9158 688.599 77.5266C687.011 78.1272 685.214 78.4276 683.209 78.4276C680.42 78.4276 677.926 77.7964 675.727 76.5341C673.538 75.2718 671.807 73.4445 670.535 71.0522C669.273 68.6599 668.641 65.7637 668.641 62.3636C668.641 58.9534 669.283 56.0521 670.565 53.6598C671.848 51.2675 673.589 49.4453 675.788 48.1932C677.987 46.9309 680.46 46.2997 683.209 46.2997C685.021 46.2997 686.701 46.5542 688.248 47.0632C689.806 47.5722 691.185 48.3153 692.386 49.2926C693.587 50.2597 694.565 51.4457 695.318 52.8505C696.081 54.2553 696.57 55.8638 696.784 57.6758ZM707.908 64.4403V78H701.403V46.7273H707.725V58.6836H708C708.529 57.2991 709.384 56.215 710.565 55.4311C711.746 54.6371 713.227 54.2401 715.008 54.2401C716.637 54.2401 718.057 54.5964 719.269 55.3089C720.49 56.0114 721.437 57.0243 722.109 58.3477C722.791 59.6609 723.127 61.2337 723.117 63.0661V78H716.612V64.2266C716.622 62.781 716.256 61.6561 715.512 60.8519C714.779 60.0477 713.751 59.6456 712.428 59.6456C711.542 59.6456 710.758 59.8339 710.076 60.2106C709.404 60.5872 708.875 61.137 708.488 61.8597C708.112 62.5723 707.918 63.4325 707.908 64.4403ZM728.236 78V54.5455H734.741V78H728.236ZM731.504 51.522C730.537 51.522 729.707 51.2013 729.015 50.56C728.333 49.9085 727.992 49.1297 727.992 48.2237C727.992 47.3279 728.333 46.5593 729.015 45.918C729.707 45.2665 730.537 44.9407 731.504 44.9407C732.471 44.9407 733.295 45.2665 733.977 45.918C734.67 46.5593 735.016 47.3279 735.016 48.2237C735.016 49.1297 734.67 49.9085 733.977 50.56C733.295 51.2013 732.471 51.522 731.504 51.522ZM746.457 46.7273V78H739.952V46.7273H746.457ZM760.31 78.3817C758.529 78.3817 756.915 77.9237 755.47 77.0075C754.034 76.0811 752.894 74.7221 752.049 72.9304C751.215 71.1286 750.797 68.9195 750.797 66.3033C750.797 63.6158 751.23 61.3813 752.095 59.5998C752.961 57.8081 754.111 56.4695 755.546 55.5838C756.992 54.688 758.575 54.2401 760.295 54.2401C761.608 54.2401 762.703 54.464 763.578 54.9119C764.464 55.3497 765.176 55.8994 765.716 56.5611C766.266 57.2126 766.683 57.8539 766.968 58.4851H767.167V46.7273H773.656V78H767.243V74.2436H766.968C766.663 74.8951 766.23 75.5415 765.67 76.1829C765.12 76.814 764.403 77.3383 763.517 77.7557C762.642 78.1731 761.573 78.3817 760.31 78.3817ZM762.372 73.2053C763.42 73.2053 764.306 72.9202 765.029 72.3501C765.762 71.7699 766.322 70.9606 766.708 69.9222C767.106 68.8839 767.304 67.6674 767.304 66.2727C767.304 64.8781 767.111 63.6667 766.724 62.6385C766.337 61.6103 765.777 60.8163 765.044 60.2564C764.311 59.6965 763.42 59.4165 762.372 59.4165C761.303 59.4165 760.402 59.7067 759.669 60.2869C758.936 60.8672 758.381 61.6714 758.005 62.6996C757.628 63.7277 757.44 64.9188 757.44 66.2727C757.44 67.6368 757.628 68.8432 758.005 69.8917C758.391 70.93 758.946 71.7444 759.669 72.3349C760.402 72.9151 761.303 73.2053 762.372 73.2053ZM794.469 78H787.384L798.18 46.7273H806.7L817.481 78H810.396L802.562 53.8736H802.318L794.469 78ZM794.026 65.7077H810.762V70.869H794.026V65.7077Z" fill="white"/>
<path d="M662.467 447L653.916 415.727H657.764L664.3 441.197H664.605L671.263 415.727H675.538L682.196 441.197H682.501L689.037 415.727H692.885L684.334 447H680.425L673.523 422.08H673.278L666.376 447H662.467ZM701.833 447.55C700.347 447.55 698.998 447.27 697.787 446.71C696.575 446.14 695.613 445.32 694.901 444.251C694.188 443.172 693.832 441.869 693.832 440.342C693.832 438.999 694.096 437.909 694.626 437.075C695.155 436.23 695.863 435.568 696.748 435.089C697.634 434.611 698.611 434.255 699.68 434.021C700.759 433.776 701.843 433.583 702.933 433.44C704.358 433.257 705.513 433.12 706.399 433.028C707.295 432.926 707.946 432.758 708.353 432.524C708.771 432.29 708.979 431.883 708.979 431.303V431.18C708.979 429.674 708.567 428.503 707.743 427.668C706.928 426.834 705.691 426.416 704.032 426.416C702.312 426.416 700.963 426.793 699.985 427.546C699.008 428.299 698.321 429.104 697.924 429.959L694.504 428.737C695.114 427.312 695.929 426.202 696.947 425.408C697.975 424.604 699.095 424.044 700.306 423.729C701.528 423.403 702.729 423.24 703.91 423.24C704.663 423.24 705.528 423.332 706.506 423.515C707.493 423.688 708.445 424.049 709.361 424.599C710.288 425.149 711.056 425.978 711.667 427.088C712.278 428.198 712.583 429.684 712.583 431.547V447H708.979V443.824H708.796C708.552 444.333 708.145 444.877 707.575 445.458C707.004 446.038 706.246 446.532 705.299 446.939C704.353 447.346 703.197 447.55 701.833 447.55ZM702.383 444.312C703.808 444.312 705.009 444.033 705.987 443.473C706.974 442.913 707.717 442.19 708.216 441.304C708.725 440.419 708.979 439.487 708.979 438.51V435.212C708.827 435.395 708.491 435.563 707.972 435.716C707.463 435.858 706.872 435.985 706.2 436.097C705.539 436.199 704.892 436.291 704.261 436.372C703.64 436.443 703.136 436.504 702.749 436.555C701.813 436.678 700.937 436.876 700.123 437.151C699.319 437.416 698.667 437.818 698.168 438.357C697.68 438.887 697.435 439.609 697.435 440.526C697.435 441.778 697.899 442.724 698.825 443.366C699.761 443.997 700.947 444.312 702.383 444.312ZM722.764 432.891V447H719.161V423.545H722.642V427.21H722.948C723.497 426.019 724.332 425.062 725.452 424.339C726.572 423.607 728.017 423.24 729.788 423.24C731.377 423.24 732.766 423.566 733.957 424.217C735.148 424.859 736.075 425.836 736.736 427.149C737.398 428.452 737.729 430.101 737.729 432.097V447H734.125V432.341C734.125 430.498 733.647 429.063 732.69 428.035C731.733 426.996 730.42 426.477 728.75 426.477C727.6 426.477 726.572 426.727 725.666 427.225C724.77 427.724 724.062 428.452 723.543 429.409C723.024 430.366 722.764 431.527 722.764 432.891ZM754.514 423.545V426.599H742.359V423.545H754.514ZM745.902 417.926H749.506V440.281C749.506 441.299 749.653 442.063 749.949 442.572C750.254 443.071 750.641 443.406 751.109 443.58C751.587 443.742 752.091 443.824 752.621 443.824C753.018 443.824 753.344 443.804 753.598 443.763C753.853 443.712 754.056 443.671 754.209 443.641L754.942 446.878C754.697 446.969 754.356 447.061 753.919 447.153C753.481 447.254 752.926 447.305 752.254 447.305C751.236 447.305 750.239 447.087 749.261 446.649C748.294 446.211 747.49 445.544 746.849 444.648C746.218 443.753 745.902 442.623 745.902 441.259V417.926ZM776.129 428.798L772.892 429.714C772.688 429.175 772.388 428.651 771.991 428.142C771.604 427.623 771.074 427.195 770.403 426.859C769.731 426.523 768.87 426.355 767.822 426.355C766.387 426.355 765.19 426.686 764.233 427.348C763.287 427.999 762.813 428.829 762.813 429.837C762.813 430.732 763.139 431.44 763.791 431.959C764.442 432.478 765.46 432.911 766.845 433.257L770.326 434.112C772.423 434.621 773.986 435.4 775.014 436.449C776.042 437.487 776.556 438.826 776.556 440.464C776.556 441.808 776.169 443.009 775.396 444.068C774.632 445.127 773.563 445.962 772.189 446.572C770.815 447.183 769.217 447.489 767.394 447.489C765.002 447.489 763.022 446.969 761.454 445.931C759.887 444.893 758.894 443.376 758.477 441.381L761.897 440.526C762.223 441.788 762.839 442.735 763.745 443.366C764.661 443.997 765.857 444.312 767.333 444.312C769.013 444.312 770.347 443.956 771.334 443.244C772.332 442.521 772.83 441.656 772.83 440.648C772.83 439.833 772.545 439.151 771.975 438.602C771.405 438.042 770.53 437.624 769.349 437.349L765.44 436.433C763.292 435.924 761.714 435.135 760.706 434.066C759.709 432.987 759.21 431.638 759.21 430.02C759.21 428.696 759.581 427.526 760.324 426.508C761.078 425.49 762.101 424.691 763.394 424.11C764.697 423.53 766.173 423.24 767.822 423.24C770.143 423.24 771.965 423.749 773.289 424.767C774.622 425.785 775.569 427.129 776.129 428.798ZM784.607 447.244C783.854 447.244 783.208 446.975 782.668 446.435C782.129 445.895 781.859 445.249 781.859 444.496C781.859 443.742 782.129 443.096 782.668 442.556C783.208 442.017 783.854 441.747 784.607 441.747C785.361 441.747 786.007 442.017 786.547 442.556C787.086 443.096 787.356 443.742 787.356 444.496C787.356 444.995 787.229 445.453 786.974 445.87C786.73 446.287 786.399 446.623 785.982 446.878C785.574 447.122 785.116 447.244 784.607 447.244ZM784.607 429.837C783.854 429.837 783.208 429.567 782.668 429.027C782.129 428.488 781.859 427.841 781.859 427.088C781.859 426.335 782.129 425.688 782.668 425.149C783.208 424.609 783.854 424.339 784.607 424.339C785.361 424.339 786.007 424.609 786.547 425.149C787.086 425.688 787.356 426.335 787.356 427.088C787.356 427.587 787.229 428.045 786.974 428.462C786.73 428.88 786.399 429.216 785.982 429.47C785.574 429.714 785.116 429.837 784.607 429.837Z" fill="white"/>
<path d="M929.467 447L920.916 415.727H924.764L931.3 441.197H931.605L938.263 415.727H942.538L949.196 441.197H949.501L956.037 415.727H959.885L951.334 447H947.425L940.523 422.08H940.278L933.376 447H929.467ZM968.833 447.55C967.347 447.55 965.998 447.27 964.787 446.71C963.575 446.14 962.613 445.32 961.901 444.251C961.188 443.172 960.832 441.869 960.832 440.342C960.832 438.999 961.096 437.909 961.626 437.075C962.155 436.23 962.863 435.568 963.748 435.089C964.634 434.611 965.611 434.255 966.68 434.021C967.759 433.776 968.843 433.583 969.933 433.44C971.358 433.257 972.513 433.12 973.399 433.028C974.295 432.926 974.946 432.758 975.353 432.524C975.771 432.29 975.979 431.883 975.979 431.303V431.18C975.979 429.674 975.567 428.503 974.743 427.668C973.928 426.834 972.691 426.416 971.032 426.416C969.312 426.416 967.963 426.793 966.985 427.546C966.008 428.299 965.321 429.104 964.924 429.959L961.504 428.737C962.114 427.312 962.929 426.202 963.947 425.408C964.975 424.604 966.095 424.044 967.306 423.729C968.528 423.403 969.729 423.24 970.91 423.24C971.663 423.24 972.528 423.332 973.506 423.515C974.493 423.688 975.445 424.049 976.361 424.599C977.288 425.149 978.056 425.978 978.667 427.088C979.278 428.198 979.583 429.684 979.583 431.547V447H975.979V443.824H975.796C975.552 444.333 975.145 444.877 974.575 445.458C974.004 446.038 973.246 446.532 972.299 446.939C971.353 447.346 970.197 447.55 968.833 447.55ZM969.383 444.312C970.808 444.312 972.009 444.033 972.987 443.473C973.974 442.913 974.717 442.19 975.216 441.304C975.725 440.419 975.979 439.487 975.979 438.51V435.212C975.827 435.395 975.491 435.563 974.972 435.716C974.463 435.858 973.872 435.985 973.2 436.097C972.539 436.199 971.892 436.291 971.261 436.372C970.64 436.443 970.136 436.504 969.749 436.555C968.813 436.678 967.937 436.876 967.123 437.151C966.319 437.416 965.667 437.818 965.168 438.357C964.68 438.887 964.435 439.609 964.435 440.526C964.435 441.778 964.899 442.724 965.825 443.366C966.761 443.997 967.947 444.312 969.383 444.312ZM989.764 432.891V447H986.161V423.545H989.642V427.21H989.948C990.497 426.019 991.332 425.062 992.452 424.339C993.572 423.607 995.017 423.24 996.788 423.24C998.377 423.24 999.766 423.566 1000.96 424.217C1002.15 424.859 1003.07 425.836 1003.74 427.149C1004.4 428.452 1004.73 430.101 1004.73 432.097V447H1001.13V432.341C1001.13 430.498 1000.65 429.063 999.69 428.035C998.733 426.996 997.42 426.477 995.75 426.477C994.6 426.477 993.572 426.727 992.666 427.225C991.77 427.724 991.062 428.452 990.543 429.409C990.024 430.366 989.764 431.527 989.764 432.891ZM1021.51 423.545V426.599H1009.36V423.545H1021.51ZM1012.9 417.926H1016.51V440.281C1016.51 441.299 1016.65 442.063 1016.95 442.572C1017.25 443.071 1017.64 443.406 1018.11 443.58C1018.59 443.742 1019.09 443.824 1019.62 443.824C1020.02 443.824 1020.34 443.804 1020.6 443.763C1020.85 443.712 1021.06 443.671 1021.21 443.641L1021.94 446.878C1021.7 446.969 1021.36 447.061 1020.92 447.153C1020.48 447.254 1019.93 447.305 1019.25 447.305C1018.24 447.305 1017.24 447.087 1016.26 446.649C1015.29 446.211 1014.49 445.544 1013.85 444.648C1013.22 443.753 1012.9 442.623 1012.9 441.259V417.926ZM1043.13 428.798L1039.89 429.714C1039.69 429.175 1039.39 428.651 1038.99 428.142C1038.6 427.623 1038.07 427.195 1037.4 426.859C1036.73 426.523 1035.87 426.355 1034.82 426.355C1033.39 426.355 1032.19 426.686 1031.23 427.348C1030.29 427.999 1029.81 428.829 1029.81 429.837C1029.81 430.732 1030.14 431.44 1030.79 431.959C1031.44 432.478 1032.46 432.911 1033.84 433.257L1037.33 434.112C1039.42 434.621 1040.99 435.4 1042.01 436.449C1043.04 437.487 1043.56 438.826 1043.56 440.464C1043.56 441.808 1043.17 443.009 1042.4 444.068C1041.63 445.127 1040.56 445.962 1039.19 446.572C1037.81 447.183 1036.22 447.489 1034.39 447.489C1032 447.489 1030.02 446.969 1028.45 445.931C1026.89 444.893 1025.89 443.376 1025.48 441.381L1028.9 440.526C1029.22 441.788 1029.84 442.735 1030.74 443.366C1031.66 443.997 1032.86 444.312 1034.33 444.312C1036.01 444.312 1037.35 443.956 1038.33 443.244C1039.33 442.521 1039.83 441.656 1039.83 440.648C1039.83 439.833 1039.55 439.151 1038.98 438.602C1038.41 438.042 1037.53 437.624 1036.35 437.349L1032.44 436.433C1030.29 435.924 1028.71 435.135 1027.71 434.066C1026.71 432.987 1026.21 431.638 1026.21 430.02C1026.21 428.696 1026.58 427.526 1027.32 426.508C1028.08 425.49 1029.1 424.691 1030.39 424.11C1031.7 423.53 1033.17 423.24 1034.82 423.24C1037.14 423.24 1038.97 423.749 1040.29 424.767C1041.62 425.785 1042.57 427.129 1043.13 428.798ZM1051.61 447.244C1050.85 447.244 1050.21 446.975 1049.67 446.435C1049.13 445.895 1048.86 445.249 1048.86 444.496C1048.86 443.742 1049.13 443.096 1049.67 442.556C1050.21 442.017 1050.85 441.747 1051.61 441.747C1052.36 441.747 1053.01 442.017 1053.55 442.556C1054.09 443.096 1054.36 443.742 1054.36 444.496C1054.36 444.995 1054.23 445.453 1053.97 445.87C1053.73 446.287 1053.4 446.623 1052.98 446.878C1052.57 447.122 1052.12 447.244 1051.61 447.244ZM1051.61 429.837C1050.85 429.837 1050.21 429.567 1049.67 429.027C1049.13 428.488 1048.86 427.841 1048.86 427.088C1048.86 426.335 1049.13 425.688 1049.67 425.149C1050.21 424.609 1050.85 424.339 1051.61 424.339C1052.36 424.339 1053.01 424.609 1053.55 425.149C1054.09 425.688 1054.36 426.335 1054.36 427.088C1054.36 427.587 1054.23 428.045 1053.97 428.462C1053.73 428.88 1053.4 429.216 1052.98 429.47C1052.57 429.714 1052.12 429.837 1051.61 429.837Z" fill="white"/>
<path d="M1197.47 447L1188.92 415.727H1192.76L1199.3 441.197H1199.61L1206.26 415.727H1210.54L1217.2 441.197H1217.5L1224.04 415.727H1227.88L1219.33 447H1215.42L1208.52 422.08H1208.28L1201.38 447H1197.47ZM1236.83 447.55C1235.35 447.55 1234 447.27 1232.79 446.71C1231.58 446.14 1230.61 445.32 1229.9 444.251C1229.19 443.172 1228.83 441.869 1228.83 440.342C1228.83 438.999 1229.1 437.909 1229.63 437.075C1230.16 436.23 1230.86 435.568 1231.75 435.089C1232.63 434.611 1233.61 434.255 1234.68 434.021C1235.76 433.776 1236.84 433.583 1237.93 433.44C1239.36 433.257 1240.51 433.12 1241.4 433.028C1242.29 432.926 1242.95 432.758 1243.35 432.524C1243.77 432.29 1243.98 431.883 1243.98 431.303V431.18C1243.98 429.674 1243.57 428.503 1242.74 427.668C1241.93 426.834 1240.69 426.416 1239.03 426.416C1237.31 426.416 1235.96 426.793 1234.99 427.546C1234.01 428.299 1233.32 429.104 1232.92 429.959L1229.5 428.737C1230.11 427.312 1230.93 426.202 1231.95 425.408C1232.97 424.604 1234.09 424.044 1235.31 423.729C1236.53 423.403 1237.73 423.24 1238.91 423.24C1239.66 423.24 1240.53 423.332 1241.51 423.515C1242.49 423.688 1243.44 424.049 1244.36 424.599C1245.29 425.149 1246.06 425.978 1246.67 427.088C1247.28 428.198 1247.58 429.684 1247.58 431.547V447H1243.98V443.824H1243.8C1243.55 444.333 1243.14 444.877 1242.57 445.458C1242 446.038 1241.25 446.532 1240.3 446.939C1239.35 447.346 1238.2 447.55 1236.83 447.55ZM1237.38 444.312C1238.81 444.312 1240.01 444.033 1240.99 443.473C1241.97 442.913 1242.72 442.19 1243.22 441.304C1243.72 440.419 1243.98 439.487 1243.98 438.51V435.212C1243.83 435.395 1243.49 435.563 1242.97 435.716C1242.46 435.858 1241.87 435.985 1241.2 436.097C1240.54 436.199 1239.89 436.291 1239.26 436.372C1238.64 436.443 1238.14 436.504 1237.75 436.555C1236.81 436.678 1235.94 436.876 1235.12 437.151C1234.32 437.416 1233.67 437.818 1233.17 438.357C1232.68 438.887 1232.44 439.609 1232.44 440.526C1232.44 441.778 1232.9 442.724 1233.82 443.366C1234.76 443.997 1235.95 444.312 1237.38 444.312ZM1257.76 432.891V447H1254.16V423.545H1257.64V427.21H1257.95C1258.5 426.019 1259.33 425.062 1260.45 424.339C1261.57 423.607 1263.02 423.24 1264.79 423.24C1266.38 423.24 1267.77 423.566 1268.96 424.217C1270.15 424.859 1271.07 425.836 1271.74 427.149C1272.4 428.452 1272.73 430.101 1272.73 432.097V447H1269.13V432.341C1269.13 430.498 1268.65 429.063 1267.69 428.035C1266.73 426.996 1265.42 426.477 1263.75 426.477C1262.6 426.477 1261.57 426.727 1260.67 427.225C1259.77 427.724 1259.06 428.452 1258.54 429.409C1258.02 430.366 1257.76 431.527 1257.76 432.891ZM1289.51 423.545V426.599H1277.36V423.545H1289.51ZM1280.9 417.926H1284.51V440.281C1284.51 441.299 1284.65 442.063 1284.95 442.572C1285.25 443.071 1285.64 443.406 1286.11 443.58C1286.59 443.742 1287.09 443.824 1287.62 443.824C1288.02 443.824 1288.34 443.804 1288.6 443.763C1288.85 443.712 1289.06 443.671 1289.21 443.641L1289.94 446.878C1289.7 446.969 1289.36 447.061 1288.92 447.153C1288.48 447.254 1287.93 447.305 1287.25 447.305C1286.24 447.305 1285.24 447.087 1284.26 446.649C1283.29 446.211 1282.49 445.544 1281.85 444.648C1281.22 443.753 1280.9 442.623 1280.9 441.259V417.926ZM1311.13 428.798L1307.89 429.714C1307.69 429.175 1307.39 428.651 1306.99 428.142C1306.6 427.623 1306.07 427.195 1305.4 426.859C1304.73 426.523 1303.87 426.355 1302.82 426.355C1301.39 426.355 1300.19 426.686 1299.23 427.348C1298.29 427.999 1297.81 428.829 1297.81 429.837C1297.81 430.732 1298.14 431.44 1298.79 431.959C1299.44 432.478 1300.46 432.911 1301.84 433.257L1305.33 434.112C1307.42 434.621 1308.99 435.4 1310.01 436.449C1311.04 437.487 1311.56 438.826 1311.56 440.464C1311.56 441.808 1311.17 443.009 1310.4 444.068C1309.63 445.127 1308.56 445.962 1307.19 446.572C1305.81 447.183 1304.22 447.489 1302.39 447.489C1300 447.489 1298.02 446.969 1296.45 445.931C1294.89 444.893 1293.89 443.376 1293.48 441.381L1296.9 440.526C1297.22 441.788 1297.84 442.735 1298.74 443.366C1299.66 443.997 1300.86 444.312 1302.33 444.312C1304.01 444.312 1305.35 443.956 1306.33 443.244C1307.33 442.521 1307.83 441.656 1307.83 440.648C1307.83 439.833 1307.55 439.151 1306.98 438.602C1306.41 438.042 1305.53 437.624 1304.35 437.349L1300.44 436.433C1298.29 435.924 1296.71 435.135 1295.71 434.066C1294.71 432.987 1294.21 431.638 1294.21 430.02C1294.21 428.696 1294.58 427.526 1295.32 426.508C1296.08 425.49 1297.1 424.691 1298.39 424.11C1299.7 423.53 1301.17 423.24 1302.82 423.24C1305.14 423.24 1306.97 423.749 1308.29 424.767C1309.62 425.785 1310.57 427.129 1311.13 428.798ZM1319.61 447.244C1318.85 447.244 1318.21 446.975 1317.67 446.435C1317.13 445.895 1316.86 445.249 1316.86 444.496C1316.86 443.742 1317.13 443.096 1317.67 442.556C1318.21 442.017 1318.85 441.747 1319.61 441.747C1320.36 441.747 1321.01 442.017 1321.55 442.556C1322.09 443.096 1322.36 443.742 1322.36 444.496C1322.36 444.995 1322.23 445.453 1321.97 445.87C1321.73 446.287 1321.4 446.623 1320.98 446.878C1320.57 447.122 1320.12 447.244 1319.61 447.244ZM1319.61 429.837C1318.85 429.837 1318.21 429.567 1317.67 429.027C1317.13 428.488 1316.86 427.841 1316.86 427.088C1316.86 426.335 1317.13 425.688 1317.67 425.149C1318.21 424.609 1318.85 424.339 1319.61 424.339C1320.36 424.339 1321.01 424.609 1321.55 425.149C1322.09 425.688 1322.36 426.335 1322.36 427.088C1322.36 427.587 1322.23 428.045 1321.97 428.462C1321.73 428.88 1321.4 429.216 1320.98 429.47C1320.57 429.714 1320.12 429.837 1319.61 429.837Z" fill="white"/>
<path d="M655.787 618V586.727H659.574V600.653H676.249V586.727H680.036V618H676.249V604.013H659.574V618H655.787ZM694.03 618.55C692.544 618.55 691.195 618.27 689.984 617.71C688.772 617.14 687.81 616.32 687.098 615.251C686.385 614.172 686.029 612.869 686.029 611.342C686.029 609.999 686.294 608.909 686.823 608.075C687.352 607.23 688.06 606.568 688.945 606.089C689.831 605.611 690.808 605.255 691.877 605.021C692.956 604.776 694.041 604.583 695.13 604.44C696.555 604.257 697.71 604.12 698.596 604.028C699.492 603.926 700.143 603.758 700.551 603.524C700.968 603.29 701.177 602.883 701.177 602.303V602.18C701.177 600.674 700.764 599.503 699.94 598.668C699.125 597.834 697.889 597.416 696.229 597.416C694.509 597.416 693.16 597.793 692.183 598.546C691.205 599.299 690.518 600.104 690.121 600.959L686.701 599.737C687.312 598.312 688.126 597.202 689.144 596.408C690.172 595.604 691.292 595.044 692.503 594.729C693.725 594.403 694.926 594.24 696.107 594.24C696.86 594.24 697.726 594.332 698.703 594.515C699.69 594.688 700.642 595.049 701.558 595.599C702.485 596.149 703.253 596.978 703.864 598.088C704.475 599.198 704.78 600.684 704.78 602.547V618H701.177V614.824H700.993C700.749 615.333 700.342 615.877 699.772 616.458C699.202 617.038 698.443 617.532 697.497 617.939C696.55 618.346 695.394 618.55 694.03 618.55ZM694.58 615.312C696.005 615.312 697.206 615.033 698.184 614.473C699.171 613.913 699.914 613.19 700.413 612.304C700.922 611.419 701.177 610.487 701.177 609.51V606.212C701.024 606.395 700.688 606.563 700.169 606.716C699.66 606.858 699.069 606.985 698.398 607.097C697.736 607.199 697.089 607.291 696.458 607.372C695.837 607.443 695.333 607.504 694.947 607.555C694.01 607.678 693.135 607.876 692.32 608.151C691.516 608.416 690.864 608.818 690.366 609.357C689.877 609.887 689.633 610.609 689.633 611.526C689.633 612.778 690.096 613.724 691.022 614.366C691.959 614.997 693.145 615.312 694.58 615.312ZM727.972 599.798L724.734 600.714C724.531 600.175 724.23 599.651 723.833 599.142C723.447 598.623 722.917 598.195 722.245 597.859C721.573 597.523 720.713 597.355 719.665 597.355C718.229 597.355 717.033 597.686 716.076 598.348C715.13 598.999 714.656 599.829 714.656 600.837C714.656 601.732 714.982 602.44 715.633 602.959C716.285 603.478 717.303 603.911 718.687 604.257L722.169 605.112C724.266 605.621 725.829 606.4 726.857 607.449C727.885 608.487 728.399 609.826 728.399 611.464C728.399 612.808 728.012 614.009 727.239 615.068C726.475 616.127 725.406 616.962 724.032 617.572C722.658 618.183 721.059 618.489 719.237 618.489C716.845 618.489 714.865 617.969 713.297 616.931C711.729 615.893 710.737 614.376 710.32 612.381L713.74 611.526C714.066 612.788 714.682 613.735 715.588 614.366C716.504 614.997 717.7 615.312 719.176 615.312C720.856 615.312 722.189 614.956 723.177 614.244C724.174 613.521 724.673 612.656 724.673 611.648C724.673 610.833 724.388 610.151 723.818 609.602C723.248 609.042 722.373 608.624 721.192 608.349L717.283 607.433C715.135 606.924 713.557 606.135 712.549 605.066C711.551 603.987 711.052 602.638 711.052 601.02C711.052 599.696 711.424 598.526 712.167 597.508C712.92 596.49 713.944 595.691 715.236 595.11C716.539 594.53 718.016 594.24 719.665 594.24C721.986 594.24 723.808 594.749 725.131 595.767C726.465 596.785 727.412 598.129 727.972 599.798ZM736.45 618.244C735.697 618.244 735.05 617.975 734.511 617.435C733.971 616.895 733.702 616.249 733.702 615.496C733.702 614.742 733.971 614.096 734.511 613.556C735.05 613.017 735.697 612.747 736.45 612.747C737.203 612.747 737.85 613.017 738.389 613.556C738.929 614.096 739.199 614.742 739.199 615.496C739.199 615.995 739.071 616.453 738.817 616.87C738.573 617.287 738.242 617.623 737.824 617.878C737.417 618.122 736.959 618.244 736.45 618.244ZM736.45 600.837C735.697 600.837 735.05 600.567 734.511 600.027C733.971 599.488 733.702 598.841 733.702 598.088C733.702 597.335 733.971 596.688 734.511 596.149C735.05 595.609 735.697 595.339 736.45 595.339C737.203 595.339 737.85 595.609 738.389 596.149C738.929 596.688 739.199 597.335 739.199 598.088C739.199 598.587 739.071 599.045 738.817 599.462C738.573 599.88 738.242 600.216 737.824 600.47C737.417 600.714 736.959 600.837 736.45 600.837Z" fill="white"/>
<path d="M922.787 618V586.727H926.574V600.653H943.249V586.727H947.036V618H943.249V604.013H926.574V618H922.787ZM961.03 618.55C959.544 618.55 958.195 618.27 956.984 617.71C955.772 617.14 954.81 616.32 954.098 615.251C953.385 614.172 953.029 612.869 953.029 611.342C953.029 609.999 953.294 608.909 953.823 608.075C954.352 607.23 955.06 606.568 955.945 606.089C956.831 605.611 957.808 605.255 958.877 605.021C959.956 604.776 961.041 604.583 962.13 604.44C963.555 604.257 964.71 604.12 965.596 604.028C966.492 603.926 967.143 603.758 967.551 603.524C967.968 603.29 968.177 602.883 968.177 602.303V602.18C968.177 600.674 967.764 599.503 966.94 598.668C966.125 597.834 964.889 597.416 963.229 597.416C961.509 597.416 960.16 597.793 959.183 598.546C958.205 599.299 957.518 600.104 957.121 600.959L953.701 599.737C954.312 598.312 955.126 597.202 956.144 596.408C957.172 595.604 958.292 595.044 959.503 594.729C960.725 594.403 961.926 594.24 963.107 594.24C963.86 594.24 964.726 594.332 965.703 594.515C966.69 594.688 967.642 595.049 968.558 595.599C969.485 596.149 970.253 596.978 970.864 598.088C971.475 599.198 971.78 600.684 971.78 602.547V618H968.177V614.824H967.993C967.749 615.333 967.342 615.877 966.772 616.458C966.202 617.038 965.443 617.532 964.497 617.939C963.55 618.346 962.394 618.55 961.03 618.55ZM961.58 615.312C963.005 615.312 964.206 615.033 965.184 614.473C966.171 613.913 966.914 613.19 967.413 612.304C967.922 611.419 968.177 610.487 968.177 609.51V606.212C968.024 606.395 967.688 606.563 967.169 606.716C966.66 606.858 966.069 606.985 965.398 607.097C964.736 607.199 964.089 607.291 963.458 607.372C962.837 607.443 962.333 607.504 961.947 607.555C961.01 607.678 960.135 607.876 959.32 608.151C958.516 608.416 957.864 608.818 957.366 609.357C956.877 609.887 956.633 610.609 956.633 611.526C956.633 612.778 957.096 613.724 958.022 614.366C958.959 614.997 960.145 615.312 961.58 615.312ZM994.972 599.798L991.734 600.714C991.531 600.175 991.23 599.651 990.833 599.142C990.447 598.623 989.917 598.195 989.245 597.859C988.573 597.523 987.713 597.355 986.665 597.355C985.229 597.355 984.033 597.686 983.076 598.348C982.13 598.999 981.656 599.829 981.656 600.837C981.656 601.732 981.982 602.44 982.633 602.959C983.285 603.478 984.303 603.911 985.687 604.257L989.169 605.112C991.266 605.621 992.829 606.4 993.857 607.449C994.885 608.487 995.399 609.826 995.399 611.464C995.399 612.808 995.012 614.009 994.239 615.068C993.475 616.127 992.406 616.962 991.032 617.572C989.658 618.183 988.059 618.489 986.237 618.489C983.845 618.489 981.865 617.969 980.297 616.931C978.729 615.893 977.737 614.376 977.32 612.381L980.74 611.526C981.066 612.788 981.682 613.735 982.588 614.366C983.504 614.997 984.7 615.312 986.176 615.312C987.856 615.312 989.189 614.956 990.177 614.244C991.174 613.521 991.673 612.656 991.673 611.648C991.673 610.833 991.388 610.151 990.818 609.602C990.248 609.042 989.373 608.624 988.192 608.349L984.283 607.433C982.135 606.924 980.557 606.135 979.549 605.066C978.551 603.987 978.052 602.638 978.052 601.02C978.052 599.696 978.424 598.526 979.167 597.508C979.92 596.49 980.944 595.691 982.236 595.11C983.539 594.53 985.016 594.24 986.665 594.24C988.986 594.24 990.808 594.749 992.131 595.767C993.465 596.785 994.412 598.129 994.972 599.798ZM1003.45 618.244C1002.7 618.244 1002.05 617.975 1001.51 617.435C1000.97 616.895 1000.7 616.249 1000.7 615.496C1000.7 614.742 1000.97 614.096 1001.51 613.556C1002.05 613.017 1002.7 612.747 1003.45 612.747C1004.2 612.747 1004.85 613.017 1005.39 613.556C1005.93 614.096 1006.2 614.742 1006.2 615.496C1006.2 615.995 1006.07 616.453 1005.82 616.87C1005.57 617.287 1005.24 617.623 1004.82 617.878C1004.42 618.122 1003.96 618.244 1003.45 618.244ZM1003.45 600.837C1002.7 600.837 1002.05 600.567 1001.51 600.027C1000.97 599.488 1000.7 598.841 1000.7 598.088C1000.7 597.335 1000.97 596.688 1001.51 596.149C1002.05 595.609 1002.7 595.339 1003.45 595.339C1004.2 595.339 1004.85 595.609 1005.39 596.149C1005.93 596.688 1006.2 597.335 1006.2 598.088C1006.2 598.587 1006.07 599.045 1005.82 599.462C1005.57 599.88 1005.24 600.216 1004.82 600.47C1004.42 600.714 1003.96 600.837 1003.45 600.837Z" fill="white"/>
<path d="M1190.79 618V586.727H1194.57V600.653H1211.25V586.727H1215.04V618H1211.25V604.013H1194.57V618H1190.79ZM1229.03 618.55C1227.54 618.55 1226.2 618.27 1224.98 617.71C1223.77 617.14 1222.81 616.32 1222.1 615.251C1221.39 614.172 1221.03 612.869 1221.03 611.342C1221.03 609.999 1221.29 608.909 1221.82 608.075C1222.35 607.23 1223.06 606.568 1223.95 606.089C1224.83 605.611 1225.81 605.255 1226.88 605.021C1227.96 604.776 1229.04 604.583 1230.13 604.44C1231.55 604.257 1232.71 604.12 1233.6 604.028C1234.49 603.926 1235.14 603.758 1235.55 603.524C1235.97 603.29 1236.18 602.883 1236.18 602.303V602.18C1236.18 600.674 1235.76 599.503 1234.94 598.668C1234.13 597.834 1232.89 597.416 1231.23 597.416C1229.51 597.416 1228.16 597.793 1227.18 598.546C1226.21 599.299 1225.52 600.104 1225.12 600.959L1221.7 599.737C1222.31 598.312 1223.13 597.202 1224.14 596.408C1225.17 595.604 1226.29 595.044 1227.5 594.729C1228.72 594.403 1229.93 594.24 1231.11 594.24C1231.86 594.24 1232.73 594.332 1233.7 594.515C1234.69 594.688 1235.64 595.049 1236.56 595.599C1237.48 596.149 1238.25 596.978 1238.86 598.088C1239.47 599.198 1239.78 600.684 1239.78 602.547V618H1236.18V614.824H1235.99C1235.75 615.333 1235.34 615.877 1234.77 616.458C1234.2 617.038 1233.44 617.532 1232.5 617.939C1231.55 618.346 1230.39 618.55 1229.03 618.55ZM1229.58 615.312C1231.01 615.312 1232.21 615.033 1233.18 614.473C1234.17 613.913 1234.91 613.19 1235.41 612.304C1235.92 611.419 1236.18 610.487 1236.18 609.51V606.212C1236.02 606.395 1235.69 606.563 1235.17 606.716C1234.66 606.858 1234.07 606.985 1233.4 607.097C1232.74 607.199 1232.09 607.291 1231.46 607.372C1230.84 607.443 1230.33 607.504 1229.95 607.555C1229.01 607.678 1228.13 607.876 1227.32 608.151C1226.52 608.416 1225.86 608.818 1225.37 609.357C1224.88 609.887 1224.63 610.609 1224.63 611.526C1224.63 612.778 1225.1 613.724 1226.02 614.366C1226.96 614.997 1228.14 615.312 1229.58 615.312ZM1262.97 599.798L1259.73 600.714C1259.53 600.175 1259.23 599.651 1258.83 599.142C1258.45 598.623 1257.92 598.195 1257.25 597.859C1256.57 597.523 1255.71 597.355 1254.66 597.355C1253.23 597.355 1252.03 597.686 1251.08 598.348C1250.13 598.999 1249.66 599.829 1249.66 600.837C1249.66 601.732 1249.98 602.44 1250.63 602.959C1251.28 603.478 1252.3 603.911 1253.69 604.257L1257.17 605.112C1259.27 605.621 1260.83 606.4 1261.86 607.449C1262.88 608.487 1263.4 609.826 1263.4 611.464C1263.4 612.808 1263.01 614.009 1262.24 615.068C1261.48 616.127 1260.41 616.962 1259.03 617.572C1257.66 618.183 1256.06 618.489 1254.24 618.489C1251.84 618.489 1249.86 617.969 1248.3 616.931C1246.73 615.893 1245.74 614.376 1245.32 612.381L1248.74 611.526C1249.07 612.788 1249.68 613.735 1250.59 614.366C1251.5 614.997 1252.7 615.312 1254.18 615.312C1255.86 615.312 1257.19 614.956 1258.18 614.244C1259.17 613.521 1259.67 612.656 1259.67 611.648C1259.67 610.833 1259.39 610.151 1258.82 609.602C1258.25 609.042 1257.37 608.624 1256.19 608.349L1252.28 607.433C1250.13 606.924 1248.56 606.135 1247.55 605.066C1246.55 603.987 1246.05 602.638 1246.05 601.02C1246.05 599.696 1246.42 598.526 1247.17 597.508C1247.92 596.49 1248.94 595.691 1250.24 595.11C1251.54 594.53 1253.02 594.24 1254.66 594.24C1256.99 594.24 1258.81 594.749 1260.13 595.767C1261.46 596.785 1262.41 598.129 1262.97 599.798ZM1271.45 618.244C1270.7 618.244 1270.05 617.975 1269.51 617.435C1268.97 616.895 1268.7 616.249 1268.7 615.496C1268.7 614.742 1268.97 614.096 1269.51 613.556C1270.05 613.017 1270.7 612.747 1271.45 612.747C1272.2 612.747 1272.85 613.017 1273.39 613.556C1273.93 614.096 1274.2 614.742 1274.2 615.496C1274.2 615.995 1274.07 616.453 1273.82 616.87C1273.57 617.287 1273.24 617.623 1272.82 617.878C1272.42 618.122 1271.96 618.244 1271.45 618.244ZM1271.45 600.837C1270.7 600.837 1270.05 600.567 1269.51 600.027C1268.97 599.488 1268.7 598.841 1268.7 598.088C1268.7 597.335 1268.97 596.688 1269.51 596.149C1270.05 595.609 1270.7 595.339 1271.45 595.339C1272.2 595.339 1272.85 595.609 1273.39 596.149C1273.93 596.688 1274.2 597.335 1274.2 598.088C1274.2 598.587 1274.07 599.045 1273.82 599.462C1273.57 599.88 1273.24 600.216 1272.82 600.47C1272.42 600.714 1271.96 600.837 1271.45 600.837Z" fill="white"/>
<path d="M1203.74 673.913V677.273H1190.05V673.913H1203.74Z" fill="white"/>
<path d="M965.653 57.6758H958.964C958.842 56.8105 958.593 56.0419 958.216 55.37C957.839 54.688 957.356 54.1077 956.765 53.6293C956.175 53.1508 955.493 52.7843 954.719 52.5298C953.956 52.2753 953.126 52.1481 952.23 52.1481C950.612 52.1481 949.202 52.5502 948.001 53.3544C946.799 54.1484 945.868 55.3089 945.206 56.8359C944.544 58.3527 944.214 60.1953 944.214 62.3636C944.214 64.593 944.544 66.4661 945.206 67.983C945.878 69.4998 946.815 70.645 948.016 71.4187C949.217 72.1924 950.607 72.5792 952.184 72.5792C953.07 72.5792 953.89 72.4621 954.643 72.228C955.406 71.9938 956.083 71.6528 956.674 71.2049C957.264 70.7468 957.753 70.192 958.14 69.5405C958.537 68.889 958.812 68.1458 958.964 67.3111L965.653 67.3416C965.479 68.777 965.047 70.1615 964.355 71.495C963.673 72.8184 962.751 74.0044 961.591 75.0529C960.44 76.0913 959.066 76.9158 957.468 77.5266C955.88 78.1272 954.083 78.4276 952.078 78.4276C949.288 78.4276 946.794 77.7964 944.595 76.5341C942.407 75.2718 940.676 73.4445 939.404 71.0522C938.141 68.6599 937.51 65.7637 937.51 62.3636C937.51 58.9534 938.151 56.0521 939.434 53.6598C940.717 51.2675 942.458 49.4453 944.656 48.1932C946.855 46.9309 949.329 46.2997 952.078 46.2997C953.89 46.2997 955.569 46.5542 957.117 47.0632C958.674 47.5722 960.054 48.3153 961.255 49.2926C962.456 50.2597 963.433 51.4457 964.187 52.8505C964.95 54.2553 965.439 55.8638 965.653 57.6758ZM976.777 64.4403V78H970.272V46.7273H976.593V58.6836H976.868C977.398 57.2991 978.253 56.215 979.434 55.4311C980.614 54.6371 982.096 54.2401 983.877 54.2401C985.506 54.2401 986.926 54.5964 988.137 55.3089C989.359 56.0114 990.306 57.0243 990.978 58.3477C991.66 59.6609 991.996 61.2337 991.985 63.0661V78H985.48V64.2266C985.491 62.781 985.124 61.6561 984.381 60.8519C983.648 60.0477 982.62 59.6456 981.297 59.6456C980.411 59.6456 979.627 59.8339 978.945 60.2106C978.273 60.5872 977.744 61.137 977.357 61.8597C976.98 62.5723 976.787 63.4325 976.777 64.4403ZM997.105 78V54.5455H1003.61V78H997.105ZM1000.37 51.522C999.405 51.522 998.576 51.2013 997.883 50.56C997.201 49.9085 996.86 49.1297 996.86 48.2237C996.86 47.3279 997.201 46.5593 997.883 45.918C998.576 45.2665 999.405 44.9407 1000.37 44.9407C1001.34 44.9407 1002.16 45.2665 1002.85 45.918C1003.54 46.5593 1003.88 47.3279 1003.88 48.2237C1003.88 49.1297 1003.54 49.9085 1002.85 50.56C1002.16 51.2013 1001.34 51.522 1000.37 51.522ZM1015.33 46.7273V78H1008.82V46.7273H1015.33ZM1029.18 78.3817C1027.4 78.3817 1025.78 77.9237 1024.34 77.0075C1022.9 76.0811 1021.76 74.7221 1020.92 72.9304C1020.08 71.1286 1019.67 68.9195 1019.67 66.3033C1019.67 63.6158 1020.1 61.3813 1020.96 59.5998C1021.83 57.8081 1022.98 56.4695 1024.41 55.5838C1025.86 54.688 1027.44 54.2401 1029.16 54.2401C1030.48 54.2401 1031.57 54.464 1032.45 54.9119C1033.33 55.3497 1034.05 55.8994 1034.58 56.5611C1035.13 57.2126 1035.55 57.8539 1035.84 58.4851H1036.04V46.7273H1042.52V78H1036.11V74.2436H1035.84C1035.53 74.8951 1035.1 75.5415 1034.54 76.1829C1033.99 76.814 1033.27 77.3383 1032.39 77.7557C1031.51 78.1731 1030.44 78.3817 1029.18 78.3817ZM1031.24 73.2053C1032.29 73.2053 1033.17 72.9202 1033.9 72.3501C1034.63 71.7699 1035.19 70.9606 1035.58 69.9222C1035.97 68.8839 1036.17 67.6674 1036.17 66.2727C1036.17 64.8781 1035.98 63.6667 1035.59 62.6385C1035.21 61.6103 1034.65 60.8163 1033.91 60.2564C1033.18 59.6965 1032.29 59.4165 1031.24 59.4165C1030.17 59.4165 1029.27 59.7067 1028.54 60.2869C1027.8 60.8672 1027.25 61.6714 1026.87 62.6996C1026.5 63.7277 1026.31 64.9188 1026.31 66.2727C1026.31 67.6368 1026.5 68.8432 1026.87 69.8917C1027.26 70.93 1027.81 71.7444 1028.54 72.3349C1029.27 72.9151 1030.17 73.2053 1031.24 73.2053ZM1057.95 78V46.7273H1070.47C1072.77 46.7273 1074.69 47.0683 1076.23 47.7504C1077.76 48.4324 1078.92 49.3791 1079.69 50.5906C1080.47 51.7918 1080.85 53.1763 1080.85 54.744C1080.85 55.9656 1080.61 57.0395 1080.12 57.9659C1079.63 58.8821 1078.96 59.6354 1078.1 60.2259C1077.26 60.8061 1076.29 61.2184 1075.2 61.4627V61.7681C1076.39 61.819 1077.51 62.1549 1078.55 62.7759C1079.6 63.3969 1080.45 64.2673 1081.1 65.3871C1081.75 66.4967 1082.07 67.8201 1082.07 69.3572C1082.07 71.0166 1081.66 72.4978 1080.84 73.8008C1080.02 75.0936 1078.82 76.1167 1077.22 76.87C1075.62 77.6233 1073.65 78 1071.31 78H1057.95ZM1064.56 72.5945H1069.95C1071.79 72.5945 1073.14 72.2433 1073.98 71.5408C1074.83 70.8282 1075.25 69.8815 1075.25 68.7006C1075.25 67.8353 1075.04 67.0719 1074.62 66.4102C1074.2 65.7485 1073.61 65.2293 1072.84 64.8526C1072.07 64.476 1071.16 64.2876 1070.1 64.2876H1064.56V72.5945ZM1064.56 59.8136H1069.46C1070.37 59.8136 1071.17 59.6558 1071.87 59.3402C1072.59 59.0144 1073.15 58.5563 1073.55 57.9659C1073.97 57.3755 1074.18 56.668 1074.18 55.8434C1074.18 54.7134 1073.78 53.8023 1072.97 53.1101C1072.18 52.4178 1071.05 52.0717 1069.58 52.0717H1064.56V59.8136Z" fill="white"/>
<path d="M1230.7 57.6758H1224.01C1223.89 56.8105 1223.64 56.0419 1223.26 55.37C1222.89 54.688 1222.4 54.1077 1221.81 53.6293C1221.22 53.1508 1220.54 52.7843 1219.77 52.5298C1219 52.2753 1218.17 52.1481 1217.28 52.1481C1215.66 52.1481 1214.25 52.5502 1213.05 53.3544C1211.85 54.1484 1210.92 55.3089 1210.25 56.8359C1209.59 58.3527 1209.26 60.1953 1209.26 62.3636C1209.26 64.593 1209.59 66.4661 1210.25 67.983C1210.93 69.4998 1211.86 70.645 1213.06 71.4187C1214.26 72.1924 1215.65 72.5792 1217.23 72.5792C1218.12 72.5792 1218.94 72.4621 1219.69 72.228C1220.45 71.9938 1221.13 71.6528 1221.72 71.2049C1222.31 70.7468 1222.8 70.192 1223.19 69.5405C1223.58 68.889 1223.86 68.1458 1224.01 67.3111L1230.7 67.3416C1230.53 68.777 1230.09 70.1615 1229.4 71.495C1228.72 72.8184 1227.8 74.0044 1226.64 75.0529C1225.49 76.0913 1224.11 76.9158 1222.52 77.5266C1220.93 78.1272 1219.13 78.4276 1217.12 78.4276C1214.34 78.4276 1211.84 77.7964 1209.64 76.5341C1207.45 75.2718 1205.72 73.4445 1204.45 71.0522C1203.19 68.6599 1202.56 65.7637 1202.56 62.3636C1202.56 58.9534 1203.2 56.0521 1204.48 53.6598C1205.76 51.2675 1207.5 49.4453 1209.7 48.1932C1211.9 46.9309 1214.38 46.2997 1217.12 46.2997C1218.94 46.2997 1220.62 46.5542 1222.16 47.0632C1223.72 47.5722 1225.1 48.3153 1226.3 49.2926C1227.5 50.2597 1228.48 51.4457 1229.23 52.8505C1230 54.2553 1230.49 55.8638 1230.7 57.6758ZM1241.82 64.4403V78H1235.32V46.7273H1241.64V58.6836H1241.92C1242.44 57.2991 1243.3 56.215 1244.48 55.4311C1245.66 54.6371 1247.14 54.2401 1248.92 54.2401C1250.55 54.2401 1251.97 54.5964 1253.18 55.3089C1254.41 56.0114 1255.35 57.0243 1256.02 58.3477C1256.71 59.6609 1257.04 61.2337 1257.03 63.0661V78H1250.53V64.2266C1250.54 62.781 1250.17 61.6561 1249.43 60.8519C1248.7 60.0477 1247.67 59.6456 1246.34 59.6456C1245.46 59.6456 1244.67 59.8339 1243.99 60.2106C1243.32 60.5872 1242.79 61.137 1242.4 61.8597C1242.03 62.5723 1241.83 63.4325 1241.82 64.4403ZM1262.15 78V54.5455H1268.66V78H1262.15ZM1265.42 51.522C1264.45 51.522 1263.62 51.2013 1262.93 50.56C1262.25 49.9085 1261.91 49.1297 1261.91 48.2237C1261.91 47.3279 1262.25 46.5593 1262.93 45.918C1263.62 45.2665 1264.45 44.9407 1265.42 44.9407C1266.39 44.9407 1267.21 45.2665 1267.89 45.918C1268.59 46.5593 1268.93 47.3279 1268.93 48.2237C1268.93 49.1297 1268.59 49.9085 1267.89 50.56C1267.21 51.2013 1266.39 51.522 1265.42 51.522ZM1280.37 46.7273V78H1273.87V46.7273H1280.37ZM1294.23 78.3817C1292.44 78.3817 1290.83 77.9237 1289.39 77.0075C1287.95 76.0811 1286.81 74.7221 1285.97 72.9304C1285.13 71.1286 1284.71 68.9195 1284.71 66.3033C1284.71 63.6158 1285.15 61.3813 1286.01 59.5998C1286.88 57.8081 1288.03 56.4695 1289.46 55.5838C1290.91 54.688 1292.49 54.2401 1294.21 54.2401C1295.52 54.2401 1296.62 54.464 1297.49 54.9119C1298.38 55.3497 1299.09 55.8994 1299.63 56.5611C1300.18 57.2126 1300.6 57.8539 1300.88 58.4851H1301.08V46.7273H1307.57V78H1301.16V74.2436H1300.88C1300.58 74.8951 1300.15 75.5415 1299.59 76.1829C1299.04 76.814 1298.32 77.3383 1297.43 77.7557C1296.56 78.1731 1295.49 78.3817 1294.23 78.3817ZM1296.29 73.2053C1297.34 73.2053 1298.22 72.9202 1298.94 72.3501C1299.68 71.7699 1300.24 70.9606 1300.62 69.9222C1301.02 68.8839 1301.22 67.6674 1301.22 66.2727C1301.22 64.8781 1301.03 63.6667 1300.64 62.6385C1300.25 61.6103 1299.69 60.8163 1298.96 60.2564C1298.23 59.6965 1297.34 59.4165 1296.29 59.4165C1295.22 59.4165 1294.32 59.7067 1293.59 60.2869C1292.85 60.8672 1292.3 61.6714 1291.92 62.6996C1291.54 63.7277 1291.36 64.9188 1291.36 66.2727C1291.36 67.6368 1291.54 68.8432 1291.92 69.8917C1292.31 70.93 1292.86 71.7444 1293.59 72.3349C1294.32 72.9151 1295.22 73.2053 1296.29 73.2053ZM1350.59 57.6758H1343.9C1343.78 56.8105 1343.53 56.0419 1343.15 55.37C1342.77 54.688 1342.29 54.1077 1341.7 53.6293C1341.11 53.1508 1340.43 52.7843 1339.65 52.5298C1338.89 52.2753 1338.06 52.1481 1337.17 52.1481C1335.55 52.1481 1334.14 52.5502 1332.94 53.3544C1331.73 54.1484 1330.8 55.3089 1330.14 56.8359C1329.48 58.3527 1329.15 60.1953 1329.15 62.3636C1329.15 64.593 1329.48 66.4661 1330.14 67.983C1330.81 69.4998 1331.75 70.645 1332.95 71.4187C1334.15 72.1924 1335.54 72.5792 1337.12 72.5792C1338.01 72.5792 1338.82 72.4621 1339.58 72.228C1340.34 71.9938 1341.02 71.6528 1341.61 71.2049C1342.2 70.7468 1342.69 70.192 1343.07 69.5405C1343.47 68.889 1343.75 68.1458 1343.9 67.3111L1350.59 67.3416C1350.41 68.777 1349.98 70.1615 1349.29 71.495C1348.61 72.8184 1347.69 74.0044 1346.53 75.0529C1345.38 76.0913 1344 76.9158 1342.4 77.5266C1340.81 78.1272 1339.02 78.4276 1337.01 78.4276C1334.22 78.4276 1331.73 77.7964 1329.53 76.5341C1327.34 75.2718 1325.61 73.4445 1324.34 71.0522C1323.08 68.6599 1322.45 65.7637 1322.45 62.3636C1322.45 58.9534 1323.09 56.0521 1324.37 53.6598C1325.65 51.2675 1327.39 49.4453 1329.59 48.1932C1331.79 46.9309 1334.26 46.2997 1337.01 46.2997C1338.82 46.2997 1340.5 46.5542 1342.05 47.0632C1343.61 47.5722 1344.99 48.3153 1346.19 49.2926C1347.39 50.2597 1348.37 51.4457 1349.12 52.8505C1349.89 54.2553 1350.37 55.8638 1350.59 57.6758Z" fill="white"/>
<path d="M833.007 177.619L820.259 171.742L814.381 158.993C814.022 158.204 813.443 157.534 812.713 157.065C811.984 156.596 811.135 156.346 810.268 156.346C809.4 156.346 808.551 156.596 807.822 157.065C807.092 157.534 806.513 158.204 806.154 158.993L800.367 171.742L787.618 177.619C786.829 177.978 786.16 178.557 785.69 179.287C785.221 180.016 784.972 180.865 784.972 181.733C784.972 182.6 785.221 183.449 785.69 184.179C786.16 184.908 786.829 185.487 787.618 185.847L800.367 191.633L806.244 204.382C806.604 205.171 807.183 205.841 807.912 206.31C808.642 206.779 809.491 207.029 810.358 207.029C811.225 207.029 812.074 206.779 812.804 206.31C813.533 205.841 814.112 205.171 814.472 204.382L820.259 191.633L833.007 185.756C836.534 184.219 836.534 179.156 833.007 177.619Z" fill="white"/>
<path d="M715.375 269.844C721.617 269.844 726.677 264.784 726.677 258.542C726.677 252.3 721.617 247.24 715.375 247.24C709.133 247.24 704.073 252.3 704.073 258.542C704.073 264.784 709.133 269.844 715.375 269.844Z" fill="white"/>
<path d="M769.625 269.844C775.867 269.844 780.927 264.784 780.927 258.542C780.927 252.3 775.867 247.24 769.625 247.24C763.383 247.24 758.323 252.3 758.323 258.542C758.323 264.784 763.383 269.844 769.625 269.844Z" fill="white"/>
<path d="M810.313 220.567C803.26 220.567 796.841 216.408 793.857 209.988L790.15 201.85L782.012 198.143C778.866 196.691 776.199 194.372 774.325 191.457C772.452 188.542 771.448 185.153 771.434 181.688C771.434 175.72 774.508 170.295 779.3 166.95C768.088 161.977 755.611 159.083 742.5 159.083C692.59 159.083 652.083 199.59 652.083 249.5C652.083 299.41 692.59 339.917 742.5 339.917C792.41 339.917 832.917 299.41 832.917 249.5C832.917 236.39 830.023 223.912 825.051 212.7C821.705 217.493 816.28 220.567 810.313 220.567ZM742.5 321.833C702.626 321.833 670.167 289.374 670.167 249.5C670.167 249.048 670.257 248.596 670.167 248.234C693.675 239.373 712.572 221.2 722.066 198.053C730.546 208.479 741.244 216.884 753.381 222.655C765.519 228.426 778.79 231.42 792.229 231.417C799.011 231.417 805.521 230.603 811.85 229.247C813.748 235.666 814.833 242.448 814.833 249.5C814.833 289.374 782.374 321.833 742.5 321.833Z" fill="white"/>
<path d="M1100.01 177.619L1087.26 171.742L1081.38 158.993C1081.02 158.204 1080.44 157.534 1079.71 157.065C1078.98 156.596 1078.13 156.346 1077.27 156.346C1076.4 156.346 1075.55 156.596 1074.82 157.065C1074.09 157.534 1073.51 158.204 1073.15 158.993L1067.37 171.742L1054.62 177.619C1053.83 177.978 1053.16 178.557 1052.69 179.287C1052.22 180.016 1051.97 180.865 1051.97 181.733C1051.97 182.6 1052.22 183.449 1052.69 184.179C1053.16 184.908 1053.83 185.487 1054.62 185.847L1067.37 191.633L1073.24 204.382C1073.6 205.171 1074.18 205.841 1074.91 206.31C1075.64 206.779 1076.49 207.029 1077.36 207.029C1078.23 207.029 1079.07 206.779 1079.8 206.31C1080.53 205.841 1081.11 205.171 1081.47 204.382L1087.26 191.633L1100.01 185.756C1103.53 184.219 1103.53 179.156 1100.01 177.619Z" fill="white"/>
<path d="M982.375 269.844C988.617 269.844 993.677 264.784 993.677 258.542C993.677 252.3 988.617 247.24 982.375 247.24C976.133 247.24 971.073 252.3 971.073 258.542C971.073 264.784 976.133 269.844 982.375 269.844Z" fill="white"/>
<path d="M1036.62 269.844C1042.87 269.844 1047.93 264.784 1047.93 258.542C1047.93 252.3 1042.87 247.24 1036.62 247.24C1030.38 247.24 1025.32 252.3 1025.32 258.542C1025.32 264.784 1030.38 269.844 1036.62 269.844Z" fill="white"/>
<path d="M1077.31 220.567C1070.26 220.567 1063.84 216.408 1060.86 209.988L1057.15 201.85L1049.01 198.143C1045.87 196.691 1043.2 194.372 1041.33 191.457C1039.45 188.542 1038.45 185.153 1038.43 181.688C1038.43 175.72 1041.51 170.295 1046.3 166.95C1035.09 161.977 1022.61 159.083 1009.5 159.083C959.59 159.083 919.083 199.59 919.083 249.5C919.083 299.41 959.59 339.917 1009.5 339.917C1059.41 339.917 1099.92 299.41 1099.92 249.5C1099.92 236.39 1097.02 223.912 1092.05 212.7C1088.71 217.493 1083.28 220.567 1077.31 220.567ZM1009.5 321.833C969.626 321.833 937.167 289.374 937.167 249.5C937.167 249.048 937.257 248.596 937.167 248.234C960.675 239.373 979.572 221.2 989.066 198.053C997.546 208.479 1008.24 216.884 1020.38 222.655C1032.52 228.426 1045.79 231.42 1059.23 231.417C1066.01 231.417 1072.52 230.603 1078.85 229.247C1080.75 235.666 1081.83 242.448 1081.83 249.5C1081.83 289.374 1049.37 321.833 1009.5 321.833Z" fill="white"/>
<path d="M1367.01 177.619L1354.26 171.742L1348.38 158.993C1348.02 158.204 1347.44 157.534 1346.71 157.065C1345.98 156.596 1345.13 156.346 1344.27 156.346C1343.4 156.346 1342.55 156.596 1341.82 157.065C1341.09 157.534 1340.51 158.204 1340.15 158.993L1334.37 171.742L1321.62 177.619C1320.83 177.978 1320.16 178.557 1319.69 179.287C1319.22 180.016 1318.97 180.865 1318.97 181.733C1318.97 182.6 1319.22 183.449 1319.69 184.179C1320.16 184.908 1320.83 185.487 1321.62 185.847L1334.37 191.633L1340.24 204.382C1340.6 205.171 1341.18 205.841 1341.91 206.31C1342.64 206.779 1343.49 207.029 1344.36 207.029C1345.23 207.029 1346.07 206.779 1346.8 206.31C1347.53 205.841 1348.11 205.171 1348.47 204.382L1354.26 191.633L1367.01 185.756C1370.53 184.219 1370.53 179.156 1367.01 177.619Z" fill="white"/>
<path d="M1249.37 269.844C1255.62 269.844 1260.68 264.784 1260.68 258.542C1260.68 252.3 1255.62 247.24 1249.37 247.24C1243.13 247.24 1238.07 252.3 1238.07 258.542C1238.07 264.784 1243.13 269.844 1249.37 269.844Z" fill="white"/>
<path d="M1303.62 269.844C1309.87 269.844 1314.93 264.784 1314.93 258.542C1314.93 252.3 1309.87 247.24 1303.62 247.24C1297.38 247.24 1292.32 252.3 1292.32 258.542C1292.32 264.784 1297.38 269.844 1303.62 269.844Z" fill="white"/>
<path d="M1344.31 220.567C1337.26 220.567 1330.84 216.408 1327.86 209.988L1324.15 201.85L1316.01 198.143C1312.87 196.691 1310.2 194.372 1308.33 191.457C1306.45 188.542 1305.45 185.153 1305.43 181.688C1305.43 175.72 1308.51 170.295 1313.3 166.95C1302.09 161.977 1289.61 159.083 1276.5 159.083C1226.59 159.083 1186.08 199.59 1186.08 249.5C1186.08 299.41 1226.59 339.917 1276.5 339.917C1326.41 339.917 1366.92 299.41 1366.92 249.5C1366.92 236.39 1364.02 223.912 1359.05 212.7C1355.71 217.493 1350.28 220.567 1344.31 220.567ZM1276.5 321.833C1236.63 321.833 1204.17 289.374 1204.17 249.5C1204.17 249.048 1204.26 248.596 1204.17 248.234C1227.68 239.373 1246.57 221.2 1256.07 198.053C1264.55 208.479 1275.24 216.884 1287.38 222.655C1299.52 228.426 1312.79 231.42 1326.23 231.417C1333.01 231.417 1339.52 230.603 1345.85 229.247C1347.75 235.666 1348.83 242.448 1348.83 249.5C1348.83 289.374 1316.37 321.833 1276.5 321.833Z" fill="white"/>
</svg>
