<svg xmlns="http://www.w3.org/2000/svg" width="1120" height="2089" fill="none" viewBox="0 0 1120 2089"><path stroke="#4ed400" stroke-width="3" d="M690.5 473.5c14.334 0 26 11.839 26 26.5s-11.666 26.5-26 26.5-26-11.839-26-26.5 11.666-26.5 26-26.5Z"/><path stroke="#fff" stroke-width="3" d="M690.5 644.5c14.334 0 26 11.839 26 26.5s-11.666 26.5-26 26.5-26-11.839-26-26.5 11.666-26.5 26-26.5ZM178.5 1733.5c17.652 0 32 14.53 32 32.5s-14.348 32.5-32 32.5-32-14.53-32-32.5 14.348-32.5 32-32.5Z"/><path stroke="#0098d4" stroke-width="3" d="M1010.99 483.969a.5.5 0 0 1 .81-.308l37.3 30.365a.5.5 0 0 1-.14.855l-44.94 17.124a.506.506 0 0 1-.68-.546zM802.988 1804.97a.5.5 0 0 1 .809-.31l37.305 30.37c.298.24.222.71-.138.85l-44.949 17.13a.504.504 0 0 1-.672-.55z"/><path stroke="#4ed400" stroke-width="3" d="M777.188 498.084a2.5 2.5 0 0 0 1.875 2.263l18.484 4.733-17.735 7.036a2.5 2.5 0 0 0-1.574 2.483l1.211 19.043-12.173-14.694-.135-.151a2.5 2.5 0 0 0-2.522-.646l-.19.067-17.737 7.036 10.214-16.117a2.5 2.5 0 0 0-.186-2.934l-12.173-14.693 18.484 4.733a2.5 2.5 0 0 0 2.732-1.084l10.214-16.119z"/><path fill="#fff" d="M47.519 10.727h6.612v20.31q0 3.42-1.634 5.985-1.62 2.566-4.535 4-2.917 1.42-6.796 1.42-3.892 0-6.81-1.42-2.916-1.434-4.535-4t-1.619-5.986V10.727h6.612v19.744q0 1.787.779 3.176a5.7 5.7 0 0 0 2.23 2.184q1.435.794 3.343.794 1.925 0 3.345-.794a5.57 5.57 0 0 0 2.214-2.184q.794-1.39.794-3.176zm11.93 40.069v-32.25h6.413v3.94h.29q.427-.948 1.237-1.925.825-.992 2.138-1.65 1.328-.67 3.298-.67 2.565 0 4.733 1.343 2.169 1.328 3.467 4.016 1.298 2.672 1.298 6.703 0 3.925-1.268 6.627-1.252 2.688-3.42 4.078-2.154 1.374-4.825 1.374-1.895 0-3.222-.626-1.314-.627-2.153-1.573-.84-.962-1.283-1.94h-.199v12.552zm6.367-20.523q0 2.09.58 3.65.58 1.557 1.68 2.427 1.1.855 2.672.855 1.588 0 2.688-.87 1.099-.886 1.664-2.443.58-1.573.58-3.62 0-2.03-.565-3.572-.564-1.543-1.664-2.413t-2.703-.87q-1.588 0-2.687.84-1.085.84-1.665 2.381-.58 1.543-.58 3.635m29.486 12.109q-2.672 0-4.84-1.374-2.154-1.39-3.42-4.078-1.254-2.702-1.253-6.627 0-4.031 1.298-6.703 1.298-2.688 3.45-4.016a8.84 8.84 0 0 1 4.75-1.344q1.97 0 3.283.672 1.328.656 2.138 1.65.824.976 1.252 1.923h.198V10.727h6.49V42h-6.413v-3.756h-.275q-.458.976-1.298 1.939-.825.946-2.153 1.573-1.314.626-3.207.626m2.061-5.177q1.574 0 2.658-.855 1.098-.87 1.679-2.428.596-1.557.596-3.65 0-2.091-.581-3.633-.58-1.543-1.679-2.383t-2.672-.84q-1.604 0-2.703.87-1.1.871-1.665 2.414-.565 1.542-.565 3.573 0 2.046.565 3.619.58 1.557 1.665 2.443 1.1.87 2.703.87m23.321 5.238q-2.244 0-4-.779-1.756-.794-2.779-2.336-1.008-1.558-1.008-3.879 0-1.954.718-3.283a5.8 5.8 0 0 1 1.954-2.138 9.5 9.5 0 0 1 2.81-1.221 21.4 21.4 0 0 1 3.329-.58 84 84 0 0 0 3.298-.398q1.252-.198 1.817-.58.565-.38.565-1.13v-.091q0-1.451-.916-2.245-.901-.795-2.566-.794-1.755 0-2.794.779-1.038.763-1.374 1.924l-6.017-.489q.459-2.138 1.802-3.695 1.344-1.573 3.467-2.413 2.138-.855 4.947-.855 1.954 0 3.741.458 1.802.459 3.191 1.42a6.9 6.9 0 0 1 2.215 2.474q.809 1.497.809 3.588V42h-6.169v-3.252h-.183a6.6 6.6 0 0 1-1.512 1.939q-.947.824-2.275 1.298-1.329.458-3.07.458m1.863-4.49q1.435 0 2.535-.565 1.1-.579 1.726-1.557t.626-2.214v-2.49q-.306.2-.84.367-.519.153-1.176.29-.657.122-1.313.23-.657.091-1.191.167-1.145.168-2 .535-.856.366-1.329.992-.473.612-.473 1.527 0 1.329.962 2.031.977.688 2.473.688m28.868-19.408v4.887H137.29v-4.886zm-10.918-5.619h6.505v21.867q0 .9.275 1.404.275.489.763.688.504.198 1.161.198.458 0 .916-.076l.703-.138 1.023 4.84q-.489.154-1.375.352-.885.215-2.153.26-2.351.09-4.123-.626-1.755-.718-2.733-2.23-.977-1.512-.962-3.817zm25.592 29.532q-3.618 0-6.23-1.466-2.595-1.48-4-4.184-1.405-2.718-1.405-6.428 0-3.619 1.405-6.353t3.955-4.26q2.565-1.527 6.016-1.527 2.321 0 4.321.748a9.6 9.6 0 0 1 3.512 2.214q1.512 1.482 2.352 3.726.84 2.229.84 5.223v1.786H157.05v-4.031h13.682q0-1.405-.611-2.49a4.37 4.37 0 0 0-1.695-1.694q-1.069-.626-2.489-.626-1.481 0-2.627.687a4.8 4.8 0 0 0-1.771 1.817q-.64 1.13-.657 2.52v3.832q0 1.74.642 3.009a4.7 4.7 0 0 0 1.847 1.954q1.191.687 2.825.687 1.085 0 1.985-.305a4.1 4.1 0 0 0 1.543-.916 4 4 0 0 0 .977-1.497l6.016.397a8.2 8.2 0 0 1-1.878 3.787q-1.405 1.605-3.634 2.504-2.214.886-5.116.886m23.654-.076q-2.673 0-4.841-1.374-2.153-1.39-3.42-4.078-1.253-2.702-1.253-6.627 0-4.031 1.298-6.703 1.299-2.688 3.451-4.016a8.85 8.85 0 0 1 4.749-1.344q1.97 0 3.283.672 1.33.656 2.138 1.65.825.976 1.252 1.923h.199V10.727h6.489V42h-6.413v-3.756h-.275q-.458.976-1.298 1.939-.824.946-2.153 1.573-1.313.626-3.206.626m2.061-5.177q1.573 0 2.657-.855 1.1-.87 1.68-2.428.595-1.557.595-3.65 0-2.091-.58-3.633-.58-1.543-1.68-2.383-1.099-.84-2.672-.84-1.603 0-2.703.87-1.1.871-1.664 2.414-.565 1.542-.565 3.573 0 2.046.565 3.619.58 1.557 1.664 2.443 1.1.87 2.703.87M218.511 42V10.727h12.521q3.452 0 5.757 1.023 2.306 1.024 3.466 2.84 1.161 1.803 1.161 4.154 0 1.833-.733 3.222a6.3 6.3 0 0 1-2.016 2.26q-1.268.87-2.901 1.237v.305a7 7 0 0 1 3.344 1.008q1.574.93 2.55 2.611.977 1.665.977 3.97 0 2.489-1.236 4.444-1.222 1.94-3.619 3.069t-5.91 1.13zm6.612-5.406h5.39q2.764 0 4.031-1.053 1.268-1.07 1.268-2.84 0-1.3-.626-2.29-.627-.994-1.787-1.558-1.144-.565-2.733-.565h-5.543zm0-12.78h4.902q1.359 0 2.412-.474 1.07-.489 1.68-1.374.626-.885.626-2.123 0-1.694-1.206-2.733-1.191-1.038-3.39-1.038h-5.024zm28.383 18.629q-2.245 0-4.001-.779-1.756-.794-2.779-2.336-1.008-1.558-1.008-3.879 0-1.954.718-3.283a5.8 5.8 0 0 1 1.954-2.138 9.5 9.5 0 0 1 2.81-1.221 21.4 21.4 0 0 1 3.329-.58 84 84 0 0 0 3.298-.398q1.253-.198 1.817-.58.565-.38.565-1.13v-.091q0-1.451-.916-2.245-.902-.795-2.565-.794-1.756 0-2.795.779-1.038.763-1.374 1.924l-6.016-.489q.458-2.138 1.802-3.695 1.343-1.573 3.466-2.413 2.138-.855 4.947-.855 1.954 0 3.741.458 1.802.459 3.192 1.42a6.9 6.9 0 0 1 2.214 2.474q.809 1.497.809 3.588V42h-6.169v-3.252h-.183a6.6 6.6 0 0 1-1.512 1.939q-.946.824-2.275 1.298-1.329.458-3.069.458m1.863-4.49q1.436 0 2.534-.565 1.1-.579 1.726-1.557t.626-2.214v-2.49a3.5 3.5 0 0 1-.84.367q-.519.153-1.176.29-.656.122-1.313.23-.657.091-1.191.167-1.145.168-2 .535-.855.366-1.329.992-.473.612-.473 1.527 0 1.329.962 2.031.977.688 2.474.688m26.959 13.331q-3.161 0-5.421-.87-2.246-.856-3.573-2.337-1.329-1.481-1.726-3.328l6.017-.81q.274.703.87 1.313.595.611 1.573.978.992.382 2.412.382 2.123 0 3.497-1.039 1.39-1.023 1.39-3.436v-4.29h-.275q-.428.977-1.283 1.847t-2.199 1.42q-1.343.55-3.206.55-2.642 0-4.81-1.221-2.154-1.237-3.436-3.772-1.267-2.55-1.267-6.444 0-3.985 1.297-6.658 1.299-2.672 3.451-4a8.9 8.9 0 0 1 4.749-1.329q1.97 0 3.299.672 1.328.656 2.137 1.65.825.976 1.268 1.923h.244v-3.94h6.459V42.23q0 2.993-1.466 5.009-1.466 2.015-4.061 3.023-2.582 1.023-5.94 1.023m.137-14.506q1.573 0 2.657-.78 1.1-.793 1.68-2.259.595-1.48.595-3.543 0-2.061-.58-3.573-.58-1.527-1.68-2.367-1.099-.84-2.672-.84-1.603 0-2.703.87-1.099.856-1.664 2.383t-.565 3.527q0 2.031.565 3.512.58 1.466 1.664 2.276 1.1.794 2.703.794m37.056 5.68q-3.558 0-6.153-1.512-2.581-1.527-3.986-4.245-1.404-2.733-1.405-6.337 0-3.633 1.405-6.352 1.405-2.733 3.986-4.245 2.595-1.527 6.153-1.527t6.139 1.527q2.595 1.512 4.001 4.245 1.404 2.719 1.404 6.352 0 3.604-1.404 6.337-1.406 2.718-4.001 4.245-2.581 1.512-6.139 1.512m.031-5.039q1.619 0 2.703-.916 1.084-.932 1.633-2.535.565-1.603.565-3.65t-.565-3.649q-.55-1.603-1.633-2.535-1.085-.93-2.703-.931-1.634 0-2.749.931-1.099.931-1.664 2.535-.55 1.603-.55 3.65t.55 3.649q.565 1.604 1.664 2.535 1.115.915 2.749.916m28.356-18.873v4.886h-14.476v-4.886zM336.746 42V16.85q0-2.55.992-4.23a6.38 6.38 0 0 1 2.749-2.519q1.74-.84 3.955-.84 1.496 0 2.733.23 1.252.229 1.863.412l-1.161 4.886a8 8 0 0 0-.946-.229 6 6 0 0 0-1.13-.107q-1.435 0-2.001.672-.565.657-.565 1.848V42zm24.019-25.821v-5.452h25.684v5.452h-9.574V42h-6.536V16.179zm36.988 26.28q-3.558 0-6.154-1.513-2.58-1.527-3.985-4.245-1.405-2.733-1.405-6.337 0-3.633 1.405-6.352 1.404-2.733 3.985-4.245 2.596-1.527 6.154-1.527t6.138 1.527q2.596 1.512 4.001 4.245 1.405 2.719 1.405 6.352 0 3.604-1.405 6.337-1.405 2.718-4.001 4.245-2.58 1.512-6.138 1.512m.03-5.04q1.619 0 2.703-.916 1.084-.932 1.634-2.535.565-1.603.565-3.65t-.565-3.649q-.55-1.603-1.634-2.535-1.085-.93-2.703-.931-1.634 0-2.748.931-1.1.931-1.665 2.535-.549 1.603-.549 3.65t.549 3.649q.565 1.604 1.665 2.535 1.114.915 2.748.916m19.004 13.377q-1.238 0-2.321-.2-1.069-.182-1.772-.472l1.466-4.856q1.146.35 2.062.382.931.03 1.603-.428.687-.459 1.115-1.558l.381-.992-8.413-24.126h6.841l4.855 17.224h.245l4.901-17.225h6.887l-9.116 25.99q-.656 1.894-1.787 3.298a7.3 7.3 0 0 1-2.824 2.184q-1.711.778-4.123.778m40.694-25.562-5.955.366a3.1 3.1 0 0 0-.657-1.374q-.504-.626-1.328-.993-.81-.381-1.94-.381-1.512 0-2.55.64-1.038.627-1.038 1.68 0 .84.672 1.42.671.582 2.306.932l4.245.855q3.42.703 5.1 2.26 1.679 1.558 1.679 4.092 0 2.306-1.359 4.047-1.343 1.74-3.695 2.718-2.337.962-5.39.962-4.658 0-7.421-1.94-2.75-1.954-3.222-5.313l6.398-.336q.29 1.42 1.405 2.168 1.115.733 2.855.733 1.71 0 2.749-.656 1.053-.672 1.068-1.726-.015-.886-.748-1.45-.733-.581-2.26-.886l-4.061-.81q-3.436-.687-5.116-2.382-1.664-1.695-1.664-4.32 0-2.261 1.221-3.895 1.237-1.634 3.467-2.52 2.244-.885 5.252-.885 4.444 0 6.994 1.878 2.565 1.878 2.993 5.116M47.519 1325.73h6.612v20.31c0 2.28-.545 4.27-1.634 5.98-1.08 1.71-2.591 3.05-4.535 4-1.945.95-4.21 1.42-6.796 1.42-2.595 0-4.865-.47-6.81-1.42s-3.456-2.29-4.535-4-1.619-3.7-1.619-5.98v-20.31h6.612v19.74q0 1.785.779 3.18c.53.92 1.272 1.65 2.23 2.18.956.53 2.071.79 3.343.79 1.283 0 2.398-.26 3.345-.79a5.6 5.6 0 0 0 2.214-2.18q.794-1.395.794-3.18zm11.93 40.07v-32.25h6.413v3.94h.29c.285-.64.697-1.28 1.237-1.93q.825-.99 2.138-1.65c.885-.45 1.985-.67 3.298-.67 1.71 0 3.288.45 4.733 1.34q2.169 1.335 3.467 4.02c.865 1.78 1.298 4.02 1.298 6.7q0 3.93-1.268 6.63-1.252 2.685-3.42 4.08c-1.436.91-3.044 1.37-4.825 1.37-1.263 0-2.337-.21-3.222-.62-.876-.42-1.593-.95-2.153-1.58-.56-.64-.988-1.28-1.283-1.94h-.199v12.56zm6.367-20.53c0 1.4.193 2.61.58 3.65q.58 1.56 1.68 2.43c.733.57 1.624.86 2.672.86 1.059 0 1.955-.29 2.688-.88s1.287-1.4 1.664-2.44c.387-1.05.58-2.25.58-3.62q0-2.025-.565-3.57c-.376-1.03-.931-1.83-1.664-2.41q-1.1-.87-2.703-.87-1.588 0-2.687.84c-.723.56-1.278 1.35-1.665 2.38q-.58 1.545-.58 3.63m29.486 12.11c-1.781 0-3.395-.46-4.84-1.37q-2.154-1.395-3.42-4.08-1.254-2.7-1.253-6.63c0-2.68.433-4.92 1.298-6.7q1.298-2.685 3.45-4.02a8.9 8.9 0 0 1 4.75-1.34c1.313 0 2.407.22 3.283.67q1.328.66 2.138 1.65c.549.65.967 1.29 1.252 1.93h.198v-11.76h6.49V1357h-6.413v-3.76h-.275c-.306.66-.738 1.3-1.298 1.94-.55.63-1.268 1.16-2.153 1.58-.876.41-1.945.62-3.207.62m2.061-5.17c1.05 0 1.935-.29 2.658-.86q1.098-.87 1.679-2.43c.397-1.04.596-2.25.596-3.65q0-2.085-.581-3.63c-.386-1.03-.946-1.82-1.679-2.38q-1.1-.84-2.672-.84-1.604 0-2.703.87c-.733.58-1.288 1.38-1.665 2.41q-.565 1.545-.565 3.57c0 1.37.189 2.57.565 3.62.387 1.04.942 1.85 1.665 2.44.733.59 1.634.88 2.703.88m23.321 5.23q-2.244 0-4-.78c-1.171-.53-2.097-1.3-2.779-2.33-.672-1.04-1.008-2.33-1.008-3.88 0-1.3.239-2.4.718-3.28a5.8 5.8 0 0 1 1.954-2.14 9.3 9.3 0 0 1 2.81-1.22c1.058-.28 2.168-.47 3.329-.58 1.364-.15 2.463-.28 3.298-.4.835-.13 1.44-.33 1.817-.58.377-.26.565-.63.565-1.13v-.09q0-1.455-.916-2.25c-.601-.53-1.456-.79-2.566-.79q-1.755 0-2.794.78-1.038.765-1.374 1.92l-6.017-.49q.459-2.13 1.802-3.69c.896-1.05 2.052-1.85 3.467-2.41 1.425-.57 3.074-.86 4.947-.86 1.303 0 2.55.15 3.741.46a9.7 9.7 0 0 1 3.191 1.42 6.86 6.86 0 0 1 2.215 2.47c.539 1 .809 2.2.809 3.59V1357h-6.169v-3.25h-.183a6.7 6.7 0 0 1-1.512 1.94q-.947.825-2.275 1.29c-.886.31-1.909.46-3.07.46m1.863-4.49c.957 0 1.802-.18 2.535-.56q1.1-.585 1.726-1.56c.417-.65.626-1.39.626-2.21v-2.49a3.5 3.5 0 0 1-.84.36c-.346.11-.738.2-1.176.29s-.875.16-1.313.23c-.438.06-.835.12-1.191.17q-1.145.165-2 .54-.856.36-1.329.99c-.316.41-.473.91-.473 1.53 0 .88.32 1.56.962 2.03.651.45 1.476.68 2.473.68m28.868-19.4v4.88H137.29v-4.88zm-10.918-5.62h6.505v21.86q0 .9.275 1.41c.183.32.438.55.763.68.336.14.723.2 1.161.2.305 0 .611-.02.916-.07.306-.06.54-.11.703-.14l1.023 4.84c-.326.1-.784.22-1.375.35-.59.14-1.308.23-2.153.26q-2.351.09-4.123-.63c-1.17-.47-2.081-1.22-2.733-2.22-.651-1.01-.972-2.29-.962-3.82zm25.592 29.53q-3.618 0-6.23-1.47c-1.73-.99-3.064-2.38-4-4.18-.937-1.81-1.405-3.96-1.405-6.43 0-2.41.468-4.53 1.405-6.35q1.405-2.73 3.955-4.26 2.565-1.53 6.016-1.53 2.321 0 4.321.75a9.55 9.55 0 0 1 3.512 2.21c1.008.99 1.792 2.23 2.352 3.73.56 1.48.84 3.23.84 5.22v1.79H157.05v-4.03h13.682q0-1.41-.611-2.49a4.36 4.36 0 0 0-1.695-1.7c-.713-.42-1.542-.62-2.489-.62-.988 0-1.863.22-2.627.68a4.87 4.87 0 0 0-1.771 1.82q-.64 1.125-.657 2.52v3.83c0 1.16.214 2.17.642 3.01a4.7 4.7 0 0 0 1.847 1.96c.794.45 1.736.68 2.825.68q1.085 0 1.985-.3a4.2 4.2 0 0 0 1.543-.92q.64-.615.977-1.5l6.016.4a8.2 8.2 0 0 1-1.878 3.79c-.936 1.07-2.148 1.9-3.634 2.5-1.476.59-3.181.89-5.116.89m23.654-.08c-1.782 0-3.395-.46-4.841-1.37q-2.153-1.395-3.42-4.08-1.253-2.7-1.253-6.63c0-2.68.433-4.92 1.298-6.7q1.299-2.685 3.451-4.02a8.9 8.9 0 0 1 4.749-1.34c1.313 0 2.408.22 3.283.67q1.33.66 2.138 1.65c.55.65.967 1.29 1.252 1.93h.199v-11.76h6.489V1357h-6.413v-3.76h-.275c-.305.66-.738 1.3-1.298 1.94-.549.63-1.267 1.16-2.153 1.58-.875.41-1.944.62-3.206.62m2.061-5.17c1.049 0 1.934-.29 2.657-.86q1.1-.87 1.68-2.43c.397-1.04.595-2.25.595-3.65q0-2.085-.58-3.63c-.387-1.03-.947-1.82-1.68-2.38q-1.099-.84-2.672-.84-1.603 0-2.703.87c-.733.58-1.288 1.38-1.664 2.41q-.565 1.545-.565 3.57c0 1.37.188 2.57.565 3.62.387 1.04.941 1.85 1.664 2.44.733.59 1.634.88 2.703.88m26.707 4.79v-31.27h12.521q3.452 0 5.757 1.02c1.537.68 2.693 1.63 3.466 2.84.774 1.2 1.161 2.59 1.161 4.15 0 1.23-.244 2.3-.733 3.23a6.4 6.4 0 0 1-2.016 2.26q-1.268.87-2.901 1.23v.31c1.191.05 2.306.38 3.344 1.01q1.574.93 2.55 2.61c.652 1.11.977 2.43.977 3.97q0 2.49-1.236 4.44c-.815 1.29-2.021 2.32-3.619 3.07s-3.568 1.13-5.91 1.13zm6.612-5.41h5.39q2.764 0 4.031-1.05c.845-.71 1.268-1.66 1.268-2.84 0-.86-.209-1.63-.626-2.29q-.627-.99-1.787-1.56c-.763-.37-1.674-.56-2.733-.56h-5.543zm0-12.78h4.902c.906 0 1.71-.15 2.412-.47.713-.33 1.273-.78 1.68-1.37q.626-.885.626-2.13 0-1.695-1.206-2.73c-.794-.69-1.924-1.04-3.39-1.04h-5.024zm28.383 18.63q-2.245 0-4.001-.78c-1.171-.53-2.097-1.3-2.779-2.33-.672-1.04-1.008-2.33-1.008-3.88 0-1.3.239-2.4.718-3.28.478-.89 1.13-1.6 1.954-2.14a9.3 9.3 0 0 1 2.81-1.22c1.059-.28 2.168-.47 3.329-.58 1.364-.15 2.463-.28 3.298-.4.835-.13 1.441-.33 1.817-.58.377-.26.565-.63.565-1.13v-.09q0-1.455-.916-2.25c-.601-.53-1.456-.79-2.565-.79q-1.756 0-2.795.78-1.038.765-1.374 1.92l-6.016-.49q.458-2.13 1.802-3.69c.895-1.05 2.051-1.85 3.466-2.41 1.425-.57 3.074-.86 4.947-.86 1.303 0 2.55.15 3.741.46 1.202.3 2.265.78 3.192 1.42a6.9 6.9 0 0 1 2.214 2.47c.539 1 .809 2.2.809 3.59V1357h-6.169v-3.25h-.183a6.7 6.7 0 0 1-1.512 1.94q-.946.825-2.275 1.29c-.886.31-1.909.46-3.069.46m1.863-4.49c.957 0 1.802-.18 2.534-.56q1.1-.585 1.726-1.56c.417-.65.626-1.39.626-2.21v-2.49q-.305.195-.84.36c-.346.11-.738.2-1.176.29s-.875.16-1.313.23c-.438.06-.835.12-1.191.17q-1.145.165-2 .54-.855.36-1.329.99c-.315.41-.473.91-.473 1.53 0 .88.321 1.56.962 2.03.651.45 1.476.68 2.474.68m26.959 13.33q-3.161 0-5.421-.87c-1.497-.57-2.688-1.35-3.573-2.33q-1.329-1.485-1.726-3.33l6.017-.81c.183.47.473.91.87 1.31.397.41.921.74 1.573.98.661.25 1.466.38 2.412.38 1.415 0 2.581-.34 3.497-1.04.927-.68 1.39-1.82 1.39-3.43v-4.29h-.275c-.285.65-.713 1.26-1.283 1.84s-1.303 1.06-2.199 1.42c-.895.37-1.964.55-3.206.55-1.761 0-3.365-.4-4.81-1.22-1.436-.82-2.581-2.08-3.436-3.77-.845-1.7-1.267-3.85-1.267-6.44q0-3.99 1.297-6.66c.866-1.78 2.016-3.12 3.451-4 1.446-.89 3.029-1.33 4.749-1.33 1.314 0 2.413.22 3.299.67q1.328.66 2.137 1.65c.55.65.973 1.29 1.268 1.93h.244v-3.94h6.459v23.68q0 2.985-1.466 5.01c-.977 1.34-2.331 2.35-4.061 3.02q-2.582 1.02-5.94 1.02m.137-14.5q1.573 0 2.657-.78c.733-.53 1.293-1.28 1.68-2.26q.595-1.485.595-3.54c0-1.38-.193-2.57-.58-3.58s-.947-1.8-1.68-2.36q-1.099-.84-2.672-.84-1.603 0-2.703.87c-.733.57-1.287 1.36-1.664 2.38s-.565 2.19-.565 3.53q0 2.025.565 3.51c.387.98.942 1.73 1.664 2.27.733.53 1.634.8 2.703.8m37.056 5.68c-2.372 0-4.423-.51-6.153-1.51-1.721-1.02-3.049-2.44-3.986-4.25-.936-1.82-1.405-3.93-1.405-6.34 0-2.42.469-4.54 1.405-6.35.937-1.82 2.265-3.24 3.986-4.24q2.595-1.53 6.153-1.53t6.139 1.53c1.73 1 3.064 2.42 4.001 4.24.936 1.81 1.404 3.93 1.404 6.35 0 2.41-.468 4.52-1.404 6.34-.937 1.81-2.271 3.23-4.001 4.25-1.721 1-3.767 1.51-6.139 1.51m.031-5.04c1.079 0 1.98-.31 2.703-.92.722-.62 1.267-1.46 1.633-2.53.377-1.07.565-2.29.565-3.65 0-1.37-.188-2.58-.565-3.65-.366-1.07-.911-1.91-1.633-2.54q-1.085-.93-2.703-.93-1.634 0-2.749.93c-.733.63-1.287 1.47-1.664 2.54-.367 1.07-.55 2.28-.55 3.65 0 1.36.183 2.58.55 3.65.377 1.07.931 1.91 1.664 2.53.743.61 1.66.92 2.749.92m28.356-18.87v4.88h-14.476v-4.88zM336.746 1357v-25.15q0-2.55.992-4.23a6.38 6.38 0 0 1 2.749-2.52q1.74-.84 3.955-.84c.997 0 1.908.08 2.733.23.835.15 1.456.29 1.863.41l-1.161 4.89a8 8 0 0 0-.946-.23 6 6 0 0 0-1.13-.11c-.957 0-1.624.23-2.001.67s-.565 1.06-.565 1.85V1357zm24.019-25.82v-5.45h25.684v5.45h-9.574V1357h-6.536v-25.82zm36.988 26.28c-2.372 0-4.423-.51-6.154-1.51-1.72-1.02-3.049-2.44-3.985-4.25-.937-1.82-1.405-3.93-1.405-6.34 0-2.42.468-4.54 1.405-6.35.936-1.82 2.265-3.24 3.985-4.24q2.596-1.53 6.154-1.53t6.138 1.53c1.731 1 3.064 2.42 4.001 4.24.937 1.81 1.405 3.93 1.405 6.35 0 2.41-.468 4.52-1.405 6.34-.937 1.81-2.27 3.23-4.001 4.25-1.72 1-3.766 1.51-6.138 1.51m.03-5.04c1.079 0 1.98-.31 2.703-.92.723-.62 1.267-1.46 1.634-2.53.377-1.07.565-2.29.565-3.65 0-1.37-.188-2.58-.565-3.65-.367-1.07-.911-1.91-1.634-2.54q-1.085-.93-2.703-.93-1.634 0-2.748.93c-.733.63-1.288 1.47-1.665 2.54-.366 1.07-.549 2.28-.549 3.65 0 1.36.183 2.58.549 3.65.377 1.07.932 1.91 1.665 2.53.743.61 1.659.92 2.748.92m19.004 13.38c-.825 0-1.599-.07-2.321-.2-.713-.13-1.303-.28-1.772-.48l1.466-4.85c.764.23 1.451.36 2.062.38.621.02 1.155-.12 1.603-.43q.687-.45 1.115-1.56l.381-.99-8.413-24.12h6.841l4.855 17.22h.245l4.901-17.22h6.887l-9.116 25.98q-.656 1.905-1.787 3.3a7.3 7.3 0 0 1-2.824 2.19q-1.711.78-4.123.78m40.694-25.57-5.955.37a3 3 0 0 0-.657-1.37c-.336-.42-.779-.75-1.328-1-.54-.25-1.186-.38-1.94-.38-1.008 0-1.858.22-2.55.64q-1.038.63-1.038 1.68c0 .56.224 1.04.672 1.42q.671.585 2.306.93l4.245.86c2.28.47 3.98 1.22 5.1 2.26s1.679 2.4 1.679 4.09q0 2.31-1.359 4.05c-.895 1.16-2.127 2.06-3.695 2.72q-2.337.96-5.39.96c-3.105 0-5.579-.65-7.421-1.94-1.833-1.3-2.907-3.08-3.222-5.32l6.398-.33c.193.95.661 1.67 1.405 2.17.743.49 1.695.73 2.855.73q1.71 0 2.749-.66c.702-.44 1.058-1.02 1.068-1.72-.01-.59-.259-1.08-.748-1.45-.488-.39-1.242-.68-2.26-.89l-4.061-.81c-2.291-.46-3.996-1.25-5.116-2.38q-1.664-1.695-1.664-4.32c0-1.51.407-2.81 1.221-3.89q1.237-1.635 3.467-2.52c1.496-.59 3.247-.89 5.252-.89 2.963 0 5.294.63 6.994 1.88 1.71 1.25 2.708 2.96 2.993 5.11M232.563 602.091V629h-5.689v-21.509h-.158l-6.162 3.863v-5.045l6.662-4.218zm31.804 12.482-5.124.315a2.66 2.66 0 0 0-.565-1.182 3 3 0 0 0-1.144-.854q-.696-.329-1.668-.329-1.301 0-2.194.552-.894.538-.894 1.446 0 .722.578 1.222.579.499 1.984.801l3.653.736q2.943.605 4.388 1.944 1.446 1.341 1.446 3.522 0 1.983-1.17 3.482-1.155 1.498-3.179 2.338-2.012.828-4.638.828-4.008 0-6.386-1.669-2.365-1.682-2.772-4.572l5.505-.289q.249 1.223 1.209 1.866.959.63 2.457.63 1.471 0 2.365-.565.906-.578.919-1.484-.012-.762-.643-1.249-.631-.498-1.945-.762l-3.495-.696q-2.956-.59-4.402-2.05-1.432-1.458-1.432-3.718 0-1.944 1.051-3.351 1.065-1.405 2.983-2.168 1.931-.762 4.52-.762 3.824 0 6.018 1.617 2.207 1.616 2.575 4.401m17.321 21.995v-10.8h-.171a7.2 7.2 0 0 1-1.117 1.668q-.71.816-1.853 1.354-1.13.538-2.759.538-2.3 0-4.165-1.182-1.853-1.196-2.943-3.508-1.078-2.326-1.078-5.703 0-3.468 1.117-5.768 1.118-2.312 2.97-3.455a7.6 7.6 0 0 1 4.086-1.157q1.695 0 2.825.579 1.143.564 1.839 1.419.71.84 1.078 1.655h.236v-3.39h5.519v27.75zm-4.126-11.694q1.353 0 2.286-.736.947-.748 1.445-2.089.513-1.34.513-3.14t-.499-3.127q-.5-1.327-1.446-2.05-.945-.722-2.299-.722-1.38 0-2.326.749-.945.749-1.432 2.076-.486 1.326-.486 3.074 0 1.761.486 3.114.5 1.34 1.432 2.102.946.75 2.326.749m27.146-4.467v-11.589h5.597V629h-5.374v-3.666h-.21a5.96 5.96 0 0 1-2.273 2.851q-1.578 1.078-3.85 1.078-2.023 0-3.561-.92t-2.404-2.615q-.855-1.695-.868-4.06v-12.85h5.598v11.852q.012 1.787.959 2.825.946 1.038 2.536 1.038 1.011 0 1.892-.46a3.6 3.6 0 0 0 1.419-1.393q.552-.92.539-2.273m15.829 8.974q-1.932 0-3.442-.67-1.512-.684-2.392-2.01-.867-1.34-.867-3.338 0-1.682.618-2.825a5 5 0 0 1 1.681-1.839 8.2 8.2 0 0 1 2.418-1.051 18.5 18.5 0 0 1 2.864-.5 72 72 0 0 0 2.838-.341q1.078-.17 1.564-.499t.486-.973v-.079q0-1.248-.788-1.931-.776-.684-2.208-.683-1.51 0-2.404.67-.894.657-1.183 1.655l-5.177-.42q.394-1.839 1.551-3.18 1.156-1.353 2.983-2.076 1.839-.736 4.257-.736 1.682 0 3.219.395 1.55.393 2.746 1.222a5.9 5.9 0 0 1 1.905 2.128q.696 1.287.696 3.088V629h-5.308v-2.799h-.158a5.7 5.7 0 0 1-1.3 1.669q-.815.71-1.958 1.117-1.143.394-2.641.394m1.603-3.863q1.235 0 2.181-.486a3.87 3.87 0 0 0 1.485-1.34 3.46 3.46 0 0 0 .539-1.905v-2.142a3 3 0 0 1-.723.315q-.447.132-1.012.25-.565.105-1.13.197l-1.025.144q-.985.145-1.721.46t-1.143.854q-.407.526-.407 1.314 0 1.143.827 1.748.842.591 2.129.591M336.245 629v-20.182h5.426v3.521h.211q.552-1.878 1.852-2.838 1.3-.972 2.996-.972.42 0 .907.053.486.052.854.144v4.967a7 7 0 0 0-1.091-.21 10 10 0 0 0-1.274-.092q-1.236 0-2.208.538a4 4 0 0 0-1.524 1.472q-.552.946-.552 2.181V629zm23.398.394q-3.114 0-5.361-1.261-2.234-1.275-3.443-3.6-1.209-2.34-1.209-5.532 0-3.114 1.209-5.466t3.403-3.666q2.208-1.314 5.177-1.314 1.998 0 3.719.644a8.3 8.3 0 0 1 3.022 1.905q1.3 1.275 2.023 3.206.723 1.918.723 4.494v1.537h-17.042v-3.468h11.773q0-1.209-.526-2.142a3.77 3.77 0 0 0-1.458-1.459q-.92-.538-2.142-.538-1.275 0-2.26.591a4.15 4.15 0 0 0-1.524 1.563 4.4 4.4 0 0 0-.565 2.168v3.298q0 1.498.552 2.589a4.05 4.05 0 0 0 1.59 1.682q1.024.591 2.431.591.932 0 1.708-.263a3.55 3.55 0 0 0 1.327-.788q.552-.526.841-1.288l5.176.342a7.05 7.05 0 0 1-1.616 3.258q-1.209 1.38-3.127 2.155-1.905.762-4.401.762M232.563 1917.09V1944h-5.689v-21.51h-.158l-6.162 3.86v-5.04l6.662-4.22zm31.804 12.48-5.124.32a2.63 2.63 0 0 0-.565-1.18c-.289-.36-.67-.65-1.144-.86q-.696-.33-1.668-.33c-.867 0-1.599.19-2.194.56-.596.35-.894.84-.894 1.44 0 .48.193.89.578 1.22.386.34 1.047.6 1.984.8l3.653.74c1.962.4 3.425 1.05 4.388 1.94.964.9 1.446 2.07 1.446 3.53q0 1.98-1.17 3.48-1.155 1.5-3.179 2.34c-1.341.55-2.887.82-4.638.82-2.672 0-4.801-.55-6.386-1.66-1.577-1.13-2.501-2.65-2.772-4.58l5.505-.29c.166.82.569 1.44 1.209 1.87q.959.63 2.457.63c.981 0 1.769-.19 2.365-.56.604-.39.911-.88.919-1.49-.008-.51-.223-.92-.643-1.25s-1.069-.58-1.945-.76l-3.495-.7c-1.971-.39-3.438-1.07-4.402-2.05-.954-.97-1.432-2.21-1.432-3.71 0-1.3.351-2.42 1.051-3.35.71-.94 1.704-1.66 2.983-2.17 1.288-.51 2.794-.76 4.52-.76 2.549 0 4.555.53 6.018 1.61 1.471 1.08 2.33 2.55 2.575 4.4m17.321 22v-10.8h-.171c-.263.56-.635 1.11-1.117 1.67q-.71.81-1.853 1.35-1.13.54-2.759.54c-1.533 0-2.921-.4-4.165-1.18q-1.853-1.2-2.943-3.51-1.078-2.325-1.078-5.7c0-2.32.373-4.24 1.117-5.77.745-1.54 1.735-2.7 2.97-3.46a7.6 7.6 0 0 1 4.086-1.15q1.695 0 2.825.57c.762.38 1.375.85 1.839 1.42.473.56.833 1.12 1.078 1.66h.236v-3.39h5.519v27.75zm-4.126-11.7c.902 0 1.664-.24 2.286-.73.631-.5 1.113-1.2 1.445-2.09.342-.89.513-1.94.513-3.14s-.167-2.24-.499-3.13c-.333-.88-.815-1.57-1.446-2.05q-.945-.72-2.299-.72-1.38 0-2.326.75-.945.75-1.432 2.07c-.324.89-.486 1.91-.486 3.08s.162 2.21.486 3.11c.333.9.81 1.6 1.432 2.11.631.49 1.406.74 2.326.74m27.146-4.46v-11.59h5.597V1944h-5.374v-3.67h-.21a5.96 5.96 0 0 1-2.273 2.86c-1.052.71-2.335 1.07-3.85 1.07-1.349 0-2.536-.3-3.561-.92q-1.537-.915-2.404-2.61c-.57-1.13-.859-2.48-.868-4.06v-12.85h5.598v11.85q.012 1.785.959 2.82c.631.7 1.476 1.04 2.536 1.04.674 0 1.305-.15 1.892-.46s1.06-.78 1.419-1.39c.368-.61.547-1.37.539-2.27m15.829 8.97c-1.288 0-2.435-.22-3.442-.67a5.47 5.47 0 0 1-2.392-2.01c-.578-.89-.867-2.01-.867-3.34q0-1.68.618-2.82c.411-.76.972-1.38 1.681-1.84q1.065-.705 2.418-1.05a17.3 17.3 0 0 1 2.864-.5c1.174-.12 2.12-.24 2.838-.34.719-.12 1.24-.28 1.564-.5s.486-.55.486-.97v-.08c0-.84-.263-1.48-.788-1.94-.517-.45-1.253-.68-2.208-.68-1.007 0-1.808.23-2.404.67s-.99.99-1.183 1.66l-5.177-.42q.394-1.845 1.551-3.18c.771-.91 1.765-1.6 2.983-2.08 1.226-.49 2.645-.73 4.257-.73q1.682 0 3.219.39c1.033.26 1.949.67 2.746 1.22a5.9 5.9 0 0 1 1.905 2.13q.696 1.29.696 3.09V1944h-5.308v-2.8h-.158a5.7 5.7 0 0 1-1.3 1.67c-.543.47-1.196.85-1.958 1.12q-1.143.39-2.641.39m1.603-3.86c.823 0 1.55-.16 2.181-.49a3.84 3.84 0 0 0 1.485-1.34c.359-.56.539-1.19.539-1.9v-2.15c-.176.12-.417.22-.723.32-.298.09-.635.17-1.012.25-.377.07-.753.14-1.13.2-.376.05-.718.1-1.025.14-.657.1-1.23.25-1.721.46-.49.21-.872.5-1.143.86-.272.35-.407.78-.407 1.31 0 .76.276 1.34.827 1.75.561.39 1.271.59 2.129.59m14.105 3.48v-20.18h5.426v3.52h.211c.368-1.25.985-2.2 1.852-2.84.867-.65 1.866-.97 2.996-.97a10 10 0 0 1 .907.05c.324.04.608.08.854.15v4.96a7 7 0 0 0-1.091-.21q-.696-.09-1.274-.09-1.236 0-2.208.54a3.97 3.97 0 0 0-1.524 1.47c-.368.63-.552 1.36-.552 2.18V1944zm23.398.39q-3.114 0-5.361-1.26-2.234-1.275-3.443-3.6c-.806-1.56-1.209-3.4-1.209-5.53 0-2.07.403-3.9 1.209-5.46.806-1.57 1.94-2.79 3.403-3.67 1.472-.88 3.198-1.31 5.177-1.31 1.332 0 2.571.21 3.719.64a8.2 8.2 0 0 1 3.022 1.9q1.3 1.275 2.023 3.21c.482 1.28.723 2.78.723 4.49v1.54h-17.042v-3.47h11.773c0-.8-.175-1.52-.526-2.14a3.8 3.8 0 0 0-1.458-1.46q-.92-.54-2.142-.54c-.85 0-1.603.2-2.26.59-.648.39-1.156.91-1.524 1.57a4.4 4.4 0 0 0-.565 2.17v3.29c0 1 .184 1.87.552 2.59q.565 1.095 1.59 1.68 1.024.6 2.431.6.932 0 1.708-.27c.516-.17.959-.43 1.327-.79.368-.35.648-.77.841-1.28l5.176.34a7.1 7.1 0 0 1-1.616 3.26c-.806.92-1.848 1.64-3.127 2.15-1.27.51-2.737.76-4.401.76"/><path stroke="#fff" stroke-width="4" d="M272.71 248.149c41.613 32.866 87.126 86.911 122.292 143.001 17.651 28.153 32.666 56.774 43.263 83.431C448.872 501.266 455 525.857 455 545.988c0 107.981-89.461 225.877-218.497 225.877-64.404-.001-115.998-33.805-151.558-79.053C49.36 647.529 30 590.987 30 545.988c0-18.644 5.723-42.302 15.67-68.483 9.936-26.148 24.031-54.675 40.647-83.015 33.093-56.442 76.076-111.951 115.874-146.341z"/><path stroke="#fff" stroke-linecap="round" stroke-width="12" d="M179.303 244.861h116.243"/><path stroke="#fff" stroke-linecap="round" stroke-width="10" d="M267.872 253.529s.354 14.253 9.225 30.445c7.98 14.566 16.606 23.065 16.606 23.065"/><path stroke="#fff" stroke-linecap="round" stroke-width="8" d="M246.651 253.53s-3.799 19.578-4.613 32.29c-.667 10.427.001 26.755.001 26.755"/><path stroke="#fff" stroke-width="4" d="M327.838 123.445c-5.859-10.148-175.291-6.885-177.136 0s63.664 124.55 63.664 124.55h53.502s65.83-114.401 59.97-124.55ZM272.71 1563.15c41.613 32.86 87.126 86.91 122.292 143 17.651 28.15 32.666 56.77 43.263 83.43 10.607 26.69 16.735 51.28 16.735 71.41 0 107.98-89.461 225.87-218.497 225.87-64.404 0-115.998-33.8-151.558-79.05C49.36 1962.53 30 1905.99 30 1860.99c0-18.65 5.723-42.3 15.67-68.48 9.936-26.15 24.031-54.68 40.647-83.02 33.093-56.44 76.076-111.95 115.874-146.34z"/><path stroke="#fff" stroke-linecap="round" stroke-width="12" d="M179.303 1559.86h116.243"/><path stroke="#fff" stroke-linecap="round" stroke-width="10" d="M267.872 1568.53s.354 14.25 9.225 30.44c7.98 14.57 16.606 23.07 16.606 23.07"/><path stroke="#fff" stroke-linecap="round" stroke-width="8" d="M246.651 1568.53s-3.799 19.58-4.613 32.29c-.667 10.43.001 26.75.001 26.75"/><path stroke="#fff" stroke-width="4" d="M327.838 1438.45c-5.859-10.15-175.291-6.89-177.136-.01-1.845 6.89 63.664 124.55 63.664 124.55h53.502s65.83-114.4 59.97-124.54Z"/><rect width="71.685" height="71.685" x="234.713" y="666.775" stroke="#fff" stroke-width="3" rx="3.5" transform="rotate(-8.876 234.713 666.775)"/><rect width="71.685" height="71.685" x="234.713" y="1981.77" stroke="#fff" stroke-width="3" rx="3.5" transform="rotate(-8.876 234.713 1981.77)"/><rect width="40.945" height="40.945" x="929.713" y="492.919" stroke="#0098d4" stroke-width="3" rx="3.5" transform="rotate(-8.876 929.713 492.919)"/><rect width="40.945" height="40.945" x="721.713" y="1813.92" stroke="#0098d4" stroke-width="3" rx="3.5" transform="rotate(-8.876 721.713 1813.92)"/><path fill="#fff" d="M696.784 57.676h-6.688q-.183-1.298-.749-2.306a5.9 5.9 0 0 0-1.45-1.74 6.4 6.4 0 0 0-2.046-1.1 7.8 7.8 0 0 0-2.489-.382q-2.429 0-4.23 1.206-1.802 1.191-2.795 3.482-.992 2.276-.992 5.528 0 3.343.992 5.619 1.008 2.275 2.81 3.436 1.802 1.16 4.169 1.16 1.328 0 2.458-.351a6.5 6.5 0 0 0 2.031-1.023 5.9 5.9 0 0 0 1.466-1.665 6.5 6.5 0 0 0 .825-2.229l6.688.03a12.1 12.1 0 0 1-1.298 4.154 12.5 12.5 0 0 1-2.764 3.558q-1.726 1.557-4.123 2.474-2.382.9-5.39.9-4.183 0-7.482-1.893-3.284-1.894-5.192-5.482-1.894-3.588-1.894-8.688 0-5.116 1.924-8.704 1.925-3.588 5.223-5.467 3.298-1.893 7.421-1.893 2.718 0 5.039.763 2.337.764 4.138 2.23a11.5 11.5 0 0 1 2.932 3.557q1.145 2.108 1.466 4.826m11.124 6.764V78h-6.505V46.727h6.322v11.957H708q.793-2.077 2.565-3.253 1.772-1.19 4.443-1.19 2.443 0 4.261 1.068 1.832 1.053 2.84 3.039 1.023 1.97 1.008 4.718V78h-6.505V64.227q.016-2.168-1.1-3.375-1.1-1.206-3.084-1.206-1.329 0-2.352.565-1.008.564-1.588 1.649-.564 1.068-.58 2.58M728.236 78V54.545h6.505V78zm3.268-26.478q-1.45 0-2.489-.962-1.023-.978-1.023-2.336 0-1.344 1.023-2.306 1.038-.977 2.489-.977t2.473.977q1.04.962 1.039 2.306 0 1.36-1.039 2.336-1.023.962-2.473.962m14.953-4.795V78h-6.505V46.727zm13.853 31.655q-2.672 0-4.84-1.375-2.154-1.389-3.421-4.077-1.251-2.701-1.252-6.627 0-4.031 1.298-6.703 1.299-2.687 3.451-4.016a8.85 8.85 0 0 1 4.749-1.344q1.97 0 3.283.672 1.328.656 2.138 1.65.825.976 1.252 1.923h.199V46.727h6.489V78h-6.413v-3.756h-.275q-.458.976-1.298 1.939-.824.946-2.153 1.573-1.312.626-3.207.626m2.062-5.177q1.572 0 2.657-.855 1.1-.87 1.679-2.428.596-1.557.596-3.65 0-2.09-.58-3.634-.58-1.542-1.68-2.382t-2.672-.84q-1.603 0-2.703.87-1.1.871-1.664 2.414-.565 1.542-.565 3.573 0 2.046.565 3.619.58 1.557 1.664 2.443 1.1.87 2.703.87M794.469 78h-7.085l10.796-31.273h8.52L817.481 78h-7.085l-7.834-24.126h-.244zm-.443-12.292h16.736v5.161h-16.736zM662.467 447l-8.551-31.273h3.848l6.536 25.47h.305l6.658-25.47h4.275l6.658 25.47h.305l6.536-25.47h3.848L684.334 447h-3.909l-6.902-24.92h-.245L666.376 447zm39.366.55q-2.23 0-4.046-.84-1.818-.855-2.886-2.459-1.07-1.619-1.069-3.909 0-2.015.794-3.267a5.6 5.6 0 0 1 2.122-1.986 11.2 11.2 0 0 1 2.932-1.068 36 36 0 0 1 3.253-.581q2.137-.274 3.466-.412 1.344-.153 1.954-.504.627-.351.626-1.221v-.123q0-2.26-1.236-3.512-1.222-1.251-3.711-1.252-2.58 0-4.047 1.13-1.465 1.13-2.061 2.413l-3.42-1.222q.915-2.138 2.443-3.329a9.15 9.15 0 0 1 3.359-1.679 14 14 0 0 1 3.604-.489q1.13 0 2.596.275a8.3 8.3 0 0 1 2.855 1.084q1.39.825 2.306 2.489.916 1.665.916 4.459V447h-3.604v-3.176h-.183q-.366.763-1.221 1.634t-2.276 1.481q-1.42.61-3.466.611m.55-3.238q2.137 0 3.604-.839 1.48-.84 2.229-2.169a5.5 5.5 0 0 0 .763-2.794v-3.298q-.228.274-1.007.504-.764.213-1.772.381-.992.153-1.939.275-.931.107-1.512.183-1.405.184-2.626.596-1.206.397-1.955 1.206-.732.794-.733 2.169 0 1.877 1.39 2.84 1.404.946 3.558.946m20.381-11.421V447h-3.603v-23.455h3.481v3.665h.306a6.7 6.7 0 0 1 2.504-2.871q1.68-1.099 4.336-1.099 2.383 0 4.169.977 1.787.963 2.779 2.932.993 1.954.993 4.948V447h-3.604v-14.659q0-2.764-1.435-4.306-1.435-1.558-3.94-1.558-1.725 0-3.084.748-1.344.748-2.123 2.184t-.779 3.482m31.75-9.346v3.054h-12.155v-3.054zm-8.612-5.619h3.604v22.355q0 1.527.443 2.291.458.748 1.16 1.008.717.243 1.512.244.596 0 .977-.061l.611-.122.733 3.237a7.5 7.5 0 0 1-1.023.275q-.657.152-1.665.152a7.25 7.25 0 0 1-2.993-.656 5.94 5.94 0 0 1-2.412-2.001q-.947-1.343-.947-3.389zm30.227 10.872-3.237.916a6 6 0 0 0-.901-1.572q-.581-.779-1.588-1.283t-2.581-.504q-2.153 0-3.589.993-1.42.977-1.42 2.489 0 1.343.978 2.122.976.779 3.054 1.298l3.481.855q3.146.763 4.688 2.337 1.542 1.558 1.542 4.015 0 2.016-1.16 3.604-1.146 1.589-3.207 2.504-2.06.917-4.795.917-3.588 0-5.94-1.558-2.351-1.557-2.977-4.55l3.42-.855q.489 1.893 1.848 2.84 1.374.946 3.588.946 2.52 0 4.001-1.068 1.497-1.084 1.496-2.596 0-1.223-.855-2.046-.855-.84-2.626-1.253l-3.909-.916q-3.222-.764-4.734-2.367-1.496-1.619-1.496-4.046 0-1.986 1.114-3.512 1.13-1.527 3.07-2.398 1.955-.87 4.428-.87 3.481 0 5.467 1.527 2 1.527 2.84 4.031m8.478 18.446a2.64 2.64 0 0 1-1.939-.809 2.65 2.65 0 0 1-.809-1.939q0-1.13.809-1.94a2.65 2.65 0 0 1 1.939-.809q1.13 0 1.94.809.809.81.809 1.94 0 .749-.382 1.374a2.86 2.86 0 0 1-.992 1.008 2.63 2.63 0 0 1-1.375.366m0-17.407q-1.13 0-1.939-.81a2.65 2.65 0 0 1-.809-1.939q0-1.13.809-1.939.81-.81 1.939-.81t1.94.81q.809.809.809 1.939 0 .749-.382 1.374a2.84 2.84 0 0 1-.992 1.008 2.63 2.63 0 0 1-1.375.367M927.467 447l-8.551-31.273h3.848l6.536 25.47h.305l6.658-25.47h4.275l6.658 25.47h.305l6.536-25.47h3.848L949.334 447h-3.909l-6.902-24.92h-.245L931.376 447zm39.366.55q-2.23 0-4.046-.84-1.818-.855-2.886-2.459-1.07-1.619-1.069-3.909 0-2.015.794-3.267a5.6 5.6 0 0 1 2.122-1.986 11.2 11.2 0 0 1 2.932-1.068 36 36 0 0 1 3.253-.581q2.137-.274 3.466-.412 1.344-.153 1.954-.504.627-.351.626-1.221v-.123q0-2.26-1.236-3.512-1.222-1.251-3.711-1.252-2.58 0-4.047 1.13-1.465 1.13-2.061 2.413l-3.42-1.222q.915-2.138 2.443-3.329a9.15 9.15 0 0 1 3.359-1.679 14 14 0 0 1 3.604-.489q1.13 0 2.596.275a8.3 8.3 0 0 1 2.855 1.084q1.39.825 2.306 2.489.916 1.665.916 4.459V447h-3.604v-3.176h-.183q-.366.763-1.221 1.634t-2.276 1.481q-1.42.61-3.466.611m.55-3.238q2.137 0 3.604-.839 1.48-.84 2.229-2.169a5.5 5.5 0 0 0 .763-2.794v-3.298q-.228.274-1.007.504-.764.213-1.772.381-.992.153-1.939.275-.931.107-1.512.183-1.405.184-2.626.596-1.206.397-1.955 1.206-.732.794-.733 2.169 0 1.877 1.39 2.84 1.404.946 3.558.946m20.381-11.421V447h-3.603v-23.455h3.481v3.665h.306a6.7 6.7 0 0 1 2.504-2.871q1.68-1.099 4.336-1.099 2.383 0 4.169.977c1.193.642 2.113 1.619 2.783 2.932q.99 1.954.99 4.948V447h-3.605v-14.659q0-2.764-1.435-4.306-1.435-1.558-3.94-1.558-1.725 0-3.084.748-1.344.748-2.123 2.184t-.779 3.482m31.746-9.346v3.054h-12.15v-3.054zm-8.61-5.619h3.61v22.355c0 1.018.14 1.782.44 2.291.3.499.69.834 1.16 1.008.48.162.98.244 1.51.244.4 0 .72-.02.98-.061l.61-.122.73 3.237q-.36.137-1.02.275c-.44.101-.99.152-1.67.152-1.01 0-2.01-.218-2.99-.656a5.9 5.9 0 0 1-2.41-2.001c-.63-.895-.95-2.025-.95-3.389zm30.23 10.872-3.24.916q-.3-.808-.9-1.572-.585-.779-1.59-1.283t-2.58-.504c-1.43 0-2.63.331-3.59.993-.94.651-1.42 1.481-1.42 2.489 0 .895.33 1.603.98 2.122s1.67.952 3.05 1.298l3.49.855c2.09.509 3.66 1.288 4.68 2.337 1.03 1.038 1.55 2.377 1.55 4.015 0 1.344-.39 2.545-1.16 3.604q-1.155 1.589-3.21 2.504c-1.38.611-2.97.917-4.8.917q-3.585 0-5.94-1.558c-1.56-1.038-2.56-2.555-2.97-4.55l3.42-.855c.32 1.262.94 2.209 1.84 2.84.92.631 2.12.946 3.59.946 1.68 0 3.02-.356 4-1.068q1.5-1.084 1.5-2.596c0-.815-.28-1.497-.85-2.046-.57-.56-1.45-.978-2.63-1.253l-3.91-.916c-2.15-.509-3.73-1.298-4.73-2.367q-1.5-1.619-1.5-4.046 0-1.986 1.11-3.512c.76-1.018 1.78-1.817 3.07-2.398 1.31-.58 2.78-.87 4.43-.87 2.32 0 4.15.509 5.47 1.527 1.33 1.018 2.28 2.362 2.84 4.031m8.48 18.446c-.76 0-1.4-.269-1.94-.809a2.65 2.65 0 0 1-.81-1.939q0-1.13.81-1.94c.54-.539 1.18-.809 1.94-.809.75 0 1.4.27 1.94.809q.81.81.81 1.94 0 .749-.39 1.374-.36.625-.99 1.008c-.41.244-.86.366-1.37.366m0-17.407c-.76 0-1.4-.27-1.94-.81a2.64 2.64 0 0 1-.81-1.939q0-1.13.81-1.939c.54-.54 1.18-.81 1.94-.81.75 0 1.4.27 1.94.81q.81.809.81 1.939 0 .749-.39 1.374a2.8 2.8 0 0 1-.99 1.008c-.41.244-.86.367-1.37.367M719.467 1768l-8.551-31.27h3.848l6.536 25.47h.305l6.658-25.47h4.275l6.658 25.47h.305l6.536-25.47h3.848l-8.551 31.27h-3.909l-6.902-24.92h-.245l-6.902 24.92zm39.366.55q-2.23 0-4.046-.84-1.818-.855-2.886-2.46c-.713-1.08-1.069-2.38-1.069-3.91q0-2.01.794-3.27a5.64 5.64 0 0 1 2.122-1.98c.886-.48 1.863-.84 2.932-1.07 1.079-.24 2.163-.44 3.253-.58 1.425-.18 2.58-.32 3.466-.41q1.344-.15 1.954-.51c.418-.23.626-.64.626-1.22v-.12q0-2.265-1.236-3.51c-.815-.84-2.052-1.25-3.711-1.25-1.72 0-3.069.37-4.047 1.13-.977.75-1.664 1.55-2.061 2.41l-3.42-1.22q.915-2.145 2.443-3.33a9 9 0 0 1 3.359-1.68c1.222-.33 2.423-.49 3.604-.49q1.13 0 2.596.27c.987.18 1.939.54 2.855 1.09q1.39.825 2.306 2.49c.611 1.11.916 2.59.916 4.46V1768h-3.604v-3.18h-.183c-.244.51-.651 1.06-1.221 1.64s-1.329 1.07-2.276 1.48-2.102.61-3.466.61m.55-3.24q2.137 0 3.604-.84c.987-.56 1.73-1.28 2.229-2.17q.763-1.32.763-2.79v-3.3q-.228.27-1.007.51c-.509.14-1.1.27-1.772.38q-.992.15-1.939.27c-.621.07-1.125.13-1.512.19-.936.12-1.812.32-2.626.59-.804.27-1.456.67-1.955 1.21-.488.53-.733 1.25-.733 2.17 0 1.25.464 2.19 1.39 2.84.936.63 2.122.94 3.558.94m20.381-11.42V1768h-3.603v-23.45h3.481v3.66h.306a6.7 6.7 0 0 1 2.504-2.87c1.12-.73 2.565-1.1 4.336-1.1 1.589 0 2.978.33 4.169.98 1.191.64 2.118 1.62 2.779 2.93q.993 1.95.993 4.95v14.9h-3.604v-14.66c0-1.84-.478-3.28-1.435-4.31s-2.27-1.55-3.94-1.55q-1.725 0-3.084.75c-.896.49-1.604 1.22-2.123 2.18q-.779 1.44-.779 3.48m31.75-9.34v3.05h-12.155v-3.05zm-8.612-5.62h3.604v22.35c0 1.02.147 1.78.443 2.29.305.5.692.84 1.16 1.01q.717.24 1.512.24.596 0 .977-.06l.611-.12.733 3.24q-.367.135-1.023.27c-.438.1-.993.16-1.665.16a7.2 7.2 0 0 1-2.993-.66 6 6 0 0 1-2.412-2q-.947-1.35-.947-3.39zm30.227 10.87-3.237.91a6 6 0 0 0-.901-1.57c-.387-.52-.917-.95-1.588-1.28-.672-.34-1.533-.5-2.581-.5q-2.153 0-3.589.99-1.42.975-1.42 2.49c0 .89.326 1.6.978 2.12s1.669.95 3.054 1.3l3.481.85q3.146.765 4.688 2.34c1.028 1.04 1.542 2.38 1.542 4.01 0 1.35-.387 2.55-1.16 3.61-.764 1.06-1.833 1.89-3.207 2.5s-2.972.92-4.795.92q-3.588 0-5.94-1.56c-1.567-1.04-2.56-2.55-2.977-4.55l3.42-.85c.326 1.26.942 2.2 1.848 2.84.916.63 2.112.94 3.588.94 1.68 0 3.014-.35 4.001-1.07.998-.72 1.496-1.58 1.496-2.59 0-.82-.285-1.5-.855-2.05-.57-.56-1.445-.98-2.626-1.25l-3.909-.92c-2.148-.51-3.726-1.29-4.734-2.36q-1.496-1.62-1.496-4.05 0-1.98 1.114-3.51 1.13-1.53 3.07-2.4 1.955-.87 4.428-.87 3.481 0 5.467 1.53c1.333 1.02 2.28 2.36 2.84 4.03m8.478 18.44c-.753 0-1.399-.27-1.939-.8a2.66 2.66 0 0 1-.809-1.94c0-.76.27-1.4.809-1.94q.81-.81 1.939-.81t1.94.81c.539.54.809 1.18.809 1.94 0 .49-.127.95-.382 1.37a2.9 2.9 0 0 1-.992 1.01 2.66 2.66 0 0 1-1.375.36m0-17.4q-1.13 0-1.939-.81a2.66 2.66 0 0 1-.809-1.94c0-.76.27-1.4.809-1.94q.81-.81 1.939-.81t1.94.81c.539.54.809 1.18.809 1.94 0 .5-.127.95-.382 1.37a2.8 2.8 0 0 1-.992 1.01c-.408.24-.866.37-1.375.37M655.787 618v-31.273h3.787v13.926h16.675v-13.926h3.787V618h-3.787v-13.987h-16.675V618zm38.243.55q-2.23 0-4.046-.84-1.818-.855-2.886-2.459-1.07-1.619-1.069-3.909 0-2.015.794-3.267a5.6 5.6 0 0 1 2.122-1.986 11.2 11.2 0 0 1 2.932-1.068 36 36 0 0 1 3.253-.581q2.137-.274 3.466-.412 1.343-.153 1.955-.504.626-.351.626-1.221v-.123q0-2.26-1.237-3.512-1.222-1.251-3.711-1.252-2.58 0-4.046 1.13t-2.062 2.413l-3.42-1.222q.916-2.138 2.443-3.329a9.15 9.15 0 0 1 3.359-1.679 14 14 0 0 1 3.604-.489q1.13 0 2.596.275a8.3 8.3 0 0 1 2.855 1.084q1.39.824 2.306 2.489t.916 4.459V618h-3.603v-3.176h-.184q-.366.763-1.221 1.634t-2.275 1.481-3.467.611m.55-3.238q2.137 0 3.604-.839 1.48-.84 2.229-2.169a5.5 5.5 0 0 0 .764-2.794v-3.298q-.23.274-1.008.504-.764.213-1.771.381-.993.153-1.94.275-.932.106-1.511.183-1.405.184-2.627.596-1.207.397-1.954 1.206-.733.794-.733 2.169 0 1.877 1.389 2.84 1.406.946 3.558.946m33.392-15.514-3.238.916a6 6 0 0 0-.901-1.572q-.58-.779-1.588-1.283t-2.58-.504q-2.154 0-3.589.993-1.42.977-1.42 2.489 0 1.343.977 2.122.978.779 3.054 1.298l3.482.855q3.146.763 4.688 2.337 1.542 1.557 1.542 4.015 0 2.016-1.16 3.604-1.146 1.589-3.207 2.504-2.062.917-4.795.917-3.588 0-5.94-1.558-2.352-1.557-2.977-4.55l3.42-.855q.489 1.893 1.848 2.84 1.374.946 3.588.946 2.52 0 4.001-1.068 1.496-1.084 1.496-2.596 0-1.223-.855-2.046-.855-.84-2.626-1.253l-3.909-.916q-3.222-.764-4.734-2.367-1.497-1.619-1.497-4.046 0-1.986 1.115-3.512 1.13-1.527 3.069-2.398 1.955-.87 4.429-.87 3.482 0 5.466 1.527 2.001 1.527 2.841 4.031m8.478 18.446q-1.13 0-1.939-.809a2.64 2.64 0 0 1-.809-1.939q0-1.13.809-1.94a2.65 2.65 0 0 1 1.939-.809q1.13 0 1.939.809.81.81.81 1.94 0 .749-.382 1.374a2.85 2.85 0 0 1-.993 1.008 2.6 2.6 0 0 1-1.374.366m0-17.407q-1.13 0-1.939-.81a2.64 2.64 0 0 1-.809-1.939q0-1.13.809-1.939a2.64 2.64 0 0 1 1.939-.81q1.13 0 1.939.81.81.809.81 1.939 0 .748-.382 1.374a2.84 2.84 0 0 1-.993 1.008 2.6 2.6 0 0 1-1.374.367M920.787 618v-31.273h3.787v13.926h16.675v-13.926h3.787V618h-3.787v-13.987h-16.675V618zm38.243.55q-2.23 0-4.046-.84-1.818-.855-2.886-2.459-1.07-1.619-1.069-3.909 0-2.015.794-3.267a5.6 5.6 0 0 1 2.122-1.986 11.2 11.2 0 0 1 2.932-1.068 36 36 0 0 1 3.253-.581q2.137-.274 3.466-.412 1.343-.153 1.955-.504.626-.351.626-1.221v-.123q0-2.26-1.237-3.512-1.222-1.251-3.711-1.252-2.58 0-4.046 1.13t-2.062 2.413l-3.42-1.222q.916-2.138 2.443-3.329a9.15 9.15 0 0 1 3.359-1.679 14 14 0 0 1 3.604-.489q1.13 0 2.596.275a8.3 8.3 0 0 1 2.855 1.084q1.39.824 2.306 2.489t.916 4.459V618h-3.603v-3.176h-.184q-.366.763-1.221 1.634t-2.275 1.481-3.467.611m.55-3.238q2.137 0 3.604-.839 1.48-.84 2.229-2.169a5.5 5.5 0 0 0 .764-2.794v-3.298q-.23.274-1.008.504-.764.213-1.771.381-.993.153-1.94.275-.932.106-1.511.183-1.405.184-2.627.596-1.207.397-1.954 1.206-.733.794-.733 2.169 0 1.877 1.389 2.84 1.406.946 3.558.946m33.392-15.514-3.238.916a6 6 0 0 0-.901-1.572q-.58-.779-1.588-1.283t-2.58-.504q-2.154 0-3.589.993-1.42.977-1.42 2.489 0 1.343.977 2.122.978.779 3.054 1.298l3.482.855q3.146.763 4.688 2.337 1.542 1.557 1.542 4.015 0 2.016-1.16 3.604-1.146 1.589-3.207 2.504-2.062.917-4.795.917-3.588 0-5.94-1.558-2.352-1.557-2.977-4.55l3.42-.855q.489 1.893 1.848 2.84 1.374.946 3.588.946 2.52 0 4.001-1.068 1.496-1.084 1.496-2.596 0-1.223-.855-2.046-.855-.84-2.626-1.253l-3.909-.916q-3.222-.764-4.734-2.367-1.497-1.619-1.497-4.046 0-1.986 1.115-3.512 1.13-1.527 3.069-2.398 1.955-.87 4.429-.87 3.482 0 5.466 1.527 2.001 1.527 2.841 4.031m8.478 18.446c-.75 0-1.4-.269-1.939-.809a2.64 2.64 0 0 1-.809-1.939q0-1.13.809-1.94a2.65 2.65 0 0 1 1.939-.809c.75 0 1.4.27 1.94.809q.81.81.81 1.94c0 .499-.13.957-.38 1.374s-.58.753-1 1.008c-.4.244-.86.366-1.37.366m0-17.407c-.75 0-1.4-.27-1.939-.81a2.64 2.64 0 0 1-.809-1.939q0-1.13.809-1.939a2.65 2.65 0 0 1 1.939-.81c.75 0 1.4.27 1.94.81q.81.809.81 1.939c0 .499-.13.957-.38 1.374a2.9 2.9 0 0 1-1 1.008c-.4.244-.86.367-1.37.367M712.787 1939v-31.27h3.787v13.92h16.675v-13.92h3.787V1939h-3.787v-13.99h-16.675V1939zm38.243.55q-2.23 0-4.046-.84-1.818-.855-2.886-2.46c-.713-1.08-1.069-2.38-1.069-3.91q0-2.01.794-3.27a5.64 5.64 0 0 1 2.122-1.98c.886-.48 1.863-.84 2.932-1.07a36 36 0 0 1 3.253-.58c1.425-.18 2.58-.32 3.466-.41q1.343-.15 1.955-.51c.417-.23.626-.64.626-1.22v-.12q0-2.265-1.237-3.51c-.815-.84-2.051-1.25-3.711-1.25-1.72 0-3.069.37-4.046 1.13-.978.75-1.665 1.55-2.062 2.41l-3.42-1.22q.916-2.145 2.443-3.33a9 9 0 0 1 3.359-1.68c1.222-.33 2.423-.49 3.604-.49q1.13 0 2.596.27c.987.18 1.939.54 2.855 1.09q1.39.825 2.306 2.49c.611 1.11.916 2.59.916 4.46V1939h-3.603v-3.18h-.184c-.244.51-.651 1.06-1.221 1.64s-1.329 1.07-2.275 1.48c-.947.41-2.103.61-3.467.61m.55-3.24q2.137 0 3.604-.84c.987-.56 1.73-1.28 2.229-2.17q.764-1.32.764-2.79v-3.3q-.23.27-1.008.51c-.509.14-1.1.27-1.771.38q-.993.15-1.94.27c-.621.07-1.125.13-1.511.19-.937.12-1.812.32-2.627.59-.804.27-1.456.67-1.954 1.21-.489.53-.733 1.25-.733 2.17 0 1.25.463 2.19 1.389 2.84.937.63 2.123.94 3.558.94m33.392-15.51-3.238.91a6 6 0 0 0-.901-1.57c-.386-.52-.916-.95-1.588-1.28-.672-.34-1.532-.5-2.58-.5q-2.154 0-3.589.99-1.42.975-1.42 2.49c0 .89.326 1.6.977 2.12.652.52 1.67.95 3.054 1.3l3.482.85q3.146.765 4.688 2.34c1.028 1.04 1.542 2.38 1.542 4.01 0 1.35-.387 2.55-1.16 3.61-.764 1.06-1.833 1.89-3.207 2.5s-2.973.92-4.795.92q-3.588 0-5.94-1.56c-1.568-1.04-2.56-2.55-2.977-4.55l3.42-.85c.326 1.26.942 2.2 1.848 2.84.916.63 2.112.94 3.588.94 1.68 0 3.013-.35 4.001-1.07.997-.72 1.496-1.58 1.496-2.59 0-.82-.285-1.5-.855-2.05-.57-.56-1.445-.98-2.626-1.25l-3.909-.92c-2.148-.51-3.726-1.29-4.734-2.36q-1.497-1.62-1.497-4.05 0-1.98 1.115-3.51 1.13-1.53 3.069-2.4 1.955-.87 4.429-.87 3.482 0 5.466 1.53c1.334 1.02 2.281 2.36 2.841 4.03m8.478 18.44c-.753 0-1.4-.27-1.939-.8a2.65 2.65 0 0 1-.809-1.94c0-.76.269-1.4.809-1.94a2.64 2.64 0 0 1 1.939-.81q1.13 0 1.939.81c.54.54.81 1.18.81 1.94 0 .49-.128.95-.382 1.37-.244.42-.575.75-.993 1.01q-.61.36-1.374.36m0-17.4q-1.13 0-1.939-.81a2.65 2.65 0 0 1-.809-1.94c0-.76.269-1.4.809-1.94a2.64 2.64 0 0 1 1.939-.81q1.13 0 1.939.81c.54.54.81 1.18.81 1.94 0 .5-.128.95-.382 1.37-.244.42-.575.76-.993 1.01a2.66 2.66 0 0 1-1.374.37M933.736 673.913v3.36h-13.682v-3.36zM725.736 1994.91v3.36h-13.682v-3.36zM960.7 57.676h-6.688q-.183-1.298-.749-2.306a5.9 5.9 0 0 0-1.45-1.74 6.4 6.4 0 0 0-2.046-1.1 7.8 7.8 0 0 0-2.489-.382q-2.428 0-4.23 1.206-1.802 1.191-2.794 3.482-.993 2.276-.993 5.528 0 3.343.993 5.619 1.007 2.275 2.809 3.436 1.802 1.16 4.169 1.16 1.328 0 2.458-.351a6.5 6.5 0 0 0 2.031-1.023 5.9 5.9 0 0 0 1.466-1.665 6.5 6.5 0 0 0 .825-2.229l6.688.03a12.1 12.1 0 0 1-1.298 4.154 12.5 12.5 0 0 1-2.764 3.558q-1.726 1.557-4.123 2.474-2.382.9-5.39.9-4.184 0-7.482-1.893-3.284-1.894-5.192-5.482-1.893-3.588-1.894-8.688 0-5.116 1.924-8.704t5.223-5.467q3.298-1.893 7.421-1.893 2.718 0 5.039.763 2.337.764 4.138 2.23a11.5 11.5 0 0 1 2.932 3.557q1.145 2.108 1.466 4.826m11.124 6.764V78h-6.505V46.727h6.322v11.957h.275q.793-2.077 2.565-3.253 1.772-1.19 4.443-1.19 2.443 0 4.261 1.068 1.832 1.053 2.84 3.039 1.023 1.97 1.008 4.718V78h-6.505V64.227q.015-2.168-1.1-3.375-1.1-1.206-3.084-1.206-1.329 0-2.352.565-1.008.564-1.588 1.649-.565 1.068-.58 2.58M992.152 78V54.545h6.505V78zm3.268-26.478q-1.45 0-2.489-.962-1.023-.978-1.023-2.336 0-1.344 1.023-2.306 1.038-.977 2.489-.977t2.474.977q1.038.962 1.038 2.306 0 1.36-1.038 2.336-1.024.962-2.474.962m14.95-4.795V78h-6.5V46.727zm13.86 31.655c-1.79 0-3.4-.458-4.84-1.375q-2.16-1.389-3.42-4.077-1.26-2.701-1.26-6.627c0-2.687.44-4.922 1.3-6.703q1.305-2.687 3.45-4.016a8.86 8.86 0 0 1 4.75-1.344c1.31 0 2.41.224 3.28.672.89.438 1.6.987 2.14 1.65.55.65.97 1.292 1.25 1.923h.2V46.727h6.49V78h-6.41v-3.756h-.28q-.45.976-1.29 1.939-.825.946-2.16 1.573c-.87.417-1.94.626-3.2.626m2.06-5.177c1.05 0 1.93-.285 2.65-.855q1.11-.87 1.68-2.428.6-1.557.6-3.65c0-1.394-.19-2.605-.58-3.634q-.585-1.542-1.68-2.382t-2.67-.84q-1.605 0-2.7.87c-.74.581-1.29 1.385-1.67 2.414-.38 1.028-.56 2.219-.56 3.573 0 1.364.18 2.57.56 3.619.39 1.038.94 1.852 1.67 2.443q1.095.87 2.7.87m54.3-15.53h-6.69q-.18-1.297-.75-2.305a5.9 5.9 0 0 0-1.45-1.74 6.3 6.3 0 0 0-2.05-1.1 7.8 7.8 0 0 0-2.48-.382q-2.43 0-4.23 1.206c-1.21.794-2.14 1.955-2.8 3.482q-.99 2.276-.99 5.528 0 3.343.99 5.619c.67 1.517 1.61 2.662 2.81 3.436q1.8 1.16 4.17 1.16c.89 0 1.7-.117 2.46-.351a6.5 6.5 0 0 0 2.03-1.023 5.8 5.8 0 0 0 1.46-1.665c.4-.651.68-1.394.83-2.229l6.69.03c-.18 1.436-.61 2.82-1.3 4.154a12.4 12.4 0 0 1-2.76 3.558c-1.15 1.038-2.53 1.863-4.13 2.474-1.59.6-3.38.9-5.39.9-2.79 0-5.28-.63-7.48-1.893q-3.285-1.894-5.19-5.482-1.89-3.588-1.89-8.688 0-5.116 1.92-8.704t5.22-5.467c2.2-1.262 4.67-1.893 7.42-1.893q2.715 0 5.04.763 2.34.764 4.14 2.23c1.2.967 2.18 2.153 2.93 3.557.77 1.405 1.25 3.014 1.47 4.826M752.7 1378.68h-6.688q-.183-1.305-.749-2.31a5.9 5.9 0 0 0-1.45-1.74 6.3 6.3 0 0 0-2.046-1.1 8 8 0 0 0-2.489-.38q-2.428 0-4.23 1.2c-1.201.8-2.133 1.96-2.794 3.49-.662 1.51-.993 3.36-.993 5.52 0 2.23.331 4.11.993 5.62.671 1.52 1.608 2.67 2.809 3.44s2.591 1.16 4.169 1.16c.885 0 1.705-.12 2.458-.35a6.6 6.6 0 0 0 2.031-1.03 5.8 5.8 0 0 0 1.466-1.66c.397-.65.672-1.39.825-2.23l6.688.03a12.2 12.2 0 0 1-1.298 4.16c-.682 1.32-1.603 2.5-2.764 3.55-1.15 1.04-2.525 1.87-4.123 2.48q-2.382.9-5.39.9c-2.789 0-5.283-.63-7.482-1.9-2.189-1.26-3.92-3.09-5.192-5.48-1.262-2.39-1.894-5.29-1.894-8.69q0-5.115 1.924-8.7c1.283-2.39 3.024-4.21 5.223-5.47q3.298-1.89 7.421-1.89c1.812 0 3.492.25 5.039.76a12.9 12.9 0 0 1 4.138 2.23c1.201.97 2.179 2.16 2.932 3.56.763 1.41 1.252 3.01 1.466 4.83m11.124 6.76V1399h-6.505v-31.27h6.322v11.95h.275c.529-1.38 1.384-2.47 2.565-3.25 1.181-.79 2.662-1.19 4.443-1.19 1.629 0 3.049.36 4.261 1.07 1.221.7 2.168 1.71 2.84 3.04.682 1.31 1.018 2.88 1.008 4.72V1399h-6.505v-13.77c.01-1.45-.356-2.57-1.1-3.38q-1.1-1.2-3.084-1.2c-.886 0-1.67.18-2.352.56q-1.008.57-1.588 1.65-.565 1.065-.58 2.58m20.328 13.56v-23.45h6.505V1399zm3.268-26.48q-1.45 0-2.489-.96-1.023-.975-1.023-2.34c0-.89.341-1.66 1.023-2.3a3.51 3.51 0 0 1 2.489-.98c.967 0 1.791.33 2.474.98.692.64 1.038 1.41 1.038 2.3q0 1.365-1.038 2.34-1.024.96-2.474.96m14.953-4.79V1399h-6.505v-31.27zm13.853 31.65c-1.781 0-3.395-.46-4.84-1.37q-2.153-1.395-3.421-4.08-1.252-2.7-1.252-6.63c0-2.68.433-4.92 1.298-6.7q1.299-2.685 3.451-4.02a8.9 8.9 0 0 1 4.749-1.34c1.313 0 2.408.22 3.283.67q1.328.66 2.138 1.65c.55.65.967 1.29 1.252 1.93h.199v-11.76h6.489V1399h-6.413v-3.76h-.275c-.305.66-.738 1.3-1.298 1.94-.55.63-1.267 1.16-2.153 1.58-.875.41-1.944.62-3.207.62m2.062-5.17c1.048 0 1.934-.29 2.657-.86q1.1-.87 1.68-2.43c.397-1.04.595-2.25.595-3.65q0-2.085-.58-3.63c-.387-1.03-.947-1.82-1.68-2.38q-1.1-.84-2.672-.84-1.604 0-2.703.87c-.733.58-1.288 1.38-1.664 2.41q-.565 1.545-.565 3.57c0 1.37.188 2.57.565 3.62.387 1.04.941 1.85 1.664 2.44.733.59 1.634.88 2.703.88m54.3-15.53h-6.689q-.183-1.305-.748-2.31a5.9 5.9 0 0 0-1.45-1.74 6.3 6.3 0 0 0-2.047-1.1 8 8 0 0 0-2.489-.38q-2.427 0-4.229 1.2c-1.202.8-2.133 1.96-2.795 3.49-.661 1.51-.992 3.36-.992 5.52 0 2.23.331 4.11.992 5.62.672 1.52 1.609 2.67 2.81 3.44s2.591 1.16 4.169 1.16c.885 0 1.705-.12 2.458-.35.763-.24 1.44-.58 2.031-1.03a5.8 5.8 0 0 0 1.466-1.66c.397-.65.672-1.39.824-2.23l6.689.03a12.2 12.2 0 0 1-1.298 4.16c-.682 1.32-1.604 2.5-2.764 3.55-1.151 1.04-2.525 1.87-4.123 2.48q-2.382.9-5.39.9c-2.79 0-5.284-.63-7.483-1.9-2.188-1.26-3.919-3.09-5.191-5.48-1.263-2.39-1.894-5.29-1.894-8.69q0-5.115 1.924-8.7c1.283-2.39 3.024-4.21 5.222-5.47q3.298-1.89 7.422-1.89c1.812 0 3.491.25 5.039.76a12.9 12.9 0 0 1 4.138 2.23 11.6 11.6 0 0 1 2.932 3.56c.763 1.41 1.252 3.01 1.466 4.83M833.007 177.619l-12.748-5.877-5.878-12.749a4.51 4.51 0 0 0-4.113-2.647 4.52 4.52 0 0 0-4.114 2.647l-5.787 12.749-12.749 5.877a4.52 4.52 0 0 0 0 8.228l12.749 5.786 5.877 12.749a4.53 4.53 0 0 0 4.114 2.647 4.53 4.53 0 0 0 4.114-2.647l5.787-12.749 12.748-5.877c3.527-1.537 3.527-6.6 0-8.137M715.375 269.844c6.242 0 11.302-5.06 11.302-11.302s-5.06-11.302-11.302-11.302-11.302 5.06-11.302 11.302 5.06 11.302 11.302 11.302M769.625 269.844c6.242 0 11.302-5.06 11.302-11.302s-5.06-11.302-11.302-11.302-11.302 5.06-11.302 11.302 5.06 11.302 11.302 11.302"/><path fill="#fff" d="M810.312 220.567c-7.052 0-13.472-4.159-16.456-10.579l-3.707-8.138-8.137-3.707a18.2 18.2 0 0 1-10.579-16.455c0-5.968 3.074-11.393 7.866-14.738-11.211-4.973-23.689-7.867-36.799-7.867-49.91 0-90.417 40.507-90.417 90.417s40.507 90.417 90.417 90.417 90.416-40.507 90.416-90.417c0-13.11-2.893-25.588-7.866-36.8-3.345 4.793-8.77 7.867-14.738 7.867M742.5 321.833c-39.874 0-72.334-32.459-72.334-72.333 0-.452.091-.904 0-1.266 23.509-8.861 42.406-27.034 51.9-50.181a90.41 90.41 0 0 0 70.163 33.364c6.781 0 13.291-.814 19.62-2.17 1.899 6.419 2.984 13.201 2.984 20.253 0 39.874-32.46 72.333-72.333 72.333M1097.01 177.619l-12.75-5.877-5.88-12.749a4.525 4.525 0 0 0-6.56-1.928 4.53 4.53 0 0 0-1.67 1.928l-5.78 12.749-12.75 5.877a4.519 4.519 0 0 0 0 8.228l12.75 5.786 5.87 12.749a4.525 4.525 0 0 0 6.56 1.928 4.53 4.53 0 0 0 1.67-1.928l5.79-12.749 12.75-5.877c3.52-1.537 3.52-6.6 0-8.137M979.375 269.844c6.242 0 11.302-5.06 11.302-11.302s-5.06-11.302-11.302-11.302-11.302 5.06-11.302 11.302 5.06 11.302 11.302 11.302M1033.63 269.844c6.24 0 11.3-5.06 11.3-11.302s-5.06-11.302-11.3-11.302c-6.25 0-11.31 5.06-11.31 11.302s5.06 11.302 11.31 11.302"/><path fill="#fff" d="M1074.31 220.567c-7.05 0-13.47-4.159-16.45-10.579l-3.71-8.138-8.14-3.707a18.3 18.3 0 0 1-7.69-6.686 18.3 18.3 0 0 1-2.89-9.769c0-5.968 3.08-11.393 7.87-14.738-11.21-4.973-23.69-7.867-36.8-7.867-49.91 0-90.417 40.507-90.417 90.417s40.507 90.417 90.417 90.417 90.42-40.507 90.42-90.417c0-13.11-2.9-25.588-7.87-36.8-3.35 4.793-8.77 7.867-14.74 7.867m-67.81 101.266c-39.874 0-72.334-32.459-72.334-72.333 0-.452.091-.904 0-1.266 23.509-8.861 42.406-27.034 51.9-50.181a90.4 90.4 0 0 0 31.314 24.602 90.4 90.4 0 0 0 38.85 8.762c6.78 0 13.29-.814 19.62-2.17 1.9 6.419 2.98 13.201 2.98 20.253 0 39.874-32.46 72.333-72.33 72.333M889.007 1498.62l-12.748-5.88-5.878-12.75a4.44 4.44 0 0 0-1.668-1.92 4.51 4.51 0 0 0-4.891 0 4.44 4.44 0 0 0-1.668 1.92l-5.787 12.75-12.749 5.88a4.53 4.53 0 0 0-2.646 4.11 4.53 4.53 0 0 0 2.646 4.12l12.749 5.78 5.877 12.75a4.518 4.518 0 0 0 8.228 0l5.787-12.75 12.748-5.87c3.527-1.54 3.527-6.6 0-8.14M771.375 1590.84c6.242 0 11.302-5.06 11.302-11.3s-5.06-11.3-11.302-11.3-11.302 5.06-11.302 11.3 5.06 11.3 11.302 11.3M825.625 1590.84c6.242 0 11.302-5.06 11.302-11.3s-5.06-11.3-11.302-11.3-11.302 5.06-11.302 11.3 5.06 11.3 11.302 11.3"/><path fill="#fff" d="M866.312 1541.57c-7.052 0-13.472-4.16-16.456-10.58l-3.707-8.14-8.137-3.71a18.2 18.2 0 0 1-7.687-6.68 18.24 18.24 0 0 1-2.892-9.77c0-5.97 3.074-11.4 7.866-14.74-11.211-4.97-23.689-7.87-36.799-7.87-49.91 0-90.417 40.51-90.417 90.42s40.507 90.42 90.417 90.42 90.416-40.51 90.416-90.42c0-13.11-2.893-25.59-7.866-36.8-3.345 4.79-8.77 7.87-14.738 7.87M798.5 1642.83c-39.874 0-72.334-32.46-72.334-72.33 0-.45.091-.9 0-1.27 23.509-8.86 42.406-27.03 51.9-50.18a90.35 90.35 0 0 0 31.315 24.6 90.34 90.34 0 0 0 38.848 8.77c6.781 0 13.291-.82 19.62-2.17 1.899 6.42 2.984 13.2 2.984 20.25 0 39.87-32.46 72.33-72.333 72.33"/><path fill="#18181b" stroke="#fff" stroke-width="3" d="M181.012 605.129a.5.5 0 0 1 .853.151l29.561 81.391a.5.5 0 0 1-.558.663l-85.267-15.094a.5.5 0 0 1-.296-.814zM181.012 1920.13c.247-.3.721-.21.853.15l29.561 81.39a.498.498 0 0 1-.558.66l-85.267-15.09a.498.498 0 0 1-.296-.81z"/><path fill="#fff" d="M52.193 564v-4.099l9.579-8.869a36 36 0 0 0 2.05-2.129q.84-.946 1.274-1.853.433-.92.433-1.984 0-1.182-.538-2.036a3.53 3.53 0 0 0-1.472-1.327q-.933-.474-2.115-.473-1.236 0-2.155.499a3.44 3.44 0 0 0-1.42 1.432q-.498.933-.498 2.221h-5.4q0-2.641 1.195-4.586 1.196-1.944 3.35-3.009 2.156-1.064 4.967-1.064 2.891 0 5.032 1.025 2.156 1.011 3.35 2.812 1.197 1.8 1.197 4.125a7.9 7.9 0 0 1-.605 3.009q-.592 1.485-2.115 3.298-1.525 1.8-4.297 4.323l-3.928 3.85v.184h11.3V564zm42.657-20.182v4.205H82.696v-4.205zm-9.395-4.835h5.597v18.815q0 .775.237 1.209.236.42.657.591.434.171.998.171.394 0 .789-.066l.604-.118.88 4.165q-.42.132-1.182.303-.762.183-1.853.223-2.023.079-3.547-.539-1.512-.617-2.352-1.918t-.828-3.285zM98.495 564v-20.182h5.427v3.521h.21q.552-1.878 1.853-2.838 1.3-.972 2.996-.972.42 0 .906.053.486.052.854.144v4.967a7 7 0 0 0-1.09-.21 10 10 0 0 0-1.275-.092q-1.235 0-2.207.538a3.96 3.96 0 0 0-1.524 1.472q-.552.946-.552 2.181V564zm15.14 0v-20.182h5.598V564zm2.812-22.783q-1.248 0-2.142-.828-.88-.841-.88-2.01 0-1.157.88-1.984a3.02 3.02 0 0 1 2.142-.841q1.248 0 2.129.841.893.827.893 1.984 0 1.168-.893 2.01-.88.828-2.129.828m13.024 23.164q-1.931 0-3.442-.67-1.512-.684-2.392-2.01-.867-1.34-.867-3.338 0-1.682.618-2.825a5 5 0 0 1 1.682-1.839 8.1 8.1 0 0 1 2.417-1.051 18.5 18.5 0 0 1 2.865-.5 72 72 0 0 0 2.838-.341q1.077-.17 1.563-.499t.486-.973v-.079q0-1.248-.788-1.931-.776-.684-2.207-.683-1.512 0-2.405.67-.893.657-1.182 1.655l-5.177-.42q.394-1.839 1.55-3.18 1.156-1.353 2.983-2.076 1.839-.736 4.257-.736 1.681 0 3.219.395 1.55.393 2.746 1.222a5.9 5.9 0 0 1 1.905 2.128q.697 1.287.697 3.088V564h-5.309v-2.799h-.157a5.7 5.7 0 0 1-1.301 1.669q-.815.71-1.958 1.117-1.143.394-2.641.394m1.603-3.863q1.236 0 2.181-.486a3.87 3.87 0 0 0 1.485-1.34 3.46 3.46 0 0 0 .539-1.905v-2.142a3 3 0 0 1-.723.315q-.447.132-1.012.25-.564.105-1.13.197l-1.024.144a7 7 0 0 0-1.722.46q-.735.316-1.143.854-.407.526-.407 1.314 0 1.143.828 1.748.84.591 2.128.591m19.702-8.186V564h-5.597v-20.182h5.335v3.561h.236a5.64 5.64 0 0 1 2.247-2.786q1.577-1.038 3.824-1.038 2.102 0 3.665.92t2.431 2.628q.867 1.695.867 4.047V564h-5.597v-11.852q.013-1.852-.946-2.89-.959-1.051-2.641-1.051-1.13 0-1.997.486-.854.486-1.34 1.419-.474.92-.487 2.22m26.512 19.657q-2.72 0-4.664-.749-1.932-.736-3.075-2.011-1.143-1.274-1.485-2.864l5.177-.696q.237.604.749 1.13.513.525 1.354.841.853.328 2.076.328 1.826 0 3.008-.893 1.196-.88 1.196-2.957v-3.692h-.236a5.3 5.3 0 0 1-1.104 1.59q-.736.749-1.892 1.222-1.157.473-2.759.473-2.274 0-4.139-1.051-1.853-1.065-2.957-3.246-1.09-2.194-1.09-5.544 0-3.43 1.117-5.729t2.969-3.442a7.67 7.67 0 0 1 4.086-1.144q1.695 0 2.839.579 1.143.564 1.839 1.419.71.84 1.091 1.655h.21v-3.39h5.558v20.379q0 2.575-1.262 4.31t-3.495 2.601q-2.22.88-5.111.881m.118-12.483q1.354 0 2.287-.67.945-.683 1.445-1.944.513-1.275.512-3.049 0-1.773-.499-3.074-.5-1.314-1.445-2.037t-2.3-.722q-1.38 0-2.325.749-.946.735-1.432 2.049-.487 1.314-.487 3.035 0 1.748.487 3.022.498 1.262 1.432 1.958.946.684 2.325.683m19.801-22.415V564h-5.597v-26.909zm13.681 27.303q-3.114 0-5.36-1.261-2.234-1.275-3.443-3.6-1.209-2.34-1.209-5.532 0-3.114 1.209-5.466t3.403-3.666q2.208-1.314 5.177-1.314 1.997 0 3.718.644a8.25 8.25 0 0 1 3.022 1.905q1.302 1.275 2.024 3.206.722 1.918.722 4.494v1.537H203.11v-3.468h11.773q0-1.209-.526-2.142a3.77 3.77 0 0 0-1.458-1.459q-.92-.538-2.142-.538-1.275 0-2.26.591a4.15 4.15 0 0 0-1.524 1.563 4.4 4.4 0 0 0-.565 2.168v3.298q0 1.498.552 2.589a4.04 4.04 0 0 0 1.59 1.682q1.024.591 2.43.591.934 0 1.708-.263.776-.263 1.327-.788.552-.526.841-1.288l5.177.342a7.06 7.06 0 0 1-1.616 3.258q-1.209 1.38-3.127 2.155-1.905.762-4.402.762m29.708-14.821-5.124.315a2.66 2.66 0 0 0-.565-1.182 3 3 0 0 0-1.143-.854q-.697-.329-1.669-.329-1.301 0-2.194.552-.894.538-.894 1.446 0 .722.578 1.222.579.499 1.984.801l3.653.736q2.943.605 4.389 1.944 1.445 1.341 1.445 3.522 0 1.983-1.169 3.482-1.156 1.498-3.18 2.338-2.01.828-4.638.828-4.007 0-6.386-1.669-2.365-1.682-2.772-4.572l5.505-.289q.249 1.223 1.209 1.866.959.63 2.457.63 1.471 0 2.365-.565.906-.578.92-1.484-.014-.762-.644-1.249-.631-.498-1.945-.762l-3.495-.696q-2.957-.59-4.401-2.05-1.433-1.458-1.433-3.718 0-1.944 1.052-3.351 1.064-1.405 2.982-2.168 1.932-.762 4.52-.762 3.824 0 6.018 1.617 2.207 1.616 2.575 4.401M52.193 1879v-4.1l9.579-8.87q1.22-1.185 2.05-2.13c.56-.63.985-1.25 1.274-1.85q.433-.915.433-1.98 0-1.185-.538-2.04c-.36-.58-.85-1.02-1.472-1.33s-1.327-.47-2.115-.47c-.824 0-1.542.17-2.155.5a3.43 3.43 0 0 0-1.42 1.43q-.498.93-.498 2.22h-5.4c0-1.76.398-3.29 1.195-4.58.797-1.3 1.914-2.3 3.35-3.01s3.093-1.07 4.967-1.07c1.927 0 3.605.34 5.032 1.03 1.437.67 2.554 1.61 3.35 2.81.798 1.2 1.197 2.57 1.197 4.13q0 1.515-.605 3-.592 1.485-2.115 3.3-1.525 1.8-4.297 4.32l-3.928 3.85v.19h11.3v4.65zm42.657-20.18v4.2H82.696v-4.2zm-9.395-4.84h5.597v18.82c0 .52.08.92.237 1.21.157.28.376.47.657.59.289.11.622.17.998.17a4 4 0 0 0 .789-.07c.262-.05.464-.09.604-.11l.88 4.16q-.42.135-1.182.3c-.508.13-1.126.2-1.853.23q-2.023.075-3.547-.54-1.512-.615-2.352-1.92c-.56-.87-.837-1.96-.828-3.29zm13.04 25.02v-20.18h5.427v3.52h.21c.368-1.25.986-2.2 1.853-2.84.867-.65 1.866-.97 2.996-.97.28 0 .582.02.906.05.324.04.609.08.854.15v4.96a7 7 0 0 0-1.09-.21q-.696-.09-1.275-.09-1.235 0-2.207.54-.96.525-1.524 1.47c-.368.63-.552 1.36-.552 2.18V1879zm15.14 0v-20.18h5.598V1879zm2.812-22.78c-.832 0-1.546-.28-2.142-.83q-.88-.84-.88-2.01c0-.77.293-1.43.88-1.99q.894-.84 2.142-.84t2.129.84c.595.56.893 1.22.893 1.99q0 1.17-.893 2.01c-.587.55-1.297.83-2.129.83m13.024 23.16c-1.287 0-2.435-.22-3.442-.67a5.47 5.47 0 0 1-2.392-2.01c-.578-.89-.867-2.01-.867-3.34q0-1.68.618-2.82c.412-.76.972-1.38 1.682-1.84a7.9 7.9 0 0 1 2.417-1.05c.911-.24 1.866-.41 2.865-.5 1.173-.12 2.119-.24 2.838-.34.718-.12 1.239-.28 1.563-.5s.486-.55.486-.97v-.08c0-.84-.262-1.48-.788-1.94-.517-.45-1.253-.68-2.207-.68-1.008 0-1.809.23-2.405.67s-.99.99-1.182 1.66l-5.177-.42q.394-1.845 1.55-3.18c.771-.91 1.765-1.6 2.983-2.08 1.226-.49 2.645-.73 4.257-.73q1.681 0 3.219.39c1.034.26 1.949.67 2.746 1.22a5.9 5.9 0 0 1 1.905 2.13q.697 1.29.697 3.09V1879h-5.309v-2.8h-.157a5.7 5.7 0 0 1-1.301 1.67c-.543.47-1.196.85-1.958 1.12q-1.143.39-2.641.39m1.603-3.86c.824 0 1.551-.16 2.181-.49a3.84 3.84 0 0 0 1.485-1.34c.359-.56.539-1.19.539-1.9v-2.15c-.175.12-.416.22-.723.32-.298.09-.635.17-1.012.25-.376.07-.753.14-1.13.2-.376.05-.718.1-1.024.14-.657.1-1.231.25-1.722.46s-.871.5-1.143.86c-.271.35-.407.78-.407 1.31 0 .76.276 1.34.828 1.75.56.39 1.27.59 2.128.59m19.702-8.19V1879h-5.597v-20.18h5.335v3.56h.236a5.7 5.7 0 0 1 2.247-2.79c1.051-.69 2.326-1.03 3.824-1.03 1.401 0 2.623.3 3.665.92 1.043.61 1.853 1.48 2.431 2.62q.867 1.695.867 4.05V1879h-5.597v-11.85c.009-1.24-.307-2.2-.946-2.89q-.959-1.05-2.641-1.05-1.13 0-1.997.48c-.57.33-1.016.8-1.34 1.42q-.474.93-.487 2.22m26.512 19.66q-2.72 0-4.664-.75-1.932-.735-3.075-2.01c-.762-.85-1.257-1.81-1.485-2.86l5.177-.7c.158.4.408.78.749 1.13q.513.525 1.354.84.853.33 2.076.33 1.826 0 3.008-.9c.798-.58 1.196-1.57 1.196-2.95v-3.69h-.236a5.4 5.4 0 0 1-1.104 1.59c-.491.5-1.121.9-1.892 1.22-.771.31-1.691.47-2.759.47q-2.274 0-4.139-1.05c-1.235-.71-2.221-1.79-2.957-3.25-.727-1.46-1.09-3.31-1.09-5.54q0-3.435 1.117-5.73c.744-1.53 1.734-2.68 2.969-3.44a7.7 7.7 0 0 1 4.086-1.14q1.695 0 2.839.57c.762.38 1.375.85 1.839 1.42.473.56.837 1.12 1.091 1.66h.21v-3.39h5.558v20.38c0 1.71-.421 3.15-1.262 4.31-.841 1.15-2.006 2.02-3.495 2.6-1.48.59-3.184.88-5.111.88m.118-12.48c.903 0 1.665-.23 2.287-.67q.945-.69 1.445-1.95c.342-.85.512-1.86.512-3.05 0-1.18-.166-2.2-.499-3.07q-.5-1.32-1.445-2.04t-2.3-.72q-1.38 0-2.325.75c-.631.49-1.108 1.17-1.432 2.05-.325.87-.487 1.89-.487 3.03q0 1.755.487 3.03.498 1.26 1.432 1.95.946.69 2.325.69m19.801-22.42V1879h-5.597v-26.91zm13.681 27.3q-3.114 0-5.36-1.26-2.234-1.275-3.443-3.6c-.806-1.56-1.209-3.4-1.209-5.53 0-2.07.403-3.9 1.209-5.46.806-1.57 1.94-2.79 3.403-3.67 1.472-.88 3.197-1.31 5.177-1.31 1.331 0 2.571.21 3.718.64a8.2 8.2 0 0 1 3.022 1.9q1.302 1.275 2.024 3.21c.482 1.28.722 2.78.722 4.49v1.54H203.11v-3.47h11.773c0-.8-.176-1.52-.526-2.14a3.8 3.8 0 0 0-1.458-1.46q-.92-.54-2.142-.54c-.85 0-1.603.2-2.26.59-.648.39-1.156.91-1.524 1.57a4.4 4.4 0 0 0-.565 2.17v3.29c0 1 .184 1.87.552 2.59q.564 1.095 1.59 1.68 1.024.6 2.43.6a5.2 5.2 0 0 0 1.708-.27c.517-.17.96-.43 1.327-.79.368-.35.649-.77.841-1.28l5.177.34a7.1 7.1 0 0 1-1.616 3.26c-.806.92-1.848 1.64-3.127 2.15-1.27.51-2.737.76-4.402.76m29.708-14.82-5.124.32a2.63 2.63 0 0 0-.565-1.18 3 3 0 0 0-1.143-.86q-.697-.33-1.669-.33c-.867 0-1.599.19-2.194.56-.596.35-.894.84-.894 1.44 0 .48.193.89.578 1.22.386.34 1.047.6 1.984.8l3.653.74c1.962.4 3.425 1.05 4.389 1.94.963.9 1.445 2.07 1.445 3.53q0 1.98-1.169 3.48-1.156 1.5-3.18 2.34c-1.34.55-2.886.82-4.638.82-2.672 0-4.8-.55-6.386-1.66-1.577-1.13-2.501-2.65-2.772-4.58l5.505-.29c.166.82.569 1.44 1.209 1.87q.959.63 2.457.63c.981 0 1.769-.19 2.365-.56.604-.39.911-.88.92-1.49-.009-.51-.224-.92-.644-1.25s-1.069-.58-1.945-.76l-3.495-.7c-1.971-.39-3.438-1.07-4.401-2.05-.955-.97-1.433-2.21-1.433-3.71 0-1.3.351-2.42 1.052-3.35.709-.94 1.703-1.66 2.982-2.17 1.288-.51 2.794-.76 4.52-.76 2.549 0 4.555.53 6.018 1.61 1.471 1.08 2.33 2.55 2.575 4.4"/><path fill="#18181b" stroke="#fff" stroke-width="3" d="M127.387 595.881a.5.5 0 0 1 .81-.308l67.158 54.664a.501.501 0 0 1-.138.856l-80.919 30.828a.501.501 0 0 1-.673-.547zM127.387 1910.88a.502.502 0 0 1 .81-.31l67.158 54.67c.298.24.221.72-.138.85l-80.919 30.83a.502.502 0 0 1-.673-.55z"/><path fill="#fff" d="M268.175 1713.09V1740h-5.689v-21.51h-.158l-6.162 3.86v-5.04l6.662-4.22zm31.804 12.48-5.125.32a2.6 2.6 0 0 0-.565-1.18 3 3 0 0 0-1.143-.86q-.696-.33-1.668-.33c-.868 0-1.599.19-2.195.56-.595.35-.893.84-.893 1.44 0 .48.193.89.578 1.22.385.34 1.047.6 1.984.8l3.653.74c1.962.4 3.425 1.05 4.388 1.94.964.9 1.446 2.07 1.446 3.53q0 1.98-1.17 3.48-1.157 1.5-3.18 2.34c-1.34.55-2.886.82-4.638.82-2.671 0-4.8-.55-6.385-1.66-1.577-1.13-2.501-2.65-2.773-4.58l5.506-.29c.166.82.569 1.44 1.208 1.87q.96.63 2.457.63c.982 0 1.77-.19 2.366-.56.604-.39.911-.88.919-1.49-.008-.51-.223-.92-.644-1.25-.42-.33-1.068-.58-1.944-.76l-3.495-.7c-1.971-.39-3.438-1.07-4.402-2.05-.955-.97-1.432-2.21-1.432-3.71 0-1.3.35-2.42 1.051-3.35.71-.94 1.704-1.66 2.983-2.17 1.287-.51 2.794-.76 4.52-.76 2.549 0 4.555.53 6.017 1.61 1.472 1.08 2.33 2.55 2.576 4.4m14.719-5.75v4.2h-12.154v-4.2zm-9.395-4.84h5.598v18.82c0 .52.078.92.236 1.21.158.28.377.47.657.59.289.11.622.17.999.17.262 0 .525-.02.788-.07s.464-.09.604-.11l.881 4.16q-.421.135-1.183.3c-.508.13-1.125.2-1.852.23q-2.024.075-3.548-.54-1.51-.615-2.352-1.92c-.56-.87-.836-1.96-.828-3.29zm18.796 25.4c-1.288 0-2.435-.22-3.442-.67a5.47 5.47 0 0 1-2.392-2.01c-.578-.89-.867-2.01-.867-3.34q0-1.68.618-2.82c.411-.76.972-1.38 1.681-1.84q1.065-.705 2.418-1.05a17.3 17.3 0 0 1 2.864-.5c1.174-.12 2.12-.24 2.838-.34.719-.12 1.24-.28 1.564-.5s.486-.55.486-.97v-.08c0-.84-.263-1.48-.788-1.94-.517-.45-1.253-.68-2.208-.68-1.007 0-1.808.23-2.404.67s-.99.99-1.183 1.66l-5.176-.42q.393-1.845 1.55-3.18c.771-.91 1.765-1.6 2.983-2.08 1.226-.49 2.645-.73 4.257-.73q1.682 0 3.219.39c1.033.26 1.949.67 2.746 1.22a5.9 5.9 0 0 1 1.905 2.13q.696 1.29.696 3.09V1740h-5.308v-2.8h-.158a5.7 5.7 0 0 1-1.3 1.67c-.543.47-1.196.85-1.958 1.12q-1.143.39-2.641.39m1.603-3.86c.823 0 1.55-.16 2.181-.49a3.84 3.84 0 0 0 1.485-1.34c.359-.56.539-1.19.539-1.9v-2.15c-.176.12-.417.22-.723.32-.298.09-.635.17-1.012.25-.377.07-.753.14-1.13.2-.376.05-.718.1-1.025.14-.657.1-1.23.25-1.721.46-.49.21-.871.5-1.143.86-.272.35-.407.78-.407 1.31 0 .76.276 1.34.827 1.75.561.39 1.271.59 2.129.59m14.105 3.48v-20.18h5.426v3.52h.211c.368-1.25.985-2.2 1.852-2.84.867-.65 1.866-.97 2.996-.97a10 10 0 0 1 .907.05c.324.04.608.08.854.15v4.96a7 7 0 0 0-1.091-.21q-.696-.09-1.274-.09-1.236 0-2.208.54a3.97 3.97 0 0 0-1.524 1.47c-.368.63-.552 1.36-.552 2.18V1740zM138.102 1676.09V1703h-5.69v-21.51h-.157l-6.163 3.86v-5.04l6.662-4.22zm24.13 27.3c-2.068 0-3.846-.43-5.335-1.31-1.48-.88-2.619-2.11-3.416-3.68-.788-1.57-1.183-3.37-1.183-5.41 0-2.07.399-3.88 1.196-5.44.806-1.57 1.949-2.79 3.429-3.67q2.221-1.32 5.282-1.32c1.761 0 3.303.32 4.625.95q1.984.96 3.141 2.7c.77 1.15 1.195 2.51 1.274 4.07h-5.282q-.223-1.515-1.182-2.43-.947-.93-2.484-.93c-.867 0-1.625.23-2.273.71-.639.46-1.138 1.14-1.498 2.03-.359.9-.538 1.98-.538 3.25 0 1.29.175 2.38.525 3.28.359.91.863 1.59 1.511 2.07.648.47 1.406.71 2.273.71.64 0 1.214-.14 1.722-.4q.774-.39 1.274-1.14.513-.765.67-1.83h5.282q-.131 2.31-1.261 4.08-1.117 1.74-3.088 2.73c-1.314.66-2.869.98-4.664.98m12.597-.39v-20.18h5.597V1703zm2.812-22.78c-.832 0-1.546-.28-2.142-.83q-.88-.84-.88-2.01c0-.77.293-1.43.88-1.99q.894-.84 2.142-.84t2.128.84c.596.56.894 1.22.894 1.99q0 1.17-.894 2.01c-.587.55-1.296.83-2.128.83m7.269 22.78v-20.18h5.426v3.52h.211c.368-1.25.985-2.2 1.852-2.84.867-.65 1.866-.97 2.996-.97.28 0 .583.02.907.05.324.04.608.08.854.15v4.96a7 7 0 0 0-1.091-.21q-.696-.09-1.274-.09-1.236 0-2.208.54a3.97 3.97 0 0 0-1.524 1.47c-.368.63-.552 1.36-.552 2.18V1703zm23.319.39c-2.067 0-3.846-.43-5.335-1.31-1.48-.88-2.619-2.11-3.416-3.68-.788-1.57-1.183-3.37-1.183-5.41 0-2.07.399-3.88 1.196-5.44.806-1.57 1.949-2.79 3.429-3.67q2.222-1.32 5.282-1.32c1.761 0 3.303.32 4.625.95q1.985.96 3.141 2.7c.771 1.15 1.195 2.51 1.274 4.07h-5.282q-.224-1.515-1.182-2.43-.946-.93-2.484-.93c-.867 0-1.624.23-2.273.71-.639.46-1.138 1.14-1.498 2.03-.359.9-.538 1.98-.538 3.25 0 1.29.175 2.38.525 3.28.359.91.863 1.59 1.511 2.07.649.47 1.406.71 2.273.71.64 0 1.214-.14 1.722-.4q.774-.39 1.274-1.14.513-.765.67-1.83h5.282q-.131 2.31-1.261 4.08-1.117 1.74-3.088 2.73c-1.314.66-2.869.98-4.664.98m18.194-27.3V1703h-5.597v-26.91zm13.681 27.3q-3.113 0-5.36-1.26-2.234-1.275-3.443-3.6c-.806-1.56-1.209-3.4-1.209-5.53 0-2.07.403-3.9 1.209-5.46.806-1.57 1.94-2.79 3.403-3.67 1.472-.88 3.197-1.31 5.177-1.31 1.332 0 2.571.21 3.718.64a8.2 8.2 0 0 1 3.022 1.9q1.302 1.275 2.024 3.21c.482 1.28.723 2.78.723 4.49v1.54h-17.042v-3.47h11.773c0-.8-.175-1.52-.526-2.14a3.8 3.8 0 0 0-1.458-1.46q-.92-.54-2.142-.54c-.85 0-1.603.2-2.26.59-.648.39-1.156.91-1.524 1.57a4.4 4.4 0 0 0-.565 2.17v3.29c0 1 .184 1.87.552 2.59q.564 1.095 1.59 1.68 1.024.6 2.43.6a5.2 5.2 0 0 0 1.709-.27c.516-.17.959-.43 1.327-.79.367-.35.648-.77.84-1.28l5.177.34a7.1 7.1 0 0 1-1.616 3.26c-.806.92-1.848 1.64-3.127 2.15-1.27.51-2.737.76-4.402.76"/><path stroke="#fff" stroke-width="3" d="M324.902 1793.21c.069 1.08.826 2 1.875 2.27l31.166 7.98-29.904 11.86a2.5 2.5 0 0 0-1.573 2.48l2.042 32.11-20.524-24.78-.135-.15a2.48 2.48 0 0 0-2.521-.64l-.191.06-29.903 11.87 17.219-27.18c.58-.91.504-2.1-.186-2.93l-20.523-24.77 31.165 7.98a2.51 2.51 0 0 0 2.732-1.09l17.219-27.17z"/><path fill="#fff" d="M377.455 1004.84a6.8 6.8 0 0 0-.901-1.97 5.6 5.6 0 0 0-1.42-1.47 6 6 0 0 0-1.894-.93c-.702-.22-1.481-.32-2.336-.32-1.598 0-3.003.4-4.215 1.19-1.201.79-2.138 1.95-2.809 3.47q-1.008 2.25-1.008 5.52c0 2.18.331 4.03.992 5.56.662 1.53 1.599 2.69 2.81 3.5 1.211.79 2.642 1.19 4.291 1.19 1.496 0 2.774-.27 3.833-.79q1.602-.81 2.443-2.28c.57-.98.855-2.13.855-3.47l1.344.2h-8.063v-4.98h13.086v3.94c0 2.75-.58 5.11-1.74 7.09a11.9 11.9 0 0 1-4.795 4.55q-3.054 1.59-6.994 1.59c-2.932 0-5.507-.65-7.726-1.94-2.219-1.3-3.95-3.15-5.192-5.54-1.232-2.41-1.848-5.26-1.848-8.56q0-3.795 1.1-6.78c.743-1.99 1.781-3.681 3.115-5.065a13.45 13.45 0 0 1 4.657-3.161q2.656-1.084 5.757-1.084 2.657 0 4.947.778 2.29.764 4.062 2.169a11.8 11.8 0 0 1 2.917 3.343c.753 1.28 1.237 2.7 1.45 4.25zm13.323 21.16v-23.45h6.504V1026zm3.267-26.478q-1.45 0-2.489-.962-1.023-.977-1.023-2.336 0-1.344 1.023-2.306 1.039-.978 2.489-.977 1.45 0 2.474.977 1.038.962 1.038 2.306 0 1.358-1.038 2.336-1.023.962-2.474.962m30.315 3.028-8.2 23.45h-7.33l-8.2-23.45h6.872l4.871 16.78h.244l4.856-16.78zm13.262 23.91q-3.62 0-6.23-1.47c-1.731-.99-3.065-2.38-4.001-4.18-.937-1.81-1.405-3.96-1.405-6.43 0-2.41.468-4.53 1.405-6.35q1.404-2.73 3.955-4.26 2.565-1.53 6.016-1.53 2.32 0 4.322.75a9.6 9.6 0 0 1 3.512 2.21c1.007.99 1.791 2.23 2.351 3.73.56 1.48.84 3.23.84 5.22v1.79h-19.805v-4.03h13.682q0-1.41-.611-2.49a4.36 4.36 0 0 0-1.695-1.7c-.713-.42-1.542-.62-2.489-.62-.987 0-1.863.22-2.626.68a4.87 4.87 0 0 0-1.772 1.82q-.64 1.125-.656 2.52v3.83c0 1.16.213 2.17.641 3.01.438.85 1.054 1.5 1.848 1.96.794.45 1.735.68 2.825.68q1.083 0 1.985-.3c.6-.21 1.114-.51 1.542-.92q.641-.615.977-1.5l6.017.4a8.2 8.2 0 0 1-1.879 3.79c-.936 1.07-2.148 1.9-3.634 2.5-1.476.59-3.181.89-5.115.89m-70.429 52q-3.603 0-6.199-1.53c-1.721-1.03-3.044-2.45-3.971-4.27-.916-1.83-1.374-3.92-1.374-6.3 0-2.4.463-4.51 1.39-6.32q1.404-2.73 3.985-4.26c1.721-1.03 3.767-1.54 6.139-1.54q3.068 0 5.375 1.11c1.537.75 2.753 1.79 3.649 3.14.896 1.34 1.39 2.92 1.481 4.73h-6.138c-.173-1.17-.631-2.11-1.374-2.83q-1.1-1.08-2.886-1.08c-1.008 0-1.889.27-2.642.82q-1.115.81-1.741 2.37c-.417 1.04-.626 2.3-.626 3.77 0 1.5.204 2.77.611 3.82q.626 1.575 1.756 2.4c.753.55 1.634.82 2.642.82.743 0 1.409-.15 2-.46q.901-.45 1.481-1.32.596-.885.779-2.13h6.138q-.152 2.685-1.466 4.74c-.865 1.35-2.061 2.41-3.588 3.17-1.527.77-3.334 1.15-5.421 1.15m21.145-14.02V1078h-6.505v-31.27h6.322v11.95h.275c.529-1.38 1.384-2.47 2.565-3.25 1.181-.79 2.662-1.19 4.444-1.19 1.628 0 3.049.36 4.26 1.07 1.222.7 2.168 1.71 2.84 3.04.682 1.31 1.018 2.88 1.008 4.72V1078h-6.505v-13.77c.01-1.45-.356-2.57-1.099-3.38q-1.1-1.2-3.085-1.2c-.886 0-1.669.18-2.352.56q-1.007.57-1.588 1.65-.564 1.065-.58 2.58m20.328 13.56v-23.45h6.505V1078zm3.268-26.48q-1.45 0-2.489-.96-1.023-.975-1.023-2.34c0-.89.341-1.66 1.023-2.3a3.51 3.51 0 0 1 2.489-.98c.967 0 1.792.33 2.474.98.692.64 1.038 1.41 1.038 2.3q0 1.365-1.038 2.34-1.023.96-2.474.96m14.953-4.79V1078h-6.505v-31.27zm13.854 31.65c-1.782 0-3.395-.46-4.841-1.37q-2.153-1.395-3.42-4.08-1.253-2.7-1.253-6.63c0-2.68.433-4.92 1.298-6.7q1.299-2.685 3.451-4.02a8.9 8.9 0 0 1 4.749-1.34c1.314 0 2.408.22 3.283.67q1.33.66 2.138 1.65c.55.65.967 1.29 1.252 1.93h.199v-11.76h6.489V1078h-6.413v-3.76h-.275c-.305.66-.738 1.3-1.298 1.94-.549.63-1.267 1.16-2.153 1.58-.875.41-1.944.62-3.206.62m2.061-5.17c1.049 0 1.934-.29 2.657-.86q1.1-.87 1.68-2.43c.397-1.04.595-2.25.595-3.65q0-2.085-.58-3.63c-.387-1.03-.947-1.82-1.68-2.38q-1.099-.84-2.672-.84-1.603 0-2.703.87c-.733.58-1.288 1.38-1.664 2.41q-.565 1.545-.565 3.57c0 1.37.188 2.57.565 3.62.387 1.04.941 1.85 1.664 2.44.733.59 1.634.88 2.703.88m32.097 4.79h-7.085l10.796-31.27h8.521l10.78 31.27h-7.085l-7.834-24.13h-.244zm-.443-12.29h16.736v5.16h-16.736zM633.284 1026.44q-2.244 0-4.001-.78c-1.17-.53-2.097-1.3-2.779-2.33-.672-1.04-1.008-2.33-1.008-3.88 0-1.3.24-2.4.718-3.28a5.8 5.8 0 0 1 1.955-2.14 9.3 9.3 0 0 1 2.809-1.22c1.059-.28 2.169-.47 3.329-.58 1.364-.15 2.464-.28 3.298-.4.835-.13 1.441-.33 1.818-.58.376-.26.565-.63.565-1.13v-.09q0-1.455-.917-2.25c-.6-.53-1.455-.79-2.565-.79q-1.756 0-2.794.78-1.04.765-1.375 1.92l-6.016-.49q.458-2.13 1.802-3.69c.896-1.05 2.051-1.85 3.466-2.41 1.425-.57 3.074-.86 4.948-.86 1.303 0 2.55.15 3.741.46a9.7 9.7 0 0 1 3.191 1.42 6.85 6.85 0 0 1 2.214 2.47c.54 1 .81 2.2.81 3.59V1026h-6.169v-3.25h-.184c-.376.73-.88 1.38-1.511 1.94q-.947.825-2.276 1.29c-.885.31-1.908.46-3.069.46m1.863-4.49c.957 0 1.802-.18 2.535-.56q1.1-.585 1.725-1.56c.418-.65.626-1.39.626-2.21v-2.49q-.305.195-.839.36c-.347.11-.739.2-1.176.29-.438.09-.876.16-1.313.23-.438.06-.835.12-1.192.17q-1.145.165-2 .54-.855.36-1.328.99c-.316.41-.474.91-.474 1.53 0 .88.321 1.56.962 2.03.652.45 1.476.68 2.474.68m45.859-12.72-5.955.37a3 3 0 0 0-.657-1.37c-.335-.42-.778-.75-1.328-1-.54-.25-1.186-.38-1.939-.38-1.008 0-1.858.22-2.55.64q-1.04.63-1.039 1.68c0 .56.224 1.04.672 1.42q.672.585 2.306.93l4.245.86c2.28.47 3.98 1.22 5.1 2.26s1.68 2.4 1.68 4.09q0 2.31-1.359 4.05c-.896 1.16-2.128 2.06-3.696 2.72q-2.336.96-5.39.96c-3.105 0-5.578-.65-7.421-1.94-1.832-1.3-2.906-3.08-3.222-5.32l6.398-.33c.194.95.662 1.67 1.405 2.17.743.49 1.695.73 2.855.73q1.711 0 2.749-.66c.702-.44 1.059-1.02 1.069-1.72-.01-.59-.26-1.08-.748-1.45-.489-.39-1.242-.68-2.26-.89l-4.062-.81c-2.291-.46-3.996-1.25-5.115-2.38q-1.665-1.695-1.665-4.32c0-1.51.407-2.81 1.222-3.89q1.237-1.635 3.466-2.52c1.496-.59 3.247-.89 5.253-.89 2.962 0 5.293.63 6.993 1.88 1.711 1.25 2.708 2.96 2.993 5.11m17.106-6.68v4.88h-14.124v-4.88zm-10.918-5.624h6.505v21.864q0 .9.275 1.41c.183.32.438.55.764.68.336.14.723.2 1.16.2.306 0 .611-.02.916-.07.306-.06.54-.11.703-.14l1.023 4.84c-.326.1-.784.22-1.374.35-.591.14-1.308.23-2.153.26q-2.352.09-4.123-.63c-1.171-.47-2.082-1.22-2.734-2.22-.651-1.01-.972-2.29-.962-3.82zm21.844 29.514q-2.244 0-4.001-.78c-1.17-.53-2.097-1.3-2.779-2.33-.672-1.04-1.008-2.33-1.008-3.88 0-1.3.24-2.4.718-3.28.478-.89 1.13-1.6 1.955-2.14a9.3 9.3 0 0 1 2.809-1.22c1.059-.28 2.169-.47 3.329-.58 1.364-.15 2.464-.28 3.298-.4.835-.13 1.441-.33 1.817-.58.377-.26.565-.63.565-1.13v-.09q0-1.455-.916-2.25c-.6-.53-1.455-.79-2.565-.79q-1.756 0-2.794.78-1.04.765-1.375 1.92l-6.016-.49q.458-2.13 1.802-3.69c.896-1.05 2.051-1.85 3.466-2.41 1.425-.57 3.074-.86 4.947-.86 1.304 0 2.551.15 3.742.46a9.7 9.7 0 0 1 3.191 1.42 6.85 6.85 0 0 1 2.214 2.47c.54 1 .809 2.2.809 3.59V1026h-6.169v-3.25h-.183c-.376.73-.88 1.38-1.512 1.94q-.946.825-2.275 1.29c-.885.31-1.908.46-3.069.46m1.863-4.49c.957 0 1.802-.18 2.535-.56q1.1-.585 1.725-1.56c.418-.65.626-1.39.626-2.21v-2.49q-.304.195-.84.36c-.346.11-.738.2-1.175.29s-.876.16-1.314.23c-.437.06-.834.12-1.191.17q-1.145.165-2 .54-.855.36-1.328.99c-.316.41-.474.91-.474 1.53 0 .88.321 1.56.962 2.03.652.45 1.476.68 2.474.68m16.392 4.05v-23.45h6.307v4.09h.244q.64-2.19 2.153-3.3c1.008-.75 2.168-1.13 3.482-1.13q.487 0 1.053.06c.377.04.708.1.993.17v5.77a9 9 0 0 0-1.268-.24c-.539-.07-1.033-.11-1.481-.11q-1.435 0-2.565.63-1.115.6-1.772 1.71c-.427.73-.641 1.57-.641 2.53V1026zm40.023-23.45v4.88h-14.125v-4.88zm-10.918-5.624h6.505v21.864q0 .9.274 1.41c.184.32.438.55.764.68.336.14.723.2 1.16.2.306 0 .611-.02.917-.07.305-.06.539-.11.702-.14l1.023 4.84c-.326.1-.784.22-1.374.35-.591.14-1.308.23-2.153.26q-2.352.09-4.123-.63c-1.171-.47-2.082-1.22-2.733-2.22-.652-1.01-.973-2.29-.962-3.82zm25.5 29.534c-2.372 0-4.423-.51-6.154-1.51-1.72-1.02-3.048-2.44-3.985-4.25-.936-1.82-1.405-3.93-1.405-6.34 0-2.42.469-4.54 1.405-6.35.937-1.82 2.265-3.24 3.985-4.24q2.596-1.53 6.154-1.53t6.139 1.53c1.73 1 3.064 2.42 4 4.24.937 1.81 1.405 3.93 1.405 6.35 0 2.41-.468 4.52-1.405 6.34-.936 1.81-2.27 3.23-4 4.25-1.721 1-3.767 1.51-6.139 1.51m.031-5.04c1.079 0 1.98-.31 2.703-.92.722-.62 1.267-1.46 1.633-2.53.377-1.07.565-2.29.565-3.65 0-1.37-.188-2.58-.565-3.65-.366-1.07-.911-1.91-1.633-2.54q-1.085-.93-2.703-.93-1.634 0-2.749.93c-.733.63-1.288 1.47-1.664 2.54-.367 1.07-.55 2.28-.55 3.65 0 1.36.183 2.58.55 3.65.376 1.07.931 1.91 1.664 2.53.743.61 1.66.92 2.749.92m-155.333 65.38v-32.25h6.413v3.94h.29c.285-.64.698-1.28 1.237-1.93q.825-.99 2.138-1.65c.886-.45 1.985-.67 3.298-.67 1.711 0 3.288.45 4.734 1.34q2.169 1.335 3.466 4.02c.866 1.78 1.298 4.02 1.298 6.7q0 3.93-1.267 6.63-1.252 2.685-3.421 4.08c-1.435.91-3.043 1.37-4.825 1.37-1.262 0-2.336-.21-3.222-.62-.875-.42-1.593-.95-2.153-1.58-.56-.64-.987-1.28-1.283-1.94h-.198v12.56zm6.367-20.53c0 1.4.194 2.61.581 3.65q.58 1.56 1.679 2.43c.733.57 1.624.86 2.673.86 1.058 0 1.954-.29 2.687-.88s1.288-1.4 1.665-2.44c.386-1.05.58-2.25.58-3.62q0-2.025-.565-3.57c-.377-1.03-.932-1.83-1.665-2.41q-1.1-.87-2.702-.87-1.589 0-2.688.84c-.723.56-1.277 1.35-1.664 2.38q-.58 1.545-.581 3.63m27.349-19.54V1078h-6.505v-31.27zm11.899 31.71q-2.245 0-4.001-.78c-1.171-.53-2.097-1.3-2.779-2.33-.672-1.04-1.008-2.33-1.008-3.88 0-1.3.239-2.4.718-3.28.478-.89 1.13-1.6 1.954-2.14a9.4 9.4 0 0 1 2.81-1.22c1.059-.28 2.168-.47 3.329-.58 1.364-.15 2.463-.28 3.298-.4.835-.13 1.441-.33 1.817-.58.377-.26.565-.63.565-1.13v-.09q0-1.455-.916-2.25c-.6-.53-1.456-.79-2.565-.79q-1.756 0-2.795.78-1.038.765-1.374 1.92l-6.016-.49q.458-2.13 1.802-3.69c.895-1.05 2.051-1.85 3.466-2.41 1.425-.57 3.074-.86 4.947-.86 1.303 0 2.55.15 3.741.46 1.202.3 2.265.78 3.192 1.42a6.9 6.9 0 0 1 2.214 2.47c.54 1 .809 2.2.809 3.59V1078h-6.169v-3.25h-.183a6.7 6.7 0 0 1-1.512 1.94q-.946.825-2.275 1.29c-.886.31-1.909.46-3.069.46m1.863-4.49c.957 0 1.802-.18 2.535-.56q1.1-.585 1.725-1.56c.417-.65.626-1.39.626-2.21v-2.49q-.304.195-.84.36c-.346.11-.738.2-1.175.29s-.876.16-1.314.23c-.437.06-.834.12-1.191.17q-1.145.165-2 .54-.855.36-1.329.99c-.315.41-.473.91-.473 1.53 0 .88.321 1.56.962 2.03.652.45 1.476.68 2.474.68m19.568 12.85c-.824 0-1.598-.07-2.321-.2-.712-.13-1.303-.28-1.771-.48l1.466-4.85c.763.23 1.45.36 2.061.38.621.02 1.156-.12 1.603-.43q.688-.45 1.115-1.56l.382-.99-8.414-24.12h6.841l4.856 17.22h.244l4.902-17.22h6.887l-9.116 25.98q-.657 1.905-1.787 3.3a7.3 7.3 0 0 1-2.825 2.19q-1.71.78-4.123.78m35.758-8.8-6.382-23.45h6.581l3.634 15.75h.214l3.787-15.75h6.459l3.848 15.66h.199l3.573-15.66h6.566l-6.368 23.45h-6.887l-4.031-14.75h-.29l-4.031 14.75zm31.949 0v-23.45h6.505V1078zm3.268-26.48q-1.451 0-2.489-.96-1.024-.975-1.024-2.34c0-.89.342-1.66 1.024-2.3a3.5 3.5 0 0 1 2.489-.98c.967 0 1.791.33 2.473.98.693.64 1.039 1.41 1.039 2.3q0 1.365-1.039 2.34-1.023.96-2.473.96m20.923 3.03v4.88h-14.125v-4.88zm-10.918-5.62h6.505v21.86q0 .9.275 1.41c.183.32.438.55.763.68.336.14.723.2 1.161.2.305 0 .611-.02.916-.07.306-.06.54-.11.703-.14l1.023 4.84c-.326.1-.784.22-1.375.35-.59.14-1.308.23-2.153.26q-2.351.09-4.123-.63c-1.17-.47-2.081-1.22-2.733-2.22-.651-1.01-.972-2.29-.962-3.82zm22.164 15.51V1078h-6.505v-31.27h6.322v11.95h.275c.529-1.38 1.384-2.47 2.565-3.25 1.181-.79 2.662-1.19 4.444-1.19 1.629 0 3.049.36 4.26 1.07 1.222.7 2.169 1.71 2.84 3.04.682 1.31 1.018 2.88 1.008 4.72V1078h-6.505v-13.77c.01-1.45-.356-2.57-1.099-3.38q-1.1-1.2-3.085-1.2c-.885 0-1.669.18-2.351.56q-1.009.57-1.588 1.65-.565 1.065-.581 2.58M575.464 1199.54a5.006 5.006 0 0 0 7.072 0l31.819-31.82a5.01 5.01 0 0 0 0-7.08 5.005 5.005 0 0 0-7.071 0L579 1188.93l-28.284-28.29a5.005 5.005 0 0 0-7.071 0 5.01 5.01 0 0 0 0 7.08zM579 889h-5v307h10V889z"/><path stroke="#0098d4" stroke-width="3" d="M1092.5 478.5c14.33 0 26 11.839 26 26.5s-11.67 26.5-26 26.5-26-11.839-26-26.5 11.67-26.5 26-26.5ZM884.5 1799.5c14.334 0 26 11.84 26 26.5s-11.666 26.5-26 26.5-26-11.84-26-26.5 11.666-26.5 26-26.5Z"/></svg>