<svg xmlns="http://www.w3.org/2000/svg" width="1389" height="774" fill="none" viewBox="0 0 1389 774"><path stroke="#4ed400" stroke-width="3" d="M690.5 473.5c14.334 0 26 11.839 26 26.5s-11.666 26.5-26 26.5-26-11.839-26-26.5 11.666-26.5 26-26.5Z"/><path stroke="#0098d4" stroke-width="3" d="M1361.5 481.5c14.33 0 26 11.839 26 26.5s-11.67 26.5-26 26.5-26-11.839-26-26.5 11.67-26.5 26-26.5ZM1105.5 481.5c14.33 0 26 11.839 26 26.5s-11.67 26.5-26 26.5-26-11.839-26-26.5 11.67-26.5 26-26.5Z"/><path stroke="#fff" stroke-width="3" d="M690.5 644.5c14.334 0 26 11.839 26 26.5s-11.666 26.5-26 26.5-26-11.839-26-26.5 11.666-26.5 26-26.5Z"/><path stroke="#0098d4" stroke-width="3" d="M1280.99 483.969a.5.5 0 0 1 .81-.308l37.3 30.365a.5.5 0 0 1-.14.855l-44.94 17.124a.506.506 0 0 1-.68-.546zM942.394 484.03a.5.5 0 0 1 .809-.309l37.533 30.551a.5.5 0 0 1-.137.855l-45.225 17.229a.5.5 0 0 1-.671-.547zM777.188 498.084a2.5 2.5 0 0 0 1.875 2.263l18.484 4.733-17.735 7.036a2.5 2.5 0 0 0-1.574 2.483l1.211 19.043-12.173-14.694-.135-.151a2.5 2.5 0 0 0-2.522-.646l-.19.067-17.737 7.036 10.214-16.117a2.5 2.5 0 0 0-.186-2.934l-12.173-14.693 18.484 4.733a2.5 2.5 0 0 0 2.732-1.084l10.214-16.119z"/><path stroke="#4ed400" stroke-width="3" d="M1039.19 498.084a2.495 2.495 0 0 0 1.87 2.263l18.49 4.733-17.74 7.036a2.505 2.505 0 0 0-1.57 2.483l1.21 19.043-12.17-14.694-.14-.151c-.65-.67-1.63-.92-2.52-.646l-.19.067-17.74 7.036 10.22-16.117c.58-.915.5-2.1-.19-2.934l-12.17-14.693 18.48 4.733a2.5 2.5 0 0 0 2.73-1.084l10.22-16.119z"/><path stroke="#fff" stroke-width="3" d="M969.25 669.084a2.5 2.5 0 0 0 1.875 2.263l18.484 4.733-17.735 7.036a2.5 2.5 0 0 0-1.573 2.483l1.211 19.043-12.173-14.694-.135-.151a2.5 2.5 0 0 0-2.522-.646l-.191.067-17.737 7.036 10.215-16.117c.579-.915.504-2.1-.187-2.934L936.61 662.51l18.484 4.733a2.5 2.5 0 0 0 2.732-1.084l10.214-16.119z"/><path fill="#18181b" stroke="#fff" stroke-width="3" d="M276.012 418.129a.5.5 0 0 1 .853.151l29.561 81.391a.5.5 0 0 1-.558.663l-85.267-15.094a.5.5 0 0 1-.296-.814z"/><path fill="#fff" d="M47.519 10.727h6.612v20.31q0 3.42-1.634 5.985-1.62 2.566-4.535 4-2.917 1.42-6.796 1.42-3.892 0-6.81-1.42-2.916-1.434-4.535-4t-1.619-5.986V10.727h6.612v19.744q0 1.787.779 3.176a5.7 5.7 0 0 0 2.23 2.184q1.435.794 3.343.794 1.925 0 3.345-.794a5.57 5.57 0 0 0 2.214-2.184q.794-1.39.794-3.176zm11.93 40.069v-32.25h6.413v3.94h.29q.427-.948 1.237-1.925.825-.992 2.138-1.65 1.328-.67 3.298-.67 2.565 0 4.733 1.343 2.169 1.328 3.467 4.016 1.298 2.672 1.298 6.703 0 3.925-1.268 6.627-1.252 2.688-3.42 4.078-2.154 1.374-4.825 1.374-1.895 0-3.222-.626-1.314-.627-2.153-1.573-.84-.962-1.283-1.94h-.199v12.552zm6.367-20.523q0 2.09.58 3.65.58 1.557 1.68 2.427 1.1.855 2.672.855 1.588 0 2.688-.87 1.099-.886 1.664-2.443.58-1.573.58-3.62 0-2.03-.565-3.572-.564-1.543-1.664-2.413t-2.703-.87q-1.588 0-2.687.84-1.085.84-1.665 2.381-.58 1.543-.58 3.635m29.486 12.109q-2.672 0-4.84-1.374-2.154-1.39-3.42-4.078-1.254-2.702-1.253-6.627 0-4.031 1.298-6.703 1.298-2.688 3.45-4.016a8.84 8.84 0 0 1 4.75-1.344q1.97 0 3.283.672 1.328.656 2.138 1.65.824.976 1.252 1.923h.198V10.727h6.49V42h-6.413v-3.756h-.275q-.458.976-1.298 1.939-.825.946-2.153 1.573-1.314.626-3.207.626m2.061-5.177q1.574 0 2.658-.855 1.098-.87 1.679-2.428.596-1.557.596-3.65 0-2.091-.581-3.633-.58-1.543-1.679-2.383t-2.672-.84q-1.604 0-2.703.87-1.1.871-1.665 2.414-.565 1.542-.565 3.573 0 2.046.565 3.619.58 1.557 1.665 2.443 1.1.87 2.703.87m23.321 5.238q-2.244 0-4-.779-1.756-.794-2.779-2.336-1.008-1.558-1.008-3.879 0-1.954.718-3.283a5.8 5.8 0 0 1 1.954-2.138 9.5 9.5 0 0 1 2.81-1.221 21.4 21.4 0 0 1 3.329-.58 84 84 0 0 0 3.298-.398q1.252-.198 1.817-.58.565-.38.565-1.13v-.091q0-1.451-.916-2.245-.901-.795-2.566-.794-1.755 0-2.794.779-1.038.763-1.374 1.924l-6.017-.489q.459-2.138 1.802-3.695 1.344-1.573 3.467-2.413 2.138-.855 4.947-.855 1.954 0 3.741.458 1.802.459 3.191 1.42a6.9 6.9 0 0 1 2.215 2.474q.809 1.497.809 3.588V42h-6.169v-3.252h-.183a6.6 6.6 0 0 1-1.512 1.939q-.947.824-2.275 1.298-1.329.458-3.07.458m1.863-4.49q1.435 0 2.535-.565 1.1-.579 1.726-1.557t.626-2.214v-2.49q-.306.2-.84.367-.519.153-1.176.29-.657.122-1.313.23-.657.091-1.191.167-1.145.168-2 .535-.856.366-1.329.992-.473.612-.473 1.527 0 1.329.962 2.031.977.688 2.473.688m28.868-19.408v4.887H137.29v-4.886zm-10.918-5.619h6.505v21.867q0 .9.275 1.404.275.489.763.688.504.198 1.161.198.458 0 .916-.076l.703-.138 1.023 4.84q-.489.154-1.375.352-.885.215-2.153.26-2.351.09-4.123-.626-1.755-.718-2.733-2.23-.977-1.512-.962-3.817zm25.592 29.532q-3.618 0-6.23-1.466-2.595-1.48-4-4.184-1.405-2.718-1.405-6.428 0-3.619 1.405-6.353t3.955-4.26q2.565-1.527 6.016-1.527 2.321 0 4.321.748a9.6 9.6 0 0 1 3.512 2.214q1.512 1.482 2.352 3.726.84 2.229.84 5.223v1.786H157.05v-4.031h13.682q0-1.405-.611-2.49a4.37 4.37 0 0 0-1.695-1.694q-1.069-.626-2.489-.626-1.481 0-2.627.687a4.8 4.8 0 0 0-1.771 1.817q-.64 1.13-.657 2.52v3.832q0 1.74.642 3.009a4.7 4.7 0 0 0 1.847 1.954q1.191.687 2.825.687 1.085 0 1.985-.305a4.1 4.1 0 0 0 1.543-.916 4 4 0 0 0 .977-1.497l6.016.397a8.2 8.2 0 0 1-1.878 3.787q-1.405 1.605-3.634 2.504-2.214.886-5.116.886m23.654-.076q-2.673 0-4.841-1.374-2.153-1.39-3.42-4.078-1.253-2.702-1.253-6.627 0-4.031 1.298-6.703 1.299-2.688 3.451-4.016a8.85 8.85 0 0 1 4.749-1.344q1.97 0 3.283.672 1.33.656 2.138 1.65.825.976 1.252 1.923h.199V10.727h6.489V42h-6.413v-3.756h-.275q-.458.976-1.298 1.939-.824.946-2.153 1.573-1.313.626-3.206.626m2.061-5.177q1.573 0 2.657-.855 1.1-.87 1.68-2.428.595-1.557.595-3.65 0-2.091-.58-3.633-.58-1.543-1.68-2.383-1.099-.84-2.672-.84-1.603 0-2.703.87-1.1.871-1.664 2.414-.565 1.542-.565 3.573 0 2.046.565 3.619.58 1.557 1.664 2.443 1.1.87 2.703.87M218.511 42V10.727h12.521q3.452 0 5.757 1.023 2.306 1.024 3.466 2.84 1.161 1.803 1.161 4.154 0 1.833-.733 3.222a6.3 6.3 0 0 1-2.016 2.26q-1.268.87-2.901 1.237v.305a7 7 0 0 1 3.344 1.008q1.574.93 2.55 2.611.977 1.665.977 3.97 0 2.489-1.236 4.444-1.222 1.94-3.619 3.069t-5.91 1.13zm6.612-5.406h5.39q2.764 0 4.031-1.053 1.268-1.07 1.268-2.84 0-1.3-.626-2.29-.627-.994-1.787-1.558-1.144-.565-2.733-.565h-5.543zm0-12.78h4.902q1.359 0 2.412-.474 1.07-.489 1.68-1.374.626-.885.626-2.123 0-1.694-1.206-2.733-1.191-1.038-3.39-1.038h-5.024zm28.383 18.629q-2.245 0-4.001-.779-1.756-.794-2.779-2.336-1.008-1.558-1.008-3.879 0-1.954.718-3.283a5.8 5.8 0 0 1 1.954-2.138 9.5 9.5 0 0 1 2.81-1.221 21.4 21.4 0 0 1 3.329-.58 84 84 0 0 0 3.298-.398q1.253-.198 1.817-.58.565-.38.565-1.13v-.091q0-1.451-.916-2.245-.902-.795-2.565-.794-1.756 0-2.795.779-1.038.763-1.374 1.924l-6.016-.489q.458-2.138 1.802-3.695 1.343-1.573 3.466-2.413 2.138-.855 4.947-.855 1.954 0 3.741.458 1.802.459 3.192 1.42a6.9 6.9 0 0 1 2.214 2.474q.809 1.497.809 3.588V42h-6.169v-3.252h-.183a6.6 6.6 0 0 1-1.512 1.939q-.946.824-2.275 1.298-1.329.458-3.069.458m1.863-4.49q1.436 0 2.534-.565 1.1-.579 1.726-1.557t.626-2.214v-2.49a3.5 3.5 0 0 1-.84.367q-.519.153-1.176.29-.656.122-1.313.23-.657.091-1.191.167-1.145.168-2 .535-.855.366-1.329.992-.473.612-.473 1.527 0 1.329.962 2.031.977.688 2.474.688m26.959 13.331q-3.161 0-5.421-.87-2.246-.856-3.573-2.337-1.329-1.481-1.726-3.328l6.017-.81q.274.703.87 1.313.595.611 1.573.978.992.382 2.412.382 2.123 0 3.497-1.039 1.39-1.023 1.39-3.436v-4.29h-.275q-.428.977-1.283 1.847t-2.199 1.42q-1.343.55-3.206.55-2.642 0-4.81-1.221-2.154-1.237-3.436-3.772-1.267-2.55-1.267-6.444 0-3.985 1.297-6.658 1.299-2.672 3.451-4a8.9 8.9 0 0 1 4.749-1.329q1.97 0 3.299.672 1.328.656 2.137 1.65.825.976 1.268 1.923h.244v-3.94h6.459V42.23q0 2.993-1.466 5.009-1.466 2.015-4.061 3.023-2.582 1.023-5.94 1.023m.137-14.506q1.573 0 2.657-.78 1.1-.793 1.68-2.259.595-1.48.595-3.543 0-2.061-.58-3.573-.58-1.527-1.68-2.367-1.099-.84-2.672-.84-1.603 0-2.703.87-1.099.856-1.664 2.383t-.565 3.527q0 2.031.565 3.512.58 1.466 1.664 2.276 1.1.794 2.703.794m37.056 5.68q-3.558 0-6.153-1.512-2.581-1.527-3.986-4.245-1.404-2.733-1.405-6.337 0-3.633 1.405-6.352 1.405-2.733 3.986-4.245 2.595-1.527 6.153-1.527t6.139 1.527q2.595 1.512 4.001 4.245 1.404 2.719 1.404 6.352 0 3.604-1.404 6.337-1.406 2.718-4.001 4.245-2.581 1.512-6.139 1.512m.031-5.039q1.619 0 2.703-.916 1.084-.932 1.633-2.535.565-1.603.565-3.65t-.565-3.649q-.55-1.603-1.633-2.535-1.085-.93-2.703-.931-1.634 0-2.749.931-1.099.931-1.664 2.535-.55 1.603-.55 3.65t.55 3.649q.565 1.604 1.664 2.535 1.115.915 2.749.916m28.356-18.873v4.886h-14.476v-4.886zM336.746 42V16.85q0-2.55.992-4.23a6.38 6.38 0 0 1 2.749-2.519q1.74-.84 3.955-.84 1.496 0 2.733.23 1.252.229 1.863.412l-1.161 4.886a8 8 0 0 0-.946-.229 6 6 0 0 0-1.13-.107q-1.435 0-2.001.672-.565.657-.565 1.848V42zm24.019-25.821v-5.452h25.684v5.452h-9.574V42h-6.536V16.179zm36.988 26.28q-3.558 0-6.154-1.513-2.58-1.527-3.985-4.245-1.405-2.733-1.405-6.337 0-3.633 1.405-6.352 1.404-2.733 3.985-4.245 2.596-1.527 6.154-1.527t6.138 1.527q2.596 1.512 4.001 4.245 1.405 2.719 1.405 6.352 0 3.604-1.405 6.337-1.405 2.718-4.001 4.245-2.58 1.512-6.138 1.512m.03-5.04q1.619 0 2.703-.916 1.084-.932 1.634-2.535.565-1.603.565-3.65t-.565-3.649q-.55-1.603-1.634-2.535-1.085-.93-2.703-.931-1.634 0-2.748.931-1.1.931-1.665 2.535-.549 1.603-.549 3.65t.549 3.649q.565 1.604 1.665 2.535 1.114.915 2.748.916m19.004 13.377q-1.238 0-2.321-.2-1.069-.182-1.772-.472l1.466-4.856q1.146.35 2.062.382.931.03 1.603-.428.687-.459 1.115-1.558l.381-.992-8.413-24.126h6.841l4.855 17.224h.245l4.901-17.225h6.887l-9.116 25.99q-.656 1.894-1.787 3.298a7.3 7.3 0 0 1-2.824 2.184q-1.711.778-4.123.778m40.694-25.562-5.955.366a3.1 3.1 0 0 0-.657-1.374q-.504-.626-1.328-.993-.81-.381-1.94-.381-1.512 0-2.55.64-1.038.627-1.038 1.68 0 .84.672 1.42.671.582 2.306.932l4.245.855q3.42.703 5.1 2.26 1.679 1.558 1.679 4.092 0 2.306-1.359 4.047-1.343 1.74-3.695 2.718-2.337.962-5.39.962-4.658 0-7.421-1.94-2.75-1.954-3.222-5.313l6.398-.336q.29 1.42 1.405 2.168 1.115.733 2.855.733 1.71 0 2.749-.656 1.053-.672 1.068-1.726-.015-.886-.748-1.45-.733-.581-2.26-.886l-4.061-.81q-3.436-.687-5.116-2.382-1.664-1.695-1.664-4.32 0-2.261 1.221-3.895 1.237-1.634 3.467-2.52 2.244-.885 5.252-.885 4.444 0 6.994 1.878 2.565 1.878 2.993 5.116M147.193 377v-4.099l9.579-8.869a37 37 0 0 0 2.049-2.129q.841-.946 1.275-1.853a4.6 4.6 0 0 0 .433-1.984q0-1.182-.538-2.036a3.54 3.54 0 0 0-1.472-1.327q-.933-.474-2.115-.473-1.236 0-2.155.499a3.44 3.44 0 0 0-1.419 1.432q-.5.933-.5 2.221h-5.4q0-2.641 1.196-4.586 1.196-1.944 3.35-3.009 2.156-1.064 4.967-1.064 2.891 0 5.032 1.025 2.155 1.011 3.351 2.812t1.196 4.125a7.9 7.9 0 0 1-.605 3.009q-.591 1.485-2.115 3.298-1.524 1.8-4.297 4.323l-3.928 3.85v.184h11.299V377zm42.656-20.182v4.205h-12.153v-4.205zm-9.394-4.835h5.597v18.815q0 .775.237 1.209a1.3 1.3 0 0 0 .657.591q.434.171.998.171.395 0 .789-.066l.604-.118.88 4.165q-.42.132-1.182.303-.762.183-1.853.223-2.023.079-3.547-.539-1.512-.617-2.352-1.918-.842-1.3-.828-3.285zM193.496 377v-20.182h5.426v3.521h.21q.552-1.878 1.853-2.838 1.3-.972 2.996-.972.42 0 .906.053t.854.144v4.967a7 7 0 0 0-1.09-.21 10 10 0 0 0-1.275-.092q-1.235 0-2.207.538a3.96 3.96 0 0 0-1.524 1.472q-.552.946-.552 2.181V377zm15.139 0v-20.182h5.598V377zm2.812-22.783q-1.248 0-2.142-.828-.88-.841-.88-2.01 0-1.157.88-1.984a3.02 3.02 0 0 1 2.142-.841q1.248 0 2.129.841.893.827.893 1.984 0 1.169-.893 2.01-.88.828-2.129.828m13.024 23.164q-1.931 0-3.442-.67-1.512-.684-2.392-2.01-.867-1.34-.867-3.338 0-1.682.618-2.825a5 5 0 0 1 1.682-1.839 8.1 8.1 0 0 1 2.417-1.051 18.5 18.5 0 0 1 2.865-.5 72 72 0 0 0 2.838-.341q1.077-.17 1.563-.499t.486-.973v-.079q0-1.248-.788-1.931-.776-.684-2.207-.683-1.511 0-2.405.67-.893.657-1.182 1.655l-5.177-.42q.394-1.839 1.55-3.18 1.156-1.353 2.983-2.076 1.839-.736 4.257-.736 1.681 0 3.219.395 1.55.394 2.746 1.222a5.9 5.9 0 0 1 1.905 2.128q.697 1.287.697 3.088V377h-5.309v-2.799h-.157a5.7 5.7 0 0 1-1.301 1.669q-.815.71-1.958 1.117-1.143.394-2.641.394m1.603-3.863q1.236 0 2.181-.486a3.87 3.87 0 0 0 1.485-1.34 3.46 3.46 0 0 0 .539-1.905v-2.142a3 3 0 0 1-.723.315q-.447.132-1.012.25-.564.105-1.13.197l-1.024.144a7 7 0 0 0-1.722.46q-.735.316-1.143.854-.407.526-.407 1.314 0 1.143.828 1.748.84.591 2.128.591m19.702-8.186V377h-5.597v-20.182h5.335v3.561h.236a5.64 5.64 0 0 1 2.247-2.786q1.577-1.038 3.824-1.038 2.102 0 3.665.92t2.431 2.628q.867 1.695.867 4.047V377h-5.597v-11.852q.013-1.852-.946-2.89-.959-1.051-2.641-1.051-1.13 0-1.997.486-.854.486-1.34 1.419-.474.92-.487 2.22m26.512 19.657q-2.72 0-4.664-.749-1.932-.736-3.075-2.011-1.143-1.274-1.485-2.864l5.177-.696q.237.604.749 1.13.513.525 1.354.841.853.328 2.076.328 1.826 0 3.008-.893 1.197-.88 1.196-2.957v-3.692h-.236a5.3 5.3 0 0 1-1.104 1.59q-.736.749-1.892 1.222-1.157.473-2.759.473-2.274 0-4.139-1.051-1.853-1.065-2.957-3.246-1.09-2.194-1.09-5.544 0-3.43 1.117-5.729t2.969-3.442a7.67 7.67 0 0 1 4.086-1.144q1.695 0 2.839.579 1.143.564 1.839 1.419.71.84 1.091 1.655h.21v-3.39h5.558v20.379q0 2.575-1.262 4.31-1.261 1.734-3.495 2.601-2.22.88-5.111.881m.118-12.483q1.354 0 2.287-.67.945-.683 1.445-1.944.512-1.275.512-3.049 0-1.773-.499-3.074-.5-1.314-1.445-2.037t-2.3-.722q-1.38 0-2.325.749-.946.735-1.432 2.049-.487 1.314-.487 3.035 0 1.748.487 3.022.498 1.262 1.432 1.958.946.684 2.325.683m19.801-22.415V377h-5.597v-26.909zm13.681 27.303q-3.114 0-5.36-1.261-2.235-1.275-3.443-3.6-1.209-2.34-1.209-5.532 0-3.114 1.209-5.466t3.403-3.666q2.207-1.314 5.177-1.314 1.997 0 3.718.644a8.25 8.25 0 0 1 3.022 1.905q1.302 1.275 2.024 3.206.722 1.919.722 4.494v1.537H298.11v-3.468h11.773q0-1.209-.526-2.142a3.77 3.77 0 0 0-1.458-1.459q-.92-.538-2.142-.538-1.275 0-2.26.591a4.15 4.15 0 0 0-1.524 1.563 4.4 4.4 0 0 0-.565 2.168v3.298q0 1.499.552 2.589a4.04 4.04 0 0 0 1.59 1.682q1.025.591 2.43.591.933 0 1.708-.263.776-.263 1.327-.788.553-.526.841-1.288l5.177.342a7.06 7.06 0 0 1-1.616 3.258q-1.209 1.38-3.127 2.155-1.905.762-4.402.762m29.708-14.821-5.124.315a2.66 2.66 0 0 0-.565-1.182 3 3 0 0 0-1.143-.854q-.697-.329-1.669-.329-1.301 0-2.194.552-.894.538-.894 1.446 0 .722.578 1.222.579.499 1.984.801l3.653.736q2.943.605 4.389 1.944 1.445 1.341 1.445 3.522 0 1.983-1.169 3.482-1.156 1.497-3.18 2.338-2.01.828-4.638.828-4.007 0-6.386-1.669-2.365-1.681-2.772-4.572l5.505-.289q.249 1.222 1.209 1.866.959.63 2.457.63 1.471 0 2.365-.565.906-.578.92-1.484-.014-.762-.644-1.249-.631-.498-1.945-.762l-3.495-.696q-2.957-.59-4.401-2.05-1.433-1.458-1.433-3.718 0-1.944 1.052-3.351 1.063-1.405 2.982-2.168 1.932-.762 4.52-.762 3.824 0 6.018 1.617 2.207 1.615 2.575 4.401M188.563 567.091V594h-5.689v-21.509h-.158l-6.162 3.863v-5.045l6.662-4.218zm31.804 12.482-5.124.315a2.66 2.66 0 0 0-.565-1.182 3 3 0 0 0-1.144-.854q-.696-.329-1.668-.329-1.301 0-2.194.552-.894.538-.894 1.446 0 .722.578 1.222.579.499 1.984.801l3.653.736q2.943.605 4.388 1.944 1.446 1.341 1.446 3.522 0 1.983-1.17 3.482-1.155 1.498-3.179 2.338-2.012.828-4.638.828-4.008 0-6.386-1.669-2.365-1.682-2.772-4.572l5.505-.289q.249 1.223 1.209 1.866.959.63 2.457.63 1.471 0 2.365-.565.907-.578.919-1.484-.013-.762-.643-1.249-.631-.498-1.945-.762l-3.495-.696q-2.956-.59-4.402-2.05-1.432-1.458-1.432-3.718 0-1.944 1.051-3.351 1.065-1.405 2.983-2.168 1.931-.762 4.52-.762 3.824 0 6.018 1.617 2.207 1.616 2.575 4.401m17.321 21.995v-10.8h-.171a7.2 7.2 0 0 1-1.117 1.668q-.71.816-1.853 1.354-1.13.538-2.759.538-2.3 0-4.165-1.182-1.852-1.196-2.943-3.508-1.077-2.326-1.078-5.703 0-3.468 1.117-5.768 1.118-2.312 2.97-3.455a7.6 7.6 0 0 1 4.086-1.157q1.695 0 2.825.579 1.143.564 1.839 1.419.71.84 1.078 1.655h.236v-3.39h5.519v27.75zm-4.126-11.694q1.353 0 2.286-.736.947-.748 1.445-2.089.513-1.34.513-3.14t-.499-3.127-1.446-2.05q-.945-.722-2.299-.722-1.38 0-2.326.749-.945.749-1.432 2.076-.486 1.326-.486 3.074 0 1.761.486 3.114.5 1.34 1.432 2.102.946.75 2.326.749m27.146-4.467v-11.589h5.597V594h-5.374v-3.666h-.21a5.96 5.96 0 0 1-2.273 2.851q-1.578 1.078-3.85 1.078-2.024 0-3.561-.92t-2.404-2.615q-.855-1.695-.868-4.06v-12.85h5.598v11.852q.012 1.787.959 2.825.946 1.038 2.536 1.038 1.011 0 1.892-.46a3.6 3.6 0 0 0 1.419-1.393q.552-.92.539-2.273m15.829 8.974q-1.932 0-3.442-.67-1.512-.684-2.392-2.01-.867-1.34-.867-3.338 0-1.682.618-2.825a5 5 0 0 1 1.681-1.839 8.2 8.2 0 0 1 2.418-1.051 18.5 18.5 0 0 1 2.864-.5 72 72 0 0 0 2.838-.341q1.078-.17 1.564-.499t.486-.973v-.079q0-1.248-.788-1.931-.776-.684-2.208-.683-1.51 0-2.404.67-.894.657-1.183 1.655l-5.177-.42q.394-1.839 1.551-3.18 1.156-1.353 2.983-2.076 1.839-.736 4.257-.736 1.682 0 3.219.395 1.55.393 2.746 1.222a5.9 5.9 0 0 1 1.905 2.128q.696 1.287.696 3.088V594h-5.308v-2.799h-.158a5.7 5.7 0 0 1-1.3 1.669q-.815.71-1.958 1.117-1.143.394-2.641.394m1.603-3.863q1.235 0 2.181-.486a3.87 3.87 0 0 0 1.485-1.34 3.46 3.46 0 0 0 .539-1.905v-2.142a3 3 0 0 1-.723.315q-.447.132-1.012.25-.565.105-1.13.197l-1.025.144q-.985.145-1.721.46t-1.143.854q-.407.526-.407 1.314 0 1.143.827 1.748.842.591 2.129.591M292.245 594v-20.182h5.426v3.521h.211q.552-1.878 1.852-2.838 1.3-.972 2.996-.972.42 0 .907.053.486.052.854.144v4.967a7 7 0 0 0-1.091-.21 10 10 0 0 0-1.274-.092q-1.236 0-2.208.538a4 4 0 0 0-1.524 1.472q-.552.946-.552 2.181V594zm23.398.394q-3.114 0-5.361-1.261-2.234-1.275-3.443-3.6-1.209-2.34-1.209-5.532 0-3.114 1.209-5.466t3.403-3.666q2.208-1.314 5.177-1.314 1.998 0 3.719.644a8.3 8.3 0 0 1 3.022 1.905q1.3 1.275 2.023 3.206.723 1.918.723 4.494v1.537h-17.042v-3.468h11.773q0-1.209-.526-2.142a3.77 3.77 0 0 0-1.458-1.459q-.92-.538-2.142-.538-1.275 0-2.26.591a4.15 4.15 0 0 0-1.524 1.563 4.4 4.4 0 0 0-.565 2.168v3.298q0 1.498.552 2.589a4.05 4.05 0 0 0 1.59 1.682q1.024.591 2.431.591.932 0 1.708-.263a3.55 3.55 0 0 0 1.327-.788q.552-.526.841-1.288l5.176.342a7.05 7.05 0 0 1-1.616 3.258q-1.209 1.38-3.127 2.155-1.905.762-4.401.762"/><path stroke="#fff" stroke-width="4" d="M272.71 248.149c41.613 32.866 87.126 86.911 122.292 143.001 17.651 28.153 32.666 56.774 43.263 83.431C448.872 501.266 455 525.857 455 545.988c0 107.981-89.461 225.877-218.497 225.877-64.404-.001-115.998-33.805-151.558-79.053C49.36 647.529 30 590.987 30 545.988c0-18.644 5.723-42.302 15.67-68.483 9.936-26.148 24.031-54.675 40.647-83.015 33.093-56.442 76.076-111.951 115.874-146.341z"/><path stroke="#fff" stroke-linecap="round" stroke-width="12" d="M179.303 244.861h116.243"/><path stroke="#fff" stroke-linecap="round" stroke-width="10" d="M267.872 253.529s.354 14.253 9.225 30.445c7.98 14.566 16.606 23.065 16.606 23.065"/><path stroke="#fff" stroke-linecap="round" stroke-width="8" d="M246.651 253.53s-3.799 19.578-4.613 32.29c-.667 10.427.001 26.755.001 26.755"/><path stroke="#fff" stroke-width="4" d="M327.838 123.445c-5.859-10.148-175.291-6.885-177.136 0s63.664 124.55 63.664 124.55h53.502s65.83-114.401 59.97-124.55Z"/><path fill="#18181b" stroke="#fff" stroke-width="3" d="M222.387 408.881a.5.5 0 0 1 .81-.308l67.158 54.664a.501.501 0 0 1-.138.856l-80.919 30.828a.501.501 0 0 1-.673-.547z"/><rect width="71.685" height="71.685" x="190.713" y="621.775" stroke="#fff" stroke-width="3" rx="3.5" transform="rotate(-8.876 190.713 621.775)"/><rect width="40.945" height="40.945" x="1199.71" y="492.919" stroke="#0098d4" stroke-width="3" rx="3.5" transform="rotate(-8.876 1199.71 492.919)"/><path fill="#fff" d="M696.784 57.676h-6.688q-.183-1.298-.749-2.306a5.9 5.9 0 0 0-1.45-1.74 6.4 6.4 0 0 0-2.046-1.1 7.8 7.8 0 0 0-2.489-.382q-2.429 0-4.23 1.206-1.802 1.191-2.795 3.482-.992 2.276-.992 5.528 0 3.343.992 5.619 1.008 2.275 2.81 3.436 1.802 1.16 4.169 1.16 1.328 0 2.458-.351a6.5 6.5 0 0 0 2.031-1.023 5.9 5.9 0 0 0 1.466-1.665 6.5 6.5 0 0 0 .825-2.229l6.688.03a12.1 12.1 0 0 1-1.298 4.154 12.5 12.5 0 0 1-2.764 3.558q-1.726 1.557-4.123 2.474-2.382.9-5.39.9-4.183 0-7.482-1.893-3.284-1.894-5.192-5.482-1.894-3.588-1.894-8.688 0-5.116 1.924-8.704 1.925-3.588 5.223-5.467 3.298-1.893 7.421-1.893 2.718 0 5.039.763 2.337.764 4.138 2.23a11.5 11.5 0 0 1 2.932 3.557q1.145 2.108 1.466 4.826m11.124 6.764V78h-6.505V46.727h6.322v11.957H708q.793-2.077 2.565-3.253 1.772-1.19 4.443-1.19 2.443 0 4.261 1.068 1.832 1.053 2.84 3.039 1.023 1.97 1.008 4.718V78h-6.505V64.227q.016-2.168-1.1-3.375-1.1-1.206-3.084-1.206-1.329 0-2.352.565-1.008.564-1.588 1.649-.564 1.068-.58 2.58M728.236 78V54.545h6.505V78zm3.268-26.478q-1.45 0-2.489-.962-1.023-.978-1.023-2.336 0-1.344 1.023-2.306 1.038-.977 2.489-.977t2.473.977q1.04.962 1.039 2.306 0 1.36-1.039 2.336-1.023.962-2.473.962m14.953-4.795V78h-6.505V46.727zm13.853 31.655q-2.672 0-4.84-1.375-2.154-1.389-3.421-4.077-1.251-2.701-1.252-6.627 0-4.031 1.298-6.703 1.299-2.687 3.451-4.016a8.85 8.85 0 0 1 4.749-1.344q1.97 0 3.283.672 1.328.656 2.138 1.65.825.976 1.252 1.923h.199V46.727h6.489V78h-6.413v-3.756h-.275q-.458.976-1.298 1.939-.824.946-2.153 1.573-1.312.626-3.207.626m2.062-5.177q1.572 0 2.657-.855 1.1-.87 1.679-2.428.596-1.557.596-3.65 0-2.09-.58-3.634-.58-1.542-1.68-2.382t-2.672-.84q-1.603 0-2.703.87-1.1.871-1.664 2.414-.565 1.542-.565 3.573 0 2.046.565 3.619.58 1.557 1.664 2.443 1.1.87 2.703.87M794.469 78h-7.085l10.796-31.273h8.52L817.481 78h-7.085l-7.834-24.126h-.244zm-.443-12.292h16.736v5.161h-16.736zM662.757 447l-8.948-31.273h7.223l5.176 21.729h.26l5.711-21.729h6.184l5.696 21.775h.275l5.176-21.775h7.223L687.785 447h-6.444l-5.955-20.446h-.245L669.201 447zm41.561.443q-2.245 0-4-.779-1.757-.794-2.78-2.336-1.007-1.558-1.007-3.879 0-1.954.717-3.283a5.8 5.8 0 0 1 1.955-2.138 9.5 9.5 0 0 1 2.81-1.221 21.4 21.4 0 0 1 3.328-.58 86 86 0 0 0 3.299-.397q1.251-.199 1.817-.581.565-.381.565-1.13v-.091q0-1.451-.916-2.245-.901-.794-2.566-.794-1.755 0-2.794.779-1.039.763-1.374 1.924l-6.017-.489q.458-2.138 1.802-3.695 1.344-1.573 3.466-2.413 2.139-.855 4.948-.855 1.955 0 3.741.458 1.802.459 3.191 1.42a6.9 6.9 0 0 1 2.214 2.474q.81 1.497.81 3.588V447h-6.169v-3.252h-.184a6.6 6.6 0 0 1-1.511 1.939q-.947.825-2.275 1.298-1.329.458-3.07.458m1.863-4.49q1.436 0 2.535-.565a4.5 4.5 0 0 0 1.725-1.557q.627-.978.627-2.214v-2.489a3.5 3.5 0 0 1-.84.366q-.519.153-1.176.29-.657.123-1.313.229l-1.191.168q-1.146.168-2.001.535-.855.366-1.328.992-.474.612-.474 1.527 0 1.329.962 2.031.978.687 2.474.687m22.897-9.513V447h-6.505v-23.455h6.2v4.139h.275a6.54 6.54 0 0 1 2.611-3.238q1.833-1.206 4.444-1.206 2.442 0 4.26 1.069 1.817 1.07 2.825 3.054 1.008 1.97 1.008 4.703V447h-6.505v-13.773q.015-2.154-1.1-3.36-1.114-1.221-3.069-1.221-1.313 0-2.321.565-.993.564-1.558 1.649-.549 1.069-.565 2.58m32.72-9.895v4.887h-14.125v-4.887zm-10.918-5.619h6.505v21.867q0 .9.275 1.404.275.489.763.688a3.2 3.2 0 0 0 1.161.198q.458 0 .916-.076.458-.092.702-.138l1.023 4.841a18 18 0 0 1-1.374.351q-.885.214-2.153.26-2.352.091-4.123-.626-1.756-.718-2.733-2.23t-.962-3.817zm34.376 12.308-5.955.366a3.1 3.1 0 0 0-.657-1.374q-.503-.626-1.328-.993-.81-.381-1.939-.381-1.512 0-2.55.641-1.04.625-1.039 1.68 0 .839.672 1.42.672.58 2.306.931l4.245.855q3.42.703 5.1 2.26 1.68 1.558 1.68 4.093 0 2.306-1.359 4.046-1.344 1.741-3.696 2.718-2.336.962-5.39.962-4.657 0-7.421-1.939-2.748-1.955-3.222-5.314l6.398-.336q.29 1.42 1.405 2.168 1.115.733 2.855.733 1.711 0 2.749-.656 1.053-.672 1.069-1.726-.015-.885-.748-1.45-.733-.581-2.26-.886l-4.062-.809q-3.437-.688-5.115-2.383-1.665-1.695-1.665-4.321 0-2.26 1.222-3.894 1.237-1.634 3.466-2.519 2.244-.886 5.253-.886 4.443 0 6.993 1.878 2.566 1.879 2.993 5.116m8.433 17.163q-1.512 0-2.596-1.069-1.068-1.084-1.069-2.596 0-1.496 1.069-2.565 1.084-1.07 2.596-1.069 1.466 0 2.565 1.069 1.1 1.069 1.1 2.565 0 1.008-.519 1.848-.504.825-1.329 1.328a3.5 3.5 0 0 1-1.817.489m0-16.43q-1.512 0-2.596-1.069-1.068-1.07-1.069-2.596a3.45 3.45 0 0 1 1.069-2.55q1.084-1.07 2.596-1.069 1.466 0 2.565 1.069 1.1 1.053 1.1 2.55 0 1.023-.519 1.863a3.8 3.8 0 0 1-1.329 1.313 3.5 3.5 0 0 1-1.817.489M929.757 447l-8.948-31.273h7.223l5.176 21.729h.26l5.711-21.729h6.184l5.696 21.775h.275l5.176-21.775h7.223L954.785 447h-6.444l-5.955-20.446h-.245L936.201 447zm41.561.443q-2.245 0-4-.779-1.757-.794-2.78-2.336-1.007-1.558-1.007-3.879 0-1.954.717-3.283a5.8 5.8 0 0 1 1.955-2.138 9.5 9.5 0 0 1 2.81-1.221 21.4 21.4 0 0 1 3.328-.58 86 86 0 0 0 3.299-.397q1.251-.199 1.817-.581.565-.381.565-1.13v-.091q0-1.451-.916-2.245-.901-.794-2.566-.794-1.755 0-2.794.779-1.039.763-1.374 1.924l-6.017-.489q.458-2.138 1.802-3.695 1.344-1.573 3.466-2.413 2.139-.855 4.948-.855 1.955 0 3.741.458 1.802.459 3.191 1.42a6.9 6.9 0 0 1 2.214 2.474q.81 1.497.81 3.588V447h-6.169v-3.252h-.184a6.6 6.6 0 0 1-1.511 1.939q-.947.825-2.275 1.298-1.329.458-3.07.458m1.863-4.49q1.436 0 2.535-.565a4.5 4.5 0 0 0 1.725-1.557q.627-.978.627-2.214v-2.489a3.5 3.5 0 0 1-.84.366q-.519.153-1.176.29-.657.123-1.313.229l-1.191.168q-1.146.168-2.001.535-.855.366-1.328.992-.474.612-.474 1.527 0 1.329.962 2.031.978.687 2.474.687m22.897-9.513V447h-6.505v-23.455h6.2v4.139h.275a6.54 6.54 0 0 1 2.611-3.238q1.832-1.206 4.441-1.206 2.445 0 4.26 1.069c1.21.713 2.16 1.731 2.83 3.054.67 1.313 1.01 2.881 1.01 4.703V447h-6.51v-13.773c.01-1.436-.36-2.556-1.1-3.36-.74-.814-1.77-1.221-3.07-1.221q-1.311 0-2.319.565-.993.564-1.558 1.649-.549 1.069-.565 2.58m32.722-9.895v4.887h-14.13v-4.887zm-10.92-5.619h6.5v21.867c0 .6.1 1.069.28 1.404.18.326.44.555.76.688a3.2 3.2 0 0 0 1.16.198c.31 0 .61-.025.92-.076l.7-.138 1.03 4.841q-.495.153-1.38.351c-.59.143-1.31.229-2.15.26-1.57.061-2.94-.148-4.12-.626-1.18-.479-2.09-1.222-2.74-2.23q-.975-1.512-.96-3.817zm34.38 12.308-5.96.366q-.15-.763-.66-1.374-.495-.626-1.32-.993c-.54-.254-1.19-.381-1.94-.381q-1.515 0-2.55.641c-.7.417-1.04.977-1.04 1.68 0 .559.22 1.033.67 1.42q.675.58 2.31.931l4.24.855q3.42.703 5.1 2.26 1.68 1.558 1.68 4.093c0 1.537-.45 2.886-1.36 4.046-.89 1.161-2.13 2.067-3.69 2.718-1.56.641-3.36.962-5.39.962-3.11 0-5.58-.646-7.43-1.939-1.83-1.303-2.9-3.075-3.22-5.314l6.4-.336q.285 1.42 1.41 2.168 1.11.733 2.85.733c1.14 0 2.06-.219 2.75-.656.7-.448 1.06-1.023 1.07-1.726q-.015-.885-.75-1.45c-.49-.387-1.24-.683-2.26-.886l-4.06-.809c-2.29-.459-4-1.253-5.12-2.383-1.11-1.13-1.66-2.57-1.66-4.321 0-1.507.41-2.805 1.22-3.894.83-1.089 1.98-1.929 3.47-2.519q2.235-.886 5.25-.886 4.44 0 6.99 1.878 2.565 1.879 3 5.116m8.43 17.163c-1.01 0-1.87-.356-2.6-1.069-.71-.723-1.07-1.588-1.07-2.596 0-.997.36-1.853 1.07-2.565.73-.713 1.59-1.069 2.6-1.069.98 0 1.83.356 2.56 1.069.74.712 1.1 1.568 1.1 2.565 0 .672-.17 1.288-.52 1.848q-.495.825-1.32 1.328c-.55.326-1.16.489-1.82.489m0-16.43c-1.01 0-1.87-.357-2.6-1.069a3.55 3.55 0 0 1-1.07-2.596c0-.998.36-1.848 1.07-2.55.73-.713 1.59-1.069 2.6-1.069.98 0 1.83.356 2.56 1.069.74.702 1.1 1.552 1.1 2.55a3.44 3.44 0 0 1-.52 1.863q-.495.824-1.32 1.313c-.55.326-1.16.489-1.82.489M1197.76 447l-8.95-31.273h7.22l5.18 21.729h.26l5.71-21.729h6.18l5.7 21.775h.27l5.18-21.775h7.22L1222.78 447h-6.44l-5.95-20.446h-.25L1204.2 447zm41.56.443c-1.5 0-2.83-.26-4-.779-1.17-.529-2.1-1.308-2.78-2.336-.67-1.039-1.01-2.331-1.01-3.879q0-1.954.72-3.283a5.86 5.86 0 0 1 1.95-2.138 9.5 9.5 0 0 1 2.81-1.221q1.59-.412 3.33-.58c1.37-.143 2.46-.275 3.3-.397.83-.133 1.44-.326 1.82-.581.37-.254.56-.631.56-1.13v-.091c0-.967-.3-1.716-.91-2.245s-1.46-.794-2.57-.794q-1.755 0-2.79.779c-.7.509-1.15 1.15-1.38 1.924l-6.01-.489q.45-2.138 1.8-3.695c.89-1.049 2.05-1.853 3.46-2.413q2.145-.855 4.95-.855c1.3 0 2.55.153 3.74.458 1.2.306 2.27.779 3.19 1.42a6.9 6.9 0 0 1 2.22 2.474q.81 1.497.81 3.588V447h-6.17v-3.252h-.19a6.5 6.5 0 0 1-1.51 1.939c-.63.55-1.39.982-2.27 1.298-.89.305-1.91.458-3.07.458m1.86-4.49c.96 0 1.8-.188 2.54-.565a4.5 4.5 0 0 0 1.72-1.557q.63-.978.63-2.214v-2.489q-.315.198-.84.366c-.35.102-.74.199-1.18.29-.44.082-.87.158-1.31.229l-1.19.168c-.77.112-1.43.291-2 .535s-1.02.575-1.33.992c-.32.408-.47.917-.47 1.527q0 1.329.96 2.031c.65.458 1.47.687 2.47.687m22.9-9.513V447h-6.51v-23.455h6.2v4.139h.28a6.55 6.55 0 0 1 2.61-3.238q1.83-1.206 4.44-1.206 2.445 0 4.26 1.069c1.21.713 2.16 1.731 2.83 3.054.67 1.313 1.01 2.881 1.01 4.703V447h-6.51v-13.773c.01-1.436-.36-2.556-1.1-3.36-.74-.814-1.77-1.221-3.07-1.221-.87 0-1.65.188-2.32.565q-.99.564-1.56 1.649c-.36.712-.55 1.573-.56 2.58m32.72-9.895v4.887h-14.13v-4.887zm-10.92-5.619h6.5v21.867c0 .6.1 1.069.28 1.404.18.326.44.555.76.688a3.2 3.2 0 0 0 1.16.198c.31 0 .61-.025.92-.076l.7-.138 1.03 4.841q-.495.153-1.38.351c-.59.143-1.31.229-2.15.26-1.57.061-2.94-.148-4.12-.626-1.18-.479-2.09-1.222-2.74-2.23q-.975-1.512-.96-3.817zm34.38 12.308-5.96.366q-.15-.763-.66-1.374-.495-.626-1.32-.993c-.54-.254-1.19-.381-1.94-.381q-1.515 0-2.55.641c-.7.417-1.04.977-1.04 1.68 0 .559.22 1.033.67 1.42q.675.58 2.31.931l4.24.855q3.42.703 5.1 2.26 1.68 1.558 1.68 4.093c0 1.537-.45 2.886-1.36 4.046-.89 1.161-2.13 2.067-3.69 2.718-1.56.641-3.36.962-5.39.962-3.11 0-5.58-.646-7.43-1.939-1.83-1.303-2.9-3.075-3.22-5.314l6.4-.336q.285 1.42 1.41 2.168 1.11.733 2.85.733c1.14 0 2.06-.219 2.75-.656.7-.448 1.06-1.023 1.07-1.726q-.015-.885-.75-1.45c-.49-.387-1.24-.683-2.26-.886l-4.06-.809c-2.29-.459-4-1.253-5.12-2.383-1.11-1.13-1.66-2.57-1.66-4.321 0-1.507.41-2.805 1.22-3.894.83-1.089 1.98-1.929 3.47-2.519q2.235-.886 5.25-.886 4.44 0 6.99 1.878 2.565 1.879 3 5.116m8.43 17.163c-1.01 0-1.87-.356-2.6-1.069-.71-.723-1.07-1.588-1.07-2.596 0-.997.36-1.853 1.07-2.565.73-.713 1.59-1.069 2.6-1.069.98 0 1.83.356 2.56 1.069.74.712 1.1 1.568 1.1 2.565 0 .672-.17 1.288-.52 1.848q-.495.825-1.32 1.328c-.55.326-1.16.489-1.82.489m0-16.43c-1.01 0-1.87-.357-2.6-1.069a3.55 3.55 0 0 1-1.07-2.596c0-.998.36-1.848 1.07-2.55.73-.713 1.59-1.069 2.6-1.069.98 0 1.83.356 2.56 1.069.74.702 1.1 1.552 1.1 2.55a3.44 3.44 0 0 1-.52 1.863q-.495.824-1.32 1.313c-.55.326-1.16.489-1.82.489M654.718 618v-31.273h6.612v12.903h13.422v-12.903h6.597V618h-6.597v-12.918H661.33V618zm38.648.443q-2.244 0-4.001-.779-1.755-.794-2.779-2.336-1.008-1.558-1.008-3.879 0-1.954.718-3.283a5.8 5.8 0 0 1 1.955-2.138 9.5 9.5 0 0 1 2.809-1.221 21.4 21.4 0 0 1 3.329-.58 86 86 0 0 0 3.299-.397q1.251-.199 1.817-.581.564-.381.565-1.13v-.091q0-1.451-.917-2.245-.9-.794-2.565-.794-1.756 0-2.794.779-1.04.763-1.375 1.924l-6.016-.489q.458-2.138 1.802-3.695 1.344-1.573 3.466-2.413 2.138-.855 4.948-.855 1.954 0 3.741.458 1.802.459 3.191 1.42a6.9 6.9 0 0 1 2.214 2.474q.81 1.497.81 3.588V618h-6.169v-3.252h-.184a6.6 6.6 0 0 1-1.511 1.939q-.947.824-2.276 1.298-1.328.458-3.069.458m1.863-4.49q1.436 0 2.535-.565a4.5 4.5 0 0 0 1.725-1.557q.627-.978.626-2.214v-2.489q-.305.198-.839.366-.52.153-1.176.29-.657.123-1.313.229l-1.191.168q-1.146.168-2.001.535-.855.366-1.328.992-.474.612-.474 1.527 0 1.329.962 2.031.978.687 2.474.687m35.907-12.719-5.955.366a3.1 3.1 0 0 0-.657-1.374q-.504-.626-1.328-.993-.81-.381-1.939-.381-1.512 0-2.551.641-1.038.625-1.038 1.68 0 .839.672 1.42.672.58 2.306.931l4.245.855q3.42.703 5.1 2.26 1.68 1.558 1.68 4.093 0 2.306-1.359 4.046-1.344 1.742-3.696 2.718-2.336.962-5.39.962-4.658 0-7.421-1.939-2.75-1.955-3.222-5.314l6.398-.336q.29 1.42 1.405 2.168 1.115.733 2.855.733 1.71 0 2.749-.656 1.053-.672 1.069-1.726-.015-.885-.748-1.45-.733-.581-2.26-.886l-4.062-.809q-3.436-.688-5.116-2.383-1.664-1.695-1.664-4.321 0-2.26 1.222-3.894 1.236-1.634 3.466-2.519 2.244-.886 5.253-.886 4.443 0 6.993 1.878 2.566 1.879 2.993 5.116m8.433 17.163q-1.512 0-2.596-1.069-1.068-1.084-1.069-2.596 0-1.496 1.069-2.565 1.084-1.07 2.596-1.069 1.466 0 2.565 1.069 1.1 1.069 1.1 2.565 0 1.008-.519 1.848-.504.824-1.329 1.328a3.5 3.5 0 0 1-1.817.489m0-16.43q-1.512 0-2.596-1.069-1.068-1.07-1.069-2.596a3.45 3.45 0 0 1 1.069-2.55q1.084-1.07 2.596-1.069 1.466 0 2.565 1.069 1.1 1.053 1.1 2.55 0 1.023-.519 1.863a3.8 3.8 0 0 1-1.329 1.313 3.5 3.5 0 0 1-1.817.489M921.718 618v-31.273h6.612v12.903h13.422v-12.903h6.597V618h-6.597v-12.918H928.33V618zm38.648.443q-2.244 0-4.001-.779-1.755-.794-2.779-2.336-1.008-1.558-1.008-3.879 0-1.954.718-3.283a5.8 5.8 0 0 1 1.955-2.138 9.5 9.5 0 0 1 2.809-1.221 21.4 21.4 0 0 1 3.329-.58 86 86 0 0 0 3.299-.397q1.251-.199 1.817-.581.564-.381.565-1.13v-.091q0-1.451-.917-2.245-.9-.794-2.565-.794-1.756 0-2.794.779-1.04.763-1.375 1.924l-6.016-.489q.458-2.138 1.802-3.695 1.344-1.573 3.466-2.413 2.138-.855 4.948-.855 1.954 0 3.741.458 1.802.459 3.191 1.42a6.9 6.9 0 0 1 2.214 2.474q.81 1.497.81 3.588V618h-6.169v-3.252h-.184a6.6 6.6 0 0 1-1.511 1.939q-.947.824-2.276 1.298-1.328.458-3.069.458m1.863-4.49q1.436 0 2.535-.565a4.5 4.5 0 0 0 1.725-1.557q.627-.978.626-2.214v-2.489q-.305.198-.839.366-.52.153-1.176.29-.657.123-1.313.229l-1.191.168q-1.146.168-2.001.535-.855.366-1.328.992-.474.612-.474 1.527 0 1.329.962 2.031.978.687 2.474.687m35.907-12.719-5.955.366a3.1 3.1 0 0 0-.657-1.374q-.504-.626-1.328-.993-.81-.381-1.939-.381-1.512 0-2.551.641-1.038.625-1.038 1.68 0 .839.672 1.42.672.58 2.306.931l4.245.855q3.42.703 5.1 2.26 1.68 1.558 1.68 4.093 0 2.306-1.359 4.046-1.344 1.742-3.696 2.718-2.336.962-5.39.962-4.658 0-7.421-1.939-2.75-1.955-3.222-5.314l6.398-.336q.29 1.42 1.405 2.168 1.115.733 2.855.733 1.71 0 2.749-.656 1.053-.672 1.069-1.726-.015-.885-.748-1.45-.733-.581-2.26-.886l-4.062-.809q-3.436-.688-5.116-2.383-1.664-1.695-1.664-4.321 0-2.26 1.222-3.894 1.236-1.634 3.466-2.519 2.244-.886 5.253-.886 4.443 0 6.993 1.878 2.566 1.879 2.993 5.116m8.434 17.163c-1.01 0-1.87-.356-2.6-1.069-.71-.723-1.07-1.588-1.07-2.596 0-.997.36-1.853 1.07-2.565.73-.713 1.59-1.069 2.6-1.069.98 0 1.83.356 2.56 1.069.74.712 1.1 1.568 1.1 2.565 0 .672-.17 1.288-.52 1.848q-.495.824-1.32 1.328c-.55.326-1.16.489-1.82.489m0-16.43c-1.01 0-1.87-.357-2.6-1.069a3.55 3.55 0 0 1-1.07-2.596c0-.998.36-1.848 1.07-2.55.73-.713 1.59-1.069 2.6-1.069.98 0 1.83.356 2.56 1.069.74.702 1.1 1.552 1.1 2.55a3.44 3.44 0 0 1-.52 1.863q-.495.824-1.32 1.313c-.55.326-1.16.489-1.82.489M1189.72 618v-31.273h6.61v12.903h13.42v-12.903h6.6V618h-6.6v-12.918h-13.42V618zm38.65.443c-1.5 0-2.83-.26-4-.779-1.18-.529-2.1-1.308-2.78-2.336-.68-1.039-1.01-2.331-1.01-3.879q0-1.954.72-3.283a5.8 5.8 0 0 1 1.95-2.138 9.5 9.5 0 0 1 2.81-1.221q1.59-.412 3.33-.58 2.04-.214 3.3-.397c.83-.133 1.44-.326 1.81-.581q.57-.381.57-1.13v-.091c0-.967-.31-1.716-.92-2.245-.6-.529-1.45-.794-2.56-.794-1.17 0-2.1.26-2.8.779-.69.509-1.15 1.15-1.37 1.924l-6.02-.489q.465-2.138 1.8-3.695c.9-1.049 2.06-1.853 3.47-2.413q2.145-.855 4.95-.855c1.3 0 2.55.153 3.74.458 1.2.306 2.26.779 3.19 1.42a6.9 6.9 0 0 1 2.22 2.474c.53.998.8 2.194.8 3.588V618h-6.16v-3.252h-.19a6.5 6.5 0 0 1-1.51 1.939c-.63.55-1.39.982-2.27 1.298-.89.305-1.91.458-3.07.458m1.86-4.49c.96 0 1.8-.188 2.53-.565a4.47 4.47 0 0 0 1.73-1.557q.63-.978.63-2.214v-2.489q-.315.198-.84.366c-.35.102-.74.199-1.18.29-.44.082-.88.158-1.31.229l-1.19.168c-.77.112-1.43.291-2 .535s-1.02.575-1.33.992q-.48.612-.48 1.527c0 .886.32 1.563.97 2.031.65.458 1.47.687 2.47.687m35.91-12.719-5.96.366q-.15-.763-.66-1.374-.495-.626-1.32-.993c-.54-.254-1.19-.381-1.94-.381q-1.515 0-2.55.641c-.7.417-1.04.977-1.04 1.68 0 .559.22 1.033.67 1.42q.675.58 2.31.931l4.24.855q3.42.703 5.1 2.26 1.68 1.558 1.68 4.093c0 1.537-.45 2.886-1.36 4.046-.89 1.161-2.13 2.067-3.69 2.718-1.56.641-3.36.962-5.39.962-3.11 0-5.58-.646-7.43-1.939-1.83-1.303-2.9-3.075-3.22-5.314l6.4-.336q.285 1.42 1.41 2.168 1.11.733 2.85.733c1.14 0 2.06-.219 2.75-.656.7-.448 1.06-1.023 1.07-1.726q-.015-.885-.75-1.45c-.49-.387-1.24-.683-2.26-.886l-4.06-.809c-2.29-.459-4-1.253-5.12-2.383-1.11-1.13-1.66-2.57-1.66-4.321 0-1.507.41-2.805 1.22-3.894.83-1.089 1.98-1.929 3.47-2.519q2.235-.886 5.25-.886 4.44 0 6.99 1.878 2.565 1.879 3 5.116m8.43 17.163c-1.01 0-1.87-.356-2.6-1.069-.71-.723-1.07-1.588-1.07-2.596 0-.997.36-1.853 1.07-2.565.73-.713 1.59-1.069 2.6-1.069.98 0 1.83.356 2.56 1.069.74.712 1.1 1.568 1.1 2.565 0 .672-.17 1.288-.52 1.848q-.495.824-1.32 1.328c-.55.326-1.16.489-1.82.489m0-16.43c-1.01 0-1.87-.357-2.6-1.069a3.55 3.55 0 0 1-1.07-2.596c0-.998.36-1.848 1.07-2.55.73-.713 1.59-1.069 2.6-1.069.98 0 1.83.356 2.56 1.069.74.702 1.1 1.552 1.1 2.55a3.44 3.44 0 0 1-.52 1.863q-.495.824-1.32 1.313c-.55.326-1.16.489-1.82.489M1204.21 673.577v5.162h-14.26v-5.162zM965.653 57.676h-6.689q-.183-1.298-.748-2.306a5.9 5.9 0 0 0-1.451-1.74 6.4 6.4 0 0 0-2.046-1.1 7.8 7.8 0 0 0-2.489-.382q-2.427 0-4.229 1.206-1.803 1.191-2.795 3.482-.992 2.276-.992 5.528 0 3.343.992 5.619 1.008 2.275 2.81 3.436 1.802 1.16 4.168 1.16 1.33 0 2.459-.351a6.5 6.5 0 0 0 2.031-1.023 5.9 5.9 0 0 0 1.466-1.665 6.5 6.5 0 0 0 .824-2.229l6.689.03a12.1 12.1 0 0 1-1.298 4.154 12.5 12.5 0 0 1-2.764 3.558q-1.726 1.557-4.123 2.474-2.382.9-5.39.9-4.185 0-7.483-1.893-3.283-1.894-5.191-5.482-1.894-3.588-1.894-8.688 0-5.116 1.924-8.704 1.925-3.588 5.222-5.467 3.298-1.893 7.422-1.893 2.717 0 5.039.763 2.336.764 4.138 2.23a11.5 11.5 0 0 1 2.932 3.557q1.145 2.108 1.466 4.826m11.124 6.764V78h-6.505V46.727h6.321v11.957h.275q.795-2.077 2.566-3.253 1.77-1.19 4.443-1.19 2.444 0 4.26 1.068 1.833 1.053 2.841 3.039 1.023 1.97 1.007 4.718V78h-6.505V64.227q.016-2.168-1.099-3.375-1.1-1.206-3.084-1.206-1.329 0-2.352.565-1.008.564-1.588 1.649-.565 1.068-.58 2.58M997.105 78V54.545h6.505V78zm3.265-26.478q-1.447 0-2.487-.962-1.023-.978-1.023-2.336 0-1.344 1.023-2.306 1.04-.977 2.487-.977c.97 0 1.79.325 2.48.977.69.641 1.03 1.41 1.03 2.306 0 .906-.34 1.685-1.03 2.336-.69.641-1.51.962-2.48.962m14.96-4.795V78h-6.51V46.727zm13.85 31.655c-1.78 0-3.4-.458-4.84-1.375q-2.16-1.389-3.42-4.077c-.84-1.801-1.25-4.01-1.25-6.627q0-4.031 1.29-6.703 1.305-2.687 3.45-4.016a8.86 8.86 0 0 1 4.75-1.344c1.32 0 2.41.224 3.29.672.88.438 1.6.987 2.13 1.65q.825.976 1.26 1.923h.2V46.727h6.48V78h-6.41v-3.756h-.27a8.5 8.5 0 0 1-1.3 1.939c-.55.631-1.27 1.155-2.15 1.573q-1.32.626-3.21.626m2.06-5.177c1.05 0 1.93-.285 2.66-.855q1.095-.87 1.68-2.428c.39-1.038.59-2.255.59-3.65 0-1.394-.19-2.605-.58-3.634q-.57-1.542-1.68-2.382-1.095-.84-2.67-.84-1.605 0-2.7.87c-.74.581-1.29 1.385-1.67 2.414-.37 1.028-.56 2.219-.56 3.573 0 1.364.19 2.57.56 3.619.39 1.038.94 1.852 1.67 2.443q1.095.87 2.7.87M1057.95 78V46.727h12.52q3.45 0 5.76 1.023c1.53.682 2.69 1.63 3.46 2.84.78 1.202 1.16 2.586 1.16 4.154 0 1.222-.24 2.295-.73 3.222a6.3 6.3 0 0 1-2.02 2.26c-.84.58-1.81.992-2.9 1.237v.305c1.19.051 2.31.387 3.35 1.008q1.575.93 2.55 2.611c.65 1.11.97 2.433.97 3.97q0 2.489-1.23 4.444c-.82 1.293-2.02 2.316-3.62 3.069q-2.4 1.13-5.91 1.13zm6.61-5.406h5.39c1.84 0 3.19-.35 4.03-1.053.85-.713 1.27-1.66 1.27-2.84q0-1.3-.63-2.29c-.42-.662-1.01-1.182-1.78-1.558s-1.68-.565-2.74-.565h-5.54zm0-12.78h4.9c.91 0 1.71-.158 2.41-.474q1.08-.489 1.68-1.374.63-.885.63-2.123c0-1.13-.4-2.04-1.21-2.733q-1.185-1.038-3.39-1.038h-5.02zM1230.7 57.676h-6.69q-.18-1.298-.75-2.306a5.8 5.8 0 0 0-1.45-1.74 6.4 6.4 0 0 0-2.04-1.1 7.9 7.9 0 0 0-2.49-.382q-2.43 0-4.23 1.206c-1.2.794-2.13 1.955-2.8 3.482q-.99 2.276-.99 5.528 0 3.343.99 5.619c.68 1.517 1.61 2.662 2.81 3.436q1.8 1.16 4.17 1.16 1.335 0 2.46-.351a6.5 6.5 0 0 0 2.03-1.023 6 6 0 0 0 1.47-1.665c.39-.651.67-1.394.82-2.229l6.69.03c-.17 1.436-.61 2.82-1.3 4.154a12.4 12.4 0 0 1-2.76 3.558c-1.15 1.038-2.53 1.863-4.12 2.474q-2.385.9-5.4.9c-2.78 0-5.28-.63-7.48-1.893q-3.285-1.894-5.19-5.482-1.89-3.588-1.89-8.688 0-5.116 1.92-8.704t5.22-5.467c2.2-1.262 4.68-1.893 7.42-1.893q2.73 0 5.04.763 2.34.764 4.14 2.23c1.2.967 2.18 2.153 2.93 3.557q1.155 2.108 1.47 4.826m11.12 6.764V78h-6.5V46.727h6.32v11.957h.28c.52-1.385 1.38-2.469 2.56-3.253q1.77-1.19 4.44-1.19 2.445 0 4.26 1.068c1.23.702 2.17 1.715 2.84 3.039.69 1.313 1.02 2.886 1.01 4.718V78h-6.5V64.227c.01-1.446-.36-2.57-1.1-3.375q-1.095-1.206-3.09-1.206c-.88 0-1.67.188-2.35.565q-1.005.564-1.59 1.649c-.37.712-.57 1.572-.58 2.58M1262.15 78V54.545h6.51V78zm3.27-26.478q-1.455 0-2.49-.962-1.02-.978-1.02-2.336 0-1.344 1.02-2.306 1.035-.977 2.49-.977c.97 0 1.79.325 2.47.977.7.641 1.04 1.41 1.04 2.306 0 .906-.34 1.685-1.04 2.336-.68.641-1.5.962-2.47.962m14.95-4.795V78h-6.5V46.727zm13.86 31.655c-1.79 0-3.4-.458-4.84-1.375q-2.16-1.389-3.42-4.077-1.26-2.701-1.26-6.627c0-2.687.44-4.922 1.3-6.703q1.305-2.687 3.45-4.016a8.86 8.86 0 0 1 4.75-1.344c1.31 0 2.41.224 3.28.672.89.438 1.6.987 2.14 1.65.55.65.97 1.292 1.25 1.923h.2V46.727h6.49V78h-6.41v-3.756h-.28q-.45.976-1.29 1.939-.825.946-2.16 1.573c-.87.417-1.94.626-3.2.626m2.06-5.177c1.05 0 1.93-.285 2.65-.855q1.11-.87 1.68-2.428.6-1.557.6-3.65c0-1.394-.19-2.605-.58-3.634q-.585-1.542-1.68-2.382t-2.67-.84q-1.605 0-2.7.87c-.74.581-1.29 1.385-1.67 2.414-.38 1.028-.56 2.219-.56 3.573 0 1.364.18 2.57.56 3.619.39 1.038.94 1.852 1.67 2.443q1.095.87 2.7.87m54.3-15.53h-6.69q-.18-1.297-.75-2.305a5.9 5.9 0 0 0-1.45-1.74 6.3 6.3 0 0 0-2.05-1.1 7.8 7.8 0 0 0-2.48-.382q-2.43 0-4.23 1.206c-1.21.794-2.14 1.955-2.8 3.482q-.99 2.276-.99 5.528 0 3.343.99 5.619c.67 1.517 1.61 2.662 2.81 3.436q1.8 1.16 4.17 1.16c.89 0 1.7-.117 2.46-.351a6.5 6.5 0 0 0 2.03-1.023 5.8 5.8 0 0 0 1.46-1.665c.4-.651.68-1.394.83-2.229l6.69.03c-.18 1.436-.61 2.82-1.3 4.154a12.4 12.4 0 0 1-2.76 3.558c-1.15 1.038-2.53 1.863-4.13 2.474-1.59.6-3.38.9-5.39.9-2.79 0-5.28-.63-7.48-1.893q-3.285-1.894-5.19-5.482-1.89-3.588-1.89-8.688 0-5.116 1.92-8.704t5.22-5.467c2.2-1.262 4.67-1.893 7.42-1.893q2.715 0 5.04.763 2.34.764 4.14 2.23c1.2.967 2.18 2.153 2.93 3.557.77 1.405 1.25 3.014 1.47 4.826M833.007 177.619l-12.748-5.877-5.878-12.749a4.51 4.51 0 0 0-4.113-2.647 4.52 4.52 0 0 0-4.114 2.647l-5.787 12.749-12.749 5.877a4.52 4.52 0 0 0 0 8.228l12.749 5.786 5.877 12.749a4.53 4.53 0 0 0 4.114 2.647 4.53 4.53 0 0 0 4.114-2.647l5.787-12.749 12.748-5.877c3.527-1.537 3.527-6.6 0-8.137M715.375 269.844c6.242 0 11.302-5.06 11.302-11.302s-5.06-11.302-11.302-11.302-11.302 5.06-11.302 11.302 5.06 11.302 11.302 11.302M769.625 269.844c6.242 0 11.302-5.06 11.302-11.302s-5.06-11.302-11.302-11.302-11.302 5.06-11.302 11.302 5.06 11.302 11.302 11.302"/><path fill="#fff" d="M810.312 220.567c-7.052 0-13.472-4.159-16.456-10.579l-3.707-8.138-8.137-3.707a18.2 18.2 0 0 1-10.579-16.455c0-5.968 3.074-11.393 7.866-14.738-11.211-4.973-23.689-7.867-36.799-7.867-49.91 0-90.417 40.507-90.417 90.417s40.507 90.417 90.417 90.417 90.416-40.507 90.416-90.417c0-13.11-2.893-25.588-7.866-36.8-3.345 4.793-8.77 7.867-14.738 7.867M742.5 321.833c-39.874 0-72.334-32.459-72.334-72.333 0-.452.091-.904 0-1.266 23.509-8.861 42.406-27.034 51.9-50.181a90.41 90.41 0 0 0 70.163 33.364c6.781 0 13.291-.814 19.62-2.17 1.899 6.419 2.984 13.201 2.984 20.253 0 39.874-32.46 72.333-72.333 72.333M1100.01 177.619l-12.75-5.877-5.88-12.749a4.525 4.525 0 0 0-6.56-1.928 4.53 4.53 0 0 0-1.67 1.928l-5.78 12.749-12.75 5.877a4.519 4.519 0 0 0 0 8.228l12.75 5.786 5.87 12.749a4.525 4.525 0 0 0 6.56 1.928 4.53 4.53 0 0 0 1.67-1.928l5.79-12.749 12.75-5.877c3.52-1.537 3.52-6.6 0-8.137M982.375 269.844c6.242 0 11.302-5.06 11.302-11.302s-5.06-11.302-11.302-11.302-11.302 5.06-11.302 11.302 5.06 11.302 11.302 11.302M1036.63 269.844c6.24 0 11.3-5.06 11.3-11.302s-5.06-11.302-11.3-11.302c-6.25 0-11.31 5.06-11.31 11.302s5.06 11.302 11.31 11.302"/><path fill="#fff" d="M1077.31 220.567c-7.05 0-13.47-4.159-16.45-10.579l-3.71-8.138-8.14-3.707a18.3 18.3 0 0 1-7.69-6.686 18.3 18.3 0 0 1-2.89-9.769c0-5.968 3.08-11.393 7.87-14.738-11.21-4.973-23.69-7.867-36.8-7.867-49.91 0-90.417 40.507-90.417 90.417s40.507 90.417 90.417 90.417 90.42-40.507 90.42-90.417c0-13.11-2.9-25.588-7.87-36.8-3.35 4.793-8.77 7.867-14.74 7.867m-67.81 101.266c-39.874 0-72.334-32.459-72.334-72.333 0-.452.091-.904 0-1.266 23.509-8.861 42.406-27.034 51.9-50.181a90.4 90.4 0 0 0 31.314 24.602 90.4 90.4 0 0 0 38.85 8.762c6.78 0 13.29-.814 19.62-2.17 1.9 6.419 2.98 13.201 2.98 20.253 0 39.874-32.46 72.333-72.33 72.333M1367.01 177.619l-12.75-5.877-5.88-12.749a4.525 4.525 0 0 0-6.56-1.928 4.53 4.53 0 0 0-1.67 1.928l-5.78 12.749-12.75 5.877a4.519 4.519 0 0 0 0 8.228l12.75 5.786 5.87 12.749a4.525 4.525 0 0 0 6.56 1.928 4.53 4.53 0 0 0 1.67-1.928l5.79-12.749 12.75-5.877c3.52-1.537 3.52-6.6 0-8.137M1249.38 269.844c6.24 0 11.3-5.06 11.3-11.302s-5.06-11.302-11.3-11.302c-6.25 0-11.31 5.06-11.31 11.302s5.06 11.302 11.31 11.302M1303.63 269.844c6.24 0 11.3-5.06 11.3-11.302s-5.06-11.302-11.3-11.302c-6.25 0-11.31 5.06-11.31 11.302s5.06 11.302 11.31 11.302"/><path fill="#fff" d="M1344.31 220.567c-7.05 0-13.47-4.159-16.45-10.579l-3.71-8.138-8.14-3.707a18.3 18.3 0 0 1-7.69-6.686 18.3 18.3 0 0 1-2.89-9.769c0-5.968 3.08-11.393 7.87-14.738-11.21-4.973-23.69-7.867-36.8-7.867-49.91 0-90.42 40.507-90.42 90.417s40.51 90.417 90.42 90.417 90.42-40.507 90.42-90.417c0-13.11-2.9-25.588-7.87-36.8-3.35 4.793-8.77 7.867-14.74 7.867m-67.81 101.266c-39.87 0-72.33-32.459-72.33-72.333 0-.452.09-.904 0-1.266 23.5-8.861 42.4-27.034 51.9-50.181a90.4 90.4 0 0 0 31.31 24.602 90.4 90.4 0 0 0 38.85 8.762c6.78 0 13.29-.814 19.62-2.17 1.9 6.419 2.98 13.201 2.98 20.253 0 39.874-32.46 72.333-72.33 72.333"/></svg>