<svg xmlns="http://www.w3.org/2000/svg" width="1385" height="774" fill="none" viewBox="0 0 1385 774"><path fill="#18181b" stroke="#fff" stroke-width="3" d="M177.012 607.129a.5.5 0 0 1 .853.151l29.561 81.391a.5.5 0 0 1-.558.663l-85.267-15.094a.5.5 0 0 1-.296-.814z"/><path fill="#fff" d="M123.357 42V10.727h12.521q3.452 0 5.757 1.023 2.305 1.024 3.466 2.84 1.161 1.803 1.161 4.154 0 1.833-.733 3.222a6.3 6.3 0 0 1-2.016 2.26q-1.268.87-2.901 1.237v.305a7 7 0 0 1 3.344 1.008q1.572.93 2.55 2.611.977 1.665.977 3.97 0 2.489-1.237 4.444-1.22 1.94-3.619 3.069Q140.23 42 136.718 42zm6.612-5.406h5.39q2.763 0 4.031-1.053 1.267-1.07 1.267-2.84 0-1.3-.626-2.29-.625-.994-1.786-1.558-1.146-.565-2.733-.565h-5.543zm0-12.78h4.901q1.359 0 2.413-.474 1.068-.489 1.68-1.374.626-.885.626-2.123 0-1.694-1.207-2.733-1.191-1.038-3.39-1.038h-5.023zm28.382 18.629q-2.245 0-4-.779-1.756-.794-2.779-2.336-1.008-1.558-1.008-3.879 0-1.954.718-3.283a5.8 5.8 0 0 1 1.954-2.138 9.5 9.5 0 0 1 2.81-1.221 21.4 21.4 0 0 1 3.329-.58 84 84 0 0 0 3.298-.398q1.252-.198 1.817-.58.565-.38.565-1.13v-.091q0-1.451-.916-2.245-.901-.795-2.566-.794-1.755 0-2.794.779-1.038.763-1.374 1.924l-6.017-.489q.459-2.138 1.802-3.695 1.344-1.573 3.467-2.413 2.138-.855 4.947-.855 1.954 0 3.741.458 1.802.459 3.191 1.42a6.9 6.9 0 0 1 2.215 2.474q.809 1.497.809 3.588V42h-6.169v-3.252h-.183a6.6 6.6 0 0 1-1.512 1.939q-.947.824-2.275 1.298-1.329.458-3.07.458m1.863-4.49q1.435 0 2.535-.565 1.1-.579 1.726-1.557t.626-2.214v-2.49q-.306.2-.84.367-.519.153-1.176.29-.657.122-1.313.23-.657.091-1.191.167-1.146.168-2 .535-.856.366-1.329.992-.474.612-.473 1.527 0 1.329.962 2.031.977.688 2.473.688m26.959 13.331q-3.16 0-5.42-.87-2.245-.856-3.574-2.337t-1.725-3.328l6.016-.81q.275.703.871 1.313.595.611 1.572.978.993.382 2.413.382 2.123 0 3.497-1.039 1.389-1.023 1.389-3.436v-4.29h-.274q-.428.977-1.283 1.847t-2.199 1.42-3.207.55q-2.641 0-4.81-1.221-2.153-1.237-3.435-3.772-1.268-2.55-1.268-6.444 0-3.985 1.298-6.658 1.298-2.672 3.451-4a8.9 8.9 0 0 1 4.749-1.329q1.97 0 3.298.672 1.33.656 2.138 1.65.825.976 1.268 1.923h.244v-3.94h6.459V42.23q0 2.993-1.466 5.009-1.465 2.015-4.062 3.023-2.58 1.023-5.94 1.023m.138-14.506q1.572 0 2.657-.78 1.1-.793 1.679-2.259.596-1.48.596-3.543 0-2.061-.58-3.573-.58-1.527-1.68-2.367t-2.672-.84q-1.603 0-2.703.87-1.1.856-1.664 2.383-.565 1.527-.565 3.527 0 2.031.565 3.512.58 1.466 1.664 2.276 1.1.794 2.703.794m37.056 5.68q-3.558 0-6.154-1.512-2.58-1.527-3.985-4.245-1.405-2.733-1.405-6.337 0-3.633 1.405-6.352 1.405-2.733 3.985-4.245 2.596-1.527 6.154-1.527t6.139 1.527q2.596 1.512 4 4.245 1.405 2.719 1.405 6.352 0 3.604-1.405 6.337-1.404 2.718-4 4.245-2.581 1.512-6.139 1.512m.031-5.039q1.619 0 2.702-.916 1.085-.932 1.634-2.535.565-1.603.565-3.65t-.565-3.649q-.55-1.603-1.634-2.535-1.083-.93-2.702-.931-1.635 0-2.749.931-1.1.931-1.664 2.535-.55 1.603-.55 3.65t.55 3.649q.564 1.604 1.664 2.535 1.114.915 2.749.916m28.356-18.873v4.886h-14.476v-4.886zM241.591 42V16.85q0-2.55.993-4.23a6.38 6.38 0 0 1 2.749-2.519q1.74-.84 3.954-.84 1.497 0 2.734.23 1.252.229 1.863.412l-1.161 4.886a8 8 0 0 0-.947-.229 6 6 0 0 0-1.13-.107q-1.434 0-2 .672-.565.657-.565 1.848V42zm24.02-25.821v-5.452h25.684v5.452h-9.574V42h-6.536V16.179zm36.987 26.28q-3.557 0-6.153-1.513-2.581-1.527-3.986-4.245-1.404-2.733-1.405-6.337 0-3.633 1.405-6.352 1.405-2.733 3.986-4.245 2.596-1.527 6.153-1.527 3.558 0 6.139 1.527 2.596 1.512 4.001 4.245 1.404 2.719 1.404 6.352 0 3.604-1.404 6.337-1.405 2.718-4.001 4.245-2.58 1.512-6.139 1.512m.031-5.04q1.619 0 2.703-.916 1.084-.932 1.634-2.535.565-1.603.565-3.65t-.565-3.649q-.55-1.603-1.634-2.535-1.085-.93-2.703-.931-1.633 0-2.749.931-1.099.931-1.664 2.535-.55 1.603-.55 3.65t.55 3.649q.565 1.604 1.664 2.535 1.116.915 2.749.916m19.003 13.377q-1.236 0-2.321-.2-1.068-.182-1.771-.472l1.466-4.856q1.145.35 2.061.382.932.03 1.604-.428.687-.459 1.114-1.558l.382-.992-8.414-24.126h6.841l4.856 17.224h.245l4.901-17.225h6.887l-9.116 25.99q-.657 1.894-1.787 3.298a7.3 7.3 0 0 1-2.825 2.184q-1.71.778-4.123.778m40.695-25.562-5.956.366a3.07 3.07 0 0 0-.656-1.374q-.504-.626-1.329-.993-.809-.381-1.939-.381-1.512 0-2.55.64-1.038.627-1.038 1.68 0 .84.671 1.42.672.582 2.306.932l4.245.855q3.422.703 5.1 2.26 1.68 1.558 1.68 4.092 0 2.306-1.359 4.047-1.344 1.74-3.695 2.718-2.337.962-5.391.962-4.656 0-7.421-1.94-2.748-1.954-3.222-5.313l6.398-.336q.29 1.42 1.405 2.168 1.115.733 2.856.733 1.71 0 2.748-.656 1.054-.672 1.069-1.726-.015-.886-.748-1.45-.733-.581-2.26-.886l-4.062-.81q-3.435-.687-5.115-2.382-1.665-1.695-1.665-4.32 0-2.261 1.222-3.895 1.237-1.634 3.466-2.52 2.245-.885 5.253-.885 4.444 0 6.994 1.878 2.565 1.878 2.993 5.116M149.102 359.091V386h-5.69v-21.509h-.157l-6.163 3.863v-5.045l6.662-4.218zm24.13 27.303q-3.102 0-5.335-1.314-2.22-1.327-3.416-3.679-1.183-2.352-1.183-5.413 0-3.101 1.196-5.44 1.209-2.352 3.429-3.666 2.221-1.327 5.282-1.327 2.642 0 4.625.96 1.984.959 3.141 2.693 1.155 1.734 1.274 4.073h-5.282q-.223-1.51-1.182-2.431-.947-.932-2.484-.932-1.3 0-2.273.709-.958.696-1.498 2.037-.538 1.34-.538 3.245 0 1.932.525 3.285.539 1.353 1.511 2.063t2.273.709q.96 0 1.722-.394a3.33 3.33 0 0 0 1.274-1.143q.513-.762.67-1.826h5.282q-.131 2.312-1.261 4.073-1.117 1.748-3.088 2.733t-4.664.985m12.597-.394v-20.182h5.597V386zm2.812-22.783q-1.248 0-2.142-.828-.88-.841-.88-2.01 0-1.157.88-1.984a3.02 3.02 0 0 1 2.142-.841q1.248 0 2.128.841.894.827.894 1.984 0 1.169-.894 2.01-.88.828-2.128.828M195.91 386v-20.182h5.426v3.521h.211q.552-1.878 1.852-2.838 1.3-.972 2.996-.972.42 0 .907.053.486.053.854.144v4.967a7 7 0 0 0-1.091-.21 10 10 0 0 0-1.274-.092q-1.236 0-2.208.538a4 4 0 0 0-1.524 1.472q-.552.946-.552 2.181V386zm23.319.394q-3.101 0-5.335-1.314-2.22-1.327-3.416-3.679-1.183-2.352-1.183-5.413 0-3.101 1.196-5.44 1.209-2.352 3.429-3.666 2.222-1.327 5.282-1.327 2.642 0 4.625.96 1.985.959 3.141 2.693t1.274 4.073h-5.282q-.224-1.51-1.182-2.431-.946-.932-2.484-.932-1.3 0-2.273.709-.958.696-1.498 2.037-.538 1.34-.538 3.245 0 1.932.525 3.285.539 1.353 1.511 2.063.973.71 2.273.709.96 0 1.722-.394a3.33 3.33 0 0 0 1.274-1.143q.513-.762.67-1.826h5.282q-.131 2.312-1.261 4.073-1.117 1.748-3.088 2.733t-4.664.985m18.194-27.303V386h-5.597v-26.909zm13.681 27.303q-3.113 0-5.36-1.261-2.234-1.275-3.443-3.6-1.209-2.34-1.209-5.532 0-3.114 1.209-5.466t3.403-3.666q2.207-1.314 5.177-1.314 1.998 0 3.718.644a8.25 8.25 0 0 1 3.022 1.905q1.301 1.275 2.024 3.206.723 1.919.723 4.494v1.537h-17.042v-3.468h11.773q0-1.209-.526-2.142a3.77 3.77 0 0 0-1.458-1.459q-.92-.538-2.142-.538-1.275 0-2.26.591a4.15 4.15 0 0 0-1.524 1.563 4.4 4.4 0 0 0-.565 2.168v3.298q0 1.499.552 2.589a4.04 4.04 0 0 0 1.59 1.682q1.024.591 2.43.591.933 0 1.709-.263a3.55 3.55 0 0 0 1.327-.788q.551-.526.84-1.288l5.177.342a7.05 7.05 0 0 1-1.616 3.258q-1.209 1.38-3.127 2.155-1.905.762-4.402.762M48.193 566v-4.099l9.579-8.869a36 36 0 0 0 2.05-2.129q.84-.946 1.274-1.853.433-.92.433-1.984 0-1.182-.538-2.036a3.53 3.53 0 0 0-1.472-1.327q-.933-.474-2.115-.473-1.236 0-2.155.499a3.44 3.44 0 0 0-1.42 1.432q-.498.933-.498 2.221h-5.4q0-2.641 1.195-4.586 1.196-1.944 3.35-3.009 2.156-1.064 4.967-1.064 2.891 0 5.032 1.025 2.156 1.011 3.35 2.812 1.197 1.8 1.197 4.125a7.9 7.9 0 0 1-.605 3.009q-.592 1.485-2.115 3.298-1.524 1.8-4.297 4.323l-3.928 3.85v.184h11.3V566zm42.657-20.182v4.205H78.696v-4.205zm-9.395-4.835h5.597v18.815q0 .775.237 1.209.236.42.657.591.434.171.998.171.394 0 .789-.066l.604-.118.88 4.165q-.42.132-1.182.303-.762.183-1.853.223-2.023.079-3.547-.539-1.512-.617-2.352-1.918t-.828-3.285zM94.495 566v-20.182h5.427v3.521h.21q.552-1.878 1.853-2.838 1.3-.972 2.996-.972.42 0 .906.053.486.052.854.144v4.967a7 7 0 0 0-1.09-.21 10 10 0 0 0-1.275-.092q-1.235 0-2.207.538a3.96 3.96 0 0 0-1.524 1.472q-.552.946-.552 2.181V566zm15.14 0v-20.182h5.598V566zm2.812-22.783q-1.248 0-2.142-.828-.88-.841-.88-2.01 0-1.157.88-1.984a3.02 3.02 0 0 1 2.142-.841q1.248 0 2.129.841.893.827.893 1.984 0 1.168-.893 2.01-.88.828-2.129.828m13.024 23.164q-1.931 0-3.442-.67-1.512-.684-2.392-2.01-.867-1.34-.867-3.338 0-1.682.618-2.825a5 5 0 0 1 1.682-1.839 8.1 8.1 0 0 1 2.417-1.051 18.5 18.5 0 0 1 2.865-.5 72 72 0 0 0 2.838-.341q1.077-.17 1.563-.499t.486-.973v-.079q0-1.248-.788-1.931-.776-.684-2.207-.683-1.511 0-2.405.67-.893.657-1.182 1.655l-5.177-.42q.394-1.839 1.55-3.18 1.156-1.353 2.983-2.076 1.839-.736 4.257-.736 1.681 0 3.219.395 1.55.393 2.746 1.222a5.9 5.9 0 0 1 1.905 2.128q.697 1.287.697 3.088V566h-5.309v-2.799h-.157a5.7 5.7 0 0 1-1.301 1.669q-.815.71-1.958 1.117-1.143.394-2.641.394m1.603-3.863q1.236 0 2.181-.486a3.87 3.87 0 0 0 1.485-1.34 3.46 3.46 0 0 0 .539-1.905v-2.142a3 3 0 0 1-.723.315q-.447.132-1.012.25-.564.105-1.13.197l-1.024.144a7 7 0 0 0-1.722.46q-.735.316-1.143.854-.407.526-.407 1.314 0 1.143.828 1.748.84.591 2.128.591m19.702-8.186V566h-5.597v-20.182h5.335v3.561h.236a5.64 5.64 0 0 1 2.247-2.786q1.577-1.038 3.824-1.038 2.102 0 3.665.92t2.431 2.628q.867 1.695.867 4.047V566h-5.597v-11.852q.013-1.852-.946-2.89-.959-1.051-2.641-1.051-1.13 0-1.997.486-.854.486-1.34 1.419-.474.92-.487 2.22m26.512 19.657q-2.72 0-4.664-.749-1.932-.736-3.075-2.011-1.143-1.274-1.485-2.864l5.177-.696q.237.604.749 1.13.513.525 1.354.841.853.328 2.076.328 1.826 0 3.008-.893 1.196-.88 1.196-2.957v-3.692h-.236a5.3 5.3 0 0 1-1.104 1.59q-.736.749-1.892 1.222-1.157.473-2.759.473-2.273 0-4.139-1.051-1.853-1.065-2.957-3.246-1.09-2.194-1.09-5.544 0-3.43 1.117-5.729t2.969-3.442a7.67 7.67 0 0 1 4.086-1.144q1.695 0 2.839.579 1.143.564 1.839 1.419.71.84 1.091 1.655h.21v-3.39h5.558v20.379q0 2.575-1.262 4.31t-3.495 2.601q-2.22.88-5.111.881m.118-12.483q1.354 0 2.287-.67.945-.683 1.445-1.944.513-1.275.512-3.049 0-1.773-.499-3.074-.5-1.314-1.445-2.037t-2.3-.722q-1.38 0-2.325.749-.946.735-1.432 2.049-.487 1.314-.487 3.035 0 1.748.487 3.022.499 1.262 1.432 1.958.946.684 2.325.683m19.801-22.415V566h-5.597v-26.909zm13.681 27.303q-3.114 0-5.36-1.261-2.234-1.275-3.443-3.6-1.209-2.34-1.209-5.532 0-3.114 1.209-5.466t3.403-3.666q2.208-1.314 5.177-1.314 1.997 0 3.718.644a8.25 8.25 0 0 1 3.022 1.905q1.302 1.275 2.024 3.206.722 1.918.722 4.494v1.537H199.11v-3.468h11.773q0-1.209-.526-2.142a3.77 3.77 0 0 0-1.458-1.459q-.92-.538-2.142-.538-1.275 0-2.26.591a4.15 4.15 0 0 0-1.524 1.563 4.4 4.4 0 0 0-.565 2.168v3.298q0 1.498.552 2.589a4.04 4.04 0 0 0 1.59 1.682q1.024.591 2.43.591.934 0 1.708-.263.776-.263 1.327-.788.552-.526.841-1.288l5.177.342a7.06 7.06 0 0 1-1.616 3.258q-1.209 1.38-3.127 2.155-1.905.762-4.402.762m29.708-14.821-5.124.315a2.66 2.66 0 0 0-.565-1.182 3 3 0 0 0-1.143-.854q-.697-.329-1.669-.329-1.301 0-2.194.552-.894.538-.894 1.446 0 .722.578 1.222.579.499 1.984.801l3.653.736q2.943.605 4.389 1.944 1.445 1.341 1.445 3.522 0 1.983-1.169 3.482-1.156 1.498-3.18 2.338-2.01.828-4.638.828-4.007 0-6.386-1.669-2.365-1.682-2.772-4.572l5.505-.289q.249 1.223 1.209 1.866.959.63 2.457.63 1.471 0 2.365-.565.906-.578.92-1.484-.014-.762-.644-1.249-.631-.498-1.945-.762l-3.495-.696q-2.957-.59-4.401-2.05-1.433-1.458-1.433-3.718 0-1.944 1.052-3.351 1.064-1.405 2.982-2.168 1.932-.762 4.52-.762 3.824 0 6.018 1.617 2.207 1.616 2.575 4.401M273.563 539.091V566h-5.689v-21.509h-.158l-6.162 3.863v-5.045l6.662-4.218zm31.804 12.482-5.124.315a2.66 2.66 0 0 0-.565-1.182 3 3 0 0 0-1.144-.854q-.696-.329-1.668-.329-1.301 0-2.194.552-.894.538-.894 1.446 0 .722.578 1.222.579.499 1.984.801l3.653.736q2.943.605 4.388 1.944 1.446 1.341 1.446 3.522 0 1.983-1.17 3.482-1.155 1.498-3.179 2.338-2.012.828-4.638.828-4.008 0-6.386-1.669-2.365-1.682-2.772-4.572l5.505-.289q.249 1.223 1.209 1.866.959.63 2.457.63 1.471 0 2.365-.565.906-.578.919-1.484-.012-.762-.643-1.249-.631-.498-1.945-.762l-3.495-.696q-2.956-.59-4.402-2.05-1.432-1.458-1.432-3.718 0-1.944 1.051-3.351 1.065-1.405 2.983-2.168 1.932-.762 4.52-.762 3.824 0 6.018 1.617 2.207 1.616 2.575 4.401m17.321 21.995v-10.8h-.171a7.2 7.2 0 0 1-1.117 1.668q-.71.816-1.853 1.354-1.13.538-2.759.538-2.3 0-4.165-1.182-1.853-1.196-2.943-3.508-1.078-2.326-1.078-5.703 0-3.468 1.117-5.768 1.118-2.312 2.97-3.455a7.6 7.6 0 0 1 4.086-1.157q1.695 0 2.825.579 1.143.564 1.839 1.419.71.84 1.078 1.655h.236v-3.39h5.519v27.75zm-4.126-11.694q1.353 0 2.286-.736.947-.748 1.445-2.089.513-1.34.513-3.14t-.499-3.127q-.5-1.327-1.446-2.05-.945-.722-2.299-.722-1.38 0-2.326.749-.945.749-1.432 2.076-.486 1.326-.486 3.074 0 1.761.486 3.114.5 1.34 1.432 2.102.946.75 2.326.749m27.146-4.467v-11.589h5.597V566h-5.374v-3.666h-.21a5.96 5.96 0 0 1-2.273 2.851q-1.578 1.078-3.85 1.078-2.023 0-3.561-.92t-2.404-2.615q-.855-1.695-.868-4.06v-12.85h5.598v11.852q.012 1.787.959 2.825.946 1.038 2.536 1.038 1.011 0 1.892-.46a3.6 3.6 0 0 0 1.419-1.393q.552-.92.539-2.273m15.829 8.974q-1.932 0-3.442-.67-1.512-.684-2.392-2.01-.867-1.34-.867-3.338 0-1.682.618-2.825a5 5 0 0 1 1.681-1.839 8.2 8.2 0 0 1 2.418-1.051 18.5 18.5 0 0 1 2.864-.5 72 72 0 0 0 2.838-.341q1.078-.17 1.564-.499t.486-.973v-.079q0-1.248-.788-1.931-.776-.684-2.208-.683-1.51 0-2.404.67-.894.657-1.183 1.655l-5.177-.42q.394-1.839 1.551-3.18 1.156-1.353 2.983-2.076 1.839-.736 4.257-.736 1.682 0 3.219.395 1.55.393 2.746 1.222a5.9 5.9 0 0 1 1.905 2.128q.696 1.287.696 3.088V566h-5.308v-2.799h-.158a5.7 5.7 0 0 1-1.3 1.669q-.815.71-1.958 1.117-1.143.394-2.641.394m1.603-3.863q1.235 0 2.181-.486a3.87 3.87 0 0 0 1.485-1.34 3.46 3.46 0 0 0 .539-1.905v-2.142a3 3 0 0 1-.723.315q-.447.132-1.012.25-.565.105-1.13.197l-1.025.144q-.985.145-1.721.46t-1.143.854q-.407.526-.407 1.314 0 1.143.827 1.748.842.591 2.129.591M377.245 566v-20.182h5.426v3.521h.211q.552-1.878 1.852-2.838 1.3-.972 2.996-.972.42 0 .907.053.486.052.854.144v4.967a7 7 0 0 0-1.091-.21 10 10 0 0 0-1.274-.092q-1.236 0-2.208.538a4 4 0 0 0-1.524 1.472q-.552.946-.552 2.181V566zm23.398.394q-3.114 0-5.361-1.261-2.234-1.275-3.443-3.6-1.209-2.34-1.209-5.532 0-3.114 1.209-5.466t3.403-3.666q2.208-1.314 5.177-1.314 1.998 0 3.719.644a8.3 8.3 0 0 1 3.022 1.905q1.3 1.275 2.023 3.206.723 1.918.723 4.494v1.537h-17.042v-3.468h11.773q0-1.209-.526-2.142a3.77 3.77 0 0 0-1.458-1.459q-.92-.538-2.142-.538-1.275 0-2.26.591a4.15 4.15 0 0 0-1.524 1.563 4.4 4.4 0 0 0-.565 2.168v3.298q0 1.498.552 2.589a4.05 4.05 0 0 0 1.59 1.682q1.024.591 2.431.591.932 0 1.708-.263a3.55 3.55 0 0 0 1.327-.788q.552-.526.841-1.288l5.176.342a7.05 7.05 0 0 1-1.616 3.258q-1.209 1.38-3.127 2.155-1.905.762-4.401.762M293.463 387.86v26.909h-5.689V393.26h-.158l-6.162 3.863v-5.045l6.661-4.218zm31.803 12.482-5.124.316a2.65 2.65 0 0 0-.565-1.183 3 3 0 0 0-1.143-.854q-.697-.329-1.669-.329-1.3 0-2.194.552-.894.538-.893 1.446 0 .722.578 1.222.577.499 1.984.801l3.652.736q2.943.605 4.389 1.944 1.445 1.341 1.445 3.522 0 1.983-1.169 3.482-1.157 1.498-3.18 2.338-2.01.828-4.638.828-4.008 0-6.386-1.668-2.365-1.683-2.772-4.573l5.505-.289q.25 1.223 1.209 1.866.96.63 2.457.63 1.471 0 2.365-.565.907-.578.92-1.484-.013-.762-.644-1.248-.63-.5-1.945-.763l-3.495-.696q-2.956-.59-4.401-2.05-1.432-1.458-1.432-3.718 0-1.944 1.051-3.351 1.063-1.405 2.982-2.167 1.932-.763 4.52-.763 3.823 0 6.018 1.617 2.208 1.615 2.575 4.401m14.719-5.755v4.205h-12.153v-4.205zm-9.394-4.835h5.597v18.815q0 .775.237 1.209.235.42.657.591.434.171.998.171.394 0 .789-.065.394-.079.604-.119l.88 4.165q-.42.132-1.182.303-.762.183-1.853.223-2.023.08-3.547-.539-1.512-.617-2.352-1.918-.841-1.3-.828-3.285zm18.796 25.398q-1.932 0-3.443-.67-1.51-.684-2.391-2.01-.867-1.34-.867-3.338 0-1.682.617-2.825a5 5 0 0 1 1.682-1.839 8.1 8.1 0 0 1 2.418-1.051 18.4 18.4 0 0 1 2.864-.5 72 72 0 0 0 2.838-.341q1.077-.17 1.564-.499.486-.329.486-.973v-.079q0-1.248-.789-1.931-.774-.684-2.207-.683-1.51 0-2.405.67-.893.657-1.182 1.655l-5.177-.42q.394-1.839 1.551-3.18 1.156-1.353 2.982-2.076 1.839-.736 4.257-.736 1.682 0 3.219.395 1.55.393 2.746 1.222a5.94 5.94 0 0 1 1.906 2.128q.696 1.288.696 3.088v13.612h-5.308v-2.799h-.158a5.7 5.7 0 0 1-1.301 1.669q-.814.71-1.957 1.117-1.144.394-2.641.394m1.603-3.863q1.234 0 2.181-.486a3.87 3.87 0 0 0 1.484-1.34 3.45 3.45 0 0 0 .539-1.905v-2.142a3 3 0 0 1-.723.315 13 13 0 0 1-1.011.25q-.566.105-1.13.197l-1.025.145a7 7 0 0 0-1.721.459q-.737.316-1.143.854-.408.526-.408 1.314 0 1.143.828 1.748.841.591 2.129.591m14.105 3.482v-20.182h5.426v3.522h.21q.552-1.88 1.853-2.839 1.3-.972 2.996-.972.42 0 .906.053t.854.144v4.967a7 7 0 0 0-1.09-.21 10 10 0 0 0-1.275-.092q-1.235 0-2.207.538a3.96 3.96 0 0 0-1.524 1.472q-.552.946-.552 2.181v11.418z"/><path stroke="#fff" stroke-width="4" d="M272.71 248.149c41.613 32.866 87.126 86.911 122.292 143.001 17.651 28.153 32.666 56.774 43.263 83.431C448.872 501.266 455 525.857 455 545.988c0 107.981-89.461 225.877-218.497 225.877-64.404-.001-115.998-33.805-151.558-79.053C49.36 647.529 30 590.987 30 545.988c0-18.644 5.723-42.302 15.67-68.483 9.936-26.148 24.031-54.675 40.647-83.015 33.093-56.442 76.076-111.951 115.874-146.341z"/><path stroke="#fff" stroke-linecap="round" stroke-width="12" d="M179.303 244.861h116.244"/><path stroke="#fff" stroke-linecap="round" stroke-width="10" d="M267.872 253.529s.354 14.253 9.225 30.445c7.98 14.566 16.606 23.065 16.606 23.065"/><path stroke="#fff" stroke-linecap="round" stroke-width="8" d="M246.651 253.53s-3.8 19.578-4.613 32.29c-.667 10.427.001 26.755.001 26.755"/><path stroke="#fff" stroke-width="4" d="M327.839 123.445c-5.86-10.148-175.291-6.885-177.136 0s63.663 124.55 63.663 124.55h53.503s65.829-114.401 59.97-124.55Z"/><path stroke="#fff" stroke-width="3" d="M198.5 418.5c22.627 0 41 18.564 41 41.5s-18.373 41.5-41 41.5-41-18.564-41-41.5 18.373-41.5 41-41.5Z"/><path fill="#18181b" stroke="#fff" stroke-width="3" d="M123.387 597.881a.5.5 0 0 1 .81-.308l67.158 54.664a.501.501 0 0 1-.138.856l-80.919 30.828a.501.501 0 0 1-.673-.547z"/><path stroke="#fff" stroke-width="3" d="M350.19 467.982a2.5 2.5 0 0 0 1.875 2.264l31.165 7.979-29.903 11.863a2.5 2.5 0 0 0-1.573 2.483l2.041 32.106-20.523-24.774-.135-.151a2.5 2.5 0 0 0-2.521-.645l-.191.067-29.903 11.862 17.218-27.173a2.5 2.5 0 0 0-.186-2.934l-20.523-24.774 31.166 7.98a2.5 2.5 0 0 0 2.732-1.084l17.219-27.175z"/><rect width="71.685" height="71.685" x="275.713" y="593.775" stroke="#fff" stroke-width="3" rx="3.5" transform="rotate(-8.876 275.713 593.775)"/><path fill="#fff" d="M696.784 247.676h-6.688q-.183-1.298-.749-2.306a5.9 5.9 0 0 0-1.45-1.741 6.4 6.4 0 0 0-2.046-1.099 7.8 7.8 0 0 0-2.489-.382q-2.429 0-4.23 1.206-1.802 1.191-2.795 3.482-.992 2.275-.992 5.528 0 3.343.992 5.619 1.008 2.275 2.81 3.436 1.802 1.16 4.169 1.16a8.3 8.3 0 0 0 2.458-.351 6.5 6.5 0 0 0 2.031-1.023 5.9 5.9 0 0 0 1.466-1.665 6.5 6.5 0 0 0 .825-2.229l6.688.031a12.1 12.1 0 0 1-1.298 4.153 12.5 12.5 0 0 1-2.764 3.558q-1.726 1.557-4.123 2.474-2.382.9-5.39.901-4.183 0-7.482-1.894-3.284-1.893-5.192-5.482-1.894-3.588-1.894-8.688 0-5.116 1.924-8.704 1.925-3.588 5.223-5.467 3.298-1.893 7.421-1.893 2.718 0 5.039.763 2.337.763 4.138 2.23a11.5 11.5 0 0 1 2.932 3.557q1.145 2.108 1.466 4.826m11.124 6.764V268h-6.505v-31.273h6.322v11.957H708q.793-2.077 2.565-3.253 1.772-1.191 4.443-1.191 2.443 0 4.261 1.069 1.832 1.053 2.84 3.039 1.023 1.97 1.008 4.718V268h-6.505v-13.773q.016-2.169-1.1-3.375-1.1-1.206-3.084-1.206-1.329 0-2.352.565-1.008.564-1.588 1.649-.564 1.069-.58 2.58M728.236 268v-23.455h6.505V268zm3.268-26.478q-1.45 0-2.489-.962-1.023-.977-1.023-2.336 0-1.344 1.023-2.306 1.038-.978 2.489-.977 1.45 0 2.473.977 1.04.962 1.039 2.306 0 1.358-1.039 2.336-1.023.962-2.473.962m14.953-4.795V268h-6.505v-31.273zm13.853 31.655q-2.672 0-4.84-1.375-2.154-1.389-3.421-4.077-1.251-2.701-1.252-6.627 0-4.031 1.298-6.703 1.299-2.688 3.451-4.016a8.84 8.84 0 0 1 4.749-1.344q1.97 0 3.283.672 1.328.656 2.138 1.649.825.978 1.252 1.924h.199v-11.758h6.489V268h-6.413v-3.756h-.275q-.458.977-1.298 1.939-.824.946-2.153 1.573-1.312.626-3.207.626m2.062-5.177q1.572 0 2.657-.855 1.1-.87 1.679-2.428.596-1.558.596-3.649t-.58-3.635q-.58-1.542-1.68-2.382t-2.672-.839q-1.603 0-2.703.87t-1.664 2.413q-.565 1.542-.565 3.573 0 2.046.565 3.619.58 1.557 1.664 2.443 1.1.87 2.703.87M794.469 268h-7.085l10.796-31.273h8.52L817.481 268h-7.085l-7.834-24.126h-.244zm-.443-12.292h16.736v5.161h-16.736zM965.653 247.676h-6.689q-.183-1.298-.748-2.306a5.9 5.9 0 0 0-1.451-1.741 6.4 6.4 0 0 0-2.046-1.099 7.8 7.8 0 0 0-2.489-.382q-2.427 0-4.229 1.206-1.803 1.191-2.795 3.482-.992 2.275-.992 5.528 0 3.343.992 5.619 1.008 2.275 2.81 3.436 1.802 1.16 4.168 1.16 1.33 0 2.459-.351a6.5 6.5 0 0 0 2.031-1.023 5.9 5.9 0 0 0 1.466-1.665 6.5 6.5 0 0 0 .824-2.229l6.689.031a12.1 12.1 0 0 1-1.298 4.153 12.5 12.5 0 0 1-2.764 3.558q-1.726 1.557-4.123 2.474-2.382.9-5.39.901-4.185 0-7.483-1.894-3.283-1.893-5.191-5.482-1.894-3.588-1.894-8.688 0-5.116 1.924-8.704 1.925-3.588 5.222-5.467 3.298-1.893 7.422-1.893 2.717 0 5.039.763 2.336.763 4.138 2.23a11.5 11.5 0 0 1 2.932 3.557q1.145 2.108 1.466 4.826m11.124 6.764V268h-6.505v-31.273h6.321v11.957h.275q.795-2.077 2.566-3.253 1.77-1.191 4.443-1.191 2.444 0 4.26 1.069 1.833 1.053 2.841 3.039 1.023 1.97 1.007 4.718V268h-6.505v-13.773q.016-2.169-1.099-3.375-1.1-1.206-3.084-1.206-1.329 0-2.352.565-1.008.564-1.588 1.649-.565 1.069-.58 2.58M997.105 268v-23.455h6.505V268zm3.265-26.478q-1.447 0-2.487-.962-1.023-.977-1.023-2.336 0-1.344 1.023-2.306 1.04-.978 2.487-.977c.97 0 1.79.325 2.48.977.69.641 1.03 1.41 1.03 2.306 0 .906-.34 1.684-1.03 2.336-.69.641-1.51.962-2.48.962m14.96-4.795V268h-6.51v-31.273zm13.85 31.655c-1.78 0-3.4-.458-4.84-1.375q-2.16-1.389-3.42-4.077c-.84-1.801-1.25-4.01-1.25-6.627q0-4.031 1.29-6.703 1.305-2.688 3.45-4.016a8.86 8.86 0 0 1 4.75-1.344c1.32 0 2.41.224 3.29.672.88.438 1.6.987 2.13 1.649q.825.978 1.26 1.924h.2v-11.758h6.48V268h-6.41v-3.756h-.27a8.6 8.6 0 0 1-1.3 1.939c-.55.631-1.27 1.155-2.15 1.573q-1.32.626-3.21.626m2.06-5.177c1.05 0 1.93-.285 2.66-.855q1.095-.87 1.68-2.428c.39-1.038.59-2.255.59-3.649s-.19-2.606-.58-3.635q-.57-1.542-1.68-2.382-1.095-.84-2.67-.839-1.605 0-2.7.87c-.74.58-1.29 1.384-1.67 2.413-.37 1.028-.56 2.219-.56 3.573 0 1.364.19 2.57.56 3.619.39 1.038.94 1.852 1.67 2.443q1.095.87 2.7.87m26.71 4.795v-31.273h12.52q3.45 0 5.76 1.023c1.53.682 2.69 1.629 3.46 2.841.78 1.201 1.16 2.585 1.16 4.153 0 1.222-.24 2.296-.73 3.222a6.3 6.3 0 0 1-2.02 2.26c-.84.58-1.81.992-2.9 1.237v.305c1.19.051 2.31.387 3.35 1.008q1.575.931 2.55 2.611c.65 1.11.97 2.433.97 3.97q0 2.49-1.23 4.444c-.82 1.293-2.02 2.316-3.62 3.069q-2.4 1.13-5.91 1.13zm6.61-5.406h5.39c1.84 0 3.19-.351 4.03-1.053.85-.713 1.27-1.659 1.27-2.84q0-1.298-.63-2.291c-.42-.662-1.01-1.181-1.78-1.557-.77-.377-1.68-.565-2.74-.565h-5.54zm0-12.78h4.9c.91 0 1.71-.158 2.41-.474q1.08-.489 1.68-1.374.63-.886.63-2.123c0-1.13-.4-2.041-1.21-2.733q-1.185-1.038-3.39-1.038h-5.02zM1230.7 247.676h-6.69q-.18-1.298-.75-2.306a5.8 5.8 0 0 0-1.45-1.741 6.4 6.4 0 0 0-2.04-1.099 7.9 7.9 0 0 0-2.49-.382q-2.43 0-4.23 1.206c-1.2.794-2.13 1.955-2.8 3.482q-.99 2.275-.99 5.528 0 3.343.99 5.619c.68 1.517 1.61 2.662 2.81 3.436q1.8 1.16 4.17 1.16 1.335 0 2.46-.351a6.5 6.5 0 0 0 2.03-1.023 6 6 0 0 0 1.47-1.665 6.6 6.6 0 0 0 .82-2.229l6.69.031c-.17 1.435-.61 2.819-1.3 4.153a12.5 12.5 0 0 1-2.76 3.558c-1.15 1.038-2.53 1.863-4.12 2.474q-2.385.9-5.4.901c-2.78 0-5.28-.632-7.48-1.894q-3.285-1.893-5.19-5.482-1.89-3.588-1.89-8.688 0-5.116 1.92-8.704t5.22-5.467c2.2-1.262 4.68-1.893 7.42-1.893q2.73 0 5.04.763 2.34.763 4.14 2.23a11.4 11.4 0 0 1 2.93 3.557q1.155 2.108 1.47 4.826m11.12 6.764V268h-6.5v-31.273h6.32v11.957h.28c.52-1.385 1.38-2.469 2.56-3.253q1.77-1.191 4.44-1.191 2.445 0 4.26 1.069c1.23.702 2.17 1.715 2.84 3.039.69 1.313 1.02 2.886 1.01 4.718V268h-6.5v-13.773c.01-1.446-.36-2.571-1.1-3.375q-1.095-1.206-3.09-1.206c-.88 0-1.67.188-2.35.565q-1.005.564-1.59 1.649c-.37.712-.57 1.573-.58 2.58m20.33 13.56v-23.455h6.51V268zm3.27-26.478q-1.455 0-2.49-.962-1.02-.977-1.02-2.336 0-1.344 1.02-2.306 1.035-.978 2.49-.977c.97 0 1.79.325 2.47.977.7.641 1.04 1.41 1.04 2.306 0 .906-.34 1.684-1.04 2.336-.68.641-1.5.962-2.47.962m14.95-4.795V268h-6.5v-31.273zm13.86 31.655c-1.79 0-3.4-.458-4.84-1.375q-2.16-1.389-3.42-4.077-1.26-2.701-1.26-6.627c0-2.687.44-4.922 1.3-6.703q1.305-2.688 3.45-4.016a8.86 8.86 0 0 1 4.75-1.344c1.31 0 2.41.224 3.28.672.89.438 1.6.987 2.14 1.649.55.652.97 1.293 1.25 1.924h.2v-11.758h6.49V268h-6.41v-3.756h-.28q-.45.977-1.29 1.939-.825.946-2.16 1.573c-.87.417-1.94.626-3.2.626m2.06-5.177c1.05 0 1.93-.285 2.65-.855q1.11-.87 1.68-2.428.6-1.558.6-3.649c0-1.395-.19-2.606-.58-3.635q-.585-1.542-1.68-2.382t-2.67-.839q-1.605 0-2.7.87c-.74.58-1.29 1.384-1.67 2.413s-.56 2.219-.56 3.573c0 1.364.18 2.57.56 3.619.39 1.038.94 1.852 1.67 2.443q1.095.87 2.7.87m54.3-15.529h-6.69q-.18-1.298-.75-2.306a5.9 5.9 0 0 0-1.45-1.741 6.3 6.3 0 0 0-2.05-1.099 7.8 7.8 0 0 0-2.48-.382q-2.43 0-4.23 1.206c-1.21.794-2.14 1.955-2.8 3.482q-.99 2.275-.99 5.528 0 3.343.99 5.619c.67 1.517 1.61 2.662 2.81 3.436q1.8 1.16 4.17 1.16c.89 0 1.7-.117 2.46-.351a6.5 6.5 0 0 0 2.03-1.023 5.8 5.8 0 0 0 1.46-1.665c.4-.651.68-1.394.83-2.229l6.69.031a12.3 12.3 0 0 1-1.3 4.153 12.5 12.5 0 0 1-2.76 3.558c-1.15 1.038-2.53 1.863-4.13 2.474-1.59.6-3.38.901-5.39.901-2.79 0-5.28-.632-7.48-1.894q-3.285-1.893-5.19-5.482-1.89-3.588-1.89-8.688 0-5.116 1.92-8.704t5.22-5.467c2.2-1.262 4.67-1.893 7.42-1.893q2.715 0 5.04.763 2.34.763 4.14 2.23a11.4 11.4 0 0 1 2.93 3.557c.77 1.405 1.25 3.014 1.47 4.826M833.007 367.619l-12.748-5.877-5.878-12.749a4.51 4.51 0 0 0-4.113-2.647 4.52 4.52 0 0 0-4.114 2.647l-5.787 12.749-12.749 5.877a4.52 4.52 0 0 0 0 8.228l12.749 5.786 5.877 12.749a4.53 4.53 0 0 0 4.114 2.647 4.53 4.53 0 0 0 4.114-2.647l5.787-12.749 12.748-5.877c3.527-1.537 3.527-6.6 0-8.137M715.375 459.844c6.242 0 11.302-5.06 11.302-11.302s-5.06-11.302-11.302-11.302-11.302 5.06-11.302 11.302 5.06 11.302 11.302 11.302M769.625 459.844c6.242 0 11.302-5.06 11.302-11.302s-5.06-11.302-11.302-11.302-11.302 5.06-11.302 11.302 5.06 11.302 11.302 11.302"/><path fill="#fff" d="M810.313 410.567c-7.053 0-13.472-4.159-16.456-10.579l-3.707-8.138-8.138-3.707a18.21 18.21 0 0 1-10.578-16.455c0-5.968 3.074-11.393 7.866-14.738-11.212-4.973-23.689-7.867-36.8-7.867-49.91 0-90.417 40.507-90.417 90.417s40.507 90.417 90.417 90.417 90.417-40.507 90.417-90.417c0-13.11-2.894-25.588-7.866-36.8-3.346 4.793-8.771 7.867-14.738 7.867M742.5 511.833c-39.874 0-72.333-32.459-72.333-72.333 0-.452.09-.904 0-1.266 23.508-8.861 42.405-27.034 51.899-50.181a90.41 90.41 0 0 0 70.163 33.364c6.782 0 13.292-.814 19.621-2.17 1.898 6.419 2.983 13.201 2.983 20.253 0 39.874-32.459 72.333-72.333 72.333M1100.01 367.619l-12.75-5.877-5.88-12.749a4.525 4.525 0 0 0-6.56-1.928 4.53 4.53 0 0 0-1.67 1.928l-5.78 12.749-12.75 5.877a4.519 4.519 0 0 0 0 8.228l12.75 5.786 5.87 12.749a4.525 4.525 0 0 0 6.56 1.928 4.53 4.53 0 0 0 1.67-1.928l5.79-12.749 12.75-5.877c3.52-1.537 3.52-6.6 0-8.137M982.375 459.844c6.242 0 11.302-5.06 11.302-11.302s-5.06-11.302-11.302-11.302-11.302 5.06-11.302 11.302 5.06 11.302 11.302 11.302M1036.62 459.844c6.25 0 11.31-5.06 11.31-11.302s-5.06-11.302-11.31-11.302c-6.24 0-11.3 5.06-11.3 11.302s5.06 11.302 11.3 11.302"/><path fill="#fff" d="M1077.31 410.567c-7.05 0-13.47-4.159-16.45-10.579l-3.71-8.138-8.14-3.707a18.2 18.2 0 0 1-7.68-6.686 18.2 18.2 0 0 1-2.9-9.769c0-5.968 3.08-11.393 7.87-14.738-11.21-4.973-23.69-7.867-36.8-7.867-49.91 0-90.417 40.507-90.417 90.417s40.507 90.417 90.417 90.417 90.42-40.507 90.42-90.417c0-13.11-2.9-25.588-7.87-36.8-3.34 4.793-8.77 7.867-14.74 7.867m-67.81 101.266c-39.874 0-72.333-32.459-72.333-72.333 0-.452.09-.904 0-1.266 23.508-8.861 42.405-27.034 51.899-50.181a90.4 90.4 0 0 0 31.314 24.602 90.4 90.4 0 0 0 38.85 8.762c6.78 0 13.29-.814 19.62-2.17 1.9 6.419 2.98 13.201 2.98 20.253 0 39.874-32.46 72.333-72.33 72.333M1367.01 367.619l-12.75-5.877-5.88-12.749a4.525 4.525 0 0 0-6.56-1.928 4.53 4.53 0 0 0-1.67 1.928l-5.78 12.749-12.75 5.877a4.519 4.519 0 0 0 0 8.228l12.75 5.786 5.87 12.749a4.525 4.525 0 0 0 6.56 1.928 4.53 4.53 0 0 0 1.67-1.928l5.79-12.749 12.75-5.877c3.52-1.537 3.52-6.6 0-8.137M1249.37 459.844c6.25 0 11.31-5.06 11.31-11.302s-5.06-11.302-11.31-11.302c-6.24 0-11.3 5.06-11.3 11.302s5.06 11.302 11.3 11.302M1303.62 459.844c6.25 0 11.31-5.06 11.31-11.302s-5.06-11.302-11.31-11.302c-6.24 0-11.3 5.06-11.3 11.302s5.06 11.302 11.3 11.302"/><path fill="#fff" d="M1344.31 410.567c-7.05 0-13.47-4.159-16.45-10.579l-3.71-8.138-8.14-3.707a18.2 18.2 0 0 1-7.68-6.686 18.2 18.2 0 0 1-2.9-9.769c0-5.968 3.08-11.393 7.87-14.738-11.21-4.973-23.69-7.867-36.8-7.867-49.91 0-90.42 40.507-90.42 90.417s40.51 90.417 90.42 90.417 90.42-40.507 90.42-90.417c0-13.11-2.9-25.588-7.87-36.8-3.34 4.793-8.77 7.867-14.74 7.867m-67.81 101.266c-39.87 0-72.33-32.459-72.33-72.333 0-.452.09-.904 0-1.266 23.51-8.861 42.4-27.034 51.9-50.181a90.4 90.4 0 0 0 31.31 24.602 90.4 90.4 0 0 0 38.85 8.762c6.78 0 13.29-.814 19.62-2.17 1.9 6.419 2.98 13.201 2.98 20.253 0 39.874-32.46 72.333-72.33 72.333"/></svg>