<svg width="942" height="503" viewBox="0 0 942 503" fill="none" xmlns="http://www.w3.org/2000/svg">
<path d="M5.52131 294V270.727H19.4759V273.227H8.33949V281.091H18.4304V283.591H8.33949V294H5.52131ZM23.7514 294V276.545H26.3423V279.182H26.5241C26.8423 278.318 27.4181 277.617 28.2514 277.08C29.0848 276.542 30.0241 276.273 31.0696 276.273C31.2666 276.273 31.5128 276.277 31.8082 276.284C32.1037 276.292 32.3272 276.303 32.4787 276.318V279.045C32.3878 279.023 32.1795 278.989 31.8537 278.943C31.5355 278.89 31.1984 278.864 30.8423 278.864C29.9938 278.864 29.2363 279.042 28.5696 279.398C27.9105 279.746 27.3878 280.231 27.0014 280.852C26.6226 281.466 26.4332 282.167 26.4332 282.955V294H23.7514ZM40.794 294.409C39.688 294.409 38.6842 294.201 37.7827 293.784C36.8812 293.36 36.1652 292.75 35.6349 291.955C35.1046 291.152 34.8395 290.182 34.8395 289.045C34.8395 288.045 35.0365 287.235 35.4304 286.614C35.8243 285.985 36.3509 285.492 37.0099 285.136C37.669 284.78 38.3963 284.515 39.1918 284.341C39.9948 284.159 40.8016 284.015 41.6122 283.909C42.6728 283.773 43.5327 283.67 44.1918 283.602C44.8584 283.527 45.3433 283.402 45.6463 283.227C45.9569 283.053 46.1122 282.75 46.1122 282.318V282.227C46.1122 281.106 45.8054 280.235 45.1918 279.614C44.5857 278.992 43.6652 278.682 42.4304 278.682C41.1501 278.682 40.1463 278.962 39.419 279.523C38.6918 280.083 38.1804 280.682 37.8849 281.318L35.3395 280.409C35.794 279.348 36.4001 278.523 37.1577 277.932C37.9228 277.333 38.7562 276.917 39.6577 276.682C40.5668 276.439 41.4607 276.318 42.3395 276.318C42.9001 276.318 43.544 276.386 44.2713 276.523C45.0062 276.652 45.7145 276.92 46.3963 277.33C47.0857 277.739 47.6577 278.356 48.1122 279.182C48.5668 280.008 48.794 281.114 48.794 282.5V294H46.1122V291.636H45.9759C45.794 292.015 45.491 292.42 45.0668 292.852C44.6425 293.284 44.0781 293.652 43.3736 293.955C42.669 294.258 41.8092 294.409 40.794 294.409ZM41.2031 292C42.2637 292 43.1577 291.792 43.8849 291.375C44.6198 290.958 45.1728 290.42 45.544 289.761C45.9228 289.102 46.1122 288.409 46.1122 287.682V285.227C45.9986 285.364 45.7486 285.489 45.3622 285.602C44.9834 285.708 44.544 285.803 44.044 285.886C43.5516 285.962 43.0705 286.03 42.6009 286.091C42.1387 286.144 41.7637 286.189 41.4759 286.227C40.7789 286.318 40.1274 286.466 39.5213 286.67C38.9228 286.867 38.438 287.167 38.0668 287.568C37.7031 287.962 37.5213 288.5 37.5213 289.182C37.5213 290.114 37.866 290.818 38.5554 291.295C39.2524 291.765 40.1349 292 41.2031 292ZM53.6889 294V276.545H56.2798V279.273H56.5071C56.8707 278.341 57.4579 277.617 58.2685 277.102C59.0791 276.58 60.0526 276.318 61.1889 276.318C62.3404 276.318 63.2988 276.58 64.0639 277.102C64.8366 277.617 65.4389 278.341 65.8707 279.273H66.0526C66.4995 278.371 67.17 277.655 68.0639 277.125C68.9579 276.587 70.0298 276.318 71.2798 276.318C72.8404 276.318 74.117 276.807 75.1094 277.784C76.1018 278.754 76.598 280.265 76.598 282.318V294H73.9162V282.318C73.9162 281.03 73.5639 280.11 72.8594 279.557C72.1548 279.004 71.3253 278.727 70.3707 278.727C69.1435 278.727 68.1927 279.098 67.5185 279.841C66.8442 280.576 66.5071 281.508 66.5071 282.636V294H63.7798V282.045C63.7798 281.053 63.4579 280.254 62.8139 279.648C62.17 279.034 61.3404 278.727 60.3253 278.727C59.6283 278.727 58.9768 278.913 58.3707 279.284C57.7723 279.655 57.2874 280.17 56.9162 280.83C56.5526 281.481 56.3707 282.235 56.3707 283.091V294H53.6889ZM88.8196 294.364C87.1378 294.364 85.687 293.992 84.4673 293.25C83.2552 292.5 82.3196 291.455 81.6605 290.114C81.009 288.765 80.6832 287.197 80.6832 285.409C80.6832 283.621 81.009 282.045 81.6605 280.682C82.3196 279.311 83.2363 278.242 84.4105 277.477C85.5923 276.705 86.9711 276.318 88.5469 276.318C89.456 276.318 90.3537 276.47 91.2401 276.773C92.1264 277.076 92.9332 277.568 93.6605 278.25C94.3878 278.924 94.9673 279.818 95.3991 280.932C95.831 282.045 96.0469 283.417 96.0469 285.045V286.182H82.5923V283.864H93.3196C93.3196 282.879 93.1226 282 92.7287 281.227C92.3423 280.455 91.7893 279.845 91.0696 279.398C90.3575 278.951 89.5166 278.727 88.5469 278.727C87.4787 278.727 86.5545 278.992 85.7741 279.523C85.0014 280.045 84.4067 280.727 83.9901 281.568C83.5734 282.409 83.3651 283.311 83.3651 284.273V285.818C83.3651 287.136 83.5923 288.254 84.0469 289.17C84.509 290.08 85.1491 290.773 85.9673 291.25C86.7855 291.72 87.7363 291.955 88.8196 291.955C89.5241 291.955 90.1605 291.856 90.7287 291.659C91.3045 291.455 91.8007 291.152 92.2173 290.75C92.634 290.341 92.956 289.833 93.1832 289.227L95.7741 289.955C95.5014 290.833 95.0431 291.606 94.3991 292.273C93.7552 292.932 92.9598 293.447 92.0128 293.818C91.0658 294.182 90.0014 294.364 88.8196 294.364ZM110.445 294H107.49L116.036 270.727H118.945L127.49 294H124.536L117.581 274.409H117.399L110.445 294ZM111.536 284.909H123.445V287.409H111.536V284.909Z" fill="white"/>
<path d="M5.92756 382V358.727H19.8821V361.227H8.74574V369.091H18.8366V371.591H8.74574V382H5.92756ZM24.1577 382V364.545H26.7486V367.182H26.9304C27.2486 366.318 27.8243 365.617 28.6577 365.08C29.491 364.542 30.4304 364.273 31.4759 364.273C31.6728 364.273 31.919 364.277 32.2145 364.284C32.5099 364.292 32.7334 364.303 32.8849 364.318V367.045C32.794 367.023 32.5857 366.989 32.2599 366.943C31.9418 366.89 31.6046 366.864 31.2486 366.864C30.4001 366.864 29.6425 367.042 28.9759 367.398C28.3168 367.746 27.794 368.231 27.4077 368.852C27.0289 369.466 26.8395 370.167 26.8395 370.955V382H24.1577ZM41.2003 382.409C40.0942 382.409 39.0904 382.201 38.1889 381.784C37.2874 381.36 36.5715 380.75 36.0412 379.955C35.5109 379.152 35.2457 378.182 35.2457 377.045C35.2457 376.045 35.4427 375.235 35.8366 374.614C36.2306 373.985 36.7571 373.492 37.4162 373.136C38.0753 372.78 38.8026 372.515 39.598 372.341C40.401 372.159 41.2079 372.015 42.0185 371.909C43.0791 371.773 43.9389 371.67 44.598 371.602C45.2647 371.527 45.7495 371.402 46.0526 371.227C46.3632 371.053 46.5185 370.75 46.5185 370.318V370.227C46.5185 369.106 46.2116 368.235 45.598 367.614C44.992 366.992 44.0715 366.682 42.8366 366.682C41.5563 366.682 40.5526 366.962 39.8253 367.523C39.098 368.083 38.5866 368.682 38.2912 369.318L35.7457 368.409C36.2003 367.348 36.8063 366.523 37.5639 365.932C38.3291 365.333 39.1624 364.917 40.0639 364.682C40.973 364.439 41.867 364.318 42.7457 364.318C43.3063 364.318 43.9503 364.386 44.6776 364.523C45.4124 364.652 46.1207 364.92 46.8026 365.33C47.492 365.739 48.0639 366.356 48.5185 367.182C48.973 368.008 49.2003 369.114 49.2003 370.5V382H46.5185V379.636H46.3821C46.2003 380.015 45.8973 380.42 45.473 380.852C45.0488 381.284 44.4844 381.652 43.7798 381.955C43.0753 382.258 42.2154 382.409 41.2003 382.409ZM41.6094 380C42.67 380 43.5639 379.792 44.2912 379.375C45.026 378.958 45.5791 378.42 45.9503 377.761C46.3291 377.102 46.5185 376.409 46.5185 375.682V373.227C46.4048 373.364 46.1548 373.489 45.7685 373.602C45.3897 373.708 44.9503 373.803 44.4503 373.886C43.9579 373.962 43.4768 374.03 43.0071 374.091C42.545 374.144 42.17 374.189 41.8821 374.227C41.1851 374.318 40.5336 374.466 39.9276 374.67C39.3291 374.867 38.8442 375.167 38.473 375.568C38.1094 375.962 37.9276 376.5 37.9276 377.182C37.9276 378.114 38.2723 378.818 38.9616 379.295C39.6586 379.765 40.5412 380 41.6094 380ZM54.0952 382V364.545H56.6861V367.273H56.9134C57.277 366.341 57.8641 365.617 58.6747 365.102C59.4853 364.58 60.4588 364.318 61.5952 364.318C62.7467 364.318 63.705 364.58 64.4702 365.102C65.2429 365.617 65.8452 366.341 66.277 367.273H66.4588C66.9058 366.371 67.5762 365.655 68.4702 365.125C69.3641 364.587 70.4361 364.318 71.6861 364.318C73.2467 364.318 74.5232 364.807 75.5156 365.784C76.5081 366.754 77.0043 368.265 77.0043 370.318V382H74.3224V370.318C74.3224 369.03 73.9702 368.11 73.2656 367.557C72.5611 367.004 71.7315 366.727 70.777 366.727C69.5497 366.727 68.599 367.098 67.9247 367.841C67.2505 368.576 66.9134 369.508 66.9134 370.636V382H64.1861V370.045C64.1861 369.053 63.8641 368.254 63.2202 367.648C62.5762 367.034 61.7467 366.727 60.7315 366.727C60.0346 366.727 59.383 366.913 58.777 367.284C58.1785 367.655 57.6937 368.17 57.3224 368.83C56.9588 369.481 56.777 370.235 56.777 371.091V382H54.0952ZM89.2259 382.364C87.544 382.364 86.0933 381.992 84.8736 381.25C83.6615 380.5 82.7259 379.455 82.0668 378.114C81.4152 376.765 81.0895 375.197 81.0895 373.409C81.0895 371.621 81.4152 370.045 82.0668 368.682C82.7259 367.311 83.6425 366.242 84.8168 365.477C85.9986 364.705 87.3774 364.318 88.9531 364.318C89.8622 364.318 90.7599 364.47 91.6463 364.773C92.5327 365.076 93.3395 365.568 94.0668 366.25C94.794 366.924 95.3736 367.818 95.8054 368.932C96.2372 370.045 96.4531 371.417 96.4531 373.045V374.182H82.9986V371.864H93.7259C93.7259 370.879 93.5289 370 93.1349 369.227C92.7486 368.455 92.1955 367.845 91.4759 367.398C90.7637 366.951 89.9228 366.727 88.9531 366.727C87.8849 366.727 86.9607 366.992 86.1804 367.523C85.4077 368.045 84.813 368.727 84.3963 369.568C83.9796 370.409 83.7713 371.311 83.7713 372.273V373.818C83.7713 375.136 83.9986 376.254 84.4531 377.17C84.9152 378.08 85.5554 378.773 86.3736 379.25C87.1918 379.72 88.1425 379.955 89.2259 379.955C89.9304 379.955 90.5668 379.856 91.1349 379.659C91.7107 379.455 92.2069 379.152 92.6236 378.75C93.0402 378.341 93.3622 377.833 93.5895 377.227L96.1804 377.955C95.9077 378.833 95.4493 379.606 94.8054 380.273C94.1615 380.932 93.366 381.447 92.419 381.818C91.4721 382.182 90.4077 382.364 89.2259 382.364ZM109.896 382V358.727H118.033C119.654 358.727 120.991 359.008 122.044 359.568C123.097 360.121 123.881 360.867 124.396 361.807C124.911 362.739 125.169 363.773 125.169 364.909C125.169 365.909 124.991 366.735 124.635 367.386C124.286 368.038 123.824 368.553 123.249 368.932C122.68 369.311 122.063 369.591 121.396 369.773V370C122.108 370.045 122.824 370.295 123.544 370.75C124.264 371.205 124.866 371.856 125.351 372.705C125.836 373.553 126.078 374.591 126.078 375.818C126.078 376.985 125.813 378.034 125.283 378.966C124.752 379.898 123.915 380.636 122.771 381.182C121.627 381.727 120.139 382 118.305 382H109.896ZM112.714 379.5H118.305C120.146 379.5 121.453 379.144 122.226 378.432C123.006 377.712 123.396 376.841 123.396 375.818C123.396 375.03 123.196 374.303 122.794 373.636C122.393 372.962 121.821 372.424 121.078 372.023C120.336 371.614 119.457 371.409 118.442 371.409H112.714V379.5ZM112.714 368.955H117.942C118.79 368.955 119.555 368.788 120.237 368.455C120.927 368.121 121.472 367.652 121.874 367.045C122.283 366.439 122.487 365.727 122.487 364.909C122.487 363.886 122.131 363.019 121.419 362.307C120.707 361.587 119.578 361.227 118.033 361.227H112.714V368.955Z" fill="white"/>
<path d="M4.69318 470V446.727H18.6477V449.227H7.51136V457.091H17.6023V459.591H7.51136V470H4.69318ZM22.9233 470V452.545H25.5142V455.182H25.696C26.0142 454.318 26.59 453.617 27.4233 453.08C28.2566 452.542 29.196 452.273 30.2415 452.273C30.4384 452.273 30.6847 452.277 30.9801 452.284C31.2756 452.292 31.4991 452.303 31.6506 452.318V455.045C31.5597 455.023 31.3513 454.989 31.0256 454.943C30.7074 454.89 30.3703 454.864 30.0142 454.864C29.1657 454.864 28.4081 455.042 27.7415 455.398C27.0824 455.746 26.5597 456.231 26.1733 456.852C25.7945 457.466 25.6051 458.167 25.6051 458.955V470H22.9233ZM39.9659 470.409C38.8598 470.409 37.8561 470.201 36.9545 469.784C36.053 469.36 35.3371 468.75 34.8068 467.955C34.2765 467.152 34.0114 466.182 34.0114 465.045C34.0114 464.045 34.2083 463.235 34.6023 462.614C34.9962 461.985 35.5227 461.492 36.1818 461.136C36.8409 460.78 37.5682 460.515 38.3636 460.341C39.1667 460.159 39.9735 460.015 40.7841 459.909C41.8447 459.773 42.7045 459.67 43.3636 459.602C44.0303 459.527 44.5152 459.402 44.8182 459.227C45.1288 459.053 45.2841 458.75 45.2841 458.318V458.227C45.2841 457.106 44.9773 456.235 44.3636 455.614C43.7576 454.992 42.8371 454.682 41.6023 454.682C40.322 454.682 39.3182 454.962 38.5909 455.523C37.8636 456.083 37.3523 456.682 37.0568 457.318L34.5114 456.409C34.9659 455.348 35.572 454.523 36.3295 453.932C37.0947 453.333 37.928 452.917 38.8295 452.682C39.7386 452.439 40.6326 452.318 41.5114 452.318C42.072 452.318 42.7159 452.386 43.4432 452.523C44.178 452.652 44.8864 452.92 45.5682 453.33C46.2576 453.739 46.8295 454.356 47.2841 455.182C47.7386 456.008 47.9659 457.114 47.9659 458.5V470H45.2841V467.636H45.1477C44.9659 468.015 44.6629 468.42 44.2386 468.852C43.8144 469.284 43.25 469.652 42.5455 469.955C41.8409 470.258 40.9811 470.409 39.9659 470.409ZM40.375 468C41.4356 468 42.3295 467.792 43.0568 467.375C43.7917 466.958 44.3447 466.42 44.7159 465.761C45.0947 465.102 45.2841 464.409 45.2841 463.682V461.227C45.1705 461.364 44.9205 461.489 44.5341 461.602C44.1553 461.708 43.7159 461.803 43.2159 461.886C42.7235 461.962 42.2424 462.03 41.7727 462.091C41.3106 462.144 40.9356 462.189 40.6477 462.227C39.9508 462.318 39.2992 462.466 38.6932 462.67C38.0947 462.867 37.6098 463.167 37.2386 463.568C36.875 463.962 36.6932 464.5 36.6932 465.182C36.6932 466.114 37.0379 466.818 37.7273 467.295C38.4242 467.765 39.3068 468 40.375 468ZM52.8608 470V452.545H55.4517V455.273H55.679C56.0426 454.341 56.6297 453.617 57.4403 453.102C58.2509 452.58 59.2244 452.318 60.3608 452.318C61.5123 452.318 62.4706 452.58 63.2358 453.102C64.0085 453.617 64.6108 454.341 65.0426 455.273H65.2244C65.6714 454.371 66.3419 453.655 67.2358 453.125C68.1297 452.587 69.2017 452.318 70.4517 452.318C72.0123 452.318 73.2888 452.807 74.2812 453.784C75.2737 454.754 75.7699 456.265 75.7699 458.318V470H73.0881V458.318C73.0881 457.03 72.7358 456.11 72.0312 455.557C71.3267 455.004 70.4972 454.727 69.5426 454.727C68.3153 454.727 67.3646 455.098 66.6903 455.841C66.0161 456.576 65.679 457.508 65.679 458.636V470H62.9517V458.045C62.9517 457.053 62.6297 456.254 61.9858 455.648C61.3419 455.034 60.5123 454.727 59.4972 454.727C58.8002 454.727 58.1487 454.913 57.5426 455.284C56.9441 455.655 56.4593 456.17 56.0881 456.83C55.7244 457.481 55.5426 458.235 55.5426 459.091V470H52.8608ZM87.9915 470.364C86.3097 470.364 84.8589 469.992 83.6392 469.25C82.4271 468.5 81.4915 467.455 80.8324 466.114C80.1809 464.765 79.8551 463.197 79.8551 461.409C79.8551 459.621 80.1809 458.045 80.8324 456.682C81.4915 455.311 82.4081 454.242 83.5824 453.477C84.7642 452.705 86.143 452.318 87.7188 452.318C88.6278 452.318 89.5256 452.47 90.4119 452.773C91.2983 453.076 92.1051 453.568 92.8324 454.25C93.5597 454.924 94.1392 455.818 94.571 456.932C95.0028 458.045 95.2188 459.417 95.2188 461.045V462.182H81.7642V459.864H92.4915C92.4915 458.879 92.2945 458 91.9006 457.227C91.5142 456.455 90.9612 455.845 90.2415 455.398C89.5294 454.951 88.6884 454.727 87.7188 454.727C86.6506 454.727 85.7263 454.992 84.946 455.523C84.1733 456.045 83.5786 456.727 83.1619 457.568C82.7453 458.409 82.5369 459.311 82.5369 460.273V461.818C82.5369 463.136 82.7642 464.254 83.2188 465.17C83.6809 466.08 84.321 466.773 85.1392 467.25C85.9574 467.72 86.9081 467.955 87.9915 467.955C88.696 467.955 89.3324 467.856 89.9006 467.659C90.4763 467.455 90.9725 467.152 91.3892 466.75C91.8059 466.341 92.1278 465.833 92.3551 465.227L94.946 465.955C94.6733 466.833 94.215 467.606 93.571 468.273C92.9271 468.932 92.1316 469.447 91.1847 469.818C90.2377 470.182 89.1733 470.364 87.9915 470.364ZM127.389 454H124.571C124.404 453.189 124.113 452.477 123.696 451.864C123.287 451.25 122.787 450.735 122.196 450.318C121.613 449.894 120.965 449.576 120.253 449.364C119.541 449.152 118.798 449.045 118.026 449.045C116.616 449.045 115.34 449.402 114.196 450.114C113.06 450.826 112.154 451.875 111.48 453.261C110.813 454.648 110.48 456.348 110.48 458.364C110.48 460.379 110.813 462.08 111.48 463.466C112.154 464.852 113.06 465.902 114.196 466.614C115.34 467.326 116.616 467.682 118.026 467.682C118.798 467.682 119.541 467.576 120.253 467.364C120.965 467.152 121.613 466.837 122.196 466.42C122.787 465.996 123.287 465.477 123.696 464.864C124.113 464.242 124.404 463.53 124.571 462.727H127.389C127.177 463.917 126.791 464.981 126.23 465.92C125.67 466.86 124.973 467.659 124.139 468.318C123.306 468.97 122.37 469.466 121.332 469.807C120.302 470.148 119.2 470.318 118.026 470.318C116.041 470.318 114.276 469.833 112.73 468.864C111.185 467.894 109.969 466.515 109.082 464.727C108.196 462.939 107.753 460.818 107.753 458.364C107.753 455.909 108.196 453.788 109.082 452C109.969 450.212 111.185 448.833 112.73 447.864C114.276 446.894 116.041 446.409 118.026 446.409C119.2 446.409 120.302 446.58 121.332 446.92C122.37 447.261 123.306 447.761 124.139 448.42C124.973 449.072 125.67 449.867 126.23 450.807C126.791 451.739 127.177 452.803 127.389 454Z" fill="white"/>
<rect x="148" y="95" width="793" height="97" rx="27" stroke="#DBDBDB" stroke-width="2"/>
<rect x="148" y="238" width="793" height="264" rx="27" stroke="#DBDBDB" stroke-width="2"/>
<path d="M382.849 49V19.9091H394.326C396.523 19.9091 398.398 20.3021 399.951 21.0881C401.513 21.8646 402.702 22.9678 403.516 24.3977C404.34 25.8182 404.752 27.4896 404.752 29.4119C404.752 31.3437 404.335 33.0057 403.502 34.3977C402.669 35.7803 401.461 36.8409 399.88 37.5795C398.308 38.3182 396.405 38.6875 394.17 38.6875H386.485V33.7443H393.175C394.35 33.7443 395.325 33.5833 396.102 33.2614C396.878 32.9394 397.456 32.4564 397.835 31.8125C398.223 31.1686 398.417 30.3684 398.417 29.4119C398.417 28.446 398.223 27.6316 397.835 26.9688C397.456 26.3059 396.873 25.804 396.087 25.4631C395.311 25.1127 394.331 24.9375 393.147 24.9375H388.999V49H382.849ZM398.559 35.7614L405.789 49H398.999L391.925 35.7614H398.559ZM418.577 49.4261C416.332 49.4261 414.401 48.9716 412.781 48.0625C411.171 47.1439 409.931 45.8466 409.06 44.1705C408.188 42.4848 407.753 40.4915 407.753 38.1903C407.753 35.946 408.188 33.9763 409.06 32.2812C409.931 30.5862 411.157 29.2652 412.739 28.3182C414.33 27.3712 416.195 26.8977 418.335 26.8977C419.775 26.8977 421.115 27.1297 422.355 27.5938C423.605 28.0483 424.694 28.7348 425.622 29.6534C426.56 30.572 427.289 31.7273 427.81 33.1193C428.33 34.5019 428.591 36.1212 428.591 37.9773V39.6392H410.168V35.8892H422.895C422.895 35.018 422.705 34.2462 422.327 33.5739C421.948 32.9015 421.422 32.3759 420.75 31.9972C420.087 31.6089 419.315 31.4148 418.435 31.4148C417.516 31.4148 416.702 31.6278 415.991 32.054C415.291 32.4706 414.741 33.0341 414.344 33.7443C413.946 34.4451 413.742 35.2263 413.733 36.0881V39.6534C413.733 40.733 413.932 41.6657 414.33 42.4517C414.737 43.2377 415.31 43.8438 416.048 44.2699C416.787 44.696 417.663 44.9091 418.676 44.9091C419.348 44.9091 419.964 44.8144 420.523 44.625C421.081 44.4356 421.56 44.1515 421.957 43.7727C422.355 43.3939 422.658 42.9299 422.866 42.3807L428.463 42.75C428.179 44.0947 427.597 45.2689 426.716 46.2727C425.845 47.267 424.718 48.0436 423.335 48.6023C421.962 49.1515 420.376 49.4261 418.577 49.4261ZM444.273 27.1818V31.7273H430.807V27.1818H444.273ZM433.889 49V25.6051C433.889 24.0237 434.197 22.7121 434.812 21.6705C435.438 20.6288 436.29 19.8475 437.369 19.3267C438.449 18.8059 439.675 18.5455 441.048 18.5455C441.976 18.5455 442.824 18.6165 443.591 18.7585C444.367 18.9006 444.945 19.0284 445.324 19.142L444.244 23.6875C444.008 23.6117 443.714 23.5407 443.364 23.4744C443.023 23.4081 442.672 23.375 442.312 23.375C441.422 23.375 440.802 23.5833 440.452 24C440.101 24.4072 439.926 24.9801 439.926 25.7188V49H433.889ZM457.131 49.4261C454.887 49.4261 452.955 48.9716 451.336 48.0625C449.726 47.1439 448.486 45.8466 447.614 44.1705C446.743 42.4848 446.308 40.4915 446.308 38.1903C446.308 35.946 446.743 33.9763 447.614 32.2812C448.486 30.5862 449.712 29.2652 451.293 28.3182C452.884 27.3712 454.75 26.8977 456.89 26.8977C458.329 26.8977 459.669 27.1297 460.91 27.5938C462.16 28.0483 463.249 28.7348 464.177 29.6534C465.114 30.572 465.844 31.7273 466.364 33.1193C466.885 34.5019 467.146 36.1212 467.146 37.9773V39.6392H448.722V35.8892H461.45C461.45 35.018 461.26 34.2462 460.881 33.5739C460.503 32.9015 459.977 32.3759 459.305 31.9972C458.642 31.6089 457.87 31.4148 456.989 31.4148C456.071 31.4148 455.256 31.6278 454.546 32.054C453.845 32.4706 453.296 33.0341 452.898 33.7443C452.501 34.4451 452.297 35.2263 452.288 36.0881V39.6534C452.288 40.733 452.487 41.6657 452.884 42.4517C453.291 43.2377 453.864 43.8438 454.603 44.2699C455.342 44.696 456.218 44.9091 457.231 44.9091C457.903 44.9091 458.519 44.8144 459.077 44.625C459.636 44.4356 460.114 44.1515 460.512 43.7727C460.91 43.3939 461.213 42.9299 461.421 42.3807L467.018 42.75C466.734 44.0947 466.151 45.2689 465.271 46.2727C464.399 47.267 463.272 48.0436 461.89 48.6023C460.517 49.1515 458.931 49.4261 457.131 49.4261ZM471.094 49V27.1818H476.961V30.9886H477.188C477.586 29.6345 478.254 28.6117 479.191 27.9205C480.129 27.2197 481.208 26.8693 482.43 26.8693C482.733 26.8693 483.059 26.8883 483.41 26.9261C483.76 26.964 484.068 27.0161 484.333 27.0824V32.4517C484.049 32.3665 483.656 32.2907 483.154 32.2244C482.652 32.1581 482.193 32.125 481.776 32.125C480.886 32.125 480.091 32.3191 479.39 32.7074C478.699 33.0862 478.149 33.6165 477.742 34.2983C477.344 34.9801 477.146 35.7661 477.146 36.6562V49H471.094ZM496.389 49.4261C494.145 49.4261 492.213 48.9716 490.594 48.0625C488.984 47.1439 487.743 45.8466 486.872 44.1705C486.001 42.4848 485.565 40.4915 485.565 38.1903C485.565 35.946 486.001 33.9763 486.872 32.2812C487.743 30.5862 488.97 29.2652 490.551 28.3182C492.142 27.3712 494.008 26.8977 496.148 26.8977C497.587 26.8977 498.927 27.1297 500.168 27.5938C501.418 28.0483 502.507 28.7348 503.435 29.6534C504.372 30.572 505.101 31.7273 505.622 33.1193C506.143 34.5019 506.403 36.1212 506.403 37.9773V39.6392H487.98V35.8892H500.707C500.707 35.018 500.518 34.2462 500.139 33.5739C499.76 32.9015 499.235 32.3759 498.562 31.9972C497.9 31.6089 497.128 31.4148 496.247 31.4148C495.329 31.4148 494.514 31.6278 493.804 32.054C493.103 32.4706 492.554 33.0341 492.156 33.7443C491.759 34.4451 491.555 35.2263 491.545 36.0881V39.6534C491.545 40.733 491.744 41.6657 492.142 42.4517C492.549 43.2377 493.122 43.8438 493.861 44.2699C494.599 44.696 495.475 44.9091 496.489 44.9091C497.161 44.9091 497.777 44.8144 498.335 44.625C498.894 44.4356 499.372 44.1515 499.77 43.7727C500.168 43.3939 500.471 42.9299 500.679 42.3807L506.276 42.75C505.991 44.0947 505.409 45.2689 504.528 46.2727C503.657 47.267 502.53 48.0436 501.148 48.6023C499.775 49.1515 498.188 49.4261 496.389 49.4261ZM516.403 36.3864V49H510.352V27.1818H516.119V31.0312H516.375C516.858 29.7623 517.668 28.7585 518.804 28.0199C519.94 27.2718 521.318 26.8977 522.938 26.8977C524.453 26.8977 525.774 27.2292 526.901 27.892C528.027 28.5549 528.903 29.5019 529.528 30.733C530.153 31.9545 530.466 33.4129 530.466 35.108V49H524.415V36.1875C524.424 34.8523 524.083 33.8106 523.392 33.0625C522.701 32.3049 521.749 31.9261 520.537 31.9261C519.723 31.9261 519.003 32.1013 518.378 32.4517C517.762 32.8021 517.279 33.3134 516.929 33.9858C516.588 34.6487 516.413 35.4489 516.403 36.3864ZM545.093 49.4261C542.858 49.4261 540.936 48.9527 539.326 48.0057C537.726 47.0492 536.495 45.7235 535.633 44.0284C534.781 42.3333 534.354 40.3826 534.354 38.1761C534.354 35.9413 534.785 33.9811 535.647 32.2955C536.518 30.6004 537.754 29.2794 539.354 28.3324C540.955 27.3759 542.858 26.8977 545.065 26.8977C546.968 26.8977 548.635 27.2434 550.065 27.9347C551.495 28.6259 552.626 29.5966 553.46 30.8466C554.293 32.0966 554.752 33.5644 554.837 35.25H549.127C548.966 34.161 548.54 33.285 547.849 32.6222C547.167 31.9498 546.272 31.6136 545.164 31.6136C544.227 31.6136 543.407 31.8693 542.707 32.3807C542.015 32.8826 541.476 33.6165 541.087 34.5824C540.699 35.5483 540.505 36.7178 540.505 38.0909C540.505 39.483 540.694 40.6667 541.073 41.642C541.461 42.6174 542.006 43.3608 542.707 43.8722C543.407 44.3835 544.227 44.6392 545.164 44.6392C545.855 44.6392 546.476 44.4972 547.025 44.2131C547.584 43.929 548.043 43.517 548.403 42.9773C548.772 42.428 549.013 41.7699 549.127 41.0028H554.837C554.743 42.6695 554.288 44.1373 553.474 45.4062C552.669 46.6657 551.556 47.6506 550.136 48.3608C548.715 49.071 547.034 49.4261 545.093 49.4261ZM568.655 49.4261C566.411 49.4261 564.479 48.9716 562.859 48.0625C561.25 47.1439 560.009 45.8466 559.138 44.1705C558.267 42.4848 557.831 40.4915 557.831 38.1903C557.831 35.946 558.267 33.9763 559.138 32.2812C560.009 30.5862 561.235 29.2652 562.817 28.3182C564.408 27.3712 566.273 26.8977 568.413 26.8977C569.853 26.8977 571.193 27.1297 572.433 27.5938C573.683 28.0483 574.772 28.7348 575.7 29.6534C576.638 30.572 577.367 31.7273 577.888 33.1193C578.409 34.5019 578.669 36.1212 578.669 37.9773V39.6392H560.246V35.8892H572.973C572.973 35.018 572.784 34.2462 572.405 33.5739C572.026 32.9015 571.5 32.3759 570.828 31.9972C570.165 31.6089 569.393 31.4148 568.513 31.4148C567.594 31.4148 566.78 31.6278 566.07 32.054C565.369 32.4706 564.82 33.0341 564.422 33.7443C564.024 34.4451 563.821 35.2263 563.811 36.0881V39.6534C563.811 40.733 564.01 41.6657 564.408 42.4517C564.815 43.2377 565.388 43.8438 566.126 44.2699C566.865 44.696 567.741 44.9091 568.754 44.9091C569.427 44.9091 570.042 44.8144 570.601 44.625C571.16 44.4356 571.638 44.1515 572.036 43.7727C572.433 43.3939 572.736 42.9299 572.945 42.3807L578.541 42.75C578.257 44.0947 577.675 45.2689 576.794 46.2727C575.923 47.267 574.796 48.0436 573.413 48.6023C572.04 49.1515 570.454 49.4261 568.655 49.4261ZM607.771 28.2756C607.657 27.1297 607.169 26.2396 606.308 25.6051C605.446 24.9706 604.276 24.6534 602.799 24.6534C601.795 24.6534 600.948 24.7955 600.256 25.0795C599.565 25.3542 599.035 25.7377 598.665 26.2301C598.306 26.7225 598.126 27.2812 598.126 27.9062C598.107 28.4271 598.216 28.8816 598.452 29.2699C598.699 29.6581 599.035 29.9943 599.461 30.2784C599.887 30.553 600.379 30.7945 600.938 31.0028C601.497 31.2017 602.094 31.3722 602.728 31.5142L605.342 32.1392C606.611 32.4233 607.775 32.8021 608.836 33.2756C609.897 33.7491 610.815 34.3314 611.592 35.0227C612.368 35.714 612.969 36.5284 613.396 37.4659C613.831 38.4034 614.054 39.4782 614.063 40.6903C614.054 42.4706 613.599 44.0142 612.7 45.321C611.809 46.6184 610.522 47.6269 608.836 48.3466C607.16 49.0568 605.138 49.4119 602.771 49.4119C600.422 49.4119 598.377 49.0521 596.634 48.3324C594.901 47.6127 593.547 46.5473 592.572 45.1364C591.606 43.7159 591.099 41.9593 591.052 39.8665H597.004C597.07 40.8419 597.349 41.6562 597.842 42.3097C598.344 42.9536 599.011 43.4413 599.844 43.7727C600.687 44.0947 601.639 44.2557 602.7 44.2557C603.741 44.2557 604.646 44.1042 605.413 43.8011C606.189 43.4981 606.79 43.0767 607.217 42.5369C607.643 41.9972 607.856 41.3769 607.856 40.6761C607.856 40.0227 607.662 39.4735 607.273 39.0284C606.895 38.5833 606.336 38.2045 605.597 37.892C604.868 37.5795 603.973 37.2955 602.913 37.0398L599.745 36.2443C597.292 35.6477 595.356 34.715 593.935 33.446C592.515 32.1771 591.809 30.4678 591.819 28.3182C591.809 26.5568 592.278 25.018 593.225 23.7017C594.182 22.3854 595.493 21.358 597.16 20.6193C598.826 19.8807 600.72 19.5114 602.842 19.5114C605.001 19.5114 606.885 19.8807 608.495 20.6193C610.114 21.358 611.374 22.3854 612.273 23.7017C613.173 25.018 613.637 26.5426 613.665 28.2756H607.771ZM629.692 27.1818V31.7273H616.553V27.1818H629.692ZM619.536 21.9545H625.587V42.2955C625.587 42.8542 625.672 43.2898 625.842 43.6023C626.013 43.9053 626.25 44.1184 626.553 44.2415C626.865 44.3646 627.225 44.4261 627.632 44.4261C627.916 44.4261 628.2 44.4025 628.484 44.3551C628.768 44.2983 628.986 44.2557 629.138 44.2273L630.089 48.7301C629.786 48.8248 629.36 48.9337 628.811 49.0568C628.262 49.1894 627.594 49.2699 626.808 49.2983C625.35 49.3551 624.071 49.161 622.973 48.7159C621.884 48.2708 621.036 47.5795 620.43 46.642C619.824 45.7045 619.526 44.5208 619.536 43.0909V21.9545ZM633.634 49V27.1818H639.5V30.9886H639.727C640.125 29.6345 640.793 28.6117 641.73 27.9205C642.668 27.2197 643.747 26.8693 644.969 26.8693C645.272 26.8693 645.598 26.8883 645.949 26.9261C646.299 26.964 646.607 27.0161 646.872 27.0824V32.4517C646.588 32.3665 646.195 32.2907 645.693 32.2244C645.191 32.1581 644.732 32.125 644.315 32.125C643.425 32.125 642.63 32.3191 641.929 32.7074C641.238 33.0862 640.688 33.6165 640.281 34.2983C639.884 34.9801 639.685 35.7661 639.685 36.6562V49H633.634ZM650.001 49V27.1818H656.052V49H650.001ZM653.04 24.3693C652.141 24.3693 651.369 24.071 650.725 23.4744C650.091 22.8684 649.773 22.1439 649.773 21.3011C649.773 20.4678 650.091 19.7528 650.725 19.1562C651.369 18.5502 652.141 18.2472 653.04 18.2472C653.94 18.2472 654.707 18.5502 655.342 19.1562C655.986 19.7528 656.308 20.4678 656.308 21.3011C656.308 22.1439 655.986 22.8684 655.342 23.4744C654.707 24.071 653.94 24.3693 653.04 24.3693ZM666.95 36.3864V49H660.899V27.1818H666.666V31.0312H666.922C667.405 29.7623 668.214 28.7585 669.351 28.0199C670.487 27.2718 671.865 26.8977 673.484 26.8977C675 26.8977 676.321 27.2292 677.447 27.892C678.574 28.5549 679.45 29.5019 680.075 30.733C680.7 31.9545 681.013 33.4129 681.013 35.108V49H674.962V36.1875C674.971 34.8523 674.63 33.8106 673.939 33.0625C673.248 32.3049 672.296 31.9261 671.084 31.9261C670.269 31.9261 669.55 32.1013 668.925 32.4517C668.309 32.8021 667.826 33.3134 667.476 33.9858C667.135 34.6487 666.96 35.4489 666.95 36.3864ZM695.612 57.6364C693.651 57.6364 691.97 57.3665 690.569 56.8267C689.177 56.2964 688.069 55.572 687.245 54.6534C686.421 53.7348 685.886 52.7027 685.64 51.5568L691.237 50.804C691.407 51.2396 691.677 51.6468 692.046 52.0256C692.415 52.4044 692.903 52.7074 693.509 52.9347C694.125 53.1714 694.873 53.2898 695.754 53.2898C697.07 53.2898 698.154 52.9678 699.006 52.3239C699.868 51.6894 700.299 50.6241 700.299 49.1278V45.1364H700.043C699.778 45.7424 699.38 46.3153 698.85 46.8551C698.32 47.3949 697.638 47.8352 696.805 48.1761C695.971 48.517 694.977 48.6875 693.822 48.6875C692.183 48.6875 690.692 48.3087 689.347 47.5511C688.012 46.7841 686.947 45.6146 686.151 44.0426C685.365 42.4612 684.972 40.4631 684.972 38.0483C684.972 35.5767 685.375 33.5123 686.18 31.8551C686.985 30.1979 688.055 28.9574 689.39 28.1335C690.735 27.3097 692.207 26.8977 693.808 26.8977C695.029 26.8977 696.052 27.1061 696.876 27.5227C697.7 27.9299 698.362 28.4413 698.864 29.0568C699.376 29.6629 699.769 30.2595 700.043 30.8466H700.271V27.1818H706.279V49.2131C706.279 51.0691 705.825 52.6222 704.915 53.8722C704.006 55.1222 702.747 56.0597 701.137 56.6847C699.537 57.3191 697.695 57.6364 695.612 57.6364ZM695.739 44.142C696.715 44.142 697.539 43.9006 698.211 43.4176C698.893 42.9252 699.414 42.2244 699.773 41.3153C700.143 40.3968 700.327 39.2983 700.327 38.0199C700.327 36.7415 700.147 35.6335 699.788 34.696C699.428 33.7491 698.907 33.0152 698.225 32.4943C697.543 31.9735 696.715 31.7131 695.739 31.7131C694.745 31.7131 693.907 31.983 693.225 32.5227C692.543 33.053 692.027 33.7917 691.677 34.7386C691.326 35.6856 691.151 36.7794 691.151 38.0199C691.151 39.2794 691.326 40.3684 691.677 41.2869C692.037 42.196 692.553 42.9015 693.225 43.4034C693.907 43.8958 694.745 44.142 695.739 44.142Z" fill="white"/>
<line x1="237" y1="95" x2="237" y2="192" stroke="#DBDBDB" stroke-width="2"/>
<line x1="237" y1="238" x2="237" y2="502" stroke="#DBDBDB" stroke-width="2"/>
<line x1="148" y1="325" x2="941" y2="325" stroke="#DBDBDB" stroke-width="2"/>
<line x1="148" y1="413" x2="941" y2="413" stroke="#DBDBDB" stroke-width="2"/>
<line x1="325" y1="95" x2="325" y2="192" stroke="#DBDBDB" stroke-width="2"/>
<line x1="325" y1="238" x2="325" y2="502" stroke="#DBDBDB" stroke-width="2"/>
<line x1="413" y1="95" x2="413" y2="192" stroke="#DBDBDB" stroke-width="2"/>
<line x1="413" y1="238" x2="413" y2="502" stroke="#DBDBDB" stroke-width="2"/>
<line x1="501" y1="95" x2="501" y2="192" stroke="#DBDBDB" stroke-width="2"/>
<line x1="501" y1="238" x2="501" y2="502" stroke="#DBDBDB" stroke-width="2"/>
<line x1="589" y1="95" x2="589" y2="192" stroke="#DBDBDB" stroke-width="2"/>
<line x1="589" y1="238" x2="589" y2="502" stroke="#DBDBDB" stroke-width="2"/>
<line x1="677" y1="95" x2="677" y2="192" stroke="#DBDBDB" stroke-width="2"/>
<line x1="677" y1="238" x2="677" y2="502" stroke="#DBDBDB" stroke-width="2"/>
<line x1="765" y1="95" x2="765" y2="192" stroke="#DBDBDB" stroke-width="2"/>
<line x1="765" y1="238" x2="765" y2="502" stroke="#DBDBDB" stroke-width="2"/>
<line x1="853" y1="95" x2="853" y2="192" stroke="#DBDBDB" stroke-width="2"/>
<line x1="853" y1="238" x2="853" y2="502" stroke="#DBDBDB" stroke-width="2"/>
<path d="M195.653 132.727V156H192.835V135.682H192.699L187.017 139.455V136.591L192.835 132.727H195.653Z" fill="#B1B1B1"/>
<path d="M195.653 270.727V294H192.835V273.682H192.699L187.017 277.455V274.591L192.835 270.727H195.653Z" fill="white"/>
<path d="M368.585 470.318C367.085 470.318 365.748 470.061 364.574 469.545C363.407 469.03 362.479 468.314 361.79 467.398C361.108 466.473 360.737 465.402 360.676 464.182H363.54C363.6 464.932 363.858 465.58 364.312 466.125C364.767 466.663 365.362 467.08 366.097 467.375C366.831 467.67 367.646 467.818 368.54 467.818C369.54 467.818 370.426 467.644 371.199 467.295C371.972 466.947 372.578 466.462 373.017 465.841C373.456 465.22 373.676 464.5 373.676 463.682C373.676 462.826 373.464 462.072 373.04 461.42C372.616 460.761 371.994 460.246 371.176 459.875C370.358 459.504 369.358 459.318 368.176 459.318H366.312V456.818H368.176C369.1 456.818 369.911 456.652 370.608 456.318C371.313 455.985 371.862 455.515 372.256 454.909C372.657 454.303 372.858 453.591 372.858 452.773C372.858 451.985 372.684 451.299 372.335 450.716C371.987 450.133 371.494 449.678 370.858 449.352C370.229 449.027 369.487 448.864 368.631 448.864C367.828 448.864 367.07 449.011 366.358 449.307C365.653 449.595 365.078 450.015 364.631 450.568C364.184 451.114 363.941 451.773 363.903 452.545H361.176C361.222 451.326 361.589 450.258 362.278 449.341C362.968 448.417 363.869 447.697 364.983 447.182C366.104 446.667 367.335 446.409 368.676 446.409C370.116 446.409 371.35 446.701 372.381 447.284C373.411 447.86 374.203 448.621 374.756 449.568C375.309 450.515 375.585 451.538 375.585 452.636C375.585 453.947 375.241 455.064 374.551 455.989C373.869 456.913 372.941 457.553 371.767 457.909V458.091C373.237 458.333 374.384 458.958 375.21 459.966C376.036 460.966 376.449 462.205 376.449 463.682C376.449 464.947 376.104 466.083 375.415 467.091C374.733 468.091 373.801 468.879 372.619 469.455C371.438 470.03 370.093 470.318 368.585 470.318Z" fill="white"/>
<path d="M273.222 382V379.955L280.903 371.545C281.805 370.561 282.547 369.705 283.131 368.977C283.714 368.242 284.146 367.553 284.426 366.909C284.714 366.258 284.858 365.576 284.858 364.864C284.858 364.045 284.661 363.337 284.267 362.739C283.881 362.14 283.35 361.678 282.676 361.352C282.002 361.027 281.244 360.864 280.403 360.864C279.509 360.864 278.729 361.049 278.062 361.42C277.403 361.784 276.892 362.295 276.528 362.955C276.172 363.614 275.994 364.386 275.994 365.273H273.312C273.312 363.909 273.627 362.712 274.256 361.682C274.884 360.652 275.741 359.848 276.824 359.273C277.915 358.697 279.138 358.409 280.494 358.409C281.858 358.409 283.066 358.697 284.119 359.273C285.172 359.848 285.998 360.625 286.597 361.602C287.195 362.58 287.494 363.667 287.494 364.864C287.494 365.72 287.339 366.557 287.028 367.375C286.725 368.186 286.195 369.091 285.438 370.091C284.688 371.083 283.646 372.295 282.312 373.727L277.085 379.318V379.5H287.903V382H273.222Z" fill="white"/>
<path d="M361.222 382V379.955L368.903 371.545C369.805 370.561 370.547 369.705 371.131 368.977C371.714 368.242 372.146 367.553 372.426 366.909C372.714 366.258 372.858 365.576 372.858 364.864C372.858 364.045 372.661 363.337 372.267 362.739C371.881 362.14 371.35 361.678 370.676 361.352C370.002 361.027 369.244 360.864 368.403 360.864C367.509 360.864 366.729 361.049 366.062 361.42C365.403 361.784 364.892 362.295 364.528 362.955C364.172 363.614 363.994 364.386 363.994 365.273H361.312C361.312 363.909 361.627 362.712 362.256 361.682C362.884 360.652 363.741 359.848 364.824 359.273C365.915 358.697 367.138 358.409 368.494 358.409C369.858 358.409 371.066 358.697 372.119 359.273C373.172 359.848 373.998 360.625 374.597 361.602C375.195 362.58 375.494 363.667 375.494 364.864C375.494 365.72 375.339 366.557 375.028 367.375C374.725 368.186 374.195 369.091 373.438 370.091C372.688 371.083 371.646 372.295 370.312 373.727L365.085 379.318V379.5H375.903V382H361.222Z" fill="white"/>
<path d="M371.653 270.727V294H368.835V273.682H368.699L363.017 277.455V274.591L368.835 270.727H371.653Z" fill="white"/>
<path d="M283.653 270.727V294H280.835V273.682H280.699L275.017 277.455V274.591L280.835 270.727H283.653Z" fill="white"/>
<path d="M272.222 156V153.955L279.903 145.545C280.805 144.561 281.547 143.705 282.131 142.977C282.714 142.242 283.146 141.553 283.426 140.909C283.714 140.258 283.858 139.576 283.858 138.864C283.858 138.045 283.661 137.337 283.267 136.739C282.881 136.14 282.35 135.678 281.676 135.352C281.002 135.027 280.244 134.864 279.403 134.864C278.509 134.864 277.729 135.049 277.062 135.42C276.403 135.784 275.892 136.295 275.528 136.955C275.172 137.614 274.994 138.386 274.994 139.273H272.312C272.312 137.909 272.627 136.712 273.256 135.682C273.884 134.652 274.741 133.848 275.824 133.273C276.915 132.697 278.138 132.409 279.494 132.409C280.858 132.409 282.066 132.697 283.119 133.273C284.172 133.848 284.998 134.625 285.597 135.602C286.195 136.58 286.494 137.667 286.494 138.864C286.494 139.72 286.339 140.557 286.028 141.375C285.725 142.186 285.195 143.091 284.438 144.091C283.688 145.083 282.646 146.295 281.312 147.727L276.085 153.318V153.5H286.903V156H272.222Z" fill="#B1B1B1"/>
<path d="M366.585 156.318C365.085 156.318 363.748 156.061 362.574 155.545C361.407 155.03 360.479 154.314 359.79 153.398C359.108 152.473 358.737 151.402 358.676 150.182H361.54C361.6 150.932 361.858 151.58 362.312 152.125C362.767 152.663 363.362 153.08 364.097 153.375C364.831 153.67 365.646 153.818 366.54 153.818C367.54 153.818 368.426 153.644 369.199 153.295C369.972 152.947 370.578 152.462 371.017 151.841C371.456 151.22 371.676 150.5 371.676 149.682C371.676 148.826 371.464 148.072 371.04 147.42C370.616 146.761 369.994 146.246 369.176 145.875C368.358 145.504 367.358 145.318 366.176 145.318H364.312V142.818H366.176C367.1 142.818 367.911 142.652 368.608 142.318C369.313 141.985 369.862 141.515 370.256 140.909C370.657 140.303 370.858 139.591 370.858 138.773C370.858 137.985 370.684 137.299 370.335 136.716C369.987 136.133 369.494 135.678 368.858 135.352C368.229 135.027 367.487 134.864 366.631 134.864C365.828 134.864 365.07 135.011 364.358 135.307C363.653 135.595 363.078 136.015 362.631 136.568C362.184 137.114 361.941 137.773 361.903 138.545H359.176C359.222 137.326 359.589 136.258 360.278 135.341C360.968 134.417 361.869 133.697 362.983 133.182C364.104 132.667 365.335 132.409 366.676 132.409C368.116 132.409 369.35 132.701 370.381 133.284C371.411 133.86 372.203 134.621 372.756 135.568C373.309 136.515 373.585 137.538 373.585 138.636C373.585 139.947 373.241 141.064 372.551 141.989C371.869 142.913 370.941 143.553 369.767 143.909V144.091C371.237 144.333 372.384 144.958 373.21 145.966C374.036 146.966 374.449 148.205 374.449 149.682C374.449 150.947 374.104 152.083 373.415 153.091C372.733 154.091 371.801 154.879 370.619 155.455C369.438 156.03 368.093 156.318 366.585 156.318Z" fill="#B1B1B1"/>
<path d="M447.098 151.227V148.909L457.325 132.727H459.007V136.318H457.871L450.143 148.545V148.727H463.916V151.227H447.098ZM458.053 156V150.523V149.443V132.727H460.734V156H458.053Z" fill="white"/>
<path d="M543.652 156.318C542.697 156.303 541.743 156.121 540.788 155.773C539.834 155.424 538.963 154.837 538.175 154.011C537.387 153.178 536.754 152.053 536.277 150.636C535.8 149.212 535.561 147.424 535.561 145.273C535.561 143.212 535.754 141.386 536.141 139.795C536.527 138.197 537.088 136.852 537.822 135.761C538.557 134.663 539.444 133.83 540.482 133.261C541.527 132.693 542.705 132.409 544.016 132.409C545.319 132.409 546.478 132.67 547.493 133.193C548.516 133.708 549.349 134.428 549.993 135.352C550.637 136.277 551.054 137.341 551.243 138.545H548.47C548.213 137.5 547.713 136.633 546.97 135.943C546.228 135.254 545.243 134.909 544.016 134.909C542.213 134.909 540.792 135.693 539.754 137.261C538.724 138.83 538.205 141.03 538.197 143.864H538.379C538.804 143.22 539.307 142.67 539.891 142.216C540.482 141.754 541.133 141.398 541.845 141.148C542.557 140.898 543.311 140.773 544.107 140.773C545.44 140.773 546.66 141.106 547.766 141.773C548.872 142.432 549.758 143.345 550.425 144.511C551.091 145.67 551.425 147 551.425 148.5C551.425 149.939 551.103 151.258 550.459 152.455C549.815 153.644 548.91 154.591 547.743 155.295C546.584 155.992 545.22 156.333 543.652 156.318ZM543.652 153.818C544.607 153.818 545.463 153.58 546.22 153.102C546.985 152.625 547.588 151.985 548.027 151.182C548.474 150.379 548.697 149.485 548.697 148.5C548.697 147.538 548.482 146.663 548.05 145.875C547.625 145.08 547.038 144.447 546.288 143.977C545.546 143.508 544.697 143.273 543.743 143.273C543.023 143.273 542.353 143.417 541.732 143.705C541.11 143.985 540.565 144.371 540.095 144.864C539.633 145.356 539.269 145.92 539.004 146.557C538.739 147.186 538.607 147.848 538.607 148.545C538.607 149.47 538.822 150.333 539.254 151.136C539.694 151.939 540.292 152.587 541.05 153.08C541.815 153.572 542.682 153.818 543.652 153.818Z" fill="white"/>
<path d="M625.222 156V153.955L632.903 145.545C633.805 144.561 634.547 143.705 635.131 142.977C635.714 142.242 636.146 141.553 636.426 140.909C636.714 140.258 636.858 139.576 636.858 138.864C636.858 138.045 636.661 137.337 636.267 136.739C635.881 136.14 635.35 135.678 634.676 135.352C634.002 135.027 633.244 134.864 632.403 134.864C631.509 134.864 630.729 135.049 630.062 135.42C629.403 135.784 628.892 136.295 628.528 136.955C628.172 137.614 627.994 138.386 627.994 139.273H625.312C625.312 137.909 625.627 136.712 626.256 135.682C626.884 134.652 627.741 133.848 628.824 133.273C629.915 132.697 631.138 132.409 632.494 132.409C633.858 132.409 635.066 132.697 636.119 133.273C637.172 133.848 637.998 134.625 638.597 135.602C639.195 136.58 639.494 137.667 639.494 138.864C639.494 139.72 639.339 140.557 639.028 141.375C638.725 142.186 638.195 143.091 637.438 144.091C636.688 145.083 635.646 146.295 634.312 147.727L629.085 153.318V153.5H639.903V156H625.222Z" fill="white"/>
<path d="M719.447 156.318C718.114 156.318 716.913 156.053 715.845 155.523C714.777 154.992 713.921 154.265 713.277 153.341C712.633 152.417 712.281 151.364 712.22 150.182H714.947C715.054 151.235 715.531 152.106 716.379 152.795C717.235 153.477 718.258 153.818 719.447 153.818C720.402 153.818 721.25 153.595 721.993 153.148C722.743 152.701 723.33 152.087 723.754 151.307C724.186 150.519 724.402 149.629 724.402 148.636C724.402 147.621 724.179 146.716 723.732 145.92C723.292 145.117 722.686 144.485 721.913 144.023C721.141 143.561 720.258 143.326 719.266 143.318C718.554 143.311 717.822 143.42 717.072 143.648C716.322 143.867 715.705 144.152 715.22 144.5L712.584 144.182L713.993 132.727H726.084V135.227H716.357L715.538 142.091H715.675C716.152 141.712 716.75 141.398 717.47 141.148C718.19 140.898 718.94 140.773 719.72 140.773C721.144 140.773 722.413 141.114 723.527 141.795C724.648 142.47 725.527 143.394 726.163 144.568C726.807 145.742 727.129 147.083 727.129 148.591C727.129 150.076 726.796 151.402 726.129 152.568C725.47 153.727 724.561 154.644 723.402 155.318C722.243 155.985 720.925 156.318 719.447 156.318Z" fill="white"/>
<path d="M811.653 132.727V156H808.835V135.682H808.699L803.017 139.455V136.591L808.835 132.727H811.653Z" fill="white"/>
<path d="M896.585 156.318C895.085 156.318 893.748 156.061 892.574 155.545C891.407 155.03 890.479 154.314 889.79 153.398C889.108 152.473 888.737 151.402 888.676 150.182H891.54C891.6 150.932 891.858 151.58 892.312 152.125C892.767 152.663 893.362 153.08 894.097 153.375C894.831 153.67 895.646 153.818 896.54 153.818C897.54 153.818 898.426 153.644 899.199 153.295C899.972 152.947 900.578 152.462 901.017 151.841C901.456 151.22 901.676 150.5 901.676 149.682C901.676 148.826 901.464 148.072 901.04 147.42C900.616 146.761 899.994 146.246 899.176 145.875C898.358 145.504 897.358 145.318 896.176 145.318H894.312V142.818H896.176C897.1 142.818 897.911 142.652 898.608 142.318C899.313 141.985 899.862 141.515 900.256 140.909C900.657 140.303 900.858 139.591 900.858 138.773C900.858 137.985 900.684 137.299 900.335 136.716C899.987 136.133 899.494 135.678 898.858 135.352C898.229 135.027 897.487 134.864 896.631 134.864C895.828 134.864 895.07 135.011 894.358 135.307C893.653 135.595 893.078 136.015 892.631 136.568C892.184 137.114 891.941 137.773 891.903 138.545H889.176C889.222 137.326 889.589 136.258 890.278 135.341C890.968 134.417 891.869 133.697 892.983 133.182C894.104 132.667 895.335 132.409 896.676 132.409C898.116 132.409 899.35 132.701 900.381 133.284C901.411 133.86 902.203 134.621 902.756 135.568C903.309 136.515 903.585 137.538 903.585 138.636C903.585 139.947 903.241 141.064 902.551 141.989C901.869 142.913 900.941 143.553 899.767 143.909V144.091C901.237 144.333 902.384 144.958 903.21 145.966C904.036 146.966 904.449 148.205 904.449 149.682C904.449 150.947 904.104 152.083 903.415 153.091C902.733 154.091 901.801 154.879 900.619 155.455C899.438 156.03 898.093 156.318 896.585 156.318Z" fill="white"/>
<line x1="178.826" y1="122.436" x2="206.826" y2="163.436" stroke="#717171" stroke-width="2"/>
<line x1="266.826" y1="122.436" x2="294.826" y2="163.436" stroke="#717171" stroke-width="2"/>
<line x1="354.826" y1="122.436" x2="382.826" y2="163.436" stroke="#717171" stroke-width="2"/>
</svg>
