<svg xmlns="http://www.w3.org/2000/svg" width="942" height="503" fill="none" viewBox="0 0 942 503"><path fill="#fff" d="M5.521 294v-23.273h13.955v2.5H8.339v7.864H18.43v2.5H8.34V294zm18.23 0v-17.455h2.591v2.637h.182q.477-1.296 1.727-2.102 1.25-.807 2.819-.807.296 0 .738.011.445.012.67.034v2.727q-.136-.033-.624-.102a6 6 0 0 0-1.012-.079q-1.273 0-2.272.534A4 4 0 0 0 27 280.852q-.568.921-.568 2.103V294zm17.043.409q-1.66 0-3.011-.625a5.17 5.17 0 0 1-2.148-1.829q-.795-1.204-.795-2.91 0-1.5.59-2.431a4.17 4.17 0 0 1 1.58-1.478 8.3 8.3 0 0 1 2.182-.795q1.205-.273 2.42-.432 1.59-.204 2.58-.307 1-.113 1.454-.375.465-.261.466-.909v-.091q0-1.682-.92-2.613-.91-.933-2.762-.932-1.92 0-3.011.841-1.091.84-1.534 1.795l-2.545-.909q.681-1.591 1.818-2.477a6.8 6.8 0 0 1 2.5-1.25q1.363-.364 2.682-.364.84 0 1.931.205a6.2 6.2 0 0 1 2.125.807q1.035.613 1.716 1.852.682 1.239.682 3.318V294h-2.682v-2.364h-.136q-.273.568-.91 1.216-.636.648-1.692 1.103t-2.58.454m.41-2.409q1.59 0 2.68-.625 1.104-.625 1.66-1.614a4.1 4.1 0 0 0 .568-2.079v-2.455q-.17.205-.75.375-.568.16-1.318.284-.738.114-1.443.205a70 70 0 0 0-1.125.136q-1.046.137-1.955.443-.897.296-1.454.898-.546.591-.546 1.614 0 1.398 1.034 2.113 1.046.705 2.648.705m12.485 2v-17.455h2.59v2.728h.228q.545-1.398 1.762-2.171 1.215-.784 2.92-.784 1.727 0 2.875.784 1.16.773 1.807 2.171h.182a5.1 5.1 0 0 1 2.01-2.148q1.342-.807 3.217-.807 2.34 0 3.83 1.466 1.488 1.455 1.488 4.534V294h-2.682v-11.682q0-1.932-1.057-2.761t-2.488-.83q-1.84 0-2.852 1.114-1.012 1.103-1.012 2.795V294H63.78v-11.955q0-1.488-.966-2.397-.966-.921-2.489-.921-1.045 0-1.954.557a4.2 4.2 0 0 0-1.455 1.546q-.545.977-.545 2.261V294zm35.13.364q-2.522 0-4.352-1.114-1.818-1.125-2.806-3.136-.978-2.023-.978-4.705t.977-4.727q.99-2.057 2.75-3.205 1.773-1.159 4.137-1.159 1.364 0 2.693.455a6.7 6.7 0 0 1 2.42 1.477q1.091 1.011 1.74 2.682.647 1.67.647 4.113v1.137H82.592v-2.318H93.32q0-1.478-.591-2.637a4.46 4.46 0 0 0-1.66-1.829q-1.068-.67-2.522-.671-1.602 0-2.773.796a5.2 5.2 0 0 0-1.784 2.045 6 6 0 0 0-.625 2.705v1.545q0 1.977.682 3.352.693 1.365 1.92 2.08 1.228.705 2.853.705 1.056 0 1.909-.296a4.1 4.1 0 0 0 1.488-.909 4.1 4.1 0 0 0 .966-1.523l2.591.728a5.75 5.75 0 0 1-1.375 2.318q-.966.988-2.386 1.545-1.421.546-3.193.546m21.626-.364h-2.955l8.546-23.273h2.909L127.49 294h-2.954l-6.955-19.591h-.182zm1.091-9.091h11.909v2.5h-11.909zM5.928 382v-23.273h13.954v2.5H8.746v7.864h10.09v2.5H8.747V382zm18.23 0v-17.455h2.59v2.637h.182q.478-1.296 1.728-2.102 1.25-.807 2.818-.807.295 0 .739.011.442.012.67.034v2.727q-.137-.033-.625-.102a6 6 0 0 0-1.011-.079q-1.274 0-2.273.534a4 4 0 0 0-1.568 1.454q-.57.921-.569 2.103V382zm17.042.409q-1.66 0-3.011-.625a5.17 5.17 0 0 1-2.148-1.829q-.795-1.204-.795-2.91 0-1.5.59-2.431a4.17 4.17 0 0 1 1.58-1.478 8.3 8.3 0 0 1 2.182-.795q1.205-.273 2.42-.432 1.59-.204 2.58-.307 1-.113 1.455-.375.466-.261.466-.909v-.091q0-1.682-.921-2.613-.909-.933-2.761-.932-1.92 0-3.012.841-1.09.84-1.534 1.795l-2.545-.909q.681-1.591 1.818-2.477a6.8 6.8 0 0 1 2.5-1.25q1.363-.364 2.682-.364.84 0 1.932.205a6.2 6.2 0 0 1 2.125.807q1.033.613 1.716 1.852.681 1.239.681 3.318V382H46.52v-2.364h-.137q-.273.568-.909 1.216t-1.693 1.103q-1.057.454-2.58.454m.41-2.409q1.59 0 2.681-.625 1.102-.625 1.66-1.614a4.1 4.1 0 0 0 .568-2.079v-2.455q-.171.205-.75.375-.57.16-1.319.284-.738.114-1.443.205a70 70 0 0 0-1.125.136q-1.045.137-1.954.443-.898.296-1.455.898-.546.591-.545 1.614 0 1.398 1.034 2.113 1.046.705 2.647.705m12.485 2v-17.455h2.591v2.728h.227q.546-1.398 1.762-2.171 1.216-.784 2.92-.784 1.728 0 2.875.784 1.16.773 1.807 2.171h.182a5.1 5.1 0 0 1 2.011-2.148q1.341-.807 3.216-.807 2.34 0 3.83 1.466 1.488 1.455 1.488 4.534V382h-2.682v-11.682q0-1.932-1.056-2.761-1.058-.83-2.489-.83-1.84 0-2.852 1.114-1.012 1.103-1.012 2.795V382h-2.727v-11.955q0-1.488-.966-2.397-.965-.921-2.489-.921-1.044 0-1.954.557a4.2 4.2 0 0 0-1.455 1.546q-.545.977-.545 2.261V382zm35.13.364q-2.522 0-4.351-1.114-1.818-1.125-2.807-3.136-.978-2.023-.977-4.705 0-2.682.977-4.727.989-2.057 2.75-3.205 1.773-1.159 4.136-1.159 1.364 0 2.693.455a6.7 6.7 0 0 1 2.42 1.477q1.092 1.011 1.74 2.682.647 1.67.647 4.113v1.137H83v-2.318h10.727q0-1.478-.591-2.637a4.46 4.46 0 0 0-1.66-1.829q-1.067-.67-2.522-.671-1.602 0-2.773.796a5.2 5.2 0 0 0-1.784 2.045 6 6 0 0 0-.625 2.705v1.545q0 1.977.682 3.352.693 1.365 1.92 2.08 1.229.705 2.853.705 1.056 0 1.909-.296a4.1 4.1 0 0 0 1.489-.909q.624-.614.966-1.523l2.59.728a5.75 5.75 0 0 1-1.375 2.318q-.966.988-2.386 1.545-1.42.546-3.193.546m20.671-.364v-23.273h8.137q2.432 0 4.011.841 1.58.83 2.352 2.239.773 1.398.773 3.102 0 1.5-.534 2.477a4.16 4.16 0 0 1-1.386 1.546 6.3 6.3 0 0 1-1.853.841V370q1.068.067 2.148.75 1.08.682 1.807 1.955.727 1.272.727 3.113 0 1.75-.795 3.148-.796 1.398-2.512 2.216t-4.466.818zm2.818-2.5h5.591q2.761 0 3.921-1.068 1.17-1.08 1.17-2.614 0-1.182-.602-2.182-.602-1.011-1.716-1.613-1.113-.614-2.636-.614h-5.728zm0-10.545h5.228q1.272 0 2.295-.5a4 4 0 0 0 1.637-1.41q.613-.909.613-2.136 0-1.534-1.068-2.602-1.068-1.08-3.386-1.08h-5.319zM4.693 470v-23.273h13.955v2.5H7.51v7.864h10.091v2.5H7.512V470zm18.23 0v-17.455h2.591v2.637h.182q.477-1.296 1.727-2.102 1.25-.807 2.819-.807.295 0 .738.011.444.012.67.034v2.727q-.136-.033-.624-.102a6 6 0 0 0-1.012-.079q-1.272 0-2.273.534a4 4 0 0 0-1.568 1.454q-.567.921-.568 2.103V470zm17.043.409q-1.66 0-3.011-.625a5.17 5.17 0 0 1-2.148-1.829q-.796-1.204-.796-2.91 0-1.5.591-2.431a4.17 4.17 0 0 1 1.58-1.478 8.3 8.3 0 0 1 2.182-.795q1.205-.273 2.42-.432 1.59-.204 2.58-.307 1-.113 1.454-.375.466-.261.466-.909v-.091q0-1.682-.92-2.613-.91-.933-2.762-.932-1.92 0-3.011.841-1.091.84-1.534 1.795l-2.546-.909q.682-1.591 1.819-2.477a6.8 6.8 0 0 1 2.5-1.25q1.364-.364 2.681-.364.842 0 1.932.205a6.2 6.2 0 0 1 2.125.807q1.035.613 1.716 1.852.682 1.239.682 3.318V470h-2.682v-2.364h-.136q-.273.568-.91 1.216-.636.648-1.693 1.103t-2.58.454m.409-2.409q1.59 0 2.682-.625 1.102-.625 1.659-1.614a4.1 4.1 0 0 0 .568-2.079v-2.455q-.171.205-.75.375-.568.16-1.318.284-.739.114-1.443.205a70 70 0 0 0-1.125.136q-1.046.137-1.955.443-.897.296-1.454.898-.546.591-.546 1.614 0 1.398 1.034 2.113 1.046.705 2.648.705m12.486 2v-17.455h2.59v2.728h.228q.545-1.398 1.761-2.171 1.215-.784 2.92-.784 1.728 0 2.876.784 1.16.773 1.807 2.171h.181a5.1 5.1 0 0 1 2.012-2.148q1.341-.807 3.216-.807 2.34 0 3.83 1.466 1.488 1.455 1.488 4.534V470h-2.682v-11.682q0-1.932-1.057-2.761t-2.488-.83q-1.841 0-2.853 1.114-1.011 1.103-1.011 2.795V470h-2.727v-11.955q0-1.488-.966-2.397-.966-.921-2.489-.921-1.045 0-1.954.557a4.2 4.2 0 0 0-1.455 1.546q-.545.977-.545 2.261V470zm35.13.364q-2.522 0-4.352-1.114-1.818-1.125-2.807-3.136-.977-2.023-.977-4.705t.977-4.727q.99-2.057 2.75-3.205 1.773-1.159 4.137-1.159 1.364 0 2.693.455a6.7 6.7 0 0 1 2.42 1.477q1.091 1.011 1.739 2.682.648 1.67.648 4.113v1.137H81.764v-2.318h10.728q0-1.478-.591-2.637a4.46 4.46 0 0 0-1.66-1.829q-1.068-.67-2.522-.671-1.602 0-2.773.796a5.2 5.2 0 0 0-1.784 2.045 6 6 0 0 0-.625 2.705v1.545q0 1.977.682 3.352.693 1.365 1.92 2.08 1.228.705 2.853.705 1.056 0 1.909-.296a4.1 4.1 0 0 0 1.488-.909q.626-.614.966-1.523l2.591.728a5.75 5.75 0 0 1-1.375 2.318q-.966.988-2.386 1.545-1.421.546-3.193.546M127.39 454h-2.818q-.25-1.216-.875-2.136a5.8 5.8 0 0 0-1.5-1.546 6.4 6.4 0 0 0-1.943-.954 7.8 7.8 0 0 0-2.227-.319q-2.115 0-3.83 1.069-1.704 1.068-2.716 3.147-1 2.08-1 5.103t1 5.102q1.011 2.08 2.716 3.148 1.715 1.068 3.83 1.068 1.159 0 2.227-.318a6.5 6.5 0 0 0 1.943-.944 6 6 0 0 0 1.5-1.556 6 6 0 0 0 .875-2.137h2.818q-.318 1.785-1.159 3.193a8.7 8.7 0 0 1-2.091 2.398 9.2 9.2 0 0 1-2.807 1.489q-1.545.511-3.306.511-2.977 0-5.296-1.454-2.317-1.455-3.648-4.137-1.329-2.682-1.329-6.363t1.329-6.364q1.33-2.682 3.648-4.136t5.296-1.455q1.761 0 3.306.511a9 9 0 0 1 2.807 1.5 8.6 8.6 0 0 1 2.091 2.387q.841 1.398 1.159 3.193"/><rect width="793" height="97" x="148" y="95" stroke="#dbdbdb" stroke-width="2" rx="27"/><rect width="793" height="264" x="148" y="238" stroke="#dbdbdb" stroke-width="2" rx="27"/><path fill="#fff" d="M382.849 49V19.91h11.477q3.295 0 5.625 1.178 2.344 1.165 3.565 3.31 1.236 2.13 1.236 5.014 0 2.898-1.25 4.986-1.25 2.073-3.622 3.182-2.358 1.108-5.71 1.108h-7.685v-4.944h6.69q1.762 0 2.927-.483 1.164-.483 1.733-1.449.582-.965.582-2.4 0-1.449-.582-2.443-.569-.994-1.748-1.506-1.164-.526-2.94-.526h-4.148V49zm15.71-13.239L405.789 49h-6.79l-7.074-13.239zm20.018 13.665q-3.367 0-5.796-1.364-2.415-1.377-3.721-3.892-1.308-2.527-1.307-5.98 0-3.366 1.307-5.909t3.679-3.963q2.386-1.42 5.596-1.42 2.16 0 4.02.696a8.9 8.9 0 0 1 3.267 2.06q1.407 1.377 2.188 3.465.78 2.074.781 4.858v1.662h-18.423v-3.75h12.727q0-1.307-.568-2.315a4.07 4.07 0 0 0-1.577-1.577q-.995-.582-2.315-.582-1.378 0-2.444.639-1.05.625-1.647 1.69-.597 1.051-.611 2.344v3.565q0 1.62.597 2.799.61 1.179 1.718 1.818 1.108.64 2.628.64 1.008 0 1.847-.285a3.8 3.8 0 0 0 1.434-.852q.597-.57.909-1.392l5.597.369a7.64 7.64 0 0 1-1.747 3.523q-1.307 1.49-3.381 2.33-2.06.823-4.758.823m25.696-22.244v4.545h-13.466v-4.545zM433.889 49V25.605q0-2.372.923-3.934a5.94 5.94 0 0 1 2.557-2.344q1.62-.782 3.679-.782 1.392 0 2.543.213 1.164.214 1.733.384l-1.08 4.546a8 8 0 0 0-.88-.214 5.5 5.5 0 0 0-1.052-.099q-1.335 0-1.86.625-.526.61-.526 1.719V49zm23.242.426q-3.366 0-5.795-1.364-2.415-1.377-3.722-3.892-1.306-2.527-1.306-5.98 0-3.366 1.306-5.909 1.308-2.542 3.679-3.963 2.387-1.42 5.597-1.42 2.159 0 4.02.696a8.9 8.9 0 0 1 3.267 2.06q1.406 1.377 2.187 3.465.782 2.074.782 4.858v1.662h-18.424v-3.75h12.728q0-1.307-.569-2.315a4.06 4.06 0 0 0-1.576-1.577q-.995-.582-2.316-.582-1.377 0-2.443.639-1.051.625-1.648 1.69a4.8 4.8 0 0 0-.61 2.344v3.565q0 1.62.596 2.799.61 1.179 1.719 1.818 1.108.64 2.628.64 1.009 0 1.846-.285a3.8 3.8 0 0 0 1.435-.852q.597-.57.909-1.392l5.597.369a7.65 7.65 0 0 1-1.747 3.523q-1.308 1.49-3.381 2.33-2.06.823-4.759.823M471.094 49V27.182h5.867v3.807h.227q.597-2.032 2.003-3.068 1.406-1.052 3.239-1.052.454 0 .98.057.525.057.923.156v5.37a8 8 0 0 0-1.179-.228q-.753-.099-1.378-.099-1.335 0-2.386.582a4.3 4.3 0 0 0-1.648 1.591q-.596 1.023-.596 2.358V49zm25.295.426q-3.366 0-5.795-1.364-2.415-1.377-3.722-3.892-1.307-2.527-1.307-5.98 0-3.366 1.307-5.909t3.679-3.963q2.387-1.42 5.597-1.42 2.159 0 4.02.696a8.9 8.9 0 0 1 3.267 2.06q1.405 1.377 2.187 3.465.781 2.074.781 4.858v1.662H487.98v-3.75h12.727q0-1.307-.568-2.315a4.07 4.07 0 0 0-1.577-1.577q-.993-.582-2.315-.582-1.378 0-2.443.639-1.051.625-1.648 1.69-.596 1.051-.611 2.344v3.565q0 1.62.597 2.799.61 1.179 1.719 1.818 1.107.64 2.628.64 1.008 0 1.846-.285a3.8 3.8 0 0 0 1.435-.852q.597-.57.909-1.392l5.597.369a7.65 7.65 0 0 1-1.748 3.523q-1.307 1.49-3.38 2.33-2.06.823-4.759.823m20.014-13.04V49h-6.051V27.182h5.767v3.85h.256a6.1 6.1 0 0 1 2.429-3.012q1.704-1.122 4.134-1.122 2.273 0 3.963.994t2.627 2.841q.938 1.832.938 4.375V49h-6.051V36.188q.014-2.003-1.023-3.126-1.037-1.136-2.855-1.136-1.221 0-2.159.526-.924.525-1.449 1.534-.511.995-.526 2.4m28.69 13.04q-3.352 0-5.767-1.42-2.4-1.435-3.693-3.978-1.278-2.542-1.279-5.852 0-3.352 1.293-5.88 1.307-2.544 3.707-3.964 2.401-1.434 5.711-1.434 2.855 0 5 1.037t3.395 2.912 1.377 4.403h-5.71q-.241-1.633-1.278-2.628-1.023-1.008-2.685-1.008-1.406 0-2.457.767-1.037.753-1.62 2.201-.582 1.45-.582 3.509 0 2.088.568 3.551.582 1.463 1.634 2.23 1.05.767 2.457.767 1.037 0 1.861-.426a3.6 3.6 0 0 0 1.378-1.236q.553-.823.724-1.974h5.71q-.141 2.5-1.363 4.403-1.208 1.89-3.338 2.955t-5.043 1.065m23.562 0q-3.366 0-5.796-1.364-2.414-1.377-3.721-3.892-1.307-2.527-1.307-5.98 0-3.366 1.307-5.909t3.679-3.963q2.386-1.42 5.596-1.42 2.16 0 4.02.696a8.9 8.9 0 0 1 3.267 2.06q1.407 1.377 2.188 3.465.781 2.074.781 4.858v1.662h-18.423v-3.75h12.727q0-1.307-.568-2.315a4.07 4.07 0 0 0-1.577-1.577q-.995-.582-2.315-.582-1.378 0-2.443.639-1.051.625-1.648 1.69-.596 1.051-.611 2.344v3.565q0 1.62.597 2.799.61 1.179 1.718 1.818 1.109.64 2.628.64 1.009 0 1.847-.285a3.8 3.8 0 0 0 1.435-.852q.596-.57.909-1.392l5.596.369a7.64 7.64 0 0 1-1.747 3.523q-1.307 1.49-3.381 2.33-2.06.823-4.758.823m39.116-21.15q-.171-1.719-1.463-2.67-1.293-.953-3.509-.953-1.505 0-2.543.427-1.036.412-1.591 1.15a2.77 2.77 0 0 0-.539 1.676q-.028.782.326 1.364.37.582 1.009 1.008.639.413 1.477.725.839.299 1.79.511l2.614.625a18.4 18.4 0 0 1 3.494 1.137q1.591.71 2.756 1.747a7.3 7.3 0 0 1 1.804 2.443q.653 1.406.667 3.224-.014 2.67-1.363 4.631-1.336 1.946-3.864 3.026-2.514 1.065-6.065 1.065-3.523 0-6.137-1.08-2.6-1.08-4.062-3.196-1.45-2.13-1.52-5.27h5.952q.099 1.463.838 2.444.753.965 2.002 1.463 1.264.483 2.856.483 1.562 0 2.713-.455 1.164-.454 1.804-1.264a2.92 2.92 0 0 0 .639-1.86q0-.98-.583-1.649-.567-.667-1.676-1.136-1.094-.469-2.684-.852l-3.168-.796q-3.679-.894-5.81-2.798t-2.116-5.128q-.015-2.642 1.406-4.616 1.435-1.975 3.935-3.083 2.499-1.107 5.682-1.108 3.238 0 5.653 1.108 2.429 1.108 3.778 3.083 1.35 1.974 1.392 4.574zm21.921-1.094v4.545h-13.139v-4.545zm-10.156-5.227h6.051v20.34q0 .84.255 1.307.257.454.711.64.468.184 1.079.184.426 0 .852-.07.426-.086.654-.129l.951 4.503q-.455.143-1.278.327-.824.198-2.003.241-2.187.086-3.835-.582-1.634-.667-2.543-2.074t-.894-3.551zM633.634 49V27.182h5.866v3.807h.227q.597-2.032 2.003-3.068 1.407-1.052 3.239-1.052.454 0 .98.057.525.057.923.156v5.37a8 8 0 0 0-1.179-.228q-.753-.099-1.378-.099-1.335 0-2.386.582a4.3 4.3 0 0 0-1.648 1.591q-.596 1.023-.596 2.358V49zm16.367 0V27.182h6.051V49zm3.039-24.63q-1.349 0-2.315-.896-.952-.909-.952-2.173 0-1.25.952-2.145.966-.909 2.315-.909 1.35 0 2.302.91.966.893.966 2.144 0 1.264-.966 2.173-.952.895-2.302.895m13.91 12.016V49h-6.051V27.182h5.767v3.85h.256a6.1 6.1 0 0 1 2.429-3.012q1.704-1.122 4.133-1.122 2.274 0 3.963.994t2.628 2.841q.938 1.832.938 4.375V49h-6.051V36.188q.014-2.003-1.023-3.126-1.037-1.136-2.855-1.136-1.222 0-2.159.526-.924.525-1.449 1.534-.511.995-.526 2.4m28.662 21.25q-2.942 0-5.043-.81-2.088-.795-3.324-2.173-1.236-1.377-1.605-3.096l5.597-.753q.255.654.809 1.222.554.567 1.463.909.924.354 2.245.355 1.974 0 3.252-.966 1.293-.952 1.293-3.196v-3.992h-.256q-.398.91-1.193 1.72t-2.045 1.32q-1.25.511-2.983.511-2.458 0-4.475-1.136-2.002-1.15-3.196-3.508-1.179-2.373-1.179-5.995 0-3.707 1.208-6.193t3.21-3.721a8.3 8.3 0 0 1 4.418-1.236q1.832 0 3.068.625 1.236.61 1.988 1.534.768.91 1.179 1.79h.228v-3.665h6.008v22.031q0 2.785-1.364 4.66-1.363 1.875-3.778 2.812-2.4.951-5.525.951m.127-13.494q1.464 0 2.472-.724 1.023-.74 1.562-2.103.554-1.378.554-3.295 0-1.919-.539-3.324-.54-1.42-1.563-2.202-1.023-.78-2.486-.78-1.491 0-2.514.809-1.023.795-1.548 2.216-.526 1.42-.526 3.28 0 1.89.526 3.268.54 1.363 1.548 2.116 1.023.74 2.514.739"/><path stroke="#dbdbdb" stroke-width="2" d="M237 95v97M237 238v264M148 325h793M148 413h793M325 95v97M325 238v264M413 95v97M413 238v264M501 95v97M501 238v264M589 95v97M589 238v264M677 95v97M677 238v264M765 95v97M765 238v264M853 95v97M853 238v264"/><path fill="#b1b1b1" d="M195.653 132.727V156h-2.818v-20.318h-.136l-5.682 3.773v-2.864l5.818-3.864z"/><path fill="#fff" d="M195.653 270.727V294h-2.818v-20.318h-.136l-5.682 3.773v-2.864l5.818-3.864zM368.585 470.318q-2.25 0-4.011-.773-1.75-.773-2.784-2.147-1.023-1.387-1.114-3.216h2.864q.09 1.125.772 1.943.683.807 1.785 1.25t2.443.443q1.5 0 2.659-.523 1.16-.522 1.818-1.454t.659-2.159q0-1.284-.636-2.262-.637-.988-1.864-1.545t-3-.557h-1.864v-2.5h1.864q1.386 0 2.432-.5 1.057-.5 1.648-1.409.602-.909.602-2.136 0-1.182-.523-2.057a3.6 3.6 0 0 0-1.477-1.364q-.943-.488-2.227-.488-1.205 0-2.273.443a4.23 4.23 0 0 0-1.727 1.261q-.67.819-.728 1.977h-2.727q.069-1.829 1.102-3.204 1.034-1.386 2.705-2.159 1.681-.773 3.693-.773 2.16 0 3.705.875 1.545.864 2.375 2.284a6 6 0 0 1 .829 3.068q0 1.966-1.034 3.353-1.023 1.386-2.784 1.92v.182q2.204.363 3.443 1.875 1.239 1.5 1.239 3.716 0 1.897-1.034 3.409-1.023 1.5-2.796 2.364t-4.034.863M273.222 382v-2.045l7.681-8.41a53 53 0 0 0 2.228-2.568q.875-1.102 1.295-2.068a5 5 0 0 0 .432-2.045q0-1.228-.591-2.125a3.83 3.83 0 0 0-1.591-1.387q-1.011-.488-2.273-.488-1.34 0-2.341.556a3.84 3.84 0 0 0-1.534 1.535q-.534.988-.534 2.318h-2.682q0-2.046.944-3.591a6.55 6.55 0 0 1 2.568-2.409q1.636-.864 3.67-.864 2.046 0 3.625.864 1.58.863 2.478 2.329.897 1.467.897 3.262a7 7 0 0 1-.466 2.511q-.455 1.216-1.59 2.716-1.125 1.488-3.126 3.636l-5.227 5.591v.182h10.818v2.5zM361.222 382v-2.045l7.681-8.41a53 53 0 0 0 2.228-2.568q.875-1.102 1.295-2.068a5 5 0 0 0 .432-2.045q0-1.228-.591-2.125a3.83 3.83 0 0 0-1.591-1.387q-1.011-.488-2.273-.488-1.34 0-2.341.556a3.84 3.84 0 0 0-1.534 1.535q-.534.988-.534 2.318h-2.682q0-2.046.944-3.591a6.55 6.55 0 0 1 2.568-2.409q1.636-.864 3.67-.864 2.046 0 3.625.864 1.58.863 2.478 2.329.897 1.467.897 3.262a7 7 0 0 1-.466 2.511q-.454 1.216-1.59 2.716-1.125 1.488-3.126 3.636l-5.227 5.591v.182h10.818v2.5zM371.653 270.727V294h-2.818v-20.318h-.136l-5.682 3.773v-2.864l5.818-3.864zM283.653 270.727V294h-2.818v-20.318h-.136l-5.682 3.773v-2.864l5.818-3.864z"/><path fill="#b1b1b1" d="M272.222 156v-2.045l7.681-8.41a53 53 0 0 0 2.228-2.568q.875-1.102 1.295-2.068a5 5 0 0 0 .432-2.045q0-1.228-.591-2.125a3.83 3.83 0 0 0-1.591-1.387q-1.011-.488-2.273-.488-1.34 0-2.341.556a3.84 3.84 0 0 0-1.534 1.535q-.534.988-.534 2.318h-2.682q0-2.046.944-3.591a6.55 6.55 0 0 1 2.568-2.409q1.636-.864 3.67-.864 2.046 0 3.625.864 1.58.863 2.478 2.329.897 1.467.897 3.262a7 7 0 0 1-.466 2.511q-.455 1.216-1.59 2.716-1.125 1.488-3.126 3.636l-5.227 5.591v.182h10.818v2.5zM366.585 156.318q-2.25 0-4.011-.773-1.75-.773-2.784-2.147-1.023-1.387-1.114-3.216h2.864q.09 1.125.772 1.943.683.807 1.785 1.25t2.443.443q1.5 0 2.659-.523 1.16-.522 1.818-1.454t.659-2.159q0-1.284-.636-2.262-.637-.988-1.864-1.545t-3-.557h-1.864v-2.5h1.864q1.386 0 2.432-.5 1.057-.5 1.648-1.409.602-.909.602-2.136 0-1.182-.523-2.057a3.6 3.6 0 0 0-1.477-1.364q-.943-.488-2.227-.488-1.205 0-2.273.443a4.23 4.23 0 0 0-1.727 1.261q-.67.819-.728 1.977h-2.727q.069-1.828 1.102-3.204 1.034-1.386 2.705-2.159 1.681-.773 3.693-.773 2.16 0 3.705.875 1.545.864 2.375 2.284a6 6 0 0 1 .829 3.068q0 1.966-1.034 3.353-1.023 1.386-2.784 1.92v.182q2.204.363 3.443 1.875 1.239 1.5 1.239 3.716 0 1.897-1.034 3.409-1.023 1.5-2.796 2.364t-4.034.863"/><path fill="#fff" d="M447.098 151.227v-2.318l10.227-16.182h1.682v3.591h-1.136l-7.728 12.227v.182h13.773v2.5zM458.053 156v-23.273h2.681V156zM543.652 156.318a8.7 8.7 0 0 1-2.864-.545q-1.431-.523-2.613-1.762-1.182-1.25-1.898-3.375-.716-2.136-.716-5.363 0-3.091.58-5.478.58-2.397 1.681-4.034 1.103-1.647 2.66-2.5 1.567-.852 3.534-.852 1.954 0 3.477.784a6.63 6.63 0 0 1 2.5 2.159q.966 1.387 1.25 3.193h-2.773q-.385-1.567-1.5-2.602-1.113-1.034-2.954-1.034-2.705 0-4.262 2.352-1.545 2.353-1.557 6.603h.182a6.83 6.83 0 0 1 3.466-2.716 6.8 6.8 0 0 1 2.262-.375q2 0 3.659 1 1.659.989 2.659 2.738 1 1.739 1 3.989 0 2.159-.966 3.955a7.35 7.35 0 0 1-2.716 2.84q-1.739 1.046-4.091 1.023m0-2.5q1.433 0 2.568-.716a5.1 5.1 0 0 0 1.807-1.92q.67-1.205.67-2.682 0-1.443-.647-2.625a4.95 4.95 0 0 0-1.762-1.898q-1.113-.704-2.545-.704-1.08 0-2.011.432a5.2 5.2 0 0 0-1.637 1.159 5.6 5.6 0 0 0-1.091 1.693 5.1 5.1 0 0 0-.397 1.988q0 1.387.647 2.591a5.34 5.34 0 0 0 1.796 1.944q1.147.738 2.602.738M625.222 156v-2.045l7.681-8.41a53 53 0 0 0 2.228-2.568q.875-1.102 1.295-2.068a5 5 0 0 0 .432-2.045q0-1.228-.591-2.125a3.83 3.83 0 0 0-1.591-1.387q-1.011-.488-2.273-.488-1.34 0-2.341.556a3.84 3.84 0 0 0-1.534 1.535q-.534.988-.534 2.318h-2.682q0-2.046.944-3.591a6.55 6.55 0 0 1 2.568-2.409q1.636-.864 3.67-.864 2.046 0 3.625.864 1.58.863 2.478 2.329.897 1.467.897 3.262a7 7 0 0 1-.466 2.511q-.455 1.216-1.59 2.716-1.125 1.488-3.126 3.636l-5.227 5.591v.182h10.818v2.5zM719.447 156.318q-2 0-3.602-.795-1.602-.796-2.568-2.182t-1.057-3.159h2.727q.16 1.58 1.432 2.613 1.284 1.023 3.068 1.023 1.432 0 2.546-.67a4.73 4.73 0 0 0 1.761-1.841q.648-1.182.648-2.671 0-1.522-.67-2.716a4.9 4.9 0 0 0-1.819-1.897q-1.159-.693-2.647-.705a7.3 7.3 0 0 0-2.194.33q-1.125.33-1.852.852l-2.636-.318 1.409-11.455h12.091v2.5h-9.727l-.819 6.864h.137q.715-.568 1.795-.943a6.8 6.8 0 0 1 2.25-.375q2.136 0 3.807 1.022 1.682 1.012 2.636 2.773.966 1.761.966 4.023 0 2.228-1 3.977a7.3 7.3 0 0 1-2.727 2.75q-1.738 1-3.955 1M811.653 132.727V156h-2.818v-20.318h-.136l-5.682 3.773v-2.864l5.818-3.864zM896.585 156.318q-2.25 0-4.011-.773-1.75-.773-2.784-2.147-1.023-1.387-1.114-3.216h2.864q.09 1.125.772 1.943.683.807 1.785 1.25t2.443.443q1.5 0 2.659-.523 1.16-.522 1.818-1.454t.659-2.159q0-1.284-.636-2.262-.636-.988-1.864-1.545-1.227-.557-3-.557h-1.864v-2.5h1.864q1.386 0 2.432-.5 1.057-.5 1.648-1.409.602-.909.602-2.136 0-1.182-.523-2.057a3.6 3.6 0 0 0-1.477-1.364q-.943-.488-2.227-.488-1.205 0-2.273.443a4.23 4.23 0 0 0-1.727 1.261q-.67.819-.728 1.977h-2.727q.069-1.828 1.102-3.204 1.034-1.386 2.705-2.159 1.681-.773 3.693-.773 2.16 0 3.705.875 1.545.864 2.375 2.284a6 6 0 0 1 .829 3.068q0 1.966-1.034 3.353-1.023 1.386-2.784 1.92v.182q2.205.363 3.443 1.875 1.239 1.5 1.239 3.716 0 1.897-1.034 3.409-1.023 1.5-2.796 2.364t-4.034.863"/><path stroke="#717171" stroke-width="2" d="m178.826 122.436 28 41M266.826 122.436l28 41M354.826 122.436l28 41"/></svg>