<svg xmlns="http://www.w3.org/2000/svg" width="940" height="1098" fill="none" viewBox="0 0 940 1098"><path fill="#002647" d="m864 700.5-122.5-23s8.833-47 .5-97-31.5-89-31.5-89l109-61.5s33.744 56.5 46 131-1.5 139.5-1.5 139.5"/><path fill="#717171" d="M433.241 148v-26.909h16.135v2.891h-12.877v9.092h11.668v2.89h-11.668V148zm21.295 0v-20.182h3.101V148zm1.577-23.545a2.2 2.2 0 0 1-1.564-.618 1.99 1.99 0 0 1-.643-1.485q0-.867.643-1.484.657-.618 1.564-.618.906 0 1.55.618.657.617.657 1.484t-.657 1.485a2.16 2.16 0 0 1-1.55.618M463.317 148v-20.182h2.995v3.048h.211q.55-1.497 1.997-2.43 1.445-.933 3.258-.933.342 0 .854.013.513.014.775.039v3.154a9 9 0 0 0-.722-.118 7 7 0 0 0-1.17-.092q-1.472 0-2.627.617a4.67 4.67 0 0 0-1.814 1.682q-.657 1.064-.657 2.431V148zm28.062-15.662-2.786.788a5.2 5.2 0 0 0-.775-1.353q-.499-.67-1.367-1.104-.867-.433-2.22-.433-1.852 0-3.088.854-1.222.84-1.222 2.142 0 1.155.841 1.826.842.67 2.628 1.117l2.996.736q2.706.656 4.033 2.01 1.328 1.34 1.328 3.455 0 1.735-.999 3.101-.986 1.367-2.759 2.155-1.774.788-4.126.788-3.087 0-5.111-1.34t-2.562-3.915l2.943-.736q.42 1.63 1.59 2.444 1.182.815 3.087.815 2.169 0 3.443-.92 1.288-.933 1.288-2.234 0-1.052-.736-1.761-.736-.722-2.26-1.077l-3.364-.788q-2.772-.657-4.073-2.037-1.287-1.392-1.288-3.482 0-1.708.96-3.022.972-1.313 2.641-2.063 1.682-.749 3.81-.749 2.995 0 4.704 1.314 1.72 1.314 2.444 3.469m13.812-4.52v2.628h-10.459v-2.628zm-7.41-4.835h3.101v19.236q0 1.314.381 1.971.393.643.998.867.618.21 1.301.21.513 0 .841-.053l.525-.105.631 2.786q-.316.119-.88.236-.565.132-1.432.132a6.26 6.26 0 0 1-2.576-.565 5.1 5.1 0 0 1-2.076-1.721q-.814-1.157-.814-2.917zM400.089 193v-26.909h9.092q3.154 0 5.177 1.077 2.024 1.065 2.996 2.93t.972 4.244-.972 4.218q-.972 1.84-2.983 2.891-2.01 1.038-5.137 1.038h-7.358v-2.944h7.253q2.154 0 3.469-.63 1.327-.631 1.918-1.787.604-1.17.604-2.786t-.604-2.825q-.605-1.208-1.932-1.865-1.327-.67-3.508-.67h-5.728V193zm12.666-12.088L419.377 193h-3.784l-6.517-12.088zm18.825 12.508q-2.917 0-5.032-1.287-2.102-1.3-3.245-3.627-1.13-2.338-1.13-5.439t1.13-5.466q1.143-2.379 3.179-3.705 2.05-1.341 4.783-1.341 1.577 0 3.114.526 1.538.525 2.799 1.708 1.262 1.17 2.01 3.101.749 1.932.749 4.756v1.314H424.38v-2.68h12.404q0-1.708-.684-3.048a5.14 5.14 0 0 0-1.918-2.116q-1.235-.775-2.917-.775-1.853 0-3.206.92a6.05 6.05 0 0 0-2.063 2.365 6.95 6.95 0 0 0-.722 3.127v1.787q0 2.286.788 3.876.801 1.576 2.221 2.404 1.419.815 3.297.815 1.223 0 2.208-.342a4.7 4.7 0 0 0 1.721-1.051q.723-.71 1.117-1.76l2.996.84a6.65 6.65 0 0 1-1.59 2.681q-1.117 1.143-2.759 1.787-1.643.63-3.693.63m26.844 7.148v-10.669h-.263q-.342.552-.972 1.393-.632.828-1.8 1.485-1.17.643-3.114.643-2.523 0-4.454-1.274-1.932-1.287-3.022-3.626-1.091-2.352-1.091-5.558 0-3.18 1.091-5.519t3.035-3.613 4.493-1.275q1.971 0 3.114.657 1.156.644 1.761 1.472.617.815.959 1.34h.368v-3.206h2.996v27.75zm-5.729-9.933q1.866 0 3.154-.972 1.288-.986 1.957-2.72.67-1.748.67-4.034 0-2.26-.657-3.955-.657-1.708-1.944-2.654-1.288-.959-3.18-.959-1.971 0-3.285 1.012-1.3.998-1.957 2.719-.644 1.709-.644 3.837 0 2.155.657 3.916.67 1.747 1.971 2.785 1.314 1.025 3.258 1.025m27.225-5.886v-11.931h3.1V193h-3.1v-3.416h-.211q-.709 1.537-2.207 2.615-1.498 1.064-3.784 1.064-1.892 0-3.364-.828-1.472-.841-2.312-2.523-.841-1.695-.841-4.27v-12.824h3.101v12.614q0 2.207 1.235 3.521 1.248 1.314 3.179 1.314 1.157 0 2.352-.591 1.21-.591 2.024-1.813.828-1.223.828-3.114m17.242 8.671q-2.918 0-5.033-1.287-2.102-1.3-3.245-3.627-1.13-2.338-1.13-5.439t1.13-5.466q1.143-2.379 3.18-3.705 2.049-1.341 4.782-1.341 1.577 0 3.114.526 1.537.525 2.799 1.708 1.262 1.17 2.01 3.101.749 1.932.749 4.756v1.314h-15.557v-2.68h12.404q0-1.708-.684-3.048a5.14 5.14 0 0 0-1.918-2.116q-1.235-.775-2.917-.775-1.853 0-3.206.92a6.05 6.05 0 0 0-2.063 2.365 6.95 6.95 0 0 0-.722 3.127v1.787q0 2.286.788 3.876.801 1.576 2.221 2.404 1.419.815 3.298.815 1.221 0 2.207-.342a4.7 4.7 0 0 0 1.721-1.051q.723-.71 1.117-1.76l2.996.84a6.65 6.65 0 0 1-1.59 2.681q-1.117 1.143-2.759 1.787-1.643.63-3.692.63m27.368-16.082-2.785.788a5.2 5.2 0 0 0-.775-1.353q-.5-.67-1.367-1.104-.867-.433-2.22-.433-1.853 0-3.088.854-1.222.84-1.222 2.142 0 1.155.841 1.826.841.67 2.628 1.117l2.996.736q2.707.656 4.033 2.01 1.327 1.34 1.327 3.455 0 1.735-.998 3.101-.986 1.367-2.759 2.155-1.774.788-4.126.788-3.088 0-5.111-1.34-2.024-1.34-2.562-3.915l2.943-.736q.42 1.63 1.59 2.444 1.182.815 3.087.815 2.168 0 3.443-.92 1.287-.933 1.287-2.234 0-1.052-.735-1.761-.736-.722-2.26-1.077l-3.364-.788q-2.772-.657-4.073-2.037-1.288-1.392-1.288-3.482 0-1.708.959-3.022.973-1.313 2.641-2.063 1.683-.749 3.811-.749 2.995 0 4.704 1.314 1.721 1.314 2.443 3.469m13.813-4.52v2.628h-10.459v-2.628zm-7.41-4.835h3.1v19.236q0 1.314.381 1.971.394.643.999.867.618.21 1.301.21.512 0 .841-.053l.525-.105.631 2.786q-.316.119-.88.236-.565.132-1.433.132a6.25 6.25 0 0 1-2.575-.565 5.1 5.1 0 0 1-2.076-1.721q-.814-1.157-.814-2.917zM601.382 579v-26.909h3.259v11.983h14.348v-11.983h3.258V579h-3.258v-12.036h-14.348V579zm35.43.42q-2.917 0-5.032-1.287-2.103-1.3-3.246-3.627-1.13-2.338-1.13-5.439t1.13-5.466q1.143-2.379 3.18-3.705 2.05-1.341 4.783-1.341 1.577 0 3.114.526 1.536.525 2.798 1.708 1.261 1.17 2.011 3.101.748 1.932.748 4.756v1.314h-15.556v-2.68h12.403q0-1.708-.683-3.048a5.15 5.15 0 0 0-1.919-2.116q-1.234-.775-2.916-.775-1.853 0-3.206.92a6.04 6.04 0 0 0-2.063 2.365 6.94 6.94 0 0 0-.723 3.127v1.787q0 2.286.788 3.876.802 1.576 2.221 2.404 1.419.815 3.298.815 1.222 0 2.207-.342a4.7 4.7 0 0 0 1.722-1.051 4.8 4.8 0 0 0 1.116-1.76l2.996.84a6.6 6.6 0 0 1-1.59 2.681q-1.116 1.143-2.759 1.787-1.643.63-3.692.63m19.012.053q-1.918 0-3.482-.723-1.563-.735-2.483-2.115-.92-1.393-.92-3.364 0-1.734.684-2.811a4.8 4.8 0 0 1 1.826-1.709 9.6 9.6 0 0 1 2.523-.919 31 31 0 0 1 2.798-.5 125 125 0 0 1 2.983-.354q1.156-.131 1.682-.434.538-.302.538-1.051v-.105q0-1.945-1.064-3.022-1.051-1.078-3.193-1.078-2.22 0-3.481.973-1.262.972-1.774 2.076l-2.943-1.051q.788-1.84 2.102-2.865a7.9 7.9 0 0 1 2.89-1.445 12 12 0 0 1 3.101-.421q.972 0 2.234.237 1.275.224 2.457.933 1.195.71 1.984 2.141.788 1.433.788 3.837V579h-3.101v-2.733h-.157q-.316.657-1.051 1.406-.736.749-1.958 1.274-1.222.526-2.983.526m.473-2.785q1.84 0 3.101-.723 1.274-.723 1.919-1.866a4.75 4.75 0 0 0 .656-2.404v-2.838q-.197.236-.867.433-.657.184-1.524.329-.853.13-1.669.236-.8.092-1.3.158-1.209.158-2.26.512-1.038.342-1.682 1.038-.631.684-.631 1.866 0 1.616 1.196 2.444 1.209.815 3.061.815m22.058 2.732q-2.523 0-4.454-1.274-1.932-1.287-3.022-3.626-1.09-2.352-1.091-5.558 0-3.18 1.091-5.519t3.035-3.613q1.944-1.275 4.493-1.275 1.971 0 3.114.657 1.156.644 1.761 1.472.618.815.959 1.34h.263v-9.933h3.101V579h-2.996v-3.101h-.368q-.342.552-.972 1.393-.631.828-1.8 1.485-1.17.643-3.114.643m.42-2.785q1.866 0 3.154-.972 1.287-.986 1.957-2.72.67-1.748.671-4.034 0-2.26-.657-3.955-.658-1.708-1.945-2.654-1.287-.959-3.18-.959-1.971 0-3.285 1.012-1.3.998-1.957 2.719-.644 1.709-.644 3.837 0 2.155.657 3.916.67 1.747 1.971 2.785 1.314 1.025 3.258 1.025M578.058 624v-26.909h9.093q3.166 0 5.177 1.143 2.022 1.13 2.995 3.061t.973 4.31-.973 4.323q-.959 1.944-2.969 3.101-2.01 1.143-5.151 1.143h-6.517v-2.891h6.412q2.168 0 3.482-.749 1.314-.748 1.905-2.023.605-1.288.605-2.904t-.605-2.891q-.59-1.274-1.918-1.997-1.328-.735-3.521-.735h-5.729V624zm31.048.42q-2.733 0-4.796-1.3-2.05-1.302-3.206-3.64-1.143-2.339-1.143-5.466 0-3.153 1.143-5.505 1.157-2.352 3.206-3.653 2.063-1.3 4.796-1.301t4.783 1.301q2.063 1.3 3.206 3.653 1.156 2.352 1.156 5.505 0 3.127-1.156 5.466-1.143 2.338-3.206 3.64-2.05 1.3-4.783 1.3m0-2.785q2.076 0 3.416-1.064t1.984-2.799.644-3.758-.644-3.771q-.643-1.747-1.984-2.825-1.34-1.077-3.416-1.077t-3.416 1.077-1.984 2.825-.644 3.771q0 2.024.644 3.758t1.984 2.799 3.416 1.064m28.174-13.297-2.786.788a5.2 5.2 0 0 0-.775-1.353q-.5-.67-1.366-1.104-.867-.433-2.221-.433-1.853 0-3.087.854-1.222.84-1.222 2.142 0 1.155.841 1.826.84.67 2.627 1.117l2.996.736q2.707.656 4.034 2.01 1.327 1.34 1.327 3.455 0 1.735-.999 3.101-.985 1.367-2.759 2.155t-4.126.788q-3.087 0-5.111-1.34t-2.562-3.915l2.943-.736q.421 1.63 1.59 2.444 1.183.815 3.088.815 2.168 0 3.442-.92 1.288-.933 1.288-2.234 0-1.052-.736-1.761-.736-.721-2.26-1.077l-3.363-.788q-2.773-.657-4.074-2.037-1.287-1.392-1.287-3.482 0-1.708.959-3.022.972-1.313 2.641-2.063 1.682-.749 3.81-.749 2.995 0 4.704 1.314 1.722 1.314 2.444 3.469M642.316 624v-20.182h3.1V624zm1.576-23.545a2.2 2.2 0 0 1-1.563-.618 1.99 1.99 0 0 1-.644-1.485q0-.867.644-1.484a2.2 2.2 0 0 1 1.563-.618q.907 0 1.551.618.657.617.657 1.484t-.657 1.485a2.16 2.16 0 0 1-1.551.618m15.981 3.363v2.628h-10.459v-2.628zm-7.411-4.835h3.101v19.236q0 1.314.381 1.971.395.643.999.867.618.21 1.301.21.512 0 .841-.053l.525-.105.631 2.786q-.315.119-.881.236-.564.132-1.432.132a6.25 6.25 0 0 1-2.575-.565 5.1 5.1 0 0 1-2.076-1.721q-.815-1.157-.815-2.917zM664.537 624v-20.182h3.101V624zm1.577-23.545a2.2 2.2 0 0 1-1.564-.618 1.99 1.99 0 0 1-.643-1.485q0-.867.643-1.484.658-.618 1.564-.618t1.55.618q.657.617.657 1.484t-.657 1.485a2.16 2.16 0 0 1-1.55.618m15.402 23.965q-2.733 0-4.795-1.3-2.05-1.302-3.206-3.64-1.143-2.339-1.143-5.466 0-3.153 1.143-5.505 1.155-2.352 3.206-3.653 2.062-1.3 4.795-1.301t4.783 1.301q2.063 1.3 3.206 3.653 1.156 2.352 1.156 5.505 0 3.127-1.156 5.466-1.143 2.338-3.206 3.64-2.05 1.3-4.783 1.3m0-2.785q2.076 0 3.417-1.064t1.984-2.799.643-3.758-.643-3.771q-.645-1.747-1.984-2.825-1.341-1.077-3.417-1.077t-3.416 1.077-1.984 2.825-.644 3.771q0 2.024.644 3.758t1.984 2.799 3.416 1.064m16.98-9.776V624h-3.101v-20.182h2.995v3.154h.263a5.77 5.77 0 0 1 2.155-2.471q1.445-.946 3.732-.946 2.05 0 3.587.841 1.537.828 2.391 2.523.854 1.682.854 4.257V624h-3.101v-12.614q0-2.378-1.235-3.705-1.234-1.34-3.39-1.34-1.485 0-2.654.644-1.157.643-1.826 1.879-.67 1.235-.67 2.995M101.542 251v-26.909h3.258v24.018h12.509V251zm26.331.473q-1.919 0-3.482-.723-1.564-.735-2.484-2.115-.92-1.393-.919-3.364 0-1.734.683-2.811a4.8 4.8 0 0 1 1.826-1.709 9.6 9.6 0 0 1 2.523-.919 31 31 0 0 1 2.799-.5 125 125 0 0 1 2.982-.354q1.157-.131 1.682-.434.539-.302.539-1.051v-.105q0-1.945-1.064-3.022-1.051-1.078-3.193-1.078-2.221 0-3.482.973-1.261.972-1.774 2.076l-2.943-1.051q.788-1.84 2.102-2.865a7.9 7.9 0 0 1 2.891-1.445 12 12 0 0 1 3.101-.421q.972 0 2.233.237 1.275.224 2.457.933 1.196.71 1.984 2.141.789 1.433.789 3.837V251h-3.101v-2.733h-.158q-.315.657-1.051 1.406-.735.749-1.958 1.274-1.222.526-2.982.526m.473-2.785q1.84 0 3.101-.723 1.274-.723 1.918-1.866a4.75 4.75 0 0 0 .657-2.404v-2.838q-.198.236-.867.433-.657.184-1.524.329-.855.13-1.669.236-.802.092-1.301.158-1.209.158-2.26.512-1.038.342-1.682 1.038-.63.684-.63 1.866 0 1.616 1.195 2.444 1.21.815 3.062.815m28.732-13.35-2.786.788a5.2 5.2 0 0 0-.775-1.353q-.5-.67-1.366-1.104-.867-.433-2.221-.433-1.852 0-3.088.854-1.221.84-1.222 2.142 0 1.155.841 1.826.841.67 2.628 1.117l2.996.736q2.706.656 4.034 2.01 1.326 1.34 1.327 3.455 0 1.735-.999 3.101-.986 1.367-2.759 2.155-1.774.788-4.126.788-3.087 0-5.111-1.34t-2.562-3.915l2.943-.736q.42 1.63 1.59 2.444 1.183.815 3.088.815 2.167 0 3.442-.92 1.288-.933 1.288-2.234 0-1.052-.736-1.761-.736-.722-2.26-1.077l-3.364-.788q-2.772-.657-4.073-2.037-1.287-1.392-1.287-3.482 0-1.708.959-3.022.972-1.313 2.641-2.063 1.682-.749 3.81-.749 2.995 0 4.704 1.314 1.72 1.314 2.444 3.469m13.812-4.52v2.628h-10.458v-2.628zm-7.41-4.835h3.101v19.236q0 1.314.381 1.971.394.643.998.867.618.21 1.301.21.513 0 .841-.053l.526-.105.63 2.786q-.315.119-.88.236-.565.132-1.432.132a6.25 6.25 0 0 1-2.575-.565 5.1 5.1 0 0 1-2.076-1.721q-.816-1.157-.815-2.917zM67.09 296v-26.909h9.091q3.154 0 5.177 1.077 2.025 1.065 2.996 2.93t.972 4.244q0 2.379-.972 4.218-.972 1.84-2.983 2.891-2.01 1.038-5.137 1.038h-7.358v-2.944h7.253q2.154 0 3.469-.63 1.326-.631 1.918-1.787.604-1.17.604-2.786t-.604-2.825-1.931-1.865q-1.328-.67-3.509-.67h-5.728V296zm12.665-12.088L86.377 296h-3.784l-6.517-12.088zm18.826 12.508q-2.918 0-5.033-1.287-2.102-1.3-3.245-3.627-1.13-2.339-1.13-5.439t1.13-5.466q1.143-2.379 3.18-3.705 2.049-1.341 4.782-1.341 1.576 0 3.114.526t2.799 1.708q1.261 1.17 2.01 3.101t.749 4.756v1.314H91.38v-2.68h12.404q0-1.708-.684-3.048a5.14 5.14 0 0 0-1.918-2.116q-1.235-.775-2.917-.775-1.853 0-3.206.92a6.04 6.04 0 0 0-2.063 2.365 6.94 6.94 0 0 0-.722 3.127v1.787q0 2.286.788 3.876.802 1.576 2.22 2.404 1.42.815 3.299.815 1.221 0 2.207-.342a4.7 4.7 0 0 0 1.721-1.051q.723-.71 1.117-1.76l2.996.84a6.65 6.65 0 0 1-1.59 2.681q-1.117 1.143-2.759 1.787-1.643.63-3.692.63m26.843 7.148v-10.669h-.263q-.342.552-.972 1.393-.632.828-1.8 1.485-1.17.643-3.114.643-2.523 0-4.454-1.274-1.932-1.287-3.022-3.626-1.091-2.352-1.091-5.558 0-3.18 1.091-5.519t3.035-3.613 4.493-1.275q1.971 0 3.114.657 1.157.644 1.761 1.472.617.815.959 1.34h.368v-3.206h2.996v27.75zm-5.729-9.933q1.866 0 3.154-.972 1.288-.986 1.957-2.72.67-1.748.67-4.034 0-2.26-.657-3.955-.657-1.708-1.944-2.654-1.288-.959-3.18-.959-1.971 0-3.285 1.012-1.3.998-1.957 2.719-.645 1.709-.644 3.837 0 2.155.657 3.916.67 1.747 1.971 2.785 1.314 1.025 3.258 1.025m27.225-5.886v-11.931h3.1V296h-3.1v-3.416h-.211q-.709 1.537-2.207 2.615-1.498 1.064-3.784 1.064-1.892 0-3.364-.828-1.472-.841-2.312-2.523-.841-1.695-.841-4.27v-12.824h3.101v12.614q0 2.207 1.235 3.521 1.248 1.314 3.179 1.314 1.156 0 2.352-.591 1.21-.591 2.024-1.813.828-1.223.828-3.114m17.242 8.671q-2.918 0-5.033-1.287-2.102-1.3-3.245-3.627-1.13-2.339-1.13-5.439t1.13-5.466q1.143-2.379 3.18-3.705 2.049-1.341 4.782-1.341 1.577 0 3.114.526t2.799 1.708q1.261 1.17 2.01 3.101t.749 4.756v1.314h-15.557v-2.68h12.404q0-1.708-.684-3.048a5.14 5.14 0 0 0-1.918-2.116q-1.235-.775-2.917-.775-1.853 0-3.206.92a6.05 6.05 0 0 0-2.063 2.365 6.95 6.95 0 0 0-.722 3.127v1.787q0 2.286.788 3.876.801 1.576 2.221 2.404 1.419.815 3.298.815 1.221 0 2.207-.342a4.7 4.7 0 0 0 1.721-1.051q.723-.71 1.117-1.76l2.996.84a6.65 6.65 0 0 1-1.59 2.681q-1.117 1.143-2.759 1.787-1.643.63-3.692.63m27.368-16.082-2.785.788a5.2 5.2 0 0 0-.775-1.353q-.5-.67-1.367-1.104-.867-.433-2.22-.433-1.853 0-3.088.854-1.222.84-1.222 2.142 0 1.155.841 1.826.841.67 2.628 1.117l2.996.736q2.707.656 4.033 2.01 1.327 1.34 1.327 3.455 0 1.735-.998 3.101-.986 1.367-2.759 2.155-1.774.788-4.126.788-3.088 0-5.111-1.34-2.024-1.34-2.562-3.915l2.943-.736q.42 1.63 1.59 2.444 1.182.815 3.087.815 2.168 0 3.443-.92 1.287-.933 1.287-2.234 0-1.052-.735-1.761-.736-.721-2.26-1.077l-3.364-.788q-2.772-.657-4.073-2.037-1.288-1.392-1.288-3.482 0-1.708.959-3.022.973-1.313 2.641-2.063 1.683-.749 3.811-.749 2.996 0 4.704 1.314 1.721 1.315 2.443 3.469m13.813-4.52v2.628h-10.459v-2.628zm-7.41-4.835h3.1v19.236q0 1.314.381 1.971.394.643.999.867.618.21 1.301.21.512 0 .841-.053l.525-.105.631 2.786q-.315.119-.88.236-.565.132-1.433.132a6.25 6.25 0 0 1-2.575-.565 5.1 5.1 0 0 1-2.076-1.721q-.814-1.157-.814-2.917z"/><path fill="#fff" d="M459.61 273.909V303h-3.523v-25.398h-.17l-7.103 4.716v-3.579l7.273-4.83zm7.684 23.125v-2.898l12.784-20.227h2.103v4.489h-1.421l-9.659 15.284v.227h17.216v3.125zM480.988 303v-29.091h3.352V303zM673.181 391.398q-2.813 0-5.014-.966-2.188-.966-3.481-2.685-1.278-1.733-1.392-4.02h3.58q.114 1.407.966 2.429.852 1.009 2.23 1.563t3.054.554q1.875 0 3.324-.654 1.448-.652 2.273-1.818.823-1.164.823-2.699 0-1.605-.795-2.826-.795-1.236-2.33-1.932-1.533-.696-3.75-.696h-2.329v-3.125h2.329q1.734 0 3.04-.625 1.321-.625 2.06-1.762.753-1.135.753-2.67 0-1.477-.654-2.571-.653-1.093-1.846-1.705-1.179-.61-2.784-.61a7.3 7.3 0 0 0-2.841.554q-1.322.539-2.159 1.576-.838 1.023-.91 2.472h-3.409q.085-2.287 1.378-4.006 1.293-1.733 3.381-2.699 2.102-.966 4.616-.966 2.7 0 4.631 1.094 1.932 1.08 2.969 2.855a7.5 7.5 0 0 1 1.037 3.835q0 2.458-1.293 4.191-1.278 1.732-3.48 2.4v.228q2.756.454 4.304 2.343 1.548 1.876 1.548 4.645 0 2.372-1.292 4.262-1.279 1.874-3.495 2.954t-5.042 1.08m16.548-.398 13.011-25.739v-.227h-15v-3.125h18.637v3.296L693.422 391zM786.7 590.398q-2.5 0-4.503-.995-2.003-.994-3.21-2.727t-1.321-3.949h3.409q.199 1.976 1.79 3.267 1.605 1.28 3.835 1.279 1.79 0 3.182-.838a5.9 5.9 0 0 0 2.201-2.301q.81-1.477.81-3.339 0-1.903-.838-3.394a6.15 6.15 0 0 0-2.273-2.373q-1.449-.866-3.309-.88a9.1 9.1 0 0 0-2.742.412q-1.406.411-2.315 1.065l-3.296-.398 1.762-14.318h15.113v3.125h-12.159l-1.022 8.58h.17q.895-.711 2.244-1.179a8.5 8.5 0 0 1 2.813-.469q2.67 0 4.758 1.278a8.93 8.93 0 0 1 3.296 3.466q1.207 2.202 1.207 5.029 0 2.784-1.25 4.971a9.14 9.14 0 0 1-3.409 3.438q-2.173 1.25-4.943 1.25m25.075 0q-2.813 0-5.015-.966-2.187-.966-3.48-2.685-1.278-1.732-1.392-4.02h3.58q.113 1.406.966 2.429.852 1.009 2.23 1.563 1.377.554 3.054.554 1.875 0 3.324-.654 1.448-.653 2.272-1.818.824-1.164.824-2.699 0-1.605-.795-2.826-.796-1.236-2.33-1.932t-3.75-.696h-2.329v-3.125h2.329q1.733 0 3.04-.625 1.321-.625 2.06-1.762.752-1.135.752-2.67 0-1.478-.653-2.571-.654-1.093-1.847-1.705-1.179-.61-2.784-.61-1.505 0-2.841.554-1.32.539-2.159 1.576-.837 1.023-.909 2.472h-3.409q.085-2.287 1.378-4.006 1.293-1.733 3.381-2.699 2.102-.966 4.616-.966 2.699 0 4.631 1.094 1.932 1.08 2.969 2.855a7.5 7.5 0 0 1 1.037 3.835q0 2.458-1.293 4.191-1.278 1.732-3.48 2.4v.228q2.756.455 4.304 2.343 1.548 1.876 1.548 4.645 0 2.372-1.293 4.262-1.278 1.875-3.494 2.954t-5.042 1.08M743.522 817.398a10.9 10.9 0 0 1-3.58-.682q-1.79-.654-3.267-2.202-1.476-1.562-2.372-4.219-.894-2.67-.895-6.704 0-3.864.725-6.847.725-2.997 2.102-5.042 1.378-2.06 3.324-3.125 1.96-1.066 4.418-1.066 2.442 0 4.346.98a8.3 8.3 0 0 1 3.125 2.699q1.208 1.734 1.563 3.992h-3.466q-.483-1.96-1.875-3.253t-3.693-1.293q-3.381 0-5.327 2.941-1.932 2.94-1.946 8.253h.227a8.54 8.54 0 0 1 4.332-3.395 8.5 8.5 0 0 1 2.827-.469q2.5 0 4.574 1.25 2.075 1.236 3.324 3.423 1.25 2.173 1.25 4.986 0 2.699-1.207 4.943a9.2 9.2 0 0 1-3.395 3.551q-2.174 1.308-5.114 1.279m0-3.125q1.79 0 3.21-.895a6.4 6.4 0 0 0 2.259-2.401q.838-1.506.838-3.352 0-1.804-.81-3.281a6.16 6.16 0 0 0-2.202-2.372q-1.392-.881-3.181-.881-1.35 0-2.515.54a6.5 6.5 0 0 0-2.045 1.449 7 7 0 0 0-1.364 2.116 6.3 6.3 0 0 0-.497 2.486q0 1.733.81 3.238a6.66 6.66 0 0 0 2.244 2.429q1.435.924 3.253.924m24.393 3.125q-2.5 0-4.503-.995-2.003-.994-3.21-2.727-1.208-1.732-1.321-3.949h3.409q.198 1.976 1.79 3.267 1.605 1.28 3.835 1.279 1.79 0 3.182-.838a5.9 5.9 0 0 0 2.201-2.301q.81-1.477.81-3.339 0-1.903-.838-3.394a6.15 6.15 0 0 0-2.273-2.373q-1.449-.866-3.309-.88a9 9 0 0 0-2.742.412q-1.406.411-2.315 1.065l-3.296-.398 1.762-14.318h15.113v3.125h-12.159l-1.023 8.58h.171q.895-.711 2.244-1.179a8.5 8.5 0 0 1 2.813-.469q2.67 0 4.758 1.278a8.93 8.93 0 0 1 3.296 3.466q1.207 2.202 1.207 5.029 0 2.784-1.25 4.971a9.14 9.14 0 0 1-3.409 3.438q-2.174 1.25-4.943 1.25M567.264 961.398a10.9 10.9 0 0 1-3.579-.682q-1.791-.654-3.267-2.202-1.477-1.562-2.373-4.219-.894-2.67-.894-6.704 0-3.864.724-6.847.725-2.997 2.102-5.042 1.379-2.06 3.324-3.125 1.96-1.066 4.418-1.066 2.443 0 4.346.98a8.3 8.3 0 0 1 3.125 2.699q1.207 1.734 1.563 3.992h-3.466q-.483-1.96-1.875-3.253t-3.693-1.293q-3.381 0-5.327 2.941-1.932 2.94-1.946 8.253h.227a8.51 8.51 0 0 1 4.333-3.395 8.5 8.5 0 0 1 2.826-.469q2.5 0 4.574 1.25 2.074 1.236 3.324 3.423 1.25 2.173 1.25 4.986 0 2.699-1.207 4.943a9.2 9.2 0 0 1-3.395 3.551q-2.174 1.308-5.114 1.279m0-3.125q1.79 0 3.21-.895a6.4 6.4 0 0 0 2.259-2.401q.838-1.506.838-3.352 0-1.804-.81-3.281a6.17 6.17 0 0 0-2.201-2.372q-1.392-.881-3.182-.881a5.9 5.9 0 0 0-2.514.54 6.5 6.5 0 0 0-2.046 1.449 7 7 0 0 0-1.363 2.116 6.3 6.3 0 0 0-.498 2.486q0 1.733.81 3.238a6.66 6.66 0 0 0 2.244 2.429q1.435.924 3.253.924M583.475 961l13.012-25.739v-.227h-15v-3.125h18.636v3.296L587.168 961zM334.968 932.511q1.79.015 3.58.682 1.79.668 3.267 2.216 1.476 1.535 2.372 4.19.895 2.657.895 6.662 0 3.879-.739 6.89-.725 2.997-2.102 5.056-1.363 2.06-3.324 3.125-1.945 1.066-4.404 1.066-2.442 0-4.36-.966a8.56 8.56 0 0 1-3.125-2.713q-1.207-1.747-1.549-4.049h3.466q.47 2.004 1.861 3.31 1.406 1.293 3.707 1.293 3.368 0 5.313-2.941 1.96-2.94 1.96-8.309h-.227a8.9 8.9 0 0 1-1.889 2.059 8.3 8.3 0 0 1-2.429 1.336 8.5 8.5 0 0 1-2.841.468q-2.5 0-4.588-1.235-2.074-1.25-3.324-3.424-1.236-2.187-1.236-5 0-2.67 1.193-4.886a9.2 9.2 0 0 1 3.381-3.551q2.187-1.321 5.142-1.279m0 3.125q-1.79 0-3.224.895a6.44 6.44 0 0 0-2.259 2.387q-.824 1.491-.824 3.309t.796 3.31a6.34 6.34 0 0 0 2.201 2.358q1.407.866 3.196.866 1.35 0 2.515-.525a6.5 6.5 0 0 0 2.031-1.463 7.1 7.1 0 0 0 1.378-2.117 6.4 6.4 0 0 0 .497-2.486 6.5 6.5 0 0 0-.824-3.196 6.54 6.54 0 0 0-2.244-2.414q-1.42-.924-3.239-.924m25.018 26.762q-2.926 0-5.171-1.037-2.229-1.051-3.48-2.884-1.25-1.846-1.236-4.204-.014-1.847.725-3.409a7.4 7.4 0 0 1 2.017-2.628 6.2 6.2 0 0 1 2.883-1.35v-.17q-2.088-.54-3.323-2.344-1.236-1.818-1.222-4.133-.014-2.217 1.122-3.963 1.137-1.748 3.125-2.756 2.002-1.009 4.56-1.009 2.528 0 4.517 1.009t3.125 2.756q1.15 1.746 1.165 3.963-.014 2.315-1.265 4.133-1.235 1.804-3.281 2.344v.17q1.577.285 2.841 1.35 1.264 1.05 2.017 2.628.753 1.562.767 3.409-.014 2.358-1.278 4.204-1.251 1.833-3.48 2.884-2.217 1.037-5.128 1.037m0-3.125q1.974 0 3.409-.639 1.434-.64 2.216-1.804t.795-2.728q-.014-1.647-.852-2.912-.838-1.263-2.287-1.988-1.434-.725-3.281-.725-1.861 0-3.324.725-1.449.725-2.287 1.988-.824 1.265-.81 2.912-.014 1.563.753 2.728.781 1.164 2.23 1.804 1.449.639 3.438.639m0-13.807q1.562 0 2.77-.625a4.76 4.76 0 0 0 1.917-1.747q.696-1.122.711-2.628-.015-1.477-.696-2.571a4.5 4.5 0 0 0-1.89-1.705q-1.207-.61-2.812-.61-1.634 0-2.855.61-1.222.597-1.89 1.705-.667 1.094-.653 2.571-.014 1.506.668 2.628a4.76 4.76 0 0 0 1.917 1.747q1.222.625 2.813.625M153.223 777.909V807H149.7v-25.398h-.17l-7.102 4.716v-3.579l7.272-4.83zM161.589 807v-2.557l9.603-10.511a67 67 0 0 0 2.784-3.21q1.094-1.378 1.619-2.586.54-1.221.54-2.556 0-1.535-.739-2.657-.725-1.122-1.988-1.733-1.264-.61-2.841-.61-1.677 0-2.926.696a4.8 4.8 0 0 0-1.918 1.917q-.668 1.236-.668 2.898h-3.352q0-2.557 1.179-4.489a8.2 8.2 0 0 1 3.21-3.011q2.046-1.08 4.588-1.08 2.557 0 4.532 1.08 1.974 1.08 3.096 2.912t1.122 4.077q0 1.605-.582 3.139-.569 1.52-1.989 3.395-1.406 1.86-3.906 4.545l-6.534 6.989v.227h13.523V807zm24.219 0v-2.557l9.603-10.511a68 68 0 0 0 2.784-3.21q1.094-1.378 1.619-2.586.54-1.221.54-2.556 0-1.535-.739-2.657-.725-1.122-1.989-1.733-1.263-.61-2.84-.61-1.676 0-2.927.696a4.8 4.8 0 0 0-1.917 1.917q-.668 1.236-.668 2.898h-3.352q0-2.557 1.179-4.489a8.2 8.2 0 0 1 3.21-3.011q2.046-1.08 4.588-1.08 2.557 0 4.531 1.08 1.975 1.08 3.097 2.912t1.122 4.077q0 1.605-.582 3.139-.568 1.52-1.989 3.395-1.405 1.86-3.906 4.545l-6.534 6.989v.227h13.523V807zM114.813 552.909V582h-3.523v-25.398h-.17l-7.103 4.716v-3.579l7.273-4.83zM123.179 582v-2.557l9.603-10.511a67 67 0 0 0 2.784-3.21q1.094-1.378 1.619-2.586.54-1.221.54-2.556 0-1.535-.739-2.657-.725-1.122-1.988-1.733-1.264-.61-2.841-.61-1.677 0-2.927.696a4.8 4.8 0 0 0-1.917 1.917q-.668 1.236-.668 2.898h-3.352q0-2.557 1.179-4.489a8.2 8.2 0 0 1 3.21-3.011q2.046-1.08 4.588-1.08 2.557 0 4.531 1.08 1.975 1.08 3.097 2.912t1.122 4.077q0 1.605-.582 3.139-.568 1.52-1.989 3.395-1.406 1.86-3.906 4.545l-6.534 6.989v.227h13.523V582zm22.912-5.966v-2.898l12.784-20.227h2.103v4.489h-1.421l-9.659 15.284v.227h17.216v3.125zM159.784 582v-29.091h3.353V582zM227.383 352.909V382h-3.523v-25.398h-.17l-7.102 4.716v-3.579l7.272-4.83zm17.685 29.489q-2.926 0-5.171-1.037-2.229-1.051-3.48-2.884-1.25-1.846-1.236-4.204-.014-1.847.725-3.409a7.4 7.4 0 0 1 2.017-2.628 6.2 6.2 0 0 1 2.883-1.35v-.17q-2.088-.54-3.323-2.344-1.236-1.818-1.222-4.133-.013-2.217 1.122-3.963 1.136-1.748 3.125-2.756 2.002-1.009 4.56-1.009 2.528 0 4.517 1.009 1.988 1.008 3.125 2.756 1.15 1.746 1.165 3.963-.014 2.315-1.265 4.133-1.235 1.804-3.281 2.344v.17q1.576.285 2.841 1.35 1.264 1.05 2.017 2.628.753 1.562.767 3.409-.014 2.358-1.278 4.204-1.251 1.833-3.48 2.884-2.217 1.037-5.128 1.037m0-3.125q1.974 0 3.409-.639 1.434-.64 2.216-1.804t.795-2.728q-.013-1.647-.852-2.912-.838-1.263-2.287-1.988-1.434-.725-3.281-.725-1.862 0-3.324.725-1.449.725-2.287 1.988-.824 1.265-.81 2.912-.014 1.563.753 2.728.781 1.164 2.23 1.804 1.449.639 3.438.639m0-13.807q1.562 0 2.77-.625a4.76 4.76 0 0 0 1.917-1.747q.696-1.122.711-2.628-.015-1.477-.696-2.571a4.5 4.5 0 0 0-1.89-1.705q-1.207-.61-2.812-.61-1.634 0-2.855.61-1.222.597-1.889 1.705-.668 1.093-.654 2.571-.014 1.506.668 2.628a4.76 4.76 0 0 0 1.917 1.747q1.222.625 2.813.625m25.16 16.932q-2.813 0-5.015-.966-2.187-.966-3.48-2.685-1.278-1.733-1.392-4.02h3.58q.114 1.407.966 2.429.852 1.009 2.23 1.563 1.377.554 3.054.554 1.875 0 3.324-.654 1.449-.652 2.272-1.818.825-1.164.824-2.699 0-1.605-.795-2.826-.795-1.236-2.33-1.932-1.533-.696-3.75-.696h-2.329v-3.125h2.329q1.734 0 3.04-.625 1.321-.625 2.06-1.762.753-1.135.753-2.67 0-1.477-.654-2.571-.653-1.093-1.846-1.705-1.179-.61-2.785-.61-1.505 0-2.84.554-1.321.539-2.16 1.576-.837 1.023-.909 2.472h-3.409q.085-2.287 1.378-4.006 1.293-1.733 3.381-2.699 2.102-.966 4.616-.966 2.7 0 4.631 1.094 1.931 1.08 2.969 2.855a7.5 7.5 0 0 1 1.037 3.835q0 2.458-1.293 4.191-1.278 1.732-3.48 2.4v.228q2.756.454 4.304 2.343 1.548 1.876 1.548 4.645 0 2.372-1.292 4.262-1.279 1.874-3.495 2.954t-5.042 1.08M279.002 33.094h-6.222q-.171-1.208-.696-2.145a5.5 5.5 0 0 0-1.349-1.62 6 6 0 0 0-1.904-1.022 7.3 7.3 0 0 0-2.315-.355q-2.258 0-3.935 1.122-1.676 1.108-2.599 3.238-.924 2.118-.924 5.143 0 3.11.924 5.227.938 2.115 2.613 3.196 1.677 1.08 3.878 1.08 1.236 0 2.287-.327a6 6 0 0 0 1.889-.952 5.5 5.5 0 0 0 1.364-1.548 6 6 0 0 0 .767-2.074l6.222.028a11.3 11.3 0 0 1-1.208 3.864 11.6 11.6 0 0 1-2.571 3.31q-1.605 1.448-3.835 2.3-2.216.84-5.014.839-3.892 0-6.961-1.762-3.053-1.761-4.829-5.1-1.761-3.337-1.761-8.081 0-4.76 1.789-8.097 1.79-3.337 4.858-5.085 3.069-1.762 6.904-1.762 2.528 0 4.687.71 2.173.71 3.85 2.075 1.675 1.349 2.727 3.31 1.065 1.959 1.364 4.488M283.298 52V30.182h6.052V52zm3.04-24.63q-1.349 0-2.315-.896-.952-.909-.952-2.173 0-1.25.952-2.145.966-.909 2.315-.909 1.35 0 2.301.91.966.893.966 2.144 0 1.264-.966 2.173-.951.895-2.301.895M294.197 52V30.182h5.866v3.807h.228q.596-2.031 2.002-3.068 1.407-1.052 3.239-1.052.455 0 .98.057.526.057.924.156v5.37a8 8 0 0 0-1.179-.228 11 11 0 0 0-1.378-.099q-1.335 0-2.387.582-1.036.57-1.647 1.591-.597 1.023-.597 2.358V52zm25.209.426q-3.351 0-5.767-1.42-2.4-1.435-3.693-3.978-1.278-2.542-1.278-5.852 0-3.352 1.292-5.88 1.307-2.544 3.708-3.964 2.4-1.434 5.71-1.434 2.855 0 5 1.037t3.395 2.912 1.378 4.403h-5.711q-.24-1.633-1.278-2.628-1.023-1.008-2.685-1.008-1.405 0-2.457.767-1.037.753-1.619 2.201-.583 1.45-.583 3.509 0 2.088.569 3.551.582 1.463 1.633 2.23t2.457.767q1.038 0 1.861-.426a3.6 3.6 0 0 0 1.378-1.236q.554-.823.724-1.974h5.711q-.143 2.5-1.364 4.403-1.208 1.89-3.338 2.955t-5.043 1.065m27.61-9.716V30.182h6.052V52h-5.81v-3.963h-.227a6.45 6.45 0 0 1-2.458 3.082q-1.704 1.165-4.162 1.165-2.187 0-3.849-.994t-2.599-2.827q-.924-1.832-.938-4.39V30.183h6.051v12.812q.014 1.932 1.037 3.054t2.742 1.122a4.35 4.35 0 0 0 2.045-.497 3.9 3.9 0 0 0 1.534-1.505q.597-.994.582-2.458m16.943-19.8V52h-6.051V22.91zm11.069 29.502q-2.088 0-3.722-.724-1.634-.739-2.585-2.174-.937-1.449-.937-3.608 0-1.818.667-3.054a5.4 5.4 0 0 1 1.818-1.988 8.8 8.8 0 0 1 2.614-1.137 20 20 0 0 1 3.097-.54 79 79 0 0 0 3.068-.369q1.164-.184 1.69-.54.526-.355.526-1.05v-.086q0-1.35-.853-2.088-.838-.738-2.386-.739-1.633 0-2.599.725-.966.71-1.279 1.79l-5.596-.455q.425-1.99 1.676-3.437 1.25-1.464 3.224-2.245 1.989-.795 4.602-.795 1.82 0 3.481.426 1.676.426 2.968 1.32a6.4 6.4 0 0 1 2.06 2.302q.753 1.392.753 3.338V52h-5.739v-3.026h-.17a6.2 6.2 0 0 1-1.407 1.804q-.88.767-2.116 1.208-1.236.426-2.855.426m1.733-4.176q1.335 0 2.358-.526a4.2 4.2 0 0 0 1.605-1.449q.582-.909.582-2.06v-2.315q-.284.185-.781.341-.483.142-1.094.27a55 55 0 0 1-1.221.213l-1.108.157q-1.066.156-1.861.497t-1.236.923q-.44.568-.44 1.42 0 1.236.895 1.89.909.639 2.301.639M392.009 52V30.182h5.867v3.807h.227q.596-2.031 2.003-3.068 1.406-1.052 3.239-1.052.454 0 .98.057.525.057.923.156v5.37a8 8 0 0 0-1.179-.228q-.753-.099-1.378-.099-1.335 0-2.386.582a4.3 4.3 0 0 0-1.648 1.591q-.596 1.023-.596 2.358V52zm36.052 0h-10.313V22.91h10.398q4.389 0 7.557 1.746 3.166 1.734 4.872 4.986 1.719 3.253 1.718 7.784 0 4.545-1.718 7.813-1.705 3.268-4.901 5.014Q432.492 52 428.061 52m-4.162-5.27h3.906q2.727 0 4.588-.966 1.875-.98 2.812-3.025.952-2.06.952-5.313 0-3.224-.952-5.27-.937-2.045-2.798-3.011t-4.588-.966h-3.92zM446.736 52V30.182h6.051V52zm3.04-24.63q-1.35 0-2.316-.896-.951-.909-.951-2.173 0-1.25.951-2.145.966-.909 2.316-.909t2.301.91q.966.893.966 2.144 0 1.264-.966 2.173-.952.895-2.301.895m26.012 9.033-5.54.341a2.86 2.86 0 0 0-.611-1.278 3.24 3.24 0 0 0-1.236-.923q-.752-.355-1.804-.355-1.406 0-2.372.596-.966.583-.966 1.563 0 .78.625 1.32t2.145.867l3.949.796q3.182.653 4.744 2.102 1.563 1.449 1.563 3.807 0 2.145-1.264 3.764-1.25 1.62-3.438 2.528-2.173.895-5.014.895-4.332 0-6.903-1.804-2.557-1.818-2.998-4.943l5.952-.312q.27 1.32 1.307 2.017 1.037.681 2.656.681 1.591 0 2.557-.61.98-.625.994-1.606-.014-.824-.696-1.349-.681-.54-2.102-.824l-3.778-.753q-3.196-.64-4.759-2.216-1.548-1.575-1.548-4.02 0-2.101 1.136-3.622 1.15-1.52 3.225-2.343 2.087-.825 4.886-.824 4.133 0 6.506 1.747 2.386 1.747 2.784 4.758m9.79 9.319.014-7.259h.881l6.989-8.281h6.946l-9.389 10.966h-1.435zM480.095 52V22.91h6.051V52zm13.637 0-6.421-9.503 4.034-4.275L500.82 52zm19.016 0V22.91h11.477q3.296 0 5.625 1.178 2.344 1.165 3.566 3.31 1.235 2.13 1.235 5.014 0 2.898-1.25 4.986-1.25 2.073-3.622 3.182-2.358 1.108-5.71 1.108h-7.685v-4.944h6.691q1.76 0 2.926-.483 1.164-.483 1.733-1.449.582-.965.582-2.4 0-1.449-.582-2.443-.568-.994-1.747-1.506-1.165-.526-2.941-.526h-4.147V52zm15.71-13.239L535.688 52h-6.789l-7.074-13.239zm20.018 13.665q-3.366 0-5.795-1.364-2.415-1.377-3.722-3.892-1.307-2.527-1.307-5.98 0-3.366 1.307-5.909t3.679-3.963q2.386-1.42 5.597-1.42 2.159 0 4.019.696a8.9 8.9 0 0 1 3.267 2.06q1.407 1.377 2.188 3.465.781 2.074.781 4.858v1.662h-18.423v-3.75h12.727q0-1.307-.568-2.315a4.07 4.07 0 0 0-1.577-1.577q-.994-.582-2.315-.582-1.378 0-2.443.639-1.051.625-1.648 1.69-.596 1.051-.611 2.344v3.565q0 1.62.597 2.799.61 1.179 1.719 1.818 1.107.64 2.627.64 1.009 0 1.847-.285a3.8 3.8 0 0 0 1.435-.852q.596-.57.909-1.392l5.596.369a7.64 7.64 0 0 1-1.747 3.523q-1.307 1.49-3.38 2.33-2.06.823-4.759.823m28.381 7.756V48.506h-.185q-.427.909-1.207 1.804-.767.88-2.003 1.463-1.222.582-2.983.582-2.486 0-4.503-1.278-2.003-1.293-3.182-3.793-1.164-2.514-1.165-6.165 0-3.75 1.208-6.236 1.207-2.499 3.21-3.735a8.23 8.23 0 0 1 4.418-1.25q1.831 0 3.054.625 1.235.61 1.988 1.534.768.91 1.165 1.79h.256v-3.665h5.966v30zm-4.461-12.642q1.464 0 2.472-.796 1.023-.81 1.563-2.258.554-1.45.554-3.395t-.54-3.38-1.563-2.217q-1.022-.78-2.486-.78-1.491 0-2.514.809-1.023.81-1.548 2.244t-.526 3.324q0 1.904.526 3.366.54 1.45 1.548 2.273 1.023.81 2.514.81m29.347-4.83V30.182h6.051V52h-5.809v-3.963h-.228a6.44 6.44 0 0 1-2.457 3.082q-1.705 1.165-4.162 1.165-2.187 0-3.85-.994-1.661-.994-2.599-2.827-.923-1.832-.937-4.39V30.183h6.051v12.812q.014 1.932 1.037 3.054t2.741 1.122q1.093 0 2.046-.497.95-.511 1.534-1.505.596-.994.582-2.458m20.835 9.716q-3.368 0-5.796-1.364-2.415-1.377-3.721-3.892-1.307-2.527-1.307-5.98 0-3.366 1.307-5.909t3.678-3.963q2.387-1.42 5.597-1.42 2.159 0 4.02.696a8.9 8.9 0 0 1 3.267 2.06q1.407 1.377 2.188 3.465.78 2.074.781 4.858v1.662h-18.424v-3.75h12.728q0-1.307-.568-2.315a4.07 4.07 0 0 0-1.577-1.577q-.995-.582-2.315-.582-1.378 0-2.444.639-1.05.625-1.647 1.69-.597 1.051-.611 2.344v3.565q0 1.62.596 2.799a4.38 4.38 0 0 0 1.719 1.818q1.109.64 2.628.64 1.008 0 1.847-.285a3.8 3.8 0 0 0 1.434-.852q.597-.57.909-1.392l5.597.369a7.65 7.65 0 0 1-1.747 3.523q-1.307 1.49-3.381 2.33-2.06.823-4.758.823m32.116-16.023-5.54.341a2.85 2.85 0 0 0-.611-1.278 3.24 3.24 0 0 0-1.235-.923q-.754-.355-1.804-.355-1.407 0-2.372.596-.966.583-.966 1.563 0 .78.625 1.32.624.54 2.145.867l3.948.796q3.183.653 4.745 2.102t1.562 3.807q0 2.145-1.264 3.764-1.25 1.62-3.438 2.528-2.173.895-5.014.895-4.332 0-6.903-1.804-2.558-1.818-2.997-4.943l5.951-.312q.27 1.32 1.307 2.017 1.038.681 2.656.681 1.591 0 2.557-.61.98-.625.995-1.606-.015-.824-.696-1.349-.682-.54-2.103-.824l-3.778-.753q-3.196-.64-4.759-2.216-1.548-1.575-1.548-4.02 0-2.101 1.136-3.622 1.151-1.52 3.225-2.343 2.088-.825 4.886-.824 4.134 0 6.506 1.747 2.386 1.747 2.784 4.758m15.913-6.221v4.545h-13.14v-4.545zm-10.157-5.227h6.052v20.34q0 .84.255 1.307.256.454.71.64.47.184 1.08.184.426 0 .852-.07.426-.086.654-.129l.951 4.503q-.455.143-1.278.327-.824.198-2.003.241-2.187.086-3.835-.582-1.634-.667-2.543-2.074t-.895-3.551zm31.978 11.448-5.539.341a2.9 2.9 0 0 0-.611-1.278 3.25 3.25 0 0 0-1.236-.923q-.753-.355-1.804-.355-1.406 0-2.372.596-.966.583-.966 1.563 0 .78.625 1.32t2.145.867l3.949.796q3.181.653 4.744 2.102t1.563 3.807q0 2.145-1.265 3.764-1.25 1.62-3.437 2.528-2.173.895-5.014.895-4.333 0-6.904-1.804-2.556-1.818-2.997-4.943l5.952-.312q.27 1.32 1.307 2.017 1.036.681 2.656.681 1.59 0 2.557-.61.98-.625.994-1.606-.014-.824-.696-1.349-.682-.54-2.102-.824l-3.779-.753q-3.196-.64-4.758-2.216-1.548-1.575-1.549-4.02 0-2.101 1.137-3.622 1.15-1.52 3.224-2.343 2.088-.825 4.887-.824 4.133 0 6.505 1.747 2.387 1.747 2.784 4.758"/><mask id="a" fill="#fff"><path d="M864.821 700.826c-41.182 219.067-251.392 363.414-469.517 322.404C177.179 982.229 33.738 771.399 74.921 552.333c41.182-219.067 251.392-363.414 469.517-322.409C762.563 270.93 906.003 481.76 864.821 700.826m-664.982-125.01c-28.157 149.778 69.915 293.925 219.049 321.961s292.858-70.656 321.014-220.434-69.914-293.925-219.049-321.961c-149.134-28.035-292.857 70.656-321.014 220.434"/></mask><path stroke="#fff" stroke-width="4" d="M864.821 700.826c-41.182 219.067-251.392 363.414-469.517 322.404C177.179 982.229 33.738 771.399 74.921 552.333c41.182-219.067 251.392-363.414 469.517-322.409C762.563 270.93 906.003 481.76 864.821 700.826Zm-664.982-125.01c-28.157 149.778 69.915 293.925 219.049 321.961s292.858-70.656 321.014-220.434-69.914-293.925-219.049-321.961c-149.134-28.035-292.857 70.656-321.014 220.434Z" mask="url(#a)"/><path stroke="#fff" stroke-width="2" d="m865.19 700.281-123.83-23.279M725.501 937.233l-79.896-97.43M466.367 1028.971l1.422-125.992M208.887 932.688l82.075-95.6M73.539 693.42l124.325-20.477M123.654 423.131l108.401 64.228M335.784 248.292l41.755 118.88M610.67 250.71l-44.43 117.907M819.689 429.255 709.865 491.02"/></svg>