<svg width="940" height="1098" viewBox="0 0 940 1098" fill="none" xmlns="http://www.w3.org/2000/svg">
<path d="M864 700.5L741.5 677.5C741.5 677.5 750.333 630.5 742 580.5C733.667 530.5 710.5 491.5 710.5 491.5L819.5 430C819.5 430 853.244 486.5 865.5 561C877.756 635.5 864 700.5 864 700.5Z" fill="#002647"/>
<path d="M433.241 148V121.091H449.376V123.982H436.499V133.074H448.167V135.964H436.499V148H433.241ZM454.536 148V127.818H457.637V148H454.536ZM456.113 124.455C455.509 124.455 454.987 124.249 454.549 123.837C454.12 123.425 453.906 122.93 453.906 122.352C453.906 121.774 454.12 121.279 454.549 120.868C454.987 120.456 455.509 120.25 456.113 120.25C456.717 120.25 457.234 120.456 457.663 120.868C458.101 121.279 458.32 121.774 458.32 122.352C458.32 122.93 458.101 123.425 457.663 123.837C457.234 124.249 456.717 124.455 456.113 124.455ZM463.317 148V127.818H466.312V130.866H466.523C466.89 129.868 467.556 129.058 468.52 128.436C469.483 127.814 470.569 127.503 471.778 127.503C472.006 127.503 472.291 127.507 472.632 127.516C472.974 127.525 473.232 127.538 473.407 127.555V130.709C473.302 130.683 473.061 130.643 472.685 130.591C472.317 130.529 471.927 130.499 471.515 130.499C470.534 130.499 469.658 130.704 468.888 131.116C468.126 131.519 467.521 132.08 467.074 132.798C466.636 133.507 466.417 134.318 466.417 135.229V148H463.317ZM491.379 132.338L488.593 133.126C488.418 132.662 488.16 132.211 487.818 131.773C487.485 131.326 487.03 130.958 486.451 130.669C485.873 130.38 485.133 130.236 484.231 130.236C482.996 130.236 481.967 130.52 481.143 131.09C480.329 131.65 479.921 132.364 479.921 133.232C479.921 134.002 480.202 134.611 480.762 135.058C481.323 135.505 482.199 135.877 483.39 136.175L486.386 136.911C488.19 137.348 489.535 138.019 490.419 138.921C491.304 139.814 491.747 140.966 491.747 142.376C491.747 143.533 491.414 144.566 490.748 145.477C490.091 146.388 489.171 147.107 487.989 147.632C486.806 148.158 485.431 148.42 483.863 148.42C481.805 148.42 480.101 147.974 478.752 147.08C477.403 146.187 476.549 144.882 476.19 143.165L479.133 142.429C479.413 143.515 479.943 144.33 480.723 144.873C481.511 145.416 482.54 145.688 483.81 145.688C485.256 145.688 486.403 145.381 487.253 144.768C488.111 144.146 488.541 143.401 488.541 142.534C488.541 141.833 488.295 141.246 487.805 140.773C487.314 140.292 486.561 139.933 485.545 139.696L482.181 138.908C480.333 138.47 478.975 137.791 478.108 136.871C477.25 135.943 476.82 134.782 476.82 133.389C476.82 132.25 477.14 131.243 477.78 130.367C478.428 129.491 479.308 128.804 480.421 128.304C481.542 127.805 482.812 127.555 484.231 127.555C486.228 127.555 487.796 127.993 488.935 128.869C490.082 129.745 490.897 130.902 491.379 132.338ZM505.191 127.818V130.446H494.732V127.818H505.191ZM497.781 122.983H500.882V142.219C500.882 143.095 501.009 143.752 501.263 144.19C501.525 144.619 501.858 144.908 502.261 145.057C502.673 145.197 503.106 145.267 503.562 145.267C503.904 145.267 504.184 145.25 504.403 145.214C504.622 145.171 504.797 145.136 504.928 145.109L505.559 147.895C505.349 147.974 505.055 148.053 504.679 148.131C504.302 148.219 503.825 148.263 503.247 148.263C502.371 148.263 501.512 148.074 500.671 147.698C499.839 147.321 499.147 146.747 498.595 145.977C498.052 145.206 497.781 144.233 497.781 143.06V122.983ZM400.089 193V166.091H409.181C411.284 166.091 413.009 166.45 414.358 167.168C415.707 167.878 416.706 168.855 417.354 170.098C418.002 171.342 418.326 172.757 418.326 174.342C418.326 175.928 418.002 177.334 417.354 178.56C416.706 179.786 415.712 180.75 414.371 181.451C413.031 182.143 411.319 182.489 409.234 182.489H401.876V179.545H409.129C410.565 179.545 411.722 179.335 412.598 178.915C413.482 178.494 414.122 177.899 414.516 177.128C414.919 176.348 415.12 175.42 415.12 174.342C415.12 173.265 414.919 172.323 414.516 171.517C414.113 170.712 413.469 170.09 412.584 169.652C411.7 169.205 410.53 168.982 409.076 168.982H403.348V193H400.089ZM412.755 180.912L419.377 193H415.593L409.076 180.912H412.755ZM431.58 193.42C429.636 193.42 427.958 192.991 426.548 192.133C425.147 191.266 424.065 190.057 423.303 188.506C422.549 186.947 422.173 185.134 422.173 183.067C422.173 181 422.549 179.178 423.303 177.601C424.065 176.015 425.125 174.78 426.482 173.896C427.849 173.002 429.443 172.555 431.265 172.555C432.316 172.555 433.354 172.731 434.379 173.081C435.404 173.431 436.337 174.001 437.178 174.789C438.019 175.569 438.689 176.602 439.188 177.89C439.687 179.178 439.937 180.763 439.937 182.646V183.96H424.38V181.28H436.784C436.784 180.141 436.556 179.125 436.1 178.232C435.654 177.338 435.014 176.633 434.182 176.116C433.359 175.599 432.386 175.341 431.265 175.341C430.03 175.341 428.961 175.647 428.059 176.261C427.166 176.865 426.478 177.653 425.996 178.626C425.515 179.598 425.274 180.64 425.274 181.753V183.54C425.274 185.064 425.536 186.356 426.062 187.416C426.596 188.467 427.337 189.268 428.283 189.82C429.229 190.363 430.328 190.635 431.58 190.635C432.395 190.635 433.131 190.521 433.788 190.293C434.454 190.057 435.027 189.706 435.509 189.242C435.991 188.769 436.363 188.182 436.626 187.482L439.622 188.322C439.306 189.339 438.776 190.232 438.032 191.003C437.287 191.765 436.368 192.361 435.273 192.79C434.178 193.21 432.947 193.42 431.58 193.42ZM458.424 200.568V189.899H458.161C457.933 190.267 457.609 190.731 457.189 191.292C456.768 191.844 456.168 192.339 455.389 192.777C454.609 193.206 453.571 193.42 452.275 193.42C450.593 193.42 449.108 192.996 447.821 192.146C446.533 191.288 445.526 190.079 444.799 188.52C444.071 186.952 443.708 185.099 443.708 182.962C443.708 180.842 444.071 179.002 444.799 177.443C445.526 175.884 446.537 174.68 447.834 173.83C449.13 172.98 450.628 172.555 452.327 172.555C453.641 172.555 454.679 172.774 455.441 173.212C456.212 173.642 456.799 174.132 457.202 174.684C457.614 175.227 457.933 175.674 458.161 176.024H458.529V172.818H461.525V200.568H458.424ZM452.695 190.635C453.939 190.635 454.99 190.311 455.849 189.663C456.707 189.006 457.36 188.099 457.806 186.943C458.253 185.778 458.476 184.433 458.476 182.909C458.476 181.402 458.257 180.084 457.819 178.954C457.381 177.815 456.733 176.931 455.875 176.3C455.016 175.661 453.957 175.341 452.695 175.341C451.381 175.341 450.286 175.678 449.41 176.353C448.543 177.018 447.891 177.925 447.453 179.072C447.023 180.211 446.809 181.49 446.809 182.909C446.809 184.346 447.028 185.651 447.466 186.825C447.913 187.99 448.569 188.918 449.437 189.61C450.313 190.293 451.399 190.635 452.695 190.635ZM479.92 184.749V172.818H483.02V193H479.92V189.584H479.709C479.236 190.609 478.501 191.48 477.502 192.199C476.503 192.908 475.242 193.263 473.718 193.263C472.457 193.263 471.335 192.987 470.354 192.435C469.373 191.874 468.602 191.033 468.042 189.912C467.481 188.782 467.201 187.359 467.201 185.642V172.818H470.302V185.432C470.302 186.903 470.713 188.077 471.537 188.953C472.369 189.829 473.429 190.267 474.716 190.267C475.487 190.267 476.271 190.07 477.068 189.676C477.874 189.282 478.549 188.677 479.092 187.863C479.644 187.048 479.92 186.01 479.92 184.749ZM497.162 193.42C495.217 193.42 493.539 192.991 492.129 192.133C490.728 191.266 489.646 190.057 488.884 188.506C488.131 186.947 487.754 185.134 487.754 183.067C487.754 181 488.131 179.178 488.884 177.601C489.646 176.015 490.706 174.78 492.064 173.896C493.43 173.002 495.024 172.555 496.846 172.555C497.897 172.555 498.935 172.731 499.96 173.081C500.985 173.431 501.918 174.001 502.759 174.789C503.6 175.569 504.27 176.602 504.769 177.89C505.268 179.178 505.518 180.763 505.518 182.646V183.96H489.961V181.28H502.365C502.365 180.141 502.137 179.125 501.681 178.232C501.235 177.338 500.595 176.633 499.763 176.116C498.94 175.599 497.967 175.341 496.846 175.341C495.611 175.341 494.542 175.647 493.64 176.261C492.747 176.865 492.059 177.653 491.577 178.626C491.096 179.598 490.855 180.64 490.855 181.753V183.54C490.855 185.064 491.117 186.356 491.643 187.416C492.177 188.467 492.918 189.268 493.864 189.82C494.81 190.363 495.909 190.635 497.162 190.635C497.976 190.635 498.712 190.521 499.369 190.293C500.035 190.057 500.608 189.706 501.09 189.242C501.572 188.769 501.944 188.182 502.207 187.482L505.203 188.322C504.887 189.339 504.357 190.232 503.613 191.003C502.868 191.765 501.949 192.361 500.854 192.79C499.759 193.21 498.528 193.42 497.162 193.42ZM524.53 177.338L521.745 178.126C521.57 177.662 521.311 177.211 520.97 176.773C520.637 176.326 520.181 175.958 519.603 175.669C519.025 175.38 518.285 175.236 517.383 175.236C516.148 175.236 515.118 175.52 514.295 176.09C513.48 176.65 513.073 177.364 513.073 178.232C513.073 179.002 513.353 179.611 513.914 180.058C514.475 180.505 515.351 180.877 516.542 181.175L519.538 181.911C521.342 182.348 522.687 183.019 523.571 183.921C524.456 184.814 524.898 185.966 524.898 187.376C524.898 188.533 524.566 189.566 523.9 190.477C523.243 191.388 522.323 192.107 521.141 192.632C519.958 193.158 518.583 193.42 517.015 193.42C514.956 193.42 513.253 192.974 511.904 192.08C510.555 191.187 509.701 189.882 509.342 188.165L512.285 187.429C512.565 188.515 513.095 189.33 513.875 189.873C514.663 190.416 515.692 190.688 516.962 190.688C518.408 190.688 519.555 190.381 520.405 189.768C521.263 189.146 521.692 188.401 521.692 187.534C521.692 186.833 521.447 186.246 520.957 185.773C520.466 185.292 519.713 184.933 518.697 184.696L515.333 183.908C513.485 183.47 512.127 182.791 511.26 181.871C510.401 180.943 509.972 179.782 509.972 178.389C509.972 177.25 510.292 176.243 510.931 175.367C511.58 174.491 512.46 173.804 513.572 173.304C514.694 172.805 515.964 172.555 517.383 172.555C519.38 172.555 520.948 172.993 522.087 173.869C523.234 174.745 524.049 175.902 524.53 177.338ZM538.343 172.818V175.446H527.884V172.818H538.343ZM530.933 167.983H534.033V187.219C534.033 188.095 534.16 188.752 534.414 189.19C534.677 189.619 535.01 189.908 535.413 190.057C535.825 190.197 536.258 190.267 536.714 190.267C537.055 190.267 537.336 190.25 537.555 190.214C537.774 190.171 537.949 190.136 538.08 190.109L538.711 192.895C538.501 192.974 538.207 193.053 537.831 193.131C537.454 193.219 536.977 193.263 536.398 193.263C535.523 193.263 534.664 193.074 533.823 192.698C532.991 192.321 532.299 191.747 531.747 190.977C531.204 190.206 530.933 189.233 530.933 188.06V167.983Z" fill="#717171"/>
<path d="M601.382 579V552.091H604.641V564.074H618.989V552.091H622.247V579H618.989V566.964H604.641V579H601.382ZM636.812 579.42C634.867 579.42 633.19 578.991 631.78 578.133C630.378 577.266 629.296 576.057 628.534 574.506C627.781 572.947 627.404 571.134 627.404 569.067C627.404 567 627.781 565.178 628.534 563.601C629.296 562.015 630.356 560.78 631.714 559.896C633.08 559.002 634.675 558.555 636.497 558.555C637.548 558.555 638.586 558.731 639.611 559.081C640.635 559.431 641.568 560.001 642.409 560.789C643.25 561.569 643.92 562.602 644.42 563.89C644.919 565.178 645.168 566.763 645.168 568.646V569.96H629.612V567.28H642.015C642.015 566.141 641.787 565.125 641.332 564.232C640.885 563.338 640.246 562.633 639.413 562.116C638.59 561.599 637.618 561.341 636.497 561.341C635.261 561.341 634.193 561.647 633.291 562.261C632.397 562.865 631.71 563.653 631.228 564.626C630.746 565.598 630.505 566.64 630.505 567.753V569.54C630.505 571.064 630.768 572.356 631.293 573.416C631.828 574.467 632.568 575.268 633.514 575.82C634.46 576.363 635.559 576.635 636.812 576.635C637.627 576.635 638.362 576.521 639.019 576.293C639.685 576.057 640.259 575.706 640.741 575.242C641.222 574.769 641.595 574.182 641.857 573.482L644.853 574.322C644.538 575.339 644.008 576.232 643.263 577.003C642.519 577.765 641.599 578.361 640.504 578.79C639.409 579.21 638.178 579.42 636.812 579.42ZM655.824 579.473C654.545 579.473 653.385 579.232 652.342 578.75C651.3 578.26 650.472 577.555 649.859 576.635C649.246 575.706 648.939 574.585 648.939 573.271C648.939 572.115 649.167 571.178 649.623 570.46C650.078 569.732 650.687 569.163 651.449 568.751C652.211 568.34 653.052 568.033 653.972 567.832C654.9 567.621 655.833 567.455 656.77 567.332C657.997 567.175 658.991 567.056 659.753 566.978C660.524 566.89 661.084 566.746 661.435 566.544C661.794 566.343 661.973 565.992 661.973 565.493V565.388C661.973 564.091 661.619 563.084 660.909 562.366C660.208 561.647 659.144 561.288 657.716 561.288C656.236 561.288 655.075 561.612 654.235 562.261C653.394 562.909 652.802 563.601 652.461 564.337L649.518 563.286C650.043 562.059 650.744 561.104 651.62 560.421C652.505 559.729 653.468 559.247 654.51 558.976C655.562 558.696 656.595 558.555 657.611 558.555C658.259 558.555 659.004 558.634 659.845 558.792C660.695 558.941 661.514 559.252 662.302 559.725C663.099 560.198 663.76 560.912 664.286 561.866C664.812 562.821 665.074 564.1 665.074 565.703V579H661.973V576.267H661.816C661.606 576.705 661.255 577.174 660.765 577.673C660.274 578.172 659.622 578.597 658.807 578.947C657.992 579.298 656.998 579.473 655.824 579.473ZM656.297 576.688C657.524 576.688 658.557 576.447 659.398 575.965C660.248 575.483 660.887 574.861 661.317 574.099C661.755 573.337 661.973 572.536 661.973 571.695V568.857C661.842 569.014 661.553 569.159 661.106 569.29C660.668 569.413 660.16 569.522 659.582 569.619C659.013 569.706 658.457 569.785 657.913 569.855C657.379 569.916 656.946 569.969 656.613 570.013C655.807 570.118 655.054 570.289 654.353 570.525C653.661 570.753 653.1 571.099 652.671 571.563C652.25 572.019 652.04 572.641 652.04 573.429C652.04 574.506 652.439 575.321 653.236 575.873C654.042 576.416 655.062 576.688 656.297 576.688ZM678.355 579.42C676.673 579.42 675.188 578.996 673.901 578.146C672.613 577.288 671.606 576.079 670.879 574.52C670.152 572.952 669.788 571.099 669.788 568.962C669.788 566.842 670.152 565.002 670.879 563.443C671.606 561.884 672.617 560.68 673.914 559.83C675.21 558.98 676.708 558.555 678.407 558.555C679.721 558.555 680.759 558.774 681.521 559.212C682.292 559.642 682.879 560.132 683.282 560.684C683.694 561.227 684.013 561.674 684.241 562.024H684.504V552.091H687.605V579H684.609V575.899H684.241C684.013 576.267 683.689 576.731 683.269 577.292C682.848 577.844 682.248 578.339 681.469 578.777C680.689 579.206 679.651 579.42 678.355 579.42ZM678.775 576.635C680.019 576.635 681.07 576.311 681.929 575.663C682.787 575.006 683.44 574.099 683.886 572.943C684.333 571.778 684.557 570.433 684.557 568.909C684.557 567.402 684.338 566.084 683.9 564.954C683.462 563.815 682.813 562.931 681.955 562.3C681.097 561.661 680.037 561.341 678.775 561.341C677.461 561.341 676.366 561.678 675.49 562.353C674.623 563.018 673.971 563.925 673.533 565.072C673.104 566.211 672.889 567.49 672.889 568.909C672.889 570.346 673.108 571.651 673.546 572.825C673.993 573.99 674.65 574.918 675.517 575.61C676.393 576.293 677.479 576.635 678.775 576.635ZM578.058 624V597.091H587.151C589.262 597.091 590.987 597.472 592.328 598.234C593.676 598.987 594.675 600.008 595.323 601.295C595.971 602.583 596.296 604.02 596.296 605.605C596.296 607.191 595.971 608.632 595.323 609.928C594.684 611.224 593.694 612.258 592.354 613.029C591.014 613.791 589.297 614.172 587.203 614.172H580.686V611.281H587.098C588.543 611.281 589.704 611.032 590.58 610.532C591.456 610.033 592.091 609.359 592.485 608.509C592.888 607.65 593.09 606.683 593.09 605.605C593.09 604.528 592.888 603.564 592.485 602.714C592.091 601.865 591.452 601.199 590.567 600.717C589.682 600.227 588.508 599.982 587.046 599.982H581.317V624H578.058ZM609.106 624.42C607.284 624.42 605.686 623.987 604.31 623.12C602.944 622.252 601.875 621.039 601.104 619.48C600.342 617.921 599.961 616.099 599.961 614.014C599.961 611.912 600.342 610.077 601.104 608.509C601.875 606.941 602.944 605.723 604.31 604.856C605.686 603.989 607.284 603.555 609.106 603.555C610.928 603.555 612.522 603.989 613.889 604.856C615.264 605.723 616.333 606.941 617.095 608.509C617.866 610.077 618.251 611.912 618.251 614.014C618.251 616.099 617.866 617.921 617.095 619.48C616.333 621.039 615.264 622.252 613.889 623.12C612.522 623.987 610.928 624.42 609.106 624.42ZM609.106 621.635C610.49 621.635 611.629 621.28 612.522 620.571C613.416 619.861 614.077 618.928 614.506 617.772C614.936 616.616 615.15 615.363 615.15 614.014C615.15 612.665 614.936 611.408 614.506 610.243C614.077 609.078 613.416 608.137 612.522 607.418C611.629 606.7 610.49 606.341 609.106 606.341C607.722 606.341 606.584 606.7 605.69 607.418C604.797 608.137 604.135 609.078 603.706 610.243C603.277 611.408 603.062 612.665 603.062 614.014C603.062 615.363 603.277 616.616 603.706 617.772C604.135 618.928 604.797 619.861 605.69 620.571C606.584 621.28 607.722 621.635 609.106 621.635ZM637.28 608.338L634.494 609.126C634.319 608.662 634.061 608.211 633.719 607.773C633.386 607.326 632.931 606.958 632.353 606.669C631.775 606.38 631.035 606.236 630.132 606.236C628.897 606.236 627.868 606.52 627.045 607.09C626.23 607.65 625.823 608.364 625.823 609.232C625.823 610.002 626.103 610.611 626.664 611.058C627.224 611.505 628.1 611.877 629.291 612.175L632.287 612.911C634.092 613.348 635.436 614.019 636.321 614.921C637.206 615.814 637.648 616.966 637.648 618.376C637.648 619.533 637.315 620.566 636.649 621.477C635.992 622.388 635.073 623.107 633.89 623.632C632.708 624.158 631.332 624.42 629.764 624.42C627.706 624.42 626.002 623.974 624.653 623.08C623.304 622.187 622.45 620.882 622.091 619.165L625.034 618.429C625.315 619.515 625.845 620.33 626.624 620.873C627.412 621.416 628.442 621.688 629.712 621.688C631.157 621.688 632.305 621.381 633.154 620.768C634.013 620.146 634.442 619.401 634.442 618.534C634.442 617.833 634.197 617.246 633.706 616.773C633.216 616.292 632.462 615.933 631.446 615.696L628.083 614.908C626.234 614.47 624.877 613.791 624.009 612.871C623.151 611.943 622.722 610.782 622.722 609.389C622.722 608.25 623.041 607.243 623.681 606.367C624.329 605.491 625.209 604.804 626.322 604.304C627.443 603.805 628.713 603.555 630.132 603.555C632.129 603.555 633.697 603.993 634.836 604.869C635.984 605.745 636.798 606.902 637.28 608.338ZM642.316 624V603.818H645.416V624H642.316ZM643.892 600.455C643.288 600.455 642.767 600.249 642.329 599.837C641.9 599.425 641.685 598.93 641.685 598.352C641.685 597.774 641.9 597.279 642.329 596.868C642.767 596.456 643.288 596.25 643.892 596.25C644.497 596.25 645.014 596.456 645.443 596.868C645.881 597.279 646.1 597.774 646.1 598.352C646.1 598.93 645.881 599.425 645.443 599.837C645.014 600.249 644.497 600.455 643.892 600.455ZM659.873 603.818V606.446H649.414V603.818H659.873ZM652.462 598.983H655.563V618.219C655.563 619.095 655.69 619.752 655.944 620.19C656.207 620.619 656.54 620.908 656.943 621.057C657.355 621.197 657.788 621.267 658.244 621.267C658.585 621.267 658.866 621.25 659.085 621.214C659.304 621.171 659.479 621.136 659.61 621.109L660.241 623.895C660.031 623.974 659.737 624.053 659.36 624.131C658.984 624.219 658.506 624.263 657.928 624.263C657.052 624.263 656.194 624.074 655.353 623.698C654.521 623.321 653.829 622.747 653.277 621.977C652.734 621.206 652.462 620.233 652.462 619.06V598.983ZM664.537 624V603.818H667.638V624H664.537ZM666.114 600.455C665.51 600.455 664.988 600.249 664.55 599.837C664.121 599.425 663.907 598.93 663.907 598.352C663.907 597.774 664.121 597.279 664.55 596.868C664.988 596.456 665.51 596.25 666.114 596.25C666.718 596.25 667.235 596.456 667.664 596.868C668.102 597.279 668.321 597.774 668.321 598.352C668.321 598.93 668.102 599.425 667.664 599.837C667.235 600.249 666.718 600.455 666.114 600.455ZM681.516 624.42C679.694 624.42 678.096 623.987 676.721 623.12C675.354 622.252 674.285 621.039 673.515 619.48C672.753 617.921 672.372 616.099 672.372 614.014C672.372 611.912 672.753 610.077 673.515 608.509C674.285 606.941 675.354 605.723 676.721 604.856C678.096 603.989 679.694 603.555 681.516 603.555C683.338 603.555 684.933 603.989 686.299 604.856C687.674 605.723 688.743 606.941 689.505 608.509C690.276 610.077 690.661 611.912 690.661 614.014C690.661 616.099 690.276 617.921 689.505 619.48C688.743 621.039 687.674 622.252 686.299 623.12C684.933 623.987 683.338 624.42 681.516 624.42ZM681.516 621.635C682.9 621.635 684.039 621.28 684.933 620.571C685.826 619.861 686.487 618.928 686.917 617.772C687.346 616.616 687.56 615.363 687.56 614.014C687.56 612.665 687.346 611.408 686.917 610.243C686.487 609.078 685.826 608.137 684.933 607.418C684.039 606.7 682.9 606.341 681.516 606.341C680.132 606.341 678.994 606.7 678.1 607.418C677.207 608.137 676.545 609.078 676.116 610.243C675.687 611.408 675.472 612.665 675.472 614.014C675.472 615.363 675.687 616.616 676.116 617.772C676.545 618.928 677.207 619.861 678.1 620.571C678.994 621.28 680.132 621.635 681.516 621.635ZM698.496 611.859V624H695.395V603.818H698.39V606.972H698.653C699.126 605.947 699.845 605.123 700.808 604.501C701.772 603.871 703.015 603.555 704.54 603.555C705.906 603.555 707.102 603.836 708.127 604.396C709.151 604.948 709.949 605.789 710.518 606.919C711.087 608.04 711.372 609.459 711.372 611.176V624H708.271V611.386C708.271 609.801 707.859 608.566 707.036 607.681C706.213 606.788 705.083 606.341 703.646 606.341C702.656 606.341 701.772 606.556 700.992 606.985C700.221 607.414 699.612 608.04 699.166 608.864C698.719 609.687 698.496 610.686 698.496 611.859Z" fill="#717171"/>
<path d="M101.542 251V224.091H104.8V248.109H117.309V251H101.542ZM127.873 251.473C126.594 251.473 125.433 251.232 124.391 250.75C123.348 250.26 122.521 249.555 121.907 248.635C121.294 247.706 120.988 246.585 120.988 245.271C120.988 244.115 121.215 243.178 121.671 242.46C122.126 241.732 122.735 241.163 123.497 240.751C124.259 240.34 125.1 240.033 126.02 239.832C126.949 239.621 127.881 239.455 128.819 239.332C130.045 239.175 131.039 239.056 131.801 238.978C132.572 238.89 133.133 238.746 133.483 238.544C133.842 238.343 134.022 237.992 134.022 237.493V237.388C134.022 236.091 133.667 235.084 132.958 234.366C132.257 233.647 131.193 233.288 129.765 233.288C128.284 233.288 127.124 233.612 126.283 234.261C125.442 234.909 124.851 235.601 124.509 236.337L121.566 235.286C122.091 234.059 122.792 233.104 123.668 232.421C124.553 231.729 125.516 231.247 126.559 230.976C127.61 230.696 128.644 230.555 129.66 230.555C130.308 230.555 131.052 230.634 131.893 230.792C132.743 230.941 133.562 231.252 134.35 231.725C135.147 232.198 135.809 232.912 136.334 233.866C136.86 234.821 137.123 236.1 137.123 237.703V251H134.022V248.267H133.864C133.654 248.705 133.304 249.174 132.813 249.673C132.323 250.172 131.67 250.597 130.855 250.947C130.041 251.298 129.046 251.473 127.873 251.473ZM128.346 248.688C129.572 248.688 130.606 248.447 131.447 247.965C132.296 247.483 132.936 246.861 133.365 246.099C133.803 245.337 134.022 244.536 134.022 243.695V240.857C133.89 241.014 133.601 241.159 133.155 241.29C132.717 241.413 132.209 241.522 131.631 241.619C131.061 241.706 130.505 241.785 129.962 241.855C129.427 241.916 128.994 241.969 128.661 242.013C127.855 242.118 127.102 242.289 126.401 242.525C125.709 242.753 125.148 243.099 124.719 243.563C124.299 244.019 124.089 244.641 124.089 245.429C124.089 246.506 124.487 247.321 125.284 247.873C126.09 248.416 127.111 248.688 128.346 248.688ZM157.078 235.338L154.292 236.126C154.117 235.662 153.859 235.211 153.517 234.773C153.184 234.326 152.729 233.958 152.151 233.669C151.573 233.38 150.832 233.236 149.93 233.236C148.695 233.236 147.666 233.52 146.842 234.09C146.028 234.65 145.62 235.364 145.62 236.232C145.62 237.002 145.901 237.611 146.461 238.058C147.022 238.505 147.898 238.877 149.089 239.175L152.085 239.911C153.889 240.348 155.234 241.019 156.119 241.921C157.003 242.814 157.446 243.966 157.446 245.376C157.446 246.533 157.113 247.566 156.447 248.477C155.79 249.388 154.87 250.107 153.688 250.632C152.505 251.158 151.13 251.42 149.562 251.42C147.504 251.42 145.8 250.974 144.451 250.08C143.102 249.187 142.248 247.882 141.889 246.165L144.832 245.429C145.112 246.515 145.642 247.33 146.422 247.873C147.21 248.416 148.24 248.688 149.51 248.688C150.955 248.688 152.102 248.381 152.952 247.768C153.811 247.146 154.24 246.401 154.24 245.534C154.24 244.833 153.995 244.246 153.504 243.773C153.013 243.292 152.26 242.933 151.244 242.696L147.88 241.908C146.032 241.47 144.674 240.791 143.807 239.871C142.949 238.943 142.52 237.782 142.52 236.389C142.52 235.25 142.839 234.243 143.479 233.367C144.127 232.491 145.007 231.804 146.12 231.304C147.241 230.805 148.511 230.555 149.93 230.555C151.927 230.555 153.495 230.993 154.634 231.869C155.781 232.745 156.596 233.902 157.078 235.338ZM170.89 230.818V233.446H160.432V230.818H170.89ZM163.48 225.983H166.581V245.219C166.581 246.095 166.708 246.752 166.962 247.19C167.225 247.619 167.557 247.908 167.96 248.057C168.372 248.197 168.806 248.267 169.261 248.267C169.603 248.267 169.883 248.25 170.102 248.214C170.321 248.171 170.496 248.136 170.628 248.109L171.258 250.895C171.048 250.974 170.755 251.053 170.378 251.131C170.001 251.219 169.524 251.263 168.946 251.263C168.07 251.263 167.211 251.074 166.371 250.698C165.538 250.321 164.846 249.747 164.295 248.977C163.751 248.206 163.48 247.233 163.48 246.06V225.983ZM67.0891 296V269.091H76.1814C78.2837 269.091 80.0093 269.45 81.3583 270.168C82.7072 270.878 83.7058 271.855 84.354 273.098C85.0022 274.342 85.3263 275.757 85.3263 277.342C85.3263 278.928 85.0022 280.334 84.354 281.56C83.7058 282.786 82.7116 283.75 81.3714 284.451C80.0312 285.143 78.3187 285.489 76.234 285.489H68.876V282.545H76.1289C77.5654 282.545 78.7217 282.335 79.5976 281.915C80.4823 281.494 81.1218 280.899 81.5159 280.128C81.9189 279.348 82.1203 278.42 82.1203 277.342C82.1203 276.265 81.9189 275.323 81.5159 274.517C81.113 273.712 80.4692 273.09 79.5845 272.652C78.6998 272.205 77.5304 271.982 76.0763 271.982H70.3476V296H67.0891ZM79.7553 283.912L86.3774 296H82.5934L76.0763 283.912H79.7553ZM98.5805 296.42C96.6359 296.42 94.9584 295.991 93.5482 295.133C92.1466 294.266 91.0649 293.057 90.3028 291.506C89.5495 289.947 89.1728 288.134 89.1728 286.067C89.1728 284 89.5495 282.178 90.3028 280.601C91.0649 279.015 92.1247 277.78 93.4825 276.896C94.8489 276.002 96.4432 275.555 98.2651 275.555C99.3163 275.555 100.354 275.731 101.379 276.081C102.404 276.431 103.337 277.001 104.178 277.789C105.019 278.569 105.689 279.602 106.188 280.89C106.687 282.178 106.937 283.763 106.937 285.646V286.96H91.3802V284.28H103.784C103.784 283.141 103.556 282.125 103.1 281.232C102.654 280.338 102.014 279.633 101.182 279.116C100.359 278.599 99.3863 278.341 98.2651 278.341C97.0301 278.341 95.9614 278.647 95.0592 279.261C94.1657 279.865 93.4781 280.653 92.9963 281.626C92.5145 282.598 92.2737 283.64 92.2737 284.753V286.54C92.2737 288.064 92.5364 289.356 93.062 290.416C93.5963 291.467 94.3365 292.268 95.2825 292.82C96.2286 293.363 97.3279 293.635 98.5805 293.635C99.3951 293.635 100.131 293.521 100.788 293.293C101.454 293.057 102.027 292.706 102.509 292.242C102.991 291.769 103.363 291.182 103.626 290.482L106.622 291.322C106.306 292.339 105.776 293.232 105.032 294.003C104.287 294.765 103.368 295.361 102.273 295.79C101.178 296.21 99.947 296.42 98.5805 296.42ZM125.424 303.568V292.899H125.161C124.933 293.267 124.609 293.731 124.189 294.292C123.768 294.844 123.168 295.339 122.389 295.777C121.609 296.206 120.571 296.42 119.275 296.42C117.593 296.42 116.108 295.996 114.821 295.146C113.533 294.288 112.526 293.079 111.799 291.52C111.071 289.952 110.708 288.099 110.708 285.962C110.708 283.842 111.071 282.002 111.799 280.443C112.526 278.884 113.537 277.68 114.834 276.83C116.13 275.98 117.628 275.555 119.327 275.555C120.641 275.555 121.679 275.774 122.441 276.212C123.212 276.642 123.799 277.132 124.202 277.684C124.614 278.227 124.933 278.674 125.161 279.024H125.529V275.818H128.525V303.568H125.424ZM119.695 293.635C120.939 293.635 121.99 293.311 122.849 292.663C123.707 292.006 124.36 291.099 124.806 289.943C125.253 288.778 125.476 287.433 125.476 285.909C125.476 284.402 125.257 283.084 124.819 281.954C124.381 280.815 123.733 279.931 122.875 279.3C122.016 278.661 120.957 278.341 119.695 278.341C118.381 278.341 117.286 278.678 116.41 279.353C115.543 280.018 114.891 280.925 114.453 282.072C114.023 283.211 113.809 284.49 113.809 285.909C113.809 287.346 114.028 288.651 114.466 289.825C114.913 290.99 115.569 291.918 116.437 292.61C117.313 293.293 118.399 293.635 119.695 293.635ZM146.92 287.749V275.818H150.02V296H146.92V292.584H146.709C146.236 293.609 145.501 294.48 144.502 295.199C143.503 295.908 142.242 296.263 140.718 296.263C139.457 296.263 138.335 295.987 137.354 295.435C136.373 294.874 135.602 294.033 135.042 292.912C134.481 291.782 134.201 290.359 134.201 288.642V275.818H137.302V288.432C137.302 289.903 137.713 291.077 138.537 291.953C139.369 292.829 140.429 293.267 141.716 293.267C142.487 293.267 143.271 293.07 144.068 292.676C144.874 292.282 145.549 291.677 146.092 290.863C146.644 290.048 146.92 289.01 146.92 287.749ZM164.162 296.42C162.217 296.42 160.539 295.991 159.129 295.133C157.728 294.266 156.646 293.057 155.884 291.506C155.131 289.947 154.754 288.134 154.754 286.067C154.754 284 155.131 282.178 155.884 280.601C156.646 279.015 157.706 277.78 159.064 276.896C160.43 276.002 162.024 275.555 163.846 275.555C164.897 275.555 165.935 275.731 166.96 276.081C167.985 276.431 168.918 277.001 169.759 277.789C170.6 278.569 171.27 279.602 171.769 280.89C172.268 282.178 172.518 283.763 172.518 285.646V286.96H156.961V284.28H169.365C169.365 283.141 169.137 282.125 168.681 281.232C168.235 280.338 167.595 279.633 166.763 279.116C165.94 278.599 164.967 278.341 163.846 278.341C162.611 278.341 161.542 278.647 160.64 279.261C159.747 279.865 159.059 280.653 158.577 281.626C158.096 282.598 157.855 283.64 157.855 284.753V286.54C157.855 288.064 158.117 289.356 158.643 290.416C159.177 291.467 159.918 292.268 160.864 292.82C161.81 293.363 162.909 293.635 164.162 293.635C164.976 293.635 165.712 293.521 166.369 293.293C167.035 293.057 167.608 292.706 168.09 292.242C168.572 291.769 168.944 291.182 169.207 290.482L172.203 291.322C171.887 292.339 171.357 293.232 170.613 294.003C169.868 294.765 168.949 295.361 167.854 295.79C166.759 296.21 165.528 296.42 164.162 296.42ZM191.53 280.338L188.745 281.126C188.57 280.662 188.311 280.211 187.97 279.773C187.637 279.326 187.181 278.958 186.603 278.669C186.025 278.38 185.285 278.236 184.383 278.236C183.148 278.236 182.118 278.52 181.295 279.09C180.48 279.65 180.073 280.364 180.073 281.232C180.073 282.002 180.353 282.611 180.914 283.058C181.475 283.505 182.351 283.877 183.542 284.175L186.538 284.911C188.342 285.348 189.687 286.019 190.571 286.921C191.456 287.814 191.898 288.966 191.898 290.376C191.898 291.533 191.566 292.566 190.9 293.477C190.243 294.388 189.323 295.107 188.141 295.632C186.958 296.158 185.583 296.42 184.015 296.42C181.956 296.42 180.253 295.974 178.904 295.08C177.555 294.187 176.701 292.882 176.342 291.165L179.285 290.429C179.565 291.515 180.095 292.33 180.875 292.873C181.663 293.416 182.692 293.688 183.962 293.688C185.408 293.688 186.555 293.381 187.405 292.768C188.263 292.146 188.692 291.401 188.692 290.534C188.692 289.833 188.447 289.246 187.957 288.773C187.466 288.292 186.713 287.933 185.697 287.696L182.333 286.908C180.485 286.47 179.127 285.791 178.26 284.871C177.401 283.943 176.972 282.782 176.972 281.389C176.972 280.25 177.292 279.243 177.931 278.367C178.58 277.491 179.46 276.804 180.572 276.304C181.694 275.805 182.964 275.555 184.383 275.555C186.38 275.555 187.948 275.993 189.087 276.869C190.234 277.745 191.049 278.902 191.53 280.338ZM205.343 275.818V278.446H194.884V275.818H205.343ZM197.933 270.983H201.033V290.219C201.033 291.095 201.16 291.752 201.414 292.19C201.677 292.619 202.01 292.908 202.413 293.057C202.825 293.197 203.258 293.267 203.714 293.267C204.055 293.267 204.336 293.25 204.555 293.214C204.774 293.171 204.949 293.136 205.08 293.109L205.711 295.895C205.501 295.974 205.207 296.053 204.831 296.131C204.454 296.219 203.977 296.263 203.398 296.263C202.523 296.263 201.664 296.074 200.823 295.698C199.991 295.321 199.299 294.747 198.747 293.977C198.204 293.206 197.933 292.233 197.933 291.06V270.983Z" fill="#717171"/>
<path d="M459.61 273.909V303H456.087V277.602H455.917L448.814 282.318V278.739L456.087 273.909H459.61ZM467.294 297.034V294.136L480.078 273.909H482.181V278.398H480.76L471.101 293.682V293.909H488.317V297.034H467.294ZM480.988 303V296.153V294.804V273.909H484.34V303H480.988Z" fill="white"/>
<path d="M673.181 391.398C671.306 391.398 669.634 391.076 668.167 390.432C666.708 389.788 665.548 388.893 664.686 387.747C663.834 386.592 663.37 385.252 663.294 383.727H666.874C666.95 384.665 667.272 385.474 667.84 386.156C668.408 386.829 669.151 387.349 670.07 387.719C670.989 388.088 672.007 388.273 673.124 388.273C674.374 388.273 675.482 388.055 676.448 387.619C677.414 387.184 678.171 386.578 678.721 385.801C679.27 385.025 679.544 384.125 679.544 383.102C679.544 382.032 679.279 381.09 678.749 380.276C678.219 379.452 677.442 378.808 676.419 378.344C675.397 377.88 674.147 377.648 672.669 377.648H670.34V374.523H672.669C673.825 374.523 674.838 374.314 675.709 373.898C676.59 373.481 677.276 372.894 677.769 372.136C678.271 371.379 678.522 370.489 678.522 369.466C678.522 368.481 678.304 367.624 677.868 366.895C677.433 366.166 676.817 365.598 676.022 365.19C675.236 364.783 674.308 364.58 673.238 364.58C672.234 364.58 671.287 364.764 670.397 365.134C669.516 365.493 668.796 366.019 668.238 366.71C667.679 367.392 667.376 368.216 667.328 369.182H663.919C663.976 367.657 664.435 366.322 665.297 365.176C666.159 364.021 667.286 363.121 668.678 362.477C670.079 361.833 671.618 361.511 673.294 361.511C675.094 361.511 676.637 361.876 677.925 362.605C679.213 363.325 680.203 364.277 680.894 365.46C681.585 366.644 681.931 367.922 681.931 369.295C681.931 370.934 681.5 372.33 680.638 373.486C679.786 374.641 678.626 375.441 677.158 375.886V376.114C678.995 376.417 680.43 377.198 681.462 378.457C682.494 379.707 683.01 381.256 683.01 383.102C683.01 384.684 682.579 386.104 681.718 387.364C680.865 388.614 679.701 389.598 678.223 390.318C676.746 391.038 675.065 391.398 673.181 391.398ZM689.729 391L702.74 365.261V365.034H687.74V361.909H706.377V365.205L693.422 391H689.729Z" fill="white"/>
<path d="M786.7 590.398C785.033 590.398 783.532 590.066 782.197 589.403C780.862 588.741 779.792 587.831 778.987 586.676C778.182 585.521 777.742 584.205 777.666 582.727H781.075C781.208 584.044 781.804 585.133 782.865 585.994C783.935 586.847 785.213 587.273 786.7 587.273C787.893 587.273 788.954 586.993 789.882 586.435C790.819 585.876 791.553 585.109 792.083 584.134C792.623 583.149 792.893 582.036 792.893 580.795C792.893 579.527 792.614 578.395 792.055 577.401C791.506 576.397 790.748 575.606 789.782 575.028C788.816 574.451 787.713 574.157 786.473 574.148C785.583 574.138 784.669 574.276 783.731 574.56C782.794 574.834 782.022 575.189 781.416 575.625L778.12 575.227L779.882 560.909H794.995V564.034H782.836L781.814 572.614H781.984C782.581 572.14 783.329 571.747 784.228 571.435C785.128 571.122 786.065 570.966 787.041 570.966C788.821 570.966 790.407 571.392 791.799 572.244C793.201 573.087 794.299 574.242 795.095 575.71C795.9 577.178 796.302 578.854 796.302 580.739C796.302 582.595 795.886 584.252 795.052 585.71C794.228 587.159 793.092 588.305 791.643 589.148C790.194 589.981 788.547 590.398 786.7 590.398ZM811.775 590.398C809.9 590.398 808.228 590.076 806.76 589.432C805.302 588.788 804.142 587.893 803.28 586.747C802.428 585.592 801.964 584.252 801.888 582.727H805.468C805.543 583.665 805.865 584.474 806.434 585.156C807.002 585.829 807.745 586.349 808.664 586.719C809.582 587.088 810.6 587.273 811.718 587.273C812.968 587.273 814.076 587.055 815.042 586.619C816.007 586.184 816.765 585.578 817.314 584.801C817.864 584.025 818.138 583.125 818.138 582.102C818.138 581.032 817.873 580.09 817.343 579.276C816.812 578.452 816.036 577.808 815.013 577.344C813.99 576.88 812.74 576.648 811.263 576.648H808.934V573.523H811.263C812.418 573.523 813.432 573.314 814.303 572.898C815.184 572.481 815.87 571.894 816.363 571.136C816.864 570.379 817.115 569.489 817.115 568.466C817.115 567.481 816.898 566.624 816.462 565.895C816.026 565.166 815.411 564.598 814.615 564.19C813.829 563.783 812.901 563.58 811.831 563.58C810.828 563.58 809.881 563.764 808.99 564.134C808.11 564.493 807.39 565.019 806.831 565.71C806.273 566.392 805.97 567.216 805.922 568.182H802.513C802.57 566.657 803.029 565.322 803.891 564.176C804.753 563.021 805.88 562.121 807.272 561.477C808.673 560.833 810.212 560.511 811.888 560.511C813.687 560.511 815.231 560.876 816.519 561.605C817.807 562.325 818.796 563.277 819.488 564.46C820.179 565.644 820.525 566.922 820.525 568.295C820.525 569.934 820.094 571.33 819.232 572.486C818.38 573.641 817.22 574.441 815.752 574.886V575.114C817.589 575.417 819.024 576.198 820.056 577.457C821.088 578.707 821.604 580.256 821.604 582.102C821.604 583.684 821.173 585.104 820.311 586.364C819.459 587.614 818.294 588.598 816.817 589.318C815.34 590.038 813.659 590.398 811.775 590.398Z" fill="white"/>
<path d="M743.522 817.398C742.329 817.379 741.136 817.152 739.942 816.716C738.749 816.28 737.66 815.546 736.675 814.514C735.691 813.473 734.9 812.066 734.303 810.295C733.707 808.515 733.408 806.28 733.408 803.591C733.408 801.015 733.65 798.733 734.133 796.744C734.616 794.746 735.317 793.065 736.235 791.702C737.154 790.329 738.262 789.287 739.559 788.577C740.866 787.866 742.338 787.511 743.977 787.511C745.605 787.511 747.054 787.838 748.323 788.491C749.602 789.135 750.643 790.035 751.448 791.19C752.253 792.346 752.774 793.676 753.011 795.182H749.545C749.223 793.875 748.598 792.791 747.67 791.929C746.742 791.067 745.511 790.636 743.977 790.636C741.723 790.636 739.947 791.616 738.65 793.577C737.362 795.537 736.713 798.288 736.704 801.83H736.931C737.461 801.025 738.091 800.338 738.82 799.77C739.559 799.192 740.373 798.747 741.263 798.435C742.154 798.122 743.096 797.966 744.09 797.966C745.757 797.966 747.281 798.383 748.664 799.216C750.047 800.04 751.155 801.181 751.988 802.639C752.821 804.088 753.238 805.75 753.238 807.625C753.238 809.424 752.835 811.072 752.031 812.568C751.226 814.055 750.094 815.239 748.636 816.119C747.187 816.991 745.482 817.417 743.522 817.398ZM743.522 814.273C744.715 814.273 745.785 813.974 746.732 813.378C747.689 812.781 748.442 811.981 748.991 810.977C749.549 809.973 749.829 808.856 749.829 807.625C749.829 806.422 749.559 805.329 749.019 804.344C748.489 803.349 747.755 802.559 746.817 801.972C745.889 801.384 744.829 801.091 743.636 801.091C742.736 801.091 741.898 801.271 741.121 801.631C740.345 801.981 739.663 802.464 739.076 803.08C738.498 803.695 738.044 804.401 737.712 805.196C737.381 805.982 737.215 806.811 737.215 807.682C737.215 808.837 737.485 809.917 738.025 810.92C738.574 811.924 739.322 812.734 740.269 813.349C741.226 813.965 742.31 814.273 743.522 814.273ZM767.915 817.398C766.248 817.398 764.747 817.066 763.412 816.403C762.077 815.741 761.007 814.831 760.202 813.676C759.397 812.521 758.956 811.205 758.881 809.727H762.29C762.422 811.044 763.019 812.133 764.08 812.994C765.15 813.847 766.428 814.273 767.915 814.273C769.108 814.273 770.169 813.993 771.097 813.435C772.034 812.876 772.768 812.109 773.298 811.134C773.838 810.149 774.108 809.036 774.108 807.795C774.108 806.527 773.829 805.395 773.27 804.401C772.721 803.397 771.963 802.606 770.997 802.028C770.031 801.451 768.928 801.157 767.688 801.148C766.797 801.138 765.884 801.276 764.946 801.56C764.009 801.834 763.237 802.189 762.631 802.625L759.335 802.227L761.097 787.909H776.21V791.034H764.051L763.028 799.614H763.199C763.795 799.14 764.544 798.747 765.443 798.435C766.343 798.122 767.28 797.966 768.256 797.966C770.036 797.966 771.622 798.392 773.014 799.244C774.416 800.087 775.514 801.242 776.31 802.71C777.115 804.178 777.517 805.854 777.517 807.739C777.517 809.595 777.1 811.252 776.267 812.71C775.443 814.159 774.307 815.305 772.858 816.148C771.409 816.981 769.761 817.398 767.915 817.398Z" fill="white"/>
<path d="M567.264 961.398C566.071 961.379 564.878 961.152 563.685 960.716C562.491 960.28 561.402 959.546 560.418 958.514C559.433 957.473 558.642 956.066 558.045 954.295C557.449 952.515 557.151 950.28 557.151 947.591C557.151 945.015 557.392 942.733 557.875 940.744C558.358 938.746 559.059 937.065 559.977 935.702C560.896 934.329 562.004 933.287 563.301 932.577C564.608 931.866 566.08 931.511 567.719 931.511C569.348 931.511 570.796 931.838 572.065 932.491C573.344 933.135 574.385 934.035 575.19 935.19C575.995 936.346 576.516 937.676 576.753 939.182H573.287C572.965 937.875 572.34 936.791 571.412 935.929C570.484 935.067 569.253 934.636 567.719 934.636C565.465 934.636 563.689 935.616 562.392 937.577C561.104 939.537 560.455 942.288 560.446 945.83H560.673C561.204 945.025 561.833 944.338 562.562 943.77C563.301 943.192 564.116 942.747 565.006 942.435C565.896 942.122 566.838 941.966 567.832 941.966C569.499 941.966 571.024 942.383 572.406 943.216C573.789 944.04 574.897 945.181 575.73 946.639C576.563 948.088 576.98 949.75 576.98 951.625C576.98 953.424 576.578 955.072 575.773 956.568C574.968 958.055 573.836 959.239 572.378 960.119C570.929 960.991 569.224 961.417 567.264 961.398ZM567.264 958.273C568.457 958.273 569.527 957.974 570.474 957.378C571.431 956.781 572.184 955.981 572.733 954.977C573.292 953.973 573.571 952.856 573.571 951.625C573.571 950.422 573.301 949.329 572.761 948.344C572.231 947.349 571.497 946.559 570.56 945.972C569.632 945.384 568.571 945.091 567.378 945.091C566.478 945.091 565.64 945.271 564.864 945.631C564.087 945.981 563.405 946.464 562.818 947.08C562.241 947.695 561.786 948.401 561.455 949.196C561.123 949.982 560.957 950.811 560.957 951.682C560.957 952.837 561.227 953.917 561.767 954.92C562.316 955.924 563.064 956.734 564.011 957.349C564.968 957.965 566.052 958.273 567.264 958.273ZM583.475 961L596.487 935.261V935.034H581.487V931.909H600.123V935.205L587.168 961H583.475Z" fill="white"/>
<path d="M334.968 932.511C336.161 932.521 337.354 932.748 338.548 933.193C339.741 933.638 340.83 934.377 341.815 935.409C342.799 936.432 343.59 937.829 344.187 939.599C344.783 941.37 345.082 943.591 345.082 946.261C345.082 948.847 344.835 951.143 344.343 953.151C343.86 955.149 343.159 956.834 342.241 958.207C341.332 959.58 340.224 960.622 338.917 961.332C337.62 962.043 336.152 962.398 334.513 962.398C332.885 962.398 331.431 962.076 330.153 961.432C328.884 960.778 327.842 959.874 327.028 958.719C326.223 957.554 325.707 956.205 325.479 954.67H328.945C329.258 956.006 329.878 957.109 330.806 957.98C331.744 958.842 332.979 959.273 334.513 959.273C336.758 959.273 338.529 958.293 339.826 956.332C341.133 954.372 341.786 951.602 341.786 948.023H341.559C341.029 948.818 340.399 949.505 339.67 950.082C338.941 950.66 338.131 951.105 337.241 951.418C336.351 951.73 335.404 951.886 334.4 951.886C332.733 951.886 331.204 951.474 329.812 950.651C328.429 949.817 327.321 948.676 326.488 947.227C325.664 945.769 325.252 944.102 325.252 942.227C325.252 940.447 325.65 938.818 326.445 937.341C327.25 935.854 328.377 934.67 329.826 933.79C331.284 932.909 332.998 932.483 334.968 932.511ZM334.968 935.636C333.775 935.636 332.7 935.935 331.744 936.531C330.797 937.118 330.044 937.914 329.485 938.918C328.936 939.912 328.661 941.015 328.661 942.227C328.661 943.439 328.926 944.543 329.457 945.537C329.996 946.522 330.73 947.308 331.658 947.895C332.596 948.473 333.661 948.761 334.854 948.761C335.754 948.761 336.592 948.586 337.369 948.236C338.145 947.876 338.822 947.388 339.4 946.773C339.987 946.148 340.446 945.442 340.778 944.656C341.109 943.861 341.275 943.032 341.275 942.17C341.275 941.034 341 939.969 340.451 938.974C339.911 937.98 339.163 937.175 338.207 936.56C337.26 935.944 336.18 935.636 334.968 935.636ZM359.986 962.398C358.035 962.398 356.312 962.052 354.815 961.361C353.329 960.66 352.169 959.699 351.335 958.477C350.502 957.246 350.09 955.845 350.099 954.273C350.09 953.042 350.331 951.905 350.824 950.864C351.316 949.812 351.989 948.937 352.841 948.236C353.703 947.526 354.664 947.076 355.724 946.886V946.716C354.332 946.356 353.224 945.575 352.401 944.372C351.577 943.16 351.17 941.782 351.179 940.239C351.17 938.761 351.544 937.44 352.301 936.276C353.059 935.111 354.1 934.192 355.426 933.52C356.761 932.848 358.281 932.511 359.986 932.511C361.671 932.511 363.177 932.848 364.503 933.52C365.829 934.192 366.87 935.111 367.628 936.276C368.395 937.44 368.783 938.761 368.793 940.239C368.783 941.782 368.362 943.16 367.528 944.372C366.705 945.575 365.611 946.356 364.247 946.716V946.886C365.298 947.076 366.245 947.526 367.088 948.236C367.931 948.937 368.603 949.812 369.105 950.864C369.607 951.905 369.863 953.042 369.872 954.273C369.863 955.845 369.437 957.246 368.594 958.477C367.76 959.699 366.6 960.66 365.114 961.361C363.636 962.052 361.927 962.398 359.986 962.398ZM359.986 959.273C361.302 959.273 362.438 959.06 363.395 958.634C364.351 958.207 365.09 957.606 365.611 956.83C366.132 956.053 366.397 955.144 366.406 954.102C366.397 953.004 366.113 952.033 365.554 951.19C364.995 950.348 364.233 949.685 363.267 949.202C362.311 948.719 361.217 948.477 359.986 948.477C358.745 948.477 357.637 948.719 356.662 949.202C355.696 949.685 354.934 950.348 354.375 951.19C353.826 952.033 353.556 953.004 353.565 954.102C353.556 955.144 353.807 956.053 354.318 956.83C354.839 957.606 355.582 958.207 356.548 958.634C357.514 959.06 358.66 959.273 359.986 959.273ZM359.986 945.466C361.027 945.466 361.951 945.258 362.756 944.841C363.57 944.424 364.209 943.842 364.673 943.094C365.137 942.346 365.374 941.47 365.384 940.466C365.374 939.481 365.142 938.624 364.688 937.895C364.233 937.156 363.603 936.588 362.798 936.19C361.993 935.783 361.056 935.58 359.986 935.58C358.897 935.58 357.945 935.783 357.131 936.19C356.316 936.588 355.687 937.156 355.241 937.895C354.796 938.624 354.579 939.481 354.588 940.466C354.579 941.47 354.801 942.346 355.256 943.094C355.72 943.842 356.359 944.424 357.173 944.841C357.988 945.258 358.925 945.466 359.986 945.466Z" fill="white"/>
<path d="M153.223 777.909V807H149.7V781.602H149.53L142.428 786.318V782.739L149.7 777.909H153.223ZM161.589 807V804.443L171.192 793.932C172.319 792.701 173.247 791.631 173.976 790.722C174.705 789.803 175.245 788.941 175.595 788.136C175.955 787.322 176.135 786.47 176.135 785.58C176.135 784.557 175.889 783.671 175.396 782.923C174.913 782.175 174.25 781.598 173.408 781.19C172.565 780.783 171.618 780.58 170.567 780.58C169.449 780.58 168.474 780.812 167.641 781.276C166.817 781.73 166.178 782.369 165.723 783.193C165.278 784.017 165.055 784.983 165.055 786.091H161.703C161.703 784.386 162.096 782.89 162.882 781.602C163.668 780.314 164.738 779.311 166.092 778.591C167.456 777.871 168.985 777.511 170.68 777.511C172.385 777.511 173.895 777.871 175.212 778.591C176.528 779.311 177.56 780.281 178.308 781.503C179.056 782.724 179.43 784.083 179.43 785.58C179.43 786.65 179.236 787.696 178.848 788.719C178.469 789.732 177.806 790.864 176.859 792.114C175.922 793.354 174.62 794.869 172.953 796.659L166.419 803.648V803.875H179.942V807H161.589ZM185.808 807V804.443L195.411 793.932C196.537 792.701 197.465 791.631 198.195 790.722C198.924 789.803 199.464 788.941 199.814 788.136C200.174 787.322 200.354 786.47 200.354 785.58C200.354 784.557 200.107 783.671 199.615 782.923C199.132 782.175 198.469 781.598 197.626 781.19C196.784 780.783 195.837 780.58 194.786 780.58C193.668 780.58 192.693 780.812 191.859 781.276C191.036 781.73 190.396 782.369 189.942 783.193C189.497 784.017 189.274 784.983 189.274 786.091H185.922C185.922 784.386 186.315 782.89 187.101 781.602C187.887 780.314 188.957 779.311 190.311 778.591C191.675 777.871 193.204 777.511 194.899 777.511C196.604 777.511 198.114 777.871 199.43 778.591C200.747 779.311 201.779 780.281 202.527 781.503C203.275 782.724 203.649 784.083 203.649 785.58C203.649 786.65 203.455 787.696 203.067 788.719C202.688 789.732 202.025 790.864 201.078 792.114C200.141 793.354 198.839 794.869 197.172 796.659L190.638 803.648V803.875H204.161V807H185.808Z" fill="white"/>
<path d="M114.813 552.909V582H111.29V556.602H111.12L104.017 561.318V557.739L111.29 552.909H114.813ZM123.179 582V579.443L132.782 568.932C133.908 567.701 134.837 566.631 135.566 565.722C136.295 564.803 136.835 563.941 137.185 563.136C137.545 562.322 137.725 561.47 137.725 560.58C137.725 559.557 137.479 558.671 136.986 557.923C136.503 557.175 135.84 556.598 134.998 556.19C134.155 555.783 133.208 555.58 132.157 555.58C131.039 555.58 130.064 555.812 129.23 556.276C128.407 556.73 127.767 557.369 127.313 558.193C126.868 559.017 126.645 559.983 126.645 561.091H123.293C123.293 559.386 123.686 557.89 124.472 556.602C125.258 555.314 126.328 554.311 127.682 553.591C129.046 552.871 130.575 552.511 132.27 552.511C133.975 552.511 135.485 552.871 136.801 553.591C138.118 554.311 139.15 555.281 139.898 556.503C140.646 557.724 141.02 559.083 141.02 560.58C141.02 561.65 140.826 562.696 140.438 563.719C140.059 564.732 139.396 565.864 138.449 567.114C137.512 568.354 136.21 569.869 134.543 571.659L128.009 578.648V578.875H141.532V582H123.179ZM146.091 576.034V573.136L158.875 552.909H160.978V557.398H159.557L149.898 572.682V572.909H167.114V576.034H146.091ZM159.784 582V575.153V573.804V552.909H163.137V582H159.784Z" fill="white"/>
<path d="M227.383 352.909V382H223.86V356.602H223.69L216.588 361.318V357.739L223.86 352.909H227.383ZM245.068 382.398C243.117 382.398 241.394 382.052 239.897 381.361C238.411 380.66 237.251 379.699 236.417 378.477C235.584 377.246 235.172 375.845 235.181 374.273C235.172 373.042 235.413 371.905 235.906 370.864C236.398 369.812 237.071 368.937 237.923 368.236C238.785 367.526 239.746 367.076 240.806 366.886V366.716C239.414 366.356 238.306 365.575 237.483 364.372C236.659 363.16 236.252 361.782 236.261 360.239C236.252 358.761 236.626 357.44 237.383 356.276C238.141 355.111 239.182 354.192 240.508 353.52C241.843 352.848 243.363 352.511 245.068 352.511C246.753 352.511 248.259 352.848 249.585 353.52C250.911 354.192 251.952 355.111 252.71 356.276C253.477 357.44 253.865 358.761 253.875 360.239C253.865 361.782 253.444 363.16 252.61 364.372C251.787 365.575 250.693 366.356 249.329 366.716V366.886C250.38 367.076 251.327 367.526 252.17 368.236C253.013 368.937 253.685 369.812 254.187 370.864C254.689 371.905 254.945 373.042 254.954 374.273C254.945 375.845 254.519 377.246 253.676 378.477C252.842 379.699 251.682 380.66 250.196 381.361C248.718 382.052 247.009 382.398 245.068 382.398ZM245.068 379.273C246.384 379.273 247.52 379.06 248.477 378.634C249.433 378.207 250.172 377.606 250.693 376.83C251.214 376.053 251.479 375.144 251.488 374.102C251.479 373.004 251.195 372.033 250.636 371.19C250.077 370.348 249.315 369.685 248.349 369.202C247.393 368.719 246.299 368.477 245.068 368.477C243.827 368.477 242.719 368.719 241.744 369.202C240.778 369.685 240.016 370.348 239.457 371.19C238.908 372.033 238.638 373.004 238.647 374.102C238.638 375.144 238.889 376.053 239.4 376.83C239.921 377.606 240.664 378.207 241.63 378.634C242.596 379.06 243.742 379.273 245.068 379.273ZM245.068 365.466C246.109 365.466 247.033 365.258 247.838 364.841C248.652 364.424 249.291 363.842 249.755 363.094C250.219 362.346 250.456 361.47 250.466 360.466C250.456 359.481 250.224 358.624 249.77 357.895C249.315 357.156 248.685 356.588 247.88 356.19C247.075 355.783 246.138 355.58 245.068 355.58C243.979 355.58 243.027 355.783 242.213 356.19C241.398 356.588 240.769 357.156 240.324 357.895C239.878 358.624 239.661 359.481 239.67 360.466C239.661 361.47 239.883 362.346 240.338 363.094C240.802 363.842 241.441 364.424 242.255 364.841C243.07 365.258 244.007 365.466 245.068 365.466ZM270.228 382.398C268.353 382.398 266.681 382.076 265.213 381.432C263.755 380.788 262.595 379.893 261.733 378.747C260.881 377.592 260.417 376.252 260.341 374.727H263.921C263.997 375.665 264.319 376.474 264.887 377.156C265.455 377.829 266.198 378.349 267.117 378.719C268.035 379.088 269.053 379.273 270.171 379.273C271.421 379.273 272.529 379.055 273.495 378.619C274.461 378.184 275.218 377.578 275.767 376.801C276.317 376.025 276.591 375.125 276.591 374.102C276.591 373.032 276.326 372.09 275.796 371.276C275.266 370.452 274.489 369.808 273.466 369.344C272.444 368.88 271.194 368.648 269.716 368.648H267.387V365.523H269.716C270.872 365.523 271.885 365.314 272.756 364.898C273.637 364.481 274.323 363.894 274.816 363.136C275.318 362.379 275.569 361.489 275.569 360.466C275.569 359.481 275.351 358.624 274.915 357.895C274.48 357.166 273.864 356.598 273.069 356.19C272.283 355.783 271.355 355.58 270.284 355.58C269.281 355.58 268.334 355.764 267.444 356.134C266.563 356.493 265.843 357.019 265.284 357.71C264.726 358.392 264.423 359.216 264.375 360.182H260.966C261.023 358.657 261.482 357.322 262.344 356.176C263.206 355.021 264.333 354.121 265.725 353.477C267.126 352.833 268.665 352.511 270.341 352.511C272.141 352.511 273.684 352.876 274.972 353.605C276.26 354.325 277.249 355.277 277.941 356.46C278.632 357.644 278.978 358.922 278.978 360.295C278.978 361.934 278.547 363.33 277.685 364.486C276.833 365.641 275.673 366.441 274.205 366.886V367.114C276.042 367.417 277.477 368.198 278.509 369.457C279.541 370.707 280.057 372.256 280.057 374.102C280.057 375.684 279.626 377.104 278.765 378.364C277.912 379.614 276.748 380.598 275.27 381.318C273.793 382.038 272.112 382.398 270.228 382.398Z" fill="white"/>
<path d="M279.002 33.0938H272.78C272.666 32.2888 272.434 31.5739 272.084 30.9489C271.734 30.3144 271.284 29.7746 270.735 29.3295C270.185 28.8845 269.551 28.5436 268.831 28.3068C268.121 28.0701 267.349 27.9517 266.516 27.9517C265.01 27.9517 263.699 28.3258 262.581 29.0739C261.464 29.8125 260.597 30.892 259.982 32.3125C259.366 33.7235 259.058 35.4375 259.058 37.4545C259.058 39.5284 259.366 41.2708 259.982 42.6818C260.607 44.0928 261.478 45.1581 262.595 45.8778C263.713 46.5975 265.005 46.9574 266.473 46.9574C267.297 46.9574 268.059 46.8485 268.76 46.6307C269.47 46.4129 270.1 46.0956 270.649 45.679C271.199 45.2528 271.653 44.7367 272.013 44.1307C272.382 43.5246 272.638 42.8333 272.78 42.0568L279.002 42.0852C278.841 43.4205 278.438 44.7083 277.794 45.9489C277.16 47.1799 276.303 48.2831 275.223 49.2585C274.153 50.2244 272.875 50.9915 271.388 51.5597C269.911 52.1184 268.239 52.3977 266.374 52.3977C263.779 52.3977 261.459 51.8106 259.413 50.6364C257.378 49.4621 255.768 47.7623 254.584 45.5369C253.41 43.3116 252.823 40.6174 252.823 37.4545C252.823 34.2822 253.419 31.5833 254.612 29.358C255.806 27.1326 257.425 25.4375 259.47 24.2727C261.516 23.0985 263.817 22.5114 266.374 22.5114C268.059 22.5114 269.622 22.7481 271.061 23.2216C272.51 23.6951 273.793 24.3864 274.911 25.2955C276.028 26.1951 276.937 27.2983 277.638 28.6051C278.348 29.9119 278.803 31.4081 279.002 33.0938ZM283.298 52V30.1818H289.35V52H283.298ZM286.338 27.3693C285.439 27.3693 284.667 27.071 284.023 26.4744C283.388 25.8684 283.071 25.1439 283.071 24.3011C283.071 23.4678 283.388 22.7528 284.023 22.1562C284.667 21.5502 285.439 21.2472 286.338 21.2472C287.238 21.2472 288.005 21.5502 288.639 22.1562C289.283 22.7528 289.605 23.4678 289.605 24.3011C289.605 25.1439 289.283 25.8684 288.639 26.4744C288.005 27.071 287.238 27.3693 286.338 27.3693ZM294.197 52V30.1818H300.063V33.9886H300.291C300.688 32.6345 301.356 31.6117 302.293 30.9205C303.231 30.2197 304.311 29.8693 305.532 29.8693C305.835 29.8693 306.162 29.8883 306.512 29.9261C306.863 29.964 307.17 30.0161 307.436 30.0824V35.4517C307.151 35.3665 306.758 35.2907 306.257 35.2244C305.755 35.1581 305.295 35.125 304.879 35.125C303.989 35.125 303.193 35.3191 302.492 35.7074C301.801 36.0862 301.252 36.6165 300.845 37.2983C300.447 37.9801 300.248 38.7661 300.248 39.6562V52H294.197ZM319.406 52.4261C317.172 52.4261 315.249 51.9527 313.639 51.0057C312.039 50.0492 310.808 48.7235 309.946 47.0284C309.094 45.3333 308.668 43.3826 308.668 41.1761C308.668 38.9413 309.099 36.9811 309.96 35.2955C310.832 33.6004 312.067 32.2794 313.668 31.3324C315.268 30.3759 317.172 29.8977 319.378 29.8977C321.281 29.8977 322.948 30.2434 324.378 30.9347C325.808 31.6259 326.94 32.5966 327.773 33.8466C328.606 35.0966 329.065 36.5644 329.151 38.25H323.44C323.28 37.161 322.853 36.285 322.162 35.6222C321.48 34.9498 320.585 34.6136 319.477 34.6136C318.54 34.6136 317.721 34.8693 317.02 35.3807C316.329 35.8826 315.789 36.6165 315.401 37.5824C315.012 38.5483 314.818 39.7178 314.818 41.0909C314.818 42.483 315.008 43.6667 315.387 44.642C315.775 45.6174 316.319 46.3608 317.02 46.8722C317.721 47.3835 318.54 47.6392 319.477 47.6392C320.169 47.6392 320.789 47.4972 321.338 47.2131C321.897 46.929 322.356 46.517 322.716 45.9773C323.085 45.428 323.327 44.7699 323.44 44.0028H329.151C329.056 45.6695 328.601 47.1373 327.787 48.4062C326.982 49.6657 325.869 50.6506 324.449 51.3608C323.029 52.071 321.348 52.4261 319.406 52.4261ZM347.016 42.7102V30.1818H353.068V52H347.258V48.0369H347.031C346.538 49.3153 345.719 50.3428 344.573 51.1193C343.437 51.8958 342.05 52.2841 340.411 52.2841C338.953 52.2841 337.67 51.9527 336.562 51.2898C335.454 50.6269 334.588 49.6847 333.963 48.4631C333.347 47.2415 333.034 45.7784 333.025 44.0739V30.1818H339.076V42.9943C339.086 44.2822 339.431 45.3002 340.113 46.0483C340.795 46.7964 341.709 47.1705 342.855 47.1705C343.584 47.1705 344.266 47.0047 344.9 46.6733C345.534 46.3324 346.046 45.8305 346.434 45.1676C346.832 44.5047 347.026 43.6856 347.016 42.7102ZM363.959 22.9091V52H357.908V22.9091H363.959ZM375.028 52.4119C373.636 52.4119 372.395 52.1705 371.306 51.6875C370.217 51.1951 369.355 50.4706 368.721 49.5142C368.096 48.5483 367.784 47.3456 367.784 45.9062C367.784 44.6941 368.006 43.6761 368.451 42.8523C368.896 42.0284 369.502 41.3655 370.269 40.8636C371.036 40.3617 371.908 39.983 372.883 39.7273C373.868 39.4716 374.9 39.2917 375.98 39.1875C377.248 39.0549 378.271 38.9318 379.048 38.8182C379.824 38.6951 380.388 38.5152 380.738 38.2784C381.088 38.0417 381.264 37.6913 381.264 37.2273V37.142C381.264 36.2424 380.98 35.5464 380.411 35.054C379.853 34.5616 379.057 34.3153 378.025 34.3153C376.936 34.3153 376.07 34.5568 375.426 35.0398C374.782 35.5133 374.355 36.1098 374.147 36.8295L368.551 36.375C368.835 35.0492 369.393 33.9034 370.227 32.9375C371.06 31.9621 372.135 31.214 373.451 30.6932C374.777 30.1629 376.311 29.8977 378.053 29.8977C379.266 29.8977 380.426 30.0398 381.534 30.3239C382.651 30.608 383.641 31.0483 384.502 31.6449C385.373 32.2415 386.06 33.0085 386.562 33.946C387.064 34.8741 387.315 35.9867 387.315 37.2841V52H381.576V48.9744H381.406C381.055 49.6562 380.587 50.2576 379.999 50.7784C379.412 51.2898 378.707 51.6922 377.883 51.9858C377.059 52.2699 376.107 52.4119 375.028 52.4119ZM376.761 48.2358C377.651 48.2358 378.437 48.0606 379.119 47.7102C379.801 47.3504 380.336 46.8674 380.724 46.2614C381.112 45.6553 381.306 44.9687 381.306 44.2017V41.8864C381.117 42.0095 380.856 42.1231 380.525 42.2273C380.203 42.322 379.838 42.4119 379.431 42.4972C379.024 42.5729 378.617 42.6439 378.21 42.7102C377.802 42.767 377.433 42.8191 377.102 42.8665C376.391 42.9706 375.771 43.1364 375.241 43.3636C374.711 43.5909 374.299 43.8987 374.005 44.2869C373.712 44.6657 373.565 45.1392 373.565 45.7074C373.565 46.5312 373.863 47.161 374.46 47.5966C375.066 48.0227 375.833 48.2358 376.761 48.2358ZM392.009 52V30.1818H397.876V33.9886H398.103C398.501 32.6345 399.168 31.6117 400.106 30.9205C401.043 30.2197 402.123 29.8693 403.345 29.8693C403.648 29.8693 403.974 29.8883 404.325 29.9261C404.675 29.964 404.983 30.0161 405.248 30.0824V35.4517C404.964 35.3665 404.571 35.2907 404.069 35.2244C403.567 35.1581 403.108 35.125 402.691 35.125C401.801 35.125 401.006 35.3191 400.305 35.7074C399.614 36.0862 399.064 36.6165 398.657 37.2983C398.259 37.9801 398.061 38.7661 398.061 39.6562V52H392.009ZM428.061 52H417.748V22.9091H428.146C431.072 22.9091 433.591 23.4915 435.703 24.6562C437.814 25.8116 439.438 27.4735 440.575 29.642C441.721 31.8106 442.293 34.4053 442.293 37.4261C442.293 40.4564 441.721 43.0606 440.575 45.2386C439.438 47.4167 437.805 49.0881 435.674 50.2528C433.553 51.4176 431.015 52 428.061 52ZM423.899 46.7301H427.805C429.623 46.7301 431.152 46.4081 432.393 45.7642C433.643 45.1108 434.58 44.1023 435.205 42.7386C435.84 41.3655 436.157 39.5947 436.157 37.4261C436.157 35.2765 435.84 33.5199 435.205 32.1562C434.58 30.7926 433.648 29.7888 432.407 29.1449C431.167 28.5009 429.637 28.179 427.819 28.179H423.899V46.7301ZM446.736 52V30.1818H452.787V52H446.736ZM449.776 27.3693C448.876 27.3693 448.104 27.071 447.46 26.4744C446.826 25.8684 446.509 25.1439 446.509 24.3011C446.509 23.4678 446.826 22.7528 447.46 22.1562C448.104 21.5502 448.876 21.2472 449.776 21.2472C450.675 21.2472 451.442 21.5502 452.077 22.1562C452.721 22.7528 453.043 23.4678 453.043 24.3011C453.043 25.1439 452.721 25.8684 452.077 26.4744C451.442 27.071 450.675 27.3693 449.776 27.3693ZM475.788 36.4034L470.248 36.7443C470.153 36.2708 469.95 35.8447 469.637 35.4659C469.325 35.0777 468.913 34.7699 468.401 34.5426C467.9 34.3059 467.298 34.1875 466.597 34.1875C465.66 34.1875 464.869 34.3864 464.225 34.7841C463.581 35.1723 463.259 35.6932 463.259 36.3466C463.259 36.8674 463.468 37.3078 463.884 37.6676C464.301 38.0275 465.016 38.3163 466.029 38.5341L469.978 39.3295C472.099 39.7652 473.681 40.4659 474.722 41.4318C475.764 42.3977 476.285 43.6667 476.285 45.2386C476.285 46.6686 475.864 47.9233 475.021 49.0028C474.187 50.0824 473.042 50.9252 471.583 51.5312C470.134 52.1278 468.463 52.4261 466.569 52.4261C463.681 52.4261 461.38 51.8248 459.666 50.6222C457.961 49.41 456.962 47.7623 456.668 45.679L462.62 45.3665C462.8 46.2472 463.236 46.9195 463.927 47.3835C464.618 47.8381 465.504 48.0653 466.583 48.0653C467.644 48.0653 468.496 47.8617 469.14 47.4545C469.793 47.0379 470.125 46.5028 470.134 45.8494C470.125 45.3002 469.893 44.8504 469.438 44.5C468.984 44.1402 468.283 43.8655 467.336 43.6761L463.558 42.9233C461.427 42.4972 459.841 41.7585 458.799 40.7074C457.767 39.6562 457.251 38.3163 457.251 36.6875C457.251 35.286 457.63 34.0786 458.387 33.0653C459.154 32.0521 460.229 31.2708 461.612 30.7216C463.004 30.1723 464.632 29.8977 466.498 29.8977C469.254 29.8977 471.422 30.4801 473.004 31.6449C474.595 32.8097 475.523 34.3958 475.788 36.4034ZM485.578 45.7216L485.592 38.4631H486.473L493.462 30.1818H500.408L491.019 41.1477H489.584L485.578 45.7216ZM480.095 52V22.9091H486.146V52H480.095ZM493.732 52L487.311 42.4972L491.345 38.2216L500.82 52H493.732ZM512.748 52V22.9091H524.225C526.422 22.9091 528.297 23.3021 529.85 24.0881C531.413 24.8646 532.601 25.9678 533.416 27.3977C534.239 28.8182 534.651 30.4896 534.651 32.4119C534.651 34.3437 534.235 36.0057 533.401 37.3977C532.568 38.7803 531.361 39.8409 529.779 40.5795C528.207 41.3182 526.304 41.6875 524.069 41.6875H516.384V36.7443H523.075C524.249 36.7443 525.224 36.5833 526.001 36.2614C526.777 35.9394 527.355 35.4564 527.734 34.8125C528.122 34.1686 528.316 33.3684 528.316 32.4119C528.316 31.446 528.122 30.6316 527.734 29.9688C527.355 29.3059 526.773 28.804 525.987 28.4631C525.21 28.1127 524.23 27.9375 523.046 27.9375H518.899V52H512.748ZM528.458 38.7614L535.688 52H528.899L521.825 38.7614H528.458ZM548.476 52.4261C546.232 52.4261 544.3 51.9716 542.681 51.0625C541.071 50.1439 539.83 48.8466 538.959 47.1705C538.088 45.4848 537.652 43.4915 537.652 41.1903C537.652 38.946 538.088 36.9763 538.959 35.2812C539.83 33.5862 541.056 32.2652 542.638 31.3182C544.229 30.3712 546.094 29.8977 548.235 29.8977C549.674 29.8977 551.014 30.1297 552.254 30.5938C553.504 31.0483 554.593 31.7348 555.521 32.6534C556.459 33.572 557.188 34.7273 557.709 36.1193C558.23 37.5019 558.49 39.1212 558.49 40.9773V42.6392H540.067V38.8892H552.794C552.794 38.018 552.605 37.2462 552.226 36.5739C551.847 35.9015 551.322 35.3759 550.649 34.9972C549.986 34.6089 549.215 34.4148 548.334 34.4148C547.415 34.4148 546.601 34.6278 545.891 35.054C545.19 35.4706 544.641 36.0341 544.243 36.7443C543.845 37.4451 543.642 38.2263 543.632 39.0881V42.6534C543.632 43.733 543.831 44.6657 544.229 45.4517C544.636 46.2377 545.209 46.8438 545.948 47.2699C546.686 47.696 547.562 47.9091 548.575 47.9091C549.248 47.9091 549.863 47.8144 550.422 47.625C550.981 47.4356 551.459 47.1515 551.857 46.7727C552.254 46.3939 552.557 45.9299 552.766 45.3807L558.362 45.75C558.078 47.0947 557.496 48.2689 556.615 49.2727C555.744 50.267 554.617 51.0436 553.235 51.6023C551.861 52.1515 550.275 52.4261 548.476 52.4261ZM576.857 60.1818V48.5057H576.672C576.388 49.1117 575.985 49.7131 575.465 50.3097C574.953 50.8968 574.286 51.3845 573.462 51.7727C572.647 52.161 571.653 52.3551 570.479 52.3551C568.822 52.3551 567.321 51.929 565.976 51.0767C564.641 50.215 563.58 48.9508 562.794 47.2841C562.018 45.608 561.629 43.553 561.629 41.1193C561.629 38.6193 562.032 36.5407 562.837 34.8835C563.642 33.2169 564.712 31.9716 566.047 31.1477C567.392 30.3144 568.864 29.8977 570.465 29.8977C571.686 29.8977 572.704 30.1061 573.519 30.5227C574.342 30.9299 575.005 31.4413 575.507 32.0568C576.019 32.6629 576.407 33.2595 576.672 33.8466H576.928V30.1818H582.894V60.1818H576.857ZM572.396 47.5398C573.372 47.5398 574.196 47.2746 574.868 46.7443C575.55 46.2045 576.071 45.4517 576.431 44.4858C576.8 43.5199 576.985 42.3883 576.985 41.0909C576.985 39.7936 576.805 38.6667 576.445 37.7102C576.085 36.7538 575.564 36.0152 574.882 35.4943C574.2 34.9735 573.372 34.7131 572.396 34.7131C571.402 34.7131 570.564 34.983 569.882 35.5227C569.2 36.0625 568.684 36.8106 568.334 37.767C567.984 38.7235 567.808 39.8314 567.808 41.0909C567.808 42.3598 567.984 43.482 568.334 44.4574C568.694 45.4233 569.21 46.1809 569.882 46.7301C570.564 47.2699 571.402 47.5398 572.396 47.5398ZM601.743 42.7102V30.1818H607.794V52H601.985V48.0369H601.757C601.265 49.3153 600.446 50.3428 599.3 51.1193C598.163 51.8958 596.776 52.2841 595.138 52.2841C593.68 52.2841 592.396 51.9527 591.288 51.2898C590.181 50.6269 589.314 49.6847 588.689 48.4631C588.074 47.2415 587.761 45.7784 587.752 44.0739V30.1818H593.803V42.9943C593.812 44.2822 594.158 45.3002 594.84 46.0483C595.521 46.7964 596.435 47.1705 597.581 47.1705C598.31 47.1705 598.992 47.0047 599.627 46.6733C600.261 46.3324 600.772 45.8305 601.161 45.1676C601.558 44.5047 601.753 43.6856 601.743 42.7102ZM622.578 52.4261C620.333 52.4261 618.401 51.9716 616.782 51.0625C615.172 50.1439 613.932 48.8466 613.061 47.1705C612.189 45.4848 611.754 43.4915 611.754 41.1903C611.754 38.946 612.189 36.9763 613.061 35.2812C613.932 33.5862 615.158 32.2652 616.739 31.3182C618.33 30.3712 620.196 29.8977 622.336 29.8977C623.775 29.8977 625.115 30.1297 626.356 30.5938C627.606 31.0483 628.695 31.7348 629.623 32.6534C630.561 33.572 631.29 34.7273 631.811 36.1193C632.331 37.5019 632.592 39.1212 632.592 40.9773V42.6392H614.168V38.8892H626.896C626.896 38.018 626.706 37.2462 626.328 36.5739C625.949 35.9015 625.423 35.3759 624.751 34.9972C624.088 34.6089 623.316 34.4148 622.436 34.4148C621.517 34.4148 620.703 34.6278 619.992 35.054C619.292 35.4706 618.742 36.0341 618.345 36.7443C617.947 37.4451 617.743 38.2263 617.734 39.0881V42.6534C617.734 43.733 617.933 44.6657 618.33 45.4517C618.738 46.2377 619.311 46.8438 620.049 47.2699C620.788 47.696 621.664 47.9091 622.677 47.9091C623.349 47.9091 623.965 47.8144 624.524 47.625C625.082 47.4356 625.561 47.1515 625.958 46.7727C626.356 46.3939 626.659 45.9299 626.867 45.3807L632.464 45.75C632.18 47.0947 631.597 48.2689 630.717 49.2727C629.846 50.267 628.719 51.0436 627.336 51.6023C625.963 52.1515 624.377 52.4261 622.578 52.4261ZM654.694 36.4034L649.154 36.7443C649.06 36.2708 648.856 35.8447 648.543 35.4659C648.231 35.0777 647.819 34.7699 647.308 34.5426C646.806 34.3059 646.204 34.1875 645.504 34.1875C644.566 34.1875 643.775 34.3864 643.132 34.7841C642.488 35.1723 642.166 35.6932 642.166 36.3466C642.166 36.8674 642.374 37.3078 642.791 37.6676C643.207 38.0275 643.922 38.3163 644.936 38.5341L648.884 39.3295C651.006 39.7652 652.587 40.4659 653.629 41.4318C654.67 42.3977 655.191 43.6667 655.191 45.2386C655.191 46.6686 654.77 47.9233 653.927 49.0028C653.094 50.0824 651.948 50.9252 650.489 51.5312C649.041 52.1278 647.369 52.4261 645.475 52.4261C642.587 52.4261 640.286 51.8248 638.572 50.6222C636.867 49.41 635.868 47.7623 635.575 45.679L641.526 45.3665C641.706 46.2472 642.142 46.9195 642.833 47.3835C643.525 47.8381 644.41 48.0653 645.489 48.0653C646.55 48.0653 647.402 47.8617 648.046 47.4545C648.7 47.0379 649.031 46.5028 649.041 45.8494C649.031 45.3002 648.799 44.8504 648.345 44.5C647.89 44.1402 647.189 43.8655 646.242 43.6761L642.464 42.9233C640.333 42.4972 638.747 41.7585 637.705 40.7074C636.673 39.6562 636.157 38.3163 636.157 36.6875C636.157 35.286 636.536 34.0786 637.293 33.0653C638.061 32.0521 639.135 31.2708 640.518 30.7216C641.91 30.1723 643.539 29.8977 645.404 29.8977C648.16 29.8977 650.329 30.4801 651.91 31.6449C653.501 32.8097 654.429 34.3958 654.694 36.4034ZM670.607 30.1818V34.7273H657.467V30.1818H670.607ZM660.45 24.9545H666.502V45.2955C666.502 45.8542 666.587 46.2898 666.757 46.6023C666.928 46.9053 667.164 47.1184 667.467 47.2415C667.78 47.3646 668.14 47.4261 668.547 47.4261C668.831 47.4261 669.115 47.4025 669.399 47.3551C669.683 47.2983 669.901 47.2557 670.053 47.2273L671.004 51.7301C670.701 51.8248 670.275 51.9337 669.726 52.0568C669.177 52.1894 668.509 52.2699 667.723 52.2983C666.265 52.3551 664.986 52.161 663.888 51.7159C662.799 51.2708 661.951 50.5795 661.345 49.642C660.739 48.7045 660.441 47.5208 660.45 46.0909V24.9545ZM692.428 36.4034L686.889 36.7443C686.794 36.2708 686.59 35.8447 686.278 35.4659C685.965 35.0777 685.553 34.7699 685.042 34.5426C684.54 34.3059 683.939 34.1875 683.238 34.1875C682.301 34.1875 681.51 34.3864 680.866 34.7841C680.222 35.1723 679.9 35.6932 679.9 36.3466C679.9 36.8674 680.108 37.3078 680.525 37.6676C680.942 38.0275 681.657 38.3163 682.67 38.5341L686.619 39.3295C688.74 39.7652 690.321 40.4659 691.363 41.4318C692.405 42.3977 692.926 43.6667 692.926 45.2386C692.926 46.6686 692.504 47.9233 691.661 49.0028C690.828 50.0824 689.682 50.9252 688.224 51.5312C686.775 52.1278 685.104 52.4261 683.21 52.4261C680.321 52.4261 678.02 51.8248 676.306 50.6222C674.602 49.41 673.603 47.7623 673.309 45.679L679.261 45.3665C679.441 46.2472 679.876 46.9195 680.568 47.3835C681.259 47.8381 682.144 48.0653 683.224 48.0653C684.284 48.0653 685.137 47.8617 685.781 47.4545C686.434 47.0379 686.766 46.5028 686.775 45.8494C686.766 45.3002 686.534 44.8504 686.079 44.5C685.624 44.1402 684.924 43.8655 683.977 43.6761L680.198 42.9233C678.068 42.4972 676.481 41.7585 675.44 40.7074C674.408 39.6562 673.891 38.3163 673.891 36.6875C673.891 35.286 674.27 34.0786 675.028 33.0653C675.795 32.0521 676.87 31.2708 678.252 30.7216C679.644 30.1723 681.273 29.8977 683.139 29.8977C685.894 29.8977 688.063 30.4801 689.644 31.6449C691.235 32.8097 692.163 34.3958 692.428 36.4034Z" fill="white"/>
<mask id="path-15-inside-1_285_87" fill="white">
<path d="M864.821 700.826C823.639 919.893 613.429 1064.24 395.304 1023.23C177.179 982.229 33.7382 771.399 74.9205 552.333C116.103 333.266 326.313 188.919 544.438 229.924C762.563 270.93 906.003 481.76 864.821 700.826ZM199.839 575.816C171.682 725.594 269.754 869.741 418.888 897.777C568.023 925.813 711.746 827.121 739.902 677.343C768.059 527.565 669.988 383.418 520.853 355.382C371.719 327.347 227.996 426.038 199.839 575.816Z"/>
</mask>
<path d="M864.821 700.826C823.639 919.893 613.429 1064.24 395.304 1023.23C177.179 982.229 33.7382 771.399 74.9205 552.333C116.103 333.266 326.313 188.919 544.438 229.924C762.563 270.93 906.003 481.76 864.821 700.826ZM199.839 575.816C171.682 725.594 269.754 869.741 418.888 897.777C568.023 925.813 711.746 827.121 739.902 677.343C768.059 527.565 669.988 383.418 520.853 355.382C371.719 327.347 227.996 426.038 199.839 575.816Z" stroke="white" stroke-width="4" mask="url(#path-15-inside-1_285_87)"/>
<line y1="-1" x2="126" y2="-1" transform="matrix(-0.982785 -0.184754 -0.184754 0.982785 865.006 701.264)" stroke="white" stroke-width="2"/>
<line y1="-1" x2="126" y2="-1" transform="matrix(-0.634099 -0.773252 -0.773252 0.634099 724.728 937.867)" stroke="white" stroke-width="2"/>
<line y1="-1" x2="126" y2="-1" transform="matrix(0.0112882 -0.999936 -0.999936 -0.0112882 465.367 1028.96)" stroke="white" stroke-width="2"/>
<line y1="-1" x2="126" y2="-1" transform="matrix(0.651394 -0.75874 -0.75874 -0.651394 208.128 932.037)" stroke="white" stroke-width="2"/>
<line y1="-1" x2="126" y2="-1" transform="matrix(0.986705 -0.16252 -0.16252 -0.986705 73.3763 692.434)" stroke="white" stroke-width="2"/>
<line y1="-1" x2="126" y2="-1" transform="matrix(0.860326 0.509744 0.509744 -0.860326 124.164 422.271)" stroke="white" stroke-width="2"/>
<line y1="-1" x2="126" y2="-1" transform="matrix(0.331391 0.943494 0.943494 -0.331391 336.727 247.961)" stroke="white" stroke-width="2"/>
<line y1="-1" x2="126" y2="-1" transform="matrix(-0.352606 0.935772 0.935772 0.352606 611.605 251.062)" stroke="white" stroke-width="2"/>
<line y1="-1" x2="126" y2="-1" transform="matrix(-0.871614 0.490192 0.490192 0.871614 820.179 430.127)" stroke="white" stroke-width="2"/>
</svg>
