<svg width="1081" height="217" viewBox="0 0 1081 217" fill="none" xmlns="http://www.w3.org/2000/svg">
<rect x="1" y="96" width="1079" height="120" rx="26" stroke="#DBDBDB" stroke-width="2"/>
<line x1="121" y1="95" x2="121" y2="217" stroke="#DBDBDB" stroke-width="2"/>
<line x1="241" y1="95" x2="241" y2="217" stroke="#DBDBDB" stroke-width="2"/>
<line x1="361" y1="95" x2="361" y2="217" stroke="#DBDBDB" stroke-width="2"/>
<line x1="482" y1="95" x2="482" y2="217" stroke="#DBDBDB" stroke-width="2"/>
<line x1="602" y1="95" x2="602" y2="217" stroke="#DBDBDB" stroke-width="2"/>
<line x1="722" y1="95" x2="722" y2="217" stroke="#DBDBDB" stroke-width="2"/>
<line x1="842" y1="95" x2="842" y2="217" stroke="#DBDBDB" stroke-width="2"/>
<line x1="962" y1="95" x2="962" y2="217" stroke="#DBDBDB" stroke-width="2"/>
<path d="M47.6999 170.398C46.0333 170.398 44.5323 170.066 43.1971 169.403C41.8619 168.741 40.7918 167.831 39.9869 166.676C39.1819 165.521 38.7416 164.205 38.6658 162.727H42.0749C42.2075 164.044 42.8041 165.133 43.8647 165.994C44.9348 166.847 46.2132 167.273 47.6999 167.273C48.8931 167.273 49.9537 166.993 50.8817 166.435C51.8192 165.876 52.5531 165.109 53.0835 164.134C53.6232 163.149 53.8931 162.036 53.8931 160.795C53.8931 159.527 53.6138 158.395 53.055 157.401C52.5058 156.397 51.7482 155.606 50.7823 155.028C49.8164 154.451 48.7132 154.157 47.4727 154.148C46.5825 154.138 45.6687 154.276 44.7312 154.56C43.7937 154.834 43.0219 155.189 42.4158 155.625L39.1204 155.227L40.8817 140.909H55.9954V144.034H43.8363L42.8136 152.614H42.984C43.5806 152.14 44.3287 151.747 45.2283 151.435C46.128 151.122 47.0655 150.966 48.0408 150.966C49.8211 150.966 51.4073 151.392 52.7994 152.244C54.2009 153.087 55.2994 154.242 56.0948 155.71C56.8997 157.178 57.3022 158.854 57.3022 160.739C57.3022 162.595 56.8855 164.252 56.0522 165.71C55.2283 167.159 54.092 168.305 52.6431 169.148C51.1942 169.981 49.5465 170.398 47.6999 170.398ZM72.7745 170.398C70.8995 170.398 69.2281 170.076 67.7603 169.432C66.302 168.788 65.1419 167.893 64.2802 166.747C63.4279 165.592 62.9639 164.252 62.8881 162.727H66.4677C66.5434 163.665 66.8654 164.474 67.4336 165.156C68.0018 165.829 68.7451 166.349 69.6637 166.719C70.5823 167.088 71.6003 167.273 72.7177 167.273C73.9677 167.273 75.0756 167.055 76.0415 166.619C77.0075 166.184 77.765 165.578 78.3143 164.801C78.8635 164.025 79.1381 163.125 79.1381 162.102C79.1381 161.032 78.873 160.09 78.3427 159.276C77.8124 158.452 77.0359 157.808 76.0131 157.344C74.9904 156.88 73.7404 156.648 72.2631 156.648H69.9336V153.523H72.2631C73.4184 153.523 74.4317 153.314 75.3029 152.898C76.1836 152.481 76.8701 151.894 77.3626 151.136C77.8645 150.379 78.1154 149.489 78.1154 148.466C78.1154 147.481 77.8976 146.624 77.462 145.895C77.0264 145.166 76.4109 144.598 75.6154 144.19C74.8294 143.783 73.9014 143.58 72.8313 143.58C71.8275 143.58 70.8806 143.764 69.9904 144.134C69.1097 144.493 68.39 145.019 67.8313 145.71C67.2726 146.392 66.9696 147.216 66.9222 148.182H63.5131C63.57 146.657 64.0292 145.322 64.891 144.176C65.7527 143.021 66.8796 142.121 68.2717 141.477C69.6732 140.833 71.212 140.511 72.8881 140.511C74.6874 140.511 76.2309 140.876 77.5188 141.605C78.8067 142.325 79.7963 143.277 80.4876 144.46C81.1789 145.644 81.5245 146.922 81.5245 148.295C81.5245 149.934 81.0936 151.33 80.2319 152.486C79.3796 153.641 78.2196 154.441 76.7518 154.886V155.114C78.5889 155.417 80.0236 156.198 81.0558 157.457C82.088 158.707 82.604 160.256 82.604 162.102C82.604 163.684 82.1732 165.104 81.3114 166.364C80.4592 167.614 79.2944 168.598 77.8171 169.318C76.3398 170.038 74.659 170.398 72.7745 170.398Z" fill="white"/>
<path d="M167.522 170.398C166.329 170.379 165.136 170.152 163.942 169.716C162.749 169.28 161.66 168.546 160.675 167.514C159.691 166.473 158.9 165.066 158.303 163.295C157.707 161.515 157.408 159.28 157.408 156.591C157.408 154.015 157.65 151.733 158.133 149.744C158.616 147.746 159.317 146.065 160.235 144.702C161.154 143.329 162.262 142.287 163.559 141.577C164.866 140.866 166.338 140.511 167.977 140.511C169.605 140.511 171.054 140.838 172.323 141.491C173.602 142.135 174.643 143.035 175.448 144.19C176.253 145.346 176.774 146.676 177.011 148.182H173.545C173.223 146.875 172.598 145.791 171.67 144.929C170.742 144.067 169.511 143.636 167.977 143.636C165.723 143.636 163.947 144.616 162.65 146.577C161.362 148.537 160.713 151.288 160.704 154.83H160.931C161.461 154.025 162.091 153.338 162.82 152.77C163.559 152.192 164.373 151.747 165.263 151.435C166.154 151.122 167.096 150.966 168.09 150.966C169.757 150.966 171.281 151.383 172.664 152.216C174.047 153.04 175.155 154.181 175.988 155.639C176.821 157.088 177.238 158.75 177.238 160.625C177.238 162.424 176.835 164.072 176.031 165.568C175.226 167.055 174.094 168.239 172.636 169.119C171.187 169.991 169.482 170.417 167.522 170.398ZM167.522 167.273C168.715 167.273 169.785 166.974 170.732 166.378C171.689 165.781 172.442 164.981 172.991 163.977C173.549 162.973 173.829 161.856 173.829 160.625C173.829 159.422 173.559 158.329 173.019 157.344C172.489 156.349 171.755 155.559 170.817 154.972C169.889 154.384 168.829 154.091 167.636 154.091C166.736 154.091 165.898 154.271 165.121 154.631C164.345 154.981 163.663 155.464 163.076 156.08C162.498 156.695 162.044 157.401 161.712 158.196C161.381 158.982 161.215 159.811 161.215 160.682C161.215 161.837 161.485 162.917 162.025 163.92C162.574 164.924 163.322 165.734 164.269 166.349C165.226 166.965 166.31 167.273 167.522 167.273ZM191.915 170.398C190.248 170.398 188.747 170.066 187.412 169.403C186.077 168.741 185.007 167.831 184.202 166.676C183.397 165.521 182.956 164.205 182.881 162.727H186.29C186.422 164.044 187.019 165.133 188.08 165.994C189.15 166.847 190.428 167.273 191.915 167.273C193.108 167.273 194.169 166.993 195.097 166.435C196.034 165.876 196.768 165.109 197.298 164.134C197.838 163.149 198.108 162.036 198.108 160.795C198.108 159.527 197.829 158.395 197.27 157.401C196.721 156.397 195.963 155.606 194.997 155.028C194.031 154.451 192.928 154.157 191.688 154.148C190.797 154.138 189.884 154.276 188.946 154.56C188.009 154.834 187.237 155.189 186.631 155.625L183.335 155.227L185.097 140.909H200.21V144.034H188.051L187.028 152.614H187.199C187.795 152.14 188.544 151.747 189.443 151.435C190.343 151.122 191.28 150.966 192.256 150.966C194.036 150.966 195.622 151.392 197.014 152.244C198.416 153.087 199.514 154.242 200.31 155.71C201.115 157.178 201.517 158.854 201.517 160.739C201.517 162.595 201.1 164.252 200.267 165.71C199.443 167.159 198.307 168.305 196.858 169.148C195.409 169.981 193.761 170.398 191.915 170.398Z" fill="white"/>
<path d="M435.587 47V17.9091H454.848V22.9801H441.738V29.9119H453.57V34.983H441.738V47H435.587ZM458.872 47V25.1818H464.923V47H458.872ZM461.912 22.3693C461.012 22.3693 460.24 22.071 459.596 21.4744C458.962 20.8684 458.645 20.1439 458.645 19.3011C458.645 18.4678 458.962 17.7528 459.596 17.1562C460.24 16.5502 461.012 16.2472 461.912 16.2472C462.811 16.2472 463.578 16.5502 464.213 17.1562C464.857 17.7528 465.179 18.4678 465.179 19.3011C465.179 20.1439 464.857 20.8684 464.213 21.4744C463.578 22.071 462.811 22.3693 461.912 22.3693ZM475.821 34.3864V47H469.77V25.1818H475.537V29.0312H475.793C476.276 27.7623 477.086 26.7585 478.222 26.0199C479.358 25.2718 480.736 24.8977 482.355 24.8977C483.871 24.8977 485.192 25.2292 486.319 25.892C487.445 26.5549 488.321 27.5019 488.946 28.733C489.571 29.9545 489.884 31.4129 489.884 33.108V47H483.833V34.1875C483.842 32.8523 483.501 31.8106 482.81 31.0625C482.119 30.3049 481.167 29.9261 479.955 29.9261C479.141 29.9261 478.421 30.1013 477.796 30.4517C477.18 30.8021 476.697 31.3134 476.347 31.9858C476.006 32.6487 475.831 33.4489 475.821 34.3864ZM500.875 47.4119C499.483 47.4119 498.242 47.1705 497.153 46.6875C496.064 46.1951 495.202 45.4706 494.568 44.5142C493.943 43.5483 493.63 42.3456 493.63 40.9062C493.63 39.6941 493.853 38.6761 494.298 37.8523C494.743 37.0284 495.349 36.3655 496.116 35.8636C496.883 35.3617 497.754 34.983 498.73 34.7273C499.715 34.4716 500.747 34.2917 501.826 34.1875C503.095 34.0549 504.118 33.9318 504.895 33.8182C505.671 33.6951 506.234 33.5152 506.585 33.2784C506.935 33.0417 507.11 32.6913 507.11 32.2273V32.142C507.11 31.2424 506.826 30.5464 506.258 30.054C505.699 29.5616 504.904 29.3153 503.872 29.3153C502.783 29.3153 501.916 29.5568 501.272 30.0398C500.628 30.5133 500.202 31.1098 499.994 31.8295L494.397 31.375C494.681 30.0492 495.24 28.9034 496.074 27.9375C496.907 26.9621 497.982 26.214 499.298 25.6932C500.624 25.1629 502.158 24.8977 503.9 24.8977C505.112 24.8977 506.272 25.0398 507.38 25.3239C508.498 25.608 509.487 26.0483 510.349 26.6449C511.22 27.2415 511.907 28.0085 512.409 28.946C512.911 29.8741 513.162 30.9867 513.162 32.2841V47H507.423V43.9744H507.252C506.902 44.6562 506.433 45.2576 505.846 45.7784C505.259 46.2898 504.554 46.6922 503.73 46.9858C502.906 47.2699 501.954 47.4119 500.875 47.4119ZM502.608 43.2358C503.498 43.2358 504.284 43.0606 504.966 42.7102C505.647 42.3504 506.182 41.8674 506.571 41.2614C506.959 40.6553 507.153 39.9687 507.153 39.2017V36.8864C506.964 37.0095 506.703 37.1231 506.372 37.2273C506.05 37.322 505.685 37.4119 505.278 37.4972C504.871 37.5729 504.464 37.6439 504.056 37.7102C503.649 37.767 503.28 37.8191 502.949 37.8665C502.238 37.9706 501.618 38.1364 501.088 38.3636C500.557 38.5909 500.145 38.8987 499.852 39.2869C499.558 39.6657 499.412 40.1392 499.412 40.7074C499.412 41.5312 499.71 42.161 500.306 42.5966C500.913 43.0227 501.68 43.2358 502.608 43.2358ZM523.907 17.9091V47H517.856V17.9091H523.907ZM564.859 32.4545C564.859 35.6269 564.258 38.3258 563.055 40.5511C561.862 42.7765 560.233 44.4763 558.169 45.6506C556.114 46.8153 553.803 47.3977 551.237 47.3977C548.652 47.3977 546.332 46.8106 544.277 45.6364C542.222 44.4621 540.598 42.7623 539.404 40.5369C538.211 38.3116 537.615 35.6174 537.615 32.4545C537.615 29.2822 538.211 26.5833 539.404 24.358C540.598 22.1326 542.222 20.4375 544.277 19.2727C546.332 18.0985 548.652 17.5114 551.237 17.5114C553.803 17.5114 556.114 18.0985 558.169 19.2727C560.233 20.4375 561.862 22.1326 563.055 24.358C564.258 26.5833 564.859 29.2822 564.859 32.4545ZM558.623 32.4545C558.623 30.3996 558.315 28.6667 557.7 27.2557C557.094 25.8447 556.237 24.7746 555.129 24.0455C554.021 23.3163 552.724 22.9517 551.237 22.9517C549.75 22.9517 548.453 23.3163 547.345 24.0455C546.237 24.7746 545.375 25.8447 544.76 27.2557C544.154 28.6667 543.85 30.3996 543.85 32.4545C543.85 34.5095 544.154 36.2424 544.76 37.6534C545.375 39.0644 546.237 40.1345 547.345 40.8636C548.453 41.5928 549.75 41.9574 551.237 41.9574C552.724 41.9574 554.021 41.5928 555.129 40.8636C556.237 40.1345 557.094 39.0644 557.7 37.6534C558.315 36.2424 558.623 34.5095 558.623 32.4545ZM569.301 47V25.1818H575.168V28.9886H575.395C575.793 27.6345 576.461 26.6117 577.398 25.9205C578.336 25.2197 579.415 24.8693 580.637 24.8693C580.94 24.8693 581.266 24.8883 581.617 24.9261C581.967 24.964 582.275 25.0161 582.54 25.0824V30.4517C582.256 30.3665 581.863 30.2907 581.361 30.2244C580.859 30.1581 580.4 30.125 579.983 30.125C579.093 30.125 578.298 30.3191 577.597 30.7074C576.906 31.0862 576.356 31.6165 575.949 32.2983C575.551 32.9801 575.353 33.7661 575.353 34.6562V47H569.301ZM592.693 47.3551C591.036 47.3551 589.535 46.929 588.19 46.0767C586.855 45.215 585.794 43.9508 585.008 42.2841C584.232 40.608 583.843 38.553 583.843 36.1193C583.843 33.6193 584.246 31.5407 585.051 29.8835C585.856 28.2169 586.926 26.9716 588.261 26.1477C589.606 25.3144 591.078 24.8977 592.679 24.8977C593.9 24.8977 594.918 25.1061 595.733 25.5227C596.556 25.9299 597.219 26.4413 597.721 27.0568C598.233 27.6629 598.621 28.2595 598.886 28.8466H599.071V17.9091H605.108V47H599.142V43.5057H598.886C598.602 44.1117 598.199 44.7131 597.679 45.3097C597.167 45.8968 596.5 46.3845 595.676 46.7727C594.861 47.161 593.867 47.3551 592.693 47.3551ZM594.61 42.5398C595.586 42.5398 596.41 42.2746 597.082 41.7443C597.764 41.2045 598.285 40.4517 598.645 39.4858C599.014 38.5199 599.199 37.3883 599.199 36.0909C599.199 34.7936 599.019 33.6667 598.659 32.7102C598.299 31.7538 597.778 31.0152 597.096 30.4943C596.414 29.9735 595.586 29.7131 594.61 29.7131C593.616 29.7131 592.778 29.983 592.096 30.5227C591.414 31.0625 590.898 31.8106 590.548 32.767C590.198 33.7235 590.022 34.8314 590.022 36.0909C590.022 37.3598 590.198 38.482 590.548 39.4574C590.908 40.4233 591.424 41.1809 592.096 41.7301C592.778 42.2699 593.616 42.5398 594.61 42.5398ZM620.026 47.4261C617.782 47.4261 615.85 46.9716 614.23 46.0625C612.621 45.1439 611.38 43.8466 610.509 42.1705C609.638 40.4848 609.202 38.4915 609.202 36.1903C609.202 33.946 609.638 31.9763 610.509 30.2812C611.38 28.5862 612.606 27.2652 614.188 26.3182C615.779 25.3712 617.644 24.8977 619.784 24.8977C621.224 24.8977 622.564 25.1297 623.804 25.5938C625.054 26.0483 626.143 26.7348 627.071 27.6534C628.009 28.572 628.738 29.7273 629.259 31.1193C629.78 32.5019 630.04 34.1212 630.04 35.9773V37.6392H611.617V33.8892H624.344C624.344 33.018 624.155 32.2462 623.776 31.5739C623.397 30.9015 622.872 30.3759 622.199 29.9972C621.536 29.6089 620.765 29.4148 619.884 29.4148C618.965 29.4148 618.151 29.6278 617.441 30.054C616.74 30.4706 616.191 31.0341 615.793 31.7443C615.395 32.4451 615.192 33.2263 615.182 34.0881V37.6534C615.182 38.733 615.381 39.6657 615.779 40.4517C616.186 41.2377 616.759 41.8438 617.498 42.2699C618.236 42.696 619.112 42.9091 620.125 42.9091C620.798 42.9091 621.413 42.8144 621.972 42.625C622.531 42.4356 623.009 42.1515 623.407 41.7727C623.804 41.3939 624.107 40.9299 624.316 40.3807L629.912 40.75C629.628 42.0947 629.046 43.2689 628.165 44.2727C627.294 45.267 626.167 46.0436 624.784 46.6023C623.411 47.1515 621.825 47.4261 620.026 47.4261ZM633.989 47V25.1818H639.855V28.9886H640.083C640.48 27.6345 641.148 26.6117 642.086 25.9205C643.023 25.2197 644.103 24.8693 645.324 24.8693C645.627 24.8693 645.954 24.8883 646.304 24.9261C646.655 24.964 646.962 25.0161 647.228 25.0824V30.4517C646.944 30.3665 646.551 30.2907 646.049 30.2244C645.547 30.1581 645.087 30.125 644.671 30.125C643.781 30.125 642.985 30.3191 642.284 30.7074C641.593 31.0862 641.044 31.6165 640.637 32.2983C640.239 32.9801 640.04 33.7661 640.04 34.6562V47H633.989Z" fill="white"/>
<path d="M288.264 170.398C287.071 170.379 285.878 170.152 284.685 169.716C283.491 169.28 282.402 168.546 281.418 167.514C280.433 166.473 279.642 165.066 279.045 163.295C278.449 161.515 278.151 159.28 278.151 156.591C278.151 154.015 278.392 151.733 278.875 149.744C279.358 147.746 280.059 146.065 280.977 144.702C281.896 143.329 283.004 142.287 284.301 141.577C285.608 140.866 287.08 140.511 288.719 140.511C290.348 140.511 291.796 140.838 293.065 141.491C294.344 142.135 295.385 143.035 296.19 144.19C296.995 145.346 297.516 146.676 297.753 148.182H294.287C293.965 146.875 293.34 145.791 292.412 144.929C291.484 144.067 290.253 143.636 288.719 143.636C286.465 143.636 284.689 144.616 283.392 146.577C282.104 148.537 281.455 151.288 281.446 154.83H281.673C282.204 154.025 282.833 153.338 283.562 152.77C284.301 152.192 285.116 151.747 286.006 151.435C286.896 151.122 287.838 150.966 288.832 150.966C290.499 150.966 292.024 151.383 293.406 152.216C294.789 153.04 295.897 154.181 296.73 155.639C297.563 157.088 297.98 158.75 297.98 160.625C297.98 162.424 297.578 164.072 296.773 165.568C295.968 167.055 294.836 168.239 293.378 169.119C291.929 169.991 290.224 170.417 288.264 170.398ZM288.264 167.273C289.457 167.273 290.527 166.974 291.474 166.378C292.431 165.781 293.184 164.981 293.733 163.977C294.292 162.973 294.571 161.856 294.571 160.625C294.571 159.422 294.301 158.329 293.761 157.344C293.231 156.349 292.497 155.559 291.56 154.972C290.632 154.384 289.571 154.091 288.378 154.091C287.478 154.091 286.64 154.271 285.864 154.631C285.087 154.981 284.405 155.464 283.818 156.08C283.241 156.695 282.786 157.401 282.455 158.196C282.123 158.982 281.957 159.811 281.957 160.682C281.957 161.837 282.227 162.917 282.767 163.92C283.316 164.924 284.064 165.734 285.011 166.349C285.968 166.965 287.052 167.273 288.264 167.273ZM304.475 170L317.487 144.261V144.034H302.487V140.909H321.123V144.205L308.168 170H304.475Z" fill="white"/>
<path d="M408.181 170.398C406.306 170.398 404.634 170.076 403.167 169.432C401.708 168.788 400.548 167.893 399.686 166.747C398.834 165.592 398.37 164.252 398.294 162.727H401.874C401.95 163.665 402.272 164.474 402.84 165.156C403.408 165.829 404.151 166.349 405.07 166.719C405.989 167.088 407.007 167.273 408.124 167.273C409.374 167.273 410.482 167.055 411.448 166.619C412.414 166.184 413.171 165.578 413.721 164.801C414.27 164.025 414.544 163.125 414.544 162.102C414.544 161.032 414.279 160.09 413.749 159.276C413.219 158.452 412.442 157.808 411.419 157.344C410.397 156.88 409.147 156.648 407.669 156.648H405.34V153.523H407.669C408.825 153.523 409.838 153.314 410.709 152.898C411.59 152.481 412.276 151.894 412.769 151.136C413.271 150.379 413.522 149.489 413.522 148.466C413.522 147.481 413.304 146.624 412.868 145.895C412.433 145.166 411.817 144.598 411.022 144.19C410.236 143.783 409.308 143.58 408.238 143.58C407.234 143.58 406.287 143.764 405.397 144.134C404.516 144.493 403.796 145.019 403.238 145.71C402.679 146.392 402.376 147.216 402.328 148.182H398.919C398.976 146.657 399.435 145.322 400.297 144.176C401.159 143.021 402.286 142.121 403.678 141.477C405.079 140.833 406.618 140.511 408.294 140.511C410.094 140.511 411.637 140.876 412.925 141.605C414.213 142.325 415.203 143.277 415.894 144.46C416.585 145.644 416.931 146.922 416.931 148.295C416.931 149.934 416.5 151.33 415.638 152.486C414.786 153.641 413.626 154.441 412.158 154.886V155.114C413.995 155.417 415.43 156.198 416.462 157.457C417.494 158.707 418.01 160.256 418.01 162.102C418.01 163.684 417.579 165.104 416.718 166.364C415.865 167.614 414.701 168.598 413.223 169.318C411.746 170.038 410.065 170.398 408.181 170.398ZM424.729 170L437.74 144.261V144.034H422.74V140.909H441.377V144.205L428.422 170H424.729Z" fill="white"/>
<path d="M531.61 140.909V170H528.087V144.602H527.917L520.814 149.318V145.739L528.087 140.909H531.61ZM539.294 164.034V161.136L552.078 140.909H554.181V145.398H552.76L543.101 160.682V160.909H560.317V164.034H539.294ZM552.988 170V163.153V161.804V140.909H556.34V170H552.988Z" fill="white"/>
<path d="M647.968 140.511C649.161 140.521 650.354 140.748 651.548 141.193C652.741 141.638 653.83 142.377 654.815 143.409C655.799 144.432 656.59 145.829 657.187 147.599C657.783 149.37 658.082 151.591 658.082 154.261C658.082 156.847 657.835 159.143 657.343 161.151C656.86 163.149 656.159 164.834 655.241 166.207C654.332 167.58 653.224 168.622 651.917 169.332C650.62 170.043 649.152 170.398 647.513 170.398C645.885 170.398 644.431 170.076 643.153 169.432C641.884 168.778 640.842 167.874 640.028 166.719C639.223 165.554 638.707 164.205 638.479 162.67H641.945C642.258 164.006 642.878 165.109 643.806 165.98C644.744 166.842 645.979 167.273 647.513 167.273C649.758 167.273 651.529 166.293 652.826 164.332C654.133 162.372 654.786 159.602 654.786 156.023H654.559C654.029 156.818 653.399 157.505 652.67 158.082C651.941 158.66 651.131 159.105 650.241 159.418C649.351 159.73 648.404 159.886 647.4 159.886C645.733 159.886 644.204 159.474 642.812 158.651C641.429 157.817 640.321 156.676 639.488 155.227C638.664 153.769 638.252 152.102 638.252 150.227C638.252 148.447 638.65 146.818 639.445 145.341C640.25 143.854 641.377 142.67 642.826 141.79C644.284 140.909 645.998 140.483 647.968 140.511ZM647.968 143.636C646.775 143.636 645.7 143.935 644.744 144.531C643.797 145.118 643.044 145.914 642.485 146.918C641.936 147.912 641.661 149.015 641.661 150.227C641.661 151.439 641.926 152.543 642.457 153.537C642.996 154.522 643.73 155.308 644.658 155.895C645.596 156.473 646.661 156.761 647.854 156.761C648.754 156.761 649.592 156.586 650.369 156.236C651.145 155.876 651.822 155.388 652.4 154.773C652.987 154.148 653.446 153.442 653.778 152.656C654.109 151.861 654.275 151.032 654.275 150.17C654.275 149.034 654 147.969 653.451 146.974C652.911 145.98 652.163 145.175 651.207 144.56C650.26 143.944 649.18 143.636 647.968 143.636ZM672.986 170.398C671.035 170.398 669.312 170.052 667.815 169.361C666.329 168.66 665.169 167.699 664.335 166.477C663.502 165.246 663.09 163.845 663.099 162.273C663.09 161.042 663.331 159.905 663.824 158.864C664.316 157.812 664.989 156.937 665.841 156.236C666.703 155.526 667.664 155.076 668.724 154.886V154.716C667.332 154.356 666.224 153.575 665.401 152.372C664.577 151.16 664.17 149.782 664.179 148.239C664.17 146.761 664.544 145.44 665.301 144.276C666.059 143.111 667.1 142.192 668.426 141.52C669.761 140.848 671.281 140.511 672.986 140.511C674.671 140.511 676.177 140.848 677.503 141.52C678.829 142.192 679.87 143.111 680.628 144.276C681.395 145.44 681.783 146.761 681.793 148.239C681.783 149.782 681.362 151.16 680.528 152.372C679.705 153.575 678.611 154.356 677.247 154.716V154.886C678.298 155.076 679.245 155.526 680.088 156.236C680.931 156.937 681.603 157.812 682.105 158.864C682.607 159.905 682.863 161.042 682.872 162.273C682.863 163.845 682.437 165.246 681.594 166.477C680.76 167.699 679.6 168.66 678.114 169.361C676.636 170.052 674.927 170.398 672.986 170.398ZM672.986 167.273C674.302 167.273 675.438 167.06 676.395 166.634C677.351 166.207 678.09 165.606 678.611 164.83C679.132 164.053 679.397 163.144 679.406 162.102C679.397 161.004 679.113 160.033 678.554 159.19C677.995 158.348 677.233 157.685 676.267 157.202C675.311 156.719 674.217 156.477 672.986 156.477C671.745 156.477 670.637 156.719 669.662 157.202C668.696 157.685 667.934 158.348 667.375 159.19C666.826 160.033 666.556 161.004 666.565 162.102C666.556 163.144 666.807 164.053 667.318 164.83C667.839 165.606 668.582 166.207 669.548 166.634C670.514 167.06 671.66 167.273 672.986 167.273ZM672.986 153.466C674.027 153.466 674.951 153.258 675.756 152.841C676.57 152.424 677.209 151.842 677.673 151.094C678.137 150.346 678.374 149.47 678.384 148.466C678.374 147.481 678.142 146.624 677.688 145.895C677.233 145.156 676.603 144.588 675.798 144.19C674.993 143.783 674.056 143.58 672.986 143.58C671.897 143.58 670.945 143.783 670.131 144.19C669.316 144.588 668.687 145.156 668.241 145.895C667.796 146.624 667.579 147.481 667.588 148.466C667.579 149.47 667.801 150.346 668.256 151.094C668.72 151.842 669.359 152.424 670.173 152.841C670.988 153.258 671.925 153.466 672.986 153.466Z" fill="white"/>
<path d="M760.223 140.909V170H756.7V144.602H756.53L749.428 149.318V145.739L756.7 140.909H760.223ZM768.589 170V167.443L778.192 156.932C779.319 155.701 780.247 154.631 780.976 153.722C781.705 152.803 782.245 151.941 782.595 151.136C782.955 150.322 783.135 149.47 783.135 148.58C783.135 147.557 782.889 146.671 782.396 145.923C781.913 145.175 781.25 144.598 780.408 144.19C779.565 143.783 778.618 143.58 777.567 143.58C776.449 143.58 775.474 143.812 774.641 144.276C773.817 144.73 773.178 145.369 772.723 146.193C772.278 147.017 772.055 147.983 772.055 149.091H768.703C768.703 147.386 769.096 145.89 769.882 144.602C770.668 143.314 771.738 142.311 773.092 141.591C774.456 140.871 775.985 140.511 777.68 140.511C779.385 140.511 780.895 140.871 782.212 141.591C783.528 142.311 784.56 143.281 785.308 144.503C786.056 145.724 786.43 147.083 786.43 148.58C786.43 149.65 786.236 150.696 785.848 151.719C785.469 152.732 784.806 153.864 783.859 155.114C782.922 156.354 781.62 157.869 779.953 159.659L773.419 166.648V166.875H786.942V170H768.589ZM792.808 170V167.443L802.411 156.932C803.537 155.701 804.465 154.631 805.195 153.722C805.924 152.803 806.464 151.941 806.814 151.136C807.174 150.322 807.354 149.47 807.354 148.58C807.354 147.557 807.107 146.671 806.615 145.923C806.132 145.175 805.469 144.598 804.626 144.19C803.784 143.783 802.837 143.58 801.786 143.58C800.668 143.58 799.693 143.812 798.859 144.276C798.036 144.73 797.396 145.369 796.942 146.193C796.497 147.017 796.274 147.983 796.274 149.091H792.922C792.922 147.386 793.315 145.89 794.101 144.602C794.887 143.314 795.957 142.311 797.311 141.591C798.675 140.871 800.204 140.511 801.899 140.511C803.604 140.511 805.114 140.871 806.43 141.591C807.747 142.311 808.779 143.281 809.527 144.503C810.275 145.724 810.649 147.083 810.649 148.58C810.649 149.65 810.455 150.696 810.067 151.719C809.688 152.732 809.025 153.864 808.078 155.114C807.141 156.354 805.839 157.869 804.172 159.659L797.638 166.648V166.875H811.161V170H792.808Z" fill="white"/>
<path d="M879.813 140.909V170H876.29V144.602H876.12L869.017 149.318V145.739L876.29 140.909H879.813ZM888.179 170V167.443L897.782 156.932C898.908 155.701 899.837 154.631 900.566 153.722C901.295 152.803 901.835 151.941 902.185 151.136C902.545 150.322 902.725 149.47 902.725 148.58C902.725 147.557 902.479 146.671 901.986 145.923C901.503 145.175 900.84 144.598 899.998 144.19C899.155 143.783 898.208 143.58 897.157 143.58C896.039 143.58 895.064 143.812 894.23 144.276C893.407 144.73 892.767 145.369 892.313 146.193C891.868 147.017 891.645 147.983 891.645 149.091H888.293C888.293 147.386 888.686 145.89 889.472 144.602C890.258 143.314 891.328 142.311 892.682 141.591C894.046 140.871 895.575 140.511 897.27 140.511C898.975 140.511 900.485 140.871 901.801 141.591C903.118 142.311 904.15 143.281 904.898 144.503C905.646 145.724 906.02 147.083 906.02 148.58C906.02 149.65 905.826 150.696 905.438 151.719C905.059 152.732 904.396 153.864 903.449 155.114C902.512 156.354 901.21 157.869 899.543 159.659L893.009 166.648V166.875H906.532V170H888.179ZM911.091 164.034V161.136L923.875 140.909H925.978V145.398H924.557L914.898 160.682V160.909H932.114V164.034H911.091ZM924.784 170V163.153V161.804V140.909H928.137V170H924.784Z" fill="white"/>
<path d="M999.383 140.909V170H995.86V144.602H995.69L988.588 149.318V145.739L995.86 140.909H999.383ZM1017.07 170.398C1015.12 170.398 1013.39 170.052 1011.9 169.361C1010.41 168.66 1009.25 167.699 1008.42 166.477C1007.58 165.246 1007.17 163.845 1007.18 162.273C1007.17 161.042 1007.41 159.905 1007.91 158.864C1008.4 157.812 1009.07 156.937 1009.92 156.236C1010.78 155.526 1011.75 155.076 1012.81 154.886V154.716C1011.41 154.356 1010.31 153.575 1009.48 152.372C1008.66 151.16 1008.25 149.782 1008.26 148.239C1008.25 146.761 1008.63 145.44 1009.38 144.276C1010.14 143.111 1011.18 142.192 1012.51 141.52C1013.84 140.848 1015.36 140.511 1017.07 140.511C1018.75 140.511 1020.26 140.848 1021.58 141.52C1022.91 142.192 1023.95 143.111 1024.71 144.276C1025.48 145.44 1025.87 146.761 1025.87 148.239C1025.87 149.782 1025.44 151.16 1024.61 152.372C1023.79 153.575 1022.69 154.356 1021.33 154.716V154.886C1022.38 155.076 1023.33 155.526 1024.17 156.236C1025.01 156.937 1025.69 157.812 1026.19 158.864C1026.69 159.905 1026.94 161.042 1026.95 162.273C1026.94 163.845 1026.52 165.246 1025.68 166.477C1024.84 167.699 1023.68 168.66 1022.2 169.361C1020.72 170.052 1019.01 170.398 1017.07 170.398ZM1017.07 167.273C1018.38 167.273 1019.52 167.06 1020.48 166.634C1021.43 166.207 1022.17 165.606 1022.69 164.83C1023.21 164.053 1023.48 163.144 1023.49 162.102C1023.48 161.004 1023.19 160.033 1022.64 159.19C1022.08 158.348 1021.31 157.685 1020.35 157.202C1019.39 156.719 1018.3 156.477 1017.07 156.477C1015.83 156.477 1014.72 156.719 1013.74 157.202C1012.78 157.685 1012.02 158.348 1011.46 159.19C1010.91 160.033 1010.64 161.004 1010.65 162.102C1010.64 163.144 1010.89 164.053 1011.4 164.83C1011.92 165.606 1012.66 166.207 1013.63 166.634C1014.6 167.06 1015.74 167.273 1017.07 167.273ZM1017.07 153.466C1018.11 153.466 1019.03 153.258 1019.84 152.841C1020.65 152.424 1021.29 151.842 1021.76 151.094C1022.22 150.346 1022.46 149.47 1022.47 148.466C1022.46 147.481 1022.22 146.624 1021.77 145.895C1021.31 145.156 1020.69 144.588 1019.88 144.19C1019.08 143.783 1018.14 143.58 1017.07 143.58C1015.98 143.58 1015.03 143.783 1014.21 144.19C1013.4 144.588 1012.77 145.156 1012.32 145.895C1011.88 146.624 1011.66 147.481 1011.67 148.466C1011.66 149.47 1011.88 150.346 1012.34 151.094C1012.8 151.842 1013.44 152.424 1014.26 152.841C1015.07 153.258 1016.01 153.466 1017.07 153.466ZM1042.23 170.398C1040.35 170.398 1038.68 170.076 1037.21 169.432C1035.76 168.788 1034.6 167.893 1033.73 166.747C1032.88 165.592 1032.42 164.252 1032.34 162.727H1035.92C1036 163.665 1036.32 164.474 1036.89 165.156C1037.45 165.829 1038.2 166.349 1039.12 166.719C1040.04 167.088 1041.05 167.273 1042.17 167.273C1043.42 167.273 1044.53 167.055 1045.49 166.619C1046.46 166.184 1047.22 165.578 1047.77 164.801C1048.32 164.025 1048.59 163.125 1048.59 162.102C1048.59 161.032 1048.33 160.09 1047.8 159.276C1047.27 158.452 1046.49 157.808 1045.47 157.344C1044.44 156.88 1043.19 156.648 1041.72 156.648H1039.39V153.523H1041.72C1042.87 153.523 1043.88 153.314 1044.76 152.898C1045.64 152.481 1046.32 151.894 1046.82 151.136C1047.32 150.379 1047.57 149.489 1047.57 148.466C1047.57 147.481 1047.35 146.624 1046.92 145.895C1046.48 145.166 1045.86 144.598 1045.07 144.19C1044.28 143.783 1043.35 143.58 1042.28 143.58C1041.28 143.58 1040.33 143.764 1039.44 144.134C1038.56 144.493 1037.84 145.019 1037.28 145.71C1036.73 146.392 1036.42 147.216 1036.38 148.182H1032.97C1033.02 146.657 1033.48 145.322 1034.34 144.176C1035.21 143.021 1036.33 142.121 1037.72 141.477C1039.13 140.833 1040.67 140.511 1042.34 140.511C1044.14 140.511 1045.68 140.876 1046.97 141.605C1048.26 142.325 1049.25 143.277 1049.94 144.46C1050.63 145.644 1050.98 146.922 1050.98 148.295C1050.98 149.934 1050.55 151.33 1049.69 152.486C1048.83 153.641 1047.67 154.441 1046.2 154.886V155.114C1048.04 155.417 1049.48 156.198 1050.51 157.457C1051.54 158.707 1052.06 160.256 1052.06 162.102C1052.06 163.684 1051.63 165.104 1050.76 166.364C1049.91 167.614 1048.75 168.598 1047.27 169.318C1045.79 170.038 1044.11 170.398 1042.23 170.398Z" fill="white"/>
</svg>
