<svg width="818" height="818" viewBox="0 0 818 818" fill="none" xmlns="http://www.w3.org/2000/svg">
<g clip-path="url(#clip0_221_296)">
<mask id="path-1-inside-1_221_296" fill="white">
<path d="M660.354 364.184C686.017 305.375 699.177 241.875 698.998 177.711L319.921 178.766C319.953 190.396 317.568 201.906 312.916 212.565L660.354 364.184Z"/>
</mask>
<path d="M660.354 364.184C686.017 305.375 699.177 241.875 698.998 177.711L319.921 178.766C319.953 190.396 317.568 201.906 312.916 212.565L660.354 364.184Z" fill="#00A6FF" stroke="white" stroke-width="6" mask="url(#path-1-inside-1_221_296)"/>
<mask id="path-2-inside-2_221_296" fill="white">
<path d="M660.354 364.184C686.005 305.404 699.164 241.936 698.998 177.804L364.341 178.668C364.387 196.446 360.739 214.039 353.629 230.332L660.354 364.184Z"/>
</mask>
<path d="M660.354 364.184C686.005 305.404 699.164 241.936 698.998 177.804L364.341 178.668C364.387 196.446 360.739 214.039 353.629 230.332L660.354 364.184Z" fill="#0097E9" stroke="white" stroke-width="6" mask="url(#path-2-inside-2_221_296)"/>
<mask id="path-3-inside-3_221_296" fill="white">
<path d="M660.354 364.184C686.005 305.404 699.164 241.936 698.998 177.804L421.311 178.521C421.378 204.19 416.111 229.592 405.844 253.118L660.354 364.184Z"/>
</mask>
<path d="M660.354 364.184C686.005 305.404 699.164 241.936 698.998 177.804L421.311 178.521C421.378 204.19 416.111 229.592 405.844 253.118L660.354 364.184Z" fill="#0087D0" stroke="white" stroke-width="6" mask="url(#path-3-inside-3_221_296)"/>
<mask id="path-4-inside-4_221_296" fill="white">
<path d="M660.354 364.184C686.005 305.404 699.164 241.936 698.998 177.804L477.096 178.377C477.182 211.773 470.33 244.822 456.973 275.43L660.354 364.184Z"/>
</mask>
<path d="M660.354 364.184C686.005 305.404 699.164 241.936 698.998 177.804L477.096 178.377C477.182 211.773 470.33 244.822 456.973 275.43L660.354 364.184Z" fill="#007ABC" stroke="white" stroke-width="6" mask="url(#path-4-inside-4_221_296)"/>
<mask id="path-5-inside-5_221_296" fill="white">
<path d="M660.354 364.184C686.005 305.404 699.164 241.936 698.998 177.804L537.084 178.222C537.192 219.927 528.635 261.2 511.954 299.424L660.354 364.184Z"/>
</mask>
<path d="M660.354 364.184C686.005 305.404 699.164 241.936 698.998 177.804L537.084 178.222C537.192 219.927 528.635 261.2 511.954 299.424L660.354 364.184Z" fill="#006AA3" stroke="white" stroke-width="6" mask="url(#path-5-inside-5_221_296)"/>
<mask id="path-6-inside-6_221_296" fill="white">
<path d="M660.354 364.184C686.005 305.404 699.164 241.936 698.998 177.804L589.08 178.088C589.206 226.995 579.171 275.395 559.61 320.22L660.354 364.184Z"/>
</mask>
<path d="M660.354 364.184C686.005 305.404 699.164 241.936 698.998 177.804L589.08 178.088C589.206 226.995 579.171 275.395 559.61 320.22L660.354 364.184Z" fill="#005684" stroke="white" stroke-width="6" mask="url(#path-6-inside-6_221_296)"/>
<mask id="path-7-inside-7_221_296" fill="white">
<path d="M660.354 364.184C686.005 305.404 699.164 241.936 698.998 177.804L640.751 177.954C640.896 234.019 629.392 289.502 606.968 340.887L660.354 364.184Z"/>
</mask>
<path d="M660.354 364.184C686.005 305.404 699.164 241.936 698.998 177.804L640.751 177.954C640.896 234.019 629.392 289.502 606.968 340.887L660.354 364.184Z" fill="#003A59" stroke="white" stroke-width="6" mask="url(#path-7-inside-7_221_296)"/>
<mask id="path-8-inside-8_221_296" fill="white">
<path d="M523.929 224.296L517.433 220.546C517.433 220.546 452.636 311.885 421.608 361.52C390.579 411.156 371.858 423.376 345.846 425.744C267.237 432.898 220.318 524.166 220.318 524.166L318.179 580.665L523.929 224.296Z"/>
</mask>
<path d="M523.929 224.296L517.433 220.546C517.433 220.546 452.636 311.885 421.608 361.52C390.579 411.156 371.858 423.376 345.846 425.744C267.237 432.898 220.318 524.166 220.318 524.166L318.179 580.665L523.929 224.296Z" fill="#E27C00"/>
<path d="M518.433 218.814C517.767 219.969 517.1 221.123 516.433 222.278C518.599 223.528 520.764 224.778 522.929 226.028L522.197 223.296C515.35 235.154 508.504 247.013 501.658 258.871C439.921 365.802 378.184 472.734 316.447 579.665L319.179 578.933C286.558 560.1 253.938 541.267 221.318 522.433L222.096 525.08C248.55 478.576 290.735 433.273 346.027 427.735C363.073 426.757 379.352 417.977 390.924 405.82C403.71 392.816 413.703 377.796 423.304 362.58C444.941 328.293 468.058 294.842 491.202 261.441C500.438 248.158 509.787 234.809 519.065 221.703C517.977 220.932 516.89 220.16 515.802 219.389C506.511 232.514 497.161 245.865 487.917 259.158C464.754 292.589 441.639 326.031 419.912 360.46C410.393 375.559 400.459 390.428 388.091 402.996C376.79 414.762 361.993 422.745 345.665 423.752C288.12 429.686 245.573 475.846 218.539 523.251L217.668 524.945L219.318 525.898C251.938 544.731 284.558 563.564 317.179 582.398L318.911 583.398L319.911 581.665C381.648 474.734 443.385 367.802 505.122 260.871C511.968 249.013 518.814 237.154 525.661 225.296L526.661 223.564L524.929 222.564C522.764 221.314 520.599 220.064 518.433 218.814ZM516.433 222.278L518.433 218.814L516.856 217.903L515.802 219.389L519.065 221.703L516.433 222.278Z" fill="black" mask="url(#path-8-inside-8_221_296)"/>
<circle cx="270.498" cy="550.251" r="54.5" transform="rotate(30 270.498 550.251)" fill="#E27C00" stroke="black" stroke-width="4"/>
<circle cx="270.498" cy="550.25" r="48" transform="rotate(30 270.498 550.25)" fill="#E27C00" stroke="black"/>
<circle cx="270.498" cy="550.251" r="40" transform="rotate(30 270.498 550.251)" fill="#E27C00" stroke="black"/>
<circle cx="270.681" cy="550.934" r="10.5" transform="rotate(30 270.681 550.934)" fill="#E27C00" stroke="black"/>
<path d="M312.401 614.645L342.384 613.797L341.074 643.763" stroke="#DBDBDB" stroke-width="4" stroke-linecap="round" stroke-linejoin="round"/>
<path d="M162.313 504.86L191.402 497.546L196.608 527.085" stroke="#DBDBDB" stroke-width="4" stroke-linecap="round" stroke-linejoin="round"/>
<path d="M80.4375 695.773V693.273H97.8921V695.773H90.5739V716.546H87.7557V695.773H80.4375ZM104.56 706.046V716.546H101.878V693.273H104.56V701.819H104.787C105.196 700.917 105.81 700.201 106.628 699.671C107.454 699.133 108.552 698.864 109.923 698.864C111.113 698.864 112.154 699.103 113.048 699.58C113.942 700.05 114.635 700.773 115.128 701.75C115.628 702.72 115.878 703.955 115.878 705.455V716.546H113.196V705.637C113.196 704.25 112.836 703.178 112.117 702.421C111.404 701.656 110.416 701.273 109.151 701.273C108.272 701.273 107.484 701.459 106.787 701.83C106.098 702.201 105.552 702.743 105.151 703.455C104.757 704.167 104.56 705.031 104.56 706.046ZM128.102 716.91C126.42 716.91 124.97 716.538 123.75 715.796C122.538 715.046 121.602 714 120.943 712.66C120.292 711.311 119.966 709.743 119.966 707.955C119.966 706.167 120.292 704.591 120.943 703.228C121.602 701.857 122.519 700.788 123.693 700.023C124.875 699.25 126.254 698.864 127.83 698.864C128.739 698.864 129.636 699.016 130.523 699.319C131.409 699.622 132.216 700.114 132.943 700.796C133.67 701.47 134.25 702.364 134.682 703.478C135.114 704.591 135.33 705.963 135.33 707.591V708.728H121.875V706.41H132.602C132.602 705.425 132.405 704.546 132.011 703.773C131.625 703 131.072 702.391 130.352 701.944C129.64 701.497 128.799 701.273 127.83 701.273C126.761 701.273 125.837 701.538 125.057 702.069C124.284 702.591 123.689 703.273 123.273 704.114C122.856 704.955 122.648 705.857 122.648 706.819V708.364C122.648 709.682 122.875 710.8 123.33 711.716C123.792 712.625 124.432 713.319 125.25 713.796C126.068 714.266 127.019 714.5 128.102 714.5C128.807 714.5 129.443 714.402 130.011 714.205C130.587 714 131.083 713.697 131.5 713.296C131.917 712.887 132.239 712.379 132.466 711.773L135.057 712.5C134.784 713.379 134.326 714.152 133.682 714.819C133.038 715.478 132.242 715.993 131.295 716.364C130.349 716.728 129.284 716.91 128.102 716.91ZM153.545 716.955C152.439 716.955 151.436 716.747 150.534 716.33C149.633 715.906 148.917 715.296 148.386 714.5C147.856 713.697 147.591 712.728 147.591 711.591C147.591 710.591 147.788 709.781 148.182 709.16C148.576 708.531 149.102 708.038 149.761 707.682C150.42 707.326 151.148 707.061 151.943 706.887C152.746 706.705 153.553 706.561 154.364 706.455C155.424 706.319 156.284 706.216 156.943 706.148C157.61 706.072 158.095 705.947 158.398 705.773C158.708 705.599 158.864 705.296 158.864 704.864V704.773C158.864 703.652 158.557 702.781 157.943 702.16C157.337 701.538 156.417 701.228 155.182 701.228C153.902 701.228 152.898 701.508 152.17 702.069C151.443 702.629 150.932 703.228 150.636 703.864L148.091 702.955C148.545 701.894 149.152 701.069 149.909 700.478C150.674 699.879 151.508 699.463 152.409 699.228C153.318 698.985 154.212 698.864 155.091 698.864C155.652 698.864 156.295 698.932 157.023 699.069C157.758 699.197 158.466 699.466 159.148 699.875C159.837 700.285 160.409 700.902 160.864 701.728C161.318 702.553 161.545 703.66 161.545 705.046V716.546H158.864V714.182H158.727C158.545 714.561 158.242 714.966 157.818 715.398C157.394 715.83 156.83 716.197 156.125 716.5C155.42 716.803 154.561 716.955 153.545 716.955ZM153.955 714.546C155.015 714.546 155.909 714.338 156.636 713.921C157.371 713.504 157.924 712.966 158.295 712.307C158.674 711.648 158.864 710.955 158.864 710.228V707.773C158.75 707.91 158.5 708.035 158.114 708.148C157.735 708.254 157.295 708.349 156.795 708.432C156.303 708.508 155.822 708.576 155.352 708.637C154.89 708.69 154.515 708.735 154.227 708.773C153.53 708.864 152.879 709.012 152.273 709.216C151.674 709.413 151.189 709.713 150.818 710.114C150.455 710.508 150.273 711.046 150.273 711.728C150.273 712.66 150.617 713.364 151.307 713.841C152.004 714.311 152.886 714.546 153.955 714.546ZM166.44 716.546V699.091H169.031V701.728H169.213C169.531 700.864 170.107 700.163 170.94 699.625C171.774 699.088 172.713 698.819 173.759 698.819C173.956 698.819 174.202 698.822 174.497 698.83C174.793 698.838 175.016 698.849 175.168 698.864V701.591C175.077 701.569 174.868 701.535 174.543 701.489C174.224 701.436 173.887 701.41 173.531 701.41C172.683 701.41 171.925 701.588 171.259 701.944C170.599 702.292 170.077 702.777 169.69 703.398C169.312 704.012 169.122 704.713 169.122 705.5V716.546H166.44ZM178.347 716.546V699.091H180.938V701.819H181.165C181.528 700.887 182.116 700.163 182.926 699.648C183.737 699.125 184.71 698.864 185.847 698.864C186.998 698.864 187.956 699.125 188.722 699.648C189.494 700.163 190.097 700.887 190.528 701.819H190.71C191.157 700.917 191.828 700.201 192.722 699.671C193.616 699.133 194.688 698.864 195.938 698.864C197.498 698.864 198.775 699.353 199.767 700.33C200.76 701.3 201.256 702.811 201.256 704.864V716.546H198.574V704.864C198.574 703.576 198.222 702.656 197.517 702.103C196.813 701.55 195.983 701.273 195.028 701.273C193.801 701.273 192.85 701.644 192.176 702.387C191.502 703.122 191.165 704.053 191.165 705.182V716.546H188.438V704.591C188.438 703.599 188.116 702.8 187.472 702.194C186.828 701.58 185.998 701.273 184.983 701.273C184.286 701.273 183.635 701.459 183.028 701.83C182.43 702.201 181.945 702.716 181.574 703.375C181.21 704.027 181.028 704.781 181.028 705.637V716.546H178.347ZM215.159 716.546V699.091H217.75V701.728H217.932C218.25 700.864 218.826 700.163 219.659 699.625C220.492 699.088 221.432 698.819 222.477 698.819C222.674 698.819 222.92 698.822 223.216 698.83C223.511 698.838 223.735 698.849 223.886 698.864V701.591C223.795 701.569 223.587 701.535 223.261 701.489C222.943 701.436 222.606 701.41 222.25 701.41C221.402 701.41 220.644 701.588 219.977 701.944C219.318 702.292 218.795 702.777 218.409 703.398C218.03 704.012 217.841 704.713 217.841 705.5V716.546H215.159ZM233.625 716.91C232.049 716.91 230.667 716.535 229.477 715.785C228.295 715.035 227.371 713.985 226.705 712.637C226.045 711.288 225.716 709.713 225.716 707.91C225.716 706.091 226.045 704.504 226.705 703.148C227.371 701.792 228.295 700.739 229.477 699.989C230.667 699.239 232.049 698.864 233.625 698.864C235.201 698.864 236.58 699.239 237.761 699.989C238.951 700.739 239.875 701.792 240.534 703.148C241.201 704.504 241.534 706.091 241.534 707.91C241.534 709.713 241.201 711.288 240.534 712.637C239.875 713.985 238.951 715.035 237.761 715.785C236.58 716.535 235.201 716.91 233.625 716.91ZM233.625 714.5C234.822 714.5 235.807 714.194 236.58 713.58C237.352 712.966 237.924 712.16 238.295 711.16C238.667 710.16 238.852 709.076 238.852 707.91C238.852 706.743 238.667 705.656 238.295 704.648C237.924 703.641 237.352 702.826 236.58 702.205C235.807 701.584 234.822 701.273 233.625 701.273C232.428 701.273 231.443 701.584 230.67 702.205C229.898 702.826 229.326 703.641 228.955 704.648C228.583 705.656 228.398 706.743 228.398 707.91C228.398 709.076 228.583 710.16 228.955 711.16C229.326 712.16 229.898 712.966 230.67 713.58C231.443 714.194 232.428 714.5 233.625 714.5ZM253.219 699.091V701.364H244.173V699.091H253.219ZM246.81 694.91H249.492V711.546C249.492 712.303 249.601 712.872 249.821 713.25C250.048 713.622 250.336 713.872 250.685 714C251.041 714.122 251.416 714.182 251.81 714.182C252.105 714.182 252.348 714.167 252.537 714.137C252.726 714.099 252.878 714.069 252.992 714.046L253.537 716.455C253.355 716.523 253.101 716.591 252.776 716.66C252.45 716.735 252.037 716.773 251.537 716.773C250.779 716.773 250.037 716.61 249.31 716.285C248.59 715.959 247.992 715.463 247.514 714.796C247.045 714.129 246.81 713.288 246.81 712.273V694.91ZM262.389 716.955C261.283 716.955 260.279 716.747 259.378 716.33C258.476 715.906 257.76 715.296 257.23 714.5C256.7 713.697 256.435 712.728 256.435 711.591C256.435 710.591 256.632 709.781 257.026 709.16C257.42 708.531 257.946 708.038 258.605 707.682C259.264 707.326 259.992 707.061 260.787 706.887C261.59 706.705 262.397 706.561 263.207 706.455C264.268 706.319 265.128 706.216 265.787 706.148C266.454 706.072 266.938 705.947 267.242 705.773C267.552 705.599 267.707 705.296 267.707 704.864V704.773C267.707 703.652 267.401 702.781 266.787 702.16C266.181 701.538 265.26 701.228 264.026 701.228C262.745 701.228 261.742 701.508 261.014 702.069C260.287 702.629 259.776 703.228 259.48 703.864L256.935 702.955C257.389 701.894 257.995 701.069 258.753 700.478C259.518 699.879 260.351 699.463 261.253 699.228C262.162 698.985 263.056 698.864 263.935 698.864C264.495 698.864 265.139 698.932 265.867 699.069C266.601 699.197 267.31 699.466 267.992 699.875C268.681 700.285 269.253 700.902 269.707 701.728C270.162 702.553 270.389 703.66 270.389 705.046V716.546H267.707V714.182H267.571C267.389 714.561 267.086 714.966 266.662 715.398C266.238 715.83 265.673 716.197 264.969 716.5C264.264 716.803 263.404 716.955 262.389 716.955ZM262.798 714.546C263.859 714.546 264.753 714.338 265.48 713.921C266.215 713.504 266.768 712.966 267.139 712.307C267.518 711.648 267.707 710.955 267.707 710.228V707.773C267.594 707.91 267.344 708.035 266.957 708.148C266.579 708.254 266.139 708.349 265.639 708.432C265.147 708.508 264.666 708.576 264.196 708.637C263.734 708.69 263.359 708.735 263.071 708.773C262.374 708.864 261.723 709.012 261.117 709.216C260.518 709.413 260.033 709.713 259.662 710.114C259.298 710.508 259.117 711.046 259.117 711.728C259.117 712.66 259.461 713.364 260.151 713.841C260.848 714.311 261.73 714.546 262.798 714.546ZM282.875 699.091V701.364H273.83V699.091H282.875ZM276.466 694.91H279.148V711.546C279.148 712.303 279.258 712.872 279.477 713.25C279.705 713.622 279.992 713.872 280.341 714C280.697 714.122 281.072 714.182 281.466 714.182C281.761 714.182 282.004 714.167 282.193 714.137C282.383 714.099 282.534 714.069 282.648 714.046L283.193 716.455C283.011 716.523 282.758 716.591 282.432 716.66C282.106 716.735 281.693 716.773 281.193 716.773C280.436 716.773 279.693 716.61 278.966 716.285C278.246 715.959 277.648 715.463 277.17 714.796C276.701 714.129 276.466 713.288 276.466 712.273V694.91ZM294.04 716.91C292.358 716.91 290.907 716.538 289.688 715.796C288.475 715.046 287.54 714 286.881 712.66C286.229 711.311 285.903 709.743 285.903 707.955C285.903 706.167 286.229 704.591 286.881 703.228C287.54 701.857 288.456 700.788 289.631 700.023C290.813 699.25 292.191 698.864 293.767 698.864C294.676 698.864 295.574 699.016 296.46 699.319C297.347 699.622 298.153 700.114 298.881 700.796C299.608 701.47 300.188 702.364 300.619 703.478C301.051 704.591 301.267 705.963 301.267 707.591V708.728H287.813V706.41H298.54C298.54 705.425 298.343 704.546 297.949 703.773C297.563 703 297.01 702.391 296.29 701.944C295.578 701.497 294.737 701.273 293.767 701.273C292.699 701.273 291.775 701.538 290.994 702.069C290.222 702.591 289.627 703.273 289.21 704.114C288.794 704.955 288.585 705.857 288.585 706.819V708.364C288.585 709.682 288.813 710.8 289.267 711.716C289.729 712.625 290.369 713.319 291.188 713.796C292.006 714.266 292.956 714.5 294.04 714.5C294.744 714.5 295.381 714.402 295.949 714.205C296.525 714 297.021 713.697 297.438 713.296C297.854 712.887 298.176 712.379 298.403 711.773L300.994 712.5C300.722 713.379 300.263 714.152 299.619 714.819C298.975 715.478 298.18 715.993 297.233 716.364C296.286 716.728 295.222 716.91 294.04 716.91ZM317.71 703L315.301 703.682C315.15 703.281 314.926 702.891 314.631 702.512C314.343 702.125 313.949 701.807 313.449 701.557C312.949 701.307 312.309 701.182 311.528 701.182C310.46 701.182 309.57 701.428 308.858 701.921C308.153 702.406 307.801 703.023 307.801 703.773C307.801 704.44 308.044 704.966 308.528 705.353C309.013 705.739 309.771 706.061 310.801 706.319L313.392 706.955C314.953 707.334 316.116 707.913 316.881 708.694C317.646 709.466 318.028 710.463 318.028 711.682C318.028 712.682 317.741 713.576 317.165 714.364C316.597 715.152 315.801 715.773 314.778 716.228C313.756 716.682 312.566 716.91 311.21 716.91C309.43 716.91 307.956 716.523 306.79 715.75C305.623 714.978 304.885 713.849 304.574 712.364L307.119 711.728C307.362 712.667 307.82 713.372 308.494 713.841C309.176 714.311 310.066 714.546 311.165 714.546C312.415 714.546 313.407 714.281 314.142 713.75C314.885 713.213 315.256 712.569 315.256 711.819C315.256 711.213 315.044 710.705 314.619 710.296C314.195 709.879 313.544 709.569 312.665 709.364L309.756 708.682C308.157 708.303 306.983 707.716 306.233 706.921C305.491 706.118 305.119 705.114 305.119 703.91C305.119 702.925 305.396 702.053 305.949 701.296C306.51 700.538 307.271 699.944 308.233 699.512C309.203 699.08 310.301 698.864 311.528 698.864C313.256 698.864 314.612 699.243 315.597 700C316.589 700.758 317.294 701.758 317.71 703ZM333.747 693.273V716.546H331.065V693.273H333.747ZM345.977 716.91C344.295 716.91 342.845 716.538 341.625 715.796C340.413 715.046 339.477 714 338.818 712.66C338.167 711.311 337.841 709.743 337.841 707.955C337.841 706.167 338.167 704.591 338.818 703.228C339.477 701.857 340.394 700.788 341.568 700.023C342.75 699.25 344.129 698.864 345.705 698.864C346.614 698.864 347.511 699.016 348.398 699.319C349.284 699.622 350.091 700.114 350.818 700.796C351.545 701.47 352.125 702.364 352.557 703.478C352.989 704.591 353.205 705.963 353.205 707.591V708.728H339.75V706.41H350.477C350.477 705.425 350.28 704.546 349.886 703.773C349.5 703 348.947 702.391 348.227 701.944C347.515 701.497 346.674 701.273 345.705 701.273C344.636 701.273 343.712 701.538 342.932 702.069C342.159 702.591 341.564 703.273 341.148 704.114C340.731 704.955 340.523 705.857 340.523 706.819V708.364C340.523 709.682 340.75 710.8 341.205 711.716C341.667 712.625 342.307 713.319 343.125 713.796C343.943 714.266 344.894 714.5 345.977 714.5C346.682 714.5 347.318 714.402 347.886 714.205C348.462 714 348.958 713.697 349.375 713.296C349.792 712.887 350.114 712.379 350.341 711.773L352.932 712.5C352.659 713.379 352.201 714.152 351.557 714.819C350.913 715.478 350.117 715.993 349.17 716.364C348.224 716.728 347.159 716.91 345.977 716.91ZM365.057 699.091V701.364H355.648V699.091H365.057ZM358.466 716.546V696.682C358.466 695.682 358.701 694.849 359.17 694.182C359.64 693.516 360.25 693.016 361 692.682C361.75 692.349 362.542 692.182 363.375 692.182C364.034 692.182 364.572 692.235 364.989 692.341C365.405 692.447 365.716 692.546 365.92 692.637L365.148 694.955C365.011 694.91 364.822 694.853 364.58 694.785C364.345 694.716 364.034 694.682 363.648 694.682C362.761 694.682 362.121 694.906 361.727 695.353C361.341 695.8 361.148 696.455 361.148 697.319V716.546H358.466ZM376.406 699.091V701.364H367.361V699.091H376.406ZM369.997 694.91H372.679V711.546C372.679 712.303 372.789 712.872 373.009 713.25C373.236 713.622 373.524 713.872 373.872 714C374.228 714.122 374.603 714.182 374.997 714.182C375.293 714.182 375.535 714.167 375.724 714.137C375.914 714.099 376.065 714.069 376.179 714.046L376.724 716.455C376.543 716.523 376.289 716.591 375.963 716.66C375.637 716.735 375.224 716.773 374.724 716.773C373.967 716.773 373.224 716.61 372.497 716.285C371.778 715.959 371.179 715.463 370.702 714.796C370.232 714.129 369.997 713.288 369.997 712.273V694.91ZM394.577 716.955C393.471 716.955 392.467 716.747 391.565 716.33C390.664 715.906 389.948 715.296 389.418 714.5C388.887 713.697 388.622 712.728 388.622 711.591C388.622 710.591 388.819 709.781 389.213 709.16C389.607 708.531 390.134 708.038 390.793 707.682C391.452 707.326 392.179 707.061 392.974 706.887C393.778 706.705 394.584 706.561 395.395 706.455C396.456 706.319 397.315 706.216 397.974 706.148C398.641 706.072 399.126 705.947 399.429 705.773C399.74 705.599 399.895 705.296 399.895 704.864V704.773C399.895 703.652 399.588 702.781 398.974 702.16C398.368 701.538 397.448 701.228 396.213 701.228C394.933 701.228 393.929 701.508 393.202 702.069C392.474 702.629 391.963 703.228 391.668 703.864L389.122 702.955C389.577 701.894 390.183 701.069 390.94 700.478C391.706 699.879 392.539 699.463 393.44 699.228C394.349 698.985 395.243 698.864 396.122 698.864C396.683 698.864 397.327 698.932 398.054 699.069C398.789 699.197 399.497 699.466 400.179 699.875C400.868 700.285 401.44 700.902 401.895 701.728C402.349 702.553 402.577 703.66 402.577 705.046V716.546H399.895V714.182H399.759C399.577 714.561 399.274 714.966 398.849 715.398C398.425 715.83 397.861 716.197 397.156 716.5C396.452 716.803 395.592 716.955 394.577 716.955ZM394.986 714.546C396.046 714.546 396.94 714.338 397.668 713.921C398.403 713.504 398.956 712.966 399.327 712.307C399.706 711.648 399.895 710.955 399.895 710.228V707.773C399.781 707.91 399.531 708.035 399.145 708.148C398.766 708.254 398.327 708.349 397.827 708.432C397.334 708.508 396.853 708.576 396.384 708.637C395.921 708.69 395.546 708.735 395.259 708.773C394.562 708.864 393.91 709.012 393.304 709.216C392.706 709.413 392.221 709.713 391.849 710.114C391.486 710.508 391.304 711.046 391.304 711.728C391.304 712.66 391.649 713.364 392.338 713.841C393.035 714.311 393.918 714.546 394.986 714.546ZM410.153 706.046V716.546H407.472V699.091H410.063V701.819H410.29C410.699 700.932 411.32 700.22 412.153 699.682C412.987 699.137 414.063 698.864 415.381 698.864C416.563 698.864 417.597 699.107 418.483 699.591C419.369 700.069 420.059 700.796 420.551 701.773C421.044 702.743 421.29 703.97 421.29 705.455V716.546H418.608V705.637C418.608 704.266 418.252 703.197 417.54 702.432C416.828 701.66 415.85 701.273 414.608 701.273C413.752 701.273 412.987 701.459 412.313 701.83C411.646 702.201 411.119 702.743 410.733 703.455C410.347 704.167 410.153 705.031 410.153 706.046ZM432.781 716.91C431.327 716.91 430.043 716.542 428.929 715.807C427.815 715.065 426.944 714.019 426.315 712.671C425.687 711.315 425.372 709.713 425.372 707.864C425.372 706.031 425.687 704.44 426.315 703.091C426.944 701.743 427.819 700.701 428.94 699.966C430.062 699.232 431.357 698.864 432.827 698.864C433.963 698.864 434.861 699.053 435.52 699.432C436.187 699.803 436.694 700.228 437.043 700.705C437.399 701.175 437.675 701.561 437.872 701.864H438.099V693.273H440.781V716.546H438.19V713.864H437.872C437.675 714.182 437.395 714.584 437.031 715.069C436.668 715.546 436.149 715.974 435.474 716.353C434.8 716.724 433.903 716.91 432.781 716.91ZM433.145 714.5C434.221 714.5 435.13 714.22 435.872 713.66C436.615 713.091 437.179 712.307 437.565 711.307C437.952 710.3 438.145 709.137 438.145 707.819C438.145 706.516 437.956 705.375 437.577 704.398C437.198 703.413 436.637 702.648 435.895 702.103C435.153 701.55 434.236 701.273 433.145 701.273C432.009 701.273 431.062 701.565 430.304 702.148C429.554 702.724 428.99 703.508 428.611 704.5C428.24 705.485 428.054 706.591 428.054 707.819C428.054 709.061 428.243 710.19 428.622 711.205C429.009 712.213 429.577 713.016 430.327 713.614C431.084 714.205 432.024 714.5 433.145 714.5ZM93.3779 755.546V738.091H95.9688V740.728H96.1506C96.4688 739.864 97.0446 739.163 97.8779 738.625C98.7112 738.088 99.6506 737.819 100.696 737.819C100.893 737.819 101.139 737.822 101.435 737.83C101.73 737.838 101.954 737.849 102.105 737.864V740.591C102.014 740.569 101.806 740.535 101.48 740.489C101.162 740.436 100.825 740.41 100.469 740.41C99.6203 740.41 98.8627 740.588 98.1961 740.944C97.537 741.292 97.0142 741.777 96.6279 742.398C96.2491 743.012 96.0597 743.713 96.0597 744.5V755.546H93.3779ZM105.284 755.546V738.091H107.966V755.546H105.284ZM106.648 735.182C106.125 735.182 105.674 735.004 105.295 734.648C104.924 734.292 104.739 733.864 104.739 733.364C104.739 732.864 104.924 732.436 105.295 732.08C105.674 731.724 106.125 731.546 106.648 731.546C107.17 731.546 107.617 731.724 107.989 732.08C108.367 732.436 108.557 732.864 108.557 733.364C108.557 733.864 108.367 734.292 107.989 734.648C107.617 735.004 107.17 735.182 106.648 735.182ZM119.923 762.455C118.628 762.455 117.514 762.288 116.582 761.955C115.651 761.629 114.874 761.197 114.253 760.66C113.639 760.129 113.151 759.561 112.787 758.955L114.923 757.455C115.166 757.773 115.473 758.137 115.844 758.546C116.215 758.963 116.723 759.322 117.367 759.625C118.018 759.936 118.87 760.091 119.923 760.091C121.332 760.091 122.495 759.75 123.412 759.069C124.329 758.387 124.787 757.319 124.787 755.864V752.319H124.56C124.363 752.637 124.082 753.031 123.719 753.5C123.363 753.963 122.848 754.375 122.173 754.739C121.507 755.095 120.605 755.273 119.469 755.273C118.06 755.273 116.795 754.94 115.673 754.273C114.56 753.607 113.677 752.637 113.026 751.364C112.382 750.091 112.06 748.546 112.06 746.728C112.06 744.94 112.374 743.383 113.003 742.057C113.632 740.724 114.507 739.694 115.628 738.966C116.749 738.232 118.045 737.864 119.514 737.864C120.651 737.864 121.552 738.053 122.219 738.432C122.893 738.803 123.408 739.228 123.764 739.705C124.128 740.175 124.408 740.561 124.605 740.864H124.878V738.091H127.469V756.046C127.469 757.546 127.128 758.766 126.446 759.705C125.772 760.652 124.863 761.345 123.719 761.785C122.582 762.232 121.317 762.455 119.923 762.455ZM119.832 752.864C120.908 752.864 121.817 752.618 122.56 752.125C123.302 751.633 123.867 750.925 124.253 750C124.639 749.076 124.832 747.97 124.832 746.682C124.832 745.425 124.643 744.315 124.264 743.353C123.885 742.391 123.325 741.637 122.582 741.091C121.84 740.546 120.923 740.273 119.832 740.273C118.696 740.273 117.749 740.561 116.992 741.137C116.242 741.713 115.677 742.485 115.298 743.455C114.927 744.425 114.742 745.5 114.742 746.682C114.742 747.894 114.931 748.966 115.31 749.898C115.696 750.822 116.264 751.55 117.014 752.08C117.772 752.603 118.711 752.864 119.832 752.864ZM135.06 745.046V755.546H132.378V732.273H135.06V740.819H135.287C135.696 739.917 136.31 739.201 137.128 738.671C137.954 738.133 139.052 737.864 140.423 737.864C141.613 737.864 142.654 738.103 143.548 738.58C144.442 739.05 145.135 739.773 145.628 740.75C146.128 741.72 146.378 742.955 146.378 744.455V755.546H143.696V744.637C143.696 743.25 143.336 742.178 142.617 741.421C141.904 740.656 140.916 740.273 139.651 740.273C138.772 740.273 137.984 740.459 137.287 740.83C136.598 741.201 136.052 741.743 135.651 742.455C135.257 743.167 135.06 744.031 135.06 745.046ZM158.875 738.091V740.364H149.83V738.091H158.875ZM152.466 733.91H155.148V750.546C155.148 751.303 155.258 751.872 155.477 752.25C155.705 752.622 155.992 752.872 156.341 753C156.697 753.122 157.072 753.182 157.466 753.182C157.761 753.182 158.004 753.167 158.193 753.137C158.383 753.099 158.534 753.069 158.648 753.046L159.193 755.455C159.011 755.523 158.758 755.591 158.432 755.66C158.106 755.735 157.693 755.773 157.193 755.773C156.436 755.773 155.693 755.61 154.966 755.285C154.246 754.959 153.648 754.463 153.17 753.796C152.701 753.129 152.466 752.288 152.466 751.273V733.91ZM179.5 738.091V740.364H170.455V738.091H179.5ZM173.091 733.91H175.773V750.546C175.773 751.303 175.883 751.872 176.102 752.25C176.33 752.622 176.617 752.872 176.966 753C177.322 753.122 177.697 753.182 178.091 753.182C178.386 753.182 178.629 753.167 178.818 753.137C179.008 753.099 179.159 753.069 179.273 753.046L179.818 755.455C179.636 755.523 179.383 755.591 179.057 755.66C178.731 755.735 178.318 755.773 177.818 755.773C177.061 755.773 176.318 755.61 175.591 755.285C174.871 754.959 174.273 754.463 173.795 753.796C173.326 753.129 173.091 752.288 173.091 751.273V733.91ZM190.438 755.91C188.862 755.91 187.479 755.535 186.29 754.785C185.108 754.035 184.184 752.985 183.517 751.637C182.858 750.288 182.528 748.713 182.528 746.91C182.528 745.091 182.858 743.504 183.517 742.148C184.184 740.792 185.108 739.739 186.29 738.989C187.479 738.239 188.862 737.864 190.438 737.864C192.013 737.864 193.392 738.239 194.574 738.989C195.763 739.739 196.688 740.792 197.347 742.148C198.013 743.504 198.347 745.091 198.347 746.91C198.347 748.713 198.013 750.288 197.347 751.637C196.688 752.985 195.763 754.035 194.574 754.785C193.392 755.535 192.013 755.91 190.438 755.91ZM190.438 753.5C191.635 753.5 192.619 753.194 193.392 752.58C194.165 751.966 194.737 751.16 195.108 750.16C195.479 749.16 195.665 748.076 195.665 746.91C195.665 745.743 195.479 744.656 195.108 743.648C194.737 742.641 194.165 741.826 193.392 741.205C192.619 740.584 191.635 740.273 190.438 740.273C189.241 740.273 188.256 740.584 187.483 741.205C186.71 741.826 186.138 742.641 185.767 743.648C185.396 744.656 185.21 745.743 185.21 746.91C185.21 748.076 185.396 749.16 185.767 750.16C186.138 751.16 186.71 751.966 187.483 752.58C188.256 753.194 189.241 753.5 190.438 753.5ZM211.44 755.546V738.091H214.031V740.728H214.213C214.531 739.864 215.107 739.163 215.94 738.625C216.774 738.088 217.713 737.819 218.759 737.819C218.956 737.819 219.202 737.822 219.497 737.83C219.793 737.838 220.016 737.849 220.168 737.864V740.591C220.077 740.569 219.868 740.535 219.543 740.489C219.224 740.436 218.887 740.41 218.531 740.41C217.683 740.41 216.925 740.588 216.259 740.944C215.599 741.292 215.077 741.777 214.69 742.398C214.312 743.012 214.122 743.713 214.122 744.5V755.546H211.44ZM230.134 755.91C228.452 755.91 227.001 755.538 225.781 754.796C224.569 754.046 223.634 753 222.974 751.66C222.323 750.311 221.997 748.743 221.997 746.955C221.997 745.167 222.323 743.591 222.974 742.228C223.634 740.857 224.55 739.788 225.724 739.023C226.906 738.25 228.285 737.864 229.861 737.864C230.77 737.864 231.668 738.016 232.554 738.319C233.44 738.622 234.247 739.114 234.974 739.796C235.702 740.47 236.281 741.364 236.713 742.478C237.145 743.591 237.361 744.963 237.361 746.591V747.728H223.906V745.41H234.634C234.634 744.425 234.437 743.546 234.043 742.773C233.656 742 233.103 741.391 232.384 740.944C231.671 740.497 230.831 740.273 229.861 740.273C228.793 740.273 227.868 740.538 227.088 741.069C226.315 741.591 225.721 742.273 225.304 743.114C224.887 743.955 224.679 744.857 224.679 745.819V747.364C224.679 748.682 224.906 749.8 225.361 750.716C225.823 751.625 226.463 752.319 227.281 752.796C228.099 753.266 229.05 753.5 230.134 753.5C230.838 753.5 231.474 753.402 232.043 753.205C232.618 753 233.115 752.697 233.531 752.296C233.948 751.887 234.27 751.379 234.497 750.773L237.088 751.5C236.815 752.379 236.357 753.152 235.713 753.819C235.069 754.478 234.274 754.993 233.327 755.364C232.38 755.728 231.315 755.91 230.134 755.91ZM246.577 755.955C245.471 755.955 244.467 755.747 243.565 755.33C242.664 754.906 241.948 754.296 241.418 753.5C240.887 752.697 240.622 751.728 240.622 750.591C240.622 749.591 240.819 748.781 241.213 748.16C241.607 747.531 242.134 747.038 242.793 746.682C243.452 746.326 244.179 746.061 244.974 745.887C245.778 745.705 246.584 745.561 247.395 745.455C248.456 745.319 249.315 745.216 249.974 745.148C250.641 745.072 251.126 744.947 251.429 744.773C251.74 744.599 251.895 744.296 251.895 743.864V743.773C251.895 742.652 251.588 741.781 250.974 741.16C250.368 740.538 249.448 740.228 248.213 740.228C246.933 740.228 245.929 740.508 245.202 741.069C244.474 741.629 243.963 742.228 243.668 742.864L241.122 741.955C241.577 740.894 242.183 740.069 242.94 739.478C243.706 738.879 244.539 738.463 245.44 738.228C246.349 737.985 247.243 737.864 248.122 737.864C248.683 737.864 249.327 737.932 250.054 738.069C250.789 738.197 251.497 738.466 252.179 738.875C252.868 739.285 253.44 739.902 253.895 740.728C254.349 741.553 254.577 742.66 254.577 744.046V755.546H251.895V753.182H251.759C251.577 753.561 251.274 753.966 250.849 754.398C250.425 754.83 249.861 755.197 249.156 755.5C248.452 755.803 247.592 755.955 246.577 755.955ZM246.986 753.546C248.046 753.546 248.94 753.338 249.668 752.921C250.403 752.504 250.956 751.966 251.327 751.307C251.706 750.648 251.895 749.955 251.895 749.228V746.773C251.781 746.91 251.531 747.035 251.145 747.148C250.766 747.254 250.327 747.349 249.827 747.432C249.334 747.508 248.853 747.576 248.384 747.637C247.921 747.69 247.546 747.735 247.259 747.773C246.562 747.864 245.91 748.012 245.304 748.216C244.706 748.413 244.221 748.713 243.849 749.114C243.486 749.508 243.304 750.046 243.304 750.728C243.304 751.66 243.649 752.364 244.338 752.841C245.035 753.311 245.918 753.546 246.986 753.546ZM266.563 755.91C264.926 755.91 263.517 755.523 262.335 754.75C261.153 753.978 260.244 752.913 259.608 751.557C258.972 750.201 258.653 748.652 258.653 746.91C258.653 745.137 258.979 743.572 259.631 742.216C260.29 740.853 261.206 739.788 262.381 739.023C263.563 738.25 264.941 737.864 266.517 737.864C267.744 737.864 268.85 738.091 269.835 738.546C270.82 739 271.627 739.637 272.256 740.455C272.885 741.273 273.275 742.228 273.426 743.319H270.744C270.54 742.523 270.085 741.819 269.381 741.205C268.684 740.584 267.744 740.273 266.563 740.273C265.517 740.273 264.6 740.546 263.813 741.091C263.032 741.629 262.422 742.391 261.983 743.375C261.551 744.353 261.335 745.5 261.335 746.819C261.335 748.167 261.547 749.341 261.972 750.341C262.403 751.341 263.01 752.118 263.79 752.671C264.578 753.224 265.502 753.5 266.563 753.5C267.26 753.5 267.892 753.379 268.46 753.137C269.028 752.894 269.51 752.546 269.903 752.091C270.297 751.637 270.578 751.091 270.744 750.455H273.426C273.275 751.485 272.9 752.413 272.301 753.239C271.71 754.057 270.926 754.709 269.949 755.194C268.979 755.671 267.85 755.91 266.563 755.91ZM280.028 745.046V755.546H277.347V732.273H280.028V740.819H280.256C280.665 739.917 281.278 739.201 282.097 738.671C282.922 738.133 284.021 737.864 285.392 737.864C286.581 737.864 287.623 738.103 288.517 738.58C289.411 739.05 290.104 739.773 290.597 740.75C291.097 741.72 291.347 742.955 291.347 744.455V755.546H288.665V744.637C288.665 743.25 288.305 742.178 287.585 741.421C286.873 740.656 285.885 740.273 284.619 740.273C283.741 740.273 282.953 740.459 282.256 740.83C281.566 741.201 281.021 741.743 280.619 742.455C280.225 743.167 280.028 744.031 280.028 745.046ZM311.844 755.91C310.389 755.91 309.105 755.542 307.992 754.807C306.878 754.065 306.007 753.019 305.378 751.671C304.749 750.315 304.435 748.713 304.435 746.864C304.435 745.031 304.749 743.44 305.378 742.091C306.007 740.743 306.882 739.701 308.003 738.966C309.124 738.232 310.42 737.864 311.889 737.864C313.026 737.864 313.923 738.053 314.582 738.432C315.249 738.803 315.757 739.228 316.105 739.705C316.461 740.175 316.738 740.561 316.935 740.864H317.162V732.273H319.844V755.546H317.253V752.864H316.935C316.738 753.182 316.457 753.584 316.094 754.069C315.73 754.546 315.211 754.974 314.537 755.353C313.863 755.724 312.965 755.91 311.844 755.91ZM312.207 753.5C313.283 753.5 314.192 753.22 314.935 752.66C315.677 752.091 316.242 751.307 316.628 750.307C317.014 749.3 317.207 748.137 317.207 746.819C317.207 745.516 317.018 744.375 316.639 743.398C316.26 742.413 315.7 741.648 314.957 741.103C314.215 740.55 313.298 740.273 312.207 740.273C311.071 740.273 310.124 740.565 309.367 741.148C308.617 741.724 308.052 742.508 307.673 743.5C307.302 744.485 307.117 745.591 307.117 746.819C307.117 748.061 307.306 749.19 307.685 750.205C308.071 751.213 308.639 752.016 309.389 752.614C310.147 753.205 311.086 753.5 312.207 753.5ZM325.128 755.546V738.091H327.81V755.546H325.128ZM326.492 735.182C325.969 735.182 325.518 735.004 325.139 734.648C324.768 734.292 324.582 733.864 324.582 733.364C324.582 732.864 324.768 732.436 325.139 732.08C325.518 731.724 325.969 731.546 326.492 731.546C327.014 731.546 327.461 731.724 327.832 732.08C328.211 732.436 328.401 732.864 328.401 733.364C328.401 733.864 328.211 734.292 327.832 734.648C327.461 735.004 327.014 735.182 326.492 735.182ZM340.494 738.091V740.364H331.085V738.091H340.494ZM333.903 755.546V735.682C333.903 734.682 334.138 733.849 334.608 733.182C335.078 732.516 335.688 732.016 336.438 731.682C337.188 731.349 337.979 731.182 338.813 731.182C339.472 731.182 340.01 731.235 340.426 731.341C340.843 731.447 341.153 731.546 341.358 731.637L340.585 733.955C340.449 733.91 340.26 733.853 340.017 733.785C339.782 733.716 339.472 733.682 339.085 733.682C338.199 733.682 337.559 733.906 337.165 734.353C336.778 734.8 336.585 735.455 336.585 736.319V755.546H333.903ZM352.026 738.091V740.364H342.617V738.091H352.026ZM345.435 755.546V735.682C345.435 734.682 345.67 733.849 346.139 733.182C346.609 732.516 347.219 732.016 347.969 731.682C348.719 731.349 349.51 731.182 350.344 731.182C351.003 731.182 351.541 731.235 351.957 731.341C352.374 731.447 352.685 731.546 352.889 731.637L352.117 733.955C351.98 733.91 351.791 733.853 351.548 733.785C351.313 733.716 351.003 733.682 350.617 733.682C349.73 733.682 349.09 733.906 348.696 734.353C348.31 734.8 348.117 735.455 348.117 736.319V755.546H345.435ZM362.384 755.91C360.702 755.91 359.251 755.538 358.031 754.796C356.819 754.046 355.884 753 355.224 751.66C354.573 750.311 354.247 748.743 354.247 746.955C354.247 745.167 354.573 743.591 355.224 742.228C355.884 740.857 356.8 739.788 357.974 739.023C359.156 738.25 360.535 737.864 362.111 737.864C363.02 737.864 363.918 738.016 364.804 738.319C365.69 738.622 366.497 739.114 367.224 739.796C367.952 740.47 368.531 741.364 368.963 742.478C369.395 743.591 369.611 744.963 369.611 746.591V747.728H356.156V745.41H366.884C366.884 744.425 366.687 743.546 366.293 742.773C365.906 742 365.353 741.391 364.634 740.944C363.921 740.497 363.081 740.273 362.111 740.273C361.043 740.273 360.118 740.538 359.338 741.069C358.565 741.591 357.971 742.273 357.554 743.114C357.137 743.955 356.929 744.857 356.929 745.819V747.364C356.929 748.682 357.156 749.8 357.611 750.716C358.073 751.625 358.713 752.319 359.531 752.796C360.349 753.266 361.3 753.5 362.384 753.5C363.088 753.5 363.724 753.402 364.293 753.205C364.868 753 365.365 752.697 365.781 752.296C366.198 751.887 366.52 751.379 366.747 750.773L369.338 751.5C369.065 752.379 368.607 753.152 367.963 753.819C367.319 754.478 366.524 754.993 365.577 755.364C364.63 755.728 363.565 755.91 362.384 755.91ZM373.69 755.546V738.091H376.281V740.728H376.463C376.781 739.864 377.357 739.163 378.19 738.625C379.024 738.088 379.963 737.819 381.009 737.819C381.206 737.819 381.452 737.822 381.747 737.83C382.043 737.838 382.266 737.849 382.418 737.864V740.591C382.327 740.569 382.118 740.535 381.793 740.489C381.474 740.436 381.137 740.41 380.781 740.41C379.933 740.41 379.175 740.588 378.509 740.944C377.849 741.292 377.327 741.777 376.94 742.398C376.562 743.012 376.372 743.713 376.372 744.5V755.546H373.69ZM392.384 755.91C390.702 755.91 389.251 755.538 388.031 754.796C386.819 754.046 385.884 753 385.224 751.66C384.573 750.311 384.247 748.743 384.247 746.955C384.247 745.167 384.573 743.591 385.224 742.228C385.884 740.857 386.8 739.788 387.974 739.023C389.156 738.25 390.535 737.864 392.111 737.864C393.02 737.864 393.918 738.016 394.804 738.319C395.69 738.622 396.497 739.114 397.224 739.796C397.952 740.47 398.531 741.364 398.963 742.478C399.395 743.591 399.611 744.963 399.611 746.591V747.728H386.156V745.41H396.884C396.884 744.425 396.687 743.546 396.293 742.773C395.906 742 395.353 741.391 394.634 740.944C393.921 740.497 393.081 740.273 392.111 740.273C391.043 740.273 390.118 740.538 389.338 741.069C388.565 741.591 387.971 742.273 387.554 743.114C387.137 743.955 386.929 744.857 386.929 745.819V747.364C386.929 748.682 387.156 749.8 387.611 750.716C388.073 751.625 388.713 752.319 389.531 752.796C390.349 753.266 391.3 753.5 392.384 753.5C393.088 753.5 393.724 753.402 394.293 753.205C394.868 753 395.365 752.697 395.781 752.296C396.198 751.887 396.52 751.379 396.747 750.773L399.338 751.5C399.065 752.379 398.607 753.152 397.963 753.819C397.319 754.478 396.524 754.993 395.577 755.364C394.63 755.728 393.565 755.91 392.384 755.91ZM406.372 745.046V755.546H403.69V738.091H406.281V740.819H406.509C406.918 739.932 407.539 739.22 408.372 738.682C409.206 738.137 410.281 737.864 411.599 737.864C412.781 737.864 413.815 738.107 414.702 738.591C415.588 739.069 416.278 739.796 416.77 740.773C417.262 741.743 417.509 742.97 417.509 744.455V755.546H414.827V744.637C414.827 743.266 414.471 742.197 413.759 741.432C413.046 740.66 412.069 740.273 410.827 740.273C409.971 740.273 409.206 740.459 408.531 740.83C407.865 741.201 407.338 741.743 406.952 742.455C406.565 743.167 406.372 744.031 406.372 745.046ZM430 738.091V740.364H420.955V738.091H430ZM423.591 733.91H426.273V750.546C426.273 751.303 426.383 751.872 426.602 752.25C426.83 752.622 427.117 752.872 427.466 753C427.822 753.122 428.197 753.182 428.591 753.182C428.886 753.182 429.129 753.167 429.318 753.137C429.508 753.099 429.659 753.069 429.773 753.046L430.318 755.455C430.136 755.523 429.883 755.591 429.557 755.66C429.231 755.735 428.818 755.773 428.318 755.773C427.561 755.773 426.818 755.61 426.091 755.285C425.371 754.959 424.773 754.463 424.295 753.796C423.826 753.129 423.591 752.288 423.591 751.273V733.91ZM165.797 777.091V779.364H156.751V777.091H165.797ZM159.388 772.91H162.07V789.546C162.07 790.303 162.179 790.872 162.399 791.25C162.626 791.622 162.914 791.872 163.263 792C163.619 792.122 163.994 792.182 164.388 792.182C164.683 792.182 164.926 792.167 165.115 792.137C165.304 792.099 165.456 792.069 165.57 792.046L166.115 794.455C165.933 794.523 165.679 794.591 165.354 794.66C165.028 794.735 164.615 794.773 164.115 794.773C163.358 794.773 162.615 794.61 161.888 794.285C161.168 793.959 160.57 793.463 160.092 792.796C159.623 792.129 159.388 791.288 159.388 790.273V772.91ZM169.831 794.546V777.091H172.422V779.728H172.604C172.922 778.864 173.498 778.163 174.331 777.625C175.164 777.088 176.104 776.819 177.149 776.819C177.346 776.819 177.592 776.822 177.888 776.83C178.183 776.838 178.407 776.849 178.558 776.864V779.591C178.467 779.569 178.259 779.535 177.933 779.489C177.615 779.436 177.278 779.41 176.922 779.41C176.073 779.41 175.316 779.588 174.649 779.944C173.99 780.292 173.467 780.777 173.081 781.398C172.702 782.012 172.513 782.713 172.513 783.5V794.546H169.831ZM186.874 794.955C185.768 794.955 184.764 794.747 183.862 794.33C182.961 793.906 182.245 793.296 181.715 792.5C181.184 791.697 180.919 790.728 180.919 789.591C180.919 788.591 181.116 787.781 181.51 787.16C181.904 786.531 182.43 786.038 183.09 785.682C183.749 785.326 184.476 785.061 185.271 784.887C186.074 784.705 186.881 784.561 187.692 784.455C188.752 784.319 189.612 784.216 190.271 784.148C190.938 784.072 191.423 783.947 191.726 783.773C192.037 783.599 192.192 783.296 192.192 782.864V782.773C192.192 781.652 191.885 780.781 191.271 780.16C190.665 779.538 189.745 779.228 188.51 779.228C187.23 779.228 186.226 779.508 185.499 780.069C184.771 780.629 184.26 781.228 183.965 781.864L181.419 780.955C181.874 779.894 182.48 779.069 183.237 778.478C184.002 777.879 184.836 777.463 185.737 777.228C186.646 776.985 187.54 776.864 188.419 776.864C188.98 776.864 189.624 776.932 190.351 777.069C191.086 777.197 191.794 777.466 192.476 777.875C193.165 778.285 193.737 778.902 194.192 779.728C194.646 780.553 194.874 781.66 194.874 783.046V794.546H192.192V792.182H192.055C191.874 792.561 191.571 792.966 191.146 793.398C190.722 793.83 190.158 794.197 189.453 794.5C188.749 794.803 187.889 794.955 186.874 794.955ZM187.283 792.546C188.343 792.546 189.237 792.338 189.965 791.921C190.699 791.504 191.252 790.966 191.624 790.307C192.002 789.648 192.192 788.955 192.192 788.228V785.773C192.078 785.91 191.828 786.035 191.442 786.148C191.063 786.254 190.624 786.349 190.124 786.432C189.631 786.508 189.15 786.576 188.68 786.637C188.218 786.69 187.843 786.735 187.555 786.773C186.858 786.864 186.207 787.012 185.601 787.216C185.002 787.413 184.518 787.713 184.146 788.114C183.783 788.508 183.601 789.046 183.601 789.728C183.601 790.66 183.946 791.364 184.635 791.841C185.332 792.311 186.215 792.546 187.283 792.546ZM206.859 794.91C205.223 794.91 203.814 794.523 202.632 793.75C201.45 792.978 200.541 791.913 199.905 790.557C199.269 789.201 198.95 787.652 198.95 785.91C198.95 784.137 199.276 782.572 199.928 781.216C200.587 779.853 201.503 778.788 202.678 778.023C203.859 777.25 205.238 776.864 206.814 776.864C208.041 776.864 209.147 777.091 210.132 777.546C211.117 778 211.924 778.637 212.553 779.455C213.181 780.273 213.572 781.228 213.723 782.319H211.041C210.837 781.523 210.382 780.819 209.678 780.205C208.981 779.584 208.041 779.273 206.859 779.273C205.814 779.273 204.897 779.546 204.109 780.091C203.329 780.629 202.719 781.391 202.28 782.375C201.848 783.353 201.632 784.5 201.632 785.819C201.632 787.167 201.844 788.341 202.269 789.341C202.7 790.341 203.306 791.118 204.087 791.671C204.875 792.224 205.799 792.5 206.859 792.5C207.556 792.5 208.189 792.379 208.757 792.137C209.325 791.894 209.806 791.546 210.2 791.091C210.594 790.637 210.875 790.091 211.041 789.455H213.723C213.572 790.485 213.197 791.413 212.598 792.239C212.007 793.057 211.223 793.709 210.246 794.194C209.276 794.671 208.147 794.91 206.859 794.91ZM220.144 788.182L220.098 784.864H220.644L228.28 777.091H231.598L223.462 785.319H223.234L220.144 788.182ZM217.644 794.546V771.273H220.325V794.546H217.644ZM228.734 794.546L221.916 785.91L223.825 784.046L232.144 794.546H228.734ZM247.413 781L245.004 781.682C244.853 781.281 244.629 780.891 244.334 780.512C244.046 780.125 243.652 779.807 243.152 779.557C242.652 779.307 242.012 779.182 241.232 779.182C240.163 779.182 239.273 779.428 238.561 779.921C237.857 780.406 237.504 781.023 237.504 781.773C237.504 782.44 237.747 782.966 238.232 783.353C238.716 783.739 239.474 784.061 240.504 784.319L243.095 784.955C244.656 785.334 245.819 785.913 246.584 786.694C247.349 787.466 247.732 788.463 247.732 789.682C247.732 790.682 247.444 791.576 246.868 792.364C246.3 793.152 245.504 793.773 244.482 794.228C243.459 794.682 242.269 794.91 240.913 794.91C239.133 794.91 237.66 794.523 236.493 793.75C235.326 792.978 234.588 791.849 234.277 790.364L236.822 789.728C237.065 790.667 237.523 791.372 238.197 791.841C238.879 792.311 239.769 792.546 240.868 792.546C242.118 792.546 243.11 792.281 243.845 791.75C244.588 791.213 244.959 790.569 244.959 789.819C244.959 789.213 244.747 788.705 244.322 788.296C243.898 787.879 243.247 787.569 242.368 787.364L239.459 786.682C237.86 786.303 236.686 785.716 235.936 784.921C235.194 784.118 234.822 783.114 234.822 781.91C234.822 780.925 235.099 780.053 235.652 779.296C236.213 778.538 236.974 777.944 237.936 777.512C238.906 777.08 240.004 776.864 241.232 776.864C242.959 776.864 244.315 777.243 245.3 778C246.292 778.758 246.997 779.758 247.413 781ZM260.769 794.546V777.091H263.359V779.728H263.541C263.859 778.864 264.435 778.163 265.269 777.625C266.102 777.088 267.041 776.819 268.087 776.819C268.284 776.819 268.53 776.822 268.825 776.83C269.121 776.838 269.344 776.849 269.496 776.864V779.591C269.405 779.569 269.197 779.535 268.871 779.489C268.553 779.436 268.215 779.41 267.859 779.41C267.011 779.41 266.253 779.588 265.587 779.944C264.928 780.292 264.405 780.777 264.019 781.398C263.64 782.012 263.45 782.713 263.45 783.5V794.546H260.769ZM277.811 794.955C276.705 794.955 275.701 794.747 274.8 794.33C273.898 793.906 273.182 793.296 272.652 792.5C272.122 791.697 271.857 790.728 271.857 789.591C271.857 788.591 272.054 787.781 272.447 787.16C272.841 786.531 273.368 786.038 274.027 785.682C274.686 785.326 275.413 785.061 276.209 784.887C277.012 784.705 277.819 784.561 278.629 784.455C279.69 784.319 280.55 784.216 281.209 784.148C281.876 784.072 282.36 783.947 282.663 783.773C282.974 783.599 283.129 783.296 283.129 782.864V782.773C283.129 781.652 282.822 780.781 282.209 780.16C281.603 779.538 280.682 779.228 279.447 779.228C278.167 779.228 277.163 779.508 276.436 780.069C275.709 780.629 275.197 781.228 274.902 781.864L272.357 780.955C272.811 779.894 273.417 779.069 274.175 778.478C274.94 777.879 275.773 777.463 276.675 777.228C277.584 776.985 278.478 776.864 279.357 776.864C279.917 776.864 280.561 776.932 281.288 777.069C282.023 777.197 282.732 777.466 283.413 777.875C284.103 778.285 284.675 778.902 285.129 779.728C285.584 780.553 285.811 781.66 285.811 783.046V794.546H283.129V792.182H282.993C282.811 792.561 282.508 792.966 282.084 793.398C281.66 793.83 281.095 794.197 280.391 794.5C279.686 794.803 278.826 794.955 277.811 794.955ZM278.22 792.546C279.281 792.546 280.175 792.338 280.902 791.921C281.637 791.504 282.19 790.966 282.561 790.307C282.94 789.648 283.129 788.955 283.129 788.228V785.773C283.016 785.91 282.766 786.035 282.379 786.148C282.001 786.254 281.561 786.349 281.061 786.432C280.569 786.508 280.088 786.576 279.618 786.637C279.156 786.69 278.781 786.735 278.493 786.773C277.796 786.864 277.144 787.012 276.538 787.216C275.94 787.413 275.455 787.713 275.084 788.114C274.72 788.508 274.538 789.046 274.538 789.728C274.538 790.66 274.883 791.364 275.572 791.841C276.269 792.311 277.152 792.546 278.22 792.546ZM297.297 794.91C295.842 794.91 294.558 794.542 293.445 793.807C292.331 793.065 291.46 792.019 290.831 790.671C290.202 789.315 289.888 787.713 289.888 785.864C289.888 784.031 290.202 782.44 290.831 781.091C291.46 779.743 292.335 778.701 293.456 777.966C294.577 777.232 295.873 776.864 297.342 776.864C298.479 776.864 299.376 777.053 300.036 777.432C300.702 777.803 301.21 778.228 301.558 778.705C301.914 779.175 302.191 779.561 302.388 779.864H302.615V771.273H305.297V794.546H302.706V791.864H302.388C302.191 792.182 301.911 792.584 301.547 793.069C301.183 793.546 300.664 793.974 299.99 794.353C299.316 794.724 298.418 794.91 297.297 794.91ZM297.661 792.5C298.736 792.5 299.645 792.22 300.388 791.66C301.13 791.091 301.695 790.307 302.081 789.307C302.467 788.3 302.661 787.137 302.661 785.819C302.661 784.516 302.471 783.375 302.092 782.398C301.714 781.413 301.153 780.648 300.411 780.103C299.668 779.55 298.751 779.273 297.661 779.273C296.524 779.273 295.577 779.565 294.82 780.148C294.07 780.724 293.505 781.508 293.126 782.5C292.755 783.485 292.57 784.591 292.57 785.819C292.57 787.061 292.759 788.19 293.138 789.205C293.524 790.213 294.092 791.016 294.842 791.614C295.6 792.205 296.539 792.5 297.661 792.5ZM310.581 794.546V777.091H313.263V794.546H310.581ZM311.945 774.182C311.422 774.182 310.971 774.004 310.592 773.648C310.221 773.292 310.036 772.864 310.036 772.364C310.036 771.864 310.221 771.436 310.592 771.08C310.971 770.724 311.422 770.546 311.945 770.546C312.467 770.546 312.914 770.724 313.286 771.08C313.664 771.436 313.854 771.864 313.854 772.364C313.854 772.864 313.664 773.292 313.286 773.648C312.914 774.004 312.467 774.182 311.945 774.182ZM323.311 794.955C322.205 794.955 321.201 794.747 320.3 794.33C319.398 793.906 318.682 793.296 318.152 792.5C317.622 791.697 317.357 790.728 317.357 789.591C317.357 788.591 317.554 787.781 317.947 787.16C318.341 786.531 318.868 786.038 319.527 785.682C320.186 785.326 320.913 785.061 321.709 784.887C322.512 784.705 323.319 784.561 324.129 784.455C325.19 784.319 326.05 784.216 326.709 784.148C327.376 784.072 327.86 783.947 328.163 783.773C328.474 783.599 328.629 783.296 328.629 782.864V782.773C328.629 781.652 328.322 780.781 327.709 780.16C327.103 779.538 326.182 779.228 324.947 779.228C323.667 779.228 322.663 779.508 321.936 780.069C321.209 780.629 320.697 781.228 320.402 781.864L317.857 780.955C318.311 779.894 318.917 779.069 319.675 778.478C320.44 777.879 321.273 777.463 322.175 777.228C323.084 776.985 323.978 776.864 324.857 776.864C325.417 776.864 326.061 776.932 326.788 777.069C327.523 777.197 328.232 777.466 328.913 777.875C329.603 778.285 330.175 778.902 330.629 779.728C331.084 780.553 331.311 781.66 331.311 783.046V794.546H328.629V792.182H328.493C328.311 792.561 328.008 792.966 327.584 793.398C327.16 793.83 326.595 794.197 325.891 794.5C325.186 794.803 324.326 794.955 323.311 794.955ZM323.72 792.546C324.781 792.546 325.675 792.338 326.402 791.921C327.137 791.504 327.69 790.966 328.061 790.307C328.44 789.648 328.629 788.955 328.629 788.228V785.773C328.516 785.91 328.266 786.035 327.879 786.148C327.501 786.254 327.061 786.349 326.561 786.432C326.069 786.508 325.588 786.576 325.118 786.637C324.656 786.69 324.281 786.735 323.993 786.773C323.296 786.864 322.644 787.012 322.038 787.216C321.44 787.413 320.955 787.713 320.584 788.114C320.22 788.508 320.038 789.046 320.038 789.728C320.038 790.66 320.383 791.364 321.072 791.841C321.769 792.311 322.652 792.546 323.72 792.546ZM338.888 771.273V794.546H336.206V771.273H338.888ZM346.482 771.273V794.546H343.8V771.273H346.482ZM353.121 801.091C352.666 801.091 352.261 801.053 351.905 800.978C351.549 800.91 351.303 800.841 351.166 800.773L351.848 798.41C352.5 798.576 353.075 798.637 353.575 798.591C354.075 798.546 354.519 798.322 354.905 797.921C355.299 797.527 355.659 796.887 355.984 796L356.484 794.637L350.03 777.091H352.939L357.757 791H357.939L362.757 777.091H365.666L358.257 797.091C357.924 797.993 357.511 798.739 357.019 799.33C356.526 799.928 355.954 800.372 355.303 800.66C354.659 800.947 353.931 801.091 353.121 801.091Z" fill="white"/>
<path d="M662.979 161.206L660.479 161.206L660.479 143.751L662.979 143.751L662.979 151.069L683.751 151.069L683.751 153.887L662.979 153.887L662.979 161.206ZM683.751 141.578L666.297 141.578L666.297 138.987L668.933 138.987L668.933 138.805C668.07 138.487 667.369 137.911 666.831 137.078C666.293 136.244 666.024 135.305 666.024 134.259C666.024 134.063 666.028 133.816 666.036 133.521C666.043 133.225 666.054 133.002 666.07 132.85L668.797 132.85C668.774 132.941 668.74 133.15 668.695 133.475C668.642 133.794 668.615 134.131 668.615 134.487C668.615 135.335 668.793 136.093 669.149 136.759C669.498 137.419 669.983 137.941 670.604 138.328C671.217 138.706 671.918 138.896 672.706 138.896L683.751 138.896L683.751 141.578ZM684.161 124.535C684.161 125.641 683.952 126.645 683.536 127.546C683.111 128.448 682.501 129.164 681.706 129.694C680.903 130.224 679.933 130.49 678.797 130.49C677.797 130.49 676.986 130.293 676.365 129.899C675.736 129.505 675.244 128.978 674.888 128.319C674.532 127.66 674.267 126.933 674.092 126.137C673.911 125.334 673.767 124.527 673.661 123.717C673.524 122.656 673.422 121.796 673.354 121.137C673.278 120.471 673.153 119.986 672.979 119.683C672.804 119.372 672.501 119.217 672.07 119.217L671.979 119.217C670.858 119.217 669.986 119.524 669.365 120.137C668.744 120.743 668.433 121.664 668.433 122.899C668.433 124.179 668.714 125.183 669.274 125.91C669.835 126.637 670.433 127.149 671.07 127.444L670.161 129.99C669.1 129.535 668.274 128.929 667.683 128.171C667.085 127.406 666.668 126.573 666.433 125.671C666.191 124.762 666.07 123.868 666.07 122.99C666.07 122.429 666.138 121.785 666.274 121.058C666.403 120.323 666.672 119.615 667.081 118.933C667.49 118.243 668.108 117.671 668.933 117.217C669.759 116.762 670.865 116.535 672.251 116.535L683.751 116.535L683.751 119.217L681.388 119.217L681.388 119.353C681.767 119.535 682.172 119.838 682.604 120.262C683.036 120.687 683.403 121.251 683.706 121.956C684.009 122.66 684.161 123.52 684.161 124.535ZM681.751 124.126C681.751 123.065 681.543 122.171 681.126 121.444C680.71 120.709 680.172 120.156 679.513 119.785C678.854 119.406 678.161 119.217 677.433 119.217L674.979 119.217C675.115 119.331 675.24 119.581 675.354 119.967C675.46 120.346 675.554 120.785 675.638 121.285C675.714 121.777 675.782 122.259 675.842 122.728C675.895 123.19 675.941 123.565 675.979 123.853C676.07 124.55 676.217 125.202 676.422 125.808C676.619 126.406 676.918 126.891 677.32 127.262C677.714 127.626 678.251 127.808 678.933 127.808C679.865 127.808 680.57 127.463 681.047 126.774C681.517 126.077 681.751 125.194 681.751 124.126ZM684.115 104.549C684.115 106.186 683.729 107.595 682.956 108.777C682.183 109.958 681.119 110.867 679.763 111.504C678.407 112.14 676.858 112.458 675.115 112.458C673.342 112.458 671.778 112.133 670.422 111.481C669.058 110.822 667.994 109.905 667.229 108.731C666.456 107.549 666.07 106.17 666.07 104.595C666.07 103.367 666.297 102.261 666.751 101.277C667.206 100.292 667.842 99.4849 668.661 98.8561C669.479 98.2273 670.433 97.8371 671.524 97.6856L671.524 100.367C670.729 100.572 670.024 101.027 669.411 101.731C668.789 102.428 668.479 103.367 668.479 104.549C668.479 105.595 668.751 106.511 669.297 107.299C669.835 108.08 670.596 108.689 671.581 109.129C672.558 109.561 673.706 109.777 675.024 109.777C676.373 109.777 677.547 109.564 678.547 109.14C679.547 108.708 680.323 108.102 680.876 107.322C681.429 106.534 681.706 105.61 681.706 104.549C681.706 103.852 681.585 103.22 681.342 102.652C681.1 102.083 680.751 101.602 680.297 101.208C679.842 100.814 679.297 100.534 678.661 100.367L678.661 97.6856C679.691 97.8371 680.619 98.2121 681.445 98.8106C682.263 99.4015 682.914 100.186 683.399 101.163C683.876 102.133 684.115 103.261 684.115 104.549ZM677.388 91.2652L674.07 91.3106L674.07 90.7652L666.297 83.1288L666.297 79.8106L674.524 87.947L674.524 88.1743L677.388 91.2652ZM683.751 93.7652L660.479 93.7652L660.479 91.0834L683.751 91.0834L683.751 93.7652ZM683.751 82.6743L675.115 89.4925L673.251 87.5834L683.751 79.2652L683.751 82.6743ZM684.07 59.8135C684.07 61.5256 683.604 62.9839 682.672 64.1885C681.733 65.393 680.373 66.3135 678.592 66.9498C676.804 67.5862 674.645 67.9044 672.115 67.9044C669.6 67.9044 667.452 67.5862 665.672 66.9498C663.884 66.3059 662.52 65.3817 661.581 64.1771C660.634 62.965 660.161 61.5104 660.161 59.8135C660.161 58.1165 660.634 56.6657 661.581 55.4612C662.52 54.2491 663.884 53.3248 665.672 52.6885C667.452 52.0445 669.6 51.7226 672.115 51.7226C674.645 51.7226 676.804 52.0407 678.592 52.6771C680.373 53.3135 681.733 54.2339 682.672 55.4385C683.604 56.643 684.07 58.1014 684.07 59.8135ZM681.57 59.8135C681.57 58.1165 680.751 56.7983 679.115 55.8589C677.479 54.9195 675.145 54.4498 672.115 54.4498C670.1 54.4498 668.384 54.6657 666.967 55.0976C665.551 55.5218 664.471 56.1354 663.729 56.9385C662.986 57.7339 662.615 58.6923 662.615 59.8135C662.615 61.4953 663.445 62.8097 665.104 63.7567C666.755 64.7036 669.092 65.1771 672.115 65.1771C674.13 65.1771 675.842 64.965 677.251 64.5407C678.661 64.1165 679.733 63.5067 680.467 62.7112C681.202 61.9082 681.57 60.9423 681.57 59.8135Z" fill="white"/>
<path d="M608.979 161.206L606.479 161.206L606.479 143.751L608.979 143.751L608.979 151.069L629.751 151.069L629.751 153.887L608.979 153.887L608.979 161.206ZM629.751 141.578L612.297 141.578L612.297 138.987L614.933 138.987L614.933 138.805C614.07 138.487 613.369 137.911 612.831 137.078C612.293 136.244 612.024 135.305 612.024 134.259C612.024 134.063 612.028 133.816 612.036 133.521C612.043 133.225 612.054 133.002 612.07 132.85L614.797 132.85C614.774 132.941 614.74 133.15 614.695 133.475C614.642 133.794 614.615 134.131 614.615 134.487C614.615 135.335 614.793 136.093 615.149 136.759C615.498 137.419 615.983 137.941 616.604 138.328C617.217 138.706 617.918 138.896 618.706 138.896L629.751 138.896L629.751 141.578ZM630.161 124.535C630.161 125.641 629.952 126.645 629.536 127.546C629.111 128.448 628.501 129.164 627.706 129.694C626.903 130.224 625.933 130.49 624.797 130.49C623.797 130.49 622.986 130.293 622.365 129.899C621.736 129.505 621.244 128.978 620.888 128.319C620.532 127.66 620.267 126.933 620.092 126.137C619.911 125.334 619.767 124.527 619.661 123.717C619.524 122.656 619.422 121.796 619.354 121.137C619.278 120.471 619.153 119.986 618.979 119.683C618.804 119.372 618.501 119.217 618.07 119.217L617.979 119.217C616.858 119.217 615.986 119.524 615.365 120.137C614.744 120.743 614.433 121.664 614.433 122.899C614.433 124.179 614.714 125.183 615.274 125.91C615.835 126.637 616.433 127.149 617.07 127.444L616.161 129.99C615.1 129.535 614.274 128.929 613.683 128.171C613.085 127.406 612.668 126.573 612.433 125.671C612.191 124.762 612.07 123.868 612.07 122.99C612.07 122.429 612.138 121.785 612.274 121.058C612.403 120.323 612.672 119.615 613.081 118.933C613.49 118.243 614.108 117.671 614.933 117.217C615.759 116.762 616.865 116.535 618.251 116.535L629.751 116.535L629.751 119.217L627.388 119.217L627.388 119.353C627.767 119.535 628.172 119.838 628.604 120.262C629.036 120.687 629.403 121.251 629.706 121.956C630.009 122.66 630.161 123.52 630.161 124.535ZM627.751 124.126C627.751 123.065 627.543 122.171 627.126 121.444C626.71 120.709 626.172 120.156 625.513 119.785C624.854 119.406 624.161 119.217 623.433 119.217L620.979 119.217C621.115 119.331 621.24 119.581 621.354 119.967C621.46 120.346 621.554 120.785 621.638 121.285C621.714 121.777 621.782 122.259 621.842 122.728C621.895 123.19 621.941 123.565 621.979 123.853C622.07 124.55 622.217 125.202 622.422 125.808C622.619 126.406 622.918 126.891 623.32 127.262C623.714 127.626 624.251 127.808 624.933 127.808C625.865 127.808 626.57 127.463 627.047 126.774C627.517 126.077 627.751 125.194 627.751 124.126ZM630.115 104.549C630.115 106.186 629.729 107.595 628.956 108.777C628.183 109.958 627.119 110.867 625.763 111.504C624.407 112.14 622.858 112.458 621.115 112.458C619.342 112.458 617.778 112.133 616.422 111.481C615.058 110.822 613.994 109.905 613.229 108.731C612.456 107.549 612.07 106.17 612.07 104.595C612.07 103.367 612.297 102.261 612.751 101.277C613.206 100.292 613.842 99.4849 614.661 98.8561C615.479 98.2273 616.433 97.8371 617.524 97.6856L617.524 100.367C616.729 100.572 616.024 101.027 615.411 101.731C614.789 102.428 614.479 103.367 614.479 104.549C614.479 105.595 614.751 106.511 615.297 107.299C615.835 108.08 616.596 108.689 617.581 109.129C618.558 109.561 619.706 109.777 621.024 109.777C622.373 109.777 623.547 109.564 624.547 109.14C625.547 108.708 626.323 108.102 626.876 107.322C627.429 106.534 627.706 105.61 627.706 104.549C627.706 103.852 627.585 103.22 627.342 102.652C627.1 102.083 626.751 101.602 626.297 101.208C625.842 100.814 625.297 100.534 624.661 100.367L624.661 97.6856C625.691 97.8371 626.619 98.2121 627.445 98.8106C628.263 99.4015 628.914 100.186 629.399 101.163C629.876 102.133 630.115 103.261 630.115 104.549ZM623.388 91.2652L620.07 91.3106L620.07 90.7652L612.297 83.1288L612.297 79.8106L620.524 87.947L620.524 88.1743L623.388 91.2652ZM629.751 93.7652L606.479 93.7652L606.479 91.0834L629.751 91.0834L629.751 93.7652ZM629.751 82.6743L621.115 89.4925L619.251 87.5834L629.751 79.2652L629.751 82.6743ZM606.479 59.2226L629.751 59.2226L629.751 62.0407L609.433 62.0407L609.433 62.1771L613.206 67.8589L610.342 67.8589L606.479 62.0407L606.479 59.2226Z" fill="white"/>
<path d="M554.979 161.206L552.479 161.206L552.479 143.751L554.979 143.751L554.979 151.069L575.751 151.069L575.751 153.887L554.979 153.887L554.979 161.206ZM575.751 141.578L558.297 141.578L558.297 138.987L560.933 138.987L560.933 138.805C560.07 138.487 559.369 137.911 558.831 137.078C558.293 136.244 558.024 135.305 558.024 134.259C558.024 134.063 558.028 133.816 558.036 133.521C558.043 133.225 558.054 133.002 558.07 132.85L560.797 132.85C560.774 132.941 560.74 133.15 560.695 133.475C560.642 133.794 560.615 134.131 560.615 134.487C560.615 135.335 560.793 136.093 561.149 136.759C561.498 137.419 561.983 137.941 562.604 138.328C563.217 138.706 563.918 138.896 564.706 138.896L575.751 138.896L575.751 141.578ZM576.161 124.535C576.161 125.641 575.952 126.645 575.536 127.546C575.111 128.448 574.501 129.164 573.706 129.694C572.903 130.224 571.933 130.49 570.797 130.49C569.797 130.49 568.986 130.293 568.365 129.899C567.736 129.505 567.244 128.978 566.888 128.319C566.532 127.66 566.267 126.933 566.092 126.137C565.911 125.334 565.767 124.527 565.661 123.717C565.524 122.656 565.422 121.796 565.354 121.137C565.278 120.471 565.153 119.986 564.979 119.683C564.804 119.372 564.501 119.217 564.07 119.217L563.979 119.217C562.858 119.217 561.986 119.524 561.365 120.137C560.744 120.743 560.433 121.664 560.433 122.899C560.433 124.179 560.714 125.183 561.274 125.91C561.835 126.637 562.433 127.149 563.07 127.444L562.161 129.99C561.1 129.535 560.274 128.929 559.683 128.171C559.085 127.406 558.668 126.573 558.433 125.671C558.191 124.762 558.07 123.868 558.07 122.99C558.07 122.429 558.138 121.785 558.274 121.058C558.403 120.323 558.672 119.615 559.081 118.933C559.49 118.243 560.108 117.671 560.933 117.217C561.759 116.762 562.865 116.535 564.251 116.535L575.751 116.535L575.751 119.217L573.388 119.217L573.388 119.353C573.767 119.535 574.172 119.838 574.604 120.262C575.036 120.687 575.403 121.251 575.706 121.956C576.009 122.66 576.161 123.52 576.161 124.535ZM573.751 124.126C573.751 123.065 573.543 122.171 573.126 121.444C572.71 120.709 572.172 120.156 571.513 119.785C570.854 119.406 570.161 119.217 569.433 119.217L566.979 119.217C567.115 119.331 567.24 119.581 567.354 119.967C567.46 120.346 567.554 120.785 567.638 121.285C567.714 121.777 567.782 122.259 567.842 122.728C567.895 123.19 567.941 123.565 567.979 123.853C568.07 124.55 568.217 125.202 568.422 125.808C568.619 126.406 568.918 126.891 569.32 127.262C569.714 127.626 570.251 127.808 570.933 127.808C571.865 127.808 572.57 127.463 573.047 126.774C573.517 126.077 573.751 125.194 573.751 124.126ZM576.115 104.549C576.115 106.186 575.729 107.595 574.956 108.777C574.183 109.958 573.119 110.867 571.763 111.504C570.407 112.14 568.858 112.458 567.115 112.458C565.342 112.458 563.778 112.133 562.422 111.481C561.058 110.822 559.994 109.905 559.229 108.731C558.456 107.549 558.07 106.17 558.07 104.595C558.07 103.367 558.297 102.261 558.751 101.277C559.206 100.292 559.842 99.4849 560.661 98.8561C561.479 98.2273 562.433 97.8371 563.524 97.6856L563.524 100.367C562.729 100.572 562.024 101.027 561.411 101.731C560.789 102.428 560.479 103.367 560.479 104.549C560.479 105.595 560.751 106.511 561.297 107.299C561.835 108.08 562.596 108.689 563.581 109.129C564.558 109.561 565.706 109.777 567.024 109.777C568.373 109.777 569.547 109.564 570.547 109.14C571.547 108.708 572.323 108.102 572.876 107.322C573.429 106.534 573.706 105.61 573.706 104.549C573.706 103.852 573.585 103.22 573.342 102.652C573.1 102.083 572.751 101.602 572.297 101.208C571.842 100.814 571.297 100.534 570.661 100.367L570.661 97.6856C571.691 97.8371 572.619 98.2121 573.445 98.8106C574.263 99.4015 574.914 100.186 575.399 101.163C575.876 102.133 576.115 103.261 576.115 104.549ZM569.388 91.2652L566.07 91.3106L566.07 90.7652L558.297 83.1288L558.297 79.8106L566.524 87.947L566.524 88.1743L569.388 91.2652ZM575.751 93.7652L552.479 93.7652L552.479 91.0834L575.751 91.0834L575.751 93.7652ZM575.751 82.6743L567.115 89.4925L565.251 87.5834L575.751 79.2652L575.751 82.6743ZM575.751 67.4044L573.706 67.4044L565.297 59.7226C564.312 58.8211 563.456 58.0786 562.729 57.4953C561.994 56.912 561.304 56.4801 560.661 56.1998C560.009 55.912 559.327 55.768 558.615 55.768C557.797 55.768 557.089 55.965 556.49 56.3589C555.892 56.7453 555.429 57.2756 555.104 57.9498C554.778 58.6241 554.615 59.3817 554.615 60.2226C554.615 61.1165 554.801 61.8968 555.172 62.5635C555.536 63.2226 556.047 63.7339 556.706 64.0976C557.365 64.4536 558.138 64.6317 559.024 64.6317L559.024 67.3135C557.661 67.3135 556.464 66.9991 555.433 66.3703C554.403 65.7415 553.6 64.8854 553.024 63.8021C552.448 62.7112 552.161 61.4877 552.161 60.1317C552.161 58.768 552.448 57.5597 553.024 56.5067C553.6 55.4536 554.376 54.6279 555.354 54.0294C556.331 53.4309 557.418 53.1317 558.615 53.1317C559.471 53.1317 560.308 53.287 561.126 53.5976C561.937 53.9006 562.842 54.4309 563.842 55.1885C564.835 55.9385 566.047 56.9801 567.479 58.3135L573.07 63.5407L573.251 63.5407L573.251 52.7226L575.751 52.7226L575.751 67.4044Z" fill="white"/>
<path d="M500.979 161.206L498.479 161.206L498.479 143.751L500.979 143.751L500.979 151.069L521.751 151.069L521.751 153.887L500.979 153.887L500.979 161.206ZM521.751 141.578L504.297 141.578L504.297 138.987L506.933 138.987L506.933 138.805C506.07 138.487 505.369 137.911 504.831 137.078C504.293 136.244 504.024 135.305 504.024 134.259C504.024 134.063 504.028 133.816 504.036 133.521C504.043 133.225 504.054 133.002 504.07 132.85L506.797 132.85C506.774 132.941 506.74 133.15 506.695 133.475C506.642 133.794 506.615 134.131 506.615 134.487C506.615 135.335 506.793 136.093 507.149 136.759C507.498 137.419 507.983 137.941 508.604 138.328C509.217 138.706 509.918 138.896 510.706 138.896L521.751 138.896L521.751 141.578ZM522.161 124.535C522.161 125.641 521.952 126.645 521.536 127.546C521.111 128.448 520.501 129.164 519.706 129.694C518.903 130.224 517.933 130.49 516.797 130.49C515.797 130.49 514.986 130.293 514.365 129.899C513.736 129.505 513.244 128.978 512.888 128.319C512.532 127.66 512.267 126.933 512.092 126.137C511.911 125.334 511.767 124.527 511.661 123.717C511.524 122.656 511.422 121.796 511.354 121.137C511.278 120.471 511.153 119.986 510.979 119.683C510.804 119.372 510.501 119.217 510.07 119.217L509.979 119.217C508.858 119.217 507.986 119.524 507.365 120.137C506.744 120.743 506.433 121.664 506.433 122.899C506.433 124.179 506.714 125.183 507.274 125.91C507.835 126.637 508.433 127.149 509.07 127.444L508.161 129.99C507.1 129.535 506.274 128.929 505.683 128.171C505.085 127.406 504.668 126.573 504.433 125.671C504.191 124.762 504.07 123.868 504.07 122.99C504.07 122.429 504.138 121.785 504.274 121.058C504.403 120.323 504.672 119.615 505.081 118.933C505.49 118.243 506.108 117.671 506.933 117.217C507.759 116.762 508.865 116.535 510.251 116.535L521.751 116.535L521.751 119.217L519.388 119.217L519.388 119.353C519.767 119.535 520.172 119.838 520.604 120.262C521.036 120.687 521.403 121.251 521.706 121.956C522.009 122.66 522.161 123.52 522.161 124.535ZM519.751 124.126C519.751 123.065 519.543 122.171 519.126 121.444C518.71 120.709 518.172 120.156 517.513 119.785C516.854 119.406 516.161 119.217 515.433 119.217L512.979 119.217C513.115 119.331 513.24 119.581 513.354 119.967C513.46 120.346 513.554 120.785 513.638 121.285C513.714 121.777 513.782 122.259 513.842 122.728C513.895 123.19 513.941 123.565 513.979 123.853C514.07 124.55 514.217 125.202 514.422 125.808C514.619 126.406 514.918 126.891 515.32 127.262C515.714 127.626 516.251 127.808 516.933 127.808C517.865 127.808 518.57 127.463 519.047 126.774C519.517 126.077 519.751 125.194 519.751 124.126ZM522.115 104.549C522.115 106.186 521.729 107.595 520.956 108.777C520.183 109.958 519.119 110.867 517.763 111.504C516.407 112.14 514.858 112.458 513.115 112.458C511.342 112.458 509.778 112.133 508.422 111.481C507.058 110.822 505.994 109.905 505.229 108.731C504.456 107.549 504.07 106.17 504.07 104.595C504.07 103.367 504.297 102.261 504.751 101.277C505.206 100.292 505.842 99.4849 506.661 98.8561C507.479 98.2273 508.433 97.8371 509.524 97.6856L509.524 100.367C508.729 100.572 508.024 101.027 507.411 101.731C506.789 102.428 506.479 103.367 506.479 104.549C506.479 105.595 506.751 106.511 507.297 107.299C507.835 108.08 508.596 108.689 509.581 109.129C510.558 109.561 511.706 109.777 513.024 109.777C514.373 109.777 515.547 109.564 516.547 109.14C517.547 108.708 518.323 108.102 518.876 107.322C519.429 106.534 519.706 105.61 519.706 104.549C519.706 103.852 519.585 103.22 519.342 102.652C519.1 102.083 518.751 101.602 518.297 101.208C517.842 100.814 517.297 100.534 516.661 100.367L516.661 97.6856C517.691 97.8371 518.619 98.2121 519.445 98.8106C520.263 99.4015 520.914 100.186 521.399 101.163C521.876 102.133 522.115 103.261 522.115 104.549ZM515.388 91.2652L512.07 91.3106L512.07 90.7652L504.297 83.1288L504.297 79.8106L512.524 87.947L512.524 88.1743L515.388 91.2652ZM521.751 93.7652L498.479 93.7652L498.479 91.0834L521.751 91.0834L521.751 93.7652ZM521.751 82.6743L513.115 89.4925L511.251 87.5834L521.751 79.2652L521.751 82.6743ZM522.07 59.5407C522.07 61.0407 521.812 62.3779 521.297 63.5521C520.782 64.7188 520.066 65.6468 519.149 66.3362C518.225 67.018 517.153 67.3892 515.933 67.4498L515.933 64.5862C516.683 64.5256 517.331 64.268 517.876 63.8135C518.414 63.3589 518.831 62.7642 519.126 62.0294C519.422 61.2945 519.57 60.4801 519.57 59.5862C519.57 58.5862 519.395 57.6998 519.047 56.9271C518.698 56.1544 518.214 55.5483 517.592 55.1089C516.971 54.6695 516.251 54.4498 515.433 54.4498C514.577 54.4498 513.823 54.662 513.172 55.0862C512.513 55.5104 511.998 56.1317 511.626 56.9498C511.255 57.768 511.07 58.768 511.07 59.9498L511.07 61.8135L508.57 61.8135L508.57 59.9498C508.57 59.0256 508.403 58.215 508.07 57.518C507.736 56.8135 507.267 56.2642 506.661 55.8703C506.054 55.4688 505.342 55.268 504.524 55.268C503.736 55.268 503.051 55.4423 502.467 55.7907C501.884 56.1392 501.429 56.6317 501.104 57.268C500.778 57.8968 500.615 58.6392 500.615 59.4953C500.615 60.2983 500.763 61.0559 501.058 61.768C501.346 62.4726 501.767 63.0483 502.32 63.4953C502.865 63.9423 503.524 64.1847 504.297 64.2226L504.297 66.9498C503.077 66.9044 502.009 66.537 501.092 65.8476C500.168 65.1582 499.448 64.2567 498.933 63.143C498.418 62.0218 498.161 60.7907 498.161 59.4498C498.161 58.0104 498.452 56.7756 499.036 55.7453C499.611 54.715 500.373 53.9233 501.32 53.3703C502.267 52.8173 503.289 52.5407 504.388 52.5407C505.698 52.5407 506.816 52.8854 507.74 53.5748C508.664 54.2567 509.304 55.1847 509.661 56.3589L509.842 56.3589C510.085 54.8892 510.71 53.7415 511.717 52.9157C512.717 52.09 513.956 51.6771 515.433 51.6771C516.698 51.6771 517.835 52.0218 518.842 52.7112C519.842 53.393 520.63 54.3248 521.206 55.5067C521.782 56.6885 522.07 58.0332 522.07 59.5407Z" fill="white"/>
<path d="M446.979 161.206L444.479 161.206L444.479 143.751L446.979 143.751L446.979 151.069L467.751 151.069L467.751 153.887L446.979 153.887L446.979 161.206ZM467.751 141.578L450.297 141.578L450.297 138.987L452.933 138.987L452.933 138.805C452.07 138.487 451.369 137.911 450.831 137.078C450.293 136.244 450.024 135.305 450.024 134.259C450.024 134.063 450.028 133.816 450.036 133.521C450.043 133.225 450.054 133.002 450.07 132.85L452.797 132.85C452.774 132.941 452.74 133.15 452.695 133.475C452.642 133.794 452.615 134.131 452.615 134.487C452.615 135.335 452.793 136.093 453.149 136.759C453.498 137.419 453.983 137.941 454.604 138.328C455.217 138.706 455.918 138.896 456.706 138.896L467.751 138.896L467.751 141.578ZM468.161 124.535C468.161 125.641 467.952 126.645 467.536 127.546C467.111 128.448 466.501 129.164 465.706 129.694C464.903 130.224 463.933 130.49 462.797 130.49C461.797 130.49 460.986 130.293 460.365 129.899C459.736 129.505 459.244 128.978 458.888 128.319C458.532 127.66 458.267 126.933 458.092 126.137C457.911 125.334 457.767 124.527 457.661 123.717C457.524 122.656 457.422 121.796 457.354 121.137C457.278 120.471 457.153 119.986 456.979 119.683C456.804 119.372 456.501 119.217 456.07 119.217L455.979 119.217C454.858 119.217 453.986 119.524 453.365 120.137C452.744 120.743 452.433 121.664 452.433 122.899C452.433 124.179 452.714 125.183 453.274 125.91C453.835 126.637 454.433 127.149 455.07 127.444L454.161 129.99C453.1 129.535 452.274 128.929 451.683 128.171C451.085 127.406 450.668 126.573 450.433 125.671C450.191 124.762 450.07 123.868 450.07 122.99C450.07 122.429 450.138 121.785 450.274 121.058C450.403 120.323 450.672 119.615 451.081 118.933C451.49 118.243 452.108 117.671 452.933 117.217C453.759 116.762 454.865 116.535 456.251 116.535L467.751 116.535L467.751 119.217L465.388 119.217L465.388 119.353C465.767 119.535 466.172 119.838 466.604 120.262C467.036 120.687 467.403 121.251 467.706 121.956C468.009 122.66 468.161 123.52 468.161 124.535ZM465.751 124.126C465.751 123.065 465.543 122.171 465.126 121.444C464.71 120.709 464.172 120.156 463.513 119.785C462.854 119.406 462.161 119.217 461.433 119.217L458.979 119.217C459.115 119.331 459.24 119.581 459.354 119.967C459.46 120.346 459.554 120.785 459.638 121.285C459.714 121.777 459.782 122.259 459.842 122.728C459.895 123.19 459.941 123.565 459.979 123.853C460.07 124.55 460.217 125.202 460.422 125.808C460.619 126.406 460.918 126.891 461.32 127.262C461.714 127.626 462.251 127.808 462.933 127.808C463.865 127.808 464.57 127.463 465.047 126.774C465.517 126.077 465.751 125.194 465.751 124.126ZM468.115 104.549C468.115 106.186 467.729 107.595 466.956 108.777C466.183 109.958 465.119 110.867 463.763 111.504C462.407 112.14 460.858 112.458 459.115 112.458C457.342 112.458 455.778 112.133 454.422 111.481C453.058 110.822 451.994 109.905 451.229 108.731C450.456 107.549 450.07 106.17 450.07 104.595C450.07 103.367 450.297 102.261 450.751 101.277C451.206 100.292 451.842 99.4849 452.661 98.8561C453.479 98.2273 454.433 97.8371 455.524 97.6856L455.524 100.367C454.729 100.572 454.024 101.027 453.411 101.731C452.789 102.428 452.479 103.367 452.479 104.549C452.479 105.595 452.751 106.511 453.297 107.299C453.835 108.08 454.596 108.689 455.581 109.129C456.558 109.561 457.706 109.777 459.024 109.777C460.373 109.777 461.547 109.564 462.547 109.14C463.547 108.708 464.323 108.102 464.876 107.322C465.429 106.534 465.706 105.61 465.706 104.549C465.706 103.852 465.585 103.22 465.342 102.652C465.1 102.083 464.751 101.602 464.297 101.208C463.842 100.814 463.297 100.534 462.661 100.367L462.661 97.6856C463.691 97.8371 464.619 98.2121 465.445 98.8106C466.263 99.4015 466.914 100.186 467.399 101.163C467.876 102.133 468.115 103.261 468.115 104.549ZM461.388 91.2652L458.07 91.3106L458.07 90.7652L450.297 83.1288L450.297 79.8106L458.524 87.947L458.524 88.1743L461.388 91.2652ZM467.751 93.7652L444.479 93.7652L444.479 91.0834L467.751 91.0834L467.751 93.7652ZM467.751 82.6743L459.115 89.4925L457.251 87.5834L467.751 79.2652L467.751 82.6743ZM462.979 67.9498L460.661 67.9498L444.479 57.7226L444.479 56.0407L448.07 56.0407L448.07 57.1771L460.297 64.9044L460.479 64.9044L460.479 51.1317L462.979 51.1317L462.979 67.9498ZM467.751 56.9953L462.274 56.9953L461.195 56.9953L444.479 56.9953L444.479 54.3135L467.751 54.3135L467.751 56.9953Z" fill="white"/>
<path d="M385.979 161.206L383.479 161.206L383.479 143.751L385.979 143.751L385.979 151.069L406.751 151.069L406.751 153.887L385.979 153.887L385.979 161.206ZM406.751 141.578L389.297 141.578L389.297 138.987L391.933 138.987L391.933 138.805C391.07 138.487 390.369 137.911 389.831 137.078C389.293 136.244 389.024 135.305 389.024 134.259C389.024 134.063 389.028 133.816 389.036 133.521C389.043 133.225 389.054 133.002 389.07 132.85L391.797 132.85C391.774 132.941 391.74 133.15 391.695 133.475C391.642 133.794 391.615 134.131 391.615 134.487C391.615 135.335 391.793 136.093 392.149 136.759C392.498 137.419 392.983 137.941 393.604 138.328C394.217 138.706 394.918 138.896 395.706 138.896L406.751 138.896L406.751 141.578ZM407.161 124.535C407.161 125.641 406.952 126.645 406.536 127.546C406.111 128.448 405.501 129.164 404.706 129.694C403.903 130.224 402.933 130.49 401.797 130.49C400.797 130.49 399.986 130.293 399.365 129.899C398.736 129.505 398.244 128.978 397.888 128.319C397.532 127.66 397.267 126.933 397.092 126.137C396.911 125.334 396.767 124.527 396.661 123.717C396.524 122.656 396.422 121.796 396.354 121.137C396.278 120.471 396.153 119.986 395.979 119.683C395.804 119.372 395.501 119.217 395.07 119.217L394.979 119.217C393.858 119.217 392.986 119.524 392.365 120.137C391.744 120.743 391.433 121.664 391.433 122.899C391.433 124.179 391.714 125.183 392.274 125.91C392.835 126.637 393.433 127.149 394.07 127.444L393.161 129.99C392.1 129.535 391.274 128.929 390.683 128.171C390.085 127.406 389.668 126.573 389.433 125.671C389.191 124.762 389.07 123.868 389.07 122.99C389.07 122.429 389.138 121.785 389.274 121.058C389.403 120.323 389.672 119.615 390.081 118.933C390.49 118.243 391.108 117.671 391.933 117.217C392.759 116.762 393.865 116.535 395.251 116.535L406.751 116.535L406.751 119.217L404.388 119.217L404.388 119.353C404.767 119.535 405.172 119.838 405.604 120.262C406.036 120.687 406.403 121.251 406.706 121.956C407.009 122.66 407.161 123.52 407.161 124.535ZM404.751 124.126C404.751 123.065 404.543 122.171 404.126 121.444C403.71 120.709 403.172 120.156 402.513 119.785C401.854 119.406 401.161 119.217 400.433 119.217L397.979 119.217C398.115 119.331 398.24 119.581 398.354 119.967C398.46 120.346 398.554 120.785 398.638 121.285C398.714 121.777 398.782 122.259 398.842 122.728C398.895 123.19 398.941 123.565 398.979 123.853C399.07 124.55 399.217 125.202 399.422 125.808C399.619 126.406 399.918 126.891 400.32 127.262C400.714 127.626 401.251 127.808 401.933 127.808C402.865 127.808 403.57 127.463 404.047 126.774C404.517 126.077 404.751 125.194 404.751 124.126ZM407.115 104.549C407.115 106.186 406.729 107.595 405.956 108.777C405.183 109.958 404.119 110.867 402.763 111.504C401.407 112.14 399.858 112.458 398.115 112.458C396.342 112.458 394.778 112.133 393.422 111.481C392.058 110.822 390.994 109.905 390.229 108.731C389.456 107.549 389.07 106.17 389.07 104.595C389.07 103.367 389.297 102.261 389.751 101.277C390.206 100.292 390.842 99.4849 391.661 98.8561C392.479 98.2273 393.433 97.8371 394.524 97.6856L394.524 100.367C393.729 100.572 393.024 101.027 392.411 101.731C391.789 102.428 391.479 103.367 391.479 104.549C391.479 105.595 391.751 106.511 392.297 107.299C392.835 108.08 393.596 108.689 394.581 109.129C395.558 109.561 396.706 109.777 398.024 109.777C399.373 109.777 400.547 109.564 401.547 109.14C402.547 108.708 403.323 108.102 403.876 107.322C404.429 106.534 404.706 105.61 404.706 104.549C404.706 103.852 404.585 103.22 404.342 102.652C404.1 102.083 403.751 101.602 403.297 101.208C402.842 100.814 402.297 100.534 401.661 100.367L401.661 97.6856C402.691 97.8371 403.619 98.2121 404.445 98.8106C405.263 99.4015 405.914 100.186 406.399 101.163C406.876 102.133 407.115 103.261 407.115 104.549ZM400.388 91.2652L397.07 91.3106L397.07 90.7652L389.297 83.1288L389.297 79.8106L397.524 87.947L397.524 88.1743L400.388 91.2652ZM406.751 93.7652L383.479 93.7652L383.479 91.0834L406.751 91.0834L406.751 93.7652ZM406.751 82.6743L398.115 89.4925L396.251 87.5834L406.751 79.2652L406.751 82.6743ZM407.07 60.1317C407.07 61.465 406.804 62.6657 406.274 63.7339C405.744 64.8021 405.017 65.6582 404.092 66.3021C403.168 66.9461 402.115 67.2983 400.933 67.3589L400.933 64.6317C401.986 64.5256 402.858 64.0483 403.547 63.1998C404.229 62.3438 404.57 61.3211 404.57 60.1317C404.57 59.1771 404.346 58.3286 403.899 57.5862C403.452 56.8362 402.839 56.2491 402.058 55.8248C401.27 55.393 400.38 55.1771 399.388 55.1771C398.373 55.1771 397.467 55.4006 396.672 55.8476C395.869 56.287 395.236 56.893 394.774 57.6657C394.312 58.4385 394.077 59.3211 394.07 60.3135C394.062 61.0256 394.172 61.7567 394.399 62.5067C394.619 63.2567 394.903 63.8741 395.251 64.3589L394.933 66.9953L383.479 65.5862L383.479 53.4953L385.979 53.4953L385.979 63.2226L392.842 64.0407L392.842 63.9044C392.464 63.4271 392.149 62.8286 391.899 62.1089C391.649 61.3892 391.524 60.6392 391.524 59.8589C391.524 58.4347 391.865 57.1657 392.547 56.0521C393.221 54.9309 394.145 54.0521 395.32 53.4157C396.494 52.7718 397.835 52.4498 399.342 52.4498C400.827 52.4498 402.153 52.7832 403.32 53.4498C404.479 54.1089 405.395 55.018 406.07 56.1771C406.736 57.3362 407.07 58.6544 407.07 60.1317Z" fill="white"/>
<path d="M335.979 161.206L333.479 161.206L333.479 143.751L335.979 143.751L335.979 151.069L356.751 151.069L356.751 153.887L335.979 153.887L335.979 161.206ZM356.751 141.578L339.297 141.578L339.297 138.987L341.933 138.987L341.933 138.805C341.07 138.487 340.369 137.911 339.831 137.078C339.293 136.244 339.024 135.305 339.024 134.259C339.024 134.063 339.028 133.816 339.036 133.521C339.043 133.225 339.054 133.002 339.07 132.85L341.797 132.85C341.774 132.941 341.74 133.15 341.695 133.475C341.642 133.794 341.615 134.131 341.615 134.487C341.615 135.335 341.793 136.093 342.149 136.759C342.498 137.419 342.983 137.941 343.604 138.328C344.217 138.706 344.918 138.896 345.706 138.896L356.751 138.896L356.751 141.578ZM357.161 124.535C357.161 125.641 356.952 126.645 356.536 127.546C356.111 128.448 355.501 129.164 354.706 129.694C353.903 130.224 352.933 130.49 351.797 130.49C350.797 130.49 349.986 130.293 349.365 129.899C348.736 129.505 348.244 128.978 347.888 128.319C347.532 127.66 347.267 126.933 347.092 126.137C346.911 125.334 346.767 124.527 346.661 123.717C346.524 122.656 346.422 121.796 346.354 121.137C346.278 120.471 346.153 119.986 345.979 119.683C345.804 119.372 345.501 119.217 345.07 119.217L344.979 119.217C343.858 119.217 342.986 119.524 342.365 120.137C341.744 120.743 341.433 121.664 341.433 122.899C341.433 124.179 341.714 125.183 342.274 125.91C342.835 126.637 343.433 127.149 344.07 127.444L343.161 129.99C342.1 129.535 341.274 128.929 340.683 128.171C340.085 127.406 339.668 126.573 339.433 125.671C339.191 124.762 339.07 123.868 339.07 122.99C339.07 122.429 339.138 121.785 339.274 121.058C339.403 120.323 339.672 119.615 340.081 118.933C340.49 118.243 341.108 117.671 341.933 117.217C342.759 116.762 343.865 116.535 345.251 116.535L356.751 116.535L356.751 119.217L354.388 119.217L354.388 119.353C354.767 119.535 355.172 119.838 355.604 120.262C356.036 120.687 356.403 121.251 356.706 121.956C357.009 122.66 357.161 123.52 357.161 124.535ZM354.751 124.126C354.751 123.065 354.543 122.171 354.126 121.444C353.71 120.709 353.172 120.156 352.513 119.785C351.854 119.406 351.161 119.217 350.433 119.217L347.979 119.217C348.115 119.331 348.24 119.581 348.354 119.967C348.46 120.346 348.554 120.785 348.638 121.285C348.714 121.777 348.782 122.259 348.842 122.728C348.895 123.19 348.941 123.565 348.979 123.853C349.07 124.55 349.217 125.202 349.422 125.808C349.619 126.406 349.918 126.891 350.32 127.262C350.714 127.626 351.251 127.808 351.933 127.808C352.865 127.808 353.57 127.463 354.047 126.774C354.517 126.077 354.751 125.194 354.751 124.126ZM357.115 104.549C357.115 106.186 356.729 107.595 355.956 108.777C355.183 109.958 354.119 110.867 352.763 111.504C351.407 112.14 349.858 112.458 348.115 112.458C346.342 112.458 344.778 112.133 343.422 111.481C342.058 110.822 340.994 109.905 340.229 108.731C339.456 107.549 339.07 106.17 339.07 104.595C339.07 103.367 339.297 102.261 339.751 101.277C340.206 100.292 340.842 99.4849 341.661 98.8561C342.479 98.2273 343.433 97.8371 344.524 97.6856L344.524 100.367C343.729 100.572 343.024 101.027 342.411 101.731C341.789 102.428 341.479 103.367 341.479 104.549C341.479 105.595 341.751 106.511 342.297 107.299C342.835 108.08 343.596 108.689 344.581 109.129C345.558 109.561 346.706 109.777 348.024 109.777C349.373 109.777 350.547 109.564 351.547 109.14C352.547 108.708 353.323 108.102 353.876 107.322C354.429 106.534 354.706 105.61 354.706 104.549C354.706 103.852 354.585 103.22 354.342 102.652C354.1 102.083 353.751 101.602 353.297 101.208C352.842 100.814 352.297 100.534 351.661 100.367L351.661 97.6856C352.691 97.8371 353.619 98.2121 354.445 98.8106C355.263 99.4015 355.914 100.186 356.399 101.163C356.876 102.133 357.115 103.261 357.115 104.549ZM350.388 91.2652L347.07 91.3106L347.07 90.7652L339.297 83.1288L339.297 79.8106L347.524 87.947L347.524 88.1743L350.388 91.2652ZM356.751 93.7652L333.479 93.7652L333.479 91.0834L356.751 91.0834L356.751 93.7652ZM356.751 82.6743L348.115 89.4925L346.251 87.5834L356.751 79.2652L356.751 82.6743ZM357.07 59.6771C357.054 60.6317 356.873 61.5862 356.524 62.5407C356.176 63.4953 355.589 64.3665 354.763 65.1544C353.929 65.9423 352.804 66.5748 351.388 67.0521C349.964 67.5294 348.176 67.768 346.024 67.768C343.964 67.768 342.138 67.5748 340.547 67.1885C338.948 66.8021 337.604 66.2415 336.513 65.5067C335.414 64.7718 334.581 63.8854 334.013 62.8476C333.445 61.8021 333.161 60.6241 333.161 59.3135C333.161 58.0104 333.422 56.8514 333.945 55.8362C334.46 54.8135 335.179 53.9801 336.104 53.3362C337.028 52.6923 338.092 52.2756 339.297 52.0862L339.297 54.8589C338.251 55.1165 337.384 55.6165 336.695 56.3589C336.005 57.1014 335.661 58.0862 335.661 59.3135C335.661 61.1165 336.445 62.537 338.013 63.5748C339.581 64.6051 341.782 65.1241 344.615 65.1317L344.615 64.9498C343.971 64.5256 343.422 64.0218 342.967 63.4385C342.505 62.8476 342.149 62.1961 341.899 61.4839C341.649 60.7718 341.524 60.018 341.524 59.2226C341.524 57.8892 341.858 56.6695 342.524 55.5635C343.183 54.4574 344.096 53.5711 345.263 52.9044C346.422 52.2377 347.751 51.9044 349.251 51.9044C350.691 51.9044 352.009 52.2264 353.206 52.8703C354.395 53.5142 355.342 54.4195 356.047 55.5862C356.744 56.7453 357.085 58.1089 357.07 59.6771ZM354.57 59.6771C354.57 58.7226 354.331 57.8665 353.854 57.1089C353.376 56.3438 352.736 55.7415 351.933 55.3021C351.13 54.8551 350.236 54.6317 349.251 54.6317C348.289 54.6317 347.414 54.8476 346.626 55.2794C345.831 55.7036 345.198 56.2907 344.729 57.0407C344.259 57.7832 344.024 58.6317 344.024 59.5862C344.024 60.3059 344.168 60.9764 344.456 61.5976C344.736 62.2188 345.123 62.7642 345.615 63.2339C346.108 63.6961 346.672 64.0597 347.308 64.3248C347.937 64.59 348.6 64.7226 349.297 64.7226C350.221 64.7226 351.085 64.5067 351.888 64.0748C352.691 63.6354 353.339 63.037 353.831 62.2794C354.323 61.5142 354.57 60.6468 354.57 59.6771Z" fill="white"/>
<path d="M343.256 613.115C327.549 631.612 305.389 643.435 281.279 646.183C257.168 648.931 232.916 642.397 213.449 627.91C193.982 613.423 180.76 592.069 176.469 568.185C172.178 544.301 177.139 519.679 190.346 499.322" stroke="#DBDBDB" stroke-width="3"/>
</g>
<defs>
<clipPath id="clip0_221_296">
<rect width="818" height="818" fill="white"/>
</clipPath>
</defs>
</svg>
