<svg width="698" height="1396" viewBox="0 0 698 1396" fill="none" xmlns="http://www.w3.org/2000/svg">
<g clip-path="url(#clip0_223_33)">
<mask id="path-1-inside-1_223_33" fill="white">
<path d="M537.354 384.184C563.017 325.375 576.177 261.875 575.998 197.711L196.921 198.766C196.953 210.396 194.568 221.906 189.916 232.565L537.354 384.184Z"/>
</mask>
<path d="M537.354 384.184C563.017 325.375 576.177 261.875 575.998 197.711L196.921 198.766C196.953 210.396 194.568 221.906 189.916 232.565L537.354 384.184Z" fill="#00A6FF" stroke="white" stroke-width="6" mask="url(#path-1-inside-1_223_33)"/>
<mask id="path-2-inside-2_223_33" fill="white">
<path d="M537.354 384.184C563.005 325.404 576.164 261.936 575.998 197.804L241.341 198.668C241.387 216.446 237.739 234.039 230.629 250.332L537.354 384.184Z"/>
</mask>
<path d="M537.354 384.184C563.005 325.404 576.164 261.936 575.998 197.804L241.341 198.668C241.387 216.446 237.739 234.039 230.629 250.332L537.354 384.184Z" fill="#0097E9" stroke="white" stroke-width="6" mask="url(#path-2-inside-2_223_33)"/>
<mask id="path-3-inside-3_223_33" fill="white">
<path d="M537.354 384.184C563.005 325.404 576.164 261.936 575.998 197.804L298.311 198.521C298.378 224.19 293.111 249.592 282.844 273.118L537.354 384.184Z"/>
</mask>
<path d="M537.354 384.184C563.005 325.404 576.164 261.936 575.998 197.804L298.311 198.521C298.378 224.19 293.111 249.592 282.844 273.118L537.354 384.184Z" fill="#0087D0" stroke="white" stroke-width="6" mask="url(#path-3-inside-3_223_33)"/>
<mask id="path-4-inside-4_223_33" fill="white">
<path d="M537.354 384.184C563.005 325.404 576.164 261.936 575.998 197.804L354.096 198.377C354.182 231.773 347.33 264.822 333.973 295.43L537.354 384.184Z"/>
</mask>
<path d="M537.354 384.184C563.005 325.404 576.164 261.936 575.998 197.804L354.096 198.377C354.182 231.773 347.33 264.822 333.973 295.43L537.354 384.184Z" fill="#007ABC" stroke="white" stroke-width="6" mask="url(#path-4-inside-4_223_33)"/>
<mask id="path-5-inside-5_223_33" fill="white">
<path d="M537.354 384.184C563.005 325.404 576.164 261.936 575.998 197.804L414.084 198.222C414.192 239.927 405.635 281.2 388.954 319.424L537.354 384.184Z"/>
</mask>
<path d="M537.354 384.184C563.005 325.404 576.164 261.936 575.998 197.804L414.084 198.222C414.192 239.927 405.635 281.2 388.954 319.424L537.354 384.184Z" fill="#006AA3" stroke="white" stroke-width="6" mask="url(#path-5-inside-5_223_33)"/>
<mask id="path-6-inside-6_223_33" fill="white">
<path d="M537.354 384.184C563.005 325.404 576.164 261.936 575.998 197.804L466.08 198.088C466.206 246.995 456.171 295.395 436.61 340.22L537.354 384.184Z"/>
</mask>
<path d="M537.354 384.184C563.005 325.404 576.164 261.936 575.998 197.804L466.08 198.088C466.206 246.995 456.171 295.395 436.61 340.22L537.354 384.184Z" fill="#005684" stroke="white" stroke-width="6" mask="url(#path-6-inside-6_223_33)"/>
<mask id="path-7-inside-7_223_33" fill="white">
<path d="M537.354 384.184C563.005 325.404 576.164 261.936 575.998 197.804L517.751 197.954C517.896 254.019 506.392 309.502 483.968 360.887L537.354 384.184Z"/>
</mask>
<path d="M537.354 384.184C563.005 325.404 576.164 261.936 575.998 197.804L517.751 197.954C517.896 254.019 506.392 309.502 483.968 360.887L537.354 384.184Z" fill="#003A59" stroke="white" stroke-width="6" mask="url(#path-7-inside-7_223_33)"/>
<path d="M539.979 181.206L537.479 181.206L537.479 163.751L539.979 163.751L539.979 171.069L560.751 171.069L560.751 173.887L539.979 173.887L539.979 181.206ZM560.751 161.578L543.297 161.578L543.297 158.987L545.933 158.987L545.933 158.805C545.07 158.487 544.369 157.911 543.831 157.078C543.293 156.244 543.024 155.305 543.024 154.259C543.024 154.063 543.028 153.816 543.036 153.521C543.043 153.225 543.054 153.002 543.07 152.85L545.797 152.85C545.774 152.941 545.74 153.15 545.695 153.475C545.642 153.794 545.615 154.131 545.615 154.487C545.615 155.335 545.793 156.093 546.149 156.759C546.498 157.419 546.983 157.941 547.604 158.328C548.217 158.706 548.918 158.896 549.706 158.896L560.751 158.896L560.751 161.578ZM561.161 144.535C561.161 145.641 560.952 146.645 560.536 147.546C560.111 148.448 559.501 149.164 558.706 149.694C557.903 150.224 556.933 150.49 555.797 150.49C554.797 150.49 553.986 150.293 553.365 149.899C552.736 149.505 552.244 148.978 551.888 148.319C551.532 147.66 551.267 146.933 551.092 146.137C550.911 145.334 550.767 144.527 550.661 143.717C550.524 142.656 550.422 141.796 550.354 141.137C550.278 140.471 550.153 139.986 549.979 139.683C549.804 139.372 549.501 139.217 549.07 139.217L548.979 139.217C547.858 139.217 546.986 139.524 546.365 140.137C545.744 140.743 545.433 141.664 545.433 142.899C545.433 144.179 545.714 145.183 546.274 145.91C546.835 146.637 547.433 147.149 548.07 147.444L547.161 149.99C546.1 149.535 545.274 148.929 544.683 148.171C544.085 147.406 543.668 146.573 543.433 145.671C543.191 144.762 543.07 143.868 543.07 142.99C543.07 142.429 543.138 141.785 543.274 141.058C543.403 140.323 543.672 139.615 544.081 138.933C544.49 138.243 545.108 137.671 545.933 137.217C546.759 136.762 547.865 136.535 549.251 136.535L560.751 136.535L560.751 139.217L558.388 139.217L558.388 139.353C558.767 139.535 559.172 139.838 559.604 140.262C560.036 140.687 560.403 141.251 560.706 141.956C561.009 142.66 561.161 143.52 561.161 144.535ZM558.751 144.126C558.751 143.065 558.543 142.171 558.126 141.444C557.71 140.709 557.172 140.156 556.513 139.785C555.854 139.406 555.161 139.217 554.433 139.217L551.979 139.217C552.115 139.331 552.24 139.581 552.354 139.967C552.46 140.346 552.554 140.785 552.638 141.285C552.714 141.777 552.782 142.259 552.842 142.728C552.895 143.19 552.941 143.565 552.979 143.853C553.07 144.55 553.217 145.202 553.422 145.808C553.619 146.406 553.918 146.891 554.32 147.262C554.714 147.626 555.251 147.808 555.933 147.808C556.865 147.808 557.57 147.463 558.047 146.774C558.517 146.077 558.751 145.194 558.751 144.126ZM561.115 124.549C561.115 126.186 560.729 127.595 559.956 128.777C559.183 129.958 558.119 130.867 556.763 131.504C555.407 132.14 553.858 132.458 552.115 132.458C550.342 132.458 548.778 132.133 547.422 131.481C546.058 130.822 544.994 129.905 544.229 128.731C543.456 127.549 543.07 126.17 543.07 124.595C543.07 123.367 543.297 122.261 543.751 121.277C544.206 120.292 544.842 119.485 545.661 118.856C546.479 118.227 547.433 117.837 548.524 117.686L548.524 120.367C547.729 120.572 547.024 121.027 546.411 121.731C545.789 122.428 545.479 123.367 545.479 124.549C545.479 125.595 545.751 126.511 546.297 127.299C546.835 128.08 547.596 128.689 548.581 129.129C549.558 129.561 550.706 129.777 552.024 129.777C553.373 129.777 554.547 129.564 555.547 129.14C556.547 128.708 557.323 128.102 557.876 127.322C558.429 126.534 558.706 125.61 558.706 124.549C558.706 123.852 558.585 123.22 558.342 122.652C558.1 122.083 557.751 121.602 557.297 121.208C556.842 120.814 556.297 120.534 555.661 120.367L555.661 117.686C556.691 117.837 557.619 118.212 558.445 118.811C559.263 119.402 559.914 120.186 560.399 121.163C560.876 122.133 561.115 123.261 561.115 124.549ZM554.388 111.265L551.07 111.311L551.07 110.765L543.297 103.129L543.297 99.8106L551.524 107.947L551.524 108.174L554.388 111.265ZM560.751 113.765L537.479 113.765L537.479 111.083L560.751 111.083L560.751 113.765ZM560.751 102.674L552.115 109.492L550.251 107.583L560.751 99.2652L560.751 102.674ZM561.07 79.8135C561.07 81.5256 560.604 82.9839 559.672 84.1885C558.733 85.393 557.373 86.3135 555.592 86.9498C553.804 87.5862 551.645 87.9044 549.115 87.9044C546.6 87.9044 544.452 87.5862 542.672 86.9498C540.884 86.3059 539.52 85.3817 538.581 84.1771C537.634 82.965 537.161 81.5104 537.161 79.8135C537.161 78.1165 537.634 76.6657 538.581 75.4612C539.52 74.2491 540.884 73.3248 542.672 72.6885C544.452 72.0445 546.6 71.7226 549.115 71.7226C551.645 71.7226 553.804 72.0407 555.592 72.6771C557.373 73.3135 558.733 74.2339 559.672 75.4385C560.604 76.643 561.07 78.1014 561.07 79.8135ZM558.57 79.8135C558.57 78.1165 557.751 76.7983 556.115 75.8589C554.479 74.9195 552.145 74.4498 549.115 74.4498C547.1 74.4498 545.384 74.6657 543.967 75.0976C542.551 75.5218 541.471 76.1354 540.729 76.9385C539.986 77.7339 539.615 78.6923 539.615 79.8135C539.615 81.4953 540.445 82.8097 542.104 83.7567C543.755 84.7036 546.092 85.1771 549.115 85.1771C551.13 85.1771 552.842 84.965 554.251 84.5407C555.661 84.1165 556.733 83.5067 557.467 82.7112C558.202 81.9082 558.57 80.9423 558.57 79.8135Z" fill="white"/>
<path d="M542.711 235L544.739 222.636H546.671L544.643 235H542.711ZM537.175 231.933L537.495 230.001H547.154L546.834 231.933H537.175ZM538.364 235L540.393 222.636H542.325L540.296 235H538.364ZM537.881 227.635L538.207 225.703H547.866L547.54 227.635H537.881ZM554.421 222.636V235H551.807V225.118H551.735L548.903 226.892V224.574L551.964 222.636H554.421Z" fill="white"/>
<path d="M476.711 311L478.739 298.636H480.671L478.643 311H476.711ZM471.175 307.933L471.495 306.001H481.154L480.834 307.933H471.175ZM472.364 311L474.393 298.636H476.325L474.296 311H472.364ZM471.881 303.635L472.207 301.703H481.866L481.54 303.635H471.881ZM483.042 311V309.116L487.443 305.042C487.817 304.679 488.131 304.353 488.385 304.064C488.642 303.774 488.838 303.49 488.97 303.212C489.103 302.931 489.17 302.627 489.17 302.301C489.17 301.939 489.087 301.627 488.922 301.365C488.757 301.099 488.532 300.896 488.246 300.755C487.96 300.61 487.636 300.538 487.274 300.538C486.896 300.538 486.566 300.614 486.284 300.767C486.002 300.92 485.785 301.14 485.632 301.425C485.479 301.711 485.403 302.051 485.403 302.446H482.921C482.921 301.637 483.105 300.934 483.471 300.339C483.837 299.743 484.35 299.282 485.01 298.956C485.67 298.63 486.431 298.467 487.292 298.467C488.178 298.467 488.948 298.624 489.604 298.938C490.264 299.248 490.777 299.679 491.144 300.23C491.51 300.781 491.693 301.413 491.693 302.126C491.693 302.593 491.601 303.053 491.415 303.508C491.234 303.963 490.91 304.468 490.443 305.023C489.977 305.575 489.319 306.237 488.469 307.01L486.664 308.778V308.863H491.856V311H483.042Z" fill="white"/>
<path d="M326.711 229L328.739 216.636H330.671L328.643 229H326.711ZM321.175 225.933L321.495 224.001H331.154L330.834 225.933H321.175ZM322.364 229L324.393 216.636H326.325L324.296 229H322.364ZM321.881 221.635L322.207 219.703H331.866L331.54 221.635H321.881ZM337.612 229.169C336.711 229.169 335.908 229.014 335.203 228.704C334.503 228.39 333.95 227.96 333.543 227.412C333.141 226.861 332.934 226.225 332.921 225.505H335.554C335.57 225.806 335.668 226.072 335.849 226.301C336.034 226.527 336.28 226.702 336.586 226.827C336.892 226.951 337.236 227.014 337.618 227.014C338.017 227.014 338.369 226.943 338.675 226.803C338.98 226.662 339.22 226.467 339.393 226.217C339.566 225.967 339.653 225.68 339.653 225.354C339.653 225.024 339.56 224.732 339.375 224.478C339.194 224.221 338.932 224.02 338.59 223.875C338.252 223.73 337.85 223.657 337.383 223.657H336.23V221.738H337.383C337.777 221.738 338.125 221.669 338.427 221.532C338.733 221.395 338.97 221.206 339.139 220.965C339.309 220.719 339.393 220.434 339.393 220.108C339.393 219.798 339.319 219.526 339.17 219.293C339.025 219.055 338.82 218.87 338.554 218.737C338.292 218.604 337.986 218.538 337.636 218.538C337.282 218.538 336.958 218.602 336.664 218.731C336.371 218.856 336.135 219.035 335.958 219.268C335.781 219.502 335.686 219.776 335.674 220.089H333.169C333.181 219.377 333.384 218.749 333.779 218.206C334.173 217.663 334.704 217.238 335.372 216.932C336.045 216.622 336.803 216.467 337.648 216.467C338.502 216.467 339.248 216.622 339.888 216.932C340.528 217.242 341.025 217.661 341.379 218.188C341.737 218.711 341.914 219.299 341.91 219.951C341.914 220.643 341.699 221.22 341.264 221.683C340.834 222.146 340.272 222.44 339.58 222.565V222.661C340.49 222.778 341.182 223.094 341.657 223.609C342.136 224.12 342.373 224.76 342.369 225.529C342.373 226.233 342.17 226.859 341.76 227.406C341.353 227.954 340.792 228.384 340.075 228.698C339.359 229.012 338.538 229.169 337.612 229.169Z" fill="white"/>
<path d="M260.711 247L262.739 234.636H264.671L262.643 247H260.711ZM255.175 243.933L255.495 242.001H265.154L264.834 243.933H255.175ZM256.364 247L258.393 234.636H260.325L258.296 247H256.364ZM255.881 239.635L256.207 237.703H265.866L265.54 239.635H255.881ZM266.855 244.827V242.768L272.017 234.636H273.791V237.486H272.741L269.487 242.635V242.732H276.822V244.827H266.855ZM272.789 247V244.199L272.838 243.287V234.636H275.289V247H272.789Z" fill="white"/>
<path d="M485.979 181.206L483.479 181.206L483.479 163.751L485.979 163.751L485.979 171.069L506.751 171.069L506.751 173.887L485.979 173.887L485.979 181.206ZM506.751 161.578L489.297 161.578L489.297 158.987L491.933 158.987L491.933 158.805C491.07 158.487 490.369 157.911 489.831 157.078C489.293 156.244 489.024 155.305 489.024 154.259C489.024 154.063 489.028 153.816 489.036 153.521C489.043 153.225 489.054 153.002 489.07 152.85L491.797 152.85C491.774 152.941 491.74 153.15 491.695 153.475C491.642 153.794 491.615 154.131 491.615 154.487C491.615 155.335 491.793 156.093 492.149 156.759C492.498 157.419 492.983 157.941 493.604 158.328C494.217 158.706 494.918 158.896 495.706 158.896L506.751 158.896L506.751 161.578ZM507.161 144.535C507.161 145.641 506.952 146.645 506.536 147.546C506.111 148.448 505.501 149.164 504.706 149.694C503.903 150.224 502.933 150.49 501.797 150.49C500.797 150.49 499.986 150.293 499.365 149.899C498.736 149.505 498.244 148.978 497.888 148.319C497.532 147.66 497.267 146.933 497.092 146.137C496.911 145.334 496.767 144.527 496.661 143.717C496.524 142.656 496.422 141.796 496.354 141.137C496.278 140.471 496.153 139.986 495.979 139.683C495.804 139.372 495.501 139.217 495.07 139.217L494.979 139.217C493.858 139.217 492.986 139.524 492.365 140.137C491.744 140.743 491.433 141.664 491.433 142.899C491.433 144.179 491.714 145.183 492.274 145.91C492.835 146.637 493.433 147.149 494.07 147.444L493.161 149.99C492.1 149.535 491.274 148.929 490.683 148.171C490.085 147.406 489.668 146.573 489.433 145.671C489.191 144.762 489.07 143.868 489.07 142.99C489.07 142.429 489.138 141.785 489.274 141.058C489.403 140.323 489.672 139.615 490.081 138.933C490.49 138.243 491.108 137.671 491.933 137.217C492.759 136.762 493.865 136.535 495.251 136.535L506.751 136.535L506.751 139.217L504.388 139.217L504.388 139.353C504.767 139.535 505.172 139.838 505.604 140.262C506.036 140.687 506.403 141.251 506.706 141.956C507.009 142.66 507.161 143.52 507.161 144.535ZM504.751 144.126C504.751 143.065 504.543 142.171 504.126 141.444C503.71 140.709 503.172 140.156 502.513 139.785C501.854 139.406 501.161 139.217 500.433 139.217L497.979 139.217C498.115 139.331 498.24 139.581 498.354 139.967C498.46 140.346 498.554 140.785 498.638 141.285C498.714 141.777 498.782 142.259 498.842 142.728C498.895 143.19 498.941 143.565 498.979 143.853C499.07 144.55 499.217 145.202 499.422 145.808C499.619 146.406 499.918 146.891 500.32 147.262C500.714 147.626 501.251 147.808 501.933 147.808C502.865 147.808 503.57 147.463 504.047 146.774C504.517 146.077 504.751 145.194 504.751 144.126ZM507.115 124.549C507.115 126.186 506.729 127.595 505.956 128.777C505.183 129.958 504.119 130.867 502.763 131.504C501.407 132.14 499.858 132.458 498.115 132.458C496.342 132.458 494.778 132.133 493.422 131.481C492.058 130.822 490.994 129.905 490.229 128.731C489.456 127.549 489.07 126.17 489.07 124.595C489.07 123.367 489.297 122.261 489.751 121.277C490.206 120.292 490.842 119.485 491.661 118.856C492.479 118.227 493.433 117.837 494.524 117.686L494.524 120.367C493.729 120.572 493.024 121.027 492.411 121.731C491.789 122.428 491.479 123.367 491.479 124.549C491.479 125.595 491.751 126.511 492.297 127.299C492.835 128.08 493.596 128.689 494.581 129.129C495.558 129.561 496.706 129.777 498.024 129.777C499.373 129.777 500.547 129.564 501.547 129.14C502.547 128.708 503.323 128.102 503.876 127.322C504.429 126.534 504.706 125.61 504.706 124.549C504.706 123.852 504.585 123.22 504.342 122.652C504.1 122.083 503.751 121.602 503.297 121.208C502.842 120.814 502.297 120.534 501.661 120.367L501.661 117.686C502.691 117.837 503.619 118.212 504.445 118.811C505.263 119.402 505.914 120.186 506.399 121.163C506.876 122.133 507.115 123.261 507.115 124.549ZM500.388 111.265L497.07 111.311L497.07 110.765L489.297 103.129L489.297 99.8106L497.524 107.947L497.524 108.174L500.388 111.265ZM506.751 113.765L483.479 113.765L483.479 111.083L506.751 111.083L506.751 113.765ZM506.751 102.674L498.115 109.492L496.251 107.583L506.751 99.2652L506.751 102.674ZM483.479 79.2226L506.751 79.2226L506.751 82.0407L486.433 82.0407L486.433 82.1771L490.206 87.8589L487.342 87.8589L483.479 82.0407L483.479 79.2226Z" fill="white"/>
<path d="M431.979 181.206L429.479 181.206L429.479 163.751L431.979 163.751L431.979 171.069L452.751 171.069L452.751 173.887L431.979 173.887L431.979 181.206ZM452.751 161.578L435.297 161.578L435.297 158.987L437.933 158.987L437.933 158.805C437.07 158.487 436.369 157.911 435.831 157.078C435.293 156.244 435.024 155.305 435.024 154.259C435.024 154.063 435.028 153.816 435.036 153.521C435.043 153.225 435.054 153.002 435.07 152.85L437.797 152.85C437.774 152.941 437.74 153.15 437.695 153.475C437.642 153.794 437.615 154.131 437.615 154.487C437.615 155.335 437.793 156.093 438.149 156.759C438.498 157.419 438.983 157.941 439.604 158.328C440.217 158.706 440.918 158.896 441.706 158.896L452.751 158.896L452.751 161.578ZM453.161 144.535C453.161 145.641 452.952 146.645 452.536 147.546C452.111 148.448 451.501 149.164 450.706 149.694C449.903 150.224 448.933 150.49 447.797 150.49C446.797 150.49 445.986 150.293 445.365 149.899C444.736 149.505 444.244 148.978 443.888 148.319C443.532 147.66 443.267 146.933 443.092 146.137C442.911 145.334 442.767 144.527 442.661 143.717C442.524 142.656 442.422 141.796 442.354 141.137C442.278 140.471 442.153 139.986 441.979 139.683C441.804 139.372 441.501 139.217 441.07 139.217L440.979 139.217C439.858 139.217 438.986 139.524 438.365 140.137C437.744 140.743 437.433 141.664 437.433 142.899C437.433 144.179 437.714 145.183 438.274 145.91C438.835 146.637 439.433 147.149 440.07 147.444L439.161 149.99C438.1 149.535 437.274 148.929 436.683 148.171C436.085 147.406 435.668 146.573 435.433 145.671C435.191 144.762 435.07 143.868 435.07 142.99C435.07 142.429 435.138 141.785 435.274 141.058C435.403 140.323 435.672 139.615 436.081 138.933C436.49 138.243 437.108 137.671 437.933 137.217C438.759 136.762 439.865 136.535 441.251 136.535L452.751 136.535L452.751 139.217L450.388 139.217L450.388 139.353C450.767 139.535 451.172 139.838 451.604 140.262C452.036 140.687 452.403 141.251 452.706 141.956C453.009 142.66 453.161 143.52 453.161 144.535ZM450.751 144.126C450.751 143.065 450.543 142.171 450.126 141.444C449.71 140.709 449.172 140.156 448.513 139.785C447.854 139.406 447.161 139.217 446.433 139.217L443.979 139.217C444.115 139.331 444.24 139.581 444.354 139.967C444.46 140.346 444.554 140.785 444.638 141.285C444.714 141.777 444.782 142.259 444.842 142.728C444.895 143.19 444.941 143.565 444.979 143.853C445.07 144.55 445.217 145.202 445.422 145.808C445.619 146.406 445.918 146.891 446.32 147.262C446.714 147.626 447.251 147.808 447.933 147.808C448.865 147.808 449.57 147.463 450.047 146.774C450.517 146.077 450.751 145.194 450.751 144.126ZM453.115 124.549C453.115 126.186 452.729 127.595 451.956 128.777C451.183 129.958 450.119 130.867 448.763 131.504C447.407 132.14 445.858 132.458 444.115 132.458C442.342 132.458 440.778 132.133 439.422 131.481C438.058 130.822 436.994 129.905 436.229 128.731C435.456 127.549 435.07 126.17 435.07 124.595C435.07 123.367 435.297 122.261 435.751 121.277C436.206 120.292 436.842 119.485 437.661 118.856C438.479 118.227 439.433 117.837 440.524 117.686L440.524 120.367C439.729 120.572 439.024 121.027 438.411 121.731C437.789 122.428 437.479 123.367 437.479 124.549C437.479 125.595 437.751 126.511 438.297 127.299C438.835 128.08 439.596 128.689 440.581 129.129C441.558 129.561 442.706 129.777 444.024 129.777C445.373 129.777 446.547 129.564 447.547 129.14C448.547 128.708 449.323 128.102 449.876 127.322C450.429 126.534 450.706 125.61 450.706 124.549C450.706 123.852 450.585 123.22 450.342 122.652C450.1 122.083 449.751 121.602 449.297 121.208C448.842 120.814 448.297 120.534 447.661 120.367L447.661 117.686C448.691 117.837 449.619 118.212 450.445 118.811C451.263 119.402 451.914 120.186 452.399 121.163C452.876 122.133 453.115 123.261 453.115 124.549ZM446.388 111.265L443.07 111.311L443.07 110.765L435.297 103.129L435.297 99.8106L443.524 107.947L443.524 108.174L446.388 111.265ZM452.751 113.765L429.479 113.765L429.479 111.083L452.751 111.083L452.751 113.765ZM452.751 102.674L444.115 109.492L442.251 107.583L452.751 99.2652L452.751 102.674ZM452.751 87.4044L450.706 87.4044L442.297 79.7226C441.312 78.8211 440.456 78.0786 439.729 77.4953C438.994 76.912 438.304 76.4801 437.661 76.1998C437.009 75.912 436.327 75.768 435.615 75.768C434.797 75.768 434.089 75.965 433.49 76.3589C432.892 76.7453 432.429 77.2756 432.104 77.9498C431.778 78.6241 431.615 79.3817 431.615 80.2226C431.615 81.1165 431.801 81.8968 432.172 82.5635C432.536 83.2226 433.047 83.7339 433.706 84.0976C434.365 84.4536 435.138 84.6317 436.024 84.6317L436.024 87.3135C434.661 87.3135 433.464 86.9991 432.433 86.3703C431.403 85.7415 430.6 84.8854 430.024 83.8021C429.448 82.7112 429.161 81.4877 429.161 80.1317C429.161 78.768 429.448 77.5597 430.024 76.5067C430.6 75.4536 431.376 74.6279 432.354 74.0294C433.331 73.4309 434.418 73.1317 435.615 73.1317C436.471 73.1317 437.308 73.287 438.126 73.5976C438.937 73.9006 439.842 74.4309 440.842 75.1885C441.835 75.9385 443.047 76.9801 444.479 78.3135L450.07 83.5407L450.251 83.5407L450.251 72.7226L452.751 72.7226L452.751 87.4044Z" fill="white"/>
<path d="M377.979 181.206L375.479 181.206L375.479 163.751L377.979 163.751L377.979 171.069L398.751 171.069L398.751 173.887L377.979 173.887L377.979 181.206ZM398.751 161.578L381.297 161.578L381.297 158.987L383.933 158.987L383.933 158.805C383.07 158.487 382.369 157.911 381.831 157.078C381.293 156.244 381.024 155.305 381.024 154.259C381.024 154.063 381.028 153.816 381.036 153.521C381.043 153.225 381.054 153.002 381.07 152.85L383.797 152.85C383.774 152.941 383.74 153.15 383.695 153.475C383.642 153.794 383.615 154.131 383.615 154.487C383.615 155.335 383.793 156.093 384.149 156.759C384.498 157.419 384.983 157.941 385.604 158.328C386.217 158.706 386.918 158.896 387.706 158.896L398.751 158.896L398.751 161.578ZM399.161 144.535C399.161 145.641 398.952 146.645 398.536 147.546C398.111 148.448 397.501 149.164 396.706 149.694C395.903 150.224 394.933 150.49 393.797 150.49C392.797 150.49 391.986 150.293 391.365 149.899C390.736 149.505 390.244 148.978 389.888 148.319C389.532 147.66 389.267 146.933 389.092 146.137C388.911 145.334 388.767 144.527 388.661 143.717C388.524 142.656 388.422 141.796 388.354 141.137C388.278 140.471 388.153 139.986 387.979 139.683C387.804 139.372 387.501 139.217 387.07 139.217L386.979 139.217C385.858 139.217 384.986 139.524 384.365 140.137C383.744 140.743 383.433 141.664 383.433 142.899C383.433 144.179 383.714 145.183 384.274 145.91C384.835 146.637 385.433 147.149 386.07 147.444L385.161 149.99C384.1 149.535 383.274 148.929 382.683 148.171C382.085 147.406 381.668 146.573 381.433 145.671C381.191 144.762 381.07 143.868 381.07 142.99C381.07 142.429 381.138 141.785 381.274 141.058C381.403 140.323 381.672 139.615 382.081 138.933C382.49 138.243 383.108 137.671 383.933 137.217C384.759 136.762 385.865 136.535 387.251 136.535L398.751 136.535L398.751 139.217L396.388 139.217L396.388 139.353C396.767 139.535 397.172 139.838 397.604 140.262C398.036 140.687 398.403 141.251 398.706 141.956C399.009 142.66 399.161 143.52 399.161 144.535ZM396.751 144.126C396.751 143.065 396.543 142.171 396.126 141.444C395.71 140.709 395.172 140.156 394.513 139.785C393.854 139.406 393.161 139.217 392.433 139.217L389.979 139.217C390.115 139.331 390.24 139.581 390.354 139.967C390.46 140.346 390.554 140.785 390.638 141.285C390.714 141.777 390.782 142.259 390.842 142.728C390.895 143.19 390.941 143.565 390.979 143.853C391.07 144.55 391.217 145.202 391.422 145.808C391.619 146.406 391.918 146.891 392.32 147.262C392.714 147.626 393.251 147.808 393.933 147.808C394.865 147.808 395.57 147.463 396.047 146.774C396.517 146.077 396.751 145.194 396.751 144.126ZM399.115 124.549C399.115 126.186 398.729 127.595 397.956 128.777C397.183 129.958 396.119 130.867 394.763 131.504C393.407 132.14 391.858 132.458 390.115 132.458C388.342 132.458 386.778 132.133 385.422 131.481C384.058 130.822 382.994 129.905 382.229 128.731C381.456 127.549 381.07 126.17 381.07 124.595C381.07 123.367 381.297 122.261 381.751 121.277C382.206 120.292 382.842 119.485 383.661 118.856C384.479 118.227 385.433 117.837 386.524 117.686L386.524 120.367C385.729 120.572 385.024 121.027 384.411 121.731C383.789 122.428 383.479 123.367 383.479 124.549C383.479 125.595 383.751 126.511 384.297 127.299C384.835 128.08 385.596 128.689 386.581 129.129C387.558 129.561 388.706 129.777 390.024 129.777C391.373 129.777 392.547 129.564 393.547 129.14C394.547 128.708 395.323 128.102 395.876 127.322C396.429 126.534 396.706 125.61 396.706 124.549C396.706 123.852 396.585 123.22 396.342 122.652C396.1 122.083 395.751 121.602 395.297 121.208C394.842 120.814 394.297 120.534 393.661 120.367L393.661 117.686C394.691 117.837 395.619 118.212 396.445 118.811C397.263 119.402 397.914 120.186 398.399 121.163C398.876 122.133 399.115 123.261 399.115 124.549ZM392.388 111.265L389.07 111.311L389.07 110.765L381.297 103.129L381.297 99.8106L389.524 107.947L389.524 108.174L392.388 111.265ZM398.751 113.765L375.479 113.765L375.479 111.083L398.751 111.083L398.751 113.765ZM398.751 102.674L390.115 109.492L388.251 107.583L398.751 99.2652L398.751 102.674ZM399.07 79.5407C399.07 81.0407 398.812 82.3779 398.297 83.5521C397.782 84.7188 397.066 85.6468 396.149 86.3362C395.225 87.018 394.153 87.3892 392.933 87.4498L392.933 84.5862C393.683 84.5256 394.331 84.268 394.876 83.8135C395.414 83.3589 395.831 82.7642 396.126 82.0294C396.422 81.2945 396.57 80.4801 396.57 79.5862C396.57 78.5862 396.395 77.6998 396.047 76.9271C395.698 76.1544 395.214 75.5483 394.592 75.1089C393.971 74.6695 393.251 74.4498 392.433 74.4498C391.577 74.4498 390.823 74.662 390.172 75.0862C389.513 75.5104 388.998 76.1317 388.626 76.9498C388.255 77.768 388.07 78.768 388.07 79.9498L388.07 81.8135L385.57 81.8135L385.57 79.9498C385.57 79.0256 385.403 78.215 385.07 77.518C384.736 76.8135 384.267 76.2642 383.661 75.8703C383.054 75.4688 382.342 75.268 381.524 75.268C380.736 75.268 380.051 75.4423 379.467 75.7907C378.884 76.1392 378.429 76.6317 378.104 77.268C377.778 77.8968 377.615 78.6392 377.615 79.4953C377.615 80.2983 377.763 81.0559 378.058 81.768C378.346 82.4726 378.767 83.0483 379.32 83.4953C379.865 83.9423 380.524 84.1847 381.297 84.2226L381.297 86.9498C380.077 86.9044 379.009 86.537 378.092 85.8476C377.168 85.1582 376.448 84.2567 375.933 83.143C375.418 82.0218 375.161 80.7907 375.161 79.4498C375.161 78.0104 375.452 76.7756 376.036 75.7453C376.611 74.715 377.373 73.9233 378.32 73.3703C379.267 72.8173 380.289 72.5407 381.388 72.5407C382.698 72.5407 383.816 72.8854 384.74 73.5748C385.664 74.2567 386.304 75.1847 386.661 76.3589L386.842 76.3589C387.085 74.8892 387.71 73.7415 388.717 72.9157C389.717 72.09 390.956 71.6771 392.433 71.6771C393.698 71.6771 394.835 72.0218 395.842 72.7112C396.842 73.393 397.63 74.3248 398.206 75.5067C398.782 76.6885 399.07 78.0332 399.07 79.5407Z" fill="white"/>
<path d="M323.979 181.206L321.479 181.206L321.479 163.751L323.979 163.751L323.979 171.069L344.751 171.069L344.751 173.887L323.979 173.887L323.979 181.206ZM344.751 161.578L327.297 161.578L327.297 158.987L329.933 158.987L329.933 158.805C329.07 158.487 328.369 157.911 327.831 157.078C327.293 156.244 327.024 155.305 327.024 154.259C327.024 154.063 327.028 153.816 327.036 153.521C327.043 153.225 327.054 153.002 327.07 152.85L329.797 152.85C329.774 152.941 329.74 153.15 329.695 153.475C329.642 153.794 329.615 154.131 329.615 154.487C329.615 155.335 329.793 156.093 330.149 156.759C330.498 157.419 330.983 157.941 331.604 158.328C332.217 158.706 332.918 158.896 333.706 158.896L344.751 158.896L344.751 161.578ZM345.161 144.535C345.161 145.641 344.952 146.645 344.536 147.546C344.111 148.448 343.501 149.164 342.706 149.694C341.903 150.224 340.933 150.49 339.797 150.49C338.797 150.49 337.986 150.293 337.365 149.899C336.736 149.505 336.244 148.978 335.888 148.319C335.532 147.66 335.267 146.933 335.092 146.137C334.911 145.334 334.767 144.527 334.661 143.717C334.524 142.656 334.422 141.796 334.354 141.137C334.278 140.471 334.153 139.986 333.979 139.683C333.804 139.372 333.501 139.217 333.07 139.217L332.979 139.217C331.858 139.217 330.986 139.524 330.365 140.137C329.744 140.743 329.433 141.664 329.433 142.899C329.433 144.179 329.714 145.183 330.274 145.91C330.835 146.637 331.433 147.149 332.07 147.444L331.161 149.99C330.1 149.535 329.274 148.929 328.683 148.171C328.085 147.406 327.668 146.573 327.433 145.671C327.191 144.762 327.07 143.868 327.07 142.99C327.07 142.429 327.138 141.785 327.274 141.058C327.403 140.323 327.672 139.615 328.081 138.933C328.49 138.243 329.108 137.671 329.933 137.217C330.759 136.762 331.865 136.535 333.251 136.535L344.751 136.535L344.751 139.217L342.388 139.217L342.388 139.353C342.767 139.535 343.172 139.838 343.604 140.262C344.036 140.687 344.403 141.251 344.706 141.956C345.009 142.66 345.161 143.52 345.161 144.535ZM342.751 144.126C342.751 143.065 342.543 142.171 342.126 141.444C341.71 140.709 341.172 140.156 340.513 139.785C339.854 139.406 339.161 139.217 338.433 139.217L335.979 139.217C336.115 139.331 336.24 139.581 336.354 139.967C336.46 140.346 336.554 140.785 336.638 141.285C336.714 141.777 336.782 142.259 336.842 142.728C336.895 143.19 336.941 143.565 336.979 143.853C337.07 144.55 337.217 145.202 337.422 145.808C337.619 146.406 337.918 146.891 338.32 147.262C338.714 147.626 339.251 147.808 339.933 147.808C340.865 147.808 341.57 147.463 342.047 146.774C342.517 146.077 342.751 145.194 342.751 144.126ZM345.115 124.549C345.115 126.186 344.729 127.595 343.956 128.777C343.183 129.958 342.119 130.867 340.763 131.504C339.407 132.14 337.858 132.458 336.115 132.458C334.342 132.458 332.778 132.133 331.422 131.481C330.058 130.822 328.994 129.905 328.229 128.731C327.456 127.549 327.07 126.17 327.07 124.595C327.07 123.367 327.297 122.261 327.751 121.277C328.206 120.292 328.842 119.485 329.661 118.856C330.479 118.227 331.433 117.837 332.524 117.686L332.524 120.367C331.729 120.572 331.024 121.027 330.411 121.731C329.789 122.428 329.479 123.367 329.479 124.549C329.479 125.595 329.751 126.511 330.297 127.299C330.835 128.08 331.596 128.689 332.581 129.129C333.558 129.561 334.706 129.777 336.024 129.777C337.373 129.777 338.547 129.564 339.547 129.14C340.547 128.708 341.323 128.102 341.876 127.322C342.429 126.534 342.706 125.61 342.706 124.549C342.706 123.852 342.585 123.22 342.342 122.652C342.1 122.083 341.751 121.602 341.297 121.208C340.842 120.814 340.297 120.534 339.661 120.367L339.661 117.686C340.691 117.837 341.619 118.212 342.445 118.811C343.263 119.402 343.914 120.186 344.399 121.163C344.876 122.133 345.115 123.261 345.115 124.549ZM338.388 111.265L335.07 111.311L335.07 110.765L327.297 103.129L327.297 99.8106L335.524 107.947L335.524 108.174L338.388 111.265ZM344.751 113.765L321.479 113.765L321.479 111.083L344.751 111.083L344.751 113.765ZM344.751 102.674L336.115 109.492L334.251 107.583L344.751 99.2652L344.751 102.674ZM339.979 87.9498L337.661 87.9498L321.479 77.7226L321.479 76.0407L325.07 76.0407L325.07 77.1771L337.297 84.9044L337.479 84.9044L337.479 71.1317L339.979 71.1317L339.979 87.9498ZM344.751 76.9953L339.274 76.9953L338.195 76.9953L321.479 76.9953L321.479 74.3135L344.751 74.3135L344.751 76.9953Z" fill="white"/>
<path d="M262.979 181.206L260.479 181.206L260.479 163.751L262.979 163.751L262.979 171.069L283.751 171.069L283.751 173.887L262.979 173.887L262.979 181.206ZM283.751 161.578L266.297 161.578L266.297 158.987L268.933 158.987L268.933 158.805C268.07 158.487 267.369 157.911 266.831 157.078C266.293 156.244 266.024 155.305 266.024 154.259C266.024 154.063 266.028 153.816 266.036 153.521C266.043 153.225 266.054 153.002 266.07 152.85L268.797 152.85C268.774 152.941 268.74 153.15 268.695 153.475C268.642 153.794 268.615 154.131 268.615 154.487C268.615 155.335 268.793 156.093 269.149 156.759C269.498 157.419 269.983 157.941 270.604 158.328C271.217 158.706 271.918 158.896 272.706 158.896L283.751 158.896L283.751 161.578ZM284.161 144.535C284.161 145.641 283.952 146.645 283.536 147.546C283.111 148.448 282.501 149.164 281.706 149.694C280.903 150.224 279.933 150.49 278.797 150.49C277.797 150.49 276.986 150.293 276.365 149.899C275.736 149.505 275.244 148.978 274.888 148.319C274.532 147.66 274.267 146.933 274.092 146.137C273.911 145.334 273.767 144.527 273.661 143.717C273.524 142.656 273.422 141.796 273.354 141.137C273.278 140.471 273.153 139.986 272.979 139.683C272.804 139.372 272.501 139.217 272.07 139.217L271.979 139.217C270.858 139.217 269.986 139.524 269.365 140.137C268.744 140.743 268.433 141.664 268.433 142.899C268.433 144.179 268.714 145.183 269.274 145.91C269.835 146.637 270.433 147.149 271.07 147.444L270.161 149.99C269.1 149.535 268.274 148.929 267.683 148.171C267.085 147.406 266.668 146.573 266.433 145.671C266.191 144.762 266.07 143.868 266.07 142.99C266.07 142.429 266.138 141.785 266.274 141.058C266.403 140.323 266.672 139.615 267.081 138.933C267.49 138.243 268.108 137.671 268.933 137.217C269.759 136.762 270.865 136.535 272.251 136.535L283.751 136.535L283.751 139.217L281.388 139.217L281.388 139.353C281.767 139.535 282.172 139.838 282.604 140.262C283.036 140.687 283.403 141.251 283.706 141.956C284.009 142.66 284.161 143.52 284.161 144.535ZM281.751 144.126C281.751 143.065 281.543 142.171 281.126 141.444C280.71 140.709 280.172 140.156 279.513 139.785C278.854 139.406 278.161 139.217 277.433 139.217L274.979 139.217C275.115 139.331 275.24 139.581 275.354 139.967C275.46 140.346 275.554 140.785 275.638 141.285C275.714 141.777 275.782 142.259 275.842 142.728C275.895 143.19 275.941 143.565 275.979 143.853C276.07 144.55 276.217 145.202 276.422 145.808C276.619 146.406 276.918 146.891 277.32 147.262C277.714 147.626 278.251 147.808 278.933 147.808C279.865 147.808 280.57 147.463 281.047 146.774C281.517 146.077 281.751 145.194 281.751 144.126ZM284.115 124.549C284.115 126.186 283.729 127.595 282.956 128.777C282.183 129.958 281.119 130.867 279.763 131.504C278.407 132.14 276.858 132.458 275.115 132.458C273.342 132.458 271.778 132.133 270.422 131.481C269.058 130.822 267.994 129.905 267.229 128.731C266.456 127.549 266.07 126.17 266.07 124.595C266.07 123.367 266.297 122.261 266.751 121.277C267.206 120.292 267.842 119.485 268.661 118.856C269.479 118.227 270.433 117.837 271.524 117.686L271.524 120.367C270.729 120.572 270.024 121.027 269.411 121.731C268.789 122.428 268.479 123.367 268.479 124.549C268.479 125.595 268.751 126.511 269.297 127.299C269.835 128.08 270.596 128.689 271.581 129.129C272.558 129.561 273.706 129.777 275.024 129.777C276.373 129.777 277.547 129.564 278.547 129.14C279.547 128.708 280.323 128.102 280.876 127.322C281.429 126.534 281.706 125.61 281.706 124.549C281.706 123.852 281.585 123.22 281.342 122.652C281.1 122.083 280.751 121.602 280.297 121.208C279.842 120.814 279.297 120.534 278.661 120.367L278.661 117.686C279.691 117.837 280.619 118.212 281.445 118.811C282.263 119.402 282.914 120.186 283.399 121.163C283.876 122.133 284.115 123.261 284.115 124.549ZM277.388 111.265L274.07 111.311L274.07 110.765L266.297 103.129L266.297 99.8106L274.524 107.947L274.524 108.174L277.388 111.265ZM283.751 113.765L260.479 113.765L260.479 111.083L283.751 111.083L283.751 113.765ZM283.751 102.674L275.115 109.492L273.251 107.583L283.751 99.2652L283.751 102.674ZM284.07 80.1317C284.07 81.465 283.804 82.6657 283.274 83.7339C282.744 84.8021 282.017 85.6582 281.092 86.3021C280.168 86.9461 279.115 87.2983 277.933 87.3589L277.933 84.6317C278.986 84.5256 279.858 84.0483 280.547 83.1998C281.229 82.3438 281.57 81.3211 281.57 80.1317C281.57 79.1771 281.346 78.3286 280.899 77.5862C280.452 76.8362 279.839 76.2491 279.058 75.8248C278.27 75.393 277.38 75.1771 276.388 75.1771C275.373 75.1771 274.467 75.4006 273.672 75.8476C272.869 76.287 272.236 76.893 271.774 77.6657C271.312 78.4385 271.077 79.3211 271.07 80.3135C271.062 81.0256 271.172 81.7567 271.399 82.5067C271.619 83.2567 271.903 83.8741 272.251 84.3589L271.933 86.9953L260.479 85.5862L260.479 73.4953L262.979 73.4953L262.979 83.2226L269.842 84.0407L269.842 83.9044C269.464 83.4271 269.149 82.8286 268.899 82.1089C268.649 81.3892 268.524 80.6392 268.524 79.8589C268.524 78.4347 268.865 77.1657 269.547 76.0521C270.221 74.9309 271.145 74.0521 272.32 73.4157C273.494 72.7718 274.835 72.4498 276.342 72.4498C277.827 72.4498 279.153 72.7832 280.32 73.4498C281.479 74.1089 282.395 75.018 283.07 76.1771C283.736 77.3362 284.07 78.6544 284.07 80.1317Z" fill="white"/>
<path d="M212.979 181.206L210.479 181.206L210.479 163.751L212.979 163.751L212.979 171.069L233.751 171.069L233.751 173.887L212.979 173.887L212.979 181.206ZM233.751 161.578L216.297 161.578L216.297 158.987L218.933 158.987L218.933 158.805C218.07 158.487 217.369 157.911 216.831 157.078C216.293 156.244 216.024 155.305 216.024 154.259C216.024 154.063 216.028 153.816 216.036 153.521C216.043 153.225 216.054 153.002 216.07 152.85L218.797 152.85C218.774 152.941 218.74 153.15 218.695 153.475C218.642 153.794 218.615 154.131 218.615 154.487C218.615 155.335 218.793 156.093 219.149 156.759C219.498 157.419 219.983 157.941 220.604 158.328C221.217 158.706 221.918 158.896 222.706 158.896L233.751 158.896L233.751 161.578ZM234.161 144.535C234.161 145.641 233.952 146.645 233.536 147.546C233.111 148.448 232.501 149.164 231.706 149.694C230.903 150.224 229.933 150.49 228.797 150.49C227.797 150.49 226.986 150.293 226.365 149.899C225.736 149.505 225.244 148.978 224.888 148.319C224.532 147.66 224.267 146.933 224.092 146.137C223.911 145.334 223.767 144.527 223.661 143.717C223.524 142.656 223.422 141.796 223.354 141.137C223.278 140.471 223.153 139.986 222.979 139.683C222.804 139.372 222.501 139.217 222.07 139.217L221.979 139.217C220.858 139.217 219.986 139.524 219.365 140.137C218.744 140.743 218.433 141.664 218.433 142.899C218.433 144.179 218.714 145.183 219.274 145.91C219.835 146.637 220.433 147.149 221.07 147.444L220.161 149.99C219.1 149.535 218.274 148.929 217.683 148.171C217.085 147.406 216.668 146.573 216.433 145.671C216.191 144.762 216.07 143.868 216.07 142.99C216.07 142.429 216.138 141.785 216.274 141.058C216.403 140.323 216.672 139.615 217.081 138.933C217.49 138.243 218.108 137.671 218.933 137.217C219.759 136.762 220.865 136.535 222.251 136.535L233.751 136.535L233.751 139.217L231.388 139.217L231.388 139.353C231.767 139.535 232.172 139.838 232.604 140.262C233.036 140.687 233.403 141.251 233.706 141.956C234.009 142.66 234.161 143.52 234.161 144.535ZM231.751 144.126C231.751 143.065 231.543 142.171 231.126 141.444C230.71 140.709 230.172 140.156 229.513 139.785C228.854 139.406 228.161 139.217 227.433 139.217L224.979 139.217C225.115 139.331 225.24 139.581 225.354 139.967C225.46 140.346 225.554 140.785 225.638 141.285C225.714 141.777 225.782 142.259 225.842 142.728C225.895 143.19 225.941 143.565 225.979 143.853C226.07 144.55 226.217 145.202 226.422 145.808C226.619 146.406 226.918 146.891 227.32 147.262C227.714 147.626 228.251 147.808 228.933 147.808C229.865 147.808 230.57 147.463 231.047 146.774C231.517 146.077 231.751 145.194 231.751 144.126ZM234.115 124.549C234.115 126.186 233.729 127.595 232.956 128.777C232.183 129.958 231.119 130.867 229.763 131.504C228.407 132.14 226.858 132.458 225.115 132.458C223.342 132.458 221.778 132.133 220.422 131.481C219.058 130.822 217.994 129.905 217.229 128.731C216.456 127.549 216.07 126.17 216.07 124.595C216.07 123.367 216.297 122.261 216.751 121.277C217.206 120.292 217.842 119.485 218.661 118.856C219.479 118.227 220.433 117.837 221.524 117.686L221.524 120.367C220.729 120.572 220.024 121.027 219.411 121.731C218.789 122.428 218.479 123.367 218.479 124.549C218.479 125.595 218.751 126.511 219.297 127.299C219.835 128.08 220.596 128.689 221.581 129.129C222.558 129.561 223.706 129.777 225.024 129.777C226.373 129.777 227.547 129.564 228.547 129.14C229.547 128.708 230.323 128.102 230.876 127.322C231.429 126.534 231.706 125.61 231.706 124.549C231.706 123.852 231.585 123.22 231.342 122.652C231.1 122.083 230.751 121.602 230.297 121.208C229.842 120.814 229.297 120.534 228.661 120.367L228.661 117.686C229.691 117.837 230.619 118.212 231.445 118.811C232.263 119.402 232.914 120.186 233.399 121.163C233.876 122.133 234.115 123.261 234.115 124.549ZM227.388 111.265L224.07 111.311L224.07 110.765L216.297 103.129L216.297 99.8106L224.524 107.947L224.524 108.174L227.388 111.265ZM233.751 113.765L210.479 113.765L210.479 111.083L233.751 111.083L233.751 113.765ZM233.751 102.674L225.115 109.492L223.251 107.583L233.751 99.2652L233.751 102.674ZM234.07 79.6771C234.054 80.6317 233.873 81.5862 233.524 82.5407C233.176 83.4953 232.589 84.3665 231.763 85.1544C230.929 85.9423 229.804 86.5748 228.388 87.0521C226.964 87.5294 225.176 87.768 223.024 87.768C220.964 87.768 219.138 87.5748 217.547 87.1885C215.948 86.8021 214.604 86.2415 213.513 85.5067C212.414 84.7718 211.581 83.8854 211.013 82.8476C210.445 81.8021 210.161 80.6241 210.161 79.3135C210.161 78.0104 210.422 76.8514 210.945 75.8362C211.46 74.8135 212.179 73.9801 213.104 73.3362C214.028 72.6923 215.092 72.2756 216.297 72.0862L216.297 74.8589C215.251 75.1165 214.384 75.6165 213.695 76.3589C213.005 77.1014 212.661 78.0862 212.661 79.3135C212.661 81.1165 213.445 82.537 215.013 83.5748C216.581 84.6051 218.782 85.1241 221.615 85.1317L221.615 84.9498C220.971 84.5256 220.422 84.0218 219.967 83.4385C219.505 82.8476 219.149 82.1961 218.899 81.4839C218.649 80.7718 218.524 80.018 218.524 79.2226C218.524 77.8892 218.858 76.6695 219.524 75.5635C220.183 74.4574 221.096 73.5711 222.263 72.9044C223.422 72.2377 224.751 71.9044 226.251 71.9044C227.691 71.9044 229.009 72.2264 230.206 72.8703C231.395 73.5142 232.342 74.4195 233.047 75.5862C233.744 76.7453 234.085 78.1089 234.07 79.6771ZM231.57 79.6771C231.57 78.7226 231.331 77.8665 230.854 77.1089C230.376 76.3438 229.736 75.7415 228.933 75.3021C228.13 74.8551 227.236 74.6317 226.251 74.6317C225.289 74.6317 224.414 74.8476 223.626 75.2794C222.831 75.7036 222.198 76.2907 221.729 77.0407C221.259 77.7832 221.024 78.6317 221.024 79.5862C221.024 80.3059 221.168 80.9764 221.456 81.5976C221.736 82.2188 222.123 82.7642 222.615 83.2339C223.108 83.6961 223.672 84.0597 224.308 84.3248C224.937 84.59 225.6 84.7226 226.297 84.7226C227.221 84.7226 228.085 84.5067 228.888 84.0748C229.691 83.6354 230.339 83.037 230.831 82.2794C231.323 81.5142 231.57 80.6468 231.57 79.6771Z" fill="white"/>
<path d="M488.054 283.676C487.875 284.199 488.154 284.767 488.676 284.946L497.192 287.859C497.714 288.038 498.283 287.759 498.462 287.237C498.64 286.714 498.362 286.146 497.839 285.967L490.27 283.378L492.859 275.808C493.038 275.286 492.759 274.717 492.237 274.538C491.714 274.36 491.146 274.638 490.967 275.161L488.054 283.676ZM540 259L539.56 258.102L488.56 283.102L489 284L489.44 284.898L540.44 259.898L540 259Z" fill="white"/>
<path d="M543.763 250.647C544.12 250.226 544.068 249.595 543.647 249.237L536.783 243.416C536.362 243.059 535.731 243.111 535.373 243.532C535.016 243.953 535.068 244.584 535.489 244.941L541.591 250.116L536.416 256.217C536.059 256.638 536.111 257.269 536.532 257.627C536.953 257.984 537.584 257.932 537.941 257.511L543.763 250.647ZM543 250L542.918 249.003L396.918 261.003L397 262L397.082 262.997L543.082 250.997L543 250Z" fill="white"/>
<path d="M333.459 252.159C332.994 252.458 332.86 253.077 333.159 253.541L338.03 261.109C338.329 261.573 338.948 261.708 339.412 261.409C339.877 261.11 340.011 260.491 339.712 260.027L335.382 253.3L342.109 248.97C342.573 248.671 342.708 248.052 342.409 247.588C342.11 247.123 341.491 246.989 341.027 247.288L333.459 252.159ZM334 253L333.788 253.977L476.788 284.977L477 284L477.212 283.023L334.212 252.023L334 253Z" fill="white"/>
<path d="M279.817 219.017C279.274 219.118 278.916 219.64 279.017 220.183L280.666 229.031C280.768 229.574 281.29 229.932 281.833 229.831C282.376 229.729 282.734 229.207 282.633 228.664L281.166 220.8L289.031 219.334C289.574 219.232 289.932 218.71 289.831 218.167C289.729 217.624 289.207 217.266 288.664 217.367L279.817 219.017ZM315 244L315.566 243.175L280.566 219.175L280 220L279.434 220.825L314.434 244.825L315 244Z" fill="white"/>
<mask id="path-23-inside-8_223_33" fill="white">
<path d="M396.689 264.545L390.194 260.795C390.194 260.795 325.397 352.134 294.368 401.769C263.34 451.405 244.618 463.625 218.606 465.993C139.998 473.147 93.078 564.415 93.078 564.415L190.939 620.915L396.689 264.545Z"/>
</mask>
<path d="M396.689 264.545L390.194 260.795C390.194 260.795 325.397 352.134 294.368 401.769C263.34 451.405 244.618 463.625 218.606 465.993C139.998 473.147 93.078 564.415 93.078 564.415L190.939 620.915L396.689 264.545Z" fill="#E27C00"/>
<path d="M391.194 259.063C390.527 260.218 389.86 261.372 389.194 262.527C391.359 263.777 393.524 265.027 395.689 266.277L394.957 263.545C388.11 275.403 381.264 287.262 374.418 299.12C312.681 406.051 250.944 512.983 189.207 619.915L191.939 619.182C159.319 600.349 126.698 581.516 94.078 562.682L94.8567 565.329C121.311 518.825 163.496 473.522 218.788 467.984C235.833 467.006 252.113 458.226 263.685 446.069C276.47 433.065 286.464 418.045 296.064 402.829C317.701 368.542 340.819 335.091 363.962 301.69C373.198 288.407 382.547 275.058 391.825 261.952C390.737 261.181 389.65 260.409 388.562 259.638C379.271 272.763 369.921 286.114 360.678 299.407C337.514 332.838 314.399 366.28 292.672 400.709C283.154 415.808 273.22 430.677 260.851 443.245C249.55 455.011 234.754 462.994 218.425 464.001C160.881 469.935 118.333 516.095 91.2993 563.5L90.4284 565.194L92.078 566.147C124.698 584.98 157.319 603.813 189.939 622.647L191.671 623.647L192.671 621.915C254.408 514.983 316.145 408.051 377.882 301.12C384.728 289.262 391.575 277.403 398.421 265.545L399.421 263.813L397.689 262.813C395.524 261.563 393.359 260.313 391.194 259.063ZM389.194 262.527L391.194 259.063L389.616 258.152L388.562 259.638L391.825 261.952L389.194 262.527Z" fill="black" mask="url(#path-23-inside-8_223_33)"/>
<circle cx="143.258" cy="590.5" r="54.5" transform="rotate(30 143.258 590.5)" fill="#E27C00" stroke="black" stroke-width="4"/>
<circle cx="143.258" cy="590.499" r="48" transform="rotate(30 143.258 590.499)" fill="#E27C00" stroke="black"/>
<circle cx="143.258" cy="590.5" r="40" transform="rotate(30 143.258 590.5)" fill="#E27C00" stroke="black"/>
<circle cx="143.441" cy="591.183" r="10.5" transform="rotate(30 143.441 591.183)" fill="#E27C00" stroke="black"/>
<path d="M555 244L543 256" stroke="#FF0000" stroke-width="3" stroke-linecap="round" stroke-linejoin="round"/>
<path d="M543 244L555 256" stroke="#FF0000" stroke-width="3" stroke-linecap="round" stroke-linejoin="round"/>
<path d="M489 278L477 290" stroke="#FF0000" stroke-width="3" stroke-linecap="round" stroke-linejoin="round"/>
<path d="M477 278L489 290" stroke="#FF0000" stroke-width="3" stroke-linecap="round" stroke-linejoin="round"/>
<path d="M327 238L315 250" stroke="#FF0000" stroke-width="3" stroke-linecap="round" stroke-linejoin="round"/>
<path d="M315 238L327 250" stroke="#FF0000" stroke-width="3" stroke-linecap="round" stroke-linejoin="round"/>
<path d="M280 214L268 226" stroke="#FF0000" stroke-width="3" stroke-linecap="round" stroke-linejoin="round"/>
<path d="M268 214L280 226" stroke="#FF0000" stroke-width="3" stroke-linecap="round" stroke-linejoin="round"/>
</g>
<g clip-path="url(#clip1_223_33)">
<mask id="path-37-inside-9_223_33" fill="white">
<path d="M537.354 1082.18C563.017 1023.38 576.177 959.875 575.998 895.711L196.921 896.766C196.953 908.396 194.568 919.906 189.916 930.565L537.354 1082.18Z"/>
</mask>
<path d="M537.354 1082.18C563.017 1023.38 576.177 959.875 575.998 895.711L196.921 896.766C196.953 908.396 194.568 919.906 189.916 930.565L537.354 1082.18Z" fill="#00A6FF" stroke="white" stroke-width="6" mask="url(#path-37-inside-9_223_33)"/>
<mask id="path-38-inside-10_223_33" fill="white">
<path d="M537.354 1082.18C563.005 1023.4 576.164 959.936 575.998 895.804L241.341 896.668C241.387 914.446 237.739 932.039 230.629 948.332L537.354 1082.18Z"/>
</mask>
<path d="M537.354 1082.18C563.005 1023.4 576.164 959.936 575.998 895.804L241.341 896.668C241.387 914.446 237.739 932.039 230.629 948.332L537.354 1082.18Z" fill="#0097E9" stroke="white" stroke-width="6" mask="url(#path-38-inside-10_223_33)"/>
<mask id="path-39-inside-11_223_33" fill="white">
<path d="M537.354 1082.18C563.005 1023.4 576.164 959.936 575.998 895.804L298.311 896.521C298.378 922.19 293.111 947.592 282.844 971.118L537.354 1082.18Z"/>
</mask>
<path d="M537.354 1082.18C563.005 1023.4 576.164 959.936 575.998 895.804L298.311 896.521C298.378 922.19 293.111 947.592 282.844 971.118L537.354 1082.18Z" fill="#0087D0" stroke="white" stroke-width="6" mask="url(#path-39-inside-11_223_33)"/>
<mask id="path-40-inside-12_223_33" fill="white">
<path d="M537.354 1082.18C563.005 1023.4 576.164 959.936 575.998 895.804L354.096 896.377C354.182 929.773 347.33 962.822 333.973 993.43L537.354 1082.18Z"/>
</mask>
<path d="M537.354 1082.18C563.005 1023.4 576.164 959.936 575.998 895.804L354.096 896.377C354.182 929.773 347.33 962.822 333.973 993.43L537.354 1082.18Z" fill="#007ABC" stroke="white" stroke-width="6" mask="url(#path-40-inside-12_223_33)"/>
<mask id="path-41-inside-13_223_33" fill="white">
<path d="M537.354 1082.18C563.005 1023.4 576.164 959.936 575.998 895.804L414.084 896.222C414.192 937.927 405.635 979.2 388.954 1017.42L537.354 1082.18Z"/>
</mask>
<path d="M537.354 1082.18C563.005 1023.4 576.164 959.936 575.998 895.804L414.084 896.222C414.192 937.927 405.635 979.2 388.954 1017.42L537.354 1082.18Z" fill="#006AA3" stroke="white" stroke-width="6" mask="url(#path-41-inside-13_223_33)"/>
<mask id="path-42-inside-14_223_33" fill="white">
<path d="M537.354 1082.18C563.005 1023.4 576.164 959.936 575.998 895.804L466.08 896.088C466.206 944.995 456.171 993.395 436.61 1038.22L537.354 1082.18Z"/>
</mask>
<path d="M537.354 1082.18C563.005 1023.4 576.164 959.936 575.998 895.804L466.08 896.088C466.206 944.995 456.171 993.395 436.61 1038.22L537.354 1082.18Z" fill="#005684" stroke="white" stroke-width="6" mask="url(#path-42-inside-14_223_33)"/>
<mask id="path-43-inside-15_223_33" fill="white">
<path d="M537.354 1082.18C563.005 1023.4 576.164 959.936 575.998 895.804L517.751 895.954C517.896 952.019 506.392 1007.5 483.968 1058.89L537.354 1082.18Z"/>
</mask>
<path d="M537.354 1082.18C563.005 1023.4 576.164 959.936 575.998 895.804L517.751 895.954C517.896 952.019 506.392 1007.5 483.968 1058.89L537.354 1082.18Z" fill="#003A59" stroke="white" stroke-width="6" mask="url(#path-43-inside-15_223_33)"/>
<path d="M539.979 879.206L537.479 879.206L537.479 861.751L539.979 861.751L539.979 869.069L560.751 869.069L560.751 871.887L539.979 871.887L539.979 879.206ZM560.751 859.578L543.297 859.578L543.297 856.987L545.933 856.987L545.933 856.805C545.07 856.487 544.369 855.911 543.831 855.078C543.293 854.244 543.024 853.305 543.024 852.259C543.024 852.063 543.028 851.816 543.036 851.521C543.043 851.225 543.054 851.002 543.07 850.85L545.797 850.85C545.774 850.941 545.74 851.15 545.695 851.475C545.642 851.794 545.615 852.131 545.615 852.487C545.615 853.335 545.793 854.093 546.149 854.759C546.498 855.419 546.983 855.941 547.604 856.328C548.217 856.706 548.918 856.896 549.706 856.896L560.751 856.896L560.751 859.578ZM561.161 842.535C561.161 843.641 560.952 844.645 560.536 845.546C560.111 846.448 559.501 847.164 558.706 847.694C557.903 848.224 556.933 848.49 555.797 848.49C554.797 848.49 553.986 848.293 553.365 847.899C552.736 847.505 552.244 846.978 551.888 846.319C551.532 845.66 551.267 844.933 551.092 844.137C550.911 843.334 550.767 842.527 550.661 841.717C550.524 840.656 550.422 839.796 550.354 839.137C550.278 838.471 550.153 837.986 549.979 837.683C549.804 837.372 549.501 837.217 549.07 837.217L548.979 837.217C547.858 837.217 546.986 837.524 546.365 838.137C545.744 838.743 545.433 839.664 545.433 840.899C545.433 842.179 545.714 843.183 546.274 843.91C546.835 844.637 547.433 845.149 548.07 845.444L547.161 847.99C546.1 847.535 545.274 846.929 544.683 846.171C544.085 845.406 543.668 844.573 543.433 843.671C543.191 842.762 543.07 841.868 543.07 840.99C543.07 840.429 543.138 839.785 543.274 839.058C543.403 838.323 543.672 837.615 544.081 836.933C544.49 836.243 545.108 835.671 545.933 835.217C546.759 834.762 547.865 834.535 549.251 834.535L560.751 834.535L560.751 837.217L558.388 837.217L558.388 837.353C558.767 837.535 559.172 837.838 559.604 838.262C560.036 838.687 560.403 839.251 560.706 839.956C561.009 840.66 561.161 841.52 561.161 842.535ZM558.751 842.126C558.751 841.065 558.543 840.171 558.126 839.444C557.71 838.709 557.172 838.156 556.513 837.785C555.854 837.406 555.161 837.217 554.433 837.217L551.979 837.217C552.115 837.331 552.24 837.581 552.354 837.967C552.46 838.346 552.554 838.785 552.638 839.285C552.714 839.777 552.782 840.259 552.842 840.728C552.895 841.19 552.941 841.565 552.979 841.853C553.07 842.55 553.217 843.202 553.422 843.808C553.619 844.406 553.918 844.891 554.32 845.262C554.714 845.626 555.251 845.808 555.933 845.808C556.865 845.808 557.57 845.463 558.047 844.774C558.517 844.077 558.751 843.194 558.751 842.126ZM561.115 822.549C561.115 824.186 560.729 825.595 559.956 826.777C559.183 827.958 558.119 828.867 556.763 829.504C555.407 830.14 553.858 830.458 552.115 830.458C550.342 830.458 548.778 830.133 547.422 829.481C546.058 828.822 544.994 827.905 544.229 826.731C543.456 825.549 543.07 824.17 543.07 822.595C543.07 821.367 543.297 820.261 543.751 819.277C544.206 818.292 544.842 817.485 545.661 816.856C546.479 816.227 547.433 815.837 548.524 815.686L548.524 818.367C547.729 818.572 547.024 819.027 546.411 819.731C545.789 820.428 545.479 821.367 545.479 822.549C545.479 823.595 545.751 824.511 546.297 825.299C546.835 826.08 547.596 826.689 548.581 827.129C549.558 827.561 550.706 827.777 552.024 827.777C553.373 827.777 554.547 827.564 555.547 827.14C556.547 826.708 557.323 826.102 557.876 825.322C558.429 824.534 558.706 823.61 558.706 822.549C558.706 821.852 558.585 821.22 558.342 820.652C558.1 820.083 557.751 819.602 557.297 819.208C556.842 818.814 556.297 818.534 555.661 818.367L555.661 815.686C556.691 815.837 557.619 816.212 558.445 816.811C559.263 817.402 559.914 818.186 560.399 819.163C560.876 820.133 561.115 821.261 561.115 822.549ZM554.388 809.265L551.07 809.311L551.07 808.765L543.297 801.129L543.297 797.811L551.524 805.947L551.524 806.174L554.388 809.265ZM560.751 811.765L537.479 811.765L537.479 809.083L560.751 809.083L560.751 811.765ZM560.751 800.674L552.115 807.492L550.251 805.583L560.751 797.265L560.751 800.674ZM561.07 777.813C561.07 779.526 560.604 780.984 559.672 782.188C558.733 783.393 557.373 784.313 555.592 784.95C553.804 785.586 551.645 785.904 549.115 785.904C546.6 785.904 544.452 785.586 542.672 784.95C540.884 784.306 539.52 783.382 538.581 782.177C537.634 780.965 537.161 779.51 537.161 777.813C537.161 776.117 537.634 774.666 538.581 773.461C539.52 772.249 540.884 771.325 542.672 770.688C544.452 770.045 546.6 769.723 549.115 769.723C551.645 769.723 553.804 770.041 555.592 770.677C557.373 771.313 558.733 772.234 559.672 773.438C560.604 774.643 561.07 776.101 561.07 777.813ZM558.57 777.813C558.57 776.117 557.751 774.798 556.115 773.859C554.479 772.92 552.145 772.45 549.115 772.45C547.1 772.45 545.384 772.666 543.967 773.098C542.551 773.522 541.471 774.135 540.729 774.938C539.986 775.734 539.615 776.692 539.615 777.813C539.615 779.495 540.445 780.81 542.104 781.757C543.755 782.704 546.092 783.177 549.115 783.177C551.13 783.177 552.842 782.965 554.251 782.541C555.661 782.117 556.733 781.507 557.467 780.711C558.202 779.908 558.57 778.942 558.57 777.813Z" fill="white"/>
<path d="M542.711 933L544.739 920.636H546.671L544.643 933H542.711ZM537.175 929.933L537.495 928.001H547.154L546.834 929.933H537.175ZM538.364 933L540.393 920.636H542.325L540.296 933H538.364ZM537.881 925.635L538.207 923.703H547.866L547.54 925.635H537.881ZM548.855 930.827V928.768L554.017 920.636H555.791V923.486H554.741L551.487 928.635V928.732H558.822V930.827H548.855ZM554.789 933V930.199L554.838 929.287V920.636H557.289V933H554.789Z" fill="white"/>
<path d="M476.711 1009L478.739 996.636H480.671L478.643 1009H476.711ZM471.175 1005.93L471.495 1004H481.154L480.834 1005.93H471.175ZM472.364 1009L474.393 996.636H476.325L474.296 1009H472.364ZM471.881 1001.63L472.207 999.703H481.866L481.54 1001.63H471.881ZM487.612 1009.17C486.711 1009.17 485.908 1009.01 485.203 1008.7C484.503 1008.39 483.95 1007.96 483.543 1007.41C483.141 1006.86 482.934 1006.23 482.921 1005.5H485.554C485.57 1005.81 485.668 1006.07 485.849 1006.3C486.034 1006.53 486.28 1006.7 486.586 1006.83C486.892 1006.95 487.236 1007.01 487.618 1007.01C488.017 1007.01 488.369 1006.94 488.675 1006.8C488.98 1006.66 489.22 1006.47 489.393 1006.22C489.566 1005.97 489.653 1005.68 489.653 1005.35C489.653 1005.02 489.56 1004.73 489.375 1004.48C489.194 1004.22 488.932 1004.02 488.59 1003.87C488.252 1003.73 487.85 1003.66 487.383 1003.66H486.23V1001.74H487.383C487.777 1001.74 488.125 1001.67 488.427 1001.53C488.733 1001.4 488.97 1001.21 489.139 1000.96C489.309 1000.72 489.393 1000.43 489.393 1000.11C489.393 999.798 489.319 999.526 489.17 999.293C489.025 999.055 488.82 998.87 488.554 998.737C488.292 998.604 487.986 998.538 487.636 998.538C487.282 998.538 486.958 998.602 486.664 998.731C486.371 998.856 486.135 999.035 485.958 999.268C485.781 999.502 485.686 999.776 485.674 1000.09H483.169C483.181 999.377 483.384 998.749 483.779 998.206C484.173 997.663 484.704 997.238 485.372 996.932C486.045 996.622 486.803 996.467 487.648 996.467C488.502 996.467 489.248 996.622 489.888 996.932C490.528 997.242 491.025 997.661 491.379 998.188C491.737 998.711 491.914 999.299 491.91 999.951C491.914 1000.64 491.699 1001.22 491.264 1001.68C490.834 1002.15 490.272 1002.44 489.58 1002.56V1002.66C490.49 1002.78 491.182 1003.09 491.657 1003.61C492.136 1004.12 492.373 1004.76 492.369 1005.53C492.373 1006.23 492.17 1006.86 491.76 1007.41C491.353 1007.95 490.792 1008.38 490.075 1008.7C489.359 1009.01 488.538 1009.17 487.612 1009.17Z" fill="white"/>
<path d="M314.711 966L316.739 953.636H318.671L316.643 966H314.711ZM309.175 962.933L309.495 961.001H319.154L318.834 962.933H309.175ZM310.364 966L312.393 953.636H314.325L312.296 966H310.364ZM309.881 958.635L310.207 956.703H319.866L319.54 958.635H309.881ZM326.421 953.636V966H323.807V956.118H323.735L320.903 957.892V955.574L323.964 953.636H326.421Z" fill="white"/>
<path d="M260.711 945L262.739 932.636H264.671L262.643 945H260.711ZM255.175 941.933L255.495 940.001H265.154L264.834 941.933H255.175ZM256.364 945L258.393 932.636H260.325L258.296 945H256.364ZM255.881 937.635L256.207 935.703H265.866L265.54 937.635H255.881ZM267.042 945V943.116L271.443 939.042C271.817 938.679 272.131 938.353 272.385 938.064C272.642 937.774 272.838 937.49 272.97 937.212C273.103 936.931 273.17 936.627 273.17 936.301C273.17 935.939 273.087 935.627 272.922 935.365C272.757 935.099 272.532 934.896 272.246 934.755C271.96 934.61 271.636 934.538 271.274 934.538C270.896 934.538 270.566 934.614 270.284 934.767C270.002 934.92 269.785 935.14 269.632 935.425C269.479 935.711 269.403 936.051 269.403 936.446H266.921C266.921 935.637 267.105 934.934 267.471 934.339C267.837 933.743 268.35 933.282 269.01 932.956C269.67 932.63 270.431 932.467 271.292 932.467C272.178 932.467 272.948 932.624 273.604 932.938C274.264 933.248 274.777 933.679 275.144 934.23C275.51 934.781 275.693 935.413 275.693 936.126C275.693 936.593 275.601 937.053 275.415 937.508C275.234 937.963 274.91 938.468 274.443 939.023C273.977 939.575 273.319 940.237 272.469 941.01L270.664 942.778V942.863H275.856V945H267.042Z" fill="white"/>
<path d="M485.979 879.206L483.479 879.206L483.479 861.751L485.979 861.751L485.979 869.069L506.751 869.069L506.751 871.887L485.979 871.887L485.979 879.206ZM506.751 859.578L489.297 859.578L489.297 856.987L491.933 856.987L491.933 856.805C491.07 856.487 490.369 855.911 489.831 855.078C489.293 854.244 489.024 853.305 489.024 852.259C489.024 852.063 489.028 851.816 489.036 851.521C489.043 851.225 489.054 851.002 489.07 850.85L491.797 850.85C491.774 850.941 491.74 851.15 491.695 851.475C491.642 851.794 491.615 852.131 491.615 852.487C491.615 853.335 491.793 854.093 492.149 854.759C492.498 855.419 492.983 855.941 493.604 856.328C494.217 856.706 494.918 856.896 495.706 856.896L506.751 856.896L506.751 859.578ZM507.161 842.535C507.161 843.641 506.952 844.645 506.536 845.546C506.111 846.448 505.501 847.164 504.706 847.694C503.903 848.224 502.933 848.49 501.797 848.49C500.797 848.49 499.986 848.293 499.365 847.899C498.736 847.505 498.244 846.978 497.888 846.319C497.532 845.66 497.267 844.933 497.092 844.137C496.911 843.334 496.767 842.527 496.661 841.717C496.524 840.656 496.422 839.796 496.354 839.137C496.278 838.471 496.153 837.986 495.979 837.683C495.804 837.372 495.501 837.217 495.07 837.217L494.979 837.217C493.858 837.217 492.986 837.524 492.365 838.137C491.744 838.743 491.433 839.664 491.433 840.899C491.433 842.179 491.714 843.183 492.274 843.91C492.835 844.637 493.433 845.149 494.07 845.444L493.161 847.99C492.1 847.535 491.274 846.929 490.683 846.171C490.085 845.406 489.668 844.573 489.433 843.671C489.191 842.762 489.07 841.868 489.07 840.99C489.07 840.429 489.138 839.785 489.274 839.058C489.403 838.323 489.672 837.615 490.081 836.933C490.49 836.243 491.108 835.671 491.933 835.217C492.759 834.762 493.865 834.535 495.251 834.535L506.751 834.535L506.751 837.217L504.388 837.217L504.388 837.353C504.767 837.535 505.172 837.838 505.604 838.262C506.036 838.687 506.403 839.251 506.706 839.956C507.009 840.66 507.161 841.52 507.161 842.535ZM504.751 842.126C504.751 841.065 504.543 840.171 504.126 839.444C503.71 838.709 503.172 838.156 502.513 837.785C501.854 837.406 501.161 837.217 500.433 837.217L497.979 837.217C498.115 837.331 498.24 837.581 498.354 837.967C498.46 838.346 498.554 838.785 498.638 839.285C498.714 839.777 498.782 840.259 498.842 840.728C498.895 841.19 498.941 841.565 498.979 841.853C499.07 842.55 499.217 843.202 499.422 843.808C499.619 844.406 499.918 844.891 500.32 845.262C500.714 845.626 501.251 845.808 501.933 845.808C502.865 845.808 503.57 845.463 504.047 844.774C504.517 844.077 504.751 843.194 504.751 842.126ZM507.115 822.549C507.115 824.186 506.729 825.595 505.956 826.777C505.183 827.958 504.119 828.867 502.763 829.504C501.407 830.14 499.858 830.458 498.115 830.458C496.342 830.458 494.778 830.133 493.422 829.481C492.058 828.822 490.994 827.905 490.229 826.731C489.456 825.549 489.07 824.17 489.07 822.595C489.07 821.367 489.297 820.261 489.751 819.277C490.206 818.292 490.842 817.485 491.661 816.856C492.479 816.227 493.433 815.837 494.524 815.686L494.524 818.367C493.729 818.572 493.024 819.027 492.411 819.731C491.789 820.428 491.479 821.367 491.479 822.549C491.479 823.595 491.751 824.511 492.297 825.299C492.835 826.08 493.596 826.689 494.581 827.129C495.558 827.561 496.706 827.777 498.024 827.777C499.373 827.777 500.547 827.564 501.547 827.14C502.547 826.708 503.323 826.102 503.876 825.322C504.429 824.534 504.706 823.61 504.706 822.549C504.706 821.852 504.585 821.22 504.342 820.652C504.1 820.083 503.751 819.602 503.297 819.208C502.842 818.814 502.297 818.534 501.661 818.367L501.661 815.686C502.691 815.837 503.619 816.212 504.445 816.811C505.263 817.402 505.914 818.186 506.399 819.163C506.876 820.133 507.115 821.261 507.115 822.549ZM500.388 809.265L497.07 809.311L497.07 808.765L489.297 801.129L489.297 797.811L497.524 805.947L497.524 806.174L500.388 809.265ZM506.751 811.765L483.479 811.765L483.479 809.083L506.751 809.083L506.751 811.765ZM506.751 800.674L498.115 807.492L496.251 805.583L506.751 797.265L506.751 800.674ZM483.479 777.223L506.751 777.223L506.751 780.041L486.433 780.041L486.433 780.177L490.206 785.859L487.342 785.859L483.479 780.041L483.479 777.223Z" fill="white"/>
<path d="M431.979 879.206L429.479 879.206L429.479 861.751L431.979 861.751L431.979 869.069L452.751 869.069L452.751 871.887L431.979 871.887L431.979 879.206ZM452.751 859.578L435.297 859.578L435.297 856.987L437.933 856.987L437.933 856.805C437.07 856.487 436.369 855.911 435.831 855.078C435.293 854.244 435.024 853.305 435.024 852.259C435.024 852.063 435.028 851.816 435.036 851.521C435.043 851.225 435.054 851.002 435.07 850.85L437.797 850.85C437.774 850.941 437.74 851.15 437.695 851.475C437.642 851.794 437.615 852.131 437.615 852.487C437.615 853.335 437.793 854.093 438.149 854.759C438.498 855.419 438.983 855.941 439.604 856.328C440.217 856.706 440.918 856.896 441.706 856.896L452.751 856.896L452.751 859.578ZM453.161 842.535C453.161 843.641 452.952 844.645 452.536 845.546C452.111 846.448 451.501 847.164 450.706 847.694C449.903 848.224 448.933 848.49 447.797 848.49C446.797 848.49 445.986 848.293 445.365 847.899C444.736 847.505 444.244 846.978 443.888 846.319C443.532 845.66 443.267 844.933 443.092 844.137C442.911 843.334 442.767 842.527 442.661 841.717C442.524 840.656 442.422 839.796 442.354 839.137C442.278 838.471 442.153 837.986 441.979 837.683C441.804 837.372 441.501 837.217 441.07 837.217L440.979 837.217C439.858 837.217 438.986 837.524 438.365 838.137C437.744 838.743 437.433 839.664 437.433 840.899C437.433 842.179 437.714 843.183 438.274 843.91C438.835 844.637 439.433 845.149 440.07 845.444L439.161 847.99C438.1 847.535 437.274 846.929 436.683 846.171C436.085 845.406 435.668 844.573 435.433 843.671C435.191 842.762 435.07 841.868 435.07 840.99C435.07 840.429 435.138 839.785 435.274 839.058C435.403 838.323 435.672 837.615 436.081 836.933C436.49 836.243 437.108 835.671 437.933 835.217C438.759 834.762 439.865 834.535 441.251 834.535L452.751 834.535L452.751 837.217L450.388 837.217L450.388 837.353C450.767 837.535 451.172 837.838 451.604 838.262C452.036 838.687 452.403 839.251 452.706 839.956C453.009 840.66 453.161 841.52 453.161 842.535ZM450.751 842.126C450.751 841.065 450.543 840.171 450.126 839.444C449.71 838.709 449.172 838.156 448.513 837.785C447.854 837.406 447.161 837.217 446.433 837.217L443.979 837.217C444.115 837.331 444.24 837.581 444.354 837.967C444.46 838.346 444.554 838.785 444.638 839.285C444.714 839.777 444.782 840.259 444.842 840.728C444.895 841.19 444.941 841.565 444.979 841.853C445.07 842.55 445.217 843.202 445.422 843.808C445.619 844.406 445.918 844.891 446.32 845.262C446.714 845.626 447.251 845.808 447.933 845.808C448.865 845.808 449.57 845.463 450.047 844.774C450.517 844.077 450.751 843.194 450.751 842.126ZM453.115 822.549C453.115 824.186 452.729 825.595 451.956 826.777C451.183 827.958 450.119 828.867 448.763 829.504C447.407 830.14 445.858 830.458 444.115 830.458C442.342 830.458 440.778 830.133 439.422 829.481C438.058 828.822 436.994 827.905 436.229 826.731C435.456 825.549 435.07 824.17 435.07 822.595C435.07 821.367 435.297 820.261 435.751 819.277C436.206 818.292 436.842 817.485 437.661 816.856C438.479 816.227 439.433 815.837 440.524 815.686L440.524 818.367C439.729 818.572 439.024 819.027 438.411 819.731C437.789 820.428 437.479 821.367 437.479 822.549C437.479 823.595 437.751 824.511 438.297 825.299C438.835 826.08 439.596 826.689 440.581 827.129C441.558 827.561 442.706 827.777 444.024 827.777C445.373 827.777 446.547 827.564 447.547 827.14C448.547 826.708 449.323 826.102 449.876 825.322C450.429 824.534 450.706 823.61 450.706 822.549C450.706 821.852 450.585 821.22 450.342 820.652C450.1 820.083 449.751 819.602 449.297 819.208C448.842 818.814 448.297 818.534 447.661 818.367L447.661 815.686C448.691 815.837 449.619 816.212 450.445 816.811C451.263 817.402 451.914 818.186 452.399 819.163C452.876 820.133 453.115 821.261 453.115 822.549ZM446.388 809.265L443.07 809.311L443.07 808.765L435.297 801.129L435.297 797.811L443.524 805.947L443.524 806.174L446.388 809.265ZM452.751 811.765L429.479 811.765L429.479 809.083L452.751 809.083L452.751 811.765ZM452.751 800.674L444.115 807.492L442.251 805.583L452.751 797.265L452.751 800.674ZM452.751 785.404L450.706 785.404L442.297 777.723C441.312 776.821 440.456 776.079 439.729 775.495C438.994 774.912 438.304 774.48 437.661 774.2C437.009 773.912 436.327 773.768 435.615 773.768C434.797 773.768 434.089 773.965 433.49 774.359C432.892 774.745 432.429 775.276 432.104 775.95C431.778 776.624 431.615 777.382 431.615 778.223C431.615 779.117 431.801 779.897 432.172 780.563C432.536 781.223 433.047 781.734 433.706 782.098C434.365 782.454 435.138 782.632 436.024 782.632L436.024 785.313C434.661 785.313 433.464 784.999 432.433 784.37C431.403 783.742 430.6 782.885 430.024 781.802C429.448 780.711 429.161 779.488 429.161 778.132C429.161 776.768 429.448 775.56 430.024 774.507C430.6 773.454 431.376 772.628 432.354 772.029C433.331 771.431 434.418 771.132 435.615 771.132C436.471 771.132 437.308 771.287 438.126 771.598C438.937 771.901 439.842 772.431 440.842 773.188C441.835 773.938 443.047 774.98 444.479 776.313L450.07 781.541L450.251 781.541L450.251 770.723L452.751 770.723L452.751 785.404Z" fill="white"/>
<path d="M377.979 879.206L375.479 879.206L375.479 861.751L377.979 861.751L377.979 869.069L398.751 869.069L398.751 871.887L377.979 871.887L377.979 879.206ZM398.751 859.578L381.297 859.578L381.297 856.987L383.933 856.987L383.933 856.805C383.07 856.487 382.369 855.911 381.831 855.078C381.293 854.244 381.024 853.305 381.024 852.259C381.024 852.063 381.028 851.816 381.036 851.521C381.043 851.225 381.054 851.002 381.07 850.85L383.797 850.85C383.774 850.941 383.74 851.15 383.695 851.475C383.642 851.794 383.615 852.131 383.615 852.487C383.615 853.335 383.793 854.093 384.149 854.759C384.498 855.419 384.983 855.941 385.604 856.328C386.217 856.706 386.918 856.896 387.706 856.896L398.751 856.896L398.751 859.578ZM399.161 842.535C399.161 843.641 398.952 844.645 398.536 845.546C398.111 846.448 397.501 847.164 396.706 847.694C395.903 848.224 394.933 848.49 393.797 848.49C392.797 848.49 391.986 848.293 391.365 847.899C390.736 847.505 390.244 846.978 389.888 846.319C389.532 845.66 389.267 844.933 389.092 844.137C388.911 843.334 388.767 842.527 388.661 841.717C388.524 840.656 388.422 839.796 388.354 839.137C388.278 838.471 388.153 837.986 387.979 837.683C387.804 837.372 387.501 837.217 387.07 837.217L386.979 837.217C385.858 837.217 384.986 837.524 384.365 838.137C383.744 838.743 383.433 839.664 383.433 840.899C383.433 842.179 383.714 843.183 384.274 843.91C384.835 844.637 385.433 845.149 386.07 845.444L385.161 847.99C384.1 847.535 383.274 846.929 382.683 846.171C382.085 845.406 381.668 844.573 381.433 843.671C381.191 842.762 381.07 841.868 381.07 840.99C381.07 840.429 381.138 839.785 381.274 839.058C381.403 838.323 381.672 837.615 382.081 836.933C382.49 836.243 383.108 835.671 383.933 835.217C384.759 834.762 385.865 834.535 387.251 834.535L398.751 834.535L398.751 837.217L396.388 837.217L396.388 837.353C396.767 837.535 397.172 837.838 397.604 838.262C398.036 838.687 398.403 839.251 398.706 839.956C399.009 840.66 399.161 841.52 399.161 842.535ZM396.751 842.126C396.751 841.065 396.543 840.171 396.126 839.444C395.71 838.709 395.172 838.156 394.513 837.785C393.854 837.406 393.161 837.217 392.433 837.217L389.979 837.217C390.115 837.331 390.24 837.581 390.354 837.967C390.46 838.346 390.554 838.785 390.638 839.285C390.714 839.777 390.782 840.259 390.842 840.728C390.895 841.19 390.941 841.565 390.979 841.853C391.07 842.55 391.217 843.202 391.422 843.808C391.619 844.406 391.918 844.891 392.32 845.262C392.714 845.626 393.251 845.808 393.933 845.808C394.865 845.808 395.57 845.463 396.047 844.774C396.517 844.077 396.751 843.194 396.751 842.126ZM399.115 822.549C399.115 824.186 398.729 825.595 397.956 826.777C397.183 827.958 396.119 828.867 394.763 829.504C393.407 830.14 391.858 830.458 390.115 830.458C388.342 830.458 386.778 830.133 385.422 829.481C384.058 828.822 382.994 827.905 382.229 826.731C381.456 825.549 381.07 824.17 381.07 822.595C381.07 821.367 381.297 820.261 381.751 819.277C382.206 818.292 382.842 817.485 383.661 816.856C384.479 816.227 385.433 815.837 386.524 815.686L386.524 818.367C385.729 818.572 385.024 819.027 384.411 819.731C383.789 820.428 383.479 821.367 383.479 822.549C383.479 823.595 383.751 824.511 384.297 825.299C384.835 826.08 385.596 826.689 386.581 827.129C387.558 827.561 388.706 827.777 390.024 827.777C391.373 827.777 392.547 827.564 393.547 827.14C394.547 826.708 395.323 826.102 395.876 825.322C396.429 824.534 396.706 823.61 396.706 822.549C396.706 821.852 396.585 821.22 396.342 820.652C396.1 820.083 395.751 819.602 395.297 819.208C394.842 818.814 394.297 818.534 393.661 818.367L393.661 815.686C394.691 815.837 395.619 816.212 396.445 816.811C397.263 817.402 397.914 818.186 398.399 819.163C398.876 820.133 399.115 821.261 399.115 822.549ZM392.388 809.265L389.07 809.311L389.07 808.765L381.297 801.129L381.297 797.811L389.524 805.947L389.524 806.174L392.388 809.265ZM398.751 811.765L375.479 811.765L375.479 809.083L398.751 809.083L398.751 811.765ZM398.751 800.674L390.115 807.492L388.251 805.583L398.751 797.265L398.751 800.674ZM399.07 777.541C399.07 779.041 398.812 780.378 398.297 781.552C397.782 782.719 397.066 783.647 396.149 784.336C395.225 785.018 394.153 785.389 392.933 785.45L392.933 782.586C393.683 782.526 394.331 782.268 394.876 781.813C395.414 781.359 395.831 780.764 396.126 780.029C396.422 779.295 396.57 778.48 396.57 777.586C396.57 776.586 396.395 775.7 396.047 774.927C395.698 774.154 395.214 773.548 394.592 773.109C393.971 772.67 393.251 772.45 392.433 772.45C391.577 772.45 390.823 772.662 390.172 773.086C389.513 773.51 388.998 774.132 388.626 774.95C388.255 775.768 388.07 776.768 388.07 777.95L388.07 779.813L385.57 779.813L385.57 777.95C385.57 777.026 385.403 776.215 385.07 775.518C384.736 774.813 384.267 774.264 383.661 773.87C383.054 773.469 382.342 773.268 381.524 773.268C380.736 773.268 380.051 773.442 379.467 773.791C378.884 774.139 378.429 774.632 378.104 775.268C377.778 775.897 377.615 776.639 377.615 777.495C377.615 778.298 377.763 779.056 378.058 779.768C378.346 780.473 378.767 781.048 379.32 781.495C379.865 781.942 380.524 782.185 381.297 782.223L381.297 784.95C380.077 784.904 379.009 784.537 378.092 783.848C377.168 783.158 376.448 782.257 375.933 781.143C375.418 780.022 375.161 778.791 375.161 777.45C375.161 776.01 375.452 774.776 376.036 773.745C376.611 772.715 377.373 771.923 378.32 771.37C379.267 770.817 380.289 770.541 381.388 770.541C382.698 770.541 383.816 770.885 384.74 771.575C385.664 772.257 386.304 773.185 386.661 774.359L386.842 774.359C387.085 772.889 387.71 771.742 388.717 770.916C389.717 770.09 390.956 769.677 392.433 769.677C393.698 769.677 394.835 770.022 395.842 770.711C396.842 771.393 397.63 772.325 398.206 773.507C398.782 774.688 399.07 776.033 399.07 777.541Z" fill="white"/>
<path d="M323.979 879.206L321.479 879.206L321.479 861.751L323.979 861.751L323.979 869.069L344.751 869.069L344.751 871.887L323.979 871.887L323.979 879.206ZM344.751 859.578L327.297 859.578L327.297 856.987L329.933 856.987L329.933 856.805C329.07 856.487 328.369 855.911 327.831 855.078C327.293 854.244 327.024 853.305 327.024 852.259C327.024 852.063 327.028 851.816 327.036 851.521C327.043 851.225 327.054 851.002 327.07 850.85L329.797 850.85C329.774 850.941 329.74 851.15 329.695 851.475C329.642 851.794 329.615 852.131 329.615 852.487C329.615 853.335 329.793 854.093 330.149 854.759C330.498 855.419 330.983 855.941 331.604 856.328C332.217 856.706 332.918 856.896 333.706 856.896L344.751 856.896L344.751 859.578ZM345.161 842.535C345.161 843.641 344.952 844.645 344.536 845.546C344.111 846.448 343.501 847.164 342.706 847.694C341.903 848.224 340.933 848.49 339.797 848.49C338.797 848.49 337.986 848.293 337.365 847.899C336.736 847.505 336.244 846.978 335.888 846.319C335.532 845.66 335.267 844.933 335.092 844.137C334.911 843.334 334.767 842.527 334.661 841.717C334.524 840.656 334.422 839.796 334.354 839.137C334.278 838.471 334.153 837.986 333.979 837.683C333.804 837.372 333.501 837.217 333.07 837.217L332.979 837.217C331.858 837.217 330.986 837.524 330.365 838.137C329.744 838.743 329.433 839.664 329.433 840.899C329.433 842.179 329.714 843.183 330.274 843.91C330.835 844.637 331.433 845.149 332.07 845.444L331.161 847.99C330.1 847.535 329.274 846.929 328.683 846.171C328.085 845.406 327.668 844.573 327.433 843.671C327.191 842.762 327.07 841.868 327.07 840.99C327.07 840.429 327.138 839.785 327.274 839.058C327.403 838.323 327.672 837.615 328.081 836.933C328.49 836.243 329.108 835.671 329.933 835.217C330.759 834.762 331.865 834.535 333.251 834.535L344.751 834.535L344.751 837.217L342.388 837.217L342.388 837.353C342.767 837.535 343.172 837.838 343.604 838.262C344.036 838.687 344.403 839.251 344.706 839.956C345.009 840.66 345.161 841.52 345.161 842.535ZM342.751 842.126C342.751 841.065 342.543 840.171 342.126 839.444C341.71 838.709 341.172 838.156 340.513 837.785C339.854 837.406 339.161 837.217 338.433 837.217L335.979 837.217C336.115 837.331 336.24 837.581 336.354 837.967C336.46 838.346 336.554 838.785 336.638 839.285C336.714 839.777 336.782 840.259 336.842 840.728C336.895 841.19 336.941 841.565 336.979 841.853C337.07 842.55 337.217 843.202 337.422 843.808C337.619 844.406 337.918 844.891 338.32 845.262C338.714 845.626 339.251 845.808 339.933 845.808C340.865 845.808 341.57 845.463 342.047 844.774C342.517 844.077 342.751 843.194 342.751 842.126ZM345.115 822.549C345.115 824.186 344.729 825.595 343.956 826.777C343.183 827.958 342.119 828.867 340.763 829.504C339.407 830.14 337.858 830.458 336.115 830.458C334.342 830.458 332.778 830.133 331.422 829.481C330.058 828.822 328.994 827.905 328.229 826.731C327.456 825.549 327.07 824.17 327.07 822.595C327.07 821.367 327.297 820.261 327.751 819.277C328.206 818.292 328.842 817.485 329.661 816.856C330.479 816.227 331.433 815.837 332.524 815.686L332.524 818.367C331.729 818.572 331.024 819.027 330.411 819.731C329.789 820.428 329.479 821.367 329.479 822.549C329.479 823.595 329.751 824.511 330.297 825.299C330.835 826.08 331.596 826.689 332.581 827.129C333.558 827.561 334.706 827.777 336.024 827.777C337.373 827.777 338.547 827.564 339.547 827.14C340.547 826.708 341.323 826.102 341.876 825.322C342.429 824.534 342.706 823.61 342.706 822.549C342.706 821.852 342.585 821.22 342.342 820.652C342.1 820.083 341.751 819.602 341.297 819.208C340.842 818.814 340.297 818.534 339.661 818.367L339.661 815.686C340.691 815.837 341.619 816.212 342.445 816.811C343.263 817.402 343.914 818.186 344.399 819.163C344.876 820.133 345.115 821.261 345.115 822.549ZM338.388 809.265L335.07 809.311L335.07 808.765L327.297 801.129L327.297 797.811L335.524 805.947L335.524 806.174L338.388 809.265ZM344.751 811.765L321.479 811.765L321.479 809.083L344.751 809.083L344.751 811.765ZM344.751 800.674L336.115 807.492L334.251 805.583L344.751 797.265L344.751 800.674ZM339.979 785.95L337.661 785.95L321.479 775.723L321.479 774.041L325.07 774.041L325.07 775.177L337.297 782.904L337.479 782.904L337.479 769.132L339.979 769.132L339.979 785.95ZM344.751 774.995L339.274 774.995L338.195 774.995L321.479 774.995L321.479 772.313L344.751 772.313L344.751 774.995Z" fill="white"/>
<path d="M262.979 879.206L260.479 879.206L260.479 861.751L262.979 861.751L262.979 869.069L283.751 869.069L283.751 871.887L262.979 871.887L262.979 879.206ZM283.751 859.578L266.297 859.578L266.297 856.987L268.933 856.987L268.933 856.805C268.07 856.487 267.369 855.911 266.831 855.078C266.293 854.244 266.024 853.305 266.024 852.259C266.024 852.063 266.028 851.816 266.036 851.521C266.043 851.225 266.054 851.002 266.07 850.85L268.797 850.85C268.774 850.941 268.74 851.15 268.695 851.475C268.642 851.794 268.615 852.131 268.615 852.487C268.615 853.335 268.793 854.093 269.149 854.759C269.498 855.419 269.983 855.941 270.604 856.328C271.217 856.706 271.918 856.896 272.706 856.896L283.751 856.896L283.751 859.578ZM284.161 842.535C284.161 843.641 283.952 844.645 283.536 845.546C283.111 846.448 282.501 847.164 281.706 847.694C280.903 848.224 279.933 848.49 278.797 848.49C277.797 848.49 276.986 848.293 276.365 847.899C275.736 847.505 275.244 846.978 274.888 846.319C274.532 845.66 274.267 844.933 274.092 844.137C273.911 843.334 273.767 842.527 273.661 841.717C273.524 840.656 273.422 839.796 273.354 839.137C273.278 838.471 273.153 837.986 272.979 837.683C272.804 837.372 272.501 837.217 272.07 837.217L271.979 837.217C270.858 837.217 269.986 837.524 269.365 838.137C268.744 838.743 268.433 839.664 268.433 840.899C268.433 842.179 268.714 843.183 269.274 843.91C269.835 844.637 270.433 845.149 271.07 845.444L270.161 847.99C269.1 847.535 268.274 846.929 267.683 846.171C267.085 845.406 266.668 844.573 266.433 843.671C266.191 842.762 266.07 841.868 266.07 840.99C266.07 840.429 266.138 839.785 266.274 839.058C266.403 838.323 266.672 837.615 267.081 836.933C267.49 836.243 268.108 835.671 268.933 835.217C269.759 834.762 270.865 834.535 272.251 834.535L283.751 834.535L283.751 837.217L281.388 837.217L281.388 837.353C281.767 837.535 282.172 837.838 282.604 838.262C283.036 838.687 283.403 839.251 283.706 839.956C284.009 840.66 284.161 841.52 284.161 842.535ZM281.751 842.126C281.751 841.065 281.543 840.171 281.126 839.444C280.71 838.709 280.172 838.156 279.513 837.785C278.854 837.406 278.161 837.217 277.433 837.217L274.979 837.217C275.115 837.331 275.24 837.581 275.354 837.967C275.46 838.346 275.554 838.785 275.638 839.285C275.714 839.777 275.782 840.259 275.842 840.728C275.895 841.19 275.941 841.565 275.979 841.853C276.07 842.55 276.217 843.202 276.422 843.808C276.619 844.406 276.918 844.891 277.32 845.262C277.714 845.626 278.251 845.808 278.933 845.808C279.865 845.808 280.57 845.463 281.047 844.774C281.517 844.077 281.751 843.194 281.751 842.126ZM284.115 822.549C284.115 824.186 283.729 825.595 282.956 826.777C282.183 827.958 281.119 828.867 279.763 829.504C278.407 830.14 276.858 830.458 275.115 830.458C273.342 830.458 271.778 830.133 270.422 829.481C269.058 828.822 267.994 827.905 267.229 826.731C266.456 825.549 266.07 824.17 266.07 822.595C266.07 821.367 266.297 820.261 266.751 819.277C267.206 818.292 267.842 817.485 268.661 816.856C269.479 816.227 270.433 815.837 271.524 815.686L271.524 818.367C270.729 818.572 270.024 819.027 269.411 819.731C268.789 820.428 268.479 821.367 268.479 822.549C268.479 823.595 268.751 824.511 269.297 825.299C269.835 826.08 270.596 826.689 271.581 827.129C272.558 827.561 273.706 827.777 275.024 827.777C276.373 827.777 277.547 827.564 278.547 827.14C279.547 826.708 280.323 826.102 280.876 825.322C281.429 824.534 281.706 823.61 281.706 822.549C281.706 821.852 281.585 821.22 281.342 820.652C281.1 820.083 280.751 819.602 280.297 819.208C279.842 818.814 279.297 818.534 278.661 818.367L278.661 815.686C279.691 815.837 280.619 816.212 281.445 816.811C282.263 817.402 282.914 818.186 283.399 819.163C283.876 820.133 284.115 821.261 284.115 822.549ZM277.388 809.265L274.07 809.311L274.07 808.765L266.297 801.129L266.297 797.811L274.524 805.947L274.524 806.174L277.388 809.265ZM283.751 811.765L260.479 811.765L260.479 809.083L283.751 809.083L283.751 811.765ZM283.751 800.674L275.115 807.492L273.251 805.583L283.751 797.265L283.751 800.674ZM284.07 778.132C284.07 779.465 283.804 780.666 283.274 781.734C282.744 782.802 282.017 783.658 281.092 784.302C280.168 784.946 279.115 785.298 277.933 785.359L277.933 782.632C278.986 782.526 279.858 782.048 280.547 781.2C281.229 780.344 281.57 779.321 281.57 778.132C281.57 777.177 281.346 776.329 280.899 775.586C280.452 774.836 279.839 774.249 279.058 773.825C278.27 773.393 277.38 773.177 276.388 773.177C275.373 773.177 274.467 773.401 273.672 773.848C272.869 774.287 272.236 774.893 271.774 775.666C271.312 776.438 271.077 777.321 271.07 778.313C271.062 779.026 271.172 779.757 271.399 780.507C271.619 781.257 271.903 781.874 272.251 782.359L271.933 784.995L260.479 783.586L260.479 771.495L262.979 771.495L262.979 781.223L269.842 782.041L269.842 781.904C269.464 781.427 269.149 780.829 268.899 780.109C268.649 779.389 268.524 778.639 268.524 777.859C268.524 776.435 268.865 775.166 269.547 774.052C270.221 772.931 271.145 772.052 272.32 771.416C273.494 770.772 274.835 770.45 276.342 770.45C277.827 770.45 279.153 770.783 280.32 771.45C281.479 772.109 282.395 773.018 283.07 774.177C283.736 775.336 284.07 776.654 284.07 778.132Z" fill="white"/>
<path d="M212.979 879.206L210.479 879.206L210.479 861.751L212.979 861.751L212.979 869.069L233.751 869.069L233.751 871.887L212.979 871.887L212.979 879.206ZM233.751 859.578L216.297 859.578L216.297 856.987L218.933 856.987L218.933 856.805C218.07 856.487 217.369 855.911 216.831 855.078C216.293 854.244 216.024 853.305 216.024 852.259C216.024 852.063 216.028 851.816 216.036 851.521C216.043 851.225 216.054 851.002 216.07 850.85L218.797 850.85C218.774 850.941 218.74 851.15 218.695 851.475C218.642 851.794 218.615 852.131 218.615 852.487C218.615 853.335 218.793 854.093 219.149 854.759C219.498 855.419 219.983 855.941 220.604 856.328C221.217 856.706 221.918 856.896 222.706 856.896L233.751 856.896L233.751 859.578ZM234.161 842.535C234.161 843.641 233.952 844.645 233.536 845.546C233.111 846.448 232.501 847.164 231.706 847.694C230.903 848.224 229.933 848.49 228.797 848.49C227.797 848.49 226.986 848.293 226.365 847.899C225.736 847.505 225.244 846.978 224.888 846.319C224.532 845.66 224.267 844.933 224.092 844.137C223.911 843.334 223.767 842.527 223.661 841.717C223.524 840.656 223.422 839.796 223.354 839.137C223.278 838.471 223.153 837.986 222.979 837.683C222.804 837.372 222.501 837.217 222.07 837.217L221.979 837.217C220.858 837.217 219.986 837.524 219.365 838.137C218.744 838.743 218.433 839.664 218.433 840.899C218.433 842.179 218.714 843.183 219.274 843.91C219.835 844.637 220.433 845.149 221.07 845.444L220.161 847.99C219.1 847.535 218.274 846.929 217.683 846.171C217.085 845.406 216.668 844.573 216.433 843.671C216.191 842.762 216.07 841.868 216.07 840.99C216.07 840.429 216.138 839.785 216.274 839.058C216.403 838.323 216.672 837.615 217.081 836.933C217.49 836.243 218.108 835.671 218.933 835.217C219.759 834.762 220.865 834.535 222.251 834.535L233.751 834.535L233.751 837.217L231.388 837.217L231.388 837.353C231.767 837.535 232.172 837.838 232.604 838.262C233.036 838.687 233.403 839.251 233.706 839.956C234.009 840.66 234.161 841.52 234.161 842.535ZM231.751 842.126C231.751 841.065 231.543 840.171 231.126 839.444C230.71 838.709 230.172 838.156 229.513 837.785C228.854 837.406 228.161 837.217 227.433 837.217L224.979 837.217C225.115 837.331 225.24 837.581 225.354 837.967C225.46 838.346 225.554 838.785 225.638 839.285C225.714 839.777 225.782 840.259 225.842 840.728C225.895 841.19 225.941 841.565 225.979 841.853C226.07 842.55 226.217 843.202 226.422 843.808C226.619 844.406 226.918 844.891 227.32 845.262C227.714 845.626 228.251 845.808 228.933 845.808C229.865 845.808 230.57 845.463 231.047 844.774C231.517 844.077 231.751 843.194 231.751 842.126ZM234.115 822.549C234.115 824.186 233.729 825.595 232.956 826.777C232.183 827.958 231.119 828.867 229.763 829.504C228.407 830.14 226.858 830.458 225.115 830.458C223.342 830.458 221.778 830.133 220.422 829.481C219.058 828.822 217.994 827.905 217.229 826.731C216.456 825.549 216.07 824.17 216.07 822.595C216.07 821.367 216.297 820.261 216.751 819.277C217.206 818.292 217.842 817.485 218.661 816.856C219.479 816.227 220.433 815.837 221.524 815.686L221.524 818.367C220.729 818.572 220.024 819.027 219.411 819.731C218.789 820.428 218.479 821.367 218.479 822.549C218.479 823.595 218.751 824.511 219.297 825.299C219.835 826.08 220.596 826.689 221.581 827.129C222.558 827.561 223.706 827.777 225.024 827.777C226.373 827.777 227.547 827.564 228.547 827.14C229.547 826.708 230.323 826.102 230.876 825.322C231.429 824.534 231.706 823.61 231.706 822.549C231.706 821.852 231.585 821.22 231.342 820.652C231.1 820.083 230.751 819.602 230.297 819.208C229.842 818.814 229.297 818.534 228.661 818.367L228.661 815.686C229.691 815.837 230.619 816.212 231.445 816.811C232.263 817.402 232.914 818.186 233.399 819.163C233.876 820.133 234.115 821.261 234.115 822.549ZM227.388 809.265L224.07 809.311L224.07 808.765L216.297 801.129L216.297 797.811L224.524 805.947L224.524 806.174L227.388 809.265ZM233.751 811.765L210.479 811.765L210.479 809.083L233.751 809.083L233.751 811.765ZM233.751 800.674L225.115 807.492L223.251 805.583L233.751 797.265L233.751 800.674ZM234.07 777.677C234.054 778.632 233.873 779.586 233.524 780.541C233.176 781.495 232.589 782.367 231.763 783.154C230.929 783.942 229.804 784.575 228.388 785.052C226.964 785.529 225.176 785.768 223.024 785.768C220.964 785.768 219.138 785.575 217.547 785.188C215.948 784.802 214.604 784.242 213.513 783.507C212.414 782.772 211.581 781.885 211.013 780.848C210.445 779.802 210.161 778.624 210.161 777.313C210.161 776.01 210.422 774.851 210.945 773.836C211.46 772.813 212.179 771.98 213.104 771.336C214.028 770.692 215.092 770.276 216.297 770.086L216.297 772.859C215.251 773.117 214.384 773.617 213.695 774.359C213.005 775.101 212.661 776.086 212.661 777.313C212.661 779.117 213.445 780.537 215.013 781.575C216.581 782.605 218.782 783.124 221.615 783.132L221.615 782.95C220.971 782.526 220.422 782.022 219.967 781.438C219.505 780.848 219.149 780.196 218.899 779.484C218.649 778.772 218.524 778.018 218.524 777.223C218.524 775.889 218.858 774.67 219.524 773.563C220.183 772.457 221.096 771.571 222.263 770.904C223.422 770.238 224.751 769.904 226.251 769.904C227.691 769.904 229.009 770.226 230.206 770.87C231.395 771.514 232.342 772.42 233.047 773.586C233.744 774.745 234.085 776.109 234.07 777.677ZM231.57 777.677C231.57 776.723 231.331 775.867 230.854 775.109C230.376 774.344 229.736 773.742 228.933 773.302C228.13 772.855 227.236 772.632 226.251 772.632C225.289 772.632 224.414 772.848 223.626 773.279C222.831 773.704 222.198 774.291 221.729 775.041C221.259 775.783 221.024 776.632 221.024 777.586C221.024 778.306 221.168 778.976 221.456 779.598C221.736 780.219 222.123 780.764 222.615 781.234C223.108 781.696 223.672 782.06 224.308 782.325C224.937 782.59 225.6 782.723 226.297 782.723C227.221 782.723 228.085 782.507 228.888 782.075C229.691 781.635 230.339 781.037 230.831 780.279C231.323 779.514 231.57 778.647 231.57 777.677Z" fill="white"/>
<path d="M555 942L543 954" stroke="#FF0000" stroke-width="3" stroke-linecap="round" stroke-linejoin="round"/>
<path d="M543 942L555 954" stroke="#FF0000" stroke-width="3" stroke-linecap="round" stroke-linejoin="round"/>
<path d="M489 976L477 988" stroke="#FF0000" stroke-width="3" stroke-linecap="round" stroke-linejoin="round"/>
<path d="M477 976L489 988" stroke="#FF0000" stroke-width="3" stroke-linecap="round" stroke-linejoin="round"/>
<path d="M327 936L315 948" stroke="#FF0000" stroke-width="3" stroke-linecap="round" stroke-linejoin="round"/>
<path d="M315 936L327 948" stroke="#FF0000" stroke-width="3" stroke-linecap="round" stroke-linejoin="round"/>
<path d="M280 912L268 924" stroke="#FF0000" stroke-width="3" stroke-linecap="round" stroke-linejoin="round"/>
<path d="M268 912L280 924" stroke="#FF0000" stroke-width="3" stroke-linecap="round" stroke-linejoin="round"/>
<mask id="path-63-inside-16_223_33" fill="white">
<path d="M396.689 962.545L390.194 958.795C390.194 958.795 325.397 1050.13 294.368 1099.77C263.34 1149.4 244.618 1161.63 218.606 1163.99C139.998 1171.15 93.078 1262.41 93.078 1262.41L190.939 1318.91L396.689 962.545Z"/>
</mask>
<path d="M396.689 962.545L390.194 958.795C390.194 958.795 325.397 1050.13 294.368 1099.77C263.34 1149.4 244.618 1161.63 218.606 1163.99C139.998 1171.15 93.078 1262.41 93.078 1262.41L190.939 1318.91L396.689 962.545Z" fill="#E27C00"/>
<path d="M391.194 957.063C390.527 958.218 389.86 959.372 389.194 960.527C391.359 961.777 393.524 963.027 395.689 964.277L394.957 961.545C388.11 973.403 381.264 985.262 374.418 997.12C312.681 1104.05 250.944 1210.98 189.207 1317.91L191.939 1317.18C159.319 1298.35 126.698 1279.52 94.078 1260.68L94.8567 1263.33C121.311 1216.83 163.496 1171.52 218.788 1165.98C235.833 1165.01 252.113 1156.23 263.685 1144.07C276.47 1131.06 286.464 1116.04 296.064 1100.83C317.701 1066.54 340.819 1033.09 363.962 999.69C373.198 986.407 382.547 973.058 391.825 959.952C390.737 959.181 389.65 958.409 388.562 957.638C379.271 970.763 369.921 984.114 360.678 997.407C337.514 1030.84 314.399 1064.28 292.672 1098.71C283.154 1113.81 273.22 1128.68 260.851 1141.25C249.55 1153.01 234.754 1160.99 218.425 1162C160.881 1167.94 118.333 1214.09 91.2993 1261.5L90.4284 1263.19L92.078 1264.15C124.698 1282.98 157.319 1301.81 189.939 1320.65L191.671 1321.65L192.671 1319.91C254.408 1212.98 316.145 1106.05 377.882 999.12C384.728 987.262 391.575 975.403 398.421 963.545L399.421 961.813L397.689 960.813C395.524 959.563 393.359 958.313 391.194 957.063ZM389.194 960.527L391.194 957.063L389.616 956.152L388.562 957.638L391.825 959.952L389.194 960.527Z" fill="black" mask="url(#path-63-inside-16_223_33)"/>
<circle cx="143.258" cy="1288.5" r="54.5" transform="rotate(30 143.258 1288.5)" fill="#E27C00" stroke="black" stroke-width="4"/>
<circle cx="143.258" cy="1288.5" r="48" transform="rotate(30 143.258 1288.5)" fill="#E27C00" stroke="black"/>
<circle cx="143.258" cy="1288.5" r="40" transform="rotate(30 143.258 1288.5)" fill="#E27C00" stroke="black"/>
<circle cx="143.441" cy="1289.18" r="10.5" transform="rotate(30 143.441 1289.18)" fill="#E27C00" stroke="black"/>
<path d="M331.563 940.1C331.066 940.342 330.859 940.94 331.1 941.437L335.032 949.532C335.273 950.029 335.872 950.236 336.369 949.995C336.865 949.754 337.072 949.155 336.831 948.659L333.336 941.463L340.532 937.967C341.029 937.726 341.236 937.128 340.995 936.631C340.753 936.134 340.155 935.927 339.658 936.168L331.563 940.1ZM384 959L384.327 958.055L332.327 940.055L332 941L331.672 941.945L383.672 959.945L384 959Z" fill="white"/>
<path d="M282.641 928.067C282.126 928.265 281.868 928.843 282.067 929.359L285.297 937.759C285.496 938.275 286.074 938.532 286.59 938.333C287.105 938.135 287.362 937.557 287.164 937.041L284.292 929.574L291.759 926.703C292.275 926.504 292.532 925.926 292.333 925.41C292.135 924.895 291.557 924.638 291.041 924.836L282.641 928.067ZM310 941L310.406 940.086L283.406 928.086L283 929L282.594 929.914L309.593 941.914L310 941Z" fill="white"/>
<path d="M470.465 975.885C470.954 975.628 471.142 975.023 470.884 974.534L466.691 966.571C466.434 966.082 465.829 965.894 465.341 966.152C464.852 966.409 464.664 967.014 464.922 967.502L468.649 974.581L461.57 978.308C461.081 978.566 460.894 979.17 461.151 979.659C461.408 980.148 462.013 980.335 462.502 980.078L470.465 975.885ZM283 917L282.704 917.955L469.703 975.955L470 975L470.296 974.045L283.296 916.045L283 917Z" fill="white"/>
<path d="M538.979 950.201C539.09 949.66 538.741 949.131 538.2 949.02L529.384 947.212C528.843 947.101 528.314 947.45 528.203 947.991C528.093 948.532 528.441 949.06 528.982 949.171L536.819 950.779L535.211 958.615C535.1 959.156 535.449 959.685 535.99 959.796C536.531 959.907 537.06 959.558 537.171 959.017L538.979 950.201ZM491 981L491.55 981.835L538.55 950.835L538 950L537.449 949.165L490.449 980.165L491 981Z" fill="white"/>
</g>
<defs>
<clipPath id="clip0_223_33">
<rect width="698" height="698" fill="white"/>
</clipPath>
<clipPath id="clip1_223_33">
<rect width="698" height="698" fill="white" transform="translate(0 698)"/>
</clipPath>
</defs>
</svg>
