<svg xmlns="http://www.w3.org/2000/svg" width="1130" height="1319" fill="none" viewBox="0 0 1130 1319"><path stroke="#717171" stroke-width="4" d="M687.816 754.814h348.004M648.402 666.4l246-246M477.402 670.229l-246-246M232.402 1083.4l246-246M894.402 1086.23l-246-246.001M452.031 709.852 130.617 576.717M516.005 643.331 382.871 321.916M608.278 641.53l133.135-321.415M674.799 705.503l321.415-133.134M996.485 934.607 675.071 801.472M742.066 1187.24 608.932 865.828M383.524 1185.98l133.134-321.412M130.888 931.564 452.302 798.43M91.816 754.814h348M563.816 876.814v347.996M563.816 280.814v348"/><circle cx="563.816" cy="752.814" r="469.5" stroke="#fff" stroke-width="5"/><circle cx="563.816" cy="752.814" r="424.5" stroke="#fff" stroke-width="3"/><circle cx="563.816" cy="752.814" r="381.5" stroke="#fff" stroke-width="3"/><circle cx="563.816" cy="752.814" r="337.5" stroke="#fff" stroke-width="3"/><circle cx="563.816" cy="752.814" r="294.5" stroke="#fff" stroke-width="3"/><circle cx="563.816" cy="752.814" r="250.5" stroke="#fff" stroke-width="3"/><circle cx="563.816" cy="752.814" r="207.5" stroke="#fff" stroke-width="3"/><circle cx="563.816" cy="752.814" r="165.5" stroke="#fff" stroke-width="3"/><circle cx="563.816" cy="752.814" r="122.5" stroke="#fff" stroke-width="3"/><path stroke="#dbdbdb" stroke-width="4" d="M421.351 207.65a563.46 563.46 0 0 1 454.421 75.927 563.5 563.5 0 0 1 164.578 168.54 563.5 563.5 0 0 1 81.29 221.093 563.7 563.7 0 0 1-16.2 235.006 563.5 563.5 0 0 1-110.866 207.844 563.5 563.5 0 0 1-186.147 144.36 563.5 563.5 0 0 1-228.897 55.65"/><path stroke="#dbdbdb" stroke-linecap="round" stroke-linejoin="round" stroke-width="4" d="m462.25 228.744-44.189-20.463 23.585-42.606"/><path fill="#fff" d="M92.112 228.042v-2.5h17.454v2.5h-7.318v20.772H99.43v-20.772zm24.122 10.272v10.5h-2.682v-23.272h2.682v8.545h.227a4.94 4.94 0 0 1 1.841-2.148q1.239-.806 3.295-.806 1.785 0 3.125.716 1.342.704 2.08 2.17.75 1.455.75 3.705v11.09h-2.682v-10.909q0-2.079-1.079-3.216-1.069-1.147-2.966-1.147-1.319 0-2.364.557a4.06 4.06 0 0 0-1.636 1.625q-.591 1.068-.591 2.59m23.542 10.864q-2.522 0-4.352-1.114-1.818-1.125-2.807-3.136-.977-2.023-.977-4.704 0-2.682.977-4.728.989-2.056 2.75-3.204 1.773-1.16 4.137-1.159 1.363 0 2.693.454a6.7 6.7 0 0 1 2.42 1.477q1.091 1.012 1.739 2.682t.648 4.114v1.136h-13.455v-2.318h10.727q0-1.478-.591-2.636a4.45 4.45 0 0 0-1.659-1.83q-1.068-.67-2.522-.67-1.603 0-2.773.795a5.24 5.24 0 0 0-1.784 2.046 6 6 0 0 0-.625 2.704v1.546q0 1.977.682 3.352.693 1.363 1.92 2.079 1.227.705 2.852.705 1.057 0 1.909-.295a4.1 4.1 0 0 0 1.489-.91 4.1 4.1 0 0 0 .966-1.522l2.591.727a5.74 5.74 0 0 1-1.375 2.318q-.966.988-2.386 1.546-1.42.545-3.194.545m26.898 0q-2.182 0-3.852-1.102-1.67-1.114-2.614-3.137-.943-2.034-.943-4.806 0-2.751.943-4.773.944-2.023 2.625-3.125t3.887-1.102q1.704 0 2.693.568 1 .556 1.522 1.273.535.704.83 1.159h.227v-8.591h2.682v23.272h-2.591v-2.681h-.318a17 17 0 0 1-.841 1.204q-.545.716-1.557 1.284-1.011.557-2.693.557m.364-2.409q1.614 0 2.727-.841 1.113-.852 1.693-2.352.58-1.512.58-3.489 0-1.955-.568-3.42-.569-1.477-1.682-2.296-1.114-.83-2.75-.829-1.706 0-2.841.875-1.125.863-1.693 2.352-.558 1.478-.557 3.318 0 1.864.568 3.387.58 1.51 1.705 2.409 1.136.886 2.818.886m12.92 2.045V231.36h2.682v17.454zm1.364-20.363q-.785 0-1.352-.534a1.71 1.71 0 0 1-.557-1.284q0-.75.557-1.284a1.9 1.9 0 0 1 1.352-.535q.784 0 1.341.535.568.534.568 1.284t-.568 1.284a1.87 1.87 0 0 1-1.341.534m18.594 6.818-2.409.682a4.5 4.5 0 0 0-.671-1.171q-.432-.579-1.182-.954t-1.92-.375q-1.602 0-2.671.738-1.056.728-1.056 1.853 0 1 .727 1.579.727.58 2.273.966l2.59.637q2.341.567 3.489 1.738 1.148 1.16 1.148 2.989 0 1.5-.864 2.682-.852 1.182-2.386 1.863-1.534.682-3.568.682-2.671 0-4.421-1.159t-2.216-3.386l2.546-.637q.363 1.41 1.375 2.114 1.023.704 2.67.704 1.875 0 2.977-.795 1.114-.807 1.114-1.932 0-.908-.636-1.523-.637-.624-1.955-.931l-2.909-.682q-2.398-.568-3.523-1.762-1.113-1.204-1.113-3.011 0-1.477.829-2.614.841-1.136 2.284-1.784 1.455-.647 3.296-.647 2.59 0 4.068 1.136 1.488 1.137 2.114 3m6.855 7.182-.046-3.318h.546l7.636-7.773h3.318l-8.136 8.227h-.227zm-2.5 6.363v-23.272h2.682v23.272zm11.091 0-6.819-8.636 1.91-1.864 8.318 10.5zm22.406.364q-2.455 0-4.227-1.159t-2.728-3.193q-.954-2.034-.954-4.648 0-2.66.977-4.693.989-2.046 2.75-3.193 1.773-1.16 4.136-1.159 1.842 0 3.319.681a6.36 6.36 0 0 1 2.42 1.91q.943 1.227 1.171 2.863h-2.682q-.307-1.193-1.364-2.113-1.045-.933-2.818-.932-1.569 0-2.75.818-1.17.807-1.83 2.284-.647 1.466-.647 3.443 0 2.023.636 3.523.648 1.5 1.818 2.329 1.182.83 2.773.83 1.045 0 1.898-.364a3.9 3.9 0 0 0 1.443-1.045q.59-.682.841-1.636h2.682a6.2 6.2 0 0 1-1.125 2.784q-.886 1.227-2.353 1.954-1.454.716-3.386.716m15.92.046q-1.66 0-3.011-.625a5.2 5.2 0 0 1-2.148-1.83q-.795-1.205-.795-2.909 0-1.5.591-2.432a4.17 4.17 0 0 1 1.579-1.477 8.3 8.3 0 0 1 2.182-.796q1.204-.272 2.421-.431 1.59-.205 2.579-.307 1-.114 1.455-.375.465-.263.466-.909v-.091q0-1.682-.921-2.614-.909-.932-2.761-.932-1.92 0-3.012.841-1.09.841-1.534 1.796l-2.545-.909q.681-1.591 1.818-2.478a6.8 6.8 0 0 1 2.5-1.25 10.4 10.4 0 0 1 2.682-.363q.84 0 1.932.204a6.2 6.2 0 0 1 2.125.807q1.034.614 1.716 1.852.681 1.239.681 3.318v11.5h-2.681v-2.363h-.137q-.273.568-.909 1.216t-1.693 1.102q-1.058.455-2.58.455m.409-2.41q1.592 0 2.682-.625 1.103-.624 1.659-1.613a4.1 4.1 0 0 0 .569-2.08v-2.454q-.171.204-.75.375-.569.158-1.319.284-.738.114-1.443.204-.693.08-1.125.137a10.2 10.2 0 0 0-1.954.443q-.899.295-1.455.898-.546.59-.545 1.613 0 1.398 1.034 2.114 1.045.704 2.647.704m15.168-8.5v10.5h-2.682V231.36h2.591v2.727h.227a5 5 0 0 1 1.864-2.136q1.25-.819 3.227-.818 1.773 0 3.103.727 1.329.715 2.068 2.182.738 1.454.738 3.682v11.09h-2.681v-10.909q0-2.056-1.069-3.204-1.068-1.16-2.931-1.159-1.284 0-2.296.557-1 .556-1.579 1.625-.58 1.068-.58 2.59m32.128 10.864q-2.364 0-4.148-1.125-1.773-1.125-2.773-3.148-.988-2.022-.988-4.727 0-2.727.988-4.761 1-2.034 2.773-3.159 1.784-1.125 4.148-1.125t4.136 1.125q1.785 1.125 2.773 3.159 1 2.034 1 4.761 0 2.705-1 4.727-.988 2.023-2.773 3.148-1.773 1.125-4.136 1.125m0-2.409q1.796 0 2.954-.92 1.16-.921 1.716-2.421.558-1.5.557-3.25 0-1.75-.557-3.261-.556-1.512-1.716-2.443-1.158-.933-2.954-.932-1.796 0-2.955.932-1.158.931-1.716 2.443-.556 1.51-.556 3.261 0 1.75.556 3.25.558 1.5 1.716 2.421 1.16.92 2.955.92m14.685-8.455v10.5h-2.682V231.36h2.591v2.727h.227a5 5 0 0 1 1.864-2.136q1.25-.819 3.227-.818 1.773 0 3.102.727 1.33.715 2.068 2.182.74 1.454.739 3.682v11.09h-2.682v-10.909q0-2.056-1.068-3.204-1.068-1.16-2.932-1.159-1.284 0-2.295.557-1 .556-1.58 1.625-.579 1.068-.579 2.59m18.718-12.772v23.272h-2.682v-23.272zm6.639 29.818a6 6 0 0 1-1.215-.114q-.534-.102-.739-.204l.682-2.364q.977.25 1.727.182.75-.069 1.33-.671.59-.59 1.079-1.92l.5-1.364-6.454-17.545h2.909l4.818 13.909h.182l4.818-13.909h2.909l-7.409 20q-.5 1.352-1.239 2.239a4.64 4.64 0 0 1-1.716 1.329q-.966.432-2.182.432m-230.602 32.454V270.36h2.591v2.636h.182q.477-1.295 1.727-2.102t2.818-.807q.296 0 .739.012.443.01.67.034v2.727a8 8 0 0 0-.625-.102 6 6 0 0 0-1.011-.08q-1.272 0-2.273.534a4.04 4.04 0 0 0-1.568 1.455q-.568.92-.568 2.102v11.045zm18.466.364q-2.363 0-4.148-1.125-1.772-1.125-2.772-3.148-.989-2.022-.989-4.727 0-2.727.989-4.761 1-2.034 2.772-3.159 1.784-1.125 4.148-1.125t4.136 1.125q1.785 1.125 2.773 3.159 1 2.034 1 4.761 0 2.705-1 4.727-.988 2.023-2.773 3.148-1.772 1.125-4.136 1.125m0-2.409q1.796 0 2.955-.92 1.158-.921 1.716-2.421.556-1.5.556-3.25t-.556-3.261q-.558-1.512-1.716-2.443-1.16-.933-2.955-.932-1.796 0-2.954.932-1.16.931-1.716 2.443-.558 1.51-.557 3.261 0 1.75.557 3.25.556 1.5 1.716 2.421 1.158.92 2.954.92m19.594-15.409v2.273h-9.046v-2.273zm-6.409-4.182h2.682v16.636q0 1.137.329 1.705.34.556.864.75.534.182 1.125.182.443 0 .727-.046l.455-.091.545 2.41a5.5 5.5 0 0 1-.761.204q-.489.114-1.239.114-1.137 0-2.227-.489a4.43 4.43 0 0 1-1.796-1.489q-.704-1-.704-2.522zm15.579 22.046q-1.66 0-3.011-.625a5.2 5.2 0 0 1-2.148-1.83q-.795-1.205-.795-2.909 0-1.5.591-2.432a4.17 4.17 0 0 1 1.579-1.477 8.3 8.3 0 0 1 2.182-.796q1.204-.272 2.421-.431 1.59-.205 2.579-.307 1-.114 1.455-.375.466-.262.466-.909v-.091q0-1.682-.921-2.614-.909-.932-2.761-.932-1.92 0-3.012.841-1.09.841-1.534 1.796l-2.545-.909q.681-1.591 1.818-2.478a6.8 6.8 0 0 1 2.5-1.25 10.4 10.4 0 0 1 2.682-.363q.84 0 1.932.204a6.2 6.2 0 0 1 2.125.807q1.033.614 1.716 1.852.681 1.239.681 3.318v11.5h-2.681v-2.363h-.137q-.273.568-.909 1.216-.637.648-1.693 1.102-1.058.455-2.58.455m.409-2.41q1.592 0 2.682-.625 1.103-.624 1.659-1.613a4.1 4.1 0 0 0 .569-2.08v-2.454q-.171.204-.75.375-.569.159-1.319.284-.738.114-1.443.204-.693.08-1.125.137a10.2 10.2 0 0 0-1.954.443q-.899.295-1.455.898-.546.59-.545 1.613 0 1.398 1.034 2.114 1.045.704 2.647.704m20.077-15.454v2.273h-9.045v-2.273zm-6.409-4.182h2.682v16.636q0 1.137.329 1.705.342.556.864.75.534.182 1.125.182.443 0 .727-.046l.455-.091.545 2.41a5.5 5.5 0 0 1-.761.204q-.489.114-1.239.114-1.136 0-2.227-.489a4.4 4.4 0 0 1-1.795-1.489q-.705-1-.705-2.522zm17.574 22q-2.523 0-4.352-1.114-1.819-1.125-2.807-3.136-.977-2.023-.977-4.704 0-2.682.977-4.728.989-2.057 2.75-3.204 1.772-1.16 4.136-1.159 1.364 0 2.693.454a6.7 6.7 0 0 1 2.421 1.477q1.091 1.012 1.738 2.682.648 1.67.648 4.114v1.136h-13.454v-2.318h10.727q0-1.478-.591-2.636a4.45 4.45 0 0 0-1.659-1.83q-1.068-.67-2.523-.67-1.602 0-2.773.795a5.24 5.24 0 0 0-1.784 2.046 6 6 0 0 0-.625 2.704v1.546q0 1.977.682 3.352.693 1.363 1.921 2.079 1.227.705 2.852.705 1.056 0 1.909-.295a4.1 4.1 0 0 0 1.489-.91q.624-.613.966-1.522l2.59.727a5.7 5.7 0 0 1-1.375 2.318q-.966.988-2.386 1.546-1.42.545-3.193.545m27.398 0q-2.455 0-4.228-1.159t-2.727-3.193-.954-4.648q0-2.66.977-4.693.989-2.046 2.75-3.193 1.772-1.16 4.136-1.159 1.84 0 3.318.681a6.36 6.36 0 0 1 2.421 1.91q.943 1.227 1.17 2.863h-2.682q-.306-1.193-1.363-2.113-1.046-.933-2.818-.932-1.57 0-2.75.818-1.172.807-1.83 2.284-.648 1.466-.648 3.443 0 2.023.637 3.523.648 1.5 1.818 2.329 1.182.83 2.773.83 1.045 0 1.897-.364a3.9 3.9 0 0 0 1.444-1.045q.59-.682.84-1.636h2.682a6.2 6.2 0 0 1-1.125 2.784q-.887 1.227-2.352 1.954-1.455.716-3.386.716m17.875 0q-2.364 0-4.148-1.125-1.773-1.125-2.773-3.148-.988-2.022-.988-4.727 0-2.727.988-4.761 1-2.034 2.773-3.159 1.784-1.125 4.148-1.125t4.136 1.125q1.784 1.125 2.773 3.159 1 2.034 1 4.761 0 2.705-1 4.727-.989 2.023-2.773 3.148-1.773 1.125-4.136 1.125m0-2.409q1.795 0 2.954-.92 1.16-.921 1.716-2.421.557-1.5.557-3.25t-.557-3.261-1.716-2.443q-1.159-.933-2.954-.932-1.795 0-2.955.932-1.16.931-1.716 2.443-.557 1.51-.557 3.261 0 1.75.557 3.25.556 1.5 1.716 2.421t2.955.92m23.002-5.091V270.36h2.682v17.454h-2.682v-2.954h-.181q-.614 1.33-1.909 2.261-1.296.921-3.273.921-1.637 0-2.909-.716-1.273-.727-2-2.182-.728-1.466-.728-3.693V270.36h2.682v10.909q0 1.91 1.068 3.045 1.08 1.137 2.75 1.137 1 0 2.035-.512 1.045-.51 1.75-1.568.715-1.056.715-2.693m10.276-3.364v10.5h-2.682V270.36h2.591v2.727h.227a5 5 0 0 1 1.864-2.136q1.25-.818 3.227-.818 1.773 0 3.103.727 1.329.715 2.068 2.182.738 1.454.738 3.682v11.09h-2.681v-10.909q0-2.057-1.069-3.204-1.068-1.16-2.931-1.159-1.284 0-2.296.557-1 .556-1.579 1.625-.58 1.068-.58 2.59m23.628-6.954v2.273h-9.046v-2.273zm-6.409-4.182h2.682v16.636q0 1.137.329 1.705.34.556.864.75.534.182 1.125.182.443 0 .727-.046l.455-.091.545 2.41a5.5 5.5 0 0 1-.761.204q-.489.114-1.239.114-1.137 0-2.227-.489a4.43 4.43 0 0 1-1.796-1.489q-.704-1-.704-2.522zm17.574 22q-2.523 0-4.353-1.114-1.818-1.125-2.806-3.136-.978-2.023-.978-4.704 0-2.682.978-4.728.988-2.057 2.75-3.204 1.772-1.16 4.136-1.159 1.364 0 2.693.454a6.7 6.7 0 0 1 2.421 1.477q1.09 1.012 1.738 2.682t.648 4.114v1.136H296.83v-2.318h10.728q0-1.478-.591-2.636a4.46 4.46 0 0 0-1.659-1.83q-1.068-.67-2.523-.67-1.603 0-2.773.795a5.24 5.24 0 0 0-1.784 2.046 6 6 0 0 0-.625 2.704v1.546q0 1.977.682 3.352.693 1.363 1.92 2.079 1.228.705 2.853.705 1.057 0 1.909-.295a4.1 4.1 0 0 0 1.488-.91 4.1 4.1 0 0 0 .966-1.522l2.591.727a5.74 5.74 0 0 1-1.375 2.318q-.966.988-2.386 1.546-1.421.545-3.193.545m11.306-.364V270.36h2.591v2.636h.182q.477-1.295 1.727-2.102t2.819-.807q.295 0 .738.012.444.01.671.034v2.727a8 8 0 0 0-.625-.102 6 6 0 0 0-1.012-.08q-1.272 0-2.272.534a4.04 4.04 0 0 0-1.569 1.455q-.567.92-.568 2.102v11.045zm20.625-11.227v2.5h-10.181v-2.5zm-177.018 50.591q-2.454 0-4.227-1.159t-2.728-3.193q-.954-2.034-.954-4.648 0-2.66.977-4.693.989-2.046 2.75-3.193 1.773-1.16 4.137-1.159 1.84 0 3.318.681a6.35 6.35 0 0 1 2.42 1.91q.943 1.227 1.171 2.863h-2.682q-.307-1.193-1.364-2.113-1.045-.933-2.818-.932-1.568 0-2.75.818-1.17.807-1.83 2.284-.647 1.466-.647 3.443 0 2.023.636 3.523.648 1.5 1.818 2.329 1.182.83 2.773.83 1.046 0 1.898-.364a3.9 3.9 0 0 0 1.443-1.045q.59-.682.841-1.636h2.682a6.2 6.2 0 0 1-1.125 2.784q-.886 1.227-2.353 1.954-1.454.716-3.386.716m13.466-23.636v23.272h-2.682v-23.272zm12.003 23.636q-2.364 0-4.148-1.125-1.773-1.125-2.773-3.148-.988-2.022-.988-4.727 0-2.727.988-4.761 1-2.034 2.773-3.159 1.784-1.125 4.148-1.125t4.136 1.125q1.785 1.125 2.773 3.159 1 2.034 1 4.761 0 2.705-1 4.727-.988 2.023-2.773 3.148-1.773 1.125-4.136 1.125m0-2.409q1.796 0 2.954-.92 1.16-.921 1.716-2.421.557-1.5.557-3.25t-.557-3.261-1.716-2.443q-1.158-.933-2.954-.932-1.796 0-2.955.932-1.16.931-1.716 2.443-.557 1.51-.557 3.261 0 1.75.557 3.25t1.716 2.421q1.16.92 2.955.92m19.093 2.409q-2.454 0-4.227-1.159t-2.727-3.193-.955-4.648q0-2.66.978-4.693.988-2.046 2.75-3.193 1.772-1.16 4.136-1.159 1.84 0 3.318.681a6.36 6.36 0 0 1 2.421 1.91q.943 1.227 1.17 2.863h-2.682q-.306-1.193-1.363-2.113-1.046-.933-2.819-.932-1.568 0-2.75.818-1.17.807-1.829 2.284-.648 1.466-.648 3.443 0 2.023.637 3.523.647 1.5 1.818 2.329 1.182.83 2.772.83 1.046 0 1.898-.364a3.9 3.9 0 0 0 1.443-1.045q.591-.682.841-1.636h2.682a6.2 6.2 0 0 1-1.125 2.784q-.887 1.227-2.352 1.954-1.455.716-3.387.716m13.285-6.727-.046-3.318h.546l7.636-7.773h3.318l-8.136 8.227h-.228zm-2.5 6.363v-23.272h2.681v23.272zm11.09 0-6.818-8.636 1.909-1.864 8.319 10.5zm10.27 0-5.318-17.454h2.818l3.773 13.364h.182l3.727-13.364h2.864l3.682 13.318h.181l3.773-13.318h2.818l-5.318 17.454h-2.636l-3.818-13.409h-.273l-3.818 13.409zm22.046 0V309.36h2.682v17.454zm1.363-20.363q-.783 0-1.352-.534a1.72 1.72 0 0 1-.557-1.284q0-.75.557-1.284.569-.535 1.352-.535.785 0 1.341.535.569.534.569 1.284t-.569 1.284a1.87 1.87 0 0 1-1.341.534m18.594 6.818-2.409.682a4.5 4.5 0 0 0-.67-1.171q-.432-.579-1.182-.954t-1.921-.375q-1.602 0-2.67.738-1.057.728-1.057 1.853 0 1 .727 1.579.728.58 2.273.966l2.591.637q2.341.567 3.489 1.738 1.147 1.16 1.147 2.989 0 1.5-.863 2.682-.852 1.182-2.387 1.863-1.534.682-3.568.682-2.67 0-4.42-1.159t-2.216-3.386l2.545-.637q.364 1.41 1.375 2.114 1.023.704 2.671.704 1.875 0 2.977-.795 1.113-.807 1.114-1.932a2.03 2.03 0 0 0-.637-1.523q-.636-.624-1.954-.931l-2.909-.682q-2.398-.568-3.523-1.762-1.113-1.204-1.114-3.011 0-1.477.83-2.614.84-1.136 2.284-1.784 1.455-.647 3.295-.647 2.592 0 4.069 1.136 1.489 1.137 2.113 3m11.674 13.909q-2.523 0-4.353-1.114-1.817-1.125-2.807-3.136-.977-2.023-.977-4.704 0-2.682.977-4.728.99-2.057 2.75-3.204 1.773-1.16 4.137-1.159 1.364 0 2.693.454a6.7 6.7 0 0 1 2.42 1.477q1.092 1.012 1.739 2.682.648 1.67.648 4.114v1.136h-13.455v-2.318h10.728q0-1.478-.591-2.636a4.46 4.46 0 0 0-1.659-1.83q-1.07-.67-2.523-.67-1.602 0-2.773.795a5.24 5.24 0 0 0-1.784 2.046 6 6 0 0 0-.625 2.704v1.546q0 1.977.682 3.352.693 1.363 1.92 2.079 1.227.705 2.853.705 1.056 0 1.909-.295a4.1 4.1 0 0 0 1.488-.91 4.1 4.1 0 0 0 .966-1.522l2.591.727a5.74 5.74 0 0 1-1.375 2.318q-.966.988-2.386 1.546-1.421.545-3.193.545M449.143 57V20.636h7.688V35.64h15.607V20.636h7.671V57h-7.671V41.979h-15.607V57zm44.94.515q-2.61 0-4.652-.906-2.043-.922-3.232-2.716-1.172-1.811-1.172-4.51 0-2.273.835-3.818a6.76 6.76 0 0 1 2.272-2.485q1.438-.942 3.267-1.42a25 25 0 0 1 3.871-.676 98 98 0 0 0 3.835-.461q1.456-.232 2.113-.675t.657-1.314v-.106q0-1.687-1.065-2.61-1.048-.924-2.983-.924-2.041 0-3.249.906-1.208.888-1.598 2.237l-6.996-.568q.532-2.486 2.095-4.297 1.563-1.83 4.031-2.805 2.485-.995 5.753-.995 2.272 0 4.35.533 2.094.532 3.711 1.651a8 8 0 0 1 2.574 2.876q.941 1.74.941 4.173V57h-7.173v-3.782h-.213a7.7 7.7 0 0 1-1.758 2.255q-1.101.959-2.646 1.51-1.544.532-3.568.532m2.166-5.22q1.668 0 2.947-.657 1.278-.675 2.007-1.811.728-1.137.728-2.575v-2.894q-.356.231-.977.426-.603.178-1.367.337a69 69 0 0 1-1.527.267q-.764.106-1.385.195-1.332.195-2.326.622-.994.426-1.545 1.154-.55.71-.55 1.775 0 1.545 1.118 2.362 1.137.798 2.877.799M515.309 57V29.727h7.334v4.759h.284q.745-2.54 2.503-3.835 1.758-1.314 4.049-1.314.568 0 1.225.07.657.072 1.154.196v6.712q-.533-.16-1.474-.284a13 13 0 0 0-1.722-.125q-1.67 0-2.983.728a5.36 5.36 0 0 0-2.06 1.989q-.746 1.279-.746 2.947V57zm29.24.444q-3.108 0-5.629-1.598-2.504-1.616-3.977-4.74-1.456-3.144-1.456-7.707 0-4.687 1.509-7.795 1.51-3.125 4.013-4.67a10.3 10.3 0 0 1 5.522-1.562q2.29 0 3.817.781 1.545.765 2.486 1.918.959 1.136 1.456 2.237h.231V20.636h7.546V57h-7.457v-4.368h-.32q-.533 1.137-1.509 2.255-.959 1.101-2.504 1.829-1.527.728-3.728.728m2.397-6.02q1.829.001 3.089-.994 1.278-1.011 1.953-2.823.693-1.811.693-4.243t-.675-4.226-1.953-2.77-3.107-.977q-1.865 0-3.143 1.012t-1.935 2.806-.657 4.155q0 2.38.657 4.208.674 1.81 1.935 2.84 1.278 1.013 3.143 1.013M590.891 57H578V20.636h12.998q5.486 0 9.446 2.184 3.958 2.166 6.09 6.233 2.148 4.065 2.148 9.73 0 5.682-2.148 9.765-2.131 4.084-6.126 6.268Q596.431 57 590.891 57m-5.202-6.587h4.882q3.41 0 5.735-1.208 2.344-1.224 3.516-3.782 1.19-2.575 1.19-6.64 0-4.03-1.19-6.588-1.172-2.556-3.498-3.764-2.325-1.207-5.735-1.207h-4.9zM614.235 57V29.727h7.564V57zm3.8-30.788q-1.687 0-2.894-1.119-1.19-1.137-1.19-2.717 0-1.562 1.19-2.68 1.207-1.137 2.894-1.137t2.876 1.136q1.208 1.12 1.208 2.681 0 1.581-1.208 2.717-1.189 1.119-2.876 1.119m32.515 11.292-6.925.426a3.6 3.6 0 0 0-.763-1.598q-.587-.728-1.545-1.154-.94-.444-2.255-.444-1.758 0-2.965.746-1.207.728-1.207 1.953 0 .977.781 1.651.781.675 2.681 1.084l4.936.994q3.978.816 5.93 2.628 1.953 1.81 1.954 4.758 0 2.682-1.581 4.706-1.562 2.024-4.297 3.16-2.716 1.119-6.267 1.119-5.416 0-8.63-2.255-3.195-2.273-3.746-6.18l7.44-.39q.337 1.65 1.633 2.521 1.296.853 3.32.853 1.989 0 3.196-.764 1.225-.781 1.243-2.006-.018-1.03-.87-1.687-.852-.675-2.628-1.03l-4.723-.94q-3.995-.8-5.948-2.77-1.935-1.972-1.935-5.026 0-2.626 1.42-4.527 1.439-1.9 4.031-2.93 2.61-1.03 6.108-1.03 5.166 0 8.132 2.184 2.983 2.184 3.48 5.948m12.238 11.648.018-9.073h1.101l8.736-10.352h8.682l-11.736 13.708h-1.794zM655.934 57V20.636h7.564V57zm17.046 0-8.026-11.879 5.043-5.344L681.84 57zM445.982 66.943H682v3.41H445.982z"/></svg>