<svg xmlns="http://www.w3.org/2000/svg" width="1126" height="1225" fill="none" viewBox="0 0 1126 1225"><circle cx="617" cy="660" r="337.5" fill="#790000" stroke="#fff" stroke-width="3"/><circle cx="617" cy="660" r="296" fill="#18181b"/><path stroke="#717171" stroke-width="4" d="M741 662h348M701.586 573.586l246-246M530.586 577.414l-246-246M285.586 990.586l246-246M947.586 993.414l-246-246M505.215 617.037 183.8 483.903M569.189 550.516 436.054 229.102M661.462 548.715l133.134-321.414M727.983 612.688 1049.4 479.554M1049.67 841.792 728.254 708.658M795.25 1094.43 662.116 773.014M436.708 1093.17l133.134-321.416M184.071 838.75l321.415-133.134M145 662h348M617 784v348M617 188v348"/><circle cx="617" cy="660" r="469.5" stroke="#fff" stroke-width="5"/><circle cx="617" cy="660" r="424.5" stroke="#fff" stroke-width="3"/><circle cx="617" cy="660" r="381.5" stroke="#fff" stroke-width="3"/><circle cx="617" cy="660" r="337.5" stroke="#fff" stroke-width="3"/><circle cx="617" cy="660" r="294.5" stroke="#fff" stroke-width="3"/><circle cx="617" cy="660" r="250.5" stroke="#fff" stroke-width="3"/><circle cx="617" cy="660" r="207.5" stroke="#fff" stroke-width="3"/><circle cx="617" cy="660" r="165.5" stroke="#fff" stroke-width="3"/><circle cx="617" cy="660" r="122.5" stroke="#fff" stroke-width="3"/><mask id="a" fill="#fff"><path d="m318.199 597.636-7.386-1.302s-29.65 107.992-41.831 165.246c-12.18 57.255-25.594 75.142-49.227 86.263-71.421 33.608-84.295 135.419-84.295 135.419l111.283 19.618z"/></mask><path fill="#e27c00" d="m318.199 597.636-7.386-1.302s-29.65 107.992-41.831 165.246c-12.18 57.255-25.594 75.142-49.227 86.263-71.421 33.608-84.295 135.419-84.295 135.419l111.283 19.618z"/><path fill="#000" d="m311.16 594.364-.694 3.939 7.386 1.303-1.623-2.317-7.133 40.454-64.323 364.797 2.317-1.63q-55.642-9.805-111.283-19.618l1.637 2.221c8.953-52.747 33.099-109.746 83.163-133.861 15.683-6.749 27.978-20.567 34.694-35.949 7.567-16.593 11.82-34.125 15.638-51.707 8.605-39.619 18.887-78.96 29.211-118.262a5773 5773 0 0 1 12.592-46.871l-3.858-1.059a5780 5780 0 0 0-12.601 46.908c-10.333 39.338-20.615 78.669-29.257 118.452-3.78 17.444-8.03 34.814-15.354 50.854-6.595 14.921-17.769 27.484-32.768 34.015-52.045 25.258-76.239 83.186-85.429 136.978l-.239 1.89 1.876.331q55.642 9.811 111.283 19.618l1.97.35.347-1.97 64.323-364.793 7.134-40.454.347-1.969-1.97-.348zm-.694 3.939.694-3.939-1.793-.316-.483 1.756 3.858 1.059z" mask="url(#a)"/><circle cx="191.535" cy="990.611" r="54.5" fill="#e27c00" stroke="#000" stroke-width="4" transform="rotate(10 191.535 990.611)"/><circle cx="191.535" cy="990.611" r="48" fill="#e27c00" stroke="#000" transform="rotate(10 191.535 990.611)"/><circle cx="191.535" cy="990.611" r="40" fill="#e27c00" stroke="#000" transform="rotate(10 191.535 990.611)"/><circle cx="191.941" cy="991.19" r="10.5" fill="#e27c00" stroke="#000" transform="rotate(10 191.941 991.19)"/><path fill="#fff" d="M66.034 1094h-5.273l8.035-23.27h6.34L83.16 1094h-5.273l-5.83-17.95h-.181zm-.33-9.15H78.16v3.84H65.704zm27.24 9.49q-2.683 0-4.615-1.14-1.92-1.14-2.954-3.18-1.023-2.025-1.023-4.68c0-1.79.345-3.36 1.034-4.7.697-1.36 1.686-2.42 2.966-3.17 1.28-.77 2.803-1.15 4.569-1.15 1.522 0 2.855.27 4 .83 1.143.55 2.049 1.33 2.715 2.33.667 1 1.034 2.17 1.103 3.52h-4.568q-.194-1.305-1.023-2.1-.819-.81-2.148-.81c-.75 0-1.405.21-1.966.61-.553.41-.985.99-1.295 1.77-.311.77-.466 1.7-.466 2.8 0 1.12.151 2.06.454 2.84.31.78.746 1.38 1.307 1.79s1.216.61 1.966.61c.553 0 1.05-.11 1.489-.34q.67-.345 1.102-.99c.295-.44.489-.96.58-1.58h4.568c-.076 1.34-.44 2.51-1.091 3.52q-.966 1.515-2.67 2.37c-1.137.57-2.482.85-4.035.85m20.178-17.79v3.63h-10.511v-3.63zm-8.125-4.19h4.841v16.28c0 .44.068.79.205 1.04q.204.36.568.51.375.15.863.15.342 0 .682-.06c.228-.04.402-.08.523-.1l.761 3.6q-.363.12-1.022.27c-.44.1-.974.17-1.603.19-1.166.04-2.189-.11-3.068-.47a4.25 4.25 0 0 1-2.034-1.66c-.485-.75-.723-1.69-.716-2.84zm22.472 14.21v-10.02h4.841V1094h-4.648v-3.17h-.182a5.2 5.2 0 0 1-1.966 2.47q-1.364.93-3.329.93c-1.167 0-2.194-.27-3.08-.8s-1.579-1.28-2.079-2.26q-.74-1.47-.75-3.51v-11.11h4.84v10.25c.008 1.03.285 1.84.83 2.44q.818.9 2.193.9c.584 0 1.129-.14 1.637-.4.507-.27.916-.68 1.227-1.21.318-.53.473-1.18.466-1.96m13.69 7.76c-1.114 0-2.106-.19-2.977-.58a4.74 4.74 0 0 1-2.068-1.74c-.5-.77-.75-1.73-.75-2.89 0-.96.178-1.78.534-2.44q.534-.99 1.454-1.59a7.3 7.3 0 0 1 2.091-.91c.788-.2 1.614-.35 2.477-.43 1.016-.11 1.834-.2 2.455-.3.621-.09 1.072-.24 1.352-.43q.421-.285.421-.84v-.07c0-.72-.228-1.27-.682-1.67-.447-.39-1.083-.59-1.909-.59-.871 0-1.565.2-2.08.58s-.856.86-1.022 1.43l-4.478-.36c.228-1.06.675-1.98 1.341-2.75q1-1.17 2.58-1.8 1.59-.63 3.682-.63c.969 0 1.897.11 2.784.34.894.23 1.685.58 2.375 1.06a5.07 5.07 0 0 1 1.647 1.84q.603 1.11.603 2.67V1094h-4.591v-2.42h-.137c-.28.54-.655 1.03-1.125 1.44-.469.41-1.034.73-1.693.97-.659.23-1.42.34-2.284.34m1.386-3.34q1.069 0 1.887-.42c.545-.29.973-.68 1.284-1.16q.466-.735.466-1.65v-1.85q-.228.15-.625.27c-.258.08-.549.15-.875.22-.326.06-.652.12-.977.17-.326.04-.622.09-.887.12a6.4 6.4 0 0 0-1.488.4c-.425.18-.754.43-.989.74q-.352.45-.352 1.14c0 .65.238 1.16.716 1.51q.727.51 1.84.51m21.483-14.44v3.63h-10.511v-3.63zm-8.125-4.19h4.841v16.28c0 .44.069.79.205 1.04q.204.36.568.51.375.15.864.15.34 0 .681-.06c.228-.04.402-.08.523-.1l.762 3.6q-.364.12-1.023.27c-.44.1-.974.17-1.602.19-1.167.04-2.19-.11-3.069-.47a4.25 4.25 0 0 1-2.034-1.66c-.485-.75-.723-1.69-.716-2.84zm18.978 21.98c-1.765 0-3.292-.37-4.58-1.12a7.7 7.7 0 0 1-2.966-3.16c-.697-1.36-1.045-2.93-1.045-4.72 0-1.8.348-3.38 1.045-4.73s1.686-2.41 2.966-3.16c1.288-.75 2.815-1.13 4.58-1.13s3.288.38 4.568 1.13c1.288.75 2.28 1.81 2.977 3.16s1.046 2.93 1.046 4.73c0 1.79-.349 3.36-1.046 4.72a7.7 7.7 0 0 1-2.977 3.16c-1.28.75-2.803 1.12-4.568 1.12m.022-3.75c.803 0 1.474-.23 2.012-.68q.807-.69 1.216-1.89c.28-.79.42-1.7.42-2.71 0-1.02-.14-1.92-.42-2.72q-.41-1.185-1.216-1.89-.807-.69-2.012-.69-1.215 0-2.045.69-.817.705-1.239 1.89c-.272.8-.409 1.7-.409 2.72 0 1.01.137 1.92.409 2.71q.422 1.2 1.239 1.89c.553.45 1.235.68 2.045.68m11.716 3.41v-17.45h4.693v3.04h.182c.319-1.08.853-1.9 1.603-2.45q1.125-.84 2.591-.84c.242 0 .503.01.784.04.28.03.526.07.738.13v4.29a6 6 0 0 0-.943-.18 9 9 0 0 0-1.102-.08c-.712 0-1.349.16-1.909.47-.553.3-.993.72-1.318 1.27-.319.54-.478 1.17-.478 1.88v9.88zm24.603 0h-5.273l8.034-23.27h6.341l8.023 23.27h-5.273l-5.83-17.95h-.182zm-.33-9.15h12.455v3.84h-12.455zm20.165 9.15v-17.45h4.693v3.04h.182c.318-1.08.852-1.9 1.602-2.45q1.125-.84 2.591-.84c.242 0 .504.01.784.04s.527.07.739.13v4.29a6 6 0 0 0-.943-.18 9 9 0 0 0-1.103-.08c-.712 0-1.348.16-1.909.47-.553.3-.992.72-1.318 1.27-.318.54-.477 1.17-.477 1.88v9.88zm13.094 0v-17.45h4.613v3.07h.205c.363-1.02.969-1.82 1.818-2.42.848-.59 1.864-.88 3.045-.88q1.796 0 3.057.9 1.262.885 1.682 2.4h.182c.356-1 1-1.79 1.932-2.39.939-.61 2.049-.91 3.329-.91q2.444 0 3.966 1.56 1.534 1.545 1.534 4.38V1094h-4.829v-10.78q0-1.455-.773-2.19-.772-.72-1.932-.72-1.318 0-2.057.84-.738.825-.738 2.19V1094h-4.694v-10.89q0-1.275-.738-2.04c-.485-.51-1.125-.76-1.921-.76-.537 0-1.022.13-1.454.41-.424.26-.762.64-1.012 1.12q-.375.72-.375 1.68V1094zM62.818 1139v-23.27h7.864q2.727 0 4.477.93c1.167.61 2.03 1.46 2.591 2.53.56 1.08.84 2.3.84 3.67s-.28 2.59-.84 3.65-1.42 1.9-2.58 2.5q-1.739.9-4.443.9h-6.363v-2.55h6.272q1.865 0 3-.54c.766-.37 1.319-.88 1.66-1.55.348-.67.522-1.47.522-2.41 0-.93-.174-1.74-.522-2.44s-.906-1.23-1.671-1.61c-.765-.39-1.776-.58-3.034-.58h-4.955V1139zm10.955-10.45L79.5 1139h-3.273l-5.636-10.45zm16.054 10.81c-1.576 0-2.959-.37-4.148-1.12q-1.773-1.125-2.773-3.15c-.659-1.35-.988-2.92-.988-4.73s.33-3.4.988-4.76c.667-1.35 1.591-2.41 2.773-3.16 1.19-.75 2.572-1.12 4.148-1.12s2.954.37 4.136 1.12c1.19.75 2.114 1.81 2.773 3.16.666 1.36 1 2.95 1 4.76s-.334 3.38-1 4.73q-.99 2.025-2.773 3.15c-1.182.75-2.56 1.12-4.136 1.12m0-2.41c1.197 0 2.182-.3 2.954-.92.773-.61 1.345-1.42 1.716-2.42s.557-2.08.557-3.25a9.4 9.4 0 0 0-.557-3.26c-.371-1.01-.943-1.82-1.716-2.44q-1.159-.93-2.954-.93t-2.955.93c-.773.62-1.344 1.43-1.716 2.44a9.4 9.4 0 0 0-.557 3.26c0 1.17.186 2.25.557 3.25s.943 1.81 1.716 2.42c.773.62 1.758.92 2.955.92m19.593-15.4v2.27h-9.045v-2.27zm-6.409-4.19h2.682V1134c0 .76.11 1.33.33 1.7q.34.57.863.75c.356.13.731.19 1.125.19.296 0 .538-.02.728-.05q.284-.06.454-.09l.546 2.41c-.182.07-.436.14-.762.2q-.488.12-1.238.12c-.758 0-1.5-.17-2.228-.49a4.44 4.44 0 0 1-1.795-1.49q-.705-1.005-.705-2.52zm15.58 22.05q-1.66 0-3.011-.63a5.1 5.1 0 0 1-2.148-1.83c-.53-.8-.796-1.77-.796-2.9 0-1 .197-1.82.591-2.44a4.1 4.1 0 0 1 1.58-1.47 8.4 8.4 0 0 1 2.182-.8 29 29 0 0 1 2.42-.43c1.061-.14 1.921-.24 2.58-.31.666-.07 1.151-.2 1.454-.37.311-.18.466-.48.466-.91v-.09c0-1.12-.307-2-.92-2.62q-.91-.93-2.762-.93-1.92 0-3.011.84t-1.534 1.8l-2.546-.91c.455-1.06 1.061-1.89 1.819-2.48a6.9 6.9 0 0 1 2.5-1.25q1.364-.36 2.681-.36c.561 0 1.205.07 1.932.2q1.102.195 2.125.81c.69.41 1.262 1.03 1.716 1.85.455.83.682 1.93.682 3.32v11.5h-2.682v-2.36h-.136c-.182.38-.485.78-.909 1.21s-.989.8-1.694 1.1c-.704.31-1.564.46-2.579.46M119 1137c1.061 0 1.955-.21 2.682-.62q1.102-.63 1.659-1.62c.379-.66.568-1.35.568-2.08v-2.45c-.114.13-.364.26-.75.37-.379.11-.818.2-1.318.29-.493.07-.974.14-1.443.2-.462.05-.837.1-1.125.14-.697.09-1.349.24-1.955.44q-.897.3-1.454.9c-.364.39-.546.93-.546 1.61 0 .93.345 1.64 1.034 2.12.697.47 1.58.7 2.648.7m20.077-15.45v2.27h-9.046v-2.27zm-6.409-4.19h2.681V1134c0 .76.11 1.33.33 1.7q.34.57.864.75c.356.13.731.19 1.125.19.295 0 .537-.02.727-.05q.284-.06.454-.09l.546 2.41c-.182.07-.436.14-.761.2q-.489.12-1.239.12c-.758 0-1.5-.17-2.227-.49a4.43 4.43 0 0 1-1.796-1.49q-.704-1.005-.704-2.52zm17.573 22q-2.522 0-4.352-1.11c-1.212-.75-2.148-1.8-2.807-3.14-.651-1.34-.977-2.91-.977-4.7s.326-3.36.977-4.73c.659-1.37 1.576-2.44 2.75-3.2 1.182-.78 2.561-1.16 4.137-1.16q1.364 0 2.693.45c.886.31 1.693.8 2.42 1.48.728.67 1.307 1.57 1.739 2.68.432 1.12.648 2.49.648 4.12v1.13h-13.455v-2.32h10.727c0-.98-.196-1.86-.59-2.63a4.37 4.37 0 0 0-1.66-1.83c-.712-.45-1.553-.67-2.522-.67-1.068 0-1.993.26-2.773.79a5.3 5.3 0 0 0-1.784 2.05 6 6 0 0 0-.625 2.7v1.55c0 1.32.227 2.43.682 3.35.462.91 1.102 1.6 1.92 2.08.818.47 1.769.7 2.852.7.705 0 1.341-.09 1.91-.29a4.2 4.2 0 0 0 1.488-.91c.417-.41.739-.92.966-1.52l2.591.72a5.7 5.7 0 0 1-1.375 2.32c-.644.66-1.439 1.18-2.386 1.55q-1.42.54-3.194.54m23.671-13.91-2.409.69q-.227-.615-.671-1.17-.43-.585-1.181-.96c-.5-.25-1.141-.37-1.921-.37-1.068 0-1.958.24-2.67.74-.705.48-1.057 1.1-1.057 1.85 0 .66.242 1.19.727 1.58.485.38 1.243.71 2.273.96l2.591.64q2.34.57 3.488 1.74c.766.77 1.148 1.77 1.148 2.99 0 1-.288 1.89-.864 2.68q-.852 1.185-2.386 1.86c-1.023.46-2.212.68-3.568.68-1.78 0-3.254-.38-4.421-1.16-1.166-.77-1.905-1.9-2.215-3.38l2.545-.64c.242.94.701 1.65 1.375 2.12.682.47 1.572.7 2.67.7 1.25 0 2.243-.27 2.978-.8.742-.53 1.113-1.18 1.113-1.93 0-.6-.212-1.11-.636-1.52q-.636-.63-1.955-.93l-2.909-.68c-1.598-.38-2.772-.97-3.522-1.76-.743-.81-1.114-1.81-1.114-3.02q0-1.47.83-2.61c.56-.76 1.322-1.35 2.284-1.78.969-.44 2.068-.65 3.295-.65 1.727 0 3.083.38 4.068 1.13q1.489 1.14 2.114 3m16.037-9.72V1139h-2.682v-23.27zm12.23 23.63q-2.523 0-4.352-1.11c-1.212-.75-2.148-1.8-2.807-3.14-.652-1.34-.977-2.91-.977-4.7s.325-3.36.977-4.73c.659-1.37 1.576-2.44 2.75-3.2 1.182-.78 2.56-1.16 4.136-1.16q1.364 0 2.693.45c.887.31 1.694.8 2.421 1.48.727.67 1.307 1.57 1.739 2.68.431 1.12.647 2.49.647 4.12v1.13h-13.454v-2.32h10.727c0-.98-.197-1.86-.591-2.63a4.36 4.36 0 0 0-1.659-1.83c-.712-.45-1.553-.67-2.523-.67-1.068 0-1.992.26-2.772.79a5.3 5.3 0 0 0-1.785 2.05 6 6 0 0 0-.625 2.7v1.55c0 1.32.228 2.43.682 3.35.462.91 1.103 1.6 1.921 2.08.818.47 1.769.7 2.852.7.705 0 1.341-.09 1.909-.29a4.2 4.2 0 0 0 1.489-.91c.416-.41.738-.92.966-1.52l2.591.72a5.7 5.7 0 0 1-1.375 2.32c-.644.66-1.44 1.18-2.387 1.55q-1.42.54-3.193.54m19.08-17.81v2.27h-9.41v-2.27zm-6.591 17.45v-19.86c0-1 .234-1.84.704-2.5a4.3 4.3 0 0 1 1.83-1.5c.75-.34 1.541-.5 2.375-.5.659 0 1.197.05 1.613.16.417.1.728.2.932.29l-.773 2.32c-.136-.05-.325-.1-.568-.17-.235-.07-.545-.1-.932-.1-.886 0-1.526.22-1.92.67-.386.44-.58 1.1-.58 1.96V1139zm17.94-17.45v2.27h-9.046v-2.27zm-6.409-4.19h2.682V1134c0 .76.11 1.33.329 1.7q.341.57.864.75c.356.13.731.19 1.125.19.295 0 .538-.02.727-.05q.284-.06.455-.09l.545 2.41c-.182.07-.435.14-.761.2q-.489.12-1.239.12c-.757 0-1.5-.17-2.227-.49a4.44 4.44 0 0 1-1.796-1.49q-.704-1.005-.704-2.52zm24.579 22.05q-1.659 0-3.011-.63a5.1 5.1 0 0 1-2.148-1.83c-.53-.8-.795-1.77-.795-2.9 0-1 .197-1.82.591-2.44q.59-.945 1.579-1.47a8.4 8.4 0 0 1 2.182-.8c.803-.18 1.61-.32 2.421-.43 1.06-.14 1.92-.24 2.579-.31.667-.07 1.152-.2 1.455-.37.31-.18.466-.48.466-.91v-.09c0-1.12-.307-2-.921-2.62q-.909-.93-2.761-.93-1.92 0-3.012.84-1.09.84-1.534 1.8l-2.545-.91c.454-1.06 1.06-1.89 1.818-2.48a6.9 6.9 0 0 1 2.5-1.25q1.364-.36 2.682-.36c.56 0 1.204.07 1.932.2q1.102.195 2.125.81c.689.41 1.261 1.03 1.716 1.85.454.83.681 1.93.681 3.32v11.5h-2.681v-2.36h-.137c-.182.38-.485.78-.909 1.21s-.988.8-1.693 1.1c-.705.31-1.564.46-2.58.46m.41-2.41c1.06 0 1.954-.21 2.681-.62q1.102-.63 1.659-1.62c.379-.66.569-1.35.569-2.08v-2.45c-.114.13-.364.26-.75.37-.379.11-.819.2-1.319.29-.492.07-.973.14-1.443.2-.462.05-.837.1-1.125.14-.697.09-1.348.24-1.954.44q-.898.3-1.455.9c-.363.39-.545.93-.545 1.61 0 .93.344 1.64 1.034 2.12.697.47 1.579.7 2.648.7m15.167-8.5v10.5h-2.682v-17.45h2.591v2.72h.227c.41-.88 1.031-1.6 1.864-2.13.833-.55 1.909-.82 3.227-.82 1.182 0 2.216.24 3.103.73.886.47 1.575 1.2 2.068 2.18.492.97.738 2.19.738 3.68V1139h-2.681v-10.91c0-1.37-.356-2.44-1.069-3.2-.712-.78-1.689-1.16-2.931-1.16-.856 0-1.622.18-2.296.55-.666.38-1.193.92-1.579 1.63-.387.71-.58 1.57-.58 2.59m22.628 10.86c-1.455 0-2.739-.36-3.852-1.1-1.114-.74-1.985-1.79-2.614-3.14q-.943-2.025-.943-4.8 0-2.76.943-4.77c.629-1.35 1.504-2.39 2.625-3.13 1.121-.73 2.417-1.1 3.886-1.1q1.706 0 2.694.57c.666.37 1.174.79 1.522 1.27.356.47.633.86.83 1.16h.227v-8.59h2.682V1139h-2.591v-2.68h-.318q-.295.48-.841 1.2t-1.557 1.29c-.674.37-1.572.55-2.693.55m.364-2.41q1.612 0 2.727-.84c.742-.56 1.307-1.35 1.693-2.35.386-1.01.58-2.17.58-3.49q0-1.95-.569-3.42c-.378-.98-.939-1.75-1.681-2.29-.743-.56-1.659-.83-2.75-.83q-1.706 0-2.841.87c-.75.58-1.315 1.36-1.694 2.35-.371.99-.556 2.1-.556 3.32 0 1.25.189 2.37.568 3.39.386 1.01.954 1.81 1.704 2.41.758.59 1.697.88 2.819.88m21.92 2.05v-17.45h2.591v2.63h.182q.477-1.29 1.727-2.1t2.818-.81c.197 0 .443.01.739.01.295.01.519.02.67.04v2.73c-.091-.03-.299-.06-.625-.11a6.5 6.5 0 0 0-1.011-.08q-1.273 0-2.273.54c-.659.35-1.182.83-1.568 1.45q-.568.93-.568 2.1V1139zm11.906 0v-17.45h2.682V1139zm1.364-20.36q-.785 0-1.352-.54a1.7 1.7 0 0 1-.557-1.28q0-.75.557-1.29c.378-.35.829-.53 1.352-.53s.97.18 1.341.53q.568.54.568 1.29c0 .5-.189.93-.568 1.28q-.556.54-1.341.54m13.275 27.27c-1.295 0-2.409-.17-3.34-.5-.932-.33-1.709-.76-2.33-1.3-.614-.53-1.102-1.09-1.466-1.7l2.136-1.5c.243.32.55.68.921 1.09q.557.63 1.523 1.08c.651.31 1.503.47 2.556.47 1.41 0 2.572-.35 3.489-1.03s1.375-1.75 1.375-3.2v-3.55h-.227c-.197.32-.477.71-.841 1.18-.356.47-.871.88-1.546 1.24q-1 .54-2.704.54c-1.409 0-2.674-.34-3.796-1q-1.67-1.005-2.647-2.91c-.644-1.27-.966-2.82-.966-4.64 0-1.79.314-3.34.943-4.67q.944-1.995 2.625-3.09c1.121-.73 2.417-1.1 3.886-1.1q1.705 0 2.705.57c.674.37 1.189.79 1.545 1.27.364.47.644.86.841 1.16h.273v-2.77h2.591v17.95q0 2.25-1.023 3.66c-.674.95-1.583 1.64-2.727 2.08-1.136.45-2.402.67-3.796.67m-.09-9.59c1.075 0 1.984-.25 2.727-.74q1.113-.735 1.693-2.13c.386-.92.58-2.03.58-3.31q0-1.89-.569-3.33c-.378-.97-.939-1.72-1.681-2.26-.743-.55-1.659-.82-2.75-.82-1.137 0-2.084.29-2.841.86-.75.58-1.315 1.35-1.693 2.32-.372.97-.557 2.04-.557 3.23q0 1.815.568 3.21c.386.93.954 1.65 1.704 2.18.758.53 1.697.79 2.819.79m15.227-7.82v10.5h-2.682v-23.27h2.682v8.54h.227a5 5 0 0 1 1.841-2.15c.826-.53 1.924-.8 3.295-.8 1.19 0 2.232.24 3.126.71s1.587 1.2 2.079 2.17c.5.97.75 2.21.75 3.71V1139h-2.682v-10.91q0-2.085-1.079-3.21c-.712-.77-1.701-1.15-2.966-1.15-.879 0-1.667.18-2.364.55a4.15 4.15 0 0 0-1.636 1.63c-.394.71-.591 1.57-.591 2.59m23.815-6.95v2.27h-9.045v-2.27zm-6.409-4.19h2.682V1134c0 .76.11 1.33.329 1.7q.342.57.864.75c.356.13.731.19 1.125.19.296 0 .538-.02.727-.05q.284-.06.455-.09l.545 2.41c-.181.07-.435.14-.761.2q-.489.12-1.239.12c-.757 0-1.5-.17-2.227-.49a4.43 4.43 0 0 1-1.795-1.49q-.705-1.005-.705-2.52zm-300.31 43.19v2.27H61v-2.27zm-6.409-4.19h2.682V1173c0 .76.11 1.33.33 1.7q.34.57.863.75c.356.13.731.19 1.125.19.296 0 .538-.02.728-.05q.283-.06.454-.09l.546 2.41a4.4 4.4 0 0 1-.762.2q-.489.12-1.238.12c-.758 0-1.5-.17-2.228-.49a4.43 4.43 0 0 1-1.795-1.49q-.705-1.005-.705-2.52zm17.347 22c-1.576 0-2.958-.37-4.148-1.12q-1.773-1.125-2.772-3.15c-.66-1.35-.99-2.92-.99-4.73s.33-3.4.99-4.76c.666-1.35 1.59-2.41 2.772-3.16 1.19-.75 2.572-1.12 4.148-1.12s2.954.37 4.136 1.12c1.19.75 2.114 1.81 2.773 3.16.667 1.36 1 2.95 1 4.76s-.333 3.38-1 4.73q-.988 2.025-2.773 3.15c-1.181.75-2.56 1.12-4.136 1.12m0-2.41c1.197 0 2.182-.3 2.954-.92.773-.61 1.345-1.42 1.716-2.42.372-1 .557-2.08.557-3.25a9.4 9.4 0 0 0-.557-3.26c-.37-1.01-.943-1.82-1.716-2.44q-1.158-.93-2.954-.93t-2.955.93c-.772.62-1.344 1.43-1.716 2.44a9.4 9.4 0 0 0-.556 3.26c0 1.17.185 2.25.556 3.25s.944 1.81 1.716 2.42c.773.62 1.758.92 2.955.92m21.003 2.05v-17.45h2.591v2.63h.182q.477-1.29 1.727-2.1t2.818-.81c.197 0 .443.01.739.01.295.01.519.02.67.04v2.73c-.091-.03-.299-.06-.625-.11a6.5 6.5 0 0 0-1.011-.08q-1.273 0-2.273.54c-.659.35-1.182.83-1.568 1.45q-.568.93-.568 2.1V1178zm18.693.36q-2.523 0-4.352-1.11c-1.212-.75-2.148-1.8-2.807-3.14-.652-1.34-.977-2.91-.977-4.7s.325-3.36.977-4.73c.659-1.37 1.576-2.44 2.75-3.2 1.182-.78 2.56-1.16 4.136-1.16q1.364 0 2.693.45c.887.31 1.694.8 2.421 1.48.727.67 1.307 1.57 1.739 2.68.431 1.12.647 2.49.647 4.12v1.13h-13.454v-2.32h10.727c0-.98-.197-1.86-.591-2.63a4.36 4.36 0 0 0-1.659-1.83c-.712-.45-1.553-.67-2.523-.67-1.068 0-1.992.26-2.772.79a5.3 5.3 0 0 0-1.785 2.05 6 6 0 0 0-.625 2.7v1.55c0 1.32.228 2.43.682 3.35.462.91 1.103 1.6 1.921 2.08.818.47 1.769.7 2.852.7.705 0 1.341-.09 1.909-.29a4.2 4.2 0 0 0 1.489-.91c.416-.41.738-.92.966-1.52l2.591.72a5.7 5.7 0 0 1-1.375 2.32c-.644.66-1.44 1.18-2.387 1.55q-1.42.54-3.193.54m16.443.05q-1.66 0-3.011-.63a5.1 5.1 0 0 1-2.148-1.83c-.53-.8-.795-1.77-.795-2.9 0-1 .197-1.82.591-2.44a4.1 4.1 0 0 1 1.579-1.47 8.4 8.4 0 0 1 2.182-.8c.803-.18 1.61-.32 2.42-.43 1.061-.14 1.921-.24 2.58-.31.667-.07 1.151-.2 1.454-.37.311-.18.466-.48.466-.91v-.09c0-1.12-.306-2-.92-2.62q-.91-.93-2.761-.93-1.922 0-3.012.84t-1.534 1.8l-2.545-.91c.454-1.06 1.06-1.89 1.818-2.48a6.9 6.9 0 0 1 2.5-1.25q1.363-.36 2.682-.36c.56 0 1.204.07 1.931.2q1.103.195 2.125.81c.69.41 1.262 1.03 1.716 1.85.455.83.682 1.93.682 3.32v11.5h-2.682v-2.36h-.136c-.182.38-.485.78-.909 1.21s-.989.8-1.693 1.1c-.705.31-1.565.46-2.58.46m.409-2.41c1.061 0 1.955-.21 2.682-.62q1.103-.63 1.659-1.62c.379-.66.568-1.35.568-2.08v-2.45c-.113.13-.363.26-.75.37-.378.11-.818.2-1.318.29-.492.07-.973.14-1.443.2-.462.05-.837.1-1.125.14-.697.09-1.349.24-1.955.44q-.897.3-1.454.9c-.364.39-.546.93-.546 1.61 0 .93.345 1.64 1.035 2.12.696.47 1.579.7 2.647.7m19.577 2.36c-1.636 0-3.045-.38-4.227-1.16-1.182-.77-2.091-1.83-2.728-3.19q-.954-2.025-.954-4.65c0-1.77.326-3.33.977-4.69.659-1.36 1.576-2.43 2.75-3.19 1.182-.78 2.561-1.16 4.136-1.16 1.228 0 2.334.23 3.319.68a6.3 6.3 0 0 1 2.42 1.91c.629.82 1.019 1.77 1.171 2.86h-2.682c-.205-.79-.659-1.5-1.364-2.11q-1.045-.93-2.818-.93c-1.045 0-1.962.27-2.75.82q-1.17.795-1.83 2.28c-.431.98-.647 2.12-.647 3.44 0 1.35.212 2.53.636 3.53.432 1 1.038 1.77 1.818 2.32.788.56 1.712.83 2.773.83q1.046 0 1.898-.36a3.9 3.9 0 0 0 1.443-1.04c.394-.46.674-1 .841-1.64h2.682a6.2 6.2 0 0 1-1.125 2.78c-.591.82-1.375 1.47-2.353 1.96-.969.47-2.098.71-3.386.71m13.466-10.86v10.5h-2.682v-23.27h2.682v8.54h.227a5 5 0 0 1 1.841-2.15c.826-.53 1.924-.8 3.296-.8 1.189 0 2.231.24 3.124.71s1.588 1.2 2.08 2.17c.5.97.75 2.21.75 3.71V1178h-2.682v-10.91q0-2.085-1.079-3.21c-.712-.77-1.701-1.15-2.966-1.15-.879 0-1.667.18-2.364.55a4.15 4.15 0 0 0-1.636 1.63c-.394.71-.591 1.57-.591 2.59m31.815 10.86c-1.454 0-2.738-.36-3.852-1.1s-1.985-1.79-2.614-3.14q-.943-2.025-.943-4.8 0-2.76.943-4.77c.629-1.35 1.504-2.39 2.625-3.13 1.122-.73 2.417-1.1 3.887-1.1q1.704 0 2.693.57c.667.37 1.174.79 1.523 1.27.356.47.632.86.829 1.16h.227v-8.59h2.682V1178h-2.591v-2.68h-.318q-.295.48-.841 1.2-.545.72-1.557 1.29c-.674.37-1.572.55-2.693.55m.364-2.41q1.614 0 2.727-.84c.743-.56 1.307-1.35 1.693-2.35.387-1.01.58-2.17.58-3.49q0-1.95-.568-3.42c-.379-.98-.94-1.75-1.682-2.29-.743-.56-1.659-.83-2.75-.83q-1.705 0-2.841.87c-.75.58-1.314 1.36-1.693 2.35-.371.99-.557 2.1-.557 3.32 0 1.25.189 2.37.568 3.39.386 1.01.955 1.81 1.705 2.41.757.59 1.697.88 2.818.88m12.92 2.05v-17.45h2.682V1178zm1.364-20.36q-.785 0-1.352-.54a1.7 1.7 0 0 1-.557-1.28q0-.75.557-1.29c.378-.35.829-.53 1.352-.53s.97.18 1.341.53q.568.54.568 1.29c0 .5-.189.93-.568 1.28q-.556.54-1.341.54m14.003 2.91v2.27h-9.409v-2.27zm-6.591 17.45v-19.86c0-1 .235-1.84.704-2.5a4.3 4.3 0 0 1 1.83-1.5c.75-.34 1.542-.5 2.375-.5.659 0 1.197.05 1.614.16.416.1.727.2.931.29l-.772 2.32c-.137-.05-.326-.1-.569-.17-.234-.07-.545-.1-.931-.1-.887 0-1.527.22-1.921.67-.386.44-.579 1.1-.579 1.96V1178zm18.122-17.45v2.27h-9.409v-2.27zM235.98 1178v-19.86c0-1 .235-1.84.705-2.5a4.3 4.3 0 0 1 1.829-1.5c.75-.34 1.542-.5 2.375-.5.659 0 1.197.05 1.614.16.417.1.727.2.932.29l-.773 2.32c-.136-.05-.326-.1-.568-.17-.235-.07-.546-.1-.932-.1-.886 0-1.527.22-1.921.67-.386.44-.579 1.1-.579 1.96V1178zm16.949.36q-2.523 0-4.352-1.11c-1.212-.75-2.148-1.8-2.807-3.14-.652-1.34-.977-2.91-.977-4.7s.325-3.36.977-4.73c.659-1.37 1.576-2.44 2.75-3.2 1.182-.78 2.56-1.16 4.136-1.16q1.364 0 2.693.45c.887.31 1.694.8 2.421 1.48.727.67 1.307 1.57 1.739 2.68.431 1.12.647 2.49.647 4.12v1.13h-13.454v-2.32h10.727c0-.98-.197-1.86-.591-2.63a4.36 4.36 0 0 0-1.659-1.83c-.712-.45-1.553-.67-2.523-.67-1.068 0-1.992.26-2.772.79a5.3 5.3 0 0 0-1.785 2.05 6 6 0 0 0-.625 2.7v1.55c0 1.32.228 2.43.682 3.35.462.91 1.103 1.6 1.921 2.08.818.47 1.769.7 2.852.7.705 0 1.341-.09 1.909-.29a4.2 4.2 0 0 0 1.489-.91c.416-.41.738-.92.966-1.52l2.591.72a5.7 5.7 0 0 1-1.375 2.32c-.644.66-1.44 1.18-2.387 1.55q-1.42.54-3.193.54m11.307-.36v-17.45h2.591v2.63h.182q.476-1.29 1.727-2.1 1.25-.81 2.818-.81c.197 0 .443.01.739.01.295.01.519.02.67.04v2.73c-.091-.03-.299-.06-.625-.11a6.5 6.5 0 0 0-1.011-.08q-1.273 0-2.273.54c-.659.35-1.182.83-1.568 1.45q-.568.93-.568 2.1V1178zm18.693.36q-2.523 0-4.352-1.11c-1.212-.75-2.148-1.8-2.807-3.14-.652-1.34-.977-2.91-.977-4.7s.325-3.36.977-4.73c.659-1.37 1.576-2.44 2.75-3.2 1.182-.78 2.56-1.16 4.136-1.16q1.364 0 2.693.45c.887.31 1.694.8 2.421 1.48.727.67 1.307 1.57 1.739 2.68.431 1.12.647 2.49.647 4.12v1.13h-13.454v-2.32h10.727c0-.98-.197-1.86-.591-2.63a4.36 4.36 0 0 0-1.659-1.83c-.712-.45-1.553-.67-2.523-.67-1.068 0-1.992.26-2.772.79a5.3 5.3 0 0 0-1.785 2.05 6 6 0 0 0-.625 2.7v1.55c0 1.32.228 2.43.682 3.35.462.91 1.103 1.6 1.921 2.08.818.47 1.769.7 2.852.7.705 0 1.341-.09 1.909-.29a4.2 4.2 0 0 0 1.489-.91c.416-.41.738-.92.966-1.52l2.591.72a5.7 5.7 0 0 1-1.375 2.32c-.644.66-1.44 1.18-2.387 1.55q-1.42.54-3.193.54m13.989-10.86v10.5h-2.682v-17.45h2.591v2.72h.227c.409-.88 1.03-1.6 1.864-2.13.833-.55 1.909-.82 3.227-.82 1.182 0 2.216.24 3.102.73.887.47 1.576 1.2 2.068 2.18.493.97.739 2.19.739 3.68V1178h-2.682v-10.91c0-1.37-.356-2.44-1.068-3.2-.712-.78-1.689-1.16-2.932-1.16-.856 0-1.621.18-2.295.55-.667.38-1.193.92-1.58 1.63-.386.71-.579 1.57-.579 2.59m23.627-6.95v2.27H311.5v-2.27zm-6.409-4.19h2.682V1173c0 .76.11 1.33.33 1.7q.34.57.863.75c.356.13.731.19 1.125.19.296 0 .538-.02.728-.05q.284-.06.454-.09l.546 2.41c-.182.07-.436.14-.762.2q-.488.12-1.238.12c-.758 0-1.5-.17-2.228-.49a4.44 4.44 0 0 1-1.795-1.49q-.705-1.005-.705-2.52zm-244.09 43.19v2.27H61v-2.27zm-6.41-4.19h2.682V1212c0 .76.11 1.33.33 1.7q.34.57.863.75c.356.13.731.19 1.125.19.296 0 .538-.02.728-.05q.283-.06.454-.09l.546 2.41a4.4 4.4 0 0 1-.762.2q-.489.12-1.238.12c-.758 0-1.5-.17-2.228-.49a4.43 4.43 0 0 1-1.795-1.49q-.705-1.005-.705-2.52zM74.08 1217v-17.45h2.592v2.63h.181q.478-1.29 1.727-2.1t2.819-.81c.197 0 .443.01.738.01.296.01.52.02.67.04v2.73c-.09-.03-.298-.06-.624-.11a6.5 6.5 0 0 0-1.011-.08q-1.274 0-2.273.54c-.66.35-1.182.83-1.569 1.45q-.568.93-.568 2.1V1217zm17.043.41q-1.66 0-3.011-.63a5.1 5.1 0 0 1-2.148-1.83c-.53-.8-.795-1.77-.795-2.9 0-1 .197-1.82.59-2.44q.592-.945 1.58-1.47c.66-.36 1.386-.62 2.182-.8.803-.18 1.61-.32 2.42-.43 1.06-.14 1.92-.24 2.58-.31.667-.07 1.151-.2 1.454-.37.311-.18.466-.48.466-.91v-.09c0-1.12-.306-2-.92-2.62q-.91-.93-2.761-.93-1.92 0-3.012.84-1.091.84-1.534 1.8l-2.545-.91c.454-1.06 1.06-1.89 1.818-2.48a6.9 6.9 0 0 1 2.5-1.25q1.364-.36 2.682-.36c.56 0 1.204.07 1.931.2q1.103.195 2.125.81c.69.41 1.262 1.03 1.716 1.85.455.83.682 1.93.682 3.32v11.5H96.44v-2.36h-.136c-.182.38-.485.78-.91 1.21-.423.43-.988.8-1.692 1.1-.705.31-1.565.46-2.58.46m.41-2.41c1.06 0 1.954-.21 2.681-.62q1.102-.63 1.66-1.62a4.1 4.1 0 0 0 .567-2.08v-2.45c-.113.13-.363.26-.75.37-.378.11-.818.2-1.318.29-.492.07-.973.14-1.443.2-.462.05-.837.1-1.125.14-.697.09-1.349.24-1.955.44q-.897.3-1.454.9c-.364.39-.546.93-.546 1.61 0 .93.345 1.64 1.034 2.12.698.47 1.58.7 2.648.7m19.576 2.36c-1.636 0-3.045-.38-4.227-1.16-1.182-.77-2.091-1.83-2.728-3.19q-.954-2.025-.954-4.65c0-1.77.326-3.33.977-4.69.659-1.36 1.576-2.43 2.75-3.19 1.182-.78 2.561-1.16 4.136-1.16 1.228 0 2.334.23 3.319.68a6.3 6.3 0 0 1 2.42 1.91c.629.82 1.019 1.77 1.171 2.86h-2.682c-.205-.79-.659-1.5-1.364-2.11q-1.045-.93-2.818-.93c-1.045 0-1.962.27-2.75.82q-1.17.795-1.83 2.28c-.431.98-.647 2.12-.647 3.44 0 1.35.212 2.53.636 3.53.432 1 1.038 1.77 1.818 2.32.788.56 1.712.83 2.773.83q1.046 0 1.898-.36a3.9 3.9 0 0 0 1.443-1.04c.394-.46.674-1 .841-1.64h2.682a6.2 6.2 0 0 1-1.125 2.78c-.591.82-1.375 1.47-2.353 1.96-.969.47-2.098.71-3.386.71m13.284-6.72-.045-3.32h.545l7.636-7.77h3.319l-8.137 8.22h-.227zm-2.5 6.36v-23.27h2.682V1217zm11.091 0-6.818-8.64 1.909-1.86 8.318 10.5zm18.679-13.55-2.409.69q-.227-.615-.671-1.17-.43-.585-1.181-.96c-.5-.25-1.141-.37-1.921-.37-1.068 0-1.958.24-2.67.74-.705.48-1.057 1.1-1.057 1.85 0 .66.242 1.19.727 1.58.485.38 1.243.71 2.273.96l2.591.64q2.34.57 3.488 1.74c.766.77 1.148 1.77 1.148 2.99 0 1-.288 1.89-.864 2.68q-.852 1.185-2.386 1.86c-1.023.46-2.212.68-3.568.68-1.78 0-3.254-.38-4.421-1.16-1.166-.77-1.905-1.9-2.215-3.38l2.545-.64c.242.94.701 1.65 1.375 2.12.682.47 1.572.7 2.67.7 1.25 0 2.243-.27 2.978-.8.742-.53 1.113-1.18 1.113-1.93 0-.6-.212-1.11-.636-1.52q-.636-.63-1.955-.93l-2.909-.68c-1.598-.38-2.772-.97-3.522-1.76-.743-.81-1.114-1.81-1.114-3.02q0-1.47.83-2.61c.56-.76 1.322-1.35 2.284-1.78.969-.44 2.068-.65 3.295-.65 1.727 0 3.083.38 4.068 1.13q1.489 1.14 2.114 3m6.31 13.73q-.841 0-1.444-.6-.602-.6-.602-1.44c0-.56.201-1.05.602-1.45q.603-.6 1.444-.6.84 0 1.443.6c.401.4.602.89.602 1.45q0 .555-.284 1.02-.273.465-.739.75-.455.27-1.022.27M18.09 325.727h2.82v15.409q0 2.387-1.126 4.262-1.114 1.863-3.148 2.943-2.034 1.068-4.772 1.068t-4.773-1.068q-2.035-1.08-3.16-2.943-1.113-1.875-1.113-4.262v-15.409h2.818v15.182q0 1.705.75 3.034.75 1.318 2.137 2.08 1.398.75 3.34.75 1.944 0 3.342-.75 1.397-.762 2.136-2.08.75-1.33.75-3.034zm20.447 9.728-2.41.681a4.5 4.5 0 0 0-.67-1.17q-.431-.58-1.181-.955t-1.92-.375q-1.605 0-2.671.739-1.057.727-1.057 1.852 0 1 .727 1.58.727.579 2.273.966l2.59.636q2.341.568 3.49 1.739 1.147 1.159 1.147 2.988 0 1.5-.863 2.682-.853 1.182-2.387 1.864t-3.568.682q-2.67 0-4.42-1.159t-2.216-3.387l2.545-.636q.363 1.409 1.375 2.113 1.023.705 2.67.705 1.875 0 2.978-.795 1.113-.807 1.113-1.932a2.03 2.03 0 0 0-.636-1.523q-.636-.625-1.954-.932l-2.91-.682q-2.397-.568-3.522-1.761-1.114-1.205-1.114-3.011 0-1.477.83-2.614.84-1.136 2.284-1.784 1.455-.648 3.295-.648 2.59 0 4.068 1.137 1.489 1.136 2.114 3m11.673 13.909q-2.523 0-4.352-1.114-1.818-1.125-2.807-3.136-.977-2.023-.977-4.705t.977-4.727q.99-2.057 2.75-3.205 1.773-1.159 4.136-1.159 1.364 0 2.694.455a6.7 6.7 0 0 1 2.42 1.477q1.09 1.011 1.739 2.682.648 1.67.648 4.113v1.137H43.983v-2.318H54.71q0-1.478-.59-2.637a4.46 4.46 0 0 0-1.66-1.829q-1.068-.67-2.523-.671-1.602 0-2.772.796a5.2 5.2 0 0 0-1.784 2.045 6 6 0 0 0-.625 2.705v1.545q0 1.977.681 3.352.694 1.365 1.921 2.08 1.227.705 2.852.705 1.057 0 1.91-.296a4.1 4.1 0 0 0 1.488-.909q.625-.614.966-1.523l2.59.728a5.75 5.75 0 0 1-1.374 2.318q-.966.988-2.387 1.545-1.42.546-3.193.546m17.898 0q-2.183 0-3.852-1.103-1.67-1.113-2.614-3.136-.943-2.034-.943-4.807 0-2.75.943-4.773t2.625-3.125q1.682-1.101 3.886-1.102 1.705 0 2.694.568 1 .558 1.522 1.273.534.705.83 1.159h.227v-8.591h2.682V349h-2.591v-2.682h-.318q-.295.477-.841 1.205-.546.716-1.557 1.284-1.011.557-2.693.557m.364-2.409q1.612 0 2.727-.841 1.114-.853 1.693-2.353.58-1.51.58-3.488 0-1.954-.569-3.421-.567-1.477-1.681-2.295-1.115-.83-2.75-.83-1.706 0-2.841.875-1.125.864-1.694 2.353-.555 1.476-.556 3.318 0 1.863.568 3.386.579 1.512 1.704 2.409 1.136.887 2.819.887m29.511-15.41v2.273h-9.046v-2.273zm-6.41-4.181h2.683V344q0 1.137.33 1.705.34.556.863.75.533.181 1.125.181a5 5 0 0 0 .727-.045l.455-.091.545 2.409a6 6 0 0 1-.761.205q-.489.113-1.239.113-1.136 0-2.227-.488a4.4 4.4 0 0 1-1.796-1.489q-.704-1-.704-2.523zm17.347 22q-2.363 0-4.147-1.125-1.773-1.125-2.773-3.148-.989-2.023-.989-4.727 0-2.728.989-4.762 1-2.034 2.773-3.159 1.784-1.125 4.147-1.125t4.137 1.125q1.783 1.125 2.773 3.159 1 2.034 1 4.762 0 2.704-1 4.727-.99 2.023-2.773 3.148-1.773 1.125-4.137 1.125m0-2.409q1.796 0 2.955-.921 1.16-.92 1.716-2.42.557-1.5.557-3.25t-.557-3.262-1.716-2.443q-1.16-.932-2.955-.932t-2.954.932-1.716 2.443q-.557 1.512-.557 3.262t.557 3.25q.556 1.5 1.716 2.42 1.159.921 2.954.921M129.923 349v-17.455h2.591v2.637h.182q.477-1.296 1.727-2.102 1.25-.807 2.818-.807.296 0 .739.011.444.012.671.034v2.727a9 9 0 0 0-.625-.102 6 6 0 0 0-1.012-.079q-1.272 0-2.273.534a4.03 4.03 0 0 0-1.568 1.454q-.567.921-.568 2.103V349zm18.693.364q-2.522 0-4.352-1.114-1.818-1.125-2.807-3.136-.977-2.023-.977-4.705t.977-4.727q.989-2.057 2.75-3.205 1.773-1.159 4.137-1.159 1.364 0 2.693.455a6.7 6.7 0 0 1 2.42 1.477q1.091 1.011 1.739 2.682.648 1.67.648 4.113v1.137h-13.455v-2.318h10.727q0-1.478-.59-2.637a4.46 4.46 0 0 0-1.66-1.829q-1.068-.67-2.522-.671-1.603 0-2.773.796a5.2 5.2 0 0 0-1.784 2.045 6 6 0 0 0-.625 2.705v1.545q0 1.977.682 3.352.693 1.365 1.92 2.08 1.227.705 2.852.705 1.057 0 1.91-.296a4.1 4.1 0 0 0 1.488-.909q.625-.614.966-1.523l2.591.728a5.75 5.75 0 0 1-1.375 2.318q-.966.988-2.386 1.545-1.42.546-3.194.546m16.444.045q-1.659 0-3.012-.625a5.17 5.17 0 0 1-2.147-1.829q-.796-1.204-.796-2.91 0-1.5.591-2.431a4.17 4.17 0 0 1 1.58-1.478 8.3 8.3 0 0 1 2.181-.795q1.204-.273 2.421-.432 1.59-.204 2.579-.307 1-.113 1.455-.375.466-.261.466-.909v-.091q0-1.682-.921-2.613-.909-.933-2.761-.932-1.92 0-3.011.841-1.092.84-1.534 1.795l-2.546-.909q.683-1.591 1.818-2.477a6.8 6.8 0 0 1 2.5-1.25 10.4 10.4 0 0 1 2.682-.364q.842 0 1.932.205a6.2 6.2 0 0 1 2.125.807q1.033.613 1.716 1.852.682 1.239.682 3.318V349h-2.682v-2.364h-.137q-.272.568-.909 1.216-.636.648-1.693 1.103t-2.579.454m.409-2.409q1.59 0 2.682-.625 1.101-.625 1.659-1.614a4.1 4.1 0 0 0 .568-2.079v-2.455q-.171.205-.75.375a13 13 0 0 1-1.318.284q-.74.114-1.444.205-.693.08-1.125.136-1.045.137-1.954.443-.898.296-1.455.898-.545.591-.545 1.614 0 1.398 1.034 2.113 1.046.705 2.648.705m19.076 2.364q-2.181 0-3.852-1.103-1.67-1.113-2.613-3.136-.944-2.034-.944-4.807 0-2.75.944-4.773.942-2.022 2.625-3.125 1.681-1.101 3.886-1.102 1.704 0 2.693.568 1 .558 1.523 1.273.534.705.829 1.159h.228v-8.591h2.681V349h-2.59v-2.682h-.319q-.295.477-.841 1.205-.545.716-1.556 1.284-1.012.557-2.694.557m.364-2.409q1.614 0 2.727-.841 1.114-.853 1.694-2.353.579-1.51.579-3.488 0-1.954-.568-3.421-.568-1.477-1.682-2.295-1.113-.83-2.75-.83-1.704 0-2.841.875-1.125.864-1.693 2.353-.557 1.476-.557 3.318 0 1.863.568 3.386.58 1.512 1.705 2.409 1.136.887 2.818.887M9.045 388.364q-2.181 0-3.852-1.103-1.67-1.113-2.613-3.136-.945-2.034-.944-4.807 0-2.75.944-4.773.942-2.022 2.625-3.125 1.68-1.101 3.886-1.102 1.704 0 2.693.568 1 .558 1.523 1.273.533.705.83 1.159h.227v-8.591h2.682V388h-2.591v-2.682h-.319q-.295.477-.84 1.205-.546.716-1.557 1.284-1.012.557-2.694.557m.364-2.409q1.614 0 2.727-.841 1.114-.853 1.694-2.353.58-1.51.58-3.488 0-1.954-.57-3.421-.567-1.477-1.68-2.295-1.115-.83-2.75-.83-1.705 0-2.842.875-1.125.864-1.693 2.353-.557 1.476-.557 3.318 0 1.863.568 3.386.58 1.512 1.705 2.409 1.136.887 2.818.887m18.057 2.454q-1.659 0-3.012-.625a5.17 5.17 0 0 1-2.147-1.829q-.796-1.204-.796-2.91 0-1.5.591-2.431a4.17 4.17 0 0 1 1.58-1.478 8.3 8.3 0 0 1 2.182-.795q1.205-.273 2.42-.432 1.59-.204 2.58-.307 1-.113 1.454-.375.466-.261.466-.909v-.091q0-1.682-.92-2.613-.91-.933-2.762-.932-1.92 0-3.011.841-1.091.84-1.534 1.795l-2.546-.909q.682-1.591 1.819-2.477a6.8 6.8 0 0 1 2.5-1.25q1.364-.364 2.681-.364.842 0 1.932.205a6.2 6.2 0 0 1 2.125.807q1.035.613 1.716 1.852.682 1.239.682 3.318V388h-2.682v-2.364h-.136q-.273.568-.91 1.216-.636.648-1.692 1.103-1.058.454-2.58.454m.409-2.409q1.59 0 2.682-.625 1.103-.625 1.659-1.614a4.1 4.1 0 0 0 .568-2.079v-2.455q-.171.205-.75.375-.568.16-1.318.284-.739.114-1.443.205a70 70 0 0 0-1.125.136q-1.046.137-1.955.443-.897.296-1.454.898-.546.591-.546 1.614 0 1.398 1.034 2.113 1.046.705 2.648.705m20.077-15.455v2.273h-9.046v-2.273zm-6.41-4.181h2.682V383q0 1.137.33 1.705.34.556.864.75.533.181 1.125.181.443 0 .727-.045l.454-.091.546 2.409a6 6 0 0 1-.762.205q-.488.113-1.238.113a5.4 5.4 0 0 1-2.227-.488 4.4 4.4 0 0 1-1.796-1.489q-.704-1-.704-2.523zm15.58 22.045q-1.66 0-3.011-.625a5.17 5.17 0 0 1-2.148-1.829q-.795-1.204-.795-2.91 0-1.5.59-2.431a4.17 4.17 0 0 1 1.58-1.478 8.3 8.3 0 0 1 2.182-.795q1.205-.273 2.42-.432 1.59-.204 2.58-.307 1-.113 1.454-.375.466-.261.466-.909v-.091q0-1.682-.92-2.613-.91-.933-2.762-.932-1.92 0-3.01.841-1.092.84-1.535 1.795l-2.545-.909q.681-1.591 1.818-2.477a6.8 6.8 0 0 1 2.5-1.25q1.364-.364 2.682-.364.84 0 1.931.205a6.2 6.2 0 0 1 2.125.807q1.035.613 1.716 1.852.682 1.239.682 3.318V388H62.44v-2.364h-.136q-.273.568-.91 1.216-.635.648-1.692 1.103-1.058.454-2.58.454m.41-2.409q1.59 0 2.681-.625 1.102-.625 1.66-1.614a4.1 4.1 0 0 0 .567-2.079v-2.455q-.17.205-.75.375-.567.16-1.318.284-.738.114-1.443.205a70 70 0 0 0-1.125.136q-1.046.137-1.955.443-.897.296-1.454.898-.546.591-.546 1.614 0 1.398 1.035 2.113 1.046.705 2.647.705m29.258-15.455v2.273h-9.41v-2.273zM80.199 388v-19.864q0-1.5.704-2.5a4.4 4.4 0 0 1 1.83-1.5q1.125-.5 2.375-.5.989 0 1.614.159.624.16.931.296l-.772 2.318a14 14 0 0 0-.569-.17q-.352-.103-.931-.103-1.33 0-1.92.671-.58.67-.58 1.966V388zm10.35 0v-17.455h2.59v2.637h.182q.477-1.296 1.727-2.102 1.25-.807 2.819-.807.295 0 .738.011.445.012.67.034v2.727q-.136-.033-.624-.102a6 6 0 0 0-1.012-.079q-1.272 0-2.272.534a4 4 0 0 0-1.569 1.454q-.568.921-.568 2.103V388zm18.465.364q-2.363 0-4.148-1.125-1.772-1.125-2.772-3.148-.989-2.023-.989-4.727 0-2.728.989-4.762 1-2.034 2.772-3.159 1.785-1.125 4.148-1.125 2.364 0 4.137 1.125 1.783 1.125 2.772 3.159 1 2.034 1 4.762 0 2.704-1 4.727-.989 2.023-2.772 3.148-1.773 1.125-4.137 1.125m0-2.409q1.795 0 2.955-.921 1.158-.92 1.716-2.42.556-1.5.556-3.25t-.556-3.262q-.558-1.511-1.716-2.443-1.16-.932-2.955-.932t-2.954.932q-1.16.932-1.716 2.443-.557 1.512-.557 3.262t.557 3.25 1.716 2.42q1.158.921 2.954.921M121.017 388v-17.455h2.591v2.728h.227q.546-1.398 1.762-2.171 1.216-.784 2.92-.784 1.728 0 2.875.784 1.16.773 1.807 2.171h.182a5.1 5.1 0 0 1 2.011-2.148q1.341-.807 3.216-.807 2.341 0 3.83 1.466 1.488 1.455 1.488 4.534V388h-2.682v-11.682q0-1.932-1.056-2.761-1.058-.83-2.489-.83-1.84 0-2.852 1.114-1.012 1.103-1.012 2.795V388h-2.727v-11.955q0-1.488-.966-2.397-.966-.921-2.489-.921-1.045 0-1.954.557a4.2 4.2 0 0 0-1.455 1.546q-.545.977-.545 2.261V388zm44.403-17.455v2.273h-9.045v-2.273zm-6.409-4.181h2.682V383q0 1.137.33 1.705.34.556.863.75.534.181 1.125.181.444 0 .728-.045l.454-.091.546 2.409a6 6 0 0 1-.762.205q-.488.113-1.238.113-1.137 0-2.228-.488a4.4 4.4 0 0 1-1.795-1.489q-.705-1-.705-2.523zm13.5 11.136V388h-2.681v-23.273h2.681v8.546h.228a4.92 4.92 0 0 1 1.841-2.148q1.238-.807 3.295-.807 1.784 0 3.125.716 1.34.705 2.08 2.171.75 1.454.75 3.704V388h-2.682v-10.909q0-2.079-1.08-3.216-1.068-1.148-2.966-1.148-1.318 0-2.363.557a4.07 4.07 0 0 0-1.637 1.625q-.591 1.068-.591 2.591m23.543 10.864q-2.523 0-4.352-1.114-1.818-1.125-2.807-3.136-.977-2.023-.977-4.705t.977-4.727q.989-2.057 2.75-3.205 1.773-1.159 4.136-1.159 1.364 0 2.693.455a6.7 6.7 0 0 1 2.421 1.477q1.09 1.011 1.739 2.682.647 1.67.647 4.113v1.137h-13.454v-2.318h10.727q0-1.478-.591-2.637a4.45 4.45 0 0 0-1.659-1.829q-1.068-.67-2.523-.671-1.602 0-2.772.796a5.2 5.2 0 0 0-1.785 2.045 6 6 0 0 0-.625 2.705v1.545q0 1.977.682 3.352.694 1.365 1.921 2.08 1.227.705 2.852.705 1.057 0 1.909-.296a4.1 4.1 0 0 0 1.489-.909 4.15 4.15 0 0 0 .966-1.523l2.591.728a5.8 5.8 0 0 1-1.375 2.318q-.966.988-2.387 1.545-1.42.546-3.193.546m-187.009 39q-2.181 0-3.852-1.103-1.67-1.113-2.613-3.136-.945-2.034-.944-4.807 0-2.75.944-4.773.942-2.022 2.625-3.125 1.68-1.101 3.886-1.102 1.704 0 2.693.568 1 .558 1.523 1.273.533.705.83 1.159h.227v-8.591h2.682V427h-2.591v-2.682h-.319q-.295.477-.84 1.205-.546.716-1.557 1.284-1.012.557-2.694.557m.364-2.409q1.614 0 2.727-.841 1.114-.853 1.694-2.353.58-1.51.58-3.488 0-1.954-.57-3.421-.567-1.477-1.68-2.295-1.115-.83-2.75-.83-1.705 0-2.842.875-1.125.864-1.693 2.353-.557 1.476-.557 3.318 0 1.863.568 3.386.58 1.512 1.705 2.409 1.136.887 2.818.887M22.33 427v-17.455h2.682V427zm1.364-20.364q-.784 0-1.352-.534a1.72 1.72 0 0 1-.557-1.284q0-.75.557-1.284.569-.534 1.352-.534t1.341.534q.568.534.568 1.284t-.568 1.284a1.87 1.87 0 0 1-1.34.534m18.594 6.819-2.41.681a4.5 4.5 0 0 0-.67-1.17q-.431-.58-1.181-.955t-1.92-.375q-1.605 0-2.671.739-1.057.727-1.057 1.852 0 1 .727 1.58.727.579 2.273.966l2.59.636q2.341.568 3.49 1.739 1.147 1.159 1.147 2.988 0 1.5-.863 2.682-.853 1.182-2.387 1.864t-3.568.682q-2.67 0-4.42-1.159t-2.216-3.387l2.545-.636q.363 1.409 1.375 2.113 1.023.705 2.67.705 1.875 0 2.978-.795 1.113-.807 1.113-1.932a2.03 2.03 0 0 0-.636-1.523q-.636-.625-1.954-.932l-2.91-.682q-2.397-.568-3.522-1.761-1.114-1.205-1.114-3.011 0-1.477.83-2.614.84-1.136 2.284-1.784 1.455-.648 3.295-.648 2.59 0 4.068 1.137 1.489 1.136 2.114 3m6.855 7.181-.045-3.318h.545l7.636-7.773h3.319l-8.137 8.228h-.227zm-2.5 6.364v-23.273h2.682V427zm11.091 0-6.818-8.636 1.909-1.864 8.318 10.5zM301.773 81h-2.955l8.546-23.273h2.909L318.818 81h-2.954l-6.955-19.59h-.182zm1.091-9.09h11.909v2.5h-11.909zm40.579-4.456-2.409.682a4.5 4.5 0 0 0-.67-1.17q-.432-.58-1.182-.955t-1.921-.375q-1.602 0-2.67.739-1.057.727-1.057 1.852 0 1 .727 1.58.728.579 2.273.966l2.591.636q2.34.568 3.489 1.739 1.147 1.16 1.147 2.988 0 1.5-.863 2.682-.852 1.182-2.387 1.864-1.533.681-3.568.682-2.67 0-4.42-1.16-1.75-1.158-2.216-3.386l2.545-.636q.364 1.41 1.375 2.114 1.023.704 2.671.704 1.875 0 2.977-.796 1.113-.806 1.114-1.931 0-.91-.637-1.523-.636-.625-1.954-.932l-2.909-.682q-2.398-.567-3.523-1.761-1.114-1.205-1.114-3.011 0-1.477.83-2.614.84-1.137 2.284-1.784 1.455-.648 3.295-.648 2.592 0 4.069 1.136 1.488 1.137 2.113 3m11.673 13.91q-2.522 0-4.352-1.114-1.818-1.126-2.807-3.136-.977-2.023-.977-4.705t.977-4.727q.989-2.057 2.75-3.205 1.773-1.16 4.137-1.159 1.364 0 2.693.455a6.7 6.7 0 0 1 2.42 1.477q1.091 1.011 1.739 2.682.648 1.67.648 4.114v1.136h-13.455v-2.318h10.727q0-1.478-.59-2.637a4.46 4.46 0 0 0-1.66-1.83q-1.068-.67-2.522-.67-1.603 0-2.773.796a5.23 5.23 0 0 0-1.784 2.045 6 6 0 0 0-.625 2.705v1.545q0 1.977.682 3.353.693 1.363 1.92 2.079 1.227.704 2.852.704 1.057 0 1.91-.295a4.1 4.1 0 0 0 1.488-.909q.625-.614.966-1.523l2.591.727a5.75 5.75 0 0 1-1.375 2.319q-.966.989-2.386 1.545-1.42.546-3.194.546M366.423 81V63.545h2.591v2.637h.182q.477-1.296 1.727-2.103 1.25-.806 2.818-.806.296 0 .739.011.443.012.671.034v2.728a8 8 0 0 0-.625-.103 6 6 0 0 0-1.012-.08q-1.272 0-2.273.535a4.03 4.03 0 0 0-1.568 1.454q-.567.921-.568 2.102V81zm11.907 0V63.545h2.681V81zm1.363-20.364q-.784 0-1.352-.534a1.72 1.72 0 0 1-.557-1.284q0-.75.557-1.284a1.9 1.9 0 0 1 1.352-.534q.785 0 1.341.534.568.534.568 1.284t-.568 1.284a1.87 1.87 0 0 1-1.341.534m13.548 20.728q-2.522 0-4.352-1.114-1.818-1.126-2.807-3.136-.977-2.023-.977-4.705t.977-4.727q.989-2.057 2.75-3.205 1.773-1.16 4.137-1.159 1.364 0 2.693.455a6.7 6.7 0 0 1 2.42 1.477q1.091 1.011 1.739 2.682.648 1.67.648 4.114v1.136h-13.455v-2.318h10.727q0-1.478-.59-2.637a4.46 4.46 0 0 0-1.66-1.83q-1.068-.67-2.522-.67-1.603 0-2.773.796a5.23 5.23 0 0 0-1.784 2.045 6 6 0 0 0-.625 2.705v1.545q0 1.977.682 3.353.693 1.363 1.92 2.079 1.227.704 2.852.704 1.057 0 1.91-.295a4.1 4.1 0 0 0 1.488-.909q.625-.614.966-1.523l2.591.727a5.75 5.75 0 0 1-1.375 2.319q-.966.989-2.386 1.545-1.42.546-3.194.546m23.671-13.91-2.409.682a4.5 4.5 0 0 0-.671-1.17q-.43-.58-1.181-.955-.75-.375-1.921-.375-1.602 0-2.67.739-1.057.727-1.057 1.852 0 1 .727 1.58.728.579 2.273.966l2.591.636q2.34.568 3.488 1.739 1.149 1.16 1.148 2.988 0 1.5-.864 2.682-.852 1.182-2.386 1.864-1.534.681-3.568.682-2.67 0-4.421-1.16-1.75-1.158-2.215-3.386l2.545-.636q.364 1.41 1.375 2.114 1.023.704 2.67.704 1.875 0 2.978-.796 1.113-.806 1.113-1.931a2.03 2.03 0 0 0-.636-1.523q-.636-.625-1.955-.932l-2.909-.682q-2.397-.567-3.522-1.761-1.114-1.205-1.114-3.011 0-1.477.83-2.614.84-1.137 2.284-1.784 1.454-.648 3.295-.648 2.59 0 4.068 1.136 1.489 1.137 2.114 3m20.446 13.91q-2.364 0-4.148-1.125-1.773-1.126-2.772-3.148-.99-2.023-.989-4.727 0-2.728.989-4.762.999-2.034 2.772-3.159 1.784-1.125 4.148-1.125t4.136 1.125q1.785 1.125 2.773 3.16 1 2.034 1 4.76 0 2.706-1 4.728-.988 2.023-2.773 3.148-1.772 1.125-4.136 1.125m0-2.41q1.796 0 2.954-.92 1.16-.92 1.716-2.42.558-1.5.557-3.25 0-1.75-.557-3.262-.557-1.511-1.716-2.443t-2.954-.932-2.955.932q-1.158.932-1.715 2.443t-.557 3.262.557 3.25 1.715 2.42q1.16.92 2.955.92m19.776-15.408v2.272h-9.41v-2.273zM450.543 81V61.136q0-1.5.704-2.5a4.37 4.37 0 0 1 1.83-1.5 5.8 5.8 0 0 1 2.375-.5q.989 0 1.613.16.626.158.932.295l-.773 2.318a13 13 0 0 0-.568-.17q-.352-.103-.932-.103-1.329 0-1.92.67-.58.672-.58 1.967V81zm-137.725 25.455-2.409.681a4.5 4.5 0 0 0-.67-1.17q-.432-.58-1.182-.955t-1.921-.375q-1.602 0-2.67.739-1.057.727-1.057 1.852 0 1 .727 1.58.728.579 2.273.966l2.591.636q2.34.568 3.489 1.739 1.147 1.159 1.147 2.988 0 1.5-.863 2.682-.852 1.182-2.387 1.864-1.533.681-3.568.682-2.67 0-4.42-1.159t-2.216-3.387l2.545-.636q.364 1.409 1.375 2.113 1.023.705 2.671.705 1.875 0 2.977-.795 1.113-.807 1.114-1.932 0-.91-.637-1.523-.636-.625-1.954-.932l-2.909-.682q-2.398-.568-3.523-1.761-1.114-1.205-1.114-3.011 0-1.477.83-2.614.84-1.137 2.284-1.784 1.455-.648 3.295-.648 2.592 0 4.069 1.137 1.488 1.136 2.113 3m11.673 13.909q-2.522 0-4.352-1.114-1.818-1.125-2.807-3.136-.977-2.023-.977-4.705t.977-4.727q.989-2.057 2.75-3.205 1.773-1.159 4.137-1.159 1.364 0 2.693.455a6.7 6.7 0 0 1 2.42 1.477q1.091 1.011 1.739 2.682.648 1.67.648 4.113v1.137h-13.455v-2.318h10.727q0-1.478-.59-2.637a4.46 4.46 0 0 0-1.66-1.829q-1.068-.67-2.522-.671-1.603 0-2.773.796a5.2 5.2 0 0 0-1.784 2.045 6 6 0 0 0-.625 2.705v1.545q0 1.977.682 3.352.693 1.365 1.92 2.08 1.227.705 2.852.705 1.057 0 1.91-.296a4.1 4.1 0 0 0 1.488-.909q.625-.614.966-1.523l2.591.728a5.75 5.75 0 0 1-1.375 2.318q-.966.989-2.386 1.545-1.42.546-3.194.546m18.398 0q-2.454 0-4.227-1.159t-2.727-3.194q-.955-2.034-.955-4.647 0-2.659.977-4.694.989-2.045 2.75-3.193 1.773-1.159 4.137-1.159 1.84 0 3.318.682a6.35 6.35 0 0 1 2.42 1.909q.943 1.227 1.171 2.864h-2.682q-.307-1.194-1.364-2.114-1.045-.932-2.818-.932-1.568 0-2.75.818-1.17.807-1.829 2.285-.648 1.466-.648 3.443 0 2.022.636 3.522.648 1.5 1.818 2.33 1.183.83 2.773.83 1.046 0 1.898-.364a3.9 3.9 0 0 0 1.443-1.046q.59-.681.841-1.636h2.682a6.2 6.2 0 0 1-1.125 2.784q-.887 1.227-2.352 1.955-1.455.716-3.387.716m18.375-17.819v2.273h-9.045v-2.273zm-6.409-4.181h2.682V115q0 1.137.329 1.705.342.556.864.75.534.181 1.125.181.444 0 .727-.045l.455-.091.545 2.409a5.5 5.5 0 0 1-.761.205q-.489.113-1.239.113-1.136 0-2.227-.488a4.4 4.4 0 0 1-1.795-1.489q-.705-1-.705-2.523zm17.347 22q-2.364 0-4.148-1.125-1.773-1.126-2.773-3.148-.988-2.023-.988-4.727 0-2.728.988-4.762 1-2.034 2.773-3.159 1.784-1.125 4.148-1.125t4.136 1.125q1.784 1.125 2.773 3.159 1 2.034 1 4.762 0 2.704-1 4.727-.989 2.023-2.773 3.148-1.773 1.125-4.136 1.125m0-2.409q1.796 0 2.954-.921 1.16-.92 1.716-2.42.557-1.5.557-3.25t-.557-3.262q-.556-1.511-1.716-2.443-1.158-.932-2.954-.932t-2.955.932q-1.16.932-1.716 2.443-.557 1.512-.557 3.262t.557 3.25q.556 1.5 1.716 2.42 1.16.921 2.955.921M384.205 120v-17.455h2.59v2.637h.182q.477-1.296 1.728-2.102 1.25-.807 2.818-.807.296 0 .738.011.444.012.671.034v2.727a9 9 0 0 0-.625-.102 6 6 0 0 0-1.012-.079q-1.273 0-2.272.534a4 4 0 0 0-1.568 1.454q-.569.921-.569 2.103V120zm24.269-13.545-2.409.681a4.5 4.5 0 0 0-.67-1.17q-.432-.58-1.182-.955t-1.92-.375q-1.603 0-2.671.739-1.057.727-1.057 1.852 0 1 .728 1.58.726.579 2.272.966l2.591.636q2.341.568 3.489 1.739 1.148 1.159 1.148 2.988 0 1.5-.864 2.682-.852 1.182-2.386 1.864-1.535.681-3.569.682-2.67 0-4.42-1.159t-2.216-3.387l2.546-.636q.363 1.409 1.375 2.113 1.022.705 2.67.705 1.875 0 2.977-.795 1.114-.807 1.114-1.932 0-.91-.636-1.523-.637-.625-1.955-.932l-2.909-.682q-2.398-.568-3.523-1.761-1.113-1.205-1.113-3.011 0-1.477.829-2.614.841-1.137 2.284-1.784 1.454-.648 3.296-.648 2.59 0 4.068 1.137 1.489 1.136 2.113 3M421.83 120v-17.455h2.681V120zm1.363-20.364q-.784 0-1.352-.534a1.72 1.72 0 0 1-.557-1.284q0-.75.557-1.284a1.9 1.9 0 0 1 1.352-.534q.785 0 1.341.534.568.534.568 1.284t-.568 1.284a1.87 1.87 0 0 1-1.341.534m8.912 9.864V120h-2.682v-17.455h2.591v2.728h.227a5 5 0 0 1 1.864-2.137q1.25-.818 3.227-.818 1.773 0 3.103.727 1.329.717 2.068 2.182.738 1.455.738 3.682V120h-2.681v-10.909q0-2.056-1.069-3.205-1.068-1.159-2.931-1.159-1.285 0-2.296.557-1 .557-1.579 1.625-.58 1.068-.58 2.591m30.173 10.909q-1.659 0-3.011-.625a5.2 5.2 0 0 1-2.148-1.829q-.795-1.204-.795-2.91 0-1.5.591-2.431a4.17 4.17 0 0 1 1.579-1.478 8.3 8.3 0 0 1 2.182-.795q1.204-.273 2.421-.432 1.59-.205 2.579-.307 1-.112 1.455-.375.466-.261.466-.909v-.091q0-1.681-.921-2.613-.909-.933-2.761-.932-1.92 0-3.012.841-1.09.84-1.534 1.795l-2.545-.909q.681-1.591 1.818-2.477a6.8 6.8 0 0 1 2.5-1.25 10.4 10.4 0 0 1 2.682-.364q.84 0 1.932.205a6.2 6.2 0 0 1 2.125.807q1.034.613 1.716 1.852t.681 3.318V120h-2.681v-2.364h-.137q-.273.568-.909 1.216t-1.693 1.103-2.58.454m.41-2.409q1.59 0 2.681-.625 1.102-.625 1.659-1.614a4.1 4.1 0 0 0 .569-2.079v-2.455q-.171.205-.75.375-.569.16-1.319.284-.738.114-1.443.205-.693.08-1.125.136-1.045.137-1.954.443-.899.296-1.455.898-.545.591-.545 1.614 0 1.398 1.034 2.113 1.045.705 2.648.705m-162.233 41v-17.455h2.59v2.637h.182q.477-1.296 1.728-2.102 1.25-.807 2.818-.807.295 0 .738.011.444.012.671.034v2.727a9 9 0 0 0-.625-.102 6 6 0 0 0-1.012-.079q-1.272 0-2.272.534a4 4 0 0 0-1.568 1.454q-.569.921-.569 2.103V159zm18.465.364q-2.363 0-4.147-1.125-1.773-1.126-2.773-3.148-.989-2.023-.989-4.727 0-2.728.989-4.762 1-2.034 2.773-3.159 1.784-1.125 4.147-1.125t4.137 1.125q1.783 1.125 2.773 3.159 1 2.034 1 4.762 0 2.704-1 4.727-.99 2.022-2.773 3.148-1.773 1.125-4.137 1.125m0-2.409q1.796 0 2.955-.921 1.16-.92 1.716-2.42.557-1.5.557-3.25t-.557-3.262q-.556-1.511-1.716-2.443t-2.955-.932-2.954.932-1.716 2.443-.557 3.262.557 3.25q.556 1.5 1.716 2.42 1.159.921 2.954.921M334.284 159l-5.318-17.455h2.818l3.773 13.364h.182l3.727-13.364h2.864l3.681 13.319h.182l3.773-13.319h2.818L347.466 159h-2.636l-3.819-13.409h-.272L336.92 159zm38.636-17.455v2.273h-9.045v-2.273zm-6.409-4.181h2.682V154q0 1.137.33 1.705.34.556.863.75.534.181 1.125.181.444 0 .728-.045l.454-.091.546 2.409a6 6 0 0 1-.762.205q-.488.113-1.238.113-1.137 0-2.228-.488a4.4 4.4 0 0 1-1.795-1.489q-.705-1-.705-2.523zm17.347 22q-2.364 0-4.148-1.125-1.773-1.126-2.772-3.148-.99-2.023-.989-4.727 0-2.728.989-4.762.999-2.034 2.772-3.159 1.784-1.125 4.148-1.125t4.136 1.125q1.785 1.125 2.773 3.159 1 2.034 1 4.762 0 2.704-1 4.727-.988 2.022-2.773 3.148-1.772 1.125-4.136 1.125m0-2.409q1.796 0 2.954-.921 1.16-.92 1.716-2.42.558-1.5.557-3.25 0-1.75-.557-3.262-.557-1.511-1.716-2.443t-2.954-.932-2.955.932q-1.158.932-1.715 2.443t-.557 3.262.557 3.25 1.715 2.42q1.16.921 2.955.921m19.048 8.954q-1.943 0-3.341-.5-1.397-.488-2.329-1.295a7.1 7.1 0 0 1-1.466-1.705l2.136-1.5q.364.477.921 1.091.556.625 1.522 1.08.978.465 2.557.465 2.113 0 3.489-1.022t1.375-3.205v-3.545h-.227q-.296.477-.841 1.182-.534.693-1.546 1.238-1 .534-2.704.534-2.114 0-3.796-1-1.67-1-2.647-2.909-.966-1.91-.966-4.636 0-2.682.943-4.671.944-2 2.625-3.091 1.681-1.102 3.886-1.102 1.705 0 2.705.568 1.011.558 1.545 1.273.546.705.841 1.159h.273v-2.773h2.591V159.5q0 2.25-1.023 3.659-1.011 1.42-2.727 2.08-1.705.67-3.796.67m-.091-9.591q1.614 0 2.728-.738 1.113-.74 1.693-2.125.579-1.387.579-3.319 0-1.886-.568-3.329t-1.682-2.262q-1.113-.818-2.75-.818-1.704 0-2.841.864-1.125.863-1.693 2.318-.557 1.455-.557 3.227 0 1.818.569 3.216.579 1.387 1.704 2.182 1.137.784 2.818.784m19.864 3.046q-2.523 0-4.352-1.114-1.818-1.125-2.807-3.136-.977-2.023-.977-4.705t.977-4.727q.989-2.057 2.75-3.205 1.773-1.158 4.136-1.159 1.364 0 2.693.455a6.7 6.7 0 0 1 2.421 1.477q1.09 1.011 1.739 2.682.647 1.67.647 4.113v1.137h-13.454v-2.318h10.727q0-1.478-.591-2.637a4.45 4.45 0 0 0-1.659-1.829q-1.068-.67-2.523-.671-1.602 0-2.772.796a5.2 5.2 0 0 0-1.785 2.045 6 6 0 0 0-.625 2.705v1.545q0 1.977.682 3.352.694 1.365 1.921 2.08 1.227.705 2.852.705 1.057 0 1.909-.296a4.1 4.1 0 0 0 1.489-.909 4.15 4.15 0 0 0 .966-1.523l2.591.728a5.8 5.8 0 0 1-1.375 2.318q-.966.988-2.387 1.545-1.42.546-3.193.546m18.898-17.819v2.273h-9.046v-2.273zm-6.409-4.181h2.681V154q0 1.137.33 1.705.34.556.864.75.534.181 1.125.181.442 0 .727-.045l.454-.091.546 2.409a6 6 0 0 1-.761.205q-.489.113-1.239.113-1.137 0-2.227-.488a4.4 4.4 0 0 1-1.796-1.489q-.705-1-.704-2.523zm13.5 11.136V159h-2.682v-23.273h2.682v8.546h.227a4.93 4.93 0 0 1 1.841-2.148q1.239-.807 3.295-.807 1.785 0 3.125.716 1.34.704 2.08 2.171.75 1.454.75 3.704V159h-2.682v-10.909q0-2.079-1.08-3.216-1.068-1.148-2.965-1.148-1.319 0-2.364.557a4.06 4.06 0 0 0-1.636 1.625q-.591 1.068-.591 2.591m23.542 10.864q-2.523 0-4.352-1.114-1.818-1.125-2.807-3.136-.977-2.023-.977-4.705t.977-4.727q.989-2.057 2.75-3.205 1.773-1.158 4.137-1.159 1.363 0 2.693.455a6.7 6.7 0 0 1 2.42 1.477q1.09 1.011 1.739 2.682.648 1.67.648 4.113v1.137h-13.455v-2.318h10.727q0-1.478-.591-2.637a4.45 4.45 0 0 0-1.659-1.829q-1.068-.67-2.522-.671-1.603 0-2.773.796a5.2 5.2 0 0 0-1.784 2.045 6 6 0 0 0-.625 2.705v1.545q0 1.977.682 3.352.693 1.365 1.92 2.08 1.227.705 2.852.705 1.057 0 1.909-.296a4.1 4.1 0 0 0 1.489-.909q.625-.614.966-1.523l2.591.728a5.75 5.75 0 0 1-1.375 2.318q-.966.988-2.387 1.545-1.42.546-3.193.546m11.307-.364v-17.455h2.591v2.637h.182q.477-1.296 1.727-2.102 1.25-.807 2.818-.807.295 0 .739.011.443.012.67.034v2.727a9 9 0 0 0-.625-.102 6 6 0 0 0-1.011-.079q-1.273 0-2.273.534a4 4 0 0 0-1.568 1.454q-.568.921-.568 2.103V159zM869.773 81h-2.955l8.546-23.273h2.909L886.818 81h-2.954l-6.955-19.59h-.182zm1.091-9.09h11.909v2.5h-11.909zm40.579-4.456-2.409.682a4.5 4.5 0 0 0-.67-1.17q-.432-.58-1.182-.955t-1.921-.375q-1.602 0-2.67.739-1.057.727-1.057 1.852 0 1 .727 1.58.728.579 2.273.966l2.591.636q2.34.568 3.489 1.739 1.147 1.16 1.147 2.988 0 1.5-.863 2.682-.852 1.182-2.387 1.864-1.534.681-3.568.682-2.67 0-4.42-1.16-1.75-1.158-2.216-3.386l2.545-.636q.364 1.41 1.375 2.114 1.023.704 2.671.704 1.875 0 2.977-.796 1.113-.806 1.114-1.931 0-.91-.637-1.523-.636-.625-1.954-.932l-2.909-.682q-2.398-.567-3.523-1.761-1.114-1.205-1.114-3.011 0-1.477.83-2.614.84-1.137 2.284-1.784 1.455-.648 3.295-.648 2.592 0 4.069 1.136 1.488 1.137 2.113 3m11.673 13.91q-2.522 0-4.352-1.114-1.818-1.126-2.807-3.136-.977-2.023-.977-4.705t.977-4.727q.989-2.057 2.75-3.205 1.773-1.16 4.137-1.159 1.364 0 2.693.455a6.7 6.7 0 0 1 2.42 1.477q1.091 1.011 1.739 2.682.648 1.67.648 4.114v1.136h-13.455v-2.318h10.727q0-1.478-.59-2.637a4.46 4.46 0 0 0-1.66-1.83q-1.068-.67-2.522-.67-1.602 0-2.773.796a5.23 5.23 0 0 0-1.784 2.045 6 6 0 0 0-.625 2.705v1.545q0 1.977.682 3.353.693 1.363 1.92 2.079 1.227.704 2.852.704 1.057 0 1.91-.295a4.1 4.1 0 0 0 1.488-.909q.625-.614.966-1.523l2.591.727a5.75 5.75 0 0 1-1.375 2.319q-.966.989-2.386 1.545-1.42.546-3.194.546M934.423 81V63.545h2.591v2.637h.182q.477-1.296 1.727-2.103 1.25-.806 2.818-.806.296 0 .739.011.444.012.671.034v2.728a8 8 0 0 0-.625-.103 6 6 0 0 0-1.012-.08q-1.272 0-2.273.535a4.03 4.03 0 0 0-1.568 1.454q-.568.921-.568 2.102V81zm11.907 0V63.545h2.681V81zm1.363-20.364q-.784 0-1.352-.534a1.72 1.72 0 0 1-.557-1.284q0-.75.557-1.284a1.9 1.9 0 0 1 1.352-.534q.784 0 1.341.534.568.534.568 1.284t-.568 1.284a1.87 1.87 0 0 1-1.341.534m13.548 20.728q-2.522 0-4.352-1.114-1.818-1.126-2.807-3.136-.977-2.023-.977-4.705t.977-4.727q.989-2.057 2.75-3.205 1.773-1.16 4.137-1.159 1.364 0 2.693.455a6.7 6.7 0 0 1 2.42 1.477q1.091 1.011 1.739 2.682.648 1.67.648 4.114v1.136h-13.455v-2.318h10.727q0-1.478-.59-2.637a4.46 4.46 0 0 0-1.66-1.83q-1.068-.67-2.522-.67-1.602 0-2.773.796a5.23 5.23 0 0 0-1.784 2.045 6 6 0 0 0-.625 2.705v1.545q0 1.977.682 3.353.693 1.363 1.92 2.079 1.227.704 2.852.704 1.057 0 1.91-.295a4.1 4.1 0 0 0 1.488-.909q.625-.614.966-1.523l2.591.727a5.75 5.75 0 0 1-1.375 2.319q-.966.989-2.386 1.545-1.42.546-3.194.546m23.671-13.91-2.409.682a4.5 4.5 0 0 0-.671-1.17q-.43-.58-1.181-.955-.75-.375-1.921-.375-1.602 0-2.67.739-1.057.727-1.057 1.852 0 1 .727 1.58.728.579 2.273.966l2.591.636q2.34.568 3.488 1.739 1.149 1.16 1.148 2.988 0 1.5-.864 2.682-.852 1.182-2.386 1.864-1.534.681-3.568.682-2.67 0-4.421-1.16-1.75-1.158-2.215-3.386l2.545-.636q.364 1.41 1.375 2.114 1.023.704 2.67.704 1.875 0 2.978-.796 1.113-.806 1.113-1.931a2.03 2.03 0 0 0-.636-1.523q-.636-.625-1.955-.932l-2.909-.682q-2.397-.567-3.522-1.761-1.114-1.205-1.114-3.011 0-1.477.83-2.614.84-1.137 2.284-1.784 1.454-.648 3.295-.648 2.59 0 4.068 1.136 1.489 1.137 2.114 3m20.448 13.91c-1.58 0-2.96-.375-4.15-1.125q-1.772-1.126-2.772-3.148-.99-2.023-.989-4.727 0-2.728.989-4.762 1-2.034 2.772-3.159c1.19-.75 2.57-1.125 4.15-1.125 1.57 0 2.95.375 4.13 1.125 1.19.75 2.12 1.803 2.78 3.16.66 1.355 1 2.943 1 4.76 0 1.804-.34 3.38-1 4.728s-1.59 2.398-2.78 3.148c-1.18.75-2.56 1.125-4.13 1.125m0-2.41c1.19 0 2.18-.306 2.95-.92.78-.614 1.35-1.42 1.72-2.42s.56-2.084.56-3.25a9.4 9.4 0 0 0-.56-3.262c-.37-1.007-.94-1.822-1.72-2.443-.77-.621-1.76-.932-2.95-.932-1.2 0-2.18.31-2.96.932q-1.155.932-1.71 2.443a9.4 9.4 0 0 0-.56 3.262c0 1.166.19 2.25.56 3.25q.555 1.5 1.71 2.42c.78.614 1.76.92 2.96.92m19.77-15.408v2.272h-9.41v-2.273zM1018.54 81V61.136c0-1 .24-1.833.71-2.5a4.37 4.37 0 0 1 1.83-1.5 5.8 5.8 0 0 1 2.37-.5q.99 0 1.62.16.615.158.93.295l-.78 2.318a11 11 0 0 0-.56-.17c-.24-.069-.55-.103-.94-.103q-1.32 0-1.92.67c-.38.448-.58 1.103-.58 1.967V81zm-137.722 25.455-2.409.681a4.5 4.5 0 0 0-.67-1.17q-.432-.58-1.182-.955t-1.921-.375q-1.602 0-2.67.739-1.057.727-1.057 1.852 0 1 .727 1.58.728.579 2.273.966l2.591.636q2.34.568 3.489 1.739 1.147 1.159 1.147 2.988 0 1.5-.863 2.682-.852 1.182-2.387 1.864-1.534.681-3.568.682-2.67 0-4.42-1.159t-2.216-3.387l2.545-.636q.364 1.409 1.375 2.113 1.023.705 2.671.705 1.875 0 2.977-.795 1.113-.807 1.114-1.932 0-.91-.637-1.523-.636-.625-1.954-.932l-2.909-.682q-2.398-.568-3.523-1.761-1.114-1.205-1.114-3.011 0-1.477.83-2.614.84-1.137 2.284-1.784 1.455-.648 3.295-.648 2.592 0 4.069 1.137 1.488 1.136 2.113 3m11.673 13.909q-2.522 0-4.352-1.114-1.818-1.125-2.807-3.136-.977-2.023-.977-4.705t.977-4.727q.989-2.057 2.75-3.205 1.773-1.159 4.137-1.159 1.364 0 2.693.455a6.7 6.7 0 0 1 2.42 1.477q1.091 1.011 1.739 2.682.648 1.67.648 4.113v1.137h-13.455v-2.318h10.727q0-1.478-.59-2.637a4.46 4.46 0 0 0-1.66-1.829q-1.068-.67-2.522-.671-1.602 0-2.773.796a5.2 5.2 0 0 0-1.784 2.045 6 6 0 0 0-.625 2.705v1.545q0 1.977.682 3.352.693 1.365 1.92 2.08 1.227.705 2.852.705 1.057 0 1.91-.296a4.1 4.1 0 0 0 1.488-.909q.625-.614.966-1.523l2.591.728a5.75 5.75 0 0 1-1.375 2.318q-.966.989-2.386 1.545-1.42.546-3.194.546m18.398 0q-2.454 0-4.227-1.159t-2.727-3.194-.955-4.647q0-2.659.977-4.694.989-2.045 2.75-3.193 1.773-1.159 4.137-1.159 1.84 0 3.318.682a6.35 6.35 0 0 1 2.42 1.909q.943 1.227 1.171 2.864h-2.682q-.307-1.194-1.364-2.114-1.045-.932-2.818-.932-1.568 0-2.75.818-1.17.807-1.829 2.285-.648 1.466-.648 3.443 0 2.022.636 3.522.648 1.5 1.818 2.33 1.183.83 2.773.83 1.046 0 1.898-.364a3.9 3.9 0 0 0 1.443-1.046q.59-.681.841-1.636h2.682a6.2 6.2 0 0 1-1.125 2.784q-.887 1.227-2.352 1.955-1.455.716-3.387.716m18.375-17.819v2.273h-9.045v-2.273zm-6.409-4.181h2.682V115q0 1.137.329 1.705.342.556.864.75.534.181 1.125.181.444 0 .727-.045l.455-.091.545 2.409a5.5 5.5 0 0 1-.761.205q-.489.113-1.239.113-1.136 0-2.227-.488a4.4 4.4 0 0 1-1.795-1.489q-.705-1-.705-2.523zm17.347 22q-2.364 0-4.148-1.125-1.773-1.126-2.773-3.148-.988-2.023-.988-4.727 0-2.728.988-4.762 1-2.034 2.773-3.159 1.784-1.125 4.148-1.125t4.136 1.125q1.784 1.125 2.773 3.159 1 2.034 1 4.762 0 2.704-1 4.727-.989 2.023-2.773 3.148-1.773 1.125-4.136 1.125m0-2.409q1.796 0 2.954-.921 1.16-.92 1.716-2.42.557-1.5.557-3.25t-.557-3.262q-.557-1.511-1.716-2.443t-2.954-.932-2.955.932-1.716 2.443q-.557 1.512-.557 3.262t.557 3.25 1.716 2.42q1.16.921 2.955.921M952.205 120v-17.455h2.59v2.637h.182q.477-1.296 1.728-2.102 1.25-.807 2.818-.807.295 0 .738.011.444.012.671.034v2.727a9 9 0 0 0-.625-.102 6 6 0 0 0-1.012-.079q-1.272 0-2.272.534a4 4 0 0 0-1.568 1.454q-.569.921-.569 2.103V120zm24.269-13.545-2.409.681a4.5 4.5 0 0 0-.67-1.17q-.432-.58-1.182-.955t-1.92-.375q-1.603 0-2.671.739-1.057.727-1.057 1.852 0 1 .728 1.58.726.579 2.272.966l2.591.636q2.341.568 3.489 1.739 1.148 1.159 1.148 2.988 0 1.5-.864 2.682-.853 1.182-2.386 1.864-1.535.681-3.569.682-2.67 0-4.42-1.159t-2.216-3.387l2.546-.636q.363 1.409 1.375 2.113 1.022.705 2.67.705 1.875 0 2.977-.795 1.114-.807 1.114-1.932 0-.91-.636-1.523-.637-.625-1.955-.932l-2.909-.682q-2.398-.568-3.523-1.761-1.113-1.205-1.113-3.011 0-1.477.829-2.614.841-1.137 2.284-1.784 1.454-.648 3.296-.648 2.59 0 4.068 1.137 1.488 1.136 2.113 3M989.83 120v-17.455h2.681V120zm1.363-20.364q-.784 0-1.352-.534a1.72 1.72 0 0 1-.557-1.284q0-.75.557-1.284a1.9 1.9 0 0 1 1.352-.534q.784 0 1.341.534.568.534.568 1.284t-.568 1.284a1.87 1.87 0 0 1-1.341.534m8.917 9.864V120h-2.687v-17.455h2.587v2.728h.23a4.96 4.96 0 0 1 1.87-2.137c.83-.545 1.9-.818 3.22-.818 1.18 0 2.22.243 3.1.727q1.335.717 2.07 2.182c.5.97.74 2.197.74 3.682V120h-2.68v-10.909c0-1.371-.36-2.439-1.07-3.205-.71-.772-1.69-1.159-2.93-1.159-.86 0-1.62.186-2.3.557a4.05 4.05 0 0 0-1.58 1.625q-.57 1.068-.57 2.591m30.17 10.909c-1.11 0-2.11-.208-3.01-.625a5.2 5.2 0 0 1-2.15-1.829c-.53-.803-.8-1.773-.8-2.91 0-1 .2-1.81.59-2.431.4-.629.93-1.122 1.58-1.478a8.3 8.3 0 0 1 2.19-.795c.8-.182 1.61-.326 2.42-.432q1.59-.205 2.58-.307c.66-.075 1.15-.2 1.45-.375.31-.174.47-.477.47-.909v-.091c0-1.121-.31-1.992-.92-2.613-.61-.622-1.53-.932-2.77-.932-1.28 0-2.28.28-3.01.841-.72.56-1.24 1.159-1.53 1.795l-2.55-.909c.46-1.061 1.06-1.886 1.82-2.477a6.9 6.9 0 0 1 2.5-1.25c.91-.243 1.81-.364 2.68-.364.56 0 1.21.068 1.94.205.73.129 1.44.397 2.12.807.69.409 1.26 1.026 1.72 1.852.45.826.68 1.932.68 3.318V120h-2.68v-2.364h-.14c-.18.379-.48.784-.91 1.216-.42.432-.99.8-1.69 1.103q-1.065.454-2.58.454m.41-2.409c1.06 0 1.95-.208 2.68-.625s1.29-.955 1.66-1.614a4.1 4.1 0 0 0 .57-2.079v-2.455q-.18.205-.75.375-.57.16-1.32.284c-.49.076-.98.144-1.44.205-.47.053-.84.098-1.13.136q-1.05.137-1.95.443c-.6.197-1.09.497-1.46.898q-.54.591-.54 1.614c0 .932.34 1.636 1.03 2.113.7.47 1.58.705 2.65.705m-155.145 41.364q-2.454 0-4.227-1.159t-2.727-3.194q-.954-2.034-.955-4.647 0-2.659.978-4.694.988-2.045 2.75-3.193 1.772-1.158 4.136-1.159 1.84 0 3.318.682a6.36 6.36 0 0 1 2.421 1.909q.943 1.227 1.17 2.864h-2.682q-.307-1.194-1.363-2.114-1.046-.932-2.819-.932-1.568 0-2.75.818-1.17.807-1.829 2.285-.648 1.466-.648 3.443 0 2.022.637 3.522.647 1.5 1.818 2.33 1.182.83 2.772.83 1.046 0 1.898-.364a3.9 3.9 0 0 0 1.443-1.046q.592-.681.841-1.636h2.682a6.2 6.2 0 0 1-1.125 2.784q-.887 1.227-2.352 1.955-1.455.716-3.387.716m17.875 0q-2.363 0-4.147-1.125-1.773-1.126-2.773-3.148-.989-2.023-.989-4.727 0-2.728.989-4.762 1-2.034 2.773-3.159 1.784-1.125 4.147-1.125t4.137 1.125q1.783 1.125 2.773 3.159 1 2.034 1 4.762 0 2.704-1 4.727-.99 2.022-2.773 3.148-1.773 1.125-4.137 1.125m0-2.409q1.795 0 2.955-.921 1.16-.92 1.716-2.42.557-1.5.557-3.25t-.557-3.262q-.557-1.511-1.716-2.443-1.16-.932-2.955-.932t-2.954.932q-1.16.932-1.716 2.443-.557 1.512-.557 3.262t.557 3.25 1.716 2.42q1.159.921 2.954.921m14.685-21.228V159h-2.682v-23.273zm15.912 16.137v-10.319h2.682V159h-2.682v-2.955h-.182q-.613 1.33-1.909 2.262-1.295.92-3.273.92-1.636 0-2.909-.716-1.272-.727-2-2.181-.727-1.467-.727-3.694v-11.091h2.682v10.91q0 1.908 1.068 3.045 1.08 1.137 2.75 1.136 1 0 2.034-.511 1.045-.512 1.75-1.568.716-1.057.716-2.693m7.594 7.136v-17.455h2.591v2.728h.227q.546-1.398 1.761-2.171 1.216-.783 2.921-.784 1.727 0 2.875.784 1.16.773 1.807 2.171h.181a5.1 5.1 0 0 1 2.012-2.148q1.341-.807 3.216-.807 2.34 0 3.829 1.466 1.49 1.455 1.489 4.534V159h-2.682v-11.682q0-1.932-1.057-2.761t-2.488-.83q-1.841 0-2.853 1.114-1.011 1.103-1.011 2.795V159h-2.727v-11.955q0-1.488-.966-2.397-.966-.921-2.489-.921-1.045 0-1.954.557a4.2 4.2 0 0 0-1.455 1.546q-.546.977-.545 2.261V159zm30.494-10.5V159h-2.682v-17.455h2.591v2.728h.227a5 5 0 0 1 1.864-2.137q1.25-.818 3.227-.818 1.773 0 3.103.727 1.329.717 2.068 2.182.738 1.455.738 3.682V159h-2.681v-10.909q0-2.056-1.069-3.205-1.068-1.158-2.931-1.159-1.284 0-2.296.557-1 .557-1.579 1.625-.58 1.068-.58 2.591m32.628-6.955v2.273h-9.045v-2.273zm-6.409-4.181h2.682V154q0 1.137.329 1.705.341.556.864.75.534.181 1.125.181.443 0 .727-.045l.455-.091.545 2.409a6 6 0 0 1-.761.205q-.489.113-1.239.113-1.136 0-2.227-.488a4.43 4.43 0 0 1-1.796-1.489q-.704-1-.704-2.523zm17.346 22c-1.58 0-2.96-.375-4.15-1.125q-1.77-1.126-2.77-3.148-.989-2.023-.989-4.727 0-2.728.989-4.762 1-2.034 2.77-3.159c1.19-.75 2.57-1.125 4.15-1.125q2.37 0 4.14 1.125c1.19.75 2.11 1.803 2.77 3.159.67 1.356 1 2.943 1 4.762 0 1.803-.33 3.378-1 4.727-.66 1.348-1.58 2.398-2.77 3.148q-1.77 1.125-4.14 1.125m0-2.409c1.2 0 2.18-.307 2.95-.921.78-.614 1.35-1.42 1.72-2.42s.56-2.084.56-3.25c0-1.167-.19-2.254-.56-3.262-.37-1.007-.94-1.822-1.72-2.443-.77-.621-1.75-.932-2.95-.932s-2.18.311-2.95.932c-.78.621-1.35 1.436-1.72 2.443a9.4 9.4 0 0 0-.56 3.262c0 1.166.19 2.25.56 3.25s.94 1.806 1.72 2.42c.77.614 1.75.921 2.95.921m19.05 8.954c-1.3 0-2.41-.167-3.34-.5-.93-.326-1.71-.757-2.33-1.295a7.1 7.1 0 0 1-1.47-1.705l2.14-1.5c.24.318.55.682.92 1.091.37.417.88.777 1.52 1.08.65.31 1.51.465 2.56.465 1.41 0 2.57-.34 3.49-1.022.91-.682 1.37-1.75 1.37-3.205v-3.545h-.22c-.2.318-.48.712-.85 1.182-.35.462-.87.875-1.54 1.238-.67.356-1.57.534-2.71.534-1.4 0-2.67-.333-3.79-1-1.11-.666-2-1.636-2.65-2.909q-.96-1.91-.96-4.636c0-1.788.31-3.345.94-4.671.63-1.333 1.5-2.363 2.62-3.091 1.12-.734 2.42-1.102 3.89-1.102q1.71 0 2.7.568c.68.372 1.19.796 1.55 1.273q.54.705.84 1.159h.27v-2.773h2.59V159.5q0 2.25-1.02 3.659-1.005 1.42-2.73 2.08c-1.13.447-2.4.67-3.79.67m-.09-9.591q1.605 0 2.73-.738c.74-.493 1.3-1.201 1.69-2.125.38-.925.58-2.031.58-3.319q0-1.886-.57-3.329t-1.68-2.262c-.74-.545-1.66-.818-2.75-.818-1.14 0-2.09.288-2.84.864s-1.32 1.348-1.7 2.318c-.37.97-.55 2.046-.55 3.227q0 1.818.57 3.216c.38.925.95 1.652 1.7 2.182q1.14.784 2.82.784m19.86 3.046q-2.52 0-4.35-1.114c-1.21-.75-2.15-1.795-2.81-3.136-.65-1.349-.97-2.917-.97-4.705s.32-3.364.97-4.727c.66-1.371 1.58-2.44 2.75-3.205q1.77-1.158 4.14-1.159c.91 0 1.81.152 2.69.455.89.303 1.7.795 2.42 1.477q1.095 1.011 1.74 2.682c.43 1.113.65 2.485.65 4.113v1.137h-13.46v-2.318h10.73c0-.985-.2-1.864-.59-2.637a4.5 4.5 0 0 0-1.66-1.829q-1.065-.67-2.52-.671c-1.07 0-1.99.265-2.77.796a5.2 5.2 0 0 0-1.79 2.045 6.1 6.1 0 0 0-.62 2.705v1.545c0 1.318.22 2.436.68 3.352q.69 1.365 1.92 2.08 1.23.705 2.85.705c.71 0 1.34-.099 1.91-.296a4.1 4.1 0 0 0 1.49-.909c.42-.409.74-.917.97-1.523l2.59.728a5.9 5.9 0 0 1-1.38 2.318c-.64.659-1.44 1.174-2.39 1.545-.94.364-2.01.546-3.19.546m18.9-17.819v2.273h-9.05v-2.273zm-6.41-4.181h2.68V154q0 1.137.33 1.705.345.556.87.75c.35.121.73.181 1.12.181.3 0 .54-.015.73-.045l.45-.091.55 2.409c-.18.068-.44.136-.76.205-.33.075-.74.113-1.24.113-.76 0-1.5-.163-2.23-.488a4.45 4.45 0 0 1-1.8-1.489c-.47-.667-.7-1.508-.7-2.523zm13.5 11.136V159h-2.68v-23.273h2.68v8.546h.23a4.9 4.9 0 0 1 1.84-2.148c.82-.538 1.92-.807 3.29-.807 1.19 0 2.23.239 3.13.716.89.47 1.59 1.193 2.08 2.171q.75 1.454.75 3.704V159h-2.68v-10.909q0-2.079-1.08-3.216c-.72-.765-1.7-1.148-2.97-1.148-.88 0-1.67.186-2.36.557s-1.24.913-1.64 1.625c-.39.712-.59 1.576-.59 2.591m23.54 10.864q-2.52 0-4.35-1.114c-1.21-.75-2.15-1.795-2.81-3.136-.65-1.349-.97-2.917-.97-4.705s.32-3.364.97-4.727c.66-1.371 1.58-2.44 2.75-3.205 1.19-.772 2.56-1.159 4.14-1.159.91 0 1.81.152 2.69.455.89.303 1.7.795 2.42 1.477q1.095 1.011 1.74 2.682c.43 1.113.65 2.485.65 4.113v1.137h-13.45v-2.318h10.72c0-.985-.19-1.864-.59-2.637a4.4 4.4 0 0 0-1.66-1.829q-1.065-.67-2.52-.671c-1.07 0-1.99.265-2.77.796a5.2 5.2 0 0 0-1.79 2.045 6.1 6.1 0 0 0-.62 2.705v1.545c0 1.318.23 2.436.68 3.352q.69 1.365 1.92 2.08 1.23.705 2.85.705c.71 0 1.34-.099 1.91-.296a4.1 4.1 0 0 0 1.49-.909c.42-.409.74-.917.97-1.523l2.59.728a5.8 5.8 0 0 1-1.38 2.318c-.64.659-1.44 1.174-2.38 1.545-.95.364-2.02.546-3.2.546m11.31-.364v-17.455h2.59v2.637h.18c.32-.864.9-1.565 1.73-2.102q1.245-.807 2.82-.807c.19 0 .44.004.74.011.29.008.52.019.67.034v2.727a9 9 0 0 0-.63-.102 6 6 0 0 0-1.01-.079c-.85 0-1.61.178-2.27.534a4.05 4.05 0 0 0-1.57 1.454q-.57.921-.57 2.103V159zM2.023 300v-23.273h4.92v9.603h9.989v-9.603h4.909V300h-4.91v-9.614H6.944V300zm31.738.341q-2.692 0-4.636-1.091a7.47 7.47 0 0 1-2.977-3.114q-1.046-2.022-1.046-4.784 0-2.693 1.046-4.727t2.943-3.17q1.91-1.137 4.477-1.137 1.728 0 3.216.557 1.5.546 2.614 1.648 1.125 1.102 1.75 2.772.624 1.66.625 3.887v1.329H27.034v-3h10.182q0-1.045-.455-1.852a3.25 3.25 0 0 0-1.261-1.261q-.796-.466-1.852-.466-1.103 0-1.955.511-.84.5-1.318 1.352a3.8 3.8 0 0 0-.489 1.875v2.853q0 1.295.478 2.238a3.5 3.5 0 0 0 1.375 1.455q.885.511 2.102.511.807 0 1.477-.227.67-.228 1.148-.682t.727-1.113l4.477.295a6.1 6.1 0 0 1-1.397 2.818q-1.046 1.194-2.705 1.864-1.647.659-3.807.659m16.148-.011q-1.67 0-2.977-.58a4.8 4.8 0 0 1-2.068-1.739q-.75-1.158-.75-2.886 0-1.455.534-2.443.534-.989 1.454-1.591a7 7 0 0 1 2.091-.909 16 16 0 0 1 2.477-.432 65 65 0 0 0 2.455-.295q.932-.148 1.352-.432t.42-.841v-.068q0-1.08-.681-1.671-.67-.591-1.91-.591-1.306 0-2.079.58-.773.568-1.022 1.432l-4.478-.364q.342-1.591 1.341-2.75 1-1.17 2.58-1.795 1.59-.637 3.682-.637 1.454 0 2.784.341 1.34.341 2.375 1.057a5.14 5.14 0 0 1 1.647 1.841q.603 1.113.603 2.67V300h-4.591v-2.42h-.137a4.9 4.9 0 0 1-1.125 1.443 5.2 5.2 0 0 1-1.693.966q-.988.34-2.284.341m1.386-3.341q1.069 0 1.887-.421a3.34 3.34 0 0 0 1.284-1.159 3 3 0 0 0 .466-1.648v-1.852q-.228.148-.625.273-.387.114-.875.216-.49.09-.977.17l-.887.125a6 6 0 0 0-1.488.398q-.637.273-.99.739-.351.454-.351 1.136 0 .989.716 1.511.727.512 1.84.512m18.631 3.295q-1.988 0-3.602-1.023-1.602-1.033-2.546-3.034-.93-2.012-.931-4.932 0-3 .965-4.988.966-2 2.569-2.989a6.6 6.6 0 0 1 3.534-1q1.465 0 2.443.5.99.489 1.59 1.227.614.728.933 1.432h.147v-8.75h4.83V300h-4.773v-2.795h-.204q-.342.726-.966 1.443-.614.704-1.603 1.17-.977.466-2.386.466m1.534-3.852q1.17 0 1.978-.637.818-.647 1.25-1.806.443-1.16.443-2.716t-.432-2.705q-.432-1.147-1.25-1.773t-1.989-.625q-1.193 0-2.011.648-.819.647-1.239 1.796-.42 1.147-.42 2.659 0 1.523.42 2.693.432 1.16 1.239 1.818.818.648 2.011.648M299.136 16.784v-4.057h19.114v4.057h-7.125V36h-4.864V16.784zM319.494 36V18.546h4.694v3.045h.181q.478-1.625 1.603-2.455 1.125-.84 2.59-.84.364 0 .785.045.42.045.738.125v4.295a6 6 0 0 0-.943-.181 8.5 8.5 0 0 0-1.102-.08q-1.068 0-1.909.466a3.44 3.44 0 0 0-1.319 1.273q-.477.818-.477 1.886V36zm17.571.33q-1.67 0-2.977-.58a4.8 4.8 0 0 1-2.068-1.739q-.75-1.159-.75-2.886 0-1.455.534-2.443.534-.99 1.455-1.591a7 7 0 0 1 2.09-.91 16 16 0 0 1 2.478-.431 63 63 0 0 0 2.454-.296q.931-.147 1.353-.431.42-.285.42-.841v-.068q0-1.08-.682-1.67-.67-.592-1.909-.592-1.306 0-2.079.58-.774.568-1.023 1.432l-4.477-.364q.34-1.59 1.34-2.75 1-1.17 2.58-1.796 1.591-.636 3.682-.636 1.454 0 2.784.341 1.34.341 2.375 1.057a5.14 5.14 0 0 1 1.648 1.84q.602 1.114.602 2.671V36h-4.591v-2.42h-.136a5 5 0 0 1-1.125 1.443q-.704.613-1.694.966-.988.34-2.284.34m1.387-3.341q1.068 0 1.886-.42a3.33 3.33 0 0 0 1.284-1.16 3 3 0 0 0 .466-1.648V27.91q-.227.149-.625.273a11 11 0 0 1-.875.216q-.488.09-.977.17l-.887.125a6 6 0 0 0-1.488.398q-.636.273-.989.738-.352.455-.352 1.137 0 .989.716 1.511.727.512 1.841.512m20.085 3.352q-2.682 0-4.614-1.136a7.7 7.7 0 0 1-2.954-3.182q-1.023-2.034-1.023-4.682 0-2.682 1.034-4.705 1.046-2.033 2.966-3.17 1.92-1.148 4.568-1.148 2.284 0 4 .83t2.716 2.33T366.332 25h-4.568q-.193-1.307-1.023-2.102-.818-.807-2.147-.807-1.126 0-1.966.613-.83.604-1.296 1.762-.466 1.159-.466 2.807 0 1.67.455 2.84.466 1.17 1.307 1.785.84.613 1.966.613a3.2 3.2 0 0 0 1.488-.34 2.9 2.9 0 0 0 1.103-.99q.443-.658.579-1.579h4.568q-.113 2-1.091 3.523-.965 1.511-2.67 2.364-1.704.852-4.034.852m15.281-5.364.012-5.806h.704l5.591-6.625h5.557l-7.512 8.772h-1.147zM369.432 36V12.727h4.841V36zm10.909 0-5.136-7.602 3.227-3.42L386.011 36zM878.273 36h-8.25V12.727h8.318q3.512 0 6.045 1.398 2.535 1.386 3.898 3.989 1.375 2.602 1.375 6.227 0 3.636-1.375 6.25-1.364 2.614-3.92 4.011Q881.818 36 878.273 36m-3.33-4.216h3.125q2.182 0 3.671-.773 1.5-.784 2.25-2.42.76-1.648.761-4.25 0-2.58-.761-4.216-.75-1.635-2.239-2.41-1.488-.771-3.67-.772h-3.137zM893.213 36V18.546h4.841V36zm2.432-19.704q-1.08-.001-1.852-.716-.762-.727-.762-1.74 0-1 .762-1.715a2.6 2.6 0 0 1 1.852-.727q1.08 0 1.841.727.773.716.773 1.716 0 1.011-.773 1.739-.761.716-1.841.716m20.81 7.227-4.432.273a2.3 2.3 0 0 0-.489-1.023 2.6 2.6 0 0 0-.989-.739q-.601-.285-1.443-.284-1.125 0-1.897.477-.773.465-.773 1.25 0 .626.5 1.057.5.432 1.716.693l3.159.637q2.545.522 3.795 1.681t1.25 3.046q0 1.716-1.011 3.011-1 1.296-2.75 2.023-1.738.716-4.011.716-3.467 0-5.523-1.443-2.046-1.455-2.398-3.955l4.761-.25q.216 1.057 1.046 1.614.83.545 2.125.545 1.272 0 2.045-.488.784-.501.796-1.284-.012-.66-.557-1.08-.545-.432-1.682-.66l-3.023-.601q-2.556-.512-3.806-1.773-1.239-1.261-1.239-3.216 0-1.681.909-2.898.921-1.215 2.58-1.875 1.67-.66 3.909-.659 3.306 0 5.204 1.398 1.909 1.397 2.228 3.807m7.832 7.454.011-5.806h.705l5.591-6.625h5.557l-7.512 8.772h-1.148zM919.901 36V12.727h4.84V36zm10.909 0-5.137-7.602 3.228-3.42L936.48 36zm27.838-16.58q-.136-1.374-1.171-2.136-1.034-.761-2.807-.761-1.205 0-2.034.34-.83.33-1.272.921-.432.591-.432 1.341-.022.625.261 1.09.295.466.807.808.512.33 1.182.58.67.238 1.432.408l2.091.5a14.7 14.7 0 0 1 2.795.91 8.5 8.5 0 0 1 2.205 1.397 5.8 5.8 0 0 1 1.443 1.955q.522 1.125.534 2.58-.012 2.135-1.091 3.704-1.068 1.556-3.091 2.42-2.011.853-4.852.853-2.818 0-4.909-.864-2.08-.864-3.25-2.557-1.16-1.704-1.216-4.216h4.761q.08 1.17.671 1.955.602.773 1.602 1.17 1.01.387 2.284.387 1.25 0 2.17-.364.933-.364 1.444-1.012a2.34 2.34 0 0 0 .511-1.488q0-.784-.466-1.318-.455-.535-1.341-.91-.875-.375-2.148-.681l-2.534-.636q-2.943-.716-4.647-2.24-1.705-1.521-1.694-4.102-.01-2.113 1.125-3.693 1.149-1.58 3.148-2.465 2-.887 4.546-.887 2.59 0 4.522.886 1.944.886 3.023 2.466t1.114 3.66zm16.207 16.92q-2.693 0-4.636-1.09a7.47 7.47 0 0 1-2.978-3.114q-1.044-2.022-1.045-4.784 0-2.692 1.045-4.727 1.046-2.034 2.944-3.17 1.909-1.137 4.477-1.137 1.726 0 3.216.557 1.5.546 2.613 1.648 1.125 1.102 1.75 2.773.625 1.658.625 3.886v1.33h-14.738v-3h10.182q0-1.047-.455-1.853a3.25 3.25 0 0 0-1.261-1.261q-.796-.465-1.853-.466-1.101 0-1.954.511a3.6 3.6 0 0 0-1.318 1.352 3.8 3.8 0 0 0-.489 1.875v2.853q0 1.295.477 2.238a3.5 3.5 0 0 0 1.375 1.455q.887.51 2.103.511.807 0 1.477-.227a3.1 3.1 0 0 0 1.148-.682 3 3 0 0 0 .727-1.114l4.477.296a6.1 6.1 0 0 1-1.398 2.818q-1.044 1.194-2.704 1.864-1.648.66-3.807.659m19.057 0q-2.682 0-4.614-1.136a7.7 7.7 0 0 1-2.954-3.181q-1.023-2.034-1.023-4.682 0-2.682 1.034-4.705 1.046-2.033 2.966-3.17 1.92-1.148 4.568-1.148 2.284 0 4 .83 1.714.83 2.721 2.33c.66 1 1.03 2.173 1.1 3.522h-4.571q-.193-1.307-1.023-2.102-.818-.807-2.147-.807-1.125 0-1.966.613-.83.604-1.296 1.762-.465 1.159-.466 2.807 0 1.67.455 2.84.466 1.17 1.307 1.785.84.613 1.966.613a3.2 3.2 0 0 0 1.488-.34 2.9 2.9 0 0 0 1.103-.99q.443-.658.579-1.579h4.571c-.08 1.334-.44 2.508-1.09 3.523q-.97 1.511-2.674 2.364-1.704.852-4.034.852m20.178-17.795v3.637h-10.51v-3.636zm-8.12-4.181h4.84v16.272c0 .447.07.796.2 1.046q.21.363.57.511c.25.099.54.148.86.148.23 0 .46-.019.68-.057.23-.045.41-.08.53-.102l.76 3.602q-.36.114-1.02.261c-.44.106-.98.17-1.61.194-1.16.045-2.19-.11-3.06-.466-.88-.356-1.55-.91-2.04-1.66-.48-.75-.72-1.696-.71-2.84zm18.97 21.977c-1.76 0-3.29-.375-4.58-1.125a7.64 7.64 0 0 1-2.96-3.16q-1.05-2.033-1.05-4.715 0-2.705 1.05-4.727a7.55 7.55 0 0 1 2.96-3.16c1.29-.757 2.82-1.136 4.58-1.136 1.77 0 3.29.379 4.57 1.136 1.29.75 2.28 1.804 2.98 3.16.7 1.348 1.04 2.924 1.04 4.727 0 1.788-.34 3.36-1.04 4.716-.7 1.348-1.69 2.401-2.98 3.159-1.28.75-2.8 1.125-4.57 1.125m.03-3.75q1.2 0 2.01-.682c.54-.462.94-1.09 1.21-1.886q.42-1.194.42-2.716t-.42-2.716c-.27-.796-.67-1.424-1.21-1.887q-.81-.693-2.01-.693c-.81 0-1.5.231-2.05.694-.54.462-.96 1.09-1.24 1.886-.27.795-.41 1.7-.41 2.716 0 1.015.14 1.92.41 2.716.28.795.7 1.424 1.24 1.886.55.455 1.24.682 2.05.682M1036.68 36V18.546h4.7v3.045h.18c.32-1.083.85-1.902 1.6-2.455.75-.56 1.61-.84 2.59-.84q.36 0 .78.045c.28.03.53.072.74.125v4.295a6 6 0 0 0-.94-.181c-.4-.053-.77-.08-1.1-.08-.71 0-1.35.155-1.91.466q-.825.454-1.32 1.273-.48.818-.48 1.886V36z"/><path stroke="#dbdbdb" stroke-width="5" d="m126.473 429.423 175 175M347.217 199.845 450.39 397.939"/><path fill="#063a71" d="M794.5 226.5 662 547s13 5 22 11 19 16 19 16l243.5-246.5s-35-32-71-56-81-45-81-45" opacity=".45"/><path stroke="#dbdbdb" stroke-width="5" d="m892.382 188.76-45 141"/></svg>