<svg xmlns="http://www.w3.org/2000/svg" width="1118" height="950" fill="none" viewBox="0 0 1118 950"><path fill="#717171" d="M469.017 149.586v-3.677h17.321v3.677h-6.457V167h-4.407v-17.414zM487.466 167v-15.818h4.253v2.76h.165q.432-1.473 1.452-2.225 1.02-.762 2.348-.762.33 0 .711.041.381.042.669.114v3.892a6 6 0 0 0-.855-.164 8 8 0 0 0-.999-.072q-.968 0-1.73.422a3.1 3.1 0 0 0-1.194 1.153q-.433.742-.433 1.71V167zm15.924.299q-1.514 0-2.698-.526a4.34 4.34 0 0 1-1.875-1.575q-.68-1.05-.679-2.616 0-1.318.484-2.214a3.9 3.9 0 0 1 1.318-1.442 6.4 6.4 0 0 1 1.895-.824 14.4 14.4 0 0 1 2.245-.391 55 55 0 0 0 2.224-.268q.845-.134 1.226-.391.381-.258.381-.762v-.062q0-.978-.618-1.514-.608-.535-1.73-.535-1.185 0-1.885.525a2.4 2.4 0 0 0-.927 1.297l-4.057-.329q.309-1.442 1.215-2.492.906-1.061 2.338-1.627 1.441-.577 3.336-.577 1.319 0 2.523.309a6.6 6.6 0 0 1 2.153.958 4.65 4.65 0 0 1 1.493 1.668q.546 1.009.546 2.42V167h-4.161v-2.194h-.123a4.4 4.4 0 0 1-1.02 1.308 4.7 4.7 0 0 1-1.534.876q-.897.309-2.07.309m1.256-3.028q.968 0 1.71-.381a3 3 0 0 0 1.163-1.051q.423-.659.423-1.493v-1.678a2.4 2.4 0 0 1-.567.247q-.35.103-.793.195-.442.083-.885.155l-.804.113a5.4 5.4 0 0 0-1.349.361q-.576.247-.896.669-.32.412-.319 1.03 0 .896.649 1.37.659.463 1.668.463m18.202 3.038q-2.43 0-4.181-1.03a6.96 6.96 0 0 1-2.677-2.883q-.927-1.844-.927-4.243 0-2.431.937-4.264a6.97 6.97 0 0 1 2.688-2.873q1.74-1.04 4.14-1.04 2.07 0 3.625.752t2.461 2.111.999 3.192h-4.14q-.175-1.183-.927-1.905-.741-.73-1.946-.731-1.02 0-1.782.556-.751.546-1.174 1.596t-.422 2.544q0 1.513.412 2.574.422 1.062 1.184 1.617.762.556 1.782.556.752 0 1.349-.309a2.6 2.6 0 0 0 .999-.895q.402-.598.525-1.432h4.14q-.103 1.813-.989 3.193-.875 1.37-2.42 2.142t-3.656.772m13.849-4.861.01-5.262h.639l5.067-6.004h5.035l-6.807 7.95h-1.04zM532.722 167v-21.091h4.387V167zm9.886 0-4.655-6.89 2.925-3.099 6.869 9.989zm31.428-21.091V167h-3.851l-9.176-13.275h-.155V167h-4.459v-21.091h3.913l9.104 13.264h.186v-13.264zm13.746 14.356v-9.083h4.387V167h-4.212v-2.873h-.165a4.67 4.67 0 0 1-1.782 2.235q-1.235.844-3.017.844-1.586 0-2.791-.721t-1.884-2.049q-.67-1.33-.68-3.182v-10.072h4.387v9.289q.01 1.401.752 2.214.741.813 1.987.814.793 0 1.483-.361.69-.37 1.113-1.091.432-.721.422-1.782m7.896 6.735v-15.818h4.181v2.791h.185q.495-1.39 1.648-2.194 1.154-.803 2.76-.803 1.627 0 2.77.813 1.143.804 1.524 2.184h.165q.485-1.36 1.751-2.173 1.277-.825 3.017-.824 2.215 0 3.594 1.411 1.39 1.4 1.391 3.975V167h-4.377v-9.773q0-1.319-.7-1.977-.7-.66-1.751-.659-1.195 0-1.864.762-.669.751-.669 1.987V167h-4.254v-9.866q0-1.163-.669-1.853-.66-.69-1.74-.69a2.4 2.4 0 0 0-1.319.37q-.577.36-.916 1.02-.34.648-.34 1.524V167zm26.534 0v-21.091h4.387v7.93h.133q.29-.638.835-1.298.555-.67 1.441-1.112.896-.453 2.225-.453 1.73 0 3.192.906 1.462.895 2.338 2.709.875 1.802.875 4.521 0 2.646-.854 4.469-.845 1.812-2.307 2.75-1.452.927-3.254.926-1.278 0-2.173-.422-.887-.422-1.452-1.06a5.4 5.4 0 0 1-.866-1.308h-.195V167zm4.294-7.909q0 1.41.391 2.461.392 1.05 1.133 1.638.741.576 1.802.576 1.07 0 1.813-.587.741-.597 1.122-1.647.392-1.061.392-2.441 0-1.37-.381-2.41t-1.123-1.627q-.741-.587-1.823-.587-1.071 0-1.812.566-.732.566-1.123 1.607t-.391 2.451m21.268 8.218q-2.44 0-4.201-.989a6.77 6.77 0 0 1-2.698-2.821q-.948-1.834-.948-4.336 0-2.44.948-4.284.947-1.844 2.667-2.873 1.73-1.03 4.057-1.03 1.565 0 2.915.504 1.36.495 2.368 1.494 1.02.998 1.586 2.513.567 1.503.567 3.522v1.204h-13.357v-2.718h9.227q0-.947-.412-1.679a2.95 2.95 0 0 0-1.143-1.143q-.72-.422-1.679-.422-.998 0-1.771.463a3.25 3.25 0 0 0-1.194 1.226 3.45 3.45 0 0 0-.443 1.699v2.585q0 1.174.432 2.028.443.855 1.246 1.319.804.463 1.906.463.73 0 1.338-.206a2.8 2.8 0 0 0 1.04-.618q.433-.412.66-1.009l4.057.268a5.54 5.54 0 0 1-1.267 2.554q-.946 1.081-2.451 1.689-1.492.597-3.45.597m10.124-.309v-15.818h4.253v2.76h.165q.432-1.473 1.452-2.225 1.019-.762 2.348-.762.329 0 .71.041.38.042.67.114v3.892a6 6 0 0 0-.855-.164 8 8 0 0 0-.999-.072q-.968 0-1.73.422a3.1 3.1 0 0 0-1.195 1.153q-.432.742-.432 1.71V167zM467.987 172.767H668v1.977H467.987zM23.455 717.445q3.45 0 5.87 1.308 2.42 1.298 3.697 3.542 1.266 2.235 1.266 5.026 0 2.811-1.277 5.046t-3.697 3.532-5.86 1.298q-3.45 0-5.87-1.298-2.42-1.297-3.686-3.532-1.277-2.235-1.277-5.046 0-2.791 1.277-5.026 1.266-2.244 3.686-3.542 2.42-1.308 5.87-1.308m0 4.521q-2.235 0-3.77.669-1.534.659-2.327 1.864t-.793 2.822.793 2.821q.793 1.206 2.327 1.875 1.535.659 3.77.659t3.769-.659q1.535-.669 2.327-1.875.793-1.204.793-2.821t-.793-2.822-2.327-1.864q-1.535-.669-3.77-.669M34 714.224H18.182v-4.253h2.76v-.165q-1.473-.432-2.225-1.452-.762-1.02-.762-2.348 0-.33.041-.711.042-.381.114-.669h3.893a6 6 0 0 0-.165.855 8 8 0 0 0-.072.999q0 .968.422 1.73.411.751 1.153 1.194.742.433 1.71.433H34zm.258-16.959q0 1.803-.927 3.265-.938 1.452-2.75 2.307-1.823.844-4.47.844-2.718 0-4.52-.875-1.814-.876-2.709-2.328a5.96 5.96 0 0 1-.906-3.203q0-1.327.453-2.214.443-.896 1.112-1.441a5.6 5.6 0 0 1 1.298-.845v-.134h-7.93v-4.377H34v4.326h-2.533v.185q.659.31 1.308.875.638.556 1.06 1.453.422.885.422 2.162m-3.492-1.39q0-1.061-.576-1.792-.587-.741-1.638-1.133-1.05-.401-2.461-.401t-2.451.391-1.607 1.133-.566 1.802q0 1.081.587 1.823.587.741 1.627 1.122t2.41.381q1.38 0 2.44-.381 1.05-.392 1.648-1.122.587-.742.587-1.823m3.543-18.426q0 2.44-.989 4.201a6.77 6.77 0 0 1-2.821 2.699q-1.834.947-4.336.947-2.44 0-4.284-.947-1.844-.948-2.873-2.668-1.03-1.73-1.03-4.057 0-1.565.505-2.915a6.5 6.5 0 0 1 1.493-2.368q.999-1.02 2.512-1.586 1.504-.567 3.523-.567h1.204v13.357h-2.718v-9.227q-.948 0-1.679.412a2.96 2.96 0 0 0-1.143 1.143q-.423.721-.422 1.679 0 .999.463 1.771.453.762 1.226 1.195a3.46 3.46 0 0 0 1.699.442h2.585q1.173 0 2.029-.432a3.17 3.17 0 0 0 1.318-1.246q.463-.804.463-1.905 0-.732-.206-1.339a2.8 2.8 0 0 0-.618-1.04 2.7 2.7 0 0 0-1.009-.659l.268-4.058a5.54 5.54 0 0 1 2.554 1.267q1.08.946 1.689 2.451.597 1.492.597 3.45M34 667.325H18.182v-4.253h2.76v-.165q-1.473-.432-2.225-1.452-.762-1.019-.762-2.348 0-.329.041-.71.042-.38.114-.67h3.893a6 6 0 0 0-.165.855 8 8 0 0 0-.072.999q0 .968.422 1.73.411.752 1.153 1.195.742.432 1.71.432H34zm.309-25.725q0 2.4-1.02 4.151a6.97 6.97 0 0 1-2.863 2.687q-1.842.948-4.273.948-2.451 0-4.284-.948-1.845-.947-2.863-2.687-1.03-1.752-1.03-4.151t1.03-4.14a6.9 6.9 0 0 1 2.863-2.698q1.833-.947 4.284-.947 2.43 0 4.274.947a6.96 6.96 0 0 1 2.862 2.698q1.02 1.741 1.02 4.14m-3.398-.02q0-1.092-.618-1.823-.63-.732-1.71-1.102-1.08-.381-2.461-.381t-2.462.381q-1.08.37-1.709 1.102-.628.73-.628 1.823 0 1.101.628 1.853.629.742 1.71 1.123 1.08.37 2.46.371 1.38 0 2.462-.371 1.08-.38 1.71-1.123.617-.752.617-1.853m-12.73-19.124h3.296v9.763h-3.295zM34 629.984H17.039q-1.72 0-2.853-.67a4.3 4.3 0 0 1-1.7-1.853q-.566-1.175-.566-2.667 0-1.01.155-1.844.155-.845.278-1.256l3.295.782a6 6 0 0 0-.154.639 4 4 0 0 0-.072.762q0 .968.453 1.349.442.381 1.246.381H34zm0-17.003H12.91v-8.321q0-2.389.854-4.078.845-1.699 2.4-2.585 1.544-.896 3.635-.896 2.1 0 3.614.907 1.505.906 2.307 2.626.803 1.708.803 4.14v5.571H22.94v-4.851q0-1.277-.35-2.121-.351-.845-1.05-1.256-.702-.423-1.741-.423-1.05 0-1.772.423-.72.412-1.091 1.266-.381.845-.381 2.132v3.007H34zm-9.598-11.39L34 596.35v4.922l-9.598 5.129zm9.907-14.512q0 2.44-.989 4.201a6.77 6.77 0 0 1-2.821 2.698q-1.834.948-4.336.948-2.44 0-4.284-.948-1.844-.946-2.873-2.667-1.03-1.73-1.03-4.057 0-1.565.505-2.915a6.46 6.46 0 0 1 1.493-2.368q.999-1.02 2.512-1.586 1.504-.567 3.523-.567h1.204v13.357h-2.718v-9.227q-.948 0-1.679.412a2.94 2.94 0 0 0-1.143 1.143q-.423.721-.422 1.679 0 .999.463 1.771.453.762 1.226 1.194a3.46 3.46 0 0 0 1.699.443h2.585q1.173 0 2.029-.432a3.17 3.17 0 0 0 1.318-1.246q.463-.804.463-1.906 0-.73-.206-1.338a2.8 2.8 0 0 0-.618-1.04 2.7 2.7 0 0 0-1.009-.66l.268-4.057a5.54 5.54 0 0 1 2.554 1.267q1.08.946 1.689 2.451.597 1.492.597 3.45m5.623-20.576h-8.465v.133q.659.309 1.308.876.638.557 1.06 1.452.422.885.422 2.163 0 1.802-.926 3.264-.938 1.452-2.75 2.307-1.823.844-4.47.844-2.718 0-4.52-.875-1.814-.875-2.709-2.327a5.97 5.97 0 0 1-.906-3.203q0-1.329.453-2.214.443-.896 1.112-1.442.66-.556 1.298-.845v-.185h-2.657v-4.325h21.75zm-9.166 3.233q0-1.06-.576-1.792-.587-.741-1.638-1.132-1.05-.402-2.461-.402t-2.451.391-1.607 1.133-.566 1.802q0 1.082.587 1.823.587.742 1.627 1.123t2.41.381q1.38 0 2.44-.381 1.05-.392 1.648-1.123.587-.741.587-1.823m-3.501-21.276h-9.083v-4.387H34v4.212h-2.873v.165a4.67 4.67 0 0 1 2.235 1.781q.844 1.236.844 3.018 0 1.585-.72 2.791-.722 1.205-2.05 1.884-1.329.67-3.183.68H18.182v-4.387h9.289q1.401-.01 2.214-.752.814-.741.814-1.988 0-.793-.36-1.483a2.83 2.83 0 0 0-1.092-1.112q-.721-.432-1.782-.422m7.044-15.105q0 2.44-.989 4.202a6.77 6.77 0 0 1-2.821 2.698q-1.834.947-4.336.947-2.44 0-4.284-.947-1.844-.948-2.873-2.667-1.03-1.73-1.03-4.058 0-1.566.505-2.914a6.5 6.5 0 0 1 1.493-2.369q.999-1.02 2.512-1.586 1.504-.567 3.523-.566h1.204v13.357h-2.718v-9.228q-.948 0-1.679.412a2.96 2.96 0 0 0-1.143 1.143q-.423.721-.422 1.679 0 .999.463 1.771.453.762 1.226 1.195a3.47 3.47 0 0 0 1.699.443h2.585q1.173 0 2.029-.433.855-.442 1.318-1.246.463-.803.463-1.905 0-.732-.206-1.339a2.8 2.8 0 0 0-.618-1.04 2.7 2.7 0 0 0-1.009-.659l.268-4.058a5.55 5.55 0 0 1 2.554 1.267q1.08.948 1.689 2.451.597 1.493.597 3.45M22.693 510.07l.247 4.017a2.07 2.07 0 0 0-.927.443 2.35 2.35 0 0 0-.67.896q-.257.545-.257 1.307 0 1.02.433 1.72.421.7 1.132.701.567 0 .958-.454.39-.453.628-1.555l.577-2.863q.474-2.306 1.524-3.439t2.76-1.133q1.555 0 2.729.917 1.175.906 1.833 2.492.65 1.575.649 3.635 0 3.14-1.308 5.005-1.318 1.854-3.584 2.173l-.226-4.315q.958-.195 1.462-.947.494-.753.494-1.926 0-1.153-.442-1.854-.453-.71-1.164-.721-.597.01-.979.505-.39.494-.597 1.524l-.546 2.739q-.463 2.317-1.606 3.45-1.143 1.123-2.915 1.123-1.524 0-2.626-.824-1.1-.834-1.699-2.338-.597-1.514-.597-3.542 0-2.998 1.267-4.717 1.266-1.73 3.45-2.019m-4.511-11.536h3.295v9.526h-3.295zm-3.79 7.363v-4.387h14.747q.608 0 .948-.185.33-.186.463-.515a2.1 2.1 0 0 0 .134-.783q0-.309-.052-.618l-.092-.474 3.264-.69q.103.33.237.927.144.599.175 1.452.061 1.587-.422 2.781-.484 1.184-1.503 1.843-1.02.66-2.575.649zm8.3-23.184.248 4.016a2.1 2.1 0 0 0-.927.443 2.35 2.35 0 0 0-.67.896q-.257.546-.257 1.308 0 1.02.433 1.72.421.7 1.132.7.567 0 .958-.453.39-.453.628-1.555l.577-2.863q.474-2.306 1.524-3.44 1.05-1.132 2.76-1.132 1.555 0 2.729.916 1.175.906 1.833 2.492.65 1.577.649 3.636 0 3.14-1.308 5.005-1.318 1.853-3.584 2.173l-.226-4.315q.958-.197 1.462-.948.494-.751.494-1.926 0-1.153-.442-1.853-.454-.71-1.164-.721-.597.01-.979.504-.39.495-.597 1.525l-.546 2.739q-.463 2.317-1.606 3.45-1.143 1.122-2.915 1.122-1.524 0-2.626-.824-1.1-.834-1.699-2.337-.597-1.514-.597-3.543 0-2.997 1.267-4.716 1.266-1.731 3.45-2.019M41.25 738.659V481.333h1.977v257.326z"/><path fill="#fff" d="M65 210.318q-2.568 0-4.375-1.398-1.807-1.409-2.761-4.079-.955-2.682-.955-6.477 0-3.773.955-6.444.966-2.681 2.772-4.09 1.818-1.42 4.364-1.421 2.546 0 4.352 1.421 1.819 1.409 2.773 4.09.966 2.67.966 6.444 0 3.795-.955 6.477-.954 2.67-2.761 4.079-1.806 1.398-4.375 1.398m0-2.5q2.546 0 3.954-2.454 1.41-2.455 1.41-7 0-3.023-.648-5.148-.636-2.125-1.841-3.239-1.194-1.113-2.875-1.113-2.523 0-3.943 2.488-1.42 2.478-1.42 7.012 0 3.022.636 5.136.636 2.113 1.83 3.216 1.203 1.102 2.897 1.102M266.02 216v-17.455h2.114v7.773h9.306v-7.773h2.114V216h-2.114v-7.807h-9.306V216zm22.981.273q-1.892 0-3.264-.835-1.364-.844-2.105-2.353-.733-1.517-.733-3.528t.733-3.546q.741-1.542 2.063-2.403 1.329-.87 3.102-.869 1.023 0 2.02.341.998.34 1.815 1.108.819.758 1.304 2.011.486 1.252.486 3.085v.852h-10.091v-1.738h8.045q0-1.108-.443-1.978a3.35 3.35 0 0 0-1.244-1.372q-.801-.503-1.892-.503-1.201 0-2.08.597a3.93 3.93 0 0 0-1.338 1.534 4.5 4.5 0 0 0-.468 2.029v1.159q0 1.482.511 2.514.52 1.023 1.44 1.56.921.528 2.139.528.793 0 1.432-.222.648-.23 1.117-.682.469-.46.724-1.142l1.943.546a4.3 4.3 0 0 1-1.031 1.739 5 5 0 0 1-1.79 1.159q-1.065.408-2.395.409m12.333.034q-1.245 0-2.259-.469a3.9 3.9 0 0 1-1.611-1.372q-.596-.904-.596-2.182 0-1.125.443-1.824.443-.707 1.185-1.108a6.2 6.2 0 0 1 1.636-.596 20 20 0 0 1 1.815-.324 83 83 0 0 1 1.935-.23q.75-.085 1.091-.282.35-.196.349-.681v-.069q0-1.26-.69-1.96-.681-.699-2.071-.699-1.44 0-2.258.631-.818.63-1.151 1.347l-1.909-.682q.511-1.194 1.364-1.858a5.1 5.1 0 0 1 1.875-.938 7.8 7.8 0 0 1 2.011-.272 8 8 0 0 1 1.449.153 4.7 4.7 0 0 1 1.594.605q.776.46 1.286 1.389.512.93.512 2.489V216h-2.012v-1.773h-.102q-.204.426-.682.912-.477.486-1.27.827-.792.34-1.934.341m.307-1.807q1.193 0 2.011-.469.827-.469 1.244-1.21a3.1 3.1 0 0 0 .426-1.56v-1.841q-.127.154-.562.282a10 10 0 0 1-.989.213q-.554.085-1.082.153-.52.06-.844.102a7.7 7.7 0 0 0-1.466.333q-.673.222-1.091.673-.409.444-.409 1.21 0 1.049.776 1.586.784.528 1.986.528m14.307 1.773q-1.636 0-2.889-.827-1.253-.835-1.96-2.352-.708-1.526-.708-3.605 0-2.063.708-3.58.707-1.517 1.968-2.344 1.262-.826 2.915-.826 1.28 0 2.02.426.75.417 1.142.954.401.529.622.87h.171v-6.444h2.011V216h-1.943v-2.011h-.239q-.221.357-.63.903-.41.537-1.168.963-.759.418-2.02.418m.273-1.807q1.21 0 2.045-.631.835-.639 1.27-1.764.435-1.134.435-2.616 0-1.467-.426-2.566-.426-1.107-1.262-1.721-.835-.623-2.062-.623-1.279 0-2.131.657-.844.648-1.27 1.764-.417 1.108-.417 2.489 0 1.397.426 2.539.435 1.134 1.278 1.807.852.665 2.114.665m17.156-7.193q0-3.222.835-5.924a18.5 18.5 0 0 1 2.404-4.985h1.772q-.613.843-1.15 2.079a20 20 0 0 0-.929 2.702 26 26 0 0 0-.631 3.034 22 22 0 0 0-.221 3.094q0 2.028.392 4.116a23.6 23.6 0 0 0 1.057 3.878q.665 1.79 1.482 2.915h-1.772a18.5 18.5 0 0 1-2.404-4.977q-.834-2.711-.835-5.932m13.4 8.966q-1.5 0-2.702-.597a5 5 0 0 1-1.926-1.636 4.46 4.46 0 0 1-.792-2.37h2.045q.12 1.185 1.074 1.961.963.767 2.301.767 1.074 0 1.909-.503a3.55 3.55 0 0 0 1.321-1.381q.486-.886.486-2.003 0-1.141-.503-2.037a3.7 3.7 0 0 0-1.364-1.423q-.869-.52-1.985-.528a5.4 5.4 0 0 0-1.645.247q-.845.247-1.389.639l-1.978-.239 1.057-8.591h9.068v1.875h-7.295l-.614 5.148h.102q.537-.426 1.347-.707a5.1 5.1 0 0 1 1.688-.281q1.602 0 2.855.767a5.35 5.35 0 0 1 1.977 2.079q.724 1.321.724 3.017 0 1.67-.75 2.983a5.5 5.5 0 0 1-2.045 2.063q-1.304.75-2.966.75m15.045 0q-1.687 0-3.009-.58-1.312-.579-2.088-1.611-.767-1.04-.835-2.412h2.148q.067.845.579 1.458.512.605 1.338.937a4.9 4.9 0 0 0 1.833.333q1.125 0 1.994-.392.87-.392 1.364-1.091t.494-1.62q0-.963-.477-1.696-.478-.74-1.398-1.159-.921-.417-2.25-.417h-1.398v-1.875h1.398q1.04 0 1.824-.375a2.94 2.94 0 0 0 1.236-1.057q.451-.683.451-1.602 0-.887-.392-1.543a2.7 2.7 0 0 0-1.108-1.023q-.707-.366-1.67-.366-.903 0-1.705.332-.792.324-1.295.946-.502.614-.546 1.483h-2.045q.051-1.373.827-2.403.776-1.04 2.028-1.62 1.261-.579 2.77-.579 1.62 0 2.778.656 1.16.648 1.782 1.713a4.5 4.5 0 0 1 .622 2.301q0 1.475-.776 2.514-.767 1.04-2.088 1.441v.136q1.653.273 2.582 1.406.93 1.125.929 2.787 0 1.423-.775 2.557-.766 1.125-2.097 1.773t-3.025.648m13.713-8.966q0 3.221-.844 5.932a18.3 18.3 0 0 1-2.395 4.977h-1.773q.615-.844 1.142-2.08.537-1.227.938-2.693a25 25 0 0 0 .622-3.043q.23-1.576.23-3.093 0-2.03-.392-4.117a23.6 23.6 0 0 0-1.057-3.878q-.664-1.79-1.483-2.914h1.773a18.3 18.3 0 0 1 2.395 4.985q.844 2.702.844 5.924M1053.18 186.727V210h-2.81v-20.318h-.14l-5.68 3.773v-2.864l5.82-3.864zm14.11-.318c.95.008 1.91.189 2.86.546q1.44.534 2.61 1.772c.79.818 1.42 1.936 1.9 3.353q.72 2.125.72 5.329c0 2.068-.2 3.905-.59 5.511q-.585 2.398-1.68 4.046c-.73 1.098-1.62 1.932-2.66 2.5s-2.22.852-3.53.852c-1.3 0-2.46-.257-3.49-.773a6.95 6.95 0 0 1-2.5-2.17q-.96-1.397-1.23-3.239h2.77c.25 1.069.74 1.951 1.49 2.648.75.689 1.74 1.034 2.96 1.034 1.8 0 3.22-.784 4.25-2.352 1.05-1.568 1.57-3.784 1.57-6.648h-.18a7.1 7.1 0 0 1-1.51 1.648c-.59.462-1.23.818-1.94 1.068-.72.25-1.47.375-2.28.375a7.1 7.1 0 0 1-3.67-.989 7.6 7.6 0 0 1-2.66-2.738q-.99-1.75-.99-4 0-2.136.96-3.909a7.33 7.33 0 0 1 2.7-2.841c1.17-.705 2.54-1.046 4.12-1.023m0 2.5q-1.44 0-2.58.716a5.17 5.17 0 0 0-1.81 1.909q-.66 1.194-.66 2.648c0 .97.21 1.852.64 2.648a5.1 5.1 0 0 0 1.76 1.886c.75.462 1.6.693 2.56.693q1.08 0 2.01-.42a5.2 5.2 0 0 0 1.62-1.171c.47-.5.84-1.064 1.1-1.693.27-.636.4-1.299.4-1.989q0-1.363-.66-2.556a5.24 5.24 0 0 0-1.79-1.932c-.76-.493-1.62-.739-2.59-.739m19.97-2.5c.95.008 1.9.189 2.86.546.95.356 1.83.947 2.61 1.772.79.818 1.42 1.936 1.9 3.353q.72 2.125.72 5.329c0 2.068-.2 3.905-.59 5.511-.39 1.599-.95 2.947-1.69 4.046-.72 1.098-1.61 1.932-2.66 2.5-1.03.568-2.21.852-3.52.852-1.3 0-2.46-.257-3.49-.773a6.9 6.9 0 0 1-2.5-2.17c-.64-.932-1.05-2.011-1.24-3.239h2.78c.25 1.069.74 1.951 1.49 2.648.75.689 1.73 1.034 2.96 1.034 1.8 0 3.21-.784 4.25-2.352 1.05-1.568 1.57-3.784 1.57-6.648h-.18a7.3 7.3 0 0 1-1.51 1.648 6.7 6.7 0 0 1-1.95 1.068 6.8 6.8 0 0 1-2.27.375c-1.33 0-2.56-.329-3.67-.989-1.11-.666-1.99-1.579-2.66-2.738q-.99-1.75-.99-4 0-2.136.96-3.909a7.33 7.33 0 0 1 2.7-2.841c1.17-.705 2.54-1.046 4.12-1.023m0 2.5q-1.44 0-2.58.716a5.17 5.17 0 0 0-1.81 1.909q-.66 1.194-.66 2.648c0 .97.21 1.852.64 2.648a5.1 5.1 0 0 0 1.76 1.886q1.125.693 2.55.693c.72 0 1.39-.14 2.02-.42a5.2 5.2 0 0 0 1.62-1.171c.47-.5.84-1.064 1.1-1.693.27-.636.4-1.299.4-1.989q0-1.363-.66-2.556a5.24 5.24 0 0 0-1.79-1.932c-.76-.493-1.62-.739-2.59-.739"/><mask id="a" fill="#fff"><path d="M65 270h1005v680H65z"/></mask><path fill="#292929" d="M65 270h1005v680H65z"/><path fill="#717171" d="M1070 950v1h1v-1zM65 950h-1v1h1zm1005-680h-1v680h2V270zm0 680v-1H65v2h1005zM65 950h1V270h-2v680z" mask="url(#a)"/><path stroke="#fff" d="M65 269.5h1005M65.5 236v68M111.5 252v36M226.5 252v36M390.5 252v36M401.5 252v36"/><path stroke="#3e3e3e" d="M161.5 270v680"/><path stroke="#fff" d="M321.5 236v68"/><path stroke="#3e3e3e" d="M262.5 270v680M363.5 270v680"/><path stroke="#fff" d="M552.5 252v36"/><path stroke="#3e3e3e" d="M464.5 270v680"/><path stroke="#fff" d="M678.5 252v36"/><path stroke="#3e3e3e" d="M565.5 270v680"/><path stroke="#fff" d="M685.5 252v36"/><path stroke="#3e3e3e" d="M666.5 270v680M767.5 270v680M868.5 270v680"/><path stroke="#fff" d="M987.5 252v36"/><path stroke="#3e3e3e" d="M969.5 270v680"/><path stroke="#fff" d="M1070.5 236v68"/><path fill="#fff" d="M438.836 25.384q-.145-1.46-1.244-2.27-1.098-.809-2.982-.809-1.28 0-2.161.363-.882.35-1.353.978a2.35 2.35 0 0 0-.458 1.424q-.025.665.277 1.16.314.494.857.857.544.35 1.256.615.713.254 1.521.435l2.222.531q1.619.363 2.97.966a9 9 0 0 1 2.343 1.485 6.2 6.2 0 0 1 1.533 2.077q.555 1.195.567 2.74-.012 2.27-1.159 3.937-1.134 1.654-3.284 2.572-2.137.905-5.155.905-2.995 0-5.216-.918-2.21-.917-3.453-2.716-1.232-1.811-1.292-4.48h5.059q.084 1.245.712 2.077.64.822 1.702 1.244 1.075.41 2.427.41 1.328 0 2.306-.386.99-.387 1.534-1.075.543-.688.543-1.581 0-.834-.495-1.4-.483-.569-1.425-.967-.929-.398-2.282-.724l-2.692-.676q-3.127-.76-4.938-2.379-1.812-1.617-1.799-4.358-.012-2.247 1.195-3.925 1.22-1.678 3.344-2.62 2.125-.94 4.83-.941 2.753 0 4.805.941 2.065.942 3.212 2.62 1.147 1.68 1.183 3.888zm17.22 17.978q-2.862 0-4.926-1.159-2.052-1.17-3.163-3.308-1.111-2.15-1.111-5.083 0-2.862 1.111-5.023t3.127-3.369q2.028-1.207 4.757-1.207 1.835 0 3.417.592a7.6 7.6 0 0 1 2.777 1.75q1.195 1.171 1.859 2.946.664 1.763.664 4.13v1.412h-15.66v-3.187h10.818q0-1.11-.482-1.968a3.46 3.46 0 0 0-1.341-1.34q-.844-.495-1.968-.495-1.17 0-2.076.543a3.8 3.8 0 0 0-1.401 1.437 4.06 4.06 0 0 0-.519 1.992v3.03q0 1.376.507 2.379a3.7 3.7 0 0 0 1.461 1.545q.942.544 2.234.544.856 0 1.569-.242.713-.24 1.22-.724.507-.483.772-1.183l4.757.313a6.5 6.5 0 0 1-1.485 2.995q-1.11 1.267-2.873 1.98-1.751.7-4.045.7m20.32 0q-2.86 0-4.926-1.159-2.053-1.17-3.163-3.308-1.111-2.15-1.111-5.083 0-2.862 1.111-5.023t3.127-3.369q2.028-1.207 4.757-1.207 1.836 0 3.417.592a7.6 7.6 0 0 1 2.777 1.75q1.196 1.171 1.859 2.946.664 1.763.664 4.13v1.412h-15.659v-3.187h10.818q0-1.11-.483-1.968a3.46 3.46 0 0 0-1.34-1.34q-.846-.495-1.968-.495-1.171 0-2.077.543a3.8 3.8 0 0 0-1.401 1.437 4.06 4.06 0 0 0-.519 1.992v3.03q0 1.376.507 2.379a3.7 3.7 0 0 0 1.461 1.545q.942.544 2.234.544.857 0 1.569-.242.713-.24 1.22-.724a3.15 3.15 0 0 0 .773-1.183l4.757.313a6.5 6.5 0 0 1-1.485 2.995q-1.112 1.267-2.874 1.98-1.75.7-4.045.7m16.529-5.699.013-6.17h.748l5.94-7.038h5.905l-7.981 9.32h-1.22zM488.245 43V18.273h5.143V43zm11.591 0-5.458-8.077 3.429-3.635L505.861 43zm15.222-20.417v-4.31h20.308v4.31h-7.57V43h-5.168V22.583zM538.614 43V24.455h5.144V43zm2.584-20.936q-1.148 0-1.968-.76-.809-.774-.809-1.848 0-1.062.809-1.823a2.77 2.77 0 0 1 1.968-.773q1.147 0 1.956.773.82.76.821 1.823 0 1.074-.821 1.847-.809.76-1.956.76M547.878 43V24.455h4.902v3.272h.217q.579-1.63 1.932-2.572t3.236-.942q1.907 0 3.248.954 1.34.942 1.786 2.56h.194q.567-1.594 2.052-2.548 1.497-.966 3.538-.966 2.595 0 4.214 1.654 1.63 1.642 1.63 4.66V43h-5.132V31.542q0-1.545-.821-2.318-.82-.773-2.052-.773-1.401 0-2.186.893-.785.882-.785 2.33V43h-4.986V31.433q0-1.365-.785-2.173-.773-.81-2.04-.809-.858 0-1.546.435-.677.422-1.074 1.195-.399.76-.399 1.787V43zm39.463.362q-2.861 0-4.926-1.159-2.053-1.17-3.163-3.308-1.111-2.15-1.111-5.083 0-2.862 1.111-5.023t3.127-3.369q2.028-1.207 4.757-1.207 1.834 0 3.417.592a7.6 7.6 0 0 1 2.777 1.75q1.195 1.171 1.859 2.946.664 1.763.664 4.13v1.412h-15.66v-3.187h10.819q0-1.11-.483-1.968a3.46 3.46 0 0 0-1.341-1.34q-.845-.495-1.968-.495-1.17 0-2.076.543a3.8 3.8 0 0 0-1.401 1.437 4.06 4.06 0 0 0-.519 1.992v3.03q0 1.376.507 2.379a3.7 3.7 0 0 0 1.461 1.545q.942.544 2.234.544.857 0 1.569-.242.713-.24 1.22-.724.507-.483.772-1.183l4.758.313a6.5 6.5 0 0 1-1.485 2.995q-1.111 1.267-2.874 1.98-1.75.7-4.045.7m36.231-17.096a5.4 5.4 0 0 0-.713-1.558 4.4 4.4 0 0 0-1.122-1.159 4.8 4.8 0 0 0-1.498-.736 6.3 6.3 0 0 0-1.847-.254q-1.896 0-3.332.942-1.425.942-2.222 2.74-.797 1.788-.797 4.371 0 2.585.785 4.395.785 1.812 2.222 2.765 1.437.942 3.392.942 1.776 0 3.031-.628 1.268-.64 1.932-1.8.676-1.158.676-2.74l1.062.157h-6.375v-3.936h10.348v3.115q0 3.26-1.377 5.602a9.4 9.4 0 0 1-3.791 3.598q-2.415 1.256-5.53 1.256-3.477 0-6.109-1.533-2.632-1.546-4.105-4.383-1.461-2.85-1.461-6.761 0-3.008.869-5.361.882-2.367 2.463-4.009a10.65 10.65 0 0 1 3.683-2.5q2.1-.855 4.552-.856 2.1 0 3.912.615 1.81.604 3.211 1.715a9.3 9.3 0 0 1 2.306 2.644 9 9 0 0 1 1.147 3.357zM632.944 43V24.455h4.987v3.235h.193q.507-1.725 1.702-2.608 1.196-.893 2.753-.893.387 0 .833.048.447.049.785.133v4.564a7 7 0 0 0-1.002-.193 9 9 0 0 0-1.171-.085q-1.135 0-2.029.495a3.65 3.65 0 0 0-1.4 1.353q-.507.87-.507 2.004V43zm18.669.35q-1.774 0-3.163-.616a5.1 5.1 0 0 1-2.197-1.847q-.798-1.23-.797-3.067 0-1.545.567-2.596.568-1.05 1.546-1.69a7.5 7.5 0 0 1 2.221-.966q1.256-.325 2.632-.459a67 67 0 0 0 2.608-.314q.99-.156 1.437-.458t.447-.894v-.072q0-1.148-.725-1.775-.712-.628-2.028-.628-1.389 0-2.21.616-.82.604-1.086 1.521l-4.757-.386q.362-1.69 1.424-2.922 1.063-1.244 2.741-1.908 1.69-.675 3.912-.676 1.545 0 2.958.362 1.425.363 2.524 1.123a5.45 5.45 0 0 1 1.75 1.956q.64 1.184.64 2.837V43h-4.878v-2.572h-.144a5.2 5.2 0 0 1-1.196 1.534 5.5 5.5 0 0 1-1.799 1.026q-1.05.362-2.427.362m1.473-3.55q1.135 0 2.005-.446a3.55 3.55 0 0 0 1.364-1.232q.495-.773.495-1.75v-1.969a2.8 2.8 0 0 1-.664.29q-.411.12-.93.23a47 47 0 0 1-1.038.18l-.942.133a6.4 6.4 0 0 0-1.582.423q-.675.29-1.05.785-.374.483-.374 1.207 0 1.05.76 1.606.774.543 1.956.543m12.962 10.155v-25.5h5.071v3.115h.229q.338-.75.978-1.522.652-.785 1.69-1.304 1.051-.53 2.608-.53 2.029 0 3.743 1.062 1.715 1.05 2.741 3.175 1.026 2.113 1.026 5.3 0 3.105-1.002 5.24-.99 2.126-2.704 3.224-1.702 1.087-3.816 1.087-1.497 0-2.547-.495-1.039-.495-1.703-1.244a6.4 6.4 0 0 1-1.014-1.533h-.157v9.925zm5.034-16.228q0 1.654.459 2.886.46 1.23 1.328 1.92.87.676 2.113.676 1.256 0 2.125-.688.87-.7 1.316-1.932.459-1.244.459-2.862 0-1.605-.447-2.825-.446-1.22-1.316-1.908-.868-.688-2.137-.688-1.255 0-2.125.664-.857.664-1.316 1.884t-.459 2.873m21.625-1.449V43h-5.144V18.273h4.999v9.454h.217q.628-1.642 2.029-2.572 1.4-.942 3.513-.942 1.932 0 3.369.845 1.449.834 2.245 2.403.81 1.558.797 3.73V43h-5.143V32.11q.012-1.715-.869-2.669-.87-.954-2.439-.954-1.05 0-1.86.447-.797.447-1.255 1.304-.447.845-.459 2.04M423.272 49.761h240.457v2.319H423.272zm250.234 0h33.231v2.319h-33.231z"/><path stroke="red" stroke-linecap="round" stroke-linejoin="round" stroke-width="2" d="m328.25 321.75-15.5 15.5M312.75 321.75l15.5 15.5"/><circle cx="551.5" cy="389.5" r="6" fill="#a80000" stroke="#690000"/><circle cx="986.5" cy="449.5" r="6" fill="#a80000" stroke="#690000"/><circle cx="225.5" cy="508.5" r="6" fill="#a80000" stroke="#690000"/><circle cx="677.5" cy="568.5" r="6" fill="#a80000" stroke="#690000"/><circle cx="684.5" cy="688.5" r="6" fill="#a80000" stroke="#690000"/><circle cx="390.5" cy="748.5" r="6" fill="#a80000" stroke="#690000"/><circle cx="400.5" cy="808.5" r="6" fill="#a80000" stroke="#690000"/><circle cx="110.5" cy="628.5" r="6" fill="#a80000" stroke="#690000"/><path fill="#fff" d="M569.481 362.307a6.2 6.2 0 0 1 2.148.409q1.073.4 1.96 1.329.886.92 1.423 2.515.537 1.594.537 3.997 0 2.327-.443 4.133-.435 1.799-1.262 3.034-.818 1.236-1.994 1.875-1.167.64-2.642.64-1.466 0-2.616-.58a5.1 5.1 0 0 1-1.875-1.628q-.725-1.048-.929-2.429h2.079q.282 1.202 1.117 1.986.843.776 2.224.776 2.02 0 3.188-1.765 1.176-1.764 1.176-4.985h-.137a5.4 5.4 0 0 1-1.133 1.235 5 5 0 0 1-1.458.802 5.1 5.1 0 0 1-1.704.281 5.3 5.3 0 0 1-2.753-.742 5.6 5.6 0 0 1-1.994-2.054q-.742-1.312-.742-3 0-1.602.716-2.931a5.5 5.5 0 0 1 2.029-2.131q1.312-.793 3.085-.767m0 1.875q-1.074 0-1.935.537a3.86 3.86 0 0 0-1.355 1.432 4.04 4.04 0 0 0-.494 1.985q0 1.092.477 1.986a3.8 3.8 0 0 0 1.321 1.415q.844.52 1.918.52.809 0 1.508-.316a3.9 3.9 0 0 0 1.219-.877q.528-.563.827-1.27.298-.717.298-1.492 0-1.023-.494-1.917a3.9 3.9 0 0 0-1.347-1.449q-.852-.554-1.943-.554m15.01 16.057q-1.755 0-3.102-.623-1.338-.63-2.088-1.73-.75-1.107-.741-2.522a4.64 4.64 0 0 1 .434-2.046 4.46 4.46 0 0 1 1.211-1.577 3.7 3.7 0 0 1 1.73-.809v-.102a3.37 3.37 0 0 1-1.995-1.407q-.74-1.09-.733-2.48-.008-1.33.674-2.378.681-1.049 1.875-1.653 1.202-.605 2.735-.605 1.517 0 2.711.605 1.192.604 1.875 1.653.69 1.049.699 2.378-.009 1.39-.759 2.48-.741 1.083-1.969 1.407v.102a3.6 3.6 0 0 1 1.705.809q.759.631 1.21 1.577a4.7 4.7 0 0 1 .46 2.046q-.008 1.415-.767 2.522-.75 1.1-2.088 1.73-1.33.623-3.077.623m0-1.875q1.185 0 2.046-.384t1.329-1.082q.47-.7.478-1.637-.009-.988-.512-1.747a3.47 3.47 0 0 0-1.372-1.193q-.86-.435-1.969-.435-1.116 0-1.994.435a3.5 3.5 0 0 0-1.372 1.193q-.494.759-.486 1.747-.008.938.452 1.637.468.698 1.338 1.082t2.062.384m0-8.284q.938 0 1.662-.375.734-.375 1.151-1.049t.426-1.576q-.009-.887-.418-1.543a2.7 2.7 0 0 0-1.133-1.023q-.724-.366-1.688-.366-.98 0-1.713.366-.732.358-1.133 1.023-.4.656-.392 1.543-.008.903.4 1.576.418.674 1.151 1.049t1.687.375M998.33 415.545V433h-2.114v-15.239h-.102l-4.261 2.83v-2.148l4.363-2.898zm10.61 17.694c-1.17 0-2.2-.208-3.1-.623-.89-.42-1.59-.997-2.09-1.73-.5-.738-.75-1.579-.74-2.522-.01-.739.14-1.421.43-2.046.3-.631.7-1.156 1.21-1.577.52-.426 1.1-.696 1.73-.809v-.102a3.36 3.36 0 0 1-1.99-1.407 4.26 4.26 0 0 1-.73-2.48c-.01-.886.22-1.679.67-2.378s1.08-1.25 1.87-1.653c.81-.403 1.72-.605 2.74-.605 1.01 0 1.92.202 2.71.605.8.403 1.42.954 1.88 1.653q.69 1.049.69 2.378 0 1.39-.75 2.48c-.5.722-1.15 1.191-1.97 1.407v.102c.63.113 1.2.383 1.7.809.51.421.91.946 1.21 1.577.3.625.46 1.307.46 2.046a4.4 4.4 0 0 1-.76 2.522c-.5.733-1.2 1.31-2.09 1.73-.89.415-1.91.623-3.08.623m0-1.875c.79 0 1.47-.128 2.05-.384.57-.256 1.01-.616 1.33-1.082.31-.466.47-1.012.47-1.637q0-.988-.51-1.747a3.43 3.43 0 0 0-1.37-1.193c-.57-.29-1.23-.435-1.97-.435s-1.41.145-1.99.435a3.53 3.53 0 0 0-1.38 1.193q-.495.759-.48 1.747-.015.938.45 1.637c.31.466.76.826 1.34 1.082s1.27.384 2.06.384m0-8.284c.63 0 1.18-.125 1.66-.375.49-.25.87-.6 1.15-1.049s.42-.974.43-1.576q-.015-.887-.42-1.543a2.7 2.7 0 0 0-1.13-1.023c-.48-.244-1.05-.366-1.69-.366q-.975 0-1.71.366-.735.358-1.14 1.023-.39.656-.39 1.543c0 .602.13 1.127.4 1.576.28.449.66.799 1.15 1.049s1.05.375 1.69.375m15.1 10.159c-1.13 0-2.13-.194-3.01-.58s-1.57-.923-2.09-1.611q-.765-1.04-.84-2.412h2.15c.05.563.24 1.049.58 1.458.34.403.79.716 1.34.937q.825.333 1.83.333c.75 0 1.42-.131 2-.392.58-.262 1.03-.625 1.36-1.091s.49-1.006.49-1.62c0-.642-.15-1.207-.47-1.696-.32-.494-.79-.88-1.4-1.159q-.915-.417-2.25-.417h-1.4v-1.875h1.4c.69 0 1.3-.125 1.82-.375.53-.25.94-.603 1.24-1.057q.45-.683.45-1.602 0-.887-.39-1.543a2.66 2.66 0 0 0-1.11-1.023c-.47-.244-1.03-.366-1.67-.366-.6 0-1.17.111-1.7.332a3.2 3.2 0 0 0-1.3.946 2.44 2.44 0 0 0-.54 1.483h-2.05c.03-.915.31-1.716.83-2.403.51-.694 1.19-1.233 2.02-1.62a6.6 6.6 0 0 1 2.77-.579c1.08 0 2.01.219 2.78.656.78.432 1.37 1.003 1.78 1.713q.63 1.065.63 2.301 0 1.475-.78 2.514c-.51.694-1.21 1.174-2.09 1.441v.136c1.11.182 1.97.651 2.59 1.406.61.75.92 1.679.92 2.787 0 .949-.25 1.801-.77 2.557q-.765 1.125-2.1 1.773c-.88.432-1.89.648-3.02.648M238.208 496.239q-1.687 0-3.008-.58-1.312-.579-2.088-1.611-.768-1.04-.835-2.412h2.147a2.54 2.54 0 0 0 .58 1.458q.512.605 1.338.937a4.9 4.9 0 0 0 1.832.333q1.125 0 1.995-.392.869-.393 1.363-1.091.495-.699.495-1.62 0-.963-.478-1.696-.477-.74-1.397-1.159-.921-.417-2.25-.417h-1.398v-1.875h1.398q1.04 0 1.823-.375.793-.376 1.236-1.057.452-.683.452-1.602 0-.887-.392-1.543a2.7 2.7 0 0 0-1.108-1.023q-.708-.366-1.67-.366-.904 0-1.705.332-.792.324-1.295.946-.504.614-.546 1.483h-2.045q.05-1.373.826-2.403.776-1.04 2.029-1.62 1.261-.579 2.77-.579 1.619 0 2.778.656 1.16.648 1.781 1.713.622 1.065.622 2.301 0 1.475-.775 2.514-.767 1.04-2.088 1.441v.136q1.653.273 2.582 1.406.93 1.125.929 2.787 0 1.423-.775 2.557-.768 1.125-2.097 1.773-1.33.648-3.026.648m9.929-.239 7.807-15.443v-.137h-9v-1.875h11.182v1.978L250.353 496zM702.834 533.545V551h-2.114v-15.239h-.102l-4.261 2.83v-2.148l4.363-2.898zm5.02 17.455v-1.534l5.761-6.307a41 41 0 0 0 1.671-1.926q.656-.826.971-1.551.324-.733.324-1.534 0-.92-.443-1.594a2.9 2.9 0 0 0-1.193-1.04 3.9 3.9 0 0 0-1.705-.366q-1.005 0-1.756.417a2.9 2.9 0 0 0-1.15 1.151q-.4.741-.401 1.739h-2.011q0-1.535.707-2.694a4.9 4.9 0 0 1 1.926-1.806q1.228-.648 2.753-.648 1.534 0 2.719.648a4.86 4.86 0 0 1 1.858 1.747 4.6 4.6 0 0 1 .673 2.446 5.3 5.3 0 0 1-.349 1.883q-.34.912-1.193 2.037-.844 1.117-2.344 2.727l-3.921 4.194v.136h8.114V551zm14.531 0v-1.534l5.761-6.307a41 41 0 0 0 1.671-1.926q.656-.826.971-1.551.324-.733.324-1.534 0-.92-.443-1.594a2.9 2.9 0 0 0-1.193-1.04 3.9 3.9 0 0 0-1.705-.366q-1.005 0-1.755.417a2.9 2.9 0 0 0-1.151 1.151q-.4.741-.401 1.739h-2.011q0-1.535.708-2.694a4.9 4.9 0 0 1 1.926-1.806q1.227-.648 2.752-.648 1.534 0 2.719.648a4.86 4.86 0 0 1 1.858 1.747 4.6 4.6 0 0 1 .673 2.446 5.3 5.3 0 0 1-.349 1.883q-.34.912-1.193 2.037-.844 1.117-2.344 2.727l-3.92 4.194v.136h8.113V551zM127.666 601.545V619h-2.114v-15.239h-.102l-4.261 2.83v-2.148l4.363-2.898zm4.611 13.875v-1.738l7.67-12.137h1.261v2.694h-.852l-5.795 9.17v.136h10.329v1.875zm8.216 3.58v-17.455h2.011V619zM709.588 653.545V671h-2.114v-15.239h-.102l-4.262 2.83v-2.148l4.364-2.898zm5.02 17.455v-1.534l5.761-6.307a40 40 0 0 0 1.67-1.926q.657-.826.972-1.551.324-.733.324-1.534 0-.92-.443-1.594a2.9 2.9 0 0 0-1.193-1.04 3.9 3.9 0 0 0-1.705-.366q-1.006 0-1.756.417a2.88 2.88 0 0 0-1.15 1.151q-.4.741-.401 1.739h-2.011q0-1.535.707-2.694a4.9 4.9 0 0 1 1.926-1.806q1.227-.648 2.753-.648 1.534 0 2.719.648a4.86 4.86 0 0 1 1.858 1.747 4.6 4.6 0 0 1 .673 2.446 5.3 5.3 0 0 1-.349 1.883q-.341.912-1.193 2.037-.844 1.117-2.344 2.727l-3.921 4.194v.136h8.114V671zm13.747-3.58v-1.738l7.67-12.137h1.262v2.694h-.853l-5.795 9.17v.136h10.329v1.875zm8.216 3.58v-17.455h2.011V671zM407.813 734.239a6.6 6.6 0 0 1-2.148-.409q-1.073-.393-1.96-1.321-.886-.937-1.423-2.532-.537-1.602-.537-4.022 0-2.319.435-4.108.434-1.799 1.261-3.026.827-1.236 1.994-1.875 1.176-.639 2.651-.639 1.466 0 2.608.588a5 5 0 0 1 1.875 1.619q.724 1.04.937 2.395h-2.079q-.29-1.176-1.125-1.952-.836-.775-2.216-.775-2.029 0-3.196 1.764-1.16 1.764-1.168 4.952h.137a5.14 5.14 0 0 1 2.599-2.037 5.1 5.1 0 0 1 1.696-.281q1.5 0 2.744.75a5.54 5.54 0 0 1 1.995 2.054q.75 1.303.75 2.991 0 1.62-.725 2.966a5.5 5.5 0 0 1-2.037 2.131q-1.304.783-3.068.767m0-1.875q1.074 0 1.926-.537a3.83 3.83 0 0 0 1.355-1.441 4.05 4.05 0 0 0 .503-2.011q0-1.083-.485-1.969a3.7 3.7 0 0 0-1.322-1.423q-.834-.528-1.909-.528-.809 0-1.508.323-.699.316-1.227.87-.52.553-.819 1.27a3.8 3.8 0 0 0-.298 1.491q0 1.04.486 1.943a4 4 0 0 0 1.347 1.458 3.53 3.53 0 0 0 1.951.554m14.636 1.875q-1.5 0-2.702-.597a5 5 0 0 1-1.926-1.636 4.47 4.47 0 0 1-.793-2.37h2.046q.118 1.185 1.074 1.961.963.767 2.301.767 1.074 0 1.909-.503a3.55 3.55 0 0 0 1.321-1.381q.486-.886.486-2.003 0-1.141-.503-2.037a3.7 3.7 0 0 0-1.364-1.423q-.869-.52-1.986-.528a5.4 5.4 0 0 0-1.644.247q-.844.248-1.39.639l-1.977-.239 1.057-8.591h9.068v1.875h-7.295l-.614 5.148h.102q.537-.426 1.347-.707a5.1 5.1 0 0 1 1.687-.281q1.603 0 2.856.767 1.26.757 1.977 2.079.724 1.321.724 3.017 0 1.67-.75 2.983a5.5 5.5 0 0 1-2.045 2.063q-1.305.75-2.966.75M417.259 793.239a6.6 6.6 0 0 1-2.148-.409q-1.075-.393-1.96-1.321-.887-.937-1.424-2.532-.537-1.602-.537-4.022 0-2.319.435-4.108.435-1.799 1.261-3.026.827-1.236 1.995-1.875 1.176-.639 2.65-.639 1.467 0 2.608.588a5 5 0 0 1 1.875 1.619q.725 1.04.938 2.395h-2.08q-.29-1.176-1.125-1.952-.835-.775-2.216-.775-2.028 0-3.196 1.764-1.159 1.764-1.167 4.952h.136a5.12 5.12 0 0 1 2.599-2.037 5.1 5.1 0 0 1 1.696-.281q1.5 0 2.745.75a5.54 5.54 0 0 1 1.994 2.054q.75 1.303.75 2.991 0 1.62-.724 2.966a5.5 5.5 0 0 1-2.037 2.131q-1.304.783-3.068.767m0-1.875a3.54 3.54 0 0 0 1.926-.537 3.84 3.84 0 0 0 1.355-1.441 4.06 4.06 0 0 0 .503-2.011q0-1.083-.486-1.969a3.7 3.7 0 0 0-1.321-1.423q-.835-.528-1.909-.528-.81 0-1.509.323-.699.316-1.227.87a4.2 4.2 0 0 0-.818 1.27 3.8 3.8 0 0 0-.299 1.491q0 1.04.486 1.943.495.904 1.347 1.458a3.53 3.53 0 0 0 1.952.554m9.726 1.636 7.807-15.443v-.137h-9v-1.875h11.182v1.978L429.201 793z"/></svg>